  0
SECTION
  2
BLOCKS
  0
ENDSEC
  0
SECTION
  2
ENTITIES
  0
LINE
  8
0
 10
17.9369
 20
248.089
 11
18.5451
 21
248.245
  0
LINE
  8
0
 10
18.5451
 20
248.245
 11
19.1289
 21
248.476
  0
LINE
  8
0
 10
19.1289
 20
248.476
 11
19.6791
 21
248.778
  0
LINE
  8
0
 10
19.6791
 20
248.778
 11
20.1871
 21
249.147
  0
LINE
  8
0
 10
20.1871
 20
249.147
 11
20.6448
 21
249.577
  0
LINE
  8
0
 10
20.6448
 20
249.577
 11
21.0451
 21
250.061
  0
LINE
  8
0
 10
21.0451
 20
250.061
 11
21.3815
 21
250.591
  0
LINE
  8
0
 10
21.3815
 20
250.591
 11
21.6489
 21
251.159
  0
LINE
  8
0
 10
21.6489
 20
251.159
 11
21.8429
 21
251.757
  0
LINE
  8
0
 10
21.8429
 20
251.757
 11
21.9606
 21
252.373
  0
LINE
  8
0
 10
21.9606
 20
252.373
 11
22
 21
253
  0
LINE
  8
0
 10
22
 20
253
 11
22
 21
287
  0
LINE
  8
0
 10
22
 20
287
 11
21.9685
 21
287.5
  0
LINE
  8
0
 10
21.9685
 20
287.5
 11
11.5
 21
287.5
  0
LINE
  8
0
 10
11.5
 20
287.5
 11
11.5
 21
287.495
  0
LINE
  8
0
 10
11.5
 20
287.495
 11
11.343
 21
287.495
  0
LINE
  8
0
 10
11.343
 20
287.495
 11
11.0315
 21
287.456
  0
LINE
  8
0
 10
11.0315
 20
287.456
 11
10.7274
 21
287.378
  0
LINE
  8
0
 10
10.7274
 20
287.378
 11
10.4355
 21
287.262
  0
LINE
  8
0
 10
10.4355
 20
287.262
 11
10.1604
 21
287.111
  0
LINE
  8
0
 10
10.1604
 20
287.111
 11
9.90643
 21
286.926
  0
LINE
  8
0
 10
9.90643
 20
286.926
 11
9.67757
 21
286.711
  0
LINE
  8
0
 10
9.67757
 20
286.711
 11
9.47745
 21
286.469
  0
LINE
  8
0
 10
9.47745
 20
286.469
 11
9.30922
 21
286.204
  0
LINE
  8
0
 10
9.30922
 20
286.204
 11
9.17555
 21
285.92
  0
LINE
  8
0
 10
9.17555
 20
285.92
 11
9.07854
 21
285.622
  0
LINE
  8
0
 10
9.07854
 20
285.622
 11
9.0197
 21
285.313
  0
LINE
  8
0
 10
9.0197
 20
285.313
 11
9
 21
285
  0
LINE
  8
0
 10
9
 20
285
 11
9.0197
 21
284.687
  0
LINE
  8
0
 10
9.0197
 20
284.687
 11
9.07854
 21
284.378
  0
LINE
  8
0
 10
9.07854
 20
284.378
 11
9.17555
 21
284.08
  0
LINE
  8
0
 10
9.17555
 20
284.08
 11
9.30922
 21
283.796
  0
LINE
  8
0
 10
9.30922
 20
283.796
 11
9.47745
 21
283.531
  0
LINE
  8
0
 10
9.47745
 20
283.531
 11
9.67757
 21
283.289
  0
LINE
  8
0
 10
9.67757
 20
283.289
 11
9.90643
 21
283.074
  0
LINE
  8
0
 10
9.90643
 20
283.074
 11
10.1604
 21
282.889
  0
LINE
  8
0
 10
10.1604
 20
282.889
 11
10.4355
 21
282.738
  0
LINE
  8
0
 10
10.4355
 20
282.738
 11
10.7274
 21
282.622
  0
LINE
  8
0
 10
10.7274
 20
282.622
 11
11.0315
 21
282.544
  0
LINE
  8
0
 10
11.0315
 20
282.544
 11
11.343
 21
282.505
  0
LINE
  8
0
 10
11.343
 20
282.505
 11
11.5
 21
282.505
  0
LINE
  8
0
 10
11.5
 20
282.505
 11
11.5
 21
282.5
  0
LINE
  8
0
 10
11.5
 20
282.5
 11
11.4738
 21
282.5
  0
LINE
  8
0
 10
11.4738
 20
282.5
 11
12.3925
 21
281.637
  0
LINE
  8
0
 10
12.3925
 20
281.637
 11
13.7533
 21
279.992
  0
LINE
  8
0
 10
13.7533
 20
279.992
 11
14.8972
 21
278.19
  0
LINE
  8
0
 10
14.8972
 20
278.19
 11
15.8062
 21
276.258
  0
LINE
  8
0
 10
15.8062
 20
276.258
 11
16.4659
 21
274.228
  0
LINE
  8
0
 10
16.4659
 20
274.228
 11
16.8659
 21
272.131
  0
LINE
  8
0
 10
16.8659
 20
272.131
 11
17
 21
270
  0
LINE
  8
0
 10
17
 20
270
 11
16.8659
 21
267.869
  0
LINE
  8
0
 10
16.8659
 20
267.869
 11
16.4659
 21
265.772
  0
LINE
  8
0
 10
16.4659
 20
265.772
 11
15.8062
 21
263.742
  0
LINE
  8
0
 10
15.8062
 20
263.742
 11
14.8972
 21
261.81
  0
LINE
  8
0
 10
14.8972
 20
261.81
 11
13.7533
 21
260.008
  0
LINE
  8
0
 10
13.7533
 20
260.008
 11
12.3925
 21
258.363
  0
LINE
  8
0
 10
12.3925
 20
258.363
 11
10.8362
 21
256.901
  0
LINE
  8
0
 10
10.8362
 20
256.901
 11
9.10905
 21
255.646
  0
LINE
  8
0
 10
9.10905
 20
255.646
 11
7.23824
 21
254.618
  0
LINE
  8
0
 10
7.23824
 20
254.618
 11
5.25328
 21
253.832
  0
LINE
  8
0
 10
5.25328
 20
253.832
 11
3.18547
 21
253.301
  0
LINE
  8
0
 10
3.18547
 20
253.301
 11
1.06743
 21
253.034
  0
LINE
  8
0
 10
1.06743
 20
253.034
 11
-1.06743
 21
253.034
  0
LINE
  8
0
 10
-1.06743
 20
253.034
 11
-3.18547
 21
253.301
  0
LINE
  8
0
 10
-3.18547
 20
253.301
 11
-5.25328
 21
253.832
  0
LINE
  8
0
 10
-5.25328
 20
253.832
 11
-7.23824
 21
254.618
  0
LINE
  8
0
 10
-7.23824
 20
254.618
 11
-9.10905
 21
255.646
  0
LINE
  8
0
 10
-9.10905
 20
255.646
 11
-10.8362
 21
256.901
  0
LINE
  8
0
 10
-10.8362
 20
256.901
 11
-12.3925
 21
258.363
  0
LINE
  8
0
 10
-12.3925
 20
258.363
 11
-13.7533
 21
260.008
  0
LINE
  8
0
 10
-13.7533
 20
260.008
 11
-14.8972
 21
261.81
  0
LINE
  8
0
 10
-14.8972
 20
261.81
 11
-15.8062
 21
263.742
  0
LINE
  8
0
 10
-15.8062
 20
263.742
 11
-16.4659
 21
265.772
  0
LINE
  8
0
 10
-16.4659
 20
265.772
 11
-16.8659
 21
267.869
  0
LINE
  8
0
 10
-16.8659
 20
267.869
 11
-17
 21
270
  0
LINE
  8
0
 10
-17
 20
270
 11
-16.8659
 21
272.131
  0
LINE
  8
0
 10
-16.8659
 20
272.131
 11
-16.4659
 21
274.228
  0
LINE
  8
0
 10
-16.4659
 20
274.228
 11
-15.8062
 21
276.258
  0
LINE
  8
0
 10
-15.8062
 20
276.258
 11
-14.8972
 21
278.19
  0
LINE
  8
0
 10
-14.8972
 20
278.19
 11
-13.7533
 21
279.992
  0
LINE
  8
0
 10
-13.7533
 20
279.992
 11
-12.3925
 21
281.637
  0
LINE
  8
0
 10
-12.3925
 20
281.637
 11
-10.8362
 21
283.099
  0
LINE
  8
0
 10
-10.8362
 20
283.099
 11
-9.10905
 21
284.354
  0
LINE
  8
0
 10
-9.10905
 20
284.354
 11
-7.23824
 21
285.382
  0
LINE
  8
0
 10
-7.23824
 20
285.382
 11
-5.25328
 21
286.168
  0
LINE
  8
0
 10
-5.25328
 20
286.168
 11
-3.18547
 21
286.699
  0
LINE
  8
0
 10
-3.18547
 20
286.699
 11
-1.06743
 21
286.966
  0
LINE
  8
0
 10
-1.06743
 20
286.966
 11
0
 21
286.966
  0
LINE
  8
0
 10
0
 20
286.966
 11
0
 21
289
  0
LINE
  8
0
 10
0
 20
289
 11
6.99998
 21
289
  0
LINE
  8
0
 10
6.99998
 20
289
 11
4.00986
 21
291.99
  0
LINE
  8
0
 10
4.00986
 20
291.99
 11
4
 21
291.99
  0
LINE
  8
0
 10
4
 20
291.99
 11
4
 21
291
  0
LINE
  8
0
 10
4
 20
291
 11
-21
 21
291
  0
LINE
  8
0
 10
-21
 20
291
 11
-21
 21
292
  0
LINE
  8
0
 10
-21
 20
292
 11
-22
 21
292
  0
LINE
  8
0
 10
-22
 20
292
 11
-22
 21
287.994
  0
LINE
  8
0
 10
-22
 20
287.994
 11
-14.8116
 21
287.994
  0
LINE
  8
0
 10
-14.8116
 20
287.994
 11
-14.4379
 21
287.947
  0
LINE
  8
0
 10
-14.4379
 20
287.947
 11
-14.0729
 21
287.853
  0
LINE
  8
0
 10
-14.0729
 20
287.853
 11
-13.7227
 21
287.714
  0
LINE
  8
0
 10
-13.7227
 20
287.714
 11
-13.3925
 21
287.533
  0
LINE
  8
0
 10
-13.3925
 20
287.533
 11
-13.0877
 21
287.312
  0
LINE
  8
0
 10
-13.0877
 20
287.312
 11
-12.8131
 21
287.054
  0
LINE
  8
0
 10
-12.8131
 20
287.054
 11
-12.5729
 21
286.763
  0
LINE
  8
0
 10
-12.5729
 20
286.763
 11
-12.3711
 21
286.445
  0
LINE
  8
0
 10
-12.3711
 20
286.445
 11
-12.2107
 21
286.104
  0
LINE
  8
0
 10
-12.2107
 20
286.104
 11
-12.0942
 21
285.746
  0
LINE
  8
0
 10
-12.0942
 20
285.746
 11
-12.0237
 21
285.376
  0
LINE
  8
0
 10
-12.0237
 20
285.376
 11
-12
 21
285
  0
LINE
  8
0
 10
-12
 20
285
 11
-12.0237
 21
284.624
  0
LINE
  8
0
 10
-12.0237
 20
284.624
 11
-12.0942
 21
284.254
  0
LINE
  8
0
 10
-12.0942
 20
284.254
 11
-12.2107
 21
283.896
  0
LINE
  8
0
 10
-12.2107
 20
283.896
 11
-12.3711
 21
283.555
  0
LINE
  8
0
 10
-12.3711
 20
283.555
 11
-12.5729
 21
283.237
  0
LINE
  8
0
 10
-12.5729
 20
283.237
 11
-12.8131
 21
282.946
  0
LINE
  8
0
 10
-12.8131
 20
282.946
 11
-13.0877
 21
282.688
  0
LINE
  8
0
 10
-13.0877
 20
282.688
 11
-13.3925
 21
282.467
  0
LINE
  8
0
 10
-13.3925
 20
282.467
 11
-13.7227
 21
282.286
  0
LINE
  8
0
 10
-13.7227
 20
282.286
 11
-14.0729
 21
282.147
  0
LINE
  8
0
 10
-14.0729
 20
282.147
 11
-14.4379
 21
282.053
  0
LINE
  8
0
 10
-14.4379
 20
282.053
 11
-14.8116
 21
282.006
  0
LINE
  8
0
 10
-14.8116
 20
282.006
 11
-22
 21
282.006
  0
LINE
  8
0
 10
-22
 20
282.006
 11
-22
 21
257.994
  0
LINE
  8
0
 10
-22
 20
257.994
 11
-14.8116
 21
257.994
  0
LINE
  8
0
 10
-14.8116
 20
257.994
 11
-14.4379
 21
257.947
  0
LINE
  8
0
 10
-14.4379
 20
257.947
 11
-14.0729
 21
257.853
  0
LINE
  8
0
 10
-14.0729
 20
257.853
 11
-13.7227
 21
257.714
  0
LINE
  8
0
 10
-13.7227
 20
257.714
 11
-13.3925
 21
257.533
  0
LINE
  8
0
 10
-13.3925
 20
257.533
 11
-13.0877
 21
257.312
  0
LINE
  8
0
 10
-13.0877
 20
257.312
 11
-12.8131
 21
257.054
  0
LINE
  8
0
 10
-12.8131
 20
257.054
 11
-12.5729
 21
256.763
  0
LINE
  8
0
 10
-12.5729
 20
256.763
 11
-12.3711
 21
256.445
  0
LINE
  8
0
 10
-12.3711
 20
256.445
 11
-12.2107
 21
256.104
  0
LINE
  8
0
 10
-12.2107
 20
256.104
 11
-12.0942
 21
255.746
  0
LINE
  8
0
 10
-12.0942
 20
255.746
 11
-12.0237
 21
255.376
  0
LINE
  8
0
 10
-12.0237
 20
255.376
 11
-12
 21
255
  0
LINE
  8
0
 10
-12
 20
255
 11
-12.0237
 21
254.624
  0
LINE
  8
0
 10
-12.0237
 20
254.624
 11
-12.0942
 21
254.254
  0
LINE
  8
0
 10
-12.0942
 20
254.254
 11
-12.2107
 21
253.896
  0
LINE
  8
0
 10
-12.2107
 20
253.896
 11
-12.3711
 21
253.555
  0
LINE
  8
0
 10
-12.3711
 20
253.555
 11
-12.5729
 21
253.237
  0
LINE
  8
0
 10
-12.5729
 20
253.237
 11
-12.8131
 21
252.946
  0
LINE
  8
0
 10
-12.8131
 20
252.946
 11
-13.0877
 21
252.688
  0
LINE
  8
0
 10
-13.0877
 20
252.688
 11
-13.3925
 21
252.467
  0
LINE
  8
0
 10
-13.3925
 20
252.467
 11
-13.7227
 21
252.286
  0
LINE
  8
0
 10
-13.7227
 20
252.286
 11
-14.0729
 21
252.147
  0
LINE
  8
0
 10
-14.0729
 20
252.147
 11
-14.4379
 21
252.053
  0
LINE
  8
0
 10
-14.4379
 20
252.053
 11
-14.8116
 21
252.006
  0
LINE
  8
0
 10
-14.8116
 20
252.006
 11
-21.8905
 21
252.006
  0
LINE
  8
0
 10
-21.8905
 20
252.006
 11
-21.8429
 21
251.757
  0
LINE
  8
0
 10
-21.8429
 20
251.757
 11
-21.6489
 21
251.159
  0
LINE
  8
0
 10
-21.6489
 20
251.159
 11
-21.3815
 21
250.591
  0
LINE
  8
0
 10
-21.3815
 20
250.591
 11
-21.0451
 21
250.061
  0
LINE
  8
0
 10
-21.0451
 20
250.061
 11
-20.6448
 21
249.577
  0
LINE
  8
0
 10
-20.6448
 20
249.577
 11
-20.1871
 21
249.147
  0
LINE
  8
0
 10
-20.1871
 20
249.147
 11
-19.6791
 21
248.778
  0
LINE
  8
0
 10
-19.6791
 20
248.778
 11
-19.1289
 21
248.476
  0
LINE
  8
0
 10
-19.1289
 20
248.476
 11
-18.5451
 21
248.245
  0
LINE
  8
0
 10
-18.5451
 20
248.245
 11
-17.9369
 21
248.089
  0
LINE
  8
0
 10
-17.9369
 20
248.089
 11
-17.3139
 21
248.01
  0
LINE
  8
0
 10
-17.3139
 20
248.01
 11
17.3139
 21
248.01
  0
LINE
  8
0
 10
17.3139
 20
248.01
 11
17.9369
 21
248.089
  0
LINE
  8
0
 10
14.8116
 20
252.006
 11
14.4379
 21
252.053
  0
LINE
  8
0
 10
14.4379
 20
252.053
 11
14.0729
 21
252.147
  0
LINE
  8
0
 10
14.0729
 20
252.147
 11
13.7227
 21
252.286
  0
LINE
  8
0
 10
13.7227
 20
252.286
 11
13.3925
 21
252.467
  0
LINE
  8
0
 10
13.3925
 20
252.467
 11
13.0877
 21
252.688
  0
LINE
  8
0
 10
13.0877
 20
252.688
 11
12.8131
 21
252.946
  0
LINE
  8
0
 10
12.8131
 20
252.946
 11
12.5729
 21
253.237
  0
LINE
  8
0
 10
12.5729
 20
253.237
 11
12.3711
 21
253.555
  0
LINE
  8
0
 10
12.3711
 20
253.555
 11
12.2107
 21
253.896
  0
LINE
  8
0
 10
12.2107
 20
253.896
 11
12.0942
 21
254.254
  0
LINE
  8
0
 10
12.0942
 20
254.254
 11
12.0237
 21
254.624
  0
LINE
  8
0
 10
12.0237
 20
254.624
 11
12
 21
255
  0
LINE
  8
0
 10
12
 20
255
 11
12.0237
 21
255.376
  0
LINE
  8
0
 10
12.0237
 20
255.376
 11
12.0942
 21
255.746
  0
LINE
  8
0
 10
12.0942
 20
255.746
 11
12.2107
 21
256.104
  0
LINE
  8
0
 10
12.2107
 20
256.104
 11
12.3711
 21
256.445
  0
LINE
  8
0
 10
12.3711
 20
256.445
 11
12.5729
 21
256.763
  0
LINE
  8
0
 10
12.5729
 20
256.763
 11
12.8131
 21
257.054
  0
LINE
  8
0
 10
12.8131
 20
257.054
 11
13.0877
 21
257.312
  0
LINE
  8
0
 10
13.0877
 20
257.312
 11
13.3925
 21
257.533
  0
LINE
  8
0
 10
13.3925
 20
257.533
 11
13.7227
 21
257.714
  0
LINE
  8
0
 10
13.7227
 20
257.714
 11
14.0729
 21
257.853
  0
LINE
  8
0
 10
14.0729
 20
257.853
 11
14.4379
 21
257.947
  0
LINE
  8
0
 10
14.4379
 20
257.947
 11
14.8116
 21
257.994
  0
LINE
  8
0
 10
14.8116
 20
257.994
 11
15.1884
 21
257.994
  0
LINE
  8
0
 10
15.1884
 20
257.994
 11
15.5621
 21
257.947
  0
LINE
  8
0
 10
15.5621
 20
257.947
 11
15.927
 21
257.853
  0
LINE
  8
0
 10
15.927
 20
257.853
 11
16.2773
 21
257.714
  0
LINE
  8
0
 10
16.2773
 20
257.714
 11
16.6075
 21
257.533
  0
LINE
  8
0
 10
16.6075
 20
257.533
 11
16.9123
 21
257.312
  0
LINE
  8
0
 10
16.9123
 20
257.312
 11
17.1869
 21
257.054
  0
LINE
  8
0
 10
17.1869
 20
257.054
 11
17.427
 21
256.763
  0
LINE
  8
0
 10
17.427
 20
256.763
 11
17.6289
 21
256.445
  0
LINE
  8
0
 10
17.6289
 20
256.445
 11
17.7893
 21
256.104
  0
LINE
  8
0
 10
17.7893
 20
256.104
 11
17.9057
 21
255.746
  0
LINE
  8
0
 10
17.9057
 20
255.746
 11
17.9763
 21
255.376
  0
LINE
  8
0
 10
17.9763
 20
255.376
 11
18
 21
255
  0
LINE
  8
0
 10
18
 20
255
 11
17.9763
 21
254.624
  0
LINE
  8
0
 10
17.9763
 20
254.624
 11
17.9057
 21
254.254
  0
LINE
  8
0
 10
17.9057
 20
254.254
 11
17.7893
 21
253.896
  0
LINE
  8
0
 10
17.7893
 20
253.896
 11
17.6289
 21
253.555
  0
LINE
  8
0
 10
17.6289
 20
253.555
 11
17.427
 21
253.237
  0
LINE
  8
0
 10
17.427
 20
253.237
 11
17.1869
 21
252.946
  0
LINE
  8
0
 10
17.1869
 20
252.946
 11
16.9123
 21
252.688
  0
LINE
  8
0
 10
16.9123
 20
252.688
 11
16.6075
 21
252.467
  0
LINE
  8
0
 10
16.6075
 20
252.467
 11
16.2773
 21
252.286
  0
LINE
  8
0
 10
16.2773
 20
252.286
 11
15.927
 21
252.147
  0
LINE
  8
0
 10
15.927
 20
252.147
 11
15.5621
 21
252.053
  0
LINE
  8
0
 10
15.5621
 20
252.053
 11
15.1884
 21
252.006
  0
LINE
  8
0
 10
15.1884
 20
252.006
 11
14.8116
 21
252.006
  0
LINE
  8
0
 10
16
 20
291.99
 11
6.13118
 21
291.99
  0
LINE
  8
0
 10
6.13118
 20
291.99
 11
9.12131
 21
289
  0
LINE
  8
0
 10
9.12131
 20
289
 11
16
 21
289
  0
LINE
  8
0
 10
16
 20
289
 11
16
 21
291.99
  0
LINE
  8
0
 10
17.9369
 20
194.089
 11
18.5451
 21
194.245
  0
LINE
  8
0
 10
18.5451
 20
194.245
 11
19.1289
 21
194.476
  0
LINE
  8
0
 10
19.1289
 20
194.476
 11
19.6791
 21
194.778
  0
LINE
  8
0
 10
19.6791
 20
194.778
 11
20.1871
 21
195.147
  0
LINE
  8
0
 10
20.1871
 20
195.147
 11
20.6448
 21
195.577
  0
LINE
  8
0
 10
20.6448
 20
195.577
 11
21.0451
 21
196.061
  0
LINE
  8
0
 10
21.0451
 20
196.061
 11
21.3815
 21
196.591
  0
LINE
  8
0
 10
21.3815
 20
196.591
 11
21.6489
 21
197.159
  0
LINE
  8
0
 10
21.6489
 20
197.159
 11
21.8429
 21
197.757
  0
LINE
  8
0
 10
21.8429
 20
197.757
 11
21.9606
 21
198.373
  0
LINE
  8
0
 10
21.9606
 20
198.373
 11
22
 21
199
  0
LINE
  8
0
 10
22
 20
199
 11
22
 21
233
  0
LINE
  8
0
 10
22
 20
233
 11
21.9685
 21
233.5
  0
LINE
  8
0
 10
21.9685
 20
233.5
 11
11.5
 21
233.5
  0
LINE
  8
0
 10
11.5
 20
233.5
 11
11.5
 21
233.495
  0
LINE
  8
0
 10
11.5
 20
233.495
 11
11.343
 21
233.495
  0
LINE
  8
0
 10
11.343
 20
233.495
 11
11.0315
 21
233.456
  0
LINE
  8
0
 10
11.0315
 20
233.456
 11
10.7274
 21
233.378
  0
LINE
  8
0
 10
10.7274
 20
233.378
 11
10.4355
 21
233.262
  0
LINE
  8
0
 10
10.4355
 20
233.262
 11
10.1604
 21
233.111
  0
LINE
  8
0
 10
10.1604
 20
233.111
 11
9.90643
 21
232.926
  0
LINE
  8
0
 10
9.90643
 20
232.926
 11
9.67757
 21
232.711
  0
LINE
  8
0
 10
9.67757
 20
232.711
 11
9.47745
 21
232.469
  0
LINE
  8
0
 10
9.47745
 20
232.469
 11
9.30922
 21
232.204
  0
LINE
  8
0
 10
9.30922
 20
232.204
 11
9.17555
 21
231.92
  0
LINE
  8
0
 10
9.17555
 20
231.92
 11
9.07854
 21
231.622
  0
LINE
  8
0
 10
9.07854
 20
231.622
 11
9.0197
 21
231.313
  0
LINE
  8
0
 10
9.0197
 20
231.313
 11
9
 21
231
  0
LINE
  8
0
 10
9
 20
231
 11
9.0197
 21
230.687
  0
LINE
  8
0
 10
9.0197
 20
230.687
 11
9.07854
 21
230.378
  0
LINE
  8
0
 10
9.07854
 20
230.378
 11
9.17555
 21
230.08
  0
LINE
  8
0
 10
9.17555
 20
230.08
 11
9.30922
 21
229.796
  0
LINE
  8
0
 10
9.30922
 20
229.796
 11
9.47745
 21
229.531
  0
LINE
  8
0
 10
9.47745
 20
229.531
 11
9.67757
 21
229.289
  0
LINE
  8
0
 10
9.67757
 20
229.289
 11
9.90643
 21
229.074
  0
LINE
  8
0
 10
9.90643
 20
229.074
 11
10.1604
 21
228.889
  0
LINE
  8
0
 10
10.1604
 20
228.889
 11
10.4355
 21
228.738
  0
LINE
  8
0
 10
10.4355
 20
228.738
 11
10.7274
 21
228.622
  0
LINE
  8
0
 10
10.7274
 20
228.622
 11
11.0315
 21
228.544
  0
LINE
  8
0
 10
11.0315
 20
228.544
 11
11.343
 21
228.505
  0
LINE
  8
0
 10
11.343
 20
228.505
 11
11.5
 21
228.505
  0
LINE
  8
0
 10
11.5
 20
228.505
 11
11.5
 21
228.5
  0
LINE
  8
0
 10
11.5
 20
228.5
 11
11.4738
 21
228.5
  0
LINE
  8
0
 10
11.4738
 20
228.5
 11
12.3925
 21
227.637
  0
LINE
  8
0
 10
12.3925
 20
227.637
 11
13.7533
 21
225.992
  0
LINE
  8
0
 10
13.7533
 20
225.992
 11
14.8972
 21
224.19
  0
LINE
  8
0
 10
14.8972
 20
224.19
 11
15.8062
 21
222.258
  0
LINE
  8
0
 10
15.8062
 20
222.258
 11
16.4659
 21
220.228
  0
LINE
  8
0
 10
16.4659
 20
220.228
 11
16.8659
 21
218.131
  0
LINE
  8
0
 10
16.8659
 20
218.131
 11
17
 21
216
  0
LINE
  8
0
 10
17
 20
216
 11
16.8659
 21
213.869
  0
LINE
  8
0
 10
16.8659
 20
213.869
 11
16.4659
 21
211.772
  0
LINE
  8
0
 10
16.4659
 20
211.772
 11
15.8062
 21
209.742
  0
LINE
  8
0
 10
15.8062
 20
209.742
 11
14.8972
 21
207.81
  0
LINE
  8
0
 10
14.8972
 20
207.81
 11
13.7533
 21
206.008
  0
LINE
  8
0
 10
13.7533
 20
206.008
 11
12.3925
 21
204.363
  0
LINE
  8
0
 10
12.3925
 20
204.363
 11
10.8362
 21
202.901
  0
LINE
  8
0
 10
10.8362
 20
202.901
 11
9.10905
 21
201.646
  0
LINE
  8
0
 10
9.10905
 20
201.646
 11
7.23824
 21
200.618
  0
LINE
  8
0
 10
7.23824
 20
200.618
 11
5.25328
 21
199.832
  0
LINE
  8
0
 10
5.25328
 20
199.832
 11
3.18547
 21
199.301
  0
LINE
  8
0
 10
3.18547
 20
199.301
 11
1.06743
 21
199.034
  0
LINE
  8
0
 10
1.06743
 20
199.034
 11
-1.06743
 21
199.034
  0
LINE
  8
0
 10
-1.06743
 20
199.034
 11
-3.18547
 21
199.301
  0
LINE
  8
0
 10
-3.18547
 20
199.301
 11
-5.25328
 21
199.832
  0
LINE
  8
0
 10
-5.25328
 20
199.832
 11
-7.23824
 21
200.618
  0
LINE
  8
0
 10
-7.23824
 20
200.618
 11
-9.10905
 21
201.646
  0
LINE
  8
0
 10
-9.10905
 20
201.646
 11
-10.8362
 21
202.901
  0
LINE
  8
0
 10
-10.8362
 20
202.901
 11
-12.3925
 21
204.363
  0
LINE
  8
0
 10
-12.3925
 20
204.363
 11
-13.7533
 21
206.008
  0
LINE
  8
0
 10
-13.7533
 20
206.008
 11
-14.8972
 21
207.81
  0
LINE
  8
0
 10
-14.8972
 20
207.81
 11
-15.8062
 21
209.742
  0
LINE
  8
0
 10
-15.8062
 20
209.742
 11
-16.4659
 21
211.772
  0
LINE
  8
0
 10
-16.4659
 20
211.772
 11
-16.8659
 21
213.869
  0
LINE
  8
0
 10
-16.8659
 20
213.869
 11
-17
 21
216
  0
LINE
  8
0
 10
-17
 20
216
 11
-16.8659
 21
218.131
  0
LINE
  8
0
 10
-16.8659
 20
218.131
 11
-16.4659
 21
220.228
  0
LINE
  8
0
 10
-16.4659
 20
220.228
 11
-15.8062
 21
222.258
  0
LINE
  8
0
 10
-15.8062
 20
222.258
 11
-14.8972
 21
224.19
  0
LINE
  8
0
 10
-14.8972
 20
224.19
 11
-13.7533
 21
225.992
  0
LINE
  8
0
 10
-13.7533
 20
225.992
 11
-12.3925
 21
227.637
  0
LINE
  8
0
 10
-12.3925
 20
227.637
 11
-10.8362
 21
229.099
  0
LINE
  8
0
 10
-10.8362
 20
229.099
 11
-9.10905
 21
230.354
  0
LINE
  8
0
 10
-9.10905
 20
230.354
 11
-7.23824
 21
231.382
  0
LINE
  8
0
 10
-7.23824
 20
231.382
 11
-5.25328
 21
232.168
  0
LINE
  8
0
 10
-5.25328
 20
232.168
 11
-3.18547
 21
232.699
  0
LINE
  8
0
 10
-3.18547
 20
232.699
 11
-1.06743
 21
232.966
  0
LINE
  8
0
 10
-1.06743
 20
232.966
 11
0
 21
232.966
  0
LINE
  8
0
 10
0
 20
232.966
 11
0
 21
235
  0
LINE
  8
0
 10
0
 20
235
 11
6.99998
 21
235
  0
LINE
  8
0
 10
6.99998
 20
235
 11
4.00986
 21
237.99
  0
LINE
  8
0
 10
4.00986
 20
237.99
 11
4
 21
237.99
  0
LINE
  8
0
 10
4
 20
237.99
 11
4
 21
237
  0
LINE
  8
0
 10
4
 20
237
 11
-21
 21
237
  0
LINE
  8
0
 10
-21
 20
237
 11
-21
 21
238
  0
LINE
  8
0
 10
-21
 20
238
 11
-22
 21
238
  0
LINE
  8
0
 10
-22
 20
238
 11
-22
 21
233.994
  0
LINE
  8
0
 10
-22
 20
233.994
 11
-14.8116
 21
233.994
  0
LINE
  8
0
 10
-14.8116
 20
233.994
 11
-14.4379
 21
233.947
  0
LINE
  8
0
 10
-14.4379
 20
233.947
 11
-14.0729
 21
233.853
  0
LINE
  8
0
 10
-14.0729
 20
233.853
 11
-13.7227
 21
233.714
  0
LINE
  8
0
 10
-13.7227
 20
233.714
 11
-13.3925
 21
233.533
  0
LINE
  8
0
 10
-13.3925
 20
233.533
 11
-13.0877
 21
233.312
  0
LINE
  8
0
 10
-13.0877
 20
233.312
 11
-12.8131
 21
233.054
  0
LINE
  8
0
 10
-12.8131
 20
233.054
 11
-12.5729
 21
232.763
  0
LINE
  8
0
 10
-12.5729
 20
232.763
 11
-12.3711
 21
232.445
  0
LINE
  8
0
 10
-12.3711
 20
232.445
 11
-12.2107
 21
232.104
  0
LINE
  8
0
 10
-12.2107
 20
232.104
 11
-12.0942
 21
231.746
  0
LINE
  8
0
 10
-12.0942
 20
231.746
 11
-12.0237
 21
231.376
  0
LINE
  8
0
 10
-12.0237
 20
231.376
 11
-12
 21
231
  0
LINE
  8
0
 10
-12
 20
231
 11
-12.0237
 21
230.624
  0
LINE
  8
0
 10
-12.0237
 20
230.624
 11
-12.0942
 21
230.254
  0
LINE
  8
0
 10
-12.0942
 20
230.254
 11
-12.2107
 21
229.896
  0
LINE
  8
0
 10
-12.2107
 20
229.896
 11
-12.3711
 21
229.555
  0
LINE
  8
0
 10
-12.3711
 20
229.555
 11
-12.5729
 21
229.237
  0
LINE
  8
0
 10
-12.5729
 20
229.237
 11
-12.8131
 21
228.946
  0
LINE
  8
0
 10
-12.8131
 20
228.946
 11
-13.0877
 21
228.688
  0
LINE
  8
0
 10
-13.0877
 20
228.688
 11
-13.3925
 21
228.467
  0
LINE
  8
0
 10
-13.3925
 20
228.467
 11
-13.7227
 21
228.286
  0
LINE
  8
0
 10
-13.7227
 20
228.286
 11
-14.0729
 21
228.147
  0
LINE
  8
0
 10
-14.0729
 20
228.147
 11
-14.4379
 21
228.053
  0
LINE
  8
0
 10
-14.4379
 20
228.053
 11
-14.8116
 21
228.006
  0
LINE
  8
0
 10
-14.8116
 20
228.006
 11
-22
 21
228.006
  0
LINE
  8
0
 10
-22
 20
228.006
 11
-22
 21
203.994
  0
LINE
  8
0
 10
-22
 20
203.994
 11
-14.8116
 21
203.994
  0
LINE
  8
0
 10
-14.8116
 20
203.994
 11
-14.4379
 21
203.947
  0
LINE
  8
0
 10
-14.4379
 20
203.947
 11
-14.0729
 21
203.853
  0
LINE
  8
0
 10
-14.0729
 20
203.853
 11
-13.7227
 21
203.714
  0
LINE
  8
0
 10
-13.7227
 20
203.714
 11
-13.3925
 21
203.533
  0
LINE
  8
0
 10
-13.3925
 20
203.533
 11
-13.0877
 21
203.312
  0
LINE
  8
0
 10
-13.0877
 20
203.312
 11
-12.8131
 21
203.054
  0
LINE
  8
0
 10
-12.8131
 20
203.054
 11
-12.5729
 21
202.763
  0
LINE
  8
0
 10
-12.5729
 20
202.763
 11
-12.3711
 21
202.445
  0
LINE
  8
0
 10
-12.3711
 20
202.445
 11
-12.2107
 21
202.104
  0
LINE
  8
0
 10
-12.2107
 20
202.104
 11
-12.0942
 21
201.746
  0
LINE
  8
0
 10
-12.0942
 20
201.746
 11
-12.0237
 21
201.376
  0
LINE
  8
0
 10
-12.0237
 20
201.376
 11
-12
 21
201
  0
LINE
  8
0
 10
-12
 20
201
 11
-12.0237
 21
200.624
  0
LINE
  8
0
 10
-12.0237
 20
200.624
 11
-12.0942
 21
200.254
  0
LINE
  8
0
 10
-12.0942
 20
200.254
 11
-12.2107
 21
199.896
  0
LINE
  8
0
 10
-12.2107
 20
199.896
 11
-12.3711
 21
199.555
  0
LINE
  8
0
 10
-12.3711
 20
199.555
 11
-12.5729
 21
199.237
  0
LINE
  8
0
 10
-12.5729
 20
199.237
 11
-12.8131
 21
198.946
  0
LINE
  8
0
 10
-12.8131
 20
198.946
 11
-13.0877
 21
198.688
  0
LINE
  8
0
 10
-13.0877
 20
198.688
 11
-13.3925
 21
198.467
  0
LINE
  8
0
 10
-13.3925
 20
198.467
 11
-13.7227
 21
198.286
  0
LINE
  8
0
 10
-13.7227
 20
198.286
 11
-14.0729
 21
198.147
  0
LINE
  8
0
 10
-14.0729
 20
198.147
 11
-14.4379
 21
198.053
  0
LINE
  8
0
 10
-14.4379
 20
198.053
 11
-14.8116
 21
198.006
  0
LINE
  8
0
 10
-14.8116
 20
198.006
 11
-21.8905
 21
198.006
  0
LINE
  8
0
 10
-21.8905
 20
198.006
 11
-21.8429
 21
197.757
  0
LINE
  8
0
 10
-21.8429
 20
197.757
 11
-21.6489
 21
197.159
  0
LINE
  8
0
 10
-21.6489
 20
197.159
 11
-21.3815
 21
196.591
  0
LINE
  8
0
 10
-21.3815
 20
196.591
 11
-21.0451
 21
196.061
  0
LINE
  8
0
 10
-21.0451
 20
196.061
 11
-20.6448
 21
195.577
  0
LINE
  8
0
 10
-20.6448
 20
195.577
 11
-20.1871
 21
195.147
  0
LINE
  8
0
 10
-20.1871
 20
195.147
 11
-19.6791
 21
194.778
  0
LINE
  8
0
 10
-19.6791
 20
194.778
 11
-19.1289
 21
194.476
  0
LINE
  8
0
 10
-19.1289
 20
194.476
 11
-18.5451
 21
194.245
  0
LINE
  8
0
 10
-18.5451
 20
194.245
 11
-17.9369
 21
194.089
  0
LINE
  8
0
 10
-17.9369
 20
194.089
 11
-17.3139
 21
194.01
  0
LINE
  8
0
 10
-17.3139
 20
194.01
 11
17.3139
 21
194.01
  0
LINE
  8
0
 10
17.3139
 20
194.01
 11
17.9369
 21
194.089
  0
LINE
  8
0
 10
14.8116
 20
198.006
 11
14.4379
 21
198.053
  0
LINE
  8
0
 10
14.4379
 20
198.053
 11
14.0729
 21
198.147
  0
LINE
  8
0
 10
14.0729
 20
198.147
 11
13.7227
 21
198.286
  0
LINE
  8
0
 10
13.7227
 20
198.286
 11
13.3925
 21
198.467
  0
LINE
  8
0
 10
13.3925
 20
198.467
 11
13.0877
 21
198.688
  0
LINE
  8
0
 10
13.0877
 20
198.688
 11
12.8131
 21
198.946
  0
LINE
  8
0
 10
12.8131
 20
198.946
 11
12.5729
 21
199.237
  0
LINE
  8
0
 10
12.5729
 20
199.237
 11
12.3711
 21
199.555
  0
LINE
  8
0
 10
12.3711
 20
199.555
 11
12.2107
 21
199.896
  0
LINE
  8
0
 10
12.2107
 20
199.896
 11
12.0942
 21
200.254
  0
LINE
  8
0
 10
12.0942
 20
200.254
 11
12.0237
 21
200.624
  0
LINE
  8
0
 10
12.0237
 20
200.624
 11
12
 21
201
  0
LINE
  8
0
 10
12
 20
201
 11
12.0237
 21
201.376
  0
LINE
  8
0
 10
12.0237
 20
201.376
 11
12.0942
 21
201.746
  0
LINE
  8
0
 10
12.0942
 20
201.746
 11
12.2107
 21
202.104
  0
LINE
  8
0
 10
12.2107
 20
202.104
 11
12.3711
 21
202.445
  0
LINE
  8
0
 10
12.3711
 20
202.445
 11
12.5729
 21
202.763
  0
LINE
  8
0
 10
12.5729
 20
202.763
 11
12.8131
 21
203.054
  0
LINE
  8
0
 10
12.8131
 20
203.054
 11
13.0877
 21
203.312
  0
LINE
  8
0
 10
13.0877
 20
203.312
 11
13.3925
 21
203.533
  0
LINE
  8
0
 10
13.3925
 20
203.533
 11
13.7227
 21
203.714
  0
LINE
  8
0
 10
13.7227
 20
203.714
 11
14.0729
 21
203.853
  0
LINE
  8
0
 10
14.0729
 20
203.853
 11
14.4379
 21
203.947
  0
LINE
  8
0
 10
14.4379
 20
203.947
 11
14.8116
 21
203.994
  0
LINE
  8
0
 10
14.8116
 20
203.994
 11
15.1884
 21
203.994
  0
LINE
  8
0
 10
15.1884
 20
203.994
 11
15.5621
 21
203.947
  0
LINE
  8
0
 10
15.5621
 20
203.947
 11
15.927
 21
203.853
  0
LINE
  8
0
 10
15.927
 20
203.853
 11
16.2773
 21
203.714
  0
LINE
  8
0
 10
16.2773
 20
203.714
 11
16.6075
 21
203.533
  0
LINE
  8
0
 10
16.6075
 20
203.533
 11
16.9123
 21
203.312
  0
LINE
  8
0
 10
16.9123
 20
203.312
 11
17.1869
 21
203.054
  0
LINE
  8
0
 10
17.1869
 20
203.054
 11
17.427
 21
202.763
  0
LINE
  8
0
 10
17.427
 20
202.763
 11
17.6289
 21
202.445
  0
LINE
  8
0
 10
17.6289
 20
202.445
 11
17.7893
 21
202.104
  0
LINE
  8
0
 10
17.7893
 20
202.104
 11
17.9057
 21
201.746
  0
LINE
  8
0
 10
17.9057
 20
201.746
 11
17.9763
 21
201.376
  0
LINE
  8
0
 10
17.9763
 20
201.376
 11
18
 21
201
  0
LINE
  8
0
 10
18
 20
201
 11
17.9763
 21
200.624
  0
LINE
  8
0
 10
17.9763
 20
200.624
 11
17.9057
 21
200.254
  0
LINE
  8
0
 10
17.9057
 20
200.254
 11
17.7893
 21
199.896
  0
LINE
  8
0
 10
17.7893
 20
199.896
 11
17.6289
 21
199.555
  0
LINE
  8
0
 10
17.6289
 20
199.555
 11
17.427
 21
199.237
  0
LINE
  8
0
 10
17.427
 20
199.237
 11
17.1869
 21
198.946
  0
LINE
  8
0
 10
17.1869
 20
198.946
 11
16.9123
 21
198.688
  0
LINE
  8
0
 10
16.9123
 20
198.688
 11
16.6075
 21
198.467
  0
LINE
  8
0
 10
16.6075
 20
198.467
 11
16.2773
 21
198.286
  0
LINE
  8
0
 10
16.2773
 20
198.286
 11
15.927
 21
198.147
  0
LINE
  8
0
 10
15.927
 20
198.147
 11
15.5621
 21
198.053
  0
LINE
  8
0
 10
15.5621
 20
198.053
 11
15.1884
 21
198.006
  0
LINE
  8
0
 10
15.1884
 20
198.006
 11
14.8116
 21
198.006
  0
LINE
  8
0
 10
16
 20
237.99
 11
6.13118
 21
237.99
  0
LINE
  8
0
 10
6.13118
 20
237.99
 11
9.12131
 21
235
  0
LINE
  8
0
 10
9.12131
 20
235
 11
16
 21
235
  0
LINE
  8
0
 10
16
 20
235
 11
16
 21
237.99
  0
LINE
  8
0
 10
17.9369
 20
140.089
 11
18.5451
 21
140.245
  0
LINE
  8
0
 10
18.5451
 20
140.245
 11
19.1289
 21
140.476
  0
LINE
  8
0
 10
19.1289
 20
140.476
 11
19.6791
 21
140.778
  0
LINE
  8
0
 10
19.6791
 20
140.778
 11
20.1871
 21
141.147
  0
LINE
  8
0
 10
20.1871
 20
141.147
 11
20.6448
 21
141.577
  0
LINE
  8
0
 10
20.6448
 20
141.577
 11
21.0451
 21
142.061
  0
LINE
  8
0
 10
21.0451
 20
142.061
 11
21.3815
 21
142.591
  0
LINE
  8
0
 10
21.3815
 20
142.591
 11
21.6489
 21
143.159
  0
LINE
  8
0
 10
21.6489
 20
143.159
 11
21.8429
 21
143.757
  0
LINE
  8
0
 10
21.8429
 20
143.757
 11
21.9606
 21
144.373
  0
LINE
  8
0
 10
21.9606
 20
144.373
 11
22
 21
145
  0
LINE
  8
0
 10
22
 20
145
 11
22
 21
179
  0
LINE
  8
0
 10
22
 20
179
 11
21.9685
 21
179.5
  0
LINE
  8
0
 10
21.9685
 20
179.5
 11
11.5
 21
179.5
  0
LINE
  8
0
 10
11.5
 20
179.5
 11
11.5
 21
179.495
  0
LINE
  8
0
 10
11.5
 20
179.495
 11
11.343
 21
179.495
  0
LINE
  8
0
 10
11.343
 20
179.495
 11
11.0315
 21
179.456
  0
LINE
  8
0
 10
11.0315
 20
179.456
 11
10.7274
 21
179.378
  0
LINE
  8
0
 10
10.7274
 20
179.378
 11
10.4355
 21
179.262
  0
LINE
  8
0
 10
10.4355
 20
179.262
 11
10.1604
 21
179.111
  0
LINE
  8
0
 10
10.1604
 20
179.111
 11
9.90643
 21
178.926
  0
LINE
  8
0
 10
9.90643
 20
178.926
 11
9.67757
 21
178.711
  0
LINE
  8
0
 10
9.67757
 20
178.711
 11
9.47745
 21
178.469
  0
LINE
  8
0
 10
9.47745
 20
178.469
 11
9.30922
 21
178.204
  0
LINE
  8
0
 10
9.30922
 20
178.204
 11
9.17555
 21
177.92
  0
LINE
  8
0
 10
9.17555
 20
177.92
 11
9.07854
 21
177.622
  0
LINE
  8
0
 10
9.07854
 20
177.622
 11
9.0197
 21
177.313
  0
LINE
  8
0
 10
9.0197
 20
177.313
 11
9
 21
177
  0
LINE
  8
0
 10
9
 20
177
 11
9.0197
 21
176.687
  0
LINE
  8
0
 10
9.0197
 20
176.687
 11
9.07854
 21
176.378
  0
LINE
  8
0
 10
9.07854
 20
176.378
 11
9.17555
 21
176.08
  0
LINE
  8
0
 10
9.17555
 20
176.08
 11
9.30922
 21
175.796
  0
LINE
  8
0
 10
9.30922
 20
175.796
 11
9.47745
 21
175.531
  0
LINE
  8
0
 10
9.47745
 20
175.531
 11
9.67757
 21
175.289
  0
LINE
  8
0
 10
9.67757
 20
175.289
 11
9.90643
 21
175.074
  0
LINE
  8
0
 10
9.90643
 20
175.074
 11
10.1604
 21
174.889
  0
LINE
  8
0
 10
10.1604
 20
174.889
 11
10.4355
 21
174.738
  0
LINE
  8
0
 10
10.4355
 20
174.738
 11
10.7274
 21
174.622
  0
LINE
  8
0
 10
10.7274
 20
174.622
 11
11.0315
 21
174.544
  0
LINE
  8
0
 10
11.0315
 20
174.544
 11
11.343
 21
174.505
  0
LINE
  8
0
 10
11.343
 20
174.505
 11
11.5
 21
174.505
  0
LINE
  8
0
 10
11.5
 20
174.505
 11
11.5
 21
174.5
  0
LINE
  8
0
 10
11.5
 20
174.5
 11
11.4738
 21
174.5
  0
LINE
  8
0
 10
11.4738
 20
174.5
 11
12.3925
 21
173.637
  0
LINE
  8
0
 10
12.3925
 20
173.637
 11
13.7533
 21
171.992
  0
LINE
  8
0
 10
13.7533
 20
171.992
 11
14.8972
 21
170.19
  0
LINE
  8
0
 10
14.8972
 20
170.19
 11
15.8062
 21
168.258
  0
LINE
  8
0
 10
15.8062
 20
168.258
 11
16.4659
 21
166.228
  0
LINE
  8
0
 10
16.4659
 20
166.228
 11
16.8659
 21
164.131
  0
LINE
  8
0
 10
16.8659
 20
164.131
 11
17
 21
162
  0
LINE
  8
0
 10
17
 20
162
 11
16.8659
 21
159.869
  0
LINE
  8
0
 10
16.8659
 20
159.869
 11
16.4659
 21
157.772
  0
LINE
  8
0
 10
16.4659
 20
157.772
 11
15.8062
 21
155.742
  0
LINE
  8
0
 10
15.8062
 20
155.742
 11
14.8972
 21
153.81
  0
LINE
  8
0
 10
14.8972
 20
153.81
 11
13.7533
 21
152.008
  0
LINE
  8
0
 10
13.7533
 20
152.008
 11
12.3925
 21
150.363
  0
LINE
  8
0
 10
12.3925
 20
150.363
 11
10.8362
 21
148.901
  0
LINE
  8
0
 10
10.8362
 20
148.901
 11
9.10905
 21
147.646
  0
LINE
  8
0
 10
9.10905
 20
147.646
 11
7.23824
 21
146.618
  0
LINE
  8
0
 10
7.23824
 20
146.618
 11
5.25328
 21
145.832
  0
LINE
  8
0
 10
5.25328
 20
145.832
 11
3.18547
 21
145.301
  0
LINE
  8
0
 10
3.18547
 20
145.301
 11
1.06743
 21
145.034
  0
LINE
  8
0
 10
1.06743
 20
145.034
 11
-1.06743
 21
145.034
  0
LINE
  8
0
 10
-1.06743
 20
145.034
 11
-3.18547
 21
145.301
  0
LINE
  8
0
 10
-3.18547
 20
145.301
 11
-5.25328
 21
145.832
  0
LINE
  8
0
 10
-5.25328
 20
145.832
 11
-7.23824
 21
146.618
  0
LINE
  8
0
 10
-7.23824
 20
146.618
 11
-9.10905
 21
147.646
  0
LINE
  8
0
 10
-9.10905
 20
147.646
 11
-10.8362
 21
148.901
  0
LINE
  8
0
 10
-10.8362
 20
148.901
 11
-12.3925
 21
150.363
  0
LINE
  8
0
 10
-12.3925
 20
150.363
 11
-13.7533
 21
152.008
  0
LINE
  8
0
 10
-13.7533
 20
152.008
 11
-14.8972
 21
153.81
  0
LINE
  8
0
 10
-14.8972
 20
153.81
 11
-15.8062
 21
155.742
  0
LINE
  8
0
 10
-15.8062
 20
155.742
 11
-16.4659
 21
157.772
  0
LINE
  8
0
 10
-16.4659
 20
157.772
 11
-16.8659
 21
159.869
  0
LINE
  8
0
 10
-16.8659
 20
159.869
 11
-17
 21
162
  0
LINE
  8
0
 10
-17
 20
162
 11
-16.8659
 21
164.131
  0
LINE
  8
0
 10
-16.8659
 20
164.131
 11
-16.4659
 21
166.228
  0
LINE
  8
0
 10
-16.4659
 20
166.228
 11
-15.8062
 21
168.258
  0
LINE
  8
0
 10
-15.8062
 20
168.258
 11
-14.8972
 21
170.19
  0
LINE
  8
0
 10
-14.8972
 20
170.19
 11
-13.7533
 21
171.992
  0
LINE
  8
0
 10
-13.7533
 20
171.992
 11
-12.3925
 21
173.637
  0
LINE
  8
0
 10
-12.3925
 20
173.637
 11
-10.8362
 21
175.099
  0
LINE
  8
0
 10
-10.8362
 20
175.099
 11
-9.10905
 21
176.354
  0
LINE
  8
0
 10
-9.10905
 20
176.354
 11
-7.23824
 21
177.382
  0
LINE
  8
0
 10
-7.23824
 20
177.382
 11
-5.25328
 21
178.168
  0
LINE
  8
0
 10
-5.25328
 20
178.168
 11
-3.18547
 21
178.699
  0
LINE
  8
0
 10
-3.18547
 20
178.699
 11
-1.06743
 21
178.966
  0
LINE
  8
0
 10
-1.06743
 20
178.966
 11
0
 21
178.966
  0
LINE
  8
0
 10
0
 20
178.966
 11
0
 21
181
  0
LINE
  8
0
 10
0
 20
181
 11
6.99998
 21
181
  0
LINE
  8
0
 10
6.99998
 20
181
 11
4.00986
 21
183.99
  0
LINE
  8
0
 10
4.00986
 20
183.99
 11
4
 21
183.99
  0
LINE
  8
0
 10
4
 20
183.99
 11
4
 21
183
  0
LINE
  8
0
 10
4
 20
183
 11
-21
 21
183
  0
LINE
  8
0
 10
-21
 20
183
 11
-21
 21
184
  0
LINE
  8
0
 10
-21
 20
184
 11
-22
 21
184
  0
LINE
  8
0
 10
-22
 20
184
 11
-22
 21
179.994
  0
LINE
  8
0
 10
-22
 20
179.994
 11
-14.8116
 21
179.994
  0
LINE
  8
0
 10
-14.8116
 20
179.994
 11
-14.4379
 21
179.947
  0
LINE
  8
0
 10
-14.4379
 20
179.947
 11
-14.0729
 21
179.853
  0
LINE
  8
0
 10
-14.0729
 20
179.853
 11
-13.7227
 21
179.714
  0
LINE
  8
0
 10
-13.7227
 20
179.714
 11
-13.3925
 21
179.533
  0
LINE
  8
0
 10
-13.3925
 20
179.533
 11
-13.0877
 21
179.312
  0
LINE
  8
0
 10
-13.0877
 20
179.312
 11
-12.8131
 21
179.054
  0
LINE
  8
0
 10
-12.8131
 20
179.054
 11
-12.5729
 21
178.763
  0
LINE
  8
0
 10
-12.5729
 20
178.763
 11
-12.3711
 21
178.445
  0
LINE
  8
0
 10
-12.3711
 20
178.445
 11
-12.2107
 21
178.104
  0
LINE
  8
0
 10
-12.2107
 20
178.104
 11
-12.0942
 21
177.746
  0
LINE
  8
0
 10
-12.0942
 20
177.746
 11
-12.0237
 21
177.376
  0
LINE
  8
0
 10
-12.0237
 20
177.376
 11
-12
 21
177
  0
LINE
  8
0
 10
-12
 20
177
 11
-12.0237
 21
176.624
  0
LINE
  8
0
 10
-12.0237
 20
176.624
 11
-12.0942
 21
176.254
  0
LINE
  8
0
 10
-12.0942
 20
176.254
 11
-12.2107
 21
175.896
  0
LINE
  8
0
 10
-12.2107
 20
175.896
 11
-12.3711
 21
175.555
  0
LINE
  8
0
 10
-12.3711
 20
175.555
 11
-12.5729
 21
175.237
  0
LINE
  8
0
 10
-12.5729
 20
175.237
 11
-12.8131
 21
174.946
  0
LINE
  8
0
 10
-12.8131
 20
174.946
 11
-13.0877
 21
174.688
  0
LINE
  8
0
 10
-13.0877
 20
174.688
 11
-13.3925
 21
174.467
  0
LINE
  8
0
 10
-13.3925
 20
174.467
 11
-13.7227
 21
174.286
  0
LINE
  8
0
 10
-13.7227
 20
174.286
 11
-14.0729
 21
174.147
  0
LINE
  8
0
 10
-14.0729
 20
174.147
 11
-14.4379
 21
174.053
  0
LINE
  8
0
 10
-14.4379
 20
174.053
 11
-14.8116
 21
174.006
  0
LINE
  8
0
 10
-14.8116
 20
174.006
 11
-22
 21
174.006
  0
LINE
  8
0
 10
-22
 20
174.006
 11
-22
 21
149.994
  0
LINE
  8
0
 10
-22
 20
149.994
 11
-14.8116
 21
149.994
  0
LINE
  8
0
 10
-14.8116
 20
149.994
 11
-14.4379
 21
149.947
  0
LINE
  8
0
 10
-14.4379
 20
149.947
 11
-14.0729
 21
149.853
  0
LINE
  8
0
 10
-14.0729
 20
149.853
 11
-13.7227
 21
149.714
  0
LINE
  8
0
 10
-13.7227
 20
149.714
 11
-13.3925
 21
149.533
  0
LINE
  8
0
 10
-13.3925
 20
149.533
 11
-13.0877
 21
149.312
  0
LINE
  8
0
 10
-13.0877
 20
149.312
 11
-12.8131
 21
149.054
  0
LINE
  8
0
 10
-12.8131
 20
149.054
 11
-12.5729
 21
148.763
  0
LINE
  8
0
 10
-12.5729
 20
148.763
 11
-12.3711
 21
148.445
  0
LINE
  8
0
 10
-12.3711
 20
148.445
 11
-12.2107
 21
148.104
  0
LINE
  8
0
 10
-12.2107
 20
148.104
 11
-12.0942
 21
147.746
  0
LINE
  8
0
 10
-12.0942
 20
147.746
 11
-12.0237
 21
147.376
  0
LINE
  8
0
 10
-12.0237
 20
147.376
 11
-12
 21
147
  0
LINE
  8
0
 10
-12
 20
147
 11
-12.0237
 21
146.624
  0
LINE
  8
0
 10
-12.0237
 20
146.624
 11
-12.0942
 21
146.254
  0
LINE
  8
0
 10
-12.0942
 20
146.254
 11
-12.2107
 21
145.896
  0
LINE
  8
0
 10
-12.2107
 20
145.896
 11
-12.3711
 21
145.555
  0
LINE
  8
0
 10
-12.3711
 20
145.555
 11
-12.5729
 21
145.237
  0
LINE
  8
0
 10
-12.5729
 20
145.237
 11
-12.8131
 21
144.946
  0
LINE
  8
0
 10
-12.8131
 20
144.946
 11
-13.0877
 21
144.688
  0
LINE
  8
0
 10
-13.0877
 20
144.688
 11
-13.3925
 21
144.467
  0
LINE
  8
0
 10
-13.3925
 20
144.467
 11
-13.7227
 21
144.286
  0
LINE
  8
0
 10
-13.7227
 20
144.286
 11
-14.0729
 21
144.147
  0
LINE
  8
0
 10
-14.0729
 20
144.147
 11
-14.4379
 21
144.053
  0
LINE
  8
0
 10
-14.4379
 20
144.053
 11
-14.8116
 21
144.006
  0
LINE
  8
0
 10
-14.8116
 20
144.006
 11
-21.8905
 21
144.006
  0
LINE
  8
0
 10
-21.8905
 20
144.006
 11
-21.8429
 21
143.757
  0
LINE
  8
0
 10
-21.8429
 20
143.757
 11
-21.6489
 21
143.159
  0
LINE
  8
0
 10
-21.6489
 20
143.159
 11
-21.3815
 21
142.591
  0
LINE
  8
0
 10
-21.3815
 20
142.591
 11
-21.0451
 21
142.061
  0
LINE
  8
0
 10
-21.0451
 20
142.061
 11
-20.6448
 21
141.577
  0
LINE
  8
0
 10
-20.6448
 20
141.577
 11
-20.1871
 21
141.147
  0
LINE
  8
0
 10
-20.1871
 20
141.147
 11
-19.6791
 21
140.778
  0
LINE
  8
0
 10
-19.6791
 20
140.778
 11
-19.1289
 21
140.476
  0
LINE
  8
0
 10
-19.1289
 20
140.476
 11
-18.5451
 21
140.245
  0
LINE
  8
0
 10
-18.5451
 20
140.245
 11
-17.9369
 21
140.089
  0
LINE
  8
0
 10
-17.9369
 20
140.089
 11
-17.3139
 21
140.01
  0
LINE
  8
0
 10
-17.3139
 20
140.01
 11
17.3139
 21
140.01
  0
LINE
  8
0
 10
17.3139
 20
140.01
 11
17.9369
 21
140.089
  0
LINE
  8
0
 10
14.8116
 20
144.006
 11
14.4379
 21
144.053
  0
LINE
  8
0
 10
14.4379
 20
144.053
 11
14.0729
 21
144.147
  0
LINE
  8
0
 10
14.0729
 20
144.147
 11
13.7227
 21
144.286
  0
LINE
  8
0
 10
13.7227
 20
144.286
 11
13.3925
 21
144.467
  0
LINE
  8
0
 10
13.3925
 20
144.467
 11
13.0877
 21
144.688
  0
LINE
  8
0
 10
13.0877
 20
144.688
 11
12.8131
 21
144.946
  0
LINE
  8
0
 10
12.8131
 20
144.946
 11
12.5729
 21
145.237
  0
LINE
  8
0
 10
12.5729
 20
145.237
 11
12.3711
 21
145.555
  0
LINE
  8
0
 10
12.3711
 20
145.555
 11
12.2107
 21
145.896
  0
LINE
  8
0
 10
12.2107
 20
145.896
 11
12.0942
 21
146.254
  0
LINE
  8
0
 10
12.0942
 20
146.254
 11
12.0237
 21
146.624
  0
LINE
  8
0
 10
12.0237
 20
146.624
 11
12
 21
147
  0
LINE
  8
0
 10
12
 20
147
 11
12.0237
 21
147.376
  0
LINE
  8
0
 10
12.0237
 20
147.376
 11
12.0942
 21
147.746
  0
LINE
  8
0
 10
12.0942
 20
147.746
 11
12.2107
 21
148.104
  0
LINE
  8
0
 10
12.2107
 20
148.104
 11
12.3711
 21
148.445
  0
LINE
  8
0
 10
12.3711
 20
148.445
 11
12.5729
 21
148.763
  0
LINE
  8
0
 10
12.5729
 20
148.763
 11
12.8131
 21
149.054
  0
LINE
  8
0
 10
12.8131
 20
149.054
 11
13.0877
 21
149.312
  0
LINE
  8
0
 10
13.0877
 20
149.312
 11
13.3925
 21
149.533
  0
LINE
  8
0
 10
13.3925
 20
149.533
 11
13.7227
 21
149.714
  0
LINE
  8
0
 10
13.7227
 20
149.714
 11
14.0729
 21
149.853
  0
LINE
  8
0
 10
14.0729
 20
149.853
 11
14.4379
 21
149.947
  0
LINE
  8
0
 10
14.4379
 20
149.947
 11
14.8116
 21
149.994
  0
LINE
  8
0
 10
14.8116
 20
149.994
 11
15.1884
 21
149.994
  0
LINE
  8
0
 10
15.1884
 20
149.994
 11
15.5621
 21
149.947
  0
LINE
  8
0
 10
15.5621
 20
149.947
 11
15.927
 21
149.853
  0
LINE
  8
0
 10
15.927
 20
149.853
 11
16.2773
 21
149.714
  0
LINE
  8
0
 10
16.2773
 20
149.714
 11
16.6075
 21
149.533
  0
LINE
  8
0
 10
16.6075
 20
149.533
 11
16.9123
 21
149.312
  0
LINE
  8
0
 10
16.9123
 20
149.312
 11
17.1869
 21
149.054
  0
LINE
  8
0
 10
17.1869
 20
149.054
 11
17.427
 21
148.763
  0
LINE
  8
0
 10
17.427
 20
148.763
 11
17.6289
 21
148.445
  0
LINE
  8
0
 10
17.6289
 20
148.445
 11
17.7893
 21
148.104
  0
LINE
  8
0
 10
17.7893
 20
148.104
 11
17.9057
 21
147.746
  0
LINE
  8
0
 10
17.9057
 20
147.746
 11
17.9763
 21
147.376
  0
LINE
  8
0
 10
17.9763
 20
147.376
 11
18
 21
147
  0
LINE
  8
0
 10
18
 20
147
 11
17.9763
 21
146.624
  0
LINE
  8
0
 10
17.9763
 20
146.624
 11
17.9057
 21
146.254
  0
LINE
  8
0
 10
17.9057
 20
146.254
 11
17.7893
 21
145.896
  0
LINE
  8
0
 10
17.7893
 20
145.896
 11
17.6289
 21
145.555
  0
LINE
  8
0
 10
17.6289
 20
145.555
 11
17.427
 21
145.237
  0
LINE
  8
0
 10
17.427
 20
145.237
 11
17.1869
 21
144.946
  0
LINE
  8
0
 10
17.1869
 20
144.946
 11
16.9123
 21
144.688
  0
LINE
  8
0
 10
16.9123
 20
144.688
 11
16.6075
 21
144.467
  0
LINE
  8
0
 10
16.6075
 20
144.467
 11
16.2773
 21
144.286
  0
LINE
  8
0
 10
16.2773
 20
144.286
 11
15.927
 21
144.147
  0
LINE
  8
0
 10
15.927
 20
144.147
 11
15.5621
 21
144.053
  0
LINE
  8
0
 10
15.5621
 20
144.053
 11
15.1884
 21
144.006
  0
LINE
  8
0
 10
15.1884
 20
144.006
 11
14.8116
 21
144.006
  0
LINE
  8
0
 10
16
 20
183.99
 11
6.13118
 21
183.99
  0
LINE
  8
0
 10
6.13118
 20
183.99
 11
9.12131
 21
181
  0
LINE
  8
0
 10
9.12131
 20
181
 11
16
 21
181
  0
LINE
  8
0
 10
16
 20
181
 11
16
 21
183.99
  0
ENDSEC
  0
SECTION
  2
OBJECTS
  0
DICTIONARY
  0
ENDSEC
  0
EOF
