<?xml version="1.0" standalone="no"?>
<!DOCTYPE svg PUBLIC "-//W3C//DTD SVG 1.1//EN" "http://www.w3.org/Graphics/SVG/1.1/DTD/svg11.dtd">
<svg width="46mm" height="468mm" viewBox="-23 -711 46 468" xmlns="http://www.w3.org/2000/svg" version="1.1">
<title>OpenSCAD Model</title>
<path d="
M 18.4369,-561.089 L 19.0451,-561.245 L 19.6289,-561.476 L 20.1791,-561.778 L 20.6871,-562.147 L 21.1448,-562.577
 L 21.5451,-563.061 L 21.8815,-563.591 L 22.1489,-564.159 L 22.3429,-564.757 L 22.4606,-565.373 L 22.5,-566
 L 22.5,-706 L 22.4606,-706.627 L 22.3429,-707.243 L 22.1489,-707.841 L 21.8815,-708.409 L 21.5451,-708.939
 L 21.1448,-709.423 L 20.6871,-709.853 L 20.1791,-710.222 L 19.6289,-710.524 L 19.0451,-710.755 L 18.4369,-710.911
 L 17.8139,-710.99 L -17.8139,-710.99 L -18.4369,-710.911 L -19.0451,-710.755 L -19.6289,-710.524 L -20.1791,-710.222
 L -20.6871,-709.853 L -21.1448,-709.423 L -21.5451,-708.939 L -21.8815,-708.409 L -22.1489,-707.841 L -22.3429,-707.243
 L -22.4606,-706.627 L -22.5,-706 L -22.5,-566 L -22.4606,-565.373 L -22.3429,-564.757 L -22.1489,-564.159
 L -21.8815,-563.591 L -21.5451,-563.061 L -21.1448,-562.577 L -20.6871,-562.147 L -20.1791,-561.778 L -19.6289,-561.476
 L -19.0451,-561.245 L -18.4369,-561.089 L -17.8139,-561.01 L 17.8139,-561.01 z
M -17.2432,-562.635 L -17.7256,-562.696 L -18.1967,-562.817 L -18.6489,-562.996 L -19.0751,-563.23 L -19.4685,-563.516
 L -19.823,-563.849 L -20.133,-564.224 L -20.3936,-564.634 L -20.6007,-565.074 L -20.751,-565.537 L -20.8421,-566.015
 L -20.8726,-566.5 L -20.8726,-705.5 L -20.8421,-705.985 L -20.751,-706.463 L -20.6007,-706.926 L -20.3936,-707.366
 L -20.133,-707.776 L -19.823,-708.151 L -19.4685,-708.484 L -19.0751,-708.77 L -18.6489,-709.004 L -18.1967,-709.183
 L -17.7256,-709.304 L -17.2432,-709.365 L 17.2432,-709.365 L 17.7256,-709.304 L 18.1967,-709.183 L 18.6489,-709.004
 L 19.0751,-708.77 L 19.4685,-708.484 L 19.823,-708.151 L 20.133,-707.776 L 20.3936,-707.366 L 20.6007,-706.926
 L 20.751,-706.463 L 20.8421,-705.985 L 20.8726,-705.5 L 20.8726,-566.5 L 20.8421,-566.015 L 20.751,-565.537
 L 20.6007,-565.074 L 20.3936,-564.634 L 20.133,-564.224 L 19.823,-563.849 L 19.4685,-563.516 L 19.0751,-563.23
 L 18.6489,-562.996 L 18.1967,-562.817 L 17.7256,-562.696 L 17.2432,-562.635 z
M 18.4369,-402.089 L 19.0451,-402.245 L 19.6289,-402.476 L 20.1791,-402.778 L 20.6871,-403.147 L 21.1448,-403.577
 L 21.5451,-404.061 L 21.8815,-404.591 L 22.1489,-405.159 L 22.3429,-405.757 L 22.4606,-406.373 L 22.5,-407
 L 22.5,-547 L 22.4606,-547.627 L 22.3429,-548.243 L 22.1489,-548.841 L 21.8815,-549.409 L 21.5451,-549.939
 L 21.1448,-550.423 L 20.6871,-550.853 L 20.1791,-551.222 L 19.6289,-551.524 L 19.0451,-551.755 L 18.4369,-551.911
 L 17.8139,-551.99 L -17.8139,-551.99 L -18.4369,-551.911 L -19.0451,-551.755 L -19.6289,-551.524 L -20.1791,-551.222
 L -20.6871,-550.853 L -21.1448,-550.423 L -21.5451,-549.939 L -21.8815,-549.409 L -22.1489,-548.841 L -22.3429,-548.243
 L -22.4606,-547.627 L -22.5,-547 L -22.5,-407 L -22.4606,-406.373 L -22.3429,-405.757 L -22.1489,-405.159
 L -21.8815,-404.591 L -21.5451,-404.061 L -21.1448,-403.577 L -20.6871,-403.147 L -20.1791,-402.778 L -19.6289,-402.476
 L -19.0451,-402.245 L -18.4369,-402.089 L -17.8139,-402.01 L 17.8139,-402.01 z
M 18.4369,-243.089 L 19.0451,-243.245 L 19.6289,-243.476 L 20.1791,-243.778 L 20.6871,-244.147 L 21.1448,-244.577
 L 21.5451,-245.061 L 21.8815,-245.591 L 22.1489,-246.159 L 22.3429,-246.757 L 22.4606,-247.373 L 22.5,-248
 L 22.5,-388 L 22.4606,-388.627 L 22.3429,-389.243 L 22.1489,-389.841 L 21.8815,-390.409 L 21.5451,-390.939
 L 21.1448,-391.423 L 20.6871,-391.853 L 20.1791,-392.222 L 19.6289,-392.524 L 19.0451,-392.755 L 18.4369,-392.911
 L 17.8139,-392.99 L -17.8139,-392.99 L -18.4369,-392.911 L -19.0451,-392.755 L -19.6289,-392.524 L -20.1791,-392.222
 L -20.6871,-391.853 L -21.1448,-391.423 L -21.5451,-390.939 L -21.8815,-390.409 L -22.1489,-389.841 L -22.3429,-389.243
 L -22.4606,-388.627 L -22.5,-388 L -22.5,-248 L -22.4606,-247.373 L -22.3429,-246.757 L -22.1489,-246.159
 L -21.8815,-245.591 L -21.5451,-245.061 L -21.1448,-244.577 L -20.6871,-244.147 L -20.1791,-243.778 L -19.6289,-243.476
 L -19.0451,-243.245 L -18.4369,-243.089 L -17.8139,-243.01 L 17.8139,-243.01 z
M 14.887,-383.704 L 14.6627,-383.732 L 14.4438,-383.788 L 14.2336,-383.871 L 14.0355,-383.98 L 13.8526,-384.113
 L 13.6879,-384.268 L 13.5438,-384.442 L 13.4226,-384.633 L 13.3264,-384.837 L 13.2565,-385.052 L 13.2142,-385.274
 L 13.2,-385.5 L 13.2142,-385.726 L 13.2565,-385.948 L 13.3264,-386.163 L 13.4226,-386.367 L 13.5438,-386.558
 L 13.6879,-386.732 L 13.8526,-386.887 L 14.0355,-387.02 L 14.2336,-387.129 L 14.4438,-387.212 L 14.6627,-387.268
 L 14.887,-387.296 L 15.113,-387.296 L 15.3373,-387.268 L 15.5562,-387.212 L 15.7664,-387.129 L 15.9645,-387.02
 L 16.1474,-386.887 L 16.3121,-386.732 L 16.4562,-386.558 L 16.5773,-386.367 L 16.6736,-386.163 L 16.7434,-385.948
 L 16.7858,-385.726 L 16.8,-385.5 L 16.7858,-385.274 L 16.7434,-385.052 L 16.6736,-384.837 L 16.5773,-384.633
 L 16.4562,-384.442 L 16.3121,-384.268 L 16.1474,-384.113 L 15.9645,-383.98 L 15.7664,-383.871 L 15.5562,-383.788
 L 15.3373,-383.732 L 15.113,-383.704 z
M -15.113,-383.704 L -15.3373,-383.732 L -15.5562,-383.788 L -15.7664,-383.871 L -15.9645,-383.98 L -16.1474,-384.113
 L -16.3121,-384.268 L -16.4562,-384.442 L -16.5773,-384.633 L -16.6736,-384.837 L -16.7434,-385.052 L -16.7858,-385.274
 L -16.8,-385.5 L -16.7858,-385.726 L -16.7434,-385.948 L -16.6736,-386.163 L -16.5773,-386.367 L -16.4562,-386.558
 L -16.3121,-386.732 L -16.1474,-386.887 L -15.9645,-387.02 L -15.7664,-387.129 L -15.5562,-387.212 L -15.3373,-387.268
 L -15.113,-387.296 L -14.887,-387.296 L -14.6627,-387.268 L -14.4438,-387.212 L -14.2336,-387.129 L -14.0355,-387.02
 L -13.8526,-386.887 L -13.6879,-386.732 L -13.5438,-386.558 L -13.4226,-386.367 L -13.3264,-386.163 L -13.2565,-385.948
 L -13.2142,-385.726 L -13.2,-385.5 L -13.2142,-385.274 L -13.2565,-385.052 L -13.3264,-384.837 L -13.4226,-384.633
 L -13.5438,-384.442 L -13.6879,-384.268 L -13.8526,-384.113 L -14.0355,-383.98 L -14.2336,-383.871 L -14.4438,-383.788
 L -14.6627,-383.732 L -14.887,-383.704 z
M -15.113,-248.704 L -15.3373,-248.732 L -15.5562,-248.788 L -15.7664,-248.871 L -15.9645,-248.98 L -16.1474,-249.113
 L -16.3121,-249.268 L -16.4562,-249.442 L -16.5773,-249.633 L -16.6736,-249.837 L -16.7434,-250.052 L -16.7858,-250.274
 L -16.8,-250.5 L -16.7858,-250.726 L -16.7434,-250.948 L -16.6736,-251.163 L -16.5773,-251.367 L -16.4562,-251.558
 L -16.3121,-251.732 L -16.1474,-251.887 L -15.9645,-252.02 L -15.7664,-252.129 L -15.5562,-252.212 L -15.3373,-252.268
 L -15.113,-252.296 L -14.887,-252.296 L -14.6627,-252.268 L -14.4438,-252.212 L -14.2336,-252.129 L -14.0355,-252.02
 L -13.8526,-251.887 L -13.6879,-251.732 L -13.5438,-251.558 L -13.4226,-251.367 L -13.3264,-251.163 L -13.2565,-250.948
 L -13.2142,-250.726 L -13.2,-250.5 L -13.2142,-250.274 L -13.2565,-250.052 L -13.3264,-249.837 L -13.4226,-249.633
 L -13.5438,-249.442 L -13.6879,-249.268 L -13.8526,-249.113 L -14.0355,-248.98 L -14.2336,-248.871 L -14.4438,-248.788
 L -14.6627,-248.732 L -14.887,-248.704 z
M 14.887,-248.704 L 14.6627,-248.732 L 14.4438,-248.788 L 14.2336,-248.871 L 14.0355,-248.98 L 13.8526,-249.113
 L 13.6879,-249.268 L 13.5438,-249.442 L 13.4226,-249.633 L 13.3264,-249.837 L 13.2565,-250.052 L 13.2142,-250.274
 L 13.2,-250.5 L 13.2142,-250.726 L 13.2565,-250.948 L 13.3264,-251.163 L 13.4226,-251.367 L 13.5438,-251.558
 L 13.6879,-251.732 L 13.8526,-251.887 L 14.0355,-252.02 L 14.2336,-252.129 L 14.4438,-252.212 L 14.6627,-252.268
 L 14.887,-252.296 L 15.113,-252.296 L 15.3373,-252.268 L 15.5562,-252.212 L 15.7664,-252.129 L 15.9645,-252.02
 L 16.1474,-251.887 L 16.3121,-251.732 L 16.4562,-251.558 L 16.5773,-251.367 L 16.6736,-251.163 L 16.7434,-250.948
 L 16.7858,-250.726 L 16.8,-250.5 L 16.7858,-250.274 L 16.7434,-250.052 L 16.6736,-249.837 L 16.5773,-249.633
 L 16.4562,-249.442 L 16.3121,-249.268 L 16.1474,-249.113 L 15.9645,-248.98 L 15.7664,-248.871 L 15.5562,-248.788
 L 15.3373,-248.732 L 15.113,-248.704 z
" stroke="black" fill="lightgray" stroke-width="0.5"/>
</svg>
