<?xml version="1.0" standalone="no"?>
<!DOCTYPE svg PUBLIC "-//W3C//DTD SVG 1.1//EN" "http://www.w3.org/Graphics/SVG/1.1/DTD/svg11.dtd">
<svg width="60mm" height="244mm" viewBox="-30 -458 60 244" xmlns="http://www.w3.org/2000/svg" version="1.1">
<title>OpenSCAD Model</title>
<path d="
M 25.9369,-382.589 L 26.5451,-382.745 L 27.1289,-382.976 L 27.6791,-383.278 L 28.1871,-383.647 L 28.6448,-384.077
 L 29.0451,-384.561 L 29.3815,-385.091 L 29.6489,-385.659 L 29.8429,-386.257 L 29.9606,-386.873 L 30,-387.5
 L 30,-452.5 L 29.9606,-453.127 L 29.8429,-453.743 L 29.6489,-454.341 L 29.3815,-454.909 L 29.0451,-455.439
 L 28.6448,-455.923 L 28.1871,-456.353 L 27.6791,-456.722 L 27.1289,-457.024 L 26.5451,-457.255 L 25.9369,-457.411
 L 25.3139,-457.49 L -25.3139,-457.49 L -25.9369,-457.411 L -26.5451,-457.255 L -27.1289,-457.024 L -27.6791,-456.722
 L -28.1871,-456.353 L -28.6448,-455.923 L -29.0451,-455.439 L -29.3815,-454.909 L -29.6489,-454.341 L -29.8429,-453.743
 L -29.9606,-453.127 L -30,-452.5 L -30,-387.5 L -29.9606,-386.873 L -29.8429,-386.257 L -29.6489,-385.659
 L -29.3815,-385.091 L -29.0451,-384.561 L -28.6448,-384.077 L -28.1871,-383.647 L -27.6791,-383.278 L -27.1289,-382.976
 L -26.5451,-382.745 L -25.9369,-382.589 L -25.3139,-382.51 L 25.3139,-382.51 z
M -24.7512,-384.008 L -25.2495,-384.071 L -25.7361,-384.196 L -26.2031,-384.381 L -26.6433,-384.623 L -27.0497,-384.918
 L -27.4159,-385.262 L -27.7361,-385.649 L -28.0052,-386.073 L -28.2191,-386.528 L -28.3743,-387.005 L -28.4684,-387.499
 L -28.5,-388 L -28.5,-452 L -28.4684,-452.501 L -28.3743,-452.995 L -28.2191,-453.472 L -28.0052,-453.927
 L -27.7361,-454.351 L -27.4159,-454.738 L -27.0497,-455.082 L -26.6433,-455.377 L -26.2031,-455.619 L -25.7361,-455.804
 L -25.2495,-455.929 L -24.7512,-455.992 L 24.7512,-455.992 L 25.2495,-455.929 L 25.7361,-455.804 L 26.2031,-455.619
 L 26.6433,-455.377 L 27.0497,-455.082 L 27.4159,-454.738 L 27.7361,-454.351 L 28.0052,-453.927 L 28.2191,-453.472
 L 28.3743,-452.995 L 28.4684,-452.501 L 28.5,-452 L 28.5,-388 L 28.4684,-387.499 L 28.3743,-387.005
 L 28.2191,-386.528 L 28.0052,-386.073 L 27.7361,-385.649 L 27.4159,-385.262 L 27.0497,-384.918 L 26.6433,-384.623
 L 26.2031,-384.381 L 25.7361,-384.196 L 25.2495,-384.071 L 24.7512,-384.008 z
M 25.9369,-298.589 L 26.5451,-298.745 L 27.1289,-298.976 L 27.6791,-299.278 L 28.1871,-299.647 L 28.6448,-300.077
 L 29.0451,-300.561 L 29.3815,-301.091 L 29.6489,-301.659 L 29.8429,-302.257 L 29.9606,-302.873 L 30,-303.5
 L 30,-368.5 L 29.9606,-369.127 L 29.8429,-369.743 L 29.6489,-370.341 L 29.3815,-370.909 L 29.0451,-371.439
 L 28.6448,-371.923 L 28.1871,-372.353 L 27.6791,-372.722 L 27.1289,-373.024 L 26.5451,-373.255 L 25.9369,-373.411
 L 25.3139,-373.49 L -25.3139,-373.49 L -25.9369,-373.411 L -26.5451,-373.255 L -27.1289,-373.024 L -27.6791,-372.722
 L -28.1871,-372.353 L -28.6448,-371.923 L -29.0451,-371.439 L -29.3815,-370.909 L -29.6489,-370.341 L -29.8429,-369.743
 L -29.9606,-369.127 L -30,-368.5 L -30,-303.5 L -29.9606,-302.873 L -29.8429,-302.257 L -29.6489,-301.659
 L -29.3815,-301.091 L -29.0451,-300.561 L -28.6448,-300.077 L -28.1871,-299.647 L -27.6791,-299.278 L -27.1289,-298.976
 L -26.5451,-298.745 L -25.9369,-298.589 L -25.3139,-298.51 L 25.3139,-298.51 z
M -24.6954,-300.893 L -25.0833,-300.942 L -25.4619,-301.039 L -25.8254,-301.183 L -26.168,-301.372 L -26.4842,-301.601
 L -26.7692,-301.869 L -27.0184,-302.17 L -27.2279,-302.5 L -27.3943,-302.854 L -27.5151,-303.226 L -27.5884,-303.61
 L -27.6129,-304 L -27.6129,-368 L -27.5884,-368.39 L -27.5151,-368.774 L -27.3943,-369.146 L -27.2279,-369.5
 L -27.0184,-369.83 L -26.7692,-370.131 L -26.4842,-370.399 L -26.168,-370.628 L -25.8254,-370.817 L -25.4619,-370.961
 L -25.0833,-371.058 L -24.6954,-371.107 L 24.6954,-371.107 L 25.0833,-371.058 L 25.4619,-370.961 L 25.8254,-370.817
 L 26.168,-370.628 L 26.4842,-370.399 L 26.7692,-370.131 L 27.0184,-369.83 L 27.2279,-369.5 L 27.3943,-369.146
 L 27.5151,-368.774 L 27.5884,-368.39 L 27.6129,-368 L 27.6129,-304 L 27.5884,-303.61 L 27.5151,-303.226
 L 27.3943,-302.854 L 27.2279,-302.5 L 27.0184,-302.17 L 26.7692,-301.869 L 26.4842,-301.601 L 26.168,-301.372
 L 25.8254,-301.183 L 25.4619,-301.039 L 25.0833,-300.942 L 24.6954,-300.893 z
M 25.9369,-214.589 L 26.5451,-214.745 L 27.1289,-214.976 L 27.6791,-215.278 L 28.1871,-215.647 L 28.6448,-216.077
 L 29.0451,-216.561 L 29.3815,-217.091 L 29.6489,-217.659 L 29.8429,-218.257 L 29.9606,-218.873 L 30,-219.5
 L 30,-284.5 L 29.9606,-285.127 L 29.8429,-285.743 L 29.6489,-286.341 L 29.3815,-286.909 L 29.0451,-287.439
 L 28.6448,-287.923 L 28.1871,-288.353 L 27.6791,-288.722 L 27.1289,-289.024 L 26.5451,-289.255 L 25.9369,-289.411
 L 25.3139,-289.49 L -25.3139,-289.49 L -25.9369,-289.411 L -26.5451,-289.255 L -27.1289,-289.024 L -27.6791,-288.722
 L -28.1871,-288.353 L -28.6448,-287.923 L -29.0451,-287.439 L -29.3815,-286.909 L -29.6489,-286.341 L -29.8429,-285.743
 L -29.9606,-285.127 L -30,-284.5 L -30,-219.5 L -29.9606,-218.873 L -29.8429,-218.257 L -29.6489,-217.659
 L -29.3815,-217.091 L -29.0451,-216.561 L -28.6448,-216.077 L -28.1871,-215.647 L -27.6791,-215.278 L -27.1289,-214.976
 L -26.5451,-214.745 L -25.9369,-214.589 L -25.3139,-214.51 L 25.3139,-214.51 z
M 22.3659,-279.869 L 22.0999,-279.903 L 21.8401,-279.969 L 21.5908,-280.068 L 21.3559,-280.197 L 21.1389,-280.355
 L 20.9434,-280.538 L 20.7725,-280.745 L 20.6288,-280.971 L 20.5146,-281.214 L 20.4318,-281.469 L 20.3815,-281.732
 L 20.3647,-282 L 20.3815,-282.268 L 20.4318,-282.531 L 20.5146,-282.786 L 20.6288,-283.029 L 20.7725,-283.255
 L 20.9434,-283.462 L 21.1389,-283.645 L 21.3559,-283.803 L 21.5908,-283.932 L 21.8401,-284.031 L 22.0999,-284.097
 L 22.3659,-284.131 L 22.6341,-284.131 L 22.9001,-284.097 L 23.1598,-284.031 L 23.4091,-283.932 L 23.6441,-283.803
 L 23.8611,-283.645 L 24.0565,-283.462 L 24.2275,-283.255 L 24.3712,-283.029 L 24.4853,-282.786 L 24.5682,-282.531
 L 24.6185,-282.268 L 24.6353,-282 L 24.6185,-281.732 L 24.5682,-281.469 L 24.4853,-281.214 L 24.3712,-280.971
 L 24.2275,-280.745 L 24.0565,-280.538 L 23.8611,-280.355 L 23.6441,-280.197 L 23.4091,-280.068 L 23.1598,-279.969
 L 22.9001,-279.903 L 22.6341,-279.869 z
M -22.6341,-279.869 L -22.9001,-279.903 L -23.1598,-279.969 L -23.4091,-280.068 L -23.6441,-280.197 L -23.8611,-280.355
 L -24.0565,-280.538 L -24.2275,-280.745 L -24.3712,-280.971 L -24.4853,-281.214 L -24.5682,-281.469 L -24.6185,-281.732
 L -24.6353,-282 L -24.6185,-282.268 L -24.5682,-282.531 L -24.4853,-282.786 L -24.3712,-283.029 L -24.2275,-283.255
 L -24.0565,-283.462 L -23.8611,-283.645 L -23.6441,-283.803 L -23.4091,-283.932 L -23.1598,-284.031 L -22.9001,-284.097
 L -22.6341,-284.131 L -22.3659,-284.131 L -22.0999,-284.097 L -21.8401,-284.031 L -21.5908,-283.932 L -21.3559,-283.803
 L -21.1389,-283.645 L -20.9434,-283.462 L -20.7725,-283.255 L -20.6288,-283.029 L -20.5146,-282.786 L -20.4318,-282.531
 L -20.3815,-282.268 L -20.3647,-282 L -20.3815,-281.732 L -20.4318,-281.469 L -20.5146,-281.214 L -20.6288,-280.971
 L -20.7725,-280.745 L -20.9434,-280.538 L -21.1389,-280.355 L -21.3559,-280.197 L -21.5908,-280.068 L -21.8401,-279.969
 L -22.0999,-279.903 L -22.3659,-279.869 z
M 22.3659,-219.869 L 22.0999,-219.903 L 21.8401,-219.969 L 21.5908,-220.068 L 21.3559,-220.197 L 21.1389,-220.355
 L 20.9434,-220.538 L 20.7725,-220.745 L 20.6288,-220.971 L 20.5146,-221.214 L 20.4318,-221.469 L 20.3815,-221.732
 L 20.3647,-222 L 20.3815,-222.268 L 20.4318,-222.531 L 20.5146,-222.786 L 20.6288,-223.029 L 20.7725,-223.255
 L 20.9434,-223.462 L 21.1389,-223.645 L 21.3559,-223.803 L 21.5908,-223.932 L 21.8401,-224.031 L 22.0999,-224.097
 L 22.3659,-224.131 L 22.6341,-224.131 L 22.9001,-224.097 L 23.1598,-224.031 L 23.4091,-223.932 L 23.6441,-223.803
 L 23.8611,-223.645 L 24.0565,-223.462 L 24.2275,-223.255 L 24.3712,-223.029 L 24.4853,-222.786 L 24.5682,-222.531
 L 24.6185,-222.268 L 24.6353,-222 L 24.6185,-221.732 L 24.5682,-221.469 L 24.4853,-221.214 L 24.3712,-220.971
 L 24.2275,-220.745 L 24.0565,-220.538 L 23.8611,-220.355 L 23.6441,-220.197 L 23.4091,-220.068 L 23.1598,-219.969
 L 22.9001,-219.903 L 22.6341,-219.869 z
M -22.6341,-219.869 L -22.9001,-219.903 L -23.1598,-219.969 L -23.4091,-220.068 L -23.6441,-220.197 L -23.8611,-220.355
 L -24.0565,-220.538 L -24.2275,-220.745 L -24.3712,-220.971 L -24.4853,-221.214 L -24.5682,-221.469 L -24.6185,-221.732
 L -24.6353,-222 L -24.6185,-222.268 L -24.5682,-222.531 L -24.4853,-222.786 L -24.3712,-223.029 L -24.2275,-223.255
 L -24.0565,-223.462 L -23.8611,-223.645 L -23.6441,-223.803 L -23.4091,-223.932 L -23.1598,-224.031 L -22.9001,-224.097
 L -22.6341,-224.131 L -22.3659,-224.131 L -22.0999,-224.097 L -21.8401,-224.031 L -21.5908,-223.932 L -21.3559,-223.803
 L -21.1389,-223.645 L -20.9434,-223.462 L -20.7725,-223.255 L -20.6288,-223.029 L -20.5146,-222.786 L -20.4318,-222.531
 L -20.3815,-222.268 L -20.3647,-222 L -20.3815,-221.732 L -20.4318,-221.469 L -20.5146,-221.214 L -20.6288,-220.971
 L -20.7725,-220.745 L -20.9434,-220.538 L -21.1389,-220.355 L -21.3559,-220.197 L -21.5908,-220.068 L -21.8401,-219.969
 L -22.0999,-219.903 L -22.3659,-219.869 z
" stroke="black" fill="lightgray" stroke-width="0.5"/>
</svg>
