<?xml version="1.0" standalone="no"?>
<!DOCTYPE svg PUBLIC "-//W3C//DTD SVG 1.1//EN" "http://www.w3.org/Graphics/SVG/1.1/DTD/svg11.dtd">
<svg width="180mm" height="369mm" viewBox="-90 -657 180 369" xmlns="http://www.w3.org/2000/svg" version="1.1">
<title>OpenSCAD Model</title>
<path d="
M 67.125,-656.49 L 28.9645,-656.49 L 31.9547,-653.5 L 67.125,-653.5 z
M 85.4369,-477.589 L 86.0451,-477.745 L 86.6289,-477.976 L 87.1791,-478.278 L 87.6871,-478.647 L 88.1448,-479.077
 L 88.5451,-479.561 L 88.8815,-480.091 L 89.1489,-480.659 L 89.3429,-481.257 L 89.4606,-481.873 L 89.5,-482.5
 L 89.5,-651.5 L 89.4685,-652 L 31.4399,-652 L 31.3866,-651.947 L 31.3333,-652 L 22.103,-652
 L 27.1935,-650.693 L 37.4686,-646.625 L 47.1528,-641.301 L 56.0933,-634.805 L 64.1492,-627.24 L 71.1935,-618.725
 L 77.115,-609.394 L 81.8203,-599.395 L 85.2353,-588.885 L 87.3061,-578.029 L 88,-567 L 87.3061,-555.971
 L 85.2353,-545.115 L 81.8203,-534.605 L 77.115,-524.606 L 71.1935,-515.275 L 64.1492,-506.76 L 56.0933,-499.195
 L 47.1528,-492.699 L 37.4686,-487.375 L 27.1935,-483.307 L 16.4895,-480.559 L 5.52556,-479.174 L -5.52556,-479.174
 L -16.4895,-480.559 L -27.1935,-483.307 L -37.4686,-487.375 L -47.1528,-492.699 L -56.0933,-499.195 L -64.1492,-506.76
 L -71.1935,-515.275 L -77.115,-524.606 L -81.8203,-534.605 L -85.2353,-545.115 L -87.3061,-555.971 L -88,-567
 L -87.3061,-578.029 L -85.2353,-588.885 L -81.8203,-599.395 L -77.115,-609.394 L -71.1935,-618.725 L -64.1492,-627.24
 L -56.0933,-634.805 L -47.1528,-641.301 L -37.4686,-646.625 L -27.1935,-650.693 L -16.4895,-653.441 L -5.52556,-654.826
 L 5.52556,-654.826 L 16.0247,-653.5 L 29.8333,-653.5 L 26.8432,-656.49 L -84.8139,-656.49 L -85.4369,-656.411
 L -86.0451,-656.255 L -86.6289,-656.024 L -87.1791,-655.722 L -87.6871,-655.353 L -88.1448,-654.923 L -88.5451,-654.439
 L -88.8815,-653.909 L -89.1489,-653.341 L -89.3429,-652.743 L -89.3905,-652.494 L -82.3116,-652.494 L -81.9379,-652.447
 L -81.573,-652.353 L -81.2227,-652.214 L -80.8925,-652.033 L -80.5877,-651.812 L -80.3131,-651.554 L -80.073,-651.263
 L -79.8711,-650.945 L -79.7107,-650.604 L -79.5943,-650.246 L -79.5237,-649.876 L -79.5,-649.5 L -79.5237,-649.124
 L -79.5943,-648.754 L -79.7107,-648.396 L -79.8711,-648.055 L -80.073,-647.737 L -80.3131,-647.446 L -80.5877,-647.188
 L -80.8925,-646.967 L -81.2227,-646.786 L -81.573,-646.647 L -81.9379,-646.553 L -82.3116,-646.506 L -89.5,-646.506
 L -89.5,-487.494 L -82.3116,-487.494 L -81.9379,-487.447 L -81.573,-487.353 L -81.2227,-487.214 L -80.8925,-487.033
 L -80.5877,-486.812 L -80.3131,-486.554 L -80.073,-486.263 L -79.8711,-485.945 L -79.7107,-485.604 L -79.5943,-485.246
 L -79.5237,-484.876 L -79.5,-484.5 L -79.5237,-484.124 L -79.5943,-483.754 L -79.7107,-483.396 L -79.8711,-483.055
 L -80.073,-482.737 L -80.3131,-482.446 L -80.5877,-482.188 L -80.8925,-481.967 L -81.2227,-481.786 L -81.573,-481.647
 L -81.9379,-481.553 L -82.3116,-481.506 L -89.3905,-481.506 L -89.3429,-481.257 L -89.1489,-480.659 L -88.8815,-480.091
 L -88.5451,-479.561 L -88.1448,-479.077 L -87.6871,-478.647 L -87.1791,-478.278 L -86.6289,-477.976 L -86.0451,-477.745
 L -85.4369,-477.589 L -84.8139,-477.51 L 84.8139,-477.51 z
M 82.3116,-481.506 L 81.9379,-481.553 L 81.573,-481.647 L 81.2227,-481.786 L 80.8925,-481.967 L 80.5877,-482.188
 L 80.3131,-482.446 L 80.073,-482.737 L 79.8711,-483.055 L 79.7107,-483.396 L 79.5943,-483.754 L 79.5237,-484.124
 L 79.5,-484.5 L 79.5237,-484.876 L 79.5943,-485.246 L 79.7107,-485.604 L 79.8711,-485.945 L 80.073,-486.263
 L 80.3131,-486.554 L 80.5877,-486.812 L 80.8925,-487.033 L 81.2227,-487.214 L 81.573,-487.353 L 81.9379,-487.447
 L 82.3116,-487.494 L 82.6884,-487.494 L 83.0621,-487.447 L 83.427,-487.353 L 83.7773,-487.214 L 84.1075,-487.033
 L 84.4123,-486.812 L 84.6869,-486.554 L 84.927,-486.263 L 85.1289,-485.945 L 85.2893,-485.604 L 85.4057,-485.246
 L 85.4763,-484.876 L 85.5,-484.5 L 85.4763,-484.124 L 85.4057,-483.754 L 85.2893,-483.396 L 85.1289,-483.055
 L 84.927,-482.737 L 84.6869,-482.446 L 84.4123,-482.188 L 84.1075,-481.967 L 83.7773,-481.786 L 83.427,-481.647
 L 83.0621,-481.553 L 82.6884,-481.506 z
M 67.125,-467.49 L 28.9645,-467.49 L 31.9547,-464.5 L 67.125,-464.5 z
M 85.4369,-288.589 L 86.0451,-288.745 L 86.6289,-288.976 L 87.1791,-289.278 L 87.6871,-289.647 L 88.1448,-290.077
 L 88.5451,-290.561 L 88.8815,-291.091 L 89.1489,-291.659 L 89.3429,-292.257 L 89.4606,-292.873 L 89.5,-293.5
 L 89.5,-462.5 L 89.4685,-463 L 31.4399,-463 L 31.3866,-462.947 L 31.3333,-463 L 22.103,-463
 L 27.1935,-461.693 L 37.4686,-457.625 L 47.1528,-452.301 L 56.0933,-445.805 L 64.1492,-438.24 L 71.1935,-429.725
 L 77.115,-420.394 L 81.8203,-410.395 L 85.2353,-399.885 L 87.3061,-389.029 L 88,-378 L 87.3061,-366.971
 L 85.2353,-356.115 L 81.8203,-345.605 L 77.115,-335.606 L 71.1935,-326.275 L 64.1492,-317.76 L 56.0933,-310.195
 L 47.1528,-303.699 L 37.4686,-298.375 L 27.1935,-294.307 L 16.4895,-291.559 L 5.52556,-290.174 L -5.52556,-290.174
 L -16.4895,-291.559 L -27.1935,-294.307 L -37.4686,-298.375 L -47.1528,-303.699 L -56.0933,-310.195 L -64.1492,-317.76
 L -71.1935,-326.275 L -77.115,-335.606 L -81.8203,-345.605 L -85.2353,-356.115 L -87.3061,-366.971 L -88,-378
 L -87.3061,-389.029 L -85.2353,-399.885 L -81.8203,-410.395 L -77.115,-420.394 L -71.1935,-429.725 L -64.1492,-438.24
 L -56.0933,-445.805 L -47.1528,-452.301 L -37.4686,-457.625 L -27.1935,-461.693 L -16.4895,-464.441 L -5.52556,-465.826
 L 5.52556,-465.826 L 16.0247,-464.5 L 29.8333,-464.5 L 26.8432,-467.49 L -84.8139,-467.49 L -85.4369,-467.411
 L -86.0451,-467.255 L -86.6289,-467.024 L -87.1791,-466.722 L -87.6871,-466.353 L -88.1448,-465.923 L -88.5451,-465.439
 L -88.8815,-464.909 L -89.1489,-464.341 L -89.3429,-463.743 L -89.3905,-463.494 L -82.3116,-463.494 L -81.9379,-463.447
 L -81.573,-463.353 L -81.2227,-463.214 L -80.8925,-463.033 L -80.5877,-462.812 L -80.3131,-462.554 L -80.073,-462.263
 L -79.8711,-461.945 L -79.7107,-461.604 L -79.5943,-461.246 L -79.5237,-460.876 L -79.5,-460.5 L -79.5237,-460.124
 L -79.5943,-459.754 L -79.7107,-459.396 L -79.8711,-459.055 L -80.073,-458.737 L -80.3131,-458.446 L -80.5877,-458.188
 L -80.8925,-457.967 L -81.2227,-457.786 L -81.573,-457.647 L -81.9379,-457.553 L -82.3116,-457.506 L -89.5,-457.506
 L -89.5,-298.494 L -82.3116,-298.494 L -81.9379,-298.447 L -81.573,-298.353 L -81.2227,-298.214 L -80.8925,-298.033
 L -80.5877,-297.812 L -80.3131,-297.554 L -80.073,-297.263 L -79.8711,-296.945 L -79.7107,-296.604 L -79.5943,-296.246
 L -79.5237,-295.876 L -79.5,-295.5 L -79.5237,-295.124 L -79.5943,-294.754 L -79.7107,-294.396 L -79.8711,-294.055
 L -80.073,-293.737 L -80.3131,-293.446 L -80.5877,-293.188 L -80.8925,-292.967 L -81.2227,-292.786 L -81.573,-292.647
 L -81.9379,-292.553 L -82.3116,-292.506 L -89.3905,-292.506 L -89.3429,-292.257 L -89.1489,-291.659 L -88.8815,-291.091
 L -88.5451,-290.561 L -88.1448,-290.077 L -87.6871,-289.647 L -87.1791,-289.278 L -86.6289,-288.976 L -86.0451,-288.745
 L -85.4369,-288.589 L -84.8139,-288.51 L 84.8139,-288.51 z
M 82.3116,-292.506 L 81.9379,-292.553 L 81.573,-292.647 L 81.2227,-292.786 L 80.8925,-292.967 L 80.5877,-293.188
 L 80.3131,-293.446 L 80.073,-293.737 L 79.8711,-294.055 L 79.7107,-294.396 L 79.5943,-294.754 L 79.5237,-295.124
 L 79.5,-295.5 L 79.5237,-295.876 L 79.5943,-296.246 L 79.7107,-296.604 L 79.8711,-296.945 L 80.073,-297.263
 L 80.3131,-297.554 L 80.5877,-297.812 L 80.8925,-298.033 L 81.2227,-298.214 L 81.573,-298.353 L 81.9379,-298.447
 L 82.3116,-298.494 L 82.6884,-298.494 L 83.0621,-298.447 L 83.427,-298.353 L 83.7773,-298.214 L 84.1075,-298.033
 L 84.4123,-297.812 L 84.6869,-297.554 L 84.927,-297.263 L 85.1289,-296.945 L 85.2893,-296.604 L 85.4057,-296.246
 L 85.4763,-295.876 L 85.5,-295.5 L 85.4763,-295.124 L 85.4057,-294.754 L 85.2893,-294.396 L 85.1289,-294.055
 L 84.927,-293.737 L 84.6869,-293.446 L 84.4123,-293.188 L 84.1075,-292.967 L 83.7773,-292.786 L 83.427,-292.647
 L 83.0621,-292.553 L 82.6884,-292.506 z
" stroke="black" fill="lightgray" stroke-width="0.5"/>
</svg>
