  0
SECTION
  2
BLOCKS
  0
ENDSEC
  0
SECTION
  2
ENTITIES
  0
LINE
  8
0
 10
67.125
 20
656.49
 11
28.9645
 21
656.49
  0
LINE
  8
0
 10
28.9645
 20
656.49
 11
31.9547
 21
653.5
  0
LINE
  8
0
 10
31.9547
 20
653.5
 11
67.125
 21
653.5
  0
LINE
  8
0
 10
67.125
 20
653.5
 11
67.125
 21
656.49
  0
LINE
  8
0
 10
85.4369
 20
477.589
 11
86.0451
 21
477.745
  0
LINE
  8
0
 10
86.0451
 20
477.745
 11
86.6289
 21
477.976
  0
LINE
  8
0
 10
86.6289
 20
477.976
 11
87.1791
 21
478.278
  0
LINE
  8
0
 10
87.1791
 20
478.278
 11
87.6871
 21
478.647
  0
LINE
  8
0
 10
87.6871
 20
478.647
 11
88.1448
 21
479.077
  0
LINE
  8
0
 10
88.1448
 20
479.077
 11
88.5451
 21
479.561
  0
LINE
  8
0
 10
88.5451
 20
479.561
 11
88.8815
 21
480.091
  0
LINE
  8
0
 10
88.8815
 20
480.091
 11
89.1489
 21
480.659
  0
LINE
  8
0
 10
89.1489
 20
480.659
 11
89.3429
 21
481.257
  0
LINE
  8
0
 10
89.3429
 20
481.257
 11
89.4606
 21
481.873
  0
LINE
  8
0
 10
89.4606
 20
481.873
 11
89.5
 21
482.5
  0
LINE
  8
0
 10
89.5
 20
482.5
 11
89.5
 21
651.5
  0
LINE
  8
0
 10
89.5
 20
651.5
 11
89.4685
 21
652
  0
LINE
  8
0
 10
89.4685
 20
652
 11
31.4399
 21
652
  0
LINE
  8
0
 10
31.4399
 20
652
 11
31.3866
 21
651.947
  0
LINE
  8
0
 10
31.3866
 20
651.947
 11
31.3333
 21
652
  0
LINE
  8
0
 10
31.3333
 20
652
 11
22.103
 21
652
  0
LINE
  8
0
 10
22.103
 20
652
 11
27.1935
 21
650.693
  0
LINE
  8
0
 10
27.1935
 20
650.693
 11
37.4686
 21
646.625
  0
LINE
  8
0
 10
37.4686
 20
646.625
 11
47.1528
 21
641.301
  0
LINE
  8
0
 10
47.1528
 20
641.301
 11
56.0933
 21
634.805
  0
LINE
  8
0
 10
56.0933
 20
634.805
 11
64.1492
 21
627.24
  0
LINE
  8
0
 10
64.1492
 20
627.24
 11
71.1935
 21
618.725
  0
LINE
  8
0
 10
71.1935
 20
618.725
 11
77.115
 21
609.394
  0
LINE
  8
0
 10
77.115
 20
609.394
 11
81.8203
 21
599.395
  0
LINE
  8
0
 10
81.8203
 20
599.395
 11
85.2353
 21
588.885
  0
LINE
  8
0
 10
85.2353
 20
588.885
 11
87.3061
 21
578.029
  0
LINE
  8
0
 10
87.3061
 20
578.029
 11
88
 21
567
  0
LINE
  8
0
 10
88
 20
567
 11
87.3061
 21
555.971
  0
LINE
  8
0
 10
87.3061
 20
555.971
 11
85.2353
 21
545.115
  0
LINE
  8
0
 10
85.2353
 20
545.115
 11
81.8203
 21
534.605
  0
LINE
  8
0
 10
81.8203
 20
534.605
 11
77.115
 21
524.606
  0
LINE
  8
0
 10
77.115
 20
524.606
 11
71.1935
 21
515.275
  0
LINE
  8
0
 10
71.1935
 20
515.275
 11
64.1492
 21
506.76
  0
LINE
  8
0
 10
64.1492
 20
506.76
 11
56.0933
 21
499.195
  0
LINE
  8
0
 10
56.0933
 20
499.195
 11
47.1528
 21
492.699
  0
LINE
  8
0
 10
47.1528
 20
492.699
 11
37.4686
 21
487.375
  0
LINE
  8
0
 10
37.4686
 20
487.375
 11
27.1935
 21
483.307
  0
LINE
  8
0
 10
27.1935
 20
483.307
 11
16.4895
 21
480.559
  0
LINE
  8
0
 10
16.4895
 20
480.559
 11
5.52556
 21
479.174
  0
LINE
  8
0
 10
5.52556
 20
479.174
 11
-5.52556
 21
479.174
  0
LINE
  8
0
 10
-5.52556
 20
479.174
 11
-16.4895
 21
480.559
  0
LINE
  8
0
 10
-16.4895
 20
480.559
 11
-27.1935
 21
483.307
  0
LINE
  8
0
 10
-27.1935
 20
483.307
 11
-37.4686
 21
487.375
  0
LINE
  8
0
 10
-37.4686
 20
487.375
 11
-47.1528
 21
492.699
  0
LINE
  8
0
 10
-47.1528
 20
492.699
 11
-56.0933
 21
499.195
  0
LINE
  8
0
 10
-56.0933
 20
499.195
 11
-64.1492
 21
506.76
  0
LINE
  8
0
 10
-64.1492
 20
506.76
 11
-71.1935
 21
515.275
  0
LINE
  8
0
 10
-71.1935
 20
515.275
 11
-77.115
 21
524.606
  0
LINE
  8
0
 10
-77.115
 20
524.606
 11
-81.8203
 21
534.605
  0
LINE
  8
0
 10
-81.8203
 20
534.605
 11
-85.2353
 21
545.115
  0
LINE
  8
0
 10
-85.2353
 20
545.115
 11
-87.3061
 21
555.971
  0
LINE
  8
0
 10
-87.3061
 20
555.971
 11
-88
 21
567
  0
LINE
  8
0
 10
-88
 20
567
 11
-87.3061
 21
578.029
  0
LINE
  8
0
 10
-87.3061
 20
578.029
 11
-85.2353
 21
588.885
  0
LINE
  8
0
 10
-85.2353
 20
588.885
 11
-81.8203
 21
599.395
  0
LINE
  8
0
 10
-81.8203
 20
599.395
 11
-77.115
 21
609.394
  0
LINE
  8
0
 10
-77.115
 20
609.394
 11
-71.1935
 21
618.725
  0
LINE
  8
0
 10
-71.1935
 20
618.725
 11
-64.1492
 21
627.24
  0
LINE
  8
0
 10
-64.1492
 20
627.24
 11
-56.0933
 21
634.805
  0
LINE
  8
0
 10
-56.0933
 20
634.805
 11
-47.1528
 21
641.301
  0
LINE
  8
0
 10
-47.1528
 20
641.301
 11
-37.4686
 21
646.625
  0
LINE
  8
0
 10
-37.4686
 20
646.625
 11
-27.1935
 21
650.693
  0
LINE
  8
0
 10
-27.1935
 20
650.693
 11
-16.4895
 21
653.441
  0
LINE
  8
0
 10
-16.4895
 20
653.441
 11
-5.52556
 21
654.826
  0
LINE
  8
0
 10
-5.52556
 20
654.826
 11
5.52556
 21
654.826
  0
LINE
  8
0
 10
5.52556
 20
654.826
 11
16.0247
 21
653.5
  0
LINE
  8
0
 10
16.0247
 20
653.5
 11
29.8333
 21
653.5
  0
LINE
  8
0
 10
29.8333
 20
653.5
 11
26.8432
 21
656.49
  0
LINE
  8
0
 10
26.8432
 20
656.49
 11
-84.8139
 21
656.49
  0
LINE
  8
0
 10
-84.8139
 20
656.49
 11
-85.4369
 21
656.411
  0
LINE
  8
0
 10
-85.4369
 20
656.411
 11
-86.0451
 21
656.255
  0
LINE
  8
0
 10
-86.0451
 20
656.255
 11
-86.6289
 21
656.024
  0
LINE
  8
0
 10
-86.6289
 20
656.024
 11
-87.1791
 21
655.722
  0
LINE
  8
0
 10
-87.1791
 20
655.722
 11
-87.6871
 21
655.353
  0
LINE
  8
0
 10
-87.6871
 20
655.353
 11
-88.1448
 21
654.923
  0
LINE
  8
0
 10
-88.1448
 20
654.923
 11
-88.5451
 21
654.439
  0
LINE
  8
0
 10
-88.5451
 20
654.439
 11
-88.8815
 21
653.909
  0
LINE
  8
0
 10
-88.8815
 20
653.909
 11
-89.1489
 21
653.341
  0
LINE
  8
0
 10
-89.1489
 20
653.341
 11
-89.3429
 21
652.743
  0
LINE
  8
0
 10
-89.3429
 20
652.743
 11
-89.3905
 21
652.494
  0
LINE
  8
0
 10
-89.3905
 20
652.494
 11
-82.3116
 21
652.494
  0
LINE
  8
0
 10
-82.3116
 20
652.494
 11
-81.9379
 21
652.447
  0
LINE
  8
0
 10
-81.9379
 20
652.447
 11
-81.573
 21
652.353
  0
LINE
  8
0
 10
-81.573
 20
652.353
 11
-81.2227
 21
652.214
  0
LINE
  8
0
 10
-81.2227
 20
652.214
 11
-80.8925
 21
652.033
  0
LINE
  8
0
 10
-80.8925
 20
652.033
 11
-80.5877
 21
651.812
  0
LINE
  8
0
 10
-80.5877
 20
651.812
 11
-80.3131
 21
651.554
  0
LINE
  8
0
 10
-80.3131
 20
651.554
 11
-80.073
 21
651.263
  0
LINE
  8
0
 10
-80.073
 20
651.263
 11
-79.8711
 21
650.945
  0
LINE
  8
0
 10
-79.8711
 20
650.945
 11
-79.7107
 21
650.604
  0
LINE
  8
0
 10
-79.7107
 20
650.604
 11
-79.5943
 21
650.246
  0
LINE
  8
0
 10
-79.5943
 20
650.246
 11
-79.5237
 21
649.876
  0
LINE
  8
0
 10
-79.5237
 20
649.876
 11
-79.5
 21
649.5
  0
LINE
  8
0
 10
-79.5
 20
649.5
 11
-79.5237
 21
649.124
  0
LINE
  8
0
 10
-79.5237
 20
649.124
 11
-79.5943
 21
648.754
  0
LINE
  8
0
 10
-79.5943
 20
648.754
 11
-79.7107
 21
648.396
  0
LINE
  8
0
 10
-79.7107
 20
648.396
 11
-79.8711
 21
648.055
  0
LINE
  8
0
 10
-79.8711
 20
648.055
 11
-80.073
 21
647.737
  0
LINE
  8
0
 10
-80.073
 20
647.737
 11
-80.3131
 21
647.446
  0
LINE
  8
0
 10
-80.3131
 20
647.446
 11
-80.5877
 21
647.188
  0
LINE
  8
0
 10
-80.5877
 20
647.188
 11
-80.8925
 21
646.967
  0
LINE
  8
0
 10
-80.8925
 20
646.967
 11
-81.2227
 21
646.786
  0
LINE
  8
0
 10
-81.2227
 20
646.786
 11
-81.573
 21
646.647
  0
LINE
  8
0
 10
-81.573
 20
646.647
 11
-81.9379
 21
646.553
  0
LINE
  8
0
 10
-81.9379
 20
646.553
 11
-82.3116
 21
646.506
  0
LINE
  8
0
 10
-82.3116
 20
646.506
 11
-89.5
 21
646.506
  0
LINE
  8
0
 10
-89.5
 20
646.506
 11
-89.5
 21
487.494
  0
LINE
  8
0
 10
-89.5
 20
487.494
 11
-82.3116
 21
487.494
  0
LINE
  8
0
 10
-82.3116
 20
487.494
 11
-81.9379
 21
487.447
  0
LINE
  8
0
 10
-81.9379
 20
487.447
 11
-81.573
 21
487.353
  0
LINE
  8
0
 10
-81.573
 20
487.353
 11
-81.2227
 21
487.214
  0
LINE
  8
0
 10
-81.2227
 20
487.214
 11
-80.8925
 21
487.033
  0
LINE
  8
0
 10
-80.8925
 20
487.033
 11
-80.5877
 21
486.812
  0
LINE
  8
0
 10
-80.5877
 20
486.812
 11
-80.3131
 21
486.554
  0
LINE
  8
0
 10
-80.3131
 20
486.554
 11
-80.073
 21
486.263
  0
LINE
  8
0
 10
-80.073
 20
486.263
 11
-79.8711
 21
485.945
  0
LINE
  8
0
 10
-79.8711
 20
485.945
 11
-79.7107
 21
485.604
  0
LINE
  8
0
 10
-79.7107
 20
485.604
 11
-79.5943
 21
485.246
  0
LINE
  8
0
 10
-79.5943
 20
485.246
 11
-79.5237
 21
484.876
  0
LINE
  8
0
 10
-79.5237
 20
484.876
 11
-79.5
 21
484.5
  0
LINE
  8
0
 10
-79.5
 20
484.5
 11
-79.5237
 21
484.124
  0
LINE
  8
0
 10
-79.5237
 20
484.124
 11
-79.5943
 21
483.754
  0
LINE
  8
0
 10
-79.5943
 20
483.754
 11
-79.7107
 21
483.396
  0
LINE
  8
0
 10
-79.7107
 20
483.396
 11
-79.8711
 21
483.055
  0
LINE
  8
0
 10
-79.8711
 20
483.055
 11
-80.073
 21
482.737
  0
LINE
  8
0
 10
-80.073
 20
482.737
 11
-80.3131
 21
482.446
  0
LINE
  8
0
 10
-80.3131
 20
482.446
 11
-80.5877
 21
482.188
  0
LINE
  8
0
 10
-80.5877
 20
482.188
 11
-80.8925
 21
481.967
  0
LINE
  8
0
 10
-80.8925
 20
481.967
 11
-81.2227
 21
481.786
  0
LINE
  8
0
 10
-81.2227
 20
481.786
 11
-81.573
 21
481.647
  0
LINE
  8
0
 10
-81.573
 20
481.647
 11
-81.9379
 21
481.553
  0
LINE
  8
0
 10
-81.9379
 20
481.553
 11
-82.3116
 21
481.506
  0
LINE
  8
0
 10
-82.3116
 20
481.506
 11
-89.3905
 21
481.506
  0
LINE
  8
0
 10
-89.3905
 20
481.506
 11
-89.3429
 21
481.257
  0
LINE
  8
0
 10
-89.3429
 20
481.257
 11
-89.1489
 21
480.659
  0
LINE
  8
0
 10
-89.1489
 20
480.659
 11
-88.8815
 21
480.091
  0
LINE
  8
0
 10
-88.8815
 20
480.091
 11
-88.5451
 21
479.561
  0
LINE
  8
0
 10
-88.5451
 20
479.561
 11
-88.1448
 21
479.077
  0
LINE
  8
0
 10
-88.1448
 20
479.077
 11
-87.6871
 21
478.647
  0
LINE
  8
0
 10
-87.6871
 20
478.647
 11
-87.1791
 21
478.278
  0
LINE
  8
0
 10
-87.1791
 20
478.278
 11
-86.6289
 21
477.976
  0
LINE
  8
0
 10
-86.6289
 20
477.976
 11
-86.0451
 21
477.745
  0
LINE
  8
0
 10
-86.0451
 20
477.745
 11
-85.4369
 21
477.589
  0
LINE
  8
0
 10
-85.4369
 20
477.589
 11
-84.8139
 21
477.51
  0
LINE
  8
0
 10
-84.8139
 20
477.51
 11
84.8139
 21
477.51
  0
LINE
  8
0
 10
84.8139
 20
477.51
 11
85.4369
 21
477.589
  0
LINE
  8
0
 10
82.3116
 20
481.506
 11
81.9379
 21
481.553
  0
LINE
  8
0
 10
81.9379
 20
481.553
 11
81.573
 21
481.647
  0
LINE
  8
0
 10
81.573
 20
481.647
 11
81.2227
 21
481.786
  0
LINE
  8
0
 10
81.2227
 20
481.786
 11
80.8925
 21
481.967
  0
LINE
  8
0
 10
80.8925
 20
481.967
 11
80.5877
 21
482.188
  0
LINE
  8
0
 10
80.5877
 20
482.188
 11
80.3131
 21
482.446
  0
LINE
  8
0
 10
80.3131
 20
482.446
 11
80.073
 21
482.737
  0
LINE
  8
0
 10
80.073
 20
482.737
 11
79.8711
 21
483.055
  0
LINE
  8
0
 10
79.8711
 20
483.055
 11
79.7107
 21
483.396
  0
LINE
  8
0
 10
79.7107
 20
483.396
 11
79.5943
 21
483.754
  0
LINE
  8
0
 10
79.5943
 20
483.754
 11
79.5237
 21
484.124
  0
LINE
  8
0
 10
79.5237
 20
484.124
 11
79.5
 21
484.5
  0
LINE
  8
0
 10
79.5
 20
484.5
 11
79.5237
 21
484.876
  0
LINE
  8
0
 10
79.5237
 20
484.876
 11
79.5943
 21
485.246
  0
LINE
  8
0
 10
79.5943
 20
485.246
 11
79.7107
 21
485.604
  0
LINE
  8
0
 10
79.7107
 20
485.604
 11
79.8711
 21
485.945
  0
LINE
  8
0
 10
79.8711
 20
485.945
 11
80.073
 21
486.263
  0
LINE
  8
0
 10
80.073
 20
486.263
 11
80.3131
 21
486.554
  0
LINE
  8
0
 10
80.3131
 20
486.554
 11
80.5877
 21
486.812
  0
LINE
  8
0
 10
80.5877
 20
486.812
 11
80.8925
 21
487.033
  0
LINE
  8
0
 10
80.8925
 20
487.033
 11
81.2227
 21
487.214
  0
LINE
  8
0
 10
81.2227
 20
487.214
 11
81.573
 21
487.353
  0
LINE
  8
0
 10
81.573
 20
487.353
 11
81.9379
 21
487.447
  0
LINE
  8
0
 10
81.9379
 20
487.447
 11
82.3116
 21
487.494
  0
LINE
  8
0
 10
82.3116
 20
487.494
 11
82.6884
 21
487.494
  0
LINE
  8
0
 10
82.6884
 20
487.494
 11
83.0621
 21
487.447
  0
LINE
  8
0
 10
83.0621
 20
487.447
 11
83.427
 21
487.353
  0
LINE
  8
0
 10
83.427
 20
487.353
 11
83.7773
 21
487.214
  0
LINE
  8
0
 10
83.7773
 20
487.214
 11
84.1075
 21
487.033
  0
LINE
  8
0
 10
84.1075
 20
487.033
 11
84.4123
 21
486.812
  0
LINE
  8
0
 10
84.4123
 20
486.812
 11
84.6869
 21
486.554
  0
LINE
  8
0
 10
84.6869
 20
486.554
 11
84.927
 21
486.263
  0
LINE
  8
0
 10
84.927
 20
486.263
 11
85.1289
 21
485.945
  0
LINE
  8
0
 10
85.1289
 20
485.945
 11
85.2893
 21
485.604
  0
LINE
  8
0
 10
85.2893
 20
485.604
 11
85.4057
 21
485.246
  0
LINE
  8
0
 10
85.4057
 20
485.246
 11
85.4763
 21
484.876
  0
LINE
  8
0
 10
85.4763
 20
484.876
 11
85.5
 21
484.5
  0
LINE
  8
0
 10
85.5
 20
484.5
 11
85.4763
 21
484.124
  0
LINE
  8
0
 10
85.4763
 20
484.124
 11
85.4057
 21
483.754
  0
LINE
  8
0
 10
85.4057
 20
483.754
 11
85.2893
 21
483.396
  0
LINE
  8
0
 10
85.2893
 20
483.396
 11
85.1289
 21
483.055
  0
LINE
  8
0
 10
85.1289
 20
483.055
 11
84.927
 21
482.737
  0
LINE
  8
0
 10
84.927
 20
482.737
 11
84.6869
 21
482.446
  0
LINE
  8
0
 10
84.6869
 20
482.446
 11
84.4123
 21
482.188
  0
LINE
  8
0
 10
84.4123
 20
482.188
 11
84.1075
 21
481.967
  0
LINE
  8
0
 10
84.1075
 20
481.967
 11
83.7773
 21
481.786
  0
LINE
  8
0
 10
83.7773
 20
481.786
 11
83.427
 21
481.647
  0
LINE
  8
0
 10
83.427
 20
481.647
 11
83.0621
 21
481.553
  0
LINE
  8
0
 10
83.0621
 20
481.553
 11
82.6884
 21
481.506
  0
LINE
  8
0
 10
82.6884
 20
481.506
 11
82.3116
 21
481.506
  0
LINE
  8
0
 10
67.125
 20
467.49
 11
28.9645
 21
467.49
  0
LINE
  8
0
 10
28.9645
 20
467.49
 11
31.9547
 21
464.5
  0
LINE
  8
0
 10
31.9547
 20
464.5
 11
67.125
 21
464.5
  0
LINE
  8
0
 10
67.125
 20
464.5
 11
67.125
 21
467.49
  0
LINE
  8
0
 10
85.4369
 20
288.589
 11
86.0451
 21
288.745
  0
LINE
  8
0
 10
86.0451
 20
288.745
 11
86.6289
 21
288.976
  0
LINE
  8
0
 10
86.6289
 20
288.976
 11
87.1791
 21
289.278
  0
LINE
  8
0
 10
87.1791
 20
289.278
 11
87.6871
 21
289.647
  0
LINE
  8
0
 10
87.6871
 20
289.647
 11
88.1448
 21
290.077
  0
LINE
  8
0
 10
88.1448
 20
290.077
 11
88.5451
 21
290.561
  0
LINE
  8
0
 10
88.5451
 20
290.561
 11
88.8815
 21
291.091
  0
LINE
  8
0
 10
88.8815
 20
291.091
 11
89.1489
 21
291.659
  0
LINE
  8
0
 10
89.1489
 20
291.659
 11
89.3429
 21
292.257
  0
LINE
  8
0
 10
89.3429
 20
292.257
 11
89.4606
 21
292.873
  0
LINE
  8
0
 10
89.4606
 20
292.873
 11
89.5
 21
293.5
  0
LINE
  8
0
 10
89.5
 20
293.5
 11
89.5
 21
462.5
  0
LINE
  8
0
 10
89.5
 20
462.5
 11
89.4685
 21
463
  0
LINE
  8
0
 10
89.4685
 20
463
 11
31.4399
 21
463
  0
LINE
  8
0
 10
31.4399
 20
463
 11
31.3866
 21
462.947
  0
LINE
  8
0
 10
31.3866
 20
462.947
 11
31.3333
 21
463
  0
LINE
  8
0
 10
31.3333
 20
463
 11
22.103
 21
463
  0
LINE
  8
0
 10
22.103
 20
463
 11
27.1935
 21
461.693
  0
LINE
  8
0
 10
27.1935
 20
461.693
 11
37.4686
 21
457.625
  0
LINE
  8
0
 10
37.4686
 20
457.625
 11
47.1528
 21
452.301
  0
LINE
  8
0
 10
47.1528
 20
452.301
 11
56.0933
 21
445.805
  0
LINE
  8
0
 10
56.0933
 20
445.805
 11
64.1492
 21
438.24
  0
LINE
  8
0
 10
64.1492
 20
438.24
 11
71.1935
 21
429.725
  0
LINE
  8
0
 10
71.1935
 20
429.725
 11
77.115
 21
420.394
  0
LINE
  8
0
 10
77.115
 20
420.394
 11
81.8203
 21
410.395
  0
LINE
  8
0
 10
81.8203
 20
410.395
 11
85.2353
 21
399.885
  0
LINE
  8
0
 10
85.2353
 20
399.885
 11
87.3061
 21
389.029
  0
LINE
  8
0
 10
87.3061
 20
389.029
 11
88
 21
378
  0
LINE
  8
0
 10
88
 20
378
 11
87.3061
 21
366.971
  0
LINE
  8
0
 10
87.3061
 20
366.971
 11
85.2353
 21
356.115
  0
LINE
  8
0
 10
85.2353
 20
356.115
 11
81.8203
 21
345.605
  0
LINE
  8
0
 10
81.8203
 20
345.605
 11
77.115
 21
335.606
  0
LINE
  8
0
 10
77.115
 20
335.606
 11
71.1935
 21
326.275
  0
LINE
  8
0
 10
71.1935
 20
326.275
 11
64.1492
 21
317.76
  0
LINE
  8
0
 10
64.1492
 20
317.76
 11
56.0933
 21
310.195
  0
LINE
  8
0
 10
56.0933
 20
310.195
 11
47.1528
 21
303.699
  0
LINE
  8
0
 10
47.1528
 20
303.699
 11
37.4686
 21
298.375
  0
LINE
  8
0
 10
37.4686
 20
298.375
 11
27.1935
 21
294.307
  0
LINE
  8
0
 10
27.1935
 20
294.307
 11
16.4895
 21
291.559
  0
LINE
  8
0
 10
16.4895
 20
291.559
 11
5.52556
 21
290.174
  0
LINE
  8
0
 10
5.52556
 20
290.174
 11
-5.52556
 21
290.174
  0
LINE
  8
0
 10
-5.52556
 20
290.174
 11
-16.4895
 21
291.559
  0
LINE
  8
0
 10
-16.4895
 20
291.559
 11
-27.1935
 21
294.307
  0
LINE
  8
0
 10
-27.1935
 20
294.307
 11
-37.4686
 21
298.375
  0
LINE
  8
0
 10
-37.4686
 20
298.375
 11
-47.1528
 21
303.699
  0
LINE
  8
0
 10
-47.1528
 20
303.699
 11
-56.0933
 21
310.195
  0
LINE
  8
0
 10
-56.0933
 20
310.195
 11
-64.1492
 21
317.76
  0
LINE
  8
0
 10
-64.1492
 20
317.76
 11
-71.1935
 21
326.275
  0
LINE
  8
0
 10
-71.1935
 20
326.275
 11
-77.115
 21
335.606
  0
LINE
  8
0
 10
-77.115
 20
335.606
 11
-81.8203
 21
345.605
  0
LINE
  8
0
 10
-81.8203
 20
345.605
 11
-85.2353
 21
356.115
  0
LINE
  8
0
 10
-85.2353
 20
356.115
 11
-87.3061
 21
366.971
  0
LINE
  8
0
 10
-87.3061
 20
366.971
 11
-88
 21
378
  0
LINE
  8
0
 10
-88
 20
378
 11
-87.3061
 21
389.029
  0
LINE
  8
0
 10
-87.3061
 20
389.029
 11
-85.2353
 21
399.885
  0
LINE
  8
0
 10
-85.2353
 20
399.885
 11
-81.8203
 21
410.395
  0
LINE
  8
0
 10
-81.8203
 20
410.395
 11
-77.115
 21
420.394
  0
LINE
  8
0
 10
-77.115
 20
420.394
 11
-71.1935
 21
429.725
  0
LINE
  8
0
 10
-71.1935
 20
429.725
 11
-64.1492
 21
438.24
  0
LINE
  8
0
 10
-64.1492
 20
438.24
 11
-56.0933
 21
445.805
  0
LINE
  8
0
 10
-56.0933
 20
445.805
 11
-47.1528
 21
452.301
  0
LINE
  8
0
 10
-47.1528
 20
452.301
 11
-37.4686
 21
457.625
  0
LINE
  8
0
 10
-37.4686
 20
457.625
 11
-27.1935
 21
461.693
  0
LINE
  8
0
 10
-27.1935
 20
461.693
 11
-16.4895
 21
464.441
  0
LINE
  8
0
 10
-16.4895
 20
464.441
 11
-5.52556
 21
465.826
  0
LINE
  8
0
 10
-5.52556
 20
465.826
 11
5.52556
 21
465.826
  0
LINE
  8
0
 10
5.52556
 20
465.826
 11
16.0247
 21
464.5
  0
LINE
  8
0
 10
16.0247
 20
464.5
 11
29.8333
 21
464.5
  0
LINE
  8
0
 10
29.8333
 20
464.5
 11
26.8432
 21
467.49
  0
LINE
  8
0
 10
26.8432
 20
467.49
 11
-84.8139
 21
467.49
  0
LINE
  8
0
 10
-84.8139
 20
467.49
 11
-85.4369
 21
467.411
  0
LINE
  8
0
 10
-85.4369
 20
467.411
 11
-86.0451
 21
467.255
  0
LINE
  8
0
 10
-86.0451
 20
467.255
 11
-86.6289
 21
467.024
  0
LINE
  8
0
 10
-86.6289
 20
467.024
 11
-87.1791
 21
466.722
  0
LINE
  8
0
 10
-87.1791
 20
466.722
 11
-87.6871
 21
466.353
  0
LINE
  8
0
 10
-87.6871
 20
466.353
 11
-88.1448
 21
465.923
  0
LINE
  8
0
 10
-88.1448
 20
465.923
 11
-88.5451
 21
465.439
  0
LINE
  8
0
 10
-88.5451
 20
465.439
 11
-88.8815
 21
464.909
  0
LINE
  8
0
 10
-88.8815
 20
464.909
 11
-89.1489
 21
464.341
  0
LINE
  8
0
 10
-89.1489
 20
464.341
 11
-89.3429
 21
463.743
  0
LINE
  8
0
 10
-89.3429
 20
463.743
 11
-89.3905
 21
463.494
  0
LINE
  8
0
 10
-89.3905
 20
463.494
 11
-82.3116
 21
463.494
  0
LINE
  8
0
 10
-82.3116
 20
463.494
 11
-81.9379
 21
463.447
  0
LINE
  8
0
 10
-81.9379
 20
463.447
 11
-81.573
 21
463.353
  0
LINE
  8
0
 10
-81.573
 20
463.353
 11
-81.2227
 21
463.214
  0
LINE
  8
0
 10
-81.2227
 20
463.214
 11
-80.8925
 21
463.033
  0
LINE
  8
0
 10
-80.8925
 20
463.033
 11
-80.5877
 21
462.812
  0
LINE
  8
0
 10
-80.5877
 20
462.812
 11
-80.3131
 21
462.554
  0
LINE
  8
0
 10
-80.3131
 20
462.554
 11
-80.073
 21
462.263
  0
LINE
  8
0
 10
-80.073
 20
462.263
 11
-79.8711
 21
461.945
  0
LINE
  8
0
 10
-79.8711
 20
461.945
 11
-79.7107
 21
461.604
  0
LINE
  8
0
 10
-79.7107
 20
461.604
 11
-79.5943
 21
461.246
  0
LINE
  8
0
 10
-79.5943
 20
461.246
 11
-79.5237
 21
460.876
  0
LINE
  8
0
 10
-79.5237
 20
460.876
 11
-79.5
 21
460.5
  0
LINE
  8
0
 10
-79.5
 20
460.5
 11
-79.5237
 21
460.124
  0
LINE
  8
0
 10
-79.5237
 20
460.124
 11
-79.5943
 21
459.754
  0
LINE
  8
0
 10
-79.5943
 20
459.754
 11
-79.7107
 21
459.396
  0
LINE
  8
0
 10
-79.7107
 20
459.396
 11
-79.8711
 21
459.055
  0
LINE
  8
0
 10
-79.8711
 20
459.055
 11
-80.073
 21
458.737
  0
LINE
  8
0
 10
-80.073
 20
458.737
 11
-80.3131
 21
458.446
  0
LINE
  8
0
 10
-80.3131
 20
458.446
 11
-80.5877
 21
458.188
  0
LINE
  8
0
 10
-80.5877
 20
458.188
 11
-80.8925
 21
457.967
  0
LINE
  8
0
 10
-80.8925
 20
457.967
 11
-81.2227
 21
457.786
  0
LINE
  8
0
 10
-81.2227
 20
457.786
 11
-81.573
 21
457.647
  0
LINE
  8
0
 10
-81.573
 20
457.647
 11
-81.9379
 21
457.553
  0
LINE
  8
0
 10
-81.9379
 20
457.553
 11
-82.3116
 21
457.506
  0
LINE
  8
0
 10
-82.3116
 20
457.506
 11
-89.5
 21
457.506
  0
LINE
  8
0
 10
-89.5
 20
457.506
 11
-89.5
 21
298.494
  0
LINE
  8
0
 10
-89.5
 20
298.494
 11
-82.3116
 21
298.494
  0
LINE
  8
0
 10
-82.3116
 20
298.494
 11
-81.9379
 21
298.447
  0
LINE
  8
0
 10
-81.9379
 20
298.447
 11
-81.573
 21
298.353
  0
LINE
  8
0
 10
-81.573
 20
298.353
 11
-81.2227
 21
298.214
  0
LINE
  8
0
 10
-81.2227
 20
298.214
 11
-80.8925
 21
298.033
  0
LINE
  8
0
 10
-80.8925
 20
298.033
 11
-80.5877
 21
297.812
  0
LINE
  8
0
 10
-80.5877
 20
297.812
 11
-80.3131
 21
297.554
  0
LINE
  8
0
 10
-80.3131
 20
297.554
 11
-80.073
 21
297.263
  0
LINE
  8
0
 10
-80.073
 20
297.263
 11
-79.8711
 21
296.945
  0
LINE
  8
0
 10
-79.8711
 20
296.945
 11
-79.7107
 21
296.604
  0
LINE
  8
0
 10
-79.7107
 20
296.604
 11
-79.5943
 21
296.246
  0
LINE
  8
0
 10
-79.5943
 20
296.246
 11
-79.5237
 21
295.876
  0
LINE
  8
0
 10
-79.5237
 20
295.876
 11
-79.5
 21
295.5
  0
LINE
  8
0
 10
-79.5
 20
295.5
 11
-79.5237
 21
295.124
  0
LINE
  8
0
 10
-79.5237
 20
295.124
 11
-79.5943
 21
294.754
  0
LINE
  8
0
 10
-79.5943
 20
294.754
 11
-79.7107
 21
294.396
  0
LINE
  8
0
 10
-79.7107
 20
294.396
 11
-79.8711
 21
294.055
  0
LINE
  8
0
 10
-79.8711
 20
294.055
 11
-80.073
 21
293.737
  0
LINE
  8
0
 10
-80.073
 20
293.737
 11
-80.3131
 21
293.446
  0
LINE
  8
0
 10
-80.3131
 20
293.446
 11
-80.5877
 21
293.188
  0
LINE
  8
0
 10
-80.5877
 20
293.188
 11
-80.8925
 21
292.967
  0
LINE
  8
0
 10
-80.8925
 20
292.967
 11
-81.2227
 21
292.786
  0
LINE
  8
0
 10
-81.2227
 20
292.786
 11
-81.573
 21
292.647
  0
LINE
  8
0
 10
-81.573
 20
292.647
 11
-81.9379
 21
292.553
  0
LINE
  8
0
 10
-81.9379
 20
292.553
 11
-82.3116
 21
292.506
  0
LINE
  8
0
 10
-82.3116
 20
292.506
 11
-89.3905
 21
292.506
  0
LINE
  8
0
 10
-89.3905
 20
292.506
 11
-89.3429
 21
292.257
  0
LINE
  8
0
 10
-89.3429
 20
292.257
 11
-89.1489
 21
291.659
  0
LINE
  8
0
 10
-89.1489
 20
291.659
 11
-88.8815
 21
291.091
  0
LINE
  8
0
 10
-88.8815
 20
291.091
 11
-88.5451
 21
290.561
  0
LINE
  8
0
 10
-88.5451
 20
290.561
 11
-88.1448
 21
290.077
  0
LINE
  8
0
 10
-88.1448
 20
290.077
 11
-87.6871
 21
289.647
  0
LINE
  8
0
 10
-87.6871
 20
289.647
 11
-87.1791
 21
289.278
  0
LINE
  8
0
 10
-87.1791
 20
289.278
 11
-86.6289
 21
288.976
  0
LINE
  8
0
 10
-86.6289
 20
288.976
 11
-86.0451
 21
288.745
  0
LINE
  8
0
 10
-86.0451
 20
288.745
 11
-85.4369
 21
288.589
  0
LINE
  8
0
 10
-85.4369
 20
288.589
 11
-84.8139
 21
288.51
  0
LINE
  8
0
 10
-84.8139
 20
288.51
 11
84.8139
 21
288.51
  0
LINE
  8
0
 10
84.8139
 20
288.51
 11
85.4369
 21
288.589
  0
LINE
  8
0
 10
82.3116
 20
292.506
 11
81.9379
 21
292.553
  0
LINE
  8
0
 10
81.9379
 20
292.553
 11
81.573
 21
292.647
  0
LINE
  8
0
 10
81.573
 20
292.647
 11
81.2227
 21
292.786
  0
LINE
  8
0
 10
81.2227
 20
292.786
 11
80.8925
 21
292.967
  0
LINE
  8
0
 10
80.8925
 20
292.967
 11
80.5877
 21
293.188
  0
LINE
  8
0
 10
80.5877
 20
293.188
 11
80.3131
 21
293.446
  0
LINE
  8
0
 10
80.3131
 20
293.446
 11
80.073
 21
293.737
  0
LINE
  8
0
 10
80.073
 20
293.737
 11
79.8711
 21
294.055
  0
LINE
  8
0
 10
79.8711
 20
294.055
 11
79.7107
 21
294.396
  0
LINE
  8
0
 10
79.7107
 20
294.396
 11
79.5943
 21
294.754
  0
LINE
  8
0
 10
79.5943
 20
294.754
 11
79.5237
 21
295.124
  0
LINE
  8
0
 10
79.5237
 20
295.124
 11
79.5
 21
295.5
  0
LINE
  8
0
 10
79.5
 20
295.5
 11
79.5237
 21
295.876
  0
LINE
  8
0
 10
79.5237
 20
295.876
 11
79.5943
 21
296.246
  0
LINE
  8
0
 10
79.5943
 20
296.246
 11
79.7107
 21
296.604
  0
LINE
  8
0
 10
79.7107
 20
296.604
 11
79.8711
 21
296.945
  0
LINE
  8
0
 10
79.8711
 20
296.945
 11
80.073
 21
297.263
  0
LINE
  8
0
 10
80.073
 20
297.263
 11
80.3131
 21
297.554
  0
LINE
  8
0
 10
80.3131
 20
297.554
 11
80.5877
 21
297.812
  0
LINE
  8
0
 10
80.5877
 20
297.812
 11
80.8925
 21
298.033
  0
LINE
  8
0
 10
80.8925
 20
298.033
 11
81.2227
 21
298.214
  0
LINE
  8
0
 10
81.2227
 20
298.214
 11
81.573
 21
298.353
  0
LINE
  8
0
 10
81.573
 20
298.353
 11
81.9379
 21
298.447
  0
LINE
  8
0
 10
81.9379
 20
298.447
 11
82.3116
 21
298.494
  0
LINE
  8
0
 10
82.3116
 20
298.494
 11
82.6884
 21
298.494
  0
LINE
  8
0
 10
82.6884
 20
298.494
 11
83.0621
 21
298.447
  0
LINE
  8
0
 10
83.0621
 20
298.447
 11
83.427
 21
298.353
  0
LINE
  8
0
 10
83.427
 20
298.353
 11
83.7773
 21
298.214
  0
LINE
  8
0
 10
83.7773
 20
298.214
 11
84.1075
 21
298.033
  0
LINE
  8
0
 10
84.1075
 20
298.033
 11
84.4123
 21
297.812
  0
LINE
  8
0
 10
84.4123
 20
297.812
 11
84.6869
 21
297.554
  0
LINE
  8
0
 10
84.6869
 20
297.554
 11
84.927
 21
297.263
  0
LINE
  8
0
 10
84.927
 20
297.263
 11
85.1289
 21
296.945
  0
LINE
  8
0
 10
85.1289
 20
296.945
 11
85.2893
 21
296.604
  0
LINE
  8
0
 10
85.2893
 20
296.604
 11
85.4057
 21
296.246
  0
LINE
  8
0
 10
85.4057
 20
296.246
 11
85.4763
 21
295.876
  0
LINE
  8
0
 10
85.4763
 20
295.876
 11
85.5
 21
295.5
  0
LINE
  8
0
 10
85.5
 20
295.5
 11
85.4763
 21
295.124
  0
LINE
  8
0
 10
85.4763
 20
295.124
 11
85.4057
 21
294.754
  0
LINE
  8
0
 10
85.4057
 20
294.754
 11
85.2893
 21
294.396
  0
LINE
  8
0
 10
85.2893
 20
294.396
 11
85.1289
 21
294.055
  0
LINE
  8
0
 10
85.1289
 20
294.055
 11
84.927
 21
293.737
  0
LINE
  8
0
 10
84.927
 20
293.737
 11
84.6869
 21
293.446
  0
LINE
  8
0
 10
84.6869
 20
293.446
 11
84.4123
 21
293.188
  0
LINE
  8
0
 10
84.4123
 20
293.188
 11
84.1075
 21
292.967
  0
LINE
  8
0
 10
84.1075
 20
292.967
 11
83.7773
 21
292.786
  0
LINE
  8
0
 10
83.7773
 20
292.786
 11
83.427
 21
292.647
  0
LINE
  8
0
 10
83.427
 20
292.647
 11
83.0621
 21
292.553
  0
LINE
  8
0
 10
83.0621
 20
292.553
 11
82.6884
 21
292.506
  0
LINE
  8
0
 10
82.6884
 20
292.506
 11
82.3116
 21
292.506
  0
ENDSEC
  0
SECTION
  2
OBJECTS
  0
DICTIONARY
  0
ENDSEC
  0
EOF
