  0
SECTION
  2
BLOCKS
  0
ENDSEC
  0
SECTION
  2
ENTITIES
  0
LINE
  8
0
 10
50.25
 20
354.99
 11
21.4645
 21
354.99
  0
LINE
  8
0
 10
21.4645
 20
354.99
 11
24.4547
 21
352
  0
LINE
  8
0
 10
24.4547
 20
352
 11
50.25
 21
352
  0
LINE
  8
0
 10
50.25
 20
352
 11
50.25
 21
354.99
  0
LINE
  8
0
 10
62.9369
 20
221.089
 11
63.5451
 21
221.245
  0
LINE
  8
0
 10
63.5451
 20
221.245
 11
64.1289
 21
221.476
  0
LINE
  8
0
 10
64.1289
 20
221.476
 11
64.6791
 21
221.778
  0
LINE
  8
0
 10
64.6791
 20
221.778
 11
65.1871
 21
222.147
  0
LINE
  8
0
 10
65.1871
 20
222.147
 11
65.6448
 21
222.577
  0
LINE
  8
0
 10
65.6448
 20
222.577
 11
66.0451
 21
223.061
  0
LINE
  8
0
 10
66.0451
 20
223.061
 11
66.3815
 21
223.591
  0
LINE
  8
0
 10
66.3815
 20
223.591
 11
66.6489
 21
224.159
  0
LINE
  8
0
 10
66.6489
 20
224.159
 11
66.8429
 21
224.757
  0
LINE
  8
0
 10
66.8429
 20
224.757
 11
66.9606
 21
225.373
  0
LINE
  8
0
 10
66.9606
 20
225.373
 11
67
 21
226
  0
LINE
  8
0
 10
67
 20
226
 11
67
 21
350
  0
LINE
  8
0
 10
67
 20
350
 11
66.9685
 21
350.5
  0
LINE
  8
0
 10
66.9685
 20
350.5
 11
23.9399
 21
350.5
  0
LINE
  8
0
 10
23.9399
 20
350.5
 11
23.8866
 21
350.447
  0
LINE
  8
0
 10
23.8866
 20
350.447
 11
23.8333
 21
350.5
  0
LINE
  8
0
 10
23.8333
 20
350.5
 11
19.4391
 21
350.5
  0
LINE
  8
0
 10
19.4391
 20
350.5
 11
20.2406
 21
350.294
  0
LINE
  8
0
 10
20.2406
 20
350.294
 11
27.8885
 21
347.266
  0
LINE
  8
0
 10
27.8885
 20
347.266
 11
35.0966
 21
343.303
  0
LINE
  8
0
 10
35.0966
 20
343.303
 11
41.7513
 21
338.469
  0
LINE
  8
0
 10
41.7513
 20
338.469
 11
47.7474
 21
332.838
  0
LINE
  8
0
 10
47.7474
 20
332.838
 11
52.9906
 21
326.5
  0
LINE
  8
0
 10
52.9906
 20
326.5
 11
57.3981
 21
319.555
  0
LINE
  8
0
 10
57.3981
 20
319.555
 11
60.9004
 21
312.112
  0
LINE
  8
0
 10
60.9004
 20
312.112
 11
63.4422
 21
304.289
  0
LINE
  8
0
 10
63.4422
 20
304.289
 11
64.9835
 21
296.209
  0
LINE
  8
0
 10
64.9835
 20
296.209
 11
65.5
 21
288
  0
LINE
  8
0
 10
65.5
 20
288
 11
64.9835
 21
279.791
  0
LINE
  8
0
 10
64.9835
 20
279.791
 11
63.4422
 21
271.711
  0
LINE
  8
0
 10
63.4422
 20
271.711
 11
60.9004
 21
263.888
  0
LINE
  8
0
 10
60.9004
 20
263.888
 11
57.3981
 21
256.445
  0
LINE
  8
0
 10
57.3981
 20
256.445
 11
52.9906
 21
249.5
  0
LINE
  8
0
 10
52.9906
 20
249.5
 11
47.7474
 21
243.162
  0
LINE
  8
0
 10
47.7474
 20
243.162
 11
41.7513
 21
237.531
  0
LINE
  8
0
 10
41.7513
 20
237.531
 11
35.0966
 21
232.697
  0
LINE
  8
0
 10
35.0966
 20
232.697
 11
27.8885
 21
228.734
  0
LINE
  8
0
 10
27.8885
 20
228.734
 11
20.2406
 21
225.706
  0
LINE
  8
0
 10
20.2406
 20
225.706
 11
12.2735
 21
223.66
  0
LINE
  8
0
 10
12.2735
 20
223.66
 11
4.11278
 21
222.629
  0
LINE
  8
0
 10
4.11278
 20
222.629
 11
-4.11278
 21
222.629
  0
LINE
  8
0
 10
-4.11278
 20
222.629
 11
-12.2735
 21
223.66
  0
LINE
  8
0
 10
-12.2735
 20
223.66
 11
-20.2406
 21
225.706
  0
LINE
  8
0
 10
-20.2406
 20
225.706
 11
-27.8885
 21
228.734
  0
LINE
  8
0
 10
-27.8885
 20
228.734
 11
-35.0966
 21
232.697
  0
LINE
  8
0
 10
-35.0966
 20
232.697
 11
-41.7513
 21
237.531
  0
LINE
  8
0
 10
-41.7513
 20
237.531
 11
-47.7474
 21
243.162
  0
LINE
  8
0
 10
-47.7474
 20
243.162
 11
-52.9906
 21
249.5
  0
LINE
  8
0
 10
-52.9906
 20
249.5
 11
-57.3981
 21
256.445
  0
LINE
  8
0
 10
-57.3981
 20
256.445
 11
-60.9004
 21
263.888
  0
LINE
  8
0
 10
-60.9004
 20
263.888
 11
-63.4422
 21
271.711
  0
LINE
  8
0
 10
-63.4422
 20
271.711
 11
-64.9835
 21
279.791
  0
LINE
  8
0
 10
-64.9835
 20
279.791
 11
-65.5
 21
288
  0
LINE
  8
0
 10
-65.5
 20
288
 11
-64.9835
 21
296.209
  0
LINE
  8
0
 10
-64.9835
 20
296.209
 11
-63.4422
 21
304.289
  0
LINE
  8
0
 10
-63.4422
 20
304.289
 11
-60.9004
 21
312.112
  0
LINE
  8
0
 10
-60.9004
 20
312.112
 11
-57.3981
 21
319.555
  0
LINE
  8
0
 10
-57.3981
 20
319.555
 11
-52.9906
 21
326.5
  0
LINE
  8
0
 10
-52.9906
 20
326.5
 11
-47.7474
 21
332.838
  0
LINE
  8
0
 10
-47.7474
 20
332.838
 11
-41.7513
 21
338.469
  0
LINE
  8
0
 10
-41.7513
 20
338.469
 11
-35.0966
 21
343.303
  0
LINE
  8
0
 10
-35.0966
 20
343.303
 11
-27.8885
 21
347.266
  0
LINE
  8
0
 10
-27.8885
 20
347.266
 11
-20.2406
 21
350.294
  0
LINE
  8
0
 10
-20.2406
 20
350.294
 11
-12.2735
 21
352.34
  0
LINE
  8
0
 10
-12.2735
 20
352.34
 11
-4.11278
 21
353.371
  0
LINE
  8
0
 10
-4.11278
 20
353.371
 11
4.11278
 21
353.371
  0
LINE
  8
0
 10
4.11278
 20
353.371
 11
12.2735
 21
352.34
  0
LINE
  8
0
 10
12.2735
 20
352.34
 11
13.597
 21
352
  0
LINE
  8
0
 10
13.597
 20
352
 11
22.3333
 21
352
  0
LINE
  8
0
 10
22.3333
 20
352
 11
19.3432
 21
354.99
  0
LINE
  8
0
 10
19.3432
 20
354.99
 11
-62.3139
 21
354.99
  0
LINE
  8
0
 10
-62.3139
 20
354.99
 11
-62.9369
 21
354.911
  0
LINE
  8
0
 10
-62.9369
 20
354.911
 11
-63.5451
 21
354.755
  0
LINE
  8
0
 10
-63.5451
 20
354.755
 11
-64.1289
 21
354.524
  0
LINE
  8
0
 10
-64.1289
 20
354.524
 11
-64.6791
 21
354.222
  0
LINE
  8
0
 10
-64.6791
 20
354.222
 11
-65.1871
 21
353.853
  0
LINE
  8
0
 10
-65.1871
 20
353.853
 11
-65.6448
 21
353.423
  0
LINE
  8
0
 10
-65.6448
 20
353.423
 11
-66.0451
 21
352.939
  0
LINE
  8
0
 10
-66.0451
 20
352.939
 11
-66.3815
 21
352.409
  0
LINE
  8
0
 10
-66.3815
 20
352.409
 11
-66.6489
 21
351.841
  0
LINE
  8
0
 10
-66.6489
 20
351.841
 11
-66.8429
 21
351.243
  0
LINE
  8
0
 10
-66.8429
 20
351.243
 11
-66.8905
 21
350.994
  0
LINE
  8
0
 10
-66.8905
 20
350.994
 11
-59.8116
 21
350.994
  0
LINE
  8
0
 10
-59.8116
 20
350.994
 11
-59.4379
 21
350.947
  0
LINE
  8
0
 10
-59.4379
 20
350.947
 11
-59.0729
 21
350.853
  0
LINE
  8
0
 10
-59.0729
 20
350.853
 11
-58.7227
 21
350.714
  0
LINE
  8
0
 10
-58.7227
 20
350.714
 11
-58.3925
 21
350.533
  0
LINE
  8
0
 10
-58.3925
 20
350.533
 11
-58.0877
 21
350.312
  0
LINE
  8
0
 10
-58.0877
 20
350.312
 11
-57.8131
 21
350.054
  0
LINE
  8
0
 10
-57.8131
 20
350.054
 11
-57.5729
 21
349.763
  0
LINE
  8
0
 10
-57.5729
 20
349.763
 11
-57.3711
 21
349.445
  0
LINE
  8
0
 10
-57.3711
 20
349.445
 11
-57.2107
 21
349.104
  0
LINE
  8
0
 10
-57.2107
 20
349.104
 11
-57.0942
 21
348.746
  0
LINE
  8
0
 10
-57.0942
 20
348.746
 11
-57.0237
 21
348.376
  0
LINE
  8
0
 10
-57.0237
 20
348.376
 11
-57
 21
348
  0
LINE
  8
0
 10
-57
 20
348
 11
-57.0237
 21
347.624
  0
LINE
  8
0
 10
-57.0237
 20
347.624
 11
-57.0942
 21
347.254
  0
LINE
  8
0
 10
-57.0942
 20
347.254
 11
-57.2107
 21
346.896
  0
LINE
  8
0
 10
-57.2107
 20
346.896
 11
-57.3711
 21
346.555
  0
LINE
  8
0
 10
-57.3711
 20
346.555
 11
-57.5729
 21
346.237
  0
LINE
  8
0
 10
-57.5729
 20
346.237
 11
-57.8131
 21
345.946
  0
LINE
  8
0
 10
-57.8131
 20
345.946
 11
-58.0877
 21
345.688
  0
LINE
  8
0
 10
-58.0877
 20
345.688
 11
-58.3925
 21
345.467
  0
LINE
  8
0
 10
-58.3925
 20
345.467
 11
-58.7227
 21
345.286
  0
LINE
  8
0
 10
-58.7227
 20
345.286
 11
-59.0729
 21
345.147
  0
LINE
  8
0
 10
-59.0729
 20
345.147
 11
-59.4379
 21
345.053
  0
LINE
  8
0
 10
-59.4379
 20
345.053
 11
-59.8116
 21
345.006
  0
LINE
  8
0
 10
-59.8116
 20
345.006
 11
-67
 21
345.006
  0
LINE
  8
0
 10
-67
 20
345.006
 11
-67
 21
230.994
  0
LINE
  8
0
 10
-67
 20
230.994
 11
-59.8116
 21
230.994
  0
LINE
  8
0
 10
-59.8116
 20
230.994
 11
-59.4379
 21
230.947
  0
LINE
  8
0
 10
-59.4379
 20
230.947
 11
-59.0729
 21
230.853
  0
LINE
  8
0
 10
-59.0729
 20
230.853
 11
-58.7227
 21
230.714
  0
LINE
  8
0
 10
-58.7227
 20
230.714
 11
-58.3925
 21
230.533
  0
LINE
  8
0
 10
-58.3925
 20
230.533
 11
-58.0877
 21
230.312
  0
LINE
  8
0
 10
-58.0877
 20
230.312
 11
-57.8131
 21
230.054
  0
LINE
  8
0
 10
-57.8131
 20
230.054
 11
-57.5729
 21
229.763
  0
LINE
  8
0
 10
-57.5729
 20
229.763
 11
-57.3711
 21
229.445
  0
LINE
  8
0
 10
-57.3711
 20
229.445
 11
-57.2107
 21
229.104
  0
LINE
  8
0
 10
-57.2107
 20
229.104
 11
-57.0942
 21
228.746
  0
LINE
  8
0
 10
-57.0942
 20
228.746
 11
-57.0237
 21
228.376
  0
LINE
  8
0
 10
-57.0237
 20
228.376
 11
-57
 21
228
  0
LINE
  8
0
 10
-57
 20
228
 11
-57.0237
 21
227.624
  0
LINE
  8
0
 10
-57.0237
 20
227.624
 11
-57.0942
 21
227.254
  0
LINE
  8
0
 10
-57.0942
 20
227.254
 11
-57.2107
 21
226.896
  0
LINE
  8
0
 10
-57.2107
 20
226.896
 11
-57.3711
 21
226.555
  0
LINE
  8
0
 10
-57.3711
 20
226.555
 11
-57.5729
 21
226.237
  0
LINE
  8
0
 10
-57.5729
 20
226.237
 11
-57.8131
 21
225.946
  0
LINE
  8
0
 10
-57.8131
 20
225.946
 11
-58.0877
 21
225.688
  0
LINE
  8
0
 10
-58.0877
 20
225.688
 11
-58.3925
 21
225.467
  0
LINE
  8
0
 10
-58.3925
 20
225.467
 11
-58.7227
 21
225.286
  0
LINE
  8
0
 10
-58.7227
 20
225.286
 11
-59.0729
 21
225.147
  0
LINE
  8
0
 10
-59.0729
 20
225.147
 11
-59.4379
 21
225.053
  0
LINE
  8
0
 10
-59.4379
 20
225.053
 11
-59.8116
 21
225.006
  0
LINE
  8
0
 10
-59.8116
 20
225.006
 11
-66.8905
 21
225.006
  0
LINE
  8
0
 10
-66.8905
 20
225.006
 11
-66.8429
 21
224.757
  0
LINE
  8
0
 10
-66.8429
 20
224.757
 11
-66.6489
 21
224.159
  0
LINE
  8
0
 10
-66.6489
 20
224.159
 11
-66.3815
 21
223.591
  0
LINE
  8
0
 10
-66.3815
 20
223.591
 11
-66.0451
 21
223.061
  0
LINE
  8
0
 10
-66.0451
 20
223.061
 11
-65.6448
 21
222.577
  0
LINE
  8
0
 10
-65.6448
 20
222.577
 11
-65.1871
 21
222.147
  0
LINE
  8
0
 10
-65.1871
 20
222.147
 11
-64.6791
 21
221.778
  0
LINE
  8
0
 10
-64.6791
 20
221.778
 11
-64.1289
 21
221.476
  0
LINE
  8
0
 10
-64.1289
 20
221.476
 11
-63.5451
 21
221.245
  0
LINE
  8
0
 10
-63.5451
 20
221.245
 11
-62.9369
 21
221.089
  0
LINE
  8
0
 10
-62.9369
 20
221.089
 11
-62.3139
 21
221.01
  0
LINE
  8
0
 10
-62.3139
 20
221.01
 11
62.3139
 21
221.01
  0
LINE
  8
0
 10
62.3139
 20
221.01
 11
62.9369
 21
221.089
  0
LINE
  8
0
 10
59.8116
 20
225.006
 11
59.4379
 21
225.053
  0
LINE
  8
0
 10
59.4379
 20
225.053
 11
59.0729
 21
225.147
  0
LINE
  8
0
 10
59.0729
 20
225.147
 11
58.7227
 21
225.286
  0
LINE
  8
0
 10
58.7227
 20
225.286
 11
58.3925
 21
225.467
  0
LINE
  8
0
 10
58.3925
 20
225.467
 11
58.0877
 21
225.688
  0
LINE
  8
0
 10
58.0877
 20
225.688
 11
57.8131
 21
225.946
  0
LINE
  8
0
 10
57.8131
 20
225.946
 11
57.5729
 21
226.237
  0
LINE
  8
0
 10
57.5729
 20
226.237
 11
57.3711
 21
226.555
  0
LINE
  8
0
 10
57.3711
 20
226.555
 11
57.2107
 21
226.896
  0
LINE
  8
0
 10
57.2107
 20
226.896
 11
57.0942
 21
227.254
  0
LINE
  8
0
 10
57.0942
 20
227.254
 11
57.0237
 21
227.624
  0
LINE
  8
0
 10
57.0237
 20
227.624
 11
57
 21
228
  0
LINE
  8
0
 10
57
 20
228
 11
57.0237
 21
228.376
  0
LINE
  8
0
 10
57.0237
 20
228.376
 11
57.0942
 21
228.746
  0
LINE
  8
0
 10
57.0942
 20
228.746
 11
57.2107
 21
229.104
  0
LINE
  8
0
 10
57.2107
 20
229.104
 11
57.3711
 21
229.445
  0
LINE
  8
0
 10
57.3711
 20
229.445
 11
57.5729
 21
229.763
  0
LINE
  8
0
 10
57.5729
 20
229.763
 11
57.8131
 21
230.054
  0
LINE
  8
0
 10
57.8131
 20
230.054
 11
58.0877
 21
230.312
  0
LINE
  8
0
 10
58.0877
 20
230.312
 11
58.3925
 21
230.533
  0
LINE
  8
0
 10
58.3925
 20
230.533
 11
58.7227
 21
230.714
  0
LINE
  8
0
 10
58.7227
 20
230.714
 11
59.0729
 21
230.853
  0
LINE
  8
0
 10
59.0729
 20
230.853
 11
59.4379
 21
230.947
  0
LINE
  8
0
 10
59.4379
 20
230.947
 11
59.8116
 21
230.994
  0
LINE
  8
0
 10
59.8116
 20
230.994
 11
60.1884
 21
230.994
  0
LINE
  8
0
 10
60.1884
 20
230.994
 11
60.5621
 21
230.947
  0
LINE
  8
0
 10
60.5621
 20
230.947
 11
60.927
 21
230.853
  0
LINE
  8
0
 10
60.927
 20
230.853
 11
61.2773
 21
230.714
  0
LINE
  8
0
 10
61.2773
 20
230.714
 11
61.6075
 21
230.533
  0
LINE
  8
0
 10
61.6075
 20
230.533
 11
61.9123
 21
230.312
  0
LINE
  8
0
 10
61.9123
 20
230.312
 11
62.1869
 21
230.054
  0
LINE
  8
0
 10
62.1869
 20
230.054
 11
62.427
 21
229.763
  0
LINE
  8
0
 10
62.427
 20
229.763
 11
62.6289
 21
229.445
  0
LINE
  8
0
 10
62.6289
 20
229.445
 11
62.7893
 21
229.104
  0
LINE
  8
0
 10
62.7893
 20
229.104
 11
62.9057
 21
228.746
  0
LINE
  8
0
 10
62.9057
 20
228.746
 11
62.9763
 21
228.376
  0
LINE
  8
0
 10
62.9763
 20
228.376
 11
63
 21
228
  0
LINE
  8
0
 10
63
 20
228
 11
62.9763
 21
227.624
  0
LINE
  8
0
 10
62.9763
 20
227.624
 11
62.9057
 21
227.254
  0
LINE
  8
0
 10
62.9057
 20
227.254
 11
62.7893
 21
226.896
  0
LINE
  8
0
 10
62.7893
 20
226.896
 11
62.6289
 21
226.555
  0
LINE
  8
0
 10
62.6289
 20
226.555
 11
62.427
 21
226.237
  0
LINE
  8
0
 10
62.427
 20
226.237
 11
62.1869
 21
225.946
  0
LINE
  8
0
 10
62.1869
 20
225.946
 11
61.9123
 21
225.688
  0
LINE
  8
0
 10
61.9123
 20
225.688
 11
61.6075
 21
225.467
  0
LINE
  8
0
 10
61.6075
 20
225.467
 11
61.2773
 21
225.286
  0
LINE
  8
0
 10
61.2773
 20
225.286
 11
60.927
 21
225.147
  0
LINE
  8
0
 10
60.927
 20
225.147
 11
60.5621
 21
225.053
  0
LINE
  8
0
 10
60.5621
 20
225.053
 11
60.1884
 21
225.006
  0
LINE
  8
0
 10
60.1884
 20
225.006
 11
59.8116
 21
225.006
  0
ENDSEC
  0
SECTION
  2
OBJECTS
  0
DICTIONARY
  0
ENDSEC
  0
EOF
