<?xml version="1.0" standalone="no"?>
<!DOCTYPE svg PUBLIC "-//W3C//DTD SVG 1.1//EN" "http://www.w3.org/Graphics/SVG/1.1/DTD/svg11.dtd">
<svg width="47mm" height="69mm" viewBox="-24 -93 47 69" xmlns="http://www.w3.org/2000/svg" version="1.1">
<title>OpenSCAD Model</title>
<path d="
M 18.4369,-63.0886 L 19.0451,-63.2447 L 19.6289,-63.4759 L 20.1791,-63.7784 L 20.6871,-64.1474 L 21.1448,-64.5773
 L 21.5451,-65.0611 L 21.8815,-65.5912 L 22.1489,-66.1594 L 22.3429,-66.7566 L 22.4606,-67.3733 L 22.5,-68
 L 22.5,-88 L 22.4606,-88.6267 L 22.3429,-89.2434 L 22.1489,-89.8406 L 21.8815,-90.4088 L 21.5451,-90.9389
 L 21.1448,-91.4227 L 20.6871,-91.8526 L 20.1791,-92.2216 L 19.6289,-92.5241 L 19.0451,-92.7553 L 18.4369,-92.9114
 L 17.8139,-92.9901 L -17.8139,-92.9901 L -18.4369,-92.9114 L -19.0451,-92.7553 L -19.6289,-92.5241 L -20.1791,-92.2216
 L -20.6871,-91.8526 L -21,-91.5587 L -21,-92.6148 L -24,-92.6148 L -24,-63.3852 L -21,-63.3852
 L -21,-64.4413 L -20.6871,-64.1474 L -20.1791,-63.7784 L -19.6289,-63.4759 L -19.0451,-63.2447 L -18.4369,-63.0886
 L -17.8139,-63.0099 L 17.8139,-63.0099 z
M 18.4369,-24.0886 L 19.0451,-24.2447 L 19.6289,-24.4759 L 20.1791,-24.7784 L 20.6871,-25.1474 L 21.1448,-25.5773
 L 21.5451,-26.0611 L 21.8815,-26.5912 L 22.1489,-27.1594 L 22.3429,-27.7566 L 22.4606,-28.3733 L 22.5,-29
 L 22.5,-49 L 22.4606,-49.6267 L 22.3429,-50.2434 L 22.1489,-50.8406 L 21.8815,-51.4088 L 21.5451,-51.9389
 L 21.1448,-52.4227 L 20.6871,-52.8526 L 20.1791,-53.2216 L 19.6289,-53.5241 L 19.0451,-53.7553 L 18.4369,-53.9114
 L 17.8139,-53.9901 L -17.8139,-53.9901 L -18.4369,-53.9114 L -19.0451,-53.7553 L -19.6289,-53.5241 L -20.1791,-53.2216
 L -20.6871,-52.8526 L -21.1448,-52.4227 L -21.5451,-51.9389 L -21.8815,-51.4088 L -22.1489,-50.8406 L -22.3429,-50.2434
 L -22.4,-49.9442 L -24,-49.9442 L -24,-28.0558 L -22.4,-28.0558 L -22.3429,-27.7566 L -22.1489,-27.1594
 L -21.8815,-26.5912 L -21.5451,-26.0611 L -21.1448,-25.5773 L -20.6871,-25.1474 L -20.1791,-24.7784 L -19.6289,-24.4759
 L -19.0451,-24.2447 L -18.4369,-24.0886 L -17.8139,-24.0099 L 17.8139,-24.0099 z
M -15.113,-44.7036 L -15.3373,-44.7319 L -15.5562,-44.7881 L -15.7664,-44.8713 L -15.9645,-44.9802 L -16.1474,-45.1131
 L -16.3121,-45.2678 L -16.4562,-45.442 L -16.5773,-45.6328 L -16.6736,-45.8374 L -16.7434,-46.0524 L -16.7858,-46.2744
 L -16.8,-46.5 L -16.7858,-46.7256 L -16.7434,-46.9476 L -16.6736,-47.1626 L -16.5773,-47.3671 L -16.4562,-47.558
 L -16.3121,-47.7322 L -16.1474,-47.8869 L -15.9645,-48.0198 L -15.7664,-48.1287 L -15.5562,-48.2119 L -15.3373,-48.2681
 L -15.113,-48.2964 L -14.887,-48.2964 L -14.6627,-48.2681 L -14.4438,-48.2119 L -14.2336,-48.1287 L -14.0355,-48.0198
 L -13.8526,-47.8869 L -13.6879,-47.7322 L -13.5438,-47.558 L -13.4226,-47.3671 L -13.3264,-47.1626 L -13.2565,-46.9476
 L -13.2142,-46.7256 L -13.2,-46.5 L -13.2142,-46.2744 L -13.2565,-46.0524 L -13.3264,-45.8374 L -13.4226,-45.6328
 L -13.5438,-45.442 L -13.6879,-45.2678 L -13.8526,-45.1131 L -14.0355,-44.9802 L -14.2336,-44.8713 L -14.4438,-44.7881
 L -14.6627,-44.7319 L -14.887,-44.7036 z
M 14.887,-44.7036 L 14.6627,-44.7319 L 14.4438,-44.7881 L 14.2336,-44.8713 L 14.0355,-44.9802 L 13.8526,-45.1131
 L 13.6879,-45.2678 L 13.5438,-45.442 L 13.4226,-45.6328 L 13.3264,-45.8374 L 13.2565,-46.0524 L 13.2142,-46.2744
 L 13.2,-46.5 L 13.2142,-46.7256 L 13.2565,-46.9476 L 13.3264,-47.1626 L 13.4226,-47.3671 L 13.5438,-47.558
 L 13.6879,-47.7322 L 13.8526,-47.8869 L 14.0355,-48.0198 L 14.2336,-48.1287 L 14.4438,-48.2119 L 14.6627,-48.2681
 L 14.887,-48.2964 L 15.113,-48.2964 L 15.3373,-48.2681 L 15.5562,-48.2119 L 15.7664,-48.1287 L 15.9645,-48.0198
 L 16.1474,-47.8869 L 16.3121,-47.7322 L 16.4562,-47.558 L 16.5773,-47.3671 L 16.6736,-47.1626 L 16.7434,-46.9476
 L 16.7858,-46.7256 L 16.8,-46.5 L 16.7858,-46.2744 L 16.7434,-46.0524 L 16.6736,-45.8374 L 16.5773,-45.6328
 L 16.4562,-45.442 L 16.3121,-45.2678 L 16.1474,-45.1131 L 15.9645,-44.9802 L 15.7664,-44.8713 L 15.5562,-44.7881
 L 15.3373,-44.7319 L 15.113,-44.7036 z
M 14.887,-29.7036 L 14.6627,-29.7319 L 14.4438,-29.7881 L 14.2336,-29.8713 L 14.0355,-29.9802 L 13.8526,-30.1131
 L 13.6879,-30.2678 L 13.5438,-30.442 L 13.4226,-30.6329 L 13.3264,-30.8374 L 13.2565,-31.0524 L 13.2142,-31.2744
 L 13.2,-31.5 L 13.2142,-31.7256 L 13.2565,-31.9476 L 13.3264,-32.1626 L 13.4226,-32.3672 L 13.5438,-32.558
 L 13.6879,-32.7322 L 13.8526,-32.8869 L 14.0355,-33.0198 L 14.2336,-33.1287 L 14.4438,-33.2119 L 14.6627,-33.2681
 L 14.887,-33.2964 L 15.113,-33.2964 L 15.3373,-33.2681 L 15.5562,-33.2119 L 15.7664,-33.1287 L 15.9645,-33.0198
 L 16.1474,-32.8869 L 16.3121,-32.7322 L 16.4562,-32.558 L 16.5773,-32.3672 L 16.6736,-32.1626 L 16.7434,-31.9476
 L 16.7858,-31.7256 L 16.8,-31.5 L 16.7858,-31.2744 L 16.7434,-31.0524 L 16.6736,-30.8374 L 16.5773,-30.6329
 L 16.4562,-30.442 L 16.3121,-30.2678 L 16.1474,-30.1131 L 15.9645,-29.9802 L 15.7664,-29.8713 L 15.5562,-29.7881
 L 15.3373,-29.7319 L 15.113,-29.7036 z
M -15.113,-29.7036 L -15.3373,-29.7319 L -15.5562,-29.7881 L -15.7664,-29.8713 L -15.9645,-29.9802 L -16.1474,-30.1131
 L -16.3121,-30.2678 L -16.4562,-30.442 L -16.5773,-30.6329 L -16.6736,-30.8374 L -16.7434,-31.0524 L -16.7858,-31.2744
 L -16.8,-31.5 L -16.7858,-31.7256 L -16.7434,-31.9476 L -16.6736,-32.1626 L -16.5773,-32.3672 L -16.4562,-32.558
 L -16.3121,-32.7322 L -16.1474,-32.8869 L -15.9645,-33.0198 L -15.7664,-33.1287 L -15.5562,-33.2119 L -15.3373,-33.2681
 L -15.113,-33.2964 L -14.887,-33.2964 L -14.6627,-33.2681 L -14.4438,-33.2119 L -14.2336,-33.1287 L -14.0355,-33.0198
 L -13.8526,-32.8869 L -13.6879,-32.7322 L -13.5438,-32.558 L -13.4226,-32.3672 L -13.3264,-32.1626 L -13.2565,-31.9476
 L -13.2142,-31.7256 L -13.2,-31.5 L -13.2142,-31.2744 L -13.2565,-31.0524 L -13.3264,-30.8374 L -13.4226,-30.6329
 L -13.5438,-30.442 L -13.6879,-30.2678 L -13.8526,-30.1131 L -14.0355,-29.9802 L -14.2336,-29.8713 L -14.4438,-29.7881
 L -14.6627,-29.7319 L -14.887,-29.7036 z
" stroke="black" fill="lightgray" stroke-width="0.5"/>
</svg>
