<?xml version="1.0" standalone="no"?>
<!DOCTYPE svg PUBLIC "-//W3C//DTD SVG 1.1//EN" "http://www.w3.org/Graphics/SVG/1.1/DTD/svg11.dtd">
<svg width="46mm" height="558mm" viewBox="-23 -846 46 558" xmlns="http://www.w3.org/2000/svg" version="1.1">
<title>OpenSCAD Model</title>
<path d="
M 18.4369,-666.089 L 19.0451,-666.245 L 19.6289,-666.476 L 20.1791,-666.778 L 20.6871,-667.147 L 21.1448,-667.577
 L 21.5451,-668.061 L 21.8815,-668.591 L 22.1489,-669.159 L 22.3429,-669.757 L 22.4606,-670.373 L 22.5,-671
 L 22.5,-841 L 22.4606,-841.627 L 22.3429,-842.243 L 22.1489,-842.841 L 21.8815,-843.409 L 21.5451,-843.939
 L 21.1448,-844.423 L 20.6871,-844.853 L 20.1791,-845.222 L 19.6289,-845.524 L 19.0451,-845.755 L 18.4369,-845.911
 L 17.8139,-845.99 L -17.8139,-845.99 L -18.4369,-845.911 L -19.0451,-845.755 L -19.6289,-845.524 L -20.1791,-845.222
 L -20.6871,-844.853 L -21.1448,-844.423 L -21.5451,-843.939 L -21.8815,-843.409 L -22.1489,-842.841 L -22.3429,-842.243
 L -22.4606,-841.627 L -22.5,-841 L -22.5,-671 L -22.4606,-670.373 L -22.3429,-669.757 L -22.1489,-669.159
 L -21.8815,-668.591 L -21.5451,-668.061 L -21.1448,-667.577 L -20.6871,-667.147 L -20.1791,-666.778 L -19.6289,-666.476
 L -19.0451,-666.245 L -18.4369,-666.089 L -17.8139,-666.01 L 17.8139,-666.01 z
M -17.2432,-667.635 L -17.7256,-667.696 L -18.1967,-667.817 L -18.6489,-667.996 L -19.0751,-668.23 L -19.4685,-668.516
 L -19.823,-668.849 L -20.133,-669.224 L -20.3936,-669.634 L -20.6007,-670.074 L -20.751,-670.537 L -20.8421,-671.015
 L -20.8726,-671.5 L -20.8726,-840.5 L -20.8421,-840.985 L -20.751,-841.463 L -20.6007,-841.926 L -20.3936,-842.366
 L -20.133,-842.776 L -19.823,-843.151 L -19.4685,-843.484 L -19.0751,-843.77 L -18.6489,-844.004 L -18.1967,-844.183
 L -17.7256,-844.304 L -17.2432,-844.365 L 17.2432,-844.365 L 17.7256,-844.304 L 18.1967,-844.183 L 18.6489,-844.004
 L 19.0751,-843.77 L 19.4685,-843.484 L 19.823,-843.151 L 20.133,-842.776 L 20.3936,-842.366 L 20.6007,-841.926
 L 20.751,-841.463 L 20.8421,-840.985 L 20.8726,-840.5 L 20.8726,-671.5 L 20.8421,-671.015 L 20.751,-670.537
 L 20.6007,-670.074 L 20.3936,-669.634 L 20.133,-669.224 L 19.823,-668.849 L 19.4685,-668.516 L 19.0751,-668.23
 L 18.6489,-667.996 L 18.1967,-667.817 L 17.7256,-667.696 L 17.2432,-667.635 z
M 18.4369,-477.089 L 19.0451,-477.245 L 19.6289,-477.476 L 20.1791,-477.778 L 20.6871,-478.147 L 21.1448,-478.577
 L 21.5451,-479.061 L 21.8815,-479.591 L 22.1489,-480.159 L 22.3429,-480.757 L 22.4606,-481.373 L 22.5,-482
 L 22.5,-652 L 22.4606,-652.627 L 22.3429,-653.243 L 22.1489,-653.841 L 21.8815,-654.409 L 21.5451,-654.939
 L 21.1448,-655.423 L 20.6871,-655.853 L 20.1791,-656.222 L 19.6289,-656.524 L 19.0451,-656.755 L 18.4369,-656.911
 L 17.8139,-656.99 L -17.8139,-656.99 L -18.4369,-656.911 L -19.0451,-656.755 L -19.6289,-656.524 L -20.1791,-656.222
 L -20.6871,-655.853 L -21.1448,-655.423 L -21.5451,-654.939 L -21.8815,-654.409 L -22.1489,-653.841 L -22.3429,-653.243
 L -22.4606,-652.627 L -22.5,-652 L -22.5,-482 L -22.4606,-481.373 L -22.3429,-480.757 L -22.1489,-480.159
 L -21.8815,-479.591 L -21.5451,-479.061 L -21.1448,-478.577 L -20.6871,-478.147 L -20.1791,-477.778 L -19.6289,-477.476
 L -19.0451,-477.245 L -18.4369,-477.089 L -17.8139,-477.01 L 17.8139,-477.01 z
M 18.4369,-288.089 L 19.0451,-288.245 L 19.6289,-288.476 L 20.1791,-288.778 L 20.6871,-289.147 L 21.1448,-289.577
 L 21.5451,-290.061 L 21.8815,-290.591 L 22.1489,-291.159 L 22.3429,-291.757 L 22.4606,-292.373 L 22.5,-293
 L 22.5,-463 L 22.4606,-463.627 L 22.3429,-464.243 L 22.1489,-464.841 L 21.8815,-465.409 L 21.5451,-465.939
 L 21.1448,-466.423 L 20.6871,-466.853 L 20.1791,-467.222 L 19.6289,-467.524 L 19.0451,-467.755 L 18.4369,-467.911
 L 17.8139,-467.99 L -17.8139,-467.99 L -18.4369,-467.911 L -19.0451,-467.755 L -19.6289,-467.524 L -20.1791,-467.222
 L -20.6871,-466.853 L -21.1448,-466.423 L -21.5451,-465.939 L -21.8815,-465.409 L -22.1489,-464.841 L -22.3429,-464.243
 L -22.4606,-463.627 L -22.5,-463 L -22.5,-293 L -22.4606,-292.373 L -22.3429,-291.757 L -22.1489,-291.159
 L -21.8815,-290.591 L -21.5451,-290.061 L -21.1448,-289.577 L -20.6871,-289.147 L -20.1791,-288.778 L -19.6289,-288.476
 L -19.0451,-288.245 L -18.4369,-288.089 L -17.8139,-288.01 L 17.8139,-288.01 z
M -15.113,-458.704 L -15.3373,-458.732 L -15.5562,-458.788 L -15.7664,-458.871 L -15.9645,-458.98 L -16.1474,-459.113
 L -16.3121,-459.268 L -16.4562,-459.442 L -16.5773,-459.633 L -16.6736,-459.837 L -16.7434,-460.052 L -16.7858,-460.274
 L -16.8,-460.5 L -16.7858,-460.726 L -16.7434,-460.948 L -16.6736,-461.163 L -16.5773,-461.367 L -16.4562,-461.558
 L -16.3121,-461.732 L -16.1474,-461.887 L -15.9645,-462.02 L -15.7664,-462.129 L -15.5562,-462.212 L -15.3373,-462.268
 L -15.113,-462.296 L -14.887,-462.296 L -14.6627,-462.268 L -14.4438,-462.212 L -14.2336,-462.129 L -14.0355,-462.02
 L -13.8526,-461.887 L -13.6879,-461.732 L -13.5438,-461.558 L -13.4226,-461.367 L -13.3264,-461.163 L -13.2565,-460.948
 L -13.2142,-460.726 L -13.2,-460.5 L -13.2142,-460.274 L -13.2565,-460.052 L -13.3264,-459.837 L -13.4226,-459.633
 L -13.5438,-459.442 L -13.6879,-459.268 L -13.8526,-459.113 L -14.0355,-458.98 L -14.2336,-458.871 L -14.4438,-458.788
 L -14.6627,-458.732 L -14.887,-458.704 z
M 14.887,-458.704 L 14.6627,-458.732 L 14.4438,-458.788 L 14.2336,-458.871 L 14.0355,-458.98 L 13.8526,-459.113
 L 13.6879,-459.268 L 13.5438,-459.442 L 13.4226,-459.633 L 13.3264,-459.837 L 13.2565,-460.052 L 13.2142,-460.274
 L 13.2,-460.5 L 13.2142,-460.726 L 13.2565,-460.948 L 13.3264,-461.163 L 13.4226,-461.367 L 13.5438,-461.558
 L 13.6879,-461.732 L 13.8526,-461.887 L 14.0355,-462.02 L 14.2336,-462.129 L 14.4438,-462.212 L 14.6627,-462.268
 L 14.887,-462.296 L 15.113,-462.296 L 15.3373,-462.268 L 15.5562,-462.212 L 15.7664,-462.129 L 15.9645,-462.02
 L 16.1474,-461.887 L 16.3121,-461.732 L 16.4562,-461.558 L 16.5773,-461.367 L 16.6736,-461.163 L 16.7434,-460.948
 L 16.7858,-460.726 L 16.8,-460.5 L 16.7858,-460.274 L 16.7434,-460.052 L 16.6736,-459.837 L 16.5773,-459.633
 L 16.4562,-459.442 L 16.3121,-459.268 L 16.1474,-459.113 L 15.9645,-458.98 L 15.7664,-458.871 L 15.5562,-458.788
 L 15.3373,-458.732 L 15.113,-458.704 z
M -15.113,-293.704 L -15.3373,-293.732 L -15.5562,-293.788 L -15.7664,-293.871 L -15.9645,-293.98 L -16.1474,-294.113
 L -16.3121,-294.268 L -16.4562,-294.442 L -16.5773,-294.633 L -16.6736,-294.837 L -16.7434,-295.052 L -16.7858,-295.274
 L -16.8,-295.5 L -16.7858,-295.726 L -16.7434,-295.948 L -16.6736,-296.163 L -16.5773,-296.367 L -16.4562,-296.558
 L -16.3121,-296.732 L -16.1474,-296.887 L -15.9645,-297.02 L -15.7664,-297.129 L -15.5562,-297.212 L -15.3373,-297.268
 L -15.113,-297.296 L -14.887,-297.296 L -14.6627,-297.268 L -14.4438,-297.212 L -14.2336,-297.129 L -14.0355,-297.02
 L -13.8526,-296.887 L -13.6879,-296.732 L -13.5438,-296.558 L -13.4226,-296.367 L -13.3264,-296.163 L -13.2565,-295.948
 L -13.2142,-295.726 L -13.2,-295.5 L -13.2142,-295.274 L -13.2565,-295.052 L -13.3264,-294.837 L -13.4226,-294.633
 L -13.5438,-294.442 L -13.6879,-294.268 L -13.8526,-294.113 L -14.0355,-293.98 L -14.2336,-293.871 L -14.4438,-293.788
 L -14.6627,-293.732 L -14.887,-293.704 z
M 14.887,-293.704 L 14.6627,-293.732 L 14.4438,-293.788 L 14.2336,-293.871 L 14.0355,-293.98 L 13.8526,-294.113
 L 13.6879,-294.268 L 13.5438,-294.442 L 13.4226,-294.633 L 13.3264,-294.837 L 13.2565,-295.052 L 13.2142,-295.274
 L 13.2,-295.5 L 13.2142,-295.726 L 13.2565,-295.948 L 13.3264,-296.163 L 13.4226,-296.367 L 13.5438,-296.558
 L 13.6879,-296.732 L 13.8526,-296.887 L 14.0355,-297.02 L 14.2336,-297.129 L 14.4438,-297.212 L 14.6627,-297.268
 L 14.887,-297.296 L 15.113,-297.296 L 15.3373,-297.268 L 15.5562,-297.212 L 15.7664,-297.129 L 15.9645,-297.02
 L 16.1474,-296.887 L 16.3121,-296.732 L 16.4562,-296.558 L 16.5773,-296.367 L 16.6736,-296.163 L 16.7434,-295.948
 L 16.7858,-295.726 L 16.8,-295.5 L 16.7858,-295.274 L 16.7434,-295.052 L 16.6736,-294.837 L 16.5773,-294.633
 L 16.4562,-294.442 L 16.3121,-294.268 L 16.1474,-294.113 L 15.9645,-293.98 L 15.7664,-293.871 L 15.5562,-293.788
 L 15.3373,-293.732 L 15.113,-293.704 z
" stroke="black" fill="lightgray" stroke-width="0.5"/>
</svg>
