<?xml version="1.0" standalone="no"?>
<!DOCTYPE svg PUBLIC "-//W3C//DTD SVG 1.1//EN" "http://www.w3.org/Graphics/SVG/1.1/DTD/svg11.dtd">
<svg width="106mm" height="198mm" viewBox="-53 -306 106 198" xmlns="http://www.w3.org/2000/svg" version="1.1">
<title>OpenSCAD Model</title>
<path d="
M 48.4369,-246.089 L 49.0451,-246.245 L 49.6289,-246.476 L 50.1791,-246.778 L 50.6871,-247.147 L 51.1448,-247.577
 L 51.5451,-248.061 L 51.8815,-248.591 L 52.1489,-249.159 L 52.3429,-249.757 L 52.4606,-250.373 L 52.5,-251
 L 52.5,-301 L 52.4606,-301.627 L 52.3429,-302.243 L 52.1489,-302.841 L 51.8815,-303.409 L 51.5451,-303.939
 L 51.1448,-304.423 L 50.6871,-304.853 L 50.1791,-305.222 L 49.6289,-305.524 L 49.0451,-305.755 L 48.4369,-305.911
 L 47.8139,-305.99 L -47.8139,-305.99 L -48.4369,-305.911 L -49.0451,-305.755 L -49.6289,-305.524 L -50.1791,-305.222
 L -50.6871,-304.853 L -51.1448,-304.423 L -51.5451,-303.939 L -51.8815,-303.409 L -52.1489,-302.841 L -52.3429,-302.243
 L -52.4606,-301.627 L -52.5,-301 L -52.5,-251 L -52.4606,-250.373 L -52.3429,-249.757 L -52.1489,-249.159
 L -51.8815,-248.591 L -51.5451,-248.061 L -51.1448,-247.577 L -50.6871,-247.147 L -50.1791,-246.778 L -49.6289,-246.476
 L -49.0451,-246.245 L -48.4369,-246.089 L -47.8139,-246.01 L 47.8139,-246.01 z
M -47.5482,-246.509 L -48.1401,-246.584 L -48.7178,-246.732 L -49.2724,-246.952 L -49.7952,-247.239 L -50.2778,-247.59
 L -50.7126,-247.998 L -51.0928,-248.458 L -51.4124,-248.962 L -51.6664,-249.501 L -51.8508,-250.069 L -51.9625,-250.655
 L -52,-251.25 L -52,-300.75 L -51.9625,-301.345 L -51.8508,-301.931 L -51.6664,-302.499 L -51.4124,-303.038
 L -51.0928,-303.542 L -50.7126,-304.002 L -50.2778,-304.41 L -49.7952,-304.761 L -49.2724,-305.048 L -48.7178,-305.268
 L -48.1401,-305.416 L -47.5482,-305.491 L 47.5482,-305.491 L 48.1401,-305.416 L 48.7178,-305.268 L 49.2724,-305.048
 L 49.7952,-304.761 L 50.2778,-304.41 L 50.7126,-304.002 L 51.0928,-303.542 L 51.4124,-303.038 L 51.6664,-302.499
 L 51.8508,-301.931 L 51.9625,-301.345 L 52,-300.75 L 52,-251.25 L 51.9625,-250.655 L 51.8508,-250.069
 L 51.6664,-249.501 L 51.4124,-248.962 L 51.0928,-248.458 L 50.7126,-247.998 L 50.2778,-247.59 L 49.7952,-247.239
 L 49.2724,-246.952 L 48.7178,-246.732 L 48.1401,-246.584 L 47.5482,-246.509 z
M 48.4369,-177.089 L 49.0451,-177.245 L 49.6289,-177.476 L 50.1791,-177.778 L 50.6871,-178.147 L 51.1448,-178.577
 L 51.5451,-179.061 L 51.8815,-179.591 L 52.1489,-180.159 L 52.3429,-180.757 L 52.4606,-181.373 L 52.5,-182
 L 52.5,-232 L 52.4606,-232.627 L 52.3429,-233.243 L 52.1489,-233.841 L 51.8815,-234.409 L 51.5451,-234.939
 L 51.1448,-235.423 L 50.6871,-235.853 L 50.1791,-236.222 L 49.6289,-236.524 L 49.0451,-236.755 L 48.4369,-236.911
 L 47.8139,-236.99 L -47.8139,-236.99 L -48.4369,-236.911 L -49.0451,-236.755 L -49.6289,-236.524 L -50.1791,-236.222
 L -50.6871,-235.853 L -51.1448,-235.423 L -51.5451,-234.939 L -51.8815,-234.409 L -52.1489,-233.841 L -52.3429,-233.243
 L -52.4606,-232.627 L -52.5,-232 L -52.5,-182 L -52.4606,-181.373 L -52.3429,-180.757 L -52.1489,-180.159
 L -51.8815,-179.591 L -51.5451,-179.061 L -51.1448,-178.577 L -50.6871,-178.147 L -50.1791,-177.778 L -49.6289,-177.476
 L -49.0451,-177.245 L -48.4369,-177.089 L -47.8139,-177.01 L 47.8139,-177.01 z
M -47.493,-178.388 L -47.9751,-178.449 L -48.4457,-178.57 L -48.8975,-178.749 L -49.3234,-178.983 L -49.7165,-179.269
 L -50.0707,-179.601 L -50.3805,-179.976 L -50.6408,-180.386 L -50.8477,-180.826 L -50.9979,-181.288 L -51.089,-181.765
 L -51.1195,-182.25 L -51.1195,-231.75 L -51.089,-232.235 L -50.9979,-232.712 L -50.8477,-233.174 L -50.6408,-233.614
 L -50.3805,-234.024 L -50.0707,-234.399 L -49.7165,-234.731 L -49.3234,-235.017 L -48.8975,-235.251 L -48.4457,-235.43
 L -47.9751,-235.551 L -47.493,-235.612 L 47.493,-235.612 L 47.9751,-235.551 L 48.4457,-235.43 L 48.8975,-235.251
 L 49.3234,-235.017 L 49.7165,-234.731 L 50.0707,-234.399 L 50.3805,-234.024 L 50.6408,-233.614 L 50.8477,-233.174
 L 50.9979,-232.712 L 51.089,-232.235 L 51.1195,-231.75 L 51.1195,-182.25 L 51.089,-181.765 L 50.9979,-181.288
 L 50.8477,-180.826 L 50.6408,-180.386 L 50.3805,-179.976 L 50.0707,-179.601 L 49.7165,-179.269 L 49.3234,-178.983
 L 48.8975,-178.749 L 48.4457,-178.57 L 47.9751,-178.449 L 47.493,-178.388 z
M 48.4369,-108.089 L 49.0451,-108.245 L 49.6289,-108.476 L 50.1791,-108.778 L 50.6871,-109.147 L 51.1448,-109.577
 L 51.5451,-110.061 L 51.8815,-110.591 L 52.1489,-111.159 L 52.3429,-111.757 L 52.4606,-112.373 L 52.5,-113
 L 52.5,-163 L 52.4606,-163.627 L 52.3429,-164.243 L 52.1489,-164.841 L 51.8815,-165.409 L 51.5451,-165.939
 L 51.1448,-166.423 L 50.6871,-166.853 L 50.1791,-167.222 L 49.6289,-167.524 L 49.0451,-167.755 L 48.4369,-167.911
 L 47.8139,-167.99 L -47.8139,-167.99 L -48.4369,-167.911 L -49.0451,-167.755 L -49.6289,-167.524 L -50.1791,-167.222
 L -50.6871,-166.853 L -51.1448,-166.423 L -51.5451,-165.939 L -51.8815,-165.409 L -52.1489,-164.841 L -52.3429,-164.243
 L -52.4606,-163.627 L -52.5,-163 L -52.5,-113 L -52.4606,-112.373 L -52.3429,-111.757 L -52.1489,-111.159
 L -51.8815,-110.591 L -51.5451,-110.061 L -51.1448,-109.577 L -50.6871,-109.147 L -50.1791,-108.778 L -49.6289,-108.476
 L -49.0451,-108.245 L -48.4369,-108.089 L -47.8139,-108.01 L 47.8139,-108.01 z
M 44.887,-158.704 L 44.6627,-158.732 L 44.4438,-158.788 L 44.2336,-158.871 L 44.0355,-158.98 L 43.8526,-159.113
 L 43.6879,-159.268 L 43.5438,-159.442 L 43.4226,-159.633 L 43.3264,-159.837 L 43.2565,-160.052 L 43.2142,-160.274
 L 43.2,-160.5 L 43.2142,-160.726 L 43.2565,-160.948 L 43.3264,-161.163 L 43.4226,-161.367 L 43.5438,-161.558
 L 43.6879,-161.732 L 43.8526,-161.887 L 44.0355,-162.02 L 44.2336,-162.129 L 44.4438,-162.212 L 44.6627,-162.268
 L 44.887,-162.296 L 45.113,-162.296 L 45.3373,-162.268 L 45.5562,-162.212 L 45.7664,-162.129 L 45.9645,-162.02
 L 46.1474,-161.887 L 46.3121,-161.732 L 46.4562,-161.558 L 46.5773,-161.367 L 46.6736,-161.163 L 46.7434,-160.948
 L 46.7858,-160.726 L 46.8,-160.5 L 46.7858,-160.274 L 46.7434,-160.052 L 46.6736,-159.837 L 46.5773,-159.633
 L 46.4562,-159.442 L 46.3121,-159.268 L 46.1474,-159.113 L 45.9645,-158.98 L 45.7664,-158.871 L 45.5562,-158.788
 L 45.3373,-158.732 L 45.113,-158.704 z
M -45.113,-158.704 L -45.3373,-158.732 L -45.5562,-158.788 L -45.7664,-158.871 L -45.9645,-158.98 L -46.1474,-159.113
 L -46.3121,-159.268 L -46.4562,-159.442 L -46.5773,-159.633 L -46.6736,-159.837 L -46.7434,-160.052 L -46.7858,-160.274
 L -46.8,-160.5 L -46.7858,-160.726 L -46.7434,-160.948 L -46.6736,-161.163 L -46.5773,-161.367 L -46.4562,-161.558
 L -46.3121,-161.732 L -46.1474,-161.887 L -45.9645,-162.02 L -45.7664,-162.129 L -45.5562,-162.212 L -45.3373,-162.268
 L -45.113,-162.296 L -44.887,-162.296 L -44.6627,-162.268 L -44.4438,-162.212 L -44.2336,-162.129 L -44.0355,-162.02
 L -43.8526,-161.887 L -43.6879,-161.732 L -43.5438,-161.558 L -43.4226,-161.367 L -43.3264,-161.163 L -43.2565,-160.948
 L -43.2142,-160.726 L -43.2,-160.5 L -43.2142,-160.274 L -43.2565,-160.052 L -43.3264,-159.837 L -43.4226,-159.633
 L -43.5438,-159.442 L -43.6879,-159.268 L -43.8526,-159.113 L -44.0355,-158.98 L -44.2336,-158.871 L -44.4438,-158.788
 L -44.6627,-158.732 L -44.887,-158.704 z
M -45.113,-113.704 L -45.3373,-113.732 L -45.5562,-113.788 L -45.7664,-113.871 L -45.9645,-113.98 L -46.1474,-114.113
 L -46.3121,-114.268 L -46.4562,-114.442 L -46.5773,-114.633 L -46.6736,-114.837 L -46.7434,-115.052 L -46.7858,-115.274
 L -46.8,-115.5 L -46.7858,-115.726 L -46.7434,-115.948 L -46.6736,-116.163 L -46.5773,-116.367 L -46.4562,-116.558
 L -46.3121,-116.732 L -46.1474,-116.887 L -45.9645,-117.02 L -45.7664,-117.129 L -45.5562,-117.212 L -45.3373,-117.268
 L -45.113,-117.296 L -44.887,-117.296 L -44.6627,-117.268 L -44.4438,-117.212 L -44.2336,-117.129 L -44.0355,-117.02
 L -43.8526,-116.887 L -43.6879,-116.732 L -43.5438,-116.558 L -43.4226,-116.367 L -43.3264,-116.163 L -43.2565,-115.948
 L -43.2142,-115.726 L -43.2,-115.5 L -43.2142,-115.274 L -43.2565,-115.052 L -43.3264,-114.837 L -43.4226,-114.633
 L -43.5438,-114.442 L -43.6879,-114.268 L -43.8526,-114.113 L -44.0355,-113.98 L -44.2336,-113.871 L -44.4438,-113.788
 L -44.6627,-113.732 L -44.887,-113.704 z
M 44.887,-113.704 L 44.6627,-113.732 L 44.4438,-113.788 L 44.2336,-113.871 L 44.0355,-113.98 L 43.8526,-114.113
 L 43.6879,-114.268 L 43.5438,-114.442 L 43.4226,-114.633 L 43.3264,-114.837 L 43.2565,-115.052 L 43.2142,-115.274
 L 43.2,-115.5 L 43.2142,-115.726 L 43.2565,-115.948 L 43.3264,-116.163 L 43.4226,-116.367 L 43.5438,-116.558
 L 43.6879,-116.732 L 43.8526,-116.887 L 44.0355,-117.02 L 44.2336,-117.129 L 44.4438,-117.212 L 44.6627,-117.268
 L 44.887,-117.296 L 45.113,-117.296 L 45.3373,-117.268 L 45.5562,-117.212 L 45.7664,-117.129 L 45.9645,-117.02
 L 46.1474,-116.887 L 46.3121,-116.732 L 46.4562,-116.558 L 46.5773,-116.367 L 46.6736,-116.163 L 46.7434,-115.948
 L 46.7858,-115.726 L 46.8,-115.5 L 46.7858,-115.274 L 46.7434,-115.052 L 46.6736,-114.837 L 46.5773,-114.633
 L 46.4562,-114.442 L 46.3121,-114.268 L 46.1474,-114.113 L 45.9645,-113.98 L 45.7664,-113.871 L 45.5562,-113.788
 L 45.3373,-113.732 L 45.113,-113.704 z
" stroke="black" fill="lightgray" stroke-width="0.5"/>
</svg>
