<?xml version="1.0" standalone="no"?>
<!DOCTYPE svg PUBLIC "-//W3C//DTD SVG 1.1//EN" "http://www.w3.org/Graphics/SVG/1.1/DTD/svg11.dtd">
<svg width="60mm" height="154mm" viewBox="-30 -293 60 154" xmlns="http://www.w3.org/2000/svg" version="1.1">
<title>OpenSCAD Model</title>
<path d="
M 25.9369,-247.589 L 26.5451,-247.745 L 27.1289,-247.976 L 27.6791,-248.278 L 28.1871,-248.647 L 28.6448,-249.077
 L 29.0451,-249.561 L 29.3815,-250.091 L 29.6489,-250.659 L 29.8429,-251.257 L 29.9606,-251.873 L 30,-252.5
 L 30,-287.5 L 29.9606,-288.127 L 29.8429,-288.743 L 29.6489,-289.341 L 29.3815,-289.909 L 29.0451,-290.439
 L 28.6448,-290.923 L 28.1871,-291.353 L 27.6791,-291.722 L 27.1289,-292.024 L 26.5451,-292.255 L 25.9369,-292.411
 L 25.3139,-292.49 L -25.3139,-292.49 L -25.9369,-292.411 L -26.5451,-292.255 L -27.1289,-292.024 L -27.6791,-291.722
 L -28.1871,-291.353 L -28.6448,-290.923 L -29.0451,-290.439 L -29.3815,-289.909 L -29.6489,-289.341 L -29.8429,-288.743
 L -29.9606,-288.127 L -30,-287.5 L -30,-252.5 L -29.9606,-251.873 L -29.8429,-251.257 L -29.6489,-250.659
 L -29.3815,-250.091 L -29.0451,-249.561 L -28.6448,-249.077 L -28.1871,-248.647 L -27.6791,-248.278 L -27.1289,-247.976
 L -26.5451,-247.745 L -25.9369,-247.589 L -25.3139,-247.51 L 25.3139,-247.51 z
M -25.0482,-248.009 L -25.6401,-248.084 L -26.2178,-248.232 L -26.7724,-248.452 L -27.2952,-248.739 L -27.7778,-249.09
 L -28.2126,-249.498 L -28.5928,-249.958 L -28.9124,-250.462 L -29.1664,-251.001 L -29.3508,-251.569 L -29.4625,-252.155
 L -29.5,-252.75 L -29.5,-287.25 L -29.4625,-287.845 L -29.3508,-288.431 L -29.1664,-288.999 L -28.9124,-289.538
 L -28.5928,-290.042 L -28.2126,-290.502 L -27.7778,-290.91 L -27.2952,-291.261 L -26.7724,-291.548 L -26.2178,-291.768
 L -25.6401,-291.916 L -25.0482,-291.991 L 25.0482,-291.991 L 25.6401,-291.916 L 26.2178,-291.768 L 26.7724,-291.548
 L 27.2952,-291.261 L 27.7778,-290.91 L 28.2126,-290.502 L 28.5928,-290.042 L 28.9124,-289.538 L 29.1664,-288.999
 L 29.3508,-288.431 L 29.4625,-287.845 L 29.5,-287.25 L 29.5,-252.75 L 29.4625,-252.155 L 29.3508,-251.569
 L 29.1664,-251.001 L 28.9124,-250.462 L 28.5928,-249.958 L 28.2126,-249.498 L 27.7778,-249.09 L 27.2952,-248.739
 L 26.7724,-248.452 L 26.2178,-248.232 L 25.6401,-248.084 L 25.0482,-248.009 z
M 25.9369,-193.589 L 26.5451,-193.745 L 27.1289,-193.976 L 27.6791,-194.278 L 28.1871,-194.647 L 28.6448,-195.077
 L 29.0451,-195.561 L 29.3815,-196.091 L 29.6489,-196.659 L 29.8429,-197.257 L 29.9606,-197.873 L 30,-198.5
 L 30,-233.5 L 29.9606,-234.127 L 29.8429,-234.743 L 29.6489,-235.341 L 29.3815,-235.909 L 29.0451,-236.439
 L 28.6448,-236.923 L 28.1871,-237.353 L 27.6791,-237.722 L 27.1289,-238.024 L 26.5451,-238.255 L 25.9369,-238.411
 L 25.3139,-238.49 L -25.3139,-238.49 L -25.9369,-238.411 L -26.5451,-238.255 L -27.1289,-238.024 L -27.6791,-237.722
 L -28.1871,-237.353 L -28.6448,-236.923 L -29.0451,-236.439 L -29.3815,-235.909 L -29.6489,-235.341 L -29.8429,-234.743
 L -29.9606,-234.127 L -30,-233.5 L -30,-198.5 L -29.9606,-197.873 L -29.8429,-197.257 L -29.6489,-196.659
 L -29.3815,-196.091 L -29.0451,-195.561 L -28.6448,-195.077 L -28.1871,-194.647 L -27.6791,-194.278 L -27.1289,-193.976
 L -26.5451,-193.745 L -25.9369,-193.589 L -25.3139,-193.51 L 25.3139,-193.51 z
M -25.0375,-194.181 L -25.6079,-194.253 L -26.1648,-194.396 L -26.6994,-194.607 L -27.2032,-194.884 L -27.6684,-195.222
 L -28.0875,-195.616 L -28.454,-196.059 L -28.7621,-196.544 L -29.0069,-197.065 L -29.1846,-197.611 L -29.2923,-198.176
 L -29.3284,-198.75 L -29.3284,-233.25 L -29.2923,-233.824 L -29.1846,-234.389 L -29.0069,-234.935 L -28.7621,-235.456
 L -28.454,-235.941 L -28.0875,-236.384 L -27.6684,-236.778 L -27.2032,-237.116 L -26.6994,-237.393 L -26.1648,-237.604
 L -25.6079,-237.747 L -25.0375,-237.819 L 25.0375,-237.819 L 25.6079,-237.747 L 26.1648,-237.604 L 26.6994,-237.393
 L 27.2032,-237.116 L 27.6684,-236.778 L 28.0875,-236.384 L 28.454,-235.941 L 28.7621,-235.456 L 29.0069,-234.935
 L 29.1846,-234.389 L 29.2923,-233.824 L 29.3284,-233.25 L 29.3284,-198.75 L 29.2923,-198.176 L 29.1846,-197.611
 L 29.0069,-197.065 L 28.7621,-196.544 L 28.454,-196.059 L 28.0875,-195.616 L 27.6684,-195.222 L 27.2032,-194.884
 L 26.6994,-194.607 L 26.1648,-194.396 L 25.6079,-194.253 L 25.0375,-194.181 z
M 25.9369,-139.589 L 26.5451,-139.745 L 27.1289,-139.976 L 27.6791,-140.278 L 28.1871,-140.647 L 28.6448,-141.077
 L 29.0451,-141.561 L 29.3815,-142.091 L 29.6489,-142.659 L 29.8429,-143.257 L 29.9606,-143.873 L 30,-144.5
 L 30,-179.5 L 29.9606,-180.127 L 29.8429,-180.743 L 29.6489,-181.341 L 29.3815,-181.909 L 29.0451,-182.439
 L 28.6448,-182.923 L 28.1871,-183.353 L 27.6791,-183.722 L 27.1289,-184.024 L 26.5451,-184.255 L 25.9369,-184.411
 L 25.3139,-184.49 L -25.3139,-184.49 L -25.9369,-184.411 L -26.5451,-184.255 L -27.1289,-184.024 L -27.6791,-183.722
 L -28.1871,-183.353 L -28.6448,-182.923 L -29.0451,-182.439 L -29.3815,-181.909 L -29.6489,-181.341 L -29.8429,-180.743
 L -29.9606,-180.127 L -30,-179.5 L -30,-144.5 L -29.9606,-143.873 L -29.8429,-143.257 L -29.6489,-142.659
 L -29.3815,-142.091 L -29.0451,-141.561 L -28.6448,-141.077 L -28.1871,-140.647 L -27.6791,-140.278 L -27.1289,-139.976
 L -26.5451,-139.745 L -25.9369,-139.589 L -25.3139,-139.51 L 25.3139,-139.51 z
M -24.8825,-142.645 L -25.1453,-142.678 L -25.4019,-142.744 L -25.6482,-142.841 L -25.8804,-142.969 L -26.0947,-143.125
 L -26.2879,-143.306 L -26.4567,-143.51 L -26.5987,-143.734 L -26.7115,-143.973 L -26.7934,-144.225 L -26.843,-144.486
 L -26.8596,-144.75 L -26.8596,-179.25 L -26.843,-179.514 L -26.7934,-179.775 L -26.7115,-180.027 L -26.5987,-180.266
 L -26.4567,-180.49 L -26.2879,-180.694 L -26.0947,-180.875 L -25.8804,-181.031 L -25.6482,-181.159 L -25.4019,-181.256
 L -25.1453,-181.322 L -24.8825,-181.355 L 24.8825,-181.355 L 25.1453,-181.322 L 25.4019,-181.256 L 25.6482,-181.159
 L 25.8804,-181.031 L 26.0947,-180.875 L 26.2879,-180.694 L 26.4567,-180.49 L 26.5987,-180.266 L 26.7115,-180.027
 L 26.7934,-179.775 L 26.843,-179.514 L 26.8596,-179.25 L 26.8596,-144.75 L 26.843,-144.486 L 26.7934,-144.225
 L 26.7115,-143.973 L 26.5987,-143.734 L 26.4567,-143.51 L 26.2879,-143.306 L 26.0947,-143.125 L 25.8804,-142.969
 L 25.6482,-142.841 L 25.4019,-142.744 L 25.1453,-142.678 L 24.8825,-142.645 z
" stroke="black" fill="lightgray" stroke-width="0.5"/>
</svg>
