<?xml version="1.0" standalone="no"?>
<!DOCTYPE svg PUBLIC "-//W3C//DTD SVG 1.1//EN" "http://www.w3.org/Graphics/SVG/1.1/DTD/svg11.dtd">
<svg width="60mm" height="60mm" viewBox="-30 -168 60 60" xmlns="http://www.w3.org/2000/svg" version="1.1">
<title>OpenSCAD Model</title>
<path d="
M 22.125,-167.49 L 8.96451,-167.49 L 11.9547,-164.5 L 22.125,-164.5 z
M 25.4369,-108.589 L 26.0451,-108.745 L 26.6289,-108.976 L 27.1791,-109.278 L 27.6871,-109.647 L 28.1448,-110.077
 L 28.5451,-110.561 L 28.8815,-111.091 L 29.1489,-111.659 L 29.3429,-112.257 L 29.4606,-112.873 L 29.5,-113.5
 L 29.5,-161.5 L 15.1975,-161.5 L 17.8479,-159.574 L 20.4111,-157.167 L 22.6525,-154.458 L 24.5366,-151.489
 L 26.0337,-148.307 L 27.1203,-144.963 L 27.7792,-141.509 L 28,-138 L 27.7792,-134.491 L 27.1203,-131.037
 L 26.0337,-127.693 L 24.5366,-124.511 L 22.6525,-121.542 L 20.4111,-118.833 L 17.8479,-116.426 L 15.0031,-114.359
 L 11.9218,-112.665 L 8.65247,-111.37 L 5.24667,-110.496 L 1.75813,-110.055 L -1.75813,-110.055 L -5.24667,-110.496
 L -8.65247,-111.37 L -11.9218,-112.665 L -15.0031,-114.359 L -17.8479,-116.426 L -20.4111,-118.833 L -22.6525,-121.542
 L -24.5366,-124.511 L -26.0337,-127.693 L -27.1203,-131.037 L -27.7792,-134.491 L -28,-138 L -27.7792,-141.509
 L -27.1203,-144.963 L -26.0337,-148.307 L -24.5366,-151.489 L -22.6525,-154.458 L -20.4111,-157.167 L -17.8479,-159.574
 L -15.0031,-161.641 L -11.9218,-163.335 L -8.65247,-164.63 L -5.24667,-165.504 L -1.75813,-165.945 L 1.75813,-165.945
 L 5.24667,-165.504 L 8.65247,-164.63 L 8.97975,-164.5 L 9.83333,-164.5 L 6.84319,-167.49 L -24.8139,-167.49
 L -25.4369,-167.411 L -26.0451,-167.255 L -26.6289,-167.024 L -27.1791,-166.722 L -27.6871,-166.353 L -28.1448,-165.923
 L -28.5451,-165.439 L -28.8815,-164.909 L -29.1489,-164.341 L -29.3429,-163.743 L -29.3905,-163.494 L -22.3116,-163.494
 L -21.9379,-163.447 L -21.5729,-163.353 L -21.2227,-163.214 L -20.8925,-163.033 L -20.5877,-162.812 L -20.3131,-162.554
 L -20.0729,-162.263 L -19.8711,-161.945 L -19.7107,-161.604 L -19.5942,-161.246 L -19.5237,-160.876 L -19.5,-160.5
 L -19.5237,-160.124 L -19.5942,-159.754 L -19.7107,-159.396 L -19.8711,-159.055 L -20.0729,-158.737 L -20.3131,-158.446
 L -20.5877,-158.188 L -20.8925,-157.967 L -21.2227,-157.786 L -21.5729,-157.647 L -21.9379,-157.553 L -22.3116,-157.506
 L -29.5,-157.506 L -29.5,-118.494 L -22.3116,-118.494 L -21.9379,-118.447 L -21.5729,-118.353 L -21.2227,-118.214
 L -20.8925,-118.033 L -20.5877,-117.812 L -20.3131,-117.554 L -20.0729,-117.263 L -19.8711,-116.945 L -19.7107,-116.604
 L -19.5942,-116.246 L -19.5237,-115.876 L -19.5,-115.5 L -19.5237,-115.124 L -19.5942,-114.754 L -19.7107,-114.396
 L -19.8711,-114.055 L -20.0729,-113.737 L -20.3131,-113.446 L -20.5877,-113.188 L -20.8925,-112.967 L -21.2227,-112.786
 L -21.5729,-112.647 L -21.9379,-112.553 L -22.3116,-112.506 L -29.3905,-112.506 L -29.3429,-112.257 L -29.1489,-111.659
 L -28.8815,-111.091 L -28.5451,-110.561 L -28.1448,-110.077 L -27.6871,-109.647 L -27.1791,-109.278 L -26.6289,-108.976
 L -26.0451,-108.745 L -25.4369,-108.589 L -24.8139,-108.51 L 24.8139,-108.51 z
M 22.3116,-112.506 L 21.9379,-112.553 L 21.5729,-112.647 L 21.2227,-112.786 L 20.8925,-112.967 L 20.5877,-113.188
 L 20.3131,-113.446 L 20.0729,-113.737 L 19.8711,-114.055 L 19.7107,-114.396 L 19.5942,-114.754 L 19.5237,-115.124
 L 19.5,-115.5 L 19.5237,-115.876 L 19.5942,-116.246 L 19.7107,-116.604 L 19.8711,-116.945 L 20.0729,-117.263
 L 20.3131,-117.554 L 20.5877,-117.812 L 20.8925,-118.033 L 21.2227,-118.214 L 21.5729,-118.353 L 21.9379,-118.447
 L 22.3116,-118.494 L 22.6884,-118.494 L 23.0621,-118.447 L 23.427,-118.353 L 23.7773,-118.214 L 24.1075,-118.033
 L 24.4123,-117.812 L 24.6869,-117.554 L 24.927,-117.263 L 25.1289,-116.945 L 25.2893,-116.604 L 25.4057,-116.246
 L 25.4763,-115.876 L 25.5,-115.5 L 25.4763,-115.124 L 25.4057,-114.754 L 25.2893,-114.396 L 25.1289,-114.055
 L 24.927,-113.737 L 24.6869,-113.446 L 24.4123,-113.188 L 24.1075,-112.967 L 23.7773,-112.786 L 23.427,-112.647
 L 23.0621,-112.553 L 22.6884,-112.506 z
" stroke="black" fill="lightgray" stroke-width="0.5"/>
</svg>
