<?xml version="1.0" standalone="no"?>
<!DOCTYPE svg PUBLIC "-//W3C//DTD SVG 1.1//EN" "http://www.w3.org/Graphics/SVG/1.1/DTD/svg11.dtd">
<svg width="60mm" height="69mm" viewBox="-30 -132 60 69" xmlns="http://www.w3.org/2000/svg" version="1.1">
<title>OpenSCAD Model</title>
<path d="
M 25.9369,-102.089 L 26.5451,-102.245 L 27.1289,-102.476 L 27.6791,-102.778 L 28.1871,-103.147 L 28.6448,-103.577
 L 29.0451,-104.061 L 29.3815,-104.591 L 29.6489,-105.159 L 29.8429,-105.757 L 29.9606,-106.373 L 30,-107
 L 30,-127 L 29.9606,-127.627 L 29.8429,-128.243 L 29.6489,-128.841 L 29.3815,-129.409 L 29.0451,-129.939
 L 28.6448,-130.423 L 28.1871,-130.853 L 27.6791,-131.222 L 27.1289,-131.524 L 26.5451,-131.755 L 25.9369,-131.911
 L 25.3139,-131.99 L -25.3139,-131.99 L -25.9369,-131.911 L -26.5451,-131.755 L -27.1289,-131.524 L -27.6791,-131.222
 L -28.1871,-130.853 L -28.6448,-130.423 L -29.0451,-129.939 L -29.3815,-129.409 L -29.6489,-128.841 L -29.8429,-128.243
 L -29.9606,-127.627 L -30,-127 L -30,-107 L -29.9606,-106.373 L -29.8429,-105.757 L -29.6489,-105.159
 L -29.3815,-104.591 L -29.0451,-104.061 L -28.6448,-103.577 L -28.1871,-103.147 L -27.6791,-102.778 L -27.1289,-102.476
 L -26.5451,-102.245 L -25.9369,-102.089 L -25.3139,-102.01 L 25.3139,-102.01 z
M -25.0375,-102.681 L -25.6079,-102.753 L -26.1648,-102.896 L -26.6994,-103.107 L -27.2032,-103.384 L -27.6684,-103.722
 L -28.0875,-104.116 L -28.454,-104.559 L -28.7621,-105.044 L -29.0069,-105.565 L -29.1846,-106.111 L -29.2923,-106.676
 L -29.3284,-107.25 L -29.3284,-126.75 L -29.2923,-127.324 L -29.1846,-127.889 L -29.0069,-128.435 L -28.7621,-128.956
 L -28.454,-129.441 L -28.0875,-129.884 L -27.6684,-130.278 L -27.2032,-130.616 L -26.6994,-130.893 L -26.1648,-131.104
 L -25.6079,-131.247 L -25.0375,-131.319 L 25.0375,-131.319 L 25.6079,-131.247 L 26.1648,-131.104 L 26.6994,-130.893
 L 27.2032,-130.616 L 27.6684,-130.278 L 28.0875,-129.884 L 28.454,-129.441 L 28.7621,-128.956 L 29.0069,-128.435
 L 29.1846,-127.889 L 29.2923,-127.324 L 29.3284,-126.75 L 29.3284,-107.25 L 29.2923,-106.676 L 29.1846,-106.111
 L 29.0069,-105.565 L 28.7621,-105.044 L 28.454,-104.559 L 28.0875,-104.116 L 27.6684,-103.722 L 27.2032,-103.384
 L 26.6994,-103.107 L 26.1648,-102.896 L 25.6079,-102.753 L 25.0375,-102.681 z
M 25.9369,-63.0886 L 26.5451,-63.2447 L 27.1289,-63.4759 L 27.6791,-63.7784 L 28.1871,-64.1474 L 28.6448,-64.5773
 L 29.0451,-65.0611 L 29.3815,-65.5912 L 29.6489,-66.1594 L 29.8429,-66.7566 L 29.9606,-67.3733 L 30,-68
 L 30,-88 L 29.9606,-88.6267 L 29.8429,-89.2434 L 29.6489,-89.8406 L 29.3815,-90.4088 L 29.0451,-90.9389
 L 28.6448,-91.4227 L 28.1871,-91.8526 L 27.6791,-92.2216 L 27.1289,-92.5241 L 26.5451,-92.7553 L 25.9369,-92.9114
 L 25.3139,-92.9901 L -25.3139,-92.9901 L -25.9369,-92.9114 L -26.5451,-92.7553 L -27.1289,-92.5241 L -27.6791,-92.2216
 L -28.1871,-91.8526 L -28.6448,-91.4227 L -29.0451,-90.9389 L -29.3815,-90.4088 L -29.6489,-89.8406 L -29.8429,-89.2434
 L -29.9606,-88.6267 L -30,-88 L -30,-68 L -29.9606,-67.3733 L -29.8429,-66.7566 L -29.6489,-66.1594
 L -29.3815,-65.5912 L -29.0451,-65.0611 L -28.6448,-64.5773 L -28.1871,-64.1474 L -27.6791,-63.7784 L -27.1289,-63.4759
 L -26.5451,-63.2447 L -25.9369,-63.0886 L -25.3139,-63.0099 L 25.3139,-63.0099 z
M -24.8825,-66.1445 L -25.1453,-66.1777 L -25.4019,-66.2436 L -25.6482,-66.3412 L -25.8804,-66.4688 L -26.0947,-66.6245
 L -26.2879,-66.8059 L -26.4567,-67.01 L -26.5987,-67.2337 L -26.7115,-67.4734 L -26.7934,-67.7254 L -26.843,-67.9856
 L -26.8596,-68.25 L -26.8596,-87.75 L -26.843,-88.0144 L -26.7934,-88.2746 L -26.7115,-88.5266 L -26.5987,-88.7663
 L -26.4567,-88.99 L -26.2879,-89.1941 L -26.0947,-89.3755 L -25.8804,-89.5312 L -25.6482,-89.6588 L -25.4019,-89.7564
 L -25.1453,-89.8223 L -24.8825,-89.8555 L 24.8825,-89.8555 L 25.1453,-89.8223 L 25.4019,-89.7564 L 25.6482,-89.6588
 L 25.8804,-89.5312 L 26.0947,-89.3755 L 26.2879,-89.1941 L 26.4567,-88.99 L 26.5987,-88.7663 L 26.7115,-88.5266
 L 26.7934,-88.2746 L 26.843,-88.0144 L 26.8596,-87.75 L 26.8596,-68.25 L 26.843,-67.9856 L 26.7934,-67.7254
 L 26.7115,-67.4734 L 26.5987,-67.2337 L 26.4567,-67.01 L 26.2879,-66.8059 L 26.0947,-66.6245 L 25.8804,-66.4688
 L 25.6482,-66.3412 L 25.4019,-66.2436 L 25.1453,-66.1777 L 24.8825,-66.1445 z
" stroke="black" fill="lightgray" stroke-width="0.5"/>
</svg>
