<?xml version="1.0" standalone="no"?>
<!DOCTYPE svg PUBLIC "-//W3C//DTD SVG 1.1//EN" "http://www.w3.org/Graphics/SVG/1.1/DTD/svg11.dtd">
<svg width="16mm" height="129mm" viewBox="-8 -168 16 129" xmlns="http://www.w3.org/2000/svg" version="1.1">
<title>OpenSCAD Model</title>
<path d="
M 3.4369,-108.089 L 4.04507,-108.245 L 4.62889,-108.476 L 5.17912,-108.778 L 5.68712,-109.147 L 6.14484,-109.577
 L 6.54507,-110.061 L 6.88153,-110.591 L 7.14888,-111.159 L 7.34291,-111.757 L 7.46057,-112.373 L 7.5,-113
 L 7.5,-163 L 7.46057,-163.627 L 7.34291,-164.243 L 7.14888,-164.841 L 6.88153,-165.409 L 6.54507,-165.939
 L 6.14484,-166.423 L 5.68712,-166.853 L 5.17912,-167.222 L 4.62889,-167.524 L 4.04507,-167.755 L 3.4369,-167.911
 L 2.81395,-167.99 L -2.81395,-167.99 L -3.4369,-167.911 L -4.04507,-167.755 L -4.62889,-167.524 L -5.17912,-167.222
 L -5.68712,-166.853 L -6.14484,-166.423 L -6.54507,-165.939 L -6.88153,-165.409 L -7.14888,-164.841 L -7.34291,-164.243
 L -7.46057,-163.627 L -7.5,-163 L -7.5,-113 L -7.46057,-112.373 L -7.34291,-111.757 L -7.14888,-111.159
 L -6.88153,-110.591 L -6.54507,-110.061 L -6.14484,-109.577 L -5.68712,-109.147 L -5.17912,-108.778 L -4.62889,-108.476
 L -4.04507,-108.245 L -3.4369,-108.089 L -2.81395,-108.01 L 2.81395,-108.01 z
M 3.4369,-39.0886 L 4.04507,-39.2447 L 4.62889,-39.4759 L 5.17912,-39.7784 L 5.68712,-40.1474 L 6.14484,-40.5773
 L 6.54507,-41.0611 L 6.88153,-41.5912 L 7.14888,-42.1594 L 7.34291,-42.7566 L 7.46057,-43.3733 L 7.5,-44
 L 7.5,-94 L 7.46057,-94.6267 L 7.34291,-95.2434 L 7.14888,-95.8406 L 6.88153,-96.4088 L 6.54507,-96.9389
 L 6.14484,-97.4227 L 5.68712,-97.8526 L 5.17912,-98.2216 L 4.62889,-98.5241 L 4.04507,-98.7553 L 3.4369,-98.9114
 L 2.81395,-98.9901 L -2.81395,-98.9901 L -3.4369,-98.9114 L -4.04507,-98.7553 L -4.62889,-98.5241 L -5.17912,-98.2216
 L -5.68712,-97.8526 L -6.14484,-97.4227 L -6.54507,-96.9389 L -6.88153,-96.4088 L -7.14888,-95.8406 L -7.34291,-95.2434
 L -7.46057,-94.6267 L -7.5,-94 L -7.5,-44 L -7.46057,-43.3733 L -7.34291,-42.7566 L -7.14888,-42.1594
 L -6.88153,-41.5912 L -6.54507,-41.0611 L -6.14484,-40.5773 L -5.68712,-40.1474 L -5.17912,-39.7784 L -4.62889,-39.4759
 L -4.04507,-39.2447 L -3.4369,-39.0886 L -2.81395,-39.0099 L 2.81395,-39.0099 z
M -0.113022,-89.7036 L -0.33728,-89.7319 L -0.556229,-89.7881 L -0.766388,-89.8713 L -0.964478,-89.9802 L -1.14735,-90.1131
 L -1.31213,-90.2678 L -1.45622,-90.442 L -1.57735,-90.6328 L -1.67358,-90.8374 L -1.74344,-91.0524 L -1.7858,-91.2744
 L -1.79999,-91.5 L -1.7858,-91.7256 L -1.74344,-91.9476 L -1.67358,-92.1626 L -1.57735,-92.3672 L -1.45622,-92.558
 L -1.31213,-92.7322 L -1.14735,-92.8869 L -0.964478,-93.0198 L -0.766388,-93.1287 L -0.556229,-93.2119 L -0.33728,-93.2681
 L -0.113022,-93.2964 L 0.113022,-93.2964 L 0.33728,-93.2681 L 0.556229,-93.2119 L 0.766388,-93.1287 L 0.964478,-93.0198
 L 1.14735,-92.8869 L 1.31213,-92.7322 L 1.45622,-92.558 L 1.57735,-92.3672 L 1.67358,-92.1626 L 1.74344,-91.9476
 L 1.7858,-91.7256 L 1.79999,-91.5 L 1.7858,-91.2744 L 1.74344,-91.0524 L 1.67358,-90.8374 L 1.57735,-90.6328
 L 1.45622,-90.442 L 1.31213,-90.2678 L 1.14735,-90.1131 L 0.964478,-89.9802 L 0.766388,-89.8713 L 0.556229,-89.7881
 L 0.33728,-89.7319 L 0.113022,-89.7036 z
M -0.113022,-44.7036 L -0.33728,-44.7319 L -0.556229,-44.7881 L -0.766388,-44.8713 L -0.964478,-44.9802 L -1.14735,-45.1131
 L -1.31213,-45.2678 L -1.45622,-45.442 L -1.57735,-45.6328 L -1.67358,-45.8374 L -1.74344,-46.0524 L -1.7858,-46.2744
 L -1.79999,-46.5 L -1.7858,-46.7256 L -1.74344,-46.9476 L -1.67358,-47.1626 L -1.57735,-47.3672 L -1.45622,-47.558
 L -1.31213,-47.7322 L -1.14735,-47.8869 L -0.964478,-48.0198 L -0.766388,-48.1287 L -0.556229,-48.2119 L -0.33728,-48.2681
 L -0.113022,-48.2964 L 0.113022,-48.2964 L 0.33728,-48.2681 L 0.556229,-48.2119 L 0.766388,-48.1287 L 0.964478,-48.0198
 L 1.14735,-47.8869 L 1.31213,-47.7322 L 1.45622,-47.558 L 1.57735,-47.3672 L 1.67358,-47.1626 L 1.74344,-46.9476
 L 1.7858,-46.7256 L 1.79999,-46.5 L 1.7858,-46.2744 L 1.74344,-46.0524 L 1.67358,-45.8374 L 1.57735,-45.6328
 L 1.45622,-45.442 L 1.31213,-45.2678 L 1.14735,-45.1131 L 0.964478,-44.9802 L 0.766388,-44.8713 L 0.556229,-44.7881
 L 0.33728,-44.7319 L 0.113022,-44.7036 z
" stroke="black" fill="lightgray" stroke-width="0.5"/>
</svg>
