  0
SECTION
  2
BLOCKS
  0
ENDSEC
  0
SECTION
  2
ENTITIES
  0
LINE
  8
0
 10
85.9369
 20
139.589
 11
86.5451
 21
139.745
  0
LINE
  8
0
 10
86.5451
 20
139.745
 11
87.1289
 21
139.976
  0
LINE
  8
0
 10
87.1289
 20
139.976
 11
87.6791
 21
140.278
  0
LINE
  8
0
 10
87.6791
 20
140.278
 11
88.1871
 21
140.647
  0
LINE
  8
0
 10
88.1871
 20
140.647
 11
88.6448
 21
141.077
  0
LINE
  8
0
 10
88.6448
 20
141.077
 11
89.0451
 21
141.561
  0
LINE
  8
0
 10
89.0451
 20
141.561
 11
89.3815
 21
142.091
  0
LINE
  8
0
 10
89.3815
 20
142.091
 11
89.6489
 21
142.659
  0
LINE
  8
0
 10
89.6489
 20
142.659
 11
89.8429
 21
143.257
  0
LINE
  8
0
 10
89.8429
 20
143.257
 11
89.9606
 21
143.873
  0
LINE
  8
0
 10
89.9606
 20
143.873
 11
90
 21
144.5
  0
LINE
  8
0
 10
90
 20
144.5
 11
90
 21
179.5
  0
LINE
  8
0
 10
90
 20
179.5
 11
89.9606
 21
180.127
  0
LINE
  8
0
 10
89.9606
 20
180.127
 11
89.8429
 21
180.743
  0
LINE
  8
0
 10
89.8429
 20
180.743
 11
89.6489
 21
181.341
  0
LINE
  8
0
 10
89.6489
 20
181.341
 11
89.3815
 21
181.909
  0
LINE
  8
0
 10
89.3815
 20
181.909
 11
89.0451
 21
182.439
  0
LINE
  8
0
 10
89.0451
 20
182.439
 11
88.6448
 21
182.923
  0
LINE
  8
0
 10
88.6448
 20
182.923
 11
88.1871
 21
183.353
  0
LINE
  8
0
 10
88.1871
 20
183.353
 11
87.6791
 21
183.722
  0
LINE
  8
0
 10
87.6791
 20
183.722
 11
87.1289
 21
184.024
  0
LINE
  8
0
 10
87.1289
 20
184.024
 11
86.5451
 21
184.255
  0
LINE
  8
0
 10
86.5451
 20
184.255
 11
85.9369
 21
184.411
  0
LINE
  8
0
 10
85.9369
 20
184.411
 11
85.3139
 21
184.49
  0
LINE
  8
0
 10
85.3139
 20
184.49
 11
-85.3139
 21
184.49
  0
LINE
  8
0
 10
-85.3139
 20
184.49
 11
-85.9369
 21
184.411
  0
LINE
  8
0
 10
-85.9369
 20
184.411
 11
-86.5451
 21
184.255
  0
LINE
  8
0
 10
-86.5451
 20
184.255
 11
-87.1289
 21
184.024
  0
LINE
  8
0
 10
-87.1289
 20
184.024
 11
-87.6791
 21
183.722
  0
LINE
  8
0
 10
-87.6791
 20
183.722
 11
-88.1871
 21
183.353
  0
LINE
  8
0
 10
-88.1871
 20
183.353
 11
-88.5
 21
183.059
  0
LINE
  8
0
 10
-88.5
 20
183.059
 11
-88.5
 21
184.479
  0
LINE
  8
0
 10
-88.5
 20
184.479
 11
-91.5
 21
184.479
  0
LINE
  8
0
 10
-91.5
 20
184.479
 11
-91.5
 21
139.521
  0
LINE
  8
0
 10
-91.5
 20
139.521
 11
-88.5
 21
139.521
  0
LINE
  8
0
 10
-88.5
 20
139.521
 11
-88.5
 21
140.941
  0
LINE
  8
0
 10
-88.5
 20
140.941
 11
-88.1871
 21
140.647
  0
LINE
  8
0
 10
-88.1871
 20
140.647
 11
-87.6791
 21
140.278
  0
LINE
  8
0
 10
-87.6791
 20
140.278
 11
-87.1289
 21
139.976
  0
LINE
  8
0
 10
-87.1289
 20
139.976
 11
-86.5451
 21
139.745
  0
LINE
  8
0
 10
-86.5451
 20
139.745
 11
-85.9369
 21
139.589
  0
LINE
  8
0
 10
-85.9369
 20
139.589
 11
-85.3139
 21
139.51
  0
LINE
  8
0
 10
-85.3139
 20
139.51
 11
85.3139
 21
139.51
  0
LINE
  8
0
 10
85.3139
 20
139.51
 11
85.9369
 21
139.589
  0
LINE
  8
0
 10
-84.6955
 20
141.893
 11
-85.0833
 21
141.942
  0
LINE
  8
0
 10
-85.0833
 20
141.942
 11
-85.4619
 21
142.039
  0
LINE
  8
0
 10
-85.4619
 20
142.039
 11
-85.8254
 21
142.183
  0
LINE
  8
0
 10
-85.8254
 20
142.183
 11
-86.168
 21
142.372
  0
LINE
  8
0
 10
-86.168
 20
142.372
 11
-86.4843
 21
142.601
  0
LINE
  8
0
 10
-86.4843
 20
142.601
 11
-86.7692
 21
142.869
  0
LINE
  8
0
 10
-86.7692
 20
142.869
 11
-87.0184
 21
143.17
  0
LINE
  8
0
 10
-87.0184
 20
143.17
 11
-87.2279
 21
143.5
  0
LINE
  8
0
 10
-87.2279
 20
143.5
 11
-87.3943
 21
143.854
  0
LINE
  8
0
 10
-87.3943
 20
143.854
 11
-87.5151
 21
144.226
  0
LINE
  8
0
 10
-87.5151
 20
144.226
 11
-87.5884
 21
144.61
  0
LINE
  8
0
 10
-87.5884
 20
144.61
 11
-87.6129
 21
145
  0
LINE
  8
0
 10
-87.6129
 20
145
 11
-87.6129
 21
179
  0
LINE
  8
0
 10
-87.6129
 20
179
 11
-87.5884
 21
179.39
  0
LINE
  8
0
 10
-87.5884
 20
179.39
 11
-87.5151
 21
179.774
  0
LINE
  8
0
 10
-87.5151
 20
179.774
 11
-87.3943
 21
180.146
  0
LINE
  8
0
 10
-87.3943
 20
180.146
 11
-87.2279
 21
180.5
  0
LINE
  8
0
 10
-87.2279
 20
180.5
 11
-87.0184
 21
180.83
  0
LINE
  8
0
 10
-87.0184
 20
180.83
 11
-86.7692
 21
181.131
  0
LINE
  8
0
 10
-86.7692
 20
181.131
 11
-86.4843
 21
181.399
  0
LINE
  8
0
 10
-86.4843
 20
181.399
 11
-86.168
 21
181.628
  0
LINE
  8
0
 10
-86.168
 20
181.628
 11
-85.8254
 21
181.817
  0
LINE
  8
0
 10
-85.8254
 20
181.817
 11
-85.4619
 21
181.961
  0
LINE
  8
0
 10
-85.4619
 20
181.961
 11
-85.0833
 21
182.058
  0
LINE
  8
0
 10
-85.0833
 20
182.058
 11
-84.6955
 21
182.107
  0
LINE
  8
0
 10
-84.6955
 20
182.107
 11
84.6955
 21
182.107
  0
LINE
  8
0
 10
84.6955
 20
182.107
 11
85.0833
 21
182.058
  0
LINE
  8
0
 10
85.0833
 20
182.058
 11
85.4619
 21
181.961
  0
LINE
  8
0
 10
85.4619
 20
181.961
 11
85.8254
 21
181.817
  0
LINE
  8
0
 10
85.8254
 20
181.817
 11
86.168
 21
181.628
  0
LINE
  8
0
 10
86.168
 20
181.628
 11
86.4843
 21
181.399
  0
LINE
  8
0
 10
86.4843
 20
181.399
 11
86.7692
 21
181.131
  0
LINE
  8
0
 10
86.7692
 20
181.131
 11
87.0184
 21
180.83
  0
LINE
  8
0
 10
87.0184
 20
180.83
 11
87.2279
 21
180.5
  0
LINE
  8
0
 10
87.2279
 20
180.5
 11
87.3943
 21
180.146
  0
LINE
  8
0
 10
87.3943
 20
180.146
 11
87.5151
 21
179.774
  0
LINE
  8
0
 10
87.5151
 20
179.774
 11
87.5884
 21
179.39
  0
LINE
  8
0
 10
87.5884
 20
179.39
 11
87.6129
 21
179
  0
LINE
  8
0
 10
87.6129
 20
179
 11
87.6129
 21
145
  0
LINE
  8
0
 10
87.6129
 20
145
 11
87.5884
 21
144.61
  0
LINE
  8
0
 10
87.5884
 20
144.61
 11
87.5151
 21
144.226
  0
LINE
  8
0
 10
87.5151
 20
144.226
 11
87.3943
 21
143.854
  0
LINE
  8
0
 10
87.3943
 20
143.854
 11
87.2279
 21
143.5
  0
LINE
  8
0
 10
87.2279
 20
143.5
 11
87.0184
 21
143.17
  0
LINE
  8
0
 10
87.0184
 20
143.17
 11
86.7692
 21
142.869
  0
LINE
  8
0
 10
86.7692
 20
142.869
 11
86.4843
 21
142.601
  0
LINE
  8
0
 10
86.4843
 20
142.601
 11
86.168
 21
142.372
  0
LINE
  8
0
 10
86.168
 20
142.372
 11
85.8254
 21
142.183
  0
LINE
  8
0
 10
85.8254
 20
142.183
 11
85.4619
 21
142.039
  0
LINE
  8
0
 10
85.4619
 20
142.039
 11
85.0833
 21
141.942
  0
LINE
  8
0
 10
85.0833
 20
141.942
 11
84.6955
 21
141.893
  0
LINE
  8
0
 10
84.6955
 20
141.893
 11
-84.6955
 21
141.893
  0
LINE
  8
0
 10
85.9369
 20
85.5886
 11
86.5451
 21
85.7447
  0
LINE
  8
0
 10
86.5451
 20
85.7447
 11
87.1289
 21
85.9759
  0
LINE
  8
0
 10
87.1289
 20
85.9759
 11
87.6791
 21
86.2784
  0
LINE
  8
0
 10
87.6791
 20
86.2784
 11
88.1871
 21
86.6474
  0
LINE
  8
0
 10
88.1871
 20
86.6474
 11
88.6448
 21
87.0773
  0
LINE
  8
0
 10
88.6448
 20
87.0773
 11
89.0451
 21
87.5611
  0
LINE
  8
0
 10
89.0451
 20
87.5611
 11
89.3815
 21
88.0912
  0
LINE
  8
0
 10
89.3815
 20
88.0912
 11
89.6489
 21
88.6594
  0
LINE
  8
0
 10
89.6489
 20
88.6594
 11
89.8429
 21
89.2566
  0
LINE
  8
0
 10
89.8429
 20
89.2566
 11
89.9606
 21
89.8733
  0
LINE
  8
0
 10
89.9606
 20
89.8733
 11
90
 21
90.5
  0
LINE
  8
0
 10
90
 20
90.5
 11
90
 21
125.5
  0
LINE
  8
0
 10
90
 20
125.5
 11
89.9606
 21
126.127
  0
LINE
  8
0
 10
89.9606
 20
126.127
 11
89.8429
 21
126.743
  0
LINE
  8
0
 10
89.8429
 20
126.743
 11
89.6489
 21
127.341
  0
LINE
  8
0
 10
89.6489
 20
127.341
 11
89.3815
 21
127.909
  0
LINE
  8
0
 10
89.3815
 20
127.909
 11
89.0451
 21
128.439
  0
LINE
  8
0
 10
89.0451
 20
128.439
 11
88.6448
 21
128.923
  0
LINE
  8
0
 10
88.6448
 20
128.923
 11
88.1871
 21
129.353
  0
LINE
  8
0
 10
88.1871
 20
129.353
 11
87.6791
 21
129.722
  0
LINE
  8
0
 10
87.6791
 20
129.722
 11
87.1289
 21
130.024
  0
LINE
  8
0
 10
87.1289
 20
130.024
 11
86.5451
 21
130.255
  0
LINE
  8
0
 10
86.5451
 20
130.255
 11
85.9369
 21
130.411
  0
LINE
  8
0
 10
85.9369
 20
130.411
 11
85.3139
 21
130.49
  0
LINE
  8
0
 10
85.3139
 20
130.49
 11
-85.3139
 21
130.49
  0
LINE
  8
0
 10
-85.3139
 20
130.49
 11
-85.9369
 21
130.411
  0
LINE
  8
0
 10
-85.9369
 20
130.411
 11
-86.5451
 21
130.255
  0
LINE
  8
0
 10
-86.5451
 20
130.255
 11
-87.1289
 21
130.024
  0
LINE
  8
0
 10
-87.1289
 20
130.024
 11
-87.6791
 21
129.722
  0
LINE
  8
0
 10
-87.6791
 20
129.722
 11
-88.1871
 21
129.353
  0
LINE
  8
0
 10
-88.1871
 20
129.353
 11
-88.5
 21
129.059
  0
LINE
  8
0
 10
-88.5
 20
129.059
 11
-88.5
 21
129.153
  0
LINE
  8
0
 10
-88.5
 20
129.153
 11
-91.5
 21
129.153
  0
LINE
  8
0
 10
-91.5
 20
129.153
 11
-91.5
 21
86.8474
  0
LINE
  8
0
 10
-91.5
 20
86.8474
 11
-88.5
 21
86.8474
  0
LINE
  8
0
 10
-88.5
 20
86.8474
 11
-88.5
 21
86.9413
  0
LINE
  8
0
 10
-88.5
 20
86.9413
 11
-88.1871
 21
86.6474
  0
LINE
  8
0
 10
-88.1871
 20
86.6474
 11
-87.6791
 21
86.2784
  0
LINE
  8
0
 10
-87.6791
 20
86.2784
 11
-87.1289
 21
85.9759
  0
LINE
  8
0
 10
-87.1289
 20
85.9759
 11
-86.5451
 21
85.7447
  0
LINE
  8
0
 10
-86.5451
 20
85.7447
 11
-85.9369
 21
85.5886
  0
LINE
  8
0
 10
-85.9369
 20
85.5886
 11
-85.3139
 21
85.5099
  0
LINE
  8
0
 10
-85.3139
 20
85.5099
 11
85.3139
 21
85.5099
  0
LINE
  8
0
 10
85.3139
 20
85.5099
 11
85.9369
 21
85.5886
  0
LINE
  8
0
 10
82.3659
 20
120.869
 11
82.0999
 21
120.903
  0
LINE
  8
0
 10
82.0999
 20
120.903
 11
81.8401
 21
120.969
  0
LINE
  8
0
 10
81.8401
 20
120.969
 11
81.5908
 21
121.068
  0
LINE
  8
0
 10
81.5908
 20
121.068
 11
81.3559
 21
121.197
  0
LINE
  8
0
 10
81.3559
 20
121.197
 11
81.1389
 21
121.355
  0
LINE
  8
0
 10
81.1389
 20
121.355
 11
80.9434
 21
121.538
  0
LINE
  8
0
 10
80.9434
 20
121.538
 11
80.7725
 21
121.745
  0
LINE
  8
0
 10
80.7725
 20
121.745
 11
80.6288
 21
121.971
  0
LINE
  8
0
 10
80.6288
 20
121.971
 11
80.5146
 21
122.214
  0
LINE
  8
0
 10
80.5146
 20
122.214
 11
80.4318
 21
122.469
  0
LINE
  8
0
 10
80.4318
 20
122.469
 11
80.3815
 21
122.732
  0
LINE
  8
0
 10
80.3815
 20
122.732
 11
80.3647
 21
123
  0
LINE
  8
0
 10
80.3647
 20
123
 11
80.3815
 21
123.268
  0
LINE
  8
0
 10
80.3815
 20
123.268
 11
80.4318
 21
123.531
  0
LINE
  8
0
 10
80.4318
 20
123.531
 11
80.5146
 21
123.786
  0
LINE
  8
0
 10
80.5146
 20
123.786
 11
80.6288
 21
124.029
  0
LINE
  8
0
 10
80.6288
 20
124.029
 11
80.7725
 21
124.255
  0
LINE
  8
0
 10
80.7725
 20
124.255
 11
80.9434
 21
124.462
  0
LINE
  8
0
 10
80.9434
 20
124.462
 11
81.1389
 21
124.645
  0
LINE
  8
0
 10
81.1389
 20
124.645
 11
81.3559
 21
124.803
  0
LINE
  8
0
 10
81.3559
 20
124.803
 11
81.5908
 21
124.932
  0
LINE
  8
0
 10
81.5908
 20
124.932
 11
81.8401
 21
125.031
  0
LINE
  8
0
 10
81.8401
 20
125.031
 11
82.0999
 21
125.097
  0
LINE
  8
0
 10
82.0999
 20
125.097
 11
82.3659
 21
125.131
  0
LINE
  8
0
 10
82.3659
 20
125.131
 11
82.6341
 21
125.131
  0
LINE
  8
0
 10
82.6341
 20
125.131
 11
82.9001
 21
125.097
  0
LINE
  8
0
 10
82.9001
 20
125.097
 11
83.1598
 21
125.031
  0
LINE
  8
0
 10
83.1598
 20
125.031
 11
83.4092
 21
124.932
  0
LINE
  8
0
 10
83.4092
 20
124.932
 11
83.6441
 21
124.803
  0
LINE
  8
0
 10
83.6441
 20
124.803
 11
83.8611
 21
124.645
  0
LINE
  8
0
 10
83.8611
 20
124.645
 11
84.0566
 21
124.462
  0
LINE
  8
0
 10
84.0566
 20
124.462
 11
84.2275
 21
124.255
  0
LINE
  8
0
 10
84.2275
 20
124.255
 11
84.3712
 21
124.029
  0
LINE
  8
0
 10
84.3712
 20
124.029
 11
84.4853
 21
123.786
  0
LINE
  8
0
 10
84.4853
 20
123.786
 11
84.5682
 21
123.531
  0
LINE
  8
0
 10
84.5682
 20
123.531
 11
84.6185
 21
123.268
  0
LINE
  8
0
 10
84.6185
 20
123.268
 11
84.6353
 21
123
  0
LINE
  8
0
 10
84.6353
 20
123
 11
84.6185
 21
122.732
  0
LINE
  8
0
 10
84.6185
 20
122.732
 11
84.5682
 21
122.469
  0
LINE
  8
0
 10
84.5682
 20
122.469
 11
84.4853
 21
122.214
  0
LINE
  8
0
 10
84.4853
 20
122.214
 11
84.3712
 21
121.971
  0
LINE
  8
0
 10
84.3712
 20
121.971
 11
84.2275
 21
121.745
  0
LINE
  8
0
 10
84.2275
 20
121.745
 11
84.0566
 21
121.538
  0
LINE
  8
0
 10
84.0566
 20
121.538
 11
83.8611
 21
121.355
  0
LINE
  8
0
 10
83.8611
 20
121.355
 11
83.6441
 21
121.197
  0
LINE
  8
0
 10
83.6441
 20
121.197
 11
83.4092
 21
121.068
  0
LINE
  8
0
 10
83.4092
 20
121.068
 11
83.1598
 21
120.969
  0
LINE
  8
0
 10
83.1598
 20
120.969
 11
82.9001
 21
120.903
  0
LINE
  8
0
 10
82.9001
 20
120.903
 11
82.6341
 21
120.869
  0
LINE
  8
0
 10
82.6341
 20
120.869
 11
82.3659
 21
120.869
  0
LINE
  8
0
 10
-82.6341
 20
120.869
 11
-82.9001
 21
120.903
  0
LINE
  8
0
 10
-82.9001
 20
120.903
 11
-83.1598
 21
120.969
  0
LINE
  8
0
 10
-83.1598
 20
120.969
 11
-83.4092
 21
121.068
  0
LINE
  8
0
 10
-83.4092
 20
121.068
 11
-83.6441
 21
121.197
  0
LINE
  8
0
 10
-83.6441
 20
121.197
 11
-83.8611
 21
121.355
  0
LINE
  8
0
 10
-83.8611
 20
121.355
 11
-84.0566
 21
121.538
  0
LINE
  8
0
 10
-84.0566
 20
121.538
 11
-84.2275
 21
121.745
  0
LINE
  8
0
 10
-84.2275
 20
121.745
 11
-84.3712
 21
121.971
  0
LINE
  8
0
 10
-84.3712
 20
121.971
 11
-84.4853
 21
122.214
  0
LINE
  8
0
 10
-84.4853
 20
122.214
 11
-84.5682
 21
122.469
  0
LINE
  8
0
 10
-84.5682
 20
122.469
 11
-84.6185
 21
122.732
  0
LINE
  8
0
 10
-84.6185
 20
122.732
 11
-84.6353
 21
123
  0
LINE
  8
0
 10
-84.6353
 20
123
 11
-84.6185
 21
123.268
  0
LINE
  8
0
 10
-84.6185
 20
123.268
 11
-84.5682
 21
123.531
  0
LINE
  8
0
 10
-84.5682
 20
123.531
 11
-84.4853
 21
123.786
  0
LINE
  8
0
 10
-84.4853
 20
123.786
 11
-84.3712
 21
124.029
  0
LINE
  8
0
 10
-84.3712
 20
124.029
 11
-84.2275
 21
124.255
  0
LINE
  8
0
 10
-84.2275
 20
124.255
 11
-84.0566
 21
124.462
  0
LINE
  8
0
 10
-84.0566
 20
124.462
 11
-83.8611
 21
124.645
  0
LINE
  8
0
 10
-83.8611
 20
124.645
 11
-83.6441
 21
124.803
  0
LINE
  8
0
 10
-83.6441
 20
124.803
 11
-83.4092
 21
124.932
  0
LINE
  8
0
 10
-83.4092
 20
124.932
 11
-83.1598
 21
125.031
  0
LINE
  8
0
 10
-83.1598
 20
125.031
 11
-82.9001
 21
125.097
  0
LINE
  8
0
 10
-82.9001
 20
125.097
 11
-82.6341
 21
125.131
  0
LINE
  8
0
 10
-82.6341
 20
125.131
 11
-82.3659
 21
125.131
  0
LINE
  8
0
 10
-82.3659
 20
125.131
 11
-82.0999
 21
125.097
  0
LINE
  8
0
 10
-82.0999
 20
125.097
 11
-81.8401
 21
125.031
  0
LINE
  8
0
 10
-81.8401
 20
125.031
 11
-81.5908
 21
124.932
  0
LINE
  8
0
 10
-81.5908
 20
124.932
 11
-81.3559
 21
124.803
  0
LINE
  8
0
 10
-81.3559
 20
124.803
 11
-81.1389
 21
124.645
  0
LINE
  8
0
 10
-81.1389
 20
124.645
 11
-80.9434
 21
124.462
  0
LINE
  8
0
 10
-80.9434
 20
124.462
 11
-80.7725
 21
124.255
  0
LINE
  8
0
 10
-80.7725
 20
124.255
 11
-80.6288
 21
124.029
  0
LINE
  8
0
 10
-80.6288
 20
124.029
 11
-80.5146
 21
123.786
  0
LINE
  8
0
 10
-80.5146
 20
123.786
 11
-80.4318
 21
123.531
  0
LINE
  8
0
 10
-80.4318
 20
123.531
 11
-80.3815
 21
123.268
  0
LINE
  8
0
 10
-80.3815
 20
123.268
 11
-80.3647
 21
123
  0
LINE
  8
0
 10
-80.3647
 20
123
 11
-80.3815
 21
122.732
  0
LINE
  8
0
 10
-80.3815
 20
122.732
 11
-80.4318
 21
122.469
  0
LINE
  8
0
 10
-80.4318
 20
122.469
 11
-80.5146
 21
122.214
  0
LINE
  8
0
 10
-80.5146
 20
122.214
 11
-80.6288
 21
121.971
  0
LINE
  8
0
 10
-80.6288
 20
121.971
 11
-80.7725
 21
121.745
  0
LINE
  8
0
 10
-80.7725
 20
121.745
 11
-80.9434
 21
121.538
  0
LINE
  8
0
 10
-80.9434
 20
121.538
 11
-81.1389
 21
121.355
  0
LINE
  8
0
 10
-81.1389
 20
121.355
 11
-81.3559
 21
121.197
  0
LINE
  8
0
 10
-81.3559
 20
121.197
 11
-81.5908
 21
121.068
  0
LINE
  8
0
 10
-81.5908
 20
121.068
 11
-81.8401
 21
120.969
  0
LINE
  8
0
 10
-81.8401
 20
120.969
 11
-82.0999
 21
120.903
  0
LINE
  8
0
 10
-82.0999
 20
120.903
 11
-82.3659
 21
120.869
  0
LINE
  8
0
 10
-82.3659
 20
120.869
 11
-82.6341
 21
120.869
  0
LINE
  8
0
 10
82.3659
 20
90.8689
 11
82.0999
 21
90.9025
  0
LINE
  8
0
 10
82.0999
 20
90.9025
 11
81.8401
 21
90.9692
  0
LINE
  8
0
 10
81.8401
 20
90.9692
 11
81.5908
 21
91.0679
  0
LINE
  8
0
 10
81.5908
 20
91.0679
 11
81.3559
 21
91.1971
  0
LINE
  8
0
 10
81.3559
 20
91.1971
 11
81.1389
 21
91.3547
  0
LINE
  8
0
 10
81.1389
 20
91.3547
 11
80.9434
 21
91.5383
  0
LINE
  8
0
 10
80.9434
 20
91.5383
 11
80.7725
 21
91.7449
  0
LINE
  8
0
 10
80.7725
 20
91.7449
 11
80.6288
 21
91.9713
  0
LINE
  8
0
 10
80.6288
 20
91.9713
 11
80.5146
 21
92.214
  0
LINE
  8
0
 10
80.5146
 20
92.214
 11
80.4318
 21
92.469
  0
LINE
  8
0
 10
80.4318
 20
92.469
 11
80.3815
 21
92.7324
  0
LINE
  8
0
 10
80.3815
 20
92.7324
 11
80.3647
 21
93
  0
LINE
  8
0
 10
80.3647
 20
93
 11
80.3815
 21
93.2676
  0
LINE
  8
0
 10
80.3815
 20
93.2676
 11
80.4318
 21
93.531
  0
LINE
  8
0
 10
80.4318
 20
93.531
 11
80.5146
 21
93.7861
  0
LINE
  8
0
 10
80.5146
 20
93.7861
 11
80.6288
 21
94.0287
  0
LINE
  8
0
 10
80.6288
 20
94.0287
 11
80.7725
 21
94.2551
  0
LINE
  8
0
 10
80.7725
 20
94.2551
 11
80.9434
 21
94.4617
  0
LINE
  8
0
 10
80.9434
 20
94.4617
 11
81.1389
 21
94.6453
  0
LINE
  8
0
 10
81.1389
 20
94.6453
 11
81.3559
 21
94.8029
  0
LINE
  8
0
 10
81.3559
 20
94.8029
 11
81.5908
 21
94.9321
  0
LINE
  8
0
 10
81.5908
 20
94.9321
 11
81.8401
 21
95.0308
  0
LINE
  8
0
 10
81.8401
 20
95.0308
 11
82.0999
 21
95.0975
  0
LINE
  8
0
 10
82.0999
 20
95.0975
 11
82.3659
 21
95.1311
  0
LINE
  8
0
 10
82.3659
 20
95.1311
 11
82.6341
 21
95.1311
  0
LINE
  8
0
 10
82.6341
 20
95.1311
 11
82.9001
 21
95.0975
  0
LINE
  8
0
 10
82.9001
 20
95.0975
 11
83.1598
 21
95.0308
  0
LINE
  8
0
 10
83.1598
 20
95.0308
 11
83.4092
 21
94.9321
  0
LINE
  8
0
 10
83.4092
 20
94.9321
 11
83.6441
 21
94.8029
  0
LINE
  8
0
 10
83.6441
 20
94.8029
 11
83.8611
 21
94.6453
  0
LINE
  8
0
 10
83.8611
 20
94.6453
 11
84.0566
 21
94.4617
  0
LINE
  8
0
 10
84.0566
 20
94.4617
 11
84.2275
 21
94.2551
  0
LINE
  8
0
 10
84.2275
 20
94.2551
 11
84.3712
 21
94.0287
  0
LINE
  8
0
 10
84.3712
 20
94.0287
 11
84.4853
 21
93.7861
  0
LINE
  8
0
 10
84.4853
 20
93.7861
 11
84.5682
 21
93.531
  0
LINE
  8
0
 10
84.5682
 20
93.531
 11
84.6185
 21
93.2676
  0
LINE
  8
0
 10
84.6185
 20
93.2676
 11
84.6353
 21
93
  0
LINE
  8
0
 10
84.6353
 20
93
 11
84.6185
 21
92.7324
  0
LINE
  8
0
 10
84.6185
 20
92.7324
 11
84.5682
 21
92.469
  0
LINE
  8
0
 10
84.5682
 20
92.469
 11
84.4853
 21
92.214
  0
LINE
  8
0
 10
84.4853
 20
92.214
 11
84.3712
 21
91.9713
  0
LINE
  8
0
 10
84.3712
 20
91.9713
 11
84.2275
 21
91.7449
  0
LINE
  8
0
 10
84.2275
 20
91.7449
 11
84.0566
 21
91.5383
  0
LINE
  8
0
 10
84.0566
 20
91.5383
 11
83.8611
 21
91.3547
  0
LINE
  8
0
 10
83.8611
 20
91.3547
 11
83.6441
 21
91.1971
  0
LINE
  8
0
 10
83.6441
 20
91.1971
 11
83.4092
 21
91.0679
  0
LINE
  8
0
 10
83.4092
 20
91.0679
 11
83.1598
 21
90.9692
  0
LINE
  8
0
 10
83.1598
 20
90.9692
 11
82.9001
 21
90.9025
  0
LINE
  8
0
 10
82.9001
 20
90.9025
 11
82.6341
 21
90.8689
  0
LINE
  8
0
 10
82.6341
 20
90.8689
 11
82.3659
 21
90.8689
  0
LINE
  8
0
 10
-82.6341
 20
90.8689
 11
-82.9001
 21
90.9025
  0
LINE
  8
0
 10
-82.9001
 20
90.9025
 11
-83.1598
 21
90.9692
  0
LINE
  8
0
 10
-83.1598
 20
90.9692
 11
-83.4092
 21
91.0679
  0
LINE
  8
0
 10
-83.4092
 20
91.0679
 11
-83.6441
 21
91.1971
  0
LINE
  8
0
 10
-83.6441
 20
91.1971
 11
-83.8611
 21
91.3547
  0
LINE
  8
0
 10
-83.8611
 20
91.3547
 11
-84.0566
 21
91.5383
  0
LINE
  8
0
 10
-84.0566
 20
91.5383
 11
-84.2275
 21
91.7449
  0
LINE
  8
0
 10
-84.2275
 20
91.7449
 11
-84.3712
 21
91.9713
  0
LINE
  8
0
 10
-84.3712
 20
91.9713
 11
-84.4853
 21
92.214
  0
LINE
  8
0
 10
-84.4853
 20
92.214
 11
-84.5682
 21
92.469
  0
LINE
  8
0
 10
-84.5682
 20
92.469
 11
-84.6185
 21
92.7324
  0
LINE
  8
0
 10
-84.6185
 20
92.7324
 11
-84.6353
 21
93
  0
LINE
  8
0
 10
-84.6353
 20
93
 11
-84.6185
 21
93.2676
  0
LINE
  8
0
 10
-84.6185
 20
93.2676
 11
-84.5682
 21
93.531
  0
LINE
  8
0
 10
-84.5682
 20
93.531
 11
-84.4853
 21
93.7861
  0
LINE
  8
0
 10
-84.4853
 20
93.7861
 11
-84.3712
 21
94.0287
  0
LINE
  8
0
 10
-84.3712
 20
94.0287
 11
-84.2275
 21
94.2551
  0
LINE
  8
0
 10
-84.2275
 20
94.2551
 11
-84.0566
 21
94.4617
  0
LINE
  8
0
 10
-84.0566
 20
94.4617
 11
-83.8611
 21
94.6453
  0
LINE
  8
0
 10
-83.8611
 20
94.6453
 11
-83.6441
 21
94.8029
  0
LINE
  8
0
 10
-83.6441
 20
94.8029
 11
-83.4092
 21
94.9321
  0
LINE
  8
0
 10
-83.4092
 20
94.9321
 11
-83.1598
 21
95.0308
  0
LINE
  8
0
 10
-83.1598
 20
95.0308
 11
-82.9001
 21
95.0975
  0
LINE
  8
0
 10
-82.9001
 20
95.0975
 11
-82.6341
 21
95.1311
  0
LINE
  8
0
 10
-82.6341
 20
95.1311
 11
-82.3659
 21
95.1311
  0
LINE
  8
0
 10
-82.3659
 20
95.1311
 11
-82.0999
 21
95.0975
  0
LINE
  8
0
 10
-82.0999
 20
95.0975
 11
-81.8401
 21
95.0308
  0
LINE
  8
0
 10
-81.8401
 20
95.0308
 11
-81.5908
 21
94.9321
  0
LINE
  8
0
 10
-81.5908
 20
94.9321
 11
-81.3559
 21
94.8029
  0
LINE
  8
0
 10
-81.3559
 20
94.8029
 11
-81.1389
 21
94.6453
  0
LINE
  8
0
 10
-81.1389
 20
94.6453
 11
-80.9434
 21
94.4617
  0
LINE
  8
0
 10
-80.9434
 20
94.4617
 11
-80.7725
 21
94.2551
  0
LINE
  8
0
 10
-80.7725
 20
94.2551
 11
-80.6288
 21
94.0287
  0
LINE
  8
0
 10
-80.6288
 20
94.0287
 11
-80.5146
 21
93.7861
  0
LINE
  8
0
 10
-80.5146
 20
93.7861
 11
-80.4318
 21
93.531
  0
LINE
  8
0
 10
-80.4318
 20
93.531
 11
-80.3815
 21
93.2676
  0
LINE
  8
0
 10
-80.3815
 20
93.2676
 11
-80.3647
 21
93
  0
LINE
  8
0
 10
-80.3647
 20
93
 11
-80.3815
 21
92.7324
  0
LINE
  8
0
 10
-80.3815
 20
92.7324
 11
-80.4318
 21
92.469
  0
LINE
  8
0
 10
-80.4318
 20
92.469
 11
-80.5146
 21
92.214
  0
LINE
  8
0
 10
-80.5146
 20
92.214
 11
-80.6288
 21
91.9713
  0
LINE
  8
0
 10
-80.6288
 20
91.9713
 11
-80.7725
 21
91.7449
  0
LINE
  8
0
 10
-80.7725
 20
91.7449
 11
-80.9434
 21
91.5383
  0
LINE
  8
0
 10
-80.9434
 20
91.5383
 11
-81.1389
 21
91.3547
  0
LINE
  8
0
 10
-81.1389
 20
91.3547
 11
-81.3559
 21
91.1971
  0
LINE
  8
0
 10
-81.3559
 20
91.1971
 11
-81.5908
 21
91.0679
  0
LINE
  8
0
 10
-81.5908
 20
91.0679
 11
-81.8401
 21
90.9692
  0
LINE
  8
0
 10
-81.8401
 20
90.9692
 11
-82.0999
 21
90.9025
  0
LINE
  8
0
 10
-82.0999
 20
90.9025
 11
-82.3659
 21
90.8689
  0
LINE
  8
0
 10
-82.3659
 20
90.8689
 11
-82.6341
 21
90.8689
  0
ENDSEC
  0
SECTION
  2
OBJECTS
  0
DICTIONARY
  0
ENDSEC
  0
EOF
