<?xml version="1.0" standalone="no"?>
<!DOCTYPE svg PUBLIC "-//W3C//DTD SVG 1.1//EN" "http://www.w3.org/Graphics/SVG/1.1/DTD/svg11.dtd">
<svg width="166mm" height="40mm" viewBox="-83 -80 166 40" xmlns="http://www.w3.org/2000/svg" version="1.1">
<title>OpenSCAD Model</title>
<path d="
M 78.4369,-64.5886 L 79.0451,-64.7447 L 79.6289,-64.9759 L 80.1791,-65.2784 L 80.6871,-65.6474 L 81.1448,-66.0773
 L 81.5451,-66.5611 L 81.8815,-67.0912 L 82.1489,-67.6594 L 82.3429,-68.2566 L 82.4606,-68.8733 L 82.5,-69.5
 L 82.5,-74.5 L 82.4606,-75.1267 L 82.3429,-75.7434 L 82.1489,-76.3406 L 81.8815,-76.9088 L 81.5451,-77.4389
 L 81.1448,-77.9227 L 80.6871,-78.3526 L 80.1791,-78.7216 L 79.6289,-79.0241 L 79.0451,-79.2553 L 78.4369,-79.4114
 L 77.8139,-79.4901 L -77.8139,-79.4901 L -78.4369,-79.4114 L -79.0451,-79.2553 L -79.6289,-79.0241 L -80.1791,-78.7216
 L -80.6871,-78.3526 L -81.1448,-77.9227 L -81.5451,-77.4389 L -81.8815,-76.9088 L -82.1489,-76.3406 L -82.3429,-75.7434
 L -82.4606,-75.1267 L -82.5,-74.5 L -82.5,-69.5 L -82.4606,-68.8733 L -82.3429,-68.2566 L -82.1489,-67.6594
 L -81.8815,-67.0912 L -81.5451,-66.5611 L -81.1448,-66.0773 L -80.6871,-65.6474 L -80.1791,-65.2784 L -79.6289,-64.9759
 L -79.0451,-64.7447 L -78.4369,-64.5886 L -77.8139,-64.5099 L 77.8139,-64.5099 z
M -77.5375,-65.1806 L -78.1079,-65.2527 L -78.6648,-65.3956 L -79.1994,-65.6073 L -79.7032,-65.8843 L -80.1684,-66.2223
 L -80.5875,-66.6158 L -80.954,-67.0589 L -81.2621,-67.5443 L -81.5069,-68.0646 L -81.6846,-68.6114 L -81.7923,-69.1762
 L -81.8284,-69.75 L -81.8284,-74.25 L -81.7923,-74.8238 L -81.6846,-75.3886 L -81.5069,-75.9354 L -81.2621,-76.4557
 L -80.954,-76.9411 L -80.5875,-77.3842 L -80.1684,-77.7777 L -79.7032,-78.1157 L -79.1994,-78.3927 L -78.6648,-78.6044
 L -78.1079,-78.7473 L -77.5375,-78.8194 L 77.5375,-78.8194 L 78.1079,-78.7473 L 78.6648,-78.6044 L 79.1994,-78.3927
 L 79.7032,-78.1157 L 80.1684,-77.7777 L 80.5875,-77.3842 L 80.954,-76.9411 L 81.2621,-76.4557 L 81.5069,-75.9354
 L 81.6846,-75.3886 L 81.7923,-74.8238 L 81.8284,-74.25 L 81.8284,-69.75 L 81.7923,-69.1762 L 81.6846,-68.6114
 L 81.5069,-68.0646 L 81.2621,-67.5443 L 80.954,-67.0589 L 80.5875,-66.6158 L 80.1684,-66.2223 L 79.7032,-65.8843
 L 79.1994,-65.6073 L 78.6648,-65.3956 L 78.1079,-65.2527 L 77.5375,-65.1806 z
M 78.4369,-40.5886 L 79.0451,-40.7447 L 79.6289,-40.9759 L 80.1791,-41.2784 L 80.6871,-41.6474 L 81.1448,-42.0773
 L 81.5451,-42.5611 L 81.8815,-43.0912 L 82.1489,-43.6594 L 82.3429,-44.2566 L 82.4606,-44.8733 L 82.5,-45.5
 L 82.5,-50.5 L 82.4606,-51.1267 L 82.3429,-51.7434 L 82.1489,-52.3406 L 81.8815,-52.9088 L 81.5451,-53.4389
 L 81.1448,-53.9227 L 80.6871,-54.3526 L 80.1791,-54.7216 L 79.6289,-55.0241 L 79.0451,-55.2553 L 78.4369,-55.4114
 L 77.8139,-55.4901 L -77.8139,-55.4901 L -78.4369,-55.4114 L -79.0451,-55.2553 L -79.6289,-55.0241 L -80.1791,-54.7216
 L -80.6871,-54.3526 L -81.1448,-53.9227 L -81.5451,-53.4389 L -81.8815,-52.9088 L -82.1489,-52.3406 L -82.3429,-51.7434
 L -82.4606,-51.1267 L -82.5,-50.5 L -82.5,-45.5 L -82.4606,-44.8733 L -82.3429,-44.2566 L -82.1489,-43.6594
 L -81.8815,-43.0912 L -81.5451,-42.5611 L -81.1448,-42.0773 L -80.6871,-41.6474 L -80.1791,-41.2784 L -79.6289,-40.9759
 L -79.0451,-40.7447 L -78.4369,-40.5886 L -77.8139,-40.5099 L 77.8139,-40.5099 z
M -77.3825,-43.6445 L -77.6453,-43.6777 L -77.9019,-43.7436 L -78.1482,-43.8412 L -78.3804,-43.9688 L -78.5947,-44.1245
 L -78.7879,-44.3059 L -78.9567,-44.51 L -79.0987,-44.7337 L -79.2115,-44.9734 L -79.2934,-45.2254 L -79.343,-45.4856
 L -79.3596,-45.75 L -79.3596,-50.25 L -79.343,-50.5144 L -79.2934,-50.7746 L -79.2115,-51.0266 L -79.0987,-51.2663
 L -78.9567,-51.49 L -78.7879,-51.6941 L -78.5947,-51.8755 L -78.3804,-52.0312 L -78.1482,-52.1588 L -77.9019,-52.2564
 L -77.6453,-52.3223 L -77.3825,-52.3555 L 77.3825,-52.3555 L 77.6453,-52.3223 L 77.9019,-52.2564 L 78.1482,-52.1588
 L 78.3804,-52.0312 L 78.5947,-51.8755 L 78.7879,-51.6941 L 78.9567,-51.49 L 79.0987,-51.2663 L 79.2115,-51.0266
 L 79.2934,-50.7746 L 79.343,-50.5144 L 79.3596,-50.25 L 79.3596,-45.75 L 79.343,-45.4856 L 79.2934,-45.2254
 L 79.2115,-44.9734 L 79.0987,-44.7337 L 78.9567,-44.51 L 78.7879,-44.3059 L 78.5947,-44.1245 L 78.3804,-43.9688
 L 78.1482,-43.8412 L 77.9019,-43.7436 L 77.6453,-43.6777 L 77.3825,-43.6445 z
" stroke="black" fill="lightgray" stroke-width="0.5"/>
</svg>
