<?xml version="1.0" standalone="no"?>
<!DOCTYPE svg PUBLIC "-//W3C//DTD SVG 1.1//EN" "http://www.w3.org/Graphics/SVG/1.1/DTD/svg11.dtd">
<svg width="136mm" height="262mm" viewBox="-68 -509 136 262" xmlns="http://www.w3.org/2000/svg" version="1.1">
<title>OpenSCAD Model</title>
<path d="
M 63.4369,-463.589 L 64.0451,-463.745 L 64.6289,-463.976 L 65.1791,-464.278 L 65.6871,-464.647 L 66.1448,-465.077
 L 66.5451,-465.561 L 66.8815,-466.091 L 67.1489,-466.659 L 67.3429,-467.257 L 67.4606,-467.873 L 67.5,-468.5
 L 67.5,-503.5 L 67.4606,-504.127 L 67.3429,-504.743 L 67.1489,-505.341 L 66.8815,-505.909 L 66.5451,-506.439
 L 66.1448,-506.923 L 65.6871,-507.353 L 65.1791,-507.722 L 64.6289,-508.024 L 64.0451,-508.255 L 63.4369,-508.411
 L 62.8139,-508.49 L -62.8139,-508.49 L -63.4369,-508.411 L -64.0451,-508.255 L -64.6289,-508.024 L -65.1791,-507.722
 L -65.6871,-507.353 L -66.1448,-506.923 L -66.5451,-506.439 L -66.8815,-505.909 L -67.1489,-505.341 L -67.3429,-504.743
 L -67.4606,-504.127 L -67.5,-503.5 L -67.5,-468.5 L -67.4606,-467.873 L -67.3429,-467.257 L -67.1489,-466.659
 L -66.8815,-466.091 L -66.5451,-465.561 L -66.1448,-465.077 L -65.6871,-464.647 L -65.1791,-464.278 L -64.6289,-463.976
 L -64.0451,-463.745 L -63.4369,-463.589 L -62.8139,-463.51 L 62.8139,-463.51 z
M -62.5482,-464.009 L -63.1401,-464.084 L -63.7178,-464.232 L -64.2724,-464.452 L -64.7952,-464.739 L -65.2778,-465.09
 L -65.7126,-465.498 L -66.0928,-465.958 L -66.4125,-466.462 L -66.6664,-467.001 L -66.8508,-467.569 L -66.9625,-468.155
 L -67,-468.75 L -67,-503.25 L -66.9625,-503.845 L -66.8508,-504.431 L -66.6664,-504.999 L -66.4125,-505.538
 L -66.0928,-506.042 L -65.7126,-506.502 L -65.2778,-506.91 L -64.7952,-507.261 L -64.2724,-507.548 L -63.7178,-507.768
 L -63.1401,-507.916 L -62.5482,-507.991 L 62.5482,-507.991 L 63.1401,-507.916 L 63.7178,-507.768 L 64.2724,-507.548
 L 64.7952,-507.261 L 65.2778,-506.91 L 65.7126,-506.502 L 66.0928,-506.042 L 66.4125,-505.538 L 66.6664,-504.999
 L 66.8508,-504.431 L 66.9625,-503.845 L 67,-503.25 L 67,-468.75 L 66.9625,-468.155 L 66.8508,-467.569
 L 66.6664,-467.001 L 66.4125,-466.462 L 66.0928,-465.958 L 65.7126,-465.498 L 65.2778,-465.09 L 64.7952,-464.739
 L 64.2724,-464.452 L 63.7178,-464.232 L 63.1401,-464.084 L 62.5482,-464.009 z
M 63.4369,-409.589 L 64.0451,-409.745 L 64.6289,-409.976 L 65.1791,-410.278 L 65.6871,-410.647 L 66.1448,-411.077
 L 66.5451,-411.561 L 66.8815,-412.091 L 67.1489,-412.659 L 67.3429,-413.257 L 67.4606,-413.873 L 67.5,-414.5
 L 67.5,-449.5 L 67.4606,-450.127 L 67.3429,-450.743 L 67.1489,-451.341 L 66.8815,-451.909 L 66.5451,-452.439
 L 66.1448,-452.923 L 65.6871,-453.353 L 65.1791,-453.722 L 64.6289,-454.024 L 64.0451,-454.255 L 63.4369,-454.411
 L 62.8139,-454.49 L -62.8139,-454.49 L -63.4369,-454.411 L -64.0451,-454.255 L -64.6289,-454.024 L -65.1791,-453.722
 L -65.6871,-453.353 L -66.1448,-452.923 L -66.5451,-452.439 L -66.8815,-451.909 L -67.1489,-451.341 L -67.3429,-450.743
 L -67.4606,-450.127 L -67.5,-449.5 L -67.5,-414.5 L -67.4606,-413.873 L -67.3429,-413.257 L -67.1489,-412.659
 L -66.8815,-412.091 L -66.5451,-411.561 L -66.1448,-411.077 L -65.6871,-410.647 L -65.1791,-410.278 L -64.6289,-409.976
 L -64.0451,-409.745 L -63.4369,-409.589 L -62.8139,-409.51 L 62.8139,-409.51 z
M -62.5482,-410.009 L -63.1401,-410.084 L -63.7178,-410.232 L -64.2724,-410.452 L -64.7952,-410.739 L -65.2778,-411.09
 L -65.7126,-411.498 L -66.0928,-411.958 L -66.4125,-412.462 L -66.6664,-413.001 L -66.8508,-413.569 L -66.9625,-414.155
 L -67,-414.75 L -67,-449.25 L -66.9625,-449.845 L -66.8508,-450.431 L -66.6664,-450.999 L -66.4125,-451.538
 L -66.0928,-452.042 L -65.7126,-452.502 L -65.2778,-452.91 L -64.7952,-453.261 L -64.2724,-453.548 L -63.7178,-453.768
 L -63.1401,-453.916 L -62.5482,-453.991 L 62.5482,-453.991 L 63.1401,-453.916 L 63.7178,-453.768 L 64.2724,-453.548
 L 64.7952,-453.261 L 65.2778,-452.91 L 65.7126,-452.502 L 66.0928,-452.042 L 66.4125,-451.538 L 66.6664,-450.999
 L 66.8508,-450.431 L 66.9625,-449.845 L 67,-449.25 L 67,-414.75 L 66.9625,-414.155 L 66.8508,-413.569
 L 66.6664,-413.001 L 66.4125,-412.462 L 66.0928,-411.958 L 65.7126,-411.498 L 65.2778,-411.09 L 64.7952,-410.739
 L 64.2724,-410.452 L 63.7178,-410.232 L 63.1401,-410.084 L 62.5482,-410.009 z
M 63.4369,-355.589 L 64.0451,-355.745 L 64.6289,-355.976 L 65.1791,-356.278 L 65.6871,-356.647 L 66.1448,-357.077
 L 66.5451,-357.561 L 66.8815,-358.091 L 67.1489,-358.659 L 67.3429,-359.257 L 67.4606,-359.873 L 67.5,-360.5
 L 67.5,-395.5 L 67.4606,-396.127 L 67.3429,-396.743 L 67.1489,-397.341 L 66.8815,-397.909 L 66.5451,-398.439
 L 66.1448,-398.923 L 65.6871,-399.353 L 65.1791,-399.722 L 64.6289,-400.024 L 64.0451,-400.255 L 63.4369,-400.411
 L 62.8139,-400.49 L -62.8139,-400.49 L -63.4369,-400.411 L -64.0451,-400.255 L -64.6289,-400.024 L -65.1791,-399.722
 L -65.6871,-399.353 L -66.1448,-398.923 L -66.5451,-398.439 L -66.8815,-397.909 L -67.1489,-397.341 L -67.3429,-396.743
 L -67.4606,-396.127 L -67.5,-395.5 L -67.5,-360.5 L -67.4606,-359.873 L -67.3429,-359.257 L -67.1489,-358.659
 L -66.8815,-358.091 L -66.5451,-357.561 L -66.1448,-357.077 L -65.6871,-356.647 L -65.1791,-356.278 L -64.6289,-355.976
 L -64.0451,-355.745 L -63.4369,-355.589 L -62.8139,-355.51 L 62.8139,-355.51 z
M -62.5482,-356.009 L -63.1401,-356.084 L -63.7178,-356.232 L -64.2724,-356.452 L -64.7952,-356.739 L -65.2778,-357.09
 L -65.7126,-357.498 L -66.0928,-357.958 L -66.4125,-358.462 L -66.6664,-359.001 L -66.8508,-359.569 L -66.9625,-360.155
 L -67,-360.75 L -67,-395.25 L -66.9625,-395.845 L -66.8508,-396.431 L -66.6664,-396.999 L -66.4125,-397.538
 L -66.0928,-398.042 L -65.7126,-398.502 L -65.2778,-398.91 L -64.7952,-399.261 L -64.2724,-399.548 L -63.7178,-399.768
 L -63.1401,-399.916 L -62.5482,-399.991 L 62.5482,-399.991 L 63.1401,-399.916 L 63.7178,-399.768 L 64.2724,-399.548
 L 64.7952,-399.261 L 65.2778,-398.91 L 65.7126,-398.502 L 66.0928,-398.042 L 66.4125,-397.538 L 66.6664,-396.999
 L 66.8508,-396.431 L 66.9625,-395.845 L 67,-395.25 L 67,-360.75 L 66.9625,-360.155 L 66.8508,-359.569
 L 66.6664,-359.001 L 66.4125,-358.462 L 66.0928,-357.958 L 65.7126,-357.498 L 65.2778,-357.09 L 64.7952,-356.739
 L 64.2724,-356.452 L 63.7178,-356.232 L 63.1401,-356.084 L 62.5482,-356.009 z
M 63.4369,-301.589 L 64.0451,-301.745 L 64.6289,-301.976 L 65.1791,-302.278 L 65.6871,-302.647 L 66.1448,-303.077
 L 66.5451,-303.561 L 66.8815,-304.091 L 67.1489,-304.659 L 67.3429,-305.257 L 67.4606,-305.873 L 67.5,-306.5
 L 67.5,-341.5 L 67.4606,-342.127 L 67.3429,-342.743 L 67.1489,-343.341 L 66.8815,-343.909 L 66.5451,-344.439
 L 66.1448,-344.923 L 65.6871,-345.353 L 65.1791,-345.722 L 64.6289,-346.024 L 64.0451,-346.255 L 63.4369,-346.411
 L 62.8139,-346.49 L -62.8139,-346.49 L -63.4369,-346.411 L -64.0451,-346.255 L -64.6289,-346.024 L -65.1791,-345.722
 L -65.6871,-345.353 L -66.1448,-344.923 L -66.5451,-344.439 L -66.8815,-343.909 L -67.1489,-343.341 L -67.3429,-342.743
 L -67.4606,-342.127 L -67.5,-341.5 L -67.5,-306.5 L -67.4606,-305.873 L -67.3429,-305.257 L -67.1489,-304.659
 L -66.8815,-304.091 L -66.5451,-303.561 L -66.1448,-303.077 L -65.6871,-302.647 L -65.1791,-302.278 L -64.6289,-301.976
 L -64.0451,-301.745 L -63.4369,-301.589 L -62.8139,-301.51 L 62.8139,-301.51 z
M -62.5375,-302.181 L -63.1079,-302.253 L -63.6648,-302.396 L -64.1994,-302.607 L -64.7032,-302.884 L -65.1684,-303.222
 L -65.5875,-303.616 L -65.954,-304.059 L -66.2621,-304.544 L -66.5069,-305.065 L -66.6846,-305.611 L -66.7923,-306.176
 L -66.8284,-306.75 L -66.8284,-341.25 L -66.7923,-341.824 L -66.6846,-342.389 L -66.5069,-342.935 L -66.2621,-343.456
 L -65.954,-343.941 L -65.5875,-344.384 L -65.1684,-344.778 L -64.7032,-345.116 L -64.1994,-345.393 L -63.6648,-345.604
 L -63.1079,-345.747 L -62.5375,-345.819 L 62.5375,-345.819 L 63.1079,-345.747 L 63.6648,-345.604 L 64.1994,-345.393
 L 64.7032,-345.116 L 65.1684,-344.778 L 65.5875,-344.384 L 65.954,-343.941 L 66.2621,-343.456 L 66.5069,-342.935
 L 66.6846,-342.389 L 66.7923,-341.824 L 66.8284,-341.25 L 66.8284,-306.75 L 66.7923,-306.176 L 66.6846,-305.611
 L 66.5069,-305.065 L 66.2621,-304.544 L 65.954,-304.059 L 65.5875,-303.616 L 65.1684,-303.222 L 64.7032,-302.884
 L 64.1994,-302.607 L 63.6648,-302.396 L 63.1079,-302.253 L 62.5375,-302.181 z
M 63.4369,-247.589 L 64.0451,-247.745 L 64.6289,-247.976 L 65.1791,-248.278 L 65.6871,-248.647 L 66.1448,-249.077
 L 66.5451,-249.561 L 66.8815,-250.091 L 67.1489,-250.659 L 67.3429,-251.257 L 67.4606,-251.873 L 67.5,-252.5
 L 67.5,-287.5 L 67.4606,-288.127 L 67.3429,-288.743 L 67.1489,-289.341 L 66.8815,-289.909 L 66.5451,-290.439
 L 66.1448,-290.923 L 65.6871,-291.353 L 65.1791,-291.722 L 64.6289,-292.024 L 64.0451,-292.255 L 63.4369,-292.411
 L 62.8139,-292.49 L -62.8139,-292.49 L -63.4369,-292.411 L -64.0451,-292.255 L -64.6289,-292.024 L -65.1791,-291.722
 L -65.6871,-291.353 L -66.1448,-290.923 L -66.5451,-290.439 L -66.8815,-289.909 L -67.1489,-289.341 L -67.3429,-288.743
 L -67.4606,-288.127 L -67.5,-287.5 L -67.5,-252.5 L -67.4606,-251.873 L -67.3429,-251.257 L -67.1489,-250.659
 L -66.8815,-250.091 L -66.5451,-249.561 L -66.1448,-249.077 L -65.6871,-248.647 L -65.1791,-248.278 L -64.6289,-247.976
 L -64.0451,-247.745 L -63.4369,-247.589 L -62.8139,-247.51 L 62.8139,-247.51 z
M -62.3825,-250.645 L -62.6453,-250.678 L -62.9019,-250.744 L -63.1482,-250.841 L -63.3804,-250.969 L -63.5947,-251.125
 L -63.7879,-251.306 L -63.9567,-251.51 L -64.0987,-251.734 L -64.2115,-251.973 L -64.2934,-252.225 L -64.343,-252.486
 L -64.3596,-252.75 L -64.3596,-287.25 L -64.343,-287.514 L -64.2934,-287.775 L -64.2115,-288.027 L -64.0987,-288.266
 L -63.9567,-288.49 L -63.7879,-288.694 L -63.5947,-288.875 L -63.3804,-289.031 L -63.1482,-289.159 L -62.9019,-289.256
 L -62.6453,-289.322 L -62.3825,-289.355 L 62.3825,-289.355 L 62.6453,-289.322 L 62.9019,-289.256 L 63.1482,-289.159
 L 63.3804,-289.031 L 63.5947,-288.875 L 63.7879,-288.694 L 63.9567,-288.49 L 64.0987,-288.266 L 64.2115,-288.027
 L 64.2934,-287.775 L 64.343,-287.514 L 64.3596,-287.25 L 64.3596,-252.75 L 64.343,-252.486 L 64.2934,-252.225
 L 64.2115,-251.973 L 64.0987,-251.734 L 63.9567,-251.51 L 63.7879,-251.306 L 63.5947,-251.125 L 63.3804,-250.969
 L 63.1482,-250.841 L 62.9019,-250.744 L 62.6453,-250.678 L 62.3825,-250.645 z
" stroke="black" fill="lightgray" stroke-width="0.5"/>
</svg>
