<?xml version="1.0" standalone="no"?>
<!DOCTYPE svg PUBLIC "-//W3C//DTD SVG 1.1//EN" "http://www.w3.org/Graphics/SVG/1.1/DTD/svg11.dtd">
<svg width="76mm" height="40mm" viewBox="-38 -80 76 40" xmlns="http://www.w3.org/2000/svg" version="1.1">
<title>OpenSCAD Model</title>
<path d="
M 33.4369,-64.5886 L 34.0451,-64.7447 L 34.6289,-64.9759 L 35.1791,-65.2784 L 35.6871,-65.6474 L 36.1448,-66.0773
 L 36.5451,-66.5611 L 36.8815,-67.0912 L 37.1489,-67.6594 L 37.3429,-68.2566 L 37.4606,-68.8733 L 37.5,-69.5
 L 37.5,-74.5 L 37.4606,-75.1267 L 37.3429,-75.7434 L 37.1489,-76.3406 L 36.8815,-76.9088 L 36.5451,-77.4389
 L 36.1448,-77.9227 L 35.6871,-78.3526 L 35.1791,-78.7216 L 34.6289,-79.0241 L 34.0451,-79.2553 L 33.4369,-79.4114
 L 32.8139,-79.4901 L -32.8139,-79.4901 L -33.4369,-79.4114 L -34.0451,-79.2553 L -34.6289,-79.0241 L -35.1791,-78.7216
 L -35.6871,-78.3526 L -36.1448,-77.9227 L -36.5451,-77.4389 L -36.8815,-76.9088 L -37.1489,-76.3406 L -37.3429,-75.7434
 L -37.4606,-75.1267 L -37.5,-74.5 L -37.5,-69.5 L -37.4606,-68.8733 L -37.3429,-68.2566 L -37.1489,-67.6594
 L -36.8815,-67.0912 L -36.5451,-66.5611 L -36.1448,-66.0773 L -35.6871,-65.6474 L -35.1791,-65.2784 L -34.6289,-64.9759
 L -34.0451,-64.7447 L -33.4369,-64.5886 L -32.8139,-64.5099 L 32.8139,-64.5099 z
M -32.5375,-65.1806 L -33.1079,-65.2527 L -33.6648,-65.3956 L -34.1994,-65.6073 L -34.7032,-65.8843 L -35.1684,-66.2223
 L -35.5875,-66.6158 L -35.954,-67.0589 L -36.2621,-67.5443 L -36.5069,-68.0646 L -36.6846,-68.6114 L -36.7923,-69.1762
 L -36.8284,-69.75 L -36.8284,-74.25 L -36.7923,-74.8238 L -36.6846,-75.3886 L -36.5069,-75.9354 L -36.2621,-76.4557
 L -35.954,-76.9411 L -35.5875,-77.3842 L -35.1684,-77.7777 L -34.7032,-78.1157 L -34.1994,-78.3927 L -33.6648,-78.6044
 L -33.1079,-78.7473 L -32.5375,-78.8194 L 32.5375,-78.8194 L 33.1079,-78.7473 L 33.6648,-78.6044 L 34.1994,-78.3927
 L 34.7032,-78.1157 L 35.1684,-77.7777 L 35.5875,-77.3842 L 35.954,-76.9411 L 36.2621,-76.4557 L 36.5069,-75.9354
 L 36.6846,-75.3886 L 36.7923,-74.8238 L 36.8284,-74.25 L 36.8284,-69.75 L 36.7923,-69.1762 L 36.6846,-68.6114
 L 36.5069,-68.0646 L 36.2621,-67.5443 L 35.954,-67.0589 L 35.5875,-66.6158 L 35.1684,-66.2223 L 34.7032,-65.8843
 L 34.1994,-65.6073 L 33.6648,-65.3956 L 33.1079,-65.2527 L 32.5375,-65.1806 z
M 33.4369,-40.5886 L 34.0451,-40.7447 L 34.6289,-40.9759 L 35.1791,-41.2784 L 35.6871,-41.6474 L 36.1448,-42.0773
 L 36.5451,-42.5611 L 36.8815,-43.0912 L 37.1489,-43.6594 L 37.3429,-44.2566 L 37.4606,-44.8733 L 37.5,-45.5
 L 37.5,-50.5 L 37.4606,-51.1267 L 37.3429,-51.7434 L 37.1489,-52.3406 L 36.8815,-52.9088 L 36.5451,-53.4389
 L 36.1448,-53.9227 L 35.6871,-54.3526 L 35.1791,-54.7216 L 34.6289,-55.0241 L 34.0451,-55.2553 L 33.4369,-55.4114
 L 32.8139,-55.4901 L -32.8139,-55.4901 L -33.4369,-55.4114 L -34.0451,-55.2553 L -34.6289,-55.0241 L -35.1791,-54.7216
 L -35.6871,-54.3526 L -36.1448,-53.9227 L -36.5451,-53.4389 L -36.8815,-52.9088 L -37.1489,-52.3406 L -37.3429,-51.7434
 L -37.4606,-51.1267 L -37.5,-50.5 L -37.5,-45.5 L -37.4606,-44.8733 L -37.3429,-44.2566 L -37.1489,-43.6594
 L -36.8815,-43.0912 L -36.5451,-42.5611 L -36.1448,-42.0773 L -35.6871,-41.6474 L -35.1791,-41.2784 L -34.6289,-40.9759
 L -34.0451,-40.7447 L -33.4369,-40.5886 L -32.8139,-40.5099 L 32.8139,-40.5099 z
M -32.3825,-43.6445 L -32.6453,-43.6777 L -32.9019,-43.7436 L -33.1482,-43.8412 L -33.3804,-43.9688 L -33.5947,-44.1245
 L -33.7879,-44.3059 L -33.9567,-44.51 L -34.0987,-44.7337 L -34.2115,-44.9734 L -34.2934,-45.2254 L -34.343,-45.4856
 L -34.3596,-45.75 L -34.3596,-50.25 L -34.343,-50.5144 L -34.2934,-50.7746 L -34.2115,-51.0266 L -34.0987,-51.2663
 L -33.9567,-51.49 L -33.7879,-51.6941 L -33.5947,-51.8755 L -33.3804,-52.0312 L -33.1482,-52.1588 L -32.9019,-52.2564
 L -32.6453,-52.3223 L -32.3825,-52.3555 L 32.3825,-52.3555 L 32.6453,-52.3223 L 32.9019,-52.2564 L 33.1482,-52.1588
 L 33.3804,-52.0312 L 33.5947,-51.8755 L 33.7879,-51.6941 L 33.9567,-51.49 L 34.0987,-51.2663 L 34.2115,-51.0266
 L 34.2934,-50.7746 L 34.343,-50.5144 L 34.3596,-50.25 L 34.3596,-45.75 L 34.343,-45.4856 L 34.2934,-45.2254
 L 34.2115,-44.9734 L 34.0987,-44.7337 L 33.9567,-44.51 L 33.7879,-44.3059 L 33.5947,-44.1245 L 33.3804,-43.9688
 L 33.1482,-43.8412 L 32.9019,-43.7436 L 32.6453,-43.6777 L 32.3825,-43.6445 z
" stroke="black" fill="lightgray" stroke-width="0.5"/>
</svg>
