<?xml version="1.0" standalone="no"?>
<!DOCTYPE svg PUBLIC "-//W3C//DTD SVG 1.1//EN" "http://www.w3.org/Graphics/SVG/1.1/DTD/svg11.dtd">
<svg width="60mm" height="334mm" viewBox="-30 -509 60 334" xmlns="http://www.w3.org/2000/svg" version="1.1">
<title>OpenSCAD Model</title>
<path d="
M 25.9369,-403.589 L 26.5451,-403.745 L 27.1289,-403.976 L 27.6791,-404.278 L 28.1871,-404.647 L 28.6448,-405.077
 L 29.0451,-405.561 L 29.3815,-406.091 L 29.6489,-406.659 L 29.8429,-407.257 L 29.9606,-407.873 L 30,-408.5
 L 30,-503.5 L 29.9606,-504.127 L 29.8429,-504.743 L 29.6489,-505.341 L 29.3815,-505.909 L 29.0451,-506.439
 L 28.6448,-506.923 L 28.1871,-507.353 L 27.6791,-507.722 L 27.1289,-508.024 L 26.5451,-508.255 L 25.9369,-508.411
 L 25.3139,-508.49 L -25.3139,-508.49 L -25.9369,-508.411 L -26.5451,-508.255 L -27.1289,-508.024 L -27.6791,-507.722
 L -28.1871,-507.353 L -28.6448,-506.923 L -29.0451,-506.439 L -29.3815,-505.909 L -29.6489,-505.341 L -29.8429,-504.743
 L -29.9606,-504.127 L -30,-503.5 L -30,-408.5 L -29.9606,-407.873 L -29.8429,-407.257 L -29.6489,-406.659
 L -29.3815,-406.091 L -29.0451,-405.561 L -28.6448,-405.077 L -28.1871,-404.647 L -27.6791,-404.278 L -27.1289,-403.976
 L -26.5451,-403.745 L -25.9369,-403.589 L -25.3139,-403.51 L 25.3139,-403.51 z
M -24.7432,-405.135 L -25.2256,-405.196 L -25.6967,-405.317 L -26.1489,-405.496 L -26.5751,-405.73 L -26.9685,-406.016
 L -27.323,-406.349 L -27.633,-406.724 L -27.8936,-407.134 L -28.1007,-407.574 L -28.251,-408.037 L -28.3421,-408.515
 L -28.3726,-409 L -28.3726,-503 L -28.3421,-503.485 L -28.251,-503.963 L -28.1007,-504.426 L -27.8936,-504.866
 L -27.633,-505.276 L -27.323,-505.651 L -26.9685,-505.984 L -26.5751,-506.27 L -26.1489,-506.504 L -25.6967,-506.683
 L -25.2256,-506.804 L -24.7432,-506.865 L 24.7432,-506.865 L 25.2256,-506.804 L 25.6967,-506.683 L 26.1489,-506.504
 L 26.5751,-506.27 L 26.9685,-505.984 L 27.323,-505.651 L 27.633,-505.276 L 27.8936,-504.866 L 28.1007,-504.426
 L 28.251,-503.963 L 28.3421,-503.485 L 28.3726,-503 L 28.3726,-409 L 28.3421,-408.515 L 28.251,-408.037
 L 28.1007,-407.574 L 27.8936,-407.134 L 27.633,-406.724 L 27.323,-406.349 L 26.9685,-406.016 L 26.5751,-405.73
 L 26.1489,-405.496 L 25.6967,-405.317 L 25.2256,-405.196 L 24.7432,-405.135 z
M 25.9369,-289.589 L 26.5451,-289.745 L 27.1289,-289.976 L 27.6791,-290.278 L 28.1871,-290.647 L 28.6448,-291.077
 L 29.0451,-291.561 L 29.3815,-292.091 L 29.6489,-292.659 L 29.8429,-293.257 L 29.9606,-293.873 L 30,-294.5
 L 30,-389.5 L 29.9606,-390.127 L 29.8429,-390.743 L 29.6489,-391.341 L 29.3815,-391.909 L 29.0451,-392.439
 L 28.6448,-392.923 L 28.1871,-393.353 L 27.6791,-393.722 L 27.1289,-394.024 L 26.5451,-394.255 L 25.9369,-394.411
 L 25.3139,-394.49 L -25.3139,-394.49 L -25.9369,-394.411 L -26.5451,-394.255 L -27.1289,-394.024 L -27.6791,-393.722
 L -28.1871,-393.353 L -28.6448,-392.923 L -29.0451,-392.439 L -29.3815,-391.909 L -29.6489,-391.341 L -29.8429,-390.743
 L -29.9606,-390.127 L -30,-389.5 L -30,-294.5 L -29.9606,-293.873 L -29.8429,-293.257 L -29.6489,-292.659
 L -29.3815,-292.091 L -29.0451,-291.561 L -28.6448,-291.077 L -28.1871,-290.647 L -27.6791,-290.278 L -27.1289,-289.976
 L -26.5451,-289.745 L -25.9369,-289.589 L -25.3139,-289.51 L 25.3139,-289.51 z
M 25.9369,-175.589 L 26.5451,-175.745 L 27.1289,-175.976 L 27.6791,-176.278 L 28.1871,-176.647 L 28.6448,-177.077
 L 29.0451,-177.561 L 29.3815,-178.091 L 29.6489,-178.659 L 29.8429,-179.257 L 29.9606,-179.873 L 30,-180.5
 L 30,-275.5 L 29.9606,-276.127 L 29.8429,-276.743 L 29.6489,-277.341 L 29.3815,-277.909 L 29.0451,-278.439
 L 28.6448,-278.923 L 28.1871,-279.353 L 27.6791,-279.722 L 27.1289,-280.024 L 26.5451,-280.255 L 25.9369,-280.411
 L 25.3139,-280.49 L -25.3139,-280.49 L -25.9369,-280.411 L -26.5451,-280.255 L -27.1289,-280.024 L -27.6791,-279.722
 L -28.1871,-279.353 L -28.6448,-278.923 L -29.0451,-278.439 L -29.3815,-277.909 L -29.6489,-277.341 L -29.8429,-276.743
 L -29.9606,-276.127 L -30,-275.5 L -30,-180.5 L -29.9606,-179.873 L -29.8429,-179.257 L -29.6489,-178.659
 L -29.3815,-178.091 L -29.0451,-177.561 L -28.6448,-177.077 L -28.1871,-176.647 L -27.6791,-176.278 L -27.1289,-175.976
 L -26.5451,-175.745 L -25.9369,-175.589 L -25.3139,-175.51 L 25.3139,-175.51 z
M 22.387,-271.204 L 22.1627,-271.232 L 21.9438,-271.288 L 21.7336,-271.371 L 21.5355,-271.48 L 21.3526,-271.613
 L 21.1879,-271.768 L 21.0438,-271.942 L 20.9226,-272.133 L 20.8264,-272.337 L 20.7565,-272.552 L 20.7142,-272.774
 L 20.7,-273 L 20.7142,-273.226 L 20.7565,-273.448 L 20.8264,-273.663 L 20.9226,-273.867 L 21.0438,-274.058
 L 21.1879,-274.232 L 21.3526,-274.387 L 21.5355,-274.52 L 21.7336,-274.629 L 21.9438,-274.712 L 22.1627,-274.768
 L 22.387,-274.796 L 22.613,-274.796 L 22.8373,-274.768 L 23.0562,-274.712 L 23.2664,-274.629 L 23.4645,-274.52
 L 23.6474,-274.387 L 23.8121,-274.232 L 23.9562,-274.058 L 24.0773,-273.867 L 24.1736,-273.663 L 24.2434,-273.448
 L 24.2858,-273.226 L 24.3,-273 L 24.2858,-272.774 L 24.2434,-272.552 L 24.1736,-272.337 L 24.0773,-272.133
 L 23.9562,-271.942 L 23.8121,-271.768 L 23.6474,-271.613 L 23.4645,-271.48 L 23.2664,-271.371 L 23.0562,-271.288
 L 22.8373,-271.232 L 22.613,-271.204 z
M -22.613,-271.204 L -22.8373,-271.232 L -23.0562,-271.288 L -23.2664,-271.371 L -23.4645,-271.48 L -23.6474,-271.613
 L -23.8121,-271.768 L -23.9562,-271.942 L -24.0773,-272.133 L -24.1736,-272.337 L -24.2434,-272.552 L -24.2858,-272.774
 L -24.3,-273 L -24.2858,-273.226 L -24.2434,-273.448 L -24.1736,-273.663 L -24.0773,-273.867 L -23.9562,-274.058
 L -23.8121,-274.232 L -23.6474,-274.387 L -23.4645,-274.52 L -23.2664,-274.629 L -23.0562,-274.712 L -22.8373,-274.768
 L -22.613,-274.796 L -22.387,-274.796 L -22.1627,-274.768 L -21.9438,-274.712 L -21.7336,-274.629 L -21.5355,-274.52
 L -21.3526,-274.387 L -21.1879,-274.232 L -21.0438,-274.058 L -20.9226,-273.867 L -20.8264,-273.663 L -20.7565,-273.448
 L -20.7142,-273.226 L -20.7,-273 L -20.7142,-272.774 L -20.7565,-272.552 L -20.8264,-272.337 L -20.9226,-272.133
 L -21.0438,-271.942 L -21.1879,-271.768 L -21.3526,-271.613 L -21.5355,-271.48 L -21.7336,-271.371 L -21.9438,-271.288
 L -22.1627,-271.232 L -22.387,-271.204 z
M -22.613,-181.204 L -22.8373,-181.232 L -23.0562,-181.288 L -23.2664,-181.371 L -23.4645,-181.48 L -23.6474,-181.613
 L -23.8121,-181.768 L -23.9562,-181.942 L -24.0773,-182.133 L -24.1736,-182.337 L -24.2434,-182.552 L -24.2858,-182.774
 L -24.3,-183 L -24.2858,-183.226 L -24.2434,-183.448 L -24.1736,-183.663 L -24.0773,-183.867 L -23.9562,-184.058
 L -23.8121,-184.232 L -23.6474,-184.387 L -23.4645,-184.52 L -23.2664,-184.629 L -23.0562,-184.712 L -22.8373,-184.768
 L -22.613,-184.796 L -22.387,-184.796 L -22.1627,-184.768 L -21.9438,-184.712 L -21.7336,-184.629 L -21.5355,-184.52
 L -21.3526,-184.387 L -21.1879,-184.232 L -21.0438,-184.058 L -20.9226,-183.867 L -20.8264,-183.663 L -20.7565,-183.448
 L -20.7142,-183.226 L -20.7,-183 L -20.7142,-182.774 L -20.7565,-182.552 L -20.8264,-182.337 L -20.9226,-182.133
 L -21.0438,-181.942 L -21.1879,-181.768 L -21.3526,-181.613 L -21.5355,-181.48 L -21.7336,-181.371 L -21.9438,-181.288
 L -22.1627,-181.232 L -22.387,-181.204 z
M 22.387,-181.204 L 22.1627,-181.232 L 21.9438,-181.288 L 21.7336,-181.371 L 21.5355,-181.48 L 21.3526,-181.613
 L 21.1879,-181.768 L 21.0438,-181.942 L 20.9226,-182.133 L 20.8264,-182.337 L 20.7565,-182.552 L 20.7142,-182.774
 L 20.7,-183 L 20.7142,-183.226 L 20.7565,-183.448 L 20.8264,-183.663 L 20.9226,-183.867 L 21.0438,-184.058
 L 21.1879,-184.232 L 21.3526,-184.387 L 21.5355,-184.52 L 21.7336,-184.629 L 21.9438,-184.712 L 22.1627,-184.768
 L 22.387,-184.796 L 22.613,-184.796 L 22.8373,-184.768 L 23.0562,-184.712 L 23.2664,-184.629 L 23.4645,-184.52
 L 23.6474,-184.387 L 23.8121,-184.232 L 23.9562,-184.058 L 24.0773,-183.867 L 24.1736,-183.663 L 24.2434,-183.448
 L 24.2858,-183.226 L 24.3,-183 L 24.2858,-182.774 L 24.2434,-182.552 L 24.1736,-182.337 L 24.0773,-182.133
 L 23.9562,-181.942 L 23.8121,-181.768 L 23.6474,-181.613 L 23.4645,-181.48 L 23.2664,-181.371 L 23.0562,-181.288
 L 22.8373,-181.232 L 22.613,-181.204 z
" stroke="black" fill="lightgray" stroke-width="0.5"/>
</svg>
