  0
SECTION
  2
BLOCKS
  0
ENDSEC
  0
SECTION
  2
ENTITIES
  0
LINE
  8
0
 10
3.4369
 20
787.589
 11
4.04507
 21
787.745
  0
LINE
  8
0
 10
4.04507
 20
787.745
 11
4.62889
 21
787.976
  0
LINE
  8
0
 10
4.62889
 20
787.976
 11
5.17912
 21
788.278
  0
LINE
  8
0
 10
5.17912
 20
788.278
 11
5.68712
 21
788.647
  0
LINE
  8
0
 10
5.68712
 20
788.647
 11
6.14484
 21
789.077
  0
LINE
  8
0
 10
6.14484
 20
789.077
 11
6.54507
 21
789.561
  0
LINE
  8
0
 10
6.54507
 20
789.561
 11
6.88153
 21
790.091
  0
LINE
  8
0
 10
6.88153
 20
790.091
 11
7.14888
 21
790.659
  0
LINE
  8
0
 10
7.14888
 20
790.659
 11
7.34291
 21
791.257
  0
LINE
  8
0
 10
7.34291
 20
791.257
 11
7.46057
 21
791.873
  0
LINE
  8
0
 10
7.46057
 20
791.873
 11
7.5
 21
792.5
  0
LINE
  8
0
 10
7.5
 20
792.5
 11
7.5
 21
947.5
  0
LINE
  8
0
 10
7.5
 20
947.5
 11
7.46057
 21
948.127
  0
LINE
  8
0
 10
7.46057
 20
948.127
 11
7.34291
 21
948.743
  0
LINE
  8
0
 10
7.34291
 20
948.743
 11
7.14888
 21
949.341
  0
LINE
  8
0
 10
7.14888
 20
949.341
 11
6.88153
 21
949.909
  0
LINE
  8
0
 10
6.88153
 20
949.909
 11
6.54507
 21
950.439
  0
LINE
  8
0
 10
6.54507
 20
950.439
 11
6.14484
 21
950.923
  0
LINE
  8
0
 10
6.14484
 20
950.923
 11
5.68712
 21
951.353
  0
LINE
  8
0
 10
5.68712
 20
951.353
 11
5.17912
 21
951.722
  0
LINE
  8
0
 10
5.17912
 20
951.722
 11
4.62889
 21
952.024
  0
LINE
  8
0
 10
4.62889
 20
952.024
 11
4.04507
 21
952.255
  0
LINE
  8
0
 10
4.04507
 20
952.255
 11
3.4369
 21
952.411
  0
LINE
  8
0
 10
3.4369
 20
952.411
 11
2.81395
 21
952.49
  0
LINE
  8
0
 10
2.81395
 20
952.49
 11
-2.81395
 21
952.49
  0
LINE
  8
0
 10
-2.81395
 20
952.49
 11
-3.4369
 21
952.411
  0
LINE
  8
0
 10
-3.4369
 20
952.411
 11
-4.04507
 21
952.255
  0
LINE
  8
0
 10
-4.04507
 20
952.255
 11
-4.62889
 21
952.024
  0
LINE
  8
0
 10
-4.62889
 20
952.024
 11
-5.17912
 21
951.722
  0
LINE
  8
0
 10
-5.17912
 20
951.722
 11
-5.68712
 21
951.353
  0
LINE
  8
0
 10
-5.68712
 20
951.353
 11
-6.14484
 21
950.923
  0
LINE
  8
0
 10
-6.14484
 20
950.923
 11
-6.54507
 21
950.439
  0
LINE
  8
0
 10
-6.54507
 20
950.439
 11
-6.88153
 21
949.909
  0
LINE
  8
0
 10
-6.88153
 20
949.909
 11
-7.14888
 21
949.341
  0
LINE
  8
0
 10
-7.14888
 20
949.341
 11
-7.34291
 21
948.743
  0
LINE
  8
0
 10
-7.34291
 20
948.743
 11
-7.46057
 21
948.127
  0
LINE
  8
0
 10
-7.46057
 20
948.127
 11
-7.5
 21
947.5
  0
LINE
  8
0
 10
-7.5
 20
947.5
 11
-7.5
 21
792.5
  0
LINE
  8
0
 10
-7.5
 20
792.5
 11
-7.46057
 21
791.873
  0
LINE
  8
0
 10
-7.46057
 20
791.873
 11
-7.34291
 21
791.257
  0
LINE
  8
0
 10
-7.34291
 20
791.257
 11
-7.14888
 21
790.659
  0
LINE
  8
0
 10
-7.14888
 20
790.659
 11
-6.88153
 21
790.091
  0
LINE
  8
0
 10
-6.88153
 20
790.091
 11
-6.54507
 21
789.561
  0
LINE
  8
0
 10
-6.54507
 20
789.561
 11
-6.14484
 21
789.077
  0
LINE
  8
0
 10
-6.14484
 20
789.077
 11
-5.68712
 21
788.647
  0
LINE
  8
0
 10
-5.68712
 20
788.647
 11
-5.17912
 21
788.278
  0
LINE
  8
0
 10
-5.17912
 20
788.278
 11
-4.62889
 21
787.976
  0
LINE
  8
0
 10
-4.62889
 20
787.976
 11
-4.04507
 21
787.745
  0
LINE
  8
0
 10
-4.04507
 20
787.745
 11
-3.4369
 21
787.589
  0
LINE
  8
0
 10
-3.4369
 20
787.589
 11
-2.81395
 21
787.51
  0
LINE
  8
0
 10
-2.81395
 20
787.51
 11
2.81395
 21
787.51
  0
LINE
  8
0
 10
2.81395
 20
787.51
 11
3.4369
 21
787.589
  0
LINE
  8
0
 10
-2.25116
 20
789.008
 11
-2.74951
 21
789.071
  0
LINE
  8
0
 10
-2.74951
 20
789.071
 11
-3.23605
 21
789.196
  0
LINE
  8
0
 10
-3.23605
 20
789.196
 11
-3.70311
 21
789.381
  0
LINE
  8
0
 10
-3.70311
 20
789.381
 11
-4.1433
 21
789.623
  0
LINE
  8
0
 10
-4.1433
 20
789.623
 11
-4.54968
 21
789.918
  0
LINE
  8
0
 10
-4.54968
 20
789.918
 11
-4.91586
 21
790.262
  0
LINE
  8
0
 10
-4.91586
 20
790.262
 11
-5.23605
 21
790.649
  0
LINE
  8
0
 10
-5.23605
 20
790.649
 11
-5.50522
 21
791.073
  0
LINE
  8
0
 10
-5.50522
 20
791.073
 11
-5.7191
 21
791.528
  0
LINE
  8
0
 10
-5.7191
 20
791.528
 11
-5.87433
 21
792.005
  0
LINE
  8
0
 10
-5.87433
 20
792.005
 11
-5.96844
 21
792.499
  0
LINE
  8
0
 10
-5.96844
 20
792.499
 11
-6
 21
793
  0
LINE
  8
0
 10
-6
 20
793
 11
-6
 21
947
  0
LINE
  8
0
 10
-6
 20
947
 11
-5.96844
 21
947.501
  0
LINE
  8
0
 10
-5.96844
 20
947.501
 11
-5.87433
 21
947.995
  0
LINE
  8
0
 10
-5.87433
 20
947.995
 11
-5.7191
 21
948.472
  0
LINE
  8
0
 10
-5.7191
 20
948.472
 11
-5.50522
 21
948.927
  0
LINE
  8
0
 10
-5.50522
 20
948.927
 11
-5.23605
 21
949.351
  0
LINE
  8
0
 10
-5.23605
 20
949.351
 11
-4.91586
 21
949.738
  0
LINE
  8
0
 10
-4.91586
 20
949.738
 11
-4.54968
 21
950.082
  0
LINE
  8
0
 10
-4.54968
 20
950.082
 11
-4.1433
 21
950.377
  0
LINE
  8
0
 10
-4.1433
 20
950.377
 11
-3.70311
 21
950.619
  0
LINE
  8
0
 10
-3.70311
 20
950.619
 11
-3.23605
 21
950.804
  0
LINE
  8
0
 10
-3.23605
 20
950.804
 11
-2.74951
 21
950.929
  0
LINE
  8
0
 10
-2.74951
 20
950.929
 11
-2.25116
 21
950.992
  0
LINE
  8
0
 10
-2.25116
 20
950.992
 11
2.25116
 21
950.992
  0
LINE
  8
0
 10
2.25116
 20
950.992
 11
2.74951
 21
950.929
  0
LINE
  8
0
 10
2.74951
 20
950.929
 11
3.23605
 21
950.804
  0
LINE
  8
0
 10
3.23605
 20
950.804
 11
3.70311
 21
950.619
  0
LINE
  8
0
 10
3.70311
 20
950.619
 11
4.1433
 21
950.377
  0
LINE
  8
0
 10
4.1433
 20
950.377
 11
4.54968
 21
950.082
  0
LINE
  8
0
 10
4.54968
 20
950.082
 11
4.91586
 21
949.738
  0
LINE
  8
0
 10
4.91586
 20
949.738
 11
5.23605
 21
949.351
  0
LINE
  8
0
 10
5.23605
 20
949.351
 11
5.50522
 21
948.927
  0
LINE
  8
0
 10
5.50522
 20
948.927
 11
5.7191
 21
948.472
  0
LINE
  8
0
 10
5.7191
 20
948.472
 11
5.87433
 21
947.995
  0
LINE
  8
0
 10
5.87433
 20
947.995
 11
5.96844
 21
947.501
  0
LINE
  8
0
 10
5.96844
 20
947.501
 11
6
 21
947
  0
LINE
  8
0
 10
6
 20
947
 11
6
 21
793
  0
LINE
  8
0
 10
6
 20
793
 11
5.96844
 21
792.499
  0
LINE
  8
0
 10
5.96844
 20
792.499
 11
5.87433
 21
792.005
  0
LINE
  8
0
 10
5.87433
 20
792.005
 11
5.7191
 21
791.528
  0
LINE
  8
0
 10
5.7191
 20
791.528
 11
5.50522
 21
791.073
  0
LINE
  8
0
 10
5.50522
 20
791.073
 11
5.23605
 21
790.649
  0
LINE
  8
0
 10
5.23605
 20
790.649
 11
4.91586
 21
790.262
  0
LINE
  8
0
 10
4.91586
 20
790.262
 11
4.54968
 21
789.918
  0
LINE
  8
0
 10
4.54968
 20
789.918
 11
4.1433
 21
789.623
  0
LINE
  8
0
 10
4.1433
 20
789.623
 11
3.70311
 21
789.381
  0
LINE
  8
0
 10
3.70311
 20
789.381
 11
3.23605
 21
789.196
  0
LINE
  8
0
 10
3.23605
 20
789.196
 11
2.74951
 21
789.071
  0
LINE
  8
0
 10
2.74951
 20
789.071
 11
2.25116
 21
789.008
  0
LINE
  8
0
 10
2.25116
 20
789.008
 11
-2.25116
 21
789.008
  0
LINE
  8
0
 10
3.4369
 20
613.589
 11
4.04507
 21
613.745
  0
LINE
  8
0
 10
4.04507
 20
613.745
 11
4.62889
 21
613.976
  0
LINE
  8
0
 10
4.62889
 20
613.976
 11
5.17912
 21
614.278
  0
LINE
  8
0
 10
5.17912
 20
614.278
 11
5.68712
 21
614.647
  0
LINE
  8
0
 10
5.68712
 20
614.647
 11
6.14484
 21
615.077
  0
LINE
  8
0
 10
6.14484
 20
615.077
 11
6.54507
 21
615.561
  0
LINE
  8
0
 10
6.54507
 20
615.561
 11
6.88153
 21
616.091
  0
LINE
  8
0
 10
6.88153
 20
616.091
 11
7.14888
 21
616.659
  0
LINE
  8
0
 10
7.14888
 20
616.659
 11
7.34291
 21
617.257
  0
LINE
  8
0
 10
7.34291
 20
617.257
 11
7.46057
 21
617.873
  0
LINE
  8
0
 10
7.46057
 20
617.873
 11
7.5
 21
618.5
  0
LINE
  8
0
 10
7.5
 20
618.5
 11
7.5
 21
773.5
  0
LINE
  8
0
 10
7.5
 20
773.5
 11
7.46057
 21
774.127
  0
LINE
  8
0
 10
7.46057
 20
774.127
 11
7.34291
 21
774.743
  0
LINE
  8
0
 10
7.34291
 20
774.743
 11
7.14888
 21
775.341
  0
LINE
  8
0
 10
7.14888
 20
775.341
 11
6.88153
 21
775.909
  0
LINE
  8
0
 10
6.88153
 20
775.909
 11
6.54507
 21
776.439
  0
LINE
  8
0
 10
6.54507
 20
776.439
 11
6.14484
 21
776.923
  0
LINE
  8
0
 10
6.14484
 20
776.923
 11
5.68712
 21
777.353
  0
LINE
  8
0
 10
5.68712
 20
777.353
 11
5.17912
 21
777.722
  0
LINE
  8
0
 10
5.17912
 20
777.722
 11
4.62889
 21
778.024
  0
LINE
  8
0
 10
4.62889
 20
778.024
 11
4.04507
 21
778.255
  0
LINE
  8
0
 10
4.04507
 20
778.255
 11
3.4369
 21
778.411
  0
LINE
  8
0
 10
3.4369
 20
778.411
 11
2.81395
 21
778.49
  0
LINE
  8
0
 10
2.81395
 20
778.49
 11
-2.81395
 21
778.49
  0
LINE
  8
0
 10
-2.81395
 20
778.49
 11
-3.4369
 21
778.411
  0
LINE
  8
0
 10
-3.4369
 20
778.411
 11
-4.04507
 21
778.255
  0
LINE
  8
0
 10
-4.04507
 20
778.255
 11
-4.62889
 21
778.024
  0
LINE
  8
0
 10
-4.62889
 20
778.024
 11
-5.17912
 21
777.722
  0
LINE
  8
0
 10
-5.17912
 20
777.722
 11
-5.68712
 21
777.353
  0
LINE
  8
0
 10
-5.68712
 20
777.353
 11
-6.14484
 21
776.923
  0
LINE
  8
0
 10
-6.14484
 20
776.923
 11
-6.54507
 21
776.439
  0
LINE
  8
0
 10
-6.54507
 20
776.439
 11
-6.88153
 21
775.909
  0
LINE
  8
0
 10
-6.88153
 20
775.909
 11
-7.14888
 21
775.341
  0
LINE
  8
0
 10
-7.14888
 20
775.341
 11
-7.34291
 21
774.743
  0
LINE
  8
0
 10
-7.34291
 20
774.743
 11
-7.46057
 21
774.127
  0
LINE
  8
0
 10
-7.46057
 20
774.127
 11
-7.5
 21
773.5
  0
LINE
  8
0
 10
-7.5
 20
773.5
 11
-7.5
 21
618.5
  0
LINE
  8
0
 10
-7.5
 20
618.5
 11
-7.46057
 21
617.873
  0
LINE
  8
0
 10
-7.46057
 20
617.873
 11
-7.34291
 21
617.257
  0
LINE
  8
0
 10
-7.34291
 20
617.257
 11
-7.14888
 21
616.659
  0
LINE
  8
0
 10
-7.14888
 20
616.659
 11
-6.88153
 21
616.091
  0
LINE
  8
0
 10
-6.88153
 20
616.091
 11
-6.54507
 21
615.561
  0
LINE
  8
0
 10
-6.54507
 20
615.561
 11
-6.14484
 21
615.077
  0
LINE
  8
0
 10
-6.14484
 20
615.077
 11
-5.68712
 21
614.647
  0
LINE
  8
0
 10
-5.68712
 20
614.647
 11
-5.17912
 21
614.278
  0
LINE
  8
0
 10
-5.17912
 20
614.278
 11
-4.62889
 21
613.976
  0
LINE
  8
0
 10
-4.62889
 20
613.976
 11
-4.04507
 21
613.745
  0
LINE
  8
0
 10
-4.04507
 20
613.745
 11
-3.4369
 21
613.589
  0
LINE
  8
0
 10
-3.4369
 20
613.589
 11
-2.81395
 21
613.51
  0
LINE
  8
0
 10
-2.81395
 20
613.51
 11
2.81395
 21
613.51
  0
LINE
  8
0
 10
2.81395
 20
613.51
 11
3.4369
 21
613.589
  0
LINE
  8
0
 10
-2.19545
 20
615.893
 11
-2.5833
 21
615.942
  0
LINE
  8
0
 10
-2.5833
 20
615.942
 11
-2.96194
 21
616.039
  0
LINE
  8
0
 10
-2.96194
 20
616.039
 11
-3.32541
 21
616.183
  0
LINE
  8
0
 10
-3.32541
 20
616.183
 11
-3.66798
 21
616.372
  0
LINE
  8
0
 10
-3.66798
 20
616.372
 11
-3.98424
 21
616.601
  0
LINE
  8
0
 10
-3.98424
 20
616.601
 11
-4.26921
 21
616.869
  0
LINE
  8
0
 10
-4.26921
 20
616.869
 11
-4.5184
 21
617.17
  0
LINE
  8
0
 10
-4.5184
 20
617.17
 11
-4.72786
 21
617.5
  0
LINE
  8
0
 10
-4.72786
 20
617.5
 11
-4.89432
 21
617.854
  0
LINE
  8
0
 10
-4.89432
 20
617.854
 11
-5.01512
 21
618.226
  0
LINE
  8
0
 10
-5.01512
 20
618.226
 11
-5.08836
 21
618.61
  0
LINE
  8
0
 10
-5.08836
 20
618.61
 11
-5.11292
 21
619
  0
LINE
  8
0
 10
-5.11292
 20
619
 11
-5.11292
 21
773
  0
LINE
  8
0
 10
-5.11292
 20
773
 11
-5.08836
 21
773.39
  0
LINE
  8
0
 10
-5.08836
 20
773.39
 11
-5.01512
 21
773.774
  0
LINE
  8
0
 10
-5.01512
 20
773.774
 11
-4.89432
 21
774.146
  0
LINE
  8
0
 10
-4.89432
 20
774.146
 11
-4.72786
 21
774.5
  0
LINE
  8
0
 10
-4.72786
 20
774.5
 11
-4.5184
 21
774.83
  0
LINE
  8
0
 10
-4.5184
 20
774.83
 11
-4.26921
 21
775.131
  0
LINE
  8
0
 10
-4.26921
 20
775.131
 11
-3.98424
 21
775.399
  0
LINE
  8
0
 10
-3.98424
 20
775.399
 11
-3.66798
 21
775.628
  0
LINE
  8
0
 10
-3.66798
 20
775.628
 11
-3.32541
 21
775.817
  0
LINE
  8
0
 10
-3.32541
 20
775.817
 11
-2.96194
 21
775.961
  0
LINE
  8
0
 10
-2.96194
 20
775.961
 11
-2.5833
 21
776.058
  0
LINE
  8
0
 10
-2.5833
 20
776.058
 11
-2.19545
 21
776.107
  0
LINE
  8
0
 10
-2.19545
 20
776.107
 11
2.19545
 21
776.107
  0
LINE
  8
0
 10
2.19545
 20
776.107
 11
2.5833
 21
776.058
  0
LINE
  8
0
 10
2.5833
 20
776.058
 11
2.96194
 21
775.961
  0
LINE
  8
0
 10
2.96194
 20
775.961
 11
3.32541
 21
775.817
  0
LINE
  8
0
 10
3.32541
 20
775.817
 11
3.66798
 21
775.628
  0
LINE
  8
0
 10
3.66798
 20
775.628
 11
3.98424
 21
775.399
  0
LINE
  8
0
 10
3.98424
 20
775.399
 11
4.26921
 21
775.131
  0
LINE
  8
0
 10
4.26921
 20
775.131
 11
4.5184
 21
774.83
  0
LINE
  8
0
 10
4.5184
 20
774.83
 11
4.72786
 21
774.5
  0
LINE
  8
0
 10
4.72786
 20
774.5
 11
4.89432
 21
774.146
  0
LINE
  8
0
 10
4.89432
 20
774.146
 11
5.01512
 21
773.774
  0
LINE
  8
0
 10
5.01512
 20
773.774
 11
5.08836
 21
773.39
  0
LINE
  8
0
 10
5.08836
 20
773.39
 11
5.11292
 21
773
  0
LINE
  8
0
 10
5.11292
 20
773
 11
5.11292
 21
619
  0
LINE
  8
0
 10
5.11292
 20
619
 11
5.08836
 21
618.61
  0
LINE
  8
0
 10
5.08836
 20
618.61
 11
5.01512
 21
618.226
  0
LINE
  8
0
 10
5.01512
 20
618.226
 11
4.89432
 21
617.854
  0
LINE
  8
0
 10
4.89432
 20
617.854
 11
4.72786
 21
617.5
  0
LINE
  8
0
 10
4.72786
 20
617.5
 11
4.5184
 21
617.17
  0
LINE
  8
0
 10
4.5184
 20
617.17
 11
4.26921
 21
616.869
  0
LINE
  8
0
 10
4.26921
 20
616.869
 11
3.98424
 21
616.601
  0
LINE
  8
0
 10
3.98424
 20
616.601
 11
3.66798
 21
616.372
  0
LINE
  8
0
 10
3.66798
 20
616.372
 11
3.32541
 21
616.183
  0
LINE
  8
0
 10
3.32541
 20
616.183
 11
2.96194
 21
616.039
  0
LINE
  8
0
 10
2.96194
 20
616.039
 11
2.5833
 21
615.942
  0
LINE
  8
0
 10
2.5833
 20
615.942
 11
2.19545
 21
615.893
  0
LINE
  8
0
 10
2.19545
 20
615.893
 11
-2.19545
 21
615.893
  0
LINE
  8
0
 10
3.4369
 20
439.589
 11
4.04507
 21
439.745
  0
LINE
  8
0
 10
4.04507
 20
439.745
 11
4.62889
 21
439.976
  0
LINE
  8
0
 10
4.62889
 20
439.976
 11
5.17912
 21
440.278
  0
LINE
  8
0
 10
5.17912
 20
440.278
 11
5.68712
 21
440.647
  0
LINE
  8
0
 10
5.68712
 20
440.647
 11
6.14484
 21
441.077
  0
LINE
  8
0
 10
6.14484
 20
441.077
 11
6.54507
 21
441.561
  0
LINE
  8
0
 10
6.54507
 20
441.561
 11
6.88153
 21
442.091
  0
LINE
  8
0
 10
6.88153
 20
442.091
 11
7.14888
 21
442.659
  0
LINE
  8
0
 10
7.14888
 20
442.659
 11
7.34291
 21
443.257
  0
LINE
  8
0
 10
7.34291
 20
443.257
 11
7.46057
 21
443.873
  0
LINE
  8
0
 10
7.46057
 20
443.873
 11
7.5
 21
444.5
  0
LINE
  8
0
 10
7.5
 20
444.5
 11
7.5
 21
599.5
  0
LINE
  8
0
 10
7.5
 20
599.5
 11
7.46057
 21
600.127
  0
LINE
  8
0
 10
7.46057
 20
600.127
 11
7.34291
 21
600.743
  0
LINE
  8
0
 10
7.34291
 20
600.743
 11
7.14888
 21
601.341
  0
LINE
  8
0
 10
7.14888
 20
601.341
 11
6.88153
 21
601.909
  0
LINE
  8
0
 10
6.88153
 20
601.909
 11
6.54507
 21
602.439
  0
LINE
  8
0
 10
6.54507
 20
602.439
 11
6.14484
 21
602.923
  0
LINE
  8
0
 10
6.14484
 20
602.923
 11
5.68712
 21
603.353
  0
LINE
  8
0
 10
5.68712
 20
603.353
 11
5.17912
 21
603.722
  0
LINE
  8
0
 10
5.17912
 20
603.722
 11
4.62889
 21
604.024
  0
LINE
  8
0
 10
4.62889
 20
604.024
 11
4.04507
 21
604.255
  0
LINE
  8
0
 10
4.04507
 20
604.255
 11
3.4369
 21
604.411
  0
LINE
  8
0
 10
3.4369
 20
604.411
 11
2.81395
 21
604.49
  0
LINE
  8
0
 10
2.81395
 20
604.49
 11
-2.81395
 21
604.49
  0
LINE
  8
0
 10
-2.81395
 20
604.49
 11
-3.4369
 21
604.411
  0
LINE
  8
0
 10
-3.4369
 20
604.411
 11
-4.04507
 21
604.255
  0
LINE
  8
0
 10
-4.04507
 20
604.255
 11
-4.62889
 21
604.024
  0
LINE
  8
0
 10
-4.62889
 20
604.024
 11
-5.17912
 21
603.722
  0
LINE
  8
0
 10
-5.17912
 20
603.722
 11
-5.68712
 21
603.353
  0
LINE
  8
0
 10
-5.68712
 20
603.353
 11
-6.14484
 21
602.923
  0
LINE
  8
0
 10
-6.14484
 20
602.923
 11
-6.54507
 21
602.439
  0
LINE
  8
0
 10
-6.54507
 20
602.439
 11
-6.88153
 21
601.909
  0
LINE
  8
0
 10
-6.88153
 20
601.909
 11
-7.14888
 21
601.341
  0
LINE
  8
0
 10
-7.14888
 20
601.341
 11
-7.34291
 21
600.743
  0
LINE
  8
0
 10
-7.34291
 20
600.743
 11
-7.46057
 21
600.127
  0
LINE
  8
0
 10
-7.46057
 20
600.127
 11
-7.5
 21
599.5
  0
LINE
  8
0
 10
-7.5
 20
599.5
 11
-7.5
 21
444.5
  0
LINE
  8
0
 10
-7.5
 20
444.5
 11
-7.46057
 21
443.873
  0
LINE
  8
0
 10
-7.46057
 20
443.873
 11
-7.34291
 21
443.257
  0
LINE
  8
0
 10
-7.34291
 20
443.257
 11
-7.14888
 21
442.659
  0
LINE
  8
0
 10
-7.14888
 20
442.659
 11
-6.88153
 21
442.091
  0
LINE
  8
0
 10
-6.88153
 20
442.091
 11
-6.54507
 21
441.561
  0
LINE
  8
0
 10
-6.54507
 20
441.561
 11
-6.14484
 21
441.077
  0
LINE
  8
0
 10
-6.14484
 20
441.077
 11
-5.68712
 21
440.647
  0
LINE
  8
0
 10
-5.68712
 20
440.647
 11
-5.17912
 21
440.278
  0
LINE
  8
0
 10
-5.17912
 20
440.278
 11
-4.62889
 21
439.976
  0
LINE
  8
0
 10
-4.62889
 20
439.976
 11
-4.04507
 21
439.745
  0
LINE
  8
0
 10
-4.04507
 20
439.745
 11
-3.4369
 21
439.589
  0
LINE
  8
0
 10
-3.4369
 20
439.589
 11
-2.81395
 21
439.51
  0
LINE
  8
0
 10
-2.81395
 20
439.51
 11
2.81395
 21
439.51
  0
LINE
  8
0
 10
2.81395
 20
439.51
 11
3.4369
 21
439.589
  0
LINE
  8
0
 10
-0.134064
 20
594.869
 11
-0.400101
 21
594.903
  0
LINE
  8
0
 10
-0.400101
 20
594.903
 11
-0.659836
 21
594.969
  0
LINE
  8
0
 10
-0.659836
 20
594.969
 11
-0.909149
 21
595.068
  0
LINE
  8
0
 10
-0.909149
 20
595.068
 11
-1.14413
 21
595.197
  0
LINE
  8
0
 10
-1.14413
 20
595.197
 11
-1.36108
 21
595.355
  0
LINE
  8
0
 10
-1.36108
 20
595.355
 11
-1.55655
 21
595.538
  0
LINE
  8
0
 10
-1.55655
 20
595.538
 11
-1.72748
 21
595.745
  0
LINE
  8
0
 10
-1.72748
 20
595.745
 11
-1.87117
 21
595.971
  0
LINE
  8
0
 10
-1.87117
 20
595.971
 11
-1.98534
 21
596.214
  0
LINE
  8
0
 10
-1.98534
 20
596.214
 11
-2.06821
 21
596.469
  0
LINE
  8
0
 10
-2.06821
 20
596.469
 11
-2.11845
 21
596.732
  0
LINE
  8
0
 10
-2.11845
 20
596.732
 11
-2.13528
 21
597
  0
LINE
  8
0
 10
-2.13528
 20
597
 11
-2.11845
 21
597.268
  0
LINE
  8
0
 10
-2.11845
 20
597.268
 11
-2.06821
 21
597.531
  0
LINE
  8
0
 10
-2.06821
 20
597.531
 11
-1.98534
 21
597.786
  0
LINE
  8
0
 10
-1.98534
 20
597.786
 11
-1.87117
 21
598.029
  0
LINE
  8
0
 10
-1.87117
 20
598.029
 11
-1.72748
 21
598.255
  0
LINE
  8
0
 10
-1.72748
 20
598.255
 11
-1.55655
 21
598.462
  0
LINE
  8
0
 10
-1.55655
 20
598.462
 11
-1.36108
 21
598.645
  0
LINE
  8
0
 10
-1.36108
 20
598.645
 11
-1.14413
 21
598.803
  0
LINE
  8
0
 10
-1.14413
 20
598.803
 11
-0.909149
 21
598.932
  0
LINE
  8
0
 10
-0.909149
 20
598.932
 11
-0.659836
 21
599.031
  0
LINE
  8
0
 10
-0.659836
 20
599.031
 11
-0.400101
 21
599.097
  0
LINE
  8
0
 10
-0.400101
 20
599.097
 11
-0.134064
 21
599.131
  0
LINE
  8
0
 10
-0.134064
 20
599.131
 11
0.134064
 21
599.131
  0
LINE
  8
0
 10
0.134064
 20
599.131
 11
0.400101
 21
599.097
  0
LINE
  8
0
 10
0.400101
 20
599.097
 11
0.659836
 21
599.031
  0
LINE
  8
0
 10
0.659836
 20
599.031
 11
0.909149
 21
598.932
  0
LINE
  8
0
 10
0.909149
 20
598.932
 11
1.14413
 21
598.803
  0
LINE
  8
0
 10
1.14413
 20
598.803
 11
1.36108
 21
598.645
  0
LINE
  8
0
 10
1.36108
 20
598.645
 11
1.55655
 21
598.462
  0
LINE
  8
0
 10
1.55655
 20
598.462
 11
1.72748
 21
598.255
  0
LINE
  8
0
 10
1.72748
 20
598.255
 11
1.87117
 21
598.029
  0
LINE
  8
0
 10
1.87117
 20
598.029
 11
1.98534
 21
597.786
  0
LINE
  8
0
 10
1.98534
 20
597.786
 11
2.06821
 21
597.531
  0
LINE
  8
0
 10
2.06821
 20
597.531
 11
2.11845
 21
597.268
  0
LINE
  8
0
 10
2.11845
 20
597.268
 11
2.13528
 21
597
  0
LINE
  8
0
 10
2.13528
 20
597
 11
2.11845
 21
596.732
  0
LINE
  8
0
 10
2.11845
 20
596.732
 11
2.06821
 21
596.469
  0
LINE
  8
0
 10
2.06821
 20
596.469
 11
1.98534
 21
596.214
  0
LINE
  8
0
 10
1.98534
 20
596.214
 11
1.87117
 21
595.971
  0
LINE
  8
0
 10
1.87117
 20
595.971
 11
1.72748
 21
595.745
  0
LINE
  8
0
 10
1.72748
 20
595.745
 11
1.55655
 21
595.538
  0
LINE
  8
0
 10
1.55655
 20
595.538
 11
1.36108
 21
595.355
  0
LINE
  8
0
 10
1.36108
 20
595.355
 11
1.14413
 21
595.197
  0
LINE
  8
0
 10
1.14413
 20
595.197
 11
0.909149
 21
595.068
  0
LINE
  8
0
 10
0.909149
 20
595.068
 11
0.659836
 21
594.969
  0
LINE
  8
0
 10
0.659836
 20
594.969
 11
0.400101
 21
594.903
  0
LINE
  8
0
 10
0.400101
 20
594.903
 11
0.134064
 21
594.869
  0
LINE
  8
0
 10
0.134064
 20
594.869
 11
-0.134064
 21
594.869
  0
LINE
  8
0
 10
-0.134064
 20
444.869
 11
-0.400101
 21
444.903
  0
LINE
  8
0
 10
-0.400101
 20
444.903
 11
-0.659836
 21
444.969
  0
LINE
  8
0
 10
-0.659836
 20
444.969
 11
-0.909149
 21
445.068
  0
LINE
  8
0
 10
-0.909149
 20
445.068
 11
-1.14413
 21
445.197
  0
LINE
  8
0
 10
-1.14413
 20
445.197
 11
-1.36108
 21
445.355
  0
LINE
  8
0
 10
-1.36108
 20
445.355
 11
-1.55655
 21
445.538
  0
LINE
  8
0
 10
-1.55655
 20
445.538
 11
-1.72748
 21
445.745
  0
LINE
  8
0
 10
-1.72748
 20
445.745
 11
-1.87117
 21
445.971
  0
LINE
  8
0
 10
-1.87117
 20
445.971
 11
-1.98534
 21
446.214
  0
LINE
  8
0
 10
-1.98534
 20
446.214
 11
-2.06821
 21
446.469
  0
LINE
  8
0
 10
-2.06821
 20
446.469
 11
-2.11845
 21
446.732
  0
LINE
  8
0
 10
-2.11845
 20
446.732
 11
-2.13528
 21
447
  0
LINE
  8
0
 10
-2.13528
 20
447
 11
-2.11845
 21
447.268
  0
LINE
  8
0
 10
-2.11845
 20
447.268
 11
-2.06821
 21
447.531
  0
LINE
  8
0
 10
-2.06821
 20
447.531
 11
-1.98534
 21
447.786
  0
LINE
  8
0
 10
-1.98534
 20
447.786
 11
-1.87117
 21
448.029
  0
LINE
  8
0
 10
-1.87117
 20
448.029
 11
-1.72748
 21
448.255
  0
LINE
  8
0
 10
-1.72748
 20
448.255
 11
-1.55655
 21
448.462
  0
LINE
  8
0
 10
-1.55655
 20
448.462
 11
-1.36108
 21
448.645
  0
LINE
  8
0
 10
-1.36108
 20
448.645
 11
-1.14413
 21
448.803
  0
LINE
  8
0
 10
-1.14413
 20
448.803
 11
-0.909149
 21
448.932
  0
LINE
  8
0
 10
-0.909149
 20
448.932
 11
-0.659836
 21
449.031
  0
LINE
  8
0
 10
-0.659836
 20
449.031
 11
-0.400101
 21
449.097
  0
LINE
  8
0
 10
-0.400101
 20
449.097
 11
-0.134064
 21
449.131
  0
LINE
  8
0
 10
-0.134064
 20
449.131
 11
0.134064
 21
449.131
  0
LINE
  8
0
 10
0.134064
 20
449.131
 11
0.400101
 21
449.097
  0
LINE
  8
0
 10
0.400101
 20
449.097
 11
0.659836
 21
449.031
  0
LINE
  8
0
 10
0.659836
 20
449.031
 11
0.909149
 21
448.932
  0
LINE
  8
0
 10
0.909149
 20
448.932
 11
1.14413
 21
448.803
  0
LINE
  8
0
 10
1.14413
 20
448.803
 11
1.36108
 21
448.645
  0
LINE
  8
0
 10
1.36108
 20
448.645
 11
1.55655
 21
448.462
  0
LINE
  8
0
 10
1.55655
 20
448.462
 11
1.72748
 21
448.255
  0
LINE
  8
0
 10
1.72748
 20
448.255
 11
1.87117
 21
448.029
  0
LINE
  8
0
 10
1.87117
 20
448.029
 11
1.98534
 21
447.786
  0
LINE
  8
0
 10
1.98534
 20
447.786
 11
2.06821
 21
447.531
  0
LINE
  8
0
 10
2.06821
 20
447.531
 11
2.11845
 21
447.268
  0
LINE
  8
0
 10
2.11845
 20
447.268
 11
2.13528
 21
447
  0
LINE
  8
0
 10
2.13528
 20
447
 11
2.11845
 21
446.732
  0
LINE
  8
0
 10
2.11845
 20
446.732
 11
2.06821
 21
446.469
  0
LINE
  8
0
 10
2.06821
 20
446.469
 11
1.98534
 21
446.214
  0
LINE
  8
0
 10
1.98534
 20
446.214
 11
1.87117
 21
445.971
  0
LINE
  8
0
 10
1.87117
 20
445.971
 11
1.72748
 21
445.745
  0
LINE
  8
0
 10
1.72748
 20
445.745
 11
1.55655
 21
445.538
  0
LINE
  8
0
 10
1.55655
 20
445.538
 11
1.36108
 21
445.355
  0
LINE
  8
0
 10
1.36108
 20
445.355
 11
1.14413
 21
445.197
  0
LINE
  8
0
 10
1.14413
 20
445.197
 11
0.909149
 21
445.068
  0
LINE
  8
0
 10
0.909149
 20
445.068
 11
0.659836
 21
444.969
  0
LINE
  8
0
 10
0.659836
 20
444.969
 11
0.400101
 21
444.903
  0
LINE
  8
0
 10
0.400101
 20
444.903
 11
0.134064
 21
444.869
  0
LINE
  8
0
 10
0.134064
 20
444.869
 11
-0.134064
 21
444.869
  0
ENDSEC
  0
SECTION
  2
OBJECTS
  0
DICTIONARY
  0
ENDSEC
  0
EOF
