<?xml version="1.0" standalone="no"?>
<!DOCTYPE svg PUBLIC "-//W3C//DTD SVG 1.1//EN" "http://www.w3.org/Graphics/SVG/1.1/DTD/svg11.dtd">
<svg width="16mm" height="69mm" viewBox="-8 -93 16 69" xmlns="http://www.w3.org/2000/svg" version="1.1">
<title>OpenSCAD Model</title>
<path d="
M 3.4369,-63.0886 L 4.04507,-63.2447 L 4.62889,-63.4759 L 5.17912,-63.7784 L 5.68712,-64.1474 L 6.14484,-64.5773
 L 6.54507,-65.0611 L 6.88153,-65.5912 L 7.14888,-66.1594 L 7.34291,-66.7566 L 7.46057,-67.3733 L 7.5,-68
 L 7.5,-88 L 7.46057,-88.6267 L 7.34291,-89.2434 L 7.14888,-89.8406 L 6.88153,-90.4088 L 6.54507,-90.9389
 L 6.14484,-91.4227 L 5.68712,-91.8526 L 5.17912,-92.2216 L 4.62889,-92.5241 L 4.04507,-92.7553 L 3.4369,-92.9114
 L 2.81395,-92.9901 L -2.81395,-92.9901 L -3.4369,-92.9114 L -4.04507,-92.7553 L -4.62889,-92.5241 L -5.17912,-92.2216
 L -5.68712,-91.8526 L -6.14484,-91.4227 L -6.54507,-90.9389 L -6.88153,-90.4088 L -7.14888,-89.8406 L -7.34291,-89.2434
 L -7.46057,-88.6267 L -7.5,-88 L -7.5,-68 L -7.46057,-67.3733 L -7.34291,-66.7566 L -7.14888,-66.1594
 L -6.88153,-65.5912 L -6.54507,-65.0611 L -6.14484,-64.5773 L -5.68712,-64.1474 L -5.17912,-63.7784 L -4.62889,-63.4759
 L -4.04507,-63.2447 L -3.4369,-63.0886 L -2.81395,-63.0099 L 2.81395,-63.0099 z
M 3.4369,-24.0886 L 4.04507,-24.2447 L 4.62889,-24.4759 L 5.17912,-24.7784 L 5.68712,-25.1474 L 6.14484,-25.5773
 L 6.54507,-26.0611 L 6.88153,-26.5912 L 7.14888,-27.1594 L 7.34291,-27.7566 L 7.46057,-28.3733 L 7.5,-29
 L 7.5,-49 L 7.46057,-49.6267 L 7.34291,-50.2434 L 7.14888,-50.8406 L 6.88153,-51.4088 L 6.54507,-51.9389
 L 6.14484,-52.4227 L 5.68712,-52.8526 L 5.17912,-53.2216 L 4.62889,-53.5241 L 4.04507,-53.7553 L 3.4369,-53.9114
 L 2.81395,-53.9901 L -2.81395,-53.9901 L -3.4369,-53.9114 L -4.04507,-53.7553 L -4.62889,-53.5241 L -5.17912,-53.2216
 L -5.68712,-52.8526 L -6.14484,-52.4227 L -6.54507,-51.9389 L -6.88153,-51.4088 L -7.14888,-50.8406 L -7.34291,-50.2434
 L -7.46057,-49.6267 L -7.5,-49 L -7.5,-29 L -7.46057,-28.3733 L -7.34291,-27.7566 L -7.14888,-27.1594
 L -6.88153,-26.5912 L -6.54507,-26.0611 L -6.14484,-25.5773 L -5.68712,-25.1474 L -5.17912,-24.7784 L -4.62889,-24.4759
 L -4.04507,-24.2447 L -3.4369,-24.0886 L -2.81395,-24.0099 L 2.81395,-24.0099 z
M -0.113022,-44.7036 L -0.33728,-44.7319 L -0.556229,-44.7881 L -0.766388,-44.8713 L -0.964478,-44.9802 L -1.14735,-45.1131
 L -1.31213,-45.2678 L -1.45622,-45.442 L -1.57735,-45.6328 L -1.67358,-45.8374 L -1.74344,-46.0524 L -1.7858,-46.2744
 L -1.79999,-46.5 L -1.7858,-46.7256 L -1.74344,-46.9476 L -1.67358,-47.1626 L -1.57735,-47.3671 L -1.45622,-47.558
 L -1.31213,-47.7322 L -1.14735,-47.8869 L -0.964478,-48.0198 L -0.766388,-48.1287 L -0.556229,-48.2119 L -0.33728,-48.2681
 L -0.113022,-48.2964 L 0.113022,-48.2964 L 0.33728,-48.2681 L 0.556229,-48.2119 L 0.766388,-48.1287 L 0.964478,-48.0198
 L 1.14735,-47.8869 L 1.31213,-47.7322 L 1.45622,-47.558 L 1.57735,-47.3671 L 1.67358,-47.1626 L 1.74344,-46.9476
 L 1.7858,-46.7256 L 1.79999,-46.5 L 1.7858,-46.2744 L 1.74344,-46.0524 L 1.67358,-45.8374 L 1.57735,-45.6328
 L 1.45622,-45.442 L 1.31213,-45.2678 L 1.14735,-45.1131 L 0.964478,-44.9802 L 0.766388,-44.8713 L 0.556229,-44.7881
 L 0.33728,-44.7319 L 0.113022,-44.7036 z
M -0.113022,-29.7036 L -0.33728,-29.7319 L -0.556229,-29.7881 L -0.766388,-29.8713 L -0.964478,-29.9802 L -1.14735,-30.1131
 L -1.31213,-30.2678 L -1.45622,-30.442 L -1.57735,-30.6329 L -1.67358,-30.8374 L -1.74344,-31.0524 L -1.7858,-31.2744
 L -1.79999,-31.5 L -1.7858,-31.7256 L -1.74344,-31.9476 L -1.67358,-32.1626 L -1.57735,-32.3672 L -1.45622,-32.558
 L -1.31213,-32.7322 L -1.14735,-32.8869 L -0.964478,-33.0198 L -0.766388,-33.1287 L -0.556229,-33.2119 L -0.33728,-33.2681
 L -0.113022,-33.2964 L 0.113022,-33.2964 L 0.33728,-33.2681 L 0.556229,-33.2119 L 0.766388,-33.1287 L 0.964478,-33.0198
 L 1.14735,-32.8869 L 1.31213,-32.7322 L 1.45622,-32.558 L 1.57735,-32.3672 L 1.67358,-32.1626 L 1.74344,-31.9476
 L 1.7858,-31.7256 L 1.79999,-31.5 L 1.7858,-31.2744 L 1.74344,-31.0524 L 1.67358,-30.8374 L 1.57735,-30.6329
 L 1.45622,-30.442 L 1.31213,-30.2678 L 1.14735,-30.1131 L 0.964478,-29.9802 L 0.766388,-29.8713 L 0.556229,-29.7881
 L 0.33728,-29.7319 L 0.113022,-29.7036 z
" stroke="black" fill="lightgray" stroke-width="0.5"/>
</svg>
