<?xml version="1.0" standalone="no"?>
<!DOCTYPE svg PUBLIC "-//W3C//DTD SVG 1.1//EN" "http://www.w3.org/Graphics/SVG/1.1/DTD/svg11.dtd">
<svg width="30mm" height="249mm" viewBox="-15 -318 30 249" xmlns="http://www.w3.org/2000/svg" version="1.1">
<title>OpenSCAD Model</title>
<path d="
M 10.9369,-198.089 L 11.5451,-198.245 L 12.1289,-198.476 L 12.6791,-198.778 L 13.1871,-199.147 L 13.6448,-199.577
 L 14.0451,-200.061 L 14.3815,-200.591 L 14.6489,-201.159 L 14.8429,-201.757 L 14.9606,-202.373 L 15,-203
 L 15,-313 L 14.9606,-313.627 L 14.8429,-314.243 L 14.6489,-314.841 L 14.3815,-315.409 L 14.0451,-315.939
 L 13.6448,-316.423 L 13.1871,-316.853 L 12.6791,-317.222 L 12.1289,-317.524 L 11.5451,-317.755 L 10.9369,-317.911
 L 10.3139,-317.99 L -10.3139,-317.99 L -10.9369,-317.911 L -11.5451,-317.755 L -12.1289,-317.524 L -12.6791,-317.222
 L -13.1871,-316.853 L -13.6448,-316.423 L -14.0451,-315.939 L -14.3815,-315.409 L -14.6489,-314.841 L -14.8429,-314.243
 L -14.9606,-313.627 L -15,-313 L -15,-203 L -14.9606,-202.373 L -14.8429,-201.757 L -14.6489,-201.159
 L -14.3815,-200.591 L -14.0451,-200.061 L -13.6448,-199.577 L -13.1871,-199.147 L -12.6791,-198.778 L -12.1289,-198.476
 L -11.5451,-198.245 L -10.9369,-198.089 L -10.3139,-198.01 L 10.3139,-198.01 z
M 10.9369,-69.0886 L 11.5451,-69.2447 L 12.1289,-69.4759 L 12.6791,-69.7784 L 13.1871,-70.1474 L 13.6448,-70.5773
 L 14.0451,-71.0611 L 14.3815,-71.5912 L 14.6489,-72.1594 L 14.8429,-72.7566 L 14.9606,-73.3733 L 15,-74
 L 15,-184 L 14.9606,-184.627 L 14.8429,-185.243 L 14.6489,-185.841 L 14.3815,-186.409 L 14.0451,-186.939
 L 13.6448,-187.423 L 13.1871,-187.853 L 12.6791,-188.222 L 12.1289,-188.524 L 11.5451,-188.755 L 10.9369,-188.911
 L 10.3139,-188.99 L -10.3139,-188.99 L -10.9369,-188.911 L -11.5451,-188.755 L -12.1289,-188.524 L -12.6791,-188.222
 L -13.1871,-187.853 L -13.6448,-187.423 L -14.0451,-186.939 L -14.3815,-186.409 L -14.6489,-185.841 L -14.8429,-185.243
 L -14.9606,-184.627 L -15,-184 L -15,-74 L -14.9606,-73.3733 L -14.8429,-72.7566 L -14.6489,-72.1594
 L -14.3815,-71.5912 L -14.0451,-71.0611 L -13.6448,-70.5773 L -13.1871,-70.1474 L -12.6791,-69.7784 L -12.1289,-69.4759
 L -11.5451,-69.2447 L -10.9369,-69.0886 L -10.3139,-69.0099 L 10.3139,-69.0099 z
M 7.38696,-179.704 L 7.1627,-179.732 L 6.94376,-179.788 L 6.7336,-179.871 L 6.53551,-179.98 L 6.35263,-180.113
 L 6.18785,-180.268 L 6.04376,-180.442 L 5.92264,-180.633 L 5.8264,-180.837 L 5.75655,-181.052 L 5.71419,-181.274
 L 5.7,-181.5 L 5.71419,-181.726 L 5.75655,-181.948 L 5.8264,-182.163 L 5.92264,-182.367 L 6.04376,-182.558
 L 6.18785,-182.732 L 6.35263,-182.887 L 6.53551,-183.02 L 6.7336,-183.129 L 6.94376,-183.212 L 7.1627,-183.268
 L 7.38696,-183.296 L 7.61302,-183.296 L 7.83728,-183.268 L 8.05623,-183.212 L 8.26639,-183.129 L 8.46448,-183.02
 L 8.64735,-182.887 L 8.81213,-182.732 L 8.95622,-182.558 L 9.07735,-182.367 L 9.17358,-182.163 L 9.24344,-181.948
 L 9.2858,-181.726 L 9.29999,-181.5 L 9.2858,-181.274 L 9.24344,-181.052 L 9.17358,-180.837 L 9.07735,-180.633
 L 8.95622,-180.442 L 8.81213,-180.268 L 8.64735,-180.113 L 8.46448,-179.98 L 8.26639,-179.871 L 8.05623,-179.788
 L 7.83728,-179.732 L 7.61302,-179.704 z
M -7.61302,-179.704 L -7.83728,-179.732 L -8.05623,-179.788 L -8.26639,-179.871 L -8.46448,-179.98 L -8.64735,-180.113
 L -8.81213,-180.268 L -8.95622,-180.442 L -9.07735,-180.633 L -9.17358,-180.837 L -9.24344,-181.052 L -9.2858,-181.274
 L -9.29999,-181.5 L -9.2858,-181.726 L -9.24344,-181.948 L -9.17358,-182.163 L -9.07735,-182.367 L -8.95622,-182.558
 L -8.81213,-182.732 L -8.64735,-182.887 L -8.46448,-183.02 L -8.26639,-183.129 L -8.05623,-183.212 L -7.83728,-183.268
 L -7.61302,-183.296 L -7.38696,-183.296 L -7.1627,-183.268 L -6.94376,-183.212 L -6.7336,-183.129 L -6.53551,-183.02
 L -6.35263,-182.887 L -6.18785,-182.732 L -6.04376,-182.558 L -5.92264,-182.367 L -5.8264,-182.163 L -5.75655,-181.948
 L -5.71419,-181.726 L -5.7,-181.5 L -5.71419,-181.274 L -5.75655,-181.052 L -5.8264,-180.837 L -5.92264,-180.633
 L -6.04376,-180.442 L -6.18785,-180.268 L -6.35263,-180.113 L -6.53551,-179.98 L -6.7336,-179.871 L -6.94376,-179.788
 L -7.1627,-179.732 L -7.38696,-179.704 z
M -7.61302,-74.7036 L -7.83728,-74.7319 L -8.05623,-74.7881 L -8.26639,-74.8713 L -8.46448,-74.9802 L -8.64735,-75.1131
 L -8.81213,-75.2678 L -8.95622,-75.442 L -9.07735,-75.6328 L -9.17358,-75.8374 L -9.24344,-76.0524 L -9.2858,-76.2744
 L -9.29999,-76.5 L -9.2858,-76.7256 L -9.24344,-76.9476 L -9.17358,-77.1626 L -9.07735,-77.3672 L -8.95622,-77.558
 L -8.81213,-77.7322 L -8.64735,-77.8869 L -8.46448,-78.0198 L -8.26639,-78.1287 L -8.05623,-78.2119 L -7.83728,-78.2681
 L -7.61302,-78.2964 L -7.38696,-78.2964 L -7.1627,-78.2681 L -6.94376,-78.2119 L -6.7336,-78.1287 L -6.53551,-78.0198
 L -6.35263,-77.8869 L -6.18785,-77.7322 L -6.04376,-77.558 L -5.92264,-77.3672 L -5.8264,-77.1626 L -5.75655,-76.9476
 L -5.71419,-76.7256 L -5.7,-76.5 L -5.71419,-76.2744 L -5.75655,-76.0524 L -5.8264,-75.8374 L -5.92264,-75.6328
 L -6.04376,-75.442 L -6.18785,-75.2678 L -6.35263,-75.1131 L -6.53551,-74.9802 L -6.7336,-74.8713 L -6.94376,-74.7881
 L -7.1627,-74.7319 L -7.38696,-74.7036 z
M 7.38696,-74.7036 L 7.1627,-74.7319 L 6.94376,-74.7881 L 6.7336,-74.8713 L 6.53551,-74.9802 L 6.35263,-75.1131
 L 6.18785,-75.2678 L 6.04376,-75.442 L 5.92264,-75.6328 L 5.8264,-75.8374 L 5.75655,-76.0524 L 5.71419,-76.2744
 L 5.7,-76.5 L 5.71419,-76.7256 L 5.75655,-76.9476 L 5.8264,-77.1626 L 5.92264,-77.3672 L 6.04376,-77.558
 L 6.18785,-77.7322 L 6.35263,-77.8869 L 6.53551,-78.0198 L 6.7336,-78.1287 L 6.94376,-78.2119 L 7.1627,-78.2681
 L 7.38696,-78.2964 L 7.61302,-78.2964 L 7.83728,-78.2681 L 8.05623,-78.2119 L 8.26639,-78.1287 L 8.46448,-78.0198
 L 8.64735,-77.8869 L 8.81213,-77.7322 L 8.95622,-77.558 L 9.07735,-77.3672 L 9.17358,-77.1626 L 9.24344,-76.9476
 L 9.2858,-76.7256 L 9.29999,-76.5 L 9.2858,-76.2744 L 9.24344,-76.0524 L 9.17358,-75.8374 L 9.07735,-75.6328
 L 8.95622,-75.442 L 8.81213,-75.2678 L 8.64735,-75.1131 L 8.46448,-74.9802 L 8.26639,-74.8713 L 8.05623,-74.7881
 L 7.83728,-74.7319 L 7.61302,-74.7036 z
" stroke="black" fill="lightgray" stroke-width="0.5"/>
</svg>
