  0
SECTION
  2
BLOCKS
  0
ENDSEC
  0
SECTION
  2
ENTITIES
  0
LINE
  8
0
 10
10.9369
 20
102.089
 11
11.5451
 21
102.245
  0
LINE
  8
0
 10
11.5451
 20
102.245
 11
12.1289
 21
102.476
  0
LINE
  8
0
 10
12.1289
 20
102.476
 11
12.6791
 21
102.778
  0
LINE
  8
0
 10
12.6791
 20
102.778
 11
13.1871
 21
103.147
  0
LINE
  8
0
 10
13.1871
 20
103.147
 11
13.6448
 21
103.577
  0
LINE
  8
0
 10
13.6448
 20
103.577
 11
14.0451
 21
104.061
  0
LINE
  8
0
 10
14.0451
 20
104.061
 11
14.3815
 21
104.591
  0
LINE
  8
0
 10
14.3815
 20
104.591
 11
14.6489
 21
105.159
  0
LINE
  8
0
 10
14.6489
 20
105.159
 11
14.8429
 21
105.757
  0
LINE
  8
0
 10
14.8429
 20
105.757
 11
14.9606
 21
106.373
  0
LINE
  8
0
 10
14.9606
 20
106.373
 11
15
 21
107
  0
LINE
  8
0
 10
15
 20
107
 11
15
 21
127
  0
LINE
  8
0
 10
15
 20
127
 11
14.9606
 21
127.627
  0
LINE
  8
0
 10
14.9606
 20
127.627
 11
14.8429
 21
128.243
  0
LINE
  8
0
 10
14.8429
 20
128.243
 11
14.6489
 21
128.841
  0
LINE
  8
0
 10
14.6489
 20
128.841
 11
14.3815
 21
129.409
  0
LINE
  8
0
 10
14.3815
 20
129.409
 11
14.0451
 21
129.939
  0
LINE
  8
0
 10
14.0451
 20
129.939
 11
13.6448
 21
130.423
  0
LINE
  8
0
 10
13.6448
 20
130.423
 11
13.1871
 21
130.853
  0
LINE
  8
0
 10
13.1871
 20
130.853
 11
12.6791
 21
131.222
  0
LINE
  8
0
 10
12.6791
 20
131.222
 11
12.1289
 21
131.524
  0
LINE
  8
0
 10
12.1289
 20
131.524
 11
11.5451
 21
131.755
  0
LINE
  8
0
 10
11.5451
 20
131.755
 11
10.9369
 21
131.911
  0
LINE
  8
0
 10
10.9369
 20
131.911
 11
10.3139
 21
131.99
  0
LINE
  8
0
 10
10.3139
 20
131.99
 11
-10.3139
 21
131.99
  0
LINE
  8
0
 10
-10.3139
 20
131.99
 11
-10.9369
 21
131.911
  0
LINE
  8
0
 10
-10.9369
 20
131.911
 11
-11.5451
 21
131.755
  0
LINE
  8
0
 10
-11.5451
 20
131.755
 11
-12.1289
 21
131.524
  0
LINE
  8
0
 10
-12.1289
 20
131.524
 11
-12.6791
 21
131.222
  0
LINE
  8
0
 10
-12.6791
 20
131.222
 11
-13.1871
 21
130.853
  0
LINE
  8
0
 10
-13.1871
 20
130.853
 11
-13.5
 21
130.559
  0
LINE
  8
0
 10
-13.5
 20
130.559
 11
-13.5
 21
131.979
  0
LINE
  8
0
 10
-13.5
 20
131.979
 11
-16.5
 21
131.979
  0
LINE
  8
0
 10
-16.5
 20
131.979
 11
-16.5
 21
102.021
  0
LINE
  8
0
 10
-16.5
 20
102.021
 11
-13.5
 21
102.021
  0
LINE
  8
0
 10
-13.5
 20
102.021
 11
-13.5
 21
103.441
  0
LINE
  8
0
 10
-13.5
 20
103.441
 11
-13.1871
 21
103.147
  0
LINE
  8
0
 10
-13.1871
 20
103.147
 11
-12.6791
 21
102.778
  0
LINE
  8
0
 10
-12.6791
 20
102.778
 11
-12.1289
 21
102.476
  0
LINE
  8
0
 10
-12.1289
 20
102.476
 11
-11.5451
 21
102.245
  0
LINE
  8
0
 10
-11.5451
 20
102.245
 11
-10.9369
 21
102.089
  0
LINE
  8
0
 10
-10.9369
 20
102.089
 11
-10.3139
 21
102.01
  0
LINE
  8
0
 10
-10.3139
 20
102.01
 11
10.3139
 21
102.01
  0
LINE
  8
0
 10
10.3139
 20
102.01
 11
10.9369
 21
102.089
  0
LINE
  8
0
 10
-9.69545
 20
104.393
 11
-10.0833
 21
104.442
  0
LINE
  8
0
 10
-10.0833
 20
104.442
 11
-10.4619
 21
104.539
  0
LINE
  8
0
 10
-10.4619
 20
104.539
 11
-10.8254
 21
104.683
  0
LINE
  8
0
 10
-10.8254
 20
104.683
 11
-11.168
 21
104.872
  0
LINE
  8
0
 10
-11.168
 20
104.872
 11
-11.4842
 21
105.101
  0
LINE
  8
0
 10
-11.4842
 20
105.101
 11
-11.7692
 21
105.369
  0
LINE
  8
0
 10
-11.7692
 20
105.369
 11
-12.0184
 21
105.67
  0
LINE
  8
0
 10
-12.0184
 20
105.67
 11
-12.2279
 21
106
  0
LINE
  8
0
 10
-12.2279
 20
106
 11
-12.3943
 21
106.354
  0
LINE
  8
0
 10
-12.3943
 20
106.354
 11
-12.5151
 21
106.726
  0
LINE
  8
0
 10
-12.5151
 20
106.726
 11
-12.5884
 21
107.11
  0
LINE
  8
0
 10
-12.5884
 20
107.11
 11
-12.6129
 21
107.5
  0
LINE
  8
0
 10
-12.6129
 20
107.5
 11
-12.6129
 21
126.5
  0
LINE
  8
0
 10
-12.6129
 20
126.5
 11
-12.5884
 21
126.89
  0
LINE
  8
0
 10
-12.5884
 20
126.89
 11
-12.5151
 21
127.274
  0
LINE
  8
0
 10
-12.5151
 20
127.274
 11
-12.3943
 21
127.646
  0
LINE
  8
0
 10
-12.3943
 20
127.646
 11
-12.2279
 21
128
  0
LINE
  8
0
 10
-12.2279
 20
128
 11
-12.0184
 21
128.33
  0
LINE
  8
0
 10
-12.0184
 20
128.33
 11
-11.7692
 21
128.631
  0
LINE
  8
0
 10
-11.7692
 20
128.631
 11
-11.4842
 21
128.899
  0
LINE
  8
0
 10
-11.4842
 20
128.899
 11
-11.168
 21
129.128
  0
LINE
  8
0
 10
-11.168
 20
129.128
 11
-10.8254
 21
129.317
  0
LINE
  8
0
 10
-10.8254
 20
129.317
 11
-10.4619
 21
129.461
  0
LINE
  8
0
 10
-10.4619
 20
129.461
 11
-10.0833
 21
129.558
  0
LINE
  8
0
 10
-10.0833
 20
129.558
 11
-9.69545
 21
129.607
  0
LINE
  8
0
 10
-9.69545
 20
129.607
 11
9.69545
 21
129.607
  0
LINE
  8
0
 10
9.69545
 20
129.607
 11
10.0833
 21
129.558
  0
LINE
  8
0
 10
10.0833
 20
129.558
 11
10.4619
 21
129.461
  0
LINE
  8
0
 10
10.4619
 20
129.461
 11
10.8254
 21
129.317
  0
LINE
  8
0
 10
10.8254
 20
129.317
 11
11.168
 21
129.128
  0
LINE
  8
0
 10
11.168
 20
129.128
 11
11.4842
 21
128.899
  0
LINE
  8
0
 10
11.4842
 20
128.899
 11
11.7692
 21
128.631
  0
LINE
  8
0
 10
11.7692
 20
128.631
 11
12.0184
 21
128.33
  0
LINE
  8
0
 10
12.0184
 20
128.33
 11
12.2279
 21
128
  0
LINE
  8
0
 10
12.2279
 20
128
 11
12.3943
 21
127.646
  0
LINE
  8
0
 10
12.3943
 20
127.646
 11
12.5151
 21
127.274
  0
LINE
  8
0
 10
12.5151
 20
127.274
 11
12.5884
 21
126.89
  0
LINE
  8
0
 10
12.5884
 20
126.89
 11
12.6129
 21
126.5
  0
LINE
  8
0
 10
12.6129
 20
126.5
 11
12.6129
 21
107.5
  0
LINE
  8
0
 10
12.6129
 20
107.5
 11
12.5884
 21
107.11
  0
LINE
  8
0
 10
12.5884
 20
107.11
 11
12.5151
 21
106.726
  0
LINE
  8
0
 10
12.5151
 20
106.726
 11
12.3943
 21
106.354
  0
LINE
  8
0
 10
12.3943
 20
106.354
 11
12.2279
 21
106
  0
LINE
  8
0
 10
12.2279
 20
106
 11
12.0184
 21
105.67
  0
LINE
  8
0
 10
12.0184
 20
105.67
 11
11.7692
 21
105.369
  0
LINE
  8
0
 10
11.7692
 20
105.369
 11
11.4842
 21
105.101
  0
LINE
  8
0
 10
11.4842
 20
105.101
 11
11.168
 21
104.872
  0
LINE
  8
0
 10
11.168
 20
104.872
 11
10.8254
 21
104.683
  0
LINE
  8
0
 10
10.8254
 20
104.683
 11
10.4619
 21
104.539
  0
LINE
  8
0
 10
10.4619
 20
104.539
 11
10.0833
 21
104.442
  0
LINE
  8
0
 10
10.0833
 20
104.442
 11
9.69545
 21
104.393
  0
LINE
  8
0
 10
9.69545
 20
104.393
 11
-9.69545
 21
104.393
  0
LINE
  8
0
 10
10.9369
 20
63.0886
 11
11.5451
 21
63.2447
  0
LINE
  8
0
 10
11.5451
 20
63.2447
 11
12.1289
 21
63.4759
  0
LINE
  8
0
 10
12.1289
 20
63.4759
 11
12.6791
 21
63.7784
  0
LINE
  8
0
 10
12.6791
 20
63.7784
 11
13.1871
 21
64.1474
  0
LINE
  8
0
 10
13.1871
 20
64.1474
 11
13.6448
 21
64.5773
  0
LINE
  8
0
 10
13.6448
 20
64.5773
 11
14.0451
 21
65.0611
  0
LINE
  8
0
 10
14.0451
 20
65.0611
 11
14.3815
 21
65.5912
  0
LINE
  8
0
 10
14.3815
 20
65.5912
 11
14.6489
 21
66.1594
  0
LINE
  8
0
 10
14.6489
 20
66.1594
 11
14.8429
 21
66.7566
  0
LINE
  8
0
 10
14.8429
 20
66.7566
 11
14.9606
 21
67.3733
  0
LINE
  8
0
 10
14.9606
 20
67.3733
 11
15
 21
68
  0
LINE
  8
0
 10
15
 20
68
 11
15
 21
88
  0
LINE
  8
0
 10
15
 20
88
 11
14.9606
 21
88.6267
  0
LINE
  8
0
 10
14.9606
 20
88.6267
 11
14.8429
 21
89.2434
  0
LINE
  8
0
 10
14.8429
 20
89.2434
 11
14.6489
 21
89.8406
  0
LINE
  8
0
 10
14.6489
 20
89.8406
 11
14.3815
 21
90.4088
  0
LINE
  8
0
 10
14.3815
 20
90.4088
 11
14.0451
 21
90.9389
  0
LINE
  8
0
 10
14.0451
 20
90.9389
 11
13.6448
 21
91.4227
  0
LINE
  8
0
 10
13.6448
 20
91.4227
 11
13.1871
 21
91.8526
  0
LINE
  8
0
 10
13.1871
 20
91.8526
 11
12.6791
 21
92.2216
  0
LINE
  8
0
 10
12.6791
 20
92.2216
 11
12.1289
 21
92.5241
  0
LINE
  8
0
 10
12.1289
 20
92.5241
 11
11.5451
 21
92.7553
  0
LINE
  8
0
 10
11.5451
 20
92.7553
 11
10.9369
 21
92.9114
  0
LINE
  8
0
 10
10.9369
 20
92.9114
 11
10.3139
 21
92.9901
  0
LINE
  8
0
 10
10.3139
 20
92.9901
 11
-10.3139
 21
92.9901
  0
LINE
  8
0
 10
-10.3139
 20
92.9901
 11
-10.9369
 21
92.9114
  0
LINE
  8
0
 10
-10.9369
 20
92.9114
 11
-11.5451
 21
92.7553
  0
LINE
  8
0
 10
-11.5451
 20
92.7553
 11
-12.1289
 21
92.5241
  0
LINE
  8
0
 10
-12.1289
 20
92.5241
 11
-12.6791
 21
92.2216
  0
LINE
  8
0
 10
-12.6791
 20
92.2216
 11
-13.1871
 21
91.8526
  0
LINE
  8
0
 10
-13.1871
 20
91.8526
 11
-13.5
 21
91.5587
  0
LINE
  8
0
 10
-13.5
 20
91.5587
 11
-13.5
 21
91.6526
  0
LINE
  8
0
 10
-13.5
 20
91.6526
 11
-16.5
 21
91.6526
  0
LINE
  8
0
 10
-16.5
 20
91.6526
 11
-16.5
 21
64.3474
  0
LINE
  8
0
 10
-16.5
 20
64.3474
 11
-13.5
 21
64.3474
  0
LINE
  8
0
 10
-13.5
 20
64.3474
 11
-13.5
 21
64.4413
  0
LINE
  8
0
 10
-13.5
 20
64.4413
 11
-13.1871
 21
64.1474
  0
LINE
  8
0
 10
-13.1871
 20
64.1474
 11
-12.6791
 21
63.7784
  0
LINE
  8
0
 10
-12.6791
 20
63.7784
 11
-12.1289
 21
63.4759
  0
LINE
  8
0
 10
-12.1289
 20
63.4759
 11
-11.5451
 21
63.2447
  0
LINE
  8
0
 10
-11.5451
 20
63.2447
 11
-10.9369
 21
63.0886
  0
LINE
  8
0
 10
-10.9369
 20
63.0886
 11
-10.3139
 21
63.0099
  0
LINE
  8
0
 10
-10.3139
 20
63.0099
 11
10.3139
 21
63.0099
  0
LINE
  8
0
 10
10.3139
 20
63.0099
 11
10.9369
 21
63.0886
  0
LINE
  8
0
 10
7.36592
 20
83.3689
 11
7.09988
 21
83.4025
  0
LINE
  8
0
 10
7.09988
 20
83.4025
 11
6.84015
 21
83.4692
  0
LINE
  8
0
 10
6.84015
 20
83.4692
 11
6.59084
 21
83.5679
  0
LINE
  8
0
 10
6.59084
 20
83.5679
 11
6.35585
 21
83.6971
  0
LINE
  8
0
 10
6.35585
 20
83.6971
 11
6.1389
 21
83.8547
  0
LINE
  8
0
 10
6.1389
 20
83.8547
 11
5.94344
 21
84.0383
  0
LINE
  8
0
 10
5.94344
 20
84.0383
 11
5.77251
 21
84.2449
  0
LINE
  8
0
 10
5.77251
 20
84.2449
 11
5.62881
 21
84.4713
  0
LINE
  8
0
 10
5.62881
 20
84.4713
 11
5.51465
 21
84.7139
  0
LINE
  8
0
 10
5.51465
 20
84.7139
 11
5.43178
 21
84.969
  0
LINE
  8
0
 10
5.43178
 20
84.969
 11
5.38153
 21
85.2324
  0
LINE
  8
0
 10
5.38153
 20
85.2324
 11
5.3647
 21
85.5
  0
LINE
  8
0
 10
5.3647
 20
85.5
 11
5.38153
 21
85.7676
  0
LINE
  8
0
 10
5.38153
 20
85.7676
 11
5.43178
 21
86.031
  0
LINE
  8
0
 10
5.43178
 20
86.031
 11
5.51465
 21
86.286
  0
LINE
  8
0
 10
5.51465
 20
86.286
 11
5.62881
 21
86.5287
  0
LINE
  8
0
 10
5.62881
 20
86.5287
 11
5.77251
 21
86.7551
  0
LINE
  8
0
 10
5.77251
 20
86.7551
 11
5.94344
 21
86.9617
  0
LINE
  8
0
 10
5.94344
 20
86.9617
 11
6.1389
 21
87.1453
  0
LINE
  8
0
 10
6.1389
 20
87.1453
 11
6.35585
 21
87.3029
  0
LINE
  8
0
 10
6.35585
 20
87.3029
 11
6.59084
 21
87.4321
  0
LINE
  8
0
 10
6.59084
 20
87.4321
 11
6.84015
 21
87.5308
  0
LINE
  8
0
 10
6.84015
 20
87.5308
 11
7.09988
 21
87.5975
  0
LINE
  8
0
 10
7.09988
 20
87.5975
 11
7.36592
 21
87.6311
  0
LINE
  8
0
 10
7.36592
 20
87.6311
 11
7.63406
 21
87.6311
  0
LINE
  8
0
 10
7.63406
 20
87.6311
 11
7.9001
 21
87.5975
  0
LINE
  8
0
 10
7.9001
 20
87.5975
 11
8.15984
 21
87.5308
  0
LINE
  8
0
 10
8.15984
 20
87.5308
 11
8.40915
 21
87.4321
  0
LINE
  8
0
 10
8.40915
 20
87.4321
 11
8.64413
 21
87.3029
  0
LINE
  8
0
 10
8.64413
 20
87.3029
 11
8.86108
 21
87.1453
  0
LINE
  8
0
 10
8.86108
 20
87.1453
 11
9.05655
 21
86.9617
  0
LINE
  8
0
 10
9.05655
 20
86.9617
 11
9.22748
 21
86.7551
  0
LINE
  8
0
 10
9.22748
 20
86.7551
 11
9.37117
 21
86.5287
  0
LINE
  8
0
 10
9.37117
 20
86.5287
 11
9.48534
 21
86.286
  0
LINE
  8
0
 10
9.48534
 20
86.286
 11
9.56821
 21
86.031
  0
LINE
  8
0
 10
9.56821
 20
86.031
 11
9.61845
 21
85.7676
  0
LINE
  8
0
 10
9.61845
 20
85.7676
 11
9.63528
 21
85.5
  0
LINE
  8
0
 10
9.63528
 20
85.5
 11
9.61845
 21
85.2324
  0
LINE
  8
0
 10
9.61845
 20
85.2324
 11
9.56821
 21
84.969
  0
LINE
  8
0
 10
9.56821
 20
84.969
 11
9.48534
 21
84.7139
  0
LINE
  8
0
 10
9.48534
 20
84.7139
 11
9.37117
 21
84.4713
  0
LINE
  8
0
 10
9.37117
 20
84.4713
 11
9.22748
 21
84.2449
  0
LINE
  8
0
 10
9.22748
 20
84.2449
 11
9.05655
 21
84.0383
  0
LINE
  8
0
 10
9.05655
 20
84.0383
 11
8.86108
 21
83.8547
  0
LINE
  8
0
 10
8.86108
 20
83.8547
 11
8.64413
 21
83.6971
  0
LINE
  8
0
 10
8.64413
 20
83.6971
 11
8.40915
 21
83.5679
  0
LINE
  8
0
 10
8.40915
 20
83.5679
 11
8.15984
 21
83.4692
  0
LINE
  8
0
 10
8.15984
 20
83.4692
 11
7.9001
 21
83.4025
  0
LINE
  8
0
 10
7.9001
 20
83.4025
 11
7.63406
 21
83.3689
  0
LINE
  8
0
 10
7.63406
 20
83.3689
 11
7.36592
 21
83.3689
  0
LINE
  8
0
 10
-7.63406
 20
83.3689
 11
-7.9001
 21
83.4025
  0
LINE
  8
0
 10
-7.9001
 20
83.4025
 11
-8.15984
 21
83.4692
  0
LINE
  8
0
 10
-8.15984
 20
83.4692
 11
-8.40915
 21
83.5679
  0
LINE
  8
0
 10
-8.40915
 20
83.5679
 11
-8.64413
 21
83.6971
  0
LINE
  8
0
 10
-8.64413
 20
83.6971
 11
-8.86108
 21
83.8547
  0
LINE
  8
0
 10
-8.86108
 20
83.8547
 11
-9.05655
 21
84.0383
  0
LINE
  8
0
 10
-9.05655
 20
84.0383
 11
-9.22748
 21
84.2449
  0
LINE
  8
0
 10
-9.22748
 20
84.2449
 11
-9.37117
 21
84.4713
  0
LINE
  8
0
 10
-9.37117
 20
84.4713
 11
-9.48534
 21
84.7139
  0
LINE
  8
0
 10
-9.48534
 20
84.7139
 11
-9.56821
 21
84.969
  0
LINE
  8
0
 10
-9.56821
 20
84.969
 11
-9.61845
 21
85.2324
  0
LINE
  8
0
 10
-9.61845
 20
85.2324
 11
-9.63528
 21
85.5
  0
LINE
  8
0
 10
-9.63528
 20
85.5
 11
-9.61845
 21
85.7676
  0
LINE
  8
0
 10
-9.61845
 20
85.7676
 11
-9.56821
 21
86.031
  0
LINE
  8
0
 10
-9.56821
 20
86.031
 11
-9.48534
 21
86.286
  0
LINE
  8
0
 10
-9.48534
 20
86.286
 11
-9.37117
 21
86.5287
  0
LINE
  8
0
 10
-9.37117
 20
86.5287
 11
-9.22748
 21
86.7551
  0
LINE
  8
0
 10
-9.22748
 20
86.7551
 11
-9.05655
 21
86.9617
  0
LINE
  8
0
 10
-9.05655
 20
86.9617
 11
-8.86108
 21
87.1453
  0
LINE
  8
0
 10
-8.86108
 20
87.1453
 11
-8.64413
 21
87.3029
  0
LINE
  8
0
 10
-8.64413
 20
87.3029
 11
-8.40915
 21
87.4321
  0
LINE
  8
0
 10
-8.40915
 20
87.4321
 11
-8.15984
 21
87.5308
  0
LINE
  8
0
 10
-8.15984
 20
87.5308
 11
-7.9001
 21
87.5975
  0
LINE
  8
0
 10
-7.9001
 20
87.5975
 11
-7.63406
 21
87.6311
  0
LINE
  8
0
 10
-7.63406
 20
87.6311
 11
-7.36592
 21
87.6311
  0
LINE
  8
0
 10
-7.36592
 20
87.6311
 11
-7.09988
 21
87.5975
  0
LINE
  8
0
 10
-7.09988
 20
87.5975
 11
-6.84015
 21
87.5308
  0
LINE
  8
0
 10
-6.84015
 20
87.5308
 11
-6.59084
 21
87.4321
  0
LINE
  8
0
 10
-6.59084
 20
87.4321
 11
-6.35585
 21
87.3029
  0
LINE
  8
0
 10
-6.35585
 20
87.3029
 11
-6.1389
 21
87.1453
  0
LINE
  8
0
 10
-6.1389
 20
87.1453
 11
-5.94344
 21
86.9617
  0
LINE
  8
0
 10
-5.94344
 20
86.9617
 11
-5.77251
 21
86.7551
  0
LINE
  8
0
 10
-5.77251
 20
86.7551
 11
-5.62881
 21
86.5287
  0
LINE
  8
0
 10
-5.62881
 20
86.5287
 11
-5.51465
 21
86.286
  0
LINE
  8
0
 10
-5.51465
 20
86.286
 11
-5.43178
 21
86.031
  0
LINE
  8
0
 10
-5.43178
 20
86.031
 11
-5.38153
 21
85.7676
  0
LINE
  8
0
 10
-5.38153
 20
85.7676
 11
-5.3647
 21
85.5
  0
LINE
  8
0
 10
-5.3647
 20
85.5
 11
-5.38153
 21
85.2324
  0
LINE
  8
0
 10
-5.38153
 20
85.2324
 11
-5.43178
 21
84.969
  0
LINE
  8
0
 10
-5.43178
 20
84.969
 11
-5.51465
 21
84.7139
  0
LINE
  8
0
 10
-5.51465
 20
84.7139
 11
-5.62881
 21
84.4713
  0
LINE
  8
0
 10
-5.62881
 20
84.4713
 11
-5.77251
 21
84.2449
  0
LINE
  8
0
 10
-5.77251
 20
84.2449
 11
-5.94344
 21
84.0383
  0
LINE
  8
0
 10
-5.94344
 20
84.0383
 11
-6.1389
 21
83.8547
  0
LINE
  8
0
 10
-6.1389
 20
83.8547
 11
-6.35585
 21
83.6971
  0
LINE
  8
0
 10
-6.35585
 20
83.6971
 11
-6.59084
 21
83.5679
  0
LINE
  8
0
 10
-6.59084
 20
83.5679
 11
-6.84015
 21
83.4692
  0
LINE
  8
0
 10
-6.84015
 20
83.4692
 11
-7.09988
 21
83.4025
  0
LINE
  8
0
 10
-7.09988
 20
83.4025
 11
-7.36592
 21
83.3689
  0
LINE
  8
0
 10
-7.36592
 20
83.3689
 11
-7.63406
 21
83.3689
  0
LINE
  8
0
 10
7.36592
 20
68.3689
 11
7.09988
 21
68.4025
  0
LINE
  8
0
 10
7.09988
 20
68.4025
 11
6.84015
 21
68.4692
  0
LINE
  8
0
 10
6.84015
 20
68.4692
 11
6.59084
 21
68.5679
  0
LINE
  8
0
 10
6.59084
 20
68.5679
 11
6.35585
 21
68.6971
  0
LINE
  8
0
 10
6.35585
 20
68.6971
 11
6.1389
 21
68.8547
  0
LINE
  8
0
 10
6.1389
 20
68.8547
 11
5.94344
 21
69.0383
  0
LINE
  8
0
 10
5.94344
 20
69.0383
 11
5.77251
 21
69.2449
  0
LINE
  8
0
 10
5.77251
 20
69.2449
 11
5.62881
 21
69.4713
  0
LINE
  8
0
 10
5.62881
 20
69.4713
 11
5.51465
 21
69.714
  0
LINE
  8
0
 10
5.51465
 20
69.714
 11
5.43178
 21
69.969
  0
LINE
  8
0
 10
5.43178
 20
69.969
 11
5.38153
 21
70.2324
  0
LINE
  8
0
 10
5.38153
 20
70.2324
 11
5.3647
 21
70.5
  0
LINE
  8
0
 10
5.3647
 20
70.5
 11
5.38153
 21
70.7676
  0
LINE
  8
0
 10
5.38153
 20
70.7676
 11
5.43178
 21
71.031
  0
LINE
  8
0
 10
5.43178
 20
71.031
 11
5.51465
 21
71.2861
  0
LINE
  8
0
 10
5.51465
 20
71.2861
 11
5.62881
 21
71.5287
  0
LINE
  8
0
 10
5.62881
 20
71.5287
 11
5.77251
 21
71.7551
  0
LINE
  8
0
 10
5.77251
 20
71.7551
 11
5.94344
 21
71.9617
  0
LINE
  8
0
 10
5.94344
 20
71.9617
 11
6.1389
 21
72.1453
  0
LINE
  8
0
 10
6.1389
 20
72.1453
 11
6.35585
 21
72.3029
  0
LINE
  8
0
 10
6.35585
 20
72.3029
 11
6.59084
 21
72.4321
  0
LINE
  8
0
 10
6.59084
 20
72.4321
 11
6.84015
 21
72.5308
  0
LINE
  8
0
 10
6.84015
 20
72.5308
 11
7.09988
 21
72.5975
  0
LINE
  8
0
 10
7.09988
 20
72.5975
 11
7.36592
 21
72.6311
  0
LINE
  8
0
 10
7.36592
 20
72.6311
 11
7.63406
 21
72.6311
  0
LINE
  8
0
 10
7.63406
 20
72.6311
 11
7.9001
 21
72.5975
  0
LINE
  8
0
 10
7.9001
 20
72.5975
 11
8.15984
 21
72.5308
  0
LINE
  8
0
 10
8.15984
 20
72.5308
 11
8.40915
 21
72.4321
  0
LINE
  8
0
 10
8.40915
 20
72.4321
 11
8.64413
 21
72.3029
  0
LINE
  8
0
 10
8.64413
 20
72.3029
 11
8.86108
 21
72.1453
  0
LINE
  8
0
 10
8.86108
 20
72.1453
 11
9.05655
 21
71.9617
  0
LINE
  8
0
 10
9.05655
 20
71.9617
 11
9.22748
 21
71.7551
  0
LINE
  8
0
 10
9.22748
 20
71.7551
 11
9.37117
 21
71.5287
  0
LINE
  8
0
 10
9.37117
 20
71.5287
 11
9.48534
 21
71.2861
  0
LINE
  8
0
 10
9.48534
 20
71.2861
 11
9.56821
 21
71.031
  0
LINE
  8
0
 10
9.56821
 20
71.031
 11
9.61845
 21
70.7676
  0
LINE
  8
0
 10
9.61845
 20
70.7676
 11
9.63528
 21
70.5
  0
LINE
  8
0
 10
9.63528
 20
70.5
 11
9.61845
 21
70.2324
  0
LINE
  8
0
 10
9.61845
 20
70.2324
 11
9.56821
 21
69.969
  0
LINE
  8
0
 10
9.56821
 20
69.969
 11
9.48534
 21
69.714
  0
LINE
  8
0
 10
9.48534
 20
69.714
 11
9.37117
 21
69.4713
  0
LINE
  8
0
 10
9.37117
 20
69.4713
 11
9.22748
 21
69.2449
  0
LINE
  8
0
 10
9.22748
 20
69.2449
 11
9.05655
 21
69.0383
  0
LINE
  8
0
 10
9.05655
 20
69.0383
 11
8.86108
 21
68.8547
  0
LINE
  8
0
 10
8.86108
 20
68.8547
 11
8.64413
 21
68.6971
  0
LINE
  8
0
 10
8.64413
 20
68.6971
 11
8.40915
 21
68.5679
  0
LINE
  8
0
 10
8.40915
 20
68.5679
 11
8.15984
 21
68.4692
  0
LINE
  8
0
 10
8.15984
 20
68.4692
 11
7.9001
 21
68.4025
  0
LINE
  8
0
 10
7.9001
 20
68.4025
 11
7.63406
 21
68.3689
  0
LINE
  8
0
 10
7.63406
 20
68.3689
 11
7.36592
 21
68.3689
  0
LINE
  8
0
 10
-7.63406
 20
68.3689
 11
-7.9001
 21
68.4025
  0
LINE
  8
0
 10
-7.9001
 20
68.4025
 11
-8.15984
 21
68.4692
  0
LINE
  8
0
 10
-8.15984
 20
68.4692
 11
-8.40915
 21
68.5679
  0
LINE
  8
0
 10
-8.40915
 20
68.5679
 11
-8.64413
 21
68.6971
  0
LINE
  8
0
 10
-8.64413
 20
68.6971
 11
-8.86108
 21
68.8547
  0
LINE
  8
0
 10
-8.86108
 20
68.8547
 11
-9.05655
 21
69.0383
  0
LINE
  8
0
 10
-9.05655
 20
69.0383
 11
-9.22748
 21
69.2449
  0
LINE
  8
0
 10
-9.22748
 20
69.2449
 11
-9.37117
 21
69.4713
  0
LINE
  8
0
 10
-9.37117
 20
69.4713
 11
-9.48534
 21
69.714
  0
LINE
  8
0
 10
-9.48534
 20
69.714
 11
-9.56821
 21
69.969
  0
LINE
  8
0
 10
-9.56821
 20
69.969
 11
-9.61845
 21
70.2324
  0
LINE
  8
0
 10
-9.61845
 20
70.2324
 11
-9.63528
 21
70.5
  0
LINE
  8
0
 10
-9.63528
 20
70.5
 11
-9.61845
 21
70.7676
  0
LINE
  8
0
 10
-9.61845
 20
70.7676
 11
-9.56821
 21
71.031
  0
LINE
  8
0
 10
-9.56821
 20
71.031
 11
-9.48534
 21
71.2861
  0
LINE
  8
0
 10
-9.48534
 20
71.2861
 11
-9.37117
 21
71.5287
  0
LINE
  8
0
 10
-9.37117
 20
71.5287
 11
-9.22748
 21
71.7551
  0
LINE
  8
0
 10
-9.22748
 20
71.7551
 11
-9.05655
 21
71.9617
  0
LINE
  8
0
 10
-9.05655
 20
71.9617
 11
-8.86108
 21
72.1453
  0
LINE
  8
0
 10
-8.86108
 20
72.1453
 11
-8.64413
 21
72.3029
  0
LINE
  8
0
 10
-8.64413
 20
72.3029
 11
-8.40915
 21
72.4321
  0
LINE
  8
0
 10
-8.40915
 20
72.4321
 11
-8.15984
 21
72.5308
  0
LINE
  8
0
 10
-8.15984
 20
72.5308
 11
-7.9001
 21
72.5975
  0
LINE
  8
0
 10
-7.9001
 20
72.5975
 11
-7.63406
 21
72.6311
  0
LINE
  8
0
 10
-7.63406
 20
72.6311
 11
-7.36592
 21
72.6311
  0
LINE
  8
0
 10
-7.36592
 20
72.6311
 11
-7.09988
 21
72.5975
  0
LINE
  8
0
 10
-7.09988
 20
72.5975
 11
-6.84015
 21
72.5308
  0
LINE
  8
0
 10
-6.84015
 20
72.5308
 11
-6.59084
 21
72.4321
  0
LINE
  8
0
 10
-6.59084
 20
72.4321
 11
-6.35585
 21
72.3029
  0
LINE
  8
0
 10
-6.35585
 20
72.3029
 11
-6.1389
 21
72.1453
  0
LINE
  8
0
 10
-6.1389
 20
72.1453
 11
-5.94344
 21
71.9617
  0
LINE
  8
0
 10
-5.94344
 20
71.9617
 11
-5.77251
 21
71.7551
  0
LINE
  8
0
 10
-5.77251
 20
71.7551
 11
-5.62881
 21
71.5287
  0
LINE
  8
0
 10
-5.62881
 20
71.5287
 11
-5.51465
 21
71.2861
  0
LINE
  8
0
 10
-5.51465
 20
71.2861
 11
-5.43178
 21
71.031
  0
LINE
  8
0
 10
-5.43178
 20
71.031
 11
-5.38153
 21
70.7676
  0
LINE
  8
0
 10
-5.38153
 20
70.7676
 11
-5.3647
 21
70.5
  0
LINE
  8
0
 10
-5.3647
 20
70.5
 11
-5.38153
 21
70.2324
  0
LINE
  8
0
 10
-5.38153
 20
70.2324
 11
-5.43178
 21
69.969
  0
LINE
  8
0
 10
-5.43178
 20
69.969
 11
-5.51465
 21
69.714
  0
LINE
  8
0
 10
-5.51465
 20
69.714
 11
-5.62881
 21
69.4713
  0
LINE
  8
0
 10
-5.62881
 20
69.4713
 11
-5.77251
 21
69.2449
  0
LINE
  8
0
 10
-5.77251
 20
69.2449
 11
-5.94344
 21
69.0383
  0
LINE
  8
0
 10
-5.94344
 20
69.0383
 11
-6.1389
 21
68.8547
  0
LINE
  8
0
 10
-6.1389
 20
68.8547
 11
-6.35585
 21
68.6971
  0
LINE
  8
0
 10
-6.35585
 20
68.6971
 11
-6.59084
 21
68.5679
  0
LINE
  8
0
 10
-6.59084
 20
68.5679
 11
-6.84015
 21
68.4692
  0
LINE
  8
0
 10
-6.84015
 20
68.4692
 11
-7.09988
 21
68.4025
  0
LINE
  8
0
 10
-7.09988
 20
68.4025
 11
-7.36592
 21
68.3689
  0
LINE
  8
0
 10
-7.36592
 20
68.3689
 11
-7.63406
 21
68.3689
  0
ENDSEC
  0
SECTION
  2
OBJECTS
  0
DICTIONARY
  0
ENDSEC
  0
EOF
