<?xml version="1.0" standalone="no"?>
<!DOCTYPE svg PUBLIC "-//W3C//DTD SVG 1.1//EN" "http://www.w3.org/Graphics/SVG/1.1/DTD/svg11.dtd">
<svg width="180mm" height="69mm" viewBox="-90 -132 180 69" xmlns="http://www.w3.org/2000/svg" version="1.1">
<title>OpenSCAD Model</title>
<path d="
M 85.9369,-102.089 L 86.5451,-102.245 L 87.1289,-102.476 L 87.6791,-102.778 L 88.1871,-103.147 L 88.6448,-103.577
 L 89.0451,-104.061 L 89.3815,-104.591 L 89.6489,-105.159 L 89.8429,-105.757 L 89.9606,-106.373 L 90,-107
 L 90,-127 L 89.9606,-127.627 L 89.8429,-128.243 L 89.6489,-128.841 L 89.3815,-129.409 L 89.0451,-129.939
 L 88.6448,-130.423 L 88.1871,-130.853 L 87.6791,-131.222 L 87.1289,-131.524 L 86.5451,-131.755 L 85.9369,-131.911
 L 85.3139,-131.99 L -85.3139,-131.99 L -85.9369,-131.911 L -86.5451,-131.755 L -87.1289,-131.524 L -87.6791,-131.222
 L -88.1871,-130.853 L -88.6448,-130.423 L -89.0451,-129.939 L -89.3815,-129.409 L -89.6489,-128.841 L -89.8429,-128.243
 L -89.9606,-127.627 L -90,-127 L -90,-107 L -89.9606,-106.373 L -89.8429,-105.757 L -89.6489,-105.159
 L -89.3815,-104.591 L -89.0451,-104.061 L -88.6448,-103.577 L -88.1871,-103.147 L -87.6791,-102.778 L -87.1289,-102.476
 L -86.5451,-102.245 L -85.9369,-102.089 L -85.3139,-102.01 L 85.3139,-102.01 z
M -85.0375,-102.681 L -85.6079,-102.753 L -86.1648,-102.896 L -86.6994,-103.107 L -87.2032,-103.384 L -87.6684,-103.722
 L -88.0875,-104.116 L -88.454,-104.559 L -88.7621,-105.044 L -89.0069,-105.565 L -89.1846,-106.111 L -89.2923,-106.676
 L -89.3284,-107.25 L -89.3284,-126.75 L -89.2923,-127.324 L -89.1846,-127.889 L -89.0069,-128.435 L -88.7621,-128.956
 L -88.454,-129.441 L -88.0875,-129.884 L -87.6684,-130.278 L -87.2032,-130.616 L -86.6994,-130.893 L -86.1648,-131.104
 L -85.6079,-131.247 L -85.0375,-131.319 L 85.0375,-131.319 L 85.6079,-131.247 L 86.1648,-131.104 L 86.6994,-130.893
 L 87.2032,-130.616 L 87.6684,-130.278 L 88.0875,-129.884 L 88.454,-129.441 L 88.7621,-128.956 L 89.0069,-128.435
 L 89.1846,-127.889 L 89.2923,-127.324 L 89.3284,-126.75 L 89.3284,-107.25 L 89.2923,-106.676 L 89.1846,-106.111
 L 89.0069,-105.565 L 88.7621,-105.044 L 88.454,-104.559 L 88.0875,-104.116 L 87.6684,-103.722 L 87.2032,-103.384
 L 86.6994,-103.107 L 86.1648,-102.896 L 85.6079,-102.753 L 85.0375,-102.681 z
M 85.9369,-63.0886 L 86.5451,-63.2447 L 87.1289,-63.4759 L 87.6791,-63.7784 L 88.1871,-64.1474 L 88.6448,-64.5773
 L 89.0451,-65.0611 L 89.3815,-65.5912 L 89.6489,-66.1594 L 89.8429,-66.7566 L 89.9606,-67.3733 L 90,-68
 L 90,-88 L 89.9606,-88.6267 L 89.8429,-89.2434 L 89.6489,-89.8406 L 89.3815,-90.4088 L 89.0451,-90.9389
 L 88.6448,-91.4227 L 88.1871,-91.8526 L 87.6791,-92.2216 L 87.1289,-92.5241 L 86.5451,-92.7553 L 85.9369,-92.9114
 L 85.3139,-92.9901 L -85.3139,-92.9901 L -85.9369,-92.9114 L -86.5451,-92.7553 L -87.1289,-92.5241 L -87.6791,-92.2216
 L -88.1871,-91.8526 L -88.6448,-91.4227 L -89.0451,-90.9389 L -89.3815,-90.4088 L -89.6489,-89.8406 L -89.8429,-89.2434
 L -89.9606,-88.6267 L -90,-88 L -90,-68 L -89.9606,-67.3733 L -89.8429,-66.7566 L -89.6489,-66.1594
 L -89.3815,-65.5912 L -89.0451,-65.0611 L -88.6448,-64.5773 L -88.1871,-64.1474 L -87.6791,-63.7784 L -87.1289,-63.4759
 L -86.5451,-63.2447 L -85.9369,-63.0886 L -85.3139,-63.0099 L 85.3139,-63.0099 z
M -84.8825,-66.1445 L -85.1453,-66.1777 L -85.4019,-66.2436 L -85.6482,-66.3412 L -85.8804,-66.4688 L -86.0947,-66.6245
 L -86.2879,-66.8059 L -86.4567,-67.01 L -86.5987,-67.2337 L -86.7115,-67.4734 L -86.7934,-67.7254 L -86.843,-67.9856
 L -86.8596,-68.25 L -86.8596,-87.75 L -86.843,-88.0144 L -86.7934,-88.2746 L -86.7115,-88.5266 L -86.5987,-88.7663
 L -86.4567,-88.99 L -86.2879,-89.1941 L -86.0947,-89.3755 L -85.8804,-89.5312 L -85.6482,-89.6588 L -85.4019,-89.7564
 L -85.1453,-89.8223 L -84.8825,-89.8555 L 84.8825,-89.8555 L 85.1453,-89.8223 L 85.4019,-89.7564 L 85.6482,-89.6588
 L 85.8804,-89.5312 L 86.0947,-89.3755 L 86.2879,-89.1941 L 86.4567,-88.99 L 86.5987,-88.7663 L 86.7115,-88.5266
 L 86.7934,-88.2746 L 86.843,-88.0144 L 86.8596,-87.75 L 86.8596,-68.25 L 86.843,-67.9856 L 86.7934,-67.7254
 L 86.7115,-67.4734 L 86.5987,-67.2337 L 86.4567,-67.01 L 86.2879,-66.8059 L 86.0947,-66.6245 L 85.8804,-66.4688
 L 85.6482,-66.3412 L 85.4019,-66.2436 L 85.1453,-66.1777 L 84.8825,-66.1445 z
" stroke="black" fill="lightgray" stroke-width="0.5"/>
</svg>
