<?xml version="1.0" standalone="no"?>
<!DOCTYPE svg PUBLIC "-//W3C//DTD SVG 1.1//EN" "http://www.w3.org/Graphics/SVG/1.1/DTD/svg11.dtd">
<svg width="16mm" height="262mm" viewBox="-8 -509 16 262" xmlns="http://www.w3.org/2000/svg" version="1.1">
<title>OpenSCAD Model</title>
<path d="
M 3.4369,-463.589 L 4.04507,-463.745 L 4.62889,-463.976 L 5.17912,-464.278 L 5.68712,-464.647 L 6.14484,-465.077
 L 6.54507,-465.561 L 6.88153,-466.091 L 7.14888,-466.659 L 7.34291,-467.257 L 7.46057,-467.873 L 7.5,-468.5
 L 7.5,-503.5 L 7.46057,-504.127 L 7.34291,-504.743 L 7.14888,-505.341 L 6.88153,-505.909 L 6.54507,-506.439
 L 6.14484,-506.923 L 5.68712,-507.353 L 5.17912,-507.722 L 4.62889,-508.024 L 4.04507,-508.255 L 3.4369,-508.411
 L 2.81395,-508.49 L -2.81395,-508.49 L -3.4369,-508.411 L -4.04507,-508.255 L -4.62889,-508.024 L -5.17912,-507.722
 L -5.68712,-507.353 L -6.14484,-506.923 L -6.54507,-506.439 L -6.88153,-505.909 L -7.14888,-505.341 L -7.34291,-504.743
 L -7.46057,-504.127 L -7.5,-503.5 L -7.5,-468.5 L -7.46057,-467.873 L -7.34291,-467.257 L -7.14888,-466.659
 L -6.88153,-466.091 L -6.54507,-465.561 L -6.14484,-465.077 L -5.68712,-464.647 L -5.17912,-464.278 L -4.62889,-463.976
 L -4.04507,-463.745 L -3.4369,-463.589 L -2.81395,-463.51 L 2.81395,-463.51 z
M -2.25116,-465.008 L -2.74951,-465.071 L -3.23605,-465.196 L -3.70311,-465.381 L -4.1433,-465.623 L -4.54968,-465.918
 L -4.91586,-466.262 L -5.23605,-466.649 L -5.50522,-467.073 L -5.7191,-467.528 L -5.87433,-468.005 L -5.96844,-468.499
 L -6,-469 L -6,-503 L -5.96844,-503.501 L -5.87433,-503.995 L -5.7191,-504.472 L -5.50522,-504.927
 L -5.23605,-505.351 L -4.91586,-505.738 L -4.54968,-506.082 L -4.1433,-506.377 L -3.70311,-506.619 L -3.23605,-506.804
 L -2.74951,-506.929 L -2.25116,-506.992 L 2.25116,-506.992 L 2.74951,-506.929 L 3.23605,-506.804 L 3.70311,-506.619
 L 4.1433,-506.377 L 4.54968,-506.082 L 4.91586,-505.738 L 5.23605,-505.351 L 5.50522,-504.927 L 5.7191,-504.472
 L 5.87433,-503.995 L 5.96844,-503.501 L 6,-503 L 6,-469 L 5.96844,-468.499 L 5.87433,-468.005
 L 5.7191,-467.528 L 5.50522,-467.073 L 5.23605,-466.649 L 4.91586,-466.262 L 4.54968,-465.918 L 4.1433,-465.623
 L 3.70311,-465.381 L 3.23605,-465.196 L 2.74951,-465.071 L 2.25116,-465.008 z
M 3.4369,-409.589 L 4.04507,-409.745 L 4.62889,-409.976 L 5.17912,-410.278 L 5.68712,-410.647 L 6.14484,-411.077
 L 6.54507,-411.561 L 6.88153,-412.091 L 7.14888,-412.659 L 7.34291,-413.257 L 7.46057,-413.873 L 7.5,-414.5
 L 7.5,-449.5 L 7.46057,-450.127 L 7.34291,-450.743 L 7.14888,-451.341 L 6.88153,-451.909 L 6.54507,-452.439
 L 6.14484,-452.923 L 5.68712,-453.353 L 5.17912,-453.722 L 4.62889,-454.024 L 4.04507,-454.255 L 3.4369,-454.411
 L 2.81395,-454.49 L -2.81395,-454.49 L -3.4369,-454.411 L -4.04507,-454.255 L -4.62889,-454.024 L -5.17912,-453.722
 L -5.68712,-453.353 L -6.14484,-452.923 L -6.54507,-452.439 L -6.88153,-451.909 L -7.14888,-451.341 L -7.34291,-450.743
 L -7.46057,-450.127 L -7.5,-449.5 L -7.5,-414.5 L -7.46057,-413.873 L -7.34291,-413.257 L -7.14888,-412.659
 L -6.88153,-412.091 L -6.54507,-411.561 L -6.14484,-411.077 L -5.68712,-410.647 L -5.17912,-410.278 L -4.62889,-409.976
 L -4.04507,-409.745 L -3.4369,-409.589 L -2.81395,-409.51 L 2.81395,-409.51 z
M -2.25116,-411.008 L -2.74951,-411.071 L -3.23605,-411.196 L -3.70311,-411.381 L -4.1433,-411.623 L -4.54968,-411.918
 L -4.91586,-412.262 L -5.23605,-412.649 L -5.50522,-413.073 L -5.7191,-413.528 L -5.87433,-414.005 L -5.96844,-414.499
 L -6,-415 L -6,-449 L -5.96844,-449.501 L -5.87433,-449.995 L -5.7191,-450.472 L -5.50522,-450.927
 L -5.23605,-451.351 L -4.91586,-451.738 L -4.54968,-452.082 L -4.1433,-452.377 L -3.70311,-452.619 L -3.23605,-452.804
 L -2.74951,-452.929 L -2.25116,-452.992 L 2.25116,-452.992 L 2.74951,-452.929 L 3.23605,-452.804 L 3.70311,-452.619
 L 4.1433,-452.377 L 4.54968,-452.082 L 4.91586,-451.738 L 5.23605,-451.351 L 5.50522,-450.927 L 5.7191,-450.472
 L 5.87433,-449.995 L 5.96844,-449.501 L 6,-449 L 6,-415 L 5.96844,-414.499 L 5.87433,-414.005
 L 5.7191,-413.528 L 5.50522,-413.073 L 5.23605,-412.649 L 4.91586,-412.262 L 4.54968,-411.918 L 4.1433,-411.623
 L 3.70311,-411.381 L 3.23605,-411.196 L 2.74951,-411.071 L 2.25116,-411.008 z
M 3.4369,-355.589 L 4.04507,-355.745 L 4.62889,-355.976 L 5.17912,-356.278 L 5.68712,-356.647 L 6.14484,-357.077
 L 6.54507,-357.561 L 6.88153,-358.091 L 7.14888,-358.659 L 7.34291,-359.257 L 7.46057,-359.873 L 7.5,-360.5
 L 7.5,-395.5 L 7.46057,-396.127 L 7.34291,-396.743 L 7.14888,-397.341 L 6.88153,-397.909 L 6.54507,-398.439
 L 6.14484,-398.923 L 5.68712,-399.353 L 5.17912,-399.722 L 4.62889,-400.024 L 4.04507,-400.255 L 3.4369,-400.411
 L 2.81395,-400.49 L -2.81395,-400.49 L -3.4369,-400.411 L -4.04507,-400.255 L -4.62889,-400.024 L -5.17912,-399.722
 L -5.68712,-399.353 L -6.14484,-398.923 L -6.54507,-398.439 L -6.88153,-397.909 L -7.14888,-397.341 L -7.34291,-396.743
 L -7.46057,-396.127 L -7.5,-395.5 L -7.5,-360.5 L -7.46057,-359.873 L -7.34291,-359.257 L -7.14888,-358.659
 L -6.88153,-358.091 L -6.54507,-357.561 L -6.14484,-357.077 L -5.68712,-356.647 L -5.17912,-356.278 L -4.62889,-355.976
 L -4.04507,-355.745 L -3.4369,-355.589 L -2.81395,-355.51 L 2.81395,-355.51 z
M -2.25116,-357.008 L -2.74951,-357.071 L -3.23605,-357.196 L -3.70311,-357.381 L -4.1433,-357.623 L -4.54968,-357.918
 L -4.91586,-358.262 L -5.23605,-358.649 L -5.50522,-359.073 L -5.7191,-359.528 L -5.87433,-360.005 L -5.96844,-360.499
 L -6,-361 L -6,-395 L -5.96844,-395.501 L -5.87433,-395.995 L -5.7191,-396.472 L -5.50522,-396.927
 L -5.23605,-397.351 L -4.91586,-397.738 L -4.54968,-398.082 L -4.1433,-398.377 L -3.70311,-398.619 L -3.23605,-398.804
 L -2.74951,-398.929 L -2.25116,-398.992 L 2.25116,-398.992 L 2.74951,-398.929 L 3.23605,-398.804 L 3.70311,-398.619
 L 4.1433,-398.377 L 4.54968,-398.082 L 4.91586,-397.738 L 5.23605,-397.351 L 5.50522,-396.927 L 5.7191,-396.472
 L 5.87433,-395.995 L 5.96844,-395.501 L 6,-395 L 6,-361 L 5.96844,-360.499 L 5.87433,-360.005
 L 5.7191,-359.528 L 5.50522,-359.073 L 5.23605,-358.649 L 4.91586,-358.262 L 4.54968,-357.918 L 4.1433,-357.623
 L 3.70311,-357.381 L 3.23605,-357.196 L 2.74951,-357.071 L 2.25116,-357.008 z
M 3.4369,-301.589 L 4.04507,-301.745 L 4.62889,-301.976 L 5.17912,-302.278 L 5.68712,-302.647 L 6.14484,-303.077
 L 6.54507,-303.561 L 6.88153,-304.091 L 7.14888,-304.659 L 7.34291,-305.257 L 7.46057,-305.873 L 7.5,-306.5
 L 7.5,-341.5 L 7.46057,-342.127 L 7.34291,-342.743 L 7.14888,-343.341 L 6.88153,-343.909 L 6.54507,-344.439
 L 6.14484,-344.923 L 5.68712,-345.353 L 5.17912,-345.722 L 4.62889,-346.024 L 4.04507,-346.255 L 3.4369,-346.411
 L 2.81395,-346.49 L -2.81395,-346.49 L -3.4369,-346.411 L -4.04507,-346.255 L -4.62889,-346.024 L -5.17912,-345.722
 L -5.68712,-345.353 L -6.14484,-344.923 L -6.54507,-344.439 L -6.88153,-343.909 L -7.14888,-343.341 L -7.34291,-342.743
 L -7.46057,-342.127 L -7.5,-341.5 L -7.5,-306.5 L -7.46057,-305.873 L -7.34291,-305.257 L -7.14888,-304.659
 L -6.88153,-304.091 L -6.54507,-303.561 L -6.14484,-303.077 L -5.68712,-302.647 L -5.17912,-302.278 L -4.62889,-301.976
 L -4.04507,-301.745 L -3.4369,-301.589 L -2.81395,-301.51 L 2.81395,-301.51 z
M -2.19545,-303.893 L -2.5833,-303.942 L -2.96194,-304.039 L -3.32541,-304.183 L -3.66798,-304.372 L -3.98424,-304.601
 L -4.26921,-304.869 L -4.5184,-305.17 L -4.72786,-305.5 L -4.89432,-305.854 L -5.01512,-306.226 L -5.08836,-306.61
 L -5.11292,-307 L -5.11292,-341 L -5.08836,-341.39 L -5.01512,-341.774 L -4.89432,-342.146 L -4.72786,-342.5
 L -4.5184,-342.83 L -4.26921,-343.131 L -3.98424,-343.399 L -3.66798,-343.628 L -3.32541,-343.817 L -2.96194,-343.961
 L -2.5833,-344.058 L -2.19545,-344.107 L 2.19545,-344.107 L 2.5833,-344.058 L 2.96194,-343.961 L 3.32541,-343.817
 L 3.66798,-343.628 L 3.98424,-343.399 L 4.26921,-343.131 L 4.5184,-342.83 L 4.72786,-342.5 L 4.89432,-342.146
 L 5.01512,-341.774 L 5.08836,-341.39 L 5.11292,-341 L 5.11292,-307 L 5.08836,-306.61 L 5.01512,-306.226
 L 4.89432,-305.854 L 4.72786,-305.5 L 4.5184,-305.17 L 4.26921,-304.869 L 3.98424,-304.601 L 3.66798,-304.372
 L 3.32541,-304.183 L 2.96194,-304.039 L 2.5833,-303.942 L 2.19545,-303.893 z
M 3.4369,-247.589 L 4.04507,-247.745 L 4.62889,-247.976 L 5.17912,-248.278 L 5.68712,-248.647 L 6.14484,-249.077
 L 6.54507,-249.561 L 6.88153,-250.091 L 7.14888,-250.659 L 7.34291,-251.257 L 7.46057,-251.873 L 7.5,-252.5
 L 7.5,-287.5 L 7.46057,-288.127 L 7.34291,-288.743 L 7.14888,-289.341 L 6.88153,-289.909 L 6.54507,-290.439
 L 6.14484,-290.923 L 5.68712,-291.353 L 5.17912,-291.722 L 4.62889,-292.024 L 4.04507,-292.255 L 3.4369,-292.411
 L 2.81395,-292.49 L -2.81395,-292.49 L -3.4369,-292.411 L -4.04507,-292.255 L -4.62889,-292.024 L -5.17912,-291.722
 L -5.68712,-291.353 L -6.14484,-290.923 L -6.54507,-290.439 L -6.88153,-289.909 L -7.14888,-289.341 L -7.34291,-288.743
 L -7.46057,-288.127 L -7.5,-287.5 L -7.5,-252.5 L -7.46057,-251.873 L -7.34291,-251.257 L -7.14888,-250.659
 L -6.88153,-250.091 L -6.54507,-249.561 L -6.14484,-249.077 L -5.68712,-248.647 L -5.17912,-248.278 L -4.62889,-247.976
 L -4.04507,-247.745 L -3.4369,-247.589 L -2.81395,-247.51 L 2.81395,-247.51 z
M -0.134064,-282.869 L -0.400101,-282.903 L -0.659836,-282.969 L -0.909149,-283.068 L -1.14413,-283.197 L -1.36108,-283.355
 L -1.55655,-283.538 L -1.72748,-283.745 L -1.87117,-283.971 L -1.98534,-284.214 L -2.06821,-284.469 L -2.11845,-284.732
 L -2.13528,-285 L -2.11845,-285.268 L -2.06821,-285.531 L -1.98534,-285.786 L -1.87117,-286.029 L -1.72748,-286.255
 L -1.55655,-286.462 L -1.36108,-286.645 L -1.14413,-286.803 L -0.909149,-286.932 L -0.659836,-287.031 L -0.400101,-287.097
 L -0.134064,-287.131 L 0.134064,-287.131 L 0.400101,-287.097 L 0.659836,-287.031 L 0.909149,-286.932 L 1.14413,-286.803
 L 1.36108,-286.645 L 1.55655,-286.462 L 1.72748,-286.255 L 1.87117,-286.029 L 1.98534,-285.786 L 2.06821,-285.531
 L 2.11845,-285.268 L 2.13528,-285 L 2.11845,-284.732 L 2.06821,-284.469 L 1.98534,-284.214 L 1.87117,-283.971
 L 1.72748,-283.745 L 1.55655,-283.538 L 1.36108,-283.355 L 1.14413,-283.197 L 0.909149,-283.068 L 0.659836,-282.969
 L 0.400101,-282.903 L 0.134064,-282.869 z
M -0.134064,-252.869 L -0.400101,-252.903 L -0.659836,-252.969 L -0.909149,-253.068 L -1.14413,-253.197 L -1.36108,-253.355
 L -1.55655,-253.538 L -1.72748,-253.745 L -1.87117,-253.971 L -1.98534,-254.214 L -2.06821,-254.469 L -2.11845,-254.732
 L -2.13528,-255 L -2.11845,-255.268 L -2.06821,-255.531 L -1.98534,-255.786 L -1.87117,-256.029 L -1.72748,-256.255
 L -1.55655,-256.462 L -1.36108,-256.645 L -1.14413,-256.803 L -0.909149,-256.932 L -0.659836,-257.031 L -0.400101,-257.097
 L -0.134064,-257.131 L 0.134064,-257.131 L 0.400101,-257.097 L 0.659836,-257.031 L 0.909149,-256.932 L 1.14413,-256.803
 L 1.36108,-256.645 L 1.55655,-256.462 L 1.72748,-256.255 L 1.87117,-256.029 L 1.98534,-255.786 L 2.06821,-255.531
 L 2.11845,-255.268 L 2.13528,-255 L 2.11845,-254.732 L 2.06821,-254.469 L 1.98534,-254.214 L 1.87117,-253.971
 L 1.72748,-253.745 L 1.55655,-253.538 L 1.36108,-253.355 L 1.14413,-253.197 L 0.909149,-253.068 L 0.659836,-252.969
 L 0.400101,-252.903 L 0.134064,-252.869 z
" stroke="black" fill="lightgray" stroke-width="0.5"/>
</svg>
