  0
SECTION
  2
BLOCKS
  0
ENDSEC
  0
SECTION
  2
ENTITIES
  0
LINE
  8
0
 10
-73.5
 20
181.441
 11
-73.1871
 21
181.147
  0
LINE
  8
0
 10
-73.1871
 20
181.147
 11
-72.6791
 21
180.778
  0
LINE
  8
0
 10
-72.6791
 20
180.778
 11
-72.1289
 21
180.476
  0
LINE
  8
0
 10
-72.1289
 20
180.476
 11
-71.5451
 21
180.245
  0
LINE
  8
0
 10
-71.5451
 20
180.245
 11
-70.9369
 21
180.089
  0
LINE
  8
0
 10
-70.9369
 20
180.089
 11
-70.3139
 21
180.01
  0
LINE
  8
0
 10
-70.3139
 20
180.01
 11
70.3139
 21
180.01
  0
LINE
  8
0
 10
70.3139
 20
180.01
 11
70.9369
 21
180.089
  0
LINE
  8
0
 10
70.9369
 20
180.089
 11
71.5451
 21
180.245
  0
LINE
  8
0
 10
71.5451
 20
180.245
 11
72.1289
 21
180.476
  0
LINE
  8
0
 10
72.1289
 20
180.476
 11
72.6791
 21
180.778
  0
LINE
  8
0
 10
72.6791
 20
180.778
 11
73.1871
 21
181.147
  0
LINE
  8
0
 10
73.1871
 20
181.147
 11
73.6448
 21
181.577
  0
LINE
  8
0
 10
73.6448
 20
181.577
 11
74.0451
 21
182.061
  0
LINE
  8
0
 10
74.0451
 20
182.061
 11
74.3815
 21
182.591
  0
LINE
  8
0
 10
74.3815
 20
182.591
 11
74.6489
 21
183.159
  0
LINE
  8
0
 10
74.6489
 20
183.159
 11
74.8429
 21
183.757
  0
LINE
  8
0
 10
74.8429
 20
183.757
 11
74.9606
 21
184.373
  0
LINE
  8
0
 10
74.9606
 20
184.373
 11
75
 21
185
  0
LINE
  8
0
 10
75
 20
185
 11
75
 21
205
  0
LINE
  8
0
 10
75
 20
205
 11
74.9606
 21
205.627
  0
LINE
  8
0
 10
74.9606
 20
205.627
 11
74.8429
 21
206.243
  0
LINE
  8
0
 10
74.8429
 20
206.243
 11
74.6489
 21
206.841
  0
LINE
  8
0
 10
74.6489
 20
206.841
 11
74.3815
 21
207.409
  0
LINE
  8
0
 10
74.3815
 20
207.409
 11
74.0451
 21
207.939
  0
LINE
  8
0
 10
74.0451
 20
207.939
 11
73.6448
 21
208.423
  0
LINE
  8
0
 10
73.6448
 20
208.423
 11
73.1871
 21
208.853
  0
LINE
  8
0
 10
73.1871
 20
208.853
 11
72.6791
 21
209.222
  0
LINE
  8
0
 10
72.6791
 20
209.222
 11
72.1289
 21
209.524
  0
LINE
  8
0
 10
72.1289
 20
209.524
 11
71.5451
 21
209.755
  0
LINE
  8
0
 10
71.5451
 20
209.755
 11
70.9369
 21
209.911
  0
LINE
  8
0
 10
70.9369
 20
209.911
 11
70.3139
 21
209.99
  0
LINE
  8
0
 10
70.3139
 20
209.99
 11
-70.3139
 21
209.99
  0
LINE
  8
0
 10
-70.3139
 20
209.99
 11
-70.9369
 21
209.911
  0
LINE
  8
0
 10
-70.9369
 20
209.911
 11
-71.5451
 21
209.755
  0
LINE
  8
0
 10
-71.5451
 20
209.755
 11
-72.1289
 21
209.524
  0
LINE
  8
0
 10
-72.1289
 20
209.524
 11
-72.6791
 21
209.222
  0
LINE
  8
0
 10
-72.6791
 20
209.222
 11
-73.1871
 21
208.853
  0
LINE
  8
0
 10
-73.1871
 20
208.853
 11
-73.5
 21
208.559
  0
LINE
  8
0
 10
-73.5
 20
208.559
 11
-73.5
 21
209.99
  0
LINE
  8
0
 10
-73.5
 20
209.99
 11
-76.5
 21
209.99
  0
LINE
  8
0
 10
-76.5
 20
209.99
 11
-76.5
 21
180.01
  0
LINE
  8
0
 10
-76.5
 20
180.01
 11
-73.5
 21
180.01
  0
LINE
  8
0
 10
-73.5
 20
180.01
 11
-73.5
 21
181.441
  0
LINE
  8
0
 10
-69.7512
 20
181.508
 11
-70.2495
 21
181.571
  0
LINE
  8
0
 10
-70.2495
 20
181.571
 11
-70.7361
 21
181.696
  0
LINE
  8
0
 10
-70.7361
 20
181.696
 11
-71.2031
 21
181.881
  0
LINE
  8
0
 10
-71.2031
 20
181.881
 11
-71.6433
 21
182.123
  0
LINE
  8
0
 10
-71.6433
 20
182.123
 11
-72.0497
 21
182.418
  0
LINE
  8
0
 10
-72.0497
 20
182.418
 11
-72.4159
 21
182.762
  0
LINE
  8
0
 10
-72.4159
 20
182.762
 11
-72.7361
 21
183.149
  0
LINE
  8
0
 10
-72.7361
 20
183.149
 11
-73.0052
 21
183.573
  0
LINE
  8
0
 10
-73.0052
 20
183.573
 11
-73.2191
 21
184.028
  0
LINE
  8
0
 10
-73.2191
 20
184.028
 11
-73.3743
 21
184.505
  0
LINE
  8
0
 10
-73.3743
 20
184.505
 11
-73.4685
 21
184.999
  0
LINE
  8
0
 10
-73.4685
 20
184.999
 11
-73.5
 21
185.5
  0
LINE
  8
0
 10
-73.5
 20
185.5
 11
-73.5
 21
204.5
  0
LINE
  8
0
 10
-73.5
 20
204.5
 11
-73.4685
 21
205.001
  0
LINE
  8
0
 10
-73.4685
 20
205.001
 11
-73.3743
 21
205.495
  0
LINE
  8
0
 10
-73.3743
 20
205.495
 11
-73.2191
 21
205.972
  0
LINE
  8
0
 10
-73.2191
 20
205.972
 11
-73.0052
 21
206.427
  0
LINE
  8
0
 10
-73.0052
 20
206.427
 11
-72.7361
 21
206.851
  0
LINE
  8
0
 10
-72.7361
 20
206.851
 11
-72.4159
 21
207.238
  0
LINE
  8
0
 10
-72.4159
 20
207.238
 11
-72.0497
 21
207.582
  0
LINE
  8
0
 10
-72.0497
 20
207.582
 11
-71.6433
 21
207.877
  0
LINE
  8
0
 10
-71.6433
 20
207.877
 11
-71.2031
 21
208.119
  0
LINE
  8
0
 10
-71.2031
 20
208.119
 11
-70.7361
 21
208.304
  0
LINE
  8
0
 10
-70.7361
 20
208.304
 11
-70.2495
 21
208.429
  0
LINE
  8
0
 10
-70.2495
 20
208.429
 11
-69.7512
 21
208.492
  0
LINE
  8
0
 10
-69.7512
 20
208.492
 11
69.7512
 21
208.492
  0
LINE
  8
0
 10
69.7512
 20
208.492
 11
70.2495
 21
208.429
  0
LINE
  8
0
 10
70.2495
 20
208.429
 11
70.7361
 21
208.304
  0
LINE
  8
0
 10
70.7361
 20
208.304
 11
71.2031
 21
208.119
  0
LINE
  8
0
 10
71.2031
 20
208.119
 11
71.6433
 21
207.877
  0
LINE
  8
0
 10
71.6433
 20
207.877
 11
72.0497
 21
207.582
  0
LINE
  8
0
 10
72.0497
 20
207.582
 11
72.4159
 21
207.238
  0
LINE
  8
0
 10
72.4159
 20
207.238
 11
72.7361
 21
206.851
  0
LINE
  8
0
 10
72.7361
 20
206.851
 11
73.0052
 21
206.427
  0
LINE
  8
0
 10
73.0052
 20
206.427
 11
73.2191
 21
205.972
  0
LINE
  8
0
 10
73.2191
 20
205.972
 11
73.3743
 21
205.495
  0
LINE
  8
0
 10
73.3743
 20
205.495
 11
73.4685
 21
205.001
  0
LINE
  8
0
 10
73.4685
 20
205.001
 11
73.5
 21
204.5
  0
LINE
  8
0
 10
73.5
 20
204.5
 11
73.5
 21
185.5
  0
LINE
  8
0
 10
73.5
 20
185.5
 11
73.4685
 21
184.999
  0
LINE
  8
0
 10
73.4685
 20
184.999
 11
73.3743
 21
184.505
  0
LINE
  8
0
 10
73.3743
 20
184.505
 11
73.2191
 21
184.028
  0
LINE
  8
0
 10
73.2191
 20
184.028
 11
73.0052
 21
183.573
  0
LINE
  8
0
 10
73.0052
 20
183.573
 11
72.7361
 21
183.149
  0
LINE
  8
0
 10
72.7361
 20
183.149
 11
72.4159
 21
182.762
  0
LINE
  8
0
 10
72.4159
 20
182.762
 11
72.0497
 21
182.418
  0
LINE
  8
0
 10
72.0497
 20
182.418
 11
71.6433
 21
182.123
  0
LINE
  8
0
 10
71.6433
 20
182.123
 11
71.2031
 21
181.881
  0
LINE
  8
0
 10
71.2031
 20
181.881
 11
70.7361
 21
181.696
  0
LINE
  8
0
 10
70.7361
 20
181.696
 11
70.2495
 21
181.571
  0
LINE
  8
0
 10
70.2495
 20
181.571
 11
69.7512
 21
181.508
  0
LINE
  8
0
 10
69.7512
 20
181.508
 11
-69.7512
 21
181.508
  0
LINE
  8
0
 10
70.9369
 20
141.089
 11
71.5451
 21
141.245
  0
LINE
  8
0
 10
71.5451
 20
141.245
 11
72.1289
 21
141.476
  0
LINE
  8
0
 10
72.1289
 20
141.476
 11
72.6791
 21
141.778
  0
LINE
  8
0
 10
72.6791
 20
141.778
 11
73.1871
 21
142.147
  0
LINE
  8
0
 10
73.1871
 20
142.147
 11
73.6448
 21
142.577
  0
LINE
  8
0
 10
73.6448
 20
142.577
 11
74.0451
 21
143.061
  0
LINE
  8
0
 10
74.0451
 20
143.061
 11
74.3815
 21
143.591
  0
LINE
  8
0
 10
74.3815
 20
143.591
 11
74.6489
 21
144.159
  0
LINE
  8
0
 10
74.6489
 20
144.159
 11
74.8429
 21
144.757
  0
LINE
  8
0
 10
74.8429
 20
144.757
 11
74.9606
 21
145.373
  0
LINE
  8
0
 10
74.9606
 20
145.373
 11
75
 21
146
  0
LINE
  8
0
 10
75
 20
146
 11
75
 21
166
  0
LINE
  8
0
 10
75
 20
166
 11
74.9606
 21
166.627
  0
LINE
  8
0
 10
74.9606
 20
166.627
 11
74.8429
 21
167.243
  0
LINE
  8
0
 10
74.8429
 20
167.243
 11
74.6489
 21
167.841
  0
LINE
  8
0
 10
74.6489
 20
167.841
 11
74.3815
 21
168.409
  0
LINE
  8
0
 10
74.3815
 20
168.409
 11
74.0451
 21
168.939
  0
LINE
  8
0
 10
74.0451
 20
168.939
 11
73.6448
 21
169.423
  0
LINE
  8
0
 10
73.6448
 20
169.423
 11
73.1871
 21
169.853
  0
LINE
  8
0
 10
73.1871
 20
169.853
 11
72.6791
 21
170.222
  0
LINE
  8
0
 10
72.6791
 20
170.222
 11
72.1289
 21
170.524
  0
LINE
  8
0
 10
72.1289
 20
170.524
 11
71.5451
 21
170.755
  0
LINE
  8
0
 10
71.5451
 20
170.755
 11
70.9369
 21
170.911
  0
LINE
  8
0
 10
70.9369
 20
170.911
 11
70.3139
 21
170.99
  0
LINE
  8
0
 10
70.3139
 20
170.99
 11
-70.3139
 21
170.99
  0
LINE
  8
0
 10
-70.3139
 20
170.99
 11
-70.9369
 21
170.911
  0
LINE
  8
0
 10
-70.9369
 20
170.911
 11
-71.5451
 21
170.755
  0
LINE
  8
0
 10
-71.5451
 20
170.755
 11
-72.1289
 21
170.524
  0
LINE
  8
0
 10
-72.1289
 20
170.524
 11
-72.6791
 21
170.222
  0
LINE
  8
0
 10
-72.6791
 20
170.222
 11
-73.1871
 21
169.853
  0
LINE
  8
0
 10
-73.1871
 20
169.853
 11
-73.5
 21
169.559
  0
LINE
  8
0
 10
-73.5
 20
169.559
 11
-73.5
 21
170.979
  0
LINE
  8
0
 10
-73.5
 20
170.979
 11
-76.5
 21
170.979
  0
LINE
  8
0
 10
-76.5
 20
170.979
 11
-76.5
 21
141.021
  0
LINE
  8
0
 10
-76.5
 20
141.021
 11
-73.5
 21
141.021
  0
LINE
  8
0
 10
-73.5
 20
141.021
 11
-73.5
 21
142.441
  0
LINE
  8
0
 10
-73.5
 20
142.441
 11
-73.1871
 21
142.147
  0
LINE
  8
0
 10
-73.1871
 20
142.147
 11
-72.6791
 21
141.778
  0
LINE
  8
0
 10
-72.6791
 20
141.778
 11
-72.1289
 21
141.476
  0
LINE
  8
0
 10
-72.1289
 20
141.476
 11
-71.5451
 21
141.245
  0
LINE
  8
0
 10
-71.5451
 20
141.245
 11
-70.9369
 21
141.089
  0
LINE
  8
0
 10
-70.9369
 20
141.089
 11
-70.3139
 21
141.01
  0
LINE
  8
0
 10
-70.3139
 20
141.01
 11
70.3139
 21
141.01
  0
LINE
  8
0
 10
70.3139
 20
141.01
 11
70.9369
 21
141.089
  0
LINE
  8
0
 10
-69.6955
 20
143.393
 11
-70.0833
 21
143.442
  0
LINE
  8
0
 10
-70.0833
 20
143.442
 11
-70.4619
 21
143.539
  0
LINE
  8
0
 10
-70.4619
 20
143.539
 11
-70.8254
 21
143.683
  0
LINE
  8
0
 10
-70.8254
 20
143.683
 11
-71.168
 21
143.872
  0
LINE
  8
0
 10
-71.168
 20
143.872
 11
-71.4843
 21
144.101
  0
LINE
  8
0
 10
-71.4843
 20
144.101
 11
-71.7692
 21
144.369
  0
LINE
  8
0
 10
-71.7692
 20
144.369
 11
-72.0184
 21
144.67
  0
LINE
  8
0
 10
-72.0184
 20
144.67
 11
-72.2279
 21
145
  0
LINE
  8
0
 10
-72.2279
 20
145
 11
-72.3943
 21
145.354
  0
LINE
  8
0
 10
-72.3943
 20
145.354
 11
-72.5151
 21
145.726
  0
LINE
  8
0
 10
-72.5151
 20
145.726
 11
-72.5884
 21
146.11
  0
LINE
  8
0
 10
-72.5884
 20
146.11
 11
-72.6129
 21
146.5
  0
LINE
  8
0
 10
-72.6129
 20
146.5
 11
-72.6129
 21
165.5
  0
LINE
  8
0
 10
-72.6129
 20
165.5
 11
-72.5884
 21
165.89
  0
LINE
  8
0
 10
-72.5884
 20
165.89
 11
-72.5151
 21
166.274
  0
LINE
  8
0
 10
-72.5151
 20
166.274
 11
-72.3943
 21
166.646
  0
LINE
  8
0
 10
-72.3943
 20
166.646
 11
-72.2279
 21
167
  0
LINE
  8
0
 10
-72.2279
 20
167
 11
-72.0184
 21
167.33
  0
LINE
  8
0
 10
-72.0184
 20
167.33
 11
-71.7692
 21
167.631
  0
LINE
  8
0
 10
-71.7692
 20
167.631
 11
-71.4843
 21
167.899
  0
LINE
  8
0
 10
-71.4843
 20
167.899
 11
-71.168
 21
168.128
  0
LINE
  8
0
 10
-71.168
 20
168.128
 11
-70.8254
 21
168.317
  0
LINE
  8
0
 10
-70.8254
 20
168.317
 11
-70.4619
 21
168.461
  0
LINE
  8
0
 10
-70.4619
 20
168.461
 11
-70.0833
 21
168.558
  0
LINE
  8
0
 10
-70.0833
 20
168.558
 11
-69.6955
 21
168.607
  0
LINE
  8
0
 10
-69.6955
 20
168.607
 11
69.6955
 21
168.607
  0
LINE
  8
0
 10
69.6955
 20
168.607
 11
70.0833
 21
168.558
  0
LINE
  8
0
 10
70.0833
 20
168.558
 11
70.4619
 21
168.461
  0
LINE
  8
0
 10
70.4619
 20
168.461
 11
70.8254
 21
168.317
  0
LINE
  8
0
 10
70.8254
 20
168.317
 11
71.168
 21
168.128
  0
LINE
  8
0
 10
71.168
 20
168.128
 11
71.4843
 21
167.899
  0
LINE
  8
0
 10
71.4843
 20
167.899
 11
71.7692
 21
167.631
  0
LINE
  8
0
 10
71.7692
 20
167.631
 11
72.0184
 21
167.33
  0
LINE
  8
0
 10
72.0184
 20
167.33
 11
72.2279
 21
167
  0
LINE
  8
0
 10
72.2279
 20
167
 11
72.3943
 21
166.646
  0
LINE
  8
0
 10
72.3943
 20
166.646
 11
72.5151
 21
166.274
  0
LINE
  8
0
 10
72.5151
 20
166.274
 11
72.5884
 21
165.89
  0
LINE
  8
0
 10
72.5884
 20
165.89
 11
72.6129
 21
165.5
  0
LINE
  8
0
 10
72.6129
 20
165.5
 11
72.6129
 21
146.5
  0
LINE
  8
0
 10
72.6129
 20
146.5
 11
72.5884
 21
146.11
  0
LINE
  8
0
 10
72.5884
 20
146.11
 11
72.5151
 21
145.726
  0
LINE
  8
0
 10
72.5151
 20
145.726
 11
72.3943
 21
145.354
  0
LINE
  8
0
 10
72.3943
 20
145.354
 11
72.2279
 21
145
  0
LINE
  8
0
 10
72.2279
 20
145
 11
72.0184
 21
144.67
  0
LINE
  8
0
 10
72.0184
 20
144.67
 11
71.7692
 21
144.369
  0
LINE
  8
0
 10
71.7692
 20
144.369
 11
71.4843
 21
144.101
  0
LINE
  8
0
 10
71.4843
 20
144.101
 11
71.168
 21
143.872
  0
LINE
  8
0
 10
71.168
 20
143.872
 11
70.8254
 21
143.683
  0
LINE
  8
0
 10
70.8254
 20
143.683
 11
70.4619
 21
143.539
  0
LINE
  8
0
 10
70.4619
 20
143.539
 11
70.0833
 21
143.442
  0
LINE
  8
0
 10
70.0833
 20
143.442
 11
69.6955
 21
143.393
  0
LINE
  8
0
 10
69.6955
 20
143.393
 11
-69.6955
 21
143.393
  0
LINE
  8
0
 10
70.9369
 20
102.089
 11
71.5451
 21
102.245
  0
LINE
  8
0
 10
71.5451
 20
102.245
 11
72.1289
 21
102.476
  0
LINE
  8
0
 10
72.1289
 20
102.476
 11
72.6791
 21
102.778
  0
LINE
  8
0
 10
72.6791
 20
102.778
 11
73.1871
 21
103.147
  0
LINE
  8
0
 10
73.1871
 20
103.147
 11
73.6448
 21
103.577
  0
LINE
  8
0
 10
73.6448
 20
103.577
 11
74.0451
 21
104.061
  0
LINE
  8
0
 10
74.0451
 20
104.061
 11
74.3815
 21
104.591
  0
LINE
  8
0
 10
74.3815
 20
104.591
 11
74.6489
 21
105.159
  0
LINE
  8
0
 10
74.6489
 20
105.159
 11
74.8429
 21
105.757
  0
LINE
  8
0
 10
74.8429
 20
105.757
 11
74.9606
 21
106.373
  0
LINE
  8
0
 10
74.9606
 20
106.373
 11
75
 21
107
  0
LINE
  8
0
 10
75
 20
107
 11
75
 21
127
  0
LINE
  8
0
 10
75
 20
127
 11
74.9606
 21
127.627
  0
LINE
  8
0
 10
74.9606
 20
127.627
 11
74.8429
 21
128.243
  0
LINE
  8
0
 10
74.8429
 20
128.243
 11
74.6489
 21
128.841
  0
LINE
  8
0
 10
74.6489
 20
128.841
 11
74.3815
 21
129.409
  0
LINE
  8
0
 10
74.3815
 20
129.409
 11
74.0451
 21
129.939
  0
LINE
  8
0
 10
74.0451
 20
129.939
 11
73.6448
 21
130.423
  0
LINE
  8
0
 10
73.6448
 20
130.423
 11
73.1871
 21
130.853
  0
LINE
  8
0
 10
73.1871
 20
130.853
 11
72.6791
 21
131.222
  0
LINE
  8
0
 10
72.6791
 20
131.222
 11
72.1289
 21
131.524
  0
LINE
  8
0
 10
72.1289
 20
131.524
 11
71.5451
 21
131.755
  0
LINE
  8
0
 10
71.5451
 20
131.755
 11
70.9369
 21
131.911
  0
LINE
  8
0
 10
70.9369
 20
131.911
 11
70.3139
 21
131.99
  0
LINE
  8
0
 10
70.3139
 20
131.99
 11
-70.3139
 21
131.99
  0
LINE
  8
0
 10
-70.3139
 20
131.99
 11
-70.9369
 21
131.911
  0
LINE
  8
0
 10
-70.9369
 20
131.911
 11
-71.5451
 21
131.755
  0
LINE
  8
0
 10
-71.5451
 20
131.755
 11
-72.1289
 21
131.524
  0
LINE
  8
0
 10
-72.1289
 20
131.524
 11
-72.6791
 21
131.222
  0
LINE
  8
0
 10
-72.6791
 20
131.222
 11
-73.1871
 21
130.853
  0
LINE
  8
0
 10
-73.1871
 20
130.853
 11
-73.5
 21
130.559
  0
LINE
  8
0
 10
-73.5
 20
130.559
 11
-73.5
 21
130.653
  0
LINE
  8
0
 10
-73.5
 20
130.653
 11
-76.5
 21
130.653
  0
LINE
  8
0
 10
-76.5
 20
130.653
 11
-76.5
 21
103.347
  0
LINE
  8
0
 10
-76.5
 20
103.347
 11
-73.5
 21
103.347
  0
LINE
  8
0
 10
-73.5
 20
103.347
 11
-73.5
 21
103.441
  0
LINE
  8
0
 10
-73.5
 20
103.441
 11
-73.1871
 21
103.147
  0
LINE
  8
0
 10
-73.1871
 20
103.147
 11
-72.6791
 21
102.778
  0
LINE
  8
0
 10
-72.6791
 20
102.778
 11
-72.1289
 21
102.476
  0
LINE
  8
0
 10
-72.1289
 20
102.476
 11
-71.5451
 21
102.245
  0
LINE
  8
0
 10
-71.5451
 20
102.245
 11
-70.9369
 21
102.089
  0
LINE
  8
0
 10
-70.9369
 20
102.089
 11
-70.3139
 21
102.01
  0
LINE
  8
0
 10
-70.3139
 20
102.01
 11
70.3139
 21
102.01
  0
LINE
  8
0
 10
70.3139
 20
102.01
 11
70.9369
 21
102.089
  0
LINE
  8
0
 10
67.3659
 20
122.369
 11
67.0999
 21
122.403
  0
LINE
  8
0
 10
67.0999
 20
122.403
 11
66.8401
 21
122.469
  0
LINE
  8
0
 10
66.8401
 20
122.469
 11
66.5908
 21
122.568
  0
LINE
  8
0
 10
66.5908
 20
122.568
 11
66.3559
 21
122.697
  0
LINE
  8
0
 10
66.3559
 20
122.697
 11
66.1389
 21
122.855
  0
LINE
  8
0
 10
66.1389
 20
122.855
 11
65.9434
 21
123.038
  0
LINE
  8
0
 10
65.9434
 20
123.038
 11
65.7725
 21
123.245
  0
LINE
  8
0
 10
65.7725
 20
123.245
 11
65.6288
 21
123.471
  0
LINE
  8
0
 10
65.6288
 20
123.471
 11
65.5146
 21
123.714
  0
LINE
  8
0
 10
65.5146
 20
123.714
 11
65.4318
 21
123.969
  0
LINE
  8
0
 10
65.4318
 20
123.969
 11
65.3815
 21
124.232
  0
LINE
  8
0
 10
65.3815
 20
124.232
 11
65.3647
 21
124.5
  0
LINE
  8
0
 10
65.3647
 20
124.5
 11
65.3815
 21
124.768
  0
LINE
  8
0
 10
65.3815
 20
124.768
 11
65.4318
 21
125.031
  0
LINE
  8
0
 10
65.4318
 20
125.031
 11
65.5146
 21
125.286
  0
LINE
  8
0
 10
65.5146
 20
125.286
 11
65.6288
 21
125.529
  0
LINE
  8
0
 10
65.6288
 20
125.529
 11
65.7725
 21
125.755
  0
LINE
  8
0
 10
65.7725
 20
125.755
 11
65.9434
 21
125.962
  0
LINE
  8
0
 10
65.9434
 20
125.962
 11
66.1389
 21
126.145
  0
LINE
  8
0
 10
66.1389
 20
126.145
 11
66.3559
 21
126.303
  0
LINE
  8
0
 10
66.3559
 20
126.303
 11
66.5908
 21
126.432
  0
LINE
  8
0
 10
66.5908
 20
126.432
 11
66.8401
 21
126.531
  0
LINE
  8
0
 10
66.8401
 20
126.531
 11
67.0999
 21
126.597
  0
LINE
  8
0
 10
67.0999
 20
126.597
 11
67.3659
 21
126.631
  0
LINE
  8
0
 10
67.3659
 20
126.631
 11
67.6341
 21
126.631
  0
LINE
  8
0
 10
67.6341
 20
126.631
 11
67.9001
 21
126.597
  0
LINE
  8
0
 10
67.9001
 20
126.597
 11
68.1598
 21
126.531
  0
LINE
  8
0
 10
68.1598
 20
126.531
 11
68.4092
 21
126.432
  0
LINE
  8
0
 10
68.4092
 20
126.432
 11
68.6441
 21
126.303
  0
LINE
  8
0
 10
68.6441
 20
126.303
 11
68.8611
 21
126.145
  0
LINE
  8
0
 10
68.8611
 20
126.145
 11
69.0566
 21
125.962
  0
LINE
  8
0
 10
69.0566
 20
125.962
 11
69.2275
 21
125.755
  0
LINE
  8
0
 10
69.2275
 20
125.755
 11
69.3712
 21
125.529
  0
LINE
  8
0
 10
69.3712
 20
125.529
 11
69.4853
 21
125.286
  0
LINE
  8
0
 10
69.4853
 20
125.286
 11
69.5682
 21
125.031
  0
LINE
  8
0
 10
69.5682
 20
125.031
 11
69.6185
 21
124.768
  0
LINE
  8
0
 10
69.6185
 20
124.768
 11
69.6353
 21
124.5
  0
LINE
  8
0
 10
69.6353
 20
124.5
 11
69.6185
 21
124.232
  0
LINE
  8
0
 10
69.6185
 20
124.232
 11
69.5682
 21
123.969
  0
LINE
  8
0
 10
69.5682
 20
123.969
 11
69.4853
 21
123.714
  0
LINE
  8
0
 10
69.4853
 20
123.714
 11
69.3712
 21
123.471
  0
LINE
  8
0
 10
69.3712
 20
123.471
 11
69.2275
 21
123.245
  0
LINE
  8
0
 10
69.2275
 20
123.245
 11
69.0566
 21
123.038
  0
LINE
  8
0
 10
69.0566
 20
123.038
 11
68.8611
 21
122.855
  0
LINE
  8
0
 10
68.8611
 20
122.855
 11
68.6441
 21
122.697
  0
LINE
  8
0
 10
68.6441
 20
122.697
 11
68.4092
 21
122.568
  0
LINE
  8
0
 10
68.4092
 20
122.568
 11
68.1598
 21
122.469
  0
LINE
  8
0
 10
68.1598
 20
122.469
 11
67.9001
 21
122.403
  0
LINE
  8
0
 10
67.9001
 20
122.403
 11
67.6341
 21
122.369
  0
LINE
  8
0
 10
67.6341
 20
122.369
 11
67.3659
 21
122.369
  0
LINE
  8
0
 10
-67.6341
 20
122.369
 11
-67.9001
 21
122.403
  0
LINE
  8
0
 10
-67.9001
 20
122.403
 11
-68.1598
 21
122.469
  0
LINE
  8
0
 10
-68.1598
 20
122.469
 11
-68.4092
 21
122.568
  0
LINE
  8
0
 10
-68.4092
 20
122.568
 11
-68.6441
 21
122.697
  0
LINE
  8
0
 10
-68.6441
 20
122.697
 11
-68.8611
 21
122.855
  0
LINE
  8
0
 10
-68.8611
 20
122.855
 11
-69.0566
 21
123.038
  0
LINE
  8
0
 10
-69.0566
 20
123.038
 11
-69.2275
 21
123.245
  0
LINE
  8
0
 10
-69.2275
 20
123.245
 11
-69.3712
 21
123.471
  0
LINE
  8
0
 10
-69.3712
 20
123.471
 11
-69.4853
 21
123.714
  0
LINE
  8
0
 10
-69.4853
 20
123.714
 11
-69.5682
 21
123.969
  0
LINE
  8
0
 10
-69.5682
 20
123.969
 11
-69.6185
 21
124.232
  0
LINE
  8
0
 10
-69.6185
 20
124.232
 11
-69.6353
 21
124.5
  0
LINE
  8
0
 10
-69.6353
 20
124.5
 11
-69.6185
 21
124.768
  0
LINE
  8
0
 10
-69.6185
 20
124.768
 11
-69.5682
 21
125.031
  0
LINE
  8
0
 10
-69.5682
 20
125.031
 11
-69.4853
 21
125.286
  0
LINE
  8
0
 10
-69.4853
 20
125.286
 11
-69.3712
 21
125.529
  0
LINE
  8
0
 10
-69.3712
 20
125.529
 11
-69.2275
 21
125.755
  0
LINE
  8
0
 10
-69.2275
 20
125.755
 11
-69.0566
 21
125.962
  0
LINE
  8
0
 10
-69.0566
 20
125.962
 11
-68.8611
 21
126.145
  0
LINE
  8
0
 10
-68.8611
 20
126.145
 11
-68.6441
 21
126.303
  0
LINE
  8
0
 10
-68.6441
 20
126.303
 11
-68.4092
 21
126.432
  0
LINE
  8
0
 10
-68.4092
 20
126.432
 11
-68.1598
 21
126.531
  0
LINE
  8
0
 10
-68.1598
 20
126.531
 11
-67.9001
 21
126.597
  0
LINE
  8
0
 10
-67.9001
 20
126.597
 11
-67.6341
 21
126.631
  0
LINE
  8
0
 10
-67.6341
 20
126.631
 11
-67.3659
 21
126.631
  0
LINE
  8
0
 10
-67.3659
 20
126.631
 11
-67.0999
 21
126.597
  0
LINE
  8
0
 10
-67.0999
 20
126.597
 11
-66.8401
 21
126.531
  0
LINE
  8
0
 10
-66.8401
 20
126.531
 11
-66.5908
 21
126.432
  0
LINE
  8
0
 10
-66.5908
 20
126.432
 11
-66.3559
 21
126.303
  0
LINE
  8
0
 10
-66.3559
 20
126.303
 11
-66.1389
 21
126.145
  0
LINE
  8
0
 10
-66.1389
 20
126.145
 11
-65.9434
 21
125.962
  0
LINE
  8
0
 10
-65.9434
 20
125.962
 11
-65.7725
 21
125.755
  0
LINE
  8
0
 10
-65.7725
 20
125.755
 11
-65.6288
 21
125.529
  0
LINE
  8
0
 10
-65.6288
 20
125.529
 11
-65.5146
 21
125.286
  0
LINE
  8
0
 10
-65.5146
 20
125.286
 11
-65.4318
 21
125.031
  0
LINE
  8
0
 10
-65.4318
 20
125.031
 11
-65.3815
 21
124.768
  0
LINE
  8
0
 10
-65.3815
 20
124.768
 11
-65.3647
 21
124.5
  0
LINE
  8
0
 10
-65.3647
 20
124.5
 11
-65.3815
 21
124.232
  0
LINE
  8
0
 10
-65.3815
 20
124.232
 11
-65.4318
 21
123.969
  0
LINE
  8
0
 10
-65.4318
 20
123.969
 11
-65.5146
 21
123.714
  0
LINE
  8
0
 10
-65.5146
 20
123.714
 11
-65.6288
 21
123.471
  0
LINE
  8
0
 10
-65.6288
 20
123.471
 11
-65.7725
 21
123.245
  0
LINE
  8
0
 10
-65.7725
 20
123.245
 11
-65.9434
 21
123.038
  0
LINE
  8
0
 10
-65.9434
 20
123.038
 11
-66.1389
 21
122.855
  0
LINE
  8
0
 10
-66.1389
 20
122.855
 11
-66.3559
 21
122.697
  0
LINE
  8
0
 10
-66.3559
 20
122.697
 11
-66.5908
 21
122.568
  0
LINE
  8
0
 10
-66.5908
 20
122.568
 11
-66.8401
 21
122.469
  0
LINE
  8
0
 10
-66.8401
 20
122.469
 11
-67.0999
 21
122.403
  0
LINE
  8
0
 10
-67.0999
 20
122.403
 11
-67.3659
 21
122.369
  0
LINE
  8
0
 10
-67.3659
 20
122.369
 11
-67.6341
 21
122.369
  0
LINE
  8
0
 10
67.3659
 20
107.369
 11
67.0999
 21
107.403
  0
LINE
  8
0
 10
67.0999
 20
107.403
 11
66.8401
 21
107.469
  0
LINE
  8
0
 10
66.8401
 20
107.469
 11
66.5908
 21
107.568
  0
LINE
  8
0
 10
66.5908
 20
107.568
 11
66.3559
 21
107.697
  0
LINE
  8
0
 10
66.3559
 20
107.697
 11
66.1389
 21
107.855
  0
LINE
  8
0
 10
66.1389
 20
107.855
 11
65.9434
 21
108.038
  0
LINE
  8
0
 10
65.9434
 20
108.038
 11
65.7725
 21
108.245
  0
LINE
  8
0
 10
65.7725
 20
108.245
 11
65.6288
 21
108.471
  0
LINE
  8
0
 10
65.6288
 20
108.471
 11
65.5146
 21
108.714
  0
LINE
  8
0
 10
65.5146
 20
108.714
 11
65.4318
 21
108.969
  0
LINE
  8
0
 10
65.4318
 20
108.969
 11
65.3815
 21
109.232
  0
LINE
  8
0
 10
65.3815
 20
109.232
 11
65.3647
 21
109.5
  0
LINE
  8
0
 10
65.3647
 20
109.5
 11
65.3815
 21
109.768
  0
LINE
  8
0
 10
65.3815
 20
109.768
 11
65.4318
 21
110.031
  0
LINE
  8
0
 10
65.4318
 20
110.031
 11
65.5146
 21
110.286
  0
LINE
  8
0
 10
65.5146
 20
110.286
 11
65.6288
 21
110.529
  0
LINE
  8
0
 10
65.6288
 20
110.529
 11
65.7725
 21
110.755
  0
LINE
  8
0
 10
65.7725
 20
110.755
 11
65.9434
 21
110.962
  0
LINE
  8
0
 10
65.9434
 20
110.962
 11
66.1389
 21
111.145
  0
LINE
  8
0
 10
66.1389
 20
111.145
 11
66.3559
 21
111.303
  0
LINE
  8
0
 10
66.3559
 20
111.303
 11
66.5908
 21
111.432
  0
LINE
  8
0
 10
66.5908
 20
111.432
 11
66.8401
 21
111.531
  0
LINE
  8
0
 10
66.8401
 20
111.531
 11
67.0999
 21
111.597
  0
LINE
  8
0
 10
67.0999
 20
111.597
 11
67.3659
 21
111.631
  0
LINE
  8
0
 10
67.3659
 20
111.631
 11
67.6341
 21
111.631
  0
LINE
  8
0
 10
67.6341
 20
111.631
 11
67.9001
 21
111.597
  0
LINE
  8
0
 10
67.9001
 20
111.597
 11
68.1598
 21
111.531
  0
LINE
  8
0
 10
68.1598
 20
111.531
 11
68.4092
 21
111.432
  0
LINE
  8
0
 10
68.4092
 20
111.432
 11
68.6441
 21
111.303
  0
LINE
  8
0
 10
68.6441
 20
111.303
 11
68.8611
 21
111.145
  0
LINE
  8
0
 10
68.8611
 20
111.145
 11
69.0566
 21
110.962
  0
LINE
  8
0
 10
69.0566
 20
110.962
 11
69.2275
 21
110.755
  0
LINE
  8
0
 10
69.2275
 20
110.755
 11
69.3712
 21
110.529
  0
LINE
  8
0
 10
69.3712
 20
110.529
 11
69.4853
 21
110.286
  0
LINE
  8
0
 10
69.4853
 20
110.286
 11
69.5682
 21
110.031
  0
LINE
  8
0
 10
69.5682
 20
110.031
 11
69.6185
 21
109.768
  0
LINE
  8
0
 10
69.6185
 20
109.768
 11
69.6353
 21
109.5
  0
LINE
  8
0
 10
69.6353
 20
109.5
 11
69.6185
 21
109.232
  0
LINE
  8
0
 10
69.6185
 20
109.232
 11
69.5682
 21
108.969
  0
LINE
  8
0
 10
69.5682
 20
108.969
 11
69.4853
 21
108.714
  0
LINE
  8
0
 10
69.4853
 20
108.714
 11
69.3712
 21
108.471
  0
LINE
  8
0
 10
69.3712
 20
108.471
 11
69.2275
 21
108.245
  0
LINE
  8
0
 10
69.2275
 20
108.245
 11
69.0566
 21
108.038
  0
LINE
  8
0
 10
69.0566
 20
108.038
 11
68.8611
 21
107.855
  0
LINE
  8
0
 10
68.8611
 20
107.855
 11
68.6441
 21
107.697
  0
LINE
  8
0
 10
68.6441
 20
107.697
 11
68.4092
 21
107.568
  0
LINE
  8
0
 10
68.4092
 20
107.568
 11
68.1598
 21
107.469
  0
LINE
  8
0
 10
68.1598
 20
107.469
 11
67.9001
 21
107.403
  0
LINE
  8
0
 10
67.9001
 20
107.403
 11
67.6341
 21
107.369
  0
LINE
  8
0
 10
67.6341
 20
107.369
 11
67.3659
 21
107.369
  0
LINE
  8
0
 10
-67.6341
 20
107.369
 11
-67.9001
 21
107.403
  0
LINE
  8
0
 10
-67.9001
 20
107.403
 11
-68.1598
 21
107.469
  0
LINE
  8
0
 10
-68.1598
 20
107.469
 11
-68.4092
 21
107.568
  0
LINE
  8
0
 10
-68.4092
 20
107.568
 11
-68.6441
 21
107.697
  0
LINE
  8
0
 10
-68.6441
 20
107.697
 11
-68.8611
 21
107.855
  0
LINE
  8
0
 10
-68.8611
 20
107.855
 11
-69.0566
 21
108.038
  0
LINE
  8
0
 10
-69.0566
 20
108.038
 11
-69.2275
 21
108.245
  0
LINE
  8
0
 10
-69.2275
 20
108.245
 11
-69.3712
 21
108.471
  0
LINE
  8
0
 10
-69.3712
 20
108.471
 11
-69.4853
 21
108.714
  0
LINE
  8
0
 10
-69.4853
 20
108.714
 11
-69.5682
 21
108.969
  0
LINE
  8
0
 10
-69.5682
 20
108.969
 11
-69.6185
 21
109.232
  0
LINE
  8
0
 10
-69.6185
 20
109.232
 11
-69.6353
 21
109.5
  0
LINE
  8
0
 10
-69.6353
 20
109.5
 11
-69.6185
 21
109.768
  0
LINE
  8
0
 10
-69.6185
 20
109.768
 11
-69.5682
 21
110.031
  0
LINE
  8
0
 10
-69.5682
 20
110.031
 11
-69.4853
 21
110.286
  0
LINE
  8
0
 10
-69.4853
 20
110.286
 11
-69.3712
 21
110.529
  0
LINE
  8
0
 10
-69.3712
 20
110.529
 11
-69.2275
 21
110.755
  0
LINE
  8
0
 10
-69.2275
 20
110.755
 11
-69.0566
 21
110.962
  0
LINE
  8
0
 10
-69.0566
 20
110.962
 11
-68.8611
 21
111.145
  0
LINE
  8
0
 10
-68.8611
 20
111.145
 11
-68.6441
 21
111.303
  0
LINE
  8
0
 10
-68.6441
 20
111.303
 11
-68.4092
 21
111.432
  0
LINE
  8
0
 10
-68.4092
 20
111.432
 11
-68.1598
 21
111.531
  0
LINE
  8
0
 10
-68.1598
 20
111.531
 11
-67.9001
 21
111.597
  0
LINE
  8
0
 10
-67.9001
 20
111.597
 11
-67.6341
 21
111.631
  0
LINE
  8
0
 10
-67.6341
 20
111.631
 11
-67.3659
 21
111.631
  0
LINE
  8
0
 10
-67.3659
 20
111.631
 11
-67.0999
 21
111.597
  0
LINE
  8
0
 10
-67.0999
 20
111.597
 11
-66.8401
 21
111.531
  0
LINE
  8
0
 10
-66.8401
 20
111.531
 11
-66.5908
 21
111.432
  0
LINE
  8
0
 10
-66.5908
 20
111.432
 11
-66.3559
 21
111.303
  0
LINE
  8
0
 10
-66.3559
 20
111.303
 11
-66.1389
 21
111.145
  0
LINE
  8
0
 10
-66.1389
 20
111.145
 11
-65.9434
 21
110.962
  0
LINE
  8
0
 10
-65.9434
 20
110.962
 11
-65.7725
 21
110.755
  0
LINE
  8
0
 10
-65.7725
 20
110.755
 11
-65.6288
 21
110.529
  0
LINE
  8
0
 10
-65.6288
 20
110.529
 11
-65.5146
 21
110.286
  0
LINE
  8
0
 10
-65.5146
 20
110.286
 11
-65.4318
 21
110.031
  0
LINE
  8
0
 10
-65.4318
 20
110.031
 11
-65.3815
 21
109.768
  0
LINE
  8
0
 10
-65.3815
 20
109.768
 11
-65.3647
 21
109.5
  0
LINE
  8
0
 10
-65.3647
 20
109.5
 11
-65.3815
 21
109.232
  0
LINE
  8
0
 10
-65.3815
 20
109.232
 11
-65.4318
 21
108.969
  0
LINE
  8
0
 10
-65.4318
 20
108.969
 11
-65.5146
 21
108.714
  0
LINE
  8
0
 10
-65.5146
 20
108.714
 11
-65.6288
 21
108.471
  0
LINE
  8
0
 10
-65.6288
 20
108.471
 11
-65.7725
 21
108.245
  0
LINE
  8
0
 10
-65.7725
 20
108.245
 11
-65.9434
 21
108.038
  0
LINE
  8
0
 10
-65.9434
 20
108.038
 11
-66.1389
 21
107.855
  0
LINE
  8
0
 10
-66.1389
 20
107.855
 11
-66.3559
 21
107.697
  0
LINE
  8
0
 10
-66.3559
 20
107.697
 11
-66.5908
 21
107.568
  0
LINE
  8
0
 10
-66.5908
 20
107.568
 11
-66.8401
 21
107.469
  0
LINE
  8
0
 10
-66.8401
 20
107.469
 11
-67.0999
 21
107.403
  0
LINE
  8
0
 10
-67.0999
 20
107.403
 11
-67.3659
 21
107.369
  0
LINE
  8
0
 10
-67.3659
 20
107.369
 11
-67.6341
 21
107.369
  0
ENDSEC
  0
SECTION
  2
OBJECTS
  0
DICTIONARY
  0
ENDSEC
  0
EOF
