<?xml version="1.0" standalone="no"?>
<!DOCTYPE svg PUBLIC "-//W3C//DTD SVG 1.1//EN" "http://www.w3.org/Graphics/SVG/1.1/DTD/svg11.dtd">
<svg width="107mm" height="100mm" viewBox="-54 -185 107 100" xmlns="http://www.w3.org/2000/svg" version="1.1">
<title>OpenSCAD Model</title>
<path d="
M 48.4369,-139.589 L 49.0451,-139.745 L 49.6289,-139.976 L 50.1791,-140.278 L 50.6871,-140.647 L 51.1448,-141.077
 L 51.5451,-141.561 L 51.8815,-142.091 L 52.1489,-142.659 L 52.3429,-143.257 L 52.4606,-143.873 L 52.5,-144.5
 L 52.5,-179.5 L 52.4606,-180.127 L 52.3429,-180.743 L 52.1489,-181.341 L 51.8815,-181.909 L 51.5451,-182.439
 L 51.1448,-182.923 L 50.6871,-183.353 L 50.1791,-183.722 L 49.6289,-184.024 L 49.0451,-184.255 L 48.4369,-184.411
 L 47.8139,-184.49 L -47.8139,-184.49 L -48.4369,-184.411 L -49.0451,-184.255 L -49.6289,-184.024 L -50.1791,-183.722
 L -50.6871,-183.353 L -51,-183.059 L -51,-184.479 L -54,-184.479 L -54,-139.521 L -51,-139.521
 L -51,-140.941 L -50.6871,-140.647 L -50.1791,-140.278 L -49.6289,-139.976 L -49.0451,-139.745 L -48.4369,-139.589
 L -47.8139,-139.51 L 47.8139,-139.51 z
M -47.1954,-141.893 L -47.5833,-141.942 L -47.9619,-142.039 L -48.3254,-142.183 L -48.668,-142.372 L -48.9842,-142.601
 L -49.2692,-142.869 L -49.5184,-143.17 L -49.7279,-143.5 L -49.8943,-143.854 L -50.0151,-144.226 L -50.0884,-144.61
 L -50.1129,-145 L -50.1129,-179 L -50.0884,-179.39 L -50.0151,-179.774 L -49.8943,-180.146 L -49.7279,-180.5
 L -49.5184,-180.83 L -49.2692,-181.131 L -48.9842,-181.399 L -48.668,-181.628 L -48.3254,-181.817 L -47.9619,-181.961
 L -47.5833,-182.058 L -47.1954,-182.107 L 47.1954,-182.107 L 47.5833,-182.058 L 47.9619,-181.961 L 48.3254,-181.817
 L 48.668,-181.628 L 48.9842,-181.399 L 49.2692,-181.131 L 49.5184,-180.83 L 49.7279,-180.5 L 49.8943,-180.146
 L 50.0151,-179.774 L 50.0884,-179.39 L 50.1129,-179 L 50.1129,-145 L 50.0884,-144.61 L 50.0151,-144.226
 L 49.8943,-143.854 L 49.7279,-143.5 L 49.5184,-143.17 L 49.2692,-142.869 L 48.9842,-142.601 L 48.668,-142.372
 L 48.3254,-142.183 L 47.9619,-142.039 L 47.5833,-141.942 L 47.1954,-141.893 z
M 48.4369,-85.5886 L 49.0451,-85.7447 L 49.6289,-85.9759 L 50.1791,-86.2784 L 50.6871,-86.6474 L 51.1448,-87.0773
 L 51.5451,-87.5611 L 51.8815,-88.0912 L 52.1489,-88.6594 L 52.3429,-89.2566 L 52.4606,-89.8733 L 52.5,-90.5
 L 52.5,-125.5 L 52.4606,-126.127 L 52.3429,-126.743 L 52.1489,-127.341 L 51.8815,-127.909 L 51.5451,-128.439
 L 51.1448,-128.923 L 50.6871,-129.353 L 50.1791,-129.722 L 49.6289,-130.024 L 49.0451,-130.255 L 48.4369,-130.411
 L 47.8139,-130.49 L -47.8139,-130.49 L -48.4369,-130.411 L -49.0451,-130.255 L -49.6289,-130.024 L -50.1791,-129.722
 L -50.6871,-129.353 L -51,-129.059 L -51,-129.153 L -54,-129.153 L -54,-86.8474 L -51,-86.8474
 L -51,-86.9413 L -50.6871,-86.6474 L -50.1791,-86.2784 L -49.6289,-85.9759 L -49.0451,-85.7447 L -48.4369,-85.5886
 L -47.8139,-85.5099 L 47.8139,-85.5099 z
M 44.8659,-120.869 L 44.5999,-120.903 L 44.3401,-120.969 L 44.0908,-121.068 L 43.8559,-121.197 L 43.6389,-121.355
 L 43.4434,-121.538 L 43.2725,-121.745 L 43.1288,-121.971 L 43.0146,-122.214 L 42.9318,-122.469 L 42.8815,-122.732
 L 42.8647,-123 L 42.8815,-123.268 L 42.9318,-123.531 L 43.0146,-123.786 L 43.1288,-124.029 L 43.2725,-124.255
 L 43.4434,-124.462 L 43.6389,-124.645 L 43.8559,-124.803 L 44.0908,-124.932 L 44.3401,-125.031 L 44.5999,-125.097
 L 44.8659,-125.131 L 45.1341,-125.131 L 45.4001,-125.097 L 45.6598,-125.031 L 45.9092,-124.932 L 46.1441,-124.803
 L 46.3611,-124.645 L 46.5565,-124.462 L 46.7275,-124.255 L 46.8712,-124.029 L 46.9853,-123.786 L 47.0682,-123.531
 L 47.1185,-123.268 L 47.1353,-123 L 47.1185,-122.732 L 47.0682,-122.469 L 46.9853,-122.214 L 46.8712,-121.971
 L 46.7275,-121.745 L 46.5565,-121.538 L 46.3611,-121.355 L 46.1441,-121.197 L 45.9092,-121.068 L 45.6598,-120.969
 L 45.4001,-120.903 L 45.1341,-120.869 z
M -45.1341,-120.869 L -45.4001,-120.903 L -45.6598,-120.969 L -45.9092,-121.068 L -46.1441,-121.197 L -46.3611,-121.355
 L -46.5565,-121.538 L -46.7275,-121.745 L -46.8712,-121.971 L -46.9853,-122.214 L -47.0682,-122.469 L -47.1185,-122.732
 L -47.1353,-123 L -47.1185,-123.268 L -47.0682,-123.531 L -46.9853,-123.786 L -46.8712,-124.029 L -46.7275,-124.255
 L -46.5565,-124.462 L -46.3611,-124.645 L -46.1441,-124.803 L -45.9092,-124.932 L -45.6598,-125.031 L -45.4001,-125.097
 L -45.1341,-125.131 L -44.8659,-125.131 L -44.5999,-125.097 L -44.3401,-125.031 L -44.0908,-124.932 L -43.8559,-124.803
 L -43.6389,-124.645 L -43.4434,-124.462 L -43.2725,-124.255 L -43.1288,-124.029 L -43.0146,-123.786 L -42.9318,-123.531
 L -42.8815,-123.268 L -42.8647,-123 L -42.8815,-122.732 L -42.9318,-122.469 L -43.0146,-122.214 L -43.1288,-121.971
 L -43.2725,-121.745 L -43.4434,-121.538 L -43.6389,-121.355 L -43.8559,-121.197 L -44.0908,-121.068 L -44.3401,-120.969
 L -44.5999,-120.903 L -44.8659,-120.869 z
M 44.8659,-90.8689 L 44.5999,-90.9025 L 44.3401,-90.9692 L 44.0908,-91.0679 L 43.8559,-91.1971 L 43.6389,-91.3547
 L 43.4434,-91.5383 L 43.2725,-91.7449 L 43.1288,-91.9713 L 43.0146,-92.214 L 42.9318,-92.469 L 42.8815,-92.7324
 L 42.8647,-93 L 42.8815,-93.2676 L 42.9318,-93.531 L 43.0146,-93.7861 L 43.1288,-94.0287 L 43.2725,-94.2551
 L 43.4434,-94.4617 L 43.6389,-94.6453 L 43.8559,-94.8029 L 44.0908,-94.9321 L 44.3401,-95.0308 L 44.5999,-95.0975
 L 44.8659,-95.1311 L 45.1341,-95.1311 L 45.4001,-95.0975 L 45.6598,-95.0308 L 45.9092,-94.9321 L 46.1441,-94.8029
 L 46.3611,-94.6453 L 46.5565,-94.4617 L 46.7275,-94.2551 L 46.8712,-94.0287 L 46.9853,-93.7861 L 47.0682,-93.531
 L 47.1185,-93.2676 L 47.1353,-93 L 47.1185,-92.7324 L 47.0682,-92.469 L 46.9853,-92.214 L 46.8712,-91.9713
 L 46.7275,-91.7449 L 46.5565,-91.5383 L 46.3611,-91.3547 L 46.1441,-91.1971 L 45.9092,-91.0679 L 45.6598,-90.9692
 L 45.4001,-90.9025 L 45.1341,-90.8689 z
M -45.1341,-90.8689 L -45.4001,-90.9025 L -45.6598,-90.9692 L -45.9092,-91.0679 L -46.1441,-91.1971 L -46.3611,-91.3547
 L -46.5565,-91.5383 L -46.7275,-91.7449 L -46.8712,-91.9713 L -46.9853,-92.214 L -47.0682,-92.469 L -47.1185,-92.7324
 L -47.1353,-93 L -47.1185,-93.2676 L -47.0682,-93.531 L -46.9853,-93.7861 L -46.8712,-94.0287 L -46.7275,-94.2551
 L -46.5565,-94.4617 L -46.3611,-94.6453 L -46.1441,-94.8029 L -45.9092,-94.9321 L -45.6598,-95.0308 L -45.4001,-95.0975
 L -45.1341,-95.1311 L -44.8659,-95.1311 L -44.5999,-95.0975 L -44.3401,-95.0308 L -44.0908,-94.9321 L -43.8559,-94.8029
 L -43.6389,-94.6453 L -43.4434,-94.4617 L -43.2725,-94.2551 L -43.1288,-94.0287 L -43.0146,-93.7861 L -42.9318,-93.531
 L -42.8815,-93.2676 L -42.8647,-93 L -42.8815,-92.7324 L -42.9318,-92.469 L -43.0146,-92.214 L -43.1288,-91.9713
 L -43.2725,-91.7449 L -43.4434,-91.5383 L -43.6389,-91.3547 L -43.8559,-91.1971 L -44.0908,-91.0679 L -44.3401,-90.9692
 L -44.5999,-90.9025 L -44.8659,-90.8689 z
" stroke="black" fill="lightgray" stroke-width="0.5"/>
</svg>
