<?xml version="1.0" standalone="no"?>
<!DOCTYPE svg PUBLIC "-//W3C//DTD SVG 1.1//EN" "http://www.w3.org/Graphics/SVG/1.1/DTD/svg11.dtd">
<svg width="134mm" height="422mm" viewBox="-67 -787 134 422" xmlns="http://www.w3.org/2000/svg" version="1.1">
<title>OpenSCAD Model</title>
<path d="
M 62.9369,-653.089 L 63.5451,-653.245 L 64.1289,-653.476 L 64.6791,-653.778 L 65.1871,-654.147 L 65.6448,-654.577
 L 66.0451,-655.061 L 66.3815,-655.591 L 66.6489,-656.159 L 66.8429,-656.757 L 66.9606,-657.373 L 67,-658
 L 67,-782 L 66.9685,-782.5 L 48.6066,-782.5 L 48.5533,-782.447 L 48.5,-782.5 L 19.561,-782.5
 L 19.561,-782.498 L 18.7482,-782.498 L 18.6236,-782.482 L 18.502,-782.451 L 18.3852,-782.405 L 18.2752,-782.344
 L 18.1736,-782.271 L 18.082,-782.185 L 18.002,-782.088 L 17.9347,-781.982 L 17.8812,-781.868 L 17.8424,-781.749
 L 17.8189,-781.625 L 17.811,-781.5 L 17.8189,-781.375 L 17.8424,-781.251 L 17.8812,-781.132 L 17.9347,-781.018
 L 18.002,-780.912 L 18.082,-780.815 L 18.1736,-780.729 L 18.2752,-780.656 L 18.3852,-780.595 L 18.502,-780.549
 L 18.6236,-780.518 L 18.7482,-780.502 L 20.7006,-780.502 L 27.2499,-777.909 L 34.2929,-774.037 L 40.7951,-769.313
 L 46.654,-763.811 L 51.7771,-757.618 L 56.0836,-750.832 L 59.5057,-743.56 L 61.9893,-735.916 L 63.4953,-728.021
 L 64,-720 L 63.4953,-711.979 L 61.9893,-704.084 L 59.5057,-696.44 L 56.0836,-689.168 L 51.7771,-682.382
 L 46.654,-676.189 L 40.7951,-670.687 L 34.2929,-665.963 L 27.2499,-662.091 L 19.7771,-659.132 L 11.9924,-657.134
 L 4.01859,-656.126 L -4.01859,-656.126 L -11.9924,-657.134 L -19.7771,-659.132 L -27.2499,-662.091 L -34.2929,-665.963
 L -40.7951,-670.687 L -46.654,-676.189 L -51.7771,-682.382 L -56.0836,-689.168 L -59.5057,-696.44 L -61.9893,-704.084
 L -63.4953,-711.979 L -64,-720 L -63.4953,-728.021 L -61.9893,-735.916 L -59.5057,-743.56 L -56.0836,-750.832
 L -51.7771,-757.618 L -46.654,-763.811 L -40.7951,-769.313 L -34.2929,-774.037 L -27.2499,-777.909 L -19.7771,-780.868
 L -11.9924,-782.866 L -4.01859,-783.874 L 0,-783.874 L 0,-784 L 47,-784 L 44.0099,-786.99
 L -34,-786.99 L -34,-786 L -66,-786 L -66,-787 L -67,-787 L -67,-782.994
 L -59.8116,-782.994 L -59.4379,-782.947 L -59.0729,-782.853 L -58.7227,-782.714 L -58.3925,-782.533 L -58.0877,-782.312
 L -57.8131,-782.054 L -57.5729,-781.763 L -57.3711,-781.445 L -57.2107,-781.104 L -57.0942,-780.746 L -57.0237,-780.376
 L -57,-780 L -57.0237,-779.624 L -57.0942,-779.254 L -57.2107,-778.896 L -57.3711,-778.555 L -57.5729,-778.237
 L -57.8131,-777.946 L -58.0877,-777.688 L -58.3925,-777.467 L -58.7227,-777.286 L -59.0729,-777.147 L -59.4379,-777.053
 L -59.8116,-777.006 L -67,-777.006 L -67,-662.994 L -59.8116,-662.994 L -59.4379,-662.947 L -59.0729,-662.853
 L -58.7227,-662.714 L -58.3925,-662.533 L -58.0877,-662.312 L -57.8131,-662.054 L -57.5729,-661.763 L -57.3711,-661.445
 L -57.2107,-661.104 L -57.0942,-660.746 L -57.0237,-660.376 L -57,-660 L -57.0237,-659.624 L -57.0942,-659.254
 L -57.2107,-658.896 L -57.3711,-658.555 L -57.5729,-658.237 L -57.8131,-657.946 L -58.0877,-657.688 L -58.3925,-657.467
 L -58.7227,-657.286 L -59.0729,-657.147 L -59.4379,-657.053 L -59.8116,-657.006 L -66.8905,-657.006 L -66.8429,-656.757
 L -66.6489,-656.159 L -66.3815,-655.591 L -66.0451,-655.061 L -65.6448,-654.577 L -65.1871,-654.147 L -64.6791,-653.778
 L -64.1289,-653.476 L -63.5451,-653.245 L -62.9369,-653.089 L -62.3139,-653.01 L 62.3139,-653.01 z
M 59.8116,-657.006 L 59.4379,-657.053 L 59.0729,-657.147 L 58.7227,-657.286 L 58.3925,-657.467 L 58.0877,-657.688
 L 57.8131,-657.946 L 57.5729,-658.237 L 57.3711,-658.555 L 57.2107,-658.896 L 57.0942,-659.254 L 57.0237,-659.624
 L 57,-660 L 57.0237,-660.376 L 57.0942,-660.746 L 57.2107,-661.104 L 57.3711,-661.445 L 57.5729,-661.763
 L 57.8131,-662.054 L 58.0877,-662.312 L 58.3925,-662.533 L 58.7227,-662.714 L 59.0729,-662.853 L 59.4379,-662.947
 L 59.8116,-662.994 L 60.1884,-662.994 L 60.5621,-662.947 L 60.927,-662.853 L 61.2773,-662.714 L 61.6075,-662.533
 L 61.9123,-662.312 L 62.1869,-662.054 L 62.427,-661.763 L 62.6289,-661.445 L 62.7893,-661.104 L 62.9057,-660.746
 L 62.9763,-660.376 L 63,-660 L 62.9763,-659.624 L 62.9057,-659.254 L 62.7893,-658.896 L 62.6289,-658.555
 L 62.427,-658.237 L 62.1869,-657.946 L 61.9123,-657.688 L 61.6075,-657.467 L 61.2773,-657.286 L 60.927,-657.147
 L 60.5621,-657.053 L 60.1884,-657.006 z
M 57,-786.99 L 46.1312,-786.99 L 49.1213,-784 L 57,-784 z
M 62.9369,-509.089 L 63.5451,-509.245 L 64.1289,-509.476 L 64.6791,-509.778 L 65.1871,-510.147 L 65.6448,-510.577
 L 66.0451,-511.061 L 66.3815,-511.591 L 66.6489,-512.159 L 66.8429,-512.757 L 66.9606,-513.373 L 67,-514
 L 67,-638 L 66.9685,-638.5 L 48.6066,-638.5 L 48.5533,-638.447 L 48.5,-638.5 L 19.561,-638.5
 L 19.561,-638.498 L 18.7482,-638.498 L 18.6236,-638.482 L 18.502,-638.451 L 18.3852,-638.405 L 18.2752,-638.344
 L 18.1736,-638.271 L 18.082,-638.185 L 18.002,-638.088 L 17.9347,-637.982 L 17.8812,-637.868 L 17.8424,-637.749
 L 17.8189,-637.625 L 17.811,-637.5 L 17.8189,-637.375 L 17.8424,-637.251 L 17.8812,-637.132 L 17.9347,-637.018
 L 18.002,-636.912 L 18.082,-636.815 L 18.1736,-636.729 L 18.2752,-636.656 L 18.3852,-636.595 L 18.502,-636.549
 L 18.6236,-636.518 L 18.7482,-636.502 L 20.7006,-636.502 L 27.2499,-633.909 L 34.2929,-630.037 L 40.7951,-625.313
 L 46.654,-619.811 L 51.7771,-613.618 L 56.0836,-606.832 L 59.5057,-599.56 L 61.9893,-591.916 L 63.4953,-584.021
 L 64,-576 L 63.4953,-567.979 L 61.9893,-560.084 L 59.5057,-552.44 L 56.0836,-545.168 L 51.7771,-538.382
 L 46.654,-532.189 L 40.7951,-526.687 L 34.2929,-521.963 L 27.2499,-518.091 L 19.7771,-515.132 L 11.9924,-513.134
 L 4.01859,-512.126 L -4.01859,-512.126 L -11.9924,-513.134 L -19.7771,-515.132 L -27.2499,-518.091 L -34.2929,-521.963
 L -40.7951,-526.687 L -46.654,-532.189 L -51.7771,-538.382 L -56.0836,-545.168 L -59.5057,-552.44 L -61.9893,-560.084
 L -63.4953,-567.979 L -64,-576 L -63.4953,-584.021 L -61.9893,-591.916 L -59.5057,-599.56 L -56.0836,-606.832
 L -51.7771,-613.618 L -46.654,-619.811 L -40.7951,-625.313 L -34.2929,-630.037 L -27.2499,-633.909 L -19.7771,-636.868
 L -11.9924,-638.866 L -4.01859,-639.874 L 0,-639.874 L 0,-640 L 47,-640 L 44.0099,-642.99
 L -34,-642.99 L -34,-642 L -66,-642 L -66,-643 L -67,-643 L -67,-638.994
 L -59.8116,-638.994 L -59.4379,-638.947 L -59.0729,-638.853 L -58.7227,-638.714 L -58.3925,-638.533 L -58.0877,-638.312
 L -57.8131,-638.054 L -57.5729,-637.763 L -57.3711,-637.445 L -57.2107,-637.104 L -57.0942,-636.746 L -57.0237,-636.376
 L -57,-636 L -57.0237,-635.624 L -57.0942,-635.254 L -57.2107,-634.896 L -57.3711,-634.555 L -57.5729,-634.237
 L -57.8131,-633.946 L -58.0877,-633.688 L -58.3925,-633.467 L -58.7227,-633.286 L -59.0729,-633.147 L -59.4379,-633.053
 L -59.8116,-633.006 L -67,-633.006 L -67,-518.994 L -59.8116,-518.994 L -59.4379,-518.947 L -59.0729,-518.853
 L -58.7227,-518.714 L -58.3925,-518.533 L -58.0877,-518.312 L -57.8131,-518.054 L -57.5729,-517.763 L -57.3711,-517.445
 L -57.2107,-517.104 L -57.0942,-516.746 L -57.0237,-516.376 L -57,-516 L -57.0237,-515.624 L -57.0942,-515.254
 L -57.2107,-514.896 L -57.3711,-514.555 L -57.5729,-514.237 L -57.8131,-513.946 L -58.0877,-513.688 L -58.3925,-513.467
 L -58.7227,-513.286 L -59.0729,-513.147 L -59.4379,-513.053 L -59.8116,-513.006 L -66.8905,-513.006 L -66.8429,-512.757
 L -66.6489,-512.159 L -66.3815,-511.591 L -66.0451,-511.061 L -65.6448,-510.577 L -65.1871,-510.147 L -64.6791,-509.778
 L -64.1289,-509.476 L -63.5451,-509.245 L -62.9369,-509.089 L -62.3139,-509.01 L 62.3139,-509.01 z
M 59.8116,-513.006 L 59.4379,-513.053 L 59.0729,-513.147 L 58.7227,-513.286 L 58.3925,-513.467 L 58.0877,-513.688
 L 57.8131,-513.946 L 57.5729,-514.237 L 57.3711,-514.555 L 57.2107,-514.896 L 57.0942,-515.254 L 57.0237,-515.624
 L 57,-516 L 57.0237,-516.376 L 57.0942,-516.746 L 57.2107,-517.104 L 57.3711,-517.445 L 57.5729,-517.763
 L 57.8131,-518.054 L 58.0877,-518.312 L 58.3925,-518.533 L 58.7227,-518.714 L 59.0729,-518.853 L 59.4379,-518.947
 L 59.8116,-518.994 L 60.1884,-518.994 L 60.5621,-518.947 L 60.927,-518.853 L 61.2773,-518.714 L 61.6075,-518.533
 L 61.9123,-518.312 L 62.1869,-518.054 L 62.427,-517.763 L 62.6289,-517.445 L 62.7893,-517.104 L 62.9057,-516.746
 L 62.9763,-516.376 L 63,-516 L 62.9763,-515.624 L 62.9057,-515.254 L 62.7893,-514.896 L 62.6289,-514.555
 L 62.427,-514.237 L 62.1869,-513.946 L 61.9123,-513.688 L 61.6075,-513.467 L 61.2773,-513.286 L 60.927,-513.147
 L 60.5621,-513.053 L 60.1884,-513.006 z
M 57,-642.99 L 46.1312,-642.99 L 49.1213,-640 L 57,-640 z
M 62.9369,-365.089 L 63.5451,-365.245 L 64.1289,-365.476 L 64.6791,-365.778 L 65.1871,-366.147 L 65.6448,-366.577
 L 66.0451,-367.061 L 66.3815,-367.591 L 66.6489,-368.159 L 66.8429,-368.757 L 66.9606,-369.373 L 67,-370
 L 67,-494 L 66.9685,-494.5 L 48.6066,-494.5 L 48.5533,-494.447 L 48.5,-494.5 L 19.561,-494.5
 L 19.561,-494.498 L 18.7482,-494.498 L 18.6236,-494.482 L 18.502,-494.451 L 18.3852,-494.405 L 18.2752,-494.344
 L 18.1736,-494.271 L 18.082,-494.185 L 18.002,-494.088 L 17.9347,-493.982 L 17.8812,-493.868 L 17.8424,-493.749
 L 17.8189,-493.625 L 17.811,-493.5 L 17.8189,-493.375 L 17.8424,-493.251 L 17.8812,-493.132 L 17.9347,-493.018
 L 18.002,-492.912 L 18.082,-492.815 L 18.1736,-492.729 L 18.2752,-492.656 L 18.3852,-492.595 L 18.502,-492.549
 L 18.6236,-492.518 L 18.7482,-492.502 L 20.7006,-492.502 L 27.2499,-489.909 L 34.2929,-486.037 L 40.7951,-481.313
 L 46.654,-475.811 L 51.7771,-469.618 L 56.0836,-462.832 L 59.5057,-455.56 L 61.9893,-447.916 L 63.4953,-440.021
 L 64,-432 L 63.4953,-423.979 L 61.9893,-416.084 L 59.5057,-408.44 L 56.0836,-401.168 L 51.7771,-394.382
 L 46.654,-388.189 L 40.7951,-382.687 L 34.2929,-377.963 L 27.2499,-374.091 L 19.7771,-371.132 L 11.9924,-369.134
 L 4.01859,-368.126 L -4.01859,-368.126 L -11.9924,-369.134 L -19.7771,-371.132 L -27.2499,-374.091 L -34.2929,-377.963
 L -40.7951,-382.687 L -46.654,-388.189 L -51.7771,-394.382 L -56.0836,-401.168 L -59.5057,-408.44 L -61.9893,-416.084
 L -63.4953,-423.979 L -64,-432 L -63.4953,-440.021 L -61.9893,-447.916 L -59.5057,-455.56 L -56.0836,-462.832
 L -51.7771,-469.618 L -46.654,-475.811 L -40.7951,-481.313 L -34.2929,-486.037 L -27.2499,-489.909 L -19.7771,-492.868
 L -11.9924,-494.866 L -4.01859,-495.874 L 0,-495.874 L 0,-496 L 47,-496 L 44.0099,-498.99
 L -34,-498.99 L -34,-498 L -66,-498 L -66,-499 L -67,-499 L -67,-494.994
 L -59.8116,-494.994 L -59.4379,-494.947 L -59.0729,-494.853 L -58.7227,-494.714 L -58.3925,-494.533 L -58.0877,-494.312
 L -57.8131,-494.054 L -57.5729,-493.763 L -57.3711,-493.445 L -57.2107,-493.104 L -57.0942,-492.746 L -57.0237,-492.376
 L -57,-492 L -57.0237,-491.624 L -57.0942,-491.254 L -57.2107,-490.896 L -57.3711,-490.555 L -57.5729,-490.237
 L -57.8131,-489.946 L -58.0877,-489.688 L -58.3925,-489.467 L -58.7227,-489.286 L -59.0729,-489.147 L -59.4379,-489.053
 L -59.8116,-489.006 L -67,-489.006 L -67,-374.994 L -59.8116,-374.994 L -59.4379,-374.947 L -59.0729,-374.853
 L -58.7227,-374.714 L -58.3925,-374.533 L -58.0877,-374.312 L -57.8131,-374.054 L -57.5729,-373.763 L -57.3711,-373.445
 L -57.2107,-373.104 L -57.0942,-372.746 L -57.0237,-372.376 L -57,-372 L -57.0237,-371.624 L -57.0942,-371.254
 L -57.2107,-370.896 L -57.3711,-370.555 L -57.5729,-370.237 L -57.8131,-369.946 L -58.0877,-369.688 L -58.3925,-369.467
 L -58.7227,-369.286 L -59.0729,-369.147 L -59.4379,-369.053 L -59.8116,-369.006 L -66.8905,-369.006 L -66.8429,-368.757
 L -66.6489,-368.159 L -66.3815,-367.591 L -66.0451,-367.061 L -65.6448,-366.577 L -65.1871,-366.147 L -64.6791,-365.778
 L -64.1289,-365.476 L -63.5451,-365.245 L -62.9369,-365.089 L -62.3139,-365.01 L 62.3139,-365.01 z
M 59.8116,-369.006 L 59.4379,-369.053 L 59.0729,-369.147 L 58.7227,-369.286 L 58.3925,-369.467 L 58.0877,-369.688
 L 57.8131,-369.946 L 57.5729,-370.237 L 57.3711,-370.555 L 57.2107,-370.896 L 57.0942,-371.254 L 57.0237,-371.624
 L 57,-372 L 57.0237,-372.376 L 57.0942,-372.746 L 57.2107,-373.104 L 57.3711,-373.445 L 57.5729,-373.763
 L 57.8131,-374.054 L 58.0877,-374.312 L 58.3925,-374.533 L 58.7227,-374.714 L 59.0729,-374.853 L 59.4379,-374.947
 L 59.8116,-374.994 L 60.1884,-374.994 L 60.5621,-374.947 L 60.927,-374.853 L 61.2773,-374.714 L 61.6075,-374.533
 L 61.9123,-374.312 L 62.1869,-374.054 L 62.427,-373.763 L 62.6289,-373.445 L 62.7893,-373.104 L 62.9057,-372.746
 L 62.9763,-372.376 L 63,-372 L 62.9763,-371.624 L 62.9057,-371.254 L 62.7893,-370.896 L 62.6289,-370.555
 L 62.427,-370.237 L 62.1869,-369.946 L 61.9123,-369.688 L 61.6075,-369.467 L 61.2773,-369.286 L 60.927,-369.147
 L 60.5621,-369.053 L 60.1884,-369.006 z
M 57,-498.99 L 46.1312,-498.99 L 49.1213,-496 L 57,-496 z
" stroke="black" fill="lightgray" stroke-width="0.5"/>
</svg>
