<?xml version="1.0" standalone="no"?>
<!DOCTYPE svg PUBLIC "-//W3C//DTD SVG 1.1//EN" "http://www.w3.org/Graphics/SVG/1.1/DTD/svg11.dtd">
<svg width="30mm" height="198mm" viewBox="-15 -306 30 198" xmlns="http://www.w3.org/2000/svg" version="1.1">
<title>OpenSCAD Model</title>
<path d="
M 10.9369,-246.089 L 11.5451,-246.245 L 12.1289,-246.476 L 12.6791,-246.778 L 13.1871,-247.147 L 13.6448,-247.577
 L 14.0451,-248.061 L 14.3815,-248.591 L 14.6489,-249.159 L 14.8429,-249.757 L 14.9606,-250.373 L 15,-251
 L 15,-301 L 14.9606,-301.627 L 14.8429,-302.243 L 14.6489,-302.841 L 14.3815,-303.409 L 14.0451,-303.939
 L 13.6448,-304.423 L 13.1871,-304.853 L 12.6791,-305.222 L 12.1289,-305.524 L 11.5451,-305.755 L 10.9369,-305.911
 L 10.3139,-305.99 L -10.3139,-305.99 L -10.9369,-305.911 L -11.5451,-305.755 L -12.1289,-305.524 L -12.6791,-305.222
 L -13.1871,-304.853 L -13.6448,-304.423 L -14.0451,-303.939 L -14.3815,-303.409 L -14.6489,-302.841 L -14.8429,-302.243
 L -14.9606,-301.627 L -15,-301 L -15,-251 L -14.9606,-250.373 L -14.8429,-249.757 L -14.6489,-249.159
 L -14.3815,-248.591 L -14.0451,-248.061 L -13.6448,-247.577 L -13.1871,-247.147 L -12.6791,-246.778 L -12.1289,-246.476
 L -11.5451,-246.245 L -10.9369,-246.089 L -10.3139,-246.01 L 10.3139,-246.01 z
M -9.74316,-247.635 L -10.2256,-247.696 L -10.6967,-247.817 L -11.1489,-247.996 L -11.5751,-248.23 L -11.9685,-248.516
 L -12.323,-248.849 L -12.633,-249.224 L -12.8936,-249.634 L -13.1007,-250.074 L -13.251,-250.537 L -13.3421,-251.015
 L -13.3726,-251.5 L -13.3726,-300.5 L -13.3421,-300.985 L -13.251,-301.463 L -13.1007,-301.926 L -12.8936,-302.366
 L -12.633,-302.776 L -12.323,-303.151 L -11.9685,-303.484 L -11.5751,-303.77 L -11.1489,-304.004 L -10.6967,-304.183
 L -10.2256,-304.304 L -9.74316,-304.365 L 9.74316,-304.365 L 10.2256,-304.304 L 10.6967,-304.183 L 11.1489,-304.004
 L 11.5751,-303.77 L 11.9685,-303.484 L 12.323,-303.151 L 12.633,-302.776 L 12.8936,-302.366 L 13.1007,-301.926
 L 13.251,-301.463 L 13.3421,-300.985 L 13.3726,-300.5 L 13.3726,-251.5 L 13.3421,-251.015 L 13.251,-250.537
 L 13.1007,-250.074 L 12.8936,-249.634 L 12.633,-249.224 L 12.323,-248.849 L 11.9685,-248.516 L 11.5751,-248.23
 L 11.1489,-247.996 L 10.6967,-247.817 L 10.2256,-247.696 L 9.74316,-247.635 z
M 10.9369,-177.089 L 11.5451,-177.245 L 12.1289,-177.476 L 12.6791,-177.778 L 13.1871,-178.147 L 13.6448,-178.577
 L 14.0451,-179.061 L 14.3815,-179.591 L 14.6489,-180.159 L 14.8429,-180.757 L 14.9606,-181.373 L 15,-182
 L 15,-232 L 14.9606,-232.627 L 14.8429,-233.243 L 14.6489,-233.841 L 14.3815,-234.409 L 14.0451,-234.939
 L 13.6448,-235.423 L 13.1871,-235.853 L 12.6791,-236.222 L 12.1289,-236.524 L 11.5451,-236.755 L 10.9369,-236.911
 L 10.3139,-236.99 L -10.3139,-236.99 L -10.9369,-236.911 L -11.5451,-236.755 L -12.1289,-236.524 L -12.6791,-236.222
 L -13.1871,-235.853 L -13.6448,-235.423 L -14.0451,-234.939 L -14.3815,-234.409 L -14.6489,-233.841 L -14.8429,-233.243
 L -14.9606,-232.627 L -15,-232 L -15,-182 L -14.9606,-181.373 L -14.8429,-180.757 L -14.6489,-180.159
 L -14.3815,-179.591 L -14.0451,-179.061 L -13.6448,-178.577 L -13.1871,-178.147 L -12.6791,-177.778 L -12.1289,-177.476
 L -11.5451,-177.245 L -10.9369,-177.089 L -10.3139,-177.01 L 10.3139,-177.01 z
M 10.9369,-108.089 L 11.5451,-108.245 L 12.1289,-108.476 L 12.6791,-108.778 L 13.1871,-109.147 L 13.6448,-109.577
 L 14.0451,-110.061 L 14.3815,-110.591 L 14.6489,-111.159 L 14.8429,-111.757 L 14.9606,-112.373 L 15,-113
 L 15,-163 L 14.9606,-163.627 L 14.8429,-164.243 L 14.6489,-164.841 L 14.3815,-165.409 L 14.0451,-165.939
 L 13.6448,-166.423 L 13.1871,-166.853 L 12.6791,-167.222 L 12.1289,-167.524 L 11.5451,-167.755 L 10.9369,-167.911
 L 10.3139,-167.99 L -10.3139,-167.99 L -10.9369,-167.911 L -11.5451,-167.755 L -12.1289,-167.524 L -12.6791,-167.222
 L -13.1871,-166.853 L -13.6448,-166.423 L -14.0451,-165.939 L -14.3815,-165.409 L -14.6489,-164.841 L -14.8429,-164.243
 L -14.9606,-163.627 L -15,-163 L -15,-113 L -14.9606,-112.373 L -14.8429,-111.757 L -14.6489,-111.159
 L -14.3815,-110.591 L -14.0451,-110.061 L -13.6448,-109.577 L -13.1871,-109.147 L -12.6791,-108.778 L -12.1289,-108.476
 L -11.5451,-108.245 L -10.9369,-108.089 L -10.3139,-108.01 L 10.3139,-108.01 z
M -7.61302,-158.704 L -7.83728,-158.732 L -8.05623,-158.788 L -8.26639,-158.871 L -8.46448,-158.98 L -8.64735,-159.113
 L -8.81213,-159.268 L -8.95622,-159.442 L -9.07735,-159.633 L -9.17358,-159.837 L -9.24344,-160.052 L -9.2858,-160.274
 L -9.29999,-160.5 L -9.2858,-160.726 L -9.24344,-160.948 L -9.17358,-161.163 L -9.07735,-161.367 L -8.95622,-161.558
 L -8.81213,-161.732 L -8.64735,-161.887 L -8.46448,-162.02 L -8.26639,-162.129 L -8.05623,-162.212 L -7.83728,-162.268
 L -7.61302,-162.296 L -7.38696,-162.296 L -7.1627,-162.268 L -6.94376,-162.212 L -6.7336,-162.129 L -6.53551,-162.02
 L -6.35263,-161.887 L -6.18785,-161.732 L -6.04376,-161.558 L -5.92264,-161.367 L -5.8264,-161.163 L -5.75655,-160.948
 L -5.71419,-160.726 L -5.7,-160.5 L -5.71419,-160.274 L -5.75655,-160.052 L -5.8264,-159.837 L -5.92264,-159.633
 L -6.04376,-159.442 L -6.18785,-159.268 L -6.35263,-159.113 L -6.53551,-158.98 L -6.7336,-158.871 L -6.94376,-158.788
 L -7.1627,-158.732 L -7.38696,-158.704 z
M 7.38696,-158.704 L 7.1627,-158.732 L 6.94376,-158.788 L 6.7336,-158.871 L 6.53551,-158.98 L 6.35263,-159.113
 L 6.18785,-159.268 L 6.04376,-159.442 L 5.92264,-159.633 L 5.8264,-159.837 L 5.75655,-160.052 L 5.71419,-160.274
 L 5.7,-160.5 L 5.71419,-160.726 L 5.75655,-160.948 L 5.8264,-161.163 L 5.92264,-161.367 L 6.04376,-161.558
 L 6.18785,-161.732 L 6.35263,-161.887 L 6.53551,-162.02 L 6.7336,-162.129 L 6.94376,-162.212 L 7.1627,-162.268
 L 7.38696,-162.296 L 7.61302,-162.296 L 7.83728,-162.268 L 8.05623,-162.212 L 8.26639,-162.129 L 8.46448,-162.02
 L 8.64735,-161.887 L 8.81213,-161.732 L 8.95622,-161.558 L 9.07735,-161.367 L 9.17358,-161.163 L 9.24344,-160.948
 L 9.2858,-160.726 L 9.29999,-160.5 L 9.2858,-160.274 L 9.24344,-160.052 L 9.17358,-159.837 L 9.07735,-159.633
 L 8.95622,-159.442 L 8.81213,-159.268 L 8.64735,-159.113 L 8.46448,-158.98 L 8.26639,-158.871 L 8.05623,-158.788
 L 7.83728,-158.732 L 7.61302,-158.704 z
M -7.61302,-113.704 L -7.83728,-113.732 L -8.05623,-113.788 L -8.26639,-113.871 L -8.46448,-113.98 L -8.64735,-114.113
 L -8.81213,-114.268 L -8.95622,-114.442 L -9.07735,-114.633 L -9.17358,-114.837 L -9.24344,-115.052 L -9.2858,-115.274
 L -9.29999,-115.5 L -9.2858,-115.726 L -9.24344,-115.948 L -9.17358,-116.163 L -9.07735,-116.367 L -8.95622,-116.558
 L -8.81213,-116.732 L -8.64735,-116.887 L -8.46448,-117.02 L -8.26639,-117.129 L -8.05623,-117.212 L -7.83728,-117.268
 L -7.61302,-117.296 L -7.38696,-117.296 L -7.1627,-117.268 L -6.94376,-117.212 L -6.7336,-117.129 L -6.53551,-117.02
 L -6.35263,-116.887 L -6.18785,-116.732 L -6.04376,-116.558 L -5.92264,-116.367 L -5.8264,-116.163 L -5.75655,-115.948
 L -5.71419,-115.726 L -5.7,-115.5 L -5.71419,-115.274 L -5.75655,-115.052 L -5.8264,-114.837 L -5.92264,-114.633
 L -6.04376,-114.442 L -6.18785,-114.268 L -6.35263,-114.113 L -6.53551,-113.98 L -6.7336,-113.871 L -6.94376,-113.788
 L -7.1627,-113.732 L -7.38696,-113.704 z
M 7.38696,-113.704 L 7.1627,-113.732 L 6.94376,-113.788 L 6.7336,-113.871 L 6.53551,-113.98 L 6.35263,-114.113
 L 6.18785,-114.268 L 6.04376,-114.442 L 5.92264,-114.633 L 5.8264,-114.837 L 5.75655,-115.052 L 5.71419,-115.274
 L 5.7,-115.5 L 5.71419,-115.726 L 5.75655,-115.948 L 5.8264,-116.163 L 5.92264,-116.367 L 6.04376,-116.558
 L 6.18785,-116.732 L 6.35263,-116.887 L 6.53551,-117.02 L 6.7336,-117.129 L 6.94376,-117.212 L 7.1627,-117.268
 L 7.38696,-117.296 L 7.61302,-117.296 L 7.83728,-117.268 L 8.05623,-117.212 L 8.26639,-117.129 L 8.46448,-117.02
 L 8.64735,-116.887 L 8.81213,-116.732 L 8.95622,-116.558 L 9.07735,-116.367 L 9.17358,-116.163 L 9.24344,-115.948
 L 9.2858,-115.726 L 9.29999,-115.5 L 9.2858,-115.274 L 9.24344,-115.052 L 9.17358,-114.837 L 9.07735,-114.633
 L 8.95622,-114.442 L 8.81213,-114.268 L 8.64735,-114.113 L 8.46448,-113.98 L 8.26639,-113.871 L 8.05623,-113.788
 L 7.83728,-113.732 L 7.61302,-113.704 z
" stroke="black" fill="lightgray" stroke-width="0.5"/>
</svg>
