<?xml version="1.0" standalone="no"?>
<!DOCTYPE svg PUBLIC "-//W3C//DTD SVG 1.1//EN" "http://www.w3.org/Graphics/SVG/1.1/DTD/svg11.dtd">
<svg width="76mm" height="100mm" viewBox="-38 -185 76 100" xmlns="http://www.w3.org/2000/svg" version="1.1">
<title>OpenSCAD Model</title>
<path d="
M 33.4369,-139.589 L 34.0451,-139.745 L 34.6289,-139.976 L 35.1791,-140.278 L 35.6871,-140.647 L 36.1448,-141.077
 L 36.5451,-141.561 L 36.8815,-142.091 L 37.1489,-142.659 L 37.3429,-143.257 L 37.4606,-143.873 L 37.5,-144.5
 L 37.5,-179.5 L 37.4606,-180.127 L 37.3429,-180.743 L 37.1489,-181.341 L 36.8815,-181.909 L 36.5451,-182.439
 L 36.1448,-182.923 L 35.6871,-183.353 L 35.1791,-183.722 L 34.6289,-184.024 L 34.0451,-184.255 L 33.4369,-184.411
 L 32.8139,-184.49 L -32.8139,-184.49 L -33.4369,-184.411 L -34.0451,-184.255 L -34.6289,-184.024 L -35.1791,-183.722
 L -35.6871,-183.353 L -36.1448,-182.923 L -36.5451,-182.439 L -36.8815,-181.909 L -37.1489,-181.341 L -37.3429,-180.743
 L -37.4606,-180.127 L -37.5,-179.5 L -37.5,-144.5 L -37.4606,-143.873 L -37.3429,-143.257 L -37.1489,-142.659
 L -36.8815,-142.091 L -36.5451,-141.561 L -36.1448,-141.077 L -35.6871,-140.647 L -35.1791,-140.278 L -34.6289,-139.976
 L -34.0451,-139.745 L -33.4369,-139.589 L -32.8139,-139.51 L 32.8139,-139.51 z
M -32.5375,-140.181 L -33.1079,-140.253 L -33.6648,-140.396 L -34.1994,-140.607 L -34.7032,-140.884 L -35.1684,-141.222
 L -35.5875,-141.616 L -35.954,-142.059 L -36.2621,-142.544 L -36.5069,-143.065 L -36.6846,-143.611 L -36.7923,-144.176
 L -36.8284,-144.75 L -36.8284,-179.25 L -36.7923,-179.824 L -36.6846,-180.389 L -36.5069,-180.935 L -36.2621,-181.456
 L -35.954,-181.941 L -35.5875,-182.384 L -35.1684,-182.778 L -34.7032,-183.116 L -34.1994,-183.393 L -33.6648,-183.604
 L -33.1079,-183.747 L -32.5375,-183.819 L 32.5375,-183.819 L 33.1079,-183.747 L 33.6648,-183.604 L 34.1994,-183.393
 L 34.7032,-183.116 L 35.1684,-182.778 L 35.5875,-182.384 L 35.954,-181.941 L 36.2621,-181.456 L 36.5069,-180.935
 L 36.6846,-180.389 L 36.7923,-179.824 L 36.8284,-179.25 L 36.8284,-144.75 L 36.7923,-144.176 L 36.6846,-143.611
 L 36.5069,-143.065 L 36.2621,-142.544 L 35.954,-142.059 L 35.5875,-141.616 L 35.1684,-141.222 L 34.7032,-140.884
 L 34.1994,-140.607 L 33.6648,-140.396 L 33.1079,-140.253 L 32.5375,-140.181 z
M 33.4369,-85.5886 L 34.0451,-85.7447 L 34.6289,-85.9759 L 35.1791,-86.2784 L 35.6871,-86.6474 L 36.1448,-87.0773
 L 36.5451,-87.5611 L 36.8815,-88.0912 L 37.1489,-88.6594 L 37.3429,-89.2566 L 37.4606,-89.8733 L 37.5,-90.5
 L 37.5,-125.5 L 37.4606,-126.127 L 37.3429,-126.743 L 37.1489,-127.341 L 36.8815,-127.909 L 36.5451,-128.439
 L 36.1448,-128.923 L 35.6871,-129.353 L 35.1791,-129.722 L 34.6289,-130.024 L 34.0451,-130.255 L 33.4369,-130.411
 L 32.8139,-130.49 L -32.8139,-130.49 L -33.4369,-130.411 L -34.0451,-130.255 L -34.6289,-130.024 L -35.1791,-129.722
 L -35.6871,-129.353 L -36.1448,-128.923 L -36.5451,-128.439 L -36.8815,-127.909 L -37.1489,-127.341 L -37.3429,-126.743
 L -37.4606,-126.127 L -37.5,-125.5 L -37.5,-90.5 L -37.4606,-89.8733 L -37.3429,-89.2566 L -37.1489,-88.6594
 L -36.8815,-88.0912 L -36.5451,-87.5611 L -36.1448,-87.0773 L -35.6871,-86.6474 L -35.1791,-86.2784 L -34.6289,-85.9759
 L -34.0451,-85.7447 L -33.4369,-85.5886 L -32.8139,-85.5099 L 32.8139,-85.5099 z
M -32.3825,-88.6445 L -32.6453,-88.6777 L -32.9019,-88.7436 L -33.1482,-88.8412 L -33.3804,-88.9688 L -33.5947,-89.1245
 L -33.7879,-89.3059 L -33.9567,-89.51 L -34.0987,-89.7337 L -34.2115,-89.9734 L -34.2934,-90.2254 L -34.343,-90.4856
 L -34.3596,-90.75 L -34.3596,-125.25 L -34.343,-125.514 L -34.2934,-125.775 L -34.2115,-126.027 L -34.0987,-126.266
 L -33.9567,-126.49 L -33.7879,-126.694 L -33.5947,-126.875 L -33.3804,-127.031 L -33.1482,-127.159 L -32.9019,-127.256
 L -32.6453,-127.322 L -32.3825,-127.355 L 32.3825,-127.355 L 32.6453,-127.322 L 32.9019,-127.256 L 33.1482,-127.159
 L 33.3804,-127.031 L 33.5947,-126.875 L 33.7879,-126.694 L 33.9567,-126.49 L 34.0987,-126.266 L 34.2115,-126.027
 L 34.2934,-125.775 L 34.343,-125.514 L 34.3596,-125.25 L 34.3596,-90.75 L 34.343,-90.4856 L 34.2934,-90.2254
 L 34.2115,-89.9734 L 34.0987,-89.7337 L 33.9567,-89.51 L 33.7879,-89.3059 L 33.5947,-89.1245 L 33.3804,-88.9688
 L 33.1482,-88.8412 L 32.9019,-88.7436 L 32.6453,-88.6777 L 32.3825,-88.6445 z
" stroke="black" fill="lightgray" stroke-width="0.5"/>
</svg>
