<?xml version="1.0" standalone="no"?>
<!DOCTYPE svg PUBLIC "-//W3C//DTD SVG 1.1//EN" "http://www.w3.org/Graphics/SVG/1.1/DTD/svg11.dtd">
<svg width="60mm" height="129mm" viewBox="-30 -237 60 129" xmlns="http://www.w3.org/2000/svg" version="1.1">
<title>OpenSCAD Model</title>
<path d="
M 22.125,-236.49 L 8.96451,-236.49 L 11.9547,-233.5 L 22.125,-233.5 z
M 25.4369,-177.589 L 26.0451,-177.745 L 26.6289,-177.976 L 27.1791,-178.278 L 27.6871,-178.647 L 28.1448,-179.077
 L 28.5451,-179.561 L 28.8815,-180.091 L 29.1489,-180.659 L 29.3429,-181.257 L 29.4606,-181.873 L 29.5,-182.5
 L 29.5,-230.5 L 15.1975,-230.5 L 17.8479,-228.574 L 20.4111,-226.167 L 22.6525,-223.458 L 24.5366,-220.489
 L 26.0337,-217.307 L 27.1203,-213.963 L 27.7792,-210.509 L 28,-207 L 27.7792,-203.491 L 27.1203,-200.037
 L 26.0337,-196.693 L 24.5366,-193.511 L 22.6525,-190.542 L 20.4111,-187.833 L 17.8479,-185.426 L 15.0031,-183.359
 L 11.9218,-181.665 L 8.65247,-180.37 L 5.24667,-179.496 L 1.75813,-179.055 L -1.75813,-179.055 L -5.24667,-179.496
 L -8.65247,-180.37 L -11.9218,-181.665 L -15.0031,-183.359 L -17.8479,-185.426 L -20.4111,-187.833 L -22.6525,-190.542
 L -24.5366,-193.511 L -26.0337,-196.693 L -27.1203,-200.037 L -27.7792,-203.491 L -28,-207 L -27.7792,-210.509
 L -27.1203,-213.963 L -26.0337,-217.307 L -24.5366,-220.489 L -22.6525,-223.458 L -20.4111,-226.167 L -17.8479,-228.574
 L -15.0031,-230.641 L -11.9218,-232.335 L -8.65247,-233.63 L -5.24667,-234.504 L -1.75813,-234.945 L 1.75813,-234.945
 L 5.24667,-234.504 L 8.65247,-233.63 L 8.97975,-233.5 L 9.83333,-233.5 L 6.84319,-236.49 L -24.8139,-236.49
 L -25.4369,-236.411 L -26.0451,-236.255 L -26.6289,-236.024 L -27.1791,-235.722 L -27.6871,-235.353 L -28.1448,-234.923
 L -28.5451,-234.439 L -28.8815,-233.909 L -29.1489,-233.341 L -29.3429,-232.743 L -29.3905,-232.494 L -22.3116,-232.494
 L -21.9379,-232.447 L -21.5729,-232.353 L -21.2227,-232.214 L -20.8925,-232.033 L -20.5877,-231.812 L -20.3131,-231.554
 L -20.0729,-231.263 L -19.8711,-230.945 L -19.7107,-230.604 L -19.5942,-230.246 L -19.5237,-229.876 L -19.5,-229.5
 L -19.5237,-229.124 L -19.5942,-228.754 L -19.7107,-228.396 L -19.8711,-228.055 L -20.0729,-227.737 L -20.3131,-227.446
 L -20.5877,-227.188 L -20.8925,-226.967 L -21.2227,-226.786 L -21.5729,-226.647 L -21.9379,-226.553 L -22.3116,-226.506
 L -29.5,-226.506 L -29.5,-187.494 L -22.3116,-187.494 L -21.9379,-187.447 L -21.5729,-187.353 L -21.2227,-187.214
 L -20.8925,-187.033 L -20.5877,-186.812 L -20.3131,-186.554 L -20.0729,-186.263 L -19.8711,-185.945 L -19.7107,-185.604
 L -19.5942,-185.246 L -19.5237,-184.876 L -19.5,-184.5 L -19.5237,-184.124 L -19.5942,-183.754 L -19.7107,-183.396
 L -19.8711,-183.055 L -20.0729,-182.737 L -20.3131,-182.446 L -20.5877,-182.188 L -20.8925,-181.967 L -21.2227,-181.786
 L -21.5729,-181.647 L -21.9379,-181.553 L -22.3116,-181.506 L -29.3905,-181.506 L -29.3429,-181.257 L -29.1489,-180.659
 L -28.8815,-180.091 L -28.5451,-179.561 L -28.1448,-179.077 L -27.6871,-178.647 L -27.1791,-178.278 L -26.6289,-177.976
 L -26.0451,-177.745 L -25.4369,-177.589 L -24.8139,-177.51 L 24.8139,-177.51 z
M 22.3116,-181.506 L 21.9379,-181.553 L 21.5729,-181.647 L 21.2227,-181.786 L 20.8925,-181.967 L 20.5877,-182.188
 L 20.3131,-182.446 L 20.0729,-182.737 L 19.8711,-183.055 L 19.7107,-183.396 L 19.5942,-183.754 L 19.5237,-184.124
 L 19.5,-184.5 L 19.5237,-184.876 L 19.5942,-185.246 L 19.7107,-185.604 L 19.8711,-185.945 L 20.0729,-186.263
 L 20.3131,-186.554 L 20.5877,-186.812 L 20.8925,-187.033 L 21.2227,-187.214 L 21.5729,-187.353 L 21.9379,-187.447
 L 22.3116,-187.494 L 22.6884,-187.494 L 23.0621,-187.447 L 23.427,-187.353 L 23.7773,-187.214 L 24.1075,-187.033
 L 24.4123,-186.812 L 24.6869,-186.554 L 24.927,-186.263 L 25.1289,-185.945 L 25.2893,-185.604 L 25.4057,-185.246
 L 25.4763,-184.876 L 25.5,-184.5 L 25.4763,-184.124 L 25.4057,-183.754 L 25.2893,-183.396 L 25.1289,-183.055
 L 24.927,-182.737 L 24.6869,-182.446 L 24.4123,-182.188 L 24.1075,-181.967 L 23.7773,-181.786 L 23.427,-181.647
 L 23.0621,-181.553 L 22.6884,-181.506 z
M 25.4369,-108.589 L 26.0451,-108.745 L 26.6289,-108.976 L 27.1791,-109.278 L 27.6871,-109.647 L 28.1448,-110.077
 L 28.5451,-110.561 L 28.8815,-111.091 L 29.1489,-111.659 L 29.3429,-112.257 L 29.4606,-112.873 L 29.5,-113.5
 L 29.5,-162.5 L 29.4606,-163.127 L 29.3429,-163.743 L 29.1489,-164.341 L 28.8815,-164.909 L 28.5451,-165.439
 L 28.1448,-165.923 L 27.6871,-166.353 L 27.1791,-166.722 L 26.6289,-167.024 L 26.0451,-167.255 L 25.4369,-167.411
 L 24.8139,-167.49 L -24.8139,-167.49 L -25.4369,-167.411 L -26.0451,-167.255 L -26.6289,-167.024 L -27.1791,-166.722
 L -27.6871,-166.353 L -28.1448,-165.923 L -28.5451,-165.439 L -28.8815,-164.909 L -29.1489,-164.341 L -29.3429,-163.743
 L -29.3905,-163.494 L -22.3116,-163.494 L -21.9379,-163.447 L -21.5729,-163.353 L -21.2227,-163.214 L -20.8925,-163.033
 L -20.5877,-162.812 L -20.3131,-162.554 L -20.0729,-162.263 L -19.8711,-161.945 L -19.7107,-161.604 L -19.5942,-161.246
 L -19.5237,-160.876 L -19.5,-160.5 L -19.5237,-160.124 L -19.5942,-159.754 L -19.7107,-159.396 L -19.8711,-159.055
 L -20.0729,-158.737 L -20.3131,-158.446 L -20.5877,-158.188 L -20.8925,-157.967 L -21.2227,-157.786 L -21.5729,-157.647
 L -21.9379,-157.553 L -22.3116,-157.506 L -29.5,-157.506 L -29.5,-118.494 L -22.3116,-118.494 L -21.9379,-118.447
 L -21.5729,-118.353 L -21.2227,-118.214 L -20.8925,-118.033 L -20.5877,-117.812 L -20.3131,-117.554 L -20.0729,-117.263
 L -19.8711,-116.945 L -19.7107,-116.604 L -19.5942,-116.246 L -19.5237,-115.876 L -19.5,-115.5 L -19.5237,-115.124
 L -19.5942,-114.754 L -19.7107,-114.396 L -19.8711,-114.055 L -20.0729,-113.737 L -20.3131,-113.446 L -20.5877,-113.188
 L -20.8925,-112.967 L -21.2227,-112.786 L -21.5729,-112.647 L -21.9379,-112.553 L -22.3116,-112.506 L -29.3905,-112.506
 L -29.3429,-112.257 L -29.1489,-111.659 L -28.8815,-111.091 L -28.5451,-110.561 L -28.1448,-110.077 L -27.6871,-109.647
 L -27.1791,-109.278 L -26.6289,-108.976 L -26.0451,-108.745 L -25.4369,-108.589 L -24.8139,-108.51 L 24.8139,-108.51
 z
M -0.627899,-128.02 L -1.87381,-128.177 L -3.09016,-128.489 L -4.25778,-128.952 L -5.35826,-129.557 L -6.37424,-130.295
 L -7.28967,-131.155 L -8.09016,-132.122 L -8.76306,-133.182 L -9.29776,-134.319 L -9.68582,-135.513 L -9.92114,-136.747
 L -10,-138 L -9.92114,-139.253 L -9.68582,-140.487 L -9.29776,-141.681 L -8.76306,-142.818 L -8.09016,-143.878
 L -7.28967,-144.845 L -6.37424,-145.705 L -5.35826,-146.443 L -4.25778,-147.048 L -3.09016,-147.511 L -1.87381,-147.823
 L -0.627899,-147.98 L 0.627899,-147.98 L 1.87381,-147.823 L 3.09016,-147.511 L 4.25778,-147.048 L 5.35826,-146.443
 L 6.37424,-145.705 L 7.28967,-144.845 L 8.09016,-143.878 L 8.76306,-142.818 L 9.29776,-141.681 L 9.68582,-140.487
 L 9.92114,-139.253 L 10,-138 L 9.92114,-136.747 L 9.68582,-135.513 L 9.29776,-134.319 L 8.76306,-133.182
 L 8.09016,-132.122 L 7.28967,-131.155 L 6.37424,-130.295 L 5.35826,-129.557 L 4.25778,-128.952 L 3.09016,-128.489
 L 1.87381,-128.177 L 0.627899,-128.02 z
M 22.3116,-112.506 L 21.9379,-112.553 L 21.5729,-112.647 L 21.2227,-112.786 L 20.8925,-112.967 L 20.5877,-113.188
 L 20.3131,-113.446 L 20.0729,-113.737 L 19.8711,-114.055 L 19.7107,-114.396 L 19.5942,-114.754 L 19.5237,-115.124
 L 19.5,-115.5 L 19.5237,-115.876 L 19.5942,-116.246 L 19.7107,-116.604 L 19.8711,-116.945 L 20.0729,-117.263
 L 20.3131,-117.554 L 20.5877,-117.812 L 20.8925,-118.033 L 21.2227,-118.214 L 21.5729,-118.353 L 21.9379,-118.447
 L 22.3116,-118.494 L 22.6884,-118.494 L 23.0621,-118.447 L 23.427,-118.353 L 23.7773,-118.214 L 24.1075,-118.033
 L 24.4123,-117.812 L 24.6869,-117.554 L 24.927,-117.263 L 25.1289,-116.945 L 25.2893,-116.604 L 25.4057,-116.246
 L 25.4763,-115.876 L 25.5,-115.5 L 25.4763,-115.124 L 25.4057,-114.754 L 25.2893,-114.396 L 25.1289,-114.055
 L 24.927,-113.737 L 24.6869,-113.446 L 24.4123,-113.188 L 24.1075,-112.967 L 23.7773,-112.786 L 23.427,-112.647
 L 23.0621,-112.553 L 22.6884,-112.506 z
" stroke="black" fill="lightgray" stroke-width="0.5"/>
</svg>
