<?xml version="1.0" standalone="no"?>
<!DOCTYPE svg PUBLIC "-//W3C//DTD SVG 1.1//EN" "http://www.w3.org/Graphics/SVG/1.1/DTD/svg11.dtd">
<svg width="60mm" height="198mm" viewBox="-30 -375 60 198" xmlns="http://www.w3.org/2000/svg" version="1.1">
<title>OpenSCAD Model</title>
<path d="
M 25.9369,-315.089 L 26.5451,-315.245 L 27.1289,-315.476 L 27.6791,-315.778 L 28.1871,-316.147 L 28.6448,-316.577
 L 29.0451,-317.061 L 29.3815,-317.591 L 29.6489,-318.159 L 29.8429,-318.757 L 29.9606,-319.373 L 30,-320
 L 30,-370 L 29.9606,-370.627 L 29.8429,-371.243 L 29.6489,-371.841 L 29.3815,-372.409 L 29.0451,-372.939
 L 28.6448,-373.423 L 28.1871,-373.853 L 27.6791,-374.222 L 27.1289,-374.524 L 26.5451,-374.755 L 25.9369,-374.911
 L 25.3139,-374.99 L -25.3139,-374.99 L -25.9369,-374.911 L -26.5451,-374.755 L -27.1289,-374.524 L -27.6791,-374.222
 L -28.1871,-373.853 L -28.6448,-373.423 L -29.0451,-372.939 L -29.3815,-372.409 L -29.6489,-371.841 L -29.8429,-371.243
 L -29.9606,-370.627 L -30,-370 L -30,-320 L -29.9606,-319.373 L -29.8429,-318.757 L -29.6489,-318.159
 L -29.3815,-317.591 L -29.0451,-317.061 L -28.6448,-316.577 L -28.1871,-316.147 L -27.6791,-315.778 L -27.1289,-315.476
 L -26.5451,-315.245 L -25.9369,-315.089 L -25.3139,-315.01 L 25.3139,-315.01 z
M -24.7512,-316.508 L -25.2495,-316.571 L -25.7361,-316.696 L -26.2031,-316.881 L -26.6433,-317.123 L -27.0497,-317.418
 L -27.4159,-317.762 L -27.7361,-318.149 L -28.0052,-318.573 L -28.2191,-319.028 L -28.3743,-319.505 L -28.4684,-319.999
 L -28.5,-320.5 L -28.5,-369.5 L -28.4684,-370.001 L -28.3743,-370.495 L -28.2191,-370.972 L -28.0052,-371.427
 L -27.7361,-371.851 L -27.4159,-372.238 L -27.0497,-372.582 L -26.6433,-372.877 L -26.2031,-373.119 L -25.7361,-373.304
 L -25.2495,-373.429 L -24.7512,-373.492 L 24.7512,-373.492 L 25.2495,-373.429 L 25.7361,-373.304 L 26.2031,-373.119
 L 26.6433,-372.877 L 27.0497,-372.582 L 27.4159,-372.238 L 27.7361,-371.851 L 28.0052,-371.427 L 28.2191,-370.972
 L 28.3743,-370.495 L 28.4684,-370.001 L 28.5,-369.5 L 28.5,-320.5 L 28.4684,-319.999 L 28.3743,-319.505
 L 28.2191,-319.028 L 28.0052,-318.573 L 27.7361,-318.149 L 27.4159,-317.762 L 27.0497,-317.418 L 26.6433,-317.123
 L 26.2031,-316.881 L 25.7361,-316.696 L 25.2495,-316.571 L 24.7512,-316.508 z
M 25.9369,-246.089 L 26.5451,-246.245 L 27.1289,-246.476 L 27.6791,-246.778 L 28.1871,-247.147 L 28.6448,-247.577
 L 29.0451,-248.061 L 29.3815,-248.591 L 29.6489,-249.159 L 29.8429,-249.757 L 29.9606,-250.373 L 30,-251
 L 30,-301 L 29.9606,-301.627 L 29.8429,-302.243 L 29.6489,-302.841 L 29.3815,-303.409 L 29.0451,-303.939
 L 28.6448,-304.423 L 28.1871,-304.853 L 27.6791,-305.222 L 27.1289,-305.524 L 26.5451,-305.755 L 25.9369,-305.911
 L 25.3139,-305.99 L -25.3139,-305.99 L -25.9369,-305.911 L -26.5451,-305.755 L -27.1289,-305.524 L -27.6791,-305.222
 L -28.1871,-304.853 L -28.6448,-304.423 L -29.0451,-303.939 L -29.3815,-303.409 L -29.6489,-302.841 L -29.8429,-302.243
 L -29.9606,-301.627 L -30,-301 L -30,-251 L -29.9606,-250.373 L -29.8429,-249.757 L -29.6489,-249.159
 L -29.3815,-248.591 L -29.0451,-248.061 L -28.6448,-247.577 L -28.1871,-247.147 L -27.6791,-246.778 L -27.1289,-246.476
 L -26.5451,-246.245 L -25.9369,-246.089 L -25.3139,-246.01 L 25.3139,-246.01 z
M -24.6954,-248.393 L -25.0833,-248.442 L -25.4619,-248.539 L -25.8254,-248.683 L -26.168,-248.872 L -26.4842,-249.101
 L -26.7692,-249.369 L -27.0184,-249.67 L -27.2279,-250 L -27.3943,-250.354 L -27.5151,-250.726 L -27.5884,-251.11
 L -27.6129,-251.5 L -27.6129,-300.5 L -27.5884,-300.89 L -27.5151,-301.274 L -27.3943,-301.646 L -27.2279,-302
 L -27.0184,-302.33 L -26.7692,-302.631 L -26.4842,-302.899 L -26.168,-303.128 L -25.8254,-303.317 L -25.4619,-303.461
 L -25.0833,-303.558 L -24.6954,-303.607 L 24.6954,-303.607 L 25.0833,-303.558 L 25.4619,-303.461 L 25.8254,-303.317
 L 26.168,-303.128 L 26.4842,-302.899 L 26.7692,-302.631 L 27.0184,-302.33 L 27.2279,-302 L 27.3943,-301.646
 L 27.5151,-301.274 L 27.5884,-300.89 L 27.6129,-300.5 L 27.6129,-251.5 L 27.5884,-251.11 L 27.5151,-250.726
 L 27.3943,-250.354 L 27.2279,-250 L 27.0184,-249.67 L 26.7692,-249.369 L 26.4842,-249.101 L 26.168,-248.872
 L 25.8254,-248.683 L 25.4619,-248.539 L 25.0833,-248.442 L 24.6954,-248.393 z
M 25.9369,-177.089 L 26.5451,-177.245 L 27.1289,-177.476 L 27.6791,-177.778 L 28.1871,-178.147 L 28.6448,-178.577
 L 29.0451,-179.061 L 29.3815,-179.591 L 29.6489,-180.159 L 29.8429,-180.757 L 29.9606,-181.373 L 30,-182
 L 30,-232 L 29.9606,-232.627 L 29.8429,-233.243 L 29.6489,-233.841 L 29.3815,-234.409 L 29.0451,-234.939
 L 28.6448,-235.423 L 28.1871,-235.853 L 27.6791,-236.222 L 27.1289,-236.524 L 26.5451,-236.755 L 25.9369,-236.911
 L 25.3139,-236.99 L -25.3139,-236.99 L -25.9369,-236.911 L -26.5451,-236.755 L -27.1289,-236.524 L -27.6791,-236.222
 L -28.1871,-235.853 L -28.6448,-235.423 L -29.0451,-234.939 L -29.3815,-234.409 L -29.6489,-233.841 L -29.8429,-233.243
 L -29.9606,-232.627 L -30,-232 L -30,-182 L -29.9606,-181.373 L -29.8429,-180.757 L -29.6489,-180.159
 L -29.3815,-179.591 L -29.0451,-179.061 L -28.6448,-178.577 L -28.1871,-178.147 L -27.6791,-177.778 L -27.1289,-177.476
 L -26.5451,-177.245 L -25.9369,-177.089 L -25.3139,-177.01 L 25.3139,-177.01 z
M 22.3659,-227.369 L 22.0999,-227.403 L 21.8401,-227.469 L 21.5908,-227.568 L 21.3559,-227.697 L 21.1389,-227.855
 L 20.9434,-228.038 L 20.7725,-228.245 L 20.6288,-228.471 L 20.5146,-228.714 L 20.4318,-228.969 L 20.3815,-229.232
 L 20.3647,-229.5 L 20.3815,-229.768 L 20.4318,-230.031 L 20.5146,-230.286 L 20.6288,-230.529 L 20.7725,-230.755
 L 20.9434,-230.962 L 21.1389,-231.145 L 21.3559,-231.303 L 21.5908,-231.432 L 21.8401,-231.531 L 22.0999,-231.597
 L 22.3659,-231.631 L 22.6341,-231.631 L 22.9001,-231.597 L 23.1598,-231.531 L 23.4091,-231.432 L 23.6441,-231.303
 L 23.8611,-231.145 L 24.0565,-230.962 L 24.2275,-230.755 L 24.3712,-230.529 L 24.4853,-230.286 L 24.5682,-230.031
 L 24.6185,-229.768 L 24.6353,-229.5 L 24.6185,-229.232 L 24.5682,-228.969 L 24.4853,-228.714 L 24.3712,-228.471
 L 24.2275,-228.245 L 24.0565,-228.038 L 23.8611,-227.855 L 23.6441,-227.697 L 23.4091,-227.568 L 23.1598,-227.469
 L 22.9001,-227.403 L 22.6341,-227.369 z
M -22.6341,-227.369 L -22.9001,-227.403 L -23.1598,-227.469 L -23.4091,-227.568 L -23.6441,-227.697 L -23.8611,-227.855
 L -24.0565,-228.038 L -24.2275,-228.245 L -24.3712,-228.471 L -24.4853,-228.714 L -24.5682,-228.969 L -24.6185,-229.232
 L -24.6353,-229.5 L -24.6185,-229.768 L -24.5682,-230.031 L -24.4853,-230.286 L -24.3712,-230.529 L -24.2275,-230.755
 L -24.0565,-230.962 L -23.8611,-231.145 L -23.6441,-231.303 L -23.4091,-231.432 L -23.1598,-231.531 L -22.9001,-231.597
 L -22.6341,-231.631 L -22.3659,-231.631 L -22.0999,-231.597 L -21.8401,-231.531 L -21.5908,-231.432 L -21.3559,-231.303
 L -21.1389,-231.145 L -20.9434,-230.962 L -20.7725,-230.755 L -20.6288,-230.529 L -20.5146,-230.286 L -20.4318,-230.031
 L -20.3815,-229.768 L -20.3647,-229.5 L -20.3815,-229.232 L -20.4318,-228.969 L -20.5146,-228.714 L -20.6288,-228.471
 L -20.7725,-228.245 L -20.9434,-228.038 L -21.1389,-227.855 L -21.3559,-227.697 L -21.5908,-227.568 L -21.8401,-227.469
 L -22.0999,-227.403 L -22.3659,-227.369 z
M 22.3659,-182.369 L 22.0999,-182.403 L 21.8401,-182.469 L 21.5908,-182.568 L 21.3559,-182.697 L 21.1389,-182.855
 L 20.9434,-183.038 L 20.7725,-183.245 L 20.6288,-183.471 L 20.5146,-183.714 L 20.4318,-183.969 L 20.3815,-184.232
 L 20.3647,-184.5 L 20.3815,-184.768 L 20.4318,-185.031 L 20.5146,-185.286 L 20.6288,-185.529 L 20.7725,-185.755
 L 20.9434,-185.962 L 21.1389,-186.145 L 21.3559,-186.303 L 21.5908,-186.432 L 21.8401,-186.531 L 22.0999,-186.597
 L 22.3659,-186.631 L 22.6341,-186.631 L 22.9001,-186.597 L 23.1598,-186.531 L 23.4091,-186.432 L 23.6441,-186.303
 L 23.8611,-186.145 L 24.0565,-185.962 L 24.2275,-185.755 L 24.3712,-185.529 L 24.4853,-185.286 L 24.5682,-185.031
 L 24.6185,-184.768 L 24.6353,-184.5 L 24.6185,-184.232 L 24.5682,-183.969 L 24.4853,-183.714 L 24.3712,-183.471
 L 24.2275,-183.245 L 24.0565,-183.038 L 23.8611,-182.855 L 23.6441,-182.697 L 23.4091,-182.568 L 23.1598,-182.469
 L 22.9001,-182.403 L 22.6341,-182.369 z
M -22.6341,-182.369 L -22.9001,-182.403 L -23.1598,-182.469 L -23.4091,-182.568 L -23.6441,-182.697 L -23.8611,-182.855
 L -24.0565,-183.038 L -24.2275,-183.245 L -24.3712,-183.471 L -24.4853,-183.714 L -24.5682,-183.969 L -24.6185,-184.232
 L -24.6353,-184.5 L -24.6185,-184.768 L -24.5682,-185.031 L -24.4853,-185.286 L -24.3712,-185.529 L -24.2275,-185.755
 L -24.0565,-185.962 L -23.8611,-186.145 L -23.6441,-186.303 L -23.4091,-186.432 L -23.1598,-186.531 L -22.9001,-186.597
 L -22.6341,-186.631 L -22.3659,-186.631 L -22.0999,-186.597 L -21.8401,-186.531 L -21.5908,-186.432 L -21.3559,-186.303
 L -21.1389,-186.145 L -20.9434,-185.962 L -20.7725,-185.755 L -20.6288,-185.529 L -20.5146,-185.286 L -20.4318,-185.031
 L -20.3815,-184.768 L -20.3647,-184.5 L -20.3815,-184.232 L -20.4318,-183.969 L -20.5146,-183.714 L -20.6288,-183.471
 L -20.7725,-183.245 L -20.9434,-183.038 L -21.1389,-182.855 L -21.3559,-182.697 L -21.5908,-182.568 L -21.8401,-182.469
 L -22.0999,-182.403 L -22.3659,-182.369 z
" stroke="black" fill="lightgray" stroke-width="0.5"/>
</svg>
