<?xml version="1.0" standalone="no"?>
<!DOCTYPE svg PUBLIC "-//W3C//DTD SVG 1.1//EN" "http://www.w3.org/Graphics/SVG/1.1/DTD/svg11.dtd">
<svg width="92mm" height="40mm" viewBox="-47 -56 92 40" xmlns="http://www.w3.org/2000/svg" version="1.1">
<title>OpenSCAD Model</title>
<path d="
M 40.9369,-40.5886 L 41.5451,-40.7447 L 42.1289,-40.9759 L 42.6791,-41.2784 L 43.1871,-41.6474 L 43.6448,-42.0773
 L 44.0451,-42.5611 L 44.3815,-43.0912 L 44.6489,-43.6594 L 44.8429,-44.2566 L 44.9606,-44.8733 L 45,-45.5
 L 45,-50.5 L 44.9606,-51.1267 L 44.8429,-51.7434 L 44.6489,-52.3406 L 44.3815,-52.9088 L 44.0451,-53.4389
 L 43.6448,-53.9227 L 43.1871,-54.3526 L 42.6791,-54.7216 L 42.1289,-55.0241 L 41.5451,-55.2553 L 40.9369,-55.4114
 L 40.3139,-55.4901 L -40.3139,-55.4901 L -40.9369,-55.4114 L -41.5451,-55.2553 L -42.1289,-55.0241 L -42.6791,-54.7216
 L -43.1871,-54.3526 L -43.5,-54.0587 L -43.5,-55.1148 L -46.5,-55.1148 L -46.5,-40.8852 L -43.5,-40.8852
 L -43.5,-41.9413 L -43.1871,-41.6474 L -42.6791,-41.2784 L -42.1289,-40.9759 L -41.5451,-40.7447 L -40.9369,-40.5886
 L -40.3139,-40.5099 L 40.3139,-40.5099 z
M 40.9369,-16.5886 L 41.5451,-16.7447 L 42.1289,-16.9759 L 42.6791,-17.2784 L 43.1871,-17.6474 L 43.6448,-18.0773
 L 44.0451,-18.5611 L 44.3815,-19.0912 L 44.6489,-19.6594 L 44.8429,-20.2566 L 44.9606,-20.8733 L 45,-21.5
 L 45,-26.5 L 44.9606,-27.1267 L 44.8429,-27.7434 L 44.6489,-28.3406 L 44.3815,-28.9088 L 44.0451,-29.4389
 L 43.6448,-29.9227 L 43.1871,-30.3526 L 42.6791,-30.7216 L 42.1289,-31.0241 L 41.5451,-31.2553 L 40.9369,-31.4114
 L 40.3139,-31.4901 L -40.3139,-31.4901 L -40.9369,-31.4114 L -41.5451,-31.2553 L -42.1289,-31.0241 L -42.6791,-30.7216
 L -43.1871,-30.3526 L -43.6448,-29.9227 L -44.0451,-29.4389 L -44.3815,-28.9088 L -44.6489,-28.3406 L -44.8429,-27.7434
 L -44.9,-27.4442 L -46.5,-27.4442 L -46.5,-20.5558 L -44.9,-20.5558 L -44.8429,-20.2566 L -44.6489,-19.6594
 L -44.3815,-19.0912 L -44.0451,-18.5611 L -43.6448,-18.0773 L -43.1871,-17.6474 L -42.6791,-17.2784 L -42.1289,-16.9759
 L -41.5451,-16.7447 L -40.9369,-16.5886 L -40.3139,-16.5099 L 40.3139,-16.5099 z
M -37.613,-22.2036 L -37.8373,-22.2319 L -38.0562,-22.2881 L -38.2664,-22.3713 L -38.4645,-22.4802 L -38.6474,-22.6131
 L -38.8121,-22.7678 L -38.9562,-22.942 L -39.0773,-23.1329 L -39.1736,-23.3374 L -39.2434,-23.5524 L -39.2858,-23.7744
 L -39.3,-24 L -39.2858,-24.2256 L -39.2434,-24.4476 L -39.1736,-24.6626 L -39.0773,-24.8671 L -38.9562,-25.058
 L -38.8121,-25.2322 L -38.6474,-25.3869 L -38.4645,-25.5198 L -38.2664,-25.6287 L -38.0562,-25.7119 L -37.8373,-25.7681
 L -37.613,-25.7964 L -37.387,-25.7964 L -37.1627,-25.7681 L -36.9438,-25.7119 L -36.7336,-25.6287 L -36.5355,-25.5198
 L -36.3526,-25.3869 L -36.1879,-25.2322 L -36.0438,-25.058 L -35.9226,-24.8671 L -35.8264,-24.6626 L -35.7565,-24.4476
 L -35.7142,-24.2256 L -35.7,-24 L -35.7142,-23.7744 L -35.7565,-23.5524 L -35.8264,-23.3374 L -35.9226,-23.1329
 L -36.0438,-22.942 L -36.1879,-22.7678 L -36.3526,-22.6131 L -36.5355,-22.4802 L -36.7336,-22.3713 L -36.9438,-22.2881
 L -37.1627,-22.2319 L -37.387,-22.2036 z
M 37.387,-22.2036 L 37.1627,-22.2319 L 36.9438,-22.2881 L 36.7336,-22.3713 L 36.5355,-22.4802 L 36.3526,-22.6131
 L 36.1879,-22.7678 L 36.0438,-22.942 L 35.9226,-23.1329 L 35.8264,-23.3374 L 35.7565,-23.5524 L 35.7142,-23.7744
 L 35.7,-24 L 35.7142,-24.2256 L 35.7565,-24.4476 L 35.8264,-24.6626 L 35.9226,-24.8671 L 36.0438,-25.058
 L 36.1879,-25.2322 L 36.3526,-25.3869 L 36.5355,-25.5198 L 36.7336,-25.6287 L 36.9438,-25.7119 L 37.1627,-25.7681
 L 37.387,-25.7964 L 37.613,-25.7964 L 37.8373,-25.7681 L 38.0562,-25.7119 L 38.2664,-25.6287 L 38.4645,-25.5198
 L 38.6474,-25.3869 L 38.8121,-25.2322 L 38.9562,-25.058 L 39.0773,-24.8671 L 39.1736,-24.6626 L 39.2434,-24.4476
 L 39.2858,-24.2256 L 39.3,-24 L 39.2858,-23.7744 L 39.2434,-23.5524 L 39.1736,-23.3374 L 39.0773,-23.1329
 L 38.9562,-22.942 L 38.8121,-22.7678 L 38.6474,-22.6131 L 38.4645,-22.4802 L 38.2664,-22.3713 L 38.0562,-22.2881
 L 37.8373,-22.2319 L 37.613,-22.2036 z
" stroke="black" fill="lightgray" stroke-width="0.5"/>
</svg>
