<?xml version="1.0" standalone="no"?>
<!DOCTYPE svg PUBLIC "-//W3C//DTD SVG 1.1//EN" "http://www.w3.org/Graphics/SVG/1.1/DTD/svg11.dtd">
<svg width="120mm" height="40mm" viewBox="-60 -80 120 40" xmlns="http://www.w3.org/2000/svg" version="1.1">
<title>OpenSCAD Model</title>
<path d="
M 55.9369,-64.5886 L 56.5451,-64.7447 L 57.1289,-64.9759 L 57.6791,-65.2784 L 58.1871,-65.6474 L 58.6448,-66.0773
 L 59.0451,-66.5611 L 59.3815,-67.0912 L 59.6489,-67.6594 L 59.8429,-68.2566 L 59.9606,-68.8733 L 60,-69.5
 L 60,-74.5 L 59.9606,-75.1267 L 59.8429,-75.7434 L 59.6489,-76.3406 L 59.3815,-76.9088 L 59.0451,-77.4389
 L 58.6448,-77.9227 L 58.1871,-78.3526 L 57.6791,-78.7216 L 57.1289,-79.0241 L 56.5451,-79.2553 L 55.9369,-79.4114
 L 55.3139,-79.4901 L -55.3139,-79.4901 L -55.9369,-79.4114 L -56.5451,-79.2553 L -57.1289,-79.0241 L -57.6791,-78.7216
 L -58.1871,-78.3526 L -58.6448,-77.9227 L -59.0451,-77.4389 L -59.3815,-76.9088 L -59.6489,-76.3406 L -59.8429,-75.7434
 L -59.9606,-75.1267 L -60,-74.5 L -60,-69.5 L -59.9606,-68.8733 L -59.8429,-68.2566 L -59.6489,-67.6594
 L -59.3815,-67.0912 L -59.0451,-66.5611 L -58.6448,-66.0773 L -58.1871,-65.6474 L -57.6791,-65.2784 L -57.1289,-64.9759
 L -56.5451,-64.7447 L -55.9369,-64.5886 L -55.3139,-64.5099 L 55.3139,-64.5099 z
M -55.0375,-65.1806 L -55.6079,-65.2527 L -56.1648,-65.3956 L -56.6994,-65.6073 L -57.2032,-65.8843 L -57.6684,-66.2223
 L -58.0875,-66.6158 L -58.454,-67.0589 L -58.7621,-67.5443 L -59.0069,-68.0646 L -59.1846,-68.6114 L -59.2923,-69.1762
 L -59.3284,-69.75 L -59.3284,-74.25 L -59.2923,-74.8238 L -59.1846,-75.3886 L -59.0069,-75.9354 L -58.7621,-76.4557
 L -58.454,-76.9411 L -58.0875,-77.3842 L -57.6684,-77.7777 L -57.2032,-78.1157 L -56.6994,-78.3927 L -56.1648,-78.6044
 L -55.6079,-78.7473 L -55.0375,-78.8194 L 55.0375,-78.8194 L 55.6079,-78.7473 L 56.1648,-78.6044 L 56.6994,-78.3927
 L 57.2032,-78.1157 L 57.6684,-77.7777 L 58.0875,-77.3842 L 58.454,-76.9411 L 58.7621,-76.4557 L 59.0069,-75.9354
 L 59.1846,-75.3886 L 59.2923,-74.8238 L 59.3284,-74.25 L 59.3284,-69.75 L 59.2923,-69.1762 L 59.1846,-68.6114
 L 59.0069,-68.0646 L 58.7621,-67.5443 L 58.454,-67.0589 L 58.0875,-66.6158 L 57.6684,-66.2223 L 57.2032,-65.8843
 L 56.6994,-65.6073 L 56.1648,-65.3956 L 55.6079,-65.2527 L 55.0375,-65.1806 z
M 55.9369,-40.5886 L 56.5451,-40.7447 L 57.1289,-40.9759 L 57.6791,-41.2784 L 58.1871,-41.6474 L 58.6448,-42.0773
 L 59.0451,-42.5611 L 59.3815,-43.0912 L 59.6489,-43.6594 L 59.8429,-44.2566 L 59.9606,-44.8733 L 60,-45.5
 L 60,-50.5 L 59.9606,-51.1267 L 59.8429,-51.7434 L 59.6489,-52.3406 L 59.3815,-52.9088 L 59.0451,-53.4389
 L 58.6448,-53.9227 L 58.1871,-54.3526 L 57.6791,-54.7216 L 57.1289,-55.0241 L 56.5451,-55.2553 L 55.9369,-55.4114
 L 55.3139,-55.4901 L -55.3139,-55.4901 L -55.9369,-55.4114 L -56.5451,-55.2553 L -57.1289,-55.0241 L -57.6791,-54.7216
 L -58.1871,-54.3526 L -58.6448,-53.9227 L -59.0451,-53.4389 L -59.3815,-52.9088 L -59.6489,-52.3406 L -59.8429,-51.7434
 L -59.9606,-51.1267 L -60,-50.5 L -60,-45.5 L -59.9606,-44.8733 L -59.8429,-44.2566 L -59.6489,-43.6594
 L -59.3815,-43.0912 L -59.0451,-42.5611 L -58.6448,-42.0773 L -58.1871,-41.6474 L -57.6791,-41.2784 L -57.1289,-40.9759
 L -56.5451,-40.7447 L -55.9369,-40.5886 L -55.3139,-40.5099 L 55.3139,-40.5099 z
M -54.8825,-43.6445 L -55.1453,-43.6777 L -55.4019,-43.7436 L -55.6482,-43.8412 L -55.8804,-43.9688 L -56.0947,-44.1245
 L -56.2879,-44.3059 L -56.4567,-44.51 L -56.5987,-44.7337 L -56.7115,-44.9734 L -56.7934,-45.2254 L -56.843,-45.4856
 L -56.8596,-45.75 L -56.8596,-50.25 L -56.843,-50.5144 L -56.7934,-50.7746 L -56.7115,-51.0266 L -56.5987,-51.2663
 L -56.4567,-51.49 L -56.2879,-51.6941 L -56.0947,-51.8755 L -55.8804,-52.0312 L -55.6482,-52.1588 L -55.4019,-52.2564
 L -55.1453,-52.3223 L -54.8825,-52.3555 L 54.8825,-52.3555 L 55.1453,-52.3223 L 55.4019,-52.2564 L 55.6482,-52.1588
 L 55.8804,-52.0312 L 56.0947,-51.8755 L 56.2879,-51.6941 L 56.4567,-51.49 L 56.5987,-51.2663 L 56.7115,-51.0266
 L 56.7934,-50.7746 L 56.843,-50.5144 L 56.8596,-50.25 L 56.8596,-45.75 L 56.843,-45.4856 L 56.7934,-45.2254
 L 56.7115,-44.9734 L 56.5987,-44.7337 L 56.4567,-44.51 L 56.2879,-44.3059 L 56.0947,-44.1245 L 55.8804,-43.9688
 L 55.6482,-43.8412 L 55.4019,-43.7436 L 55.1453,-43.6777 L 54.8825,-43.6445 z
" stroke="black" fill="lightgray" stroke-width="0.5"/>
</svg>
