<?xml version="1.0" standalone="no"?>
<!DOCTYPE svg PUBLIC "-//W3C//DTD SVG 1.1//EN" "http://www.w3.org/Graphics/SVG/1.1/DTD/svg11.dtd">
<svg width="134mm" height="134mm" viewBox="-67 -355 134 134" xmlns="http://www.w3.org/2000/svg" version="1.1">
<title>OpenSCAD Model</title>
<path d="
M 62.9369,-221.089 L 63.5451,-221.245 L 64.1289,-221.476 L 64.6791,-221.778 L 65.1871,-222.147 L 65.6448,-222.577
 L 66.0451,-223.061 L 66.3815,-223.591 L 66.6489,-224.159 L 66.8429,-224.757 L 66.9606,-225.373 L 67,-226
 L 67,-348 L 21.9684,-348 L 21.9734,-347.998 L 18.7482,-347.998 L 18.6236,-347.982 L 18.502,-347.951
 L 18.3852,-347.905 L 18.2752,-347.844 L 18.1736,-347.771 L 18.082,-347.685 L 18.002,-347.588 L 17.9347,-347.482
 L 17.8812,-347.368 L 17.8424,-347.249 L 17.8189,-347.125 L 17.811,-347 L 17.8189,-346.875 L 17.8424,-346.751
 L 17.8812,-346.632 L 17.9347,-346.518 L 18.002,-346.412 L 18.082,-346.315 L 18.1736,-346.229 L 18.2752,-346.156
 L 18.3852,-346.095 L 18.502,-346.049 L 18.6236,-346.018 L 18.7482,-346.002 L 23.8738,-346.002 L 23.9984,-346.018
 L 24.12,-346.049 L 24.2368,-346.095 L 24.3468,-346.156 L 24.4484,-346.229 L 24.54,-346.315 L 24.62,-346.412
 L 24.6873,-346.518 L 24.7408,-346.632 L 24.7796,-346.751 L 24.8031,-346.875 L 24.8033,-346.878 L 27.2499,-345.909
 L 34.2929,-342.037 L 40.7951,-337.313 L 46.654,-331.811 L 51.7771,-325.618 L 56.0836,-318.832 L 59.5057,-311.56
 L 61.9893,-303.916 L 63.4953,-296.021 L 64,-288 L 63.4953,-279.979 L 61.9893,-272.084 L 59.5057,-264.44
 L 56.0836,-257.168 L 51.7771,-250.382 L 46.654,-244.189 L 40.7951,-238.687 L 34.2929,-233.963 L 27.2499,-230.091
 L 19.7771,-227.132 L 11.9924,-225.134 L 4.01859,-224.126 L -4.01859,-224.126 L -11.9924,-225.134 L -19.7771,-227.132
 L -27.2499,-230.091 L -34.2929,-233.963 L -40.7951,-238.687 L -46.654,-244.189 L -51.7771,-250.382 L -56.0836,-257.168
 L -59.5057,-264.44 L -61.9893,-272.084 L -63.4953,-279.979 L -64,-288 L -63.4953,-296.021 L -61.9893,-303.916
 L -59.5057,-311.56 L -56.0836,-318.832 L -51.7771,-325.618 L -46.654,-331.811 L -40.7951,-337.313 L -34.2929,-342.037
 L -27.2499,-345.909 L -19.7771,-348.868 L -11.9924,-350.866 L -4.01859,-351.874 L 0,-351.874 L 0,-352
 L 47,-352 L 44.0099,-354.99 L -34.5,-354.99 L -34.5,-354 L -66.5,-354 L -66.5,-355
 L -67,-355 L -67,-350.994 L -59.8116,-350.994 L -59.4379,-350.947 L -59.0729,-350.853 L -58.7227,-350.714
 L -58.3925,-350.533 L -58.0877,-350.312 L -57.8131,-350.054 L -57.5729,-349.763 L -57.3711,-349.445 L -57.2107,-349.104
 L -57.0942,-348.746 L -57.0237,-348.376 L -57,-348 L -57.0237,-347.624 L -57.0942,-347.254 L -57.2107,-346.896
 L -57.3711,-346.555 L -57.5729,-346.237 L -57.8131,-345.946 L -58.0877,-345.688 L -58.3925,-345.467 L -58.7227,-345.286
 L -59.0729,-345.147 L -59.4379,-345.053 L -59.8116,-345.006 L -67,-345.006 L -67,-230.994 L -59.8116,-230.994
 L -59.4379,-230.947 L -59.0729,-230.853 L -58.7227,-230.714 L -58.3925,-230.533 L -58.0877,-230.312 L -57.8131,-230.054
 L -57.5729,-229.763 L -57.3711,-229.445 L -57.2107,-229.104 L -57.0942,-228.746 L -57.0237,-228.376 L -57,-228
 L -57.0237,-227.624 L -57.0942,-227.254 L -57.2107,-226.896 L -57.3711,-226.555 L -57.5729,-226.237 L -57.8131,-225.946
 L -58.0877,-225.688 L -58.3925,-225.467 L -58.7227,-225.286 L -59.0729,-225.147 L -59.4379,-225.053 L -59.8116,-225.006
 L -66.8905,-225.006 L -66.8429,-224.757 L -66.6489,-224.159 L -66.3815,-223.591 L -66.0451,-223.061 L -65.6448,-222.577
 L -65.1871,-222.147 L -64.6791,-221.778 L -64.1289,-221.476 L -63.5451,-221.245 L -62.9369,-221.089 L -62.3139,-221.01
 L 62.3139,-221.01 z
M 59.8116,-225.006 L 59.4379,-225.053 L 59.0729,-225.147 L 58.7227,-225.286 L 58.3925,-225.467 L 58.0877,-225.688
 L 57.8131,-225.946 L 57.5729,-226.237 L 57.3711,-226.555 L 57.2107,-226.896 L 57.0942,-227.254 L 57.0237,-227.624
 L 57,-228 L 57.0237,-228.376 L 57.0942,-228.746 L 57.2107,-229.104 L 57.3711,-229.445 L 57.5729,-229.763
 L 57.8131,-230.054 L 58.0877,-230.312 L 58.3925,-230.533 L 58.7227,-230.714 L 59.0729,-230.853 L 59.4379,-230.947
 L 59.8116,-230.994 L 60.1884,-230.994 L 60.5621,-230.947 L 60.927,-230.853 L 61.2773,-230.714 L 61.6075,-230.533
 L 61.9123,-230.312 L 62.1869,-230.054 L 62.427,-229.763 L 62.6289,-229.445 L 62.7893,-229.104 L 62.9057,-228.746
 L 62.9763,-228.376 L 63,-228 L 62.9763,-227.624 L 62.9057,-227.254 L 62.7893,-226.896 L 62.6289,-226.555
 L 62.427,-226.237 L 62.1869,-225.946 L 61.9123,-225.688 L 61.6075,-225.467 L 61.2773,-225.286 L 60.927,-225.147
 L 60.5621,-225.053 L 60.1884,-225.006 z
M 57,-354.99 L 46.1312,-354.99 L 49.1213,-352 L 57,-352 z
" stroke="black" fill="lightgray" stroke-width="0.5"/>
</svg>
