<?xml version="1.0" standalone="no"?>
<!DOCTYPE svg PUBLIC "-//W3C//DTD SVG 1.1//EN" "http://www.w3.org/Graphics/SVG/1.1/DTD/svg11.dtd">
<svg width="106mm" height="100mm" viewBox="-53 -185 106 100" xmlns="http://www.w3.org/2000/svg" version="1.1">
<title>OpenSCAD Model</title>
<path d="
M 48.4369,-139.589 L 49.0451,-139.745 L 49.6289,-139.976 L 50.1791,-140.278 L 50.6871,-140.647 L 51.1448,-141.077
 L 51.5451,-141.561 L 51.8815,-142.091 L 52.1489,-142.659 L 52.3429,-143.257 L 52.4606,-143.873 L 52.5,-144.5
 L 52.5,-179.5 L 52.4606,-180.127 L 52.3429,-180.743 L 52.1489,-181.341 L 51.8815,-181.909 L 51.5451,-182.439
 L 51.1448,-182.923 L 50.6871,-183.353 L 50.1791,-183.722 L 49.6289,-184.024 L 49.0451,-184.255 L 48.4369,-184.411
 L 47.8139,-184.49 L -47.8139,-184.49 L -48.4369,-184.411 L -49.0451,-184.255 L -49.6289,-184.024 L -50.1791,-183.722
 L -50.6871,-183.353 L -51.1448,-182.923 L -51.5451,-182.439 L -51.8815,-181.909 L -52.1489,-181.341 L -52.3429,-180.743
 L -52.4606,-180.127 L -52.5,-179.5 L -52.5,-144.5 L -52.4606,-143.873 L -52.3429,-143.257 L -52.1489,-142.659
 L -51.8815,-142.091 L -51.5451,-141.561 L -51.1448,-141.077 L -50.6871,-140.647 L -50.1791,-140.278 L -49.6289,-139.976
 L -49.0451,-139.745 L -48.4369,-139.589 L -47.8139,-139.51 L 47.8139,-139.51 z
M -47.5375,-140.181 L -48.1079,-140.253 L -48.6648,-140.396 L -49.1994,-140.607 L -49.7032,-140.884 L -50.1684,-141.222
 L -50.5875,-141.616 L -50.954,-142.059 L -51.2621,-142.544 L -51.5069,-143.065 L -51.6846,-143.611 L -51.7923,-144.176
 L -51.8284,-144.75 L -51.8284,-179.25 L -51.7923,-179.824 L -51.6846,-180.389 L -51.5069,-180.935 L -51.2621,-181.456
 L -50.954,-181.941 L -50.5875,-182.384 L -50.1684,-182.778 L -49.7032,-183.116 L -49.1994,-183.393 L -48.6648,-183.604
 L -48.1079,-183.747 L -47.5375,-183.819 L 47.5375,-183.819 L 48.1079,-183.747 L 48.6648,-183.604 L 49.1994,-183.393
 L 49.7032,-183.116 L 50.1684,-182.778 L 50.5875,-182.384 L 50.954,-181.941 L 51.2621,-181.456 L 51.5069,-180.935
 L 51.6846,-180.389 L 51.7923,-179.824 L 51.8284,-179.25 L 51.8284,-144.75 L 51.7923,-144.176 L 51.6846,-143.611
 L 51.5069,-143.065 L 51.2621,-142.544 L 50.954,-142.059 L 50.5875,-141.616 L 50.1684,-141.222 L 49.7032,-140.884
 L 49.1994,-140.607 L 48.6648,-140.396 L 48.1079,-140.253 L 47.5375,-140.181 z
M 48.4369,-85.5886 L 49.0451,-85.7447 L 49.6289,-85.9759 L 50.1791,-86.2784 L 50.6871,-86.6474 L 51.1448,-87.0773
 L 51.5451,-87.5611 L 51.8815,-88.0912 L 52.1489,-88.6594 L 52.3429,-89.2566 L 52.4606,-89.8733 L 52.5,-90.5
 L 52.5,-125.5 L 52.4606,-126.127 L 52.3429,-126.743 L 52.1489,-127.341 L 51.8815,-127.909 L 51.5451,-128.439
 L 51.1448,-128.923 L 50.6871,-129.353 L 50.1791,-129.722 L 49.6289,-130.024 L 49.0451,-130.255 L 48.4369,-130.411
 L 47.8139,-130.49 L -47.8139,-130.49 L -48.4369,-130.411 L -49.0451,-130.255 L -49.6289,-130.024 L -50.1791,-129.722
 L -50.6871,-129.353 L -51.1448,-128.923 L -51.5451,-128.439 L -51.8815,-127.909 L -52.1489,-127.341 L -52.3429,-126.743
 L -52.4606,-126.127 L -52.5,-125.5 L -52.5,-90.5 L -52.4606,-89.8733 L -52.3429,-89.2566 L -52.1489,-88.6594
 L -51.8815,-88.0912 L -51.5451,-87.5611 L -51.1448,-87.0773 L -50.6871,-86.6474 L -50.1791,-86.2784 L -49.6289,-85.9759
 L -49.0451,-85.7447 L -48.4369,-85.5886 L -47.8139,-85.5099 L 47.8139,-85.5099 z
M -47.3825,-88.6445 L -47.6453,-88.6777 L -47.9019,-88.7436 L -48.1482,-88.8412 L -48.3804,-88.9688 L -48.5947,-89.1245
 L -48.7879,-89.3059 L -48.9567,-89.51 L -49.0987,-89.7337 L -49.2115,-89.9734 L -49.2934,-90.2254 L -49.343,-90.4856
 L -49.3596,-90.75 L -49.3596,-125.25 L -49.343,-125.514 L -49.2934,-125.775 L -49.2115,-126.027 L -49.0987,-126.266
 L -48.9567,-126.49 L -48.7879,-126.694 L -48.5947,-126.875 L -48.3804,-127.031 L -48.1482,-127.159 L -47.9019,-127.256
 L -47.6453,-127.322 L -47.3825,-127.355 L 47.3825,-127.355 L 47.6453,-127.322 L 47.9019,-127.256 L 48.1482,-127.159
 L 48.3804,-127.031 L 48.5947,-126.875 L 48.7879,-126.694 L 48.9567,-126.49 L 49.0987,-126.266 L 49.2115,-126.027
 L 49.2934,-125.775 L 49.343,-125.514 L 49.3596,-125.25 L 49.3596,-90.75 L 49.343,-90.4856 L 49.2934,-90.2254
 L 49.2115,-89.9734 L 49.0987,-89.7337 L 48.9567,-89.51 L 48.7879,-89.3059 L 48.5947,-89.1245 L 48.3804,-88.9688
 L 48.1482,-88.8412 L 47.9019,-88.7436 L 47.6453,-88.6777 L 47.3825,-88.6445 z
" stroke="black" fill="lightgray" stroke-width="0.5"/>
</svg>
