solid OpenSCAD_Model
  facet normal 1 -0 0
    outer loop
      vertex -17.5 1.49704 8.90581
      vertex -17.5 5 2
      vertex -17.5 5 15
    endloop
  endfacet
  facet normal 1 0 0
    outer loop
      vertex -17.5 1.49704 8.90581
      vertex -17.5 5 15
      vertex -17.5 1.49704 9.09418
    endloop
  endfacet
  facet normal 1 0 0
    outer loop
      vertex -17.5 5 15
      vertex -17.5 1.47343 9.28107
      vertex -17.5 1.49704 9.09418
    endloop
  endfacet
  facet normal 1 0 0
    outer loop
      vertex -17.5 5 15
      vertex -17.5 1.42658 9.46352
      vertex -17.5 1.47343 9.28107
    endloop
  endfacet
  facet normal 1 0 0
    outer loop
      vertex -17.5 5 15
      vertex -17.5 1.35724 9.63867
      vertex -17.5 1.42658 9.46352
    endloop
  endfacet
  facet normal 1 0 0
    outer loop
      vertex -17.5 5 15
      vertex -17.5 1.26649 9.80374
      vertex -17.5 1.35724 9.63867
    endloop
  endfacet
  facet normal 1 0 0
    outer loop
      vertex -17.5 5 15
      vertex -17.5 1.15577 9.95614
      vertex -17.5 1.26649 9.80374
    endloop
  endfacet
  facet normal 1 0 0
    outer loop
      vertex -17.5 5 15
      vertex -17.5 1.02682 10.0935
      vertex -17.5 1.15577 9.95614
    endloop
  endfacet
  facet normal 1 0 0
    outer loop
      vertex -17.5 5 15
      vertex -17.5 0.881678 10.2135
      vertex -17.5 1.02682 10.0935
    endloop
  endfacet
  facet normal 1 0 0
    outer loop
      vertex -17.5 5 15
      vertex -17.5 0.722631 10.3145
      vertex -17.5 0.881678 10.2135
    endloop
  endfacet
  facet normal 1 0 0
    outer loop
      vertex -17.5 5 15
      vertex -17.5 0.552186 10.3947
      vertex -17.5 0.722631 10.3145
    endloop
  endfacet
  facet normal 1 0 0
    outer loop
      vertex -17.5 5 15
      vertex -17.5 0.373034 10.4529
      vertex -17.5 0.552186 10.3947
    endloop
  endfacet
  facet normal 1 0 0
    outer loop
      vertex -17.5 5 15
      vertex -17.5 0.188 10.4882
      vertex -17.5 0.373034 10.4529
    endloop
  endfacet
  facet normal 1 0 0
    outer loop
      vertex -17.5 5 15
      vertex -17.5 0 10.5
      vertex -17.5 0.188 10.4882
    endloop
  endfacet
  facet normal 1 -0 0
    outer loop
      vertex -17.5 -5 15
      vertex -17.5 0 10.5
      vertex -17.5 5 15
    endloop
  endfacet
  facet normal 1 0 0
    outer loop
      vertex -17.5 0 10.5
      vertex -17.5 -5 15
      vertex -17.5 -0.188 10.4882
    endloop
  endfacet
  facet normal 1 0 0
    outer loop
      vertex -17.5 -0.188 10.4882
      vertex -17.5 -5 15
      vertex -17.5 -0.373034 10.4529
    endloop
  endfacet
  facet normal 1 0 0
    outer loop
      vertex -17.5 -0.373034 10.4529
      vertex -17.5 -5 15
      vertex -17.5 -0.552186 10.3947
    endloop
  endfacet
  facet normal 1 0 0
    outer loop
      vertex -17.5 -0.552186 10.3947
      vertex -17.5 -5 15
      vertex -17.5 -0.722631 10.3145
    endloop
  endfacet
  facet normal 1 0 0
    outer loop
      vertex -17.5 -5 15
      vertex -17.5 -1.49704 8.90581
      vertex -17.5 -1.49704 9.09418
    endloop
  endfacet
  facet normal 1 0 0
    outer loop
      vertex -17.5 -5 15
      vertex -17.5 -1.49704 9.09418
      vertex -17.5 -1.47343 9.28107
    endloop
  endfacet
  facet normal 1 0 0
    outer loop
      vertex -17.5 -5 15
      vertex -17.5 -1.47343 9.28107
      vertex -17.5 -1.42658 9.46352
    endloop
  endfacet
  facet normal 1 0 0
    outer loop
      vertex -17.5 -0.722631 10.3145
      vertex -17.5 -5 15
      vertex -17.5 -0.881678 10.2135
    endloop
  endfacet
  facet normal 1 0 0
    outer loop
      vertex -17.5 -5 15
      vertex -17.5 -1.02682 10.0935
      vertex -17.5 -0.881678 10.2135
    endloop
  endfacet
  facet normal 1 0 0
    outer loop
      vertex -17.5 -5 15
      vertex -17.5 -1.15577 9.95614
      vertex -17.5 -1.02682 10.0935
    endloop
  endfacet
  facet normal 1 0 0
    outer loop
      vertex -17.5 -5 15
      vertex -17.5 -1.26649 9.80374
      vertex -17.5 -1.15577 9.95614
    endloop
  endfacet
  facet normal 1 0 0
    outer loop
      vertex -17.5 -5 15
      vertex -17.5 -1.35724 9.63867
      vertex -17.5 -1.26649 9.80374
    endloop
  endfacet
  facet normal 1 0 0
    outer loop
      vertex -17.5 -5 15
      vertex -17.5 -1.42658 9.46352
      vertex -17.5 -1.35724 9.63867
    endloop
  endfacet
  facet normal 1 0 0
    outer loop
      vertex -17.5 -1.49704 8.90581
      vertex -17.5 -5 15
      vertex -17.5 -5 2
    endloop
  endfacet
  facet normal 1 0 0
    outer loop
      vertex -17.5 -1.49704 8.90581
      vertex -17.5 -5 2
      vertex -17.5 -4 2
    endloop
  endfacet
  facet normal 1 -0 0
    outer loop
      vertex -17.5 1.47343 8.71893
      vertex -17.5 5 2
      vertex -17.5 1.49704 8.90581
    endloop
  endfacet
  facet normal 1 -0 0
    outer loop
      vertex -17.5 1.42658 8.53647
      vertex -17.5 5 2
      vertex -17.5 1.47343 8.71893
    endloop
  endfacet
  facet normal 1 -0 0
    outer loop
      vertex -17.5 1.35724 8.36133
      vertex -17.5 5 2
      vertex -17.5 1.42658 8.53647
    endloop
  endfacet
  facet normal 1 -0 0
    outer loop
      vertex -17.5 1.26649 8.19626
      vertex -17.5 5 2
      vertex -17.5 1.35724 8.36133
    endloop
  endfacet
  facet normal 1 0 0
    outer loop
      vertex -17.5 5 2
      vertex -17.5 1.26649 8.19626
      vertex -17.5 4 2
    endloop
  endfacet
  facet normal 1 -0 0
    outer loop
      vertex -17.5 1.15577 8.04386
      vertex -17.5 4 2
      vertex -17.5 1.26649 8.19626
    endloop
  endfacet
  facet normal 1 -0 0
    outer loop
      vertex -17.5 1.02682 7.90655
      vertex -17.5 4 2
      vertex -17.5 1.15577 8.04386
    endloop
  endfacet
  facet normal 1 -0 0
    outer loop
      vertex -17.5 0.881678 7.78647
      vertex -17.5 4 2
      vertex -17.5 1.02682 7.90655
    endloop
  endfacet
  facet normal 1 -0 0
    outer loop
      vertex -17.5 0.722631 7.68554
      vertex -17.5 4 2
      vertex -17.5 0.881678 7.78647
    endloop
  endfacet
  facet normal 1 -0 0
    outer loop
      vertex -17.5 0.552186 7.60534
      vertex -17.5 4 2
      vertex -17.5 0.722631 7.68554
    endloop
  endfacet
  facet normal 1 -0 0
    outer loop
      vertex -17.5 0.373034 7.54712
      vertex -17.5 4 2
      vertex -17.5 0.552186 7.60534
    endloop
  endfacet
  facet normal 1 -0 0
    outer loop
      vertex -17.5 0.188 7.51183
      vertex -17.5 4 2
      vertex -17.5 0.373034 7.54712
    endloop
  endfacet
  facet normal 1 -0 0
    outer loop
      vertex -17.5 0 7.5
      vertex -17.5 4 2
      vertex -17.5 0.188 7.51183
    endloop
  endfacet
  facet normal 1 0 0
    outer loop
      vertex -17.5 -4 2
      vertex -17.5 0 7.5
      vertex -17.5 -0.188 7.51183
    endloop
  endfacet
  facet normal 1 0 0
    outer loop
      vertex -17.5 -4 2
      vertex -17.5 -0.188 7.51183
      vertex -17.5 -0.373034 7.54712
    endloop
  endfacet
  facet normal 1 0 0
    outer loop
      vertex -17.5 -4 2
      vertex -17.5 -0.373034 7.54712
      vertex -17.5 -0.552186 7.60534
    endloop
  endfacet
  facet normal 1 0 0
    outer loop
      vertex -17.5 -4 2
      vertex -17.5 -0.552186 7.60534
      vertex -17.5 -0.722631 7.68554
    endloop
  endfacet
  facet normal 1 0 0
    outer loop
      vertex -17.5 -4 2
      vertex -17.5 -0.722631 7.68554
      vertex -17.5 -0.881678 7.78647
    endloop
  endfacet
  facet normal 1 0 0
    outer loop
      vertex -17.5 -4 2
      vertex -17.5 -0.881678 7.78647
      vertex -17.5 -1.02682 7.90655
    endloop
  endfacet
  facet normal 1 0 0
    outer loop
      vertex -17.5 -4 2
      vertex -17.5 -1.02682 7.90655
      vertex -17.5 -1.15577 8.04386
    endloop
  endfacet
  facet normal 1 0 0
    outer loop
      vertex -17.5 0 7.5
      vertex -17.5 -4 2
      vertex -17.5 4 2
    endloop
  endfacet
  facet normal 1 0 0
    outer loop
      vertex -17.5 -1.26649 8.19626
      vertex -17.5 -4 2
      vertex -17.5 -1.15577 8.04386
    endloop
  endfacet
  facet normal 1 0 0
    outer loop
      vertex -17.5 -1.35724 8.36133
      vertex -17.5 -4 2
      vertex -17.5 -1.26649 8.19626
    endloop
  endfacet
  facet normal 1 0 0
    outer loop
      vertex -17.5 -1.42658 8.53647
      vertex -17.5 -4 2
      vertex -17.5 -1.35724 8.36133
    endloop
  endfacet
  facet normal 1 0 0
    outer loop
      vertex -17.5 -1.47343 8.71893
      vertex -17.5 -4 2
      vertex -17.5 -1.42658 8.53647
    endloop
  endfacet
  facet normal 1 0 0
    outer loop
      vertex -17.5 -4 2
      vertex -17.5 -1.47343 8.71893
      vertex -17.5 -1.49704 8.90581
    endloop
  endfacet
  facet normal 0 0 1
    outer loop
      vertex 17.5 5 2
      vertex 16.5 4 2
      vertex 17.5 -5 2
    endloop
  endfacet
  facet normal -0 0 1
    outer loop
      vertex -17.5 5 2
      vertex 16.5 4 2
      vertex 17.5 5 2
    endloop
  endfacet
  facet normal 0 0 1
    outer loop
      vertex 16.5 4 2
      vertex -17.5 5 2
      vertex -17.5 4 2
    endloop
  endfacet
  facet normal -0 0 1
    outer loop
      vertex 16.5 -4 2
      vertex 17.5 -5 2
      vertex 16.5 4 2
    endloop
  endfacet
  facet normal 0 0 1
    outer loop
      vertex -17.5 -5 2
      vertex 16.5 -4 2
      vertex -17.5 -4 2
    endloop
  endfacet
  facet normal 0 0 1
    outer loop
      vertex 16.5 -4 2
      vertex -17.5 -5 2
      vertex 17.5 -5 2
    endloop
  endfacet
  facet normal 1 -0 0
    outer loop
      vertex 17.5 -5 2
      vertex 17.5 5 0
      vertex 17.5 5 2
    endloop
  endfacet
  facet normal 1 0 0
    outer loop
      vertex 17.5 5 0
      vertex 17.5 -5 2
      vertex 17.5 -5 0
    endloop
  endfacet
  facet normal 0 1 0
    outer loop
      vertex 17.5 5 2
      vertex 17.5 5 0
      vertex -17.5 5 2
    endloop
  endfacet
  facet normal 0 1 -0
    outer loop
      vertex -17.5 5 2
      vertex -20.5 5 15
      vertex -17.5 5 15
    endloop
  endfacet
  facet normal 0 1 0
    outer loop
      vertex -17.5 5 2
      vertex -20.5 5 0
      vertex -20.5 5 15
    endloop
  endfacet
  facet normal 0 1 0
    outer loop
      vertex -20.5 5 0
      vertex -17.5 5 2
      vertex 17.5 5 0
    endloop
  endfacet
  facet normal 0 0 -1
    outer loop
      vertex 17.5 -5 0
      vertex 15.5 -3 0
      vertex 17.5 5 0
    endloop
  endfacet
  facet normal 0 0 -1
    outer loop
      vertex 17.5 -5 0
      vertex -15.5 -3 0
      vertex 15.5 -3 0
    endloop
  endfacet
  facet normal -0 0 -1
    outer loop
      vertex -15.5 -3 0
      vertex -20.5 -5 0
      vertex -15.5 3 0
    endloop
  endfacet
  facet normal 0 0 -1
    outer loop
      vertex -20.5 -5 0
      vertex -15.5 -3 0
      vertex 17.5 -5 0
    endloop
  endfacet
  facet normal 0 0 -1
    outer loop
      vertex 15.5 3 0
      vertex 17.5 5 0
      vertex 15.5 -3 0
    endloop
  endfacet
  facet normal 0 0 -1
    outer loop
      vertex -15.5 3 0
      vertex 17.5 5 0
      vertex 15.5 3 0
    endloop
  endfacet
  facet normal 0 0 -1
    outer loop
      vertex -15.5 3 0
      vertex -20.5 5 0
      vertex 17.5 5 0
    endloop
  endfacet
  facet normal 0 0 -1
    outer loop
      vertex -20.5 5 0
      vertex -15.5 3 0
      vertex -20.5 -5 0
    endloop
  endfacet
  facet normal 0 -1 0
    outer loop
      vertex -20.5 -5 15
      vertex -17.5 -5 2
      vertex -17.5 -5 15
    endloop
  endfacet
  facet normal 0 -1 0
    outer loop
      vertex -20.5 -5 0
      vertex -17.5 -5 2
      vertex -20.5 -5 15
    endloop
  endfacet
  facet normal 0 -1 0
    outer loop
      vertex 17.5 -5 0
      vertex -17.5 -5 2
      vertex -20.5 -5 0
    endloop
  endfacet
  facet normal 0 -1 0
    outer loop
      vertex -17.5 -5 2
      vertex 17.5 -5 0
      vertex 17.5 -5 2
    endloop
  endfacet
  facet normal -1 0 0
    outer loop
      vertex -20.5 1.47343 8.71893
      vertex -20.5 5 15
      vertex -20.5 5 0
    endloop
  endfacet
  facet normal -1 0 0
    outer loop
      vertex -20.5 5 15
      vertex -20.5 1.47343 8.71893
      vertex -20.5 1.49704 8.90581
    endloop
  endfacet
  facet normal -1 0 0
    outer loop
      vertex -20.5 5 0
      vertex -20.5 1.42658 8.53647
      vertex -20.5 1.47343 8.71893
    endloop
  endfacet
  facet normal -1 0 0
    outer loop
      vertex -20.5 5 0
      vertex -20.5 1.35724 8.36133
      vertex -20.5 1.42658 8.53647
    endloop
  endfacet
  facet normal -1 0 0
    outer loop
      vertex -20.5 5 0
      vertex -20.5 1.26649 8.19626
      vertex -20.5 1.35724 8.36133
    endloop
  endfacet
  facet normal -1 0 0
    outer loop
      vertex -20.5 5 0
      vertex -20.5 1.15577 8.04386
      vertex -20.5 1.26649 8.19626
    endloop
  endfacet
  facet normal -1 0 0
    outer loop
      vertex -20.5 5 0
      vertex -20.5 1.02682 7.90655
      vertex -20.5 1.15577 8.04386
    endloop
  endfacet
  facet normal -1 0 0
    outer loop
      vertex -20.5 5 0
      vertex -20.5 0.881678 7.78647
      vertex -20.5 1.02682 7.90655
    endloop
  endfacet
  facet normal -1 0 0
    outer loop
      vertex -20.5 5 0
      vertex -20.5 0.722631 7.68554
      vertex -20.5 0.881678 7.78647
    endloop
  endfacet
  facet normal -1 0 0
    outer loop
      vertex -20.5 5 0
      vertex -20.5 0.552186 7.60534
      vertex -20.5 0.722631 7.68554
    endloop
  endfacet
  facet normal -1 0 0
    outer loop
      vertex -20.5 5 0
      vertex -20.5 0.373034 7.54712
      vertex -20.5 0.552186 7.60534
    endloop
  endfacet
  facet normal -1 0 0
    outer loop
      vertex -20.5 5 0
      vertex -20.5 0.188 7.51183
      vertex -20.5 0.373034 7.54712
    endloop
  endfacet
  facet normal -1 0 0
    outer loop
      vertex -20.5 5 0
      vertex -20.5 0 7.5
      vertex -20.5 0.188 7.51183
    endloop
  endfacet
  facet normal -1 0 0
    outer loop
      vertex -20.5 -5 0
      vertex -20.5 0 7.5
      vertex -20.5 5 0
    endloop
  endfacet
  facet normal -1 -0 0
    outer loop
      vertex -20.5 0 7.5
      vertex -20.5 -5 0
      vertex -20.5 -0.188 7.51183
    endloop
  endfacet
  facet normal -1 -0 0
    outer loop
      vertex -20.5 -0.188 7.51183
      vertex -20.5 -5 0
      vertex -20.5 -0.373034 7.54712
    endloop
  endfacet
  facet normal -1 -0 0
    outer loop
      vertex -20.5 -0.373034 7.54712
      vertex -20.5 -5 0
      vertex -20.5 -0.552186 7.60534
    endloop
  endfacet
  facet normal -1 -0 0
    outer loop
      vertex -20.5 -0.552186 7.60534
      vertex -20.5 -5 0
      vertex -20.5 -0.722631 7.68554
    endloop
  endfacet
  facet normal -1 -0 0
    outer loop
      vertex -20.5 -0.722631 7.68554
      vertex -20.5 -5 0
      vertex -20.5 -0.881678 7.78647
    endloop
  endfacet
  facet normal -1 -0 0
    outer loop
      vertex -20.5 -0.881678 7.78647
      vertex -20.5 -5 0
      vertex -20.5 -1.02682 7.90655
    endloop
  endfacet
  facet normal -1 0 0
    outer loop
      vertex -20.5 -1.47343 8.71893
      vertex -20.5 -5 15
      vertex -20.5 -1.49704 8.90581
    endloop
  endfacet
  facet normal -1 0 0
    outer loop
      vertex -20.5 -5 15
      vertex -20.5 -1.47343 8.71893
      vertex -20.5 -5 0
    endloop
  endfacet
  facet normal -1 -0 0
    outer loop
      vertex -20.5 -1.42658 8.53647
      vertex -20.5 -5 0
      vertex -20.5 -1.47343 8.71893
    endloop
  endfacet
  facet normal -1 -0 0
    outer loop
      vertex -20.5 -1.35724 8.36133
      vertex -20.5 -5 0
      vertex -20.5 -1.42658 8.53647
    endloop
  endfacet
  facet normal -1 -0 0
    outer loop
      vertex -20.5 -1.26649 8.19626
      vertex -20.5 -5 0
      vertex -20.5 -1.35724 8.36133
    endloop
  endfacet
  facet normal -1 -0 0
    outer loop
      vertex -20.5 -1.15577 8.04386
      vertex -20.5 -5 0
      vertex -20.5 -1.26649 8.19626
    endloop
  endfacet
  facet normal -1 -0 0
    outer loop
      vertex -20.5 -1.02682 7.90655
      vertex -20.5 -5 0
      vertex -20.5 -1.15577 8.04386
    endloop
  endfacet
  facet normal -1 0 0
    outer loop
      vertex -20.5 1.49704 9.09418
      vertex -20.5 5 15
      vertex -20.5 1.49704 8.90581
    endloop
  endfacet
  facet normal -1 0 0
    outer loop
      vertex -20.5 1.47343 9.28107
      vertex -20.5 5 15
      vertex -20.5 1.49704 9.09418
    endloop
  endfacet
  facet normal -1 0 0
    outer loop
      vertex -20.5 1.42658 9.46352
      vertex -20.5 5 15
      vertex -20.5 1.47343 9.28107
    endloop
  endfacet
  facet normal -1 0 0
    outer loop
      vertex -20.5 1.35724 9.63867
      vertex -20.5 5 15
      vertex -20.5 1.42658 9.46352
    endloop
  endfacet
  facet normal -1 0 0
    outer loop
      vertex -20.5 1.26649 9.80374
      vertex -20.5 5 15
      vertex -20.5 1.35724 9.63867
    endloop
  endfacet
  facet normal -1 0 0
    outer loop
      vertex -20.5 1.15577 9.95614
      vertex -20.5 5 15
      vertex -20.5 1.26649 9.80374
    endloop
  endfacet
  facet normal -1 0 0
    outer loop
      vertex -20.5 1.02682 10.0935
      vertex -20.5 5 15
      vertex -20.5 1.15577 9.95614
    endloop
  endfacet
  facet normal -1 0 0
    outer loop
      vertex -20.5 0.881678 10.2135
      vertex -20.5 5 15
      vertex -20.5 1.02682 10.0935
    endloop
  endfacet
  facet normal -1 0 0
    outer loop
      vertex -20.5 0.722631 10.3145
      vertex -20.5 5 15
      vertex -20.5 0.881678 10.2135
    endloop
  endfacet
  facet normal -1 0 0
    outer loop
      vertex -20.5 0.552186 10.3947
      vertex -20.5 5 15
      vertex -20.5 0.722631 10.3145
    endloop
  endfacet
  facet normal -1 0 0
    outer loop
      vertex -20.5 0.373034 10.4529
      vertex -20.5 5 15
      vertex -20.5 0.552186 10.3947
    endloop
  endfacet
  facet normal -1 0 0
    outer loop
      vertex -20.5 0.188 10.4882
      vertex -20.5 5 15
      vertex -20.5 0.373034 10.4529
    endloop
  endfacet
  facet normal -1 0 0
    outer loop
      vertex -20.5 0 10.5
      vertex -20.5 5 15
      vertex -20.5 0.188 10.4882
    endloop
  endfacet
  facet normal -1 0 0
    outer loop
      vertex -20.5 -5 15
      vertex -20.5 0 10.5
      vertex -20.5 -0.188 10.4882
    endloop
  endfacet
  facet normal -1 0 0
    outer loop
      vertex -20.5 -5 15
      vertex -20.5 -0.188 10.4882
      vertex -20.5 -0.373034 10.4529
    endloop
  endfacet
  facet normal -1 0 0
    outer loop
      vertex -20.5 -5 15
      vertex -20.5 -0.373034 10.4529
      vertex -20.5 -0.552186 10.3947
    endloop
  endfacet
  facet normal -1 0 0
    outer loop
      vertex -20.5 -5 15
      vertex -20.5 -0.552186 10.3947
      vertex -20.5 -0.722631 10.3145
    endloop
  endfacet
  facet normal -1 0 0
    outer loop
      vertex -20.5 -5 15
      vertex -20.5 -0.722631 10.3145
      vertex -20.5 -0.881678 10.2135
    endloop
  endfacet
  facet normal -1 0 0
    outer loop
      vertex -20.5 -1.49704 8.90581
      vertex -20.5 -5 15
      vertex -20.5 -1.49704 9.09418
    endloop
  endfacet
  facet normal -1 0 0
    outer loop
      vertex -20.5 -1.49704 9.09418
      vertex -20.5 -5 15
      vertex -20.5 -1.47343 9.28107
    endloop
  endfacet
  facet normal -1 0 0
    outer loop
      vertex -20.5 0 10.5
      vertex -20.5 -5 15
      vertex -20.5 5 15
    endloop
  endfacet
  facet normal -1 0 0
    outer loop
      vertex -20.5 -1.02682 10.0935
      vertex -20.5 -5 15
      vertex -20.5 -0.881678 10.2135
    endloop
  endfacet
  facet normal -1 0 0
    outer loop
      vertex -20.5 -1.15577 9.95614
      vertex -20.5 -5 15
      vertex -20.5 -1.02682 10.0935
    endloop
  endfacet
  facet normal -1 0 0
    outer loop
      vertex -20.5 -1.26649 9.80374
      vertex -20.5 -5 15
      vertex -20.5 -1.15577 9.95614
    endloop
  endfacet
  facet normal -1 0 0
    outer loop
      vertex -20.5 -1.35724 9.63867
      vertex -20.5 -5 15
      vertex -20.5 -1.26649 9.80374
    endloop
  endfacet
  facet normal -1 0 0
    outer loop
      vertex -20.5 -1.42658 9.46352
      vertex -20.5 -5 15
      vertex -20.5 -1.35724 9.63867
    endloop
  endfacet
  facet normal -1 0 0
    outer loop
      vertex -20.5 -1.47343 9.28107
      vertex -20.5 -5 15
      vertex -20.5 -1.42658 9.46352
    endloop
  endfacet
  facet normal -0 0 1
    outer loop
      vertex -20.5 5 15
      vertex -17.5 -5 15
      vertex -17.5 5 15
    endloop
  endfacet
  facet normal 0 0 1
    outer loop
      vertex -17.5 -5 15
      vertex -20.5 5 15
      vertex -20.5 -5 15
    endloop
  endfacet
  facet normal 1 -0 0
    outer loop
      vertex -15.5 -3 1
      vertex -15.5 3 0
      vertex -15.5 3 1
    endloop
  endfacet
  facet normal 1 0 0
    outer loop
      vertex -15.5 3 0
      vertex -15.5 -3 1
      vertex -15.5 -3 0
    endloop
  endfacet
  facet normal -1 0 0
    outer loop
      vertex 15.5 -3 0
      vertex 15.5 3 1
      vertex 15.5 3 0
    endloop
  endfacet
  facet normal -1 -0 0
    outer loop
      vertex 15.5 3 1
      vertex 15.5 -3 0
      vertex 15.5 -3 1
    endloop
  endfacet
  facet normal 0 -1 0
    outer loop
      vertex -15.5 3 0
      vertex 15.5 3 1
      vertex -15.5 3 1
    endloop
  endfacet
  facet normal 0 -1 -0
    outer loop
      vertex 15.5 3 1
      vertex -15.5 3 0
      vertex 15.5 3 0
    endloop
  endfacet
  facet normal 0 1 -0
    outer loop
      vertex 15.5 -3 0
      vertex -15.5 -3 1
      vertex 15.5 -3 1
    endloop
  endfacet
  facet normal 0 1 0
    outer loop
      vertex -15.5 -3 1
      vertex 15.5 -3 0
      vertex -15.5 -3 0
    endloop
  endfacet
  facet normal 1 -0 0
    outer loop
      vertex -17.5 -4 2
      vertex -17.5 4 1
      vertex -17.5 4 2
    endloop
  endfacet
  facet normal 1 0 0
    outer loop
      vertex -17.5 4 1
      vertex -17.5 -4 2
      vertex -17.5 -4 1
    endloop
  endfacet
  facet normal -1 0 0
    outer loop
      vertex 16.5 -4 1
      vertex 16.5 4 2
      vertex 16.5 4 1
    endloop
  endfacet
  facet normal -1 -0 0
    outer loop
      vertex 16.5 4 2
      vertex 16.5 -4 1
      vertex 16.5 -4 2
    endloop
  endfacet
  facet normal 0 -1 0
    outer loop
      vertex -17.5 4 1
      vertex 16.5 4 2
      vertex -17.5 4 2
    endloop
  endfacet
  facet normal 0 -1 -0
    outer loop
      vertex 16.5 4 2
      vertex -17.5 4 1
      vertex 16.5 4 1
    endloop
  endfacet
  facet normal 0 0 1
    outer loop
      vertex 16.5 4 1
      vertex 15.5 3 1
      vertex 16.5 -4 1
    endloop
  endfacet
  facet normal 0 0 1
    outer loop
      vertex 16.5 4 1
      vertex -15.5 3 1
      vertex 15.5 3 1
    endloop
  endfacet
  facet normal 0 0 1
    outer loop
      vertex -15.5 3 1
      vertex -17.5 4 1
      vertex -15.5 -3 1
    endloop
  endfacet
  facet normal -0 0 1
    outer loop
      vertex -17.5 4 1
      vertex -15.5 3 1
      vertex 16.5 4 1
    endloop
  endfacet
  facet normal -0 0 1
    outer loop
      vertex 15.5 -3 1
      vertex 16.5 -4 1
      vertex 15.5 3 1
    endloop
  endfacet
  facet normal -0 0 1
    outer loop
      vertex -15.5 -3 1
      vertex 16.5 -4 1
      vertex 15.5 -3 1
    endloop
  endfacet
  facet normal 0 0 1
    outer loop
      vertex -15.5 -3 1
      vertex -17.5 -4 1
      vertex 16.5 -4 1
    endloop
  endfacet
  facet normal 0 0 1
    outer loop
      vertex -17.5 -4 1
      vertex -15.5 -3 1
      vertex -17.5 4 1
    endloop
  endfacet
  facet normal 0 1 -0
    outer loop
      vertex 16.5 -4 1
      vertex -17.5 -4 2
      vertex 16.5 -4 2
    endloop
  endfacet
  facet normal 0 1 0
    outer loop
      vertex -17.5 -4 2
      vertex 16.5 -4 1
      vertex -17.5 -4 1
    endloop
  endfacet
  facet normal 0 -0.0628013 0.998026
    outer loop
      vertex -20.5 0.188 7.51183
      vertex -17.5 0 7.5
      vertex -17.5 0.188 7.51183
    endloop
  endfacet
  facet normal 0 -0.0628013 0.998026
    outer loop
      vertex -17.5 0 7.5
      vertex -20.5 0.188 7.51183
      vertex -20.5 0 7.5
    endloop
  endfacet
  facet normal 0 -0.0626427 -0.998036
    outer loop
      vertex -20.5 0 10.5
      vertex -17.5 0.188 10.4882
      vertex -17.5 0 10.5
    endloop
  endfacet
  facet normal -0 -0.0626427 -0.998036
    outer loop
      vertex -17.5 0.188 10.4882
      vertex -20.5 0 10.5
      vertex -20.5 0.188 10.4882
    endloop
  endfacet
  facet normal 0 -1 0
    outer loop
      vertex -20.5 1.49704 8.90581
      vertex -17.5 1.49704 9.09418
      vertex -20.5 1.49704 9.09418
    endloop
  endfacet
  facet normal 0 -1 -0
    outer loop
      vertex -17.5 1.49704 9.09418
      vertex -20.5 1.49704 8.90581
      vertex -17.5 1.49704 8.90581
    endloop
  endfacet
  facet normal 0 1 -0
    outer loop
      vertex -17.5 -1.49704 8.90581
      vertex -20.5 -1.49704 9.09418
      vertex -17.5 -1.49704 9.09418
    endloop
  endfacet
  facet normal 0 1 0
    outer loop
      vertex -20.5 -1.49704 9.09418
      vertex -17.5 -1.49704 8.90581
      vertex -20.5 -1.49704 8.90581
    endloop
  endfacet
  facet normal 0 -0.729074 -0.684435
    outer loop
      vertex -20.5 1.15577 9.95614
      vertex -17.5 1.02682 10.0935
      vertex -20.5 1.02682 10.0935
    endloop
  endfacet
  facet normal 0 -0.729074 -0.684435
    outer loop
      vertex -17.5 1.02682 10.0935
      vertex -20.5 1.15577 9.95614
      vertex -17.5 1.15577 9.95614
    endloop
  endfacet
  facet normal 0 -0.929789 -0.368093
    outer loop
      vertex -20.5 1.42658 9.46352
      vertex -17.5 1.35724 9.63867
      vertex -20.5 1.35724 9.63867
    endloop
  endfacet
  facet normal 0 -0.929789 -0.368093
    outer loop
      vertex -17.5 1.35724 9.63867
      vertex -20.5 1.42658 9.46352
      vertex -17.5 1.42658 9.46352
    endloop
  endfacet
  facet normal 0 -0.187345 0.982294
    outer loop
      vertex -20.5 0.373034 7.54712
      vertex -17.5 0.188 7.51183
      vertex -17.5 0.373034 7.54712
    endloop
  endfacet
  facet normal 0 -0.187345 0.982294
    outer loop
      vertex -17.5 0.188 7.51183
      vertex -20.5 0.373034 7.54712
      vertex -20.5 0.188 7.51183
    endloop
  endfacet
  facet normal 0 -0.96858 0.248701
    outer loop
      vertex -20.5 1.42658 8.53647
      vertex -17.5 1.47343 8.71893
      vertex -20.5 1.47343 8.71893
    endloop
  endfacet
  facet normal 0 -0.96858 0.248701
    outer loop
      vertex -17.5 1.47343 8.71893
      vertex -20.5 1.42658 8.53647
      vertex -17.5 1.42658 8.53647
    endloop
  endfacet
  facet normal 0 -0.425756 -0.904838
    outer loop
      vertex -20.5 0.552186 10.3947
      vertex -17.5 0.722631 10.3145
      vertex -17.5 0.552186 10.3947
    endloop
  endfacet
  facet normal -0 -0.425756 -0.904838
    outer loop
      vertex -17.5 0.722631 10.3145
      vertex -20.5 0.552186 10.3947
      vertex -20.5 0.722631 10.3145
    endloop
  endfacet
  facet normal 0 -0.536075 -0.84417
    outer loop
      vertex -20.5 0.722631 10.3145
      vertex -17.5 0.881678 10.2135
      vertex -17.5 0.722631 10.3145
    endloop
  endfacet
  facet normal -0 -0.536075 -0.84417
    outer loop
      vertex -17.5 0.881678 10.2135
      vertex -20.5 0.722631 10.3145
      vertex -20.5 0.881678 10.2135
    endloop
  endfacet
  facet normal 0 -0.308969 -0.951072
    outer loop
      vertex -20.5 0.373034 10.4529
      vertex -17.5 0.552186 10.3947
      vertex -17.5 0.373034 10.4529
    endloop
  endfacet
  facet normal -0 -0.308969 -0.951072
    outer loop
      vertex -17.5 0.552186 10.3947
      vertex -20.5 0.373034 10.4529
      vertex -20.5 0.552186 10.3947
    endloop
  endfacet
  facet normal 0 -0.80903 -0.587768
    outer loop
      vertex -20.5 1.26649 9.80374
      vertex -17.5 1.15577 9.95614
      vertex -20.5 1.15577 9.95614
    endloop
  endfacet
  facet normal 0 -0.80903 -0.587768
    outer loop
      vertex -17.5 1.15577 9.95614
      vertex -20.5 1.26649 9.80374
      vertex -17.5 1.26649 9.80374
    endloop
  endfacet
  facet normal 0 -0.992115 -0.125335
    outer loop
      vertex -20.5 1.49704 9.09418
      vertex -17.5 1.47343 9.28107
      vertex -20.5 1.47343 9.28107
    endloop
  endfacet
  facet normal 0 -0.992115 -0.125335
    outer loop
      vertex -17.5 1.47343 9.28107
      vertex -20.5 1.49704 9.09418
      vertex -17.5 1.49704 9.09418
    endloop
  endfacet
  facet normal 0 0.992114 0.125341
    outer loop
      vertex -17.5 -1.47343 8.71893
      vertex -20.5 -1.49704 8.90581
      vertex -17.5 -1.49704 8.90581
    endloop
  endfacet
  facet normal 0 0.992114 0.125341
    outer loop
      vertex -20.5 -1.49704 8.90581
      vertex -17.5 -1.47343 8.71893
      vertex -20.5 -1.47343 8.71893
    endloop
  endfacet
  facet normal 0 -0.309065 0.951041
    outer loop
      vertex -20.5 0.552186 7.60534
      vertex -17.5 0.373034 7.54712
      vertex -17.5 0.552186 7.60534
    endloop
  endfacet
  facet normal 0 -0.309065 0.951041
    outer loop
      vertex -17.5 0.373034 7.54712
      vertex -20.5 0.552186 7.60534
      vertex -20.5 0.373034 7.54712
    endloop
  endfacet
  facet normal 0 -0.728949 0.684568
    outer loop
      vertex -20.5 1.02682 7.90655
      vertex -17.5 1.15577 8.04386
      vertex -20.5 1.15577 8.04386
    endloop
  endfacet
  facet normal 0 -0.728949 0.684568
    outer loop
      vertex -17.5 1.15577 8.04386
      vertex -20.5 1.02682 7.90655
      vertex -17.5 1.02682 7.90655
    endloop
  endfacet
  facet normal 0 -0.535811 0.844338
    outer loop
      vertex -20.5 0.881678 7.78647
      vertex -17.5 0.722631 7.68554
      vertex -17.5 0.881678 7.78647
    endloop
  endfacet
  facet normal 0 -0.535811 0.844338
    outer loop
      vertex -17.5 0.722631 7.68554
      vertex -20.5 0.881678 7.78647
      vertex -20.5 0.722631 7.68554
    endloop
  endfacet
  facet normal 0 -0.992114 0.125341
    outer loop
      vertex -20.5 1.47343 8.71893
      vertex -17.5 1.49704 8.90581
      vertex -20.5 1.49704 8.90581
    endloop
  endfacet
  facet normal 0 -0.992114 0.125341
    outer loop
      vertex -17.5 1.49704 8.90581
      vertex -20.5 1.47343 8.71893
      vertex -17.5 1.47343 8.71893
    endloop
  endfacet
  facet normal 0 -0.929782 0.368112
    outer loop
      vertex -20.5 1.35724 8.36133
      vertex -17.5 1.42658 8.53647
      vertex -20.5 1.42658 8.53647
    endloop
  endfacet
  facet normal 0 -0.929782 0.368112
    outer loop
      vertex -17.5 1.42658 8.53647
      vertex -20.5 1.35724 8.36133
      vertex -17.5 1.35724 8.36133
    endloop
  endfacet
  facet normal 0 -0.80903 0.587768
    outer loop
      vertex -20.5 1.15577 8.04386
      vertex -17.5 1.26649 8.19626
      vertex -20.5 1.26649 8.19626
    endloop
  endfacet
  facet normal 0 -0.80903 0.587768
    outer loop
      vertex -17.5 1.26649 8.19626
      vertex -20.5 1.15577 8.04386
      vertex -17.5 1.15577 8.04386
    endloop
  endfacet
  facet normal 0 -0.637197 -0.770701
    outer loop
      vertex -20.5 0.881678 10.2135
      vertex -17.5 1.02682 10.0935
      vertex -17.5 0.881678 10.2135
    endloop
  endfacet
  facet normal -0 -0.637197 -0.770701
    outer loop
      vertex -17.5 1.02682 10.0935
      vertex -20.5 0.881678 10.2135
      vertex -20.5 1.02682 10.0935
    endloop
  endfacet
  facet normal 0 -0.187396 -0.982284
    outer loop
      vertex -20.5 0.188 10.4882
      vertex -17.5 0.373034 10.4529
      vertex -17.5 0.188 10.4882
    endloop
  endfacet
  facet normal -0 -0.187396 -0.982284
    outer loop
      vertex -17.5 0.373034 10.4529
      vertex -20.5 0.188 10.4882
      vertex -20.5 0.373034 10.4529
    endloop
  endfacet
  facet normal -0 0.0628013 0.998026
    outer loop
      vertex -20.5 0 7.5
      vertex -17.5 -0.188 7.51183
      vertex -17.5 0 7.5
    endloop
  endfacet
  facet normal 0 0.0628013 0.998026
    outer loop
      vertex -17.5 -0.188 7.51183
      vertex -20.5 0 7.5
      vertex -20.5 -0.188 7.51183
    endloop
  endfacet
  facet normal 0 0.728949 0.684568
    outer loop
      vertex -17.5 -1.02682 7.90655
      vertex -20.5 -1.15577 8.04386
      vertex -17.5 -1.15577 8.04386
    endloop
  endfacet
  facet normal 0 0.728949 0.684568
    outer loop
      vertex -20.5 -1.15577 8.04386
      vertex -17.5 -1.02682 7.90655
      vertex -20.5 -1.02682 7.90655
    endloop
  endfacet
  facet normal 0 0.637197 -0.770701
    outer loop
      vertex -20.5 -1.02682 10.0935
      vertex -17.5 -0.881678 10.2135
      vertex -17.5 -1.02682 10.0935
    endloop
  endfacet
  facet normal 0 0.637197 -0.770701
    outer loop
      vertex -17.5 -0.881678 10.2135
      vertex -20.5 -1.02682 10.0935
      vertex -20.5 -0.881678 10.2135
    endloop
  endfacet
  facet normal 0 0.425756 -0.904838
    outer loop
      vertex -20.5 -0.722631 10.3145
      vertex -17.5 -0.552186 10.3947
      vertex -17.5 -0.722631 10.3145
    endloop
  endfacet
  facet normal 0 0.425756 -0.904838
    outer loop
      vertex -17.5 -0.552186 10.3947
      vertex -20.5 -0.722631 10.3145
      vertex -20.5 -0.552186 10.3947
    endloop
  endfacet
  facet normal 0 0.929782 0.368112
    outer loop
      vertex -17.5 -1.35724 8.36133
      vertex -20.5 -1.42658 8.53647
      vertex -17.5 -1.42658 8.53647
    endloop
  endfacet
  facet normal 0 0.929782 0.368112
    outer loop
      vertex -20.5 -1.42658 8.53647
      vertex -17.5 -1.35724 8.36133
      vertex -20.5 -1.35724 8.36133
    endloop
  endfacet
  facet normal 0 -0.425756 0.904838
    outer loop
      vertex -20.5 0.722631 7.68554
      vertex -17.5 0.552186 7.60534
      vertex -17.5 0.722631 7.68554
    endloop
  endfacet
  facet normal 0 -0.425756 0.904838
    outer loop
      vertex -17.5 0.552186 7.60534
      vertex -20.5 0.722631 7.68554
      vertex -20.5 0.552186 7.60534
    endloop
  endfacet
  facet normal 0 -0.63745 0.770492
    outer loop
      vertex -20.5 1.02682 7.90655
      vertex -17.5 0.881678 7.78647
      vertex -17.5 1.02682 7.90655
    endloop
  endfacet
  facet normal 0 -0.63745 0.770492
    outer loop
      vertex -17.5 0.881678 7.78647
      vertex -20.5 1.02682 7.90655
      vertex -20.5 0.881678 7.78647
    endloop
  endfacet
  facet normal 0 -0.876302 0.481762
    outer loop
      vertex -20.5 1.26649 8.19626
      vertex -17.5 1.35724 8.36133
      vertex -20.5 1.35724 8.36133
    endloop
  endfacet
  facet normal 0 -0.876302 0.481762
    outer loop
      vertex -17.5 1.35724 8.36133
      vertex -20.5 1.26649 8.19626
      vertex -17.5 1.26649 8.19626
    endloop
  endfacet
  facet normal 0 -0.876302 -0.481762
    outer loop
      vertex -20.5 1.35724 9.63867
      vertex -17.5 1.26649 9.80374
      vertex -20.5 1.26649 9.80374
    endloop
  endfacet
  facet normal 0 -0.876302 -0.481762
    outer loop
      vertex -17.5 1.26649 9.80374
      vertex -20.5 1.35724 9.63867
      vertex -17.5 1.35724 9.63867
    endloop
  endfacet
  facet normal 0 -0.968577 -0.248714
    outer loop
      vertex -20.5 1.47343 9.28107
      vertex -17.5 1.42658 9.46352
      vertex -20.5 1.42658 9.46352
    endloop
  endfacet
  facet normal 0 -0.968577 -0.248714
    outer loop
      vertex -17.5 1.42658 9.46352
      vertex -20.5 1.47343 9.28107
      vertex -17.5 1.47343 9.28107
    endloop
  endfacet
  facet normal -0 0.187345 0.982294
    outer loop
      vertex -20.5 -0.188 7.51183
      vertex -17.5 -0.373034 7.54712
      vertex -17.5 -0.188 7.51183
    endloop
  endfacet
  facet normal 0 0.187345 0.982294
    outer loop
      vertex -17.5 -0.373034 7.54712
      vertex -20.5 -0.188 7.51183
      vertex -20.5 -0.373034 7.54712
    endloop
  endfacet
  facet normal 0 0.876302 0.481762
    outer loop
      vertex -17.5 -1.26649 8.19626
      vertex -20.5 -1.35724 8.36133
      vertex -17.5 -1.35724 8.36133
    endloop
  endfacet
  facet normal 0 0.876302 0.481762
    outer loop
      vertex -20.5 -1.35724 8.36133
      vertex -17.5 -1.26649 8.19626
      vertex -20.5 -1.26649 8.19626
    endloop
  endfacet
  facet normal -0 0.425756 0.904838
    outer loop
      vertex -20.5 -0.552186 7.60534
      vertex -17.5 -0.722631 7.68554
      vertex -17.5 -0.552186 7.60534
    endloop
  endfacet
  facet normal 0 0.425756 0.904838
    outer loop
      vertex -17.5 -0.722631 7.68554
      vertex -20.5 -0.552186 7.60534
      vertex -20.5 -0.722631 7.68554
    endloop
  endfacet
  facet normal -0 0.63745 0.770492
    outer loop
      vertex -20.5 -0.881678 7.78647
      vertex -17.5 -1.02682 7.90655
      vertex -17.5 -0.881678 7.78647
    endloop
  endfacet
  facet normal 0 0.63745 0.770492
    outer loop
      vertex -17.5 -1.02682 7.90655
      vertex -20.5 -0.881678 7.78647
      vertex -20.5 -1.02682 7.90655
    endloop
  endfacet
  facet normal 0 0.929789 -0.368093
    outer loop
      vertex -17.5 -1.42658 9.46352
      vertex -20.5 -1.35724 9.63867
      vertex -17.5 -1.35724 9.63867
    endloop
  endfacet
  facet normal 0 0.929789 -0.368093
    outer loop
      vertex -20.5 -1.35724 9.63867
      vertex -17.5 -1.42658 9.46352
      vertex -20.5 -1.42658 9.46352
    endloop
  endfacet
  facet normal 0 0.729074 -0.684435
    outer loop
      vertex -17.5 -1.15577 9.95614
      vertex -20.5 -1.02682 10.0935
      vertex -17.5 -1.02682 10.0935
    endloop
  endfacet
  facet normal 0 0.729074 -0.684435
    outer loop
      vertex -20.5 -1.02682 10.0935
      vertex -17.5 -1.15577 9.95614
      vertex -20.5 -1.15577 9.95614
    endloop
  endfacet
  facet normal 0 0.96858 0.248701
    outer loop
      vertex -17.5 -1.42658 8.53647
      vertex -20.5 -1.47343 8.71893
      vertex -17.5 -1.47343 8.71893
    endloop
  endfacet
  facet normal 0 0.96858 0.248701
    outer loop
      vertex -20.5 -1.47343 8.71893
      vertex -17.5 -1.42658 8.53647
      vertex -20.5 -1.42658 8.53647
    endloop
  endfacet
  facet normal 0 0.80903 0.587768
    outer loop
      vertex -17.5 -1.15577 8.04386
      vertex -20.5 -1.26649 8.19626
      vertex -17.5 -1.26649 8.19626
    endloop
  endfacet
  facet normal 0 0.80903 0.587768
    outer loop
      vertex -20.5 -1.26649 8.19626
      vertex -17.5 -1.15577 8.04386
      vertex -20.5 -1.15577 8.04386
    endloop
  endfacet
  facet normal -0 0.309065 0.951041
    outer loop
      vertex -20.5 -0.373034 7.54712
      vertex -17.5 -0.552186 7.60534
      vertex -17.5 -0.373034 7.54712
    endloop
  endfacet
  facet normal 0 0.309065 0.951041
    outer loop
      vertex -17.5 -0.552186 7.60534
      vertex -20.5 -0.373034 7.54712
      vertex -20.5 -0.552186 7.60534
    endloop
  endfacet
  facet normal -0 0.535811 0.844338
    outer loop
      vertex -20.5 -0.722631 7.68554
      vertex -17.5 -0.881678 7.78647
      vertex -17.5 -0.722631 7.68554
    endloop
  endfacet
  facet normal 0 0.535811 0.844338
    outer loop
      vertex -17.5 -0.881678 7.78647
      vertex -20.5 -0.722631 7.68554
      vertex -20.5 -0.881678 7.78647
    endloop
  endfacet
  facet normal 0 0.992115 -0.125335
    outer loop
      vertex -17.5 -1.49704 9.09418
      vertex -20.5 -1.47343 9.28107
      vertex -17.5 -1.47343 9.28107
    endloop
  endfacet
  facet normal 0 0.992115 -0.125335
    outer loop
      vertex -20.5 -1.47343 9.28107
      vertex -17.5 -1.49704 9.09418
      vertex -20.5 -1.49704 9.09418
    endloop
  endfacet
  facet normal 0 0.968577 -0.248714
    outer loop
      vertex -17.5 -1.47343 9.28107
      vertex -20.5 -1.42658 9.46352
      vertex -17.5 -1.42658 9.46352
    endloop
  endfacet
  facet normal 0 0.968577 -0.248714
    outer loop
      vertex -20.5 -1.42658 9.46352
      vertex -17.5 -1.47343 9.28107
      vertex -20.5 -1.47343 9.28107
    endloop
  endfacet
  facet normal 0 0.536075 -0.84417
    outer loop
      vertex -20.5 -0.881678 10.2135
      vertex -17.5 -0.722631 10.3145
      vertex -17.5 -0.881678 10.2135
    endloop
  endfacet
  facet normal 0 0.536075 -0.84417
    outer loop
      vertex -17.5 -0.722631 10.3145
      vertex -20.5 -0.881678 10.2135
      vertex -20.5 -0.722631 10.3145
    endloop
  endfacet
  facet normal 0 0.308969 -0.951072
    outer loop
      vertex -20.5 -0.552186 10.3947
      vertex -17.5 -0.373034 10.4529
      vertex -17.5 -0.552186 10.3947
    endloop
  endfacet
  facet normal 0 0.308969 -0.951072
    outer loop
      vertex -17.5 -0.373034 10.4529
      vertex -20.5 -0.552186 10.3947
      vertex -20.5 -0.373034 10.4529
    endloop
  endfacet
  facet normal 0 0.187396 -0.982284
    outer loop
      vertex -20.5 -0.373034 10.4529
      vertex -17.5 -0.188 10.4882
      vertex -17.5 -0.373034 10.4529
    endloop
  endfacet
  facet normal 0 0.187396 -0.982284
    outer loop
      vertex -17.5 -0.188 10.4882
      vertex -20.5 -0.373034 10.4529
      vertex -20.5 -0.188 10.4882
    endloop
  endfacet
  facet normal 0 0.0626427 -0.998036
    outer loop
      vertex -20.5 -0.188 10.4882
      vertex -17.5 0 10.5
      vertex -17.5 -0.188 10.4882
    endloop
  endfacet
  facet normal 0 0.0626427 -0.998036
    outer loop
      vertex -17.5 0 10.5
      vertex -20.5 -0.188 10.4882
      vertex -20.5 0 10.5
    endloop
  endfacet
  facet normal 0 0.876302 -0.481762
    outer loop
      vertex -17.5 -1.35724 9.63867
      vertex -20.5 -1.26649 9.80374
      vertex -17.5 -1.26649 9.80374
    endloop
  endfacet
  facet normal 0 0.876302 -0.481762
    outer loop
      vertex -20.5 -1.26649 9.80374
      vertex -17.5 -1.35724 9.63867
      vertex -20.5 -1.35724 9.63867
    endloop
  endfacet
  facet normal 0 0.80903 -0.587768
    outer loop
      vertex -17.5 -1.26649 9.80374
      vertex -20.5 -1.15577 9.95614
      vertex -17.5 -1.15577 9.95614
    endloop
  endfacet
  facet normal 0 0.80903 -0.587768
    outer loop
      vertex -20.5 -1.15577 9.95614
      vertex -17.5 -1.26649 9.80374
      vertex -20.5 -1.26649 9.80374
    endloop
  endfacet
endsolid OpenSCAD_Model
