<?xml version="1.0" standalone="no"?>
<!DOCTYPE svg PUBLIC "-//W3C//DTD SVG 1.1//EN" "http://www.w3.org/Graphics/SVG/1.1/DTD/svg11.dtd">
<svg width="60mm" height="129mm" viewBox="-30 -237 60 129" xmlns="http://www.w3.org/2000/svg" version="1.1">
<title>OpenSCAD Model</title>
<path d="
M 25.4369,-177.589 L 26.0451,-177.745 L 26.6289,-177.976 L 27.1791,-178.278 L 27.6871,-178.647 L 28.1448,-179.077
 L 28.5451,-179.561 L 28.8815,-180.091 L 29.1489,-180.659 L 29.3429,-181.257 L 29.4606,-181.873 L 29.5,-182.5
 L 29.5,-229.5 L 13.9715,-229.5 L 13.9751,-229.498 L 11.7482,-229.498 L 11.6236,-229.482 L 11.502,-229.451
 L 11.3852,-229.405 L 11.2752,-229.344 L 11.1736,-229.271 L 11.082,-229.185 L 11.002,-229.088 L 10.9347,-228.982
 L 10.8812,-228.868 L 10.8424,-228.749 L 10.8189,-228.625 L 10.811,-228.5 L 10.8189,-228.375 L 10.8424,-228.251
 L 10.8812,-228.132 L 10.9347,-228.018 L 11.002,-227.912 L 11.082,-227.815 L 11.1736,-227.729 L 11.2752,-227.656
 L 11.3852,-227.595 L 11.502,-227.549 L 11.6236,-227.518 L 11.7482,-227.502 L 16.777,-227.502 L 16.8917,-227.419
 L 19.3177,-225.14 L 21.4389,-222.576 L 23.2221,-219.766 L 24.6391,-216.755 L 25.6674,-213.59 L 26.291,-210.321
 L 26.5,-207 L 26.291,-203.679 L 25.6674,-200.41 L 24.6391,-197.245 L 23.2221,-194.234 L 21.4389,-191.424
 L 19.3177,-188.86 L 16.8917,-186.581 L 14.1994,-184.625 L 11.2831,-183.022 L 8.18895,-181.797 L 4.96559,-180.969
 L 1.66394,-180.552 L -1.66394,-180.552 L -4.96559,-180.969 L -8.18895,-181.797 L -11.2831,-183.022 L -14.1994,-184.625
 L -16.8917,-186.581 L -19.3177,-188.86 L -21.4389,-191.424 L -23.2221,-194.234 L -24.6391,-197.245 L -25.6674,-200.41
 L -26.291,-203.679 L -26.5,-207 L -26.291,-210.321 L -25.6674,-213.59 L -24.6391,-216.755 L -23.2221,-219.766
 L -21.4389,-222.576 L -19.3177,-225.14 L -16.8917,-227.419 L -14.1994,-229.375 L -11.2831,-230.978 L -8.18895,-232.203
 L -4.96559,-233.031 L -1.66394,-233.448 L 0,-233.448 L 0,-233.5 L 9.49998,-233.5 L 6.50986,-236.49
 L 3,-236.49 L 3,-235.5 L -29,-235.5 L -29,-236.5 L -29.5,-236.5 L -29.5,-232.494
 L -22.3116,-232.494 L -21.9379,-232.447 L -21.5729,-232.353 L -21.2227,-232.214 L -20.8925,-232.033 L -20.5877,-231.812
 L -20.3131,-231.554 L -20.0729,-231.263 L -19.8711,-230.945 L -19.7107,-230.604 L -19.5942,-230.246 L -19.5237,-229.876
 L -19.5,-229.5 L -19.5237,-229.124 L -19.5942,-228.754 L -19.7107,-228.396 L -19.8711,-228.055 L -20.0729,-227.737
 L -20.3131,-227.446 L -20.5877,-227.188 L -20.8925,-226.967 L -21.2227,-226.786 L -21.5729,-226.647 L -21.9379,-226.553
 L -22.3116,-226.506 L -29.5,-226.506 L -29.5,-187.494 L -22.3116,-187.494 L -21.9379,-187.447 L -21.5729,-187.353
 L -21.2227,-187.214 L -20.8925,-187.033 L -20.5877,-186.812 L -20.3131,-186.554 L -20.0729,-186.263 L -19.8711,-185.945
 L -19.7107,-185.604 L -19.5942,-185.246 L -19.5237,-184.876 L -19.5,-184.5 L -19.5237,-184.124 L -19.5942,-183.754
 L -19.7107,-183.396 L -19.8711,-183.055 L -20.0729,-182.737 L -20.3131,-182.446 L -20.5877,-182.188 L -20.8925,-181.967
 L -21.2227,-181.786 L -21.5729,-181.647 L -21.9379,-181.553 L -22.3116,-181.506 L -29.3905,-181.506 L -29.3429,-181.257
 L -29.1489,-180.659 L -28.8815,-180.091 L -28.5451,-179.561 L -28.1448,-179.077 L -27.6871,-178.647 L -27.1791,-178.278
 L -26.6289,-177.976 L -26.0451,-177.745 L -25.4369,-177.589 L -24.8139,-177.51 L 24.8139,-177.51 z
M 22.3116,-181.506 L 21.9379,-181.553 L 21.5729,-181.647 L 21.2227,-181.786 L 20.8925,-181.967 L 20.5877,-182.188
 L 20.3131,-182.446 L 20.0729,-182.737 L 19.8711,-183.055 L 19.7107,-183.396 L 19.5942,-183.754 L 19.5237,-184.124
 L 19.5,-184.5 L 19.5237,-184.876 L 19.5942,-185.246 L 19.7107,-185.604 L 19.8711,-185.945 L 20.0729,-186.263
 L 20.3131,-186.554 L 20.5877,-186.812 L 20.8925,-187.033 L 21.2227,-187.214 L 21.5729,-187.353 L 21.9379,-187.447
 L 22.3116,-187.494 L 22.6884,-187.494 L 23.0621,-187.447 L 23.427,-187.353 L 23.7773,-187.214 L 24.1075,-187.033
 L 24.4123,-186.812 L 24.6869,-186.554 L 24.927,-186.263 L 25.1289,-185.945 L 25.2893,-185.604 L 25.4057,-185.246
 L 25.4763,-184.876 L 25.5,-184.5 L 25.4763,-184.124 L 25.4057,-183.754 L 25.2893,-183.396 L 25.1289,-183.055
 L 24.927,-182.737 L 24.6869,-182.446 L 24.4123,-182.188 L 24.1075,-181.967 L 23.7773,-181.786 L 23.427,-181.647
 L 23.0621,-181.553 L 22.6884,-181.506 z
M 19.5,-236.49 L 8.63118,-236.49 L 11.6213,-233.5 L 19.5,-233.5 z
M 25.4369,-108.589 L 26.0451,-108.745 L 26.6289,-108.976 L 27.1791,-109.278 L 27.6871,-109.647 L 28.1448,-110.077
 L 28.5451,-110.561 L 28.8815,-111.091 L 29.1489,-111.659 L 29.3429,-112.257 L 29.4606,-112.873 L 29.5,-113.5
 L 29.5,-162.5 L 29.4606,-163.127 L 29.3429,-163.743 L 29.1489,-164.341 L 28.8815,-164.909 L 28.5451,-165.439
 L 28.1448,-165.923 L 27.6871,-166.353 L 27.1791,-166.722 L 26.6289,-167.024 L 26.0451,-167.255 L 25.4369,-167.411
 L 24.8139,-167.49 L 3,-167.49 L 3,-166.5 L -29,-166.5 L -29,-167.5 L -29.5,-167.5
 L -29.5,-163.494 L -22.3116,-163.494 L -21.9379,-163.447 L -21.5729,-163.353 L -21.2227,-163.214 L -20.8925,-163.033
 L -20.5877,-162.812 L -20.3131,-162.554 L -20.0729,-162.263 L -19.8711,-161.945 L -19.7107,-161.604 L -19.5942,-161.246
 L -19.5237,-160.876 L -19.5,-160.5 L -19.5237,-160.124 L -19.5942,-159.754 L -19.7107,-159.396 L -19.8711,-159.055
 L -20.0729,-158.737 L -20.3131,-158.446 L -20.5877,-158.188 L -20.8925,-157.967 L -21.2227,-157.786 L -21.5729,-157.647
 L -21.9379,-157.553 L -22.3116,-157.506 L -29.5,-157.506 L -29.5,-118.494 L -22.3116,-118.494 L -21.9379,-118.447
 L -21.5729,-118.353 L -21.2227,-118.214 L -20.8925,-118.033 L -20.5877,-117.812 L -20.3131,-117.554 L -20.0729,-117.263
 L -19.8711,-116.945 L -19.7107,-116.604 L -19.5942,-116.246 L -19.5237,-115.876 L -19.5,-115.5 L -19.5237,-115.124
 L -19.5942,-114.754 L -19.7107,-114.396 L -19.8711,-114.055 L -20.0729,-113.737 L -20.3131,-113.446 L -20.5877,-113.188
 L -20.8925,-112.967 L -21.2227,-112.786 L -21.5729,-112.647 L -21.9379,-112.553 L -22.3116,-112.506 L -29.3905,-112.506
 L -29.3429,-112.257 L -29.1489,-111.659 L -28.8815,-111.091 L -28.5451,-110.561 L -28.1448,-110.077 L -27.6871,-109.647
 L -27.1791,-109.278 L -26.6289,-108.976 L -26.0451,-108.745 L -25.4369,-108.589 L -24.8139,-108.51 L 24.8139,-108.51
 z
M -0.408127,-131.513 L -1.21797,-131.615 L -2.00861,-131.818 L -2.76756,-132.119 L -3.48286,-132.512 L -4.14325,-132.992
 L -4.73828,-133.55 L -5.25861,-134.179 L -5.69598,-134.869 L -6.04353,-135.607 L -6.29578,-136.384 L -6.44873,-137.185
 L -6.5,-138 L -6.44873,-138.815 L -6.29578,-139.616 L -6.04353,-140.393 L -5.69598,-141.131 L -5.25861,-141.821
 L -4.73828,-142.45 L -4.14325,-143.008 L -3.48286,-143.488 L -2.76756,-143.881 L -2.00861,-144.182 L -1.21797,-144.385
 L -0.408127,-144.487 L 0.408127,-144.487 L 1.21797,-144.385 L 2.00861,-144.182 L 2.76756,-143.881 L 3.48286,-143.488
 L 4.14325,-143.008 L 4.73828,-142.45 L 5.25861,-141.821 L 5.69598,-141.131 L 6.04353,-140.393 L 6.29578,-139.616
 L 6.44873,-138.815 L 6.5,-138 L 6.44873,-137.185 L 6.29578,-136.384 L 6.04353,-135.607 L 5.69598,-134.869
 L 5.25861,-134.179 L 4.73828,-133.55 L 4.14325,-132.992 L 3.48286,-132.512 L 2.76756,-132.119 L 2.00861,-131.818
 L 1.21797,-131.615 L 0.408127,-131.513 z
M 22.3116,-112.506 L 21.9379,-112.553 L 21.5729,-112.647 L 21.2227,-112.786 L 20.8925,-112.967 L 20.5877,-113.188
 L 20.3131,-113.446 L 20.0729,-113.737 L 19.8711,-114.055 L 19.7107,-114.396 L 19.5942,-114.754 L 19.5237,-115.124
 L 19.5,-115.5 L 19.5237,-115.876 L 19.5942,-116.246 L 19.7107,-116.604 L 19.8711,-116.945 L 20.0729,-117.263
 L 20.3131,-117.554 L 20.5877,-117.812 L 20.8925,-118.033 L 21.2227,-118.214 L 21.5729,-118.353 L 21.9379,-118.447
 L 22.3116,-118.494 L 22.6884,-118.494 L 23.0621,-118.447 L 23.427,-118.353 L 23.7773,-118.214 L 24.1075,-118.033
 L 24.4123,-117.812 L 24.6869,-117.554 L 24.927,-117.263 L 25.1289,-116.945 L 25.2893,-116.604 L 25.4057,-116.246
 L 25.4763,-115.876 L 25.5,-115.5 L 25.4763,-115.124 L 25.4057,-114.754 L 25.2893,-114.396 L 25.1289,-114.055
 L 24.927,-113.737 L 24.6869,-113.446 L 24.4123,-113.188 L 24.1075,-112.967 L 23.7773,-112.786 L 23.427,-112.647
 L 23.0621,-112.553 L 22.6884,-112.506 z
" stroke="black" fill="lightgray" stroke-width="0.5"/>
</svg>
