<?xml version="1.0" standalone="no"?>
<!DOCTYPE svg PUBLIC "-//W3C//DTD SVG 1.1//EN" "http://www.w3.org/Graphics/SVG/1.1/DTD/svg11.dtd">
<svg width="16mm" height="862mm" viewBox="-8 -1649 16 862" xmlns="http://www.w3.org/2000/svg" version="1.1">
<title>OpenSCAD Model</title>
<path d="
M 3.4369,-1483.59 L 4.04507,-1483.74 L 4.62889,-1483.98 L 5.17912,-1484.28 L 5.68712,-1484.65 L 6.14484,-1485.08
 L 6.54507,-1485.56 L 6.88153,-1486.09 L 7.14888,-1486.66 L 7.34291,-1487.26 L 7.46057,-1487.87 L 7.5,-1488.5
 L 7.5,-1643.5 L 7.46057,-1644.13 L 7.34291,-1644.74 L 7.14888,-1645.34 L 6.88153,-1645.91 L 6.54507,-1646.44
 L 6.14484,-1646.92 L 5.68712,-1647.35 L 5.17912,-1647.72 L 4.62889,-1648.02 L 4.04507,-1648.26 L 3.4369,-1648.41
 L 2.81395,-1648.49 L -2.81395,-1648.49 L -3.4369,-1648.41 L -4.04507,-1648.26 L -4.62889,-1648.02 L -5.17912,-1647.72
 L -5.68712,-1647.35 L -6.14484,-1646.92 L -6.54507,-1646.44 L -6.88153,-1645.91 L -7.14888,-1645.34 L -7.34291,-1644.74
 L -7.46057,-1644.13 L -7.5,-1643.5 L -7.5,-1488.5 L -7.46057,-1487.87 L -7.34291,-1487.26 L -7.14888,-1486.66
 L -6.88153,-1486.09 L -6.54507,-1485.56 L -6.14484,-1485.08 L -5.68712,-1484.65 L -5.17912,-1484.28 L -4.62889,-1483.98
 L -4.04507,-1483.74 L -3.4369,-1483.59 L -2.81395,-1483.51 L 2.81395,-1483.51 z
M -2.25116,-1485.01 L -2.74951,-1485.07 L -3.23605,-1485.2 L -3.70311,-1485.38 L -4.1433,-1485.62 L -4.54968,-1485.92
 L -4.91586,-1486.26 L -5.23605,-1486.65 L -5.50522,-1487.07 L -5.7191,-1487.53 L -5.87433,-1488.01 L -5.96844,-1488.5
 L -6,-1489 L -6,-1643 L -5.96844,-1643.5 L -5.87433,-1643.99 L -5.7191,-1644.47 L -5.50522,-1644.93
 L -5.23605,-1645.35 L -4.91586,-1645.74 L -4.54968,-1646.08 L -4.1433,-1646.38 L -3.70311,-1646.62 L -3.23605,-1646.8
 L -2.74951,-1646.93 L -2.25116,-1646.99 L 2.25116,-1646.99 L 2.74951,-1646.93 L 3.23605,-1646.8 L 3.70311,-1646.62
 L 4.1433,-1646.38 L 4.54968,-1646.08 L 4.91586,-1645.74 L 5.23605,-1645.35 L 5.50522,-1644.93 L 5.7191,-1644.47
 L 5.87433,-1643.99 L 5.96844,-1643.5 L 6,-1643 L 6,-1489 L 5.96844,-1488.5 L 5.87433,-1488.01
 L 5.7191,-1487.53 L 5.50522,-1487.07 L 5.23605,-1486.65 L 4.91586,-1486.26 L 4.54968,-1485.92 L 4.1433,-1485.62
 L 3.70311,-1485.38 L 3.23605,-1485.2 L 2.74951,-1485.07 L 2.25116,-1485.01 z
M 3.4369,-1309.59 L 4.04507,-1309.74 L 4.62889,-1309.98 L 5.17912,-1310.28 L 5.68712,-1310.65 L 6.14484,-1311.08
 L 6.54507,-1311.56 L 6.88153,-1312.09 L 7.14888,-1312.66 L 7.34291,-1313.26 L 7.46057,-1313.87 L 7.5,-1314.5
 L 7.5,-1469.5 L 7.46057,-1470.13 L 7.34291,-1470.74 L 7.14888,-1471.34 L 6.88153,-1471.91 L 6.54507,-1472.44
 L 6.14484,-1472.92 L 5.68712,-1473.35 L 5.17912,-1473.72 L 4.62889,-1474.02 L 4.04507,-1474.26 L 3.4369,-1474.41
 L 2.81395,-1474.49 L -2.81395,-1474.49 L -3.4369,-1474.41 L -4.04507,-1474.26 L -4.62889,-1474.02 L -5.17912,-1473.72
 L -5.68712,-1473.35 L -6.14484,-1472.92 L -6.54507,-1472.44 L -6.88153,-1471.91 L -7.14888,-1471.34 L -7.34291,-1470.74
 L -7.46057,-1470.13 L -7.5,-1469.5 L -7.5,-1314.5 L -7.46057,-1313.87 L -7.34291,-1313.26 L -7.14888,-1312.66
 L -6.88153,-1312.09 L -6.54507,-1311.56 L -6.14484,-1311.08 L -5.68712,-1310.65 L -5.17912,-1310.28 L -4.62889,-1309.98
 L -4.04507,-1309.74 L -3.4369,-1309.59 L -2.81395,-1309.51 L 2.81395,-1309.51 z
M -2.25116,-1311.01 L -2.74951,-1311.07 L -3.23605,-1311.2 L -3.70311,-1311.38 L -4.1433,-1311.62 L -4.54968,-1311.92
 L -4.91586,-1312.26 L -5.23605,-1312.65 L -5.50522,-1313.07 L -5.7191,-1313.53 L -5.87433,-1314.01 L -5.96844,-1314.5
 L -6,-1315 L -6,-1469 L -5.96844,-1469.5 L -5.87433,-1469.99 L -5.7191,-1470.47 L -5.50522,-1470.93
 L -5.23605,-1471.35 L -4.91586,-1471.74 L -4.54968,-1472.08 L -4.1433,-1472.38 L -3.70311,-1472.62 L -3.23605,-1472.8
 L -2.74951,-1472.93 L -2.25116,-1472.99 L 2.25116,-1472.99 L 2.74951,-1472.93 L 3.23605,-1472.8 L 3.70311,-1472.62
 L 4.1433,-1472.38 L 4.54968,-1472.08 L 4.91586,-1471.74 L 5.23605,-1471.35 L 5.50522,-1470.93 L 5.7191,-1470.47
 L 5.87433,-1469.99 L 5.96844,-1469.5 L 6,-1469 L 6,-1315 L 5.96844,-1314.5 L 5.87433,-1314.01
 L 5.7191,-1313.53 L 5.50522,-1313.07 L 5.23605,-1312.65 L 4.91586,-1312.26 L 4.54968,-1311.92 L 4.1433,-1311.62
 L 3.70311,-1311.38 L 3.23605,-1311.2 L 2.74951,-1311.07 L 2.25116,-1311.01 z
M 3.4369,-1135.59 L 4.04507,-1135.74 L 4.62889,-1135.98 L 5.17912,-1136.28 L 5.68712,-1136.65 L 6.14484,-1137.08
 L 6.54507,-1137.56 L 6.88153,-1138.09 L 7.14888,-1138.66 L 7.34291,-1139.26 L 7.46057,-1139.87 L 7.5,-1140.5
 L 7.5,-1295.5 L 7.46057,-1296.13 L 7.34291,-1296.74 L 7.14888,-1297.34 L 6.88153,-1297.91 L 6.54507,-1298.44
 L 6.14484,-1298.92 L 5.68712,-1299.35 L 5.17912,-1299.72 L 4.62889,-1300.02 L 4.04507,-1300.26 L 3.4369,-1300.41
 L 2.81395,-1300.49 L -2.81395,-1300.49 L -3.4369,-1300.41 L -4.04507,-1300.26 L -4.62889,-1300.02 L -5.17912,-1299.72
 L -5.68712,-1299.35 L -6.14484,-1298.92 L -6.54507,-1298.44 L -6.88153,-1297.91 L -7.14888,-1297.34 L -7.34291,-1296.74
 L -7.46057,-1296.13 L -7.5,-1295.5 L -7.5,-1140.5 L -7.46057,-1139.87 L -7.34291,-1139.26 L -7.14888,-1138.66
 L -6.88153,-1138.09 L -6.54507,-1137.56 L -6.14484,-1137.08 L -5.68712,-1136.65 L -5.17912,-1136.28 L -4.62889,-1135.98
 L -4.04507,-1135.74 L -3.4369,-1135.59 L -2.81395,-1135.51 L 2.81395,-1135.51 z
M -2.25116,-1137.01 L -2.74951,-1137.07 L -3.23605,-1137.2 L -3.70311,-1137.38 L -4.1433,-1137.62 L -4.54968,-1137.92
 L -4.91586,-1138.26 L -5.23605,-1138.65 L -5.50522,-1139.07 L -5.7191,-1139.53 L -5.87433,-1140.01 L -5.96844,-1140.5
 L -6,-1141 L -6,-1295 L -5.96844,-1295.5 L -5.87433,-1295.99 L -5.7191,-1296.47 L -5.50522,-1296.93
 L -5.23605,-1297.35 L -4.91586,-1297.74 L -4.54968,-1298.08 L -4.1433,-1298.38 L -3.70311,-1298.62 L -3.23605,-1298.8
 L -2.74951,-1298.93 L -2.25116,-1298.99 L 2.25116,-1298.99 L 2.74951,-1298.93 L 3.23605,-1298.8 L 3.70311,-1298.62
 L 4.1433,-1298.38 L 4.54968,-1298.08 L 4.91586,-1297.74 L 5.23605,-1297.35 L 5.50522,-1296.93 L 5.7191,-1296.47
 L 5.87433,-1295.99 L 5.96844,-1295.5 L 6,-1295 L 6,-1141 L 5.96844,-1140.5 L 5.87433,-1140.01
 L 5.7191,-1139.53 L 5.50522,-1139.07 L 5.23605,-1138.65 L 4.91586,-1138.26 L 4.54968,-1137.92 L 4.1433,-1137.62
 L 3.70311,-1137.38 L 3.23605,-1137.2 L 2.74951,-1137.07 L 2.25116,-1137.01 z
M 3.4369,-961.589 L 4.04507,-961.745 L 4.62889,-961.976 L 5.17912,-962.278 L 5.68712,-962.647 L 6.14484,-963.077
 L 6.54507,-963.561 L 6.88153,-964.091 L 7.14888,-964.659 L 7.34291,-965.257 L 7.46057,-965.873 L 7.5,-966.5
 L 7.5,-1121.5 L 7.46057,-1122.13 L 7.34291,-1122.74 L 7.14888,-1123.34 L 6.88153,-1123.91 L 6.54507,-1124.44
 L 6.14484,-1124.92 L 5.68712,-1125.35 L 5.17912,-1125.72 L 4.62889,-1126.02 L 4.04507,-1126.26 L 3.4369,-1126.41
 L 2.81395,-1126.49 L -2.81395,-1126.49 L -3.4369,-1126.41 L -4.04507,-1126.26 L -4.62889,-1126.02 L -5.17912,-1125.72
 L -5.68712,-1125.35 L -6.14484,-1124.92 L -6.54507,-1124.44 L -6.88153,-1123.91 L -7.14888,-1123.34 L -7.34291,-1122.74
 L -7.46057,-1122.13 L -7.5,-1121.5 L -7.5,-966.5 L -7.46057,-965.873 L -7.34291,-965.257 L -7.14888,-964.659
 L -6.88153,-964.091 L -6.54507,-963.561 L -6.14484,-963.077 L -5.68712,-962.647 L -5.17912,-962.278 L -4.62889,-961.976
 L -4.04507,-961.745 L -3.4369,-961.589 L -2.81395,-961.51 L 2.81395,-961.51 z
M -2.19545,-963.893 L -2.5833,-963.942 L -2.96194,-964.039 L -3.32541,-964.183 L -3.66798,-964.372 L -3.98424,-964.601
 L -4.26921,-964.869 L -4.5184,-965.17 L -4.72786,-965.5 L -4.89432,-965.854 L -5.01512,-966.226 L -5.08836,-966.61
 L -5.11292,-967 L -5.11292,-1121 L -5.08836,-1121.39 L -5.01512,-1121.77 L -4.89432,-1122.15 L -4.72786,-1122.5
 L -4.5184,-1122.83 L -4.26921,-1123.13 L -3.98424,-1123.4 L -3.66798,-1123.63 L -3.32541,-1123.82 L -2.96194,-1123.96
 L -2.5833,-1124.06 L -2.19545,-1124.11 L 2.19545,-1124.11 L 2.5833,-1124.06 L 2.96194,-1123.96 L 3.32541,-1123.82
 L 3.66798,-1123.63 L 3.98424,-1123.4 L 4.26921,-1123.13 L 4.5184,-1122.83 L 4.72786,-1122.5 L 4.89432,-1122.15
 L 5.01512,-1121.77 L 5.08836,-1121.39 L 5.11292,-1121 L 5.11292,-967 L 5.08836,-966.61 L 5.01512,-966.226
 L 4.89432,-965.854 L 4.72786,-965.5 L 4.5184,-965.17 L 4.26921,-964.869 L 3.98424,-964.601 L 3.66798,-964.372
 L 3.32541,-964.183 L 2.96194,-964.039 L 2.5833,-963.942 L 2.19545,-963.893 z
M 3.4369,-787.589 L 4.04507,-787.745 L 4.62889,-787.976 L 5.17912,-788.278 L 5.68712,-788.647 L 6.14484,-789.077
 L 6.54507,-789.561 L 6.88153,-790.091 L 7.14888,-790.659 L 7.34291,-791.257 L 7.46057,-791.873 L 7.5,-792.5
 L 7.5,-947.5 L 7.46057,-948.127 L 7.34291,-948.743 L 7.14888,-949.341 L 6.88153,-949.909 L 6.54507,-950.439
 L 6.14484,-950.923 L 5.68712,-951.353 L 5.17912,-951.722 L 4.62889,-952.024 L 4.04507,-952.255 L 3.4369,-952.411
 L 2.81395,-952.49 L -2.81395,-952.49 L -3.4369,-952.411 L -4.04507,-952.255 L -4.62889,-952.024 L -5.17912,-951.722
 L -5.68712,-951.353 L -6.14484,-950.923 L -6.54507,-950.439 L -6.88153,-949.909 L -7.14888,-949.341 L -7.34291,-948.743
 L -7.46057,-948.127 L -7.5,-947.5 L -7.5,-792.5 L -7.46057,-791.873 L -7.34291,-791.257 L -7.14888,-790.659
 L -6.88153,-790.091 L -6.54507,-789.561 L -6.14484,-789.077 L -5.68712,-788.647 L -5.17912,-788.278 L -4.62889,-787.976
 L -4.04507,-787.745 L -3.4369,-787.589 L -2.81395,-787.51 L 2.81395,-787.51 z
M -0.134064,-942.869 L -0.400101,-942.903 L -0.659836,-942.969 L -0.909149,-943.068 L -1.14413,-943.197 L -1.36108,-943.355
 L -1.55655,-943.538 L -1.72748,-943.745 L -1.87117,-943.971 L -1.98534,-944.214 L -2.06821,-944.469 L -2.11845,-944.732
 L -2.13528,-945 L -2.11845,-945.268 L -2.06821,-945.531 L -1.98534,-945.786 L -1.87117,-946.029 L -1.72748,-946.255
 L -1.55655,-946.462 L -1.36108,-946.645 L -1.14413,-946.803 L -0.909149,-946.932 L -0.659836,-947.031 L -0.400101,-947.097
 L -0.134064,-947.131 L 0.134064,-947.131 L 0.400101,-947.097 L 0.659836,-947.031 L 0.909149,-946.932 L 1.14413,-946.803
 L 1.36108,-946.645 L 1.55655,-946.462 L 1.72748,-946.255 L 1.87117,-946.029 L 1.98534,-945.786 L 2.06821,-945.531
 L 2.11845,-945.268 L 2.13528,-945 L 2.11845,-944.732 L 2.06821,-944.469 L 1.98534,-944.214 L 1.87117,-943.971
 L 1.72748,-943.745 L 1.55655,-943.538 L 1.36108,-943.355 L 1.14413,-943.197 L 0.909149,-943.068 L 0.659836,-942.969
 L 0.400101,-942.903 L 0.134064,-942.869 z
M -0.134064,-792.869 L -0.400101,-792.903 L -0.659836,-792.969 L -0.909149,-793.068 L -1.14413,-793.197 L -1.36108,-793.355
 L -1.55655,-793.538 L -1.72748,-793.745 L -1.87117,-793.971 L -1.98534,-794.214 L -2.06821,-794.469 L -2.11845,-794.732
 L -2.13528,-795 L -2.11845,-795.268 L -2.06821,-795.531 L -1.98534,-795.786 L -1.87117,-796.029 L -1.72748,-796.255
 L -1.55655,-796.462 L -1.36108,-796.645 L -1.14413,-796.803 L -0.909149,-796.932 L -0.659836,-797.031 L -0.400101,-797.097
 L -0.134064,-797.131 L 0.134064,-797.131 L 0.400101,-797.097 L 0.659836,-797.031 L 0.909149,-796.932 L 1.14413,-796.803
 L 1.36108,-796.645 L 1.55655,-796.462 L 1.72748,-796.255 L 1.87117,-796.029 L 1.98534,-795.786 L 2.06821,-795.531
 L 2.11845,-795.268 L 2.13528,-795 L 2.11845,-794.732 L 2.06821,-794.469 L 1.98534,-794.214 L 1.87117,-793.971
 L 1.72748,-793.745 L 1.55655,-793.538 L 1.36108,-793.355 L 1.14413,-793.197 L 0.909149,-793.068 L 0.659836,-792.969
 L 0.400101,-792.903 L 0.134064,-792.869 z
" stroke="black" fill="lightgray" stroke-width="0.5"/>
</svg>
