<?xml version="1.0" standalone="no"?>
<!DOCTYPE svg PUBLIC "-//W3C//DTD SVG 1.1//EN" "http://www.w3.org/Graphics/SVG/1.1/DTD/svg11.dtd">
<svg width="77mm" height="262mm" viewBox="-39 -509 77 262" xmlns="http://www.w3.org/2000/svg" version="1.1">
<title>OpenSCAD Model</title>
<path d="
M -36,-464.941 L -35.6871,-464.647 L -35.1791,-464.278 L -34.6289,-463.976 L -34.0451,-463.745 L -33.4369,-463.589
 L -32.8139,-463.51 L 32.8139,-463.51 L 33.4369,-463.589 L 34.0451,-463.745 L 34.6289,-463.976 L 35.1791,-464.278
 L 35.6871,-464.647 L 36.1448,-465.077 L 36.5451,-465.561 L 36.8815,-466.091 L 37.1489,-466.659 L 37.3429,-467.257
 L 37.4606,-467.873 L 37.5,-468.5 L 37.5,-503.5 L 37.4606,-504.127 L 37.3429,-504.743 L 37.1489,-505.341
 L 36.8815,-505.909 L 36.5451,-506.439 L 36.1448,-506.923 L 35.6871,-507.353 L 35.1791,-507.722 L 34.6289,-508.024
 L 34.0451,-508.255 L 33.4369,-508.411 L 32.8139,-508.49 L -32.8139,-508.49 L -33.4369,-508.411 L -34.0451,-508.255
 L -34.6289,-508.024 L -35.1791,-507.722 L -35.6871,-507.353 L -36,-507.059 L -36,-508.49 L -39,-508.49
 L -39,-463.51 L -36,-463.51 z
M -32.2512,-465.008 L -32.7495,-465.071 L -33.2361,-465.196 L -33.7031,-465.381 L -34.1433,-465.623 L -34.5497,-465.918
 L -34.9159,-466.262 L -35.2361,-466.649 L -35.5052,-467.073 L -35.7191,-467.528 L -35.8743,-468.005 L -35.9685,-468.499
 L -36,-469 L -36,-503 L -35.9685,-503.501 L -35.8743,-503.995 L -35.7191,-504.472 L -35.5052,-504.927
 L -35.2361,-505.351 L -34.9159,-505.738 L -34.5497,-506.082 L -34.1433,-506.377 L -33.7031,-506.619 L -33.2361,-506.804
 L -32.7495,-506.929 L -32.2512,-506.992 L 32.2512,-506.992 L 32.7495,-506.929 L 33.2361,-506.804 L 33.7031,-506.619
 L 34.1433,-506.377 L 34.5497,-506.082 L 34.9159,-505.738 L 35.2361,-505.351 L 35.5052,-504.927 L 35.7191,-504.472
 L 35.8743,-503.995 L 35.9685,-503.501 L 36,-503 L 36,-469 L 35.9685,-468.499 L 35.8743,-468.005
 L 35.7191,-467.528 L 35.5052,-467.073 L 35.2361,-466.649 L 34.9159,-466.262 L 34.5497,-465.918 L 34.1433,-465.623
 L 33.7031,-465.381 L 33.2361,-465.196 L 32.7495,-465.071 L 32.2512,-465.008 z
M -36,-410.941 L -35.6871,-410.647 L -35.1791,-410.278 L -34.6289,-409.976 L -34.0451,-409.745 L -33.4369,-409.589
 L -32.8139,-409.51 L 32.8139,-409.51 L 33.4369,-409.589 L 34.0451,-409.745 L 34.6289,-409.976 L 35.1791,-410.278
 L 35.6871,-410.647 L 36.1448,-411.077 L 36.5451,-411.561 L 36.8815,-412.091 L 37.1489,-412.659 L 37.3429,-413.257
 L 37.4606,-413.873 L 37.5,-414.5 L 37.5,-449.5 L 37.4606,-450.127 L 37.3429,-450.743 L 37.1489,-451.341
 L 36.8815,-451.909 L 36.5451,-452.439 L 36.1448,-452.923 L 35.6871,-453.353 L 35.1791,-453.722 L 34.6289,-454.024
 L 34.0451,-454.255 L 33.4369,-454.411 L 32.8139,-454.49 L -32.8139,-454.49 L -33.4369,-454.411 L -34.0451,-454.255
 L -34.6289,-454.024 L -35.1791,-453.722 L -35.6871,-453.353 L -36,-453.059 L -36,-454.49 L -39,-454.49
 L -39,-409.51 L -36,-409.51 z
M -32.2512,-411.008 L -32.7495,-411.071 L -33.2361,-411.196 L -33.7031,-411.381 L -34.1433,-411.623 L -34.5497,-411.918
 L -34.9159,-412.262 L -35.2361,-412.649 L -35.5052,-413.073 L -35.7191,-413.528 L -35.8743,-414.005 L -35.9685,-414.499
 L -36,-415 L -36,-449 L -35.9685,-449.501 L -35.8743,-449.995 L -35.7191,-450.472 L -35.5052,-450.927
 L -35.2361,-451.351 L -34.9159,-451.738 L -34.5497,-452.082 L -34.1433,-452.377 L -33.7031,-452.619 L -33.2361,-452.804
 L -32.7495,-452.929 L -32.2512,-452.992 L 32.2512,-452.992 L 32.7495,-452.929 L 33.2361,-452.804 L 33.7031,-452.619
 L 34.1433,-452.377 L 34.5497,-452.082 L 34.9159,-451.738 L 35.2361,-451.351 L 35.5052,-450.927 L 35.7191,-450.472
 L 35.8743,-449.995 L 35.9685,-449.501 L 36,-449 L 36,-415 L 35.9685,-414.499 L 35.8743,-414.005
 L 35.7191,-413.528 L 35.5052,-413.073 L 35.2361,-412.649 L 34.9159,-412.262 L 34.5497,-411.918 L 34.1433,-411.623
 L 33.7031,-411.381 L 33.2361,-411.196 L 32.7495,-411.071 L 32.2512,-411.008 z
M -36,-356.941 L -35.6871,-356.647 L -35.1791,-356.278 L -34.6289,-355.976 L -34.0451,-355.745 L -33.4369,-355.589
 L -32.8139,-355.51 L 32.8139,-355.51 L 33.4369,-355.589 L 34.0451,-355.745 L 34.6289,-355.976 L 35.1791,-356.278
 L 35.6871,-356.647 L 36.1448,-357.077 L 36.5451,-357.561 L 36.8815,-358.091 L 37.1489,-358.659 L 37.3429,-359.257
 L 37.4606,-359.873 L 37.5,-360.5 L 37.5,-395.5 L 37.4606,-396.127 L 37.3429,-396.743 L 37.1489,-397.341
 L 36.8815,-397.909 L 36.5451,-398.439 L 36.1448,-398.923 L 35.6871,-399.353 L 35.1791,-399.722 L 34.6289,-400.024
 L 34.0451,-400.255 L 33.4369,-400.411 L 32.8139,-400.49 L -32.8139,-400.49 L -33.4369,-400.411 L -34.0451,-400.255
 L -34.6289,-400.024 L -35.1791,-399.722 L -35.6871,-399.353 L -36,-399.059 L -36,-400.49 L -39,-400.49
 L -39,-355.51 L -36,-355.51 z
M -32.2512,-357.008 L -32.7495,-357.071 L -33.2361,-357.196 L -33.7031,-357.381 L -34.1433,-357.623 L -34.5497,-357.918
 L -34.9159,-358.262 L -35.2361,-358.649 L -35.5052,-359.073 L -35.7191,-359.528 L -35.8743,-360.005 L -35.9685,-360.499
 L -36,-361 L -36,-395 L -35.9685,-395.501 L -35.8743,-395.995 L -35.7191,-396.472 L -35.5052,-396.927
 L -35.2361,-397.351 L -34.9159,-397.738 L -34.5497,-398.082 L -34.1433,-398.377 L -33.7031,-398.619 L -33.2361,-398.804
 L -32.7495,-398.929 L -32.2512,-398.992 L 32.2512,-398.992 L 32.7495,-398.929 L 33.2361,-398.804 L 33.7031,-398.619
 L 34.1433,-398.377 L 34.5497,-398.082 L 34.9159,-397.738 L 35.2361,-397.351 L 35.5052,-396.927 L 35.7191,-396.472
 L 35.8743,-395.995 L 35.9685,-395.501 L 36,-395 L 36,-361 L 35.9685,-360.499 L 35.8743,-360.005
 L 35.7191,-359.528 L 35.5052,-359.073 L 35.2361,-358.649 L 34.9159,-358.262 L 34.5497,-357.918 L 34.1433,-357.623
 L 33.7031,-357.381 L 33.2361,-357.196 L 32.7495,-357.071 L 32.2512,-357.008 z
M 33.4369,-301.589 L 34.0451,-301.745 L 34.6289,-301.976 L 35.1791,-302.278 L 35.6871,-302.647 L 36.1448,-303.077
 L 36.5451,-303.561 L 36.8815,-304.091 L 37.1489,-304.659 L 37.3429,-305.257 L 37.4606,-305.873 L 37.5,-306.5
 L 37.5,-341.5 L 37.4606,-342.127 L 37.3429,-342.743 L 37.1489,-343.341 L 36.8815,-343.909 L 36.5451,-344.439
 L 36.1448,-344.923 L 35.6871,-345.353 L 35.1791,-345.722 L 34.6289,-346.024 L 34.0451,-346.255 L 33.4369,-346.411
 L 32.8139,-346.49 L -32.8139,-346.49 L -33.4369,-346.411 L -34.0451,-346.255 L -34.6289,-346.024 L -35.1791,-345.722
 L -35.6871,-345.353 L -36,-345.059 L -36,-346.479 L -39,-346.479 L -39,-301.521 L -36,-301.521
 L -36,-302.941 L -35.6871,-302.647 L -35.1791,-302.278 L -34.6289,-301.976 L -34.0451,-301.745 L -33.4369,-301.589
 L -32.8139,-301.51 L 32.8139,-301.51 z
M -32.1954,-303.893 L -32.5833,-303.942 L -32.9619,-304.039 L -33.3254,-304.183 L -33.668,-304.372 L -33.9842,-304.601
 L -34.2692,-304.869 L -34.5184,-305.17 L -34.7279,-305.5 L -34.8943,-305.854 L -35.0151,-306.226 L -35.0884,-306.61
 L -35.1129,-307 L -35.1129,-341 L -35.0884,-341.39 L -35.0151,-341.774 L -34.8943,-342.146 L -34.7279,-342.5
 L -34.5184,-342.83 L -34.2692,-343.131 L -33.9842,-343.399 L -33.668,-343.628 L -33.3254,-343.817 L -32.9619,-343.961
 L -32.5833,-344.058 L -32.1954,-344.107 L 32.1954,-344.107 L 32.5833,-344.058 L 32.9619,-343.961 L 33.3254,-343.817
 L 33.668,-343.628 L 33.9842,-343.399 L 34.2692,-343.131 L 34.5184,-342.83 L 34.7279,-342.5 L 34.8943,-342.146
 L 35.0151,-341.774 L 35.0884,-341.39 L 35.1129,-341 L 35.1129,-307 L 35.0884,-306.61 L 35.0151,-306.226
 L 34.8943,-305.854 L 34.7279,-305.5 L 34.5184,-305.17 L 34.2692,-304.869 L 33.9842,-304.601 L 33.668,-304.372
 L 33.3254,-304.183 L 32.9619,-304.039 L 32.5833,-303.942 L 32.1954,-303.893 z
M 33.4369,-247.589 L 34.0451,-247.745 L 34.6289,-247.976 L 35.1791,-248.278 L 35.6871,-248.647 L 36.1448,-249.077
 L 36.5451,-249.561 L 36.8815,-250.091 L 37.1489,-250.659 L 37.3429,-251.257 L 37.4606,-251.873 L 37.5,-252.5
 L 37.5,-287.5 L 37.4606,-288.127 L 37.3429,-288.743 L 37.1489,-289.341 L 36.8815,-289.909 L 36.5451,-290.439
 L 36.1448,-290.923 L 35.6871,-291.353 L 35.1791,-291.722 L 34.6289,-292.024 L 34.0451,-292.255 L 33.4369,-292.411
 L 32.8139,-292.49 L -32.8139,-292.49 L -33.4369,-292.411 L -34.0451,-292.255 L -34.6289,-292.024 L -35.1791,-291.722
 L -35.6871,-291.353 L -36,-291.059 L -36,-291.153 L -39,-291.153 L -39,-248.847 L -36,-248.847
 L -36,-248.941 L -35.6871,-248.647 L -35.1791,-248.278 L -34.6289,-247.976 L -34.0451,-247.745 L -33.4369,-247.589
 L -32.8139,-247.51 L 32.8139,-247.51 z
M -30.1341,-282.869 L -30.4001,-282.903 L -30.6598,-282.969 L -30.9091,-283.068 L -31.1441,-283.197 L -31.3611,-283.355
 L -31.5565,-283.538 L -31.7275,-283.745 L -31.8712,-283.971 L -31.9853,-284.214 L -32.0682,-284.469 L -32.1185,-284.732
 L -32.1353,-285 L -32.1185,-285.268 L -32.0682,-285.531 L -31.9853,-285.786 L -31.8712,-286.029 L -31.7275,-286.255
 L -31.5565,-286.462 L -31.3611,-286.645 L -31.1441,-286.803 L -30.9091,-286.932 L -30.6598,-287.031 L -30.4001,-287.097
 L -30.1341,-287.131 L -29.8659,-287.131 L -29.5999,-287.097 L -29.3401,-287.031 L -29.0908,-286.932 L -28.8559,-286.803
 L -28.6389,-286.645 L -28.4434,-286.462 L -28.2725,-286.255 L -28.1288,-286.029 L -28.0146,-285.786 L -27.9318,-285.531
 L -27.8815,-285.268 L -27.8647,-285 L -27.8815,-284.732 L -27.9318,-284.469 L -28.0146,-284.214 L -28.1288,-283.971
 L -28.2725,-283.745 L -28.4434,-283.538 L -28.6389,-283.355 L -28.8559,-283.197 L -29.0908,-283.068 L -29.3401,-282.969
 L -29.5999,-282.903 L -29.8659,-282.869 z
M 29.8659,-282.869 L 29.5999,-282.903 L 29.3401,-282.969 L 29.0908,-283.068 L 28.8559,-283.197 L 28.6389,-283.355
 L 28.4434,-283.538 L 28.2725,-283.745 L 28.1288,-283.971 L 28.0146,-284.214 L 27.9318,-284.469 L 27.8815,-284.732
 L 27.8647,-285 L 27.8815,-285.268 L 27.9318,-285.531 L 28.0146,-285.786 L 28.1288,-286.029 L 28.2725,-286.255
 L 28.4434,-286.462 L 28.6389,-286.645 L 28.8559,-286.803 L 29.0908,-286.932 L 29.3401,-287.031 L 29.5999,-287.097
 L 29.8659,-287.131 L 30.1341,-287.131 L 30.4001,-287.097 L 30.6598,-287.031 L 30.9091,-286.932 L 31.1441,-286.803
 L 31.3611,-286.645 L 31.5565,-286.462 L 31.7275,-286.255 L 31.8712,-286.029 L 31.9853,-285.786 L 32.0682,-285.531
 L 32.1185,-285.268 L 32.1353,-285 L 32.1185,-284.732 L 32.0682,-284.469 L 31.9853,-284.214 L 31.8712,-283.971
 L 31.7275,-283.745 L 31.5565,-283.538 L 31.3611,-283.355 L 31.1441,-283.197 L 30.9091,-283.068 L 30.6598,-282.969
 L 30.4001,-282.903 L 30.1341,-282.869 z
M -30.1341,-252.869 L -30.4001,-252.903 L -30.6598,-252.969 L -30.9091,-253.068 L -31.1441,-253.197 L -31.3611,-253.355
 L -31.5565,-253.538 L -31.7275,-253.745 L -31.8712,-253.971 L -31.9853,-254.214 L -32.0682,-254.469 L -32.1185,-254.732
 L -32.1353,-255 L -32.1185,-255.268 L -32.0682,-255.531 L -31.9853,-255.786 L -31.8712,-256.029 L -31.7275,-256.255
 L -31.5565,-256.462 L -31.3611,-256.645 L -31.1441,-256.803 L -30.9091,-256.932 L -30.6598,-257.031 L -30.4001,-257.097
 L -30.1341,-257.131 L -29.8659,-257.131 L -29.5999,-257.097 L -29.3401,-257.031 L -29.0908,-256.932 L -28.8559,-256.803
 L -28.6389,-256.645 L -28.4434,-256.462 L -28.2725,-256.255 L -28.1288,-256.029 L -28.0146,-255.786 L -27.9318,-255.531
 L -27.8815,-255.268 L -27.8647,-255 L -27.8815,-254.732 L -27.9318,-254.469 L -28.0146,-254.214 L -28.1288,-253.971
 L -28.2725,-253.745 L -28.4434,-253.538 L -28.6389,-253.355 L -28.8559,-253.197 L -29.0908,-253.068 L -29.3401,-252.969
 L -29.5999,-252.903 L -29.8659,-252.869 z
M 29.8659,-252.869 L 29.5999,-252.903 L 29.3401,-252.969 L 29.0908,-253.068 L 28.8559,-253.197 L 28.6389,-253.355
 L 28.4434,-253.538 L 28.2725,-253.745 L 28.1288,-253.971 L 28.0146,-254.214 L 27.9318,-254.469 L 27.8815,-254.732
 L 27.8647,-255 L 27.8815,-255.268 L 27.9318,-255.531 L 28.0146,-255.786 L 28.1288,-256.029 L 28.2725,-256.255
 L 28.4434,-256.462 L 28.6389,-256.645 L 28.8559,-256.803 L 29.0908,-256.932 L 29.3401,-257.031 L 29.5999,-257.097
 L 29.8659,-257.131 L 30.1341,-257.131 L 30.4001,-257.097 L 30.6598,-257.031 L 30.9091,-256.932 L 31.1441,-256.803
 L 31.3611,-256.645 L 31.5565,-256.462 L 31.7275,-256.255 L 31.8712,-256.029 L 31.9853,-255.786 L 32.0682,-255.531
 L 32.1185,-255.268 L 32.1353,-255 L 32.1185,-254.732 L 32.0682,-254.469 L 31.9853,-254.214 L 31.8712,-253.971
 L 31.7275,-253.745 L 31.5565,-253.538 L 31.3611,-253.355 L 31.1441,-253.197 L 30.9091,-253.068 L 30.6598,-252.969
 L 30.4001,-252.903 L 30.1341,-252.869 z
" stroke="black" fill="lightgray" stroke-width="0.5"/>
</svg>
