<?xml version="1.0" standalone="no"?>
<!DOCTYPE svg PUBLIC "-//W3C//DTD SVG 1.1//EN" "http://www.w3.org/Graphics/SVG/1.1/DTD/svg11.dtd">
<svg width="16mm" height="249mm" viewBox="-8 -447 16 249" xmlns="http://www.w3.org/2000/svg" version="1.1">
<title>OpenSCAD Model</title>
<path d="
M 3.4369,-327.089 L 4.04507,-327.245 L 4.62889,-327.476 L 5.17912,-327.778 L 5.68712,-328.147 L 6.14484,-328.577
 L 6.54507,-329.061 L 6.88153,-329.591 L 7.14888,-330.159 L 7.34291,-330.757 L 7.46057,-331.373 L 7.5,-332
 L 7.5,-442 L 7.46057,-442.627 L 7.34291,-443.243 L 7.14888,-443.841 L 6.88153,-444.409 L 6.54507,-444.939
 L 6.14484,-445.423 L 5.68712,-445.853 L 5.17912,-446.222 L 4.62889,-446.524 L 4.04507,-446.755 L 3.4369,-446.911
 L 2.81395,-446.99 L -2.81395,-446.99 L -3.4369,-446.911 L -4.04507,-446.755 L -4.62889,-446.524 L -5.17912,-446.222
 L -5.68712,-445.853 L -6.14484,-445.423 L -6.54507,-444.939 L -6.88153,-444.409 L -7.14888,-443.841 L -7.34291,-443.243
 L -7.46057,-442.627 L -7.5,-442 L -7.5,-332 L -7.46057,-331.373 L -7.34291,-330.757 L -7.14888,-330.159
 L -6.88153,-329.591 L -6.54507,-329.061 L -6.14484,-328.577 L -5.68712,-328.147 L -5.17912,-327.778 L -4.62889,-327.476
 L -4.04507,-327.245 L -3.4369,-327.089 L -2.81395,-327.01 L 2.81395,-327.01 z
M -2.19545,-329.393 L -2.5833,-329.442 L -2.96194,-329.539 L -3.32541,-329.683 L -3.66798,-329.872 L -3.98424,-330.101
 L -4.26921,-330.369 L -4.5184,-330.67 L -4.72786,-331 L -4.89432,-331.354 L -5.01512,-331.726 L -5.08836,-332.11
 L -5.11292,-332.5 L -5.11292,-441.5 L -5.08836,-441.89 L -5.01512,-442.274 L -4.89432,-442.646 L -4.72786,-443
 L -4.5184,-443.33 L -4.26921,-443.631 L -3.98424,-443.899 L -3.66798,-444.128 L -3.32541,-444.317 L -2.96194,-444.461
 L -2.5833,-444.558 L -2.19545,-444.607 L 2.19545,-444.607 L 2.5833,-444.558 L 2.96194,-444.461 L 3.32541,-444.317
 L 3.66798,-444.128 L 3.98424,-443.899 L 4.26921,-443.631 L 4.5184,-443.33 L 4.72786,-443 L 4.89432,-442.646
 L 5.01512,-442.274 L 5.08836,-441.89 L 5.11292,-441.5 L 5.11292,-332.5 L 5.08836,-332.11 L 5.01512,-331.726
 L 4.89432,-331.354 L 4.72786,-331 L 4.5184,-330.67 L 4.26921,-330.369 L 3.98424,-330.101 L 3.66798,-329.872
 L 3.32541,-329.683 L 2.96194,-329.539 L 2.5833,-329.442 L 2.19545,-329.393 z
M 3.4369,-198.089 L 4.04507,-198.245 L 4.62889,-198.476 L 5.17912,-198.778 L 5.68712,-199.147 L 6.14484,-199.577
 L 6.54507,-200.061 L 6.88153,-200.591 L 7.14888,-201.159 L 7.34291,-201.757 L 7.46057,-202.373 L 7.5,-203
 L 7.5,-313 L 7.46057,-313.627 L 7.34291,-314.243 L 7.14888,-314.841 L 6.88153,-315.409 L 6.54507,-315.939
 L 6.14484,-316.423 L 5.68712,-316.853 L 5.17912,-317.222 L 4.62889,-317.524 L 4.04507,-317.755 L 3.4369,-317.911
 L 2.81395,-317.99 L -2.81395,-317.99 L -3.4369,-317.911 L -4.04507,-317.755 L -4.62889,-317.524 L -5.17912,-317.222
 L -5.68712,-316.853 L -6.14484,-316.423 L -6.54507,-315.939 L -6.88153,-315.409 L -7.14888,-314.841 L -7.34291,-314.243
 L -7.46057,-313.627 L -7.5,-313 L -7.5,-203 L -7.46057,-202.373 L -7.34291,-201.757 L -7.14888,-201.159
 L -6.88153,-200.591 L -6.54507,-200.061 L -6.14484,-199.577 L -5.68712,-199.147 L -5.17912,-198.778 L -4.62889,-198.476
 L -4.04507,-198.245 L -3.4369,-198.089 L -2.81395,-198.01 L 2.81395,-198.01 z
M -0.134064,-308.369 L -0.400101,-308.403 L -0.659836,-308.469 L -0.909149,-308.568 L -1.14413,-308.697 L -1.36108,-308.855
 L -1.55655,-309.038 L -1.72748,-309.245 L -1.87117,-309.471 L -1.98534,-309.714 L -2.06821,-309.969 L -2.11845,-310.232
 L -2.13528,-310.5 L -2.11845,-310.768 L -2.06821,-311.031 L -1.98534,-311.286 L -1.87117,-311.529 L -1.72748,-311.755
 L -1.55655,-311.962 L -1.36108,-312.145 L -1.14413,-312.303 L -0.909149,-312.432 L -0.659836,-312.531 L -0.400101,-312.597
 L -0.134064,-312.631 L 0.134064,-312.631 L 0.400101,-312.597 L 0.659836,-312.531 L 0.909149,-312.432 L 1.14413,-312.303
 L 1.36108,-312.145 L 1.55655,-311.962 L 1.72748,-311.755 L 1.87117,-311.529 L 1.98534,-311.286 L 2.06821,-311.031
 L 2.11845,-310.768 L 2.13528,-310.5 L 2.11845,-310.232 L 2.06821,-309.969 L 1.98534,-309.714 L 1.87117,-309.471
 L 1.72748,-309.245 L 1.55655,-309.038 L 1.36108,-308.855 L 1.14413,-308.697 L 0.909149,-308.568 L 0.659836,-308.469
 L 0.400101,-308.403 L 0.134064,-308.369 z
M -0.134064,-203.369 L -0.400101,-203.403 L -0.659836,-203.469 L -0.909149,-203.568 L -1.14413,-203.697 L -1.36108,-203.855
 L -1.55655,-204.038 L -1.72748,-204.245 L -1.87117,-204.471 L -1.98534,-204.714 L -2.06821,-204.969 L -2.11845,-205.232
 L -2.13528,-205.5 L -2.11845,-205.768 L -2.06821,-206.031 L -1.98534,-206.286 L -1.87117,-206.529 L -1.72748,-206.755
 L -1.55655,-206.962 L -1.36108,-207.145 L -1.14413,-207.303 L -0.909149,-207.432 L -0.659836,-207.531 L -0.400101,-207.597
 L -0.134064,-207.631 L 0.134064,-207.631 L 0.400101,-207.597 L 0.659836,-207.531 L 0.909149,-207.432 L 1.14413,-207.303
 L 1.36108,-207.145 L 1.55655,-206.962 L 1.72748,-206.755 L 1.87117,-206.529 L 1.98534,-206.286 L 2.06821,-206.031
 L 2.11845,-205.768 L 2.13528,-205.5 L 2.11845,-205.232 L 2.06821,-204.969 L 1.98534,-204.714 L 1.87117,-204.471
 L 1.72748,-204.245 L 1.55655,-204.038 L 1.36108,-203.855 L 1.14413,-203.697 L 0.909149,-203.568 L 0.659836,-203.469
 L 0.400101,-203.403 L 0.134064,-203.369 z
" stroke="black" fill="lightgray" stroke-width="0.5"/>
</svg>
