<?xml version="1.0" standalone="no"?>
<!DOCTYPE svg PUBLIC "-//W3C//DTD SVG 1.1//EN" "http://www.w3.org/Graphics/SVG/1.1/DTD/svg11.dtd">
<svg width="30mm" height="69mm" viewBox="-15 -93 30 69" xmlns="http://www.w3.org/2000/svg" version="1.1">
<title>OpenSCAD Model</title>
<path d="
M 10.9369,-63.0886 L 11.5451,-63.2447 L 12.1289,-63.4759 L 12.6791,-63.7784 L 13.1871,-64.1474 L 13.6448,-64.5773
 L 14.0451,-65.0611 L 14.3815,-65.5912 L 14.6489,-66.1594 L 14.8429,-66.7566 L 14.9606,-67.3733 L 15,-68
 L 15,-88 L 14.9606,-88.6267 L 14.8429,-89.2434 L 14.6489,-89.8406 L 14.3815,-90.4088 L 14.0451,-90.9389
 L 13.6448,-91.4227 L 13.1871,-91.8526 L 12.6791,-92.2216 L 12.1289,-92.5241 L 11.5451,-92.7553 L 10.9369,-92.9114
 L 10.3139,-92.9901 L -10.3139,-92.9901 L -10.9369,-92.9114 L -11.5451,-92.7553 L -12.1289,-92.5241 L -12.6791,-92.2216
 L -13.1871,-91.8526 L -13.6448,-91.4227 L -14.0451,-90.9389 L -14.3815,-90.4088 L -14.6489,-89.8406 L -14.8429,-89.2434
 L -14.9606,-88.6267 L -15,-88 L -15,-68 L -14.9606,-67.3733 L -14.8429,-66.7566 L -14.6489,-66.1594
 L -14.3815,-65.5912 L -14.0451,-65.0611 L -13.6448,-64.5773 L -13.1871,-64.1474 L -12.6791,-63.7784 L -12.1289,-63.4759
 L -11.5451,-63.2447 L -10.9369,-63.0886 L -10.3139,-63.0099 L 10.3139,-63.0099 z
M 10.9369,-24.0886 L 11.5451,-24.2447 L 12.1289,-24.4759 L 12.6791,-24.7784 L 13.1871,-25.1474 L 13.6448,-25.5773
 L 14.0451,-26.0611 L 14.3815,-26.5912 L 14.6489,-27.1594 L 14.8429,-27.7566 L 14.9606,-28.3733 L 15,-29
 L 15,-49 L 14.9606,-49.6267 L 14.8429,-50.2434 L 14.6489,-50.8406 L 14.3815,-51.4088 L 14.0451,-51.9389
 L 13.6448,-52.4227 L 13.1871,-52.8526 L 12.6791,-53.2216 L 12.1289,-53.5241 L 11.5451,-53.7553 L 10.9369,-53.9114
 L 10.3139,-53.9901 L -10.3139,-53.9901 L -10.9369,-53.9114 L -11.5451,-53.7553 L -12.1289,-53.5241 L -12.6791,-53.2216
 L -13.1871,-52.8526 L -13.6448,-52.4227 L -14.0451,-51.9389 L -14.3815,-51.4088 L -14.6489,-50.8406 L -14.8429,-50.2434
 L -14.9606,-49.6267 L -15,-49 L -15,-29 L -14.9606,-28.3733 L -14.8429,-27.7566 L -14.6489,-27.1594
 L -14.3815,-26.5912 L -14.0451,-26.0611 L -13.6448,-25.5773 L -13.1871,-25.1474 L -12.6791,-24.7784 L -12.1289,-24.4759
 L -11.5451,-24.2447 L -10.9369,-24.0886 L -10.3139,-24.0099 L 10.3139,-24.0099 z
M 7.38696,-44.7036 L 7.1627,-44.7319 L 6.94376,-44.7881 L 6.7336,-44.8713 L 6.53551,-44.9802 L 6.35263,-45.1131
 L 6.18785,-45.2678 L 6.04376,-45.442 L 5.92264,-45.6328 L 5.8264,-45.8374 L 5.75655,-46.0524 L 5.71419,-46.2744
 L 5.7,-46.5 L 5.71419,-46.7256 L 5.75655,-46.9476 L 5.8264,-47.1626 L 5.92264,-47.3671 L 6.04376,-47.558
 L 6.18785,-47.7322 L 6.35263,-47.8869 L 6.53551,-48.0198 L 6.7336,-48.1287 L 6.94376,-48.2119 L 7.1627,-48.2681
 L 7.38696,-48.2964 L 7.61302,-48.2964 L 7.83728,-48.2681 L 8.05623,-48.2119 L 8.26639,-48.1287 L 8.46448,-48.0198
 L 8.64735,-47.8869 L 8.81213,-47.7322 L 8.95622,-47.558 L 9.07735,-47.3671 L 9.17358,-47.1626 L 9.24344,-46.9476
 L 9.2858,-46.7256 L 9.29999,-46.5 L 9.2858,-46.2744 L 9.24344,-46.0524 L 9.17358,-45.8374 L 9.07735,-45.6328
 L 8.95622,-45.442 L 8.81213,-45.2678 L 8.64735,-45.1131 L 8.46448,-44.9802 L 8.26639,-44.8713 L 8.05623,-44.7881
 L 7.83728,-44.7319 L 7.61302,-44.7036 z
M -7.61302,-44.7036 L -7.83728,-44.7319 L -8.05623,-44.7881 L -8.26639,-44.8713 L -8.46448,-44.9802 L -8.64735,-45.1131
 L -8.81213,-45.2678 L -8.95622,-45.442 L -9.07735,-45.6328 L -9.17358,-45.8374 L -9.24344,-46.0524 L -9.2858,-46.2744
 L -9.29999,-46.5 L -9.2858,-46.7256 L -9.24344,-46.9476 L -9.17358,-47.1626 L -9.07735,-47.3671 L -8.95622,-47.558
 L -8.81213,-47.7322 L -8.64735,-47.8869 L -8.46448,-48.0198 L -8.26639,-48.1287 L -8.05623,-48.2119 L -7.83728,-48.2681
 L -7.61302,-48.2964 L -7.38696,-48.2964 L -7.1627,-48.2681 L -6.94376,-48.2119 L -6.7336,-48.1287 L -6.53551,-48.0198
 L -6.35263,-47.8869 L -6.18785,-47.7322 L -6.04376,-47.558 L -5.92264,-47.3671 L -5.8264,-47.1626 L -5.75655,-46.9476
 L -5.71419,-46.7256 L -5.7,-46.5 L -5.71419,-46.2744 L -5.75655,-46.0524 L -5.8264,-45.8374 L -5.92264,-45.6328
 L -6.04376,-45.442 L -6.18785,-45.2678 L -6.35263,-45.1131 L -6.53551,-44.9802 L -6.7336,-44.8713 L -6.94376,-44.7881
 L -7.1627,-44.7319 L -7.38696,-44.7036 z
M 7.38696,-29.7036 L 7.1627,-29.7319 L 6.94376,-29.7881 L 6.7336,-29.8713 L 6.53551,-29.9802 L 6.35263,-30.1131
 L 6.18785,-30.2678 L 6.04376,-30.442 L 5.92264,-30.6329 L 5.8264,-30.8374 L 5.75655,-31.0524 L 5.71419,-31.2744
 L 5.7,-31.5 L 5.71419,-31.7256 L 5.75655,-31.9476 L 5.8264,-32.1626 L 5.92264,-32.3672 L 6.04376,-32.558
 L 6.18785,-32.7322 L 6.35263,-32.8869 L 6.53551,-33.0198 L 6.7336,-33.1287 L 6.94376,-33.2119 L 7.1627,-33.2681
 L 7.38696,-33.2964 L 7.61302,-33.2964 L 7.83728,-33.2681 L 8.05623,-33.2119 L 8.26639,-33.1287 L 8.46448,-33.0198
 L 8.64735,-32.8869 L 8.81213,-32.7322 L 8.95622,-32.558 L 9.07735,-32.3672 L 9.17358,-32.1626 L 9.24344,-31.9476
 L 9.2858,-31.7256 L 9.29999,-31.5 L 9.2858,-31.2744 L 9.24344,-31.0524 L 9.17358,-30.8374 L 9.07735,-30.6329
 L 8.95622,-30.442 L 8.81213,-30.2678 L 8.64735,-30.1131 L 8.46448,-29.9802 L 8.26639,-29.8713 L 8.05623,-29.7881
 L 7.83728,-29.7319 L 7.61302,-29.7036 z
M -7.61302,-29.7036 L -7.83728,-29.7319 L -8.05623,-29.7881 L -8.26639,-29.8713 L -8.46448,-29.9802 L -8.64735,-30.1131
 L -8.81213,-30.2678 L -8.95622,-30.442 L -9.07735,-30.6329 L -9.17358,-30.8374 L -9.24344,-31.0524 L -9.2858,-31.2744
 L -9.29999,-31.5 L -9.2858,-31.7256 L -9.24344,-31.9476 L -9.17358,-32.1626 L -9.07735,-32.3672 L -8.95622,-32.558
 L -8.81213,-32.7322 L -8.64735,-32.8869 L -8.46448,-33.0198 L -8.26639,-33.1287 L -8.05623,-33.2119 L -7.83728,-33.2681
 L -7.61302,-33.2964 L -7.38696,-33.2964 L -7.1627,-33.2681 L -6.94376,-33.2119 L -6.7336,-33.1287 L -6.53551,-33.0198
 L -6.35263,-32.8869 L -6.18785,-32.7322 L -6.04376,-32.558 L -5.92264,-32.3672 L -5.8264,-32.1626 L -5.75655,-31.9476
 L -5.71419,-31.7256 L -5.7,-31.5 L -5.71419,-31.2744 L -5.75655,-31.0524 L -5.8264,-30.8374 L -5.92264,-30.6329
 L -6.04376,-30.442 L -6.18785,-30.2678 L -6.35263,-30.1131 L -6.53551,-29.9802 L -6.7336,-29.8713 L -6.94376,-29.7881
 L -7.1627,-29.7319 L -7.38696,-29.7036 z
" stroke="black" fill="lightgray" stroke-width="0.5"/>
</svg>
