<?xml version="1.0" standalone="no"?>
<!DOCTYPE svg PUBLIC "-//W3C//DTD SVG 1.1//EN" "http://www.w3.org/Graphics/SVG/1.1/DTD/svg11.dtd">
<svg width="46mm" height="468mm" viewBox="-23 -870 46 468" xmlns="http://www.w3.org/2000/svg" version="1.1">
<title>OpenSCAD Model</title>
<path d="
M 18.4369,-720.089 L 19.0451,-720.245 L 19.6289,-720.476 L 20.1791,-720.778 L 20.6871,-721.147 L 21.1448,-721.577
 L 21.5451,-722.061 L 21.8815,-722.591 L 22.1489,-723.159 L 22.3429,-723.757 L 22.4606,-724.373 L 22.5,-725
 L 22.5,-865 L 22.4606,-865.627 L 22.3429,-866.243 L 22.1489,-866.841 L 21.8815,-867.409 L 21.5451,-867.939
 L 21.1448,-868.423 L 20.6871,-868.853 L 20.1791,-869.222 L 19.6289,-869.524 L 19.0451,-869.755 L 18.4369,-869.911
 L 17.8139,-869.99 L -17.8139,-869.99 L -18.4369,-869.911 L -19.0451,-869.755 L -19.6289,-869.524 L -20.1791,-869.222
 L -20.6871,-868.853 L -21.1448,-868.423 L -21.5451,-867.939 L -21.8815,-867.409 L -22.1489,-866.841 L -22.3429,-866.243
 L -22.4606,-865.627 L -22.5,-865 L -22.5,-725 L -22.4606,-724.373 L -22.3429,-723.757 L -22.1489,-723.159
 L -21.8815,-722.591 L -21.5451,-722.061 L -21.1448,-721.577 L -20.6871,-721.147 L -20.1791,-720.778 L -19.6289,-720.476
 L -19.0451,-720.245 L -18.4369,-720.089 L -17.8139,-720.01 L 17.8139,-720.01 z
M -17.2512,-721.508 L -17.7495,-721.571 L -18.2361,-721.696 L -18.7031,-721.881 L -19.1433,-722.123 L -19.5497,-722.418
 L -19.9159,-722.762 L -20.2361,-723.149 L -20.5052,-723.573 L -20.7191,-724.028 L -20.8743,-724.505 L -20.9684,-724.999
 L -21,-725.5 L -21,-864.5 L -20.9684,-865.001 L -20.8743,-865.495 L -20.7191,-865.972 L -20.5052,-866.427
 L -20.2361,-866.851 L -19.9159,-867.238 L -19.5497,-867.582 L -19.1433,-867.877 L -18.7031,-868.119 L -18.2361,-868.304
 L -17.7495,-868.429 L -17.2512,-868.492 L 17.2512,-868.492 L 17.7495,-868.429 L 18.2361,-868.304 L 18.7031,-868.119
 L 19.1433,-867.877 L 19.5497,-867.582 L 19.9159,-867.238 L 20.2361,-866.851 L 20.5052,-866.427 L 20.7191,-865.972
 L 20.8743,-865.495 L 20.9684,-865.001 L 21,-864.5 L 21,-725.5 L 20.9684,-724.999 L 20.8743,-724.505
 L 20.7191,-724.028 L 20.5052,-723.573 L 20.2361,-723.149 L 19.9159,-722.762 L 19.5497,-722.418 L 19.1433,-722.123
 L 18.7031,-721.881 L 18.2361,-721.696 L 17.7495,-721.571 L 17.2512,-721.508 z
M 18.4369,-561.089 L 19.0451,-561.245 L 19.6289,-561.476 L 20.1791,-561.778 L 20.6871,-562.147 L 21.1448,-562.577
 L 21.5451,-563.061 L 21.8815,-563.591 L 22.1489,-564.159 L 22.3429,-564.757 L 22.4606,-565.373 L 22.5,-566
 L 22.5,-706 L 22.4606,-706.627 L 22.3429,-707.243 L 22.1489,-707.841 L 21.8815,-708.409 L 21.5451,-708.939
 L 21.1448,-709.423 L 20.6871,-709.853 L 20.1791,-710.222 L 19.6289,-710.524 L 19.0451,-710.755 L 18.4369,-710.911
 L 17.8139,-710.99 L -17.8139,-710.99 L -18.4369,-710.911 L -19.0451,-710.755 L -19.6289,-710.524 L -20.1791,-710.222
 L -20.6871,-709.853 L -21.1448,-709.423 L -21.5451,-708.939 L -21.8815,-708.409 L -22.1489,-707.841 L -22.3429,-707.243
 L -22.4606,-706.627 L -22.5,-706 L -22.5,-566 L -22.4606,-565.373 L -22.3429,-564.757 L -22.1489,-564.159
 L -21.8815,-563.591 L -21.5451,-563.061 L -21.1448,-562.577 L -20.6871,-562.147 L -20.1791,-561.778 L -19.6289,-561.476
 L -19.0451,-561.245 L -18.4369,-561.089 L -17.8139,-561.01 L 17.8139,-561.01 z
M -17.1954,-563.393 L -17.5833,-563.442 L -17.9619,-563.539 L -18.3254,-563.683 L -18.668,-563.872 L -18.9842,-564.101
 L -19.2692,-564.369 L -19.5184,-564.67 L -19.7279,-565 L -19.8943,-565.354 L -20.0151,-565.726 L -20.0884,-566.11
 L -20.1129,-566.5 L -20.1129,-705.5 L -20.0884,-705.89 L -20.0151,-706.274 L -19.8943,-706.646 L -19.7279,-707
 L -19.5184,-707.33 L -19.2692,-707.631 L -18.9842,-707.899 L -18.668,-708.128 L -18.3254,-708.317 L -17.9619,-708.461
 L -17.5833,-708.558 L -17.1954,-708.607 L 17.1954,-708.607 L 17.5833,-708.558 L 17.9619,-708.461 L 18.3254,-708.317
 L 18.668,-708.128 L 18.9842,-707.899 L 19.2692,-707.631 L 19.5184,-707.33 L 19.7279,-707 L 19.8943,-706.646
 L 20.0151,-706.274 L 20.0884,-705.89 L 20.1129,-705.5 L 20.1129,-566.5 L 20.0884,-566.11 L 20.0151,-565.726
 L 19.8943,-565.354 L 19.7279,-565 L 19.5184,-564.67 L 19.2692,-564.369 L 18.9842,-564.101 L 18.668,-563.872
 L 18.3254,-563.683 L 17.9619,-563.539 L 17.5833,-563.442 L 17.1954,-563.393 z
M 18.4369,-402.089 L 19.0451,-402.245 L 19.6289,-402.476 L 20.1791,-402.778 L 20.6871,-403.147 L 21.1448,-403.577
 L 21.5451,-404.061 L 21.8815,-404.591 L 22.1489,-405.159 L 22.3429,-405.757 L 22.4606,-406.373 L 22.5,-407
 L 22.5,-547 L 22.4606,-547.627 L 22.3429,-548.243 L 22.1489,-548.841 L 21.8815,-549.409 L 21.5451,-549.939
 L 21.1448,-550.423 L 20.6871,-550.853 L 20.1791,-551.222 L 19.6289,-551.524 L 19.0451,-551.755 L 18.4369,-551.911
 L 17.8139,-551.99 L -17.8139,-551.99 L -18.4369,-551.911 L -19.0451,-551.755 L -19.6289,-551.524 L -20.1791,-551.222
 L -20.6871,-550.853 L -21.1448,-550.423 L -21.5451,-549.939 L -21.8815,-549.409 L -22.1489,-548.841 L -22.3429,-548.243
 L -22.4606,-547.627 L -22.5,-547 L -22.5,-407 L -22.4606,-406.373 L -22.3429,-405.757 L -22.1489,-405.159
 L -21.8815,-404.591 L -21.5451,-404.061 L -21.1448,-403.577 L -20.6871,-403.147 L -20.1791,-402.778 L -19.6289,-402.476
 L -19.0451,-402.245 L -18.4369,-402.089 L -17.8139,-402.01 L 17.8139,-402.01 z
M 14.8659,-542.369 L 14.5999,-542.403 L 14.3401,-542.469 L 14.0908,-542.568 L 13.8559,-542.697 L 13.6389,-542.855
 L 13.4434,-543.038 L 13.2725,-543.245 L 13.1288,-543.471 L 13.0146,-543.714 L 12.9318,-543.969 L 12.8815,-544.232
 L 12.8647,-544.5 L 12.8815,-544.768 L 12.9318,-545.031 L 13.0146,-545.286 L 13.1288,-545.529 L 13.2725,-545.755
 L 13.4434,-545.962 L 13.6389,-546.145 L 13.8559,-546.303 L 14.0908,-546.432 L 14.3401,-546.531 L 14.5999,-546.597
 L 14.8659,-546.631 L 15.1341,-546.631 L 15.4001,-546.597 L 15.6598,-546.531 L 15.9091,-546.432 L 16.1441,-546.303
 L 16.3611,-546.145 L 16.5565,-545.962 L 16.7275,-545.755 L 16.8712,-545.529 L 16.9853,-545.286 L 17.0682,-545.031
 L 17.1185,-544.768 L 17.1353,-544.5 L 17.1185,-544.232 L 17.0682,-543.969 L 16.9853,-543.714 L 16.8712,-543.471
 L 16.7275,-543.245 L 16.5565,-543.038 L 16.3611,-542.855 L 16.1441,-542.697 L 15.9091,-542.568 L 15.6598,-542.469
 L 15.4001,-542.403 L 15.1341,-542.369 z
M -15.1341,-542.369 L -15.4001,-542.403 L -15.6598,-542.469 L -15.9091,-542.568 L -16.1441,-542.697 L -16.3611,-542.855
 L -16.5565,-543.038 L -16.7275,-543.245 L -16.8712,-543.471 L -16.9853,-543.714 L -17.0682,-543.969 L -17.1185,-544.232
 L -17.1353,-544.5 L -17.1185,-544.768 L -17.0682,-545.031 L -16.9853,-545.286 L -16.8712,-545.529 L -16.7275,-545.755
 L -16.5565,-545.962 L -16.3611,-546.145 L -16.1441,-546.303 L -15.9091,-546.432 L -15.6598,-546.531 L -15.4001,-546.597
 L -15.1341,-546.631 L -14.8659,-546.631 L -14.5999,-546.597 L -14.3401,-546.531 L -14.0908,-546.432 L -13.8559,-546.303
 L -13.6389,-546.145 L -13.4434,-545.962 L -13.2725,-545.755 L -13.1288,-545.529 L -13.0146,-545.286 L -12.9318,-545.031
 L -12.8815,-544.768 L -12.8647,-544.5 L -12.8815,-544.232 L -12.9318,-543.969 L -13.0146,-543.714 L -13.1288,-543.471
 L -13.2725,-543.245 L -13.4434,-543.038 L -13.6389,-542.855 L -13.8559,-542.697 L -14.0908,-542.568 L -14.3401,-542.469
 L -14.5999,-542.403 L -14.8659,-542.369 z
M 14.8659,-407.369 L 14.5999,-407.403 L 14.3401,-407.469 L 14.0908,-407.568 L 13.8559,-407.697 L 13.6389,-407.855
 L 13.4434,-408.038 L 13.2725,-408.245 L 13.1288,-408.471 L 13.0146,-408.714 L 12.9318,-408.969 L 12.8815,-409.232
 L 12.8647,-409.5 L 12.8815,-409.768 L 12.9318,-410.031 L 13.0146,-410.286 L 13.1288,-410.529 L 13.2725,-410.755
 L 13.4434,-410.962 L 13.6389,-411.145 L 13.8559,-411.303 L 14.0908,-411.432 L 14.3401,-411.531 L 14.5999,-411.597
 L 14.8659,-411.631 L 15.1341,-411.631 L 15.4001,-411.597 L 15.6598,-411.531 L 15.9091,-411.432 L 16.1441,-411.303
 L 16.3611,-411.145 L 16.5565,-410.962 L 16.7275,-410.755 L 16.8712,-410.529 L 16.9853,-410.286 L 17.0682,-410.031
 L 17.1185,-409.768 L 17.1353,-409.5 L 17.1185,-409.232 L 17.0682,-408.969 L 16.9853,-408.714 L 16.8712,-408.471
 L 16.7275,-408.245 L 16.5565,-408.038 L 16.3611,-407.855 L 16.1441,-407.697 L 15.9091,-407.568 L 15.6598,-407.469
 L 15.4001,-407.403 L 15.1341,-407.369 z
M -15.1341,-407.369 L -15.4001,-407.403 L -15.6598,-407.469 L -15.9091,-407.568 L -16.1441,-407.697 L -16.3611,-407.855
 L -16.5565,-408.038 L -16.7275,-408.245 L -16.8712,-408.471 L -16.9853,-408.714 L -17.0682,-408.969 L -17.1185,-409.232
 L -17.1353,-409.5 L -17.1185,-409.768 L -17.0682,-410.031 L -16.9853,-410.286 L -16.8712,-410.529 L -16.7275,-410.755
 L -16.5565,-410.962 L -16.3611,-411.145 L -16.1441,-411.303 L -15.9091,-411.432 L -15.6598,-411.531 L -15.4001,-411.597
 L -15.1341,-411.631 L -14.8659,-411.631 L -14.5999,-411.597 L -14.3401,-411.531 L -14.0908,-411.432 L -13.8559,-411.303
 L -13.6389,-411.145 L -13.4434,-410.962 L -13.2725,-410.755 L -13.1288,-410.529 L -13.0146,-410.286 L -12.9318,-410.031
 L -12.8815,-409.768 L -12.8647,-409.5 L -12.8815,-409.232 L -12.9318,-408.969 L -13.0146,-408.714 L -13.1288,-408.471
 L -13.2725,-408.245 L -13.4434,-408.038 L -13.6389,-407.855 L -13.8559,-407.697 L -14.0908,-407.568 L -14.3401,-407.469
 L -14.5999,-407.403 L -14.8659,-407.369 z
" stroke="black" fill="lightgray" stroke-width="0.5"/>
</svg>
