<?xml version="1.0" standalone="no"?>
<!DOCTYPE svg PUBLIC "-//W3C//DTD SVG 1.1//EN" "http://www.w3.org/Graphics/SVG/1.1/DTD/svg11.dtd">
<svg width="76mm" height="64mm" viewBox="-38 -128 76 64" xmlns="http://www.w3.org/2000/svg" version="1.1">
<title>OpenSCAD Model</title>
<path d="
M 33.4369,-112.589 L 34.0451,-112.745 L 34.6289,-112.976 L 35.1791,-113.278 L 35.6871,-113.647 L 36.1448,-114.077
 L 36.5451,-114.561 L 36.8815,-115.091 L 37.1489,-115.659 L 37.3429,-116.257 L 37.4606,-116.873 L 37.5,-117.5
 L 37.5,-122.5 L 37.4606,-123.127 L 37.3429,-123.743 L 37.1489,-124.341 L 36.8815,-124.909 L 36.5451,-125.439
 L 36.1448,-125.923 L 35.6871,-126.353 L 35.1791,-126.722 L 34.6289,-127.024 L 34.0451,-127.255 L 33.4369,-127.411
 L 32.8139,-127.49 L -32.8139,-127.49 L -33.4369,-127.411 L -34.0451,-127.255 L -34.6289,-127.024 L -35.1791,-126.722
 L -35.6871,-126.353 L -36.1448,-125.923 L -36.5451,-125.439 L -36.8815,-124.909 L -37.1489,-124.341 L -37.3429,-123.743
 L -37.4606,-123.127 L -37.5,-122.5 L -37.5,-117.5 L -37.4606,-116.873 L -37.3429,-116.257 L -37.1489,-115.659
 L -36.8815,-115.091 L -36.5451,-114.561 L -36.1448,-114.077 L -35.6871,-113.647 L -35.1791,-113.278 L -34.6289,-112.976
 L -34.0451,-112.745 L -33.4369,-112.589 L -32.8139,-112.51 L 32.8139,-112.51 z
M -32.5482,-113.009 L -33.1401,-113.084 L -33.7178,-113.232 L -34.2724,-113.452 L -34.7952,-113.739 L -35.2778,-114.09
 L -35.7126,-114.498 L -36.0928,-114.958 L -36.4124,-115.462 L -36.6664,-116.001 L -36.8508,-116.569 L -36.9625,-117.155
 L -37,-117.75 L -37,-122.25 L -36.9625,-122.845 L -36.8508,-123.431 L -36.6664,-123.999 L -36.4124,-124.538
 L -36.0928,-125.042 L -35.7126,-125.502 L -35.2778,-125.91 L -34.7952,-126.261 L -34.2724,-126.548 L -33.7178,-126.768
 L -33.1401,-126.916 L -32.5482,-126.991 L 32.5482,-126.991 L 33.1401,-126.916 L 33.7178,-126.768 L 34.2724,-126.548
 L 34.7952,-126.261 L 35.2778,-125.91 L 35.7126,-125.502 L 36.0928,-125.042 L 36.4124,-124.538 L 36.6664,-123.999
 L 36.8508,-123.431 L 36.9625,-122.845 L 37,-122.25 L 37,-117.75 L 36.9625,-117.155 L 36.8508,-116.569
 L 36.6664,-116.001 L 36.4124,-115.462 L 36.0928,-114.958 L 35.7126,-114.498 L 35.2778,-114.09 L 34.7952,-113.739
 L 34.2724,-113.452 L 33.7178,-113.232 L 33.1401,-113.084 L 32.5482,-113.009 z
M 33.4369,-88.5886 L 34.0451,-88.7447 L 34.6289,-88.9759 L 35.1791,-89.2784 L 35.6871,-89.6474 L 36.1448,-90.0773
 L 36.5451,-90.5611 L 36.8815,-91.0912 L 37.1489,-91.6594 L 37.3429,-92.2566 L 37.4606,-92.8733 L 37.5,-93.5
 L 37.5,-98.5 L 37.4606,-99.1267 L 37.3429,-99.7434 L 37.1489,-100.341 L 36.8815,-100.909 L 36.5451,-101.439
 L 36.1448,-101.923 L 35.6871,-102.353 L 35.1791,-102.722 L 34.6289,-103.024 L 34.0451,-103.255 L 33.4369,-103.411
 L 32.8139,-103.49 L -32.8139,-103.49 L -33.4369,-103.411 L -34.0451,-103.255 L -34.6289,-103.024 L -35.1791,-102.722
 L -35.6871,-102.353 L -36.1448,-101.923 L -36.5451,-101.439 L -36.8815,-100.909 L -37.1489,-100.341 L -37.3429,-99.7434
 L -37.4606,-99.1267 L -37.5,-98.5 L -37.5,-93.5 L -37.4606,-92.8733 L -37.3429,-92.2566 L -37.1489,-91.6594
 L -36.8815,-91.0912 L -36.5451,-90.5611 L -36.1448,-90.0773 L -35.6871,-89.6474 L -35.1791,-89.2784 L -34.6289,-88.9759
 L -34.0451,-88.7447 L -33.4369,-88.5886 L -32.8139,-88.5099 L 32.8139,-88.5099 z
M -32.5375,-89.1806 L -33.1079,-89.2527 L -33.6648,-89.3956 L -34.1994,-89.6073 L -34.7032,-89.8843 L -35.1684,-90.2223
 L -35.5875,-90.6158 L -35.954,-91.0589 L -36.2621,-91.5443 L -36.5069,-92.0646 L -36.6846,-92.6114 L -36.7923,-93.1762
 L -36.8284,-93.75 L -36.8284,-98.25 L -36.7923,-98.8238 L -36.6846,-99.3886 L -36.5069,-99.9354 L -36.2621,-100.456
 L -35.954,-100.941 L -35.5875,-101.384 L -35.1684,-101.778 L -34.7032,-102.116 L -34.1994,-102.393 L -33.6648,-102.604
 L -33.1079,-102.747 L -32.5375,-102.819 L 32.5375,-102.819 L 33.1079,-102.747 L 33.6648,-102.604 L 34.1994,-102.393
 L 34.7032,-102.116 L 35.1684,-101.778 L 35.5875,-101.384 L 35.954,-100.941 L 36.2621,-100.456 L 36.5069,-99.9354
 L 36.6846,-99.3886 L 36.7923,-98.8238 L 36.8284,-98.25 L 36.8284,-93.75 L 36.7923,-93.1762 L 36.6846,-92.6114
 L 36.5069,-92.0646 L 36.2621,-91.5443 L 35.954,-91.0589 L 35.5875,-90.6158 L 35.1684,-90.2223 L 34.7032,-89.8843
 L 34.1994,-89.6073 L 33.6648,-89.3956 L 33.1079,-89.2527 L 32.5375,-89.1806 z
M 33.4369,-64.5886 L 34.0451,-64.7447 L 34.6289,-64.9759 L 35.1791,-65.2784 L 35.6871,-65.6474 L 36.1448,-66.0773
 L 36.5451,-66.5611 L 36.8815,-67.0912 L 37.1489,-67.6594 L 37.3429,-68.2566 L 37.4606,-68.8733 L 37.5,-69.5
 L 37.5,-74.5 L 37.4606,-75.1267 L 37.3429,-75.7434 L 37.1489,-76.3406 L 36.8815,-76.9088 L 36.5451,-77.4389
 L 36.1448,-77.9227 L 35.6871,-78.3526 L 35.1791,-78.7216 L 34.6289,-79.0241 L 34.0451,-79.2553 L 33.4369,-79.4114
 L 32.8139,-79.4901 L -32.8139,-79.4901 L -33.4369,-79.4114 L -34.0451,-79.2553 L -34.6289,-79.0241 L -35.1791,-78.7216
 L -35.6871,-78.3526 L -36.1448,-77.9227 L -36.5451,-77.4389 L -36.8815,-76.9088 L -37.1489,-76.3406 L -37.3429,-75.7434
 L -37.4606,-75.1267 L -37.5,-74.5 L -37.5,-69.5 L -37.4606,-68.8733 L -37.3429,-68.2566 L -37.1489,-67.6594
 L -36.8815,-67.0912 L -36.5451,-66.5611 L -36.1448,-66.0773 L -35.6871,-65.6474 L -35.1791,-65.2784 L -34.6289,-64.9759
 L -34.0451,-64.7447 L -33.4369,-64.5886 L -32.8139,-64.5099 L 32.8139,-64.5099 z
M -32.3825,-67.6445 L -32.6453,-67.6777 L -32.9019,-67.7436 L -33.1482,-67.8412 L -33.3804,-67.9688 L -33.5947,-68.1245
 L -33.7879,-68.3059 L -33.9567,-68.51 L -34.0987,-68.7337 L -34.2115,-68.9734 L -34.2934,-69.2254 L -34.343,-69.4856
 L -34.3596,-69.75 L -34.3596,-74.25 L -34.343,-74.5144 L -34.2934,-74.7746 L -34.2115,-75.0266 L -34.0987,-75.2663
 L -33.9567,-75.49 L -33.7879,-75.6941 L -33.5947,-75.8755 L -33.3804,-76.0312 L -33.1482,-76.1588 L -32.9019,-76.2564
 L -32.6453,-76.3223 L -32.3825,-76.3555 L 32.3825,-76.3555 L 32.6453,-76.3223 L 32.9019,-76.2564 L 33.1482,-76.1588
 L 33.3804,-76.0312 L 33.5947,-75.8755 L 33.7879,-75.6941 L 33.9567,-75.49 L 34.0987,-75.2663 L 34.2115,-75.0266
 L 34.2934,-74.7746 L 34.343,-74.5144 L 34.3596,-74.25 L 34.3596,-69.75 L 34.343,-69.4856 L 34.2934,-69.2254
 L 34.2115,-68.9734 L 34.0987,-68.7337 L 33.9567,-68.51 L 33.7879,-68.3059 L 33.5947,-68.1245 L 33.3804,-67.9688
 L 33.1482,-67.8412 L 32.9019,-67.7436 L 32.6453,-67.6777 L 32.3825,-67.6445 z
" stroke="black" fill="lightgray" stroke-width="0.5"/>
</svg>
