<?xml version="1.0" standalone="no"?>
<!DOCTYPE svg PUBLIC "-//W3C//DTD SVG 1.1//EN" "http://www.w3.org/Graphics/SVG/1.1/DTD/svg11.dtd">
<svg width="38mm" height="110mm" viewBox="-16 -211 38 110" xmlns="http://www.w3.org/2000/svg" version="1.1">
<title>OpenSCAD Model</title>
<path d="
M 17.9369,-179.089 L 18.5451,-179.245 L 19.1289,-179.476 L 19.6791,-179.778 L 20.1871,-180.147 L 20.6448,-180.577
 L 21.0451,-181.061 L 21.3815,-181.591 L 21.6489,-182.159 L 21.8429,-182.757 L 21.9606,-183.373 L 22,-184
 L 22,-188 L 21.9606,-188.627 L 21.8429,-189.243 L 21.6489,-189.841 L 21.3815,-190.409 L 21.0451,-190.939
 L 20.6448,-191.423 L 20.1871,-191.853 L 19.6791,-192.222 L 19.1289,-192.524 L 18.5451,-192.755 L 17.9369,-192.911
 L 17.3139,-192.99 L 16,-192.99 L 16,-206 L 15.9606,-206.627 L 15.8429,-207.243 L 15.7596,-207.5
 L 14.8647,-207.5 L 14.809,-207.588 L 14.729,-207.685 L 14.6374,-207.771 L 14.5358,-207.844 L 14.4258,-207.905
 L 14.309,-207.951 L 14.1874,-207.982 L 14.0628,-207.998 L 8.93719,-207.998 L 8.81261,-207.982 L 8.69098,-207.951
 L 8.57422,-207.905 L 8.46417,-207.844 L 8.36256,-207.771 L 8.27103,-207.685 L 8.19098,-207.588 L 8.12369,-207.482
 L 8.07022,-207.368 L 8.0314,-207.249 L 8.00787,-207.125 L 8,-207 L 8.00787,-206.875 L 8.0314,-206.751
 L 8.07022,-206.632 L 8.12369,-206.518 L 8.19098,-206.412 L 8.27103,-206.315 L 8.36256,-206.229 L 8.46417,-206.156
 L 8.57422,-206.095 L 8.69098,-206.049 L 8.81261,-206.018 L 8.93719,-206.002 L 9.75,-206.002 L 9.75,-206
 L 8.92627,-206 L 10.07,-204.926 L 11.2307,-203.523 L 12.2064,-201.985 L 12.9818,-200.338 L 13.5444,-198.606
 L 13.8857,-196.817 L 14,-195 L 13.8857,-193.183 L 13.5444,-191.394 L 12.9818,-189.662 L 12.2064,-188.015
 L 11.2307,-186.477 L 10.07,-185.074 L 8.74265,-183.828 L 7.26949,-182.757 L 5.6738,-181.88 L 3.98074,-181.21
 L 2.21703,-180.757 L 0.410461,-180.529 L -1.41046,-180.529 L -3.21703,-180.757 L -4.98074,-181.21 L -6.6738,-181.88
 L -8.26949,-182.757 L -9.74265,-183.828 L -11.07,-185.074 L -12.2307,-186.477 L -13.2064,-188.015 L -13.9818,-189.662
 L -14.5444,-191.394 L -14.8857,-193.183 L -15,-195 L -14.8857,-196.817 L -14.5444,-198.606 L -13.9818,-200.338
 L -13.2064,-201.985 L -12.2307,-203.523 L -11.07,-204.926 L -9.74265,-206.172 L -8.26949,-207.243 L -6.6738,-208.12
 L -4.98074,-208.79 L -3.21703,-209.243 L -1.41046,-209.471 L 0,-209.471 L 0,-209.5 L 1.24998,-209.5
 L -0.240128,-210.99 L -1.5,-210.99 L -1.5,-210.5 L -15.5,-210.5 L -15.5,-211 L -16,-211
 L -16,-184 L -15.9606,-183.373 L -15.8429,-182.757 L -15.6489,-182.159 L -15.3815,-181.591 L -15.0451,-181.061
 L -14.6448,-180.577 L -14.1871,-180.147 L -13.6791,-179.778 L -13.1289,-179.476 L -12.5451,-179.245 L -11.9369,-179.089
 L -11.3139,-179.01 L 17.3139,-179.01 z
M 14.8116,-183.006 L 14.4379,-183.053 L 14.0729,-183.147 L 13.7227,-183.286 L 13.3925,-183.467 L 13.0877,-183.688
 L 12.8131,-183.946 L 12.5729,-184.237 L 12.3711,-184.555 L 12.2107,-184.896 L 12.0942,-185.254 L 12.0237,-185.624
 L 12,-186 L 12.0237,-186.376 L 12.0942,-186.746 L 12.2107,-187.104 L 12.3711,-187.445 L 12.5729,-187.763
 L 12.8131,-188.054 L 13.0877,-188.312 L 13.3925,-188.533 L 13.7227,-188.714 L 14.0729,-188.853 L 14.4379,-188.947
 L 14.8116,-188.994 L 15.1884,-188.994 L 15.5621,-188.947 L 15.927,-188.853 L 16.2773,-188.714 L 16.6075,-188.533
 L 16.9123,-188.312 L 17.1869,-188.054 L 17.427,-187.763 L 17.6289,-187.445 L 17.7893,-187.104 L 17.9057,-186.746
 L 17.9763,-186.376 L 18,-186 L 17.9763,-185.624 L 17.9057,-185.254 L 17.7893,-184.896 L 17.6289,-184.555
 L 17.427,-184.237 L 17.1869,-183.946 L 16.9123,-183.688 L 16.6075,-183.467 L 16.2773,-183.286 L 15.927,-183.147
 L 15.5621,-183.053 L 15.1884,-183.006 z
M 14.1871,-209.853 L 13.6791,-210.222 L 13.1289,-210.524 L 12.5451,-210.755 L 11.9369,-210.911 L 11.3139,-210.99
 L 1.88118,-210.99 L 3.37131,-209.5 L 14.5626,-209.5 z
M 17.9369,-140.089 L 18.5451,-140.245 L 19.1289,-140.476 L 19.6791,-140.778 L 20.1871,-141.147 L 20.6448,-141.577
 L 21.0451,-142.061 L 21.3815,-142.591 L 21.6489,-143.159 L 21.8429,-143.757 L 21.9606,-144.373 L 22,-145
 L 22,-149 L 21.9606,-149.627 L 21.8429,-150.243 L 21.6489,-150.841 L 21.3815,-151.409 L 21.0451,-151.939
 L 20.6448,-152.423 L 20.1871,-152.853 L 19.6791,-153.222 L 19.1289,-153.524 L 18.5451,-153.755 L 17.9369,-153.911
 L 17.3139,-153.99 L 16,-153.99 L 16,-167 L 15.9606,-167.627 L 15.8429,-168.243 L 15.7596,-168.5
 L 14.8647,-168.5 L 14.809,-168.588 L 14.729,-168.685 L 14.6374,-168.771 L 14.5358,-168.844 L 14.4258,-168.905
 L 14.309,-168.951 L 14.1874,-168.982 L 14.0628,-168.998 L 8.93719,-168.998 L 8.81261,-168.982 L 8.69098,-168.951
 L 8.57422,-168.905 L 8.46417,-168.844 L 8.36256,-168.771 L 8.27103,-168.685 L 8.19098,-168.588 L 8.12369,-168.482
 L 8.07022,-168.368 L 8.0314,-168.249 L 8.00787,-168.125 L 8,-168 L 8.00787,-167.875 L 8.0314,-167.751
 L 8.07022,-167.632 L 8.12369,-167.518 L 8.19098,-167.412 L 8.27103,-167.315 L 8.36256,-167.229 L 8.46417,-167.156
 L 8.57422,-167.095 L 8.69098,-167.049 L 8.81261,-167.018 L 8.93719,-167.002 L 9.75,-167.002 L 9.75,-167
 L 8.92627,-167 L 10.07,-165.926 L 11.2307,-164.523 L 12.2064,-162.985 L 12.9818,-161.338 L 13.5444,-159.606
 L 13.8857,-157.817 L 14,-156 L 13.8857,-154.183 L 13.5444,-152.394 L 12.9818,-150.662 L 12.2064,-149.015
 L 11.2307,-147.477 L 10.07,-146.074 L 8.74265,-144.828 L 7.26949,-143.757 L 5.6738,-142.88 L 3.98074,-142.21
 L 2.21703,-141.757 L 0.410461,-141.529 L -1.41046,-141.529 L -3.21703,-141.757 L -4.98074,-142.21 L -6.6738,-142.88
 L -8.26949,-143.757 L -9.74265,-144.828 L -11.07,-146.074 L -12.2307,-147.477 L -13.2064,-149.015 L -13.9818,-150.662
 L -14.5444,-152.394 L -14.8857,-154.183 L -15,-156 L -14.8857,-157.817 L -14.5444,-159.606 L -13.9818,-161.338
 L -13.2064,-162.985 L -12.2307,-164.523 L -11.07,-165.926 L -9.74265,-167.172 L -8.26949,-168.243 L -6.6738,-169.12
 L -4.98074,-169.79 L -3.21703,-170.243 L -1.41046,-170.471 L 0,-170.471 L 0,-170.5 L 1.24998,-170.5
 L -0.240128,-171.99 L -1.5,-171.99 L -1.5,-171.5 L -15.5,-171.5 L -15.5,-172 L -16,-172
 L -16,-145 L -15.9606,-144.373 L -15.8429,-143.757 L -15.6489,-143.159 L -15.3815,-142.591 L -15.0451,-142.061
 L -14.6448,-141.577 L -14.1871,-141.147 L -13.6791,-140.778 L -13.1289,-140.476 L -12.5451,-140.245 L -11.9369,-140.089
 L -11.3139,-140.01 L 17.3139,-140.01 z
M 14.8116,-144.006 L 14.4379,-144.053 L 14.0729,-144.147 L 13.7227,-144.286 L 13.3925,-144.467 L 13.0877,-144.688
 L 12.8131,-144.946 L 12.5729,-145.237 L 12.3711,-145.555 L 12.2107,-145.896 L 12.0942,-146.254 L 12.0237,-146.624
 L 12,-147 L 12.0237,-147.376 L 12.0942,-147.746 L 12.2107,-148.104 L 12.3711,-148.445 L 12.5729,-148.763
 L 12.8131,-149.054 L 13.0877,-149.312 L 13.3925,-149.533 L 13.7227,-149.714 L 14.0729,-149.853 L 14.4379,-149.947
 L 14.8116,-149.994 L 15.1884,-149.994 L 15.5621,-149.947 L 15.927,-149.853 L 16.2773,-149.714 L 16.6075,-149.533
 L 16.9123,-149.312 L 17.1869,-149.054 L 17.427,-148.763 L 17.6289,-148.445 L 17.7893,-148.104 L 17.9057,-147.746
 L 17.9763,-147.376 L 18,-147 L 17.9763,-146.624 L 17.9057,-146.254 L 17.7893,-145.896 L 17.6289,-145.555
 L 17.427,-145.237 L 17.1869,-144.946 L 16.9123,-144.688 L 16.6075,-144.467 L 16.2773,-144.286 L 15.927,-144.147
 L 15.5621,-144.053 L 15.1884,-144.006 z
M 14.1871,-170.853 L 13.6791,-171.222 L 13.1289,-171.524 L 12.5451,-171.755 L 11.9369,-171.911 L 11.3139,-171.99
 L 1.88118,-171.99 L 3.37131,-170.5 L 14.5626,-170.5 z
M 17.9369,-101.089 L 18.5451,-101.245 L 19.1289,-101.476 L 19.6791,-101.778 L 20.1871,-102.147 L 20.6448,-102.577
 L 21.0451,-103.061 L 21.3815,-103.591 L 21.6489,-104.159 L 21.8429,-104.757 L 21.9606,-105.373 L 22,-106
 L 22,-110 L 21.9606,-110.627 L 21.8429,-111.243 L 21.6489,-111.841 L 21.3815,-112.409 L 21.0451,-112.939
 L 20.6448,-113.423 L 20.1871,-113.853 L 19.6791,-114.222 L 19.1289,-114.524 L 18.5451,-114.755 L 17.9369,-114.911
 L 17.3139,-114.99 L 16,-114.99 L 16,-128 L 15.9606,-128.627 L 15.8429,-129.243 L 15.7596,-129.5
 L 14.8647,-129.5 L 14.809,-129.588 L 14.729,-129.685 L 14.6374,-129.771 L 14.5358,-129.844 L 14.4258,-129.905
 L 14.309,-129.951 L 14.1874,-129.982 L 14.0628,-129.998 L 8.93719,-129.998 L 8.81261,-129.982 L 8.69098,-129.951
 L 8.57422,-129.905 L 8.46417,-129.844 L 8.36256,-129.771 L 8.27103,-129.685 L 8.19098,-129.588 L 8.12369,-129.482
 L 8.07022,-129.368 L 8.0314,-129.249 L 8.00787,-129.125 L 8,-129 L 8.00787,-128.875 L 8.0314,-128.751
 L 8.07022,-128.632 L 8.12369,-128.518 L 8.19098,-128.412 L 8.27103,-128.315 L 8.36256,-128.229 L 8.46417,-128.156
 L 8.57422,-128.095 L 8.69098,-128.049 L 8.81261,-128.018 L 8.93719,-128.002 L 9.75,-128.002 L 9.75,-128
 L 8.92627,-128 L 10.07,-126.926 L 11.2307,-125.523 L 12.2064,-123.985 L 12.9818,-122.338 L 13.5444,-120.606
 L 13.8857,-118.817 L 14,-117 L 13.8857,-115.183 L 13.5444,-113.394 L 12.9818,-111.662 L 12.2064,-110.015
 L 11.2307,-108.477 L 10.07,-107.074 L 8.74265,-105.828 L 7.26949,-104.757 L 5.6738,-103.88 L 3.98074,-103.21
 L 2.21703,-102.757 L 0.410461,-102.529 L -1.41046,-102.529 L -3.21703,-102.757 L -4.98074,-103.21 L -6.6738,-103.88
 L -8.26949,-104.757 L -9.74265,-105.828 L -11.07,-107.074 L -12.2307,-108.477 L -13.2064,-110.015 L -13.9818,-111.662
 L -14.5444,-113.394 L -14.8857,-115.183 L -15,-117 L -14.8857,-118.817 L -14.5444,-120.606 L -13.9818,-122.338
 L -13.2064,-123.985 L -12.2307,-125.523 L -11.07,-126.926 L -9.74265,-128.172 L -8.26949,-129.243 L -6.6738,-130.12
 L -4.98074,-130.79 L -3.21703,-131.243 L -1.41046,-131.471 L 0,-131.471 L 0,-131.5 L 1.24998,-131.5
 L -0.240128,-132.99 L -1.5,-132.99 L -1.5,-132.5 L -15.5,-132.5 L -15.5,-133 L -16,-133
 L -16,-106 L -15.9606,-105.373 L -15.8429,-104.757 L -15.6489,-104.159 L -15.3815,-103.591 L -15.0451,-103.061
 L -14.6448,-102.577 L -14.1871,-102.147 L -13.6791,-101.778 L -13.1289,-101.476 L -12.5451,-101.245 L -11.9369,-101.089
 L -11.3139,-101.01 L 17.3139,-101.01 z
M 14.8116,-105.006 L 14.4379,-105.053 L 14.0729,-105.147 L 13.7227,-105.286 L 13.3925,-105.467 L 13.0877,-105.688
 L 12.8131,-105.946 L 12.5729,-106.237 L 12.3711,-106.555 L 12.2107,-106.896 L 12.0942,-107.254 L 12.0237,-107.624
 L 12,-108 L 12.0237,-108.376 L 12.0942,-108.746 L 12.2107,-109.104 L 12.3711,-109.445 L 12.5729,-109.763
 L 12.8131,-110.054 L 13.0877,-110.312 L 13.3925,-110.533 L 13.7227,-110.714 L 14.0729,-110.853 L 14.4379,-110.947
 L 14.8116,-110.994 L 15.1884,-110.994 L 15.5621,-110.947 L 15.927,-110.853 L 16.2773,-110.714 L 16.6075,-110.533
 L 16.9123,-110.312 L 17.1869,-110.054 L 17.427,-109.763 L 17.6289,-109.445 L 17.7893,-109.104 L 17.9057,-108.746
 L 17.9763,-108.376 L 18,-108 L 17.9763,-107.624 L 17.9057,-107.254 L 17.7893,-106.896 L 17.6289,-106.555
 L 17.427,-106.237 L 17.1869,-105.946 L 16.9123,-105.688 L 16.6075,-105.467 L 16.2773,-105.286 L 15.927,-105.147
 L 15.5621,-105.053 L 15.1884,-105.006 z
M 14.1871,-131.853 L 13.6791,-132.222 L 13.1289,-132.524 L 12.5451,-132.755 L 11.9369,-132.911 L 11.3139,-132.99
 L 1.88118,-132.99 L 3.37131,-131.5 L 14.5626,-131.5 z
" stroke="black" fill="lightgray" stroke-width="0.5"/>
</svg>
