<?xml version="1.0" standalone="no"?>
<!DOCTYPE svg PUBLIC "-//W3C//DTD SVG 1.1//EN" "http://www.w3.org/Graphics/SVG/1.1/DTD/svg11.dtd">
<svg width="136mm" height="108mm" viewBox="-68 -210 136 108" xmlns="http://www.w3.org/2000/svg" version="1.1">
<title>OpenSCAD Model</title>
<path d="
M 63.4369,-180.089 L 64.0451,-180.245 L 64.6289,-180.476 L 65.1791,-180.778 L 65.6871,-181.147 L 66.1448,-181.577
 L 66.5451,-182.061 L 66.8815,-182.591 L 67.1489,-183.159 L 67.3429,-183.757 L 67.4606,-184.373 L 67.5,-185
 L 67.5,-205 L 67.4606,-205.627 L 67.3429,-206.243 L 67.1489,-206.841 L 66.8815,-207.409 L 66.5451,-207.939
 L 66.1448,-208.423 L 65.6871,-208.853 L 65.1791,-209.222 L 64.6289,-209.524 L 64.0451,-209.755 L 63.4369,-209.911
 L 62.8139,-209.99 L -62.8139,-209.99 L -63.4369,-209.911 L -64.0451,-209.755 L -64.6289,-209.524 L -65.1791,-209.222
 L -65.6871,-208.853 L -66.1448,-208.423 L -66.5451,-207.939 L -66.8815,-207.409 L -67.1489,-206.841 L -67.3429,-206.243
 L -67.4606,-205.627 L -67.5,-205 L -67.5,-185 L -67.4606,-184.373 L -67.3429,-183.757 L -67.1489,-183.159
 L -66.8815,-182.591 L -66.5451,-182.061 L -66.1448,-181.577 L -65.6871,-181.147 L -65.1791,-180.778 L -64.6289,-180.476
 L -64.0451,-180.245 L -63.4369,-180.089 L -62.8139,-180.01 L 62.8139,-180.01 z
M -62.5482,-180.509 L -63.1401,-180.584 L -63.7178,-180.732 L -64.2724,-180.952 L -64.7952,-181.239 L -65.2778,-181.59
 L -65.7126,-181.998 L -66.0928,-182.458 L -66.4125,-182.962 L -66.6664,-183.501 L -66.8508,-184.069 L -66.9625,-184.655
 L -67,-185.25 L -67,-204.75 L -66.9625,-205.345 L -66.8508,-205.931 L -66.6664,-206.499 L -66.4125,-207.038
 L -66.0928,-207.542 L -65.7126,-208.002 L -65.2778,-208.41 L -64.7952,-208.761 L -64.2724,-209.048 L -63.7178,-209.268
 L -63.1401,-209.416 L -62.5482,-209.491 L 62.5482,-209.491 L 63.1401,-209.416 L 63.7178,-209.268 L 64.2724,-209.048
 L 64.7952,-208.761 L 65.2778,-208.41 L 65.7126,-208.002 L 66.0928,-207.542 L 66.4125,-207.038 L 66.6664,-206.499
 L 66.8508,-205.931 L 66.9625,-205.345 L 67,-204.75 L 67,-185.25 L 66.9625,-184.655 L 66.8508,-184.069
 L 66.6664,-183.501 L 66.4125,-182.962 L 66.0928,-182.458 L 65.7126,-181.998 L 65.2778,-181.59 L 64.7952,-181.239
 L 64.2724,-180.952 L 63.7178,-180.732 L 63.1401,-180.584 L 62.5482,-180.509 z
M 63.4369,-141.089 L 64.0451,-141.245 L 64.6289,-141.476 L 65.1791,-141.778 L 65.6871,-142.147 L 66.1448,-142.577
 L 66.5451,-143.061 L 66.8815,-143.591 L 67.1489,-144.159 L 67.3429,-144.757 L 67.4606,-145.373 L 67.5,-146
 L 67.5,-166 L 67.4606,-166.627 L 67.3429,-167.243 L 67.1489,-167.841 L 66.8815,-168.409 L 66.5451,-168.939
 L 66.1448,-169.423 L 65.6871,-169.853 L 65.1791,-170.222 L 64.6289,-170.524 L 64.0451,-170.755 L 63.4369,-170.911
 L 62.8139,-170.99 L -62.8139,-170.99 L -63.4369,-170.911 L -64.0451,-170.755 L -64.6289,-170.524 L -65.1791,-170.222
 L -65.6871,-169.853 L -66.1448,-169.423 L -66.5451,-168.939 L -66.8815,-168.409 L -67.1489,-167.841 L -67.3429,-167.243
 L -67.4606,-166.627 L -67.5,-166 L -67.5,-146 L -67.4606,-145.373 L -67.3429,-144.757 L -67.1489,-144.159
 L -66.8815,-143.591 L -66.5451,-143.061 L -66.1448,-142.577 L -65.6871,-142.147 L -65.1791,-141.778 L -64.6289,-141.476
 L -64.0451,-141.245 L -63.4369,-141.089 L -62.8139,-141.01 L 62.8139,-141.01 z
M -62.5375,-141.681 L -63.1079,-141.753 L -63.6648,-141.896 L -64.1994,-142.107 L -64.7032,-142.384 L -65.1684,-142.722
 L -65.5875,-143.116 L -65.954,-143.559 L -66.2621,-144.044 L -66.5069,-144.565 L -66.6846,-145.111 L -66.7923,-145.676
 L -66.8284,-146.25 L -66.8284,-165.75 L -66.7923,-166.324 L -66.6846,-166.889 L -66.5069,-167.435 L -66.2621,-167.956
 L -65.954,-168.441 L -65.5875,-168.884 L -65.1684,-169.278 L -64.7032,-169.616 L -64.1994,-169.893 L -63.6648,-170.104
 L -63.1079,-170.247 L -62.5375,-170.319 L 62.5375,-170.319 L 63.1079,-170.247 L 63.6648,-170.104 L 64.1994,-169.893
 L 64.7032,-169.616 L 65.1684,-169.278 L 65.5875,-168.884 L 65.954,-168.441 L 66.2621,-167.956 L 66.5069,-167.435
 L 66.6846,-166.889 L 66.7923,-166.324 L 66.8284,-165.75 L 66.8284,-146.25 L 66.7923,-145.676 L 66.6846,-145.111
 L 66.5069,-144.565 L 66.2621,-144.044 L 65.954,-143.559 L 65.5875,-143.116 L 65.1684,-142.722 L 64.7032,-142.384
 L 64.1994,-142.107 L 63.6648,-141.896 L 63.1079,-141.753 L 62.5375,-141.681 z
M 63.4369,-102.089 L 64.0451,-102.245 L 64.6289,-102.476 L 65.1791,-102.778 L 65.6871,-103.147 L 66.1448,-103.577
 L 66.5451,-104.061 L 66.8815,-104.591 L 67.1489,-105.159 L 67.3429,-105.757 L 67.4606,-106.373 L 67.5,-107
 L 67.5,-127 L 67.4606,-127.627 L 67.3429,-128.243 L 67.1489,-128.841 L 66.8815,-129.409 L 66.5451,-129.939
 L 66.1448,-130.423 L 65.6871,-130.853 L 65.1791,-131.222 L 64.6289,-131.524 L 64.0451,-131.755 L 63.4369,-131.911
 L 62.8139,-131.99 L -62.8139,-131.99 L -63.4369,-131.911 L -64.0451,-131.755 L -64.6289,-131.524 L -65.1791,-131.222
 L -65.6871,-130.853 L -66.1448,-130.423 L -66.5451,-129.939 L -66.8815,-129.409 L -67.1489,-128.841 L -67.3429,-128.243
 L -67.4606,-127.627 L -67.5,-127 L -67.5,-107 L -67.4606,-106.373 L -67.3429,-105.757 L -67.1489,-105.159
 L -66.8815,-104.591 L -66.5451,-104.061 L -66.1448,-103.577 L -65.6871,-103.147 L -65.1791,-102.778 L -64.6289,-102.476
 L -64.0451,-102.245 L -63.4369,-102.089 L -62.8139,-102.01 L 62.8139,-102.01 z
M -62.3825,-105.145 L -62.6453,-105.178 L -62.9019,-105.244 L -63.1482,-105.341 L -63.3804,-105.469 L -63.5947,-105.625
 L -63.7879,-105.806 L -63.9567,-106.01 L -64.0987,-106.234 L -64.2115,-106.473 L -64.2934,-106.725 L -64.343,-106.986
 L -64.3596,-107.25 L -64.3596,-126.75 L -64.343,-127.014 L -64.2934,-127.275 L -64.2115,-127.527 L -64.0987,-127.766
 L -63.9567,-127.99 L -63.7879,-128.194 L -63.5947,-128.375 L -63.3804,-128.531 L -63.1482,-128.659 L -62.9019,-128.756
 L -62.6453,-128.822 L -62.3825,-128.855 L 62.3825,-128.855 L 62.6453,-128.822 L 62.9019,-128.756 L 63.1482,-128.659
 L 63.3804,-128.531 L 63.5947,-128.375 L 63.7879,-128.194 L 63.9567,-127.99 L 64.0987,-127.766 L 64.2115,-127.527
 L 64.2934,-127.275 L 64.343,-127.014 L 64.3596,-126.75 L 64.3596,-107.25 L 64.343,-106.986 L 64.2934,-106.725
 L 64.2115,-106.473 L 64.0987,-106.234 L 63.9567,-106.01 L 63.7879,-105.806 L 63.5947,-105.625 L 63.3804,-105.469
 L 63.1482,-105.341 L 62.9019,-105.244 L 62.6453,-105.178 L 62.3825,-105.145 z
" stroke="black" fill="lightgray" stroke-width="0.5"/>
</svg>
