  0
SECTION
  2
BLOCKS
  0
ENDSEC
  0
SECTION
  2
ENTITIES
  0
LINE
  8
0
 10
62.9369
 20
213.089
 11
63.5451
 21
213.245
  0
LINE
  8
0
 10
63.5451
 20
213.245
 11
64.1289
 21
213.476
  0
LINE
  8
0
 10
64.1289
 20
213.476
 11
64.6791
 21
213.778
  0
LINE
  8
0
 10
64.6791
 20
213.778
 11
65.1871
 21
214.147
  0
LINE
  8
0
 10
65.1871
 20
214.147
 11
65.6448
 21
214.577
  0
LINE
  8
0
 10
65.6448
 20
214.577
 11
66.0451
 21
215.061
  0
LINE
  8
0
 10
66.0451
 20
215.061
 11
66.3815
 21
215.591
  0
LINE
  8
0
 10
66.3815
 20
215.591
 11
66.6489
 21
216.159
  0
LINE
  8
0
 10
66.6489
 20
216.159
 11
66.8429
 21
216.757
  0
LINE
  8
0
 10
66.8429
 20
216.757
 11
66.9606
 21
217.373
  0
LINE
  8
0
 10
66.9606
 20
217.373
 11
67
 21
218
  0
LINE
  8
0
 10
67
 20
218
 11
67
 21
312
  0
LINE
  8
0
 10
67
 20
312
 11
66.9606
 21
312.627
  0
LINE
  8
0
 10
66.9606
 20
312.627
 11
66.8429
 21
313.243
  0
LINE
  8
0
 10
66.8429
 20
313.243
 11
66.6489
 21
313.841
  0
LINE
  8
0
 10
66.6489
 20
313.841
 11
66.3815
 21
314.409
  0
LINE
  8
0
 10
66.3815
 20
314.409
 11
66.0451
 21
314.939
  0
LINE
  8
0
 10
66.0451
 20
314.939
 11
65.6448
 21
315.423
  0
LINE
  8
0
 10
65.6448
 20
315.423
 11
65.1871
 21
315.853
  0
LINE
  8
0
 10
65.1871
 20
315.853
 11
64.6791
 21
316.222
  0
LINE
  8
0
 10
64.6791
 20
316.222
 11
64.1289
 21
316.524
  0
LINE
  8
0
 10
64.1289
 20
316.524
 11
63.5451
 21
316.755
  0
LINE
  8
0
 10
63.5451
 20
316.755
 11
62.9369
 21
316.911
  0
LINE
  8
0
 10
62.9369
 20
316.911
 11
62.3139
 21
316.99
  0
LINE
  8
0
 10
62.3139
 20
316.99
 11
-32.3139
 21
316.99
  0
LINE
  8
0
 10
-32.3139
 20
316.99
 11
-32.9369
 21
316.911
  0
LINE
  8
0
 10
-32.9369
 20
316.911
 11
-33.5451
 21
316.755
  0
LINE
  8
0
 10
-33.5451
 20
316.755
 11
-34.1289
 21
316.524
  0
LINE
  8
0
 10
-34.1289
 20
316.524
 11
-34.6791
 21
316.222
  0
LINE
  8
0
 10
-34.6791
 20
316.222
 11
-35.1871
 21
315.853
  0
LINE
  8
0
 10
-35.1871
 20
315.853
 11
-35.6448
 21
315.423
  0
LINE
  8
0
 10
-35.6448
 20
315.423
 11
-36.0451
 21
314.939
  0
LINE
  8
0
 10
-36.0451
 20
314.939
 11
-36.3815
 21
314.409
  0
LINE
  8
0
 10
-36.3815
 20
314.409
 11
-36.6489
 21
313.841
  0
LINE
  8
0
 10
-36.6489
 20
313.841
 11
-36.8429
 21
313.243
  0
LINE
  8
0
 10
-36.8429
 20
313.243
 11
-36.9606
 21
312.627
  0
LINE
  8
0
 10
-36.9606
 20
312.627
 11
-37
 21
312
  0
LINE
  8
0
 10
-37
 20
312
 11
-37
 21
226.99
  0
LINE
  8
0
 10
-37
 20
226.99
 11
-62.3139
 21
226.99
  0
LINE
  8
0
 10
-62.3139
 20
226.99
 11
-62.9369
 21
226.911
  0
LINE
  8
0
 10
-62.9369
 20
226.911
 11
-63.5451
 21
226.755
  0
LINE
  8
0
 10
-63.5451
 20
226.755
 11
-64.1289
 21
226.524
  0
LINE
  8
0
 10
-64.1289
 20
226.524
 11
-64.6791
 21
226.222
  0
LINE
  8
0
 10
-64.6791
 20
226.222
 11
-65.1871
 21
225.853
  0
LINE
  8
0
 10
-65.1871
 20
225.853
 11
-65.6448
 21
225.423
  0
LINE
  8
0
 10
-65.6448
 20
225.423
 11
-66.0451
 21
224.939
  0
LINE
  8
0
 10
-66.0451
 20
224.939
 11
-66.3815
 21
224.409
  0
LINE
  8
0
 10
-66.3815
 20
224.409
 11
-66.6489
 21
223.841
  0
LINE
  8
0
 10
-66.6489
 20
223.841
 11
-66.8429
 21
223.243
  0
LINE
  8
0
 10
-66.8429
 20
223.243
 11
-66.9606
 21
222.627
  0
LINE
  8
0
 10
-66.9606
 20
222.627
 11
-67
 21
222
  0
LINE
  8
0
 10
-67
 20
222
 11
-67
 21
218
  0
LINE
  8
0
 10
-67
 20
218
 11
-66.9606
 21
217.373
  0
LINE
  8
0
 10
-66.9606
 20
217.373
 11
-66.8429
 21
216.757
  0
LINE
  8
0
 10
-66.8429
 20
216.757
 11
-66.6489
 21
216.159
  0
LINE
  8
0
 10
-66.6489
 20
216.159
 11
-66.3815
 21
215.591
  0
LINE
  8
0
 10
-66.3815
 20
215.591
 11
-66.0451
 21
215.061
  0
LINE
  8
0
 10
-66.0451
 20
215.061
 11
-65.6448
 21
214.577
  0
LINE
  8
0
 10
-65.6448
 20
214.577
 11
-65.1871
 21
214.147
  0
LINE
  8
0
 10
-65.1871
 20
214.147
 11
-64.6791
 21
213.778
  0
LINE
  8
0
 10
-64.6791
 20
213.778
 11
-64.1289
 21
213.476
  0
LINE
  8
0
 10
-64.1289
 20
213.476
 11
-63.5451
 21
213.245
  0
LINE
  8
0
 10
-63.5451
 20
213.245
 11
-62.9369
 21
213.089
  0
LINE
  8
0
 10
-62.9369
 20
213.089
 11
-62.3139
 21
213.01
  0
LINE
  8
0
 10
-62.3139
 20
213.01
 11
62.3139
 21
213.01
  0
LINE
  8
0
 10
62.3139
 20
213.01
 11
62.9369
 21
213.089
  0
LINE
  8
0
 10
-60.1884
 20
217.006
 11
-60.5621
 21
217.053
  0
LINE
  8
0
 10
-60.5621
 20
217.053
 11
-60.927
 21
217.147
  0
LINE
  8
0
 10
-60.927
 20
217.147
 11
-61.2773
 21
217.286
  0
LINE
  8
0
 10
-61.2773
 20
217.286
 11
-61.6075
 21
217.467
  0
LINE
  8
0
 10
-61.6075
 20
217.467
 11
-61.9123
 21
217.688
  0
LINE
  8
0
 10
-61.9123
 20
217.688
 11
-62.1869
 21
217.946
  0
LINE
  8
0
 10
-62.1869
 20
217.946
 11
-62.427
 21
218.237
  0
LINE
  8
0
 10
-62.427
 20
218.237
 11
-62.6289
 21
218.555
  0
LINE
  8
0
 10
-62.6289
 20
218.555
 11
-62.7893
 21
218.896
  0
LINE
  8
0
 10
-62.7893
 20
218.896
 11
-62.9057
 21
219.254
  0
LINE
  8
0
 10
-62.9057
 20
219.254
 11
-62.9763
 21
219.624
  0
LINE
  8
0
 10
-62.9763
 20
219.624
 11
-63
 21
220
  0
LINE
  8
0
 10
-63
 20
220
 11
-62.9763
 21
220.376
  0
LINE
  8
0
 10
-62.9763
 20
220.376
 11
-62.9057
 21
220.746
  0
LINE
  8
0
 10
-62.9057
 20
220.746
 11
-62.7893
 21
221.104
  0
LINE
  8
0
 10
-62.7893
 20
221.104
 11
-62.6289
 21
221.445
  0
LINE
  8
0
 10
-62.6289
 20
221.445
 11
-62.427
 21
221.763
  0
LINE
  8
0
 10
-62.427
 20
221.763
 11
-62.1869
 21
222.054
  0
LINE
  8
0
 10
-62.1869
 20
222.054
 11
-61.9123
 21
222.312
  0
LINE
  8
0
 10
-61.9123
 20
222.312
 11
-61.6075
 21
222.533
  0
LINE
  8
0
 10
-61.6075
 20
222.533
 11
-61.2773
 21
222.714
  0
LINE
  8
0
 10
-61.2773
 20
222.714
 11
-60.927
 21
222.853
  0
LINE
  8
0
 10
-60.927
 20
222.853
 11
-60.5621
 21
222.947
  0
LINE
  8
0
 10
-60.5621
 20
222.947
 11
-60.1884
 21
222.994
  0
LINE
  8
0
 10
-60.1884
 20
222.994
 11
-59.8116
 21
222.994
  0
LINE
  8
0
 10
-59.8116
 20
222.994
 11
-59.4379
 21
222.947
  0
LINE
  8
0
 10
-59.4379
 20
222.947
 11
-59.0729
 21
222.853
  0
LINE
  8
0
 10
-59.0729
 20
222.853
 11
-58.7227
 21
222.714
  0
LINE
  8
0
 10
-58.7227
 20
222.714
 11
-58.3925
 21
222.533
  0
LINE
  8
0
 10
-58.3925
 20
222.533
 11
-58.0877
 21
222.312
  0
LINE
  8
0
 10
-58.0877
 20
222.312
 11
-57.8131
 21
222.054
  0
LINE
  8
0
 10
-57.8131
 20
222.054
 11
-57.5729
 21
221.763
  0
LINE
  8
0
 10
-57.5729
 20
221.763
 11
-57.3711
 21
221.445
  0
LINE
  8
0
 10
-57.3711
 20
221.445
 11
-57.2107
 21
221.104
  0
LINE
  8
0
 10
-57.2107
 20
221.104
 11
-57.0942
 21
220.746
  0
LINE
  8
0
 10
-57.0942
 20
220.746
 11
-57.0237
 21
220.376
  0
LINE
  8
0
 10
-57.0237
 20
220.376
 11
-57
 21
220
  0
LINE
  8
0
 10
-57
 20
220
 11
-57.0237
 21
219.624
  0
LINE
  8
0
 10
-57.0237
 20
219.624
 11
-57.0942
 21
219.254
  0
LINE
  8
0
 10
-57.0942
 20
219.254
 11
-57.2107
 21
218.896
  0
LINE
  8
0
 10
-57.2107
 20
218.896
 11
-57.3711
 21
218.555
  0
LINE
  8
0
 10
-57.3711
 20
218.555
 11
-57.5729
 21
218.237
  0
LINE
  8
0
 10
-57.5729
 20
218.237
 11
-57.8131
 21
217.946
  0
LINE
  8
0
 10
-57.8131
 20
217.946
 11
-58.0877
 21
217.688
  0
LINE
  8
0
 10
-58.0877
 20
217.688
 11
-58.3925
 21
217.467
  0
LINE
  8
0
 10
-58.3925
 20
217.467
 11
-58.7227
 21
217.286
  0
LINE
  8
0
 10
-58.7227
 20
217.286
 11
-59.0729
 21
217.147
  0
LINE
  8
0
 10
-59.0729
 20
217.147
 11
-59.4379
 21
217.053
  0
LINE
  8
0
 10
-59.4379
 20
217.053
 11
-59.8116
 21
217.006
  0
LINE
  8
0
 10
-59.8116
 20
217.006
 11
-60.1884
 21
217.006
  0
LINE
  8
0
 10
-45.1884
 20
217.006
 11
-45.5621
 21
217.053
  0
LINE
  8
0
 10
-45.5621
 20
217.053
 11
-45.927
 21
217.147
  0
LINE
  8
0
 10
-45.927
 20
217.147
 11
-46.2773
 21
217.286
  0
LINE
  8
0
 10
-46.2773
 20
217.286
 11
-46.6075
 21
217.467
  0
LINE
  8
0
 10
-46.6075
 20
217.467
 11
-46.9123
 21
217.688
  0
LINE
  8
0
 10
-46.9123
 20
217.688
 11
-47.1869
 21
217.946
  0
LINE
  8
0
 10
-47.1869
 20
217.946
 11
-47.427
 21
218.237
  0
LINE
  8
0
 10
-47.427
 20
218.237
 11
-47.6289
 21
218.555
  0
LINE
  8
0
 10
-47.6289
 20
218.555
 11
-47.7893
 21
218.896
  0
LINE
  8
0
 10
-47.7893
 20
218.896
 11
-47.9057
 21
219.254
  0
LINE
  8
0
 10
-47.9057
 20
219.254
 11
-47.9763
 21
219.624
  0
LINE
  8
0
 10
-47.9763
 20
219.624
 11
-48
 21
220
  0
LINE
  8
0
 10
-48
 20
220
 11
-47.9763
 21
220.376
  0
LINE
  8
0
 10
-47.9763
 20
220.376
 11
-47.9057
 21
220.746
  0
LINE
  8
0
 10
-47.9057
 20
220.746
 11
-47.7893
 21
221.104
  0
LINE
  8
0
 10
-47.7893
 20
221.104
 11
-47.6289
 21
221.445
  0
LINE
  8
0
 10
-47.6289
 20
221.445
 11
-47.427
 21
221.763
  0
LINE
  8
0
 10
-47.427
 20
221.763
 11
-47.1869
 21
222.054
  0
LINE
  8
0
 10
-47.1869
 20
222.054
 11
-46.9123
 21
222.312
  0
LINE
  8
0
 10
-46.9123
 20
222.312
 11
-46.6075
 21
222.533
  0
LINE
  8
0
 10
-46.6075
 20
222.533
 11
-46.2773
 21
222.714
  0
LINE
  8
0
 10
-46.2773
 20
222.714
 11
-45.927
 21
222.853
  0
LINE
  8
0
 10
-45.927
 20
222.853
 11
-45.5621
 21
222.947
  0
LINE
  8
0
 10
-45.5621
 20
222.947
 11
-45.1884
 21
222.994
  0
LINE
  8
0
 10
-45.1884
 20
222.994
 11
-44.8116
 21
222.994
  0
LINE
  8
0
 10
-44.8116
 20
222.994
 11
-44.4379
 21
222.947
  0
LINE
  8
0
 10
-44.4379
 20
222.947
 11
-44.0729
 21
222.853
  0
LINE
  8
0
 10
-44.0729
 20
222.853
 11
-43.7227
 21
222.714
  0
LINE
  8
0
 10
-43.7227
 20
222.714
 11
-43.3925
 21
222.533
  0
LINE
  8
0
 10
-43.3925
 20
222.533
 11
-43.0877
 21
222.312
  0
LINE
  8
0
 10
-43.0877
 20
222.312
 11
-42.8131
 21
222.054
  0
LINE
  8
0
 10
-42.8131
 20
222.054
 11
-42.5729
 21
221.763
  0
LINE
  8
0
 10
-42.5729
 20
221.763
 11
-42.3711
 21
221.445
  0
LINE
  8
0
 10
-42.3711
 20
221.445
 11
-42.2107
 21
221.104
  0
LINE
  8
0
 10
-42.2107
 20
221.104
 11
-42.0942
 21
220.746
  0
LINE
  8
0
 10
-42.0942
 20
220.746
 11
-42.0237
 21
220.376
  0
LINE
  8
0
 10
-42.0237
 20
220.376
 11
-42
 21
220
  0
LINE
  8
0
 10
-42
 20
220
 11
-42.0237
 21
219.624
  0
LINE
  8
0
 10
-42.0237
 20
219.624
 11
-42.0942
 21
219.254
  0
LINE
  8
0
 10
-42.0942
 20
219.254
 11
-42.2107
 21
218.896
  0
LINE
  8
0
 10
-42.2107
 20
218.896
 11
-42.3711
 21
218.555
  0
LINE
  8
0
 10
-42.3711
 20
218.555
 11
-42.5729
 21
218.237
  0
LINE
  8
0
 10
-42.5729
 20
218.237
 11
-42.8131
 21
217.946
  0
LINE
  8
0
 10
-42.8131
 20
217.946
 11
-43.0877
 21
217.688
  0
LINE
  8
0
 10
-43.0877
 20
217.688
 11
-43.3925
 21
217.467
  0
LINE
  8
0
 10
-43.3925
 20
217.467
 11
-43.7227
 21
217.286
  0
LINE
  8
0
 10
-43.7227
 20
217.286
 11
-44.0729
 21
217.147
  0
LINE
  8
0
 10
-44.0729
 20
217.147
 11
-44.4379
 21
217.053
  0
LINE
  8
0
 10
-44.4379
 20
217.053
 11
-44.8116
 21
217.006
  0
LINE
  8
0
 10
-44.8116
 20
217.006
 11
-45.1884
 21
217.006
  0
LINE
  8
0
 10
14.8116
 20
217.006
 11
14.4379
 21
217.053
  0
LINE
  8
0
 10
14.4379
 20
217.053
 11
14.0729
 21
217.147
  0
LINE
  8
0
 10
14.0729
 20
217.147
 11
13.7227
 21
217.286
  0
LINE
  8
0
 10
13.7227
 20
217.286
 11
13.3925
 21
217.467
  0
LINE
  8
0
 10
13.3925
 20
217.467
 11
13.0877
 21
217.688
  0
LINE
  8
0
 10
13.0877
 20
217.688
 11
12.8131
 21
217.946
  0
LINE
  8
0
 10
12.8131
 20
217.946
 11
12.5729
 21
218.237
  0
LINE
  8
0
 10
12.5729
 20
218.237
 11
12.3711
 21
218.555
  0
LINE
  8
0
 10
12.3711
 20
218.555
 11
12.2107
 21
218.896
  0
LINE
  8
0
 10
12.2107
 20
218.896
 11
12.0942
 21
219.254
  0
LINE
  8
0
 10
12.0942
 20
219.254
 11
12.0237
 21
219.624
  0
LINE
  8
0
 10
12.0237
 20
219.624
 11
12
 21
220
  0
LINE
  8
0
 10
12
 20
220
 11
12.0237
 21
220.376
  0
LINE
  8
0
 10
12.0237
 20
220.376
 11
12.0942
 21
220.746
  0
LINE
  8
0
 10
12.0942
 20
220.746
 11
12.2107
 21
221.104
  0
LINE
  8
0
 10
12.2107
 20
221.104
 11
12.3711
 21
221.445
  0
LINE
  8
0
 10
12.3711
 20
221.445
 11
12.5729
 21
221.763
  0
LINE
  8
0
 10
12.5729
 20
221.763
 11
12.8131
 21
222.054
  0
LINE
  8
0
 10
12.8131
 20
222.054
 11
13.0877
 21
222.312
  0
LINE
  8
0
 10
13.0877
 20
222.312
 11
13.3925
 21
222.533
  0
LINE
  8
0
 10
13.3925
 20
222.533
 11
13.7227
 21
222.714
  0
LINE
  8
0
 10
13.7227
 20
222.714
 11
14.0729
 21
222.853
  0
LINE
  8
0
 10
14.0729
 20
222.853
 11
14.4379
 21
222.947
  0
LINE
  8
0
 10
14.4379
 20
222.947
 11
14.8116
 21
222.994
  0
LINE
  8
0
 10
14.8116
 20
222.994
 11
15.1884
 21
222.994
  0
LINE
  8
0
 10
15.1884
 20
222.994
 11
15.5621
 21
222.947
  0
LINE
  8
0
 10
15.5621
 20
222.947
 11
15.927
 21
222.853
  0
LINE
  8
0
 10
15.927
 20
222.853
 11
16.2773
 21
222.714
  0
LINE
  8
0
 10
16.2773
 20
222.714
 11
16.6075
 21
222.533
  0
LINE
  8
0
 10
16.6075
 20
222.533
 11
16.9123
 21
222.312
  0
LINE
  8
0
 10
16.9123
 20
222.312
 11
17.1869
 21
222.054
  0
LINE
  8
0
 10
17.1869
 20
222.054
 11
17.427
 21
221.763
  0
LINE
  8
0
 10
17.427
 20
221.763
 11
17.6289
 21
221.445
  0
LINE
  8
0
 10
17.6289
 20
221.445
 11
17.7893
 21
221.104
  0
LINE
  8
0
 10
17.7893
 20
221.104
 11
17.9057
 21
220.746
  0
LINE
  8
0
 10
17.9057
 20
220.746
 11
17.9763
 21
220.376
  0
LINE
  8
0
 10
17.9763
 20
220.376
 11
18
 21
220
  0
LINE
  8
0
 10
18
 20
220
 11
17.9763
 21
219.624
  0
LINE
  8
0
 10
17.9763
 20
219.624
 11
17.9057
 21
219.254
  0
LINE
  8
0
 10
17.9057
 20
219.254
 11
17.7893
 21
218.896
  0
LINE
  8
0
 10
17.7893
 20
218.896
 11
17.6289
 21
218.555
  0
LINE
  8
0
 10
17.6289
 20
218.555
 11
17.427
 21
218.237
  0
LINE
  8
0
 10
17.427
 20
218.237
 11
17.1869
 21
217.946
  0
LINE
  8
0
 10
17.1869
 20
217.946
 11
16.9123
 21
217.688
  0
LINE
  8
0
 10
16.9123
 20
217.688
 11
16.6075
 21
217.467
  0
LINE
  8
0
 10
16.6075
 20
217.467
 11
16.2773
 21
217.286
  0
LINE
  8
0
 10
16.2773
 20
217.286
 11
15.927
 21
217.147
  0
LINE
  8
0
 10
15.927
 20
217.147
 11
15.5621
 21
217.053
  0
LINE
  8
0
 10
15.5621
 20
217.053
 11
15.1884
 21
217.006
  0
LINE
  8
0
 10
15.1884
 20
217.006
 11
14.8116
 21
217.006
  0
LINE
  8
0
 10
-30.1884
 20
217.006
 11
-30.5621
 21
217.053
  0
LINE
  8
0
 10
-30.5621
 20
217.053
 11
-30.927
 21
217.147
  0
LINE
  8
0
 10
-30.927
 20
217.147
 11
-31.2773
 21
217.286
  0
LINE
  8
0
 10
-31.2773
 20
217.286
 11
-31.6075
 21
217.467
  0
LINE
  8
0
 10
-31.6075
 20
217.467
 11
-31.9123
 21
217.688
  0
LINE
  8
0
 10
-31.9123
 20
217.688
 11
-32.1869
 21
217.946
  0
LINE
  8
0
 10
-32.1869
 20
217.946
 11
-32.427
 21
218.237
  0
LINE
  8
0
 10
-32.427
 20
218.237
 11
-32.6289
 21
218.555
  0
LINE
  8
0
 10
-32.6289
 20
218.555
 11
-32.7893
 21
218.896
  0
LINE
  8
0
 10
-32.7893
 20
218.896
 11
-32.9057
 21
219.254
  0
LINE
  8
0
 10
-32.9057
 20
219.254
 11
-32.9763
 21
219.624
  0
LINE
  8
0
 10
-32.9763
 20
219.624
 11
-33
 21
220
  0
LINE
  8
0
 10
-33
 20
220
 11
-32.9763
 21
220.376
  0
LINE
  8
0
 10
-32.9763
 20
220.376
 11
-32.9057
 21
220.746
  0
LINE
  8
0
 10
-32.9057
 20
220.746
 11
-32.7893
 21
221.104
  0
LINE
  8
0
 10
-32.7893
 20
221.104
 11
-32.6289
 21
221.445
  0
LINE
  8
0
 10
-32.6289
 20
221.445
 11
-32.427
 21
221.763
  0
LINE
  8
0
 10
-32.427
 20
221.763
 11
-32.1869
 21
222.054
  0
LINE
  8
0
 10
-32.1869
 20
222.054
 11
-31.9123
 21
222.312
  0
LINE
  8
0
 10
-31.9123
 20
222.312
 11
-31.6075
 21
222.533
  0
LINE
  8
0
 10
-31.6075
 20
222.533
 11
-31.2773
 21
222.714
  0
LINE
  8
0
 10
-31.2773
 20
222.714
 11
-30.927
 21
222.853
  0
LINE
  8
0
 10
-30.927
 20
222.853
 11
-30.5621
 21
222.947
  0
LINE
  8
0
 10
-30.5621
 20
222.947
 11
-30.1884
 21
222.994
  0
LINE
  8
0
 10
-30.1884
 20
222.994
 11
-29.8116
 21
222.994
  0
LINE
  8
0
 10
-29.8116
 20
222.994
 11
-29.4379
 21
222.947
  0
LINE
  8
0
 10
-29.4379
 20
222.947
 11
-29.0729
 21
222.853
  0
LINE
  8
0
 10
-29.0729
 20
222.853
 11
-28.7227
 21
222.714
  0
LINE
  8
0
 10
-28.7227
 20
222.714
 11
-28.3925
 21
222.533
  0
LINE
  8
0
 10
-28.3925
 20
222.533
 11
-28.0877
 21
222.312
  0
LINE
  8
0
 10
-28.0877
 20
222.312
 11
-27.8131
 21
222.054
  0
LINE
  8
0
 10
-27.8131
 20
222.054
 11
-27.5729
 21
221.763
  0
LINE
  8
0
 10
-27.5729
 20
221.763
 11
-27.3711
 21
221.445
  0
LINE
  8
0
 10
-27.3711
 20
221.445
 11
-27.2107
 21
221.104
  0
LINE
  8
0
 10
-27.2107
 20
221.104
 11
-27.0942
 21
220.746
  0
LINE
  8
0
 10
-27.0942
 20
220.746
 11
-27.0237
 21
220.376
  0
LINE
  8
0
 10
-27.0237
 20
220.376
 11
-27
 21
220
  0
LINE
  8
0
 10
-27
 20
220
 11
-27.0237
 21
219.624
  0
LINE
  8
0
 10
-27.0237
 20
219.624
 11
-27.0942
 21
219.254
  0
LINE
  8
0
 10
-27.0942
 20
219.254
 11
-27.2107
 21
218.896
  0
LINE
  8
0
 10
-27.2107
 20
218.896
 11
-27.3711
 21
218.555
  0
LINE
  8
0
 10
-27.3711
 20
218.555
 11
-27.5729
 21
218.237
  0
LINE
  8
0
 10
-27.5729
 20
218.237
 11
-27.8131
 21
217.946
  0
LINE
  8
0
 10
-27.8131
 20
217.946
 11
-28.0877
 21
217.688
  0
LINE
  8
0
 10
-28.0877
 20
217.688
 11
-28.3925
 21
217.467
  0
LINE
  8
0
 10
-28.3925
 20
217.467
 11
-28.7227
 21
217.286
  0
LINE
  8
0
 10
-28.7227
 20
217.286
 11
-29.0729
 21
217.147
  0
LINE
  8
0
 10
-29.0729
 20
217.147
 11
-29.4379
 21
217.053
  0
LINE
  8
0
 10
-29.4379
 20
217.053
 11
-29.8116
 21
217.006
  0
LINE
  8
0
 10
-29.8116
 20
217.006
 11
-30.1884
 21
217.006
  0
LINE
  8
0
 10
-0.18837
 20
217.006
 11
-0.562134
 21
217.053
  0
LINE
  8
0
 10
-0.562134
 20
217.053
 11
-0.927048
 21
217.147
  0
LINE
  8
0
 10
-0.927048
 20
217.147
 11
-1.27733
 21
217.286
  0
LINE
  8
0
 10
-1.27733
 20
217.286
 11
-1.60747
 21
217.467
  0
LINE
  8
0
 10
-1.60747
 20
217.467
 11
-1.91226
 21
217.688
  0
LINE
  8
0
 10
-1.91226
 20
217.688
 11
-2.1869
 21
217.946
  0
LINE
  8
0
 10
-2.1869
 20
217.946
 11
-2.42705
 21
218.237
  0
LINE
  8
0
 10
-2.42705
 20
218.237
 11
-2.62891
 21
218.555
  0
LINE
  8
0
 10
-2.62891
 20
218.555
 11
-2.78932
 21
218.896
  0
LINE
  8
0
 10
-2.78932
 20
218.896
 11
-2.90575
 21
219.254
  0
LINE
  8
0
 10
-2.90575
 20
219.254
 11
-2.97633
 21
219.624
  0
LINE
  8
0
 10
-2.97633
 20
219.624
 11
-3
 21
220
  0
LINE
  8
0
 10
-3
 20
220
 11
-2.97633
 21
220.376
  0
LINE
  8
0
 10
-2.97633
 20
220.376
 11
-2.90575
 21
220.746
  0
LINE
  8
0
 10
-2.90575
 20
220.746
 11
-2.78932
 21
221.104
  0
LINE
  8
0
 10
-2.78932
 20
221.104
 11
-2.62891
 21
221.445
  0
LINE
  8
0
 10
-2.62891
 20
221.445
 11
-2.42705
 21
221.763
  0
LINE
  8
0
 10
-2.42705
 20
221.763
 11
-2.1869
 21
222.054
  0
LINE
  8
0
 10
-2.1869
 20
222.054
 11
-1.91226
 21
222.312
  0
LINE
  8
0
 10
-1.91226
 20
222.312
 11
-1.60747
 21
222.533
  0
LINE
  8
0
 10
-1.60747
 20
222.533
 11
-1.27733
 21
222.714
  0
LINE
  8
0
 10
-1.27733
 20
222.714
 11
-0.927048
 21
222.853
  0
LINE
  8
0
 10
-0.927048
 20
222.853
 11
-0.562134
 21
222.947
  0
LINE
  8
0
 10
-0.562134
 20
222.947
 11
-0.18837
 21
222.994
  0
LINE
  8
0
 10
-0.18837
 20
222.994
 11
0.18837
 21
222.994
  0
LINE
  8
0
 10
0.18837
 20
222.994
 11
0.562134
 21
222.947
  0
LINE
  8
0
 10
0.562134
 20
222.947
 11
0.927048
 21
222.853
  0
LINE
  8
0
 10
0.927048
 20
222.853
 11
1.27733
 21
222.714
  0
LINE
  8
0
 10
1.27733
 20
222.714
 11
1.60747
 21
222.533
  0
LINE
  8
0
 10
1.60747
 20
222.533
 11
1.91226
 21
222.312
  0
LINE
  8
0
 10
1.91226
 20
222.312
 11
2.1869
 21
222.054
  0
LINE
  8
0
 10
2.1869
 20
222.054
 11
2.42705
 21
221.763
  0
LINE
  8
0
 10
2.42705
 20
221.763
 11
2.62891
 21
221.445
  0
LINE
  8
0
 10
2.62891
 20
221.445
 11
2.78932
 21
221.104
  0
LINE
  8
0
 10
2.78932
 20
221.104
 11
2.90575
 21
220.746
  0
LINE
  8
0
 10
2.90575
 20
220.746
 11
2.97633
 21
220.376
  0
LINE
  8
0
 10
2.97633
 20
220.376
 11
3
 21
220
  0
LINE
  8
0
 10
3
 20
220
 11
2.97633
 21
219.624
  0
LINE
  8
0
 10
2.97633
 20
219.624
 11
2.90575
 21
219.254
  0
LINE
  8
0
 10
2.90575
 20
219.254
 11
2.78932
 21
218.896
  0
LINE
  8
0
 10
2.78932
 20
218.896
 11
2.62891
 21
218.555
  0
LINE
  8
0
 10
2.62891
 20
218.555
 11
2.42705
 21
218.237
  0
LINE
  8
0
 10
2.42705
 20
218.237
 11
2.1869
 21
217.946
  0
LINE
  8
0
 10
2.1869
 20
217.946
 11
1.91226
 21
217.688
  0
LINE
  8
0
 10
1.91226
 20
217.688
 11
1.60747
 21
217.467
  0
LINE
  8
0
 10
1.60747
 20
217.467
 11
1.27733
 21
217.286
  0
LINE
  8
0
 10
1.27733
 20
217.286
 11
0.927048
 21
217.147
  0
LINE
  8
0
 10
0.927048
 20
217.147
 11
0.562134
 21
217.053
  0
LINE
  8
0
 10
0.562134
 20
217.053
 11
0.18837
 21
217.006
  0
LINE
  8
0
 10
0.18837
 20
217.006
 11
-0.18837
 21
217.006
  0
LINE
  8
0
 10
59.8116
 20
217.006
 11
59.4379
 21
217.053
  0
LINE
  8
0
 10
59.4379
 20
217.053
 11
59.0729
 21
217.147
  0
LINE
  8
0
 10
59.0729
 20
217.147
 11
58.7227
 21
217.286
  0
LINE
  8
0
 10
58.7227
 20
217.286
 11
58.3925
 21
217.467
  0
LINE
  8
0
 10
58.3925
 20
217.467
 11
58.0877
 21
217.688
  0
LINE
  8
0
 10
58.0877
 20
217.688
 11
57.8131
 21
217.946
  0
LINE
  8
0
 10
57.8131
 20
217.946
 11
57.5729
 21
218.237
  0
LINE
  8
0
 10
57.5729
 20
218.237
 11
57.3711
 21
218.555
  0
LINE
  8
0
 10
57.3711
 20
218.555
 11
57.2107
 21
218.896
  0
LINE
  8
0
 10
57.2107
 20
218.896
 11
57.0942
 21
219.254
  0
LINE
  8
0
 10
57.0942
 20
219.254
 11
57.0237
 21
219.624
  0
LINE
  8
0
 10
57.0237
 20
219.624
 11
57
 21
220
  0
LINE
  8
0
 10
57
 20
220
 11
57.0237
 21
220.376
  0
LINE
  8
0
 10
57.0237
 20
220.376
 11
57.0942
 21
220.746
  0
LINE
  8
0
 10
57.0942
 20
220.746
 11
57.2107
 21
221.104
  0
LINE
  8
0
 10
57.2107
 20
221.104
 11
57.3711
 21
221.445
  0
LINE
  8
0
 10
57.3711
 20
221.445
 11
57.5729
 21
221.763
  0
LINE
  8
0
 10
57.5729
 20
221.763
 11
57.8131
 21
222.054
  0
LINE
  8
0
 10
57.8131
 20
222.054
 11
58.0877
 21
222.312
  0
LINE
  8
0
 10
58.0877
 20
222.312
 11
58.3925
 21
222.533
  0
LINE
  8
0
 10
58.3925
 20
222.533
 11
58.7227
 21
222.714
  0
LINE
  8
0
 10
58.7227
 20
222.714
 11
59.0729
 21
222.853
  0
LINE
  8
0
 10
59.0729
 20
222.853
 11
59.4379
 21
222.947
  0
LINE
  8
0
 10
59.4379
 20
222.947
 11
59.8116
 21
222.994
  0
LINE
  8
0
 10
59.8116
 20
222.994
 11
60.1884
 21
222.994
  0
LINE
  8
0
 10
60.1884
 20
222.994
 11
60.5621
 21
222.947
  0
LINE
  8
0
 10
60.5621
 20
222.947
 11
60.927
 21
222.853
  0
LINE
  8
0
 10
60.927
 20
222.853
 11
61.2773
 21
222.714
  0
LINE
  8
0
 10
61.2773
 20
222.714
 11
61.6075
 21
222.533
  0
LINE
  8
0
 10
61.6075
 20
222.533
 11
61.9123
 21
222.312
  0
LINE
  8
0
 10
61.9123
 20
222.312
 11
62.1869
 21
222.054
  0
LINE
  8
0
 10
62.1869
 20
222.054
 11
62.427
 21
221.763
  0
LINE
  8
0
 10
62.427
 20
221.763
 11
62.6289
 21
221.445
  0
LINE
  8
0
 10
62.6289
 20
221.445
 11
62.7893
 21
221.104
  0
LINE
  8
0
 10
62.7893
 20
221.104
 11
62.9057
 21
220.746
  0
LINE
  8
0
 10
62.9057
 20
220.746
 11
62.9763
 21
220.376
  0
LINE
  8
0
 10
62.9763
 20
220.376
 11
63
 21
220
  0
LINE
  8
0
 10
63
 20
220
 11
62.9763
 21
219.624
  0
LINE
  8
0
 10
62.9763
 20
219.624
 11
62.9057
 21
219.254
  0
LINE
  8
0
 10
62.9057
 20
219.254
 11
62.7893
 21
218.896
  0
LINE
  8
0
 10
62.7893
 20
218.896
 11
62.6289
 21
218.555
  0
LINE
  8
0
 10
62.6289
 20
218.555
 11
62.427
 21
218.237
  0
LINE
  8
0
 10
62.427
 20
218.237
 11
62.1869
 21
217.946
  0
LINE
  8
0
 10
62.1869
 20
217.946
 11
61.9123
 21
217.688
  0
LINE
  8
0
 10
61.9123
 20
217.688
 11
61.6075
 21
217.467
  0
LINE
  8
0
 10
61.6075
 20
217.467
 11
61.2773
 21
217.286
  0
LINE
  8
0
 10
61.2773
 20
217.286
 11
60.927
 21
217.147
  0
LINE
  8
0
 10
60.927
 20
217.147
 11
60.5621
 21
217.053
  0
LINE
  8
0
 10
60.5621
 20
217.053
 11
60.1884
 21
217.006
  0
LINE
  8
0
 10
60.1884
 20
217.006
 11
59.8116
 21
217.006
  0
LINE
  8
0
 10
44.8116
 20
217.006
 11
44.4379
 21
217.053
  0
LINE
  8
0
 10
44.4379
 20
217.053
 11
44.0729
 21
217.147
  0
LINE
  8
0
 10
44.0729
 20
217.147
 11
43.7227
 21
217.286
  0
LINE
  8
0
 10
43.7227
 20
217.286
 11
43.3925
 21
217.467
  0
LINE
  8
0
 10
43.3925
 20
217.467
 11
43.0877
 21
217.688
  0
LINE
  8
0
 10
43.0877
 20
217.688
 11
42.8131
 21
217.946
  0
LINE
  8
0
 10
42.8131
 20
217.946
 11
42.5729
 21
218.237
  0
LINE
  8
0
 10
42.5729
 20
218.237
 11
42.3711
 21
218.555
  0
LINE
  8
0
 10
42.3711
 20
218.555
 11
42.2107
 21
218.896
  0
LINE
  8
0
 10
42.2107
 20
218.896
 11
42.0942
 21
219.254
  0
LINE
  8
0
 10
42.0942
 20
219.254
 11
42.0237
 21
219.624
  0
LINE
  8
0
 10
42.0237
 20
219.624
 11
42
 21
220
  0
LINE
  8
0
 10
42
 20
220
 11
42.0237
 21
220.376
  0
LINE
  8
0
 10
42.0237
 20
220.376
 11
42.0942
 21
220.746
  0
LINE
  8
0
 10
42.0942
 20
220.746
 11
42.2107
 21
221.104
  0
LINE
  8
0
 10
42.2107
 20
221.104
 11
42.3711
 21
221.445
  0
LINE
  8
0
 10
42.3711
 20
221.445
 11
42.5729
 21
221.763
  0
LINE
  8
0
 10
42.5729
 20
221.763
 11
42.8131
 21
222.054
  0
LINE
  8
0
 10
42.8131
 20
222.054
 11
43.0877
 21
222.312
  0
LINE
  8
0
 10
43.0877
 20
222.312
 11
43.3925
 21
222.533
  0
LINE
  8
0
 10
43.3925
 20
222.533
 11
43.7227
 21
222.714
  0
LINE
  8
0
 10
43.7227
 20
222.714
 11
44.0729
 21
222.853
  0
LINE
  8
0
 10
44.0729
 20
222.853
 11
44.4379
 21
222.947
  0
LINE
  8
0
 10
44.4379
 20
222.947
 11
44.8116
 21
222.994
  0
LINE
  8
0
 10
44.8116
 20
222.994
 11
45.1884
 21
222.994
  0
LINE
  8
0
 10
45.1884
 20
222.994
 11
45.5621
 21
222.947
  0
LINE
  8
0
 10
45.5621
 20
222.947
 11
45.927
 21
222.853
  0
LINE
  8
0
 10
45.927
 20
222.853
 11
46.2773
 21
222.714
  0
LINE
  8
0
 10
46.2773
 20
222.714
 11
46.6075
 21
222.533
  0
LINE
  8
0
 10
46.6075
 20
222.533
 11
46.9123
 21
222.312
  0
LINE
  8
0
 10
46.9123
 20
222.312
 11
47.1869
 21
222.054
  0
LINE
  8
0
 10
47.1869
 20
222.054
 11
47.427
 21
221.763
  0
LINE
  8
0
 10
47.427
 20
221.763
 11
47.6289
 21
221.445
  0
LINE
  8
0
 10
47.6289
 20
221.445
 11
47.7893
 21
221.104
  0
LINE
  8
0
 10
47.7893
 20
221.104
 11
47.9057
 21
220.746
  0
LINE
  8
0
 10
47.9057
 20
220.746
 11
47.9763
 21
220.376
  0
LINE
  8
0
 10
47.9763
 20
220.376
 11
48
 21
220
  0
LINE
  8
0
 10
48
 20
220
 11
47.9763
 21
219.624
  0
LINE
  8
0
 10
47.9763
 20
219.624
 11
47.9057
 21
219.254
  0
LINE
  8
0
 10
47.9057
 20
219.254
 11
47.7893
 21
218.896
  0
LINE
  8
0
 10
47.7893
 20
218.896
 11
47.6289
 21
218.555
  0
LINE
  8
0
 10
47.6289
 20
218.555
 11
47.427
 21
218.237
  0
LINE
  8
0
 10
47.427
 20
218.237
 11
47.1869
 21
217.946
  0
LINE
  8
0
 10
47.1869
 20
217.946
 11
46.9123
 21
217.688
  0
LINE
  8
0
 10
46.9123
 20
217.688
 11
46.6075
 21
217.467
  0
LINE
  8
0
 10
46.6075
 20
217.467
 11
46.2773
 21
217.286
  0
LINE
  8
0
 10
46.2773
 20
217.286
 11
45.927
 21
217.147
  0
LINE
  8
0
 10
45.927
 20
217.147
 11
45.5621
 21
217.053
  0
LINE
  8
0
 10
45.5621
 20
217.053
 11
45.1884
 21
217.006
  0
LINE
  8
0
 10
45.1884
 20
217.006
 11
44.8116
 21
217.006
  0
LINE
  8
0
 10
-15.1884
 20
217.006
 11
-15.5621
 21
217.053
  0
LINE
  8
0
 10
-15.5621
 20
217.053
 11
-15.927
 21
217.147
  0
LINE
  8
0
 10
-15.927
 20
217.147
 11
-16.2773
 21
217.286
  0
LINE
  8
0
 10
-16.2773
 20
217.286
 11
-16.6075
 21
217.467
  0
LINE
  8
0
 10
-16.6075
 20
217.467
 11
-16.9123
 21
217.688
  0
LINE
  8
0
 10
-16.9123
 20
217.688
 11
-17.1869
 21
217.946
  0
LINE
  8
0
 10
-17.1869
 20
217.946
 11
-17.427
 21
218.237
  0
LINE
  8
0
 10
-17.427
 20
218.237
 11
-17.6289
 21
218.555
  0
LINE
  8
0
 10
-17.6289
 20
218.555
 11
-17.7893
 21
218.896
  0
LINE
  8
0
 10
-17.7893
 20
218.896
 11
-17.9057
 21
219.254
  0
LINE
  8
0
 10
-17.9057
 20
219.254
 11
-17.9763
 21
219.624
  0
LINE
  8
0
 10
-17.9763
 20
219.624
 11
-18
 21
220
  0
LINE
  8
0
 10
-18
 20
220
 11
-17.9763
 21
220.376
  0
LINE
  8
0
 10
-17.9763
 20
220.376
 11
-17.9057
 21
220.746
  0
LINE
  8
0
 10
-17.9057
 20
220.746
 11
-17.7893
 21
221.104
  0
LINE
  8
0
 10
-17.7893
 20
221.104
 11
-17.6289
 21
221.445
  0
LINE
  8
0
 10
-17.6289
 20
221.445
 11
-17.427
 21
221.763
  0
LINE
  8
0
 10
-17.427
 20
221.763
 11
-17.1869
 21
222.054
  0
LINE
  8
0
 10
-17.1869
 20
222.054
 11
-16.9123
 21
222.312
  0
LINE
  8
0
 10
-16.9123
 20
222.312
 11
-16.6075
 21
222.533
  0
LINE
  8
0
 10
-16.6075
 20
222.533
 11
-16.2773
 21
222.714
  0
LINE
  8
0
 10
-16.2773
 20
222.714
 11
-15.927
 21
222.853
  0
LINE
  8
0
 10
-15.927
 20
222.853
 11
-15.5621
 21
222.947
  0
LINE
  8
0
 10
-15.5621
 20
222.947
 11
-15.1884
 21
222.994
  0
LINE
  8
0
 10
-15.1884
 20
222.994
 11
-14.8116
 21
222.994
  0
LINE
  8
0
 10
-14.8116
 20
222.994
 11
-14.4379
 21
222.947
  0
LINE
  8
0
 10
-14.4379
 20
222.947
 11
-14.0729
 21
222.853
  0
LINE
  8
0
 10
-14.0729
 20
222.853
 11
-13.7227
 21
222.714
  0
LINE
  8
0
 10
-13.7227
 20
222.714
 11
-13.3925
 21
222.533
  0
LINE
  8
0
 10
-13.3925
 20
222.533
 11
-13.0877
 21
222.312
  0
LINE
  8
0
 10
-13.0877
 20
222.312
 11
-12.8131
 21
222.054
  0
LINE
  8
0
 10
-12.8131
 20
222.054
 11
-12.5729
 21
221.763
  0
LINE
  8
0
 10
-12.5729
 20
221.763
 11
-12.3711
 21
221.445
  0
LINE
  8
0
 10
-12.3711
 20
221.445
 11
-12.2107
 21
221.104
  0
LINE
  8
0
 10
-12.2107
 20
221.104
 11
-12.0942
 21
220.746
  0
LINE
  8
0
 10
-12.0942
 20
220.746
 11
-12.0237
 21
220.376
  0
LINE
  8
0
 10
-12.0237
 20
220.376
 11
-12
 21
220
  0
LINE
  8
0
 10
-12
 20
220
 11
-12.0237
 21
219.624
  0
LINE
  8
0
 10
-12.0237
 20
219.624
 11
-12.0942
 21
219.254
  0
LINE
  8
0
 10
-12.0942
 20
219.254
 11
-12.2107
 21
218.896
  0
LINE
  8
0
 10
-12.2107
 20
218.896
 11
-12.3711
 21
218.555
  0
LINE
  8
0
 10
-12.3711
 20
218.555
 11
-12.5729
 21
218.237
  0
LINE
  8
0
 10
-12.5729
 20
218.237
 11
-12.8131
 21
217.946
  0
LINE
  8
0
 10
-12.8131
 20
217.946
 11
-13.0877
 21
217.688
  0
LINE
  8
0
 10
-13.0877
 20
217.688
 11
-13.3925
 21
217.467
  0
LINE
  8
0
 10
-13.3925
 20
217.467
 11
-13.7227
 21
217.286
  0
LINE
  8
0
 10
-13.7227
 20
217.286
 11
-14.0729
 21
217.147
  0
LINE
  8
0
 10
-14.0729
 20
217.147
 11
-14.4379
 21
217.053
  0
LINE
  8
0
 10
-14.4379
 20
217.053
 11
-14.8116
 21
217.006
  0
LINE
  8
0
 10
-14.8116
 20
217.006
 11
-15.1884
 21
217.006
  0
LINE
  8
0
 10
29.8116
 20
217.006
 11
29.4379
 21
217.053
  0
LINE
  8
0
 10
29.4379
 20
217.053
 11
29.0729
 21
217.147
  0
LINE
  8
0
 10
29.0729
 20
217.147
 11
28.7227
 21
217.286
  0
LINE
  8
0
 10
28.7227
 20
217.286
 11
28.3925
 21
217.467
  0
LINE
  8
0
 10
28.3925
 20
217.467
 11
28.0877
 21
217.688
  0
LINE
  8
0
 10
28.0877
 20
217.688
 11
27.8131
 21
217.946
  0
LINE
  8
0
 10
27.8131
 20
217.946
 11
27.5729
 21
218.237
  0
LINE
  8
0
 10
27.5729
 20
218.237
 11
27.3711
 21
218.555
  0
LINE
  8
0
 10
27.3711
 20
218.555
 11
27.2107
 21
218.896
  0
LINE
  8
0
 10
27.2107
 20
218.896
 11
27.0942
 21
219.254
  0
LINE
  8
0
 10
27.0942
 20
219.254
 11
27.0237
 21
219.624
  0
LINE
  8
0
 10
27.0237
 20
219.624
 11
27
 21
220
  0
LINE
  8
0
 10
27
 20
220
 11
27.0237
 21
220.376
  0
LINE
  8
0
 10
27.0237
 20
220.376
 11
27.0942
 21
220.746
  0
LINE
  8
0
 10
27.0942
 20
220.746
 11
27.2107
 21
221.104
  0
LINE
  8
0
 10
27.2107
 20
221.104
 11
27.3711
 21
221.445
  0
LINE
  8
0
 10
27.3711
 20
221.445
 11
27.5729
 21
221.763
  0
LINE
  8
0
 10
27.5729
 20
221.763
 11
27.8131
 21
222.054
  0
LINE
  8
0
 10
27.8131
 20
222.054
 11
28.0877
 21
222.312
  0
LINE
  8
0
 10
28.0877
 20
222.312
 11
28.3925
 21
222.533
  0
LINE
  8
0
 10
28.3925
 20
222.533
 11
28.7227
 21
222.714
  0
LINE
  8
0
 10
28.7227
 20
222.714
 11
29.0729
 21
222.853
  0
LINE
  8
0
 10
29.0729
 20
222.853
 11
29.4379
 21
222.947
  0
LINE
  8
0
 10
29.4379
 20
222.947
 11
29.8116
 21
222.994
  0
LINE
  8
0
 10
29.8116
 20
222.994
 11
30.1884
 21
222.994
  0
LINE
  8
0
 10
30.1884
 20
222.994
 11
30.5621
 21
222.947
  0
LINE
  8
0
 10
30.5621
 20
222.947
 11
30.927
 21
222.853
  0
LINE
  8
0
 10
30.927
 20
222.853
 11
31.2773
 21
222.714
  0
LINE
  8
0
 10
31.2773
 20
222.714
 11
31.6075
 21
222.533
  0
LINE
  8
0
 10
31.6075
 20
222.533
 11
31.9123
 21
222.312
  0
LINE
  8
0
 10
31.9123
 20
222.312
 11
32.1869
 21
222.054
  0
LINE
  8
0
 10
32.1869
 20
222.054
 11
32.427
 21
221.763
  0
LINE
  8
0
 10
32.427
 20
221.763
 11
32.6289
 21
221.445
  0
LINE
  8
0
 10
32.6289
 20
221.445
 11
32.7893
 21
221.104
  0
LINE
  8
0
 10
32.7893
 20
221.104
 11
32.9057
 21
220.746
  0
LINE
  8
0
 10
32.9057
 20
220.746
 11
32.9763
 21
220.376
  0
LINE
  8
0
 10
32.9763
 20
220.376
 11
33
 21
220
  0
LINE
  8
0
 10
33
 20
220
 11
32.9763
 21
219.624
  0
LINE
  8
0
 10
32.9763
 20
219.624
 11
32.9057
 21
219.254
  0
LINE
  8
0
 10
32.9057
 20
219.254
 11
32.7893
 21
218.896
  0
LINE
  8
0
 10
32.7893
 20
218.896
 11
32.6289
 21
218.555
  0
LINE
  8
0
 10
32.6289
 20
218.555
 11
32.427
 21
218.237
  0
LINE
  8
0
 10
32.427
 20
218.237
 11
32.1869
 21
217.946
  0
LINE
  8
0
 10
32.1869
 20
217.946
 11
31.9123
 21
217.688
  0
LINE
  8
0
 10
31.9123
 20
217.688
 11
31.6075
 21
217.467
  0
LINE
  8
0
 10
31.6075
 20
217.467
 11
31.2773
 21
217.286
  0
LINE
  8
0
 10
31.2773
 20
217.286
 11
30.927
 21
217.147
  0
LINE
  8
0
 10
30.927
 20
217.147
 11
30.5621
 21
217.053
  0
LINE
  8
0
 10
30.5621
 20
217.053
 11
30.1884
 21
217.006
  0
LINE
  8
0
 10
30.1884
 20
217.006
 11
29.8116
 21
217.006
  0
LINE
  8
0
 10
62.9369
 20
103.089
 11
63.5451
 21
103.245
  0
LINE
  8
0
 10
63.5451
 20
103.245
 11
64.1289
 21
103.476
  0
LINE
  8
0
 10
64.1289
 20
103.476
 11
64.6791
 21
103.778
  0
LINE
  8
0
 10
64.6791
 20
103.778
 11
65.1871
 21
104.147
  0
LINE
  8
0
 10
65.1871
 20
104.147
 11
65.6448
 21
104.577
  0
LINE
  8
0
 10
65.6448
 20
104.577
 11
66.0451
 21
105.061
  0
LINE
  8
0
 10
66.0451
 20
105.061
 11
66.3815
 21
105.591
  0
LINE
  8
0
 10
66.3815
 20
105.591
 11
66.6489
 21
106.159
  0
LINE
  8
0
 10
66.6489
 20
106.159
 11
66.8429
 21
106.757
  0
LINE
  8
0
 10
66.8429
 20
106.757
 11
66.9606
 21
107.373
  0
LINE
  8
0
 10
66.9606
 20
107.373
 11
67
 21
108
  0
LINE
  8
0
 10
67
 20
108
 11
67
 21
202
  0
LINE
  8
0
 10
67
 20
202
 11
66.9606
 21
202.627
  0
LINE
  8
0
 10
66.9606
 20
202.627
 11
66.8429
 21
203.243
  0
LINE
  8
0
 10
66.8429
 20
203.243
 11
66.6489
 21
203.841
  0
LINE
  8
0
 10
66.6489
 20
203.841
 11
66.3815
 21
204.409
  0
LINE
  8
0
 10
66.3815
 20
204.409
 11
66.0451
 21
204.939
  0
LINE
  8
0
 10
66.0451
 20
204.939
 11
65.6448
 21
205.423
  0
LINE
  8
0
 10
65.6448
 20
205.423
 11
65.1871
 21
205.853
  0
LINE
  8
0
 10
65.1871
 20
205.853
 11
64.6791
 21
206.222
  0
LINE
  8
0
 10
64.6791
 20
206.222
 11
64.1289
 21
206.524
  0
LINE
  8
0
 10
64.1289
 20
206.524
 11
63.5451
 21
206.755
  0
LINE
  8
0
 10
63.5451
 20
206.755
 11
62.9369
 21
206.911
  0
LINE
  8
0
 10
62.9369
 20
206.911
 11
62.3139
 21
206.99
  0
LINE
  8
0
 10
62.3139
 20
206.99
 11
-32.3139
 21
206.99
  0
LINE
  8
0
 10
-32.3139
 20
206.99
 11
-32.9369
 21
206.911
  0
LINE
  8
0
 10
-32.9369
 20
206.911
 11
-33.5451
 21
206.755
  0
LINE
  8
0
 10
-33.5451
 20
206.755
 11
-34.1289
 21
206.524
  0
LINE
  8
0
 10
-34.1289
 20
206.524
 11
-34.6791
 21
206.222
  0
LINE
  8
0
 10
-34.6791
 20
206.222
 11
-35.1871
 21
205.853
  0
LINE
  8
0
 10
-35.1871
 20
205.853
 11
-35.6448
 21
205.423
  0
LINE
  8
0
 10
-35.6448
 20
205.423
 11
-36.0451
 21
204.939
  0
LINE
  8
0
 10
-36.0451
 20
204.939
 11
-36.3815
 21
204.409
  0
LINE
  8
0
 10
-36.3815
 20
204.409
 11
-36.6489
 21
203.841
  0
LINE
  8
0
 10
-36.6489
 20
203.841
 11
-36.8429
 21
203.243
  0
LINE
  8
0
 10
-36.8429
 20
203.243
 11
-36.9606
 21
202.627
  0
LINE
  8
0
 10
-36.9606
 20
202.627
 11
-37
 21
202
  0
LINE
  8
0
 10
-37
 20
202
 11
-37
 21
116.99
  0
LINE
  8
0
 10
-37
 20
116.99
 11
-62.3139
 21
116.99
  0
LINE
  8
0
 10
-62.3139
 20
116.99
 11
-62.9369
 21
116.911
  0
LINE
  8
0
 10
-62.9369
 20
116.911
 11
-63.5451
 21
116.755
  0
LINE
  8
0
 10
-63.5451
 20
116.755
 11
-64.1289
 21
116.524
  0
LINE
  8
0
 10
-64.1289
 20
116.524
 11
-64.6791
 21
116.222
  0
LINE
  8
0
 10
-64.6791
 20
116.222
 11
-65.1871
 21
115.853
  0
LINE
  8
0
 10
-65.1871
 20
115.853
 11
-65.6448
 21
115.423
  0
LINE
  8
0
 10
-65.6448
 20
115.423
 11
-66.0451
 21
114.939
  0
LINE
  8
0
 10
-66.0451
 20
114.939
 11
-66.3815
 21
114.409
  0
LINE
  8
0
 10
-66.3815
 20
114.409
 11
-66.6489
 21
113.841
  0
LINE
  8
0
 10
-66.6489
 20
113.841
 11
-66.8429
 21
113.243
  0
LINE
  8
0
 10
-66.8429
 20
113.243
 11
-66.9606
 21
112.627
  0
LINE
  8
0
 10
-66.9606
 20
112.627
 11
-67
 21
112
  0
LINE
  8
0
 10
-67
 20
112
 11
-67
 21
108
  0
LINE
  8
0
 10
-67
 20
108
 11
-66.9606
 21
107.373
  0
LINE
  8
0
 10
-66.9606
 20
107.373
 11
-66.8429
 21
106.757
  0
LINE
  8
0
 10
-66.8429
 20
106.757
 11
-66.6489
 21
106.159
  0
LINE
  8
0
 10
-66.6489
 20
106.159
 11
-66.3815
 21
105.591
  0
LINE
  8
0
 10
-66.3815
 20
105.591
 11
-66.0451
 21
105.061
  0
LINE
  8
0
 10
-66.0451
 20
105.061
 11
-65.6448
 21
104.577
  0
LINE
  8
0
 10
-65.6448
 20
104.577
 11
-65.1871
 21
104.147
  0
LINE
  8
0
 10
-65.1871
 20
104.147
 11
-64.6791
 21
103.778
  0
LINE
  8
0
 10
-64.6791
 20
103.778
 11
-64.1289
 21
103.476
  0
LINE
  8
0
 10
-64.1289
 20
103.476
 11
-63.5451
 21
103.245
  0
LINE
  8
0
 10
-63.5451
 20
103.245
 11
-62.9369
 21
103.089
  0
LINE
  8
0
 10
-62.9369
 20
103.089
 11
-62.3139
 21
103.01
  0
LINE
  8
0
 10
-62.3139
 20
103.01
 11
62.3139
 21
103.01
  0
LINE
  8
0
 10
62.3139
 20
103.01
 11
62.9369
 21
103.089
  0
LINE
  8
0
 10
-45.1884
 20
107.006
 11
-45.5621
 21
107.053
  0
LINE
  8
0
 10
-45.5621
 20
107.053
 11
-45.927
 21
107.147
  0
LINE
  8
0
 10
-45.927
 20
107.147
 11
-46.2773
 21
107.286
  0
LINE
  8
0
 10
-46.2773
 20
107.286
 11
-46.6075
 21
107.467
  0
LINE
  8
0
 10
-46.6075
 20
107.467
 11
-46.9123
 21
107.688
  0
LINE
  8
0
 10
-46.9123
 20
107.688
 11
-47.1869
 21
107.946
  0
LINE
  8
0
 10
-47.1869
 20
107.946
 11
-47.427
 21
108.237
  0
LINE
  8
0
 10
-47.427
 20
108.237
 11
-47.6289
 21
108.555
  0
LINE
  8
0
 10
-47.6289
 20
108.555
 11
-47.7893
 21
108.896
  0
LINE
  8
0
 10
-47.7893
 20
108.896
 11
-47.9057
 21
109.254
  0
LINE
  8
0
 10
-47.9057
 20
109.254
 11
-47.9763
 21
109.624
  0
LINE
  8
0
 10
-47.9763
 20
109.624
 11
-48
 21
110
  0
LINE
  8
0
 10
-48
 20
110
 11
-47.9763
 21
110.376
  0
LINE
  8
0
 10
-47.9763
 20
110.376
 11
-47.9057
 21
110.746
  0
LINE
  8
0
 10
-47.9057
 20
110.746
 11
-47.7893
 21
111.104
  0
LINE
  8
0
 10
-47.7893
 20
111.104
 11
-47.6289
 21
111.445
  0
LINE
  8
0
 10
-47.6289
 20
111.445
 11
-47.427
 21
111.763
  0
LINE
  8
0
 10
-47.427
 20
111.763
 11
-47.1869
 21
112.054
  0
LINE
  8
0
 10
-47.1869
 20
112.054
 11
-46.9123
 21
112.312
  0
LINE
  8
0
 10
-46.9123
 20
112.312
 11
-46.6075
 21
112.533
  0
LINE
  8
0
 10
-46.6075
 20
112.533
 11
-46.2773
 21
112.714
  0
LINE
  8
0
 10
-46.2773
 20
112.714
 11
-45.927
 21
112.853
  0
LINE
  8
0
 10
-45.927
 20
112.853
 11
-45.5621
 21
112.947
  0
LINE
  8
0
 10
-45.5621
 20
112.947
 11
-45.1884
 21
112.994
  0
LINE
  8
0
 10
-45.1884
 20
112.994
 11
-44.8116
 21
112.994
  0
LINE
  8
0
 10
-44.8116
 20
112.994
 11
-44.4379
 21
112.947
  0
LINE
  8
0
 10
-44.4379
 20
112.947
 11
-44.0729
 21
112.853
  0
LINE
  8
0
 10
-44.0729
 20
112.853
 11
-43.7227
 21
112.714
  0
LINE
  8
0
 10
-43.7227
 20
112.714
 11
-43.3925
 21
112.533
  0
LINE
  8
0
 10
-43.3925
 20
112.533
 11
-43.0877
 21
112.312
  0
LINE
  8
0
 10
-43.0877
 20
112.312
 11
-42.8131
 21
112.054
  0
LINE
  8
0
 10
-42.8131
 20
112.054
 11
-42.5729
 21
111.763
  0
LINE
  8
0
 10
-42.5729
 20
111.763
 11
-42.3711
 21
111.445
  0
LINE
  8
0
 10
-42.3711
 20
111.445
 11
-42.2107
 21
111.104
  0
LINE
  8
0
 10
-42.2107
 20
111.104
 11
-42.0942
 21
110.746
  0
LINE
  8
0
 10
-42.0942
 20
110.746
 11
-42.0237
 21
110.376
  0
LINE
  8
0
 10
-42.0237
 20
110.376
 11
-42
 21
110
  0
LINE
  8
0
 10
-42
 20
110
 11
-42.0237
 21
109.624
  0
LINE
  8
0
 10
-42.0237
 20
109.624
 11
-42.0942
 21
109.254
  0
LINE
  8
0
 10
-42.0942
 20
109.254
 11
-42.2107
 21
108.896
  0
LINE
  8
0
 10
-42.2107
 20
108.896
 11
-42.3711
 21
108.555
  0
LINE
  8
0
 10
-42.3711
 20
108.555
 11
-42.5729
 21
108.237
  0
LINE
  8
0
 10
-42.5729
 20
108.237
 11
-42.8131
 21
107.946
  0
LINE
  8
0
 10
-42.8131
 20
107.946
 11
-43.0877
 21
107.688
  0
LINE
  8
0
 10
-43.0877
 20
107.688
 11
-43.3925
 21
107.467
  0
LINE
  8
0
 10
-43.3925
 20
107.467
 11
-43.7227
 21
107.286
  0
LINE
  8
0
 10
-43.7227
 20
107.286
 11
-44.0729
 21
107.147
  0
LINE
  8
0
 10
-44.0729
 20
107.147
 11
-44.4379
 21
107.053
  0
LINE
  8
0
 10
-44.4379
 20
107.053
 11
-44.8116
 21
107.006
  0
LINE
  8
0
 10
-44.8116
 20
107.006
 11
-45.1884
 21
107.006
  0
LINE
  8
0
 10
-0.18837
 20
107.006
 11
-0.562134
 21
107.053
  0
LINE
  8
0
 10
-0.562134
 20
107.053
 11
-0.927048
 21
107.147
  0
LINE
  8
0
 10
-0.927048
 20
107.147
 11
-1.27733
 21
107.286
  0
LINE
  8
0
 10
-1.27733
 20
107.286
 11
-1.60747
 21
107.467
  0
LINE
  8
0
 10
-1.60747
 20
107.467
 11
-1.91226
 21
107.688
  0
LINE
  8
0
 10
-1.91226
 20
107.688
 11
-2.1869
 21
107.946
  0
LINE
  8
0
 10
-2.1869
 20
107.946
 11
-2.42705
 21
108.237
  0
LINE
  8
0
 10
-2.42705
 20
108.237
 11
-2.62891
 21
108.555
  0
LINE
  8
0
 10
-2.62891
 20
108.555
 11
-2.78932
 21
108.896
  0
LINE
  8
0
 10
-2.78932
 20
108.896
 11
-2.90575
 21
109.254
  0
LINE
  8
0
 10
-2.90575
 20
109.254
 11
-2.97633
 21
109.624
  0
LINE
  8
0
 10
-2.97633
 20
109.624
 11
-3
 21
110
  0
LINE
  8
0
 10
-3
 20
110
 11
-2.97633
 21
110.376
  0
LINE
  8
0
 10
-2.97633
 20
110.376
 11
-2.90575
 21
110.746
  0
LINE
  8
0
 10
-2.90575
 20
110.746
 11
-2.78932
 21
111.104
  0
LINE
  8
0
 10
-2.78932
 20
111.104
 11
-2.62891
 21
111.445
  0
LINE
  8
0
 10
-2.62891
 20
111.445
 11
-2.42705
 21
111.763
  0
LINE
  8
0
 10
-2.42705
 20
111.763
 11
-2.1869
 21
112.054
  0
LINE
  8
0
 10
-2.1869
 20
112.054
 11
-1.91226
 21
112.312
  0
LINE
  8
0
 10
-1.91226
 20
112.312
 11
-1.60747
 21
112.533
  0
LINE
  8
0
 10
-1.60747
 20
112.533
 11
-1.27733
 21
112.714
  0
LINE
  8
0
 10
-1.27733
 20
112.714
 11
-0.927048
 21
112.853
  0
LINE
  8
0
 10
-0.927048
 20
112.853
 11
-0.562134
 21
112.947
  0
LINE
  8
0
 10
-0.562134
 20
112.947
 11
-0.18837
 21
112.994
  0
LINE
  8
0
 10
-0.18837
 20
112.994
 11
0.18837
 21
112.994
  0
LINE
  8
0
 10
0.18837
 20
112.994
 11
0.562134
 21
112.947
  0
LINE
  8
0
 10
0.562134
 20
112.947
 11
0.927048
 21
112.853
  0
LINE
  8
0
 10
0.927048
 20
112.853
 11
1.27733
 21
112.714
  0
LINE
  8
0
 10
1.27733
 20
112.714
 11
1.60747
 21
112.533
  0
LINE
  8
0
 10
1.60747
 20
112.533
 11
1.91226
 21
112.312
  0
LINE
  8
0
 10
1.91226
 20
112.312
 11
2.1869
 21
112.054
  0
LINE
  8
0
 10
2.1869
 20
112.054
 11
2.42705
 21
111.763
  0
LINE
  8
0
 10
2.42705
 20
111.763
 11
2.62891
 21
111.445
  0
LINE
  8
0
 10
2.62891
 20
111.445
 11
2.78932
 21
111.104
  0
LINE
  8
0
 10
2.78932
 20
111.104
 11
2.90575
 21
110.746
  0
LINE
  8
0
 10
2.90575
 20
110.746
 11
2.97633
 21
110.376
  0
LINE
  8
0
 10
2.97633
 20
110.376
 11
3
 21
110
  0
LINE
  8
0
 10
3
 20
110
 11
2.97633
 21
109.624
  0
LINE
  8
0
 10
2.97633
 20
109.624
 11
2.90575
 21
109.254
  0
LINE
  8
0
 10
2.90575
 20
109.254
 11
2.78932
 21
108.896
  0
LINE
  8
0
 10
2.78932
 20
108.896
 11
2.62891
 21
108.555
  0
LINE
  8
0
 10
2.62891
 20
108.555
 11
2.42705
 21
108.237
  0
LINE
  8
0
 10
2.42705
 20
108.237
 11
2.1869
 21
107.946
  0
LINE
  8
0
 10
2.1869
 20
107.946
 11
1.91226
 21
107.688
  0
LINE
  8
0
 10
1.91226
 20
107.688
 11
1.60747
 21
107.467
  0
LINE
  8
0
 10
1.60747
 20
107.467
 11
1.27733
 21
107.286
  0
LINE
  8
0
 10
1.27733
 20
107.286
 11
0.927048
 21
107.147
  0
LINE
  8
0
 10
0.927048
 20
107.147
 11
0.562134
 21
107.053
  0
LINE
  8
0
 10
0.562134
 20
107.053
 11
0.18837
 21
107.006
  0
LINE
  8
0
 10
0.18837
 20
107.006
 11
-0.18837
 21
107.006
  0
LINE
  8
0
 10
29.8116
 20
107.006
 11
29.4379
 21
107.053
  0
LINE
  8
0
 10
29.4379
 20
107.053
 11
29.0729
 21
107.147
  0
LINE
  8
0
 10
29.0729
 20
107.147
 11
28.7227
 21
107.286
  0
LINE
  8
0
 10
28.7227
 20
107.286
 11
28.3925
 21
107.467
  0
LINE
  8
0
 10
28.3925
 20
107.467
 11
28.0877
 21
107.688
  0
LINE
  8
0
 10
28.0877
 20
107.688
 11
27.8131
 21
107.946
  0
LINE
  8
0
 10
27.8131
 20
107.946
 11
27.5729
 21
108.237
  0
LINE
  8
0
 10
27.5729
 20
108.237
 11
27.3711
 21
108.555
  0
LINE
  8
0
 10
27.3711
 20
108.555
 11
27.2107
 21
108.896
  0
LINE
  8
0
 10
27.2107
 20
108.896
 11
27.0942
 21
109.254
  0
LINE
  8
0
 10
27.0942
 20
109.254
 11
27.0237
 21
109.624
  0
LINE
  8
0
 10
27.0237
 20
109.624
 11
27
 21
110
  0
LINE
  8
0
 10
27
 20
110
 11
27.0237
 21
110.376
  0
LINE
  8
0
 10
27.0237
 20
110.376
 11
27.0942
 21
110.746
  0
LINE
  8
0
 10
27.0942
 20
110.746
 11
27.2107
 21
111.104
  0
LINE
  8
0
 10
27.2107
 20
111.104
 11
27.3711
 21
111.445
  0
LINE
  8
0
 10
27.3711
 20
111.445
 11
27.5729
 21
111.763
  0
LINE
  8
0
 10
27.5729
 20
111.763
 11
27.8131
 21
112.054
  0
LINE
  8
0
 10
27.8131
 20
112.054
 11
28.0877
 21
112.312
  0
LINE
  8
0
 10
28.0877
 20
112.312
 11
28.3925
 21
112.533
  0
LINE
  8
0
 10
28.3925
 20
112.533
 11
28.7227
 21
112.714
  0
LINE
  8
0
 10
28.7227
 20
112.714
 11
29.0729
 21
112.853
  0
LINE
  8
0
 10
29.0729
 20
112.853
 11
29.4379
 21
112.947
  0
LINE
  8
0
 10
29.4379
 20
112.947
 11
29.8116
 21
112.994
  0
LINE
  8
0
 10
29.8116
 20
112.994
 11
30.1884
 21
112.994
  0
LINE
  8
0
 10
30.1884
 20
112.994
 11
30.5621
 21
112.947
  0
LINE
  8
0
 10
30.5621
 20
112.947
 11
30.927
 21
112.853
  0
LINE
  8
0
 10
30.927
 20
112.853
 11
31.2773
 21
112.714
  0
LINE
  8
0
 10
31.2773
 20
112.714
 11
31.6075
 21
112.533
  0
LINE
  8
0
 10
31.6075
 20
112.533
 11
31.9123
 21
112.312
  0
LINE
  8
0
 10
31.9123
 20
112.312
 11
32.1869
 21
112.054
  0
LINE
  8
0
 10
32.1869
 20
112.054
 11
32.427
 21
111.763
  0
LINE
  8
0
 10
32.427
 20
111.763
 11
32.6289
 21
111.445
  0
LINE
  8
0
 10
32.6289
 20
111.445
 11
32.7893
 21
111.104
  0
LINE
  8
0
 10
32.7893
 20
111.104
 11
32.9057
 21
110.746
  0
LINE
  8
0
 10
32.9057
 20
110.746
 11
32.9763
 21
110.376
  0
LINE
  8
0
 10
32.9763
 20
110.376
 11
33
 21
110
  0
LINE
  8
0
 10
33
 20
110
 11
32.9763
 21
109.624
  0
LINE
  8
0
 10
32.9763
 20
109.624
 11
32.9057
 21
109.254
  0
LINE
  8
0
 10
32.9057
 20
109.254
 11
32.7893
 21
108.896
  0
LINE
  8
0
 10
32.7893
 20
108.896
 11
32.6289
 21
108.555
  0
LINE
  8
0
 10
32.6289
 20
108.555
 11
32.427
 21
108.237
  0
LINE
  8
0
 10
32.427
 20
108.237
 11
32.1869
 21
107.946
  0
LINE
  8
0
 10
32.1869
 20
107.946
 11
31.9123
 21
107.688
  0
LINE
  8
0
 10
31.9123
 20
107.688
 11
31.6075
 21
107.467
  0
LINE
  8
0
 10
31.6075
 20
107.467
 11
31.2773
 21
107.286
  0
LINE
  8
0
 10
31.2773
 20
107.286
 11
30.927
 21
107.147
  0
LINE
  8
0
 10
30.927
 20
107.147
 11
30.5621
 21
107.053
  0
LINE
  8
0
 10
30.5621
 20
107.053
 11
30.1884
 21
107.006
  0
LINE
  8
0
 10
30.1884
 20
107.006
 11
29.8116
 21
107.006
  0
LINE
  8
0
 10
-15.1884
 20
107.006
 11
-15.5621
 21
107.053
  0
LINE
  8
0
 10
-15.5621
 20
107.053
 11
-15.927
 21
107.147
  0
LINE
  8
0
 10
-15.927
 20
107.147
 11
-16.2773
 21
107.286
  0
LINE
  8
0
 10
-16.2773
 20
107.286
 11
-16.6075
 21
107.467
  0
LINE
  8
0
 10
-16.6075
 20
107.467
 11
-16.9123
 21
107.688
  0
LINE
  8
0
 10
-16.9123
 20
107.688
 11
-17.1869
 21
107.946
  0
LINE
  8
0
 10
-17.1869
 20
107.946
 11
-17.427
 21
108.237
  0
LINE
  8
0
 10
-17.427
 20
108.237
 11
-17.6289
 21
108.555
  0
LINE
  8
0
 10
-17.6289
 20
108.555
 11
-17.7893
 21
108.896
  0
LINE
  8
0
 10
-17.7893
 20
108.896
 11
-17.9057
 21
109.254
  0
LINE
  8
0
 10
-17.9057
 20
109.254
 11
-17.9763
 21
109.624
  0
LINE
  8
0
 10
-17.9763
 20
109.624
 11
-18
 21
110
  0
LINE
  8
0
 10
-18
 20
110
 11
-17.9763
 21
110.376
  0
LINE
  8
0
 10
-17.9763
 20
110.376
 11
-17.9057
 21
110.746
  0
LINE
  8
0
 10
-17.9057
 20
110.746
 11
-17.7893
 21
111.104
  0
LINE
  8
0
 10
-17.7893
 20
111.104
 11
-17.6289
 21
111.445
  0
LINE
  8
0
 10
-17.6289
 20
111.445
 11
-17.427
 21
111.763
  0
LINE
  8
0
 10
-17.427
 20
111.763
 11
-17.1869
 21
112.054
  0
LINE
  8
0
 10
-17.1869
 20
112.054
 11
-16.9123
 21
112.312
  0
LINE
  8
0
 10
-16.9123
 20
112.312
 11
-16.6075
 21
112.533
  0
LINE
  8
0
 10
-16.6075
 20
112.533
 11
-16.2773
 21
112.714
  0
LINE
  8
0
 10
-16.2773
 20
112.714
 11
-15.927
 21
112.853
  0
LINE
  8
0
 10
-15.927
 20
112.853
 11
-15.5621
 21
112.947
  0
LINE
  8
0
 10
-15.5621
 20
112.947
 11
-15.1884
 21
112.994
  0
LINE
  8
0
 10
-15.1884
 20
112.994
 11
-14.8116
 21
112.994
  0
LINE
  8
0
 10
-14.8116
 20
112.994
 11
-14.4379
 21
112.947
  0
LINE
  8
0
 10
-14.4379
 20
112.947
 11
-14.0729
 21
112.853
  0
LINE
  8
0
 10
-14.0729
 20
112.853
 11
-13.7227
 21
112.714
  0
LINE
  8
0
 10
-13.7227
 20
112.714
 11
-13.3925
 21
112.533
  0
LINE
  8
0
 10
-13.3925
 20
112.533
 11
-13.0877
 21
112.312
  0
LINE
  8
0
 10
-13.0877
 20
112.312
 11
-12.8131
 21
112.054
  0
LINE
  8
0
 10
-12.8131
 20
112.054
 11
-12.5729
 21
111.763
  0
LINE
  8
0
 10
-12.5729
 20
111.763
 11
-12.3711
 21
111.445
  0
LINE
  8
0
 10
-12.3711
 20
111.445
 11
-12.2107
 21
111.104
  0
LINE
  8
0
 10
-12.2107
 20
111.104
 11
-12.0942
 21
110.746
  0
LINE
  8
0
 10
-12.0942
 20
110.746
 11
-12.0237
 21
110.376
  0
LINE
  8
0
 10
-12.0237
 20
110.376
 11
-12
 21
110
  0
LINE
  8
0
 10
-12
 20
110
 11
-12.0237
 21
109.624
  0
LINE
  8
0
 10
-12.0237
 20
109.624
 11
-12.0942
 21
109.254
  0
LINE
  8
0
 10
-12.0942
 20
109.254
 11
-12.2107
 21
108.896
  0
LINE
  8
0
 10
-12.2107
 20
108.896
 11
-12.3711
 21
108.555
  0
LINE
  8
0
 10
-12.3711
 20
108.555
 11
-12.5729
 21
108.237
  0
LINE
  8
0
 10
-12.5729
 20
108.237
 11
-12.8131
 21
107.946
  0
LINE
  8
0
 10
-12.8131
 20
107.946
 11
-13.0877
 21
107.688
  0
LINE
  8
0
 10
-13.0877
 20
107.688
 11
-13.3925
 21
107.467
  0
LINE
  8
0
 10
-13.3925
 20
107.467
 11
-13.7227
 21
107.286
  0
LINE
  8
0
 10
-13.7227
 20
107.286
 11
-14.0729
 21
107.147
  0
LINE
  8
0
 10
-14.0729
 20
107.147
 11
-14.4379
 21
107.053
  0
LINE
  8
0
 10
-14.4379
 20
107.053
 11
-14.8116
 21
107.006
  0
LINE
  8
0
 10
-14.8116
 20
107.006
 11
-15.1884
 21
107.006
  0
LINE
  8
0
 10
-60.1884
 20
107.006
 11
-60.5621
 21
107.053
  0
LINE
  8
0
 10
-60.5621
 20
107.053
 11
-60.927
 21
107.147
  0
LINE
  8
0
 10
-60.927
 20
107.147
 11
-61.2773
 21
107.286
  0
LINE
  8
0
 10
-61.2773
 20
107.286
 11
-61.6075
 21
107.467
  0
LINE
  8
0
 10
-61.6075
 20
107.467
 11
-61.9123
 21
107.688
  0
LINE
  8
0
 10
-61.9123
 20
107.688
 11
-62.1869
 21
107.946
  0
LINE
  8
0
 10
-62.1869
 20
107.946
 11
-62.427
 21
108.237
  0
LINE
  8
0
 10
-62.427
 20
108.237
 11
-62.6289
 21
108.555
  0
LINE
  8
0
 10
-62.6289
 20
108.555
 11
-62.7893
 21
108.896
  0
LINE
  8
0
 10
-62.7893
 20
108.896
 11
-62.9057
 21
109.254
  0
LINE
  8
0
 10
-62.9057
 20
109.254
 11
-62.9763
 21
109.624
  0
LINE
  8
0
 10
-62.9763
 20
109.624
 11
-63
 21
110
  0
LINE
  8
0
 10
-63
 20
110
 11
-62.9763
 21
110.376
  0
LINE
  8
0
 10
-62.9763
 20
110.376
 11
-62.9057
 21
110.746
  0
LINE
  8
0
 10
-62.9057
 20
110.746
 11
-62.7893
 21
111.104
  0
LINE
  8
0
 10
-62.7893
 20
111.104
 11
-62.6289
 21
111.445
  0
LINE
  8
0
 10
-62.6289
 20
111.445
 11
-62.427
 21
111.763
  0
LINE
  8
0
 10
-62.427
 20
111.763
 11
-62.1869
 21
112.054
  0
LINE
  8
0
 10
-62.1869
 20
112.054
 11
-61.9123
 21
112.312
  0
LINE
  8
0
 10
-61.9123
 20
112.312
 11
-61.6075
 21
112.533
  0
LINE
  8
0
 10
-61.6075
 20
112.533
 11
-61.2773
 21
112.714
  0
LINE
  8
0
 10
-61.2773
 20
112.714
 11
-60.927
 21
112.853
  0
LINE
  8
0
 10
-60.927
 20
112.853
 11
-60.5621
 21
112.947
  0
LINE
  8
0
 10
-60.5621
 20
112.947
 11
-60.1884
 21
112.994
  0
LINE
  8
0
 10
-60.1884
 20
112.994
 11
-59.8116
 21
112.994
  0
LINE
  8
0
 10
-59.8116
 20
112.994
 11
-59.4379
 21
112.947
  0
LINE
  8
0
 10
-59.4379
 20
112.947
 11
-59.0729
 21
112.853
  0
LINE
  8
0
 10
-59.0729
 20
112.853
 11
-58.7227
 21
112.714
  0
LINE
  8
0
 10
-58.7227
 20
112.714
 11
-58.3925
 21
112.533
  0
LINE
  8
0
 10
-58.3925
 20
112.533
 11
-58.0877
 21
112.312
  0
LINE
  8
0
 10
-58.0877
 20
112.312
 11
-57.8131
 21
112.054
  0
LINE
  8
0
 10
-57.8131
 20
112.054
 11
-57.5729
 21
111.763
  0
LINE
  8
0
 10
-57.5729
 20
111.763
 11
-57.3711
 21
111.445
  0
LINE
  8
0
 10
-57.3711
 20
111.445
 11
-57.2107
 21
111.104
  0
LINE
  8
0
 10
-57.2107
 20
111.104
 11
-57.0942
 21
110.746
  0
LINE
  8
0
 10
-57.0942
 20
110.746
 11
-57.0237
 21
110.376
  0
LINE
  8
0
 10
-57.0237
 20
110.376
 11
-57
 21
110
  0
LINE
  8
0
 10
-57
 20
110
 11
-57.0237
 21
109.624
  0
LINE
  8
0
 10
-57.0237
 20
109.624
 11
-57.0942
 21
109.254
  0
LINE
  8
0
 10
-57.0942
 20
109.254
 11
-57.2107
 21
108.896
  0
LINE
  8
0
 10
-57.2107
 20
108.896
 11
-57.3711
 21
108.555
  0
LINE
  8
0
 10
-57.3711
 20
108.555
 11
-57.5729
 21
108.237
  0
LINE
  8
0
 10
-57.5729
 20
108.237
 11
-57.8131
 21
107.946
  0
LINE
  8
0
 10
-57.8131
 20
107.946
 11
-58.0877
 21
107.688
  0
LINE
  8
0
 10
-58.0877
 20
107.688
 11
-58.3925
 21
107.467
  0
LINE
  8
0
 10
-58.3925
 20
107.467
 11
-58.7227
 21
107.286
  0
LINE
  8
0
 10
-58.7227
 20
107.286
 11
-59.0729
 21
107.147
  0
LINE
  8
0
 10
-59.0729
 20
107.147
 11
-59.4379
 21
107.053
  0
LINE
  8
0
 10
-59.4379
 20
107.053
 11
-59.8116
 21
107.006
  0
LINE
  8
0
 10
-59.8116
 20
107.006
 11
-60.1884
 21
107.006
  0
LINE
  8
0
 10
14.8116
 20
107.006
 11
14.4379
 21
107.053
  0
LINE
  8
0
 10
14.4379
 20
107.053
 11
14.0729
 21
107.147
  0
LINE
  8
0
 10
14.0729
 20
107.147
 11
13.7227
 21
107.286
  0
LINE
  8
0
 10
13.7227
 20
107.286
 11
13.3925
 21
107.467
  0
LINE
  8
0
 10
13.3925
 20
107.467
 11
13.0877
 21
107.688
  0
LINE
  8
0
 10
13.0877
 20
107.688
 11
12.8131
 21
107.946
  0
LINE
  8
0
 10
12.8131
 20
107.946
 11
12.5729
 21
108.237
  0
LINE
  8
0
 10
12.5729
 20
108.237
 11
12.3711
 21
108.555
  0
LINE
  8
0
 10
12.3711
 20
108.555
 11
12.2107
 21
108.896
  0
LINE
  8
0
 10
12.2107
 20
108.896
 11
12.0942
 21
109.254
  0
LINE
  8
0
 10
12.0942
 20
109.254
 11
12.0237
 21
109.624
  0
LINE
  8
0
 10
12.0237
 20
109.624
 11
12
 21
110
  0
LINE
  8
0
 10
12
 20
110
 11
12.0237
 21
110.376
  0
LINE
  8
0
 10
12.0237
 20
110.376
 11
12.0942
 21
110.746
  0
LINE
  8
0
 10
12.0942
 20
110.746
 11
12.2107
 21
111.104
  0
LINE
  8
0
 10
12.2107
 20
111.104
 11
12.3711
 21
111.445
  0
LINE
  8
0
 10
12.3711
 20
111.445
 11
12.5729
 21
111.763
  0
LINE
  8
0
 10
12.5729
 20
111.763
 11
12.8131
 21
112.054
  0
LINE
  8
0
 10
12.8131
 20
112.054
 11
13.0877
 21
112.312
  0
LINE
  8
0
 10
13.0877
 20
112.312
 11
13.3925
 21
112.533
  0
LINE
  8
0
 10
13.3925
 20
112.533
 11
13.7227
 21
112.714
  0
LINE
  8
0
 10
13.7227
 20
112.714
 11
14.0729
 21
112.853
  0
LINE
  8
0
 10
14.0729
 20
112.853
 11
14.4379
 21
112.947
  0
LINE
  8
0
 10
14.4379
 20
112.947
 11
14.8116
 21
112.994
  0
LINE
  8
0
 10
14.8116
 20
112.994
 11
15.1884
 21
112.994
  0
LINE
  8
0
 10
15.1884
 20
112.994
 11
15.5621
 21
112.947
  0
LINE
  8
0
 10
15.5621
 20
112.947
 11
15.927
 21
112.853
  0
LINE
  8
0
 10
15.927
 20
112.853
 11
16.2773
 21
112.714
  0
LINE
  8
0
 10
16.2773
 20
112.714
 11
16.6075
 21
112.533
  0
LINE
  8
0
 10
16.6075
 20
112.533
 11
16.9123
 21
112.312
  0
LINE
  8
0
 10
16.9123
 20
112.312
 11
17.1869
 21
112.054
  0
LINE
  8
0
 10
17.1869
 20
112.054
 11
17.427
 21
111.763
  0
LINE
  8
0
 10
17.427
 20
111.763
 11
17.6289
 21
111.445
  0
LINE
  8
0
 10
17.6289
 20
111.445
 11
17.7893
 21
111.104
  0
LINE
  8
0
 10
17.7893
 20
111.104
 11
17.9057
 21
110.746
  0
LINE
  8
0
 10
17.9057
 20
110.746
 11
17.9763
 21
110.376
  0
LINE
  8
0
 10
17.9763
 20
110.376
 11
18
 21
110
  0
LINE
  8
0
 10
18
 20
110
 11
17.9763
 21
109.624
  0
LINE
  8
0
 10
17.9763
 20
109.624
 11
17.9057
 21
109.254
  0
LINE
  8
0
 10
17.9057
 20
109.254
 11
17.7893
 21
108.896
  0
LINE
  8
0
 10
17.7893
 20
108.896
 11
17.6289
 21
108.555
  0
LINE
  8
0
 10
17.6289
 20
108.555
 11
17.427
 21
108.237
  0
LINE
  8
0
 10
17.427
 20
108.237
 11
17.1869
 21
107.946
  0
LINE
  8
0
 10
17.1869
 20
107.946
 11
16.9123
 21
107.688
  0
LINE
  8
0
 10
16.9123
 20
107.688
 11
16.6075
 21
107.467
  0
LINE
  8
0
 10
16.6075
 20
107.467
 11
16.2773
 21
107.286
  0
LINE
  8
0
 10
16.2773
 20
107.286
 11
15.927
 21
107.147
  0
LINE
  8
0
 10
15.927
 20
107.147
 11
15.5621
 21
107.053
  0
LINE
  8
0
 10
15.5621
 20
107.053
 11
15.1884
 21
107.006
  0
LINE
  8
0
 10
15.1884
 20
107.006
 11
14.8116
 21
107.006
  0
LINE
  8
0
 10
59.8116
 20
107.006
 11
59.4379
 21
107.053
  0
LINE
  8
0
 10
59.4379
 20
107.053
 11
59.0729
 21
107.147
  0
LINE
  8
0
 10
59.0729
 20
107.147
 11
58.7227
 21
107.286
  0
LINE
  8
0
 10
58.7227
 20
107.286
 11
58.3925
 21
107.467
  0
LINE
  8
0
 10
58.3925
 20
107.467
 11
58.0877
 21
107.688
  0
LINE
  8
0
 10
58.0877
 20
107.688
 11
57.8131
 21
107.946
  0
LINE
  8
0
 10
57.8131
 20
107.946
 11
57.5729
 21
108.237
  0
LINE
  8
0
 10
57.5729
 20
108.237
 11
57.3711
 21
108.555
  0
LINE
  8
0
 10
57.3711
 20
108.555
 11
57.2107
 21
108.896
  0
LINE
  8
0
 10
57.2107
 20
108.896
 11
57.0942
 21
109.254
  0
LINE
  8
0
 10
57.0942
 20
109.254
 11
57.0237
 21
109.624
  0
LINE
  8
0
 10
57.0237
 20
109.624
 11
57
 21
110
  0
LINE
  8
0
 10
57
 20
110
 11
57.0237
 21
110.376
  0
LINE
  8
0
 10
57.0237
 20
110.376
 11
57.0942
 21
110.746
  0
LINE
  8
0
 10
57.0942
 20
110.746
 11
57.2107
 21
111.104
  0
LINE
  8
0
 10
57.2107
 20
111.104
 11
57.3711
 21
111.445
  0
LINE
  8
0
 10
57.3711
 20
111.445
 11
57.5729
 21
111.763
  0
LINE
  8
0
 10
57.5729
 20
111.763
 11
57.8131
 21
112.054
  0
LINE
  8
0
 10
57.8131
 20
112.054
 11
58.0877
 21
112.312
  0
LINE
  8
0
 10
58.0877
 20
112.312
 11
58.3925
 21
112.533
  0
LINE
  8
0
 10
58.3925
 20
112.533
 11
58.7227
 21
112.714
  0
LINE
  8
0
 10
58.7227
 20
112.714
 11
59.0729
 21
112.853
  0
LINE
  8
0
 10
59.0729
 20
112.853
 11
59.4379
 21
112.947
  0
LINE
  8
0
 10
59.4379
 20
112.947
 11
59.8116
 21
112.994
  0
LINE
  8
0
 10
59.8116
 20
112.994
 11
60.1884
 21
112.994
  0
LINE
  8
0
 10
60.1884
 20
112.994
 11
60.5621
 21
112.947
  0
LINE
  8
0
 10
60.5621
 20
112.947
 11
60.927
 21
112.853
  0
LINE
  8
0
 10
60.927
 20
112.853
 11
61.2773
 21
112.714
  0
LINE
  8
0
 10
61.2773
 20
112.714
 11
61.6075
 21
112.533
  0
LINE
  8
0
 10
61.6075
 20
112.533
 11
61.9123
 21
112.312
  0
LINE
  8
0
 10
61.9123
 20
112.312
 11
62.1869
 21
112.054
  0
LINE
  8
0
 10
62.1869
 20
112.054
 11
62.427
 21
111.763
  0
LINE
  8
0
 10
62.427
 20
111.763
 11
62.6289
 21
111.445
  0
LINE
  8
0
 10
62.6289
 20
111.445
 11
62.7893
 21
111.104
  0
LINE
  8
0
 10
62.7893
 20
111.104
 11
62.9057
 21
110.746
  0
LINE
  8
0
 10
62.9057
 20
110.746
 11
62.9763
 21
110.376
  0
LINE
  8
0
 10
62.9763
 20
110.376
 11
63
 21
110
  0
LINE
  8
0
 10
63
 20
110
 11
62.9763
 21
109.624
  0
LINE
  8
0
 10
62.9763
 20
109.624
 11
62.9057
 21
109.254
  0
LINE
  8
0
 10
62.9057
 20
109.254
 11
62.7893
 21
108.896
  0
LINE
  8
0
 10
62.7893
 20
108.896
 11
62.6289
 21
108.555
  0
LINE
  8
0
 10
62.6289
 20
108.555
 11
62.427
 21
108.237
  0
LINE
  8
0
 10
62.427
 20
108.237
 11
62.1869
 21
107.946
  0
LINE
  8
0
 10
62.1869
 20
107.946
 11
61.9123
 21
107.688
  0
LINE
  8
0
 10
61.9123
 20
107.688
 11
61.6075
 21
107.467
  0
LINE
  8
0
 10
61.6075
 20
107.467
 11
61.2773
 21
107.286
  0
LINE
  8
0
 10
61.2773
 20
107.286
 11
60.927
 21
107.147
  0
LINE
  8
0
 10
60.927
 20
107.147
 11
60.5621
 21
107.053
  0
LINE
  8
0
 10
60.5621
 20
107.053
 11
60.1884
 21
107.006
  0
LINE
  8
0
 10
60.1884
 20
107.006
 11
59.8116
 21
107.006
  0
LINE
  8
0
 10
-30.1884
 20
107.006
 11
-30.5621
 21
107.053
  0
LINE
  8
0
 10
-30.5621
 20
107.053
 11
-30.927
 21
107.147
  0
LINE
  8
0
 10
-30.927
 20
107.147
 11
-31.2773
 21
107.286
  0
LINE
  8
0
 10
-31.2773
 20
107.286
 11
-31.6075
 21
107.467
  0
LINE
  8
0
 10
-31.6075
 20
107.467
 11
-31.9123
 21
107.688
  0
LINE
  8
0
 10
-31.9123
 20
107.688
 11
-32.1869
 21
107.946
  0
LINE
  8
0
 10
-32.1869
 20
107.946
 11
-32.427
 21
108.237
  0
LINE
  8
0
 10
-32.427
 20
108.237
 11
-32.6289
 21
108.555
  0
LINE
  8
0
 10
-32.6289
 20
108.555
 11
-32.7893
 21
108.896
  0
LINE
  8
0
 10
-32.7893
 20
108.896
 11
-32.9057
 21
109.254
  0
LINE
  8
0
 10
-32.9057
 20
109.254
 11
-32.9763
 21
109.624
  0
LINE
  8
0
 10
-32.9763
 20
109.624
 11
-33
 21
110
  0
LINE
  8
0
 10
-33
 20
110
 11
-32.9763
 21
110.376
  0
LINE
  8
0
 10
-32.9763
 20
110.376
 11
-32.9057
 21
110.746
  0
LINE
  8
0
 10
-32.9057
 20
110.746
 11
-32.7893
 21
111.104
  0
LINE
  8
0
 10
-32.7893
 20
111.104
 11
-32.6289
 21
111.445
  0
LINE
  8
0
 10
-32.6289
 20
111.445
 11
-32.427
 21
111.763
  0
LINE
  8
0
 10
-32.427
 20
111.763
 11
-32.1869
 21
112.054
  0
LINE
  8
0
 10
-32.1869
 20
112.054
 11
-31.9123
 21
112.312
  0
LINE
  8
0
 10
-31.9123
 20
112.312
 11
-31.6075
 21
112.533
  0
LINE
  8
0
 10
-31.6075
 20
112.533
 11
-31.2773
 21
112.714
  0
LINE
  8
0
 10
-31.2773
 20
112.714
 11
-30.927
 21
112.853
  0
LINE
  8
0
 10
-30.927
 20
112.853
 11
-30.5621
 21
112.947
  0
LINE
  8
0
 10
-30.5621
 20
112.947
 11
-30.1884
 21
112.994
  0
LINE
  8
0
 10
-30.1884
 20
112.994
 11
-29.8116
 21
112.994
  0
LINE
  8
0
 10
-29.8116
 20
112.994
 11
-29.4379
 21
112.947
  0
LINE
  8
0
 10
-29.4379
 20
112.947
 11
-29.0729
 21
112.853
  0
LINE
  8
0
 10
-29.0729
 20
112.853
 11
-28.7227
 21
112.714
  0
LINE
  8
0
 10
-28.7227
 20
112.714
 11
-28.3925
 21
112.533
  0
LINE
  8
0
 10
-28.3925
 20
112.533
 11
-28.0877
 21
112.312
  0
LINE
  8
0
 10
-28.0877
 20
112.312
 11
-27.8131
 21
112.054
  0
LINE
  8
0
 10
-27.8131
 20
112.054
 11
-27.5729
 21
111.763
  0
LINE
  8
0
 10
-27.5729
 20
111.763
 11
-27.3711
 21
111.445
  0
LINE
  8
0
 10
-27.3711
 20
111.445
 11
-27.2107
 21
111.104
  0
LINE
  8
0
 10
-27.2107
 20
111.104
 11
-27.0942
 21
110.746
  0
LINE
  8
0
 10
-27.0942
 20
110.746
 11
-27.0237
 21
110.376
  0
LINE
  8
0
 10
-27.0237
 20
110.376
 11
-27
 21
110
  0
LINE
  8
0
 10
-27
 20
110
 11
-27.0237
 21
109.624
  0
LINE
  8
0
 10
-27.0237
 20
109.624
 11
-27.0942
 21
109.254
  0
LINE
  8
0
 10
-27.0942
 20
109.254
 11
-27.2107
 21
108.896
  0
LINE
  8
0
 10
-27.2107
 20
108.896
 11
-27.3711
 21
108.555
  0
LINE
  8
0
 10
-27.3711
 20
108.555
 11
-27.5729
 21
108.237
  0
LINE
  8
0
 10
-27.5729
 20
108.237
 11
-27.8131
 21
107.946
  0
LINE
  8
0
 10
-27.8131
 20
107.946
 11
-28.0877
 21
107.688
  0
LINE
  8
0
 10
-28.0877
 20
107.688
 11
-28.3925
 21
107.467
  0
LINE
  8
0
 10
-28.3925
 20
107.467
 11
-28.7227
 21
107.286
  0
LINE
  8
0
 10
-28.7227
 20
107.286
 11
-29.0729
 21
107.147
  0
LINE
  8
0
 10
-29.0729
 20
107.147
 11
-29.4379
 21
107.053
  0
LINE
  8
0
 10
-29.4379
 20
107.053
 11
-29.8116
 21
107.006
  0
LINE
  8
0
 10
-29.8116
 20
107.006
 11
-30.1884
 21
107.006
  0
LINE
  8
0
 10
44.8116
 20
107.006
 11
44.4379
 21
107.053
  0
LINE
  8
0
 10
44.4379
 20
107.053
 11
44.0729
 21
107.147
  0
LINE
  8
0
 10
44.0729
 20
107.147
 11
43.7227
 21
107.286
  0
LINE
  8
0
 10
43.7227
 20
107.286
 11
43.3925
 21
107.467
  0
LINE
  8
0
 10
43.3925
 20
107.467
 11
43.0877
 21
107.688
  0
LINE
  8
0
 10
43.0877
 20
107.688
 11
42.8131
 21
107.946
  0
LINE
  8
0
 10
42.8131
 20
107.946
 11
42.5729
 21
108.237
  0
LINE
  8
0
 10
42.5729
 20
108.237
 11
42.3711
 21
108.555
  0
LINE
  8
0
 10
42.3711
 20
108.555
 11
42.2107
 21
108.896
  0
LINE
  8
0
 10
42.2107
 20
108.896
 11
42.0942
 21
109.254
  0
LINE
  8
0
 10
42.0942
 20
109.254
 11
42.0237
 21
109.624
  0
LINE
  8
0
 10
42.0237
 20
109.624
 11
42
 21
110
  0
LINE
  8
0
 10
42
 20
110
 11
42.0237
 21
110.376
  0
LINE
  8
0
 10
42.0237
 20
110.376
 11
42.0942
 21
110.746
  0
LINE
  8
0
 10
42.0942
 20
110.746
 11
42.2107
 21
111.104
  0
LINE
  8
0
 10
42.2107
 20
111.104
 11
42.3711
 21
111.445
  0
LINE
  8
0
 10
42.3711
 20
111.445
 11
42.5729
 21
111.763
  0
LINE
  8
0
 10
42.5729
 20
111.763
 11
42.8131
 21
112.054
  0
LINE
  8
0
 10
42.8131
 20
112.054
 11
43.0877
 21
112.312
  0
LINE
  8
0
 10
43.0877
 20
112.312
 11
43.3925
 21
112.533
  0
LINE
  8
0
 10
43.3925
 20
112.533
 11
43.7227
 21
112.714
  0
LINE
  8
0
 10
43.7227
 20
112.714
 11
44.0729
 21
112.853
  0
LINE
  8
0
 10
44.0729
 20
112.853
 11
44.4379
 21
112.947
  0
LINE
  8
0
 10
44.4379
 20
112.947
 11
44.8116
 21
112.994
  0
LINE
  8
0
 10
44.8116
 20
112.994
 11
45.1884
 21
112.994
  0
LINE
  8
0
 10
45.1884
 20
112.994
 11
45.5621
 21
112.947
  0
LINE
  8
0
 10
45.5621
 20
112.947
 11
45.927
 21
112.853
  0
LINE
  8
0
 10
45.927
 20
112.853
 11
46.2773
 21
112.714
  0
LINE
  8
0
 10
46.2773
 20
112.714
 11
46.6075
 21
112.533
  0
LINE
  8
0
 10
46.6075
 20
112.533
 11
46.9123
 21
112.312
  0
LINE
  8
0
 10
46.9123
 20
112.312
 11
47.1869
 21
112.054
  0
LINE
  8
0
 10
47.1869
 20
112.054
 11
47.427
 21
111.763
  0
LINE
  8
0
 10
47.427
 20
111.763
 11
47.6289
 21
111.445
  0
LINE
  8
0
 10
47.6289
 20
111.445
 11
47.7893
 21
111.104
  0
LINE
  8
0
 10
47.7893
 20
111.104
 11
47.9057
 21
110.746
  0
LINE
  8
0
 10
47.9057
 20
110.746
 11
47.9763
 21
110.376
  0
LINE
  8
0
 10
47.9763
 20
110.376
 11
48
 21
110
  0
LINE
  8
0
 10
48
 20
110
 11
47.9763
 21
109.624
  0
LINE
  8
0
 10
47.9763
 20
109.624
 11
47.9057
 21
109.254
  0
LINE
  8
0
 10
47.9057
 20
109.254
 11
47.7893
 21
108.896
  0
LINE
  8
0
 10
47.7893
 20
108.896
 11
47.6289
 21
108.555
  0
LINE
  8
0
 10
47.6289
 20
108.555
 11
47.427
 21
108.237
  0
LINE
  8
0
 10
47.427
 20
108.237
 11
47.1869
 21
107.946
  0
LINE
  8
0
 10
47.1869
 20
107.946
 11
46.9123
 21
107.688
  0
LINE
  8
0
 10
46.9123
 20
107.688
 11
46.6075
 21
107.467
  0
LINE
  8
0
 10
46.6075
 20
107.467
 11
46.2773
 21
107.286
  0
LINE
  8
0
 10
46.2773
 20
107.286
 11
45.927
 21
107.147
  0
LINE
  8
0
 10
45.927
 20
107.147
 11
45.5621
 21
107.053
  0
LINE
  8
0
 10
45.5621
 20
107.053
 11
45.1884
 21
107.006
  0
LINE
  8
0
 10
45.1884
 20
107.006
 11
44.8116
 21
107.006
  0
ENDSEC
  0
SECTION
  2
OBJECTS
  0
DICTIONARY
  0
ENDSEC
  0
EOF
