<?xml version="1.0" standalone="no"?>
<!DOCTYPE svg PUBLIC "-//W3C//DTD SVG 1.1//EN" "http://www.w3.org/Graphics/SVG/1.1/DTD/svg11.dtd">
<svg width="16mm" height="112mm" viewBox="-8 -224 16 112" xmlns="http://www.w3.org/2000/svg" version="1.1">
<title>OpenSCAD Model</title>
<path d="
M 1.40535,-208.633 L 2.31763,-208.867 L 3.19334,-209.214 L 4.01869,-209.668 L 4.78067,-210.221 L 5.46725,-210.866
 L 6.06763,-211.592 L 6.5723,-212.387 L 6.97331,-213.239 L 7.26436,-214.135 L 7.44086,-215.06 L 7.5,-216
 L 7.44086,-216.94 L 7.26436,-217.865 L 6.97331,-218.761 L 6.5723,-219.613 L 6.06763,-220.408 L 5.46725,-221.134
 L 4.78067,-221.779 L 4.01869,-222.332 L 3.19334,-222.786 L 2.31763,-223.133 L 1.40535,-223.367 L 0.470917,-223.485
 L -0.470917,-223.485 L -1.40535,-223.367 L -2.31763,-223.133 L -3.19334,-222.786 L -4.01869,-222.332 L -4.78067,-221.779
 L -5.46725,-221.134 L -6.06763,-220.408 L -6.5723,-219.613 L -6.97331,-218.761 L -7.26436,-217.865 L -7.44086,-216.94
 L -7.5,-216 L -7.44086,-215.06 L -7.26436,-214.135 L -6.97331,-213.239 L -6.5723,-212.387 L -6.06763,-211.592
 L -5.46725,-210.866 L -4.78067,-210.221 L -4.01869,-209.668 L -3.19334,-209.214 L -2.31763,-208.867 L -1.40535,-208.633
 L -0.470917,-208.515 L 0.470917,-208.515 z
M -2.25116,-210.008 L -2.74951,-210.071 L -3.23605,-210.196 L -3.70311,-210.381 L -4.1433,-210.623 L -4.54968,-210.918
 L -4.91586,-211.262 L -5.23605,-211.649 L -5.50522,-212.073 L -5.7191,-212.528 L -5.87433,-213.005 L -5.96844,-213.499
 L -6,-214 L -6,-218 L -5.96844,-218.501 L -5.87433,-218.995 L -5.7191,-219.472 L -5.50522,-219.927
 L -5.23605,-220.351 L -4.91586,-220.738 L -4.54968,-221.082 L -4.1433,-221.377 L -3.70311,-221.619 L -3.23605,-221.804
 L -2.74951,-221.929 L -2.25116,-221.992 L 2.25116,-221.992 L 2.74951,-221.929 L 3.23605,-221.804 L 3.70311,-221.619
 L 4.1433,-221.377 L 4.54968,-221.082 L 4.91586,-220.738 L 5.23605,-220.351 L 5.50522,-219.927 L 5.7191,-219.472
 L 5.87433,-218.995 L 5.96844,-218.501 L 6,-218 L 6,-214 L 5.96844,-213.499 L 5.87433,-213.005
 L 5.7191,-212.528 L 5.50522,-212.073 L 5.23605,-211.649 L 4.91586,-211.262 L 4.54968,-210.918 L 4.1433,-210.623
 L 3.70311,-210.381 L 3.23605,-210.196 L 2.74951,-210.071 L 2.25116,-210.008 z
M 1.40535,-184.633 L 2.31763,-184.867 L 3.19334,-185.214 L 4.01869,-185.668 L 4.78067,-186.221 L 5.46725,-186.866
 L 6.06763,-187.592 L 6.5723,-188.387 L 6.97331,-189.239 L 7.26436,-190.135 L 7.44086,-191.06 L 7.5,-192
 L 7.44086,-192.94 L 7.26436,-193.865 L 6.97331,-194.761 L 6.5723,-195.613 L 6.06763,-196.408 L 5.46725,-197.134
 L 4.78067,-197.779 L 4.01869,-198.332 L 3.19334,-198.786 L 2.31763,-199.133 L 1.40535,-199.367 L 0.470917,-199.485
 L -0.470917,-199.485 L -1.40535,-199.367 L -2.31763,-199.133 L -3.19334,-198.786 L -4.01869,-198.332 L -4.78067,-197.779
 L -5.46725,-197.134 L -6.06763,-196.408 L -6.5723,-195.613 L -6.97331,-194.761 L -7.26436,-193.865 L -7.44086,-192.94
 L -7.5,-192 L -7.44086,-191.06 L -7.26436,-190.135 L -6.97331,-189.239 L -6.5723,-188.387 L -6.06763,-187.592
 L -5.46725,-186.866 L -4.78067,-186.221 L -4.01869,-185.668 L -3.19334,-185.214 L -2.31763,-184.867 L -1.40535,-184.633
 L -0.470917,-184.515 L 0.470917,-184.515 z
M -2.25116,-186.008 L -2.74951,-186.071 L -3.23605,-186.196 L -3.70311,-186.381 L -4.1433,-186.623 L -4.54968,-186.918
 L -4.91586,-187.262 L -5.23605,-187.649 L -5.50522,-188.073 L -5.7191,-188.528 L -5.87433,-189.005 L -5.96844,-189.499
 L -6,-190 L -6,-194 L -5.96844,-194.501 L -5.87433,-194.995 L -5.7191,-195.472 L -5.50522,-195.927
 L -5.23605,-196.351 L -4.91586,-196.738 L -4.54968,-197.082 L -4.1433,-197.377 L -3.70311,-197.619 L -3.23605,-197.804
 L -2.74951,-197.929 L -2.25116,-197.992 L 2.25116,-197.992 L 2.74951,-197.929 L 3.23605,-197.804 L 3.70311,-197.619
 L 4.1433,-197.377 L 4.54968,-197.082 L 4.91586,-196.738 L 5.23605,-196.351 L 5.50522,-195.927 L 5.7191,-195.472
 L 5.87433,-194.995 L 5.96844,-194.501 L 6,-194 L 6,-190 L 5.96844,-189.499 L 5.87433,-189.005
 L 5.7191,-188.528 L 5.50522,-188.073 L 5.23605,-187.649 L 4.91586,-187.262 L 4.54968,-186.918 L 4.1433,-186.623
 L 3.70311,-186.381 L 3.23605,-186.196 L 2.74951,-186.071 L 2.25116,-186.008 z
M 1.40535,-160.633 L 2.31763,-160.867 L 3.19334,-161.214 L 4.01869,-161.668 L 4.78067,-162.221 L 5.46725,-162.866
 L 6.06763,-163.592 L 6.5723,-164.387 L 6.97331,-165.239 L 7.26436,-166.135 L 7.44086,-167.06 L 7.5,-168
 L 7.44086,-168.94 L 7.26436,-169.865 L 6.97331,-170.761 L 6.5723,-171.613 L 6.06763,-172.408 L 5.46725,-173.134
 L 4.78067,-173.779 L 4.01869,-174.332 L 3.19334,-174.786 L 2.31763,-175.133 L 1.40535,-175.367 L 0.470917,-175.485
 L -0.470917,-175.485 L -1.40535,-175.367 L -2.31763,-175.133 L -3.19334,-174.786 L -4.01869,-174.332 L -4.78067,-173.779
 L -5.46725,-173.134 L -6.06763,-172.408 L -6.5723,-171.613 L -6.97331,-170.761 L -7.26436,-169.865 L -7.44086,-168.94
 L -7.5,-168 L -7.44086,-167.06 L -7.26436,-166.135 L -6.97331,-165.239 L -6.5723,-164.387 L -6.06763,-163.592
 L -5.46725,-162.866 L -4.78067,-162.221 L -4.01869,-161.668 L -3.19334,-161.214 L -2.31763,-160.867 L -1.40535,-160.633
 L -0.470917,-160.515 L 0.470917,-160.515 z
M -2.25116,-162.008 L -2.74951,-162.071 L -3.23605,-162.196 L -3.70311,-162.381 L -4.1433,-162.623 L -4.54968,-162.918
 L -4.91586,-163.262 L -5.23605,-163.649 L -5.50522,-164.073 L -5.7191,-164.528 L -5.87433,-165.005 L -5.96844,-165.499
 L -6,-166 L -6,-170 L -5.96844,-170.501 L -5.87433,-170.995 L -5.7191,-171.472 L -5.50522,-171.927
 L -5.23605,-172.351 L -4.91586,-172.738 L -4.54968,-173.082 L -4.1433,-173.377 L -3.70311,-173.619 L -3.23605,-173.804
 L -2.74951,-173.929 L -2.25116,-173.992 L 2.25116,-173.992 L 2.74951,-173.929 L 3.23605,-173.804 L 3.70311,-173.619
 L 4.1433,-173.377 L 4.54968,-173.082 L 4.91586,-172.738 L 5.23605,-172.351 L 5.50522,-171.927 L 5.7191,-171.472
 L 5.87433,-170.995 L 5.96844,-170.501 L 6,-170 L 6,-166 L 5.96844,-165.499 L 5.87433,-165.005
 L 5.7191,-164.528 L 5.50522,-164.073 L 5.23605,-163.649 L 4.91586,-163.262 L 4.54968,-162.918 L 4.1433,-162.623
 L 3.70311,-162.381 L 3.23605,-162.196 L 2.74951,-162.071 L 2.25116,-162.008 z
M 1.40535,-136.633 L 2.31763,-136.867 L 3.19334,-137.214 L 4.01869,-137.668 L 4.78067,-138.221 L 5.46725,-138.866
 L 6.06763,-139.592 L 6.5723,-140.387 L 6.97331,-141.239 L 7.26436,-142.135 L 7.44086,-143.06 L 7.5,-144
 L 7.44086,-144.94 L 7.26436,-145.865 L 6.97331,-146.761 L 6.5723,-147.613 L 6.06763,-148.408 L 5.46725,-149.134
 L 4.78067,-149.779 L 4.01869,-150.332 L 3.19334,-150.786 L 2.31763,-151.133 L 1.40535,-151.367 L 0.470917,-151.485
 L -0.470917,-151.485 L -1.40535,-151.367 L -2.31763,-151.133 L -3.19334,-150.786 L -4.01869,-150.332 L -4.78067,-149.779
 L -5.46725,-149.134 L -6.06763,-148.408 L -6.5723,-147.613 L -6.97331,-146.761 L -7.26436,-145.865 L -7.44086,-144.94
 L -7.5,-144 L -7.44086,-143.06 L -7.26436,-142.135 L -6.97331,-141.239 L -6.5723,-140.387 L -6.06763,-139.592
 L -5.46725,-138.866 L -4.78067,-138.221 L -4.01869,-137.668 L -3.19334,-137.214 L -2.31763,-136.867 L -1.40535,-136.633
 L -0.470917,-136.515 L 0.470917,-136.515 z
M -2.19545,-138.893 L -2.5833,-138.942 L -2.96194,-139.039 L -3.32541,-139.183 L -3.66798,-139.372 L -3.98424,-139.601
 L -4.26921,-139.869 L -4.5184,-140.17 L -4.72786,-140.5 L -4.89432,-140.854 L -5.01512,-141.226 L -5.08836,-141.61
 L -5.11292,-142 L -5.11292,-146 L -5.08836,-146.39 L -5.01512,-146.774 L -4.89432,-147.146 L -4.72786,-147.5
 L -4.5184,-147.83 L -4.26921,-148.131 L -3.98424,-148.399 L -3.66798,-148.628 L -3.32541,-148.817 L -2.96194,-148.961
 L -2.5833,-149.058 L -2.19545,-149.107 L 2.19545,-149.107 L 2.5833,-149.058 L 2.96194,-148.961 L 3.32541,-148.817
 L 3.66798,-148.628 L 3.98424,-148.399 L 4.26921,-148.131 L 4.5184,-147.83 L 4.72786,-147.5 L 4.89432,-147.146
 L 5.01512,-146.774 L 5.08836,-146.39 L 5.11292,-146 L 5.11292,-142 L 5.08836,-141.61 L 5.01512,-141.226
 L 4.89432,-140.854 L 4.72786,-140.5 L 4.5184,-140.17 L 4.26921,-139.869 L 3.98424,-139.601 L 3.66798,-139.372
 L 3.32541,-139.183 L 2.96194,-139.039 L 2.5833,-138.942 L 2.19545,-138.893 z
M 1.40535,-112.633 L 2.31763,-112.867 L 3.19334,-113.214 L 4.01869,-113.668 L 4.78067,-114.221 L 5.46725,-114.866
 L 6.06763,-115.592 L 6.5723,-116.387 L 6.97331,-117.239 L 7.26436,-118.135 L 7.44086,-119.06 L 7.5,-120
 L 7.44086,-120.94 L 7.26436,-121.865 L 6.97331,-122.761 L 6.5723,-123.613 L 6.06763,-124.408 L 5.46725,-125.134
 L 4.78067,-125.779 L 4.01869,-126.332 L 3.19334,-126.786 L 2.31763,-127.133 L 1.40535,-127.367 L 0.470917,-127.485
 L -0.470917,-127.485 L -1.40535,-127.367 L -2.31763,-127.133 L -3.19334,-126.786 L -4.01869,-126.332 L -4.78067,-125.779
 L -5.46725,-125.134 L -6.06763,-124.408 L -6.5723,-123.613 L -6.97331,-122.761 L -7.26436,-121.865 L -7.44086,-120.94
 L -7.5,-120 L -7.44086,-119.06 L -7.26436,-118.135 L -6.97331,-117.239 L -6.5723,-116.387 L -6.06763,-115.592
 L -5.46725,-114.866 L -4.78067,-114.221 L -4.01869,-113.668 L -3.19334,-113.214 L -2.31763,-112.867 L -1.40535,-112.633
 L -0.470917,-112.515 L 0.470917,-112.515 z
M -0.134064,-117.869 L -0.400101,-117.903 L -0.659836,-117.969 L -0.909149,-118.068 L -1.14413,-118.197 L -1.36108,-118.355
 L -1.55655,-118.538 L -1.72748,-118.745 L -1.87117,-118.971 L -1.98534,-119.214 L -2.06821,-119.469 L -2.11845,-119.732
 L -2.13528,-120 L -2.11845,-120.268 L -2.06821,-120.531 L -1.98534,-120.786 L -1.87117,-121.029 L -1.72748,-121.255
 L -1.55655,-121.462 L -1.36108,-121.645 L -1.14413,-121.803 L -0.909149,-121.932 L -0.659836,-122.031 L -0.400101,-122.097
 L -0.134064,-122.131 L 0.134064,-122.131 L 0.400101,-122.097 L 0.659836,-122.031 L 0.909149,-121.932 L 1.14413,-121.803
 L 1.36108,-121.645 L 1.55655,-121.462 L 1.72748,-121.255 L 1.87117,-121.029 L 1.98534,-120.786 L 2.06821,-120.531
 L 2.11845,-120.268 L 2.13528,-120 L 2.11845,-119.732 L 2.06821,-119.469 L 1.98534,-119.214 L 1.87117,-118.971
 L 1.72748,-118.745 L 1.55655,-118.538 L 1.36108,-118.355 L 1.14413,-118.197 L 0.909149,-118.068 L 0.659836,-117.969
 L 0.400101,-117.903 L 0.134064,-117.869 z
" stroke="black" fill="lightgray" stroke-width="0.5"/>
</svg>
