  0
SECTION
  2
BLOCKS
  0
ENDSEC
  0
SECTION
  2
ENTITIES
  0
LINE
  8
0
 10
3.4369
 20
439.589
 11
4.04507
 21
439.745
  0
LINE
  8
0
 10
4.04507
 20
439.745
 11
4.62889
 21
439.976
  0
LINE
  8
0
 10
4.62889
 20
439.976
 11
5.17912
 21
440.278
  0
LINE
  8
0
 10
5.17912
 20
440.278
 11
5.68712
 21
440.647
  0
LINE
  8
0
 10
5.68712
 20
440.647
 11
6.14484
 21
441.077
  0
LINE
  8
0
 10
6.14484
 20
441.077
 11
6.54507
 21
441.561
  0
LINE
  8
0
 10
6.54507
 20
441.561
 11
6.88153
 21
442.091
  0
LINE
  8
0
 10
6.88153
 20
442.091
 11
7.14888
 21
442.659
  0
LINE
  8
0
 10
7.14888
 20
442.659
 11
7.34291
 21
443.257
  0
LINE
  8
0
 10
7.34291
 20
443.257
 11
7.46057
 21
443.873
  0
LINE
  8
0
 10
7.46057
 20
443.873
 11
7.5
 21
444.5
  0
LINE
  8
0
 10
7.5
 20
444.5
 11
7.5
 21
599.5
  0
LINE
  8
0
 10
7.5
 20
599.5
 11
7.46057
 21
600.127
  0
LINE
  8
0
 10
7.46057
 20
600.127
 11
7.34291
 21
600.743
  0
LINE
  8
0
 10
7.34291
 20
600.743
 11
7.14888
 21
601.341
  0
LINE
  8
0
 10
7.14888
 20
601.341
 11
6.88153
 21
601.909
  0
LINE
  8
0
 10
6.88153
 20
601.909
 11
6.54507
 21
602.439
  0
LINE
  8
0
 10
6.54507
 20
602.439
 11
6.14484
 21
602.923
  0
LINE
  8
0
 10
6.14484
 20
602.923
 11
5.68712
 21
603.353
  0
LINE
  8
0
 10
5.68712
 20
603.353
 11
5.17912
 21
603.722
  0
LINE
  8
0
 10
5.17912
 20
603.722
 11
4.62889
 21
604.024
  0
LINE
  8
0
 10
4.62889
 20
604.024
 11
4.04507
 21
604.255
  0
LINE
  8
0
 10
4.04507
 20
604.255
 11
3.4369
 21
604.411
  0
LINE
  8
0
 10
3.4369
 20
604.411
 11
2.81395
 21
604.49
  0
LINE
  8
0
 10
2.81395
 20
604.49
 11
-2.81395
 21
604.49
  0
LINE
  8
0
 10
-2.81395
 20
604.49
 11
-3.4369
 21
604.411
  0
LINE
  8
0
 10
-3.4369
 20
604.411
 11
-4.04507
 21
604.255
  0
LINE
  8
0
 10
-4.04507
 20
604.255
 11
-4.62889
 21
604.024
  0
LINE
  8
0
 10
-4.62889
 20
604.024
 11
-5.17912
 21
603.722
  0
LINE
  8
0
 10
-5.17912
 20
603.722
 11
-5.68712
 21
603.353
  0
LINE
  8
0
 10
-5.68712
 20
603.353
 11
-6.14484
 21
602.923
  0
LINE
  8
0
 10
-6.14484
 20
602.923
 11
-6.54507
 21
602.439
  0
LINE
  8
0
 10
-6.54507
 20
602.439
 11
-6.88153
 21
601.909
  0
LINE
  8
0
 10
-6.88153
 20
601.909
 11
-7.14888
 21
601.341
  0
LINE
  8
0
 10
-7.14888
 20
601.341
 11
-7.34291
 21
600.743
  0
LINE
  8
0
 10
-7.34291
 20
600.743
 11
-7.46057
 21
600.127
  0
LINE
  8
0
 10
-7.46057
 20
600.127
 11
-7.5
 21
599.5
  0
LINE
  8
0
 10
-7.5
 20
599.5
 11
-7.5
 21
444.5
  0
LINE
  8
0
 10
-7.5
 20
444.5
 11
-7.46057
 21
443.873
  0
LINE
  8
0
 10
-7.46057
 20
443.873
 11
-7.34291
 21
443.257
  0
LINE
  8
0
 10
-7.34291
 20
443.257
 11
-7.14888
 21
442.659
  0
LINE
  8
0
 10
-7.14888
 20
442.659
 11
-6.88153
 21
442.091
  0
LINE
  8
0
 10
-6.88153
 20
442.091
 11
-6.54507
 21
441.561
  0
LINE
  8
0
 10
-6.54507
 20
441.561
 11
-6.14484
 21
441.077
  0
LINE
  8
0
 10
-6.14484
 20
441.077
 11
-5.68712
 21
440.647
  0
LINE
  8
0
 10
-5.68712
 20
440.647
 11
-5.17912
 21
440.278
  0
LINE
  8
0
 10
-5.17912
 20
440.278
 11
-4.62889
 21
439.976
  0
LINE
  8
0
 10
-4.62889
 20
439.976
 11
-4.04507
 21
439.745
  0
LINE
  8
0
 10
-4.04507
 20
439.745
 11
-3.4369
 21
439.589
  0
LINE
  8
0
 10
-3.4369
 20
439.589
 11
-2.81395
 21
439.51
  0
LINE
  8
0
 10
-2.81395
 20
439.51
 11
2.81395
 21
439.51
  0
LINE
  8
0
 10
2.81395
 20
439.51
 11
3.4369
 21
439.589
  0
LINE
  8
0
 10
-2.19545
 20
441.893
 11
-2.5833
 21
441.942
  0
LINE
  8
0
 10
-2.5833
 20
441.942
 11
-2.96194
 21
442.039
  0
LINE
  8
0
 10
-2.96194
 20
442.039
 11
-3.32541
 21
442.183
  0
LINE
  8
0
 10
-3.32541
 20
442.183
 11
-3.66798
 21
442.372
  0
LINE
  8
0
 10
-3.66798
 20
442.372
 11
-3.98424
 21
442.601
  0
LINE
  8
0
 10
-3.98424
 20
442.601
 11
-4.26921
 21
442.869
  0
LINE
  8
0
 10
-4.26921
 20
442.869
 11
-4.5184
 21
443.17
  0
LINE
  8
0
 10
-4.5184
 20
443.17
 11
-4.72786
 21
443.5
  0
LINE
  8
0
 10
-4.72786
 20
443.5
 11
-4.89432
 21
443.854
  0
LINE
  8
0
 10
-4.89432
 20
443.854
 11
-5.01512
 21
444.226
  0
LINE
  8
0
 10
-5.01512
 20
444.226
 11
-5.08836
 21
444.61
  0
LINE
  8
0
 10
-5.08836
 20
444.61
 11
-5.11292
 21
445
  0
LINE
  8
0
 10
-5.11292
 20
445
 11
-5.11292
 21
599
  0
LINE
  8
0
 10
-5.11292
 20
599
 11
-5.08836
 21
599.39
  0
LINE
  8
0
 10
-5.08836
 20
599.39
 11
-5.01512
 21
599.774
  0
LINE
  8
0
 10
-5.01512
 20
599.774
 11
-4.89432
 21
600.146
  0
LINE
  8
0
 10
-4.89432
 20
600.146
 11
-4.72786
 21
600.5
  0
LINE
  8
0
 10
-4.72786
 20
600.5
 11
-4.5184
 21
600.83
  0
LINE
  8
0
 10
-4.5184
 20
600.83
 11
-4.26921
 21
601.131
  0
LINE
  8
0
 10
-4.26921
 20
601.131
 11
-3.98424
 21
601.399
  0
LINE
  8
0
 10
-3.98424
 20
601.399
 11
-3.66798
 21
601.628
  0
LINE
  8
0
 10
-3.66798
 20
601.628
 11
-3.32541
 21
601.817
  0
LINE
  8
0
 10
-3.32541
 20
601.817
 11
-2.96194
 21
601.961
  0
LINE
  8
0
 10
-2.96194
 20
601.961
 11
-2.5833
 21
602.058
  0
LINE
  8
0
 10
-2.5833
 20
602.058
 11
-2.19545
 21
602.107
  0
LINE
  8
0
 10
-2.19545
 20
602.107
 11
2.19545
 21
602.107
  0
LINE
  8
0
 10
2.19545
 20
602.107
 11
2.5833
 21
602.058
  0
LINE
  8
0
 10
2.5833
 20
602.058
 11
2.96194
 21
601.961
  0
LINE
  8
0
 10
2.96194
 20
601.961
 11
3.32541
 21
601.817
  0
LINE
  8
0
 10
3.32541
 20
601.817
 11
3.66798
 21
601.628
  0
LINE
  8
0
 10
3.66798
 20
601.628
 11
3.98424
 21
601.399
  0
LINE
  8
0
 10
3.98424
 20
601.399
 11
4.26921
 21
601.131
  0
LINE
  8
0
 10
4.26921
 20
601.131
 11
4.5184
 21
600.83
  0
LINE
  8
0
 10
4.5184
 20
600.83
 11
4.72786
 21
600.5
  0
LINE
  8
0
 10
4.72786
 20
600.5
 11
4.89432
 21
600.146
  0
LINE
  8
0
 10
4.89432
 20
600.146
 11
5.01512
 21
599.774
  0
LINE
  8
0
 10
5.01512
 20
599.774
 11
5.08836
 21
599.39
  0
LINE
  8
0
 10
5.08836
 20
599.39
 11
5.11292
 21
599
  0
LINE
  8
0
 10
5.11292
 20
599
 11
5.11292
 21
445
  0
LINE
  8
0
 10
5.11292
 20
445
 11
5.08836
 21
444.61
  0
LINE
  8
0
 10
5.08836
 20
444.61
 11
5.01512
 21
444.226
  0
LINE
  8
0
 10
5.01512
 20
444.226
 11
4.89432
 21
443.854
  0
LINE
  8
0
 10
4.89432
 20
443.854
 11
4.72786
 21
443.5
  0
LINE
  8
0
 10
4.72786
 20
443.5
 11
4.5184
 21
443.17
  0
LINE
  8
0
 10
4.5184
 20
443.17
 11
4.26921
 21
442.869
  0
LINE
  8
0
 10
4.26921
 20
442.869
 11
3.98424
 21
442.601
  0
LINE
  8
0
 10
3.98424
 20
442.601
 11
3.66798
 21
442.372
  0
LINE
  8
0
 10
3.66798
 20
442.372
 11
3.32541
 21
442.183
  0
LINE
  8
0
 10
3.32541
 20
442.183
 11
2.96194
 21
442.039
  0
LINE
  8
0
 10
2.96194
 20
442.039
 11
2.5833
 21
441.942
  0
LINE
  8
0
 10
2.5833
 20
441.942
 11
2.19545
 21
441.893
  0
LINE
  8
0
 10
2.19545
 20
441.893
 11
-2.19545
 21
441.893
  0
LINE
  8
0
 10
3.4369
 20
265.589
 11
4.04507
 21
265.745
  0
LINE
  8
0
 10
4.04507
 20
265.745
 11
4.62889
 21
265.976
  0
LINE
  8
0
 10
4.62889
 20
265.976
 11
5.17912
 21
266.278
  0
LINE
  8
0
 10
5.17912
 20
266.278
 11
5.68712
 21
266.647
  0
LINE
  8
0
 10
5.68712
 20
266.647
 11
6.14484
 21
267.077
  0
LINE
  8
0
 10
6.14484
 20
267.077
 11
6.54507
 21
267.561
  0
LINE
  8
0
 10
6.54507
 20
267.561
 11
6.88153
 21
268.091
  0
LINE
  8
0
 10
6.88153
 20
268.091
 11
7.14888
 21
268.659
  0
LINE
  8
0
 10
7.14888
 20
268.659
 11
7.34291
 21
269.257
  0
LINE
  8
0
 10
7.34291
 20
269.257
 11
7.46057
 21
269.873
  0
LINE
  8
0
 10
7.46057
 20
269.873
 11
7.5
 21
270.5
  0
LINE
  8
0
 10
7.5
 20
270.5
 11
7.5
 21
425.5
  0
LINE
  8
0
 10
7.5
 20
425.5
 11
7.46057
 21
426.127
  0
LINE
  8
0
 10
7.46057
 20
426.127
 11
7.34291
 21
426.743
  0
LINE
  8
0
 10
7.34291
 20
426.743
 11
7.14888
 21
427.341
  0
LINE
  8
0
 10
7.14888
 20
427.341
 11
6.88153
 21
427.909
  0
LINE
  8
0
 10
6.88153
 20
427.909
 11
6.54507
 21
428.439
  0
LINE
  8
0
 10
6.54507
 20
428.439
 11
6.14484
 21
428.923
  0
LINE
  8
0
 10
6.14484
 20
428.923
 11
5.68712
 21
429.353
  0
LINE
  8
0
 10
5.68712
 20
429.353
 11
5.17912
 21
429.722
  0
LINE
  8
0
 10
5.17912
 20
429.722
 11
4.62889
 21
430.024
  0
LINE
  8
0
 10
4.62889
 20
430.024
 11
4.04507
 21
430.255
  0
LINE
  8
0
 10
4.04507
 20
430.255
 11
3.4369
 21
430.411
  0
LINE
  8
0
 10
3.4369
 20
430.411
 11
2.81395
 21
430.49
  0
LINE
  8
0
 10
2.81395
 20
430.49
 11
-2.81395
 21
430.49
  0
LINE
  8
0
 10
-2.81395
 20
430.49
 11
-3.4369
 21
430.411
  0
LINE
  8
0
 10
-3.4369
 20
430.411
 11
-4.04507
 21
430.255
  0
LINE
  8
0
 10
-4.04507
 20
430.255
 11
-4.62889
 21
430.024
  0
LINE
  8
0
 10
-4.62889
 20
430.024
 11
-5.17912
 21
429.722
  0
LINE
  8
0
 10
-5.17912
 20
429.722
 11
-5.68712
 21
429.353
  0
LINE
  8
0
 10
-5.68712
 20
429.353
 11
-6.14484
 21
428.923
  0
LINE
  8
0
 10
-6.14484
 20
428.923
 11
-6.54507
 21
428.439
  0
LINE
  8
0
 10
-6.54507
 20
428.439
 11
-6.88153
 21
427.909
  0
LINE
  8
0
 10
-6.88153
 20
427.909
 11
-7.14888
 21
427.341
  0
LINE
  8
0
 10
-7.14888
 20
427.341
 11
-7.34291
 21
426.743
  0
LINE
  8
0
 10
-7.34291
 20
426.743
 11
-7.46057
 21
426.127
  0
LINE
  8
0
 10
-7.46057
 20
426.127
 11
-7.5
 21
425.5
  0
LINE
  8
0
 10
-7.5
 20
425.5
 11
-7.5
 21
270.5
  0
LINE
  8
0
 10
-7.5
 20
270.5
 11
-7.46057
 21
269.873
  0
LINE
  8
0
 10
-7.46057
 20
269.873
 11
-7.34291
 21
269.257
  0
LINE
  8
0
 10
-7.34291
 20
269.257
 11
-7.14888
 21
268.659
  0
LINE
  8
0
 10
-7.14888
 20
268.659
 11
-6.88153
 21
268.091
  0
LINE
  8
0
 10
-6.88153
 20
268.091
 11
-6.54507
 21
267.561
  0
LINE
  8
0
 10
-6.54507
 20
267.561
 11
-6.14484
 21
267.077
  0
LINE
  8
0
 10
-6.14484
 20
267.077
 11
-5.68712
 21
266.647
  0
LINE
  8
0
 10
-5.68712
 20
266.647
 11
-5.17912
 21
266.278
  0
LINE
  8
0
 10
-5.17912
 20
266.278
 11
-4.62889
 21
265.976
  0
LINE
  8
0
 10
-4.62889
 20
265.976
 11
-4.04507
 21
265.745
  0
LINE
  8
0
 10
-4.04507
 20
265.745
 11
-3.4369
 21
265.589
  0
LINE
  8
0
 10
-3.4369
 20
265.589
 11
-2.81395
 21
265.51
  0
LINE
  8
0
 10
-2.81395
 20
265.51
 11
2.81395
 21
265.51
  0
LINE
  8
0
 10
2.81395
 20
265.51
 11
3.4369
 21
265.589
  0
LINE
  8
0
 10
-0.134064
 20
420.869
 11
-0.400101
 21
420.903
  0
LINE
  8
0
 10
-0.400101
 20
420.903
 11
-0.659836
 21
420.969
  0
LINE
  8
0
 10
-0.659836
 20
420.969
 11
-0.909149
 21
421.068
  0
LINE
  8
0
 10
-0.909149
 20
421.068
 11
-1.14413
 21
421.197
  0
LINE
  8
0
 10
-1.14413
 20
421.197
 11
-1.36108
 21
421.355
  0
LINE
  8
0
 10
-1.36108
 20
421.355
 11
-1.55655
 21
421.538
  0
LINE
  8
0
 10
-1.55655
 20
421.538
 11
-1.72748
 21
421.745
  0
LINE
  8
0
 10
-1.72748
 20
421.745
 11
-1.87117
 21
421.971
  0
LINE
  8
0
 10
-1.87117
 20
421.971
 11
-1.98534
 21
422.214
  0
LINE
  8
0
 10
-1.98534
 20
422.214
 11
-2.06821
 21
422.469
  0
LINE
  8
0
 10
-2.06821
 20
422.469
 11
-2.11845
 21
422.732
  0
LINE
  8
0
 10
-2.11845
 20
422.732
 11
-2.13528
 21
423
  0
LINE
  8
0
 10
-2.13528
 20
423
 11
-2.11845
 21
423.268
  0
LINE
  8
0
 10
-2.11845
 20
423.268
 11
-2.06821
 21
423.531
  0
LINE
  8
0
 10
-2.06821
 20
423.531
 11
-1.98534
 21
423.786
  0
LINE
  8
0
 10
-1.98534
 20
423.786
 11
-1.87117
 21
424.029
  0
LINE
  8
0
 10
-1.87117
 20
424.029
 11
-1.72748
 21
424.255
  0
LINE
  8
0
 10
-1.72748
 20
424.255
 11
-1.55655
 21
424.462
  0
LINE
  8
0
 10
-1.55655
 20
424.462
 11
-1.36108
 21
424.645
  0
LINE
  8
0
 10
-1.36108
 20
424.645
 11
-1.14413
 21
424.803
  0
LINE
  8
0
 10
-1.14413
 20
424.803
 11
-0.909149
 21
424.932
  0
LINE
  8
0
 10
-0.909149
 20
424.932
 11
-0.659836
 21
425.031
  0
LINE
  8
0
 10
-0.659836
 20
425.031
 11
-0.400101
 21
425.097
  0
LINE
  8
0
 10
-0.400101
 20
425.097
 11
-0.134064
 21
425.131
  0
LINE
  8
0
 10
-0.134064
 20
425.131
 11
0.134064
 21
425.131
  0
LINE
  8
0
 10
0.134064
 20
425.131
 11
0.400101
 21
425.097
  0
LINE
  8
0
 10
0.400101
 20
425.097
 11
0.659836
 21
425.031
  0
LINE
  8
0
 10
0.659836
 20
425.031
 11
0.909149
 21
424.932
  0
LINE
  8
0
 10
0.909149
 20
424.932
 11
1.14413
 21
424.803
  0
LINE
  8
0
 10
1.14413
 20
424.803
 11
1.36108
 21
424.645
  0
LINE
  8
0
 10
1.36108
 20
424.645
 11
1.55655
 21
424.462
  0
LINE
  8
0
 10
1.55655
 20
424.462
 11
1.72748
 21
424.255
  0
LINE
  8
0
 10
1.72748
 20
424.255
 11
1.87117
 21
424.029
  0
LINE
  8
0
 10
1.87117
 20
424.029
 11
1.98534
 21
423.786
  0
LINE
  8
0
 10
1.98534
 20
423.786
 11
2.06821
 21
423.531
  0
LINE
  8
0
 10
2.06821
 20
423.531
 11
2.11845
 21
423.268
  0
LINE
  8
0
 10
2.11845
 20
423.268
 11
2.13528
 21
423
  0
LINE
  8
0
 10
2.13528
 20
423
 11
2.11845
 21
422.732
  0
LINE
  8
0
 10
2.11845
 20
422.732
 11
2.06821
 21
422.469
  0
LINE
  8
0
 10
2.06821
 20
422.469
 11
1.98534
 21
422.214
  0
LINE
  8
0
 10
1.98534
 20
422.214
 11
1.87117
 21
421.971
  0
LINE
  8
0
 10
1.87117
 20
421.971
 11
1.72748
 21
421.745
  0
LINE
  8
0
 10
1.72748
 20
421.745
 11
1.55655
 21
421.538
  0
LINE
  8
0
 10
1.55655
 20
421.538
 11
1.36108
 21
421.355
  0
LINE
  8
0
 10
1.36108
 20
421.355
 11
1.14413
 21
421.197
  0
LINE
  8
0
 10
1.14413
 20
421.197
 11
0.909149
 21
421.068
  0
LINE
  8
0
 10
0.909149
 20
421.068
 11
0.659836
 21
420.969
  0
LINE
  8
0
 10
0.659836
 20
420.969
 11
0.400101
 21
420.903
  0
LINE
  8
0
 10
0.400101
 20
420.903
 11
0.134064
 21
420.869
  0
LINE
  8
0
 10
0.134064
 20
420.869
 11
-0.134064
 21
420.869
  0
LINE
  8
0
 10
-0.134064
 20
270.869
 11
-0.400101
 21
270.903
  0
LINE
  8
0
 10
-0.400101
 20
270.903
 11
-0.659836
 21
270.969
  0
LINE
  8
0
 10
-0.659836
 20
270.969
 11
-0.909149
 21
271.068
  0
LINE
  8
0
 10
-0.909149
 20
271.068
 11
-1.14413
 21
271.197
  0
LINE
  8
0
 10
-1.14413
 20
271.197
 11
-1.36108
 21
271.355
  0
LINE
  8
0
 10
-1.36108
 20
271.355
 11
-1.55655
 21
271.538
  0
LINE
  8
0
 10
-1.55655
 20
271.538
 11
-1.72748
 21
271.745
  0
LINE
  8
0
 10
-1.72748
 20
271.745
 11
-1.87117
 21
271.971
  0
LINE
  8
0
 10
-1.87117
 20
271.971
 11
-1.98534
 21
272.214
  0
LINE
  8
0
 10
-1.98534
 20
272.214
 11
-2.06821
 21
272.469
  0
LINE
  8
0
 10
-2.06821
 20
272.469
 11
-2.11845
 21
272.732
  0
LINE
  8
0
 10
-2.11845
 20
272.732
 11
-2.13528
 21
273
  0
LINE
  8
0
 10
-2.13528
 20
273
 11
-2.11845
 21
273.268
  0
LINE
  8
0
 10
-2.11845
 20
273.268
 11
-2.06821
 21
273.531
  0
LINE
  8
0
 10
-2.06821
 20
273.531
 11
-1.98534
 21
273.786
  0
LINE
  8
0
 10
-1.98534
 20
273.786
 11
-1.87117
 21
274.029
  0
LINE
  8
0
 10
-1.87117
 20
274.029
 11
-1.72748
 21
274.255
  0
LINE
  8
0
 10
-1.72748
 20
274.255
 11
-1.55655
 21
274.462
  0
LINE
  8
0
 10
-1.55655
 20
274.462
 11
-1.36108
 21
274.645
  0
LINE
  8
0
 10
-1.36108
 20
274.645
 11
-1.14413
 21
274.803
  0
LINE
  8
0
 10
-1.14413
 20
274.803
 11
-0.909149
 21
274.932
  0
LINE
  8
0
 10
-0.909149
 20
274.932
 11
-0.659836
 21
275.031
  0
LINE
  8
0
 10
-0.659836
 20
275.031
 11
-0.400101
 21
275.097
  0
LINE
  8
0
 10
-0.400101
 20
275.097
 11
-0.134064
 21
275.131
  0
LINE
  8
0
 10
-0.134064
 20
275.131
 11
0.134064
 21
275.131
  0
LINE
  8
0
 10
0.134064
 20
275.131
 11
0.400101
 21
275.097
  0
LINE
  8
0
 10
0.400101
 20
275.097
 11
0.659836
 21
275.031
  0
LINE
  8
0
 10
0.659836
 20
275.031
 11
0.909149
 21
274.932
  0
LINE
  8
0
 10
0.909149
 20
274.932
 11
1.14413
 21
274.803
  0
LINE
  8
0
 10
1.14413
 20
274.803
 11
1.36108
 21
274.645
  0
LINE
  8
0
 10
1.36108
 20
274.645
 11
1.55655
 21
274.462
  0
LINE
  8
0
 10
1.55655
 20
274.462
 11
1.72748
 21
274.255
  0
LINE
  8
0
 10
1.72748
 20
274.255
 11
1.87117
 21
274.029
  0
LINE
  8
0
 10
1.87117
 20
274.029
 11
1.98534
 21
273.786
  0
LINE
  8
0
 10
1.98534
 20
273.786
 11
2.06821
 21
273.531
  0
LINE
  8
0
 10
2.06821
 20
273.531
 11
2.11845
 21
273.268
  0
LINE
  8
0
 10
2.11845
 20
273.268
 11
2.13528
 21
273
  0
LINE
  8
0
 10
2.13528
 20
273
 11
2.11845
 21
272.732
  0
LINE
  8
0
 10
2.11845
 20
272.732
 11
2.06821
 21
272.469
  0
LINE
  8
0
 10
2.06821
 20
272.469
 11
1.98534
 21
272.214
  0
LINE
  8
0
 10
1.98534
 20
272.214
 11
1.87117
 21
271.971
  0
LINE
  8
0
 10
1.87117
 20
271.971
 11
1.72748
 21
271.745
  0
LINE
  8
0
 10
1.72748
 20
271.745
 11
1.55655
 21
271.538
  0
LINE
  8
0
 10
1.55655
 20
271.538
 11
1.36108
 21
271.355
  0
LINE
  8
0
 10
1.36108
 20
271.355
 11
1.14413
 21
271.197
  0
LINE
  8
0
 10
1.14413
 20
271.197
 11
0.909149
 21
271.068
  0
LINE
  8
0
 10
0.909149
 20
271.068
 11
0.659836
 21
270.969
  0
LINE
  8
0
 10
0.659836
 20
270.969
 11
0.400101
 21
270.903
  0
LINE
  8
0
 10
0.400101
 20
270.903
 11
0.134064
 21
270.869
  0
LINE
  8
0
 10
0.134064
 20
270.869
 11
-0.134064
 21
270.869
  0
ENDSEC
  0
SECTION
  2
OBJECTS
  0
DICTIONARY
  0
ENDSEC
  0
EOF
