<?xml version="1.0" standalone="no"?>
<!DOCTYPE svg PUBLIC "-//W3C//DTD SVG 1.1//EN" "http://www.w3.org/Graphics/SVG/1.1/DTD/svg11.dtd">
<svg width="166mm" height="64mm" viewBox="-83 -128 166 64" xmlns="http://www.w3.org/2000/svg" version="1.1">
<title>OpenSCAD Model</title>
<path d="
M 78.4369,-112.589 L 79.0451,-112.745 L 79.6289,-112.976 L 80.1791,-113.278 L 80.6871,-113.647 L 81.1448,-114.077
 L 81.5451,-114.561 L 81.8815,-115.091 L 82.1489,-115.659 L 82.3429,-116.257 L 82.4606,-116.873 L 82.5,-117.5
 L 82.5,-122.5 L 82.4606,-123.127 L 82.3429,-123.743 L 82.1489,-124.341 L 81.8815,-124.909 L 81.5451,-125.439
 L 81.1448,-125.923 L 80.6871,-126.353 L 80.1791,-126.722 L 79.6289,-127.024 L 79.0451,-127.255 L 78.4369,-127.411
 L 77.8139,-127.49 L -77.8139,-127.49 L -78.4369,-127.411 L -79.0451,-127.255 L -79.6289,-127.024 L -80.1791,-126.722
 L -80.6871,-126.353 L -81.1448,-125.923 L -81.5451,-125.439 L -81.8815,-124.909 L -82.1489,-124.341 L -82.3429,-123.743
 L -82.4606,-123.127 L -82.5,-122.5 L -82.5,-117.5 L -82.4606,-116.873 L -82.3429,-116.257 L -82.1489,-115.659
 L -81.8815,-115.091 L -81.5451,-114.561 L -81.1448,-114.077 L -80.6871,-113.647 L -80.1791,-113.278 L -79.6289,-112.976
 L -79.0451,-112.745 L -78.4369,-112.589 L -77.8139,-112.51 L 77.8139,-112.51 z
M -77.5482,-113.009 L -78.1401,-113.084 L -78.7178,-113.232 L -79.2724,-113.452 L -79.7952,-113.739 L -80.2778,-114.09
 L -80.7126,-114.498 L -81.0928,-114.958 L -81.4125,-115.462 L -81.6664,-116.001 L -81.8508,-116.569 L -81.9625,-117.155
 L -82,-117.75 L -82,-122.25 L -81.9625,-122.845 L -81.8508,-123.431 L -81.6664,-123.999 L -81.4125,-124.538
 L -81.0928,-125.042 L -80.7126,-125.502 L -80.2778,-125.91 L -79.7952,-126.261 L -79.2724,-126.548 L -78.7178,-126.768
 L -78.1401,-126.916 L -77.5482,-126.991 L 77.5482,-126.991 L 78.1401,-126.916 L 78.7178,-126.768 L 79.2724,-126.548
 L 79.7952,-126.261 L 80.2778,-125.91 L 80.7126,-125.502 L 81.0928,-125.042 L 81.4125,-124.538 L 81.6664,-123.999
 L 81.8508,-123.431 L 81.9625,-122.845 L 82,-122.25 L 82,-117.75 L 81.9625,-117.155 L 81.8508,-116.569
 L 81.6664,-116.001 L 81.4125,-115.462 L 81.0928,-114.958 L 80.7126,-114.498 L 80.2778,-114.09 L 79.7952,-113.739
 L 79.2724,-113.452 L 78.7178,-113.232 L 78.1401,-113.084 L 77.5482,-113.009 z
M 78.4369,-88.5886 L 79.0451,-88.7447 L 79.6289,-88.9759 L 80.1791,-89.2784 L 80.6871,-89.6474 L 81.1448,-90.0773
 L 81.5451,-90.5611 L 81.8815,-91.0912 L 82.1489,-91.6594 L 82.3429,-92.2566 L 82.4606,-92.8733 L 82.5,-93.5
 L 82.5,-98.5 L 82.4606,-99.1267 L 82.3429,-99.7434 L 82.1489,-100.341 L 81.8815,-100.909 L 81.5451,-101.439
 L 81.1448,-101.923 L 80.6871,-102.353 L 80.1791,-102.722 L 79.6289,-103.024 L 79.0451,-103.255 L 78.4369,-103.411
 L 77.8139,-103.49 L -77.8139,-103.49 L -78.4369,-103.411 L -79.0451,-103.255 L -79.6289,-103.024 L -80.1791,-102.722
 L -80.6871,-102.353 L -81.1448,-101.923 L -81.5451,-101.439 L -81.8815,-100.909 L -82.1489,-100.341 L -82.3429,-99.7434
 L -82.4606,-99.1267 L -82.5,-98.5 L -82.5,-93.5 L -82.4606,-92.8733 L -82.3429,-92.2566 L -82.1489,-91.6594
 L -81.8815,-91.0912 L -81.5451,-90.5611 L -81.1448,-90.0773 L -80.6871,-89.6474 L -80.1791,-89.2784 L -79.6289,-88.9759
 L -79.0451,-88.7447 L -78.4369,-88.5886 L -77.8139,-88.5099 L 77.8139,-88.5099 z
M -77.5375,-89.1806 L -78.1079,-89.2527 L -78.6648,-89.3956 L -79.1994,-89.6073 L -79.7032,-89.8843 L -80.1684,-90.2223
 L -80.5875,-90.6158 L -80.954,-91.0589 L -81.2621,-91.5443 L -81.5069,-92.0646 L -81.6846,-92.6114 L -81.7923,-93.1762
 L -81.8284,-93.75 L -81.8284,-98.25 L -81.7923,-98.8238 L -81.6846,-99.3886 L -81.5069,-99.9354 L -81.2621,-100.456
 L -80.954,-100.941 L -80.5875,-101.384 L -80.1684,-101.778 L -79.7032,-102.116 L -79.1994,-102.393 L -78.6648,-102.604
 L -78.1079,-102.747 L -77.5375,-102.819 L 77.5375,-102.819 L 78.1079,-102.747 L 78.6648,-102.604 L 79.1994,-102.393
 L 79.7032,-102.116 L 80.1684,-101.778 L 80.5875,-101.384 L 80.954,-100.941 L 81.2621,-100.456 L 81.5069,-99.9354
 L 81.6846,-99.3886 L 81.7923,-98.8238 L 81.8284,-98.25 L 81.8284,-93.75 L 81.7923,-93.1762 L 81.6846,-92.6114
 L 81.5069,-92.0646 L 81.2621,-91.5443 L 80.954,-91.0589 L 80.5875,-90.6158 L 80.1684,-90.2223 L 79.7032,-89.8843
 L 79.1994,-89.6073 L 78.6648,-89.3956 L 78.1079,-89.2527 L 77.5375,-89.1806 z
M 78.4369,-64.5886 L 79.0451,-64.7447 L 79.6289,-64.9759 L 80.1791,-65.2784 L 80.6871,-65.6474 L 81.1448,-66.0773
 L 81.5451,-66.5611 L 81.8815,-67.0912 L 82.1489,-67.6594 L 82.3429,-68.2566 L 82.4606,-68.8733 L 82.5,-69.5
 L 82.5,-74.5 L 82.4606,-75.1267 L 82.3429,-75.7434 L 82.1489,-76.3406 L 81.8815,-76.9088 L 81.5451,-77.4389
 L 81.1448,-77.9227 L 80.6871,-78.3526 L 80.1791,-78.7216 L 79.6289,-79.0241 L 79.0451,-79.2553 L 78.4369,-79.4114
 L 77.8139,-79.4901 L -77.8139,-79.4901 L -78.4369,-79.4114 L -79.0451,-79.2553 L -79.6289,-79.0241 L -80.1791,-78.7216
 L -80.6871,-78.3526 L -81.1448,-77.9227 L -81.5451,-77.4389 L -81.8815,-76.9088 L -82.1489,-76.3406 L -82.3429,-75.7434
 L -82.4606,-75.1267 L -82.5,-74.5 L -82.5,-69.5 L -82.4606,-68.8733 L -82.3429,-68.2566 L -82.1489,-67.6594
 L -81.8815,-67.0912 L -81.5451,-66.5611 L -81.1448,-66.0773 L -80.6871,-65.6474 L -80.1791,-65.2784 L -79.6289,-64.9759
 L -79.0451,-64.7447 L -78.4369,-64.5886 L -77.8139,-64.5099 L 77.8139,-64.5099 z
M -77.3825,-67.6445 L -77.6453,-67.6777 L -77.9019,-67.7436 L -78.1482,-67.8412 L -78.3804,-67.9688 L -78.5947,-68.1245
 L -78.7879,-68.3059 L -78.9567,-68.51 L -79.0987,-68.7337 L -79.2115,-68.9734 L -79.2934,-69.2254 L -79.343,-69.4856
 L -79.3596,-69.75 L -79.3596,-74.25 L -79.343,-74.5144 L -79.2934,-74.7746 L -79.2115,-75.0266 L -79.0987,-75.2663
 L -78.9567,-75.49 L -78.7879,-75.6941 L -78.5947,-75.8755 L -78.3804,-76.0312 L -78.1482,-76.1588 L -77.9019,-76.2564
 L -77.6453,-76.3223 L -77.3825,-76.3555 L 77.3825,-76.3555 L 77.6453,-76.3223 L 77.9019,-76.2564 L 78.1482,-76.1588
 L 78.3804,-76.0312 L 78.5947,-75.8755 L 78.7879,-75.6941 L 78.9567,-75.49 L 79.0987,-75.2663 L 79.2115,-75.0266
 L 79.2934,-74.7746 L 79.343,-74.5144 L 79.3596,-74.25 L 79.3596,-69.75 L 79.343,-69.4856 L 79.2934,-69.2254
 L 79.2115,-68.9734 L 79.0987,-68.7337 L 78.9567,-68.51 L 78.7879,-68.3059 L 78.5947,-68.1245 L 78.3804,-67.9688
 L 78.1482,-67.8412 L 77.9019,-67.7436 L 77.6453,-67.6777 L 77.3825,-67.6445 z
" stroke="black" fill="lightgray" stroke-width="0.5"/>
</svg>
