<?xml version="1.0" standalone="no"?>
<!DOCTYPE svg PUBLIC "-//W3C//DTD SVG 1.1//EN" "http://www.w3.org/Graphics/SVG/1.1/DTD/svg11.dtd">
<svg width="30mm" height="220mm" viewBox="-15 -395 30 220" xmlns="http://www.w3.org/2000/svg" version="1.1">
<title>OpenSCAD Model</title>
<path d="
M 10.9369,-289.589 L 11.5451,-289.745 L 12.1289,-289.976 L 12.6791,-290.278 L 13.1871,-290.647 L 13.6448,-291.077
 L 14.0451,-291.561 L 14.3815,-292.091 L 14.6489,-292.659 L 14.8429,-293.257 L 14.9606,-293.873 L 15,-294.5
 L 15,-389.5 L 14.9606,-390.127 L 14.8429,-390.743 L 14.6489,-391.341 L 14.3815,-391.909 L 14.0451,-392.439
 L 13.6448,-392.923 L 13.1871,-393.353 L 12.6791,-393.722 L 12.1289,-394.024 L 11.5451,-394.255 L 10.9369,-394.411
 L 10.3139,-394.49 L -10.3139,-394.49 L -10.9369,-394.411 L -11.5451,-394.255 L -12.1289,-394.024 L -12.6791,-393.722
 L -13.1871,-393.353 L -13.6448,-392.923 L -14.0451,-392.439 L -14.3815,-391.909 L -14.6489,-391.341 L -14.8429,-390.743
 L -14.9606,-390.127 L -15,-389.5 L -15,-294.5 L -14.9606,-293.873 L -14.8429,-293.257 L -14.6489,-292.659
 L -14.3815,-292.091 L -14.0451,-291.561 L -13.6448,-291.077 L -13.1871,-290.647 L -12.6791,-290.278 L -12.1289,-289.976
 L -11.5451,-289.745 L -10.9369,-289.589 L -10.3139,-289.51 L 10.3139,-289.51 z
M -9.69545,-291.893 L -10.0833,-291.942 L -10.4619,-292.039 L -10.8254,-292.183 L -11.168,-292.372 L -11.4842,-292.601
 L -11.7692,-292.869 L -12.0184,-293.17 L -12.2279,-293.5 L -12.3943,-293.854 L -12.5151,-294.226 L -12.5884,-294.61
 L -12.6129,-295 L -12.6129,-389 L -12.5884,-389.39 L -12.5151,-389.774 L -12.3943,-390.146 L -12.2279,-390.5
 L -12.0184,-390.83 L -11.7692,-391.131 L -11.4842,-391.399 L -11.168,-391.628 L -10.8254,-391.817 L -10.4619,-391.961
 L -10.0833,-392.058 L -9.69545,-392.107 L 9.69545,-392.107 L 10.0833,-392.058 L 10.4619,-391.961 L 10.8254,-391.817
 L 11.168,-391.628 L 11.4842,-391.399 L 11.7692,-391.131 L 12.0184,-390.83 L 12.2279,-390.5 L 12.3943,-390.146
 L 12.5151,-389.774 L 12.5884,-389.39 L 12.6129,-389 L 12.6129,-295 L 12.5884,-294.61 L 12.5151,-294.226
 L 12.3943,-293.854 L 12.2279,-293.5 L 12.0184,-293.17 L 11.7692,-292.869 L 11.4842,-292.601 L 11.168,-292.372
 L 10.8254,-292.183 L 10.4619,-292.039 L 10.0833,-291.942 L 9.69545,-291.893 z
M 10.9369,-175.589 L 11.5451,-175.745 L 12.1289,-175.976 L 12.6791,-176.278 L 13.1871,-176.647 L 13.6448,-177.077
 L 14.0451,-177.561 L 14.3815,-178.091 L 14.6489,-178.659 L 14.8429,-179.257 L 14.9606,-179.873 L 15,-180.5
 L 15,-275.5 L 14.9606,-276.127 L 14.8429,-276.743 L 14.6489,-277.341 L 14.3815,-277.909 L 14.0451,-278.439
 L 13.6448,-278.923 L 13.1871,-279.353 L 12.6791,-279.722 L 12.1289,-280.024 L 11.5451,-280.255 L 10.9369,-280.411
 L 10.3139,-280.49 L -10.3139,-280.49 L -10.9369,-280.411 L -11.5451,-280.255 L -12.1289,-280.024 L -12.6791,-279.722
 L -13.1871,-279.353 L -13.6448,-278.923 L -14.0451,-278.439 L -14.3815,-277.909 L -14.6489,-277.341 L -14.8429,-276.743
 L -14.9606,-276.127 L -15,-275.5 L -15,-180.5 L -14.9606,-179.873 L -14.8429,-179.257 L -14.6489,-178.659
 L -14.3815,-178.091 L -14.0451,-177.561 L -13.6448,-177.077 L -13.1871,-176.647 L -12.6791,-176.278 L -12.1289,-175.976
 L -11.5451,-175.745 L -10.9369,-175.589 L -10.3139,-175.51 L 10.3139,-175.51 z
M 7.36592,-270.869 L 7.09988,-270.903 L 6.84015,-270.969 L 6.59084,-271.068 L 6.35585,-271.197 L 6.1389,-271.355
 L 5.94344,-271.538 L 5.77251,-271.745 L 5.62881,-271.971 L 5.51465,-272.214 L 5.43178,-272.469 L 5.38153,-272.732
 L 5.3647,-273 L 5.38153,-273.268 L 5.43178,-273.531 L 5.51465,-273.786 L 5.62881,-274.029 L 5.77251,-274.255
 L 5.94344,-274.462 L 6.1389,-274.645 L 6.35585,-274.803 L 6.59084,-274.932 L 6.84015,-275.031 L 7.09988,-275.097
 L 7.36592,-275.131 L 7.63406,-275.131 L 7.9001,-275.097 L 8.15984,-275.031 L 8.40915,-274.932 L 8.64413,-274.803
 L 8.86108,-274.645 L 9.05655,-274.462 L 9.22748,-274.255 L 9.37117,-274.029 L 9.48534,-273.786 L 9.56821,-273.531
 L 9.61845,-273.268 L 9.63528,-273 L 9.61845,-272.732 L 9.56821,-272.469 L 9.48534,-272.214 L 9.37117,-271.971
 L 9.22748,-271.745 L 9.05655,-271.538 L 8.86108,-271.355 L 8.64413,-271.197 L 8.40915,-271.068 L 8.15984,-270.969
 L 7.9001,-270.903 L 7.63406,-270.869 z
M -7.63406,-270.869 L -7.9001,-270.903 L -8.15984,-270.969 L -8.40915,-271.068 L -8.64413,-271.197 L -8.86108,-271.355
 L -9.05655,-271.538 L -9.22748,-271.745 L -9.37117,-271.971 L -9.48534,-272.214 L -9.56821,-272.469 L -9.61845,-272.732
 L -9.63528,-273 L -9.61845,-273.268 L -9.56821,-273.531 L -9.48534,-273.786 L -9.37117,-274.029 L -9.22748,-274.255
 L -9.05655,-274.462 L -8.86108,-274.645 L -8.64413,-274.803 L -8.40915,-274.932 L -8.15984,-275.031 L -7.9001,-275.097
 L -7.63406,-275.131 L -7.36592,-275.131 L -7.09988,-275.097 L -6.84015,-275.031 L -6.59084,-274.932 L -6.35585,-274.803
 L -6.1389,-274.645 L -5.94344,-274.462 L -5.77251,-274.255 L -5.62881,-274.029 L -5.51465,-273.786 L -5.43178,-273.531
 L -5.38153,-273.268 L -5.3647,-273 L -5.38153,-272.732 L -5.43178,-272.469 L -5.51465,-272.214 L -5.62881,-271.971
 L -5.77251,-271.745 L -5.94344,-271.538 L -6.1389,-271.355 L -6.35585,-271.197 L -6.59084,-271.068 L -6.84015,-270.969
 L -7.09988,-270.903 L -7.36592,-270.869 z
M 7.36592,-180.869 L 7.09988,-180.903 L 6.84015,-180.969 L 6.59084,-181.068 L 6.35585,-181.197 L 6.1389,-181.355
 L 5.94344,-181.538 L 5.77251,-181.745 L 5.62881,-181.971 L 5.51465,-182.214 L 5.43178,-182.469 L 5.38153,-182.732
 L 5.3647,-183 L 5.38153,-183.268 L 5.43178,-183.531 L 5.51465,-183.786 L 5.62881,-184.029 L 5.77251,-184.255
 L 5.94344,-184.462 L 6.1389,-184.645 L 6.35585,-184.803 L 6.59084,-184.932 L 6.84015,-185.031 L 7.09988,-185.097
 L 7.36592,-185.131 L 7.63406,-185.131 L 7.9001,-185.097 L 8.15984,-185.031 L 8.40915,-184.932 L 8.64413,-184.803
 L 8.86108,-184.645 L 9.05655,-184.462 L 9.22748,-184.255 L 9.37117,-184.029 L 9.48534,-183.786 L 9.56821,-183.531
 L 9.61845,-183.268 L 9.63528,-183 L 9.61845,-182.732 L 9.56821,-182.469 L 9.48534,-182.214 L 9.37117,-181.971
 L 9.22748,-181.745 L 9.05655,-181.538 L 8.86108,-181.355 L 8.64413,-181.197 L 8.40915,-181.068 L 8.15984,-180.969
 L 7.9001,-180.903 L 7.63406,-180.869 z
M -7.63406,-180.869 L -7.9001,-180.903 L -8.15984,-180.969 L -8.40915,-181.068 L -8.64413,-181.197 L -8.86108,-181.355
 L -9.05655,-181.538 L -9.22748,-181.745 L -9.37117,-181.971 L -9.48534,-182.214 L -9.56821,-182.469 L -9.61845,-182.732
 L -9.63528,-183 L -9.61845,-183.268 L -9.56821,-183.531 L -9.48534,-183.786 L -9.37117,-184.029 L -9.22748,-184.255
 L -9.05655,-184.462 L -8.86108,-184.645 L -8.64413,-184.803 L -8.40915,-184.932 L -8.15984,-185.031 L -7.9001,-185.097
 L -7.63406,-185.131 L -7.36592,-185.131 L -7.09988,-185.097 L -6.84015,-185.031 L -6.59084,-184.932 L -6.35585,-184.803
 L -6.1389,-184.645 L -5.94344,-184.462 L -5.77251,-184.255 L -5.62881,-184.029 L -5.51465,-183.786 L -5.43178,-183.531
 L -5.38153,-183.268 L -5.3647,-183 L -5.38153,-182.732 L -5.43178,-182.469 L -5.51465,-182.214 L -5.62881,-181.971
 L -5.77251,-181.745 L -5.94344,-181.538 L -6.1389,-181.355 L -6.35585,-181.197 L -6.59084,-181.068 L -6.84015,-180.969
 L -7.09988,-180.903 L -7.36592,-180.869 z
" stroke="black" fill="lightgray" stroke-width="0.5"/>
</svg>
