<?xml version="1.0" standalone="no"?>
<!DOCTYPE svg PUBLIC "-//W3C//DTD SVG 1.1//EN" "http://www.w3.org/Graphics/SVG/1.1/DTD/svg11.dtd">
<svg width="150mm" height="108mm" viewBox="-75 -171 150 108" xmlns="http://www.w3.org/2000/svg" version="1.1">
<title>OpenSCAD Model</title>
<path d="
M 70.9369,-141.089 L 71.5451,-141.245 L 72.1289,-141.476 L 72.6791,-141.778 L 73.1871,-142.147 L 73.6448,-142.577
 L 74.0451,-143.061 L 74.3815,-143.591 L 74.6489,-144.159 L 74.8429,-144.757 L 74.9606,-145.373 L 75,-146
 L 75,-166 L 74.9606,-166.627 L 74.8429,-167.243 L 74.6489,-167.841 L 74.3815,-168.409 L 74.0451,-168.939
 L 73.6448,-169.423 L 73.1871,-169.853 L 72.6791,-170.222 L 72.1289,-170.524 L 71.5451,-170.755 L 70.9369,-170.911
 L 70.3139,-170.99 L -70.3139,-170.99 L -70.9369,-170.911 L -71.5451,-170.755 L -72.1289,-170.524 L -72.6791,-170.222
 L -73.1871,-169.853 L -73.6448,-169.423 L -74.0451,-168.939 L -74.3815,-168.409 L -74.6489,-167.841 L -74.8429,-167.243
 L -74.9606,-166.627 L -75,-166 L -75,-146 L -74.9606,-145.373 L -74.8429,-144.757 L -74.6489,-144.159
 L -74.3815,-143.591 L -74.0451,-143.061 L -73.6448,-142.577 L -73.1871,-142.147 L -72.6791,-141.778 L -72.1289,-141.476
 L -71.5451,-141.245 L -70.9369,-141.089 L -70.3139,-141.01 L 70.3139,-141.01 z
M -70.0482,-141.509 L -70.6401,-141.584 L -71.2178,-141.732 L -71.7724,-141.952 L -72.2952,-142.239 L -72.7778,-142.59
 L -73.2126,-142.998 L -73.5928,-143.458 L -73.9125,-143.962 L -74.1664,-144.501 L -74.3508,-145.069 L -74.4625,-145.655
 L -74.5,-146.25 L -74.5,-165.75 L -74.4625,-166.345 L -74.3508,-166.931 L -74.1664,-167.499 L -73.9125,-168.038
 L -73.5928,-168.542 L -73.2126,-169.002 L -72.7778,-169.41 L -72.2952,-169.761 L -71.7724,-170.048 L -71.2178,-170.268
 L -70.6401,-170.416 L -70.0482,-170.491 L 70.0482,-170.491 L 70.6401,-170.416 L 71.2178,-170.268 L 71.7724,-170.048
 L 72.2952,-169.761 L 72.7778,-169.41 L 73.2126,-169.002 L 73.5928,-168.542 L 73.9125,-168.038 L 74.1664,-167.499
 L 74.3508,-166.931 L 74.4625,-166.345 L 74.5,-165.75 L 74.5,-146.25 L 74.4625,-145.655 L 74.3508,-145.069
 L 74.1664,-144.501 L 73.9125,-143.962 L 73.5928,-143.458 L 73.2126,-142.998 L 72.7778,-142.59 L 72.2952,-142.239
 L 71.7724,-141.952 L 71.2178,-141.732 L 70.6401,-141.584 L 70.0482,-141.509 z
M 70.9369,-102.089 L 71.5451,-102.245 L 72.1289,-102.476 L 72.6791,-102.778 L 73.1871,-103.147 L 73.6448,-103.577
 L 74.0451,-104.061 L 74.3815,-104.591 L 74.6489,-105.159 L 74.8429,-105.757 L 74.9606,-106.373 L 75,-107
 L 75,-127 L 74.9606,-127.627 L 74.8429,-128.243 L 74.6489,-128.841 L 74.3815,-129.409 L 74.0451,-129.939
 L 73.6448,-130.423 L 73.1871,-130.853 L 72.6791,-131.222 L 72.1289,-131.524 L 71.5451,-131.755 L 70.9369,-131.911
 L 70.3139,-131.99 L -70.3139,-131.99 L -70.9369,-131.911 L -71.5451,-131.755 L -72.1289,-131.524 L -72.6791,-131.222
 L -73.1871,-130.853 L -73.6448,-130.423 L -74.0451,-129.939 L -74.3815,-129.409 L -74.6489,-128.841 L -74.8429,-128.243
 L -74.9606,-127.627 L -75,-127 L -75,-107 L -74.9606,-106.373 L -74.8429,-105.757 L -74.6489,-105.159
 L -74.3815,-104.591 L -74.0451,-104.061 L -73.6448,-103.577 L -73.1871,-103.147 L -72.6791,-102.778 L -72.1289,-102.476
 L -71.5451,-102.245 L -70.9369,-102.089 L -70.3139,-102.01 L 70.3139,-102.01 z
M -69.993,-103.388 L -70.4751,-103.449 L -70.9457,-103.57 L -71.3975,-103.749 L -71.8234,-103.983 L -72.2165,-104.269
 L -72.5707,-104.601 L -72.8805,-104.976 L -73.1408,-105.386 L -73.3477,-105.826 L -73.4979,-106.288 L -73.589,-106.765
 L -73.6195,-107.25 L -73.6195,-126.75 L -73.589,-127.235 L -73.4979,-127.712 L -73.3477,-128.174 L -73.1408,-128.614
 L -72.8805,-129.024 L -72.5707,-129.399 L -72.2165,-129.731 L -71.8234,-130.017 L -71.3975,-130.251 L -70.9457,-130.43
 L -70.4751,-130.551 L -69.993,-130.612 L 69.993,-130.612 L 70.4751,-130.551 L 70.9457,-130.43 L 71.3975,-130.251
 L 71.8234,-130.017 L 72.2165,-129.731 L 72.5707,-129.399 L 72.8805,-129.024 L 73.1408,-128.614 L 73.3477,-128.174
 L 73.4979,-127.712 L 73.589,-127.235 L 73.6195,-126.75 L 73.6195,-107.25 L 73.589,-106.765 L 73.4979,-106.288
 L 73.3477,-105.826 L 73.1408,-105.386 L 72.8805,-104.976 L 72.5707,-104.601 L 72.2165,-104.269 L 71.8234,-103.983
 L 71.3975,-103.749 L 70.9457,-103.57 L 70.4751,-103.449 L 69.993,-103.388 z
M 70.9369,-63.0886 L 71.5451,-63.2447 L 72.1289,-63.4759 L 72.6791,-63.7784 L 73.1871,-64.1474 L 73.6448,-64.5773
 L 74.0451,-65.0611 L 74.3815,-65.5912 L 74.6489,-66.1594 L 74.8429,-66.7566 L 74.9606,-67.3733 L 75,-68
 L 75,-88 L 74.9606,-88.6267 L 74.8429,-89.2434 L 74.6489,-89.8406 L 74.3815,-90.4088 L 74.0451,-90.9389
 L 73.6448,-91.4227 L 73.1871,-91.8526 L 72.6791,-92.2216 L 72.1289,-92.5241 L 71.5451,-92.7553 L 70.9369,-92.9114
 L 70.3139,-92.9901 L -70.3139,-92.9901 L -70.9369,-92.9114 L -71.5451,-92.7553 L -72.1289,-92.5241 L -72.6791,-92.2216
 L -73.1871,-91.8526 L -73.6448,-91.4227 L -74.0451,-90.9389 L -74.3815,-90.4088 L -74.6489,-89.8406 L -74.8429,-89.2434
 L -74.9606,-88.6267 L -75,-88 L -75,-68 L -74.9606,-67.3733 L -74.8429,-66.7566 L -74.6489,-66.1594
 L -74.3815,-65.5912 L -74.0451,-65.0611 L -73.6448,-64.5773 L -73.1871,-64.1474 L -72.6791,-63.7784 L -72.1289,-63.4759
 L -71.5451,-63.2447 L -70.9369,-63.0886 L -70.3139,-63.0099 L 70.3139,-63.0099 z
M 67.387,-83.7036 L 67.1627,-83.7319 L 66.9438,-83.7881 L 66.7336,-83.8713 L 66.5355,-83.9802 L 66.3526,-84.1131
 L 66.1879,-84.2678 L 66.0438,-84.442 L 65.9226,-84.6328 L 65.8264,-84.8374 L 65.7565,-85.0524 L 65.7142,-85.2744
 L 65.7,-85.5 L 65.7142,-85.7256 L 65.7565,-85.9476 L 65.8264,-86.1626 L 65.9226,-86.3671 L 66.0438,-86.558
 L 66.1879,-86.7322 L 66.3526,-86.8869 L 66.5355,-87.0198 L 66.7336,-87.1287 L 66.9438,-87.2119 L 67.1627,-87.2681
 L 67.387,-87.2964 L 67.613,-87.2964 L 67.8373,-87.2681 L 68.0562,-87.2119 L 68.2664,-87.1287 L 68.4645,-87.0198
 L 68.6474,-86.8869 L 68.8121,-86.7322 L 68.9562,-86.558 L 69.0773,-86.3671 L 69.1736,-86.1626 L 69.2434,-85.9476
 L 69.2858,-85.7256 L 69.3,-85.5 L 69.2858,-85.2744 L 69.2434,-85.0524 L 69.1736,-84.8374 L 69.0773,-84.6328
 L 68.9562,-84.442 L 68.8121,-84.2678 L 68.6474,-84.1131 L 68.4645,-83.9802 L 68.2664,-83.8713 L 68.0562,-83.7881
 L 67.8373,-83.7319 L 67.613,-83.7036 z
M -67.613,-83.7036 L -67.8373,-83.7319 L -68.0562,-83.7881 L -68.2664,-83.8713 L -68.4645,-83.9802 L -68.6474,-84.1131
 L -68.8121,-84.2678 L -68.9562,-84.442 L -69.0773,-84.6328 L -69.1736,-84.8374 L -69.2434,-85.0524 L -69.2858,-85.2744
 L -69.3,-85.5 L -69.2858,-85.7256 L -69.2434,-85.9476 L -69.1736,-86.1626 L -69.0773,-86.3671 L -68.9562,-86.558
 L -68.8121,-86.7322 L -68.6474,-86.8869 L -68.4645,-87.0198 L -68.2664,-87.1287 L -68.0562,-87.2119 L -67.8373,-87.2681
 L -67.613,-87.2964 L -67.387,-87.2964 L -67.1627,-87.2681 L -66.9438,-87.2119 L -66.7336,-87.1287 L -66.5355,-87.0198
 L -66.3526,-86.8869 L -66.1879,-86.7322 L -66.0438,-86.558 L -65.9226,-86.3671 L -65.8264,-86.1626 L -65.7565,-85.9476
 L -65.7142,-85.7256 L -65.7,-85.5 L -65.7142,-85.2744 L -65.7565,-85.0524 L -65.8264,-84.8374 L -65.9226,-84.6328
 L -66.0438,-84.442 L -66.1879,-84.2678 L -66.3526,-84.1131 L -66.5355,-83.9802 L -66.7336,-83.8713 L -66.9438,-83.7881
 L -67.1627,-83.7319 L -67.387,-83.7036 z
M 67.387,-68.7036 L 67.1627,-68.7319 L 66.9438,-68.7881 L 66.7336,-68.8713 L 66.5355,-68.9802 L 66.3526,-69.1131
 L 66.1879,-69.2678 L 66.0438,-69.442 L 65.9226,-69.6329 L 65.8264,-69.8374 L 65.7565,-70.0524 L 65.7142,-70.2744
 L 65.7,-70.5 L 65.7142,-70.7256 L 65.7565,-70.9476 L 65.8264,-71.1626 L 65.9226,-71.3672 L 66.0438,-71.558
 L 66.1879,-71.7322 L 66.3526,-71.8869 L 66.5355,-72.0198 L 66.7336,-72.1287 L 66.9438,-72.2119 L 67.1627,-72.2681
 L 67.387,-72.2964 L 67.613,-72.2964 L 67.8373,-72.2681 L 68.0562,-72.2119 L 68.2664,-72.1287 L 68.4645,-72.0198
 L 68.6474,-71.8869 L 68.8121,-71.7322 L 68.9562,-71.558 L 69.0773,-71.3672 L 69.1736,-71.1626 L 69.2434,-70.9476
 L 69.2858,-70.7256 L 69.3,-70.5 L 69.2858,-70.2744 L 69.2434,-70.0524 L 69.1736,-69.8374 L 69.0773,-69.6329
 L 68.9562,-69.442 L 68.8121,-69.2678 L 68.6474,-69.1131 L 68.4645,-68.9802 L 68.2664,-68.8713 L 68.0562,-68.7881
 L 67.8373,-68.7319 L 67.613,-68.7036 z
M -67.613,-68.7036 L -67.8373,-68.7319 L -68.0562,-68.7881 L -68.2664,-68.8713 L -68.4645,-68.9802 L -68.6474,-69.1131
 L -68.8121,-69.2678 L -68.9562,-69.442 L -69.0773,-69.6329 L -69.1736,-69.8374 L -69.2434,-70.0524 L -69.2858,-70.2744
 L -69.3,-70.5 L -69.2858,-70.7256 L -69.2434,-70.9476 L -69.1736,-71.1626 L -69.0773,-71.3672 L -68.9562,-71.558
 L -68.8121,-71.7322 L -68.6474,-71.8869 L -68.4645,-72.0198 L -68.2664,-72.1287 L -68.0562,-72.2119 L -67.8373,-72.2681
 L -67.613,-72.2964 L -67.387,-72.2964 L -67.1627,-72.2681 L -66.9438,-72.2119 L -66.7336,-72.1287 L -66.5355,-72.0198
 L -66.3526,-71.8869 L -66.1879,-71.7322 L -66.0438,-71.558 L -65.9226,-71.3672 L -65.8264,-71.1626 L -65.7565,-70.9476
 L -65.7142,-70.7256 L -65.7,-70.5 L -65.7142,-70.2744 L -65.7565,-70.0524 L -65.8264,-69.8374 L -65.9226,-69.6329
 L -66.0438,-69.442 L -66.1879,-69.2678 L -66.3526,-69.1131 L -66.5355,-68.9802 L -66.7336,-68.8713 L -66.9438,-68.7881
 L -67.1627,-68.7319 L -67.387,-68.7036 z
" stroke="black" fill="lightgray" stroke-width="0.5"/>
</svg>
