<?xml version="1.0" standalone="no"?>
<!DOCTYPE svg PUBLIC "-//W3C//DTD SVG 1.1//EN" "http://www.w3.org/Graphics/SVG/1.1/DTD/svg11.dtd">
<svg width="46mm" height="636mm" viewBox="-23 -1221 46 636" xmlns="http://www.w3.org/2000/svg" version="1.1">
<title>OpenSCAD Model</title>
<path d="
M 18.4369,-1101.09 L 19.0451,-1101.24 L 19.6289,-1101.48 L 20.1791,-1101.78 L 20.6871,-1102.15 L 21.1448,-1102.58
 L 21.5451,-1103.06 L 21.8815,-1103.59 L 22.1489,-1104.16 L 22.3429,-1104.76 L 22.4606,-1105.37 L 22.5,-1106
 L 22.5,-1216 L 22.4606,-1216.63 L 22.3429,-1217.24 L 22.1489,-1217.84 L 21.8815,-1218.41 L 21.5451,-1218.94
 L 21.1448,-1219.42 L 20.6871,-1219.85 L 20.1791,-1220.22 L 19.6289,-1220.52 L 19.0451,-1220.76 L 18.4369,-1220.91
 L 17.8139,-1220.99 L -17.8139,-1220.99 L -18.4369,-1220.91 L -19.0451,-1220.76 L -19.6289,-1220.52 L -20.1791,-1220.22
 L -20.6871,-1219.85 L -21.1448,-1219.42 L -21.5451,-1218.94 L -21.8815,-1218.41 L -22.1489,-1217.84 L -22.3429,-1217.24
 L -22.4606,-1216.63 L -22.5,-1216 L -22.5,-1106 L -22.4606,-1105.37 L -22.3429,-1104.76 L -22.1489,-1104.16
 L -21.8815,-1103.59 L -21.5451,-1103.06 L -21.1448,-1102.58 L -20.6871,-1102.15 L -20.1791,-1101.78 L -19.6289,-1101.48
 L -19.0451,-1101.24 L -18.4369,-1101.09 L -17.8139,-1101.01 L 17.8139,-1101.01 z
M -17.2512,-1102.51 L -17.7495,-1102.57 L -18.2361,-1102.7 L -18.7031,-1102.88 L -19.1433,-1103.12 L -19.5497,-1103.42
 L -19.9159,-1103.76 L -20.2361,-1104.15 L -20.5052,-1104.57 L -20.7191,-1105.03 L -20.8743,-1105.51 L -20.9684,-1106
 L -21,-1106.5 L -21,-1215.5 L -20.9684,-1216 L -20.8743,-1216.49 L -20.7191,-1216.97 L -20.5052,-1217.43
 L -20.2361,-1217.85 L -19.9159,-1218.24 L -19.5497,-1218.58 L -19.1433,-1218.88 L -18.7031,-1219.12 L -18.2361,-1219.3
 L -17.7495,-1219.43 L -17.2512,-1219.49 L 17.2512,-1219.49 L 17.7495,-1219.43 L 18.2361,-1219.3 L 18.7031,-1219.12
 L 19.1433,-1218.88 L 19.5497,-1218.58 L 19.9159,-1218.24 L 20.2361,-1217.85 L 20.5052,-1217.43 L 20.7191,-1216.97
 L 20.8743,-1216.49 L 20.9684,-1216 L 21,-1215.5 L 21,-1106.5 L 20.9684,-1106 L 20.8743,-1105.51
 L 20.7191,-1105.03 L 20.5052,-1104.57 L 20.2361,-1104.15 L 19.9159,-1103.76 L 19.5497,-1103.42 L 19.1433,-1103.12
 L 18.7031,-1102.88 L 18.2361,-1102.7 L 17.7495,-1102.57 L 17.2512,-1102.51 z
M 18.4369,-972.089 L 19.0451,-972.245 L 19.6289,-972.476 L 20.1791,-972.778 L 20.6871,-973.147 L 21.1448,-973.577
 L 21.5451,-974.061 L 21.8815,-974.591 L 22.1489,-975.159 L 22.3429,-975.757 L 22.4606,-976.373 L 22.5,-977
 L 22.5,-1087 L 22.4606,-1087.63 L 22.3429,-1088.24 L 22.1489,-1088.84 L 21.8815,-1089.41 L 21.5451,-1089.94
 L 21.1448,-1090.42 L 20.6871,-1090.85 L 20.1791,-1091.22 L 19.6289,-1091.52 L 19.0451,-1091.76 L 18.4369,-1091.91
 L 17.8139,-1091.99 L -17.8139,-1091.99 L -18.4369,-1091.91 L -19.0451,-1091.76 L -19.6289,-1091.52 L -20.1791,-1091.22
 L -20.6871,-1090.85 L -21.1448,-1090.42 L -21.5451,-1089.94 L -21.8815,-1089.41 L -22.1489,-1088.84 L -22.3429,-1088.24
 L -22.4606,-1087.63 L -22.5,-1087 L -22.5,-977 L -22.4606,-976.373 L -22.3429,-975.757 L -22.1489,-975.159
 L -21.8815,-974.591 L -21.5451,-974.061 L -21.1448,-973.577 L -20.6871,-973.147 L -20.1791,-972.778 L -19.6289,-972.476
 L -19.0451,-972.245 L -18.4369,-972.089 L -17.8139,-972.01 L 17.8139,-972.01 z
M -17.2512,-973.508 L -17.7495,-973.571 L -18.2361,-973.696 L -18.7031,-973.881 L -19.1433,-974.123 L -19.5497,-974.418
 L -19.9159,-974.762 L -20.2361,-975.149 L -20.5052,-975.573 L -20.7191,-976.028 L -20.8743,-976.505 L -20.9684,-976.999
 L -21,-977.5 L -21,-1086.5 L -20.9684,-1087 L -20.8743,-1087.49 L -20.7191,-1087.97 L -20.5052,-1088.43
 L -20.2361,-1088.85 L -19.9159,-1089.24 L -19.5497,-1089.58 L -19.1433,-1089.88 L -18.7031,-1090.12 L -18.2361,-1090.3
 L -17.7495,-1090.43 L -17.2512,-1090.49 L 17.2512,-1090.49 L 17.7495,-1090.43 L 18.2361,-1090.3 L 18.7031,-1090.12
 L 19.1433,-1089.88 L 19.5497,-1089.58 L 19.9159,-1089.24 L 20.2361,-1088.85 L 20.5052,-1088.43 L 20.7191,-1087.97
 L 20.8743,-1087.49 L 20.9684,-1087 L 21,-1086.5 L 21,-977.5 L 20.9684,-976.999 L 20.8743,-976.505
 L 20.7191,-976.028 L 20.5052,-975.573 L 20.2361,-975.149 L 19.9159,-974.762 L 19.5497,-974.418 L 19.1433,-974.123
 L 18.7031,-973.881 L 18.2361,-973.696 L 17.7495,-973.571 L 17.2512,-973.508 z
M 18.4369,-843.089 L 19.0451,-843.245 L 19.6289,-843.476 L 20.1791,-843.778 L 20.6871,-844.147 L 21.1448,-844.577
 L 21.5451,-845.061 L 21.8815,-845.591 L 22.1489,-846.159 L 22.3429,-846.757 L 22.4606,-847.373 L 22.5,-848
 L 22.5,-958 L 22.4606,-958.627 L 22.3429,-959.243 L 22.1489,-959.841 L 21.8815,-960.409 L 21.5451,-960.939
 L 21.1448,-961.423 L 20.6871,-961.853 L 20.1791,-962.222 L 19.6289,-962.524 L 19.0451,-962.755 L 18.4369,-962.911
 L 17.8139,-962.99 L -17.8139,-962.99 L -18.4369,-962.911 L -19.0451,-962.755 L -19.6289,-962.524 L -20.1791,-962.222
 L -20.6871,-961.853 L -21.1448,-961.423 L -21.5451,-960.939 L -21.8815,-960.409 L -22.1489,-959.841 L -22.3429,-959.243
 L -22.4606,-958.627 L -22.5,-958 L -22.5,-848 L -22.4606,-847.373 L -22.3429,-846.757 L -22.1489,-846.159
 L -21.8815,-845.591 L -21.5451,-845.061 L -21.1448,-844.577 L -20.6871,-844.147 L -20.1791,-843.778 L -19.6289,-843.476
 L -19.0451,-843.245 L -18.4369,-843.089 L -17.8139,-843.01 L 17.8139,-843.01 z
M -17.2512,-844.508 L -17.7495,-844.571 L -18.2361,-844.696 L -18.7031,-844.881 L -19.1433,-845.123 L -19.5497,-845.418
 L -19.9159,-845.762 L -20.2361,-846.149 L -20.5052,-846.573 L -20.7191,-847.028 L -20.8743,-847.505 L -20.9684,-847.999
 L -21,-848.5 L -21,-957.5 L -20.9684,-958.001 L -20.8743,-958.495 L -20.7191,-958.972 L -20.5052,-959.427
 L -20.2361,-959.851 L -19.9159,-960.238 L -19.5497,-960.582 L -19.1433,-960.877 L -18.7031,-961.119 L -18.2361,-961.304
 L -17.7495,-961.429 L -17.2512,-961.492 L 17.2512,-961.492 L 17.7495,-961.429 L 18.2361,-961.304 L 18.7031,-961.119
 L 19.1433,-960.877 L 19.5497,-960.582 L 19.9159,-960.238 L 20.2361,-959.851 L 20.5052,-959.427 L 20.7191,-958.972
 L 20.8743,-958.495 L 20.9684,-958.001 L 21,-957.5 L 21,-848.5 L 20.9684,-847.999 L 20.8743,-847.505
 L 20.7191,-847.028 L 20.5052,-846.573 L 20.2361,-846.149 L 19.9159,-845.762 L 19.5497,-845.418 L 19.1433,-845.123
 L 18.7031,-844.881 L 18.2361,-844.696 L 17.7495,-844.571 L 17.2512,-844.508 z
M 18.4369,-714.089 L 19.0451,-714.245 L 19.6289,-714.476 L 20.1791,-714.778 L 20.6871,-715.147 L 21.1448,-715.577
 L 21.5451,-716.061 L 21.8815,-716.591 L 22.1489,-717.159 L 22.3429,-717.757 L 22.4606,-718.373 L 22.5,-719
 L 22.5,-829 L 22.4606,-829.627 L 22.3429,-830.243 L 22.1489,-830.841 L 21.8815,-831.409 L 21.5451,-831.939
 L 21.1448,-832.423 L 20.6871,-832.853 L 20.1791,-833.222 L 19.6289,-833.524 L 19.0451,-833.755 L 18.4369,-833.911
 L 17.8139,-833.99 L -17.8139,-833.99 L -18.4369,-833.911 L -19.0451,-833.755 L -19.6289,-833.524 L -20.1791,-833.222
 L -20.6871,-832.853 L -21.1448,-832.423 L -21.5451,-831.939 L -21.8815,-831.409 L -22.1489,-830.841 L -22.3429,-830.243
 L -22.4606,-829.627 L -22.5,-829 L -22.5,-719 L -22.4606,-718.373 L -22.3429,-717.757 L -22.1489,-717.159
 L -21.8815,-716.591 L -21.5451,-716.061 L -21.1448,-715.577 L -20.6871,-715.147 L -20.1791,-714.778 L -19.6289,-714.476
 L -19.0451,-714.245 L -18.4369,-714.089 L -17.8139,-714.01 L 17.8139,-714.01 z
M -17.1954,-716.393 L -17.5833,-716.442 L -17.9619,-716.539 L -18.3254,-716.683 L -18.668,-716.872 L -18.9842,-717.101
 L -19.2692,-717.369 L -19.5184,-717.67 L -19.7279,-718 L -19.8943,-718.354 L -20.0151,-718.726 L -20.0884,-719.11
 L -20.1129,-719.5 L -20.1129,-828.5 L -20.0884,-828.89 L -20.0151,-829.274 L -19.8943,-829.646 L -19.7279,-830
 L -19.5184,-830.33 L -19.2692,-830.631 L -18.9842,-830.899 L -18.668,-831.128 L -18.3254,-831.317 L -17.9619,-831.461
 L -17.5833,-831.558 L -17.1954,-831.607 L 17.1954,-831.607 L 17.5833,-831.558 L 17.9619,-831.461 L 18.3254,-831.317
 L 18.668,-831.128 L 18.9842,-830.899 L 19.2692,-830.631 L 19.5184,-830.33 L 19.7279,-830 L 19.8943,-829.646
 L 20.0151,-829.274 L 20.0884,-828.89 L 20.1129,-828.5 L 20.1129,-719.5 L 20.0884,-719.11 L 20.0151,-718.726
 L 19.8943,-718.354 L 19.7279,-718 L 19.5184,-717.67 L 19.2692,-717.369 L 18.9842,-717.101 L 18.668,-716.872
 L 18.3254,-716.683 L 17.9619,-716.539 L 17.5833,-716.442 L 17.1954,-716.393 z
M 18.4369,-585.089 L 19.0451,-585.245 L 19.6289,-585.476 L 20.1791,-585.778 L 20.6871,-586.147 L 21.1448,-586.577
 L 21.5451,-587.061 L 21.8815,-587.591 L 22.1489,-588.159 L 22.3429,-588.757 L 22.4606,-589.373 L 22.5,-590
 L 22.5,-700 L 22.4606,-700.627 L 22.3429,-701.243 L 22.1489,-701.841 L 21.8815,-702.409 L 21.5451,-702.939
 L 21.1448,-703.423 L 20.6871,-703.853 L 20.1791,-704.222 L 19.6289,-704.524 L 19.0451,-704.755 L 18.4369,-704.911
 L 17.8139,-704.99 L -17.8139,-704.99 L -18.4369,-704.911 L -19.0451,-704.755 L -19.6289,-704.524 L -20.1791,-704.222
 L -20.6871,-703.853 L -21.1448,-703.423 L -21.5451,-702.939 L -21.8815,-702.409 L -22.1489,-701.841 L -22.3429,-701.243
 L -22.4606,-700.627 L -22.5,-700 L -22.5,-590 L -22.4606,-589.373 L -22.3429,-588.757 L -22.1489,-588.159
 L -21.8815,-587.591 L -21.5451,-587.061 L -21.1448,-586.577 L -20.6871,-586.147 L -20.1791,-585.778 L -19.6289,-585.476
 L -19.0451,-585.245 L -18.4369,-585.089 L -17.8139,-585.01 L 17.8139,-585.01 z
M 14.8659,-695.369 L 14.5999,-695.403 L 14.3401,-695.469 L 14.0908,-695.568 L 13.8559,-695.697 L 13.6389,-695.855
 L 13.4434,-696.038 L 13.2725,-696.245 L 13.1288,-696.471 L 13.0146,-696.714 L 12.9318,-696.969 L 12.8815,-697.232
 L 12.8647,-697.5 L 12.8815,-697.768 L 12.9318,-698.031 L 13.0146,-698.286 L 13.1288,-698.529 L 13.2725,-698.755
 L 13.4434,-698.962 L 13.6389,-699.145 L 13.8559,-699.303 L 14.0908,-699.432 L 14.3401,-699.531 L 14.5999,-699.597
 L 14.8659,-699.631 L 15.1341,-699.631 L 15.4001,-699.597 L 15.6598,-699.531 L 15.9091,-699.432 L 16.1441,-699.303
 L 16.3611,-699.145 L 16.5565,-698.962 L 16.7275,-698.755 L 16.8712,-698.529 L 16.9853,-698.286 L 17.0682,-698.031
 L 17.1185,-697.768 L 17.1353,-697.5 L 17.1185,-697.232 L 17.0682,-696.969 L 16.9853,-696.714 L 16.8712,-696.471
 L 16.7275,-696.245 L 16.5565,-696.038 L 16.3611,-695.855 L 16.1441,-695.697 L 15.9091,-695.568 L 15.6598,-695.469
 L 15.4001,-695.403 L 15.1341,-695.369 z
M -15.1341,-695.369 L -15.4001,-695.403 L -15.6598,-695.469 L -15.9091,-695.568 L -16.1441,-695.697 L -16.3611,-695.855
 L -16.5565,-696.038 L -16.7275,-696.245 L -16.8712,-696.471 L -16.9853,-696.714 L -17.0682,-696.969 L -17.1185,-697.232
 L -17.1353,-697.5 L -17.1185,-697.768 L -17.0682,-698.031 L -16.9853,-698.286 L -16.8712,-698.529 L -16.7275,-698.755
 L -16.5565,-698.962 L -16.3611,-699.145 L -16.1441,-699.303 L -15.9091,-699.432 L -15.6598,-699.531 L -15.4001,-699.597
 L -15.1341,-699.631 L -14.8659,-699.631 L -14.5999,-699.597 L -14.3401,-699.531 L -14.0908,-699.432 L -13.8559,-699.303
 L -13.6389,-699.145 L -13.4434,-698.962 L -13.2725,-698.755 L -13.1288,-698.529 L -13.0146,-698.286 L -12.9318,-698.031
 L -12.8815,-697.768 L -12.8647,-697.5 L -12.8815,-697.232 L -12.9318,-696.969 L -13.0146,-696.714 L -13.1288,-696.471
 L -13.2725,-696.245 L -13.4434,-696.038 L -13.6389,-695.855 L -13.8559,-695.697 L -14.0908,-695.568 L -14.3401,-695.469
 L -14.5999,-695.403 L -14.8659,-695.369 z
M 14.8659,-590.369 L 14.5999,-590.403 L 14.3401,-590.469 L 14.0908,-590.568 L 13.8559,-590.697 L 13.6389,-590.855
 L 13.4434,-591.038 L 13.2725,-591.245 L 13.1288,-591.471 L 13.0146,-591.714 L 12.9318,-591.969 L 12.8815,-592.232
 L 12.8647,-592.5 L 12.8815,-592.768 L 12.9318,-593.031 L 13.0146,-593.286 L 13.1288,-593.529 L 13.2725,-593.755
 L 13.4434,-593.962 L 13.6389,-594.145 L 13.8559,-594.303 L 14.0908,-594.432 L 14.3401,-594.531 L 14.5999,-594.597
 L 14.8659,-594.631 L 15.1341,-594.631 L 15.4001,-594.597 L 15.6598,-594.531 L 15.9091,-594.432 L 16.1441,-594.303
 L 16.3611,-594.145 L 16.5565,-593.962 L 16.7275,-593.755 L 16.8712,-593.529 L 16.9853,-593.286 L 17.0682,-593.031
 L 17.1185,-592.768 L 17.1353,-592.5 L 17.1185,-592.232 L 17.0682,-591.969 L 16.9853,-591.714 L 16.8712,-591.471
 L 16.7275,-591.245 L 16.5565,-591.038 L 16.3611,-590.855 L 16.1441,-590.697 L 15.9091,-590.568 L 15.6598,-590.469
 L 15.4001,-590.403 L 15.1341,-590.369 z
M -15.1341,-590.369 L -15.4001,-590.403 L -15.6598,-590.469 L -15.9091,-590.568 L -16.1441,-590.697 L -16.3611,-590.855
 L -16.5565,-591.038 L -16.7275,-591.245 L -16.8712,-591.471 L -16.9853,-591.714 L -17.0682,-591.969 L -17.1185,-592.232
 L -17.1353,-592.5 L -17.1185,-592.768 L -17.0682,-593.031 L -16.9853,-593.286 L -16.8712,-593.529 L -16.7275,-593.755
 L -16.5565,-593.962 L -16.3611,-594.145 L -16.1441,-594.303 L -15.9091,-594.432 L -15.6598,-594.531 L -15.4001,-594.597
 L -15.1341,-594.631 L -14.8659,-594.631 L -14.5999,-594.597 L -14.3401,-594.531 L -14.0908,-594.432 L -13.8559,-594.303
 L -13.6389,-594.145 L -13.4434,-593.962 L -13.2725,-593.755 L -13.1288,-593.529 L -13.0146,-593.286 L -12.9318,-593.031
 L -12.8815,-592.768 L -12.8647,-592.5 L -12.8815,-592.232 L -12.9318,-591.969 L -13.0146,-591.714 L -13.1288,-591.471
 L -13.2725,-591.245 L -13.4434,-591.038 L -13.6389,-590.855 L -13.8559,-590.697 L -14.0908,-590.568 L -14.3401,-590.469
 L -14.5999,-590.403 L -14.8659,-590.369 z
" stroke="black" fill="lightgray" stroke-width="0.5"/>
</svg>
