<?xml version="1.0" standalone="no"?>
<!DOCTYPE svg PUBLIC "-//W3C//DTD SVG 1.1//EN" "http://www.w3.org/Graphics/SVG/1.1/DTD/svg11.dtd">
<svg width="134mm" height="278mm" viewBox="-67 -499 134 278" xmlns="http://www.w3.org/2000/svg" version="1.1">
<title>OpenSCAD Model</title>
<path d="
M 62.9369,-365.089 L 63.5451,-365.245 L 64.1289,-365.476 L 64.6791,-365.778 L 65.1871,-366.147 L 65.6448,-366.577
 L 66.0451,-367.061 L 66.3815,-367.591 L 66.6489,-368.159 L 66.8429,-368.757 L 66.9606,-369.373 L 67,-370
 L 67,-492 L 21.9684,-492 L 21.9734,-491.998 L 18.7482,-491.998 L 18.6236,-491.982 L 18.502,-491.951
 L 18.3852,-491.905 L 18.2752,-491.844 L 18.1736,-491.771 L 18.082,-491.685 L 18.002,-491.588 L 17.9347,-491.482
 L 17.8812,-491.368 L 17.8424,-491.249 L 17.8189,-491.125 L 17.811,-491 L 17.8189,-490.875 L 17.8424,-490.751
 L 17.8812,-490.632 L 17.9347,-490.518 L 18.002,-490.412 L 18.082,-490.315 L 18.1736,-490.229 L 18.2752,-490.156
 L 18.3852,-490.095 L 18.502,-490.049 L 18.6236,-490.018 L 18.7482,-490.002 L 23.8738,-490.002 L 23.9984,-490.018
 L 24.12,-490.049 L 24.2368,-490.095 L 24.3468,-490.156 L 24.4484,-490.229 L 24.54,-490.315 L 24.62,-490.412
 L 24.6873,-490.518 L 24.7408,-490.632 L 24.7796,-490.751 L 24.8031,-490.875 L 24.8033,-490.878 L 27.2499,-489.909
 L 34.2929,-486.037 L 40.7951,-481.313 L 46.654,-475.811 L 51.7771,-469.618 L 56.0836,-462.832 L 59.5057,-455.56
 L 61.9893,-447.916 L 63.4953,-440.021 L 64,-432 L 63.4953,-423.979 L 61.9893,-416.084 L 59.5057,-408.44
 L 56.0836,-401.168 L 51.7771,-394.382 L 46.654,-388.189 L 40.7951,-382.687 L 34.2929,-377.963 L 27.2499,-374.091
 L 19.7771,-371.132 L 11.9924,-369.134 L 4.01859,-368.126 L -4.01859,-368.126 L -11.9924,-369.134 L -19.7771,-371.132
 L -27.2499,-374.091 L -34.2929,-377.963 L -40.7951,-382.687 L -46.654,-388.189 L -51.7771,-394.382 L -56.0836,-401.168
 L -59.5057,-408.44 L -61.9893,-416.084 L -63.4953,-423.979 L -64,-432 L -63.4953,-440.021 L -61.9893,-447.916
 L -59.5057,-455.56 L -56.0836,-462.832 L -51.7771,-469.618 L -46.654,-475.811 L -40.7951,-481.313 L -34.2929,-486.037
 L -27.2499,-489.909 L -19.7771,-492.868 L -11.9924,-494.866 L -4.01859,-495.874 L 0,-495.874 L 0,-496
 L 47,-496 L 44.0099,-498.99 L -34.5,-498.99 L -34.5,-498 L -66.5,-498 L -66.5,-499
 L -67,-499 L -67,-494.994 L -59.8116,-494.994 L -59.4379,-494.947 L -59.0729,-494.853 L -58.7227,-494.714
 L -58.3925,-494.533 L -58.0877,-494.312 L -57.8131,-494.054 L -57.5729,-493.763 L -57.3711,-493.445 L -57.2107,-493.104
 L -57.0942,-492.746 L -57.0237,-492.376 L -57,-492 L -57.0237,-491.624 L -57.0942,-491.254 L -57.2107,-490.896
 L -57.3711,-490.555 L -57.5729,-490.237 L -57.8131,-489.946 L -58.0877,-489.688 L -58.3925,-489.467 L -58.7227,-489.286
 L -59.0729,-489.147 L -59.4379,-489.053 L -59.8116,-489.006 L -67,-489.006 L -67,-374.994 L -59.8116,-374.994
 L -59.4379,-374.947 L -59.0729,-374.853 L -58.7227,-374.714 L -58.3925,-374.533 L -58.0877,-374.312 L -57.8131,-374.054
 L -57.5729,-373.763 L -57.3711,-373.445 L -57.2107,-373.104 L -57.0942,-372.746 L -57.0237,-372.376 L -57,-372
 L -57.0237,-371.624 L -57.0942,-371.254 L -57.2107,-370.896 L -57.3711,-370.555 L -57.5729,-370.237 L -57.8131,-369.946
 L -58.0877,-369.688 L -58.3925,-369.467 L -58.7227,-369.286 L -59.0729,-369.147 L -59.4379,-369.053 L -59.8116,-369.006
 L -66.8905,-369.006 L -66.8429,-368.757 L -66.6489,-368.159 L -66.3815,-367.591 L -66.0451,-367.061 L -65.6448,-366.577
 L -65.1871,-366.147 L -64.6791,-365.778 L -64.1289,-365.476 L -63.5451,-365.245 L -62.9369,-365.089 L -62.3139,-365.01
 L 62.3139,-365.01 z
M 59.8116,-369.006 L 59.4379,-369.053 L 59.0729,-369.147 L 58.7227,-369.286 L 58.3925,-369.467 L 58.0877,-369.688
 L 57.8131,-369.946 L 57.5729,-370.237 L 57.3711,-370.555 L 57.2107,-370.896 L 57.0942,-371.254 L 57.0237,-371.624
 L 57,-372 L 57.0237,-372.376 L 57.0942,-372.746 L 57.2107,-373.104 L 57.3711,-373.445 L 57.5729,-373.763
 L 57.8131,-374.054 L 58.0877,-374.312 L 58.3925,-374.533 L 58.7227,-374.714 L 59.0729,-374.853 L 59.4379,-374.947
 L 59.8116,-374.994 L 60.1884,-374.994 L 60.5621,-374.947 L 60.927,-374.853 L 61.2773,-374.714 L 61.6075,-374.533
 L 61.9123,-374.312 L 62.1869,-374.054 L 62.427,-373.763 L 62.6289,-373.445 L 62.7893,-373.104 L 62.9057,-372.746
 L 62.9763,-372.376 L 63,-372 L 62.9763,-371.624 L 62.9057,-371.254 L 62.7893,-370.896 L 62.6289,-370.555
 L 62.427,-370.237 L 62.1869,-369.946 L 61.9123,-369.688 L 61.6075,-369.467 L 61.2773,-369.286 L 60.927,-369.147
 L 60.5621,-369.053 L 60.1884,-369.006 z
M 57,-498.99 L 46.1312,-498.99 L 49.1213,-496 L 57,-496 z
M 62.9369,-221.089 L 63.5451,-221.245 L 64.1289,-221.476 L 64.6791,-221.778 L 65.1871,-222.147 L 65.6448,-222.577
 L 66.0451,-223.061 L 66.3815,-223.591 L 66.6489,-224.159 L 66.8429,-224.757 L 66.9606,-225.373 L 67,-226
 L 67,-350 L 66.9606,-350.627 L 66.8429,-351.243 L 66.6489,-351.841 L 66.3815,-352.409 L 66.0451,-352.939
 L 65.6448,-353.423 L 65.1871,-353.853 L 64.6791,-354.222 L 64.1289,-354.524 L 63.5451,-354.755 L 62.9369,-354.911
 L 62.3139,-354.99 L -34.5,-354.99 L -34.5,-354 L -66.5,-354 L -66.5,-355 L -67,-355
 L -67,-350.994 L -59.8116,-350.994 L -59.4379,-350.947 L -59.0729,-350.853 L -58.7227,-350.714 L -58.3925,-350.533
 L -58.0877,-350.312 L -57.8131,-350.054 L -57.5729,-349.763 L -57.3711,-349.445 L -57.2107,-349.104 L -57.0942,-348.746
 L -57.0237,-348.376 L -57,-348 L -57.0237,-347.624 L -57.0942,-347.254 L -57.2107,-346.896 L -57.3711,-346.555
 L -57.5729,-346.237 L -57.8131,-345.946 L -58.0877,-345.688 L -58.3925,-345.467 L -58.7227,-345.286 L -59.0729,-345.147
 L -59.4379,-345.053 L -59.8116,-345.006 L -67,-345.006 L -67,-230.994 L -59.8116,-230.994 L -59.4379,-230.947
 L -59.0729,-230.853 L -58.7227,-230.714 L -58.3925,-230.533 L -58.0877,-230.312 L -57.8131,-230.054 L -57.5729,-229.763
 L -57.3711,-229.445 L -57.2107,-229.104 L -57.0942,-228.746 L -57.0237,-228.376 L -57,-228 L -57.0237,-227.624
 L -57.0942,-227.254 L -57.2107,-226.896 L -57.3711,-226.555 L -57.5729,-226.237 L -57.8131,-225.946 L -58.0877,-225.688
 L -58.3925,-225.467 L -58.7227,-225.286 L -59.0729,-225.147 L -59.4379,-225.053 L -59.8116,-225.006 L -66.8905,-225.006
 L -66.8429,-224.757 L -66.6489,-224.159 L -66.3815,-223.591 L -66.0451,-223.061 L -65.6448,-222.577 L -65.1871,-222.147
 L -64.6791,-221.778 L -64.1289,-221.476 L -63.5451,-221.245 L -62.9369,-221.089 L -62.3139,-221.01 L 62.3139,-221.01
 z
M -0.941849,-273.03 L -2.81071,-273.266 L -4.63525,-273.734 L -6.38669,-274.428 L -8.0374,-275.335 L -9.56136,-276.442
 L -10.9345,-277.732 L -12.1353,-279.183 L -13.1446,-280.774 L -13.9466,-282.478 L -14.5287,-284.27 L -14.8817,-286.12
 L -15,-288 L -14.8817,-289.88 L -14.5287,-291.73 L -13.9466,-293.522 L -13.1446,-295.226 L -12.1353,-296.817
 L -10.9345,-298.268 L -9.56136,-299.558 L -8.0374,-300.665 L -6.38669,-301.572 L -4.63525,-302.266 L -2.81071,-302.734
 L -0.941849,-302.97 L 0.941849,-302.97 L 2.81071,-302.734 L 4.63525,-302.266 L 6.38669,-301.572 L 8.0374,-300.665
 L 9.56136,-299.558 L 10.9345,-298.268 L 12.1353,-296.817 L 13.1446,-295.226 L 13.9466,-293.522 L 14.5287,-291.73
 L 14.8817,-289.88 L 15,-288 L 14.8817,-286.12 L 14.5287,-284.27 L 13.9466,-282.478 L 13.1446,-280.774
 L 12.1353,-279.183 L 10.9345,-277.732 L 9.56136,-276.442 L 8.0374,-275.335 L 6.38669,-274.428 L 4.63525,-273.734
 L 2.81071,-273.266 L 0.941849,-273.03 z
M 59.8116,-225.006 L 59.4379,-225.053 L 59.0729,-225.147 L 58.7227,-225.286 L 58.3925,-225.467 L 58.0877,-225.688
 L 57.8131,-225.946 L 57.5729,-226.237 L 57.3711,-226.555 L 57.2107,-226.896 L 57.0942,-227.254 L 57.0237,-227.624
 L 57,-228 L 57.0237,-228.376 L 57.0942,-228.746 L 57.2107,-229.104 L 57.3711,-229.445 L 57.5729,-229.763
 L 57.8131,-230.054 L 58.0877,-230.312 L 58.3925,-230.533 L 58.7227,-230.714 L 59.0729,-230.853 L 59.4379,-230.947
 L 59.8116,-230.994 L 60.1884,-230.994 L 60.5621,-230.947 L 60.927,-230.853 L 61.2773,-230.714 L 61.6075,-230.533
 L 61.9123,-230.312 L 62.1869,-230.054 L 62.427,-229.763 L 62.6289,-229.445 L 62.7893,-229.104 L 62.9057,-228.746
 L 62.9763,-228.376 L 63,-228 L 62.9763,-227.624 L 62.9057,-227.254 L 62.7893,-226.896 L 62.6289,-226.555
 L 62.427,-226.237 L 62.1869,-225.946 L 61.9123,-225.688 L 61.6075,-225.467 L 61.2773,-225.286 L 60.927,-225.147
 L 60.5621,-225.053 L 60.1884,-225.006 z
" stroke="black" fill="lightgray" stroke-width="0.5"/>
</svg>
