  0
SECTION
  2
BLOCKS
  0
ENDSEC
  0
SECTION
  2
ENTITIES
  0
LINE
  8
0
 10
85.9369
 20
193.589
 11
86.5451
 21
193.745
  0
LINE
  8
0
 10
86.5451
 20
193.745
 11
87.1289
 21
193.976
  0
LINE
  8
0
 10
87.1289
 20
193.976
 11
87.6791
 21
194.278
  0
LINE
  8
0
 10
87.6791
 20
194.278
 11
88.1871
 21
194.647
  0
LINE
  8
0
 10
88.1871
 20
194.647
 11
88.6448
 21
195.077
  0
LINE
  8
0
 10
88.6448
 20
195.077
 11
89.0451
 21
195.561
  0
LINE
  8
0
 10
89.0451
 20
195.561
 11
89.3815
 21
196.091
  0
LINE
  8
0
 10
89.3815
 20
196.091
 11
89.6489
 21
196.659
  0
LINE
  8
0
 10
89.6489
 20
196.659
 11
89.8429
 21
197.257
  0
LINE
  8
0
 10
89.8429
 20
197.257
 11
89.9606
 21
197.873
  0
LINE
  8
0
 10
89.9606
 20
197.873
 11
90
 21
198.5
  0
LINE
  8
0
 10
90
 20
198.5
 11
90
 21
233.5
  0
LINE
  8
0
 10
90
 20
233.5
 11
89.9606
 21
234.127
  0
LINE
  8
0
 10
89.9606
 20
234.127
 11
89.8429
 21
234.743
  0
LINE
  8
0
 10
89.8429
 20
234.743
 11
89.6489
 21
235.341
  0
LINE
  8
0
 10
89.6489
 20
235.341
 11
89.3815
 21
235.909
  0
LINE
  8
0
 10
89.3815
 20
235.909
 11
89.0451
 21
236.439
  0
LINE
  8
0
 10
89.0451
 20
236.439
 11
88.6448
 21
236.923
  0
LINE
  8
0
 10
88.6448
 20
236.923
 11
88.1871
 21
237.353
  0
LINE
  8
0
 10
88.1871
 20
237.353
 11
87.6791
 21
237.722
  0
LINE
  8
0
 10
87.6791
 20
237.722
 11
87.1289
 21
238.024
  0
LINE
  8
0
 10
87.1289
 20
238.024
 11
86.5451
 21
238.255
  0
LINE
  8
0
 10
86.5451
 20
238.255
 11
85.9369
 21
238.411
  0
LINE
  8
0
 10
85.9369
 20
238.411
 11
85.3139
 21
238.49
  0
LINE
  8
0
 10
85.3139
 20
238.49
 11
-85.3139
 21
238.49
  0
LINE
  8
0
 10
-85.3139
 20
238.49
 11
-85.9369
 21
238.411
  0
LINE
  8
0
 10
-85.9369
 20
238.411
 11
-86.5451
 21
238.255
  0
LINE
  8
0
 10
-86.5451
 20
238.255
 11
-87.1289
 21
238.024
  0
LINE
  8
0
 10
-87.1289
 20
238.024
 11
-87.6791
 21
237.722
  0
LINE
  8
0
 10
-87.6791
 20
237.722
 11
-88.1871
 21
237.353
  0
LINE
  8
0
 10
-88.1871
 20
237.353
 11
-88.6448
 21
236.923
  0
LINE
  8
0
 10
-88.6448
 20
236.923
 11
-89.0451
 21
236.439
  0
LINE
  8
0
 10
-89.0451
 20
236.439
 11
-89.3815
 21
235.909
  0
LINE
  8
0
 10
-89.3815
 20
235.909
 11
-89.6489
 21
235.341
  0
LINE
  8
0
 10
-89.6489
 20
235.341
 11
-89.8429
 21
234.743
  0
LINE
  8
0
 10
-89.8429
 20
234.743
 11
-89.9606
 21
234.127
  0
LINE
  8
0
 10
-89.9606
 20
234.127
 11
-90
 21
233.5
  0
LINE
  8
0
 10
-90
 20
233.5
 11
-90
 21
198.5
  0
LINE
  8
0
 10
-90
 20
198.5
 11
-89.9606
 21
197.873
  0
LINE
  8
0
 10
-89.9606
 20
197.873
 11
-89.8429
 21
197.257
  0
LINE
  8
0
 10
-89.8429
 20
197.257
 11
-89.6489
 21
196.659
  0
LINE
  8
0
 10
-89.6489
 20
196.659
 11
-89.3815
 21
196.091
  0
LINE
  8
0
 10
-89.3815
 20
196.091
 11
-89.0451
 21
195.561
  0
LINE
  8
0
 10
-89.0451
 20
195.561
 11
-88.6448
 21
195.077
  0
LINE
  8
0
 10
-88.6448
 20
195.077
 11
-88.1871
 21
194.647
  0
LINE
  8
0
 10
-88.1871
 20
194.647
 11
-87.6791
 21
194.278
  0
LINE
  8
0
 10
-87.6791
 20
194.278
 11
-87.1289
 21
193.976
  0
LINE
  8
0
 10
-87.1289
 20
193.976
 11
-86.5451
 21
193.745
  0
LINE
  8
0
 10
-86.5451
 20
193.745
 11
-85.9369
 21
193.589
  0
LINE
  8
0
 10
-85.9369
 20
193.589
 11
-85.3139
 21
193.51
  0
LINE
  8
0
 10
-85.3139
 20
193.51
 11
85.3139
 21
193.51
  0
LINE
  8
0
 10
85.3139
 20
193.51
 11
85.9369
 21
193.589
  0
LINE
  8
0
 10
-85.0482
 20
194.009
 11
-85.6401
 21
194.084
  0
LINE
  8
0
 10
-85.6401
 20
194.084
 11
-86.2178
 21
194.232
  0
LINE
  8
0
 10
-86.2178
 20
194.232
 11
-86.7724
 21
194.452
  0
LINE
  8
0
 10
-86.7724
 20
194.452
 11
-87.2952
 21
194.739
  0
LINE
  8
0
 10
-87.2952
 20
194.739
 11
-87.7778
 21
195.09
  0
LINE
  8
0
 10
-87.7778
 20
195.09
 11
-88.2126
 21
195.498
  0
LINE
  8
0
 10
-88.2126
 20
195.498
 11
-88.5928
 21
195.958
  0
LINE
  8
0
 10
-88.5928
 20
195.958
 11
-88.9125
 21
196.462
  0
LINE
  8
0
 10
-88.9125
 20
196.462
 11
-89.1664
 21
197.001
  0
LINE
  8
0
 10
-89.1664
 20
197.001
 11
-89.3508
 21
197.569
  0
LINE
  8
0
 10
-89.3508
 20
197.569
 11
-89.4625
 21
198.155
  0
LINE
  8
0
 10
-89.4625
 20
198.155
 11
-89.5
 21
198.75
  0
LINE
  8
0
 10
-89.5
 20
198.75
 11
-89.5
 21
233.25
  0
LINE
  8
0
 10
-89.5
 20
233.25
 11
-89.4625
 21
233.845
  0
LINE
  8
0
 10
-89.4625
 20
233.845
 11
-89.3508
 21
234.431
  0
LINE
  8
0
 10
-89.3508
 20
234.431
 11
-89.1664
 21
234.999
  0
LINE
  8
0
 10
-89.1664
 20
234.999
 11
-88.9125
 21
235.538
  0
LINE
  8
0
 10
-88.9125
 20
235.538
 11
-88.5928
 21
236.042
  0
LINE
  8
0
 10
-88.5928
 20
236.042
 11
-88.2126
 21
236.502
  0
LINE
  8
0
 10
-88.2126
 20
236.502
 11
-87.7778
 21
236.91
  0
LINE
  8
0
 10
-87.7778
 20
236.91
 11
-87.2952
 21
237.261
  0
LINE
  8
0
 10
-87.2952
 20
237.261
 11
-86.7724
 21
237.548
  0
LINE
  8
0
 10
-86.7724
 20
237.548
 11
-86.2178
 21
237.768
  0
LINE
  8
0
 10
-86.2178
 20
237.768
 11
-85.6401
 21
237.916
  0
LINE
  8
0
 10
-85.6401
 20
237.916
 11
-85.0482
 21
237.991
  0
LINE
  8
0
 10
-85.0482
 20
237.991
 11
85.0482
 21
237.991
  0
LINE
  8
0
 10
85.0482
 20
237.991
 11
85.6401
 21
237.916
  0
LINE
  8
0
 10
85.6401
 20
237.916
 11
86.2178
 21
237.768
  0
LINE
  8
0
 10
86.2178
 20
237.768
 11
86.7724
 21
237.548
  0
LINE
  8
0
 10
86.7724
 20
237.548
 11
87.2952
 21
237.261
  0
LINE
  8
0
 10
87.2952
 20
237.261
 11
87.7778
 21
236.91
  0
LINE
  8
0
 10
87.7778
 20
236.91
 11
88.2126
 21
236.502
  0
LINE
  8
0
 10
88.2126
 20
236.502
 11
88.5928
 21
236.042
  0
LINE
  8
0
 10
88.5928
 20
236.042
 11
88.9125
 21
235.538
  0
LINE
  8
0
 10
88.9125
 20
235.538
 11
89.1664
 21
234.999
  0
LINE
  8
0
 10
89.1664
 20
234.999
 11
89.3508
 21
234.431
  0
LINE
  8
0
 10
89.3508
 20
234.431
 11
89.4625
 21
233.845
  0
LINE
  8
0
 10
89.4625
 20
233.845
 11
89.5
 21
233.25
  0
LINE
  8
0
 10
89.5
 20
233.25
 11
89.5
 21
198.75
  0
LINE
  8
0
 10
89.5
 20
198.75
 11
89.4625
 21
198.155
  0
LINE
  8
0
 10
89.4625
 20
198.155
 11
89.3508
 21
197.569
  0
LINE
  8
0
 10
89.3508
 20
197.569
 11
89.1664
 21
197.001
  0
LINE
  8
0
 10
89.1664
 20
197.001
 11
88.9125
 21
196.462
  0
LINE
  8
0
 10
88.9125
 20
196.462
 11
88.5928
 21
195.958
  0
LINE
  8
0
 10
88.5928
 20
195.958
 11
88.2126
 21
195.498
  0
LINE
  8
0
 10
88.2126
 20
195.498
 11
87.7778
 21
195.09
  0
LINE
  8
0
 10
87.7778
 20
195.09
 11
87.2952
 21
194.739
  0
LINE
  8
0
 10
87.2952
 20
194.739
 11
86.7724
 21
194.452
  0
LINE
  8
0
 10
86.7724
 20
194.452
 11
86.2178
 21
194.232
  0
LINE
  8
0
 10
86.2178
 20
194.232
 11
85.6401
 21
194.084
  0
LINE
  8
0
 10
85.6401
 20
194.084
 11
85.0482
 21
194.009
  0
LINE
  8
0
 10
85.0482
 20
194.009
 11
-85.0482
 21
194.009
  0
LINE
  8
0
 10
85.9369
 20
139.589
 11
86.5451
 21
139.745
  0
LINE
  8
0
 10
86.5451
 20
139.745
 11
87.1289
 21
139.976
  0
LINE
  8
0
 10
87.1289
 20
139.976
 11
87.6791
 21
140.278
  0
LINE
  8
0
 10
87.6791
 20
140.278
 11
88.1871
 21
140.647
  0
LINE
  8
0
 10
88.1871
 20
140.647
 11
88.6448
 21
141.077
  0
LINE
  8
0
 10
88.6448
 20
141.077
 11
89.0451
 21
141.561
  0
LINE
  8
0
 10
89.0451
 20
141.561
 11
89.3815
 21
142.091
  0
LINE
  8
0
 10
89.3815
 20
142.091
 11
89.6489
 21
142.659
  0
LINE
  8
0
 10
89.6489
 20
142.659
 11
89.8429
 21
143.257
  0
LINE
  8
0
 10
89.8429
 20
143.257
 11
89.9606
 21
143.873
  0
LINE
  8
0
 10
89.9606
 20
143.873
 11
90
 21
144.5
  0
LINE
  8
0
 10
90
 20
144.5
 11
90
 21
179.5
  0
LINE
  8
0
 10
90
 20
179.5
 11
89.9606
 21
180.127
  0
LINE
  8
0
 10
89.9606
 20
180.127
 11
89.8429
 21
180.743
  0
LINE
  8
0
 10
89.8429
 20
180.743
 11
89.6489
 21
181.341
  0
LINE
  8
0
 10
89.6489
 20
181.341
 11
89.3815
 21
181.909
  0
LINE
  8
0
 10
89.3815
 20
181.909
 11
89.0451
 21
182.439
  0
LINE
  8
0
 10
89.0451
 20
182.439
 11
88.6448
 21
182.923
  0
LINE
  8
0
 10
88.6448
 20
182.923
 11
88.1871
 21
183.353
  0
LINE
  8
0
 10
88.1871
 20
183.353
 11
87.6791
 21
183.722
  0
LINE
  8
0
 10
87.6791
 20
183.722
 11
87.1289
 21
184.024
  0
LINE
  8
0
 10
87.1289
 20
184.024
 11
86.5451
 21
184.255
  0
LINE
  8
0
 10
86.5451
 20
184.255
 11
85.9369
 21
184.411
  0
LINE
  8
0
 10
85.9369
 20
184.411
 11
85.3139
 21
184.49
  0
LINE
  8
0
 10
85.3139
 20
184.49
 11
-85.3139
 21
184.49
  0
LINE
  8
0
 10
-85.3139
 20
184.49
 11
-85.9369
 21
184.411
  0
LINE
  8
0
 10
-85.9369
 20
184.411
 11
-86.5451
 21
184.255
  0
LINE
  8
0
 10
-86.5451
 20
184.255
 11
-87.1289
 21
184.024
  0
LINE
  8
0
 10
-87.1289
 20
184.024
 11
-87.6791
 21
183.722
  0
LINE
  8
0
 10
-87.6791
 20
183.722
 11
-88.1871
 21
183.353
  0
LINE
  8
0
 10
-88.1871
 20
183.353
 11
-88.6448
 21
182.923
  0
LINE
  8
0
 10
-88.6448
 20
182.923
 11
-89.0451
 21
182.439
  0
LINE
  8
0
 10
-89.0451
 20
182.439
 11
-89.3815
 21
181.909
  0
LINE
  8
0
 10
-89.3815
 20
181.909
 11
-89.6489
 21
181.341
  0
LINE
  8
0
 10
-89.6489
 20
181.341
 11
-89.8429
 21
180.743
  0
LINE
  8
0
 10
-89.8429
 20
180.743
 11
-89.9606
 21
180.127
  0
LINE
  8
0
 10
-89.9606
 20
180.127
 11
-90
 21
179.5
  0
LINE
  8
0
 10
-90
 20
179.5
 11
-90
 21
144.5
  0
LINE
  8
0
 10
-90
 20
144.5
 11
-89.9606
 21
143.873
  0
LINE
  8
0
 10
-89.9606
 20
143.873
 11
-89.8429
 21
143.257
  0
LINE
  8
0
 10
-89.8429
 20
143.257
 11
-89.6489
 21
142.659
  0
LINE
  8
0
 10
-89.6489
 20
142.659
 11
-89.3815
 21
142.091
  0
LINE
  8
0
 10
-89.3815
 20
142.091
 11
-89.0451
 21
141.561
  0
LINE
  8
0
 10
-89.0451
 20
141.561
 11
-88.6448
 21
141.077
  0
LINE
  8
0
 10
-88.6448
 20
141.077
 11
-88.1871
 21
140.647
  0
LINE
  8
0
 10
-88.1871
 20
140.647
 11
-87.6791
 21
140.278
  0
LINE
  8
0
 10
-87.6791
 20
140.278
 11
-87.1289
 21
139.976
  0
LINE
  8
0
 10
-87.1289
 20
139.976
 11
-86.5451
 21
139.745
  0
LINE
  8
0
 10
-86.5451
 20
139.745
 11
-85.9369
 21
139.589
  0
LINE
  8
0
 10
-85.9369
 20
139.589
 11
-85.3139
 21
139.51
  0
LINE
  8
0
 10
-85.3139
 20
139.51
 11
85.3139
 21
139.51
  0
LINE
  8
0
 10
85.3139
 20
139.51
 11
85.9369
 21
139.589
  0
LINE
  8
0
 10
-84.993
 20
140.888
 11
-85.4751
 21
140.949
  0
LINE
  8
0
 10
-85.4751
 20
140.949
 11
-85.9457
 21
141.07
  0
LINE
  8
0
 10
-85.9457
 20
141.07
 11
-86.3975
 21
141.249
  0
LINE
  8
0
 10
-86.3975
 20
141.249
 11
-86.8234
 21
141.483
  0
LINE
  8
0
 10
-86.8234
 20
141.483
 11
-87.2165
 21
141.769
  0
LINE
  8
0
 10
-87.2165
 20
141.769
 11
-87.5707
 21
142.101
  0
LINE
  8
0
 10
-87.5707
 20
142.101
 11
-87.8805
 21
142.476
  0
LINE
  8
0
 10
-87.8805
 20
142.476
 11
-88.1408
 21
142.886
  0
LINE
  8
0
 10
-88.1408
 20
142.886
 11
-88.3477
 21
143.326
  0
LINE
  8
0
 10
-88.3477
 20
143.326
 11
-88.4979
 21
143.788
  0
LINE
  8
0
 10
-88.4979
 20
143.788
 11
-88.589
 21
144.265
  0
LINE
  8
0
 10
-88.589
 20
144.265
 11
-88.6195
 21
144.75
  0
LINE
  8
0
 10
-88.6195
 20
144.75
 11
-88.6195
 21
179.25
  0
LINE
  8
0
 10
-88.6195
 20
179.25
 11
-88.589
 21
179.735
  0
LINE
  8
0
 10
-88.589
 20
179.735
 11
-88.4979
 21
180.212
  0
LINE
  8
0
 10
-88.4979
 20
180.212
 11
-88.3477
 21
180.674
  0
LINE
  8
0
 10
-88.3477
 20
180.674
 11
-88.1408
 21
181.114
  0
LINE
  8
0
 10
-88.1408
 20
181.114
 11
-87.8805
 21
181.524
  0
LINE
  8
0
 10
-87.8805
 20
181.524
 11
-87.5707
 21
181.899
  0
LINE
  8
0
 10
-87.5707
 20
181.899
 11
-87.2165
 21
182.231
  0
LINE
  8
0
 10
-87.2165
 20
182.231
 11
-86.8234
 21
182.517
  0
LINE
  8
0
 10
-86.8234
 20
182.517
 11
-86.3975
 21
182.751
  0
LINE
  8
0
 10
-86.3975
 20
182.751
 11
-85.9457
 21
182.93
  0
LINE
  8
0
 10
-85.9457
 20
182.93
 11
-85.4751
 21
183.051
  0
LINE
  8
0
 10
-85.4751
 20
183.051
 11
-84.993
 21
183.112
  0
LINE
  8
0
 10
-84.993
 20
183.112
 11
84.993
 21
183.112
  0
LINE
  8
0
 10
84.993
 20
183.112
 11
85.4751
 21
183.051
  0
LINE
  8
0
 10
85.4751
 20
183.051
 11
85.9457
 21
182.93
  0
LINE
  8
0
 10
85.9457
 20
182.93
 11
86.3975
 21
182.751
  0
LINE
  8
0
 10
86.3975
 20
182.751
 11
86.8234
 21
182.517
  0
LINE
  8
0
 10
86.8234
 20
182.517
 11
87.2165
 21
182.231
  0
LINE
  8
0
 10
87.2165
 20
182.231
 11
87.5707
 21
181.899
  0
LINE
  8
0
 10
87.5707
 20
181.899
 11
87.8805
 21
181.524
  0
LINE
  8
0
 10
87.8805
 20
181.524
 11
88.1408
 21
181.114
  0
LINE
  8
0
 10
88.1408
 20
181.114
 11
88.3477
 21
180.674
  0
LINE
  8
0
 10
88.3477
 20
180.674
 11
88.4979
 21
180.212
  0
LINE
  8
0
 10
88.4979
 20
180.212
 11
88.589
 21
179.735
  0
LINE
  8
0
 10
88.589
 20
179.735
 11
88.6195
 21
179.25
  0
LINE
  8
0
 10
88.6195
 20
179.25
 11
88.6195
 21
144.75
  0
LINE
  8
0
 10
88.6195
 20
144.75
 11
88.589
 21
144.265
  0
LINE
  8
0
 10
88.589
 20
144.265
 11
88.4979
 21
143.788
  0
LINE
  8
0
 10
88.4979
 20
143.788
 11
88.3477
 21
143.326
  0
LINE
  8
0
 10
88.3477
 20
143.326
 11
88.1408
 21
142.886
  0
LINE
  8
0
 10
88.1408
 20
142.886
 11
87.8805
 21
142.476
  0
LINE
  8
0
 10
87.8805
 20
142.476
 11
87.5707
 21
142.101
  0
LINE
  8
0
 10
87.5707
 20
142.101
 11
87.2165
 21
141.769
  0
LINE
  8
0
 10
87.2165
 20
141.769
 11
86.8234
 21
141.483
  0
LINE
  8
0
 10
86.8234
 20
141.483
 11
86.3975
 21
141.249
  0
LINE
  8
0
 10
86.3975
 20
141.249
 11
85.9457
 21
141.07
  0
LINE
  8
0
 10
85.9457
 20
141.07
 11
85.4751
 21
140.949
  0
LINE
  8
0
 10
85.4751
 20
140.949
 11
84.993
 21
140.888
  0
LINE
  8
0
 10
84.993
 20
140.888
 11
-84.993
 21
140.888
  0
LINE
  8
0
 10
85.9369
 20
85.5886
 11
86.5451
 21
85.7447
  0
LINE
  8
0
 10
86.5451
 20
85.7447
 11
87.1289
 21
85.9759
  0
LINE
  8
0
 10
87.1289
 20
85.9759
 11
87.6791
 21
86.2784
  0
LINE
  8
0
 10
87.6791
 20
86.2784
 11
88.1871
 21
86.6474
  0
LINE
  8
0
 10
88.1871
 20
86.6474
 11
88.6448
 21
87.0773
  0
LINE
  8
0
 10
88.6448
 20
87.0773
 11
89.0451
 21
87.5611
  0
LINE
  8
0
 10
89.0451
 20
87.5611
 11
89.3815
 21
88.0912
  0
LINE
  8
0
 10
89.3815
 20
88.0912
 11
89.6489
 21
88.6594
  0
LINE
  8
0
 10
89.6489
 20
88.6594
 11
89.8429
 21
89.2566
  0
LINE
  8
0
 10
89.8429
 20
89.2566
 11
89.9606
 21
89.8733
  0
LINE
  8
0
 10
89.9606
 20
89.8733
 11
90
 21
90.5
  0
LINE
  8
0
 10
90
 20
90.5
 11
90
 21
125.5
  0
LINE
  8
0
 10
90
 20
125.5
 11
89.9606
 21
126.127
  0
LINE
  8
0
 10
89.9606
 20
126.127
 11
89.8429
 21
126.743
  0
LINE
  8
0
 10
89.8429
 20
126.743
 11
89.6489
 21
127.341
  0
LINE
  8
0
 10
89.6489
 20
127.341
 11
89.3815
 21
127.909
  0
LINE
  8
0
 10
89.3815
 20
127.909
 11
89.0451
 21
128.439
  0
LINE
  8
0
 10
89.0451
 20
128.439
 11
88.6448
 21
128.923
  0
LINE
  8
0
 10
88.6448
 20
128.923
 11
88.1871
 21
129.353
  0
LINE
  8
0
 10
88.1871
 20
129.353
 11
87.6791
 21
129.722
  0
LINE
  8
0
 10
87.6791
 20
129.722
 11
87.1289
 21
130.024
  0
LINE
  8
0
 10
87.1289
 20
130.024
 11
86.5451
 21
130.255
  0
LINE
  8
0
 10
86.5451
 20
130.255
 11
85.9369
 21
130.411
  0
LINE
  8
0
 10
85.9369
 20
130.411
 11
85.3139
 21
130.49
  0
LINE
  8
0
 10
85.3139
 20
130.49
 11
-85.3139
 21
130.49
  0
LINE
  8
0
 10
-85.3139
 20
130.49
 11
-85.9369
 21
130.411
  0
LINE
  8
0
 10
-85.9369
 20
130.411
 11
-86.5451
 21
130.255
  0
LINE
  8
0
 10
-86.5451
 20
130.255
 11
-87.1289
 21
130.024
  0
LINE
  8
0
 10
-87.1289
 20
130.024
 11
-87.6791
 21
129.722
  0
LINE
  8
0
 10
-87.6791
 20
129.722
 11
-88.1871
 21
129.353
  0
LINE
  8
0
 10
-88.1871
 20
129.353
 11
-88.6448
 21
128.923
  0
LINE
  8
0
 10
-88.6448
 20
128.923
 11
-89.0451
 21
128.439
  0
LINE
  8
0
 10
-89.0451
 20
128.439
 11
-89.3815
 21
127.909
  0
LINE
  8
0
 10
-89.3815
 20
127.909
 11
-89.6489
 21
127.341
  0
LINE
  8
0
 10
-89.6489
 20
127.341
 11
-89.8429
 21
126.743
  0
LINE
  8
0
 10
-89.8429
 20
126.743
 11
-89.9606
 21
126.127
  0
LINE
  8
0
 10
-89.9606
 20
126.127
 11
-90
 21
125.5
  0
LINE
  8
0
 10
-90
 20
125.5
 11
-90
 21
90.5
  0
LINE
  8
0
 10
-90
 20
90.5
 11
-89.9606
 21
89.8733
  0
LINE
  8
0
 10
-89.9606
 20
89.8733
 11
-89.8429
 21
89.2566
  0
LINE
  8
0
 10
-89.8429
 20
89.2566
 11
-89.6489
 21
88.6594
  0
LINE
  8
0
 10
-89.6489
 20
88.6594
 11
-89.3815
 21
88.0912
  0
LINE
  8
0
 10
-89.3815
 20
88.0912
 11
-89.0451
 21
87.5611
  0
LINE
  8
0
 10
-89.0451
 20
87.5611
 11
-88.6448
 21
87.0773
  0
LINE
  8
0
 10
-88.6448
 20
87.0773
 11
-88.1871
 21
86.6474
  0
LINE
  8
0
 10
-88.1871
 20
86.6474
 11
-87.6791
 21
86.2784
  0
LINE
  8
0
 10
-87.6791
 20
86.2784
 11
-87.1289
 21
85.9759
  0
LINE
  8
0
 10
-87.1289
 20
85.9759
 11
-86.5451
 21
85.7447
  0
LINE
  8
0
 10
-86.5451
 20
85.7447
 11
-85.9369
 21
85.5886
  0
LINE
  8
0
 10
-85.9369
 20
85.5886
 11
-85.3139
 21
85.5099
  0
LINE
  8
0
 10
-85.3139
 20
85.5099
 11
85.3139
 21
85.5099
  0
LINE
  8
0
 10
85.3139
 20
85.5099
 11
85.9369
 21
85.5886
  0
LINE
  8
0
 10
-82.613
 20
121.204
 11
-82.8373
 21
121.232
  0
LINE
  8
0
 10
-82.8373
 20
121.232
 11
-83.0562
 21
121.288
  0
LINE
  8
0
 10
-83.0562
 20
121.288
 11
-83.2664
 21
121.371
  0
LINE
  8
0
 10
-83.2664
 20
121.371
 11
-83.4645
 21
121.48
  0
LINE
  8
0
 10
-83.4645
 20
121.48
 11
-83.6474
 21
121.613
  0
LINE
  8
0
 10
-83.6474
 20
121.613
 11
-83.8121
 21
121.768
  0
LINE
  8
0
 10
-83.8121
 20
121.768
 11
-83.9562
 21
121.942
  0
LINE
  8
0
 10
-83.9562
 20
121.942
 11
-84.0773
 21
122.133
  0
LINE
  8
0
 10
-84.0773
 20
122.133
 11
-84.1736
 21
122.337
  0
LINE
  8
0
 10
-84.1736
 20
122.337
 11
-84.2434
 21
122.552
  0
LINE
  8
0
 10
-84.2434
 20
122.552
 11
-84.2858
 21
122.774
  0
LINE
  8
0
 10
-84.2858
 20
122.774
 11
-84.3
 21
123
  0
LINE
  8
0
 10
-84.3
 20
123
 11
-84.2858
 21
123.226
  0
LINE
  8
0
 10
-84.2858
 20
123.226
 11
-84.2434
 21
123.448
  0
LINE
  8
0
 10
-84.2434
 20
123.448
 11
-84.1736
 21
123.663
  0
LINE
  8
0
 10
-84.1736
 20
123.663
 11
-84.0773
 21
123.867
  0
LINE
  8
0
 10
-84.0773
 20
123.867
 11
-83.9562
 21
124.058
  0
LINE
  8
0
 10
-83.9562
 20
124.058
 11
-83.8121
 21
124.232
  0
LINE
  8
0
 10
-83.8121
 20
124.232
 11
-83.6474
 21
124.387
  0
LINE
  8
0
 10
-83.6474
 20
124.387
 11
-83.4645
 21
124.52
  0
LINE
  8
0
 10
-83.4645
 20
124.52
 11
-83.2664
 21
124.629
  0
LINE
  8
0
 10
-83.2664
 20
124.629
 11
-83.0562
 21
124.712
  0
LINE
  8
0
 10
-83.0562
 20
124.712
 11
-82.8373
 21
124.768
  0
LINE
  8
0
 10
-82.8373
 20
124.768
 11
-82.613
 21
124.796
  0
LINE
  8
0
 10
-82.613
 20
124.796
 11
-82.387
 21
124.796
  0
LINE
  8
0
 10
-82.387
 20
124.796
 11
-82.1627
 21
124.768
  0
LINE
  8
0
 10
-82.1627
 20
124.768
 11
-81.9438
 21
124.712
  0
LINE
  8
0
 10
-81.9438
 20
124.712
 11
-81.7336
 21
124.629
  0
LINE
  8
0
 10
-81.7336
 20
124.629
 11
-81.5355
 21
124.52
  0
LINE
  8
0
 10
-81.5355
 20
124.52
 11
-81.3526
 21
124.387
  0
LINE
  8
0
 10
-81.3526
 20
124.387
 11
-81.1879
 21
124.232
  0
LINE
  8
0
 10
-81.1879
 20
124.232
 11
-81.0438
 21
124.058
  0
LINE
  8
0
 10
-81.0438
 20
124.058
 11
-80.9226
 21
123.867
  0
LINE
  8
0
 10
-80.9226
 20
123.867
 11
-80.8264
 21
123.663
  0
LINE
  8
0
 10
-80.8264
 20
123.663
 11
-80.7565
 21
123.448
  0
LINE
  8
0
 10
-80.7565
 20
123.448
 11
-80.7142
 21
123.226
  0
LINE
  8
0
 10
-80.7142
 20
123.226
 11
-80.7
 21
123
  0
LINE
  8
0
 10
-80.7
 20
123
 11
-80.7142
 21
122.774
  0
LINE
  8
0
 10
-80.7142
 20
122.774
 11
-80.7565
 21
122.552
  0
LINE
  8
0
 10
-80.7565
 20
122.552
 11
-80.8264
 21
122.337
  0
LINE
  8
0
 10
-80.8264
 20
122.337
 11
-80.9226
 21
122.133
  0
LINE
  8
0
 10
-80.9226
 20
122.133
 11
-81.0438
 21
121.942
  0
LINE
  8
0
 10
-81.0438
 20
121.942
 11
-81.1879
 21
121.768
  0
LINE
  8
0
 10
-81.1879
 20
121.768
 11
-81.3526
 21
121.613
  0
LINE
  8
0
 10
-81.3526
 20
121.613
 11
-81.5355
 21
121.48
  0
LINE
  8
0
 10
-81.5355
 20
121.48
 11
-81.7336
 21
121.371
  0
LINE
  8
0
 10
-81.7336
 20
121.371
 11
-81.9438
 21
121.288
  0
LINE
  8
0
 10
-81.9438
 20
121.288
 11
-82.1627
 21
121.232
  0
LINE
  8
0
 10
-82.1627
 20
121.232
 11
-82.387
 21
121.204
  0
LINE
  8
0
 10
-82.387
 20
121.204
 11
-82.613
 21
121.204
  0
LINE
  8
0
 10
82.387
 20
121.204
 11
82.1627
 21
121.232
  0
LINE
  8
0
 10
82.1627
 20
121.232
 11
81.9438
 21
121.288
  0
LINE
  8
0
 10
81.9438
 20
121.288
 11
81.7336
 21
121.371
  0
LINE
  8
0
 10
81.7336
 20
121.371
 11
81.5355
 21
121.48
  0
LINE
  8
0
 10
81.5355
 20
121.48
 11
81.3526
 21
121.613
  0
LINE
  8
0
 10
81.3526
 20
121.613
 11
81.1879
 21
121.768
  0
LINE
  8
0
 10
81.1879
 20
121.768
 11
81.0438
 21
121.942
  0
LINE
  8
0
 10
81.0438
 20
121.942
 11
80.9226
 21
122.133
  0
LINE
  8
0
 10
80.9226
 20
122.133
 11
80.8264
 21
122.337
  0
LINE
  8
0
 10
80.8264
 20
122.337
 11
80.7565
 21
122.552
  0
LINE
  8
0
 10
80.7565
 20
122.552
 11
80.7142
 21
122.774
  0
LINE
  8
0
 10
80.7142
 20
122.774
 11
80.7
 21
123
  0
LINE
  8
0
 10
80.7
 20
123
 11
80.7142
 21
123.226
  0
LINE
  8
0
 10
80.7142
 20
123.226
 11
80.7565
 21
123.448
  0
LINE
  8
0
 10
80.7565
 20
123.448
 11
80.8264
 21
123.663
  0
LINE
  8
0
 10
80.8264
 20
123.663
 11
80.9226
 21
123.867
  0
LINE
  8
0
 10
80.9226
 20
123.867
 11
81.0438
 21
124.058
  0
LINE
  8
0
 10
81.0438
 20
124.058
 11
81.1879
 21
124.232
  0
LINE
  8
0
 10
81.1879
 20
124.232
 11
81.3526
 21
124.387
  0
LINE
  8
0
 10
81.3526
 20
124.387
 11
81.5355
 21
124.52
  0
LINE
  8
0
 10
81.5355
 20
124.52
 11
81.7336
 21
124.629
  0
LINE
  8
0
 10
81.7336
 20
124.629
 11
81.9438
 21
124.712
  0
LINE
  8
0
 10
81.9438
 20
124.712
 11
82.1627
 21
124.768
  0
LINE
  8
0
 10
82.1627
 20
124.768
 11
82.387
 21
124.796
  0
LINE
  8
0
 10
82.387
 20
124.796
 11
82.613
 21
124.796
  0
LINE
  8
0
 10
82.613
 20
124.796
 11
82.8373
 21
124.768
  0
LINE
  8
0
 10
82.8373
 20
124.768
 11
83.0562
 21
124.712
  0
LINE
  8
0
 10
83.0562
 20
124.712
 11
83.2664
 21
124.629
  0
LINE
  8
0
 10
83.2664
 20
124.629
 11
83.4645
 21
124.52
  0
LINE
  8
0
 10
83.4645
 20
124.52
 11
83.6474
 21
124.387
  0
LINE
  8
0
 10
83.6474
 20
124.387
 11
83.8121
 21
124.232
  0
LINE
  8
0
 10
83.8121
 20
124.232
 11
83.9562
 21
124.058
  0
LINE
  8
0
 10
83.9562
 20
124.058
 11
84.0773
 21
123.867
  0
LINE
  8
0
 10
84.0773
 20
123.867
 11
84.1736
 21
123.663
  0
LINE
  8
0
 10
84.1736
 20
123.663
 11
84.2434
 21
123.448
  0
LINE
  8
0
 10
84.2434
 20
123.448
 11
84.2858
 21
123.226
  0
LINE
  8
0
 10
84.2858
 20
123.226
 11
84.3
 21
123
  0
LINE
  8
0
 10
84.3
 20
123
 11
84.2858
 21
122.774
  0
LINE
  8
0
 10
84.2858
 20
122.774
 11
84.2434
 21
122.552
  0
LINE
  8
0
 10
84.2434
 20
122.552
 11
84.1736
 21
122.337
  0
LINE
  8
0
 10
84.1736
 20
122.337
 11
84.0773
 21
122.133
  0
LINE
  8
0
 10
84.0773
 20
122.133
 11
83.9562
 21
121.942
  0
LINE
  8
0
 10
83.9562
 20
121.942
 11
83.8121
 21
121.768
  0
LINE
  8
0
 10
83.8121
 20
121.768
 11
83.6474
 21
121.613
  0
LINE
  8
0
 10
83.6474
 20
121.613
 11
83.4645
 21
121.48
  0
LINE
  8
0
 10
83.4645
 20
121.48
 11
83.2664
 21
121.371
  0
LINE
  8
0
 10
83.2664
 20
121.371
 11
83.0562
 21
121.288
  0
LINE
  8
0
 10
83.0562
 20
121.288
 11
82.8373
 21
121.232
  0
LINE
  8
0
 10
82.8373
 20
121.232
 11
82.613
 21
121.204
  0
LINE
  8
0
 10
82.613
 20
121.204
 11
82.387
 21
121.204
  0
LINE
  8
0
 10
82.387
 20
91.2036
 11
82.1627
 21
91.2319
  0
LINE
  8
0
 10
82.1627
 20
91.2319
 11
81.9438
 21
91.2881
  0
LINE
  8
0
 10
81.9438
 20
91.2881
 11
81.7336
 21
91.3713
  0
LINE
  8
0
 10
81.7336
 20
91.3713
 11
81.5355
 21
91.4802
  0
LINE
  8
0
 10
81.5355
 20
91.4802
 11
81.3526
 21
91.6131
  0
LINE
  8
0
 10
81.3526
 20
91.6131
 11
81.1879
 21
91.7678
  0
LINE
  8
0
 10
81.1879
 20
91.7678
 11
81.0438
 21
91.942
  0
LINE
  8
0
 10
81.0438
 20
91.942
 11
80.9226
 21
92.1329
  0
LINE
  8
0
 10
80.9226
 20
92.1329
 11
80.8264
 21
92.3374
  0
LINE
  8
0
 10
80.8264
 20
92.3374
 11
80.7565
 21
92.5524
  0
LINE
  8
0
 10
80.7565
 20
92.5524
 11
80.7142
 21
92.7744
  0
LINE
  8
0
 10
80.7142
 20
92.7744
 11
80.7
 21
93
  0
LINE
  8
0
 10
80.7
 20
93
 11
80.7142
 21
93.2256
  0
LINE
  8
0
 10
80.7142
 20
93.2256
 11
80.7565
 21
93.4476
  0
LINE
  8
0
 10
80.7565
 20
93.4476
 11
80.8264
 21
93.6626
  0
LINE
  8
0
 10
80.8264
 20
93.6626
 11
80.9226
 21
93.8672
  0
LINE
  8
0
 10
80.9226
 20
93.8672
 11
81.0438
 21
94.058
  0
LINE
  8
0
 10
81.0438
 20
94.058
 11
81.1879
 21
94.2322
  0
LINE
  8
0
 10
81.1879
 20
94.2322
 11
81.3526
 21
94.3869
  0
LINE
  8
0
 10
81.3526
 20
94.3869
 11
81.5355
 21
94.5198
  0
LINE
  8
0
 10
81.5355
 20
94.5198
 11
81.7336
 21
94.6287
  0
LINE
  8
0
 10
81.7336
 20
94.6287
 11
81.9438
 21
94.7119
  0
LINE
  8
0
 10
81.9438
 20
94.7119
 11
82.1627
 21
94.7681
  0
LINE
  8
0
 10
82.1627
 20
94.7681
 11
82.387
 21
94.7964
  0
LINE
  8
0
 10
82.387
 20
94.7964
 11
82.613
 21
94.7964
  0
LINE
  8
0
 10
82.613
 20
94.7964
 11
82.8373
 21
94.7681
  0
LINE
  8
0
 10
82.8373
 20
94.7681
 11
83.0562
 21
94.7119
  0
LINE
  8
0
 10
83.0562
 20
94.7119
 11
83.2664
 21
94.6287
  0
LINE
  8
0
 10
83.2664
 20
94.6287
 11
83.4645
 21
94.5198
  0
LINE
  8
0
 10
83.4645
 20
94.5198
 11
83.6474
 21
94.3869
  0
LINE
  8
0
 10
83.6474
 20
94.3869
 11
83.8121
 21
94.2322
  0
LINE
  8
0
 10
83.8121
 20
94.2322
 11
83.9562
 21
94.058
  0
LINE
  8
0
 10
83.9562
 20
94.058
 11
84.0773
 21
93.8672
  0
LINE
  8
0
 10
84.0773
 20
93.8672
 11
84.1736
 21
93.6626
  0
LINE
  8
0
 10
84.1736
 20
93.6626
 11
84.2434
 21
93.4476
  0
LINE
  8
0
 10
84.2434
 20
93.4476
 11
84.2858
 21
93.2256
  0
LINE
  8
0
 10
84.2858
 20
93.2256
 11
84.3
 21
93
  0
LINE
  8
0
 10
84.3
 20
93
 11
84.2858
 21
92.7744
  0
LINE
  8
0
 10
84.2858
 20
92.7744
 11
84.2434
 21
92.5524
  0
LINE
  8
0
 10
84.2434
 20
92.5524
 11
84.1736
 21
92.3374
  0
LINE
  8
0
 10
84.1736
 20
92.3374
 11
84.0773
 21
92.1329
  0
LINE
  8
0
 10
84.0773
 20
92.1329
 11
83.9562
 21
91.942
  0
LINE
  8
0
 10
83.9562
 20
91.942
 11
83.8121
 21
91.7678
  0
LINE
  8
0
 10
83.8121
 20
91.7678
 11
83.6474
 21
91.6131
  0
LINE
  8
0
 10
83.6474
 20
91.6131
 11
83.4645
 21
91.4802
  0
LINE
  8
0
 10
83.4645
 20
91.4802
 11
83.2664
 21
91.3713
  0
LINE
  8
0
 10
83.2664
 20
91.3713
 11
83.0562
 21
91.2881
  0
LINE
  8
0
 10
83.0562
 20
91.2881
 11
82.8373
 21
91.2319
  0
LINE
  8
0
 10
82.8373
 20
91.2319
 11
82.613
 21
91.2036
  0
LINE
  8
0
 10
82.613
 20
91.2036
 11
82.387
 21
91.2036
  0
LINE
  8
0
 10
-82.613
 20
91.2036
 11
-82.8373
 21
91.2319
  0
LINE
  8
0
 10
-82.8373
 20
91.2319
 11
-83.0562
 21
91.2881
  0
LINE
  8
0
 10
-83.0562
 20
91.2881
 11
-83.2664
 21
91.3713
  0
LINE
  8
0
 10
-83.2664
 20
91.3713
 11
-83.4645
 21
91.4802
  0
LINE
  8
0
 10
-83.4645
 20
91.4802
 11
-83.6474
 21
91.6131
  0
LINE
  8
0
 10
-83.6474
 20
91.6131
 11
-83.8121
 21
91.7678
  0
LINE
  8
0
 10
-83.8121
 20
91.7678
 11
-83.9562
 21
91.942
  0
LINE
  8
0
 10
-83.9562
 20
91.942
 11
-84.0773
 21
92.1329
  0
LINE
  8
0
 10
-84.0773
 20
92.1329
 11
-84.1736
 21
92.3374
  0
LINE
  8
0
 10
-84.1736
 20
92.3374
 11
-84.2434
 21
92.5524
  0
LINE
  8
0
 10
-84.2434
 20
92.5524
 11
-84.2858
 21
92.7744
  0
LINE
  8
0
 10
-84.2858
 20
92.7744
 11
-84.3
 21
93
  0
LINE
  8
0
 10
-84.3
 20
93
 11
-84.2858
 21
93.2256
  0
LINE
  8
0
 10
-84.2858
 20
93.2256
 11
-84.2434
 21
93.4476
  0
LINE
  8
0
 10
-84.2434
 20
93.4476
 11
-84.1736
 21
93.6626
  0
LINE
  8
0
 10
-84.1736
 20
93.6626
 11
-84.0773
 21
93.8672
  0
LINE
  8
0
 10
-84.0773
 20
93.8672
 11
-83.9562
 21
94.058
  0
LINE
  8
0
 10
-83.9562
 20
94.058
 11
-83.8121
 21
94.2322
  0
LINE
  8
0
 10
-83.8121
 20
94.2322
 11
-83.6474
 21
94.3869
  0
LINE
  8
0
 10
-83.6474
 20
94.3869
 11
-83.4645
 21
94.5198
  0
LINE
  8
0
 10
-83.4645
 20
94.5198
 11
-83.2664
 21
94.6287
  0
LINE
  8
0
 10
-83.2664
 20
94.6287
 11
-83.0562
 21
94.7119
  0
LINE
  8
0
 10
-83.0562
 20
94.7119
 11
-82.8373
 21
94.7681
  0
LINE
  8
0
 10
-82.8373
 20
94.7681
 11
-82.613
 21
94.7964
  0
LINE
  8
0
 10
-82.613
 20
94.7964
 11
-82.387
 21
94.7964
  0
LINE
  8
0
 10
-82.387
 20
94.7964
 11
-82.1627
 21
94.7681
  0
LINE
  8
0
 10
-82.1627
 20
94.7681
 11
-81.9438
 21
94.7119
  0
LINE
  8
0
 10
-81.9438
 20
94.7119
 11
-81.7336
 21
94.6287
  0
LINE
  8
0
 10
-81.7336
 20
94.6287
 11
-81.5355
 21
94.5198
  0
LINE
  8
0
 10
-81.5355
 20
94.5198
 11
-81.3526
 21
94.3869
  0
LINE
  8
0
 10
-81.3526
 20
94.3869
 11
-81.1879
 21
94.2322
  0
LINE
  8
0
 10
-81.1879
 20
94.2322
 11
-81.0438
 21
94.058
  0
LINE
  8
0
 10
-81.0438
 20
94.058
 11
-80.9226
 21
93.8672
  0
LINE
  8
0
 10
-80.9226
 20
93.8672
 11
-80.8264
 21
93.6626
  0
LINE
  8
0
 10
-80.8264
 20
93.6626
 11
-80.7565
 21
93.4476
  0
LINE
  8
0
 10
-80.7565
 20
93.4476
 11
-80.7142
 21
93.2256
  0
LINE
  8
0
 10
-80.7142
 20
93.2256
 11
-80.7
 21
93
  0
LINE
  8
0
 10
-80.7
 20
93
 11
-80.7142
 21
92.7744
  0
LINE
  8
0
 10
-80.7142
 20
92.7744
 11
-80.7565
 21
92.5524
  0
LINE
  8
0
 10
-80.7565
 20
92.5524
 11
-80.8264
 21
92.3374
  0
LINE
  8
0
 10
-80.8264
 20
92.3374
 11
-80.9226
 21
92.1329
  0
LINE
  8
0
 10
-80.9226
 20
92.1329
 11
-81.0438
 21
91.942
  0
LINE
  8
0
 10
-81.0438
 20
91.942
 11
-81.1879
 21
91.7678
  0
LINE
  8
0
 10
-81.1879
 20
91.7678
 11
-81.3526
 21
91.6131
  0
LINE
  8
0
 10
-81.3526
 20
91.6131
 11
-81.5355
 21
91.4802
  0
LINE
  8
0
 10
-81.5355
 20
91.4802
 11
-81.7336
 21
91.3713
  0
LINE
  8
0
 10
-81.7336
 20
91.3713
 11
-81.9438
 21
91.2881
  0
LINE
  8
0
 10
-81.9438
 20
91.2881
 11
-82.1627
 21
91.2319
  0
LINE
  8
0
 10
-82.1627
 20
91.2319
 11
-82.387
 21
91.2036
  0
LINE
  8
0
 10
-82.387
 20
91.2036
 11
-82.613
 21
91.2036
  0
ENDSEC
  0
SECTION
  2
OBJECTS
  0
DICTIONARY
  0
ENDSEC
  0
EOF
