<?xml version="1.0" standalone="no"?>
<!DOCTYPE svg PUBLIC "-//W3C//DTD SVG 1.1//EN" "http://www.w3.org/Graphics/SVG/1.1/DTD/svg11.dtd">
<svg width="180mm" height="154mm" viewBox="-90 -239 180 154" xmlns="http://www.w3.org/2000/svg" version="1.1">
<title>OpenSCAD Model</title>
<path d="
M 85.9369,-193.589 L 86.5451,-193.745 L 87.1289,-193.976 L 87.6791,-194.278 L 88.1871,-194.647 L 88.6448,-195.077
 L 89.0451,-195.561 L 89.3815,-196.091 L 89.6489,-196.659 L 89.8429,-197.257 L 89.9606,-197.873 L 90,-198.5
 L 90,-233.5 L 89.9606,-234.127 L 89.8429,-234.743 L 89.6489,-235.341 L 89.3815,-235.909 L 89.0451,-236.439
 L 88.6448,-236.923 L 88.1871,-237.353 L 87.6791,-237.722 L 87.1289,-238.024 L 86.5451,-238.255 L 85.9369,-238.411
 L 85.3139,-238.49 L -85.3139,-238.49 L -85.9369,-238.411 L -86.5451,-238.255 L -87.1289,-238.024 L -87.6791,-237.722
 L -88.1871,-237.353 L -88.6448,-236.923 L -89.0451,-236.439 L -89.3815,-235.909 L -89.6489,-235.341 L -89.8429,-234.743
 L -89.9606,-234.127 L -90,-233.5 L -90,-198.5 L -89.9606,-197.873 L -89.8429,-197.257 L -89.6489,-196.659
 L -89.3815,-196.091 L -89.0451,-195.561 L -88.6448,-195.077 L -88.1871,-194.647 L -87.6791,-194.278 L -87.1289,-193.976
 L -86.5451,-193.745 L -85.9369,-193.589 L -85.3139,-193.51 L 85.3139,-193.51 z
M -85.0482,-194.009 L -85.6401,-194.084 L -86.2178,-194.232 L -86.7724,-194.452 L -87.2952,-194.739 L -87.7778,-195.09
 L -88.2126,-195.498 L -88.5928,-195.958 L -88.9125,-196.462 L -89.1664,-197.001 L -89.3508,-197.569 L -89.4625,-198.155
 L -89.5,-198.75 L -89.5,-233.25 L -89.4625,-233.845 L -89.3508,-234.431 L -89.1664,-234.999 L -88.9125,-235.538
 L -88.5928,-236.042 L -88.2126,-236.502 L -87.7778,-236.91 L -87.2952,-237.261 L -86.7724,-237.548 L -86.2178,-237.768
 L -85.6401,-237.916 L -85.0482,-237.991 L 85.0482,-237.991 L 85.6401,-237.916 L 86.2178,-237.768 L 86.7724,-237.548
 L 87.2952,-237.261 L 87.7778,-236.91 L 88.2126,-236.502 L 88.5928,-236.042 L 88.9125,-235.538 L 89.1664,-234.999
 L 89.3508,-234.431 L 89.4625,-233.845 L 89.5,-233.25 L 89.5,-198.75 L 89.4625,-198.155 L 89.3508,-197.569
 L 89.1664,-197.001 L 88.9125,-196.462 L 88.5928,-195.958 L 88.2126,-195.498 L 87.7778,-195.09 L 87.2952,-194.739
 L 86.7724,-194.452 L 86.2178,-194.232 L 85.6401,-194.084 L 85.0482,-194.009 z
M 85.9369,-139.589 L 86.5451,-139.745 L 87.1289,-139.976 L 87.6791,-140.278 L 88.1871,-140.647 L 88.6448,-141.077
 L 89.0451,-141.561 L 89.3815,-142.091 L 89.6489,-142.659 L 89.8429,-143.257 L 89.9606,-143.873 L 90,-144.5
 L 90,-179.5 L 89.9606,-180.127 L 89.8429,-180.743 L 89.6489,-181.341 L 89.3815,-181.909 L 89.0451,-182.439
 L 88.6448,-182.923 L 88.1871,-183.353 L 87.6791,-183.722 L 87.1289,-184.024 L 86.5451,-184.255 L 85.9369,-184.411
 L 85.3139,-184.49 L -85.3139,-184.49 L -85.9369,-184.411 L -86.5451,-184.255 L -87.1289,-184.024 L -87.6791,-183.722
 L -88.1871,-183.353 L -88.6448,-182.923 L -89.0451,-182.439 L -89.3815,-181.909 L -89.6489,-181.341 L -89.8429,-180.743
 L -89.9606,-180.127 L -90,-179.5 L -90,-144.5 L -89.9606,-143.873 L -89.8429,-143.257 L -89.6489,-142.659
 L -89.3815,-142.091 L -89.0451,-141.561 L -88.6448,-141.077 L -88.1871,-140.647 L -87.6791,-140.278 L -87.1289,-139.976
 L -86.5451,-139.745 L -85.9369,-139.589 L -85.3139,-139.51 L 85.3139,-139.51 z
M -84.993,-140.888 L -85.4751,-140.949 L -85.9457,-141.07 L -86.3975,-141.249 L -86.8234,-141.483 L -87.2165,-141.769
 L -87.5707,-142.101 L -87.8805,-142.476 L -88.1408,-142.886 L -88.3477,-143.326 L -88.4979,-143.788 L -88.589,-144.265
 L -88.6195,-144.75 L -88.6195,-179.25 L -88.589,-179.735 L -88.4979,-180.212 L -88.3477,-180.674 L -88.1408,-181.114
 L -87.8805,-181.524 L -87.5707,-181.899 L -87.2165,-182.231 L -86.8234,-182.517 L -86.3975,-182.751 L -85.9457,-182.93
 L -85.4751,-183.051 L -84.993,-183.112 L 84.993,-183.112 L 85.4751,-183.051 L 85.9457,-182.93 L 86.3975,-182.751
 L 86.8234,-182.517 L 87.2165,-182.231 L 87.5707,-181.899 L 87.8805,-181.524 L 88.1408,-181.114 L 88.3477,-180.674
 L 88.4979,-180.212 L 88.589,-179.735 L 88.6195,-179.25 L 88.6195,-144.75 L 88.589,-144.265 L 88.4979,-143.788
 L 88.3477,-143.326 L 88.1408,-142.886 L 87.8805,-142.476 L 87.5707,-142.101 L 87.2165,-141.769 L 86.8234,-141.483
 L 86.3975,-141.249 L 85.9457,-141.07 L 85.4751,-140.949 L 84.993,-140.888 z
M 85.9369,-85.5886 L 86.5451,-85.7447 L 87.1289,-85.9759 L 87.6791,-86.2784 L 88.1871,-86.6474 L 88.6448,-87.0773
 L 89.0451,-87.5611 L 89.3815,-88.0912 L 89.6489,-88.6594 L 89.8429,-89.2566 L 89.9606,-89.8733 L 90,-90.5
 L 90,-125.5 L 89.9606,-126.127 L 89.8429,-126.743 L 89.6489,-127.341 L 89.3815,-127.909 L 89.0451,-128.439
 L 88.6448,-128.923 L 88.1871,-129.353 L 87.6791,-129.722 L 87.1289,-130.024 L 86.5451,-130.255 L 85.9369,-130.411
 L 85.3139,-130.49 L -85.3139,-130.49 L -85.9369,-130.411 L -86.5451,-130.255 L -87.1289,-130.024 L -87.6791,-129.722
 L -88.1871,-129.353 L -88.6448,-128.923 L -89.0451,-128.439 L -89.3815,-127.909 L -89.6489,-127.341 L -89.8429,-126.743
 L -89.9606,-126.127 L -90,-125.5 L -90,-90.5 L -89.9606,-89.8733 L -89.8429,-89.2566 L -89.6489,-88.6594
 L -89.3815,-88.0912 L -89.0451,-87.5611 L -88.6448,-87.0773 L -88.1871,-86.6474 L -87.6791,-86.2784 L -87.1289,-85.9759
 L -86.5451,-85.7447 L -85.9369,-85.5886 L -85.3139,-85.5099 L 85.3139,-85.5099 z
M -82.613,-121.204 L -82.8373,-121.232 L -83.0562,-121.288 L -83.2664,-121.371 L -83.4645,-121.48 L -83.6474,-121.613
 L -83.8121,-121.768 L -83.9562,-121.942 L -84.0773,-122.133 L -84.1736,-122.337 L -84.2434,-122.552 L -84.2858,-122.774
 L -84.3,-123 L -84.2858,-123.226 L -84.2434,-123.448 L -84.1736,-123.663 L -84.0773,-123.867 L -83.9562,-124.058
 L -83.8121,-124.232 L -83.6474,-124.387 L -83.4645,-124.52 L -83.2664,-124.629 L -83.0562,-124.712 L -82.8373,-124.768
 L -82.613,-124.796 L -82.387,-124.796 L -82.1627,-124.768 L -81.9438,-124.712 L -81.7336,-124.629 L -81.5355,-124.52
 L -81.3526,-124.387 L -81.1879,-124.232 L -81.0438,-124.058 L -80.9226,-123.867 L -80.8264,-123.663 L -80.7565,-123.448
 L -80.7142,-123.226 L -80.7,-123 L -80.7142,-122.774 L -80.7565,-122.552 L -80.8264,-122.337 L -80.9226,-122.133
 L -81.0438,-121.942 L -81.1879,-121.768 L -81.3526,-121.613 L -81.5355,-121.48 L -81.7336,-121.371 L -81.9438,-121.288
 L -82.1627,-121.232 L -82.387,-121.204 z
M 82.387,-121.204 L 82.1627,-121.232 L 81.9438,-121.288 L 81.7336,-121.371 L 81.5355,-121.48 L 81.3526,-121.613
 L 81.1879,-121.768 L 81.0438,-121.942 L 80.9226,-122.133 L 80.8264,-122.337 L 80.7565,-122.552 L 80.7142,-122.774
 L 80.7,-123 L 80.7142,-123.226 L 80.7565,-123.448 L 80.8264,-123.663 L 80.9226,-123.867 L 81.0438,-124.058
 L 81.1879,-124.232 L 81.3526,-124.387 L 81.5355,-124.52 L 81.7336,-124.629 L 81.9438,-124.712 L 82.1627,-124.768
 L 82.387,-124.796 L 82.613,-124.796 L 82.8373,-124.768 L 83.0562,-124.712 L 83.2664,-124.629 L 83.4645,-124.52
 L 83.6474,-124.387 L 83.8121,-124.232 L 83.9562,-124.058 L 84.0773,-123.867 L 84.1736,-123.663 L 84.2434,-123.448
 L 84.2858,-123.226 L 84.3,-123 L 84.2858,-122.774 L 84.2434,-122.552 L 84.1736,-122.337 L 84.0773,-122.133
 L 83.9562,-121.942 L 83.8121,-121.768 L 83.6474,-121.613 L 83.4645,-121.48 L 83.2664,-121.371 L 83.0562,-121.288
 L 82.8373,-121.232 L 82.613,-121.204 z
M 82.387,-91.2036 L 82.1627,-91.2319 L 81.9438,-91.2881 L 81.7336,-91.3713 L 81.5355,-91.4802 L 81.3526,-91.6131
 L 81.1879,-91.7678 L 81.0438,-91.942 L 80.9226,-92.1329 L 80.8264,-92.3374 L 80.7565,-92.5524 L 80.7142,-92.7744
 L 80.7,-93 L 80.7142,-93.2256 L 80.7565,-93.4476 L 80.8264,-93.6626 L 80.9226,-93.8672 L 81.0438,-94.058
 L 81.1879,-94.2322 L 81.3526,-94.3869 L 81.5355,-94.5198 L 81.7336,-94.6287 L 81.9438,-94.7119 L 82.1627,-94.7681
 L 82.387,-94.7964 L 82.613,-94.7964 L 82.8373,-94.7681 L 83.0562,-94.7119 L 83.2664,-94.6287 L 83.4645,-94.5198
 L 83.6474,-94.3869 L 83.8121,-94.2322 L 83.9562,-94.058 L 84.0773,-93.8672 L 84.1736,-93.6626 L 84.2434,-93.4476
 L 84.2858,-93.2256 L 84.3,-93 L 84.2858,-92.7744 L 84.2434,-92.5524 L 84.1736,-92.3374 L 84.0773,-92.1329
 L 83.9562,-91.942 L 83.8121,-91.7678 L 83.6474,-91.6131 L 83.4645,-91.4802 L 83.2664,-91.3713 L 83.0562,-91.2881
 L 82.8373,-91.2319 L 82.613,-91.2036 z
M -82.613,-91.2036 L -82.8373,-91.2319 L -83.0562,-91.2881 L -83.2664,-91.3713 L -83.4645,-91.4802 L -83.6474,-91.6131
 L -83.8121,-91.7678 L -83.9562,-91.942 L -84.0773,-92.1329 L -84.1736,-92.3374 L -84.2434,-92.5524 L -84.2858,-92.7744
 L -84.3,-93 L -84.2858,-93.2256 L -84.2434,-93.4476 L -84.1736,-93.6626 L -84.0773,-93.8672 L -83.9562,-94.058
 L -83.8121,-94.2322 L -83.6474,-94.3869 L -83.4645,-94.5198 L -83.2664,-94.6287 L -83.0562,-94.7119 L -82.8373,-94.7681
 L -82.613,-94.7964 L -82.387,-94.7964 L -82.1627,-94.7681 L -81.9438,-94.7119 L -81.7336,-94.6287 L -81.5355,-94.5198
 L -81.3526,-94.3869 L -81.1879,-94.2322 L -81.0438,-94.058 L -80.9226,-93.8672 L -80.8264,-93.6626 L -80.7565,-93.4476
 L -80.7142,-93.2256 L -80.7,-93 L -80.7142,-92.7744 L -80.7565,-92.5524 L -80.8264,-92.3374 L -80.9226,-92.1329
 L -81.0438,-91.942 L -81.1879,-91.7678 L -81.3526,-91.6131 L -81.5355,-91.4802 L -81.7336,-91.3713 L -81.9438,-91.2881
 L -82.1627,-91.2319 L -82.387,-91.2036 z
" stroke="black" fill="lightgray" stroke-width="0.5"/>
</svg>
