<?xml version="1.0" standalone="no"?>
<!DOCTYPE svg PUBLIC "-//W3C//DTD SVG 1.1//EN" "http://www.w3.org/Graphics/SVG/1.1/DTD/svg11.dtd">
<svg width="30mm" height="40mm" viewBox="-15 -56 30 40" xmlns="http://www.w3.org/2000/svg" version="1.1">
<title>OpenSCAD Model</title>
<path d="
M 10.9369,-40.5886 L 11.5451,-40.7447 L 12.1289,-40.9759 L 12.6791,-41.2784 L 13.1871,-41.6474 L 13.6448,-42.0773
 L 14.0451,-42.5611 L 14.3815,-43.0912 L 14.6489,-43.6594 L 14.8429,-44.2566 L 14.9606,-44.8733 L 15,-45.5
 L 15,-50.5 L 14.9606,-51.1267 L 14.8429,-51.7434 L 14.6489,-52.3406 L 14.3815,-52.9088 L 14.0451,-53.4389
 L 13.6448,-53.9227 L 13.1871,-54.3526 L 12.6791,-54.7216 L 12.1289,-55.0241 L 11.5451,-55.2553 L 10.9369,-55.4114
 L 10.3139,-55.4901 L -10.3139,-55.4901 L -10.9369,-55.4114 L -11.5451,-55.2553 L -12.1289,-55.0241 L -12.6791,-54.7216
 L -13.1871,-54.3526 L -13.6448,-53.9227 L -14.0451,-53.4389 L -14.3815,-52.9088 L -14.6489,-52.3406 L -14.8429,-51.7434
 L -14.9606,-51.1267 L -15,-50.5 L -15,-45.5 L -14.9606,-44.8733 L -14.8429,-44.2566 L -14.6489,-43.6594
 L -14.3815,-43.0912 L -14.0451,-42.5611 L -13.6448,-42.0773 L -13.1871,-41.6474 L -12.6791,-41.2784 L -12.1289,-40.9759
 L -11.5451,-40.7447 L -10.9369,-40.5886 L -10.3139,-40.5099 L 10.3139,-40.5099 z
M -9.99297,-41.8882 L -10.4751,-41.9491 L -10.9457,-42.0699 L -11.3975,-42.2488 L -11.8234,-42.4829 L -12.2165,-42.7685
 L -12.5707,-43.1012 L -12.8805,-43.4756 L -13.1408,-43.8859 L -13.3477,-44.3256 L -13.4979,-44.7877 L -13.589,-45.265
 L -13.6195,-45.75 L -13.6195,-50.25 L -13.589,-50.735 L -13.4979,-51.2123 L -13.3477,-51.6744 L -13.1408,-52.1141
 L -12.8805,-52.5244 L -12.5707,-52.8988 L -12.2165,-53.2315 L -11.8234,-53.5171 L -11.3975,-53.7512 L -10.9457,-53.9301
 L -10.4751,-54.0509 L -9.99297,-54.1118 L 9.99297,-54.1118 L 10.4751,-54.0509 L 10.9457,-53.9301 L 11.3975,-53.7512
 L 11.8234,-53.5171 L 12.2165,-53.2315 L 12.5707,-52.8988 L 12.8805,-52.5244 L 13.1408,-52.1141 L 13.3477,-51.6744
 L 13.4979,-51.2123 L 13.589,-50.735 L 13.6195,-50.25 L 13.6195,-45.75 L 13.589,-45.265 L 13.4979,-44.7877
 L 13.3477,-44.3256 L 13.1408,-43.8859 L 12.8805,-43.4756 L 12.5707,-43.1012 L 12.2165,-42.7685 L 11.8234,-42.4829
 L 11.3975,-42.2488 L 10.9457,-42.0699 L 10.4751,-41.9491 L 9.99297,-41.8882 z
M 10.9369,-16.5886 L 11.5451,-16.7447 L 12.1289,-16.9759 L 12.6791,-17.2784 L 13.1871,-17.6474 L 13.6448,-18.0773
 L 14.0451,-18.5611 L 14.3815,-19.0912 L 14.6489,-19.6594 L 14.8429,-20.2566 L 14.9606,-20.8733 L 15,-21.5
 L 15,-26.5 L 14.9606,-27.1267 L 14.8429,-27.7434 L 14.6489,-28.3406 L 14.3815,-28.9088 L 14.0451,-29.4389
 L 13.6448,-29.9227 L 13.1871,-30.3526 L 12.6791,-30.7216 L 12.1289,-31.0241 L 11.5451,-31.2553 L 10.9369,-31.4114
 L 10.3139,-31.4901 L -10.3139,-31.4901 L -10.9369,-31.4114 L -11.5451,-31.2553 L -12.1289,-31.0241 L -12.6791,-30.7216
 L -13.1871,-30.3526 L -13.6448,-29.9227 L -14.0451,-29.4389 L -14.3815,-28.9088 L -14.6489,-28.3406 L -14.8429,-27.7434
 L -14.9606,-27.1267 L -15,-26.5 L -15,-21.5 L -14.9606,-20.8733 L -14.8429,-20.2566 L -14.6489,-19.6594
 L -14.3815,-19.0912 L -14.0451,-18.5611 L -13.6448,-18.0773 L -13.1871,-17.6474 L -12.6791,-17.2784 L -12.1289,-16.9759
 L -11.5451,-16.7447 L -10.9369,-16.5886 L -10.3139,-16.5099 L 10.3139,-16.5099 z
M -7.61302,-22.2036 L -7.83728,-22.2319 L -8.05623,-22.2881 L -8.26639,-22.3713 L -8.46448,-22.4802 L -8.64735,-22.6131
 L -8.81213,-22.7678 L -8.95622,-22.942 L -9.07735,-23.1329 L -9.17358,-23.3374 L -9.24344,-23.5524 L -9.2858,-23.7744
 L -9.29999,-24 L -9.2858,-24.2256 L -9.24344,-24.4476 L -9.17358,-24.6626 L -9.07735,-24.8671 L -8.95622,-25.058
 L -8.81213,-25.2322 L -8.64735,-25.3869 L -8.46448,-25.5198 L -8.26639,-25.6287 L -8.05623,-25.7119 L -7.83728,-25.7681
 L -7.61302,-25.7964 L -7.38696,-25.7964 L -7.1627,-25.7681 L -6.94376,-25.7119 L -6.7336,-25.6287 L -6.53551,-25.5198
 L -6.35263,-25.3869 L -6.18785,-25.2322 L -6.04376,-25.058 L -5.92264,-24.8671 L -5.8264,-24.6626 L -5.75655,-24.4476
 L -5.71419,-24.2256 L -5.7,-24 L -5.71419,-23.7744 L -5.75655,-23.5524 L -5.8264,-23.3374 L -5.92264,-23.1329
 L -6.04376,-22.942 L -6.18785,-22.7678 L -6.35263,-22.6131 L -6.53551,-22.4802 L -6.7336,-22.3713 L -6.94376,-22.2881
 L -7.1627,-22.2319 L -7.38696,-22.2036 z
M 7.38696,-22.2036 L 7.1627,-22.2319 L 6.94376,-22.2881 L 6.7336,-22.3713 L 6.53551,-22.4802 L 6.35263,-22.6131
 L 6.18785,-22.7678 L 6.04376,-22.942 L 5.92264,-23.1329 L 5.8264,-23.3374 L 5.75655,-23.5524 L 5.71419,-23.7744
 L 5.7,-24 L 5.71419,-24.2256 L 5.75655,-24.4476 L 5.8264,-24.6626 L 5.92264,-24.8671 L 6.04376,-25.058
 L 6.18785,-25.2322 L 6.35263,-25.3869 L 6.53551,-25.5198 L 6.7336,-25.6287 L 6.94376,-25.7119 L 7.1627,-25.7681
 L 7.38696,-25.7964 L 7.61302,-25.7964 L 7.83728,-25.7681 L 8.05623,-25.7119 L 8.26639,-25.6287 L 8.46448,-25.5198
 L 8.64735,-25.3869 L 8.81213,-25.2322 L 8.95622,-25.058 L 9.07735,-24.8671 L 9.17358,-24.6626 L 9.24344,-24.4476
 L 9.2858,-24.2256 L 9.29999,-24 L 9.2858,-23.7744 L 9.24344,-23.5524 L 9.17358,-23.3374 L 9.07735,-23.1329
 L 8.95622,-22.942 L 8.81213,-22.7678 L 8.64735,-22.6131 L 8.46448,-22.4802 L 8.26639,-22.3713 L 8.05623,-22.2881
 L 7.83728,-22.2319 L 7.61302,-22.2036 z
" stroke="black" fill="lightgray" stroke-width="0.5"/>
</svg>
