  0
SECTION
  2
BLOCKS
  0
ENDSEC
  0
SECTION
  2
ENTITIES
  0
LINE
  8
0
 10
10.9369
 20
1101.09
 11
11.5451
 21
1101.24
  0
LINE
  8
0
 10
11.5451
 20
1101.24
 11
12.1289
 21
1101.48
  0
LINE
  8
0
 10
12.1289
 20
1101.48
 11
12.6791
 21
1101.78
  0
LINE
  8
0
 10
12.6791
 20
1101.78
 11
13.1871
 21
1102.15
  0
LINE
  8
0
 10
13.1871
 20
1102.15
 11
13.6448
 21
1102.58
  0
LINE
  8
0
 10
13.6448
 20
1102.58
 11
14.0451
 21
1103.06
  0
LINE
  8
0
 10
14.0451
 20
1103.06
 11
14.3815
 21
1103.59
  0
LINE
  8
0
 10
14.3815
 20
1103.59
 11
14.6489
 21
1104.16
  0
LINE
  8
0
 10
14.6489
 20
1104.16
 11
14.8429
 21
1104.76
  0
LINE
  8
0
 10
14.8429
 20
1104.76
 11
14.9606
 21
1105.37
  0
LINE
  8
0
 10
14.9606
 20
1105.37
 11
15
 21
1106
  0
LINE
  8
0
 10
15
 20
1106
 11
15
 21
1216
  0
LINE
  8
0
 10
15
 20
1216
 11
14.9606
 21
1216.63
  0
LINE
  8
0
 10
14.9606
 20
1216.63
 11
14.8429
 21
1217.24
  0
LINE
  8
0
 10
14.8429
 20
1217.24
 11
14.6489
 21
1217.84
  0
LINE
  8
0
 10
14.6489
 20
1217.84
 11
14.3815
 21
1218.41
  0
LINE
  8
0
 10
14.3815
 20
1218.41
 11
14.0451
 21
1218.94
  0
LINE
  8
0
 10
14.0451
 20
1218.94
 11
13.6448
 21
1219.42
  0
LINE
  8
0
 10
13.6448
 20
1219.42
 11
13.1871
 21
1219.85
  0
LINE
  8
0
 10
13.1871
 20
1219.85
 11
12.6791
 21
1220.22
  0
LINE
  8
0
 10
12.6791
 20
1220.22
 11
12.1289
 21
1220.52
  0
LINE
  8
0
 10
12.1289
 20
1220.52
 11
11.5451
 21
1220.76
  0
LINE
  8
0
 10
11.5451
 20
1220.76
 11
10.9369
 21
1220.91
  0
LINE
  8
0
 10
10.9369
 20
1220.91
 11
10.3139
 21
1220.99
  0
LINE
  8
0
 10
10.3139
 20
1220.99
 11
-10.3139
 21
1220.99
  0
LINE
  8
0
 10
-10.3139
 20
1220.99
 11
-10.9369
 21
1220.91
  0
LINE
  8
0
 10
-10.9369
 20
1220.91
 11
-11.5451
 21
1220.76
  0
LINE
  8
0
 10
-11.5451
 20
1220.76
 11
-12.1289
 21
1220.52
  0
LINE
  8
0
 10
-12.1289
 20
1220.52
 11
-12.6791
 21
1220.22
  0
LINE
  8
0
 10
-12.6791
 20
1220.22
 11
-13.1871
 21
1219.85
  0
LINE
  8
0
 10
-13.1871
 20
1219.85
 11
-13.6448
 21
1219.42
  0
LINE
  8
0
 10
-13.6448
 20
1219.42
 11
-14.0451
 21
1218.94
  0
LINE
  8
0
 10
-14.0451
 20
1218.94
 11
-14.3815
 21
1218.41
  0
LINE
  8
0
 10
-14.3815
 20
1218.41
 11
-14.6489
 21
1217.84
  0
LINE
  8
0
 10
-14.6489
 20
1217.84
 11
-14.8429
 21
1217.24
  0
LINE
  8
0
 10
-14.8429
 20
1217.24
 11
-14.9606
 21
1216.63
  0
LINE
  8
0
 10
-14.9606
 20
1216.63
 11
-15
 21
1216
  0
LINE
  8
0
 10
-15
 20
1216
 11
-15
 21
1106
  0
LINE
  8
0
 10
-15
 20
1106
 11
-14.9606
 21
1105.37
  0
LINE
  8
0
 10
-14.9606
 20
1105.37
 11
-14.8429
 21
1104.76
  0
LINE
  8
0
 10
-14.8429
 20
1104.76
 11
-14.6489
 21
1104.16
  0
LINE
  8
0
 10
-14.6489
 20
1104.16
 11
-14.3815
 21
1103.59
  0
LINE
  8
0
 10
-14.3815
 20
1103.59
 11
-14.0451
 21
1103.06
  0
LINE
  8
0
 10
-14.0451
 20
1103.06
 11
-13.6448
 21
1102.58
  0
LINE
  8
0
 10
-13.6448
 20
1102.58
 11
-13.1871
 21
1102.15
  0
LINE
  8
0
 10
-13.1871
 20
1102.15
 11
-12.6791
 21
1101.78
  0
LINE
  8
0
 10
-12.6791
 20
1101.78
 11
-12.1289
 21
1101.48
  0
LINE
  8
0
 10
-12.1289
 20
1101.48
 11
-11.5451
 21
1101.24
  0
LINE
  8
0
 10
-11.5451
 20
1101.24
 11
-10.9369
 21
1101.09
  0
LINE
  8
0
 10
-10.9369
 20
1101.09
 11
-10.3139
 21
1101.01
  0
LINE
  8
0
 10
-10.3139
 20
1101.01
 11
10.3139
 21
1101.01
  0
LINE
  8
0
 10
10.3139
 20
1101.01
 11
10.9369
 21
1101.09
  0
LINE
  8
0
 10
-9.75116
 20
1102.51
 11
-10.2495
 21
1102.57
  0
LINE
  8
0
 10
-10.2495
 20
1102.57
 11
-10.7361
 21
1102.7
  0
LINE
  8
0
 10
-10.7361
 20
1102.7
 11
-11.2031
 21
1102.88
  0
LINE
  8
0
 10
-11.2031
 20
1102.88
 11
-11.6433
 21
1103.12
  0
LINE
  8
0
 10
-11.6433
 20
1103.12
 11
-12.0497
 21
1103.42
  0
LINE
  8
0
 10
-12.0497
 20
1103.42
 11
-12.4159
 21
1103.76
  0
LINE
  8
0
 10
-12.4159
 20
1103.76
 11
-12.7361
 21
1104.15
  0
LINE
  8
0
 10
-12.7361
 20
1104.15
 11
-13.0052
 21
1104.57
  0
LINE
  8
0
 10
-13.0052
 20
1104.57
 11
-13.2191
 21
1105.03
  0
LINE
  8
0
 10
-13.2191
 20
1105.03
 11
-13.3743
 21
1105.51
  0
LINE
  8
0
 10
-13.3743
 20
1105.51
 11
-13.4684
 21
1106
  0
LINE
  8
0
 10
-13.4684
 20
1106
 11
-13.5
 21
1106.5
  0
LINE
  8
0
 10
-13.5
 20
1106.5
 11
-13.5
 21
1215.5
  0
LINE
  8
0
 10
-13.5
 20
1215.5
 11
-13.4684
 21
1216
  0
LINE
  8
0
 10
-13.4684
 20
1216
 11
-13.3743
 21
1216.49
  0
LINE
  8
0
 10
-13.3743
 20
1216.49
 11
-13.2191
 21
1216.97
  0
LINE
  8
0
 10
-13.2191
 20
1216.97
 11
-13.0052
 21
1217.43
  0
LINE
  8
0
 10
-13.0052
 20
1217.43
 11
-12.7361
 21
1217.85
  0
LINE
  8
0
 10
-12.7361
 20
1217.85
 11
-12.4159
 21
1218.24
  0
LINE
  8
0
 10
-12.4159
 20
1218.24
 11
-12.0497
 21
1218.58
  0
LINE
  8
0
 10
-12.0497
 20
1218.58
 11
-11.6433
 21
1218.88
  0
LINE
  8
0
 10
-11.6433
 20
1218.88
 11
-11.2031
 21
1219.12
  0
LINE
  8
0
 10
-11.2031
 20
1219.12
 11
-10.7361
 21
1219.3
  0
LINE
  8
0
 10
-10.7361
 20
1219.3
 11
-10.2495
 21
1219.43
  0
LINE
  8
0
 10
-10.2495
 20
1219.43
 11
-9.75116
 21
1219.49
  0
LINE
  8
0
 10
-9.75116
 20
1219.49
 11
9.75116
 21
1219.49
  0
LINE
  8
0
 10
9.75116
 20
1219.49
 11
10.2495
 21
1219.43
  0
LINE
  8
0
 10
10.2495
 20
1219.43
 11
10.7361
 21
1219.3
  0
LINE
  8
0
 10
10.7361
 20
1219.3
 11
11.2031
 21
1219.12
  0
LINE
  8
0
 10
11.2031
 20
1219.12
 11
11.6433
 21
1218.88
  0
LINE
  8
0
 10
11.6433
 20
1218.88
 11
12.0497
 21
1218.58
  0
LINE
  8
0
 10
12.0497
 20
1218.58
 11
12.4159
 21
1218.24
  0
LINE
  8
0
 10
12.4159
 20
1218.24
 11
12.7361
 21
1217.85
  0
LINE
  8
0
 10
12.7361
 20
1217.85
 11
13.0052
 21
1217.43
  0
LINE
  8
0
 10
13.0052
 20
1217.43
 11
13.2191
 21
1216.97
  0
LINE
  8
0
 10
13.2191
 20
1216.97
 11
13.3743
 21
1216.49
  0
LINE
  8
0
 10
13.3743
 20
1216.49
 11
13.4684
 21
1216
  0
LINE
  8
0
 10
13.4684
 20
1216
 11
13.5
 21
1215.5
  0
LINE
  8
0
 10
13.5
 20
1215.5
 11
13.5
 21
1106.5
  0
LINE
  8
0
 10
13.5
 20
1106.5
 11
13.4684
 21
1106
  0
LINE
  8
0
 10
13.4684
 20
1106
 11
13.3743
 21
1105.51
  0
LINE
  8
0
 10
13.3743
 20
1105.51
 11
13.2191
 21
1105.03
  0
LINE
  8
0
 10
13.2191
 20
1105.03
 11
13.0052
 21
1104.57
  0
LINE
  8
0
 10
13.0052
 20
1104.57
 11
12.7361
 21
1104.15
  0
LINE
  8
0
 10
12.7361
 20
1104.15
 11
12.4159
 21
1103.76
  0
LINE
  8
0
 10
12.4159
 20
1103.76
 11
12.0497
 21
1103.42
  0
LINE
  8
0
 10
12.0497
 20
1103.42
 11
11.6433
 21
1103.12
  0
LINE
  8
0
 10
11.6433
 20
1103.12
 11
11.2031
 21
1102.88
  0
LINE
  8
0
 10
11.2031
 20
1102.88
 11
10.7361
 21
1102.7
  0
LINE
  8
0
 10
10.7361
 20
1102.7
 11
10.2495
 21
1102.57
  0
LINE
  8
0
 10
10.2495
 20
1102.57
 11
9.75116
 21
1102.51
  0
LINE
  8
0
 10
9.75116
 20
1102.51
 11
-9.75116
 21
1102.51
  0
LINE
  8
0
 10
10.9369
 20
972.089
 11
11.5451
 21
972.245
  0
LINE
  8
0
 10
11.5451
 20
972.245
 11
12.1289
 21
972.476
  0
LINE
  8
0
 10
12.1289
 20
972.476
 11
12.6791
 21
972.778
  0
LINE
  8
0
 10
12.6791
 20
972.778
 11
13.1871
 21
973.147
  0
LINE
  8
0
 10
13.1871
 20
973.147
 11
13.6448
 21
973.577
  0
LINE
  8
0
 10
13.6448
 20
973.577
 11
14.0451
 21
974.061
  0
LINE
  8
0
 10
14.0451
 20
974.061
 11
14.3815
 21
974.591
  0
LINE
  8
0
 10
14.3815
 20
974.591
 11
14.6489
 21
975.159
  0
LINE
  8
0
 10
14.6489
 20
975.159
 11
14.8429
 21
975.757
  0
LINE
  8
0
 10
14.8429
 20
975.757
 11
14.9606
 21
976.373
  0
LINE
  8
0
 10
14.9606
 20
976.373
 11
15
 21
977
  0
LINE
  8
0
 10
15
 20
977
 11
15
 21
1087
  0
LINE
  8
0
 10
15
 20
1087
 11
14.9606
 21
1087.63
  0
LINE
  8
0
 10
14.9606
 20
1087.63
 11
14.8429
 21
1088.24
  0
LINE
  8
0
 10
14.8429
 20
1088.24
 11
14.6489
 21
1088.84
  0
LINE
  8
0
 10
14.6489
 20
1088.84
 11
14.3815
 21
1089.41
  0
LINE
  8
0
 10
14.3815
 20
1089.41
 11
14.0451
 21
1089.94
  0
LINE
  8
0
 10
14.0451
 20
1089.94
 11
13.6448
 21
1090.42
  0
LINE
  8
0
 10
13.6448
 20
1090.42
 11
13.1871
 21
1090.85
  0
LINE
  8
0
 10
13.1871
 20
1090.85
 11
12.6791
 21
1091.22
  0
LINE
  8
0
 10
12.6791
 20
1091.22
 11
12.1289
 21
1091.52
  0
LINE
  8
0
 10
12.1289
 20
1091.52
 11
11.5451
 21
1091.76
  0
LINE
  8
0
 10
11.5451
 20
1091.76
 11
10.9369
 21
1091.91
  0
LINE
  8
0
 10
10.9369
 20
1091.91
 11
10.3139
 21
1091.99
  0
LINE
  8
0
 10
10.3139
 20
1091.99
 11
-10.3139
 21
1091.99
  0
LINE
  8
0
 10
-10.3139
 20
1091.99
 11
-10.9369
 21
1091.91
  0
LINE
  8
0
 10
-10.9369
 20
1091.91
 11
-11.5451
 21
1091.76
  0
LINE
  8
0
 10
-11.5451
 20
1091.76
 11
-12.1289
 21
1091.52
  0
LINE
  8
0
 10
-12.1289
 20
1091.52
 11
-12.6791
 21
1091.22
  0
LINE
  8
0
 10
-12.6791
 20
1091.22
 11
-13.1871
 21
1090.85
  0
LINE
  8
0
 10
-13.1871
 20
1090.85
 11
-13.6448
 21
1090.42
  0
LINE
  8
0
 10
-13.6448
 20
1090.42
 11
-14.0451
 21
1089.94
  0
LINE
  8
0
 10
-14.0451
 20
1089.94
 11
-14.3815
 21
1089.41
  0
LINE
  8
0
 10
-14.3815
 20
1089.41
 11
-14.6489
 21
1088.84
  0
LINE
  8
0
 10
-14.6489
 20
1088.84
 11
-14.8429
 21
1088.24
  0
LINE
  8
0
 10
-14.8429
 20
1088.24
 11
-14.9606
 21
1087.63
  0
LINE
  8
0
 10
-14.9606
 20
1087.63
 11
-15
 21
1087
  0
LINE
  8
0
 10
-15
 20
1087
 11
-15
 21
977
  0
LINE
  8
0
 10
-15
 20
977
 11
-14.9606
 21
976.373
  0
LINE
  8
0
 10
-14.9606
 20
976.373
 11
-14.8429
 21
975.757
  0
LINE
  8
0
 10
-14.8429
 20
975.757
 11
-14.6489
 21
975.159
  0
LINE
  8
0
 10
-14.6489
 20
975.159
 11
-14.3815
 21
974.591
  0
LINE
  8
0
 10
-14.3815
 20
974.591
 11
-14.0451
 21
974.061
  0
LINE
  8
0
 10
-14.0451
 20
974.061
 11
-13.6448
 21
973.577
  0
LINE
  8
0
 10
-13.6448
 20
973.577
 11
-13.1871
 21
973.147
  0
LINE
  8
0
 10
-13.1871
 20
973.147
 11
-12.6791
 21
972.778
  0
LINE
  8
0
 10
-12.6791
 20
972.778
 11
-12.1289
 21
972.476
  0
LINE
  8
0
 10
-12.1289
 20
972.476
 11
-11.5451
 21
972.245
  0
LINE
  8
0
 10
-11.5451
 20
972.245
 11
-10.9369
 21
972.089
  0
LINE
  8
0
 10
-10.9369
 20
972.089
 11
-10.3139
 21
972.01
  0
LINE
  8
0
 10
-10.3139
 20
972.01
 11
10.3139
 21
972.01
  0
LINE
  8
0
 10
10.3139
 20
972.01
 11
10.9369
 21
972.089
  0
LINE
  8
0
 10
-9.75116
 20
973.508
 11
-10.2495
 21
973.571
  0
LINE
  8
0
 10
-10.2495
 20
973.571
 11
-10.7361
 21
973.696
  0
LINE
  8
0
 10
-10.7361
 20
973.696
 11
-11.2031
 21
973.881
  0
LINE
  8
0
 10
-11.2031
 20
973.881
 11
-11.6433
 21
974.123
  0
LINE
  8
0
 10
-11.6433
 20
974.123
 11
-12.0497
 21
974.418
  0
LINE
  8
0
 10
-12.0497
 20
974.418
 11
-12.4159
 21
974.762
  0
LINE
  8
0
 10
-12.4159
 20
974.762
 11
-12.7361
 21
975.149
  0
LINE
  8
0
 10
-12.7361
 20
975.149
 11
-13.0052
 21
975.573
  0
LINE
  8
0
 10
-13.0052
 20
975.573
 11
-13.2191
 21
976.028
  0
LINE
  8
0
 10
-13.2191
 20
976.028
 11
-13.3743
 21
976.505
  0
LINE
  8
0
 10
-13.3743
 20
976.505
 11
-13.4684
 21
976.999
  0
LINE
  8
0
 10
-13.4684
 20
976.999
 11
-13.5
 21
977.5
  0
LINE
  8
0
 10
-13.5
 20
977.5
 11
-13.5
 21
1086.5
  0
LINE
  8
0
 10
-13.5
 20
1086.5
 11
-13.4684
 21
1087
  0
LINE
  8
0
 10
-13.4684
 20
1087
 11
-13.3743
 21
1087.49
  0
LINE
  8
0
 10
-13.3743
 20
1087.49
 11
-13.2191
 21
1087.97
  0
LINE
  8
0
 10
-13.2191
 20
1087.97
 11
-13.0052
 21
1088.43
  0
LINE
  8
0
 10
-13.0052
 20
1088.43
 11
-12.7361
 21
1088.85
  0
LINE
  8
0
 10
-12.7361
 20
1088.85
 11
-12.4159
 21
1089.24
  0
LINE
  8
0
 10
-12.4159
 20
1089.24
 11
-12.0497
 21
1089.58
  0
LINE
  8
0
 10
-12.0497
 20
1089.58
 11
-11.6433
 21
1089.88
  0
LINE
  8
0
 10
-11.6433
 20
1089.88
 11
-11.2031
 21
1090.12
  0
LINE
  8
0
 10
-11.2031
 20
1090.12
 11
-10.7361
 21
1090.3
  0
LINE
  8
0
 10
-10.7361
 20
1090.3
 11
-10.2495
 21
1090.43
  0
LINE
  8
0
 10
-10.2495
 20
1090.43
 11
-9.75116
 21
1090.49
  0
LINE
  8
0
 10
-9.75116
 20
1090.49
 11
9.75116
 21
1090.49
  0
LINE
  8
0
 10
9.75116
 20
1090.49
 11
10.2495
 21
1090.43
  0
LINE
  8
0
 10
10.2495
 20
1090.43
 11
10.7361
 21
1090.3
  0
LINE
  8
0
 10
10.7361
 20
1090.3
 11
11.2031
 21
1090.12
  0
LINE
  8
0
 10
11.2031
 20
1090.12
 11
11.6433
 21
1089.88
  0
LINE
  8
0
 10
11.6433
 20
1089.88
 11
12.0497
 21
1089.58
  0
LINE
  8
0
 10
12.0497
 20
1089.58
 11
12.4159
 21
1089.24
  0
LINE
  8
0
 10
12.4159
 20
1089.24
 11
12.7361
 21
1088.85
  0
LINE
  8
0
 10
12.7361
 20
1088.85
 11
13.0052
 21
1088.43
  0
LINE
  8
0
 10
13.0052
 20
1088.43
 11
13.2191
 21
1087.97
  0
LINE
  8
0
 10
13.2191
 20
1087.97
 11
13.3743
 21
1087.49
  0
LINE
  8
0
 10
13.3743
 20
1087.49
 11
13.4684
 21
1087
  0
LINE
  8
0
 10
13.4684
 20
1087
 11
13.5
 21
1086.5
  0
LINE
  8
0
 10
13.5
 20
1086.5
 11
13.5
 21
977.5
  0
LINE
  8
0
 10
13.5
 20
977.5
 11
13.4684
 21
976.999
  0
LINE
  8
0
 10
13.4684
 20
976.999
 11
13.3743
 21
976.505
  0
LINE
  8
0
 10
13.3743
 20
976.505
 11
13.2191
 21
976.028
  0
LINE
  8
0
 10
13.2191
 20
976.028
 11
13.0052
 21
975.573
  0
LINE
  8
0
 10
13.0052
 20
975.573
 11
12.7361
 21
975.149
  0
LINE
  8
0
 10
12.7361
 20
975.149
 11
12.4159
 21
974.762
  0
LINE
  8
0
 10
12.4159
 20
974.762
 11
12.0497
 21
974.418
  0
LINE
  8
0
 10
12.0497
 20
974.418
 11
11.6433
 21
974.123
  0
LINE
  8
0
 10
11.6433
 20
974.123
 11
11.2031
 21
973.881
  0
LINE
  8
0
 10
11.2031
 20
973.881
 11
10.7361
 21
973.696
  0
LINE
  8
0
 10
10.7361
 20
973.696
 11
10.2495
 21
973.571
  0
LINE
  8
0
 10
10.2495
 20
973.571
 11
9.75116
 21
973.508
  0
LINE
  8
0
 10
9.75116
 20
973.508
 11
-9.75116
 21
973.508
  0
LINE
  8
0
 10
10.9369
 20
843.089
 11
11.5451
 21
843.245
  0
LINE
  8
0
 10
11.5451
 20
843.245
 11
12.1289
 21
843.476
  0
LINE
  8
0
 10
12.1289
 20
843.476
 11
12.6791
 21
843.778
  0
LINE
  8
0
 10
12.6791
 20
843.778
 11
13.1871
 21
844.147
  0
LINE
  8
0
 10
13.1871
 20
844.147
 11
13.6448
 21
844.577
  0
LINE
  8
0
 10
13.6448
 20
844.577
 11
14.0451
 21
845.061
  0
LINE
  8
0
 10
14.0451
 20
845.061
 11
14.3815
 21
845.591
  0
LINE
  8
0
 10
14.3815
 20
845.591
 11
14.6489
 21
846.159
  0
LINE
  8
0
 10
14.6489
 20
846.159
 11
14.8429
 21
846.757
  0
LINE
  8
0
 10
14.8429
 20
846.757
 11
14.9606
 21
847.373
  0
LINE
  8
0
 10
14.9606
 20
847.373
 11
15
 21
848
  0
LINE
  8
0
 10
15
 20
848
 11
15
 21
958
  0
LINE
  8
0
 10
15
 20
958
 11
14.9606
 21
958.627
  0
LINE
  8
0
 10
14.9606
 20
958.627
 11
14.8429
 21
959.243
  0
LINE
  8
0
 10
14.8429
 20
959.243
 11
14.6489
 21
959.841
  0
LINE
  8
0
 10
14.6489
 20
959.841
 11
14.3815
 21
960.409
  0
LINE
  8
0
 10
14.3815
 20
960.409
 11
14.0451
 21
960.939
  0
LINE
  8
0
 10
14.0451
 20
960.939
 11
13.6448
 21
961.423
  0
LINE
  8
0
 10
13.6448
 20
961.423
 11
13.1871
 21
961.853
  0
LINE
  8
0
 10
13.1871
 20
961.853
 11
12.6791
 21
962.222
  0
LINE
  8
0
 10
12.6791
 20
962.222
 11
12.1289
 21
962.524
  0
LINE
  8
0
 10
12.1289
 20
962.524
 11
11.5451
 21
962.755
  0
LINE
  8
0
 10
11.5451
 20
962.755
 11
10.9369
 21
962.911
  0
LINE
  8
0
 10
10.9369
 20
962.911
 11
10.3139
 21
962.99
  0
LINE
  8
0
 10
10.3139
 20
962.99
 11
-10.3139
 21
962.99
  0
LINE
  8
0
 10
-10.3139
 20
962.99
 11
-10.9369
 21
962.911
  0
LINE
  8
0
 10
-10.9369
 20
962.911
 11
-11.5451
 21
962.755
  0
LINE
  8
0
 10
-11.5451
 20
962.755
 11
-12.1289
 21
962.524
  0
LINE
  8
0
 10
-12.1289
 20
962.524
 11
-12.6791
 21
962.222
  0
LINE
  8
0
 10
-12.6791
 20
962.222
 11
-13.1871
 21
961.853
  0
LINE
  8
0
 10
-13.1871
 20
961.853
 11
-13.6448
 21
961.423
  0
LINE
  8
0
 10
-13.6448
 20
961.423
 11
-14.0451
 21
960.939
  0
LINE
  8
0
 10
-14.0451
 20
960.939
 11
-14.3815
 21
960.409
  0
LINE
  8
0
 10
-14.3815
 20
960.409
 11
-14.6489
 21
959.841
  0
LINE
  8
0
 10
-14.6489
 20
959.841
 11
-14.8429
 21
959.243
  0
LINE
  8
0
 10
-14.8429
 20
959.243
 11
-14.9606
 21
958.627
  0
LINE
  8
0
 10
-14.9606
 20
958.627
 11
-15
 21
958
  0
LINE
  8
0
 10
-15
 20
958
 11
-15
 21
848
  0
LINE
  8
0
 10
-15
 20
848
 11
-14.9606
 21
847.373
  0
LINE
  8
0
 10
-14.9606
 20
847.373
 11
-14.8429
 21
846.757
  0
LINE
  8
0
 10
-14.8429
 20
846.757
 11
-14.6489
 21
846.159
  0
LINE
  8
0
 10
-14.6489
 20
846.159
 11
-14.3815
 21
845.591
  0
LINE
  8
0
 10
-14.3815
 20
845.591
 11
-14.0451
 21
845.061
  0
LINE
  8
0
 10
-14.0451
 20
845.061
 11
-13.6448
 21
844.577
  0
LINE
  8
0
 10
-13.6448
 20
844.577
 11
-13.1871
 21
844.147
  0
LINE
  8
0
 10
-13.1871
 20
844.147
 11
-12.6791
 21
843.778
  0
LINE
  8
0
 10
-12.6791
 20
843.778
 11
-12.1289
 21
843.476
  0
LINE
  8
0
 10
-12.1289
 20
843.476
 11
-11.5451
 21
843.245
  0
LINE
  8
0
 10
-11.5451
 20
843.245
 11
-10.9369
 21
843.089
  0
LINE
  8
0
 10
-10.9369
 20
843.089
 11
-10.3139
 21
843.01
  0
LINE
  8
0
 10
-10.3139
 20
843.01
 11
10.3139
 21
843.01
  0
LINE
  8
0
 10
10.3139
 20
843.01
 11
10.9369
 21
843.089
  0
LINE
  8
0
 10
-9.75116
 20
844.508
 11
-10.2495
 21
844.571
  0
LINE
  8
0
 10
-10.2495
 20
844.571
 11
-10.7361
 21
844.696
  0
LINE
  8
0
 10
-10.7361
 20
844.696
 11
-11.2031
 21
844.881
  0
LINE
  8
0
 10
-11.2031
 20
844.881
 11
-11.6433
 21
845.123
  0
LINE
  8
0
 10
-11.6433
 20
845.123
 11
-12.0497
 21
845.418
  0
LINE
  8
0
 10
-12.0497
 20
845.418
 11
-12.4159
 21
845.762
  0
LINE
  8
0
 10
-12.4159
 20
845.762
 11
-12.7361
 21
846.149
  0
LINE
  8
0
 10
-12.7361
 20
846.149
 11
-13.0052
 21
846.573
  0
LINE
  8
0
 10
-13.0052
 20
846.573
 11
-13.2191
 21
847.028
  0
LINE
  8
0
 10
-13.2191
 20
847.028
 11
-13.3743
 21
847.505
  0
LINE
  8
0
 10
-13.3743
 20
847.505
 11
-13.4684
 21
847.999
  0
LINE
  8
0
 10
-13.4684
 20
847.999
 11
-13.5
 21
848.5
  0
LINE
  8
0
 10
-13.5
 20
848.5
 11
-13.5
 21
957.5
  0
LINE
  8
0
 10
-13.5
 20
957.5
 11
-13.4684
 21
958.001
  0
LINE
  8
0
 10
-13.4684
 20
958.001
 11
-13.3743
 21
958.495
  0
LINE
  8
0
 10
-13.3743
 20
958.495
 11
-13.2191
 21
958.972
  0
LINE
  8
0
 10
-13.2191
 20
958.972
 11
-13.0052
 21
959.427
  0
LINE
  8
0
 10
-13.0052
 20
959.427
 11
-12.7361
 21
959.851
  0
LINE
  8
0
 10
-12.7361
 20
959.851
 11
-12.4159
 21
960.238
  0
LINE
  8
0
 10
-12.4159
 20
960.238
 11
-12.0497
 21
960.582
  0
LINE
  8
0
 10
-12.0497
 20
960.582
 11
-11.6433
 21
960.877
  0
LINE
  8
0
 10
-11.6433
 20
960.877
 11
-11.2031
 21
961.119
  0
LINE
  8
0
 10
-11.2031
 20
961.119
 11
-10.7361
 21
961.304
  0
LINE
  8
0
 10
-10.7361
 20
961.304
 11
-10.2495
 21
961.429
  0
LINE
  8
0
 10
-10.2495
 20
961.429
 11
-9.75116
 21
961.492
  0
LINE
  8
0
 10
-9.75116
 20
961.492
 11
9.75116
 21
961.492
  0
LINE
  8
0
 10
9.75116
 20
961.492
 11
10.2495
 21
961.429
  0
LINE
  8
0
 10
10.2495
 20
961.429
 11
10.7361
 21
961.304
  0
LINE
  8
0
 10
10.7361
 20
961.304
 11
11.2031
 21
961.119
  0
LINE
  8
0
 10
11.2031
 20
961.119
 11
11.6433
 21
960.877
  0
LINE
  8
0
 10
11.6433
 20
960.877
 11
12.0497
 21
960.582
  0
LINE
  8
0
 10
12.0497
 20
960.582
 11
12.4159
 21
960.238
  0
LINE
  8
0
 10
12.4159
 20
960.238
 11
12.7361
 21
959.851
  0
LINE
  8
0
 10
12.7361
 20
959.851
 11
13.0052
 21
959.427
  0
LINE
  8
0
 10
13.0052
 20
959.427
 11
13.2191
 21
958.972
  0
LINE
  8
0
 10
13.2191
 20
958.972
 11
13.3743
 21
958.495
  0
LINE
  8
0
 10
13.3743
 20
958.495
 11
13.4684
 21
958.001
  0
LINE
  8
0
 10
13.4684
 20
958.001
 11
13.5
 21
957.5
  0
LINE
  8
0
 10
13.5
 20
957.5
 11
13.5
 21
848.5
  0
LINE
  8
0
 10
13.5
 20
848.5
 11
13.4684
 21
847.999
  0
LINE
  8
0
 10
13.4684
 20
847.999
 11
13.3743
 21
847.505
  0
LINE
  8
0
 10
13.3743
 20
847.505
 11
13.2191
 21
847.028
  0
LINE
  8
0
 10
13.2191
 20
847.028
 11
13.0052
 21
846.573
  0
LINE
  8
0
 10
13.0052
 20
846.573
 11
12.7361
 21
846.149
  0
LINE
  8
0
 10
12.7361
 20
846.149
 11
12.4159
 21
845.762
  0
LINE
  8
0
 10
12.4159
 20
845.762
 11
12.0497
 21
845.418
  0
LINE
  8
0
 10
12.0497
 20
845.418
 11
11.6433
 21
845.123
  0
LINE
  8
0
 10
11.6433
 20
845.123
 11
11.2031
 21
844.881
  0
LINE
  8
0
 10
11.2031
 20
844.881
 11
10.7361
 21
844.696
  0
LINE
  8
0
 10
10.7361
 20
844.696
 11
10.2495
 21
844.571
  0
LINE
  8
0
 10
10.2495
 20
844.571
 11
9.75116
 21
844.508
  0
LINE
  8
0
 10
9.75116
 20
844.508
 11
-9.75116
 21
844.508
  0
LINE
  8
0
 10
10.9369
 20
714.089
 11
11.5451
 21
714.245
  0
LINE
  8
0
 10
11.5451
 20
714.245
 11
12.1289
 21
714.476
  0
LINE
  8
0
 10
12.1289
 20
714.476
 11
12.6791
 21
714.778
  0
LINE
  8
0
 10
12.6791
 20
714.778
 11
13.1871
 21
715.147
  0
LINE
  8
0
 10
13.1871
 20
715.147
 11
13.6448
 21
715.577
  0
LINE
  8
0
 10
13.6448
 20
715.577
 11
14.0451
 21
716.061
  0
LINE
  8
0
 10
14.0451
 20
716.061
 11
14.3815
 21
716.591
  0
LINE
  8
0
 10
14.3815
 20
716.591
 11
14.6489
 21
717.159
  0
LINE
  8
0
 10
14.6489
 20
717.159
 11
14.8429
 21
717.757
  0
LINE
  8
0
 10
14.8429
 20
717.757
 11
14.9606
 21
718.373
  0
LINE
  8
0
 10
14.9606
 20
718.373
 11
15
 21
719
  0
LINE
  8
0
 10
15
 20
719
 11
15
 21
829
  0
LINE
  8
0
 10
15
 20
829
 11
14.9606
 21
829.627
  0
LINE
  8
0
 10
14.9606
 20
829.627
 11
14.8429
 21
830.243
  0
LINE
  8
0
 10
14.8429
 20
830.243
 11
14.6489
 21
830.841
  0
LINE
  8
0
 10
14.6489
 20
830.841
 11
14.3815
 21
831.409
  0
LINE
  8
0
 10
14.3815
 20
831.409
 11
14.0451
 21
831.939
  0
LINE
  8
0
 10
14.0451
 20
831.939
 11
13.6448
 21
832.423
  0
LINE
  8
0
 10
13.6448
 20
832.423
 11
13.1871
 21
832.853
  0
LINE
  8
0
 10
13.1871
 20
832.853
 11
12.6791
 21
833.222
  0
LINE
  8
0
 10
12.6791
 20
833.222
 11
12.1289
 21
833.524
  0
LINE
  8
0
 10
12.1289
 20
833.524
 11
11.5451
 21
833.755
  0
LINE
  8
0
 10
11.5451
 20
833.755
 11
10.9369
 21
833.911
  0
LINE
  8
0
 10
10.9369
 20
833.911
 11
10.3139
 21
833.99
  0
LINE
  8
0
 10
10.3139
 20
833.99
 11
-10.3139
 21
833.99
  0
LINE
  8
0
 10
-10.3139
 20
833.99
 11
-10.9369
 21
833.911
  0
LINE
  8
0
 10
-10.9369
 20
833.911
 11
-11.5451
 21
833.755
  0
LINE
  8
0
 10
-11.5451
 20
833.755
 11
-12.1289
 21
833.524
  0
LINE
  8
0
 10
-12.1289
 20
833.524
 11
-12.6791
 21
833.222
  0
LINE
  8
0
 10
-12.6791
 20
833.222
 11
-13.1871
 21
832.853
  0
LINE
  8
0
 10
-13.1871
 20
832.853
 11
-13.6448
 21
832.423
  0
LINE
  8
0
 10
-13.6448
 20
832.423
 11
-14.0451
 21
831.939
  0
LINE
  8
0
 10
-14.0451
 20
831.939
 11
-14.3815
 21
831.409
  0
LINE
  8
0
 10
-14.3815
 20
831.409
 11
-14.6489
 21
830.841
  0
LINE
  8
0
 10
-14.6489
 20
830.841
 11
-14.8429
 21
830.243
  0
LINE
  8
0
 10
-14.8429
 20
830.243
 11
-14.9606
 21
829.627
  0
LINE
  8
0
 10
-14.9606
 20
829.627
 11
-15
 21
829
  0
LINE
  8
0
 10
-15
 20
829
 11
-15
 21
719
  0
LINE
  8
0
 10
-15
 20
719
 11
-14.9606
 21
718.373
  0
LINE
  8
0
 10
-14.9606
 20
718.373
 11
-14.8429
 21
717.757
  0
LINE
  8
0
 10
-14.8429
 20
717.757
 11
-14.6489
 21
717.159
  0
LINE
  8
0
 10
-14.6489
 20
717.159
 11
-14.3815
 21
716.591
  0
LINE
  8
0
 10
-14.3815
 20
716.591
 11
-14.0451
 21
716.061
  0
LINE
  8
0
 10
-14.0451
 20
716.061
 11
-13.6448
 21
715.577
  0
LINE
  8
0
 10
-13.6448
 20
715.577
 11
-13.1871
 21
715.147
  0
LINE
  8
0
 10
-13.1871
 20
715.147
 11
-12.6791
 21
714.778
  0
LINE
  8
0
 10
-12.6791
 20
714.778
 11
-12.1289
 21
714.476
  0
LINE
  8
0
 10
-12.1289
 20
714.476
 11
-11.5451
 21
714.245
  0
LINE
  8
0
 10
-11.5451
 20
714.245
 11
-10.9369
 21
714.089
  0
LINE
  8
0
 10
-10.9369
 20
714.089
 11
-10.3139
 21
714.01
  0
LINE
  8
0
 10
-10.3139
 20
714.01
 11
10.3139
 21
714.01
  0
LINE
  8
0
 10
10.3139
 20
714.01
 11
10.9369
 21
714.089
  0
LINE
  8
0
 10
-9.69545
 20
716.393
 11
-10.0833
 21
716.442
  0
LINE
  8
0
 10
-10.0833
 20
716.442
 11
-10.4619
 21
716.539
  0
LINE
  8
0
 10
-10.4619
 20
716.539
 11
-10.8254
 21
716.683
  0
LINE
  8
0
 10
-10.8254
 20
716.683
 11
-11.168
 21
716.872
  0
LINE
  8
0
 10
-11.168
 20
716.872
 11
-11.4842
 21
717.101
  0
LINE
  8
0
 10
-11.4842
 20
717.101
 11
-11.7692
 21
717.369
  0
LINE
  8
0
 10
-11.7692
 20
717.369
 11
-12.0184
 21
717.67
  0
LINE
  8
0
 10
-12.0184
 20
717.67
 11
-12.2279
 21
718
  0
LINE
  8
0
 10
-12.2279
 20
718
 11
-12.3943
 21
718.354
  0
LINE
  8
0
 10
-12.3943
 20
718.354
 11
-12.5151
 21
718.726
  0
LINE
  8
0
 10
-12.5151
 20
718.726
 11
-12.5884
 21
719.11
  0
LINE
  8
0
 10
-12.5884
 20
719.11
 11
-12.6129
 21
719.5
  0
LINE
  8
0
 10
-12.6129
 20
719.5
 11
-12.6129
 21
828.5
  0
LINE
  8
0
 10
-12.6129
 20
828.5
 11
-12.5884
 21
828.89
  0
LINE
  8
0
 10
-12.5884
 20
828.89
 11
-12.5151
 21
829.274
  0
LINE
  8
0
 10
-12.5151
 20
829.274
 11
-12.3943
 21
829.646
  0
LINE
  8
0
 10
-12.3943
 20
829.646
 11
-12.2279
 21
830
  0
LINE
  8
0
 10
-12.2279
 20
830
 11
-12.0184
 21
830.33
  0
LINE
  8
0
 10
-12.0184
 20
830.33
 11
-11.7692
 21
830.631
  0
LINE
  8
0
 10
-11.7692
 20
830.631
 11
-11.4842
 21
830.899
  0
LINE
  8
0
 10
-11.4842
 20
830.899
 11
-11.168
 21
831.128
  0
LINE
  8
0
 10
-11.168
 20
831.128
 11
-10.8254
 21
831.317
  0
LINE
  8
0
 10
-10.8254
 20
831.317
 11
-10.4619
 21
831.461
  0
LINE
  8
0
 10
-10.4619
 20
831.461
 11
-10.0833
 21
831.558
  0
LINE
  8
0
 10
-10.0833
 20
831.558
 11
-9.69545
 21
831.607
  0
LINE
  8
0
 10
-9.69545
 20
831.607
 11
9.69545
 21
831.607
  0
LINE
  8
0
 10
9.69545
 20
831.607
 11
10.0833
 21
831.558
  0
LINE
  8
0
 10
10.0833
 20
831.558
 11
10.4619
 21
831.461
  0
LINE
  8
0
 10
10.4619
 20
831.461
 11
10.8254
 21
831.317
  0
LINE
  8
0
 10
10.8254
 20
831.317
 11
11.168
 21
831.128
  0
LINE
  8
0
 10
11.168
 20
831.128
 11
11.4842
 21
830.899
  0
LINE
  8
0
 10
11.4842
 20
830.899
 11
11.7692
 21
830.631
  0
LINE
  8
0
 10
11.7692
 20
830.631
 11
12.0184
 21
830.33
  0
LINE
  8
0
 10
12.0184
 20
830.33
 11
12.2279
 21
830
  0
LINE
  8
0
 10
12.2279
 20
830
 11
12.3943
 21
829.646
  0
LINE
  8
0
 10
12.3943
 20
829.646
 11
12.5151
 21
829.274
  0
LINE
  8
0
 10
12.5151
 20
829.274
 11
12.5884
 21
828.89
  0
LINE
  8
0
 10
12.5884
 20
828.89
 11
12.6129
 21
828.5
  0
LINE
  8
0
 10
12.6129
 20
828.5
 11
12.6129
 21
719.5
  0
LINE
  8
0
 10
12.6129
 20
719.5
 11
12.5884
 21
719.11
  0
LINE
  8
0
 10
12.5884
 20
719.11
 11
12.5151
 21
718.726
  0
LINE
  8
0
 10
12.5151
 20
718.726
 11
12.3943
 21
718.354
  0
LINE
  8
0
 10
12.3943
 20
718.354
 11
12.2279
 21
718
  0
LINE
  8
0
 10
12.2279
 20
718
 11
12.0184
 21
717.67
  0
LINE
  8
0
 10
12.0184
 20
717.67
 11
11.7692
 21
717.369
  0
LINE
  8
0
 10
11.7692
 20
717.369
 11
11.4842
 21
717.101
  0
LINE
  8
0
 10
11.4842
 20
717.101
 11
11.168
 21
716.872
  0
LINE
  8
0
 10
11.168
 20
716.872
 11
10.8254
 21
716.683
  0
LINE
  8
0
 10
10.8254
 20
716.683
 11
10.4619
 21
716.539
  0
LINE
  8
0
 10
10.4619
 20
716.539
 11
10.0833
 21
716.442
  0
LINE
  8
0
 10
10.0833
 20
716.442
 11
9.69545
 21
716.393
  0
LINE
  8
0
 10
9.69545
 20
716.393
 11
-9.69545
 21
716.393
  0
LINE
  8
0
 10
10.9369
 20
585.089
 11
11.5451
 21
585.245
  0
LINE
  8
0
 10
11.5451
 20
585.245
 11
12.1289
 21
585.476
  0
LINE
  8
0
 10
12.1289
 20
585.476
 11
12.6791
 21
585.778
  0
LINE
  8
0
 10
12.6791
 20
585.778
 11
13.1871
 21
586.147
  0
LINE
  8
0
 10
13.1871
 20
586.147
 11
13.6448
 21
586.577
  0
LINE
  8
0
 10
13.6448
 20
586.577
 11
14.0451
 21
587.061
  0
LINE
  8
0
 10
14.0451
 20
587.061
 11
14.3815
 21
587.591
  0
LINE
  8
0
 10
14.3815
 20
587.591
 11
14.6489
 21
588.159
  0
LINE
  8
0
 10
14.6489
 20
588.159
 11
14.8429
 21
588.757
  0
LINE
  8
0
 10
14.8429
 20
588.757
 11
14.9606
 21
589.373
  0
LINE
  8
0
 10
14.9606
 20
589.373
 11
15
 21
590
  0
LINE
  8
0
 10
15
 20
590
 11
15
 21
700
  0
LINE
  8
0
 10
15
 20
700
 11
14.9606
 21
700.627
  0
LINE
  8
0
 10
14.9606
 20
700.627
 11
14.8429
 21
701.243
  0
LINE
  8
0
 10
14.8429
 20
701.243
 11
14.6489
 21
701.841
  0
LINE
  8
0
 10
14.6489
 20
701.841
 11
14.3815
 21
702.409
  0
LINE
  8
0
 10
14.3815
 20
702.409
 11
14.0451
 21
702.939
  0
LINE
  8
0
 10
14.0451
 20
702.939
 11
13.6448
 21
703.423
  0
LINE
  8
0
 10
13.6448
 20
703.423
 11
13.1871
 21
703.853
  0
LINE
  8
0
 10
13.1871
 20
703.853
 11
12.6791
 21
704.222
  0
LINE
  8
0
 10
12.6791
 20
704.222
 11
12.1289
 21
704.524
  0
LINE
  8
0
 10
12.1289
 20
704.524
 11
11.5451
 21
704.755
  0
LINE
  8
0
 10
11.5451
 20
704.755
 11
10.9369
 21
704.911
  0
LINE
  8
0
 10
10.9369
 20
704.911
 11
10.3139
 21
704.99
  0
LINE
  8
0
 10
10.3139
 20
704.99
 11
-10.3139
 21
704.99
  0
LINE
  8
0
 10
-10.3139
 20
704.99
 11
-10.9369
 21
704.911
  0
LINE
  8
0
 10
-10.9369
 20
704.911
 11
-11.5451
 21
704.755
  0
LINE
  8
0
 10
-11.5451
 20
704.755
 11
-12.1289
 21
704.524
  0
LINE
  8
0
 10
-12.1289
 20
704.524
 11
-12.6791
 21
704.222
  0
LINE
  8
0
 10
-12.6791
 20
704.222
 11
-13.1871
 21
703.853
  0
LINE
  8
0
 10
-13.1871
 20
703.853
 11
-13.6448
 21
703.423
  0
LINE
  8
0
 10
-13.6448
 20
703.423
 11
-14.0451
 21
702.939
  0
LINE
  8
0
 10
-14.0451
 20
702.939
 11
-14.3815
 21
702.409
  0
LINE
  8
0
 10
-14.3815
 20
702.409
 11
-14.6489
 21
701.841
  0
LINE
  8
0
 10
-14.6489
 20
701.841
 11
-14.8429
 21
701.243
  0
LINE
  8
0
 10
-14.8429
 20
701.243
 11
-14.9606
 21
700.627
  0
LINE
  8
0
 10
-14.9606
 20
700.627
 11
-15
 21
700
  0
LINE
  8
0
 10
-15
 20
700
 11
-15
 21
590
  0
LINE
  8
0
 10
-15
 20
590
 11
-14.9606
 21
589.373
  0
LINE
  8
0
 10
-14.9606
 20
589.373
 11
-14.8429
 21
588.757
  0
LINE
  8
0
 10
-14.8429
 20
588.757
 11
-14.6489
 21
588.159
  0
LINE
  8
0
 10
-14.6489
 20
588.159
 11
-14.3815
 21
587.591
  0
LINE
  8
0
 10
-14.3815
 20
587.591
 11
-14.0451
 21
587.061
  0
LINE
  8
0
 10
-14.0451
 20
587.061
 11
-13.6448
 21
586.577
  0
LINE
  8
0
 10
-13.6448
 20
586.577
 11
-13.1871
 21
586.147
  0
LINE
  8
0
 10
-13.1871
 20
586.147
 11
-12.6791
 21
585.778
  0
LINE
  8
0
 10
-12.6791
 20
585.778
 11
-12.1289
 21
585.476
  0
LINE
  8
0
 10
-12.1289
 20
585.476
 11
-11.5451
 21
585.245
  0
LINE
  8
0
 10
-11.5451
 20
585.245
 11
-10.9369
 21
585.089
  0
LINE
  8
0
 10
-10.9369
 20
585.089
 11
-10.3139
 21
585.01
  0
LINE
  8
0
 10
-10.3139
 20
585.01
 11
10.3139
 21
585.01
  0
LINE
  8
0
 10
10.3139
 20
585.01
 11
10.9369
 21
585.089
  0
LINE
  8
0
 10
7.36592
 20
695.369
 11
7.09988
 21
695.403
  0
LINE
  8
0
 10
7.09988
 20
695.403
 11
6.84015
 21
695.469
  0
LINE
  8
0
 10
6.84015
 20
695.469
 11
6.59084
 21
695.568
  0
LINE
  8
0
 10
6.59084
 20
695.568
 11
6.35585
 21
695.697
  0
LINE
  8
0
 10
6.35585
 20
695.697
 11
6.1389
 21
695.855
  0
LINE
  8
0
 10
6.1389
 20
695.855
 11
5.94344
 21
696.038
  0
LINE
  8
0
 10
5.94344
 20
696.038
 11
5.77251
 21
696.245
  0
LINE
  8
0
 10
5.77251
 20
696.245
 11
5.62881
 21
696.471
  0
LINE
  8
0
 10
5.62881
 20
696.471
 11
5.51465
 21
696.714
  0
LINE
  8
0
 10
5.51465
 20
696.714
 11
5.43178
 21
696.969
  0
LINE
  8
0
 10
5.43178
 20
696.969
 11
5.38153
 21
697.232
  0
LINE
  8
0
 10
5.38153
 20
697.232
 11
5.3647
 21
697.5
  0
LINE
  8
0
 10
5.3647
 20
697.5
 11
5.38153
 21
697.768
  0
LINE
  8
0
 10
5.38153
 20
697.768
 11
5.43178
 21
698.031
  0
LINE
  8
0
 10
5.43178
 20
698.031
 11
5.51465
 21
698.286
  0
LINE
  8
0
 10
5.51465
 20
698.286
 11
5.62881
 21
698.529
  0
LINE
  8
0
 10
5.62881
 20
698.529
 11
5.77251
 21
698.755
  0
LINE
  8
0
 10
5.77251
 20
698.755
 11
5.94344
 21
698.962
  0
LINE
  8
0
 10
5.94344
 20
698.962
 11
6.1389
 21
699.145
  0
LINE
  8
0
 10
6.1389
 20
699.145
 11
6.35585
 21
699.303
  0
LINE
  8
0
 10
6.35585
 20
699.303
 11
6.59084
 21
699.432
  0
LINE
  8
0
 10
6.59084
 20
699.432
 11
6.84015
 21
699.531
  0
LINE
  8
0
 10
6.84015
 20
699.531
 11
7.09988
 21
699.597
  0
LINE
  8
0
 10
7.09988
 20
699.597
 11
7.36592
 21
699.631
  0
LINE
  8
0
 10
7.36592
 20
699.631
 11
7.63406
 21
699.631
  0
LINE
  8
0
 10
7.63406
 20
699.631
 11
7.9001
 21
699.597
  0
LINE
  8
0
 10
7.9001
 20
699.597
 11
8.15984
 21
699.531
  0
LINE
  8
0
 10
8.15984
 20
699.531
 11
8.40915
 21
699.432
  0
LINE
  8
0
 10
8.40915
 20
699.432
 11
8.64413
 21
699.303
  0
LINE
  8
0
 10
8.64413
 20
699.303
 11
8.86108
 21
699.145
  0
LINE
  8
0
 10
8.86108
 20
699.145
 11
9.05655
 21
698.962
  0
LINE
  8
0
 10
9.05655
 20
698.962
 11
9.22748
 21
698.755
  0
LINE
  8
0
 10
9.22748
 20
698.755
 11
9.37117
 21
698.529
  0
LINE
  8
0
 10
9.37117
 20
698.529
 11
9.48534
 21
698.286
  0
LINE
  8
0
 10
9.48534
 20
698.286
 11
9.56821
 21
698.031
  0
LINE
  8
0
 10
9.56821
 20
698.031
 11
9.61845
 21
697.768
  0
LINE
  8
0
 10
9.61845
 20
697.768
 11
9.63528
 21
697.5
  0
LINE
  8
0
 10
9.63528
 20
697.5
 11
9.61845
 21
697.232
  0
LINE
  8
0
 10
9.61845
 20
697.232
 11
9.56821
 21
696.969
  0
LINE
  8
0
 10
9.56821
 20
696.969
 11
9.48534
 21
696.714
  0
LINE
  8
0
 10
9.48534
 20
696.714
 11
9.37117
 21
696.471
  0
LINE
  8
0
 10
9.37117
 20
696.471
 11
9.22748
 21
696.245
  0
LINE
  8
0
 10
9.22748
 20
696.245
 11
9.05655
 21
696.038
  0
LINE
  8
0
 10
9.05655
 20
696.038
 11
8.86108
 21
695.855
  0
LINE
  8
0
 10
8.86108
 20
695.855
 11
8.64413
 21
695.697
  0
LINE
  8
0
 10
8.64413
 20
695.697
 11
8.40915
 21
695.568
  0
LINE
  8
0
 10
8.40915
 20
695.568
 11
8.15984
 21
695.469
  0
LINE
  8
0
 10
8.15984
 20
695.469
 11
7.9001
 21
695.403
  0
LINE
  8
0
 10
7.9001
 20
695.403
 11
7.63406
 21
695.369
  0
LINE
  8
0
 10
7.63406
 20
695.369
 11
7.36592
 21
695.369
  0
LINE
  8
0
 10
-7.63406
 20
695.369
 11
-7.9001
 21
695.403
  0
LINE
  8
0
 10
-7.9001
 20
695.403
 11
-8.15984
 21
695.469
  0
LINE
  8
0
 10
-8.15984
 20
695.469
 11
-8.40915
 21
695.568
  0
LINE
  8
0
 10
-8.40915
 20
695.568
 11
-8.64413
 21
695.697
  0
LINE
  8
0
 10
-8.64413
 20
695.697
 11
-8.86108
 21
695.855
  0
LINE
  8
0
 10
-8.86108
 20
695.855
 11
-9.05655
 21
696.038
  0
LINE
  8
0
 10
-9.05655
 20
696.038
 11
-9.22748
 21
696.245
  0
LINE
  8
0
 10
-9.22748
 20
696.245
 11
-9.37117
 21
696.471
  0
LINE
  8
0
 10
-9.37117
 20
696.471
 11
-9.48534
 21
696.714
  0
LINE
  8
0
 10
-9.48534
 20
696.714
 11
-9.56821
 21
696.969
  0
LINE
  8
0
 10
-9.56821
 20
696.969
 11
-9.61845
 21
697.232
  0
LINE
  8
0
 10
-9.61845
 20
697.232
 11
-9.63528
 21
697.5
  0
LINE
  8
0
 10
-9.63528
 20
697.5
 11
-9.61845
 21
697.768
  0
LINE
  8
0
 10
-9.61845
 20
697.768
 11
-9.56821
 21
698.031
  0
LINE
  8
0
 10
-9.56821
 20
698.031
 11
-9.48534
 21
698.286
  0
LINE
  8
0
 10
-9.48534
 20
698.286
 11
-9.37117
 21
698.529
  0
LINE
  8
0
 10
-9.37117
 20
698.529
 11
-9.22748
 21
698.755
  0
LINE
  8
0
 10
-9.22748
 20
698.755
 11
-9.05655
 21
698.962
  0
LINE
  8
0
 10
-9.05655
 20
698.962
 11
-8.86108
 21
699.145
  0
LINE
  8
0
 10
-8.86108
 20
699.145
 11
-8.64413
 21
699.303
  0
LINE
  8
0
 10
-8.64413
 20
699.303
 11
-8.40915
 21
699.432
  0
LINE
  8
0
 10
-8.40915
 20
699.432
 11
-8.15984
 21
699.531
  0
LINE
  8
0
 10
-8.15984
 20
699.531
 11
-7.9001
 21
699.597
  0
LINE
  8
0
 10
-7.9001
 20
699.597
 11
-7.63406
 21
699.631
  0
LINE
  8
0
 10
-7.63406
 20
699.631
 11
-7.36592
 21
699.631
  0
LINE
  8
0
 10
-7.36592
 20
699.631
 11
-7.09988
 21
699.597
  0
LINE
  8
0
 10
-7.09988
 20
699.597
 11
-6.84015
 21
699.531
  0
LINE
  8
0
 10
-6.84015
 20
699.531
 11
-6.59084
 21
699.432
  0
LINE
  8
0
 10
-6.59084
 20
699.432
 11
-6.35585
 21
699.303
  0
LINE
  8
0
 10
-6.35585
 20
699.303
 11
-6.1389
 21
699.145
  0
LINE
  8
0
 10
-6.1389
 20
699.145
 11
-5.94344
 21
698.962
  0
LINE
  8
0
 10
-5.94344
 20
698.962
 11
-5.77251
 21
698.755
  0
LINE
  8
0
 10
-5.77251
 20
698.755
 11
-5.62881
 21
698.529
  0
LINE
  8
0
 10
-5.62881
 20
698.529
 11
-5.51465
 21
698.286
  0
LINE
  8
0
 10
-5.51465
 20
698.286
 11
-5.43178
 21
698.031
  0
LINE
  8
0
 10
-5.43178
 20
698.031
 11
-5.38153
 21
697.768
  0
LINE
  8
0
 10
-5.38153
 20
697.768
 11
-5.3647
 21
697.5
  0
LINE
  8
0
 10
-5.3647
 20
697.5
 11
-5.38153
 21
697.232
  0
LINE
  8
0
 10
-5.38153
 20
697.232
 11
-5.43178
 21
696.969
  0
LINE
  8
0
 10
-5.43178
 20
696.969
 11
-5.51465
 21
696.714
  0
LINE
  8
0
 10
-5.51465
 20
696.714
 11
-5.62881
 21
696.471
  0
LINE
  8
0
 10
-5.62881
 20
696.471
 11
-5.77251
 21
696.245
  0
LINE
  8
0
 10
-5.77251
 20
696.245
 11
-5.94344
 21
696.038
  0
LINE
  8
0
 10
-5.94344
 20
696.038
 11
-6.1389
 21
695.855
  0
LINE
  8
0
 10
-6.1389
 20
695.855
 11
-6.35585
 21
695.697
  0
LINE
  8
0
 10
-6.35585
 20
695.697
 11
-6.59084
 21
695.568
  0
LINE
  8
0
 10
-6.59084
 20
695.568
 11
-6.84015
 21
695.469
  0
LINE
  8
0
 10
-6.84015
 20
695.469
 11
-7.09988
 21
695.403
  0
LINE
  8
0
 10
-7.09988
 20
695.403
 11
-7.36592
 21
695.369
  0
LINE
  8
0
 10
-7.36592
 20
695.369
 11
-7.63406
 21
695.369
  0
LINE
  8
0
 10
7.36592
 20
590.369
 11
7.09988
 21
590.403
  0
LINE
  8
0
 10
7.09988
 20
590.403
 11
6.84015
 21
590.469
  0
LINE
  8
0
 10
6.84015
 20
590.469
 11
6.59084
 21
590.568
  0
LINE
  8
0
 10
6.59084
 20
590.568
 11
6.35585
 21
590.697
  0
LINE
  8
0
 10
6.35585
 20
590.697
 11
6.1389
 21
590.855
  0
LINE
  8
0
 10
6.1389
 20
590.855
 11
5.94344
 21
591.038
  0
LINE
  8
0
 10
5.94344
 20
591.038
 11
5.77251
 21
591.245
  0
LINE
  8
0
 10
5.77251
 20
591.245
 11
5.62881
 21
591.471
  0
LINE
  8
0
 10
5.62881
 20
591.471
 11
5.51465
 21
591.714
  0
LINE
  8
0
 10
5.51465
 20
591.714
 11
5.43178
 21
591.969
  0
LINE
  8
0
 10
5.43178
 20
591.969
 11
5.38153
 21
592.232
  0
LINE
  8
0
 10
5.38153
 20
592.232
 11
5.3647
 21
592.5
  0
LINE
  8
0
 10
5.3647
 20
592.5
 11
5.38153
 21
592.768
  0
LINE
  8
0
 10
5.38153
 20
592.768
 11
5.43178
 21
593.031
  0
LINE
  8
0
 10
5.43178
 20
593.031
 11
5.51465
 21
593.286
  0
LINE
  8
0
 10
5.51465
 20
593.286
 11
5.62881
 21
593.529
  0
LINE
  8
0
 10
5.62881
 20
593.529
 11
5.77251
 21
593.755
  0
LINE
  8
0
 10
5.77251
 20
593.755
 11
5.94344
 21
593.962
  0
LINE
  8
0
 10
5.94344
 20
593.962
 11
6.1389
 21
594.145
  0
LINE
  8
0
 10
6.1389
 20
594.145
 11
6.35585
 21
594.303
  0
LINE
  8
0
 10
6.35585
 20
594.303
 11
6.59084
 21
594.432
  0
LINE
  8
0
 10
6.59084
 20
594.432
 11
6.84015
 21
594.531
  0
LINE
  8
0
 10
6.84015
 20
594.531
 11
7.09988
 21
594.597
  0
LINE
  8
0
 10
7.09988
 20
594.597
 11
7.36592
 21
594.631
  0
LINE
  8
0
 10
7.36592
 20
594.631
 11
7.63406
 21
594.631
  0
LINE
  8
0
 10
7.63406
 20
594.631
 11
7.9001
 21
594.597
  0
LINE
  8
0
 10
7.9001
 20
594.597
 11
8.15984
 21
594.531
  0
LINE
  8
0
 10
8.15984
 20
594.531
 11
8.40915
 21
594.432
  0
LINE
  8
0
 10
8.40915
 20
594.432
 11
8.64413
 21
594.303
  0
LINE
  8
0
 10
8.64413
 20
594.303
 11
8.86108
 21
594.145
  0
LINE
  8
0
 10
8.86108
 20
594.145
 11
9.05655
 21
593.962
  0
LINE
  8
0
 10
9.05655
 20
593.962
 11
9.22748
 21
593.755
  0
LINE
  8
0
 10
9.22748
 20
593.755
 11
9.37117
 21
593.529
  0
LINE
  8
0
 10
9.37117
 20
593.529
 11
9.48534
 21
593.286
  0
LINE
  8
0
 10
9.48534
 20
593.286
 11
9.56821
 21
593.031
  0
LINE
  8
0
 10
9.56821
 20
593.031
 11
9.61845
 21
592.768
  0
LINE
  8
0
 10
9.61845
 20
592.768
 11
9.63528
 21
592.5
  0
LINE
  8
0
 10
9.63528
 20
592.5
 11
9.61845
 21
592.232
  0
LINE
  8
0
 10
9.61845
 20
592.232
 11
9.56821
 21
591.969
  0
LINE
  8
0
 10
9.56821
 20
591.969
 11
9.48534
 21
591.714
  0
LINE
  8
0
 10
9.48534
 20
591.714
 11
9.37117
 21
591.471
  0
LINE
  8
0
 10
9.37117
 20
591.471
 11
9.22748
 21
591.245
  0
LINE
  8
0
 10
9.22748
 20
591.245
 11
9.05655
 21
591.038
  0
LINE
  8
0
 10
9.05655
 20
591.038
 11
8.86108
 21
590.855
  0
LINE
  8
0
 10
8.86108
 20
590.855
 11
8.64413
 21
590.697
  0
LINE
  8
0
 10
8.64413
 20
590.697
 11
8.40915
 21
590.568
  0
LINE
  8
0
 10
8.40915
 20
590.568
 11
8.15984
 21
590.469
  0
LINE
  8
0
 10
8.15984
 20
590.469
 11
7.9001
 21
590.403
  0
LINE
  8
0
 10
7.9001
 20
590.403
 11
7.63406
 21
590.369
  0
LINE
  8
0
 10
7.63406
 20
590.369
 11
7.36592
 21
590.369
  0
LINE
  8
0
 10
-7.63406
 20
590.369
 11
-7.9001
 21
590.403
  0
LINE
  8
0
 10
-7.9001
 20
590.403
 11
-8.15984
 21
590.469
  0
LINE
  8
0
 10
-8.15984
 20
590.469
 11
-8.40915
 21
590.568
  0
LINE
  8
0
 10
-8.40915
 20
590.568
 11
-8.64413
 21
590.697
  0
LINE
  8
0
 10
-8.64413
 20
590.697
 11
-8.86108
 21
590.855
  0
LINE
  8
0
 10
-8.86108
 20
590.855
 11
-9.05655
 21
591.038
  0
LINE
  8
0
 10
-9.05655
 20
591.038
 11
-9.22748
 21
591.245
  0
LINE
  8
0
 10
-9.22748
 20
591.245
 11
-9.37117
 21
591.471
  0
LINE
  8
0
 10
-9.37117
 20
591.471
 11
-9.48534
 21
591.714
  0
LINE
  8
0
 10
-9.48534
 20
591.714
 11
-9.56821
 21
591.969
  0
LINE
  8
0
 10
-9.56821
 20
591.969
 11
-9.61845
 21
592.232
  0
LINE
  8
0
 10
-9.61845
 20
592.232
 11
-9.63528
 21
592.5
  0
LINE
  8
0
 10
-9.63528
 20
592.5
 11
-9.61845
 21
592.768
  0
LINE
  8
0
 10
-9.61845
 20
592.768
 11
-9.56821
 21
593.031
  0
LINE
  8
0
 10
-9.56821
 20
593.031
 11
-9.48534
 21
593.286
  0
LINE
  8
0
 10
-9.48534
 20
593.286
 11
-9.37117
 21
593.529
  0
LINE
  8
0
 10
-9.37117
 20
593.529
 11
-9.22748
 21
593.755
  0
LINE
  8
0
 10
-9.22748
 20
593.755
 11
-9.05655
 21
593.962
  0
LINE
  8
0
 10
-9.05655
 20
593.962
 11
-8.86108
 21
594.145
  0
LINE
  8
0
 10
-8.86108
 20
594.145
 11
-8.64413
 21
594.303
  0
LINE
  8
0
 10
-8.64413
 20
594.303
 11
-8.40915
 21
594.432
  0
LINE
  8
0
 10
-8.40915
 20
594.432
 11
-8.15984
 21
594.531
  0
LINE
  8
0
 10
-8.15984
 20
594.531
 11
-7.9001
 21
594.597
  0
LINE
  8
0
 10
-7.9001
 20
594.597
 11
-7.63406
 21
594.631
  0
LINE
  8
0
 10
-7.63406
 20
594.631
 11
-7.36592
 21
594.631
  0
LINE
  8
0
 10
-7.36592
 20
594.631
 11
-7.09988
 21
594.597
  0
LINE
  8
0
 10
-7.09988
 20
594.597
 11
-6.84015
 21
594.531
  0
LINE
  8
0
 10
-6.84015
 20
594.531
 11
-6.59084
 21
594.432
  0
LINE
  8
0
 10
-6.59084
 20
594.432
 11
-6.35585
 21
594.303
  0
LINE
  8
0
 10
-6.35585
 20
594.303
 11
-6.1389
 21
594.145
  0
LINE
  8
0
 10
-6.1389
 20
594.145
 11
-5.94344
 21
593.962
  0
LINE
  8
0
 10
-5.94344
 20
593.962
 11
-5.77251
 21
593.755
  0
LINE
  8
0
 10
-5.77251
 20
593.755
 11
-5.62881
 21
593.529
  0
LINE
  8
0
 10
-5.62881
 20
593.529
 11
-5.51465
 21
593.286
  0
LINE
  8
0
 10
-5.51465
 20
593.286
 11
-5.43178
 21
593.031
  0
LINE
  8
0
 10
-5.43178
 20
593.031
 11
-5.38153
 21
592.768
  0
LINE
  8
0
 10
-5.38153
 20
592.768
 11
-5.3647
 21
592.5
  0
LINE
  8
0
 10
-5.3647
 20
592.5
 11
-5.38153
 21
592.232
  0
LINE
  8
0
 10
-5.38153
 20
592.232
 11
-5.43178
 21
591.969
  0
LINE
  8
0
 10
-5.43178
 20
591.969
 11
-5.51465
 21
591.714
  0
LINE
  8
0
 10
-5.51465
 20
591.714
 11
-5.62881
 21
591.471
  0
LINE
  8
0
 10
-5.62881
 20
591.471
 11
-5.77251
 21
591.245
  0
LINE
  8
0
 10
-5.77251
 20
591.245
 11
-5.94344
 21
591.038
  0
LINE
  8
0
 10
-5.94344
 20
591.038
 11
-6.1389
 21
590.855
  0
LINE
  8
0
 10
-6.1389
 20
590.855
 11
-6.35585
 21
590.697
  0
LINE
  8
0
 10
-6.35585
 20
590.697
 11
-6.59084
 21
590.568
  0
LINE
  8
0
 10
-6.59084
 20
590.568
 11
-6.84015
 21
590.469
  0
LINE
  8
0
 10
-6.84015
 20
590.469
 11
-7.09988
 21
590.403
  0
LINE
  8
0
 10
-7.09988
 20
590.403
 11
-7.36592
 21
590.369
  0
LINE
  8
0
 10
-7.36592
 20
590.369
 11
-7.63406
 21
590.369
  0
ENDSEC
  0
SECTION
  2
OBJECTS
  0
DICTIONARY
  0
ENDSEC
  0
EOF
