<?xml version="1.0" standalone="no"?>
<!DOCTYPE svg PUBLIC "-//W3C//DTD SVG 1.1//EN" "http://www.w3.org/Graphics/SVG/1.1/DTD/svg11.dtd">
<svg width="30mm" height="636mm" viewBox="-15 -1221 30 636" xmlns="http://www.w3.org/2000/svg" version="1.1">
<title>OpenSCAD Model</title>
<path d="
M 10.9369,-1101.09 L 11.5451,-1101.24 L 12.1289,-1101.48 L 12.6791,-1101.78 L 13.1871,-1102.15 L 13.6448,-1102.58
 L 14.0451,-1103.06 L 14.3815,-1103.59 L 14.6489,-1104.16 L 14.8429,-1104.76 L 14.9606,-1105.37 L 15,-1106
 L 15,-1216 L 14.9606,-1216.63 L 14.8429,-1217.24 L 14.6489,-1217.84 L 14.3815,-1218.41 L 14.0451,-1218.94
 L 13.6448,-1219.42 L 13.1871,-1219.85 L 12.6791,-1220.22 L 12.1289,-1220.52 L 11.5451,-1220.76 L 10.9369,-1220.91
 L 10.3139,-1220.99 L -10.3139,-1220.99 L -10.9369,-1220.91 L -11.5451,-1220.76 L -12.1289,-1220.52 L -12.6791,-1220.22
 L -13.1871,-1219.85 L -13.6448,-1219.42 L -14.0451,-1218.94 L -14.3815,-1218.41 L -14.6489,-1217.84 L -14.8429,-1217.24
 L -14.9606,-1216.63 L -15,-1216 L -15,-1106 L -14.9606,-1105.37 L -14.8429,-1104.76 L -14.6489,-1104.16
 L -14.3815,-1103.59 L -14.0451,-1103.06 L -13.6448,-1102.58 L -13.1871,-1102.15 L -12.6791,-1101.78 L -12.1289,-1101.48
 L -11.5451,-1101.24 L -10.9369,-1101.09 L -10.3139,-1101.01 L 10.3139,-1101.01 z
M -9.75116,-1102.51 L -10.2495,-1102.57 L -10.7361,-1102.7 L -11.2031,-1102.88 L -11.6433,-1103.12 L -12.0497,-1103.42
 L -12.4159,-1103.76 L -12.7361,-1104.15 L -13.0052,-1104.57 L -13.2191,-1105.03 L -13.3743,-1105.51 L -13.4684,-1106
 L -13.5,-1106.5 L -13.5,-1215.5 L -13.4684,-1216 L -13.3743,-1216.49 L -13.2191,-1216.97 L -13.0052,-1217.43
 L -12.7361,-1217.85 L -12.4159,-1218.24 L -12.0497,-1218.58 L -11.6433,-1218.88 L -11.2031,-1219.12 L -10.7361,-1219.3
 L -10.2495,-1219.43 L -9.75116,-1219.49 L 9.75116,-1219.49 L 10.2495,-1219.43 L 10.7361,-1219.3 L 11.2031,-1219.12
 L 11.6433,-1218.88 L 12.0497,-1218.58 L 12.4159,-1218.24 L 12.7361,-1217.85 L 13.0052,-1217.43 L 13.2191,-1216.97
 L 13.3743,-1216.49 L 13.4684,-1216 L 13.5,-1215.5 L 13.5,-1106.5 L 13.4684,-1106 L 13.3743,-1105.51
 L 13.2191,-1105.03 L 13.0052,-1104.57 L 12.7361,-1104.15 L 12.4159,-1103.76 L 12.0497,-1103.42 L 11.6433,-1103.12
 L 11.2031,-1102.88 L 10.7361,-1102.7 L 10.2495,-1102.57 L 9.75116,-1102.51 z
M 10.9369,-972.089 L 11.5451,-972.245 L 12.1289,-972.476 L 12.6791,-972.778 L 13.1871,-973.147 L 13.6448,-973.577
 L 14.0451,-974.061 L 14.3815,-974.591 L 14.6489,-975.159 L 14.8429,-975.757 L 14.9606,-976.373 L 15,-977
 L 15,-1087 L 14.9606,-1087.63 L 14.8429,-1088.24 L 14.6489,-1088.84 L 14.3815,-1089.41 L 14.0451,-1089.94
 L 13.6448,-1090.42 L 13.1871,-1090.85 L 12.6791,-1091.22 L 12.1289,-1091.52 L 11.5451,-1091.76 L 10.9369,-1091.91
 L 10.3139,-1091.99 L -10.3139,-1091.99 L -10.9369,-1091.91 L -11.5451,-1091.76 L -12.1289,-1091.52 L -12.6791,-1091.22
 L -13.1871,-1090.85 L -13.6448,-1090.42 L -14.0451,-1089.94 L -14.3815,-1089.41 L -14.6489,-1088.84 L -14.8429,-1088.24
 L -14.9606,-1087.63 L -15,-1087 L -15,-977 L -14.9606,-976.373 L -14.8429,-975.757 L -14.6489,-975.159
 L -14.3815,-974.591 L -14.0451,-974.061 L -13.6448,-973.577 L -13.1871,-973.147 L -12.6791,-972.778 L -12.1289,-972.476
 L -11.5451,-972.245 L -10.9369,-972.089 L -10.3139,-972.01 L 10.3139,-972.01 z
M -9.75116,-973.508 L -10.2495,-973.571 L -10.7361,-973.696 L -11.2031,-973.881 L -11.6433,-974.123 L -12.0497,-974.418
 L -12.4159,-974.762 L -12.7361,-975.149 L -13.0052,-975.573 L -13.2191,-976.028 L -13.3743,-976.505 L -13.4684,-976.999
 L -13.5,-977.5 L -13.5,-1086.5 L -13.4684,-1087 L -13.3743,-1087.49 L -13.2191,-1087.97 L -13.0052,-1088.43
 L -12.7361,-1088.85 L -12.4159,-1089.24 L -12.0497,-1089.58 L -11.6433,-1089.88 L -11.2031,-1090.12 L -10.7361,-1090.3
 L -10.2495,-1090.43 L -9.75116,-1090.49 L 9.75116,-1090.49 L 10.2495,-1090.43 L 10.7361,-1090.3 L 11.2031,-1090.12
 L 11.6433,-1089.88 L 12.0497,-1089.58 L 12.4159,-1089.24 L 12.7361,-1088.85 L 13.0052,-1088.43 L 13.2191,-1087.97
 L 13.3743,-1087.49 L 13.4684,-1087 L 13.5,-1086.5 L 13.5,-977.5 L 13.4684,-976.999 L 13.3743,-976.505
 L 13.2191,-976.028 L 13.0052,-975.573 L 12.7361,-975.149 L 12.4159,-974.762 L 12.0497,-974.418 L 11.6433,-974.123
 L 11.2031,-973.881 L 10.7361,-973.696 L 10.2495,-973.571 L 9.75116,-973.508 z
M 10.9369,-843.089 L 11.5451,-843.245 L 12.1289,-843.476 L 12.6791,-843.778 L 13.1871,-844.147 L 13.6448,-844.577
 L 14.0451,-845.061 L 14.3815,-845.591 L 14.6489,-846.159 L 14.8429,-846.757 L 14.9606,-847.373 L 15,-848
 L 15,-958 L 14.9606,-958.627 L 14.8429,-959.243 L 14.6489,-959.841 L 14.3815,-960.409 L 14.0451,-960.939
 L 13.6448,-961.423 L 13.1871,-961.853 L 12.6791,-962.222 L 12.1289,-962.524 L 11.5451,-962.755 L 10.9369,-962.911
 L 10.3139,-962.99 L -10.3139,-962.99 L -10.9369,-962.911 L -11.5451,-962.755 L -12.1289,-962.524 L -12.6791,-962.222
 L -13.1871,-961.853 L -13.6448,-961.423 L -14.0451,-960.939 L -14.3815,-960.409 L -14.6489,-959.841 L -14.8429,-959.243
 L -14.9606,-958.627 L -15,-958 L -15,-848 L -14.9606,-847.373 L -14.8429,-846.757 L -14.6489,-846.159
 L -14.3815,-845.591 L -14.0451,-845.061 L -13.6448,-844.577 L -13.1871,-844.147 L -12.6791,-843.778 L -12.1289,-843.476
 L -11.5451,-843.245 L -10.9369,-843.089 L -10.3139,-843.01 L 10.3139,-843.01 z
M -9.75116,-844.508 L -10.2495,-844.571 L -10.7361,-844.696 L -11.2031,-844.881 L -11.6433,-845.123 L -12.0497,-845.418
 L -12.4159,-845.762 L -12.7361,-846.149 L -13.0052,-846.573 L -13.2191,-847.028 L -13.3743,-847.505 L -13.4684,-847.999
 L -13.5,-848.5 L -13.5,-957.5 L -13.4684,-958.001 L -13.3743,-958.495 L -13.2191,-958.972 L -13.0052,-959.427
 L -12.7361,-959.851 L -12.4159,-960.238 L -12.0497,-960.582 L -11.6433,-960.877 L -11.2031,-961.119 L -10.7361,-961.304
 L -10.2495,-961.429 L -9.75116,-961.492 L 9.75116,-961.492 L 10.2495,-961.429 L 10.7361,-961.304 L 11.2031,-961.119
 L 11.6433,-960.877 L 12.0497,-960.582 L 12.4159,-960.238 L 12.7361,-959.851 L 13.0052,-959.427 L 13.2191,-958.972
 L 13.3743,-958.495 L 13.4684,-958.001 L 13.5,-957.5 L 13.5,-848.5 L 13.4684,-847.999 L 13.3743,-847.505
 L 13.2191,-847.028 L 13.0052,-846.573 L 12.7361,-846.149 L 12.4159,-845.762 L 12.0497,-845.418 L 11.6433,-845.123
 L 11.2031,-844.881 L 10.7361,-844.696 L 10.2495,-844.571 L 9.75116,-844.508 z
M 10.9369,-714.089 L 11.5451,-714.245 L 12.1289,-714.476 L 12.6791,-714.778 L 13.1871,-715.147 L 13.6448,-715.577
 L 14.0451,-716.061 L 14.3815,-716.591 L 14.6489,-717.159 L 14.8429,-717.757 L 14.9606,-718.373 L 15,-719
 L 15,-829 L 14.9606,-829.627 L 14.8429,-830.243 L 14.6489,-830.841 L 14.3815,-831.409 L 14.0451,-831.939
 L 13.6448,-832.423 L 13.1871,-832.853 L 12.6791,-833.222 L 12.1289,-833.524 L 11.5451,-833.755 L 10.9369,-833.911
 L 10.3139,-833.99 L -10.3139,-833.99 L -10.9369,-833.911 L -11.5451,-833.755 L -12.1289,-833.524 L -12.6791,-833.222
 L -13.1871,-832.853 L -13.6448,-832.423 L -14.0451,-831.939 L -14.3815,-831.409 L -14.6489,-830.841 L -14.8429,-830.243
 L -14.9606,-829.627 L -15,-829 L -15,-719 L -14.9606,-718.373 L -14.8429,-717.757 L -14.6489,-717.159
 L -14.3815,-716.591 L -14.0451,-716.061 L -13.6448,-715.577 L -13.1871,-715.147 L -12.6791,-714.778 L -12.1289,-714.476
 L -11.5451,-714.245 L -10.9369,-714.089 L -10.3139,-714.01 L 10.3139,-714.01 z
M -9.69545,-716.393 L -10.0833,-716.442 L -10.4619,-716.539 L -10.8254,-716.683 L -11.168,-716.872 L -11.4842,-717.101
 L -11.7692,-717.369 L -12.0184,-717.67 L -12.2279,-718 L -12.3943,-718.354 L -12.5151,-718.726 L -12.5884,-719.11
 L -12.6129,-719.5 L -12.6129,-828.5 L -12.5884,-828.89 L -12.5151,-829.274 L -12.3943,-829.646 L -12.2279,-830
 L -12.0184,-830.33 L -11.7692,-830.631 L -11.4842,-830.899 L -11.168,-831.128 L -10.8254,-831.317 L -10.4619,-831.461
 L -10.0833,-831.558 L -9.69545,-831.607 L 9.69545,-831.607 L 10.0833,-831.558 L 10.4619,-831.461 L 10.8254,-831.317
 L 11.168,-831.128 L 11.4842,-830.899 L 11.7692,-830.631 L 12.0184,-830.33 L 12.2279,-830 L 12.3943,-829.646
 L 12.5151,-829.274 L 12.5884,-828.89 L 12.6129,-828.5 L 12.6129,-719.5 L 12.5884,-719.11 L 12.5151,-718.726
 L 12.3943,-718.354 L 12.2279,-718 L 12.0184,-717.67 L 11.7692,-717.369 L 11.4842,-717.101 L 11.168,-716.872
 L 10.8254,-716.683 L 10.4619,-716.539 L 10.0833,-716.442 L 9.69545,-716.393 z
M 10.9369,-585.089 L 11.5451,-585.245 L 12.1289,-585.476 L 12.6791,-585.778 L 13.1871,-586.147 L 13.6448,-586.577
 L 14.0451,-587.061 L 14.3815,-587.591 L 14.6489,-588.159 L 14.8429,-588.757 L 14.9606,-589.373 L 15,-590
 L 15,-700 L 14.9606,-700.627 L 14.8429,-701.243 L 14.6489,-701.841 L 14.3815,-702.409 L 14.0451,-702.939
 L 13.6448,-703.423 L 13.1871,-703.853 L 12.6791,-704.222 L 12.1289,-704.524 L 11.5451,-704.755 L 10.9369,-704.911
 L 10.3139,-704.99 L -10.3139,-704.99 L -10.9369,-704.911 L -11.5451,-704.755 L -12.1289,-704.524 L -12.6791,-704.222
 L -13.1871,-703.853 L -13.6448,-703.423 L -14.0451,-702.939 L -14.3815,-702.409 L -14.6489,-701.841 L -14.8429,-701.243
 L -14.9606,-700.627 L -15,-700 L -15,-590 L -14.9606,-589.373 L -14.8429,-588.757 L -14.6489,-588.159
 L -14.3815,-587.591 L -14.0451,-587.061 L -13.6448,-586.577 L -13.1871,-586.147 L -12.6791,-585.778 L -12.1289,-585.476
 L -11.5451,-585.245 L -10.9369,-585.089 L -10.3139,-585.01 L 10.3139,-585.01 z
M 7.36592,-695.369 L 7.09988,-695.403 L 6.84015,-695.469 L 6.59084,-695.568 L 6.35585,-695.697 L 6.1389,-695.855
 L 5.94344,-696.038 L 5.77251,-696.245 L 5.62881,-696.471 L 5.51465,-696.714 L 5.43178,-696.969 L 5.38153,-697.232
 L 5.3647,-697.5 L 5.38153,-697.768 L 5.43178,-698.031 L 5.51465,-698.286 L 5.62881,-698.529 L 5.77251,-698.755
 L 5.94344,-698.962 L 6.1389,-699.145 L 6.35585,-699.303 L 6.59084,-699.432 L 6.84015,-699.531 L 7.09988,-699.597
 L 7.36592,-699.631 L 7.63406,-699.631 L 7.9001,-699.597 L 8.15984,-699.531 L 8.40915,-699.432 L 8.64413,-699.303
 L 8.86108,-699.145 L 9.05655,-698.962 L 9.22748,-698.755 L 9.37117,-698.529 L 9.48534,-698.286 L 9.56821,-698.031
 L 9.61845,-697.768 L 9.63528,-697.5 L 9.61845,-697.232 L 9.56821,-696.969 L 9.48534,-696.714 L 9.37117,-696.471
 L 9.22748,-696.245 L 9.05655,-696.038 L 8.86108,-695.855 L 8.64413,-695.697 L 8.40915,-695.568 L 8.15984,-695.469
 L 7.9001,-695.403 L 7.63406,-695.369 z
M -7.63406,-695.369 L -7.9001,-695.403 L -8.15984,-695.469 L -8.40915,-695.568 L -8.64413,-695.697 L -8.86108,-695.855
 L -9.05655,-696.038 L -9.22748,-696.245 L -9.37117,-696.471 L -9.48534,-696.714 L -9.56821,-696.969 L -9.61845,-697.232
 L -9.63528,-697.5 L -9.61845,-697.768 L -9.56821,-698.031 L -9.48534,-698.286 L -9.37117,-698.529 L -9.22748,-698.755
 L -9.05655,-698.962 L -8.86108,-699.145 L -8.64413,-699.303 L -8.40915,-699.432 L -8.15984,-699.531 L -7.9001,-699.597
 L -7.63406,-699.631 L -7.36592,-699.631 L -7.09988,-699.597 L -6.84015,-699.531 L -6.59084,-699.432 L -6.35585,-699.303
 L -6.1389,-699.145 L -5.94344,-698.962 L -5.77251,-698.755 L -5.62881,-698.529 L -5.51465,-698.286 L -5.43178,-698.031
 L -5.38153,-697.768 L -5.3647,-697.5 L -5.38153,-697.232 L -5.43178,-696.969 L -5.51465,-696.714 L -5.62881,-696.471
 L -5.77251,-696.245 L -5.94344,-696.038 L -6.1389,-695.855 L -6.35585,-695.697 L -6.59084,-695.568 L -6.84015,-695.469
 L -7.09988,-695.403 L -7.36592,-695.369 z
M 7.36592,-590.369 L 7.09988,-590.403 L 6.84015,-590.469 L 6.59084,-590.568 L 6.35585,-590.697 L 6.1389,-590.855
 L 5.94344,-591.038 L 5.77251,-591.245 L 5.62881,-591.471 L 5.51465,-591.714 L 5.43178,-591.969 L 5.38153,-592.232
 L 5.3647,-592.5 L 5.38153,-592.768 L 5.43178,-593.031 L 5.51465,-593.286 L 5.62881,-593.529 L 5.77251,-593.755
 L 5.94344,-593.962 L 6.1389,-594.145 L 6.35585,-594.303 L 6.59084,-594.432 L 6.84015,-594.531 L 7.09988,-594.597
 L 7.36592,-594.631 L 7.63406,-594.631 L 7.9001,-594.597 L 8.15984,-594.531 L 8.40915,-594.432 L 8.64413,-594.303
 L 8.86108,-594.145 L 9.05655,-593.962 L 9.22748,-593.755 L 9.37117,-593.529 L 9.48534,-593.286 L 9.56821,-593.031
 L 9.61845,-592.768 L 9.63528,-592.5 L 9.61845,-592.232 L 9.56821,-591.969 L 9.48534,-591.714 L 9.37117,-591.471
 L 9.22748,-591.245 L 9.05655,-591.038 L 8.86108,-590.855 L 8.64413,-590.697 L 8.40915,-590.568 L 8.15984,-590.469
 L 7.9001,-590.403 L 7.63406,-590.369 z
M -7.63406,-590.369 L -7.9001,-590.403 L -8.15984,-590.469 L -8.40915,-590.568 L -8.64413,-590.697 L -8.86108,-590.855
 L -9.05655,-591.038 L -9.22748,-591.245 L -9.37117,-591.471 L -9.48534,-591.714 L -9.56821,-591.969 L -9.61845,-592.232
 L -9.63528,-592.5 L -9.61845,-592.768 L -9.56821,-593.031 L -9.48534,-593.286 L -9.37117,-593.529 L -9.22748,-593.755
 L -9.05655,-593.962 L -8.86108,-594.145 L -8.64413,-594.303 L -8.40915,-594.432 L -8.15984,-594.531 L -7.9001,-594.597
 L -7.63406,-594.631 L -7.36592,-594.631 L -7.09988,-594.597 L -6.84015,-594.531 L -6.59084,-594.432 L -6.35585,-594.303
 L -6.1389,-594.145 L -5.94344,-593.962 L -5.77251,-593.755 L -5.62881,-593.529 L -5.51465,-593.286 L -5.43178,-593.031
 L -5.38153,-592.768 L -5.3647,-592.5 L -5.38153,-592.232 L -5.43178,-591.969 L -5.51465,-591.714 L -5.62881,-591.471
 L -5.77251,-591.245 L -5.94344,-591.038 L -6.1389,-590.855 L -6.35585,-590.697 L -6.59084,-590.568 L -6.84015,-590.469
 L -7.09988,-590.403 L -7.36592,-590.369 z
" stroke="black" fill="lightgray" stroke-width="0.5"/>
</svg>
