  0
SECTION
  2
BLOCKS
  0
ENDSEC
  0
SECTION
  2
ENTITIES
  0
LINE
  8
0
 10
3.4369
 20
517.589
 11
4.04507
 21
517.745
  0
LINE
  8
0
 10
4.04507
 20
517.745
 11
4.62889
 21
517.976
  0
LINE
  8
0
 10
4.62889
 20
517.976
 11
5.17912
 21
518.278
  0
LINE
  8
0
 10
5.17912
 20
518.278
 11
5.68712
 21
518.647
  0
LINE
  8
0
 10
5.68712
 20
518.647
 11
6.14484
 21
519.077
  0
LINE
  8
0
 10
6.14484
 20
519.077
 11
6.54507
 21
519.561
  0
LINE
  8
0
 10
6.54507
 20
519.561
 11
6.88153
 21
520.091
  0
LINE
  8
0
 10
6.88153
 20
520.091
 11
7.14888
 21
520.659
  0
LINE
  8
0
 10
7.14888
 20
520.659
 11
7.34291
 21
521.257
  0
LINE
  8
0
 10
7.34291
 20
521.257
 11
7.46057
 21
521.873
  0
LINE
  8
0
 10
7.46057
 20
521.873
 11
7.5
 21
522.5
  0
LINE
  8
0
 10
7.5
 20
522.5
 11
7.5
 21
617.5
  0
LINE
  8
0
 10
7.5
 20
617.5
 11
7.46057
 21
618.127
  0
LINE
  8
0
 10
7.46057
 20
618.127
 11
7.34291
 21
618.743
  0
LINE
  8
0
 10
7.34291
 20
618.743
 11
7.14888
 21
619.341
  0
LINE
  8
0
 10
7.14888
 20
619.341
 11
6.88153
 21
619.909
  0
LINE
  8
0
 10
6.88153
 20
619.909
 11
6.54507
 21
620.439
  0
LINE
  8
0
 10
6.54507
 20
620.439
 11
6.14484
 21
620.923
  0
LINE
  8
0
 10
6.14484
 20
620.923
 11
5.68712
 21
621.353
  0
LINE
  8
0
 10
5.68712
 20
621.353
 11
5.17912
 21
621.722
  0
LINE
  8
0
 10
5.17912
 20
621.722
 11
4.62889
 21
622.024
  0
LINE
  8
0
 10
4.62889
 20
622.024
 11
4.04507
 21
622.255
  0
LINE
  8
0
 10
4.04507
 20
622.255
 11
3.4369
 21
622.411
  0
LINE
  8
0
 10
3.4369
 20
622.411
 11
2.81395
 21
622.49
  0
LINE
  8
0
 10
2.81395
 20
622.49
 11
-2.81395
 21
622.49
  0
LINE
  8
0
 10
-2.81395
 20
622.49
 11
-3.4369
 21
622.411
  0
LINE
  8
0
 10
-3.4369
 20
622.411
 11
-4.04507
 21
622.255
  0
LINE
  8
0
 10
-4.04507
 20
622.255
 11
-4.62889
 21
622.024
  0
LINE
  8
0
 10
-4.62889
 20
622.024
 11
-5.17912
 21
621.722
  0
LINE
  8
0
 10
-5.17912
 20
621.722
 11
-5.68712
 21
621.353
  0
LINE
  8
0
 10
-5.68712
 20
621.353
 11
-6.14484
 21
620.923
  0
LINE
  8
0
 10
-6.14484
 20
620.923
 11
-6.54507
 21
620.439
  0
LINE
  8
0
 10
-6.54507
 20
620.439
 11
-6.88153
 21
619.909
  0
LINE
  8
0
 10
-6.88153
 20
619.909
 11
-7.14888
 21
619.341
  0
LINE
  8
0
 10
-7.14888
 20
619.341
 11
-7.34291
 21
618.743
  0
LINE
  8
0
 10
-7.34291
 20
618.743
 11
-7.46057
 21
618.127
  0
LINE
  8
0
 10
-7.46057
 20
618.127
 11
-7.5
 21
617.5
  0
LINE
  8
0
 10
-7.5
 20
617.5
 11
-7.5
 21
522.5
  0
LINE
  8
0
 10
-7.5
 20
522.5
 11
-7.46057
 21
521.873
  0
LINE
  8
0
 10
-7.46057
 20
521.873
 11
-7.34291
 21
521.257
  0
LINE
  8
0
 10
-7.34291
 20
521.257
 11
-7.14888
 21
520.659
  0
LINE
  8
0
 10
-7.14888
 20
520.659
 11
-6.88153
 21
520.091
  0
LINE
  8
0
 10
-6.88153
 20
520.091
 11
-6.54507
 21
519.561
  0
LINE
  8
0
 10
-6.54507
 20
519.561
 11
-6.14484
 21
519.077
  0
LINE
  8
0
 10
-6.14484
 20
519.077
 11
-5.68712
 21
518.647
  0
LINE
  8
0
 10
-5.68712
 20
518.647
 11
-5.17912
 21
518.278
  0
LINE
  8
0
 10
-5.17912
 20
518.278
 11
-4.62889
 21
517.976
  0
LINE
  8
0
 10
-4.62889
 20
517.976
 11
-4.04507
 21
517.745
  0
LINE
  8
0
 10
-4.04507
 20
517.745
 11
-3.4369
 21
517.589
  0
LINE
  8
0
 10
-3.4369
 20
517.589
 11
-2.81395
 21
517.51
  0
LINE
  8
0
 10
-2.81395
 20
517.51
 11
2.81395
 21
517.51
  0
LINE
  8
0
 10
2.81395
 20
517.51
 11
3.4369
 21
517.589
  0
LINE
  8
0
 10
-2.25116
 20
519.008
 11
-2.74951
 21
519.071
  0
LINE
  8
0
 10
-2.74951
 20
519.071
 11
-3.23605
 21
519.196
  0
LINE
  8
0
 10
-3.23605
 20
519.196
 11
-3.70311
 21
519.381
  0
LINE
  8
0
 10
-3.70311
 20
519.381
 11
-4.1433
 21
519.623
  0
LINE
  8
0
 10
-4.1433
 20
519.623
 11
-4.54968
 21
519.918
  0
LINE
  8
0
 10
-4.54968
 20
519.918
 11
-4.91586
 21
520.262
  0
LINE
  8
0
 10
-4.91586
 20
520.262
 11
-5.23605
 21
520.649
  0
LINE
  8
0
 10
-5.23605
 20
520.649
 11
-5.50522
 21
521.073
  0
LINE
  8
0
 10
-5.50522
 20
521.073
 11
-5.7191
 21
521.528
  0
LINE
  8
0
 10
-5.7191
 20
521.528
 11
-5.87433
 21
522.005
  0
LINE
  8
0
 10
-5.87433
 20
522.005
 11
-5.96844
 21
522.499
  0
LINE
  8
0
 10
-5.96844
 20
522.499
 11
-6
 21
523
  0
LINE
  8
0
 10
-6
 20
523
 11
-6
 21
617
  0
LINE
  8
0
 10
-6
 20
617
 11
-5.96844
 21
617.501
  0
LINE
  8
0
 10
-5.96844
 20
617.501
 11
-5.87433
 21
617.995
  0
LINE
  8
0
 10
-5.87433
 20
617.995
 11
-5.7191
 21
618.472
  0
LINE
  8
0
 10
-5.7191
 20
618.472
 11
-5.50522
 21
618.927
  0
LINE
  8
0
 10
-5.50522
 20
618.927
 11
-5.23605
 21
619.351
  0
LINE
  8
0
 10
-5.23605
 20
619.351
 11
-4.91586
 21
619.738
  0
LINE
  8
0
 10
-4.91586
 20
619.738
 11
-4.54968
 21
620.082
  0
LINE
  8
0
 10
-4.54968
 20
620.082
 11
-4.1433
 21
620.377
  0
LINE
  8
0
 10
-4.1433
 20
620.377
 11
-3.70311
 21
620.619
  0
LINE
  8
0
 10
-3.70311
 20
620.619
 11
-3.23605
 21
620.804
  0
LINE
  8
0
 10
-3.23605
 20
620.804
 11
-2.74951
 21
620.929
  0
LINE
  8
0
 10
-2.74951
 20
620.929
 11
-2.25116
 21
620.992
  0
LINE
  8
0
 10
-2.25116
 20
620.992
 11
2.25116
 21
620.992
  0
LINE
  8
0
 10
2.25116
 20
620.992
 11
2.74951
 21
620.929
  0
LINE
  8
0
 10
2.74951
 20
620.929
 11
3.23605
 21
620.804
  0
LINE
  8
0
 10
3.23605
 20
620.804
 11
3.70311
 21
620.619
  0
LINE
  8
0
 10
3.70311
 20
620.619
 11
4.1433
 21
620.377
  0
LINE
  8
0
 10
4.1433
 20
620.377
 11
4.54968
 21
620.082
  0
LINE
  8
0
 10
4.54968
 20
620.082
 11
4.91586
 21
619.738
  0
LINE
  8
0
 10
4.91586
 20
619.738
 11
5.23605
 21
619.351
  0
LINE
  8
0
 10
5.23605
 20
619.351
 11
5.50522
 21
618.927
  0
LINE
  8
0
 10
5.50522
 20
618.927
 11
5.7191
 21
618.472
  0
LINE
  8
0
 10
5.7191
 20
618.472
 11
5.87433
 21
617.995
  0
LINE
  8
0
 10
5.87433
 20
617.995
 11
5.96844
 21
617.501
  0
LINE
  8
0
 10
5.96844
 20
617.501
 11
6
 21
617
  0
LINE
  8
0
 10
6
 20
617
 11
6
 21
523
  0
LINE
  8
0
 10
6
 20
523
 11
5.96844
 21
522.499
  0
LINE
  8
0
 10
5.96844
 20
522.499
 11
5.87433
 21
522.005
  0
LINE
  8
0
 10
5.87433
 20
522.005
 11
5.7191
 21
521.528
  0
LINE
  8
0
 10
5.7191
 20
521.528
 11
5.50522
 21
521.073
  0
LINE
  8
0
 10
5.50522
 20
521.073
 11
5.23605
 21
520.649
  0
LINE
  8
0
 10
5.23605
 20
520.649
 11
4.91586
 21
520.262
  0
LINE
  8
0
 10
4.91586
 20
520.262
 11
4.54968
 21
519.918
  0
LINE
  8
0
 10
4.54968
 20
519.918
 11
4.1433
 21
519.623
  0
LINE
  8
0
 10
4.1433
 20
519.623
 11
3.70311
 21
519.381
  0
LINE
  8
0
 10
3.70311
 20
519.381
 11
3.23605
 21
519.196
  0
LINE
  8
0
 10
3.23605
 20
519.196
 11
2.74951
 21
519.071
  0
LINE
  8
0
 10
2.74951
 20
519.071
 11
2.25116
 21
519.008
  0
LINE
  8
0
 10
2.25116
 20
519.008
 11
-2.25116
 21
519.008
  0
LINE
  8
0
 10
3.4369
 20
403.589
 11
4.04507
 21
403.745
  0
LINE
  8
0
 10
4.04507
 20
403.745
 11
4.62889
 21
403.976
  0
LINE
  8
0
 10
4.62889
 20
403.976
 11
5.17912
 21
404.278
  0
LINE
  8
0
 10
5.17912
 20
404.278
 11
5.68712
 21
404.647
  0
LINE
  8
0
 10
5.68712
 20
404.647
 11
6.14484
 21
405.077
  0
LINE
  8
0
 10
6.14484
 20
405.077
 11
6.54507
 21
405.561
  0
LINE
  8
0
 10
6.54507
 20
405.561
 11
6.88153
 21
406.091
  0
LINE
  8
0
 10
6.88153
 20
406.091
 11
7.14888
 21
406.659
  0
LINE
  8
0
 10
7.14888
 20
406.659
 11
7.34291
 21
407.257
  0
LINE
  8
0
 10
7.34291
 20
407.257
 11
7.46057
 21
407.873
  0
LINE
  8
0
 10
7.46057
 20
407.873
 11
7.5
 21
408.5
  0
LINE
  8
0
 10
7.5
 20
408.5
 11
7.5
 21
503.5
  0
LINE
  8
0
 10
7.5
 20
503.5
 11
7.46057
 21
504.127
  0
LINE
  8
0
 10
7.46057
 20
504.127
 11
7.34291
 21
504.743
  0
LINE
  8
0
 10
7.34291
 20
504.743
 11
7.14888
 21
505.341
  0
LINE
  8
0
 10
7.14888
 20
505.341
 11
6.88153
 21
505.909
  0
LINE
  8
0
 10
6.88153
 20
505.909
 11
6.54507
 21
506.439
  0
LINE
  8
0
 10
6.54507
 20
506.439
 11
6.14484
 21
506.923
  0
LINE
  8
0
 10
6.14484
 20
506.923
 11
5.68712
 21
507.353
  0
LINE
  8
0
 10
5.68712
 20
507.353
 11
5.17912
 21
507.722
  0
LINE
  8
0
 10
5.17912
 20
507.722
 11
4.62889
 21
508.024
  0
LINE
  8
0
 10
4.62889
 20
508.024
 11
4.04507
 21
508.255
  0
LINE
  8
0
 10
4.04507
 20
508.255
 11
3.4369
 21
508.411
  0
LINE
  8
0
 10
3.4369
 20
508.411
 11
2.81395
 21
508.49
  0
LINE
  8
0
 10
2.81395
 20
508.49
 11
-2.81395
 21
508.49
  0
LINE
  8
0
 10
-2.81395
 20
508.49
 11
-3.4369
 21
508.411
  0
LINE
  8
0
 10
-3.4369
 20
508.411
 11
-4.04507
 21
508.255
  0
LINE
  8
0
 10
-4.04507
 20
508.255
 11
-4.62889
 21
508.024
  0
LINE
  8
0
 10
-4.62889
 20
508.024
 11
-5.17912
 21
507.722
  0
LINE
  8
0
 10
-5.17912
 20
507.722
 11
-5.68712
 21
507.353
  0
LINE
  8
0
 10
-5.68712
 20
507.353
 11
-6.14484
 21
506.923
  0
LINE
  8
0
 10
-6.14484
 20
506.923
 11
-6.54507
 21
506.439
  0
LINE
  8
0
 10
-6.54507
 20
506.439
 11
-6.88153
 21
505.909
  0
LINE
  8
0
 10
-6.88153
 20
505.909
 11
-7.14888
 21
505.341
  0
LINE
  8
0
 10
-7.14888
 20
505.341
 11
-7.34291
 21
504.743
  0
LINE
  8
0
 10
-7.34291
 20
504.743
 11
-7.46057
 21
504.127
  0
LINE
  8
0
 10
-7.46057
 20
504.127
 11
-7.5
 21
503.5
  0
LINE
  8
0
 10
-7.5
 20
503.5
 11
-7.5
 21
408.5
  0
LINE
  8
0
 10
-7.5
 20
408.5
 11
-7.46057
 21
407.873
  0
LINE
  8
0
 10
-7.46057
 20
407.873
 11
-7.34291
 21
407.257
  0
LINE
  8
0
 10
-7.34291
 20
407.257
 11
-7.14888
 21
406.659
  0
LINE
  8
0
 10
-7.14888
 20
406.659
 11
-6.88153
 21
406.091
  0
LINE
  8
0
 10
-6.88153
 20
406.091
 11
-6.54507
 21
405.561
  0
LINE
  8
0
 10
-6.54507
 20
405.561
 11
-6.14484
 21
405.077
  0
LINE
  8
0
 10
-6.14484
 20
405.077
 11
-5.68712
 21
404.647
  0
LINE
  8
0
 10
-5.68712
 20
404.647
 11
-5.17912
 21
404.278
  0
LINE
  8
0
 10
-5.17912
 20
404.278
 11
-4.62889
 21
403.976
  0
LINE
  8
0
 10
-4.62889
 20
403.976
 11
-4.04507
 21
403.745
  0
LINE
  8
0
 10
-4.04507
 20
403.745
 11
-3.4369
 21
403.589
  0
LINE
  8
0
 10
-3.4369
 20
403.589
 11
-2.81395
 21
403.51
  0
LINE
  8
0
 10
-2.81395
 20
403.51
 11
2.81395
 21
403.51
  0
LINE
  8
0
 10
2.81395
 20
403.51
 11
3.4369
 21
403.589
  0
LINE
  8
0
 10
-2.19545
 20
405.893
 11
-2.5833
 21
405.942
  0
LINE
  8
0
 10
-2.5833
 20
405.942
 11
-2.96194
 21
406.039
  0
LINE
  8
0
 10
-2.96194
 20
406.039
 11
-3.32541
 21
406.183
  0
LINE
  8
0
 10
-3.32541
 20
406.183
 11
-3.66798
 21
406.372
  0
LINE
  8
0
 10
-3.66798
 20
406.372
 11
-3.98424
 21
406.601
  0
LINE
  8
0
 10
-3.98424
 20
406.601
 11
-4.26921
 21
406.869
  0
LINE
  8
0
 10
-4.26921
 20
406.869
 11
-4.5184
 21
407.17
  0
LINE
  8
0
 10
-4.5184
 20
407.17
 11
-4.72786
 21
407.5
  0
LINE
  8
0
 10
-4.72786
 20
407.5
 11
-4.89432
 21
407.854
  0
LINE
  8
0
 10
-4.89432
 20
407.854
 11
-5.01512
 21
408.226
  0
LINE
  8
0
 10
-5.01512
 20
408.226
 11
-5.08836
 21
408.61
  0
LINE
  8
0
 10
-5.08836
 20
408.61
 11
-5.11292
 21
409
  0
LINE
  8
0
 10
-5.11292
 20
409
 11
-5.11292
 21
503
  0
LINE
  8
0
 10
-5.11292
 20
503
 11
-5.08836
 21
503.39
  0
LINE
  8
0
 10
-5.08836
 20
503.39
 11
-5.01512
 21
503.774
  0
LINE
  8
0
 10
-5.01512
 20
503.774
 11
-4.89432
 21
504.146
  0
LINE
  8
0
 10
-4.89432
 20
504.146
 11
-4.72786
 21
504.5
  0
LINE
  8
0
 10
-4.72786
 20
504.5
 11
-4.5184
 21
504.83
  0
LINE
  8
0
 10
-4.5184
 20
504.83
 11
-4.26921
 21
505.131
  0
LINE
  8
0
 10
-4.26921
 20
505.131
 11
-3.98424
 21
505.399
  0
LINE
  8
0
 10
-3.98424
 20
505.399
 11
-3.66798
 21
505.628
  0
LINE
  8
0
 10
-3.66798
 20
505.628
 11
-3.32541
 21
505.817
  0
LINE
  8
0
 10
-3.32541
 20
505.817
 11
-2.96194
 21
505.961
  0
LINE
  8
0
 10
-2.96194
 20
505.961
 11
-2.5833
 21
506.058
  0
LINE
  8
0
 10
-2.5833
 20
506.058
 11
-2.19545
 21
506.107
  0
LINE
  8
0
 10
-2.19545
 20
506.107
 11
2.19545
 21
506.107
  0
LINE
  8
0
 10
2.19545
 20
506.107
 11
2.5833
 21
506.058
  0
LINE
  8
0
 10
2.5833
 20
506.058
 11
2.96194
 21
505.961
  0
LINE
  8
0
 10
2.96194
 20
505.961
 11
3.32541
 21
505.817
  0
LINE
  8
0
 10
3.32541
 20
505.817
 11
3.66798
 21
505.628
  0
LINE
  8
0
 10
3.66798
 20
505.628
 11
3.98424
 21
505.399
  0
LINE
  8
0
 10
3.98424
 20
505.399
 11
4.26921
 21
505.131
  0
LINE
  8
0
 10
4.26921
 20
505.131
 11
4.5184
 21
504.83
  0
LINE
  8
0
 10
4.5184
 20
504.83
 11
4.72786
 21
504.5
  0
LINE
  8
0
 10
4.72786
 20
504.5
 11
4.89432
 21
504.146
  0
LINE
  8
0
 10
4.89432
 20
504.146
 11
5.01512
 21
503.774
  0
LINE
  8
0
 10
5.01512
 20
503.774
 11
5.08836
 21
503.39
  0
LINE
  8
0
 10
5.08836
 20
503.39
 11
5.11292
 21
503
  0
LINE
  8
0
 10
5.11292
 20
503
 11
5.11292
 21
409
  0
LINE
  8
0
 10
5.11292
 20
409
 11
5.08836
 21
408.61
  0
LINE
  8
0
 10
5.08836
 20
408.61
 11
5.01512
 21
408.226
  0
LINE
  8
0
 10
5.01512
 20
408.226
 11
4.89432
 21
407.854
  0
LINE
  8
0
 10
4.89432
 20
407.854
 11
4.72786
 21
407.5
  0
LINE
  8
0
 10
4.72786
 20
407.5
 11
4.5184
 21
407.17
  0
LINE
  8
0
 10
4.5184
 20
407.17
 11
4.26921
 21
406.869
  0
LINE
  8
0
 10
4.26921
 20
406.869
 11
3.98424
 21
406.601
  0
LINE
  8
0
 10
3.98424
 20
406.601
 11
3.66798
 21
406.372
  0
LINE
  8
0
 10
3.66798
 20
406.372
 11
3.32541
 21
406.183
  0
LINE
  8
0
 10
3.32541
 20
406.183
 11
2.96194
 21
406.039
  0
LINE
  8
0
 10
2.96194
 20
406.039
 11
2.5833
 21
405.942
  0
LINE
  8
0
 10
2.5833
 20
405.942
 11
2.19545
 21
405.893
  0
LINE
  8
0
 10
2.19545
 20
405.893
 11
-2.19545
 21
405.893
  0
LINE
  8
0
 10
3.4369
 20
289.589
 11
4.04507
 21
289.745
  0
LINE
  8
0
 10
4.04507
 20
289.745
 11
4.62889
 21
289.976
  0
LINE
  8
0
 10
4.62889
 20
289.976
 11
5.17912
 21
290.278
  0
LINE
  8
0
 10
5.17912
 20
290.278
 11
5.68712
 21
290.647
  0
LINE
  8
0
 10
5.68712
 20
290.647
 11
6.14484
 21
291.077
  0
LINE
  8
0
 10
6.14484
 20
291.077
 11
6.54507
 21
291.561
  0
LINE
  8
0
 10
6.54507
 20
291.561
 11
6.88153
 21
292.091
  0
LINE
  8
0
 10
6.88153
 20
292.091
 11
7.14888
 21
292.659
  0
LINE
  8
0
 10
7.14888
 20
292.659
 11
7.34291
 21
293.257
  0
LINE
  8
0
 10
7.34291
 20
293.257
 11
7.46057
 21
293.873
  0
LINE
  8
0
 10
7.46057
 20
293.873
 11
7.5
 21
294.5
  0
LINE
  8
0
 10
7.5
 20
294.5
 11
7.5
 21
389.5
  0
LINE
  8
0
 10
7.5
 20
389.5
 11
7.46057
 21
390.127
  0
LINE
  8
0
 10
7.46057
 20
390.127
 11
7.34291
 21
390.743
  0
LINE
  8
0
 10
7.34291
 20
390.743
 11
7.14888
 21
391.341
  0
LINE
  8
0
 10
7.14888
 20
391.341
 11
6.88153
 21
391.909
  0
LINE
  8
0
 10
6.88153
 20
391.909
 11
6.54507
 21
392.439
  0
LINE
  8
0
 10
6.54507
 20
392.439
 11
6.14484
 21
392.923
  0
LINE
  8
0
 10
6.14484
 20
392.923
 11
5.68712
 21
393.353
  0
LINE
  8
0
 10
5.68712
 20
393.353
 11
5.17912
 21
393.722
  0
LINE
  8
0
 10
5.17912
 20
393.722
 11
4.62889
 21
394.024
  0
LINE
  8
0
 10
4.62889
 20
394.024
 11
4.04507
 21
394.255
  0
LINE
  8
0
 10
4.04507
 20
394.255
 11
3.4369
 21
394.411
  0
LINE
  8
0
 10
3.4369
 20
394.411
 11
2.81395
 21
394.49
  0
LINE
  8
0
 10
2.81395
 20
394.49
 11
-2.81395
 21
394.49
  0
LINE
  8
0
 10
-2.81395
 20
394.49
 11
-3.4369
 21
394.411
  0
LINE
  8
0
 10
-3.4369
 20
394.411
 11
-4.04507
 21
394.255
  0
LINE
  8
0
 10
-4.04507
 20
394.255
 11
-4.62889
 21
394.024
  0
LINE
  8
0
 10
-4.62889
 20
394.024
 11
-5.17912
 21
393.722
  0
LINE
  8
0
 10
-5.17912
 20
393.722
 11
-5.68712
 21
393.353
  0
LINE
  8
0
 10
-5.68712
 20
393.353
 11
-6.14484
 21
392.923
  0
LINE
  8
0
 10
-6.14484
 20
392.923
 11
-6.54507
 21
392.439
  0
LINE
  8
0
 10
-6.54507
 20
392.439
 11
-6.88153
 21
391.909
  0
LINE
  8
0
 10
-6.88153
 20
391.909
 11
-7.14888
 21
391.341
  0
LINE
  8
0
 10
-7.14888
 20
391.341
 11
-7.34291
 21
390.743
  0
LINE
  8
0
 10
-7.34291
 20
390.743
 11
-7.46057
 21
390.127
  0
LINE
  8
0
 10
-7.46057
 20
390.127
 11
-7.5
 21
389.5
  0
LINE
  8
0
 10
-7.5
 20
389.5
 11
-7.5
 21
294.5
  0
LINE
  8
0
 10
-7.5
 20
294.5
 11
-7.46057
 21
293.873
  0
LINE
  8
0
 10
-7.46057
 20
293.873
 11
-7.34291
 21
293.257
  0
LINE
  8
0
 10
-7.34291
 20
293.257
 11
-7.14888
 21
292.659
  0
LINE
  8
0
 10
-7.14888
 20
292.659
 11
-6.88153
 21
292.091
  0
LINE
  8
0
 10
-6.88153
 20
292.091
 11
-6.54507
 21
291.561
  0
LINE
  8
0
 10
-6.54507
 20
291.561
 11
-6.14484
 21
291.077
  0
LINE
  8
0
 10
-6.14484
 20
291.077
 11
-5.68712
 21
290.647
  0
LINE
  8
0
 10
-5.68712
 20
290.647
 11
-5.17912
 21
290.278
  0
LINE
  8
0
 10
-5.17912
 20
290.278
 11
-4.62889
 21
289.976
  0
LINE
  8
0
 10
-4.62889
 20
289.976
 11
-4.04507
 21
289.745
  0
LINE
  8
0
 10
-4.04507
 20
289.745
 11
-3.4369
 21
289.589
  0
LINE
  8
0
 10
-3.4369
 20
289.589
 11
-2.81395
 21
289.51
  0
LINE
  8
0
 10
-2.81395
 20
289.51
 11
2.81395
 21
289.51
  0
LINE
  8
0
 10
2.81395
 20
289.51
 11
3.4369
 21
289.589
  0
LINE
  8
0
 10
-0.134064
 20
384.869
 11
-0.400101
 21
384.903
  0
LINE
  8
0
 10
-0.400101
 20
384.903
 11
-0.659836
 21
384.969
  0
LINE
  8
0
 10
-0.659836
 20
384.969
 11
-0.909149
 21
385.068
  0
LINE
  8
0
 10
-0.909149
 20
385.068
 11
-1.14413
 21
385.197
  0
LINE
  8
0
 10
-1.14413
 20
385.197
 11
-1.36108
 21
385.355
  0
LINE
  8
0
 10
-1.36108
 20
385.355
 11
-1.55655
 21
385.538
  0
LINE
  8
0
 10
-1.55655
 20
385.538
 11
-1.72748
 21
385.745
  0
LINE
  8
0
 10
-1.72748
 20
385.745
 11
-1.87117
 21
385.971
  0
LINE
  8
0
 10
-1.87117
 20
385.971
 11
-1.98534
 21
386.214
  0
LINE
  8
0
 10
-1.98534
 20
386.214
 11
-2.06821
 21
386.469
  0
LINE
  8
0
 10
-2.06821
 20
386.469
 11
-2.11845
 21
386.732
  0
LINE
  8
0
 10
-2.11845
 20
386.732
 11
-2.13528
 21
387
  0
LINE
  8
0
 10
-2.13528
 20
387
 11
-2.11845
 21
387.268
  0
LINE
  8
0
 10
-2.11845
 20
387.268
 11
-2.06821
 21
387.531
  0
LINE
  8
0
 10
-2.06821
 20
387.531
 11
-1.98534
 21
387.786
  0
LINE
  8
0
 10
-1.98534
 20
387.786
 11
-1.87117
 21
388.029
  0
LINE
  8
0
 10
-1.87117
 20
388.029
 11
-1.72748
 21
388.255
  0
LINE
  8
0
 10
-1.72748
 20
388.255
 11
-1.55655
 21
388.462
  0
LINE
  8
0
 10
-1.55655
 20
388.462
 11
-1.36108
 21
388.645
  0
LINE
  8
0
 10
-1.36108
 20
388.645
 11
-1.14413
 21
388.803
  0
LINE
  8
0
 10
-1.14413
 20
388.803
 11
-0.909149
 21
388.932
  0
LINE
  8
0
 10
-0.909149
 20
388.932
 11
-0.659836
 21
389.031
  0
LINE
  8
0
 10
-0.659836
 20
389.031
 11
-0.400101
 21
389.097
  0
LINE
  8
0
 10
-0.400101
 20
389.097
 11
-0.134064
 21
389.131
  0
LINE
  8
0
 10
-0.134064
 20
389.131
 11
0.134064
 21
389.131
  0
LINE
  8
0
 10
0.134064
 20
389.131
 11
0.400101
 21
389.097
  0
LINE
  8
0
 10
0.400101
 20
389.097
 11
0.659836
 21
389.031
  0
LINE
  8
0
 10
0.659836
 20
389.031
 11
0.909149
 21
388.932
  0
LINE
  8
0
 10
0.909149
 20
388.932
 11
1.14413
 21
388.803
  0
LINE
  8
0
 10
1.14413
 20
388.803
 11
1.36108
 21
388.645
  0
LINE
  8
0
 10
1.36108
 20
388.645
 11
1.55655
 21
388.462
  0
LINE
  8
0
 10
1.55655
 20
388.462
 11
1.72748
 21
388.255
  0
LINE
  8
0
 10
1.72748
 20
388.255
 11
1.87117
 21
388.029
  0
LINE
  8
0
 10
1.87117
 20
388.029
 11
1.98534
 21
387.786
  0
LINE
  8
0
 10
1.98534
 20
387.786
 11
2.06821
 21
387.531
  0
LINE
  8
0
 10
2.06821
 20
387.531
 11
2.11845
 21
387.268
  0
LINE
  8
0
 10
2.11845
 20
387.268
 11
2.13528
 21
387
  0
LINE
  8
0
 10
2.13528
 20
387
 11
2.11845
 21
386.732
  0
LINE
  8
0
 10
2.11845
 20
386.732
 11
2.06821
 21
386.469
  0
LINE
  8
0
 10
2.06821
 20
386.469
 11
1.98534
 21
386.214
  0
LINE
  8
0
 10
1.98534
 20
386.214
 11
1.87117
 21
385.971
  0
LINE
  8
0
 10
1.87117
 20
385.971
 11
1.72748
 21
385.745
  0
LINE
  8
0
 10
1.72748
 20
385.745
 11
1.55655
 21
385.538
  0
LINE
  8
0
 10
1.55655
 20
385.538
 11
1.36108
 21
385.355
  0
LINE
  8
0
 10
1.36108
 20
385.355
 11
1.14413
 21
385.197
  0
LINE
  8
0
 10
1.14413
 20
385.197
 11
0.909149
 21
385.068
  0
LINE
  8
0
 10
0.909149
 20
385.068
 11
0.659836
 21
384.969
  0
LINE
  8
0
 10
0.659836
 20
384.969
 11
0.400101
 21
384.903
  0
LINE
  8
0
 10
0.400101
 20
384.903
 11
0.134064
 21
384.869
  0
LINE
  8
0
 10
0.134064
 20
384.869
 11
-0.134064
 21
384.869
  0
LINE
  8
0
 10
-0.134064
 20
294.869
 11
-0.400101
 21
294.903
  0
LINE
  8
0
 10
-0.400101
 20
294.903
 11
-0.659836
 21
294.969
  0
LINE
  8
0
 10
-0.659836
 20
294.969
 11
-0.909149
 21
295.068
  0
LINE
  8
0
 10
-0.909149
 20
295.068
 11
-1.14413
 21
295.197
  0
LINE
  8
0
 10
-1.14413
 20
295.197
 11
-1.36108
 21
295.355
  0
LINE
  8
0
 10
-1.36108
 20
295.355
 11
-1.55655
 21
295.538
  0
LINE
  8
0
 10
-1.55655
 20
295.538
 11
-1.72748
 21
295.745
  0
LINE
  8
0
 10
-1.72748
 20
295.745
 11
-1.87117
 21
295.971
  0
LINE
  8
0
 10
-1.87117
 20
295.971
 11
-1.98534
 21
296.214
  0
LINE
  8
0
 10
-1.98534
 20
296.214
 11
-2.06821
 21
296.469
  0
LINE
  8
0
 10
-2.06821
 20
296.469
 11
-2.11845
 21
296.732
  0
LINE
  8
0
 10
-2.11845
 20
296.732
 11
-2.13528
 21
297
  0
LINE
  8
0
 10
-2.13528
 20
297
 11
-2.11845
 21
297.268
  0
LINE
  8
0
 10
-2.11845
 20
297.268
 11
-2.06821
 21
297.531
  0
LINE
  8
0
 10
-2.06821
 20
297.531
 11
-1.98534
 21
297.786
  0
LINE
  8
0
 10
-1.98534
 20
297.786
 11
-1.87117
 21
298.029
  0
LINE
  8
0
 10
-1.87117
 20
298.029
 11
-1.72748
 21
298.255
  0
LINE
  8
0
 10
-1.72748
 20
298.255
 11
-1.55655
 21
298.462
  0
LINE
  8
0
 10
-1.55655
 20
298.462
 11
-1.36108
 21
298.645
  0
LINE
  8
0
 10
-1.36108
 20
298.645
 11
-1.14413
 21
298.803
  0
LINE
  8
0
 10
-1.14413
 20
298.803
 11
-0.909149
 21
298.932
  0
LINE
  8
0
 10
-0.909149
 20
298.932
 11
-0.659836
 21
299.031
  0
LINE
  8
0
 10
-0.659836
 20
299.031
 11
-0.400101
 21
299.097
  0
LINE
  8
0
 10
-0.400101
 20
299.097
 11
-0.134064
 21
299.131
  0
LINE
  8
0
 10
-0.134064
 20
299.131
 11
0.134064
 21
299.131
  0
LINE
  8
0
 10
0.134064
 20
299.131
 11
0.400101
 21
299.097
  0
LINE
  8
0
 10
0.400101
 20
299.097
 11
0.659836
 21
299.031
  0
LINE
  8
0
 10
0.659836
 20
299.031
 11
0.909149
 21
298.932
  0
LINE
  8
0
 10
0.909149
 20
298.932
 11
1.14413
 21
298.803
  0
LINE
  8
0
 10
1.14413
 20
298.803
 11
1.36108
 21
298.645
  0
LINE
  8
0
 10
1.36108
 20
298.645
 11
1.55655
 21
298.462
  0
LINE
  8
0
 10
1.55655
 20
298.462
 11
1.72748
 21
298.255
  0
LINE
  8
0
 10
1.72748
 20
298.255
 11
1.87117
 21
298.029
  0
LINE
  8
0
 10
1.87117
 20
298.029
 11
1.98534
 21
297.786
  0
LINE
  8
0
 10
1.98534
 20
297.786
 11
2.06821
 21
297.531
  0
LINE
  8
0
 10
2.06821
 20
297.531
 11
2.11845
 21
297.268
  0
LINE
  8
0
 10
2.11845
 20
297.268
 11
2.13528
 21
297
  0
LINE
  8
0
 10
2.13528
 20
297
 11
2.11845
 21
296.732
  0
LINE
  8
0
 10
2.11845
 20
296.732
 11
2.06821
 21
296.469
  0
LINE
  8
0
 10
2.06821
 20
296.469
 11
1.98534
 21
296.214
  0
LINE
  8
0
 10
1.98534
 20
296.214
 11
1.87117
 21
295.971
  0
LINE
  8
0
 10
1.87117
 20
295.971
 11
1.72748
 21
295.745
  0
LINE
  8
0
 10
1.72748
 20
295.745
 11
1.55655
 21
295.538
  0
LINE
  8
0
 10
1.55655
 20
295.538
 11
1.36108
 21
295.355
  0
LINE
  8
0
 10
1.36108
 20
295.355
 11
1.14413
 21
295.197
  0
LINE
  8
0
 10
1.14413
 20
295.197
 11
0.909149
 21
295.068
  0
LINE
  8
0
 10
0.909149
 20
295.068
 11
0.659836
 21
294.969
  0
LINE
  8
0
 10
0.659836
 20
294.969
 11
0.400101
 21
294.903
  0
LINE
  8
0
 10
0.400101
 20
294.903
 11
0.134064
 21
294.869
  0
LINE
  8
0
 10
0.134064
 20
294.869
 11
-0.134064
 21
294.869
  0
ENDSEC
  0
SECTION
  2
OBJECTS
  0
DICTIONARY
  0
ENDSEC
  0
EOF
