<?xml version="1.0" standalone="no"?>
<!DOCTYPE svg PUBLIC "-//W3C//DTD SVG 1.1//EN" "http://www.w3.org/Graphics/SVG/1.1/DTD/svg11.dtd">
<svg width="16mm" height="334mm" viewBox="-8 -623 16 334" xmlns="http://www.w3.org/2000/svg" version="1.1">
<title>OpenSCAD Model</title>
<path d="
M 3.4369,-517.589 L 4.04507,-517.745 L 4.62889,-517.976 L 5.17912,-518.278 L 5.68712,-518.647 L 6.14484,-519.077
 L 6.54507,-519.561 L 6.88153,-520.091 L 7.14888,-520.659 L 7.34291,-521.257 L 7.46057,-521.873 L 7.5,-522.5
 L 7.5,-617.5 L 7.46057,-618.127 L 7.34291,-618.743 L 7.14888,-619.341 L 6.88153,-619.909 L 6.54507,-620.439
 L 6.14484,-620.923 L 5.68712,-621.353 L 5.17912,-621.722 L 4.62889,-622.024 L 4.04507,-622.255 L 3.4369,-622.411
 L 2.81395,-622.49 L -2.81395,-622.49 L -3.4369,-622.411 L -4.04507,-622.255 L -4.62889,-622.024 L -5.17912,-621.722
 L -5.68712,-621.353 L -6.14484,-620.923 L -6.54507,-620.439 L -6.88153,-619.909 L -7.14888,-619.341 L -7.34291,-618.743
 L -7.46057,-618.127 L -7.5,-617.5 L -7.5,-522.5 L -7.46057,-521.873 L -7.34291,-521.257 L -7.14888,-520.659
 L -6.88153,-520.091 L -6.54507,-519.561 L -6.14484,-519.077 L -5.68712,-518.647 L -5.17912,-518.278 L -4.62889,-517.976
 L -4.04507,-517.745 L -3.4369,-517.589 L -2.81395,-517.51 L 2.81395,-517.51 z
M -2.25116,-519.008 L -2.74951,-519.071 L -3.23605,-519.196 L -3.70311,-519.381 L -4.1433,-519.623 L -4.54968,-519.918
 L -4.91586,-520.262 L -5.23605,-520.649 L -5.50522,-521.073 L -5.7191,-521.528 L -5.87433,-522.005 L -5.96844,-522.499
 L -6,-523 L -6,-617 L -5.96844,-617.501 L -5.87433,-617.995 L -5.7191,-618.472 L -5.50522,-618.927
 L -5.23605,-619.351 L -4.91586,-619.738 L -4.54968,-620.082 L -4.1433,-620.377 L -3.70311,-620.619 L -3.23605,-620.804
 L -2.74951,-620.929 L -2.25116,-620.992 L 2.25116,-620.992 L 2.74951,-620.929 L 3.23605,-620.804 L 3.70311,-620.619
 L 4.1433,-620.377 L 4.54968,-620.082 L 4.91586,-619.738 L 5.23605,-619.351 L 5.50522,-618.927 L 5.7191,-618.472
 L 5.87433,-617.995 L 5.96844,-617.501 L 6,-617 L 6,-523 L 5.96844,-522.499 L 5.87433,-522.005
 L 5.7191,-521.528 L 5.50522,-521.073 L 5.23605,-520.649 L 4.91586,-520.262 L 4.54968,-519.918 L 4.1433,-519.623
 L 3.70311,-519.381 L 3.23605,-519.196 L 2.74951,-519.071 L 2.25116,-519.008 z
M 3.4369,-403.589 L 4.04507,-403.745 L 4.62889,-403.976 L 5.17912,-404.278 L 5.68712,-404.647 L 6.14484,-405.077
 L 6.54507,-405.561 L 6.88153,-406.091 L 7.14888,-406.659 L 7.34291,-407.257 L 7.46057,-407.873 L 7.5,-408.5
 L 7.5,-503.5 L 7.46057,-504.127 L 7.34291,-504.743 L 7.14888,-505.341 L 6.88153,-505.909 L 6.54507,-506.439
 L 6.14484,-506.923 L 5.68712,-507.353 L 5.17912,-507.722 L 4.62889,-508.024 L 4.04507,-508.255 L 3.4369,-508.411
 L 2.81395,-508.49 L -2.81395,-508.49 L -3.4369,-508.411 L -4.04507,-508.255 L -4.62889,-508.024 L -5.17912,-507.722
 L -5.68712,-507.353 L -6.14484,-506.923 L -6.54507,-506.439 L -6.88153,-505.909 L -7.14888,-505.341 L -7.34291,-504.743
 L -7.46057,-504.127 L -7.5,-503.5 L -7.5,-408.5 L -7.46057,-407.873 L -7.34291,-407.257 L -7.14888,-406.659
 L -6.88153,-406.091 L -6.54507,-405.561 L -6.14484,-405.077 L -5.68712,-404.647 L -5.17912,-404.278 L -4.62889,-403.976
 L -4.04507,-403.745 L -3.4369,-403.589 L -2.81395,-403.51 L 2.81395,-403.51 z
M -2.19545,-405.893 L -2.5833,-405.942 L -2.96194,-406.039 L -3.32541,-406.183 L -3.66798,-406.372 L -3.98424,-406.601
 L -4.26921,-406.869 L -4.5184,-407.17 L -4.72786,-407.5 L -4.89432,-407.854 L -5.01512,-408.226 L -5.08836,-408.61
 L -5.11292,-409 L -5.11292,-503 L -5.08836,-503.39 L -5.01512,-503.774 L -4.89432,-504.146 L -4.72786,-504.5
 L -4.5184,-504.83 L -4.26921,-505.131 L -3.98424,-505.399 L -3.66798,-505.628 L -3.32541,-505.817 L -2.96194,-505.961
 L -2.5833,-506.058 L -2.19545,-506.107 L 2.19545,-506.107 L 2.5833,-506.058 L 2.96194,-505.961 L 3.32541,-505.817
 L 3.66798,-505.628 L 3.98424,-505.399 L 4.26921,-505.131 L 4.5184,-504.83 L 4.72786,-504.5 L 4.89432,-504.146
 L 5.01512,-503.774 L 5.08836,-503.39 L 5.11292,-503 L 5.11292,-409 L 5.08836,-408.61 L 5.01512,-408.226
 L 4.89432,-407.854 L 4.72786,-407.5 L 4.5184,-407.17 L 4.26921,-406.869 L 3.98424,-406.601 L 3.66798,-406.372
 L 3.32541,-406.183 L 2.96194,-406.039 L 2.5833,-405.942 L 2.19545,-405.893 z
M 3.4369,-289.589 L 4.04507,-289.745 L 4.62889,-289.976 L 5.17912,-290.278 L 5.68712,-290.647 L 6.14484,-291.077
 L 6.54507,-291.561 L 6.88153,-292.091 L 7.14888,-292.659 L 7.34291,-293.257 L 7.46057,-293.873 L 7.5,-294.5
 L 7.5,-389.5 L 7.46057,-390.127 L 7.34291,-390.743 L 7.14888,-391.341 L 6.88153,-391.909 L 6.54507,-392.439
 L 6.14484,-392.923 L 5.68712,-393.353 L 5.17912,-393.722 L 4.62889,-394.024 L 4.04507,-394.255 L 3.4369,-394.411
 L 2.81395,-394.49 L -2.81395,-394.49 L -3.4369,-394.411 L -4.04507,-394.255 L -4.62889,-394.024 L -5.17912,-393.722
 L -5.68712,-393.353 L -6.14484,-392.923 L -6.54507,-392.439 L -6.88153,-391.909 L -7.14888,-391.341 L -7.34291,-390.743
 L -7.46057,-390.127 L -7.5,-389.5 L -7.5,-294.5 L -7.46057,-293.873 L -7.34291,-293.257 L -7.14888,-292.659
 L -6.88153,-292.091 L -6.54507,-291.561 L -6.14484,-291.077 L -5.68712,-290.647 L -5.17912,-290.278 L -4.62889,-289.976
 L -4.04507,-289.745 L -3.4369,-289.589 L -2.81395,-289.51 L 2.81395,-289.51 z
M -0.134064,-384.869 L -0.400101,-384.903 L -0.659836,-384.969 L -0.909149,-385.068 L -1.14413,-385.197 L -1.36108,-385.355
 L -1.55655,-385.538 L -1.72748,-385.745 L -1.87117,-385.971 L -1.98534,-386.214 L -2.06821,-386.469 L -2.11845,-386.732
 L -2.13528,-387 L -2.11845,-387.268 L -2.06821,-387.531 L -1.98534,-387.786 L -1.87117,-388.029 L -1.72748,-388.255
 L -1.55655,-388.462 L -1.36108,-388.645 L -1.14413,-388.803 L -0.909149,-388.932 L -0.659836,-389.031 L -0.400101,-389.097
 L -0.134064,-389.131 L 0.134064,-389.131 L 0.400101,-389.097 L 0.659836,-389.031 L 0.909149,-388.932 L 1.14413,-388.803
 L 1.36108,-388.645 L 1.55655,-388.462 L 1.72748,-388.255 L 1.87117,-388.029 L 1.98534,-387.786 L 2.06821,-387.531
 L 2.11845,-387.268 L 2.13528,-387 L 2.11845,-386.732 L 2.06821,-386.469 L 1.98534,-386.214 L 1.87117,-385.971
 L 1.72748,-385.745 L 1.55655,-385.538 L 1.36108,-385.355 L 1.14413,-385.197 L 0.909149,-385.068 L 0.659836,-384.969
 L 0.400101,-384.903 L 0.134064,-384.869 z
M -0.134064,-294.869 L -0.400101,-294.903 L -0.659836,-294.969 L -0.909149,-295.068 L -1.14413,-295.197 L -1.36108,-295.355
 L -1.55655,-295.538 L -1.72748,-295.745 L -1.87117,-295.971 L -1.98534,-296.214 L -2.06821,-296.469 L -2.11845,-296.732
 L -2.13528,-297 L -2.11845,-297.268 L -2.06821,-297.531 L -1.98534,-297.786 L -1.87117,-298.029 L -1.72748,-298.255
 L -1.55655,-298.462 L -1.36108,-298.645 L -1.14413,-298.803 L -0.909149,-298.932 L -0.659836,-299.031 L -0.400101,-299.097
 L -0.134064,-299.131 L 0.134064,-299.131 L 0.400101,-299.097 L 0.659836,-299.031 L 0.909149,-298.932 L 1.14413,-298.803
 L 1.36108,-298.645 L 1.55655,-298.462 L 1.72748,-298.255 L 1.87117,-298.029 L 1.98534,-297.786 L 2.06821,-297.531
 L 2.11845,-297.268 L 2.13528,-297 L 2.11845,-296.732 L 2.06821,-296.469 L 1.98534,-296.214 L 1.87117,-295.971
 L 1.72748,-295.745 L 1.55655,-295.538 L 1.36108,-295.355 L 1.14413,-295.197 L 0.909149,-295.068 L 0.659836,-294.969
 L 0.400101,-294.903 L 0.134064,-294.869 z
" stroke="black" fill="lightgray" stroke-width="0.5"/>
</svg>
