  0
SECTION
  2
BLOCKS
  0
ENDSEC
  0
SECTION
  2
ENTITIES
  0
LINE
  8
0
 10
3.4369
 20
130.589
 11
4.04507
 21
130.745
  0
LINE
  8
0
 10
4.04507
 20
130.745
 11
4.62889
 21
130.976
  0
LINE
  8
0
 10
4.62889
 20
130.976
 11
5.17912
 21
131.278
  0
LINE
  8
0
 10
5.17912
 20
131.278
 11
5.68712
 21
131.647
  0
LINE
  8
0
 10
5.68712
 20
131.647
 11
6.14484
 21
132.077
  0
LINE
  8
0
 10
6.14484
 20
132.077
 11
6.54507
 21
132.561
  0
LINE
  8
0
 10
6.54507
 20
132.561
 11
6.88153
 21
133.091
  0
LINE
  8
0
 10
6.88153
 20
133.091
 11
7.14888
 21
133.659
  0
LINE
  8
0
 10
7.14888
 20
133.659
 11
7.34291
 21
134.257
  0
LINE
  8
0
 10
7.34291
 20
134.257
 11
7.46057
 21
134.873
  0
LINE
  8
0
 10
7.46057
 20
134.873
 11
7.5
 21
135.5
  0
LINE
  8
0
 10
7.5
 20
135.5
 11
7.5
 21
200.5
  0
LINE
  8
0
 10
7.5
 20
200.5
 11
7.46057
 21
201.127
  0
LINE
  8
0
 10
7.46057
 20
201.127
 11
7.34291
 21
201.743
  0
LINE
  8
0
 10
7.34291
 20
201.743
 11
7.14888
 21
202.341
  0
LINE
  8
0
 10
7.14888
 20
202.341
 11
6.88153
 21
202.909
  0
LINE
  8
0
 10
6.88153
 20
202.909
 11
6.54507
 21
203.439
  0
LINE
  8
0
 10
6.54507
 20
203.439
 11
6.14484
 21
203.923
  0
LINE
  8
0
 10
6.14484
 20
203.923
 11
5.68712
 21
204.353
  0
LINE
  8
0
 10
5.68712
 20
204.353
 11
5.17912
 21
204.722
  0
LINE
  8
0
 10
5.17912
 20
204.722
 11
4.62889
 21
205.024
  0
LINE
  8
0
 10
4.62889
 20
205.024
 11
4.04507
 21
205.255
  0
LINE
  8
0
 10
4.04507
 20
205.255
 11
3.4369
 21
205.411
  0
LINE
  8
0
 10
3.4369
 20
205.411
 11
2.81395
 21
205.49
  0
LINE
  8
0
 10
2.81395
 20
205.49
 11
-2.81395
 21
205.49
  0
LINE
  8
0
 10
-2.81395
 20
205.49
 11
-3.4369
 21
205.411
  0
LINE
  8
0
 10
-3.4369
 20
205.411
 11
-4.04507
 21
205.255
  0
LINE
  8
0
 10
-4.04507
 20
205.255
 11
-4.62889
 21
205.024
  0
LINE
  8
0
 10
-4.62889
 20
205.024
 11
-5.17912
 21
204.722
  0
LINE
  8
0
 10
-5.17912
 20
204.722
 11
-5.68712
 21
204.353
  0
LINE
  8
0
 10
-5.68712
 20
204.353
 11
-6.14484
 21
203.923
  0
LINE
  8
0
 10
-6.14484
 20
203.923
 11
-6.54507
 21
203.439
  0
LINE
  8
0
 10
-6.54507
 20
203.439
 11
-6.88153
 21
202.909
  0
LINE
  8
0
 10
-6.88153
 20
202.909
 11
-7.14888
 21
202.341
  0
LINE
  8
0
 10
-7.14888
 20
202.341
 11
-7.34291
 21
201.743
  0
LINE
  8
0
 10
-7.34291
 20
201.743
 11
-7.46057
 21
201.127
  0
LINE
  8
0
 10
-7.46057
 20
201.127
 11
-7.5
 21
200.5
  0
LINE
  8
0
 10
-7.5
 20
200.5
 11
-7.5
 21
135.5
  0
LINE
  8
0
 10
-7.5
 20
135.5
 11
-7.46057
 21
134.873
  0
LINE
  8
0
 10
-7.46057
 20
134.873
 11
-7.34291
 21
134.257
  0
LINE
  8
0
 10
-7.34291
 20
134.257
 11
-7.14888
 21
133.659
  0
LINE
  8
0
 10
-7.14888
 20
133.659
 11
-6.88153
 21
133.091
  0
LINE
  8
0
 10
-6.88153
 20
133.091
 11
-6.54507
 21
132.561
  0
LINE
  8
0
 10
-6.54507
 20
132.561
 11
-6.14484
 21
132.077
  0
LINE
  8
0
 10
-6.14484
 20
132.077
 11
-5.68712
 21
131.647
  0
LINE
  8
0
 10
-5.68712
 20
131.647
 11
-5.17912
 21
131.278
  0
LINE
  8
0
 10
-5.17912
 20
131.278
 11
-4.62889
 21
130.976
  0
LINE
  8
0
 10
-4.62889
 20
130.976
 11
-4.04507
 21
130.745
  0
LINE
  8
0
 10
-4.04507
 20
130.745
 11
-3.4369
 21
130.589
  0
LINE
  8
0
 10
-3.4369
 20
130.589
 11
-2.81395
 21
130.51
  0
LINE
  8
0
 10
-2.81395
 20
130.51
 11
2.81395
 21
130.51
  0
LINE
  8
0
 10
2.81395
 20
130.51
 11
3.4369
 21
130.589
  0
LINE
  8
0
 10
3.4369
 20
46.5886
 11
4.04507
 21
46.7447
  0
LINE
  8
0
 10
4.04507
 20
46.7447
 11
4.62889
 21
46.9759
  0
LINE
  8
0
 10
4.62889
 20
46.9759
 11
5.17912
 21
47.2784
  0
LINE
  8
0
 10
5.17912
 20
47.2784
 11
5.68712
 21
47.6474
  0
LINE
  8
0
 10
5.68712
 20
47.6474
 11
6.14484
 21
48.0773
  0
LINE
  8
0
 10
6.14484
 20
48.0773
 11
6.54507
 21
48.5611
  0
LINE
  8
0
 10
6.54507
 20
48.5611
 11
6.88153
 21
49.0912
  0
LINE
  8
0
 10
6.88153
 20
49.0912
 11
7.14888
 21
49.6594
  0
LINE
  8
0
 10
7.14888
 20
49.6594
 11
7.34291
 21
50.2566
  0
LINE
  8
0
 10
7.34291
 20
50.2566
 11
7.46057
 21
50.8733
  0
LINE
  8
0
 10
7.46057
 20
50.8733
 11
7.5
 21
51.5
  0
LINE
  8
0
 10
7.5
 20
51.5
 11
7.5
 21
116.5
  0
LINE
  8
0
 10
7.5
 20
116.5
 11
7.46057
 21
117.127
  0
LINE
  8
0
 10
7.46057
 20
117.127
 11
7.34291
 21
117.743
  0
LINE
  8
0
 10
7.34291
 20
117.743
 11
7.14888
 21
118.341
  0
LINE
  8
0
 10
7.14888
 20
118.341
 11
6.88153
 21
118.909
  0
LINE
  8
0
 10
6.88153
 20
118.909
 11
6.54507
 21
119.439
  0
LINE
  8
0
 10
6.54507
 20
119.439
 11
6.14484
 21
119.923
  0
LINE
  8
0
 10
6.14484
 20
119.923
 11
5.68712
 21
120.353
  0
LINE
  8
0
 10
5.68712
 20
120.353
 11
5.17912
 21
120.722
  0
LINE
  8
0
 10
5.17912
 20
120.722
 11
4.62889
 21
121.024
  0
LINE
  8
0
 10
4.62889
 20
121.024
 11
4.04507
 21
121.255
  0
LINE
  8
0
 10
4.04507
 20
121.255
 11
3.4369
 21
121.411
  0
LINE
  8
0
 10
3.4369
 20
121.411
 11
2.81395
 21
121.49
  0
LINE
  8
0
 10
2.81395
 20
121.49
 11
-2.81395
 21
121.49
  0
LINE
  8
0
 10
-2.81395
 20
121.49
 11
-3.4369
 21
121.411
  0
LINE
  8
0
 10
-3.4369
 20
121.411
 11
-4.04507
 21
121.255
  0
LINE
  8
0
 10
-4.04507
 20
121.255
 11
-4.62889
 21
121.024
  0
LINE
  8
0
 10
-4.62889
 20
121.024
 11
-5.17912
 21
120.722
  0
LINE
  8
0
 10
-5.17912
 20
120.722
 11
-5.68712
 21
120.353
  0
LINE
  8
0
 10
-5.68712
 20
120.353
 11
-6.14484
 21
119.923
  0
LINE
  8
0
 10
-6.14484
 20
119.923
 11
-6.54507
 21
119.439
  0
LINE
  8
0
 10
-6.54507
 20
119.439
 11
-6.88153
 21
118.909
  0
LINE
  8
0
 10
-6.88153
 20
118.909
 11
-7.14888
 21
118.341
  0
LINE
  8
0
 10
-7.14888
 20
118.341
 11
-7.34291
 21
117.743
  0
LINE
  8
0
 10
-7.34291
 20
117.743
 11
-7.46057
 21
117.127
  0
LINE
  8
0
 10
-7.46057
 20
117.127
 11
-7.5
 21
116.5
  0
LINE
  8
0
 10
-7.5
 20
116.5
 11
-7.5
 21
51.5
  0
LINE
  8
0
 10
-7.5
 20
51.5
 11
-7.46057
 21
50.8733
  0
LINE
  8
0
 10
-7.46057
 20
50.8733
 11
-7.34291
 21
50.2566
  0
LINE
  8
0
 10
-7.34291
 20
50.2566
 11
-7.14888
 21
49.6594
  0
LINE
  8
0
 10
-7.14888
 20
49.6594
 11
-6.88153
 21
49.0912
  0
LINE
  8
0
 10
-6.88153
 20
49.0912
 11
-6.54507
 21
48.5611
  0
LINE
  8
0
 10
-6.54507
 20
48.5611
 11
-6.14484
 21
48.0773
  0
LINE
  8
0
 10
-6.14484
 20
48.0773
 11
-5.68712
 21
47.6474
  0
LINE
  8
0
 10
-5.68712
 20
47.6474
 11
-5.17912
 21
47.2784
  0
LINE
  8
0
 10
-5.17912
 20
47.2784
 11
-4.62889
 21
46.9759
  0
LINE
  8
0
 10
-4.62889
 20
46.9759
 11
-4.04507
 21
46.7447
  0
LINE
  8
0
 10
-4.04507
 20
46.7447
 11
-3.4369
 21
46.5886
  0
LINE
  8
0
 10
-3.4369
 20
46.5886
 11
-2.81395
 21
46.5099
  0
LINE
  8
0
 10
-2.81395
 20
46.5099
 11
2.81395
 21
46.5099
  0
LINE
  8
0
 10
2.81395
 20
46.5099
 11
3.4369
 21
46.5886
  0
LINE
  8
0
 10
-0.113022
 20
112.204
 11
-0.33728
 21
112.232
  0
LINE
  8
0
 10
-0.33728
 20
112.232
 11
-0.556229
 21
112.288
  0
LINE
  8
0
 10
-0.556229
 20
112.288
 11
-0.766388
 21
112.371
  0
LINE
  8
0
 10
-0.766388
 20
112.371
 11
-0.964478
 21
112.48
  0
LINE
  8
0
 10
-0.964478
 20
112.48
 11
-1.14735
 21
112.613
  0
LINE
  8
0
 10
-1.14735
 20
112.613
 11
-1.31213
 21
112.768
  0
LINE
  8
0
 10
-1.31213
 20
112.768
 11
-1.45622
 21
112.942
  0
LINE
  8
0
 10
-1.45622
 20
112.942
 11
-1.57735
 21
113.133
  0
LINE
  8
0
 10
-1.57735
 20
113.133
 11
-1.67358
 21
113.337
  0
LINE
  8
0
 10
-1.67358
 20
113.337
 11
-1.74344
 21
113.552
  0
LINE
  8
0
 10
-1.74344
 20
113.552
 11
-1.7858
 21
113.774
  0
LINE
  8
0
 10
-1.7858
 20
113.774
 11
-1.79999
 21
114
  0
LINE
  8
0
 10
-1.79999
 20
114
 11
-1.7858
 21
114.226
  0
LINE
  8
0
 10
-1.7858
 20
114.226
 11
-1.74344
 21
114.448
  0
LINE
  8
0
 10
-1.74344
 20
114.448
 11
-1.67358
 21
114.663
  0
LINE
  8
0
 10
-1.67358
 20
114.663
 11
-1.57735
 21
114.867
  0
LINE
  8
0
 10
-1.57735
 20
114.867
 11
-1.45622
 21
115.058
  0
LINE
  8
0
 10
-1.45622
 20
115.058
 11
-1.31213
 21
115.232
  0
LINE
  8
0
 10
-1.31213
 20
115.232
 11
-1.14735
 21
115.387
  0
LINE
  8
0
 10
-1.14735
 20
115.387
 11
-0.964478
 21
115.52
  0
LINE
  8
0
 10
-0.964478
 20
115.52
 11
-0.766388
 21
115.629
  0
LINE
  8
0
 10
-0.766388
 20
115.629
 11
-0.556229
 21
115.712
  0
LINE
  8
0
 10
-0.556229
 20
115.712
 11
-0.33728
 21
115.768
  0
LINE
  8
0
 10
-0.33728
 20
115.768
 11
-0.113022
 21
115.796
  0
LINE
  8
0
 10
-0.113022
 20
115.796
 11
0.113022
 21
115.796
  0
LINE
  8
0
 10
0.113022
 20
115.796
 11
0.33728
 21
115.768
  0
LINE
  8
0
 10
0.33728
 20
115.768
 11
0.556229
 21
115.712
  0
LINE
  8
0
 10
0.556229
 20
115.712
 11
0.766388
 21
115.629
  0
LINE
  8
0
 10
0.766388
 20
115.629
 11
0.964478
 21
115.52
  0
LINE
  8
0
 10
0.964478
 20
115.52
 11
1.14735
 21
115.387
  0
LINE
  8
0
 10
1.14735
 20
115.387
 11
1.31213
 21
115.232
  0
LINE
  8
0
 10
1.31213
 20
115.232
 11
1.45622
 21
115.058
  0
LINE
  8
0
 10
1.45622
 20
115.058
 11
1.57735
 21
114.867
  0
LINE
  8
0
 10
1.57735
 20
114.867
 11
1.67358
 21
114.663
  0
LINE
  8
0
 10
1.67358
 20
114.663
 11
1.74344
 21
114.448
  0
LINE
  8
0
 10
1.74344
 20
114.448
 11
1.7858
 21
114.226
  0
LINE
  8
0
 10
1.7858
 20
114.226
 11
1.79999
 21
114
  0
LINE
  8
0
 10
1.79999
 20
114
 11
1.7858
 21
113.774
  0
LINE
  8
0
 10
1.7858
 20
113.774
 11
1.74344
 21
113.552
  0
LINE
  8
0
 10
1.74344
 20
113.552
 11
1.67358
 21
113.337
  0
LINE
  8
0
 10
1.67358
 20
113.337
 11
1.57735
 21
113.133
  0
LINE
  8
0
 10
1.57735
 20
113.133
 11
1.45622
 21
112.942
  0
LINE
  8
0
 10
1.45622
 20
112.942
 11
1.31213
 21
112.768
  0
LINE
  8
0
 10
1.31213
 20
112.768
 11
1.14735
 21
112.613
  0
LINE
  8
0
 10
1.14735
 20
112.613
 11
0.964478
 21
112.48
  0
LINE
  8
0
 10
0.964478
 20
112.48
 11
0.766388
 21
112.371
  0
LINE
  8
0
 10
0.766388
 20
112.371
 11
0.556229
 21
112.288
  0
LINE
  8
0
 10
0.556229
 20
112.288
 11
0.33728
 21
112.232
  0
LINE
  8
0
 10
0.33728
 20
112.232
 11
0.113022
 21
112.204
  0
LINE
  8
0
 10
0.113022
 20
112.204
 11
-0.113022
 21
112.204
  0
LINE
  8
0
 10
-0.113022
 20
52.2036
 11
-0.33728
 21
52.2319
  0
LINE
  8
0
 10
-0.33728
 20
52.2319
 11
-0.556229
 21
52.2881
  0
LINE
  8
0
 10
-0.556229
 20
52.2881
 11
-0.766388
 21
52.3713
  0
LINE
  8
0
 10
-0.766388
 20
52.3713
 11
-0.964478
 21
52.4802
  0
LINE
  8
0
 10
-0.964478
 20
52.4802
 11
-1.14735
 21
52.6131
  0
LINE
  8
0
 10
-1.14735
 20
52.6131
 11
-1.31213
 21
52.7678
  0
LINE
  8
0
 10
-1.31213
 20
52.7678
 11
-1.45622
 21
52.942
  0
LINE
  8
0
 10
-1.45622
 20
52.942
 11
-1.57735
 21
53.1328
  0
LINE
  8
0
 10
-1.57735
 20
53.1328
 11
-1.67358
 21
53.3374
  0
LINE
  8
0
 10
-1.67358
 20
53.3374
 11
-1.74344
 21
53.5524
  0
LINE
  8
0
 10
-1.74344
 20
53.5524
 11
-1.7858
 21
53.7744
  0
LINE
  8
0
 10
-1.7858
 20
53.7744
 11
-1.79999
 21
54
  0
LINE
  8
0
 10
-1.79999
 20
54
 11
-1.7858
 21
54.2256
  0
LINE
  8
0
 10
-1.7858
 20
54.2256
 11
-1.74344
 21
54.4476
  0
LINE
  8
0
 10
-1.74344
 20
54.4476
 11
-1.67358
 21
54.6626
  0
LINE
  8
0
 10
-1.67358
 20
54.6626
 11
-1.57735
 21
54.8672
  0
LINE
  8
0
 10
-1.57735
 20
54.8672
 11
-1.45622
 21
55.058
  0
LINE
  8
0
 10
-1.45622
 20
55.058
 11
-1.31213
 21
55.2322
  0
LINE
  8
0
 10
-1.31213
 20
55.2322
 11
-1.14735
 21
55.3869
  0
LINE
  8
0
 10
-1.14735
 20
55.3869
 11
-0.964478
 21
55.5198
  0
LINE
  8
0
 10
-0.964478
 20
55.5198
 11
-0.766388
 21
55.6287
  0
LINE
  8
0
 10
-0.766388
 20
55.6287
 11
-0.556229
 21
55.7119
  0
LINE
  8
0
 10
-0.556229
 20
55.7119
 11
-0.33728
 21
55.7681
  0
LINE
  8
0
 10
-0.33728
 20
55.7681
 11
-0.113022
 21
55.7964
  0
LINE
  8
0
 10
-0.113022
 20
55.7964
 11
0.113022
 21
55.7964
  0
LINE
  8
0
 10
0.113022
 20
55.7964
 11
0.33728
 21
55.7681
  0
LINE
  8
0
 10
0.33728
 20
55.7681
 11
0.556229
 21
55.7119
  0
LINE
  8
0
 10
0.556229
 20
55.7119
 11
0.766388
 21
55.6287
  0
LINE
  8
0
 10
0.766388
 20
55.6287
 11
0.964478
 21
55.5198
  0
LINE
  8
0
 10
0.964478
 20
55.5198
 11
1.14735
 21
55.3869
  0
LINE
  8
0
 10
1.14735
 20
55.3869
 11
1.31213
 21
55.2322
  0
LINE
  8
0
 10
1.31213
 20
55.2322
 11
1.45622
 21
55.058
  0
LINE
  8
0
 10
1.45622
 20
55.058
 11
1.57735
 21
54.8672
  0
LINE
  8
0
 10
1.57735
 20
54.8672
 11
1.67358
 21
54.6626
  0
LINE
  8
0
 10
1.67358
 20
54.6626
 11
1.74344
 21
54.4476
  0
LINE
  8
0
 10
1.74344
 20
54.4476
 11
1.7858
 21
54.2256
  0
LINE
  8
0
 10
1.7858
 20
54.2256
 11
1.79999
 21
54
  0
LINE
  8
0
 10
1.79999
 20
54
 11
1.7858
 21
53.7744
  0
LINE
  8
0
 10
1.7858
 20
53.7744
 11
1.74344
 21
53.5524
  0
LINE
  8
0
 10
1.74344
 20
53.5524
 11
1.67358
 21
53.3374
  0
LINE
  8
0
 10
1.67358
 20
53.3374
 11
1.57735
 21
53.1328
  0
LINE
  8
0
 10
1.57735
 20
53.1328
 11
1.45622
 21
52.942
  0
LINE
  8
0
 10
1.45622
 20
52.942
 11
1.31213
 21
52.7678
  0
LINE
  8
0
 10
1.31213
 20
52.7678
 11
1.14735
 21
52.6131
  0
LINE
  8
0
 10
1.14735
 20
52.6131
 11
0.964478
 21
52.4802
  0
LINE
  8
0
 10
0.964478
 20
52.4802
 11
0.766388
 21
52.3713
  0
LINE
  8
0
 10
0.766388
 20
52.3713
 11
0.556229
 21
52.2881
  0
LINE
  8
0
 10
0.556229
 20
52.2881
 11
0.33728
 21
52.2319
  0
LINE
  8
0
 10
0.33728
 20
52.2319
 11
0.113022
 21
52.2036
  0
LINE
  8
0
 10
0.113022
 20
52.2036
 11
-0.113022
 21
52.2036
  0
ENDSEC
  0
SECTION
  2
OBJECTS
  0
DICTIONARY
  0
ENDSEC
  0
EOF
