<?xml version="1.0" standalone="no"?>
<!DOCTYPE svg PUBLIC "-//W3C//DTD SVG 1.1//EN" "http://www.w3.org/Graphics/SVG/1.1/DTD/svg11.dtd">
<svg width="16mm" height="160mm" viewBox="-8 -206 16 160" xmlns="http://www.w3.org/2000/svg" version="1.1">
<title>OpenSCAD Model</title>
<path d="
M 3.4369,-130.589 L 4.04507,-130.745 L 4.62889,-130.976 L 5.17912,-131.278 L 5.68712,-131.647 L 6.14484,-132.077
 L 6.54507,-132.561 L 6.88153,-133.091 L 7.14888,-133.659 L 7.34291,-134.257 L 7.46057,-134.873 L 7.5,-135.5
 L 7.5,-200.5 L 7.46057,-201.127 L 7.34291,-201.743 L 7.14888,-202.341 L 6.88153,-202.909 L 6.54507,-203.439
 L 6.14484,-203.923 L 5.68712,-204.353 L 5.17912,-204.722 L 4.62889,-205.024 L 4.04507,-205.255 L 3.4369,-205.411
 L 2.81395,-205.49 L -2.81395,-205.49 L -3.4369,-205.411 L -4.04507,-205.255 L -4.62889,-205.024 L -5.17912,-204.722
 L -5.68712,-204.353 L -6.14484,-203.923 L -6.54507,-203.439 L -6.88153,-202.909 L -7.14888,-202.341 L -7.34291,-201.743
 L -7.46057,-201.127 L -7.5,-200.5 L -7.5,-135.5 L -7.46057,-134.873 L -7.34291,-134.257 L -7.14888,-133.659
 L -6.88153,-133.091 L -6.54507,-132.561 L -6.14484,-132.077 L -5.68712,-131.647 L -5.17912,-131.278 L -4.62889,-130.976
 L -4.04507,-130.745 L -3.4369,-130.589 L -2.81395,-130.51 L 2.81395,-130.51 z
M 3.4369,-46.5886 L 4.04507,-46.7447 L 4.62889,-46.9759 L 5.17912,-47.2784 L 5.68712,-47.6474 L 6.14484,-48.0773
 L 6.54507,-48.5611 L 6.88153,-49.0912 L 7.14888,-49.6594 L 7.34291,-50.2566 L 7.46057,-50.8733 L 7.5,-51.5
 L 7.5,-116.5 L 7.46057,-117.127 L 7.34291,-117.743 L 7.14888,-118.341 L 6.88153,-118.909 L 6.54507,-119.439
 L 6.14484,-119.923 L 5.68712,-120.353 L 5.17912,-120.722 L 4.62889,-121.024 L 4.04507,-121.255 L 3.4369,-121.411
 L 2.81395,-121.49 L -2.81395,-121.49 L -3.4369,-121.411 L -4.04507,-121.255 L -4.62889,-121.024 L -5.17912,-120.722
 L -5.68712,-120.353 L -6.14484,-119.923 L -6.54507,-119.439 L -6.88153,-118.909 L -7.14888,-118.341 L -7.34291,-117.743
 L -7.46057,-117.127 L -7.5,-116.5 L -7.5,-51.5 L -7.46057,-50.8733 L -7.34291,-50.2566 L -7.14888,-49.6594
 L -6.88153,-49.0912 L -6.54507,-48.5611 L -6.14484,-48.0773 L -5.68712,-47.6474 L -5.17912,-47.2784 L -4.62889,-46.9759
 L -4.04507,-46.7447 L -3.4369,-46.5886 L -2.81395,-46.5099 L 2.81395,-46.5099 z
M -0.113022,-112.204 L -0.33728,-112.232 L -0.556229,-112.288 L -0.766388,-112.371 L -0.964478,-112.48 L -1.14735,-112.613
 L -1.31213,-112.768 L -1.45622,-112.942 L -1.57735,-113.133 L -1.67358,-113.337 L -1.74344,-113.552 L -1.7858,-113.774
 L -1.79999,-114 L -1.7858,-114.226 L -1.74344,-114.448 L -1.67358,-114.663 L -1.57735,-114.867 L -1.45622,-115.058
 L -1.31213,-115.232 L -1.14735,-115.387 L -0.964478,-115.52 L -0.766388,-115.629 L -0.556229,-115.712 L -0.33728,-115.768
 L -0.113022,-115.796 L 0.113022,-115.796 L 0.33728,-115.768 L 0.556229,-115.712 L 0.766388,-115.629 L 0.964478,-115.52
 L 1.14735,-115.387 L 1.31213,-115.232 L 1.45622,-115.058 L 1.57735,-114.867 L 1.67358,-114.663 L 1.74344,-114.448
 L 1.7858,-114.226 L 1.79999,-114 L 1.7858,-113.774 L 1.74344,-113.552 L 1.67358,-113.337 L 1.57735,-113.133
 L 1.45622,-112.942 L 1.31213,-112.768 L 1.14735,-112.613 L 0.964478,-112.48 L 0.766388,-112.371 L 0.556229,-112.288
 L 0.33728,-112.232 L 0.113022,-112.204 z
M -0.113022,-52.2036 L -0.33728,-52.2319 L -0.556229,-52.2881 L -0.766388,-52.3713 L -0.964478,-52.4802 L -1.14735,-52.6131
 L -1.31213,-52.7678 L -1.45622,-52.942 L -1.57735,-53.1328 L -1.67358,-53.3374 L -1.74344,-53.5524 L -1.7858,-53.7744
 L -1.79999,-54 L -1.7858,-54.2256 L -1.74344,-54.4476 L -1.67358,-54.6626 L -1.57735,-54.8672 L -1.45622,-55.058
 L -1.31213,-55.2322 L -1.14735,-55.3869 L -0.964478,-55.5198 L -0.766388,-55.6287 L -0.556229,-55.7119 L -0.33728,-55.7681
 L -0.113022,-55.7964 L 0.113022,-55.7964 L 0.33728,-55.7681 L 0.556229,-55.7119 L 0.766388,-55.6287 L 0.964478,-55.5198
 L 1.14735,-55.3869 L 1.31213,-55.2322 L 1.45622,-55.058 L 1.57735,-54.8672 L 1.67358,-54.6626 L 1.74344,-54.4476
 L 1.7858,-54.2256 L 1.79999,-54 L 1.7858,-53.7744 L 1.74344,-53.5524 L 1.67358,-53.3374 L 1.57735,-53.1328
 L 1.45622,-52.942 L 1.31213,-52.7678 L 1.14735,-52.6131 L 0.964478,-52.4802 L 0.766388,-52.3713 L 0.556229,-52.2881
 L 0.33728,-52.2319 L 0.113022,-52.2036 z
" stroke="black" fill="lightgray" stroke-width="0.5"/>
</svg>
