<?xml version="1.0" standalone="no"?>
<!DOCTYPE svg PUBLIC "-//W3C//DTD SVG 1.1//EN" "http://www.w3.org/Graphics/SVG/1.1/DTD/svg11.dtd">
<svg width="104mm" height="184mm" viewBox="-52 -287 104 184" xmlns="http://www.w3.org/2000/svg" version="1.1">
<title>OpenSCAD Model</title>
<path d="
M 47.9369,-213.089 L 48.5451,-213.245 L 49.1289,-213.476 L 49.6791,-213.778 L 50.1871,-214.147 L 50.6448,-214.577
 L 51.0451,-215.061 L 51.3815,-215.591 L 51.6489,-216.159 L 51.8429,-216.757 L 51.9606,-217.373 L 52,-218
 L 52,-282 L 51.9606,-282.627 L 51.8429,-283.243 L 51.6489,-283.841 L 51.3815,-284.409 L 51.0451,-284.939
 L 50.6448,-285.423 L 50.1871,-285.853 L 49.6791,-286.222 L 49.1289,-286.524 L 48.5451,-286.755 L 47.9369,-286.911
 L 47.3139,-286.99 L -17.3139,-286.99 L -17.9369,-286.911 L -18.5451,-286.755 L -19.1289,-286.524 L -19.6791,-286.222
 L -20.1871,-285.853 L -20.6448,-285.423 L -21.0451,-284.939 L -21.3815,-284.409 L -21.6489,-283.841 L -21.8429,-283.243
 L -21.9606,-282.627 L -22,-282 L -22,-226.99 L -47.3139,-226.99 L -47.9369,-226.911 L -48.5451,-226.755
 L -49.1289,-226.524 L -49.6791,-226.222 L -50.1871,-225.853 L -50.6448,-225.423 L -51.0451,-224.939 L -51.3815,-224.409
 L -51.6489,-223.841 L -51.8429,-223.243 L -51.9606,-222.627 L -52,-222 L -52,-218 L -51.9606,-217.373
 L -51.8429,-216.757 L -51.6489,-216.159 L -51.3815,-215.591 L -51.0451,-215.061 L -50.6448,-214.577 L -50.1871,-214.147
 L -49.6791,-213.778 L -49.1289,-213.476 L -48.5451,-213.245 L -47.9369,-213.089 L -47.3139,-213.01 L 47.3139,-213.01
 z
M 29.8116,-217.006 L 29.4379,-217.053 L 29.0729,-217.147 L 28.7227,-217.286 L 28.3925,-217.467 L 28.0877,-217.688
 L 27.8131,-217.946 L 27.5729,-218.237 L 27.3711,-218.555 L 27.2107,-218.896 L 27.0942,-219.254 L 27.0237,-219.624
 L 27,-220 L 27.0237,-220.376 L 27.0942,-220.746 L 27.2107,-221.104 L 27.3711,-221.445 L 27.5729,-221.763
 L 27.8131,-222.054 L 28.0877,-222.312 L 28.3925,-222.533 L 28.7227,-222.714 L 29.0729,-222.853 L 29.4379,-222.947
 L 29.8116,-222.994 L 30.1884,-222.994 L 30.5621,-222.947 L 30.927,-222.853 L 31.2773,-222.714 L 31.6075,-222.533
 L 31.9123,-222.312 L 32.1869,-222.054 L 32.427,-221.763 L 32.6289,-221.445 L 32.7893,-221.104 L 32.9057,-220.746
 L 32.9763,-220.376 L 33,-220 L 32.9763,-219.624 L 32.9057,-219.254 L 32.7893,-218.896 L 32.6289,-218.555
 L 32.427,-218.237 L 32.1869,-217.946 L 31.9123,-217.688 L 31.6075,-217.467 L 31.2773,-217.286 L 30.927,-217.147
 L 30.5621,-217.053 L 30.1884,-217.006 z
M 14.8116,-217.006 L 14.4379,-217.053 L 14.0729,-217.147 L 13.7227,-217.286 L 13.3925,-217.467 L 13.0877,-217.688
 L 12.8131,-217.946 L 12.5729,-218.237 L 12.3711,-218.555 L 12.2107,-218.896 L 12.0942,-219.254 L 12.0237,-219.624
 L 12,-220 L 12.0237,-220.376 L 12.0942,-220.746 L 12.2107,-221.104 L 12.3711,-221.445 L 12.5729,-221.763
 L 12.8131,-222.054 L 13.0877,-222.312 L 13.3925,-222.533 L 13.7227,-222.714 L 14.0729,-222.853 L 14.4379,-222.947
 L 14.8116,-222.994 L 15.1884,-222.994 L 15.5621,-222.947 L 15.927,-222.853 L 16.2773,-222.714 L 16.6075,-222.533
 L 16.9123,-222.312 L 17.1869,-222.054 L 17.427,-221.763 L 17.6289,-221.445 L 17.7893,-221.104 L 17.9057,-220.746
 L 17.9763,-220.376 L 18,-220 L 17.9763,-219.624 L 17.9057,-219.254 L 17.7893,-218.896 L 17.6289,-218.555
 L 17.427,-218.237 L 17.1869,-217.946 L 16.9123,-217.688 L 16.6075,-217.467 L 16.2773,-217.286 L 15.927,-217.147
 L 15.5621,-217.053 L 15.1884,-217.006 z
M -30.1884,-217.006 L -30.5621,-217.053 L -30.927,-217.147 L -31.2773,-217.286 L -31.6075,-217.467 L -31.9123,-217.688
 L -32.1869,-217.946 L -32.427,-218.237 L -32.6289,-218.555 L -32.7893,-218.896 L -32.9057,-219.254 L -32.9763,-219.624
 L -33,-220 L -32.9763,-220.376 L -32.9057,-220.746 L -32.7893,-221.104 L -32.6289,-221.445 L -32.427,-221.763
 L -32.1869,-222.054 L -31.9123,-222.312 L -31.6075,-222.533 L -31.2773,-222.714 L -30.927,-222.853 L -30.5621,-222.947
 L -30.1884,-222.994 L -29.8116,-222.994 L -29.4379,-222.947 L -29.0729,-222.853 L -28.7227,-222.714 L -28.3925,-222.533
 L -28.0877,-222.312 L -27.8131,-222.054 L -27.5729,-221.763 L -27.3711,-221.445 L -27.2107,-221.104 L -27.0942,-220.746
 L -27.0237,-220.376 L -27,-220 L -27.0237,-219.624 L -27.0942,-219.254 L -27.2107,-218.896 L -27.3711,-218.555
 L -27.5729,-218.237 L -27.8131,-217.946 L -28.0877,-217.688 L -28.3925,-217.467 L -28.7227,-217.286 L -29.0729,-217.147
 L -29.4379,-217.053 L -29.8116,-217.006 z
M -15.1884,-217.006 L -15.5621,-217.053 L -15.927,-217.147 L -16.2773,-217.286 L -16.6075,-217.467 L -16.9123,-217.688
 L -17.1869,-217.946 L -17.427,-218.237 L -17.6289,-218.555 L -17.7893,-218.896 L -17.9057,-219.254 L -17.9763,-219.624
 L -18,-220 L -17.9763,-220.376 L -17.9057,-220.746 L -17.7893,-221.104 L -17.6289,-221.445 L -17.427,-221.763
 L -17.1869,-222.054 L -16.9123,-222.312 L -16.6075,-222.533 L -16.2773,-222.714 L -15.927,-222.853 L -15.5621,-222.947
 L -15.1884,-222.994 L -14.8116,-222.994 L -14.4379,-222.947 L -14.0729,-222.853 L -13.7227,-222.714 L -13.3925,-222.533
 L -13.0877,-222.312 L -12.8131,-222.054 L -12.5729,-221.763 L -12.3711,-221.445 L -12.2107,-221.104 L -12.0942,-220.746
 L -12.0237,-220.376 L -12,-220 L -12.0237,-219.624 L -12.0942,-219.254 L -12.2107,-218.896 L -12.3711,-218.555
 L -12.5729,-218.237 L -12.8131,-217.946 L -13.0877,-217.688 L -13.3925,-217.467 L -13.7227,-217.286 L -14.0729,-217.147
 L -14.4379,-217.053 L -14.8116,-217.006 z
M 44.8116,-217.006 L 44.4379,-217.053 L 44.0729,-217.147 L 43.7227,-217.286 L 43.3925,-217.467 L 43.0877,-217.688
 L 42.8131,-217.946 L 42.5729,-218.237 L 42.3711,-218.555 L 42.2107,-218.896 L 42.0942,-219.254 L 42.0237,-219.624
 L 42,-220 L 42.0237,-220.376 L 42.0942,-220.746 L 42.2107,-221.104 L 42.3711,-221.445 L 42.5729,-221.763
 L 42.8131,-222.054 L 43.0877,-222.312 L 43.3925,-222.533 L 43.7227,-222.714 L 44.0729,-222.853 L 44.4379,-222.947
 L 44.8116,-222.994 L 45.1884,-222.994 L 45.5621,-222.947 L 45.927,-222.853 L 46.2773,-222.714 L 46.6075,-222.533
 L 46.9123,-222.312 L 47.1869,-222.054 L 47.427,-221.763 L 47.6289,-221.445 L 47.7893,-221.104 L 47.9057,-220.746
 L 47.9763,-220.376 L 48,-220 L 47.9763,-219.624 L 47.9057,-219.254 L 47.7893,-218.896 L 47.6289,-218.555
 L 47.427,-218.237 L 47.1869,-217.946 L 46.9123,-217.688 L 46.6075,-217.467 L 46.2773,-217.286 L 45.927,-217.147
 L 45.5621,-217.053 L 45.1884,-217.006 z
M -0.18837,-217.006 L -0.562134,-217.053 L -0.927048,-217.147 L -1.27733,-217.286 L -1.60747,-217.467 L -1.91226,-217.688
 L -2.1869,-217.946 L -2.42705,-218.237 L -2.62891,-218.555 L -2.78932,-218.896 L -2.90575,-219.254 L -2.97633,-219.624
 L -3,-220 L -2.97633,-220.376 L -2.90575,-220.746 L -2.78932,-221.104 L -2.62891,-221.445 L -2.42705,-221.763
 L -2.1869,-222.054 L -1.91226,-222.312 L -1.60747,-222.533 L -1.27733,-222.714 L -0.927048,-222.853 L -0.562134,-222.947
 L -0.18837,-222.994 L 0.18837,-222.994 L 0.562134,-222.947 L 0.927048,-222.853 L 1.27733,-222.714 L 1.60747,-222.533
 L 1.91226,-222.312 L 2.1869,-222.054 L 2.42705,-221.763 L 2.62891,-221.445 L 2.78932,-221.104 L 2.90575,-220.746
 L 2.97633,-220.376 L 3,-220 L 2.97633,-219.624 L 2.90575,-219.254 L 2.78932,-218.896 L 2.62891,-218.555
 L 2.42705,-218.237 L 2.1869,-217.946 L 1.91226,-217.688 L 1.60747,-217.467 L 1.27733,-217.286 L 0.927048,-217.147
 L 0.562134,-217.053 L 0.18837,-217.006 z
M -45.1884,-217.006 L -45.5621,-217.053 L -45.927,-217.147 L -46.2773,-217.286 L -46.6075,-217.467 L -46.9123,-217.688
 L -47.1869,-217.946 L -47.427,-218.237 L -47.6289,-218.555 L -47.7893,-218.896 L -47.9057,-219.254 L -47.9763,-219.624
 L -48,-220 L -47.9763,-220.376 L -47.9057,-220.746 L -47.7893,-221.104 L -47.6289,-221.445 L -47.427,-221.763
 L -47.1869,-222.054 L -46.9123,-222.312 L -46.6075,-222.533 L -46.2773,-222.714 L -45.927,-222.853 L -45.5621,-222.947
 L -45.1884,-222.994 L -44.8116,-222.994 L -44.4379,-222.947 L -44.0729,-222.853 L -43.7227,-222.714 L -43.3925,-222.533
 L -43.0877,-222.312 L -42.8131,-222.054 L -42.5729,-221.763 L -42.3711,-221.445 L -42.2107,-221.104 L -42.0942,-220.746
 L -42.0237,-220.376 L -42,-220 L -42.0237,-219.624 L -42.0942,-219.254 L -42.2107,-218.896 L -42.3711,-218.555
 L -42.5729,-218.237 L -42.8131,-217.946 L -43.0877,-217.688 L -43.3925,-217.467 L -43.7227,-217.286 L -44.0729,-217.147
 L -44.4379,-217.053 L -44.8116,-217.006 z
M 47.9369,-103.089 L 48.5451,-103.245 L 49.1289,-103.476 L 49.6791,-103.778 L 50.1871,-104.147 L 50.6448,-104.577
 L 51.0451,-105.061 L 51.3815,-105.591 L 51.6489,-106.159 L 51.8429,-106.757 L 51.9606,-107.373 L 52,-108
 L 52,-172 L 51.9606,-172.627 L 51.8429,-173.243 L 51.6489,-173.841 L 51.3815,-174.409 L 51.0451,-174.939
 L 50.6448,-175.423 L 50.1871,-175.853 L 49.6791,-176.222 L 49.1289,-176.524 L 48.5451,-176.755 L 47.9369,-176.911
 L 47.3139,-176.99 L -17.3139,-176.99 L -17.9369,-176.911 L -18.5451,-176.755 L -19.1289,-176.524 L -19.6791,-176.222
 L -20.1871,-175.853 L -20.6448,-175.423 L -21.0451,-174.939 L -21.3815,-174.409 L -21.6489,-173.841 L -21.8429,-173.243
 L -21.9606,-172.627 L -22,-172 L -22,-116.99 L -47.3139,-116.99 L -47.9369,-116.911 L -48.5451,-116.755
 L -49.1289,-116.524 L -49.6791,-116.222 L -50.1871,-115.853 L -50.6448,-115.423 L -51.0451,-114.939 L -51.3815,-114.409
 L -51.6489,-113.841 L -51.8429,-113.243 L -51.9606,-112.627 L -52,-112 L -52,-108 L -51.9606,-107.373
 L -51.8429,-106.757 L -51.6489,-106.159 L -51.3815,-105.591 L -51.0451,-105.061 L -50.6448,-104.577 L -50.1871,-104.147
 L -49.6791,-103.778 L -49.1289,-103.476 L -48.5451,-103.245 L -47.9369,-103.089 L -47.3139,-103.01 L 47.3139,-103.01
 z
M 29.8116,-107.006 L 29.4379,-107.053 L 29.0729,-107.147 L 28.7227,-107.286 L 28.3925,-107.467 L 28.0877,-107.688
 L 27.8131,-107.946 L 27.5729,-108.237 L 27.3711,-108.555 L 27.2107,-108.896 L 27.0942,-109.254 L 27.0237,-109.624
 L 27,-110 L 27.0237,-110.376 L 27.0942,-110.746 L 27.2107,-111.104 L 27.3711,-111.445 L 27.5729,-111.763
 L 27.8131,-112.054 L 28.0877,-112.312 L 28.3925,-112.533 L 28.7227,-112.714 L 29.0729,-112.853 L 29.4379,-112.947
 L 29.8116,-112.994 L 30.1884,-112.994 L 30.5621,-112.947 L 30.927,-112.853 L 31.2773,-112.714 L 31.6075,-112.533
 L 31.9123,-112.312 L 32.1869,-112.054 L 32.427,-111.763 L 32.6289,-111.445 L 32.7893,-111.104 L 32.9057,-110.746
 L 32.9763,-110.376 L 33,-110 L 32.9763,-109.624 L 32.9057,-109.254 L 32.7893,-108.896 L 32.6289,-108.555
 L 32.427,-108.237 L 32.1869,-107.946 L 31.9123,-107.688 L 31.6075,-107.467 L 31.2773,-107.286 L 30.927,-107.147
 L 30.5621,-107.053 L 30.1884,-107.006 z
M -15.1884,-107.006 L -15.5621,-107.053 L -15.927,-107.147 L -16.2773,-107.286 L -16.6075,-107.467 L -16.9123,-107.688
 L -17.1869,-107.946 L -17.427,-108.237 L -17.6289,-108.555 L -17.7893,-108.896 L -17.9057,-109.254 L -17.9763,-109.624
 L -18,-110 L -17.9763,-110.376 L -17.9057,-110.746 L -17.7893,-111.104 L -17.6289,-111.445 L -17.427,-111.763
 L -17.1869,-112.054 L -16.9123,-112.312 L -16.6075,-112.533 L -16.2773,-112.714 L -15.927,-112.853 L -15.5621,-112.947
 L -15.1884,-112.994 L -14.8116,-112.994 L -14.4379,-112.947 L -14.0729,-112.853 L -13.7227,-112.714 L -13.3925,-112.533
 L -13.0877,-112.312 L -12.8131,-112.054 L -12.5729,-111.763 L -12.3711,-111.445 L -12.2107,-111.104 L -12.0942,-110.746
 L -12.0237,-110.376 L -12,-110 L -12.0237,-109.624 L -12.0942,-109.254 L -12.2107,-108.896 L -12.3711,-108.555
 L -12.5729,-108.237 L -12.8131,-107.946 L -13.0877,-107.688 L -13.3925,-107.467 L -13.7227,-107.286 L -14.0729,-107.147
 L -14.4379,-107.053 L -14.8116,-107.006 z
M -0.18837,-107.006 L -0.562134,-107.053 L -0.927048,-107.147 L -1.27733,-107.286 L -1.60747,-107.467 L -1.91226,-107.688
 L -2.1869,-107.946 L -2.42705,-108.237 L -2.62891,-108.555 L -2.78932,-108.896 L -2.90575,-109.254 L -2.97633,-109.624
 L -3,-110 L -2.97633,-110.376 L -2.90575,-110.746 L -2.78932,-111.104 L -2.62891,-111.445 L -2.42705,-111.763
 L -2.1869,-112.054 L -1.91226,-112.312 L -1.60747,-112.533 L -1.27733,-112.714 L -0.927048,-112.853 L -0.562134,-112.947
 L -0.18837,-112.994 L 0.18837,-112.994 L 0.562134,-112.947 L 0.927048,-112.853 L 1.27733,-112.714 L 1.60747,-112.533
 L 1.91226,-112.312 L 2.1869,-112.054 L 2.42705,-111.763 L 2.62891,-111.445 L 2.78932,-111.104 L 2.90575,-110.746
 L 2.97633,-110.376 L 3,-110 L 2.97633,-109.624 L 2.90575,-109.254 L 2.78932,-108.896 L 2.62891,-108.555
 L 2.42705,-108.237 L 2.1869,-107.946 L 1.91226,-107.688 L 1.60747,-107.467 L 1.27733,-107.286 L 0.927048,-107.147
 L 0.562134,-107.053 L 0.18837,-107.006 z
M 14.8116,-107.006 L 14.4379,-107.053 L 14.0729,-107.147 L 13.7227,-107.286 L 13.3925,-107.467 L 13.0877,-107.688
 L 12.8131,-107.946 L 12.5729,-108.237 L 12.3711,-108.555 L 12.2107,-108.896 L 12.0942,-109.254 L 12.0237,-109.624
 L 12,-110 L 12.0237,-110.376 L 12.0942,-110.746 L 12.2107,-111.104 L 12.3711,-111.445 L 12.5729,-111.763
 L 12.8131,-112.054 L 13.0877,-112.312 L 13.3925,-112.533 L 13.7227,-112.714 L 14.0729,-112.853 L 14.4379,-112.947
 L 14.8116,-112.994 L 15.1884,-112.994 L 15.5621,-112.947 L 15.927,-112.853 L 16.2773,-112.714 L 16.6075,-112.533
 L 16.9123,-112.312 L 17.1869,-112.054 L 17.427,-111.763 L 17.6289,-111.445 L 17.7893,-111.104 L 17.9057,-110.746
 L 17.9763,-110.376 L 18,-110 L 17.9763,-109.624 L 17.9057,-109.254 L 17.7893,-108.896 L 17.6289,-108.555
 L 17.427,-108.237 L 17.1869,-107.946 L 16.9123,-107.688 L 16.6075,-107.467 L 16.2773,-107.286 L 15.927,-107.147
 L 15.5621,-107.053 L 15.1884,-107.006 z
M 44.8116,-107.006 L 44.4379,-107.053 L 44.0729,-107.147 L 43.7227,-107.286 L 43.3925,-107.467 L 43.0877,-107.688
 L 42.8131,-107.946 L 42.5729,-108.237 L 42.3711,-108.555 L 42.2107,-108.896 L 42.0942,-109.254 L 42.0237,-109.624
 L 42,-110 L 42.0237,-110.376 L 42.0942,-110.746 L 42.2107,-111.104 L 42.3711,-111.445 L 42.5729,-111.763
 L 42.8131,-112.054 L 43.0877,-112.312 L 43.3925,-112.533 L 43.7227,-112.714 L 44.0729,-112.853 L 44.4379,-112.947
 L 44.8116,-112.994 L 45.1884,-112.994 L 45.5621,-112.947 L 45.927,-112.853 L 46.2773,-112.714 L 46.6075,-112.533
 L 46.9123,-112.312 L 47.1869,-112.054 L 47.427,-111.763 L 47.6289,-111.445 L 47.7893,-111.104 L 47.9057,-110.746
 L 47.9763,-110.376 L 48,-110 L 47.9763,-109.624 L 47.9057,-109.254 L 47.7893,-108.896 L 47.6289,-108.555
 L 47.427,-108.237 L 47.1869,-107.946 L 46.9123,-107.688 L 46.6075,-107.467 L 46.2773,-107.286 L 45.927,-107.147
 L 45.5621,-107.053 L 45.1884,-107.006 z
M -30.1884,-107.006 L -30.5621,-107.053 L -30.927,-107.147 L -31.2773,-107.286 L -31.6075,-107.467 L -31.9123,-107.688
 L -32.1869,-107.946 L -32.427,-108.237 L -32.6289,-108.555 L -32.7893,-108.896 L -32.9057,-109.254 L -32.9763,-109.624
 L -33,-110 L -32.9763,-110.376 L -32.9057,-110.746 L -32.7893,-111.104 L -32.6289,-111.445 L -32.427,-111.763
 L -32.1869,-112.054 L -31.9123,-112.312 L -31.6075,-112.533 L -31.2773,-112.714 L -30.927,-112.853 L -30.5621,-112.947
 L -30.1884,-112.994 L -29.8116,-112.994 L -29.4379,-112.947 L -29.0729,-112.853 L -28.7227,-112.714 L -28.3925,-112.533
 L -28.0877,-112.312 L -27.8131,-112.054 L -27.5729,-111.763 L -27.3711,-111.445 L -27.2107,-111.104 L -27.0942,-110.746
 L -27.0237,-110.376 L -27,-110 L -27.0237,-109.624 L -27.0942,-109.254 L -27.2107,-108.896 L -27.3711,-108.555
 L -27.5729,-108.237 L -27.8131,-107.946 L -28.0877,-107.688 L -28.3925,-107.467 L -28.7227,-107.286 L -29.0729,-107.147
 L -29.4379,-107.053 L -29.8116,-107.006 z
M -45.1884,-107.006 L -45.5621,-107.053 L -45.927,-107.147 L -46.2773,-107.286 L -46.6075,-107.467 L -46.9123,-107.688
 L -47.1869,-107.946 L -47.427,-108.237 L -47.6289,-108.555 L -47.7893,-108.896 L -47.9057,-109.254 L -47.9763,-109.624
 L -48,-110 L -47.9763,-110.376 L -47.9057,-110.746 L -47.7893,-111.104 L -47.6289,-111.445 L -47.427,-111.763
 L -47.1869,-112.054 L -46.9123,-112.312 L -46.6075,-112.533 L -46.2773,-112.714 L -45.927,-112.853 L -45.5621,-112.947
 L -45.1884,-112.994 L -44.8116,-112.994 L -44.4379,-112.947 L -44.0729,-112.853 L -43.7227,-112.714 L -43.3925,-112.533
 L -43.0877,-112.312 L -42.8131,-112.054 L -42.5729,-111.763 L -42.3711,-111.445 L -42.2107,-111.104 L -42.0942,-110.746
 L -42.0237,-110.376 L -42,-110 L -42.0237,-109.624 L -42.0942,-109.254 L -42.2107,-108.896 L -42.3711,-108.555
 L -42.5729,-108.237 L -42.8131,-107.946 L -43.0877,-107.688 L -43.3925,-107.467 L -43.7227,-107.286 L -44.0729,-107.147
 L -44.4379,-107.053 L -44.8116,-107.006 z
" stroke="black" fill="lightgray" stroke-width="0.5"/>
</svg>
