<?xml version="1.0" standalone="no"?>
<!DOCTYPE svg PUBLIC "-//W3C//DTD SVG 1.1//EN" "http://www.w3.org/Graphics/SVG/1.1/DTD/svg11.dtd">
<svg width="120mm" height="154mm" viewBox="-60 -293 120 154" xmlns="http://www.w3.org/2000/svg" version="1.1">
<title>OpenSCAD Model</title>
<path d="
M 55.9369,-247.589 L 56.5451,-247.745 L 57.1289,-247.976 L 57.6791,-248.278 L 58.1871,-248.647 L 58.6448,-249.077
 L 59.0451,-249.561 L 59.3815,-250.091 L 59.6489,-250.659 L 59.8429,-251.257 L 59.9606,-251.873 L 60,-252.5
 L 60,-287.5 L 59.9606,-288.127 L 59.8429,-288.743 L 59.6489,-289.341 L 59.3815,-289.909 L 59.0451,-290.439
 L 58.6448,-290.923 L 58.1871,-291.353 L 57.6791,-291.722 L 57.1289,-292.024 L 56.5451,-292.255 L 55.9369,-292.411
 L 55.3139,-292.49 L -55.3139,-292.49 L -55.9369,-292.411 L -56.5451,-292.255 L -57.1289,-292.024 L -57.6791,-291.722
 L -58.1871,-291.353 L -58.6448,-290.923 L -59.0451,-290.439 L -59.3815,-289.909 L -59.6489,-289.341 L -59.8429,-288.743
 L -59.9606,-288.127 L -60,-287.5 L -60,-252.5 L -59.9606,-251.873 L -59.8429,-251.257 L -59.6489,-250.659
 L -59.3815,-250.091 L -59.0451,-249.561 L -58.6448,-249.077 L -58.1871,-248.647 L -57.6791,-248.278 L -57.1289,-247.976
 L -56.5451,-247.745 L -55.9369,-247.589 L -55.3139,-247.51 L 55.3139,-247.51 z
M -55.0482,-248.009 L -55.6401,-248.084 L -56.2178,-248.232 L -56.7724,-248.452 L -57.2952,-248.739 L -57.7778,-249.09
 L -58.2126,-249.498 L -58.5928,-249.958 L -58.9124,-250.462 L -59.1664,-251.001 L -59.3508,-251.569 L -59.4625,-252.155
 L -59.5,-252.75 L -59.5,-287.25 L -59.4625,-287.845 L -59.3508,-288.431 L -59.1664,-288.999 L -58.9124,-289.538
 L -58.5928,-290.042 L -58.2126,-290.502 L -57.7778,-290.91 L -57.2952,-291.261 L -56.7724,-291.548 L -56.2178,-291.768
 L -55.6401,-291.916 L -55.0482,-291.991 L 55.0482,-291.991 L 55.6401,-291.916 L 56.2178,-291.768 L 56.7724,-291.548
 L 57.2952,-291.261 L 57.7778,-290.91 L 58.2126,-290.502 L 58.5928,-290.042 L 58.9124,-289.538 L 59.1664,-288.999
 L 59.3508,-288.431 L 59.4625,-287.845 L 59.5,-287.25 L 59.5,-252.75 L 59.4625,-252.155 L 59.3508,-251.569
 L 59.1664,-251.001 L 58.9124,-250.462 L 58.5928,-249.958 L 58.2126,-249.498 L 57.7778,-249.09 L 57.2952,-248.739
 L 56.7724,-248.452 L 56.2178,-248.232 L 55.6401,-248.084 L 55.0482,-248.009 z
M 55.9369,-193.589 L 56.5451,-193.745 L 57.1289,-193.976 L 57.6791,-194.278 L 58.1871,-194.647 L 58.6448,-195.077
 L 59.0451,-195.561 L 59.3815,-196.091 L 59.6489,-196.659 L 59.8429,-197.257 L 59.9606,-197.873 L 60,-198.5
 L 60,-233.5 L 59.9606,-234.127 L 59.8429,-234.743 L 59.6489,-235.341 L 59.3815,-235.909 L 59.0451,-236.439
 L 58.6448,-236.923 L 58.1871,-237.353 L 57.6791,-237.722 L 57.1289,-238.024 L 56.5451,-238.255 L 55.9369,-238.411
 L 55.3139,-238.49 L -55.3139,-238.49 L -55.9369,-238.411 L -56.5451,-238.255 L -57.1289,-238.024 L -57.6791,-237.722
 L -58.1871,-237.353 L -58.6448,-236.923 L -59.0451,-236.439 L -59.3815,-235.909 L -59.6489,-235.341 L -59.8429,-234.743
 L -59.9606,-234.127 L -60,-233.5 L -60,-198.5 L -59.9606,-197.873 L -59.8429,-197.257 L -59.6489,-196.659
 L -59.3815,-196.091 L -59.0451,-195.561 L -58.6448,-195.077 L -58.1871,-194.647 L -57.6791,-194.278 L -57.1289,-193.976
 L -56.5451,-193.745 L -55.9369,-193.589 L -55.3139,-193.51 L 55.3139,-193.51 z
M -55.0375,-194.181 L -55.6079,-194.253 L -56.1648,-194.396 L -56.6994,-194.607 L -57.2032,-194.884 L -57.6684,-195.222
 L -58.0875,-195.616 L -58.454,-196.059 L -58.7621,-196.544 L -59.0069,-197.065 L -59.1846,-197.611 L -59.2923,-198.176
 L -59.3284,-198.75 L -59.3284,-233.25 L -59.2923,-233.824 L -59.1846,-234.389 L -59.0069,-234.935 L -58.7621,-235.456
 L -58.454,-235.941 L -58.0875,-236.384 L -57.6684,-236.778 L -57.2032,-237.116 L -56.6994,-237.393 L -56.1648,-237.604
 L -55.6079,-237.747 L -55.0375,-237.819 L 55.0375,-237.819 L 55.6079,-237.747 L 56.1648,-237.604 L 56.6994,-237.393
 L 57.2032,-237.116 L 57.6684,-236.778 L 58.0875,-236.384 L 58.454,-235.941 L 58.7621,-235.456 L 59.0069,-234.935
 L 59.1846,-234.389 L 59.2923,-233.824 L 59.3284,-233.25 L 59.3284,-198.75 L 59.2923,-198.176 L 59.1846,-197.611
 L 59.0069,-197.065 L 58.7621,-196.544 L 58.454,-196.059 L 58.0875,-195.616 L 57.6684,-195.222 L 57.2032,-194.884
 L 56.6994,-194.607 L 56.1648,-194.396 L 55.6079,-194.253 L 55.0375,-194.181 z
M 55.9369,-139.589 L 56.5451,-139.745 L 57.1289,-139.976 L 57.6791,-140.278 L 58.1871,-140.647 L 58.6448,-141.077
 L 59.0451,-141.561 L 59.3815,-142.091 L 59.6489,-142.659 L 59.8429,-143.257 L 59.9606,-143.873 L 60,-144.5
 L 60,-179.5 L 59.9606,-180.127 L 59.8429,-180.743 L 59.6489,-181.341 L 59.3815,-181.909 L 59.0451,-182.439
 L 58.6448,-182.923 L 58.1871,-183.353 L 57.6791,-183.722 L 57.1289,-184.024 L 56.5451,-184.255 L 55.9369,-184.411
 L 55.3139,-184.49 L -55.3139,-184.49 L -55.9369,-184.411 L -56.5451,-184.255 L -57.1289,-184.024 L -57.6791,-183.722
 L -58.1871,-183.353 L -58.6448,-182.923 L -59.0451,-182.439 L -59.3815,-181.909 L -59.6489,-181.341 L -59.8429,-180.743
 L -59.9606,-180.127 L -60,-179.5 L -60,-144.5 L -59.9606,-143.873 L -59.8429,-143.257 L -59.6489,-142.659
 L -59.3815,-142.091 L -59.0451,-141.561 L -58.6448,-141.077 L -58.1871,-140.647 L -57.6791,-140.278 L -57.1289,-139.976
 L -56.5451,-139.745 L -55.9369,-139.589 L -55.3139,-139.51 L 55.3139,-139.51 z
M -54.8825,-142.645 L -55.1453,-142.678 L -55.4019,-142.744 L -55.6482,-142.841 L -55.8804,-142.969 L -56.0947,-143.125
 L -56.2879,-143.306 L -56.4567,-143.51 L -56.5987,-143.734 L -56.7115,-143.973 L -56.7934,-144.225 L -56.843,-144.486
 L -56.8596,-144.75 L -56.8596,-179.25 L -56.843,-179.514 L -56.7934,-179.775 L -56.7115,-180.027 L -56.5987,-180.266
 L -56.4567,-180.49 L -56.2879,-180.694 L -56.0947,-180.875 L -55.8804,-181.031 L -55.6482,-181.159 L -55.4019,-181.256
 L -55.1453,-181.322 L -54.8825,-181.355 L 54.8825,-181.355 L 55.1453,-181.322 L 55.4019,-181.256 L 55.6482,-181.159
 L 55.8804,-181.031 L 56.0947,-180.875 L 56.2879,-180.694 L 56.4567,-180.49 L 56.5987,-180.266 L 56.7115,-180.027
 L 56.7934,-179.775 L 56.843,-179.514 L 56.8596,-179.25 L 56.8596,-144.75 L 56.843,-144.486 L 56.7934,-144.225
 L 56.7115,-143.973 L 56.5987,-143.734 L 56.4567,-143.51 L 56.2879,-143.306 L 56.0947,-143.125 L 55.8804,-142.969
 L 55.6482,-142.841 L 55.4019,-142.744 L 55.1453,-142.678 L 54.8825,-142.645 z
" stroke="black" fill="lightgray" stroke-width="0.5"/>
</svg>
