<?xml version="1.0" standalone="no"?>
<!DOCTYPE svg PUBLIC "-//W3C//DTD SVG 1.1//EN" "http://www.w3.org/Graphics/SVG/1.1/DTD/svg11.dtd">
<svg width="38mm" height="71mm" viewBox="-16 -133 38 71" xmlns="http://www.w3.org/2000/svg" version="1.1">
<title>OpenSCAD Model</title>
<path d="
M 17.9369,-101.089 L 18.5451,-101.245 L 19.1289,-101.476 L 19.6791,-101.778 L 20.1871,-102.147 L 20.6448,-102.577
 L 21.0451,-103.061 L 21.3815,-103.591 L 21.6489,-104.159 L 21.8429,-104.757 L 21.9606,-105.373 L 22,-106
 L 22,-110 L 21.9606,-110.627 L 21.8429,-111.243 L 21.6489,-111.841 L 21.3815,-112.409 L 21.0451,-112.939
 L 20.6448,-113.423 L 20.1871,-113.853 L 19.6791,-114.222 L 19.1289,-114.524 L 18.5451,-114.755 L 17.9369,-114.911
 L 17.3139,-114.99 L 16,-114.99 L 16,-128 L 15.9606,-128.627 L 15.8429,-129.243 L 15.7596,-129.5
 L 13.3647,-129.5 L 13.309,-129.588 L 13.229,-129.685 L 13.1374,-129.771 L 13.0358,-129.844 L 12.9258,-129.905
 L 12.809,-129.951 L 12.6874,-129.982 L 12.5628,-129.998 L 7.43719,-129.998 L 7.31261,-129.982 L 7.19098,-129.951
 L 7.07422,-129.905 L 6.96417,-129.844 L 6.86256,-129.771 L 6.77103,-129.685 L 6.69098,-129.588 L 6.62369,-129.482
 L 6.57022,-129.368 L 6.5314,-129.249 L 6.50787,-129.125 L 6.5,-129 L 6.50787,-128.875 L 6.5314,-128.751
 L 6.57022,-128.632 L 6.62369,-128.518 L 6.69098,-128.412 L 6.77103,-128.315 L 6.86256,-128.229 L 6.96417,-128.156
 L 7.07422,-128.095 L 7.19098,-128.049 L 7.31261,-128.018 L 7.43719,-128.002 L 8.92416,-128.002 L 10.07,-126.926
 L 11.2307,-125.523 L 12.2064,-123.985 L 12.9818,-122.338 L 13.5444,-120.606 L 13.8857,-118.817 L 14,-117
 L 13.8857,-115.183 L 13.5444,-113.394 L 12.9818,-111.662 L 12.2064,-110.015 L 11.2307,-108.477 L 10.07,-107.074
 L 8.74265,-105.828 L 7.26949,-104.757 L 5.6738,-103.88 L 3.98074,-103.21 L 2.21703,-102.757 L 0.410461,-102.529
 L -1.41046,-102.529 L -3.21703,-102.757 L -4.98074,-103.21 L -6.6738,-103.88 L -8.26949,-104.757 L -9.74265,-105.828
 L -11.07,-107.074 L -12.2307,-108.477 L -13.2064,-110.015 L -13.9818,-111.662 L -14.5444,-113.394 L -14.8857,-115.183
 L -15,-117 L -14.8857,-118.817 L -14.5444,-120.606 L -13.9818,-122.338 L -13.2064,-123.985 L -12.2307,-125.523
 L -11.07,-126.926 L -9.74265,-128.172 L -8.26949,-129.243 L -6.6738,-130.12 L -4.98074,-130.79 L -3.21703,-131.243
 L -1.41046,-131.471 L 0,-131.471 L 0,-131.5 L 1.24998,-131.5 L -0.240128,-132.99 L -1.5,-132.99
 L -1.5,-132 L -15.5,-132 L -15.5,-133 L -16,-133 L -16,-106 L -15.9606,-105.373
 L -15.8429,-104.757 L -15.6489,-104.159 L -15.3815,-103.591 L -15.0451,-103.061 L -14.6448,-102.577 L -14.1871,-102.147
 L -13.6791,-101.778 L -13.1289,-101.476 L -12.5451,-101.245 L -11.9369,-101.089 L -11.3139,-101.01 L 17.3139,-101.01
 z
M 14.8116,-105.006 L 14.4379,-105.053 L 14.0729,-105.147 L 13.7227,-105.286 L 13.3925,-105.467 L 13.0877,-105.688
 L 12.8131,-105.946 L 12.5729,-106.237 L 12.3711,-106.555 L 12.2107,-106.896 L 12.0942,-107.254 L 12.0237,-107.624
 L 12,-108 L 12.0237,-108.376 L 12.0942,-108.746 L 12.2107,-109.104 L 12.3711,-109.445 L 12.5729,-109.763
 L 12.8131,-110.054 L 13.0877,-110.312 L 13.3925,-110.533 L 13.7227,-110.714 L 14.0729,-110.853 L 14.4379,-110.947
 L 14.8116,-110.994 L 15.1884,-110.994 L 15.5621,-110.947 L 15.927,-110.853 L 16.2773,-110.714 L 16.6075,-110.533
 L 16.9123,-110.312 L 17.1869,-110.054 L 17.427,-109.763 L 17.6289,-109.445 L 17.7893,-109.104 L 17.9057,-108.746
 L 17.9763,-108.376 L 18,-108 L 17.9763,-107.624 L 17.9057,-107.254 L 17.7893,-106.896 L 17.6289,-106.555
 L 17.427,-106.237 L 17.1869,-105.946 L 16.9123,-105.688 L 16.6075,-105.467 L 16.2773,-105.286 L 15.927,-105.147
 L 15.5621,-105.053 L 15.1884,-105.006 z
M 14.1871,-131.853 L 13.6791,-132.222 L 13.1289,-132.524 L 12.5451,-132.755 L 11.9369,-132.911 L 11.3139,-132.99
 L 1.88118,-132.99 L 3.37131,-131.5 L 14.5626,-131.5 z
M 17.9369,-62.0886 L 18.5451,-62.2447 L 19.1289,-62.4759 L 19.6791,-62.7784 L 20.1871,-63.1474 L 20.6448,-63.5773
 L 21.0451,-64.0611 L 21.3815,-64.5912 L 21.6489,-65.1594 L 21.8429,-65.7566 L 21.9606,-66.3733 L 22,-67
 L 22,-71 L 21.9606,-71.6267 L 21.8429,-72.2435 L 21.6489,-72.8406 L 21.3815,-73.4088 L 21.0451,-73.9389
 L 20.6448,-74.4227 L 20.1871,-74.8526 L 19.6791,-75.2216 L 19.1289,-75.5241 L 18.5451,-75.7553 L 17.9369,-75.9114
 L 17.3139,-75.9901 L 16,-75.9901 L 16,-89 L 15.9606,-89.6267 L 15.8429,-90.2434 L 15.6489,-90.8406
 L 15.3815,-91.4088 L 15.0451,-91.9389 L 14.6448,-92.4227 L 14.1871,-92.8526 L 13.6791,-93.2216 L 13.1289,-93.5241
 L 12.5451,-93.7553 L 11.9369,-93.9114 L 11.3139,-93.9901 L -1.5,-93.9901 L -1.5,-93 L -15.5,-93
 L -15.5,-94 L -16,-94 L -16,-67 L -15.9606,-66.3733 L -15.8429,-65.7566 L -15.6489,-65.1594
 L -15.3815,-64.5912 L -15.0451,-64.0611 L -14.6448,-63.5773 L -14.1871,-63.1474 L -13.6791,-62.7784 L -13.1289,-62.4759
 L -12.5451,-62.2447 L -11.9369,-62.0886 L -11.3139,-62.0099 L 17.3139,-62.0099 z
M -0.908127,-71.5128 L -1.71797,-71.6151 L -2.50861,-71.8181 L -3.26756,-72.1186 L -3.98286,-72.5119 L -4.64325,-72.9917
 L -5.23828,-73.5504 L -5.75861,-74.1794 L -6.19598,-74.8686 L -6.54353,-75.6072 L -6.79578,-76.3835 L -6.94873,-77.1853
 L -7,-78 L -6.94873,-78.8147 L -6.79578,-79.6165 L -6.54353,-80.3928 L -6.19598,-81.1314 L -5.75861,-81.8206
 L -5.23828,-82.4496 L -4.64325,-83.0083 L -3.98286,-83.4881 L -3.26756,-83.8814 L -2.50861,-84.1819 L -1.71797,-84.3849
 L -0.908127,-84.4872 L -0.0918579,-84.4872 L 0.717972,-84.3849 L 1.50861,-84.1819 L 2.26756,-83.8814 L 2.98286,-83.4881
 L 3.64325,-83.0083 L 4.23828,-82.4496 L 4.75861,-81.8206 L 5.19598,-81.1314 L 5.54353,-80.3928 L 5.79578,-79.6165
 L 5.94873,-78.8147 L 6,-78 L 5.94873,-77.1853 L 5.79578,-76.3835 L 5.54353,-75.6072 L 5.19598,-74.8686
 L 4.75861,-74.1794 L 4.23828,-73.5504 L 3.64325,-72.9917 L 2.98286,-72.5119 L 2.26756,-72.1186 L 1.50861,-71.8181
 L 0.717972,-71.6151 L -0.0918579,-71.5128 z
M 14.8116,-66.0059 L 14.4379,-66.0531 L 14.0729,-66.1468 L 13.7227,-66.2855 L 13.3925,-66.467 L 13.0877,-66.6885
 L 12.8131,-66.9464 L 12.5729,-67.2366 L 12.3711,-67.5547 L 12.2107,-67.8956 L 12.0942,-68.2539 L 12.0237,-68.624
 L 12,-69 L 12.0237,-69.376 L 12.0942,-69.7461 L 12.2107,-70.1044 L 12.3711,-70.4453 L 12.5729,-70.7634
 L 12.8131,-71.0536 L 13.0877,-71.3116 L 13.3925,-71.533 L 13.7227,-71.7145 L 14.0729,-71.8532 L 14.4379,-71.9469
 L 14.8116,-71.9941 L 15.1884,-71.9941 L 15.5621,-71.9469 L 15.927,-71.8532 L 16.2773,-71.7145 L 16.6075,-71.533
 L 16.9123,-71.3116 L 17.1869,-71.0536 L 17.427,-70.7634 L 17.6289,-70.4453 L 17.7893,-70.1044 L 17.9057,-69.7461
 L 17.9763,-69.376 L 18,-69 L 17.9763,-68.624 L 17.9057,-68.2539 L 17.7893,-67.8956 L 17.6289,-67.5547
 L 17.427,-67.2366 L 17.1869,-66.9464 L 16.9123,-66.6885 L 16.6075,-66.467 L 16.2773,-66.2855 L 15.927,-66.1468
 L 15.5621,-66.0531 L 15.1884,-66.0059 z
" stroke="black" fill="lightgray" stroke-width="0.5"/>
</svg>
