  0
SECTION
  2
BLOCKS
  0
ENDSEC
  0
SECTION
  2
ENTITIES
  0
LINE
  8
0
 10
-73.5
 20
248.941
 11
-73.1871
 21
248.647
  0
LINE
  8
0
 10
-73.1871
 20
248.647
 11
-72.6791
 21
248.278
  0
LINE
  8
0
 10
-72.6791
 20
248.278
 11
-72.1289
 21
247.976
  0
LINE
  8
0
 10
-72.1289
 20
247.976
 11
-71.5451
 21
247.745
  0
LINE
  8
0
 10
-71.5451
 20
247.745
 11
-70.9369
 21
247.589
  0
LINE
  8
0
 10
-70.9369
 20
247.589
 11
-70.3139
 21
247.51
  0
LINE
  8
0
 10
-70.3139
 20
247.51
 11
70.3139
 21
247.51
  0
LINE
  8
0
 10
70.3139
 20
247.51
 11
70.9369
 21
247.589
  0
LINE
  8
0
 10
70.9369
 20
247.589
 11
71.5451
 21
247.745
  0
LINE
  8
0
 10
71.5451
 20
247.745
 11
72.1289
 21
247.976
  0
LINE
  8
0
 10
72.1289
 20
247.976
 11
72.6791
 21
248.278
  0
LINE
  8
0
 10
72.6791
 20
248.278
 11
73.1871
 21
248.647
  0
LINE
  8
0
 10
73.1871
 20
248.647
 11
73.6448
 21
249.077
  0
LINE
  8
0
 10
73.6448
 20
249.077
 11
74.0451
 21
249.561
  0
LINE
  8
0
 10
74.0451
 20
249.561
 11
74.3815
 21
250.091
  0
LINE
  8
0
 10
74.3815
 20
250.091
 11
74.6489
 21
250.659
  0
LINE
  8
0
 10
74.6489
 20
250.659
 11
74.8429
 21
251.257
  0
LINE
  8
0
 10
74.8429
 20
251.257
 11
74.9606
 21
251.873
  0
LINE
  8
0
 10
74.9606
 20
251.873
 11
75
 21
252.5
  0
LINE
  8
0
 10
75
 20
252.5
 11
75
 21
287.5
  0
LINE
  8
0
 10
75
 20
287.5
 11
74.9606
 21
288.127
  0
LINE
  8
0
 10
74.9606
 20
288.127
 11
74.8429
 21
288.743
  0
LINE
  8
0
 10
74.8429
 20
288.743
 11
74.6489
 21
289.341
  0
LINE
  8
0
 10
74.6489
 20
289.341
 11
74.3815
 21
289.909
  0
LINE
  8
0
 10
74.3815
 20
289.909
 11
74.0451
 21
290.439
  0
LINE
  8
0
 10
74.0451
 20
290.439
 11
73.6448
 21
290.923
  0
LINE
  8
0
 10
73.6448
 20
290.923
 11
73.1871
 21
291.353
  0
LINE
  8
0
 10
73.1871
 20
291.353
 11
72.6791
 21
291.722
  0
LINE
  8
0
 10
72.6791
 20
291.722
 11
72.1289
 21
292.024
  0
LINE
  8
0
 10
72.1289
 20
292.024
 11
71.5451
 21
292.255
  0
LINE
  8
0
 10
71.5451
 20
292.255
 11
70.9369
 21
292.411
  0
LINE
  8
0
 10
70.9369
 20
292.411
 11
70.3139
 21
292.49
  0
LINE
  8
0
 10
70.3139
 20
292.49
 11
-70.3139
 21
292.49
  0
LINE
  8
0
 10
-70.3139
 20
292.49
 11
-70.9369
 21
292.411
  0
LINE
  8
0
 10
-70.9369
 20
292.411
 11
-71.5451
 21
292.255
  0
LINE
  8
0
 10
-71.5451
 20
292.255
 11
-72.1289
 21
292.024
  0
LINE
  8
0
 10
-72.1289
 20
292.024
 11
-72.6791
 21
291.722
  0
LINE
  8
0
 10
-72.6791
 20
291.722
 11
-73.1871
 21
291.353
  0
LINE
  8
0
 10
-73.1871
 20
291.353
 11
-73.5
 21
291.059
  0
LINE
  8
0
 10
-73.5
 20
291.059
 11
-73.5
 21
292.49
  0
LINE
  8
0
 10
-73.5
 20
292.49
 11
-76.5
 21
292.49
  0
LINE
  8
0
 10
-76.5
 20
292.49
 11
-76.5
 21
247.51
  0
LINE
  8
0
 10
-76.5
 20
247.51
 11
-73.5
 21
247.51
  0
LINE
  8
0
 10
-73.5
 20
247.51
 11
-73.5
 21
248.941
  0
LINE
  8
0
 10
-69.7512
 20
249.008
 11
-70.2495
 21
249.071
  0
LINE
  8
0
 10
-70.2495
 20
249.071
 11
-70.7361
 21
249.196
  0
LINE
  8
0
 10
-70.7361
 20
249.196
 11
-71.2031
 21
249.381
  0
LINE
  8
0
 10
-71.2031
 20
249.381
 11
-71.6433
 21
249.623
  0
LINE
  8
0
 10
-71.6433
 20
249.623
 11
-72.0497
 21
249.918
  0
LINE
  8
0
 10
-72.0497
 20
249.918
 11
-72.4159
 21
250.262
  0
LINE
  8
0
 10
-72.4159
 20
250.262
 11
-72.7361
 21
250.649
  0
LINE
  8
0
 10
-72.7361
 20
250.649
 11
-73.0052
 21
251.073
  0
LINE
  8
0
 10
-73.0052
 20
251.073
 11
-73.2191
 21
251.528
  0
LINE
  8
0
 10
-73.2191
 20
251.528
 11
-73.3743
 21
252.005
  0
LINE
  8
0
 10
-73.3743
 20
252.005
 11
-73.4685
 21
252.499
  0
LINE
  8
0
 10
-73.4685
 20
252.499
 11
-73.5
 21
253
  0
LINE
  8
0
 10
-73.5
 20
253
 11
-73.5
 21
287
  0
LINE
  8
0
 10
-73.5
 20
287
 11
-73.4685
 21
287.501
  0
LINE
  8
0
 10
-73.4685
 20
287.501
 11
-73.3743
 21
287.995
  0
LINE
  8
0
 10
-73.3743
 20
287.995
 11
-73.2191
 21
288.472
  0
LINE
  8
0
 10
-73.2191
 20
288.472
 11
-73.0052
 21
288.927
  0
LINE
  8
0
 10
-73.0052
 20
288.927
 11
-72.7361
 21
289.351
  0
LINE
  8
0
 10
-72.7361
 20
289.351
 11
-72.4159
 21
289.738
  0
LINE
  8
0
 10
-72.4159
 20
289.738
 11
-72.0497
 21
290.082
  0
LINE
  8
0
 10
-72.0497
 20
290.082
 11
-71.6433
 21
290.377
  0
LINE
  8
0
 10
-71.6433
 20
290.377
 11
-71.2031
 21
290.619
  0
LINE
  8
0
 10
-71.2031
 20
290.619
 11
-70.7361
 21
290.804
  0
LINE
  8
0
 10
-70.7361
 20
290.804
 11
-70.2495
 21
290.929
  0
LINE
  8
0
 10
-70.2495
 20
290.929
 11
-69.7512
 21
290.992
  0
LINE
  8
0
 10
-69.7512
 20
290.992
 11
69.7512
 21
290.992
  0
LINE
  8
0
 10
69.7512
 20
290.992
 11
70.2495
 21
290.929
  0
LINE
  8
0
 10
70.2495
 20
290.929
 11
70.7361
 21
290.804
  0
LINE
  8
0
 10
70.7361
 20
290.804
 11
71.2031
 21
290.619
  0
LINE
  8
0
 10
71.2031
 20
290.619
 11
71.6433
 21
290.377
  0
LINE
  8
0
 10
71.6433
 20
290.377
 11
72.0497
 21
290.082
  0
LINE
  8
0
 10
72.0497
 20
290.082
 11
72.4159
 21
289.738
  0
LINE
  8
0
 10
72.4159
 20
289.738
 11
72.7361
 21
289.351
  0
LINE
  8
0
 10
72.7361
 20
289.351
 11
73.0052
 21
288.927
  0
LINE
  8
0
 10
73.0052
 20
288.927
 11
73.2191
 21
288.472
  0
LINE
  8
0
 10
73.2191
 20
288.472
 11
73.3743
 21
287.995
  0
LINE
  8
0
 10
73.3743
 20
287.995
 11
73.4685
 21
287.501
  0
LINE
  8
0
 10
73.4685
 20
287.501
 11
73.5
 21
287
  0
LINE
  8
0
 10
73.5
 20
287
 11
73.5
 21
253
  0
LINE
  8
0
 10
73.5
 20
253
 11
73.4685
 21
252.499
  0
LINE
  8
0
 10
73.4685
 20
252.499
 11
73.3743
 21
252.005
  0
LINE
  8
0
 10
73.3743
 20
252.005
 11
73.2191
 21
251.528
  0
LINE
  8
0
 10
73.2191
 20
251.528
 11
73.0052
 21
251.073
  0
LINE
  8
0
 10
73.0052
 20
251.073
 11
72.7361
 21
250.649
  0
LINE
  8
0
 10
72.7361
 20
250.649
 11
72.4159
 21
250.262
  0
LINE
  8
0
 10
72.4159
 20
250.262
 11
72.0497
 21
249.918
  0
LINE
  8
0
 10
72.0497
 20
249.918
 11
71.6433
 21
249.623
  0
LINE
  8
0
 10
71.6433
 20
249.623
 11
71.2031
 21
249.381
  0
LINE
  8
0
 10
71.2031
 20
249.381
 11
70.7361
 21
249.196
  0
LINE
  8
0
 10
70.7361
 20
249.196
 11
70.2495
 21
249.071
  0
LINE
  8
0
 10
70.2495
 20
249.071
 11
69.7512
 21
249.008
  0
LINE
  8
0
 10
69.7512
 20
249.008
 11
-69.7512
 21
249.008
  0
LINE
  8
0
 10
70.9369
 20
193.589
 11
71.5451
 21
193.745
  0
LINE
  8
0
 10
71.5451
 20
193.745
 11
72.1289
 21
193.976
  0
LINE
  8
0
 10
72.1289
 20
193.976
 11
72.6791
 21
194.278
  0
LINE
  8
0
 10
72.6791
 20
194.278
 11
73.1871
 21
194.647
  0
LINE
  8
0
 10
73.1871
 20
194.647
 11
73.6448
 21
195.077
  0
LINE
  8
0
 10
73.6448
 20
195.077
 11
74.0451
 21
195.561
  0
LINE
  8
0
 10
74.0451
 20
195.561
 11
74.3815
 21
196.091
  0
LINE
  8
0
 10
74.3815
 20
196.091
 11
74.6489
 21
196.659
  0
LINE
  8
0
 10
74.6489
 20
196.659
 11
74.8429
 21
197.257
  0
LINE
  8
0
 10
74.8429
 20
197.257
 11
74.9606
 21
197.873
  0
LINE
  8
0
 10
74.9606
 20
197.873
 11
75
 21
198.5
  0
LINE
  8
0
 10
75
 20
198.5
 11
75
 21
233.5
  0
LINE
  8
0
 10
75
 20
233.5
 11
74.9606
 21
234.127
  0
LINE
  8
0
 10
74.9606
 20
234.127
 11
74.8429
 21
234.743
  0
LINE
  8
0
 10
74.8429
 20
234.743
 11
74.6489
 21
235.341
  0
LINE
  8
0
 10
74.6489
 20
235.341
 11
74.3815
 21
235.909
  0
LINE
  8
0
 10
74.3815
 20
235.909
 11
74.0451
 21
236.439
  0
LINE
  8
0
 10
74.0451
 20
236.439
 11
73.6448
 21
236.923
  0
LINE
  8
0
 10
73.6448
 20
236.923
 11
73.1871
 21
237.353
  0
LINE
  8
0
 10
73.1871
 20
237.353
 11
72.6791
 21
237.722
  0
LINE
  8
0
 10
72.6791
 20
237.722
 11
72.1289
 21
238.024
  0
LINE
  8
0
 10
72.1289
 20
238.024
 11
71.5451
 21
238.255
  0
LINE
  8
0
 10
71.5451
 20
238.255
 11
70.9369
 21
238.411
  0
LINE
  8
0
 10
70.9369
 20
238.411
 11
70.3139
 21
238.49
  0
LINE
  8
0
 10
70.3139
 20
238.49
 11
-70.3139
 21
238.49
  0
LINE
  8
0
 10
-70.3139
 20
238.49
 11
-70.9369
 21
238.411
  0
LINE
  8
0
 10
-70.9369
 20
238.411
 11
-71.5451
 21
238.255
  0
LINE
  8
0
 10
-71.5451
 20
238.255
 11
-72.1289
 21
238.024
  0
LINE
  8
0
 10
-72.1289
 20
238.024
 11
-72.6791
 21
237.722
  0
LINE
  8
0
 10
-72.6791
 20
237.722
 11
-73.1871
 21
237.353
  0
LINE
  8
0
 10
-73.1871
 20
237.353
 11
-73.5
 21
237.059
  0
LINE
  8
0
 10
-73.5
 20
237.059
 11
-73.5
 21
238.479
  0
LINE
  8
0
 10
-73.5
 20
238.479
 11
-76.5
 21
238.479
  0
LINE
  8
0
 10
-76.5
 20
238.479
 11
-76.5
 21
193.521
  0
LINE
  8
0
 10
-76.5
 20
193.521
 11
-73.5
 21
193.521
  0
LINE
  8
0
 10
-73.5
 20
193.521
 11
-73.5
 21
194.941
  0
LINE
  8
0
 10
-73.5
 20
194.941
 11
-73.1871
 21
194.647
  0
LINE
  8
0
 10
-73.1871
 20
194.647
 11
-72.6791
 21
194.278
  0
LINE
  8
0
 10
-72.6791
 20
194.278
 11
-72.1289
 21
193.976
  0
LINE
  8
0
 10
-72.1289
 20
193.976
 11
-71.5451
 21
193.745
  0
LINE
  8
0
 10
-71.5451
 20
193.745
 11
-70.9369
 21
193.589
  0
LINE
  8
0
 10
-70.9369
 20
193.589
 11
-70.3139
 21
193.51
  0
LINE
  8
0
 10
-70.3139
 20
193.51
 11
70.3139
 21
193.51
  0
LINE
  8
0
 10
70.3139
 20
193.51
 11
70.9369
 21
193.589
  0
LINE
  8
0
 10
-69.6955
 20
195.893
 11
-70.0833
 21
195.942
  0
LINE
  8
0
 10
-70.0833
 20
195.942
 11
-70.4619
 21
196.039
  0
LINE
  8
0
 10
-70.4619
 20
196.039
 11
-70.8254
 21
196.183
  0
LINE
  8
0
 10
-70.8254
 20
196.183
 11
-71.168
 21
196.372
  0
LINE
  8
0
 10
-71.168
 20
196.372
 11
-71.4843
 21
196.601
  0
LINE
  8
0
 10
-71.4843
 20
196.601
 11
-71.7692
 21
196.869
  0
LINE
  8
0
 10
-71.7692
 20
196.869
 11
-72.0184
 21
197.17
  0
LINE
  8
0
 10
-72.0184
 20
197.17
 11
-72.2279
 21
197.5
  0
LINE
  8
0
 10
-72.2279
 20
197.5
 11
-72.3943
 21
197.854
  0
LINE
  8
0
 10
-72.3943
 20
197.854
 11
-72.5151
 21
198.226
  0
LINE
  8
0
 10
-72.5151
 20
198.226
 11
-72.5884
 21
198.61
  0
LINE
  8
0
 10
-72.5884
 20
198.61
 11
-72.6129
 21
199
  0
LINE
  8
0
 10
-72.6129
 20
199
 11
-72.6129
 21
233
  0
LINE
  8
0
 10
-72.6129
 20
233
 11
-72.5884
 21
233.39
  0
LINE
  8
0
 10
-72.5884
 20
233.39
 11
-72.5151
 21
233.774
  0
LINE
  8
0
 10
-72.5151
 20
233.774
 11
-72.3943
 21
234.146
  0
LINE
  8
0
 10
-72.3943
 20
234.146
 11
-72.2279
 21
234.5
  0
LINE
  8
0
 10
-72.2279
 20
234.5
 11
-72.0184
 21
234.83
  0
LINE
  8
0
 10
-72.0184
 20
234.83
 11
-71.7692
 21
235.131
  0
LINE
  8
0
 10
-71.7692
 20
235.131
 11
-71.4843
 21
235.399
  0
LINE
  8
0
 10
-71.4843
 20
235.399
 11
-71.168
 21
235.628
  0
LINE
  8
0
 10
-71.168
 20
235.628
 11
-70.8254
 21
235.817
  0
LINE
  8
0
 10
-70.8254
 20
235.817
 11
-70.4619
 21
235.961
  0
LINE
  8
0
 10
-70.4619
 20
235.961
 11
-70.0833
 21
236.058
  0
LINE
  8
0
 10
-70.0833
 20
236.058
 11
-69.6955
 21
236.107
  0
LINE
  8
0
 10
-69.6955
 20
236.107
 11
69.6955
 21
236.107
  0
LINE
  8
0
 10
69.6955
 20
236.107
 11
70.0833
 21
236.058
  0
LINE
  8
0
 10
70.0833
 20
236.058
 11
70.4619
 21
235.961
  0
LINE
  8
0
 10
70.4619
 20
235.961
 11
70.8254
 21
235.817
  0
LINE
  8
0
 10
70.8254
 20
235.817
 11
71.168
 21
235.628
  0
LINE
  8
0
 10
71.168
 20
235.628
 11
71.4843
 21
235.399
  0
LINE
  8
0
 10
71.4843
 20
235.399
 11
71.7692
 21
235.131
  0
LINE
  8
0
 10
71.7692
 20
235.131
 11
72.0184
 21
234.83
  0
LINE
  8
0
 10
72.0184
 20
234.83
 11
72.2279
 21
234.5
  0
LINE
  8
0
 10
72.2279
 20
234.5
 11
72.3943
 21
234.146
  0
LINE
  8
0
 10
72.3943
 20
234.146
 11
72.5151
 21
233.774
  0
LINE
  8
0
 10
72.5151
 20
233.774
 11
72.5884
 21
233.39
  0
LINE
  8
0
 10
72.5884
 20
233.39
 11
72.6129
 21
233
  0
LINE
  8
0
 10
72.6129
 20
233
 11
72.6129
 21
199
  0
LINE
  8
0
 10
72.6129
 20
199
 11
72.5884
 21
198.61
  0
LINE
  8
0
 10
72.5884
 20
198.61
 11
72.5151
 21
198.226
  0
LINE
  8
0
 10
72.5151
 20
198.226
 11
72.3943
 21
197.854
  0
LINE
  8
0
 10
72.3943
 20
197.854
 11
72.2279
 21
197.5
  0
LINE
  8
0
 10
72.2279
 20
197.5
 11
72.0184
 21
197.17
  0
LINE
  8
0
 10
72.0184
 20
197.17
 11
71.7692
 21
196.869
  0
LINE
  8
0
 10
71.7692
 20
196.869
 11
71.4843
 21
196.601
  0
LINE
  8
0
 10
71.4843
 20
196.601
 11
71.168
 21
196.372
  0
LINE
  8
0
 10
71.168
 20
196.372
 11
70.8254
 21
196.183
  0
LINE
  8
0
 10
70.8254
 20
196.183
 11
70.4619
 21
196.039
  0
LINE
  8
0
 10
70.4619
 20
196.039
 11
70.0833
 21
195.942
  0
LINE
  8
0
 10
70.0833
 20
195.942
 11
69.6955
 21
195.893
  0
LINE
  8
0
 10
69.6955
 20
195.893
 11
-69.6955
 21
195.893
  0
LINE
  8
0
 10
70.9369
 20
139.589
 11
71.5451
 21
139.745
  0
LINE
  8
0
 10
71.5451
 20
139.745
 11
72.1289
 21
139.976
  0
LINE
  8
0
 10
72.1289
 20
139.976
 11
72.6791
 21
140.278
  0
LINE
  8
0
 10
72.6791
 20
140.278
 11
73.1871
 21
140.647
  0
LINE
  8
0
 10
73.1871
 20
140.647
 11
73.6448
 21
141.077
  0
LINE
  8
0
 10
73.6448
 20
141.077
 11
74.0451
 21
141.561
  0
LINE
  8
0
 10
74.0451
 20
141.561
 11
74.3815
 21
142.091
  0
LINE
  8
0
 10
74.3815
 20
142.091
 11
74.6489
 21
142.659
  0
LINE
  8
0
 10
74.6489
 20
142.659
 11
74.8429
 21
143.257
  0
LINE
  8
0
 10
74.8429
 20
143.257
 11
74.9606
 21
143.873
  0
LINE
  8
0
 10
74.9606
 20
143.873
 11
75
 21
144.5
  0
LINE
  8
0
 10
75
 20
144.5
 11
75
 21
179.5
  0
LINE
  8
0
 10
75
 20
179.5
 11
74.9606
 21
180.127
  0
LINE
  8
0
 10
74.9606
 20
180.127
 11
74.8429
 21
180.743
  0
LINE
  8
0
 10
74.8429
 20
180.743
 11
74.6489
 21
181.341
  0
LINE
  8
0
 10
74.6489
 20
181.341
 11
74.3815
 21
181.909
  0
LINE
  8
0
 10
74.3815
 20
181.909
 11
74.0451
 21
182.439
  0
LINE
  8
0
 10
74.0451
 20
182.439
 11
73.6448
 21
182.923
  0
LINE
  8
0
 10
73.6448
 20
182.923
 11
73.1871
 21
183.353
  0
LINE
  8
0
 10
73.1871
 20
183.353
 11
72.6791
 21
183.722
  0
LINE
  8
0
 10
72.6791
 20
183.722
 11
72.1289
 21
184.024
  0
LINE
  8
0
 10
72.1289
 20
184.024
 11
71.5451
 21
184.255
  0
LINE
  8
0
 10
71.5451
 20
184.255
 11
70.9369
 21
184.411
  0
LINE
  8
0
 10
70.9369
 20
184.411
 11
70.3139
 21
184.49
  0
LINE
  8
0
 10
70.3139
 20
184.49
 11
-70.3139
 21
184.49
  0
LINE
  8
0
 10
-70.3139
 20
184.49
 11
-70.9369
 21
184.411
  0
LINE
  8
0
 10
-70.9369
 20
184.411
 11
-71.5451
 21
184.255
  0
LINE
  8
0
 10
-71.5451
 20
184.255
 11
-72.1289
 21
184.024
  0
LINE
  8
0
 10
-72.1289
 20
184.024
 11
-72.6791
 21
183.722
  0
LINE
  8
0
 10
-72.6791
 20
183.722
 11
-73.1871
 21
183.353
  0
LINE
  8
0
 10
-73.1871
 20
183.353
 11
-73.5
 21
183.059
  0
LINE
  8
0
 10
-73.5
 20
183.059
 11
-73.5
 21
183.153
  0
LINE
  8
0
 10
-73.5
 20
183.153
 11
-76.5
 21
183.153
  0
LINE
  8
0
 10
-76.5
 20
183.153
 11
-76.5
 21
140.847
  0
LINE
  8
0
 10
-76.5
 20
140.847
 11
-73.5
 21
140.847
  0
LINE
  8
0
 10
-73.5
 20
140.847
 11
-73.5
 21
140.941
  0
LINE
  8
0
 10
-73.5
 20
140.941
 11
-73.1871
 21
140.647
  0
LINE
  8
0
 10
-73.1871
 20
140.647
 11
-72.6791
 21
140.278
  0
LINE
  8
0
 10
-72.6791
 20
140.278
 11
-72.1289
 21
139.976
  0
LINE
  8
0
 10
-72.1289
 20
139.976
 11
-71.5451
 21
139.745
  0
LINE
  8
0
 10
-71.5451
 20
139.745
 11
-70.9369
 21
139.589
  0
LINE
  8
0
 10
-70.9369
 20
139.589
 11
-70.3139
 21
139.51
  0
LINE
  8
0
 10
-70.3139
 20
139.51
 11
70.3139
 21
139.51
  0
LINE
  8
0
 10
70.3139
 20
139.51
 11
70.9369
 21
139.589
  0
LINE
  8
0
 10
67.3659
 20
174.869
 11
67.0999
 21
174.903
  0
LINE
  8
0
 10
67.0999
 20
174.903
 11
66.8401
 21
174.969
  0
LINE
  8
0
 10
66.8401
 20
174.969
 11
66.5908
 21
175.068
  0
LINE
  8
0
 10
66.5908
 20
175.068
 11
66.3559
 21
175.197
  0
LINE
  8
0
 10
66.3559
 20
175.197
 11
66.1389
 21
175.355
  0
LINE
  8
0
 10
66.1389
 20
175.355
 11
65.9434
 21
175.538
  0
LINE
  8
0
 10
65.9434
 20
175.538
 11
65.7725
 21
175.745
  0
LINE
  8
0
 10
65.7725
 20
175.745
 11
65.6288
 21
175.971
  0
LINE
  8
0
 10
65.6288
 20
175.971
 11
65.5146
 21
176.214
  0
LINE
  8
0
 10
65.5146
 20
176.214
 11
65.4318
 21
176.469
  0
LINE
  8
0
 10
65.4318
 20
176.469
 11
65.3815
 21
176.732
  0
LINE
  8
0
 10
65.3815
 20
176.732
 11
65.3647
 21
177
  0
LINE
  8
0
 10
65.3647
 20
177
 11
65.3815
 21
177.268
  0
LINE
  8
0
 10
65.3815
 20
177.268
 11
65.4318
 21
177.531
  0
LINE
  8
0
 10
65.4318
 20
177.531
 11
65.5146
 21
177.786
  0
LINE
  8
0
 10
65.5146
 20
177.786
 11
65.6288
 21
178.029
  0
LINE
  8
0
 10
65.6288
 20
178.029
 11
65.7725
 21
178.255
  0
LINE
  8
0
 10
65.7725
 20
178.255
 11
65.9434
 21
178.462
  0
LINE
  8
0
 10
65.9434
 20
178.462
 11
66.1389
 21
178.645
  0
LINE
  8
0
 10
66.1389
 20
178.645
 11
66.3559
 21
178.803
  0
LINE
  8
0
 10
66.3559
 20
178.803
 11
66.5908
 21
178.932
  0
LINE
  8
0
 10
66.5908
 20
178.932
 11
66.8401
 21
179.031
  0
LINE
  8
0
 10
66.8401
 20
179.031
 11
67.0999
 21
179.097
  0
LINE
  8
0
 10
67.0999
 20
179.097
 11
67.3659
 21
179.131
  0
LINE
  8
0
 10
67.3659
 20
179.131
 11
67.6341
 21
179.131
  0
LINE
  8
0
 10
67.6341
 20
179.131
 11
67.9001
 21
179.097
  0
LINE
  8
0
 10
67.9001
 20
179.097
 11
68.1598
 21
179.031
  0
LINE
  8
0
 10
68.1598
 20
179.031
 11
68.4092
 21
178.932
  0
LINE
  8
0
 10
68.4092
 20
178.932
 11
68.6441
 21
178.803
  0
LINE
  8
0
 10
68.6441
 20
178.803
 11
68.8611
 21
178.645
  0
LINE
  8
0
 10
68.8611
 20
178.645
 11
69.0566
 21
178.462
  0
LINE
  8
0
 10
69.0566
 20
178.462
 11
69.2275
 21
178.255
  0
LINE
  8
0
 10
69.2275
 20
178.255
 11
69.3712
 21
178.029
  0
LINE
  8
0
 10
69.3712
 20
178.029
 11
69.4853
 21
177.786
  0
LINE
  8
0
 10
69.4853
 20
177.786
 11
69.5682
 21
177.531
  0
LINE
  8
0
 10
69.5682
 20
177.531
 11
69.6185
 21
177.268
  0
LINE
  8
0
 10
69.6185
 20
177.268
 11
69.6353
 21
177
  0
LINE
  8
0
 10
69.6353
 20
177
 11
69.6185
 21
176.732
  0
LINE
  8
0
 10
69.6185
 20
176.732
 11
69.5682
 21
176.469
  0
LINE
  8
0
 10
69.5682
 20
176.469
 11
69.4853
 21
176.214
  0
LINE
  8
0
 10
69.4853
 20
176.214
 11
69.3712
 21
175.971
  0
LINE
  8
0
 10
69.3712
 20
175.971
 11
69.2275
 21
175.745
  0
LINE
  8
0
 10
69.2275
 20
175.745
 11
69.0566
 21
175.538
  0
LINE
  8
0
 10
69.0566
 20
175.538
 11
68.8611
 21
175.355
  0
LINE
  8
0
 10
68.8611
 20
175.355
 11
68.6441
 21
175.197
  0
LINE
  8
0
 10
68.6441
 20
175.197
 11
68.4092
 21
175.068
  0
LINE
  8
0
 10
68.4092
 20
175.068
 11
68.1598
 21
174.969
  0
LINE
  8
0
 10
68.1598
 20
174.969
 11
67.9001
 21
174.903
  0
LINE
  8
0
 10
67.9001
 20
174.903
 11
67.6341
 21
174.869
  0
LINE
  8
0
 10
67.6341
 20
174.869
 11
67.3659
 21
174.869
  0
LINE
  8
0
 10
-67.6341
 20
174.869
 11
-67.9001
 21
174.903
  0
LINE
  8
0
 10
-67.9001
 20
174.903
 11
-68.1598
 21
174.969
  0
LINE
  8
0
 10
-68.1598
 20
174.969
 11
-68.4092
 21
175.068
  0
LINE
  8
0
 10
-68.4092
 20
175.068
 11
-68.6441
 21
175.197
  0
LINE
  8
0
 10
-68.6441
 20
175.197
 11
-68.8611
 21
175.355
  0
LINE
  8
0
 10
-68.8611
 20
175.355
 11
-69.0566
 21
175.538
  0
LINE
  8
0
 10
-69.0566
 20
175.538
 11
-69.2275
 21
175.745
  0
LINE
  8
0
 10
-69.2275
 20
175.745
 11
-69.3712
 21
175.971
  0
LINE
  8
0
 10
-69.3712
 20
175.971
 11
-69.4853
 21
176.214
  0
LINE
  8
0
 10
-69.4853
 20
176.214
 11
-69.5682
 21
176.469
  0
LINE
  8
0
 10
-69.5682
 20
176.469
 11
-69.6185
 21
176.732
  0
LINE
  8
0
 10
-69.6185
 20
176.732
 11
-69.6353
 21
177
  0
LINE
  8
0
 10
-69.6353
 20
177
 11
-69.6185
 21
177.268
  0
LINE
  8
0
 10
-69.6185
 20
177.268
 11
-69.5682
 21
177.531
  0
LINE
  8
0
 10
-69.5682
 20
177.531
 11
-69.4853
 21
177.786
  0
LINE
  8
0
 10
-69.4853
 20
177.786
 11
-69.3712
 21
178.029
  0
LINE
  8
0
 10
-69.3712
 20
178.029
 11
-69.2275
 21
178.255
  0
LINE
  8
0
 10
-69.2275
 20
178.255
 11
-69.0566
 21
178.462
  0
LINE
  8
0
 10
-69.0566
 20
178.462
 11
-68.8611
 21
178.645
  0
LINE
  8
0
 10
-68.8611
 20
178.645
 11
-68.6441
 21
178.803
  0
LINE
  8
0
 10
-68.6441
 20
178.803
 11
-68.4092
 21
178.932
  0
LINE
  8
0
 10
-68.4092
 20
178.932
 11
-68.1598
 21
179.031
  0
LINE
  8
0
 10
-68.1598
 20
179.031
 11
-67.9001
 21
179.097
  0
LINE
  8
0
 10
-67.9001
 20
179.097
 11
-67.6341
 21
179.131
  0
LINE
  8
0
 10
-67.6341
 20
179.131
 11
-67.3659
 21
179.131
  0
LINE
  8
0
 10
-67.3659
 20
179.131
 11
-67.0999
 21
179.097
  0
LINE
  8
0
 10
-67.0999
 20
179.097
 11
-66.8401
 21
179.031
  0
LINE
  8
0
 10
-66.8401
 20
179.031
 11
-66.5908
 21
178.932
  0
LINE
  8
0
 10
-66.5908
 20
178.932
 11
-66.3559
 21
178.803
  0
LINE
  8
0
 10
-66.3559
 20
178.803
 11
-66.1389
 21
178.645
  0
LINE
  8
0
 10
-66.1389
 20
178.645
 11
-65.9434
 21
178.462
  0
LINE
  8
0
 10
-65.9434
 20
178.462
 11
-65.7725
 21
178.255
  0
LINE
  8
0
 10
-65.7725
 20
178.255
 11
-65.6288
 21
178.029
  0
LINE
  8
0
 10
-65.6288
 20
178.029
 11
-65.5146
 21
177.786
  0
LINE
  8
0
 10
-65.5146
 20
177.786
 11
-65.4318
 21
177.531
  0
LINE
  8
0
 10
-65.4318
 20
177.531
 11
-65.3815
 21
177.268
  0
LINE
  8
0
 10
-65.3815
 20
177.268
 11
-65.3647
 21
177
  0
LINE
  8
0
 10
-65.3647
 20
177
 11
-65.3815
 21
176.732
  0
LINE
  8
0
 10
-65.3815
 20
176.732
 11
-65.4318
 21
176.469
  0
LINE
  8
0
 10
-65.4318
 20
176.469
 11
-65.5146
 21
176.214
  0
LINE
  8
0
 10
-65.5146
 20
176.214
 11
-65.6288
 21
175.971
  0
LINE
  8
0
 10
-65.6288
 20
175.971
 11
-65.7725
 21
175.745
  0
LINE
  8
0
 10
-65.7725
 20
175.745
 11
-65.9434
 21
175.538
  0
LINE
  8
0
 10
-65.9434
 20
175.538
 11
-66.1389
 21
175.355
  0
LINE
  8
0
 10
-66.1389
 20
175.355
 11
-66.3559
 21
175.197
  0
LINE
  8
0
 10
-66.3559
 20
175.197
 11
-66.5908
 21
175.068
  0
LINE
  8
0
 10
-66.5908
 20
175.068
 11
-66.8401
 21
174.969
  0
LINE
  8
0
 10
-66.8401
 20
174.969
 11
-67.0999
 21
174.903
  0
LINE
  8
0
 10
-67.0999
 20
174.903
 11
-67.3659
 21
174.869
  0
LINE
  8
0
 10
-67.3659
 20
174.869
 11
-67.6341
 21
174.869
  0
LINE
  8
0
 10
67.3659
 20
144.869
 11
67.0999
 21
144.903
  0
LINE
  8
0
 10
67.0999
 20
144.903
 11
66.8401
 21
144.969
  0
LINE
  8
0
 10
66.8401
 20
144.969
 11
66.5908
 21
145.068
  0
LINE
  8
0
 10
66.5908
 20
145.068
 11
66.3559
 21
145.197
  0
LINE
  8
0
 10
66.3559
 20
145.197
 11
66.1389
 21
145.355
  0
LINE
  8
0
 10
66.1389
 20
145.355
 11
65.9434
 21
145.538
  0
LINE
  8
0
 10
65.9434
 20
145.538
 11
65.7725
 21
145.745
  0
LINE
  8
0
 10
65.7725
 20
145.745
 11
65.6288
 21
145.971
  0
LINE
  8
0
 10
65.6288
 20
145.971
 11
65.5146
 21
146.214
  0
LINE
  8
0
 10
65.5146
 20
146.214
 11
65.4318
 21
146.469
  0
LINE
  8
0
 10
65.4318
 20
146.469
 11
65.3815
 21
146.732
  0
LINE
  8
0
 10
65.3815
 20
146.732
 11
65.3647
 21
147
  0
LINE
  8
0
 10
65.3647
 20
147
 11
65.3815
 21
147.268
  0
LINE
  8
0
 10
65.3815
 20
147.268
 11
65.4318
 21
147.531
  0
LINE
  8
0
 10
65.4318
 20
147.531
 11
65.5146
 21
147.786
  0
LINE
  8
0
 10
65.5146
 20
147.786
 11
65.6288
 21
148.029
  0
LINE
  8
0
 10
65.6288
 20
148.029
 11
65.7725
 21
148.255
  0
LINE
  8
0
 10
65.7725
 20
148.255
 11
65.9434
 21
148.462
  0
LINE
  8
0
 10
65.9434
 20
148.462
 11
66.1389
 21
148.645
  0
LINE
  8
0
 10
66.1389
 20
148.645
 11
66.3559
 21
148.803
  0
LINE
  8
0
 10
66.3559
 20
148.803
 11
66.5908
 21
148.932
  0
LINE
  8
0
 10
66.5908
 20
148.932
 11
66.8401
 21
149.031
  0
LINE
  8
0
 10
66.8401
 20
149.031
 11
67.0999
 21
149.097
  0
LINE
  8
0
 10
67.0999
 20
149.097
 11
67.3659
 21
149.131
  0
LINE
  8
0
 10
67.3659
 20
149.131
 11
67.6341
 21
149.131
  0
LINE
  8
0
 10
67.6341
 20
149.131
 11
67.9001
 21
149.097
  0
LINE
  8
0
 10
67.9001
 20
149.097
 11
68.1598
 21
149.031
  0
LINE
  8
0
 10
68.1598
 20
149.031
 11
68.4092
 21
148.932
  0
LINE
  8
0
 10
68.4092
 20
148.932
 11
68.6441
 21
148.803
  0
LINE
  8
0
 10
68.6441
 20
148.803
 11
68.8611
 21
148.645
  0
LINE
  8
0
 10
68.8611
 20
148.645
 11
69.0566
 21
148.462
  0
LINE
  8
0
 10
69.0566
 20
148.462
 11
69.2275
 21
148.255
  0
LINE
  8
0
 10
69.2275
 20
148.255
 11
69.3712
 21
148.029
  0
LINE
  8
0
 10
69.3712
 20
148.029
 11
69.4853
 21
147.786
  0
LINE
  8
0
 10
69.4853
 20
147.786
 11
69.5682
 21
147.531
  0
LINE
  8
0
 10
69.5682
 20
147.531
 11
69.6185
 21
147.268
  0
LINE
  8
0
 10
69.6185
 20
147.268
 11
69.6353
 21
147
  0
LINE
  8
0
 10
69.6353
 20
147
 11
69.6185
 21
146.732
  0
LINE
  8
0
 10
69.6185
 20
146.732
 11
69.5682
 21
146.469
  0
LINE
  8
0
 10
69.5682
 20
146.469
 11
69.4853
 21
146.214
  0
LINE
  8
0
 10
69.4853
 20
146.214
 11
69.3712
 21
145.971
  0
LINE
  8
0
 10
69.3712
 20
145.971
 11
69.2275
 21
145.745
  0
LINE
  8
0
 10
69.2275
 20
145.745
 11
69.0566
 21
145.538
  0
LINE
  8
0
 10
69.0566
 20
145.538
 11
68.8611
 21
145.355
  0
LINE
  8
0
 10
68.8611
 20
145.355
 11
68.6441
 21
145.197
  0
LINE
  8
0
 10
68.6441
 20
145.197
 11
68.4092
 21
145.068
  0
LINE
  8
0
 10
68.4092
 20
145.068
 11
68.1598
 21
144.969
  0
LINE
  8
0
 10
68.1598
 20
144.969
 11
67.9001
 21
144.903
  0
LINE
  8
0
 10
67.9001
 20
144.903
 11
67.6341
 21
144.869
  0
LINE
  8
0
 10
67.6341
 20
144.869
 11
67.3659
 21
144.869
  0
LINE
  8
0
 10
-67.6341
 20
144.869
 11
-67.9001
 21
144.903
  0
LINE
  8
0
 10
-67.9001
 20
144.903
 11
-68.1598
 21
144.969
  0
LINE
  8
0
 10
-68.1598
 20
144.969
 11
-68.4092
 21
145.068
  0
LINE
  8
0
 10
-68.4092
 20
145.068
 11
-68.6441
 21
145.197
  0
LINE
  8
0
 10
-68.6441
 20
145.197
 11
-68.8611
 21
145.355
  0
LINE
  8
0
 10
-68.8611
 20
145.355
 11
-69.0566
 21
145.538
  0
LINE
  8
0
 10
-69.0566
 20
145.538
 11
-69.2275
 21
145.745
  0
LINE
  8
0
 10
-69.2275
 20
145.745
 11
-69.3712
 21
145.971
  0
LINE
  8
0
 10
-69.3712
 20
145.971
 11
-69.4853
 21
146.214
  0
LINE
  8
0
 10
-69.4853
 20
146.214
 11
-69.5682
 21
146.469
  0
LINE
  8
0
 10
-69.5682
 20
146.469
 11
-69.6185
 21
146.732
  0
LINE
  8
0
 10
-69.6185
 20
146.732
 11
-69.6353
 21
147
  0
LINE
  8
0
 10
-69.6353
 20
147
 11
-69.6185
 21
147.268
  0
LINE
  8
0
 10
-69.6185
 20
147.268
 11
-69.5682
 21
147.531
  0
LINE
  8
0
 10
-69.5682
 20
147.531
 11
-69.4853
 21
147.786
  0
LINE
  8
0
 10
-69.4853
 20
147.786
 11
-69.3712
 21
148.029
  0
LINE
  8
0
 10
-69.3712
 20
148.029
 11
-69.2275
 21
148.255
  0
LINE
  8
0
 10
-69.2275
 20
148.255
 11
-69.0566
 21
148.462
  0
LINE
  8
0
 10
-69.0566
 20
148.462
 11
-68.8611
 21
148.645
  0
LINE
  8
0
 10
-68.8611
 20
148.645
 11
-68.6441
 21
148.803
  0
LINE
  8
0
 10
-68.6441
 20
148.803
 11
-68.4092
 21
148.932
  0
LINE
  8
0
 10
-68.4092
 20
148.932
 11
-68.1598
 21
149.031
  0
LINE
  8
0
 10
-68.1598
 20
149.031
 11
-67.9001
 21
149.097
  0
LINE
  8
0
 10
-67.9001
 20
149.097
 11
-67.6341
 21
149.131
  0
LINE
  8
0
 10
-67.6341
 20
149.131
 11
-67.3659
 21
149.131
  0
LINE
  8
0
 10
-67.3659
 20
149.131
 11
-67.0999
 21
149.097
  0
LINE
  8
0
 10
-67.0999
 20
149.097
 11
-66.8401
 21
149.031
  0
LINE
  8
0
 10
-66.8401
 20
149.031
 11
-66.5908
 21
148.932
  0
LINE
  8
0
 10
-66.5908
 20
148.932
 11
-66.3559
 21
148.803
  0
LINE
  8
0
 10
-66.3559
 20
148.803
 11
-66.1389
 21
148.645
  0
LINE
  8
0
 10
-66.1389
 20
148.645
 11
-65.9434
 21
148.462
  0
LINE
  8
0
 10
-65.9434
 20
148.462
 11
-65.7725
 21
148.255
  0
LINE
  8
0
 10
-65.7725
 20
148.255
 11
-65.6288
 21
148.029
  0
LINE
  8
0
 10
-65.6288
 20
148.029
 11
-65.5146
 21
147.786
  0
LINE
  8
0
 10
-65.5146
 20
147.786
 11
-65.4318
 21
147.531
  0
LINE
  8
0
 10
-65.4318
 20
147.531
 11
-65.3815
 21
147.268
  0
LINE
  8
0
 10
-65.3815
 20
147.268
 11
-65.3647
 21
147
  0
LINE
  8
0
 10
-65.3647
 20
147
 11
-65.3815
 21
146.732
  0
LINE
  8
0
 10
-65.3815
 20
146.732
 11
-65.4318
 21
146.469
  0
LINE
  8
0
 10
-65.4318
 20
146.469
 11
-65.5146
 21
146.214
  0
LINE
  8
0
 10
-65.5146
 20
146.214
 11
-65.6288
 21
145.971
  0
LINE
  8
0
 10
-65.6288
 20
145.971
 11
-65.7725
 21
145.745
  0
LINE
  8
0
 10
-65.7725
 20
145.745
 11
-65.9434
 21
145.538
  0
LINE
  8
0
 10
-65.9434
 20
145.538
 11
-66.1389
 21
145.355
  0
LINE
  8
0
 10
-66.1389
 20
145.355
 11
-66.3559
 21
145.197
  0
LINE
  8
0
 10
-66.3559
 20
145.197
 11
-66.5908
 21
145.068
  0
LINE
  8
0
 10
-66.5908
 20
145.068
 11
-66.8401
 21
144.969
  0
LINE
  8
0
 10
-66.8401
 20
144.969
 11
-67.0999
 21
144.903
  0
LINE
  8
0
 10
-67.0999
 20
144.903
 11
-67.3659
 21
144.869
  0
LINE
  8
0
 10
-67.3659
 20
144.869
 11
-67.6341
 21
144.869
  0
ENDSEC
  0
SECTION
  2
OBJECTS
  0
DICTIONARY
  0
ENDSEC
  0
EOF
