<?xml version="1.0" standalone="no"?>
<!DOCTYPE svg PUBLIC "-//W3C//DTD SVG 1.1//EN" "http://www.w3.org/Graphics/SVG/1.1/DTD/svg11.dtd">
<svg width="30mm" height="412mm" viewBox="-15 -794 30 412" xmlns="http://www.w3.org/2000/svg" version="1.1">
<title>OpenSCAD Model</title>
<path d="
M 10.9369,-718.589 L 11.5451,-718.745 L 12.1289,-718.976 L 12.6791,-719.278 L 13.1871,-719.647 L 13.6448,-720.077
 L 14.0451,-720.561 L 14.3815,-721.091 L 14.6489,-721.659 L 14.8429,-722.257 L 14.9606,-722.873 L 15,-723.5
 L 15,-788.5 L 14.9606,-789.127 L 14.8429,-789.743 L 14.6489,-790.341 L 14.3815,-790.909 L 14.0451,-791.439
 L 13.6448,-791.923 L 13.1871,-792.353 L 12.6791,-792.722 L 12.1289,-793.024 L 11.5451,-793.255 L 10.9369,-793.411
 L 10.3139,-793.49 L -10.3139,-793.49 L -10.9369,-793.411 L -11.5451,-793.255 L -12.1289,-793.024 L -12.6791,-792.722
 L -13.1871,-792.353 L -13.6448,-791.923 L -14.0451,-791.439 L -14.3815,-790.909 L -14.6489,-790.341 L -14.8429,-789.743
 L -14.9606,-789.127 L -15,-788.5 L -15,-723.5 L -14.9606,-722.873 L -14.8429,-722.257 L -14.6489,-721.659
 L -14.3815,-721.091 L -14.0451,-720.561 L -13.6448,-720.077 L -13.1871,-719.647 L -12.6791,-719.278 L -12.1289,-718.976
 L -11.5451,-718.745 L -10.9369,-718.589 L -10.3139,-718.51 L 10.3139,-718.51 z
M -9.75116,-720.008 L -10.2495,-720.071 L -10.7361,-720.196 L -11.2031,-720.381 L -11.6433,-720.623 L -12.0497,-720.918
 L -12.4159,-721.262 L -12.7361,-721.649 L -13.0052,-722.073 L -13.2191,-722.528 L -13.3743,-723.005 L -13.4684,-723.499
 L -13.5,-724 L -13.5,-788 L -13.4684,-788.501 L -13.3743,-788.995 L -13.2191,-789.472 L -13.0052,-789.927
 L -12.7361,-790.351 L -12.4159,-790.738 L -12.0497,-791.082 L -11.6433,-791.377 L -11.2031,-791.619 L -10.7361,-791.804
 L -10.2495,-791.929 L -9.75116,-791.992 L 9.75116,-791.992 L 10.2495,-791.929 L 10.7361,-791.804 L 11.2031,-791.619
 L 11.6433,-791.377 L 12.0497,-791.082 L 12.4159,-790.738 L 12.7361,-790.351 L 13.0052,-789.927 L 13.2191,-789.472
 L 13.3743,-788.995 L 13.4684,-788.501 L 13.5,-788 L 13.5,-724 L 13.4684,-723.499 L 13.3743,-723.005
 L 13.2191,-722.528 L 13.0052,-722.073 L 12.7361,-721.649 L 12.4159,-721.262 L 12.0497,-720.918 L 11.6433,-720.623
 L 11.2031,-720.381 L 10.7361,-720.196 L 10.2495,-720.071 L 9.75116,-720.008 z
M 10.9369,-634.589 L 11.5451,-634.745 L 12.1289,-634.976 L 12.6791,-635.278 L 13.1871,-635.647 L 13.6448,-636.077
 L 14.0451,-636.561 L 14.3815,-637.091 L 14.6489,-637.659 L 14.8429,-638.257 L 14.9606,-638.873 L 15,-639.5
 L 15,-704.5 L 14.9606,-705.127 L 14.8429,-705.743 L 14.6489,-706.341 L 14.3815,-706.909 L 14.0451,-707.439
 L 13.6448,-707.923 L 13.1871,-708.353 L 12.6791,-708.722 L 12.1289,-709.024 L 11.5451,-709.255 L 10.9369,-709.411
 L 10.3139,-709.49 L -10.3139,-709.49 L -10.9369,-709.411 L -11.5451,-709.255 L -12.1289,-709.024 L -12.6791,-708.722
 L -13.1871,-708.353 L -13.6448,-707.923 L -14.0451,-707.439 L -14.3815,-706.909 L -14.6489,-706.341 L -14.8429,-705.743
 L -14.9606,-705.127 L -15,-704.5 L -15,-639.5 L -14.9606,-638.873 L -14.8429,-638.257 L -14.6489,-637.659
 L -14.3815,-637.091 L -14.0451,-636.561 L -13.6448,-636.077 L -13.1871,-635.647 L -12.6791,-635.278 L -12.1289,-634.976
 L -11.5451,-634.745 L -10.9369,-634.589 L -10.3139,-634.51 L 10.3139,-634.51 z
M -9.75116,-636.008 L -10.2495,-636.071 L -10.7361,-636.196 L -11.2031,-636.381 L -11.6433,-636.623 L -12.0497,-636.918
 L -12.4159,-637.262 L -12.7361,-637.649 L -13.0052,-638.073 L -13.2191,-638.528 L -13.3743,-639.005 L -13.4684,-639.499
 L -13.5,-640 L -13.5,-704 L -13.4684,-704.501 L -13.3743,-704.995 L -13.2191,-705.472 L -13.0052,-705.927
 L -12.7361,-706.351 L -12.4159,-706.738 L -12.0497,-707.082 L -11.6433,-707.377 L -11.2031,-707.619 L -10.7361,-707.804
 L -10.2495,-707.929 L -9.75116,-707.992 L 9.75116,-707.992 L 10.2495,-707.929 L 10.7361,-707.804 L 11.2031,-707.619
 L 11.6433,-707.377 L 12.0497,-707.082 L 12.4159,-706.738 L 12.7361,-706.351 L 13.0052,-705.927 L 13.2191,-705.472
 L 13.3743,-704.995 L 13.4684,-704.501 L 13.5,-704 L 13.5,-640 L 13.4684,-639.499 L 13.3743,-639.005
 L 13.2191,-638.528 L 13.0052,-638.073 L 12.7361,-637.649 L 12.4159,-637.262 L 12.0497,-636.918 L 11.6433,-636.623
 L 11.2031,-636.381 L 10.7361,-636.196 L 10.2495,-636.071 L 9.75116,-636.008 z
M 10.9369,-550.589 L 11.5451,-550.745 L 12.1289,-550.976 L 12.6791,-551.278 L 13.1871,-551.647 L 13.6448,-552.077
 L 14.0451,-552.561 L 14.3815,-553.091 L 14.6489,-553.659 L 14.8429,-554.257 L 14.9606,-554.873 L 15,-555.5
 L 15,-620.5 L 14.9606,-621.127 L 14.8429,-621.743 L 14.6489,-622.341 L 14.3815,-622.909 L 14.0451,-623.439
 L 13.6448,-623.923 L 13.1871,-624.353 L 12.6791,-624.722 L 12.1289,-625.024 L 11.5451,-625.255 L 10.9369,-625.411
 L 10.3139,-625.49 L -10.3139,-625.49 L -10.9369,-625.411 L -11.5451,-625.255 L -12.1289,-625.024 L -12.6791,-624.722
 L -13.1871,-624.353 L -13.6448,-623.923 L -14.0451,-623.439 L -14.3815,-622.909 L -14.6489,-622.341 L -14.8429,-621.743
 L -14.9606,-621.127 L -15,-620.5 L -15,-555.5 L -14.9606,-554.873 L -14.8429,-554.257 L -14.6489,-553.659
 L -14.3815,-553.091 L -14.0451,-552.561 L -13.6448,-552.077 L -13.1871,-551.647 L -12.6791,-551.278 L -12.1289,-550.976
 L -11.5451,-550.745 L -10.9369,-550.589 L -10.3139,-550.51 L 10.3139,-550.51 z
M -9.75116,-552.008 L -10.2495,-552.071 L -10.7361,-552.196 L -11.2031,-552.381 L -11.6433,-552.623 L -12.0497,-552.918
 L -12.4159,-553.262 L -12.7361,-553.649 L -13.0052,-554.073 L -13.2191,-554.528 L -13.3743,-555.005 L -13.4684,-555.499
 L -13.5,-556 L -13.5,-620 L -13.4684,-620.501 L -13.3743,-620.995 L -13.2191,-621.472 L -13.0052,-621.927
 L -12.7361,-622.351 L -12.4159,-622.738 L -12.0497,-623.082 L -11.6433,-623.377 L -11.2031,-623.619 L -10.7361,-623.804
 L -10.2495,-623.929 L -9.75116,-623.992 L 9.75116,-623.992 L 10.2495,-623.929 L 10.7361,-623.804 L 11.2031,-623.619
 L 11.6433,-623.377 L 12.0497,-623.082 L 12.4159,-622.738 L 12.7361,-622.351 L 13.0052,-621.927 L 13.2191,-621.472
 L 13.3743,-620.995 L 13.4684,-620.501 L 13.5,-620 L 13.5,-556 L 13.4684,-555.499 L 13.3743,-555.005
 L 13.2191,-554.528 L 13.0052,-554.073 L 12.7361,-553.649 L 12.4159,-553.262 L 12.0497,-552.918 L 11.6433,-552.623
 L 11.2031,-552.381 L 10.7361,-552.196 L 10.2495,-552.071 L 9.75116,-552.008 z
M 10.9369,-466.589 L 11.5451,-466.745 L 12.1289,-466.976 L 12.6791,-467.278 L 13.1871,-467.647 L 13.6448,-468.077
 L 14.0451,-468.561 L 14.3815,-469.091 L 14.6489,-469.659 L 14.8429,-470.257 L 14.9606,-470.873 L 15,-471.5
 L 15,-536.5 L 14.9606,-537.127 L 14.8429,-537.743 L 14.6489,-538.341 L 14.3815,-538.909 L 14.0451,-539.439
 L 13.6448,-539.923 L 13.1871,-540.353 L 12.6791,-540.722 L 12.1289,-541.024 L 11.5451,-541.255 L 10.9369,-541.411
 L 10.3139,-541.49 L -10.3139,-541.49 L -10.9369,-541.411 L -11.5451,-541.255 L -12.1289,-541.024 L -12.6791,-540.722
 L -13.1871,-540.353 L -13.6448,-539.923 L -14.0451,-539.439 L -14.3815,-538.909 L -14.6489,-538.341 L -14.8429,-537.743
 L -14.9606,-537.127 L -15,-536.5 L -15,-471.5 L -14.9606,-470.873 L -14.8429,-470.257 L -14.6489,-469.659
 L -14.3815,-469.091 L -14.0451,-468.561 L -13.6448,-468.077 L -13.1871,-467.647 L -12.6791,-467.278 L -12.1289,-466.976
 L -11.5451,-466.745 L -10.9369,-466.589 L -10.3139,-466.51 L 10.3139,-466.51 z
M -9.69545,-468.893 L -10.0833,-468.942 L -10.4619,-469.039 L -10.8254,-469.183 L -11.168,-469.372 L -11.4842,-469.601
 L -11.7692,-469.869 L -12.0184,-470.17 L -12.2279,-470.5 L -12.3943,-470.854 L -12.5151,-471.226 L -12.5884,-471.61
 L -12.6129,-472 L -12.6129,-536 L -12.5884,-536.39 L -12.5151,-536.774 L -12.3943,-537.146 L -12.2279,-537.5
 L -12.0184,-537.83 L -11.7692,-538.131 L -11.4842,-538.399 L -11.168,-538.628 L -10.8254,-538.817 L -10.4619,-538.961
 L -10.0833,-539.058 L -9.69545,-539.107 L 9.69545,-539.107 L 10.0833,-539.058 L 10.4619,-538.961 L 10.8254,-538.817
 L 11.168,-538.628 L 11.4842,-538.399 L 11.7692,-538.131 L 12.0184,-537.83 L 12.2279,-537.5 L 12.3943,-537.146
 L 12.5151,-536.774 L 12.5884,-536.39 L 12.6129,-536 L 12.6129,-472 L 12.5884,-471.61 L 12.5151,-471.226
 L 12.3943,-470.854 L 12.2279,-470.5 L 12.0184,-470.17 L 11.7692,-469.869 L 11.4842,-469.601 L 11.168,-469.372
 L 10.8254,-469.183 L 10.4619,-469.039 L 10.0833,-468.942 L 9.69545,-468.893 z
M 10.9369,-382.589 L 11.5451,-382.745 L 12.1289,-382.976 L 12.6791,-383.278 L 13.1871,-383.647 L 13.6448,-384.077
 L 14.0451,-384.561 L 14.3815,-385.091 L 14.6489,-385.659 L 14.8429,-386.257 L 14.9606,-386.873 L 15,-387.5
 L 15,-452.5 L 14.9606,-453.127 L 14.8429,-453.743 L 14.6489,-454.341 L 14.3815,-454.909 L 14.0451,-455.439
 L 13.6448,-455.923 L 13.1871,-456.353 L 12.6791,-456.722 L 12.1289,-457.024 L 11.5451,-457.255 L 10.9369,-457.411
 L 10.3139,-457.49 L -10.3139,-457.49 L -10.9369,-457.411 L -11.5451,-457.255 L -12.1289,-457.024 L -12.6791,-456.722
 L -13.1871,-456.353 L -13.6448,-455.923 L -14.0451,-455.439 L -14.3815,-454.909 L -14.6489,-454.341 L -14.8429,-453.743
 L -14.9606,-453.127 L -15,-452.5 L -15,-387.5 L -14.9606,-386.873 L -14.8429,-386.257 L -14.6489,-385.659
 L -14.3815,-385.091 L -14.0451,-384.561 L -13.6448,-384.077 L -13.1871,-383.647 L -12.6791,-383.278 L -12.1289,-382.976
 L -11.5451,-382.745 L -10.9369,-382.589 L -10.3139,-382.51 L 10.3139,-382.51 z
M 7.36592,-447.869 L 7.09988,-447.903 L 6.84015,-447.969 L 6.59084,-448.068 L 6.35585,-448.197 L 6.1389,-448.355
 L 5.94344,-448.538 L 5.77251,-448.745 L 5.62881,-448.971 L 5.51465,-449.214 L 5.43178,-449.469 L 5.38153,-449.732
 L 5.3647,-450 L 5.38153,-450.268 L 5.43178,-450.531 L 5.51465,-450.786 L 5.62881,-451.029 L 5.77251,-451.255
 L 5.94344,-451.462 L 6.1389,-451.645 L 6.35585,-451.803 L 6.59084,-451.932 L 6.84015,-452.031 L 7.09988,-452.097
 L 7.36592,-452.131 L 7.63406,-452.131 L 7.9001,-452.097 L 8.15984,-452.031 L 8.40915,-451.932 L 8.64413,-451.803
 L 8.86108,-451.645 L 9.05655,-451.462 L 9.22748,-451.255 L 9.37117,-451.029 L 9.48534,-450.786 L 9.56821,-450.531
 L 9.61845,-450.268 L 9.63528,-450 L 9.61845,-449.732 L 9.56821,-449.469 L 9.48534,-449.214 L 9.37117,-448.971
 L 9.22748,-448.745 L 9.05655,-448.538 L 8.86108,-448.355 L 8.64413,-448.197 L 8.40915,-448.068 L 8.15984,-447.969
 L 7.9001,-447.903 L 7.63406,-447.869 z
M -7.63406,-447.869 L -7.9001,-447.903 L -8.15984,-447.969 L -8.40915,-448.068 L -8.64413,-448.197 L -8.86108,-448.355
 L -9.05655,-448.538 L -9.22748,-448.745 L -9.37117,-448.971 L -9.48534,-449.214 L -9.56821,-449.469 L -9.61845,-449.732
 L -9.63528,-450 L -9.61845,-450.268 L -9.56821,-450.531 L -9.48534,-450.786 L -9.37117,-451.029 L -9.22748,-451.255
 L -9.05655,-451.462 L -8.86108,-451.645 L -8.64413,-451.803 L -8.40915,-451.932 L -8.15984,-452.031 L -7.9001,-452.097
 L -7.63406,-452.131 L -7.36592,-452.131 L -7.09988,-452.097 L -6.84015,-452.031 L -6.59084,-451.932 L -6.35585,-451.803
 L -6.1389,-451.645 L -5.94344,-451.462 L -5.77251,-451.255 L -5.62881,-451.029 L -5.51465,-450.786 L -5.43178,-450.531
 L -5.38153,-450.268 L -5.3647,-450 L -5.38153,-449.732 L -5.43178,-449.469 L -5.51465,-449.214 L -5.62881,-448.971
 L -5.77251,-448.745 L -5.94344,-448.538 L -6.1389,-448.355 L -6.35585,-448.197 L -6.59084,-448.068 L -6.84015,-447.969
 L -7.09988,-447.903 L -7.36592,-447.869 z
M 7.36592,-387.869 L 7.09988,-387.903 L 6.84015,-387.969 L 6.59084,-388.068 L 6.35585,-388.197 L 6.1389,-388.355
 L 5.94344,-388.538 L 5.77251,-388.745 L 5.62881,-388.971 L 5.51465,-389.214 L 5.43178,-389.469 L 5.38153,-389.732
 L 5.3647,-390 L 5.38153,-390.268 L 5.43178,-390.531 L 5.51465,-390.786 L 5.62881,-391.029 L 5.77251,-391.255
 L 5.94344,-391.462 L 6.1389,-391.645 L 6.35585,-391.803 L 6.59084,-391.932 L 6.84015,-392.031 L 7.09988,-392.097
 L 7.36592,-392.131 L 7.63406,-392.131 L 7.9001,-392.097 L 8.15984,-392.031 L 8.40915,-391.932 L 8.64413,-391.803
 L 8.86108,-391.645 L 9.05655,-391.462 L 9.22748,-391.255 L 9.37117,-391.029 L 9.48534,-390.786 L 9.56821,-390.531
 L 9.61845,-390.268 L 9.63528,-390 L 9.61845,-389.732 L 9.56821,-389.469 L 9.48534,-389.214 L 9.37117,-388.971
 L 9.22748,-388.745 L 9.05655,-388.538 L 8.86108,-388.355 L 8.64413,-388.197 L 8.40915,-388.068 L 8.15984,-387.969
 L 7.9001,-387.903 L 7.63406,-387.869 z
M -7.63406,-387.869 L -7.9001,-387.903 L -8.15984,-387.969 L -8.40915,-388.068 L -8.64413,-388.197 L -8.86108,-388.355
 L -9.05655,-388.538 L -9.22748,-388.745 L -9.37117,-388.971 L -9.48534,-389.214 L -9.56821,-389.469 L -9.61845,-389.732
 L -9.63528,-390 L -9.61845,-390.268 L -9.56821,-390.531 L -9.48534,-390.786 L -9.37117,-391.029 L -9.22748,-391.255
 L -9.05655,-391.462 L -8.86108,-391.645 L -8.64413,-391.803 L -8.40915,-391.932 L -8.15984,-392.031 L -7.9001,-392.097
 L -7.63406,-392.131 L -7.36592,-392.131 L -7.09988,-392.097 L -6.84015,-392.031 L -6.59084,-391.932 L -6.35585,-391.803
 L -6.1389,-391.645 L -5.94344,-391.462 L -5.77251,-391.255 L -5.62881,-391.029 L -5.51465,-390.786 L -5.43178,-390.531
 L -5.38153,-390.268 L -5.3647,-390 L -5.38153,-389.732 L -5.43178,-389.469 L -5.51465,-389.214 L -5.62881,-388.971
 L -5.77251,-388.745 L -5.94344,-388.538 L -6.1389,-388.355 L -6.35585,-388.197 L -6.59084,-388.068 L -6.84015,-387.969
 L -7.09988,-387.903 L -7.36592,-387.869 z
" stroke="black" fill="lightgray" stroke-width="0.5"/>
</svg>
