  0
SECTION
  2
BLOCKS
  0
ENDSEC
  0
SECTION
  2
ENTITIES
  0
LINE
  8
0
 10
10.9369
 20
718.589
 11
11.5451
 21
718.745
  0
LINE
  8
0
 10
11.5451
 20
718.745
 11
12.1289
 21
718.976
  0
LINE
  8
0
 10
12.1289
 20
718.976
 11
12.6791
 21
719.278
  0
LINE
  8
0
 10
12.6791
 20
719.278
 11
13.1871
 21
719.647
  0
LINE
  8
0
 10
13.1871
 20
719.647
 11
13.6448
 21
720.077
  0
LINE
  8
0
 10
13.6448
 20
720.077
 11
14.0451
 21
720.561
  0
LINE
  8
0
 10
14.0451
 20
720.561
 11
14.3815
 21
721.091
  0
LINE
  8
0
 10
14.3815
 20
721.091
 11
14.6489
 21
721.659
  0
LINE
  8
0
 10
14.6489
 20
721.659
 11
14.8429
 21
722.257
  0
LINE
  8
0
 10
14.8429
 20
722.257
 11
14.9606
 21
722.873
  0
LINE
  8
0
 10
14.9606
 20
722.873
 11
15
 21
723.5
  0
LINE
  8
0
 10
15
 20
723.5
 11
15
 21
788.5
  0
LINE
  8
0
 10
15
 20
788.5
 11
14.9606
 21
789.127
  0
LINE
  8
0
 10
14.9606
 20
789.127
 11
14.8429
 21
789.743
  0
LINE
  8
0
 10
14.8429
 20
789.743
 11
14.6489
 21
790.341
  0
LINE
  8
0
 10
14.6489
 20
790.341
 11
14.3815
 21
790.909
  0
LINE
  8
0
 10
14.3815
 20
790.909
 11
14.0451
 21
791.439
  0
LINE
  8
0
 10
14.0451
 20
791.439
 11
13.6448
 21
791.923
  0
LINE
  8
0
 10
13.6448
 20
791.923
 11
13.1871
 21
792.353
  0
LINE
  8
0
 10
13.1871
 20
792.353
 11
12.6791
 21
792.722
  0
LINE
  8
0
 10
12.6791
 20
792.722
 11
12.1289
 21
793.024
  0
LINE
  8
0
 10
12.1289
 20
793.024
 11
11.5451
 21
793.255
  0
LINE
  8
0
 10
11.5451
 20
793.255
 11
10.9369
 21
793.411
  0
LINE
  8
0
 10
10.9369
 20
793.411
 11
10.3139
 21
793.49
  0
LINE
  8
0
 10
10.3139
 20
793.49
 11
-10.3139
 21
793.49
  0
LINE
  8
0
 10
-10.3139
 20
793.49
 11
-10.9369
 21
793.411
  0
LINE
  8
0
 10
-10.9369
 20
793.411
 11
-11.5451
 21
793.255
  0
LINE
  8
0
 10
-11.5451
 20
793.255
 11
-12.1289
 21
793.024
  0
LINE
  8
0
 10
-12.1289
 20
793.024
 11
-12.6791
 21
792.722
  0
LINE
  8
0
 10
-12.6791
 20
792.722
 11
-13.1871
 21
792.353
  0
LINE
  8
0
 10
-13.1871
 20
792.353
 11
-13.6448
 21
791.923
  0
LINE
  8
0
 10
-13.6448
 20
791.923
 11
-14.0451
 21
791.439
  0
LINE
  8
0
 10
-14.0451
 20
791.439
 11
-14.3815
 21
790.909
  0
LINE
  8
0
 10
-14.3815
 20
790.909
 11
-14.6489
 21
790.341
  0
LINE
  8
0
 10
-14.6489
 20
790.341
 11
-14.8429
 21
789.743
  0
LINE
  8
0
 10
-14.8429
 20
789.743
 11
-14.9606
 21
789.127
  0
LINE
  8
0
 10
-14.9606
 20
789.127
 11
-15
 21
788.5
  0
LINE
  8
0
 10
-15
 20
788.5
 11
-15
 21
723.5
  0
LINE
  8
0
 10
-15
 20
723.5
 11
-14.9606
 21
722.873
  0
LINE
  8
0
 10
-14.9606
 20
722.873
 11
-14.8429
 21
722.257
  0
LINE
  8
0
 10
-14.8429
 20
722.257
 11
-14.6489
 21
721.659
  0
LINE
  8
0
 10
-14.6489
 20
721.659
 11
-14.3815
 21
721.091
  0
LINE
  8
0
 10
-14.3815
 20
721.091
 11
-14.0451
 21
720.561
  0
LINE
  8
0
 10
-14.0451
 20
720.561
 11
-13.6448
 21
720.077
  0
LINE
  8
0
 10
-13.6448
 20
720.077
 11
-13.1871
 21
719.647
  0
LINE
  8
0
 10
-13.1871
 20
719.647
 11
-12.6791
 21
719.278
  0
LINE
  8
0
 10
-12.6791
 20
719.278
 11
-12.1289
 21
718.976
  0
LINE
  8
0
 10
-12.1289
 20
718.976
 11
-11.5451
 21
718.745
  0
LINE
  8
0
 10
-11.5451
 20
718.745
 11
-10.9369
 21
718.589
  0
LINE
  8
0
 10
-10.9369
 20
718.589
 11
-10.3139
 21
718.51
  0
LINE
  8
0
 10
-10.3139
 20
718.51
 11
10.3139
 21
718.51
  0
LINE
  8
0
 10
10.3139
 20
718.51
 11
10.9369
 21
718.589
  0
LINE
  8
0
 10
-9.75116
 20
720.008
 11
-10.2495
 21
720.071
  0
LINE
  8
0
 10
-10.2495
 20
720.071
 11
-10.7361
 21
720.196
  0
LINE
  8
0
 10
-10.7361
 20
720.196
 11
-11.2031
 21
720.381
  0
LINE
  8
0
 10
-11.2031
 20
720.381
 11
-11.6433
 21
720.623
  0
LINE
  8
0
 10
-11.6433
 20
720.623
 11
-12.0497
 21
720.918
  0
LINE
  8
0
 10
-12.0497
 20
720.918
 11
-12.4159
 21
721.262
  0
LINE
  8
0
 10
-12.4159
 20
721.262
 11
-12.7361
 21
721.649
  0
LINE
  8
0
 10
-12.7361
 20
721.649
 11
-13.0052
 21
722.073
  0
LINE
  8
0
 10
-13.0052
 20
722.073
 11
-13.2191
 21
722.528
  0
LINE
  8
0
 10
-13.2191
 20
722.528
 11
-13.3743
 21
723.005
  0
LINE
  8
0
 10
-13.3743
 20
723.005
 11
-13.4684
 21
723.499
  0
LINE
  8
0
 10
-13.4684
 20
723.499
 11
-13.5
 21
724
  0
LINE
  8
0
 10
-13.5
 20
724
 11
-13.5
 21
788
  0
LINE
  8
0
 10
-13.5
 20
788
 11
-13.4684
 21
788.501
  0
LINE
  8
0
 10
-13.4684
 20
788.501
 11
-13.3743
 21
788.995
  0
LINE
  8
0
 10
-13.3743
 20
788.995
 11
-13.2191
 21
789.472
  0
LINE
  8
0
 10
-13.2191
 20
789.472
 11
-13.0052
 21
789.927
  0
LINE
  8
0
 10
-13.0052
 20
789.927
 11
-12.7361
 21
790.351
  0
LINE
  8
0
 10
-12.7361
 20
790.351
 11
-12.4159
 21
790.738
  0
LINE
  8
0
 10
-12.4159
 20
790.738
 11
-12.0497
 21
791.082
  0
LINE
  8
0
 10
-12.0497
 20
791.082
 11
-11.6433
 21
791.377
  0
LINE
  8
0
 10
-11.6433
 20
791.377
 11
-11.2031
 21
791.619
  0
LINE
  8
0
 10
-11.2031
 20
791.619
 11
-10.7361
 21
791.804
  0
LINE
  8
0
 10
-10.7361
 20
791.804
 11
-10.2495
 21
791.929
  0
LINE
  8
0
 10
-10.2495
 20
791.929
 11
-9.75116
 21
791.992
  0
LINE
  8
0
 10
-9.75116
 20
791.992
 11
9.75116
 21
791.992
  0
LINE
  8
0
 10
9.75116
 20
791.992
 11
10.2495
 21
791.929
  0
LINE
  8
0
 10
10.2495
 20
791.929
 11
10.7361
 21
791.804
  0
LINE
  8
0
 10
10.7361
 20
791.804
 11
11.2031
 21
791.619
  0
LINE
  8
0
 10
11.2031
 20
791.619
 11
11.6433
 21
791.377
  0
LINE
  8
0
 10
11.6433
 20
791.377
 11
12.0497
 21
791.082
  0
LINE
  8
0
 10
12.0497
 20
791.082
 11
12.4159
 21
790.738
  0
LINE
  8
0
 10
12.4159
 20
790.738
 11
12.7361
 21
790.351
  0
LINE
  8
0
 10
12.7361
 20
790.351
 11
13.0052
 21
789.927
  0
LINE
  8
0
 10
13.0052
 20
789.927
 11
13.2191
 21
789.472
  0
LINE
  8
0
 10
13.2191
 20
789.472
 11
13.3743
 21
788.995
  0
LINE
  8
0
 10
13.3743
 20
788.995
 11
13.4684
 21
788.501
  0
LINE
  8
0
 10
13.4684
 20
788.501
 11
13.5
 21
788
  0
LINE
  8
0
 10
13.5
 20
788
 11
13.5
 21
724
  0
LINE
  8
0
 10
13.5
 20
724
 11
13.4684
 21
723.499
  0
LINE
  8
0
 10
13.4684
 20
723.499
 11
13.3743
 21
723.005
  0
LINE
  8
0
 10
13.3743
 20
723.005
 11
13.2191
 21
722.528
  0
LINE
  8
0
 10
13.2191
 20
722.528
 11
13.0052
 21
722.073
  0
LINE
  8
0
 10
13.0052
 20
722.073
 11
12.7361
 21
721.649
  0
LINE
  8
0
 10
12.7361
 20
721.649
 11
12.4159
 21
721.262
  0
LINE
  8
0
 10
12.4159
 20
721.262
 11
12.0497
 21
720.918
  0
LINE
  8
0
 10
12.0497
 20
720.918
 11
11.6433
 21
720.623
  0
LINE
  8
0
 10
11.6433
 20
720.623
 11
11.2031
 21
720.381
  0
LINE
  8
0
 10
11.2031
 20
720.381
 11
10.7361
 21
720.196
  0
LINE
  8
0
 10
10.7361
 20
720.196
 11
10.2495
 21
720.071
  0
LINE
  8
0
 10
10.2495
 20
720.071
 11
9.75116
 21
720.008
  0
LINE
  8
0
 10
9.75116
 20
720.008
 11
-9.75116
 21
720.008
  0
LINE
  8
0
 10
10.9369
 20
634.589
 11
11.5451
 21
634.745
  0
LINE
  8
0
 10
11.5451
 20
634.745
 11
12.1289
 21
634.976
  0
LINE
  8
0
 10
12.1289
 20
634.976
 11
12.6791
 21
635.278
  0
LINE
  8
0
 10
12.6791
 20
635.278
 11
13.1871
 21
635.647
  0
LINE
  8
0
 10
13.1871
 20
635.647
 11
13.6448
 21
636.077
  0
LINE
  8
0
 10
13.6448
 20
636.077
 11
14.0451
 21
636.561
  0
LINE
  8
0
 10
14.0451
 20
636.561
 11
14.3815
 21
637.091
  0
LINE
  8
0
 10
14.3815
 20
637.091
 11
14.6489
 21
637.659
  0
LINE
  8
0
 10
14.6489
 20
637.659
 11
14.8429
 21
638.257
  0
LINE
  8
0
 10
14.8429
 20
638.257
 11
14.9606
 21
638.873
  0
LINE
  8
0
 10
14.9606
 20
638.873
 11
15
 21
639.5
  0
LINE
  8
0
 10
15
 20
639.5
 11
15
 21
704.5
  0
LINE
  8
0
 10
15
 20
704.5
 11
14.9606
 21
705.127
  0
LINE
  8
0
 10
14.9606
 20
705.127
 11
14.8429
 21
705.743
  0
LINE
  8
0
 10
14.8429
 20
705.743
 11
14.6489
 21
706.341
  0
LINE
  8
0
 10
14.6489
 20
706.341
 11
14.3815
 21
706.909
  0
LINE
  8
0
 10
14.3815
 20
706.909
 11
14.0451
 21
707.439
  0
LINE
  8
0
 10
14.0451
 20
707.439
 11
13.6448
 21
707.923
  0
LINE
  8
0
 10
13.6448
 20
707.923
 11
13.1871
 21
708.353
  0
LINE
  8
0
 10
13.1871
 20
708.353
 11
12.6791
 21
708.722
  0
LINE
  8
0
 10
12.6791
 20
708.722
 11
12.1289
 21
709.024
  0
LINE
  8
0
 10
12.1289
 20
709.024
 11
11.5451
 21
709.255
  0
LINE
  8
0
 10
11.5451
 20
709.255
 11
10.9369
 21
709.411
  0
LINE
  8
0
 10
10.9369
 20
709.411
 11
10.3139
 21
709.49
  0
LINE
  8
0
 10
10.3139
 20
709.49
 11
-10.3139
 21
709.49
  0
LINE
  8
0
 10
-10.3139
 20
709.49
 11
-10.9369
 21
709.411
  0
LINE
  8
0
 10
-10.9369
 20
709.411
 11
-11.5451
 21
709.255
  0
LINE
  8
0
 10
-11.5451
 20
709.255
 11
-12.1289
 21
709.024
  0
LINE
  8
0
 10
-12.1289
 20
709.024
 11
-12.6791
 21
708.722
  0
LINE
  8
0
 10
-12.6791
 20
708.722
 11
-13.1871
 21
708.353
  0
LINE
  8
0
 10
-13.1871
 20
708.353
 11
-13.6448
 21
707.923
  0
LINE
  8
0
 10
-13.6448
 20
707.923
 11
-14.0451
 21
707.439
  0
LINE
  8
0
 10
-14.0451
 20
707.439
 11
-14.3815
 21
706.909
  0
LINE
  8
0
 10
-14.3815
 20
706.909
 11
-14.6489
 21
706.341
  0
LINE
  8
0
 10
-14.6489
 20
706.341
 11
-14.8429
 21
705.743
  0
LINE
  8
0
 10
-14.8429
 20
705.743
 11
-14.9606
 21
705.127
  0
LINE
  8
0
 10
-14.9606
 20
705.127
 11
-15
 21
704.5
  0
LINE
  8
0
 10
-15
 20
704.5
 11
-15
 21
639.5
  0
LINE
  8
0
 10
-15
 20
639.5
 11
-14.9606
 21
638.873
  0
LINE
  8
0
 10
-14.9606
 20
638.873
 11
-14.8429
 21
638.257
  0
LINE
  8
0
 10
-14.8429
 20
638.257
 11
-14.6489
 21
637.659
  0
LINE
  8
0
 10
-14.6489
 20
637.659
 11
-14.3815
 21
637.091
  0
LINE
  8
0
 10
-14.3815
 20
637.091
 11
-14.0451
 21
636.561
  0
LINE
  8
0
 10
-14.0451
 20
636.561
 11
-13.6448
 21
636.077
  0
LINE
  8
0
 10
-13.6448
 20
636.077
 11
-13.1871
 21
635.647
  0
LINE
  8
0
 10
-13.1871
 20
635.647
 11
-12.6791
 21
635.278
  0
LINE
  8
0
 10
-12.6791
 20
635.278
 11
-12.1289
 21
634.976
  0
LINE
  8
0
 10
-12.1289
 20
634.976
 11
-11.5451
 21
634.745
  0
LINE
  8
0
 10
-11.5451
 20
634.745
 11
-10.9369
 21
634.589
  0
LINE
  8
0
 10
-10.9369
 20
634.589
 11
-10.3139
 21
634.51
  0
LINE
  8
0
 10
-10.3139
 20
634.51
 11
10.3139
 21
634.51
  0
LINE
  8
0
 10
10.3139
 20
634.51
 11
10.9369
 21
634.589
  0
LINE
  8
0
 10
-9.75116
 20
636.008
 11
-10.2495
 21
636.071
  0
LINE
  8
0
 10
-10.2495
 20
636.071
 11
-10.7361
 21
636.196
  0
LINE
  8
0
 10
-10.7361
 20
636.196
 11
-11.2031
 21
636.381
  0
LINE
  8
0
 10
-11.2031
 20
636.381
 11
-11.6433
 21
636.623
  0
LINE
  8
0
 10
-11.6433
 20
636.623
 11
-12.0497
 21
636.918
  0
LINE
  8
0
 10
-12.0497
 20
636.918
 11
-12.4159
 21
637.262
  0
LINE
  8
0
 10
-12.4159
 20
637.262
 11
-12.7361
 21
637.649
  0
LINE
  8
0
 10
-12.7361
 20
637.649
 11
-13.0052
 21
638.073
  0
LINE
  8
0
 10
-13.0052
 20
638.073
 11
-13.2191
 21
638.528
  0
LINE
  8
0
 10
-13.2191
 20
638.528
 11
-13.3743
 21
639.005
  0
LINE
  8
0
 10
-13.3743
 20
639.005
 11
-13.4684
 21
639.499
  0
LINE
  8
0
 10
-13.4684
 20
639.499
 11
-13.5
 21
640
  0
LINE
  8
0
 10
-13.5
 20
640
 11
-13.5
 21
704
  0
LINE
  8
0
 10
-13.5
 20
704
 11
-13.4684
 21
704.501
  0
LINE
  8
0
 10
-13.4684
 20
704.501
 11
-13.3743
 21
704.995
  0
LINE
  8
0
 10
-13.3743
 20
704.995
 11
-13.2191
 21
705.472
  0
LINE
  8
0
 10
-13.2191
 20
705.472
 11
-13.0052
 21
705.927
  0
LINE
  8
0
 10
-13.0052
 20
705.927
 11
-12.7361
 21
706.351
  0
LINE
  8
0
 10
-12.7361
 20
706.351
 11
-12.4159
 21
706.738
  0
LINE
  8
0
 10
-12.4159
 20
706.738
 11
-12.0497
 21
707.082
  0
LINE
  8
0
 10
-12.0497
 20
707.082
 11
-11.6433
 21
707.377
  0
LINE
  8
0
 10
-11.6433
 20
707.377
 11
-11.2031
 21
707.619
  0
LINE
  8
0
 10
-11.2031
 20
707.619
 11
-10.7361
 21
707.804
  0
LINE
  8
0
 10
-10.7361
 20
707.804
 11
-10.2495
 21
707.929
  0
LINE
  8
0
 10
-10.2495
 20
707.929
 11
-9.75116
 21
707.992
  0
LINE
  8
0
 10
-9.75116
 20
707.992
 11
9.75116
 21
707.992
  0
LINE
  8
0
 10
9.75116
 20
707.992
 11
10.2495
 21
707.929
  0
LINE
  8
0
 10
10.2495
 20
707.929
 11
10.7361
 21
707.804
  0
LINE
  8
0
 10
10.7361
 20
707.804
 11
11.2031
 21
707.619
  0
LINE
  8
0
 10
11.2031
 20
707.619
 11
11.6433
 21
707.377
  0
LINE
  8
0
 10
11.6433
 20
707.377
 11
12.0497
 21
707.082
  0
LINE
  8
0
 10
12.0497
 20
707.082
 11
12.4159
 21
706.738
  0
LINE
  8
0
 10
12.4159
 20
706.738
 11
12.7361
 21
706.351
  0
LINE
  8
0
 10
12.7361
 20
706.351
 11
13.0052
 21
705.927
  0
LINE
  8
0
 10
13.0052
 20
705.927
 11
13.2191
 21
705.472
  0
LINE
  8
0
 10
13.2191
 20
705.472
 11
13.3743
 21
704.995
  0
LINE
  8
0
 10
13.3743
 20
704.995
 11
13.4684
 21
704.501
  0
LINE
  8
0
 10
13.4684
 20
704.501
 11
13.5
 21
704
  0
LINE
  8
0
 10
13.5
 20
704
 11
13.5
 21
640
  0
LINE
  8
0
 10
13.5
 20
640
 11
13.4684
 21
639.499
  0
LINE
  8
0
 10
13.4684
 20
639.499
 11
13.3743
 21
639.005
  0
LINE
  8
0
 10
13.3743
 20
639.005
 11
13.2191
 21
638.528
  0
LINE
  8
0
 10
13.2191
 20
638.528
 11
13.0052
 21
638.073
  0
LINE
  8
0
 10
13.0052
 20
638.073
 11
12.7361
 21
637.649
  0
LINE
  8
0
 10
12.7361
 20
637.649
 11
12.4159
 21
637.262
  0
LINE
  8
0
 10
12.4159
 20
637.262
 11
12.0497
 21
636.918
  0
LINE
  8
0
 10
12.0497
 20
636.918
 11
11.6433
 21
636.623
  0
LINE
  8
0
 10
11.6433
 20
636.623
 11
11.2031
 21
636.381
  0
LINE
  8
0
 10
11.2031
 20
636.381
 11
10.7361
 21
636.196
  0
LINE
  8
0
 10
10.7361
 20
636.196
 11
10.2495
 21
636.071
  0
LINE
  8
0
 10
10.2495
 20
636.071
 11
9.75116
 21
636.008
  0
LINE
  8
0
 10
9.75116
 20
636.008
 11
-9.75116
 21
636.008
  0
LINE
  8
0
 10
10.9369
 20
550.589
 11
11.5451
 21
550.745
  0
LINE
  8
0
 10
11.5451
 20
550.745
 11
12.1289
 21
550.976
  0
LINE
  8
0
 10
12.1289
 20
550.976
 11
12.6791
 21
551.278
  0
LINE
  8
0
 10
12.6791
 20
551.278
 11
13.1871
 21
551.647
  0
LINE
  8
0
 10
13.1871
 20
551.647
 11
13.6448
 21
552.077
  0
LINE
  8
0
 10
13.6448
 20
552.077
 11
14.0451
 21
552.561
  0
LINE
  8
0
 10
14.0451
 20
552.561
 11
14.3815
 21
553.091
  0
LINE
  8
0
 10
14.3815
 20
553.091
 11
14.6489
 21
553.659
  0
LINE
  8
0
 10
14.6489
 20
553.659
 11
14.8429
 21
554.257
  0
LINE
  8
0
 10
14.8429
 20
554.257
 11
14.9606
 21
554.873
  0
LINE
  8
0
 10
14.9606
 20
554.873
 11
15
 21
555.5
  0
LINE
  8
0
 10
15
 20
555.5
 11
15
 21
620.5
  0
LINE
  8
0
 10
15
 20
620.5
 11
14.9606
 21
621.127
  0
LINE
  8
0
 10
14.9606
 20
621.127
 11
14.8429
 21
621.743
  0
LINE
  8
0
 10
14.8429
 20
621.743
 11
14.6489
 21
622.341
  0
LINE
  8
0
 10
14.6489
 20
622.341
 11
14.3815
 21
622.909
  0
LINE
  8
0
 10
14.3815
 20
622.909
 11
14.0451
 21
623.439
  0
LINE
  8
0
 10
14.0451
 20
623.439
 11
13.6448
 21
623.923
  0
LINE
  8
0
 10
13.6448
 20
623.923
 11
13.1871
 21
624.353
  0
LINE
  8
0
 10
13.1871
 20
624.353
 11
12.6791
 21
624.722
  0
LINE
  8
0
 10
12.6791
 20
624.722
 11
12.1289
 21
625.024
  0
LINE
  8
0
 10
12.1289
 20
625.024
 11
11.5451
 21
625.255
  0
LINE
  8
0
 10
11.5451
 20
625.255
 11
10.9369
 21
625.411
  0
LINE
  8
0
 10
10.9369
 20
625.411
 11
10.3139
 21
625.49
  0
LINE
  8
0
 10
10.3139
 20
625.49
 11
-10.3139
 21
625.49
  0
LINE
  8
0
 10
-10.3139
 20
625.49
 11
-10.9369
 21
625.411
  0
LINE
  8
0
 10
-10.9369
 20
625.411
 11
-11.5451
 21
625.255
  0
LINE
  8
0
 10
-11.5451
 20
625.255
 11
-12.1289
 21
625.024
  0
LINE
  8
0
 10
-12.1289
 20
625.024
 11
-12.6791
 21
624.722
  0
LINE
  8
0
 10
-12.6791
 20
624.722
 11
-13.1871
 21
624.353
  0
LINE
  8
0
 10
-13.1871
 20
624.353
 11
-13.6448
 21
623.923
  0
LINE
  8
0
 10
-13.6448
 20
623.923
 11
-14.0451
 21
623.439
  0
LINE
  8
0
 10
-14.0451
 20
623.439
 11
-14.3815
 21
622.909
  0
LINE
  8
0
 10
-14.3815
 20
622.909
 11
-14.6489
 21
622.341
  0
LINE
  8
0
 10
-14.6489
 20
622.341
 11
-14.8429
 21
621.743
  0
LINE
  8
0
 10
-14.8429
 20
621.743
 11
-14.9606
 21
621.127
  0
LINE
  8
0
 10
-14.9606
 20
621.127
 11
-15
 21
620.5
  0
LINE
  8
0
 10
-15
 20
620.5
 11
-15
 21
555.5
  0
LINE
  8
0
 10
-15
 20
555.5
 11
-14.9606
 21
554.873
  0
LINE
  8
0
 10
-14.9606
 20
554.873
 11
-14.8429
 21
554.257
  0
LINE
  8
0
 10
-14.8429
 20
554.257
 11
-14.6489
 21
553.659
  0
LINE
  8
0
 10
-14.6489
 20
553.659
 11
-14.3815
 21
553.091
  0
LINE
  8
0
 10
-14.3815
 20
553.091
 11
-14.0451
 21
552.561
  0
LINE
  8
0
 10
-14.0451
 20
552.561
 11
-13.6448
 21
552.077
  0
LINE
  8
0
 10
-13.6448
 20
552.077
 11
-13.1871
 21
551.647
  0
LINE
  8
0
 10
-13.1871
 20
551.647
 11
-12.6791
 21
551.278
  0
LINE
  8
0
 10
-12.6791
 20
551.278
 11
-12.1289
 21
550.976
  0
LINE
  8
0
 10
-12.1289
 20
550.976
 11
-11.5451
 21
550.745
  0
LINE
  8
0
 10
-11.5451
 20
550.745
 11
-10.9369
 21
550.589
  0
LINE
  8
0
 10
-10.9369
 20
550.589
 11
-10.3139
 21
550.51
  0
LINE
  8
0
 10
-10.3139
 20
550.51
 11
10.3139
 21
550.51
  0
LINE
  8
0
 10
10.3139
 20
550.51
 11
10.9369
 21
550.589
  0
LINE
  8
0
 10
-9.75116
 20
552.008
 11
-10.2495
 21
552.071
  0
LINE
  8
0
 10
-10.2495
 20
552.071
 11
-10.7361
 21
552.196
  0
LINE
  8
0
 10
-10.7361
 20
552.196
 11
-11.2031
 21
552.381
  0
LINE
  8
0
 10
-11.2031
 20
552.381
 11
-11.6433
 21
552.623
  0
LINE
  8
0
 10
-11.6433
 20
552.623
 11
-12.0497
 21
552.918
  0
LINE
  8
0
 10
-12.0497
 20
552.918
 11
-12.4159
 21
553.262
  0
LINE
  8
0
 10
-12.4159
 20
553.262
 11
-12.7361
 21
553.649
  0
LINE
  8
0
 10
-12.7361
 20
553.649
 11
-13.0052
 21
554.073
  0
LINE
  8
0
 10
-13.0052
 20
554.073
 11
-13.2191
 21
554.528
  0
LINE
  8
0
 10
-13.2191
 20
554.528
 11
-13.3743
 21
555.005
  0
LINE
  8
0
 10
-13.3743
 20
555.005
 11
-13.4684
 21
555.499
  0
LINE
  8
0
 10
-13.4684
 20
555.499
 11
-13.5
 21
556
  0
LINE
  8
0
 10
-13.5
 20
556
 11
-13.5
 21
620
  0
LINE
  8
0
 10
-13.5
 20
620
 11
-13.4684
 21
620.501
  0
LINE
  8
0
 10
-13.4684
 20
620.501
 11
-13.3743
 21
620.995
  0
LINE
  8
0
 10
-13.3743
 20
620.995
 11
-13.2191
 21
621.472
  0
LINE
  8
0
 10
-13.2191
 20
621.472
 11
-13.0052
 21
621.927
  0
LINE
  8
0
 10
-13.0052
 20
621.927
 11
-12.7361
 21
622.351
  0
LINE
  8
0
 10
-12.7361
 20
622.351
 11
-12.4159
 21
622.738
  0
LINE
  8
0
 10
-12.4159
 20
622.738
 11
-12.0497
 21
623.082
  0
LINE
  8
0
 10
-12.0497
 20
623.082
 11
-11.6433
 21
623.377
  0
LINE
  8
0
 10
-11.6433
 20
623.377
 11
-11.2031
 21
623.619
  0
LINE
  8
0
 10
-11.2031
 20
623.619
 11
-10.7361
 21
623.804
  0
LINE
  8
0
 10
-10.7361
 20
623.804
 11
-10.2495
 21
623.929
  0
LINE
  8
0
 10
-10.2495
 20
623.929
 11
-9.75116
 21
623.992
  0
LINE
  8
0
 10
-9.75116
 20
623.992
 11
9.75116
 21
623.992
  0
LINE
  8
0
 10
9.75116
 20
623.992
 11
10.2495
 21
623.929
  0
LINE
  8
0
 10
10.2495
 20
623.929
 11
10.7361
 21
623.804
  0
LINE
  8
0
 10
10.7361
 20
623.804
 11
11.2031
 21
623.619
  0
LINE
  8
0
 10
11.2031
 20
623.619
 11
11.6433
 21
623.377
  0
LINE
  8
0
 10
11.6433
 20
623.377
 11
12.0497
 21
623.082
  0
LINE
  8
0
 10
12.0497
 20
623.082
 11
12.4159
 21
622.738
  0
LINE
  8
0
 10
12.4159
 20
622.738
 11
12.7361
 21
622.351
  0
LINE
  8
0
 10
12.7361
 20
622.351
 11
13.0052
 21
621.927
  0
LINE
  8
0
 10
13.0052
 20
621.927
 11
13.2191
 21
621.472
  0
LINE
  8
0
 10
13.2191
 20
621.472
 11
13.3743
 21
620.995
  0
LINE
  8
0
 10
13.3743
 20
620.995
 11
13.4684
 21
620.501
  0
LINE
  8
0
 10
13.4684
 20
620.501
 11
13.5
 21
620
  0
LINE
  8
0
 10
13.5
 20
620
 11
13.5
 21
556
  0
LINE
  8
0
 10
13.5
 20
556
 11
13.4684
 21
555.499
  0
LINE
  8
0
 10
13.4684
 20
555.499
 11
13.3743
 21
555.005
  0
LINE
  8
0
 10
13.3743
 20
555.005
 11
13.2191
 21
554.528
  0
LINE
  8
0
 10
13.2191
 20
554.528
 11
13.0052
 21
554.073
  0
LINE
  8
0
 10
13.0052
 20
554.073
 11
12.7361
 21
553.649
  0
LINE
  8
0
 10
12.7361
 20
553.649
 11
12.4159
 21
553.262
  0
LINE
  8
0
 10
12.4159
 20
553.262
 11
12.0497
 21
552.918
  0
LINE
  8
0
 10
12.0497
 20
552.918
 11
11.6433
 21
552.623
  0
LINE
  8
0
 10
11.6433
 20
552.623
 11
11.2031
 21
552.381
  0
LINE
  8
0
 10
11.2031
 20
552.381
 11
10.7361
 21
552.196
  0
LINE
  8
0
 10
10.7361
 20
552.196
 11
10.2495
 21
552.071
  0
LINE
  8
0
 10
10.2495
 20
552.071
 11
9.75116
 21
552.008
  0
LINE
  8
0
 10
9.75116
 20
552.008
 11
-9.75116
 21
552.008
  0
LINE
  8
0
 10
10.9369
 20
466.589
 11
11.5451
 21
466.745
  0
LINE
  8
0
 10
11.5451
 20
466.745
 11
12.1289
 21
466.976
  0
LINE
  8
0
 10
12.1289
 20
466.976
 11
12.6791
 21
467.278
  0
LINE
  8
0
 10
12.6791
 20
467.278
 11
13.1871
 21
467.647
  0
LINE
  8
0
 10
13.1871
 20
467.647
 11
13.6448
 21
468.077
  0
LINE
  8
0
 10
13.6448
 20
468.077
 11
14.0451
 21
468.561
  0
LINE
  8
0
 10
14.0451
 20
468.561
 11
14.3815
 21
469.091
  0
LINE
  8
0
 10
14.3815
 20
469.091
 11
14.6489
 21
469.659
  0
LINE
  8
0
 10
14.6489
 20
469.659
 11
14.8429
 21
470.257
  0
LINE
  8
0
 10
14.8429
 20
470.257
 11
14.9606
 21
470.873
  0
LINE
  8
0
 10
14.9606
 20
470.873
 11
15
 21
471.5
  0
LINE
  8
0
 10
15
 20
471.5
 11
15
 21
536.5
  0
LINE
  8
0
 10
15
 20
536.5
 11
14.9606
 21
537.127
  0
LINE
  8
0
 10
14.9606
 20
537.127
 11
14.8429
 21
537.743
  0
LINE
  8
0
 10
14.8429
 20
537.743
 11
14.6489
 21
538.341
  0
LINE
  8
0
 10
14.6489
 20
538.341
 11
14.3815
 21
538.909
  0
LINE
  8
0
 10
14.3815
 20
538.909
 11
14.0451
 21
539.439
  0
LINE
  8
0
 10
14.0451
 20
539.439
 11
13.6448
 21
539.923
  0
LINE
  8
0
 10
13.6448
 20
539.923
 11
13.1871
 21
540.353
  0
LINE
  8
0
 10
13.1871
 20
540.353
 11
12.6791
 21
540.722
  0
LINE
  8
0
 10
12.6791
 20
540.722
 11
12.1289
 21
541.024
  0
LINE
  8
0
 10
12.1289
 20
541.024
 11
11.5451
 21
541.255
  0
LINE
  8
0
 10
11.5451
 20
541.255
 11
10.9369
 21
541.411
  0
LINE
  8
0
 10
10.9369
 20
541.411
 11
10.3139
 21
541.49
  0
LINE
  8
0
 10
10.3139
 20
541.49
 11
-10.3139
 21
541.49
  0
LINE
  8
0
 10
-10.3139
 20
541.49
 11
-10.9369
 21
541.411
  0
LINE
  8
0
 10
-10.9369
 20
541.411
 11
-11.5451
 21
541.255
  0
LINE
  8
0
 10
-11.5451
 20
541.255
 11
-12.1289
 21
541.024
  0
LINE
  8
0
 10
-12.1289
 20
541.024
 11
-12.6791
 21
540.722
  0
LINE
  8
0
 10
-12.6791
 20
540.722
 11
-13.1871
 21
540.353
  0
LINE
  8
0
 10
-13.1871
 20
540.353
 11
-13.6448
 21
539.923
  0
LINE
  8
0
 10
-13.6448
 20
539.923
 11
-14.0451
 21
539.439
  0
LINE
  8
0
 10
-14.0451
 20
539.439
 11
-14.3815
 21
538.909
  0
LINE
  8
0
 10
-14.3815
 20
538.909
 11
-14.6489
 21
538.341
  0
LINE
  8
0
 10
-14.6489
 20
538.341
 11
-14.8429
 21
537.743
  0
LINE
  8
0
 10
-14.8429
 20
537.743
 11
-14.9606
 21
537.127
  0
LINE
  8
0
 10
-14.9606
 20
537.127
 11
-15
 21
536.5
  0
LINE
  8
0
 10
-15
 20
536.5
 11
-15
 21
471.5
  0
LINE
  8
0
 10
-15
 20
471.5
 11
-14.9606
 21
470.873
  0
LINE
  8
0
 10
-14.9606
 20
470.873
 11
-14.8429
 21
470.257
  0
LINE
  8
0
 10
-14.8429
 20
470.257
 11
-14.6489
 21
469.659
  0
LINE
  8
0
 10
-14.6489
 20
469.659
 11
-14.3815
 21
469.091
  0
LINE
  8
0
 10
-14.3815
 20
469.091
 11
-14.0451
 21
468.561
  0
LINE
  8
0
 10
-14.0451
 20
468.561
 11
-13.6448
 21
468.077
  0
LINE
  8
0
 10
-13.6448
 20
468.077
 11
-13.1871
 21
467.647
  0
LINE
  8
0
 10
-13.1871
 20
467.647
 11
-12.6791
 21
467.278
  0
LINE
  8
0
 10
-12.6791
 20
467.278
 11
-12.1289
 21
466.976
  0
LINE
  8
0
 10
-12.1289
 20
466.976
 11
-11.5451
 21
466.745
  0
LINE
  8
0
 10
-11.5451
 20
466.745
 11
-10.9369
 21
466.589
  0
LINE
  8
0
 10
-10.9369
 20
466.589
 11
-10.3139
 21
466.51
  0
LINE
  8
0
 10
-10.3139
 20
466.51
 11
10.3139
 21
466.51
  0
LINE
  8
0
 10
10.3139
 20
466.51
 11
10.9369
 21
466.589
  0
LINE
  8
0
 10
-9.69545
 20
468.893
 11
-10.0833
 21
468.942
  0
LINE
  8
0
 10
-10.0833
 20
468.942
 11
-10.4619
 21
469.039
  0
LINE
  8
0
 10
-10.4619
 20
469.039
 11
-10.8254
 21
469.183
  0
LINE
  8
0
 10
-10.8254
 20
469.183
 11
-11.168
 21
469.372
  0
LINE
  8
0
 10
-11.168
 20
469.372
 11
-11.4842
 21
469.601
  0
LINE
  8
0
 10
-11.4842
 20
469.601
 11
-11.7692
 21
469.869
  0
LINE
  8
0
 10
-11.7692
 20
469.869
 11
-12.0184
 21
470.17
  0
LINE
  8
0
 10
-12.0184
 20
470.17
 11
-12.2279
 21
470.5
  0
LINE
  8
0
 10
-12.2279
 20
470.5
 11
-12.3943
 21
470.854
  0
LINE
  8
0
 10
-12.3943
 20
470.854
 11
-12.5151
 21
471.226
  0
LINE
  8
0
 10
-12.5151
 20
471.226
 11
-12.5884
 21
471.61
  0
LINE
  8
0
 10
-12.5884
 20
471.61
 11
-12.6129
 21
472
  0
LINE
  8
0
 10
-12.6129
 20
472
 11
-12.6129
 21
536
  0
LINE
  8
0
 10
-12.6129
 20
536
 11
-12.5884
 21
536.39
  0
LINE
  8
0
 10
-12.5884
 20
536.39
 11
-12.5151
 21
536.774
  0
LINE
  8
0
 10
-12.5151
 20
536.774
 11
-12.3943
 21
537.146
  0
LINE
  8
0
 10
-12.3943
 20
537.146
 11
-12.2279
 21
537.5
  0
LINE
  8
0
 10
-12.2279
 20
537.5
 11
-12.0184
 21
537.83
  0
LINE
  8
0
 10
-12.0184
 20
537.83
 11
-11.7692
 21
538.131
  0
LINE
  8
0
 10
-11.7692
 20
538.131
 11
-11.4842
 21
538.399
  0
LINE
  8
0
 10
-11.4842
 20
538.399
 11
-11.168
 21
538.628
  0
LINE
  8
0
 10
-11.168
 20
538.628
 11
-10.8254
 21
538.817
  0
LINE
  8
0
 10
-10.8254
 20
538.817
 11
-10.4619
 21
538.961
  0
LINE
  8
0
 10
-10.4619
 20
538.961
 11
-10.0833
 21
539.058
  0
LINE
  8
0
 10
-10.0833
 20
539.058
 11
-9.69545
 21
539.107
  0
LINE
  8
0
 10
-9.69545
 20
539.107
 11
9.69545
 21
539.107
  0
LINE
  8
0
 10
9.69545
 20
539.107
 11
10.0833
 21
539.058
  0
LINE
  8
0
 10
10.0833
 20
539.058
 11
10.4619
 21
538.961
  0
LINE
  8
0
 10
10.4619
 20
538.961
 11
10.8254
 21
538.817
  0
LINE
  8
0
 10
10.8254
 20
538.817
 11
11.168
 21
538.628
  0
LINE
  8
0
 10
11.168
 20
538.628
 11
11.4842
 21
538.399
  0
LINE
  8
0
 10
11.4842
 20
538.399
 11
11.7692
 21
538.131
  0
LINE
  8
0
 10
11.7692
 20
538.131
 11
12.0184
 21
537.83
  0
LINE
  8
0
 10
12.0184
 20
537.83
 11
12.2279
 21
537.5
  0
LINE
  8
0
 10
12.2279
 20
537.5
 11
12.3943
 21
537.146
  0
LINE
  8
0
 10
12.3943
 20
537.146
 11
12.5151
 21
536.774
  0
LINE
  8
0
 10
12.5151
 20
536.774
 11
12.5884
 21
536.39
  0
LINE
  8
0
 10
12.5884
 20
536.39
 11
12.6129
 21
536
  0
LINE
  8
0
 10
12.6129
 20
536
 11
12.6129
 21
472
  0
LINE
  8
0
 10
12.6129
 20
472
 11
12.5884
 21
471.61
  0
LINE
  8
0
 10
12.5884
 20
471.61
 11
12.5151
 21
471.226
  0
LINE
  8
0
 10
12.5151
 20
471.226
 11
12.3943
 21
470.854
  0
LINE
  8
0
 10
12.3943
 20
470.854
 11
12.2279
 21
470.5
  0
LINE
  8
0
 10
12.2279
 20
470.5
 11
12.0184
 21
470.17
  0
LINE
  8
0
 10
12.0184
 20
470.17
 11
11.7692
 21
469.869
  0
LINE
  8
0
 10
11.7692
 20
469.869
 11
11.4842
 21
469.601
  0
LINE
  8
0
 10
11.4842
 20
469.601
 11
11.168
 21
469.372
  0
LINE
  8
0
 10
11.168
 20
469.372
 11
10.8254
 21
469.183
  0
LINE
  8
0
 10
10.8254
 20
469.183
 11
10.4619
 21
469.039
  0
LINE
  8
0
 10
10.4619
 20
469.039
 11
10.0833
 21
468.942
  0
LINE
  8
0
 10
10.0833
 20
468.942
 11
9.69545
 21
468.893
  0
LINE
  8
0
 10
9.69545
 20
468.893
 11
-9.69545
 21
468.893
  0
LINE
  8
0
 10
10.9369
 20
382.589
 11
11.5451
 21
382.745
  0
LINE
  8
0
 10
11.5451
 20
382.745
 11
12.1289
 21
382.976
  0
LINE
  8
0
 10
12.1289
 20
382.976
 11
12.6791
 21
383.278
  0
LINE
  8
0
 10
12.6791
 20
383.278
 11
13.1871
 21
383.647
  0
LINE
  8
0
 10
13.1871
 20
383.647
 11
13.6448
 21
384.077
  0
LINE
  8
0
 10
13.6448
 20
384.077
 11
14.0451
 21
384.561
  0
LINE
  8
0
 10
14.0451
 20
384.561
 11
14.3815
 21
385.091
  0
LINE
  8
0
 10
14.3815
 20
385.091
 11
14.6489
 21
385.659
  0
LINE
  8
0
 10
14.6489
 20
385.659
 11
14.8429
 21
386.257
  0
LINE
  8
0
 10
14.8429
 20
386.257
 11
14.9606
 21
386.873
  0
LINE
  8
0
 10
14.9606
 20
386.873
 11
15
 21
387.5
  0
LINE
  8
0
 10
15
 20
387.5
 11
15
 21
452.5
  0
LINE
  8
0
 10
15
 20
452.5
 11
14.9606
 21
453.127
  0
LINE
  8
0
 10
14.9606
 20
453.127
 11
14.8429
 21
453.743
  0
LINE
  8
0
 10
14.8429
 20
453.743
 11
14.6489
 21
454.341
  0
LINE
  8
0
 10
14.6489
 20
454.341
 11
14.3815
 21
454.909
  0
LINE
  8
0
 10
14.3815
 20
454.909
 11
14.0451
 21
455.439
  0
LINE
  8
0
 10
14.0451
 20
455.439
 11
13.6448
 21
455.923
  0
LINE
  8
0
 10
13.6448
 20
455.923
 11
13.1871
 21
456.353
  0
LINE
  8
0
 10
13.1871
 20
456.353
 11
12.6791
 21
456.722
  0
LINE
  8
0
 10
12.6791
 20
456.722
 11
12.1289
 21
457.024
  0
LINE
  8
0
 10
12.1289
 20
457.024
 11
11.5451
 21
457.255
  0
LINE
  8
0
 10
11.5451
 20
457.255
 11
10.9369
 21
457.411
  0
LINE
  8
0
 10
10.9369
 20
457.411
 11
10.3139
 21
457.49
  0
LINE
  8
0
 10
10.3139
 20
457.49
 11
-10.3139
 21
457.49
  0
LINE
  8
0
 10
-10.3139
 20
457.49
 11
-10.9369
 21
457.411
  0
LINE
  8
0
 10
-10.9369
 20
457.411
 11
-11.5451
 21
457.255
  0
LINE
  8
0
 10
-11.5451
 20
457.255
 11
-12.1289
 21
457.024
  0
LINE
  8
0
 10
-12.1289
 20
457.024
 11
-12.6791
 21
456.722
  0
LINE
  8
0
 10
-12.6791
 20
456.722
 11
-13.1871
 21
456.353
  0
LINE
  8
0
 10
-13.1871
 20
456.353
 11
-13.6448
 21
455.923
  0
LINE
  8
0
 10
-13.6448
 20
455.923
 11
-14.0451
 21
455.439
  0
LINE
  8
0
 10
-14.0451
 20
455.439
 11
-14.3815
 21
454.909
  0
LINE
  8
0
 10
-14.3815
 20
454.909
 11
-14.6489
 21
454.341
  0
LINE
  8
0
 10
-14.6489
 20
454.341
 11
-14.8429
 21
453.743
  0
LINE
  8
0
 10
-14.8429
 20
453.743
 11
-14.9606
 21
453.127
  0
LINE
  8
0
 10
-14.9606
 20
453.127
 11
-15
 21
452.5
  0
LINE
  8
0
 10
-15
 20
452.5
 11
-15
 21
387.5
  0
LINE
  8
0
 10
-15
 20
387.5
 11
-14.9606
 21
386.873
  0
LINE
  8
0
 10
-14.9606
 20
386.873
 11
-14.8429
 21
386.257
  0
LINE
  8
0
 10
-14.8429
 20
386.257
 11
-14.6489
 21
385.659
  0
LINE
  8
0
 10
-14.6489
 20
385.659
 11
-14.3815
 21
385.091
  0
LINE
  8
0
 10
-14.3815
 20
385.091
 11
-14.0451
 21
384.561
  0
LINE
  8
0
 10
-14.0451
 20
384.561
 11
-13.6448
 21
384.077
  0
LINE
  8
0
 10
-13.6448
 20
384.077
 11
-13.1871
 21
383.647
  0
LINE
  8
0
 10
-13.1871
 20
383.647
 11
-12.6791
 21
383.278
  0
LINE
  8
0
 10
-12.6791
 20
383.278
 11
-12.1289
 21
382.976
  0
LINE
  8
0
 10
-12.1289
 20
382.976
 11
-11.5451
 21
382.745
  0
LINE
  8
0
 10
-11.5451
 20
382.745
 11
-10.9369
 21
382.589
  0
LINE
  8
0
 10
-10.9369
 20
382.589
 11
-10.3139
 21
382.51
  0
LINE
  8
0
 10
-10.3139
 20
382.51
 11
10.3139
 21
382.51
  0
LINE
  8
0
 10
10.3139
 20
382.51
 11
10.9369
 21
382.589
  0
LINE
  8
0
 10
7.36592
 20
447.869
 11
7.09988
 21
447.903
  0
LINE
  8
0
 10
7.09988
 20
447.903
 11
6.84015
 21
447.969
  0
LINE
  8
0
 10
6.84015
 20
447.969
 11
6.59084
 21
448.068
  0
LINE
  8
0
 10
6.59084
 20
448.068
 11
6.35585
 21
448.197
  0
LINE
  8
0
 10
6.35585
 20
448.197
 11
6.1389
 21
448.355
  0
LINE
  8
0
 10
6.1389
 20
448.355
 11
5.94344
 21
448.538
  0
LINE
  8
0
 10
5.94344
 20
448.538
 11
5.77251
 21
448.745
  0
LINE
  8
0
 10
5.77251
 20
448.745
 11
5.62881
 21
448.971
  0
LINE
  8
0
 10
5.62881
 20
448.971
 11
5.51465
 21
449.214
  0
LINE
  8
0
 10
5.51465
 20
449.214
 11
5.43178
 21
449.469
  0
LINE
  8
0
 10
5.43178
 20
449.469
 11
5.38153
 21
449.732
  0
LINE
  8
0
 10
5.38153
 20
449.732
 11
5.3647
 21
450
  0
LINE
  8
0
 10
5.3647
 20
450
 11
5.38153
 21
450.268
  0
LINE
  8
0
 10
5.38153
 20
450.268
 11
5.43178
 21
450.531
  0
LINE
  8
0
 10
5.43178
 20
450.531
 11
5.51465
 21
450.786
  0
LINE
  8
0
 10
5.51465
 20
450.786
 11
5.62881
 21
451.029
  0
LINE
  8
0
 10
5.62881
 20
451.029
 11
5.77251
 21
451.255
  0
LINE
  8
0
 10
5.77251
 20
451.255
 11
5.94344
 21
451.462
  0
LINE
  8
0
 10
5.94344
 20
451.462
 11
6.1389
 21
451.645
  0
LINE
  8
0
 10
6.1389
 20
451.645
 11
6.35585
 21
451.803
  0
LINE
  8
0
 10
6.35585
 20
451.803
 11
6.59084
 21
451.932
  0
LINE
  8
0
 10
6.59084
 20
451.932
 11
6.84015
 21
452.031
  0
LINE
  8
0
 10
6.84015
 20
452.031
 11
7.09988
 21
452.097
  0
LINE
  8
0
 10
7.09988
 20
452.097
 11
7.36592
 21
452.131
  0
LINE
  8
0
 10
7.36592
 20
452.131
 11
7.63406
 21
452.131
  0
LINE
  8
0
 10
7.63406
 20
452.131
 11
7.9001
 21
452.097
  0
LINE
  8
0
 10
7.9001
 20
452.097
 11
8.15984
 21
452.031
  0
LINE
  8
0
 10
8.15984
 20
452.031
 11
8.40915
 21
451.932
  0
LINE
  8
0
 10
8.40915
 20
451.932
 11
8.64413
 21
451.803
  0
LINE
  8
0
 10
8.64413
 20
451.803
 11
8.86108
 21
451.645
  0
LINE
  8
0
 10
8.86108
 20
451.645
 11
9.05655
 21
451.462
  0
LINE
  8
0
 10
9.05655
 20
451.462
 11
9.22748
 21
451.255
  0
LINE
  8
0
 10
9.22748
 20
451.255
 11
9.37117
 21
451.029
  0
LINE
  8
0
 10
9.37117
 20
451.029
 11
9.48534
 21
450.786
  0
LINE
  8
0
 10
9.48534
 20
450.786
 11
9.56821
 21
450.531
  0
LINE
  8
0
 10
9.56821
 20
450.531
 11
9.61845
 21
450.268
  0
LINE
  8
0
 10
9.61845
 20
450.268
 11
9.63528
 21
450
  0
LINE
  8
0
 10
9.63528
 20
450
 11
9.61845
 21
449.732
  0
LINE
  8
0
 10
9.61845
 20
449.732
 11
9.56821
 21
449.469
  0
LINE
  8
0
 10
9.56821
 20
449.469
 11
9.48534
 21
449.214
  0
LINE
  8
0
 10
9.48534
 20
449.214
 11
9.37117
 21
448.971
  0
LINE
  8
0
 10
9.37117
 20
448.971
 11
9.22748
 21
448.745
  0
LINE
  8
0
 10
9.22748
 20
448.745
 11
9.05655
 21
448.538
  0
LINE
  8
0
 10
9.05655
 20
448.538
 11
8.86108
 21
448.355
  0
LINE
  8
0
 10
8.86108
 20
448.355
 11
8.64413
 21
448.197
  0
LINE
  8
0
 10
8.64413
 20
448.197
 11
8.40915
 21
448.068
  0
LINE
  8
0
 10
8.40915
 20
448.068
 11
8.15984
 21
447.969
  0
LINE
  8
0
 10
8.15984
 20
447.969
 11
7.9001
 21
447.903
  0
LINE
  8
0
 10
7.9001
 20
447.903
 11
7.63406
 21
447.869
  0
LINE
  8
0
 10
7.63406
 20
447.869
 11
7.36592
 21
447.869
  0
LINE
  8
0
 10
-7.63406
 20
447.869
 11
-7.9001
 21
447.903
  0
LINE
  8
0
 10
-7.9001
 20
447.903
 11
-8.15984
 21
447.969
  0
LINE
  8
0
 10
-8.15984
 20
447.969
 11
-8.40915
 21
448.068
  0
LINE
  8
0
 10
-8.40915
 20
448.068
 11
-8.64413
 21
448.197
  0
LINE
  8
0
 10
-8.64413
 20
448.197
 11
-8.86108
 21
448.355
  0
LINE
  8
0
 10
-8.86108
 20
448.355
 11
-9.05655
 21
448.538
  0
LINE
  8
0
 10
-9.05655
 20
448.538
 11
-9.22748
 21
448.745
  0
LINE
  8
0
 10
-9.22748
 20
448.745
 11
-9.37117
 21
448.971
  0
LINE
  8
0
 10
-9.37117
 20
448.971
 11
-9.48534
 21
449.214
  0
LINE
  8
0
 10
-9.48534
 20
449.214
 11
-9.56821
 21
449.469
  0
LINE
  8
0
 10
-9.56821
 20
449.469
 11
-9.61845
 21
449.732
  0
LINE
  8
0
 10
-9.61845
 20
449.732
 11
-9.63528
 21
450
  0
LINE
  8
0
 10
-9.63528
 20
450
 11
-9.61845
 21
450.268
  0
LINE
  8
0
 10
-9.61845
 20
450.268
 11
-9.56821
 21
450.531
  0
LINE
  8
0
 10
-9.56821
 20
450.531
 11
-9.48534
 21
450.786
  0
LINE
  8
0
 10
-9.48534
 20
450.786
 11
-9.37117
 21
451.029
  0
LINE
  8
0
 10
-9.37117
 20
451.029
 11
-9.22748
 21
451.255
  0
LINE
  8
0
 10
-9.22748
 20
451.255
 11
-9.05655
 21
451.462
  0
LINE
  8
0
 10
-9.05655
 20
451.462
 11
-8.86108
 21
451.645
  0
LINE
  8
0
 10
-8.86108
 20
451.645
 11
-8.64413
 21
451.803
  0
LINE
  8
0
 10
-8.64413
 20
451.803
 11
-8.40915
 21
451.932
  0
LINE
  8
0
 10
-8.40915
 20
451.932
 11
-8.15984
 21
452.031
  0
LINE
  8
0
 10
-8.15984
 20
452.031
 11
-7.9001
 21
452.097
  0
LINE
  8
0
 10
-7.9001
 20
452.097
 11
-7.63406
 21
452.131
  0
LINE
  8
0
 10
-7.63406
 20
452.131
 11
-7.36592
 21
452.131
  0
LINE
  8
0
 10
-7.36592
 20
452.131
 11
-7.09988
 21
452.097
  0
LINE
  8
0
 10
-7.09988
 20
452.097
 11
-6.84015
 21
452.031
  0
LINE
  8
0
 10
-6.84015
 20
452.031
 11
-6.59084
 21
451.932
  0
LINE
  8
0
 10
-6.59084
 20
451.932
 11
-6.35585
 21
451.803
  0
LINE
  8
0
 10
-6.35585
 20
451.803
 11
-6.1389
 21
451.645
  0
LINE
  8
0
 10
-6.1389
 20
451.645
 11
-5.94344
 21
451.462
  0
LINE
  8
0
 10
-5.94344
 20
451.462
 11
-5.77251
 21
451.255
  0
LINE
  8
0
 10
-5.77251
 20
451.255
 11
-5.62881
 21
451.029
  0
LINE
  8
0
 10
-5.62881
 20
451.029
 11
-5.51465
 21
450.786
  0
LINE
  8
0
 10
-5.51465
 20
450.786
 11
-5.43178
 21
450.531
  0
LINE
  8
0
 10
-5.43178
 20
450.531
 11
-5.38153
 21
450.268
  0
LINE
  8
0
 10
-5.38153
 20
450.268
 11
-5.3647
 21
450
  0
LINE
  8
0
 10
-5.3647
 20
450
 11
-5.38153
 21
449.732
  0
LINE
  8
0
 10
-5.38153
 20
449.732
 11
-5.43178
 21
449.469
  0
LINE
  8
0
 10
-5.43178
 20
449.469
 11
-5.51465
 21
449.214
  0
LINE
  8
0
 10
-5.51465
 20
449.214
 11
-5.62881
 21
448.971
  0
LINE
  8
0
 10
-5.62881
 20
448.971
 11
-5.77251
 21
448.745
  0
LINE
  8
0
 10
-5.77251
 20
448.745
 11
-5.94344
 21
448.538
  0
LINE
  8
0
 10
-5.94344
 20
448.538
 11
-6.1389
 21
448.355
  0
LINE
  8
0
 10
-6.1389
 20
448.355
 11
-6.35585
 21
448.197
  0
LINE
  8
0
 10
-6.35585
 20
448.197
 11
-6.59084
 21
448.068
  0
LINE
  8
0
 10
-6.59084
 20
448.068
 11
-6.84015
 21
447.969
  0
LINE
  8
0
 10
-6.84015
 20
447.969
 11
-7.09988
 21
447.903
  0
LINE
  8
0
 10
-7.09988
 20
447.903
 11
-7.36592
 21
447.869
  0
LINE
  8
0
 10
-7.36592
 20
447.869
 11
-7.63406
 21
447.869
  0
LINE
  8
0
 10
7.36592
 20
387.869
 11
7.09988
 21
387.903
  0
LINE
  8
0
 10
7.09988
 20
387.903
 11
6.84015
 21
387.969
  0
LINE
  8
0
 10
6.84015
 20
387.969
 11
6.59084
 21
388.068
  0
LINE
  8
0
 10
6.59084
 20
388.068
 11
6.35585
 21
388.197
  0
LINE
  8
0
 10
6.35585
 20
388.197
 11
6.1389
 21
388.355
  0
LINE
  8
0
 10
6.1389
 20
388.355
 11
5.94344
 21
388.538
  0
LINE
  8
0
 10
5.94344
 20
388.538
 11
5.77251
 21
388.745
  0
LINE
  8
0
 10
5.77251
 20
388.745
 11
5.62881
 21
388.971
  0
LINE
  8
0
 10
5.62881
 20
388.971
 11
5.51465
 21
389.214
  0
LINE
  8
0
 10
5.51465
 20
389.214
 11
5.43178
 21
389.469
  0
LINE
  8
0
 10
5.43178
 20
389.469
 11
5.38153
 21
389.732
  0
LINE
  8
0
 10
5.38153
 20
389.732
 11
5.3647
 21
390
  0
LINE
  8
0
 10
5.3647
 20
390
 11
5.38153
 21
390.268
  0
LINE
  8
0
 10
5.38153
 20
390.268
 11
5.43178
 21
390.531
  0
LINE
  8
0
 10
5.43178
 20
390.531
 11
5.51465
 21
390.786
  0
LINE
  8
0
 10
5.51465
 20
390.786
 11
5.62881
 21
391.029
  0
LINE
  8
0
 10
5.62881
 20
391.029
 11
5.77251
 21
391.255
  0
LINE
  8
0
 10
5.77251
 20
391.255
 11
5.94344
 21
391.462
  0
LINE
  8
0
 10
5.94344
 20
391.462
 11
6.1389
 21
391.645
  0
LINE
  8
0
 10
6.1389
 20
391.645
 11
6.35585
 21
391.803
  0
LINE
  8
0
 10
6.35585
 20
391.803
 11
6.59084
 21
391.932
  0
LINE
  8
0
 10
6.59084
 20
391.932
 11
6.84015
 21
392.031
  0
LINE
  8
0
 10
6.84015
 20
392.031
 11
7.09988
 21
392.097
  0
LINE
  8
0
 10
7.09988
 20
392.097
 11
7.36592
 21
392.131
  0
LINE
  8
0
 10
7.36592
 20
392.131
 11
7.63406
 21
392.131
  0
LINE
  8
0
 10
7.63406
 20
392.131
 11
7.9001
 21
392.097
  0
LINE
  8
0
 10
7.9001
 20
392.097
 11
8.15984
 21
392.031
  0
LINE
  8
0
 10
8.15984
 20
392.031
 11
8.40915
 21
391.932
  0
LINE
  8
0
 10
8.40915
 20
391.932
 11
8.64413
 21
391.803
  0
LINE
  8
0
 10
8.64413
 20
391.803
 11
8.86108
 21
391.645
  0
LINE
  8
0
 10
8.86108
 20
391.645
 11
9.05655
 21
391.462
  0
LINE
  8
0
 10
9.05655
 20
391.462
 11
9.22748
 21
391.255
  0
LINE
  8
0
 10
9.22748
 20
391.255
 11
9.37117
 21
391.029
  0
LINE
  8
0
 10
9.37117
 20
391.029
 11
9.48534
 21
390.786
  0
LINE
  8
0
 10
9.48534
 20
390.786
 11
9.56821
 21
390.531
  0
LINE
  8
0
 10
9.56821
 20
390.531
 11
9.61845
 21
390.268
  0
LINE
  8
0
 10
9.61845
 20
390.268
 11
9.63528
 21
390
  0
LINE
  8
0
 10
9.63528
 20
390
 11
9.61845
 21
389.732
  0
LINE
  8
0
 10
9.61845
 20
389.732
 11
9.56821
 21
389.469
  0
LINE
  8
0
 10
9.56821
 20
389.469
 11
9.48534
 21
389.214
  0
LINE
  8
0
 10
9.48534
 20
389.214
 11
9.37117
 21
388.971
  0
LINE
  8
0
 10
9.37117
 20
388.971
 11
9.22748
 21
388.745
  0
LINE
  8
0
 10
9.22748
 20
388.745
 11
9.05655
 21
388.538
  0
LINE
  8
0
 10
9.05655
 20
388.538
 11
8.86108
 21
388.355
  0
LINE
  8
0
 10
8.86108
 20
388.355
 11
8.64413
 21
388.197
  0
LINE
  8
0
 10
8.64413
 20
388.197
 11
8.40915
 21
388.068
  0
LINE
  8
0
 10
8.40915
 20
388.068
 11
8.15984
 21
387.969
  0
LINE
  8
0
 10
8.15984
 20
387.969
 11
7.9001
 21
387.903
  0
LINE
  8
0
 10
7.9001
 20
387.903
 11
7.63406
 21
387.869
  0
LINE
  8
0
 10
7.63406
 20
387.869
 11
7.36592
 21
387.869
  0
LINE
  8
0
 10
-7.63406
 20
387.869
 11
-7.9001
 21
387.903
  0
LINE
  8
0
 10
-7.9001
 20
387.903
 11
-8.15984
 21
387.969
  0
LINE
  8
0
 10
-8.15984
 20
387.969
 11
-8.40915
 21
388.068
  0
LINE
  8
0
 10
-8.40915
 20
388.068
 11
-8.64413
 21
388.197
  0
LINE
  8
0
 10
-8.64413
 20
388.197
 11
-8.86108
 21
388.355
  0
LINE
  8
0
 10
-8.86108
 20
388.355
 11
-9.05655
 21
388.538
  0
LINE
  8
0
 10
-9.05655
 20
388.538
 11
-9.22748
 21
388.745
  0
LINE
  8
0
 10
-9.22748
 20
388.745
 11
-9.37117
 21
388.971
  0
LINE
  8
0
 10
-9.37117
 20
388.971
 11
-9.48534
 21
389.214
  0
LINE
  8
0
 10
-9.48534
 20
389.214
 11
-9.56821
 21
389.469
  0
LINE
  8
0
 10
-9.56821
 20
389.469
 11
-9.61845
 21
389.732
  0
LINE
  8
0
 10
-9.61845
 20
389.732
 11
-9.63528
 21
390
  0
LINE
  8
0
 10
-9.63528
 20
390
 11
-9.61845
 21
390.268
  0
LINE
  8
0
 10
-9.61845
 20
390.268
 11
-9.56821
 21
390.531
  0
LINE
  8
0
 10
-9.56821
 20
390.531
 11
-9.48534
 21
390.786
  0
LINE
  8
0
 10
-9.48534
 20
390.786
 11
-9.37117
 21
391.029
  0
LINE
  8
0
 10
-9.37117
 20
391.029
 11
-9.22748
 21
391.255
  0
LINE
  8
0
 10
-9.22748
 20
391.255
 11
-9.05655
 21
391.462
  0
LINE
  8
0
 10
-9.05655
 20
391.462
 11
-8.86108
 21
391.645
  0
LINE
  8
0
 10
-8.86108
 20
391.645
 11
-8.64413
 21
391.803
  0
LINE
  8
0
 10
-8.64413
 20
391.803
 11
-8.40915
 21
391.932
  0
LINE
  8
0
 10
-8.40915
 20
391.932
 11
-8.15984
 21
392.031
  0
LINE
  8
0
 10
-8.15984
 20
392.031
 11
-7.9001
 21
392.097
  0
LINE
  8
0
 10
-7.9001
 20
392.097
 11
-7.63406
 21
392.131
  0
LINE
  8
0
 10
-7.63406
 20
392.131
 11
-7.36592
 21
392.131
  0
LINE
  8
0
 10
-7.36592
 20
392.131
 11
-7.09988
 21
392.097
  0
LINE
  8
0
 10
-7.09988
 20
392.097
 11
-6.84015
 21
392.031
  0
LINE
  8
0
 10
-6.84015
 20
392.031
 11
-6.59084
 21
391.932
  0
LINE
  8
0
 10
-6.59084
 20
391.932
 11
-6.35585
 21
391.803
  0
LINE
  8
0
 10
-6.35585
 20
391.803
 11
-6.1389
 21
391.645
  0
LINE
  8
0
 10
-6.1389
 20
391.645
 11
-5.94344
 21
391.462
  0
LINE
  8
0
 10
-5.94344
 20
391.462
 11
-5.77251
 21
391.255
  0
LINE
  8
0
 10
-5.77251
 20
391.255
 11
-5.62881
 21
391.029
  0
LINE
  8
0
 10
-5.62881
 20
391.029
 11
-5.51465
 21
390.786
  0
LINE
  8
0
 10
-5.51465
 20
390.786
 11
-5.43178
 21
390.531
  0
LINE
  8
0
 10
-5.43178
 20
390.531
 11
-5.38153
 21
390.268
  0
LINE
  8
0
 10
-5.38153
 20
390.268
 11
-5.3647
 21
390
  0
LINE
  8
0
 10
-5.3647
 20
390
 11
-5.38153
 21
389.732
  0
LINE
  8
0
 10
-5.38153
 20
389.732
 11
-5.43178
 21
389.469
  0
LINE
  8
0
 10
-5.43178
 20
389.469
 11
-5.51465
 21
389.214
  0
LINE
  8
0
 10
-5.51465
 20
389.214
 11
-5.62881
 21
388.971
  0
LINE
  8
0
 10
-5.62881
 20
388.971
 11
-5.77251
 21
388.745
  0
LINE
  8
0
 10
-5.77251
 20
388.745
 11
-5.94344
 21
388.538
  0
LINE
  8
0
 10
-5.94344
 20
388.538
 11
-6.1389
 21
388.355
  0
LINE
  8
0
 10
-6.1389
 20
388.355
 11
-6.35585
 21
388.197
  0
LINE
  8
0
 10
-6.35585
 20
388.197
 11
-6.59084
 21
388.068
  0
LINE
  8
0
 10
-6.59084
 20
388.068
 11
-6.84015
 21
387.969
  0
LINE
  8
0
 10
-6.84015
 20
387.969
 11
-7.09988
 21
387.903
  0
LINE
  8
0
 10
-7.09988
 20
387.903
 11
-7.36592
 21
387.869
  0
LINE
  8
0
 10
-7.36592
 20
387.869
 11
-7.63406
 21
387.869
  0
ENDSEC
  0
SECTION
  2
OBJECTS
  0
DICTIONARY
  0
ENDSEC
  0
EOF
