<?xml version="1.0" standalone="no"?>
<!DOCTYPE svg PUBLIC "-//W3C//DTD SVG 1.1//EN" "http://www.w3.org/Graphics/SVG/1.1/DTD/svg11.dtd">
<svg width="62mm" height="262mm" viewBox="-32 -509 62 262" xmlns="http://www.w3.org/2000/svg" version="1.1">
<title>OpenSCAD Model</title>
<path d="
M -28.5,-464.941 L -28.1871,-464.647 L -27.6791,-464.278 L -27.1289,-463.976 L -26.5451,-463.745 L -25.9369,-463.589
 L -25.3139,-463.51 L 25.3139,-463.51 L 25.9369,-463.589 L 26.5451,-463.745 L 27.1289,-463.976 L 27.6791,-464.278
 L 28.1871,-464.647 L 28.6448,-465.077 L 29.0451,-465.561 L 29.3815,-466.091 L 29.6489,-466.659 L 29.8429,-467.257
 L 29.9606,-467.873 L 30,-468.5 L 30,-503.5 L 29.9606,-504.127 L 29.8429,-504.743 L 29.6489,-505.341
 L 29.3815,-505.909 L 29.0451,-506.439 L 28.6448,-506.923 L 28.1871,-507.353 L 27.6791,-507.722 L 27.1289,-508.024
 L 26.5451,-508.255 L 25.9369,-508.411 L 25.3139,-508.49 L -25.3139,-508.49 L -25.9369,-508.411 L -26.5451,-508.255
 L -27.1289,-508.024 L -27.6791,-507.722 L -28.1871,-507.353 L -28.5,-507.059 L -28.5,-508.49 L -31.5,-508.49
 L -31.5,-463.51 L -28.5,-463.51 z
M -24.7512,-465.008 L -25.2495,-465.071 L -25.7361,-465.196 L -26.2031,-465.381 L -26.6433,-465.623 L -27.0497,-465.918
 L -27.4159,-466.262 L -27.7361,-466.649 L -28.0052,-467.073 L -28.2191,-467.528 L -28.3743,-468.005 L -28.4684,-468.499
 L -28.5,-469 L -28.5,-503 L -28.4684,-503.501 L -28.3743,-503.995 L -28.2191,-504.472 L -28.0052,-504.927
 L -27.7361,-505.351 L -27.4159,-505.738 L -27.0497,-506.082 L -26.6433,-506.377 L -26.2031,-506.619 L -25.7361,-506.804
 L -25.2495,-506.929 L -24.7512,-506.992 L 24.7512,-506.992 L 25.2495,-506.929 L 25.7361,-506.804 L 26.2031,-506.619
 L 26.6433,-506.377 L 27.0497,-506.082 L 27.4159,-505.738 L 27.7361,-505.351 L 28.0052,-504.927 L 28.2191,-504.472
 L 28.3743,-503.995 L 28.4684,-503.501 L 28.5,-503 L 28.5,-469 L 28.4684,-468.499 L 28.3743,-468.005
 L 28.2191,-467.528 L 28.0052,-467.073 L 27.7361,-466.649 L 27.4159,-466.262 L 27.0497,-465.918 L 26.6433,-465.623
 L 26.2031,-465.381 L 25.7361,-465.196 L 25.2495,-465.071 L 24.7512,-465.008 z
M -28.5,-410.941 L -28.1871,-410.647 L -27.6791,-410.278 L -27.1289,-409.976 L -26.5451,-409.745 L -25.9369,-409.589
 L -25.3139,-409.51 L 25.3139,-409.51 L 25.9369,-409.589 L 26.5451,-409.745 L 27.1289,-409.976 L 27.6791,-410.278
 L 28.1871,-410.647 L 28.6448,-411.077 L 29.0451,-411.561 L 29.3815,-412.091 L 29.6489,-412.659 L 29.8429,-413.257
 L 29.9606,-413.873 L 30,-414.5 L 30,-449.5 L 29.9606,-450.127 L 29.8429,-450.743 L 29.6489,-451.341
 L 29.3815,-451.909 L 29.0451,-452.439 L 28.6448,-452.923 L 28.1871,-453.353 L 27.6791,-453.722 L 27.1289,-454.024
 L 26.5451,-454.255 L 25.9369,-454.411 L 25.3139,-454.49 L -25.3139,-454.49 L -25.9369,-454.411 L -26.5451,-454.255
 L -27.1289,-454.024 L -27.6791,-453.722 L -28.1871,-453.353 L -28.5,-453.059 L -28.5,-454.49 L -31.5,-454.49
 L -31.5,-409.51 L -28.5,-409.51 z
M -24.7512,-411.008 L -25.2495,-411.071 L -25.7361,-411.196 L -26.2031,-411.381 L -26.6433,-411.623 L -27.0497,-411.918
 L -27.4159,-412.262 L -27.7361,-412.649 L -28.0052,-413.073 L -28.2191,-413.528 L -28.3743,-414.005 L -28.4684,-414.499
 L -28.5,-415 L -28.5,-449 L -28.4684,-449.501 L -28.3743,-449.995 L -28.2191,-450.472 L -28.0052,-450.927
 L -27.7361,-451.351 L -27.4159,-451.738 L -27.0497,-452.082 L -26.6433,-452.377 L -26.2031,-452.619 L -25.7361,-452.804
 L -25.2495,-452.929 L -24.7512,-452.992 L 24.7512,-452.992 L 25.2495,-452.929 L 25.7361,-452.804 L 26.2031,-452.619
 L 26.6433,-452.377 L 27.0497,-452.082 L 27.4159,-451.738 L 27.7361,-451.351 L 28.0052,-450.927 L 28.2191,-450.472
 L 28.3743,-449.995 L 28.4684,-449.501 L 28.5,-449 L 28.5,-415 L 28.4684,-414.499 L 28.3743,-414.005
 L 28.2191,-413.528 L 28.0052,-413.073 L 27.7361,-412.649 L 27.4159,-412.262 L 27.0497,-411.918 L 26.6433,-411.623
 L 26.2031,-411.381 L 25.7361,-411.196 L 25.2495,-411.071 L 24.7512,-411.008 z
M -28.5,-356.941 L -28.1871,-356.647 L -27.6791,-356.278 L -27.1289,-355.976 L -26.5451,-355.745 L -25.9369,-355.589
 L -25.3139,-355.51 L 25.3139,-355.51 L 25.9369,-355.589 L 26.5451,-355.745 L 27.1289,-355.976 L 27.6791,-356.278
 L 28.1871,-356.647 L 28.6448,-357.077 L 29.0451,-357.561 L 29.3815,-358.091 L 29.6489,-358.659 L 29.8429,-359.257
 L 29.9606,-359.873 L 30,-360.5 L 30,-395.5 L 29.9606,-396.127 L 29.8429,-396.743 L 29.6489,-397.341
 L 29.3815,-397.909 L 29.0451,-398.439 L 28.6448,-398.923 L 28.1871,-399.353 L 27.6791,-399.722 L 27.1289,-400.024
 L 26.5451,-400.255 L 25.9369,-400.411 L 25.3139,-400.49 L -25.3139,-400.49 L -25.9369,-400.411 L -26.5451,-400.255
 L -27.1289,-400.024 L -27.6791,-399.722 L -28.1871,-399.353 L -28.5,-399.059 L -28.5,-400.49 L -31.5,-400.49
 L -31.5,-355.51 L -28.5,-355.51 z
M -24.7512,-357.008 L -25.2495,-357.071 L -25.7361,-357.196 L -26.2031,-357.381 L -26.6433,-357.623 L -27.0497,-357.918
 L -27.4159,-358.262 L -27.7361,-358.649 L -28.0052,-359.073 L -28.2191,-359.528 L -28.3743,-360.005 L -28.4684,-360.499
 L -28.5,-361 L -28.5,-395 L -28.4684,-395.501 L -28.3743,-395.995 L -28.2191,-396.472 L -28.0052,-396.927
 L -27.7361,-397.351 L -27.4159,-397.738 L -27.0497,-398.082 L -26.6433,-398.377 L -26.2031,-398.619 L -25.7361,-398.804
 L -25.2495,-398.929 L -24.7512,-398.992 L 24.7512,-398.992 L 25.2495,-398.929 L 25.7361,-398.804 L 26.2031,-398.619
 L 26.6433,-398.377 L 27.0497,-398.082 L 27.4159,-397.738 L 27.7361,-397.351 L 28.0052,-396.927 L 28.2191,-396.472
 L 28.3743,-395.995 L 28.4684,-395.501 L 28.5,-395 L 28.5,-361 L 28.4684,-360.499 L 28.3743,-360.005
 L 28.2191,-359.528 L 28.0052,-359.073 L 27.7361,-358.649 L 27.4159,-358.262 L 27.0497,-357.918 L 26.6433,-357.623
 L 26.2031,-357.381 L 25.7361,-357.196 L 25.2495,-357.071 L 24.7512,-357.008 z
M 25.9369,-301.589 L 26.5451,-301.745 L 27.1289,-301.976 L 27.6791,-302.278 L 28.1871,-302.647 L 28.6448,-303.077
 L 29.0451,-303.561 L 29.3815,-304.091 L 29.6489,-304.659 L 29.8429,-305.257 L 29.9606,-305.873 L 30,-306.5
 L 30,-341.5 L 29.9606,-342.127 L 29.8429,-342.743 L 29.6489,-343.341 L 29.3815,-343.909 L 29.0451,-344.439
 L 28.6448,-344.923 L 28.1871,-345.353 L 27.6791,-345.722 L 27.1289,-346.024 L 26.5451,-346.255 L 25.9369,-346.411
 L 25.3139,-346.49 L -25.3139,-346.49 L -25.9369,-346.411 L -26.5451,-346.255 L -27.1289,-346.024 L -27.6791,-345.722
 L -28.1871,-345.353 L -28.5,-345.059 L -28.5,-346.479 L -31.5,-346.479 L -31.5,-301.521 L -28.5,-301.521
 L -28.5,-302.941 L -28.1871,-302.647 L -27.6791,-302.278 L -27.1289,-301.976 L -26.5451,-301.745 L -25.9369,-301.589
 L -25.3139,-301.51 L 25.3139,-301.51 z
M -24.6954,-303.893 L -25.0833,-303.942 L -25.4619,-304.039 L -25.8254,-304.183 L -26.168,-304.372 L -26.4842,-304.601
 L -26.7692,-304.869 L -27.0184,-305.17 L -27.2279,-305.5 L -27.3943,-305.854 L -27.5151,-306.226 L -27.5884,-306.61
 L -27.6129,-307 L -27.6129,-341 L -27.5884,-341.39 L -27.5151,-341.774 L -27.3943,-342.146 L -27.2279,-342.5
 L -27.0184,-342.83 L -26.7692,-343.131 L -26.4842,-343.399 L -26.168,-343.628 L -25.8254,-343.817 L -25.4619,-343.961
 L -25.0833,-344.058 L -24.6954,-344.107 L 24.6954,-344.107 L 25.0833,-344.058 L 25.4619,-343.961 L 25.8254,-343.817
 L 26.168,-343.628 L 26.4842,-343.399 L 26.7692,-343.131 L 27.0184,-342.83 L 27.2279,-342.5 L 27.3943,-342.146
 L 27.5151,-341.774 L 27.5884,-341.39 L 27.6129,-341 L 27.6129,-307 L 27.5884,-306.61 L 27.5151,-306.226
 L 27.3943,-305.854 L 27.2279,-305.5 L 27.0184,-305.17 L 26.7692,-304.869 L 26.4842,-304.601 L 26.168,-304.372
 L 25.8254,-304.183 L 25.4619,-304.039 L 25.0833,-303.942 L 24.6954,-303.893 z
M 25.9369,-247.589 L 26.5451,-247.745 L 27.1289,-247.976 L 27.6791,-248.278 L 28.1871,-248.647 L 28.6448,-249.077
 L 29.0451,-249.561 L 29.3815,-250.091 L 29.6489,-250.659 L 29.8429,-251.257 L 29.9606,-251.873 L 30,-252.5
 L 30,-287.5 L 29.9606,-288.127 L 29.8429,-288.743 L 29.6489,-289.341 L 29.3815,-289.909 L 29.0451,-290.439
 L 28.6448,-290.923 L 28.1871,-291.353 L 27.6791,-291.722 L 27.1289,-292.024 L 26.5451,-292.255 L 25.9369,-292.411
 L 25.3139,-292.49 L -25.3139,-292.49 L -25.9369,-292.411 L -26.5451,-292.255 L -27.1289,-292.024 L -27.6791,-291.722
 L -28.1871,-291.353 L -28.5,-291.059 L -28.5,-291.153 L -31.5,-291.153 L -31.5,-248.847 L -28.5,-248.847
 L -28.5,-248.941 L -28.1871,-248.647 L -27.6791,-248.278 L -27.1289,-247.976 L -26.5451,-247.745 L -25.9369,-247.589
 L -25.3139,-247.51 L 25.3139,-247.51 z
M -22.6341,-282.869 L -22.9001,-282.903 L -23.1598,-282.969 L -23.4091,-283.068 L -23.6441,-283.197 L -23.8611,-283.355
 L -24.0565,-283.538 L -24.2275,-283.745 L -24.3712,-283.971 L -24.4853,-284.214 L -24.5682,-284.469 L -24.6185,-284.732
 L -24.6353,-285 L -24.6185,-285.268 L -24.5682,-285.531 L -24.4853,-285.786 L -24.3712,-286.029 L -24.2275,-286.255
 L -24.0565,-286.462 L -23.8611,-286.645 L -23.6441,-286.803 L -23.4091,-286.932 L -23.1598,-287.031 L -22.9001,-287.097
 L -22.6341,-287.131 L -22.3659,-287.131 L -22.0999,-287.097 L -21.8401,-287.031 L -21.5908,-286.932 L -21.3559,-286.803
 L -21.1389,-286.645 L -20.9434,-286.462 L -20.7725,-286.255 L -20.6288,-286.029 L -20.5146,-285.786 L -20.4318,-285.531
 L -20.3815,-285.268 L -20.3647,-285 L -20.3815,-284.732 L -20.4318,-284.469 L -20.5146,-284.214 L -20.6288,-283.971
 L -20.7725,-283.745 L -20.9434,-283.538 L -21.1389,-283.355 L -21.3559,-283.197 L -21.5908,-283.068 L -21.8401,-282.969
 L -22.0999,-282.903 L -22.3659,-282.869 z
M 22.3659,-282.869 L 22.0999,-282.903 L 21.8401,-282.969 L 21.5908,-283.068 L 21.3559,-283.197 L 21.1389,-283.355
 L 20.9434,-283.538 L 20.7725,-283.745 L 20.6288,-283.971 L 20.5146,-284.214 L 20.4318,-284.469 L 20.3815,-284.732
 L 20.3647,-285 L 20.3815,-285.268 L 20.4318,-285.531 L 20.5146,-285.786 L 20.6288,-286.029 L 20.7725,-286.255
 L 20.9434,-286.462 L 21.1389,-286.645 L 21.3559,-286.803 L 21.5908,-286.932 L 21.8401,-287.031 L 22.0999,-287.097
 L 22.3659,-287.131 L 22.6341,-287.131 L 22.9001,-287.097 L 23.1598,-287.031 L 23.4091,-286.932 L 23.6441,-286.803
 L 23.8611,-286.645 L 24.0565,-286.462 L 24.2275,-286.255 L 24.3712,-286.029 L 24.4853,-285.786 L 24.5682,-285.531
 L 24.6185,-285.268 L 24.6353,-285 L 24.6185,-284.732 L 24.5682,-284.469 L 24.4853,-284.214 L 24.3712,-283.971
 L 24.2275,-283.745 L 24.0565,-283.538 L 23.8611,-283.355 L 23.6441,-283.197 L 23.4091,-283.068 L 23.1598,-282.969
 L 22.9001,-282.903 L 22.6341,-282.869 z
M -22.6341,-252.869 L -22.9001,-252.903 L -23.1598,-252.969 L -23.4091,-253.068 L -23.6441,-253.197 L -23.8611,-253.355
 L -24.0565,-253.538 L -24.2275,-253.745 L -24.3712,-253.971 L -24.4853,-254.214 L -24.5682,-254.469 L -24.6185,-254.732
 L -24.6353,-255 L -24.6185,-255.268 L -24.5682,-255.531 L -24.4853,-255.786 L -24.3712,-256.029 L -24.2275,-256.255
 L -24.0565,-256.462 L -23.8611,-256.645 L -23.6441,-256.803 L -23.4091,-256.932 L -23.1598,-257.031 L -22.9001,-257.097
 L -22.6341,-257.131 L -22.3659,-257.131 L -22.0999,-257.097 L -21.8401,-257.031 L -21.5908,-256.932 L -21.3559,-256.803
 L -21.1389,-256.645 L -20.9434,-256.462 L -20.7725,-256.255 L -20.6288,-256.029 L -20.5146,-255.786 L -20.4318,-255.531
 L -20.3815,-255.268 L -20.3647,-255 L -20.3815,-254.732 L -20.4318,-254.469 L -20.5146,-254.214 L -20.6288,-253.971
 L -20.7725,-253.745 L -20.9434,-253.538 L -21.1389,-253.355 L -21.3559,-253.197 L -21.5908,-253.068 L -21.8401,-252.969
 L -22.0999,-252.903 L -22.3659,-252.869 z
M 22.3659,-252.869 L 22.0999,-252.903 L 21.8401,-252.969 L 21.5908,-253.068 L 21.3559,-253.197 L 21.1389,-253.355
 L 20.9434,-253.538 L 20.7725,-253.745 L 20.6288,-253.971 L 20.5146,-254.214 L 20.4318,-254.469 L 20.3815,-254.732
 L 20.3647,-255 L 20.3815,-255.268 L 20.4318,-255.531 L 20.5146,-255.786 L 20.6288,-256.029 L 20.7725,-256.255
 L 20.9434,-256.462 L 21.1389,-256.645 L 21.3559,-256.803 L 21.5908,-256.932 L 21.8401,-257.031 L 22.0999,-257.097
 L 22.3659,-257.131 L 22.6341,-257.131 L 22.9001,-257.097 L 23.1598,-257.031 L 23.4091,-256.932 L 23.6441,-256.803
 L 23.8611,-256.645 L 24.0565,-256.462 L 24.2275,-256.255 L 24.3712,-256.029 L 24.4853,-255.786 L 24.5682,-255.531
 L 24.6185,-255.268 L 24.6353,-255 L 24.6185,-254.732 L 24.5682,-254.469 L 24.4853,-254.214 L 24.3712,-253.971
 L 24.2275,-253.745 L 24.0565,-253.538 L 23.8611,-253.355 L 23.6441,-253.197 L 23.4091,-253.068 L 23.1598,-252.969
 L 22.9001,-252.903 L 22.6341,-252.869 z
" stroke="black" fill="lightgray" stroke-width="0.5"/>
</svg>
