  0
SECTION
  2
BLOCKS
  0
ENDSEC
  0
SECTION
  2
ENTITIES
  0
LINE
  8
0
 10
48.4369
 20
108.089
 11
49.0451
 21
108.245
  0
LINE
  8
0
 10
49.0451
 20
108.245
 11
49.6289
 21
108.476
  0
LINE
  8
0
 10
49.6289
 20
108.476
 11
50.1791
 21
108.778
  0
LINE
  8
0
 10
50.1791
 20
108.778
 11
50.6871
 21
109.147
  0
LINE
  8
0
 10
50.6871
 20
109.147
 11
51.1448
 21
109.577
  0
LINE
  8
0
 10
51.1448
 20
109.577
 11
51.5451
 21
110.061
  0
LINE
  8
0
 10
51.5451
 20
110.061
 11
51.8815
 21
110.591
  0
LINE
  8
0
 10
51.8815
 20
110.591
 11
52.1489
 21
111.159
  0
LINE
  8
0
 10
52.1489
 20
111.159
 11
52.3429
 21
111.757
  0
LINE
  8
0
 10
52.3429
 20
111.757
 11
52.4606
 21
112.373
  0
LINE
  8
0
 10
52.4606
 20
112.373
 11
52.5
 21
113
  0
LINE
  8
0
 10
52.5
 20
113
 11
52.5
 21
163
  0
LINE
  8
0
 10
52.5
 20
163
 11
52.4606
 21
163.627
  0
LINE
  8
0
 10
52.4606
 20
163.627
 11
52.3429
 21
164.243
  0
LINE
  8
0
 10
52.3429
 20
164.243
 11
52.1489
 21
164.841
  0
LINE
  8
0
 10
52.1489
 20
164.841
 11
51.8815
 21
165.409
  0
LINE
  8
0
 10
51.8815
 20
165.409
 11
51.5451
 21
165.939
  0
LINE
  8
0
 10
51.5451
 20
165.939
 11
51.1448
 21
166.423
  0
LINE
  8
0
 10
51.1448
 20
166.423
 11
50.6871
 21
166.853
  0
LINE
  8
0
 10
50.6871
 20
166.853
 11
50.1791
 21
167.222
  0
LINE
  8
0
 10
50.1791
 20
167.222
 11
49.6289
 21
167.524
  0
LINE
  8
0
 10
49.6289
 20
167.524
 11
49.0451
 21
167.755
  0
LINE
  8
0
 10
49.0451
 20
167.755
 11
48.4369
 21
167.911
  0
LINE
  8
0
 10
48.4369
 20
167.911
 11
47.8139
 21
167.99
  0
LINE
  8
0
 10
47.8139
 20
167.99
 11
-47.8139
 21
167.99
  0
LINE
  8
0
 10
-47.8139
 20
167.99
 11
-48.4369
 21
167.911
  0
LINE
  8
0
 10
-48.4369
 20
167.911
 11
-49.0451
 21
167.755
  0
LINE
  8
0
 10
-49.0451
 20
167.755
 11
-49.6289
 21
167.524
  0
LINE
  8
0
 10
-49.6289
 20
167.524
 11
-50.1791
 21
167.222
  0
LINE
  8
0
 10
-50.1791
 20
167.222
 11
-50.6871
 21
166.853
  0
LINE
  8
0
 10
-50.6871
 20
166.853
 11
-51.1448
 21
166.423
  0
LINE
  8
0
 10
-51.1448
 20
166.423
 11
-51.5451
 21
165.939
  0
LINE
  8
0
 10
-51.5451
 20
165.939
 11
-51.8815
 21
165.409
  0
LINE
  8
0
 10
-51.8815
 20
165.409
 11
-52.1489
 21
164.841
  0
LINE
  8
0
 10
-52.1489
 20
164.841
 11
-52.3429
 21
164.243
  0
LINE
  8
0
 10
-52.3429
 20
164.243
 11
-52.4606
 21
163.627
  0
LINE
  8
0
 10
-52.4606
 20
163.627
 11
-52.5
 21
163
  0
LINE
  8
0
 10
-52.5
 20
163
 11
-52.5
 21
113
  0
LINE
  8
0
 10
-52.5
 20
113
 11
-52.4606
 21
112.373
  0
LINE
  8
0
 10
-52.4606
 20
112.373
 11
-52.3429
 21
111.757
  0
LINE
  8
0
 10
-52.3429
 20
111.757
 11
-52.1489
 21
111.159
  0
LINE
  8
0
 10
-52.1489
 20
111.159
 11
-51.8815
 21
110.591
  0
LINE
  8
0
 10
-51.8815
 20
110.591
 11
-51.5451
 21
110.061
  0
LINE
  8
0
 10
-51.5451
 20
110.061
 11
-51.1448
 21
109.577
  0
LINE
  8
0
 10
-51.1448
 20
109.577
 11
-50.6871
 21
109.147
  0
LINE
  8
0
 10
-50.6871
 20
109.147
 11
-50.1791
 21
108.778
  0
LINE
  8
0
 10
-50.1791
 20
108.778
 11
-49.6289
 21
108.476
  0
LINE
  8
0
 10
-49.6289
 20
108.476
 11
-49.0451
 21
108.245
  0
LINE
  8
0
 10
-49.0451
 20
108.245
 11
-48.4369
 21
108.089
  0
LINE
  8
0
 10
-48.4369
 20
108.089
 11
-47.8139
 21
108.01
  0
LINE
  8
0
 10
-47.8139
 20
108.01
 11
47.8139
 21
108.01
  0
LINE
  8
0
 10
47.8139
 20
108.01
 11
48.4369
 21
108.089
  0
LINE
  8
0
 10
-47.493
 20
109.388
 11
-47.9751
 21
109.449
  0
LINE
  8
0
 10
-47.9751
 20
109.449
 11
-48.4457
 21
109.57
  0
LINE
  8
0
 10
-48.4457
 20
109.57
 11
-48.8975
 21
109.749
  0
LINE
  8
0
 10
-48.8975
 20
109.749
 11
-49.3234
 21
109.983
  0
LINE
  8
0
 10
-49.3234
 20
109.983
 11
-49.7165
 21
110.269
  0
LINE
  8
0
 10
-49.7165
 20
110.269
 11
-50.0707
 21
110.601
  0
LINE
  8
0
 10
-50.0707
 20
110.601
 11
-50.3805
 21
110.976
  0
LINE
  8
0
 10
-50.3805
 20
110.976
 11
-50.6408
 21
111.386
  0
LINE
  8
0
 10
-50.6408
 20
111.386
 11
-50.8477
 21
111.826
  0
LINE
  8
0
 10
-50.8477
 20
111.826
 11
-50.9979
 21
112.288
  0
LINE
  8
0
 10
-50.9979
 20
112.288
 11
-51.089
 21
112.765
  0
LINE
  8
0
 10
-51.089
 20
112.765
 11
-51.1195
 21
113.25
  0
LINE
  8
0
 10
-51.1195
 20
113.25
 11
-51.1195
 21
162.75
  0
LINE
  8
0
 10
-51.1195
 20
162.75
 11
-51.089
 21
163.235
  0
LINE
  8
0
 10
-51.089
 20
163.235
 11
-50.9979
 21
163.712
  0
LINE
  8
0
 10
-50.9979
 20
163.712
 11
-50.8477
 21
164.174
  0
LINE
  8
0
 10
-50.8477
 20
164.174
 11
-50.6408
 21
164.614
  0
LINE
  8
0
 10
-50.6408
 20
164.614
 11
-50.3805
 21
165.024
  0
LINE
  8
0
 10
-50.3805
 20
165.024
 11
-50.0707
 21
165.399
  0
LINE
  8
0
 10
-50.0707
 20
165.399
 11
-49.7165
 21
165.731
  0
LINE
  8
0
 10
-49.7165
 20
165.731
 11
-49.3234
 21
166.017
  0
LINE
  8
0
 10
-49.3234
 20
166.017
 11
-48.8975
 21
166.251
  0
LINE
  8
0
 10
-48.8975
 20
166.251
 11
-48.4457
 21
166.43
  0
LINE
  8
0
 10
-48.4457
 20
166.43
 11
-47.9751
 21
166.551
  0
LINE
  8
0
 10
-47.9751
 20
166.551
 11
-47.493
 21
166.612
  0
LINE
  8
0
 10
-47.493
 20
166.612
 11
47.493
 21
166.612
  0
LINE
  8
0
 10
47.493
 20
166.612
 11
47.9751
 21
166.551
  0
LINE
  8
0
 10
47.9751
 20
166.551
 11
48.4457
 21
166.43
  0
LINE
  8
0
 10
48.4457
 20
166.43
 11
48.8975
 21
166.251
  0
LINE
  8
0
 10
48.8975
 20
166.251
 11
49.3234
 21
166.017
  0
LINE
  8
0
 10
49.3234
 20
166.017
 11
49.7165
 21
165.731
  0
LINE
  8
0
 10
49.7165
 20
165.731
 11
50.0707
 21
165.399
  0
LINE
  8
0
 10
50.0707
 20
165.399
 11
50.3805
 21
165.024
  0
LINE
  8
0
 10
50.3805
 20
165.024
 11
50.6408
 21
164.614
  0
LINE
  8
0
 10
50.6408
 20
164.614
 11
50.8477
 21
164.174
  0
LINE
  8
0
 10
50.8477
 20
164.174
 11
50.9979
 21
163.712
  0
LINE
  8
0
 10
50.9979
 20
163.712
 11
51.089
 21
163.235
  0
LINE
  8
0
 10
51.089
 20
163.235
 11
51.1195
 21
162.75
  0
LINE
  8
0
 10
51.1195
 20
162.75
 11
51.1195
 21
113.25
  0
LINE
  8
0
 10
51.1195
 20
113.25
 11
51.089
 21
112.765
  0
LINE
  8
0
 10
51.089
 20
112.765
 11
50.9979
 21
112.288
  0
LINE
  8
0
 10
50.9979
 20
112.288
 11
50.8477
 21
111.826
  0
LINE
  8
0
 10
50.8477
 20
111.826
 11
50.6408
 21
111.386
  0
LINE
  8
0
 10
50.6408
 20
111.386
 11
50.3805
 21
110.976
  0
LINE
  8
0
 10
50.3805
 20
110.976
 11
50.0707
 21
110.601
  0
LINE
  8
0
 10
50.0707
 20
110.601
 11
49.7165
 21
110.269
  0
LINE
  8
0
 10
49.7165
 20
110.269
 11
49.3234
 21
109.983
  0
LINE
  8
0
 10
49.3234
 20
109.983
 11
48.8975
 21
109.749
  0
LINE
  8
0
 10
48.8975
 20
109.749
 11
48.4457
 21
109.57
  0
LINE
  8
0
 10
48.4457
 20
109.57
 11
47.9751
 21
109.449
  0
LINE
  8
0
 10
47.9751
 20
109.449
 11
47.493
 21
109.388
  0
LINE
  8
0
 10
47.493
 20
109.388
 11
-47.493
 21
109.388
  0
LINE
  8
0
 10
48.4369
 20
39.0886
 11
49.0451
 21
39.2447
  0
LINE
  8
0
 10
49.0451
 20
39.2447
 11
49.6289
 21
39.4759
  0
LINE
  8
0
 10
49.6289
 20
39.4759
 11
50.1791
 21
39.7784
  0
LINE
  8
0
 10
50.1791
 20
39.7784
 11
50.6871
 21
40.1474
  0
LINE
  8
0
 10
50.6871
 20
40.1474
 11
51.1448
 21
40.5773
  0
LINE
  8
0
 10
51.1448
 20
40.5773
 11
51.5451
 21
41.0611
  0
LINE
  8
0
 10
51.5451
 20
41.0611
 11
51.8815
 21
41.5912
  0
LINE
  8
0
 10
51.8815
 20
41.5912
 11
52.1489
 21
42.1594
  0
LINE
  8
0
 10
52.1489
 20
42.1594
 11
52.3429
 21
42.7566
  0
LINE
  8
0
 10
52.3429
 20
42.7566
 11
52.4606
 21
43.3733
  0
LINE
  8
0
 10
52.4606
 20
43.3733
 11
52.5
 21
44
  0
LINE
  8
0
 10
52.5
 20
44
 11
52.5
 21
94
  0
LINE
  8
0
 10
52.5
 20
94
 11
52.4606
 21
94.6267
  0
LINE
  8
0
 10
52.4606
 20
94.6267
 11
52.3429
 21
95.2434
  0
LINE
  8
0
 10
52.3429
 20
95.2434
 11
52.1489
 21
95.8406
  0
LINE
  8
0
 10
52.1489
 20
95.8406
 11
51.8815
 21
96.4088
  0
LINE
  8
0
 10
51.8815
 20
96.4088
 11
51.5451
 21
96.9389
  0
LINE
  8
0
 10
51.5451
 20
96.9389
 11
51.1448
 21
97.4227
  0
LINE
  8
0
 10
51.1448
 20
97.4227
 11
50.6871
 21
97.8526
  0
LINE
  8
0
 10
50.6871
 20
97.8526
 11
50.1791
 21
98.2216
  0
LINE
  8
0
 10
50.1791
 20
98.2216
 11
49.6289
 21
98.5241
  0
LINE
  8
0
 10
49.6289
 20
98.5241
 11
49.0451
 21
98.7553
  0
LINE
  8
0
 10
49.0451
 20
98.7553
 11
48.4369
 21
98.9114
  0
LINE
  8
0
 10
48.4369
 20
98.9114
 11
47.8139
 21
98.9901
  0
LINE
  8
0
 10
47.8139
 20
98.9901
 11
-47.8139
 21
98.9901
  0
LINE
  8
0
 10
-47.8139
 20
98.9901
 11
-48.4369
 21
98.9114
  0
LINE
  8
0
 10
-48.4369
 20
98.9114
 11
-49.0451
 21
98.7553
  0
LINE
  8
0
 10
-49.0451
 20
98.7553
 11
-49.6289
 21
98.5241
  0
LINE
  8
0
 10
-49.6289
 20
98.5241
 11
-50.1791
 21
98.2216
  0
LINE
  8
0
 10
-50.1791
 20
98.2216
 11
-50.6871
 21
97.8526
  0
LINE
  8
0
 10
-50.6871
 20
97.8526
 11
-51.1448
 21
97.4227
  0
LINE
  8
0
 10
-51.1448
 20
97.4227
 11
-51.5451
 21
96.9389
  0
LINE
  8
0
 10
-51.5451
 20
96.9389
 11
-51.8815
 21
96.4088
  0
LINE
  8
0
 10
-51.8815
 20
96.4088
 11
-52.1489
 21
95.8406
  0
LINE
  8
0
 10
-52.1489
 20
95.8406
 11
-52.3429
 21
95.2434
  0
LINE
  8
0
 10
-52.3429
 20
95.2434
 11
-52.4606
 21
94.6267
  0
LINE
  8
0
 10
-52.4606
 20
94.6267
 11
-52.5
 21
94
  0
LINE
  8
0
 10
-52.5
 20
94
 11
-52.5
 21
44
  0
LINE
  8
0
 10
-52.5
 20
44
 11
-52.4606
 21
43.3733
  0
LINE
  8
0
 10
-52.4606
 20
43.3733
 11
-52.3429
 21
42.7566
  0
LINE
  8
0
 10
-52.3429
 20
42.7566
 11
-52.1489
 21
42.1594
  0
LINE
  8
0
 10
-52.1489
 20
42.1594
 11
-51.8815
 21
41.5912
  0
LINE
  8
0
 10
-51.8815
 20
41.5912
 11
-51.5451
 21
41.0611
  0
LINE
  8
0
 10
-51.5451
 20
41.0611
 11
-51.1448
 21
40.5773
  0
LINE
  8
0
 10
-51.1448
 20
40.5773
 11
-50.6871
 21
40.1474
  0
LINE
  8
0
 10
-50.6871
 20
40.1474
 11
-50.1791
 21
39.7784
  0
LINE
  8
0
 10
-50.1791
 20
39.7784
 11
-49.6289
 21
39.4759
  0
LINE
  8
0
 10
-49.6289
 20
39.4759
 11
-49.0451
 21
39.2447
  0
LINE
  8
0
 10
-49.0451
 20
39.2447
 11
-48.4369
 21
39.0886
  0
LINE
  8
0
 10
-48.4369
 20
39.0886
 11
-47.8139
 21
39.0099
  0
LINE
  8
0
 10
-47.8139
 20
39.0099
 11
47.8139
 21
39.0099
  0
LINE
  8
0
 10
47.8139
 20
39.0099
 11
48.4369
 21
39.0886
  0
LINE
  8
0
 10
44.887
 20
89.7036
 11
44.6627
 21
89.7319
  0
LINE
  8
0
 10
44.6627
 20
89.7319
 11
44.4438
 21
89.7881
  0
LINE
  8
0
 10
44.4438
 20
89.7881
 11
44.2336
 21
89.8713
  0
LINE
  8
0
 10
44.2336
 20
89.8713
 11
44.0355
 21
89.9802
  0
LINE
  8
0
 10
44.0355
 20
89.9802
 11
43.8526
 21
90.1131
  0
LINE
  8
0
 10
43.8526
 20
90.1131
 11
43.6879
 21
90.2678
  0
LINE
  8
0
 10
43.6879
 20
90.2678
 11
43.5438
 21
90.442
  0
LINE
  8
0
 10
43.5438
 20
90.442
 11
43.4226
 21
90.6328
  0
LINE
  8
0
 10
43.4226
 20
90.6328
 11
43.3264
 21
90.8374
  0
LINE
  8
0
 10
43.3264
 20
90.8374
 11
43.2565
 21
91.0524
  0
LINE
  8
0
 10
43.2565
 20
91.0524
 11
43.2142
 21
91.2744
  0
LINE
  8
0
 10
43.2142
 20
91.2744
 11
43.2
 21
91.5
  0
LINE
  8
0
 10
43.2
 20
91.5
 11
43.2142
 21
91.7256
  0
LINE
  8
0
 10
43.2142
 20
91.7256
 11
43.2565
 21
91.9476
  0
LINE
  8
0
 10
43.2565
 20
91.9476
 11
43.3264
 21
92.1626
  0
LINE
  8
0
 10
43.3264
 20
92.1626
 11
43.4226
 21
92.3672
  0
LINE
  8
0
 10
43.4226
 20
92.3672
 11
43.5438
 21
92.558
  0
LINE
  8
0
 10
43.5438
 20
92.558
 11
43.6879
 21
92.7322
  0
LINE
  8
0
 10
43.6879
 20
92.7322
 11
43.8526
 21
92.8869
  0
LINE
  8
0
 10
43.8526
 20
92.8869
 11
44.0355
 21
93.0198
  0
LINE
  8
0
 10
44.0355
 20
93.0198
 11
44.2336
 21
93.1287
  0
LINE
  8
0
 10
44.2336
 20
93.1287
 11
44.4438
 21
93.2119
  0
LINE
  8
0
 10
44.4438
 20
93.2119
 11
44.6627
 21
93.2681
  0
LINE
  8
0
 10
44.6627
 20
93.2681
 11
44.887
 21
93.2964
  0
LINE
  8
0
 10
44.887
 20
93.2964
 11
45.113
 21
93.2964
  0
LINE
  8
0
 10
45.113
 20
93.2964
 11
45.3373
 21
93.2681
  0
LINE
  8
0
 10
45.3373
 20
93.2681
 11
45.5562
 21
93.2119
  0
LINE
  8
0
 10
45.5562
 20
93.2119
 11
45.7664
 21
93.1287
  0
LINE
  8
0
 10
45.7664
 20
93.1287
 11
45.9645
 21
93.0198
  0
LINE
  8
0
 10
45.9645
 20
93.0198
 11
46.1474
 21
92.8869
  0
LINE
  8
0
 10
46.1474
 20
92.8869
 11
46.3121
 21
92.7322
  0
LINE
  8
0
 10
46.3121
 20
92.7322
 11
46.4562
 21
92.558
  0
LINE
  8
0
 10
46.4562
 20
92.558
 11
46.5773
 21
92.3672
  0
LINE
  8
0
 10
46.5773
 20
92.3672
 11
46.6736
 21
92.1626
  0
LINE
  8
0
 10
46.6736
 20
92.1626
 11
46.7434
 21
91.9476
  0
LINE
  8
0
 10
46.7434
 20
91.9476
 11
46.7858
 21
91.7256
  0
LINE
  8
0
 10
46.7858
 20
91.7256
 11
46.8
 21
91.5
  0
LINE
  8
0
 10
46.8
 20
91.5
 11
46.7858
 21
91.2744
  0
LINE
  8
0
 10
46.7858
 20
91.2744
 11
46.7434
 21
91.0524
  0
LINE
  8
0
 10
46.7434
 20
91.0524
 11
46.6736
 21
90.8374
  0
LINE
  8
0
 10
46.6736
 20
90.8374
 11
46.5773
 21
90.6328
  0
LINE
  8
0
 10
46.5773
 20
90.6328
 11
46.4562
 21
90.442
  0
LINE
  8
0
 10
46.4562
 20
90.442
 11
46.3121
 21
90.2678
  0
LINE
  8
0
 10
46.3121
 20
90.2678
 11
46.1474
 21
90.1131
  0
LINE
  8
0
 10
46.1474
 20
90.1131
 11
45.9645
 21
89.9802
  0
LINE
  8
0
 10
45.9645
 20
89.9802
 11
45.7664
 21
89.8713
  0
LINE
  8
0
 10
45.7664
 20
89.8713
 11
45.5562
 21
89.7881
  0
LINE
  8
0
 10
45.5562
 20
89.7881
 11
45.3373
 21
89.7319
  0
LINE
  8
0
 10
45.3373
 20
89.7319
 11
45.113
 21
89.7036
  0
LINE
  8
0
 10
45.113
 20
89.7036
 11
44.887
 21
89.7036
  0
LINE
  8
0
 10
-45.113
 20
89.7036
 11
-45.3373
 21
89.7319
  0
LINE
  8
0
 10
-45.3373
 20
89.7319
 11
-45.5562
 21
89.7881
  0
LINE
  8
0
 10
-45.5562
 20
89.7881
 11
-45.7664
 21
89.8713
  0
LINE
  8
0
 10
-45.7664
 20
89.8713
 11
-45.9645
 21
89.9802
  0
LINE
  8
0
 10
-45.9645
 20
89.9802
 11
-46.1474
 21
90.1131
  0
LINE
  8
0
 10
-46.1474
 20
90.1131
 11
-46.3121
 21
90.2678
  0
LINE
  8
0
 10
-46.3121
 20
90.2678
 11
-46.4562
 21
90.442
  0
LINE
  8
0
 10
-46.4562
 20
90.442
 11
-46.5773
 21
90.6328
  0
LINE
  8
0
 10
-46.5773
 20
90.6328
 11
-46.6736
 21
90.8374
  0
LINE
  8
0
 10
-46.6736
 20
90.8374
 11
-46.7434
 21
91.0524
  0
LINE
  8
0
 10
-46.7434
 20
91.0524
 11
-46.7858
 21
91.2744
  0
LINE
  8
0
 10
-46.7858
 20
91.2744
 11
-46.8
 21
91.5
  0
LINE
  8
0
 10
-46.8
 20
91.5
 11
-46.7858
 21
91.7256
  0
LINE
  8
0
 10
-46.7858
 20
91.7256
 11
-46.7434
 21
91.9476
  0
LINE
  8
0
 10
-46.7434
 20
91.9476
 11
-46.6736
 21
92.1626
  0
LINE
  8
0
 10
-46.6736
 20
92.1626
 11
-46.5773
 21
92.3672
  0
LINE
  8
0
 10
-46.5773
 20
92.3672
 11
-46.4562
 21
92.558
  0
LINE
  8
0
 10
-46.4562
 20
92.558
 11
-46.3121
 21
92.7322
  0
LINE
  8
0
 10
-46.3121
 20
92.7322
 11
-46.1474
 21
92.8869
  0
LINE
  8
0
 10
-46.1474
 20
92.8869
 11
-45.9645
 21
93.0198
  0
LINE
  8
0
 10
-45.9645
 20
93.0198
 11
-45.7664
 21
93.1287
  0
LINE
  8
0
 10
-45.7664
 20
93.1287
 11
-45.5562
 21
93.2119
  0
LINE
  8
0
 10
-45.5562
 20
93.2119
 11
-45.3373
 21
93.2681
  0
LINE
  8
0
 10
-45.3373
 20
93.2681
 11
-45.113
 21
93.2964
  0
LINE
  8
0
 10
-45.113
 20
93.2964
 11
-44.887
 21
93.2964
  0
LINE
  8
0
 10
-44.887
 20
93.2964
 11
-44.6627
 21
93.2681
  0
LINE
  8
0
 10
-44.6627
 20
93.2681
 11
-44.4438
 21
93.2119
  0
LINE
  8
0
 10
-44.4438
 20
93.2119
 11
-44.2336
 21
93.1287
  0
LINE
  8
0
 10
-44.2336
 20
93.1287
 11
-44.0355
 21
93.0198
  0
LINE
  8
0
 10
-44.0355
 20
93.0198
 11
-43.8526
 21
92.8869
  0
LINE
  8
0
 10
-43.8526
 20
92.8869
 11
-43.6879
 21
92.7322
  0
LINE
  8
0
 10
-43.6879
 20
92.7322
 11
-43.5438
 21
92.558
  0
LINE
  8
0
 10
-43.5438
 20
92.558
 11
-43.4226
 21
92.3672
  0
LINE
  8
0
 10
-43.4226
 20
92.3672
 11
-43.3264
 21
92.1626
  0
LINE
  8
0
 10
-43.3264
 20
92.1626
 11
-43.2565
 21
91.9476
  0
LINE
  8
0
 10
-43.2565
 20
91.9476
 11
-43.2142
 21
91.7256
  0
LINE
  8
0
 10
-43.2142
 20
91.7256
 11
-43.2
 21
91.5
  0
LINE
  8
0
 10
-43.2
 20
91.5
 11
-43.2142
 21
91.2744
  0
LINE
  8
0
 10
-43.2142
 20
91.2744
 11
-43.2565
 21
91.0524
  0
LINE
  8
0
 10
-43.2565
 20
91.0524
 11
-43.3264
 21
90.8374
  0
LINE
  8
0
 10
-43.3264
 20
90.8374
 11
-43.4226
 21
90.6328
  0
LINE
  8
0
 10
-43.4226
 20
90.6328
 11
-43.5438
 21
90.442
  0
LINE
  8
0
 10
-43.5438
 20
90.442
 11
-43.6879
 21
90.2678
  0
LINE
  8
0
 10
-43.6879
 20
90.2678
 11
-43.8526
 21
90.1131
  0
LINE
  8
0
 10
-43.8526
 20
90.1131
 11
-44.0355
 21
89.9802
  0
LINE
  8
0
 10
-44.0355
 20
89.9802
 11
-44.2336
 21
89.8713
  0
LINE
  8
0
 10
-44.2336
 20
89.8713
 11
-44.4438
 21
89.7881
  0
LINE
  8
0
 10
-44.4438
 20
89.7881
 11
-44.6627
 21
89.7319
  0
LINE
  8
0
 10
-44.6627
 20
89.7319
 11
-44.887
 21
89.7036
  0
LINE
  8
0
 10
-44.887
 20
89.7036
 11
-45.113
 21
89.7036
  0
LINE
  8
0
 10
-45.113
 20
44.7036
 11
-45.3373
 21
44.7319
  0
LINE
  8
0
 10
-45.3373
 20
44.7319
 11
-45.5562
 21
44.7881
  0
LINE
  8
0
 10
-45.5562
 20
44.7881
 11
-45.7664
 21
44.8713
  0
LINE
  8
0
 10
-45.7664
 20
44.8713
 11
-45.9645
 21
44.9802
  0
LINE
  8
0
 10
-45.9645
 20
44.9802
 11
-46.1474
 21
45.1131
  0
LINE
  8
0
 10
-46.1474
 20
45.1131
 11
-46.3121
 21
45.2678
  0
LINE
  8
0
 10
-46.3121
 20
45.2678
 11
-46.4562
 21
45.442
  0
LINE
  8
0
 10
-46.4562
 20
45.442
 11
-46.5773
 21
45.6328
  0
LINE
  8
0
 10
-46.5773
 20
45.6328
 11
-46.6736
 21
45.8374
  0
LINE
  8
0
 10
-46.6736
 20
45.8374
 11
-46.7434
 21
46.0524
  0
LINE
  8
0
 10
-46.7434
 20
46.0524
 11
-46.7858
 21
46.2744
  0
LINE
  8
0
 10
-46.7858
 20
46.2744
 11
-46.8
 21
46.5
  0
LINE
  8
0
 10
-46.8
 20
46.5
 11
-46.7858
 21
46.7256
  0
LINE
  8
0
 10
-46.7858
 20
46.7256
 11
-46.7434
 21
46.9476
  0
LINE
  8
0
 10
-46.7434
 20
46.9476
 11
-46.6736
 21
47.1626
  0
LINE
  8
0
 10
-46.6736
 20
47.1626
 11
-46.5773
 21
47.3672
  0
LINE
  8
0
 10
-46.5773
 20
47.3672
 11
-46.4562
 21
47.558
  0
LINE
  8
0
 10
-46.4562
 20
47.558
 11
-46.3121
 21
47.7322
  0
LINE
  8
0
 10
-46.3121
 20
47.7322
 11
-46.1474
 21
47.8869
  0
LINE
  8
0
 10
-46.1474
 20
47.8869
 11
-45.9645
 21
48.0198
  0
LINE
  8
0
 10
-45.9645
 20
48.0198
 11
-45.7664
 21
48.1287
  0
LINE
  8
0
 10
-45.7664
 20
48.1287
 11
-45.5562
 21
48.2119
  0
LINE
  8
0
 10
-45.5562
 20
48.2119
 11
-45.3373
 21
48.2681
  0
LINE
  8
0
 10
-45.3373
 20
48.2681
 11
-45.113
 21
48.2964
  0
LINE
  8
0
 10
-45.113
 20
48.2964
 11
-44.887
 21
48.2964
  0
LINE
  8
0
 10
-44.887
 20
48.2964
 11
-44.6627
 21
48.2681
  0
LINE
  8
0
 10
-44.6627
 20
48.2681
 11
-44.4438
 21
48.2119
  0
LINE
  8
0
 10
-44.4438
 20
48.2119
 11
-44.2336
 21
48.1287
  0
LINE
  8
0
 10
-44.2336
 20
48.1287
 11
-44.0355
 21
48.0198
  0
LINE
  8
0
 10
-44.0355
 20
48.0198
 11
-43.8526
 21
47.8869
  0
LINE
  8
0
 10
-43.8526
 20
47.8869
 11
-43.6879
 21
47.7322
  0
LINE
  8
0
 10
-43.6879
 20
47.7322
 11
-43.5438
 21
47.558
  0
LINE
  8
0
 10
-43.5438
 20
47.558
 11
-43.4226
 21
47.3672
  0
LINE
  8
0
 10
-43.4226
 20
47.3672
 11
-43.3264
 21
47.1626
  0
LINE
  8
0
 10
-43.3264
 20
47.1626
 11
-43.2565
 21
46.9476
  0
LINE
  8
0
 10
-43.2565
 20
46.9476
 11
-43.2142
 21
46.7256
  0
LINE
  8
0
 10
-43.2142
 20
46.7256
 11
-43.2
 21
46.5
  0
LINE
  8
0
 10
-43.2
 20
46.5
 11
-43.2142
 21
46.2744
  0
LINE
  8
0
 10
-43.2142
 20
46.2744
 11
-43.2565
 21
46.0524
  0
LINE
  8
0
 10
-43.2565
 20
46.0524
 11
-43.3264
 21
45.8374
  0
LINE
  8
0
 10
-43.3264
 20
45.8374
 11
-43.4226
 21
45.6328
  0
LINE
  8
0
 10
-43.4226
 20
45.6328
 11
-43.5438
 21
45.442
  0
LINE
  8
0
 10
-43.5438
 20
45.442
 11
-43.6879
 21
45.2678
  0
LINE
  8
0
 10
-43.6879
 20
45.2678
 11
-43.8526
 21
45.1131
  0
LINE
  8
0
 10
-43.8526
 20
45.1131
 11
-44.0355
 21
44.9802
  0
LINE
  8
0
 10
-44.0355
 20
44.9802
 11
-44.2336
 21
44.8713
  0
LINE
  8
0
 10
-44.2336
 20
44.8713
 11
-44.4438
 21
44.7881
  0
LINE
  8
0
 10
-44.4438
 20
44.7881
 11
-44.6627
 21
44.7319
  0
LINE
  8
0
 10
-44.6627
 20
44.7319
 11
-44.887
 21
44.7036
  0
LINE
  8
0
 10
-44.887
 20
44.7036
 11
-45.113
 21
44.7036
  0
LINE
  8
0
 10
44.887
 20
44.7036
 11
44.6627
 21
44.7319
  0
LINE
  8
0
 10
44.6627
 20
44.7319
 11
44.4438
 21
44.7881
  0
LINE
  8
0
 10
44.4438
 20
44.7881
 11
44.2336
 21
44.8713
  0
LINE
  8
0
 10
44.2336
 20
44.8713
 11
44.0355
 21
44.9802
  0
LINE
  8
0
 10
44.0355
 20
44.9802
 11
43.8526
 21
45.1131
  0
LINE
  8
0
 10
43.8526
 20
45.1131
 11
43.6879
 21
45.2678
  0
LINE
  8
0
 10
43.6879
 20
45.2678
 11
43.5438
 21
45.442
  0
LINE
  8
0
 10
43.5438
 20
45.442
 11
43.4226
 21
45.6328
  0
LINE
  8
0
 10
43.4226
 20
45.6328
 11
43.3264
 21
45.8374
  0
LINE
  8
0
 10
43.3264
 20
45.8374
 11
43.2565
 21
46.0524
  0
LINE
  8
0
 10
43.2565
 20
46.0524
 11
43.2142
 21
46.2744
  0
LINE
  8
0
 10
43.2142
 20
46.2744
 11
43.2
 21
46.5
  0
LINE
  8
0
 10
43.2
 20
46.5
 11
43.2142
 21
46.7256
  0
LINE
  8
0
 10
43.2142
 20
46.7256
 11
43.2565
 21
46.9476
  0
LINE
  8
0
 10
43.2565
 20
46.9476
 11
43.3264
 21
47.1626
  0
LINE
  8
0
 10
43.3264
 20
47.1626
 11
43.4226
 21
47.3672
  0
LINE
  8
0
 10
43.4226
 20
47.3672
 11
43.5438
 21
47.558
  0
LINE
  8
0
 10
43.5438
 20
47.558
 11
43.6879
 21
47.7322
  0
LINE
  8
0
 10
43.6879
 20
47.7322
 11
43.8526
 21
47.8869
  0
LINE
  8
0
 10
43.8526
 20
47.8869
 11
44.0355
 21
48.0198
  0
LINE
  8
0
 10
44.0355
 20
48.0198
 11
44.2336
 21
48.1287
  0
LINE
  8
0
 10
44.2336
 20
48.1287
 11
44.4438
 21
48.2119
  0
LINE
  8
0
 10
44.4438
 20
48.2119
 11
44.6627
 21
48.2681
  0
LINE
  8
0
 10
44.6627
 20
48.2681
 11
44.887
 21
48.2964
  0
LINE
  8
0
 10
44.887
 20
48.2964
 11
45.113
 21
48.2964
  0
LINE
  8
0
 10
45.113
 20
48.2964
 11
45.3373
 21
48.2681
  0
LINE
  8
0
 10
45.3373
 20
48.2681
 11
45.5562
 21
48.2119
  0
LINE
  8
0
 10
45.5562
 20
48.2119
 11
45.7664
 21
48.1287
  0
LINE
  8
0
 10
45.7664
 20
48.1287
 11
45.9645
 21
48.0198
  0
LINE
  8
0
 10
45.9645
 20
48.0198
 11
46.1474
 21
47.8869
  0
LINE
  8
0
 10
46.1474
 20
47.8869
 11
46.3121
 21
47.7322
  0
LINE
  8
0
 10
46.3121
 20
47.7322
 11
46.4562
 21
47.558
  0
LINE
  8
0
 10
46.4562
 20
47.558
 11
46.5773
 21
47.3672
  0
LINE
  8
0
 10
46.5773
 20
47.3672
 11
46.6736
 21
47.1626
  0
LINE
  8
0
 10
46.6736
 20
47.1626
 11
46.7434
 21
46.9476
  0
LINE
  8
0
 10
46.7434
 20
46.9476
 11
46.7858
 21
46.7256
  0
LINE
  8
0
 10
46.7858
 20
46.7256
 11
46.8
 21
46.5
  0
LINE
  8
0
 10
46.8
 20
46.5
 11
46.7858
 21
46.2744
  0
LINE
  8
0
 10
46.7858
 20
46.2744
 11
46.7434
 21
46.0524
  0
LINE
  8
0
 10
46.7434
 20
46.0524
 11
46.6736
 21
45.8374
  0
LINE
  8
0
 10
46.6736
 20
45.8374
 11
46.5773
 21
45.6328
  0
LINE
  8
0
 10
46.5773
 20
45.6328
 11
46.4562
 21
45.442
  0
LINE
  8
0
 10
46.4562
 20
45.442
 11
46.3121
 21
45.2678
  0
LINE
  8
0
 10
46.3121
 20
45.2678
 11
46.1474
 21
45.1131
  0
LINE
  8
0
 10
46.1474
 20
45.1131
 11
45.9645
 21
44.9802
  0
LINE
  8
0
 10
45.9645
 20
44.9802
 11
45.7664
 21
44.8713
  0
LINE
  8
0
 10
45.7664
 20
44.8713
 11
45.5562
 21
44.7881
  0
LINE
  8
0
 10
45.5562
 20
44.7881
 11
45.3373
 21
44.7319
  0
LINE
  8
0
 10
45.3373
 20
44.7319
 11
45.113
 21
44.7036
  0
LINE
  8
0
 10
45.113
 20
44.7036
 11
44.887
 21
44.7036
  0
ENDSEC
  0
SECTION
  2
OBJECTS
  0
DICTIONARY
  0
ENDSEC
  0
EOF
