  0
SECTION
  2
BLOCKS
  0
ENDSEC
  0
SECTION
  2
ENTITIES
  0
LINE
  8
0
 10
48.4369
 20
177.089
 11
49.0451
 21
177.245
  0
LINE
  8
0
 10
49.0451
 20
177.245
 11
49.6289
 21
177.476
  0
LINE
  8
0
 10
49.6289
 20
177.476
 11
50.1791
 21
177.778
  0
LINE
  8
0
 10
50.1791
 20
177.778
 11
50.6871
 21
178.147
  0
LINE
  8
0
 10
50.6871
 20
178.147
 11
51.1448
 21
178.577
  0
LINE
  8
0
 10
51.1448
 20
178.577
 11
51.5451
 21
179.061
  0
LINE
  8
0
 10
51.5451
 20
179.061
 11
51.8815
 21
179.591
  0
LINE
  8
0
 10
51.8815
 20
179.591
 11
52.1489
 21
180.159
  0
LINE
  8
0
 10
52.1489
 20
180.159
 11
52.3429
 21
180.757
  0
LINE
  8
0
 10
52.3429
 20
180.757
 11
52.4606
 21
181.373
  0
LINE
  8
0
 10
52.4606
 20
181.373
 11
52.5
 21
182
  0
LINE
  8
0
 10
52.5
 20
182
 11
52.5
 21
232
  0
LINE
  8
0
 10
52.5
 20
232
 11
52.4606
 21
232.627
  0
LINE
  8
0
 10
52.4606
 20
232.627
 11
52.3429
 21
233.243
  0
LINE
  8
0
 10
52.3429
 20
233.243
 11
52.1489
 21
233.841
  0
LINE
  8
0
 10
52.1489
 20
233.841
 11
51.8815
 21
234.409
  0
LINE
  8
0
 10
51.8815
 20
234.409
 11
51.5451
 21
234.939
  0
LINE
  8
0
 10
51.5451
 20
234.939
 11
51.1448
 21
235.423
  0
LINE
  8
0
 10
51.1448
 20
235.423
 11
50.6871
 21
235.853
  0
LINE
  8
0
 10
50.6871
 20
235.853
 11
50.1791
 21
236.222
  0
LINE
  8
0
 10
50.1791
 20
236.222
 11
49.6289
 21
236.524
  0
LINE
  8
0
 10
49.6289
 20
236.524
 11
49.0451
 21
236.755
  0
LINE
  8
0
 10
49.0451
 20
236.755
 11
48.4369
 21
236.911
  0
LINE
  8
0
 10
48.4369
 20
236.911
 11
47.8139
 21
236.99
  0
LINE
  8
0
 10
47.8139
 20
236.99
 11
-47.8139
 21
236.99
  0
LINE
  8
0
 10
-47.8139
 20
236.99
 11
-48.4369
 21
236.911
  0
LINE
  8
0
 10
-48.4369
 20
236.911
 11
-49.0451
 21
236.755
  0
LINE
  8
0
 10
-49.0451
 20
236.755
 11
-49.6289
 21
236.524
  0
LINE
  8
0
 10
-49.6289
 20
236.524
 11
-50.1791
 21
236.222
  0
LINE
  8
0
 10
-50.1791
 20
236.222
 11
-50.6871
 21
235.853
  0
LINE
  8
0
 10
-50.6871
 20
235.853
 11
-51
 21
235.559
  0
LINE
  8
0
 10
-51
 20
235.559
 11
-51
 21
236.979
  0
LINE
  8
0
 10
-51
 20
236.979
 11
-54
 21
236.979
  0
LINE
  8
0
 10
-54
 20
236.979
 11
-54
 21
177.021
  0
LINE
  8
0
 10
-54
 20
177.021
 11
-51
 21
177.021
  0
LINE
  8
0
 10
-51
 20
177.021
 11
-51
 21
178.441
  0
LINE
  8
0
 10
-51
 20
178.441
 11
-50.6871
 21
178.147
  0
LINE
  8
0
 10
-50.6871
 20
178.147
 11
-50.1791
 21
177.778
  0
LINE
  8
0
 10
-50.1791
 20
177.778
 11
-49.6289
 21
177.476
  0
LINE
  8
0
 10
-49.6289
 20
177.476
 11
-49.0451
 21
177.245
  0
LINE
  8
0
 10
-49.0451
 20
177.245
 11
-48.4369
 21
177.089
  0
LINE
  8
0
 10
-48.4369
 20
177.089
 11
-47.8139
 21
177.01
  0
LINE
  8
0
 10
-47.8139
 20
177.01
 11
47.8139
 21
177.01
  0
LINE
  8
0
 10
47.8139
 20
177.01
 11
48.4369
 21
177.089
  0
LINE
  8
0
 10
-47.1954
 20
179.393
 11
-47.5833
 21
179.442
  0
LINE
  8
0
 10
-47.5833
 20
179.442
 11
-47.9619
 21
179.539
  0
LINE
  8
0
 10
-47.9619
 20
179.539
 11
-48.3254
 21
179.683
  0
LINE
  8
0
 10
-48.3254
 20
179.683
 11
-48.668
 21
179.872
  0
LINE
  8
0
 10
-48.668
 20
179.872
 11
-48.9842
 21
180.101
  0
LINE
  8
0
 10
-48.9842
 20
180.101
 11
-49.2692
 21
180.369
  0
LINE
  8
0
 10
-49.2692
 20
180.369
 11
-49.5184
 21
180.67
  0
LINE
  8
0
 10
-49.5184
 20
180.67
 11
-49.7279
 21
181
  0
LINE
  8
0
 10
-49.7279
 20
181
 11
-49.8943
 21
181.354
  0
LINE
  8
0
 10
-49.8943
 20
181.354
 11
-50.0151
 21
181.726
  0
LINE
  8
0
 10
-50.0151
 20
181.726
 11
-50.0884
 21
182.11
  0
LINE
  8
0
 10
-50.0884
 20
182.11
 11
-50.1129
 21
182.5
  0
LINE
  8
0
 10
-50.1129
 20
182.5
 11
-50.1129
 21
231.5
  0
LINE
  8
0
 10
-50.1129
 20
231.5
 11
-50.0884
 21
231.89
  0
LINE
  8
0
 10
-50.0884
 20
231.89
 11
-50.0151
 21
232.274
  0
LINE
  8
0
 10
-50.0151
 20
232.274
 11
-49.8943
 21
232.646
  0
LINE
  8
0
 10
-49.8943
 20
232.646
 11
-49.7279
 21
233
  0
LINE
  8
0
 10
-49.7279
 20
233
 11
-49.5184
 21
233.33
  0
LINE
  8
0
 10
-49.5184
 20
233.33
 11
-49.2692
 21
233.631
  0
LINE
  8
0
 10
-49.2692
 20
233.631
 11
-48.9842
 21
233.899
  0
LINE
  8
0
 10
-48.9842
 20
233.899
 11
-48.668
 21
234.128
  0
LINE
  8
0
 10
-48.668
 20
234.128
 11
-48.3254
 21
234.317
  0
LINE
  8
0
 10
-48.3254
 20
234.317
 11
-47.9619
 21
234.461
  0
LINE
  8
0
 10
-47.9619
 20
234.461
 11
-47.5833
 21
234.558
  0
LINE
  8
0
 10
-47.5833
 20
234.558
 11
-47.1954
 21
234.607
  0
LINE
  8
0
 10
-47.1954
 20
234.607
 11
47.1954
 21
234.607
  0
LINE
  8
0
 10
47.1954
 20
234.607
 11
47.5833
 21
234.558
  0
LINE
  8
0
 10
47.5833
 20
234.558
 11
47.9619
 21
234.461
  0
LINE
  8
0
 10
47.9619
 20
234.461
 11
48.3254
 21
234.317
  0
LINE
  8
0
 10
48.3254
 20
234.317
 11
48.668
 21
234.128
  0
LINE
  8
0
 10
48.668
 20
234.128
 11
48.9842
 21
233.899
  0
LINE
  8
0
 10
48.9842
 20
233.899
 11
49.2692
 21
233.631
  0
LINE
  8
0
 10
49.2692
 20
233.631
 11
49.5184
 21
233.33
  0
LINE
  8
0
 10
49.5184
 20
233.33
 11
49.7279
 21
233
  0
LINE
  8
0
 10
49.7279
 20
233
 11
49.8943
 21
232.646
  0
LINE
  8
0
 10
49.8943
 20
232.646
 11
50.0151
 21
232.274
  0
LINE
  8
0
 10
50.0151
 20
232.274
 11
50.0884
 21
231.89
  0
LINE
  8
0
 10
50.0884
 20
231.89
 11
50.1129
 21
231.5
  0
LINE
  8
0
 10
50.1129
 20
231.5
 11
50.1129
 21
182.5
  0
LINE
  8
0
 10
50.1129
 20
182.5
 11
50.0884
 21
182.11
  0
LINE
  8
0
 10
50.0884
 20
182.11
 11
50.0151
 21
181.726
  0
LINE
  8
0
 10
50.0151
 20
181.726
 11
49.8943
 21
181.354
  0
LINE
  8
0
 10
49.8943
 20
181.354
 11
49.7279
 21
181
  0
LINE
  8
0
 10
49.7279
 20
181
 11
49.5184
 21
180.67
  0
LINE
  8
0
 10
49.5184
 20
180.67
 11
49.2692
 21
180.369
  0
LINE
  8
0
 10
49.2692
 20
180.369
 11
48.9842
 21
180.101
  0
LINE
  8
0
 10
48.9842
 20
180.101
 11
48.668
 21
179.872
  0
LINE
  8
0
 10
48.668
 20
179.872
 11
48.3254
 21
179.683
  0
LINE
  8
0
 10
48.3254
 20
179.683
 11
47.9619
 21
179.539
  0
LINE
  8
0
 10
47.9619
 20
179.539
 11
47.5833
 21
179.442
  0
LINE
  8
0
 10
47.5833
 20
179.442
 11
47.1954
 21
179.393
  0
LINE
  8
0
 10
47.1954
 20
179.393
 11
-47.1954
 21
179.393
  0
LINE
  8
0
 10
48.4369
 20
108.089
 11
49.0451
 21
108.245
  0
LINE
  8
0
 10
49.0451
 20
108.245
 11
49.6289
 21
108.476
  0
LINE
  8
0
 10
49.6289
 20
108.476
 11
50.1791
 21
108.778
  0
LINE
  8
0
 10
50.1791
 20
108.778
 11
50.6871
 21
109.147
  0
LINE
  8
0
 10
50.6871
 20
109.147
 11
51.1448
 21
109.577
  0
LINE
  8
0
 10
51.1448
 20
109.577
 11
51.5451
 21
110.061
  0
LINE
  8
0
 10
51.5451
 20
110.061
 11
51.8815
 21
110.591
  0
LINE
  8
0
 10
51.8815
 20
110.591
 11
52.1489
 21
111.159
  0
LINE
  8
0
 10
52.1489
 20
111.159
 11
52.3429
 21
111.757
  0
LINE
  8
0
 10
52.3429
 20
111.757
 11
52.4606
 21
112.373
  0
LINE
  8
0
 10
52.4606
 20
112.373
 11
52.5
 21
113
  0
LINE
  8
0
 10
52.5
 20
113
 11
52.5
 21
163
  0
LINE
  8
0
 10
52.5
 20
163
 11
52.4606
 21
163.627
  0
LINE
  8
0
 10
52.4606
 20
163.627
 11
52.3429
 21
164.243
  0
LINE
  8
0
 10
52.3429
 20
164.243
 11
52.1489
 21
164.841
  0
LINE
  8
0
 10
52.1489
 20
164.841
 11
51.8815
 21
165.409
  0
LINE
  8
0
 10
51.8815
 20
165.409
 11
51.5451
 21
165.939
  0
LINE
  8
0
 10
51.5451
 20
165.939
 11
51.1448
 21
166.423
  0
LINE
  8
0
 10
51.1448
 20
166.423
 11
50.6871
 21
166.853
  0
LINE
  8
0
 10
50.6871
 20
166.853
 11
50.1791
 21
167.222
  0
LINE
  8
0
 10
50.1791
 20
167.222
 11
49.6289
 21
167.524
  0
LINE
  8
0
 10
49.6289
 20
167.524
 11
49.0451
 21
167.755
  0
LINE
  8
0
 10
49.0451
 20
167.755
 11
48.4369
 21
167.911
  0
LINE
  8
0
 10
48.4369
 20
167.911
 11
47.8139
 21
167.99
  0
LINE
  8
0
 10
47.8139
 20
167.99
 11
-47.8139
 21
167.99
  0
LINE
  8
0
 10
-47.8139
 20
167.99
 11
-48.4369
 21
167.911
  0
LINE
  8
0
 10
-48.4369
 20
167.911
 11
-49.0451
 21
167.755
  0
LINE
  8
0
 10
-49.0451
 20
167.755
 11
-49.6289
 21
167.524
  0
LINE
  8
0
 10
-49.6289
 20
167.524
 11
-50.1791
 21
167.222
  0
LINE
  8
0
 10
-50.1791
 20
167.222
 11
-50.6871
 21
166.853
  0
LINE
  8
0
 10
-50.6871
 20
166.853
 11
-51
 21
166.559
  0
LINE
  8
0
 10
-51
 20
166.559
 11
-51
 21
166.653
  0
LINE
  8
0
 10
-51
 20
166.653
 11
-54
 21
166.653
  0
LINE
  8
0
 10
-54
 20
166.653
 11
-54
 21
109.347
  0
LINE
  8
0
 10
-54
 20
109.347
 11
-51
 21
109.347
  0
LINE
  8
0
 10
-51
 20
109.347
 11
-51
 21
109.441
  0
LINE
  8
0
 10
-51
 20
109.441
 11
-50.6871
 21
109.147
  0
LINE
  8
0
 10
-50.6871
 20
109.147
 11
-50.1791
 21
108.778
  0
LINE
  8
0
 10
-50.1791
 20
108.778
 11
-49.6289
 21
108.476
  0
LINE
  8
0
 10
-49.6289
 20
108.476
 11
-49.0451
 21
108.245
  0
LINE
  8
0
 10
-49.0451
 20
108.245
 11
-48.4369
 21
108.089
  0
LINE
  8
0
 10
-48.4369
 20
108.089
 11
-47.8139
 21
108.01
  0
LINE
  8
0
 10
-47.8139
 20
108.01
 11
47.8139
 21
108.01
  0
LINE
  8
0
 10
47.8139
 20
108.01
 11
48.4369
 21
108.089
  0
LINE
  8
0
 10
44.8659
 20
158.369
 11
44.5999
 21
158.403
  0
LINE
  8
0
 10
44.5999
 20
158.403
 11
44.3401
 21
158.469
  0
LINE
  8
0
 10
44.3401
 20
158.469
 11
44.0908
 21
158.568
  0
LINE
  8
0
 10
44.0908
 20
158.568
 11
43.8559
 21
158.697
  0
LINE
  8
0
 10
43.8559
 20
158.697
 11
43.6389
 21
158.855
  0
LINE
  8
0
 10
43.6389
 20
158.855
 11
43.4434
 21
159.038
  0
LINE
  8
0
 10
43.4434
 20
159.038
 11
43.2725
 21
159.245
  0
LINE
  8
0
 10
43.2725
 20
159.245
 11
43.1288
 21
159.471
  0
LINE
  8
0
 10
43.1288
 20
159.471
 11
43.0146
 21
159.714
  0
LINE
  8
0
 10
43.0146
 20
159.714
 11
42.9318
 21
159.969
  0
LINE
  8
0
 10
42.9318
 20
159.969
 11
42.8815
 21
160.232
  0
LINE
  8
0
 10
42.8815
 20
160.232
 11
42.8647
 21
160.5
  0
LINE
  8
0
 10
42.8647
 20
160.5
 11
42.8815
 21
160.768
  0
LINE
  8
0
 10
42.8815
 20
160.768
 11
42.9318
 21
161.031
  0
LINE
  8
0
 10
42.9318
 20
161.031
 11
43.0146
 21
161.286
  0
LINE
  8
0
 10
43.0146
 20
161.286
 11
43.1288
 21
161.529
  0
LINE
  8
0
 10
43.1288
 20
161.529
 11
43.2725
 21
161.755
  0
LINE
  8
0
 10
43.2725
 20
161.755
 11
43.4434
 21
161.962
  0
LINE
  8
0
 10
43.4434
 20
161.962
 11
43.6389
 21
162.145
  0
LINE
  8
0
 10
43.6389
 20
162.145
 11
43.8559
 21
162.303
  0
LINE
  8
0
 10
43.8559
 20
162.303
 11
44.0908
 21
162.432
  0
LINE
  8
0
 10
44.0908
 20
162.432
 11
44.3401
 21
162.531
  0
LINE
  8
0
 10
44.3401
 20
162.531
 11
44.5999
 21
162.597
  0
LINE
  8
0
 10
44.5999
 20
162.597
 11
44.8659
 21
162.631
  0
LINE
  8
0
 10
44.8659
 20
162.631
 11
45.1341
 21
162.631
  0
LINE
  8
0
 10
45.1341
 20
162.631
 11
45.4001
 21
162.597
  0
LINE
  8
0
 10
45.4001
 20
162.597
 11
45.6598
 21
162.531
  0
LINE
  8
0
 10
45.6598
 20
162.531
 11
45.9092
 21
162.432
  0
LINE
  8
0
 10
45.9092
 20
162.432
 11
46.1441
 21
162.303
  0
LINE
  8
0
 10
46.1441
 20
162.303
 11
46.3611
 21
162.145
  0
LINE
  8
0
 10
46.3611
 20
162.145
 11
46.5565
 21
161.962
  0
LINE
  8
0
 10
46.5565
 20
161.962
 11
46.7275
 21
161.755
  0
LINE
  8
0
 10
46.7275
 20
161.755
 11
46.8712
 21
161.529
  0
LINE
  8
0
 10
46.8712
 20
161.529
 11
46.9853
 21
161.286
  0
LINE
  8
0
 10
46.9853
 20
161.286
 11
47.0682
 21
161.031
  0
LINE
  8
0
 10
47.0682
 20
161.031
 11
47.1185
 21
160.768
  0
LINE
  8
0
 10
47.1185
 20
160.768
 11
47.1353
 21
160.5
  0
LINE
  8
0
 10
47.1353
 20
160.5
 11
47.1185
 21
160.232
  0
LINE
  8
0
 10
47.1185
 20
160.232
 11
47.0682
 21
159.969
  0
LINE
  8
0
 10
47.0682
 20
159.969
 11
46.9853
 21
159.714
  0
LINE
  8
0
 10
46.9853
 20
159.714
 11
46.8712
 21
159.471
  0
LINE
  8
0
 10
46.8712
 20
159.471
 11
46.7275
 21
159.245
  0
LINE
  8
0
 10
46.7275
 20
159.245
 11
46.5565
 21
159.038
  0
LINE
  8
0
 10
46.5565
 20
159.038
 11
46.3611
 21
158.855
  0
LINE
  8
0
 10
46.3611
 20
158.855
 11
46.1441
 21
158.697
  0
LINE
  8
0
 10
46.1441
 20
158.697
 11
45.9092
 21
158.568
  0
LINE
  8
0
 10
45.9092
 20
158.568
 11
45.6598
 21
158.469
  0
LINE
  8
0
 10
45.6598
 20
158.469
 11
45.4001
 21
158.403
  0
LINE
  8
0
 10
45.4001
 20
158.403
 11
45.1341
 21
158.369
  0
LINE
  8
0
 10
45.1341
 20
158.369
 11
44.8659
 21
158.369
  0
LINE
  8
0
 10
-45.1341
 20
158.369
 11
-45.4001
 21
158.403
  0
LINE
  8
0
 10
-45.4001
 20
158.403
 11
-45.6598
 21
158.469
  0
LINE
  8
0
 10
-45.6598
 20
158.469
 11
-45.9092
 21
158.568
  0
LINE
  8
0
 10
-45.9092
 20
158.568
 11
-46.1441
 21
158.697
  0
LINE
  8
0
 10
-46.1441
 20
158.697
 11
-46.3611
 21
158.855
  0
LINE
  8
0
 10
-46.3611
 20
158.855
 11
-46.5565
 21
159.038
  0
LINE
  8
0
 10
-46.5565
 20
159.038
 11
-46.7275
 21
159.245
  0
LINE
  8
0
 10
-46.7275
 20
159.245
 11
-46.8712
 21
159.471
  0
LINE
  8
0
 10
-46.8712
 20
159.471
 11
-46.9853
 21
159.714
  0
LINE
  8
0
 10
-46.9853
 20
159.714
 11
-47.0682
 21
159.969
  0
LINE
  8
0
 10
-47.0682
 20
159.969
 11
-47.1185
 21
160.232
  0
LINE
  8
0
 10
-47.1185
 20
160.232
 11
-47.1353
 21
160.5
  0
LINE
  8
0
 10
-47.1353
 20
160.5
 11
-47.1185
 21
160.768
  0
LINE
  8
0
 10
-47.1185
 20
160.768
 11
-47.0682
 21
161.031
  0
LINE
  8
0
 10
-47.0682
 20
161.031
 11
-46.9853
 21
161.286
  0
LINE
  8
0
 10
-46.9853
 20
161.286
 11
-46.8712
 21
161.529
  0
LINE
  8
0
 10
-46.8712
 20
161.529
 11
-46.7275
 21
161.755
  0
LINE
  8
0
 10
-46.7275
 20
161.755
 11
-46.5565
 21
161.962
  0
LINE
  8
0
 10
-46.5565
 20
161.962
 11
-46.3611
 21
162.145
  0
LINE
  8
0
 10
-46.3611
 20
162.145
 11
-46.1441
 21
162.303
  0
LINE
  8
0
 10
-46.1441
 20
162.303
 11
-45.9092
 21
162.432
  0
LINE
  8
0
 10
-45.9092
 20
162.432
 11
-45.6598
 21
162.531
  0
LINE
  8
0
 10
-45.6598
 20
162.531
 11
-45.4001
 21
162.597
  0
LINE
  8
0
 10
-45.4001
 20
162.597
 11
-45.1341
 21
162.631
  0
LINE
  8
0
 10
-45.1341
 20
162.631
 11
-44.8659
 21
162.631
  0
LINE
  8
0
 10
-44.8659
 20
162.631
 11
-44.5999
 21
162.597
  0
LINE
  8
0
 10
-44.5999
 20
162.597
 11
-44.3401
 21
162.531
  0
LINE
  8
0
 10
-44.3401
 20
162.531
 11
-44.0908
 21
162.432
  0
LINE
  8
0
 10
-44.0908
 20
162.432
 11
-43.8559
 21
162.303
  0
LINE
  8
0
 10
-43.8559
 20
162.303
 11
-43.6389
 21
162.145
  0
LINE
  8
0
 10
-43.6389
 20
162.145
 11
-43.4434
 21
161.962
  0
LINE
  8
0
 10
-43.4434
 20
161.962
 11
-43.2725
 21
161.755
  0
LINE
  8
0
 10
-43.2725
 20
161.755
 11
-43.1288
 21
161.529
  0
LINE
  8
0
 10
-43.1288
 20
161.529
 11
-43.0146
 21
161.286
  0
LINE
  8
0
 10
-43.0146
 20
161.286
 11
-42.9318
 21
161.031
  0
LINE
  8
0
 10
-42.9318
 20
161.031
 11
-42.8815
 21
160.768
  0
LINE
  8
0
 10
-42.8815
 20
160.768
 11
-42.8647
 21
160.5
  0
LINE
  8
0
 10
-42.8647
 20
160.5
 11
-42.8815
 21
160.232
  0
LINE
  8
0
 10
-42.8815
 20
160.232
 11
-42.9318
 21
159.969
  0
LINE
  8
0
 10
-42.9318
 20
159.969
 11
-43.0146
 21
159.714
  0
LINE
  8
0
 10
-43.0146
 20
159.714
 11
-43.1288
 21
159.471
  0
LINE
  8
0
 10
-43.1288
 20
159.471
 11
-43.2725
 21
159.245
  0
LINE
  8
0
 10
-43.2725
 20
159.245
 11
-43.4434
 21
159.038
  0
LINE
  8
0
 10
-43.4434
 20
159.038
 11
-43.6389
 21
158.855
  0
LINE
  8
0
 10
-43.6389
 20
158.855
 11
-43.8559
 21
158.697
  0
LINE
  8
0
 10
-43.8559
 20
158.697
 11
-44.0908
 21
158.568
  0
LINE
  8
0
 10
-44.0908
 20
158.568
 11
-44.3401
 21
158.469
  0
LINE
  8
0
 10
-44.3401
 20
158.469
 11
-44.5999
 21
158.403
  0
LINE
  8
0
 10
-44.5999
 20
158.403
 11
-44.8659
 21
158.369
  0
LINE
  8
0
 10
-44.8659
 20
158.369
 11
-45.1341
 21
158.369
  0
LINE
  8
0
 10
44.8659
 20
113.369
 11
44.5999
 21
113.403
  0
LINE
  8
0
 10
44.5999
 20
113.403
 11
44.3401
 21
113.469
  0
LINE
  8
0
 10
44.3401
 20
113.469
 11
44.0908
 21
113.568
  0
LINE
  8
0
 10
44.0908
 20
113.568
 11
43.8559
 21
113.697
  0
LINE
  8
0
 10
43.8559
 20
113.697
 11
43.6389
 21
113.855
  0
LINE
  8
0
 10
43.6389
 20
113.855
 11
43.4434
 21
114.038
  0
LINE
  8
0
 10
43.4434
 20
114.038
 11
43.2725
 21
114.245
  0
LINE
  8
0
 10
43.2725
 20
114.245
 11
43.1288
 21
114.471
  0
LINE
  8
0
 10
43.1288
 20
114.471
 11
43.0146
 21
114.714
  0
LINE
  8
0
 10
43.0146
 20
114.714
 11
42.9318
 21
114.969
  0
LINE
  8
0
 10
42.9318
 20
114.969
 11
42.8815
 21
115.232
  0
LINE
  8
0
 10
42.8815
 20
115.232
 11
42.8647
 21
115.5
  0
LINE
  8
0
 10
42.8647
 20
115.5
 11
42.8815
 21
115.768
  0
LINE
  8
0
 10
42.8815
 20
115.768
 11
42.9318
 21
116.031
  0
LINE
  8
0
 10
42.9318
 20
116.031
 11
43.0146
 21
116.286
  0
LINE
  8
0
 10
43.0146
 20
116.286
 11
43.1288
 21
116.529
  0
LINE
  8
0
 10
43.1288
 20
116.529
 11
43.2725
 21
116.755
  0
LINE
  8
0
 10
43.2725
 20
116.755
 11
43.4434
 21
116.962
  0
LINE
  8
0
 10
43.4434
 20
116.962
 11
43.6389
 21
117.145
  0
LINE
  8
0
 10
43.6389
 20
117.145
 11
43.8559
 21
117.303
  0
LINE
  8
0
 10
43.8559
 20
117.303
 11
44.0908
 21
117.432
  0
LINE
  8
0
 10
44.0908
 20
117.432
 11
44.3401
 21
117.531
  0
LINE
  8
0
 10
44.3401
 20
117.531
 11
44.5999
 21
117.597
  0
LINE
  8
0
 10
44.5999
 20
117.597
 11
44.8659
 21
117.631
  0
LINE
  8
0
 10
44.8659
 20
117.631
 11
45.1341
 21
117.631
  0
LINE
  8
0
 10
45.1341
 20
117.631
 11
45.4001
 21
117.597
  0
LINE
  8
0
 10
45.4001
 20
117.597
 11
45.6598
 21
117.531
  0
LINE
  8
0
 10
45.6598
 20
117.531
 11
45.9092
 21
117.432
  0
LINE
  8
0
 10
45.9092
 20
117.432
 11
46.1441
 21
117.303
  0
LINE
  8
0
 10
46.1441
 20
117.303
 11
46.3611
 21
117.145
  0
LINE
  8
0
 10
46.3611
 20
117.145
 11
46.5565
 21
116.962
  0
LINE
  8
0
 10
46.5565
 20
116.962
 11
46.7275
 21
116.755
  0
LINE
  8
0
 10
46.7275
 20
116.755
 11
46.8712
 21
116.529
  0
LINE
  8
0
 10
46.8712
 20
116.529
 11
46.9853
 21
116.286
  0
LINE
  8
0
 10
46.9853
 20
116.286
 11
47.0682
 21
116.031
  0
LINE
  8
0
 10
47.0682
 20
116.031
 11
47.1185
 21
115.768
  0
LINE
  8
0
 10
47.1185
 20
115.768
 11
47.1353
 21
115.5
  0
LINE
  8
0
 10
47.1353
 20
115.5
 11
47.1185
 21
115.232
  0
LINE
  8
0
 10
47.1185
 20
115.232
 11
47.0682
 21
114.969
  0
LINE
  8
0
 10
47.0682
 20
114.969
 11
46.9853
 21
114.714
  0
LINE
  8
0
 10
46.9853
 20
114.714
 11
46.8712
 21
114.471
  0
LINE
  8
0
 10
46.8712
 20
114.471
 11
46.7275
 21
114.245
  0
LINE
  8
0
 10
46.7275
 20
114.245
 11
46.5565
 21
114.038
  0
LINE
  8
0
 10
46.5565
 20
114.038
 11
46.3611
 21
113.855
  0
LINE
  8
0
 10
46.3611
 20
113.855
 11
46.1441
 21
113.697
  0
LINE
  8
0
 10
46.1441
 20
113.697
 11
45.9092
 21
113.568
  0
LINE
  8
0
 10
45.9092
 20
113.568
 11
45.6598
 21
113.469
  0
LINE
  8
0
 10
45.6598
 20
113.469
 11
45.4001
 21
113.403
  0
LINE
  8
0
 10
45.4001
 20
113.403
 11
45.1341
 21
113.369
  0
LINE
  8
0
 10
45.1341
 20
113.369
 11
44.8659
 21
113.369
  0
LINE
  8
0
 10
-45.1341
 20
113.369
 11
-45.4001
 21
113.403
  0
LINE
  8
0
 10
-45.4001
 20
113.403
 11
-45.6598
 21
113.469
  0
LINE
  8
0
 10
-45.6598
 20
113.469
 11
-45.9092
 21
113.568
  0
LINE
  8
0
 10
-45.9092
 20
113.568
 11
-46.1441
 21
113.697
  0
LINE
  8
0
 10
-46.1441
 20
113.697
 11
-46.3611
 21
113.855
  0
LINE
  8
0
 10
-46.3611
 20
113.855
 11
-46.5565
 21
114.038
  0
LINE
  8
0
 10
-46.5565
 20
114.038
 11
-46.7275
 21
114.245
  0
LINE
  8
0
 10
-46.7275
 20
114.245
 11
-46.8712
 21
114.471
  0
LINE
  8
0
 10
-46.8712
 20
114.471
 11
-46.9853
 21
114.714
  0
LINE
  8
0
 10
-46.9853
 20
114.714
 11
-47.0682
 21
114.969
  0
LINE
  8
0
 10
-47.0682
 20
114.969
 11
-47.1185
 21
115.232
  0
LINE
  8
0
 10
-47.1185
 20
115.232
 11
-47.1353
 21
115.5
  0
LINE
  8
0
 10
-47.1353
 20
115.5
 11
-47.1185
 21
115.768
  0
LINE
  8
0
 10
-47.1185
 20
115.768
 11
-47.0682
 21
116.031
  0
LINE
  8
0
 10
-47.0682
 20
116.031
 11
-46.9853
 21
116.286
  0
LINE
  8
0
 10
-46.9853
 20
116.286
 11
-46.8712
 21
116.529
  0
LINE
  8
0
 10
-46.8712
 20
116.529
 11
-46.7275
 21
116.755
  0
LINE
  8
0
 10
-46.7275
 20
116.755
 11
-46.5565
 21
116.962
  0
LINE
  8
0
 10
-46.5565
 20
116.962
 11
-46.3611
 21
117.145
  0
LINE
  8
0
 10
-46.3611
 20
117.145
 11
-46.1441
 21
117.303
  0
LINE
  8
0
 10
-46.1441
 20
117.303
 11
-45.9092
 21
117.432
  0
LINE
  8
0
 10
-45.9092
 20
117.432
 11
-45.6598
 21
117.531
  0
LINE
  8
0
 10
-45.6598
 20
117.531
 11
-45.4001
 21
117.597
  0
LINE
  8
0
 10
-45.4001
 20
117.597
 11
-45.1341
 21
117.631
  0
LINE
  8
0
 10
-45.1341
 20
117.631
 11
-44.8659
 21
117.631
  0
LINE
  8
0
 10
-44.8659
 20
117.631
 11
-44.5999
 21
117.597
  0
LINE
  8
0
 10
-44.5999
 20
117.597
 11
-44.3401
 21
117.531
  0
LINE
  8
0
 10
-44.3401
 20
117.531
 11
-44.0908
 21
117.432
  0
LINE
  8
0
 10
-44.0908
 20
117.432
 11
-43.8559
 21
117.303
  0
LINE
  8
0
 10
-43.8559
 20
117.303
 11
-43.6389
 21
117.145
  0
LINE
  8
0
 10
-43.6389
 20
117.145
 11
-43.4434
 21
116.962
  0
LINE
  8
0
 10
-43.4434
 20
116.962
 11
-43.2725
 21
116.755
  0
LINE
  8
0
 10
-43.2725
 20
116.755
 11
-43.1288
 21
116.529
  0
LINE
  8
0
 10
-43.1288
 20
116.529
 11
-43.0146
 21
116.286
  0
LINE
  8
0
 10
-43.0146
 20
116.286
 11
-42.9318
 21
116.031
  0
LINE
  8
0
 10
-42.9318
 20
116.031
 11
-42.8815
 21
115.768
  0
LINE
  8
0
 10
-42.8815
 20
115.768
 11
-42.8647
 21
115.5
  0
LINE
  8
0
 10
-42.8647
 20
115.5
 11
-42.8815
 21
115.232
  0
LINE
  8
0
 10
-42.8815
 20
115.232
 11
-42.9318
 21
114.969
  0
LINE
  8
0
 10
-42.9318
 20
114.969
 11
-43.0146
 21
114.714
  0
LINE
  8
0
 10
-43.0146
 20
114.714
 11
-43.1288
 21
114.471
  0
LINE
  8
0
 10
-43.1288
 20
114.471
 11
-43.2725
 21
114.245
  0
LINE
  8
0
 10
-43.2725
 20
114.245
 11
-43.4434
 21
114.038
  0
LINE
  8
0
 10
-43.4434
 20
114.038
 11
-43.6389
 21
113.855
  0
LINE
  8
0
 10
-43.6389
 20
113.855
 11
-43.8559
 21
113.697
  0
LINE
  8
0
 10
-43.8559
 20
113.697
 11
-44.0908
 21
113.568
  0
LINE
  8
0
 10
-44.0908
 20
113.568
 11
-44.3401
 21
113.469
  0
LINE
  8
0
 10
-44.3401
 20
113.469
 11
-44.5999
 21
113.403
  0
LINE
  8
0
 10
-44.5999
 20
113.403
 11
-44.8659
 21
113.369
  0
LINE
  8
0
 10
-44.8659
 20
113.369
 11
-45.1341
 21
113.369
  0
ENDSEC
  0
SECTION
  2
OBJECTS
  0
DICTIONARY
  0
ENDSEC
  0
EOF
