<?xml version="1.0" standalone="no"?>
<!DOCTYPE svg PUBLIC "-//W3C//DTD SVG 1.1//EN" "http://www.w3.org/Graphics/SVG/1.1/DTD/svg11.dtd">
<svg width="16mm" height="558mm" viewBox="-8 -1035 16 558" xmlns="http://www.w3.org/2000/svg" version="1.1">
<title>OpenSCAD Model</title>
<path d="
M 3.4369,-855.089 L 4.04507,-855.245 L 4.62889,-855.476 L 5.17912,-855.778 L 5.68712,-856.147 L 6.14484,-856.577
 L 6.54507,-857.061 L 6.88153,-857.591 L 7.14888,-858.159 L 7.34291,-858.757 L 7.46057,-859.373 L 7.5,-860
 L 7.5,-1030 L 7.46057,-1030.63 L 7.34291,-1031.24 L 7.14888,-1031.84 L 6.88153,-1032.41 L 6.54507,-1032.94
 L 6.14484,-1033.42 L 5.68712,-1033.85 L 5.17912,-1034.22 L 4.62889,-1034.52 L 4.04507,-1034.76 L 3.4369,-1034.91
 L 2.81395,-1034.99 L -2.81395,-1034.99 L -3.4369,-1034.91 L -4.04507,-1034.76 L -4.62889,-1034.52 L -5.17912,-1034.22
 L -5.68712,-1033.85 L -6.14484,-1033.42 L -6.54507,-1032.94 L -6.88153,-1032.41 L -7.14888,-1031.84 L -7.34291,-1031.24
 L -7.46057,-1030.63 L -7.5,-1030 L -7.5,-860 L -7.46057,-859.373 L -7.34291,-858.757 L -7.14888,-858.159
 L -6.88153,-857.591 L -6.54507,-857.061 L -6.14484,-856.577 L -5.68712,-856.147 L -5.17912,-855.778 L -4.62889,-855.476
 L -4.04507,-855.245 L -3.4369,-855.089 L -2.81395,-855.01 L 2.81395,-855.01 z
M -2.25116,-856.508 L -2.74951,-856.571 L -3.23605,-856.696 L -3.70311,-856.881 L -4.1433,-857.123 L -4.54968,-857.418
 L -4.91586,-857.762 L -5.23605,-858.149 L -5.50522,-858.573 L -5.7191,-859.028 L -5.87433,-859.505 L -5.96844,-859.999
 L -6,-860.5 L -6,-1029.5 L -5.96844,-1030 L -5.87433,-1030.49 L -5.7191,-1030.97 L -5.50522,-1031.43
 L -5.23605,-1031.85 L -4.91586,-1032.24 L -4.54968,-1032.58 L -4.1433,-1032.88 L -3.70311,-1033.12 L -3.23605,-1033.3
 L -2.74951,-1033.43 L -2.25116,-1033.49 L 2.25116,-1033.49 L 2.74951,-1033.43 L 3.23605,-1033.3 L 3.70311,-1033.12
 L 4.1433,-1032.88 L 4.54968,-1032.58 L 4.91586,-1032.24 L 5.23605,-1031.85 L 5.50522,-1031.43 L 5.7191,-1030.97
 L 5.87433,-1030.49 L 5.96844,-1030 L 6,-1029.5 L 6,-860.5 L 5.96844,-859.999 L 5.87433,-859.505
 L 5.7191,-859.028 L 5.50522,-858.573 L 5.23605,-858.149 L 4.91586,-857.762 L 4.54968,-857.418 L 4.1433,-857.123
 L 3.70311,-856.881 L 3.23605,-856.696 L 2.74951,-856.571 L 2.25116,-856.508 z
M 3.4369,-666.089 L 4.04507,-666.245 L 4.62889,-666.476 L 5.17912,-666.778 L 5.68712,-667.147 L 6.14484,-667.577
 L 6.54507,-668.061 L 6.88153,-668.591 L 7.14888,-669.159 L 7.34291,-669.757 L 7.46057,-670.373 L 7.5,-671
 L 7.5,-841 L 7.46057,-841.627 L 7.34291,-842.243 L 7.14888,-842.841 L 6.88153,-843.409 L 6.54507,-843.939
 L 6.14484,-844.423 L 5.68712,-844.853 L 5.17912,-845.222 L 4.62889,-845.524 L 4.04507,-845.755 L 3.4369,-845.911
 L 2.81395,-845.99 L -2.81395,-845.99 L -3.4369,-845.911 L -4.04507,-845.755 L -4.62889,-845.524 L -5.17912,-845.222
 L -5.68712,-844.853 L -6.14484,-844.423 L -6.54507,-843.939 L -6.88153,-843.409 L -7.14888,-842.841 L -7.34291,-842.243
 L -7.46057,-841.627 L -7.5,-841 L -7.5,-671 L -7.46057,-670.373 L -7.34291,-669.757 L -7.14888,-669.159
 L -6.88153,-668.591 L -6.54507,-668.061 L -6.14484,-667.577 L -5.68712,-667.147 L -5.17912,-666.778 L -4.62889,-666.476
 L -4.04507,-666.245 L -3.4369,-666.089 L -2.81395,-666.01 L 2.81395,-666.01 z
M -2.19545,-668.393 L -2.5833,-668.442 L -2.96194,-668.539 L -3.32541,-668.683 L -3.66798,-668.872 L -3.98424,-669.101
 L -4.26921,-669.369 L -4.5184,-669.67 L -4.72786,-670 L -4.89432,-670.354 L -5.01512,-670.726 L -5.08836,-671.11
 L -5.11292,-671.5 L -5.11292,-840.5 L -5.08836,-840.89 L -5.01512,-841.274 L -4.89432,-841.646 L -4.72786,-842
 L -4.5184,-842.33 L -4.26921,-842.631 L -3.98424,-842.899 L -3.66798,-843.128 L -3.32541,-843.317 L -2.96194,-843.461
 L -2.5833,-843.558 L -2.19545,-843.607 L 2.19545,-843.607 L 2.5833,-843.558 L 2.96194,-843.461 L 3.32541,-843.317
 L 3.66798,-843.128 L 3.98424,-842.899 L 4.26921,-842.631 L 4.5184,-842.33 L 4.72786,-842 L 4.89432,-841.646
 L 5.01512,-841.274 L 5.08836,-840.89 L 5.11292,-840.5 L 5.11292,-671.5 L 5.08836,-671.11 L 5.01512,-670.726
 L 4.89432,-670.354 L 4.72786,-670 L 4.5184,-669.67 L 4.26921,-669.369 L 3.98424,-669.101 L 3.66798,-668.872
 L 3.32541,-668.683 L 2.96194,-668.539 L 2.5833,-668.442 L 2.19545,-668.393 z
M 3.4369,-477.089 L 4.04507,-477.245 L 4.62889,-477.476 L 5.17912,-477.778 L 5.68712,-478.147 L 6.14484,-478.577
 L 6.54507,-479.061 L 6.88153,-479.591 L 7.14888,-480.159 L 7.34291,-480.757 L 7.46057,-481.373 L 7.5,-482
 L 7.5,-652 L 7.46057,-652.627 L 7.34291,-653.243 L 7.14888,-653.841 L 6.88153,-654.409 L 6.54507,-654.939
 L 6.14484,-655.423 L 5.68712,-655.853 L 5.17912,-656.222 L 4.62889,-656.524 L 4.04507,-656.755 L 3.4369,-656.911
 L 2.81395,-656.99 L -2.81395,-656.99 L -3.4369,-656.911 L -4.04507,-656.755 L -4.62889,-656.524 L -5.17912,-656.222
 L -5.68712,-655.853 L -6.14484,-655.423 L -6.54507,-654.939 L -6.88153,-654.409 L -7.14888,-653.841 L -7.34291,-653.243
 L -7.46057,-652.627 L -7.5,-652 L -7.5,-482 L -7.46057,-481.373 L -7.34291,-480.757 L -7.14888,-480.159
 L -6.88153,-479.591 L -6.54507,-479.061 L -6.14484,-478.577 L -5.68712,-478.147 L -5.17912,-477.778 L -4.62889,-477.476
 L -4.04507,-477.245 L -3.4369,-477.089 L -2.81395,-477.01 L 2.81395,-477.01 z
M -0.134064,-647.369 L -0.400101,-647.403 L -0.659836,-647.469 L -0.909149,-647.568 L -1.14413,-647.697 L -1.36108,-647.855
 L -1.55655,-648.038 L -1.72748,-648.245 L -1.87117,-648.471 L -1.98534,-648.714 L -2.06821,-648.969 L -2.11845,-649.232
 L -2.13528,-649.5 L -2.11845,-649.768 L -2.06821,-650.031 L -1.98534,-650.286 L -1.87117,-650.529 L -1.72748,-650.755
 L -1.55655,-650.962 L -1.36108,-651.145 L -1.14413,-651.303 L -0.909149,-651.432 L -0.659836,-651.531 L -0.400101,-651.597
 L -0.134064,-651.631 L 0.134064,-651.631 L 0.400101,-651.597 L 0.659836,-651.531 L 0.909149,-651.432 L 1.14413,-651.303
 L 1.36108,-651.145 L 1.55655,-650.962 L 1.72748,-650.755 L 1.87117,-650.529 L 1.98534,-650.286 L 2.06821,-650.031
 L 2.11845,-649.768 L 2.13528,-649.5 L 2.11845,-649.232 L 2.06821,-648.969 L 1.98534,-648.714 L 1.87117,-648.471
 L 1.72748,-648.245 L 1.55655,-648.038 L 1.36108,-647.855 L 1.14413,-647.697 L 0.909149,-647.568 L 0.659836,-647.469
 L 0.400101,-647.403 L 0.134064,-647.369 z
M -0.134064,-482.369 L -0.400101,-482.403 L -0.659836,-482.469 L -0.909149,-482.568 L -1.14413,-482.697 L -1.36108,-482.855
 L -1.55655,-483.038 L -1.72748,-483.245 L -1.87117,-483.471 L -1.98534,-483.714 L -2.06821,-483.969 L -2.11845,-484.232
 L -2.13528,-484.5 L -2.11845,-484.768 L -2.06821,-485.031 L -1.98534,-485.286 L -1.87117,-485.529 L -1.72748,-485.755
 L -1.55655,-485.962 L -1.36108,-486.145 L -1.14413,-486.303 L -0.909149,-486.432 L -0.659836,-486.531 L -0.400101,-486.597
 L -0.134064,-486.631 L 0.134064,-486.631 L 0.400101,-486.597 L 0.659836,-486.531 L 0.909149,-486.432 L 1.14413,-486.303
 L 1.36108,-486.145 L 1.55655,-485.962 L 1.72748,-485.755 L 1.87117,-485.529 L 1.98534,-485.286 L 2.06821,-485.031
 L 2.11845,-484.768 L 2.13528,-484.5 L 2.11845,-484.232 L 2.06821,-483.969 L 1.98534,-483.714 L 1.87117,-483.471
 L 1.72748,-483.245 L 1.55655,-483.038 L 1.36108,-482.855 L 1.14413,-482.697 L 0.909149,-482.568 L 0.659836,-482.469
 L 0.400101,-482.403 L 0.134064,-482.369 z
" stroke="black" fill="lightgray" stroke-width="0.5"/>
</svg>
