  0
SECTION
  2
BLOCKS
  0
ENDSEC
  0
SECTION
  2
ENTITIES
  0
LINE
  8
0
 10
3.4369
 20
855.089
 11
4.04507
 21
855.245
  0
LINE
  8
0
 10
4.04507
 20
855.245
 11
4.62889
 21
855.476
  0
LINE
  8
0
 10
4.62889
 20
855.476
 11
5.17912
 21
855.778
  0
LINE
  8
0
 10
5.17912
 20
855.778
 11
5.68712
 21
856.147
  0
LINE
  8
0
 10
5.68712
 20
856.147
 11
6.14484
 21
856.577
  0
LINE
  8
0
 10
6.14484
 20
856.577
 11
6.54507
 21
857.061
  0
LINE
  8
0
 10
6.54507
 20
857.061
 11
6.88153
 21
857.591
  0
LINE
  8
0
 10
6.88153
 20
857.591
 11
7.14888
 21
858.159
  0
LINE
  8
0
 10
7.14888
 20
858.159
 11
7.34291
 21
858.757
  0
LINE
  8
0
 10
7.34291
 20
858.757
 11
7.46057
 21
859.373
  0
LINE
  8
0
 10
7.46057
 20
859.373
 11
7.5
 21
860
  0
LINE
  8
0
 10
7.5
 20
860
 11
7.5
 21
1030
  0
LINE
  8
0
 10
7.5
 20
1030
 11
7.46057
 21
1030.63
  0
LINE
  8
0
 10
7.46057
 20
1030.63
 11
7.34291
 21
1031.24
  0
LINE
  8
0
 10
7.34291
 20
1031.24
 11
7.14888
 21
1031.84
  0
LINE
  8
0
 10
7.14888
 20
1031.84
 11
6.88153
 21
1032.41
  0
LINE
  8
0
 10
6.88153
 20
1032.41
 11
6.54507
 21
1032.94
  0
LINE
  8
0
 10
6.54507
 20
1032.94
 11
6.14484
 21
1033.42
  0
LINE
  8
0
 10
6.14484
 20
1033.42
 11
5.68712
 21
1033.85
  0
LINE
  8
0
 10
5.68712
 20
1033.85
 11
5.17912
 21
1034.22
  0
LINE
  8
0
 10
5.17912
 20
1034.22
 11
4.62889
 21
1034.52
  0
LINE
  8
0
 10
4.62889
 20
1034.52
 11
4.04507
 21
1034.76
  0
LINE
  8
0
 10
4.04507
 20
1034.76
 11
3.4369
 21
1034.91
  0
LINE
  8
0
 10
3.4369
 20
1034.91
 11
2.81395
 21
1034.99
  0
LINE
  8
0
 10
2.81395
 20
1034.99
 11
-2.81395
 21
1034.99
  0
LINE
  8
0
 10
-2.81395
 20
1034.99
 11
-3.4369
 21
1034.91
  0
LINE
  8
0
 10
-3.4369
 20
1034.91
 11
-4.04507
 21
1034.76
  0
LINE
  8
0
 10
-4.04507
 20
1034.76
 11
-4.62889
 21
1034.52
  0
LINE
  8
0
 10
-4.62889
 20
1034.52
 11
-5.17912
 21
1034.22
  0
LINE
  8
0
 10
-5.17912
 20
1034.22
 11
-5.68712
 21
1033.85
  0
LINE
  8
0
 10
-5.68712
 20
1033.85
 11
-6.14484
 21
1033.42
  0
LINE
  8
0
 10
-6.14484
 20
1033.42
 11
-6.54507
 21
1032.94
  0
LINE
  8
0
 10
-6.54507
 20
1032.94
 11
-6.88153
 21
1032.41
  0
LINE
  8
0
 10
-6.88153
 20
1032.41
 11
-7.14888
 21
1031.84
  0
LINE
  8
0
 10
-7.14888
 20
1031.84
 11
-7.34291
 21
1031.24
  0
LINE
  8
0
 10
-7.34291
 20
1031.24
 11
-7.46057
 21
1030.63
  0
LINE
  8
0
 10
-7.46057
 20
1030.63
 11
-7.5
 21
1030
  0
LINE
  8
0
 10
-7.5
 20
1030
 11
-7.5
 21
860
  0
LINE
  8
0
 10
-7.5
 20
860
 11
-7.46057
 21
859.373
  0
LINE
  8
0
 10
-7.46057
 20
859.373
 11
-7.34291
 21
858.757
  0
LINE
  8
0
 10
-7.34291
 20
858.757
 11
-7.14888
 21
858.159
  0
LINE
  8
0
 10
-7.14888
 20
858.159
 11
-6.88153
 21
857.591
  0
LINE
  8
0
 10
-6.88153
 20
857.591
 11
-6.54507
 21
857.061
  0
LINE
  8
0
 10
-6.54507
 20
857.061
 11
-6.14484
 21
856.577
  0
LINE
  8
0
 10
-6.14484
 20
856.577
 11
-5.68712
 21
856.147
  0
LINE
  8
0
 10
-5.68712
 20
856.147
 11
-5.17912
 21
855.778
  0
LINE
  8
0
 10
-5.17912
 20
855.778
 11
-4.62889
 21
855.476
  0
LINE
  8
0
 10
-4.62889
 20
855.476
 11
-4.04507
 21
855.245
  0
LINE
  8
0
 10
-4.04507
 20
855.245
 11
-3.4369
 21
855.089
  0
LINE
  8
0
 10
-3.4369
 20
855.089
 11
-2.81395
 21
855.01
  0
LINE
  8
0
 10
-2.81395
 20
855.01
 11
2.81395
 21
855.01
  0
LINE
  8
0
 10
2.81395
 20
855.01
 11
3.4369
 21
855.089
  0
LINE
  8
0
 10
-2.25116
 20
856.508
 11
-2.74951
 21
856.571
  0
LINE
  8
0
 10
-2.74951
 20
856.571
 11
-3.23605
 21
856.696
  0
LINE
  8
0
 10
-3.23605
 20
856.696
 11
-3.70311
 21
856.881
  0
LINE
  8
0
 10
-3.70311
 20
856.881
 11
-4.1433
 21
857.123
  0
LINE
  8
0
 10
-4.1433
 20
857.123
 11
-4.54968
 21
857.418
  0
LINE
  8
0
 10
-4.54968
 20
857.418
 11
-4.91586
 21
857.762
  0
LINE
  8
0
 10
-4.91586
 20
857.762
 11
-5.23605
 21
858.149
  0
LINE
  8
0
 10
-5.23605
 20
858.149
 11
-5.50522
 21
858.573
  0
LINE
  8
0
 10
-5.50522
 20
858.573
 11
-5.7191
 21
859.028
  0
LINE
  8
0
 10
-5.7191
 20
859.028
 11
-5.87433
 21
859.505
  0
LINE
  8
0
 10
-5.87433
 20
859.505
 11
-5.96844
 21
859.999
  0
LINE
  8
0
 10
-5.96844
 20
859.999
 11
-6
 21
860.5
  0
LINE
  8
0
 10
-6
 20
860.5
 11
-6
 21
1029.5
  0
LINE
  8
0
 10
-6
 20
1029.5
 11
-5.96844
 21
1030
  0
LINE
  8
0
 10
-5.96844
 20
1030
 11
-5.87433
 21
1030.49
  0
LINE
  8
0
 10
-5.87433
 20
1030.49
 11
-5.7191
 21
1030.97
  0
LINE
  8
0
 10
-5.7191
 20
1030.97
 11
-5.50522
 21
1031.43
  0
LINE
  8
0
 10
-5.50522
 20
1031.43
 11
-5.23605
 21
1031.85
  0
LINE
  8
0
 10
-5.23605
 20
1031.85
 11
-4.91586
 21
1032.24
  0
LINE
  8
0
 10
-4.91586
 20
1032.24
 11
-4.54968
 21
1032.58
  0
LINE
  8
0
 10
-4.54968
 20
1032.58
 11
-4.1433
 21
1032.88
  0
LINE
  8
0
 10
-4.1433
 20
1032.88
 11
-3.70311
 21
1033.12
  0
LINE
  8
0
 10
-3.70311
 20
1033.12
 11
-3.23605
 21
1033.3
  0
LINE
  8
0
 10
-3.23605
 20
1033.3
 11
-2.74951
 21
1033.43
  0
LINE
  8
0
 10
-2.74951
 20
1033.43
 11
-2.25116
 21
1033.49
  0
LINE
  8
0
 10
-2.25116
 20
1033.49
 11
2.25116
 21
1033.49
  0
LINE
  8
0
 10
2.25116
 20
1033.49
 11
2.74951
 21
1033.43
  0
LINE
  8
0
 10
2.74951
 20
1033.43
 11
3.23605
 21
1033.3
  0
LINE
  8
0
 10
3.23605
 20
1033.3
 11
3.70311
 21
1033.12
  0
LINE
  8
0
 10
3.70311
 20
1033.12
 11
4.1433
 21
1032.88
  0
LINE
  8
0
 10
4.1433
 20
1032.88
 11
4.54968
 21
1032.58
  0
LINE
  8
0
 10
4.54968
 20
1032.58
 11
4.91586
 21
1032.24
  0
LINE
  8
0
 10
4.91586
 20
1032.24
 11
5.23605
 21
1031.85
  0
LINE
  8
0
 10
5.23605
 20
1031.85
 11
5.50522
 21
1031.43
  0
LINE
  8
0
 10
5.50522
 20
1031.43
 11
5.7191
 21
1030.97
  0
LINE
  8
0
 10
5.7191
 20
1030.97
 11
5.87433
 21
1030.49
  0
LINE
  8
0
 10
5.87433
 20
1030.49
 11
5.96844
 21
1030
  0
LINE
  8
0
 10
5.96844
 20
1030
 11
6
 21
1029.5
  0
LINE
  8
0
 10
6
 20
1029.5
 11
6
 21
860.5
  0
LINE
  8
0
 10
6
 20
860.5
 11
5.96844
 21
859.999
  0
LINE
  8
0
 10
5.96844
 20
859.999
 11
5.87433
 21
859.505
  0
LINE
  8
0
 10
5.87433
 20
859.505
 11
5.7191
 21
859.028
  0
LINE
  8
0
 10
5.7191
 20
859.028
 11
5.50522
 21
858.573
  0
LINE
  8
0
 10
5.50522
 20
858.573
 11
5.23605
 21
858.149
  0
LINE
  8
0
 10
5.23605
 20
858.149
 11
4.91586
 21
857.762
  0
LINE
  8
0
 10
4.91586
 20
857.762
 11
4.54968
 21
857.418
  0
LINE
  8
0
 10
4.54968
 20
857.418
 11
4.1433
 21
857.123
  0
LINE
  8
0
 10
4.1433
 20
857.123
 11
3.70311
 21
856.881
  0
LINE
  8
0
 10
3.70311
 20
856.881
 11
3.23605
 21
856.696
  0
LINE
  8
0
 10
3.23605
 20
856.696
 11
2.74951
 21
856.571
  0
LINE
  8
0
 10
2.74951
 20
856.571
 11
2.25116
 21
856.508
  0
LINE
  8
0
 10
2.25116
 20
856.508
 11
-2.25116
 21
856.508
  0
LINE
  8
0
 10
3.4369
 20
666.089
 11
4.04507
 21
666.245
  0
LINE
  8
0
 10
4.04507
 20
666.245
 11
4.62889
 21
666.476
  0
LINE
  8
0
 10
4.62889
 20
666.476
 11
5.17912
 21
666.778
  0
LINE
  8
0
 10
5.17912
 20
666.778
 11
5.68712
 21
667.147
  0
LINE
  8
0
 10
5.68712
 20
667.147
 11
6.14484
 21
667.577
  0
LINE
  8
0
 10
6.14484
 20
667.577
 11
6.54507
 21
668.061
  0
LINE
  8
0
 10
6.54507
 20
668.061
 11
6.88153
 21
668.591
  0
LINE
  8
0
 10
6.88153
 20
668.591
 11
7.14888
 21
669.159
  0
LINE
  8
0
 10
7.14888
 20
669.159
 11
7.34291
 21
669.757
  0
LINE
  8
0
 10
7.34291
 20
669.757
 11
7.46057
 21
670.373
  0
LINE
  8
0
 10
7.46057
 20
670.373
 11
7.5
 21
671
  0
LINE
  8
0
 10
7.5
 20
671
 11
7.5
 21
841
  0
LINE
  8
0
 10
7.5
 20
841
 11
7.46057
 21
841.627
  0
LINE
  8
0
 10
7.46057
 20
841.627
 11
7.34291
 21
842.243
  0
LINE
  8
0
 10
7.34291
 20
842.243
 11
7.14888
 21
842.841
  0
LINE
  8
0
 10
7.14888
 20
842.841
 11
6.88153
 21
843.409
  0
LINE
  8
0
 10
6.88153
 20
843.409
 11
6.54507
 21
843.939
  0
LINE
  8
0
 10
6.54507
 20
843.939
 11
6.14484
 21
844.423
  0
LINE
  8
0
 10
6.14484
 20
844.423
 11
5.68712
 21
844.853
  0
LINE
  8
0
 10
5.68712
 20
844.853
 11
5.17912
 21
845.222
  0
LINE
  8
0
 10
5.17912
 20
845.222
 11
4.62889
 21
845.524
  0
LINE
  8
0
 10
4.62889
 20
845.524
 11
4.04507
 21
845.755
  0
LINE
  8
0
 10
4.04507
 20
845.755
 11
3.4369
 21
845.911
  0
LINE
  8
0
 10
3.4369
 20
845.911
 11
2.81395
 21
845.99
  0
LINE
  8
0
 10
2.81395
 20
845.99
 11
-2.81395
 21
845.99
  0
LINE
  8
0
 10
-2.81395
 20
845.99
 11
-3.4369
 21
845.911
  0
LINE
  8
0
 10
-3.4369
 20
845.911
 11
-4.04507
 21
845.755
  0
LINE
  8
0
 10
-4.04507
 20
845.755
 11
-4.62889
 21
845.524
  0
LINE
  8
0
 10
-4.62889
 20
845.524
 11
-5.17912
 21
845.222
  0
LINE
  8
0
 10
-5.17912
 20
845.222
 11
-5.68712
 21
844.853
  0
LINE
  8
0
 10
-5.68712
 20
844.853
 11
-6.14484
 21
844.423
  0
LINE
  8
0
 10
-6.14484
 20
844.423
 11
-6.54507
 21
843.939
  0
LINE
  8
0
 10
-6.54507
 20
843.939
 11
-6.88153
 21
843.409
  0
LINE
  8
0
 10
-6.88153
 20
843.409
 11
-7.14888
 21
842.841
  0
LINE
  8
0
 10
-7.14888
 20
842.841
 11
-7.34291
 21
842.243
  0
LINE
  8
0
 10
-7.34291
 20
842.243
 11
-7.46057
 21
841.627
  0
LINE
  8
0
 10
-7.46057
 20
841.627
 11
-7.5
 21
841
  0
LINE
  8
0
 10
-7.5
 20
841
 11
-7.5
 21
671
  0
LINE
  8
0
 10
-7.5
 20
671
 11
-7.46057
 21
670.373
  0
LINE
  8
0
 10
-7.46057
 20
670.373
 11
-7.34291
 21
669.757
  0
LINE
  8
0
 10
-7.34291
 20
669.757
 11
-7.14888
 21
669.159
  0
LINE
  8
0
 10
-7.14888
 20
669.159
 11
-6.88153
 21
668.591
  0
LINE
  8
0
 10
-6.88153
 20
668.591
 11
-6.54507
 21
668.061
  0
LINE
  8
0
 10
-6.54507
 20
668.061
 11
-6.14484
 21
667.577
  0
LINE
  8
0
 10
-6.14484
 20
667.577
 11
-5.68712
 21
667.147
  0
LINE
  8
0
 10
-5.68712
 20
667.147
 11
-5.17912
 21
666.778
  0
LINE
  8
0
 10
-5.17912
 20
666.778
 11
-4.62889
 21
666.476
  0
LINE
  8
0
 10
-4.62889
 20
666.476
 11
-4.04507
 21
666.245
  0
LINE
  8
0
 10
-4.04507
 20
666.245
 11
-3.4369
 21
666.089
  0
LINE
  8
0
 10
-3.4369
 20
666.089
 11
-2.81395
 21
666.01
  0
LINE
  8
0
 10
-2.81395
 20
666.01
 11
2.81395
 21
666.01
  0
LINE
  8
0
 10
2.81395
 20
666.01
 11
3.4369
 21
666.089
  0
LINE
  8
0
 10
-2.19545
 20
668.393
 11
-2.5833
 21
668.442
  0
LINE
  8
0
 10
-2.5833
 20
668.442
 11
-2.96194
 21
668.539
  0
LINE
  8
0
 10
-2.96194
 20
668.539
 11
-3.32541
 21
668.683
  0
LINE
  8
0
 10
-3.32541
 20
668.683
 11
-3.66798
 21
668.872
  0
LINE
  8
0
 10
-3.66798
 20
668.872
 11
-3.98424
 21
669.101
  0
LINE
  8
0
 10
-3.98424
 20
669.101
 11
-4.26921
 21
669.369
  0
LINE
  8
0
 10
-4.26921
 20
669.369
 11
-4.5184
 21
669.67
  0
LINE
  8
0
 10
-4.5184
 20
669.67
 11
-4.72786
 21
670
  0
LINE
  8
0
 10
-4.72786
 20
670
 11
-4.89432
 21
670.354
  0
LINE
  8
0
 10
-4.89432
 20
670.354
 11
-5.01512
 21
670.726
  0
LINE
  8
0
 10
-5.01512
 20
670.726
 11
-5.08836
 21
671.11
  0
LINE
  8
0
 10
-5.08836
 20
671.11
 11
-5.11292
 21
671.5
  0
LINE
  8
0
 10
-5.11292
 20
671.5
 11
-5.11292
 21
840.5
  0
LINE
  8
0
 10
-5.11292
 20
840.5
 11
-5.08836
 21
840.89
  0
LINE
  8
0
 10
-5.08836
 20
840.89
 11
-5.01512
 21
841.274
  0
LINE
  8
0
 10
-5.01512
 20
841.274
 11
-4.89432
 21
841.646
  0
LINE
  8
0
 10
-4.89432
 20
841.646
 11
-4.72786
 21
842
  0
LINE
  8
0
 10
-4.72786
 20
842
 11
-4.5184
 21
842.33
  0
LINE
  8
0
 10
-4.5184
 20
842.33
 11
-4.26921
 21
842.631
  0
LINE
  8
0
 10
-4.26921
 20
842.631
 11
-3.98424
 21
842.899
  0
LINE
  8
0
 10
-3.98424
 20
842.899
 11
-3.66798
 21
843.128
  0
LINE
  8
0
 10
-3.66798
 20
843.128
 11
-3.32541
 21
843.317
  0
LINE
  8
0
 10
-3.32541
 20
843.317
 11
-2.96194
 21
843.461
  0
LINE
  8
0
 10
-2.96194
 20
843.461
 11
-2.5833
 21
843.558
  0
LINE
  8
0
 10
-2.5833
 20
843.558
 11
-2.19545
 21
843.607
  0
LINE
  8
0
 10
-2.19545
 20
843.607
 11
2.19545
 21
843.607
  0
LINE
  8
0
 10
2.19545
 20
843.607
 11
2.5833
 21
843.558
  0
LINE
  8
0
 10
2.5833
 20
843.558
 11
2.96194
 21
843.461
  0
LINE
  8
0
 10
2.96194
 20
843.461
 11
3.32541
 21
843.317
  0
LINE
  8
0
 10
3.32541
 20
843.317
 11
3.66798
 21
843.128
  0
LINE
  8
0
 10
3.66798
 20
843.128
 11
3.98424
 21
842.899
  0
LINE
  8
0
 10
3.98424
 20
842.899
 11
4.26921
 21
842.631
  0
LINE
  8
0
 10
4.26921
 20
842.631
 11
4.5184
 21
842.33
  0
LINE
  8
0
 10
4.5184
 20
842.33
 11
4.72786
 21
842
  0
LINE
  8
0
 10
4.72786
 20
842
 11
4.89432
 21
841.646
  0
LINE
  8
0
 10
4.89432
 20
841.646
 11
5.01512
 21
841.274
  0
LINE
  8
0
 10
5.01512
 20
841.274
 11
5.08836
 21
840.89
  0
LINE
  8
0
 10
5.08836
 20
840.89
 11
5.11292
 21
840.5
  0
LINE
  8
0
 10
5.11292
 20
840.5
 11
5.11292
 21
671.5
  0
LINE
  8
0
 10
5.11292
 20
671.5
 11
5.08836
 21
671.11
  0
LINE
  8
0
 10
5.08836
 20
671.11
 11
5.01512
 21
670.726
  0
LINE
  8
0
 10
5.01512
 20
670.726
 11
4.89432
 21
670.354
  0
LINE
  8
0
 10
4.89432
 20
670.354
 11
4.72786
 21
670
  0
LINE
  8
0
 10
4.72786
 20
670
 11
4.5184
 21
669.67
  0
LINE
  8
0
 10
4.5184
 20
669.67
 11
4.26921
 21
669.369
  0
LINE
  8
0
 10
4.26921
 20
669.369
 11
3.98424
 21
669.101
  0
LINE
  8
0
 10
3.98424
 20
669.101
 11
3.66798
 21
668.872
  0
LINE
  8
0
 10
3.66798
 20
668.872
 11
3.32541
 21
668.683
  0
LINE
  8
0
 10
3.32541
 20
668.683
 11
2.96194
 21
668.539
  0
LINE
  8
0
 10
2.96194
 20
668.539
 11
2.5833
 21
668.442
  0
LINE
  8
0
 10
2.5833
 20
668.442
 11
2.19545
 21
668.393
  0
LINE
  8
0
 10
2.19545
 20
668.393
 11
-2.19545
 21
668.393
  0
LINE
  8
0
 10
3.4369
 20
477.089
 11
4.04507
 21
477.245
  0
LINE
  8
0
 10
4.04507
 20
477.245
 11
4.62889
 21
477.476
  0
LINE
  8
0
 10
4.62889
 20
477.476
 11
5.17912
 21
477.778
  0
LINE
  8
0
 10
5.17912
 20
477.778
 11
5.68712
 21
478.147
  0
LINE
  8
0
 10
5.68712
 20
478.147
 11
6.14484
 21
478.577
  0
LINE
  8
0
 10
6.14484
 20
478.577
 11
6.54507
 21
479.061
  0
LINE
  8
0
 10
6.54507
 20
479.061
 11
6.88153
 21
479.591
  0
LINE
  8
0
 10
6.88153
 20
479.591
 11
7.14888
 21
480.159
  0
LINE
  8
0
 10
7.14888
 20
480.159
 11
7.34291
 21
480.757
  0
LINE
  8
0
 10
7.34291
 20
480.757
 11
7.46057
 21
481.373
  0
LINE
  8
0
 10
7.46057
 20
481.373
 11
7.5
 21
482
  0
LINE
  8
0
 10
7.5
 20
482
 11
7.5
 21
652
  0
LINE
  8
0
 10
7.5
 20
652
 11
7.46057
 21
652.627
  0
LINE
  8
0
 10
7.46057
 20
652.627
 11
7.34291
 21
653.243
  0
LINE
  8
0
 10
7.34291
 20
653.243
 11
7.14888
 21
653.841
  0
LINE
  8
0
 10
7.14888
 20
653.841
 11
6.88153
 21
654.409
  0
LINE
  8
0
 10
6.88153
 20
654.409
 11
6.54507
 21
654.939
  0
LINE
  8
0
 10
6.54507
 20
654.939
 11
6.14484
 21
655.423
  0
LINE
  8
0
 10
6.14484
 20
655.423
 11
5.68712
 21
655.853
  0
LINE
  8
0
 10
5.68712
 20
655.853
 11
5.17912
 21
656.222
  0
LINE
  8
0
 10
5.17912
 20
656.222
 11
4.62889
 21
656.524
  0
LINE
  8
0
 10
4.62889
 20
656.524
 11
4.04507
 21
656.755
  0
LINE
  8
0
 10
4.04507
 20
656.755
 11
3.4369
 21
656.911
  0
LINE
  8
0
 10
3.4369
 20
656.911
 11
2.81395
 21
656.99
  0
LINE
  8
0
 10
2.81395
 20
656.99
 11
-2.81395
 21
656.99
  0
LINE
  8
0
 10
-2.81395
 20
656.99
 11
-3.4369
 21
656.911
  0
LINE
  8
0
 10
-3.4369
 20
656.911
 11
-4.04507
 21
656.755
  0
LINE
  8
0
 10
-4.04507
 20
656.755
 11
-4.62889
 21
656.524
  0
LINE
  8
0
 10
-4.62889
 20
656.524
 11
-5.17912
 21
656.222
  0
LINE
  8
0
 10
-5.17912
 20
656.222
 11
-5.68712
 21
655.853
  0
LINE
  8
0
 10
-5.68712
 20
655.853
 11
-6.14484
 21
655.423
  0
LINE
  8
0
 10
-6.14484
 20
655.423
 11
-6.54507
 21
654.939
  0
LINE
  8
0
 10
-6.54507
 20
654.939
 11
-6.88153
 21
654.409
  0
LINE
  8
0
 10
-6.88153
 20
654.409
 11
-7.14888
 21
653.841
  0
LINE
  8
0
 10
-7.14888
 20
653.841
 11
-7.34291
 21
653.243
  0
LINE
  8
0
 10
-7.34291
 20
653.243
 11
-7.46057
 21
652.627
  0
LINE
  8
0
 10
-7.46057
 20
652.627
 11
-7.5
 21
652
  0
LINE
  8
0
 10
-7.5
 20
652
 11
-7.5
 21
482
  0
LINE
  8
0
 10
-7.5
 20
482
 11
-7.46057
 21
481.373
  0
LINE
  8
0
 10
-7.46057
 20
481.373
 11
-7.34291
 21
480.757
  0
LINE
  8
0
 10
-7.34291
 20
480.757
 11
-7.14888
 21
480.159
  0
LINE
  8
0
 10
-7.14888
 20
480.159
 11
-6.88153
 21
479.591
  0
LINE
  8
0
 10
-6.88153
 20
479.591
 11
-6.54507
 21
479.061
  0
LINE
  8
0
 10
-6.54507
 20
479.061
 11
-6.14484
 21
478.577
  0
LINE
  8
0
 10
-6.14484
 20
478.577
 11
-5.68712
 21
478.147
  0
LINE
  8
0
 10
-5.68712
 20
478.147
 11
-5.17912
 21
477.778
  0
LINE
  8
0
 10
-5.17912
 20
477.778
 11
-4.62889
 21
477.476
  0
LINE
  8
0
 10
-4.62889
 20
477.476
 11
-4.04507
 21
477.245
  0
LINE
  8
0
 10
-4.04507
 20
477.245
 11
-3.4369
 21
477.089
  0
LINE
  8
0
 10
-3.4369
 20
477.089
 11
-2.81395
 21
477.01
  0
LINE
  8
0
 10
-2.81395
 20
477.01
 11
2.81395
 21
477.01
  0
LINE
  8
0
 10
2.81395
 20
477.01
 11
3.4369
 21
477.089
  0
LINE
  8
0
 10
-0.134064
 20
647.369
 11
-0.400101
 21
647.403
  0
LINE
  8
0
 10
-0.400101
 20
647.403
 11
-0.659836
 21
647.469
  0
LINE
  8
0
 10
-0.659836
 20
647.469
 11
-0.909149
 21
647.568
  0
LINE
  8
0
 10
-0.909149
 20
647.568
 11
-1.14413
 21
647.697
  0
LINE
  8
0
 10
-1.14413
 20
647.697
 11
-1.36108
 21
647.855
  0
LINE
  8
0
 10
-1.36108
 20
647.855
 11
-1.55655
 21
648.038
  0
LINE
  8
0
 10
-1.55655
 20
648.038
 11
-1.72748
 21
648.245
  0
LINE
  8
0
 10
-1.72748
 20
648.245
 11
-1.87117
 21
648.471
  0
LINE
  8
0
 10
-1.87117
 20
648.471
 11
-1.98534
 21
648.714
  0
LINE
  8
0
 10
-1.98534
 20
648.714
 11
-2.06821
 21
648.969
  0
LINE
  8
0
 10
-2.06821
 20
648.969
 11
-2.11845
 21
649.232
  0
LINE
  8
0
 10
-2.11845
 20
649.232
 11
-2.13528
 21
649.5
  0
LINE
  8
0
 10
-2.13528
 20
649.5
 11
-2.11845
 21
649.768
  0
LINE
  8
0
 10
-2.11845
 20
649.768
 11
-2.06821
 21
650.031
  0
LINE
  8
0
 10
-2.06821
 20
650.031
 11
-1.98534
 21
650.286
  0
LINE
  8
0
 10
-1.98534
 20
650.286
 11
-1.87117
 21
650.529
  0
LINE
  8
0
 10
-1.87117
 20
650.529
 11
-1.72748
 21
650.755
  0
LINE
  8
0
 10
-1.72748
 20
650.755
 11
-1.55655
 21
650.962
  0
LINE
  8
0
 10
-1.55655
 20
650.962
 11
-1.36108
 21
651.145
  0
LINE
  8
0
 10
-1.36108
 20
651.145
 11
-1.14413
 21
651.303
  0
LINE
  8
0
 10
-1.14413
 20
651.303
 11
-0.909149
 21
651.432
  0
LINE
  8
0
 10
-0.909149
 20
651.432
 11
-0.659836
 21
651.531
  0
LINE
  8
0
 10
-0.659836
 20
651.531
 11
-0.400101
 21
651.597
  0
LINE
  8
0
 10
-0.400101
 20
651.597
 11
-0.134064
 21
651.631
  0
LINE
  8
0
 10
-0.134064
 20
651.631
 11
0.134064
 21
651.631
  0
LINE
  8
0
 10
0.134064
 20
651.631
 11
0.400101
 21
651.597
  0
LINE
  8
0
 10
0.400101
 20
651.597
 11
0.659836
 21
651.531
  0
LINE
  8
0
 10
0.659836
 20
651.531
 11
0.909149
 21
651.432
  0
LINE
  8
0
 10
0.909149
 20
651.432
 11
1.14413
 21
651.303
  0
LINE
  8
0
 10
1.14413
 20
651.303
 11
1.36108
 21
651.145
  0
LINE
  8
0
 10
1.36108
 20
651.145
 11
1.55655
 21
650.962
  0
LINE
  8
0
 10
1.55655
 20
650.962
 11
1.72748
 21
650.755
  0
LINE
  8
0
 10
1.72748
 20
650.755
 11
1.87117
 21
650.529
  0
LINE
  8
0
 10
1.87117
 20
650.529
 11
1.98534
 21
650.286
  0
LINE
  8
0
 10
1.98534
 20
650.286
 11
2.06821
 21
650.031
  0
LINE
  8
0
 10
2.06821
 20
650.031
 11
2.11845
 21
649.768
  0
LINE
  8
0
 10
2.11845
 20
649.768
 11
2.13528
 21
649.5
  0
LINE
  8
0
 10
2.13528
 20
649.5
 11
2.11845
 21
649.232
  0
LINE
  8
0
 10
2.11845
 20
649.232
 11
2.06821
 21
648.969
  0
LINE
  8
0
 10
2.06821
 20
648.969
 11
1.98534
 21
648.714
  0
LINE
  8
0
 10
1.98534
 20
648.714
 11
1.87117
 21
648.471
  0
LINE
  8
0
 10
1.87117
 20
648.471
 11
1.72748
 21
648.245
  0
LINE
  8
0
 10
1.72748
 20
648.245
 11
1.55655
 21
648.038
  0
LINE
  8
0
 10
1.55655
 20
648.038
 11
1.36108
 21
647.855
  0
LINE
  8
0
 10
1.36108
 20
647.855
 11
1.14413
 21
647.697
  0
LINE
  8
0
 10
1.14413
 20
647.697
 11
0.909149
 21
647.568
  0
LINE
  8
0
 10
0.909149
 20
647.568
 11
0.659836
 21
647.469
  0
LINE
  8
0
 10
0.659836
 20
647.469
 11
0.400101
 21
647.403
  0
LINE
  8
0
 10
0.400101
 20
647.403
 11
0.134064
 21
647.369
  0
LINE
  8
0
 10
0.134064
 20
647.369
 11
-0.134064
 21
647.369
  0
LINE
  8
0
 10
-0.134064
 20
482.369
 11
-0.400101
 21
482.403
  0
LINE
  8
0
 10
-0.400101
 20
482.403
 11
-0.659836
 21
482.469
  0
LINE
  8
0
 10
-0.659836
 20
482.469
 11
-0.909149
 21
482.568
  0
LINE
  8
0
 10
-0.909149
 20
482.568
 11
-1.14413
 21
482.697
  0
LINE
  8
0
 10
-1.14413
 20
482.697
 11
-1.36108
 21
482.855
  0
LINE
  8
0
 10
-1.36108
 20
482.855
 11
-1.55655
 21
483.038
  0
LINE
  8
0
 10
-1.55655
 20
483.038
 11
-1.72748
 21
483.245
  0
LINE
  8
0
 10
-1.72748
 20
483.245
 11
-1.87117
 21
483.471
  0
LINE
  8
0
 10
-1.87117
 20
483.471
 11
-1.98534
 21
483.714
  0
LINE
  8
0
 10
-1.98534
 20
483.714
 11
-2.06821
 21
483.969
  0
LINE
  8
0
 10
-2.06821
 20
483.969
 11
-2.11845
 21
484.232
  0
LINE
  8
0
 10
-2.11845
 20
484.232
 11
-2.13528
 21
484.5
  0
LINE
  8
0
 10
-2.13528
 20
484.5
 11
-2.11845
 21
484.768
  0
LINE
  8
0
 10
-2.11845
 20
484.768
 11
-2.06821
 21
485.031
  0
LINE
  8
0
 10
-2.06821
 20
485.031
 11
-1.98534
 21
485.286
  0
LINE
  8
0
 10
-1.98534
 20
485.286
 11
-1.87117
 21
485.529
  0
LINE
  8
0
 10
-1.87117
 20
485.529
 11
-1.72748
 21
485.755
  0
LINE
  8
0
 10
-1.72748
 20
485.755
 11
-1.55655
 21
485.962
  0
LINE
  8
0
 10
-1.55655
 20
485.962
 11
-1.36108
 21
486.145
  0
LINE
  8
0
 10
-1.36108
 20
486.145
 11
-1.14413
 21
486.303
  0
LINE
  8
0
 10
-1.14413
 20
486.303
 11
-0.909149
 21
486.432
  0
LINE
  8
0
 10
-0.909149
 20
486.432
 11
-0.659836
 21
486.531
  0
LINE
  8
0
 10
-0.659836
 20
486.531
 11
-0.400101
 21
486.597
  0
LINE
  8
0
 10
-0.400101
 20
486.597
 11
-0.134064
 21
486.631
  0
LINE
  8
0
 10
-0.134064
 20
486.631
 11
0.134064
 21
486.631
  0
LINE
  8
0
 10
0.134064
 20
486.631
 11
0.400101
 21
486.597
  0
LINE
  8
0
 10
0.400101
 20
486.597
 11
0.659836
 21
486.531
  0
LINE
  8
0
 10
0.659836
 20
486.531
 11
0.909149
 21
486.432
  0
LINE
  8
0
 10
0.909149
 20
486.432
 11
1.14413
 21
486.303
  0
LINE
  8
0
 10
1.14413
 20
486.303
 11
1.36108
 21
486.145
  0
LINE
  8
0
 10
1.36108
 20
486.145
 11
1.55655
 21
485.962
  0
LINE
  8
0
 10
1.55655
 20
485.962
 11
1.72748
 21
485.755
  0
LINE
  8
0
 10
1.72748
 20
485.755
 11
1.87117
 21
485.529
  0
LINE
  8
0
 10
1.87117
 20
485.529
 11
1.98534
 21
485.286
  0
LINE
  8
0
 10
1.98534
 20
485.286
 11
2.06821
 21
485.031
  0
LINE
  8
0
 10
2.06821
 20
485.031
 11
2.11845
 21
484.768
  0
LINE
  8
0
 10
2.11845
 20
484.768
 11
2.13528
 21
484.5
  0
LINE
  8
0
 10
2.13528
 20
484.5
 11
2.11845
 21
484.232
  0
LINE
  8
0
 10
2.11845
 20
484.232
 11
2.06821
 21
483.969
  0
LINE
  8
0
 10
2.06821
 20
483.969
 11
1.98534
 21
483.714
  0
LINE
  8
0
 10
1.98534
 20
483.714
 11
1.87117
 21
483.471
  0
LINE
  8
0
 10
1.87117
 20
483.471
 11
1.72748
 21
483.245
  0
LINE
  8
0
 10
1.72748
 20
483.245
 11
1.55655
 21
483.038
  0
LINE
  8
0
 10
1.55655
 20
483.038
 11
1.36108
 21
482.855
  0
LINE
  8
0
 10
1.36108
 20
482.855
 11
1.14413
 21
482.697
  0
LINE
  8
0
 10
1.14413
 20
482.697
 11
0.909149
 21
482.568
  0
LINE
  8
0
 10
0.909149
 20
482.568
 11
0.659836
 21
482.469
  0
LINE
  8
0
 10
0.659836
 20
482.469
 11
0.400101
 21
482.403
  0
LINE
  8
0
 10
0.400101
 20
482.403
 11
0.134064
 21
482.369
  0
LINE
  8
0
 10
0.134064
 20
482.369
 11
-0.134064
 21
482.369
  0
ENDSEC
  0
SECTION
  2
OBJECTS
  0
DICTIONARY
  0
ENDSEC
  0
EOF
