<?xml version="1.0" standalone="no"?>
<!DOCTYPE svg PUBLIC "-//W3C//DTD SVG 1.1//EN" "http://www.w3.org/Graphics/SVG/1.1/DTD/svg11.dtd">
<svg width="30mm" height="154mm" viewBox="-15 -293 30 154" xmlns="http://www.w3.org/2000/svg" version="1.1">
<title>OpenSCAD Model</title>
<path d="
M 10.9369,-247.589 L 11.5451,-247.745 L 12.1289,-247.976 L 12.6791,-248.278 L 13.1871,-248.647 L 13.6448,-249.077
 L 14.0451,-249.561 L 14.3815,-250.091 L 14.6489,-250.659 L 14.8429,-251.257 L 14.9606,-251.873 L 15,-252.5
 L 15,-287.5 L 14.9606,-288.127 L 14.8429,-288.743 L 14.6489,-289.341 L 14.3815,-289.909 L 14.0451,-290.439
 L 13.6448,-290.923 L 13.1871,-291.353 L 12.6791,-291.722 L 12.1289,-292.024 L 11.5451,-292.255 L 10.9369,-292.411
 L 10.3139,-292.49 L -10.3139,-292.49 L -10.9369,-292.411 L -11.5451,-292.255 L -12.1289,-292.024 L -12.6791,-291.722
 L -13.1871,-291.353 L -13.6448,-290.923 L -14.0451,-290.439 L -14.3815,-289.909 L -14.6489,-289.341 L -14.8429,-288.743
 L -14.9606,-288.127 L -15,-287.5 L -15,-252.5 L -14.9606,-251.873 L -14.8429,-251.257 L -14.6489,-250.659
 L -14.3815,-250.091 L -14.0451,-249.561 L -13.6448,-249.077 L -13.1871,-248.647 L -12.6791,-248.278 L -12.1289,-247.976
 L -11.5451,-247.745 L -10.9369,-247.589 L -10.3139,-247.51 L 10.3139,-247.51 z
M -9.75116,-249.008 L -10.2495,-249.071 L -10.7361,-249.196 L -11.2031,-249.381 L -11.6433,-249.623 L -12.0497,-249.918
 L -12.4159,-250.262 L -12.7361,-250.649 L -13.0052,-251.073 L -13.2191,-251.528 L -13.3743,-252.005 L -13.4684,-252.499
 L -13.5,-253 L -13.5,-287 L -13.4684,-287.501 L -13.3743,-287.995 L -13.2191,-288.472 L -13.0052,-288.927
 L -12.7361,-289.351 L -12.4159,-289.738 L -12.0497,-290.082 L -11.6433,-290.377 L -11.2031,-290.619 L -10.7361,-290.804
 L -10.2495,-290.929 L -9.75116,-290.992 L 9.75116,-290.992 L 10.2495,-290.929 L 10.7361,-290.804 L 11.2031,-290.619
 L 11.6433,-290.377 L 12.0497,-290.082 L 12.4159,-289.738 L 12.7361,-289.351 L 13.0052,-288.927 L 13.2191,-288.472
 L 13.3743,-287.995 L 13.4684,-287.501 L 13.5,-287 L 13.5,-253 L 13.4684,-252.499 L 13.3743,-252.005
 L 13.2191,-251.528 L 13.0052,-251.073 L 12.7361,-250.649 L 12.4159,-250.262 L 12.0497,-249.918 L 11.6433,-249.623
 L 11.2031,-249.381 L 10.7361,-249.196 L 10.2495,-249.071 L 9.75116,-249.008 z
M 10.9369,-193.589 L 11.5451,-193.745 L 12.1289,-193.976 L 12.6791,-194.278 L 13.1871,-194.647 L 13.6448,-195.077
 L 14.0451,-195.561 L 14.3815,-196.091 L 14.6489,-196.659 L 14.8429,-197.257 L 14.9606,-197.873 L 15,-198.5
 L 15,-233.5 L 14.9606,-234.127 L 14.8429,-234.743 L 14.6489,-235.341 L 14.3815,-235.909 L 14.0451,-236.439
 L 13.6448,-236.923 L 13.1871,-237.353 L 12.6791,-237.722 L 12.1289,-238.024 L 11.5451,-238.255 L 10.9369,-238.411
 L 10.3139,-238.49 L -10.3139,-238.49 L -10.9369,-238.411 L -11.5451,-238.255 L -12.1289,-238.024 L -12.6791,-237.722
 L -13.1871,-237.353 L -13.6448,-236.923 L -14.0451,-236.439 L -14.3815,-235.909 L -14.6489,-235.341 L -14.8429,-234.743
 L -14.9606,-234.127 L -15,-233.5 L -15,-198.5 L -14.9606,-197.873 L -14.8429,-197.257 L -14.6489,-196.659
 L -14.3815,-196.091 L -14.0451,-195.561 L -13.6448,-195.077 L -13.1871,-194.647 L -12.6791,-194.278 L -12.1289,-193.976
 L -11.5451,-193.745 L -10.9369,-193.589 L -10.3139,-193.51 L 10.3139,-193.51 z
M -9.69545,-195.893 L -10.0833,-195.942 L -10.4619,-196.039 L -10.8254,-196.183 L -11.168,-196.372 L -11.4842,-196.601
 L -11.7692,-196.869 L -12.0184,-197.17 L -12.2279,-197.5 L -12.3943,-197.854 L -12.5151,-198.226 L -12.5884,-198.61
 L -12.6129,-199 L -12.6129,-233 L -12.5884,-233.39 L -12.5151,-233.774 L -12.3943,-234.146 L -12.2279,-234.5
 L -12.0184,-234.83 L -11.7692,-235.131 L -11.4842,-235.399 L -11.168,-235.628 L -10.8254,-235.817 L -10.4619,-235.961
 L -10.0833,-236.058 L -9.69545,-236.107 L 9.69545,-236.107 L 10.0833,-236.058 L 10.4619,-235.961 L 10.8254,-235.817
 L 11.168,-235.628 L 11.4842,-235.399 L 11.7692,-235.131 L 12.0184,-234.83 L 12.2279,-234.5 L 12.3943,-234.146
 L 12.5151,-233.774 L 12.5884,-233.39 L 12.6129,-233 L 12.6129,-199 L 12.5884,-198.61 L 12.5151,-198.226
 L 12.3943,-197.854 L 12.2279,-197.5 L 12.0184,-197.17 L 11.7692,-196.869 L 11.4842,-196.601 L 11.168,-196.372
 L 10.8254,-196.183 L 10.4619,-196.039 L 10.0833,-195.942 L 9.69545,-195.893 z
M 10.9369,-139.589 L 11.5451,-139.745 L 12.1289,-139.976 L 12.6791,-140.278 L 13.1871,-140.647 L 13.6448,-141.077
 L 14.0451,-141.561 L 14.3815,-142.091 L 14.6489,-142.659 L 14.8429,-143.257 L 14.9606,-143.873 L 15,-144.5
 L 15,-179.5 L 14.9606,-180.127 L 14.8429,-180.743 L 14.6489,-181.341 L 14.3815,-181.909 L 14.0451,-182.439
 L 13.6448,-182.923 L 13.1871,-183.353 L 12.6791,-183.722 L 12.1289,-184.024 L 11.5451,-184.255 L 10.9369,-184.411
 L 10.3139,-184.49 L -10.3139,-184.49 L -10.9369,-184.411 L -11.5451,-184.255 L -12.1289,-184.024 L -12.6791,-183.722
 L -13.1871,-183.353 L -13.6448,-182.923 L -14.0451,-182.439 L -14.3815,-181.909 L -14.6489,-181.341 L -14.8429,-180.743
 L -14.9606,-180.127 L -15,-179.5 L -15,-144.5 L -14.9606,-143.873 L -14.8429,-143.257 L -14.6489,-142.659
 L -14.3815,-142.091 L -14.0451,-141.561 L -13.6448,-141.077 L -13.1871,-140.647 L -12.6791,-140.278 L -12.1289,-139.976
 L -11.5451,-139.745 L -10.9369,-139.589 L -10.3139,-139.51 L 10.3139,-139.51 z
M 7.36592,-174.869 L 7.09988,-174.903 L 6.84015,-174.969 L 6.59084,-175.068 L 6.35585,-175.197 L 6.1389,-175.355
 L 5.94344,-175.538 L 5.77251,-175.745 L 5.62881,-175.971 L 5.51465,-176.214 L 5.43178,-176.469 L 5.38153,-176.732
 L 5.3647,-177 L 5.38153,-177.268 L 5.43178,-177.531 L 5.51465,-177.786 L 5.62881,-178.029 L 5.77251,-178.255
 L 5.94344,-178.462 L 6.1389,-178.645 L 6.35585,-178.803 L 6.59084,-178.932 L 6.84015,-179.031 L 7.09988,-179.097
 L 7.36592,-179.131 L 7.63406,-179.131 L 7.9001,-179.097 L 8.15984,-179.031 L 8.40915,-178.932 L 8.64413,-178.803
 L 8.86108,-178.645 L 9.05655,-178.462 L 9.22748,-178.255 L 9.37117,-178.029 L 9.48534,-177.786 L 9.56821,-177.531
 L 9.61845,-177.268 L 9.63528,-177 L 9.61845,-176.732 L 9.56821,-176.469 L 9.48534,-176.214 L 9.37117,-175.971
 L 9.22748,-175.745 L 9.05655,-175.538 L 8.86108,-175.355 L 8.64413,-175.197 L 8.40915,-175.068 L 8.15984,-174.969
 L 7.9001,-174.903 L 7.63406,-174.869 z
M -7.63406,-174.869 L -7.9001,-174.903 L -8.15984,-174.969 L -8.40915,-175.068 L -8.64413,-175.197 L -8.86108,-175.355
 L -9.05655,-175.538 L -9.22748,-175.745 L -9.37117,-175.971 L -9.48534,-176.214 L -9.56821,-176.469 L -9.61845,-176.732
 L -9.63528,-177 L -9.61845,-177.268 L -9.56821,-177.531 L -9.48534,-177.786 L -9.37117,-178.029 L -9.22748,-178.255
 L -9.05655,-178.462 L -8.86108,-178.645 L -8.64413,-178.803 L -8.40915,-178.932 L -8.15984,-179.031 L -7.9001,-179.097
 L -7.63406,-179.131 L -7.36592,-179.131 L -7.09988,-179.097 L -6.84015,-179.031 L -6.59084,-178.932 L -6.35585,-178.803
 L -6.1389,-178.645 L -5.94344,-178.462 L -5.77251,-178.255 L -5.62881,-178.029 L -5.51465,-177.786 L -5.43178,-177.531
 L -5.38153,-177.268 L -5.3647,-177 L -5.38153,-176.732 L -5.43178,-176.469 L -5.51465,-176.214 L -5.62881,-175.971
 L -5.77251,-175.745 L -5.94344,-175.538 L -6.1389,-175.355 L -6.35585,-175.197 L -6.59084,-175.068 L -6.84015,-174.969
 L -7.09988,-174.903 L -7.36592,-174.869 z
M 7.36592,-144.869 L 7.09988,-144.903 L 6.84015,-144.969 L 6.59084,-145.068 L 6.35585,-145.197 L 6.1389,-145.355
 L 5.94344,-145.538 L 5.77251,-145.745 L 5.62881,-145.971 L 5.51465,-146.214 L 5.43178,-146.469 L 5.38153,-146.732
 L 5.3647,-147 L 5.38153,-147.268 L 5.43178,-147.531 L 5.51465,-147.786 L 5.62881,-148.029 L 5.77251,-148.255
 L 5.94344,-148.462 L 6.1389,-148.645 L 6.35585,-148.803 L 6.59084,-148.932 L 6.84015,-149.031 L 7.09988,-149.097
 L 7.36592,-149.131 L 7.63406,-149.131 L 7.9001,-149.097 L 8.15984,-149.031 L 8.40915,-148.932 L 8.64413,-148.803
 L 8.86108,-148.645 L 9.05655,-148.462 L 9.22748,-148.255 L 9.37117,-148.029 L 9.48534,-147.786 L 9.56821,-147.531
 L 9.61845,-147.268 L 9.63528,-147 L 9.61845,-146.732 L 9.56821,-146.469 L 9.48534,-146.214 L 9.37117,-145.971
 L 9.22748,-145.745 L 9.05655,-145.538 L 8.86108,-145.355 L 8.64413,-145.197 L 8.40915,-145.068 L 8.15984,-144.969
 L 7.9001,-144.903 L 7.63406,-144.869 z
M -7.63406,-144.869 L -7.9001,-144.903 L -8.15984,-144.969 L -8.40915,-145.068 L -8.64413,-145.197 L -8.86108,-145.355
 L -9.05655,-145.538 L -9.22748,-145.745 L -9.37117,-145.971 L -9.48534,-146.214 L -9.56821,-146.469 L -9.61845,-146.732
 L -9.63528,-147 L -9.61845,-147.268 L -9.56821,-147.531 L -9.48534,-147.786 L -9.37117,-148.029 L -9.22748,-148.255
 L -9.05655,-148.462 L -8.86108,-148.645 L -8.64413,-148.803 L -8.40915,-148.932 L -8.15984,-149.031 L -7.9001,-149.097
 L -7.63406,-149.131 L -7.36592,-149.131 L -7.09988,-149.097 L -6.84015,-149.031 L -6.59084,-148.932 L -6.35585,-148.803
 L -6.1389,-148.645 L -5.94344,-148.462 L -5.77251,-148.255 L -5.62881,-148.029 L -5.51465,-147.786 L -5.43178,-147.531
 L -5.38153,-147.268 L -5.3647,-147 L -5.38153,-146.732 L -5.43178,-146.469 L -5.51465,-146.214 L -5.62881,-145.971
 L -5.77251,-145.745 L -5.94344,-145.538 L -6.1389,-145.355 L -6.35585,-145.197 L -6.59084,-145.068 L -6.84015,-144.969
 L -7.09988,-144.903 L -7.36592,-144.869 z
" stroke="black" fill="lightgray" stroke-width="0.5"/>
</svg>
