  0
SECTION
  2
BLOCKS
  0
ENDSEC
  0
SECTION
  2
ENTITIES
  0
LINE
  8
0
 10
-51
 20
113.941
 11
-50.6871
 21
113.647
  0
LINE
  8
0
 10
-50.6871
 20
113.647
 11
-50.1791
 21
113.278
  0
LINE
  8
0
 10
-50.1791
 20
113.278
 11
-49.6289
 21
112.976
  0
LINE
  8
0
 10
-49.6289
 20
112.976
 11
-49.0451
 21
112.745
  0
LINE
  8
0
 10
-49.0451
 20
112.745
 11
-48.4369
 21
112.589
  0
LINE
  8
0
 10
-48.4369
 20
112.589
 11
-47.8139
 21
112.51
  0
LINE
  8
0
 10
-47.8139
 20
112.51
 11
47.8139
 21
112.51
  0
LINE
  8
0
 10
47.8139
 20
112.51
 11
48.4369
 21
112.589
  0
LINE
  8
0
 10
48.4369
 20
112.589
 11
49.0451
 21
112.745
  0
LINE
  8
0
 10
49.0451
 20
112.745
 11
49.6289
 21
112.976
  0
LINE
  8
0
 10
49.6289
 20
112.976
 11
50.1791
 21
113.278
  0
LINE
  8
0
 10
50.1791
 20
113.278
 11
50.6871
 21
113.647
  0
LINE
  8
0
 10
50.6871
 20
113.647
 11
51.1448
 21
114.077
  0
LINE
  8
0
 10
51.1448
 20
114.077
 11
51.5451
 21
114.561
  0
LINE
  8
0
 10
51.5451
 20
114.561
 11
51.8815
 21
115.091
  0
LINE
  8
0
 10
51.8815
 20
115.091
 11
52.1489
 21
115.659
  0
LINE
  8
0
 10
52.1489
 20
115.659
 11
52.3429
 21
116.257
  0
LINE
  8
0
 10
52.3429
 20
116.257
 11
52.4606
 21
116.873
  0
LINE
  8
0
 10
52.4606
 20
116.873
 11
52.5
 21
117.5
  0
LINE
  8
0
 10
52.5
 20
117.5
 11
52.5
 21
122.5
  0
LINE
  8
0
 10
52.5
 20
122.5
 11
52.4606
 21
123.127
  0
LINE
  8
0
 10
52.4606
 20
123.127
 11
52.3429
 21
123.743
  0
LINE
  8
0
 10
52.3429
 20
123.743
 11
52.1489
 21
124.341
  0
LINE
  8
0
 10
52.1489
 20
124.341
 11
51.8815
 21
124.909
  0
LINE
  8
0
 10
51.8815
 20
124.909
 11
51.5451
 21
125.439
  0
LINE
  8
0
 10
51.5451
 20
125.439
 11
51.1448
 21
125.923
  0
LINE
  8
0
 10
51.1448
 20
125.923
 11
50.6871
 21
126.353
  0
LINE
  8
0
 10
50.6871
 20
126.353
 11
50.1791
 21
126.722
  0
LINE
  8
0
 10
50.1791
 20
126.722
 11
49.6289
 21
127.024
  0
LINE
  8
0
 10
49.6289
 20
127.024
 11
49.0451
 21
127.255
  0
LINE
  8
0
 10
49.0451
 20
127.255
 11
48.4369
 21
127.411
  0
LINE
  8
0
 10
48.4369
 20
127.411
 11
47.8139
 21
127.49
  0
LINE
  8
0
 10
47.8139
 20
127.49
 11
-47.8139
 21
127.49
  0
LINE
  8
0
 10
-47.8139
 20
127.49
 11
-48.4369
 21
127.411
  0
LINE
  8
0
 10
-48.4369
 20
127.411
 11
-49.0451
 21
127.255
  0
LINE
  8
0
 10
-49.0451
 20
127.255
 11
-49.6289
 21
127.024
  0
LINE
  8
0
 10
-49.6289
 20
127.024
 11
-50.1791
 21
126.722
  0
LINE
  8
0
 10
-50.1791
 20
126.722
 11
-50.6871
 21
126.353
  0
LINE
  8
0
 10
-50.6871
 20
126.353
 11
-51
 21
126.059
  0
LINE
  8
0
 10
-51
 20
126.059
 11
-51
 21
127.49
  0
LINE
  8
0
 10
-51
 20
127.49
 11
-54
 21
127.49
  0
LINE
  8
0
 10
-54
 20
127.49
 11
-54
 21
112.51
  0
LINE
  8
0
 10
-54
 20
112.51
 11
-51
 21
112.51
  0
LINE
  8
0
 10
-51
 20
112.51
 11
-51
 21
113.941
  0
LINE
  8
0
 10
-47.2512
 20
114.008
 11
-47.7495
 21
114.071
  0
LINE
  8
0
 10
-47.7495
 20
114.071
 11
-48.2361
 21
114.196
  0
LINE
  8
0
 10
-48.2361
 20
114.196
 11
-48.7031
 21
114.381
  0
LINE
  8
0
 10
-48.7031
 20
114.381
 11
-49.1433
 21
114.623
  0
LINE
  8
0
 10
-49.1433
 20
114.623
 11
-49.5497
 21
114.918
  0
LINE
  8
0
 10
-49.5497
 20
114.918
 11
-49.9159
 21
115.262
  0
LINE
  8
0
 10
-49.9159
 20
115.262
 11
-50.2361
 21
115.649
  0
LINE
  8
0
 10
-50.2361
 20
115.649
 11
-50.5052
 21
116.073
  0
LINE
  8
0
 10
-50.5052
 20
116.073
 11
-50.7191
 21
116.528
  0
LINE
  8
0
 10
-50.7191
 20
116.528
 11
-50.8743
 21
117.005
  0
LINE
  8
0
 10
-50.8743
 20
117.005
 11
-50.9685
 21
117.499
  0
LINE
  8
0
 10
-50.9685
 20
117.499
 11
-51
 21
118
  0
LINE
  8
0
 10
-51
 20
118
 11
-51
 21
122
  0
LINE
  8
0
 10
-51
 20
122
 11
-50.9685
 21
122.501
  0
LINE
  8
0
 10
-50.9685
 20
122.501
 11
-50.8743
 21
122.995
  0
LINE
  8
0
 10
-50.8743
 20
122.995
 11
-50.7191
 21
123.472
  0
LINE
  8
0
 10
-50.7191
 20
123.472
 11
-50.5052
 21
123.927
  0
LINE
  8
0
 10
-50.5052
 20
123.927
 11
-50.2361
 21
124.351
  0
LINE
  8
0
 10
-50.2361
 20
124.351
 11
-49.9159
 21
124.738
  0
LINE
  8
0
 10
-49.9159
 20
124.738
 11
-49.5497
 21
125.082
  0
LINE
  8
0
 10
-49.5497
 20
125.082
 11
-49.1433
 21
125.377
  0
LINE
  8
0
 10
-49.1433
 20
125.377
 11
-48.7031
 21
125.619
  0
LINE
  8
0
 10
-48.7031
 20
125.619
 11
-48.2361
 21
125.804
  0
LINE
  8
0
 10
-48.2361
 20
125.804
 11
-47.7495
 21
125.929
  0
LINE
  8
0
 10
-47.7495
 20
125.929
 11
-47.2512
 21
125.992
  0
LINE
  8
0
 10
-47.2512
 20
125.992
 11
47.2512
 21
125.992
  0
LINE
  8
0
 10
47.2512
 20
125.992
 11
47.7495
 21
125.929
  0
LINE
  8
0
 10
47.7495
 20
125.929
 11
48.2361
 21
125.804
  0
LINE
  8
0
 10
48.2361
 20
125.804
 11
48.7031
 21
125.619
  0
LINE
  8
0
 10
48.7031
 20
125.619
 11
49.1433
 21
125.377
  0
LINE
  8
0
 10
49.1433
 20
125.377
 11
49.5497
 21
125.082
  0
LINE
  8
0
 10
49.5497
 20
125.082
 11
49.9159
 21
124.738
  0
LINE
  8
0
 10
49.9159
 20
124.738
 11
50.2361
 21
124.351
  0
LINE
  8
0
 10
50.2361
 20
124.351
 11
50.5052
 21
123.927
  0
LINE
  8
0
 10
50.5052
 20
123.927
 11
50.7191
 21
123.472
  0
LINE
  8
0
 10
50.7191
 20
123.472
 11
50.8743
 21
122.995
  0
LINE
  8
0
 10
50.8743
 20
122.995
 11
50.9685
 21
122.501
  0
LINE
  8
0
 10
50.9685
 20
122.501
 11
51
 21
122
  0
LINE
  8
0
 10
51
 20
122
 11
51
 21
118
  0
LINE
  8
0
 10
51
 20
118
 11
50.9685
 21
117.499
  0
LINE
  8
0
 10
50.9685
 20
117.499
 11
50.8743
 21
117.005
  0
LINE
  8
0
 10
50.8743
 20
117.005
 11
50.7191
 21
116.528
  0
LINE
  8
0
 10
50.7191
 20
116.528
 11
50.5052
 21
116.073
  0
LINE
  8
0
 10
50.5052
 20
116.073
 11
50.2361
 21
115.649
  0
LINE
  8
0
 10
50.2361
 20
115.649
 11
49.9159
 21
115.262
  0
LINE
  8
0
 10
49.9159
 20
115.262
 11
49.5497
 21
114.918
  0
LINE
  8
0
 10
49.5497
 20
114.918
 11
49.1433
 21
114.623
  0
LINE
  8
0
 10
49.1433
 20
114.623
 11
48.7031
 21
114.381
  0
LINE
  8
0
 10
48.7031
 20
114.381
 11
48.2361
 21
114.196
  0
LINE
  8
0
 10
48.2361
 20
114.196
 11
47.7495
 21
114.071
  0
LINE
  8
0
 10
47.7495
 20
114.071
 11
47.2512
 21
114.008
  0
LINE
  8
0
 10
47.2512
 20
114.008
 11
-47.2512
 21
114.008
  0
LINE
  8
0
 10
48.4369
 20
88.5886
 11
49.0451
 21
88.7447
  0
LINE
  8
0
 10
49.0451
 20
88.7447
 11
49.6289
 21
88.9759
  0
LINE
  8
0
 10
49.6289
 20
88.9759
 11
50.1791
 21
89.2784
  0
LINE
  8
0
 10
50.1791
 20
89.2784
 11
50.6871
 21
89.6474
  0
LINE
  8
0
 10
50.6871
 20
89.6474
 11
51.1448
 21
90.0773
  0
LINE
  8
0
 10
51.1448
 20
90.0773
 11
51.5451
 21
90.5611
  0
LINE
  8
0
 10
51.5451
 20
90.5611
 11
51.8815
 21
91.0912
  0
LINE
  8
0
 10
51.8815
 20
91.0912
 11
52.1489
 21
91.6594
  0
LINE
  8
0
 10
52.1489
 20
91.6594
 11
52.3429
 21
92.2566
  0
LINE
  8
0
 10
52.3429
 20
92.2566
 11
52.4606
 21
92.8733
  0
LINE
  8
0
 10
52.4606
 20
92.8733
 11
52.5
 21
93.5
  0
LINE
  8
0
 10
52.5
 20
93.5
 11
52.5
 21
98.5
  0
LINE
  8
0
 10
52.5
 20
98.5
 11
52.4606
 21
99.1267
  0
LINE
  8
0
 10
52.4606
 20
99.1267
 11
52.3429
 21
99.7434
  0
LINE
  8
0
 10
52.3429
 20
99.7434
 11
52.1489
 21
100.341
  0
LINE
  8
0
 10
52.1489
 20
100.341
 11
51.8815
 21
100.909
  0
LINE
  8
0
 10
51.8815
 20
100.909
 11
51.5451
 21
101.439
  0
LINE
  8
0
 10
51.5451
 20
101.439
 11
51.1448
 21
101.923
  0
LINE
  8
0
 10
51.1448
 20
101.923
 11
50.6871
 21
102.353
  0
LINE
  8
0
 10
50.6871
 20
102.353
 11
50.1791
 21
102.722
  0
LINE
  8
0
 10
50.1791
 20
102.722
 11
49.6289
 21
103.024
  0
LINE
  8
0
 10
49.6289
 20
103.024
 11
49.0451
 21
103.255
  0
LINE
  8
0
 10
49.0451
 20
103.255
 11
48.4369
 21
103.411
  0
LINE
  8
0
 10
48.4369
 20
103.411
 11
47.8139
 21
103.49
  0
LINE
  8
0
 10
47.8139
 20
103.49
 11
-47.8139
 21
103.49
  0
LINE
  8
0
 10
-47.8139
 20
103.49
 11
-48.4369
 21
103.411
  0
LINE
  8
0
 10
-48.4369
 20
103.411
 11
-49.0451
 21
103.255
  0
LINE
  8
0
 10
-49.0451
 20
103.255
 11
-49.6289
 21
103.024
  0
LINE
  8
0
 10
-49.6289
 20
103.024
 11
-50.1791
 21
102.722
  0
LINE
  8
0
 10
-50.1791
 20
102.722
 11
-50.6871
 21
102.353
  0
LINE
  8
0
 10
-50.6871
 20
102.353
 11
-51
 21
102.059
  0
LINE
  8
0
 10
-51
 20
102.059
 11
-51
 21
103.479
  0
LINE
  8
0
 10
-51
 20
103.479
 11
-54
 21
103.479
  0
LINE
  8
0
 10
-54
 20
103.479
 11
-54
 21
88.5208
  0
LINE
  8
0
 10
-54
 20
88.5208
 11
-51
 21
88.5208
  0
LINE
  8
0
 10
-51
 20
88.5208
 11
-51
 21
89.9413
  0
LINE
  8
0
 10
-51
 20
89.9413
 11
-50.6871
 21
89.6474
  0
LINE
  8
0
 10
-50.6871
 20
89.6474
 11
-50.1791
 21
89.2784
  0
LINE
  8
0
 10
-50.1791
 20
89.2784
 11
-49.6289
 21
88.9759
  0
LINE
  8
0
 10
-49.6289
 20
88.9759
 11
-49.0451
 21
88.7447
  0
LINE
  8
0
 10
-49.0451
 20
88.7447
 11
-48.4369
 21
88.5886
  0
LINE
  8
0
 10
-48.4369
 20
88.5886
 11
-47.8139
 21
88.5099
  0
LINE
  8
0
 10
-47.8139
 20
88.5099
 11
47.8139
 21
88.5099
  0
LINE
  8
0
 10
47.8139
 20
88.5099
 11
48.4369
 21
88.5886
  0
LINE
  8
0
 10
-47.1954
 20
90.8932
 11
-47.5833
 21
90.9422
  0
LINE
  8
0
 10
-47.5833
 20
90.9422
 11
-47.9619
 21
91.0394
  0
LINE
  8
0
 10
-47.9619
 20
91.0394
 11
-48.3254
 21
91.1833
  0
LINE
  8
0
 10
-48.3254
 20
91.1833
 11
-48.668
 21
91.3717
  0
LINE
  8
0
 10
-48.668
 20
91.3717
 11
-48.9842
 21
91.6015
  0
LINE
  8
0
 10
-48.9842
 20
91.6015
 11
-49.2692
 21
91.8691
  0
LINE
  8
0
 10
-49.2692
 20
91.8691
 11
-49.5184
 21
92.1703
  0
LINE
  8
0
 10
-49.5184
 20
92.1703
 11
-49.7279
 21
92.5004
  0
LINE
  8
0
 10
-49.7279
 20
92.5004
 11
-49.8943
 21
92.8541
  0
LINE
  8
0
 10
-49.8943
 20
92.8541
 11
-50.0151
 21
93.2259
  0
LINE
  8
0
 10
-50.0151
 20
93.2259
 11
-50.0884
 21
93.6098
  0
LINE
  8
0
 10
-50.0884
 20
93.6098
 11
-50.1129
 21
94
  0
LINE
  8
0
 10
-50.1129
 20
94
 11
-50.1129
 21
98
  0
LINE
  8
0
 10
-50.1129
 20
98
 11
-50.0884
 21
98.3902
  0
LINE
  8
0
 10
-50.0884
 20
98.3902
 11
-50.0151
 21
98.7741
  0
LINE
  8
0
 10
-50.0151
 20
98.7741
 11
-49.8943
 21
99.1459
  0
LINE
  8
0
 10
-49.8943
 20
99.1459
 11
-49.7279
 21
99.4996
  0
LINE
  8
0
 10
-49.7279
 20
99.4996
 11
-49.5184
 21
99.8297
  0
LINE
  8
0
 10
-49.5184
 20
99.8297
 11
-49.2692
 21
100.131
  0
LINE
  8
0
 10
-49.2692
 20
100.131
 11
-48.9842
 21
100.399
  0
LINE
  8
0
 10
-48.9842
 20
100.399
 11
-48.668
 21
100.628
  0
LINE
  8
0
 10
-48.668
 20
100.628
 11
-48.3254
 21
100.817
  0
LINE
  8
0
 10
-48.3254
 20
100.817
 11
-47.9619
 21
100.961
  0
LINE
  8
0
 10
-47.9619
 20
100.961
 11
-47.5833
 21
101.058
  0
LINE
  8
0
 10
-47.5833
 20
101.058
 11
-47.1954
 21
101.107
  0
LINE
  8
0
 10
-47.1954
 20
101.107
 11
47.1954
 21
101.107
  0
LINE
  8
0
 10
47.1954
 20
101.107
 11
47.5833
 21
101.058
  0
LINE
  8
0
 10
47.5833
 20
101.058
 11
47.9619
 21
100.961
  0
LINE
  8
0
 10
47.9619
 20
100.961
 11
48.3254
 21
100.817
  0
LINE
  8
0
 10
48.3254
 20
100.817
 11
48.668
 21
100.628
  0
LINE
  8
0
 10
48.668
 20
100.628
 11
48.9842
 21
100.399
  0
LINE
  8
0
 10
48.9842
 20
100.399
 11
49.2692
 21
100.131
  0
LINE
  8
0
 10
49.2692
 20
100.131
 11
49.5184
 21
99.8297
  0
LINE
  8
0
 10
49.5184
 20
99.8297
 11
49.7279
 21
99.4996
  0
LINE
  8
0
 10
49.7279
 20
99.4996
 11
49.8943
 21
99.1459
  0
LINE
  8
0
 10
49.8943
 20
99.1459
 11
50.0151
 21
98.7741
  0
LINE
  8
0
 10
50.0151
 20
98.7741
 11
50.0884
 21
98.3902
  0
LINE
  8
0
 10
50.0884
 20
98.3902
 11
50.1129
 21
98
  0
LINE
  8
0
 10
50.1129
 20
98
 11
50.1129
 21
94
  0
LINE
  8
0
 10
50.1129
 20
94
 11
50.0884
 21
93.6098
  0
LINE
  8
0
 10
50.0884
 20
93.6098
 11
50.0151
 21
93.2259
  0
LINE
  8
0
 10
50.0151
 20
93.2259
 11
49.8943
 21
92.8541
  0
LINE
  8
0
 10
49.8943
 20
92.8541
 11
49.7279
 21
92.5004
  0
LINE
  8
0
 10
49.7279
 20
92.5004
 11
49.5184
 21
92.1703
  0
LINE
  8
0
 10
49.5184
 20
92.1703
 11
49.2692
 21
91.8691
  0
LINE
  8
0
 10
49.2692
 20
91.8691
 11
48.9842
 21
91.6015
  0
LINE
  8
0
 10
48.9842
 20
91.6015
 11
48.668
 21
91.3717
  0
LINE
  8
0
 10
48.668
 20
91.3717
 11
48.3254
 21
91.1833
  0
LINE
  8
0
 10
48.3254
 20
91.1833
 11
47.9619
 21
91.0394
  0
LINE
  8
0
 10
47.9619
 20
91.0394
 11
47.5833
 21
90.9422
  0
LINE
  8
0
 10
47.5833
 20
90.9422
 11
47.1954
 21
90.8932
  0
LINE
  8
0
 10
47.1954
 20
90.8932
 11
-47.1954
 21
90.8932
  0
LINE
  8
0
 10
48.4369
 20
64.5886
 11
49.0451
 21
64.7447
  0
LINE
  8
0
 10
49.0451
 20
64.7447
 11
49.6289
 21
64.9759
  0
LINE
  8
0
 10
49.6289
 20
64.9759
 11
50.1791
 21
65.2784
  0
LINE
  8
0
 10
50.1791
 20
65.2784
 11
50.6871
 21
65.6474
  0
LINE
  8
0
 10
50.6871
 20
65.6474
 11
51.1448
 21
66.0773
  0
LINE
  8
0
 10
51.1448
 20
66.0773
 11
51.5451
 21
66.5611
  0
LINE
  8
0
 10
51.5451
 20
66.5611
 11
51.8815
 21
67.0912
  0
LINE
  8
0
 10
51.8815
 20
67.0912
 11
52.1489
 21
67.6594
  0
LINE
  8
0
 10
52.1489
 20
67.6594
 11
52.3429
 21
68.2566
  0
LINE
  8
0
 10
52.3429
 20
68.2566
 11
52.4606
 21
68.8733
  0
LINE
  8
0
 10
52.4606
 20
68.8733
 11
52.5
 21
69.5
  0
LINE
  8
0
 10
52.5
 20
69.5
 11
52.5
 21
74.5
  0
LINE
  8
0
 10
52.5
 20
74.5
 11
52.4606
 21
75.1267
  0
LINE
  8
0
 10
52.4606
 20
75.1267
 11
52.3429
 21
75.7434
  0
LINE
  8
0
 10
52.3429
 20
75.7434
 11
52.1489
 21
76.3406
  0
LINE
  8
0
 10
52.1489
 20
76.3406
 11
51.8815
 21
76.9088
  0
LINE
  8
0
 10
51.8815
 20
76.9088
 11
51.5451
 21
77.4389
  0
LINE
  8
0
 10
51.5451
 20
77.4389
 11
51.1448
 21
77.9227
  0
LINE
  8
0
 10
51.1448
 20
77.9227
 11
50.6871
 21
78.3526
  0
LINE
  8
0
 10
50.6871
 20
78.3526
 11
50.1791
 21
78.7216
  0
LINE
  8
0
 10
50.1791
 20
78.7216
 11
49.6289
 21
79.0241
  0
LINE
  8
0
 10
49.6289
 20
79.0241
 11
49.0451
 21
79.2553
  0
LINE
  8
0
 10
49.0451
 20
79.2553
 11
48.4369
 21
79.4114
  0
LINE
  8
0
 10
48.4369
 20
79.4114
 11
47.8139
 21
79.4901
  0
LINE
  8
0
 10
47.8139
 20
79.4901
 11
-47.8139
 21
79.4901
  0
LINE
  8
0
 10
-47.8139
 20
79.4901
 11
-48.4369
 21
79.4114
  0
LINE
  8
0
 10
-48.4369
 20
79.4114
 11
-49.0451
 21
79.2553
  0
LINE
  8
0
 10
-49.0451
 20
79.2553
 11
-49.6289
 21
79.0241
  0
LINE
  8
0
 10
-49.6289
 20
79.0241
 11
-50.1791
 21
78.7216
  0
LINE
  8
0
 10
-50.1791
 20
78.7216
 11
-50.6871
 21
78.3526
  0
LINE
  8
0
 10
-50.6871
 20
78.3526
 11
-51
 21
78.0587
  0
LINE
  8
0
 10
-51
 20
78.0587
 11
-51
 21
78.1526
  0
LINE
  8
0
 10
-51
 20
78.1526
 11
-54
 21
78.1526
  0
LINE
  8
0
 10
-54
 20
78.1526
 11
-54
 21
65.8474
  0
LINE
  8
0
 10
-54
 20
65.8474
 11
-51
 21
65.8474
  0
LINE
  8
0
 10
-51
 20
65.8474
 11
-51
 21
65.9413
  0
LINE
  8
0
 10
-51
 20
65.9413
 11
-50.6871
 21
65.6474
  0
LINE
  8
0
 10
-50.6871
 20
65.6474
 11
-50.1791
 21
65.2784
  0
LINE
  8
0
 10
-50.1791
 20
65.2784
 11
-49.6289
 21
64.9759
  0
LINE
  8
0
 10
-49.6289
 20
64.9759
 11
-49.0451
 21
64.7447
  0
LINE
  8
0
 10
-49.0451
 20
64.7447
 11
-48.4369
 21
64.5886
  0
LINE
  8
0
 10
-48.4369
 20
64.5886
 11
-47.8139
 21
64.5099
  0
LINE
  8
0
 10
-47.8139
 20
64.5099
 11
47.8139
 21
64.5099
  0
LINE
  8
0
 10
47.8139
 20
64.5099
 11
48.4369
 21
64.5886
  0
LINE
  8
0
 10
44.8659
 20
69.8689
 11
44.5999
 21
69.9025
  0
LINE
  8
0
 10
44.5999
 20
69.9025
 11
44.3401
 21
69.9692
  0
LINE
  8
0
 10
44.3401
 20
69.9692
 11
44.0908
 21
70.0679
  0
LINE
  8
0
 10
44.0908
 20
70.0679
 11
43.8559
 21
70.1971
  0
LINE
  8
0
 10
43.8559
 20
70.1971
 11
43.6389
 21
70.3547
  0
LINE
  8
0
 10
43.6389
 20
70.3547
 11
43.4434
 21
70.5383
  0
LINE
  8
0
 10
43.4434
 20
70.5383
 11
43.2725
 21
70.7449
  0
LINE
  8
0
 10
43.2725
 20
70.7449
 11
43.1288
 21
70.9713
  0
LINE
  8
0
 10
43.1288
 20
70.9713
 11
43.0146
 21
71.214
  0
LINE
  8
0
 10
43.0146
 20
71.214
 11
42.9318
 21
71.469
  0
LINE
  8
0
 10
42.9318
 20
71.469
 11
42.8815
 21
71.7324
  0
LINE
  8
0
 10
42.8815
 20
71.7324
 11
42.8647
 21
72
  0
LINE
  8
0
 10
42.8647
 20
72
 11
42.8815
 21
72.2676
  0
LINE
  8
0
 10
42.8815
 20
72.2676
 11
42.9318
 21
72.531
  0
LINE
  8
0
 10
42.9318
 20
72.531
 11
43.0146
 21
72.786
  0
LINE
  8
0
 10
43.0146
 20
72.786
 11
43.1288
 21
73.0287
  0
LINE
  8
0
 10
43.1288
 20
73.0287
 11
43.2725
 21
73.2551
  0
LINE
  8
0
 10
43.2725
 20
73.2551
 11
43.4434
 21
73.4617
  0
LINE
  8
0
 10
43.4434
 20
73.4617
 11
43.6389
 21
73.6453
  0
LINE
  8
0
 10
43.6389
 20
73.6453
 11
43.8559
 21
73.8029
  0
LINE
  8
0
 10
43.8559
 20
73.8029
 11
44.0908
 21
73.9321
  0
LINE
  8
0
 10
44.0908
 20
73.9321
 11
44.3401
 21
74.0308
  0
LINE
  8
0
 10
44.3401
 20
74.0308
 11
44.5999
 21
74.0975
  0
LINE
  8
0
 10
44.5999
 20
74.0975
 11
44.8659
 21
74.1311
  0
LINE
  8
0
 10
44.8659
 20
74.1311
 11
45.1341
 21
74.1311
  0
LINE
  8
0
 10
45.1341
 20
74.1311
 11
45.4001
 21
74.0975
  0
LINE
  8
0
 10
45.4001
 20
74.0975
 11
45.6598
 21
74.0308
  0
LINE
  8
0
 10
45.6598
 20
74.0308
 11
45.9092
 21
73.9321
  0
LINE
  8
0
 10
45.9092
 20
73.9321
 11
46.1441
 21
73.8029
  0
LINE
  8
0
 10
46.1441
 20
73.8029
 11
46.3611
 21
73.6453
  0
LINE
  8
0
 10
46.3611
 20
73.6453
 11
46.5565
 21
73.4617
  0
LINE
  8
0
 10
46.5565
 20
73.4617
 11
46.7275
 21
73.2551
  0
LINE
  8
0
 10
46.7275
 20
73.2551
 11
46.8712
 21
73.0287
  0
LINE
  8
0
 10
46.8712
 20
73.0287
 11
46.9853
 21
72.786
  0
LINE
  8
0
 10
46.9853
 20
72.786
 11
47.0682
 21
72.531
  0
LINE
  8
0
 10
47.0682
 20
72.531
 11
47.1185
 21
72.2676
  0
LINE
  8
0
 10
47.1185
 20
72.2676
 11
47.1353
 21
72
  0
LINE
  8
0
 10
47.1353
 20
72
 11
47.1185
 21
71.7324
  0
LINE
  8
0
 10
47.1185
 20
71.7324
 11
47.0682
 21
71.469
  0
LINE
  8
0
 10
47.0682
 20
71.469
 11
46.9853
 21
71.214
  0
LINE
  8
0
 10
46.9853
 20
71.214
 11
46.8712
 21
70.9713
  0
LINE
  8
0
 10
46.8712
 20
70.9713
 11
46.7275
 21
70.7449
  0
LINE
  8
0
 10
46.7275
 20
70.7449
 11
46.5565
 21
70.5383
  0
LINE
  8
0
 10
46.5565
 20
70.5383
 11
46.3611
 21
70.3547
  0
LINE
  8
0
 10
46.3611
 20
70.3547
 11
46.1441
 21
70.1971
  0
LINE
  8
0
 10
46.1441
 20
70.1971
 11
45.9092
 21
70.0679
  0
LINE
  8
0
 10
45.9092
 20
70.0679
 11
45.6598
 21
69.9692
  0
LINE
  8
0
 10
45.6598
 20
69.9692
 11
45.4001
 21
69.9025
  0
LINE
  8
0
 10
45.4001
 20
69.9025
 11
45.1341
 21
69.8689
  0
LINE
  8
0
 10
45.1341
 20
69.8689
 11
44.8659
 21
69.8689
  0
LINE
  8
0
 10
-45.1341
 20
69.8689
 11
-45.4001
 21
69.9025
  0
LINE
  8
0
 10
-45.4001
 20
69.9025
 11
-45.6598
 21
69.9692
  0
LINE
  8
0
 10
-45.6598
 20
69.9692
 11
-45.9092
 21
70.0679
  0
LINE
  8
0
 10
-45.9092
 20
70.0679
 11
-46.1441
 21
70.1971
  0
LINE
  8
0
 10
-46.1441
 20
70.1971
 11
-46.3611
 21
70.3547
  0
LINE
  8
0
 10
-46.3611
 20
70.3547
 11
-46.5565
 21
70.5383
  0
LINE
  8
0
 10
-46.5565
 20
70.5383
 11
-46.7275
 21
70.7449
  0
LINE
  8
0
 10
-46.7275
 20
70.7449
 11
-46.8712
 21
70.9713
  0
LINE
  8
0
 10
-46.8712
 20
70.9713
 11
-46.9853
 21
71.214
  0
LINE
  8
0
 10
-46.9853
 20
71.214
 11
-47.0682
 21
71.469
  0
LINE
  8
0
 10
-47.0682
 20
71.469
 11
-47.1185
 21
71.7324
  0
LINE
  8
0
 10
-47.1185
 20
71.7324
 11
-47.1353
 21
72
  0
LINE
  8
0
 10
-47.1353
 20
72
 11
-47.1185
 21
72.2676
  0
LINE
  8
0
 10
-47.1185
 20
72.2676
 11
-47.0682
 21
72.531
  0
LINE
  8
0
 10
-47.0682
 20
72.531
 11
-46.9853
 21
72.786
  0
LINE
  8
0
 10
-46.9853
 20
72.786
 11
-46.8712
 21
73.0287
  0
LINE
  8
0
 10
-46.8712
 20
73.0287
 11
-46.7275
 21
73.2551
  0
LINE
  8
0
 10
-46.7275
 20
73.2551
 11
-46.5565
 21
73.4617
  0
LINE
  8
0
 10
-46.5565
 20
73.4617
 11
-46.3611
 21
73.6453
  0
LINE
  8
0
 10
-46.3611
 20
73.6453
 11
-46.1441
 21
73.8029
  0
LINE
  8
0
 10
-46.1441
 20
73.8029
 11
-45.9092
 21
73.9321
  0
LINE
  8
0
 10
-45.9092
 20
73.9321
 11
-45.6598
 21
74.0308
  0
LINE
  8
0
 10
-45.6598
 20
74.0308
 11
-45.4001
 21
74.0975
  0
LINE
  8
0
 10
-45.4001
 20
74.0975
 11
-45.1341
 21
74.1311
  0
LINE
  8
0
 10
-45.1341
 20
74.1311
 11
-44.8659
 21
74.1311
  0
LINE
  8
0
 10
-44.8659
 20
74.1311
 11
-44.5999
 21
74.0975
  0
LINE
  8
0
 10
-44.5999
 20
74.0975
 11
-44.3401
 21
74.0308
  0
LINE
  8
0
 10
-44.3401
 20
74.0308
 11
-44.0908
 21
73.9321
  0
LINE
  8
0
 10
-44.0908
 20
73.9321
 11
-43.8559
 21
73.8029
  0
LINE
  8
0
 10
-43.8559
 20
73.8029
 11
-43.6389
 21
73.6453
  0
LINE
  8
0
 10
-43.6389
 20
73.6453
 11
-43.4434
 21
73.4617
  0
LINE
  8
0
 10
-43.4434
 20
73.4617
 11
-43.2725
 21
73.2551
  0
LINE
  8
0
 10
-43.2725
 20
73.2551
 11
-43.1288
 21
73.0287
  0
LINE
  8
0
 10
-43.1288
 20
73.0287
 11
-43.0146
 21
72.786
  0
LINE
  8
0
 10
-43.0146
 20
72.786
 11
-42.9318
 21
72.531
  0
LINE
  8
0
 10
-42.9318
 20
72.531
 11
-42.8815
 21
72.2676
  0
LINE
  8
0
 10
-42.8815
 20
72.2676
 11
-42.8647
 21
72
  0
LINE
  8
0
 10
-42.8647
 20
72
 11
-42.8815
 21
71.7324
  0
LINE
  8
0
 10
-42.8815
 20
71.7324
 11
-42.9318
 21
71.469
  0
LINE
  8
0
 10
-42.9318
 20
71.469
 11
-43.0146
 21
71.214
  0
LINE
  8
0
 10
-43.0146
 20
71.214
 11
-43.1288
 21
70.9713
  0
LINE
  8
0
 10
-43.1288
 20
70.9713
 11
-43.2725
 21
70.7449
  0
LINE
  8
0
 10
-43.2725
 20
70.7449
 11
-43.4434
 21
70.5383
  0
LINE
  8
0
 10
-43.4434
 20
70.5383
 11
-43.6389
 21
70.3547
  0
LINE
  8
0
 10
-43.6389
 20
70.3547
 11
-43.8559
 21
70.1971
  0
LINE
  8
0
 10
-43.8559
 20
70.1971
 11
-44.0908
 21
70.0679
  0
LINE
  8
0
 10
-44.0908
 20
70.0679
 11
-44.3401
 21
69.9692
  0
LINE
  8
0
 10
-44.3401
 20
69.9692
 11
-44.5999
 21
69.9025
  0
LINE
  8
0
 10
-44.5999
 20
69.9025
 11
-44.8659
 21
69.8689
  0
LINE
  8
0
 10
-44.8659
 20
69.8689
 11
-45.1341
 21
69.8689
  0
ENDSEC
  0
SECTION
  2
OBJECTS
  0
DICTIONARY
  0
ENDSEC
  0
EOF
