<?xml version="1.0" standalone="no"?>
<!DOCTYPE svg PUBLIC "-//W3C//DTD SVG 1.1//EN" "http://www.w3.org/Graphics/SVG/1.1/DTD/svg11.dtd">
<svg width="46mm" height="369mm" viewBox="-23 -468 46 369" xmlns="http://www.w3.org/2000/svg" version="1.1">
<title>OpenSCAD Model</title>
<path d="
M 18.4369,-288.089 L 19.0451,-288.245 L 19.6289,-288.476 L 20.1791,-288.778 L 20.6871,-289.147 L 21.1448,-289.577
 L 21.5451,-290.061 L 21.8815,-290.591 L 22.1489,-291.159 L 22.3429,-291.757 L 22.4606,-292.373 L 22.5,-293
 L 22.5,-463 L 22.4606,-463.627 L 22.3429,-464.243 L 22.1489,-464.841 L 21.8815,-465.409 L 21.5451,-465.939
 L 21.1448,-466.423 L 20.6871,-466.853 L 20.1791,-467.222 L 19.6289,-467.524 L 19.0451,-467.755 L 18.4369,-467.911
 L 17.8139,-467.99 L -17.8139,-467.99 L -18.4369,-467.911 L -19.0451,-467.755 L -19.6289,-467.524 L -20.1791,-467.222
 L -20.6871,-466.853 L -21.1448,-466.423 L -21.5451,-465.939 L -21.8815,-465.409 L -22.1489,-464.841 L -22.3429,-464.243
 L -22.4606,-463.627 L -22.5,-463 L -22.5,-293 L -22.4606,-292.373 L -22.3429,-291.757 L -22.1489,-291.159
 L -21.8815,-290.591 L -21.5451,-290.061 L -21.1448,-289.577 L -20.6871,-289.147 L -20.1791,-288.778 L -19.6289,-288.476
 L -19.0451,-288.245 L -18.4369,-288.089 L -17.8139,-288.01 L 17.8139,-288.01 z
M 18.4369,-99.0886 L 19.0451,-99.2447 L 19.6289,-99.4759 L 20.1791,-99.7784 L 20.6871,-100.147 L 21.1448,-100.577
 L 21.5451,-101.061 L 21.8815,-101.591 L 22.1489,-102.159 L 22.3429,-102.757 L 22.4606,-103.373 L 22.5,-104
 L 22.5,-274 L 22.4606,-274.627 L 22.3429,-275.243 L 22.1489,-275.841 L 21.8815,-276.409 L 21.5451,-276.939
 L 21.1448,-277.423 L 20.6871,-277.853 L 20.1791,-278.222 L 19.6289,-278.524 L 19.0451,-278.755 L 18.4369,-278.911
 L 17.8139,-278.99 L -17.8139,-278.99 L -18.4369,-278.911 L -19.0451,-278.755 L -19.6289,-278.524 L -20.1791,-278.222
 L -20.6871,-277.853 L -21.1448,-277.423 L -21.5451,-276.939 L -21.8815,-276.409 L -22.1489,-275.841 L -22.3429,-275.243
 L -22.4606,-274.627 L -22.5,-274 L -22.5,-104 L -22.4606,-103.373 L -22.3429,-102.757 L -22.1489,-102.159
 L -21.8815,-101.591 L -21.5451,-101.061 L -21.1448,-100.577 L -20.6871,-100.147 L -20.1791,-99.7784 L -19.6289,-99.4759
 L -19.0451,-99.2447 L -18.4369,-99.0886 L -17.8139,-99.0099 L 17.8139,-99.0099 z
M -15.113,-269.704 L -15.3373,-269.732 L -15.5562,-269.788 L -15.7664,-269.871 L -15.9645,-269.98 L -16.1474,-270.113
 L -16.3121,-270.268 L -16.4562,-270.442 L -16.5773,-270.633 L -16.6736,-270.837 L -16.7434,-271.052 L -16.7858,-271.274
 L -16.8,-271.5 L -16.7858,-271.726 L -16.7434,-271.948 L -16.6736,-272.163 L -16.5773,-272.367 L -16.4562,-272.558
 L -16.3121,-272.732 L -16.1474,-272.887 L -15.9645,-273.02 L -15.7664,-273.129 L -15.5562,-273.212 L -15.3373,-273.268
 L -15.113,-273.296 L -14.887,-273.296 L -14.6627,-273.268 L -14.4438,-273.212 L -14.2336,-273.129 L -14.0355,-273.02
 L -13.8526,-272.887 L -13.6879,-272.732 L -13.5438,-272.558 L -13.4226,-272.367 L -13.3264,-272.163 L -13.2565,-271.948
 L -13.2142,-271.726 L -13.2,-271.5 L -13.2142,-271.274 L -13.2565,-271.052 L -13.3264,-270.837 L -13.4226,-270.633
 L -13.5438,-270.442 L -13.6879,-270.268 L -13.8526,-270.113 L -14.0355,-269.98 L -14.2336,-269.871 L -14.4438,-269.788
 L -14.6627,-269.732 L -14.887,-269.704 z
M 14.887,-269.704 L 14.6627,-269.732 L 14.4438,-269.788 L 14.2336,-269.871 L 14.0355,-269.98 L 13.8526,-270.113
 L 13.6879,-270.268 L 13.5438,-270.442 L 13.4226,-270.633 L 13.3264,-270.837 L 13.2565,-271.052 L 13.2142,-271.274
 L 13.2,-271.5 L 13.2142,-271.726 L 13.2565,-271.948 L 13.3264,-272.163 L 13.4226,-272.367 L 13.5438,-272.558
 L 13.6879,-272.732 L 13.8526,-272.887 L 14.0355,-273.02 L 14.2336,-273.129 L 14.4438,-273.212 L 14.6627,-273.268
 L 14.887,-273.296 L 15.113,-273.296 L 15.3373,-273.268 L 15.5562,-273.212 L 15.7664,-273.129 L 15.9645,-273.02
 L 16.1474,-272.887 L 16.3121,-272.732 L 16.4562,-272.558 L 16.5773,-272.367 L 16.6736,-272.163 L 16.7434,-271.948
 L 16.7858,-271.726 L 16.8,-271.5 L 16.7858,-271.274 L 16.7434,-271.052 L 16.6736,-270.837 L 16.5773,-270.633
 L 16.4562,-270.442 L 16.3121,-270.268 L 16.1474,-270.113 L 15.9645,-269.98 L 15.7664,-269.871 L 15.5562,-269.788
 L 15.3373,-269.732 L 15.113,-269.704 z
M -15.113,-104.704 L -15.3373,-104.732 L -15.5562,-104.788 L -15.7664,-104.871 L -15.9645,-104.98 L -16.1474,-105.113
 L -16.3121,-105.268 L -16.4562,-105.442 L -16.5773,-105.633 L -16.6736,-105.837 L -16.7434,-106.052 L -16.7858,-106.274
 L -16.8,-106.5 L -16.7858,-106.726 L -16.7434,-106.948 L -16.6736,-107.163 L -16.5773,-107.367 L -16.4562,-107.558
 L -16.3121,-107.732 L -16.1474,-107.887 L -15.9645,-108.02 L -15.7664,-108.129 L -15.5562,-108.212 L -15.3373,-108.268
 L -15.113,-108.296 L -14.887,-108.296 L -14.6627,-108.268 L -14.4438,-108.212 L -14.2336,-108.129 L -14.0355,-108.02
 L -13.8526,-107.887 L -13.6879,-107.732 L -13.5438,-107.558 L -13.4226,-107.367 L -13.3264,-107.163 L -13.2565,-106.948
 L -13.2142,-106.726 L -13.2,-106.5 L -13.2142,-106.274 L -13.2565,-106.052 L -13.3264,-105.837 L -13.4226,-105.633
 L -13.5438,-105.442 L -13.6879,-105.268 L -13.8526,-105.113 L -14.0355,-104.98 L -14.2336,-104.871 L -14.4438,-104.788
 L -14.6627,-104.732 L -14.887,-104.704 z
M 14.887,-104.704 L 14.6627,-104.732 L 14.4438,-104.788 L 14.2336,-104.871 L 14.0355,-104.98 L 13.8526,-105.113
 L 13.6879,-105.268 L 13.5438,-105.442 L 13.4226,-105.633 L 13.3264,-105.837 L 13.2565,-106.052 L 13.2142,-106.274
 L 13.2,-106.5 L 13.2142,-106.726 L 13.2565,-106.948 L 13.3264,-107.163 L 13.4226,-107.367 L 13.5438,-107.558
 L 13.6879,-107.732 L 13.8526,-107.887 L 14.0355,-108.02 L 14.2336,-108.129 L 14.4438,-108.212 L 14.6627,-108.268
 L 14.887,-108.296 L 15.113,-108.296 L 15.3373,-108.268 L 15.5562,-108.212 L 15.7664,-108.129 L 15.9645,-108.02
 L 16.1474,-107.887 L 16.3121,-107.732 L 16.4562,-107.558 L 16.5773,-107.367 L 16.6736,-107.163 L 16.7434,-106.948
 L 16.7858,-106.726 L 16.8,-106.5 L 16.7858,-106.274 L 16.7434,-106.052 L 16.6736,-105.837 L 16.5773,-105.633
 L 16.4562,-105.442 L 16.3121,-105.268 L 16.1474,-105.113 L 15.9645,-104.98 L 15.7664,-104.871 L 15.5562,-104.788
 L 15.3373,-104.732 L 15.113,-104.704 z
" stroke="black" fill="lightgray" stroke-width="0.5"/>
</svg>
