<?xml version="1.0" standalone="no"?>
<!DOCTYPE svg PUBLIC "-//W3C//DTD SVG 1.1//EN" "http://www.w3.org/Graphics/SVG/1.1/DTD/svg11.dtd">
<svg width="182mm" height="64mm" viewBox="-92 -128 182 64" xmlns="http://www.w3.org/2000/svg" version="1.1">
<title>OpenSCAD Model</title>
<path d="
M -88.5,-113.941 L -88.1871,-113.647 L -87.6791,-113.278 L -87.1289,-112.976 L -86.5451,-112.745 L -85.9369,-112.589
 L -85.3139,-112.51 L 85.3139,-112.51 L 85.9369,-112.589 L 86.5451,-112.745 L 87.1289,-112.976 L 87.6791,-113.278
 L 88.1871,-113.647 L 88.6448,-114.077 L 89.0451,-114.561 L 89.3815,-115.091 L 89.6489,-115.659 L 89.8429,-116.257
 L 89.9606,-116.873 L 90,-117.5 L 90,-122.5 L 89.9606,-123.127 L 89.8429,-123.743 L 89.6489,-124.341
 L 89.3815,-124.909 L 89.0451,-125.439 L 88.6448,-125.923 L 88.1871,-126.353 L 87.6791,-126.722 L 87.1289,-127.024
 L 86.5451,-127.255 L 85.9369,-127.411 L 85.3139,-127.49 L -85.3139,-127.49 L -85.9369,-127.411 L -86.5451,-127.255
 L -87.1289,-127.024 L -87.6791,-126.722 L -88.1871,-126.353 L -88.5,-126.059 L -88.5,-127.49 L -91.5,-127.49
 L -91.5,-112.51 L -88.5,-112.51 z
M -84.7512,-114.008 L -85.2495,-114.071 L -85.7361,-114.196 L -86.2031,-114.381 L -86.6433,-114.623 L -87.0497,-114.918
 L -87.4159,-115.262 L -87.7361,-115.649 L -88.0052,-116.073 L -88.2191,-116.528 L -88.3743,-117.005 L -88.4685,-117.499
 L -88.5,-118 L -88.5,-122 L -88.4685,-122.501 L -88.3743,-122.995 L -88.2191,-123.472 L -88.0052,-123.927
 L -87.7361,-124.351 L -87.4159,-124.738 L -87.0497,-125.082 L -86.6433,-125.377 L -86.2031,-125.619 L -85.7361,-125.804
 L -85.2495,-125.929 L -84.7512,-125.992 L 84.7512,-125.992 L 85.2495,-125.929 L 85.7361,-125.804 L 86.2031,-125.619
 L 86.6433,-125.377 L 87.0497,-125.082 L 87.4159,-124.738 L 87.7361,-124.351 L 88.0052,-123.927 L 88.2191,-123.472
 L 88.3743,-122.995 L 88.4685,-122.501 L 88.5,-122 L 88.5,-118 L 88.4685,-117.499 L 88.3743,-117.005
 L 88.2191,-116.528 L 88.0052,-116.073 L 87.7361,-115.649 L 87.4159,-115.262 L 87.0497,-114.918 L 86.6433,-114.623
 L 86.2031,-114.381 L 85.7361,-114.196 L 85.2495,-114.071 L 84.7512,-114.008 z
M 85.9369,-88.5886 L 86.5451,-88.7447 L 87.1289,-88.9759 L 87.6791,-89.2784 L 88.1871,-89.6474 L 88.6448,-90.0773
 L 89.0451,-90.5611 L 89.3815,-91.0912 L 89.6489,-91.6594 L 89.8429,-92.2566 L 89.9606,-92.8733 L 90,-93.5
 L 90,-98.5 L 89.9606,-99.1267 L 89.8429,-99.7434 L 89.6489,-100.341 L 89.3815,-100.909 L 89.0451,-101.439
 L 88.6448,-101.923 L 88.1871,-102.353 L 87.6791,-102.722 L 87.1289,-103.024 L 86.5451,-103.255 L 85.9369,-103.411
 L 85.3139,-103.49 L -85.3139,-103.49 L -85.9369,-103.411 L -86.5451,-103.255 L -87.1289,-103.024 L -87.6791,-102.722
 L -88.1871,-102.353 L -88.5,-102.059 L -88.5,-103.479 L -91.5,-103.479 L -91.5,-88.5208 L -88.5,-88.5208
 L -88.5,-89.9413 L -88.1871,-89.6474 L -87.6791,-89.2784 L -87.1289,-88.9759 L -86.5451,-88.7447 L -85.9369,-88.5886
 L -85.3139,-88.5099 L 85.3139,-88.5099 z
M -84.6955,-90.8932 L -85.0833,-90.9422 L -85.4619,-91.0394 L -85.8254,-91.1833 L -86.168,-91.3717 L -86.4843,-91.6015
 L -86.7692,-91.8691 L -87.0184,-92.1703 L -87.2279,-92.5004 L -87.3943,-92.8541 L -87.5151,-93.2259 L -87.5884,-93.6098
 L -87.6129,-94 L -87.6129,-98 L -87.5884,-98.3902 L -87.5151,-98.7741 L -87.3943,-99.1459 L -87.2279,-99.4996
 L -87.0184,-99.8297 L -86.7692,-100.131 L -86.4843,-100.399 L -86.168,-100.628 L -85.8254,-100.817 L -85.4619,-100.961
 L -85.0833,-101.058 L -84.6955,-101.107 L 84.6955,-101.107 L 85.0833,-101.058 L 85.4619,-100.961 L 85.8254,-100.817
 L 86.168,-100.628 L 86.4843,-100.399 L 86.7692,-100.131 L 87.0184,-99.8297 L 87.2279,-99.4996 L 87.3943,-99.1459
 L 87.5151,-98.7741 L 87.5884,-98.3902 L 87.6129,-98 L 87.6129,-94 L 87.5884,-93.6098 L 87.5151,-93.2259
 L 87.3943,-92.8541 L 87.2279,-92.5004 L 87.0184,-92.1703 L 86.7692,-91.8691 L 86.4843,-91.6015 L 86.168,-91.3717
 L 85.8254,-91.1833 L 85.4619,-91.0394 L 85.0833,-90.9422 L 84.6955,-90.8932 z
M 85.9369,-64.5886 L 86.5451,-64.7447 L 87.1289,-64.9759 L 87.6791,-65.2784 L 88.1871,-65.6474 L 88.6448,-66.0773
 L 89.0451,-66.5611 L 89.3815,-67.0912 L 89.6489,-67.6594 L 89.8429,-68.2566 L 89.9606,-68.8733 L 90,-69.5
 L 90,-74.5 L 89.9606,-75.1267 L 89.8429,-75.7434 L 89.6489,-76.3406 L 89.3815,-76.9088 L 89.0451,-77.4389
 L 88.6448,-77.9227 L 88.1871,-78.3526 L 87.6791,-78.7216 L 87.1289,-79.0241 L 86.5451,-79.2553 L 85.9369,-79.4114
 L 85.3139,-79.4901 L -85.3139,-79.4901 L -85.9369,-79.4114 L -86.5451,-79.2553 L -87.1289,-79.0241 L -87.6791,-78.7216
 L -88.1871,-78.3526 L -88.5,-78.0587 L -88.5,-78.1526 L -91.5,-78.1526 L -91.5,-65.8474 L -88.5,-65.8474
 L -88.5,-65.9413 L -88.1871,-65.6474 L -87.6791,-65.2784 L -87.1289,-64.9759 L -86.5451,-64.7447 L -85.9369,-64.5886
 L -85.3139,-64.5099 L 85.3139,-64.5099 z
M 82.3659,-69.8689 L 82.0999,-69.9025 L 81.8401,-69.9692 L 81.5908,-70.0679 L 81.3559,-70.1971 L 81.1389,-70.3547
 L 80.9434,-70.5383 L 80.7725,-70.7449 L 80.6288,-70.9713 L 80.5146,-71.214 L 80.4318,-71.469 L 80.3815,-71.7324
 L 80.3647,-72 L 80.3815,-72.2676 L 80.4318,-72.531 L 80.5146,-72.786 L 80.6288,-73.0287 L 80.7725,-73.2551
 L 80.9434,-73.4617 L 81.1389,-73.6453 L 81.3559,-73.8029 L 81.5908,-73.9321 L 81.8401,-74.0308 L 82.0999,-74.0975
 L 82.3659,-74.1311 L 82.6341,-74.1311 L 82.9001,-74.0975 L 83.1598,-74.0308 L 83.4092,-73.9321 L 83.6441,-73.8029
 L 83.8611,-73.6453 L 84.0566,-73.4617 L 84.2275,-73.2551 L 84.3712,-73.0287 L 84.4853,-72.786 L 84.5682,-72.531
 L 84.6185,-72.2676 L 84.6353,-72 L 84.6185,-71.7324 L 84.5682,-71.469 L 84.4853,-71.214 L 84.3712,-70.9713
 L 84.2275,-70.7449 L 84.0566,-70.5383 L 83.8611,-70.3547 L 83.6441,-70.1971 L 83.4092,-70.0679 L 83.1598,-69.9692
 L 82.9001,-69.9025 L 82.6341,-69.8689 z
M -82.6341,-69.8689 L -82.9001,-69.9025 L -83.1598,-69.9692 L -83.4092,-70.0679 L -83.6441,-70.1971 L -83.8611,-70.3547
 L -84.0566,-70.5383 L -84.2275,-70.7449 L -84.3712,-70.9713 L -84.4853,-71.214 L -84.5682,-71.469 L -84.6185,-71.7324
 L -84.6353,-72 L -84.6185,-72.2676 L -84.5682,-72.531 L -84.4853,-72.786 L -84.3712,-73.0287 L -84.2275,-73.2551
 L -84.0566,-73.4617 L -83.8611,-73.6453 L -83.6441,-73.8029 L -83.4092,-73.9321 L -83.1598,-74.0308 L -82.9001,-74.0975
 L -82.6341,-74.1311 L -82.3659,-74.1311 L -82.0999,-74.0975 L -81.8401,-74.0308 L -81.5908,-73.9321 L -81.3559,-73.8029
 L -81.1389,-73.6453 L -80.9434,-73.4617 L -80.7725,-73.2551 L -80.6288,-73.0287 L -80.5146,-72.786 L -80.4318,-72.531
 L -80.3815,-72.2676 L -80.3647,-72 L -80.3815,-71.7324 L -80.4318,-71.469 L -80.5146,-71.214 L -80.6288,-70.9713
 L -80.7725,-70.7449 L -80.9434,-70.5383 L -81.1389,-70.3547 L -81.3559,-70.1971 L -81.5908,-70.0679 L -81.8401,-69.9692
 L -82.0999,-69.9025 L -82.3659,-69.8689 z
" stroke="black" fill="lightgray" stroke-width="0.5"/>
</svg>
