<?xml version="1.0" standalone="no"?>
<!DOCTYPE svg PUBLIC "-//W3C//DTD SVG 1.1//EN" "http://www.w3.org/Graphics/SVG/1.1/DTD/svg11.dtd">
<svg width="46mm" height="189mm" viewBox="-23 -342 46 189" xmlns="http://www.w3.org/2000/svg" version="1.1">
<title>OpenSCAD Model</title>
<path d="
M 18.4369,-252.089 L 19.0451,-252.245 L 19.6289,-252.476 L 20.1791,-252.778 L 20.6871,-253.147 L 21.1448,-253.577
 L 21.5451,-254.061 L 21.8815,-254.591 L 22.1489,-255.159 L 22.3429,-255.757 L 22.4606,-256.373 L 22.5,-257
 L 22.5,-337 L 22.4606,-337.627 L 22.3429,-338.243 L 22.1489,-338.841 L 21.8815,-339.409 L 21.5451,-339.939
 L 21.1448,-340.423 L 20.6871,-340.853 L 20.1791,-341.222 L 19.6289,-341.524 L 19.0451,-341.755 L 18.4369,-341.911
 L 17.8139,-341.99 L -17.8139,-341.99 L -18.4369,-341.911 L -19.0451,-341.755 L -19.6289,-341.524 L -20.1791,-341.222
 L -20.6871,-340.853 L -21.1448,-340.423 L -21.5451,-339.939 L -21.8815,-339.409 L -22.1489,-338.841 L -22.3429,-338.243
 L -22.4606,-337.627 L -22.5,-337 L -22.5,-257 L -22.4606,-256.373 L -22.3429,-255.757 L -22.1489,-255.159
 L -21.8815,-254.591 L -21.5451,-254.061 L -21.1448,-253.577 L -20.6871,-253.147 L -20.1791,-252.778 L -19.6289,-252.476
 L -19.0451,-252.245 L -18.4369,-252.089 L -17.8139,-252.01 L 17.8139,-252.01 z
M -17.1954,-254.393 L -17.5833,-254.442 L -17.9619,-254.539 L -18.3254,-254.683 L -18.668,-254.872 L -18.9842,-255.101
 L -19.2692,-255.369 L -19.5184,-255.67 L -19.7279,-256 L -19.8943,-256.354 L -20.0151,-256.726 L -20.0884,-257.11
 L -20.1129,-257.5 L -20.1129,-336.5 L -20.0884,-336.89 L -20.0151,-337.274 L -19.8943,-337.646 L -19.7279,-338
 L -19.5184,-338.33 L -19.2692,-338.631 L -18.9842,-338.899 L -18.668,-339.128 L -18.3254,-339.317 L -17.9619,-339.461
 L -17.5833,-339.558 L -17.1954,-339.607 L 17.1954,-339.607 L 17.5833,-339.558 L 17.9619,-339.461 L 18.3254,-339.317
 L 18.668,-339.128 L 18.9842,-338.899 L 19.2692,-338.631 L 19.5184,-338.33 L 19.7279,-338 L 19.8943,-337.646
 L 20.0151,-337.274 L 20.0884,-336.89 L 20.1129,-336.5 L 20.1129,-257.5 L 20.0884,-257.11 L 20.0151,-256.726
 L 19.8943,-256.354 L 19.7279,-256 L 19.5184,-255.67 L 19.2692,-255.369 L 18.9842,-255.101 L 18.668,-254.872
 L 18.3254,-254.683 L 17.9619,-254.539 L 17.5833,-254.442 L 17.1954,-254.393 z
M 18.4369,-153.089 L 19.0451,-153.245 L 19.6289,-153.476 L 20.1791,-153.778 L 20.6871,-154.147 L 21.1448,-154.577
 L 21.5451,-155.061 L 21.8815,-155.591 L 22.1489,-156.159 L 22.3429,-156.757 L 22.4606,-157.373 L 22.5,-158
 L 22.5,-238 L 22.4606,-238.627 L 22.3429,-239.243 L 22.1489,-239.841 L 21.8815,-240.409 L 21.5451,-240.939
 L 21.1448,-241.423 L 20.6871,-241.853 L 20.1791,-242.222 L 19.6289,-242.524 L 19.0451,-242.755 L 18.4369,-242.911
 L 17.8139,-242.99 L -17.8139,-242.99 L -18.4369,-242.911 L -19.0451,-242.755 L -19.6289,-242.524 L -20.1791,-242.222
 L -20.6871,-241.853 L -21.1448,-241.423 L -21.5451,-240.939 L -21.8815,-240.409 L -22.1489,-239.841 L -22.3429,-239.243
 L -22.4606,-238.627 L -22.5,-238 L -22.5,-158 L -22.4606,-157.373 L -22.3429,-156.757 L -22.1489,-156.159
 L -21.8815,-155.591 L -21.5451,-155.061 L -21.1448,-154.577 L -20.6871,-154.147 L -20.1791,-153.778 L -19.6289,-153.476
 L -19.0451,-153.245 L -18.4369,-153.089 L -17.8139,-153.01 L 17.8139,-153.01 z
M 14.8659,-233.369 L 14.5999,-233.403 L 14.3401,-233.469 L 14.0908,-233.568 L 13.8559,-233.697 L 13.6389,-233.855
 L 13.4434,-234.038 L 13.2725,-234.245 L 13.1288,-234.471 L 13.0146,-234.714 L 12.9318,-234.969 L 12.8815,-235.232
 L 12.8647,-235.5 L 12.8815,-235.768 L 12.9318,-236.031 L 13.0146,-236.286 L 13.1288,-236.529 L 13.2725,-236.755
 L 13.4434,-236.962 L 13.6389,-237.145 L 13.8559,-237.303 L 14.0908,-237.432 L 14.3401,-237.531 L 14.5999,-237.597
 L 14.8659,-237.631 L 15.1341,-237.631 L 15.4001,-237.597 L 15.6598,-237.531 L 15.9091,-237.432 L 16.1441,-237.303
 L 16.3611,-237.145 L 16.5565,-236.962 L 16.7275,-236.755 L 16.8712,-236.529 L 16.9853,-236.286 L 17.0682,-236.031
 L 17.1185,-235.768 L 17.1353,-235.5 L 17.1185,-235.232 L 17.0682,-234.969 L 16.9853,-234.714 L 16.8712,-234.471
 L 16.7275,-234.245 L 16.5565,-234.038 L 16.3611,-233.855 L 16.1441,-233.697 L 15.9091,-233.568 L 15.6598,-233.469
 L 15.4001,-233.403 L 15.1341,-233.369 z
M -15.1341,-233.369 L -15.4001,-233.403 L -15.6598,-233.469 L -15.9091,-233.568 L -16.1441,-233.697 L -16.3611,-233.855
 L -16.5565,-234.038 L -16.7275,-234.245 L -16.8712,-234.471 L -16.9853,-234.714 L -17.0682,-234.969 L -17.1185,-235.232
 L -17.1353,-235.5 L -17.1185,-235.768 L -17.0682,-236.031 L -16.9853,-236.286 L -16.8712,-236.529 L -16.7275,-236.755
 L -16.5565,-236.962 L -16.3611,-237.145 L -16.1441,-237.303 L -15.9091,-237.432 L -15.6598,-237.531 L -15.4001,-237.597
 L -15.1341,-237.631 L -14.8659,-237.631 L -14.5999,-237.597 L -14.3401,-237.531 L -14.0908,-237.432 L -13.8559,-237.303
 L -13.6389,-237.145 L -13.4434,-236.962 L -13.2725,-236.755 L -13.1288,-236.529 L -13.0146,-236.286 L -12.9318,-236.031
 L -12.8815,-235.768 L -12.8647,-235.5 L -12.8815,-235.232 L -12.9318,-234.969 L -13.0146,-234.714 L -13.1288,-234.471
 L -13.2725,-234.245 L -13.4434,-234.038 L -13.6389,-233.855 L -13.8559,-233.697 L -14.0908,-233.568 L -14.3401,-233.469
 L -14.5999,-233.403 L -14.8659,-233.369 z
M 14.8659,-158.369 L 14.5999,-158.403 L 14.3401,-158.469 L 14.0908,-158.568 L 13.8559,-158.697 L 13.6389,-158.855
 L 13.4434,-159.038 L 13.2725,-159.245 L 13.1288,-159.471 L 13.0146,-159.714 L 12.9318,-159.969 L 12.8815,-160.232
 L 12.8647,-160.5 L 12.8815,-160.768 L 12.9318,-161.031 L 13.0146,-161.286 L 13.1288,-161.529 L 13.2725,-161.755
 L 13.4434,-161.962 L 13.6389,-162.145 L 13.8559,-162.303 L 14.0908,-162.432 L 14.3401,-162.531 L 14.5999,-162.597
 L 14.8659,-162.631 L 15.1341,-162.631 L 15.4001,-162.597 L 15.6598,-162.531 L 15.9091,-162.432 L 16.1441,-162.303
 L 16.3611,-162.145 L 16.5565,-161.962 L 16.7275,-161.755 L 16.8712,-161.529 L 16.9853,-161.286 L 17.0682,-161.031
 L 17.1185,-160.768 L 17.1353,-160.5 L 17.1185,-160.232 L 17.0682,-159.969 L 16.9853,-159.714 L 16.8712,-159.471
 L 16.7275,-159.245 L 16.5565,-159.038 L 16.3611,-158.855 L 16.1441,-158.697 L 15.9091,-158.568 L 15.6598,-158.469
 L 15.4001,-158.403 L 15.1341,-158.369 z
M -15.1341,-158.369 L -15.4001,-158.403 L -15.6598,-158.469 L -15.9091,-158.568 L -16.1441,-158.697 L -16.3611,-158.855
 L -16.5565,-159.038 L -16.7275,-159.245 L -16.8712,-159.471 L -16.9853,-159.714 L -17.0682,-159.969 L -17.1185,-160.232
 L -17.1353,-160.5 L -17.1185,-160.768 L -17.0682,-161.031 L -16.9853,-161.286 L -16.8712,-161.529 L -16.7275,-161.755
 L -16.5565,-161.962 L -16.3611,-162.145 L -16.1441,-162.303 L -15.9091,-162.432 L -15.6598,-162.531 L -15.4001,-162.597
 L -15.1341,-162.631 L -14.8659,-162.631 L -14.5999,-162.597 L -14.3401,-162.531 L -14.0908,-162.432 L -13.8559,-162.303
 L -13.6389,-162.145 L -13.4434,-161.962 L -13.2725,-161.755 L -13.1288,-161.529 L -13.0146,-161.286 L -12.9318,-161.031
 L -12.8815,-160.768 L -12.8647,-160.5 L -12.8815,-160.232 L -12.9318,-159.969 L -13.0146,-159.714 L -13.1288,-159.471
 L -13.2725,-159.245 L -13.4434,-159.038 L -13.6389,-158.855 L -13.8559,-158.697 L -14.0908,-158.568 L -14.3401,-158.469
 L -14.5999,-158.403 L -14.8659,-158.369 z
" stroke="black" fill="lightgray" stroke-width="0.5"/>
</svg>
