  0
SECTION
  2
BLOCKS
  0
ENDSEC
  0
SECTION
  2
ENTITIES
  0
LINE
  8
0
 10
18.4369
 20
252.089
 11
19.0451
 21
252.245
  0
LINE
  8
0
 10
19.0451
 20
252.245
 11
19.6289
 21
252.476
  0
LINE
  8
0
 10
19.6289
 20
252.476
 11
20.1791
 21
252.778
  0
LINE
  8
0
 10
20.1791
 20
252.778
 11
20.6871
 21
253.147
  0
LINE
  8
0
 10
20.6871
 20
253.147
 11
21.1448
 21
253.577
  0
LINE
  8
0
 10
21.1448
 20
253.577
 11
21.5451
 21
254.061
  0
LINE
  8
0
 10
21.5451
 20
254.061
 11
21.8815
 21
254.591
  0
LINE
  8
0
 10
21.8815
 20
254.591
 11
22.1489
 21
255.159
  0
LINE
  8
0
 10
22.1489
 20
255.159
 11
22.3429
 21
255.757
  0
LINE
  8
0
 10
22.3429
 20
255.757
 11
22.4606
 21
256.373
  0
LINE
  8
0
 10
22.4606
 20
256.373
 11
22.5
 21
257
  0
LINE
  8
0
 10
22.5
 20
257
 11
22.5
 21
337
  0
LINE
  8
0
 10
22.5
 20
337
 11
22.4606
 21
337.627
  0
LINE
  8
0
 10
22.4606
 20
337.627
 11
22.3429
 21
338.243
  0
LINE
  8
0
 10
22.3429
 20
338.243
 11
22.1489
 21
338.841
  0
LINE
  8
0
 10
22.1489
 20
338.841
 11
21.8815
 21
339.409
  0
LINE
  8
0
 10
21.8815
 20
339.409
 11
21.5451
 21
339.939
  0
LINE
  8
0
 10
21.5451
 20
339.939
 11
21.1448
 21
340.423
  0
LINE
  8
0
 10
21.1448
 20
340.423
 11
20.6871
 21
340.853
  0
LINE
  8
0
 10
20.6871
 20
340.853
 11
20.1791
 21
341.222
  0
LINE
  8
0
 10
20.1791
 20
341.222
 11
19.6289
 21
341.524
  0
LINE
  8
0
 10
19.6289
 20
341.524
 11
19.0451
 21
341.755
  0
LINE
  8
0
 10
19.0451
 20
341.755
 11
18.4369
 21
341.911
  0
LINE
  8
0
 10
18.4369
 20
341.911
 11
17.8139
 21
341.99
  0
LINE
  8
0
 10
17.8139
 20
341.99
 11
-17.8139
 21
341.99
  0
LINE
  8
0
 10
-17.8139
 20
341.99
 11
-18.4369
 21
341.911
  0
LINE
  8
0
 10
-18.4369
 20
341.911
 11
-19.0451
 21
341.755
  0
LINE
  8
0
 10
-19.0451
 20
341.755
 11
-19.6289
 21
341.524
  0
LINE
  8
0
 10
-19.6289
 20
341.524
 11
-20.1791
 21
341.222
  0
LINE
  8
0
 10
-20.1791
 20
341.222
 11
-20.6871
 21
340.853
  0
LINE
  8
0
 10
-20.6871
 20
340.853
 11
-21.1448
 21
340.423
  0
LINE
  8
0
 10
-21.1448
 20
340.423
 11
-21.5451
 21
339.939
  0
LINE
  8
0
 10
-21.5451
 20
339.939
 11
-21.8815
 21
339.409
  0
LINE
  8
0
 10
-21.8815
 20
339.409
 11
-22.1489
 21
338.841
  0
LINE
  8
0
 10
-22.1489
 20
338.841
 11
-22.3429
 21
338.243
  0
LINE
  8
0
 10
-22.3429
 20
338.243
 11
-22.4606
 21
337.627
  0
LINE
  8
0
 10
-22.4606
 20
337.627
 11
-22.5
 21
337
  0
LINE
  8
0
 10
-22.5
 20
337
 11
-22.5
 21
257
  0
LINE
  8
0
 10
-22.5
 20
257
 11
-22.4606
 21
256.373
  0
LINE
  8
0
 10
-22.4606
 20
256.373
 11
-22.3429
 21
255.757
  0
LINE
  8
0
 10
-22.3429
 20
255.757
 11
-22.1489
 21
255.159
  0
LINE
  8
0
 10
-22.1489
 20
255.159
 11
-21.8815
 21
254.591
  0
LINE
  8
0
 10
-21.8815
 20
254.591
 11
-21.5451
 21
254.061
  0
LINE
  8
0
 10
-21.5451
 20
254.061
 11
-21.1448
 21
253.577
  0
LINE
  8
0
 10
-21.1448
 20
253.577
 11
-20.6871
 21
253.147
  0
LINE
  8
0
 10
-20.6871
 20
253.147
 11
-20.1791
 21
252.778
  0
LINE
  8
0
 10
-20.1791
 20
252.778
 11
-19.6289
 21
252.476
  0
LINE
  8
0
 10
-19.6289
 20
252.476
 11
-19.0451
 21
252.245
  0
LINE
  8
0
 10
-19.0451
 20
252.245
 11
-18.4369
 21
252.089
  0
LINE
  8
0
 10
-18.4369
 20
252.089
 11
-17.8139
 21
252.01
  0
LINE
  8
0
 10
-17.8139
 20
252.01
 11
17.8139
 21
252.01
  0
LINE
  8
0
 10
17.8139
 20
252.01
 11
18.4369
 21
252.089
  0
LINE
  8
0
 10
-17.1954
 20
254.393
 11
-17.5833
 21
254.442
  0
LINE
  8
0
 10
-17.5833
 20
254.442
 11
-17.9619
 21
254.539
  0
LINE
  8
0
 10
-17.9619
 20
254.539
 11
-18.3254
 21
254.683
  0
LINE
  8
0
 10
-18.3254
 20
254.683
 11
-18.668
 21
254.872
  0
LINE
  8
0
 10
-18.668
 20
254.872
 11
-18.9842
 21
255.101
  0
LINE
  8
0
 10
-18.9842
 20
255.101
 11
-19.2692
 21
255.369
  0
LINE
  8
0
 10
-19.2692
 20
255.369
 11
-19.5184
 21
255.67
  0
LINE
  8
0
 10
-19.5184
 20
255.67
 11
-19.7279
 21
256
  0
LINE
  8
0
 10
-19.7279
 20
256
 11
-19.8943
 21
256.354
  0
LINE
  8
0
 10
-19.8943
 20
256.354
 11
-20.0151
 21
256.726
  0
LINE
  8
0
 10
-20.0151
 20
256.726
 11
-20.0884
 21
257.11
  0
LINE
  8
0
 10
-20.0884
 20
257.11
 11
-20.1129
 21
257.5
  0
LINE
  8
0
 10
-20.1129
 20
257.5
 11
-20.1129
 21
336.5
  0
LINE
  8
0
 10
-20.1129
 20
336.5
 11
-20.0884
 21
336.89
  0
LINE
  8
0
 10
-20.0884
 20
336.89
 11
-20.0151
 21
337.274
  0
LINE
  8
0
 10
-20.0151
 20
337.274
 11
-19.8943
 21
337.646
  0
LINE
  8
0
 10
-19.8943
 20
337.646
 11
-19.7279
 21
338
  0
LINE
  8
0
 10
-19.7279
 20
338
 11
-19.5184
 21
338.33
  0
LINE
  8
0
 10
-19.5184
 20
338.33
 11
-19.2692
 21
338.631
  0
LINE
  8
0
 10
-19.2692
 20
338.631
 11
-18.9842
 21
338.899
  0
LINE
  8
0
 10
-18.9842
 20
338.899
 11
-18.668
 21
339.128
  0
LINE
  8
0
 10
-18.668
 20
339.128
 11
-18.3254
 21
339.317
  0
LINE
  8
0
 10
-18.3254
 20
339.317
 11
-17.9619
 21
339.461
  0
LINE
  8
0
 10
-17.9619
 20
339.461
 11
-17.5833
 21
339.558
  0
LINE
  8
0
 10
-17.5833
 20
339.558
 11
-17.1954
 21
339.607
  0
LINE
  8
0
 10
-17.1954
 20
339.607
 11
17.1954
 21
339.607
  0
LINE
  8
0
 10
17.1954
 20
339.607
 11
17.5833
 21
339.558
  0
LINE
  8
0
 10
17.5833
 20
339.558
 11
17.9619
 21
339.461
  0
LINE
  8
0
 10
17.9619
 20
339.461
 11
18.3254
 21
339.317
  0
LINE
  8
0
 10
18.3254
 20
339.317
 11
18.668
 21
339.128
  0
LINE
  8
0
 10
18.668
 20
339.128
 11
18.9842
 21
338.899
  0
LINE
  8
0
 10
18.9842
 20
338.899
 11
19.2692
 21
338.631
  0
LINE
  8
0
 10
19.2692
 20
338.631
 11
19.5184
 21
338.33
  0
LINE
  8
0
 10
19.5184
 20
338.33
 11
19.7279
 21
338
  0
LINE
  8
0
 10
19.7279
 20
338
 11
19.8943
 21
337.646
  0
LINE
  8
0
 10
19.8943
 20
337.646
 11
20.0151
 21
337.274
  0
LINE
  8
0
 10
20.0151
 20
337.274
 11
20.0884
 21
336.89
  0
LINE
  8
0
 10
20.0884
 20
336.89
 11
20.1129
 21
336.5
  0
LINE
  8
0
 10
20.1129
 20
336.5
 11
20.1129
 21
257.5
  0
LINE
  8
0
 10
20.1129
 20
257.5
 11
20.0884
 21
257.11
  0
LINE
  8
0
 10
20.0884
 20
257.11
 11
20.0151
 21
256.726
  0
LINE
  8
0
 10
20.0151
 20
256.726
 11
19.8943
 21
256.354
  0
LINE
  8
0
 10
19.8943
 20
256.354
 11
19.7279
 21
256
  0
LINE
  8
0
 10
19.7279
 20
256
 11
19.5184
 21
255.67
  0
LINE
  8
0
 10
19.5184
 20
255.67
 11
19.2692
 21
255.369
  0
LINE
  8
0
 10
19.2692
 20
255.369
 11
18.9842
 21
255.101
  0
LINE
  8
0
 10
18.9842
 20
255.101
 11
18.668
 21
254.872
  0
LINE
  8
0
 10
18.668
 20
254.872
 11
18.3254
 21
254.683
  0
LINE
  8
0
 10
18.3254
 20
254.683
 11
17.9619
 21
254.539
  0
LINE
  8
0
 10
17.9619
 20
254.539
 11
17.5833
 21
254.442
  0
LINE
  8
0
 10
17.5833
 20
254.442
 11
17.1954
 21
254.393
  0
LINE
  8
0
 10
17.1954
 20
254.393
 11
-17.1954
 21
254.393
  0
LINE
  8
0
 10
18.4369
 20
153.089
 11
19.0451
 21
153.245
  0
LINE
  8
0
 10
19.0451
 20
153.245
 11
19.6289
 21
153.476
  0
LINE
  8
0
 10
19.6289
 20
153.476
 11
20.1791
 21
153.778
  0
LINE
  8
0
 10
20.1791
 20
153.778
 11
20.6871
 21
154.147
  0
LINE
  8
0
 10
20.6871
 20
154.147
 11
21.1448
 21
154.577
  0
LINE
  8
0
 10
21.1448
 20
154.577
 11
21.5451
 21
155.061
  0
LINE
  8
0
 10
21.5451
 20
155.061
 11
21.8815
 21
155.591
  0
LINE
  8
0
 10
21.8815
 20
155.591
 11
22.1489
 21
156.159
  0
LINE
  8
0
 10
22.1489
 20
156.159
 11
22.3429
 21
156.757
  0
LINE
  8
0
 10
22.3429
 20
156.757
 11
22.4606
 21
157.373
  0
LINE
  8
0
 10
22.4606
 20
157.373
 11
22.5
 21
158
  0
LINE
  8
0
 10
22.5
 20
158
 11
22.5
 21
238
  0
LINE
  8
0
 10
22.5
 20
238
 11
22.4606
 21
238.627
  0
LINE
  8
0
 10
22.4606
 20
238.627
 11
22.3429
 21
239.243
  0
LINE
  8
0
 10
22.3429
 20
239.243
 11
22.1489
 21
239.841
  0
LINE
  8
0
 10
22.1489
 20
239.841
 11
21.8815
 21
240.409
  0
LINE
  8
0
 10
21.8815
 20
240.409
 11
21.5451
 21
240.939
  0
LINE
  8
0
 10
21.5451
 20
240.939
 11
21.1448
 21
241.423
  0
LINE
  8
0
 10
21.1448
 20
241.423
 11
20.6871
 21
241.853
  0
LINE
  8
0
 10
20.6871
 20
241.853
 11
20.1791
 21
242.222
  0
LINE
  8
0
 10
20.1791
 20
242.222
 11
19.6289
 21
242.524
  0
LINE
  8
0
 10
19.6289
 20
242.524
 11
19.0451
 21
242.755
  0
LINE
  8
0
 10
19.0451
 20
242.755
 11
18.4369
 21
242.911
  0
LINE
  8
0
 10
18.4369
 20
242.911
 11
17.8139
 21
242.99
  0
LINE
  8
0
 10
17.8139
 20
242.99
 11
-17.8139
 21
242.99
  0
LINE
  8
0
 10
-17.8139
 20
242.99
 11
-18.4369
 21
242.911
  0
LINE
  8
0
 10
-18.4369
 20
242.911
 11
-19.0451
 21
242.755
  0
LINE
  8
0
 10
-19.0451
 20
242.755
 11
-19.6289
 21
242.524
  0
LINE
  8
0
 10
-19.6289
 20
242.524
 11
-20.1791
 21
242.222
  0
LINE
  8
0
 10
-20.1791
 20
242.222
 11
-20.6871
 21
241.853
  0
LINE
  8
0
 10
-20.6871
 20
241.853
 11
-21.1448
 21
241.423
  0
LINE
  8
0
 10
-21.1448
 20
241.423
 11
-21.5451
 21
240.939
  0
LINE
  8
0
 10
-21.5451
 20
240.939
 11
-21.8815
 21
240.409
  0
LINE
  8
0
 10
-21.8815
 20
240.409
 11
-22.1489
 21
239.841
  0
LINE
  8
0
 10
-22.1489
 20
239.841
 11
-22.3429
 21
239.243
  0
LINE
  8
0
 10
-22.3429
 20
239.243
 11
-22.4606
 21
238.627
  0
LINE
  8
0
 10
-22.4606
 20
238.627
 11
-22.5
 21
238
  0
LINE
  8
0
 10
-22.5
 20
238
 11
-22.5
 21
158
  0
LINE
  8
0
 10
-22.5
 20
158
 11
-22.4606
 21
157.373
  0
LINE
  8
0
 10
-22.4606
 20
157.373
 11
-22.3429
 21
156.757
  0
LINE
  8
0
 10
-22.3429
 20
156.757
 11
-22.1489
 21
156.159
  0
LINE
  8
0
 10
-22.1489
 20
156.159
 11
-21.8815
 21
155.591
  0
LINE
  8
0
 10
-21.8815
 20
155.591
 11
-21.5451
 21
155.061
  0
LINE
  8
0
 10
-21.5451
 20
155.061
 11
-21.1448
 21
154.577
  0
LINE
  8
0
 10
-21.1448
 20
154.577
 11
-20.6871
 21
154.147
  0
LINE
  8
0
 10
-20.6871
 20
154.147
 11
-20.1791
 21
153.778
  0
LINE
  8
0
 10
-20.1791
 20
153.778
 11
-19.6289
 21
153.476
  0
LINE
  8
0
 10
-19.6289
 20
153.476
 11
-19.0451
 21
153.245
  0
LINE
  8
0
 10
-19.0451
 20
153.245
 11
-18.4369
 21
153.089
  0
LINE
  8
0
 10
-18.4369
 20
153.089
 11
-17.8139
 21
153.01
  0
LINE
  8
0
 10
-17.8139
 20
153.01
 11
17.8139
 21
153.01
  0
LINE
  8
0
 10
17.8139
 20
153.01
 11
18.4369
 21
153.089
  0
LINE
  8
0
 10
14.8659
 20
233.369
 11
14.5999
 21
233.403
  0
LINE
  8
0
 10
14.5999
 20
233.403
 11
14.3401
 21
233.469
  0
LINE
  8
0
 10
14.3401
 20
233.469
 11
14.0908
 21
233.568
  0
LINE
  8
0
 10
14.0908
 20
233.568
 11
13.8559
 21
233.697
  0
LINE
  8
0
 10
13.8559
 20
233.697
 11
13.6389
 21
233.855
  0
LINE
  8
0
 10
13.6389
 20
233.855
 11
13.4434
 21
234.038
  0
LINE
  8
0
 10
13.4434
 20
234.038
 11
13.2725
 21
234.245
  0
LINE
  8
0
 10
13.2725
 20
234.245
 11
13.1288
 21
234.471
  0
LINE
  8
0
 10
13.1288
 20
234.471
 11
13.0146
 21
234.714
  0
LINE
  8
0
 10
13.0146
 20
234.714
 11
12.9318
 21
234.969
  0
LINE
  8
0
 10
12.9318
 20
234.969
 11
12.8815
 21
235.232
  0
LINE
  8
0
 10
12.8815
 20
235.232
 11
12.8647
 21
235.5
  0
LINE
  8
0
 10
12.8647
 20
235.5
 11
12.8815
 21
235.768
  0
LINE
  8
0
 10
12.8815
 20
235.768
 11
12.9318
 21
236.031
  0
LINE
  8
0
 10
12.9318
 20
236.031
 11
13.0146
 21
236.286
  0
LINE
  8
0
 10
13.0146
 20
236.286
 11
13.1288
 21
236.529
  0
LINE
  8
0
 10
13.1288
 20
236.529
 11
13.2725
 21
236.755
  0
LINE
  8
0
 10
13.2725
 20
236.755
 11
13.4434
 21
236.962
  0
LINE
  8
0
 10
13.4434
 20
236.962
 11
13.6389
 21
237.145
  0
LINE
  8
0
 10
13.6389
 20
237.145
 11
13.8559
 21
237.303
  0
LINE
  8
0
 10
13.8559
 20
237.303
 11
14.0908
 21
237.432
  0
LINE
  8
0
 10
14.0908
 20
237.432
 11
14.3401
 21
237.531
  0
LINE
  8
0
 10
14.3401
 20
237.531
 11
14.5999
 21
237.597
  0
LINE
  8
0
 10
14.5999
 20
237.597
 11
14.8659
 21
237.631
  0
LINE
  8
0
 10
14.8659
 20
237.631
 11
15.1341
 21
237.631
  0
LINE
  8
0
 10
15.1341
 20
237.631
 11
15.4001
 21
237.597
  0
LINE
  8
0
 10
15.4001
 20
237.597
 11
15.6598
 21
237.531
  0
LINE
  8
0
 10
15.6598
 20
237.531
 11
15.9091
 21
237.432
  0
LINE
  8
0
 10
15.9091
 20
237.432
 11
16.1441
 21
237.303
  0
LINE
  8
0
 10
16.1441
 20
237.303
 11
16.3611
 21
237.145
  0
LINE
  8
0
 10
16.3611
 20
237.145
 11
16.5565
 21
236.962
  0
LINE
  8
0
 10
16.5565
 20
236.962
 11
16.7275
 21
236.755
  0
LINE
  8
0
 10
16.7275
 20
236.755
 11
16.8712
 21
236.529
  0
LINE
  8
0
 10
16.8712
 20
236.529
 11
16.9853
 21
236.286
  0
LINE
  8
0
 10
16.9853
 20
236.286
 11
17.0682
 21
236.031
  0
LINE
  8
0
 10
17.0682
 20
236.031
 11
17.1185
 21
235.768
  0
LINE
  8
0
 10
17.1185
 20
235.768
 11
17.1353
 21
235.5
  0
LINE
  8
0
 10
17.1353
 20
235.5
 11
17.1185
 21
235.232
  0
LINE
  8
0
 10
17.1185
 20
235.232
 11
17.0682
 21
234.969
  0
LINE
  8
0
 10
17.0682
 20
234.969
 11
16.9853
 21
234.714
  0
LINE
  8
0
 10
16.9853
 20
234.714
 11
16.8712
 21
234.471
  0
LINE
  8
0
 10
16.8712
 20
234.471
 11
16.7275
 21
234.245
  0
LINE
  8
0
 10
16.7275
 20
234.245
 11
16.5565
 21
234.038
  0
LINE
  8
0
 10
16.5565
 20
234.038
 11
16.3611
 21
233.855
  0
LINE
  8
0
 10
16.3611
 20
233.855
 11
16.1441
 21
233.697
  0
LINE
  8
0
 10
16.1441
 20
233.697
 11
15.9091
 21
233.568
  0
LINE
  8
0
 10
15.9091
 20
233.568
 11
15.6598
 21
233.469
  0
LINE
  8
0
 10
15.6598
 20
233.469
 11
15.4001
 21
233.403
  0
LINE
  8
0
 10
15.4001
 20
233.403
 11
15.1341
 21
233.369
  0
LINE
  8
0
 10
15.1341
 20
233.369
 11
14.8659
 21
233.369
  0
LINE
  8
0
 10
-15.1341
 20
233.369
 11
-15.4001
 21
233.403
  0
LINE
  8
0
 10
-15.4001
 20
233.403
 11
-15.6598
 21
233.469
  0
LINE
  8
0
 10
-15.6598
 20
233.469
 11
-15.9091
 21
233.568
  0
LINE
  8
0
 10
-15.9091
 20
233.568
 11
-16.1441
 21
233.697
  0
LINE
  8
0
 10
-16.1441
 20
233.697
 11
-16.3611
 21
233.855
  0
LINE
  8
0
 10
-16.3611
 20
233.855
 11
-16.5565
 21
234.038
  0
LINE
  8
0
 10
-16.5565
 20
234.038
 11
-16.7275
 21
234.245
  0
LINE
  8
0
 10
-16.7275
 20
234.245
 11
-16.8712
 21
234.471
  0
LINE
  8
0
 10
-16.8712
 20
234.471
 11
-16.9853
 21
234.714
  0
LINE
  8
0
 10
-16.9853
 20
234.714
 11
-17.0682
 21
234.969
  0
LINE
  8
0
 10
-17.0682
 20
234.969
 11
-17.1185
 21
235.232
  0
LINE
  8
0
 10
-17.1185
 20
235.232
 11
-17.1353
 21
235.5
  0
LINE
  8
0
 10
-17.1353
 20
235.5
 11
-17.1185
 21
235.768
  0
LINE
  8
0
 10
-17.1185
 20
235.768
 11
-17.0682
 21
236.031
  0
LINE
  8
0
 10
-17.0682
 20
236.031
 11
-16.9853
 21
236.286
  0
LINE
  8
0
 10
-16.9853
 20
236.286
 11
-16.8712
 21
236.529
  0
LINE
  8
0
 10
-16.8712
 20
236.529
 11
-16.7275
 21
236.755
  0
LINE
  8
0
 10
-16.7275
 20
236.755
 11
-16.5565
 21
236.962
  0
LINE
  8
0
 10
-16.5565
 20
236.962
 11
-16.3611
 21
237.145
  0
LINE
  8
0
 10
-16.3611
 20
237.145
 11
-16.1441
 21
237.303
  0
LINE
  8
0
 10
-16.1441
 20
237.303
 11
-15.9091
 21
237.432
  0
LINE
  8
0
 10
-15.9091
 20
237.432
 11
-15.6598
 21
237.531
  0
LINE
  8
0
 10
-15.6598
 20
237.531
 11
-15.4001
 21
237.597
  0
LINE
  8
0
 10
-15.4001
 20
237.597
 11
-15.1341
 21
237.631
  0
LINE
  8
0
 10
-15.1341
 20
237.631
 11
-14.8659
 21
237.631
  0
LINE
  8
0
 10
-14.8659
 20
237.631
 11
-14.5999
 21
237.597
  0
LINE
  8
0
 10
-14.5999
 20
237.597
 11
-14.3401
 21
237.531
  0
LINE
  8
0
 10
-14.3401
 20
237.531
 11
-14.0908
 21
237.432
  0
LINE
  8
0
 10
-14.0908
 20
237.432
 11
-13.8559
 21
237.303
  0
LINE
  8
0
 10
-13.8559
 20
237.303
 11
-13.6389
 21
237.145
  0
LINE
  8
0
 10
-13.6389
 20
237.145
 11
-13.4434
 21
236.962
  0
LINE
  8
0
 10
-13.4434
 20
236.962
 11
-13.2725
 21
236.755
  0
LINE
  8
0
 10
-13.2725
 20
236.755
 11
-13.1288
 21
236.529
  0
LINE
  8
0
 10
-13.1288
 20
236.529
 11
-13.0146
 21
236.286
  0
LINE
  8
0
 10
-13.0146
 20
236.286
 11
-12.9318
 21
236.031
  0
LINE
  8
0
 10
-12.9318
 20
236.031
 11
-12.8815
 21
235.768
  0
LINE
  8
0
 10
-12.8815
 20
235.768
 11
-12.8647
 21
235.5
  0
LINE
  8
0
 10
-12.8647
 20
235.5
 11
-12.8815
 21
235.232
  0
LINE
  8
0
 10
-12.8815
 20
235.232
 11
-12.9318
 21
234.969
  0
LINE
  8
0
 10
-12.9318
 20
234.969
 11
-13.0146
 21
234.714
  0
LINE
  8
0
 10
-13.0146
 20
234.714
 11
-13.1288
 21
234.471
  0
LINE
  8
0
 10
-13.1288
 20
234.471
 11
-13.2725
 21
234.245
  0
LINE
  8
0
 10
-13.2725
 20
234.245
 11
-13.4434
 21
234.038
  0
LINE
  8
0
 10
-13.4434
 20
234.038
 11
-13.6389
 21
233.855
  0
LINE
  8
0
 10
-13.6389
 20
233.855
 11
-13.8559
 21
233.697
  0
LINE
  8
0
 10
-13.8559
 20
233.697
 11
-14.0908
 21
233.568
  0
LINE
  8
0
 10
-14.0908
 20
233.568
 11
-14.3401
 21
233.469
  0
LINE
  8
0
 10
-14.3401
 20
233.469
 11
-14.5999
 21
233.403
  0
LINE
  8
0
 10
-14.5999
 20
233.403
 11
-14.8659
 21
233.369
  0
LINE
  8
0
 10
-14.8659
 20
233.369
 11
-15.1341
 21
233.369
  0
LINE
  8
0
 10
14.8659
 20
158.369
 11
14.5999
 21
158.403
  0
LINE
  8
0
 10
14.5999
 20
158.403
 11
14.3401
 21
158.469
  0
LINE
  8
0
 10
14.3401
 20
158.469
 11
14.0908
 21
158.568
  0
LINE
  8
0
 10
14.0908
 20
158.568
 11
13.8559
 21
158.697
  0
LINE
  8
0
 10
13.8559
 20
158.697
 11
13.6389
 21
158.855
  0
LINE
  8
0
 10
13.6389
 20
158.855
 11
13.4434
 21
159.038
  0
LINE
  8
0
 10
13.4434
 20
159.038
 11
13.2725
 21
159.245
  0
LINE
  8
0
 10
13.2725
 20
159.245
 11
13.1288
 21
159.471
  0
LINE
  8
0
 10
13.1288
 20
159.471
 11
13.0146
 21
159.714
  0
LINE
  8
0
 10
13.0146
 20
159.714
 11
12.9318
 21
159.969
  0
LINE
  8
0
 10
12.9318
 20
159.969
 11
12.8815
 21
160.232
  0
LINE
  8
0
 10
12.8815
 20
160.232
 11
12.8647
 21
160.5
  0
LINE
  8
0
 10
12.8647
 20
160.5
 11
12.8815
 21
160.768
  0
LINE
  8
0
 10
12.8815
 20
160.768
 11
12.9318
 21
161.031
  0
LINE
  8
0
 10
12.9318
 20
161.031
 11
13.0146
 21
161.286
  0
LINE
  8
0
 10
13.0146
 20
161.286
 11
13.1288
 21
161.529
  0
LINE
  8
0
 10
13.1288
 20
161.529
 11
13.2725
 21
161.755
  0
LINE
  8
0
 10
13.2725
 20
161.755
 11
13.4434
 21
161.962
  0
LINE
  8
0
 10
13.4434
 20
161.962
 11
13.6389
 21
162.145
  0
LINE
  8
0
 10
13.6389
 20
162.145
 11
13.8559
 21
162.303
  0
LINE
  8
0
 10
13.8559
 20
162.303
 11
14.0908
 21
162.432
  0
LINE
  8
0
 10
14.0908
 20
162.432
 11
14.3401
 21
162.531
  0
LINE
  8
0
 10
14.3401
 20
162.531
 11
14.5999
 21
162.597
  0
LINE
  8
0
 10
14.5999
 20
162.597
 11
14.8659
 21
162.631
  0
LINE
  8
0
 10
14.8659
 20
162.631
 11
15.1341
 21
162.631
  0
LINE
  8
0
 10
15.1341
 20
162.631
 11
15.4001
 21
162.597
  0
LINE
  8
0
 10
15.4001
 20
162.597
 11
15.6598
 21
162.531
  0
LINE
  8
0
 10
15.6598
 20
162.531
 11
15.9091
 21
162.432
  0
LINE
  8
0
 10
15.9091
 20
162.432
 11
16.1441
 21
162.303
  0
LINE
  8
0
 10
16.1441
 20
162.303
 11
16.3611
 21
162.145
  0
LINE
  8
0
 10
16.3611
 20
162.145
 11
16.5565
 21
161.962
  0
LINE
  8
0
 10
16.5565
 20
161.962
 11
16.7275
 21
161.755
  0
LINE
  8
0
 10
16.7275
 20
161.755
 11
16.8712
 21
161.529
  0
LINE
  8
0
 10
16.8712
 20
161.529
 11
16.9853
 21
161.286
  0
LINE
  8
0
 10
16.9853
 20
161.286
 11
17.0682
 21
161.031
  0
LINE
  8
0
 10
17.0682
 20
161.031
 11
17.1185
 21
160.768
  0
LINE
  8
0
 10
17.1185
 20
160.768
 11
17.1353
 21
160.5
  0
LINE
  8
0
 10
17.1353
 20
160.5
 11
17.1185
 21
160.232
  0
LINE
  8
0
 10
17.1185
 20
160.232
 11
17.0682
 21
159.969
  0
LINE
  8
0
 10
17.0682
 20
159.969
 11
16.9853
 21
159.714
  0
LINE
  8
0
 10
16.9853
 20
159.714
 11
16.8712
 21
159.471
  0
LINE
  8
0
 10
16.8712
 20
159.471
 11
16.7275
 21
159.245
  0
LINE
  8
0
 10
16.7275
 20
159.245
 11
16.5565
 21
159.038
  0
LINE
  8
0
 10
16.5565
 20
159.038
 11
16.3611
 21
158.855
  0
LINE
  8
0
 10
16.3611
 20
158.855
 11
16.1441
 21
158.697
  0
LINE
  8
0
 10
16.1441
 20
158.697
 11
15.9091
 21
158.568
  0
LINE
  8
0
 10
15.9091
 20
158.568
 11
15.6598
 21
158.469
  0
LINE
  8
0
 10
15.6598
 20
158.469
 11
15.4001
 21
158.403
  0
LINE
  8
0
 10
15.4001
 20
158.403
 11
15.1341
 21
158.369
  0
LINE
  8
0
 10
15.1341
 20
158.369
 11
14.8659
 21
158.369
  0
LINE
  8
0
 10
-15.1341
 20
158.369
 11
-15.4001
 21
158.403
  0
LINE
  8
0
 10
-15.4001
 20
158.403
 11
-15.6598
 21
158.469
  0
LINE
  8
0
 10
-15.6598
 20
158.469
 11
-15.9091
 21
158.568
  0
LINE
  8
0
 10
-15.9091
 20
158.568
 11
-16.1441
 21
158.697
  0
LINE
  8
0
 10
-16.1441
 20
158.697
 11
-16.3611
 21
158.855
  0
LINE
  8
0
 10
-16.3611
 20
158.855
 11
-16.5565
 21
159.038
  0
LINE
  8
0
 10
-16.5565
 20
159.038
 11
-16.7275
 21
159.245
  0
LINE
  8
0
 10
-16.7275
 20
159.245
 11
-16.8712
 21
159.471
  0
LINE
  8
0
 10
-16.8712
 20
159.471
 11
-16.9853
 21
159.714
  0
LINE
  8
0
 10
-16.9853
 20
159.714
 11
-17.0682
 21
159.969
  0
LINE
  8
0
 10
-17.0682
 20
159.969
 11
-17.1185
 21
160.232
  0
LINE
  8
0
 10
-17.1185
 20
160.232
 11
-17.1353
 21
160.5
  0
LINE
  8
0
 10
-17.1353
 20
160.5
 11
-17.1185
 21
160.768
  0
LINE
  8
0
 10
-17.1185
 20
160.768
 11
-17.0682
 21
161.031
  0
LINE
  8
0
 10
-17.0682
 20
161.031
 11
-16.9853
 21
161.286
  0
LINE
  8
0
 10
-16.9853
 20
161.286
 11
-16.8712
 21
161.529
  0
LINE
  8
0
 10
-16.8712
 20
161.529
 11
-16.7275
 21
161.755
  0
LINE
  8
0
 10
-16.7275
 20
161.755
 11
-16.5565
 21
161.962
  0
LINE
  8
0
 10
-16.5565
 20
161.962
 11
-16.3611
 21
162.145
  0
LINE
  8
0
 10
-16.3611
 20
162.145
 11
-16.1441
 21
162.303
  0
LINE
  8
0
 10
-16.1441
 20
162.303
 11
-15.9091
 21
162.432
  0
LINE
  8
0
 10
-15.9091
 20
162.432
 11
-15.6598
 21
162.531
  0
LINE
  8
0
 10
-15.6598
 20
162.531
 11
-15.4001
 21
162.597
  0
LINE
  8
0
 10
-15.4001
 20
162.597
 11
-15.1341
 21
162.631
  0
LINE
  8
0
 10
-15.1341
 20
162.631
 11
-14.8659
 21
162.631
  0
LINE
  8
0
 10
-14.8659
 20
162.631
 11
-14.5999
 21
162.597
  0
LINE
  8
0
 10
-14.5999
 20
162.597
 11
-14.3401
 21
162.531
  0
LINE
  8
0
 10
-14.3401
 20
162.531
 11
-14.0908
 21
162.432
  0
LINE
  8
0
 10
-14.0908
 20
162.432
 11
-13.8559
 21
162.303
  0
LINE
  8
0
 10
-13.8559
 20
162.303
 11
-13.6389
 21
162.145
  0
LINE
  8
0
 10
-13.6389
 20
162.145
 11
-13.4434
 21
161.962
  0
LINE
  8
0
 10
-13.4434
 20
161.962
 11
-13.2725
 21
161.755
  0
LINE
  8
0
 10
-13.2725
 20
161.755
 11
-13.1288
 21
161.529
  0
LINE
  8
0
 10
-13.1288
 20
161.529
 11
-13.0146
 21
161.286
  0
LINE
  8
0
 10
-13.0146
 20
161.286
 11
-12.9318
 21
161.031
  0
LINE
  8
0
 10
-12.9318
 20
161.031
 11
-12.8815
 21
160.768
  0
LINE
  8
0
 10
-12.8815
 20
160.768
 11
-12.8647
 21
160.5
  0
LINE
  8
0
 10
-12.8647
 20
160.5
 11
-12.8815
 21
160.232
  0
LINE
  8
0
 10
-12.8815
 20
160.232
 11
-12.9318
 21
159.969
  0
LINE
  8
0
 10
-12.9318
 20
159.969
 11
-13.0146
 21
159.714
  0
LINE
  8
0
 10
-13.0146
 20
159.714
 11
-13.1288
 21
159.471
  0
LINE
  8
0
 10
-13.1288
 20
159.471
 11
-13.2725
 21
159.245
  0
LINE
  8
0
 10
-13.2725
 20
159.245
 11
-13.4434
 21
159.038
  0
LINE
  8
0
 10
-13.4434
 20
159.038
 11
-13.6389
 21
158.855
  0
LINE
  8
0
 10
-13.6389
 20
158.855
 11
-13.8559
 21
158.697
  0
LINE
  8
0
 10
-13.8559
 20
158.697
 11
-14.0908
 21
158.568
  0
LINE
  8
0
 10
-14.0908
 20
158.568
 11
-14.3401
 21
158.469
  0
LINE
  8
0
 10
-14.3401
 20
158.469
 11
-14.5999
 21
158.403
  0
LINE
  8
0
 10
-14.5999
 20
158.403
 11
-14.8659
 21
158.369
  0
LINE
  8
0
 10
-14.8659
 20
158.369
 11
-15.1341
 21
158.369
  0
ENDSEC
  0
SECTION
  2
OBJECTS
  0
DICTIONARY
  0
ENDSEC
  0
EOF
