<?xml version="1.0" standalone="no"?>
<!DOCTYPE svg PUBLIC "-//W3C//DTD SVG 1.1//EN" "http://www.w3.org/Graphics/SVG/1.1/DTD/svg11.dtd">
<svg width="62mm" height="100mm" viewBox="-32 -185 62 100" xmlns="http://www.w3.org/2000/svg" version="1.1">
<title>OpenSCAD Model</title>
<path d="
M 25.9369,-139.589 L 26.5451,-139.745 L 27.1289,-139.976 L 27.6791,-140.278 L 28.1871,-140.647 L 28.6448,-141.077
 L 29.0451,-141.561 L 29.3815,-142.091 L 29.6489,-142.659 L 29.8429,-143.257 L 29.9606,-143.873 L 30,-144.5
 L 30,-179.5 L 29.9606,-180.127 L 29.8429,-180.743 L 29.6489,-181.341 L 29.3815,-181.909 L 29.0451,-182.439
 L 28.6448,-182.923 L 28.1871,-183.353 L 27.6791,-183.722 L 27.1289,-184.024 L 26.5451,-184.255 L 25.9369,-184.411
 L 25.3139,-184.49 L -25.3139,-184.49 L -25.9369,-184.411 L -26.5451,-184.255 L -27.1289,-184.024 L -27.6791,-183.722
 L -28.1871,-183.353 L -28.5,-183.059 L -28.5,-184.479 L -31.5,-184.479 L -31.5,-139.521 L -28.5,-139.521
 L -28.5,-140.941 L -28.1871,-140.647 L -27.6791,-140.278 L -27.1289,-139.976 L -26.5451,-139.745 L -25.9369,-139.589
 L -25.3139,-139.51 L 25.3139,-139.51 z
M -24.6954,-141.893 L -25.0833,-141.942 L -25.4619,-142.039 L -25.8254,-142.183 L -26.168,-142.372 L -26.4842,-142.601
 L -26.7692,-142.869 L -27.0184,-143.17 L -27.2279,-143.5 L -27.3943,-143.854 L -27.5151,-144.226 L -27.5884,-144.61
 L -27.6129,-145 L -27.6129,-179 L -27.5884,-179.39 L -27.5151,-179.774 L -27.3943,-180.146 L -27.2279,-180.5
 L -27.0184,-180.83 L -26.7692,-181.131 L -26.4842,-181.399 L -26.168,-181.628 L -25.8254,-181.817 L -25.4619,-181.961
 L -25.0833,-182.058 L -24.6954,-182.107 L 24.6954,-182.107 L 25.0833,-182.058 L 25.4619,-181.961 L 25.8254,-181.817
 L 26.168,-181.628 L 26.4842,-181.399 L 26.7692,-181.131 L 27.0184,-180.83 L 27.2279,-180.5 L 27.3943,-180.146
 L 27.5151,-179.774 L 27.5884,-179.39 L 27.6129,-179 L 27.6129,-145 L 27.5884,-144.61 L 27.5151,-144.226
 L 27.3943,-143.854 L 27.2279,-143.5 L 27.0184,-143.17 L 26.7692,-142.869 L 26.4842,-142.601 L 26.168,-142.372
 L 25.8254,-142.183 L 25.4619,-142.039 L 25.0833,-141.942 L 24.6954,-141.893 z
M 25.9369,-85.5886 L 26.5451,-85.7447 L 27.1289,-85.9759 L 27.6791,-86.2784 L 28.1871,-86.6474 L 28.6448,-87.0773
 L 29.0451,-87.5611 L 29.3815,-88.0912 L 29.6489,-88.6594 L 29.8429,-89.2566 L 29.9606,-89.8733 L 30,-90.5
 L 30,-125.5 L 29.9606,-126.127 L 29.8429,-126.743 L 29.6489,-127.341 L 29.3815,-127.909 L 29.0451,-128.439
 L 28.6448,-128.923 L 28.1871,-129.353 L 27.6791,-129.722 L 27.1289,-130.024 L 26.5451,-130.255 L 25.9369,-130.411
 L 25.3139,-130.49 L -25.3139,-130.49 L -25.9369,-130.411 L -26.5451,-130.255 L -27.1289,-130.024 L -27.6791,-129.722
 L -28.1871,-129.353 L -28.5,-129.059 L -28.5,-129.153 L -31.5,-129.153 L -31.5,-86.8474 L -28.5,-86.8474
 L -28.5,-86.9413 L -28.1871,-86.6474 L -27.6791,-86.2784 L -27.1289,-85.9759 L -26.5451,-85.7447 L -25.9369,-85.5886
 L -25.3139,-85.5099 L 25.3139,-85.5099 z
M 22.3659,-120.869 L 22.0999,-120.903 L 21.8401,-120.969 L 21.5908,-121.068 L 21.3559,-121.197 L 21.1389,-121.355
 L 20.9434,-121.538 L 20.7725,-121.745 L 20.6288,-121.971 L 20.5146,-122.214 L 20.4318,-122.469 L 20.3815,-122.732
 L 20.3647,-123 L 20.3815,-123.268 L 20.4318,-123.531 L 20.5146,-123.786 L 20.6288,-124.029 L 20.7725,-124.255
 L 20.9434,-124.462 L 21.1389,-124.645 L 21.3559,-124.803 L 21.5908,-124.932 L 21.8401,-125.031 L 22.0999,-125.097
 L 22.3659,-125.131 L 22.6341,-125.131 L 22.9001,-125.097 L 23.1598,-125.031 L 23.4091,-124.932 L 23.6441,-124.803
 L 23.8611,-124.645 L 24.0565,-124.462 L 24.2275,-124.255 L 24.3712,-124.029 L 24.4853,-123.786 L 24.5682,-123.531
 L 24.6185,-123.268 L 24.6353,-123 L 24.6185,-122.732 L 24.5682,-122.469 L 24.4853,-122.214 L 24.3712,-121.971
 L 24.2275,-121.745 L 24.0565,-121.538 L 23.8611,-121.355 L 23.6441,-121.197 L 23.4091,-121.068 L 23.1598,-120.969
 L 22.9001,-120.903 L 22.6341,-120.869 z
M -22.6341,-120.869 L -22.9001,-120.903 L -23.1598,-120.969 L -23.4091,-121.068 L -23.6441,-121.197 L -23.8611,-121.355
 L -24.0565,-121.538 L -24.2275,-121.745 L -24.3712,-121.971 L -24.4853,-122.214 L -24.5682,-122.469 L -24.6185,-122.732
 L -24.6353,-123 L -24.6185,-123.268 L -24.5682,-123.531 L -24.4853,-123.786 L -24.3712,-124.029 L -24.2275,-124.255
 L -24.0565,-124.462 L -23.8611,-124.645 L -23.6441,-124.803 L -23.4091,-124.932 L -23.1598,-125.031 L -22.9001,-125.097
 L -22.6341,-125.131 L -22.3659,-125.131 L -22.0999,-125.097 L -21.8401,-125.031 L -21.5908,-124.932 L -21.3559,-124.803
 L -21.1389,-124.645 L -20.9434,-124.462 L -20.7725,-124.255 L -20.6288,-124.029 L -20.5146,-123.786 L -20.4318,-123.531
 L -20.3815,-123.268 L -20.3647,-123 L -20.3815,-122.732 L -20.4318,-122.469 L -20.5146,-122.214 L -20.6288,-121.971
 L -20.7725,-121.745 L -20.9434,-121.538 L -21.1389,-121.355 L -21.3559,-121.197 L -21.5908,-121.068 L -21.8401,-120.969
 L -22.0999,-120.903 L -22.3659,-120.869 z
M 22.3659,-90.8689 L 22.0999,-90.9025 L 21.8401,-90.9692 L 21.5908,-91.0679 L 21.3559,-91.1971 L 21.1389,-91.3547
 L 20.9434,-91.5383 L 20.7725,-91.7449 L 20.6288,-91.9713 L 20.5146,-92.214 L 20.4318,-92.469 L 20.3815,-92.7324
 L 20.3647,-93 L 20.3815,-93.2676 L 20.4318,-93.531 L 20.5146,-93.7861 L 20.6288,-94.0287 L 20.7725,-94.2551
 L 20.9434,-94.4617 L 21.1389,-94.6453 L 21.3559,-94.8029 L 21.5908,-94.9321 L 21.8401,-95.0308 L 22.0999,-95.0975
 L 22.3659,-95.1311 L 22.6341,-95.1311 L 22.9001,-95.0975 L 23.1598,-95.0308 L 23.4091,-94.9321 L 23.6441,-94.8029
 L 23.8611,-94.6453 L 24.0565,-94.4617 L 24.2275,-94.2551 L 24.3712,-94.0287 L 24.4853,-93.7861 L 24.5682,-93.531
 L 24.6185,-93.2676 L 24.6353,-93 L 24.6185,-92.7324 L 24.5682,-92.469 L 24.4853,-92.214 L 24.3712,-91.9713
 L 24.2275,-91.7449 L 24.0565,-91.5383 L 23.8611,-91.3547 L 23.6441,-91.1971 L 23.4091,-91.0679 L 23.1598,-90.9692
 L 22.9001,-90.9025 L 22.6341,-90.8689 z
M -22.6341,-90.8689 L -22.9001,-90.9025 L -23.1598,-90.9692 L -23.4091,-91.0679 L -23.6441,-91.1971 L -23.8611,-91.3547
 L -24.0565,-91.5383 L -24.2275,-91.7449 L -24.3712,-91.9713 L -24.4853,-92.214 L -24.5682,-92.469 L -24.6185,-92.7324
 L -24.6353,-93 L -24.6185,-93.2676 L -24.5682,-93.531 L -24.4853,-93.7861 L -24.3712,-94.0287 L -24.2275,-94.2551
 L -24.0565,-94.4617 L -23.8611,-94.6453 L -23.6441,-94.8029 L -23.4091,-94.9321 L -23.1598,-95.0308 L -22.9001,-95.0975
 L -22.6341,-95.1311 L -22.3659,-95.1311 L -22.0999,-95.0975 L -21.8401,-95.0308 L -21.5908,-94.9321 L -21.3559,-94.8029
 L -21.1389,-94.6453 L -20.9434,-94.4617 L -20.7725,-94.2551 L -20.6288,-94.0287 L -20.5146,-93.7861 L -20.4318,-93.531
 L -20.3815,-93.2676 L -20.3647,-93 L -20.3815,-92.7324 L -20.4318,-92.469 L -20.5146,-92.214 L -20.6288,-91.9713
 L -20.7725,-91.7449 L -20.9434,-91.5383 L -21.1389,-91.3547 L -21.3559,-91.1971 L -21.5908,-91.0679 L -21.8401,-90.9692
 L -22.0999,-90.9025 L -22.3659,-90.8689 z
" stroke="black" fill="lightgray" stroke-width="0.5"/>
</svg>
