<?xml version="1.0" standalone="no"?>
<!DOCTYPE svg PUBLIC "-//W3C//DTD SVG 1.1//EN" "http://www.w3.org/Graphics/SVG/1.1/DTD/svg11.dtd">
<svg width="182mm" height="69mm" viewBox="-92 -132 182 69" xmlns="http://www.w3.org/2000/svg" version="1.1">
<title>OpenSCAD Model</title>
<path d="
M 85.9369,-102.089 L 86.5451,-102.245 L 87.1289,-102.476 L 87.6791,-102.778 L 88.1871,-103.147 L 88.6448,-103.577
 L 89.0451,-104.061 L 89.3815,-104.591 L 89.6489,-105.159 L 89.8429,-105.757 L 89.9606,-106.373 L 90,-107
 L 90,-127 L 89.9606,-127.627 L 89.8429,-128.243 L 89.6489,-128.841 L 89.3815,-129.409 L 89.0451,-129.939
 L 88.6448,-130.423 L 88.1871,-130.853 L 87.6791,-131.222 L 87.1289,-131.524 L 86.5451,-131.755 L 85.9369,-131.911
 L 85.3139,-131.99 L -85.3139,-131.99 L -85.9369,-131.911 L -86.5451,-131.755 L -87.1289,-131.524 L -87.6791,-131.222
 L -88.1871,-130.853 L -88.5,-130.559 L -88.5,-131.979 L -91.5,-131.979 L -91.5,-102.021 L -88.5,-102.021
 L -88.5,-103.441 L -88.1871,-103.147 L -87.6791,-102.778 L -87.1289,-102.476 L -86.5451,-102.245 L -85.9369,-102.089
 L -85.3139,-102.01 L 85.3139,-102.01 z
M -84.6955,-104.393 L -85.0833,-104.442 L -85.4619,-104.539 L -85.8254,-104.683 L -86.168,-104.872 L -86.4843,-105.101
 L -86.7692,-105.369 L -87.0184,-105.67 L -87.2279,-106 L -87.3943,-106.354 L -87.5151,-106.726 L -87.5884,-107.11
 L -87.6129,-107.5 L -87.6129,-126.5 L -87.5884,-126.89 L -87.5151,-127.274 L -87.3943,-127.646 L -87.2279,-128
 L -87.0184,-128.33 L -86.7692,-128.631 L -86.4843,-128.899 L -86.168,-129.128 L -85.8254,-129.317 L -85.4619,-129.461
 L -85.0833,-129.558 L -84.6955,-129.607 L 84.6955,-129.607 L 85.0833,-129.558 L 85.4619,-129.461 L 85.8254,-129.317
 L 86.168,-129.128 L 86.4843,-128.899 L 86.7692,-128.631 L 87.0184,-128.33 L 87.2279,-128 L 87.3943,-127.646
 L 87.5151,-127.274 L 87.5884,-126.89 L 87.6129,-126.5 L 87.6129,-107.5 L 87.5884,-107.11 L 87.5151,-106.726
 L 87.3943,-106.354 L 87.2279,-106 L 87.0184,-105.67 L 86.7692,-105.369 L 86.4843,-105.101 L 86.168,-104.872
 L 85.8254,-104.683 L 85.4619,-104.539 L 85.0833,-104.442 L 84.6955,-104.393 z
M 85.9369,-63.0886 L 86.5451,-63.2447 L 87.1289,-63.4759 L 87.6791,-63.7784 L 88.1871,-64.1474 L 88.6448,-64.5773
 L 89.0451,-65.0611 L 89.3815,-65.5912 L 89.6489,-66.1594 L 89.8429,-66.7566 L 89.9606,-67.3733 L 90,-68
 L 90,-88 L 89.9606,-88.6267 L 89.8429,-89.2434 L 89.6489,-89.8406 L 89.3815,-90.4088 L 89.0451,-90.9389
 L 88.6448,-91.4227 L 88.1871,-91.8526 L 87.6791,-92.2216 L 87.1289,-92.5241 L 86.5451,-92.7553 L 85.9369,-92.9114
 L 85.3139,-92.9901 L -85.3139,-92.9901 L -85.9369,-92.9114 L -86.5451,-92.7553 L -87.1289,-92.5241 L -87.6791,-92.2216
 L -88.1871,-91.8526 L -88.5,-91.5587 L -88.5,-91.6526 L -91.5,-91.6526 L -91.5,-64.3474 L -88.5,-64.3474
 L -88.5,-64.4413 L -88.1871,-64.1474 L -87.6791,-63.7784 L -87.1289,-63.4759 L -86.5451,-63.2447 L -85.9369,-63.0886
 L -85.3139,-63.0099 L 85.3139,-63.0099 z
M 82.3659,-83.3689 L 82.0999,-83.4025 L 81.8401,-83.4692 L 81.5908,-83.5679 L 81.3559,-83.6971 L 81.1389,-83.8547
 L 80.9434,-84.0383 L 80.7725,-84.2449 L 80.6288,-84.4713 L 80.5146,-84.7139 L 80.4318,-84.969 L 80.3815,-85.2324
 L 80.3647,-85.5 L 80.3815,-85.7676 L 80.4318,-86.031 L 80.5146,-86.286 L 80.6288,-86.5287 L 80.7725,-86.7551
 L 80.9434,-86.9617 L 81.1389,-87.1453 L 81.3559,-87.3029 L 81.5908,-87.4321 L 81.8401,-87.5308 L 82.0999,-87.5975
 L 82.3659,-87.6311 L 82.6341,-87.6311 L 82.9001,-87.5975 L 83.1598,-87.5308 L 83.4092,-87.4321 L 83.6441,-87.3029
 L 83.8611,-87.1453 L 84.0566,-86.9617 L 84.2275,-86.7551 L 84.3712,-86.5287 L 84.4853,-86.286 L 84.5682,-86.031
 L 84.6185,-85.7676 L 84.6353,-85.5 L 84.6185,-85.2324 L 84.5682,-84.969 L 84.4853,-84.7139 L 84.3712,-84.4713
 L 84.2275,-84.2449 L 84.0566,-84.0383 L 83.8611,-83.8547 L 83.6441,-83.6971 L 83.4092,-83.5679 L 83.1598,-83.4692
 L 82.9001,-83.4025 L 82.6341,-83.3689 z
M -82.6341,-83.3689 L -82.9001,-83.4025 L -83.1598,-83.4692 L -83.4092,-83.5679 L -83.6441,-83.6971 L -83.8611,-83.8547
 L -84.0566,-84.0383 L -84.2275,-84.2449 L -84.3712,-84.4713 L -84.4853,-84.7139 L -84.5682,-84.969 L -84.6185,-85.2324
 L -84.6353,-85.5 L -84.6185,-85.7676 L -84.5682,-86.031 L -84.4853,-86.286 L -84.3712,-86.5287 L -84.2275,-86.7551
 L -84.0566,-86.9617 L -83.8611,-87.1453 L -83.6441,-87.3029 L -83.4092,-87.4321 L -83.1598,-87.5308 L -82.9001,-87.5975
 L -82.6341,-87.6311 L -82.3659,-87.6311 L -82.0999,-87.5975 L -81.8401,-87.5308 L -81.5908,-87.4321 L -81.3559,-87.3029
 L -81.1389,-87.1453 L -80.9434,-86.9617 L -80.7725,-86.7551 L -80.6288,-86.5287 L -80.5146,-86.286 L -80.4318,-86.031
 L -80.3815,-85.7676 L -80.3647,-85.5 L -80.3815,-85.2324 L -80.4318,-84.969 L -80.5146,-84.7139 L -80.6288,-84.4713
 L -80.7725,-84.2449 L -80.9434,-84.0383 L -81.1389,-83.8547 L -81.3559,-83.6971 L -81.5908,-83.5679 L -81.8401,-83.4692
 L -82.0999,-83.4025 L -82.3659,-83.3689 z
M 82.3659,-68.3689 L 82.0999,-68.4025 L 81.8401,-68.4692 L 81.5908,-68.5679 L 81.3559,-68.6971 L 81.1389,-68.8547
 L 80.9434,-69.0383 L 80.7725,-69.2449 L 80.6288,-69.4713 L 80.5146,-69.714 L 80.4318,-69.969 L 80.3815,-70.2324
 L 80.3647,-70.5 L 80.3815,-70.7676 L 80.4318,-71.031 L 80.5146,-71.2861 L 80.6288,-71.5287 L 80.7725,-71.7551
 L 80.9434,-71.9617 L 81.1389,-72.1453 L 81.3559,-72.3029 L 81.5908,-72.4321 L 81.8401,-72.5308 L 82.0999,-72.5975
 L 82.3659,-72.6311 L 82.6341,-72.6311 L 82.9001,-72.5975 L 83.1598,-72.5308 L 83.4092,-72.4321 L 83.6441,-72.3029
 L 83.8611,-72.1453 L 84.0566,-71.9617 L 84.2275,-71.7551 L 84.3712,-71.5287 L 84.4853,-71.2861 L 84.5682,-71.031
 L 84.6185,-70.7676 L 84.6353,-70.5 L 84.6185,-70.2324 L 84.5682,-69.969 L 84.4853,-69.714 L 84.3712,-69.4713
 L 84.2275,-69.2449 L 84.0566,-69.0383 L 83.8611,-68.8547 L 83.6441,-68.6971 L 83.4092,-68.5679 L 83.1598,-68.4692
 L 82.9001,-68.4025 L 82.6341,-68.3689 z
M -82.6341,-68.3689 L -82.9001,-68.4025 L -83.1598,-68.4692 L -83.4092,-68.5679 L -83.6441,-68.6971 L -83.8611,-68.8547
 L -84.0566,-69.0383 L -84.2275,-69.2449 L -84.3712,-69.4713 L -84.4853,-69.714 L -84.5682,-69.969 L -84.6185,-70.2324
 L -84.6353,-70.5 L -84.6185,-70.7676 L -84.5682,-71.031 L -84.4853,-71.2861 L -84.3712,-71.5287 L -84.2275,-71.7551
 L -84.0566,-71.9617 L -83.8611,-72.1453 L -83.6441,-72.3029 L -83.4092,-72.4321 L -83.1598,-72.5308 L -82.9001,-72.5975
 L -82.6341,-72.6311 L -82.3659,-72.6311 L -82.0999,-72.5975 L -81.8401,-72.5308 L -81.5908,-72.4321 L -81.3559,-72.3029
 L -81.1389,-72.1453 L -80.9434,-71.9617 L -80.7725,-71.7551 L -80.6288,-71.5287 L -80.5146,-71.2861 L -80.4318,-71.031
 L -80.3815,-70.7676 L -80.3647,-70.5 L -80.3815,-70.2324 L -80.4318,-69.969 L -80.5146,-69.714 L -80.6288,-69.4713
 L -80.7725,-69.2449 L -80.9434,-69.0383 L -81.1389,-68.8547 L -81.3559,-68.6971 L -81.5908,-68.5679 L -81.8401,-68.4692
 L -82.0999,-68.4025 L -82.3659,-68.3689 z
" stroke="black" fill="lightgray" stroke-width="0.5"/>
</svg>
