  0
SECTION
  2
BLOCKS
  0
ENDSEC
  0
SECTION
  2
ENTITIES
  0
LINE
  8
0
 10
3.4369
 20
298.589
 11
4.04507
 21
298.745
  0
LINE
  8
0
 10
4.04507
 20
298.745
 11
4.62889
 21
298.976
  0
LINE
  8
0
 10
4.62889
 20
298.976
 11
5.17912
 21
299.278
  0
LINE
  8
0
 10
5.17912
 20
299.278
 11
5.68712
 21
299.647
  0
LINE
  8
0
 10
5.68712
 20
299.647
 11
6.14484
 21
300.077
  0
LINE
  8
0
 10
6.14484
 20
300.077
 11
6.54507
 21
300.561
  0
LINE
  8
0
 10
6.54507
 20
300.561
 11
6.88153
 21
301.091
  0
LINE
  8
0
 10
6.88153
 20
301.091
 11
7.14888
 21
301.659
  0
LINE
  8
0
 10
7.14888
 20
301.659
 11
7.34291
 21
302.257
  0
LINE
  8
0
 10
7.34291
 20
302.257
 11
7.46057
 21
302.873
  0
LINE
  8
0
 10
7.46057
 20
302.873
 11
7.5
 21
303.5
  0
LINE
  8
0
 10
7.5
 20
303.5
 11
7.5
 21
368.5
  0
LINE
  8
0
 10
7.5
 20
368.5
 11
7.46057
 21
369.127
  0
LINE
  8
0
 10
7.46057
 20
369.127
 11
7.34291
 21
369.743
  0
LINE
  8
0
 10
7.34291
 20
369.743
 11
7.14888
 21
370.341
  0
LINE
  8
0
 10
7.14888
 20
370.341
 11
6.88153
 21
370.909
  0
LINE
  8
0
 10
6.88153
 20
370.909
 11
6.54507
 21
371.439
  0
LINE
  8
0
 10
6.54507
 20
371.439
 11
6.14484
 21
371.923
  0
LINE
  8
0
 10
6.14484
 20
371.923
 11
5.68712
 21
372.353
  0
LINE
  8
0
 10
5.68712
 20
372.353
 11
5.17912
 21
372.722
  0
LINE
  8
0
 10
5.17912
 20
372.722
 11
4.62889
 21
373.024
  0
LINE
  8
0
 10
4.62889
 20
373.024
 11
4.04507
 21
373.255
  0
LINE
  8
0
 10
4.04507
 20
373.255
 11
3.4369
 21
373.411
  0
LINE
  8
0
 10
3.4369
 20
373.411
 11
2.81395
 21
373.49
  0
LINE
  8
0
 10
2.81395
 20
373.49
 11
-2.81395
 21
373.49
  0
LINE
  8
0
 10
-2.81395
 20
373.49
 11
-3.4369
 21
373.411
  0
LINE
  8
0
 10
-3.4369
 20
373.411
 11
-4.04507
 21
373.255
  0
LINE
  8
0
 10
-4.04507
 20
373.255
 11
-4.62889
 21
373.024
  0
LINE
  8
0
 10
-4.62889
 20
373.024
 11
-5.17912
 21
372.722
  0
LINE
  8
0
 10
-5.17912
 20
372.722
 11
-5.68712
 21
372.353
  0
LINE
  8
0
 10
-5.68712
 20
372.353
 11
-6.14484
 21
371.923
  0
LINE
  8
0
 10
-6.14484
 20
371.923
 11
-6.54507
 21
371.439
  0
LINE
  8
0
 10
-6.54507
 20
371.439
 11
-6.88153
 21
370.909
  0
LINE
  8
0
 10
-6.88153
 20
370.909
 11
-7.14888
 21
370.341
  0
LINE
  8
0
 10
-7.14888
 20
370.341
 11
-7.34291
 21
369.743
  0
LINE
  8
0
 10
-7.34291
 20
369.743
 11
-7.46057
 21
369.127
  0
LINE
  8
0
 10
-7.46057
 20
369.127
 11
-7.5
 21
368.5
  0
LINE
  8
0
 10
-7.5
 20
368.5
 11
-7.5
 21
303.5
  0
LINE
  8
0
 10
-7.5
 20
303.5
 11
-7.46057
 21
302.873
  0
LINE
  8
0
 10
-7.46057
 20
302.873
 11
-7.34291
 21
302.257
  0
LINE
  8
0
 10
-7.34291
 20
302.257
 11
-7.14888
 21
301.659
  0
LINE
  8
0
 10
-7.14888
 20
301.659
 11
-6.88153
 21
301.091
  0
LINE
  8
0
 10
-6.88153
 20
301.091
 11
-6.54507
 21
300.561
  0
LINE
  8
0
 10
-6.54507
 20
300.561
 11
-6.14484
 21
300.077
  0
LINE
  8
0
 10
-6.14484
 20
300.077
 11
-5.68712
 21
299.647
  0
LINE
  8
0
 10
-5.68712
 20
299.647
 11
-5.17912
 21
299.278
  0
LINE
  8
0
 10
-5.17912
 20
299.278
 11
-4.62889
 21
298.976
  0
LINE
  8
0
 10
-4.62889
 20
298.976
 11
-4.04507
 21
298.745
  0
LINE
  8
0
 10
-4.04507
 20
298.745
 11
-3.4369
 21
298.589
  0
LINE
  8
0
 10
-3.4369
 20
298.589
 11
-2.81395
 21
298.51
  0
LINE
  8
0
 10
-2.81395
 20
298.51
 11
2.81395
 21
298.51
  0
LINE
  8
0
 10
2.81395
 20
298.51
 11
3.4369
 21
298.589
  0
LINE
  8
0
 10
-2.24316
 20
300.135
 11
-2.72565
 21
300.196
  0
LINE
  8
0
 10
-2.72565
 20
300.196
 11
-3.1967
 21
300.317
  0
LINE
  8
0
 10
-3.1967
 20
300.317
 11
-3.64888
 21
300.496
  0
LINE
  8
0
 10
-3.64888
 20
300.496
 11
-4.07506
 21
300.73
  0
LINE
  8
0
 10
-4.07506
 20
300.73
 11
-4.46851
 21
301.016
  0
LINE
  8
0
 10
-4.46851
 20
301.016
 11
-4.82301
 21
301.349
  0
LINE
  8
0
 10
-4.82301
 20
301.349
 11
-5.13301
 21
301.724
  0
LINE
  8
0
 10
-5.13301
 20
301.724
 11
-5.3936
 21
302.134
  0
LINE
  8
0
 10
-5.3936
 20
302.134
 11
-5.60068
 21
302.574
  0
LINE
  8
0
 10
-5.60068
 20
302.574
 11
-5.75096
 21
303.037
  0
LINE
  8
0
 10
-5.75096
 20
303.037
 11
-5.84209
 21
303.515
  0
LINE
  8
0
 10
-5.84209
 20
303.515
 11
-5.87262
 21
304
  0
LINE
  8
0
 10
-5.87262
 20
304
 11
-5.87262
 21
368
  0
LINE
  8
0
 10
-5.87262
 20
368
 11
-5.84209
 21
368.485
  0
LINE
  8
0
 10
-5.84209
 20
368.485
 11
-5.75096
 21
368.963
  0
LINE
  8
0
 10
-5.75096
 20
368.963
 11
-5.60068
 21
369.426
  0
LINE
  8
0
 10
-5.60068
 20
369.426
 11
-5.3936
 21
369.866
  0
LINE
  8
0
 10
-5.3936
 20
369.866
 11
-5.13301
 21
370.276
  0
LINE
  8
0
 10
-5.13301
 20
370.276
 11
-4.82301
 21
370.651
  0
LINE
  8
0
 10
-4.82301
 20
370.651
 11
-4.46851
 21
370.984
  0
LINE
  8
0
 10
-4.46851
 20
370.984
 11
-4.07506
 21
371.27
  0
LINE
  8
0
 10
-4.07506
 20
371.27
 11
-3.64888
 21
371.504
  0
LINE
  8
0
 10
-3.64888
 20
371.504
 11
-3.1967
 21
371.683
  0
LINE
  8
0
 10
-3.1967
 20
371.683
 11
-2.72565
 21
371.804
  0
LINE
  8
0
 10
-2.72565
 20
371.804
 11
-2.24316
 21
371.865
  0
LINE
  8
0
 10
-2.24316
 20
371.865
 11
2.24316
 21
371.865
  0
LINE
  8
0
 10
2.24316
 20
371.865
 11
2.72565
 21
371.804
  0
LINE
  8
0
 10
2.72565
 20
371.804
 11
3.1967
 21
371.683
  0
LINE
  8
0
 10
3.1967
 20
371.683
 11
3.64888
 21
371.504
  0
LINE
  8
0
 10
3.64888
 20
371.504
 11
4.07506
 21
371.27
  0
LINE
  8
0
 10
4.07506
 20
371.27
 11
4.46851
 21
370.984
  0
LINE
  8
0
 10
4.46851
 20
370.984
 11
4.82301
 21
370.651
  0
LINE
  8
0
 10
4.82301
 20
370.651
 11
5.13301
 21
370.276
  0
LINE
  8
0
 10
5.13301
 20
370.276
 11
5.3936
 21
369.866
  0
LINE
  8
0
 10
5.3936
 20
369.866
 11
5.60068
 21
369.426
  0
LINE
  8
0
 10
5.60068
 20
369.426
 11
5.75096
 21
368.963
  0
LINE
  8
0
 10
5.75096
 20
368.963
 11
5.84209
 21
368.485
  0
LINE
  8
0
 10
5.84209
 20
368.485
 11
5.87262
 21
368
  0
LINE
  8
0
 10
5.87262
 20
368
 11
5.87262
 21
304
  0
LINE
  8
0
 10
5.87262
 20
304
 11
5.84209
 21
303.515
  0
LINE
  8
0
 10
5.84209
 20
303.515
 11
5.75096
 21
303.037
  0
LINE
  8
0
 10
5.75096
 20
303.037
 11
5.60068
 21
302.574
  0
LINE
  8
0
 10
5.60068
 20
302.574
 11
5.3936
 21
302.134
  0
LINE
  8
0
 10
5.3936
 20
302.134
 11
5.13301
 21
301.724
  0
LINE
  8
0
 10
5.13301
 20
301.724
 11
4.82301
 21
301.349
  0
LINE
  8
0
 10
4.82301
 20
301.349
 11
4.46851
 21
301.016
  0
LINE
  8
0
 10
4.46851
 20
301.016
 11
4.07506
 21
300.73
  0
LINE
  8
0
 10
4.07506
 20
300.73
 11
3.64888
 21
300.496
  0
LINE
  8
0
 10
3.64888
 20
300.496
 11
3.1967
 21
300.317
  0
LINE
  8
0
 10
3.1967
 20
300.317
 11
2.72565
 21
300.196
  0
LINE
  8
0
 10
2.72565
 20
300.196
 11
2.24316
 21
300.135
  0
LINE
  8
0
 10
2.24316
 20
300.135
 11
-2.24316
 21
300.135
  0
LINE
  8
0
 10
3.4369
 20
214.589
 11
4.04507
 21
214.745
  0
LINE
  8
0
 10
4.04507
 20
214.745
 11
4.62889
 21
214.976
  0
LINE
  8
0
 10
4.62889
 20
214.976
 11
5.17912
 21
215.278
  0
LINE
  8
0
 10
5.17912
 20
215.278
 11
5.68712
 21
215.647
  0
LINE
  8
0
 10
5.68712
 20
215.647
 11
6.14484
 21
216.077
  0
LINE
  8
0
 10
6.14484
 20
216.077
 11
6.54507
 21
216.561
  0
LINE
  8
0
 10
6.54507
 20
216.561
 11
6.88153
 21
217.091
  0
LINE
  8
0
 10
6.88153
 20
217.091
 11
7.14888
 21
217.659
  0
LINE
  8
0
 10
7.14888
 20
217.659
 11
7.34291
 21
218.257
  0
LINE
  8
0
 10
7.34291
 20
218.257
 11
7.46057
 21
218.873
  0
LINE
  8
0
 10
7.46057
 20
218.873
 11
7.5
 21
219.5
  0
LINE
  8
0
 10
7.5
 20
219.5
 11
7.5
 21
284.5
  0
LINE
  8
0
 10
7.5
 20
284.5
 11
7.46057
 21
285.127
  0
LINE
  8
0
 10
7.46057
 20
285.127
 11
7.34291
 21
285.743
  0
LINE
  8
0
 10
7.34291
 20
285.743
 11
7.14888
 21
286.341
  0
LINE
  8
0
 10
7.14888
 20
286.341
 11
6.88153
 21
286.909
  0
LINE
  8
0
 10
6.88153
 20
286.909
 11
6.54507
 21
287.439
  0
LINE
  8
0
 10
6.54507
 20
287.439
 11
6.14484
 21
287.923
  0
LINE
  8
0
 10
6.14484
 20
287.923
 11
5.68712
 21
288.353
  0
LINE
  8
0
 10
5.68712
 20
288.353
 11
5.17912
 21
288.722
  0
LINE
  8
0
 10
5.17912
 20
288.722
 11
4.62889
 21
289.024
  0
LINE
  8
0
 10
4.62889
 20
289.024
 11
4.04507
 21
289.255
  0
LINE
  8
0
 10
4.04507
 20
289.255
 11
3.4369
 21
289.411
  0
LINE
  8
0
 10
3.4369
 20
289.411
 11
2.81395
 21
289.49
  0
LINE
  8
0
 10
2.81395
 20
289.49
 11
-2.81395
 21
289.49
  0
LINE
  8
0
 10
-2.81395
 20
289.49
 11
-3.4369
 21
289.411
  0
LINE
  8
0
 10
-3.4369
 20
289.411
 11
-4.04507
 21
289.255
  0
LINE
  8
0
 10
-4.04507
 20
289.255
 11
-4.62889
 21
289.024
  0
LINE
  8
0
 10
-4.62889
 20
289.024
 11
-5.17912
 21
288.722
  0
LINE
  8
0
 10
-5.17912
 20
288.722
 11
-5.68712
 21
288.353
  0
LINE
  8
0
 10
-5.68712
 20
288.353
 11
-6.14484
 21
287.923
  0
LINE
  8
0
 10
-6.14484
 20
287.923
 11
-6.54507
 21
287.439
  0
LINE
  8
0
 10
-6.54507
 20
287.439
 11
-6.88153
 21
286.909
  0
LINE
  8
0
 10
-6.88153
 20
286.909
 11
-7.14888
 21
286.341
  0
LINE
  8
0
 10
-7.14888
 20
286.341
 11
-7.34291
 21
285.743
  0
LINE
  8
0
 10
-7.34291
 20
285.743
 11
-7.46057
 21
285.127
  0
LINE
  8
0
 10
-7.46057
 20
285.127
 11
-7.5
 21
284.5
  0
LINE
  8
0
 10
-7.5
 20
284.5
 11
-7.5
 21
219.5
  0
LINE
  8
0
 10
-7.5
 20
219.5
 11
-7.46057
 21
218.873
  0
LINE
  8
0
 10
-7.46057
 20
218.873
 11
-7.34291
 21
218.257
  0
LINE
  8
0
 10
-7.34291
 20
218.257
 11
-7.14888
 21
217.659
  0
LINE
  8
0
 10
-7.14888
 20
217.659
 11
-6.88153
 21
217.091
  0
LINE
  8
0
 10
-6.88153
 20
217.091
 11
-6.54507
 21
216.561
  0
LINE
  8
0
 10
-6.54507
 20
216.561
 11
-6.14484
 21
216.077
  0
LINE
  8
0
 10
-6.14484
 20
216.077
 11
-5.68712
 21
215.647
  0
LINE
  8
0
 10
-5.68712
 20
215.647
 11
-5.17912
 21
215.278
  0
LINE
  8
0
 10
-5.17912
 20
215.278
 11
-4.62889
 21
214.976
  0
LINE
  8
0
 10
-4.62889
 20
214.976
 11
-4.04507
 21
214.745
  0
LINE
  8
0
 10
-4.04507
 20
214.745
 11
-3.4369
 21
214.589
  0
LINE
  8
0
 10
-3.4369
 20
214.589
 11
-2.81395
 21
214.51
  0
LINE
  8
0
 10
-2.81395
 20
214.51
 11
2.81395
 21
214.51
  0
LINE
  8
0
 10
2.81395
 20
214.51
 11
3.4369
 21
214.589
  0
LINE
  8
0
 10
3.4369
 20
130.589
 11
4.04507
 21
130.745
  0
LINE
  8
0
 10
4.04507
 20
130.745
 11
4.62889
 21
130.976
  0
LINE
  8
0
 10
4.62889
 20
130.976
 11
5.17912
 21
131.278
  0
LINE
  8
0
 10
5.17912
 20
131.278
 11
5.68712
 21
131.647
  0
LINE
  8
0
 10
5.68712
 20
131.647
 11
6.14484
 21
132.077
  0
LINE
  8
0
 10
6.14484
 20
132.077
 11
6.54507
 21
132.561
  0
LINE
  8
0
 10
6.54507
 20
132.561
 11
6.88153
 21
133.091
  0
LINE
  8
0
 10
6.88153
 20
133.091
 11
7.14888
 21
133.659
  0
LINE
  8
0
 10
7.14888
 20
133.659
 11
7.34291
 21
134.257
  0
LINE
  8
0
 10
7.34291
 20
134.257
 11
7.46057
 21
134.873
  0
LINE
  8
0
 10
7.46057
 20
134.873
 11
7.5
 21
135.5
  0
LINE
  8
0
 10
7.5
 20
135.5
 11
7.5
 21
200.5
  0
LINE
  8
0
 10
7.5
 20
200.5
 11
7.46057
 21
201.127
  0
LINE
  8
0
 10
7.46057
 20
201.127
 11
7.34291
 21
201.743
  0
LINE
  8
0
 10
7.34291
 20
201.743
 11
7.14888
 21
202.341
  0
LINE
  8
0
 10
7.14888
 20
202.341
 11
6.88153
 21
202.909
  0
LINE
  8
0
 10
6.88153
 20
202.909
 11
6.54507
 21
203.439
  0
LINE
  8
0
 10
6.54507
 20
203.439
 11
6.14484
 21
203.923
  0
LINE
  8
0
 10
6.14484
 20
203.923
 11
5.68712
 21
204.353
  0
LINE
  8
0
 10
5.68712
 20
204.353
 11
5.17912
 21
204.722
  0
LINE
  8
0
 10
5.17912
 20
204.722
 11
4.62889
 21
205.024
  0
LINE
  8
0
 10
4.62889
 20
205.024
 11
4.04507
 21
205.255
  0
LINE
  8
0
 10
4.04507
 20
205.255
 11
3.4369
 21
205.411
  0
LINE
  8
0
 10
3.4369
 20
205.411
 11
2.81395
 21
205.49
  0
LINE
  8
0
 10
2.81395
 20
205.49
 11
-2.81395
 21
205.49
  0
LINE
  8
0
 10
-2.81395
 20
205.49
 11
-3.4369
 21
205.411
  0
LINE
  8
0
 10
-3.4369
 20
205.411
 11
-4.04507
 21
205.255
  0
LINE
  8
0
 10
-4.04507
 20
205.255
 11
-4.62889
 21
205.024
  0
LINE
  8
0
 10
-4.62889
 20
205.024
 11
-5.17912
 21
204.722
  0
LINE
  8
0
 10
-5.17912
 20
204.722
 11
-5.68712
 21
204.353
  0
LINE
  8
0
 10
-5.68712
 20
204.353
 11
-6.14484
 21
203.923
  0
LINE
  8
0
 10
-6.14484
 20
203.923
 11
-6.54507
 21
203.439
  0
LINE
  8
0
 10
-6.54507
 20
203.439
 11
-6.88153
 21
202.909
  0
LINE
  8
0
 10
-6.88153
 20
202.909
 11
-7.14888
 21
202.341
  0
LINE
  8
0
 10
-7.14888
 20
202.341
 11
-7.34291
 21
201.743
  0
LINE
  8
0
 10
-7.34291
 20
201.743
 11
-7.46057
 21
201.127
  0
LINE
  8
0
 10
-7.46057
 20
201.127
 11
-7.5
 21
200.5
  0
LINE
  8
0
 10
-7.5
 20
200.5
 11
-7.5
 21
135.5
  0
LINE
  8
0
 10
-7.5
 20
135.5
 11
-7.46057
 21
134.873
  0
LINE
  8
0
 10
-7.46057
 20
134.873
 11
-7.34291
 21
134.257
  0
LINE
  8
0
 10
-7.34291
 20
134.257
 11
-7.14888
 21
133.659
  0
LINE
  8
0
 10
-7.14888
 20
133.659
 11
-6.88153
 21
133.091
  0
LINE
  8
0
 10
-6.88153
 20
133.091
 11
-6.54507
 21
132.561
  0
LINE
  8
0
 10
-6.54507
 20
132.561
 11
-6.14484
 21
132.077
  0
LINE
  8
0
 10
-6.14484
 20
132.077
 11
-5.68712
 21
131.647
  0
LINE
  8
0
 10
-5.68712
 20
131.647
 11
-5.17912
 21
131.278
  0
LINE
  8
0
 10
-5.17912
 20
131.278
 11
-4.62889
 21
130.976
  0
LINE
  8
0
 10
-4.62889
 20
130.976
 11
-4.04507
 21
130.745
  0
LINE
  8
0
 10
-4.04507
 20
130.745
 11
-3.4369
 21
130.589
  0
LINE
  8
0
 10
-3.4369
 20
130.589
 11
-2.81395
 21
130.51
  0
LINE
  8
0
 10
-2.81395
 20
130.51
 11
2.81395
 21
130.51
  0
LINE
  8
0
 10
2.81395
 20
130.51
 11
3.4369
 21
130.589
  0
LINE
  8
0
 10
-0.113022
 20
196.204
 11
-0.33728
 21
196.232
  0
LINE
  8
0
 10
-0.33728
 20
196.232
 11
-0.556229
 21
196.288
  0
LINE
  8
0
 10
-0.556229
 20
196.288
 11
-0.766388
 21
196.371
  0
LINE
  8
0
 10
-0.766388
 20
196.371
 11
-0.964478
 21
196.48
  0
LINE
  8
0
 10
-0.964478
 20
196.48
 11
-1.14735
 21
196.613
  0
LINE
  8
0
 10
-1.14735
 20
196.613
 11
-1.31213
 21
196.768
  0
LINE
  8
0
 10
-1.31213
 20
196.768
 11
-1.45622
 21
196.942
  0
LINE
  8
0
 10
-1.45622
 20
196.942
 11
-1.57735
 21
197.133
  0
LINE
  8
0
 10
-1.57735
 20
197.133
 11
-1.67358
 21
197.337
  0
LINE
  8
0
 10
-1.67358
 20
197.337
 11
-1.74344
 21
197.552
  0
LINE
  8
0
 10
-1.74344
 20
197.552
 11
-1.7858
 21
197.774
  0
LINE
  8
0
 10
-1.7858
 20
197.774
 11
-1.79999
 21
198
  0
LINE
  8
0
 10
-1.79999
 20
198
 11
-1.7858
 21
198.226
  0
LINE
  8
0
 10
-1.7858
 20
198.226
 11
-1.74344
 21
198.448
  0
LINE
  8
0
 10
-1.74344
 20
198.448
 11
-1.67358
 21
198.663
  0
LINE
  8
0
 10
-1.67358
 20
198.663
 11
-1.57735
 21
198.867
  0
LINE
  8
0
 10
-1.57735
 20
198.867
 11
-1.45622
 21
199.058
  0
LINE
  8
0
 10
-1.45622
 20
199.058
 11
-1.31213
 21
199.232
  0
LINE
  8
0
 10
-1.31213
 20
199.232
 11
-1.14735
 21
199.387
  0
LINE
  8
0
 10
-1.14735
 20
199.387
 11
-0.964478
 21
199.52
  0
LINE
  8
0
 10
-0.964478
 20
199.52
 11
-0.766388
 21
199.629
  0
LINE
  8
0
 10
-0.766388
 20
199.629
 11
-0.556229
 21
199.712
  0
LINE
  8
0
 10
-0.556229
 20
199.712
 11
-0.33728
 21
199.768
  0
LINE
  8
0
 10
-0.33728
 20
199.768
 11
-0.113022
 21
199.796
  0
LINE
  8
0
 10
-0.113022
 20
199.796
 11
0.113022
 21
199.796
  0
LINE
  8
0
 10
0.113022
 20
199.796
 11
0.33728
 21
199.768
  0
LINE
  8
0
 10
0.33728
 20
199.768
 11
0.556229
 21
199.712
  0
LINE
  8
0
 10
0.556229
 20
199.712
 11
0.766388
 21
199.629
  0
LINE
  8
0
 10
0.766388
 20
199.629
 11
0.964478
 21
199.52
  0
LINE
  8
0
 10
0.964478
 20
199.52
 11
1.14735
 21
199.387
  0
LINE
  8
0
 10
1.14735
 20
199.387
 11
1.31213
 21
199.232
  0
LINE
  8
0
 10
1.31213
 20
199.232
 11
1.45622
 21
199.058
  0
LINE
  8
0
 10
1.45622
 20
199.058
 11
1.57735
 21
198.867
  0
LINE
  8
0
 10
1.57735
 20
198.867
 11
1.67358
 21
198.663
  0
LINE
  8
0
 10
1.67358
 20
198.663
 11
1.74344
 21
198.448
  0
LINE
  8
0
 10
1.74344
 20
198.448
 11
1.7858
 21
198.226
  0
LINE
  8
0
 10
1.7858
 20
198.226
 11
1.79999
 21
198
  0
LINE
  8
0
 10
1.79999
 20
198
 11
1.7858
 21
197.774
  0
LINE
  8
0
 10
1.7858
 20
197.774
 11
1.74344
 21
197.552
  0
LINE
  8
0
 10
1.74344
 20
197.552
 11
1.67358
 21
197.337
  0
LINE
  8
0
 10
1.67358
 20
197.337
 11
1.57735
 21
197.133
  0
LINE
  8
0
 10
1.57735
 20
197.133
 11
1.45622
 21
196.942
  0
LINE
  8
0
 10
1.45622
 20
196.942
 11
1.31213
 21
196.768
  0
LINE
  8
0
 10
1.31213
 20
196.768
 11
1.14735
 21
196.613
  0
LINE
  8
0
 10
1.14735
 20
196.613
 11
0.964478
 21
196.48
  0
LINE
  8
0
 10
0.964478
 20
196.48
 11
0.766388
 21
196.371
  0
LINE
  8
0
 10
0.766388
 20
196.371
 11
0.556229
 21
196.288
  0
LINE
  8
0
 10
0.556229
 20
196.288
 11
0.33728
 21
196.232
  0
LINE
  8
0
 10
0.33728
 20
196.232
 11
0.113022
 21
196.204
  0
LINE
  8
0
 10
0.113022
 20
196.204
 11
-0.113022
 21
196.204
  0
LINE
  8
0
 10
-0.113022
 20
136.204
 11
-0.33728
 21
136.232
  0
LINE
  8
0
 10
-0.33728
 20
136.232
 11
-0.556229
 21
136.288
  0
LINE
  8
0
 10
-0.556229
 20
136.288
 11
-0.766388
 21
136.371
  0
LINE
  8
0
 10
-0.766388
 20
136.371
 11
-0.964478
 21
136.48
  0
LINE
  8
0
 10
-0.964478
 20
136.48
 11
-1.14735
 21
136.613
  0
LINE
  8
0
 10
-1.14735
 20
136.613
 11
-1.31213
 21
136.768
  0
LINE
  8
0
 10
-1.31213
 20
136.768
 11
-1.45622
 21
136.942
  0
LINE
  8
0
 10
-1.45622
 20
136.942
 11
-1.57735
 21
137.133
  0
LINE
  8
0
 10
-1.57735
 20
137.133
 11
-1.67358
 21
137.337
  0
LINE
  8
0
 10
-1.67358
 20
137.337
 11
-1.74344
 21
137.552
  0
LINE
  8
0
 10
-1.74344
 20
137.552
 11
-1.7858
 21
137.774
  0
LINE
  8
0
 10
-1.7858
 20
137.774
 11
-1.79999
 21
138
  0
LINE
  8
0
 10
-1.79999
 20
138
 11
-1.7858
 21
138.226
  0
LINE
  8
0
 10
-1.7858
 20
138.226
 11
-1.74344
 21
138.448
  0
LINE
  8
0
 10
-1.74344
 20
138.448
 11
-1.67358
 21
138.663
  0
LINE
  8
0
 10
-1.67358
 20
138.663
 11
-1.57735
 21
138.867
  0
LINE
  8
0
 10
-1.57735
 20
138.867
 11
-1.45622
 21
139.058
  0
LINE
  8
0
 10
-1.45622
 20
139.058
 11
-1.31213
 21
139.232
  0
LINE
  8
0
 10
-1.31213
 20
139.232
 11
-1.14735
 21
139.387
  0
LINE
  8
0
 10
-1.14735
 20
139.387
 11
-0.964478
 21
139.52
  0
LINE
  8
0
 10
-0.964478
 20
139.52
 11
-0.766388
 21
139.629
  0
LINE
  8
0
 10
-0.766388
 20
139.629
 11
-0.556229
 21
139.712
  0
LINE
  8
0
 10
-0.556229
 20
139.712
 11
-0.33728
 21
139.768
  0
LINE
  8
0
 10
-0.33728
 20
139.768
 11
-0.113022
 21
139.796
  0
LINE
  8
0
 10
-0.113022
 20
139.796
 11
0.113022
 21
139.796
  0
LINE
  8
0
 10
0.113022
 20
139.796
 11
0.33728
 21
139.768
  0
LINE
  8
0
 10
0.33728
 20
139.768
 11
0.556229
 21
139.712
  0
LINE
  8
0
 10
0.556229
 20
139.712
 11
0.766388
 21
139.629
  0
LINE
  8
0
 10
0.766388
 20
139.629
 11
0.964478
 21
139.52
  0
LINE
  8
0
 10
0.964478
 20
139.52
 11
1.14735
 21
139.387
  0
LINE
  8
0
 10
1.14735
 20
139.387
 11
1.31213
 21
139.232
  0
LINE
  8
0
 10
1.31213
 20
139.232
 11
1.45622
 21
139.058
  0
LINE
  8
0
 10
1.45622
 20
139.058
 11
1.57735
 21
138.867
  0
LINE
  8
0
 10
1.57735
 20
138.867
 11
1.67358
 21
138.663
  0
LINE
  8
0
 10
1.67358
 20
138.663
 11
1.74344
 21
138.448
  0
LINE
  8
0
 10
1.74344
 20
138.448
 11
1.7858
 21
138.226
  0
LINE
  8
0
 10
1.7858
 20
138.226
 11
1.79999
 21
138
  0
LINE
  8
0
 10
1.79999
 20
138
 11
1.7858
 21
137.774
  0
LINE
  8
0
 10
1.7858
 20
137.774
 11
1.74344
 21
137.552
  0
LINE
  8
0
 10
1.74344
 20
137.552
 11
1.67358
 21
137.337
  0
LINE
  8
0
 10
1.67358
 20
137.337
 11
1.57735
 21
137.133
  0
LINE
  8
0
 10
1.57735
 20
137.133
 11
1.45622
 21
136.942
  0
LINE
  8
0
 10
1.45622
 20
136.942
 11
1.31213
 21
136.768
  0
LINE
  8
0
 10
1.31213
 20
136.768
 11
1.14735
 21
136.613
  0
LINE
  8
0
 10
1.14735
 20
136.613
 11
0.964478
 21
136.48
  0
LINE
  8
0
 10
0.964478
 20
136.48
 11
0.766388
 21
136.371
  0
LINE
  8
0
 10
0.766388
 20
136.371
 11
0.556229
 21
136.288
  0
LINE
  8
0
 10
0.556229
 20
136.288
 11
0.33728
 21
136.232
  0
LINE
  8
0
 10
0.33728
 20
136.232
 11
0.113022
 21
136.204
  0
LINE
  8
0
 10
0.113022
 20
136.204
 11
-0.113022
 21
136.204
  0
ENDSEC
  0
SECTION
  2
OBJECTS
  0
DICTIONARY
  0
ENDSEC
  0
EOF
