<?xml version="1.0" standalone="no"?>
<!DOCTYPE svg PUBLIC "-//W3C//DTD SVG 1.1//EN" "http://www.w3.org/Graphics/SVG/1.1/DTD/svg11.dtd">
<svg width="137mm" height="154mm" viewBox="-69 -239 137 154" xmlns="http://www.w3.org/2000/svg" version="1.1">
<title>OpenSCAD Model</title>
<path d="
M -66,-194.941 L -65.6871,-194.647 L -65.1791,-194.278 L -64.6289,-193.976 L -64.0451,-193.745 L -63.4369,-193.589
 L -62.8139,-193.51 L 62.8139,-193.51 L 63.4369,-193.589 L 64.0451,-193.745 L 64.6289,-193.976 L 65.1791,-194.278
 L 65.6871,-194.647 L 66.1448,-195.077 L 66.5451,-195.561 L 66.8815,-196.091 L 67.1489,-196.659 L 67.3429,-197.257
 L 67.4606,-197.873 L 67.5,-198.5 L 67.5,-233.5 L 67.4606,-234.127 L 67.3429,-234.743 L 67.1489,-235.341
 L 66.8815,-235.909 L 66.5451,-236.439 L 66.1448,-236.923 L 65.6871,-237.353 L 65.1791,-237.722 L 64.6289,-238.024
 L 64.0451,-238.255 L 63.4369,-238.411 L 62.8139,-238.49 L -62.8139,-238.49 L -63.4369,-238.411 L -64.0451,-238.255
 L -64.6289,-238.024 L -65.1791,-237.722 L -65.6871,-237.353 L -66,-237.059 L -66,-238.49 L -69,-238.49
 L -69,-193.51 L -66,-193.51 z
M -62.2432,-195.135 L -62.7256,-195.196 L -63.1967,-195.317 L -63.6489,-195.496 L -64.0751,-195.73 L -64.4685,-196.016
 L -64.823,-196.349 L -65.133,-196.724 L -65.3936,-197.134 L -65.6007,-197.574 L -65.751,-198.037 L -65.8421,-198.515
 L -65.8726,-199 L -65.8726,-233 L -65.8421,-233.485 L -65.751,-233.963 L -65.6007,-234.426 L -65.3936,-234.866
 L -65.133,-235.276 L -64.823,-235.651 L -64.4685,-235.984 L -64.0751,-236.27 L -63.6489,-236.504 L -63.1967,-236.683
 L -62.7256,-236.804 L -62.2432,-236.865 L 62.2432,-236.865 L 62.7256,-236.804 L 63.1967,-236.683 L 63.6489,-236.504
 L 64.0751,-236.27 L 64.4685,-235.984 L 64.823,-235.651 L 65.133,-235.276 L 65.3936,-234.866 L 65.6007,-234.426
 L 65.751,-233.963 L 65.8421,-233.485 L 65.8726,-233 L 65.8726,-199 L 65.8421,-198.515 L 65.751,-198.037
 L 65.6007,-197.574 L 65.3936,-197.134 L 65.133,-196.724 L 64.823,-196.349 L 64.4685,-196.016 L 64.0751,-195.73
 L 63.6489,-195.496 L 63.1967,-195.317 L 62.7256,-195.196 L 62.2432,-195.135 z
M 63.4369,-139.589 L 64.0451,-139.745 L 64.6289,-139.976 L 65.1791,-140.278 L 65.6871,-140.647 L 66.1448,-141.077
 L 66.5451,-141.561 L 66.8815,-142.091 L 67.1489,-142.659 L 67.3429,-143.257 L 67.4606,-143.873 L 67.5,-144.5
 L 67.5,-179.5 L 67.4606,-180.127 L 67.3429,-180.743 L 67.1489,-181.341 L 66.8815,-181.909 L 66.5451,-182.439
 L 66.1448,-182.923 L 65.6871,-183.353 L 65.1791,-183.722 L 64.6289,-184.024 L 64.0451,-184.255 L 63.4369,-184.411
 L 62.8139,-184.49 L -62.8139,-184.49 L -63.4369,-184.411 L -64.0451,-184.255 L -64.6289,-184.024 L -65.1791,-183.722
 L -65.6871,-183.353 L -66,-183.059 L -66,-184.115 L -69,-184.115 L -69,-139.885 L -66,-139.885
 L -66,-140.941 L -65.6871,-140.647 L -65.1791,-140.278 L -64.6289,-139.976 L -64.0451,-139.745 L -63.4369,-139.589
 L -62.8139,-139.51 L 62.8139,-139.51 z
M 63.4369,-85.5886 L 64.0451,-85.7447 L 64.6289,-85.9759 L 65.1791,-86.2784 L 65.6871,-86.6474 L 66.1448,-87.0773
 L 66.5451,-87.5611 L 66.8815,-88.0912 L 67.1489,-88.6594 L 67.3429,-89.2566 L 67.4606,-89.8733 L 67.5,-90.5
 L 67.5,-125.5 L 67.4606,-126.127 L 67.3429,-126.743 L 67.1489,-127.341 L 66.8815,-127.909 L 66.5451,-128.439
 L 66.1448,-128.923 L 65.6871,-129.353 L 65.1791,-129.722 L 64.6289,-130.024 L 64.0451,-130.255 L 63.4369,-130.411
 L 62.8139,-130.49 L -62.8139,-130.49 L -63.4369,-130.411 L -64.0451,-130.255 L -64.6289,-130.024 L -65.1791,-129.722
 L -65.6871,-129.353 L -66.1448,-128.923 L -66.5451,-128.439 L -66.8815,-127.909 L -67.1489,-127.341 L -67.3429,-126.743
 L -67.4,-126.444 L -69,-126.444 L -69,-89.5558 L -67.4,-89.5558 L -67.3429,-89.2566 L -67.1489,-88.6594
 L -66.8815,-88.0912 L -66.5451,-87.5611 L -66.1448,-87.0773 L -65.6871,-86.6474 L -65.1791,-86.2784 L -64.6289,-85.9759
 L -64.0451,-85.7447 L -63.4369,-85.5886 L -62.8139,-85.5099 L 62.8139,-85.5099 z
M 59.887,-121.204 L 59.6627,-121.232 L 59.4438,-121.288 L 59.2336,-121.371 L 59.0355,-121.48 L 58.8526,-121.613
 L 58.6879,-121.768 L 58.5438,-121.942 L 58.4226,-122.133 L 58.3264,-122.337 L 58.2565,-122.552 L 58.2142,-122.774
 L 58.2,-123 L 58.2142,-123.226 L 58.2565,-123.448 L 58.3264,-123.663 L 58.4226,-123.867 L 58.5438,-124.058
 L 58.6879,-124.232 L 58.8526,-124.387 L 59.0355,-124.52 L 59.2336,-124.629 L 59.4438,-124.712 L 59.6627,-124.768
 L 59.887,-124.796 L 60.113,-124.796 L 60.3373,-124.768 L 60.5562,-124.712 L 60.7664,-124.629 L 60.9645,-124.52
 L 61.1474,-124.387 L 61.3121,-124.232 L 61.4562,-124.058 L 61.5773,-123.867 L 61.6736,-123.663 L 61.7434,-123.448
 L 61.7858,-123.226 L 61.8,-123 L 61.7858,-122.774 L 61.7434,-122.552 L 61.6736,-122.337 L 61.5773,-122.133
 L 61.4562,-121.942 L 61.3121,-121.768 L 61.1474,-121.613 L 60.9645,-121.48 L 60.7664,-121.371 L 60.5562,-121.288
 L 60.3373,-121.232 L 60.113,-121.204 z
M -60.113,-121.204 L -60.3373,-121.232 L -60.5562,-121.288 L -60.7664,-121.371 L -60.9645,-121.48 L -61.1474,-121.613
 L -61.3121,-121.768 L -61.4562,-121.942 L -61.5773,-122.133 L -61.6736,-122.337 L -61.7434,-122.552 L -61.7858,-122.774
 L -61.8,-123 L -61.7858,-123.226 L -61.7434,-123.448 L -61.6736,-123.663 L -61.5773,-123.867 L -61.4562,-124.058
 L -61.3121,-124.232 L -61.1474,-124.387 L -60.9645,-124.52 L -60.7664,-124.629 L -60.5562,-124.712 L -60.3373,-124.768
 L -60.113,-124.796 L -59.887,-124.796 L -59.6627,-124.768 L -59.4438,-124.712 L -59.2336,-124.629 L -59.0355,-124.52
 L -58.8526,-124.387 L -58.6879,-124.232 L -58.5438,-124.058 L -58.4226,-123.867 L -58.3264,-123.663 L -58.2565,-123.448
 L -58.2142,-123.226 L -58.2,-123 L -58.2142,-122.774 L -58.2565,-122.552 L -58.3264,-122.337 L -58.4226,-122.133
 L -58.5438,-121.942 L -58.6879,-121.768 L -58.8526,-121.613 L -59.0355,-121.48 L -59.2336,-121.371 L -59.4438,-121.288
 L -59.6627,-121.232 L -59.887,-121.204 z
M 59.887,-91.2036 L 59.6627,-91.2319 L 59.4438,-91.2881 L 59.2336,-91.3713 L 59.0355,-91.4802 L 58.8526,-91.6131
 L 58.6879,-91.7678 L 58.5438,-91.942 L 58.4226,-92.1329 L 58.3264,-92.3374 L 58.2565,-92.5524 L 58.2142,-92.7744
 L 58.2,-93 L 58.2142,-93.2256 L 58.2565,-93.4476 L 58.3264,-93.6626 L 58.4226,-93.8672 L 58.5438,-94.058
 L 58.6879,-94.2322 L 58.8526,-94.3869 L 59.0355,-94.5198 L 59.2336,-94.6287 L 59.4438,-94.7119 L 59.6627,-94.7681
 L 59.887,-94.7964 L 60.113,-94.7964 L 60.3373,-94.7681 L 60.5562,-94.7119 L 60.7664,-94.6287 L 60.9645,-94.5198
 L 61.1474,-94.3869 L 61.3121,-94.2322 L 61.4562,-94.058 L 61.5773,-93.8672 L 61.6736,-93.6626 L 61.7434,-93.4476
 L 61.7858,-93.2256 L 61.8,-93 L 61.7858,-92.7744 L 61.7434,-92.5524 L 61.6736,-92.3374 L 61.5773,-92.1329
 L 61.4562,-91.942 L 61.3121,-91.7678 L 61.1474,-91.6131 L 60.9645,-91.4802 L 60.7664,-91.3713 L 60.5562,-91.2881
 L 60.3373,-91.2319 L 60.113,-91.2036 z
M -60.113,-91.2036 L -60.3373,-91.2319 L -60.5562,-91.2881 L -60.7664,-91.3713 L -60.9645,-91.4802 L -61.1474,-91.6131
 L -61.3121,-91.7678 L -61.4562,-91.942 L -61.5773,-92.1329 L -61.6736,-92.3374 L -61.7434,-92.5524 L -61.7858,-92.7744
 L -61.8,-93 L -61.7858,-93.2256 L -61.7434,-93.4476 L -61.6736,-93.6626 L -61.5773,-93.8672 L -61.4562,-94.058
 L -61.3121,-94.2322 L -61.1474,-94.3869 L -60.9645,-94.5198 L -60.7664,-94.6287 L -60.5562,-94.7119 L -60.3373,-94.7681
 L -60.113,-94.7964 L -59.887,-94.7964 L -59.6627,-94.7681 L -59.4438,-94.7119 L -59.2336,-94.6287 L -59.0355,-94.5198
 L -58.8526,-94.3869 L -58.6879,-94.2322 L -58.5438,-94.058 L -58.4226,-93.8672 L -58.3264,-93.6626 L -58.2565,-93.4476
 L -58.2142,-93.2256 L -58.2,-93 L -58.2142,-92.7744 L -58.2565,-92.5524 L -58.3264,-92.3374 L -58.4226,-92.1329
 L -58.5438,-91.942 L -58.6879,-91.7678 L -58.8526,-91.6131 L -59.0355,-91.4802 L -59.2336,-91.3713 L -59.4438,-91.2881
 L -59.6627,-91.2319 L -59.887,-91.2036 z
" stroke="black" fill="lightgray" stroke-width="0.5"/>
</svg>
