  0
SECTION
  2
BLOCKS
  0
ENDSEC
  0
SECTION
  2
ENTITIES
  0
LINE
  8
0
 10
-66
 20
194.941
 11
-65.6871
 21
194.647
  0
LINE
  8
0
 10
-65.6871
 20
194.647
 11
-65.1791
 21
194.278
  0
LINE
  8
0
 10
-65.1791
 20
194.278
 11
-64.6289
 21
193.976
  0
LINE
  8
0
 10
-64.6289
 20
193.976
 11
-64.0451
 21
193.745
  0
LINE
  8
0
 10
-64.0451
 20
193.745
 11
-63.4369
 21
193.589
  0
LINE
  8
0
 10
-63.4369
 20
193.589
 11
-62.8139
 21
193.51
  0
LINE
  8
0
 10
-62.8139
 20
193.51
 11
62.8139
 21
193.51
  0
LINE
  8
0
 10
62.8139
 20
193.51
 11
63.4369
 21
193.589
  0
LINE
  8
0
 10
63.4369
 20
193.589
 11
64.0451
 21
193.745
  0
LINE
  8
0
 10
64.0451
 20
193.745
 11
64.6289
 21
193.976
  0
LINE
  8
0
 10
64.6289
 20
193.976
 11
65.1791
 21
194.278
  0
LINE
  8
0
 10
65.1791
 20
194.278
 11
65.6871
 21
194.647
  0
LINE
  8
0
 10
65.6871
 20
194.647
 11
66.1448
 21
195.077
  0
LINE
  8
0
 10
66.1448
 20
195.077
 11
66.5451
 21
195.561
  0
LINE
  8
0
 10
66.5451
 20
195.561
 11
66.8815
 21
196.091
  0
LINE
  8
0
 10
66.8815
 20
196.091
 11
67.1489
 21
196.659
  0
LINE
  8
0
 10
67.1489
 20
196.659
 11
67.3429
 21
197.257
  0
LINE
  8
0
 10
67.3429
 20
197.257
 11
67.4606
 21
197.873
  0
LINE
  8
0
 10
67.4606
 20
197.873
 11
67.5
 21
198.5
  0
LINE
  8
0
 10
67.5
 20
198.5
 11
67.5
 21
233.5
  0
LINE
  8
0
 10
67.5
 20
233.5
 11
67.4606
 21
234.127
  0
LINE
  8
0
 10
67.4606
 20
234.127
 11
67.3429
 21
234.743
  0
LINE
  8
0
 10
67.3429
 20
234.743
 11
67.1489
 21
235.341
  0
LINE
  8
0
 10
67.1489
 20
235.341
 11
66.8815
 21
235.909
  0
LINE
  8
0
 10
66.8815
 20
235.909
 11
66.5451
 21
236.439
  0
LINE
  8
0
 10
66.5451
 20
236.439
 11
66.1448
 21
236.923
  0
LINE
  8
0
 10
66.1448
 20
236.923
 11
65.6871
 21
237.353
  0
LINE
  8
0
 10
65.6871
 20
237.353
 11
65.1791
 21
237.722
  0
LINE
  8
0
 10
65.1791
 20
237.722
 11
64.6289
 21
238.024
  0
LINE
  8
0
 10
64.6289
 20
238.024
 11
64.0451
 21
238.255
  0
LINE
  8
0
 10
64.0451
 20
238.255
 11
63.4369
 21
238.411
  0
LINE
  8
0
 10
63.4369
 20
238.411
 11
62.8139
 21
238.49
  0
LINE
  8
0
 10
62.8139
 20
238.49
 11
-62.8139
 21
238.49
  0
LINE
  8
0
 10
-62.8139
 20
238.49
 11
-63.4369
 21
238.411
  0
LINE
  8
0
 10
-63.4369
 20
238.411
 11
-64.0451
 21
238.255
  0
LINE
  8
0
 10
-64.0451
 20
238.255
 11
-64.6289
 21
238.024
  0
LINE
  8
0
 10
-64.6289
 20
238.024
 11
-65.1791
 21
237.722
  0
LINE
  8
0
 10
-65.1791
 20
237.722
 11
-65.6871
 21
237.353
  0
LINE
  8
0
 10
-65.6871
 20
237.353
 11
-66
 21
237.059
  0
LINE
  8
0
 10
-66
 20
237.059
 11
-66
 21
238.49
  0
LINE
  8
0
 10
-66
 20
238.49
 11
-69
 21
238.49
  0
LINE
  8
0
 10
-69
 20
238.49
 11
-69
 21
193.51
  0
LINE
  8
0
 10
-69
 20
193.51
 11
-66
 21
193.51
  0
LINE
  8
0
 10
-66
 20
193.51
 11
-66
 21
194.941
  0
LINE
  8
0
 10
-62.2432
 20
195.135
 11
-62.7256
 21
195.196
  0
LINE
  8
0
 10
-62.7256
 20
195.196
 11
-63.1967
 21
195.317
  0
LINE
  8
0
 10
-63.1967
 20
195.317
 11
-63.6489
 21
195.496
  0
LINE
  8
0
 10
-63.6489
 20
195.496
 11
-64.0751
 21
195.73
  0
LINE
  8
0
 10
-64.0751
 20
195.73
 11
-64.4685
 21
196.016
  0
LINE
  8
0
 10
-64.4685
 20
196.016
 11
-64.823
 21
196.349
  0
LINE
  8
0
 10
-64.823
 20
196.349
 11
-65.133
 21
196.724
  0
LINE
  8
0
 10
-65.133
 20
196.724
 11
-65.3936
 21
197.134
  0
LINE
  8
0
 10
-65.3936
 20
197.134
 11
-65.6007
 21
197.574
  0
LINE
  8
0
 10
-65.6007
 20
197.574
 11
-65.751
 21
198.037
  0
LINE
  8
0
 10
-65.751
 20
198.037
 11
-65.8421
 21
198.515
  0
LINE
  8
0
 10
-65.8421
 20
198.515
 11
-65.8726
 21
199
  0
LINE
  8
0
 10
-65.8726
 20
199
 11
-65.8726
 21
233
  0
LINE
  8
0
 10
-65.8726
 20
233
 11
-65.8421
 21
233.485
  0
LINE
  8
0
 10
-65.8421
 20
233.485
 11
-65.751
 21
233.963
  0
LINE
  8
0
 10
-65.751
 20
233.963
 11
-65.6007
 21
234.426
  0
LINE
  8
0
 10
-65.6007
 20
234.426
 11
-65.3936
 21
234.866
  0
LINE
  8
0
 10
-65.3936
 20
234.866
 11
-65.133
 21
235.276
  0
LINE
  8
0
 10
-65.133
 20
235.276
 11
-64.823
 21
235.651
  0
LINE
  8
0
 10
-64.823
 20
235.651
 11
-64.4685
 21
235.984
  0
LINE
  8
0
 10
-64.4685
 20
235.984
 11
-64.0751
 21
236.27
  0
LINE
  8
0
 10
-64.0751
 20
236.27
 11
-63.6489
 21
236.504
  0
LINE
  8
0
 10
-63.6489
 20
236.504
 11
-63.1967
 21
236.683
  0
LINE
  8
0
 10
-63.1967
 20
236.683
 11
-62.7256
 21
236.804
  0
LINE
  8
0
 10
-62.7256
 20
236.804
 11
-62.2432
 21
236.865
  0
LINE
  8
0
 10
-62.2432
 20
236.865
 11
62.2432
 21
236.865
  0
LINE
  8
0
 10
62.2432
 20
236.865
 11
62.7256
 21
236.804
  0
LINE
  8
0
 10
62.7256
 20
236.804
 11
63.1967
 21
236.683
  0
LINE
  8
0
 10
63.1967
 20
236.683
 11
63.6489
 21
236.504
  0
LINE
  8
0
 10
63.6489
 20
236.504
 11
64.0751
 21
236.27
  0
LINE
  8
0
 10
64.0751
 20
236.27
 11
64.4685
 21
235.984
  0
LINE
  8
0
 10
64.4685
 20
235.984
 11
64.823
 21
235.651
  0
LINE
  8
0
 10
64.823
 20
235.651
 11
65.133
 21
235.276
  0
LINE
  8
0
 10
65.133
 20
235.276
 11
65.3936
 21
234.866
  0
LINE
  8
0
 10
65.3936
 20
234.866
 11
65.6007
 21
234.426
  0
LINE
  8
0
 10
65.6007
 20
234.426
 11
65.751
 21
233.963
  0
LINE
  8
0
 10
65.751
 20
233.963
 11
65.8421
 21
233.485
  0
LINE
  8
0
 10
65.8421
 20
233.485
 11
65.8726
 21
233
  0
LINE
  8
0
 10
65.8726
 20
233
 11
65.8726
 21
199
  0
LINE
  8
0
 10
65.8726
 20
199
 11
65.8421
 21
198.515
  0
LINE
  8
0
 10
65.8421
 20
198.515
 11
65.751
 21
198.037
  0
LINE
  8
0
 10
65.751
 20
198.037
 11
65.6007
 21
197.574
  0
LINE
  8
0
 10
65.6007
 20
197.574
 11
65.3936
 21
197.134
  0
LINE
  8
0
 10
65.3936
 20
197.134
 11
65.133
 21
196.724
  0
LINE
  8
0
 10
65.133
 20
196.724
 11
64.823
 21
196.349
  0
LINE
  8
0
 10
64.823
 20
196.349
 11
64.4685
 21
196.016
  0
LINE
  8
0
 10
64.4685
 20
196.016
 11
64.0751
 21
195.73
  0
LINE
  8
0
 10
64.0751
 20
195.73
 11
63.6489
 21
195.496
  0
LINE
  8
0
 10
63.6489
 20
195.496
 11
63.1967
 21
195.317
  0
LINE
  8
0
 10
63.1967
 20
195.317
 11
62.7256
 21
195.196
  0
LINE
  8
0
 10
62.7256
 20
195.196
 11
62.2432
 21
195.135
  0
LINE
  8
0
 10
62.2432
 20
195.135
 11
-62.2432
 21
195.135
  0
LINE
  8
0
 10
63.4369
 20
139.589
 11
64.0451
 21
139.745
  0
LINE
  8
0
 10
64.0451
 20
139.745
 11
64.6289
 21
139.976
  0
LINE
  8
0
 10
64.6289
 20
139.976
 11
65.1791
 21
140.278
  0
LINE
  8
0
 10
65.1791
 20
140.278
 11
65.6871
 21
140.647
  0
LINE
  8
0
 10
65.6871
 20
140.647
 11
66.1448
 21
141.077
  0
LINE
  8
0
 10
66.1448
 20
141.077
 11
66.5451
 21
141.561
  0
LINE
  8
0
 10
66.5451
 20
141.561
 11
66.8815
 21
142.091
  0
LINE
  8
0
 10
66.8815
 20
142.091
 11
67.1489
 21
142.659
  0
LINE
  8
0
 10
67.1489
 20
142.659
 11
67.3429
 21
143.257
  0
LINE
  8
0
 10
67.3429
 20
143.257
 11
67.4606
 21
143.873
  0
LINE
  8
0
 10
67.4606
 20
143.873
 11
67.5
 21
144.5
  0
LINE
  8
0
 10
67.5
 20
144.5
 11
67.5
 21
179.5
  0
LINE
  8
0
 10
67.5
 20
179.5
 11
67.4606
 21
180.127
  0
LINE
  8
0
 10
67.4606
 20
180.127
 11
67.3429
 21
180.743
  0
LINE
  8
0
 10
67.3429
 20
180.743
 11
67.1489
 21
181.341
  0
LINE
  8
0
 10
67.1489
 20
181.341
 11
66.8815
 21
181.909
  0
LINE
  8
0
 10
66.8815
 20
181.909
 11
66.5451
 21
182.439
  0
LINE
  8
0
 10
66.5451
 20
182.439
 11
66.1448
 21
182.923
  0
LINE
  8
0
 10
66.1448
 20
182.923
 11
65.6871
 21
183.353
  0
LINE
  8
0
 10
65.6871
 20
183.353
 11
65.1791
 21
183.722
  0
LINE
  8
0
 10
65.1791
 20
183.722
 11
64.6289
 21
184.024
  0
LINE
  8
0
 10
64.6289
 20
184.024
 11
64.0451
 21
184.255
  0
LINE
  8
0
 10
64.0451
 20
184.255
 11
63.4369
 21
184.411
  0
LINE
  8
0
 10
63.4369
 20
184.411
 11
62.8139
 21
184.49
  0
LINE
  8
0
 10
62.8139
 20
184.49
 11
-62.8139
 21
184.49
  0
LINE
  8
0
 10
-62.8139
 20
184.49
 11
-63.4369
 21
184.411
  0
LINE
  8
0
 10
-63.4369
 20
184.411
 11
-64.0451
 21
184.255
  0
LINE
  8
0
 10
-64.0451
 20
184.255
 11
-64.6289
 21
184.024
  0
LINE
  8
0
 10
-64.6289
 20
184.024
 11
-65.1791
 21
183.722
  0
LINE
  8
0
 10
-65.1791
 20
183.722
 11
-65.6871
 21
183.353
  0
LINE
  8
0
 10
-65.6871
 20
183.353
 11
-66
 21
183.059
  0
LINE
  8
0
 10
-66
 20
183.059
 11
-66
 21
184.115
  0
LINE
  8
0
 10
-66
 20
184.115
 11
-69
 21
184.115
  0
LINE
  8
0
 10
-69
 20
184.115
 11
-69
 21
139.885
  0
LINE
  8
0
 10
-69
 20
139.885
 11
-66
 21
139.885
  0
LINE
  8
0
 10
-66
 20
139.885
 11
-66
 21
140.941
  0
LINE
  8
0
 10
-66
 20
140.941
 11
-65.6871
 21
140.647
  0
LINE
  8
0
 10
-65.6871
 20
140.647
 11
-65.1791
 21
140.278
  0
LINE
  8
0
 10
-65.1791
 20
140.278
 11
-64.6289
 21
139.976
  0
LINE
  8
0
 10
-64.6289
 20
139.976
 11
-64.0451
 21
139.745
  0
LINE
  8
0
 10
-64.0451
 20
139.745
 11
-63.4369
 21
139.589
  0
LINE
  8
0
 10
-63.4369
 20
139.589
 11
-62.8139
 21
139.51
  0
LINE
  8
0
 10
-62.8139
 20
139.51
 11
62.8139
 21
139.51
  0
LINE
  8
0
 10
62.8139
 20
139.51
 11
63.4369
 21
139.589
  0
LINE
  8
0
 10
63.4369
 20
85.5886
 11
64.0451
 21
85.7447
  0
LINE
  8
0
 10
64.0451
 20
85.7447
 11
64.6289
 21
85.9759
  0
LINE
  8
0
 10
64.6289
 20
85.9759
 11
65.1791
 21
86.2784
  0
LINE
  8
0
 10
65.1791
 20
86.2784
 11
65.6871
 21
86.6474
  0
LINE
  8
0
 10
65.6871
 20
86.6474
 11
66.1448
 21
87.0773
  0
LINE
  8
0
 10
66.1448
 20
87.0773
 11
66.5451
 21
87.5611
  0
LINE
  8
0
 10
66.5451
 20
87.5611
 11
66.8815
 21
88.0912
  0
LINE
  8
0
 10
66.8815
 20
88.0912
 11
67.1489
 21
88.6594
  0
LINE
  8
0
 10
67.1489
 20
88.6594
 11
67.3429
 21
89.2566
  0
LINE
  8
0
 10
67.3429
 20
89.2566
 11
67.4606
 21
89.8733
  0
LINE
  8
0
 10
67.4606
 20
89.8733
 11
67.5
 21
90.5
  0
LINE
  8
0
 10
67.5
 20
90.5
 11
67.5
 21
125.5
  0
LINE
  8
0
 10
67.5
 20
125.5
 11
67.4606
 21
126.127
  0
LINE
  8
0
 10
67.4606
 20
126.127
 11
67.3429
 21
126.743
  0
LINE
  8
0
 10
67.3429
 20
126.743
 11
67.1489
 21
127.341
  0
LINE
  8
0
 10
67.1489
 20
127.341
 11
66.8815
 21
127.909
  0
LINE
  8
0
 10
66.8815
 20
127.909
 11
66.5451
 21
128.439
  0
LINE
  8
0
 10
66.5451
 20
128.439
 11
66.1448
 21
128.923
  0
LINE
  8
0
 10
66.1448
 20
128.923
 11
65.6871
 21
129.353
  0
LINE
  8
0
 10
65.6871
 20
129.353
 11
65.1791
 21
129.722
  0
LINE
  8
0
 10
65.1791
 20
129.722
 11
64.6289
 21
130.024
  0
LINE
  8
0
 10
64.6289
 20
130.024
 11
64.0451
 21
130.255
  0
LINE
  8
0
 10
64.0451
 20
130.255
 11
63.4369
 21
130.411
  0
LINE
  8
0
 10
63.4369
 20
130.411
 11
62.8139
 21
130.49
  0
LINE
  8
0
 10
62.8139
 20
130.49
 11
-62.8139
 21
130.49
  0
LINE
  8
0
 10
-62.8139
 20
130.49
 11
-63.4369
 21
130.411
  0
LINE
  8
0
 10
-63.4369
 20
130.411
 11
-64.0451
 21
130.255
  0
LINE
  8
0
 10
-64.0451
 20
130.255
 11
-64.6289
 21
130.024
  0
LINE
  8
0
 10
-64.6289
 20
130.024
 11
-65.1791
 21
129.722
  0
LINE
  8
0
 10
-65.1791
 20
129.722
 11
-65.6871
 21
129.353
  0
LINE
  8
0
 10
-65.6871
 20
129.353
 11
-66.1448
 21
128.923
  0
LINE
  8
0
 10
-66.1448
 20
128.923
 11
-66.5451
 21
128.439
  0
LINE
  8
0
 10
-66.5451
 20
128.439
 11
-66.8815
 21
127.909
  0
LINE
  8
0
 10
-66.8815
 20
127.909
 11
-67.1489
 21
127.341
  0
LINE
  8
0
 10
-67.1489
 20
127.341
 11
-67.3429
 21
126.743
  0
LINE
  8
0
 10
-67.3429
 20
126.743
 11
-67.4
 21
126.444
  0
LINE
  8
0
 10
-67.4
 20
126.444
 11
-69
 21
126.444
  0
LINE
  8
0
 10
-69
 20
126.444
 11
-69
 21
89.5558
  0
LINE
  8
0
 10
-69
 20
89.5558
 11
-67.4
 21
89.5558
  0
LINE
  8
0
 10
-67.4
 20
89.5558
 11
-67.3429
 21
89.2566
  0
LINE
  8
0
 10
-67.3429
 20
89.2566
 11
-67.1489
 21
88.6594
  0
LINE
  8
0
 10
-67.1489
 20
88.6594
 11
-66.8815
 21
88.0912
  0
LINE
  8
0
 10
-66.8815
 20
88.0912
 11
-66.5451
 21
87.5611
  0
LINE
  8
0
 10
-66.5451
 20
87.5611
 11
-66.1448
 21
87.0773
  0
LINE
  8
0
 10
-66.1448
 20
87.0773
 11
-65.6871
 21
86.6474
  0
LINE
  8
0
 10
-65.6871
 20
86.6474
 11
-65.1791
 21
86.2784
  0
LINE
  8
0
 10
-65.1791
 20
86.2784
 11
-64.6289
 21
85.9759
  0
LINE
  8
0
 10
-64.6289
 20
85.9759
 11
-64.0451
 21
85.7447
  0
LINE
  8
0
 10
-64.0451
 20
85.7447
 11
-63.4369
 21
85.5886
  0
LINE
  8
0
 10
-63.4369
 20
85.5886
 11
-62.8139
 21
85.5099
  0
LINE
  8
0
 10
-62.8139
 20
85.5099
 11
62.8139
 21
85.5099
  0
LINE
  8
0
 10
62.8139
 20
85.5099
 11
63.4369
 21
85.5886
  0
LINE
  8
0
 10
59.887
 20
121.204
 11
59.6627
 21
121.232
  0
LINE
  8
0
 10
59.6627
 20
121.232
 11
59.4438
 21
121.288
  0
LINE
  8
0
 10
59.4438
 20
121.288
 11
59.2336
 21
121.371
  0
LINE
  8
0
 10
59.2336
 20
121.371
 11
59.0355
 21
121.48
  0
LINE
  8
0
 10
59.0355
 20
121.48
 11
58.8526
 21
121.613
  0
LINE
  8
0
 10
58.8526
 20
121.613
 11
58.6879
 21
121.768
  0
LINE
  8
0
 10
58.6879
 20
121.768
 11
58.5438
 21
121.942
  0
LINE
  8
0
 10
58.5438
 20
121.942
 11
58.4226
 21
122.133
  0
LINE
  8
0
 10
58.4226
 20
122.133
 11
58.3264
 21
122.337
  0
LINE
  8
0
 10
58.3264
 20
122.337
 11
58.2565
 21
122.552
  0
LINE
  8
0
 10
58.2565
 20
122.552
 11
58.2142
 21
122.774
  0
LINE
  8
0
 10
58.2142
 20
122.774
 11
58.2
 21
123
  0
LINE
  8
0
 10
58.2
 20
123
 11
58.2142
 21
123.226
  0
LINE
  8
0
 10
58.2142
 20
123.226
 11
58.2565
 21
123.448
  0
LINE
  8
0
 10
58.2565
 20
123.448
 11
58.3264
 21
123.663
  0
LINE
  8
0
 10
58.3264
 20
123.663
 11
58.4226
 21
123.867
  0
LINE
  8
0
 10
58.4226
 20
123.867
 11
58.5438
 21
124.058
  0
LINE
  8
0
 10
58.5438
 20
124.058
 11
58.6879
 21
124.232
  0
LINE
  8
0
 10
58.6879
 20
124.232
 11
58.8526
 21
124.387
  0
LINE
  8
0
 10
58.8526
 20
124.387
 11
59.0355
 21
124.52
  0
LINE
  8
0
 10
59.0355
 20
124.52
 11
59.2336
 21
124.629
  0
LINE
  8
0
 10
59.2336
 20
124.629
 11
59.4438
 21
124.712
  0
LINE
  8
0
 10
59.4438
 20
124.712
 11
59.6627
 21
124.768
  0
LINE
  8
0
 10
59.6627
 20
124.768
 11
59.887
 21
124.796
  0
LINE
  8
0
 10
59.887
 20
124.796
 11
60.113
 21
124.796
  0
LINE
  8
0
 10
60.113
 20
124.796
 11
60.3373
 21
124.768
  0
LINE
  8
0
 10
60.3373
 20
124.768
 11
60.5562
 21
124.712
  0
LINE
  8
0
 10
60.5562
 20
124.712
 11
60.7664
 21
124.629
  0
LINE
  8
0
 10
60.7664
 20
124.629
 11
60.9645
 21
124.52
  0
LINE
  8
0
 10
60.9645
 20
124.52
 11
61.1474
 21
124.387
  0
LINE
  8
0
 10
61.1474
 20
124.387
 11
61.3121
 21
124.232
  0
LINE
  8
0
 10
61.3121
 20
124.232
 11
61.4562
 21
124.058
  0
LINE
  8
0
 10
61.4562
 20
124.058
 11
61.5773
 21
123.867
  0
LINE
  8
0
 10
61.5773
 20
123.867
 11
61.6736
 21
123.663
  0
LINE
  8
0
 10
61.6736
 20
123.663
 11
61.7434
 21
123.448
  0
LINE
  8
0
 10
61.7434
 20
123.448
 11
61.7858
 21
123.226
  0
LINE
  8
0
 10
61.7858
 20
123.226
 11
61.8
 21
123
  0
LINE
  8
0
 10
61.8
 20
123
 11
61.7858
 21
122.774
  0
LINE
  8
0
 10
61.7858
 20
122.774
 11
61.7434
 21
122.552
  0
LINE
  8
0
 10
61.7434
 20
122.552
 11
61.6736
 21
122.337
  0
LINE
  8
0
 10
61.6736
 20
122.337
 11
61.5773
 21
122.133
  0
LINE
  8
0
 10
61.5773
 20
122.133
 11
61.4562
 21
121.942
  0
LINE
  8
0
 10
61.4562
 20
121.942
 11
61.3121
 21
121.768
  0
LINE
  8
0
 10
61.3121
 20
121.768
 11
61.1474
 21
121.613
  0
LINE
  8
0
 10
61.1474
 20
121.613
 11
60.9645
 21
121.48
  0
LINE
  8
0
 10
60.9645
 20
121.48
 11
60.7664
 21
121.371
  0
LINE
  8
0
 10
60.7664
 20
121.371
 11
60.5562
 21
121.288
  0
LINE
  8
0
 10
60.5562
 20
121.288
 11
60.3373
 21
121.232
  0
LINE
  8
0
 10
60.3373
 20
121.232
 11
60.113
 21
121.204
  0
LINE
  8
0
 10
60.113
 20
121.204
 11
59.887
 21
121.204
  0
LINE
  8
0
 10
-60.113
 20
121.204
 11
-60.3373
 21
121.232
  0
LINE
  8
0
 10
-60.3373
 20
121.232
 11
-60.5562
 21
121.288
  0
LINE
  8
0
 10
-60.5562
 20
121.288
 11
-60.7664
 21
121.371
  0
LINE
  8
0
 10
-60.7664
 20
121.371
 11
-60.9645
 21
121.48
  0
LINE
  8
0
 10
-60.9645
 20
121.48
 11
-61.1474
 21
121.613
  0
LINE
  8
0
 10
-61.1474
 20
121.613
 11
-61.3121
 21
121.768
  0
LINE
  8
0
 10
-61.3121
 20
121.768
 11
-61.4562
 21
121.942
  0
LINE
  8
0
 10
-61.4562
 20
121.942
 11
-61.5773
 21
122.133
  0
LINE
  8
0
 10
-61.5773
 20
122.133
 11
-61.6736
 21
122.337
  0
LINE
  8
0
 10
-61.6736
 20
122.337
 11
-61.7434
 21
122.552
  0
LINE
  8
0
 10
-61.7434
 20
122.552
 11
-61.7858
 21
122.774
  0
LINE
  8
0
 10
-61.7858
 20
122.774
 11
-61.8
 21
123
  0
LINE
  8
0
 10
-61.8
 20
123
 11
-61.7858
 21
123.226
  0
LINE
  8
0
 10
-61.7858
 20
123.226
 11
-61.7434
 21
123.448
  0
LINE
  8
0
 10
-61.7434
 20
123.448
 11
-61.6736
 21
123.663
  0
LINE
  8
0
 10
-61.6736
 20
123.663
 11
-61.5773
 21
123.867
  0
LINE
  8
0
 10
-61.5773
 20
123.867
 11
-61.4562
 21
124.058
  0
LINE
  8
0
 10
-61.4562
 20
124.058
 11
-61.3121
 21
124.232
  0
LINE
  8
0
 10
-61.3121
 20
124.232
 11
-61.1474
 21
124.387
  0
LINE
  8
0
 10
-61.1474
 20
124.387
 11
-60.9645
 21
124.52
  0
LINE
  8
0
 10
-60.9645
 20
124.52
 11
-60.7664
 21
124.629
  0
LINE
  8
0
 10
-60.7664
 20
124.629
 11
-60.5562
 21
124.712
  0
LINE
  8
0
 10
-60.5562
 20
124.712
 11
-60.3373
 21
124.768
  0
LINE
  8
0
 10
-60.3373
 20
124.768
 11
-60.113
 21
124.796
  0
LINE
  8
0
 10
-60.113
 20
124.796
 11
-59.887
 21
124.796
  0
LINE
  8
0
 10
-59.887
 20
124.796
 11
-59.6627
 21
124.768
  0
LINE
  8
0
 10
-59.6627
 20
124.768
 11
-59.4438
 21
124.712
  0
LINE
  8
0
 10
-59.4438
 20
124.712
 11
-59.2336
 21
124.629
  0
LINE
  8
0
 10
-59.2336
 20
124.629
 11
-59.0355
 21
124.52
  0
LINE
  8
0
 10
-59.0355
 20
124.52
 11
-58.8526
 21
124.387
  0
LINE
  8
0
 10
-58.8526
 20
124.387
 11
-58.6879
 21
124.232
  0
LINE
  8
0
 10
-58.6879
 20
124.232
 11
-58.5438
 21
124.058
  0
LINE
  8
0
 10
-58.5438
 20
124.058
 11
-58.4226
 21
123.867
  0
LINE
  8
0
 10
-58.4226
 20
123.867
 11
-58.3264
 21
123.663
  0
LINE
  8
0
 10
-58.3264
 20
123.663
 11
-58.2565
 21
123.448
  0
LINE
  8
0
 10
-58.2565
 20
123.448
 11
-58.2142
 21
123.226
  0
LINE
  8
0
 10
-58.2142
 20
123.226
 11
-58.2
 21
123
  0
LINE
  8
0
 10
-58.2
 20
123
 11
-58.2142
 21
122.774
  0
LINE
  8
0
 10
-58.2142
 20
122.774
 11
-58.2565
 21
122.552
  0
LINE
  8
0
 10
-58.2565
 20
122.552
 11
-58.3264
 21
122.337
  0
LINE
  8
0
 10
-58.3264
 20
122.337
 11
-58.4226
 21
122.133
  0
LINE
  8
0
 10
-58.4226
 20
122.133
 11
-58.5438
 21
121.942
  0
LINE
  8
0
 10
-58.5438
 20
121.942
 11
-58.6879
 21
121.768
  0
LINE
  8
0
 10
-58.6879
 20
121.768
 11
-58.8526
 21
121.613
  0
LINE
  8
0
 10
-58.8526
 20
121.613
 11
-59.0355
 21
121.48
  0
LINE
  8
0
 10
-59.0355
 20
121.48
 11
-59.2336
 21
121.371
  0
LINE
  8
0
 10
-59.2336
 20
121.371
 11
-59.4438
 21
121.288
  0
LINE
  8
0
 10
-59.4438
 20
121.288
 11
-59.6627
 21
121.232
  0
LINE
  8
0
 10
-59.6627
 20
121.232
 11
-59.887
 21
121.204
  0
LINE
  8
0
 10
-59.887
 20
121.204
 11
-60.113
 21
121.204
  0
LINE
  8
0
 10
59.887
 20
91.2036
 11
59.6627
 21
91.2319
  0
LINE
  8
0
 10
59.6627
 20
91.2319
 11
59.4438
 21
91.2881
  0
LINE
  8
0
 10
59.4438
 20
91.2881
 11
59.2336
 21
91.3713
  0
LINE
  8
0
 10
59.2336
 20
91.3713
 11
59.0355
 21
91.4802
  0
LINE
  8
0
 10
59.0355
 20
91.4802
 11
58.8526
 21
91.6131
  0
LINE
  8
0
 10
58.8526
 20
91.6131
 11
58.6879
 21
91.7678
  0
LINE
  8
0
 10
58.6879
 20
91.7678
 11
58.5438
 21
91.942
  0
LINE
  8
0
 10
58.5438
 20
91.942
 11
58.4226
 21
92.1329
  0
LINE
  8
0
 10
58.4226
 20
92.1329
 11
58.3264
 21
92.3374
  0
LINE
  8
0
 10
58.3264
 20
92.3374
 11
58.2565
 21
92.5524
  0
LINE
  8
0
 10
58.2565
 20
92.5524
 11
58.2142
 21
92.7744
  0
LINE
  8
0
 10
58.2142
 20
92.7744
 11
58.2
 21
93
  0
LINE
  8
0
 10
58.2
 20
93
 11
58.2142
 21
93.2256
  0
LINE
  8
0
 10
58.2142
 20
93.2256
 11
58.2565
 21
93.4476
  0
LINE
  8
0
 10
58.2565
 20
93.4476
 11
58.3264
 21
93.6626
  0
LINE
  8
0
 10
58.3264
 20
93.6626
 11
58.4226
 21
93.8672
  0
LINE
  8
0
 10
58.4226
 20
93.8672
 11
58.5438
 21
94.058
  0
LINE
  8
0
 10
58.5438
 20
94.058
 11
58.6879
 21
94.2322
  0
LINE
  8
0
 10
58.6879
 20
94.2322
 11
58.8526
 21
94.3869
  0
LINE
  8
0
 10
58.8526
 20
94.3869
 11
59.0355
 21
94.5198
  0
LINE
  8
0
 10
59.0355
 20
94.5198
 11
59.2336
 21
94.6287
  0
LINE
  8
0
 10
59.2336
 20
94.6287
 11
59.4438
 21
94.7119
  0
LINE
  8
0
 10
59.4438
 20
94.7119
 11
59.6627
 21
94.7681
  0
LINE
  8
0
 10
59.6627
 20
94.7681
 11
59.887
 21
94.7964
  0
LINE
  8
0
 10
59.887
 20
94.7964
 11
60.113
 21
94.7964
  0
LINE
  8
0
 10
60.113
 20
94.7964
 11
60.3373
 21
94.7681
  0
LINE
  8
0
 10
60.3373
 20
94.7681
 11
60.5562
 21
94.7119
  0
LINE
  8
0
 10
60.5562
 20
94.7119
 11
60.7664
 21
94.6287
  0
LINE
  8
0
 10
60.7664
 20
94.6287
 11
60.9645
 21
94.5198
  0
LINE
  8
0
 10
60.9645
 20
94.5198
 11
61.1474
 21
94.3869
  0
LINE
  8
0
 10
61.1474
 20
94.3869
 11
61.3121
 21
94.2322
  0
LINE
  8
0
 10
61.3121
 20
94.2322
 11
61.4562
 21
94.058
  0
LINE
  8
0
 10
61.4562
 20
94.058
 11
61.5773
 21
93.8672
  0
LINE
  8
0
 10
61.5773
 20
93.8672
 11
61.6736
 21
93.6626
  0
LINE
  8
0
 10
61.6736
 20
93.6626
 11
61.7434
 21
93.4476
  0
LINE
  8
0
 10
61.7434
 20
93.4476
 11
61.7858
 21
93.2256
  0
LINE
  8
0
 10
61.7858
 20
93.2256
 11
61.8
 21
93
  0
LINE
  8
0
 10
61.8
 20
93
 11
61.7858
 21
92.7744
  0
LINE
  8
0
 10
61.7858
 20
92.7744
 11
61.7434
 21
92.5524
  0
LINE
  8
0
 10
61.7434
 20
92.5524
 11
61.6736
 21
92.3374
  0
LINE
  8
0
 10
61.6736
 20
92.3374
 11
61.5773
 21
92.1329
  0
LINE
  8
0
 10
61.5773
 20
92.1329
 11
61.4562
 21
91.942
  0
LINE
  8
0
 10
61.4562
 20
91.942
 11
61.3121
 21
91.7678
  0
LINE
  8
0
 10
61.3121
 20
91.7678
 11
61.1474
 21
91.6131
  0
LINE
  8
0
 10
61.1474
 20
91.6131
 11
60.9645
 21
91.4802
  0
LINE
  8
0
 10
60.9645
 20
91.4802
 11
60.7664
 21
91.3713
  0
LINE
  8
0
 10
60.7664
 20
91.3713
 11
60.5562
 21
91.2881
  0
LINE
  8
0
 10
60.5562
 20
91.2881
 11
60.3373
 21
91.2319
  0
LINE
  8
0
 10
60.3373
 20
91.2319
 11
60.113
 21
91.2036
  0
LINE
  8
0
 10
60.113
 20
91.2036
 11
59.887
 21
91.2036
  0
LINE
  8
0
 10
-60.113
 20
91.2036
 11
-60.3373
 21
91.2319
  0
LINE
  8
0
 10
-60.3373
 20
91.2319
 11
-60.5562
 21
91.2881
  0
LINE
  8
0
 10
-60.5562
 20
91.2881
 11
-60.7664
 21
91.3713
  0
LINE
  8
0
 10
-60.7664
 20
91.3713
 11
-60.9645
 21
91.4802
  0
LINE
  8
0
 10
-60.9645
 20
91.4802
 11
-61.1474
 21
91.6131
  0
LINE
  8
0
 10
-61.1474
 20
91.6131
 11
-61.3121
 21
91.7678
  0
LINE
  8
0
 10
-61.3121
 20
91.7678
 11
-61.4562
 21
91.942
  0
LINE
  8
0
 10
-61.4562
 20
91.942
 11
-61.5773
 21
92.1329
  0
LINE
  8
0
 10
-61.5773
 20
92.1329
 11
-61.6736
 21
92.3374
  0
LINE
  8
0
 10
-61.6736
 20
92.3374
 11
-61.7434
 21
92.5524
  0
LINE
  8
0
 10
-61.7434
 20
92.5524
 11
-61.7858
 21
92.7744
  0
LINE
  8
0
 10
-61.7858
 20
92.7744
 11
-61.8
 21
93
  0
LINE
  8
0
 10
-61.8
 20
93
 11
-61.7858
 21
93.2256
  0
LINE
  8
0
 10
-61.7858
 20
93.2256
 11
-61.7434
 21
93.4476
  0
LINE
  8
0
 10
-61.7434
 20
93.4476
 11
-61.6736
 21
93.6626
  0
LINE
  8
0
 10
-61.6736
 20
93.6626
 11
-61.5773
 21
93.8672
  0
LINE
  8
0
 10
-61.5773
 20
93.8672
 11
-61.4562
 21
94.058
  0
LINE
  8
0
 10
-61.4562
 20
94.058
 11
-61.3121
 21
94.2322
  0
LINE
  8
0
 10
-61.3121
 20
94.2322
 11
-61.1474
 21
94.3869
  0
LINE
  8
0
 10
-61.1474
 20
94.3869
 11
-60.9645
 21
94.5198
  0
LINE
  8
0
 10
-60.9645
 20
94.5198
 11
-60.7664
 21
94.6287
  0
LINE
  8
0
 10
-60.7664
 20
94.6287
 11
-60.5562
 21
94.7119
  0
LINE
  8
0
 10
-60.5562
 20
94.7119
 11
-60.3373
 21
94.7681
  0
LINE
  8
0
 10
-60.3373
 20
94.7681
 11
-60.113
 21
94.7964
  0
LINE
  8
0
 10
-60.113
 20
94.7964
 11
-59.887
 21
94.7964
  0
LINE
  8
0
 10
-59.887
 20
94.7964
 11
-59.6627
 21
94.7681
  0
LINE
  8
0
 10
-59.6627
 20
94.7681
 11
-59.4438
 21
94.7119
  0
LINE
  8
0
 10
-59.4438
 20
94.7119
 11
-59.2336
 21
94.6287
  0
LINE
  8
0
 10
-59.2336
 20
94.6287
 11
-59.0355
 21
94.5198
  0
LINE
  8
0
 10
-59.0355
 20
94.5198
 11
-58.8526
 21
94.3869
  0
LINE
  8
0
 10
-58.8526
 20
94.3869
 11
-58.6879
 21
94.2322
  0
LINE
  8
0
 10
-58.6879
 20
94.2322
 11
-58.5438
 21
94.058
  0
LINE
  8
0
 10
-58.5438
 20
94.058
 11
-58.4226
 21
93.8672
  0
LINE
  8
0
 10
-58.4226
 20
93.8672
 11
-58.3264
 21
93.6626
  0
LINE
  8
0
 10
-58.3264
 20
93.6626
 11
-58.2565
 21
93.4476
  0
LINE
  8
0
 10
-58.2565
 20
93.4476
 11
-58.2142
 21
93.2256
  0
LINE
  8
0
 10
-58.2142
 20
93.2256
 11
-58.2
 21
93
  0
LINE
  8
0
 10
-58.2
 20
93
 11
-58.2142
 21
92.7744
  0
LINE
  8
0
 10
-58.2142
 20
92.7744
 11
-58.2565
 21
92.5524
  0
LINE
  8
0
 10
-58.2565
 20
92.5524
 11
-58.3264
 21
92.3374
  0
LINE
  8
0
 10
-58.3264
 20
92.3374
 11
-58.4226
 21
92.1329
  0
LINE
  8
0
 10
-58.4226
 20
92.1329
 11
-58.5438
 21
91.942
  0
LINE
  8
0
 10
-58.5438
 20
91.942
 11
-58.6879
 21
91.7678
  0
LINE
  8
0
 10
-58.6879
 20
91.7678
 11
-58.8526
 21
91.6131
  0
LINE
  8
0
 10
-58.8526
 20
91.6131
 11
-59.0355
 21
91.4802
  0
LINE
  8
0
 10
-59.0355
 20
91.4802
 11
-59.2336
 21
91.3713
  0
LINE
  8
0
 10
-59.2336
 20
91.3713
 11
-59.4438
 21
91.2881
  0
LINE
  8
0
 10
-59.4438
 20
91.2881
 11
-59.6627
 21
91.2319
  0
LINE
  8
0
 10
-59.6627
 20
91.2319
 11
-59.887
 21
91.2036
  0
LINE
  8
0
 10
-59.887
 20
91.2036
 11
-60.113
 21
91.2036
  0
ENDSEC
  0
SECTION
  2
OBJECTS
  0
DICTIONARY
  0
ENDSEC
  0
EOF
