<?xml version="1.0" standalone="no"?>
<!DOCTYPE svg PUBLIC "-//W3C//DTD SVG 1.1//EN" "http://www.w3.org/Graphics/SVG/1.1/DTD/svg11.dtd">
<svg width="30mm" height="334mm" viewBox="-15 -509 30 334" xmlns="http://www.w3.org/2000/svg" version="1.1">
<title>OpenSCAD Model</title>
<path d="
M 10.9369,-403.589 L 11.5451,-403.745 L 12.1289,-403.976 L 12.6791,-404.278 L 13.1871,-404.647 L 13.6448,-405.077
 L 14.0451,-405.561 L 14.3815,-406.091 L 14.6489,-406.659 L 14.8429,-407.257 L 14.9606,-407.873 L 15,-408.5
 L 15,-503.5 L 14.9606,-504.127 L 14.8429,-504.743 L 14.6489,-505.341 L 14.3815,-505.909 L 14.0451,-506.439
 L 13.6448,-506.923 L 13.1871,-507.353 L 12.6791,-507.722 L 12.1289,-508.024 L 11.5451,-508.255 L 10.9369,-508.411
 L 10.3139,-508.49 L -10.3139,-508.49 L -10.9369,-508.411 L -11.5451,-508.255 L -12.1289,-508.024 L -12.6791,-507.722
 L -13.1871,-507.353 L -13.6448,-506.923 L -14.0451,-506.439 L -14.3815,-505.909 L -14.6489,-505.341 L -14.8429,-504.743
 L -14.9606,-504.127 L -15,-503.5 L -15,-408.5 L -14.9606,-407.873 L -14.8429,-407.257 L -14.6489,-406.659
 L -14.3815,-406.091 L -14.0451,-405.561 L -13.6448,-405.077 L -13.1871,-404.647 L -12.6791,-404.278 L -12.1289,-403.976
 L -11.5451,-403.745 L -10.9369,-403.589 L -10.3139,-403.51 L 10.3139,-403.51 z
M -9.74316,-405.135 L -10.2256,-405.196 L -10.6967,-405.317 L -11.1489,-405.496 L -11.5751,-405.73 L -11.9685,-406.016
 L -12.323,-406.349 L -12.633,-406.724 L -12.8936,-407.134 L -13.1007,-407.574 L -13.251,-408.037 L -13.3421,-408.515
 L -13.3726,-409 L -13.3726,-503 L -13.3421,-503.485 L -13.251,-503.963 L -13.1007,-504.426 L -12.8936,-504.866
 L -12.633,-505.276 L -12.323,-505.651 L -11.9685,-505.984 L -11.5751,-506.27 L -11.1489,-506.504 L -10.6967,-506.683
 L -10.2256,-506.804 L -9.74316,-506.865 L 9.74316,-506.865 L 10.2256,-506.804 L 10.6967,-506.683 L 11.1489,-506.504
 L 11.5751,-506.27 L 11.9685,-505.984 L 12.323,-505.651 L 12.633,-505.276 L 12.8936,-504.866 L 13.1007,-504.426
 L 13.251,-503.963 L 13.3421,-503.485 L 13.3726,-503 L 13.3726,-409 L 13.3421,-408.515 L 13.251,-408.037
 L 13.1007,-407.574 L 12.8936,-407.134 L 12.633,-406.724 L 12.323,-406.349 L 11.9685,-406.016 L 11.5751,-405.73
 L 11.1489,-405.496 L 10.6967,-405.317 L 10.2256,-405.196 L 9.74316,-405.135 z
M 10.9369,-289.589 L 11.5451,-289.745 L 12.1289,-289.976 L 12.6791,-290.278 L 13.1871,-290.647 L 13.6448,-291.077
 L 14.0451,-291.561 L 14.3815,-292.091 L 14.6489,-292.659 L 14.8429,-293.257 L 14.9606,-293.873 L 15,-294.5
 L 15,-389.5 L 14.9606,-390.127 L 14.8429,-390.743 L 14.6489,-391.341 L 14.3815,-391.909 L 14.0451,-392.439
 L 13.6448,-392.923 L 13.1871,-393.353 L 12.6791,-393.722 L 12.1289,-394.024 L 11.5451,-394.255 L 10.9369,-394.411
 L 10.3139,-394.49 L -10.3139,-394.49 L -10.9369,-394.411 L -11.5451,-394.255 L -12.1289,-394.024 L -12.6791,-393.722
 L -13.1871,-393.353 L -13.6448,-392.923 L -14.0451,-392.439 L -14.3815,-391.909 L -14.6489,-391.341 L -14.8429,-390.743
 L -14.9606,-390.127 L -15,-389.5 L -15,-294.5 L -14.9606,-293.873 L -14.8429,-293.257 L -14.6489,-292.659
 L -14.3815,-292.091 L -14.0451,-291.561 L -13.6448,-291.077 L -13.1871,-290.647 L -12.6791,-290.278 L -12.1289,-289.976
 L -11.5451,-289.745 L -10.9369,-289.589 L -10.3139,-289.51 L 10.3139,-289.51 z
M 10.9369,-175.589 L 11.5451,-175.745 L 12.1289,-175.976 L 12.6791,-176.278 L 13.1871,-176.647 L 13.6448,-177.077
 L 14.0451,-177.561 L 14.3815,-178.091 L 14.6489,-178.659 L 14.8429,-179.257 L 14.9606,-179.873 L 15,-180.5
 L 15,-275.5 L 14.9606,-276.127 L 14.8429,-276.743 L 14.6489,-277.341 L 14.3815,-277.909 L 14.0451,-278.439
 L 13.6448,-278.923 L 13.1871,-279.353 L 12.6791,-279.722 L 12.1289,-280.024 L 11.5451,-280.255 L 10.9369,-280.411
 L 10.3139,-280.49 L -10.3139,-280.49 L -10.9369,-280.411 L -11.5451,-280.255 L -12.1289,-280.024 L -12.6791,-279.722
 L -13.1871,-279.353 L -13.6448,-278.923 L -14.0451,-278.439 L -14.3815,-277.909 L -14.6489,-277.341 L -14.8429,-276.743
 L -14.9606,-276.127 L -15,-275.5 L -15,-180.5 L -14.9606,-179.873 L -14.8429,-179.257 L -14.6489,-178.659
 L -14.3815,-178.091 L -14.0451,-177.561 L -13.6448,-177.077 L -13.1871,-176.647 L -12.6791,-176.278 L -12.1289,-175.976
 L -11.5451,-175.745 L -10.9369,-175.589 L -10.3139,-175.51 L 10.3139,-175.51 z
M 7.38696,-271.204 L 7.1627,-271.232 L 6.94376,-271.288 L 6.7336,-271.371 L 6.53551,-271.48 L 6.35263,-271.613
 L 6.18785,-271.768 L 6.04376,-271.942 L 5.92264,-272.133 L 5.8264,-272.337 L 5.75655,-272.552 L 5.71419,-272.774
 L 5.7,-273 L 5.71419,-273.226 L 5.75655,-273.448 L 5.8264,-273.663 L 5.92264,-273.867 L 6.04376,-274.058
 L 6.18785,-274.232 L 6.35263,-274.387 L 6.53551,-274.52 L 6.7336,-274.629 L 6.94376,-274.712 L 7.1627,-274.768
 L 7.38696,-274.796 L 7.61302,-274.796 L 7.83728,-274.768 L 8.05623,-274.712 L 8.26639,-274.629 L 8.46448,-274.52
 L 8.64735,-274.387 L 8.81213,-274.232 L 8.95622,-274.058 L 9.07735,-273.867 L 9.17358,-273.663 L 9.24344,-273.448
 L 9.2858,-273.226 L 9.29999,-273 L 9.2858,-272.774 L 9.24344,-272.552 L 9.17358,-272.337 L 9.07735,-272.133
 L 8.95622,-271.942 L 8.81213,-271.768 L 8.64735,-271.613 L 8.46448,-271.48 L 8.26639,-271.371 L 8.05623,-271.288
 L 7.83728,-271.232 L 7.61302,-271.204 z
M -7.61302,-271.204 L -7.83728,-271.232 L -8.05623,-271.288 L -8.26639,-271.371 L -8.46448,-271.48 L -8.64735,-271.613
 L -8.81213,-271.768 L -8.95622,-271.942 L -9.07735,-272.133 L -9.17358,-272.337 L -9.24344,-272.552 L -9.2858,-272.774
 L -9.29999,-273 L -9.2858,-273.226 L -9.24344,-273.448 L -9.17358,-273.663 L -9.07735,-273.867 L -8.95622,-274.058
 L -8.81213,-274.232 L -8.64735,-274.387 L -8.46448,-274.52 L -8.26639,-274.629 L -8.05623,-274.712 L -7.83728,-274.768
 L -7.61302,-274.796 L -7.38696,-274.796 L -7.1627,-274.768 L -6.94376,-274.712 L -6.7336,-274.629 L -6.53551,-274.52
 L -6.35263,-274.387 L -6.18785,-274.232 L -6.04376,-274.058 L -5.92264,-273.867 L -5.8264,-273.663 L -5.75655,-273.448
 L -5.71419,-273.226 L -5.7,-273 L -5.71419,-272.774 L -5.75655,-272.552 L -5.8264,-272.337 L -5.92264,-272.133
 L -6.04376,-271.942 L -6.18785,-271.768 L -6.35263,-271.613 L -6.53551,-271.48 L -6.7336,-271.371 L -6.94376,-271.288
 L -7.1627,-271.232 L -7.38696,-271.204 z
M -7.61302,-181.204 L -7.83728,-181.232 L -8.05623,-181.288 L -8.26639,-181.371 L -8.46448,-181.48 L -8.64735,-181.613
 L -8.81213,-181.768 L -8.95622,-181.942 L -9.07735,-182.133 L -9.17358,-182.337 L -9.24344,-182.552 L -9.2858,-182.774
 L -9.29999,-183 L -9.2858,-183.226 L -9.24344,-183.448 L -9.17358,-183.663 L -9.07735,-183.867 L -8.95622,-184.058
 L -8.81213,-184.232 L -8.64735,-184.387 L -8.46448,-184.52 L -8.26639,-184.629 L -8.05623,-184.712 L -7.83728,-184.768
 L -7.61302,-184.796 L -7.38696,-184.796 L -7.1627,-184.768 L -6.94376,-184.712 L -6.7336,-184.629 L -6.53551,-184.52
 L -6.35263,-184.387 L -6.18785,-184.232 L -6.04376,-184.058 L -5.92264,-183.867 L -5.8264,-183.663 L -5.75655,-183.448
 L -5.71419,-183.226 L -5.7,-183 L -5.71419,-182.774 L -5.75655,-182.552 L -5.8264,-182.337 L -5.92264,-182.133
 L -6.04376,-181.942 L -6.18785,-181.768 L -6.35263,-181.613 L -6.53551,-181.48 L -6.7336,-181.371 L -6.94376,-181.288
 L -7.1627,-181.232 L -7.38696,-181.204 z
M 7.38696,-181.204 L 7.1627,-181.232 L 6.94376,-181.288 L 6.7336,-181.371 L 6.53551,-181.48 L 6.35263,-181.613
 L 6.18785,-181.768 L 6.04376,-181.942 L 5.92264,-182.133 L 5.8264,-182.337 L 5.75655,-182.552 L 5.71419,-182.774
 L 5.7,-183 L 5.71419,-183.226 L 5.75655,-183.448 L 5.8264,-183.663 L 5.92264,-183.867 L 6.04376,-184.058
 L 6.18785,-184.232 L 6.35263,-184.387 L 6.53551,-184.52 L 6.7336,-184.629 L 6.94376,-184.712 L 7.1627,-184.768
 L 7.38696,-184.796 L 7.61302,-184.796 L 7.83728,-184.768 L 8.05623,-184.712 L 8.26639,-184.629 L 8.46448,-184.52
 L 8.64735,-184.387 L 8.81213,-184.232 L 8.95622,-184.058 L 9.07735,-183.867 L 9.17358,-183.663 L 9.24344,-183.448
 L 9.2858,-183.226 L 9.29999,-183 L 9.2858,-182.774 L 9.24344,-182.552 L 9.17358,-182.337 L 9.07735,-182.133
 L 8.95622,-181.942 L 8.81213,-181.768 L 8.64735,-181.613 L 8.46448,-181.48 L 8.26639,-181.371 L 8.05623,-181.288
 L 7.83728,-181.232 L 7.61302,-181.204 z
" stroke="black" fill="lightgray" stroke-width="0.5"/>
</svg>
