<?xml version="1.0" standalone="no"?>
<!DOCTYPE svg PUBLIC "-//W3C//DTD SVG 1.1//EN" "http://www.w3.org/Graphics/SVG/1.1/DTD/svg11.dtd">
<svg width="122mm" height="69mm" viewBox="-62 -93 122 69" xmlns="http://www.w3.org/2000/svg" version="1.1">
<title>OpenSCAD Model</title>
<path d="
M 55.9369,-63.0886 L 56.5451,-63.2447 L 57.1289,-63.4759 L 57.6791,-63.7784 L 58.1871,-64.1474 L 58.6448,-64.5773
 L 59.0451,-65.0611 L 59.3815,-65.5912 L 59.6489,-66.1594 L 59.8429,-66.7566 L 59.9606,-67.3733 L 60,-68
 L 60,-88 L 59.9606,-88.6267 L 59.8429,-89.2434 L 59.6489,-89.8406 L 59.3815,-90.4088 L 59.0451,-90.9389
 L 58.6448,-91.4227 L 58.1871,-91.8526 L 57.6791,-92.2216 L 57.1289,-92.5241 L 56.5451,-92.7553 L 55.9369,-92.9114
 L 55.3139,-92.9901 L -55.3139,-92.9901 L -55.9369,-92.9114 L -56.5451,-92.7553 L -57.1289,-92.5241 L -57.6791,-92.2216
 L -58.1871,-91.8526 L -58.5,-91.5587 L -58.5,-92.6148 L -61.5,-92.6148 L -61.5,-63.3852 L -58.5,-63.3852
 L -58.5,-64.4413 L -58.1871,-64.1474 L -57.6791,-63.7784 L -57.1289,-63.4759 L -56.5451,-63.2447 L -55.9369,-63.0886
 L -55.3139,-63.0099 L 55.3139,-63.0099 z
M 55.9369,-24.0886 L 56.5451,-24.2447 L 57.1289,-24.4759 L 57.6791,-24.7784 L 58.1871,-25.1474 L 58.6448,-25.5773
 L 59.0451,-26.0611 L 59.3815,-26.5912 L 59.6489,-27.1594 L 59.8429,-27.7566 L 59.9606,-28.3733 L 60,-29
 L 60,-49 L 59.9606,-49.6267 L 59.8429,-50.2434 L 59.6489,-50.8406 L 59.3815,-51.4088 L 59.0451,-51.9389
 L 58.6448,-52.4227 L 58.1871,-52.8526 L 57.6791,-53.2216 L 57.1289,-53.5241 L 56.5451,-53.7553 L 55.9369,-53.9114
 L 55.3139,-53.9901 L -55.3139,-53.9901 L -55.9369,-53.9114 L -56.5451,-53.7553 L -57.1289,-53.5241 L -57.6791,-53.2216
 L -58.1871,-52.8526 L -58.6448,-52.4227 L -59.0451,-51.9389 L -59.3815,-51.4088 L -59.6489,-50.8406 L -59.8429,-50.2434
 L -59.9,-49.9442 L -61.5,-49.9442 L -61.5,-28.0558 L -59.9,-28.0558 L -59.8429,-27.7566 L -59.6489,-27.1594
 L -59.3815,-26.5912 L -59.0451,-26.0611 L -58.6448,-25.5773 L -58.1871,-25.1474 L -57.6791,-24.7784 L -57.1289,-24.4759
 L -56.5451,-24.2447 L -55.9369,-24.0886 L -55.3139,-24.0099 L 55.3139,-24.0099 z
M -52.613,-44.7036 L -52.8373,-44.7319 L -53.0562,-44.7881 L -53.2664,-44.8713 L -53.4645,-44.9802 L -53.6474,-45.1131
 L -53.8121,-45.2678 L -53.9562,-45.442 L -54.0773,-45.6328 L -54.1736,-45.8374 L -54.2434,-46.0524 L -54.2858,-46.2744
 L -54.3,-46.5 L -54.2858,-46.7256 L -54.2434,-46.9476 L -54.1736,-47.1626 L -54.0773,-47.3671 L -53.9562,-47.558
 L -53.8121,-47.7322 L -53.6474,-47.8869 L -53.4645,-48.0198 L -53.2664,-48.1287 L -53.0562,-48.2119 L -52.8373,-48.2681
 L -52.613,-48.2964 L -52.387,-48.2964 L -52.1627,-48.2681 L -51.9438,-48.2119 L -51.7336,-48.1287 L -51.5355,-48.0198
 L -51.3526,-47.8869 L -51.1879,-47.7322 L -51.0438,-47.558 L -50.9226,-47.3671 L -50.8264,-47.1626 L -50.7565,-46.9476
 L -50.7142,-46.7256 L -50.7,-46.5 L -50.7142,-46.2744 L -50.7565,-46.0524 L -50.8264,-45.8374 L -50.9226,-45.6328
 L -51.0438,-45.442 L -51.1879,-45.2678 L -51.3526,-45.1131 L -51.5355,-44.9802 L -51.7336,-44.8713 L -51.9438,-44.7881
 L -52.1627,-44.7319 L -52.387,-44.7036 z
M 52.387,-44.7036 L 52.1627,-44.7319 L 51.9438,-44.7881 L 51.7336,-44.8713 L 51.5355,-44.9802 L 51.3526,-45.1131
 L 51.1879,-45.2678 L 51.0438,-45.442 L 50.9226,-45.6328 L 50.8264,-45.8374 L 50.7565,-46.0524 L 50.7142,-46.2744
 L 50.7,-46.5 L 50.7142,-46.7256 L 50.7565,-46.9476 L 50.8264,-47.1626 L 50.9226,-47.3671 L 51.0438,-47.558
 L 51.1879,-47.7322 L 51.3526,-47.8869 L 51.5355,-48.0198 L 51.7336,-48.1287 L 51.9438,-48.2119 L 52.1627,-48.2681
 L 52.387,-48.2964 L 52.613,-48.2964 L 52.8373,-48.2681 L 53.0562,-48.2119 L 53.2664,-48.1287 L 53.4645,-48.0198
 L 53.6474,-47.8869 L 53.8121,-47.7322 L 53.9562,-47.558 L 54.0773,-47.3671 L 54.1736,-47.1626 L 54.2434,-46.9476
 L 54.2858,-46.7256 L 54.3,-46.5 L 54.2858,-46.2744 L 54.2434,-46.0524 L 54.1736,-45.8374 L 54.0773,-45.6328
 L 53.9562,-45.442 L 53.8121,-45.2678 L 53.6474,-45.1131 L 53.4645,-44.9802 L 53.2664,-44.8713 L 53.0562,-44.7881
 L 52.8373,-44.7319 L 52.613,-44.7036 z
M -52.613,-29.7036 L -52.8373,-29.7319 L -53.0562,-29.7881 L -53.2664,-29.8713 L -53.4645,-29.9802 L -53.6474,-30.1131
 L -53.8121,-30.2678 L -53.9562,-30.442 L -54.0773,-30.6329 L -54.1736,-30.8374 L -54.2434,-31.0524 L -54.2858,-31.2744
 L -54.3,-31.5 L -54.2858,-31.7256 L -54.2434,-31.9476 L -54.1736,-32.1626 L -54.0773,-32.3672 L -53.9562,-32.558
 L -53.8121,-32.7322 L -53.6474,-32.8869 L -53.4645,-33.0198 L -53.2664,-33.1287 L -53.0562,-33.2119 L -52.8373,-33.2681
 L -52.613,-33.2964 L -52.387,-33.2964 L -52.1627,-33.2681 L -51.9438,-33.2119 L -51.7336,-33.1287 L -51.5355,-33.0198
 L -51.3526,-32.8869 L -51.1879,-32.7322 L -51.0438,-32.558 L -50.9226,-32.3672 L -50.8264,-32.1626 L -50.7565,-31.9476
 L -50.7142,-31.7256 L -50.7,-31.5 L -50.7142,-31.2744 L -50.7565,-31.0524 L -50.8264,-30.8374 L -50.9226,-30.6329
 L -51.0438,-30.442 L -51.1879,-30.2678 L -51.3526,-30.1131 L -51.5355,-29.9802 L -51.7336,-29.8713 L -51.9438,-29.7881
 L -52.1627,-29.7319 L -52.387,-29.7036 z
M 52.387,-29.7036 L 52.1627,-29.7319 L 51.9438,-29.7881 L 51.7336,-29.8713 L 51.5355,-29.9802 L 51.3526,-30.1131
 L 51.1879,-30.2678 L 51.0438,-30.442 L 50.9226,-30.6329 L 50.8264,-30.8374 L 50.7565,-31.0524 L 50.7142,-31.2744
 L 50.7,-31.5 L 50.7142,-31.7256 L 50.7565,-31.9476 L 50.8264,-32.1626 L 50.9226,-32.3672 L 51.0438,-32.558
 L 51.1879,-32.7322 L 51.3526,-32.8869 L 51.5355,-33.0198 L 51.7336,-33.1287 L 51.9438,-33.2119 L 52.1627,-33.2681
 L 52.387,-33.2964 L 52.613,-33.2964 L 52.8373,-33.2681 L 53.0562,-33.2119 L 53.2664,-33.1287 L 53.4645,-33.0198
 L 53.6474,-32.8869 L 53.8121,-32.7322 L 53.9562,-32.558 L 54.0773,-32.3672 L 54.1736,-32.1626 L 54.2434,-31.9476
 L 54.2858,-31.7256 L 54.3,-31.5 L 54.2858,-31.2744 L 54.2434,-31.0524 L 54.1736,-30.8374 L 54.0773,-30.6329
 L 53.9562,-30.442 L 53.8121,-30.2678 L 53.6474,-30.1131 L 53.4645,-29.9802 L 53.2664,-29.8713 L 53.0562,-29.7881
 L 52.8373,-29.7319 L 52.613,-29.7036 z
" stroke="black" fill="lightgray" stroke-width="0.5"/>
</svg>
