<?xml version="1.0" standalone="no"?>
<!DOCTYPE svg PUBLIC "-//W3C//DTD SVG 1.1//EN" "http://www.w3.org/Graphics/SVG/1.1/DTD/svg11.dtd">
<svg width="106mm" height="154mm" viewBox="-53 -239 106 154" xmlns="http://www.w3.org/2000/svg" version="1.1">
<title>OpenSCAD Model</title>
<path d="
M 48.4369,-193.589 L 49.0451,-193.745 L 49.6289,-193.976 L 50.1791,-194.278 L 50.6871,-194.647 L 51.1448,-195.077
 L 51.5451,-195.561 L 51.8815,-196.091 L 52.1489,-196.659 L 52.3429,-197.257 L 52.4606,-197.873 L 52.5,-198.5
 L 52.5,-233.5 L 52.4606,-234.127 L 52.3429,-234.743 L 52.1489,-235.341 L 51.8815,-235.909 L 51.5451,-236.439
 L 51.1448,-236.923 L 50.6871,-237.353 L 50.1791,-237.722 L 49.6289,-238.024 L 49.0451,-238.255 L 48.4369,-238.411
 L 47.8139,-238.49 L -47.8139,-238.49 L -48.4369,-238.411 L -49.0451,-238.255 L -49.6289,-238.024 L -50.1791,-237.722
 L -50.6871,-237.353 L -51.1448,-236.923 L -51.5451,-236.439 L -51.8815,-235.909 L -52.1489,-235.341 L -52.3429,-234.743
 L -52.4606,-234.127 L -52.5,-233.5 L -52.5,-198.5 L -52.4606,-197.873 L -52.3429,-197.257 L -52.1489,-196.659
 L -51.8815,-196.091 L -51.5451,-195.561 L -51.1448,-195.077 L -50.6871,-194.647 L -50.1791,-194.278 L -49.6289,-193.976
 L -49.0451,-193.745 L -48.4369,-193.589 L -47.8139,-193.51 L 47.8139,-193.51 z
M -47.5482,-194.009 L -48.1401,-194.084 L -48.7178,-194.232 L -49.2724,-194.452 L -49.7952,-194.739 L -50.2778,-195.09
 L -50.7126,-195.498 L -51.0928,-195.958 L -51.4124,-196.462 L -51.6664,-197.001 L -51.8508,-197.569 L -51.9625,-198.155
 L -52,-198.75 L -52,-233.25 L -51.9625,-233.845 L -51.8508,-234.431 L -51.6664,-234.999 L -51.4124,-235.538
 L -51.0928,-236.042 L -50.7126,-236.502 L -50.2778,-236.91 L -49.7952,-237.261 L -49.2724,-237.548 L -48.7178,-237.768
 L -48.1401,-237.916 L -47.5482,-237.991 L 47.5482,-237.991 L 48.1401,-237.916 L 48.7178,-237.768 L 49.2724,-237.548
 L 49.7952,-237.261 L 50.2778,-236.91 L 50.7126,-236.502 L 51.0928,-236.042 L 51.4124,-235.538 L 51.6664,-234.999
 L 51.8508,-234.431 L 51.9625,-233.845 L 52,-233.25 L 52,-198.75 L 51.9625,-198.155 L 51.8508,-197.569
 L 51.6664,-197.001 L 51.4124,-196.462 L 51.0928,-195.958 L 50.7126,-195.498 L 50.2778,-195.09 L 49.7952,-194.739
 L 49.2724,-194.452 L 48.7178,-194.232 L 48.1401,-194.084 L 47.5482,-194.009 z
M 48.4369,-139.589 L 49.0451,-139.745 L 49.6289,-139.976 L 50.1791,-140.278 L 50.6871,-140.647 L 51.1448,-141.077
 L 51.5451,-141.561 L 51.8815,-142.091 L 52.1489,-142.659 L 52.3429,-143.257 L 52.4606,-143.873 L 52.5,-144.5
 L 52.5,-179.5 L 52.4606,-180.127 L 52.3429,-180.743 L 52.1489,-181.341 L 51.8815,-181.909 L 51.5451,-182.439
 L 51.1448,-182.923 L 50.6871,-183.353 L 50.1791,-183.722 L 49.6289,-184.024 L 49.0451,-184.255 L 48.4369,-184.411
 L 47.8139,-184.49 L -47.8139,-184.49 L -48.4369,-184.411 L -49.0451,-184.255 L -49.6289,-184.024 L -50.1791,-183.722
 L -50.6871,-183.353 L -51.1448,-182.923 L -51.5451,-182.439 L -51.8815,-181.909 L -52.1489,-181.341 L -52.3429,-180.743
 L -52.4606,-180.127 L -52.5,-179.5 L -52.5,-144.5 L -52.4606,-143.873 L -52.3429,-143.257 L -52.1489,-142.659
 L -51.8815,-142.091 L -51.5451,-141.561 L -51.1448,-141.077 L -50.6871,-140.647 L -50.1791,-140.278 L -49.6289,-139.976
 L -49.0451,-139.745 L -48.4369,-139.589 L -47.8139,-139.51 L 47.8139,-139.51 z
M -47.493,-140.888 L -47.9751,-140.949 L -48.4457,-141.07 L -48.8975,-141.249 L -49.3234,-141.483 L -49.7165,-141.769
 L -50.0707,-142.101 L -50.3805,-142.476 L -50.6408,-142.886 L -50.8477,-143.326 L -50.9979,-143.788 L -51.089,-144.265
 L -51.1195,-144.75 L -51.1195,-179.25 L -51.089,-179.735 L -50.9979,-180.212 L -50.8477,-180.674 L -50.6408,-181.114
 L -50.3805,-181.524 L -50.0707,-181.899 L -49.7165,-182.231 L -49.3234,-182.517 L -48.8975,-182.751 L -48.4457,-182.93
 L -47.9751,-183.051 L -47.493,-183.112 L 47.493,-183.112 L 47.9751,-183.051 L 48.4457,-182.93 L 48.8975,-182.751
 L 49.3234,-182.517 L 49.7165,-182.231 L 50.0707,-181.899 L 50.3805,-181.524 L 50.6408,-181.114 L 50.8477,-180.674
 L 50.9979,-180.212 L 51.089,-179.735 L 51.1195,-179.25 L 51.1195,-144.75 L 51.089,-144.265 L 50.9979,-143.788
 L 50.8477,-143.326 L 50.6408,-142.886 L 50.3805,-142.476 L 50.0707,-142.101 L 49.7165,-141.769 L 49.3234,-141.483
 L 48.8975,-141.249 L 48.4457,-141.07 L 47.9751,-140.949 L 47.493,-140.888 z
M 48.4369,-85.5886 L 49.0451,-85.7447 L 49.6289,-85.9759 L 50.1791,-86.2784 L 50.6871,-86.6474 L 51.1448,-87.0773
 L 51.5451,-87.5611 L 51.8815,-88.0912 L 52.1489,-88.6594 L 52.3429,-89.2566 L 52.4606,-89.8733 L 52.5,-90.5
 L 52.5,-125.5 L 52.4606,-126.127 L 52.3429,-126.743 L 52.1489,-127.341 L 51.8815,-127.909 L 51.5451,-128.439
 L 51.1448,-128.923 L 50.6871,-129.353 L 50.1791,-129.722 L 49.6289,-130.024 L 49.0451,-130.255 L 48.4369,-130.411
 L 47.8139,-130.49 L -47.8139,-130.49 L -48.4369,-130.411 L -49.0451,-130.255 L -49.6289,-130.024 L -50.1791,-129.722
 L -50.6871,-129.353 L -51.1448,-128.923 L -51.5451,-128.439 L -51.8815,-127.909 L -52.1489,-127.341 L -52.3429,-126.743
 L -52.4606,-126.127 L -52.5,-125.5 L -52.5,-90.5 L -52.4606,-89.8733 L -52.3429,-89.2566 L -52.1489,-88.6594
 L -51.8815,-88.0912 L -51.5451,-87.5611 L -51.1448,-87.0773 L -50.6871,-86.6474 L -50.1791,-86.2784 L -49.6289,-85.9759
 L -49.0451,-85.7447 L -48.4369,-85.5886 L -47.8139,-85.5099 L 47.8139,-85.5099 z
M -45.113,-121.204 L -45.3373,-121.232 L -45.5562,-121.288 L -45.7664,-121.371 L -45.9645,-121.48 L -46.1474,-121.613
 L -46.3121,-121.768 L -46.4562,-121.942 L -46.5773,-122.133 L -46.6736,-122.337 L -46.7434,-122.552 L -46.7858,-122.774
 L -46.8,-123 L -46.7858,-123.226 L -46.7434,-123.448 L -46.6736,-123.663 L -46.5773,-123.867 L -46.4562,-124.058
 L -46.3121,-124.232 L -46.1474,-124.387 L -45.9645,-124.52 L -45.7664,-124.629 L -45.5562,-124.712 L -45.3373,-124.768
 L -45.113,-124.796 L -44.887,-124.796 L -44.6627,-124.768 L -44.4438,-124.712 L -44.2336,-124.629 L -44.0355,-124.52
 L -43.8526,-124.387 L -43.6879,-124.232 L -43.5438,-124.058 L -43.4226,-123.867 L -43.3264,-123.663 L -43.2565,-123.448
 L -43.2142,-123.226 L -43.2,-123 L -43.2142,-122.774 L -43.2565,-122.552 L -43.3264,-122.337 L -43.4226,-122.133
 L -43.5438,-121.942 L -43.6879,-121.768 L -43.8526,-121.613 L -44.0355,-121.48 L -44.2336,-121.371 L -44.4438,-121.288
 L -44.6627,-121.232 L -44.887,-121.204 z
M 44.887,-121.204 L 44.6627,-121.232 L 44.4438,-121.288 L 44.2336,-121.371 L 44.0355,-121.48 L 43.8526,-121.613
 L 43.6879,-121.768 L 43.5438,-121.942 L 43.4226,-122.133 L 43.3264,-122.337 L 43.2565,-122.552 L 43.2142,-122.774
 L 43.2,-123 L 43.2142,-123.226 L 43.2565,-123.448 L 43.3264,-123.663 L 43.4226,-123.867 L 43.5438,-124.058
 L 43.6879,-124.232 L 43.8526,-124.387 L 44.0355,-124.52 L 44.2336,-124.629 L 44.4438,-124.712 L 44.6627,-124.768
 L 44.887,-124.796 L 45.113,-124.796 L 45.3373,-124.768 L 45.5562,-124.712 L 45.7664,-124.629 L 45.9645,-124.52
 L 46.1474,-124.387 L 46.3121,-124.232 L 46.4562,-124.058 L 46.5773,-123.867 L 46.6736,-123.663 L 46.7434,-123.448
 L 46.7858,-123.226 L 46.8,-123 L 46.7858,-122.774 L 46.7434,-122.552 L 46.6736,-122.337 L 46.5773,-122.133
 L 46.4562,-121.942 L 46.3121,-121.768 L 46.1474,-121.613 L 45.9645,-121.48 L 45.7664,-121.371 L 45.5562,-121.288
 L 45.3373,-121.232 L 45.113,-121.204 z
M 44.887,-91.2036 L 44.6627,-91.2319 L 44.4438,-91.2881 L 44.2336,-91.3713 L 44.0355,-91.4802 L 43.8526,-91.6131
 L 43.6879,-91.7678 L 43.5438,-91.942 L 43.4226,-92.1329 L 43.3264,-92.3374 L 43.2565,-92.5524 L 43.2142,-92.7744
 L 43.2,-93 L 43.2142,-93.2256 L 43.2565,-93.4476 L 43.3264,-93.6626 L 43.4226,-93.8672 L 43.5438,-94.058
 L 43.6879,-94.2322 L 43.8526,-94.3869 L 44.0355,-94.5198 L 44.2336,-94.6287 L 44.4438,-94.7119 L 44.6627,-94.7681
 L 44.887,-94.7964 L 45.113,-94.7964 L 45.3373,-94.7681 L 45.5562,-94.7119 L 45.7664,-94.6287 L 45.9645,-94.5198
 L 46.1474,-94.3869 L 46.3121,-94.2322 L 46.4562,-94.058 L 46.5773,-93.8672 L 46.6736,-93.6626 L 46.7434,-93.4476
 L 46.7858,-93.2256 L 46.8,-93 L 46.7858,-92.7744 L 46.7434,-92.5524 L 46.6736,-92.3374 L 46.5773,-92.1329
 L 46.4562,-91.942 L 46.3121,-91.7678 L 46.1474,-91.6131 L 45.9645,-91.4802 L 45.7664,-91.3713 L 45.5562,-91.2881
 L 45.3373,-91.2319 L 45.113,-91.2036 z
M -45.113,-91.2036 L -45.3373,-91.2319 L -45.5562,-91.2881 L -45.7664,-91.3713 L -45.9645,-91.4802 L -46.1474,-91.6131
 L -46.3121,-91.7678 L -46.4562,-91.942 L -46.5773,-92.1329 L -46.6736,-92.3374 L -46.7434,-92.5524 L -46.7858,-92.7744
 L -46.8,-93 L -46.7858,-93.2256 L -46.7434,-93.4476 L -46.6736,-93.6626 L -46.5773,-93.8672 L -46.4562,-94.058
 L -46.3121,-94.2322 L -46.1474,-94.3869 L -45.9645,-94.5198 L -45.7664,-94.6287 L -45.5562,-94.7119 L -45.3373,-94.7681
 L -45.113,-94.7964 L -44.887,-94.7964 L -44.6627,-94.7681 L -44.4438,-94.7119 L -44.2336,-94.6287 L -44.0355,-94.5198
 L -43.8526,-94.3869 L -43.6879,-94.2322 L -43.5438,-94.058 L -43.4226,-93.8672 L -43.3264,-93.6626 L -43.2565,-93.4476
 L -43.2142,-93.2256 L -43.2,-93 L -43.2142,-92.7744 L -43.2565,-92.5524 L -43.3264,-92.3374 L -43.4226,-92.1329
 L -43.5438,-91.942 L -43.6879,-91.7678 L -43.8526,-91.6131 L -44.0355,-91.4802 L -44.2336,-91.3713 L -44.4438,-91.2881
 L -44.6627,-91.2319 L -44.887,-91.2036 z
" stroke="black" fill="lightgray" stroke-width="0.5"/>
</svg>
