  0
SECTION
  2
BLOCKS
  0
ENDSEC
  0
SECTION
  2
ENTITIES
  0
LINE
  8
0
 10
17.9369
 20
101.089
 11
18.5451
 21
101.245
  0
LINE
  8
0
 10
18.5451
 20
101.245
 11
19.1289
 21
101.476
  0
LINE
  8
0
 10
19.1289
 20
101.476
 11
19.6791
 21
101.778
  0
LINE
  8
0
 10
19.6791
 20
101.778
 11
20.1871
 21
102.147
  0
LINE
  8
0
 10
20.1871
 20
102.147
 11
20.6448
 21
102.577
  0
LINE
  8
0
 10
20.6448
 20
102.577
 11
21.0451
 21
103.061
  0
LINE
  8
0
 10
21.0451
 20
103.061
 11
21.3815
 21
103.591
  0
LINE
  8
0
 10
21.3815
 20
103.591
 11
21.6489
 21
104.159
  0
LINE
  8
0
 10
21.6489
 20
104.159
 11
21.8429
 21
104.757
  0
LINE
  8
0
 10
21.8429
 20
104.757
 11
21.9606
 21
105.373
  0
LINE
  8
0
 10
21.9606
 20
105.373
 11
22
 21
106
  0
LINE
  8
0
 10
22
 20
106
 11
22
 21
110
  0
LINE
  8
0
 10
22
 20
110
 11
21.9606
 21
110.627
  0
LINE
  8
0
 10
21.9606
 20
110.627
 11
21.8429
 21
111.243
  0
LINE
  8
0
 10
21.8429
 20
111.243
 11
21.6489
 21
111.841
  0
LINE
  8
0
 10
21.6489
 20
111.841
 11
21.3815
 21
112.409
  0
LINE
  8
0
 10
21.3815
 20
112.409
 11
21.0451
 21
112.939
  0
LINE
  8
0
 10
21.0451
 20
112.939
 11
20.6448
 21
113.423
  0
LINE
  8
0
 10
20.6448
 20
113.423
 11
20.1871
 21
113.853
  0
LINE
  8
0
 10
20.1871
 20
113.853
 11
19.6791
 21
114.222
  0
LINE
  8
0
 10
19.6791
 20
114.222
 11
19.1289
 21
114.524
  0
LINE
  8
0
 10
19.1289
 20
114.524
 11
18.5451
 21
114.755
  0
LINE
  8
0
 10
18.5451
 20
114.755
 11
17.9369
 21
114.911
  0
LINE
  8
0
 10
17.9369
 20
114.911
 11
17.3139
 21
114.99
  0
LINE
  8
0
 10
17.3139
 20
114.99
 11
16
 21
114.99
  0
LINE
  8
0
 10
16
 20
114.99
 11
16
 21
128
  0
LINE
  8
0
 10
16
 20
128
 11
15.9606
 21
128.627
  0
LINE
  8
0
 10
15.9606
 20
128.627
 11
15.8429
 21
129.243
  0
LINE
  8
0
 10
15.8429
 20
129.243
 11
15.6489
 21
129.841
  0
LINE
  8
0
 10
15.6489
 20
129.841
 11
15.5739
 21
130
  0
LINE
  8
0
 10
15.5739
 20
130
 11
8.25
 21
130
  0
LINE
  8
0
 10
8.25
 20
130
 11
8.25
 21
129.998
  0
LINE
  8
0
 10
8.25
 20
129.998
 11
7.43719
 21
129.998
  0
LINE
  8
0
 10
7.43719
 20
129.998
 11
7.31261
 21
129.982
  0
LINE
  8
0
 10
7.31261
 20
129.982
 11
7.19098
 21
129.951
  0
LINE
  8
0
 10
7.19098
 20
129.951
 11
7.07422
 21
129.905
  0
LINE
  8
0
 10
7.07422
 20
129.905
 11
6.96417
 21
129.844
  0
LINE
  8
0
 10
6.96417
 20
129.844
 11
6.86256
 21
129.771
  0
LINE
  8
0
 10
6.86256
 20
129.771
 11
6.77103
 21
129.685
  0
LINE
  8
0
 10
6.77103
 20
129.685
 11
6.69098
 21
129.588
  0
LINE
  8
0
 10
6.69098
 20
129.588
 11
6.62369
 21
129.482
  0
LINE
  8
0
 10
6.62369
 20
129.482
 11
6.57022
 21
129.368
  0
LINE
  8
0
 10
6.57022
 20
129.368
 11
6.5314
 21
129.249
  0
LINE
  8
0
 10
6.5314
 20
129.249
 11
6.50787
 21
129.125
  0
LINE
  8
0
 10
6.50787
 20
129.125
 11
6.5
 21
129
  0
LINE
  8
0
 10
6.5
 20
129
 11
6.50787
 21
128.875
  0
LINE
  8
0
 10
6.50787
 20
128.875
 11
6.5314
 21
128.751
  0
LINE
  8
0
 10
6.5314
 20
128.751
 11
6.57022
 21
128.632
  0
LINE
  8
0
 10
6.57022
 20
128.632
 11
6.62369
 21
128.518
  0
LINE
  8
0
 10
6.62369
 20
128.518
 11
6.69098
 21
128.412
  0
LINE
  8
0
 10
6.69098
 20
128.412
 11
6.77103
 21
128.315
  0
LINE
  8
0
 10
6.77103
 20
128.315
 11
6.86256
 21
128.229
  0
LINE
  8
0
 10
6.86256
 20
128.229
 11
6.96417
 21
128.156
  0
LINE
  8
0
 10
6.96417
 20
128.156
 11
7.07422
 21
128.095
  0
LINE
  8
0
 10
7.07422
 20
128.095
 11
7.19098
 21
128.049
  0
LINE
  8
0
 10
7.19098
 20
128.049
 11
7.31261
 21
128.018
  0
LINE
  8
0
 10
7.31261
 20
128.018
 11
7.43719
 21
128.002
  0
LINE
  8
0
 10
7.43719
 20
128.002
 11
8.92416
 21
128.002
  0
LINE
  8
0
 10
8.92416
 20
128.002
 11
10.07
 21
126.926
  0
LINE
  8
0
 10
10.07
 20
126.926
 11
11.2307
 21
125.523
  0
LINE
  8
0
 10
11.2307
 20
125.523
 11
12.2064
 21
123.985
  0
LINE
  8
0
 10
12.2064
 20
123.985
 11
12.9818
 21
122.338
  0
LINE
  8
0
 10
12.9818
 20
122.338
 11
13.5444
 21
120.606
  0
LINE
  8
0
 10
13.5444
 20
120.606
 11
13.8857
 21
118.817
  0
LINE
  8
0
 10
13.8857
 20
118.817
 11
14
 21
117
  0
LINE
  8
0
 10
14
 20
117
 11
13.8857
 21
115.183
  0
LINE
  8
0
 10
13.8857
 20
115.183
 11
13.5444
 21
113.394
  0
LINE
  8
0
 10
13.5444
 20
113.394
 11
12.9818
 21
111.662
  0
LINE
  8
0
 10
12.9818
 20
111.662
 11
12.2064
 21
110.015
  0
LINE
  8
0
 10
12.2064
 20
110.015
 11
11.2307
 21
108.477
  0
LINE
  8
0
 10
11.2307
 20
108.477
 11
10.07
 21
107.074
  0
LINE
  8
0
 10
10.07
 20
107.074
 11
8.74265
 21
105.828
  0
LINE
  8
0
 10
8.74265
 20
105.828
 11
7.26949
 21
104.757
  0
LINE
  8
0
 10
7.26949
 20
104.757
 11
5.6738
 21
103.88
  0
LINE
  8
0
 10
5.6738
 20
103.88
 11
3.98074
 21
103.21
  0
LINE
  8
0
 10
3.98074
 20
103.21
 11
2.21703
 21
102.757
  0
LINE
  8
0
 10
2.21703
 20
102.757
 11
0.410461
 21
102.529
  0
LINE
  8
0
 10
0.410461
 20
102.529
 11
-1.41046
 21
102.529
  0
LINE
  8
0
 10
-1.41046
 20
102.529
 11
-3.21703
 21
102.757
  0
LINE
  8
0
 10
-3.21703
 20
102.757
 11
-4.98074
 21
103.21
  0
LINE
  8
0
 10
-4.98074
 20
103.21
 11
-6.6738
 21
103.88
  0
LINE
  8
0
 10
-6.6738
 20
103.88
 11
-8.26949
 21
104.757
  0
LINE
  8
0
 10
-8.26949
 20
104.757
 11
-9.74265
 21
105.828
  0
LINE
  8
0
 10
-9.74265
 20
105.828
 11
-11.07
 21
107.074
  0
LINE
  8
0
 10
-11.07
 20
107.074
 11
-12.2307
 21
108.477
  0
LINE
  8
0
 10
-12.2307
 20
108.477
 11
-13.2064
 21
110.015
  0
LINE
  8
0
 10
-13.2064
 20
110.015
 11
-13.9818
 21
111.662
  0
LINE
  8
0
 10
-13.9818
 20
111.662
 11
-14.5444
 21
113.394
  0
LINE
  8
0
 10
-14.5444
 20
113.394
 11
-14.8857
 21
115.183
  0
LINE
  8
0
 10
-14.8857
 20
115.183
 11
-15
 21
117
  0
LINE
  8
0
 10
-15
 20
117
 11
-14.8857
 21
118.817
  0
LINE
  8
0
 10
-14.8857
 20
118.817
 11
-14.5444
 21
120.606
  0
LINE
  8
0
 10
-14.5444
 20
120.606
 11
-13.9818
 21
122.338
  0
LINE
  8
0
 10
-13.9818
 20
122.338
 11
-13.2064
 21
123.985
  0
LINE
  8
0
 10
-13.2064
 20
123.985
 11
-12.2307
 21
125.523
  0
LINE
  8
0
 10
-12.2307
 20
125.523
 11
-11.07
 21
126.926
  0
LINE
  8
0
 10
-11.07
 20
126.926
 11
-9.74265
 21
128.172
  0
LINE
  8
0
 10
-9.74265
 20
128.172
 11
-8.26949
 21
129.243
  0
LINE
  8
0
 10
-8.26949
 20
129.243
 11
-6.6738
 21
130.12
  0
LINE
  8
0
 10
-6.6738
 20
130.12
 11
-4.98074
 21
130.79
  0
LINE
  8
0
 10
-4.98074
 20
130.79
 11
-3.21703
 21
131.243
  0
LINE
  8
0
 10
-3.21703
 20
131.243
 11
-1.41046
 21
131.471
  0
LINE
  8
0
 10
-1.41046
 20
131.471
 11
0
 21
131.471
  0
LINE
  8
0
 10
0
 20
131.471
 11
0
 21
131.5
  0
LINE
  8
0
 10
0
 20
131.5
 11
1.24998
 21
131.5
  0
LINE
  8
0
 10
1.24998
 20
131.5
 11
-0.240128
 21
132.99
  0
LINE
  8
0
 10
-0.240128
 20
132.99
 11
-1.5
 21
132.99
  0
LINE
  8
0
 10
-1.5
 20
132.99
 11
-1.5
 21
132
  0
LINE
  8
0
 10
-1.5
 20
132
 11
-15.5
 21
132
  0
LINE
  8
0
 10
-15.5
 20
132
 11
-15.5
 21
133
  0
LINE
  8
0
 10
-15.5
 20
133
 11
-16
 21
133
  0
LINE
  8
0
 10
-16
 20
133
 11
-16
 21
106
  0
LINE
  8
0
 10
-16
 20
106
 11
-15.9606
 21
105.373
  0
LINE
  8
0
 10
-15.9606
 20
105.373
 11
-15.8429
 21
104.757
  0
LINE
  8
0
 10
-15.8429
 20
104.757
 11
-15.6489
 21
104.159
  0
LINE
  8
0
 10
-15.6489
 20
104.159
 11
-15.3815
 21
103.591
  0
LINE
  8
0
 10
-15.3815
 20
103.591
 11
-15.0451
 21
103.061
  0
LINE
  8
0
 10
-15.0451
 20
103.061
 11
-14.6448
 21
102.577
  0
LINE
  8
0
 10
-14.6448
 20
102.577
 11
-14.1871
 21
102.147
  0
LINE
  8
0
 10
-14.1871
 20
102.147
 11
-13.6791
 21
101.778
  0
LINE
  8
0
 10
-13.6791
 20
101.778
 11
-13.1289
 21
101.476
  0
LINE
  8
0
 10
-13.1289
 20
101.476
 11
-12.5451
 21
101.245
  0
LINE
  8
0
 10
-12.5451
 20
101.245
 11
-11.9369
 21
101.089
  0
LINE
  8
0
 10
-11.9369
 20
101.089
 11
-11.3139
 21
101.01
  0
LINE
  8
0
 10
-11.3139
 20
101.01
 11
17.3139
 21
101.01
  0
LINE
  8
0
 10
17.3139
 20
101.01
 11
17.9369
 21
101.089
  0
LINE
  8
0
 10
14.8116
 20
105.006
 11
14.4379
 21
105.053
  0
LINE
  8
0
 10
14.4379
 20
105.053
 11
14.0729
 21
105.147
  0
LINE
  8
0
 10
14.0729
 20
105.147
 11
13.7227
 21
105.286
  0
LINE
  8
0
 10
13.7227
 20
105.286
 11
13.3925
 21
105.467
  0
LINE
  8
0
 10
13.3925
 20
105.467
 11
13.0877
 21
105.688
  0
LINE
  8
0
 10
13.0877
 20
105.688
 11
12.8131
 21
105.946
  0
LINE
  8
0
 10
12.8131
 20
105.946
 11
12.5729
 21
106.237
  0
LINE
  8
0
 10
12.5729
 20
106.237
 11
12.3711
 21
106.555
  0
LINE
  8
0
 10
12.3711
 20
106.555
 11
12.2107
 21
106.896
  0
LINE
  8
0
 10
12.2107
 20
106.896
 11
12.0942
 21
107.254
  0
LINE
  8
0
 10
12.0942
 20
107.254
 11
12.0237
 21
107.624
  0
LINE
  8
0
 10
12.0237
 20
107.624
 11
12
 21
108
  0
LINE
  8
0
 10
12
 20
108
 11
12.0237
 21
108.376
  0
LINE
  8
0
 10
12.0237
 20
108.376
 11
12.0942
 21
108.746
  0
LINE
  8
0
 10
12.0942
 20
108.746
 11
12.2107
 21
109.104
  0
LINE
  8
0
 10
12.2107
 20
109.104
 11
12.3711
 21
109.445
  0
LINE
  8
0
 10
12.3711
 20
109.445
 11
12.5729
 21
109.763
  0
LINE
  8
0
 10
12.5729
 20
109.763
 11
12.8131
 21
110.054
  0
LINE
  8
0
 10
12.8131
 20
110.054
 11
13.0877
 21
110.312
  0
LINE
  8
0
 10
13.0877
 20
110.312
 11
13.3925
 21
110.533
  0
LINE
  8
0
 10
13.3925
 20
110.533
 11
13.7227
 21
110.714
  0
LINE
  8
0
 10
13.7227
 20
110.714
 11
14.0729
 21
110.853
  0
LINE
  8
0
 10
14.0729
 20
110.853
 11
14.4379
 21
110.947
  0
LINE
  8
0
 10
14.4379
 20
110.947
 11
14.8116
 21
110.994
  0
LINE
  8
0
 10
14.8116
 20
110.994
 11
15.1884
 21
110.994
  0
LINE
  8
0
 10
15.1884
 20
110.994
 11
15.5621
 21
110.947
  0
LINE
  8
0
 10
15.5621
 20
110.947
 11
15.927
 21
110.853
  0
LINE
  8
0
 10
15.927
 20
110.853
 11
16.2773
 21
110.714
  0
LINE
  8
0
 10
16.2773
 20
110.714
 11
16.6075
 21
110.533
  0
LINE
  8
0
 10
16.6075
 20
110.533
 11
16.9123
 21
110.312
  0
LINE
  8
0
 10
16.9123
 20
110.312
 11
17.1869
 21
110.054
  0
LINE
  8
0
 10
17.1869
 20
110.054
 11
17.427
 21
109.763
  0
LINE
  8
0
 10
17.427
 20
109.763
 11
17.6289
 21
109.445
  0
LINE
  8
0
 10
17.6289
 20
109.445
 11
17.7893
 21
109.104
  0
LINE
  8
0
 10
17.7893
 20
109.104
 11
17.9057
 21
108.746
  0
LINE
  8
0
 10
17.9057
 20
108.746
 11
17.9763
 21
108.376
  0
LINE
  8
0
 10
17.9763
 20
108.376
 11
18
 21
108
  0
LINE
  8
0
 10
18
 20
108
 11
17.9763
 21
107.624
  0
LINE
  8
0
 10
17.9763
 20
107.624
 11
17.9057
 21
107.254
  0
LINE
  8
0
 10
17.9057
 20
107.254
 11
17.7893
 21
106.896
  0
LINE
  8
0
 10
17.7893
 20
106.896
 11
17.6289
 21
106.555
  0
LINE
  8
0
 10
17.6289
 20
106.555
 11
17.427
 21
106.237
  0
LINE
  8
0
 10
17.427
 20
106.237
 11
17.1869
 21
105.946
  0
LINE
  8
0
 10
17.1869
 20
105.946
 11
16.9123
 21
105.688
  0
LINE
  8
0
 10
16.9123
 20
105.688
 11
16.6075
 21
105.467
  0
LINE
  8
0
 10
16.6075
 20
105.467
 11
16.2773
 21
105.286
  0
LINE
  8
0
 10
16.2773
 20
105.286
 11
15.927
 21
105.147
  0
LINE
  8
0
 10
15.927
 20
105.147
 11
15.5621
 21
105.053
  0
LINE
  8
0
 10
15.5621
 20
105.053
 11
15.1884
 21
105.006
  0
LINE
  8
0
 10
15.1884
 20
105.006
 11
14.8116
 21
105.006
  0
LINE
  8
0
 10
14.1871
 20
131.853
 11
13.6791
 21
132.222
  0
LINE
  8
0
 10
13.6791
 20
132.222
 11
13.1289
 21
132.524
  0
LINE
  8
0
 10
13.1289
 20
132.524
 11
12.5451
 21
132.755
  0
LINE
  8
0
 10
12.5451
 20
132.755
 11
11.9369
 21
132.911
  0
LINE
  8
0
 10
11.9369
 20
132.911
 11
11.3139
 21
132.99
  0
LINE
  8
0
 10
11.3139
 20
132.99
 11
1.88118
 21
132.99
  0
LINE
  8
0
 10
1.88118
 20
132.99
 11
3.37131
 21
131.5
  0
LINE
  8
0
 10
3.37131
 20
131.5
 11
14.5626
 21
131.5
  0
LINE
  8
0
 10
14.5626
 20
131.5
 11
14.1871
 21
131.853
  0
LINE
  8
0
 10
17.9369
 20
62.0886
 11
18.5451
 21
62.2447
  0
LINE
  8
0
 10
18.5451
 20
62.2447
 11
19.1289
 21
62.4759
  0
LINE
  8
0
 10
19.1289
 20
62.4759
 11
19.6791
 21
62.7784
  0
LINE
  8
0
 10
19.6791
 20
62.7784
 11
20.1871
 21
63.1474
  0
LINE
  8
0
 10
20.1871
 20
63.1474
 11
20.6448
 21
63.5773
  0
LINE
  8
0
 10
20.6448
 20
63.5773
 11
21.0451
 21
64.0611
  0
LINE
  8
0
 10
21.0451
 20
64.0611
 11
21.3815
 21
64.5912
  0
LINE
  8
0
 10
21.3815
 20
64.5912
 11
21.6489
 21
65.1594
  0
LINE
  8
0
 10
21.6489
 20
65.1594
 11
21.8429
 21
65.7566
  0
LINE
  8
0
 10
21.8429
 20
65.7566
 11
21.9606
 21
66.3733
  0
LINE
  8
0
 10
21.9606
 20
66.3733
 11
22
 21
67
  0
LINE
  8
0
 10
22
 20
67
 11
22
 21
71
  0
LINE
  8
0
 10
22
 20
71
 11
21.9606
 21
71.6267
  0
LINE
  8
0
 10
21.9606
 20
71.6267
 11
21.8429
 21
72.2435
  0
LINE
  8
0
 10
21.8429
 20
72.2435
 11
21.6489
 21
72.8406
  0
LINE
  8
0
 10
21.6489
 20
72.8406
 11
21.3815
 21
73.4088
  0
LINE
  8
0
 10
21.3815
 20
73.4088
 11
21.0451
 21
73.9389
  0
LINE
  8
0
 10
21.0451
 20
73.9389
 11
20.6448
 21
74.4227
  0
LINE
  8
0
 10
20.6448
 20
74.4227
 11
20.1871
 21
74.8526
  0
LINE
  8
0
 10
20.1871
 20
74.8526
 11
19.6791
 21
75.2216
  0
LINE
  8
0
 10
19.6791
 20
75.2216
 11
19.1289
 21
75.5241
  0
LINE
  8
0
 10
19.1289
 20
75.5241
 11
18.5451
 21
75.7553
  0
LINE
  8
0
 10
18.5451
 20
75.7553
 11
17.9369
 21
75.9114
  0
LINE
  8
0
 10
17.9369
 20
75.9114
 11
17.3139
 21
75.9901
  0
LINE
  8
0
 10
17.3139
 20
75.9901
 11
16
 21
75.9901
  0
LINE
  8
0
 10
16
 20
75.9901
 11
16
 21
89
  0
LINE
  8
0
 10
16
 20
89
 11
15.9606
 21
89.6267
  0
LINE
  8
0
 10
15.9606
 20
89.6267
 11
15.8429
 21
90.2434
  0
LINE
  8
0
 10
15.8429
 20
90.2434
 11
15.6489
 21
90.8406
  0
LINE
  8
0
 10
15.6489
 20
90.8406
 11
15.3815
 21
91.4088
  0
LINE
  8
0
 10
15.3815
 20
91.4088
 11
15.0451
 21
91.9389
  0
LINE
  8
0
 10
15.0451
 20
91.9389
 11
14.6448
 21
92.4227
  0
LINE
  8
0
 10
14.6448
 20
92.4227
 11
14.1871
 21
92.8526
  0
LINE
  8
0
 10
14.1871
 20
92.8526
 11
13.6791
 21
93.2216
  0
LINE
  8
0
 10
13.6791
 20
93.2216
 11
13.1289
 21
93.5241
  0
LINE
  8
0
 10
13.1289
 20
93.5241
 11
12.5451
 21
93.7553
  0
LINE
  8
0
 10
12.5451
 20
93.7553
 11
11.9369
 21
93.9114
  0
LINE
  8
0
 10
11.9369
 20
93.9114
 11
11.3139
 21
93.9901
  0
LINE
  8
0
 10
11.3139
 20
93.9901
 11
-1.5
 21
93.9901
  0
LINE
  8
0
 10
-1.5
 20
93.9901
 11
-1.5
 21
93
  0
LINE
  8
0
 10
-1.5
 20
93
 11
-15.5
 21
93
  0
LINE
  8
0
 10
-15.5
 20
93
 11
-15.5
 21
94
  0
LINE
  8
0
 10
-15.5
 20
94
 11
-16
 21
94
  0
LINE
  8
0
 10
-16
 20
94
 11
-16
 21
67
  0
LINE
  8
0
 10
-16
 20
67
 11
-15.9606
 21
66.3733
  0
LINE
  8
0
 10
-15.9606
 20
66.3733
 11
-15.8429
 21
65.7566
  0
LINE
  8
0
 10
-15.8429
 20
65.7566
 11
-15.6489
 21
65.1594
  0
LINE
  8
0
 10
-15.6489
 20
65.1594
 11
-15.3815
 21
64.5912
  0
LINE
  8
0
 10
-15.3815
 20
64.5912
 11
-15.0451
 21
64.0611
  0
LINE
  8
0
 10
-15.0451
 20
64.0611
 11
-14.6448
 21
63.5773
  0
LINE
  8
0
 10
-14.6448
 20
63.5773
 11
-14.1871
 21
63.1474
  0
LINE
  8
0
 10
-14.1871
 20
63.1474
 11
-13.6791
 21
62.7784
  0
LINE
  8
0
 10
-13.6791
 20
62.7784
 11
-13.1289
 21
62.4759
  0
LINE
  8
0
 10
-13.1289
 20
62.4759
 11
-12.5451
 21
62.2447
  0
LINE
  8
0
 10
-12.5451
 20
62.2447
 11
-11.9369
 21
62.0886
  0
LINE
  8
0
 10
-11.9369
 20
62.0886
 11
-11.3139
 21
62.0099
  0
LINE
  8
0
 10
-11.3139
 20
62.0099
 11
17.3139
 21
62.0099
  0
LINE
  8
0
 10
17.3139
 20
62.0099
 11
17.9369
 21
62.0886
  0
LINE
  8
0
 10
-0.908127
 20
71.5128
 11
-1.71797
 21
71.6151
  0
LINE
  8
0
 10
-1.71797
 20
71.6151
 11
-2.50861
 21
71.8181
  0
LINE
  8
0
 10
-2.50861
 20
71.8181
 11
-3.26756
 21
72.1186
  0
LINE
  8
0
 10
-3.26756
 20
72.1186
 11
-3.98286
 21
72.5119
  0
LINE
  8
0
 10
-3.98286
 20
72.5119
 11
-4.64325
 21
72.9917
  0
LINE
  8
0
 10
-4.64325
 20
72.9917
 11
-5.23828
 21
73.5504
  0
LINE
  8
0
 10
-5.23828
 20
73.5504
 11
-5.75861
 21
74.1794
  0
LINE
  8
0
 10
-5.75861
 20
74.1794
 11
-6.19598
 21
74.8686
  0
LINE
  8
0
 10
-6.19598
 20
74.8686
 11
-6.54353
 21
75.6072
  0
LINE
  8
0
 10
-6.54353
 20
75.6072
 11
-6.79578
 21
76.3835
  0
LINE
  8
0
 10
-6.79578
 20
76.3835
 11
-6.94873
 21
77.1853
  0
LINE
  8
0
 10
-6.94873
 20
77.1853
 11
-7
 21
78
  0
LINE
  8
0
 10
-7
 20
78
 11
-6.94873
 21
78.8147
  0
LINE
  8
0
 10
-6.94873
 20
78.8147
 11
-6.79578
 21
79.6165
  0
LINE
  8
0
 10
-6.79578
 20
79.6165
 11
-6.54353
 21
80.3928
  0
LINE
  8
0
 10
-6.54353
 20
80.3928
 11
-6.19598
 21
81.1314
  0
LINE
  8
0
 10
-6.19598
 20
81.1314
 11
-5.75861
 21
81.8206
  0
LINE
  8
0
 10
-5.75861
 20
81.8206
 11
-5.23828
 21
82.4496
  0
LINE
  8
0
 10
-5.23828
 20
82.4496
 11
-4.64325
 21
83.0083
  0
LINE
  8
0
 10
-4.64325
 20
83.0083
 11
-3.98286
 21
83.4881
  0
LINE
  8
0
 10
-3.98286
 20
83.4881
 11
-3.26756
 21
83.8814
  0
LINE
  8
0
 10
-3.26756
 20
83.8814
 11
-2.50861
 21
84.1819
  0
LINE
  8
0
 10
-2.50861
 20
84.1819
 11
-1.71797
 21
84.3849
  0
LINE
  8
0
 10
-1.71797
 20
84.3849
 11
-0.908127
 21
84.4872
  0
LINE
  8
0
 10
-0.908127
 20
84.4872
 11
-0.0918579
 21
84.4872
  0
LINE
  8
0
 10
-0.0918579
 20
84.4872
 11
0.717972
 21
84.3849
  0
LINE
  8
0
 10
0.717972
 20
84.3849
 11
1.50861
 21
84.1819
  0
LINE
  8
0
 10
1.50861
 20
84.1819
 11
2.26756
 21
83.8814
  0
LINE
  8
0
 10
2.26756
 20
83.8814
 11
2.98286
 21
83.4881
  0
LINE
  8
0
 10
2.98286
 20
83.4881
 11
3.64325
 21
83.0083
  0
LINE
  8
0
 10
3.64325
 20
83.0083
 11
4.23828
 21
82.4496
  0
LINE
  8
0
 10
4.23828
 20
82.4496
 11
4.75861
 21
81.8206
  0
LINE
  8
0
 10
4.75861
 20
81.8206
 11
5.19598
 21
81.1314
  0
LINE
  8
0
 10
5.19598
 20
81.1314
 11
5.54353
 21
80.3928
  0
LINE
  8
0
 10
5.54353
 20
80.3928
 11
5.79578
 21
79.6165
  0
LINE
  8
0
 10
5.79578
 20
79.6165
 11
5.94873
 21
78.8147
  0
LINE
  8
0
 10
5.94873
 20
78.8147
 11
6
 21
78
  0
LINE
  8
0
 10
6
 20
78
 11
5.94873
 21
77.1853
  0
LINE
  8
0
 10
5.94873
 20
77.1853
 11
5.79578
 21
76.3835
  0
LINE
  8
0
 10
5.79578
 20
76.3835
 11
5.54353
 21
75.6072
  0
LINE
  8
0
 10
5.54353
 20
75.6072
 11
5.19598
 21
74.8686
  0
LINE
  8
0
 10
5.19598
 20
74.8686
 11
4.75861
 21
74.1794
  0
LINE
  8
0
 10
4.75861
 20
74.1794
 11
4.23828
 21
73.5504
  0
LINE
  8
0
 10
4.23828
 20
73.5504
 11
3.64325
 21
72.9917
  0
LINE
  8
0
 10
3.64325
 20
72.9917
 11
2.98286
 21
72.5119
  0
LINE
  8
0
 10
2.98286
 20
72.5119
 11
2.26756
 21
72.1186
  0
LINE
  8
0
 10
2.26756
 20
72.1186
 11
1.50861
 21
71.8181
  0
LINE
  8
0
 10
1.50861
 20
71.8181
 11
0.717972
 21
71.6151
  0
LINE
  8
0
 10
0.717972
 20
71.6151
 11
-0.0918579
 21
71.5128
  0
LINE
  8
0
 10
-0.0918579
 20
71.5128
 11
-0.908127
 21
71.5128
  0
LINE
  8
0
 10
14.8116
 20
66.0059
 11
14.4379
 21
66.0531
  0
LINE
  8
0
 10
14.4379
 20
66.0531
 11
14.0729
 21
66.1468
  0
LINE
  8
0
 10
14.0729
 20
66.1468
 11
13.7227
 21
66.2855
  0
LINE
  8
0
 10
13.7227
 20
66.2855
 11
13.3925
 21
66.467
  0
LINE
  8
0
 10
13.3925
 20
66.467
 11
13.0877
 21
66.6885
  0
LINE
  8
0
 10
13.0877
 20
66.6885
 11
12.8131
 21
66.9464
  0
LINE
  8
0
 10
12.8131
 20
66.9464
 11
12.5729
 21
67.2366
  0
LINE
  8
0
 10
12.5729
 20
67.2366
 11
12.3711
 21
67.5547
  0
LINE
  8
0
 10
12.3711
 20
67.5547
 11
12.2107
 21
67.8956
  0
LINE
  8
0
 10
12.2107
 20
67.8956
 11
12.0942
 21
68.2539
  0
LINE
  8
0
 10
12.0942
 20
68.2539
 11
12.0237
 21
68.624
  0
LINE
  8
0
 10
12.0237
 20
68.624
 11
12
 21
69
  0
LINE
  8
0
 10
12
 20
69
 11
12.0237
 21
69.376
  0
LINE
  8
0
 10
12.0237
 20
69.376
 11
12.0942
 21
69.7461
  0
LINE
  8
0
 10
12.0942
 20
69.7461
 11
12.2107
 21
70.1044
  0
LINE
  8
0
 10
12.2107
 20
70.1044
 11
12.3711
 21
70.4453
  0
LINE
  8
0
 10
12.3711
 20
70.4453
 11
12.5729
 21
70.7634
  0
LINE
  8
0
 10
12.5729
 20
70.7634
 11
12.8131
 21
71.0536
  0
LINE
  8
0
 10
12.8131
 20
71.0536
 11
13.0877
 21
71.3116
  0
LINE
  8
0
 10
13.0877
 20
71.3116
 11
13.3925
 21
71.533
  0
LINE
  8
0
 10
13.3925
 20
71.533
 11
13.7227
 21
71.7145
  0
LINE
  8
0
 10
13.7227
 20
71.7145
 11
14.0729
 21
71.8532
  0
LINE
  8
0
 10
14.0729
 20
71.8532
 11
14.4379
 21
71.9469
  0
LINE
  8
0
 10
14.4379
 20
71.9469
 11
14.8116
 21
71.9941
  0
LINE
  8
0
 10
14.8116
 20
71.9941
 11
15.1884
 21
71.9941
  0
LINE
  8
0
 10
15.1884
 20
71.9941
 11
15.5621
 21
71.9469
  0
LINE
  8
0
 10
15.5621
 20
71.9469
 11
15.927
 21
71.8532
  0
LINE
  8
0
 10
15.927
 20
71.8532
 11
16.2773
 21
71.7145
  0
LINE
  8
0
 10
16.2773
 20
71.7145
 11
16.6075
 21
71.533
  0
LINE
  8
0
 10
16.6075
 20
71.533
 11
16.9123
 21
71.3116
  0
LINE
  8
0
 10
16.9123
 20
71.3116
 11
17.1869
 21
71.0536
  0
LINE
  8
0
 10
17.1869
 20
71.0536
 11
17.427
 21
70.7634
  0
LINE
  8
0
 10
17.427
 20
70.7634
 11
17.6289
 21
70.4453
  0
LINE
  8
0
 10
17.6289
 20
70.4453
 11
17.7893
 21
70.1044
  0
LINE
  8
0
 10
17.7893
 20
70.1044
 11
17.9057
 21
69.7461
  0
LINE
  8
0
 10
17.9057
 20
69.7461
 11
17.9763
 21
69.376
  0
LINE
  8
0
 10
17.9763
 20
69.376
 11
18
 21
69
  0
LINE
  8
0
 10
18
 20
69
 11
17.9763
 21
68.624
  0
LINE
  8
0
 10
17.9763
 20
68.624
 11
17.9057
 21
68.2539
  0
LINE
  8
0
 10
17.9057
 20
68.2539
 11
17.7893
 21
67.8956
  0
LINE
  8
0
 10
17.7893
 20
67.8956
 11
17.6289
 21
67.5547
  0
LINE
  8
0
 10
17.6289
 20
67.5547
 11
17.427
 21
67.2366
  0
LINE
  8
0
 10
17.427
 20
67.2366
 11
17.1869
 21
66.9464
  0
LINE
  8
0
 10
17.1869
 20
66.9464
 11
16.9123
 21
66.6885
  0
LINE
  8
0
 10
16.9123
 20
66.6885
 11
16.6075
 21
66.467
  0
LINE
  8
0
 10
16.6075
 20
66.467
 11
16.2773
 21
66.2855
  0
LINE
  8
0
 10
16.2773
 20
66.2855
 11
15.927
 21
66.1468
  0
LINE
  8
0
 10
15.927
 20
66.1468
 11
15.5621
 21
66.0531
  0
LINE
  8
0
 10
15.5621
 20
66.0531
 11
15.1884
 21
66.0059
  0
LINE
  8
0
 10
15.1884
 20
66.0059
 11
14.8116
 21
66.0059
  0
ENDSEC
  0
SECTION
  2
OBJECTS
  0
DICTIONARY
  0
ENDSEC
  0
EOF
