  0
SECTION
  2
BLOCKS
  0
ENDSEC
  0
SECTION
  2
ENTITIES
  0
LINE
  8
0
 10
10.9369
 20
855.089
 11
11.5451
 21
855.245
  0
LINE
  8
0
 10
11.5451
 20
855.245
 11
12.1289
 21
855.476
  0
LINE
  8
0
 10
12.1289
 20
855.476
 11
12.6791
 21
855.778
  0
LINE
  8
0
 10
12.6791
 20
855.778
 11
13.1871
 21
856.147
  0
LINE
  8
0
 10
13.1871
 20
856.147
 11
13.6448
 21
856.577
  0
LINE
  8
0
 10
13.6448
 20
856.577
 11
14.0451
 21
857.061
  0
LINE
  8
0
 10
14.0451
 20
857.061
 11
14.3815
 21
857.591
  0
LINE
  8
0
 10
14.3815
 20
857.591
 11
14.6489
 21
858.159
  0
LINE
  8
0
 10
14.6489
 20
858.159
 11
14.8429
 21
858.757
  0
LINE
  8
0
 10
14.8429
 20
858.757
 11
14.9606
 21
859.373
  0
LINE
  8
0
 10
14.9606
 20
859.373
 11
15
 21
860
  0
LINE
  8
0
 10
15
 20
860
 11
15
 21
1030
  0
LINE
  8
0
 10
15
 20
1030
 11
14.9606
 21
1030.63
  0
LINE
  8
0
 10
14.9606
 20
1030.63
 11
14.8429
 21
1031.24
  0
LINE
  8
0
 10
14.8429
 20
1031.24
 11
14.6489
 21
1031.84
  0
LINE
  8
0
 10
14.6489
 20
1031.84
 11
14.3815
 21
1032.41
  0
LINE
  8
0
 10
14.3815
 20
1032.41
 11
14.0451
 21
1032.94
  0
LINE
  8
0
 10
14.0451
 20
1032.94
 11
13.6448
 21
1033.42
  0
LINE
  8
0
 10
13.6448
 20
1033.42
 11
13.1871
 21
1033.85
  0
LINE
  8
0
 10
13.1871
 20
1033.85
 11
12.6791
 21
1034.22
  0
LINE
  8
0
 10
12.6791
 20
1034.22
 11
12.1289
 21
1034.52
  0
LINE
  8
0
 10
12.1289
 20
1034.52
 11
11.5451
 21
1034.76
  0
LINE
  8
0
 10
11.5451
 20
1034.76
 11
10.9369
 21
1034.91
  0
LINE
  8
0
 10
10.9369
 20
1034.91
 11
10.3139
 21
1034.99
  0
LINE
  8
0
 10
10.3139
 20
1034.99
 11
-10.3139
 21
1034.99
  0
LINE
  8
0
 10
-10.3139
 20
1034.99
 11
-10.9369
 21
1034.91
  0
LINE
  8
0
 10
-10.9369
 20
1034.91
 11
-11.5451
 21
1034.76
  0
LINE
  8
0
 10
-11.5451
 20
1034.76
 11
-12.1289
 21
1034.52
  0
LINE
  8
0
 10
-12.1289
 20
1034.52
 11
-12.6791
 21
1034.22
  0
LINE
  8
0
 10
-12.6791
 20
1034.22
 11
-13.1871
 21
1033.85
  0
LINE
  8
0
 10
-13.1871
 20
1033.85
 11
-13.6448
 21
1033.42
  0
LINE
  8
0
 10
-13.6448
 20
1033.42
 11
-14.0451
 21
1032.94
  0
LINE
  8
0
 10
-14.0451
 20
1032.94
 11
-14.3815
 21
1032.41
  0
LINE
  8
0
 10
-14.3815
 20
1032.41
 11
-14.6489
 21
1031.84
  0
LINE
  8
0
 10
-14.6489
 20
1031.84
 11
-14.8429
 21
1031.24
  0
LINE
  8
0
 10
-14.8429
 20
1031.24
 11
-14.9606
 21
1030.63
  0
LINE
  8
0
 10
-14.9606
 20
1030.63
 11
-15
 21
1030
  0
LINE
  8
0
 10
-15
 20
1030
 11
-15
 21
860
  0
LINE
  8
0
 10
-15
 20
860
 11
-14.9606
 21
859.373
  0
LINE
  8
0
 10
-14.9606
 20
859.373
 11
-14.8429
 21
858.757
  0
LINE
  8
0
 10
-14.8429
 20
858.757
 11
-14.6489
 21
858.159
  0
LINE
  8
0
 10
-14.6489
 20
858.159
 11
-14.3815
 21
857.591
  0
LINE
  8
0
 10
-14.3815
 20
857.591
 11
-14.0451
 21
857.061
  0
LINE
  8
0
 10
-14.0451
 20
857.061
 11
-13.6448
 21
856.577
  0
LINE
  8
0
 10
-13.6448
 20
856.577
 11
-13.1871
 21
856.147
  0
LINE
  8
0
 10
-13.1871
 20
856.147
 11
-12.6791
 21
855.778
  0
LINE
  8
0
 10
-12.6791
 20
855.778
 11
-12.1289
 21
855.476
  0
LINE
  8
0
 10
-12.1289
 20
855.476
 11
-11.5451
 21
855.245
  0
LINE
  8
0
 10
-11.5451
 20
855.245
 11
-10.9369
 21
855.089
  0
LINE
  8
0
 10
-10.9369
 20
855.089
 11
-10.3139
 21
855.01
  0
LINE
  8
0
 10
-10.3139
 20
855.01
 11
10.3139
 21
855.01
  0
LINE
  8
0
 10
10.3139
 20
855.01
 11
10.9369
 21
855.089
  0
LINE
  8
0
 10
-9.75116
 20
856.508
 11
-10.2495
 21
856.571
  0
LINE
  8
0
 10
-10.2495
 20
856.571
 11
-10.7361
 21
856.696
  0
LINE
  8
0
 10
-10.7361
 20
856.696
 11
-11.2031
 21
856.881
  0
LINE
  8
0
 10
-11.2031
 20
856.881
 11
-11.6433
 21
857.123
  0
LINE
  8
0
 10
-11.6433
 20
857.123
 11
-12.0497
 21
857.418
  0
LINE
  8
0
 10
-12.0497
 20
857.418
 11
-12.4159
 21
857.762
  0
LINE
  8
0
 10
-12.4159
 20
857.762
 11
-12.7361
 21
858.149
  0
LINE
  8
0
 10
-12.7361
 20
858.149
 11
-13.0052
 21
858.573
  0
LINE
  8
0
 10
-13.0052
 20
858.573
 11
-13.2191
 21
859.028
  0
LINE
  8
0
 10
-13.2191
 20
859.028
 11
-13.3743
 21
859.505
  0
LINE
  8
0
 10
-13.3743
 20
859.505
 11
-13.4684
 21
859.999
  0
LINE
  8
0
 10
-13.4684
 20
859.999
 11
-13.5
 21
860.5
  0
LINE
  8
0
 10
-13.5
 20
860.5
 11
-13.5
 21
1029.5
  0
LINE
  8
0
 10
-13.5
 20
1029.5
 11
-13.4684
 21
1030
  0
LINE
  8
0
 10
-13.4684
 20
1030
 11
-13.3743
 21
1030.49
  0
LINE
  8
0
 10
-13.3743
 20
1030.49
 11
-13.2191
 21
1030.97
  0
LINE
  8
0
 10
-13.2191
 20
1030.97
 11
-13.0052
 21
1031.43
  0
LINE
  8
0
 10
-13.0052
 20
1031.43
 11
-12.7361
 21
1031.85
  0
LINE
  8
0
 10
-12.7361
 20
1031.85
 11
-12.4159
 21
1032.24
  0
LINE
  8
0
 10
-12.4159
 20
1032.24
 11
-12.0497
 21
1032.58
  0
LINE
  8
0
 10
-12.0497
 20
1032.58
 11
-11.6433
 21
1032.88
  0
LINE
  8
0
 10
-11.6433
 20
1032.88
 11
-11.2031
 21
1033.12
  0
LINE
  8
0
 10
-11.2031
 20
1033.12
 11
-10.7361
 21
1033.3
  0
LINE
  8
0
 10
-10.7361
 20
1033.3
 11
-10.2495
 21
1033.43
  0
LINE
  8
0
 10
-10.2495
 20
1033.43
 11
-9.75116
 21
1033.49
  0
LINE
  8
0
 10
-9.75116
 20
1033.49
 11
9.75116
 21
1033.49
  0
LINE
  8
0
 10
9.75116
 20
1033.49
 11
10.2495
 21
1033.43
  0
LINE
  8
0
 10
10.2495
 20
1033.43
 11
10.7361
 21
1033.3
  0
LINE
  8
0
 10
10.7361
 20
1033.3
 11
11.2031
 21
1033.12
  0
LINE
  8
0
 10
11.2031
 20
1033.12
 11
11.6433
 21
1032.88
  0
LINE
  8
0
 10
11.6433
 20
1032.88
 11
12.0497
 21
1032.58
  0
LINE
  8
0
 10
12.0497
 20
1032.58
 11
12.4159
 21
1032.24
  0
LINE
  8
0
 10
12.4159
 20
1032.24
 11
12.7361
 21
1031.85
  0
LINE
  8
0
 10
12.7361
 20
1031.85
 11
13.0052
 21
1031.43
  0
LINE
  8
0
 10
13.0052
 20
1031.43
 11
13.2191
 21
1030.97
  0
LINE
  8
0
 10
13.2191
 20
1030.97
 11
13.3743
 21
1030.49
  0
LINE
  8
0
 10
13.3743
 20
1030.49
 11
13.4684
 21
1030
  0
LINE
  8
0
 10
13.4684
 20
1030
 11
13.5
 21
1029.5
  0
LINE
  8
0
 10
13.5
 20
1029.5
 11
13.5
 21
860.5
  0
LINE
  8
0
 10
13.5
 20
860.5
 11
13.4684
 21
859.999
  0
LINE
  8
0
 10
13.4684
 20
859.999
 11
13.3743
 21
859.505
  0
LINE
  8
0
 10
13.3743
 20
859.505
 11
13.2191
 21
859.028
  0
LINE
  8
0
 10
13.2191
 20
859.028
 11
13.0052
 21
858.573
  0
LINE
  8
0
 10
13.0052
 20
858.573
 11
12.7361
 21
858.149
  0
LINE
  8
0
 10
12.7361
 20
858.149
 11
12.4159
 21
857.762
  0
LINE
  8
0
 10
12.4159
 20
857.762
 11
12.0497
 21
857.418
  0
LINE
  8
0
 10
12.0497
 20
857.418
 11
11.6433
 21
857.123
  0
LINE
  8
0
 10
11.6433
 20
857.123
 11
11.2031
 21
856.881
  0
LINE
  8
0
 10
11.2031
 20
856.881
 11
10.7361
 21
856.696
  0
LINE
  8
0
 10
10.7361
 20
856.696
 11
10.2495
 21
856.571
  0
LINE
  8
0
 10
10.2495
 20
856.571
 11
9.75116
 21
856.508
  0
LINE
  8
0
 10
9.75116
 20
856.508
 11
-9.75116
 21
856.508
  0
LINE
  8
0
 10
10.9369
 20
666.089
 11
11.5451
 21
666.245
  0
LINE
  8
0
 10
11.5451
 20
666.245
 11
12.1289
 21
666.476
  0
LINE
  8
0
 10
12.1289
 20
666.476
 11
12.6791
 21
666.778
  0
LINE
  8
0
 10
12.6791
 20
666.778
 11
13.1871
 21
667.147
  0
LINE
  8
0
 10
13.1871
 20
667.147
 11
13.6448
 21
667.577
  0
LINE
  8
0
 10
13.6448
 20
667.577
 11
14.0451
 21
668.061
  0
LINE
  8
0
 10
14.0451
 20
668.061
 11
14.3815
 21
668.591
  0
LINE
  8
0
 10
14.3815
 20
668.591
 11
14.6489
 21
669.159
  0
LINE
  8
0
 10
14.6489
 20
669.159
 11
14.8429
 21
669.757
  0
LINE
  8
0
 10
14.8429
 20
669.757
 11
14.9606
 21
670.373
  0
LINE
  8
0
 10
14.9606
 20
670.373
 11
15
 21
671
  0
LINE
  8
0
 10
15
 20
671
 11
15
 21
841
  0
LINE
  8
0
 10
15
 20
841
 11
14.9606
 21
841.627
  0
LINE
  8
0
 10
14.9606
 20
841.627
 11
14.8429
 21
842.243
  0
LINE
  8
0
 10
14.8429
 20
842.243
 11
14.6489
 21
842.841
  0
LINE
  8
0
 10
14.6489
 20
842.841
 11
14.3815
 21
843.409
  0
LINE
  8
0
 10
14.3815
 20
843.409
 11
14.0451
 21
843.939
  0
LINE
  8
0
 10
14.0451
 20
843.939
 11
13.6448
 21
844.423
  0
LINE
  8
0
 10
13.6448
 20
844.423
 11
13.1871
 21
844.853
  0
LINE
  8
0
 10
13.1871
 20
844.853
 11
12.6791
 21
845.222
  0
LINE
  8
0
 10
12.6791
 20
845.222
 11
12.1289
 21
845.524
  0
LINE
  8
0
 10
12.1289
 20
845.524
 11
11.5451
 21
845.755
  0
LINE
  8
0
 10
11.5451
 20
845.755
 11
10.9369
 21
845.911
  0
LINE
  8
0
 10
10.9369
 20
845.911
 11
10.3139
 21
845.99
  0
LINE
  8
0
 10
10.3139
 20
845.99
 11
-10.3139
 21
845.99
  0
LINE
  8
0
 10
-10.3139
 20
845.99
 11
-10.9369
 21
845.911
  0
LINE
  8
0
 10
-10.9369
 20
845.911
 11
-11.5451
 21
845.755
  0
LINE
  8
0
 10
-11.5451
 20
845.755
 11
-12.1289
 21
845.524
  0
LINE
  8
0
 10
-12.1289
 20
845.524
 11
-12.6791
 21
845.222
  0
LINE
  8
0
 10
-12.6791
 20
845.222
 11
-13.1871
 21
844.853
  0
LINE
  8
0
 10
-13.1871
 20
844.853
 11
-13.6448
 21
844.423
  0
LINE
  8
0
 10
-13.6448
 20
844.423
 11
-14.0451
 21
843.939
  0
LINE
  8
0
 10
-14.0451
 20
843.939
 11
-14.3815
 21
843.409
  0
LINE
  8
0
 10
-14.3815
 20
843.409
 11
-14.6489
 21
842.841
  0
LINE
  8
0
 10
-14.6489
 20
842.841
 11
-14.8429
 21
842.243
  0
LINE
  8
0
 10
-14.8429
 20
842.243
 11
-14.9606
 21
841.627
  0
LINE
  8
0
 10
-14.9606
 20
841.627
 11
-15
 21
841
  0
LINE
  8
0
 10
-15
 20
841
 11
-15
 21
671
  0
LINE
  8
0
 10
-15
 20
671
 11
-14.9606
 21
670.373
  0
LINE
  8
0
 10
-14.9606
 20
670.373
 11
-14.8429
 21
669.757
  0
LINE
  8
0
 10
-14.8429
 20
669.757
 11
-14.6489
 21
669.159
  0
LINE
  8
0
 10
-14.6489
 20
669.159
 11
-14.3815
 21
668.591
  0
LINE
  8
0
 10
-14.3815
 20
668.591
 11
-14.0451
 21
668.061
  0
LINE
  8
0
 10
-14.0451
 20
668.061
 11
-13.6448
 21
667.577
  0
LINE
  8
0
 10
-13.6448
 20
667.577
 11
-13.1871
 21
667.147
  0
LINE
  8
0
 10
-13.1871
 20
667.147
 11
-12.6791
 21
666.778
  0
LINE
  8
0
 10
-12.6791
 20
666.778
 11
-12.1289
 21
666.476
  0
LINE
  8
0
 10
-12.1289
 20
666.476
 11
-11.5451
 21
666.245
  0
LINE
  8
0
 10
-11.5451
 20
666.245
 11
-10.9369
 21
666.089
  0
LINE
  8
0
 10
-10.9369
 20
666.089
 11
-10.3139
 21
666.01
  0
LINE
  8
0
 10
-10.3139
 20
666.01
 11
10.3139
 21
666.01
  0
LINE
  8
0
 10
10.3139
 20
666.01
 11
10.9369
 21
666.089
  0
LINE
  8
0
 10
-9.69545
 20
668.393
 11
-10.0833
 21
668.442
  0
LINE
  8
0
 10
-10.0833
 20
668.442
 11
-10.4619
 21
668.539
  0
LINE
  8
0
 10
-10.4619
 20
668.539
 11
-10.8254
 21
668.683
  0
LINE
  8
0
 10
-10.8254
 20
668.683
 11
-11.168
 21
668.872
  0
LINE
  8
0
 10
-11.168
 20
668.872
 11
-11.4842
 21
669.101
  0
LINE
  8
0
 10
-11.4842
 20
669.101
 11
-11.7692
 21
669.369
  0
LINE
  8
0
 10
-11.7692
 20
669.369
 11
-12.0184
 21
669.67
  0
LINE
  8
0
 10
-12.0184
 20
669.67
 11
-12.2279
 21
670
  0
LINE
  8
0
 10
-12.2279
 20
670
 11
-12.3943
 21
670.354
  0
LINE
  8
0
 10
-12.3943
 20
670.354
 11
-12.5151
 21
670.726
  0
LINE
  8
0
 10
-12.5151
 20
670.726
 11
-12.5884
 21
671.11
  0
LINE
  8
0
 10
-12.5884
 20
671.11
 11
-12.6129
 21
671.5
  0
LINE
  8
0
 10
-12.6129
 20
671.5
 11
-12.6129
 21
840.5
  0
LINE
  8
0
 10
-12.6129
 20
840.5
 11
-12.5884
 21
840.89
  0
LINE
  8
0
 10
-12.5884
 20
840.89
 11
-12.5151
 21
841.274
  0
LINE
  8
0
 10
-12.5151
 20
841.274
 11
-12.3943
 21
841.646
  0
LINE
  8
0
 10
-12.3943
 20
841.646
 11
-12.2279
 21
842
  0
LINE
  8
0
 10
-12.2279
 20
842
 11
-12.0184
 21
842.33
  0
LINE
  8
0
 10
-12.0184
 20
842.33
 11
-11.7692
 21
842.631
  0
LINE
  8
0
 10
-11.7692
 20
842.631
 11
-11.4842
 21
842.899
  0
LINE
  8
0
 10
-11.4842
 20
842.899
 11
-11.168
 21
843.128
  0
LINE
  8
0
 10
-11.168
 20
843.128
 11
-10.8254
 21
843.317
  0
LINE
  8
0
 10
-10.8254
 20
843.317
 11
-10.4619
 21
843.461
  0
LINE
  8
0
 10
-10.4619
 20
843.461
 11
-10.0833
 21
843.558
  0
LINE
  8
0
 10
-10.0833
 20
843.558
 11
-9.69545
 21
843.607
  0
LINE
  8
0
 10
-9.69545
 20
843.607
 11
9.69545
 21
843.607
  0
LINE
  8
0
 10
9.69545
 20
843.607
 11
10.0833
 21
843.558
  0
LINE
  8
0
 10
10.0833
 20
843.558
 11
10.4619
 21
843.461
  0
LINE
  8
0
 10
10.4619
 20
843.461
 11
10.8254
 21
843.317
  0
LINE
  8
0
 10
10.8254
 20
843.317
 11
11.168
 21
843.128
  0
LINE
  8
0
 10
11.168
 20
843.128
 11
11.4842
 21
842.899
  0
LINE
  8
0
 10
11.4842
 20
842.899
 11
11.7692
 21
842.631
  0
LINE
  8
0
 10
11.7692
 20
842.631
 11
12.0184
 21
842.33
  0
LINE
  8
0
 10
12.0184
 20
842.33
 11
12.2279
 21
842
  0
LINE
  8
0
 10
12.2279
 20
842
 11
12.3943
 21
841.646
  0
LINE
  8
0
 10
12.3943
 20
841.646
 11
12.5151
 21
841.274
  0
LINE
  8
0
 10
12.5151
 20
841.274
 11
12.5884
 21
840.89
  0
LINE
  8
0
 10
12.5884
 20
840.89
 11
12.6129
 21
840.5
  0
LINE
  8
0
 10
12.6129
 20
840.5
 11
12.6129
 21
671.5
  0
LINE
  8
0
 10
12.6129
 20
671.5
 11
12.5884
 21
671.11
  0
LINE
  8
0
 10
12.5884
 20
671.11
 11
12.5151
 21
670.726
  0
LINE
  8
0
 10
12.5151
 20
670.726
 11
12.3943
 21
670.354
  0
LINE
  8
0
 10
12.3943
 20
670.354
 11
12.2279
 21
670
  0
LINE
  8
0
 10
12.2279
 20
670
 11
12.0184
 21
669.67
  0
LINE
  8
0
 10
12.0184
 20
669.67
 11
11.7692
 21
669.369
  0
LINE
  8
0
 10
11.7692
 20
669.369
 11
11.4842
 21
669.101
  0
LINE
  8
0
 10
11.4842
 20
669.101
 11
11.168
 21
668.872
  0
LINE
  8
0
 10
11.168
 20
668.872
 11
10.8254
 21
668.683
  0
LINE
  8
0
 10
10.8254
 20
668.683
 11
10.4619
 21
668.539
  0
LINE
  8
0
 10
10.4619
 20
668.539
 11
10.0833
 21
668.442
  0
LINE
  8
0
 10
10.0833
 20
668.442
 11
9.69545
 21
668.393
  0
LINE
  8
0
 10
9.69545
 20
668.393
 11
-9.69545
 21
668.393
  0
LINE
  8
0
 10
10.9369
 20
477.089
 11
11.5451
 21
477.245
  0
LINE
  8
0
 10
11.5451
 20
477.245
 11
12.1289
 21
477.476
  0
LINE
  8
0
 10
12.1289
 20
477.476
 11
12.6791
 21
477.778
  0
LINE
  8
0
 10
12.6791
 20
477.778
 11
13.1871
 21
478.147
  0
LINE
  8
0
 10
13.1871
 20
478.147
 11
13.6448
 21
478.577
  0
LINE
  8
0
 10
13.6448
 20
478.577
 11
14.0451
 21
479.061
  0
LINE
  8
0
 10
14.0451
 20
479.061
 11
14.3815
 21
479.591
  0
LINE
  8
0
 10
14.3815
 20
479.591
 11
14.6489
 21
480.159
  0
LINE
  8
0
 10
14.6489
 20
480.159
 11
14.8429
 21
480.757
  0
LINE
  8
0
 10
14.8429
 20
480.757
 11
14.9606
 21
481.373
  0
LINE
  8
0
 10
14.9606
 20
481.373
 11
15
 21
482
  0
LINE
  8
0
 10
15
 20
482
 11
15
 21
652
  0
LINE
  8
0
 10
15
 20
652
 11
14.9606
 21
652.627
  0
LINE
  8
0
 10
14.9606
 20
652.627
 11
14.8429
 21
653.243
  0
LINE
  8
0
 10
14.8429
 20
653.243
 11
14.6489
 21
653.841
  0
LINE
  8
0
 10
14.6489
 20
653.841
 11
14.3815
 21
654.409
  0
LINE
  8
0
 10
14.3815
 20
654.409
 11
14.0451
 21
654.939
  0
LINE
  8
0
 10
14.0451
 20
654.939
 11
13.6448
 21
655.423
  0
LINE
  8
0
 10
13.6448
 20
655.423
 11
13.1871
 21
655.853
  0
LINE
  8
0
 10
13.1871
 20
655.853
 11
12.6791
 21
656.222
  0
LINE
  8
0
 10
12.6791
 20
656.222
 11
12.1289
 21
656.524
  0
LINE
  8
0
 10
12.1289
 20
656.524
 11
11.5451
 21
656.755
  0
LINE
  8
0
 10
11.5451
 20
656.755
 11
10.9369
 21
656.911
  0
LINE
  8
0
 10
10.9369
 20
656.911
 11
10.3139
 21
656.99
  0
LINE
  8
0
 10
10.3139
 20
656.99
 11
-10.3139
 21
656.99
  0
LINE
  8
0
 10
-10.3139
 20
656.99
 11
-10.9369
 21
656.911
  0
LINE
  8
0
 10
-10.9369
 20
656.911
 11
-11.5451
 21
656.755
  0
LINE
  8
0
 10
-11.5451
 20
656.755
 11
-12.1289
 21
656.524
  0
LINE
  8
0
 10
-12.1289
 20
656.524
 11
-12.6791
 21
656.222
  0
LINE
  8
0
 10
-12.6791
 20
656.222
 11
-13.1871
 21
655.853
  0
LINE
  8
0
 10
-13.1871
 20
655.853
 11
-13.6448
 21
655.423
  0
LINE
  8
0
 10
-13.6448
 20
655.423
 11
-14.0451
 21
654.939
  0
LINE
  8
0
 10
-14.0451
 20
654.939
 11
-14.3815
 21
654.409
  0
LINE
  8
0
 10
-14.3815
 20
654.409
 11
-14.6489
 21
653.841
  0
LINE
  8
0
 10
-14.6489
 20
653.841
 11
-14.8429
 21
653.243
  0
LINE
  8
0
 10
-14.8429
 20
653.243
 11
-14.9606
 21
652.627
  0
LINE
  8
0
 10
-14.9606
 20
652.627
 11
-15
 21
652
  0
LINE
  8
0
 10
-15
 20
652
 11
-15
 21
482
  0
LINE
  8
0
 10
-15
 20
482
 11
-14.9606
 21
481.373
  0
LINE
  8
0
 10
-14.9606
 20
481.373
 11
-14.8429
 21
480.757
  0
LINE
  8
0
 10
-14.8429
 20
480.757
 11
-14.6489
 21
480.159
  0
LINE
  8
0
 10
-14.6489
 20
480.159
 11
-14.3815
 21
479.591
  0
LINE
  8
0
 10
-14.3815
 20
479.591
 11
-14.0451
 21
479.061
  0
LINE
  8
0
 10
-14.0451
 20
479.061
 11
-13.6448
 21
478.577
  0
LINE
  8
0
 10
-13.6448
 20
478.577
 11
-13.1871
 21
478.147
  0
LINE
  8
0
 10
-13.1871
 20
478.147
 11
-12.6791
 21
477.778
  0
LINE
  8
0
 10
-12.6791
 20
477.778
 11
-12.1289
 21
477.476
  0
LINE
  8
0
 10
-12.1289
 20
477.476
 11
-11.5451
 21
477.245
  0
LINE
  8
0
 10
-11.5451
 20
477.245
 11
-10.9369
 21
477.089
  0
LINE
  8
0
 10
-10.9369
 20
477.089
 11
-10.3139
 21
477.01
  0
LINE
  8
0
 10
-10.3139
 20
477.01
 11
10.3139
 21
477.01
  0
LINE
  8
0
 10
10.3139
 20
477.01
 11
10.9369
 21
477.089
  0
LINE
  8
0
 10
7.36592
 20
647.369
 11
7.09988
 21
647.403
  0
LINE
  8
0
 10
7.09988
 20
647.403
 11
6.84015
 21
647.469
  0
LINE
  8
0
 10
6.84015
 20
647.469
 11
6.59084
 21
647.568
  0
LINE
  8
0
 10
6.59084
 20
647.568
 11
6.35585
 21
647.697
  0
LINE
  8
0
 10
6.35585
 20
647.697
 11
6.1389
 21
647.855
  0
LINE
  8
0
 10
6.1389
 20
647.855
 11
5.94344
 21
648.038
  0
LINE
  8
0
 10
5.94344
 20
648.038
 11
5.77251
 21
648.245
  0
LINE
  8
0
 10
5.77251
 20
648.245
 11
5.62881
 21
648.471
  0
LINE
  8
0
 10
5.62881
 20
648.471
 11
5.51465
 21
648.714
  0
LINE
  8
0
 10
5.51465
 20
648.714
 11
5.43178
 21
648.969
  0
LINE
  8
0
 10
5.43178
 20
648.969
 11
5.38153
 21
649.232
  0
LINE
  8
0
 10
5.38153
 20
649.232
 11
5.3647
 21
649.5
  0
LINE
  8
0
 10
5.3647
 20
649.5
 11
5.38153
 21
649.768
  0
LINE
  8
0
 10
5.38153
 20
649.768
 11
5.43178
 21
650.031
  0
LINE
  8
0
 10
5.43178
 20
650.031
 11
5.51465
 21
650.286
  0
LINE
  8
0
 10
5.51465
 20
650.286
 11
5.62881
 21
650.529
  0
LINE
  8
0
 10
5.62881
 20
650.529
 11
5.77251
 21
650.755
  0
LINE
  8
0
 10
5.77251
 20
650.755
 11
5.94344
 21
650.962
  0
LINE
  8
0
 10
5.94344
 20
650.962
 11
6.1389
 21
651.145
  0
LINE
  8
0
 10
6.1389
 20
651.145
 11
6.35585
 21
651.303
  0
LINE
  8
0
 10
6.35585
 20
651.303
 11
6.59084
 21
651.432
  0
LINE
  8
0
 10
6.59084
 20
651.432
 11
6.84015
 21
651.531
  0
LINE
  8
0
 10
6.84015
 20
651.531
 11
7.09988
 21
651.597
  0
LINE
  8
0
 10
7.09988
 20
651.597
 11
7.36592
 21
651.631
  0
LINE
  8
0
 10
7.36592
 20
651.631
 11
7.63406
 21
651.631
  0
LINE
  8
0
 10
7.63406
 20
651.631
 11
7.9001
 21
651.597
  0
LINE
  8
0
 10
7.9001
 20
651.597
 11
8.15984
 21
651.531
  0
LINE
  8
0
 10
8.15984
 20
651.531
 11
8.40915
 21
651.432
  0
LINE
  8
0
 10
8.40915
 20
651.432
 11
8.64413
 21
651.303
  0
LINE
  8
0
 10
8.64413
 20
651.303
 11
8.86108
 21
651.145
  0
LINE
  8
0
 10
8.86108
 20
651.145
 11
9.05655
 21
650.962
  0
LINE
  8
0
 10
9.05655
 20
650.962
 11
9.22748
 21
650.755
  0
LINE
  8
0
 10
9.22748
 20
650.755
 11
9.37117
 21
650.529
  0
LINE
  8
0
 10
9.37117
 20
650.529
 11
9.48534
 21
650.286
  0
LINE
  8
0
 10
9.48534
 20
650.286
 11
9.56821
 21
650.031
  0
LINE
  8
0
 10
9.56821
 20
650.031
 11
9.61845
 21
649.768
  0
LINE
  8
0
 10
9.61845
 20
649.768
 11
9.63528
 21
649.5
  0
LINE
  8
0
 10
9.63528
 20
649.5
 11
9.61845
 21
649.232
  0
LINE
  8
0
 10
9.61845
 20
649.232
 11
9.56821
 21
648.969
  0
LINE
  8
0
 10
9.56821
 20
648.969
 11
9.48534
 21
648.714
  0
LINE
  8
0
 10
9.48534
 20
648.714
 11
9.37117
 21
648.471
  0
LINE
  8
0
 10
9.37117
 20
648.471
 11
9.22748
 21
648.245
  0
LINE
  8
0
 10
9.22748
 20
648.245
 11
9.05655
 21
648.038
  0
LINE
  8
0
 10
9.05655
 20
648.038
 11
8.86108
 21
647.855
  0
LINE
  8
0
 10
8.86108
 20
647.855
 11
8.64413
 21
647.697
  0
LINE
  8
0
 10
8.64413
 20
647.697
 11
8.40915
 21
647.568
  0
LINE
  8
0
 10
8.40915
 20
647.568
 11
8.15984
 21
647.469
  0
LINE
  8
0
 10
8.15984
 20
647.469
 11
7.9001
 21
647.403
  0
LINE
  8
0
 10
7.9001
 20
647.403
 11
7.63406
 21
647.369
  0
LINE
  8
0
 10
7.63406
 20
647.369
 11
7.36592
 21
647.369
  0
LINE
  8
0
 10
-7.63406
 20
647.369
 11
-7.9001
 21
647.403
  0
LINE
  8
0
 10
-7.9001
 20
647.403
 11
-8.15984
 21
647.469
  0
LINE
  8
0
 10
-8.15984
 20
647.469
 11
-8.40915
 21
647.568
  0
LINE
  8
0
 10
-8.40915
 20
647.568
 11
-8.64413
 21
647.697
  0
LINE
  8
0
 10
-8.64413
 20
647.697
 11
-8.86108
 21
647.855
  0
LINE
  8
0
 10
-8.86108
 20
647.855
 11
-9.05655
 21
648.038
  0
LINE
  8
0
 10
-9.05655
 20
648.038
 11
-9.22748
 21
648.245
  0
LINE
  8
0
 10
-9.22748
 20
648.245
 11
-9.37117
 21
648.471
  0
LINE
  8
0
 10
-9.37117
 20
648.471
 11
-9.48534
 21
648.714
  0
LINE
  8
0
 10
-9.48534
 20
648.714
 11
-9.56821
 21
648.969
  0
LINE
  8
0
 10
-9.56821
 20
648.969
 11
-9.61845
 21
649.232
  0
LINE
  8
0
 10
-9.61845
 20
649.232
 11
-9.63528
 21
649.5
  0
LINE
  8
0
 10
-9.63528
 20
649.5
 11
-9.61845
 21
649.768
  0
LINE
  8
0
 10
-9.61845
 20
649.768
 11
-9.56821
 21
650.031
  0
LINE
  8
0
 10
-9.56821
 20
650.031
 11
-9.48534
 21
650.286
  0
LINE
  8
0
 10
-9.48534
 20
650.286
 11
-9.37117
 21
650.529
  0
LINE
  8
0
 10
-9.37117
 20
650.529
 11
-9.22748
 21
650.755
  0
LINE
  8
0
 10
-9.22748
 20
650.755
 11
-9.05655
 21
650.962
  0
LINE
  8
0
 10
-9.05655
 20
650.962
 11
-8.86108
 21
651.145
  0
LINE
  8
0
 10
-8.86108
 20
651.145
 11
-8.64413
 21
651.303
  0
LINE
  8
0
 10
-8.64413
 20
651.303
 11
-8.40915
 21
651.432
  0
LINE
  8
0
 10
-8.40915
 20
651.432
 11
-8.15984
 21
651.531
  0
LINE
  8
0
 10
-8.15984
 20
651.531
 11
-7.9001
 21
651.597
  0
LINE
  8
0
 10
-7.9001
 20
651.597
 11
-7.63406
 21
651.631
  0
LINE
  8
0
 10
-7.63406
 20
651.631
 11
-7.36592
 21
651.631
  0
LINE
  8
0
 10
-7.36592
 20
651.631
 11
-7.09988
 21
651.597
  0
LINE
  8
0
 10
-7.09988
 20
651.597
 11
-6.84015
 21
651.531
  0
LINE
  8
0
 10
-6.84015
 20
651.531
 11
-6.59084
 21
651.432
  0
LINE
  8
0
 10
-6.59084
 20
651.432
 11
-6.35585
 21
651.303
  0
LINE
  8
0
 10
-6.35585
 20
651.303
 11
-6.1389
 21
651.145
  0
LINE
  8
0
 10
-6.1389
 20
651.145
 11
-5.94344
 21
650.962
  0
LINE
  8
0
 10
-5.94344
 20
650.962
 11
-5.77251
 21
650.755
  0
LINE
  8
0
 10
-5.77251
 20
650.755
 11
-5.62881
 21
650.529
  0
LINE
  8
0
 10
-5.62881
 20
650.529
 11
-5.51465
 21
650.286
  0
LINE
  8
0
 10
-5.51465
 20
650.286
 11
-5.43178
 21
650.031
  0
LINE
  8
0
 10
-5.43178
 20
650.031
 11
-5.38153
 21
649.768
  0
LINE
  8
0
 10
-5.38153
 20
649.768
 11
-5.3647
 21
649.5
  0
LINE
  8
0
 10
-5.3647
 20
649.5
 11
-5.38153
 21
649.232
  0
LINE
  8
0
 10
-5.38153
 20
649.232
 11
-5.43178
 21
648.969
  0
LINE
  8
0
 10
-5.43178
 20
648.969
 11
-5.51465
 21
648.714
  0
LINE
  8
0
 10
-5.51465
 20
648.714
 11
-5.62881
 21
648.471
  0
LINE
  8
0
 10
-5.62881
 20
648.471
 11
-5.77251
 21
648.245
  0
LINE
  8
0
 10
-5.77251
 20
648.245
 11
-5.94344
 21
648.038
  0
LINE
  8
0
 10
-5.94344
 20
648.038
 11
-6.1389
 21
647.855
  0
LINE
  8
0
 10
-6.1389
 20
647.855
 11
-6.35585
 21
647.697
  0
LINE
  8
0
 10
-6.35585
 20
647.697
 11
-6.59084
 21
647.568
  0
LINE
  8
0
 10
-6.59084
 20
647.568
 11
-6.84015
 21
647.469
  0
LINE
  8
0
 10
-6.84015
 20
647.469
 11
-7.09988
 21
647.403
  0
LINE
  8
0
 10
-7.09988
 20
647.403
 11
-7.36592
 21
647.369
  0
LINE
  8
0
 10
-7.36592
 20
647.369
 11
-7.63406
 21
647.369
  0
LINE
  8
0
 10
7.36592
 20
482.369
 11
7.09988
 21
482.403
  0
LINE
  8
0
 10
7.09988
 20
482.403
 11
6.84015
 21
482.469
  0
LINE
  8
0
 10
6.84015
 20
482.469
 11
6.59084
 21
482.568
  0
LINE
  8
0
 10
6.59084
 20
482.568
 11
6.35585
 21
482.697
  0
LINE
  8
0
 10
6.35585
 20
482.697
 11
6.1389
 21
482.855
  0
LINE
  8
0
 10
6.1389
 20
482.855
 11
5.94344
 21
483.038
  0
LINE
  8
0
 10
5.94344
 20
483.038
 11
5.77251
 21
483.245
  0
LINE
  8
0
 10
5.77251
 20
483.245
 11
5.62881
 21
483.471
  0
LINE
  8
0
 10
5.62881
 20
483.471
 11
5.51465
 21
483.714
  0
LINE
  8
0
 10
5.51465
 20
483.714
 11
5.43178
 21
483.969
  0
LINE
  8
0
 10
5.43178
 20
483.969
 11
5.38153
 21
484.232
  0
LINE
  8
0
 10
5.38153
 20
484.232
 11
5.3647
 21
484.5
  0
LINE
  8
0
 10
5.3647
 20
484.5
 11
5.38153
 21
484.768
  0
LINE
  8
0
 10
5.38153
 20
484.768
 11
5.43178
 21
485.031
  0
LINE
  8
0
 10
5.43178
 20
485.031
 11
5.51465
 21
485.286
  0
LINE
  8
0
 10
5.51465
 20
485.286
 11
5.62881
 21
485.529
  0
LINE
  8
0
 10
5.62881
 20
485.529
 11
5.77251
 21
485.755
  0
LINE
  8
0
 10
5.77251
 20
485.755
 11
5.94344
 21
485.962
  0
LINE
  8
0
 10
5.94344
 20
485.962
 11
6.1389
 21
486.145
  0
LINE
  8
0
 10
6.1389
 20
486.145
 11
6.35585
 21
486.303
  0
LINE
  8
0
 10
6.35585
 20
486.303
 11
6.59084
 21
486.432
  0
LINE
  8
0
 10
6.59084
 20
486.432
 11
6.84015
 21
486.531
  0
LINE
  8
0
 10
6.84015
 20
486.531
 11
7.09988
 21
486.597
  0
LINE
  8
0
 10
7.09988
 20
486.597
 11
7.36592
 21
486.631
  0
LINE
  8
0
 10
7.36592
 20
486.631
 11
7.63406
 21
486.631
  0
LINE
  8
0
 10
7.63406
 20
486.631
 11
7.9001
 21
486.597
  0
LINE
  8
0
 10
7.9001
 20
486.597
 11
8.15984
 21
486.531
  0
LINE
  8
0
 10
8.15984
 20
486.531
 11
8.40915
 21
486.432
  0
LINE
  8
0
 10
8.40915
 20
486.432
 11
8.64413
 21
486.303
  0
LINE
  8
0
 10
8.64413
 20
486.303
 11
8.86108
 21
486.145
  0
LINE
  8
0
 10
8.86108
 20
486.145
 11
9.05655
 21
485.962
  0
LINE
  8
0
 10
9.05655
 20
485.962
 11
9.22748
 21
485.755
  0
LINE
  8
0
 10
9.22748
 20
485.755
 11
9.37117
 21
485.529
  0
LINE
  8
0
 10
9.37117
 20
485.529
 11
9.48534
 21
485.286
  0
LINE
  8
0
 10
9.48534
 20
485.286
 11
9.56821
 21
485.031
  0
LINE
  8
0
 10
9.56821
 20
485.031
 11
9.61845
 21
484.768
  0
LINE
  8
0
 10
9.61845
 20
484.768
 11
9.63528
 21
484.5
  0
LINE
  8
0
 10
9.63528
 20
484.5
 11
9.61845
 21
484.232
  0
LINE
  8
0
 10
9.61845
 20
484.232
 11
9.56821
 21
483.969
  0
LINE
  8
0
 10
9.56821
 20
483.969
 11
9.48534
 21
483.714
  0
LINE
  8
0
 10
9.48534
 20
483.714
 11
9.37117
 21
483.471
  0
LINE
  8
0
 10
9.37117
 20
483.471
 11
9.22748
 21
483.245
  0
LINE
  8
0
 10
9.22748
 20
483.245
 11
9.05655
 21
483.038
  0
LINE
  8
0
 10
9.05655
 20
483.038
 11
8.86108
 21
482.855
  0
LINE
  8
0
 10
8.86108
 20
482.855
 11
8.64413
 21
482.697
  0
LINE
  8
0
 10
8.64413
 20
482.697
 11
8.40915
 21
482.568
  0
LINE
  8
0
 10
8.40915
 20
482.568
 11
8.15984
 21
482.469
  0
LINE
  8
0
 10
8.15984
 20
482.469
 11
7.9001
 21
482.403
  0
LINE
  8
0
 10
7.9001
 20
482.403
 11
7.63406
 21
482.369
  0
LINE
  8
0
 10
7.63406
 20
482.369
 11
7.36592
 21
482.369
  0
LINE
  8
0
 10
-7.63406
 20
482.369
 11
-7.9001
 21
482.403
  0
LINE
  8
0
 10
-7.9001
 20
482.403
 11
-8.15984
 21
482.469
  0
LINE
  8
0
 10
-8.15984
 20
482.469
 11
-8.40915
 21
482.568
  0
LINE
  8
0
 10
-8.40915
 20
482.568
 11
-8.64413
 21
482.697
  0
LINE
  8
0
 10
-8.64413
 20
482.697
 11
-8.86108
 21
482.855
  0
LINE
  8
0
 10
-8.86108
 20
482.855
 11
-9.05655
 21
483.038
  0
LINE
  8
0
 10
-9.05655
 20
483.038
 11
-9.22748
 21
483.245
  0
LINE
  8
0
 10
-9.22748
 20
483.245
 11
-9.37117
 21
483.471
  0
LINE
  8
0
 10
-9.37117
 20
483.471
 11
-9.48534
 21
483.714
  0
LINE
  8
0
 10
-9.48534
 20
483.714
 11
-9.56821
 21
483.969
  0
LINE
  8
0
 10
-9.56821
 20
483.969
 11
-9.61845
 21
484.232
  0
LINE
  8
0
 10
-9.61845
 20
484.232
 11
-9.63528
 21
484.5
  0
LINE
  8
0
 10
-9.63528
 20
484.5
 11
-9.61845
 21
484.768
  0
LINE
  8
0
 10
-9.61845
 20
484.768
 11
-9.56821
 21
485.031
  0
LINE
  8
0
 10
-9.56821
 20
485.031
 11
-9.48534
 21
485.286
  0
LINE
  8
0
 10
-9.48534
 20
485.286
 11
-9.37117
 21
485.529
  0
LINE
  8
0
 10
-9.37117
 20
485.529
 11
-9.22748
 21
485.755
  0
LINE
  8
0
 10
-9.22748
 20
485.755
 11
-9.05655
 21
485.962
  0
LINE
  8
0
 10
-9.05655
 20
485.962
 11
-8.86108
 21
486.145
  0
LINE
  8
0
 10
-8.86108
 20
486.145
 11
-8.64413
 21
486.303
  0
LINE
  8
0
 10
-8.64413
 20
486.303
 11
-8.40915
 21
486.432
  0
LINE
  8
0
 10
-8.40915
 20
486.432
 11
-8.15984
 21
486.531
  0
LINE
  8
0
 10
-8.15984
 20
486.531
 11
-7.9001
 21
486.597
  0
LINE
  8
0
 10
-7.9001
 20
486.597
 11
-7.63406
 21
486.631
  0
LINE
  8
0
 10
-7.63406
 20
486.631
 11
-7.36592
 21
486.631
  0
LINE
  8
0
 10
-7.36592
 20
486.631
 11
-7.09988
 21
486.597
  0
LINE
  8
0
 10
-7.09988
 20
486.597
 11
-6.84015
 21
486.531
  0
LINE
  8
0
 10
-6.84015
 20
486.531
 11
-6.59084
 21
486.432
  0
LINE
  8
0
 10
-6.59084
 20
486.432
 11
-6.35585
 21
486.303
  0
LINE
  8
0
 10
-6.35585
 20
486.303
 11
-6.1389
 21
486.145
  0
LINE
  8
0
 10
-6.1389
 20
486.145
 11
-5.94344
 21
485.962
  0
LINE
  8
0
 10
-5.94344
 20
485.962
 11
-5.77251
 21
485.755
  0
LINE
  8
0
 10
-5.77251
 20
485.755
 11
-5.62881
 21
485.529
  0
LINE
  8
0
 10
-5.62881
 20
485.529
 11
-5.51465
 21
485.286
  0
LINE
  8
0
 10
-5.51465
 20
485.286
 11
-5.43178
 21
485.031
  0
LINE
  8
0
 10
-5.43178
 20
485.031
 11
-5.38153
 21
484.768
  0
LINE
  8
0
 10
-5.38153
 20
484.768
 11
-5.3647
 21
484.5
  0
LINE
  8
0
 10
-5.3647
 20
484.5
 11
-5.38153
 21
484.232
  0
LINE
  8
0
 10
-5.38153
 20
484.232
 11
-5.43178
 21
483.969
  0
LINE
  8
0
 10
-5.43178
 20
483.969
 11
-5.51465
 21
483.714
  0
LINE
  8
0
 10
-5.51465
 20
483.714
 11
-5.62881
 21
483.471
  0
LINE
  8
0
 10
-5.62881
 20
483.471
 11
-5.77251
 21
483.245
  0
LINE
  8
0
 10
-5.77251
 20
483.245
 11
-5.94344
 21
483.038
  0
LINE
  8
0
 10
-5.94344
 20
483.038
 11
-6.1389
 21
482.855
  0
LINE
  8
0
 10
-6.1389
 20
482.855
 11
-6.35585
 21
482.697
  0
LINE
  8
0
 10
-6.35585
 20
482.697
 11
-6.59084
 21
482.568
  0
LINE
  8
0
 10
-6.59084
 20
482.568
 11
-6.84015
 21
482.469
  0
LINE
  8
0
 10
-6.84015
 20
482.469
 11
-7.09988
 21
482.403
  0
LINE
  8
0
 10
-7.09988
 20
482.403
 11
-7.36592
 21
482.369
  0
LINE
  8
0
 10
-7.36592
 20
482.369
 11
-7.63406
 21
482.369
  0
ENDSEC
  0
SECTION
  2
OBJECTS
  0
DICTIONARY
  0
ENDSEC
  0
EOF
