<?xml version="1.0" standalone="no"?>
<!DOCTYPE svg PUBLIC "-//W3C//DTD SVG 1.1//EN" "http://www.w3.org/Graphics/SVG/1.1/DTD/svg11.dtd">
<svg width="30mm" height="309mm" viewBox="-15 -552 30 309" xmlns="http://www.w3.org/2000/svg" version="1.1">
<title>OpenSCAD Model</title>
<path d="
M 10.9369,-402.089 L 11.5451,-402.245 L 12.1289,-402.476 L 12.6791,-402.778 L 13.1871,-403.147 L 13.6448,-403.577
 L 14.0451,-404.061 L 14.3815,-404.591 L 14.6489,-405.159 L 14.8429,-405.757 L 14.9606,-406.373 L 15,-407
 L 15,-547 L 14.9606,-547.627 L 14.8429,-548.243 L 14.6489,-548.841 L 14.3815,-549.409 L 14.0451,-549.939
 L 13.6448,-550.423 L 13.1871,-550.853 L 12.6791,-551.222 L 12.1289,-551.524 L 11.5451,-551.755 L 10.9369,-551.911
 L 10.3139,-551.99 L -10.3139,-551.99 L -10.9369,-551.911 L -11.5451,-551.755 L -12.1289,-551.524 L -12.6791,-551.222
 L -13.1871,-550.853 L -13.6448,-550.423 L -14.0451,-549.939 L -14.3815,-549.409 L -14.6489,-548.841 L -14.8429,-548.243
 L -14.9606,-547.627 L -15,-547 L -15,-407 L -14.9606,-406.373 L -14.8429,-405.757 L -14.6489,-405.159
 L -14.3815,-404.591 L -14.0451,-404.061 L -13.6448,-403.577 L -13.1871,-403.147 L -12.6791,-402.778 L -12.1289,-402.476
 L -11.5451,-402.245 L -10.9369,-402.089 L -10.3139,-402.01 L 10.3139,-402.01 z
M -9.69545,-404.393 L -10.0833,-404.442 L -10.4619,-404.539 L -10.8254,-404.683 L -11.168,-404.872 L -11.4842,-405.101
 L -11.7692,-405.369 L -12.0184,-405.67 L -12.2279,-406 L -12.3943,-406.354 L -12.5151,-406.726 L -12.5884,-407.11
 L -12.6129,-407.5 L -12.6129,-546.5 L -12.5884,-546.89 L -12.5151,-547.274 L -12.3943,-547.646 L -12.2279,-548
 L -12.0184,-548.33 L -11.7692,-548.631 L -11.4842,-548.899 L -11.168,-549.128 L -10.8254,-549.317 L -10.4619,-549.461
 L -10.0833,-549.558 L -9.69545,-549.607 L 9.69545,-549.607 L 10.0833,-549.558 L 10.4619,-549.461 L 10.8254,-549.317
 L 11.168,-549.128 L 11.4842,-548.899 L 11.7692,-548.631 L 12.0184,-548.33 L 12.2279,-548 L 12.3943,-547.646
 L 12.5151,-547.274 L 12.5884,-546.89 L 12.6129,-546.5 L 12.6129,-407.5 L 12.5884,-407.11 L 12.5151,-406.726
 L 12.3943,-406.354 L 12.2279,-406 L 12.0184,-405.67 L 11.7692,-405.369 L 11.4842,-405.101 L 11.168,-404.872
 L 10.8254,-404.683 L 10.4619,-404.539 L 10.0833,-404.442 L 9.69545,-404.393 z
M 10.9369,-243.089 L 11.5451,-243.245 L 12.1289,-243.476 L 12.6791,-243.778 L 13.1871,-244.147 L 13.6448,-244.577
 L 14.0451,-245.061 L 14.3815,-245.591 L 14.6489,-246.159 L 14.8429,-246.757 L 14.9606,-247.373 L 15,-248
 L 15,-388 L 14.9606,-388.627 L 14.8429,-389.243 L 14.6489,-389.841 L 14.3815,-390.409 L 14.0451,-390.939
 L 13.6448,-391.423 L 13.1871,-391.853 L 12.6791,-392.222 L 12.1289,-392.524 L 11.5451,-392.755 L 10.9369,-392.911
 L 10.3139,-392.99 L -10.3139,-392.99 L -10.9369,-392.911 L -11.5451,-392.755 L -12.1289,-392.524 L -12.6791,-392.222
 L -13.1871,-391.853 L -13.6448,-391.423 L -14.0451,-390.939 L -14.3815,-390.409 L -14.6489,-389.841 L -14.8429,-389.243
 L -14.9606,-388.627 L -15,-388 L -15,-248 L -14.9606,-247.373 L -14.8429,-246.757 L -14.6489,-246.159
 L -14.3815,-245.591 L -14.0451,-245.061 L -13.6448,-244.577 L -13.1871,-244.147 L -12.6791,-243.778 L -12.1289,-243.476
 L -11.5451,-243.245 L -10.9369,-243.089 L -10.3139,-243.01 L 10.3139,-243.01 z
M 7.36592,-383.369 L 7.09988,-383.403 L 6.84015,-383.469 L 6.59084,-383.568 L 6.35585,-383.697 L 6.1389,-383.855
 L 5.94344,-384.038 L 5.77251,-384.245 L 5.62881,-384.471 L 5.51465,-384.714 L 5.43178,-384.969 L 5.38153,-385.232
 L 5.3647,-385.5 L 5.38153,-385.768 L 5.43178,-386.031 L 5.51465,-386.286 L 5.62881,-386.529 L 5.77251,-386.755
 L 5.94344,-386.962 L 6.1389,-387.145 L 6.35585,-387.303 L 6.59084,-387.432 L 6.84015,-387.531 L 7.09988,-387.597
 L 7.36592,-387.631 L 7.63406,-387.631 L 7.9001,-387.597 L 8.15984,-387.531 L 8.40915,-387.432 L 8.64413,-387.303
 L 8.86108,-387.145 L 9.05655,-386.962 L 9.22748,-386.755 L 9.37117,-386.529 L 9.48534,-386.286 L 9.56821,-386.031
 L 9.61845,-385.768 L 9.63528,-385.5 L 9.61845,-385.232 L 9.56821,-384.969 L 9.48534,-384.714 L 9.37117,-384.471
 L 9.22748,-384.245 L 9.05655,-384.038 L 8.86108,-383.855 L 8.64413,-383.697 L 8.40915,-383.568 L 8.15984,-383.469
 L 7.9001,-383.403 L 7.63406,-383.369 z
M -7.63406,-383.369 L -7.9001,-383.403 L -8.15984,-383.469 L -8.40915,-383.568 L -8.64413,-383.697 L -8.86108,-383.855
 L -9.05655,-384.038 L -9.22748,-384.245 L -9.37117,-384.471 L -9.48534,-384.714 L -9.56821,-384.969 L -9.61845,-385.232
 L -9.63528,-385.5 L -9.61845,-385.768 L -9.56821,-386.031 L -9.48534,-386.286 L -9.37117,-386.529 L -9.22748,-386.755
 L -9.05655,-386.962 L -8.86108,-387.145 L -8.64413,-387.303 L -8.40915,-387.432 L -8.15984,-387.531 L -7.9001,-387.597
 L -7.63406,-387.631 L -7.36592,-387.631 L -7.09988,-387.597 L -6.84015,-387.531 L -6.59084,-387.432 L -6.35585,-387.303
 L -6.1389,-387.145 L -5.94344,-386.962 L -5.77251,-386.755 L -5.62881,-386.529 L -5.51465,-386.286 L -5.43178,-386.031
 L -5.38153,-385.768 L -5.3647,-385.5 L -5.38153,-385.232 L -5.43178,-384.969 L -5.51465,-384.714 L -5.62881,-384.471
 L -5.77251,-384.245 L -5.94344,-384.038 L -6.1389,-383.855 L -6.35585,-383.697 L -6.59084,-383.568 L -6.84015,-383.469
 L -7.09988,-383.403 L -7.36592,-383.369 z
M 7.36592,-248.369 L 7.09988,-248.403 L 6.84015,-248.469 L 6.59084,-248.568 L 6.35585,-248.697 L 6.1389,-248.855
 L 5.94344,-249.038 L 5.77251,-249.245 L 5.62881,-249.471 L 5.51465,-249.714 L 5.43178,-249.969 L 5.38153,-250.232
 L 5.3647,-250.5 L 5.38153,-250.768 L 5.43178,-251.031 L 5.51465,-251.286 L 5.62881,-251.529 L 5.77251,-251.755
 L 5.94344,-251.962 L 6.1389,-252.145 L 6.35585,-252.303 L 6.59084,-252.432 L 6.84015,-252.531 L 7.09988,-252.597
 L 7.36592,-252.631 L 7.63406,-252.631 L 7.9001,-252.597 L 8.15984,-252.531 L 8.40915,-252.432 L 8.64413,-252.303
 L 8.86108,-252.145 L 9.05655,-251.962 L 9.22748,-251.755 L 9.37117,-251.529 L 9.48534,-251.286 L 9.56821,-251.031
 L 9.61845,-250.768 L 9.63528,-250.5 L 9.61845,-250.232 L 9.56821,-249.969 L 9.48534,-249.714 L 9.37117,-249.471
 L 9.22748,-249.245 L 9.05655,-249.038 L 8.86108,-248.855 L 8.64413,-248.697 L 8.40915,-248.568 L 8.15984,-248.469
 L 7.9001,-248.403 L 7.63406,-248.369 z
M -7.63406,-248.369 L -7.9001,-248.403 L -8.15984,-248.469 L -8.40915,-248.568 L -8.64413,-248.697 L -8.86108,-248.855
 L -9.05655,-249.038 L -9.22748,-249.245 L -9.37117,-249.471 L -9.48534,-249.714 L -9.56821,-249.969 L -9.61845,-250.232
 L -9.63528,-250.5 L -9.61845,-250.768 L -9.56821,-251.031 L -9.48534,-251.286 L -9.37117,-251.529 L -9.22748,-251.755
 L -9.05655,-251.962 L -8.86108,-252.145 L -8.64413,-252.303 L -8.40915,-252.432 L -8.15984,-252.531 L -7.9001,-252.597
 L -7.63406,-252.631 L -7.36592,-252.631 L -7.09988,-252.597 L -6.84015,-252.531 L -6.59084,-252.432 L -6.35585,-252.303
 L -6.1389,-252.145 L -5.94344,-251.962 L -5.77251,-251.755 L -5.62881,-251.529 L -5.51465,-251.286 L -5.43178,-251.031
 L -5.38153,-250.768 L -5.3647,-250.5 L -5.38153,-250.232 L -5.43178,-249.969 L -5.51465,-249.714 L -5.62881,-249.471
 L -5.77251,-249.245 L -5.94344,-249.038 L -6.1389,-248.855 L -6.35585,-248.697 L -6.59084,-248.568 L -6.84015,-248.469
 L -7.09988,-248.403 L -7.36592,-248.369 z
" stroke="black" fill="lightgray" stroke-width="0.5"/>
</svg>
