<?xml version="1.0" standalone="no"?>
<!DOCTYPE svg PUBLIC "-//W3C//DTD SVG 1.1//EN" "http://www.w3.org/Graphics/SVG/1.1/DTD/svg11.dtd">
<svg width="16mm" height="562mm" viewBox="-8 -1079 16 562" xmlns="http://www.w3.org/2000/svg" version="1.1">
<title>OpenSCAD Model</title>
<path d="
M 3.4369,-973.589 L 4.04507,-973.745 L 4.62889,-973.976 L 5.17912,-974.278 L 5.68712,-974.647 L 6.14484,-975.077
 L 6.54507,-975.561 L 6.88153,-976.091 L 7.14888,-976.659 L 7.34291,-977.257 L 7.46057,-977.873 L 7.5,-978.5
 L 7.5,-1073.5 L 7.46057,-1074.13 L 7.34291,-1074.74 L 7.14888,-1075.34 L 6.88153,-1075.91 L 6.54507,-1076.44
 L 6.14484,-1076.92 L 5.68712,-1077.35 L 5.17912,-1077.72 L 4.62889,-1078.02 L 4.04507,-1078.26 L 3.4369,-1078.41
 L 2.81395,-1078.49 L -2.81395,-1078.49 L -3.4369,-1078.41 L -4.04507,-1078.26 L -4.62889,-1078.02 L -5.17912,-1077.72
 L -5.68712,-1077.35 L -6.14484,-1076.92 L -6.54507,-1076.44 L -6.88153,-1075.91 L -7.14888,-1075.34 L -7.34291,-1074.74
 L -7.46057,-1074.13 L -7.5,-1073.5 L -7.5,-978.5 L -7.46057,-977.873 L -7.34291,-977.257 L -7.14888,-976.659
 L -6.88153,-976.091 L -6.54507,-975.561 L -6.14484,-975.077 L -5.68712,-974.647 L -5.17912,-974.278 L -4.62889,-973.976
 L -4.04507,-973.745 L -3.4369,-973.589 L -2.81395,-973.51 L 2.81395,-973.51 z
M -2.25116,-975.008 L -2.74951,-975.071 L -3.23605,-975.196 L -3.70311,-975.381 L -4.1433,-975.623 L -4.54968,-975.918
 L -4.91586,-976.262 L -5.23605,-976.649 L -5.50522,-977.073 L -5.7191,-977.528 L -5.87433,-978.005 L -5.96844,-978.499
 L -6,-979 L -6,-1073 L -5.96844,-1073.5 L -5.87433,-1073.99 L -5.7191,-1074.47 L -5.50522,-1074.93
 L -5.23605,-1075.35 L -4.91586,-1075.74 L -4.54968,-1076.08 L -4.1433,-1076.38 L -3.70311,-1076.62 L -3.23605,-1076.8
 L -2.74951,-1076.93 L -2.25116,-1076.99 L 2.25116,-1076.99 L 2.74951,-1076.93 L 3.23605,-1076.8 L 3.70311,-1076.62
 L 4.1433,-1076.38 L 4.54968,-1076.08 L 4.91586,-1075.74 L 5.23605,-1075.35 L 5.50522,-1074.93 L 5.7191,-1074.47
 L 5.87433,-1073.99 L 5.96844,-1073.5 L 6,-1073 L 6,-979 L 5.96844,-978.499 L 5.87433,-978.005
 L 5.7191,-977.528 L 5.50522,-977.073 L 5.23605,-976.649 L 4.91586,-976.262 L 4.54968,-975.918 L 4.1433,-975.623
 L 3.70311,-975.381 L 3.23605,-975.196 L 2.74951,-975.071 L 2.25116,-975.008 z
M 3.4369,-859.589 L 4.04507,-859.745 L 4.62889,-859.976 L 5.17912,-860.278 L 5.68712,-860.647 L 6.14484,-861.077
 L 6.54507,-861.561 L 6.88153,-862.091 L 7.14888,-862.659 L 7.34291,-863.257 L 7.46057,-863.873 L 7.5,-864.5
 L 7.5,-959.5 L 7.46057,-960.127 L 7.34291,-960.743 L 7.14888,-961.341 L 6.88153,-961.909 L 6.54507,-962.439
 L 6.14484,-962.923 L 5.68712,-963.353 L 5.17912,-963.722 L 4.62889,-964.024 L 4.04507,-964.255 L 3.4369,-964.411
 L 2.81395,-964.49 L -2.81395,-964.49 L -3.4369,-964.411 L -4.04507,-964.255 L -4.62889,-964.024 L -5.17912,-963.722
 L -5.68712,-963.353 L -6.14484,-962.923 L -6.54507,-962.439 L -6.88153,-961.909 L -7.14888,-961.341 L -7.34291,-960.743
 L -7.46057,-960.127 L -7.5,-959.5 L -7.5,-864.5 L -7.46057,-863.873 L -7.34291,-863.257 L -7.14888,-862.659
 L -6.88153,-862.091 L -6.54507,-861.561 L -6.14484,-861.077 L -5.68712,-860.647 L -5.17912,-860.278 L -4.62889,-859.976
 L -4.04507,-859.745 L -3.4369,-859.589 L -2.81395,-859.51 L 2.81395,-859.51 z
M -2.25116,-861.008 L -2.74951,-861.071 L -3.23605,-861.196 L -3.70311,-861.381 L -4.1433,-861.623 L -4.54968,-861.918
 L -4.91586,-862.262 L -5.23605,-862.649 L -5.50522,-863.073 L -5.7191,-863.528 L -5.87433,-864.005 L -5.96844,-864.499
 L -6,-865 L -6,-959 L -5.96844,-959.501 L -5.87433,-959.995 L -5.7191,-960.472 L -5.50522,-960.927
 L -5.23605,-961.351 L -4.91586,-961.738 L -4.54968,-962.082 L -4.1433,-962.377 L -3.70311,-962.619 L -3.23605,-962.804
 L -2.74951,-962.929 L -2.25116,-962.992 L 2.25116,-962.992 L 2.74951,-962.929 L 3.23605,-962.804 L 3.70311,-962.619
 L 4.1433,-962.377 L 4.54968,-962.082 L 4.91586,-961.738 L 5.23605,-961.351 L 5.50522,-960.927 L 5.7191,-960.472
 L 5.87433,-959.995 L 5.96844,-959.501 L 6,-959 L 6,-865 L 5.96844,-864.499 L 5.87433,-864.005
 L 5.7191,-863.528 L 5.50522,-863.073 L 5.23605,-862.649 L 4.91586,-862.262 L 4.54968,-861.918 L 4.1433,-861.623
 L 3.70311,-861.381 L 3.23605,-861.196 L 2.74951,-861.071 L 2.25116,-861.008 z
M 3.4369,-745.589 L 4.04507,-745.745 L 4.62889,-745.976 L 5.17912,-746.278 L 5.68712,-746.647 L 6.14484,-747.077
 L 6.54507,-747.561 L 6.88153,-748.091 L 7.14888,-748.659 L 7.34291,-749.257 L 7.46057,-749.873 L 7.5,-750.5
 L 7.5,-845.5 L 7.46057,-846.127 L 7.34291,-846.743 L 7.14888,-847.341 L 6.88153,-847.909 L 6.54507,-848.439
 L 6.14484,-848.923 L 5.68712,-849.353 L 5.17912,-849.722 L 4.62889,-850.024 L 4.04507,-850.255 L 3.4369,-850.411
 L 2.81395,-850.49 L -2.81395,-850.49 L -3.4369,-850.411 L -4.04507,-850.255 L -4.62889,-850.024 L -5.17912,-849.722
 L -5.68712,-849.353 L -6.14484,-848.923 L -6.54507,-848.439 L -6.88153,-847.909 L -7.14888,-847.341 L -7.34291,-846.743
 L -7.46057,-846.127 L -7.5,-845.5 L -7.5,-750.5 L -7.46057,-749.873 L -7.34291,-749.257 L -7.14888,-748.659
 L -6.88153,-748.091 L -6.54507,-747.561 L -6.14484,-747.077 L -5.68712,-746.647 L -5.17912,-746.278 L -4.62889,-745.976
 L -4.04507,-745.745 L -3.4369,-745.589 L -2.81395,-745.51 L 2.81395,-745.51 z
M -2.25116,-747.008 L -2.74951,-747.071 L -3.23605,-747.196 L -3.70311,-747.381 L -4.1433,-747.623 L -4.54968,-747.918
 L -4.91586,-748.262 L -5.23605,-748.649 L -5.50522,-749.073 L -5.7191,-749.528 L -5.87433,-750.005 L -5.96844,-750.499
 L -6,-751 L -6,-845 L -5.96844,-845.501 L -5.87433,-845.995 L -5.7191,-846.472 L -5.50522,-846.927
 L -5.23605,-847.351 L -4.91586,-847.738 L -4.54968,-848.082 L -4.1433,-848.377 L -3.70311,-848.619 L -3.23605,-848.804
 L -2.74951,-848.929 L -2.25116,-848.992 L 2.25116,-848.992 L 2.74951,-848.929 L 3.23605,-848.804 L 3.70311,-848.619
 L 4.1433,-848.377 L 4.54968,-848.082 L 4.91586,-847.738 L 5.23605,-847.351 L 5.50522,-846.927 L 5.7191,-846.472
 L 5.87433,-845.995 L 5.96844,-845.501 L 6,-845 L 6,-751 L 5.96844,-750.499 L 5.87433,-750.005
 L 5.7191,-749.528 L 5.50522,-749.073 L 5.23605,-748.649 L 4.91586,-748.262 L 4.54968,-747.918 L 4.1433,-747.623
 L 3.70311,-747.381 L 3.23605,-747.196 L 2.74951,-747.071 L 2.25116,-747.008 z
M 3.4369,-631.589 L 4.04507,-631.745 L 4.62889,-631.976 L 5.17912,-632.278 L 5.68712,-632.647 L 6.14484,-633.077
 L 6.54507,-633.561 L 6.88153,-634.091 L 7.14888,-634.659 L 7.34291,-635.257 L 7.46057,-635.873 L 7.5,-636.5
 L 7.5,-731.5 L 7.46057,-732.127 L 7.34291,-732.743 L 7.14888,-733.341 L 6.88153,-733.909 L 6.54507,-734.439
 L 6.14484,-734.923 L 5.68712,-735.353 L 5.17912,-735.722 L 4.62889,-736.024 L 4.04507,-736.255 L 3.4369,-736.411
 L 2.81395,-736.49 L -2.81395,-736.49 L -3.4369,-736.411 L -4.04507,-736.255 L -4.62889,-736.024 L -5.17912,-735.722
 L -5.68712,-735.353 L -6.14484,-734.923 L -6.54507,-734.439 L -6.88153,-733.909 L -7.14888,-733.341 L -7.34291,-732.743
 L -7.46057,-732.127 L -7.5,-731.5 L -7.5,-636.5 L -7.46057,-635.873 L -7.34291,-635.257 L -7.14888,-634.659
 L -6.88153,-634.091 L -6.54507,-633.561 L -6.14484,-633.077 L -5.68712,-632.647 L -5.17912,-632.278 L -4.62889,-631.976
 L -4.04507,-631.745 L -3.4369,-631.589 L -2.81395,-631.51 L 2.81395,-631.51 z
M -2.19545,-633.893 L -2.5833,-633.942 L -2.96194,-634.039 L -3.32541,-634.183 L -3.66798,-634.372 L -3.98424,-634.601
 L -4.26921,-634.869 L -4.5184,-635.17 L -4.72786,-635.5 L -4.89432,-635.854 L -5.01512,-636.226 L -5.08836,-636.61
 L -5.11292,-637 L -5.11292,-731 L -5.08836,-731.39 L -5.01512,-731.774 L -4.89432,-732.146 L -4.72786,-732.5
 L -4.5184,-732.83 L -4.26921,-733.131 L -3.98424,-733.399 L -3.66798,-733.628 L -3.32541,-733.817 L -2.96194,-733.961
 L -2.5833,-734.058 L -2.19545,-734.107 L 2.19545,-734.107 L 2.5833,-734.058 L 2.96194,-733.961 L 3.32541,-733.817
 L 3.66798,-733.628 L 3.98424,-733.399 L 4.26921,-733.131 L 4.5184,-732.83 L 4.72786,-732.5 L 4.89432,-732.146
 L 5.01512,-731.774 L 5.08836,-731.39 L 5.11292,-731 L 5.11292,-637 L 5.08836,-636.61 L 5.01512,-636.226
 L 4.89432,-635.854 L 4.72786,-635.5 L 4.5184,-635.17 L 4.26921,-634.869 L 3.98424,-634.601 L 3.66798,-634.372
 L 3.32541,-634.183 L 2.96194,-634.039 L 2.5833,-633.942 L 2.19545,-633.893 z
M 3.4369,-517.589 L 4.04507,-517.745 L 4.62889,-517.976 L 5.17912,-518.278 L 5.68712,-518.647 L 6.14484,-519.077
 L 6.54507,-519.561 L 6.88153,-520.091 L 7.14888,-520.659 L 7.34291,-521.257 L 7.46057,-521.873 L 7.5,-522.5
 L 7.5,-617.5 L 7.46057,-618.127 L 7.34291,-618.743 L 7.14888,-619.341 L 6.88153,-619.909 L 6.54507,-620.439
 L 6.14484,-620.923 L 5.68712,-621.353 L 5.17912,-621.722 L 4.62889,-622.024 L 4.04507,-622.255 L 3.4369,-622.411
 L 2.81395,-622.49 L -2.81395,-622.49 L -3.4369,-622.411 L -4.04507,-622.255 L -4.62889,-622.024 L -5.17912,-621.722
 L -5.68712,-621.353 L -6.14484,-620.923 L -6.54507,-620.439 L -6.88153,-619.909 L -7.14888,-619.341 L -7.34291,-618.743
 L -7.46057,-618.127 L -7.5,-617.5 L -7.5,-522.5 L -7.46057,-521.873 L -7.34291,-521.257 L -7.14888,-520.659
 L -6.88153,-520.091 L -6.54507,-519.561 L -6.14484,-519.077 L -5.68712,-518.647 L -5.17912,-518.278 L -4.62889,-517.976
 L -4.04507,-517.745 L -3.4369,-517.589 L -2.81395,-517.51 L 2.81395,-517.51 z
M -0.134064,-612.869 L -0.400101,-612.903 L -0.659836,-612.969 L -0.909149,-613.068 L -1.14413,-613.197 L -1.36108,-613.355
 L -1.55655,-613.538 L -1.72748,-613.745 L -1.87117,-613.971 L -1.98534,-614.214 L -2.06821,-614.469 L -2.11845,-614.732
 L -2.13528,-615 L -2.11845,-615.268 L -2.06821,-615.531 L -1.98534,-615.786 L -1.87117,-616.029 L -1.72748,-616.255
 L -1.55655,-616.462 L -1.36108,-616.645 L -1.14413,-616.803 L -0.909149,-616.932 L -0.659836,-617.031 L -0.400101,-617.097
 L -0.134064,-617.131 L 0.134064,-617.131 L 0.400101,-617.097 L 0.659836,-617.031 L 0.909149,-616.932 L 1.14413,-616.803
 L 1.36108,-616.645 L 1.55655,-616.462 L 1.72748,-616.255 L 1.87117,-616.029 L 1.98534,-615.786 L 2.06821,-615.531
 L 2.11845,-615.268 L 2.13528,-615 L 2.11845,-614.732 L 2.06821,-614.469 L 1.98534,-614.214 L 1.87117,-613.971
 L 1.72748,-613.745 L 1.55655,-613.538 L 1.36108,-613.355 L 1.14413,-613.197 L 0.909149,-613.068 L 0.659836,-612.969
 L 0.400101,-612.903 L 0.134064,-612.869 z
M -0.134064,-522.869 L -0.400101,-522.903 L -0.659836,-522.969 L -0.909149,-523.068 L -1.14413,-523.197 L -1.36108,-523.355
 L -1.55655,-523.538 L -1.72748,-523.745 L -1.87117,-523.971 L -1.98534,-524.214 L -2.06821,-524.469 L -2.11845,-524.732
 L -2.13528,-525 L -2.11845,-525.268 L -2.06821,-525.531 L -1.98534,-525.786 L -1.87117,-526.029 L -1.72748,-526.255
 L -1.55655,-526.462 L -1.36108,-526.645 L -1.14413,-526.803 L -0.909149,-526.932 L -0.659836,-527.031 L -0.400101,-527.097
 L -0.134064,-527.131 L 0.134064,-527.131 L 0.400101,-527.097 L 0.659836,-527.031 L 0.909149,-526.932 L 1.14413,-526.803
 L 1.36108,-526.645 L 1.55655,-526.462 L 1.72748,-526.255 L 1.87117,-526.029 L 1.98534,-525.786 L 2.06821,-525.531
 L 2.11845,-525.268 L 2.13528,-525 L 2.11845,-524.732 L 2.06821,-524.469 L 1.98534,-524.214 L 1.87117,-523.971
 L 1.72748,-523.745 L 1.55655,-523.538 L 1.36108,-523.355 L 1.14413,-523.197 L 0.909149,-523.068 L 0.659836,-522.969
 L 0.400101,-522.903 L 0.134064,-522.869 z
" stroke="black" fill="lightgray" stroke-width="0.5"/>
</svg>
