<?xml version="1.0" standalone="no"?>
<!DOCTYPE svg PUBLIC "-//W3C//DTD SVG 1.1//EN" "http://www.w3.org/Graphics/SVG/1.1/DTD/svg11.dtd">
<svg width="74mm" height="158mm" viewBox="-37 -289 74 158" xmlns="http://www.w3.org/2000/svg" version="1.1">
<title>OpenSCAD Model</title>
<path d="
M 32.9369,-215.089 L 33.5451,-215.245 L 34.1289,-215.476 L 34.6791,-215.778 L 35.1871,-216.147 L 35.6448,-216.577
 L 36.0451,-217.061 L 36.3815,-217.591 L 36.6489,-218.159 L 36.8429,-218.757 L 36.9606,-219.373 L 37,-220
 L 37,-282 L 15.8664,-282 L 15.87,-281.998 L 13.7482,-281.998 L 13.6236,-281.982 L 13.502,-281.951
 L 13.3852,-281.905 L 13.2752,-281.844 L 13.1736,-281.771 L 13.082,-281.685 L 13.002,-281.588 L 12.9347,-281.482
 L 12.8812,-281.368 L 12.8424,-281.249 L 12.8189,-281.125 L 12.811,-281 L 12.8189,-280.875 L 12.8424,-280.751
 L 12.8812,-280.632 L 12.9347,-280.518 L 13.002,-280.412 L 13.082,-280.315 L 13.1736,-280.229 L 13.2752,-280.156
 L 13.3852,-280.095 L 13.502,-280.049 L 13.6236,-280.018 L 13.7482,-280.002 L 18.8738,-280.002 L 18.9984,-280.018
 L 19.12,-280.049 L 19.1226,-280.05 L 21.6724,-278.197 L 24.7849,-275.275 L 27.5066,-271.985 L 29.7944,-268.38
 L 31.6124,-264.516 L 32.9318,-260.455 L 33.7319,-256.261 L 34,-252 L 33.7319,-247.739 L 32.9318,-243.545
 L 31.6124,-239.484 L 29.7944,-235.62 L 27.5066,-232.015 L 24.7849,-228.725 L 21.6724,-225.803 L 18.2181,-223.293
 L 14.4765,-221.236 L 10.5066,-219.664 L 6.37096,-218.602 L 2.13487,-218.067 L -2.13487,-218.067 L -6.37096,-218.602
 L -10.5066,-219.664 L -14.4765,-221.236 L -18.2181,-223.293 L -21.6724,-225.803 L -24.7849,-228.725 L -27.5066,-232.015
 L -29.7944,-235.62 L -31.6124,-239.484 L -32.9318,-243.545 L -33.7319,-247.739 L -34,-252 L -33.7319,-256.261
 L -32.9318,-260.455 L -31.6124,-264.516 L -29.7944,-268.38 L -27.5066,-271.985 L -24.7849,-275.275 L -21.6724,-278.197
 L -18.2181,-280.707 L -14.4765,-282.764 L -10.5066,-284.336 L -6.37096,-285.398 L -2.13487,-285.933 L 0,-285.933
 L 0,-286 L 17,-286 L 14.0099,-288.99 L -4.5,-288.99 L -4.5,-288 L -36.5,-288
 L -36.5,-289 L -37,-289 L -37,-284.994 L -29.8116,-284.994 L -29.4379,-284.947 L -29.0729,-284.853
 L -28.7227,-284.714 L -28.3925,-284.533 L -28.0877,-284.312 L -27.8131,-284.054 L -27.5729,-283.763 L -27.3711,-283.445
 L -27.2107,-283.104 L -27.0942,-282.746 L -27.0237,-282.376 L -27,-282 L -27.0237,-281.624 L -27.0942,-281.254
 L -27.2107,-280.896 L -27.3711,-280.555 L -27.5729,-280.237 L -27.8131,-279.946 L -28.0877,-279.688 L -28.3925,-279.467
 L -28.7227,-279.286 L -29.0729,-279.147 L -29.4379,-279.053 L -29.8116,-279.006 L -37,-279.006 L -37,-224.994
 L -29.8116,-224.994 L -29.4379,-224.947 L -29.0729,-224.853 L -28.7227,-224.714 L -28.3925,-224.533 L -28.0877,-224.312
 L -27.8131,-224.054 L -27.5729,-223.763 L -27.3711,-223.445 L -27.2107,-223.104 L -27.0942,-222.746 L -27.0237,-222.376
 L -27,-222 L -27.0237,-221.624 L -27.0942,-221.254 L -27.2107,-220.896 L -27.3711,-220.555 L -27.5729,-220.237
 L -27.8131,-219.946 L -28.0877,-219.688 L -28.3925,-219.467 L -28.7227,-219.286 L -29.0729,-219.147 L -29.4379,-219.053
 L -29.8116,-219.006 L -36.8905,-219.006 L -36.8429,-218.757 L -36.6489,-218.159 L -36.3815,-217.591 L -36.0451,-217.061
 L -35.6448,-216.577 L -35.1871,-216.147 L -34.6791,-215.778 L -34.1289,-215.476 L -33.5451,-215.245 L -32.9369,-215.089
 L -32.3139,-215.01 L 32.3139,-215.01 z
M 29.8116,-219.006 L 29.4379,-219.053 L 29.0729,-219.147 L 28.7227,-219.286 L 28.3925,-219.467 L 28.0877,-219.688
 L 27.8131,-219.946 L 27.5729,-220.237 L 27.3711,-220.555 L 27.2107,-220.896 L 27.0942,-221.254 L 27.0237,-221.624
 L 27,-222 L 27.0237,-222.376 L 27.0942,-222.746 L 27.2107,-223.104 L 27.3711,-223.445 L 27.5729,-223.763
 L 27.8131,-224.054 L 28.0877,-224.312 L 28.3925,-224.533 L 28.7227,-224.714 L 29.0729,-224.853 L 29.4379,-224.947
 L 29.8116,-224.994 L 30.1884,-224.994 L 30.5621,-224.947 L 30.927,-224.853 L 31.2773,-224.714 L 31.6075,-224.533
 L 31.9123,-224.312 L 32.1869,-224.054 L 32.427,-223.763 L 32.6289,-223.445 L 32.7893,-223.104 L 32.9057,-222.746
 L 32.9763,-222.376 L 33,-222 L 32.9763,-221.624 L 32.9057,-221.254 L 32.7893,-220.896 L 32.6289,-220.555
 L 32.427,-220.237 L 32.1869,-219.946 L 31.9123,-219.688 L 31.6075,-219.467 L 31.2773,-219.286 L 30.927,-219.147
 L 30.5621,-219.053 L 30.1884,-219.006 z
M 27,-288.99 L 16.1312,-288.99 L 19.1213,-286 L 27,-286 z
M 32.9369,-131.089 L 33.5451,-131.245 L 34.1289,-131.476 L 34.6791,-131.778 L 35.1871,-132.147 L 35.6448,-132.577
 L 36.0451,-133.061 L 36.3815,-133.591 L 36.6489,-134.159 L 36.8429,-134.757 L 36.9606,-135.373 L 37,-136
 L 37,-200 L 36.9606,-200.627 L 36.8429,-201.243 L 36.6489,-201.841 L 36.3815,-202.409 L 36.0451,-202.939
 L 35.6448,-203.423 L 35.1871,-203.853 L 34.6791,-204.222 L 34.1289,-204.524 L 33.5451,-204.755 L 32.9369,-204.911
 L 32.3139,-204.99 L -4.5,-204.99 L -4.5,-204 L -36.5,-204 L -36.5,-205 L -37,-205
 L -37,-200.994 L -29.8116,-200.994 L -29.4379,-200.947 L -29.0729,-200.853 L -28.7227,-200.714 L -28.3925,-200.533
 L -28.0877,-200.312 L -27.8131,-200.054 L -27.5729,-199.763 L -27.3711,-199.445 L -27.2107,-199.104 L -27.0942,-198.746
 L -27.0237,-198.376 L -27,-198 L -27.0237,-197.624 L -27.0942,-197.254 L -27.2107,-196.896 L -27.3711,-196.555
 L -27.5729,-196.237 L -27.8131,-195.946 L -28.0877,-195.688 L -28.3925,-195.467 L -28.7227,-195.286 L -29.0729,-195.147
 L -29.4379,-195.053 L -29.8116,-195.006 L -37,-195.006 L -37,-140.994 L -29.8116,-140.994 L -29.4379,-140.947
 L -29.0729,-140.853 L -28.7227,-140.714 L -28.3925,-140.533 L -28.0877,-140.312 L -27.8131,-140.054 L -27.5729,-139.763
 L -27.3711,-139.445 L -27.2107,-139.104 L -27.0942,-138.746 L -27.0237,-138.376 L -27,-138 L -27.0237,-137.624
 L -27.0942,-137.254 L -27.2107,-136.896 L -27.3711,-136.555 L -27.5729,-136.237 L -27.8131,-135.946 L -28.0877,-135.688
 L -28.3925,-135.467 L -28.7227,-135.286 L -29.0729,-135.147 L -29.4379,-135.053 L -29.8116,-135.006 L -36.8905,-135.006
 L -36.8429,-134.757 L -36.6489,-134.159 L -36.3815,-133.591 L -36.0451,-133.061 L -35.6448,-132.577 L -35.1871,-132.147
 L -34.6791,-131.778 L -34.1289,-131.476 L -33.5451,-131.245 L -32.9369,-131.089 L -32.3139,-131.01 L 32.3139,-131.01
 z
M -0.408127,-161.513 L -1.21797,-161.615 L -2.00861,-161.818 L -2.76756,-162.119 L -3.48286,-162.512 L -4.14325,-162.992
 L -4.73828,-163.55 L -5.25861,-164.179 L -5.69598,-164.869 L -6.04353,-165.607 L -6.29578,-166.384 L -6.44873,-167.185
 L -6.5,-168 L -6.44873,-168.815 L -6.29578,-169.616 L -6.04353,-170.393 L -5.69598,-171.131 L -5.25861,-171.821
 L -4.73828,-172.45 L -4.14325,-173.008 L -3.48286,-173.488 L -2.76756,-173.881 L -2.00861,-174.182 L -1.21797,-174.385
 L -0.408127,-174.487 L 0.408127,-174.487 L 1.21797,-174.385 L 2.00861,-174.182 L 2.76756,-173.881 L 3.48286,-173.488
 L 4.14325,-173.008 L 4.73828,-172.45 L 5.25861,-171.821 L 5.69598,-171.131 L 6.04353,-170.393 L 6.29578,-169.616
 L 6.44873,-168.815 L 6.5,-168 L 6.44873,-167.185 L 6.29578,-166.384 L 6.04353,-165.607 L 5.69598,-164.869
 L 5.25861,-164.179 L 4.73828,-163.55 L 4.14325,-162.992 L 3.48286,-162.512 L 2.76756,-162.119 L 2.00861,-161.818
 L 1.21797,-161.615 L 0.408127,-161.513 z
M 29.8116,-135.006 L 29.4379,-135.053 L 29.0729,-135.147 L 28.7227,-135.286 L 28.3925,-135.467 L 28.0877,-135.688
 L 27.8131,-135.946 L 27.5729,-136.237 L 27.3711,-136.555 L 27.2107,-136.896 L 27.0942,-137.254 L 27.0237,-137.624
 L 27,-138 L 27.0237,-138.376 L 27.0942,-138.746 L 27.2107,-139.104 L 27.3711,-139.445 L 27.5729,-139.763
 L 27.8131,-140.054 L 28.0877,-140.312 L 28.3925,-140.533 L 28.7227,-140.714 L 29.0729,-140.853 L 29.4379,-140.947
 L 29.8116,-140.994 L 30.1884,-140.994 L 30.5621,-140.947 L 30.927,-140.853 L 31.2773,-140.714 L 31.6075,-140.533
 L 31.9123,-140.312 L 32.1869,-140.054 L 32.427,-139.763 L 32.6289,-139.445 L 32.7893,-139.104 L 32.9057,-138.746
 L 32.9763,-138.376 L 33,-138 L 32.9763,-137.624 L 32.9057,-137.254 L 32.7893,-136.896 L 32.6289,-136.555
 L 32.427,-136.237 L 32.1869,-135.946 L 31.9123,-135.688 L 31.6075,-135.467 L 31.2773,-135.286 L 30.927,-135.147
 L 30.5621,-135.053 L 30.1884,-135.006 z
" stroke="black" fill="lightgray" stroke-width="0.5"/>
</svg>
