<?xml version="1.0" standalone="no"?>
<!DOCTYPE svg PUBLIC "-//W3C//DTD SVG 1.1//EN" "http://www.w3.org/Graphics/SVG/1.1/DTD/svg11.dtd">
<svg width="16mm" height="280mm" viewBox="-8 -500 16 280" xmlns="http://www.w3.org/2000/svg" version="1.1">
<title>OpenSCAD Model</title>
<path d="
M 3.4369,-364.589 L 4.04507,-364.745 L 4.62889,-364.976 L 5.17912,-365.278 L 5.68712,-365.647 L 6.14484,-366.077
 L 6.54507,-366.561 L 6.88153,-367.091 L 7.14888,-367.659 L 7.34291,-368.257 L 7.46057,-368.873 L 7.5,-369.5
 L 7.5,-494.5 L 7.46057,-495.127 L 7.34291,-495.743 L 7.14888,-496.341 L 6.88153,-496.909 L 6.54507,-497.439
 L 6.14484,-497.923 L 5.68712,-498.353 L 5.17912,-498.722 L 4.62889,-499.024 L 4.04507,-499.255 L 3.4369,-499.411
 L 2.81395,-499.49 L -2.81395,-499.49 L -3.4369,-499.411 L -4.04507,-499.255 L -4.62889,-499.024 L -5.17912,-498.722
 L -5.68712,-498.353 L -6.14484,-497.923 L -6.54507,-497.439 L -6.88153,-496.909 L -7.14888,-496.341 L -7.34291,-495.743
 L -7.46057,-495.127 L -7.5,-494.5 L -7.5,-369.5 L -7.46057,-368.873 L -7.34291,-368.257 L -7.14888,-367.659
 L -6.88153,-367.091 L -6.54507,-366.561 L -6.14484,-366.077 L -5.68712,-365.647 L -5.17912,-365.278 L -4.62889,-364.976
 L -4.04507,-364.745 L -3.4369,-364.589 L -2.81395,-364.51 L 2.81395,-364.51 z
M -2.19545,-366.893 L -2.5833,-366.942 L -2.96194,-367.039 L -3.32541,-367.183 L -3.66798,-367.372 L -3.98424,-367.601
 L -4.26921,-367.869 L -4.5184,-368.17 L -4.72786,-368.5 L -4.89432,-368.854 L -5.01512,-369.226 L -5.08836,-369.61
 L -5.11292,-370 L -5.11292,-494 L -5.08836,-494.39 L -5.01512,-494.774 L -4.89432,-495.146 L -4.72786,-495.5
 L -4.5184,-495.83 L -4.26921,-496.131 L -3.98424,-496.399 L -3.66798,-496.628 L -3.32541,-496.817 L -2.96194,-496.961
 L -2.5833,-497.058 L -2.19545,-497.107 L 2.19545,-497.107 L 2.5833,-497.058 L 2.96194,-496.961 L 3.32541,-496.817
 L 3.66798,-496.628 L 3.98424,-496.399 L 4.26921,-496.131 L 4.5184,-495.83 L 4.72786,-495.5 L 4.89432,-495.146
 L 5.01512,-494.774 L 5.08836,-494.39 L 5.11292,-494 L 5.11292,-370 L 5.08836,-369.61 L 5.01512,-369.226
 L 4.89432,-368.854 L 4.72786,-368.5 L 4.5184,-368.17 L 4.26921,-367.869 L 3.98424,-367.601 L 3.66798,-367.372
 L 3.32541,-367.183 L 2.96194,-367.039 L 2.5833,-366.942 L 2.19545,-366.893 z
M 3.4369,-220.589 L 4.04507,-220.745 L 4.62889,-220.976 L 5.17912,-221.278 L 5.68712,-221.647 L 6.14484,-222.077
 L 6.54507,-222.561 L 6.88153,-223.091 L 7.14888,-223.659 L 7.34291,-224.257 L 7.46057,-224.873 L 7.5,-225.5
 L 7.5,-350.5 L 7.46057,-351.127 L 7.34291,-351.743 L 7.14888,-352.341 L 6.88153,-352.909 L 6.54507,-353.439
 L 6.14484,-353.923 L 5.68712,-354.353 L 5.17912,-354.722 L 4.62889,-355.024 L 4.04507,-355.255 L 3.4369,-355.411
 L 2.81395,-355.49 L -2.81395,-355.49 L -3.4369,-355.411 L -4.04507,-355.255 L -4.62889,-355.024 L -5.17912,-354.722
 L -5.68712,-354.353 L -6.14484,-353.923 L -6.54507,-353.439 L -6.88153,-352.909 L -7.14888,-352.341 L -7.34291,-351.743
 L -7.46057,-351.127 L -7.5,-350.5 L -7.5,-225.5 L -7.46057,-224.873 L -7.34291,-224.257 L -7.14888,-223.659
 L -6.88153,-223.091 L -6.54507,-222.561 L -6.14484,-222.077 L -5.68712,-221.647 L -5.17912,-221.278 L -4.62889,-220.976
 L -4.04507,-220.745 L -3.4369,-220.589 L -2.81395,-220.51 L 2.81395,-220.51 z
M -0.134064,-345.869 L -0.400101,-345.903 L -0.659836,-345.969 L -0.909149,-346.068 L -1.14413,-346.197 L -1.36108,-346.355
 L -1.55655,-346.538 L -1.72748,-346.745 L -1.87117,-346.971 L -1.98534,-347.214 L -2.06821,-347.469 L -2.11845,-347.732
 L -2.13528,-348 L -2.11845,-348.268 L -2.06821,-348.531 L -1.98534,-348.786 L -1.87117,-349.029 L -1.72748,-349.255
 L -1.55655,-349.462 L -1.36108,-349.645 L -1.14413,-349.803 L -0.909149,-349.932 L -0.659836,-350.031 L -0.400101,-350.097
 L -0.134064,-350.131 L 0.134064,-350.131 L 0.400101,-350.097 L 0.659836,-350.031 L 0.909149,-349.932 L 1.14413,-349.803
 L 1.36108,-349.645 L 1.55655,-349.462 L 1.72748,-349.255 L 1.87117,-349.029 L 1.98534,-348.786 L 2.06821,-348.531
 L 2.11845,-348.268 L 2.13528,-348 L 2.11845,-347.732 L 2.06821,-347.469 L 1.98534,-347.214 L 1.87117,-346.971
 L 1.72748,-346.745 L 1.55655,-346.538 L 1.36108,-346.355 L 1.14413,-346.197 L 0.909149,-346.068 L 0.659836,-345.969
 L 0.400101,-345.903 L 0.134064,-345.869 z
M -0.134064,-225.869 L -0.400101,-225.903 L -0.659836,-225.969 L -0.909149,-226.068 L -1.14413,-226.197 L -1.36108,-226.355
 L -1.55655,-226.538 L -1.72748,-226.745 L -1.87117,-226.971 L -1.98534,-227.214 L -2.06821,-227.469 L -2.11845,-227.732
 L -2.13528,-228 L -2.11845,-228.268 L -2.06821,-228.531 L -1.98534,-228.786 L -1.87117,-229.029 L -1.72748,-229.255
 L -1.55655,-229.462 L -1.36108,-229.645 L -1.14413,-229.803 L -0.909149,-229.932 L -0.659836,-230.031 L -0.400101,-230.097
 L -0.134064,-230.131 L 0.134064,-230.131 L 0.400101,-230.097 L 0.659836,-230.031 L 0.909149,-229.932 L 1.14413,-229.803
 L 1.36108,-229.645 L 1.55655,-229.462 L 1.72748,-229.255 L 1.87117,-229.029 L 1.98534,-228.786 L 2.06821,-228.531
 L 2.11845,-228.268 L 2.13528,-228 L 2.11845,-227.732 L 2.06821,-227.469 L 1.98534,-227.214 L 1.87117,-226.971
 L 1.72748,-226.745 L 1.55655,-226.538 L 1.36108,-226.355 L 1.14413,-226.197 L 0.909149,-226.068 L 0.659836,-225.969
 L 0.400101,-225.903 L 0.134064,-225.869 z
" stroke="black" fill="lightgray" stroke-width="0.5"/>
</svg>
