  0
SECTION
  2
BLOCKS
  0
ENDSEC
  0
SECTION
  2
ENTITIES
  0
LINE
  8
0
 10
25.9369
 20
846.089
 11
26.5451
 21
846.245
  0
LINE
  8
0
 10
26.5451
 20
846.245
 11
27.1289
 21
846.476
  0
LINE
  8
0
 10
27.1289
 20
846.476
 11
27.6791
 21
846.778
  0
LINE
  8
0
 10
27.6791
 20
846.778
 11
28.1871
 21
847.147
  0
LINE
  8
0
 10
28.1871
 20
847.147
 11
28.6448
 21
847.577
  0
LINE
  8
0
 10
28.6448
 20
847.577
 11
29.0451
 21
848.061
  0
LINE
  8
0
 10
29.0451
 20
848.061
 11
29.3815
 21
848.591
  0
LINE
  8
0
 10
29.3815
 20
848.591
 11
29.6489
 21
849.159
  0
LINE
  8
0
 10
29.6489
 20
849.159
 11
29.8429
 21
849.757
  0
LINE
  8
0
 10
29.8429
 20
849.757
 11
29.9606
 21
850.373
  0
LINE
  8
0
 10
29.9606
 20
850.373
 11
30
 21
851
  0
LINE
  8
0
 10
30
 20
851
 11
30
 21
931
  0
LINE
  8
0
 10
30
 20
931
 11
29.9606
 21
931.627
  0
LINE
  8
0
 10
29.9606
 20
931.627
 11
29.8429
 21
932.243
  0
LINE
  8
0
 10
29.8429
 20
932.243
 11
29.6489
 21
932.841
  0
LINE
  8
0
 10
29.6489
 20
932.841
 11
29.3815
 21
933.409
  0
LINE
  8
0
 10
29.3815
 20
933.409
 11
29.0451
 21
933.939
  0
LINE
  8
0
 10
29.0451
 20
933.939
 11
28.6448
 21
934.423
  0
LINE
  8
0
 10
28.6448
 20
934.423
 11
28.1871
 21
934.853
  0
LINE
  8
0
 10
28.1871
 20
934.853
 11
27.6791
 21
935.222
  0
LINE
  8
0
 10
27.6791
 20
935.222
 11
27.1289
 21
935.524
  0
LINE
  8
0
 10
27.1289
 20
935.524
 11
26.5451
 21
935.755
  0
LINE
  8
0
 10
26.5451
 20
935.755
 11
25.9369
 21
935.911
  0
LINE
  8
0
 10
25.9369
 20
935.911
 11
25.3139
 21
935.99
  0
LINE
  8
0
 10
25.3139
 20
935.99
 11
-25.3139
 21
935.99
  0
LINE
  8
0
 10
-25.3139
 20
935.99
 11
-25.9369
 21
935.911
  0
LINE
  8
0
 10
-25.9369
 20
935.911
 11
-26.5451
 21
935.755
  0
LINE
  8
0
 10
-26.5451
 20
935.755
 11
-27.1289
 21
935.524
  0
LINE
  8
0
 10
-27.1289
 20
935.524
 11
-27.6791
 21
935.222
  0
LINE
  8
0
 10
-27.6791
 20
935.222
 11
-28.1871
 21
934.853
  0
LINE
  8
0
 10
-28.1871
 20
934.853
 11
-28.6448
 21
934.423
  0
LINE
  8
0
 10
-28.6448
 20
934.423
 11
-29.0451
 21
933.939
  0
LINE
  8
0
 10
-29.0451
 20
933.939
 11
-29.3815
 21
933.409
  0
LINE
  8
0
 10
-29.3815
 20
933.409
 11
-29.6489
 21
932.841
  0
LINE
  8
0
 10
-29.6489
 20
932.841
 11
-29.8429
 21
932.243
  0
LINE
  8
0
 10
-29.8429
 20
932.243
 11
-29.9606
 21
931.627
  0
LINE
  8
0
 10
-29.9606
 20
931.627
 11
-30
 21
931
  0
LINE
  8
0
 10
-30
 20
931
 11
-30
 21
851
  0
LINE
  8
0
 10
-30
 20
851
 11
-29.9606
 21
850.373
  0
LINE
  8
0
 10
-29.9606
 20
850.373
 11
-29.8429
 21
849.757
  0
LINE
  8
0
 10
-29.8429
 20
849.757
 11
-29.6489
 21
849.159
  0
LINE
  8
0
 10
-29.6489
 20
849.159
 11
-29.3815
 21
848.591
  0
LINE
  8
0
 10
-29.3815
 20
848.591
 11
-29.0451
 21
848.061
  0
LINE
  8
0
 10
-29.0451
 20
848.061
 11
-28.6448
 21
847.577
  0
LINE
  8
0
 10
-28.6448
 20
847.577
 11
-28.1871
 21
847.147
  0
LINE
  8
0
 10
-28.1871
 20
847.147
 11
-27.6791
 21
846.778
  0
LINE
  8
0
 10
-27.6791
 20
846.778
 11
-27.1289
 21
846.476
  0
LINE
  8
0
 10
-27.1289
 20
846.476
 11
-26.5451
 21
846.245
  0
LINE
  8
0
 10
-26.5451
 20
846.245
 11
-25.9369
 21
846.089
  0
LINE
  8
0
 10
-25.9369
 20
846.089
 11
-25.3139
 21
846.01
  0
LINE
  8
0
 10
-25.3139
 20
846.01
 11
25.3139
 21
846.01
  0
LINE
  8
0
 10
25.3139
 20
846.01
 11
25.9369
 21
846.089
  0
LINE
  8
0
 10
-24.7512
 20
847.508
 11
-25.2495
 21
847.571
  0
LINE
  8
0
 10
-25.2495
 20
847.571
 11
-25.7361
 21
847.696
  0
LINE
  8
0
 10
-25.7361
 20
847.696
 11
-26.2031
 21
847.881
  0
LINE
  8
0
 10
-26.2031
 20
847.881
 11
-26.6433
 21
848.123
  0
LINE
  8
0
 10
-26.6433
 20
848.123
 11
-27.0497
 21
848.418
  0
LINE
  8
0
 10
-27.0497
 20
848.418
 11
-27.4159
 21
848.762
  0
LINE
  8
0
 10
-27.4159
 20
848.762
 11
-27.7361
 21
849.149
  0
LINE
  8
0
 10
-27.7361
 20
849.149
 11
-28.0052
 21
849.573
  0
LINE
  8
0
 10
-28.0052
 20
849.573
 11
-28.2191
 21
850.028
  0
LINE
  8
0
 10
-28.2191
 20
850.028
 11
-28.3743
 21
850.505
  0
LINE
  8
0
 10
-28.3743
 20
850.505
 11
-28.4684
 21
850.999
  0
LINE
  8
0
 10
-28.4684
 20
850.999
 11
-28.5
 21
851.5
  0
LINE
  8
0
 10
-28.5
 20
851.5
 11
-28.5
 21
930.5
  0
LINE
  8
0
 10
-28.5
 20
930.5
 11
-28.4684
 21
931.001
  0
LINE
  8
0
 10
-28.4684
 20
931.001
 11
-28.3743
 21
931.495
  0
LINE
  8
0
 10
-28.3743
 20
931.495
 11
-28.2191
 21
931.972
  0
LINE
  8
0
 10
-28.2191
 20
931.972
 11
-28.0052
 21
932.427
  0
LINE
  8
0
 10
-28.0052
 20
932.427
 11
-27.7361
 21
932.851
  0
LINE
  8
0
 10
-27.7361
 20
932.851
 11
-27.4159
 21
933.238
  0
LINE
  8
0
 10
-27.4159
 20
933.238
 11
-27.0497
 21
933.582
  0
LINE
  8
0
 10
-27.0497
 20
933.582
 11
-26.6433
 21
933.877
  0
LINE
  8
0
 10
-26.6433
 20
933.877
 11
-26.2031
 21
934.119
  0
LINE
  8
0
 10
-26.2031
 20
934.119
 11
-25.7361
 21
934.304
  0
LINE
  8
0
 10
-25.7361
 20
934.304
 11
-25.2495
 21
934.429
  0
LINE
  8
0
 10
-25.2495
 20
934.429
 11
-24.7512
 21
934.492
  0
LINE
  8
0
 10
-24.7512
 20
934.492
 11
24.7512
 21
934.492
  0
LINE
  8
0
 10
24.7512
 20
934.492
 11
25.2495
 21
934.429
  0
LINE
  8
0
 10
25.2495
 20
934.429
 11
25.7361
 21
934.304
  0
LINE
  8
0
 10
25.7361
 20
934.304
 11
26.2031
 21
934.119
  0
LINE
  8
0
 10
26.2031
 20
934.119
 11
26.6433
 21
933.877
  0
LINE
  8
0
 10
26.6433
 20
933.877
 11
27.0497
 21
933.582
  0
LINE
  8
0
 10
27.0497
 20
933.582
 11
27.4159
 21
933.238
  0
LINE
  8
0
 10
27.4159
 20
933.238
 11
27.7361
 21
932.851
  0
LINE
  8
0
 10
27.7361
 20
932.851
 11
28.0052
 21
932.427
  0
LINE
  8
0
 10
28.0052
 20
932.427
 11
28.2191
 21
931.972
  0
LINE
  8
0
 10
28.2191
 20
931.972
 11
28.3743
 21
931.495
  0
LINE
  8
0
 10
28.3743
 20
931.495
 11
28.4684
 21
931.001
  0
LINE
  8
0
 10
28.4684
 20
931.001
 11
28.5
 21
930.5
  0
LINE
  8
0
 10
28.5
 20
930.5
 11
28.5
 21
851.5
  0
LINE
  8
0
 10
28.5
 20
851.5
 11
28.4684
 21
850.999
  0
LINE
  8
0
 10
28.4684
 20
850.999
 11
28.3743
 21
850.505
  0
LINE
  8
0
 10
28.3743
 20
850.505
 11
28.2191
 21
850.028
  0
LINE
  8
0
 10
28.2191
 20
850.028
 11
28.0052
 21
849.573
  0
LINE
  8
0
 10
28.0052
 20
849.573
 11
27.7361
 21
849.149
  0
LINE
  8
0
 10
27.7361
 20
849.149
 11
27.4159
 21
848.762
  0
LINE
  8
0
 10
27.4159
 20
848.762
 11
27.0497
 21
848.418
  0
LINE
  8
0
 10
27.0497
 20
848.418
 11
26.6433
 21
848.123
  0
LINE
  8
0
 10
26.6433
 20
848.123
 11
26.2031
 21
847.881
  0
LINE
  8
0
 10
26.2031
 20
847.881
 11
25.7361
 21
847.696
  0
LINE
  8
0
 10
25.7361
 20
847.696
 11
25.2495
 21
847.571
  0
LINE
  8
0
 10
25.2495
 20
847.571
 11
24.7512
 21
847.508
  0
LINE
  8
0
 10
24.7512
 20
847.508
 11
-24.7512
 21
847.508
  0
LINE
  8
0
 10
25.9369
 20
747.089
 11
26.5451
 21
747.245
  0
LINE
  8
0
 10
26.5451
 20
747.245
 11
27.1289
 21
747.476
  0
LINE
  8
0
 10
27.1289
 20
747.476
 11
27.6791
 21
747.778
  0
LINE
  8
0
 10
27.6791
 20
747.778
 11
28.1871
 21
748.147
  0
LINE
  8
0
 10
28.1871
 20
748.147
 11
28.6448
 21
748.577
  0
LINE
  8
0
 10
28.6448
 20
748.577
 11
29.0451
 21
749.061
  0
LINE
  8
0
 10
29.0451
 20
749.061
 11
29.3815
 21
749.591
  0
LINE
  8
0
 10
29.3815
 20
749.591
 11
29.6489
 21
750.159
  0
LINE
  8
0
 10
29.6489
 20
750.159
 11
29.8429
 21
750.757
  0
LINE
  8
0
 10
29.8429
 20
750.757
 11
29.9606
 21
751.373
  0
LINE
  8
0
 10
29.9606
 20
751.373
 11
30
 21
752
  0
LINE
  8
0
 10
30
 20
752
 11
30
 21
832
  0
LINE
  8
0
 10
30
 20
832
 11
29.9606
 21
832.627
  0
LINE
  8
0
 10
29.9606
 20
832.627
 11
29.8429
 21
833.243
  0
LINE
  8
0
 10
29.8429
 20
833.243
 11
29.6489
 21
833.841
  0
LINE
  8
0
 10
29.6489
 20
833.841
 11
29.3815
 21
834.409
  0
LINE
  8
0
 10
29.3815
 20
834.409
 11
29.0451
 21
834.939
  0
LINE
  8
0
 10
29.0451
 20
834.939
 11
28.6448
 21
835.423
  0
LINE
  8
0
 10
28.6448
 20
835.423
 11
28.1871
 21
835.853
  0
LINE
  8
0
 10
28.1871
 20
835.853
 11
27.6791
 21
836.222
  0
LINE
  8
0
 10
27.6791
 20
836.222
 11
27.1289
 21
836.524
  0
LINE
  8
0
 10
27.1289
 20
836.524
 11
26.5451
 21
836.755
  0
LINE
  8
0
 10
26.5451
 20
836.755
 11
25.9369
 21
836.911
  0
LINE
  8
0
 10
25.9369
 20
836.911
 11
25.3139
 21
836.99
  0
LINE
  8
0
 10
25.3139
 20
836.99
 11
-25.3139
 21
836.99
  0
LINE
  8
0
 10
-25.3139
 20
836.99
 11
-25.9369
 21
836.911
  0
LINE
  8
0
 10
-25.9369
 20
836.911
 11
-26.5451
 21
836.755
  0
LINE
  8
0
 10
-26.5451
 20
836.755
 11
-27.1289
 21
836.524
  0
LINE
  8
0
 10
-27.1289
 20
836.524
 11
-27.6791
 21
836.222
  0
LINE
  8
0
 10
-27.6791
 20
836.222
 11
-28.1871
 21
835.853
  0
LINE
  8
0
 10
-28.1871
 20
835.853
 11
-28.6448
 21
835.423
  0
LINE
  8
0
 10
-28.6448
 20
835.423
 11
-29.0451
 21
834.939
  0
LINE
  8
0
 10
-29.0451
 20
834.939
 11
-29.3815
 21
834.409
  0
LINE
  8
0
 10
-29.3815
 20
834.409
 11
-29.6489
 21
833.841
  0
LINE
  8
0
 10
-29.6489
 20
833.841
 11
-29.8429
 21
833.243
  0
LINE
  8
0
 10
-29.8429
 20
833.243
 11
-29.9606
 21
832.627
  0
LINE
  8
0
 10
-29.9606
 20
832.627
 11
-30
 21
832
  0
LINE
  8
0
 10
-30
 20
832
 11
-30
 21
752
  0
LINE
  8
0
 10
-30
 20
752
 11
-29.9606
 21
751.373
  0
LINE
  8
0
 10
-29.9606
 20
751.373
 11
-29.8429
 21
750.757
  0
LINE
  8
0
 10
-29.8429
 20
750.757
 11
-29.6489
 21
750.159
  0
LINE
  8
0
 10
-29.6489
 20
750.159
 11
-29.3815
 21
749.591
  0
LINE
  8
0
 10
-29.3815
 20
749.591
 11
-29.0451
 21
749.061
  0
LINE
  8
0
 10
-29.0451
 20
749.061
 11
-28.6448
 21
748.577
  0
LINE
  8
0
 10
-28.6448
 20
748.577
 11
-28.1871
 21
748.147
  0
LINE
  8
0
 10
-28.1871
 20
748.147
 11
-27.6791
 21
747.778
  0
LINE
  8
0
 10
-27.6791
 20
747.778
 11
-27.1289
 21
747.476
  0
LINE
  8
0
 10
-27.1289
 20
747.476
 11
-26.5451
 21
747.245
  0
LINE
  8
0
 10
-26.5451
 20
747.245
 11
-25.9369
 21
747.089
  0
LINE
  8
0
 10
-25.9369
 20
747.089
 11
-25.3139
 21
747.01
  0
LINE
  8
0
 10
-25.3139
 20
747.01
 11
25.3139
 21
747.01
  0
LINE
  8
0
 10
25.3139
 20
747.01
 11
25.9369
 21
747.089
  0
LINE
  8
0
 10
-24.7512
 20
748.508
 11
-25.2495
 21
748.571
  0
LINE
  8
0
 10
-25.2495
 20
748.571
 11
-25.7361
 21
748.696
  0
LINE
  8
0
 10
-25.7361
 20
748.696
 11
-26.2031
 21
748.881
  0
LINE
  8
0
 10
-26.2031
 20
748.881
 11
-26.6433
 21
749.123
  0
LINE
  8
0
 10
-26.6433
 20
749.123
 11
-27.0497
 21
749.418
  0
LINE
  8
0
 10
-27.0497
 20
749.418
 11
-27.4159
 21
749.762
  0
LINE
  8
0
 10
-27.4159
 20
749.762
 11
-27.7361
 21
750.149
  0
LINE
  8
0
 10
-27.7361
 20
750.149
 11
-28.0052
 21
750.573
  0
LINE
  8
0
 10
-28.0052
 20
750.573
 11
-28.2191
 21
751.028
  0
LINE
  8
0
 10
-28.2191
 20
751.028
 11
-28.3743
 21
751.505
  0
LINE
  8
0
 10
-28.3743
 20
751.505
 11
-28.4684
 21
751.999
  0
LINE
  8
0
 10
-28.4684
 20
751.999
 11
-28.5
 21
752.5
  0
LINE
  8
0
 10
-28.5
 20
752.5
 11
-28.5
 21
831.5
  0
LINE
  8
0
 10
-28.5
 20
831.5
 11
-28.4684
 21
832.001
  0
LINE
  8
0
 10
-28.4684
 20
832.001
 11
-28.3743
 21
832.495
  0
LINE
  8
0
 10
-28.3743
 20
832.495
 11
-28.2191
 21
832.972
  0
LINE
  8
0
 10
-28.2191
 20
832.972
 11
-28.0052
 21
833.427
  0
LINE
  8
0
 10
-28.0052
 20
833.427
 11
-27.7361
 21
833.851
  0
LINE
  8
0
 10
-27.7361
 20
833.851
 11
-27.4159
 21
834.238
  0
LINE
  8
0
 10
-27.4159
 20
834.238
 11
-27.0497
 21
834.582
  0
LINE
  8
0
 10
-27.0497
 20
834.582
 11
-26.6433
 21
834.877
  0
LINE
  8
0
 10
-26.6433
 20
834.877
 11
-26.2031
 21
835.119
  0
LINE
  8
0
 10
-26.2031
 20
835.119
 11
-25.7361
 21
835.304
  0
LINE
  8
0
 10
-25.7361
 20
835.304
 11
-25.2495
 21
835.429
  0
LINE
  8
0
 10
-25.2495
 20
835.429
 11
-24.7512
 21
835.492
  0
LINE
  8
0
 10
-24.7512
 20
835.492
 11
24.7512
 21
835.492
  0
LINE
  8
0
 10
24.7512
 20
835.492
 11
25.2495
 21
835.429
  0
LINE
  8
0
 10
25.2495
 20
835.429
 11
25.7361
 21
835.304
  0
LINE
  8
0
 10
25.7361
 20
835.304
 11
26.2031
 21
835.119
  0
LINE
  8
0
 10
26.2031
 20
835.119
 11
26.6433
 21
834.877
  0
LINE
  8
0
 10
26.6433
 20
834.877
 11
27.0497
 21
834.582
  0
LINE
  8
0
 10
27.0497
 20
834.582
 11
27.4159
 21
834.238
  0
LINE
  8
0
 10
27.4159
 20
834.238
 11
27.7361
 21
833.851
  0
LINE
  8
0
 10
27.7361
 20
833.851
 11
28.0052
 21
833.427
  0
LINE
  8
0
 10
28.0052
 20
833.427
 11
28.2191
 21
832.972
  0
LINE
  8
0
 10
28.2191
 20
832.972
 11
28.3743
 21
832.495
  0
LINE
  8
0
 10
28.3743
 20
832.495
 11
28.4684
 21
832.001
  0
LINE
  8
0
 10
28.4684
 20
832.001
 11
28.5
 21
831.5
  0
LINE
  8
0
 10
28.5
 20
831.5
 11
28.5
 21
752.5
  0
LINE
  8
0
 10
28.5
 20
752.5
 11
28.4684
 21
751.999
  0
LINE
  8
0
 10
28.4684
 20
751.999
 11
28.3743
 21
751.505
  0
LINE
  8
0
 10
28.3743
 20
751.505
 11
28.2191
 21
751.028
  0
LINE
  8
0
 10
28.2191
 20
751.028
 11
28.0052
 21
750.573
  0
LINE
  8
0
 10
28.0052
 20
750.573
 11
27.7361
 21
750.149
  0
LINE
  8
0
 10
27.7361
 20
750.149
 11
27.4159
 21
749.762
  0
LINE
  8
0
 10
27.4159
 20
749.762
 11
27.0497
 21
749.418
  0
LINE
  8
0
 10
27.0497
 20
749.418
 11
26.6433
 21
749.123
  0
LINE
  8
0
 10
26.6433
 20
749.123
 11
26.2031
 21
748.881
  0
LINE
  8
0
 10
26.2031
 20
748.881
 11
25.7361
 21
748.696
  0
LINE
  8
0
 10
25.7361
 20
748.696
 11
25.2495
 21
748.571
  0
LINE
  8
0
 10
25.2495
 20
748.571
 11
24.7512
 21
748.508
  0
LINE
  8
0
 10
24.7512
 20
748.508
 11
-24.7512
 21
748.508
  0
LINE
  8
0
 10
25.9369
 20
648.089
 11
26.5451
 21
648.245
  0
LINE
  8
0
 10
26.5451
 20
648.245
 11
27.1289
 21
648.476
  0
LINE
  8
0
 10
27.1289
 20
648.476
 11
27.6791
 21
648.778
  0
LINE
  8
0
 10
27.6791
 20
648.778
 11
28.1871
 21
649.147
  0
LINE
  8
0
 10
28.1871
 20
649.147
 11
28.6448
 21
649.577
  0
LINE
  8
0
 10
28.6448
 20
649.577
 11
29.0451
 21
650.061
  0
LINE
  8
0
 10
29.0451
 20
650.061
 11
29.3815
 21
650.591
  0
LINE
  8
0
 10
29.3815
 20
650.591
 11
29.6489
 21
651.159
  0
LINE
  8
0
 10
29.6489
 20
651.159
 11
29.8429
 21
651.757
  0
LINE
  8
0
 10
29.8429
 20
651.757
 11
29.9606
 21
652.373
  0
LINE
  8
0
 10
29.9606
 20
652.373
 11
30
 21
653
  0
LINE
  8
0
 10
30
 20
653
 11
30
 21
733
  0
LINE
  8
0
 10
30
 20
733
 11
29.9606
 21
733.627
  0
LINE
  8
0
 10
29.9606
 20
733.627
 11
29.8429
 21
734.243
  0
LINE
  8
0
 10
29.8429
 20
734.243
 11
29.6489
 21
734.841
  0
LINE
  8
0
 10
29.6489
 20
734.841
 11
29.3815
 21
735.409
  0
LINE
  8
0
 10
29.3815
 20
735.409
 11
29.0451
 21
735.939
  0
LINE
  8
0
 10
29.0451
 20
735.939
 11
28.6448
 21
736.423
  0
LINE
  8
0
 10
28.6448
 20
736.423
 11
28.1871
 21
736.853
  0
LINE
  8
0
 10
28.1871
 20
736.853
 11
27.6791
 21
737.222
  0
LINE
  8
0
 10
27.6791
 20
737.222
 11
27.1289
 21
737.524
  0
LINE
  8
0
 10
27.1289
 20
737.524
 11
26.5451
 21
737.755
  0
LINE
  8
0
 10
26.5451
 20
737.755
 11
25.9369
 21
737.911
  0
LINE
  8
0
 10
25.9369
 20
737.911
 11
25.3139
 21
737.99
  0
LINE
  8
0
 10
25.3139
 20
737.99
 11
-25.3139
 21
737.99
  0
LINE
  8
0
 10
-25.3139
 20
737.99
 11
-25.9369
 21
737.911
  0
LINE
  8
0
 10
-25.9369
 20
737.911
 11
-26.5451
 21
737.755
  0
LINE
  8
0
 10
-26.5451
 20
737.755
 11
-27.1289
 21
737.524
  0
LINE
  8
0
 10
-27.1289
 20
737.524
 11
-27.6791
 21
737.222
  0
LINE
  8
0
 10
-27.6791
 20
737.222
 11
-28.1871
 21
736.853
  0
LINE
  8
0
 10
-28.1871
 20
736.853
 11
-28.6448
 21
736.423
  0
LINE
  8
0
 10
-28.6448
 20
736.423
 11
-29.0451
 21
735.939
  0
LINE
  8
0
 10
-29.0451
 20
735.939
 11
-29.3815
 21
735.409
  0
LINE
  8
0
 10
-29.3815
 20
735.409
 11
-29.6489
 21
734.841
  0
LINE
  8
0
 10
-29.6489
 20
734.841
 11
-29.8429
 21
734.243
  0
LINE
  8
0
 10
-29.8429
 20
734.243
 11
-29.9606
 21
733.627
  0
LINE
  8
0
 10
-29.9606
 20
733.627
 11
-30
 21
733
  0
LINE
  8
0
 10
-30
 20
733
 11
-30
 21
653
  0
LINE
  8
0
 10
-30
 20
653
 11
-29.9606
 21
652.373
  0
LINE
  8
0
 10
-29.9606
 20
652.373
 11
-29.8429
 21
651.757
  0
LINE
  8
0
 10
-29.8429
 20
651.757
 11
-29.6489
 21
651.159
  0
LINE
  8
0
 10
-29.6489
 20
651.159
 11
-29.3815
 21
650.591
  0
LINE
  8
0
 10
-29.3815
 20
650.591
 11
-29.0451
 21
650.061
  0
LINE
  8
0
 10
-29.0451
 20
650.061
 11
-28.6448
 21
649.577
  0
LINE
  8
0
 10
-28.6448
 20
649.577
 11
-28.1871
 21
649.147
  0
LINE
  8
0
 10
-28.1871
 20
649.147
 11
-27.6791
 21
648.778
  0
LINE
  8
0
 10
-27.6791
 20
648.778
 11
-27.1289
 21
648.476
  0
LINE
  8
0
 10
-27.1289
 20
648.476
 11
-26.5451
 21
648.245
  0
LINE
  8
0
 10
-26.5451
 20
648.245
 11
-25.9369
 21
648.089
  0
LINE
  8
0
 10
-25.9369
 20
648.089
 11
-25.3139
 21
648.01
  0
LINE
  8
0
 10
-25.3139
 20
648.01
 11
25.3139
 21
648.01
  0
LINE
  8
0
 10
25.3139
 20
648.01
 11
25.9369
 21
648.089
  0
LINE
  8
0
 10
-24.7512
 20
649.508
 11
-25.2495
 21
649.571
  0
LINE
  8
0
 10
-25.2495
 20
649.571
 11
-25.7361
 21
649.696
  0
LINE
  8
0
 10
-25.7361
 20
649.696
 11
-26.2031
 21
649.881
  0
LINE
  8
0
 10
-26.2031
 20
649.881
 11
-26.6433
 21
650.123
  0
LINE
  8
0
 10
-26.6433
 20
650.123
 11
-27.0497
 21
650.418
  0
LINE
  8
0
 10
-27.0497
 20
650.418
 11
-27.4159
 21
650.762
  0
LINE
  8
0
 10
-27.4159
 20
650.762
 11
-27.7361
 21
651.149
  0
LINE
  8
0
 10
-27.7361
 20
651.149
 11
-28.0052
 21
651.573
  0
LINE
  8
0
 10
-28.0052
 20
651.573
 11
-28.2191
 21
652.028
  0
LINE
  8
0
 10
-28.2191
 20
652.028
 11
-28.3743
 21
652.505
  0
LINE
  8
0
 10
-28.3743
 20
652.505
 11
-28.4684
 21
652.999
  0
LINE
  8
0
 10
-28.4684
 20
652.999
 11
-28.5
 21
653.5
  0
LINE
  8
0
 10
-28.5
 20
653.5
 11
-28.5
 21
732.5
  0
LINE
  8
0
 10
-28.5
 20
732.5
 11
-28.4684
 21
733.001
  0
LINE
  8
0
 10
-28.4684
 20
733.001
 11
-28.3743
 21
733.495
  0
LINE
  8
0
 10
-28.3743
 20
733.495
 11
-28.2191
 21
733.972
  0
LINE
  8
0
 10
-28.2191
 20
733.972
 11
-28.0052
 21
734.427
  0
LINE
  8
0
 10
-28.0052
 20
734.427
 11
-27.7361
 21
734.851
  0
LINE
  8
0
 10
-27.7361
 20
734.851
 11
-27.4159
 21
735.238
  0
LINE
  8
0
 10
-27.4159
 20
735.238
 11
-27.0497
 21
735.582
  0
LINE
  8
0
 10
-27.0497
 20
735.582
 11
-26.6433
 21
735.877
  0
LINE
  8
0
 10
-26.6433
 20
735.877
 11
-26.2031
 21
736.119
  0
LINE
  8
0
 10
-26.2031
 20
736.119
 11
-25.7361
 21
736.304
  0
LINE
  8
0
 10
-25.7361
 20
736.304
 11
-25.2495
 21
736.429
  0
LINE
  8
0
 10
-25.2495
 20
736.429
 11
-24.7512
 21
736.492
  0
LINE
  8
0
 10
-24.7512
 20
736.492
 11
24.7512
 21
736.492
  0
LINE
  8
0
 10
24.7512
 20
736.492
 11
25.2495
 21
736.429
  0
LINE
  8
0
 10
25.2495
 20
736.429
 11
25.7361
 21
736.304
  0
LINE
  8
0
 10
25.7361
 20
736.304
 11
26.2031
 21
736.119
  0
LINE
  8
0
 10
26.2031
 20
736.119
 11
26.6433
 21
735.877
  0
LINE
  8
0
 10
26.6433
 20
735.877
 11
27.0497
 21
735.582
  0
LINE
  8
0
 10
27.0497
 20
735.582
 11
27.4159
 21
735.238
  0
LINE
  8
0
 10
27.4159
 20
735.238
 11
27.7361
 21
734.851
  0
LINE
  8
0
 10
27.7361
 20
734.851
 11
28.0052
 21
734.427
  0
LINE
  8
0
 10
28.0052
 20
734.427
 11
28.2191
 21
733.972
  0
LINE
  8
0
 10
28.2191
 20
733.972
 11
28.3743
 21
733.495
  0
LINE
  8
0
 10
28.3743
 20
733.495
 11
28.4684
 21
733.001
  0
LINE
  8
0
 10
28.4684
 20
733.001
 11
28.5
 21
732.5
  0
LINE
  8
0
 10
28.5
 20
732.5
 11
28.5
 21
653.5
  0
LINE
  8
0
 10
28.5
 20
653.5
 11
28.4684
 21
652.999
  0
LINE
  8
0
 10
28.4684
 20
652.999
 11
28.3743
 21
652.505
  0
LINE
  8
0
 10
28.3743
 20
652.505
 11
28.2191
 21
652.028
  0
LINE
  8
0
 10
28.2191
 20
652.028
 11
28.0052
 21
651.573
  0
LINE
  8
0
 10
28.0052
 20
651.573
 11
27.7361
 21
651.149
  0
LINE
  8
0
 10
27.7361
 20
651.149
 11
27.4159
 21
650.762
  0
LINE
  8
0
 10
27.4159
 20
650.762
 11
27.0497
 21
650.418
  0
LINE
  8
0
 10
27.0497
 20
650.418
 11
26.6433
 21
650.123
  0
LINE
  8
0
 10
26.6433
 20
650.123
 11
26.2031
 21
649.881
  0
LINE
  8
0
 10
26.2031
 20
649.881
 11
25.7361
 21
649.696
  0
LINE
  8
0
 10
25.7361
 20
649.696
 11
25.2495
 21
649.571
  0
LINE
  8
0
 10
25.2495
 20
649.571
 11
24.7512
 21
649.508
  0
LINE
  8
0
 10
24.7512
 20
649.508
 11
-24.7512
 21
649.508
  0
LINE
  8
0
 10
25.9369
 20
549.089
 11
26.5451
 21
549.245
  0
LINE
  8
0
 10
26.5451
 20
549.245
 11
27.1289
 21
549.476
  0
LINE
  8
0
 10
27.1289
 20
549.476
 11
27.6791
 21
549.778
  0
LINE
  8
0
 10
27.6791
 20
549.778
 11
28.1871
 21
550.147
  0
LINE
  8
0
 10
28.1871
 20
550.147
 11
28.6448
 21
550.577
  0
LINE
  8
0
 10
28.6448
 20
550.577
 11
29.0451
 21
551.061
  0
LINE
  8
0
 10
29.0451
 20
551.061
 11
29.3815
 21
551.591
  0
LINE
  8
0
 10
29.3815
 20
551.591
 11
29.6489
 21
552.159
  0
LINE
  8
0
 10
29.6489
 20
552.159
 11
29.8429
 21
552.757
  0
LINE
  8
0
 10
29.8429
 20
552.757
 11
29.9606
 21
553.373
  0
LINE
  8
0
 10
29.9606
 20
553.373
 11
30
 21
554
  0
LINE
  8
0
 10
30
 20
554
 11
30
 21
634
  0
LINE
  8
0
 10
30
 20
634
 11
29.9606
 21
634.627
  0
LINE
  8
0
 10
29.9606
 20
634.627
 11
29.8429
 21
635.243
  0
LINE
  8
0
 10
29.8429
 20
635.243
 11
29.6489
 21
635.841
  0
LINE
  8
0
 10
29.6489
 20
635.841
 11
29.3815
 21
636.409
  0
LINE
  8
0
 10
29.3815
 20
636.409
 11
29.0451
 21
636.939
  0
LINE
  8
0
 10
29.0451
 20
636.939
 11
28.6448
 21
637.423
  0
LINE
  8
0
 10
28.6448
 20
637.423
 11
28.1871
 21
637.853
  0
LINE
  8
0
 10
28.1871
 20
637.853
 11
27.6791
 21
638.222
  0
LINE
  8
0
 10
27.6791
 20
638.222
 11
27.1289
 21
638.524
  0
LINE
  8
0
 10
27.1289
 20
638.524
 11
26.5451
 21
638.755
  0
LINE
  8
0
 10
26.5451
 20
638.755
 11
25.9369
 21
638.911
  0
LINE
  8
0
 10
25.9369
 20
638.911
 11
25.3139
 21
638.99
  0
LINE
  8
0
 10
25.3139
 20
638.99
 11
-25.3139
 21
638.99
  0
LINE
  8
0
 10
-25.3139
 20
638.99
 11
-25.9369
 21
638.911
  0
LINE
  8
0
 10
-25.9369
 20
638.911
 11
-26.5451
 21
638.755
  0
LINE
  8
0
 10
-26.5451
 20
638.755
 11
-27.1289
 21
638.524
  0
LINE
  8
0
 10
-27.1289
 20
638.524
 11
-27.6791
 21
638.222
  0
LINE
  8
0
 10
-27.6791
 20
638.222
 11
-28.1871
 21
637.853
  0
LINE
  8
0
 10
-28.1871
 20
637.853
 11
-28.6448
 21
637.423
  0
LINE
  8
0
 10
-28.6448
 20
637.423
 11
-29.0451
 21
636.939
  0
LINE
  8
0
 10
-29.0451
 20
636.939
 11
-29.3815
 21
636.409
  0
LINE
  8
0
 10
-29.3815
 20
636.409
 11
-29.6489
 21
635.841
  0
LINE
  8
0
 10
-29.6489
 20
635.841
 11
-29.8429
 21
635.243
  0
LINE
  8
0
 10
-29.8429
 20
635.243
 11
-29.9606
 21
634.627
  0
LINE
  8
0
 10
-29.9606
 20
634.627
 11
-30
 21
634
  0
LINE
  8
0
 10
-30
 20
634
 11
-30
 21
554
  0
LINE
  8
0
 10
-30
 20
554
 11
-29.9606
 21
553.373
  0
LINE
  8
0
 10
-29.9606
 20
553.373
 11
-29.8429
 21
552.757
  0
LINE
  8
0
 10
-29.8429
 20
552.757
 11
-29.6489
 21
552.159
  0
LINE
  8
0
 10
-29.6489
 20
552.159
 11
-29.3815
 21
551.591
  0
LINE
  8
0
 10
-29.3815
 20
551.591
 11
-29.0451
 21
551.061
  0
LINE
  8
0
 10
-29.0451
 20
551.061
 11
-28.6448
 21
550.577
  0
LINE
  8
0
 10
-28.6448
 20
550.577
 11
-28.1871
 21
550.147
  0
LINE
  8
0
 10
-28.1871
 20
550.147
 11
-27.6791
 21
549.778
  0
LINE
  8
0
 10
-27.6791
 20
549.778
 11
-27.1289
 21
549.476
  0
LINE
  8
0
 10
-27.1289
 20
549.476
 11
-26.5451
 21
549.245
  0
LINE
  8
0
 10
-26.5451
 20
549.245
 11
-25.9369
 21
549.089
  0
LINE
  8
0
 10
-25.9369
 20
549.089
 11
-25.3139
 21
549.01
  0
LINE
  8
0
 10
-25.3139
 20
549.01
 11
25.3139
 21
549.01
  0
LINE
  8
0
 10
25.3139
 20
549.01
 11
25.9369
 21
549.089
  0
LINE
  8
0
 10
-24.6954
 20
551.393
 11
-25.0833
 21
551.442
  0
LINE
  8
0
 10
-25.0833
 20
551.442
 11
-25.4619
 21
551.539
  0
LINE
  8
0
 10
-25.4619
 20
551.539
 11
-25.8254
 21
551.683
  0
LINE
  8
0
 10
-25.8254
 20
551.683
 11
-26.168
 21
551.872
  0
LINE
  8
0
 10
-26.168
 20
551.872
 11
-26.4842
 21
552.101
  0
LINE
  8
0
 10
-26.4842
 20
552.101
 11
-26.7692
 21
552.369
  0
LINE
  8
0
 10
-26.7692
 20
552.369
 11
-27.0184
 21
552.67
  0
LINE
  8
0
 10
-27.0184
 20
552.67
 11
-27.2279
 21
553
  0
LINE
  8
0
 10
-27.2279
 20
553
 11
-27.3943
 21
553.354
  0
LINE
  8
0
 10
-27.3943
 20
553.354
 11
-27.5151
 21
553.726
  0
LINE
  8
0
 10
-27.5151
 20
553.726
 11
-27.5884
 21
554.11
  0
LINE
  8
0
 10
-27.5884
 20
554.11
 11
-27.6129
 21
554.5
  0
LINE
  8
0
 10
-27.6129
 20
554.5
 11
-27.6129
 21
633.5
  0
LINE
  8
0
 10
-27.6129
 20
633.5
 11
-27.5884
 21
633.89
  0
LINE
  8
0
 10
-27.5884
 20
633.89
 11
-27.5151
 21
634.274
  0
LINE
  8
0
 10
-27.5151
 20
634.274
 11
-27.3943
 21
634.646
  0
LINE
  8
0
 10
-27.3943
 20
634.646
 11
-27.2279
 21
635
  0
LINE
  8
0
 10
-27.2279
 20
635
 11
-27.0184
 21
635.33
  0
LINE
  8
0
 10
-27.0184
 20
635.33
 11
-26.7692
 21
635.631
  0
LINE
  8
0
 10
-26.7692
 20
635.631
 11
-26.4842
 21
635.899
  0
LINE
  8
0
 10
-26.4842
 20
635.899
 11
-26.168
 21
636.128
  0
LINE
  8
0
 10
-26.168
 20
636.128
 11
-25.8254
 21
636.317
  0
LINE
  8
0
 10
-25.8254
 20
636.317
 11
-25.4619
 21
636.461
  0
LINE
  8
0
 10
-25.4619
 20
636.461
 11
-25.0833
 21
636.558
  0
LINE
  8
0
 10
-25.0833
 20
636.558
 11
-24.6954
 21
636.607
  0
LINE
  8
0
 10
-24.6954
 20
636.607
 11
24.6954
 21
636.607
  0
LINE
  8
0
 10
24.6954
 20
636.607
 11
25.0833
 21
636.558
  0
LINE
  8
0
 10
25.0833
 20
636.558
 11
25.4619
 21
636.461
  0
LINE
  8
0
 10
25.4619
 20
636.461
 11
25.8254
 21
636.317
  0
LINE
  8
0
 10
25.8254
 20
636.317
 11
26.168
 21
636.128
  0
LINE
  8
0
 10
26.168
 20
636.128
 11
26.4842
 21
635.899
  0
LINE
  8
0
 10
26.4842
 20
635.899
 11
26.7692
 21
635.631
  0
LINE
  8
0
 10
26.7692
 20
635.631
 11
27.0184
 21
635.33
  0
LINE
  8
0
 10
27.0184
 20
635.33
 11
27.2279
 21
635
  0
LINE
  8
0
 10
27.2279
 20
635
 11
27.3943
 21
634.646
  0
LINE
  8
0
 10
27.3943
 20
634.646
 11
27.5151
 21
634.274
  0
LINE
  8
0
 10
27.5151
 20
634.274
 11
27.5884
 21
633.89
  0
LINE
  8
0
 10
27.5884
 20
633.89
 11
27.6129
 21
633.5
  0
LINE
  8
0
 10
27.6129
 20
633.5
 11
27.6129
 21
554.5
  0
LINE
  8
0
 10
27.6129
 20
554.5
 11
27.5884
 21
554.11
  0
LINE
  8
0
 10
27.5884
 20
554.11
 11
27.5151
 21
553.726
  0
LINE
  8
0
 10
27.5151
 20
553.726
 11
27.3943
 21
553.354
  0
LINE
  8
0
 10
27.3943
 20
553.354
 11
27.2279
 21
553
  0
LINE
  8
0
 10
27.2279
 20
553
 11
27.0184
 21
552.67
  0
LINE
  8
0
 10
27.0184
 20
552.67
 11
26.7692
 21
552.369
  0
LINE
  8
0
 10
26.7692
 20
552.369
 11
26.4842
 21
552.101
  0
LINE
  8
0
 10
26.4842
 20
552.101
 11
26.168
 21
551.872
  0
LINE
  8
0
 10
26.168
 20
551.872
 11
25.8254
 21
551.683
  0
LINE
  8
0
 10
25.8254
 20
551.683
 11
25.4619
 21
551.539
  0
LINE
  8
0
 10
25.4619
 20
551.539
 11
25.0833
 21
551.442
  0
LINE
  8
0
 10
25.0833
 20
551.442
 11
24.6954
 21
551.393
  0
LINE
  8
0
 10
24.6954
 20
551.393
 11
-24.6954
 21
551.393
  0
LINE
  8
0
 10
25.9369
 20
450.089
 11
26.5451
 21
450.245
  0
LINE
  8
0
 10
26.5451
 20
450.245
 11
27.1289
 21
450.476
  0
LINE
  8
0
 10
27.1289
 20
450.476
 11
27.6791
 21
450.778
  0
LINE
  8
0
 10
27.6791
 20
450.778
 11
28.1871
 21
451.147
  0
LINE
  8
0
 10
28.1871
 20
451.147
 11
28.6448
 21
451.577
  0
LINE
  8
0
 10
28.6448
 20
451.577
 11
29.0451
 21
452.061
  0
LINE
  8
0
 10
29.0451
 20
452.061
 11
29.3815
 21
452.591
  0
LINE
  8
0
 10
29.3815
 20
452.591
 11
29.6489
 21
453.159
  0
LINE
  8
0
 10
29.6489
 20
453.159
 11
29.8429
 21
453.757
  0
LINE
  8
0
 10
29.8429
 20
453.757
 11
29.9606
 21
454.373
  0
LINE
  8
0
 10
29.9606
 20
454.373
 11
30
 21
455
  0
LINE
  8
0
 10
30
 20
455
 11
30
 21
535
  0
LINE
  8
0
 10
30
 20
535
 11
29.9606
 21
535.627
  0
LINE
  8
0
 10
29.9606
 20
535.627
 11
29.8429
 21
536.243
  0
LINE
  8
0
 10
29.8429
 20
536.243
 11
29.6489
 21
536.841
  0
LINE
  8
0
 10
29.6489
 20
536.841
 11
29.3815
 21
537.409
  0
LINE
  8
0
 10
29.3815
 20
537.409
 11
29.0451
 21
537.939
  0
LINE
  8
0
 10
29.0451
 20
537.939
 11
28.6448
 21
538.423
  0
LINE
  8
0
 10
28.6448
 20
538.423
 11
28.1871
 21
538.853
  0
LINE
  8
0
 10
28.1871
 20
538.853
 11
27.6791
 21
539.222
  0
LINE
  8
0
 10
27.6791
 20
539.222
 11
27.1289
 21
539.524
  0
LINE
  8
0
 10
27.1289
 20
539.524
 11
26.5451
 21
539.755
  0
LINE
  8
0
 10
26.5451
 20
539.755
 11
25.9369
 21
539.911
  0
LINE
  8
0
 10
25.9369
 20
539.911
 11
25.3139
 21
539.99
  0
LINE
  8
0
 10
25.3139
 20
539.99
 11
-25.3139
 21
539.99
  0
LINE
  8
0
 10
-25.3139
 20
539.99
 11
-25.9369
 21
539.911
  0
LINE
  8
0
 10
-25.9369
 20
539.911
 11
-26.5451
 21
539.755
  0
LINE
  8
0
 10
-26.5451
 20
539.755
 11
-27.1289
 21
539.524
  0
LINE
  8
0
 10
-27.1289
 20
539.524
 11
-27.6791
 21
539.222
  0
LINE
  8
0
 10
-27.6791
 20
539.222
 11
-28.1871
 21
538.853
  0
LINE
  8
0
 10
-28.1871
 20
538.853
 11
-28.6448
 21
538.423
  0
LINE
  8
0
 10
-28.6448
 20
538.423
 11
-29.0451
 21
537.939
  0
LINE
  8
0
 10
-29.0451
 20
537.939
 11
-29.3815
 21
537.409
  0
LINE
  8
0
 10
-29.3815
 20
537.409
 11
-29.6489
 21
536.841
  0
LINE
  8
0
 10
-29.6489
 20
536.841
 11
-29.8429
 21
536.243
  0
LINE
  8
0
 10
-29.8429
 20
536.243
 11
-29.9606
 21
535.627
  0
LINE
  8
0
 10
-29.9606
 20
535.627
 11
-30
 21
535
  0
LINE
  8
0
 10
-30
 20
535
 11
-30
 21
455
  0
LINE
  8
0
 10
-30
 20
455
 11
-29.9606
 21
454.373
  0
LINE
  8
0
 10
-29.9606
 20
454.373
 11
-29.8429
 21
453.757
  0
LINE
  8
0
 10
-29.8429
 20
453.757
 11
-29.6489
 21
453.159
  0
LINE
  8
0
 10
-29.6489
 20
453.159
 11
-29.3815
 21
452.591
  0
LINE
  8
0
 10
-29.3815
 20
452.591
 11
-29.0451
 21
452.061
  0
LINE
  8
0
 10
-29.0451
 20
452.061
 11
-28.6448
 21
451.577
  0
LINE
  8
0
 10
-28.6448
 20
451.577
 11
-28.1871
 21
451.147
  0
LINE
  8
0
 10
-28.1871
 20
451.147
 11
-27.6791
 21
450.778
  0
LINE
  8
0
 10
-27.6791
 20
450.778
 11
-27.1289
 21
450.476
  0
LINE
  8
0
 10
-27.1289
 20
450.476
 11
-26.5451
 21
450.245
  0
LINE
  8
0
 10
-26.5451
 20
450.245
 11
-25.9369
 21
450.089
  0
LINE
  8
0
 10
-25.9369
 20
450.089
 11
-25.3139
 21
450.01
  0
LINE
  8
0
 10
-25.3139
 20
450.01
 11
25.3139
 21
450.01
  0
LINE
  8
0
 10
25.3139
 20
450.01
 11
25.9369
 21
450.089
  0
LINE
  8
0
 10
22.3659
 20
530.369
 11
22.0999
 21
530.403
  0
LINE
  8
0
 10
22.0999
 20
530.403
 11
21.8401
 21
530.469
  0
LINE
  8
0
 10
21.8401
 20
530.469
 11
21.5908
 21
530.568
  0
LINE
  8
0
 10
21.5908
 20
530.568
 11
21.3559
 21
530.697
  0
LINE
  8
0
 10
21.3559
 20
530.697
 11
21.1389
 21
530.855
  0
LINE
  8
0
 10
21.1389
 20
530.855
 11
20.9434
 21
531.038
  0
LINE
  8
0
 10
20.9434
 20
531.038
 11
20.7725
 21
531.245
  0
LINE
  8
0
 10
20.7725
 20
531.245
 11
20.6288
 21
531.471
  0
LINE
  8
0
 10
20.6288
 20
531.471
 11
20.5146
 21
531.714
  0
LINE
  8
0
 10
20.5146
 20
531.714
 11
20.4318
 21
531.969
  0
LINE
  8
0
 10
20.4318
 20
531.969
 11
20.3815
 21
532.232
  0
LINE
  8
0
 10
20.3815
 20
532.232
 11
20.3647
 21
532.5
  0
LINE
  8
0
 10
20.3647
 20
532.5
 11
20.3815
 21
532.768
  0
LINE
  8
0
 10
20.3815
 20
532.768
 11
20.4318
 21
533.031
  0
LINE
  8
0
 10
20.4318
 20
533.031
 11
20.5146
 21
533.286
  0
LINE
  8
0
 10
20.5146
 20
533.286
 11
20.6288
 21
533.529
  0
LINE
  8
0
 10
20.6288
 20
533.529
 11
20.7725
 21
533.755
  0
LINE
  8
0
 10
20.7725
 20
533.755
 11
20.9434
 21
533.962
  0
LINE
  8
0
 10
20.9434
 20
533.962
 11
21.1389
 21
534.145
  0
LINE
  8
0
 10
21.1389
 20
534.145
 11
21.3559
 21
534.303
  0
LINE
  8
0
 10
21.3559
 20
534.303
 11
21.5908
 21
534.432
  0
LINE
  8
0
 10
21.5908
 20
534.432
 11
21.8401
 21
534.531
  0
LINE
  8
0
 10
21.8401
 20
534.531
 11
22.0999
 21
534.597
  0
LINE
  8
0
 10
22.0999
 20
534.597
 11
22.3659
 21
534.631
  0
LINE
  8
0
 10
22.3659
 20
534.631
 11
22.6341
 21
534.631
  0
LINE
  8
0
 10
22.6341
 20
534.631
 11
22.9001
 21
534.597
  0
LINE
  8
0
 10
22.9001
 20
534.597
 11
23.1598
 21
534.531
  0
LINE
  8
0
 10
23.1598
 20
534.531
 11
23.4091
 21
534.432
  0
LINE
  8
0
 10
23.4091
 20
534.432
 11
23.6441
 21
534.303
  0
LINE
  8
0
 10
23.6441
 20
534.303
 11
23.8611
 21
534.145
  0
LINE
  8
0
 10
23.8611
 20
534.145
 11
24.0565
 21
533.962
  0
LINE
  8
0
 10
24.0565
 20
533.962
 11
24.2275
 21
533.755
  0
LINE
  8
0
 10
24.2275
 20
533.755
 11
24.3712
 21
533.529
  0
LINE
  8
0
 10
24.3712
 20
533.529
 11
24.4853
 21
533.286
  0
LINE
  8
0
 10
24.4853
 20
533.286
 11
24.5682
 21
533.031
  0
LINE
  8
0
 10
24.5682
 20
533.031
 11
24.6185
 21
532.768
  0
LINE
  8
0
 10
24.6185
 20
532.768
 11
24.6353
 21
532.5
  0
LINE
  8
0
 10
24.6353
 20
532.5
 11
24.6185
 21
532.232
  0
LINE
  8
0
 10
24.6185
 20
532.232
 11
24.5682
 21
531.969
  0
LINE
  8
0
 10
24.5682
 20
531.969
 11
24.4853
 21
531.714
  0
LINE
  8
0
 10
24.4853
 20
531.714
 11
24.3712
 21
531.471
  0
LINE
  8
0
 10
24.3712
 20
531.471
 11
24.2275
 21
531.245
  0
LINE
  8
0
 10
24.2275
 20
531.245
 11
24.0565
 21
531.038
  0
LINE
  8
0
 10
24.0565
 20
531.038
 11
23.8611
 21
530.855
  0
LINE
  8
0
 10
23.8611
 20
530.855
 11
23.6441
 21
530.697
  0
LINE
  8
0
 10
23.6441
 20
530.697
 11
23.4091
 21
530.568
  0
LINE
  8
0
 10
23.4091
 20
530.568
 11
23.1598
 21
530.469
  0
LINE
  8
0
 10
23.1598
 20
530.469
 11
22.9001
 21
530.403
  0
LINE
  8
0
 10
22.9001
 20
530.403
 11
22.6341
 21
530.369
  0
LINE
  8
0
 10
22.6341
 20
530.369
 11
22.3659
 21
530.369
  0
LINE
  8
0
 10
-22.6341
 20
530.369
 11
-22.9001
 21
530.403
  0
LINE
  8
0
 10
-22.9001
 20
530.403
 11
-23.1598
 21
530.469
  0
LINE
  8
0
 10
-23.1598
 20
530.469
 11
-23.4091
 21
530.568
  0
LINE
  8
0
 10
-23.4091
 20
530.568
 11
-23.6441
 21
530.697
  0
LINE
  8
0
 10
-23.6441
 20
530.697
 11
-23.8611
 21
530.855
  0
LINE
  8
0
 10
-23.8611
 20
530.855
 11
-24.0565
 21
531.038
  0
LINE
  8
0
 10
-24.0565
 20
531.038
 11
-24.2275
 21
531.245
  0
LINE
  8
0
 10
-24.2275
 20
531.245
 11
-24.3712
 21
531.471
  0
LINE
  8
0
 10
-24.3712
 20
531.471
 11
-24.4853
 21
531.714
  0
LINE
  8
0
 10
-24.4853
 20
531.714
 11
-24.5682
 21
531.969
  0
LINE
  8
0
 10
-24.5682
 20
531.969
 11
-24.6185
 21
532.232
  0
LINE
  8
0
 10
-24.6185
 20
532.232
 11
-24.6353
 21
532.5
  0
LINE
  8
0
 10
-24.6353
 20
532.5
 11
-24.6185
 21
532.768
  0
LINE
  8
0
 10
-24.6185
 20
532.768
 11
-24.5682
 21
533.031
  0
LINE
  8
0
 10
-24.5682
 20
533.031
 11
-24.4853
 21
533.286
  0
LINE
  8
0
 10
-24.4853
 20
533.286
 11
-24.3712
 21
533.529
  0
LINE
  8
0
 10
-24.3712
 20
533.529
 11
-24.2275
 21
533.755
  0
LINE
  8
0
 10
-24.2275
 20
533.755
 11
-24.0565
 21
533.962
  0
LINE
  8
0
 10
-24.0565
 20
533.962
 11
-23.8611
 21
534.145
  0
LINE
  8
0
 10
-23.8611
 20
534.145
 11
-23.6441
 21
534.303
  0
LINE
  8
0
 10
-23.6441
 20
534.303
 11
-23.4091
 21
534.432
  0
LINE
  8
0
 10
-23.4091
 20
534.432
 11
-23.1598
 21
534.531
  0
LINE
  8
0
 10
-23.1598
 20
534.531
 11
-22.9001
 21
534.597
  0
LINE
  8
0
 10
-22.9001
 20
534.597
 11
-22.6341
 21
534.631
  0
LINE
  8
0
 10
-22.6341
 20
534.631
 11
-22.3659
 21
534.631
  0
LINE
  8
0
 10
-22.3659
 20
534.631
 11
-22.0999
 21
534.597
  0
LINE
  8
0
 10
-22.0999
 20
534.597
 11
-21.8401
 21
534.531
  0
LINE
  8
0
 10
-21.8401
 20
534.531
 11
-21.5908
 21
534.432
  0
LINE
  8
0
 10
-21.5908
 20
534.432
 11
-21.3559
 21
534.303
  0
LINE
  8
0
 10
-21.3559
 20
534.303
 11
-21.1389
 21
534.145
  0
LINE
  8
0
 10
-21.1389
 20
534.145
 11
-20.9434
 21
533.962
  0
LINE
  8
0
 10
-20.9434
 20
533.962
 11
-20.7725
 21
533.755
  0
LINE
  8
0
 10
-20.7725
 20
533.755
 11
-20.6288
 21
533.529
  0
LINE
  8
0
 10
-20.6288
 20
533.529
 11
-20.5146
 21
533.286
  0
LINE
  8
0
 10
-20.5146
 20
533.286
 11
-20.4318
 21
533.031
  0
LINE
  8
0
 10
-20.4318
 20
533.031
 11
-20.3815
 21
532.768
  0
LINE
  8
0
 10
-20.3815
 20
532.768
 11
-20.3647
 21
532.5
  0
LINE
  8
0
 10
-20.3647
 20
532.5
 11
-20.3815
 21
532.232
  0
LINE
  8
0
 10
-20.3815
 20
532.232
 11
-20.4318
 21
531.969
  0
LINE
  8
0
 10
-20.4318
 20
531.969
 11
-20.5146
 21
531.714
  0
LINE
  8
0
 10
-20.5146
 20
531.714
 11
-20.6288
 21
531.471
  0
LINE
  8
0
 10
-20.6288
 20
531.471
 11
-20.7725
 21
531.245
  0
LINE
  8
0
 10
-20.7725
 20
531.245
 11
-20.9434
 21
531.038
  0
LINE
  8
0
 10
-20.9434
 20
531.038
 11
-21.1389
 21
530.855
  0
LINE
  8
0
 10
-21.1389
 20
530.855
 11
-21.3559
 21
530.697
  0
LINE
  8
0
 10
-21.3559
 20
530.697
 11
-21.5908
 21
530.568
  0
LINE
  8
0
 10
-21.5908
 20
530.568
 11
-21.8401
 21
530.469
  0
LINE
  8
0
 10
-21.8401
 20
530.469
 11
-22.0999
 21
530.403
  0
LINE
  8
0
 10
-22.0999
 20
530.403
 11
-22.3659
 21
530.369
  0
LINE
  8
0
 10
-22.3659
 20
530.369
 11
-22.6341
 21
530.369
  0
LINE
  8
0
 10
22.3659
 20
455.369
 11
22.0999
 21
455.403
  0
LINE
  8
0
 10
22.0999
 20
455.403
 11
21.8401
 21
455.469
  0
LINE
  8
0
 10
21.8401
 20
455.469
 11
21.5908
 21
455.568
  0
LINE
  8
0
 10
21.5908
 20
455.568
 11
21.3559
 21
455.697
  0
LINE
  8
0
 10
21.3559
 20
455.697
 11
21.1389
 21
455.855
  0
LINE
  8
0
 10
21.1389
 20
455.855
 11
20.9434
 21
456.038
  0
LINE
  8
0
 10
20.9434
 20
456.038
 11
20.7725
 21
456.245
  0
LINE
  8
0
 10
20.7725
 20
456.245
 11
20.6288
 21
456.471
  0
LINE
  8
0
 10
20.6288
 20
456.471
 11
20.5146
 21
456.714
  0
LINE
  8
0
 10
20.5146
 20
456.714
 11
20.4318
 21
456.969
  0
LINE
  8
0
 10
20.4318
 20
456.969
 11
20.3815
 21
457.232
  0
LINE
  8
0
 10
20.3815
 20
457.232
 11
20.3647
 21
457.5
  0
LINE
  8
0
 10
20.3647
 20
457.5
 11
20.3815
 21
457.768
  0
LINE
  8
0
 10
20.3815
 20
457.768
 11
20.4318
 21
458.031
  0
LINE
  8
0
 10
20.4318
 20
458.031
 11
20.5146
 21
458.286
  0
LINE
  8
0
 10
20.5146
 20
458.286
 11
20.6288
 21
458.529
  0
LINE
  8
0
 10
20.6288
 20
458.529
 11
20.7725
 21
458.755
  0
LINE
  8
0
 10
20.7725
 20
458.755
 11
20.9434
 21
458.962
  0
LINE
  8
0
 10
20.9434
 20
458.962
 11
21.1389
 21
459.145
  0
LINE
  8
0
 10
21.1389
 20
459.145
 11
21.3559
 21
459.303
  0
LINE
  8
0
 10
21.3559
 20
459.303
 11
21.5908
 21
459.432
  0
LINE
  8
0
 10
21.5908
 20
459.432
 11
21.8401
 21
459.531
  0
LINE
  8
0
 10
21.8401
 20
459.531
 11
22.0999
 21
459.597
  0
LINE
  8
0
 10
22.0999
 20
459.597
 11
22.3659
 21
459.631
  0
LINE
  8
0
 10
22.3659
 20
459.631
 11
22.6341
 21
459.631
  0
LINE
  8
0
 10
22.6341
 20
459.631
 11
22.9001
 21
459.597
  0
LINE
  8
0
 10
22.9001
 20
459.597
 11
23.1598
 21
459.531
  0
LINE
  8
0
 10
23.1598
 20
459.531
 11
23.4091
 21
459.432
  0
LINE
  8
0
 10
23.4091
 20
459.432
 11
23.6441
 21
459.303
  0
LINE
  8
0
 10
23.6441
 20
459.303
 11
23.8611
 21
459.145
  0
LINE
  8
0
 10
23.8611
 20
459.145
 11
24.0565
 21
458.962
  0
LINE
  8
0
 10
24.0565
 20
458.962
 11
24.2275
 21
458.755
  0
LINE
  8
0
 10
24.2275
 20
458.755
 11
24.3712
 21
458.529
  0
LINE
  8
0
 10
24.3712
 20
458.529
 11
24.4853
 21
458.286
  0
LINE
  8
0
 10
24.4853
 20
458.286
 11
24.5682
 21
458.031
  0
LINE
  8
0
 10
24.5682
 20
458.031
 11
24.6185
 21
457.768
  0
LINE
  8
0
 10
24.6185
 20
457.768
 11
24.6353
 21
457.5
  0
LINE
  8
0
 10
24.6353
 20
457.5
 11
24.6185
 21
457.232
  0
LINE
  8
0
 10
24.6185
 20
457.232
 11
24.5682
 21
456.969
  0
LINE
  8
0
 10
24.5682
 20
456.969
 11
24.4853
 21
456.714
  0
LINE
  8
0
 10
24.4853
 20
456.714
 11
24.3712
 21
456.471
  0
LINE
  8
0
 10
24.3712
 20
456.471
 11
24.2275
 21
456.245
  0
LINE
  8
0
 10
24.2275
 20
456.245
 11
24.0565
 21
456.038
  0
LINE
  8
0
 10
24.0565
 20
456.038
 11
23.8611
 21
455.855
  0
LINE
  8
0
 10
23.8611
 20
455.855
 11
23.6441
 21
455.697
  0
LINE
  8
0
 10
23.6441
 20
455.697
 11
23.4091
 21
455.568
  0
LINE
  8
0
 10
23.4091
 20
455.568
 11
23.1598
 21
455.469
  0
LINE
  8
0
 10
23.1598
 20
455.469
 11
22.9001
 21
455.403
  0
LINE
  8
0
 10
22.9001
 20
455.403
 11
22.6341
 21
455.369
  0
LINE
  8
0
 10
22.6341
 20
455.369
 11
22.3659
 21
455.369
  0
LINE
  8
0
 10
-22.6341
 20
455.369
 11
-22.9001
 21
455.403
  0
LINE
  8
0
 10
-22.9001
 20
455.403
 11
-23.1598
 21
455.469
  0
LINE
  8
0
 10
-23.1598
 20
455.469
 11
-23.4091
 21
455.568
  0
LINE
  8
0
 10
-23.4091
 20
455.568
 11
-23.6441
 21
455.697
  0
LINE
  8
0
 10
-23.6441
 20
455.697
 11
-23.8611
 21
455.855
  0
LINE
  8
0
 10
-23.8611
 20
455.855
 11
-24.0565
 21
456.038
  0
LINE
  8
0
 10
-24.0565
 20
456.038
 11
-24.2275
 21
456.245
  0
LINE
  8
0
 10
-24.2275
 20
456.245
 11
-24.3712
 21
456.471
  0
LINE
  8
0
 10
-24.3712
 20
456.471
 11
-24.4853
 21
456.714
  0
LINE
  8
0
 10
-24.4853
 20
456.714
 11
-24.5682
 21
456.969
  0
LINE
  8
0
 10
-24.5682
 20
456.969
 11
-24.6185
 21
457.232
  0
LINE
  8
0
 10
-24.6185
 20
457.232
 11
-24.6353
 21
457.5
  0
LINE
  8
0
 10
-24.6353
 20
457.5
 11
-24.6185
 21
457.768
  0
LINE
  8
0
 10
-24.6185
 20
457.768
 11
-24.5682
 21
458.031
  0
LINE
  8
0
 10
-24.5682
 20
458.031
 11
-24.4853
 21
458.286
  0
LINE
  8
0
 10
-24.4853
 20
458.286
 11
-24.3712
 21
458.529
  0
LINE
  8
0
 10
-24.3712
 20
458.529
 11
-24.2275
 21
458.755
  0
LINE
  8
0
 10
-24.2275
 20
458.755
 11
-24.0565
 21
458.962
  0
LINE
  8
0
 10
-24.0565
 20
458.962
 11
-23.8611
 21
459.145
  0
LINE
  8
0
 10
-23.8611
 20
459.145
 11
-23.6441
 21
459.303
  0
LINE
  8
0
 10
-23.6441
 20
459.303
 11
-23.4091
 21
459.432
  0
LINE
  8
0
 10
-23.4091
 20
459.432
 11
-23.1598
 21
459.531
  0
LINE
  8
0
 10
-23.1598
 20
459.531
 11
-22.9001
 21
459.597
  0
LINE
  8
0
 10
-22.9001
 20
459.597
 11
-22.6341
 21
459.631
  0
LINE
  8
0
 10
-22.6341
 20
459.631
 11
-22.3659
 21
459.631
  0
LINE
  8
0
 10
-22.3659
 20
459.631
 11
-22.0999
 21
459.597
  0
LINE
  8
0
 10
-22.0999
 20
459.597
 11
-21.8401
 21
459.531
  0
LINE
  8
0
 10
-21.8401
 20
459.531
 11
-21.5908
 21
459.432
  0
LINE
  8
0
 10
-21.5908
 20
459.432
 11
-21.3559
 21
459.303
  0
LINE
  8
0
 10
-21.3559
 20
459.303
 11
-21.1389
 21
459.145
  0
LINE
  8
0
 10
-21.1389
 20
459.145
 11
-20.9434
 21
458.962
  0
LINE
  8
0
 10
-20.9434
 20
458.962
 11
-20.7725
 21
458.755
  0
LINE
  8
0
 10
-20.7725
 20
458.755
 11
-20.6288
 21
458.529
  0
LINE
  8
0
 10
-20.6288
 20
458.529
 11
-20.5146
 21
458.286
  0
LINE
  8
0
 10
-20.5146
 20
458.286
 11
-20.4318
 21
458.031
  0
LINE
  8
0
 10
-20.4318
 20
458.031
 11
-20.3815
 21
457.768
  0
LINE
  8
0
 10
-20.3815
 20
457.768
 11
-20.3647
 21
457.5
  0
LINE
  8
0
 10
-20.3647
 20
457.5
 11
-20.3815
 21
457.232
  0
LINE
  8
0
 10
-20.3815
 20
457.232
 11
-20.4318
 21
456.969
  0
LINE
  8
0
 10
-20.4318
 20
456.969
 11
-20.5146
 21
456.714
  0
LINE
  8
0
 10
-20.5146
 20
456.714
 11
-20.6288
 21
456.471
  0
LINE
  8
0
 10
-20.6288
 20
456.471
 11
-20.7725
 21
456.245
  0
LINE
  8
0
 10
-20.7725
 20
456.245
 11
-20.9434
 21
456.038
  0
LINE
  8
0
 10
-20.9434
 20
456.038
 11
-21.1389
 21
455.855
  0
LINE
  8
0
 10
-21.1389
 20
455.855
 11
-21.3559
 21
455.697
  0
LINE
  8
0
 10
-21.3559
 20
455.697
 11
-21.5908
 21
455.568
  0
LINE
  8
0
 10
-21.5908
 20
455.568
 11
-21.8401
 21
455.469
  0
LINE
  8
0
 10
-21.8401
 20
455.469
 11
-22.0999
 21
455.403
  0
LINE
  8
0
 10
-22.0999
 20
455.403
 11
-22.3659
 21
455.369
  0
LINE
  8
0
 10
-22.3659
 20
455.369
 11
-22.6341
 21
455.369
  0
ENDSEC
  0
SECTION
  2
OBJECTS
  0
DICTIONARY
  0
ENDSEC
  0
EOF
