  0
SECTION
  2
BLOCKS
  0
ENDSEC
  0
SECTION
  2
ENTITIES
  0
LINE
  8
0
 10
18.4369
 20
243.089
 11
19.0451
 21
243.245
  0
LINE
  8
0
 10
19.0451
 20
243.245
 11
19.6289
 21
243.476
  0
LINE
  8
0
 10
19.6289
 20
243.476
 11
20.1791
 21
243.778
  0
LINE
  8
0
 10
20.1791
 20
243.778
 11
20.6871
 21
244.147
  0
LINE
  8
0
 10
20.6871
 20
244.147
 11
21.1448
 21
244.577
  0
LINE
  8
0
 10
21.1448
 20
244.577
 11
21.5451
 21
245.061
  0
LINE
  8
0
 10
21.5451
 20
245.061
 11
21.8815
 21
245.591
  0
LINE
  8
0
 10
21.8815
 20
245.591
 11
22.1489
 21
246.159
  0
LINE
  8
0
 10
22.1489
 20
246.159
 11
22.3429
 21
246.757
  0
LINE
  8
0
 10
22.3429
 20
246.757
 11
22.4606
 21
247.373
  0
LINE
  8
0
 10
22.4606
 20
247.373
 11
22.5
 21
248
  0
LINE
  8
0
 10
22.5
 20
248
 11
22.5
 21
388
  0
LINE
  8
0
 10
22.5
 20
388
 11
22.4606
 21
388.627
  0
LINE
  8
0
 10
22.4606
 20
388.627
 11
22.3429
 21
389.243
  0
LINE
  8
0
 10
22.3429
 20
389.243
 11
22.1489
 21
389.841
  0
LINE
  8
0
 10
22.1489
 20
389.841
 11
21.8815
 21
390.409
  0
LINE
  8
0
 10
21.8815
 20
390.409
 11
21.5451
 21
390.939
  0
LINE
  8
0
 10
21.5451
 20
390.939
 11
21.1448
 21
391.423
  0
LINE
  8
0
 10
21.1448
 20
391.423
 11
20.6871
 21
391.853
  0
LINE
  8
0
 10
20.6871
 20
391.853
 11
20.1791
 21
392.222
  0
LINE
  8
0
 10
20.1791
 20
392.222
 11
19.6289
 21
392.524
  0
LINE
  8
0
 10
19.6289
 20
392.524
 11
19.0451
 21
392.755
  0
LINE
  8
0
 10
19.0451
 20
392.755
 11
18.4369
 21
392.911
  0
LINE
  8
0
 10
18.4369
 20
392.911
 11
17.8139
 21
392.99
  0
LINE
  8
0
 10
17.8139
 20
392.99
 11
-17.8139
 21
392.99
  0
LINE
  8
0
 10
-17.8139
 20
392.99
 11
-18.4369
 21
392.911
  0
LINE
  8
0
 10
-18.4369
 20
392.911
 11
-19.0451
 21
392.755
  0
LINE
  8
0
 10
-19.0451
 20
392.755
 11
-19.6289
 21
392.524
  0
LINE
  8
0
 10
-19.6289
 20
392.524
 11
-20.1791
 21
392.222
  0
LINE
  8
0
 10
-20.1791
 20
392.222
 11
-20.6871
 21
391.853
  0
LINE
  8
0
 10
-20.6871
 20
391.853
 11
-21.1448
 21
391.423
  0
LINE
  8
0
 10
-21.1448
 20
391.423
 11
-21.5451
 21
390.939
  0
LINE
  8
0
 10
-21.5451
 20
390.939
 11
-21.8815
 21
390.409
  0
LINE
  8
0
 10
-21.8815
 20
390.409
 11
-22.1489
 21
389.841
  0
LINE
  8
0
 10
-22.1489
 20
389.841
 11
-22.3429
 21
389.243
  0
LINE
  8
0
 10
-22.3429
 20
389.243
 11
-22.4606
 21
388.627
  0
LINE
  8
0
 10
-22.4606
 20
388.627
 11
-22.5
 21
388
  0
LINE
  8
0
 10
-22.5
 20
388
 11
-22.5
 21
248
  0
LINE
  8
0
 10
-22.5
 20
248
 11
-22.4606
 21
247.373
  0
LINE
  8
0
 10
-22.4606
 20
247.373
 11
-22.3429
 21
246.757
  0
LINE
  8
0
 10
-22.3429
 20
246.757
 11
-22.1489
 21
246.159
  0
LINE
  8
0
 10
-22.1489
 20
246.159
 11
-21.8815
 21
245.591
  0
LINE
  8
0
 10
-21.8815
 20
245.591
 11
-21.5451
 21
245.061
  0
LINE
  8
0
 10
-21.5451
 20
245.061
 11
-21.1448
 21
244.577
  0
LINE
  8
0
 10
-21.1448
 20
244.577
 11
-20.6871
 21
244.147
  0
LINE
  8
0
 10
-20.6871
 20
244.147
 11
-20.1791
 21
243.778
  0
LINE
  8
0
 10
-20.1791
 20
243.778
 11
-19.6289
 21
243.476
  0
LINE
  8
0
 10
-19.6289
 20
243.476
 11
-19.0451
 21
243.245
  0
LINE
  8
0
 10
-19.0451
 20
243.245
 11
-18.4369
 21
243.089
  0
LINE
  8
0
 10
-18.4369
 20
243.089
 11
-17.8139
 21
243.01
  0
LINE
  8
0
 10
-17.8139
 20
243.01
 11
17.8139
 21
243.01
  0
LINE
  8
0
 10
17.8139
 20
243.01
 11
18.4369
 21
243.089
  0
LINE
  8
0
 10
18.4369
 20
84.0886
 11
19.0451
 21
84.2447
  0
LINE
  8
0
 10
19.0451
 20
84.2447
 11
19.6289
 21
84.4759
  0
LINE
  8
0
 10
19.6289
 20
84.4759
 11
20.1791
 21
84.7784
  0
LINE
  8
0
 10
20.1791
 20
84.7784
 11
20.6871
 21
85.1474
  0
LINE
  8
0
 10
20.6871
 20
85.1474
 11
21.1448
 21
85.5773
  0
LINE
  8
0
 10
21.1448
 20
85.5773
 11
21.5451
 21
86.0611
  0
LINE
  8
0
 10
21.5451
 20
86.0611
 11
21.8815
 21
86.5912
  0
LINE
  8
0
 10
21.8815
 20
86.5912
 11
22.1489
 21
87.1594
  0
LINE
  8
0
 10
22.1489
 20
87.1594
 11
22.3429
 21
87.7566
  0
LINE
  8
0
 10
22.3429
 20
87.7566
 11
22.4606
 21
88.3733
  0
LINE
  8
0
 10
22.4606
 20
88.3733
 11
22.5
 21
89
  0
LINE
  8
0
 10
22.5
 20
89
 11
22.5
 21
229
  0
LINE
  8
0
 10
22.5
 20
229
 11
22.4606
 21
229.627
  0
LINE
  8
0
 10
22.4606
 20
229.627
 11
22.3429
 21
230.243
  0
LINE
  8
0
 10
22.3429
 20
230.243
 11
22.1489
 21
230.841
  0
LINE
  8
0
 10
22.1489
 20
230.841
 11
21.8815
 21
231.409
  0
LINE
  8
0
 10
21.8815
 20
231.409
 11
21.5451
 21
231.939
  0
LINE
  8
0
 10
21.5451
 20
231.939
 11
21.1448
 21
232.423
  0
LINE
  8
0
 10
21.1448
 20
232.423
 11
20.6871
 21
232.853
  0
LINE
  8
0
 10
20.6871
 20
232.853
 11
20.1791
 21
233.222
  0
LINE
  8
0
 10
20.1791
 20
233.222
 11
19.6289
 21
233.524
  0
LINE
  8
0
 10
19.6289
 20
233.524
 11
19.0451
 21
233.755
  0
LINE
  8
0
 10
19.0451
 20
233.755
 11
18.4369
 21
233.911
  0
LINE
  8
0
 10
18.4369
 20
233.911
 11
17.8139
 21
233.99
  0
LINE
  8
0
 10
17.8139
 20
233.99
 11
-17.8139
 21
233.99
  0
LINE
  8
0
 10
-17.8139
 20
233.99
 11
-18.4369
 21
233.911
  0
LINE
  8
0
 10
-18.4369
 20
233.911
 11
-19.0451
 21
233.755
  0
LINE
  8
0
 10
-19.0451
 20
233.755
 11
-19.6289
 21
233.524
  0
LINE
  8
0
 10
-19.6289
 20
233.524
 11
-20.1791
 21
233.222
  0
LINE
  8
0
 10
-20.1791
 20
233.222
 11
-20.6871
 21
232.853
  0
LINE
  8
0
 10
-20.6871
 20
232.853
 11
-21.1448
 21
232.423
  0
LINE
  8
0
 10
-21.1448
 20
232.423
 11
-21.5451
 21
231.939
  0
LINE
  8
0
 10
-21.5451
 20
231.939
 11
-21.8815
 21
231.409
  0
LINE
  8
0
 10
-21.8815
 20
231.409
 11
-22.1489
 21
230.841
  0
LINE
  8
0
 10
-22.1489
 20
230.841
 11
-22.3429
 21
230.243
  0
LINE
  8
0
 10
-22.3429
 20
230.243
 11
-22.4606
 21
229.627
  0
LINE
  8
0
 10
-22.4606
 20
229.627
 11
-22.5
 21
229
  0
LINE
  8
0
 10
-22.5
 20
229
 11
-22.5
 21
89
  0
LINE
  8
0
 10
-22.5
 20
89
 11
-22.4606
 21
88.3733
  0
LINE
  8
0
 10
-22.4606
 20
88.3733
 11
-22.3429
 21
87.7566
  0
LINE
  8
0
 10
-22.3429
 20
87.7566
 11
-22.1489
 21
87.1594
  0
LINE
  8
0
 10
-22.1489
 20
87.1594
 11
-21.8815
 21
86.5912
  0
LINE
  8
0
 10
-21.8815
 20
86.5912
 11
-21.5451
 21
86.0611
  0
LINE
  8
0
 10
-21.5451
 20
86.0611
 11
-21.1448
 21
85.5773
  0
LINE
  8
0
 10
-21.1448
 20
85.5773
 11
-20.6871
 21
85.1474
  0
LINE
  8
0
 10
-20.6871
 20
85.1474
 11
-20.1791
 21
84.7784
  0
LINE
  8
0
 10
-20.1791
 20
84.7784
 11
-19.6289
 21
84.4759
  0
LINE
  8
0
 10
-19.6289
 20
84.4759
 11
-19.0451
 21
84.2447
  0
LINE
  8
0
 10
-19.0451
 20
84.2447
 11
-18.4369
 21
84.0886
  0
LINE
  8
0
 10
-18.4369
 20
84.0886
 11
-17.8139
 21
84.0099
  0
LINE
  8
0
 10
-17.8139
 20
84.0099
 11
17.8139
 21
84.0099
  0
LINE
  8
0
 10
17.8139
 20
84.0099
 11
18.4369
 21
84.0886
  0
LINE
  8
0
 10
14.887
 20
224.704
 11
14.6627
 21
224.732
  0
LINE
  8
0
 10
14.6627
 20
224.732
 11
14.4438
 21
224.788
  0
LINE
  8
0
 10
14.4438
 20
224.788
 11
14.2336
 21
224.871
  0
LINE
  8
0
 10
14.2336
 20
224.871
 11
14.0355
 21
224.98
  0
LINE
  8
0
 10
14.0355
 20
224.98
 11
13.8526
 21
225.113
  0
LINE
  8
0
 10
13.8526
 20
225.113
 11
13.6879
 21
225.268
  0
LINE
  8
0
 10
13.6879
 20
225.268
 11
13.5438
 21
225.442
  0
LINE
  8
0
 10
13.5438
 20
225.442
 11
13.4226
 21
225.633
  0
LINE
  8
0
 10
13.4226
 20
225.633
 11
13.3264
 21
225.837
  0
LINE
  8
0
 10
13.3264
 20
225.837
 11
13.2565
 21
226.052
  0
LINE
  8
0
 10
13.2565
 20
226.052
 11
13.2142
 21
226.274
  0
LINE
  8
0
 10
13.2142
 20
226.274
 11
13.2
 21
226.5
  0
LINE
  8
0
 10
13.2
 20
226.5
 11
13.2142
 21
226.726
  0
LINE
  8
0
 10
13.2142
 20
226.726
 11
13.2565
 21
226.948
  0
LINE
  8
0
 10
13.2565
 20
226.948
 11
13.3264
 21
227.163
  0
LINE
  8
0
 10
13.3264
 20
227.163
 11
13.4226
 21
227.367
  0
LINE
  8
0
 10
13.4226
 20
227.367
 11
13.5438
 21
227.558
  0
LINE
  8
0
 10
13.5438
 20
227.558
 11
13.6879
 21
227.732
  0
LINE
  8
0
 10
13.6879
 20
227.732
 11
13.8526
 21
227.887
  0
LINE
  8
0
 10
13.8526
 20
227.887
 11
14.0355
 21
228.02
  0
LINE
  8
0
 10
14.0355
 20
228.02
 11
14.2336
 21
228.129
  0
LINE
  8
0
 10
14.2336
 20
228.129
 11
14.4438
 21
228.212
  0
LINE
  8
0
 10
14.4438
 20
228.212
 11
14.6627
 21
228.268
  0
LINE
  8
0
 10
14.6627
 20
228.268
 11
14.887
 21
228.296
  0
LINE
  8
0
 10
14.887
 20
228.296
 11
15.113
 21
228.296
  0
LINE
  8
0
 10
15.113
 20
228.296
 11
15.3373
 21
228.268
  0
LINE
  8
0
 10
15.3373
 20
228.268
 11
15.5562
 21
228.212
  0
LINE
  8
0
 10
15.5562
 20
228.212
 11
15.7664
 21
228.129
  0
LINE
  8
0
 10
15.7664
 20
228.129
 11
15.9645
 21
228.02
  0
LINE
  8
0
 10
15.9645
 20
228.02
 11
16.1474
 21
227.887
  0
LINE
  8
0
 10
16.1474
 20
227.887
 11
16.3121
 21
227.732
  0
LINE
  8
0
 10
16.3121
 20
227.732
 11
16.4562
 21
227.558
  0
LINE
  8
0
 10
16.4562
 20
227.558
 11
16.5773
 21
227.367
  0
LINE
  8
0
 10
16.5773
 20
227.367
 11
16.6736
 21
227.163
  0
LINE
  8
0
 10
16.6736
 20
227.163
 11
16.7434
 21
226.948
  0
LINE
  8
0
 10
16.7434
 20
226.948
 11
16.7858
 21
226.726
  0
LINE
  8
0
 10
16.7858
 20
226.726
 11
16.8
 21
226.5
  0
LINE
  8
0
 10
16.8
 20
226.5
 11
16.7858
 21
226.274
  0
LINE
  8
0
 10
16.7858
 20
226.274
 11
16.7434
 21
226.052
  0
LINE
  8
0
 10
16.7434
 20
226.052
 11
16.6736
 21
225.837
  0
LINE
  8
0
 10
16.6736
 20
225.837
 11
16.5773
 21
225.633
  0
LINE
  8
0
 10
16.5773
 20
225.633
 11
16.4562
 21
225.442
  0
LINE
  8
0
 10
16.4562
 20
225.442
 11
16.3121
 21
225.268
  0
LINE
  8
0
 10
16.3121
 20
225.268
 11
16.1474
 21
225.113
  0
LINE
  8
0
 10
16.1474
 20
225.113
 11
15.9645
 21
224.98
  0
LINE
  8
0
 10
15.9645
 20
224.98
 11
15.7664
 21
224.871
  0
LINE
  8
0
 10
15.7664
 20
224.871
 11
15.5562
 21
224.788
  0
LINE
  8
0
 10
15.5562
 20
224.788
 11
15.3373
 21
224.732
  0
LINE
  8
0
 10
15.3373
 20
224.732
 11
15.113
 21
224.704
  0
LINE
  8
0
 10
15.113
 20
224.704
 11
14.887
 21
224.704
  0
LINE
  8
0
 10
-15.113
 20
224.704
 11
-15.3373
 21
224.732
  0
LINE
  8
0
 10
-15.3373
 20
224.732
 11
-15.5562
 21
224.788
  0
LINE
  8
0
 10
-15.5562
 20
224.788
 11
-15.7664
 21
224.871
  0
LINE
  8
0
 10
-15.7664
 20
224.871
 11
-15.9645
 21
224.98
  0
LINE
  8
0
 10
-15.9645
 20
224.98
 11
-16.1474
 21
225.113
  0
LINE
  8
0
 10
-16.1474
 20
225.113
 11
-16.3121
 21
225.268
  0
LINE
  8
0
 10
-16.3121
 20
225.268
 11
-16.4562
 21
225.442
  0
LINE
  8
0
 10
-16.4562
 20
225.442
 11
-16.5773
 21
225.633
  0
LINE
  8
0
 10
-16.5773
 20
225.633
 11
-16.6736
 21
225.837
  0
LINE
  8
0
 10
-16.6736
 20
225.837
 11
-16.7434
 21
226.052
  0
LINE
  8
0
 10
-16.7434
 20
226.052
 11
-16.7858
 21
226.274
  0
LINE
  8
0
 10
-16.7858
 20
226.274
 11
-16.8
 21
226.5
  0
LINE
  8
0
 10
-16.8
 20
226.5
 11
-16.7858
 21
226.726
  0
LINE
  8
0
 10
-16.7858
 20
226.726
 11
-16.7434
 21
226.948
  0
LINE
  8
0
 10
-16.7434
 20
226.948
 11
-16.6736
 21
227.163
  0
LINE
  8
0
 10
-16.6736
 20
227.163
 11
-16.5773
 21
227.367
  0
LINE
  8
0
 10
-16.5773
 20
227.367
 11
-16.4562
 21
227.558
  0
LINE
  8
0
 10
-16.4562
 20
227.558
 11
-16.3121
 21
227.732
  0
LINE
  8
0
 10
-16.3121
 20
227.732
 11
-16.1474
 21
227.887
  0
LINE
  8
0
 10
-16.1474
 20
227.887
 11
-15.9645
 21
228.02
  0
LINE
  8
0
 10
-15.9645
 20
228.02
 11
-15.7664
 21
228.129
  0
LINE
  8
0
 10
-15.7664
 20
228.129
 11
-15.5562
 21
228.212
  0
LINE
  8
0
 10
-15.5562
 20
228.212
 11
-15.3373
 21
228.268
  0
LINE
  8
0
 10
-15.3373
 20
228.268
 11
-15.113
 21
228.296
  0
LINE
  8
0
 10
-15.113
 20
228.296
 11
-14.887
 21
228.296
  0
LINE
  8
0
 10
-14.887
 20
228.296
 11
-14.6627
 21
228.268
  0
LINE
  8
0
 10
-14.6627
 20
228.268
 11
-14.4438
 21
228.212
  0
LINE
  8
0
 10
-14.4438
 20
228.212
 11
-14.2336
 21
228.129
  0
LINE
  8
0
 10
-14.2336
 20
228.129
 11
-14.0355
 21
228.02
  0
LINE
  8
0
 10
-14.0355
 20
228.02
 11
-13.8526
 21
227.887
  0
LINE
  8
0
 10
-13.8526
 20
227.887
 11
-13.6879
 21
227.732
  0
LINE
  8
0
 10
-13.6879
 20
227.732
 11
-13.5438
 21
227.558
  0
LINE
  8
0
 10
-13.5438
 20
227.558
 11
-13.4226
 21
227.367
  0
LINE
  8
0
 10
-13.4226
 20
227.367
 11
-13.3264
 21
227.163
  0
LINE
  8
0
 10
-13.3264
 20
227.163
 11
-13.2565
 21
226.948
  0
LINE
  8
0
 10
-13.2565
 20
226.948
 11
-13.2142
 21
226.726
  0
LINE
  8
0
 10
-13.2142
 20
226.726
 11
-13.2
 21
226.5
  0
LINE
  8
0
 10
-13.2
 20
226.5
 11
-13.2142
 21
226.274
  0
LINE
  8
0
 10
-13.2142
 20
226.274
 11
-13.2565
 21
226.052
  0
LINE
  8
0
 10
-13.2565
 20
226.052
 11
-13.3264
 21
225.837
  0
LINE
  8
0
 10
-13.3264
 20
225.837
 11
-13.4226
 21
225.633
  0
LINE
  8
0
 10
-13.4226
 20
225.633
 11
-13.5438
 21
225.442
  0
LINE
  8
0
 10
-13.5438
 20
225.442
 11
-13.6879
 21
225.268
  0
LINE
  8
0
 10
-13.6879
 20
225.268
 11
-13.8526
 21
225.113
  0
LINE
  8
0
 10
-13.8526
 20
225.113
 11
-14.0355
 21
224.98
  0
LINE
  8
0
 10
-14.0355
 20
224.98
 11
-14.2336
 21
224.871
  0
LINE
  8
0
 10
-14.2336
 20
224.871
 11
-14.4438
 21
224.788
  0
LINE
  8
0
 10
-14.4438
 20
224.788
 11
-14.6627
 21
224.732
  0
LINE
  8
0
 10
-14.6627
 20
224.732
 11
-14.887
 21
224.704
  0
LINE
  8
0
 10
-14.887
 20
224.704
 11
-15.113
 21
224.704
  0
LINE
  8
0
 10
-15.113
 20
89.7036
 11
-15.3373
 21
89.7319
  0
LINE
  8
0
 10
-15.3373
 20
89.7319
 11
-15.5562
 21
89.7881
  0
LINE
  8
0
 10
-15.5562
 20
89.7881
 11
-15.7664
 21
89.8713
  0
LINE
  8
0
 10
-15.7664
 20
89.8713
 11
-15.9645
 21
89.9802
  0
LINE
  8
0
 10
-15.9645
 20
89.9802
 11
-16.1474
 21
90.1131
  0
LINE
  8
0
 10
-16.1474
 20
90.1131
 11
-16.3121
 21
90.2678
  0
LINE
  8
0
 10
-16.3121
 20
90.2678
 11
-16.4562
 21
90.442
  0
LINE
  8
0
 10
-16.4562
 20
90.442
 11
-16.5773
 21
90.6328
  0
LINE
  8
0
 10
-16.5773
 20
90.6328
 11
-16.6736
 21
90.8374
  0
LINE
  8
0
 10
-16.6736
 20
90.8374
 11
-16.7434
 21
91.0524
  0
LINE
  8
0
 10
-16.7434
 20
91.0524
 11
-16.7858
 21
91.2744
  0
LINE
  8
0
 10
-16.7858
 20
91.2744
 11
-16.8
 21
91.5
  0
LINE
  8
0
 10
-16.8
 20
91.5
 11
-16.7858
 21
91.7256
  0
LINE
  8
0
 10
-16.7858
 20
91.7256
 11
-16.7434
 21
91.9476
  0
LINE
  8
0
 10
-16.7434
 20
91.9476
 11
-16.6736
 21
92.1626
  0
LINE
  8
0
 10
-16.6736
 20
92.1626
 11
-16.5773
 21
92.3672
  0
LINE
  8
0
 10
-16.5773
 20
92.3672
 11
-16.4562
 21
92.558
  0
LINE
  8
0
 10
-16.4562
 20
92.558
 11
-16.3121
 21
92.7322
  0
LINE
  8
0
 10
-16.3121
 20
92.7322
 11
-16.1474
 21
92.8869
  0
LINE
  8
0
 10
-16.1474
 20
92.8869
 11
-15.9645
 21
93.0198
  0
LINE
  8
0
 10
-15.9645
 20
93.0198
 11
-15.7664
 21
93.1287
  0
LINE
  8
0
 10
-15.7664
 20
93.1287
 11
-15.5562
 21
93.2119
  0
LINE
  8
0
 10
-15.5562
 20
93.2119
 11
-15.3373
 21
93.2681
  0
LINE
  8
0
 10
-15.3373
 20
93.2681
 11
-15.113
 21
93.2964
  0
LINE
  8
0
 10
-15.113
 20
93.2964
 11
-14.887
 21
93.2964
  0
LINE
  8
0
 10
-14.887
 20
93.2964
 11
-14.6627
 21
93.2681
  0
LINE
  8
0
 10
-14.6627
 20
93.2681
 11
-14.4438
 21
93.2119
  0
LINE
  8
0
 10
-14.4438
 20
93.2119
 11
-14.2336
 21
93.1287
  0
LINE
  8
0
 10
-14.2336
 20
93.1287
 11
-14.0355
 21
93.0198
  0
LINE
  8
0
 10
-14.0355
 20
93.0198
 11
-13.8526
 21
92.8869
  0
LINE
  8
0
 10
-13.8526
 20
92.8869
 11
-13.6879
 21
92.7322
  0
LINE
  8
0
 10
-13.6879
 20
92.7322
 11
-13.5438
 21
92.558
  0
LINE
  8
0
 10
-13.5438
 20
92.558
 11
-13.4226
 21
92.3672
  0
LINE
  8
0
 10
-13.4226
 20
92.3672
 11
-13.3264
 21
92.1626
  0
LINE
  8
0
 10
-13.3264
 20
92.1626
 11
-13.2565
 21
91.9476
  0
LINE
  8
0
 10
-13.2565
 20
91.9476
 11
-13.2142
 21
91.7256
  0
LINE
  8
0
 10
-13.2142
 20
91.7256
 11
-13.2
 21
91.5
  0
LINE
  8
0
 10
-13.2
 20
91.5
 11
-13.2142
 21
91.2744
  0
LINE
  8
0
 10
-13.2142
 20
91.2744
 11
-13.2565
 21
91.0524
  0
LINE
  8
0
 10
-13.2565
 20
91.0524
 11
-13.3264
 21
90.8374
  0
LINE
  8
0
 10
-13.3264
 20
90.8374
 11
-13.4226
 21
90.6328
  0
LINE
  8
0
 10
-13.4226
 20
90.6328
 11
-13.5438
 21
90.442
  0
LINE
  8
0
 10
-13.5438
 20
90.442
 11
-13.6879
 21
90.2678
  0
LINE
  8
0
 10
-13.6879
 20
90.2678
 11
-13.8526
 21
90.1131
  0
LINE
  8
0
 10
-13.8526
 20
90.1131
 11
-14.0355
 21
89.9802
  0
LINE
  8
0
 10
-14.0355
 20
89.9802
 11
-14.2336
 21
89.8713
  0
LINE
  8
0
 10
-14.2336
 20
89.8713
 11
-14.4438
 21
89.7881
  0
LINE
  8
0
 10
-14.4438
 20
89.7881
 11
-14.6627
 21
89.7319
  0
LINE
  8
0
 10
-14.6627
 20
89.7319
 11
-14.887
 21
89.7036
  0
LINE
  8
0
 10
-14.887
 20
89.7036
 11
-15.113
 21
89.7036
  0
LINE
  8
0
 10
14.887
 20
89.7036
 11
14.6627
 21
89.7319
  0
LINE
  8
0
 10
14.6627
 20
89.7319
 11
14.4438
 21
89.7881
  0
LINE
  8
0
 10
14.4438
 20
89.7881
 11
14.2336
 21
89.8713
  0
LINE
  8
0
 10
14.2336
 20
89.8713
 11
14.0355
 21
89.9802
  0
LINE
  8
0
 10
14.0355
 20
89.9802
 11
13.8526
 21
90.1131
  0
LINE
  8
0
 10
13.8526
 20
90.1131
 11
13.6879
 21
90.2678
  0
LINE
  8
0
 10
13.6879
 20
90.2678
 11
13.5438
 21
90.442
  0
LINE
  8
0
 10
13.5438
 20
90.442
 11
13.4226
 21
90.6328
  0
LINE
  8
0
 10
13.4226
 20
90.6328
 11
13.3264
 21
90.8374
  0
LINE
  8
0
 10
13.3264
 20
90.8374
 11
13.2565
 21
91.0524
  0
LINE
  8
0
 10
13.2565
 20
91.0524
 11
13.2142
 21
91.2744
  0
LINE
  8
0
 10
13.2142
 20
91.2744
 11
13.2
 21
91.5
  0
LINE
  8
0
 10
13.2
 20
91.5
 11
13.2142
 21
91.7256
  0
LINE
  8
0
 10
13.2142
 20
91.7256
 11
13.2565
 21
91.9476
  0
LINE
  8
0
 10
13.2565
 20
91.9476
 11
13.3264
 21
92.1626
  0
LINE
  8
0
 10
13.3264
 20
92.1626
 11
13.4226
 21
92.3672
  0
LINE
  8
0
 10
13.4226
 20
92.3672
 11
13.5438
 21
92.558
  0
LINE
  8
0
 10
13.5438
 20
92.558
 11
13.6879
 21
92.7322
  0
LINE
  8
0
 10
13.6879
 20
92.7322
 11
13.8526
 21
92.8869
  0
LINE
  8
0
 10
13.8526
 20
92.8869
 11
14.0355
 21
93.0198
  0
LINE
  8
0
 10
14.0355
 20
93.0198
 11
14.2336
 21
93.1287
  0
LINE
  8
0
 10
14.2336
 20
93.1287
 11
14.4438
 21
93.2119
  0
LINE
  8
0
 10
14.4438
 20
93.2119
 11
14.6627
 21
93.2681
  0
LINE
  8
0
 10
14.6627
 20
93.2681
 11
14.887
 21
93.2964
  0
LINE
  8
0
 10
14.887
 20
93.2964
 11
15.113
 21
93.2964
  0
LINE
  8
0
 10
15.113
 20
93.2964
 11
15.3373
 21
93.2681
  0
LINE
  8
0
 10
15.3373
 20
93.2681
 11
15.5562
 21
93.2119
  0
LINE
  8
0
 10
15.5562
 20
93.2119
 11
15.7664
 21
93.1287
  0
LINE
  8
0
 10
15.7664
 20
93.1287
 11
15.9645
 21
93.0198
  0
LINE
  8
0
 10
15.9645
 20
93.0198
 11
16.1474
 21
92.8869
  0
LINE
  8
0
 10
16.1474
 20
92.8869
 11
16.3121
 21
92.7322
  0
LINE
  8
0
 10
16.3121
 20
92.7322
 11
16.4562
 21
92.558
  0
LINE
  8
0
 10
16.4562
 20
92.558
 11
16.5773
 21
92.3672
  0
LINE
  8
0
 10
16.5773
 20
92.3672
 11
16.6736
 21
92.1626
  0
LINE
  8
0
 10
16.6736
 20
92.1626
 11
16.7434
 21
91.9476
  0
LINE
  8
0
 10
16.7434
 20
91.9476
 11
16.7858
 21
91.7256
  0
LINE
  8
0
 10
16.7858
 20
91.7256
 11
16.8
 21
91.5
  0
LINE
  8
0
 10
16.8
 20
91.5
 11
16.7858
 21
91.2744
  0
LINE
  8
0
 10
16.7858
 20
91.2744
 11
16.7434
 21
91.0524
  0
LINE
  8
0
 10
16.7434
 20
91.0524
 11
16.6736
 21
90.8374
  0
LINE
  8
0
 10
16.6736
 20
90.8374
 11
16.5773
 21
90.6328
  0
LINE
  8
0
 10
16.5773
 20
90.6328
 11
16.4562
 21
90.442
  0
LINE
  8
0
 10
16.4562
 20
90.442
 11
16.3121
 21
90.2678
  0
LINE
  8
0
 10
16.3121
 20
90.2678
 11
16.1474
 21
90.1131
  0
LINE
  8
0
 10
16.1474
 20
90.1131
 11
15.9645
 21
89.9802
  0
LINE
  8
0
 10
15.9645
 20
89.9802
 11
15.7664
 21
89.8713
  0
LINE
  8
0
 10
15.7664
 20
89.8713
 11
15.5562
 21
89.7881
  0
LINE
  8
0
 10
15.5562
 20
89.7881
 11
15.3373
 21
89.7319
  0
LINE
  8
0
 10
15.3373
 20
89.7319
 11
15.113
 21
89.7036
  0
LINE
  8
0
 10
15.113
 20
89.7036
 11
14.887
 21
89.7036
  0
ENDSEC
  0
SECTION
  2
OBJECTS
  0
DICTIONARY
  0
ENDSEC
  0
EOF
