  0
SECTION
  2
BLOCKS
  0
ENDSEC
  0
SECTION
  2
ENTITIES
  0
LINE
  8
0
 10
3.4369
 20
456.089
 11
4.04507
 21
456.245
  0
LINE
  8
0
 10
4.04507
 20
456.245
 11
4.62889
 21
456.476
  0
LINE
  8
0
 10
4.62889
 20
456.476
 11
5.17912
 21
456.778
  0
LINE
  8
0
 10
5.17912
 20
456.778
 11
5.68712
 21
457.147
  0
LINE
  8
0
 10
5.68712
 20
457.147
 11
6.14484
 21
457.577
  0
LINE
  8
0
 10
6.14484
 20
457.577
 11
6.54507
 21
458.061
  0
LINE
  8
0
 10
6.54507
 20
458.061
 11
6.88153
 21
458.591
  0
LINE
  8
0
 10
6.88153
 20
458.591
 11
7.14888
 21
459.159
  0
LINE
  8
0
 10
7.14888
 20
459.159
 11
7.34291
 21
459.757
  0
LINE
  8
0
 10
7.34291
 20
459.757
 11
7.46057
 21
460.373
  0
LINE
  8
0
 10
7.46057
 20
460.373
 11
7.5
 21
461
  0
LINE
  8
0
 10
7.5
 20
461
 11
7.5
 21
571
  0
LINE
  8
0
 10
7.5
 20
571
 11
7.46057
 21
571.627
  0
LINE
  8
0
 10
7.46057
 20
571.627
 11
7.34291
 21
572.243
  0
LINE
  8
0
 10
7.34291
 20
572.243
 11
7.14888
 21
572.841
  0
LINE
  8
0
 10
7.14888
 20
572.841
 11
6.88153
 21
573.409
  0
LINE
  8
0
 10
6.88153
 20
573.409
 11
6.54507
 21
573.939
  0
LINE
  8
0
 10
6.54507
 20
573.939
 11
6.14484
 21
574.423
  0
LINE
  8
0
 10
6.14484
 20
574.423
 11
5.68712
 21
574.853
  0
LINE
  8
0
 10
5.68712
 20
574.853
 11
5.17912
 21
575.222
  0
LINE
  8
0
 10
5.17912
 20
575.222
 11
4.62889
 21
575.524
  0
LINE
  8
0
 10
4.62889
 20
575.524
 11
4.04507
 21
575.755
  0
LINE
  8
0
 10
4.04507
 20
575.755
 11
3.4369
 21
575.911
  0
LINE
  8
0
 10
3.4369
 20
575.911
 11
2.81395
 21
575.99
  0
LINE
  8
0
 10
2.81395
 20
575.99
 11
-2.81395
 21
575.99
  0
LINE
  8
0
 10
-2.81395
 20
575.99
 11
-3.4369
 21
575.911
  0
LINE
  8
0
 10
-3.4369
 20
575.911
 11
-4.04507
 21
575.755
  0
LINE
  8
0
 10
-4.04507
 20
575.755
 11
-4.62889
 21
575.524
  0
LINE
  8
0
 10
-4.62889
 20
575.524
 11
-5.17912
 21
575.222
  0
LINE
  8
0
 10
-5.17912
 20
575.222
 11
-5.68712
 21
574.853
  0
LINE
  8
0
 10
-5.68712
 20
574.853
 11
-6.14484
 21
574.423
  0
LINE
  8
0
 10
-6.14484
 20
574.423
 11
-6.54507
 21
573.939
  0
LINE
  8
0
 10
-6.54507
 20
573.939
 11
-6.88153
 21
573.409
  0
LINE
  8
0
 10
-6.88153
 20
573.409
 11
-7.14888
 21
572.841
  0
LINE
  8
0
 10
-7.14888
 20
572.841
 11
-7.34291
 21
572.243
  0
LINE
  8
0
 10
-7.34291
 20
572.243
 11
-7.46057
 21
571.627
  0
LINE
  8
0
 10
-7.46057
 20
571.627
 11
-7.5
 21
571
  0
LINE
  8
0
 10
-7.5
 20
571
 11
-7.5
 21
461
  0
LINE
  8
0
 10
-7.5
 20
461
 11
-7.46057
 21
460.373
  0
LINE
  8
0
 10
-7.46057
 20
460.373
 11
-7.34291
 21
459.757
  0
LINE
  8
0
 10
-7.34291
 20
459.757
 11
-7.14888
 21
459.159
  0
LINE
  8
0
 10
-7.14888
 20
459.159
 11
-6.88153
 21
458.591
  0
LINE
  8
0
 10
-6.88153
 20
458.591
 11
-6.54507
 21
458.061
  0
LINE
  8
0
 10
-6.54507
 20
458.061
 11
-6.14484
 21
457.577
  0
LINE
  8
0
 10
-6.14484
 20
457.577
 11
-5.68712
 21
457.147
  0
LINE
  8
0
 10
-5.68712
 20
457.147
 11
-5.17912
 21
456.778
  0
LINE
  8
0
 10
-5.17912
 20
456.778
 11
-4.62889
 21
456.476
  0
LINE
  8
0
 10
-4.62889
 20
456.476
 11
-4.04507
 21
456.245
  0
LINE
  8
0
 10
-4.04507
 20
456.245
 11
-3.4369
 21
456.089
  0
LINE
  8
0
 10
-3.4369
 20
456.089
 11
-2.81395
 21
456.01
  0
LINE
  8
0
 10
-2.81395
 20
456.01
 11
2.81395
 21
456.01
  0
LINE
  8
0
 10
2.81395
 20
456.01
 11
3.4369
 21
456.089
  0
LINE
  8
0
 10
-2.24316
 20
457.635
 11
-2.72565
 21
457.696
  0
LINE
  8
0
 10
-2.72565
 20
457.696
 11
-3.1967
 21
457.817
  0
LINE
  8
0
 10
-3.1967
 20
457.817
 11
-3.64888
 21
457.996
  0
LINE
  8
0
 10
-3.64888
 20
457.996
 11
-4.07506
 21
458.23
  0
LINE
  8
0
 10
-4.07506
 20
458.23
 11
-4.46851
 21
458.516
  0
LINE
  8
0
 10
-4.46851
 20
458.516
 11
-4.82301
 21
458.849
  0
LINE
  8
0
 10
-4.82301
 20
458.849
 11
-5.13301
 21
459.224
  0
LINE
  8
0
 10
-5.13301
 20
459.224
 11
-5.3936
 21
459.634
  0
LINE
  8
0
 10
-5.3936
 20
459.634
 11
-5.60068
 21
460.074
  0
LINE
  8
0
 10
-5.60068
 20
460.074
 11
-5.75096
 21
460.537
  0
LINE
  8
0
 10
-5.75096
 20
460.537
 11
-5.84209
 21
461.015
  0
LINE
  8
0
 10
-5.84209
 20
461.015
 11
-5.87262
 21
461.5
  0
LINE
  8
0
 10
-5.87262
 20
461.5
 11
-5.87262
 21
570.5
  0
LINE
  8
0
 10
-5.87262
 20
570.5
 11
-5.84209
 21
570.985
  0
LINE
  8
0
 10
-5.84209
 20
570.985
 11
-5.75096
 21
571.463
  0
LINE
  8
0
 10
-5.75096
 20
571.463
 11
-5.60068
 21
571.926
  0
LINE
  8
0
 10
-5.60068
 20
571.926
 11
-5.3936
 21
572.366
  0
LINE
  8
0
 10
-5.3936
 20
572.366
 11
-5.13301
 21
572.776
  0
LINE
  8
0
 10
-5.13301
 20
572.776
 11
-4.82301
 21
573.151
  0
LINE
  8
0
 10
-4.82301
 20
573.151
 11
-4.46851
 21
573.484
  0
LINE
  8
0
 10
-4.46851
 20
573.484
 11
-4.07506
 21
573.77
  0
LINE
  8
0
 10
-4.07506
 20
573.77
 11
-3.64888
 21
574.004
  0
LINE
  8
0
 10
-3.64888
 20
574.004
 11
-3.1967
 21
574.183
  0
LINE
  8
0
 10
-3.1967
 20
574.183
 11
-2.72565
 21
574.304
  0
LINE
  8
0
 10
-2.72565
 20
574.304
 11
-2.24316
 21
574.365
  0
LINE
  8
0
 10
-2.24316
 20
574.365
 11
2.24316
 21
574.365
  0
LINE
  8
0
 10
2.24316
 20
574.365
 11
2.72565
 21
574.304
  0
LINE
  8
0
 10
2.72565
 20
574.304
 11
3.1967
 21
574.183
  0
LINE
  8
0
 10
3.1967
 20
574.183
 11
3.64888
 21
574.004
  0
LINE
  8
0
 10
3.64888
 20
574.004
 11
4.07506
 21
573.77
  0
LINE
  8
0
 10
4.07506
 20
573.77
 11
4.46851
 21
573.484
  0
LINE
  8
0
 10
4.46851
 20
573.484
 11
4.82301
 21
573.151
  0
LINE
  8
0
 10
4.82301
 20
573.151
 11
5.13301
 21
572.776
  0
LINE
  8
0
 10
5.13301
 20
572.776
 11
5.3936
 21
572.366
  0
LINE
  8
0
 10
5.3936
 20
572.366
 11
5.60068
 21
571.926
  0
LINE
  8
0
 10
5.60068
 20
571.926
 11
5.75096
 21
571.463
  0
LINE
  8
0
 10
5.75096
 20
571.463
 11
5.84209
 21
570.985
  0
LINE
  8
0
 10
5.84209
 20
570.985
 11
5.87262
 21
570.5
  0
LINE
  8
0
 10
5.87262
 20
570.5
 11
5.87262
 21
461.5
  0
LINE
  8
0
 10
5.87262
 20
461.5
 11
5.84209
 21
461.015
  0
LINE
  8
0
 10
5.84209
 20
461.015
 11
5.75096
 21
460.537
  0
LINE
  8
0
 10
5.75096
 20
460.537
 11
5.60068
 21
460.074
  0
LINE
  8
0
 10
5.60068
 20
460.074
 11
5.3936
 21
459.634
  0
LINE
  8
0
 10
5.3936
 20
459.634
 11
5.13301
 21
459.224
  0
LINE
  8
0
 10
5.13301
 20
459.224
 11
4.82301
 21
458.849
  0
LINE
  8
0
 10
4.82301
 20
458.849
 11
4.46851
 21
458.516
  0
LINE
  8
0
 10
4.46851
 20
458.516
 11
4.07506
 21
458.23
  0
LINE
  8
0
 10
4.07506
 20
458.23
 11
3.64888
 21
457.996
  0
LINE
  8
0
 10
3.64888
 20
457.996
 11
3.1967
 21
457.817
  0
LINE
  8
0
 10
3.1967
 20
457.817
 11
2.72565
 21
457.696
  0
LINE
  8
0
 10
2.72565
 20
457.696
 11
2.24316
 21
457.635
  0
LINE
  8
0
 10
2.24316
 20
457.635
 11
-2.24316
 21
457.635
  0
LINE
  8
0
 10
3.4369
 20
327.089
 11
4.04507
 21
327.245
  0
LINE
  8
0
 10
4.04507
 20
327.245
 11
4.62889
 21
327.476
  0
LINE
  8
0
 10
4.62889
 20
327.476
 11
5.17912
 21
327.778
  0
LINE
  8
0
 10
5.17912
 20
327.778
 11
5.68712
 21
328.147
  0
LINE
  8
0
 10
5.68712
 20
328.147
 11
6.14484
 21
328.577
  0
LINE
  8
0
 10
6.14484
 20
328.577
 11
6.54507
 21
329.061
  0
LINE
  8
0
 10
6.54507
 20
329.061
 11
6.88153
 21
329.591
  0
LINE
  8
0
 10
6.88153
 20
329.591
 11
7.14888
 21
330.159
  0
LINE
  8
0
 10
7.14888
 20
330.159
 11
7.34291
 21
330.757
  0
LINE
  8
0
 10
7.34291
 20
330.757
 11
7.46057
 21
331.373
  0
LINE
  8
0
 10
7.46057
 20
331.373
 11
7.5
 21
332
  0
LINE
  8
0
 10
7.5
 20
332
 11
7.5
 21
442
  0
LINE
  8
0
 10
7.5
 20
442
 11
7.46057
 21
442.627
  0
LINE
  8
0
 10
7.46057
 20
442.627
 11
7.34291
 21
443.243
  0
LINE
  8
0
 10
7.34291
 20
443.243
 11
7.14888
 21
443.841
  0
LINE
  8
0
 10
7.14888
 20
443.841
 11
6.88153
 21
444.409
  0
LINE
  8
0
 10
6.88153
 20
444.409
 11
6.54507
 21
444.939
  0
LINE
  8
0
 10
6.54507
 20
444.939
 11
6.14484
 21
445.423
  0
LINE
  8
0
 10
6.14484
 20
445.423
 11
5.68712
 21
445.853
  0
LINE
  8
0
 10
5.68712
 20
445.853
 11
5.17912
 21
446.222
  0
LINE
  8
0
 10
5.17912
 20
446.222
 11
4.62889
 21
446.524
  0
LINE
  8
0
 10
4.62889
 20
446.524
 11
4.04507
 21
446.755
  0
LINE
  8
0
 10
4.04507
 20
446.755
 11
3.4369
 21
446.911
  0
LINE
  8
0
 10
3.4369
 20
446.911
 11
2.81395
 21
446.99
  0
LINE
  8
0
 10
2.81395
 20
446.99
 11
-2.81395
 21
446.99
  0
LINE
  8
0
 10
-2.81395
 20
446.99
 11
-3.4369
 21
446.911
  0
LINE
  8
0
 10
-3.4369
 20
446.911
 11
-4.04507
 21
446.755
  0
LINE
  8
0
 10
-4.04507
 20
446.755
 11
-4.62889
 21
446.524
  0
LINE
  8
0
 10
-4.62889
 20
446.524
 11
-5.17912
 21
446.222
  0
LINE
  8
0
 10
-5.17912
 20
446.222
 11
-5.68712
 21
445.853
  0
LINE
  8
0
 10
-5.68712
 20
445.853
 11
-6.14484
 21
445.423
  0
LINE
  8
0
 10
-6.14484
 20
445.423
 11
-6.54507
 21
444.939
  0
LINE
  8
0
 10
-6.54507
 20
444.939
 11
-6.88153
 21
444.409
  0
LINE
  8
0
 10
-6.88153
 20
444.409
 11
-7.14888
 21
443.841
  0
LINE
  8
0
 10
-7.14888
 20
443.841
 11
-7.34291
 21
443.243
  0
LINE
  8
0
 10
-7.34291
 20
443.243
 11
-7.46057
 21
442.627
  0
LINE
  8
0
 10
-7.46057
 20
442.627
 11
-7.5
 21
442
  0
LINE
  8
0
 10
-7.5
 20
442
 11
-7.5
 21
332
  0
LINE
  8
0
 10
-7.5
 20
332
 11
-7.46057
 21
331.373
  0
LINE
  8
0
 10
-7.46057
 20
331.373
 11
-7.34291
 21
330.757
  0
LINE
  8
0
 10
-7.34291
 20
330.757
 11
-7.14888
 21
330.159
  0
LINE
  8
0
 10
-7.14888
 20
330.159
 11
-6.88153
 21
329.591
  0
LINE
  8
0
 10
-6.88153
 20
329.591
 11
-6.54507
 21
329.061
  0
LINE
  8
0
 10
-6.54507
 20
329.061
 11
-6.14484
 21
328.577
  0
LINE
  8
0
 10
-6.14484
 20
328.577
 11
-5.68712
 21
328.147
  0
LINE
  8
0
 10
-5.68712
 20
328.147
 11
-5.17912
 21
327.778
  0
LINE
  8
0
 10
-5.17912
 20
327.778
 11
-4.62889
 21
327.476
  0
LINE
  8
0
 10
-4.62889
 20
327.476
 11
-4.04507
 21
327.245
  0
LINE
  8
0
 10
-4.04507
 20
327.245
 11
-3.4369
 21
327.089
  0
LINE
  8
0
 10
-3.4369
 20
327.089
 11
-2.81395
 21
327.01
  0
LINE
  8
0
 10
-2.81395
 20
327.01
 11
2.81395
 21
327.01
  0
LINE
  8
0
 10
2.81395
 20
327.01
 11
3.4369
 21
327.089
  0
LINE
  8
0
 10
3.4369
 20
198.089
 11
4.04507
 21
198.245
  0
LINE
  8
0
 10
4.04507
 20
198.245
 11
4.62889
 21
198.476
  0
LINE
  8
0
 10
4.62889
 20
198.476
 11
5.17912
 21
198.778
  0
LINE
  8
0
 10
5.17912
 20
198.778
 11
5.68712
 21
199.147
  0
LINE
  8
0
 10
5.68712
 20
199.147
 11
6.14484
 21
199.577
  0
LINE
  8
0
 10
6.14484
 20
199.577
 11
6.54507
 21
200.061
  0
LINE
  8
0
 10
6.54507
 20
200.061
 11
6.88153
 21
200.591
  0
LINE
  8
0
 10
6.88153
 20
200.591
 11
7.14888
 21
201.159
  0
LINE
  8
0
 10
7.14888
 20
201.159
 11
7.34291
 21
201.757
  0
LINE
  8
0
 10
7.34291
 20
201.757
 11
7.46057
 21
202.373
  0
LINE
  8
0
 10
7.46057
 20
202.373
 11
7.5
 21
203
  0
LINE
  8
0
 10
7.5
 20
203
 11
7.5
 21
313
  0
LINE
  8
0
 10
7.5
 20
313
 11
7.46057
 21
313.627
  0
LINE
  8
0
 10
7.46057
 20
313.627
 11
7.34291
 21
314.243
  0
LINE
  8
0
 10
7.34291
 20
314.243
 11
7.14888
 21
314.841
  0
LINE
  8
0
 10
7.14888
 20
314.841
 11
6.88153
 21
315.409
  0
LINE
  8
0
 10
6.88153
 20
315.409
 11
6.54507
 21
315.939
  0
LINE
  8
0
 10
6.54507
 20
315.939
 11
6.14484
 21
316.423
  0
LINE
  8
0
 10
6.14484
 20
316.423
 11
5.68712
 21
316.853
  0
LINE
  8
0
 10
5.68712
 20
316.853
 11
5.17912
 21
317.222
  0
LINE
  8
0
 10
5.17912
 20
317.222
 11
4.62889
 21
317.524
  0
LINE
  8
0
 10
4.62889
 20
317.524
 11
4.04507
 21
317.755
  0
LINE
  8
0
 10
4.04507
 20
317.755
 11
3.4369
 21
317.911
  0
LINE
  8
0
 10
3.4369
 20
317.911
 11
2.81395
 21
317.99
  0
LINE
  8
0
 10
2.81395
 20
317.99
 11
-2.81395
 21
317.99
  0
LINE
  8
0
 10
-2.81395
 20
317.99
 11
-3.4369
 21
317.911
  0
LINE
  8
0
 10
-3.4369
 20
317.911
 11
-4.04507
 21
317.755
  0
LINE
  8
0
 10
-4.04507
 20
317.755
 11
-4.62889
 21
317.524
  0
LINE
  8
0
 10
-4.62889
 20
317.524
 11
-5.17912
 21
317.222
  0
LINE
  8
0
 10
-5.17912
 20
317.222
 11
-5.68712
 21
316.853
  0
LINE
  8
0
 10
-5.68712
 20
316.853
 11
-6.14484
 21
316.423
  0
LINE
  8
0
 10
-6.14484
 20
316.423
 11
-6.54507
 21
315.939
  0
LINE
  8
0
 10
-6.54507
 20
315.939
 11
-6.88153
 21
315.409
  0
LINE
  8
0
 10
-6.88153
 20
315.409
 11
-7.14888
 21
314.841
  0
LINE
  8
0
 10
-7.14888
 20
314.841
 11
-7.34291
 21
314.243
  0
LINE
  8
0
 10
-7.34291
 20
314.243
 11
-7.46057
 21
313.627
  0
LINE
  8
0
 10
-7.46057
 20
313.627
 11
-7.5
 21
313
  0
LINE
  8
0
 10
-7.5
 20
313
 11
-7.5
 21
203
  0
LINE
  8
0
 10
-7.5
 20
203
 11
-7.46057
 21
202.373
  0
LINE
  8
0
 10
-7.46057
 20
202.373
 11
-7.34291
 21
201.757
  0
LINE
  8
0
 10
-7.34291
 20
201.757
 11
-7.14888
 21
201.159
  0
LINE
  8
0
 10
-7.14888
 20
201.159
 11
-6.88153
 21
200.591
  0
LINE
  8
0
 10
-6.88153
 20
200.591
 11
-6.54507
 21
200.061
  0
LINE
  8
0
 10
-6.54507
 20
200.061
 11
-6.14484
 21
199.577
  0
LINE
  8
0
 10
-6.14484
 20
199.577
 11
-5.68712
 21
199.147
  0
LINE
  8
0
 10
-5.68712
 20
199.147
 11
-5.17912
 21
198.778
  0
LINE
  8
0
 10
-5.17912
 20
198.778
 11
-4.62889
 21
198.476
  0
LINE
  8
0
 10
-4.62889
 20
198.476
 11
-4.04507
 21
198.245
  0
LINE
  8
0
 10
-4.04507
 20
198.245
 11
-3.4369
 21
198.089
  0
LINE
  8
0
 10
-3.4369
 20
198.089
 11
-2.81395
 21
198.01
  0
LINE
  8
0
 10
-2.81395
 20
198.01
 11
2.81395
 21
198.01
  0
LINE
  8
0
 10
2.81395
 20
198.01
 11
3.4369
 21
198.089
  0
LINE
  8
0
 10
-0.113022
 20
308.704
 11
-0.33728
 21
308.732
  0
LINE
  8
0
 10
-0.33728
 20
308.732
 11
-0.556229
 21
308.788
  0
LINE
  8
0
 10
-0.556229
 20
308.788
 11
-0.766388
 21
308.871
  0
LINE
  8
0
 10
-0.766388
 20
308.871
 11
-0.964478
 21
308.98
  0
LINE
  8
0
 10
-0.964478
 20
308.98
 11
-1.14735
 21
309.113
  0
LINE
  8
0
 10
-1.14735
 20
309.113
 11
-1.31213
 21
309.268
  0
LINE
  8
0
 10
-1.31213
 20
309.268
 11
-1.45622
 21
309.442
  0
LINE
  8
0
 10
-1.45622
 20
309.442
 11
-1.57735
 21
309.633
  0
LINE
  8
0
 10
-1.57735
 20
309.633
 11
-1.67358
 21
309.837
  0
LINE
  8
0
 10
-1.67358
 20
309.837
 11
-1.74344
 21
310.052
  0
LINE
  8
0
 10
-1.74344
 20
310.052
 11
-1.7858
 21
310.274
  0
LINE
  8
0
 10
-1.7858
 20
310.274
 11
-1.79999
 21
310.5
  0
LINE
  8
0
 10
-1.79999
 20
310.5
 11
-1.7858
 21
310.726
  0
LINE
  8
0
 10
-1.7858
 20
310.726
 11
-1.74344
 21
310.948
  0
LINE
  8
0
 10
-1.74344
 20
310.948
 11
-1.67358
 21
311.163
  0
LINE
  8
0
 10
-1.67358
 20
311.163
 11
-1.57735
 21
311.367
  0
LINE
  8
0
 10
-1.57735
 20
311.367
 11
-1.45622
 21
311.558
  0
LINE
  8
0
 10
-1.45622
 20
311.558
 11
-1.31213
 21
311.732
  0
LINE
  8
0
 10
-1.31213
 20
311.732
 11
-1.14735
 21
311.887
  0
LINE
  8
0
 10
-1.14735
 20
311.887
 11
-0.964478
 21
312.02
  0
LINE
  8
0
 10
-0.964478
 20
312.02
 11
-0.766388
 21
312.129
  0
LINE
  8
0
 10
-0.766388
 20
312.129
 11
-0.556229
 21
312.212
  0
LINE
  8
0
 10
-0.556229
 20
312.212
 11
-0.33728
 21
312.268
  0
LINE
  8
0
 10
-0.33728
 20
312.268
 11
-0.113022
 21
312.296
  0
LINE
  8
0
 10
-0.113022
 20
312.296
 11
0.113022
 21
312.296
  0
LINE
  8
0
 10
0.113022
 20
312.296
 11
0.33728
 21
312.268
  0
LINE
  8
0
 10
0.33728
 20
312.268
 11
0.556229
 21
312.212
  0
LINE
  8
0
 10
0.556229
 20
312.212
 11
0.766388
 21
312.129
  0
LINE
  8
0
 10
0.766388
 20
312.129
 11
0.964478
 21
312.02
  0
LINE
  8
0
 10
0.964478
 20
312.02
 11
1.14735
 21
311.887
  0
LINE
  8
0
 10
1.14735
 20
311.887
 11
1.31213
 21
311.732
  0
LINE
  8
0
 10
1.31213
 20
311.732
 11
1.45622
 21
311.558
  0
LINE
  8
0
 10
1.45622
 20
311.558
 11
1.57735
 21
311.367
  0
LINE
  8
0
 10
1.57735
 20
311.367
 11
1.67358
 21
311.163
  0
LINE
  8
0
 10
1.67358
 20
311.163
 11
1.74344
 21
310.948
  0
LINE
  8
0
 10
1.74344
 20
310.948
 11
1.7858
 21
310.726
  0
LINE
  8
0
 10
1.7858
 20
310.726
 11
1.79999
 21
310.5
  0
LINE
  8
0
 10
1.79999
 20
310.5
 11
1.7858
 21
310.274
  0
LINE
  8
0
 10
1.7858
 20
310.274
 11
1.74344
 21
310.052
  0
LINE
  8
0
 10
1.74344
 20
310.052
 11
1.67358
 21
309.837
  0
LINE
  8
0
 10
1.67358
 20
309.837
 11
1.57735
 21
309.633
  0
LINE
  8
0
 10
1.57735
 20
309.633
 11
1.45622
 21
309.442
  0
LINE
  8
0
 10
1.45622
 20
309.442
 11
1.31213
 21
309.268
  0
LINE
  8
0
 10
1.31213
 20
309.268
 11
1.14735
 21
309.113
  0
LINE
  8
0
 10
1.14735
 20
309.113
 11
0.964478
 21
308.98
  0
LINE
  8
0
 10
0.964478
 20
308.98
 11
0.766388
 21
308.871
  0
LINE
  8
0
 10
0.766388
 20
308.871
 11
0.556229
 21
308.788
  0
LINE
  8
0
 10
0.556229
 20
308.788
 11
0.33728
 21
308.732
  0
LINE
  8
0
 10
0.33728
 20
308.732
 11
0.113022
 21
308.704
  0
LINE
  8
0
 10
0.113022
 20
308.704
 11
-0.113022
 21
308.704
  0
LINE
  8
0
 10
-0.113022
 20
203.704
 11
-0.33728
 21
203.732
  0
LINE
  8
0
 10
-0.33728
 20
203.732
 11
-0.556229
 21
203.788
  0
LINE
  8
0
 10
-0.556229
 20
203.788
 11
-0.766388
 21
203.871
  0
LINE
  8
0
 10
-0.766388
 20
203.871
 11
-0.964478
 21
203.98
  0
LINE
  8
0
 10
-0.964478
 20
203.98
 11
-1.14735
 21
204.113
  0
LINE
  8
0
 10
-1.14735
 20
204.113
 11
-1.31213
 21
204.268
  0
LINE
  8
0
 10
-1.31213
 20
204.268
 11
-1.45622
 21
204.442
  0
LINE
  8
0
 10
-1.45622
 20
204.442
 11
-1.57735
 21
204.633
  0
LINE
  8
0
 10
-1.57735
 20
204.633
 11
-1.67358
 21
204.837
  0
LINE
  8
0
 10
-1.67358
 20
204.837
 11
-1.74344
 21
205.052
  0
LINE
  8
0
 10
-1.74344
 20
205.052
 11
-1.7858
 21
205.274
  0
LINE
  8
0
 10
-1.7858
 20
205.274
 11
-1.79999
 21
205.5
  0
LINE
  8
0
 10
-1.79999
 20
205.5
 11
-1.7858
 21
205.726
  0
LINE
  8
0
 10
-1.7858
 20
205.726
 11
-1.74344
 21
205.948
  0
LINE
  8
0
 10
-1.74344
 20
205.948
 11
-1.67358
 21
206.163
  0
LINE
  8
0
 10
-1.67358
 20
206.163
 11
-1.57735
 21
206.367
  0
LINE
  8
0
 10
-1.57735
 20
206.367
 11
-1.45622
 21
206.558
  0
LINE
  8
0
 10
-1.45622
 20
206.558
 11
-1.31213
 21
206.732
  0
LINE
  8
0
 10
-1.31213
 20
206.732
 11
-1.14735
 21
206.887
  0
LINE
  8
0
 10
-1.14735
 20
206.887
 11
-0.964478
 21
207.02
  0
LINE
  8
0
 10
-0.964478
 20
207.02
 11
-0.766388
 21
207.129
  0
LINE
  8
0
 10
-0.766388
 20
207.129
 11
-0.556229
 21
207.212
  0
LINE
  8
0
 10
-0.556229
 20
207.212
 11
-0.33728
 21
207.268
  0
LINE
  8
0
 10
-0.33728
 20
207.268
 11
-0.113022
 21
207.296
  0
LINE
  8
0
 10
-0.113022
 20
207.296
 11
0.113022
 21
207.296
  0
LINE
  8
0
 10
0.113022
 20
207.296
 11
0.33728
 21
207.268
  0
LINE
  8
0
 10
0.33728
 20
207.268
 11
0.556229
 21
207.212
  0
LINE
  8
0
 10
0.556229
 20
207.212
 11
0.766388
 21
207.129
  0
LINE
  8
0
 10
0.766388
 20
207.129
 11
0.964478
 21
207.02
  0
LINE
  8
0
 10
0.964478
 20
207.02
 11
1.14735
 21
206.887
  0
LINE
  8
0
 10
1.14735
 20
206.887
 11
1.31213
 21
206.732
  0
LINE
  8
0
 10
1.31213
 20
206.732
 11
1.45622
 21
206.558
  0
LINE
  8
0
 10
1.45622
 20
206.558
 11
1.57735
 21
206.367
  0
LINE
  8
0
 10
1.57735
 20
206.367
 11
1.67358
 21
206.163
  0
LINE
  8
0
 10
1.67358
 20
206.163
 11
1.74344
 21
205.948
  0
LINE
  8
0
 10
1.74344
 20
205.948
 11
1.7858
 21
205.726
  0
LINE
  8
0
 10
1.7858
 20
205.726
 11
1.79999
 21
205.5
  0
LINE
  8
0
 10
1.79999
 20
205.5
 11
1.7858
 21
205.274
  0
LINE
  8
0
 10
1.7858
 20
205.274
 11
1.74344
 21
205.052
  0
LINE
  8
0
 10
1.74344
 20
205.052
 11
1.67358
 21
204.837
  0
LINE
  8
0
 10
1.67358
 20
204.837
 11
1.57735
 21
204.633
  0
LINE
  8
0
 10
1.57735
 20
204.633
 11
1.45622
 21
204.442
  0
LINE
  8
0
 10
1.45622
 20
204.442
 11
1.31213
 21
204.268
  0
LINE
  8
0
 10
1.31213
 20
204.268
 11
1.14735
 21
204.113
  0
LINE
  8
0
 10
1.14735
 20
204.113
 11
0.964478
 21
203.98
  0
LINE
  8
0
 10
0.964478
 20
203.98
 11
0.766388
 21
203.871
  0
LINE
  8
0
 10
0.766388
 20
203.871
 11
0.556229
 21
203.788
  0
LINE
  8
0
 10
0.556229
 20
203.788
 11
0.33728
 21
203.732
  0
LINE
  8
0
 10
0.33728
 20
203.732
 11
0.113022
 21
203.704
  0
LINE
  8
0
 10
0.113022
 20
203.704
 11
-0.113022
 21
203.704
  0
ENDSEC
  0
SECTION
  2
OBJECTS
  0
DICTIONARY
  0
ENDSEC
  0
EOF
