<?xml version="1.0" standalone="no"?>
<!DOCTYPE svg PUBLIC "-//W3C//DTD SVG 1.1//EN" "http://www.w3.org/Graphics/SVG/1.1/DTD/svg11.dtd">
<svg width="16mm" height="378mm" viewBox="-8 -576 16 378" xmlns="http://www.w3.org/2000/svg" version="1.1">
<title>OpenSCAD Model</title>
<path d="
M 3.4369,-456.089 L 4.04507,-456.245 L 4.62889,-456.476 L 5.17912,-456.778 L 5.68712,-457.147 L 6.14484,-457.577
 L 6.54507,-458.061 L 6.88153,-458.591 L 7.14888,-459.159 L 7.34291,-459.757 L 7.46057,-460.373 L 7.5,-461
 L 7.5,-571 L 7.46057,-571.627 L 7.34291,-572.243 L 7.14888,-572.841 L 6.88153,-573.409 L 6.54507,-573.939
 L 6.14484,-574.423 L 5.68712,-574.853 L 5.17912,-575.222 L 4.62889,-575.524 L 4.04507,-575.755 L 3.4369,-575.911
 L 2.81395,-575.99 L -2.81395,-575.99 L -3.4369,-575.911 L -4.04507,-575.755 L -4.62889,-575.524 L -5.17912,-575.222
 L -5.68712,-574.853 L -6.14484,-574.423 L -6.54507,-573.939 L -6.88153,-573.409 L -7.14888,-572.841 L -7.34291,-572.243
 L -7.46057,-571.627 L -7.5,-571 L -7.5,-461 L -7.46057,-460.373 L -7.34291,-459.757 L -7.14888,-459.159
 L -6.88153,-458.591 L -6.54507,-458.061 L -6.14484,-457.577 L -5.68712,-457.147 L -5.17912,-456.778 L -4.62889,-456.476
 L -4.04507,-456.245 L -3.4369,-456.089 L -2.81395,-456.01 L 2.81395,-456.01 z
M -2.24316,-457.635 L -2.72565,-457.696 L -3.1967,-457.817 L -3.64888,-457.996 L -4.07506,-458.23 L -4.46851,-458.516
 L -4.82301,-458.849 L -5.13301,-459.224 L -5.3936,-459.634 L -5.60068,-460.074 L -5.75096,-460.537 L -5.84209,-461.015
 L -5.87262,-461.5 L -5.87262,-570.5 L -5.84209,-570.985 L -5.75096,-571.463 L -5.60068,-571.926 L -5.3936,-572.366
 L -5.13301,-572.776 L -4.82301,-573.151 L -4.46851,-573.484 L -4.07506,-573.77 L -3.64888,-574.004 L -3.1967,-574.183
 L -2.72565,-574.304 L -2.24316,-574.365 L 2.24316,-574.365 L 2.72565,-574.304 L 3.1967,-574.183 L 3.64888,-574.004
 L 4.07506,-573.77 L 4.46851,-573.484 L 4.82301,-573.151 L 5.13301,-572.776 L 5.3936,-572.366 L 5.60068,-571.926
 L 5.75096,-571.463 L 5.84209,-570.985 L 5.87262,-570.5 L 5.87262,-461.5 L 5.84209,-461.015 L 5.75096,-460.537
 L 5.60068,-460.074 L 5.3936,-459.634 L 5.13301,-459.224 L 4.82301,-458.849 L 4.46851,-458.516 L 4.07506,-458.23
 L 3.64888,-457.996 L 3.1967,-457.817 L 2.72565,-457.696 L 2.24316,-457.635 z
M 3.4369,-327.089 L 4.04507,-327.245 L 4.62889,-327.476 L 5.17912,-327.778 L 5.68712,-328.147 L 6.14484,-328.577
 L 6.54507,-329.061 L 6.88153,-329.591 L 7.14888,-330.159 L 7.34291,-330.757 L 7.46057,-331.373 L 7.5,-332
 L 7.5,-442 L 7.46057,-442.627 L 7.34291,-443.243 L 7.14888,-443.841 L 6.88153,-444.409 L 6.54507,-444.939
 L 6.14484,-445.423 L 5.68712,-445.853 L 5.17912,-446.222 L 4.62889,-446.524 L 4.04507,-446.755 L 3.4369,-446.911
 L 2.81395,-446.99 L -2.81395,-446.99 L -3.4369,-446.911 L -4.04507,-446.755 L -4.62889,-446.524 L -5.17912,-446.222
 L -5.68712,-445.853 L -6.14484,-445.423 L -6.54507,-444.939 L -6.88153,-444.409 L -7.14888,-443.841 L -7.34291,-443.243
 L -7.46057,-442.627 L -7.5,-442 L -7.5,-332 L -7.46057,-331.373 L -7.34291,-330.757 L -7.14888,-330.159
 L -6.88153,-329.591 L -6.54507,-329.061 L -6.14484,-328.577 L -5.68712,-328.147 L -5.17912,-327.778 L -4.62889,-327.476
 L -4.04507,-327.245 L -3.4369,-327.089 L -2.81395,-327.01 L 2.81395,-327.01 z
M 3.4369,-198.089 L 4.04507,-198.245 L 4.62889,-198.476 L 5.17912,-198.778 L 5.68712,-199.147 L 6.14484,-199.577
 L 6.54507,-200.061 L 6.88153,-200.591 L 7.14888,-201.159 L 7.34291,-201.757 L 7.46057,-202.373 L 7.5,-203
 L 7.5,-313 L 7.46057,-313.627 L 7.34291,-314.243 L 7.14888,-314.841 L 6.88153,-315.409 L 6.54507,-315.939
 L 6.14484,-316.423 L 5.68712,-316.853 L 5.17912,-317.222 L 4.62889,-317.524 L 4.04507,-317.755 L 3.4369,-317.911
 L 2.81395,-317.99 L -2.81395,-317.99 L -3.4369,-317.911 L -4.04507,-317.755 L -4.62889,-317.524 L -5.17912,-317.222
 L -5.68712,-316.853 L -6.14484,-316.423 L -6.54507,-315.939 L -6.88153,-315.409 L -7.14888,-314.841 L -7.34291,-314.243
 L -7.46057,-313.627 L -7.5,-313 L -7.5,-203 L -7.46057,-202.373 L -7.34291,-201.757 L -7.14888,-201.159
 L -6.88153,-200.591 L -6.54507,-200.061 L -6.14484,-199.577 L -5.68712,-199.147 L -5.17912,-198.778 L -4.62889,-198.476
 L -4.04507,-198.245 L -3.4369,-198.089 L -2.81395,-198.01 L 2.81395,-198.01 z
M -0.113022,-308.704 L -0.33728,-308.732 L -0.556229,-308.788 L -0.766388,-308.871 L -0.964478,-308.98 L -1.14735,-309.113
 L -1.31213,-309.268 L -1.45622,-309.442 L -1.57735,-309.633 L -1.67358,-309.837 L -1.74344,-310.052 L -1.7858,-310.274
 L -1.79999,-310.5 L -1.7858,-310.726 L -1.74344,-310.948 L -1.67358,-311.163 L -1.57735,-311.367 L -1.45622,-311.558
 L -1.31213,-311.732 L -1.14735,-311.887 L -0.964478,-312.02 L -0.766388,-312.129 L -0.556229,-312.212 L -0.33728,-312.268
 L -0.113022,-312.296 L 0.113022,-312.296 L 0.33728,-312.268 L 0.556229,-312.212 L 0.766388,-312.129 L 0.964478,-312.02
 L 1.14735,-311.887 L 1.31213,-311.732 L 1.45622,-311.558 L 1.57735,-311.367 L 1.67358,-311.163 L 1.74344,-310.948
 L 1.7858,-310.726 L 1.79999,-310.5 L 1.7858,-310.274 L 1.74344,-310.052 L 1.67358,-309.837 L 1.57735,-309.633
 L 1.45622,-309.442 L 1.31213,-309.268 L 1.14735,-309.113 L 0.964478,-308.98 L 0.766388,-308.871 L 0.556229,-308.788
 L 0.33728,-308.732 L 0.113022,-308.704 z
M -0.113022,-203.704 L -0.33728,-203.732 L -0.556229,-203.788 L -0.766388,-203.871 L -0.964478,-203.98 L -1.14735,-204.113
 L -1.31213,-204.268 L -1.45622,-204.442 L -1.57735,-204.633 L -1.67358,-204.837 L -1.74344,-205.052 L -1.7858,-205.274
 L -1.79999,-205.5 L -1.7858,-205.726 L -1.74344,-205.948 L -1.67358,-206.163 L -1.57735,-206.367 L -1.45622,-206.558
 L -1.31213,-206.732 L -1.14735,-206.887 L -0.964478,-207.02 L -0.766388,-207.129 L -0.556229,-207.212 L -0.33728,-207.268
 L -0.113022,-207.296 L 0.113022,-207.296 L 0.33728,-207.268 L 0.556229,-207.212 L 0.766388,-207.129 L 0.964478,-207.02
 L 1.14735,-206.887 L 1.31213,-206.732 L 1.45622,-206.558 L 1.57735,-206.367 L 1.67358,-206.163 L 1.74344,-205.948
 L 1.7858,-205.726 L 1.79999,-205.5 L 1.7858,-205.274 L 1.74344,-205.052 L 1.67358,-204.837 L 1.57735,-204.633
 L 1.45622,-204.442 L 1.31213,-204.268 L 1.14735,-204.113 L 0.964478,-203.98 L 0.766388,-203.871 L 0.556229,-203.788
 L 0.33728,-203.732 L 0.113022,-203.704 z
" stroke="black" fill="lightgray" stroke-width="0.5"/>
</svg>
