<?xml version="1.0" standalone="no"?>
<!DOCTYPE svg PUBLIC "-//W3C//DTD SVG 1.1//EN" "http://www.w3.org/Graphics/SVG/1.1/DTD/svg11.dtd">
<svg width="30mm" height="160mm" viewBox="-15 -290 30 160" xmlns="http://www.w3.org/2000/svg" version="1.1">
<title>OpenSCAD Model</title>
<path d="
M 10.9369,-214.589 L 11.5451,-214.745 L 12.1289,-214.976 L 12.6791,-215.278 L 13.1871,-215.647 L 13.6448,-216.077
 L 14.0451,-216.561 L 14.3815,-217.091 L 14.6489,-217.659 L 14.8429,-218.257 L 14.9606,-218.873 L 15,-219.5
 L 15,-284.5 L 14.9606,-285.127 L 14.8429,-285.743 L 14.6489,-286.341 L 14.3815,-286.909 L 14.0451,-287.439
 L 13.6448,-287.923 L 13.1871,-288.353 L 12.6791,-288.722 L 12.1289,-289.024 L 11.5451,-289.255 L 10.9369,-289.411
 L 10.3139,-289.49 L -10.3139,-289.49 L -10.9369,-289.411 L -11.5451,-289.255 L -12.1289,-289.024 L -12.6791,-288.722
 L -13.1871,-288.353 L -13.6448,-287.923 L -14.0451,-287.439 L -14.3815,-286.909 L -14.6489,-286.341 L -14.8429,-285.743
 L -14.9606,-285.127 L -15,-284.5 L -15,-219.5 L -14.9606,-218.873 L -14.8429,-218.257 L -14.6489,-217.659
 L -14.3815,-217.091 L -14.0451,-216.561 L -13.6448,-216.077 L -13.1871,-215.647 L -12.6791,-215.278 L -12.1289,-214.976
 L -11.5451,-214.745 L -10.9369,-214.589 L -10.3139,-214.51 L 10.3139,-214.51 z
M -9.69545,-216.893 L -10.0833,-216.942 L -10.4619,-217.039 L -10.8254,-217.183 L -11.168,-217.372 L -11.4842,-217.601
 L -11.7692,-217.869 L -12.0184,-218.17 L -12.2279,-218.5 L -12.3943,-218.854 L -12.5151,-219.226 L -12.5884,-219.61
 L -12.6129,-220 L -12.6129,-284 L -12.5884,-284.39 L -12.5151,-284.774 L -12.3943,-285.146 L -12.2279,-285.5
 L -12.0184,-285.83 L -11.7692,-286.131 L -11.4842,-286.399 L -11.168,-286.628 L -10.8254,-286.817 L -10.4619,-286.961
 L -10.0833,-287.058 L -9.69545,-287.107 L 9.69545,-287.107 L 10.0833,-287.058 L 10.4619,-286.961 L 10.8254,-286.817
 L 11.168,-286.628 L 11.4842,-286.399 L 11.7692,-286.131 L 12.0184,-285.83 L 12.2279,-285.5 L 12.3943,-285.146
 L 12.5151,-284.774 L 12.5884,-284.39 L 12.6129,-284 L 12.6129,-220 L 12.5884,-219.61 L 12.5151,-219.226
 L 12.3943,-218.854 L 12.2279,-218.5 L 12.0184,-218.17 L 11.7692,-217.869 L 11.4842,-217.601 L 11.168,-217.372
 L 10.8254,-217.183 L 10.4619,-217.039 L 10.0833,-216.942 L 9.69545,-216.893 z
M 10.9369,-130.589 L 11.5451,-130.745 L 12.1289,-130.976 L 12.6791,-131.278 L 13.1871,-131.647 L 13.6448,-132.077
 L 14.0451,-132.561 L 14.3815,-133.091 L 14.6489,-133.659 L 14.8429,-134.257 L 14.9606,-134.873 L 15,-135.5
 L 15,-200.5 L 14.9606,-201.127 L 14.8429,-201.743 L 14.6489,-202.341 L 14.3815,-202.909 L 14.0451,-203.439
 L 13.6448,-203.923 L 13.1871,-204.353 L 12.6791,-204.722 L 12.1289,-205.024 L 11.5451,-205.255 L 10.9369,-205.411
 L 10.3139,-205.49 L -10.3139,-205.49 L -10.9369,-205.411 L -11.5451,-205.255 L -12.1289,-205.024 L -12.6791,-204.722
 L -13.1871,-204.353 L -13.6448,-203.923 L -14.0451,-203.439 L -14.3815,-202.909 L -14.6489,-202.341 L -14.8429,-201.743
 L -14.9606,-201.127 L -15,-200.5 L -15,-135.5 L -14.9606,-134.873 L -14.8429,-134.257 L -14.6489,-133.659
 L -14.3815,-133.091 L -14.0451,-132.561 L -13.6448,-132.077 L -13.1871,-131.647 L -12.6791,-131.278 L -12.1289,-130.976
 L -11.5451,-130.745 L -10.9369,-130.589 L -10.3139,-130.51 L 10.3139,-130.51 z
M 7.36592,-195.869 L 7.09988,-195.903 L 6.84015,-195.969 L 6.59084,-196.068 L 6.35585,-196.197 L 6.1389,-196.355
 L 5.94344,-196.538 L 5.77251,-196.745 L 5.62881,-196.971 L 5.51465,-197.214 L 5.43178,-197.469 L 5.38153,-197.732
 L 5.3647,-198 L 5.38153,-198.268 L 5.43178,-198.531 L 5.51465,-198.786 L 5.62881,-199.029 L 5.77251,-199.255
 L 5.94344,-199.462 L 6.1389,-199.645 L 6.35585,-199.803 L 6.59084,-199.932 L 6.84015,-200.031 L 7.09988,-200.097
 L 7.36592,-200.131 L 7.63406,-200.131 L 7.9001,-200.097 L 8.15984,-200.031 L 8.40915,-199.932 L 8.64413,-199.803
 L 8.86108,-199.645 L 9.05655,-199.462 L 9.22748,-199.255 L 9.37117,-199.029 L 9.48534,-198.786 L 9.56821,-198.531
 L 9.61845,-198.268 L 9.63528,-198 L 9.61845,-197.732 L 9.56821,-197.469 L 9.48534,-197.214 L 9.37117,-196.971
 L 9.22748,-196.745 L 9.05655,-196.538 L 8.86108,-196.355 L 8.64413,-196.197 L 8.40915,-196.068 L 8.15984,-195.969
 L 7.9001,-195.903 L 7.63406,-195.869 z
M -7.63406,-195.869 L -7.9001,-195.903 L -8.15984,-195.969 L -8.40915,-196.068 L -8.64413,-196.197 L -8.86108,-196.355
 L -9.05655,-196.538 L -9.22748,-196.745 L -9.37117,-196.971 L -9.48534,-197.214 L -9.56821,-197.469 L -9.61845,-197.732
 L -9.63528,-198 L -9.61845,-198.268 L -9.56821,-198.531 L -9.48534,-198.786 L -9.37117,-199.029 L -9.22748,-199.255
 L -9.05655,-199.462 L -8.86108,-199.645 L -8.64413,-199.803 L -8.40915,-199.932 L -8.15984,-200.031 L -7.9001,-200.097
 L -7.63406,-200.131 L -7.36592,-200.131 L -7.09988,-200.097 L -6.84015,-200.031 L -6.59084,-199.932 L -6.35585,-199.803
 L -6.1389,-199.645 L -5.94344,-199.462 L -5.77251,-199.255 L -5.62881,-199.029 L -5.51465,-198.786 L -5.43178,-198.531
 L -5.38153,-198.268 L -5.3647,-198 L -5.38153,-197.732 L -5.43178,-197.469 L -5.51465,-197.214 L -5.62881,-196.971
 L -5.77251,-196.745 L -5.94344,-196.538 L -6.1389,-196.355 L -6.35585,-196.197 L -6.59084,-196.068 L -6.84015,-195.969
 L -7.09988,-195.903 L -7.36592,-195.869 z
M 7.36592,-135.869 L 7.09988,-135.903 L 6.84015,-135.969 L 6.59084,-136.068 L 6.35585,-136.197 L 6.1389,-136.355
 L 5.94344,-136.538 L 5.77251,-136.745 L 5.62881,-136.971 L 5.51465,-137.214 L 5.43178,-137.469 L 5.38153,-137.732
 L 5.3647,-138 L 5.38153,-138.268 L 5.43178,-138.531 L 5.51465,-138.786 L 5.62881,-139.029 L 5.77251,-139.255
 L 5.94344,-139.462 L 6.1389,-139.645 L 6.35585,-139.803 L 6.59084,-139.932 L 6.84015,-140.031 L 7.09988,-140.097
 L 7.36592,-140.131 L 7.63406,-140.131 L 7.9001,-140.097 L 8.15984,-140.031 L 8.40915,-139.932 L 8.64413,-139.803
 L 8.86108,-139.645 L 9.05655,-139.462 L 9.22748,-139.255 L 9.37117,-139.029 L 9.48534,-138.786 L 9.56821,-138.531
 L 9.61845,-138.268 L 9.63528,-138 L 9.61845,-137.732 L 9.56821,-137.469 L 9.48534,-137.214 L 9.37117,-136.971
 L 9.22748,-136.745 L 9.05655,-136.538 L 8.86108,-136.355 L 8.64413,-136.197 L 8.40915,-136.068 L 8.15984,-135.969
 L 7.9001,-135.903 L 7.63406,-135.869 z
M -7.63406,-135.869 L -7.9001,-135.903 L -8.15984,-135.969 L -8.40915,-136.068 L -8.64413,-136.197 L -8.86108,-136.355
 L -9.05655,-136.538 L -9.22748,-136.745 L -9.37117,-136.971 L -9.48534,-137.214 L -9.56821,-137.469 L -9.61845,-137.732
 L -9.63528,-138 L -9.61845,-138.268 L -9.56821,-138.531 L -9.48534,-138.786 L -9.37117,-139.029 L -9.22748,-139.255
 L -9.05655,-139.462 L -8.86108,-139.645 L -8.64413,-139.803 L -8.40915,-139.932 L -8.15984,-140.031 L -7.9001,-140.097
 L -7.63406,-140.131 L -7.36592,-140.131 L -7.09988,-140.097 L -6.84015,-140.031 L -6.59084,-139.932 L -6.35585,-139.803
 L -6.1389,-139.645 L -5.94344,-139.462 L -5.77251,-139.255 L -5.62881,-139.029 L -5.51465,-138.786 L -5.43178,-138.531
 L -5.38153,-138.268 L -5.3647,-138 L -5.38153,-137.732 L -5.43178,-137.469 L -5.51465,-137.214 L -5.62881,-136.971
 L -5.77251,-136.745 L -5.94344,-136.538 L -6.1389,-136.355 L -6.35585,-136.197 L -6.59084,-136.068 L -6.84015,-135.969
 L -7.09988,-135.903 L -7.36592,-135.869 z
" stroke="black" fill="lightgray" stroke-width="0.5"/>
</svg>
