<?xml version="1.0" standalone="no"?>
<!DOCTYPE svg PUBLIC "-//W3C//DTD SVG 1.1//EN" "http://www.w3.org/Graphics/SVG/1.1/DTD/svg11.dtd">
<svg width="30mm" height="249mm" viewBox="-15 -447 30 249" xmlns="http://www.w3.org/2000/svg" version="1.1">
<title>OpenSCAD Model</title>
<path d="
M 10.9369,-327.089 L 11.5451,-327.245 L 12.1289,-327.476 L 12.6791,-327.778 L 13.1871,-328.147 L 13.6448,-328.577
 L 14.0451,-329.061 L 14.3815,-329.591 L 14.6489,-330.159 L 14.8429,-330.757 L 14.9606,-331.373 L 15,-332
 L 15,-442 L 14.9606,-442.627 L 14.8429,-443.243 L 14.6489,-443.841 L 14.3815,-444.409 L 14.0451,-444.939
 L 13.6448,-445.423 L 13.1871,-445.853 L 12.6791,-446.222 L 12.1289,-446.524 L 11.5451,-446.755 L 10.9369,-446.911
 L 10.3139,-446.99 L -10.3139,-446.99 L -10.9369,-446.911 L -11.5451,-446.755 L -12.1289,-446.524 L -12.6791,-446.222
 L -13.1871,-445.853 L -13.6448,-445.423 L -14.0451,-444.939 L -14.3815,-444.409 L -14.6489,-443.841 L -14.8429,-443.243
 L -14.9606,-442.627 L -15,-442 L -15,-332 L -14.9606,-331.373 L -14.8429,-330.757 L -14.6489,-330.159
 L -14.3815,-329.591 L -14.0451,-329.061 L -13.6448,-328.577 L -13.1871,-328.147 L -12.6791,-327.778 L -12.1289,-327.476
 L -11.5451,-327.245 L -10.9369,-327.089 L -10.3139,-327.01 L 10.3139,-327.01 z
M -9.69545,-329.393 L -10.0833,-329.442 L -10.4619,-329.539 L -10.8254,-329.683 L -11.168,-329.872 L -11.4842,-330.101
 L -11.7692,-330.369 L -12.0184,-330.67 L -12.2279,-331 L -12.3943,-331.354 L -12.5151,-331.726 L -12.5884,-332.11
 L -12.6129,-332.5 L -12.6129,-441.5 L -12.5884,-441.89 L -12.5151,-442.274 L -12.3943,-442.646 L -12.2279,-443
 L -12.0184,-443.33 L -11.7692,-443.631 L -11.4842,-443.899 L -11.168,-444.128 L -10.8254,-444.317 L -10.4619,-444.461
 L -10.0833,-444.558 L -9.69545,-444.607 L 9.69545,-444.607 L 10.0833,-444.558 L 10.4619,-444.461 L 10.8254,-444.317
 L 11.168,-444.128 L 11.4842,-443.899 L 11.7692,-443.631 L 12.0184,-443.33 L 12.2279,-443 L 12.3943,-442.646
 L 12.5151,-442.274 L 12.5884,-441.89 L 12.6129,-441.5 L 12.6129,-332.5 L 12.5884,-332.11 L 12.5151,-331.726
 L 12.3943,-331.354 L 12.2279,-331 L 12.0184,-330.67 L 11.7692,-330.369 L 11.4842,-330.101 L 11.168,-329.872
 L 10.8254,-329.683 L 10.4619,-329.539 L 10.0833,-329.442 L 9.69545,-329.393 z
M 10.9369,-198.089 L 11.5451,-198.245 L 12.1289,-198.476 L 12.6791,-198.778 L 13.1871,-199.147 L 13.6448,-199.577
 L 14.0451,-200.061 L 14.3815,-200.591 L 14.6489,-201.159 L 14.8429,-201.757 L 14.9606,-202.373 L 15,-203
 L 15,-313 L 14.9606,-313.627 L 14.8429,-314.243 L 14.6489,-314.841 L 14.3815,-315.409 L 14.0451,-315.939
 L 13.6448,-316.423 L 13.1871,-316.853 L 12.6791,-317.222 L 12.1289,-317.524 L 11.5451,-317.755 L 10.9369,-317.911
 L 10.3139,-317.99 L -10.3139,-317.99 L -10.9369,-317.911 L -11.5451,-317.755 L -12.1289,-317.524 L -12.6791,-317.222
 L -13.1871,-316.853 L -13.6448,-316.423 L -14.0451,-315.939 L -14.3815,-315.409 L -14.6489,-314.841 L -14.8429,-314.243
 L -14.9606,-313.627 L -15,-313 L -15,-203 L -14.9606,-202.373 L -14.8429,-201.757 L -14.6489,-201.159
 L -14.3815,-200.591 L -14.0451,-200.061 L -13.6448,-199.577 L -13.1871,-199.147 L -12.6791,-198.778 L -12.1289,-198.476
 L -11.5451,-198.245 L -10.9369,-198.089 L -10.3139,-198.01 L 10.3139,-198.01 z
M 7.36592,-308.369 L 7.09988,-308.403 L 6.84015,-308.469 L 6.59084,-308.568 L 6.35585,-308.697 L 6.1389,-308.855
 L 5.94344,-309.038 L 5.77251,-309.245 L 5.62881,-309.471 L 5.51465,-309.714 L 5.43178,-309.969 L 5.38153,-310.232
 L 5.3647,-310.5 L 5.38153,-310.768 L 5.43178,-311.031 L 5.51465,-311.286 L 5.62881,-311.529 L 5.77251,-311.755
 L 5.94344,-311.962 L 6.1389,-312.145 L 6.35585,-312.303 L 6.59084,-312.432 L 6.84015,-312.531 L 7.09988,-312.597
 L 7.36592,-312.631 L 7.63406,-312.631 L 7.9001,-312.597 L 8.15984,-312.531 L 8.40915,-312.432 L 8.64413,-312.303
 L 8.86108,-312.145 L 9.05655,-311.962 L 9.22748,-311.755 L 9.37117,-311.529 L 9.48534,-311.286 L 9.56821,-311.031
 L 9.61845,-310.768 L 9.63528,-310.5 L 9.61845,-310.232 L 9.56821,-309.969 L 9.48534,-309.714 L 9.37117,-309.471
 L 9.22748,-309.245 L 9.05655,-309.038 L 8.86108,-308.855 L 8.64413,-308.697 L 8.40915,-308.568 L 8.15984,-308.469
 L 7.9001,-308.403 L 7.63406,-308.369 z
M -7.63406,-308.369 L -7.9001,-308.403 L -8.15984,-308.469 L -8.40915,-308.568 L -8.64413,-308.697 L -8.86108,-308.855
 L -9.05655,-309.038 L -9.22748,-309.245 L -9.37117,-309.471 L -9.48534,-309.714 L -9.56821,-309.969 L -9.61845,-310.232
 L -9.63528,-310.5 L -9.61845,-310.768 L -9.56821,-311.031 L -9.48534,-311.286 L -9.37117,-311.529 L -9.22748,-311.755
 L -9.05655,-311.962 L -8.86108,-312.145 L -8.64413,-312.303 L -8.40915,-312.432 L -8.15984,-312.531 L -7.9001,-312.597
 L -7.63406,-312.631 L -7.36592,-312.631 L -7.09988,-312.597 L -6.84015,-312.531 L -6.59084,-312.432 L -6.35585,-312.303
 L -6.1389,-312.145 L -5.94344,-311.962 L -5.77251,-311.755 L -5.62881,-311.529 L -5.51465,-311.286 L -5.43178,-311.031
 L -5.38153,-310.768 L -5.3647,-310.5 L -5.38153,-310.232 L -5.43178,-309.969 L -5.51465,-309.714 L -5.62881,-309.471
 L -5.77251,-309.245 L -5.94344,-309.038 L -6.1389,-308.855 L -6.35585,-308.697 L -6.59084,-308.568 L -6.84015,-308.469
 L -7.09988,-308.403 L -7.36592,-308.369 z
M 7.36592,-203.369 L 7.09988,-203.403 L 6.84015,-203.469 L 6.59084,-203.568 L 6.35585,-203.697 L 6.1389,-203.855
 L 5.94344,-204.038 L 5.77251,-204.245 L 5.62881,-204.471 L 5.51465,-204.714 L 5.43178,-204.969 L 5.38153,-205.232
 L 5.3647,-205.5 L 5.38153,-205.768 L 5.43178,-206.031 L 5.51465,-206.286 L 5.62881,-206.529 L 5.77251,-206.755
 L 5.94344,-206.962 L 6.1389,-207.145 L 6.35585,-207.303 L 6.59084,-207.432 L 6.84015,-207.531 L 7.09988,-207.597
 L 7.36592,-207.631 L 7.63406,-207.631 L 7.9001,-207.597 L 8.15984,-207.531 L 8.40915,-207.432 L 8.64413,-207.303
 L 8.86108,-207.145 L 9.05655,-206.962 L 9.22748,-206.755 L 9.37117,-206.529 L 9.48534,-206.286 L 9.56821,-206.031
 L 9.61845,-205.768 L 9.63528,-205.5 L 9.61845,-205.232 L 9.56821,-204.969 L 9.48534,-204.714 L 9.37117,-204.471
 L 9.22748,-204.245 L 9.05655,-204.038 L 8.86108,-203.855 L 8.64413,-203.697 L 8.40915,-203.568 L 8.15984,-203.469
 L 7.9001,-203.403 L 7.63406,-203.369 z
M -7.63406,-203.369 L -7.9001,-203.403 L -8.15984,-203.469 L -8.40915,-203.568 L -8.64413,-203.697 L -8.86108,-203.855
 L -9.05655,-204.038 L -9.22748,-204.245 L -9.37117,-204.471 L -9.48534,-204.714 L -9.56821,-204.969 L -9.61845,-205.232
 L -9.63528,-205.5 L -9.61845,-205.768 L -9.56821,-206.031 L -9.48534,-206.286 L -9.37117,-206.529 L -9.22748,-206.755
 L -9.05655,-206.962 L -8.86108,-207.145 L -8.64413,-207.303 L -8.40915,-207.432 L -8.15984,-207.531 L -7.9001,-207.597
 L -7.63406,-207.631 L -7.36592,-207.631 L -7.09988,-207.597 L -6.84015,-207.531 L -6.59084,-207.432 L -6.35585,-207.303
 L -6.1389,-207.145 L -5.94344,-206.962 L -5.77251,-206.755 L -5.62881,-206.529 L -5.51465,-206.286 L -5.43178,-206.031
 L -5.38153,-205.768 L -5.3647,-205.5 L -5.38153,-205.232 L -5.43178,-204.969 L -5.51465,-204.714 L -5.62881,-204.471
 L -5.77251,-204.245 L -5.94344,-204.038 L -6.1389,-203.855 L -6.35585,-203.697 L -6.59084,-203.568 L -6.84015,-203.469
 L -7.09988,-203.403 L -7.36592,-203.369 z
" stroke="black" fill="lightgray" stroke-width="0.5"/>
</svg>
