<?xml version="1.0" standalone="no"?>
<!DOCTYPE svg PUBLIC "-//W3C//DTD SVG 1.1//EN" "http://www.w3.org/Graphics/SVG/1.1/DTD/svg11.dtd">
<svg width="46mm" height="412mm" viewBox="-23 -794 46 412" xmlns="http://www.w3.org/2000/svg" version="1.1">
<title>OpenSCAD Model</title>
<path d="
M 18.4369,-718.589 L 19.0451,-718.745 L 19.6289,-718.976 L 20.1791,-719.278 L 20.6871,-719.647 L 21.1448,-720.077
 L 21.5451,-720.561 L 21.8815,-721.091 L 22.1489,-721.659 L 22.3429,-722.257 L 22.4606,-722.873 L 22.5,-723.5
 L 22.5,-788.5 L 22.4606,-789.127 L 22.3429,-789.743 L 22.1489,-790.341 L 21.8815,-790.909 L 21.5451,-791.439
 L 21.1448,-791.923 L 20.6871,-792.353 L 20.1791,-792.722 L 19.6289,-793.024 L 19.0451,-793.255 L 18.4369,-793.411
 L 17.8139,-793.49 L -17.8139,-793.49 L -18.4369,-793.411 L -19.0451,-793.255 L -19.6289,-793.024 L -20.1791,-792.722
 L -20.6871,-792.353 L -21.1448,-791.923 L -21.5451,-791.439 L -21.8815,-790.909 L -22.1489,-790.341 L -22.3429,-789.743
 L -22.4606,-789.127 L -22.5,-788.5 L -22.5,-723.5 L -22.4606,-722.873 L -22.3429,-722.257 L -22.1489,-721.659
 L -21.8815,-721.091 L -21.5451,-720.561 L -21.1448,-720.077 L -20.6871,-719.647 L -20.1791,-719.278 L -19.6289,-718.976
 L -19.0451,-718.745 L -18.4369,-718.589 L -17.8139,-718.51 L 17.8139,-718.51 z
M -17.2512,-720.008 L -17.7495,-720.071 L -18.2361,-720.196 L -18.7031,-720.381 L -19.1433,-720.623 L -19.5497,-720.918
 L -19.9159,-721.262 L -20.2361,-721.649 L -20.5052,-722.073 L -20.7191,-722.528 L -20.8743,-723.005 L -20.9684,-723.499
 L -21,-724 L -21,-788 L -20.9684,-788.501 L -20.8743,-788.995 L -20.7191,-789.472 L -20.5052,-789.927
 L -20.2361,-790.351 L -19.9159,-790.738 L -19.5497,-791.082 L -19.1433,-791.377 L -18.7031,-791.619 L -18.2361,-791.804
 L -17.7495,-791.929 L -17.2512,-791.992 L 17.2512,-791.992 L 17.7495,-791.929 L 18.2361,-791.804 L 18.7031,-791.619
 L 19.1433,-791.377 L 19.5497,-791.082 L 19.9159,-790.738 L 20.2361,-790.351 L 20.5052,-789.927 L 20.7191,-789.472
 L 20.8743,-788.995 L 20.9684,-788.501 L 21,-788 L 21,-724 L 20.9684,-723.499 L 20.8743,-723.005
 L 20.7191,-722.528 L 20.5052,-722.073 L 20.2361,-721.649 L 19.9159,-721.262 L 19.5497,-720.918 L 19.1433,-720.623
 L 18.7031,-720.381 L 18.2361,-720.196 L 17.7495,-720.071 L 17.2512,-720.008 z
M 18.4369,-634.589 L 19.0451,-634.745 L 19.6289,-634.976 L 20.1791,-635.278 L 20.6871,-635.647 L 21.1448,-636.077
 L 21.5451,-636.561 L 21.8815,-637.091 L 22.1489,-637.659 L 22.3429,-638.257 L 22.4606,-638.873 L 22.5,-639.5
 L 22.5,-704.5 L 22.4606,-705.127 L 22.3429,-705.743 L 22.1489,-706.341 L 21.8815,-706.909 L 21.5451,-707.439
 L 21.1448,-707.923 L 20.6871,-708.353 L 20.1791,-708.722 L 19.6289,-709.024 L 19.0451,-709.255 L 18.4369,-709.411
 L 17.8139,-709.49 L -17.8139,-709.49 L -18.4369,-709.411 L -19.0451,-709.255 L -19.6289,-709.024 L -20.1791,-708.722
 L -20.6871,-708.353 L -21.1448,-707.923 L -21.5451,-707.439 L -21.8815,-706.909 L -22.1489,-706.341 L -22.3429,-705.743
 L -22.4606,-705.127 L -22.5,-704.5 L -22.5,-639.5 L -22.4606,-638.873 L -22.3429,-638.257 L -22.1489,-637.659
 L -21.8815,-637.091 L -21.5451,-636.561 L -21.1448,-636.077 L -20.6871,-635.647 L -20.1791,-635.278 L -19.6289,-634.976
 L -19.0451,-634.745 L -18.4369,-634.589 L -17.8139,-634.51 L 17.8139,-634.51 z
M -17.2512,-636.008 L -17.7495,-636.071 L -18.2361,-636.196 L -18.7031,-636.381 L -19.1433,-636.623 L -19.5497,-636.918
 L -19.9159,-637.262 L -20.2361,-637.649 L -20.5052,-638.073 L -20.7191,-638.528 L -20.8743,-639.005 L -20.9684,-639.499
 L -21,-640 L -21,-704 L -20.9684,-704.501 L -20.8743,-704.995 L -20.7191,-705.472 L -20.5052,-705.927
 L -20.2361,-706.351 L -19.9159,-706.738 L -19.5497,-707.082 L -19.1433,-707.377 L -18.7031,-707.619 L -18.2361,-707.804
 L -17.7495,-707.929 L -17.2512,-707.992 L 17.2512,-707.992 L 17.7495,-707.929 L 18.2361,-707.804 L 18.7031,-707.619
 L 19.1433,-707.377 L 19.5497,-707.082 L 19.9159,-706.738 L 20.2361,-706.351 L 20.5052,-705.927 L 20.7191,-705.472
 L 20.8743,-704.995 L 20.9684,-704.501 L 21,-704 L 21,-640 L 20.9684,-639.499 L 20.8743,-639.005
 L 20.7191,-638.528 L 20.5052,-638.073 L 20.2361,-637.649 L 19.9159,-637.262 L 19.5497,-636.918 L 19.1433,-636.623
 L 18.7031,-636.381 L 18.2361,-636.196 L 17.7495,-636.071 L 17.2512,-636.008 z
M 18.4369,-550.589 L 19.0451,-550.745 L 19.6289,-550.976 L 20.1791,-551.278 L 20.6871,-551.647 L 21.1448,-552.077
 L 21.5451,-552.561 L 21.8815,-553.091 L 22.1489,-553.659 L 22.3429,-554.257 L 22.4606,-554.873 L 22.5,-555.5
 L 22.5,-620.5 L 22.4606,-621.127 L 22.3429,-621.743 L 22.1489,-622.341 L 21.8815,-622.909 L 21.5451,-623.439
 L 21.1448,-623.923 L 20.6871,-624.353 L 20.1791,-624.722 L 19.6289,-625.024 L 19.0451,-625.255 L 18.4369,-625.411
 L 17.8139,-625.49 L -17.8139,-625.49 L -18.4369,-625.411 L -19.0451,-625.255 L -19.6289,-625.024 L -20.1791,-624.722
 L -20.6871,-624.353 L -21.1448,-623.923 L -21.5451,-623.439 L -21.8815,-622.909 L -22.1489,-622.341 L -22.3429,-621.743
 L -22.4606,-621.127 L -22.5,-620.5 L -22.5,-555.5 L -22.4606,-554.873 L -22.3429,-554.257 L -22.1489,-553.659
 L -21.8815,-553.091 L -21.5451,-552.561 L -21.1448,-552.077 L -20.6871,-551.647 L -20.1791,-551.278 L -19.6289,-550.976
 L -19.0451,-550.745 L -18.4369,-550.589 L -17.8139,-550.51 L 17.8139,-550.51 z
M -17.2512,-552.008 L -17.7495,-552.071 L -18.2361,-552.196 L -18.7031,-552.381 L -19.1433,-552.623 L -19.5497,-552.918
 L -19.9159,-553.262 L -20.2361,-553.649 L -20.5052,-554.073 L -20.7191,-554.528 L -20.8743,-555.005 L -20.9684,-555.499
 L -21,-556 L -21,-620 L -20.9684,-620.501 L -20.8743,-620.995 L -20.7191,-621.472 L -20.5052,-621.927
 L -20.2361,-622.351 L -19.9159,-622.738 L -19.5497,-623.082 L -19.1433,-623.377 L -18.7031,-623.619 L -18.2361,-623.804
 L -17.7495,-623.929 L -17.2512,-623.992 L 17.2512,-623.992 L 17.7495,-623.929 L 18.2361,-623.804 L 18.7031,-623.619
 L 19.1433,-623.377 L 19.5497,-623.082 L 19.9159,-622.738 L 20.2361,-622.351 L 20.5052,-621.927 L 20.7191,-621.472
 L 20.8743,-620.995 L 20.9684,-620.501 L 21,-620 L 21,-556 L 20.9684,-555.499 L 20.8743,-555.005
 L 20.7191,-554.528 L 20.5052,-554.073 L 20.2361,-553.649 L 19.9159,-553.262 L 19.5497,-552.918 L 19.1433,-552.623
 L 18.7031,-552.381 L 18.2361,-552.196 L 17.7495,-552.071 L 17.2512,-552.008 z
M 18.4369,-466.589 L 19.0451,-466.745 L 19.6289,-466.976 L 20.1791,-467.278 L 20.6871,-467.647 L 21.1448,-468.077
 L 21.5451,-468.561 L 21.8815,-469.091 L 22.1489,-469.659 L 22.3429,-470.257 L 22.4606,-470.873 L 22.5,-471.5
 L 22.5,-536.5 L 22.4606,-537.127 L 22.3429,-537.743 L 22.1489,-538.341 L 21.8815,-538.909 L 21.5451,-539.439
 L 21.1448,-539.923 L 20.6871,-540.353 L 20.1791,-540.722 L 19.6289,-541.024 L 19.0451,-541.255 L 18.4369,-541.411
 L 17.8139,-541.49 L -17.8139,-541.49 L -18.4369,-541.411 L -19.0451,-541.255 L -19.6289,-541.024 L -20.1791,-540.722
 L -20.6871,-540.353 L -21.1448,-539.923 L -21.5451,-539.439 L -21.8815,-538.909 L -22.1489,-538.341 L -22.3429,-537.743
 L -22.4606,-537.127 L -22.5,-536.5 L -22.5,-471.5 L -22.4606,-470.873 L -22.3429,-470.257 L -22.1489,-469.659
 L -21.8815,-469.091 L -21.5451,-468.561 L -21.1448,-468.077 L -20.6871,-467.647 L -20.1791,-467.278 L -19.6289,-466.976
 L -19.0451,-466.745 L -18.4369,-466.589 L -17.8139,-466.51 L 17.8139,-466.51 z
M -17.1954,-468.893 L -17.5833,-468.942 L -17.9619,-469.039 L -18.3254,-469.183 L -18.668,-469.372 L -18.9842,-469.601
 L -19.2692,-469.869 L -19.5184,-470.17 L -19.7279,-470.5 L -19.8943,-470.854 L -20.0151,-471.226 L -20.0884,-471.61
 L -20.1129,-472 L -20.1129,-536 L -20.0884,-536.39 L -20.0151,-536.774 L -19.8943,-537.146 L -19.7279,-537.5
 L -19.5184,-537.83 L -19.2692,-538.131 L -18.9842,-538.399 L -18.668,-538.628 L -18.3254,-538.817 L -17.9619,-538.961
 L -17.5833,-539.058 L -17.1954,-539.107 L 17.1954,-539.107 L 17.5833,-539.058 L 17.9619,-538.961 L 18.3254,-538.817
 L 18.668,-538.628 L 18.9842,-538.399 L 19.2692,-538.131 L 19.5184,-537.83 L 19.7279,-537.5 L 19.8943,-537.146
 L 20.0151,-536.774 L 20.0884,-536.39 L 20.1129,-536 L 20.1129,-472 L 20.0884,-471.61 L 20.0151,-471.226
 L 19.8943,-470.854 L 19.7279,-470.5 L 19.5184,-470.17 L 19.2692,-469.869 L 18.9842,-469.601 L 18.668,-469.372
 L 18.3254,-469.183 L 17.9619,-469.039 L 17.5833,-468.942 L 17.1954,-468.893 z
M 18.4369,-382.589 L 19.0451,-382.745 L 19.6289,-382.976 L 20.1791,-383.278 L 20.6871,-383.647 L 21.1448,-384.077
 L 21.5451,-384.561 L 21.8815,-385.091 L 22.1489,-385.659 L 22.3429,-386.257 L 22.4606,-386.873 L 22.5,-387.5
 L 22.5,-452.5 L 22.4606,-453.127 L 22.3429,-453.743 L 22.1489,-454.341 L 21.8815,-454.909 L 21.5451,-455.439
 L 21.1448,-455.923 L 20.6871,-456.353 L 20.1791,-456.722 L 19.6289,-457.024 L 19.0451,-457.255 L 18.4369,-457.411
 L 17.8139,-457.49 L -17.8139,-457.49 L -18.4369,-457.411 L -19.0451,-457.255 L -19.6289,-457.024 L -20.1791,-456.722
 L -20.6871,-456.353 L -21.1448,-455.923 L -21.5451,-455.439 L -21.8815,-454.909 L -22.1489,-454.341 L -22.3429,-453.743
 L -22.4606,-453.127 L -22.5,-452.5 L -22.5,-387.5 L -22.4606,-386.873 L -22.3429,-386.257 L -22.1489,-385.659
 L -21.8815,-385.091 L -21.5451,-384.561 L -21.1448,-384.077 L -20.6871,-383.647 L -20.1791,-383.278 L -19.6289,-382.976
 L -19.0451,-382.745 L -18.4369,-382.589 L -17.8139,-382.51 L 17.8139,-382.51 z
M 14.8659,-447.869 L 14.5999,-447.903 L 14.3401,-447.969 L 14.0908,-448.068 L 13.8559,-448.197 L 13.6389,-448.355
 L 13.4434,-448.538 L 13.2725,-448.745 L 13.1288,-448.971 L 13.0146,-449.214 L 12.9318,-449.469 L 12.8815,-449.732
 L 12.8647,-450 L 12.8815,-450.268 L 12.9318,-450.531 L 13.0146,-450.786 L 13.1288,-451.029 L 13.2725,-451.255
 L 13.4434,-451.462 L 13.6389,-451.645 L 13.8559,-451.803 L 14.0908,-451.932 L 14.3401,-452.031 L 14.5999,-452.097
 L 14.8659,-452.131 L 15.1341,-452.131 L 15.4001,-452.097 L 15.6598,-452.031 L 15.9091,-451.932 L 16.1441,-451.803
 L 16.3611,-451.645 L 16.5565,-451.462 L 16.7275,-451.255 L 16.8712,-451.029 L 16.9853,-450.786 L 17.0682,-450.531
 L 17.1185,-450.268 L 17.1353,-450 L 17.1185,-449.732 L 17.0682,-449.469 L 16.9853,-449.214 L 16.8712,-448.971
 L 16.7275,-448.745 L 16.5565,-448.538 L 16.3611,-448.355 L 16.1441,-448.197 L 15.9091,-448.068 L 15.6598,-447.969
 L 15.4001,-447.903 L 15.1341,-447.869 z
M -15.1341,-447.869 L -15.4001,-447.903 L -15.6598,-447.969 L -15.9091,-448.068 L -16.1441,-448.197 L -16.3611,-448.355
 L -16.5565,-448.538 L -16.7275,-448.745 L -16.8712,-448.971 L -16.9853,-449.214 L -17.0682,-449.469 L -17.1185,-449.732
 L -17.1353,-450 L -17.1185,-450.268 L -17.0682,-450.531 L -16.9853,-450.786 L -16.8712,-451.029 L -16.7275,-451.255
 L -16.5565,-451.462 L -16.3611,-451.645 L -16.1441,-451.803 L -15.9091,-451.932 L -15.6598,-452.031 L -15.4001,-452.097
 L -15.1341,-452.131 L -14.8659,-452.131 L -14.5999,-452.097 L -14.3401,-452.031 L -14.0908,-451.932 L -13.8559,-451.803
 L -13.6389,-451.645 L -13.4434,-451.462 L -13.2725,-451.255 L -13.1288,-451.029 L -13.0146,-450.786 L -12.9318,-450.531
 L -12.8815,-450.268 L -12.8647,-450 L -12.8815,-449.732 L -12.9318,-449.469 L -13.0146,-449.214 L -13.1288,-448.971
 L -13.2725,-448.745 L -13.4434,-448.538 L -13.6389,-448.355 L -13.8559,-448.197 L -14.0908,-448.068 L -14.3401,-447.969
 L -14.5999,-447.903 L -14.8659,-447.869 z
M 14.8659,-387.869 L 14.5999,-387.903 L 14.3401,-387.969 L 14.0908,-388.068 L 13.8559,-388.197 L 13.6389,-388.355
 L 13.4434,-388.538 L 13.2725,-388.745 L 13.1288,-388.971 L 13.0146,-389.214 L 12.9318,-389.469 L 12.8815,-389.732
 L 12.8647,-390 L 12.8815,-390.268 L 12.9318,-390.531 L 13.0146,-390.786 L 13.1288,-391.029 L 13.2725,-391.255
 L 13.4434,-391.462 L 13.6389,-391.645 L 13.8559,-391.803 L 14.0908,-391.932 L 14.3401,-392.031 L 14.5999,-392.097
 L 14.8659,-392.131 L 15.1341,-392.131 L 15.4001,-392.097 L 15.6598,-392.031 L 15.9091,-391.932 L 16.1441,-391.803
 L 16.3611,-391.645 L 16.5565,-391.462 L 16.7275,-391.255 L 16.8712,-391.029 L 16.9853,-390.786 L 17.0682,-390.531
 L 17.1185,-390.268 L 17.1353,-390 L 17.1185,-389.732 L 17.0682,-389.469 L 16.9853,-389.214 L 16.8712,-388.971
 L 16.7275,-388.745 L 16.5565,-388.538 L 16.3611,-388.355 L 16.1441,-388.197 L 15.9091,-388.068 L 15.6598,-387.969
 L 15.4001,-387.903 L 15.1341,-387.869 z
M -15.1341,-387.869 L -15.4001,-387.903 L -15.6598,-387.969 L -15.9091,-388.068 L -16.1441,-388.197 L -16.3611,-388.355
 L -16.5565,-388.538 L -16.7275,-388.745 L -16.8712,-388.971 L -16.9853,-389.214 L -17.0682,-389.469 L -17.1185,-389.732
 L -17.1353,-390 L -17.1185,-390.268 L -17.0682,-390.531 L -16.9853,-390.786 L -16.8712,-391.029 L -16.7275,-391.255
 L -16.5565,-391.462 L -16.3611,-391.645 L -16.1441,-391.803 L -15.9091,-391.932 L -15.6598,-392.031 L -15.4001,-392.097
 L -15.1341,-392.131 L -14.8659,-392.131 L -14.5999,-392.097 L -14.3401,-392.031 L -14.0908,-391.932 L -13.8559,-391.803
 L -13.6389,-391.645 L -13.4434,-391.462 L -13.2725,-391.255 L -13.1288,-391.029 L -13.0146,-390.786 L -12.9318,-390.531
 L -12.8815,-390.268 L -12.8647,-390 L -12.8815,-389.732 L -12.9318,-389.469 L -13.0146,-389.214 L -13.1288,-388.971
 L -13.2725,-388.745 L -13.4434,-388.538 L -13.6389,-388.355 L -13.8559,-388.197 L -14.0908,-388.068 L -14.3401,-387.969
 L -14.5999,-387.903 L -14.8659,-387.869 z
" stroke="black" fill="lightgray" stroke-width="0.5"/>
</svg>
