  0
SECTION
  2
BLOCKS
  0
ENDSEC
  0
SECTION
  2
ENTITIES
  0
LINE
  8
0
 10
18.4369
 20
517.589
 11
19.0451
 21
517.745
  0
LINE
  8
0
 10
19.0451
 20
517.745
 11
19.6289
 21
517.976
  0
LINE
  8
0
 10
19.6289
 20
517.976
 11
20.1791
 21
518.278
  0
LINE
  8
0
 10
20.1791
 20
518.278
 11
20.6871
 21
518.647
  0
LINE
  8
0
 10
20.6871
 20
518.647
 11
21.1448
 21
519.077
  0
LINE
  8
0
 10
21.1448
 20
519.077
 11
21.5451
 21
519.561
  0
LINE
  8
0
 10
21.5451
 20
519.561
 11
21.8815
 21
520.091
  0
LINE
  8
0
 10
21.8815
 20
520.091
 11
22.1489
 21
520.659
  0
LINE
  8
0
 10
22.1489
 20
520.659
 11
22.3429
 21
521.257
  0
LINE
  8
0
 10
22.3429
 20
521.257
 11
22.4606
 21
521.873
  0
LINE
  8
0
 10
22.4606
 20
521.873
 11
22.5
 21
522.5
  0
LINE
  8
0
 10
22.5
 20
522.5
 11
22.5
 21
617.5
  0
LINE
  8
0
 10
22.5
 20
617.5
 11
22.4606
 21
618.127
  0
LINE
  8
0
 10
22.4606
 20
618.127
 11
22.3429
 21
618.743
  0
LINE
  8
0
 10
22.3429
 20
618.743
 11
22.1489
 21
619.341
  0
LINE
  8
0
 10
22.1489
 20
619.341
 11
21.8815
 21
619.909
  0
LINE
  8
0
 10
21.8815
 20
619.909
 11
21.5451
 21
620.439
  0
LINE
  8
0
 10
21.5451
 20
620.439
 11
21.1448
 21
620.923
  0
LINE
  8
0
 10
21.1448
 20
620.923
 11
20.6871
 21
621.353
  0
LINE
  8
0
 10
20.6871
 20
621.353
 11
20.1791
 21
621.722
  0
LINE
  8
0
 10
20.1791
 20
621.722
 11
19.6289
 21
622.024
  0
LINE
  8
0
 10
19.6289
 20
622.024
 11
19.0451
 21
622.255
  0
LINE
  8
0
 10
19.0451
 20
622.255
 11
18.4369
 21
622.411
  0
LINE
  8
0
 10
18.4369
 20
622.411
 11
17.8139
 21
622.49
  0
LINE
  8
0
 10
17.8139
 20
622.49
 11
-17.8139
 21
622.49
  0
LINE
  8
0
 10
-17.8139
 20
622.49
 11
-18.4369
 21
622.411
  0
LINE
  8
0
 10
-18.4369
 20
622.411
 11
-19.0451
 21
622.255
  0
LINE
  8
0
 10
-19.0451
 20
622.255
 11
-19.6289
 21
622.024
  0
LINE
  8
0
 10
-19.6289
 20
622.024
 11
-20.1791
 21
621.722
  0
LINE
  8
0
 10
-20.1791
 20
621.722
 11
-20.6871
 21
621.353
  0
LINE
  8
0
 10
-20.6871
 20
621.353
 11
-21.1448
 21
620.923
  0
LINE
  8
0
 10
-21.1448
 20
620.923
 11
-21.5451
 21
620.439
  0
LINE
  8
0
 10
-21.5451
 20
620.439
 11
-21.8815
 21
619.909
  0
LINE
  8
0
 10
-21.8815
 20
619.909
 11
-22.1489
 21
619.341
  0
LINE
  8
0
 10
-22.1489
 20
619.341
 11
-22.3429
 21
618.743
  0
LINE
  8
0
 10
-22.3429
 20
618.743
 11
-22.4606
 21
618.127
  0
LINE
  8
0
 10
-22.4606
 20
618.127
 11
-22.5
 21
617.5
  0
LINE
  8
0
 10
-22.5
 20
617.5
 11
-22.5
 21
522.5
  0
LINE
  8
0
 10
-22.5
 20
522.5
 11
-22.4606
 21
521.873
  0
LINE
  8
0
 10
-22.4606
 20
521.873
 11
-22.3429
 21
521.257
  0
LINE
  8
0
 10
-22.3429
 20
521.257
 11
-22.1489
 21
520.659
  0
LINE
  8
0
 10
-22.1489
 20
520.659
 11
-21.8815
 21
520.091
  0
LINE
  8
0
 10
-21.8815
 20
520.091
 11
-21.5451
 21
519.561
  0
LINE
  8
0
 10
-21.5451
 20
519.561
 11
-21.1448
 21
519.077
  0
LINE
  8
0
 10
-21.1448
 20
519.077
 11
-20.6871
 21
518.647
  0
LINE
  8
0
 10
-20.6871
 20
518.647
 11
-20.1791
 21
518.278
  0
LINE
  8
0
 10
-20.1791
 20
518.278
 11
-19.6289
 21
517.976
  0
LINE
  8
0
 10
-19.6289
 20
517.976
 11
-19.0451
 21
517.745
  0
LINE
  8
0
 10
-19.0451
 20
517.745
 11
-18.4369
 21
517.589
  0
LINE
  8
0
 10
-18.4369
 20
517.589
 11
-17.8139
 21
517.51
  0
LINE
  8
0
 10
-17.8139
 20
517.51
 11
17.8139
 21
517.51
  0
LINE
  8
0
 10
17.8139
 20
517.51
 11
18.4369
 21
517.589
  0
LINE
  8
0
 10
-17.2512
 20
519.008
 11
-17.7495
 21
519.071
  0
LINE
  8
0
 10
-17.7495
 20
519.071
 11
-18.2361
 21
519.196
  0
LINE
  8
0
 10
-18.2361
 20
519.196
 11
-18.7031
 21
519.381
  0
LINE
  8
0
 10
-18.7031
 20
519.381
 11
-19.1433
 21
519.623
  0
LINE
  8
0
 10
-19.1433
 20
519.623
 11
-19.5497
 21
519.918
  0
LINE
  8
0
 10
-19.5497
 20
519.918
 11
-19.9159
 21
520.262
  0
LINE
  8
0
 10
-19.9159
 20
520.262
 11
-20.2361
 21
520.649
  0
LINE
  8
0
 10
-20.2361
 20
520.649
 11
-20.5052
 21
521.073
  0
LINE
  8
0
 10
-20.5052
 20
521.073
 11
-20.7191
 21
521.528
  0
LINE
  8
0
 10
-20.7191
 20
521.528
 11
-20.8743
 21
522.005
  0
LINE
  8
0
 10
-20.8743
 20
522.005
 11
-20.9684
 21
522.499
  0
LINE
  8
0
 10
-20.9684
 20
522.499
 11
-21
 21
523
  0
LINE
  8
0
 10
-21
 20
523
 11
-21
 21
617
  0
LINE
  8
0
 10
-21
 20
617
 11
-20.9684
 21
617.501
  0
LINE
  8
0
 10
-20.9684
 20
617.501
 11
-20.8743
 21
617.995
  0
LINE
  8
0
 10
-20.8743
 20
617.995
 11
-20.7191
 21
618.472
  0
LINE
  8
0
 10
-20.7191
 20
618.472
 11
-20.5052
 21
618.927
  0
LINE
  8
0
 10
-20.5052
 20
618.927
 11
-20.2361
 21
619.351
  0
LINE
  8
0
 10
-20.2361
 20
619.351
 11
-19.9159
 21
619.738
  0
LINE
  8
0
 10
-19.9159
 20
619.738
 11
-19.5497
 21
620.082
  0
LINE
  8
0
 10
-19.5497
 20
620.082
 11
-19.1433
 21
620.377
  0
LINE
  8
0
 10
-19.1433
 20
620.377
 11
-18.7031
 21
620.619
  0
LINE
  8
0
 10
-18.7031
 20
620.619
 11
-18.2361
 21
620.804
  0
LINE
  8
0
 10
-18.2361
 20
620.804
 11
-17.7495
 21
620.929
  0
LINE
  8
0
 10
-17.7495
 20
620.929
 11
-17.2512
 21
620.992
  0
LINE
  8
0
 10
-17.2512
 20
620.992
 11
17.2512
 21
620.992
  0
LINE
  8
0
 10
17.2512
 20
620.992
 11
17.7495
 21
620.929
  0
LINE
  8
0
 10
17.7495
 20
620.929
 11
18.2361
 21
620.804
  0
LINE
  8
0
 10
18.2361
 20
620.804
 11
18.7031
 21
620.619
  0
LINE
  8
0
 10
18.7031
 20
620.619
 11
19.1433
 21
620.377
  0
LINE
  8
0
 10
19.1433
 20
620.377
 11
19.5497
 21
620.082
  0
LINE
  8
0
 10
19.5497
 20
620.082
 11
19.9159
 21
619.738
  0
LINE
  8
0
 10
19.9159
 20
619.738
 11
20.2361
 21
619.351
  0
LINE
  8
0
 10
20.2361
 20
619.351
 11
20.5052
 21
618.927
  0
LINE
  8
0
 10
20.5052
 20
618.927
 11
20.7191
 21
618.472
  0
LINE
  8
0
 10
20.7191
 20
618.472
 11
20.8743
 21
617.995
  0
LINE
  8
0
 10
20.8743
 20
617.995
 11
20.9684
 21
617.501
  0
LINE
  8
0
 10
20.9684
 20
617.501
 11
21
 21
617
  0
LINE
  8
0
 10
21
 20
617
 11
21
 21
523
  0
LINE
  8
0
 10
21
 20
523
 11
20.9684
 21
522.499
  0
LINE
  8
0
 10
20.9684
 20
522.499
 11
20.8743
 21
522.005
  0
LINE
  8
0
 10
20.8743
 20
522.005
 11
20.7191
 21
521.528
  0
LINE
  8
0
 10
20.7191
 20
521.528
 11
20.5052
 21
521.073
  0
LINE
  8
0
 10
20.5052
 20
521.073
 11
20.2361
 21
520.649
  0
LINE
  8
0
 10
20.2361
 20
520.649
 11
19.9159
 21
520.262
  0
LINE
  8
0
 10
19.9159
 20
520.262
 11
19.5497
 21
519.918
  0
LINE
  8
0
 10
19.5497
 20
519.918
 11
19.1433
 21
519.623
  0
LINE
  8
0
 10
19.1433
 20
519.623
 11
18.7031
 21
519.381
  0
LINE
  8
0
 10
18.7031
 20
519.381
 11
18.2361
 21
519.196
  0
LINE
  8
0
 10
18.2361
 20
519.196
 11
17.7495
 21
519.071
  0
LINE
  8
0
 10
17.7495
 20
519.071
 11
17.2512
 21
519.008
  0
LINE
  8
0
 10
17.2512
 20
519.008
 11
-17.2512
 21
519.008
  0
LINE
  8
0
 10
18.4369
 20
403.589
 11
19.0451
 21
403.745
  0
LINE
  8
0
 10
19.0451
 20
403.745
 11
19.6289
 21
403.976
  0
LINE
  8
0
 10
19.6289
 20
403.976
 11
20.1791
 21
404.278
  0
LINE
  8
0
 10
20.1791
 20
404.278
 11
20.6871
 21
404.647
  0
LINE
  8
0
 10
20.6871
 20
404.647
 11
21.1448
 21
405.077
  0
LINE
  8
0
 10
21.1448
 20
405.077
 11
21.5451
 21
405.561
  0
LINE
  8
0
 10
21.5451
 20
405.561
 11
21.8815
 21
406.091
  0
LINE
  8
0
 10
21.8815
 20
406.091
 11
22.1489
 21
406.659
  0
LINE
  8
0
 10
22.1489
 20
406.659
 11
22.3429
 21
407.257
  0
LINE
  8
0
 10
22.3429
 20
407.257
 11
22.4606
 21
407.873
  0
LINE
  8
0
 10
22.4606
 20
407.873
 11
22.5
 21
408.5
  0
LINE
  8
0
 10
22.5
 20
408.5
 11
22.5
 21
503.5
  0
LINE
  8
0
 10
22.5
 20
503.5
 11
22.4606
 21
504.127
  0
LINE
  8
0
 10
22.4606
 20
504.127
 11
22.3429
 21
504.743
  0
LINE
  8
0
 10
22.3429
 20
504.743
 11
22.1489
 21
505.341
  0
LINE
  8
0
 10
22.1489
 20
505.341
 11
21.8815
 21
505.909
  0
LINE
  8
0
 10
21.8815
 20
505.909
 11
21.5451
 21
506.439
  0
LINE
  8
0
 10
21.5451
 20
506.439
 11
21.1448
 21
506.923
  0
LINE
  8
0
 10
21.1448
 20
506.923
 11
20.6871
 21
507.353
  0
LINE
  8
0
 10
20.6871
 20
507.353
 11
20.1791
 21
507.722
  0
LINE
  8
0
 10
20.1791
 20
507.722
 11
19.6289
 21
508.024
  0
LINE
  8
0
 10
19.6289
 20
508.024
 11
19.0451
 21
508.255
  0
LINE
  8
0
 10
19.0451
 20
508.255
 11
18.4369
 21
508.411
  0
LINE
  8
0
 10
18.4369
 20
508.411
 11
17.8139
 21
508.49
  0
LINE
  8
0
 10
17.8139
 20
508.49
 11
-17.8139
 21
508.49
  0
LINE
  8
0
 10
-17.8139
 20
508.49
 11
-18.4369
 21
508.411
  0
LINE
  8
0
 10
-18.4369
 20
508.411
 11
-19.0451
 21
508.255
  0
LINE
  8
0
 10
-19.0451
 20
508.255
 11
-19.6289
 21
508.024
  0
LINE
  8
0
 10
-19.6289
 20
508.024
 11
-20.1791
 21
507.722
  0
LINE
  8
0
 10
-20.1791
 20
507.722
 11
-20.6871
 21
507.353
  0
LINE
  8
0
 10
-20.6871
 20
507.353
 11
-21.1448
 21
506.923
  0
LINE
  8
0
 10
-21.1448
 20
506.923
 11
-21.5451
 21
506.439
  0
LINE
  8
0
 10
-21.5451
 20
506.439
 11
-21.8815
 21
505.909
  0
LINE
  8
0
 10
-21.8815
 20
505.909
 11
-22.1489
 21
505.341
  0
LINE
  8
0
 10
-22.1489
 20
505.341
 11
-22.3429
 21
504.743
  0
LINE
  8
0
 10
-22.3429
 20
504.743
 11
-22.4606
 21
504.127
  0
LINE
  8
0
 10
-22.4606
 20
504.127
 11
-22.5
 21
503.5
  0
LINE
  8
0
 10
-22.5
 20
503.5
 11
-22.5
 21
408.5
  0
LINE
  8
0
 10
-22.5
 20
408.5
 11
-22.4606
 21
407.873
  0
LINE
  8
0
 10
-22.4606
 20
407.873
 11
-22.3429
 21
407.257
  0
LINE
  8
0
 10
-22.3429
 20
407.257
 11
-22.1489
 21
406.659
  0
LINE
  8
0
 10
-22.1489
 20
406.659
 11
-21.8815
 21
406.091
  0
LINE
  8
0
 10
-21.8815
 20
406.091
 11
-21.5451
 21
405.561
  0
LINE
  8
0
 10
-21.5451
 20
405.561
 11
-21.1448
 21
405.077
  0
LINE
  8
0
 10
-21.1448
 20
405.077
 11
-20.6871
 21
404.647
  0
LINE
  8
0
 10
-20.6871
 20
404.647
 11
-20.1791
 21
404.278
  0
LINE
  8
0
 10
-20.1791
 20
404.278
 11
-19.6289
 21
403.976
  0
LINE
  8
0
 10
-19.6289
 20
403.976
 11
-19.0451
 21
403.745
  0
LINE
  8
0
 10
-19.0451
 20
403.745
 11
-18.4369
 21
403.589
  0
LINE
  8
0
 10
-18.4369
 20
403.589
 11
-17.8139
 21
403.51
  0
LINE
  8
0
 10
-17.8139
 20
403.51
 11
17.8139
 21
403.51
  0
LINE
  8
0
 10
17.8139
 20
403.51
 11
18.4369
 21
403.589
  0
LINE
  8
0
 10
-17.1954
 20
405.893
 11
-17.5833
 21
405.942
  0
LINE
  8
0
 10
-17.5833
 20
405.942
 11
-17.9619
 21
406.039
  0
LINE
  8
0
 10
-17.9619
 20
406.039
 11
-18.3254
 21
406.183
  0
LINE
  8
0
 10
-18.3254
 20
406.183
 11
-18.668
 21
406.372
  0
LINE
  8
0
 10
-18.668
 20
406.372
 11
-18.9842
 21
406.601
  0
LINE
  8
0
 10
-18.9842
 20
406.601
 11
-19.2692
 21
406.869
  0
LINE
  8
0
 10
-19.2692
 20
406.869
 11
-19.5184
 21
407.17
  0
LINE
  8
0
 10
-19.5184
 20
407.17
 11
-19.7279
 21
407.5
  0
LINE
  8
0
 10
-19.7279
 20
407.5
 11
-19.8943
 21
407.854
  0
LINE
  8
0
 10
-19.8943
 20
407.854
 11
-20.0151
 21
408.226
  0
LINE
  8
0
 10
-20.0151
 20
408.226
 11
-20.0884
 21
408.61
  0
LINE
  8
0
 10
-20.0884
 20
408.61
 11
-20.1129
 21
409
  0
LINE
  8
0
 10
-20.1129
 20
409
 11
-20.1129
 21
503
  0
LINE
  8
0
 10
-20.1129
 20
503
 11
-20.0884
 21
503.39
  0
LINE
  8
0
 10
-20.0884
 20
503.39
 11
-20.0151
 21
503.774
  0
LINE
  8
0
 10
-20.0151
 20
503.774
 11
-19.8943
 21
504.146
  0
LINE
  8
0
 10
-19.8943
 20
504.146
 11
-19.7279
 21
504.5
  0
LINE
  8
0
 10
-19.7279
 20
504.5
 11
-19.5184
 21
504.83
  0
LINE
  8
0
 10
-19.5184
 20
504.83
 11
-19.2692
 21
505.131
  0
LINE
  8
0
 10
-19.2692
 20
505.131
 11
-18.9842
 21
505.399
  0
LINE
  8
0
 10
-18.9842
 20
505.399
 11
-18.668
 21
505.628
  0
LINE
  8
0
 10
-18.668
 20
505.628
 11
-18.3254
 21
505.817
  0
LINE
  8
0
 10
-18.3254
 20
505.817
 11
-17.9619
 21
505.961
  0
LINE
  8
0
 10
-17.9619
 20
505.961
 11
-17.5833
 21
506.058
  0
LINE
  8
0
 10
-17.5833
 20
506.058
 11
-17.1954
 21
506.107
  0
LINE
  8
0
 10
-17.1954
 20
506.107
 11
17.1954
 21
506.107
  0
LINE
  8
0
 10
17.1954
 20
506.107
 11
17.5833
 21
506.058
  0
LINE
  8
0
 10
17.5833
 20
506.058
 11
17.9619
 21
505.961
  0
LINE
  8
0
 10
17.9619
 20
505.961
 11
18.3254
 21
505.817
  0
LINE
  8
0
 10
18.3254
 20
505.817
 11
18.668
 21
505.628
  0
LINE
  8
0
 10
18.668
 20
505.628
 11
18.9842
 21
505.399
  0
LINE
  8
0
 10
18.9842
 20
505.399
 11
19.2692
 21
505.131
  0
LINE
  8
0
 10
19.2692
 20
505.131
 11
19.5184
 21
504.83
  0
LINE
  8
0
 10
19.5184
 20
504.83
 11
19.7279
 21
504.5
  0
LINE
  8
0
 10
19.7279
 20
504.5
 11
19.8943
 21
504.146
  0
LINE
  8
0
 10
19.8943
 20
504.146
 11
20.0151
 21
503.774
  0
LINE
  8
0
 10
20.0151
 20
503.774
 11
20.0884
 21
503.39
  0
LINE
  8
0
 10
20.0884
 20
503.39
 11
20.1129
 21
503
  0
LINE
  8
0
 10
20.1129
 20
503
 11
20.1129
 21
409
  0
LINE
  8
0
 10
20.1129
 20
409
 11
20.0884
 21
408.61
  0
LINE
  8
0
 10
20.0884
 20
408.61
 11
20.0151
 21
408.226
  0
LINE
  8
0
 10
20.0151
 20
408.226
 11
19.8943
 21
407.854
  0
LINE
  8
0
 10
19.8943
 20
407.854
 11
19.7279
 21
407.5
  0
LINE
  8
0
 10
19.7279
 20
407.5
 11
19.5184
 21
407.17
  0
LINE
  8
0
 10
19.5184
 20
407.17
 11
19.2692
 21
406.869
  0
LINE
  8
0
 10
19.2692
 20
406.869
 11
18.9842
 21
406.601
  0
LINE
  8
0
 10
18.9842
 20
406.601
 11
18.668
 21
406.372
  0
LINE
  8
0
 10
18.668
 20
406.372
 11
18.3254
 21
406.183
  0
LINE
  8
0
 10
18.3254
 20
406.183
 11
17.9619
 21
406.039
  0
LINE
  8
0
 10
17.9619
 20
406.039
 11
17.5833
 21
405.942
  0
LINE
  8
0
 10
17.5833
 20
405.942
 11
17.1954
 21
405.893
  0
LINE
  8
0
 10
17.1954
 20
405.893
 11
-17.1954
 21
405.893
  0
LINE
  8
0
 10
18.4369
 20
289.589
 11
19.0451
 21
289.745
  0
LINE
  8
0
 10
19.0451
 20
289.745
 11
19.6289
 21
289.976
  0
LINE
  8
0
 10
19.6289
 20
289.976
 11
20.1791
 21
290.278
  0
LINE
  8
0
 10
20.1791
 20
290.278
 11
20.6871
 21
290.647
  0
LINE
  8
0
 10
20.6871
 20
290.647
 11
21.1448
 21
291.077
  0
LINE
  8
0
 10
21.1448
 20
291.077
 11
21.5451
 21
291.561
  0
LINE
  8
0
 10
21.5451
 20
291.561
 11
21.8815
 21
292.091
  0
LINE
  8
0
 10
21.8815
 20
292.091
 11
22.1489
 21
292.659
  0
LINE
  8
0
 10
22.1489
 20
292.659
 11
22.3429
 21
293.257
  0
LINE
  8
0
 10
22.3429
 20
293.257
 11
22.4606
 21
293.873
  0
LINE
  8
0
 10
22.4606
 20
293.873
 11
22.5
 21
294.5
  0
LINE
  8
0
 10
22.5
 20
294.5
 11
22.5
 21
389.5
  0
LINE
  8
0
 10
22.5
 20
389.5
 11
22.4606
 21
390.127
  0
LINE
  8
0
 10
22.4606
 20
390.127
 11
22.3429
 21
390.743
  0
LINE
  8
0
 10
22.3429
 20
390.743
 11
22.1489
 21
391.341
  0
LINE
  8
0
 10
22.1489
 20
391.341
 11
21.8815
 21
391.909
  0
LINE
  8
0
 10
21.8815
 20
391.909
 11
21.5451
 21
392.439
  0
LINE
  8
0
 10
21.5451
 20
392.439
 11
21.1448
 21
392.923
  0
LINE
  8
0
 10
21.1448
 20
392.923
 11
20.6871
 21
393.353
  0
LINE
  8
0
 10
20.6871
 20
393.353
 11
20.1791
 21
393.722
  0
LINE
  8
0
 10
20.1791
 20
393.722
 11
19.6289
 21
394.024
  0
LINE
  8
0
 10
19.6289
 20
394.024
 11
19.0451
 21
394.255
  0
LINE
  8
0
 10
19.0451
 20
394.255
 11
18.4369
 21
394.411
  0
LINE
  8
0
 10
18.4369
 20
394.411
 11
17.8139
 21
394.49
  0
LINE
  8
0
 10
17.8139
 20
394.49
 11
-17.8139
 21
394.49
  0
LINE
  8
0
 10
-17.8139
 20
394.49
 11
-18.4369
 21
394.411
  0
LINE
  8
0
 10
-18.4369
 20
394.411
 11
-19.0451
 21
394.255
  0
LINE
  8
0
 10
-19.0451
 20
394.255
 11
-19.6289
 21
394.024
  0
LINE
  8
0
 10
-19.6289
 20
394.024
 11
-20.1791
 21
393.722
  0
LINE
  8
0
 10
-20.1791
 20
393.722
 11
-20.6871
 21
393.353
  0
LINE
  8
0
 10
-20.6871
 20
393.353
 11
-21.1448
 21
392.923
  0
LINE
  8
0
 10
-21.1448
 20
392.923
 11
-21.5451
 21
392.439
  0
LINE
  8
0
 10
-21.5451
 20
392.439
 11
-21.8815
 21
391.909
  0
LINE
  8
0
 10
-21.8815
 20
391.909
 11
-22.1489
 21
391.341
  0
LINE
  8
0
 10
-22.1489
 20
391.341
 11
-22.3429
 21
390.743
  0
LINE
  8
0
 10
-22.3429
 20
390.743
 11
-22.4606
 21
390.127
  0
LINE
  8
0
 10
-22.4606
 20
390.127
 11
-22.5
 21
389.5
  0
LINE
  8
0
 10
-22.5
 20
389.5
 11
-22.5
 21
294.5
  0
LINE
  8
0
 10
-22.5
 20
294.5
 11
-22.4606
 21
293.873
  0
LINE
  8
0
 10
-22.4606
 20
293.873
 11
-22.3429
 21
293.257
  0
LINE
  8
0
 10
-22.3429
 20
293.257
 11
-22.1489
 21
292.659
  0
LINE
  8
0
 10
-22.1489
 20
292.659
 11
-21.8815
 21
292.091
  0
LINE
  8
0
 10
-21.8815
 20
292.091
 11
-21.5451
 21
291.561
  0
LINE
  8
0
 10
-21.5451
 20
291.561
 11
-21.1448
 21
291.077
  0
LINE
  8
0
 10
-21.1448
 20
291.077
 11
-20.6871
 21
290.647
  0
LINE
  8
0
 10
-20.6871
 20
290.647
 11
-20.1791
 21
290.278
  0
LINE
  8
0
 10
-20.1791
 20
290.278
 11
-19.6289
 21
289.976
  0
LINE
  8
0
 10
-19.6289
 20
289.976
 11
-19.0451
 21
289.745
  0
LINE
  8
0
 10
-19.0451
 20
289.745
 11
-18.4369
 21
289.589
  0
LINE
  8
0
 10
-18.4369
 20
289.589
 11
-17.8139
 21
289.51
  0
LINE
  8
0
 10
-17.8139
 20
289.51
 11
17.8139
 21
289.51
  0
LINE
  8
0
 10
17.8139
 20
289.51
 11
18.4369
 21
289.589
  0
LINE
  8
0
 10
14.8659
 20
384.869
 11
14.5999
 21
384.903
  0
LINE
  8
0
 10
14.5999
 20
384.903
 11
14.3401
 21
384.969
  0
LINE
  8
0
 10
14.3401
 20
384.969
 11
14.0908
 21
385.068
  0
LINE
  8
0
 10
14.0908
 20
385.068
 11
13.8559
 21
385.197
  0
LINE
  8
0
 10
13.8559
 20
385.197
 11
13.6389
 21
385.355
  0
LINE
  8
0
 10
13.6389
 20
385.355
 11
13.4434
 21
385.538
  0
LINE
  8
0
 10
13.4434
 20
385.538
 11
13.2725
 21
385.745
  0
LINE
  8
0
 10
13.2725
 20
385.745
 11
13.1288
 21
385.971
  0
LINE
  8
0
 10
13.1288
 20
385.971
 11
13.0146
 21
386.214
  0
LINE
  8
0
 10
13.0146
 20
386.214
 11
12.9318
 21
386.469
  0
LINE
  8
0
 10
12.9318
 20
386.469
 11
12.8815
 21
386.732
  0
LINE
  8
0
 10
12.8815
 20
386.732
 11
12.8647
 21
387
  0
LINE
  8
0
 10
12.8647
 20
387
 11
12.8815
 21
387.268
  0
LINE
  8
0
 10
12.8815
 20
387.268
 11
12.9318
 21
387.531
  0
LINE
  8
0
 10
12.9318
 20
387.531
 11
13.0146
 21
387.786
  0
LINE
  8
0
 10
13.0146
 20
387.786
 11
13.1288
 21
388.029
  0
LINE
  8
0
 10
13.1288
 20
388.029
 11
13.2725
 21
388.255
  0
LINE
  8
0
 10
13.2725
 20
388.255
 11
13.4434
 21
388.462
  0
LINE
  8
0
 10
13.4434
 20
388.462
 11
13.6389
 21
388.645
  0
LINE
  8
0
 10
13.6389
 20
388.645
 11
13.8559
 21
388.803
  0
LINE
  8
0
 10
13.8559
 20
388.803
 11
14.0908
 21
388.932
  0
LINE
  8
0
 10
14.0908
 20
388.932
 11
14.3401
 21
389.031
  0
LINE
  8
0
 10
14.3401
 20
389.031
 11
14.5999
 21
389.097
  0
LINE
  8
0
 10
14.5999
 20
389.097
 11
14.8659
 21
389.131
  0
LINE
  8
0
 10
14.8659
 20
389.131
 11
15.1341
 21
389.131
  0
LINE
  8
0
 10
15.1341
 20
389.131
 11
15.4001
 21
389.097
  0
LINE
  8
0
 10
15.4001
 20
389.097
 11
15.6598
 21
389.031
  0
LINE
  8
0
 10
15.6598
 20
389.031
 11
15.9091
 21
388.932
  0
LINE
  8
0
 10
15.9091
 20
388.932
 11
16.1441
 21
388.803
  0
LINE
  8
0
 10
16.1441
 20
388.803
 11
16.3611
 21
388.645
  0
LINE
  8
0
 10
16.3611
 20
388.645
 11
16.5565
 21
388.462
  0
LINE
  8
0
 10
16.5565
 20
388.462
 11
16.7275
 21
388.255
  0
LINE
  8
0
 10
16.7275
 20
388.255
 11
16.8712
 21
388.029
  0
LINE
  8
0
 10
16.8712
 20
388.029
 11
16.9853
 21
387.786
  0
LINE
  8
0
 10
16.9853
 20
387.786
 11
17.0682
 21
387.531
  0
LINE
  8
0
 10
17.0682
 20
387.531
 11
17.1185
 21
387.268
  0
LINE
  8
0
 10
17.1185
 20
387.268
 11
17.1353
 21
387
  0
LINE
  8
0
 10
17.1353
 20
387
 11
17.1185
 21
386.732
  0
LINE
  8
0
 10
17.1185
 20
386.732
 11
17.0682
 21
386.469
  0
LINE
  8
0
 10
17.0682
 20
386.469
 11
16.9853
 21
386.214
  0
LINE
  8
0
 10
16.9853
 20
386.214
 11
16.8712
 21
385.971
  0
LINE
  8
0
 10
16.8712
 20
385.971
 11
16.7275
 21
385.745
  0
LINE
  8
0
 10
16.7275
 20
385.745
 11
16.5565
 21
385.538
  0
LINE
  8
0
 10
16.5565
 20
385.538
 11
16.3611
 21
385.355
  0
LINE
  8
0
 10
16.3611
 20
385.355
 11
16.1441
 21
385.197
  0
LINE
  8
0
 10
16.1441
 20
385.197
 11
15.9091
 21
385.068
  0
LINE
  8
0
 10
15.9091
 20
385.068
 11
15.6598
 21
384.969
  0
LINE
  8
0
 10
15.6598
 20
384.969
 11
15.4001
 21
384.903
  0
LINE
  8
0
 10
15.4001
 20
384.903
 11
15.1341
 21
384.869
  0
LINE
  8
0
 10
15.1341
 20
384.869
 11
14.8659
 21
384.869
  0
LINE
  8
0
 10
-15.1341
 20
384.869
 11
-15.4001
 21
384.903
  0
LINE
  8
0
 10
-15.4001
 20
384.903
 11
-15.6598
 21
384.969
  0
LINE
  8
0
 10
-15.6598
 20
384.969
 11
-15.9091
 21
385.068
  0
LINE
  8
0
 10
-15.9091
 20
385.068
 11
-16.1441
 21
385.197
  0
LINE
  8
0
 10
-16.1441
 20
385.197
 11
-16.3611
 21
385.355
  0
LINE
  8
0
 10
-16.3611
 20
385.355
 11
-16.5565
 21
385.538
  0
LINE
  8
0
 10
-16.5565
 20
385.538
 11
-16.7275
 21
385.745
  0
LINE
  8
0
 10
-16.7275
 20
385.745
 11
-16.8712
 21
385.971
  0
LINE
  8
0
 10
-16.8712
 20
385.971
 11
-16.9853
 21
386.214
  0
LINE
  8
0
 10
-16.9853
 20
386.214
 11
-17.0682
 21
386.469
  0
LINE
  8
0
 10
-17.0682
 20
386.469
 11
-17.1185
 21
386.732
  0
LINE
  8
0
 10
-17.1185
 20
386.732
 11
-17.1353
 21
387
  0
LINE
  8
0
 10
-17.1353
 20
387
 11
-17.1185
 21
387.268
  0
LINE
  8
0
 10
-17.1185
 20
387.268
 11
-17.0682
 21
387.531
  0
LINE
  8
0
 10
-17.0682
 20
387.531
 11
-16.9853
 21
387.786
  0
LINE
  8
0
 10
-16.9853
 20
387.786
 11
-16.8712
 21
388.029
  0
LINE
  8
0
 10
-16.8712
 20
388.029
 11
-16.7275
 21
388.255
  0
LINE
  8
0
 10
-16.7275
 20
388.255
 11
-16.5565
 21
388.462
  0
LINE
  8
0
 10
-16.5565
 20
388.462
 11
-16.3611
 21
388.645
  0
LINE
  8
0
 10
-16.3611
 20
388.645
 11
-16.1441
 21
388.803
  0
LINE
  8
0
 10
-16.1441
 20
388.803
 11
-15.9091
 21
388.932
  0
LINE
  8
0
 10
-15.9091
 20
388.932
 11
-15.6598
 21
389.031
  0
LINE
  8
0
 10
-15.6598
 20
389.031
 11
-15.4001
 21
389.097
  0
LINE
  8
0
 10
-15.4001
 20
389.097
 11
-15.1341
 21
389.131
  0
LINE
  8
0
 10
-15.1341
 20
389.131
 11
-14.8659
 21
389.131
  0
LINE
  8
0
 10
-14.8659
 20
389.131
 11
-14.5999
 21
389.097
  0
LINE
  8
0
 10
-14.5999
 20
389.097
 11
-14.3401
 21
389.031
  0
LINE
  8
0
 10
-14.3401
 20
389.031
 11
-14.0908
 21
388.932
  0
LINE
  8
0
 10
-14.0908
 20
388.932
 11
-13.8559
 21
388.803
  0
LINE
  8
0
 10
-13.8559
 20
388.803
 11
-13.6389
 21
388.645
  0
LINE
  8
0
 10
-13.6389
 20
388.645
 11
-13.4434
 21
388.462
  0
LINE
  8
0
 10
-13.4434
 20
388.462
 11
-13.2725
 21
388.255
  0
LINE
  8
0
 10
-13.2725
 20
388.255
 11
-13.1288
 21
388.029
  0
LINE
  8
0
 10
-13.1288
 20
388.029
 11
-13.0146
 21
387.786
  0
LINE
  8
0
 10
-13.0146
 20
387.786
 11
-12.9318
 21
387.531
  0
LINE
  8
0
 10
-12.9318
 20
387.531
 11
-12.8815
 21
387.268
  0
LINE
  8
0
 10
-12.8815
 20
387.268
 11
-12.8647
 21
387
  0
LINE
  8
0
 10
-12.8647
 20
387
 11
-12.8815
 21
386.732
  0
LINE
  8
0
 10
-12.8815
 20
386.732
 11
-12.9318
 21
386.469
  0
LINE
  8
0
 10
-12.9318
 20
386.469
 11
-13.0146
 21
386.214
  0
LINE
  8
0
 10
-13.0146
 20
386.214
 11
-13.1288
 21
385.971
  0
LINE
  8
0
 10
-13.1288
 20
385.971
 11
-13.2725
 21
385.745
  0
LINE
  8
0
 10
-13.2725
 20
385.745
 11
-13.4434
 21
385.538
  0
LINE
  8
0
 10
-13.4434
 20
385.538
 11
-13.6389
 21
385.355
  0
LINE
  8
0
 10
-13.6389
 20
385.355
 11
-13.8559
 21
385.197
  0
LINE
  8
0
 10
-13.8559
 20
385.197
 11
-14.0908
 21
385.068
  0
LINE
  8
0
 10
-14.0908
 20
385.068
 11
-14.3401
 21
384.969
  0
LINE
  8
0
 10
-14.3401
 20
384.969
 11
-14.5999
 21
384.903
  0
LINE
  8
0
 10
-14.5999
 20
384.903
 11
-14.8659
 21
384.869
  0
LINE
  8
0
 10
-14.8659
 20
384.869
 11
-15.1341
 21
384.869
  0
LINE
  8
0
 10
14.8659
 20
294.869
 11
14.5999
 21
294.903
  0
LINE
  8
0
 10
14.5999
 20
294.903
 11
14.3401
 21
294.969
  0
LINE
  8
0
 10
14.3401
 20
294.969
 11
14.0908
 21
295.068
  0
LINE
  8
0
 10
14.0908
 20
295.068
 11
13.8559
 21
295.197
  0
LINE
  8
0
 10
13.8559
 20
295.197
 11
13.6389
 21
295.355
  0
LINE
  8
0
 10
13.6389
 20
295.355
 11
13.4434
 21
295.538
  0
LINE
  8
0
 10
13.4434
 20
295.538
 11
13.2725
 21
295.745
  0
LINE
  8
0
 10
13.2725
 20
295.745
 11
13.1288
 21
295.971
  0
LINE
  8
0
 10
13.1288
 20
295.971
 11
13.0146
 21
296.214
  0
LINE
  8
0
 10
13.0146
 20
296.214
 11
12.9318
 21
296.469
  0
LINE
  8
0
 10
12.9318
 20
296.469
 11
12.8815
 21
296.732
  0
LINE
  8
0
 10
12.8815
 20
296.732
 11
12.8647
 21
297
  0
LINE
  8
0
 10
12.8647
 20
297
 11
12.8815
 21
297.268
  0
LINE
  8
0
 10
12.8815
 20
297.268
 11
12.9318
 21
297.531
  0
LINE
  8
0
 10
12.9318
 20
297.531
 11
13.0146
 21
297.786
  0
LINE
  8
0
 10
13.0146
 20
297.786
 11
13.1288
 21
298.029
  0
LINE
  8
0
 10
13.1288
 20
298.029
 11
13.2725
 21
298.255
  0
LINE
  8
0
 10
13.2725
 20
298.255
 11
13.4434
 21
298.462
  0
LINE
  8
0
 10
13.4434
 20
298.462
 11
13.6389
 21
298.645
  0
LINE
  8
0
 10
13.6389
 20
298.645
 11
13.8559
 21
298.803
  0
LINE
  8
0
 10
13.8559
 20
298.803
 11
14.0908
 21
298.932
  0
LINE
  8
0
 10
14.0908
 20
298.932
 11
14.3401
 21
299.031
  0
LINE
  8
0
 10
14.3401
 20
299.031
 11
14.5999
 21
299.097
  0
LINE
  8
0
 10
14.5999
 20
299.097
 11
14.8659
 21
299.131
  0
LINE
  8
0
 10
14.8659
 20
299.131
 11
15.1341
 21
299.131
  0
LINE
  8
0
 10
15.1341
 20
299.131
 11
15.4001
 21
299.097
  0
LINE
  8
0
 10
15.4001
 20
299.097
 11
15.6598
 21
299.031
  0
LINE
  8
0
 10
15.6598
 20
299.031
 11
15.9091
 21
298.932
  0
LINE
  8
0
 10
15.9091
 20
298.932
 11
16.1441
 21
298.803
  0
LINE
  8
0
 10
16.1441
 20
298.803
 11
16.3611
 21
298.645
  0
LINE
  8
0
 10
16.3611
 20
298.645
 11
16.5565
 21
298.462
  0
LINE
  8
0
 10
16.5565
 20
298.462
 11
16.7275
 21
298.255
  0
LINE
  8
0
 10
16.7275
 20
298.255
 11
16.8712
 21
298.029
  0
LINE
  8
0
 10
16.8712
 20
298.029
 11
16.9853
 21
297.786
  0
LINE
  8
0
 10
16.9853
 20
297.786
 11
17.0682
 21
297.531
  0
LINE
  8
0
 10
17.0682
 20
297.531
 11
17.1185
 21
297.268
  0
LINE
  8
0
 10
17.1185
 20
297.268
 11
17.1353
 21
297
  0
LINE
  8
0
 10
17.1353
 20
297
 11
17.1185
 21
296.732
  0
LINE
  8
0
 10
17.1185
 20
296.732
 11
17.0682
 21
296.469
  0
LINE
  8
0
 10
17.0682
 20
296.469
 11
16.9853
 21
296.214
  0
LINE
  8
0
 10
16.9853
 20
296.214
 11
16.8712
 21
295.971
  0
LINE
  8
0
 10
16.8712
 20
295.971
 11
16.7275
 21
295.745
  0
LINE
  8
0
 10
16.7275
 20
295.745
 11
16.5565
 21
295.538
  0
LINE
  8
0
 10
16.5565
 20
295.538
 11
16.3611
 21
295.355
  0
LINE
  8
0
 10
16.3611
 20
295.355
 11
16.1441
 21
295.197
  0
LINE
  8
0
 10
16.1441
 20
295.197
 11
15.9091
 21
295.068
  0
LINE
  8
0
 10
15.9091
 20
295.068
 11
15.6598
 21
294.969
  0
LINE
  8
0
 10
15.6598
 20
294.969
 11
15.4001
 21
294.903
  0
LINE
  8
0
 10
15.4001
 20
294.903
 11
15.1341
 21
294.869
  0
LINE
  8
0
 10
15.1341
 20
294.869
 11
14.8659
 21
294.869
  0
LINE
  8
0
 10
-15.1341
 20
294.869
 11
-15.4001
 21
294.903
  0
LINE
  8
0
 10
-15.4001
 20
294.903
 11
-15.6598
 21
294.969
  0
LINE
  8
0
 10
-15.6598
 20
294.969
 11
-15.9091
 21
295.068
  0
LINE
  8
0
 10
-15.9091
 20
295.068
 11
-16.1441
 21
295.197
  0
LINE
  8
0
 10
-16.1441
 20
295.197
 11
-16.3611
 21
295.355
  0
LINE
  8
0
 10
-16.3611
 20
295.355
 11
-16.5565
 21
295.538
  0
LINE
  8
0
 10
-16.5565
 20
295.538
 11
-16.7275
 21
295.745
  0
LINE
  8
0
 10
-16.7275
 20
295.745
 11
-16.8712
 21
295.971
  0
LINE
  8
0
 10
-16.8712
 20
295.971
 11
-16.9853
 21
296.214
  0
LINE
  8
0
 10
-16.9853
 20
296.214
 11
-17.0682
 21
296.469
  0
LINE
  8
0
 10
-17.0682
 20
296.469
 11
-17.1185
 21
296.732
  0
LINE
  8
0
 10
-17.1185
 20
296.732
 11
-17.1353
 21
297
  0
LINE
  8
0
 10
-17.1353
 20
297
 11
-17.1185
 21
297.268
  0
LINE
  8
0
 10
-17.1185
 20
297.268
 11
-17.0682
 21
297.531
  0
LINE
  8
0
 10
-17.0682
 20
297.531
 11
-16.9853
 21
297.786
  0
LINE
  8
0
 10
-16.9853
 20
297.786
 11
-16.8712
 21
298.029
  0
LINE
  8
0
 10
-16.8712
 20
298.029
 11
-16.7275
 21
298.255
  0
LINE
  8
0
 10
-16.7275
 20
298.255
 11
-16.5565
 21
298.462
  0
LINE
  8
0
 10
-16.5565
 20
298.462
 11
-16.3611
 21
298.645
  0
LINE
  8
0
 10
-16.3611
 20
298.645
 11
-16.1441
 21
298.803
  0
LINE
  8
0
 10
-16.1441
 20
298.803
 11
-15.9091
 21
298.932
  0
LINE
  8
0
 10
-15.9091
 20
298.932
 11
-15.6598
 21
299.031
  0
LINE
  8
0
 10
-15.6598
 20
299.031
 11
-15.4001
 21
299.097
  0
LINE
  8
0
 10
-15.4001
 20
299.097
 11
-15.1341
 21
299.131
  0
LINE
  8
0
 10
-15.1341
 20
299.131
 11
-14.8659
 21
299.131
  0
LINE
  8
0
 10
-14.8659
 20
299.131
 11
-14.5999
 21
299.097
  0
LINE
  8
0
 10
-14.5999
 20
299.097
 11
-14.3401
 21
299.031
  0
LINE
  8
0
 10
-14.3401
 20
299.031
 11
-14.0908
 21
298.932
  0
LINE
  8
0
 10
-14.0908
 20
298.932
 11
-13.8559
 21
298.803
  0
LINE
  8
0
 10
-13.8559
 20
298.803
 11
-13.6389
 21
298.645
  0
LINE
  8
0
 10
-13.6389
 20
298.645
 11
-13.4434
 21
298.462
  0
LINE
  8
0
 10
-13.4434
 20
298.462
 11
-13.2725
 21
298.255
  0
LINE
  8
0
 10
-13.2725
 20
298.255
 11
-13.1288
 21
298.029
  0
LINE
  8
0
 10
-13.1288
 20
298.029
 11
-13.0146
 21
297.786
  0
LINE
  8
0
 10
-13.0146
 20
297.786
 11
-12.9318
 21
297.531
  0
LINE
  8
0
 10
-12.9318
 20
297.531
 11
-12.8815
 21
297.268
  0
LINE
  8
0
 10
-12.8815
 20
297.268
 11
-12.8647
 21
297
  0
LINE
  8
0
 10
-12.8647
 20
297
 11
-12.8815
 21
296.732
  0
LINE
  8
0
 10
-12.8815
 20
296.732
 11
-12.9318
 21
296.469
  0
LINE
  8
0
 10
-12.9318
 20
296.469
 11
-13.0146
 21
296.214
  0
LINE
  8
0
 10
-13.0146
 20
296.214
 11
-13.1288
 21
295.971
  0
LINE
  8
0
 10
-13.1288
 20
295.971
 11
-13.2725
 21
295.745
  0
LINE
  8
0
 10
-13.2725
 20
295.745
 11
-13.4434
 21
295.538
  0
LINE
  8
0
 10
-13.4434
 20
295.538
 11
-13.6389
 21
295.355
  0
LINE
  8
0
 10
-13.6389
 20
295.355
 11
-13.8559
 21
295.197
  0
LINE
  8
0
 10
-13.8559
 20
295.197
 11
-14.0908
 21
295.068
  0
LINE
  8
0
 10
-14.0908
 20
295.068
 11
-14.3401
 21
294.969
  0
LINE
  8
0
 10
-14.3401
 20
294.969
 11
-14.5999
 21
294.903
  0
LINE
  8
0
 10
-14.5999
 20
294.903
 11
-14.8659
 21
294.869
  0
LINE
  8
0
 10
-14.8659
 20
294.869
 11
-15.1341
 21
294.869
  0
ENDSEC
  0
SECTION
  2
OBJECTS
  0
DICTIONARY
  0
ENDSEC
  0
EOF
