<?xml version="1.0" standalone="no"?>
<!DOCTYPE svg PUBLIC "-//W3C//DTD SVG 1.1//EN" "http://www.w3.org/Graphics/SVG/1.1/DTD/svg11.dtd">
<svg width="16mm" height="309mm" viewBox="-8 -552 16 309" xmlns="http://www.w3.org/2000/svg" version="1.1">
<title>OpenSCAD Model</title>
<path d="
M 3.4369,-402.089 L 4.04507,-402.245 L 4.62889,-402.476 L 5.17912,-402.778 L 5.68712,-403.147 L 6.14484,-403.577
 L 6.54507,-404.061 L 6.88153,-404.591 L 7.14888,-405.159 L 7.34291,-405.757 L 7.46057,-406.373 L 7.5,-407
 L 7.5,-547 L 7.46057,-547.627 L 7.34291,-548.243 L 7.14888,-548.841 L 6.88153,-549.409 L 6.54507,-549.939
 L 6.14484,-550.423 L 5.68712,-550.853 L 5.17912,-551.222 L 4.62889,-551.524 L 4.04507,-551.755 L 3.4369,-551.911
 L 2.81395,-551.99 L -2.81395,-551.99 L -3.4369,-551.911 L -4.04507,-551.755 L -4.62889,-551.524 L -5.17912,-551.222
 L -5.68712,-550.853 L -6.14484,-550.423 L -6.54507,-549.939 L -6.88153,-549.409 L -7.14888,-548.841 L -7.34291,-548.243
 L -7.46057,-547.627 L -7.5,-547 L -7.5,-407 L -7.46057,-406.373 L -7.34291,-405.757 L -7.14888,-405.159
 L -6.88153,-404.591 L -6.54507,-404.061 L -6.14484,-403.577 L -5.68712,-403.147 L -5.17912,-402.778 L -4.62889,-402.476
 L -4.04507,-402.245 L -3.4369,-402.089 L -2.81395,-402.01 L 2.81395,-402.01 z
M -2.19545,-404.393 L -2.5833,-404.442 L -2.96194,-404.539 L -3.32541,-404.683 L -3.66798,-404.872 L -3.98424,-405.101
 L -4.26921,-405.369 L -4.5184,-405.67 L -4.72786,-406 L -4.89432,-406.354 L -5.01512,-406.726 L -5.08836,-407.11
 L -5.11292,-407.5 L -5.11292,-546.5 L -5.08836,-546.89 L -5.01512,-547.274 L -4.89432,-547.646 L -4.72786,-548
 L -4.5184,-548.33 L -4.26921,-548.631 L -3.98424,-548.899 L -3.66798,-549.128 L -3.32541,-549.317 L -2.96194,-549.461
 L -2.5833,-549.558 L -2.19545,-549.607 L 2.19545,-549.607 L 2.5833,-549.558 L 2.96194,-549.461 L 3.32541,-549.317
 L 3.66798,-549.128 L 3.98424,-548.899 L 4.26921,-548.631 L 4.5184,-548.33 L 4.72786,-548 L 4.89432,-547.646
 L 5.01512,-547.274 L 5.08836,-546.89 L 5.11292,-546.5 L 5.11292,-407.5 L 5.08836,-407.11 L 5.01512,-406.726
 L 4.89432,-406.354 L 4.72786,-406 L 4.5184,-405.67 L 4.26921,-405.369 L 3.98424,-405.101 L 3.66798,-404.872
 L 3.32541,-404.683 L 2.96194,-404.539 L 2.5833,-404.442 L 2.19545,-404.393 z
M 3.4369,-243.089 L 4.04507,-243.245 L 4.62889,-243.476 L 5.17912,-243.778 L 5.68712,-244.147 L 6.14484,-244.577
 L 6.54507,-245.061 L 6.88153,-245.591 L 7.14888,-246.159 L 7.34291,-246.757 L 7.46057,-247.373 L 7.5,-248
 L 7.5,-388 L 7.46057,-388.627 L 7.34291,-389.243 L 7.14888,-389.841 L 6.88153,-390.409 L 6.54507,-390.939
 L 6.14484,-391.423 L 5.68712,-391.853 L 5.17912,-392.222 L 4.62889,-392.524 L 4.04507,-392.755 L 3.4369,-392.911
 L 2.81395,-392.99 L -2.81395,-392.99 L -3.4369,-392.911 L -4.04507,-392.755 L -4.62889,-392.524 L -5.17912,-392.222
 L -5.68712,-391.853 L -6.14484,-391.423 L -6.54507,-390.939 L -6.88153,-390.409 L -7.14888,-389.841 L -7.34291,-389.243
 L -7.46057,-388.627 L -7.5,-388 L -7.5,-248 L -7.46057,-247.373 L -7.34291,-246.757 L -7.14888,-246.159
 L -6.88153,-245.591 L -6.54507,-245.061 L -6.14484,-244.577 L -5.68712,-244.147 L -5.17912,-243.778 L -4.62889,-243.476
 L -4.04507,-243.245 L -3.4369,-243.089 L -2.81395,-243.01 L 2.81395,-243.01 z
M -0.134064,-383.369 L -0.400101,-383.403 L -0.659836,-383.469 L -0.909149,-383.568 L -1.14413,-383.697 L -1.36108,-383.855
 L -1.55655,-384.038 L -1.72748,-384.245 L -1.87117,-384.471 L -1.98534,-384.714 L -2.06821,-384.969 L -2.11845,-385.232
 L -2.13528,-385.5 L -2.11845,-385.768 L -2.06821,-386.031 L -1.98534,-386.286 L -1.87117,-386.529 L -1.72748,-386.755
 L -1.55655,-386.962 L -1.36108,-387.145 L -1.14413,-387.303 L -0.909149,-387.432 L -0.659836,-387.531 L -0.400101,-387.597
 L -0.134064,-387.631 L 0.134064,-387.631 L 0.400101,-387.597 L 0.659836,-387.531 L 0.909149,-387.432 L 1.14413,-387.303
 L 1.36108,-387.145 L 1.55655,-386.962 L 1.72748,-386.755 L 1.87117,-386.529 L 1.98534,-386.286 L 2.06821,-386.031
 L 2.11845,-385.768 L 2.13528,-385.5 L 2.11845,-385.232 L 2.06821,-384.969 L 1.98534,-384.714 L 1.87117,-384.471
 L 1.72748,-384.245 L 1.55655,-384.038 L 1.36108,-383.855 L 1.14413,-383.697 L 0.909149,-383.568 L 0.659836,-383.469
 L 0.400101,-383.403 L 0.134064,-383.369 z
M -0.134064,-248.369 L -0.400101,-248.403 L -0.659836,-248.469 L -0.909149,-248.568 L -1.14413,-248.697 L -1.36108,-248.855
 L -1.55655,-249.038 L -1.72748,-249.245 L -1.87117,-249.471 L -1.98534,-249.714 L -2.06821,-249.969 L -2.11845,-250.232
 L -2.13528,-250.5 L -2.11845,-250.768 L -2.06821,-251.031 L -1.98534,-251.286 L -1.87117,-251.529 L -1.72748,-251.755
 L -1.55655,-251.962 L -1.36108,-252.145 L -1.14413,-252.303 L -0.909149,-252.432 L -0.659836,-252.531 L -0.400101,-252.597
 L -0.134064,-252.631 L 0.134064,-252.631 L 0.400101,-252.597 L 0.659836,-252.531 L 0.909149,-252.432 L 1.14413,-252.303
 L 1.36108,-252.145 L 1.55655,-251.962 L 1.72748,-251.755 L 1.87117,-251.529 L 1.98534,-251.286 L 2.06821,-251.031
 L 2.11845,-250.768 L 2.13528,-250.5 L 2.11845,-250.232 L 2.06821,-249.969 L 1.98534,-249.714 L 1.87117,-249.471
 L 1.72748,-249.245 L 1.55655,-249.038 L 1.36108,-248.855 L 1.14413,-248.697 L 0.909149,-248.568 L 0.659836,-248.469
 L 0.400101,-248.403 L 0.134064,-248.369 z
" stroke="black" fill="lightgray" stroke-width="0.5"/>
</svg>
