<?xml version="1.0" standalone="no"?>
<!DOCTYPE svg PUBLIC "-//W3C//DTD SVG 1.1//EN" "http://www.w3.org/Graphics/SVG/1.1/DTD/svg11.dtd">
<svg width="92mm" height="154mm" viewBox="-47 -239 92 154" xmlns="http://www.w3.org/2000/svg" version="1.1">
<title>OpenSCAD Model</title>
<path d="
M -43.5,-194.941 L -43.1871,-194.647 L -42.6791,-194.278 L -42.1289,-193.976 L -41.5451,-193.745 L -40.9369,-193.589
 L -40.3139,-193.51 L 40.3139,-193.51 L 40.9369,-193.589 L 41.5451,-193.745 L 42.1289,-193.976 L 42.6791,-194.278
 L 43.1871,-194.647 L 43.6448,-195.077 L 44.0451,-195.561 L 44.3815,-196.091 L 44.6489,-196.659 L 44.8429,-197.257
 L 44.9606,-197.873 L 45,-198.5 L 45,-233.5 L 44.9606,-234.127 L 44.8429,-234.743 L 44.6489,-235.341
 L 44.3815,-235.909 L 44.0451,-236.439 L 43.6448,-236.923 L 43.1871,-237.353 L 42.6791,-237.722 L 42.1289,-238.024
 L 41.5451,-238.255 L 40.9369,-238.411 L 40.3139,-238.49 L -40.3139,-238.49 L -40.9369,-238.411 L -41.5451,-238.255
 L -42.1289,-238.024 L -42.6791,-237.722 L -43.1871,-237.353 L -43.5,-237.059 L -43.5,-238.49 L -46.5,-238.49
 L -46.5,-193.51 L -43.5,-193.51 z
M -39.7432,-195.135 L -40.2256,-195.196 L -40.6967,-195.317 L -41.1489,-195.496 L -41.5751,-195.73 L -41.9685,-196.016
 L -42.323,-196.349 L -42.633,-196.724 L -42.8936,-197.134 L -43.1007,-197.574 L -43.251,-198.037 L -43.3421,-198.515
 L -43.3726,-199 L -43.3726,-233 L -43.3421,-233.485 L -43.251,-233.963 L -43.1007,-234.426 L -42.8936,-234.866
 L -42.633,-235.276 L -42.323,-235.651 L -41.9685,-235.984 L -41.5751,-236.27 L -41.1489,-236.504 L -40.6967,-236.683
 L -40.2256,-236.804 L -39.7432,-236.865 L 39.7432,-236.865 L 40.2256,-236.804 L 40.6967,-236.683 L 41.1489,-236.504
 L 41.5751,-236.27 L 41.9685,-235.984 L 42.323,-235.651 L 42.633,-235.276 L 42.8936,-234.866 L 43.1007,-234.426
 L 43.251,-233.963 L 43.3421,-233.485 L 43.3726,-233 L 43.3726,-199 L 43.3421,-198.515 L 43.251,-198.037
 L 43.1007,-197.574 L 42.8936,-197.134 L 42.633,-196.724 L 42.323,-196.349 L 41.9685,-196.016 L 41.5751,-195.73
 L 41.1489,-195.496 L 40.6967,-195.317 L 40.2256,-195.196 L 39.7432,-195.135 z
M 40.9369,-139.589 L 41.5451,-139.745 L 42.1289,-139.976 L 42.6791,-140.278 L 43.1871,-140.647 L 43.6448,-141.077
 L 44.0451,-141.561 L 44.3815,-142.091 L 44.6489,-142.659 L 44.8429,-143.257 L 44.9606,-143.873 L 45,-144.5
 L 45,-179.5 L 44.9606,-180.127 L 44.8429,-180.743 L 44.6489,-181.341 L 44.3815,-181.909 L 44.0451,-182.439
 L 43.6448,-182.923 L 43.1871,-183.353 L 42.6791,-183.722 L 42.1289,-184.024 L 41.5451,-184.255 L 40.9369,-184.411
 L 40.3139,-184.49 L -40.3139,-184.49 L -40.9369,-184.411 L -41.5451,-184.255 L -42.1289,-184.024 L -42.6791,-183.722
 L -43.1871,-183.353 L -43.5,-183.059 L -43.5,-184.115 L -46.5,-184.115 L -46.5,-139.885 L -43.5,-139.885
 L -43.5,-140.941 L -43.1871,-140.647 L -42.6791,-140.278 L -42.1289,-139.976 L -41.5451,-139.745 L -40.9369,-139.589
 L -40.3139,-139.51 L 40.3139,-139.51 z
M 40.9369,-85.5886 L 41.5451,-85.7447 L 42.1289,-85.9759 L 42.6791,-86.2784 L 43.1871,-86.6474 L 43.6448,-87.0773
 L 44.0451,-87.5611 L 44.3815,-88.0912 L 44.6489,-88.6594 L 44.8429,-89.2566 L 44.9606,-89.8733 L 45,-90.5
 L 45,-125.5 L 44.9606,-126.127 L 44.8429,-126.743 L 44.6489,-127.341 L 44.3815,-127.909 L 44.0451,-128.439
 L 43.6448,-128.923 L 43.1871,-129.353 L 42.6791,-129.722 L 42.1289,-130.024 L 41.5451,-130.255 L 40.9369,-130.411
 L 40.3139,-130.49 L -40.3139,-130.49 L -40.9369,-130.411 L -41.5451,-130.255 L -42.1289,-130.024 L -42.6791,-129.722
 L -43.1871,-129.353 L -43.6448,-128.923 L -44.0451,-128.439 L -44.3815,-127.909 L -44.6489,-127.341 L -44.8429,-126.743
 L -44.9,-126.444 L -46.5,-126.444 L -46.5,-89.5558 L -44.9,-89.5558 L -44.8429,-89.2566 L -44.6489,-88.6594
 L -44.3815,-88.0912 L -44.0451,-87.5611 L -43.6448,-87.0773 L -43.1871,-86.6474 L -42.6791,-86.2784 L -42.1289,-85.9759
 L -41.5451,-85.7447 L -40.9369,-85.5886 L -40.3139,-85.5099 L 40.3139,-85.5099 z
M 37.387,-121.204 L 37.1627,-121.232 L 36.9438,-121.288 L 36.7336,-121.371 L 36.5355,-121.48 L 36.3526,-121.613
 L 36.1879,-121.768 L 36.0438,-121.942 L 35.9226,-122.133 L 35.8264,-122.337 L 35.7565,-122.552 L 35.7142,-122.774
 L 35.7,-123 L 35.7142,-123.226 L 35.7565,-123.448 L 35.8264,-123.663 L 35.9226,-123.867 L 36.0438,-124.058
 L 36.1879,-124.232 L 36.3526,-124.387 L 36.5355,-124.52 L 36.7336,-124.629 L 36.9438,-124.712 L 37.1627,-124.768
 L 37.387,-124.796 L 37.613,-124.796 L 37.8373,-124.768 L 38.0562,-124.712 L 38.2664,-124.629 L 38.4645,-124.52
 L 38.6474,-124.387 L 38.8121,-124.232 L 38.9562,-124.058 L 39.0773,-123.867 L 39.1736,-123.663 L 39.2434,-123.448
 L 39.2858,-123.226 L 39.3,-123 L 39.2858,-122.774 L 39.2434,-122.552 L 39.1736,-122.337 L 39.0773,-122.133
 L 38.9562,-121.942 L 38.8121,-121.768 L 38.6474,-121.613 L 38.4645,-121.48 L 38.2664,-121.371 L 38.0562,-121.288
 L 37.8373,-121.232 L 37.613,-121.204 z
M -37.613,-121.204 L -37.8373,-121.232 L -38.0562,-121.288 L -38.2664,-121.371 L -38.4645,-121.48 L -38.6474,-121.613
 L -38.8121,-121.768 L -38.9562,-121.942 L -39.0773,-122.133 L -39.1736,-122.337 L -39.2434,-122.552 L -39.2858,-122.774
 L -39.3,-123 L -39.2858,-123.226 L -39.2434,-123.448 L -39.1736,-123.663 L -39.0773,-123.867 L -38.9562,-124.058
 L -38.8121,-124.232 L -38.6474,-124.387 L -38.4645,-124.52 L -38.2664,-124.629 L -38.0562,-124.712 L -37.8373,-124.768
 L -37.613,-124.796 L -37.387,-124.796 L -37.1627,-124.768 L -36.9438,-124.712 L -36.7336,-124.629 L -36.5355,-124.52
 L -36.3526,-124.387 L -36.1879,-124.232 L -36.0438,-124.058 L -35.9226,-123.867 L -35.8264,-123.663 L -35.7565,-123.448
 L -35.7142,-123.226 L -35.7,-123 L -35.7142,-122.774 L -35.7565,-122.552 L -35.8264,-122.337 L -35.9226,-122.133
 L -36.0438,-121.942 L -36.1879,-121.768 L -36.3526,-121.613 L -36.5355,-121.48 L -36.7336,-121.371 L -36.9438,-121.288
 L -37.1627,-121.232 L -37.387,-121.204 z
M 37.387,-91.2036 L 37.1627,-91.2319 L 36.9438,-91.2881 L 36.7336,-91.3713 L 36.5355,-91.4802 L 36.3526,-91.6131
 L 36.1879,-91.7678 L 36.0438,-91.942 L 35.9226,-92.1329 L 35.8264,-92.3374 L 35.7565,-92.5524 L 35.7142,-92.7744
 L 35.7,-93 L 35.7142,-93.2256 L 35.7565,-93.4476 L 35.8264,-93.6626 L 35.9226,-93.8672 L 36.0438,-94.058
 L 36.1879,-94.2322 L 36.3526,-94.3869 L 36.5355,-94.5198 L 36.7336,-94.6287 L 36.9438,-94.7119 L 37.1627,-94.7681
 L 37.387,-94.7964 L 37.613,-94.7964 L 37.8373,-94.7681 L 38.0562,-94.7119 L 38.2664,-94.6287 L 38.4645,-94.5198
 L 38.6474,-94.3869 L 38.8121,-94.2322 L 38.9562,-94.058 L 39.0773,-93.8672 L 39.1736,-93.6626 L 39.2434,-93.4476
 L 39.2858,-93.2256 L 39.3,-93 L 39.2858,-92.7744 L 39.2434,-92.5524 L 39.1736,-92.3374 L 39.0773,-92.1329
 L 38.9562,-91.942 L 38.8121,-91.7678 L 38.6474,-91.6131 L 38.4645,-91.4802 L 38.2664,-91.3713 L 38.0562,-91.2881
 L 37.8373,-91.2319 L 37.613,-91.2036 z
M -37.613,-91.2036 L -37.8373,-91.2319 L -38.0562,-91.2881 L -38.2664,-91.3713 L -38.4645,-91.4802 L -38.6474,-91.6131
 L -38.8121,-91.7678 L -38.9562,-91.942 L -39.0773,-92.1329 L -39.1736,-92.3374 L -39.2434,-92.5524 L -39.2858,-92.7744
 L -39.3,-93 L -39.2858,-93.2256 L -39.2434,-93.4476 L -39.1736,-93.6626 L -39.0773,-93.8672 L -38.9562,-94.058
 L -38.8121,-94.2322 L -38.6474,-94.3869 L -38.4645,-94.5198 L -38.2664,-94.6287 L -38.0562,-94.7119 L -37.8373,-94.7681
 L -37.613,-94.7964 L -37.387,-94.7964 L -37.1627,-94.7681 L -36.9438,-94.7119 L -36.7336,-94.6287 L -36.5355,-94.5198
 L -36.3526,-94.3869 L -36.1879,-94.2322 L -36.0438,-94.058 L -35.9226,-93.8672 L -35.8264,-93.6626 L -35.7565,-93.4476
 L -35.7142,-93.2256 L -35.7,-93 L -35.7142,-92.7744 L -35.7565,-92.5524 L -35.8264,-92.3374 L -35.9226,-92.1329
 L -36.0438,-91.942 L -36.1879,-91.7678 L -36.3526,-91.6131 L -36.5355,-91.4802 L -36.7336,-91.3713 L -36.9438,-91.2881
 L -37.1627,-91.2319 L -37.387,-91.2036 z
" stroke="black" fill="lightgray" stroke-width="0.5"/>
</svg>
