<?xml version="1.0" standalone="no"?>
<!DOCTYPE svg PUBLIC "-//W3C//DTD SVG 1.1//EN" "http://www.w3.org/Graphics/SVG/1.1/DTD/svg11.dtd">
<svg width="137mm" height="108mm" viewBox="-69 -210 137 108" xmlns="http://www.w3.org/2000/svg" version="1.1">
<title>OpenSCAD Model</title>
<path d="
M -66,-181.441 L -65.6871,-181.147 L -65.1791,-180.778 L -64.6289,-180.476 L -64.0451,-180.245 L -63.4369,-180.089
 L -62.8139,-180.01 L 62.8139,-180.01 L 63.4369,-180.089 L 64.0451,-180.245 L 64.6289,-180.476 L 65.1791,-180.778
 L 65.6871,-181.147 L 66.1448,-181.577 L 66.5451,-182.061 L 66.8815,-182.591 L 67.1489,-183.159 L 67.3429,-183.757
 L 67.4606,-184.373 L 67.5,-185 L 67.5,-205 L 67.4606,-205.627 L 67.3429,-206.243 L 67.1489,-206.841
 L 66.8815,-207.409 L 66.5451,-207.939 L 66.1448,-208.423 L 65.6871,-208.853 L 65.1791,-209.222 L 64.6289,-209.524
 L 64.0451,-209.755 L 63.4369,-209.911 L 62.8139,-209.99 L -62.8139,-209.99 L -63.4369,-209.911 L -64.0451,-209.755
 L -64.6289,-209.524 L -65.1791,-209.222 L -65.6871,-208.853 L -66,-208.559 L -66,-209.99 L -69,-209.99
 L -69,-180.01 L -66,-180.01 z
M -62.2512,-181.508 L -62.7495,-181.571 L -63.2361,-181.696 L -63.7031,-181.881 L -64.1433,-182.123 L -64.5497,-182.418
 L -64.9159,-182.762 L -65.2361,-183.149 L -65.5052,-183.573 L -65.7191,-184.028 L -65.8743,-184.505 L -65.9685,-184.999
 L -66,-185.5 L -66,-204.5 L -65.9685,-205.001 L -65.8743,-205.495 L -65.7191,-205.972 L -65.5052,-206.427
 L -65.2361,-206.851 L -64.9159,-207.238 L -64.5497,-207.582 L -64.1433,-207.877 L -63.7031,-208.119 L -63.2361,-208.304
 L -62.7495,-208.429 L -62.2512,-208.492 L 62.2512,-208.492 L 62.7495,-208.429 L 63.2361,-208.304 L 63.7031,-208.119
 L 64.1433,-207.877 L 64.5497,-207.582 L 64.9159,-207.238 L 65.2361,-206.851 L 65.5052,-206.427 L 65.7191,-205.972
 L 65.8743,-205.495 L 65.9685,-205.001 L 66,-204.5 L 66,-185.5 L 65.9685,-184.999 L 65.8743,-184.505
 L 65.7191,-184.028 L 65.5052,-183.573 L 65.2361,-183.149 L 64.9159,-182.762 L 64.5497,-182.418 L 64.1433,-182.123
 L 63.7031,-181.881 L 63.2361,-181.696 L 62.7495,-181.571 L 62.2512,-181.508 z
M 63.4369,-141.089 L 64.0451,-141.245 L 64.6289,-141.476 L 65.1791,-141.778 L 65.6871,-142.147 L 66.1448,-142.577
 L 66.5451,-143.061 L 66.8815,-143.591 L 67.1489,-144.159 L 67.3429,-144.757 L 67.4606,-145.373 L 67.5,-146
 L 67.5,-166 L 67.4606,-166.627 L 67.3429,-167.243 L 67.1489,-167.841 L 66.8815,-168.409 L 66.5451,-168.939
 L 66.1448,-169.423 L 65.6871,-169.853 L 65.1791,-170.222 L 64.6289,-170.524 L 64.0451,-170.755 L 63.4369,-170.911
 L 62.8139,-170.99 L -62.8139,-170.99 L -63.4369,-170.911 L -64.0451,-170.755 L -64.6289,-170.524 L -65.1791,-170.222
 L -65.6871,-169.853 L -66,-169.559 L -66,-170.979 L -69,-170.979 L -69,-141.021 L -66,-141.021
 L -66,-142.441 L -65.6871,-142.147 L -65.1791,-141.778 L -64.6289,-141.476 L -64.0451,-141.245 L -63.4369,-141.089
 L -62.8139,-141.01 L 62.8139,-141.01 z
M -62.1954,-143.393 L -62.5833,-143.442 L -62.9619,-143.539 L -63.3254,-143.683 L -63.668,-143.872 L -63.9842,-144.101
 L -64.2692,-144.369 L -64.5184,-144.67 L -64.7279,-145 L -64.8943,-145.354 L -65.0151,-145.726 L -65.0884,-146.11
 L -65.1129,-146.5 L -65.1129,-165.5 L -65.0884,-165.89 L -65.0151,-166.274 L -64.8943,-166.646 L -64.7279,-167
 L -64.5184,-167.33 L -64.2692,-167.631 L -63.9842,-167.899 L -63.668,-168.128 L -63.3254,-168.317 L -62.9619,-168.461
 L -62.5833,-168.558 L -62.1954,-168.607 L 62.1954,-168.607 L 62.5833,-168.558 L 62.9619,-168.461 L 63.3254,-168.317
 L 63.668,-168.128 L 63.9842,-167.899 L 64.2692,-167.631 L 64.5184,-167.33 L 64.7279,-167 L 64.8943,-166.646
 L 65.0151,-166.274 L 65.0884,-165.89 L 65.1129,-165.5 L 65.1129,-146.5 L 65.0884,-146.11 L 65.0151,-145.726
 L 64.8943,-145.354 L 64.7279,-145 L 64.5184,-144.67 L 64.2692,-144.369 L 63.9842,-144.101 L 63.668,-143.872
 L 63.3254,-143.683 L 62.9619,-143.539 L 62.5833,-143.442 L 62.1954,-143.393 z
M 63.4369,-102.089 L 64.0451,-102.245 L 64.6289,-102.476 L 65.1791,-102.778 L 65.6871,-103.147 L 66.1448,-103.577
 L 66.5451,-104.061 L 66.8815,-104.591 L 67.1489,-105.159 L 67.3429,-105.757 L 67.4606,-106.373 L 67.5,-107
 L 67.5,-127 L 67.4606,-127.627 L 67.3429,-128.243 L 67.1489,-128.841 L 66.8815,-129.409 L 66.5451,-129.939
 L 66.1448,-130.423 L 65.6871,-130.853 L 65.1791,-131.222 L 64.6289,-131.524 L 64.0451,-131.755 L 63.4369,-131.911
 L 62.8139,-131.99 L -62.8139,-131.99 L -63.4369,-131.911 L -64.0451,-131.755 L -64.6289,-131.524 L -65.1791,-131.222
 L -65.6871,-130.853 L -66,-130.559 L -66,-130.653 L -69,-130.653 L -69,-103.347 L -66,-103.347
 L -66,-103.441 L -65.6871,-103.147 L -65.1791,-102.778 L -64.6289,-102.476 L -64.0451,-102.245 L -63.4369,-102.089
 L -62.8139,-102.01 L 62.8139,-102.01 z
M 59.8659,-122.369 L 59.5999,-122.403 L 59.3401,-122.469 L 59.0908,-122.568 L 58.8559,-122.697 L 58.6389,-122.855
 L 58.4434,-123.038 L 58.2725,-123.245 L 58.1288,-123.471 L 58.0146,-123.714 L 57.9318,-123.969 L 57.8815,-124.232
 L 57.8647,-124.5 L 57.8815,-124.768 L 57.9318,-125.031 L 58.0146,-125.286 L 58.1288,-125.529 L 58.2725,-125.755
 L 58.4434,-125.962 L 58.6389,-126.145 L 58.8559,-126.303 L 59.0908,-126.432 L 59.3401,-126.531 L 59.5999,-126.597
 L 59.8659,-126.631 L 60.1341,-126.631 L 60.4001,-126.597 L 60.6598,-126.531 L 60.9092,-126.432 L 61.1441,-126.303
 L 61.3611,-126.145 L 61.5565,-125.962 L 61.7275,-125.755 L 61.8712,-125.529 L 61.9853,-125.286 L 62.0682,-125.031
 L 62.1185,-124.768 L 62.1353,-124.5 L 62.1185,-124.232 L 62.0682,-123.969 L 61.9853,-123.714 L 61.8712,-123.471
 L 61.7275,-123.245 L 61.5565,-123.038 L 61.3611,-122.855 L 61.1441,-122.697 L 60.9092,-122.568 L 60.6598,-122.469
 L 60.4001,-122.403 L 60.1341,-122.369 z
M -60.1341,-122.369 L -60.4001,-122.403 L -60.6598,-122.469 L -60.9092,-122.568 L -61.1441,-122.697 L -61.3611,-122.855
 L -61.5565,-123.038 L -61.7275,-123.245 L -61.8712,-123.471 L -61.9853,-123.714 L -62.0682,-123.969 L -62.1185,-124.232
 L -62.1353,-124.5 L -62.1185,-124.768 L -62.0682,-125.031 L -61.9853,-125.286 L -61.8712,-125.529 L -61.7275,-125.755
 L -61.5565,-125.962 L -61.3611,-126.145 L -61.1441,-126.303 L -60.9092,-126.432 L -60.6598,-126.531 L -60.4001,-126.597
 L -60.1341,-126.631 L -59.8659,-126.631 L -59.5999,-126.597 L -59.3401,-126.531 L -59.0908,-126.432 L -58.8559,-126.303
 L -58.6389,-126.145 L -58.4434,-125.962 L -58.2725,-125.755 L -58.1288,-125.529 L -58.0146,-125.286 L -57.9318,-125.031
 L -57.8815,-124.768 L -57.8647,-124.5 L -57.8815,-124.232 L -57.9318,-123.969 L -58.0146,-123.714 L -58.1288,-123.471
 L -58.2725,-123.245 L -58.4434,-123.038 L -58.6389,-122.855 L -58.8559,-122.697 L -59.0908,-122.568 L -59.3401,-122.469
 L -59.5999,-122.403 L -59.8659,-122.369 z
M 59.8659,-107.369 L 59.5999,-107.403 L 59.3401,-107.469 L 59.0908,-107.568 L 58.8559,-107.697 L 58.6389,-107.855
 L 58.4434,-108.038 L 58.2725,-108.245 L 58.1288,-108.471 L 58.0146,-108.714 L 57.9318,-108.969 L 57.8815,-109.232
 L 57.8647,-109.5 L 57.8815,-109.768 L 57.9318,-110.031 L 58.0146,-110.286 L 58.1288,-110.529 L 58.2725,-110.755
 L 58.4434,-110.962 L 58.6389,-111.145 L 58.8559,-111.303 L 59.0908,-111.432 L 59.3401,-111.531 L 59.5999,-111.597
 L 59.8659,-111.631 L 60.1341,-111.631 L 60.4001,-111.597 L 60.6598,-111.531 L 60.9092,-111.432 L 61.1441,-111.303
 L 61.3611,-111.145 L 61.5565,-110.962 L 61.7275,-110.755 L 61.8712,-110.529 L 61.9853,-110.286 L 62.0682,-110.031
 L 62.1185,-109.768 L 62.1353,-109.5 L 62.1185,-109.232 L 62.0682,-108.969 L 61.9853,-108.714 L 61.8712,-108.471
 L 61.7275,-108.245 L 61.5565,-108.038 L 61.3611,-107.855 L 61.1441,-107.697 L 60.9092,-107.568 L 60.6598,-107.469
 L 60.4001,-107.403 L 60.1341,-107.369 z
M -60.1341,-107.369 L -60.4001,-107.403 L -60.6598,-107.469 L -60.9092,-107.568 L -61.1441,-107.697 L -61.3611,-107.855
 L -61.5565,-108.038 L -61.7275,-108.245 L -61.8712,-108.471 L -61.9853,-108.714 L -62.0682,-108.969 L -62.1185,-109.232
 L -62.1353,-109.5 L -62.1185,-109.768 L -62.0682,-110.031 L -61.9853,-110.286 L -61.8712,-110.529 L -61.7275,-110.755
 L -61.5565,-110.962 L -61.3611,-111.145 L -61.1441,-111.303 L -60.9092,-111.432 L -60.6598,-111.531 L -60.4001,-111.597
 L -60.1341,-111.631 L -59.8659,-111.631 L -59.5999,-111.597 L -59.3401,-111.531 L -59.0908,-111.432 L -58.8559,-111.303
 L -58.6389,-111.145 L -58.4434,-110.962 L -58.2725,-110.755 L -58.1288,-110.529 L -58.0146,-110.286 L -57.9318,-110.031
 L -57.8815,-109.768 L -57.8647,-109.5 L -57.8815,-109.232 L -57.9318,-108.969 L -58.0146,-108.714 L -58.1288,-108.471
 L -58.2725,-108.245 L -58.4434,-108.038 L -58.6389,-107.855 L -58.8559,-107.697 L -59.0908,-107.568 L -59.3401,-107.469
 L -59.5999,-107.403 L -59.8659,-107.369 z
" stroke="black" fill="lightgray" stroke-width="0.5"/>
</svg>
