  0
SECTION
  2
BLOCKS
  0
ENDSEC
  0
SECTION
  2
ENTITIES
  0
LINE
  8
0
 10
10.9369
 20
477.089
 11
11.5451
 21
477.245
  0
LINE
  8
0
 10
11.5451
 20
477.245
 11
12.1289
 21
477.476
  0
LINE
  8
0
 10
12.1289
 20
477.476
 11
12.6791
 21
477.778
  0
LINE
  8
0
 10
12.6791
 20
477.778
 11
13.1871
 21
478.147
  0
LINE
  8
0
 10
13.1871
 20
478.147
 11
13.6448
 21
478.577
  0
LINE
  8
0
 10
13.6448
 20
478.577
 11
14.0451
 21
479.061
  0
LINE
  8
0
 10
14.0451
 20
479.061
 11
14.3815
 21
479.591
  0
LINE
  8
0
 10
14.3815
 20
479.591
 11
14.6489
 21
480.159
  0
LINE
  8
0
 10
14.6489
 20
480.159
 11
14.8429
 21
480.757
  0
LINE
  8
0
 10
14.8429
 20
480.757
 11
14.9606
 21
481.373
  0
LINE
  8
0
 10
14.9606
 20
481.373
 11
15
 21
482
  0
LINE
  8
0
 10
15
 20
482
 11
15
 21
652
  0
LINE
  8
0
 10
15
 20
652
 11
14.9606
 21
652.627
  0
LINE
  8
0
 10
14.9606
 20
652.627
 11
14.8429
 21
653.243
  0
LINE
  8
0
 10
14.8429
 20
653.243
 11
14.6489
 21
653.841
  0
LINE
  8
0
 10
14.6489
 20
653.841
 11
14.3815
 21
654.409
  0
LINE
  8
0
 10
14.3815
 20
654.409
 11
14.0451
 21
654.939
  0
LINE
  8
0
 10
14.0451
 20
654.939
 11
13.6448
 21
655.423
  0
LINE
  8
0
 10
13.6448
 20
655.423
 11
13.1871
 21
655.853
  0
LINE
  8
0
 10
13.1871
 20
655.853
 11
12.6791
 21
656.222
  0
LINE
  8
0
 10
12.6791
 20
656.222
 11
12.1289
 21
656.524
  0
LINE
  8
0
 10
12.1289
 20
656.524
 11
11.5451
 21
656.755
  0
LINE
  8
0
 10
11.5451
 20
656.755
 11
10.9369
 21
656.911
  0
LINE
  8
0
 10
10.9369
 20
656.911
 11
10.3139
 21
656.99
  0
LINE
  8
0
 10
10.3139
 20
656.99
 11
-10.3139
 21
656.99
  0
LINE
  8
0
 10
-10.3139
 20
656.99
 11
-10.9369
 21
656.911
  0
LINE
  8
0
 10
-10.9369
 20
656.911
 11
-11.5451
 21
656.755
  0
LINE
  8
0
 10
-11.5451
 20
656.755
 11
-12.1289
 21
656.524
  0
LINE
  8
0
 10
-12.1289
 20
656.524
 11
-12.6791
 21
656.222
  0
LINE
  8
0
 10
-12.6791
 20
656.222
 11
-13.1871
 21
655.853
  0
LINE
  8
0
 10
-13.1871
 20
655.853
 11
-13.6448
 21
655.423
  0
LINE
  8
0
 10
-13.6448
 20
655.423
 11
-14.0451
 21
654.939
  0
LINE
  8
0
 10
-14.0451
 20
654.939
 11
-14.3815
 21
654.409
  0
LINE
  8
0
 10
-14.3815
 20
654.409
 11
-14.6489
 21
653.841
  0
LINE
  8
0
 10
-14.6489
 20
653.841
 11
-14.8429
 21
653.243
  0
LINE
  8
0
 10
-14.8429
 20
653.243
 11
-14.9606
 21
652.627
  0
LINE
  8
0
 10
-14.9606
 20
652.627
 11
-15
 21
652
  0
LINE
  8
0
 10
-15
 20
652
 11
-15
 21
482
  0
LINE
  8
0
 10
-15
 20
482
 11
-14.9606
 21
481.373
  0
LINE
  8
0
 10
-14.9606
 20
481.373
 11
-14.8429
 21
480.757
  0
LINE
  8
0
 10
-14.8429
 20
480.757
 11
-14.6489
 21
480.159
  0
LINE
  8
0
 10
-14.6489
 20
480.159
 11
-14.3815
 21
479.591
  0
LINE
  8
0
 10
-14.3815
 20
479.591
 11
-14.0451
 21
479.061
  0
LINE
  8
0
 10
-14.0451
 20
479.061
 11
-13.6448
 21
478.577
  0
LINE
  8
0
 10
-13.6448
 20
478.577
 11
-13.1871
 21
478.147
  0
LINE
  8
0
 10
-13.1871
 20
478.147
 11
-12.6791
 21
477.778
  0
LINE
  8
0
 10
-12.6791
 20
477.778
 11
-12.1289
 21
477.476
  0
LINE
  8
0
 10
-12.1289
 20
477.476
 11
-11.5451
 21
477.245
  0
LINE
  8
0
 10
-11.5451
 20
477.245
 11
-10.9369
 21
477.089
  0
LINE
  8
0
 10
-10.9369
 20
477.089
 11
-10.3139
 21
477.01
  0
LINE
  8
0
 10
-10.3139
 20
477.01
 11
10.3139
 21
477.01
  0
LINE
  8
0
 10
10.3139
 20
477.01
 11
10.9369
 21
477.089
  0
LINE
  8
0
 10
-9.69545
 20
479.393
 11
-10.0833
 21
479.442
  0
LINE
  8
0
 10
-10.0833
 20
479.442
 11
-10.4619
 21
479.539
  0
LINE
  8
0
 10
-10.4619
 20
479.539
 11
-10.8254
 21
479.683
  0
LINE
  8
0
 10
-10.8254
 20
479.683
 11
-11.168
 21
479.872
  0
LINE
  8
0
 10
-11.168
 20
479.872
 11
-11.4842
 21
480.101
  0
LINE
  8
0
 10
-11.4842
 20
480.101
 11
-11.7692
 21
480.369
  0
LINE
  8
0
 10
-11.7692
 20
480.369
 11
-12.0184
 21
480.67
  0
LINE
  8
0
 10
-12.0184
 20
480.67
 11
-12.2279
 21
481
  0
LINE
  8
0
 10
-12.2279
 20
481
 11
-12.3943
 21
481.354
  0
LINE
  8
0
 10
-12.3943
 20
481.354
 11
-12.5151
 21
481.726
  0
LINE
  8
0
 10
-12.5151
 20
481.726
 11
-12.5884
 21
482.11
  0
LINE
  8
0
 10
-12.5884
 20
482.11
 11
-12.6129
 21
482.5
  0
LINE
  8
0
 10
-12.6129
 20
482.5
 11
-12.6129
 21
651.5
  0
LINE
  8
0
 10
-12.6129
 20
651.5
 11
-12.5884
 21
651.89
  0
LINE
  8
0
 10
-12.5884
 20
651.89
 11
-12.5151
 21
652.274
  0
LINE
  8
0
 10
-12.5151
 20
652.274
 11
-12.3943
 21
652.646
  0
LINE
  8
0
 10
-12.3943
 20
652.646
 11
-12.2279
 21
653
  0
LINE
  8
0
 10
-12.2279
 20
653
 11
-12.0184
 21
653.33
  0
LINE
  8
0
 10
-12.0184
 20
653.33
 11
-11.7692
 21
653.631
  0
LINE
  8
0
 10
-11.7692
 20
653.631
 11
-11.4842
 21
653.899
  0
LINE
  8
0
 10
-11.4842
 20
653.899
 11
-11.168
 21
654.128
  0
LINE
  8
0
 10
-11.168
 20
654.128
 11
-10.8254
 21
654.317
  0
LINE
  8
0
 10
-10.8254
 20
654.317
 11
-10.4619
 21
654.461
  0
LINE
  8
0
 10
-10.4619
 20
654.461
 11
-10.0833
 21
654.558
  0
LINE
  8
0
 10
-10.0833
 20
654.558
 11
-9.69545
 21
654.607
  0
LINE
  8
0
 10
-9.69545
 20
654.607
 11
9.69545
 21
654.607
  0
LINE
  8
0
 10
9.69545
 20
654.607
 11
10.0833
 21
654.558
  0
LINE
  8
0
 10
10.0833
 20
654.558
 11
10.4619
 21
654.461
  0
LINE
  8
0
 10
10.4619
 20
654.461
 11
10.8254
 21
654.317
  0
LINE
  8
0
 10
10.8254
 20
654.317
 11
11.168
 21
654.128
  0
LINE
  8
0
 10
11.168
 20
654.128
 11
11.4842
 21
653.899
  0
LINE
  8
0
 10
11.4842
 20
653.899
 11
11.7692
 21
653.631
  0
LINE
  8
0
 10
11.7692
 20
653.631
 11
12.0184
 21
653.33
  0
LINE
  8
0
 10
12.0184
 20
653.33
 11
12.2279
 21
653
  0
LINE
  8
0
 10
12.2279
 20
653
 11
12.3943
 21
652.646
  0
LINE
  8
0
 10
12.3943
 20
652.646
 11
12.5151
 21
652.274
  0
LINE
  8
0
 10
12.5151
 20
652.274
 11
12.5884
 21
651.89
  0
LINE
  8
0
 10
12.5884
 20
651.89
 11
12.6129
 21
651.5
  0
LINE
  8
0
 10
12.6129
 20
651.5
 11
12.6129
 21
482.5
  0
LINE
  8
0
 10
12.6129
 20
482.5
 11
12.5884
 21
482.11
  0
LINE
  8
0
 10
12.5884
 20
482.11
 11
12.5151
 21
481.726
  0
LINE
  8
0
 10
12.5151
 20
481.726
 11
12.3943
 21
481.354
  0
LINE
  8
0
 10
12.3943
 20
481.354
 11
12.2279
 21
481
  0
LINE
  8
0
 10
12.2279
 20
481
 11
12.0184
 21
480.67
  0
LINE
  8
0
 10
12.0184
 20
480.67
 11
11.7692
 21
480.369
  0
LINE
  8
0
 10
11.7692
 20
480.369
 11
11.4842
 21
480.101
  0
LINE
  8
0
 10
11.4842
 20
480.101
 11
11.168
 21
479.872
  0
LINE
  8
0
 10
11.168
 20
479.872
 11
10.8254
 21
479.683
  0
LINE
  8
0
 10
10.8254
 20
479.683
 11
10.4619
 21
479.539
  0
LINE
  8
0
 10
10.4619
 20
479.539
 11
10.0833
 21
479.442
  0
LINE
  8
0
 10
10.0833
 20
479.442
 11
9.69545
 21
479.393
  0
LINE
  8
0
 10
9.69545
 20
479.393
 11
-9.69545
 21
479.393
  0
LINE
  8
0
 10
10.9369
 20
288.089
 11
11.5451
 21
288.245
  0
LINE
  8
0
 10
11.5451
 20
288.245
 11
12.1289
 21
288.476
  0
LINE
  8
0
 10
12.1289
 20
288.476
 11
12.6791
 21
288.778
  0
LINE
  8
0
 10
12.6791
 20
288.778
 11
13.1871
 21
289.147
  0
LINE
  8
0
 10
13.1871
 20
289.147
 11
13.6448
 21
289.577
  0
LINE
  8
0
 10
13.6448
 20
289.577
 11
14.0451
 21
290.061
  0
LINE
  8
0
 10
14.0451
 20
290.061
 11
14.3815
 21
290.591
  0
LINE
  8
0
 10
14.3815
 20
290.591
 11
14.6489
 21
291.159
  0
LINE
  8
0
 10
14.6489
 20
291.159
 11
14.8429
 21
291.757
  0
LINE
  8
0
 10
14.8429
 20
291.757
 11
14.9606
 21
292.373
  0
LINE
  8
0
 10
14.9606
 20
292.373
 11
15
 21
293
  0
LINE
  8
0
 10
15
 20
293
 11
15
 21
463
  0
LINE
  8
0
 10
15
 20
463
 11
14.9606
 21
463.627
  0
LINE
  8
0
 10
14.9606
 20
463.627
 11
14.8429
 21
464.243
  0
LINE
  8
0
 10
14.8429
 20
464.243
 11
14.6489
 21
464.841
  0
LINE
  8
0
 10
14.6489
 20
464.841
 11
14.3815
 21
465.409
  0
LINE
  8
0
 10
14.3815
 20
465.409
 11
14.0451
 21
465.939
  0
LINE
  8
0
 10
14.0451
 20
465.939
 11
13.6448
 21
466.423
  0
LINE
  8
0
 10
13.6448
 20
466.423
 11
13.1871
 21
466.853
  0
LINE
  8
0
 10
13.1871
 20
466.853
 11
12.6791
 21
467.222
  0
LINE
  8
0
 10
12.6791
 20
467.222
 11
12.1289
 21
467.524
  0
LINE
  8
0
 10
12.1289
 20
467.524
 11
11.5451
 21
467.755
  0
LINE
  8
0
 10
11.5451
 20
467.755
 11
10.9369
 21
467.911
  0
LINE
  8
0
 10
10.9369
 20
467.911
 11
10.3139
 21
467.99
  0
LINE
  8
0
 10
10.3139
 20
467.99
 11
-10.3139
 21
467.99
  0
LINE
  8
0
 10
-10.3139
 20
467.99
 11
-10.9369
 21
467.911
  0
LINE
  8
0
 10
-10.9369
 20
467.911
 11
-11.5451
 21
467.755
  0
LINE
  8
0
 10
-11.5451
 20
467.755
 11
-12.1289
 21
467.524
  0
LINE
  8
0
 10
-12.1289
 20
467.524
 11
-12.6791
 21
467.222
  0
LINE
  8
0
 10
-12.6791
 20
467.222
 11
-13.1871
 21
466.853
  0
LINE
  8
0
 10
-13.1871
 20
466.853
 11
-13.6448
 21
466.423
  0
LINE
  8
0
 10
-13.6448
 20
466.423
 11
-14.0451
 21
465.939
  0
LINE
  8
0
 10
-14.0451
 20
465.939
 11
-14.3815
 21
465.409
  0
LINE
  8
0
 10
-14.3815
 20
465.409
 11
-14.6489
 21
464.841
  0
LINE
  8
0
 10
-14.6489
 20
464.841
 11
-14.8429
 21
464.243
  0
LINE
  8
0
 10
-14.8429
 20
464.243
 11
-14.9606
 21
463.627
  0
LINE
  8
0
 10
-14.9606
 20
463.627
 11
-15
 21
463
  0
LINE
  8
0
 10
-15
 20
463
 11
-15
 21
293
  0
LINE
  8
0
 10
-15
 20
293
 11
-14.9606
 21
292.373
  0
LINE
  8
0
 10
-14.9606
 20
292.373
 11
-14.8429
 21
291.757
  0
LINE
  8
0
 10
-14.8429
 20
291.757
 11
-14.6489
 21
291.159
  0
LINE
  8
0
 10
-14.6489
 20
291.159
 11
-14.3815
 21
290.591
  0
LINE
  8
0
 10
-14.3815
 20
290.591
 11
-14.0451
 21
290.061
  0
LINE
  8
0
 10
-14.0451
 20
290.061
 11
-13.6448
 21
289.577
  0
LINE
  8
0
 10
-13.6448
 20
289.577
 11
-13.1871
 21
289.147
  0
LINE
  8
0
 10
-13.1871
 20
289.147
 11
-12.6791
 21
288.778
  0
LINE
  8
0
 10
-12.6791
 20
288.778
 11
-12.1289
 21
288.476
  0
LINE
  8
0
 10
-12.1289
 20
288.476
 11
-11.5451
 21
288.245
  0
LINE
  8
0
 10
-11.5451
 20
288.245
 11
-10.9369
 21
288.089
  0
LINE
  8
0
 10
-10.9369
 20
288.089
 11
-10.3139
 21
288.01
  0
LINE
  8
0
 10
-10.3139
 20
288.01
 11
10.3139
 21
288.01
  0
LINE
  8
0
 10
10.3139
 20
288.01
 11
10.9369
 21
288.089
  0
LINE
  8
0
 10
7.36592
 20
458.369
 11
7.09988
 21
458.403
  0
LINE
  8
0
 10
7.09988
 20
458.403
 11
6.84015
 21
458.469
  0
LINE
  8
0
 10
6.84015
 20
458.469
 11
6.59084
 21
458.568
  0
LINE
  8
0
 10
6.59084
 20
458.568
 11
6.35585
 21
458.697
  0
LINE
  8
0
 10
6.35585
 20
458.697
 11
6.1389
 21
458.855
  0
LINE
  8
0
 10
6.1389
 20
458.855
 11
5.94344
 21
459.038
  0
LINE
  8
0
 10
5.94344
 20
459.038
 11
5.77251
 21
459.245
  0
LINE
  8
0
 10
5.77251
 20
459.245
 11
5.62881
 21
459.471
  0
LINE
  8
0
 10
5.62881
 20
459.471
 11
5.51465
 21
459.714
  0
LINE
  8
0
 10
5.51465
 20
459.714
 11
5.43178
 21
459.969
  0
LINE
  8
0
 10
5.43178
 20
459.969
 11
5.38153
 21
460.232
  0
LINE
  8
0
 10
5.38153
 20
460.232
 11
5.3647
 21
460.5
  0
LINE
  8
0
 10
5.3647
 20
460.5
 11
5.38153
 21
460.768
  0
LINE
  8
0
 10
5.38153
 20
460.768
 11
5.43178
 21
461.031
  0
LINE
  8
0
 10
5.43178
 20
461.031
 11
5.51465
 21
461.286
  0
LINE
  8
0
 10
5.51465
 20
461.286
 11
5.62881
 21
461.529
  0
LINE
  8
0
 10
5.62881
 20
461.529
 11
5.77251
 21
461.755
  0
LINE
  8
0
 10
5.77251
 20
461.755
 11
5.94344
 21
461.962
  0
LINE
  8
0
 10
5.94344
 20
461.962
 11
6.1389
 21
462.145
  0
LINE
  8
0
 10
6.1389
 20
462.145
 11
6.35585
 21
462.303
  0
LINE
  8
0
 10
6.35585
 20
462.303
 11
6.59084
 21
462.432
  0
LINE
  8
0
 10
6.59084
 20
462.432
 11
6.84015
 21
462.531
  0
LINE
  8
0
 10
6.84015
 20
462.531
 11
7.09988
 21
462.597
  0
LINE
  8
0
 10
7.09988
 20
462.597
 11
7.36592
 21
462.631
  0
LINE
  8
0
 10
7.36592
 20
462.631
 11
7.63406
 21
462.631
  0
LINE
  8
0
 10
7.63406
 20
462.631
 11
7.9001
 21
462.597
  0
LINE
  8
0
 10
7.9001
 20
462.597
 11
8.15984
 21
462.531
  0
LINE
  8
0
 10
8.15984
 20
462.531
 11
8.40915
 21
462.432
  0
LINE
  8
0
 10
8.40915
 20
462.432
 11
8.64413
 21
462.303
  0
LINE
  8
0
 10
8.64413
 20
462.303
 11
8.86108
 21
462.145
  0
LINE
  8
0
 10
8.86108
 20
462.145
 11
9.05655
 21
461.962
  0
LINE
  8
0
 10
9.05655
 20
461.962
 11
9.22748
 21
461.755
  0
LINE
  8
0
 10
9.22748
 20
461.755
 11
9.37117
 21
461.529
  0
LINE
  8
0
 10
9.37117
 20
461.529
 11
9.48534
 21
461.286
  0
LINE
  8
0
 10
9.48534
 20
461.286
 11
9.56821
 21
461.031
  0
LINE
  8
0
 10
9.56821
 20
461.031
 11
9.61845
 21
460.768
  0
LINE
  8
0
 10
9.61845
 20
460.768
 11
9.63528
 21
460.5
  0
LINE
  8
0
 10
9.63528
 20
460.5
 11
9.61845
 21
460.232
  0
LINE
  8
0
 10
9.61845
 20
460.232
 11
9.56821
 21
459.969
  0
LINE
  8
0
 10
9.56821
 20
459.969
 11
9.48534
 21
459.714
  0
LINE
  8
0
 10
9.48534
 20
459.714
 11
9.37117
 21
459.471
  0
LINE
  8
0
 10
9.37117
 20
459.471
 11
9.22748
 21
459.245
  0
LINE
  8
0
 10
9.22748
 20
459.245
 11
9.05655
 21
459.038
  0
LINE
  8
0
 10
9.05655
 20
459.038
 11
8.86108
 21
458.855
  0
LINE
  8
0
 10
8.86108
 20
458.855
 11
8.64413
 21
458.697
  0
LINE
  8
0
 10
8.64413
 20
458.697
 11
8.40915
 21
458.568
  0
LINE
  8
0
 10
8.40915
 20
458.568
 11
8.15984
 21
458.469
  0
LINE
  8
0
 10
8.15984
 20
458.469
 11
7.9001
 21
458.403
  0
LINE
  8
0
 10
7.9001
 20
458.403
 11
7.63406
 21
458.369
  0
LINE
  8
0
 10
7.63406
 20
458.369
 11
7.36592
 21
458.369
  0
LINE
  8
0
 10
-7.63406
 20
458.369
 11
-7.9001
 21
458.403
  0
LINE
  8
0
 10
-7.9001
 20
458.403
 11
-8.15984
 21
458.469
  0
LINE
  8
0
 10
-8.15984
 20
458.469
 11
-8.40915
 21
458.568
  0
LINE
  8
0
 10
-8.40915
 20
458.568
 11
-8.64413
 21
458.697
  0
LINE
  8
0
 10
-8.64413
 20
458.697
 11
-8.86108
 21
458.855
  0
LINE
  8
0
 10
-8.86108
 20
458.855
 11
-9.05655
 21
459.038
  0
LINE
  8
0
 10
-9.05655
 20
459.038
 11
-9.22748
 21
459.245
  0
LINE
  8
0
 10
-9.22748
 20
459.245
 11
-9.37117
 21
459.471
  0
LINE
  8
0
 10
-9.37117
 20
459.471
 11
-9.48534
 21
459.714
  0
LINE
  8
0
 10
-9.48534
 20
459.714
 11
-9.56821
 21
459.969
  0
LINE
  8
0
 10
-9.56821
 20
459.969
 11
-9.61845
 21
460.232
  0
LINE
  8
0
 10
-9.61845
 20
460.232
 11
-9.63528
 21
460.5
  0
LINE
  8
0
 10
-9.63528
 20
460.5
 11
-9.61845
 21
460.768
  0
LINE
  8
0
 10
-9.61845
 20
460.768
 11
-9.56821
 21
461.031
  0
LINE
  8
0
 10
-9.56821
 20
461.031
 11
-9.48534
 21
461.286
  0
LINE
  8
0
 10
-9.48534
 20
461.286
 11
-9.37117
 21
461.529
  0
LINE
  8
0
 10
-9.37117
 20
461.529
 11
-9.22748
 21
461.755
  0
LINE
  8
0
 10
-9.22748
 20
461.755
 11
-9.05655
 21
461.962
  0
LINE
  8
0
 10
-9.05655
 20
461.962
 11
-8.86108
 21
462.145
  0
LINE
  8
0
 10
-8.86108
 20
462.145
 11
-8.64413
 21
462.303
  0
LINE
  8
0
 10
-8.64413
 20
462.303
 11
-8.40915
 21
462.432
  0
LINE
  8
0
 10
-8.40915
 20
462.432
 11
-8.15984
 21
462.531
  0
LINE
  8
0
 10
-8.15984
 20
462.531
 11
-7.9001
 21
462.597
  0
LINE
  8
0
 10
-7.9001
 20
462.597
 11
-7.63406
 21
462.631
  0
LINE
  8
0
 10
-7.63406
 20
462.631
 11
-7.36592
 21
462.631
  0
LINE
  8
0
 10
-7.36592
 20
462.631
 11
-7.09988
 21
462.597
  0
LINE
  8
0
 10
-7.09988
 20
462.597
 11
-6.84015
 21
462.531
  0
LINE
  8
0
 10
-6.84015
 20
462.531
 11
-6.59084
 21
462.432
  0
LINE
  8
0
 10
-6.59084
 20
462.432
 11
-6.35585
 21
462.303
  0
LINE
  8
0
 10
-6.35585
 20
462.303
 11
-6.1389
 21
462.145
  0
LINE
  8
0
 10
-6.1389
 20
462.145
 11
-5.94344
 21
461.962
  0
LINE
  8
0
 10
-5.94344
 20
461.962
 11
-5.77251
 21
461.755
  0
LINE
  8
0
 10
-5.77251
 20
461.755
 11
-5.62881
 21
461.529
  0
LINE
  8
0
 10
-5.62881
 20
461.529
 11
-5.51465
 21
461.286
  0
LINE
  8
0
 10
-5.51465
 20
461.286
 11
-5.43178
 21
461.031
  0
LINE
  8
0
 10
-5.43178
 20
461.031
 11
-5.38153
 21
460.768
  0
LINE
  8
0
 10
-5.38153
 20
460.768
 11
-5.3647
 21
460.5
  0
LINE
  8
0
 10
-5.3647
 20
460.5
 11
-5.38153
 21
460.232
  0
LINE
  8
0
 10
-5.38153
 20
460.232
 11
-5.43178
 21
459.969
  0
LINE
  8
0
 10
-5.43178
 20
459.969
 11
-5.51465
 21
459.714
  0
LINE
  8
0
 10
-5.51465
 20
459.714
 11
-5.62881
 21
459.471
  0
LINE
  8
0
 10
-5.62881
 20
459.471
 11
-5.77251
 21
459.245
  0
LINE
  8
0
 10
-5.77251
 20
459.245
 11
-5.94344
 21
459.038
  0
LINE
  8
0
 10
-5.94344
 20
459.038
 11
-6.1389
 21
458.855
  0
LINE
  8
0
 10
-6.1389
 20
458.855
 11
-6.35585
 21
458.697
  0
LINE
  8
0
 10
-6.35585
 20
458.697
 11
-6.59084
 21
458.568
  0
LINE
  8
0
 10
-6.59084
 20
458.568
 11
-6.84015
 21
458.469
  0
LINE
  8
0
 10
-6.84015
 20
458.469
 11
-7.09988
 21
458.403
  0
LINE
  8
0
 10
-7.09988
 20
458.403
 11
-7.36592
 21
458.369
  0
LINE
  8
0
 10
-7.36592
 20
458.369
 11
-7.63406
 21
458.369
  0
LINE
  8
0
 10
7.36592
 20
293.369
 11
7.09988
 21
293.403
  0
LINE
  8
0
 10
7.09988
 20
293.403
 11
6.84015
 21
293.469
  0
LINE
  8
0
 10
6.84015
 20
293.469
 11
6.59084
 21
293.568
  0
LINE
  8
0
 10
6.59084
 20
293.568
 11
6.35585
 21
293.697
  0
LINE
  8
0
 10
6.35585
 20
293.697
 11
6.1389
 21
293.855
  0
LINE
  8
0
 10
6.1389
 20
293.855
 11
5.94344
 21
294.038
  0
LINE
  8
0
 10
5.94344
 20
294.038
 11
5.77251
 21
294.245
  0
LINE
  8
0
 10
5.77251
 20
294.245
 11
5.62881
 21
294.471
  0
LINE
  8
0
 10
5.62881
 20
294.471
 11
5.51465
 21
294.714
  0
LINE
  8
0
 10
5.51465
 20
294.714
 11
5.43178
 21
294.969
  0
LINE
  8
0
 10
5.43178
 20
294.969
 11
5.38153
 21
295.232
  0
LINE
  8
0
 10
5.38153
 20
295.232
 11
5.3647
 21
295.5
  0
LINE
  8
0
 10
5.3647
 20
295.5
 11
5.38153
 21
295.768
  0
LINE
  8
0
 10
5.38153
 20
295.768
 11
5.43178
 21
296.031
  0
LINE
  8
0
 10
5.43178
 20
296.031
 11
5.51465
 21
296.286
  0
LINE
  8
0
 10
5.51465
 20
296.286
 11
5.62881
 21
296.529
  0
LINE
  8
0
 10
5.62881
 20
296.529
 11
5.77251
 21
296.755
  0
LINE
  8
0
 10
5.77251
 20
296.755
 11
5.94344
 21
296.962
  0
LINE
  8
0
 10
5.94344
 20
296.962
 11
6.1389
 21
297.145
  0
LINE
  8
0
 10
6.1389
 20
297.145
 11
6.35585
 21
297.303
  0
LINE
  8
0
 10
6.35585
 20
297.303
 11
6.59084
 21
297.432
  0
LINE
  8
0
 10
6.59084
 20
297.432
 11
6.84015
 21
297.531
  0
LINE
  8
0
 10
6.84015
 20
297.531
 11
7.09988
 21
297.597
  0
LINE
  8
0
 10
7.09988
 20
297.597
 11
7.36592
 21
297.631
  0
LINE
  8
0
 10
7.36592
 20
297.631
 11
7.63406
 21
297.631
  0
LINE
  8
0
 10
7.63406
 20
297.631
 11
7.9001
 21
297.597
  0
LINE
  8
0
 10
7.9001
 20
297.597
 11
8.15984
 21
297.531
  0
LINE
  8
0
 10
8.15984
 20
297.531
 11
8.40915
 21
297.432
  0
LINE
  8
0
 10
8.40915
 20
297.432
 11
8.64413
 21
297.303
  0
LINE
  8
0
 10
8.64413
 20
297.303
 11
8.86108
 21
297.145
  0
LINE
  8
0
 10
8.86108
 20
297.145
 11
9.05655
 21
296.962
  0
LINE
  8
0
 10
9.05655
 20
296.962
 11
9.22748
 21
296.755
  0
LINE
  8
0
 10
9.22748
 20
296.755
 11
9.37117
 21
296.529
  0
LINE
  8
0
 10
9.37117
 20
296.529
 11
9.48534
 21
296.286
  0
LINE
  8
0
 10
9.48534
 20
296.286
 11
9.56821
 21
296.031
  0
LINE
  8
0
 10
9.56821
 20
296.031
 11
9.61845
 21
295.768
  0
LINE
  8
0
 10
9.61845
 20
295.768
 11
9.63528
 21
295.5
  0
LINE
  8
0
 10
9.63528
 20
295.5
 11
9.61845
 21
295.232
  0
LINE
  8
0
 10
9.61845
 20
295.232
 11
9.56821
 21
294.969
  0
LINE
  8
0
 10
9.56821
 20
294.969
 11
9.48534
 21
294.714
  0
LINE
  8
0
 10
9.48534
 20
294.714
 11
9.37117
 21
294.471
  0
LINE
  8
0
 10
9.37117
 20
294.471
 11
9.22748
 21
294.245
  0
LINE
  8
0
 10
9.22748
 20
294.245
 11
9.05655
 21
294.038
  0
LINE
  8
0
 10
9.05655
 20
294.038
 11
8.86108
 21
293.855
  0
LINE
  8
0
 10
8.86108
 20
293.855
 11
8.64413
 21
293.697
  0
LINE
  8
0
 10
8.64413
 20
293.697
 11
8.40915
 21
293.568
  0
LINE
  8
0
 10
8.40915
 20
293.568
 11
8.15984
 21
293.469
  0
LINE
  8
0
 10
8.15984
 20
293.469
 11
7.9001
 21
293.403
  0
LINE
  8
0
 10
7.9001
 20
293.403
 11
7.63406
 21
293.369
  0
LINE
  8
0
 10
7.63406
 20
293.369
 11
7.36592
 21
293.369
  0
LINE
  8
0
 10
-7.63406
 20
293.369
 11
-7.9001
 21
293.403
  0
LINE
  8
0
 10
-7.9001
 20
293.403
 11
-8.15984
 21
293.469
  0
LINE
  8
0
 10
-8.15984
 20
293.469
 11
-8.40915
 21
293.568
  0
LINE
  8
0
 10
-8.40915
 20
293.568
 11
-8.64413
 21
293.697
  0
LINE
  8
0
 10
-8.64413
 20
293.697
 11
-8.86108
 21
293.855
  0
LINE
  8
0
 10
-8.86108
 20
293.855
 11
-9.05655
 21
294.038
  0
LINE
  8
0
 10
-9.05655
 20
294.038
 11
-9.22748
 21
294.245
  0
LINE
  8
0
 10
-9.22748
 20
294.245
 11
-9.37117
 21
294.471
  0
LINE
  8
0
 10
-9.37117
 20
294.471
 11
-9.48534
 21
294.714
  0
LINE
  8
0
 10
-9.48534
 20
294.714
 11
-9.56821
 21
294.969
  0
LINE
  8
0
 10
-9.56821
 20
294.969
 11
-9.61845
 21
295.232
  0
LINE
  8
0
 10
-9.61845
 20
295.232
 11
-9.63528
 21
295.5
  0
LINE
  8
0
 10
-9.63528
 20
295.5
 11
-9.61845
 21
295.768
  0
LINE
  8
0
 10
-9.61845
 20
295.768
 11
-9.56821
 21
296.031
  0
LINE
  8
0
 10
-9.56821
 20
296.031
 11
-9.48534
 21
296.286
  0
LINE
  8
0
 10
-9.48534
 20
296.286
 11
-9.37117
 21
296.529
  0
LINE
  8
0
 10
-9.37117
 20
296.529
 11
-9.22748
 21
296.755
  0
LINE
  8
0
 10
-9.22748
 20
296.755
 11
-9.05655
 21
296.962
  0
LINE
  8
0
 10
-9.05655
 20
296.962
 11
-8.86108
 21
297.145
  0
LINE
  8
0
 10
-8.86108
 20
297.145
 11
-8.64413
 21
297.303
  0
LINE
  8
0
 10
-8.64413
 20
297.303
 11
-8.40915
 21
297.432
  0
LINE
  8
0
 10
-8.40915
 20
297.432
 11
-8.15984
 21
297.531
  0
LINE
  8
0
 10
-8.15984
 20
297.531
 11
-7.9001
 21
297.597
  0
LINE
  8
0
 10
-7.9001
 20
297.597
 11
-7.63406
 21
297.631
  0
LINE
  8
0
 10
-7.63406
 20
297.631
 11
-7.36592
 21
297.631
  0
LINE
  8
0
 10
-7.36592
 20
297.631
 11
-7.09988
 21
297.597
  0
LINE
  8
0
 10
-7.09988
 20
297.597
 11
-6.84015
 21
297.531
  0
LINE
  8
0
 10
-6.84015
 20
297.531
 11
-6.59084
 21
297.432
  0
LINE
  8
0
 10
-6.59084
 20
297.432
 11
-6.35585
 21
297.303
  0
LINE
  8
0
 10
-6.35585
 20
297.303
 11
-6.1389
 21
297.145
  0
LINE
  8
0
 10
-6.1389
 20
297.145
 11
-5.94344
 21
296.962
  0
LINE
  8
0
 10
-5.94344
 20
296.962
 11
-5.77251
 21
296.755
  0
LINE
  8
0
 10
-5.77251
 20
296.755
 11
-5.62881
 21
296.529
  0
LINE
  8
0
 10
-5.62881
 20
296.529
 11
-5.51465
 21
296.286
  0
LINE
  8
0
 10
-5.51465
 20
296.286
 11
-5.43178
 21
296.031
  0
LINE
  8
0
 10
-5.43178
 20
296.031
 11
-5.38153
 21
295.768
  0
LINE
  8
0
 10
-5.38153
 20
295.768
 11
-5.3647
 21
295.5
  0
LINE
  8
0
 10
-5.3647
 20
295.5
 11
-5.38153
 21
295.232
  0
LINE
  8
0
 10
-5.38153
 20
295.232
 11
-5.43178
 21
294.969
  0
LINE
  8
0
 10
-5.43178
 20
294.969
 11
-5.51465
 21
294.714
  0
LINE
  8
0
 10
-5.51465
 20
294.714
 11
-5.62881
 21
294.471
  0
LINE
  8
0
 10
-5.62881
 20
294.471
 11
-5.77251
 21
294.245
  0
LINE
  8
0
 10
-5.77251
 20
294.245
 11
-5.94344
 21
294.038
  0
LINE
  8
0
 10
-5.94344
 20
294.038
 11
-6.1389
 21
293.855
  0
LINE
  8
0
 10
-6.1389
 20
293.855
 11
-6.35585
 21
293.697
  0
LINE
  8
0
 10
-6.35585
 20
293.697
 11
-6.59084
 21
293.568
  0
LINE
  8
0
 10
-6.59084
 20
293.568
 11
-6.84015
 21
293.469
  0
LINE
  8
0
 10
-6.84015
 20
293.469
 11
-7.09988
 21
293.403
  0
LINE
  8
0
 10
-7.09988
 20
293.403
 11
-7.36592
 21
293.369
  0
LINE
  8
0
 10
-7.36592
 20
293.369
 11
-7.63406
 21
293.369
  0
ENDSEC
  0
SECTION
  2
OBJECTS
  0
DICTIONARY
  0
ENDSEC
  0
EOF
