  0
SECTION
  2
BLOCKS
  0
ENDSEC
  0
SECTION
  2
ENTITIES
  0
LINE
  8
0
 10
16.5
 20
129.99
 11
6.46451
 21
129.99
  0
LINE
  8
0
 10
6.46451
 20
129.99
 11
9.45465
 21
127
  0
LINE
  8
0
 10
9.45465
 20
127
 11
16.5
 21
127
  0
LINE
  8
0
 10
16.5
 20
127
 11
16.5
 21
129.99
  0
LINE
  8
0
 10
17.9369
 20
86.0886
 11
18.5451
 21
86.2447
  0
LINE
  8
0
 10
18.5451
 20
86.2447
 11
19.1289
 21
86.4759
  0
LINE
  8
0
 10
19.1289
 20
86.4759
 11
19.6791
 21
86.7784
  0
LINE
  8
0
 10
19.6791
 20
86.7784
 11
20.1871
 21
87.1474
  0
LINE
  8
0
 10
20.1871
 20
87.1474
 11
20.6448
 21
87.5773
  0
LINE
  8
0
 10
20.6448
 20
87.5773
 11
21.0451
 21
88.0611
  0
LINE
  8
0
 10
21.0451
 20
88.0611
 11
21.3815
 21
88.5912
  0
LINE
  8
0
 10
21.3815
 20
88.5912
 11
21.6489
 21
89.1594
  0
LINE
  8
0
 10
21.6489
 20
89.1594
 11
21.8429
 21
89.7566
  0
LINE
  8
0
 10
21.8429
 20
89.7566
 11
21.9606
 21
90.3733
  0
LINE
  8
0
 10
21.9606
 20
90.3733
 11
22
 21
91
  0
LINE
  8
0
 10
22
 20
91
 11
22
 21
125
  0
LINE
  8
0
 10
22
 20
125
 11
11
 21
125
  0
LINE
  8
0
 10
11
 20
125
 11
11
 21
120.945
  0
LINE
  8
0
 10
11
 20
120.945
 11
12.3925
 21
119.637
  0
LINE
  8
0
 10
12.3925
 20
119.637
 11
13.7533
 21
117.992
  0
LINE
  8
0
 10
13.7533
 20
117.992
 11
14.8972
 21
116.19
  0
LINE
  8
0
 10
14.8972
 20
116.19
 11
15.8062
 21
114.258
  0
LINE
  8
0
 10
15.8062
 20
114.258
 11
16.4659
 21
112.228
  0
LINE
  8
0
 10
16.4659
 20
112.228
 11
16.8659
 21
110.131
  0
LINE
  8
0
 10
16.8659
 20
110.131
 11
17
 21
108
  0
LINE
  8
0
 10
17
 20
108
 11
16.8659
 21
105.869
  0
LINE
  8
0
 10
16.8659
 20
105.869
 11
16.4659
 21
103.772
  0
LINE
  8
0
 10
16.4659
 20
103.772
 11
15.8062
 21
101.742
  0
LINE
  8
0
 10
15.8062
 20
101.742
 11
14.8972
 21
99.8102
  0
LINE
  8
0
 10
14.8972
 20
99.8102
 11
13.7533
 21
98.0077
  0
LINE
  8
0
 10
13.7533
 20
98.0077
 11
12.3925
 21
96.3627
  0
LINE
  8
0
 10
12.3925
 20
96.3627
 11
10.8362
 21
94.9013
  0
LINE
  8
0
 10
10.8362
 20
94.9013
 11
9.10905
 21
93.6464
  0
LINE
  8
0
 10
9.10905
 20
93.6464
 11
7.23824
 21
92.618
  0
LINE
  8
0
 10
7.23824
 20
92.618
 11
5.25328
 21
91.832
  0
LINE
  8
0
 10
5.25328
 20
91.832
 11
3.18547
 21
91.3011
  0
LINE
  8
0
 10
3.18547
 20
91.3011
 11
1.06743
 21
91.0336
  0
LINE
  8
0
 10
1.06743
 20
91.0336
 11
-1.06743
 21
91.0336
  0
LINE
  8
0
 10
-1.06743
 20
91.0336
 11
-3.18547
 21
91.3011
  0
LINE
  8
0
 10
-3.18547
 20
91.3011
 11
-5.25328
 21
91.832
  0
LINE
  8
0
 10
-5.25328
 20
91.832
 11
-7.23824
 21
92.618
  0
LINE
  8
0
 10
-7.23824
 20
92.618
 11
-9.10905
 21
93.6464
  0
LINE
  8
0
 10
-9.10905
 20
93.6464
 11
-10.8362
 21
94.9013
  0
LINE
  8
0
 10
-10.8362
 20
94.9013
 11
-12.3925
 21
96.3627
  0
LINE
  8
0
 10
-12.3925
 20
96.3627
 11
-13.7533
 21
98.0077
  0
LINE
  8
0
 10
-13.7533
 20
98.0077
 11
-14.8972
 21
99.8102
  0
LINE
  8
0
 10
-14.8972
 20
99.8102
 11
-15.8062
 21
101.742
  0
LINE
  8
0
 10
-15.8062
 20
101.742
 11
-16.4659
 21
103.772
  0
LINE
  8
0
 10
-16.4659
 20
103.772
 11
-16.8659
 21
105.869
  0
LINE
  8
0
 10
-16.8659
 20
105.869
 11
-17
 21
108
  0
LINE
  8
0
 10
-17
 20
108
 11
-16.8659
 21
110.131
  0
LINE
  8
0
 10
-16.8659
 20
110.131
 11
-16.4659
 21
112.228
  0
LINE
  8
0
 10
-16.4659
 20
112.228
 11
-15.8062
 21
114.258
  0
LINE
  8
0
 10
-15.8062
 20
114.258
 11
-14.8972
 21
116.19
  0
LINE
  8
0
 10
-14.8972
 20
116.19
 11
-13.7533
 21
117.992
  0
LINE
  8
0
 10
-13.7533
 20
117.992
 11
-12.3925
 21
119.637
  0
LINE
  8
0
 10
-12.3925
 20
119.637
 11
-10.8362
 21
121.099
  0
LINE
  8
0
 10
-10.8362
 20
121.099
 11
-9.10905
 21
122.354
  0
LINE
  8
0
 10
-9.10905
 20
122.354
 11
-7.23824
 21
123.382
  0
LINE
  8
0
 10
-7.23824
 20
123.382
 11
-5.25328
 21
124.168
  0
LINE
  8
0
 10
-5.25328
 20
124.168
 11
-3.18547
 21
124.699
  0
LINE
  8
0
 10
-3.18547
 20
124.699
 11
-1.06743
 21
124.966
  0
LINE
  8
0
 10
-1.06743
 20
124.966
 11
0
 21
124.966
  0
LINE
  8
0
 10
0
 20
124.966
 11
0
 21
127
  0
LINE
  8
0
 10
0
 20
127
 11
7.33333
 21
127
  0
LINE
  8
0
 10
7.33333
 20
127
 11
4.34319
 21
129.99
  0
LINE
  8
0
 10
4.34319
 20
129.99
 11
-17.3139
 21
129.99
  0
LINE
  8
0
 10
-17.3139
 20
129.99
 11
-17.9369
 21
129.911
  0
LINE
  8
0
 10
-17.9369
 20
129.911
 11
-18.5451
 21
129.755
  0
LINE
  8
0
 10
-18.5451
 20
129.755
 11
-19.1289
 21
129.524
  0
LINE
  8
0
 10
-19.1289
 20
129.524
 11
-19.6791
 21
129.222
  0
LINE
  8
0
 10
-19.6791
 20
129.222
 11
-20.1871
 21
128.853
  0
LINE
  8
0
 10
-20.1871
 20
128.853
 11
-20.6448
 21
128.423
  0
LINE
  8
0
 10
-20.6448
 20
128.423
 11
-21.0451
 21
127.939
  0
LINE
  8
0
 10
-21.0451
 20
127.939
 11
-21.3815
 21
127.409
  0
LINE
  8
0
 10
-21.3815
 20
127.409
 11
-21.6489
 21
126.841
  0
LINE
  8
0
 10
-21.6489
 20
126.841
 11
-21.8429
 21
126.243
  0
LINE
  8
0
 10
-21.8429
 20
126.243
 11
-21.8905
 21
125.994
  0
LINE
  8
0
 10
-21.8905
 20
125.994
 11
-14.8116
 21
125.994
  0
LINE
  8
0
 10
-14.8116
 20
125.994
 11
-14.4379
 21
125.947
  0
LINE
  8
0
 10
-14.4379
 20
125.947
 11
-14.0729
 21
125.853
  0
LINE
  8
0
 10
-14.0729
 20
125.853
 11
-13.7227
 21
125.714
  0
LINE
  8
0
 10
-13.7227
 20
125.714
 11
-13.3925
 21
125.533
  0
LINE
  8
0
 10
-13.3925
 20
125.533
 11
-13.0877
 21
125.312
  0
LINE
  8
0
 10
-13.0877
 20
125.312
 11
-12.8131
 21
125.054
  0
LINE
  8
0
 10
-12.8131
 20
125.054
 11
-12.5729
 21
124.763
  0
LINE
  8
0
 10
-12.5729
 20
124.763
 11
-12.3711
 21
124.445
  0
LINE
  8
0
 10
-12.3711
 20
124.445
 11
-12.2107
 21
124.104
  0
LINE
  8
0
 10
-12.2107
 20
124.104
 11
-12.0942
 21
123.746
  0
LINE
  8
0
 10
-12.0942
 20
123.746
 11
-12.0237
 21
123.376
  0
LINE
  8
0
 10
-12.0237
 20
123.376
 11
-12
 21
123
  0
LINE
  8
0
 10
-12
 20
123
 11
-12.0237
 21
122.624
  0
LINE
  8
0
 10
-12.0237
 20
122.624
 11
-12.0942
 21
122.254
  0
LINE
  8
0
 10
-12.0942
 20
122.254
 11
-12.2107
 21
121.896
  0
LINE
  8
0
 10
-12.2107
 20
121.896
 11
-12.3711
 21
121.555
  0
LINE
  8
0
 10
-12.3711
 20
121.555
 11
-12.5729
 21
121.237
  0
LINE
  8
0
 10
-12.5729
 20
121.237
 11
-12.8131
 21
120.946
  0
LINE
  8
0
 10
-12.8131
 20
120.946
 11
-13.0877
 21
120.688
  0
LINE
  8
0
 10
-13.0877
 20
120.688
 11
-13.3925
 21
120.467
  0
LINE
  8
0
 10
-13.3925
 20
120.467
 11
-13.7227
 21
120.286
  0
LINE
  8
0
 10
-13.7227
 20
120.286
 11
-14.0729
 21
120.147
  0
LINE
  8
0
 10
-14.0729
 20
120.147
 11
-14.4379
 21
120.053
  0
LINE
  8
0
 10
-14.4379
 20
120.053
 11
-14.8116
 21
120.006
  0
LINE
  8
0
 10
-14.8116
 20
120.006
 11
-22
 21
120.006
  0
LINE
  8
0
 10
-22
 20
120.006
 11
-22
 21
95.9941
  0
LINE
  8
0
 10
-22
 20
95.9941
 11
-14.8116
 21
95.9941
  0
LINE
  8
0
 10
-14.8116
 20
95.9941
 11
-14.4379
 21
95.9469
  0
LINE
  8
0
 10
-14.4379
 20
95.9469
 11
-14.0729
 21
95.8532
  0
LINE
  8
0
 10
-14.0729
 20
95.8532
 11
-13.7227
 21
95.7145
  0
LINE
  8
0
 10
-13.7227
 20
95.7145
 11
-13.3925
 21
95.533
  0
LINE
  8
0
 10
-13.3925
 20
95.533
 11
-13.0877
 21
95.3116
  0
LINE
  8
0
 10
-13.0877
 20
95.3116
 11
-12.8131
 21
95.0536
  0
LINE
  8
0
 10
-12.8131
 20
95.0536
 11
-12.5729
 21
94.7634
  0
LINE
  8
0
 10
-12.5729
 20
94.7634
 11
-12.3711
 21
94.4453
  0
LINE
  8
0
 10
-12.3711
 20
94.4453
 11
-12.2107
 21
94.1044
  0
LINE
  8
0
 10
-12.2107
 20
94.1044
 11
-12.0942
 21
93.7461
  0
LINE
  8
0
 10
-12.0942
 20
93.7461
 11
-12.0237
 21
93.376
  0
LINE
  8
0
 10
-12.0237
 20
93.376
 11
-12
 21
93
  0
LINE
  8
0
 10
-12
 20
93
 11
-12.0237
 21
92.624
  0
LINE
  8
0
 10
-12.0237
 20
92.624
 11
-12.0942
 21
92.2539
  0
LINE
  8
0
 10
-12.0942
 20
92.2539
 11
-12.2107
 21
91.8956
  0
LINE
  8
0
 10
-12.2107
 20
91.8956
 11
-12.3711
 21
91.5547
  0
LINE
  8
0
 10
-12.3711
 20
91.5547
 11
-12.5729
 21
91.2366
  0
LINE
  8
0
 10
-12.5729
 20
91.2366
 11
-12.8131
 21
90.9464
  0
LINE
  8
0
 10
-12.8131
 20
90.9464
 11
-13.0877
 21
90.6885
  0
LINE
  8
0
 10
-13.0877
 20
90.6885
 11
-13.3925
 21
90.467
  0
LINE
  8
0
 10
-13.3925
 20
90.467
 11
-13.7227
 21
90.2855
  0
LINE
  8
0
 10
-13.7227
 20
90.2855
 11
-14.0729
 21
90.1468
  0
LINE
  8
0
 10
-14.0729
 20
90.1468
 11
-14.4379
 21
90.0531
  0
LINE
  8
0
 10
-14.4379
 20
90.0531
 11
-14.8116
 21
90.0059
  0
LINE
  8
0
 10
-14.8116
 20
90.0059
 11
-21.8905
 21
90.0059
  0
LINE
  8
0
 10
-21.8905
 20
90.0059
 11
-21.8429
 21
89.7566
  0
LINE
  8
0
 10
-21.8429
 20
89.7566
 11
-21.6489
 21
89.1594
  0
LINE
  8
0
 10
-21.6489
 20
89.1594
 11
-21.3815
 21
88.5912
  0
LINE
  8
0
 10
-21.3815
 20
88.5912
 11
-21.0451
 21
88.0611
  0
LINE
  8
0
 10
-21.0451
 20
88.0611
 11
-20.6448
 21
87.5773
  0
LINE
  8
0
 10
-20.6448
 20
87.5773
 11
-20.1871
 21
87.1474
  0
LINE
  8
0
 10
-20.1871
 20
87.1474
 11
-19.6791
 21
86.7784
  0
LINE
  8
0
 10
-19.6791
 20
86.7784
 11
-19.1289
 21
86.4759
  0
LINE
  8
0
 10
-19.1289
 20
86.4759
 11
-18.5451
 21
86.2447
  0
LINE
  8
0
 10
-18.5451
 20
86.2447
 11
-17.9369
 21
86.0886
  0
LINE
  8
0
 10
-17.9369
 20
86.0886
 11
-17.3139
 21
86.0099
  0
LINE
  8
0
 10
-17.3139
 20
86.0099
 11
17.3139
 21
86.0099
  0
LINE
  8
0
 10
17.3139
 20
86.0099
 11
17.9369
 21
86.0886
  0
LINE
  8
0
 10
14.8116
 20
90.0059
 11
14.4379
 21
90.0531
  0
LINE
  8
0
 10
14.4379
 20
90.0531
 11
14.0729
 21
90.1468
  0
LINE
  8
0
 10
14.0729
 20
90.1468
 11
13.7227
 21
90.2855
  0
LINE
  8
0
 10
13.7227
 20
90.2855
 11
13.3925
 21
90.467
  0
LINE
  8
0
 10
13.3925
 20
90.467
 11
13.0877
 21
90.6885
  0
LINE
  8
0
 10
13.0877
 20
90.6885
 11
12.8131
 21
90.9464
  0
LINE
  8
0
 10
12.8131
 20
90.9464
 11
12.5729
 21
91.2366
  0
LINE
  8
0
 10
12.5729
 20
91.2366
 11
12.3711
 21
91.5547
  0
LINE
  8
0
 10
12.3711
 20
91.5547
 11
12.2107
 21
91.8956
  0
LINE
  8
0
 10
12.2107
 20
91.8956
 11
12.0942
 21
92.2539
  0
LINE
  8
0
 10
12.0942
 20
92.2539
 11
12.0237
 21
92.624
  0
LINE
  8
0
 10
12.0237
 20
92.624
 11
12
 21
93
  0
LINE
  8
0
 10
12
 20
93
 11
12.0237
 21
93.376
  0
LINE
  8
0
 10
12.0237
 20
93.376
 11
12.0942
 21
93.7461
  0
LINE
  8
0
 10
12.0942
 20
93.7461
 11
12.2107
 21
94.1044
  0
LINE
  8
0
 10
12.2107
 20
94.1044
 11
12.3711
 21
94.4453
  0
LINE
  8
0
 10
12.3711
 20
94.4453
 11
12.5729
 21
94.7634
  0
LINE
  8
0
 10
12.5729
 20
94.7634
 11
12.8131
 21
95.0536
  0
LINE
  8
0
 10
12.8131
 20
95.0536
 11
13.0877
 21
95.3116
  0
LINE
  8
0
 10
13.0877
 20
95.3116
 11
13.3925
 21
95.533
  0
LINE
  8
0
 10
13.3925
 20
95.533
 11
13.7227
 21
95.7145
  0
LINE
  8
0
 10
13.7227
 20
95.7145
 11
14.0729
 21
95.8532
  0
LINE
  8
0
 10
14.0729
 20
95.8532
 11
14.4379
 21
95.9469
  0
LINE
  8
0
 10
14.4379
 20
95.9469
 11
14.8116
 21
95.9941
  0
LINE
  8
0
 10
14.8116
 20
95.9941
 11
15.1884
 21
95.9941
  0
LINE
  8
0
 10
15.1884
 20
95.9941
 11
15.5621
 21
95.9469
  0
LINE
  8
0
 10
15.5621
 20
95.9469
 11
15.927
 21
95.8532
  0
LINE
  8
0
 10
15.927
 20
95.8532
 11
16.2773
 21
95.7145
  0
LINE
  8
0
 10
16.2773
 20
95.7145
 11
16.6075
 21
95.533
  0
LINE
  8
0
 10
16.6075
 20
95.533
 11
16.9123
 21
95.3116
  0
LINE
  8
0
 10
16.9123
 20
95.3116
 11
17.1869
 21
95.0536
  0
LINE
  8
0
 10
17.1869
 20
95.0536
 11
17.427
 21
94.7634
  0
LINE
  8
0
 10
17.427
 20
94.7634
 11
17.6289
 21
94.4453
  0
LINE
  8
0
 10
17.6289
 20
94.4453
 11
17.7893
 21
94.1044
  0
LINE
  8
0
 10
17.7893
 20
94.1044
 11
17.9057
 21
93.7461
  0
LINE
  8
0
 10
17.9057
 20
93.7461
 11
17.9763
 21
93.376
  0
LINE
  8
0
 10
17.9763
 20
93.376
 11
18
 21
93
  0
LINE
  8
0
 10
18
 20
93
 11
17.9763
 21
92.624
  0
LINE
  8
0
 10
17.9763
 20
92.624
 11
17.9057
 21
92.2539
  0
LINE
  8
0
 10
17.9057
 20
92.2539
 11
17.7893
 21
91.8956
  0
LINE
  8
0
 10
17.7893
 20
91.8956
 11
17.6289
 21
91.5547
  0
LINE
  8
0
 10
17.6289
 20
91.5547
 11
17.427
 21
91.2366
  0
LINE
  8
0
 10
17.427
 20
91.2366
 11
17.1869
 21
90.9464
  0
LINE
  8
0
 10
17.1869
 20
90.9464
 11
16.9123
 21
90.6885
  0
LINE
  8
0
 10
16.9123
 20
90.6885
 11
16.6075
 21
90.467
  0
LINE
  8
0
 10
16.6075
 20
90.467
 11
16.2773
 21
90.2855
  0
LINE
  8
0
 10
16.2773
 20
90.2855
 11
15.927
 21
90.1468
  0
LINE
  8
0
 10
15.927
 20
90.1468
 11
15.5621
 21
90.0531
  0
LINE
  8
0
 10
15.5621
 20
90.0531
 11
15.1884
 21
90.0059
  0
LINE
  8
0
 10
15.1884
 20
90.0059
 11
14.8116
 21
90.0059
  0
ENDSEC
  0
SECTION
  2
OBJECTS
  0
DICTIONARY
  0
ENDSEC
  0
EOF
