<?xml version="1.0" standalone="no"?>
<!DOCTYPE svg PUBLIC "-//W3C//DTD SVG 1.1//EN" "http://www.w3.org/Graphics/SVG/1.1/DTD/svg11.dtd">
<svg width="30mm" height="468mm" viewBox="-15 -711 30 468" xmlns="http://www.w3.org/2000/svg" version="1.1">
<title>OpenSCAD Model</title>
<path d="
M 10.9369,-561.089 L 11.5451,-561.245 L 12.1289,-561.476 L 12.6791,-561.778 L 13.1871,-562.147 L 13.6448,-562.577
 L 14.0451,-563.061 L 14.3815,-563.591 L 14.6489,-564.159 L 14.8429,-564.757 L 14.9606,-565.373 L 15,-566
 L 15,-706 L 14.9606,-706.627 L 14.8429,-707.243 L 14.6489,-707.841 L 14.3815,-708.409 L 14.0451,-708.939
 L 13.6448,-709.423 L 13.1871,-709.853 L 12.6791,-710.222 L 12.1289,-710.524 L 11.5451,-710.755 L 10.9369,-710.911
 L 10.3139,-710.99 L -10.3139,-710.99 L -10.9369,-710.911 L -11.5451,-710.755 L -12.1289,-710.524 L -12.6791,-710.222
 L -13.1871,-709.853 L -13.6448,-709.423 L -14.0451,-708.939 L -14.3815,-708.409 L -14.6489,-707.841 L -14.8429,-707.243
 L -14.9606,-706.627 L -15,-706 L -15,-566 L -14.9606,-565.373 L -14.8429,-564.757 L -14.6489,-564.159
 L -14.3815,-563.591 L -14.0451,-563.061 L -13.6448,-562.577 L -13.1871,-562.147 L -12.6791,-561.778 L -12.1289,-561.476
 L -11.5451,-561.245 L -10.9369,-561.089 L -10.3139,-561.01 L 10.3139,-561.01 z
M -9.74316,-562.635 L -10.2256,-562.696 L -10.6967,-562.817 L -11.1489,-562.996 L -11.5751,-563.23 L -11.9685,-563.516
 L -12.323,-563.849 L -12.633,-564.224 L -12.8936,-564.634 L -13.1007,-565.074 L -13.251,-565.537 L -13.3421,-566.015
 L -13.3726,-566.5 L -13.3726,-705.5 L -13.3421,-705.985 L -13.251,-706.463 L -13.1007,-706.926 L -12.8936,-707.366
 L -12.633,-707.776 L -12.323,-708.151 L -11.9685,-708.484 L -11.5751,-708.77 L -11.1489,-709.004 L -10.6967,-709.183
 L -10.2256,-709.304 L -9.74316,-709.365 L 9.74316,-709.365 L 10.2256,-709.304 L 10.6967,-709.183 L 11.1489,-709.004
 L 11.5751,-708.77 L 11.9685,-708.484 L 12.323,-708.151 L 12.633,-707.776 L 12.8936,-707.366 L 13.1007,-706.926
 L 13.251,-706.463 L 13.3421,-705.985 L 13.3726,-705.5 L 13.3726,-566.5 L 13.3421,-566.015 L 13.251,-565.537
 L 13.1007,-565.074 L 12.8936,-564.634 L 12.633,-564.224 L 12.323,-563.849 L 11.9685,-563.516 L 11.5751,-563.23
 L 11.1489,-562.996 L 10.6967,-562.817 L 10.2256,-562.696 L 9.74316,-562.635 z
M 10.9369,-402.089 L 11.5451,-402.245 L 12.1289,-402.476 L 12.6791,-402.778 L 13.1871,-403.147 L 13.6448,-403.577
 L 14.0451,-404.061 L 14.3815,-404.591 L 14.6489,-405.159 L 14.8429,-405.757 L 14.9606,-406.373 L 15,-407
 L 15,-547 L 14.9606,-547.627 L 14.8429,-548.243 L 14.6489,-548.841 L 14.3815,-549.409 L 14.0451,-549.939
 L 13.6448,-550.423 L 13.1871,-550.853 L 12.6791,-551.222 L 12.1289,-551.524 L 11.5451,-551.755 L 10.9369,-551.911
 L 10.3139,-551.99 L -10.3139,-551.99 L -10.9369,-551.911 L -11.5451,-551.755 L -12.1289,-551.524 L -12.6791,-551.222
 L -13.1871,-550.853 L -13.6448,-550.423 L -14.0451,-549.939 L -14.3815,-549.409 L -14.6489,-548.841 L -14.8429,-548.243
 L -14.9606,-547.627 L -15,-547 L -15,-407 L -14.9606,-406.373 L -14.8429,-405.757 L -14.6489,-405.159
 L -14.3815,-404.591 L -14.0451,-404.061 L -13.6448,-403.577 L -13.1871,-403.147 L -12.6791,-402.778 L -12.1289,-402.476
 L -11.5451,-402.245 L -10.9369,-402.089 L -10.3139,-402.01 L 10.3139,-402.01 z
M 10.9369,-243.089 L 11.5451,-243.245 L 12.1289,-243.476 L 12.6791,-243.778 L 13.1871,-244.147 L 13.6448,-244.577
 L 14.0451,-245.061 L 14.3815,-245.591 L 14.6489,-246.159 L 14.8429,-246.757 L 14.9606,-247.373 L 15,-248
 L 15,-388 L 14.9606,-388.627 L 14.8429,-389.243 L 14.6489,-389.841 L 14.3815,-390.409 L 14.0451,-390.939
 L 13.6448,-391.423 L 13.1871,-391.853 L 12.6791,-392.222 L 12.1289,-392.524 L 11.5451,-392.755 L 10.9369,-392.911
 L 10.3139,-392.99 L -10.3139,-392.99 L -10.9369,-392.911 L -11.5451,-392.755 L -12.1289,-392.524 L -12.6791,-392.222
 L -13.1871,-391.853 L -13.6448,-391.423 L -14.0451,-390.939 L -14.3815,-390.409 L -14.6489,-389.841 L -14.8429,-389.243
 L -14.9606,-388.627 L -15,-388 L -15,-248 L -14.9606,-247.373 L -14.8429,-246.757 L -14.6489,-246.159
 L -14.3815,-245.591 L -14.0451,-245.061 L -13.6448,-244.577 L -13.1871,-244.147 L -12.6791,-243.778 L -12.1289,-243.476
 L -11.5451,-243.245 L -10.9369,-243.089 L -10.3139,-243.01 L 10.3139,-243.01 z
M 7.38696,-383.704 L 7.1627,-383.732 L 6.94376,-383.788 L 6.7336,-383.871 L 6.53551,-383.98 L 6.35263,-384.113
 L 6.18785,-384.268 L 6.04376,-384.442 L 5.92264,-384.633 L 5.8264,-384.837 L 5.75655,-385.052 L 5.71419,-385.274
 L 5.7,-385.5 L 5.71419,-385.726 L 5.75655,-385.948 L 5.8264,-386.163 L 5.92264,-386.367 L 6.04376,-386.558
 L 6.18785,-386.732 L 6.35263,-386.887 L 6.53551,-387.02 L 6.7336,-387.129 L 6.94376,-387.212 L 7.1627,-387.268
 L 7.38696,-387.296 L 7.61302,-387.296 L 7.83728,-387.268 L 8.05623,-387.212 L 8.26639,-387.129 L 8.46448,-387.02
 L 8.64735,-386.887 L 8.81213,-386.732 L 8.95622,-386.558 L 9.07735,-386.367 L 9.17358,-386.163 L 9.24344,-385.948
 L 9.2858,-385.726 L 9.29999,-385.5 L 9.2858,-385.274 L 9.24344,-385.052 L 9.17358,-384.837 L 9.07735,-384.633
 L 8.95622,-384.442 L 8.81213,-384.268 L 8.64735,-384.113 L 8.46448,-383.98 L 8.26639,-383.871 L 8.05623,-383.788
 L 7.83728,-383.732 L 7.61302,-383.704 z
M -7.61302,-383.704 L -7.83728,-383.732 L -8.05623,-383.788 L -8.26639,-383.871 L -8.46448,-383.98 L -8.64735,-384.113
 L -8.81213,-384.268 L -8.95622,-384.442 L -9.07735,-384.633 L -9.17358,-384.837 L -9.24344,-385.052 L -9.2858,-385.274
 L -9.29999,-385.5 L -9.2858,-385.726 L -9.24344,-385.948 L -9.17358,-386.163 L -9.07735,-386.367 L -8.95622,-386.558
 L -8.81213,-386.732 L -8.64735,-386.887 L -8.46448,-387.02 L -8.26639,-387.129 L -8.05623,-387.212 L -7.83728,-387.268
 L -7.61302,-387.296 L -7.38696,-387.296 L -7.1627,-387.268 L -6.94376,-387.212 L -6.7336,-387.129 L -6.53551,-387.02
 L -6.35263,-386.887 L -6.18785,-386.732 L -6.04376,-386.558 L -5.92264,-386.367 L -5.8264,-386.163 L -5.75655,-385.948
 L -5.71419,-385.726 L -5.7,-385.5 L -5.71419,-385.274 L -5.75655,-385.052 L -5.8264,-384.837 L -5.92264,-384.633
 L -6.04376,-384.442 L -6.18785,-384.268 L -6.35263,-384.113 L -6.53551,-383.98 L -6.7336,-383.871 L -6.94376,-383.788
 L -7.1627,-383.732 L -7.38696,-383.704 z
M -7.61302,-248.704 L -7.83728,-248.732 L -8.05623,-248.788 L -8.26639,-248.871 L -8.46448,-248.98 L -8.64735,-249.113
 L -8.81213,-249.268 L -8.95622,-249.442 L -9.07735,-249.633 L -9.17358,-249.837 L -9.24344,-250.052 L -9.2858,-250.274
 L -9.29999,-250.5 L -9.2858,-250.726 L -9.24344,-250.948 L -9.17358,-251.163 L -9.07735,-251.367 L -8.95622,-251.558
 L -8.81213,-251.732 L -8.64735,-251.887 L -8.46448,-252.02 L -8.26639,-252.129 L -8.05623,-252.212 L -7.83728,-252.268
 L -7.61302,-252.296 L -7.38696,-252.296 L -7.1627,-252.268 L -6.94376,-252.212 L -6.7336,-252.129 L -6.53551,-252.02
 L -6.35263,-251.887 L -6.18785,-251.732 L -6.04376,-251.558 L -5.92264,-251.367 L -5.8264,-251.163 L -5.75655,-250.948
 L -5.71419,-250.726 L -5.7,-250.5 L -5.71419,-250.274 L -5.75655,-250.052 L -5.8264,-249.837 L -5.92264,-249.633
 L -6.04376,-249.442 L -6.18785,-249.268 L -6.35263,-249.113 L -6.53551,-248.98 L -6.7336,-248.871 L -6.94376,-248.788
 L -7.1627,-248.732 L -7.38696,-248.704 z
M 7.38696,-248.704 L 7.1627,-248.732 L 6.94376,-248.788 L 6.7336,-248.871 L 6.53551,-248.98 L 6.35263,-249.113
 L 6.18785,-249.268 L 6.04376,-249.442 L 5.92264,-249.633 L 5.8264,-249.837 L 5.75655,-250.052 L 5.71419,-250.274
 L 5.7,-250.5 L 5.71419,-250.726 L 5.75655,-250.948 L 5.8264,-251.163 L 5.92264,-251.367 L 6.04376,-251.558
 L 6.18785,-251.732 L 6.35263,-251.887 L 6.53551,-252.02 L 6.7336,-252.129 L 6.94376,-252.212 L 7.1627,-252.268
 L 7.38696,-252.296 L 7.61302,-252.296 L 7.83728,-252.268 L 8.05623,-252.212 L 8.26639,-252.129 L 8.46448,-252.02
 L 8.64735,-251.887 L 8.81213,-251.732 L 8.95622,-251.558 L 9.07735,-251.367 L 9.17358,-251.163 L 9.24344,-250.948
 L 9.2858,-250.726 L 9.29999,-250.5 L 9.2858,-250.274 L 9.24344,-250.052 L 9.17358,-249.837 L 9.07735,-249.633
 L 8.95622,-249.442 L 8.81213,-249.268 L 8.64735,-249.113 L 8.46448,-248.98 L 8.26639,-248.871 L 8.05623,-248.788
 L 7.83728,-248.732 L 7.61302,-248.704 z
" stroke="black" fill="lightgray" stroke-width="0.5"/>
</svg>
