<?xml version="1.0" standalone="no"?>
<!DOCTYPE svg PUBLIC "-//W3C//DTD SVG 1.1//EN" "http://www.w3.org/Graphics/SVG/1.1/DTD/svg11.dtd">
<svg width="44mm" height="44mm" viewBox="-22 -130 44 44" xmlns="http://www.w3.org/2000/svg" version="1.1">
<title>OpenSCAD Model</title>
<path d="
M 17.9369,-86.0886 L 18.5451,-86.2447 L 19.1289,-86.4759 L 19.6791,-86.7784 L 20.1871,-87.1474 L 20.6448,-87.5773
 L 21.0451,-88.0611 L 21.3815,-88.5912 L 21.6489,-89.1594 L 21.8429,-89.7566 L 21.9606,-90.3733 L 22,-91
 L 22,-123 L 11.5,-123 L 11.5,-122.995 L 11.343,-122.995 L 11.0315,-122.956 L 10.7274,-122.878
 L 10.4355,-122.762 L 10.1604,-122.611 L 9.90643,-122.426 L 9.67757,-122.211 L 9.47745,-121.969 L 9.30922,-121.704
 L 9.17555,-121.42 L 9.07854,-121.122 L 9.0197,-120.813 L 9,-120.5 L 9.0197,-120.187 L 9.07854,-119.878
 L 9.17555,-119.58 L 9.30922,-119.296 L 9.47745,-119.031 L 9.67757,-118.789 L 9.90643,-118.574 L 10.1604,-118.389
 L 10.4355,-118.238 L 10.7274,-118.122 L 11.0315,-118.044 L 11.343,-118.005 L 13.7429,-118.005 L 13.7533,-117.992
 L 14.8972,-116.19 L 15.8062,-114.258 L 16.4659,-112.228 L 16.8659,-110.131 L 17,-108 L 16.8659,-105.869
 L 16.4659,-103.772 L 15.8062,-101.742 L 14.8972,-99.8102 L 13.7533,-98.0077 L 12.3925,-96.3627 L 10.8362,-94.9013
 L 9.10905,-93.6464 L 7.23824,-92.618 L 5.25328,-91.832 L 3.18547,-91.3011 L 1.06743,-91.0336 L -1.06743,-91.0336
 L -3.18547,-91.3011 L -5.25328,-91.832 L -7.23824,-92.618 L -9.10905,-93.6464 L -10.8362,-94.9013 L -12.3925,-96.3627
 L -13.7533,-98.0077 L -14.8972,-99.8102 L -15.8062,-101.742 L -16.4659,-103.772 L -16.8659,-105.869 L -17,-108
 L -16.8659,-110.131 L -16.4659,-112.228 L -15.8062,-114.258 L -14.8972,-116.19 L -13.7533,-117.992 L -12.3925,-119.637
 L -10.8362,-121.099 L -9.10905,-122.354 L -7.23824,-123.382 L -5.25328,-124.168 L -3.18547,-124.699 L -1.06743,-124.966
 L 0,-124.966 L 0,-127 L 6.99998,-127 L 4.00986,-129.99 L 3.5,-129.99 L 3.5,-129
 L -21.5,-129 L -21.5,-130 L -22,-130 L -22,-125.994 L -14.8116,-125.994 L -14.4379,-125.947
 L -14.0729,-125.853 L -13.7227,-125.714 L -13.3925,-125.533 L -13.0877,-125.312 L -12.8131,-125.054 L -12.5729,-124.763
 L -12.3711,-124.445 L -12.2107,-124.104 L -12.0942,-123.746 L -12.0237,-123.376 L -12,-123 L -12.0237,-122.624
 L -12.0942,-122.254 L -12.2107,-121.896 L -12.3711,-121.555 L -12.5729,-121.237 L -12.8131,-120.946 L -13.0877,-120.688
 L -13.3925,-120.467 L -13.7227,-120.286 L -14.0729,-120.147 L -14.4379,-120.053 L -14.8116,-120.006 L -22,-120.006
 L -22,-95.9941 L -14.8116,-95.9941 L -14.4379,-95.9469 L -14.0729,-95.8532 L -13.7227,-95.7145 L -13.3925,-95.533
 L -13.0877,-95.3116 L -12.8131,-95.0536 L -12.5729,-94.7634 L -12.3711,-94.4453 L -12.2107,-94.1044 L -12.0942,-93.7461
 L -12.0237,-93.376 L -12,-93 L -12.0237,-92.624 L -12.0942,-92.2539 L -12.2107,-91.8956 L -12.3711,-91.5547
 L -12.5729,-91.2366 L -12.8131,-90.9464 L -13.0877,-90.6885 L -13.3925,-90.467 L -13.7227,-90.2855 L -14.0729,-90.1468
 L -14.4379,-90.0531 L -14.8116,-90.0059 L -21.8905,-90.0059 L -21.8429,-89.7566 L -21.6489,-89.1594 L -21.3815,-88.5912
 L -21.0451,-88.0611 L -20.6448,-87.5773 L -20.1871,-87.1474 L -19.6791,-86.7784 L -19.1289,-86.4759 L -18.5451,-86.2447
 L -17.9369,-86.0886 L -17.3139,-86.0099 L 17.3139,-86.0099 z
M 14.8116,-90.0059 L 14.4379,-90.0531 L 14.0729,-90.1468 L 13.7227,-90.2855 L 13.3925,-90.467 L 13.0877,-90.6885
 L 12.8131,-90.9464 L 12.5729,-91.2366 L 12.3711,-91.5547 L 12.2107,-91.8956 L 12.0942,-92.2539 L 12.0237,-92.624
 L 12,-93 L 12.0237,-93.376 L 12.0942,-93.7461 L 12.2107,-94.1044 L 12.3711,-94.4453 L 12.5729,-94.7634
 L 12.8131,-95.0536 L 13.0877,-95.3116 L 13.3925,-95.533 L 13.7227,-95.7145 L 14.0729,-95.8532 L 14.4379,-95.9469
 L 14.8116,-95.9941 L 15.1884,-95.9941 L 15.5621,-95.9469 L 15.927,-95.8532 L 16.2773,-95.7145 L 16.6075,-95.533
 L 16.9123,-95.3116 L 17.1869,-95.0536 L 17.427,-94.7634 L 17.6289,-94.4453 L 17.7893,-94.1044 L 17.9057,-93.7461
 L 17.9763,-93.376 L 18,-93 L 17.9763,-92.624 L 17.9057,-92.2539 L 17.7893,-91.8956 L 17.6289,-91.5547
 L 17.427,-91.2366 L 17.1869,-90.9464 L 16.9123,-90.6885 L 16.6075,-90.467 L 16.2773,-90.2855 L 15.927,-90.1468
 L 15.5621,-90.0531 L 15.1884,-90.0059 z
M 16,-129.99 L 6.13118,-129.99 L 9.12131,-127 L 16,-127 z
" stroke="black" fill="lightgray" stroke-width="0.5"/>
</svg>
