  0
SECTION
  2
BLOCKS
  0
ENDSEC
  0
SECTION
  2
ENTITIES
  0
LINE
  8
0
 10
78.4369
 20
247.589
 11
79.0451
 21
247.745
  0
LINE
  8
0
 10
79.0451
 20
247.745
 11
79.6289
 21
247.976
  0
LINE
  8
0
 10
79.6289
 20
247.976
 11
80.1791
 21
248.278
  0
LINE
  8
0
 10
80.1791
 20
248.278
 11
80.6871
 21
248.647
  0
LINE
  8
0
 10
80.6871
 20
248.647
 11
81.1448
 21
249.077
  0
LINE
  8
0
 10
81.1448
 20
249.077
 11
81.5451
 21
249.561
  0
LINE
  8
0
 10
81.5451
 20
249.561
 11
81.8815
 21
250.091
  0
LINE
  8
0
 10
81.8815
 20
250.091
 11
82.1489
 21
250.659
  0
LINE
  8
0
 10
82.1489
 20
250.659
 11
82.3429
 21
251.257
  0
LINE
  8
0
 10
82.3429
 20
251.257
 11
82.4606
 21
251.873
  0
LINE
  8
0
 10
82.4606
 20
251.873
 11
82.5
 21
252.5
  0
LINE
  8
0
 10
82.5
 20
252.5
 11
82.5
 21
287.5
  0
LINE
  8
0
 10
82.5
 20
287.5
 11
82.4606
 21
288.127
  0
LINE
  8
0
 10
82.4606
 20
288.127
 11
82.3429
 21
288.743
  0
LINE
  8
0
 10
82.3429
 20
288.743
 11
82.1489
 21
289.341
  0
LINE
  8
0
 10
82.1489
 20
289.341
 11
81.8815
 21
289.909
  0
LINE
  8
0
 10
81.8815
 20
289.909
 11
81.5451
 21
290.439
  0
LINE
  8
0
 10
81.5451
 20
290.439
 11
81.1448
 21
290.923
  0
LINE
  8
0
 10
81.1448
 20
290.923
 11
80.6871
 21
291.353
  0
LINE
  8
0
 10
80.6871
 20
291.353
 11
80.1791
 21
291.722
  0
LINE
  8
0
 10
80.1791
 20
291.722
 11
79.6289
 21
292.024
  0
LINE
  8
0
 10
79.6289
 20
292.024
 11
79.0451
 21
292.255
  0
LINE
  8
0
 10
79.0451
 20
292.255
 11
78.4369
 21
292.411
  0
LINE
  8
0
 10
78.4369
 20
292.411
 11
77.8139
 21
292.49
  0
LINE
  8
0
 10
77.8139
 20
292.49
 11
-77.8139
 21
292.49
  0
LINE
  8
0
 10
-77.8139
 20
292.49
 11
-78.4369
 21
292.411
  0
LINE
  8
0
 10
-78.4369
 20
292.411
 11
-79.0451
 21
292.255
  0
LINE
  8
0
 10
-79.0451
 20
292.255
 11
-79.6289
 21
292.024
  0
LINE
  8
0
 10
-79.6289
 20
292.024
 11
-80.1791
 21
291.722
  0
LINE
  8
0
 10
-80.1791
 20
291.722
 11
-80.6871
 21
291.353
  0
LINE
  8
0
 10
-80.6871
 20
291.353
 11
-81.1448
 21
290.923
  0
LINE
  8
0
 10
-81.1448
 20
290.923
 11
-81.5451
 21
290.439
  0
LINE
  8
0
 10
-81.5451
 20
290.439
 11
-81.8815
 21
289.909
  0
LINE
  8
0
 10
-81.8815
 20
289.909
 11
-82.1489
 21
289.341
  0
LINE
  8
0
 10
-82.1489
 20
289.341
 11
-82.3429
 21
288.743
  0
LINE
  8
0
 10
-82.3429
 20
288.743
 11
-82.4606
 21
288.127
  0
LINE
  8
0
 10
-82.4606
 20
288.127
 11
-82.5
 21
287.5
  0
LINE
  8
0
 10
-82.5
 20
287.5
 11
-82.5
 21
252.5
  0
LINE
  8
0
 10
-82.5
 20
252.5
 11
-82.4606
 21
251.873
  0
LINE
  8
0
 10
-82.4606
 20
251.873
 11
-82.3429
 21
251.257
  0
LINE
  8
0
 10
-82.3429
 20
251.257
 11
-82.1489
 21
250.659
  0
LINE
  8
0
 10
-82.1489
 20
250.659
 11
-81.8815
 21
250.091
  0
LINE
  8
0
 10
-81.8815
 20
250.091
 11
-81.5451
 21
249.561
  0
LINE
  8
0
 10
-81.5451
 20
249.561
 11
-81.1448
 21
249.077
  0
LINE
  8
0
 10
-81.1448
 20
249.077
 11
-80.6871
 21
248.647
  0
LINE
  8
0
 10
-80.6871
 20
248.647
 11
-80.1791
 21
248.278
  0
LINE
  8
0
 10
-80.1791
 20
248.278
 11
-79.6289
 21
247.976
  0
LINE
  8
0
 10
-79.6289
 20
247.976
 11
-79.0451
 21
247.745
  0
LINE
  8
0
 10
-79.0451
 20
247.745
 11
-78.4369
 21
247.589
  0
LINE
  8
0
 10
-78.4369
 20
247.589
 11
-77.8139
 21
247.51
  0
LINE
  8
0
 10
-77.8139
 20
247.51
 11
77.8139
 21
247.51
  0
LINE
  8
0
 10
77.8139
 20
247.51
 11
78.4369
 21
247.589
  0
LINE
  8
0
 10
-77.5482
 20
248.009
 11
-78.1401
 21
248.084
  0
LINE
  8
0
 10
-78.1401
 20
248.084
 11
-78.7178
 21
248.232
  0
LINE
  8
0
 10
-78.7178
 20
248.232
 11
-79.2724
 21
248.452
  0
LINE
  8
0
 10
-79.2724
 20
248.452
 11
-79.7952
 21
248.739
  0
LINE
  8
0
 10
-79.7952
 20
248.739
 11
-80.2778
 21
249.09
  0
LINE
  8
0
 10
-80.2778
 20
249.09
 11
-80.7126
 21
249.498
  0
LINE
  8
0
 10
-80.7126
 20
249.498
 11
-81.0928
 21
249.958
  0
LINE
  8
0
 10
-81.0928
 20
249.958
 11
-81.4125
 21
250.462
  0
LINE
  8
0
 10
-81.4125
 20
250.462
 11
-81.6664
 21
251.001
  0
LINE
  8
0
 10
-81.6664
 20
251.001
 11
-81.8508
 21
251.569
  0
LINE
  8
0
 10
-81.8508
 20
251.569
 11
-81.9625
 21
252.155
  0
LINE
  8
0
 10
-81.9625
 20
252.155
 11
-82
 21
252.75
  0
LINE
  8
0
 10
-82
 20
252.75
 11
-82
 21
287.25
  0
LINE
  8
0
 10
-82
 20
287.25
 11
-81.9625
 21
287.845
  0
LINE
  8
0
 10
-81.9625
 20
287.845
 11
-81.8508
 21
288.431
  0
LINE
  8
0
 10
-81.8508
 20
288.431
 11
-81.6664
 21
288.999
  0
LINE
  8
0
 10
-81.6664
 20
288.999
 11
-81.4125
 21
289.538
  0
LINE
  8
0
 10
-81.4125
 20
289.538
 11
-81.0928
 21
290.042
  0
LINE
  8
0
 10
-81.0928
 20
290.042
 11
-80.7126
 21
290.502
  0
LINE
  8
0
 10
-80.7126
 20
290.502
 11
-80.2778
 21
290.91
  0
LINE
  8
0
 10
-80.2778
 20
290.91
 11
-79.7952
 21
291.261
  0
LINE
  8
0
 10
-79.7952
 20
291.261
 11
-79.2724
 21
291.548
  0
LINE
  8
0
 10
-79.2724
 20
291.548
 11
-78.7178
 21
291.768
  0
LINE
  8
0
 10
-78.7178
 20
291.768
 11
-78.1401
 21
291.916
  0
LINE
  8
0
 10
-78.1401
 20
291.916
 11
-77.5482
 21
291.991
  0
LINE
  8
0
 10
-77.5482
 20
291.991
 11
77.5482
 21
291.991
  0
LINE
  8
0
 10
77.5482
 20
291.991
 11
78.1401
 21
291.916
  0
LINE
  8
0
 10
78.1401
 20
291.916
 11
78.7178
 21
291.768
  0
LINE
  8
0
 10
78.7178
 20
291.768
 11
79.2724
 21
291.548
  0
LINE
  8
0
 10
79.2724
 20
291.548
 11
79.7952
 21
291.261
  0
LINE
  8
0
 10
79.7952
 20
291.261
 11
80.2778
 21
290.91
  0
LINE
  8
0
 10
80.2778
 20
290.91
 11
80.7126
 21
290.502
  0
LINE
  8
0
 10
80.7126
 20
290.502
 11
81.0928
 21
290.042
  0
LINE
  8
0
 10
81.0928
 20
290.042
 11
81.4125
 21
289.538
  0
LINE
  8
0
 10
81.4125
 20
289.538
 11
81.6664
 21
288.999
  0
LINE
  8
0
 10
81.6664
 20
288.999
 11
81.8508
 21
288.431
  0
LINE
  8
0
 10
81.8508
 20
288.431
 11
81.9625
 21
287.845
  0
LINE
  8
0
 10
81.9625
 20
287.845
 11
82
 21
287.25
  0
LINE
  8
0
 10
82
 20
287.25
 11
82
 21
252.75
  0
LINE
  8
0
 10
82
 20
252.75
 11
81.9625
 21
252.155
  0
LINE
  8
0
 10
81.9625
 20
252.155
 11
81.8508
 21
251.569
  0
LINE
  8
0
 10
81.8508
 20
251.569
 11
81.6664
 21
251.001
  0
LINE
  8
0
 10
81.6664
 20
251.001
 11
81.4125
 21
250.462
  0
LINE
  8
0
 10
81.4125
 20
250.462
 11
81.0928
 21
249.958
  0
LINE
  8
0
 10
81.0928
 20
249.958
 11
80.7126
 21
249.498
  0
LINE
  8
0
 10
80.7126
 20
249.498
 11
80.2778
 21
249.09
  0
LINE
  8
0
 10
80.2778
 20
249.09
 11
79.7952
 21
248.739
  0
LINE
  8
0
 10
79.7952
 20
248.739
 11
79.2724
 21
248.452
  0
LINE
  8
0
 10
79.2724
 20
248.452
 11
78.7178
 21
248.232
  0
LINE
  8
0
 10
78.7178
 20
248.232
 11
78.1401
 21
248.084
  0
LINE
  8
0
 10
78.1401
 20
248.084
 11
77.5482
 21
248.009
  0
LINE
  8
0
 10
77.5482
 20
248.009
 11
-77.5482
 21
248.009
  0
LINE
  8
0
 10
78.4369
 20
193.589
 11
79.0451
 21
193.745
  0
LINE
  8
0
 10
79.0451
 20
193.745
 11
79.6289
 21
193.976
  0
LINE
  8
0
 10
79.6289
 20
193.976
 11
80.1791
 21
194.278
  0
LINE
  8
0
 10
80.1791
 20
194.278
 11
80.6871
 21
194.647
  0
LINE
  8
0
 10
80.6871
 20
194.647
 11
81.1448
 21
195.077
  0
LINE
  8
0
 10
81.1448
 20
195.077
 11
81.5451
 21
195.561
  0
LINE
  8
0
 10
81.5451
 20
195.561
 11
81.8815
 21
196.091
  0
LINE
  8
0
 10
81.8815
 20
196.091
 11
82.1489
 21
196.659
  0
LINE
  8
0
 10
82.1489
 20
196.659
 11
82.3429
 21
197.257
  0
LINE
  8
0
 10
82.3429
 20
197.257
 11
82.4606
 21
197.873
  0
LINE
  8
0
 10
82.4606
 20
197.873
 11
82.5
 21
198.5
  0
LINE
  8
0
 10
82.5
 20
198.5
 11
82.5
 21
233.5
  0
LINE
  8
0
 10
82.5
 20
233.5
 11
82.4606
 21
234.127
  0
LINE
  8
0
 10
82.4606
 20
234.127
 11
82.3429
 21
234.743
  0
LINE
  8
0
 10
82.3429
 20
234.743
 11
82.1489
 21
235.341
  0
LINE
  8
0
 10
82.1489
 20
235.341
 11
81.8815
 21
235.909
  0
LINE
  8
0
 10
81.8815
 20
235.909
 11
81.5451
 21
236.439
  0
LINE
  8
0
 10
81.5451
 20
236.439
 11
81.1448
 21
236.923
  0
LINE
  8
0
 10
81.1448
 20
236.923
 11
80.6871
 21
237.353
  0
LINE
  8
0
 10
80.6871
 20
237.353
 11
80.1791
 21
237.722
  0
LINE
  8
0
 10
80.1791
 20
237.722
 11
79.6289
 21
238.024
  0
LINE
  8
0
 10
79.6289
 20
238.024
 11
79.0451
 21
238.255
  0
LINE
  8
0
 10
79.0451
 20
238.255
 11
78.4369
 21
238.411
  0
LINE
  8
0
 10
78.4369
 20
238.411
 11
77.8139
 21
238.49
  0
LINE
  8
0
 10
77.8139
 20
238.49
 11
-77.8139
 21
238.49
  0
LINE
  8
0
 10
-77.8139
 20
238.49
 11
-78.4369
 21
238.411
  0
LINE
  8
0
 10
-78.4369
 20
238.411
 11
-79.0451
 21
238.255
  0
LINE
  8
0
 10
-79.0451
 20
238.255
 11
-79.6289
 21
238.024
  0
LINE
  8
0
 10
-79.6289
 20
238.024
 11
-80.1791
 21
237.722
  0
LINE
  8
0
 10
-80.1791
 20
237.722
 11
-80.6871
 21
237.353
  0
LINE
  8
0
 10
-80.6871
 20
237.353
 11
-81.1448
 21
236.923
  0
LINE
  8
0
 10
-81.1448
 20
236.923
 11
-81.5451
 21
236.439
  0
LINE
  8
0
 10
-81.5451
 20
236.439
 11
-81.8815
 21
235.909
  0
LINE
  8
0
 10
-81.8815
 20
235.909
 11
-82.1489
 21
235.341
  0
LINE
  8
0
 10
-82.1489
 20
235.341
 11
-82.3429
 21
234.743
  0
LINE
  8
0
 10
-82.3429
 20
234.743
 11
-82.4606
 21
234.127
  0
LINE
  8
0
 10
-82.4606
 20
234.127
 11
-82.5
 21
233.5
  0
LINE
  8
0
 10
-82.5
 20
233.5
 11
-82.5
 21
198.5
  0
LINE
  8
0
 10
-82.5
 20
198.5
 11
-82.4606
 21
197.873
  0
LINE
  8
0
 10
-82.4606
 20
197.873
 11
-82.3429
 21
197.257
  0
LINE
  8
0
 10
-82.3429
 20
197.257
 11
-82.1489
 21
196.659
  0
LINE
  8
0
 10
-82.1489
 20
196.659
 11
-81.8815
 21
196.091
  0
LINE
  8
0
 10
-81.8815
 20
196.091
 11
-81.5451
 21
195.561
  0
LINE
  8
0
 10
-81.5451
 20
195.561
 11
-81.1448
 21
195.077
  0
LINE
  8
0
 10
-81.1448
 20
195.077
 11
-80.6871
 21
194.647
  0
LINE
  8
0
 10
-80.6871
 20
194.647
 11
-80.1791
 21
194.278
  0
LINE
  8
0
 10
-80.1791
 20
194.278
 11
-79.6289
 21
193.976
  0
LINE
  8
0
 10
-79.6289
 20
193.976
 11
-79.0451
 21
193.745
  0
LINE
  8
0
 10
-79.0451
 20
193.745
 11
-78.4369
 21
193.589
  0
LINE
  8
0
 10
-78.4369
 20
193.589
 11
-77.8139
 21
193.51
  0
LINE
  8
0
 10
-77.8139
 20
193.51
 11
77.8139
 21
193.51
  0
LINE
  8
0
 10
77.8139
 20
193.51
 11
78.4369
 21
193.589
  0
LINE
  8
0
 10
-77.5375
 20
194.181
 11
-78.1079
 21
194.253
  0
LINE
  8
0
 10
-78.1079
 20
194.253
 11
-78.6648
 21
194.396
  0
LINE
  8
0
 10
-78.6648
 20
194.396
 11
-79.1994
 21
194.607
  0
LINE
  8
0
 10
-79.1994
 20
194.607
 11
-79.7032
 21
194.884
  0
LINE
  8
0
 10
-79.7032
 20
194.884
 11
-80.1684
 21
195.222
  0
LINE
  8
0
 10
-80.1684
 20
195.222
 11
-80.5875
 21
195.616
  0
LINE
  8
0
 10
-80.5875
 20
195.616
 11
-80.954
 21
196.059
  0
LINE
  8
0
 10
-80.954
 20
196.059
 11
-81.2621
 21
196.544
  0
LINE
  8
0
 10
-81.2621
 20
196.544
 11
-81.5069
 21
197.065
  0
LINE
  8
0
 10
-81.5069
 20
197.065
 11
-81.6846
 21
197.611
  0
LINE
  8
0
 10
-81.6846
 20
197.611
 11
-81.7923
 21
198.176
  0
LINE
  8
0
 10
-81.7923
 20
198.176
 11
-81.8284
 21
198.75
  0
LINE
  8
0
 10
-81.8284
 20
198.75
 11
-81.8284
 21
233.25
  0
LINE
  8
0
 10
-81.8284
 20
233.25
 11
-81.7923
 21
233.824
  0
LINE
  8
0
 10
-81.7923
 20
233.824
 11
-81.6846
 21
234.389
  0
LINE
  8
0
 10
-81.6846
 20
234.389
 11
-81.5069
 21
234.935
  0
LINE
  8
0
 10
-81.5069
 20
234.935
 11
-81.2621
 21
235.456
  0
LINE
  8
0
 10
-81.2621
 20
235.456
 11
-80.954
 21
235.941
  0
LINE
  8
0
 10
-80.954
 20
235.941
 11
-80.5875
 21
236.384
  0
LINE
  8
0
 10
-80.5875
 20
236.384
 11
-80.1684
 21
236.778
  0
LINE
  8
0
 10
-80.1684
 20
236.778
 11
-79.7032
 21
237.116
  0
LINE
  8
0
 10
-79.7032
 20
237.116
 11
-79.1994
 21
237.393
  0
LINE
  8
0
 10
-79.1994
 20
237.393
 11
-78.6648
 21
237.604
  0
LINE
  8
0
 10
-78.6648
 20
237.604
 11
-78.1079
 21
237.747
  0
LINE
  8
0
 10
-78.1079
 20
237.747
 11
-77.5375
 21
237.819
  0
LINE
  8
0
 10
-77.5375
 20
237.819
 11
77.5375
 21
237.819
  0
LINE
  8
0
 10
77.5375
 20
237.819
 11
78.1079
 21
237.747
  0
LINE
  8
0
 10
78.1079
 20
237.747
 11
78.6648
 21
237.604
  0
LINE
  8
0
 10
78.6648
 20
237.604
 11
79.1994
 21
237.393
  0
LINE
  8
0
 10
79.1994
 20
237.393
 11
79.7032
 21
237.116
  0
LINE
  8
0
 10
79.7032
 20
237.116
 11
80.1684
 21
236.778
  0
LINE
  8
0
 10
80.1684
 20
236.778
 11
80.5875
 21
236.384
  0
LINE
  8
0
 10
80.5875
 20
236.384
 11
80.954
 21
235.941
  0
LINE
  8
0
 10
80.954
 20
235.941
 11
81.2621
 21
235.456
  0
LINE
  8
0
 10
81.2621
 20
235.456
 11
81.5069
 21
234.935
  0
LINE
  8
0
 10
81.5069
 20
234.935
 11
81.6846
 21
234.389
  0
LINE
  8
0
 10
81.6846
 20
234.389
 11
81.7923
 21
233.824
  0
LINE
  8
0
 10
81.7923
 20
233.824
 11
81.8284
 21
233.25
  0
LINE
  8
0
 10
81.8284
 20
233.25
 11
81.8284
 21
198.75
  0
LINE
  8
0
 10
81.8284
 20
198.75
 11
81.7923
 21
198.176
  0
LINE
  8
0
 10
81.7923
 20
198.176
 11
81.6846
 21
197.611
  0
LINE
  8
0
 10
81.6846
 20
197.611
 11
81.5069
 21
197.065
  0
LINE
  8
0
 10
81.5069
 20
197.065
 11
81.2621
 21
196.544
  0
LINE
  8
0
 10
81.2621
 20
196.544
 11
80.954
 21
196.059
  0
LINE
  8
0
 10
80.954
 20
196.059
 11
80.5875
 21
195.616
  0
LINE
  8
0
 10
80.5875
 20
195.616
 11
80.1684
 21
195.222
  0
LINE
  8
0
 10
80.1684
 20
195.222
 11
79.7032
 21
194.884
  0
LINE
  8
0
 10
79.7032
 20
194.884
 11
79.1994
 21
194.607
  0
LINE
  8
0
 10
79.1994
 20
194.607
 11
78.6648
 21
194.396
  0
LINE
  8
0
 10
78.6648
 20
194.396
 11
78.1079
 21
194.253
  0
LINE
  8
0
 10
78.1079
 20
194.253
 11
77.5375
 21
194.181
  0
LINE
  8
0
 10
77.5375
 20
194.181
 11
-77.5375
 21
194.181
  0
LINE
  8
0
 10
78.4369
 20
139.589
 11
79.0451
 21
139.745
  0
LINE
  8
0
 10
79.0451
 20
139.745
 11
79.6289
 21
139.976
  0
LINE
  8
0
 10
79.6289
 20
139.976
 11
80.1791
 21
140.278
  0
LINE
  8
0
 10
80.1791
 20
140.278
 11
80.6871
 21
140.647
  0
LINE
  8
0
 10
80.6871
 20
140.647
 11
81.1448
 21
141.077
  0
LINE
  8
0
 10
81.1448
 20
141.077
 11
81.5451
 21
141.561
  0
LINE
  8
0
 10
81.5451
 20
141.561
 11
81.8815
 21
142.091
  0
LINE
  8
0
 10
81.8815
 20
142.091
 11
82.1489
 21
142.659
  0
LINE
  8
0
 10
82.1489
 20
142.659
 11
82.3429
 21
143.257
  0
LINE
  8
0
 10
82.3429
 20
143.257
 11
82.4606
 21
143.873
  0
LINE
  8
0
 10
82.4606
 20
143.873
 11
82.5
 21
144.5
  0
LINE
  8
0
 10
82.5
 20
144.5
 11
82.5
 21
179.5
  0
LINE
  8
0
 10
82.5
 20
179.5
 11
82.4606
 21
180.127
  0
LINE
  8
0
 10
82.4606
 20
180.127
 11
82.3429
 21
180.743
  0
LINE
  8
0
 10
82.3429
 20
180.743
 11
82.1489
 21
181.341
  0
LINE
  8
0
 10
82.1489
 20
181.341
 11
81.8815
 21
181.909
  0
LINE
  8
0
 10
81.8815
 20
181.909
 11
81.5451
 21
182.439
  0
LINE
  8
0
 10
81.5451
 20
182.439
 11
81.1448
 21
182.923
  0
LINE
  8
0
 10
81.1448
 20
182.923
 11
80.6871
 21
183.353
  0
LINE
  8
0
 10
80.6871
 20
183.353
 11
80.1791
 21
183.722
  0
LINE
  8
0
 10
80.1791
 20
183.722
 11
79.6289
 21
184.024
  0
LINE
  8
0
 10
79.6289
 20
184.024
 11
79.0451
 21
184.255
  0
LINE
  8
0
 10
79.0451
 20
184.255
 11
78.4369
 21
184.411
  0
LINE
  8
0
 10
78.4369
 20
184.411
 11
77.8139
 21
184.49
  0
LINE
  8
0
 10
77.8139
 20
184.49
 11
-77.8139
 21
184.49
  0
LINE
  8
0
 10
-77.8139
 20
184.49
 11
-78.4369
 21
184.411
  0
LINE
  8
0
 10
-78.4369
 20
184.411
 11
-79.0451
 21
184.255
  0
LINE
  8
0
 10
-79.0451
 20
184.255
 11
-79.6289
 21
184.024
  0
LINE
  8
0
 10
-79.6289
 20
184.024
 11
-80.1791
 21
183.722
  0
LINE
  8
0
 10
-80.1791
 20
183.722
 11
-80.6871
 21
183.353
  0
LINE
  8
0
 10
-80.6871
 20
183.353
 11
-81.1448
 21
182.923
  0
LINE
  8
0
 10
-81.1448
 20
182.923
 11
-81.5451
 21
182.439
  0
LINE
  8
0
 10
-81.5451
 20
182.439
 11
-81.8815
 21
181.909
  0
LINE
  8
0
 10
-81.8815
 20
181.909
 11
-82.1489
 21
181.341
  0
LINE
  8
0
 10
-82.1489
 20
181.341
 11
-82.3429
 21
180.743
  0
LINE
  8
0
 10
-82.3429
 20
180.743
 11
-82.4606
 21
180.127
  0
LINE
  8
0
 10
-82.4606
 20
180.127
 11
-82.5
 21
179.5
  0
LINE
  8
0
 10
-82.5
 20
179.5
 11
-82.5
 21
144.5
  0
LINE
  8
0
 10
-82.5
 20
144.5
 11
-82.4606
 21
143.873
  0
LINE
  8
0
 10
-82.4606
 20
143.873
 11
-82.3429
 21
143.257
  0
LINE
  8
0
 10
-82.3429
 20
143.257
 11
-82.1489
 21
142.659
  0
LINE
  8
0
 10
-82.1489
 20
142.659
 11
-81.8815
 21
142.091
  0
LINE
  8
0
 10
-81.8815
 20
142.091
 11
-81.5451
 21
141.561
  0
LINE
  8
0
 10
-81.5451
 20
141.561
 11
-81.1448
 21
141.077
  0
LINE
  8
0
 10
-81.1448
 20
141.077
 11
-80.6871
 21
140.647
  0
LINE
  8
0
 10
-80.6871
 20
140.647
 11
-80.1791
 21
140.278
  0
LINE
  8
0
 10
-80.1791
 20
140.278
 11
-79.6289
 21
139.976
  0
LINE
  8
0
 10
-79.6289
 20
139.976
 11
-79.0451
 21
139.745
  0
LINE
  8
0
 10
-79.0451
 20
139.745
 11
-78.4369
 21
139.589
  0
LINE
  8
0
 10
-78.4369
 20
139.589
 11
-77.8139
 21
139.51
  0
LINE
  8
0
 10
-77.8139
 20
139.51
 11
77.8139
 21
139.51
  0
LINE
  8
0
 10
77.8139
 20
139.51
 11
78.4369
 21
139.589
  0
LINE
  8
0
 10
-77.3825
 20
142.645
 11
-77.6453
 21
142.678
  0
LINE
  8
0
 10
-77.6453
 20
142.678
 11
-77.9019
 21
142.744
  0
LINE
  8
0
 10
-77.9019
 20
142.744
 11
-78.1482
 21
142.841
  0
LINE
  8
0
 10
-78.1482
 20
142.841
 11
-78.3804
 21
142.969
  0
LINE
  8
0
 10
-78.3804
 20
142.969
 11
-78.5947
 21
143.125
  0
LINE
  8
0
 10
-78.5947
 20
143.125
 11
-78.7879
 21
143.306
  0
LINE
  8
0
 10
-78.7879
 20
143.306
 11
-78.9567
 21
143.51
  0
LINE
  8
0
 10
-78.9567
 20
143.51
 11
-79.0987
 21
143.734
  0
LINE
  8
0
 10
-79.0987
 20
143.734
 11
-79.2115
 21
143.973
  0
LINE
  8
0
 10
-79.2115
 20
143.973
 11
-79.2934
 21
144.225
  0
LINE
  8
0
 10
-79.2934
 20
144.225
 11
-79.343
 21
144.486
  0
LINE
  8
0
 10
-79.343
 20
144.486
 11
-79.3596
 21
144.75
  0
LINE
  8
0
 10
-79.3596
 20
144.75
 11
-79.3596
 21
179.25
  0
LINE
  8
0
 10
-79.3596
 20
179.25
 11
-79.343
 21
179.514
  0
LINE
  8
0
 10
-79.343
 20
179.514
 11
-79.2934
 21
179.775
  0
LINE
  8
0
 10
-79.2934
 20
179.775
 11
-79.2115
 21
180.027
  0
LINE
  8
0
 10
-79.2115
 20
180.027
 11
-79.0987
 21
180.266
  0
LINE
  8
0
 10
-79.0987
 20
180.266
 11
-78.9567
 21
180.49
  0
LINE
  8
0
 10
-78.9567
 20
180.49
 11
-78.7879
 21
180.694
  0
LINE
  8
0
 10
-78.7879
 20
180.694
 11
-78.5947
 21
180.875
  0
LINE
  8
0
 10
-78.5947
 20
180.875
 11
-78.3804
 21
181.031
  0
LINE
  8
0
 10
-78.3804
 20
181.031
 11
-78.1482
 21
181.159
  0
LINE
  8
0
 10
-78.1482
 20
181.159
 11
-77.9019
 21
181.256
  0
LINE
  8
0
 10
-77.9019
 20
181.256
 11
-77.6453
 21
181.322
  0
LINE
  8
0
 10
-77.6453
 20
181.322
 11
-77.3825
 21
181.355
  0
LINE
  8
0
 10
-77.3825
 20
181.355
 11
77.3825
 21
181.355
  0
LINE
  8
0
 10
77.3825
 20
181.355
 11
77.6453
 21
181.322
  0
LINE
  8
0
 10
77.6453
 20
181.322
 11
77.9019
 21
181.256
  0
LINE
  8
0
 10
77.9019
 20
181.256
 11
78.1482
 21
181.159
  0
LINE
  8
0
 10
78.1482
 20
181.159
 11
78.3804
 21
181.031
  0
LINE
  8
0
 10
78.3804
 20
181.031
 11
78.5947
 21
180.875
  0
LINE
  8
0
 10
78.5947
 20
180.875
 11
78.7879
 21
180.694
  0
LINE
  8
0
 10
78.7879
 20
180.694
 11
78.9567
 21
180.49
  0
LINE
  8
0
 10
78.9567
 20
180.49
 11
79.0987
 21
180.266
  0
LINE
  8
0
 10
79.0987
 20
180.266
 11
79.2115
 21
180.027
  0
LINE
  8
0
 10
79.2115
 20
180.027
 11
79.2934
 21
179.775
  0
LINE
  8
0
 10
79.2934
 20
179.775
 11
79.343
 21
179.514
  0
LINE
  8
0
 10
79.343
 20
179.514
 11
79.3596
 21
179.25
  0
LINE
  8
0
 10
79.3596
 20
179.25
 11
79.3596
 21
144.75
  0
LINE
  8
0
 10
79.3596
 20
144.75
 11
79.343
 21
144.486
  0
LINE
  8
0
 10
79.343
 20
144.486
 11
79.2934
 21
144.225
  0
LINE
  8
0
 10
79.2934
 20
144.225
 11
79.2115
 21
143.973
  0
LINE
  8
0
 10
79.2115
 20
143.973
 11
79.0987
 21
143.734
  0
LINE
  8
0
 10
79.0987
 20
143.734
 11
78.9567
 21
143.51
  0
LINE
  8
0
 10
78.9567
 20
143.51
 11
78.7879
 21
143.306
  0
LINE
  8
0
 10
78.7879
 20
143.306
 11
78.5947
 21
143.125
  0
LINE
  8
0
 10
78.5947
 20
143.125
 11
78.3804
 21
142.969
  0
LINE
  8
0
 10
78.3804
 20
142.969
 11
78.1482
 21
142.841
  0
LINE
  8
0
 10
78.1482
 20
142.841
 11
77.9019
 21
142.744
  0
LINE
  8
0
 10
77.9019
 20
142.744
 11
77.6453
 21
142.678
  0
LINE
  8
0
 10
77.6453
 20
142.678
 11
77.3825
 21
142.645
  0
LINE
  8
0
 10
77.3825
 20
142.645
 11
-77.3825
 21
142.645
  0
ENDSEC
  0
SECTION
  2
OBJECTS
  0
DICTIONARY
  0
ENDSEC
  0
EOF
