  0
SECTION
  2
BLOCKS
  0
ENDSEC
  0
SECTION
  2
ENTITIES
  0
LINE
  8
0
 10
-43.5
 20
316.441
 11
-43.1871
 21
316.147
  0
LINE
  8
0
 10
-43.1871
 20
316.147
 11
-42.6791
 21
315.778
  0
LINE
  8
0
 10
-42.6791
 20
315.778
 11
-42.1289
 21
315.476
  0
LINE
  8
0
 10
-42.1289
 20
315.476
 11
-41.5451
 21
315.245
  0
LINE
  8
0
 10
-41.5451
 20
315.245
 11
-40.9369
 21
315.089
  0
LINE
  8
0
 10
-40.9369
 20
315.089
 11
-40.3139
 21
315.01
  0
LINE
  8
0
 10
-40.3139
 20
315.01
 11
40.3139
 21
315.01
  0
LINE
  8
0
 10
40.3139
 20
315.01
 11
40.9369
 21
315.089
  0
LINE
  8
0
 10
40.9369
 20
315.089
 11
41.5451
 21
315.245
  0
LINE
  8
0
 10
41.5451
 20
315.245
 11
42.1289
 21
315.476
  0
LINE
  8
0
 10
42.1289
 20
315.476
 11
42.6791
 21
315.778
  0
LINE
  8
0
 10
42.6791
 20
315.778
 11
43.1871
 21
316.147
  0
LINE
  8
0
 10
43.1871
 20
316.147
 11
43.6448
 21
316.577
  0
LINE
  8
0
 10
43.6448
 20
316.577
 11
44.0451
 21
317.061
  0
LINE
  8
0
 10
44.0451
 20
317.061
 11
44.3815
 21
317.591
  0
LINE
  8
0
 10
44.3815
 20
317.591
 11
44.6489
 21
318.159
  0
LINE
  8
0
 10
44.6489
 20
318.159
 11
44.8429
 21
318.757
  0
LINE
  8
0
 10
44.8429
 20
318.757
 11
44.9606
 21
319.373
  0
LINE
  8
0
 10
44.9606
 20
319.373
 11
45
 21
320
  0
LINE
  8
0
 10
45
 20
320
 11
45
 21
370
  0
LINE
  8
0
 10
45
 20
370
 11
44.9606
 21
370.627
  0
LINE
  8
0
 10
44.9606
 20
370.627
 11
44.8429
 21
371.243
  0
LINE
  8
0
 10
44.8429
 20
371.243
 11
44.6489
 21
371.841
  0
LINE
  8
0
 10
44.6489
 20
371.841
 11
44.3815
 21
372.409
  0
LINE
  8
0
 10
44.3815
 20
372.409
 11
44.0451
 21
372.939
  0
LINE
  8
0
 10
44.0451
 20
372.939
 11
43.6448
 21
373.423
  0
LINE
  8
0
 10
43.6448
 20
373.423
 11
43.1871
 21
373.853
  0
LINE
  8
0
 10
43.1871
 20
373.853
 11
42.6791
 21
374.222
  0
LINE
  8
0
 10
42.6791
 20
374.222
 11
42.1289
 21
374.524
  0
LINE
  8
0
 10
42.1289
 20
374.524
 11
41.5451
 21
374.755
  0
LINE
  8
0
 10
41.5451
 20
374.755
 11
40.9369
 21
374.911
  0
LINE
  8
0
 10
40.9369
 20
374.911
 11
40.3139
 21
374.99
  0
LINE
  8
0
 10
40.3139
 20
374.99
 11
-40.3139
 21
374.99
  0
LINE
  8
0
 10
-40.3139
 20
374.99
 11
-40.9369
 21
374.911
  0
LINE
  8
0
 10
-40.9369
 20
374.911
 11
-41.5451
 21
374.755
  0
LINE
  8
0
 10
-41.5451
 20
374.755
 11
-42.1289
 21
374.524
  0
LINE
  8
0
 10
-42.1289
 20
374.524
 11
-42.6791
 21
374.222
  0
LINE
  8
0
 10
-42.6791
 20
374.222
 11
-43.1871
 21
373.853
  0
LINE
  8
0
 10
-43.1871
 20
373.853
 11
-43.5
 21
373.559
  0
LINE
  8
0
 10
-43.5
 20
373.559
 11
-43.5
 21
374.99
  0
LINE
  8
0
 10
-43.5
 20
374.99
 11
-46.5
 21
374.99
  0
LINE
  8
0
 10
-46.5
 20
374.99
 11
-46.5
 21
315.01
  0
LINE
  8
0
 10
-46.5
 20
315.01
 11
-43.5
 21
315.01
  0
LINE
  8
0
 10
-43.5
 20
315.01
 11
-43.5
 21
316.441
  0
LINE
  8
0
 10
-39.7512
 20
316.508
 11
-40.2495
 21
316.571
  0
LINE
  8
0
 10
-40.2495
 20
316.571
 11
-40.7361
 21
316.696
  0
LINE
  8
0
 10
-40.7361
 20
316.696
 11
-41.2031
 21
316.881
  0
LINE
  8
0
 10
-41.2031
 20
316.881
 11
-41.6433
 21
317.123
  0
LINE
  8
0
 10
-41.6433
 20
317.123
 11
-42.0497
 21
317.418
  0
LINE
  8
0
 10
-42.0497
 20
317.418
 11
-42.4159
 21
317.762
  0
LINE
  8
0
 10
-42.4159
 20
317.762
 11
-42.7361
 21
318.149
  0
LINE
  8
0
 10
-42.7361
 20
318.149
 11
-43.0052
 21
318.573
  0
LINE
  8
0
 10
-43.0052
 20
318.573
 11
-43.2191
 21
319.028
  0
LINE
  8
0
 10
-43.2191
 20
319.028
 11
-43.3743
 21
319.505
  0
LINE
  8
0
 10
-43.3743
 20
319.505
 11
-43.4685
 21
319.999
  0
LINE
  8
0
 10
-43.4685
 20
319.999
 11
-43.5
 21
320.5
  0
LINE
  8
0
 10
-43.5
 20
320.5
 11
-43.5
 21
369.5
  0
LINE
  8
0
 10
-43.5
 20
369.5
 11
-43.4685
 21
370.001
  0
LINE
  8
0
 10
-43.4685
 20
370.001
 11
-43.3743
 21
370.495
  0
LINE
  8
0
 10
-43.3743
 20
370.495
 11
-43.2191
 21
370.972
  0
LINE
  8
0
 10
-43.2191
 20
370.972
 11
-43.0052
 21
371.427
  0
LINE
  8
0
 10
-43.0052
 20
371.427
 11
-42.7361
 21
371.851
  0
LINE
  8
0
 10
-42.7361
 20
371.851
 11
-42.4159
 21
372.238
  0
LINE
  8
0
 10
-42.4159
 20
372.238
 11
-42.0497
 21
372.582
  0
LINE
  8
0
 10
-42.0497
 20
372.582
 11
-41.6433
 21
372.877
  0
LINE
  8
0
 10
-41.6433
 20
372.877
 11
-41.2031
 21
373.119
  0
LINE
  8
0
 10
-41.2031
 20
373.119
 11
-40.7361
 21
373.304
  0
LINE
  8
0
 10
-40.7361
 20
373.304
 11
-40.2495
 21
373.429
  0
LINE
  8
0
 10
-40.2495
 20
373.429
 11
-39.7512
 21
373.492
  0
LINE
  8
0
 10
-39.7512
 20
373.492
 11
39.7512
 21
373.492
  0
LINE
  8
0
 10
39.7512
 20
373.492
 11
40.2495
 21
373.429
  0
LINE
  8
0
 10
40.2495
 20
373.429
 11
40.7361
 21
373.304
  0
LINE
  8
0
 10
40.7361
 20
373.304
 11
41.2031
 21
373.119
  0
LINE
  8
0
 10
41.2031
 20
373.119
 11
41.6433
 21
372.877
  0
LINE
  8
0
 10
41.6433
 20
372.877
 11
42.0497
 21
372.582
  0
LINE
  8
0
 10
42.0497
 20
372.582
 11
42.4159
 21
372.238
  0
LINE
  8
0
 10
42.4159
 20
372.238
 11
42.7361
 21
371.851
  0
LINE
  8
0
 10
42.7361
 20
371.851
 11
43.0052
 21
371.427
  0
LINE
  8
0
 10
43.0052
 20
371.427
 11
43.2191
 21
370.972
  0
LINE
  8
0
 10
43.2191
 20
370.972
 11
43.3743
 21
370.495
  0
LINE
  8
0
 10
43.3743
 20
370.495
 11
43.4685
 21
370.001
  0
LINE
  8
0
 10
43.4685
 20
370.001
 11
43.5
 21
369.5
  0
LINE
  8
0
 10
43.5
 20
369.5
 11
43.5
 21
320.5
  0
LINE
  8
0
 10
43.5
 20
320.5
 11
43.4685
 21
319.999
  0
LINE
  8
0
 10
43.4685
 20
319.999
 11
43.3743
 21
319.505
  0
LINE
  8
0
 10
43.3743
 20
319.505
 11
43.2191
 21
319.028
  0
LINE
  8
0
 10
43.2191
 20
319.028
 11
43.0052
 21
318.573
  0
LINE
  8
0
 10
43.0052
 20
318.573
 11
42.7361
 21
318.149
  0
LINE
  8
0
 10
42.7361
 20
318.149
 11
42.4159
 21
317.762
  0
LINE
  8
0
 10
42.4159
 20
317.762
 11
42.0497
 21
317.418
  0
LINE
  8
0
 10
42.0497
 20
317.418
 11
41.6433
 21
317.123
  0
LINE
  8
0
 10
41.6433
 20
317.123
 11
41.2031
 21
316.881
  0
LINE
  8
0
 10
41.2031
 20
316.881
 11
40.7361
 21
316.696
  0
LINE
  8
0
 10
40.7361
 20
316.696
 11
40.2495
 21
316.571
  0
LINE
  8
0
 10
40.2495
 20
316.571
 11
39.7512
 21
316.508
  0
LINE
  8
0
 10
39.7512
 20
316.508
 11
-39.7512
 21
316.508
  0
LINE
  8
0
 10
40.9369
 20
246.089
 11
41.5451
 21
246.245
  0
LINE
  8
0
 10
41.5451
 20
246.245
 11
42.1289
 21
246.476
  0
LINE
  8
0
 10
42.1289
 20
246.476
 11
42.6791
 21
246.778
  0
LINE
  8
0
 10
42.6791
 20
246.778
 11
43.1871
 21
247.147
  0
LINE
  8
0
 10
43.1871
 20
247.147
 11
43.6448
 21
247.577
  0
LINE
  8
0
 10
43.6448
 20
247.577
 11
44.0451
 21
248.061
  0
LINE
  8
0
 10
44.0451
 20
248.061
 11
44.3815
 21
248.591
  0
LINE
  8
0
 10
44.3815
 20
248.591
 11
44.6489
 21
249.159
  0
LINE
  8
0
 10
44.6489
 20
249.159
 11
44.8429
 21
249.757
  0
LINE
  8
0
 10
44.8429
 20
249.757
 11
44.9606
 21
250.373
  0
LINE
  8
0
 10
44.9606
 20
250.373
 11
45
 21
251
  0
LINE
  8
0
 10
45
 20
251
 11
45
 21
301
  0
LINE
  8
0
 10
45
 20
301
 11
44.9606
 21
301.627
  0
LINE
  8
0
 10
44.9606
 20
301.627
 11
44.8429
 21
302.243
  0
LINE
  8
0
 10
44.8429
 20
302.243
 11
44.6489
 21
302.841
  0
LINE
  8
0
 10
44.6489
 20
302.841
 11
44.3815
 21
303.409
  0
LINE
  8
0
 10
44.3815
 20
303.409
 11
44.0451
 21
303.939
  0
LINE
  8
0
 10
44.0451
 20
303.939
 11
43.6448
 21
304.423
  0
LINE
  8
0
 10
43.6448
 20
304.423
 11
43.1871
 21
304.853
  0
LINE
  8
0
 10
43.1871
 20
304.853
 11
42.6791
 21
305.222
  0
LINE
  8
0
 10
42.6791
 20
305.222
 11
42.1289
 21
305.524
  0
LINE
  8
0
 10
42.1289
 20
305.524
 11
41.5451
 21
305.755
  0
LINE
  8
0
 10
41.5451
 20
305.755
 11
40.9369
 21
305.911
  0
LINE
  8
0
 10
40.9369
 20
305.911
 11
40.3139
 21
305.99
  0
LINE
  8
0
 10
40.3139
 20
305.99
 11
-40.3139
 21
305.99
  0
LINE
  8
0
 10
-40.3139
 20
305.99
 11
-40.9369
 21
305.911
  0
LINE
  8
0
 10
-40.9369
 20
305.911
 11
-41.5451
 21
305.755
  0
LINE
  8
0
 10
-41.5451
 20
305.755
 11
-42.1289
 21
305.524
  0
LINE
  8
0
 10
-42.1289
 20
305.524
 11
-42.6791
 21
305.222
  0
LINE
  8
0
 10
-42.6791
 20
305.222
 11
-43.1871
 21
304.853
  0
LINE
  8
0
 10
-43.1871
 20
304.853
 11
-43.5
 21
304.559
  0
LINE
  8
0
 10
-43.5
 20
304.559
 11
-43.5
 21
305.979
  0
LINE
  8
0
 10
-43.5
 20
305.979
 11
-46.5
 21
305.979
  0
LINE
  8
0
 10
-46.5
 20
305.979
 11
-46.5
 21
246.021
  0
LINE
  8
0
 10
-46.5
 20
246.021
 11
-43.5
 21
246.021
  0
LINE
  8
0
 10
-43.5
 20
246.021
 11
-43.5
 21
247.441
  0
LINE
  8
0
 10
-43.5
 20
247.441
 11
-43.1871
 21
247.147
  0
LINE
  8
0
 10
-43.1871
 20
247.147
 11
-42.6791
 21
246.778
  0
LINE
  8
0
 10
-42.6791
 20
246.778
 11
-42.1289
 21
246.476
  0
LINE
  8
0
 10
-42.1289
 20
246.476
 11
-41.5451
 21
246.245
  0
LINE
  8
0
 10
-41.5451
 20
246.245
 11
-40.9369
 21
246.089
  0
LINE
  8
0
 10
-40.9369
 20
246.089
 11
-40.3139
 21
246.01
  0
LINE
  8
0
 10
-40.3139
 20
246.01
 11
40.3139
 21
246.01
  0
LINE
  8
0
 10
40.3139
 20
246.01
 11
40.9369
 21
246.089
  0
LINE
  8
0
 10
-39.6954
 20
248.393
 11
-40.0833
 21
248.442
  0
LINE
  8
0
 10
-40.0833
 20
248.442
 11
-40.4619
 21
248.539
  0
LINE
  8
0
 10
-40.4619
 20
248.539
 11
-40.8254
 21
248.683
  0
LINE
  8
0
 10
-40.8254
 20
248.683
 11
-41.168
 21
248.872
  0
LINE
  8
0
 10
-41.168
 20
248.872
 11
-41.4842
 21
249.101
  0
LINE
  8
0
 10
-41.4842
 20
249.101
 11
-41.7692
 21
249.369
  0
LINE
  8
0
 10
-41.7692
 20
249.369
 11
-42.0184
 21
249.67
  0
LINE
  8
0
 10
-42.0184
 20
249.67
 11
-42.2279
 21
250
  0
LINE
  8
0
 10
-42.2279
 20
250
 11
-42.3943
 21
250.354
  0
LINE
  8
0
 10
-42.3943
 20
250.354
 11
-42.5151
 21
250.726
  0
LINE
  8
0
 10
-42.5151
 20
250.726
 11
-42.5884
 21
251.11
  0
LINE
  8
0
 10
-42.5884
 20
251.11
 11
-42.6129
 21
251.5
  0
LINE
  8
0
 10
-42.6129
 20
251.5
 11
-42.6129
 21
300.5
  0
LINE
  8
0
 10
-42.6129
 20
300.5
 11
-42.5884
 21
300.89
  0
LINE
  8
0
 10
-42.5884
 20
300.89
 11
-42.5151
 21
301.274
  0
LINE
  8
0
 10
-42.5151
 20
301.274
 11
-42.3943
 21
301.646
  0
LINE
  8
0
 10
-42.3943
 20
301.646
 11
-42.2279
 21
302
  0
LINE
  8
0
 10
-42.2279
 20
302
 11
-42.0184
 21
302.33
  0
LINE
  8
0
 10
-42.0184
 20
302.33
 11
-41.7692
 21
302.631
  0
LINE
  8
0
 10
-41.7692
 20
302.631
 11
-41.4842
 21
302.899
  0
LINE
  8
0
 10
-41.4842
 20
302.899
 11
-41.168
 21
303.128
  0
LINE
  8
0
 10
-41.168
 20
303.128
 11
-40.8254
 21
303.317
  0
LINE
  8
0
 10
-40.8254
 20
303.317
 11
-40.4619
 21
303.461
  0
LINE
  8
0
 10
-40.4619
 20
303.461
 11
-40.0833
 21
303.558
  0
LINE
  8
0
 10
-40.0833
 20
303.558
 11
-39.6954
 21
303.607
  0
LINE
  8
0
 10
-39.6954
 20
303.607
 11
39.6954
 21
303.607
  0
LINE
  8
0
 10
39.6954
 20
303.607
 11
40.0833
 21
303.558
  0
LINE
  8
0
 10
40.0833
 20
303.558
 11
40.4619
 21
303.461
  0
LINE
  8
0
 10
40.4619
 20
303.461
 11
40.8254
 21
303.317
  0
LINE
  8
0
 10
40.8254
 20
303.317
 11
41.168
 21
303.128
  0
LINE
  8
0
 10
41.168
 20
303.128
 11
41.4842
 21
302.899
  0
LINE
  8
0
 10
41.4842
 20
302.899
 11
41.7692
 21
302.631
  0
LINE
  8
0
 10
41.7692
 20
302.631
 11
42.0184
 21
302.33
  0
LINE
  8
0
 10
42.0184
 20
302.33
 11
42.2279
 21
302
  0
LINE
  8
0
 10
42.2279
 20
302
 11
42.3943
 21
301.646
  0
LINE
  8
0
 10
42.3943
 20
301.646
 11
42.5151
 21
301.274
  0
LINE
  8
0
 10
42.5151
 20
301.274
 11
42.5884
 21
300.89
  0
LINE
  8
0
 10
42.5884
 20
300.89
 11
42.6129
 21
300.5
  0
LINE
  8
0
 10
42.6129
 20
300.5
 11
42.6129
 21
251.5
  0
LINE
  8
0
 10
42.6129
 20
251.5
 11
42.5884
 21
251.11
  0
LINE
  8
0
 10
42.5884
 20
251.11
 11
42.5151
 21
250.726
  0
LINE
  8
0
 10
42.5151
 20
250.726
 11
42.3943
 21
250.354
  0
LINE
  8
0
 10
42.3943
 20
250.354
 11
42.2279
 21
250
  0
LINE
  8
0
 10
42.2279
 20
250
 11
42.0184
 21
249.67
  0
LINE
  8
0
 10
42.0184
 20
249.67
 11
41.7692
 21
249.369
  0
LINE
  8
0
 10
41.7692
 20
249.369
 11
41.4842
 21
249.101
  0
LINE
  8
0
 10
41.4842
 20
249.101
 11
41.168
 21
248.872
  0
LINE
  8
0
 10
41.168
 20
248.872
 11
40.8254
 21
248.683
  0
LINE
  8
0
 10
40.8254
 20
248.683
 11
40.4619
 21
248.539
  0
LINE
  8
0
 10
40.4619
 20
248.539
 11
40.0833
 21
248.442
  0
LINE
  8
0
 10
40.0833
 20
248.442
 11
39.6954
 21
248.393
  0
LINE
  8
0
 10
39.6954
 20
248.393
 11
-39.6954
 21
248.393
  0
LINE
  8
0
 10
40.9369
 20
177.089
 11
41.5451
 21
177.245
  0
LINE
  8
0
 10
41.5451
 20
177.245
 11
42.1289
 21
177.476
  0
LINE
  8
0
 10
42.1289
 20
177.476
 11
42.6791
 21
177.778
  0
LINE
  8
0
 10
42.6791
 20
177.778
 11
43.1871
 21
178.147
  0
LINE
  8
0
 10
43.1871
 20
178.147
 11
43.6448
 21
178.577
  0
LINE
  8
0
 10
43.6448
 20
178.577
 11
44.0451
 21
179.061
  0
LINE
  8
0
 10
44.0451
 20
179.061
 11
44.3815
 21
179.591
  0
LINE
  8
0
 10
44.3815
 20
179.591
 11
44.6489
 21
180.159
  0
LINE
  8
0
 10
44.6489
 20
180.159
 11
44.8429
 21
180.757
  0
LINE
  8
0
 10
44.8429
 20
180.757
 11
44.9606
 21
181.373
  0
LINE
  8
0
 10
44.9606
 20
181.373
 11
45
 21
182
  0
LINE
  8
0
 10
45
 20
182
 11
45
 21
232
  0
LINE
  8
0
 10
45
 20
232
 11
44.9606
 21
232.627
  0
LINE
  8
0
 10
44.9606
 20
232.627
 11
44.8429
 21
233.243
  0
LINE
  8
0
 10
44.8429
 20
233.243
 11
44.6489
 21
233.841
  0
LINE
  8
0
 10
44.6489
 20
233.841
 11
44.3815
 21
234.409
  0
LINE
  8
0
 10
44.3815
 20
234.409
 11
44.0451
 21
234.939
  0
LINE
  8
0
 10
44.0451
 20
234.939
 11
43.6448
 21
235.423
  0
LINE
  8
0
 10
43.6448
 20
235.423
 11
43.1871
 21
235.853
  0
LINE
  8
0
 10
43.1871
 20
235.853
 11
42.6791
 21
236.222
  0
LINE
  8
0
 10
42.6791
 20
236.222
 11
42.1289
 21
236.524
  0
LINE
  8
0
 10
42.1289
 20
236.524
 11
41.5451
 21
236.755
  0
LINE
  8
0
 10
41.5451
 20
236.755
 11
40.9369
 21
236.911
  0
LINE
  8
0
 10
40.9369
 20
236.911
 11
40.3139
 21
236.99
  0
LINE
  8
0
 10
40.3139
 20
236.99
 11
-40.3139
 21
236.99
  0
LINE
  8
0
 10
-40.3139
 20
236.99
 11
-40.9369
 21
236.911
  0
LINE
  8
0
 10
-40.9369
 20
236.911
 11
-41.5451
 21
236.755
  0
LINE
  8
0
 10
-41.5451
 20
236.755
 11
-42.1289
 21
236.524
  0
LINE
  8
0
 10
-42.1289
 20
236.524
 11
-42.6791
 21
236.222
  0
LINE
  8
0
 10
-42.6791
 20
236.222
 11
-43.1871
 21
235.853
  0
LINE
  8
0
 10
-43.1871
 20
235.853
 11
-43.5
 21
235.559
  0
LINE
  8
0
 10
-43.5
 20
235.559
 11
-43.5
 21
235.653
  0
LINE
  8
0
 10
-43.5
 20
235.653
 11
-46.5
 21
235.653
  0
LINE
  8
0
 10
-46.5
 20
235.653
 11
-46.5
 21
178.347
  0
LINE
  8
0
 10
-46.5
 20
178.347
 11
-43.5
 21
178.347
  0
LINE
  8
0
 10
-43.5
 20
178.347
 11
-43.5
 21
178.441
  0
LINE
  8
0
 10
-43.5
 20
178.441
 11
-43.1871
 21
178.147
  0
LINE
  8
0
 10
-43.1871
 20
178.147
 11
-42.6791
 21
177.778
  0
LINE
  8
0
 10
-42.6791
 20
177.778
 11
-42.1289
 21
177.476
  0
LINE
  8
0
 10
-42.1289
 20
177.476
 11
-41.5451
 21
177.245
  0
LINE
  8
0
 10
-41.5451
 20
177.245
 11
-40.9369
 21
177.089
  0
LINE
  8
0
 10
-40.9369
 20
177.089
 11
-40.3139
 21
177.01
  0
LINE
  8
0
 10
-40.3139
 20
177.01
 11
40.3139
 21
177.01
  0
LINE
  8
0
 10
40.3139
 20
177.01
 11
40.9369
 21
177.089
  0
LINE
  8
0
 10
37.3659
 20
227.369
 11
37.0999
 21
227.403
  0
LINE
  8
0
 10
37.0999
 20
227.403
 11
36.8401
 21
227.469
  0
LINE
  8
0
 10
36.8401
 20
227.469
 11
36.5908
 21
227.568
  0
LINE
  8
0
 10
36.5908
 20
227.568
 11
36.3559
 21
227.697
  0
LINE
  8
0
 10
36.3559
 20
227.697
 11
36.1389
 21
227.855
  0
LINE
  8
0
 10
36.1389
 20
227.855
 11
35.9434
 21
228.038
  0
LINE
  8
0
 10
35.9434
 20
228.038
 11
35.7725
 21
228.245
  0
LINE
  8
0
 10
35.7725
 20
228.245
 11
35.6288
 21
228.471
  0
LINE
  8
0
 10
35.6288
 20
228.471
 11
35.5146
 21
228.714
  0
LINE
  8
0
 10
35.5146
 20
228.714
 11
35.4318
 21
228.969
  0
LINE
  8
0
 10
35.4318
 20
228.969
 11
35.3815
 21
229.232
  0
LINE
  8
0
 10
35.3815
 20
229.232
 11
35.3647
 21
229.5
  0
LINE
  8
0
 10
35.3647
 20
229.5
 11
35.3815
 21
229.768
  0
LINE
  8
0
 10
35.3815
 20
229.768
 11
35.4318
 21
230.031
  0
LINE
  8
0
 10
35.4318
 20
230.031
 11
35.5146
 21
230.286
  0
LINE
  8
0
 10
35.5146
 20
230.286
 11
35.6288
 21
230.529
  0
LINE
  8
0
 10
35.6288
 20
230.529
 11
35.7725
 21
230.755
  0
LINE
  8
0
 10
35.7725
 20
230.755
 11
35.9434
 21
230.962
  0
LINE
  8
0
 10
35.9434
 20
230.962
 11
36.1389
 21
231.145
  0
LINE
  8
0
 10
36.1389
 20
231.145
 11
36.3559
 21
231.303
  0
LINE
  8
0
 10
36.3559
 20
231.303
 11
36.5908
 21
231.432
  0
LINE
  8
0
 10
36.5908
 20
231.432
 11
36.8401
 21
231.531
  0
LINE
  8
0
 10
36.8401
 20
231.531
 11
37.0999
 21
231.597
  0
LINE
  8
0
 10
37.0999
 20
231.597
 11
37.3659
 21
231.631
  0
LINE
  8
0
 10
37.3659
 20
231.631
 11
37.6341
 21
231.631
  0
LINE
  8
0
 10
37.6341
 20
231.631
 11
37.9001
 21
231.597
  0
LINE
  8
0
 10
37.9001
 20
231.597
 11
38.1598
 21
231.531
  0
LINE
  8
0
 10
38.1598
 20
231.531
 11
38.4092
 21
231.432
  0
LINE
  8
0
 10
38.4092
 20
231.432
 11
38.6441
 21
231.303
  0
LINE
  8
0
 10
38.6441
 20
231.303
 11
38.8611
 21
231.145
  0
LINE
  8
0
 10
38.8611
 20
231.145
 11
39.0565
 21
230.962
  0
LINE
  8
0
 10
39.0565
 20
230.962
 11
39.2275
 21
230.755
  0
LINE
  8
0
 10
39.2275
 20
230.755
 11
39.3712
 21
230.529
  0
LINE
  8
0
 10
39.3712
 20
230.529
 11
39.4853
 21
230.286
  0
LINE
  8
0
 10
39.4853
 20
230.286
 11
39.5682
 21
230.031
  0
LINE
  8
0
 10
39.5682
 20
230.031
 11
39.6185
 21
229.768
  0
LINE
  8
0
 10
39.6185
 20
229.768
 11
39.6353
 21
229.5
  0
LINE
  8
0
 10
39.6353
 20
229.5
 11
39.6185
 21
229.232
  0
LINE
  8
0
 10
39.6185
 20
229.232
 11
39.5682
 21
228.969
  0
LINE
  8
0
 10
39.5682
 20
228.969
 11
39.4853
 21
228.714
  0
LINE
  8
0
 10
39.4853
 20
228.714
 11
39.3712
 21
228.471
  0
LINE
  8
0
 10
39.3712
 20
228.471
 11
39.2275
 21
228.245
  0
LINE
  8
0
 10
39.2275
 20
228.245
 11
39.0565
 21
228.038
  0
LINE
  8
0
 10
39.0565
 20
228.038
 11
38.8611
 21
227.855
  0
LINE
  8
0
 10
38.8611
 20
227.855
 11
38.6441
 21
227.697
  0
LINE
  8
0
 10
38.6441
 20
227.697
 11
38.4092
 21
227.568
  0
LINE
  8
0
 10
38.4092
 20
227.568
 11
38.1598
 21
227.469
  0
LINE
  8
0
 10
38.1598
 20
227.469
 11
37.9001
 21
227.403
  0
LINE
  8
0
 10
37.9001
 20
227.403
 11
37.6341
 21
227.369
  0
LINE
  8
0
 10
37.6341
 20
227.369
 11
37.3659
 21
227.369
  0
LINE
  8
0
 10
-37.6341
 20
227.369
 11
-37.9001
 21
227.403
  0
LINE
  8
0
 10
-37.9001
 20
227.403
 11
-38.1598
 21
227.469
  0
LINE
  8
0
 10
-38.1598
 20
227.469
 11
-38.4092
 21
227.568
  0
LINE
  8
0
 10
-38.4092
 20
227.568
 11
-38.6441
 21
227.697
  0
LINE
  8
0
 10
-38.6441
 20
227.697
 11
-38.8611
 21
227.855
  0
LINE
  8
0
 10
-38.8611
 20
227.855
 11
-39.0565
 21
228.038
  0
LINE
  8
0
 10
-39.0565
 20
228.038
 11
-39.2275
 21
228.245
  0
LINE
  8
0
 10
-39.2275
 20
228.245
 11
-39.3712
 21
228.471
  0
LINE
  8
0
 10
-39.3712
 20
228.471
 11
-39.4853
 21
228.714
  0
LINE
  8
0
 10
-39.4853
 20
228.714
 11
-39.5682
 21
228.969
  0
LINE
  8
0
 10
-39.5682
 20
228.969
 11
-39.6185
 21
229.232
  0
LINE
  8
0
 10
-39.6185
 20
229.232
 11
-39.6353
 21
229.5
  0
LINE
  8
0
 10
-39.6353
 20
229.5
 11
-39.6185
 21
229.768
  0
LINE
  8
0
 10
-39.6185
 20
229.768
 11
-39.5682
 21
230.031
  0
LINE
  8
0
 10
-39.5682
 20
230.031
 11
-39.4853
 21
230.286
  0
LINE
  8
0
 10
-39.4853
 20
230.286
 11
-39.3712
 21
230.529
  0
LINE
  8
0
 10
-39.3712
 20
230.529
 11
-39.2275
 21
230.755
  0
LINE
  8
0
 10
-39.2275
 20
230.755
 11
-39.0565
 21
230.962
  0
LINE
  8
0
 10
-39.0565
 20
230.962
 11
-38.8611
 21
231.145
  0
LINE
  8
0
 10
-38.8611
 20
231.145
 11
-38.6441
 21
231.303
  0
LINE
  8
0
 10
-38.6441
 20
231.303
 11
-38.4092
 21
231.432
  0
LINE
  8
0
 10
-38.4092
 20
231.432
 11
-38.1598
 21
231.531
  0
LINE
  8
0
 10
-38.1598
 20
231.531
 11
-37.9001
 21
231.597
  0
LINE
  8
0
 10
-37.9001
 20
231.597
 11
-37.6341
 21
231.631
  0
LINE
  8
0
 10
-37.6341
 20
231.631
 11
-37.3659
 21
231.631
  0
LINE
  8
0
 10
-37.3659
 20
231.631
 11
-37.0999
 21
231.597
  0
LINE
  8
0
 10
-37.0999
 20
231.597
 11
-36.8401
 21
231.531
  0
LINE
  8
0
 10
-36.8401
 20
231.531
 11
-36.5908
 21
231.432
  0
LINE
  8
0
 10
-36.5908
 20
231.432
 11
-36.3559
 21
231.303
  0
LINE
  8
0
 10
-36.3559
 20
231.303
 11
-36.1389
 21
231.145
  0
LINE
  8
0
 10
-36.1389
 20
231.145
 11
-35.9434
 21
230.962
  0
LINE
  8
0
 10
-35.9434
 20
230.962
 11
-35.7725
 21
230.755
  0
LINE
  8
0
 10
-35.7725
 20
230.755
 11
-35.6288
 21
230.529
  0
LINE
  8
0
 10
-35.6288
 20
230.529
 11
-35.5146
 21
230.286
  0
LINE
  8
0
 10
-35.5146
 20
230.286
 11
-35.4318
 21
230.031
  0
LINE
  8
0
 10
-35.4318
 20
230.031
 11
-35.3815
 21
229.768
  0
LINE
  8
0
 10
-35.3815
 20
229.768
 11
-35.3647
 21
229.5
  0
LINE
  8
0
 10
-35.3647
 20
229.5
 11
-35.3815
 21
229.232
  0
LINE
  8
0
 10
-35.3815
 20
229.232
 11
-35.4318
 21
228.969
  0
LINE
  8
0
 10
-35.4318
 20
228.969
 11
-35.5146
 21
228.714
  0
LINE
  8
0
 10
-35.5146
 20
228.714
 11
-35.6288
 21
228.471
  0
LINE
  8
0
 10
-35.6288
 20
228.471
 11
-35.7725
 21
228.245
  0
LINE
  8
0
 10
-35.7725
 20
228.245
 11
-35.9434
 21
228.038
  0
LINE
  8
0
 10
-35.9434
 20
228.038
 11
-36.1389
 21
227.855
  0
LINE
  8
0
 10
-36.1389
 20
227.855
 11
-36.3559
 21
227.697
  0
LINE
  8
0
 10
-36.3559
 20
227.697
 11
-36.5908
 21
227.568
  0
LINE
  8
0
 10
-36.5908
 20
227.568
 11
-36.8401
 21
227.469
  0
LINE
  8
0
 10
-36.8401
 20
227.469
 11
-37.0999
 21
227.403
  0
LINE
  8
0
 10
-37.0999
 20
227.403
 11
-37.3659
 21
227.369
  0
LINE
  8
0
 10
-37.3659
 20
227.369
 11
-37.6341
 21
227.369
  0
LINE
  8
0
 10
37.3659
 20
182.369
 11
37.0999
 21
182.403
  0
LINE
  8
0
 10
37.0999
 20
182.403
 11
36.8401
 21
182.469
  0
LINE
  8
0
 10
36.8401
 20
182.469
 11
36.5908
 21
182.568
  0
LINE
  8
0
 10
36.5908
 20
182.568
 11
36.3559
 21
182.697
  0
LINE
  8
0
 10
36.3559
 20
182.697
 11
36.1389
 21
182.855
  0
LINE
  8
0
 10
36.1389
 20
182.855
 11
35.9434
 21
183.038
  0
LINE
  8
0
 10
35.9434
 20
183.038
 11
35.7725
 21
183.245
  0
LINE
  8
0
 10
35.7725
 20
183.245
 11
35.6288
 21
183.471
  0
LINE
  8
0
 10
35.6288
 20
183.471
 11
35.5146
 21
183.714
  0
LINE
  8
0
 10
35.5146
 20
183.714
 11
35.4318
 21
183.969
  0
LINE
  8
0
 10
35.4318
 20
183.969
 11
35.3815
 21
184.232
  0
LINE
  8
0
 10
35.3815
 20
184.232
 11
35.3647
 21
184.5
  0
LINE
  8
0
 10
35.3647
 20
184.5
 11
35.3815
 21
184.768
  0
LINE
  8
0
 10
35.3815
 20
184.768
 11
35.4318
 21
185.031
  0
LINE
  8
0
 10
35.4318
 20
185.031
 11
35.5146
 21
185.286
  0
LINE
  8
0
 10
35.5146
 20
185.286
 11
35.6288
 21
185.529
  0
LINE
  8
0
 10
35.6288
 20
185.529
 11
35.7725
 21
185.755
  0
LINE
  8
0
 10
35.7725
 20
185.755
 11
35.9434
 21
185.962
  0
LINE
  8
0
 10
35.9434
 20
185.962
 11
36.1389
 21
186.145
  0
LINE
  8
0
 10
36.1389
 20
186.145
 11
36.3559
 21
186.303
  0
LINE
  8
0
 10
36.3559
 20
186.303
 11
36.5908
 21
186.432
  0
LINE
  8
0
 10
36.5908
 20
186.432
 11
36.8401
 21
186.531
  0
LINE
  8
0
 10
36.8401
 20
186.531
 11
37.0999
 21
186.597
  0
LINE
  8
0
 10
37.0999
 20
186.597
 11
37.3659
 21
186.631
  0
LINE
  8
0
 10
37.3659
 20
186.631
 11
37.6341
 21
186.631
  0
LINE
  8
0
 10
37.6341
 20
186.631
 11
37.9001
 21
186.597
  0
LINE
  8
0
 10
37.9001
 20
186.597
 11
38.1598
 21
186.531
  0
LINE
  8
0
 10
38.1598
 20
186.531
 11
38.4092
 21
186.432
  0
LINE
  8
0
 10
38.4092
 20
186.432
 11
38.6441
 21
186.303
  0
LINE
  8
0
 10
38.6441
 20
186.303
 11
38.8611
 21
186.145
  0
LINE
  8
0
 10
38.8611
 20
186.145
 11
39.0565
 21
185.962
  0
LINE
  8
0
 10
39.0565
 20
185.962
 11
39.2275
 21
185.755
  0
LINE
  8
0
 10
39.2275
 20
185.755
 11
39.3712
 21
185.529
  0
LINE
  8
0
 10
39.3712
 20
185.529
 11
39.4853
 21
185.286
  0
LINE
  8
0
 10
39.4853
 20
185.286
 11
39.5682
 21
185.031
  0
LINE
  8
0
 10
39.5682
 20
185.031
 11
39.6185
 21
184.768
  0
LINE
  8
0
 10
39.6185
 20
184.768
 11
39.6353
 21
184.5
  0
LINE
  8
0
 10
39.6353
 20
184.5
 11
39.6185
 21
184.232
  0
LINE
  8
0
 10
39.6185
 20
184.232
 11
39.5682
 21
183.969
  0
LINE
  8
0
 10
39.5682
 20
183.969
 11
39.4853
 21
183.714
  0
LINE
  8
0
 10
39.4853
 20
183.714
 11
39.3712
 21
183.471
  0
LINE
  8
0
 10
39.3712
 20
183.471
 11
39.2275
 21
183.245
  0
LINE
  8
0
 10
39.2275
 20
183.245
 11
39.0565
 21
183.038
  0
LINE
  8
0
 10
39.0565
 20
183.038
 11
38.8611
 21
182.855
  0
LINE
  8
0
 10
38.8611
 20
182.855
 11
38.6441
 21
182.697
  0
LINE
  8
0
 10
38.6441
 20
182.697
 11
38.4092
 21
182.568
  0
LINE
  8
0
 10
38.4092
 20
182.568
 11
38.1598
 21
182.469
  0
LINE
  8
0
 10
38.1598
 20
182.469
 11
37.9001
 21
182.403
  0
LINE
  8
0
 10
37.9001
 20
182.403
 11
37.6341
 21
182.369
  0
LINE
  8
0
 10
37.6341
 20
182.369
 11
37.3659
 21
182.369
  0
LINE
  8
0
 10
-37.6341
 20
182.369
 11
-37.9001
 21
182.403
  0
LINE
  8
0
 10
-37.9001
 20
182.403
 11
-38.1598
 21
182.469
  0
LINE
  8
0
 10
-38.1598
 20
182.469
 11
-38.4092
 21
182.568
  0
LINE
  8
0
 10
-38.4092
 20
182.568
 11
-38.6441
 21
182.697
  0
LINE
  8
0
 10
-38.6441
 20
182.697
 11
-38.8611
 21
182.855
  0
LINE
  8
0
 10
-38.8611
 20
182.855
 11
-39.0565
 21
183.038
  0
LINE
  8
0
 10
-39.0565
 20
183.038
 11
-39.2275
 21
183.245
  0
LINE
  8
0
 10
-39.2275
 20
183.245
 11
-39.3712
 21
183.471
  0
LINE
  8
0
 10
-39.3712
 20
183.471
 11
-39.4853
 21
183.714
  0
LINE
  8
0
 10
-39.4853
 20
183.714
 11
-39.5682
 21
183.969
  0
LINE
  8
0
 10
-39.5682
 20
183.969
 11
-39.6185
 21
184.232
  0
LINE
  8
0
 10
-39.6185
 20
184.232
 11
-39.6353
 21
184.5
  0
LINE
  8
0
 10
-39.6353
 20
184.5
 11
-39.6185
 21
184.768
  0
LINE
  8
0
 10
-39.6185
 20
184.768
 11
-39.5682
 21
185.031
  0
LINE
  8
0
 10
-39.5682
 20
185.031
 11
-39.4853
 21
185.286
  0
LINE
  8
0
 10
-39.4853
 20
185.286
 11
-39.3712
 21
185.529
  0
LINE
  8
0
 10
-39.3712
 20
185.529
 11
-39.2275
 21
185.755
  0
LINE
  8
0
 10
-39.2275
 20
185.755
 11
-39.0565
 21
185.962
  0
LINE
  8
0
 10
-39.0565
 20
185.962
 11
-38.8611
 21
186.145
  0
LINE
  8
0
 10
-38.8611
 20
186.145
 11
-38.6441
 21
186.303
  0
LINE
  8
0
 10
-38.6441
 20
186.303
 11
-38.4092
 21
186.432
  0
LINE
  8
0
 10
-38.4092
 20
186.432
 11
-38.1598
 21
186.531
  0
LINE
  8
0
 10
-38.1598
 20
186.531
 11
-37.9001
 21
186.597
  0
LINE
  8
0
 10
-37.9001
 20
186.597
 11
-37.6341
 21
186.631
  0
LINE
  8
0
 10
-37.6341
 20
186.631
 11
-37.3659
 21
186.631
  0
LINE
  8
0
 10
-37.3659
 20
186.631
 11
-37.0999
 21
186.597
  0
LINE
  8
0
 10
-37.0999
 20
186.597
 11
-36.8401
 21
186.531
  0
LINE
  8
0
 10
-36.8401
 20
186.531
 11
-36.5908
 21
186.432
  0
LINE
  8
0
 10
-36.5908
 20
186.432
 11
-36.3559
 21
186.303
  0
LINE
  8
0
 10
-36.3559
 20
186.303
 11
-36.1389
 21
186.145
  0
LINE
  8
0
 10
-36.1389
 20
186.145
 11
-35.9434
 21
185.962
  0
LINE
  8
0
 10
-35.9434
 20
185.962
 11
-35.7725
 21
185.755
  0
LINE
  8
0
 10
-35.7725
 20
185.755
 11
-35.6288
 21
185.529
  0
LINE
  8
0
 10
-35.6288
 20
185.529
 11
-35.5146
 21
185.286
  0
LINE
  8
0
 10
-35.5146
 20
185.286
 11
-35.4318
 21
185.031
  0
LINE
  8
0
 10
-35.4318
 20
185.031
 11
-35.3815
 21
184.768
  0
LINE
  8
0
 10
-35.3815
 20
184.768
 11
-35.3647
 21
184.5
  0
LINE
  8
0
 10
-35.3647
 20
184.5
 11
-35.3815
 21
184.232
  0
LINE
  8
0
 10
-35.3815
 20
184.232
 11
-35.4318
 21
183.969
  0
LINE
  8
0
 10
-35.4318
 20
183.969
 11
-35.5146
 21
183.714
  0
LINE
  8
0
 10
-35.5146
 20
183.714
 11
-35.6288
 21
183.471
  0
LINE
  8
0
 10
-35.6288
 20
183.471
 11
-35.7725
 21
183.245
  0
LINE
  8
0
 10
-35.7725
 20
183.245
 11
-35.9434
 21
183.038
  0
LINE
  8
0
 10
-35.9434
 20
183.038
 11
-36.1389
 21
182.855
  0
LINE
  8
0
 10
-36.1389
 20
182.855
 11
-36.3559
 21
182.697
  0
LINE
  8
0
 10
-36.3559
 20
182.697
 11
-36.5908
 21
182.568
  0
LINE
  8
0
 10
-36.5908
 20
182.568
 11
-36.8401
 21
182.469
  0
LINE
  8
0
 10
-36.8401
 20
182.469
 11
-37.0999
 21
182.403
  0
LINE
  8
0
 10
-37.0999
 20
182.403
 11
-37.3659
 21
182.369
  0
LINE
  8
0
 10
-37.3659
 20
182.369
 11
-37.6341
 21
182.369
  0
ENDSEC
  0
SECTION
  2
OBJECTS
  0
DICTIONARY
  0
ENDSEC
  0
EOF
