<?xml version="1.0" standalone="no"?>
<!DOCTYPE svg PUBLIC "-//W3C//DTD SVG 1.1//EN" "http://www.w3.org/Graphics/SVG/1.1/DTD/svg11.dtd">
<svg width="16mm" height="334mm" viewBox="-8 -509 16 334" xmlns="http://www.w3.org/2000/svg" version="1.1">
<title>OpenSCAD Model</title>
<path d="
M 3.4369,-403.589 L 4.04507,-403.745 L 4.62889,-403.976 L 5.17912,-404.278 L 5.68712,-404.647 L 6.14484,-405.077
 L 6.54507,-405.561 L 6.88153,-406.091 L 7.14888,-406.659 L 7.34291,-407.257 L 7.46057,-407.873 L 7.5,-408.5
 L 7.5,-503.5 L 7.46057,-504.127 L 7.34291,-504.743 L 7.14888,-505.341 L 6.88153,-505.909 L 6.54507,-506.439
 L 6.14484,-506.923 L 5.68712,-507.353 L 5.17912,-507.722 L 4.62889,-508.024 L 4.04507,-508.255 L 3.4369,-508.411
 L 2.81395,-508.49 L -2.81395,-508.49 L -3.4369,-508.411 L -4.04507,-508.255 L -4.62889,-508.024 L -5.17912,-507.722
 L -5.68712,-507.353 L -6.14484,-506.923 L -6.54507,-506.439 L -6.88153,-505.909 L -7.14888,-505.341 L -7.34291,-504.743
 L -7.46057,-504.127 L -7.5,-503.5 L -7.5,-408.5 L -7.46057,-407.873 L -7.34291,-407.257 L -7.14888,-406.659
 L -6.88153,-406.091 L -6.54507,-405.561 L -6.14484,-405.077 L -5.68712,-404.647 L -5.17912,-404.278 L -4.62889,-403.976
 L -4.04507,-403.745 L -3.4369,-403.589 L -2.81395,-403.51 L 2.81395,-403.51 z
M -2.24316,-405.135 L -2.72565,-405.196 L -3.1967,-405.317 L -3.64888,-405.496 L -4.07506,-405.73 L -4.46851,-406.016
 L -4.82301,-406.349 L -5.13301,-406.724 L -5.3936,-407.134 L -5.60068,-407.574 L -5.75096,-408.037 L -5.84209,-408.515
 L -5.87262,-409 L -5.87262,-503 L -5.84209,-503.485 L -5.75096,-503.963 L -5.60068,-504.426 L -5.3936,-504.866
 L -5.13301,-505.276 L -4.82301,-505.651 L -4.46851,-505.984 L -4.07506,-506.27 L -3.64888,-506.504 L -3.1967,-506.683
 L -2.72565,-506.804 L -2.24316,-506.865 L 2.24316,-506.865 L 2.72565,-506.804 L 3.1967,-506.683 L 3.64888,-506.504
 L 4.07506,-506.27 L 4.46851,-505.984 L 4.82301,-505.651 L 5.13301,-505.276 L 5.3936,-504.866 L 5.60068,-504.426
 L 5.75096,-503.963 L 5.84209,-503.485 L 5.87262,-503 L 5.87262,-409 L 5.84209,-408.515 L 5.75096,-408.037
 L 5.60068,-407.574 L 5.3936,-407.134 L 5.13301,-406.724 L 4.82301,-406.349 L 4.46851,-406.016 L 4.07506,-405.73
 L 3.64888,-405.496 L 3.1967,-405.317 L 2.72565,-405.196 L 2.24316,-405.135 z
M 3.4369,-289.589 L 4.04507,-289.745 L 4.62889,-289.976 L 5.17912,-290.278 L 5.68712,-290.647 L 6.14484,-291.077
 L 6.54507,-291.561 L 6.88153,-292.091 L 7.14888,-292.659 L 7.34291,-293.257 L 7.46057,-293.873 L 7.5,-294.5
 L 7.5,-389.5 L 7.46057,-390.127 L 7.34291,-390.743 L 7.14888,-391.341 L 6.88153,-391.909 L 6.54507,-392.439
 L 6.14484,-392.923 L 5.68712,-393.353 L 5.17912,-393.722 L 4.62889,-394.024 L 4.04507,-394.255 L 3.4369,-394.411
 L 2.81395,-394.49 L -2.81395,-394.49 L -3.4369,-394.411 L -4.04507,-394.255 L -4.62889,-394.024 L -5.17912,-393.722
 L -5.68712,-393.353 L -6.14484,-392.923 L -6.54507,-392.439 L -6.88153,-391.909 L -7.14888,-391.341 L -7.34291,-390.743
 L -7.46057,-390.127 L -7.5,-389.5 L -7.5,-294.5 L -7.46057,-293.873 L -7.34291,-293.257 L -7.14888,-292.659
 L -6.88153,-292.091 L -6.54507,-291.561 L -6.14484,-291.077 L -5.68712,-290.647 L -5.17912,-290.278 L -4.62889,-289.976
 L -4.04507,-289.745 L -3.4369,-289.589 L -2.81395,-289.51 L 2.81395,-289.51 z
M 3.4369,-175.589 L 4.04507,-175.745 L 4.62889,-175.976 L 5.17912,-176.278 L 5.68712,-176.647 L 6.14484,-177.077
 L 6.54507,-177.561 L 6.88153,-178.091 L 7.14888,-178.659 L 7.34291,-179.257 L 7.46057,-179.873 L 7.5,-180.5
 L 7.5,-275.5 L 7.46057,-276.127 L 7.34291,-276.743 L 7.14888,-277.341 L 6.88153,-277.909 L 6.54507,-278.439
 L 6.14484,-278.923 L 5.68712,-279.353 L 5.17912,-279.722 L 4.62889,-280.024 L 4.04507,-280.255 L 3.4369,-280.411
 L 2.81395,-280.49 L -2.81395,-280.49 L -3.4369,-280.411 L -4.04507,-280.255 L -4.62889,-280.024 L -5.17912,-279.722
 L -5.68712,-279.353 L -6.14484,-278.923 L -6.54507,-278.439 L -6.88153,-277.909 L -7.14888,-277.341 L -7.34291,-276.743
 L -7.46057,-276.127 L -7.5,-275.5 L -7.5,-180.5 L -7.46057,-179.873 L -7.34291,-179.257 L -7.14888,-178.659
 L -6.88153,-178.091 L -6.54507,-177.561 L -6.14484,-177.077 L -5.68712,-176.647 L -5.17912,-176.278 L -4.62889,-175.976
 L -4.04507,-175.745 L -3.4369,-175.589 L -2.81395,-175.51 L 2.81395,-175.51 z
M -0.113022,-271.204 L -0.33728,-271.232 L -0.556229,-271.288 L -0.766388,-271.371 L -0.964478,-271.48 L -1.14735,-271.613
 L -1.31213,-271.768 L -1.45622,-271.942 L -1.57735,-272.133 L -1.67358,-272.337 L -1.74344,-272.552 L -1.7858,-272.774
 L -1.79999,-273 L -1.7858,-273.226 L -1.74344,-273.448 L -1.67358,-273.663 L -1.57735,-273.867 L -1.45622,-274.058
 L -1.31213,-274.232 L -1.14735,-274.387 L -0.964478,-274.52 L -0.766388,-274.629 L -0.556229,-274.712 L -0.33728,-274.768
 L -0.113022,-274.796 L 0.113022,-274.796 L 0.33728,-274.768 L 0.556229,-274.712 L 0.766388,-274.629 L 0.964478,-274.52
 L 1.14735,-274.387 L 1.31213,-274.232 L 1.45622,-274.058 L 1.57735,-273.867 L 1.67358,-273.663 L 1.74344,-273.448
 L 1.7858,-273.226 L 1.79999,-273 L 1.7858,-272.774 L 1.74344,-272.552 L 1.67358,-272.337 L 1.57735,-272.133
 L 1.45622,-271.942 L 1.31213,-271.768 L 1.14735,-271.613 L 0.964478,-271.48 L 0.766388,-271.371 L 0.556229,-271.288
 L 0.33728,-271.232 L 0.113022,-271.204 z
M -0.113022,-181.204 L -0.33728,-181.232 L -0.556229,-181.288 L -0.766388,-181.371 L -0.964478,-181.48 L -1.14735,-181.613
 L -1.31213,-181.768 L -1.45622,-181.942 L -1.57735,-182.133 L -1.67358,-182.337 L -1.74344,-182.552 L -1.7858,-182.774
 L -1.79999,-183 L -1.7858,-183.226 L -1.74344,-183.448 L -1.67358,-183.663 L -1.57735,-183.867 L -1.45622,-184.058
 L -1.31213,-184.232 L -1.14735,-184.387 L -0.964478,-184.52 L -0.766388,-184.629 L -0.556229,-184.712 L -0.33728,-184.768
 L -0.113022,-184.796 L 0.113022,-184.796 L 0.33728,-184.768 L 0.556229,-184.712 L 0.766388,-184.629 L 0.964478,-184.52
 L 1.14735,-184.387 L 1.31213,-184.232 L 1.45622,-184.058 L 1.57735,-183.867 L 1.67358,-183.663 L 1.74344,-183.448
 L 1.7858,-183.226 L 1.79999,-183 L 1.7858,-182.774 L 1.74344,-182.552 L 1.67358,-182.337 L 1.57735,-182.133
 L 1.45622,-181.942 L 1.31213,-181.768 L 1.14735,-181.613 L 0.964478,-181.48 L 0.766388,-181.371 L 0.556229,-181.288
 L 0.33728,-181.232 L 0.113022,-181.204 z
" stroke="black" fill="lightgray" stroke-width="0.5"/>
</svg>
