  0
SECTION
  2
BLOCKS
  0
ENDSEC
  0
SECTION
  2
ENTITIES
  0
LINE
  8
0
 10
3.4369
 20
265.589
 11
4.04507
 21
265.745
  0
LINE
  8
0
 10
4.04507
 20
265.745
 11
4.62889
 21
265.976
  0
LINE
  8
0
 10
4.62889
 20
265.976
 11
5.17912
 21
266.278
  0
LINE
  8
0
 10
5.17912
 20
266.278
 11
5.68712
 21
266.647
  0
LINE
  8
0
 10
5.68712
 20
266.647
 11
6.14484
 21
267.077
  0
LINE
  8
0
 10
6.14484
 20
267.077
 11
6.54507
 21
267.561
  0
LINE
  8
0
 10
6.54507
 20
267.561
 11
6.88153
 21
268.091
  0
LINE
  8
0
 10
6.88153
 20
268.091
 11
7.14888
 21
268.659
  0
LINE
  8
0
 10
7.14888
 20
268.659
 11
7.34291
 21
269.257
  0
LINE
  8
0
 10
7.34291
 20
269.257
 11
7.46057
 21
269.873
  0
LINE
  8
0
 10
7.46057
 20
269.873
 11
7.5
 21
270.5
  0
LINE
  8
0
 10
7.5
 20
270.5
 11
7.5
 21
425.5
  0
LINE
  8
0
 10
7.5
 20
425.5
 11
7.46057
 21
426.127
  0
LINE
  8
0
 10
7.46057
 20
426.127
 11
7.34291
 21
426.743
  0
LINE
  8
0
 10
7.34291
 20
426.743
 11
7.14888
 21
427.341
  0
LINE
  8
0
 10
7.14888
 20
427.341
 11
6.88153
 21
427.909
  0
LINE
  8
0
 10
6.88153
 20
427.909
 11
6.54507
 21
428.439
  0
LINE
  8
0
 10
6.54507
 20
428.439
 11
6.14484
 21
428.923
  0
LINE
  8
0
 10
6.14484
 20
428.923
 11
5.68712
 21
429.353
  0
LINE
  8
0
 10
5.68712
 20
429.353
 11
5.17912
 21
429.722
  0
LINE
  8
0
 10
5.17912
 20
429.722
 11
4.62889
 21
430.024
  0
LINE
  8
0
 10
4.62889
 20
430.024
 11
4.04507
 21
430.255
  0
LINE
  8
0
 10
4.04507
 20
430.255
 11
3.4369
 21
430.411
  0
LINE
  8
0
 10
3.4369
 20
430.411
 11
2.81395
 21
430.49
  0
LINE
  8
0
 10
2.81395
 20
430.49
 11
-2.81395
 21
430.49
  0
LINE
  8
0
 10
-2.81395
 20
430.49
 11
-3.4369
 21
430.411
  0
LINE
  8
0
 10
-3.4369
 20
430.411
 11
-4.04507
 21
430.255
  0
LINE
  8
0
 10
-4.04507
 20
430.255
 11
-4.62889
 21
430.024
  0
LINE
  8
0
 10
-4.62889
 20
430.024
 11
-5.17912
 21
429.722
  0
LINE
  8
0
 10
-5.17912
 20
429.722
 11
-5.68712
 21
429.353
  0
LINE
  8
0
 10
-5.68712
 20
429.353
 11
-6.14484
 21
428.923
  0
LINE
  8
0
 10
-6.14484
 20
428.923
 11
-6.54507
 21
428.439
  0
LINE
  8
0
 10
-6.54507
 20
428.439
 11
-6.88153
 21
427.909
  0
LINE
  8
0
 10
-6.88153
 20
427.909
 11
-7.14888
 21
427.341
  0
LINE
  8
0
 10
-7.14888
 20
427.341
 11
-7.34291
 21
426.743
  0
LINE
  8
0
 10
-7.34291
 20
426.743
 11
-7.46057
 21
426.127
  0
LINE
  8
0
 10
-7.46057
 20
426.127
 11
-7.5
 21
425.5
  0
LINE
  8
0
 10
-7.5
 20
425.5
 11
-7.5
 21
270.5
  0
LINE
  8
0
 10
-7.5
 20
270.5
 11
-7.46057
 21
269.873
  0
LINE
  8
0
 10
-7.46057
 20
269.873
 11
-7.34291
 21
269.257
  0
LINE
  8
0
 10
-7.34291
 20
269.257
 11
-7.14888
 21
268.659
  0
LINE
  8
0
 10
-7.14888
 20
268.659
 11
-6.88153
 21
268.091
  0
LINE
  8
0
 10
-6.88153
 20
268.091
 11
-6.54507
 21
267.561
  0
LINE
  8
0
 10
-6.54507
 20
267.561
 11
-6.14484
 21
267.077
  0
LINE
  8
0
 10
-6.14484
 20
267.077
 11
-5.68712
 21
266.647
  0
LINE
  8
0
 10
-5.68712
 20
266.647
 11
-5.17912
 21
266.278
  0
LINE
  8
0
 10
-5.17912
 20
266.278
 11
-4.62889
 21
265.976
  0
LINE
  8
0
 10
-4.62889
 20
265.976
 11
-4.04507
 21
265.745
  0
LINE
  8
0
 10
-4.04507
 20
265.745
 11
-3.4369
 21
265.589
  0
LINE
  8
0
 10
-3.4369
 20
265.589
 11
-2.81395
 21
265.51
  0
LINE
  8
0
 10
-2.81395
 20
265.51
 11
2.81395
 21
265.51
  0
LINE
  8
0
 10
2.81395
 20
265.51
 11
3.4369
 21
265.589
  0
LINE
  8
0
 10
3.4369
 20
91.5886
 11
4.04507
 21
91.7447
  0
LINE
  8
0
 10
4.04507
 20
91.7447
 11
4.62889
 21
91.9759
  0
LINE
  8
0
 10
4.62889
 20
91.9759
 11
5.17912
 21
92.2784
  0
LINE
  8
0
 10
5.17912
 20
92.2784
 11
5.68712
 21
92.6474
  0
LINE
  8
0
 10
5.68712
 20
92.6474
 11
6.14484
 21
93.0773
  0
LINE
  8
0
 10
6.14484
 20
93.0773
 11
6.54507
 21
93.5611
  0
LINE
  8
0
 10
6.54507
 20
93.5611
 11
6.88153
 21
94.0912
  0
LINE
  8
0
 10
6.88153
 20
94.0912
 11
7.14888
 21
94.6594
  0
LINE
  8
0
 10
7.14888
 20
94.6594
 11
7.34291
 21
95.2566
  0
LINE
  8
0
 10
7.34291
 20
95.2566
 11
7.46057
 21
95.8733
  0
LINE
  8
0
 10
7.46057
 20
95.8733
 11
7.5
 21
96.5
  0
LINE
  8
0
 10
7.5
 20
96.5
 11
7.5
 21
251.5
  0
LINE
  8
0
 10
7.5
 20
251.5
 11
7.46057
 21
252.127
  0
LINE
  8
0
 10
7.46057
 20
252.127
 11
7.34291
 21
252.743
  0
LINE
  8
0
 10
7.34291
 20
252.743
 11
7.14888
 21
253.341
  0
LINE
  8
0
 10
7.14888
 20
253.341
 11
6.88153
 21
253.909
  0
LINE
  8
0
 10
6.88153
 20
253.909
 11
6.54507
 21
254.439
  0
LINE
  8
0
 10
6.54507
 20
254.439
 11
6.14484
 21
254.923
  0
LINE
  8
0
 10
6.14484
 20
254.923
 11
5.68712
 21
255.353
  0
LINE
  8
0
 10
5.68712
 20
255.353
 11
5.17912
 21
255.722
  0
LINE
  8
0
 10
5.17912
 20
255.722
 11
4.62889
 21
256.024
  0
LINE
  8
0
 10
4.62889
 20
256.024
 11
4.04507
 21
256.255
  0
LINE
  8
0
 10
4.04507
 20
256.255
 11
3.4369
 21
256.411
  0
LINE
  8
0
 10
3.4369
 20
256.411
 11
2.81395
 21
256.49
  0
LINE
  8
0
 10
2.81395
 20
256.49
 11
-2.81395
 21
256.49
  0
LINE
  8
0
 10
-2.81395
 20
256.49
 11
-3.4369
 21
256.411
  0
LINE
  8
0
 10
-3.4369
 20
256.411
 11
-4.04507
 21
256.255
  0
LINE
  8
0
 10
-4.04507
 20
256.255
 11
-4.62889
 21
256.024
  0
LINE
  8
0
 10
-4.62889
 20
256.024
 11
-5.17912
 21
255.722
  0
LINE
  8
0
 10
-5.17912
 20
255.722
 11
-5.68712
 21
255.353
  0
LINE
  8
0
 10
-5.68712
 20
255.353
 11
-6.14484
 21
254.923
  0
LINE
  8
0
 10
-6.14484
 20
254.923
 11
-6.54507
 21
254.439
  0
LINE
  8
0
 10
-6.54507
 20
254.439
 11
-6.88153
 21
253.909
  0
LINE
  8
0
 10
-6.88153
 20
253.909
 11
-7.14888
 21
253.341
  0
LINE
  8
0
 10
-7.14888
 20
253.341
 11
-7.34291
 21
252.743
  0
LINE
  8
0
 10
-7.34291
 20
252.743
 11
-7.46057
 21
252.127
  0
LINE
  8
0
 10
-7.46057
 20
252.127
 11
-7.5
 21
251.5
  0
LINE
  8
0
 10
-7.5
 20
251.5
 11
-7.5
 21
96.5
  0
LINE
  8
0
 10
-7.5
 20
96.5
 11
-7.46057
 21
95.8733
  0
LINE
  8
0
 10
-7.46057
 20
95.8733
 11
-7.34291
 21
95.2566
  0
LINE
  8
0
 10
-7.34291
 20
95.2566
 11
-7.14888
 21
94.6594
  0
LINE
  8
0
 10
-7.14888
 20
94.6594
 11
-6.88153
 21
94.0912
  0
LINE
  8
0
 10
-6.88153
 20
94.0912
 11
-6.54507
 21
93.5611
  0
LINE
  8
0
 10
-6.54507
 20
93.5611
 11
-6.14484
 21
93.0773
  0
LINE
  8
0
 10
-6.14484
 20
93.0773
 11
-5.68712
 21
92.6474
  0
LINE
  8
0
 10
-5.68712
 20
92.6474
 11
-5.17912
 21
92.2784
  0
LINE
  8
0
 10
-5.17912
 20
92.2784
 11
-4.62889
 21
91.9759
  0
LINE
  8
0
 10
-4.62889
 20
91.9759
 11
-4.04507
 21
91.7447
  0
LINE
  8
0
 10
-4.04507
 20
91.7447
 11
-3.4369
 21
91.5886
  0
LINE
  8
0
 10
-3.4369
 20
91.5886
 11
-2.81395
 21
91.5099
  0
LINE
  8
0
 10
-2.81395
 20
91.5099
 11
2.81395
 21
91.5099
  0
LINE
  8
0
 10
2.81395
 20
91.5099
 11
3.4369
 21
91.5886
  0
LINE
  8
0
 10
-0.113022
 20
247.204
 11
-0.33728
 21
247.232
  0
LINE
  8
0
 10
-0.33728
 20
247.232
 11
-0.556229
 21
247.288
  0
LINE
  8
0
 10
-0.556229
 20
247.288
 11
-0.766388
 21
247.371
  0
LINE
  8
0
 10
-0.766388
 20
247.371
 11
-0.964478
 21
247.48
  0
LINE
  8
0
 10
-0.964478
 20
247.48
 11
-1.14735
 21
247.613
  0
LINE
  8
0
 10
-1.14735
 20
247.613
 11
-1.31213
 21
247.768
  0
LINE
  8
0
 10
-1.31213
 20
247.768
 11
-1.45622
 21
247.942
  0
LINE
  8
0
 10
-1.45622
 20
247.942
 11
-1.57735
 21
248.133
  0
LINE
  8
0
 10
-1.57735
 20
248.133
 11
-1.67358
 21
248.337
  0
LINE
  8
0
 10
-1.67358
 20
248.337
 11
-1.74344
 21
248.552
  0
LINE
  8
0
 10
-1.74344
 20
248.552
 11
-1.7858
 21
248.774
  0
LINE
  8
0
 10
-1.7858
 20
248.774
 11
-1.79999
 21
249
  0
LINE
  8
0
 10
-1.79999
 20
249
 11
-1.7858
 21
249.226
  0
LINE
  8
0
 10
-1.7858
 20
249.226
 11
-1.74344
 21
249.448
  0
LINE
  8
0
 10
-1.74344
 20
249.448
 11
-1.67358
 21
249.663
  0
LINE
  8
0
 10
-1.67358
 20
249.663
 11
-1.57735
 21
249.867
  0
LINE
  8
0
 10
-1.57735
 20
249.867
 11
-1.45622
 21
250.058
  0
LINE
  8
0
 10
-1.45622
 20
250.058
 11
-1.31213
 21
250.232
  0
LINE
  8
0
 10
-1.31213
 20
250.232
 11
-1.14735
 21
250.387
  0
LINE
  8
0
 10
-1.14735
 20
250.387
 11
-0.964478
 21
250.52
  0
LINE
  8
0
 10
-0.964478
 20
250.52
 11
-0.766388
 21
250.629
  0
LINE
  8
0
 10
-0.766388
 20
250.629
 11
-0.556229
 21
250.712
  0
LINE
  8
0
 10
-0.556229
 20
250.712
 11
-0.33728
 21
250.768
  0
LINE
  8
0
 10
-0.33728
 20
250.768
 11
-0.113022
 21
250.796
  0
LINE
  8
0
 10
-0.113022
 20
250.796
 11
0.113022
 21
250.796
  0
LINE
  8
0
 10
0.113022
 20
250.796
 11
0.33728
 21
250.768
  0
LINE
  8
0
 10
0.33728
 20
250.768
 11
0.556229
 21
250.712
  0
LINE
  8
0
 10
0.556229
 20
250.712
 11
0.766388
 21
250.629
  0
LINE
  8
0
 10
0.766388
 20
250.629
 11
0.964478
 21
250.52
  0
LINE
  8
0
 10
0.964478
 20
250.52
 11
1.14735
 21
250.387
  0
LINE
  8
0
 10
1.14735
 20
250.387
 11
1.31213
 21
250.232
  0
LINE
  8
0
 10
1.31213
 20
250.232
 11
1.45622
 21
250.058
  0
LINE
  8
0
 10
1.45622
 20
250.058
 11
1.57735
 21
249.867
  0
LINE
  8
0
 10
1.57735
 20
249.867
 11
1.67358
 21
249.663
  0
LINE
  8
0
 10
1.67358
 20
249.663
 11
1.74344
 21
249.448
  0
LINE
  8
0
 10
1.74344
 20
249.448
 11
1.7858
 21
249.226
  0
LINE
  8
0
 10
1.7858
 20
249.226
 11
1.79999
 21
249
  0
LINE
  8
0
 10
1.79999
 20
249
 11
1.7858
 21
248.774
  0
LINE
  8
0
 10
1.7858
 20
248.774
 11
1.74344
 21
248.552
  0
LINE
  8
0
 10
1.74344
 20
248.552
 11
1.67358
 21
248.337
  0
LINE
  8
0
 10
1.67358
 20
248.337
 11
1.57735
 21
248.133
  0
LINE
  8
0
 10
1.57735
 20
248.133
 11
1.45622
 21
247.942
  0
LINE
  8
0
 10
1.45622
 20
247.942
 11
1.31213
 21
247.768
  0
LINE
  8
0
 10
1.31213
 20
247.768
 11
1.14735
 21
247.613
  0
LINE
  8
0
 10
1.14735
 20
247.613
 11
0.964478
 21
247.48
  0
LINE
  8
0
 10
0.964478
 20
247.48
 11
0.766388
 21
247.371
  0
LINE
  8
0
 10
0.766388
 20
247.371
 11
0.556229
 21
247.288
  0
LINE
  8
0
 10
0.556229
 20
247.288
 11
0.33728
 21
247.232
  0
LINE
  8
0
 10
0.33728
 20
247.232
 11
0.113022
 21
247.204
  0
LINE
  8
0
 10
0.113022
 20
247.204
 11
-0.113022
 21
247.204
  0
LINE
  8
0
 10
-0.113022
 20
97.2036
 11
-0.33728
 21
97.2319
  0
LINE
  8
0
 10
-0.33728
 20
97.2319
 11
-0.556229
 21
97.2881
  0
LINE
  8
0
 10
-0.556229
 20
97.2881
 11
-0.766388
 21
97.3713
  0
LINE
  8
0
 10
-0.766388
 20
97.3713
 11
-0.964478
 21
97.4802
  0
LINE
  8
0
 10
-0.964478
 20
97.4802
 11
-1.14735
 21
97.6131
  0
LINE
  8
0
 10
-1.14735
 20
97.6131
 11
-1.31213
 21
97.7678
  0
LINE
  8
0
 10
-1.31213
 20
97.7678
 11
-1.45622
 21
97.942
  0
LINE
  8
0
 10
-1.45622
 20
97.942
 11
-1.57735
 21
98.1328
  0
LINE
  8
0
 10
-1.57735
 20
98.1328
 11
-1.67358
 21
98.3374
  0
LINE
  8
0
 10
-1.67358
 20
98.3374
 11
-1.74344
 21
98.5524
  0
LINE
  8
0
 10
-1.74344
 20
98.5524
 11
-1.7858
 21
98.7744
  0
LINE
  8
0
 10
-1.7858
 20
98.7744
 11
-1.79999
 21
99
  0
LINE
  8
0
 10
-1.79999
 20
99
 11
-1.7858
 21
99.2256
  0
LINE
  8
0
 10
-1.7858
 20
99.2256
 11
-1.74344
 21
99.4476
  0
LINE
  8
0
 10
-1.74344
 20
99.4476
 11
-1.67358
 21
99.6626
  0
LINE
  8
0
 10
-1.67358
 20
99.6626
 11
-1.57735
 21
99.8672
  0
LINE
  8
0
 10
-1.57735
 20
99.8672
 11
-1.45622
 21
100.058
  0
LINE
  8
0
 10
-1.45622
 20
100.058
 11
-1.31213
 21
100.232
  0
LINE
  8
0
 10
-1.31213
 20
100.232
 11
-1.14735
 21
100.387
  0
LINE
  8
0
 10
-1.14735
 20
100.387
 11
-0.964478
 21
100.52
  0
LINE
  8
0
 10
-0.964478
 20
100.52
 11
-0.766388
 21
100.629
  0
LINE
  8
0
 10
-0.766388
 20
100.629
 11
-0.556229
 21
100.712
  0
LINE
  8
0
 10
-0.556229
 20
100.712
 11
-0.33728
 21
100.768
  0
LINE
  8
0
 10
-0.33728
 20
100.768
 11
-0.113022
 21
100.796
  0
LINE
  8
0
 10
-0.113022
 20
100.796
 11
0.113022
 21
100.796
  0
LINE
  8
0
 10
0.113022
 20
100.796
 11
0.33728
 21
100.768
  0
LINE
  8
0
 10
0.33728
 20
100.768
 11
0.556229
 21
100.712
  0
LINE
  8
0
 10
0.556229
 20
100.712
 11
0.766388
 21
100.629
  0
LINE
  8
0
 10
0.766388
 20
100.629
 11
0.964478
 21
100.52
  0
LINE
  8
0
 10
0.964478
 20
100.52
 11
1.14735
 21
100.387
  0
LINE
  8
0
 10
1.14735
 20
100.387
 11
1.31213
 21
100.232
  0
LINE
  8
0
 10
1.31213
 20
100.232
 11
1.45622
 21
100.058
  0
LINE
  8
0
 10
1.45622
 20
100.058
 11
1.57735
 21
99.8672
  0
LINE
  8
0
 10
1.57735
 20
99.8672
 11
1.67358
 21
99.6626
  0
LINE
  8
0
 10
1.67358
 20
99.6626
 11
1.74344
 21
99.4476
  0
LINE
  8
0
 10
1.74344
 20
99.4476
 11
1.7858
 21
99.2256
  0
LINE
  8
0
 10
1.7858
 20
99.2256
 11
1.79999
 21
99
  0
LINE
  8
0
 10
1.79999
 20
99
 11
1.7858
 21
98.7744
  0
LINE
  8
0
 10
1.7858
 20
98.7744
 11
1.74344
 21
98.5524
  0
LINE
  8
0
 10
1.74344
 20
98.5524
 11
1.67358
 21
98.3374
  0
LINE
  8
0
 10
1.67358
 20
98.3374
 11
1.57735
 21
98.1328
  0
LINE
  8
0
 10
1.57735
 20
98.1328
 11
1.45622
 21
97.942
  0
LINE
  8
0
 10
1.45622
 20
97.942
 11
1.31213
 21
97.7678
  0
LINE
  8
0
 10
1.31213
 20
97.7678
 11
1.14735
 21
97.6131
  0
LINE
  8
0
 10
1.14735
 20
97.6131
 11
0.964478
 21
97.4802
  0
LINE
  8
0
 10
0.964478
 20
97.4802
 11
0.766388
 21
97.3713
  0
LINE
  8
0
 10
0.766388
 20
97.3713
 11
0.556229
 21
97.2881
  0
LINE
  8
0
 10
0.556229
 20
97.2881
 11
0.33728
 21
97.2319
  0
LINE
  8
0
 10
0.33728
 20
97.2319
 11
0.113022
 21
97.2036
  0
LINE
  8
0
 10
0.113022
 20
97.2036
 11
-0.113022
 21
97.2036
  0
ENDSEC
  0
SECTION
  2
OBJECTS
  0
DICTIONARY
  0
ENDSEC
  0
EOF
