<?xml version="1.0" standalone="no"?>
<!DOCTYPE svg PUBLIC "-//W3C//DTD SVG 1.1//EN" "http://www.w3.org/Graphics/SVG/1.1/DTD/svg11.dtd">
<svg width="46mm" height="249mm" viewBox="-23 -318 46 249" xmlns="http://www.w3.org/2000/svg" version="1.1">
<title>OpenSCAD Model</title>
<path d="
M 18.4369,-198.089 L 19.0451,-198.245 L 19.6289,-198.476 L 20.1791,-198.778 L 20.6871,-199.147 L 21.1448,-199.577
 L 21.5451,-200.061 L 21.8815,-200.591 L 22.1489,-201.159 L 22.3429,-201.757 L 22.4606,-202.373 L 22.5,-203
 L 22.5,-313 L 22.4606,-313.627 L 22.3429,-314.243 L 22.1489,-314.841 L 21.8815,-315.409 L 21.5451,-315.939
 L 21.1448,-316.423 L 20.6871,-316.853 L 20.1791,-317.222 L 19.6289,-317.524 L 19.0451,-317.755 L 18.4369,-317.911
 L 17.8139,-317.99 L -17.8139,-317.99 L -18.4369,-317.911 L -19.0451,-317.755 L -19.6289,-317.524 L -20.1791,-317.222
 L -20.6871,-316.853 L -21.1448,-316.423 L -21.5451,-315.939 L -21.8815,-315.409 L -22.1489,-314.841 L -22.3429,-314.243
 L -22.4606,-313.627 L -22.5,-313 L -22.5,-203 L -22.4606,-202.373 L -22.3429,-201.757 L -22.1489,-201.159
 L -21.8815,-200.591 L -21.5451,-200.061 L -21.1448,-199.577 L -20.6871,-199.147 L -20.1791,-198.778 L -19.6289,-198.476
 L -19.0451,-198.245 L -18.4369,-198.089 L -17.8139,-198.01 L 17.8139,-198.01 z
M 18.4369,-69.0886 L 19.0451,-69.2447 L 19.6289,-69.4759 L 20.1791,-69.7784 L 20.6871,-70.1474 L 21.1448,-70.5773
 L 21.5451,-71.0611 L 21.8815,-71.5912 L 22.1489,-72.1594 L 22.3429,-72.7566 L 22.4606,-73.3733 L 22.5,-74
 L 22.5,-184 L 22.4606,-184.627 L 22.3429,-185.243 L 22.1489,-185.841 L 21.8815,-186.409 L 21.5451,-186.939
 L 21.1448,-187.423 L 20.6871,-187.853 L 20.1791,-188.222 L 19.6289,-188.524 L 19.0451,-188.755 L 18.4369,-188.911
 L 17.8139,-188.99 L -17.8139,-188.99 L -18.4369,-188.911 L -19.0451,-188.755 L -19.6289,-188.524 L -20.1791,-188.222
 L -20.6871,-187.853 L -21.1448,-187.423 L -21.5451,-186.939 L -21.8815,-186.409 L -22.1489,-185.841 L -22.3429,-185.243
 L -22.4606,-184.627 L -22.5,-184 L -22.5,-74 L -22.4606,-73.3733 L -22.3429,-72.7566 L -22.1489,-72.1594
 L -21.8815,-71.5912 L -21.5451,-71.0611 L -21.1448,-70.5773 L -20.6871,-70.1474 L -20.1791,-69.7784 L -19.6289,-69.4759
 L -19.0451,-69.2447 L -18.4369,-69.0886 L -17.8139,-69.0099 L 17.8139,-69.0099 z
M 14.887,-179.704 L 14.6627,-179.732 L 14.4438,-179.788 L 14.2336,-179.871 L 14.0355,-179.98 L 13.8526,-180.113
 L 13.6879,-180.268 L 13.5438,-180.442 L 13.4226,-180.633 L 13.3264,-180.837 L 13.2565,-181.052 L 13.2142,-181.274
 L 13.2,-181.5 L 13.2142,-181.726 L 13.2565,-181.948 L 13.3264,-182.163 L 13.4226,-182.367 L 13.5438,-182.558
 L 13.6879,-182.732 L 13.8526,-182.887 L 14.0355,-183.02 L 14.2336,-183.129 L 14.4438,-183.212 L 14.6627,-183.268
 L 14.887,-183.296 L 15.113,-183.296 L 15.3373,-183.268 L 15.5562,-183.212 L 15.7664,-183.129 L 15.9645,-183.02
 L 16.1474,-182.887 L 16.3121,-182.732 L 16.4562,-182.558 L 16.5773,-182.367 L 16.6736,-182.163 L 16.7434,-181.948
 L 16.7858,-181.726 L 16.8,-181.5 L 16.7858,-181.274 L 16.7434,-181.052 L 16.6736,-180.837 L 16.5773,-180.633
 L 16.4562,-180.442 L 16.3121,-180.268 L 16.1474,-180.113 L 15.9645,-179.98 L 15.7664,-179.871 L 15.5562,-179.788
 L 15.3373,-179.732 L 15.113,-179.704 z
M -15.113,-179.704 L -15.3373,-179.732 L -15.5562,-179.788 L -15.7664,-179.871 L -15.9645,-179.98 L -16.1474,-180.113
 L -16.3121,-180.268 L -16.4562,-180.442 L -16.5773,-180.633 L -16.6736,-180.837 L -16.7434,-181.052 L -16.7858,-181.274
 L -16.8,-181.5 L -16.7858,-181.726 L -16.7434,-181.948 L -16.6736,-182.163 L -16.5773,-182.367 L -16.4562,-182.558
 L -16.3121,-182.732 L -16.1474,-182.887 L -15.9645,-183.02 L -15.7664,-183.129 L -15.5562,-183.212 L -15.3373,-183.268
 L -15.113,-183.296 L -14.887,-183.296 L -14.6627,-183.268 L -14.4438,-183.212 L -14.2336,-183.129 L -14.0355,-183.02
 L -13.8526,-182.887 L -13.6879,-182.732 L -13.5438,-182.558 L -13.4226,-182.367 L -13.3264,-182.163 L -13.2565,-181.948
 L -13.2142,-181.726 L -13.2,-181.5 L -13.2142,-181.274 L -13.2565,-181.052 L -13.3264,-180.837 L -13.4226,-180.633
 L -13.5438,-180.442 L -13.6879,-180.268 L -13.8526,-180.113 L -14.0355,-179.98 L -14.2336,-179.871 L -14.4438,-179.788
 L -14.6627,-179.732 L -14.887,-179.704 z
M -15.113,-74.7036 L -15.3373,-74.7319 L -15.5562,-74.7881 L -15.7664,-74.8713 L -15.9645,-74.9802 L -16.1474,-75.1131
 L -16.3121,-75.2678 L -16.4562,-75.442 L -16.5773,-75.6328 L -16.6736,-75.8374 L -16.7434,-76.0524 L -16.7858,-76.2744
 L -16.8,-76.5 L -16.7858,-76.7256 L -16.7434,-76.9476 L -16.6736,-77.1626 L -16.5773,-77.3672 L -16.4562,-77.558
 L -16.3121,-77.7322 L -16.1474,-77.8869 L -15.9645,-78.0198 L -15.7664,-78.1287 L -15.5562,-78.2119 L -15.3373,-78.2681
 L -15.113,-78.2964 L -14.887,-78.2964 L -14.6627,-78.2681 L -14.4438,-78.2119 L -14.2336,-78.1287 L -14.0355,-78.0198
 L -13.8526,-77.8869 L -13.6879,-77.7322 L -13.5438,-77.558 L -13.4226,-77.3672 L -13.3264,-77.1626 L -13.2565,-76.9476
 L -13.2142,-76.7256 L -13.2,-76.5 L -13.2142,-76.2744 L -13.2565,-76.0524 L -13.3264,-75.8374 L -13.4226,-75.6328
 L -13.5438,-75.442 L -13.6879,-75.2678 L -13.8526,-75.1131 L -14.0355,-74.9802 L -14.2336,-74.8713 L -14.4438,-74.7881
 L -14.6627,-74.7319 L -14.887,-74.7036 z
M 14.887,-74.7036 L 14.6627,-74.7319 L 14.4438,-74.7881 L 14.2336,-74.8713 L 14.0355,-74.9802 L 13.8526,-75.1131
 L 13.6879,-75.2678 L 13.5438,-75.442 L 13.4226,-75.6328 L 13.3264,-75.8374 L 13.2565,-76.0524 L 13.2142,-76.2744
 L 13.2,-76.5 L 13.2142,-76.7256 L 13.2565,-76.9476 L 13.3264,-77.1626 L 13.4226,-77.3672 L 13.5438,-77.558
 L 13.6879,-77.7322 L 13.8526,-77.8869 L 14.0355,-78.0198 L 14.2336,-78.1287 L 14.4438,-78.2119 L 14.6627,-78.2681
 L 14.887,-78.2964 L 15.113,-78.2964 L 15.3373,-78.2681 L 15.5562,-78.2119 L 15.7664,-78.1287 L 15.9645,-78.0198
 L 16.1474,-77.8869 L 16.3121,-77.7322 L 16.4562,-77.558 L 16.5773,-77.3672 L 16.6736,-77.1626 L 16.7434,-76.9476
 L 16.7858,-76.7256 L 16.8,-76.5 L 16.7858,-76.2744 L 16.7434,-76.0524 L 16.6736,-75.8374 L 16.5773,-75.6328
 L 16.4562,-75.442 L 16.3121,-75.2678 L 16.1474,-75.1131 L 15.9645,-74.9802 L 15.7664,-74.8713 L 15.5562,-74.7881
 L 15.3373,-74.7319 L 15.113,-74.7036 z
" stroke="black" fill="lightgray" stroke-width="0.5"/>
</svg>
