<?xml version="1.0" standalone="no"?>
<!DOCTYPE svg PUBLIC "-//W3C//DTD SVG 1.1//EN" "http://www.w3.org/Graphics/SVG/1.1/DTD/svg11.dtd">
<svg width="137mm" height="108mm" viewBox="-69 -171 137 108" xmlns="http://www.w3.org/2000/svg" version="1.1">
<title>OpenSCAD Model</title>
<path d="
M -66,-142.441 L -65.6871,-142.147 L -65.1791,-141.778 L -64.6289,-141.476 L -64.0451,-141.245 L -63.4369,-141.089
 L -62.8139,-141.01 L 62.8139,-141.01 L 63.4369,-141.089 L 64.0451,-141.245 L 64.6289,-141.476 L 65.1791,-141.778
 L 65.6871,-142.147 L 66.1448,-142.577 L 66.5451,-143.061 L 66.8815,-143.591 L 67.1489,-144.159 L 67.3429,-144.757
 L 67.4606,-145.373 L 67.5,-146 L 67.5,-166 L 67.4606,-166.627 L 67.3429,-167.243 L 67.1489,-167.841
 L 66.8815,-168.409 L 66.5451,-168.939 L 66.1448,-169.423 L 65.6871,-169.853 L 65.1791,-170.222 L 64.6289,-170.524
 L 64.0451,-170.755 L 63.4369,-170.911 L 62.8139,-170.99 L -62.8139,-170.99 L -63.4369,-170.911 L -64.0451,-170.755
 L -64.6289,-170.524 L -65.1791,-170.222 L -65.6871,-169.853 L -66,-169.559 L -66,-170.99 L -69,-170.99
 L -69,-141.01 L -66,-141.01 z
M -62.2432,-142.635 L -62.7256,-142.696 L -63.1967,-142.817 L -63.6489,-142.996 L -64.0751,-143.23 L -64.4685,-143.516
 L -64.823,-143.849 L -65.133,-144.224 L -65.3936,-144.634 L -65.6007,-145.074 L -65.751,-145.537 L -65.8421,-146.015
 L -65.8726,-146.5 L -65.8726,-165.5 L -65.8421,-165.985 L -65.751,-166.463 L -65.6007,-166.926 L -65.3936,-167.366
 L -65.133,-167.776 L -64.823,-168.151 L -64.4685,-168.484 L -64.0751,-168.77 L -63.6489,-169.004 L -63.1967,-169.183
 L -62.7256,-169.304 L -62.2432,-169.365 L 62.2432,-169.365 L 62.7256,-169.304 L 63.1967,-169.183 L 63.6489,-169.004
 L 64.0751,-168.77 L 64.4685,-168.484 L 64.823,-168.151 L 65.133,-167.776 L 65.3936,-167.366 L 65.6007,-166.926
 L 65.751,-166.463 L 65.8421,-165.985 L 65.8726,-165.5 L 65.8726,-146.5 L 65.8421,-146.015 L 65.751,-145.537
 L 65.6007,-145.074 L 65.3936,-144.634 L 65.133,-144.224 L 64.823,-143.849 L 64.4685,-143.516 L 64.0751,-143.23
 L 63.6489,-142.996 L 63.1967,-142.817 L 62.7256,-142.696 L 62.2432,-142.635 z
M 63.4369,-102.089 L 64.0451,-102.245 L 64.6289,-102.476 L 65.1791,-102.778 L 65.6871,-103.147 L 66.1448,-103.577
 L 66.5451,-104.061 L 66.8815,-104.591 L 67.1489,-105.159 L 67.3429,-105.757 L 67.4606,-106.373 L 67.5,-107
 L 67.5,-127 L 67.4606,-127.627 L 67.3429,-128.243 L 67.1489,-128.841 L 66.8815,-129.409 L 66.5451,-129.939
 L 66.1448,-130.423 L 65.6871,-130.853 L 65.1791,-131.222 L 64.6289,-131.524 L 64.0451,-131.755 L 63.4369,-131.911
 L 62.8139,-131.99 L -62.8139,-131.99 L -63.4369,-131.911 L -64.0451,-131.755 L -64.6289,-131.524 L -65.1791,-131.222
 L -65.6871,-130.853 L -66,-130.559 L -66,-131.615 L -69,-131.615 L -69,-102.385 L -66,-102.385
 L -66,-103.441 L -65.6871,-103.147 L -65.1791,-102.778 L -64.6289,-102.476 L -64.0451,-102.245 L -63.4369,-102.089
 L -62.8139,-102.01 L 62.8139,-102.01 z
M 63.4369,-63.0886 L 64.0451,-63.2447 L 64.6289,-63.4759 L 65.1791,-63.7784 L 65.6871,-64.1474 L 66.1448,-64.5773
 L 66.5451,-65.0611 L 66.8815,-65.5912 L 67.1489,-66.1594 L 67.3429,-66.7566 L 67.4606,-67.3733 L 67.5,-68
 L 67.5,-88 L 67.4606,-88.6267 L 67.3429,-89.2434 L 67.1489,-89.8406 L 66.8815,-90.4088 L 66.5451,-90.9389
 L 66.1448,-91.4227 L 65.6871,-91.8526 L 65.1791,-92.2216 L 64.6289,-92.5241 L 64.0451,-92.7553 L 63.4369,-92.9114
 L 62.8139,-92.9901 L -62.8139,-92.9901 L -63.4369,-92.9114 L -64.0451,-92.7553 L -64.6289,-92.5241 L -65.1791,-92.2216
 L -65.6871,-91.8526 L -66.1448,-91.4227 L -66.5451,-90.9389 L -66.8815,-90.4088 L -67.1489,-89.8406 L -67.3429,-89.2434
 L -67.4,-88.9442 L -69,-88.9442 L -69,-67.0558 L -67.4,-67.0558 L -67.3429,-66.7566 L -67.1489,-66.1594
 L -66.8815,-65.5912 L -66.5451,-65.0611 L -66.1448,-64.5773 L -65.6871,-64.1474 L -65.1791,-63.7784 L -64.6289,-63.4759
 L -64.0451,-63.2447 L -63.4369,-63.0886 L -62.8139,-63.0099 L 62.8139,-63.0099 z
M -60.113,-83.7036 L -60.3373,-83.7319 L -60.5562,-83.7881 L -60.7664,-83.8713 L -60.9645,-83.9802 L -61.1474,-84.1131
 L -61.3121,-84.2678 L -61.4562,-84.442 L -61.5773,-84.6328 L -61.6736,-84.8374 L -61.7434,-85.0524 L -61.7858,-85.2744
 L -61.8,-85.5 L -61.7858,-85.7256 L -61.7434,-85.9476 L -61.6736,-86.1626 L -61.5773,-86.3671 L -61.4562,-86.558
 L -61.3121,-86.7322 L -61.1474,-86.8869 L -60.9645,-87.0198 L -60.7664,-87.1287 L -60.5562,-87.2119 L -60.3373,-87.2681
 L -60.113,-87.2964 L -59.887,-87.2964 L -59.6627,-87.2681 L -59.4438,-87.2119 L -59.2336,-87.1287 L -59.0355,-87.0198
 L -58.8526,-86.8869 L -58.6879,-86.7322 L -58.5438,-86.558 L -58.4226,-86.3671 L -58.3264,-86.1626 L -58.2565,-85.9476
 L -58.2142,-85.7256 L -58.2,-85.5 L -58.2142,-85.2744 L -58.2565,-85.0524 L -58.3264,-84.8374 L -58.4226,-84.6328
 L -58.5438,-84.442 L -58.6879,-84.2678 L -58.8526,-84.1131 L -59.0355,-83.9802 L -59.2336,-83.8713 L -59.4438,-83.7881
 L -59.6627,-83.7319 L -59.887,-83.7036 z
M 59.887,-83.7036 L 59.6627,-83.7319 L 59.4438,-83.7881 L 59.2336,-83.8713 L 59.0355,-83.9802 L 58.8526,-84.1131
 L 58.6879,-84.2678 L 58.5438,-84.442 L 58.4226,-84.6328 L 58.3264,-84.8374 L 58.2565,-85.0524 L 58.2142,-85.2744
 L 58.2,-85.5 L 58.2142,-85.7256 L 58.2565,-85.9476 L 58.3264,-86.1626 L 58.4226,-86.3671 L 58.5438,-86.558
 L 58.6879,-86.7322 L 58.8526,-86.8869 L 59.0355,-87.0198 L 59.2336,-87.1287 L 59.4438,-87.2119 L 59.6627,-87.2681
 L 59.887,-87.2964 L 60.113,-87.2964 L 60.3373,-87.2681 L 60.5562,-87.2119 L 60.7664,-87.1287 L 60.9645,-87.0198
 L 61.1474,-86.8869 L 61.3121,-86.7322 L 61.4562,-86.558 L 61.5773,-86.3671 L 61.6736,-86.1626 L 61.7434,-85.9476
 L 61.7858,-85.7256 L 61.8,-85.5 L 61.7858,-85.2744 L 61.7434,-85.0524 L 61.6736,-84.8374 L 61.5773,-84.6328
 L 61.4562,-84.442 L 61.3121,-84.2678 L 61.1474,-84.1131 L 60.9645,-83.9802 L 60.7664,-83.8713 L 60.5562,-83.7881
 L 60.3373,-83.7319 L 60.113,-83.7036 z
M -60.113,-68.7036 L -60.3373,-68.7319 L -60.5562,-68.7881 L -60.7664,-68.8713 L -60.9645,-68.9802 L -61.1474,-69.1131
 L -61.3121,-69.2678 L -61.4562,-69.442 L -61.5773,-69.6329 L -61.6736,-69.8374 L -61.7434,-70.0524 L -61.7858,-70.2744
 L -61.8,-70.5 L -61.7858,-70.7256 L -61.7434,-70.9476 L -61.6736,-71.1626 L -61.5773,-71.3672 L -61.4562,-71.558
 L -61.3121,-71.7322 L -61.1474,-71.8869 L -60.9645,-72.0198 L -60.7664,-72.1287 L -60.5562,-72.2119 L -60.3373,-72.2681
 L -60.113,-72.2964 L -59.887,-72.2964 L -59.6627,-72.2681 L -59.4438,-72.2119 L -59.2336,-72.1287 L -59.0355,-72.0198
 L -58.8526,-71.8869 L -58.6879,-71.7322 L -58.5438,-71.558 L -58.4226,-71.3672 L -58.3264,-71.1626 L -58.2565,-70.9476
 L -58.2142,-70.7256 L -58.2,-70.5 L -58.2142,-70.2744 L -58.2565,-70.0524 L -58.3264,-69.8374 L -58.4226,-69.6329
 L -58.5438,-69.442 L -58.6879,-69.2678 L -58.8526,-69.1131 L -59.0355,-68.9802 L -59.2336,-68.8713 L -59.4438,-68.7881
 L -59.6627,-68.7319 L -59.887,-68.7036 z
M 59.887,-68.7036 L 59.6627,-68.7319 L 59.4438,-68.7881 L 59.2336,-68.8713 L 59.0355,-68.9802 L 58.8526,-69.1131
 L 58.6879,-69.2678 L 58.5438,-69.442 L 58.4226,-69.6329 L 58.3264,-69.8374 L 58.2565,-70.0524 L 58.2142,-70.2744
 L 58.2,-70.5 L 58.2142,-70.7256 L 58.2565,-70.9476 L 58.3264,-71.1626 L 58.4226,-71.3672 L 58.5438,-71.558
 L 58.6879,-71.7322 L 58.8526,-71.8869 L 59.0355,-72.0198 L 59.2336,-72.1287 L 59.4438,-72.2119 L 59.6627,-72.2681
 L 59.887,-72.2964 L 60.113,-72.2964 L 60.3373,-72.2681 L 60.5562,-72.2119 L 60.7664,-72.1287 L 60.9645,-72.0198
 L 61.1474,-71.8869 L 61.3121,-71.7322 L 61.4562,-71.558 L 61.5773,-71.3672 L 61.6736,-71.1626 L 61.7434,-70.9476
 L 61.7858,-70.7256 L 61.8,-70.5 L 61.7858,-70.2744 L 61.7434,-70.0524 L 61.6736,-69.8374 L 61.5773,-69.6329
 L 61.4562,-69.442 L 61.3121,-69.2678 L 61.1474,-69.1131 L 60.9645,-68.9802 L 60.7664,-68.8713 L 60.5562,-68.7881
 L 60.3373,-68.7319 L 60.113,-68.7036 z
" stroke="black" fill="lightgray" stroke-width="0.5"/>
</svg>
