<?xml version="1.0" standalone="no"?>
<!DOCTYPE svg PUBLIC "-//W3C//DTD SVG 1.1//EN" "http://www.w3.org/Graphics/SVG/1.1/DTD/svg11.dtd">
<svg width="180mm" height="100mm" viewBox="-90 -185 180 100" xmlns="http://www.w3.org/2000/svg" version="1.1">
<title>OpenSCAD Model</title>
<path d="
M 85.9369,-139.589 L 86.5451,-139.745 L 87.1289,-139.976 L 87.6791,-140.278 L 88.1871,-140.647 L 88.6448,-141.077
 L 89.0451,-141.561 L 89.3815,-142.091 L 89.6489,-142.659 L 89.8429,-143.257 L 89.9606,-143.873 L 90,-144.5
 L 90,-179.5 L 89.9606,-180.127 L 89.8429,-180.743 L 89.6489,-181.341 L 89.3815,-181.909 L 89.0451,-182.439
 L 88.6448,-182.923 L 88.1871,-183.353 L 87.6791,-183.722 L 87.1289,-184.024 L 86.5451,-184.255 L 85.9369,-184.411
 L 85.3139,-184.49 L -85.3139,-184.49 L -85.9369,-184.411 L -86.5451,-184.255 L -87.1289,-184.024 L -87.6791,-183.722
 L -88.1871,-183.353 L -88.6448,-182.923 L -89.0451,-182.439 L -89.3815,-181.909 L -89.6489,-181.341 L -89.8429,-180.743
 L -89.9606,-180.127 L -90,-179.5 L -90,-144.5 L -89.9606,-143.873 L -89.8429,-143.257 L -89.6489,-142.659
 L -89.3815,-142.091 L -89.0451,-141.561 L -88.6448,-141.077 L -88.1871,-140.647 L -87.6791,-140.278 L -87.1289,-139.976
 L -86.5451,-139.745 L -85.9369,-139.589 L -85.3139,-139.51 L 85.3139,-139.51 z
M -85.0375,-140.181 L -85.6079,-140.253 L -86.1648,-140.396 L -86.6994,-140.607 L -87.2032,-140.884 L -87.6684,-141.222
 L -88.0875,-141.616 L -88.454,-142.059 L -88.7621,-142.544 L -89.0069,-143.065 L -89.1846,-143.611 L -89.2923,-144.176
 L -89.3284,-144.75 L -89.3284,-179.25 L -89.2923,-179.824 L -89.1846,-180.389 L -89.0069,-180.935 L -88.7621,-181.456
 L -88.454,-181.941 L -88.0875,-182.384 L -87.6684,-182.778 L -87.2032,-183.116 L -86.6994,-183.393 L -86.1648,-183.604
 L -85.6079,-183.747 L -85.0375,-183.819 L 85.0375,-183.819 L 85.6079,-183.747 L 86.1648,-183.604 L 86.6994,-183.393
 L 87.2032,-183.116 L 87.6684,-182.778 L 88.0875,-182.384 L 88.454,-181.941 L 88.7621,-181.456 L 89.0069,-180.935
 L 89.1846,-180.389 L 89.2923,-179.824 L 89.3284,-179.25 L 89.3284,-144.75 L 89.2923,-144.176 L 89.1846,-143.611
 L 89.0069,-143.065 L 88.7621,-142.544 L 88.454,-142.059 L 88.0875,-141.616 L 87.6684,-141.222 L 87.2032,-140.884
 L 86.6994,-140.607 L 86.1648,-140.396 L 85.6079,-140.253 L 85.0375,-140.181 z
M 85.9369,-85.5886 L 86.5451,-85.7447 L 87.1289,-85.9759 L 87.6791,-86.2784 L 88.1871,-86.6474 L 88.6448,-87.0773
 L 89.0451,-87.5611 L 89.3815,-88.0912 L 89.6489,-88.6594 L 89.8429,-89.2566 L 89.9606,-89.8733 L 90,-90.5
 L 90,-125.5 L 89.9606,-126.127 L 89.8429,-126.743 L 89.6489,-127.341 L 89.3815,-127.909 L 89.0451,-128.439
 L 88.6448,-128.923 L 88.1871,-129.353 L 87.6791,-129.722 L 87.1289,-130.024 L 86.5451,-130.255 L 85.9369,-130.411
 L 85.3139,-130.49 L -85.3139,-130.49 L -85.9369,-130.411 L -86.5451,-130.255 L -87.1289,-130.024 L -87.6791,-129.722
 L -88.1871,-129.353 L -88.6448,-128.923 L -89.0451,-128.439 L -89.3815,-127.909 L -89.6489,-127.341 L -89.8429,-126.743
 L -89.9606,-126.127 L -90,-125.5 L -90,-90.5 L -89.9606,-89.8733 L -89.8429,-89.2566 L -89.6489,-88.6594
 L -89.3815,-88.0912 L -89.0451,-87.5611 L -88.6448,-87.0773 L -88.1871,-86.6474 L -87.6791,-86.2784 L -87.1289,-85.9759
 L -86.5451,-85.7447 L -85.9369,-85.5886 L -85.3139,-85.5099 L 85.3139,-85.5099 z
M -84.8825,-88.6445 L -85.1453,-88.6777 L -85.4019,-88.7436 L -85.6482,-88.8412 L -85.8804,-88.9688 L -86.0947,-89.1245
 L -86.2879,-89.3059 L -86.4567,-89.51 L -86.5987,-89.7337 L -86.7115,-89.9734 L -86.7934,-90.2254 L -86.843,-90.4856
 L -86.8596,-90.75 L -86.8596,-125.25 L -86.843,-125.514 L -86.7934,-125.775 L -86.7115,-126.027 L -86.5987,-126.266
 L -86.4567,-126.49 L -86.2879,-126.694 L -86.0947,-126.875 L -85.8804,-127.031 L -85.6482,-127.159 L -85.4019,-127.256
 L -85.1453,-127.322 L -84.8825,-127.355 L 84.8825,-127.355 L 85.1453,-127.322 L 85.4019,-127.256 L 85.6482,-127.159
 L 85.8804,-127.031 L 86.0947,-126.875 L 86.2879,-126.694 L 86.4567,-126.49 L 86.5987,-126.266 L 86.7115,-126.027
 L 86.7934,-125.775 L 86.843,-125.514 L 86.8596,-125.25 L 86.8596,-90.75 L 86.843,-90.4856 L 86.7934,-90.2254
 L 86.7115,-89.9734 L 86.5987,-89.7337 L 86.4567,-89.51 L 86.2879,-89.3059 L 86.0947,-89.1245 L 85.8804,-88.9688
 L 85.6482,-88.8412 L 85.4019,-88.7436 L 85.1453,-88.6777 L 84.8825,-88.6445 z
" stroke="black" fill="lightgray" stroke-width="0.5"/>
</svg>
