<?xml version="1.0" standalone="no"?>
<!DOCTYPE svg PUBLIC "-//W3C//DTD SVG 1.1//EN" "http://www.w3.org/Graphics/SVG/1.1/DTD/svg11.dtd">
<svg width="120mm" height="64mm" viewBox="-60 -128 120 64" xmlns="http://www.w3.org/2000/svg" version="1.1">
<title>OpenSCAD Model</title>
<path d="
M 55.9369,-112.589 L 56.5451,-112.745 L 57.1289,-112.976 L 57.6791,-113.278 L 58.1871,-113.647 L 58.6448,-114.077
 L 59.0451,-114.561 L 59.3815,-115.091 L 59.6489,-115.659 L 59.8429,-116.257 L 59.9606,-116.873 L 60,-117.5
 L 60,-122.5 L 59.9606,-123.127 L 59.8429,-123.743 L 59.6489,-124.341 L 59.3815,-124.909 L 59.0451,-125.439
 L 58.6448,-125.923 L 58.1871,-126.353 L 57.6791,-126.722 L 57.1289,-127.024 L 56.5451,-127.255 L 55.9369,-127.411
 L 55.3139,-127.49 L -55.3139,-127.49 L -55.9369,-127.411 L -56.5451,-127.255 L -57.1289,-127.024 L -57.6791,-126.722
 L -58.1871,-126.353 L -58.6448,-125.923 L -59.0451,-125.439 L -59.3815,-124.909 L -59.6489,-124.341 L -59.8429,-123.743
 L -59.9606,-123.127 L -60,-122.5 L -60,-117.5 L -59.9606,-116.873 L -59.8429,-116.257 L -59.6489,-115.659
 L -59.3815,-115.091 L -59.0451,-114.561 L -58.6448,-114.077 L -58.1871,-113.647 L -57.6791,-113.278 L -57.1289,-112.976
 L -56.5451,-112.745 L -55.9369,-112.589 L -55.3139,-112.51 L 55.3139,-112.51 z
M -55.0482,-113.009 L -55.6401,-113.084 L -56.2178,-113.232 L -56.7724,-113.452 L -57.2952,-113.739 L -57.7778,-114.09
 L -58.2126,-114.498 L -58.5928,-114.958 L -58.9124,-115.462 L -59.1664,-116.001 L -59.3508,-116.569 L -59.4625,-117.155
 L -59.5,-117.75 L -59.5,-122.25 L -59.4625,-122.845 L -59.3508,-123.431 L -59.1664,-123.999 L -58.9124,-124.538
 L -58.5928,-125.042 L -58.2126,-125.502 L -57.7778,-125.91 L -57.2952,-126.261 L -56.7724,-126.548 L -56.2178,-126.768
 L -55.6401,-126.916 L -55.0482,-126.991 L 55.0482,-126.991 L 55.6401,-126.916 L 56.2178,-126.768 L 56.7724,-126.548
 L 57.2952,-126.261 L 57.7778,-125.91 L 58.2126,-125.502 L 58.5928,-125.042 L 58.9124,-124.538 L 59.1664,-123.999
 L 59.3508,-123.431 L 59.4625,-122.845 L 59.5,-122.25 L 59.5,-117.75 L 59.4625,-117.155 L 59.3508,-116.569
 L 59.1664,-116.001 L 58.9124,-115.462 L 58.5928,-114.958 L 58.2126,-114.498 L 57.7778,-114.09 L 57.2952,-113.739
 L 56.7724,-113.452 L 56.2178,-113.232 L 55.6401,-113.084 L 55.0482,-113.009 z
M 55.9369,-88.5886 L 56.5451,-88.7447 L 57.1289,-88.9759 L 57.6791,-89.2784 L 58.1871,-89.6474 L 58.6448,-90.0773
 L 59.0451,-90.5611 L 59.3815,-91.0912 L 59.6489,-91.6594 L 59.8429,-92.2566 L 59.9606,-92.8733 L 60,-93.5
 L 60,-98.5 L 59.9606,-99.1267 L 59.8429,-99.7434 L 59.6489,-100.341 L 59.3815,-100.909 L 59.0451,-101.439
 L 58.6448,-101.923 L 58.1871,-102.353 L 57.6791,-102.722 L 57.1289,-103.024 L 56.5451,-103.255 L 55.9369,-103.411
 L 55.3139,-103.49 L -55.3139,-103.49 L -55.9369,-103.411 L -56.5451,-103.255 L -57.1289,-103.024 L -57.6791,-102.722
 L -58.1871,-102.353 L -58.6448,-101.923 L -59.0451,-101.439 L -59.3815,-100.909 L -59.6489,-100.341 L -59.8429,-99.7434
 L -59.9606,-99.1267 L -60,-98.5 L -60,-93.5 L -59.9606,-92.8733 L -59.8429,-92.2566 L -59.6489,-91.6594
 L -59.3815,-91.0912 L -59.0451,-90.5611 L -58.6448,-90.0773 L -58.1871,-89.6474 L -57.6791,-89.2784 L -57.1289,-88.9759
 L -56.5451,-88.7447 L -55.9369,-88.5886 L -55.3139,-88.5099 L 55.3139,-88.5099 z
M -55.0375,-89.1806 L -55.6079,-89.2527 L -56.1648,-89.3956 L -56.6994,-89.6073 L -57.2032,-89.8843 L -57.6684,-90.2223
 L -58.0875,-90.6158 L -58.454,-91.0589 L -58.7621,-91.5443 L -59.0069,-92.0646 L -59.1846,-92.6114 L -59.2923,-93.1762
 L -59.3284,-93.75 L -59.3284,-98.25 L -59.2923,-98.8238 L -59.1846,-99.3886 L -59.0069,-99.9354 L -58.7621,-100.456
 L -58.454,-100.941 L -58.0875,-101.384 L -57.6684,-101.778 L -57.2032,-102.116 L -56.6994,-102.393 L -56.1648,-102.604
 L -55.6079,-102.747 L -55.0375,-102.819 L 55.0375,-102.819 L 55.6079,-102.747 L 56.1648,-102.604 L 56.6994,-102.393
 L 57.2032,-102.116 L 57.6684,-101.778 L 58.0875,-101.384 L 58.454,-100.941 L 58.7621,-100.456 L 59.0069,-99.9354
 L 59.1846,-99.3886 L 59.2923,-98.8238 L 59.3284,-98.25 L 59.3284,-93.75 L 59.2923,-93.1762 L 59.1846,-92.6114
 L 59.0069,-92.0646 L 58.7621,-91.5443 L 58.454,-91.0589 L 58.0875,-90.6158 L 57.6684,-90.2223 L 57.2032,-89.8843
 L 56.6994,-89.6073 L 56.1648,-89.3956 L 55.6079,-89.2527 L 55.0375,-89.1806 z
M 55.9369,-64.5886 L 56.5451,-64.7447 L 57.1289,-64.9759 L 57.6791,-65.2784 L 58.1871,-65.6474 L 58.6448,-66.0773
 L 59.0451,-66.5611 L 59.3815,-67.0912 L 59.6489,-67.6594 L 59.8429,-68.2566 L 59.9606,-68.8733 L 60,-69.5
 L 60,-74.5 L 59.9606,-75.1267 L 59.8429,-75.7434 L 59.6489,-76.3406 L 59.3815,-76.9088 L 59.0451,-77.4389
 L 58.6448,-77.9227 L 58.1871,-78.3526 L 57.6791,-78.7216 L 57.1289,-79.0241 L 56.5451,-79.2553 L 55.9369,-79.4114
 L 55.3139,-79.4901 L -55.3139,-79.4901 L -55.9369,-79.4114 L -56.5451,-79.2553 L -57.1289,-79.0241 L -57.6791,-78.7216
 L -58.1871,-78.3526 L -58.6448,-77.9227 L -59.0451,-77.4389 L -59.3815,-76.9088 L -59.6489,-76.3406 L -59.8429,-75.7434
 L -59.9606,-75.1267 L -60,-74.5 L -60,-69.5 L -59.9606,-68.8733 L -59.8429,-68.2566 L -59.6489,-67.6594
 L -59.3815,-67.0912 L -59.0451,-66.5611 L -58.6448,-66.0773 L -58.1871,-65.6474 L -57.6791,-65.2784 L -57.1289,-64.9759
 L -56.5451,-64.7447 L -55.9369,-64.5886 L -55.3139,-64.5099 L 55.3139,-64.5099 z
M -54.8825,-67.6445 L -55.1453,-67.6777 L -55.4019,-67.7436 L -55.6482,-67.8412 L -55.8804,-67.9688 L -56.0947,-68.1245
 L -56.2879,-68.3059 L -56.4567,-68.51 L -56.5987,-68.7337 L -56.7115,-68.9734 L -56.7934,-69.2254 L -56.843,-69.4856
 L -56.8596,-69.75 L -56.8596,-74.25 L -56.843,-74.5144 L -56.7934,-74.7746 L -56.7115,-75.0266 L -56.5987,-75.2663
 L -56.4567,-75.49 L -56.2879,-75.6941 L -56.0947,-75.8755 L -55.8804,-76.0312 L -55.6482,-76.1588 L -55.4019,-76.2564
 L -55.1453,-76.3223 L -54.8825,-76.3555 L 54.8825,-76.3555 L 55.1453,-76.3223 L 55.4019,-76.2564 L 55.6482,-76.1588
 L 55.8804,-76.0312 L 56.0947,-75.8755 L 56.2879,-75.6941 L 56.4567,-75.49 L 56.5987,-75.2663 L 56.7115,-75.0266
 L 56.7934,-74.7746 L 56.843,-74.5144 L 56.8596,-74.25 L 56.8596,-69.75 L 56.843,-69.4856 L 56.7934,-69.2254
 L 56.7115,-68.9734 L 56.5987,-68.7337 L 56.4567,-68.51 L 56.2879,-68.3059 L 56.0947,-68.1245 L 55.8804,-67.9688
 L 55.6482,-67.8412 L 55.4019,-67.7436 L 55.1453,-67.6777 L 54.8825,-67.6445 z
" stroke="black" fill="lightgray" stroke-width="0.5"/>
</svg>
