  0
SECTION
  2
BLOCKS
  0
ENDSEC
  0
SECTION
  2
ENTITIES
  0
LINE
  8
0
 10
3.4369
 20
64.5886
 11
4.04507
 21
64.7447
  0
LINE
  8
0
 10
4.04507
 20
64.7447
 11
4.62889
 21
64.9759
  0
LINE
  8
0
 10
4.62889
 20
64.9759
 11
5.17912
 21
65.2784
  0
LINE
  8
0
 10
5.17912
 20
65.2784
 11
5.68712
 21
65.6474
  0
LINE
  8
0
 10
5.68712
 20
65.6474
 11
6.14484
 21
66.0773
  0
LINE
  8
0
 10
6.14484
 20
66.0773
 11
6.54507
 21
66.5611
  0
LINE
  8
0
 10
6.54507
 20
66.5611
 11
6.88153
 21
67.0912
  0
LINE
  8
0
 10
6.88153
 20
67.0912
 11
7.14888
 21
67.6594
  0
LINE
  8
0
 10
7.14888
 20
67.6594
 11
7.34291
 21
68.2566
  0
LINE
  8
0
 10
7.34291
 20
68.2566
 11
7.46057
 21
68.8733
  0
LINE
  8
0
 10
7.46057
 20
68.8733
 11
7.5
 21
69.5
  0
LINE
  8
0
 10
7.5
 20
69.5
 11
7.5
 21
74.5
  0
LINE
  8
0
 10
7.5
 20
74.5
 11
7.46057
 21
75.1267
  0
LINE
  8
0
 10
7.46057
 20
75.1267
 11
7.34291
 21
75.7434
  0
LINE
  8
0
 10
7.34291
 20
75.7434
 11
7.14888
 21
76.3406
  0
LINE
  8
0
 10
7.14888
 20
76.3406
 11
6.88153
 21
76.9088
  0
LINE
  8
0
 10
6.88153
 20
76.9088
 11
6.54507
 21
77.4389
  0
LINE
  8
0
 10
6.54507
 20
77.4389
 11
6.14484
 21
77.9227
  0
LINE
  8
0
 10
6.14484
 20
77.9227
 11
5.68712
 21
78.3526
  0
LINE
  8
0
 10
5.68712
 20
78.3526
 11
5.17912
 21
78.7216
  0
LINE
  8
0
 10
5.17912
 20
78.7216
 11
4.62889
 21
79.0241
  0
LINE
  8
0
 10
4.62889
 20
79.0241
 11
4.04507
 21
79.2553
  0
LINE
  8
0
 10
4.04507
 20
79.2553
 11
3.4369
 21
79.4114
  0
LINE
  8
0
 10
3.4369
 20
79.4114
 11
2.81395
 21
79.4901
  0
LINE
  8
0
 10
2.81395
 20
79.4901
 11
-2.81395
 21
79.4901
  0
LINE
  8
0
 10
-2.81395
 20
79.4901
 11
-3.4369
 21
79.4114
  0
LINE
  8
0
 10
-3.4369
 20
79.4114
 11
-4.04507
 21
79.2553
  0
LINE
  8
0
 10
-4.04507
 20
79.2553
 11
-4.62889
 21
79.0241
  0
LINE
  8
0
 10
-4.62889
 20
79.0241
 11
-5.17912
 21
78.7216
  0
LINE
  8
0
 10
-5.17912
 20
78.7216
 11
-5.68712
 21
78.3526
  0
LINE
  8
0
 10
-5.68712
 20
78.3526
 11
-6.14484
 21
77.9227
  0
LINE
  8
0
 10
-6.14484
 20
77.9227
 11
-6.54507
 21
77.4389
  0
LINE
  8
0
 10
-6.54507
 20
77.4389
 11
-6.88153
 21
76.9088
  0
LINE
  8
0
 10
-6.88153
 20
76.9088
 11
-7.14888
 21
76.3406
  0
LINE
  8
0
 10
-7.14888
 20
76.3406
 11
-7.34291
 21
75.7434
  0
LINE
  8
0
 10
-7.34291
 20
75.7434
 11
-7.46057
 21
75.1267
  0
LINE
  8
0
 10
-7.46057
 20
75.1267
 11
-7.5
 21
74.5
  0
LINE
  8
0
 10
-7.5
 20
74.5
 11
-7.5
 21
69.5
  0
LINE
  8
0
 10
-7.5
 20
69.5
 11
-7.46057
 21
68.8733
  0
LINE
  8
0
 10
-7.46057
 20
68.8733
 11
-7.34291
 21
68.2566
  0
LINE
  8
0
 10
-7.34291
 20
68.2566
 11
-7.14888
 21
67.6594
  0
LINE
  8
0
 10
-7.14888
 20
67.6594
 11
-6.88153
 21
67.0912
  0
LINE
  8
0
 10
-6.88153
 20
67.0912
 11
-6.54507
 21
66.5611
  0
LINE
  8
0
 10
-6.54507
 20
66.5611
 11
-6.14484
 21
66.0773
  0
LINE
  8
0
 10
-6.14484
 20
66.0773
 11
-5.68712
 21
65.6474
  0
LINE
  8
0
 10
-5.68712
 20
65.6474
 11
-5.17912
 21
65.2784
  0
LINE
  8
0
 10
-5.17912
 20
65.2784
 11
-4.62889
 21
64.9759
  0
LINE
  8
0
 10
-4.62889
 20
64.9759
 11
-4.04507
 21
64.7447
  0
LINE
  8
0
 10
-4.04507
 20
64.7447
 11
-3.4369
 21
64.5886
  0
LINE
  8
0
 10
-3.4369
 20
64.5886
 11
-2.81395
 21
64.5099
  0
LINE
  8
0
 10
-2.81395
 20
64.5099
 11
2.81395
 21
64.5099
  0
LINE
  8
0
 10
2.81395
 20
64.5099
 11
3.4369
 21
64.5886
  0
LINE
  8
0
 10
-2.53748
 20
65.1806
 11
-3.10791
 21
65.2527
  0
LINE
  8
0
 10
-3.10791
 20
65.2527
 11
-3.66481
 21
65.3956
  0
LINE
  8
0
 10
-3.66481
 20
65.3956
 11
-4.1994
 21
65.6073
  0
LINE
  8
0
 10
-4.1994
 20
65.6073
 11
-4.70325
 21
65.8843
  0
LINE
  8
0
 10
-4.70325
 20
65.8843
 11
-5.1684
 21
66.2223
  0
LINE
  8
0
 10
-5.1684
 20
66.2223
 11
-5.58754
 21
66.6158
  0
LINE
  8
0
 10
-5.58754
 20
66.6158
 11
-5.95403
 21
67.0589
  0
LINE
  8
0
 10
-5.95403
 20
67.0589
 11
-6.26212
 21
67.5443
  0
LINE
  8
0
 10
-6.26212
 20
67.5443
 11
-6.50691
 21
68.0646
  0
LINE
  8
0
 10
-6.50691
 20
68.0646
 11
-6.68459
 21
68.6114
  0
LINE
  8
0
 10
-6.68459
 20
68.6114
 11
-6.79233
 21
69.1762
  0
LINE
  8
0
 10
-6.79233
 20
69.1762
 11
-6.82843
 21
69.75
  0
LINE
  8
0
 10
-6.82843
 20
69.75
 11
-6.82843
 21
74.25
  0
LINE
  8
0
 10
-6.82843
 20
74.25
 11
-6.79233
 21
74.8238
  0
LINE
  8
0
 10
-6.79233
 20
74.8238
 11
-6.68459
 21
75.3886
  0
LINE
  8
0
 10
-6.68459
 20
75.3886
 11
-6.50691
 21
75.9354
  0
LINE
  8
0
 10
-6.50691
 20
75.9354
 11
-6.26212
 21
76.4557
  0
LINE
  8
0
 10
-6.26212
 20
76.4557
 11
-5.95403
 21
76.9411
  0
LINE
  8
0
 10
-5.95403
 20
76.9411
 11
-5.58754
 21
77.3842
  0
LINE
  8
0
 10
-5.58754
 20
77.3842
 11
-5.1684
 21
77.7777
  0
LINE
  8
0
 10
-5.1684
 20
77.7777
 11
-4.70325
 21
78.1157
  0
LINE
  8
0
 10
-4.70325
 20
78.1157
 11
-4.1994
 21
78.3927
  0
LINE
  8
0
 10
-4.1994
 20
78.3927
 11
-3.66481
 21
78.6044
  0
LINE
  8
0
 10
-3.66481
 20
78.6044
 11
-3.10791
 21
78.7473
  0
LINE
  8
0
 10
-3.10791
 20
78.7473
 11
-2.53748
 21
78.8194
  0
LINE
  8
0
 10
-2.53748
 20
78.8194
 11
2.53748
 21
78.8194
  0
LINE
  8
0
 10
2.53748
 20
78.8194
 11
3.10791
 21
78.7473
  0
LINE
  8
0
 10
3.10791
 20
78.7473
 11
3.66481
 21
78.6044
  0
LINE
  8
0
 10
3.66481
 20
78.6044
 11
4.1994
 21
78.3927
  0
LINE
  8
0
 10
4.1994
 20
78.3927
 11
4.70325
 21
78.1157
  0
LINE
  8
0
 10
4.70325
 20
78.1157
 11
5.1684
 21
77.7777
  0
LINE
  8
0
 10
5.1684
 20
77.7777
 11
5.58754
 21
77.3842
  0
LINE
  8
0
 10
5.58754
 20
77.3842
 11
5.95403
 21
76.9411
  0
LINE
  8
0
 10
5.95403
 20
76.9411
 11
6.26212
 21
76.4557
  0
LINE
  8
0
 10
6.26212
 20
76.4557
 11
6.50691
 21
75.9354
  0
LINE
  8
0
 10
6.50691
 20
75.9354
 11
6.68459
 21
75.3886
  0
LINE
  8
0
 10
6.68459
 20
75.3886
 11
6.79233
 21
74.8238
  0
LINE
  8
0
 10
6.79233
 20
74.8238
 11
6.82843
 21
74.25
  0
LINE
  8
0
 10
6.82843
 20
74.25
 11
6.82843
 21
69.75
  0
LINE
  8
0
 10
6.82843
 20
69.75
 11
6.79233
 21
69.1762
  0
LINE
  8
0
 10
6.79233
 20
69.1762
 11
6.68459
 21
68.6114
  0
LINE
  8
0
 10
6.68459
 20
68.6114
 11
6.50691
 21
68.0646
  0
LINE
  8
0
 10
6.50691
 20
68.0646
 11
6.26212
 21
67.5443
  0
LINE
  8
0
 10
6.26212
 20
67.5443
 11
5.95403
 21
67.0589
  0
LINE
  8
0
 10
5.95403
 20
67.0589
 11
5.58754
 21
66.6158
  0
LINE
  8
0
 10
5.58754
 20
66.6158
 11
5.1684
 21
66.2223
  0
LINE
  8
0
 10
5.1684
 20
66.2223
 11
4.70325
 21
65.8843
  0
LINE
  8
0
 10
4.70325
 20
65.8843
 11
4.1994
 21
65.6073
  0
LINE
  8
0
 10
4.1994
 20
65.6073
 11
3.66481
 21
65.3956
  0
LINE
  8
0
 10
3.66481
 20
65.3956
 11
3.10791
 21
65.2527
  0
LINE
  8
0
 10
3.10791
 20
65.2527
 11
2.53748
 21
65.1806
  0
LINE
  8
0
 10
2.53748
 20
65.1806
 11
-2.53748
 21
65.1806
  0
LINE
  8
0
 10
3.4369
 20
40.5886
 11
4.04507
 21
40.7447
  0
LINE
  8
0
 10
4.04507
 20
40.7447
 11
4.62889
 21
40.9759
  0
LINE
  8
0
 10
4.62889
 20
40.9759
 11
5.17912
 21
41.2784
  0
LINE
  8
0
 10
5.17912
 20
41.2784
 11
5.68712
 21
41.6474
  0
LINE
  8
0
 10
5.68712
 20
41.6474
 11
6.14484
 21
42.0773
  0
LINE
  8
0
 10
6.14484
 20
42.0773
 11
6.54507
 21
42.5611
  0
LINE
  8
0
 10
6.54507
 20
42.5611
 11
6.88153
 21
43.0912
  0
LINE
  8
0
 10
6.88153
 20
43.0912
 11
7.14888
 21
43.6594
  0
LINE
  8
0
 10
7.14888
 20
43.6594
 11
7.34291
 21
44.2566
  0
LINE
  8
0
 10
7.34291
 20
44.2566
 11
7.46057
 21
44.8733
  0
LINE
  8
0
 10
7.46057
 20
44.8733
 11
7.5
 21
45.5
  0
LINE
  8
0
 10
7.5
 20
45.5
 11
7.5
 21
50.5
  0
LINE
  8
0
 10
7.5
 20
50.5
 11
7.46057
 21
51.1267
  0
LINE
  8
0
 10
7.46057
 20
51.1267
 11
7.34291
 21
51.7434
  0
LINE
  8
0
 10
7.34291
 20
51.7434
 11
7.14888
 21
52.3406
  0
LINE
  8
0
 10
7.14888
 20
52.3406
 11
6.88153
 21
52.9088
  0
LINE
  8
0
 10
6.88153
 20
52.9088
 11
6.54507
 21
53.4389
  0
LINE
  8
0
 10
6.54507
 20
53.4389
 11
6.14484
 21
53.9227
  0
LINE
  8
0
 10
6.14484
 20
53.9227
 11
5.68712
 21
54.3526
  0
LINE
  8
0
 10
5.68712
 20
54.3526
 11
5.17912
 21
54.7216
  0
LINE
  8
0
 10
5.17912
 20
54.7216
 11
4.62889
 21
55.0241
  0
LINE
  8
0
 10
4.62889
 20
55.0241
 11
4.04507
 21
55.2553
  0
LINE
  8
0
 10
4.04507
 20
55.2553
 11
3.4369
 21
55.4114
  0
LINE
  8
0
 10
3.4369
 20
55.4114
 11
2.81395
 21
55.4901
  0
LINE
  8
0
 10
2.81395
 20
55.4901
 11
-2.81395
 21
55.4901
  0
LINE
  8
0
 10
-2.81395
 20
55.4901
 11
-3.4369
 21
55.4114
  0
LINE
  8
0
 10
-3.4369
 20
55.4114
 11
-4.04507
 21
55.2553
  0
LINE
  8
0
 10
-4.04507
 20
55.2553
 11
-4.62889
 21
55.0241
  0
LINE
  8
0
 10
-4.62889
 20
55.0241
 11
-5.17912
 21
54.7216
  0
LINE
  8
0
 10
-5.17912
 20
54.7216
 11
-5.68712
 21
54.3526
  0
LINE
  8
0
 10
-5.68712
 20
54.3526
 11
-6.14484
 21
53.9227
  0
LINE
  8
0
 10
-6.14484
 20
53.9227
 11
-6.54507
 21
53.4389
  0
LINE
  8
0
 10
-6.54507
 20
53.4389
 11
-6.88153
 21
52.9088
  0
LINE
  8
0
 10
-6.88153
 20
52.9088
 11
-7.14888
 21
52.3406
  0
LINE
  8
0
 10
-7.14888
 20
52.3406
 11
-7.34291
 21
51.7434
  0
LINE
  8
0
 10
-7.34291
 20
51.7434
 11
-7.46057
 21
51.1267
  0
LINE
  8
0
 10
-7.46057
 20
51.1267
 11
-7.5
 21
50.5
  0
LINE
  8
0
 10
-7.5
 20
50.5
 11
-7.5
 21
45.5
  0
LINE
  8
0
 10
-7.5
 20
45.5
 11
-7.46057
 21
44.8733
  0
LINE
  8
0
 10
-7.46057
 20
44.8733
 11
-7.34291
 21
44.2566
  0
LINE
  8
0
 10
-7.34291
 20
44.2566
 11
-7.14888
 21
43.6594
  0
LINE
  8
0
 10
-7.14888
 20
43.6594
 11
-6.88153
 21
43.0912
  0
LINE
  8
0
 10
-6.88153
 20
43.0912
 11
-6.54507
 21
42.5611
  0
LINE
  8
0
 10
-6.54507
 20
42.5611
 11
-6.14484
 21
42.0773
  0
LINE
  8
0
 10
-6.14484
 20
42.0773
 11
-5.68712
 21
41.6474
  0
LINE
  8
0
 10
-5.68712
 20
41.6474
 11
-5.17912
 21
41.2784
  0
LINE
  8
0
 10
-5.17912
 20
41.2784
 11
-4.62889
 21
40.9759
  0
LINE
  8
0
 10
-4.62889
 20
40.9759
 11
-4.04507
 21
40.7447
  0
LINE
  8
0
 10
-4.04507
 20
40.7447
 11
-3.4369
 21
40.5886
  0
LINE
  8
0
 10
-3.4369
 20
40.5886
 11
-2.81395
 21
40.5099
  0
LINE
  8
0
 10
-2.81395
 20
40.5099
 11
2.81395
 21
40.5099
  0
LINE
  8
0
 10
2.81395
 20
40.5099
 11
3.4369
 21
40.5886
  0
LINE
  8
0
 10
-2.38246
 20
43.6445
 11
-2.64529
 21
43.6777
  0
LINE
  8
0
 10
-2.64529
 20
43.6777
 11
-2.9019
 21
43.7436
  0
LINE
  8
0
 10
-2.9019
 20
43.7436
 11
-3.14822
 21
43.8412
  0
LINE
  8
0
 10
-3.14822
 20
43.8412
 11
-3.38039
 21
43.9688
  0
LINE
  8
0
 10
-3.38039
 20
43.9688
 11
-3.59473
 21
44.1245
  0
LINE
  8
0
 10
-3.59473
 20
44.1245
 11
-3.78784
 21
44.3059
  0
LINE
  8
0
 10
-3.78784
 20
44.3059
 11
-3.95673
 21
44.51
  0
LINE
  8
0
 10
-3.95673
 20
44.51
 11
-4.09868
 21
44.7337
  0
LINE
  8
0
 10
-4.09868
 20
44.7337
 11
-4.21149
 21
44.9734
  0
LINE
  8
0
 10
-4.21149
 20
44.9734
 11
-4.29335
 21
45.2254
  0
LINE
  8
0
 10
-4.29335
 20
45.2254
 11
-4.34299
 21
45.4856
  0
LINE
  8
0
 10
-4.34299
 20
45.4856
 11
-4.35962
 21
45.75
  0
LINE
  8
0
 10
-4.35962
 20
45.75
 11
-4.35962
 21
50.25
  0
LINE
  8
0
 10
-4.35962
 20
50.25
 11
-4.34299
 21
50.5144
  0
LINE
  8
0
 10
-4.34299
 20
50.5144
 11
-4.29335
 21
50.7746
  0
LINE
  8
0
 10
-4.29335
 20
50.7746
 11
-4.21149
 21
51.0266
  0
LINE
  8
0
 10
-4.21149
 20
51.0266
 11
-4.09868
 21
51.2663
  0
LINE
  8
0
 10
-4.09868
 20
51.2663
 11
-3.95673
 21
51.49
  0
LINE
  8
0
 10
-3.95673
 20
51.49
 11
-3.78784
 21
51.6941
  0
LINE
  8
0
 10
-3.78784
 20
51.6941
 11
-3.59473
 21
51.8755
  0
LINE
  8
0
 10
-3.59473
 20
51.8755
 11
-3.38039
 21
52.0312
  0
LINE
  8
0
 10
-3.38039
 20
52.0312
 11
-3.14822
 21
52.1588
  0
LINE
  8
0
 10
-3.14822
 20
52.1588
 11
-2.9019
 21
52.2564
  0
LINE
  8
0
 10
-2.9019
 20
52.2564
 11
-2.64529
 21
52.3223
  0
LINE
  8
0
 10
-2.64529
 20
52.3223
 11
-2.38246
 21
52.3555
  0
LINE
  8
0
 10
-2.38246
 20
52.3555
 11
2.38246
 21
52.3555
  0
LINE
  8
0
 10
2.38246
 20
52.3555
 11
2.64529
 21
52.3223
  0
LINE
  8
0
 10
2.64529
 20
52.3223
 11
2.9019
 21
52.2564
  0
LINE
  8
0
 10
2.9019
 20
52.2564
 11
3.14822
 21
52.1588
  0
LINE
  8
0
 10
3.14822
 20
52.1588
 11
3.38039
 21
52.0312
  0
LINE
  8
0
 10
3.38039
 20
52.0312
 11
3.59473
 21
51.8755
  0
LINE
  8
0
 10
3.59473
 20
51.8755
 11
3.78784
 21
51.6941
  0
LINE
  8
0
 10
3.78784
 20
51.6941
 11
3.95673
 21
51.49
  0
LINE
  8
0
 10
3.95673
 20
51.49
 11
4.09868
 21
51.2663
  0
LINE
  8
0
 10
4.09868
 20
51.2663
 11
4.21149
 21
51.0266
  0
LINE
  8
0
 10
4.21149
 20
51.0266
 11
4.29335
 21
50.7746
  0
LINE
  8
0
 10
4.29335
 20
50.7746
 11
4.34299
 21
50.5144
  0
LINE
  8
0
 10
4.34299
 20
50.5144
 11
4.35962
 21
50.25
  0
LINE
  8
0
 10
4.35962
 20
50.25
 11
4.35962
 21
45.75
  0
LINE
  8
0
 10
4.35962
 20
45.75
 11
4.34299
 21
45.4856
  0
LINE
  8
0
 10
4.34299
 20
45.4856
 11
4.29335
 21
45.2254
  0
LINE
  8
0
 10
4.29335
 20
45.2254
 11
4.21149
 21
44.9734
  0
LINE
  8
0
 10
4.21149
 20
44.9734
 11
4.09868
 21
44.7337
  0
LINE
  8
0
 10
4.09868
 20
44.7337
 11
3.95673
 21
44.51
  0
LINE
  8
0
 10
3.95673
 20
44.51
 11
3.78784
 21
44.3059
  0
LINE
  8
0
 10
3.78784
 20
44.3059
 11
3.59473
 21
44.1245
  0
LINE
  8
0
 10
3.59473
 20
44.1245
 11
3.38039
 21
43.9688
  0
LINE
  8
0
 10
3.38039
 20
43.9688
 11
3.14822
 21
43.8412
  0
LINE
  8
0
 10
3.14822
 20
43.8412
 11
2.9019
 21
43.7436
  0
LINE
  8
0
 10
2.9019
 20
43.7436
 11
2.64529
 21
43.6777
  0
LINE
  8
0
 10
2.64529
 20
43.6777
 11
2.38246
 21
43.6445
  0
LINE
  8
0
 10
2.38246
 20
43.6445
 11
-2.38246
 21
43.6445
  0
ENDSEC
  0
SECTION
  2
OBJECTS
  0
DICTIONARY
  0
ENDSEC
  0
EOF
