<?xml version="1.0" standalone="no"?>
<!DOCTYPE svg PUBLIC "-//W3C//DTD SVG 1.1//EN" "http://www.w3.org/Graphics/SVG/1.1/DTD/svg11.dtd">
<svg width="46mm" height="288mm" viewBox="-23 -540 46 288" xmlns="http://www.w3.org/2000/svg" version="1.1">
<title>OpenSCAD Model</title>
<path d="
M 18.4369,-450.089 L 19.0451,-450.245 L 19.6289,-450.476 L 20.1791,-450.778 L 20.6871,-451.147 L 21.1448,-451.577
 L 21.5451,-452.061 L 21.8815,-452.591 L 22.1489,-453.159 L 22.3429,-453.757 L 22.4606,-454.373 L 22.5,-455
 L 22.5,-535 L 22.4606,-535.627 L 22.3429,-536.243 L 22.1489,-536.841 L 21.8815,-537.409 L 21.5451,-537.939
 L 21.1448,-538.423 L 20.6871,-538.853 L 20.1791,-539.222 L 19.6289,-539.524 L 19.0451,-539.755 L 18.4369,-539.911
 L 17.8139,-539.99 L -17.8139,-539.99 L -18.4369,-539.911 L -19.0451,-539.755 L -19.6289,-539.524 L -20.1791,-539.222
 L -20.6871,-538.853 L -21.1448,-538.423 L -21.5451,-537.939 L -21.8815,-537.409 L -22.1489,-536.841 L -22.3429,-536.243
 L -22.4606,-535.627 L -22.5,-535 L -22.5,-455 L -22.4606,-454.373 L -22.3429,-453.757 L -22.1489,-453.159
 L -21.8815,-452.591 L -21.5451,-452.061 L -21.1448,-451.577 L -20.6871,-451.147 L -20.1791,-450.778 L -19.6289,-450.476
 L -19.0451,-450.245 L -18.4369,-450.089 L -17.8139,-450.01 L 17.8139,-450.01 z
M -17.2512,-451.508 L -17.7495,-451.571 L -18.2361,-451.696 L -18.7031,-451.881 L -19.1433,-452.123 L -19.5497,-452.418
 L -19.9159,-452.762 L -20.2361,-453.149 L -20.5052,-453.573 L -20.7191,-454.028 L -20.8743,-454.505 L -20.9684,-454.999
 L -21,-455.5 L -21,-534.5 L -20.9684,-535.001 L -20.8743,-535.495 L -20.7191,-535.972 L -20.5052,-536.427
 L -20.2361,-536.851 L -19.9159,-537.238 L -19.5497,-537.582 L -19.1433,-537.877 L -18.7031,-538.119 L -18.2361,-538.304
 L -17.7495,-538.429 L -17.2512,-538.492 L 17.2512,-538.492 L 17.7495,-538.429 L 18.2361,-538.304 L 18.7031,-538.119
 L 19.1433,-537.877 L 19.5497,-537.582 L 19.9159,-537.238 L 20.2361,-536.851 L 20.5052,-536.427 L 20.7191,-535.972
 L 20.8743,-535.495 L 20.9684,-535.001 L 21,-534.5 L 21,-455.5 L 20.9684,-454.999 L 20.8743,-454.505
 L 20.7191,-454.028 L 20.5052,-453.573 L 20.2361,-453.149 L 19.9159,-452.762 L 19.5497,-452.418 L 19.1433,-452.123
 L 18.7031,-451.881 L 18.2361,-451.696 L 17.7495,-451.571 L 17.2512,-451.508 z
M 18.4369,-351.089 L 19.0451,-351.245 L 19.6289,-351.476 L 20.1791,-351.778 L 20.6871,-352.147 L 21.1448,-352.577
 L 21.5451,-353.061 L 21.8815,-353.591 L 22.1489,-354.159 L 22.3429,-354.757 L 22.4606,-355.373 L 22.5,-356
 L 22.5,-436 L 22.4606,-436.627 L 22.3429,-437.243 L 22.1489,-437.841 L 21.8815,-438.409 L 21.5451,-438.939
 L 21.1448,-439.423 L 20.6871,-439.853 L 20.1791,-440.222 L 19.6289,-440.524 L 19.0451,-440.755 L 18.4369,-440.911
 L 17.8139,-440.99 L -17.8139,-440.99 L -18.4369,-440.911 L -19.0451,-440.755 L -19.6289,-440.524 L -20.1791,-440.222
 L -20.6871,-439.853 L -21.1448,-439.423 L -21.5451,-438.939 L -21.8815,-438.409 L -22.1489,-437.841 L -22.3429,-437.243
 L -22.4606,-436.627 L -22.5,-436 L -22.5,-356 L -22.4606,-355.373 L -22.3429,-354.757 L -22.1489,-354.159
 L -21.8815,-353.591 L -21.5451,-353.061 L -21.1448,-352.577 L -20.6871,-352.147 L -20.1791,-351.778 L -19.6289,-351.476
 L -19.0451,-351.245 L -18.4369,-351.089 L -17.8139,-351.01 L 17.8139,-351.01 z
M -17.1954,-353.393 L -17.5833,-353.442 L -17.9619,-353.539 L -18.3254,-353.683 L -18.668,-353.872 L -18.9842,-354.101
 L -19.2692,-354.369 L -19.5184,-354.67 L -19.7279,-355 L -19.8943,-355.354 L -20.0151,-355.726 L -20.0884,-356.11
 L -20.1129,-356.5 L -20.1129,-435.5 L -20.0884,-435.89 L -20.0151,-436.274 L -19.8943,-436.646 L -19.7279,-437
 L -19.5184,-437.33 L -19.2692,-437.631 L -18.9842,-437.899 L -18.668,-438.128 L -18.3254,-438.317 L -17.9619,-438.461
 L -17.5833,-438.558 L -17.1954,-438.607 L 17.1954,-438.607 L 17.5833,-438.558 L 17.9619,-438.461 L 18.3254,-438.317
 L 18.668,-438.128 L 18.9842,-437.899 L 19.2692,-437.631 L 19.5184,-437.33 L 19.7279,-437 L 19.8943,-436.646
 L 20.0151,-436.274 L 20.0884,-435.89 L 20.1129,-435.5 L 20.1129,-356.5 L 20.0884,-356.11 L 20.0151,-355.726
 L 19.8943,-355.354 L 19.7279,-355 L 19.5184,-354.67 L 19.2692,-354.369 L 18.9842,-354.101 L 18.668,-353.872
 L 18.3254,-353.683 L 17.9619,-353.539 L 17.5833,-353.442 L 17.1954,-353.393 z
M 18.4369,-252.089 L 19.0451,-252.245 L 19.6289,-252.476 L 20.1791,-252.778 L 20.6871,-253.147 L 21.1448,-253.577
 L 21.5451,-254.061 L 21.8815,-254.591 L 22.1489,-255.159 L 22.3429,-255.757 L 22.4606,-256.373 L 22.5,-257
 L 22.5,-337 L 22.4606,-337.627 L 22.3429,-338.243 L 22.1489,-338.841 L 21.8815,-339.409 L 21.5451,-339.939
 L 21.1448,-340.423 L 20.6871,-340.853 L 20.1791,-341.222 L 19.6289,-341.524 L 19.0451,-341.755 L 18.4369,-341.911
 L 17.8139,-341.99 L -17.8139,-341.99 L -18.4369,-341.911 L -19.0451,-341.755 L -19.6289,-341.524 L -20.1791,-341.222
 L -20.6871,-340.853 L -21.1448,-340.423 L -21.5451,-339.939 L -21.8815,-339.409 L -22.1489,-338.841 L -22.3429,-338.243
 L -22.4606,-337.627 L -22.5,-337 L -22.5,-257 L -22.4606,-256.373 L -22.3429,-255.757 L -22.1489,-255.159
 L -21.8815,-254.591 L -21.5451,-254.061 L -21.1448,-253.577 L -20.6871,-253.147 L -20.1791,-252.778 L -19.6289,-252.476
 L -19.0451,-252.245 L -18.4369,-252.089 L -17.8139,-252.01 L 17.8139,-252.01 z
M 14.8659,-332.369 L 14.5999,-332.403 L 14.3401,-332.469 L 14.0908,-332.568 L 13.8559,-332.697 L 13.6389,-332.855
 L 13.4434,-333.038 L 13.2725,-333.245 L 13.1288,-333.471 L 13.0146,-333.714 L 12.9318,-333.969 L 12.8815,-334.232
 L 12.8647,-334.5 L 12.8815,-334.768 L 12.9318,-335.031 L 13.0146,-335.286 L 13.1288,-335.529 L 13.2725,-335.755
 L 13.4434,-335.962 L 13.6389,-336.145 L 13.8559,-336.303 L 14.0908,-336.432 L 14.3401,-336.531 L 14.5999,-336.597
 L 14.8659,-336.631 L 15.1341,-336.631 L 15.4001,-336.597 L 15.6598,-336.531 L 15.9091,-336.432 L 16.1441,-336.303
 L 16.3611,-336.145 L 16.5565,-335.962 L 16.7275,-335.755 L 16.8712,-335.529 L 16.9853,-335.286 L 17.0682,-335.031
 L 17.1185,-334.768 L 17.1353,-334.5 L 17.1185,-334.232 L 17.0682,-333.969 L 16.9853,-333.714 L 16.8712,-333.471
 L 16.7275,-333.245 L 16.5565,-333.038 L 16.3611,-332.855 L 16.1441,-332.697 L 15.9091,-332.568 L 15.6598,-332.469
 L 15.4001,-332.403 L 15.1341,-332.369 z
M -15.1341,-332.369 L -15.4001,-332.403 L -15.6598,-332.469 L -15.9091,-332.568 L -16.1441,-332.697 L -16.3611,-332.855
 L -16.5565,-333.038 L -16.7275,-333.245 L -16.8712,-333.471 L -16.9853,-333.714 L -17.0682,-333.969 L -17.1185,-334.232
 L -17.1353,-334.5 L -17.1185,-334.768 L -17.0682,-335.031 L -16.9853,-335.286 L -16.8712,-335.529 L -16.7275,-335.755
 L -16.5565,-335.962 L -16.3611,-336.145 L -16.1441,-336.303 L -15.9091,-336.432 L -15.6598,-336.531 L -15.4001,-336.597
 L -15.1341,-336.631 L -14.8659,-336.631 L -14.5999,-336.597 L -14.3401,-336.531 L -14.0908,-336.432 L -13.8559,-336.303
 L -13.6389,-336.145 L -13.4434,-335.962 L -13.2725,-335.755 L -13.1288,-335.529 L -13.0146,-335.286 L -12.9318,-335.031
 L -12.8815,-334.768 L -12.8647,-334.5 L -12.8815,-334.232 L -12.9318,-333.969 L -13.0146,-333.714 L -13.1288,-333.471
 L -13.2725,-333.245 L -13.4434,-333.038 L -13.6389,-332.855 L -13.8559,-332.697 L -14.0908,-332.568 L -14.3401,-332.469
 L -14.5999,-332.403 L -14.8659,-332.369 z
M 14.8659,-257.369 L 14.5999,-257.403 L 14.3401,-257.469 L 14.0908,-257.568 L 13.8559,-257.697 L 13.6389,-257.855
 L 13.4434,-258.038 L 13.2725,-258.245 L 13.1288,-258.471 L 13.0146,-258.714 L 12.9318,-258.969 L 12.8815,-259.232
 L 12.8647,-259.5 L 12.8815,-259.768 L 12.9318,-260.031 L 13.0146,-260.286 L 13.1288,-260.529 L 13.2725,-260.755
 L 13.4434,-260.962 L 13.6389,-261.145 L 13.8559,-261.303 L 14.0908,-261.432 L 14.3401,-261.531 L 14.5999,-261.597
 L 14.8659,-261.631 L 15.1341,-261.631 L 15.4001,-261.597 L 15.6598,-261.531 L 15.9091,-261.432 L 16.1441,-261.303
 L 16.3611,-261.145 L 16.5565,-260.962 L 16.7275,-260.755 L 16.8712,-260.529 L 16.9853,-260.286 L 17.0682,-260.031
 L 17.1185,-259.768 L 17.1353,-259.5 L 17.1185,-259.232 L 17.0682,-258.969 L 16.9853,-258.714 L 16.8712,-258.471
 L 16.7275,-258.245 L 16.5565,-258.038 L 16.3611,-257.855 L 16.1441,-257.697 L 15.9091,-257.568 L 15.6598,-257.469
 L 15.4001,-257.403 L 15.1341,-257.369 z
M -15.1341,-257.369 L -15.4001,-257.403 L -15.6598,-257.469 L -15.9091,-257.568 L -16.1441,-257.697 L -16.3611,-257.855
 L -16.5565,-258.038 L -16.7275,-258.245 L -16.8712,-258.471 L -16.9853,-258.714 L -17.0682,-258.969 L -17.1185,-259.232
 L -17.1353,-259.5 L -17.1185,-259.768 L -17.0682,-260.031 L -16.9853,-260.286 L -16.8712,-260.529 L -16.7275,-260.755
 L -16.5565,-260.962 L -16.3611,-261.145 L -16.1441,-261.303 L -15.9091,-261.432 L -15.6598,-261.531 L -15.4001,-261.597
 L -15.1341,-261.631 L -14.8659,-261.631 L -14.5999,-261.597 L -14.3401,-261.531 L -14.0908,-261.432 L -13.8559,-261.303
 L -13.6389,-261.145 L -13.4434,-260.962 L -13.2725,-260.755 L -13.1288,-260.529 L -13.0146,-260.286 L -12.9318,-260.031
 L -12.8815,-259.768 L -12.8647,-259.5 L -12.8815,-259.232 L -12.9318,-258.969 L -13.0146,-258.714 L -13.1288,-258.471
 L -13.2725,-258.245 L -13.4434,-258.038 L -13.6389,-257.855 L -13.8559,-257.697 L -14.0908,-257.568 L -14.3401,-257.469
 L -14.5999,-257.403 L -14.8659,-257.369 z
" stroke="black" fill="lightgray" stroke-width="0.5"/>
</svg>
