<?xml version="1.0" standalone="no"?>
<!DOCTYPE svg PUBLIC "-//W3C//DTD SVG 1.1//EN" "http://www.w3.org/Graphics/SVG/1.1/DTD/svg11.dtd">
<svg width="90mm" height="129mm" viewBox="-45 -168 90 129" xmlns="http://www.w3.org/2000/svg" version="1.1">
<title>OpenSCAD Model</title>
<path d="
M 40.9369,-108.089 L 41.5451,-108.245 L 42.1289,-108.476 L 42.6791,-108.778 L 43.1871,-109.147 L 43.6448,-109.577
 L 44.0451,-110.061 L 44.3815,-110.591 L 44.6489,-111.159 L 44.8429,-111.757 L 44.9606,-112.373 L 45,-113
 L 45,-163 L 44.9606,-163.627 L 44.8429,-164.243 L 44.6489,-164.841 L 44.3815,-165.409 L 44.0451,-165.939
 L 43.6448,-166.423 L 43.1871,-166.853 L 42.6791,-167.222 L 42.1289,-167.524 L 41.5451,-167.755 L 40.9369,-167.911
 L 40.3139,-167.99 L -40.3139,-167.99 L -40.9369,-167.911 L -41.5451,-167.755 L -42.1289,-167.524 L -42.6791,-167.222
 L -43.1871,-166.853 L -43.6448,-166.423 L -44.0451,-165.939 L -44.3815,-165.409 L -44.6489,-164.841 L -44.8429,-164.243
 L -44.9606,-163.627 L -45,-163 L -45,-113 L -44.9606,-112.373 L -44.8429,-111.757 L -44.6489,-111.159
 L -44.3815,-110.591 L -44.0451,-110.061 L -43.6448,-109.577 L -43.1871,-109.147 L -42.6791,-108.778 L -42.1289,-108.476
 L -41.5451,-108.245 L -40.9369,-108.089 L -40.3139,-108.01 L 40.3139,-108.01 z
M -39.993,-109.388 L -40.4751,-109.449 L -40.9457,-109.57 L -41.3975,-109.749 L -41.8234,-109.983 L -42.2165,-110.269
 L -42.5707,-110.601 L -42.8805,-110.976 L -43.1408,-111.386 L -43.3477,-111.826 L -43.4979,-112.288 L -43.589,-112.765
 L -43.6195,-113.25 L -43.6195,-162.75 L -43.589,-163.235 L -43.4979,-163.712 L -43.3477,-164.174 L -43.1408,-164.614
 L -42.8805,-165.024 L -42.5707,-165.399 L -42.2165,-165.731 L -41.8234,-166.017 L -41.3975,-166.251 L -40.9457,-166.43
 L -40.4751,-166.551 L -39.993,-166.612 L 39.993,-166.612 L 40.4751,-166.551 L 40.9457,-166.43 L 41.3975,-166.251
 L 41.8234,-166.017 L 42.2165,-165.731 L 42.5707,-165.399 L 42.8805,-165.024 L 43.1408,-164.614 L 43.3477,-164.174
 L 43.4979,-163.712 L 43.589,-163.235 L 43.6195,-162.75 L 43.6195,-113.25 L 43.589,-112.765 L 43.4979,-112.288
 L 43.3477,-111.826 L 43.1408,-111.386 L 42.8805,-110.976 L 42.5707,-110.601 L 42.2165,-110.269 L 41.8234,-109.983
 L 41.3975,-109.749 L 40.9457,-109.57 L 40.4751,-109.449 L 39.993,-109.388 z
M 40.9369,-39.0886 L 41.5451,-39.2447 L 42.1289,-39.4759 L 42.6791,-39.7784 L 43.1871,-40.1474 L 43.6448,-40.5773
 L 44.0451,-41.0611 L 44.3815,-41.5912 L 44.6489,-42.1594 L 44.8429,-42.7566 L 44.9606,-43.3733 L 45,-44
 L 45,-94 L 44.9606,-94.6267 L 44.8429,-95.2434 L 44.6489,-95.8406 L 44.3815,-96.4088 L 44.0451,-96.9389
 L 43.6448,-97.4227 L 43.1871,-97.8526 L 42.6791,-98.2216 L 42.1289,-98.5241 L 41.5451,-98.7553 L 40.9369,-98.9114
 L 40.3139,-98.9901 L -40.3139,-98.9901 L -40.9369,-98.9114 L -41.5451,-98.7553 L -42.1289,-98.5241 L -42.6791,-98.2216
 L -43.1871,-97.8526 L -43.6448,-97.4227 L -44.0451,-96.9389 L -44.3815,-96.4088 L -44.6489,-95.8406 L -44.8429,-95.2434
 L -44.9606,-94.6267 L -45,-94 L -45,-44 L -44.9606,-43.3733 L -44.8429,-42.7566 L -44.6489,-42.1594
 L -44.3815,-41.5912 L -44.0451,-41.0611 L -43.6448,-40.5773 L -43.1871,-40.1474 L -42.6791,-39.7784 L -42.1289,-39.4759
 L -41.5451,-39.2447 L -40.9369,-39.0886 L -40.3139,-39.0099 L 40.3139,-39.0099 z
M 37.387,-89.7036 L 37.1627,-89.7319 L 36.9438,-89.7881 L 36.7336,-89.8713 L 36.5355,-89.9802 L 36.3526,-90.1131
 L 36.1879,-90.2678 L 36.0438,-90.442 L 35.9226,-90.6328 L 35.8264,-90.8374 L 35.7565,-91.0524 L 35.7142,-91.2744
 L 35.7,-91.5 L 35.7142,-91.7256 L 35.7565,-91.9476 L 35.8264,-92.1626 L 35.9226,-92.3672 L 36.0438,-92.558
 L 36.1879,-92.7322 L 36.3526,-92.8869 L 36.5355,-93.0198 L 36.7336,-93.1287 L 36.9438,-93.2119 L 37.1627,-93.2681
 L 37.387,-93.2964 L 37.613,-93.2964 L 37.8373,-93.2681 L 38.0562,-93.2119 L 38.2664,-93.1287 L 38.4645,-93.0198
 L 38.6474,-92.8869 L 38.8121,-92.7322 L 38.9562,-92.558 L 39.0773,-92.3672 L 39.1736,-92.1626 L 39.2434,-91.9476
 L 39.2858,-91.7256 L 39.3,-91.5 L 39.2858,-91.2744 L 39.2434,-91.0524 L 39.1736,-90.8374 L 39.0773,-90.6328
 L 38.9562,-90.442 L 38.8121,-90.2678 L 38.6474,-90.1131 L 38.4645,-89.9802 L 38.2664,-89.8713 L 38.0562,-89.7881
 L 37.8373,-89.7319 L 37.613,-89.7036 z
M -37.613,-89.7036 L -37.8373,-89.7319 L -38.0562,-89.7881 L -38.2664,-89.8713 L -38.4645,-89.9802 L -38.6474,-90.1131
 L -38.8121,-90.2678 L -38.9562,-90.442 L -39.0773,-90.6328 L -39.1736,-90.8374 L -39.2434,-91.0524 L -39.2858,-91.2744
 L -39.3,-91.5 L -39.2858,-91.7256 L -39.2434,-91.9476 L -39.1736,-92.1626 L -39.0773,-92.3672 L -38.9562,-92.558
 L -38.8121,-92.7322 L -38.6474,-92.8869 L -38.4645,-93.0198 L -38.2664,-93.1287 L -38.0562,-93.2119 L -37.8373,-93.2681
 L -37.613,-93.2964 L -37.387,-93.2964 L -37.1627,-93.2681 L -36.9438,-93.2119 L -36.7336,-93.1287 L -36.5355,-93.0198
 L -36.3526,-92.8869 L -36.1879,-92.7322 L -36.0438,-92.558 L -35.9226,-92.3672 L -35.8264,-92.1626 L -35.7565,-91.9476
 L -35.7142,-91.7256 L -35.7,-91.5 L -35.7142,-91.2744 L -35.7565,-91.0524 L -35.8264,-90.8374 L -35.9226,-90.6328
 L -36.0438,-90.442 L -36.1879,-90.2678 L -36.3526,-90.1131 L -36.5355,-89.9802 L -36.7336,-89.8713 L -36.9438,-89.7881
 L -37.1627,-89.7319 L -37.387,-89.7036 z
M -37.613,-44.7036 L -37.8373,-44.7319 L -38.0562,-44.7881 L -38.2664,-44.8713 L -38.4645,-44.9802 L -38.6474,-45.1131
 L -38.8121,-45.2678 L -38.9562,-45.442 L -39.0773,-45.6328 L -39.1736,-45.8374 L -39.2434,-46.0524 L -39.2858,-46.2744
 L -39.3,-46.5 L -39.2858,-46.7256 L -39.2434,-46.9476 L -39.1736,-47.1626 L -39.0773,-47.3672 L -38.9562,-47.558
 L -38.8121,-47.7322 L -38.6474,-47.8869 L -38.4645,-48.0198 L -38.2664,-48.1287 L -38.0562,-48.2119 L -37.8373,-48.2681
 L -37.613,-48.2964 L -37.387,-48.2964 L -37.1627,-48.2681 L -36.9438,-48.2119 L -36.7336,-48.1287 L -36.5355,-48.0198
 L -36.3526,-47.8869 L -36.1879,-47.7322 L -36.0438,-47.558 L -35.9226,-47.3672 L -35.8264,-47.1626 L -35.7565,-46.9476
 L -35.7142,-46.7256 L -35.7,-46.5 L -35.7142,-46.2744 L -35.7565,-46.0524 L -35.8264,-45.8374 L -35.9226,-45.6328
 L -36.0438,-45.442 L -36.1879,-45.2678 L -36.3526,-45.1131 L -36.5355,-44.9802 L -36.7336,-44.8713 L -36.9438,-44.7881
 L -37.1627,-44.7319 L -37.387,-44.7036 z
M 37.387,-44.7036 L 37.1627,-44.7319 L 36.9438,-44.7881 L 36.7336,-44.8713 L 36.5355,-44.9802 L 36.3526,-45.1131
 L 36.1879,-45.2678 L 36.0438,-45.442 L 35.9226,-45.6328 L 35.8264,-45.8374 L 35.7565,-46.0524 L 35.7142,-46.2744
 L 35.7,-46.5 L 35.7142,-46.7256 L 35.7565,-46.9476 L 35.8264,-47.1626 L 35.9226,-47.3672 L 36.0438,-47.558
 L 36.1879,-47.7322 L 36.3526,-47.8869 L 36.5355,-48.0198 L 36.7336,-48.1287 L 36.9438,-48.2119 L 37.1627,-48.2681
 L 37.387,-48.2964 L 37.613,-48.2964 L 37.8373,-48.2681 L 38.0562,-48.2119 L 38.2664,-48.1287 L 38.4645,-48.0198
 L 38.6474,-47.8869 L 38.8121,-47.7322 L 38.9562,-47.558 L 39.0773,-47.3672 L 39.1736,-47.1626 L 39.2434,-46.9476
 L 39.2858,-46.7256 L 39.3,-46.5 L 39.2858,-46.2744 L 39.2434,-46.0524 L 39.1736,-45.8374 L 39.0773,-45.6328
 L 38.9562,-45.442 L 38.8121,-45.2678 L 38.6474,-45.1131 L 38.4645,-44.9802 L 38.2664,-44.8713 L 38.0562,-44.7881
 L 37.8373,-44.7319 L 37.613,-44.7036 z
" stroke="black" fill="lightgray" stroke-width="0.5"/>
</svg>
