<?xml version="1.0" standalone="no"?>
<!DOCTYPE svg PUBLIC "-//W3C//DTD SVG 1.1//EN" "http://www.w3.org/Graphics/SVG/1.1/DTD/svg11.dtd">
<svg width="74mm" height="74mm" viewBox="-37 -205 74 74" xmlns="http://www.w3.org/2000/svg" version="1.1">
<title>OpenSCAD Model</title>
<path d="
M 27.75,-204.99 L 11.4645,-204.99 L 14.4547,-202 L 27.75,-202 z
M 32.9369,-131.089 L 33.5451,-131.245 L 34.1289,-131.476 L 34.6791,-131.778 L 35.1871,-132.147 L 35.6448,-132.577
 L 36.0451,-133.061 L 36.3815,-133.591 L 36.6489,-134.159 L 36.8429,-134.757 L 36.9606,-135.373 L 37,-136
 L 37,-200 L 36.9685,-200.5 L 14.1588,-200.5 L 15.1152,-200.121 L 19.0219,-197.974 L 22.6285,-195.353
 L 25.8784,-192.301 L 28.7201,-188.866 L 31.1089,-185.102 L 33.0071,-181.068 L 34.3847,-176.828 L 35.2201,-172.449
 L 35.5,-168 L 35.2201,-163.551 L 34.3847,-159.172 L 33.0071,-154.932 L 31.1089,-150.898 L 28.7201,-147.134
 L 25.8784,-143.699 L 22.6285,-140.647 L 19.0219,-138.026 L 15.1152,-135.879 L 10.9701,-134.238 L 6.65202,-133.129
 L 2.22905,-132.57 L -2.22905,-132.57 L -6.65202,-133.129 L -10.9701,-134.238 L -15.1152,-135.879 L -19.0219,-138.026
 L -22.6285,-140.647 L -25.8784,-143.699 L -28.7201,-147.134 L -31.1089,-150.898 L -33.0071,-154.932 L -34.3847,-159.172
 L -35.2201,-163.551 L -35.5,-168 L -35.2201,-172.449 L -34.3847,-176.828 L -33.0071,-181.068 L -31.1089,-185.102
 L -28.7201,-188.866 L -25.8784,-192.301 L -22.6285,-195.353 L -19.0219,-197.974 L -15.1152,-200.121 L -10.9701,-201.762
 L -6.65202,-202.871 L -2.22905,-203.43 L 2.22905,-203.43 L 6.65202,-202.871 L 10.0451,-202 L 12.3333,-202
 L 9.34319,-204.99 L -32.3139,-204.99 L -32.9369,-204.911 L -33.5451,-204.755 L -34.1289,-204.524 L -34.6791,-204.222
 L -35.1871,-203.853 L -35.6448,-203.423 L -36.0451,-202.939 L -36.3815,-202.409 L -36.6489,-201.841 L -36.8429,-201.243
 L -36.8905,-200.994 L -29.8116,-200.994 L -29.4379,-200.947 L -29.0729,-200.853 L -28.7227,-200.714 L -28.3925,-200.533
 L -28.0877,-200.312 L -27.8131,-200.054 L -27.5729,-199.763 L -27.3711,-199.445 L -27.2107,-199.104 L -27.0942,-198.746
 L -27.0237,-198.376 L -27,-198 L -27.0237,-197.624 L -27.0942,-197.254 L -27.2107,-196.896 L -27.3711,-196.555
 L -27.5729,-196.237 L -27.8131,-195.946 L -28.0877,-195.688 L -28.3925,-195.467 L -28.7227,-195.286 L -29.0729,-195.147
 L -29.4379,-195.053 L -29.8116,-195.006 L -37,-195.006 L -37,-140.994 L -29.8116,-140.994 L -29.4379,-140.947
 L -29.0729,-140.853 L -28.7227,-140.714 L -28.3925,-140.533 L -28.0877,-140.312 L -27.8131,-140.054 L -27.5729,-139.763
 L -27.3711,-139.445 L -27.2107,-139.104 L -27.0942,-138.746 L -27.0237,-138.376 L -27,-138 L -27.0237,-137.624
 L -27.0942,-137.254 L -27.2107,-136.896 L -27.3711,-136.555 L -27.5729,-136.237 L -27.8131,-135.946 L -28.0877,-135.688
 L -28.3925,-135.467 L -28.7227,-135.286 L -29.0729,-135.147 L -29.4379,-135.053 L -29.8116,-135.006 L -36.8905,-135.006
 L -36.8429,-134.757 L -36.6489,-134.159 L -36.3815,-133.591 L -36.0451,-133.061 L -35.6448,-132.577 L -35.1871,-132.147
 L -34.6791,-131.778 L -34.1289,-131.476 L -33.5451,-131.245 L -32.9369,-131.089 L -32.3139,-131.01 L 32.3139,-131.01
 z
M 29.8116,-135.006 L 29.4379,-135.053 L 29.0729,-135.147 L 28.7227,-135.286 L 28.3925,-135.467 L 28.0877,-135.688
 L 27.8131,-135.946 L 27.5729,-136.237 L 27.3711,-136.555 L 27.2107,-136.896 L 27.0942,-137.254 L 27.0237,-137.624
 L 27,-138 L 27.0237,-138.376 L 27.0942,-138.746 L 27.2107,-139.104 L 27.3711,-139.445 L 27.5729,-139.763
 L 27.8131,-140.054 L 28.0877,-140.312 L 28.3925,-140.533 L 28.7227,-140.714 L 29.0729,-140.853 L 29.4379,-140.947
 L 29.8116,-140.994 L 30.1884,-140.994 L 30.5621,-140.947 L 30.927,-140.853 L 31.2773,-140.714 L 31.6075,-140.533
 L 31.9123,-140.312 L 32.1869,-140.054 L 32.427,-139.763 L 32.6289,-139.445 L 32.7893,-139.104 L 32.9057,-138.746
 L 32.9763,-138.376 L 33,-138 L 32.9763,-137.624 L 32.9057,-137.254 L 32.7893,-136.896 L 32.6289,-136.555
 L 32.427,-136.237 L 32.1869,-135.946 L 31.9123,-135.688 L 31.6075,-135.467 L 31.2773,-135.286 L 30.927,-135.147
 L 30.5621,-135.053 L 30.1884,-135.006 z
" stroke="black" fill="lightgray" stroke-width="0.5"/>
</svg>
