<?xml version="1.0" standalone="no"?>
<!DOCTYPE svg PUBLIC "-//W3C//DTD SVG 1.1//EN" "http://www.w3.org/Graphics/SVG/1.1/DTD/svg11.dtd">
<svg width="107mm" height="129mm" viewBox="-54 -237 107 129" xmlns="http://www.w3.org/2000/svg" version="1.1">
<title>OpenSCAD Model</title>
<path d="
M 48.4369,-177.089 L 49.0451,-177.245 L 49.6289,-177.476 L 50.1791,-177.778 L 50.6871,-178.147 L 51.1448,-178.577
 L 51.5451,-179.061 L 51.8815,-179.591 L 52.1489,-180.159 L 52.3429,-180.757 L 52.4606,-181.373 L 52.5,-182
 L 52.5,-232 L 52.4606,-232.627 L 52.3429,-233.243 L 52.1489,-233.841 L 51.8815,-234.409 L 51.5451,-234.939
 L 51.1448,-235.423 L 50.6871,-235.853 L 50.1791,-236.222 L 49.6289,-236.524 L 49.0451,-236.755 L 48.4369,-236.911
 L 47.8139,-236.99 L -47.8139,-236.99 L -48.4369,-236.911 L -49.0451,-236.755 L -49.6289,-236.524 L -50.1791,-236.222
 L -50.6871,-235.853 L -51,-235.559 L -51,-236.979 L -54,-236.979 L -54,-177.021 L -51,-177.021
 L -51,-178.441 L -50.6871,-178.147 L -50.1791,-177.778 L -49.6289,-177.476 L -49.0451,-177.245 L -48.4369,-177.089
 L -47.8139,-177.01 L 47.8139,-177.01 z
M -47.1954,-179.393 L -47.5833,-179.442 L -47.9619,-179.539 L -48.3254,-179.683 L -48.668,-179.872 L -48.9842,-180.101
 L -49.2692,-180.369 L -49.5184,-180.67 L -49.7279,-181 L -49.8943,-181.354 L -50.0151,-181.726 L -50.0884,-182.11
 L -50.1129,-182.5 L -50.1129,-231.5 L -50.0884,-231.89 L -50.0151,-232.274 L -49.8943,-232.646 L -49.7279,-233
 L -49.5184,-233.33 L -49.2692,-233.631 L -48.9842,-233.899 L -48.668,-234.128 L -48.3254,-234.317 L -47.9619,-234.461
 L -47.5833,-234.558 L -47.1954,-234.607 L 47.1954,-234.607 L 47.5833,-234.558 L 47.9619,-234.461 L 48.3254,-234.317
 L 48.668,-234.128 L 48.9842,-233.899 L 49.2692,-233.631 L 49.5184,-233.33 L 49.7279,-233 L 49.8943,-232.646
 L 50.0151,-232.274 L 50.0884,-231.89 L 50.1129,-231.5 L 50.1129,-182.5 L 50.0884,-182.11 L 50.0151,-181.726
 L 49.8943,-181.354 L 49.7279,-181 L 49.5184,-180.67 L 49.2692,-180.369 L 48.9842,-180.101 L 48.668,-179.872
 L 48.3254,-179.683 L 47.9619,-179.539 L 47.5833,-179.442 L 47.1954,-179.393 z
M 48.4369,-108.089 L 49.0451,-108.245 L 49.6289,-108.476 L 50.1791,-108.778 L 50.6871,-109.147 L 51.1448,-109.577
 L 51.5451,-110.061 L 51.8815,-110.591 L 52.1489,-111.159 L 52.3429,-111.757 L 52.4606,-112.373 L 52.5,-113
 L 52.5,-163 L 52.4606,-163.627 L 52.3429,-164.243 L 52.1489,-164.841 L 51.8815,-165.409 L 51.5451,-165.939
 L 51.1448,-166.423 L 50.6871,-166.853 L 50.1791,-167.222 L 49.6289,-167.524 L 49.0451,-167.755 L 48.4369,-167.911
 L 47.8139,-167.99 L -47.8139,-167.99 L -48.4369,-167.911 L -49.0451,-167.755 L -49.6289,-167.524 L -50.1791,-167.222
 L -50.6871,-166.853 L -51,-166.559 L -51,-166.653 L -54,-166.653 L -54,-109.347 L -51,-109.347
 L -51,-109.441 L -50.6871,-109.147 L -50.1791,-108.778 L -49.6289,-108.476 L -49.0451,-108.245 L -48.4369,-108.089
 L -47.8139,-108.01 L 47.8139,-108.01 z
M 44.8659,-158.369 L 44.5999,-158.403 L 44.3401,-158.469 L 44.0908,-158.568 L 43.8559,-158.697 L 43.6389,-158.855
 L 43.4434,-159.038 L 43.2725,-159.245 L 43.1288,-159.471 L 43.0146,-159.714 L 42.9318,-159.969 L 42.8815,-160.232
 L 42.8647,-160.5 L 42.8815,-160.768 L 42.9318,-161.031 L 43.0146,-161.286 L 43.1288,-161.529 L 43.2725,-161.755
 L 43.4434,-161.962 L 43.6389,-162.145 L 43.8559,-162.303 L 44.0908,-162.432 L 44.3401,-162.531 L 44.5999,-162.597
 L 44.8659,-162.631 L 45.1341,-162.631 L 45.4001,-162.597 L 45.6598,-162.531 L 45.9092,-162.432 L 46.1441,-162.303
 L 46.3611,-162.145 L 46.5565,-161.962 L 46.7275,-161.755 L 46.8712,-161.529 L 46.9853,-161.286 L 47.0682,-161.031
 L 47.1185,-160.768 L 47.1353,-160.5 L 47.1185,-160.232 L 47.0682,-159.969 L 46.9853,-159.714 L 46.8712,-159.471
 L 46.7275,-159.245 L 46.5565,-159.038 L 46.3611,-158.855 L 46.1441,-158.697 L 45.9092,-158.568 L 45.6598,-158.469
 L 45.4001,-158.403 L 45.1341,-158.369 z
M -45.1341,-158.369 L -45.4001,-158.403 L -45.6598,-158.469 L -45.9092,-158.568 L -46.1441,-158.697 L -46.3611,-158.855
 L -46.5565,-159.038 L -46.7275,-159.245 L -46.8712,-159.471 L -46.9853,-159.714 L -47.0682,-159.969 L -47.1185,-160.232
 L -47.1353,-160.5 L -47.1185,-160.768 L -47.0682,-161.031 L -46.9853,-161.286 L -46.8712,-161.529 L -46.7275,-161.755
 L -46.5565,-161.962 L -46.3611,-162.145 L -46.1441,-162.303 L -45.9092,-162.432 L -45.6598,-162.531 L -45.4001,-162.597
 L -45.1341,-162.631 L -44.8659,-162.631 L -44.5999,-162.597 L -44.3401,-162.531 L -44.0908,-162.432 L -43.8559,-162.303
 L -43.6389,-162.145 L -43.4434,-161.962 L -43.2725,-161.755 L -43.1288,-161.529 L -43.0146,-161.286 L -42.9318,-161.031
 L -42.8815,-160.768 L -42.8647,-160.5 L -42.8815,-160.232 L -42.9318,-159.969 L -43.0146,-159.714 L -43.1288,-159.471
 L -43.2725,-159.245 L -43.4434,-159.038 L -43.6389,-158.855 L -43.8559,-158.697 L -44.0908,-158.568 L -44.3401,-158.469
 L -44.5999,-158.403 L -44.8659,-158.369 z
M 44.8659,-113.369 L 44.5999,-113.403 L 44.3401,-113.469 L 44.0908,-113.568 L 43.8559,-113.697 L 43.6389,-113.855
 L 43.4434,-114.038 L 43.2725,-114.245 L 43.1288,-114.471 L 43.0146,-114.714 L 42.9318,-114.969 L 42.8815,-115.232
 L 42.8647,-115.5 L 42.8815,-115.768 L 42.9318,-116.031 L 43.0146,-116.286 L 43.1288,-116.529 L 43.2725,-116.755
 L 43.4434,-116.962 L 43.6389,-117.145 L 43.8559,-117.303 L 44.0908,-117.432 L 44.3401,-117.531 L 44.5999,-117.597
 L 44.8659,-117.631 L 45.1341,-117.631 L 45.4001,-117.597 L 45.6598,-117.531 L 45.9092,-117.432 L 46.1441,-117.303
 L 46.3611,-117.145 L 46.5565,-116.962 L 46.7275,-116.755 L 46.8712,-116.529 L 46.9853,-116.286 L 47.0682,-116.031
 L 47.1185,-115.768 L 47.1353,-115.5 L 47.1185,-115.232 L 47.0682,-114.969 L 46.9853,-114.714 L 46.8712,-114.471
 L 46.7275,-114.245 L 46.5565,-114.038 L 46.3611,-113.855 L 46.1441,-113.697 L 45.9092,-113.568 L 45.6598,-113.469
 L 45.4001,-113.403 L 45.1341,-113.369 z
M -45.1341,-113.369 L -45.4001,-113.403 L -45.6598,-113.469 L -45.9092,-113.568 L -46.1441,-113.697 L -46.3611,-113.855
 L -46.5565,-114.038 L -46.7275,-114.245 L -46.8712,-114.471 L -46.9853,-114.714 L -47.0682,-114.969 L -47.1185,-115.232
 L -47.1353,-115.5 L -47.1185,-115.768 L -47.0682,-116.031 L -46.9853,-116.286 L -46.8712,-116.529 L -46.7275,-116.755
 L -46.5565,-116.962 L -46.3611,-117.145 L -46.1441,-117.303 L -45.9092,-117.432 L -45.6598,-117.531 L -45.4001,-117.597
 L -45.1341,-117.631 L -44.8659,-117.631 L -44.5999,-117.597 L -44.3401,-117.531 L -44.0908,-117.432 L -43.8559,-117.303
 L -43.6389,-117.145 L -43.4434,-116.962 L -43.2725,-116.755 L -43.1288,-116.529 L -43.0146,-116.286 L -42.9318,-116.031
 L -42.8815,-115.768 L -42.8647,-115.5 L -42.8815,-115.232 L -42.9318,-114.969 L -43.0146,-114.714 L -43.1288,-114.471
 L -43.2725,-114.245 L -43.4434,-114.038 L -43.6389,-113.855 L -43.8559,-113.697 L -44.0908,-113.568 L -44.3401,-113.469
 L -44.5999,-113.403 L -44.8659,-113.369 z
" stroke="black" fill="lightgray" stroke-width="0.5"/>
</svg>
