<?xml version="1.0" standalone="no"?>
<!DOCTYPE svg PUBLIC "-//W3C//DTD SVG 1.1//EN" "http://www.w3.org/Graphics/SVG/1.1/DTD/svg11.dtd">
<svg width="16mm" height="154mm" viewBox="-8 -239 16 154" xmlns="http://www.w3.org/2000/svg" version="1.1">
<title>OpenSCAD Model</title>
<path d="
M 3.4369,-193.589 L 4.04507,-193.745 L 4.62889,-193.976 L 5.17912,-194.278 L 5.68712,-194.647 L 6.14484,-195.077
 L 6.54507,-195.561 L 6.88153,-196.091 L 7.14888,-196.659 L 7.34291,-197.257 L 7.46057,-197.873 L 7.5,-198.5
 L 7.5,-233.5 L 7.46057,-234.127 L 7.34291,-234.743 L 7.14888,-235.341 L 6.88153,-235.909 L 6.54507,-236.439
 L 6.14484,-236.923 L 5.68712,-237.353 L 5.17912,-237.722 L 4.62889,-238.024 L 4.04507,-238.255 L 3.4369,-238.411
 L 2.81395,-238.49 L -2.81395,-238.49 L -3.4369,-238.411 L -4.04507,-238.255 L -4.62889,-238.024 L -5.17912,-237.722
 L -5.68712,-237.353 L -6.14484,-236.923 L -6.54507,-236.439 L -6.88153,-235.909 L -7.14888,-235.341 L -7.34291,-234.743
 L -7.46057,-234.127 L -7.5,-233.5 L -7.5,-198.5 L -7.46057,-197.873 L -7.34291,-197.257 L -7.14888,-196.659
 L -6.88153,-196.091 L -6.54507,-195.561 L -6.14484,-195.077 L -5.68712,-194.647 L -5.17912,-194.278 L -4.62889,-193.976
 L -4.04507,-193.745 L -3.4369,-193.589 L -2.81395,-193.51 L 2.81395,-193.51 z
M -2.24316,-195.135 L -2.72565,-195.196 L -3.1967,-195.317 L -3.64888,-195.496 L -4.07506,-195.73 L -4.46851,-196.016
 L -4.82301,-196.349 L -5.13301,-196.724 L -5.3936,-197.134 L -5.60068,-197.574 L -5.75096,-198.037 L -5.84209,-198.515
 L -5.87262,-199 L -5.87262,-233 L -5.84209,-233.485 L -5.75096,-233.963 L -5.60068,-234.426 L -5.3936,-234.866
 L -5.13301,-235.276 L -4.82301,-235.651 L -4.46851,-235.984 L -4.07506,-236.27 L -3.64888,-236.504 L -3.1967,-236.683
 L -2.72565,-236.804 L -2.24316,-236.865 L 2.24316,-236.865 L 2.72565,-236.804 L 3.1967,-236.683 L 3.64888,-236.504
 L 4.07506,-236.27 L 4.46851,-235.984 L 4.82301,-235.651 L 5.13301,-235.276 L 5.3936,-234.866 L 5.60068,-234.426
 L 5.75096,-233.963 L 5.84209,-233.485 L 5.87262,-233 L 5.87262,-199 L 5.84209,-198.515 L 5.75096,-198.037
 L 5.60068,-197.574 L 5.3936,-197.134 L 5.13301,-196.724 L 4.82301,-196.349 L 4.46851,-196.016 L 4.07506,-195.73
 L 3.64888,-195.496 L 3.1967,-195.317 L 2.72565,-195.196 L 2.24316,-195.135 z
M 3.4369,-139.589 L 4.04507,-139.745 L 4.62889,-139.976 L 5.17912,-140.278 L 5.68712,-140.647 L 6.14484,-141.077
 L 6.54507,-141.561 L 6.88153,-142.091 L 7.14888,-142.659 L 7.34291,-143.257 L 7.46057,-143.873 L 7.5,-144.5
 L 7.5,-179.5 L 7.46057,-180.127 L 7.34291,-180.743 L 7.14888,-181.341 L 6.88153,-181.909 L 6.54507,-182.439
 L 6.14484,-182.923 L 5.68712,-183.353 L 5.17912,-183.722 L 4.62889,-184.024 L 4.04507,-184.255 L 3.4369,-184.411
 L 2.81395,-184.49 L -2.81395,-184.49 L -3.4369,-184.411 L -4.04507,-184.255 L -4.62889,-184.024 L -5.17912,-183.722
 L -5.68712,-183.353 L -6.14484,-182.923 L -6.54507,-182.439 L -6.88153,-181.909 L -7.14888,-181.341 L -7.34291,-180.743
 L -7.46057,-180.127 L -7.5,-179.5 L -7.5,-144.5 L -7.46057,-143.873 L -7.34291,-143.257 L -7.14888,-142.659
 L -6.88153,-142.091 L -6.54507,-141.561 L -6.14484,-141.077 L -5.68712,-140.647 L -5.17912,-140.278 L -4.62889,-139.976
 L -4.04507,-139.745 L -3.4369,-139.589 L -2.81395,-139.51 L 2.81395,-139.51 z
M 3.4369,-85.5886 L 4.04507,-85.7447 L 4.62889,-85.9759 L 5.17912,-86.2784 L 5.68712,-86.6474 L 6.14484,-87.0773
 L 6.54507,-87.5611 L 6.88153,-88.0912 L 7.14888,-88.6594 L 7.34291,-89.2566 L 7.46057,-89.8733 L 7.5,-90.5
 L 7.5,-125.5 L 7.46057,-126.127 L 7.34291,-126.743 L 7.14888,-127.341 L 6.88153,-127.909 L 6.54507,-128.439
 L 6.14484,-128.923 L 5.68712,-129.353 L 5.17912,-129.722 L 4.62889,-130.024 L 4.04507,-130.255 L 3.4369,-130.411
 L 2.81395,-130.49 L -2.81395,-130.49 L -3.4369,-130.411 L -4.04507,-130.255 L -4.62889,-130.024 L -5.17912,-129.722
 L -5.68712,-129.353 L -6.14484,-128.923 L -6.54507,-128.439 L -6.88153,-127.909 L -7.14888,-127.341 L -7.34291,-126.743
 L -7.46057,-126.127 L -7.5,-125.5 L -7.5,-90.5 L -7.46057,-89.8733 L -7.34291,-89.2566 L -7.14888,-88.6594
 L -6.88153,-88.0912 L -6.54507,-87.5611 L -6.14484,-87.0773 L -5.68712,-86.6474 L -5.17912,-86.2784 L -4.62889,-85.9759
 L -4.04507,-85.7447 L -3.4369,-85.5886 L -2.81395,-85.5099 L 2.81395,-85.5099 z
M -0.113022,-121.204 L -0.33728,-121.232 L -0.556229,-121.288 L -0.766388,-121.371 L -0.964478,-121.48 L -1.14735,-121.613
 L -1.31213,-121.768 L -1.45622,-121.942 L -1.57735,-122.133 L -1.67358,-122.337 L -1.74344,-122.552 L -1.7858,-122.774
 L -1.79999,-123 L -1.7858,-123.226 L -1.74344,-123.448 L -1.67358,-123.663 L -1.57735,-123.867 L -1.45622,-124.058
 L -1.31213,-124.232 L -1.14735,-124.387 L -0.964478,-124.52 L -0.766388,-124.629 L -0.556229,-124.712 L -0.33728,-124.768
 L -0.113022,-124.796 L 0.113022,-124.796 L 0.33728,-124.768 L 0.556229,-124.712 L 0.766388,-124.629 L 0.964478,-124.52
 L 1.14735,-124.387 L 1.31213,-124.232 L 1.45622,-124.058 L 1.57735,-123.867 L 1.67358,-123.663 L 1.74344,-123.448
 L 1.7858,-123.226 L 1.79999,-123 L 1.7858,-122.774 L 1.74344,-122.552 L 1.67358,-122.337 L 1.57735,-122.133
 L 1.45622,-121.942 L 1.31213,-121.768 L 1.14735,-121.613 L 0.964478,-121.48 L 0.766388,-121.371 L 0.556229,-121.288
 L 0.33728,-121.232 L 0.113022,-121.204 z
M -0.113022,-91.2036 L -0.33728,-91.2319 L -0.556229,-91.2881 L -0.766388,-91.3713 L -0.964478,-91.4802 L -1.14735,-91.6131
 L -1.31213,-91.7678 L -1.45622,-91.942 L -1.57735,-92.1329 L -1.67358,-92.3374 L -1.74344,-92.5524 L -1.7858,-92.7744
 L -1.79999,-93 L -1.7858,-93.2256 L -1.74344,-93.4476 L -1.67358,-93.6626 L -1.57735,-93.8672 L -1.45622,-94.058
 L -1.31213,-94.2322 L -1.14735,-94.3869 L -0.964478,-94.5198 L -0.766388,-94.6287 L -0.556229,-94.7119 L -0.33728,-94.7681
 L -0.113022,-94.7964 L 0.113022,-94.7964 L 0.33728,-94.7681 L 0.556229,-94.7119 L 0.766388,-94.6287 L 0.964478,-94.5198
 L 1.14735,-94.3869 L 1.31213,-94.2322 L 1.45622,-94.058 L 1.57735,-93.8672 L 1.67358,-93.6626 L 1.74344,-93.4476
 L 1.7858,-93.2256 L 1.79999,-93 L 1.7858,-92.7744 L 1.74344,-92.5524 L 1.67358,-92.3374 L 1.57735,-92.1329
 L 1.45622,-91.942 L 1.31213,-91.7678 L 1.14735,-91.6131 L 0.964478,-91.4802 L 0.766388,-91.3713 L 0.556229,-91.2881
 L 0.33728,-91.2319 L 0.113022,-91.2036 z
" stroke="black" fill="lightgray" stroke-width="0.5"/>
</svg>
