<?xml version="1.0" standalone="no"?>
<!DOCTYPE svg PUBLIC "-//W3C//DTD SVG 1.1//EN" "http://www.w3.org/Graphics/SVG/1.1/DTD/svg11.dtd">
<svg width="107mm" height="100mm" viewBox="-54 -131 107 100" xmlns="http://www.w3.org/2000/svg" version="1.1">
<title>OpenSCAD Model</title>
<path d="
M 48.4369,-85.5886 L 49.0451,-85.7447 L 49.6289,-85.9759 L 50.1791,-86.2784 L 50.6871,-86.6474 L 51.1448,-87.0773
 L 51.5451,-87.5611 L 51.8815,-88.0912 L 52.1489,-88.6594 L 52.3429,-89.2566 L 52.4606,-89.8733 L 52.5,-90.5
 L 52.5,-125.5 L 52.4606,-126.127 L 52.3429,-126.743 L 52.1489,-127.341 L 51.8815,-127.909 L 51.5451,-128.439
 L 51.1448,-128.923 L 50.6871,-129.353 L 50.1791,-129.722 L 49.6289,-130.024 L 49.0451,-130.255 L 48.4369,-130.411
 L 47.8139,-130.49 L -47.8139,-130.49 L -48.4369,-130.411 L -49.0451,-130.255 L -49.6289,-130.024 L -50.1791,-129.722
 L -50.6871,-129.353 L -51,-129.059 L -51,-130.115 L -54,-130.115 L -54,-85.8852 L -51,-85.8852
 L -51,-86.9413 L -50.6871,-86.6474 L -50.1791,-86.2784 L -49.6289,-85.9759 L -49.0451,-85.7447 L -48.4369,-85.5886
 L -47.8139,-85.5099 L 47.8139,-85.5099 z
M 48.4369,-31.5886 L 49.0451,-31.7447 L 49.6289,-31.9759 L 50.1791,-32.2784 L 50.6871,-32.6474 L 51.1448,-33.0773
 L 51.5451,-33.5611 L 51.8815,-34.0912 L 52.1489,-34.6594 L 52.3429,-35.2566 L 52.4606,-35.8733 L 52.5,-36.5
 L 52.5,-71.5 L 52.4606,-72.1267 L 52.3429,-72.7434 L 52.1489,-73.3406 L 51.8815,-73.9088 L 51.5451,-74.4389
 L 51.1448,-74.9227 L 50.6871,-75.3526 L 50.1791,-75.7216 L 49.6289,-76.0241 L 49.0451,-76.2553 L 48.4369,-76.4114
 L 47.8139,-76.4901 L -47.8139,-76.4901 L -48.4369,-76.4114 L -49.0451,-76.2553 L -49.6289,-76.0241 L -50.1791,-75.7216
 L -50.6871,-75.3526 L -51.1448,-74.9227 L -51.5451,-74.4389 L -51.8815,-73.9088 L -52.1489,-73.3406 L -52.3429,-72.7434
 L -52.4,-72.4442 L -54,-72.4442 L -54,-35.5558 L -52.4,-35.5558 L -52.3429,-35.2566 L -52.1489,-34.6594
 L -51.8815,-34.0912 L -51.5451,-33.5611 L -51.1448,-33.0773 L -50.6871,-32.6474 L -50.1791,-32.2784 L -49.6289,-31.9759
 L -49.0451,-31.7447 L -48.4369,-31.5886 L -47.8139,-31.5099 L 47.8139,-31.5099 z
M 44.887,-67.2036 L 44.6627,-67.2319 L 44.4438,-67.2881 L 44.2336,-67.3713 L 44.0355,-67.4802 L 43.8526,-67.6131
 L 43.6879,-67.7678 L 43.5438,-67.942 L 43.4226,-68.1328 L 43.3264,-68.3374 L 43.2565,-68.5524 L 43.2142,-68.7744
 L 43.2,-69 L 43.2142,-69.2256 L 43.2565,-69.4476 L 43.3264,-69.6626 L 43.4226,-69.8671 L 43.5438,-70.058
 L 43.6879,-70.2322 L 43.8526,-70.3869 L 44.0355,-70.5198 L 44.2336,-70.6287 L 44.4438,-70.7119 L 44.6627,-70.7681
 L 44.887,-70.7964 L 45.113,-70.7964 L 45.3373,-70.7681 L 45.5562,-70.7119 L 45.7664,-70.6287 L 45.9645,-70.5198
 L 46.1474,-70.3869 L 46.3121,-70.2322 L 46.4562,-70.058 L 46.5773,-69.8671 L 46.6736,-69.6626 L 46.7434,-69.4476
 L 46.7858,-69.2256 L 46.8,-69 L 46.7858,-68.7744 L 46.7434,-68.5524 L 46.6736,-68.3374 L 46.5773,-68.1328
 L 46.4562,-67.942 L 46.3121,-67.7678 L 46.1474,-67.6131 L 45.9645,-67.4802 L 45.7664,-67.3713 L 45.5562,-67.2881
 L 45.3373,-67.2319 L 45.113,-67.2036 z
M -45.113,-67.2036 L -45.3373,-67.2319 L -45.5562,-67.2881 L -45.7664,-67.3713 L -45.9645,-67.4802 L -46.1474,-67.6131
 L -46.3121,-67.7678 L -46.4562,-67.942 L -46.5773,-68.1328 L -46.6736,-68.3374 L -46.7434,-68.5524 L -46.7858,-68.7744
 L -46.8,-69 L -46.7858,-69.2256 L -46.7434,-69.4476 L -46.6736,-69.6626 L -46.5773,-69.8671 L -46.4562,-70.058
 L -46.3121,-70.2322 L -46.1474,-70.3869 L -45.9645,-70.5198 L -45.7664,-70.6287 L -45.5562,-70.7119 L -45.3373,-70.7681
 L -45.113,-70.7964 L -44.887,-70.7964 L -44.6627,-70.7681 L -44.4438,-70.7119 L -44.2336,-70.6287 L -44.0355,-70.5198
 L -43.8526,-70.3869 L -43.6879,-70.2322 L -43.5438,-70.058 L -43.4226,-69.8671 L -43.3264,-69.6626 L -43.2565,-69.4476
 L -43.2142,-69.2256 L -43.2,-69 L -43.2142,-68.7744 L -43.2565,-68.5524 L -43.3264,-68.3374 L -43.4226,-68.1328
 L -43.5438,-67.942 L -43.6879,-67.7678 L -43.8526,-67.6131 L -44.0355,-67.4802 L -44.2336,-67.3713 L -44.4438,-67.2881
 L -44.6627,-67.2319 L -44.887,-67.2036 z
M 44.887,-37.2036 L 44.6627,-37.2319 L 44.4438,-37.2881 L 44.2336,-37.3713 L 44.0355,-37.4802 L 43.8526,-37.6131
 L 43.6879,-37.7678 L 43.5438,-37.942 L 43.4226,-38.1329 L 43.3264,-38.3374 L 43.2565,-38.5524 L 43.2142,-38.7744
 L 43.2,-39 L 43.2142,-39.2256 L 43.2565,-39.4476 L 43.3264,-39.6626 L 43.4226,-39.8672 L 43.5438,-40.058
 L 43.6879,-40.2322 L 43.8526,-40.3869 L 44.0355,-40.5198 L 44.2336,-40.6287 L 44.4438,-40.7119 L 44.6627,-40.7681
 L 44.887,-40.7964 L 45.113,-40.7964 L 45.3373,-40.7681 L 45.5562,-40.7119 L 45.7664,-40.6287 L 45.9645,-40.5198
 L 46.1474,-40.3869 L 46.3121,-40.2322 L 46.4562,-40.058 L 46.5773,-39.8672 L 46.6736,-39.6626 L 46.7434,-39.4476
 L 46.7858,-39.2256 L 46.8,-39 L 46.7858,-38.7744 L 46.7434,-38.5524 L 46.6736,-38.3374 L 46.5773,-38.1329
 L 46.4562,-37.942 L 46.3121,-37.7678 L 46.1474,-37.6131 L 45.9645,-37.4802 L 45.7664,-37.3713 L 45.5562,-37.2881
 L 45.3373,-37.2319 L 45.113,-37.2036 z
M -45.113,-37.2036 L -45.3373,-37.2319 L -45.5562,-37.2881 L -45.7664,-37.3713 L -45.9645,-37.4802 L -46.1474,-37.6131
 L -46.3121,-37.7678 L -46.4562,-37.942 L -46.5773,-38.1329 L -46.6736,-38.3374 L -46.7434,-38.5524 L -46.7858,-38.7744
 L -46.8,-39 L -46.7858,-39.2256 L -46.7434,-39.4476 L -46.6736,-39.6626 L -46.5773,-39.8672 L -46.4562,-40.058
 L -46.3121,-40.2322 L -46.1474,-40.3869 L -45.9645,-40.5198 L -45.7664,-40.6287 L -45.5562,-40.7119 L -45.3373,-40.7681
 L -45.113,-40.7964 L -44.887,-40.7964 L -44.6627,-40.7681 L -44.4438,-40.7119 L -44.2336,-40.6287 L -44.0355,-40.5198
 L -43.8526,-40.3869 L -43.6879,-40.2322 L -43.5438,-40.058 L -43.4226,-39.8672 L -43.3264,-39.6626 L -43.2565,-39.4476
 L -43.2142,-39.2256 L -43.2,-39 L -43.2142,-38.7744 L -43.2565,-38.5524 L -43.3264,-38.3374 L -43.4226,-38.1329
 L -43.5438,-37.942 L -43.6879,-37.7678 L -43.8526,-37.6131 L -44.0355,-37.4802 L -44.2336,-37.3713 L -44.4438,-37.2881
 L -44.6627,-37.2319 L -44.887,-37.2036 z
" stroke="black" fill="lightgray" stroke-width="0.5"/>
</svg>
