<?xml version="1.0" standalone="no"?>
<!DOCTYPE svg PUBLIC "-//W3C//DTD SVG 1.1//EN" "http://www.w3.org/Graphics/SVG/1.1/DTD/svg11.dtd">
<svg width="60mm" height="220mm" viewBox="-30 -395 60 220" xmlns="http://www.w3.org/2000/svg" version="1.1">
<title>OpenSCAD Model</title>
<path d="
M 25.9369,-289.589 L 26.5451,-289.745 L 27.1289,-289.976 L 27.6791,-290.278 L 28.1871,-290.647 L 28.6448,-291.077
 L 29.0451,-291.561 L 29.3815,-292.091 L 29.6489,-292.659 L 29.8429,-293.257 L 29.9606,-293.873 L 30,-294.5
 L 30,-389.5 L 29.9606,-390.127 L 29.8429,-390.743 L 29.6489,-391.341 L 29.3815,-391.909 L 29.0451,-392.439
 L 28.6448,-392.923 L 28.1871,-393.353 L 27.6791,-393.722 L 27.1289,-394.024 L 26.5451,-394.255 L 25.9369,-394.411
 L 25.3139,-394.49 L -25.3139,-394.49 L -25.9369,-394.411 L -26.5451,-394.255 L -27.1289,-394.024 L -27.6791,-393.722
 L -28.1871,-393.353 L -28.6448,-392.923 L -29.0451,-392.439 L -29.3815,-391.909 L -29.6489,-391.341 L -29.8429,-390.743
 L -29.9606,-390.127 L -30,-389.5 L -30,-294.5 L -29.9606,-293.873 L -29.8429,-293.257 L -29.6489,-292.659
 L -29.3815,-292.091 L -29.0451,-291.561 L -28.6448,-291.077 L -28.1871,-290.647 L -27.6791,-290.278 L -27.1289,-289.976
 L -26.5451,-289.745 L -25.9369,-289.589 L -25.3139,-289.51 L 25.3139,-289.51 z
M -24.6954,-291.893 L -25.0833,-291.942 L -25.4619,-292.039 L -25.8254,-292.183 L -26.168,-292.372 L -26.4842,-292.601
 L -26.7692,-292.869 L -27.0184,-293.17 L -27.2279,-293.5 L -27.3943,-293.854 L -27.5151,-294.226 L -27.5884,-294.61
 L -27.6129,-295 L -27.6129,-389 L -27.5884,-389.39 L -27.5151,-389.774 L -27.3943,-390.146 L -27.2279,-390.5
 L -27.0184,-390.83 L -26.7692,-391.131 L -26.4842,-391.399 L -26.168,-391.628 L -25.8254,-391.817 L -25.4619,-391.961
 L -25.0833,-392.058 L -24.6954,-392.107 L 24.6954,-392.107 L 25.0833,-392.058 L 25.4619,-391.961 L 25.8254,-391.817
 L 26.168,-391.628 L 26.4842,-391.399 L 26.7692,-391.131 L 27.0184,-390.83 L 27.2279,-390.5 L 27.3943,-390.146
 L 27.5151,-389.774 L 27.5884,-389.39 L 27.6129,-389 L 27.6129,-295 L 27.5884,-294.61 L 27.5151,-294.226
 L 27.3943,-293.854 L 27.2279,-293.5 L 27.0184,-293.17 L 26.7692,-292.869 L 26.4842,-292.601 L 26.168,-292.372
 L 25.8254,-292.183 L 25.4619,-292.039 L 25.0833,-291.942 L 24.6954,-291.893 z
M 25.9369,-175.589 L 26.5451,-175.745 L 27.1289,-175.976 L 27.6791,-176.278 L 28.1871,-176.647 L 28.6448,-177.077
 L 29.0451,-177.561 L 29.3815,-178.091 L 29.6489,-178.659 L 29.8429,-179.257 L 29.9606,-179.873 L 30,-180.5
 L 30,-275.5 L 29.9606,-276.127 L 29.8429,-276.743 L 29.6489,-277.341 L 29.3815,-277.909 L 29.0451,-278.439
 L 28.6448,-278.923 L 28.1871,-279.353 L 27.6791,-279.722 L 27.1289,-280.024 L 26.5451,-280.255 L 25.9369,-280.411
 L 25.3139,-280.49 L -25.3139,-280.49 L -25.9369,-280.411 L -26.5451,-280.255 L -27.1289,-280.024 L -27.6791,-279.722
 L -28.1871,-279.353 L -28.6448,-278.923 L -29.0451,-278.439 L -29.3815,-277.909 L -29.6489,-277.341 L -29.8429,-276.743
 L -29.9606,-276.127 L -30,-275.5 L -30,-180.5 L -29.9606,-179.873 L -29.8429,-179.257 L -29.6489,-178.659
 L -29.3815,-178.091 L -29.0451,-177.561 L -28.6448,-177.077 L -28.1871,-176.647 L -27.6791,-176.278 L -27.1289,-175.976
 L -26.5451,-175.745 L -25.9369,-175.589 L -25.3139,-175.51 L 25.3139,-175.51 z
M 22.3659,-270.869 L 22.0999,-270.903 L 21.8401,-270.969 L 21.5908,-271.068 L 21.3559,-271.197 L 21.1389,-271.355
 L 20.9434,-271.538 L 20.7725,-271.745 L 20.6288,-271.971 L 20.5146,-272.214 L 20.4318,-272.469 L 20.3815,-272.732
 L 20.3647,-273 L 20.3815,-273.268 L 20.4318,-273.531 L 20.5146,-273.786 L 20.6288,-274.029 L 20.7725,-274.255
 L 20.9434,-274.462 L 21.1389,-274.645 L 21.3559,-274.803 L 21.5908,-274.932 L 21.8401,-275.031 L 22.0999,-275.097
 L 22.3659,-275.131 L 22.6341,-275.131 L 22.9001,-275.097 L 23.1598,-275.031 L 23.4091,-274.932 L 23.6441,-274.803
 L 23.8611,-274.645 L 24.0565,-274.462 L 24.2275,-274.255 L 24.3712,-274.029 L 24.4853,-273.786 L 24.5682,-273.531
 L 24.6185,-273.268 L 24.6353,-273 L 24.6185,-272.732 L 24.5682,-272.469 L 24.4853,-272.214 L 24.3712,-271.971
 L 24.2275,-271.745 L 24.0565,-271.538 L 23.8611,-271.355 L 23.6441,-271.197 L 23.4091,-271.068 L 23.1598,-270.969
 L 22.9001,-270.903 L 22.6341,-270.869 z
M -22.6341,-270.869 L -22.9001,-270.903 L -23.1598,-270.969 L -23.4091,-271.068 L -23.6441,-271.197 L -23.8611,-271.355
 L -24.0565,-271.538 L -24.2275,-271.745 L -24.3712,-271.971 L -24.4853,-272.214 L -24.5682,-272.469 L -24.6185,-272.732
 L -24.6353,-273 L -24.6185,-273.268 L -24.5682,-273.531 L -24.4853,-273.786 L -24.3712,-274.029 L -24.2275,-274.255
 L -24.0565,-274.462 L -23.8611,-274.645 L -23.6441,-274.803 L -23.4091,-274.932 L -23.1598,-275.031 L -22.9001,-275.097
 L -22.6341,-275.131 L -22.3659,-275.131 L -22.0999,-275.097 L -21.8401,-275.031 L -21.5908,-274.932 L -21.3559,-274.803
 L -21.1389,-274.645 L -20.9434,-274.462 L -20.7725,-274.255 L -20.6288,-274.029 L -20.5146,-273.786 L -20.4318,-273.531
 L -20.3815,-273.268 L -20.3647,-273 L -20.3815,-272.732 L -20.4318,-272.469 L -20.5146,-272.214 L -20.6288,-271.971
 L -20.7725,-271.745 L -20.9434,-271.538 L -21.1389,-271.355 L -21.3559,-271.197 L -21.5908,-271.068 L -21.8401,-270.969
 L -22.0999,-270.903 L -22.3659,-270.869 z
M 22.3659,-180.869 L 22.0999,-180.903 L 21.8401,-180.969 L 21.5908,-181.068 L 21.3559,-181.197 L 21.1389,-181.355
 L 20.9434,-181.538 L 20.7725,-181.745 L 20.6288,-181.971 L 20.5146,-182.214 L 20.4318,-182.469 L 20.3815,-182.732
 L 20.3647,-183 L 20.3815,-183.268 L 20.4318,-183.531 L 20.5146,-183.786 L 20.6288,-184.029 L 20.7725,-184.255
 L 20.9434,-184.462 L 21.1389,-184.645 L 21.3559,-184.803 L 21.5908,-184.932 L 21.8401,-185.031 L 22.0999,-185.097
 L 22.3659,-185.131 L 22.6341,-185.131 L 22.9001,-185.097 L 23.1598,-185.031 L 23.4091,-184.932 L 23.6441,-184.803
 L 23.8611,-184.645 L 24.0565,-184.462 L 24.2275,-184.255 L 24.3712,-184.029 L 24.4853,-183.786 L 24.5682,-183.531
 L 24.6185,-183.268 L 24.6353,-183 L 24.6185,-182.732 L 24.5682,-182.469 L 24.4853,-182.214 L 24.3712,-181.971
 L 24.2275,-181.745 L 24.0565,-181.538 L 23.8611,-181.355 L 23.6441,-181.197 L 23.4091,-181.068 L 23.1598,-180.969
 L 22.9001,-180.903 L 22.6341,-180.869 z
M -22.6341,-180.869 L -22.9001,-180.903 L -23.1598,-180.969 L -23.4091,-181.068 L -23.6441,-181.197 L -23.8611,-181.355
 L -24.0565,-181.538 L -24.2275,-181.745 L -24.3712,-181.971 L -24.4853,-182.214 L -24.5682,-182.469 L -24.6185,-182.732
 L -24.6353,-183 L -24.6185,-183.268 L -24.5682,-183.531 L -24.4853,-183.786 L -24.3712,-184.029 L -24.2275,-184.255
 L -24.0565,-184.462 L -23.8611,-184.645 L -23.6441,-184.803 L -23.4091,-184.932 L -23.1598,-185.031 L -22.9001,-185.097
 L -22.6341,-185.131 L -22.3659,-185.131 L -22.0999,-185.097 L -21.8401,-185.031 L -21.5908,-184.932 L -21.3559,-184.803
 L -21.1389,-184.645 L -20.9434,-184.462 L -20.7725,-184.255 L -20.6288,-184.029 L -20.5146,-183.786 L -20.4318,-183.531
 L -20.3815,-183.268 L -20.3647,-183 L -20.3815,-182.732 L -20.4318,-182.469 L -20.5146,-182.214 L -20.6288,-181.971
 L -20.7725,-181.745 L -20.9434,-181.538 L -21.1389,-181.355 L -21.3559,-181.197 L -21.5908,-181.068 L -21.8401,-180.969
 L -22.0999,-180.903 L -22.3659,-180.869 z
" stroke="black" fill="lightgray" stroke-width="0.5"/>
</svg>
