<?xml version="1.0" standalone="no"?>
<!DOCTYPE svg PUBLIC "-//W3C//DTD SVG 1.1//EN" "http://www.w3.org/Graphics/SVG/1.1/DTD/svg11.dtd">
<svg width="46mm" height="514mm" viewBox="-23 -953 46 514" xmlns="http://www.w3.org/2000/svg" version="1.1">
<title>OpenSCAD Model</title>
<path d="
M 18.4369,-787.589 L 19.0451,-787.745 L 19.6289,-787.976 L 20.1791,-788.278 L 20.6871,-788.647 L 21.1448,-789.077
 L 21.5451,-789.561 L 21.8815,-790.091 L 22.1489,-790.659 L 22.3429,-791.257 L 22.4606,-791.873 L 22.5,-792.5
 L 22.5,-947.5 L 22.4606,-948.127 L 22.3429,-948.743 L 22.1489,-949.341 L 21.8815,-949.909 L 21.5451,-950.439
 L 21.1448,-950.923 L 20.6871,-951.353 L 20.1791,-951.722 L 19.6289,-952.024 L 19.0451,-952.255 L 18.4369,-952.411
 L 17.8139,-952.49 L -17.8139,-952.49 L -18.4369,-952.411 L -19.0451,-952.255 L -19.6289,-952.024 L -20.1791,-951.722
 L -20.6871,-951.353 L -21.1448,-950.923 L -21.5451,-950.439 L -21.8815,-949.909 L -22.1489,-949.341 L -22.3429,-948.743
 L -22.4606,-948.127 L -22.5,-947.5 L -22.5,-792.5 L -22.4606,-791.873 L -22.3429,-791.257 L -22.1489,-790.659
 L -21.8815,-790.091 L -21.5451,-789.561 L -21.1448,-789.077 L -20.6871,-788.647 L -20.1791,-788.278 L -19.6289,-787.976
 L -19.0451,-787.745 L -18.4369,-787.589 L -17.8139,-787.51 L 17.8139,-787.51 z
M -17.2512,-789.008 L -17.7495,-789.071 L -18.2361,-789.196 L -18.7031,-789.381 L -19.1433,-789.623 L -19.5497,-789.918
 L -19.9159,-790.262 L -20.2361,-790.649 L -20.5052,-791.073 L -20.7191,-791.528 L -20.8743,-792.005 L -20.9684,-792.499
 L -21,-793 L -21,-947 L -20.9684,-947.501 L -20.8743,-947.995 L -20.7191,-948.472 L -20.5052,-948.927
 L -20.2361,-949.351 L -19.9159,-949.738 L -19.5497,-950.082 L -19.1433,-950.377 L -18.7031,-950.619 L -18.2361,-950.804
 L -17.7495,-950.929 L -17.2512,-950.992 L 17.2512,-950.992 L 17.7495,-950.929 L 18.2361,-950.804 L 18.7031,-950.619
 L 19.1433,-950.377 L 19.5497,-950.082 L 19.9159,-949.738 L 20.2361,-949.351 L 20.5052,-948.927 L 20.7191,-948.472
 L 20.8743,-947.995 L 20.9684,-947.501 L 21,-947 L 21,-793 L 20.9684,-792.499 L 20.8743,-792.005
 L 20.7191,-791.528 L 20.5052,-791.073 L 20.2361,-790.649 L 19.9159,-790.262 L 19.5497,-789.918 L 19.1433,-789.623
 L 18.7031,-789.381 L 18.2361,-789.196 L 17.7495,-789.071 L 17.2512,-789.008 z
M 18.4369,-613.589 L 19.0451,-613.745 L 19.6289,-613.976 L 20.1791,-614.278 L 20.6871,-614.647 L 21.1448,-615.077
 L 21.5451,-615.561 L 21.8815,-616.091 L 22.1489,-616.659 L 22.3429,-617.257 L 22.4606,-617.873 L 22.5,-618.5
 L 22.5,-773.5 L 22.4606,-774.127 L 22.3429,-774.743 L 22.1489,-775.341 L 21.8815,-775.909 L 21.5451,-776.439
 L 21.1448,-776.923 L 20.6871,-777.353 L 20.1791,-777.722 L 19.6289,-778.024 L 19.0451,-778.255 L 18.4369,-778.411
 L 17.8139,-778.49 L -17.8139,-778.49 L -18.4369,-778.411 L -19.0451,-778.255 L -19.6289,-778.024 L -20.1791,-777.722
 L -20.6871,-777.353 L -21.1448,-776.923 L -21.5451,-776.439 L -21.8815,-775.909 L -22.1489,-775.341 L -22.3429,-774.743
 L -22.4606,-774.127 L -22.5,-773.5 L -22.5,-618.5 L -22.4606,-617.873 L -22.3429,-617.257 L -22.1489,-616.659
 L -21.8815,-616.091 L -21.5451,-615.561 L -21.1448,-615.077 L -20.6871,-614.647 L -20.1791,-614.278 L -19.6289,-613.976
 L -19.0451,-613.745 L -18.4369,-613.589 L -17.8139,-613.51 L 17.8139,-613.51 z
M -17.1954,-615.893 L -17.5833,-615.942 L -17.9619,-616.039 L -18.3254,-616.183 L -18.668,-616.372 L -18.9842,-616.601
 L -19.2692,-616.869 L -19.5184,-617.17 L -19.7279,-617.5 L -19.8943,-617.854 L -20.0151,-618.226 L -20.0884,-618.61
 L -20.1129,-619 L -20.1129,-773 L -20.0884,-773.39 L -20.0151,-773.774 L -19.8943,-774.146 L -19.7279,-774.5
 L -19.5184,-774.83 L -19.2692,-775.131 L -18.9842,-775.399 L -18.668,-775.628 L -18.3254,-775.817 L -17.9619,-775.961
 L -17.5833,-776.058 L -17.1954,-776.107 L 17.1954,-776.107 L 17.5833,-776.058 L 17.9619,-775.961 L 18.3254,-775.817
 L 18.668,-775.628 L 18.9842,-775.399 L 19.2692,-775.131 L 19.5184,-774.83 L 19.7279,-774.5 L 19.8943,-774.146
 L 20.0151,-773.774 L 20.0884,-773.39 L 20.1129,-773 L 20.1129,-619 L 20.0884,-618.61 L 20.0151,-618.226
 L 19.8943,-617.854 L 19.7279,-617.5 L 19.5184,-617.17 L 19.2692,-616.869 L 18.9842,-616.601 L 18.668,-616.372
 L 18.3254,-616.183 L 17.9619,-616.039 L 17.5833,-615.942 L 17.1954,-615.893 z
M 18.4369,-439.589 L 19.0451,-439.745 L 19.6289,-439.976 L 20.1791,-440.278 L 20.6871,-440.647 L 21.1448,-441.077
 L 21.5451,-441.561 L 21.8815,-442.091 L 22.1489,-442.659 L 22.3429,-443.257 L 22.4606,-443.873 L 22.5,-444.5
 L 22.5,-599.5 L 22.4606,-600.127 L 22.3429,-600.743 L 22.1489,-601.341 L 21.8815,-601.909 L 21.5451,-602.439
 L 21.1448,-602.923 L 20.6871,-603.353 L 20.1791,-603.722 L 19.6289,-604.024 L 19.0451,-604.255 L 18.4369,-604.411
 L 17.8139,-604.49 L -17.8139,-604.49 L -18.4369,-604.411 L -19.0451,-604.255 L -19.6289,-604.024 L -20.1791,-603.722
 L -20.6871,-603.353 L -21.1448,-602.923 L -21.5451,-602.439 L -21.8815,-601.909 L -22.1489,-601.341 L -22.3429,-600.743
 L -22.4606,-600.127 L -22.5,-599.5 L -22.5,-444.5 L -22.4606,-443.873 L -22.3429,-443.257 L -22.1489,-442.659
 L -21.8815,-442.091 L -21.5451,-441.561 L -21.1448,-441.077 L -20.6871,-440.647 L -20.1791,-440.278 L -19.6289,-439.976
 L -19.0451,-439.745 L -18.4369,-439.589 L -17.8139,-439.51 L 17.8139,-439.51 z
M 14.8659,-594.869 L 14.5999,-594.903 L 14.3401,-594.969 L 14.0908,-595.068 L 13.8559,-595.197 L 13.6389,-595.355
 L 13.4434,-595.538 L 13.2725,-595.745 L 13.1288,-595.971 L 13.0146,-596.214 L 12.9318,-596.469 L 12.8815,-596.732
 L 12.8647,-597 L 12.8815,-597.268 L 12.9318,-597.531 L 13.0146,-597.786 L 13.1288,-598.029 L 13.2725,-598.255
 L 13.4434,-598.462 L 13.6389,-598.645 L 13.8559,-598.803 L 14.0908,-598.932 L 14.3401,-599.031 L 14.5999,-599.097
 L 14.8659,-599.131 L 15.1341,-599.131 L 15.4001,-599.097 L 15.6598,-599.031 L 15.9091,-598.932 L 16.1441,-598.803
 L 16.3611,-598.645 L 16.5565,-598.462 L 16.7275,-598.255 L 16.8712,-598.029 L 16.9853,-597.786 L 17.0682,-597.531
 L 17.1185,-597.268 L 17.1353,-597 L 17.1185,-596.732 L 17.0682,-596.469 L 16.9853,-596.214 L 16.8712,-595.971
 L 16.7275,-595.745 L 16.5565,-595.538 L 16.3611,-595.355 L 16.1441,-595.197 L 15.9091,-595.068 L 15.6598,-594.969
 L 15.4001,-594.903 L 15.1341,-594.869 z
M -15.1341,-594.869 L -15.4001,-594.903 L -15.6598,-594.969 L -15.9091,-595.068 L -16.1441,-595.197 L -16.3611,-595.355
 L -16.5565,-595.538 L -16.7275,-595.745 L -16.8712,-595.971 L -16.9853,-596.214 L -17.0682,-596.469 L -17.1185,-596.732
 L -17.1353,-597 L -17.1185,-597.268 L -17.0682,-597.531 L -16.9853,-597.786 L -16.8712,-598.029 L -16.7275,-598.255
 L -16.5565,-598.462 L -16.3611,-598.645 L -16.1441,-598.803 L -15.9091,-598.932 L -15.6598,-599.031 L -15.4001,-599.097
 L -15.1341,-599.131 L -14.8659,-599.131 L -14.5999,-599.097 L -14.3401,-599.031 L -14.0908,-598.932 L -13.8559,-598.803
 L -13.6389,-598.645 L -13.4434,-598.462 L -13.2725,-598.255 L -13.1288,-598.029 L -13.0146,-597.786 L -12.9318,-597.531
 L -12.8815,-597.268 L -12.8647,-597 L -12.8815,-596.732 L -12.9318,-596.469 L -13.0146,-596.214 L -13.1288,-595.971
 L -13.2725,-595.745 L -13.4434,-595.538 L -13.6389,-595.355 L -13.8559,-595.197 L -14.0908,-595.068 L -14.3401,-594.969
 L -14.5999,-594.903 L -14.8659,-594.869 z
M 14.8659,-444.869 L 14.5999,-444.903 L 14.3401,-444.969 L 14.0908,-445.068 L 13.8559,-445.197 L 13.6389,-445.355
 L 13.4434,-445.538 L 13.2725,-445.745 L 13.1288,-445.971 L 13.0146,-446.214 L 12.9318,-446.469 L 12.8815,-446.732
 L 12.8647,-447 L 12.8815,-447.268 L 12.9318,-447.531 L 13.0146,-447.786 L 13.1288,-448.029 L 13.2725,-448.255
 L 13.4434,-448.462 L 13.6389,-448.645 L 13.8559,-448.803 L 14.0908,-448.932 L 14.3401,-449.031 L 14.5999,-449.097
 L 14.8659,-449.131 L 15.1341,-449.131 L 15.4001,-449.097 L 15.6598,-449.031 L 15.9091,-448.932 L 16.1441,-448.803
 L 16.3611,-448.645 L 16.5565,-448.462 L 16.7275,-448.255 L 16.8712,-448.029 L 16.9853,-447.786 L 17.0682,-447.531
 L 17.1185,-447.268 L 17.1353,-447 L 17.1185,-446.732 L 17.0682,-446.469 L 16.9853,-446.214 L 16.8712,-445.971
 L 16.7275,-445.745 L 16.5565,-445.538 L 16.3611,-445.355 L 16.1441,-445.197 L 15.9091,-445.068 L 15.6598,-444.969
 L 15.4001,-444.903 L 15.1341,-444.869 z
M -15.1341,-444.869 L -15.4001,-444.903 L -15.6598,-444.969 L -15.9091,-445.068 L -16.1441,-445.197 L -16.3611,-445.355
 L -16.5565,-445.538 L -16.7275,-445.745 L -16.8712,-445.971 L -16.9853,-446.214 L -17.0682,-446.469 L -17.1185,-446.732
 L -17.1353,-447 L -17.1185,-447.268 L -17.0682,-447.531 L -16.9853,-447.786 L -16.8712,-448.029 L -16.7275,-448.255
 L -16.5565,-448.462 L -16.3611,-448.645 L -16.1441,-448.803 L -15.9091,-448.932 L -15.6598,-449.031 L -15.4001,-449.097
 L -15.1341,-449.131 L -14.8659,-449.131 L -14.5999,-449.097 L -14.3401,-449.031 L -14.0908,-448.932 L -13.8559,-448.803
 L -13.6389,-448.645 L -13.4434,-448.462 L -13.2725,-448.255 L -13.1288,-448.029 L -13.0146,-447.786 L -12.9318,-447.531
 L -12.8815,-447.268 L -12.8647,-447 L -12.8815,-446.732 L -12.9318,-446.469 L -13.0146,-446.214 L -13.1288,-445.971
 L -13.2725,-445.745 L -13.4434,-445.538 L -13.6389,-445.355 L -13.8559,-445.197 L -14.0908,-445.068 L -14.3401,-444.969
 L -14.5999,-444.903 L -14.8659,-444.869 z
" stroke="black" fill="lightgray" stroke-width="0.5"/>
</svg>
