<?xml version="1.0" standalone="no"?>
<!DOCTYPE svg PUBLIC "-//W3C//DTD SVG 1.1//EN" "http://www.w3.org/Graphics/SVG/1.1/DTD/svg11.dtd">
<svg width="17mm" height="64mm" viewBox="-9 -104 17 64" xmlns="http://www.w3.org/2000/svg" version="1.1">
<title>OpenSCAD Model</title>
<path d="
M -6,-91.5099 L -5.46725,-90.8659 L -4.78067,-90.2212 L -4.01869,-89.6675 L -3.19334,-89.2138 L -2.31763,-88.8671
 L -1.40535,-88.6329 L -0.470917,-88.5148 L 0.470917,-88.5148 L 1.40535,-88.6329 L 2.31763,-88.8671 L 3.19334,-89.2138
 L 4.01869,-89.6675 L 4.78067,-90.2212 L 5.46725,-90.8659 L 6.06763,-91.5916 L 6.5723,-92.3869 L 6.97331,-93.2391
 L 7.26436,-94.1348 L 7.44086,-95.06 L 7.5,-96 L 7.44086,-96.94 L 7.26436,-97.8652 L 6.97331,-98.7609
 L 6.5723,-99.6131 L 6.06763,-100.408 L 5.46725,-101.134 L 4.78067,-101.779 L 4.01869,-102.332 L 3.19334,-102.786
 L 2.31763,-103.133 L 1.40535,-103.367 L 0.470917,-103.485 L -0.470917,-103.485 L -1.40535,-103.367 L -2.31763,-103.133
 L -3.19334,-102.786 L -4.01869,-102.332 L -4.78067,-101.779 L -5.46725,-101.134 L -6,-100.49 L -6,-103.49
 L -9,-103.49 L -9,-88.5099 L -6,-88.5099 z
M -2.24316,-90.135 L -2.72565,-90.196 L -3.1967,-90.3169 L -3.64888,-90.4959 L -4.07506,-90.7302 L -4.46851,-91.0161
 L -4.82301,-91.349 L -5.13301,-91.7237 L -5.3936,-92.1344 L -5.60068,-92.5744 L -5.75096,-93.0369 L -5.84209,-93.5146
 L -5.87262,-94 L -5.87262,-98 L -5.84209,-98.4854 L -5.75096,-98.9631 L -5.60068,-99.4256 L -5.3936,-99.8656
 L -5.13301,-100.276 L -4.82301,-100.651 L -4.46851,-100.984 L -4.07506,-101.27 L -3.64888,-101.504 L -3.1967,-101.683
 L -2.72565,-101.804 L -2.24316,-101.865 L 2.24316,-101.865 L 2.72565,-101.804 L 3.1967,-101.683 L 3.64888,-101.504
 L 4.07506,-101.27 L 4.46851,-100.984 L 4.82301,-100.651 L 5.13301,-100.276 L 5.3936,-99.8656 L 5.60068,-99.4256
 L 5.75096,-98.9631 L 5.84209,-98.4854 L 5.87262,-98 L 5.87262,-94 L 5.84209,-93.5146 L 5.75096,-93.0369
 L 5.60068,-92.5744 L 5.3936,-92.1344 L 5.13301,-91.7237 L 4.82301,-91.349 L 4.46851,-91.0161 L 4.07506,-90.7302
 L 3.64888,-90.4959 L 3.1967,-90.3169 L 2.72565,-90.196 L 2.24316,-90.135 z
M 1.40535,-64.6329 L 2.31763,-64.8671 L 3.19334,-65.2138 L 4.01869,-65.6675 L 4.78067,-66.2212 L 5.46725,-66.8659
 L 6.06763,-67.5916 L 6.5723,-68.3869 L 6.97331,-69.2391 L 7.26436,-70.1348 L 7.44086,-71.06 L 7.5,-72
 L 7.44086,-72.94 L 7.26436,-73.8652 L 6.97331,-74.7609 L 6.5723,-75.6131 L 6.06763,-76.4084 L 5.46725,-77.1341
 L 4.78067,-77.7788 L 4.01869,-78.3325 L 3.19334,-78.7862 L 2.31763,-79.1329 L 1.40535,-79.3671 L 0.470917,-79.4852
 L -0.470917,-79.4852 L -1.40535,-79.3671 L -2.31763,-79.1329 L -3.19334,-78.7862 L -4.01869,-78.3325 L -4.78067,-77.7788
 L -5.46725,-77.1341 L -6,-76.4901 L -6,-79.1148 L -9,-79.1148 L -9,-64.8852 L -6,-64.8852
 L -6,-67.5099 L -5.46725,-66.8659 L -4.78067,-66.2212 L -4.01869,-65.6675 L -3.19334,-65.2138 L -2.31763,-64.8671
 L -1.40535,-64.6329 L -0.470917,-64.5148 L 0.470917,-64.5148 z
M 1.40535,-40.6329 L 2.31763,-40.8671 L 3.19334,-41.2138 L 4.01869,-41.6675 L 4.78067,-42.2212 L 5.46725,-42.8659
 L 6.06763,-43.5916 L 6.5723,-44.3869 L 6.97331,-45.2391 L 7.26436,-46.1348 L 7.44086,-47.06 L 7.5,-48
 L 7.44086,-48.94 L 7.26436,-49.8652 L 6.97331,-50.7609 L 6.5723,-51.6131 L 6.06763,-52.4084 L 5.46725,-53.1341
 L 4.78067,-53.7788 L 4.01869,-54.3325 L 3.19334,-54.7862 L 2.31763,-55.1329 L 1.40535,-55.3671 L 0.470917,-55.4852
 L -0.470917,-55.4852 L -1.40535,-55.3671 L -2.31763,-55.1329 L -3.19334,-54.7862 L -4.01869,-54.3325 L -4.78067,-53.7788
 L -5.46725,-53.1341 L -6.06763,-52.4084 L -6.5723,-51.6131 L -6.65179,-51.4442 L -9,-51.4442 L -9,-44.5558
 L -6.65179,-44.5558 L -6.5723,-44.3869 L -6.06763,-43.5916 L -5.46725,-42.8659 L -4.78067,-42.2212 L -4.01869,-41.6675
 L -3.19334,-41.2138 L -2.31763,-40.8671 L -1.40535,-40.6329 L -0.470917,-40.5148 L 0.470917,-40.5148 z
M -0.113022,-46.2036 L -0.33728,-46.2319 L -0.556229,-46.2881 L -0.766388,-46.3713 L -0.964478,-46.4802 L -1.14735,-46.6131
 L -1.31213,-46.7678 L -1.45622,-46.942 L -1.57735,-47.1329 L -1.67358,-47.3374 L -1.74344,-47.5524 L -1.7858,-47.7744
 L -1.79999,-48 L -1.7858,-48.2256 L -1.74344,-48.4476 L -1.67358,-48.6626 L -1.57735,-48.8671 L -1.45622,-49.058
 L -1.31213,-49.2322 L -1.14735,-49.3869 L -0.964478,-49.5198 L -0.766388,-49.6287 L -0.556229,-49.7119 L -0.33728,-49.7681
 L -0.113022,-49.7964 L 0.113022,-49.7964 L 0.33728,-49.7681 L 0.556229,-49.7119 L 0.766388,-49.6287 L 0.964478,-49.5198
 L 1.14735,-49.3869 L 1.31213,-49.2322 L 1.45622,-49.058 L 1.57735,-48.8671 L 1.67358,-48.6626 L 1.74344,-48.4476
 L 1.7858,-48.2256 L 1.79999,-48 L 1.7858,-47.7744 L 1.74344,-47.5524 L 1.67358,-47.3374 L 1.57735,-47.1329
 L 1.45622,-46.942 L 1.31213,-46.7678 L 1.14735,-46.6131 L 0.964478,-46.4802 L 0.766388,-46.3713 L 0.556229,-46.2881
 L 0.33728,-46.2319 L 0.113022,-46.2036 z
" stroke="black" fill="lightgray" stroke-width="0.5"/>
</svg>
