<?xml version="1.0" standalone="no"?>
<!DOCTYPE svg PUBLIC "-//W3C//DTD SVG 1.1//EN" "http://www.w3.org/Graphics/SVG/1.1/DTD/svg11.dtd">
<svg width="77mm" height="69mm" viewBox="-39 -132 77 69" xmlns="http://www.w3.org/2000/svg" version="1.1">
<title>OpenSCAD Model</title>
<path d="
M 33.4369,-102.089 L 34.0451,-102.245 L 34.6289,-102.476 L 35.1791,-102.778 L 35.6871,-103.147 L 36.1448,-103.577
 L 36.5451,-104.061 L 36.8815,-104.591 L 37.1489,-105.159 L 37.3429,-105.757 L 37.4606,-106.373 L 37.5,-107
 L 37.5,-127 L 37.4606,-127.627 L 37.3429,-128.243 L 37.1489,-128.841 L 36.8815,-129.409 L 36.5451,-129.939
 L 36.1448,-130.423 L 35.6871,-130.853 L 35.1791,-131.222 L 34.6289,-131.524 L 34.0451,-131.755 L 33.4369,-131.911
 L 32.8139,-131.99 L -32.8139,-131.99 L -33.4369,-131.911 L -34.0451,-131.755 L -34.6289,-131.524 L -35.1791,-131.222
 L -35.6871,-130.853 L -36,-130.559 L -36,-131.979 L -39,-131.979 L -39,-102.021 L -36,-102.021
 L -36,-103.441 L -35.6871,-103.147 L -35.1791,-102.778 L -34.6289,-102.476 L -34.0451,-102.245 L -33.4369,-102.089
 L -32.8139,-102.01 L 32.8139,-102.01 z
M -32.1954,-104.393 L -32.5833,-104.442 L -32.9619,-104.539 L -33.3254,-104.683 L -33.668,-104.872 L -33.9842,-105.101
 L -34.2692,-105.369 L -34.5184,-105.67 L -34.7279,-106 L -34.8943,-106.354 L -35.0151,-106.726 L -35.0884,-107.11
 L -35.1129,-107.5 L -35.1129,-126.5 L -35.0884,-126.89 L -35.0151,-127.274 L -34.8943,-127.646 L -34.7279,-128
 L -34.5184,-128.33 L -34.2692,-128.631 L -33.9842,-128.899 L -33.668,-129.128 L -33.3254,-129.317 L -32.9619,-129.461
 L -32.5833,-129.558 L -32.1954,-129.607 L 32.1954,-129.607 L 32.5833,-129.558 L 32.9619,-129.461 L 33.3254,-129.317
 L 33.668,-129.128 L 33.9842,-128.899 L 34.2692,-128.631 L 34.5184,-128.33 L 34.7279,-128 L 34.8943,-127.646
 L 35.0151,-127.274 L 35.0884,-126.89 L 35.1129,-126.5 L 35.1129,-107.5 L 35.0884,-107.11 L 35.0151,-106.726
 L 34.8943,-106.354 L 34.7279,-106 L 34.5184,-105.67 L 34.2692,-105.369 L 33.9842,-105.101 L 33.668,-104.872
 L 33.3254,-104.683 L 32.9619,-104.539 L 32.5833,-104.442 L 32.1954,-104.393 z
M 33.4369,-63.0886 L 34.0451,-63.2447 L 34.6289,-63.4759 L 35.1791,-63.7784 L 35.6871,-64.1474 L 36.1448,-64.5773
 L 36.5451,-65.0611 L 36.8815,-65.5912 L 37.1489,-66.1594 L 37.3429,-66.7566 L 37.4606,-67.3733 L 37.5,-68
 L 37.5,-88 L 37.4606,-88.6267 L 37.3429,-89.2434 L 37.1489,-89.8406 L 36.8815,-90.4088 L 36.5451,-90.9389
 L 36.1448,-91.4227 L 35.6871,-91.8526 L 35.1791,-92.2216 L 34.6289,-92.5241 L 34.0451,-92.7553 L 33.4369,-92.9114
 L 32.8139,-92.9901 L -32.8139,-92.9901 L -33.4369,-92.9114 L -34.0451,-92.7553 L -34.6289,-92.5241 L -35.1791,-92.2216
 L -35.6871,-91.8526 L -36,-91.5587 L -36,-91.6526 L -39,-91.6526 L -39,-64.3474 L -36,-64.3474
 L -36,-64.4413 L -35.6871,-64.1474 L -35.1791,-63.7784 L -34.6289,-63.4759 L -34.0451,-63.2447 L -33.4369,-63.0886
 L -32.8139,-63.0099 L 32.8139,-63.0099 z
M 29.8659,-83.3689 L 29.5999,-83.4025 L 29.3401,-83.4692 L 29.0908,-83.5679 L 28.8559,-83.6971 L 28.6389,-83.8547
 L 28.4434,-84.0383 L 28.2725,-84.2449 L 28.1288,-84.4713 L 28.0146,-84.7139 L 27.9318,-84.969 L 27.8815,-85.2324
 L 27.8647,-85.5 L 27.8815,-85.7676 L 27.9318,-86.031 L 28.0146,-86.286 L 28.1288,-86.5287 L 28.2725,-86.7551
 L 28.4434,-86.9617 L 28.6389,-87.1453 L 28.8559,-87.3029 L 29.0908,-87.4321 L 29.3401,-87.5308 L 29.5999,-87.5975
 L 29.8659,-87.6311 L 30.1341,-87.6311 L 30.4001,-87.5975 L 30.6598,-87.5308 L 30.9091,-87.4321 L 31.1441,-87.3029
 L 31.3611,-87.1453 L 31.5565,-86.9617 L 31.7275,-86.7551 L 31.8712,-86.5287 L 31.9853,-86.286 L 32.0682,-86.031
 L 32.1185,-85.7676 L 32.1353,-85.5 L 32.1185,-85.2324 L 32.0682,-84.969 L 31.9853,-84.7139 L 31.8712,-84.4713
 L 31.7275,-84.2449 L 31.5565,-84.0383 L 31.3611,-83.8547 L 31.1441,-83.6971 L 30.9091,-83.5679 L 30.6598,-83.4692
 L 30.4001,-83.4025 L 30.1341,-83.3689 z
M -30.1341,-83.3689 L -30.4001,-83.4025 L -30.6598,-83.4692 L -30.9091,-83.5679 L -31.1441,-83.6971 L -31.3611,-83.8547
 L -31.5565,-84.0383 L -31.7275,-84.2449 L -31.8712,-84.4713 L -31.9853,-84.7139 L -32.0682,-84.969 L -32.1185,-85.2324
 L -32.1353,-85.5 L -32.1185,-85.7676 L -32.0682,-86.031 L -31.9853,-86.286 L -31.8712,-86.5287 L -31.7275,-86.7551
 L -31.5565,-86.9617 L -31.3611,-87.1453 L -31.1441,-87.3029 L -30.9091,-87.4321 L -30.6598,-87.5308 L -30.4001,-87.5975
 L -30.1341,-87.6311 L -29.8659,-87.6311 L -29.5999,-87.5975 L -29.3401,-87.5308 L -29.0908,-87.4321 L -28.8559,-87.3029
 L -28.6389,-87.1453 L -28.4434,-86.9617 L -28.2725,-86.7551 L -28.1288,-86.5287 L -28.0146,-86.286 L -27.9318,-86.031
 L -27.8815,-85.7676 L -27.8647,-85.5 L -27.8815,-85.2324 L -27.9318,-84.969 L -28.0146,-84.7139 L -28.1288,-84.4713
 L -28.2725,-84.2449 L -28.4434,-84.0383 L -28.6389,-83.8547 L -28.8559,-83.6971 L -29.0908,-83.5679 L -29.3401,-83.4692
 L -29.5999,-83.4025 L -29.8659,-83.3689 z
M 29.8659,-68.3689 L 29.5999,-68.4025 L 29.3401,-68.4692 L 29.0908,-68.5679 L 28.8559,-68.6971 L 28.6389,-68.8547
 L 28.4434,-69.0383 L 28.2725,-69.2449 L 28.1288,-69.4713 L 28.0146,-69.714 L 27.9318,-69.969 L 27.8815,-70.2324
 L 27.8647,-70.5 L 27.8815,-70.7676 L 27.9318,-71.031 L 28.0146,-71.2861 L 28.1288,-71.5287 L 28.2725,-71.7551
 L 28.4434,-71.9617 L 28.6389,-72.1453 L 28.8559,-72.3029 L 29.0908,-72.4321 L 29.3401,-72.5308 L 29.5999,-72.5975
 L 29.8659,-72.6311 L 30.1341,-72.6311 L 30.4001,-72.5975 L 30.6598,-72.5308 L 30.9091,-72.4321 L 31.1441,-72.3029
 L 31.3611,-72.1453 L 31.5565,-71.9617 L 31.7275,-71.7551 L 31.8712,-71.5287 L 31.9853,-71.2861 L 32.0682,-71.031
 L 32.1185,-70.7676 L 32.1353,-70.5 L 32.1185,-70.2324 L 32.0682,-69.969 L 31.9853,-69.714 L 31.8712,-69.4713
 L 31.7275,-69.2449 L 31.5565,-69.0383 L 31.3611,-68.8547 L 31.1441,-68.6971 L 30.9091,-68.5679 L 30.6598,-68.4692
 L 30.4001,-68.4025 L 30.1341,-68.3689 z
M -30.1341,-68.3689 L -30.4001,-68.4025 L -30.6598,-68.4692 L -30.9091,-68.5679 L -31.1441,-68.6971 L -31.3611,-68.8547
 L -31.5565,-69.0383 L -31.7275,-69.2449 L -31.8712,-69.4713 L -31.9853,-69.714 L -32.0682,-69.969 L -32.1185,-70.2324
 L -32.1353,-70.5 L -32.1185,-70.7676 L -32.0682,-71.031 L -31.9853,-71.2861 L -31.8712,-71.5287 L -31.7275,-71.7551
 L -31.5565,-71.9617 L -31.3611,-72.1453 L -31.1441,-72.3029 L -30.9091,-72.4321 L -30.6598,-72.5308 L -30.4001,-72.5975
 L -30.1341,-72.6311 L -29.8659,-72.6311 L -29.5999,-72.5975 L -29.3401,-72.5308 L -29.0908,-72.4321 L -28.8559,-72.3029
 L -28.6389,-72.1453 L -28.4434,-71.9617 L -28.2725,-71.7551 L -28.1288,-71.5287 L -28.0146,-71.2861 L -27.9318,-71.031
 L -27.8815,-70.7676 L -27.8647,-70.5 L -27.8815,-70.2324 L -27.9318,-69.969 L -28.0146,-69.714 L -28.1288,-69.4713
 L -28.2725,-69.2449 L -28.4434,-69.0383 L -28.6389,-68.8547 L -28.8559,-68.6971 L -29.0908,-68.5679 L -29.3401,-68.4692
 L -29.5999,-68.4025 L -29.8659,-68.3689 z
" stroke="black" fill="lightgray" stroke-width="0.5"/>
</svg>
