<?xml version="1.0" standalone="no"?>
<!DOCTYPE svg PUBLIC "-//W3C//DTD SVG 1.1//EN" "http://www.w3.org/Graphics/SVG/1.1/DTD/svg11.dtd">
<svg width="46mm" height="336mm" viewBox="-23 -651 46 336" xmlns="http://www.w3.org/2000/svg" version="1.1">
<title>OpenSCAD Model</title>
<path d="
M 18.4369,-591.089 L 19.0451,-591.245 L 19.6289,-591.476 L 20.1791,-591.778 L 20.6871,-592.147 L 21.1448,-592.577
 L 21.5451,-593.061 L 21.8815,-593.591 L 22.1489,-594.159 L 22.3429,-594.757 L 22.4606,-595.373 L 22.5,-596
 L 22.5,-646 L 22.4606,-646.627 L 22.3429,-647.243 L 22.1489,-647.841 L 21.8815,-648.409 L 21.5451,-648.939
 L 21.1448,-649.423 L 20.6871,-649.853 L 20.1791,-650.222 L 19.6289,-650.524 L 19.0451,-650.755 L 18.4369,-650.911
 L 17.8139,-650.99 L -17.8139,-650.99 L -18.4369,-650.911 L -19.0451,-650.755 L -19.6289,-650.524 L -20.1791,-650.222
 L -20.6871,-649.853 L -21.1448,-649.423 L -21.5451,-648.939 L -21.8815,-648.409 L -22.1489,-647.841 L -22.3429,-647.243
 L -22.4606,-646.627 L -22.5,-646 L -22.5,-596 L -22.4606,-595.373 L -22.3429,-594.757 L -22.1489,-594.159
 L -21.8815,-593.591 L -21.5451,-593.061 L -21.1448,-592.577 L -20.6871,-592.147 L -20.1791,-591.778 L -19.6289,-591.476
 L -19.0451,-591.245 L -18.4369,-591.089 L -17.8139,-591.01 L 17.8139,-591.01 z
M -17.2512,-592.508 L -17.7495,-592.571 L -18.2361,-592.696 L -18.7031,-592.881 L -19.1433,-593.123 L -19.5497,-593.418
 L -19.9159,-593.762 L -20.2361,-594.149 L -20.5052,-594.573 L -20.7191,-595.028 L -20.8743,-595.505 L -20.9684,-595.999
 L -21,-596.5 L -21,-645.5 L -20.9684,-646.001 L -20.8743,-646.495 L -20.7191,-646.972 L -20.5052,-647.427
 L -20.2361,-647.851 L -19.9159,-648.238 L -19.5497,-648.582 L -19.1433,-648.877 L -18.7031,-649.119 L -18.2361,-649.304
 L -17.7495,-649.429 L -17.2512,-649.492 L 17.2512,-649.492 L 17.7495,-649.429 L 18.2361,-649.304 L 18.7031,-649.119
 L 19.1433,-648.877 L 19.5497,-648.582 L 19.9159,-648.238 L 20.2361,-647.851 L 20.5052,-647.427 L 20.7191,-646.972
 L 20.8743,-646.495 L 20.9684,-646.001 L 21,-645.5 L 21,-596.5 L 20.9684,-595.999 L 20.8743,-595.505
 L 20.7191,-595.028 L 20.5052,-594.573 L 20.2361,-594.149 L 19.9159,-593.762 L 19.5497,-593.418 L 19.1433,-593.123
 L 18.7031,-592.881 L 18.2361,-592.696 L 17.7495,-592.571 L 17.2512,-592.508 z
M 18.4369,-522.089 L 19.0451,-522.245 L 19.6289,-522.476 L 20.1791,-522.778 L 20.6871,-523.147 L 21.1448,-523.577
 L 21.5451,-524.061 L 21.8815,-524.591 L 22.1489,-525.159 L 22.3429,-525.757 L 22.4606,-526.373 L 22.5,-527
 L 22.5,-577 L 22.4606,-577.627 L 22.3429,-578.243 L 22.1489,-578.841 L 21.8815,-579.409 L 21.5451,-579.939
 L 21.1448,-580.423 L 20.6871,-580.853 L 20.1791,-581.222 L 19.6289,-581.524 L 19.0451,-581.755 L 18.4369,-581.911
 L 17.8139,-581.99 L -17.8139,-581.99 L -18.4369,-581.911 L -19.0451,-581.755 L -19.6289,-581.524 L -20.1791,-581.222
 L -20.6871,-580.853 L -21.1448,-580.423 L -21.5451,-579.939 L -21.8815,-579.409 L -22.1489,-578.841 L -22.3429,-578.243
 L -22.4606,-577.627 L -22.5,-577 L -22.5,-527 L -22.4606,-526.373 L -22.3429,-525.757 L -22.1489,-525.159
 L -21.8815,-524.591 L -21.5451,-524.061 L -21.1448,-523.577 L -20.6871,-523.147 L -20.1791,-522.778 L -19.6289,-522.476
 L -19.0451,-522.245 L -18.4369,-522.089 L -17.8139,-522.01 L 17.8139,-522.01 z
M -17.2512,-523.508 L -17.7495,-523.571 L -18.2361,-523.696 L -18.7031,-523.881 L -19.1433,-524.123 L -19.5497,-524.418
 L -19.9159,-524.762 L -20.2361,-525.149 L -20.5052,-525.573 L -20.7191,-526.028 L -20.8743,-526.505 L -20.9684,-526.999
 L -21,-527.5 L -21,-576.5 L -20.9684,-577.001 L -20.8743,-577.495 L -20.7191,-577.972 L -20.5052,-578.427
 L -20.2361,-578.851 L -19.9159,-579.238 L -19.5497,-579.582 L -19.1433,-579.877 L -18.7031,-580.119 L -18.2361,-580.304
 L -17.7495,-580.429 L -17.2512,-580.492 L 17.2512,-580.492 L 17.7495,-580.429 L 18.2361,-580.304 L 18.7031,-580.119
 L 19.1433,-579.877 L 19.5497,-579.582 L 19.9159,-579.238 L 20.2361,-578.851 L 20.5052,-578.427 L 20.7191,-577.972
 L 20.8743,-577.495 L 20.9684,-577.001 L 21,-576.5 L 21,-527.5 L 20.9684,-526.999 L 20.8743,-526.505
 L 20.7191,-526.028 L 20.5052,-525.573 L 20.2361,-525.149 L 19.9159,-524.762 L 19.5497,-524.418 L 19.1433,-524.123
 L 18.7031,-523.881 L 18.2361,-523.696 L 17.7495,-523.571 L 17.2512,-523.508 z
M 18.4369,-453.089 L 19.0451,-453.245 L 19.6289,-453.476 L 20.1791,-453.778 L 20.6871,-454.147 L 21.1448,-454.577
 L 21.5451,-455.061 L 21.8815,-455.591 L 22.1489,-456.159 L 22.3429,-456.757 L 22.4606,-457.373 L 22.5,-458
 L 22.5,-508 L 22.4606,-508.627 L 22.3429,-509.243 L 22.1489,-509.841 L 21.8815,-510.409 L 21.5451,-510.939
 L 21.1448,-511.423 L 20.6871,-511.853 L 20.1791,-512.222 L 19.6289,-512.524 L 19.0451,-512.755 L 18.4369,-512.911
 L 17.8139,-512.99 L -17.8139,-512.99 L -18.4369,-512.911 L -19.0451,-512.755 L -19.6289,-512.524 L -20.1791,-512.222
 L -20.6871,-511.853 L -21.1448,-511.423 L -21.5451,-510.939 L -21.8815,-510.409 L -22.1489,-509.841 L -22.3429,-509.243
 L -22.4606,-508.627 L -22.5,-508 L -22.5,-458 L -22.4606,-457.373 L -22.3429,-456.757 L -22.1489,-456.159
 L -21.8815,-455.591 L -21.5451,-455.061 L -21.1448,-454.577 L -20.6871,-454.147 L -20.1791,-453.778 L -19.6289,-453.476
 L -19.0451,-453.245 L -18.4369,-453.089 L -17.8139,-453.01 L 17.8139,-453.01 z
M -17.2512,-454.508 L -17.7495,-454.571 L -18.2361,-454.696 L -18.7031,-454.881 L -19.1433,-455.123 L -19.5497,-455.418
 L -19.9159,-455.762 L -20.2361,-456.149 L -20.5052,-456.573 L -20.7191,-457.028 L -20.8743,-457.505 L -20.9684,-457.999
 L -21,-458.5 L -21,-507.5 L -20.9684,-508.001 L -20.8743,-508.495 L -20.7191,-508.972 L -20.5052,-509.427
 L -20.2361,-509.851 L -19.9159,-510.238 L -19.5497,-510.582 L -19.1433,-510.877 L -18.7031,-511.119 L -18.2361,-511.304
 L -17.7495,-511.429 L -17.2512,-511.492 L 17.2512,-511.492 L 17.7495,-511.429 L 18.2361,-511.304 L 18.7031,-511.119
 L 19.1433,-510.877 L 19.5497,-510.582 L 19.9159,-510.238 L 20.2361,-509.851 L 20.5052,-509.427 L 20.7191,-508.972
 L 20.8743,-508.495 L 20.9684,-508.001 L 21,-507.5 L 21,-458.5 L 20.9684,-457.999 L 20.8743,-457.505
 L 20.7191,-457.028 L 20.5052,-456.573 L 20.2361,-456.149 L 19.9159,-455.762 L 19.5497,-455.418 L 19.1433,-455.123
 L 18.7031,-454.881 L 18.2361,-454.696 L 17.7495,-454.571 L 17.2512,-454.508 z
M 18.4369,-384.089 L 19.0451,-384.245 L 19.6289,-384.476 L 20.1791,-384.778 L 20.6871,-385.147 L 21.1448,-385.577
 L 21.5451,-386.061 L 21.8815,-386.591 L 22.1489,-387.159 L 22.3429,-387.757 L 22.4606,-388.373 L 22.5,-389
 L 22.5,-439 L 22.4606,-439.627 L 22.3429,-440.243 L 22.1489,-440.841 L 21.8815,-441.409 L 21.5451,-441.939
 L 21.1448,-442.423 L 20.6871,-442.853 L 20.1791,-443.222 L 19.6289,-443.524 L 19.0451,-443.755 L 18.4369,-443.911
 L 17.8139,-443.99 L -17.8139,-443.99 L -18.4369,-443.911 L -19.0451,-443.755 L -19.6289,-443.524 L -20.1791,-443.222
 L -20.6871,-442.853 L -21.1448,-442.423 L -21.5451,-441.939 L -21.8815,-441.409 L -22.1489,-440.841 L -22.3429,-440.243
 L -22.4606,-439.627 L -22.5,-439 L -22.5,-389 L -22.4606,-388.373 L -22.3429,-387.757 L -22.1489,-387.159
 L -21.8815,-386.591 L -21.5451,-386.061 L -21.1448,-385.577 L -20.6871,-385.147 L -20.1791,-384.778 L -19.6289,-384.476
 L -19.0451,-384.245 L -18.4369,-384.089 L -17.8139,-384.01 L 17.8139,-384.01 z
M -17.1954,-386.393 L -17.5833,-386.442 L -17.9619,-386.539 L -18.3254,-386.683 L -18.668,-386.872 L -18.9842,-387.101
 L -19.2692,-387.369 L -19.5184,-387.67 L -19.7279,-388 L -19.8943,-388.354 L -20.0151,-388.726 L -20.0884,-389.11
 L -20.1129,-389.5 L -20.1129,-438.5 L -20.0884,-438.89 L -20.0151,-439.274 L -19.8943,-439.646 L -19.7279,-440
 L -19.5184,-440.33 L -19.2692,-440.631 L -18.9842,-440.899 L -18.668,-441.128 L -18.3254,-441.317 L -17.9619,-441.461
 L -17.5833,-441.558 L -17.1954,-441.607 L 17.1954,-441.607 L 17.5833,-441.558 L 17.9619,-441.461 L 18.3254,-441.317
 L 18.668,-441.128 L 18.9842,-440.899 L 19.2692,-440.631 L 19.5184,-440.33 L 19.7279,-440 L 19.8943,-439.646
 L 20.0151,-439.274 L 20.0884,-438.89 L 20.1129,-438.5 L 20.1129,-389.5 L 20.0884,-389.11 L 20.0151,-388.726
 L 19.8943,-388.354 L 19.7279,-388 L 19.5184,-387.67 L 19.2692,-387.369 L 18.9842,-387.101 L 18.668,-386.872
 L 18.3254,-386.683 L 17.9619,-386.539 L 17.5833,-386.442 L 17.1954,-386.393 z
M 18.4369,-315.089 L 19.0451,-315.245 L 19.6289,-315.476 L 20.1791,-315.778 L 20.6871,-316.147 L 21.1448,-316.577
 L 21.5451,-317.061 L 21.8815,-317.591 L 22.1489,-318.159 L 22.3429,-318.757 L 22.4606,-319.373 L 22.5,-320
 L 22.5,-370 L 22.4606,-370.627 L 22.3429,-371.243 L 22.1489,-371.841 L 21.8815,-372.409 L 21.5451,-372.939
 L 21.1448,-373.423 L 20.6871,-373.853 L 20.1791,-374.222 L 19.6289,-374.524 L 19.0451,-374.755 L 18.4369,-374.911
 L 17.8139,-374.99 L -17.8139,-374.99 L -18.4369,-374.911 L -19.0451,-374.755 L -19.6289,-374.524 L -20.1791,-374.222
 L -20.6871,-373.853 L -21.1448,-373.423 L -21.5451,-372.939 L -21.8815,-372.409 L -22.1489,-371.841 L -22.3429,-371.243
 L -22.4606,-370.627 L -22.5,-370 L -22.5,-320 L -22.4606,-319.373 L -22.3429,-318.757 L -22.1489,-318.159
 L -21.8815,-317.591 L -21.5451,-317.061 L -21.1448,-316.577 L -20.6871,-316.147 L -20.1791,-315.778 L -19.6289,-315.476
 L -19.0451,-315.245 L -18.4369,-315.089 L -17.8139,-315.01 L 17.8139,-315.01 z
M 14.8659,-365.369 L 14.5999,-365.403 L 14.3401,-365.469 L 14.0908,-365.568 L 13.8559,-365.697 L 13.6389,-365.855
 L 13.4434,-366.038 L 13.2725,-366.245 L 13.1288,-366.471 L 13.0146,-366.714 L 12.9318,-366.969 L 12.8815,-367.232
 L 12.8647,-367.5 L 12.8815,-367.768 L 12.9318,-368.031 L 13.0146,-368.286 L 13.1288,-368.529 L 13.2725,-368.755
 L 13.4434,-368.962 L 13.6389,-369.145 L 13.8559,-369.303 L 14.0908,-369.432 L 14.3401,-369.531 L 14.5999,-369.597
 L 14.8659,-369.631 L 15.1341,-369.631 L 15.4001,-369.597 L 15.6598,-369.531 L 15.9091,-369.432 L 16.1441,-369.303
 L 16.3611,-369.145 L 16.5565,-368.962 L 16.7275,-368.755 L 16.8712,-368.529 L 16.9853,-368.286 L 17.0682,-368.031
 L 17.1185,-367.768 L 17.1353,-367.5 L 17.1185,-367.232 L 17.0682,-366.969 L 16.9853,-366.714 L 16.8712,-366.471
 L 16.7275,-366.245 L 16.5565,-366.038 L 16.3611,-365.855 L 16.1441,-365.697 L 15.9091,-365.568 L 15.6598,-365.469
 L 15.4001,-365.403 L 15.1341,-365.369 z
M -15.1341,-365.369 L -15.4001,-365.403 L -15.6598,-365.469 L -15.9091,-365.568 L -16.1441,-365.697 L -16.3611,-365.855
 L -16.5565,-366.038 L -16.7275,-366.245 L -16.8712,-366.471 L -16.9853,-366.714 L -17.0682,-366.969 L -17.1185,-367.232
 L -17.1353,-367.5 L -17.1185,-367.768 L -17.0682,-368.031 L -16.9853,-368.286 L -16.8712,-368.529 L -16.7275,-368.755
 L -16.5565,-368.962 L -16.3611,-369.145 L -16.1441,-369.303 L -15.9091,-369.432 L -15.6598,-369.531 L -15.4001,-369.597
 L -15.1341,-369.631 L -14.8659,-369.631 L -14.5999,-369.597 L -14.3401,-369.531 L -14.0908,-369.432 L -13.8559,-369.303
 L -13.6389,-369.145 L -13.4434,-368.962 L -13.2725,-368.755 L -13.1288,-368.529 L -13.0146,-368.286 L -12.9318,-368.031
 L -12.8815,-367.768 L -12.8647,-367.5 L -12.8815,-367.232 L -12.9318,-366.969 L -13.0146,-366.714 L -13.1288,-366.471
 L -13.2725,-366.245 L -13.4434,-366.038 L -13.6389,-365.855 L -13.8559,-365.697 L -14.0908,-365.568 L -14.3401,-365.469
 L -14.5999,-365.403 L -14.8659,-365.369 z
M 14.8659,-320.369 L 14.5999,-320.403 L 14.3401,-320.469 L 14.0908,-320.568 L 13.8559,-320.697 L 13.6389,-320.855
 L 13.4434,-321.038 L 13.2725,-321.245 L 13.1288,-321.471 L 13.0146,-321.714 L 12.9318,-321.969 L 12.8815,-322.232
 L 12.8647,-322.5 L 12.8815,-322.768 L 12.9318,-323.031 L 13.0146,-323.286 L 13.1288,-323.529 L 13.2725,-323.755
 L 13.4434,-323.962 L 13.6389,-324.145 L 13.8559,-324.303 L 14.0908,-324.432 L 14.3401,-324.531 L 14.5999,-324.597
 L 14.8659,-324.631 L 15.1341,-324.631 L 15.4001,-324.597 L 15.6598,-324.531 L 15.9091,-324.432 L 16.1441,-324.303
 L 16.3611,-324.145 L 16.5565,-323.962 L 16.7275,-323.755 L 16.8712,-323.529 L 16.9853,-323.286 L 17.0682,-323.031
 L 17.1185,-322.768 L 17.1353,-322.5 L 17.1185,-322.232 L 17.0682,-321.969 L 16.9853,-321.714 L 16.8712,-321.471
 L 16.7275,-321.245 L 16.5565,-321.038 L 16.3611,-320.855 L 16.1441,-320.697 L 15.9091,-320.568 L 15.6598,-320.469
 L 15.4001,-320.403 L 15.1341,-320.369 z
M -15.1341,-320.369 L -15.4001,-320.403 L -15.6598,-320.469 L -15.9091,-320.568 L -16.1441,-320.697 L -16.3611,-320.855
 L -16.5565,-321.038 L -16.7275,-321.245 L -16.8712,-321.471 L -16.9853,-321.714 L -17.0682,-321.969 L -17.1185,-322.232
 L -17.1353,-322.5 L -17.1185,-322.768 L -17.0682,-323.031 L -16.9853,-323.286 L -16.8712,-323.529 L -16.7275,-323.755
 L -16.5565,-323.962 L -16.3611,-324.145 L -16.1441,-324.303 L -15.9091,-324.432 L -15.6598,-324.531 L -15.4001,-324.597
 L -15.1341,-324.631 L -14.8659,-324.631 L -14.5999,-324.597 L -14.3401,-324.531 L -14.0908,-324.432 L -13.8559,-324.303
 L -13.6389,-324.145 L -13.4434,-323.962 L -13.2725,-323.755 L -13.1288,-323.529 L -13.0146,-323.286 L -12.9318,-323.031
 L -12.8815,-322.768 L -12.8647,-322.5 L -12.8815,-322.232 L -12.9318,-321.969 L -13.0146,-321.714 L -13.1288,-321.471
 L -13.2725,-321.245 L -13.4434,-321.038 L -13.6389,-320.855 L -13.8559,-320.697 L -14.0908,-320.568 L -14.3401,-320.469
 L -14.5999,-320.403 L -14.8659,-320.369 z
" stroke="black" fill="lightgray" stroke-width="0.5"/>
</svg>
