<?xml version="1.0" standalone="no"?>
<!DOCTYPE svg PUBLIC "-//W3C//DTD SVG 1.1//EN" "http://www.w3.org/Graphics/SVG/1.1/DTD/svg11.dtd">
<svg width="60mm" height="129mm" viewBox="-30 -237 60 129" xmlns="http://www.w3.org/2000/svg" version="1.1">
<title>OpenSCAD Model</title>
<path d="
M 25.9369,-177.089 L 26.5451,-177.245 L 27.1289,-177.476 L 27.6791,-177.778 L 28.1871,-178.147 L 28.6448,-178.577
 L 29.0451,-179.061 L 29.3815,-179.591 L 29.6489,-180.159 L 29.8429,-180.757 L 29.9606,-181.373 L 30,-182
 L 30,-232 L 29.9606,-232.627 L 29.8429,-233.243 L 29.6489,-233.841 L 29.3815,-234.409 L 29.0451,-234.939
 L 28.6448,-235.423 L 28.1871,-235.853 L 27.6791,-236.222 L 27.1289,-236.524 L 26.5451,-236.755 L 25.9369,-236.911
 L 25.3139,-236.99 L -25.3139,-236.99 L -25.9369,-236.911 L -26.5451,-236.755 L -27.1289,-236.524 L -27.6791,-236.222
 L -28.1871,-235.853 L -28.6448,-235.423 L -29.0451,-234.939 L -29.3815,-234.409 L -29.6489,-233.841 L -29.8429,-233.243
 L -29.9606,-232.627 L -30,-232 L -30,-182 L -29.9606,-181.373 L -29.8429,-180.757 L -29.6489,-180.159
 L -29.3815,-179.591 L -29.0451,-179.061 L -28.6448,-178.577 L -28.1871,-178.147 L -27.6791,-177.778 L -27.1289,-177.476
 L -26.5451,-177.245 L -25.9369,-177.089 L -25.3139,-177.01 L 25.3139,-177.01 z
M -25.0375,-177.681 L -25.6079,-177.753 L -26.1648,-177.896 L -26.6994,-178.107 L -27.2032,-178.384 L -27.6684,-178.722
 L -28.0875,-179.116 L -28.454,-179.559 L -28.7621,-180.044 L -29.0069,-180.565 L -29.1846,-181.111 L -29.2923,-181.676
 L -29.3284,-182.25 L -29.3284,-231.75 L -29.2923,-232.324 L -29.1846,-232.889 L -29.0069,-233.435 L -28.7621,-233.956
 L -28.454,-234.441 L -28.0875,-234.884 L -27.6684,-235.278 L -27.2032,-235.616 L -26.6994,-235.893 L -26.1648,-236.104
 L -25.6079,-236.247 L -25.0375,-236.319 L 25.0375,-236.319 L 25.6079,-236.247 L 26.1648,-236.104 L 26.6994,-235.893
 L 27.2032,-235.616 L 27.6684,-235.278 L 28.0875,-234.884 L 28.454,-234.441 L 28.7621,-233.956 L 29.0069,-233.435
 L 29.1846,-232.889 L 29.2923,-232.324 L 29.3284,-231.75 L 29.3284,-182.25 L 29.2923,-181.676 L 29.1846,-181.111
 L 29.0069,-180.565 L 28.7621,-180.044 L 28.454,-179.559 L 28.0875,-179.116 L 27.6684,-178.722 L 27.2032,-178.384
 L 26.6994,-178.107 L 26.1648,-177.896 L 25.6079,-177.753 L 25.0375,-177.681 z
M 25.9369,-108.089 L 26.5451,-108.245 L 27.1289,-108.476 L 27.6791,-108.778 L 28.1871,-109.147 L 28.6448,-109.577
 L 29.0451,-110.061 L 29.3815,-110.591 L 29.6489,-111.159 L 29.8429,-111.757 L 29.9606,-112.373 L 30,-113
 L 30,-163 L 29.9606,-163.627 L 29.8429,-164.243 L 29.6489,-164.841 L 29.3815,-165.409 L 29.0451,-165.939
 L 28.6448,-166.423 L 28.1871,-166.853 L 27.6791,-167.222 L 27.1289,-167.524 L 26.5451,-167.755 L 25.9369,-167.911
 L 25.3139,-167.99 L -25.3139,-167.99 L -25.9369,-167.911 L -26.5451,-167.755 L -27.1289,-167.524 L -27.6791,-167.222
 L -28.1871,-166.853 L -28.6448,-166.423 L -29.0451,-165.939 L -29.3815,-165.409 L -29.6489,-164.841 L -29.8429,-164.243
 L -29.9606,-163.627 L -30,-163 L -30,-113 L -29.9606,-112.373 L -29.8429,-111.757 L -29.6489,-111.159
 L -29.3815,-110.591 L -29.0451,-110.061 L -28.6448,-109.577 L -28.1871,-109.147 L -27.6791,-108.778 L -27.1289,-108.476
 L -26.5451,-108.245 L -25.9369,-108.089 L -25.3139,-108.01 L 25.3139,-108.01 z
M -24.8825,-111.145 L -25.1453,-111.178 L -25.4019,-111.244 L -25.6482,-111.341 L -25.8804,-111.469 L -26.0947,-111.625
 L -26.2879,-111.806 L -26.4567,-112.01 L -26.5987,-112.234 L -26.7115,-112.473 L -26.7934,-112.725 L -26.843,-112.986
 L -26.8596,-113.25 L -26.8596,-162.75 L -26.843,-163.014 L -26.7934,-163.275 L -26.7115,-163.527 L -26.5987,-163.766
 L -26.4567,-163.99 L -26.2879,-164.194 L -26.0947,-164.375 L -25.8804,-164.531 L -25.6482,-164.659 L -25.4019,-164.756
 L -25.1453,-164.822 L -24.8825,-164.855 L 24.8825,-164.855 L 25.1453,-164.822 L 25.4019,-164.756 L 25.6482,-164.659
 L 25.8804,-164.531 L 26.0947,-164.375 L 26.2879,-164.194 L 26.4567,-163.99 L 26.5987,-163.766 L 26.7115,-163.527
 L 26.7934,-163.275 L 26.843,-163.014 L 26.8596,-162.75 L 26.8596,-113.25 L 26.843,-112.986 L 26.7934,-112.725
 L 26.7115,-112.473 L 26.5987,-112.234 L 26.4567,-112.01 L 26.2879,-111.806 L 26.0947,-111.625 L 25.8804,-111.469
 L 25.6482,-111.341 L 25.4019,-111.244 L 25.1453,-111.178 L 24.8825,-111.145 z
" stroke="black" fill="lightgray" stroke-width="0.5"/>
</svg>
