<?xml version="1.0" standalone="no"?>
<!DOCTYPE svg PUBLIC "-//W3C//DTD SVG 1.1//EN" "http://www.w3.org/Graphics/SVG/1.1/DTD/svg11.dtd">
<svg width="166mm" height="154mm" viewBox="-83 -239 166 154" xmlns="http://www.w3.org/2000/svg" version="1.1">
<title>OpenSCAD Model</title>
<path d="
M 78.4369,-193.589 L 79.0451,-193.745 L 79.6289,-193.976 L 80.1791,-194.278 L 80.6871,-194.647 L 81.1448,-195.077
 L 81.5451,-195.561 L 81.8815,-196.091 L 82.1489,-196.659 L 82.3429,-197.257 L 82.4606,-197.873 L 82.5,-198.5
 L 82.5,-233.5 L 82.4606,-234.127 L 82.3429,-234.743 L 82.1489,-235.341 L 81.8815,-235.909 L 81.5451,-236.439
 L 81.1448,-236.923 L 80.6871,-237.353 L 80.1791,-237.722 L 79.6289,-238.024 L 79.0451,-238.255 L 78.4369,-238.411
 L 77.8139,-238.49 L -77.8139,-238.49 L -78.4369,-238.411 L -79.0451,-238.255 L -79.6289,-238.024 L -80.1791,-237.722
 L -80.6871,-237.353 L -81.1448,-236.923 L -81.5451,-236.439 L -81.8815,-235.909 L -82.1489,-235.341 L -82.3429,-234.743
 L -82.4606,-234.127 L -82.5,-233.5 L -82.5,-198.5 L -82.4606,-197.873 L -82.3429,-197.257 L -82.1489,-196.659
 L -81.8815,-196.091 L -81.5451,-195.561 L -81.1448,-195.077 L -80.6871,-194.647 L -80.1791,-194.278 L -79.6289,-193.976
 L -79.0451,-193.745 L -78.4369,-193.589 L -77.8139,-193.51 L 77.8139,-193.51 z
M -77.5482,-194.009 L -78.1401,-194.084 L -78.7178,-194.232 L -79.2724,-194.452 L -79.7952,-194.739 L -80.2778,-195.09
 L -80.7126,-195.498 L -81.0928,-195.958 L -81.4125,-196.462 L -81.6664,-197.001 L -81.8508,-197.569 L -81.9625,-198.155
 L -82,-198.75 L -82,-233.25 L -81.9625,-233.845 L -81.8508,-234.431 L -81.6664,-234.999 L -81.4125,-235.538
 L -81.0928,-236.042 L -80.7126,-236.502 L -80.2778,-236.91 L -79.7952,-237.261 L -79.2724,-237.548 L -78.7178,-237.768
 L -78.1401,-237.916 L -77.5482,-237.991 L 77.5482,-237.991 L 78.1401,-237.916 L 78.7178,-237.768 L 79.2724,-237.548
 L 79.7952,-237.261 L 80.2778,-236.91 L 80.7126,-236.502 L 81.0928,-236.042 L 81.4125,-235.538 L 81.6664,-234.999
 L 81.8508,-234.431 L 81.9625,-233.845 L 82,-233.25 L 82,-198.75 L 81.9625,-198.155 L 81.8508,-197.569
 L 81.6664,-197.001 L 81.4125,-196.462 L 81.0928,-195.958 L 80.7126,-195.498 L 80.2778,-195.09 L 79.7952,-194.739
 L 79.2724,-194.452 L 78.7178,-194.232 L 78.1401,-194.084 L 77.5482,-194.009 z
M 78.4369,-139.589 L 79.0451,-139.745 L 79.6289,-139.976 L 80.1791,-140.278 L 80.6871,-140.647 L 81.1448,-141.077
 L 81.5451,-141.561 L 81.8815,-142.091 L 82.1489,-142.659 L 82.3429,-143.257 L 82.4606,-143.873 L 82.5,-144.5
 L 82.5,-179.5 L 82.4606,-180.127 L 82.3429,-180.743 L 82.1489,-181.341 L 81.8815,-181.909 L 81.5451,-182.439
 L 81.1448,-182.923 L 80.6871,-183.353 L 80.1791,-183.722 L 79.6289,-184.024 L 79.0451,-184.255 L 78.4369,-184.411
 L 77.8139,-184.49 L -77.8139,-184.49 L -78.4369,-184.411 L -79.0451,-184.255 L -79.6289,-184.024 L -80.1791,-183.722
 L -80.6871,-183.353 L -81.1448,-182.923 L -81.5451,-182.439 L -81.8815,-181.909 L -82.1489,-181.341 L -82.3429,-180.743
 L -82.4606,-180.127 L -82.5,-179.5 L -82.5,-144.5 L -82.4606,-143.873 L -82.3429,-143.257 L -82.1489,-142.659
 L -81.8815,-142.091 L -81.5451,-141.561 L -81.1448,-141.077 L -80.6871,-140.647 L -80.1791,-140.278 L -79.6289,-139.976
 L -79.0451,-139.745 L -78.4369,-139.589 L -77.8139,-139.51 L 77.8139,-139.51 z
M -77.493,-140.888 L -77.9751,-140.949 L -78.4457,-141.07 L -78.8975,-141.249 L -79.3234,-141.483 L -79.7165,-141.769
 L -80.0707,-142.101 L -80.3805,-142.476 L -80.6408,-142.886 L -80.8477,-143.326 L -80.9979,-143.788 L -81.089,-144.265
 L -81.1195,-144.75 L -81.1195,-179.25 L -81.089,-179.735 L -80.9979,-180.212 L -80.8477,-180.674 L -80.6408,-181.114
 L -80.3805,-181.524 L -80.0707,-181.899 L -79.7165,-182.231 L -79.3234,-182.517 L -78.8975,-182.751 L -78.4457,-182.93
 L -77.9751,-183.051 L -77.493,-183.112 L 77.493,-183.112 L 77.9751,-183.051 L 78.4457,-182.93 L 78.8975,-182.751
 L 79.3234,-182.517 L 79.7165,-182.231 L 80.0707,-181.899 L 80.3805,-181.524 L 80.6408,-181.114 L 80.8477,-180.674
 L 80.9979,-180.212 L 81.089,-179.735 L 81.1195,-179.25 L 81.1195,-144.75 L 81.089,-144.265 L 80.9979,-143.788
 L 80.8477,-143.326 L 80.6408,-142.886 L 80.3805,-142.476 L 80.0707,-142.101 L 79.7165,-141.769 L 79.3234,-141.483
 L 78.8975,-141.249 L 78.4457,-141.07 L 77.9751,-140.949 L 77.493,-140.888 z
M 78.4369,-85.5886 L 79.0451,-85.7447 L 79.6289,-85.9759 L 80.1791,-86.2784 L 80.6871,-86.6474 L 81.1448,-87.0773
 L 81.5451,-87.5611 L 81.8815,-88.0912 L 82.1489,-88.6594 L 82.3429,-89.2566 L 82.4606,-89.8733 L 82.5,-90.5
 L 82.5,-125.5 L 82.4606,-126.127 L 82.3429,-126.743 L 82.1489,-127.341 L 81.8815,-127.909 L 81.5451,-128.439
 L 81.1448,-128.923 L 80.6871,-129.353 L 80.1791,-129.722 L 79.6289,-130.024 L 79.0451,-130.255 L 78.4369,-130.411
 L 77.8139,-130.49 L -77.8139,-130.49 L -78.4369,-130.411 L -79.0451,-130.255 L -79.6289,-130.024 L -80.1791,-129.722
 L -80.6871,-129.353 L -81.1448,-128.923 L -81.5451,-128.439 L -81.8815,-127.909 L -82.1489,-127.341 L -82.3429,-126.743
 L -82.4606,-126.127 L -82.5,-125.5 L -82.5,-90.5 L -82.4606,-89.8733 L -82.3429,-89.2566 L -82.1489,-88.6594
 L -81.8815,-88.0912 L -81.5451,-87.5611 L -81.1448,-87.0773 L -80.6871,-86.6474 L -80.1791,-86.2784 L -79.6289,-85.9759
 L -79.0451,-85.7447 L -78.4369,-85.5886 L -77.8139,-85.5099 L 77.8139,-85.5099 z
M -75.113,-121.204 L -75.3373,-121.232 L -75.5562,-121.288 L -75.7664,-121.371 L -75.9645,-121.48 L -76.1474,-121.613
 L -76.3121,-121.768 L -76.4562,-121.942 L -76.5773,-122.133 L -76.6736,-122.337 L -76.7434,-122.552 L -76.7858,-122.774
 L -76.8,-123 L -76.7858,-123.226 L -76.7434,-123.448 L -76.6736,-123.663 L -76.5773,-123.867 L -76.4562,-124.058
 L -76.3121,-124.232 L -76.1474,-124.387 L -75.9645,-124.52 L -75.7664,-124.629 L -75.5562,-124.712 L -75.3373,-124.768
 L -75.113,-124.796 L -74.887,-124.796 L -74.6627,-124.768 L -74.4438,-124.712 L -74.2336,-124.629 L -74.0355,-124.52
 L -73.8526,-124.387 L -73.6879,-124.232 L -73.5438,-124.058 L -73.4226,-123.867 L -73.3264,-123.663 L -73.2565,-123.448
 L -73.2142,-123.226 L -73.2,-123 L -73.2142,-122.774 L -73.2565,-122.552 L -73.3264,-122.337 L -73.4226,-122.133
 L -73.5438,-121.942 L -73.6879,-121.768 L -73.8526,-121.613 L -74.0355,-121.48 L -74.2336,-121.371 L -74.4438,-121.288
 L -74.6627,-121.232 L -74.887,-121.204 z
M 74.887,-121.204 L 74.6627,-121.232 L 74.4438,-121.288 L 74.2336,-121.371 L 74.0355,-121.48 L 73.8526,-121.613
 L 73.6879,-121.768 L 73.5438,-121.942 L 73.4226,-122.133 L 73.3264,-122.337 L 73.2565,-122.552 L 73.2142,-122.774
 L 73.2,-123 L 73.2142,-123.226 L 73.2565,-123.448 L 73.3264,-123.663 L 73.4226,-123.867 L 73.5438,-124.058
 L 73.6879,-124.232 L 73.8526,-124.387 L 74.0355,-124.52 L 74.2336,-124.629 L 74.4438,-124.712 L 74.6627,-124.768
 L 74.887,-124.796 L 75.113,-124.796 L 75.3373,-124.768 L 75.5562,-124.712 L 75.7664,-124.629 L 75.9645,-124.52
 L 76.1474,-124.387 L 76.3121,-124.232 L 76.4562,-124.058 L 76.5773,-123.867 L 76.6736,-123.663 L 76.7434,-123.448
 L 76.7858,-123.226 L 76.8,-123 L 76.7858,-122.774 L 76.7434,-122.552 L 76.6736,-122.337 L 76.5773,-122.133
 L 76.4562,-121.942 L 76.3121,-121.768 L 76.1474,-121.613 L 75.9645,-121.48 L 75.7664,-121.371 L 75.5562,-121.288
 L 75.3373,-121.232 L 75.113,-121.204 z
M 74.887,-91.2036 L 74.6627,-91.2319 L 74.4438,-91.2881 L 74.2336,-91.3713 L 74.0355,-91.4802 L 73.8526,-91.6131
 L 73.6879,-91.7678 L 73.5438,-91.942 L 73.4226,-92.1329 L 73.3264,-92.3374 L 73.2565,-92.5524 L 73.2142,-92.7744
 L 73.2,-93 L 73.2142,-93.2256 L 73.2565,-93.4476 L 73.3264,-93.6626 L 73.4226,-93.8672 L 73.5438,-94.058
 L 73.6879,-94.2322 L 73.8526,-94.3869 L 74.0355,-94.5198 L 74.2336,-94.6287 L 74.4438,-94.7119 L 74.6627,-94.7681
 L 74.887,-94.7964 L 75.113,-94.7964 L 75.3373,-94.7681 L 75.5562,-94.7119 L 75.7664,-94.6287 L 75.9645,-94.5198
 L 76.1474,-94.3869 L 76.3121,-94.2322 L 76.4562,-94.058 L 76.5773,-93.8672 L 76.6736,-93.6626 L 76.7434,-93.4476
 L 76.7858,-93.2256 L 76.8,-93 L 76.7858,-92.7744 L 76.7434,-92.5524 L 76.6736,-92.3374 L 76.5773,-92.1329
 L 76.4562,-91.942 L 76.3121,-91.7678 L 76.1474,-91.6131 L 75.9645,-91.4802 L 75.7664,-91.3713 L 75.5562,-91.2881
 L 75.3373,-91.2319 L 75.113,-91.2036 z
M -75.113,-91.2036 L -75.3373,-91.2319 L -75.5562,-91.2881 L -75.7664,-91.3713 L -75.9645,-91.4802 L -76.1474,-91.6131
 L -76.3121,-91.7678 L -76.4562,-91.942 L -76.5773,-92.1329 L -76.6736,-92.3374 L -76.7434,-92.5524 L -76.7858,-92.7744
 L -76.8,-93 L -76.7858,-93.2256 L -76.7434,-93.4476 L -76.6736,-93.6626 L -76.5773,-93.8672 L -76.4562,-94.058
 L -76.3121,-94.2322 L -76.1474,-94.3869 L -75.9645,-94.5198 L -75.7664,-94.6287 L -75.5562,-94.7119 L -75.3373,-94.7681
 L -75.113,-94.7964 L -74.887,-94.7964 L -74.6627,-94.7681 L -74.4438,-94.7119 L -74.2336,-94.6287 L -74.0355,-94.5198
 L -73.8526,-94.3869 L -73.6879,-94.2322 L -73.5438,-94.058 L -73.4226,-93.8672 L -73.3264,-93.6626 L -73.2565,-93.4476
 L -73.2142,-93.2256 L -73.2,-93 L -73.2142,-92.7744 L -73.2565,-92.5524 L -73.3264,-92.3374 L -73.4226,-92.1329
 L -73.5438,-91.942 L -73.6879,-91.7678 L -73.8526,-91.6131 L -74.0355,-91.4802 L -74.2336,-91.3713 L -74.4438,-91.2881
 L -74.6627,-91.2319 L -74.887,-91.2036 z
" stroke="black" fill="lightgray" stroke-width="0.5"/>
</svg>
