  0
SECTION
  2
BLOCKS
  0
ENDSEC
  0
SECTION
  2
ENTITIES
  0
LINE
  8
0
 10
3.4369
 20
561.089
 11
4.04507
 21
561.245
  0
LINE
  8
0
 10
4.04507
 20
561.245
 11
4.62889
 21
561.476
  0
LINE
  8
0
 10
4.62889
 20
561.476
 11
5.17912
 21
561.778
  0
LINE
  8
0
 10
5.17912
 20
561.778
 11
5.68712
 21
562.147
  0
LINE
  8
0
 10
5.68712
 20
562.147
 11
6.14484
 21
562.577
  0
LINE
  8
0
 10
6.14484
 20
562.577
 11
6.54507
 21
563.061
  0
LINE
  8
0
 10
6.54507
 20
563.061
 11
6.88153
 21
563.591
  0
LINE
  8
0
 10
6.88153
 20
563.591
 11
7.14888
 21
564.159
  0
LINE
  8
0
 10
7.14888
 20
564.159
 11
7.34291
 21
564.757
  0
LINE
  8
0
 10
7.34291
 20
564.757
 11
7.46057
 21
565.373
  0
LINE
  8
0
 10
7.46057
 20
565.373
 11
7.5
 21
566
  0
LINE
  8
0
 10
7.5
 20
566
 11
7.5
 21
706
  0
LINE
  8
0
 10
7.5
 20
706
 11
7.46057
 21
706.627
  0
LINE
  8
0
 10
7.46057
 20
706.627
 11
7.34291
 21
707.243
  0
LINE
  8
0
 10
7.34291
 20
707.243
 11
7.14888
 21
707.841
  0
LINE
  8
0
 10
7.14888
 20
707.841
 11
6.88153
 21
708.409
  0
LINE
  8
0
 10
6.88153
 20
708.409
 11
6.54507
 21
708.939
  0
LINE
  8
0
 10
6.54507
 20
708.939
 11
6.14484
 21
709.423
  0
LINE
  8
0
 10
6.14484
 20
709.423
 11
5.68712
 21
709.853
  0
LINE
  8
0
 10
5.68712
 20
709.853
 11
5.17912
 21
710.222
  0
LINE
  8
0
 10
5.17912
 20
710.222
 11
4.62889
 21
710.524
  0
LINE
  8
0
 10
4.62889
 20
710.524
 11
4.04507
 21
710.755
  0
LINE
  8
0
 10
4.04507
 20
710.755
 11
3.4369
 21
710.911
  0
LINE
  8
0
 10
3.4369
 20
710.911
 11
2.81395
 21
710.99
  0
LINE
  8
0
 10
2.81395
 20
710.99
 11
-2.81395
 21
710.99
  0
LINE
  8
0
 10
-2.81395
 20
710.99
 11
-3.4369
 21
710.911
  0
LINE
  8
0
 10
-3.4369
 20
710.911
 11
-4.04507
 21
710.755
  0
LINE
  8
0
 10
-4.04507
 20
710.755
 11
-4.62889
 21
710.524
  0
LINE
  8
0
 10
-4.62889
 20
710.524
 11
-5.17912
 21
710.222
  0
LINE
  8
0
 10
-5.17912
 20
710.222
 11
-5.68712
 21
709.853
  0
LINE
  8
0
 10
-5.68712
 20
709.853
 11
-6.14484
 21
709.423
  0
LINE
  8
0
 10
-6.14484
 20
709.423
 11
-6.54507
 21
708.939
  0
LINE
  8
0
 10
-6.54507
 20
708.939
 11
-6.88153
 21
708.409
  0
LINE
  8
0
 10
-6.88153
 20
708.409
 11
-7.14888
 21
707.841
  0
LINE
  8
0
 10
-7.14888
 20
707.841
 11
-7.34291
 21
707.243
  0
LINE
  8
0
 10
-7.34291
 20
707.243
 11
-7.46057
 21
706.627
  0
LINE
  8
0
 10
-7.46057
 20
706.627
 11
-7.5
 21
706
  0
LINE
  8
0
 10
-7.5
 20
706
 11
-7.5
 21
566
  0
LINE
  8
0
 10
-7.5
 20
566
 11
-7.46057
 21
565.373
  0
LINE
  8
0
 10
-7.46057
 20
565.373
 11
-7.34291
 21
564.757
  0
LINE
  8
0
 10
-7.34291
 20
564.757
 11
-7.14888
 21
564.159
  0
LINE
  8
0
 10
-7.14888
 20
564.159
 11
-6.88153
 21
563.591
  0
LINE
  8
0
 10
-6.88153
 20
563.591
 11
-6.54507
 21
563.061
  0
LINE
  8
0
 10
-6.54507
 20
563.061
 11
-6.14484
 21
562.577
  0
LINE
  8
0
 10
-6.14484
 20
562.577
 11
-5.68712
 21
562.147
  0
LINE
  8
0
 10
-5.68712
 20
562.147
 11
-5.17912
 21
561.778
  0
LINE
  8
0
 10
-5.17912
 20
561.778
 11
-4.62889
 21
561.476
  0
LINE
  8
0
 10
-4.62889
 20
561.476
 11
-4.04507
 21
561.245
  0
LINE
  8
0
 10
-4.04507
 20
561.245
 11
-3.4369
 21
561.089
  0
LINE
  8
0
 10
-3.4369
 20
561.089
 11
-2.81395
 21
561.01
  0
LINE
  8
0
 10
-2.81395
 20
561.01
 11
2.81395
 21
561.01
  0
LINE
  8
0
 10
2.81395
 20
561.01
 11
3.4369
 21
561.089
  0
LINE
  8
0
 10
-2.24316
 20
562.635
 11
-2.72565
 21
562.696
  0
LINE
  8
0
 10
-2.72565
 20
562.696
 11
-3.1967
 21
562.817
  0
LINE
  8
0
 10
-3.1967
 20
562.817
 11
-3.64888
 21
562.996
  0
LINE
  8
0
 10
-3.64888
 20
562.996
 11
-4.07506
 21
563.23
  0
LINE
  8
0
 10
-4.07506
 20
563.23
 11
-4.46851
 21
563.516
  0
LINE
  8
0
 10
-4.46851
 20
563.516
 11
-4.82301
 21
563.849
  0
LINE
  8
0
 10
-4.82301
 20
563.849
 11
-5.13301
 21
564.224
  0
LINE
  8
0
 10
-5.13301
 20
564.224
 11
-5.3936
 21
564.634
  0
LINE
  8
0
 10
-5.3936
 20
564.634
 11
-5.60068
 21
565.074
  0
LINE
  8
0
 10
-5.60068
 20
565.074
 11
-5.75096
 21
565.537
  0
LINE
  8
0
 10
-5.75096
 20
565.537
 11
-5.84209
 21
566.015
  0
LINE
  8
0
 10
-5.84209
 20
566.015
 11
-5.87262
 21
566.5
  0
LINE
  8
0
 10
-5.87262
 20
566.5
 11
-5.87262
 21
705.5
  0
LINE
  8
0
 10
-5.87262
 20
705.5
 11
-5.84209
 21
705.985
  0
LINE
  8
0
 10
-5.84209
 20
705.985
 11
-5.75096
 21
706.463
  0
LINE
  8
0
 10
-5.75096
 20
706.463
 11
-5.60068
 21
706.926
  0
LINE
  8
0
 10
-5.60068
 20
706.926
 11
-5.3936
 21
707.366
  0
LINE
  8
0
 10
-5.3936
 20
707.366
 11
-5.13301
 21
707.776
  0
LINE
  8
0
 10
-5.13301
 20
707.776
 11
-4.82301
 21
708.151
  0
LINE
  8
0
 10
-4.82301
 20
708.151
 11
-4.46851
 21
708.484
  0
LINE
  8
0
 10
-4.46851
 20
708.484
 11
-4.07506
 21
708.77
  0
LINE
  8
0
 10
-4.07506
 20
708.77
 11
-3.64888
 21
709.004
  0
LINE
  8
0
 10
-3.64888
 20
709.004
 11
-3.1967
 21
709.183
  0
LINE
  8
0
 10
-3.1967
 20
709.183
 11
-2.72565
 21
709.304
  0
LINE
  8
0
 10
-2.72565
 20
709.304
 11
-2.24316
 21
709.365
  0
LINE
  8
0
 10
-2.24316
 20
709.365
 11
2.24316
 21
709.365
  0
LINE
  8
0
 10
2.24316
 20
709.365
 11
2.72565
 21
709.304
  0
LINE
  8
0
 10
2.72565
 20
709.304
 11
3.1967
 21
709.183
  0
LINE
  8
0
 10
3.1967
 20
709.183
 11
3.64888
 21
709.004
  0
LINE
  8
0
 10
3.64888
 20
709.004
 11
4.07506
 21
708.77
  0
LINE
  8
0
 10
4.07506
 20
708.77
 11
4.46851
 21
708.484
  0
LINE
  8
0
 10
4.46851
 20
708.484
 11
4.82301
 21
708.151
  0
LINE
  8
0
 10
4.82301
 20
708.151
 11
5.13301
 21
707.776
  0
LINE
  8
0
 10
5.13301
 20
707.776
 11
5.3936
 21
707.366
  0
LINE
  8
0
 10
5.3936
 20
707.366
 11
5.60068
 21
706.926
  0
LINE
  8
0
 10
5.60068
 20
706.926
 11
5.75096
 21
706.463
  0
LINE
  8
0
 10
5.75096
 20
706.463
 11
5.84209
 21
705.985
  0
LINE
  8
0
 10
5.84209
 20
705.985
 11
5.87262
 21
705.5
  0
LINE
  8
0
 10
5.87262
 20
705.5
 11
5.87262
 21
566.5
  0
LINE
  8
0
 10
5.87262
 20
566.5
 11
5.84209
 21
566.015
  0
LINE
  8
0
 10
5.84209
 20
566.015
 11
5.75096
 21
565.537
  0
LINE
  8
0
 10
5.75096
 20
565.537
 11
5.60068
 21
565.074
  0
LINE
  8
0
 10
5.60068
 20
565.074
 11
5.3936
 21
564.634
  0
LINE
  8
0
 10
5.3936
 20
564.634
 11
5.13301
 21
564.224
  0
LINE
  8
0
 10
5.13301
 20
564.224
 11
4.82301
 21
563.849
  0
LINE
  8
0
 10
4.82301
 20
563.849
 11
4.46851
 21
563.516
  0
LINE
  8
0
 10
4.46851
 20
563.516
 11
4.07506
 21
563.23
  0
LINE
  8
0
 10
4.07506
 20
563.23
 11
3.64888
 21
562.996
  0
LINE
  8
0
 10
3.64888
 20
562.996
 11
3.1967
 21
562.817
  0
LINE
  8
0
 10
3.1967
 20
562.817
 11
2.72565
 21
562.696
  0
LINE
  8
0
 10
2.72565
 20
562.696
 11
2.24316
 21
562.635
  0
LINE
  8
0
 10
2.24316
 20
562.635
 11
-2.24316
 21
562.635
  0
LINE
  8
0
 10
3.4369
 20
402.089
 11
4.04507
 21
402.245
  0
LINE
  8
0
 10
4.04507
 20
402.245
 11
4.62889
 21
402.476
  0
LINE
  8
0
 10
4.62889
 20
402.476
 11
5.17912
 21
402.778
  0
LINE
  8
0
 10
5.17912
 20
402.778
 11
5.68712
 21
403.147
  0
LINE
  8
0
 10
5.68712
 20
403.147
 11
6.14484
 21
403.577
  0
LINE
  8
0
 10
6.14484
 20
403.577
 11
6.54507
 21
404.061
  0
LINE
  8
0
 10
6.54507
 20
404.061
 11
6.88153
 21
404.591
  0
LINE
  8
0
 10
6.88153
 20
404.591
 11
7.14888
 21
405.159
  0
LINE
  8
0
 10
7.14888
 20
405.159
 11
7.34291
 21
405.757
  0
LINE
  8
0
 10
7.34291
 20
405.757
 11
7.46057
 21
406.373
  0
LINE
  8
0
 10
7.46057
 20
406.373
 11
7.5
 21
407
  0
LINE
  8
0
 10
7.5
 20
407
 11
7.5
 21
547
  0
LINE
  8
0
 10
7.5
 20
547
 11
7.46057
 21
547.627
  0
LINE
  8
0
 10
7.46057
 20
547.627
 11
7.34291
 21
548.243
  0
LINE
  8
0
 10
7.34291
 20
548.243
 11
7.14888
 21
548.841
  0
LINE
  8
0
 10
7.14888
 20
548.841
 11
6.88153
 21
549.409
  0
LINE
  8
0
 10
6.88153
 20
549.409
 11
6.54507
 21
549.939
  0
LINE
  8
0
 10
6.54507
 20
549.939
 11
6.14484
 21
550.423
  0
LINE
  8
0
 10
6.14484
 20
550.423
 11
5.68712
 21
550.853
  0
LINE
  8
0
 10
5.68712
 20
550.853
 11
5.17912
 21
551.222
  0
LINE
  8
0
 10
5.17912
 20
551.222
 11
4.62889
 21
551.524
  0
LINE
  8
0
 10
4.62889
 20
551.524
 11
4.04507
 21
551.755
  0
LINE
  8
0
 10
4.04507
 20
551.755
 11
3.4369
 21
551.911
  0
LINE
  8
0
 10
3.4369
 20
551.911
 11
2.81395
 21
551.99
  0
LINE
  8
0
 10
2.81395
 20
551.99
 11
-2.81395
 21
551.99
  0
LINE
  8
0
 10
-2.81395
 20
551.99
 11
-3.4369
 21
551.911
  0
LINE
  8
0
 10
-3.4369
 20
551.911
 11
-4.04507
 21
551.755
  0
LINE
  8
0
 10
-4.04507
 20
551.755
 11
-4.62889
 21
551.524
  0
LINE
  8
0
 10
-4.62889
 20
551.524
 11
-5.17912
 21
551.222
  0
LINE
  8
0
 10
-5.17912
 20
551.222
 11
-5.68712
 21
550.853
  0
LINE
  8
0
 10
-5.68712
 20
550.853
 11
-6.14484
 21
550.423
  0
LINE
  8
0
 10
-6.14484
 20
550.423
 11
-6.54507
 21
549.939
  0
LINE
  8
0
 10
-6.54507
 20
549.939
 11
-6.88153
 21
549.409
  0
LINE
  8
0
 10
-6.88153
 20
549.409
 11
-7.14888
 21
548.841
  0
LINE
  8
0
 10
-7.14888
 20
548.841
 11
-7.34291
 21
548.243
  0
LINE
  8
0
 10
-7.34291
 20
548.243
 11
-7.46057
 21
547.627
  0
LINE
  8
0
 10
-7.46057
 20
547.627
 11
-7.5
 21
547
  0
LINE
  8
0
 10
-7.5
 20
547
 11
-7.5
 21
407
  0
LINE
  8
0
 10
-7.5
 20
407
 11
-7.46057
 21
406.373
  0
LINE
  8
0
 10
-7.46057
 20
406.373
 11
-7.34291
 21
405.757
  0
LINE
  8
0
 10
-7.34291
 20
405.757
 11
-7.14888
 21
405.159
  0
LINE
  8
0
 10
-7.14888
 20
405.159
 11
-6.88153
 21
404.591
  0
LINE
  8
0
 10
-6.88153
 20
404.591
 11
-6.54507
 21
404.061
  0
LINE
  8
0
 10
-6.54507
 20
404.061
 11
-6.14484
 21
403.577
  0
LINE
  8
0
 10
-6.14484
 20
403.577
 11
-5.68712
 21
403.147
  0
LINE
  8
0
 10
-5.68712
 20
403.147
 11
-5.17912
 21
402.778
  0
LINE
  8
0
 10
-5.17912
 20
402.778
 11
-4.62889
 21
402.476
  0
LINE
  8
0
 10
-4.62889
 20
402.476
 11
-4.04507
 21
402.245
  0
LINE
  8
0
 10
-4.04507
 20
402.245
 11
-3.4369
 21
402.089
  0
LINE
  8
0
 10
-3.4369
 20
402.089
 11
-2.81395
 21
402.01
  0
LINE
  8
0
 10
-2.81395
 20
402.01
 11
2.81395
 21
402.01
  0
LINE
  8
0
 10
2.81395
 20
402.01
 11
3.4369
 21
402.089
  0
LINE
  8
0
 10
3.4369
 20
243.089
 11
4.04507
 21
243.245
  0
LINE
  8
0
 10
4.04507
 20
243.245
 11
4.62889
 21
243.476
  0
LINE
  8
0
 10
4.62889
 20
243.476
 11
5.17912
 21
243.778
  0
LINE
  8
0
 10
5.17912
 20
243.778
 11
5.68712
 21
244.147
  0
LINE
  8
0
 10
5.68712
 20
244.147
 11
6.14484
 21
244.577
  0
LINE
  8
0
 10
6.14484
 20
244.577
 11
6.54507
 21
245.061
  0
LINE
  8
0
 10
6.54507
 20
245.061
 11
6.88153
 21
245.591
  0
LINE
  8
0
 10
6.88153
 20
245.591
 11
7.14888
 21
246.159
  0
LINE
  8
0
 10
7.14888
 20
246.159
 11
7.34291
 21
246.757
  0
LINE
  8
0
 10
7.34291
 20
246.757
 11
7.46057
 21
247.373
  0
LINE
  8
0
 10
7.46057
 20
247.373
 11
7.5
 21
248
  0
LINE
  8
0
 10
7.5
 20
248
 11
7.5
 21
388
  0
LINE
  8
0
 10
7.5
 20
388
 11
7.46057
 21
388.627
  0
LINE
  8
0
 10
7.46057
 20
388.627
 11
7.34291
 21
389.243
  0
LINE
  8
0
 10
7.34291
 20
389.243
 11
7.14888
 21
389.841
  0
LINE
  8
0
 10
7.14888
 20
389.841
 11
6.88153
 21
390.409
  0
LINE
  8
0
 10
6.88153
 20
390.409
 11
6.54507
 21
390.939
  0
LINE
  8
0
 10
6.54507
 20
390.939
 11
6.14484
 21
391.423
  0
LINE
  8
0
 10
6.14484
 20
391.423
 11
5.68712
 21
391.853
  0
LINE
  8
0
 10
5.68712
 20
391.853
 11
5.17912
 21
392.222
  0
LINE
  8
0
 10
5.17912
 20
392.222
 11
4.62889
 21
392.524
  0
LINE
  8
0
 10
4.62889
 20
392.524
 11
4.04507
 21
392.755
  0
LINE
  8
0
 10
4.04507
 20
392.755
 11
3.4369
 21
392.911
  0
LINE
  8
0
 10
3.4369
 20
392.911
 11
2.81395
 21
392.99
  0
LINE
  8
0
 10
2.81395
 20
392.99
 11
-2.81395
 21
392.99
  0
LINE
  8
0
 10
-2.81395
 20
392.99
 11
-3.4369
 21
392.911
  0
LINE
  8
0
 10
-3.4369
 20
392.911
 11
-4.04507
 21
392.755
  0
LINE
  8
0
 10
-4.04507
 20
392.755
 11
-4.62889
 21
392.524
  0
LINE
  8
0
 10
-4.62889
 20
392.524
 11
-5.17912
 21
392.222
  0
LINE
  8
0
 10
-5.17912
 20
392.222
 11
-5.68712
 21
391.853
  0
LINE
  8
0
 10
-5.68712
 20
391.853
 11
-6.14484
 21
391.423
  0
LINE
  8
0
 10
-6.14484
 20
391.423
 11
-6.54507
 21
390.939
  0
LINE
  8
0
 10
-6.54507
 20
390.939
 11
-6.88153
 21
390.409
  0
LINE
  8
0
 10
-6.88153
 20
390.409
 11
-7.14888
 21
389.841
  0
LINE
  8
0
 10
-7.14888
 20
389.841
 11
-7.34291
 21
389.243
  0
LINE
  8
0
 10
-7.34291
 20
389.243
 11
-7.46057
 21
388.627
  0
LINE
  8
0
 10
-7.46057
 20
388.627
 11
-7.5
 21
388
  0
LINE
  8
0
 10
-7.5
 20
388
 11
-7.5
 21
248
  0
LINE
  8
0
 10
-7.5
 20
248
 11
-7.46057
 21
247.373
  0
LINE
  8
0
 10
-7.46057
 20
247.373
 11
-7.34291
 21
246.757
  0
LINE
  8
0
 10
-7.34291
 20
246.757
 11
-7.14888
 21
246.159
  0
LINE
  8
0
 10
-7.14888
 20
246.159
 11
-6.88153
 21
245.591
  0
LINE
  8
0
 10
-6.88153
 20
245.591
 11
-6.54507
 21
245.061
  0
LINE
  8
0
 10
-6.54507
 20
245.061
 11
-6.14484
 21
244.577
  0
LINE
  8
0
 10
-6.14484
 20
244.577
 11
-5.68712
 21
244.147
  0
LINE
  8
0
 10
-5.68712
 20
244.147
 11
-5.17912
 21
243.778
  0
LINE
  8
0
 10
-5.17912
 20
243.778
 11
-4.62889
 21
243.476
  0
LINE
  8
0
 10
-4.62889
 20
243.476
 11
-4.04507
 21
243.245
  0
LINE
  8
0
 10
-4.04507
 20
243.245
 11
-3.4369
 21
243.089
  0
LINE
  8
0
 10
-3.4369
 20
243.089
 11
-2.81395
 21
243.01
  0
LINE
  8
0
 10
-2.81395
 20
243.01
 11
2.81395
 21
243.01
  0
LINE
  8
0
 10
2.81395
 20
243.01
 11
3.4369
 21
243.089
  0
LINE
  8
0
 10
-0.113022
 20
383.704
 11
-0.33728
 21
383.732
  0
LINE
  8
0
 10
-0.33728
 20
383.732
 11
-0.556229
 21
383.788
  0
LINE
  8
0
 10
-0.556229
 20
383.788
 11
-0.766388
 21
383.871
  0
LINE
  8
0
 10
-0.766388
 20
383.871
 11
-0.964478
 21
383.98
  0
LINE
  8
0
 10
-0.964478
 20
383.98
 11
-1.14735
 21
384.113
  0
LINE
  8
0
 10
-1.14735
 20
384.113
 11
-1.31213
 21
384.268
  0
LINE
  8
0
 10
-1.31213
 20
384.268
 11
-1.45622
 21
384.442
  0
LINE
  8
0
 10
-1.45622
 20
384.442
 11
-1.57735
 21
384.633
  0
LINE
  8
0
 10
-1.57735
 20
384.633
 11
-1.67358
 21
384.837
  0
LINE
  8
0
 10
-1.67358
 20
384.837
 11
-1.74344
 21
385.052
  0
LINE
  8
0
 10
-1.74344
 20
385.052
 11
-1.7858
 21
385.274
  0
LINE
  8
0
 10
-1.7858
 20
385.274
 11
-1.79999
 21
385.5
  0
LINE
  8
0
 10
-1.79999
 20
385.5
 11
-1.7858
 21
385.726
  0
LINE
  8
0
 10
-1.7858
 20
385.726
 11
-1.74344
 21
385.948
  0
LINE
  8
0
 10
-1.74344
 20
385.948
 11
-1.67358
 21
386.163
  0
LINE
  8
0
 10
-1.67358
 20
386.163
 11
-1.57735
 21
386.367
  0
LINE
  8
0
 10
-1.57735
 20
386.367
 11
-1.45622
 21
386.558
  0
LINE
  8
0
 10
-1.45622
 20
386.558
 11
-1.31213
 21
386.732
  0
LINE
  8
0
 10
-1.31213
 20
386.732
 11
-1.14735
 21
386.887
  0
LINE
  8
0
 10
-1.14735
 20
386.887
 11
-0.964478
 21
387.02
  0
LINE
  8
0
 10
-0.964478
 20
387.02
 11
-0.766388
 21
387.129
  0
LINE
  8
0
 10
-0.766388
 20
387.129
 11
-0.556229
 21
387.212
  0
LINE
  8
0
 10
-0.556229
 20
387.212
 11
-0.33728
 21
387.268
  0
LINE
  8
0
 10
-0.33728
 20
387.268
 11
-0.113022
 21
387.296
  0
LINE
  8
0
 10
-0.113022
 20
387.296
 11
0.113022
 21
387.296
  0
LINE
  8
0
 10
0.113022
 20
387.296
 11
0.33728
 21
387.268
  0
LINE
  8
0
 10
0.33728
 20
387.268
 11
0.556229
 21
387.212
  0
LINE
  8
0
 10
0.556229
 20
387.212
 11
0.766388
 21
387.129
  0
LINE
  8
0
 10
0.766388
 20
387.129
 11
0.964478
 21
387.02
  0
LINE
  8
0
 10
0.964478
 20
387.02
 11
1.14735
 21
386.887
  0
LINE
  8
0
 10
1.14735
 20
386.887
 11
1.31213
 21
386.732
  0
LINE
  8
0
 10
1.31213
 20
386.732
 11
1.45622
 21
386.558
  0
LINE
  8
0
 10
1.45622
 20
386.558
 11
1.57735
 21
386.367
  0
LINE
  8
0
 10
1.57735
 20
386.367
 11
1.67358
 21
386.163
  0
LINE
  8
0
 10
1.67358
 20
386.163
 11
1.74344
 21
385.948
  0
LINE
  8
0
 10
1.74344
 20
385.948
 11
1.7858
 21
385.726
  0
LINE
  8
0
 10
1.7858
 20
385.726
 11
1.79999
 21
385.5
  0
LINE
  8
0
 10
1.79999
 20
385.5
 11
1.7858
 21
385.274
  0
LINE
  8
0
 10
1.7858
 20
385.274
 11
1.74344
 21
385.052
  0
LINE
  8
0
 10
1.74344
 20
385.052
 11
1.67358
 21
384.837
  0
LINE
  8
0
 10
1.67358
 20
384.837
 11
1.57735
 21
384.633
  0
LINE
  8
0
 10
1.57735
 20
384.633
 11
1.45622
 21
384.442
  0
LINE
  8
0
 10
1.45622
 20
384.442
 11
1.31213
 21
384.268
  0
LINE
  8
0
 10
1.31213
 20
384.268
 11
1.14735
 21
384.113
  0
LINE
  8
0
 10
1.14735
 20
384.113
 11
0.964478
 21
383.98
  0
LINE
  8
0
 10
0.964478
 20
383.98
 11
0.766388
 21
383.871
  0
LINE
  8
0
 10
0.766388
 20
383.871
 11
0.556229
 21
383.788
  0
LINE
  8
0
 10
0.556229
 20
383.788
 11
0.33728
 21
383.732
  0
LINE
  8
0
 10
0.33728
 20
383.732
 11
0.113022
 21
383.704
  0
LINE
  8
0
 10
0.113022
 20
383.704
 11
-0.113022
 21
383.704
  0
LINE
  8
0
 10
-0.113022
 20
248.704
 11
-0.33728
 21
248.732
  0
LINE
  8
0
 10
-0.33728
 20
248.732
 11
-0.556229
 21
248.788
  0
LINE
  8
0
 10
-0.556229
 20
248.788
 11
-0.766388
 21
248.871
  0
LINE
  8
0
 10
-0.766388
 20
248.871
 11
-0.964478
 21
248.98
  0
LINE
  8
0
 10
-0.964478
 20
248.98
 11
-1.14735
 21
249.113
  0
LINE
  8
0
 10
-1.14735
 20
249.113
 11
-1.31213
 21
249.268
  0
LINE
  8
0
 10
-1.31213
 20
249.268
 11
-1.45622
 21
249.442
  0
LINE
  8
0
 10
-1.45622
 20
249.442
 11
-1.57735
 21
249.633
  0
LINE
  8
0
 10
-1.57735
 20
249.633
 11
-1.67358
 21
249.837
  0
LINE
  8
0
 10
-1.67358
 20
249.837
 11
-1.74344
 21
250.052
  0
LINE
  8
0
 10
-1.74344
 20
250.052
 11
-1.7858
 21
250.274
  0
LINE
  8
0
 10
-1.7858
 20
250.274
 11
-1.79999
 21
250.5
  0
LINE
  8
0
 10
-1.79999
 20
250.5
 11
-1.7858
 21
250.726
  0
LINE
  8
0
 10
-1.7858
 20
250.726
 11
-1.74344
 21
250.948
  0
LINE
  8
0
 10
-1.74344
 20
250.948
 11
-1.67358
 21
251.163
  0
LINE
  8
0
 10
-1.67358
 20
251.163
 11
-1.57735
 21
251.367
  0
LINE
  8
0
 10
-1.57735
 20
251.367
 11
-1.45622
 21
251.558
  0
LINE
  8
0
 10
-1.45622
 20
251.558
 11
-1.31213
 21
251.732
  0
LINE
  8
0
 10
-1.31213
 20
251.732
 11
-1.14735
 21
251.887
  0
LINE
  8
0
 10
-1.14735
 20
251.887
 11
-0.964478
 21
252.02
  0
LINE
  8
0
 10
-0.964478
 20
252.02
 11
-0.766388
 21
252.129
  0
LINE
  8
0
 10
-0.766388
 20
252.129
 11
-0.556229
 21
252.212
  0
LINE
  8
0
 10
-0.556229
 20
252.212
 11
-0.33728
 21
252.268
  0
LINE
  8
0
 10
-0.33728
 20
252.268
 11
-0.113022
 21
252.296
  0
LINE
  8
0
 10
-0.113022
 20
252.296
 11
0.113022
 21
252.296
  0
LINE
  8
0
 10
0.113022
 20
252.296
 11
0.33728
 21
252.268
  0
LINE
  8
0
 10
0.33728
 20
252.268
 11
0.556229
 21
252.212
  0
LINE
  8
0
 10
0.556229
 20
252.212
 11
0.766388
 21
252.129
  0
LINE
  8
0
 10
0.766388
 20
252.129
 11
0.964478
 21
252.02
  0
LINE
  8
0
 10
0.964478
 20
252.02
 11
1.14735
 21
251.887
  0
LINE
  8
0
 10
1.14735
 20
251.887
 11
1.31213
 21
251.732
  0
LINE
  8
0
 10
1.31213
 20
251.732
 11
1.45622
 21
251.558
  0
LINE
  8
0
 10
1.45622
 20
251.558
 11
1.57735
 21
251.367
  0
LINE
  8
0
 10
1.57735
 20
251.367
 11
1.67358
 21
251.163
  0
LINE
  8
0
 10
1.67358
 20
251.163
 11
1.74344
 21
250.948
  0
LINE
  8
0
 10
1.74344
 20
250.948
 11
1.7858
 21
250.726
  0
LINE
  8
0
 10
1.7858
 20
250.726
 11
1.79999
 21
250.5
  0
LINE
  8
0
 10
1.79999
 20
250.5
 11
1.7858
 21
250.274
  0
LINE
  8
0
 10
1.7858
 20
250.274
 11
1.74344
 21
250.052
  0
LINE
  8
0
 10
1.74344
 20
250.052
 11
1.67358
 21
249.837
  0
LINE
  8
0
 10
1.67358
 20
249.837
 11
1.57735
 21
249.633
  0
LINE
  8
0
 10
1.57735
 20
249.633
 11
1.45622
 21
249.442
  0
LINE
  8
0
 10
1.45622
 20
249.442
 11
1.31213
 21
249.268
  0
LINE
  8
0
 10
1.31213
 20
249.268
 11
1.14735
 21
249.113
  0
LINE
  8
0
 10
1.14735
 20
249.113
 11
0.964478
 21
248.98
  0
LINE
  8
0
 10
0.964478
 20
248.98
 11
0.766388
 21
248.871
  0
LINE
  8
0
 10
0.766388
 20
248.871
 11
0.556229
 21
248.788
  0
LINE
  8
0
 10
0.556229
 20
248.788
 11
0.33728
 21
248.732
  0
LINE
  8
0
 10
0.33728
 20
248.732
 11
0.113022
 21
248.704
  0
LINE
  8
0
 10
0.113022
 20
248.704
 11
-0.113022
 21
248.704
  0
ENDSEC
  0
SECTION
  2
OBJECTS
  0
DICTIONARY
  0
ENDSEC
  0
EOF
