<?xml version="1.0" standalone="no"?>
<!DOCTYPE svg PUBLIC "-//W3C//DTD SVG 1.1//EN" "http://www.w3.org/Graphics/SVG/1.1/DTD/svg11.dtd">
<svg width="46mm" height="280mm" viewBox="-23 -356 46 280" xmlns="http://www.w3.org/2000/svg" version="1.1">
<title>OpenSCAD Model</title>
<path d="
M 18.4369,-220.589 L 19.0451,-220.745 L 19.6289,-220.976 L 20.1791,-221.278 L 20.6871,-221.647 L 21.1448,-222.077
 L 21.5451,-222.561 L 21.8815,-223.091 L 22.1489,-223.659 L 22.3429,-224.257 L 22.4606,-224.873 L 22.5,-225.5
 L 22.5,-350.5 L 22.4606,-351.127 L 22.3429,-351.743 L 22.1489,-352.341 L 21.8815,-352.909 L 21.5451,-353.439
 L 21.1448,-353.923 L 20.6871,-354.353 L 20.1791,-354.722 L 19.6289,-355.024 L 19.0451,-355.255 L 18.4369,-355.411
 L 17.8139,-355.49 L -17.8139,-355.49 L -18.4369,-355.411 L -19.0451,-355.255 L -19.6289,-355.024 L -20.1791,-354.722
 L -20.6871,-354.353 L -21.1448,-353.923 L -21.5451,-353.439 L -21.8815,-352.909 L -22.1489,-352.341 L -22.3429,-351.743
 L -22.4606,-351.127 L -22.5,-350.5 L -22.5,-225.5 L -22.4606,-224.873 L -22.3429,-224.257 L -22.1489,-223.659
 L -21.8815,-223.091 L -21.5451,-222.561 L -21.1448,-222.077 L -20.6871,-221.647 L -20.1791,-221.278 L -19.6289,-220.976
 L -19.0451,-220.745 L -18.4369,-220.589 L -17.8139,-220.51 L 17.8139,-220.51 z
M 18.4369,-76.5886 L 19.0451,-76.7447 L 19.6289,-76.9759 L 20.1791,-77.2784 L 20.6871,-77.6474 L 21.1448,-78.0773
 L 21.5451,-78.5611 L 21.8815,-79.0912 L 22.1489,-79.6594 L 22.3429,-80.2566 L 22.4606,-80.8733 L 22.5,-81.5
 L 22.5,-206.5 L 22.4606,-207.127 L 22.3429,-207.743 L 22.1489,-208.341 L 21.8815,-208.909 L 21.5451,-209.439
 L 21.1448,-209.923 L 20.6871,-210.353 L 20.1791,-210.722 L 19.6289,-211.024 L 19.0451,-211.255 L 18.4369,-211.411
 L 17.8139,-211.49 L -17.8139,-211.49 L -18.4369,-211.411 L -19.0451,-211.255 L -19.6289,-211.024 L -20.1791,-210.722
 L -20.6871,-210.353 L -21.1448,-209.923 L -21.5451,-209.439 L -21.8815,-208.909 L -22.1489,-208.341 L -22.3429,-207.743
 L -22.4606,-207.127 L -22.5,-206.5 L -22.5,-81.5 L -22.4606,-80.8733 L -22.3429,-80.2566 L -22.1489,-79.6594
 L -21.8815,-79.0912 L -21.5451,-78.5611 L -21.1448,-78.0773 L -20.6871,-77.6474 L -20.1791,-77.2784 L -19.6289,-76.9759
 L -19.0451,-76.7447 L -18.4369,-76.5886 L -17.8139,-76.5099 L 17.8139,-76.5099 z
M 14.887,-202.204 L 14.6627,-202.232 L 14.4438,-202.288 L 14.2336,-202.371 L 14.0355,-202.48 L 13.8526,-202.613
 L 13.6879,-202.768 L 13.5438,-202.942 L 13.4226,-203.133 L 13.3264,-203.337 L 13.2565,-203.552 L 13.2142,-203.774
 L 13.2,-204 L 13.2142,-204.226 L 13.2565,-204.448 L 13.3264,-204.663 L 13.4226,-204.867 L 13.5438,-205.058
 L 13.6879,-205.232 L 13.8526,-205.387 L 14.0355,-205.52 L 14.2336,-205.629 L 14.4438,-205.712 L 14.6627,-205.768
 L 14.887,-205.796 L 15.113,-205.796 L 15.3373,-205.768 L 15.5562,-205.712 L 15.7664,-205.629 L 15.9645,-205.52
 L 16.1474,-205.387 L 16.3121,-205.232 L 16.4562,-205.058 L 16.5773,-204.867 L 16.6736,-204.663 L 16.7434,-204.448
 L 16.7858,-204.226 L 16.8,-204 L 16.7858,-203.774 L 16.7434,-203.552 L 16.6736,-203.337 L 16.5773,-203.133
 L 16.4562,-202.942 L 16.3121,-202.768 L 16.1474,-202.613 L 15.9645,-202.48 L 15.7664,-202.371 L 15.5562,-202.288
 L 15.3373,-202.232 L 15.113,-202.204 z
M -15.113,-202.204 L -15.3373,-202.232 L -15.5562,-202.288 L -15.7664,-202.371 L -15.9645,-202.48 L -16.1474,-202.613
 L -16.3121,-202.768 L -16.4562,-202.942 L -16.5773,-203.133 L -16.6736,-203.337 L -16.7434,-203.552 L -16.7858,-203.774
 L -16.8,-204 L -16.7858,-204.226 L -16.7434,-204.448 L -16.6736,-204.663 L -16.5773,-204.867 L -16.4562,-205.058
 L -16.3121,-205.232 L -16.1474,-205.387 L -15.9645,-205.52 L -15.7664,-205.629 L -15.5562,-205.712 L -15.3373,-205.768
 L -15.113,-205.796 L -14.887,-205.796 L -14.6627,-205.768 L -14.4438,-205.712 L -14.2336,-205.629 L -14.0355,-205.52
 L -13.8526,-205.387 L -13.6879,-205.232 L -13.5438,-205.058 L -13.4226,-204.867 L -13.3264,-204.663 L -13.2565,-204.448
 L -13.2142,-204.226 L -13.2,-204 L -13.2142,-203.774 L -13.2565,-203.552 L -13.3264,-203.337 L -13.4226,-203.133
 L -13.5438,-202.942 L -13.6879,-202.768 L -13.8526,-202.613 L -14.0355,-202.48 L -14.2336,-202.371 L -14.4438,-202.288
 L -14.6627,-202.232 L -14.887,-202.204 z
M -15.113,-82.2036 L -15.3373,-82.2319 L -15.5562,-82.2881 L -15.7664,-82.3713 L -15.9645,-82.4802 L -16.1474,-82.6131
 L -16.3121,-82.7678 L -16.4562,-82.942 L -16.5773,-83.1328 L -16.6736,-83.3374 L -16.7434,-83.5524 L -16.7858,-83.7744
 L -16.8,-84 L -16.7858,-84.2256 L -16.7434,-84.4476 L -16.6736,-84.6626 L -16.5773,-84.8672 L -16.4562,-85.058
 L -16.3121,-85.2322 L -16.1474,-85.3869 L -15.9645,-85.5198 L -15.7664,-85.6287 L -15.5562,-85.7119 L -15.3373,-85.7681
 L -15.113,-85.7964 L -14.887,-85.7964 L -14.6627,-85.7681 L -14.4438,-85.7119 L -14.2336,-85.6287 L -14.0355,-85.5198
 L -13.8526,-85.3869 L -13.6879,-85.2322 L -13.5438,-85.058 L -13.4226,-84.8672 L -13.3264,-84.6626 L -13.2565,-84.4476
 L -13.2142,-84.2256 L -13.2,-84 L -13.2142,-83.7744 L -13.2565,-83.5524 L -13.3264,-83.3374 L -13.4226,-83.1328
 L -13.5438,-82.942 L -13.6879,-82.7678 L -13.8526,-82.6131 L -14.0355,-82.4802 L -14.2336,-82.3713 L -14.4438,-82.2881
 L -14.6627,-82.2319 L -14.887,-82.2036 z
M 14.887,-82.2036 L 14.6627,-82.2319 L 14.4438,-82.2881 L 14.2336,-82.3713 L 14.0355,-82.4802 L 13.8526,-82.6131
 L 13.6879,-82.7678 L 13.5438,-82.942 L 13.4226,-83.1328 L 13.3264,-83.3374 L 13.2565,-83.5524 L 13.2142,-83.7744
 L 13.2,-84 L 13.2142,-84.2256 L 13.2565,-84.4476 L 13.3264,-84.6626 L 13.4226,-84.8672 L 13.5438,-85.058
 L 13.6879,-85.2322 L 13.8526,-85.3869 L 14.0355,-85.5198 L 14.2336,-85.6287 L 14.4438,-85.7119 L 14.6627,-85.7681
 L 14.887,-85.7964 L 15.113,-85.7964 L 15.3373,-85.7681 L 15.5562,-85.7119 L 15.7664,-85.6287 L 15.9645,-85.5198
 L 16.1474,-85.3869 L 16.3121,-85.2322 L 16.4562,-85.058 L 16.5773,-84.8672 L 16.6736,-84.6626 L 16.7434,-84.4476
 L 16.7858,-84.2256 L 16.8,-84 L 16.7858,-83.7744 L 16.7434,-83.5524 L 16.6736,-83.3374 L 16.5773,-83.1328
 L 16.4562,-82.942 L 16.3121,-82.7678 L 16.1474,-82.6131 L 15.9645,-82.4802 L 15.7664,-82.3713 L 15.5562,-82.2881
 L 15.3373,-82.2319 L 15.113,-82.2036 z
" stroke="black" fill="lightgray" stroke-width="0.5"/>
</svg>
