<?xml version="1.0" standalone="no"?>
<!DOCTYPE svg PUBLIC "-//W3C//DTD SVG 1.1//EN" "http://www.w3.org/Graphics/SVG/1.1/DTD/svg11.dtd">
<svg width="17mm" height="40mm" viewBox="-9 -56 17 40" xmlns="http://www.w3.org/2000/svg" version="1.1">
<title>OpenSCAD Model</title>
<path d="
M 1.40535,-40.6329 L 2.31763,-40.8671 L 3.19334,-41.2138 L 4.01869,-41.6675 L 4.78067,-42.2212 L 5.46725,-42.8659
 L 6.06763,-43.5916 L 6.5723,-44.3869 L 6.97331,-45.2391 L 7.26436,-46.1348 L 7.44086,-47.06 L 7.5,-48
 L 7.44086,-48.94 L 7.26436,-49.8652 L 6.97331,-50.7609 L 6.5723,-51.6131 L 6.06763,-52.4084 L 5.46725,-53.1341
 L 4.78067,-53.7788 L 4.01869,-54.3325 L 3.19334,-54.7862 L 2.31763,-55.1329 L 1.40535,-55.3671 L 0.470917,-55.4852
 L -0.470917,-55.4852 L -1.40535,-55.3671 L -2.31763,-55.1329 L -3.19334,-54.7862 L -4.01869,-54.3325 L -4.78067,-53.7788
 L -5.46725,-53.1341 L -6,-52.4901 L -6,-55.1148 L -9,-55.1148 L -9,-40.8852 L -6,-40.8852
 L -6,-43.5099 L -5.46725,-42.8659 L -4.78067,-42.2212 L -4.01869,-41.6675 L -3.19334,-41.2138 L -2.31763,-40.8671
 L -1.40535,-40.6329 L -0.470917,-40.5148 L 0.470917,-40.5148 z
M 1.40535,-16.6329 L 2.31763,-16.8671 L 3.19334,-17.2138 L 4.01869,-17.6675 L 4.78067,-18.2212 L 5.46725,-18.8659
 L 6.06763,-19.5916 L 6.5723,-20.3869 L 6.97331,-21.2391 L 7.26436,-22.1348 L 7.44086,-23.06 L 7.5,-24
 L 7.44086,-24.94 L 7.26436,-25.8652 L 6.97331,-26.7609 L 6.5723,-27.6131 L 6.06763,-28.4084 L 5.46725,-29.1341
 L 4.78067,-29.7788 L 4.01869,-30.3325 L 3.19334,-30.7862 L 2.31763,-31.1329 L 1.40535,-31.3671 L 0.470917,-31.4852
 L -0.470917,-31.4852 L -1.40535,-31.3671 L -2.31763,-31.1329 L -3.19334,-30.7862 L -4.01869,-30.3325 L -4.78067,-29.7788
 L -5.46725,-29.1341 L -6.06763,-28.4084 L -6.5723,-27.6131 L -6.65179,-27.4442 L -9,-27.4442 L -9,-20.5558
 L -6.65179,-20.5558 L -6.5723,-20.3869 L -6.06763,-19.5916 L -5.46725,-18.8659 L -4.78067,-18.2212 L -4.01869,-17.6675
 L -3.19334,-17.2138 L -2.31763,-16.8671 L -1.40535,-16.6329 L -0.470917,-16.5148 L 0.470917,-16.5148 z
M -0.113022,-22.2036 L -0.33728,-22.2319 L -0.556229,-22.2881 L -0.766388,-22.3713 L -0.964478,-22.4802 L -1.14735,-22.6131
 L -1.31213,-22.7678 L -1.45622,-22.942 L -1.57735,-23.1329 L -1.67358,-23.3374 L -1.74344,-23.5524 L -1.7858,-23.7744
 L -1.79999,-24 L -1.7858,-24.2256 L -1.74344,-24.4476 L -1.67358,-24.6626 L -1.57735,-24.8671 L -1.45622,-25.058
 L -1.31213,-25.2322 L -1.14735,-25.3869 L -0.964478,-25.5198 L -0.766388,-25.6287 L -0.556229,-25.7119 L -0.33728,-25.7681
 L -0.113022,-25.7964 L 0.113022,-25.7964 L 0.33728,-25.7681 L 0.556229,-25.7119 L 0.766388,-25.6287 L 0.964478,-25.5198
 L 1.14735,-25.3869 L 1.31213,-25.2322 L 1.45622,-25.058 L 1.57735,-24.8671 L 1.67358,-24.6626 L 1.74344,-24.4476
 L 1.7858,-24.2256 L 1.79999,-24 L 1.7858,-23.7744 L 1.74344,-23.5524 L 1.67358,-23.3374 L 1.57735,-23.1329
 L 1.45622,-22.942 L 1.31213,-22.7678 L 1.14735,-22.6131 L 0.964478,-22.4802 L 0.766388,-22.3713 L 0.556229,-22.2881
 L 0.33728,-22.2319 L 0.113022,-22.2036 z
" stroke="black" fill="lightgray" stroke-width="0.5"/>
</svg>
