<?xml version="1.0" standalone="no"?>
<!DOCTYPE svg PUBLIC "-//W3C//DTD SVG 1.1//EN" "http://www.w3.org/Graphics/SVG/1.1/DTD/svg11.dtd">
<svg width="182mm" height="108mm" viewBox="-92 -171 182 108" xmlns="http://www.w3.org/2000/svg" version="1.1">
<title>OpenSCAD Model</title>
<path d="
M -88.5,-142.441 L -88.1871,-142.147 L -87.6791,-141.778 L -87.1289,-141.476 L -86.5451,-141.245 L -85.9369,-141.089
 L -85.3139,-141.01 L 85.3139,-141.01 L 85.9369,-141.089 L 86.5451,-141.245 L 87.1289,-141.476 L 87.6791,-141.778
 L 88.1871,-142.147 L 88.6448,-142.577 L 89.0451,-143.061 L 89.3815,-143.591 L 89.6489,-144.159 L 89.8429,-144.757
 L 89.9606,-145.373 L 90,-146 L 90,-166 L 89.9606,-166.627 L 89.8429,-167.243 L 89.6489,-167.841
 L 89.3815,-168.409 L 89.0451,-168.939 L 88.6448,-169.423 L 88.1871,-169.853 L 87.6791,-170.222 L 87.1289,-170.524
 L 86.5451,-170.755 L 85.9369,-170.911 L 85.3139,-170.99 L -85.3139,-170.99 L -85.9369,-170.911 L -86.5451,-170.755
 L -87.1289,-170.524 L -87.6791,-170.222 L -88.1871,-169.853 L -88.5,-169.559 L -88.5,-170.99 L -91.5,-170.99
 L -91.5,-141.01 L -88.5,-141.01 z
M -84.7432,-142.635 L -85.2256,-142.696 L -85.6967,-142.817 L -86.1489,-142.996 L -86.5751,-143.23 L -86.9685,-143.516
 L -87.323,-143.849 L -87.633,-144.224 L -87.8936,-144.634 L -88.1007,-145.074 L -88.251,-145.537 L -88.3421,-146.015
 L -88.3726,-146.5 L -88.3726,-165.5 L -88.3421,-165.985 L -88.251,-166.463 L -88.1007,-166.926 L -87.8936,-167.366
 L -87.633,-167.776 L -87.323,-168.151 L -86.9685,-168.484 L -86.5751,-168.77 L -86.1489,-169.004 L -85.6967,-169.183
 L -85.2256,-169.304 L -84.7432,-169.365 L 84.7432,-169.365 L 85.2256,-169.304 L 85.6967,-169.183 L 86.1489,-169.004
 L 86.5751,-168.77 L 86.9685,-168.484 L 87.323,-168.151 L 87.633,-167.776 L 87.8936,-167.366 L 88.1007,-166.926
 L 88.251,-166.463 L 88.3421,-165.985 L 88.3726,-165.5 L 88.3726,-146.5 L 88.3421,-146.015 L 88.251,-145.537
 L 88.1007,-145.074 L 87.8936,-144.634 L 87.633,-144.224 L 87.323,-143.849 L 86.9685,-143.516 L 86.5751,-143.23
 L 86.1489,-142.996 L 85.6967,-142.817 L 85.2256,-142.696 L 84.7432,-142.635 z
M 85.9369,-102.089 L 86.5451,-102.245 L 87.1289,-102.476 L 87.6791,-102.778 L 88.1871,-103.147 L 88.6448,-103.577
 L 89.0451,-104.061 L 89.3815,-104.591 L 89.6489,-105.159 L 89.8429,-105.757 L 89.9606,-106.373 L 90,-107
 L 90,-127 L 89.9606,-127.627 L 89.8429,-128.243 L 89.6489,-128.841 L 89.3815,-129.409 L 89.0451,-129.939
 L 88.6448,-130.423 L 88.1871,-130.853 L 87.6791,-131.222 L 87.1289,-131.524 L 86.5451,-131.755 L 85.9369,-131.911
 L 85.3139,-131.99 L -85.3139,-131.99 L -85.9369,-131.911 L -86.5451,-131.755 L -87.1289,-131.524 L -87.6791,-131.222
 L -88.1871,-130.853 L -88.5,-130.559 L -88.5,-131.615 L -91.5,-131.615 L -91.5,-102.385 L -88.5,-102.385
 L -88.5,-103.441 L -88.1871,-103.147 L -87.6791,-102.778 L -87.1289,-102.476 L -86.5451,-102.245 L -85.9369,-102.089
 L -85.3139,-102.01 L 85.3139,-102.01 z
M 85.9369,-63.0886 L 86.5451,-63.2447 L 87.1289,-63.4759 L 87.6791,-63.7784 L 88.1871,-64.1474 L 88.6448,-64.5773
 L 89.0451,-65.0611 L 89.3815,-65.5912 L 89.6489,-66.1594 L 89.8429,-66.7566 L 89.9606,-67.3733 L 90,-68
 L 90,-88 L 89.9606,-88.6267 L 89.8429,-89.2434 L 89.6489,-89.8406 L 89.3815,-90.4088 L 89.0451,-90.9389
 L 88.6448,-91.4227 L 88.1871,-91.8526 L 87.6791,-92.2216 L 87.1289,-92.5241 L 86.5451,-92.7553 L 85.9369,-92.9114
 L 85.3139,-92.9901 L -85.3139,-92.9901 L -85.9369,-92.9114 L -86.5451,-92.7553 L -87.1289,-92.5241 L -87.6791,-92.2216
 L -88.1871,-91.8526 L -88.6448,-91.4227 L -89.0451,-90.9389 L -89.3815,-90.4088 L -89.6489,-89.8406 L -89.8429,-89.2434
 L -89.9,-88.9442 L -91.5,-88.9442 L -91.5,-67.0558 L -89.9,-67.0558 L -89.8429,-66.7566 L -89.6489,-66.1594
 L -89.3815,-65.5912 L -89.0451,-65.0611 L -88.6448,-64.5773 L -88.1871,-64.1474 L -87.6791,-63.7784 L -87.1289,-63.4759
 L -86.5451,-63.2447 L -85.9369,-63.0886 L -85.3139,-63.0099 L 85.3139,-63.0099 z
M -82.613,-83.7036 L -82.8373,-83.7319 L -83.0562,-83.7881 L -83.2664,-83.8713 L -83.4645,-83.9802 L -83.6474,-84.1131
 L -83.8121,-84.2678 L -83.9562,-84.442 L -84.0773,-84.6328 L -84.1736,-84.8374 L -84.2434,-85.0524 L -84.2858,-85.2744
 L -84.3,-85.5 L -84.2858,-85.7256 L -84.2434,-85.9476 L -84.1736,-86.1626 L -84.0773,-86.3671 L -83.9562,-86.558
 L -83.8121,-86.7322 L -83.6474,-86.8869 L -83.4645,-87.0198 L -83.2664,-87.1287 L -83.0562,-87.2119 L -82.8373,-87.2681
 L -82.613,-87.2964 L -82.387,-87.2964 L -82.1627,-87.2681 L -81.9438,-87.2119 L -81.7336,-87.1287 L -81.5355,-87.0198
 L -81.3526,-86.8869 L -81.1879,-86.7322 L -81.0438,-86.558 L -80.9226,-86.3671 L -80.8264,-86.1626 L -80.7565,-85.9476
 L -80.7142,-85.7256 L -80.7,-85.5 L -80.7142,-85.2744 L -80.7565,-85.0524 L -80.8264,-84.8374 L -80.9226,-84.6328
 L -81.0438,-84.442 L -81.1879,-84.2678 L -81.3526,-84.1131 L -81.5355,-83.9802 L -81.7336,-83.8713 L -81.9438,-83.7881
 L -82.1627,-83.7319 L -82.387,-83.7036 z
M 82.387,-83.7036 L 82.1627,-83.7319 L 81.9438,-83.7881 L 81.7336,-83.8713 L 81.5355,-83.9802 L 81.3526,-84.1131
 L 81.1879,-84.2678 L 81.0438,-84.442 L 80.9226,-84.6328 L 80.8264,-84.8374 L 80.7565,-85.0524 L 80.7142,-85.2744
 L 80.7,-85.5 L 80.7142,-85.7256 L 80.7565,-85.9476 L 80.8264,-86.1626 L 80.9226,-86.3671 L 81.0438,-86.558
 L 81.1879,-86.7322 L 81.3526,-86.8869 L 81.5355,-87.0198 L 81.7336,-87.1287 L 81.9438,-87.2119 L 82.1627,-87.2681
 L 82.387,-87.2964 L 82.613,-87.2964 L 82.8373,-87.2681 L 83.0562,-87.2119 L 83.2664,-87.1287 L 83.4645,-87.0198
 L 83.6474,-86.8869 L 83.8121,-86.7322 L 83.9562,-86.558 L 84.0773,-86.3671 L 84.1736,-86.1626 L 84.2434,-85.9476
 L 84.2858,-85.7256 L 84.3,-85.5 L 84.2858,-85.2744 L 84.2434,-85.0524 L 84.1736,-84.8374 L 84.0773,-84.6328
 L 83.9562,-84.442 L 83.8121,-84.2678 L 83.6474,-84.1131 L 83.4645,-83.9802 L 83.2664,-83.8713 L 83.0562,-83.7881
 L 82.8373,-83.7319 L 82.613,-83.7036 z
M -82.613,-68.7036 L -82.8373,-68.7319 L -83.0562,-68.7881 L -83.2664,-68.8713 L -83.4645,-68.9802 L -83.6474,-69.1131
 L -83.8121,-69.2678 L -83.9562,-69.442 L -84.0773,-69.6329 L -84.1736,-69.8374 L -84.2434,-70.0524 L -84.2858,-70.2744
 L -84.3,-70.5 L -84.2858,-70.7256 L -84.2434,-70.9476 L -84.1736,-71.1626 L -84.0773,-71.3672 L -83.9562,-71.558
 L -83.8121,-71.7322 L -83.6474,-71.8869 L -83.4645,-72.0198 L -83.2664,-72.1287 L -83.0562,-72.2119 L -82.8373,-72.2681
 L -82.613,-72.2964 L -82.387,-72.2964 L -82.1627,-72.2681 L -81.9438,-72.2119 L -81.7336,-72.1287 L -81.5355,-72.0198
 L -81.3526,-71.8869 L -81.1879,-71.7322 L -81.0438,-71.558 L -80.9226,-71.3672 L -80.8264,-71.1626 L -80.7565,-70.9476
 L -80.7142,-70.7256 L -80.7,-70.5 L -80.7142,-70.2744 L -80.7565,-70.0524 L -80.8264,-69.8374 L -80.9226,-69.6329
 L -81.0438,-69.442 L -81.1879,-69.2678 L -81.3526,-69.1131 L -81.5355,-68.9802 L -81.7336,-68.8713 L -81.9438,-68.7881
 L -82.1627,-68.7319 L -82.387,-68.7036 z
M 82.387,-68.7036 L 82.1627,-68.7319 L 81.9438,-68.7881 L 81.7336,-68.8713 L 81.5355,-68.9802 L 81.3526,-69.1131
 L 81.1879,-69.2678 L 81.0438,-69.442 L 80.9226,-69.6329 L 80.8264,-69.8374 L 80.7565,-70.0524 L 80.7142,-70.2744
 L 80.7,-70.5 L 80.7142,-70.7256 L 80.7565,-70.9476 L 80.8264,-71.1626 L 80.9226,-71.3672 L 81.0438,-71.558
 L 81.1879,-71.7322 L 81.3526,-71.8869 L 81.5355,-72.0198 L 81.7336,-72.1287 L 81.9438,-72.2119 L 82.1627,-72.2681
 L 82.387,-72.2964 L 82.613,-72.2964 L 82.8373,-72.2681 L 83.0562,-72.2119 L 83.2664,-72.1287 L 83.4645,-72.0198
 L 83.6474,-71.8869 L 83.8121,-71.7322 L 83.9562,-71.558 L 84.0773,-71.3672 L 84.1736,-71.1626 L 84.2434,-70.9476
 L 84.2858,-70.7256 L 84.3,-70.5 L 84.2858,-70.2744 L 84.2434,-70.0524 L 84.1736,-69.8374 L 84.0773,-69.6329
 L 83.9562,-69.442 L 83.8121,-69.2678 L 83.6474,-69.1131 L 83.4645,-68.9802 L 83.2664,-68.8713 L 83.0562,-68.7881
 L 82.8373,-68.7319 L 82.613,-68.7036 z
" stroke="black" fill="lightgray" stroke-width="0.5"/>
</svg>
