<?xml version="1.0" standalone="no"?>
<!DOCTYPE svg PUBLIC "-//W3C//DTD SVG 1.1//EN" "http://www.w3.org/Graphics/SVG/1.1/DTD/svg11.dtd">
<svg width="76mm" height="64mm" viewBox="-38 -104 76 64" xmlns="http://www.w3.org/2000/svg" version="1.1">
<title>OpenSCAD Model</title>
<path d="
M 33.4369,-88.5886 L 34.0451,-88.7447 L 34.6289,-88.9759 L 35.1791,-89.2784 L 35.6871,-89.6474 L 36.1448,-90.0773
 L 36.5451,-90.5611 L 36.8815,-91.0912 L 37.1489,-91.6594 L 37.3429,-92.2566 L 37.4606,-92.8733 L 37.5,-93.5
 L 37.5,-98.5 L 37.4606,-99.1267 L 37.3429,-99.7434 L 37.1489,-100.341 L 36.8815,-100.909 L 36.5451,-101.439
 L 36.1448,-101.923 L 35.6871,-102.353 L 35.1791,-102.722 L 34.6289,-103.024 L 34.0451,-103.255 L 33.4369,-103.411
 L 32.8139,-103.49 L -32.8139,-103.49 L -33.4369,-103.411 L -34.0451,-103.255 L -34.6289,-103.024 L -35.1791,-102.722
 L -35.6871,-102.353 L -36.1448,-101.923 L -36.5451,-101.439 L -36.8815,-100.909 L -37.1489,-100.341 L -37.3429,-99.7434
 L -37.4606,-99.1267 L -37.5,-98.5 L -37.5,-93.5 L -37.4606,-92.8733 L -37.3429,-92.2566 L -37.1489,-91.6594
 L -36.8815,-91.0912 L -36.5451,-90.5611 L -36.1448,-90.0773 L -35.6871,-89.6474 L -35.1791,-89.2784 L -34.6289,-88.9759
 L -34.0451,-88.7447 L -33.4369,-88.5886 L -32.8139,-88.5099 L 32.8139,-88.5099 z
M -32.5482,-89.0094 L -33.1401,-89.0841 L -33.7178,-89.2325 L -34.2724,-89.4521 L -34.7952,-89.7395 L -35.2778,-90.0901
 L -35.7126,-90.4984 L -36.0928,-90.958 L -36.4124,-91.4617 L -36.6664,-92.0014 L -36.8508,-92.5687 L -36.9625,-93.1547
 L -37,-93.75 L -37,-98.25 L -36.9625,-98.8453 L -36.8508,-99.4313 L -36.6664,-99.9986 L -36.4124,-100.538
 L -36.0928,-101.042 L -35.7126,-101.502 L -35.2778,-101.91 L -34.7952,-102.261 L -34.2724,-102.548 L -33.7178,-102.768
 L -33.1401,-102.916 L -32.5482,-102.991 L 32.5482,-102.991 L 33.1401,-102.916 L 33.7178,-102.768 L 34.2724,-102.548
 L 34.7952,-102.261 L 35.2778,-101.91 L 35.7126,-101.502 L 36.0928,-101.042 L 36.4124,-100.538 L 36.6664,-99.9986
 L 36.8508,-99.4313 L 36.9625,-98.8453 L 37,-98.25 L 37,-93.75 L 36.9625,-93.1547 L 36.8508,-92.5687
 L 36.6664,-92.0014 L 36.4124,-91.4617 L 36.0928,-90.958 L 35.7126,-90.4984 L 35.2778,-90.0901 L 34.7952,-89.7395
 L 34.2724,-89.4521 L 33.7178,-89.2325 L 33.1401,-89.0841 L 32.5482,-89.0094 z
M 33.4369,-64.5886 L 34.0451,-64.7447 L 34.6289,-64.9759 L 35.1791,-65.2784 L 35.6871,-65.6474 L 36.1448,-66.0773
 L 36.5451,-66.5611 L 36.8815,-67.0912 L 37.1489,-67.6594 L 37.3429,-68.2566 L 37.4606,-68.8733 L 37.5,-69.5
 L 37.5,-74.5 L 37.4606,-75.1267 L 37.3429,-75.7434 L 37.1489,-76.3406 L 36.8815,-76.9088 L 36.5451,-77.4389
 L 36.1448,-77.9227 L 35.6871,-78.3526 L 35.1791,-78.7216 L 34.6289,-79.0241 L 34.0451,-79.2553 L 33.4369,-79.4114
 L 32.8139,-79.4901 L -32.8139,-79.4901 L -33.4369,-79.4114 L -34.0451,-79.2553 L -34.6289,-79.0241 L -35.1791,-78.7216
 L -35.6871,-78.3526 L -36.1448,-77.9227 L -36.5451,-77.4389 L -36.8815,-76.9088 L -37.1489,-76.3406 L -37.3429,-75.7434
 L -37.4606,-75.1267 L -37.5,-74.5 L -37.5,-69.5 L -37.4606,-68.8733 L -37.3429,-68.2566 L -37.1489,-67.6594
 L -36.8815,-67.0912 L -36.5451,-66.5611 L -36.1448,-66.0773 L -35.6871,-65.6474 L -35.1791,-65.2784 L -34.6289,-64.9759
 L -34.0451,-64.7447 L -33.4369,-64.5886 L -32.8139,-64.5099 L 32.8139,-64.5099 z
M -32.493,-65.8882 L -32.9751,-65.9491 L -33.4457,-66.0699 L -33.8975,-66.2488 L -34.3234,-66.4829 L -34.7165,-66.7685
 L -35.0707,-67.1012 L -35.3805,-67.4756 L -35.6408,-67.8859 L -35.8477,-68.3256 L -35.9979,-68.7877 L -36.089,-69.265
 L -36.1195,-69.75 L -36.1195,-74.25 L -36.089,-74.735 L -35.9979,-75.2123 L -35.8477,-75.6744 L -35.6408,-76.1141
 L -35.3805,-76.5244 L -35.0707,-76.8988 L -34.7165,-77.2315 L -34.3234,-77.5171 L -33.8975,-77.7512 L -33.4457,-77.9301
 L -32.9751,-78.0509 L -32.493,-78.1118 L 32.493,-78.1118 L 32.9751,-78.0509 L 33.4457,-77.9301 L 33.8975,-77.7512
 L 34.3234,-77.5171 L 34.7165,-77.2315 L 35.0707,-76.8988 L 35.3805,-76.5244 L 35.6408,-76.1141 L 35.8477,-75.6744
 L 35.9979,-75.2123 L 36.089,-74.735 L 36.1195,-74.25 L 36.1195,-69.75 L 36.089,-69.265 L 35.9979,-68.7877
 L 35.8477,-68.3256 L 35.6408,-67.8859 L 35.3805,-67.4756 L 35.0707,-67.1012 L 34.7165,-66.7685 L 34.3234,-66.4829
 L 33.8975,-66.2488 L 33.4457,-66.0699 L 32.9751,-65.9491 L 32.493,-65.8882 z
M 33.4369,-40.5886 L 34.0451,-40.7447 L 34.6289,-40.9759 L 35.1791,-41.2784 L 35.6871,-41.6474 L 36.1448,-42.0773
 L 36.5451,-42.5611 L 36.8815,-43.0912 L 37.1489,-43.6594 L 37.3429,-44.2566 L 37.4606,-44.8733 L 37.5,-45.5
 L 37.5,-50.5 L 37.4606,-51.1267 L 37.3429,-51.7434 L 37.1489,-52.3406 L 36.8815,-52.9088 L 36.5451,-53.4389
 L 36.1448,-53.9227 L 35.6871,-54.3526 L 35.1791,-54.7216 L 34.6289,-55.0241 L 34.0451,-55.2553 L 33.4369,-55.4114
 L 32.8139,-55.4901 L -32.8139,-55.4901 L -33.4369,-55.4114 L -34.0451,-55.2553 L -34.6289,-55.0241 L -35.1791,-54.7216
 L -35.6871,-54.3526 L -36.1448,-53.9227 L -36.5451,-53.4389 L -36.8815,-52.9088 L -37.1489,-52.3406 L -37.3429,-51.7434
 L -37.4606,-51.1267 L -37.5,-50.5 L -37.5,-45.5 L -37.4606,-44.8733 L -37.3429,-44.2566 L -37.1489,-43.6594
 L -36.8815,-43.0912 L -36.5451,-42.5611 L -36.1448,-42.0773 L -35.6871,-41.6474 L -35.1791,-41.2784 L -34.6289,-40.9759
 L -34.0451,-40.7447 L -33.4369,-40.5886 L -32.8139,-40.5099 L 32.8139,-40.5099 z
M 29.887,-46.2036 L 29.6627,-46.2319 L 29.4438,-46.2881 L 29.2336,-46.3713 L 29.0355,-46.4802 L 28.8526,-46.6131
 L 28.6879,-46.7678 L 28.5438,-46.942 L 28.4226,-47.1329 L 28.3264,-47.3374 L 28.2565,-47.5524 L 28.2142,-47.7744
 L 28.2,-48 L 28.2142,-48.2256 L 28.2565,-48.4476 L 28.3264,-48.6626 L 28.4226,-48.8671 L 28.5438,-49.058
 L 28.6879,-49.2322 L 28.8526,-49.3869 L 29.0355,-49.5198 L 29.2336,-49.6287 L 29.4438,-49.7119 L 29.6627,-49.7681
 L 29.887,-49.7964 L 30.113,-49.7964 L 30.3373,-49.7681 L 30.5562,-49.7119 L 30.7664,-49.6287 L 30.9645,-49.5198
 L 31.1474,-49.3869 L 31.3121,-49.2322 L 31.4562,-49.058 L 31.5773,-48.8671 L 31.6736,-48.6626 L 31.7434,-48.4476
 L 31.7858,-48.2256 L 31.8,-48 L 31.7858,-47.7744 L 31.7434,-47.5524 L 31.6736,-47.3374 L 31.5773,-47.1329
 L 31.4562,-46.942 L 31.3121,-46.7678 L 31.1474,-46.6131 L 30.9645,-46.4802 L 30.7664,-46.3713 L 30.5562,-46.2881
 L 30.3373,-46.2319 L 30.113,-46.2036 z
M -30.113,-46.2036 L -30.3373,-46.2319 L -30.5562,-46.2881 L -30.7664,-46.3713 L -30.9645,-46.4802 L -31.1474,-46.6131
 L -31.3121,-46.7678 L -31.4562,-46.942 L -31.5773,-47.1329 L -31.6736,-47.3374 L -31.7434,-47.5524 L -31.7858,-47.7744
 L -31.8,-48 L -31.7858,-48.2256 L -31.7434,-48.4476 L -31.6736,-48.6626 L -31.5773,-48.8671 L -31.4562,-49.058
 L -31.3121,-49.2322 L -31.1474,-49.3869 L -30.9645,-49.5198 L -30.7664,-49.6287 L -30.5562,-49.7119 L -30.3373,-49.7681
 L -30.113,-49.7964 L -29.887,-49.7964 L -29.6627,-49.7681 L -29.4438,-49.7119 L -29.2336,-49.6287 L -29.0355,-49.5198
 L -28.8526,-49.3869 L -28.6879,-49.2322 L -28.5438,-49.058 L -28.4226,-48.8671 L -28.3264,-48.6626 L -28.2565,-48.4476
 L -28.2142,-48.2256 L -28.2,-48 L -28.2142,-47.7744 L -28.2565,-47.5524 L -28.3264,-47.3374 L -28.4226,-47.1329
 L -28.5438,-46.942 L -28.6879,-46.7678 L -28.8526,-46.6131 L -29.0355,-46.4802 L -29.2336,-46.3713 L -29.4438,-46.2881
 L -29.6627,-46.2319 L -29.887,-46.2036 z
" stroke="black" fill="lightgray" stroke-width="0.5"/>
</svg>
