  0
SECTION
  2
BLOCKS
  0
ENDSEC
  0
SECTION
  2
ENTITIES
  0
LINE
  8
0
 10
-58.5
 20
337.441
 11
-58.1871
 21
337.147
  0
LINE
  8
0
 10
-58.1871
 20
337.147
 11
-57.6791
 21
336.778
  0
LINE
  8
0
 10
-57.6791
 20
336.778
 11
-57.1289
 21
336.476
  0
LINE
  8
0
 10
-57.1289
 20
336.476
 11
-56.5451
 21
336.245
  0
LINE
  8
0
 10
-56.5451
 20
336.245
 11
-55.9369
 21
336.089
  0
LINE
  8
0
 10
-55.9369
 20
336.089
 11
-55.3139
 21
336.01
  0
LINE
  8
0
 10
-55.3139
 20
336.01
 11
55.3139
 21
336.01
  0
LINE
  8
0
 10
55.3139
 20
336.01
 11
55.9369
 21
336.089
  0
LINE
  8
0
 10
55.9369
 20
336.089
 11
56.5451
 21
336.245
  0
LINE
  8
0
 10
56.5451
 20
336.245
 11
57.1289
 21
336.476
  0
LINE
  8
0
 10
57.1289
 20
336.476
 11
57.6791
 21
336.778
  0
LINE
  8
0
 10
57.6791
 20
336.778
 11
58.1871
 21
337.147
  0
LINE
  8
0
 10
58.1871
 20
337.147
 11
58.6448
 21
337.577
  0
LINE
  8
0
 10
58.6448
 20
337.577
 11
59.0451
 21
338.061
  0
LINE
  8
0
 10
59.0451
 20
338.061
 11
59.3815
 21
338.591
  0
LINE
  8
0
 10
59.3815
 20
338.591
 11
59.6489
 21
339.159
  0
LINE
  8
0
 10
59.6489
 20
339.159
 11
59.8429
 21
339.757
  0
LINE
  8
0
 10
59.8429
 20
339.757
 11
59.9606
 21
340.373
  0
LINE
  8
0
 10
59.9606
 20
340.373
 11
60
 21
341
  0
LINE
  8
0
 10
60
 20
341
 11
60
 21
361
  0
LINE
  8
0
 10
60
 20
361
 11
59.9606
 21
361.627
  0
LINE
  8
0
 10
59.9606
 20
361.627
 11
59.8429
 21
362.243
  0
LINE
  8
0
 10
59.8429
 20
362.243
 11
59.6489
 21
362.841
  0
LINE
  8
0
 10
59.6489
 20
362.841
 11
59.3815
 21
363.409
  0
LINE
  8
0
 10
59.3815
 20
363.409
 11
59.0451
 21
363.939
  0
LINE
  8
0
 10
59.0451
 20
363.939
 11
58.6448
 21
364.423
  0
LINE
  8
0
 10
58.6448
 20
364.423
 11
58.1871
 21
364.853
  0
LINE
  8
0
 10
58.1871
 20
364.853
 11
57.6791
 21
365.222
  0
LINE
  8
0
 10
57.6791
 20
365.222
 11
57.1289
 21
365.524
  0
LINE
  8
0
 10
57.1289
 20
365.524
 11
56.5451
 21
365.755
  0
LINE
  8
0
 10
56.5451
 20
365.755
 11
55.9369
 21
365.911
  0
LINE
  8
0
 10
55.9369
 20
365.911
 11
55.3139
 21
365.99
  0
LINE
  8
0
 10
55.3139
 20
365.99
 11
-55.3139
 21
365.99
  0
LINE
  8
0
 10
-55.3139
 20
365.99
 11
-55.9369
 21
365.911
  0
LINE
  8
0
 10
-55.9369
 20
365.911
 11
-56.5451
 21
365.755
  0
LINE
  8
0
 10
-56.5451
 20
365.755
 11
-57.1289
 21
365.524
  0
LINE
  8
0
 10
-57.1289
 20
365.524
 11
-57.6791
 21
365.222
  0
LINE
  8
0
 10
-57.6791
 20
365.222
 11
-58.1871
 21
364.853
  0
LINE
  8
0
 10
-58.1871
 20
364.853
 11
-58.5
 21
364.559
  0
LINE
  8
0
 10
-58.5
 20
364.559
 11
-58.5
 21
365.99
  0
LINE
  8
0
 10
-58.5
 20
365.99
 11
-61.5
 21
365.99
  0
LINE
  8
0
 10
-61.5
 20
365.99
 11
-61.5
 21
336.01
  0
LINE
  8
0
 10
-61.5
 20
336.01
 11
-58.5
 21
336.01
  0
LINE
  8
0
 10
-58.5
 20
336.01
 11
-58.5
 21
337.441
  0
LINE
  8
0
 10
-54.7512
 20
337.508
 11
-55.2495
 21
337.571
  0
LINE
  8
0
 10
-55.2495
 20
337.571
 11
-55.7361
 21
337.696
  0
LINE
  8
0
 10
-55.7361
 20
337.696
 11
-56.2031
 21
337.881
  0
LINE
  8
0
 10
-56.2031
 20
337.881
 11
-56.6433
 21
338.123
  0
LINE
  8
0
 10
-56.6433
 20
338.123
 11
-57.0497
 21
338.418
  0
LINE
  8
0
 10
-57.0497
 20
338.418
 11
-57.4159
 21
338.762
  0
LINE
  8
0
 10
-57.4159
 20
338.762
 11
-57.7361
 21
339.149
  0
LINE
  8
0
 10
-57.7361
 20
339.149
 11
-58.0052
 21
339.573
  0
LINE
  8
0
 10
-58.0052
 20
339.573
 11
-58.2191
 21
340.028
  0
LINE
  8
0
 10
-58.2191
 20
340.028
 11
-58.3743
 21
340.505
  0
LINE
  8
0
 10
-58.3743
 20
340.505
 11
-58.4685
 21
340.999
  0
LINE
  8
0
 10
-58.4685
 20
340.999
 11
-58.5
 21
341.5
  0
LINE
  8
0
 10
-58.5
 20
341.5
 11
-58.5
 21
360.5
  0
LINE
  8
0
 10
-58.5
 20
360.5
 11
-58.4685
 21
361.001
  0
LINE
  8
0
 10
-58.4685
 20
361.001
 11
-58.3743
 21
361.495
  0
LINE
  8
0
 10
-58.3743
 20
361.495
 11
-58.2191
 21
361.972
  0
LINE
  8
0
 10
-58.2191
 20
361.972
 11
-58.0052
 21
362.427
  0
LINE
  8
0
 10
-58.0052
 20
362.427
 11
-57.7361
 21
362.851
  0
LINE
  8
0
 10
-57.7361
 20
362.851
 11
-57.4159
 21
363.238
  0
LINE
  8
0
 10
-57.4159
 20
363.238
 11
-57.0497
 21
363.582
  0
LINE
  8
0
 10
-57.0497
 20
363.582
 11
-56.6433
 21
363.877
  0
LINE
  8
0
 10
-56.6433
 20
363.877
 11
-56.2031
 21
364.119
  0
LINE
  8
0
 10
-56.2031
 20
364.119
 11
-55.7361
 21
364.304
  0
LINE
  8
0
 10
-55.7361
 20
364.304
 11
-55.2495
 21
364.429
  0
LINE
  8
0
 10
-55.2495
 20
364.429
 11
-54.7512
 21
364.492
  0
LINE
  8
0
 10
-54.7512
 20
364.492
 11
54.7512
 21
364.492
  0
LINE
  8
0
 10
54.7512
 20
364.492
 11
55.2495
 21
364.429
  0
LINE
  8
0
 10
55.2495
 20
364.429
 11
55.7361
 21
364.304
  0
LINE
  8
0
 10
55.7361
 20
364.304
 11
56.2031
 21
364.119
  0
LINE
  8
0
 10
56.2031
 20
364.119
 11
56.6433
 21
363.877
  0
LINE
  8
0
 10
56.6433
 20
363.877
 11
57.0497
 21
363.582
  0
LINE
  8
0
 10
57.0497
 20
363.582
 11
57.4159
 21
363.238
  0
LINE
  8
0
 10
57.4159
 20
363.238
 11
57.7361
 21
362.851
  0
LINE
  8
0
 10
57.7361
 20
362.851
 11
58.0052
 21
362.427
  0
LINE
  8
0
 10
58.0052
 20
362.427
 11
58.2191
 21
361.972
  0
LINE
  8
0
 10
58.2191
 20
361.972
 11
58.3743
 21
361.495
  0
LINE
  8
0
 10
58.3743
 20
361.495
 11
58.4685
 21
361.001
  0
LINE
  8
0
 10
58.4685
 20
361.001
 11
58.5
 21
360.5
  0
LINE
  8
0
 10
58.5
 20
360.5
 11
58.5
 21
341.5
  0
LINE
  8
0
 10
58.5
 20
341.5
 11
58.4685
 21
340.999
  0
LINE
  8
0
 10
58.4685
 20
340.999
 11
58.3743
 21
340.505
  0
LINE
  8
0
 10
58.3743
 20
340.505
 11
58.2191
 21
340.028
  0
LINE
  8
0
 10
58.2191
 20
340.028
 11
58.0052
 21
339.573
  0
LINE
  8
0
 10
58.0052
 20
339.573
 11
57.7361
 21
339.149
  0
LINE
  8
0
 10
57.7361
 20
339.149
 11
57.4159
 21
338.762
  0
LINE
  8
0
 10
57.4159
 20
338.762
 11
57.0497
 21
338.418
  0
LINE
  8
0
 10
57.0497
 20
338.418
 11
56.6433
 21
338.123
  0
LINE
  8
0
 10
56.6433
 20
338.123
 11
56.2031
 21
337.881
  0
LINE
  8
0
 10
56.2031
 20
337.881
 11
55.7361
 21
337.696
  0
LINE
  8
0
 10
55.7361
 20
337.696
 11
55.2495
 21
337.571
  0
LINE
  8
0
 10
55.2495
 20
337.571
 11
54.7512
 21
337.508
  0
LINE
  8
0
 10
54.7512
 20
337.508
 11
-54.7512
 21
337.508
  0
LINE
  8
0
 10
-58.5
 20
298.441
 11
-58.1871
 21
298.147
  0
LINE
  8
0
 10
-58.1871
 20
298.147
 11
-57.6791
 21
297.778
  0
LINE
  8
0
 10
-57.6791
 20
297.778
 11
-57.1289
 21
297.476
  0
LINE
  8
0
 10
-57.1289
 20
297.476
 11
-56.5451
 21
297.245
  0
LINE
  8
0
 10
-56.5451
 20
297.245
 11
-55.9369
 21
297.089
  0
LINE
  8
0
 10
-55.9369
 20
297.089
 11
-55.3139
 21
297.01
  0
LINE
  8
0
 10
-55.3139
 20
297.01
 11
55.3139
 21
297.01
  0
LINE
  8
0
 10
55.3139
 20
297.01
 11
55.9369
 21
297.089
  0
LINE
  8
0
 10
55.9369
 20
297.089
 11
56.5451
 21
297.245
  0
LINE
  8
0
 10
56.5451
 20
297.245
 11
57.1289
 21
297.476
  0
LINE
  8
0
 10
57.1289
 20
297.476
 11
57.6791
 21
297.778
  0
LINE
  8
0
 10
57.6791
 20
297.778
 11
58.1871
 21
298.147
  0
LINE
  8
0
 10
58.1871
 20
298.147
 11
58.6448
 21
298.577
  0
LINE
  8
0
 10
58.6448
 20
298.577
 11
59.0451
 21
299.061
  0
LINE
  8
0
 10
59.0451
 20
299.061
 11
59.3815
 21
299.591
  0
LINE
  8
0
 10
59.3815
 20
299.591
 11
59.6489
 21
300.159
  0
LINE
  8
0
 10
59.6489
 20
300.159
 11
59.8429
 21
300.757
  0
LINE
  8
0
 10
59.8429
 20
300.757
 11
59.9606
 21
301.373
  0
LINE
  8
0
 10
59.9606
 20
301.373
 11
60
 21
302
  0
LINE
  8
0
 10
60
 20
302
 11
60
 21
322
  0
LINE
  8
0
 10
60
 20
322
 11
59.9606
 21
322.627
  0
LINE
  8
0
 10
59.9606
 20
322.627
 11
59.8429
 21
323.243
  0
LINE
  8
0
 10
59.8429
 20
323.243
 11
59.6489
 21
323.841
  0
LINE
  8
0
 10
59.6489
 20
323.841
 11
59.3815
 21
324.409
  0
LINE
  8
0
 10
59.3815
 20
324.409
 11
59.0451
 21
324.939
  0
LINE
  8
0
 10
59.0451
 20
324.939
 11
58.6448
 21
325.423
  0
LINE
  8
0
 10
58.6448
 20
325.423
 11
58.1871
 21
325.853
  0
LINE
  8
0
 10
58.1871
 20
325.853
 11
57.6791
 21
326.222
  0
LINE
  8
0
 10
57.6791
 20
326.222
 11
57.1289
 21
326.524
  0
LINE
  8
0
 10
57.1289
 20
326.524
 11
56.5451
 21
326.755
  0
LINE
  8
0
 10
56.5451
 20
326.755
 11
55.9369
 21
326.911
  0
LINE
  8
0
 10
55.9369
 20
326.911
 11
55.3139
 21
326.99
  0
LINE
  8
0
 10
55.3139
 20
326.99
 11
-55.3139
 21
326.99
  0
LINE
  8
0
 10
-55.3139
 20
326.99
 11
-55.9369
 21
326.911
  0
LINE
  8
0
 10
-55.9369
 20
326.911
 11
-56.5451
 21
326.755
  0
LINE
  8
0
 10
-56.5451
 20
326.755
 11
-57.1289
 21
326.524
  0
LINE
  8
0
 10
-57.1289
 20
326.524
 11
-57.6791
 21
326.222
  0
LINE
  8
0
 10
-57.6791
 20
326.222
 11
-58.1871
 21
325.853
  0
LINE
  8
0
 10
-58.1871
 20
325.853
 11
-58.5
 21
325.559
  0
LINE
  8
0
 10
-58.5
 20
325.559
 11
-58.5
 21
326.99
  0
LINE
  8
0
 10
-58.5
 20
326.99
 11
-61.5
 21
326.99
  0
LINE
  8
0
 10
-61.5
 20
326.99
 11
-61.5
 21
297.01
  0
LINE
  8
0
 10
-61.5
 20
297.01
 11
-58.5
 21
297.01
  0
LINE
  8
0
 10
-58.5
 20
297.01
 11
-58.5
 21
298.441
  0
LINE
  8
0
 10
-54.7512
 20
298.508
 11
-55.2495
 21
298.571
  0
LINE
  8
0
 10
-55.2495
 20
298.571
 11
-55.7361
 21
298.696
  0
LINE
  8
0
 10
-55.7361
 20
298.696
 11
-56.2031
 21
298.881
  0
LINE
  8
0
 10
-56.2031
 20
298.881
 11
-56.6433
 21
299.123
  0
LINE
  8
0
 10
-56.6433
 20
299.123
 11
-57.0497
 21
299.418
  0
LINE
  8
0
 10
-57.0497
 20
299.418
 11
-57.4159
 21
299.762
  0
LINE
  8
0
 10
-57.4159
 20
299.762
 11
-57.7361
 21
300.149
  0
LINE
  8
0
 10
-57.7361
 20
300.149
 11
-58.0052
 21
300.573
  0
LINE
  8
0
 10
-58.0052
 20
300.573
 11
-58.2191
 21
301.028
  0
LINE
  8
0
 10
-58.2191
 20
301.028
 11
-58.3743
 21
301.505
  0
LINE
  8
0
 10
-58.3743
 20
301.505
 11
-58.4685
 21
301.999
  0
LINE
  8
0
 10
-58.4685
 20
301.999
 11
-58.5
 21
302.5
  0
LINE
  8
0
 10
-58.5
 20
302.5
 11
-58.5
 21
321.5
  0
LINE
  8
0
 10
-58.5
 20
321.5
 11
-58.4685
 21
322.001
  0
LINE
  8
0
 10
-58.4685
 20
322.001
 11
-58.3743
 21
322.495
  0
LINE
  8
0
 10
-58.3743
 20
322.495
 11
-58.2191
 21
322.972
  0
LINE
  8
0
 10
-58.2191
 20
322.972
 11
-58.0052
 21
323.427
  0
LINE
  8
0
 10
-58.0052
 20
323.427
 11
-57.7361
 21
323.851
  0
LINE
  8
0
 10
-57.7361
 20
323.851
 11
-57.4159
 21
324.238
  0
LINE
  8
0
 10
-57.4159
 20
324.238
 11
-57.0497
 21
324.582
  0
LINE
  8
0
 10
-57.0497
 20
324.582
 11
-56.6433
 21
324.877
  0
LINE
  8
0
 10
-56.6433
 20
324.877
 11
-56.2031
 21
325.119
  0
LINE
  8
0
 10
-56.2031
 20
325.119
 11
-55.7361
 21
325.304
  0
LINE
  8
0
 10
-55.7361
 20
325.304
 11
-55.2495
 21
325.429
  0
LINE
  8
0
 10
-55.2495
 20
325.429
 11
-54.7512
 21
325.492
  0
LINE
  8
0
 10
-54.7512
 20
325.492
 11
54.7512
 21
325.492
  0
LINE
  8
0
 10
54.7512
 20
325.492
 11
55.2495
 21
325.429
  0
LINE
  8
0
 10
55.2495
 20
325.429
 11
55.7361
 21
325.304
  0
LINE
  8
0
 10
55.7361
 20
325.304
 11
56.2031
 21
325.119
  0
LINE
  8
0
 10
56.2031
 20
325.119
 11
56.6433
 21
324.877
  0
LINE
  8
0
 10
56.6433
 20
324.877
 11
57.0497
 21
324.582
  0
LINE
  8
0
 10
57.0497
 20
324.582
 11
57.4159
 21
324.238
  0
LINE
  8
0
 10
57.4159
 20
324.238
 11
57.7361
 21
323.851
  0
LINE
  8
0
 10
57.7361
 20
323.851
 11
58.0052
 21
323.427
  0
LINE
  8
0
 10
58.0052
 20
323.427
 11
58.2191
 21
322.972
  0
LINE
  8
0
 10
58.2191
 20
322.972
 11
58.3743
 21
322.495
  0
LINE
  8
0
 10
58.3743
 20
322.495
 11
58.4685
 21
322.001
  0
LINE
  8
0
 10
58.4685
 20
322.001
 11
58.5
 21
321.5
  0
LINE
  8
0
 10
58.5
 20
321.5
 11
58.5
 21
302.5
  0
LINE
  8
0
 10
58.5
 20
302.5
 11
58.4685
 21
301.999
  0
LINE
  8
0
 10
58.4685
 20
301.999
 11
58.3743
 21
301.505
  0
LINE
  8
0
 10
58.3743
 20
301.505
 11
58.2191
 21
301.028
  0
LINE
  8
0
 10
58.2191
 20
301.028
 11
58.0052
 21
300.573
  0
LINE
  8
0
 10
58.0052
 20
300.573
 11
57.7361
 21
300.149
  0
LINE
  8
0
 10
57.7361
 20
300.149
 11
57.4159
 21
299.762
  0
LINE
  8
0
 10
57.4159
 20
299.762
 11
57.0497
 21
299.418
  0
LINE
  8
0
 10
57.0497
 20
299.418
 11
56.6433
 21
299.123
  0
LINE
  8
0
 10
56.6433
 20
299.123
 11
56.2031
 21
298.881
  0
LINE
  8
0
 10
56.2031
 20
298.881
 11
55.7361
 21
298.696
  0
LINE
  8
0
 10
55.7361
 20
298.696
 11
55.2495
 21
298.571
  0
LINE
  8
0
 10
55.2495
 20
298.571
 11
54.7512
 21
298.508
  0
LINE
  8
0
 10
54.7512
 20
298.508
 11
-54.7512
 21
298.508
  0
LINE
  8
0
 10
-58.5
 20
259.441
 11
-58.1871
 21
259.147
  0
LINE
  8
0
 10
-58.1871
 20
259.147
 11
-57.6791
 21
258.778
  0
LINE
  8
0
 10
-57.6791
 20
258.778
 11
-57.1289
 21
258.476
  0
LINE
  8
0
 10
-57.1289
 20
258.476
 11
-56.5451
 21
258.245
  0
LINE
  8
0
 10
-56.5451
 20
258.245
 11
-55.9369
 21
258.089
  0
LINE
  8
0
 10
-55.9369
 20
258.089
 11
-55.3139
 21
258.01
  0
LINE
  8
0
 10
-55.3139
 20
258.01
 11
55.3139
 21
258.01
  0
LINE
  8
0
 10
55.3139
 20
258.01
 11
55.9369
 21
258.089
  0
LINE
  8
0
 10
55.9369
 20
258.089
 11
56.5451
 21
258.245
  0
LINE
  8
0
 10
56.5451
 20
258.245
 11
57.1289
 21
258.476
  0
LINE
  8
0
 10
57.1289
 20
258.476
 11
57.6791
 21
258.778
  0
LINE
  8
0
 10
57.6791
 20
258.778
 11
58.1871
 21
259.147
  0
LINE
  8
0
 10
58.1871
 20
259.147
 11
58.6448
 21
259.577
  0
LINE
  8
0
 10
58.6448
 20
259.577
 11
59.0451
 21
260.061
  0
LINE
  8
0
 10
59.0451
 20
260.061
 11
59.3815
 21
260.591
  0
LINE
  8
0
 10
59.3815
 20
260.591
 11
59.6489
 21
261.159
  0
LINE
  8
0
 10
59.6489
 20
261.159
 11
59.8429
 21
261.757
  0
LINE
  8
0
 10
59.8429
 20
261.757
 11
59.9606
 21
262.373
  0
LINE
  8
0
 10
59.9606
 20
262.373
 11
60
 21
263
  0
LINE
  8
0
 10
60
 20
263
 11
60
 21
283
  0
LINE
  8
0
 10
60
 20
283
 11
59.9606
 21
283.627
  0
LINE
  8
0
 10
59.9606
 20
283.627
 11
59.8429
 21
284.243
  0
LINE
  8
0
 10
59.8429
 20
284.243
 11
59.6489
 21
284.841
  0
LINE
  8
0
 10
59.6489
 20
284.841
 11
59.3815
 21
285.409
  0
LINE
  8
0
 10
59.3815
 20
285.409
 11
59.0451
 21
285.939
  0
LINE
  8
0
 10
59.0451
 20
285.939
 11
58.6448
 21
286.423
  0
LINE
  8
0
 10
58.6448
 20
286.423
 11
58.1871
 21
286.853
  0
LINE
  8
0
 10
58.1871
 20
286.853
 11
57.6791
 21
287.222
  0
LINE
  8
0
 10
57.6791
 20
287.222
 11
57.1289
 21
287.524
  0
LINE
  8
0
 10
57.1289
 20
287.524
 11
56.5451
 21
287.755
  0
LINE
  8
0
 10
56.5451
 20
287.755
 11
55.9369
 21
287.911
  0
LINE
  8
0
 10
55.9369
 20
287.911
 11
55.3139
 21
287.99
  0
LINE
  8
0
 10
55.3139
 20
287.99
 11
-55.3139
 21
287.99
  0
LINE
  8
0
 10
-55.3139
 20
287.99
 11
-55.9369
 21
287.911
  0
LINE
  8
0
 10
-55.9369
 20
287.911
 11
-56.5451
 21
287.755
  0
LINE
  8
0
 10
-56.5451
 20
287.755
 11
-57.1289
 21
287.524
  0
LINE
  8
0
 10
-57.1289
 20
287.524
 11
-57.6791
 21
287.222
  0
LINE
  8
0
 10
-57.6791
 20
287.222
 11
-58.1871
 21
286.853
  0
LINE
  8
0
 10
-58.1871
 20
286.853
 11
-58.5
 21
286.559
  0
LINE
  8
0
 10
-58.5
 20
286.559
 11
-58.5
 21
287.99
  0
LINE
  8
0
 10
-58.5
 20
287.99
 11
-61.5
 21
287.99
  0
LINE
  8
0
 10
-61.5
 20
287.99
 11
-61.5
 21
258.01
  0
LINE
  8
0
 10
-61.5
 20
258.01
 11
-58.5
 21
258.01
  0
LINE
  8
0
 10
-58.5
 20
258.01
 11
-58.5
 21
259.441
  0
LINE
  8
0
 10
-54.7512
 20
259.508
 11
-55.2495
 21
259.571
  0
LINE
  8
0
 10
-55.2495
 20
259.571
 11
-55.7361
 21
259.696
  0
LINE
  8
0
 10
-55.7361
 20
259.696
 11
-56.2031
 21
259.881
  0
LINE
  8
0
 10
-56.2031
 20
259.881
 11
-56.6433
 21
260.123
  0
LINE
  8
0
 10
-56.6433
 20
260.123
 11
-57.0497
 21
260.418
  0
LINE
  8
0
 10
-57.0497
 20
260.418
 11
-57.4159
 21
260.762
  0
LINE
  8
0
 10
-57.4159
 20
260.762
 11
-57.7361
 21
261.149
  0
LINE
  8
0
 10
-57.7361
 20
261.149
 11
-58.0052
 21
261.573
  0
LINE
  8
0
 10
-58.0052
 20
261.573
 11
-58.2191
 21
262.028
  0
LINE
  8
0
 10
-58.2191
 20
262.028
 11
-58.3743
 21
262.505
  0
LINE
  8
0
 10
-58.3743
 20
262.505
 11
-58.4685
 21
262.999
  0
LINE
  8
0
 10
-58.4685
 20
262.999
 11
-58.5
 21
263.5
  0
LINE
  8
0
 10
-58.5
 20
263.5
 11
-58.5
 21
282.5
  0
LINE
  8
0
 10
-58.5
 20
282.5
 11
-58.4685
 21
283.001
  0
LINE
  8
0
 10
-58.4685
 20
283.001
 11
-58.3743
 21
283.495
  0
LINE
  8
0
 10
-58.3743
 20
283.495
 11
-58.2191
 21
283.972
  0
LINE
  8
0
 10
-58.2191
 20
283.972
 11
-58.0052
 21
284.427
  0
LINE
  8
0
 10
-58.0052
 20
284.427
 11
-57.7361
 21
284.851
  0
LINE
  8
0
 10
-57.7361
 20
284.851
 11
-57.4159
 21
285.238
  0
LINE
  8
0
 10
-57.4159
 20
285.238
 11
-57.0497
 21
285.582
  0
LINE
  8
0
 10
-57.0497
 20
285.582
 11
-56.6433
 21
285.877
  0
LINE
  8
0
 10
-56.6433
 20
285.877
 11
-56.2031
 21
286.119
  0
LINE
  8
0
 10
-56.2031
 20
286.119
 11
-55.7361
 21
286.304
  0
LINE
  8
0
 10
-55.7361
 20
286.304
 11
-55.2495
 21
286.429
  0
LINE
  8
0
 10
-55.2495
 20
286.429
 11
-54.7512
 21
286.492
  0
LINE
  8
0
 10
-54.7512
 20
286.492
 11
54.7512
 21
286.492
  0
LINE
  8
0
 10
54.7512
 20
286.492
 11
55.2495
 21
286.429
  0
LINE
  8
0
 10
55.2495
 20
286.429
 11
55.7361
 21
286.304
  0
LINE
  8
0
 10
55.7361
 20
286.304
 11
56.2031
 21
286.119
  0
LINE
  8
0
 10
56.2031
 20
286.119
 11
56.6433
 21
285.877
  0
LINE
  8
0
 10
56.6433
 20
285.877
 11
57.0497
 21
285.582
  0
LINE
  8
0
 10
57.0497
 20
285.582
 11
57.4159
 21
285.238
  0
LINE
  8
0
 10
57.4159
 20
285.238
 11
57.7361
 21
284.851
  0
LINE
  8
0
 10
57.7361
 20
284.851
 11
58.0052
 21
284.427
  0
LINE
  8
0
 10
58.0052
 20
284.427
 11
58.2191
 21
283.972
  0
LINE
  8
0
 10
58.2191
 20
283.972
 11
58.3743
 21
283.495
  0
LINE
  8
0
 10
58.3743
 20
283.495
 11
58.4685
 21
283.001
  0
LINE
  8
0
 10
58.4685
 20
283.001
 11
58.5
 21
282.5
  0
LINE
  8
0
 10
58.5
 20
282.5
 11
58.5
 21
263.5
  0
LINE
  8
0
 10
58.5
 20
263.5
 11
58.4685
 21
262.999
  0
LINE
  8
0
 10
58.4685
 20
262.999
 11
58.3743
 21
262.505
  0
LINE
  8
0
 10
58.3743
 20
262.505
 11
58.2191
 21
262.028
  0
LINE
  8
0
 10
58.2191
 20
262.028
 11
58.0052
 21
261.573
  0
LINE
  8
0
 10
58.0052
 20
261.573
 11
57.7361
 21
261.149
  0
LINE
  8
0
 10
57.7361
 20
261.149
 11
57.4159
 21
260.762
  0
LINE
  8
0
 10
57.4159
 20
260.762
 11
57.0497
 21
260.418
  0
LINE
  8
0
 10
57.0497
 20
260.418
 11
56.6433
 21
260.123
  0
LINE
  8
0
 10
56.6433
 20
260.123
 11
56.2031
 21
259.881
  0
LINE
  8
0
 10
56.2031
 20
259.881
 11
55.7361
 21
259.696
  0
LINE
  8
0
 10
55.7361
 20
259.696
 11
55.2495
 21
259.571
  0
LINE
  8
0
 10
55.2495
 20
259.571
 11
54.7512
 21
259.508
  0
LINE
  8
0
 10
54.7512
 20
259.508
 11
-54.7512
 21
259.508
  0
LINE
  8
0
 10
55.9369
 20
219.089
 11
56.5451
 21
219.245
  0
LINE
  8
0
 10
56.5451
 20
219.245
 11
57.1289
 21
219.476
  0
LINE
  8
0
 10
57.1289
 20
219.476
 11
57.6791
 21
219.778
  0
LINE
  8
0
 10
57.6791
 20
219.778
 11
58.1871
 21
220.147
  0
LINE
  8
0
 10
58.1871
 20
220.147
 11
58.6448
 21
220.577
  0
LINE
  8
0
 10
58.6448
 20
220.577
 11
59.0451
 21
221.061
  0
LINE
  8
0
 10
59.0451
 20
221.061
 11
59.3815
 21
221.591
  0
LINE
  8
0
 10
59.3815
 20
221.591
 11
59.6489
 21
222.159
  0
LINE
  8
0
 10
59.6489
 20
222.159
 11
59.8429
 21
222.757
  0
LINE
  8
0
 10
59.8429
 20
222.757
 11
59.9606
 21
223.373
  0
LINE
  8
0
 10
59.9606
 20
223.373
 11
60
 21
224
  0
LINE
  8
0
 10
60
 20
224
 11
60
 21
244
  0
LINE
  8
0
 10
60
 20
244
 11
59.9606
 21
244.627
  0
LINE
  8
0
 10
59.9606
 20
244.627
 11
59.8429
 21
245.243
  0
LINE
  8
0
 10
59.8429
 20
245.243
 11
59.6489
 21
245.841
  0
LINE
  8
0
 10
59.6489
 20
245.841
 11
59.3815
 21
246.409
  0
LINE
  8
0
 10
59.3815
 20
246.409
 11
59.0451
 21
246.939
  0
LINE
  8
0
 10
59.0451
 20
246.939
 11
58.6448
 21
247.423
  0
LINE
  8
0
 10
58.6448
 20
247.423
 11
58.1871
 21
247.853
  0
LINE
  8
0
 10
58.1871
 20
247.853
 11
57.6791
 21
248.222
  0
LINE
  8
0
 10
57.6791
 20
248.222
 11
57.1289
 21
248.524
  0
LINE
  8
0
 10
57.1289
 20
248.524
 11
56.5451
 21
248.755
  0
LINE
  8
0
 10
56.5451
 20
248.755
 11
55.9369
 21
248.911
  0
LINE
  8
0
 10
55.9369
 20
248.911
 11
55.3139
 21
248.99
  0
LINE
  8
0
 10
55.3139
 20
248.99
 11
-55.3139
 21
248.99
  0
LINE
  8
0
 10
-55.3139
 20
248.99
 11
-55.9369
 21
248.911
  0
LINE
  8
0
 10
-55.9369
 20
248.911
 11
-56.5451
 21
248.755
  0
LINE
  8
0
 10
-56.5451
 20
248.755
 11
-57.1289
 21
248.524
  0
LINE
  8
0
 10
-57.1289
 20
248.524
 11
-57.6791
 21
248.222
  0
LINE
  8
0
 10
-57.6791
 20
248.222
 11
-58.1871
 21
247.853
  0
LINE
  8
0
 10
-58.1871
 20
247.853
 11
-58.5
 21
247.559
  0
LINE
  8
0
 10
-58.5
 20
247.559
 11
-58.5
 21
248.979
  0
LINE
  8
0
 10
-58.5
 20
248.979
 11
-61.5
 21
248.979
  0
LINE
  8
0
 10
-61.5
 20
248.979
 11
-61.5
 21
219.021
  0
LINE
  8
0
 10
-61.5
 20
219.021
 11
-58.5
 21
219.021
  0
LINE
  8
0
 10
-58.5
 20
219.021
 11
-58.5
 21
220.441
  0
LINE
  8
0
 10
-58.5
 20
220.441
 11
-58.1871
 21
220.147
  0
LINE
  8
0
 10
-58.1871
 20
220.147
 11
-57.6791
 21
219.778
  0
LINE
  8
0
 10
-57.6791
 20
219.778
 11
-57.1289
 21
219.476
  0
LINE
  8
0
 10
-57.1289
 20
219.476
 11
-56.5451
 21
219.245
  0
LINE
  8
0
 10
-56.5451
 20
219.245
 11
-55.9369
 21
219.089
  0
LINE
  8
0
 10
-55.9369
 20
219.089
 11
-55.3139
 21
219.01
  0
LINE
  8
0
 10
-55.3139
 20
219.01
 11
55.3139
 21
219.01
  0
LINE
  8
0
 10
55.3139
 20
219.01
 11
55.9369
 21
219.089
  0
LINE
  8
0
 10
-54.6954
 20
221.393
 11
-55.0833
 21
221.442
  0
LINE
  8
0
 10
-55.0833
 20
221.442
 11
-55.4619
 21
221.539
  0
LINE
  8
0
 10
-55.4619
 20
221.539
 11
-55.8254
 21
221.683
  0
LINE
  8
0
 10
-55.8254
 20
221.683
 11
-56.168
 21
221.872
  0
LINE
  8
0
 10
-56.168
 20
221.872
 11
-56.4842
 21
222.101
  0
LINE
  8
0
 10
-56.4842
 20
222.101
 11
-56.7692
 21
222.369
  0
LINE
  8
0
 10
-56.7692
 20
222.369
 11
-57.0184
 21
222.67
  0
LINE
  8
0
 10
-57.0184
 20
222.67
 11
-57.2279
 21
223
  0
LINE
  8
0
 10
-57.2279
 20
223
 11
-57.3943
 21
223.354
  0
LINE
  8
0
 10
-57.3943
 20
223.354
 11
-57.5151
 21
223.726
  0
LINE
  8
0
 10
-57.5151
 20
223.726
 11
-57.5884
 21
224.11
  0
LINE
  8
0
 10
-57.5884
 20
224.11
 11
-57.6129
 21
224.5
  0
LINE
  8
0
 10
-57.6129
 20
224.5
 11
-57.6129
 21
243.5
  0
LINE
  8
0
 10
-57.6129
 20
243.5
 11
-57.5884
 21
243.89
  0
LINE
  8
0
 10
-57.5884
 20
243.89
 11
-57.5151
 21
244.274
  0
LINE
  8
0
 10
-57.5151
 20
244.274
 11
-57.3943
 21
244.646
  0
LINE
  8
0
 10
-57.3943
 20
244.646
 11
-57.2279
 21
245
  0
LINE
  8
0
 10
-57.2279
 20
245
 11
-57.0184
 21
245.33
  0
LINE
  8
0
 10
-57.0184
 20
245.33
 11
-56.7692
 21
245.631
  0
LINE
  8
0
 10
-56.7692
 20
245.631
 11
-56.4842
 21
245.899
  0
LINE
  8
0
 10
-56.4842
 20
245.899
 11
-56.168
 21
246.128
  0
LINE
  8
0
 10
-56.168
 20
246.128
 11
-55.8254
 21
246.317
  0
LINE
  8
0
 10
-55.8254
 20
246.317
 11
-55.4619
 21
246.461
  0
LINE
  8
0
 10
-55.4619
 20
246.461
 11
-55.0833
 21
246.558
  0
LINE
  8
0
 10
-55.0833
 20
246.558
 11
-54.6954
 21
246.607
  0
LINE
  8
0
 10
-54.6954
 20
246.607
 11
54.6954
 21
246.607
  0
LINE
  8
0
 10
54.6954
 20
246.607
 11
55.0833
 21
246.558
  0
LINE
  8
0
 10
55.0833
 20
246.558
 11
55.4619
 21
246.461
  0
LINE
  8
0
 10
55.4619
 20
246.461
 11
55.8254
 21
246.317
  0
LINE
  8
0
 10
55.8254
 20
246.317
 11
56.168
 21
246.128
  0
LINE
  8
0
 10
56.168
 20
246.128
 11
56.4842
 21
245.899
  0
LINE
  8
0
 10
56.4842
 20
245.899
 11
56.7692
 21
245.631
  0
LINE
  8
0
 10
56.7692
 20
245.631
 11
57.0184
 21
245.33
  0
LINE
  8
0
 10
57.0184
 20
245.33
 11
57.2279
 21
245
  0
LINE
  8
0
 10
57.2279
 20
245
 11
57.3943
 21
244.646
  0
LINE
  8
0
 10
57.3943
 20
244.646
 11
57.5151
 21
244.274
  0
LINE
  8
0
 10
57.5151
 20
244.274
 11
57.5884
 21
243.89
  0
LINE
  8
0
 10
57.5884
 20
243.89
 11
57.6129
 21
243.5
  0
LINE
  8
0
 10
57.6129
 20
243.5
 11
57.6129
 21
224.5
  0
LINE
  8
0
 10
57.6129
 20
224.5
 11
57.5884
 21
224.11
  0
LINE
  8
0
 10
57.5884
 20
224.11
 11
57.5151
 21
223.726
  0
LINE
  8
0
 10
57.5151
 20
223.726
 11
57.3943
 21
223.354
  0
LINE
  8
0
 10
57.3943
 20
223.354
 11
57.2279
 21
223
  0
LINE
  8
0
 10
57.2279
 20
223
 11
57.0184
 21
222.67
  0
LINE
  8
0
 10
57.0184
 20
222.67
 11
56.7692
 21
222.369
  0
LINE
  8
0
 10
56.7692
 20
222.369
 11
56.4842
 21
222.101
  0
LINE
  8
0
 10
56.4842
 20
222.101
 11
56.168
 21
221.872
  0
LINE
  8
0
 10
56.168
 20
221.872
 11
55.8254
 21
221.683
  0
LINE
  8
0
 10
55.8254
 20
221.683
 11
55.4619
 21
221.539
  0
LINE
  8
0
 10
55.4619
 20
221.539
 11
55.0833
 21
221.442
  0
LINE
  8
0
 10
55.0833
 20
221.442
 11
54.6954
 21
221.393
  0
LINE
  8
0
 10
54.6954
 20
221.393
 11
-54.6954
 21
221.393
  0
LINE
  8
0
 10
55.9369
 20
180.089
 11
56.5451
 21
180.245
  0
LINE
  8
0
 10
56.5451
 20
180.245
 11
57.1289
 21
180.476
  0
LINE
  8
0
 10
57.1289
 20
180.476
 11
57.6791
 21
180.778
  0
LINE
  8
0
 10
57.6791
 20
180.778
 11
58.1871
 21
181.147
  0
LINE
  8
0
 10
58.1871
 20
181.147
 11
58.6448
 21
181.577
  0
LINE
  8
0
 10
58.6448
 20
181.577
 11
59.0451
 21
182.061
  0
LINE
  8
0
 10
59.0451
 20
182.061
 11
59.3815
 21
182.591
  0
LINE
  8
0
 10
59.3815
 20
182.591
 11
59.6489
 21
183.159
  0
LINE
  8
0
 10
59.6489
 20
183.159
 11
59.8429
 21
183.757
  0
LINE
  8
0
 10
59.8429
 20
183.757
 11
59.9606
 21
184.373
  0
LINE
  8
0
 10
59.9606
 20
184.373
 11
60
 21
185
  0
LINE
  8
0
 10
60
 20
185
 11
60
 21
205
  0
LINE
  8
0
 10
60
 20
205
 11
59.9606
 21
205.627
  0
LINE
  8
0
 10
59.9606
 20
205.627
 11
59.8429
 21
206.243
  0
LINE
  8
0
 10
59.8429
 20
206.243
 11
59.6489
 21
206.841
  0
LINE
  8
0
 10
59.6489
 20
206.841
 11
59.3815
 21
207.409
  0
LINE
  8
0
 10
59.3815
 20
207.409
 11
59.0451
 21
207.939
  0
LINE
  8
0
 10
59.0451
 20
207.939
 11
58.6448
 21
208.423
  0
LINE
  8
0
 10
58.6448
 20
208.423
 11
58.1871
 21
208.853
  0
LINE
  8
0
 10
58.1871
 20
208.853
 11
57.6791
 21
209.222
  0
LINE
  8
0
 10
57.6791
 20
209.222
 11
57.1289
 21
209.524
  0
LINE
  8
0
 10
57.1289
 20
209.524
 11
56.5451
 21
209.755
  0
LINE
  8
0
 10
56.5451
 20
209.755
 11
55.9369
 21
209.911
  0
LINE
  8
0
 10
55.9369
 20
209.911
 11
55.3139
 21
209.99
  0
LINE
  8
0
 10
55.3139
 20
209.99
 11
-55.3139
 21
209.99
  0
LINE
  8
0
 10
-55.3139
 20
209.99
 11
-55.9369
 21
209.911
  0
LINE
  8
0
 10
-55.9369
 20
209.911
 11
-56.5451
 21
209.755
  0
LINE
  8
0
 10
-56.5451
 20
209.755
 11
-57.1289
 21
209.524
  0
LINE
  8
0
 10
-57.1289
 20
209.524
 11
-57.6791
 21
209.222
  0
LINE
  8
0
 10
-57.6791
 20
209.222
 11
-58.1871
 21
208.853
  0
LINE
  8
0
 10
-58.1871
 20
208.853
 11
-58.5
 21
208.559
  0
LINE
  8
0
 10
-58.5
 20
208.559
 11
-58.5
 21
208.653
  0
LINE
  8
0
 10
-58.5
 20
208.653
 11
-61.5
 21
208.653
  0
LINE
  8
0
 10
-61.5
 20
208.653
 11
-61.5
 21
181.347
  0
LINE
  8
0
 10
-61.5
 20
181.347
 11
-58.5
 21
181.347
  0
LINE
  8
0
 10
-58.5
 20
181.347
 11
-58.5
 21
181.441
  0
LINE
  8
0
 10
-58.5
 20
181.441
 11
-58.1871
 21
181.147
  0
LINE
  8
0
 10
-58.1871
 20
181.147
 11
-57.6791
 21
180.778
  0
LINE
  8
0
 10
-57.6791
 20
180.778
 11
-57.1289
 21
180.476
  0
LINE
  8
0
 10
-57.1289
 20
180.476
 11
-56.5451
 21
180.245
  0
LINE
  8
0
 10
-56.5451
 20
180.245
 11
-55.9369
 21
180.089
  0
LINE
  8
0
 10
-55.9369
 20
180.089
 11
-55.3139
 21
180.01
  0
LINE
  8
0
 10
-55.3139
 20
180.01
 11
55.3139
 21
180.01
  0
LINE
  8
0
 10
55.3139
 20
180.01
 11
55.9369
 21
180.089
  0
LINE
  8
0
 10
-52.6341
 20
200.369
 11
-52.9001
 21
200.403
  0
LINE
  8
0
 10
-52.9001
 20
200.403
 11
-53.1598
 21
200.469
  0
LINE
  8
0
 10
-53.1598
 20
200.469
 11
-53.4092
 21
200.568
  0
LINE
  8
0
 10
-53.4092
 20
200.568
 11
-53.6441
 21
200.697
  0
LINE
  8
0
 10
-53.6441
 20
200.697
 11
-53.8611
 21
200.855
  0
LINE
  8
0
 10
-53.8611
 20
200.855
 11
-54.0565
 21
201.038
  0
LINE
  8
0
 10
-54.0565
 20
201.038
 11
-54.2275
 21
201.245
  0
LINE
  8
0
 10
-54.2275
 20
201.245
 11
-54.3712
 21
201.471
  0
LINE
  8
0
 10
-54.3712
 20
201.471
 11
-54.4853
 21
201.714
  0
LINE
  8
0
 10
-54.4853
 20
201.714
 11
-54.5682
 21
201.969
  0
LINE
  8
0
 10
-54.5682
 20
201.969
 11
-54.6185
 21
202.232
  0
LINE
  8
0
 10
-54.6185
 20
202.232
 11
-54.6353
 21
202.5
  0
LINE
  8
0
 10
-54.6353
 20
202.5
 11
-54.6185
 21
202.768
  0
LINE
  8
0
 10
-54.6185
 20
202.768
 11
-54.5682
 21
203.031
  0
LINE
  8
0
 10
-54.5682
 20
203.031
 11
-54.4853
 21
203.286
  0
LINE
  8
0
 10
-54.4853
 20
203.286
 11
-54.3712
 21
203.529
  0
LINE
  8
0
 10
-54.3712
 20
203.529
 11
-54.2275
 21
203.755
  0
LINE
  8
0
 10
-54.2275
 20
203.755
 11
-54.0565
 21
203.962
  0
LINE
  8
0
 10
-54.0565
 20
203.962
 11
-53.8611
 21
204.145
  0
LINE
  8
0
 10
-53.8611
 20
204.145
 11
-53.6441
 21
204.303
  0
LINE
  8
0
 10
-53.6441
 20
204.303
 11
-53.4092
 21
204.432
  0
LINE
  8
0
 10
-53.4092
 20
204.432
 11
-53.1598
 21
204.531
  0
LINE
  8
0
 10
-53.1598
 20
204.531
 11
-52.9001
 21
204.597
  0
LINE
  8
0
 10
-52.9001
 20
204.597
 11
-52.6341
 21
204.631
  0
LINE
  8
0
 10
-52.6341
 20
204.631
 11
-52.3659
 21
204.631
  0
LINE
  8
0
 10
-52.3659
 20
204.631
 11
-52.0999
 21
204.597
  0
LINE
  8
0
 10
-52.0999
 20
204.597
 11
-51.8401
 21
204.531
  0
LINE
  8
0
 10
-51.8401
 20
204.531
 11
-51.5908
 21
204.432
  0
LINE
  8
0
 10
-51.5908
 20
204.432
 11
-51.3559
 21
204.303
  0
LINE
  8
0
 10
-51.3559
 20
204.303
 11
-51.1389
 21
204.145
  0
LINE
  8
0
 10
-51.1389
 20
204.145
 11
-50.9434
 21
203.962
  0
LINE
  8
0
 10
-50.9434
 20
203.962
 11
-50.7725
 21
203.755
  0
LINE
  8
0
 10
-50.7725
 20
203.755
 11
-50.6288
 21
203.529
  0
LINE
  8
0
 10
-50.6288
 20
203.529
 11
-50.5146
 21
203.286
  0
LINE
  8
0
 10
-50.5146
 20
203.286
 11
-50.4318
 21
203.031
  0
LINE
  8
0
 10
-50.4318
 20
203.031
 11
-50.3815
 21
202.768
  0
LINE
  8
0
 10
-50.3815
 20
202.768
 11
-50.3647
 21
202.5
  0
LINE
  8
0
 10
-50.3647
 20
202.5
 11
-50.3815
 21
202.232
  0
LINE
  8
0
 10
-50.3815
 20
202.232
 11
-50.4318
 21
201.969
  0
LINE
  8
0
 10
-50.4318
 20
201.969
 11
-50.5146
 21
201.714
  0
LINE
  8
0
 10
-50.5146
 20
201.714
 11
-50.6288
 21
201.471
  0
LINE
  8
0
 10
-50.6288
 20
201.471
 11
-50.7725
 21
201.245
  0
LINE
  8
0
 10
-50.7725
 20
201.245
 11
-50.9434
 21
201.038
  0
LINE
  8
0
 10
-50.9434
 20
201.038
 11
-51.1389
 21
200.855
  0
LINE
  8
0
 10
-51.1389
 20
200.855
 11
-51.3559
 21
200.697
  0
LINE
  8
0
 10
-51.3559
 20
200.697
 11
-51.5908
 21
200.568
  0
LINE
  8
0
 10
-51.5908
 20
200.568
 11
-51.8401
 21
200.469
  0
LINE
  8
0
 10
-51.8401
 20
200.469
 11
-52.0999
 21
200.403
  0
LINE
  8
0
 10
-52.0999
 20
200.403
 11
-52.3659
 21
200.369
  0
LINE
  8
0
 10
-52.3659
 20
200.369
 11
-52.6341
 21
200.369
  0
LINE
  8
0
 10
52.3659
 20
200.369
 11
52.0999
 21
200.403
  0
LINE
  8
0
 10
52.0999
 20
200.403
 11
51.8401
 21
200.469
  0
LINE
  8
0
 10
51.8401
 20
200.469
 11
51.5908
 21
200.568
  0
LINE
  8
0
 10
51.5908
 20
200.568
 11
51.3559
 21
200.697
  0
LINE
  8
0
 10
51.3559
 20
200.697
 11
51.1389
 21
200.855
  0
LINE
  8
0
 10
51.1389
 20
200.855
 11
50.9434
 21
201.038
  0
LINE
  8
0
 10
50.9434
 20
201.038
 11
50.7725
 21
201.245
  0
LINE
  8
0
 10
50.7725
 20
201.245
 11
50.6288
 21
201.471
  0
LINE
  8
0
 10
50.6288
 20
201.471
 11
50.5146
 21
201.714
  0
LINE
  8
0
 10
50.5146
 20
201.714
 11
50.4318
 21
201.969
  0
LINE
  8
0
 10
50.4318
 20
201.969
 11
50.3815
 21
202.232
  0
LINE
  8
0
 10
50.3815
 20
202.232
 11
50.3647
 21
202.5
  0
LINE
  8
0
 10
50.3647
 20
202.5
 11
50.3815
 21
202.768
  0
LINE
  8
0
 10
50.3815
 20
202.768
 11
50.4318
 21
203.031
  0
LINE
  8
0
 10
50.4318
 20
203.031
 11
50.5146
 21
203.286
  0
LINE
  8
0
 10
50.5146
 20
203.286
 11
50.6288
 21
203.529
  0
LINE
  8
0
 10
50.6288
 20
203.529
 11
50.7725
 21
203.755
  0
LINE
  8
0
 10
50.7725
 20
203.755
 11
50.9434
 21
203.962
  0
LINE
  8
0
 10
50.9434
 20
203.962
 11
51.1389
 21
204.145
  0
LINE
  8
0
 10
51.1389
 20
204.145
 11
51.3559
 21
204.303
  0
LINE
  8
0
 10
51.3559
 20
204.303
 11
51.5908
 21
204.432
  0
LINE
  8
0
 10
51.5908
 20
204.432
 11
51.8401
 21
204.531
  0
LINE
  8
0
 10
51.8401
 20
204.531
 11
52.0999
 21
204.597
  0
LINE
  8
0
 10
52.0999
 20
204.597
 11
52.3659
 21
204.631
  0
LINE
  8
0
 10
52.3659
 20
204.631
 11
52.6341
 21
204.631
  0
LINE
  8
0
 10
52.6341
 20
204.631
 11
52.9001
 21
204.597
  0
LINE
  8
0
 10
52.9001
 20
204.597
 11
53.1598
 21
204.531
  0
LINE
  8
0
 10
53.1598
 20
204.531
 11
53.4092
 21
204.432
  0
LINE
  8
0
 10
53.4092
 20
204.432
 11
53.6441
 21
204.303
  0
LINE
  8
0
 10
53.6441
 20
204.303
 11
53.8611
 21
204.145
  0
LINE
  8
0
 10
53.8611
 20
204.145
 11
54.0565
 21
203.962
  0
LINE
  8
0
 10
54.0565
 20
203.962
 11
54.2275
 21
203.755
  0
LINE
  8
0
 10
54.2275
 20
203.755
 11
54.3712
 21
203.529
  0
LINE
  8
0
 10
54.3712
 20
203.529
 11
54.4853
 21
203.286
  0
LINE
  8
0
 10
54.4853
 20
203.286
 11
54.5682
 21
203.031
  0
LINE
  8
0
 10
54.5682
 20
203.031
 11
54.6185
 21
202.768
  0
LINE
  8
0
 10
54.6185
 20
202.768
 11
54.6353
 21
202.5
  0
LINE
  8
0
 10
54.6353
 20
202.5
 11
54.6185
 21
202.232
  0
LINE
  8
0
 10
54.6185
 20
202.232
 11
54.5682
 21
201.969
  0
LINE
  8
0
 10
54.5682
 20
201.969
 11
54.4853
 21
201.714
  0
LINE
  8
0
 10
54.4853
 20
201.714
 11
54.3712
 21
201.471
  0
LINE
  8
0
 10
54.3712
 20
201.471
 11
54.2275
 21
201.245
  0
LINE
  8
0
 10
54.2275
 20
201.245
 11
54.0565
 21
201.038
  0
LINE
  8
0
 10
54.0565
 20
201.038
 11
53.8611
 21
200.855
  0
LINE
  8
0
 10
53.8611
 20
200.855
 11
53.6441
 21
200.697
  0
LINE
  8
0
 10
53.6441
 20
200.697
 11
53.4092
 21
200.568
  0
LINE
  8
0
 10
53.4092
 20
200.568
 11
53.1598
 21
200.469
  0
LINE
  8
0
 10
53.1598
 20
200.469
 11
52.9001
 21
200.403
  0
LINE
  8
0
 10
52.9001
 20
200.403
 11
52.6341
 21
200.369
  0
LINE
  8
0
 10
52.6341
 20
200.369
 11
52.3659
 21
200.369
  0
LINE
  8
0
 10
-52.6341
 20
185.369
 11
-52.9001
 21
185.403
  0
LINE
  8
0
 10
-52.9001
 20
185.403
 11
-53.1598
 21
185.469
  0
LINE
  8
0
 10
-53.1598
 20
185.469
 11
-53.4092
 21
185.568
  0
LINE
  8
0
 10
-53.4092
 20
185.568
 11
-53.6441
 21
185.697
  0
LINE
  8
0
 10
-53.6441
 20
185.697
 11
-53.8611
 21
185.855
  0
LINE
  8
0
 10
-53.8611
 20
185.855
 11
-54.0565
 21
186.038
  0
LINE
  8
0
 10
-54.0565
 20
186.038
 11
-54.2275
 21
186.245
  0
LINE
  8
0
 10
-54.2275
 20
186.245
 11
-54.3712
 21
186.471
  0
LINE
  8
0
 10
-54.3712
 20
186.471
 11
-54.4853
 21
186.714
  0
LINE
  8
0
 10
-54.4853
 20
186.714
 11
-54.5682
 21
186.969
  0
LINE
  8
0
 10
-54.5682
 20
186.969
 11
-54.6185
 21
187.232
  0
LINE
  8
0
 10
-54.6185
 20
187.232
 11
-54.6353
 21
187.5
  0
LINE
  8
0
 10
-54.6353
 20
187.5
 11
-54.6185
 21
187.768
  0
LINE
  8
0
 10
-54.6185
 20
187.768
 11
-54.5682
 21
188.031
  0
LINE
  8
0
 10
-54.5682
 20
188.031
 11
-54.4853
 21
188.286
  0
LINE
  8
0
 10
-54.4853
 20
188.286
 11
-54.3712
 21
188.529
  0
LINE
  8
0
 10
-54.3712
 20
188.529
 11
-54.2275
 21
188.755
  0
LINE
  8
0
 10
-54.2275
 20
188.755
 11
-54.0565
 21
188.962
  0
LINE
  8
0
 10
-54.0565
 20
188.962
 11
-53.8611
 21
189.145
  0
LINE
  8
0
 10
-53.8611
 20
189.145
 11
-53.6441
 21
189.303
  0
LINE
  8
0
 10
-53.6441
 20
189.303
 11
-53.4092
 21
189.432
  0
LINE
  8
0
 10
-53.4092
 20
189.432
 11
-53.1598
 21
189.531
  0
LINE
  8
0
 10
-53.1598
 20
189.531
 11
-52.9001
 21
189.597
  0
LINE
  8
0
 10
-52.9001
 20
189.597
 11
-52.6341
 21
189.631
  0
LINE
  8
0
 10
-52.6341
 20
189.631
 11
-52.3659
 21
189.631
  0
LINE
  8
0
 10
-52.3659
 20
189.631
 11
-52.0999
 21
189.597
  0
LINE
  8
0
 10
-52.0999
 20
189.597
 11
-51.8401
 21
189.531
  0
LINE
  8
0
 10
-51.8401
 20
189.531
 11
-51.5908
 21
189.432
  0
LINE
  8
0
 10
-51.5908
 20
189.432
 11
-51.3559
 21
189.303
  0
LINE
  8
0
 10
-51.3559
 20
189.303
 11
-51.1389
 21
189.145
  0
LINE
  8
0
 10
-51.1389
 20
189.145
 11
-50.9434
 21
188.962
  0
LINE
  8
0
 10
-50.9434
 20
188.962
 11
-50.7725
 21
188.755
  0
LINE
  8
0
 10
-50.7725
 20
188.755
 11
-50.6288
 21
188.529
  0
LINE
  8
0
 10
-50.6288
 20
188.529
 11
-50.5146
 21
188.286
  0
LINE
  8
0
 10
-50.5146
 20
188.286
 11
-50.4318
 21
188.031
  0
LINE
  8
0
 10
-50.4318
 20
188.031
 11
-50.3815
 21
187.768
  0
LINE
  8
0
 10
-50.3815
 20
187.768
 11
-50.3647
 21
187.5
  0
LINE
  8
0
 10
-50.3647
 20
187.5
 11
-50.3815
 21
187.232
  0
LINE
  8
0
 10
-50.3815
 20
187.232
 11
-50.4318
 21
186.969
  0
LINE
  8
0
 10
-50.4318
 20
186.969
 11
-50.5146
 21
186.714
  0
LINE
  8
0
 10
-50.5146
 20
186.714
 11
-50.6288
 21
186.471
  0
LINE
  8
0
 10
-50.6288
 20
186.471
 11
-50.7725
 21
186.245
  0
LINE
  8
0
 10
-50.7725
 20
186.245
 11
-50.9434
 21
186.038
  0
LINE
  8
0
 10
-50.9434
 20
186.038
 11
-51.1389
 21
185.855
  0
LINE
  8
0
 10
-51.1389
 20
185.855
 11
-51.3559
 21
185.697
  0
LINE
  8
0
 10
-51.3559
 20
185.697
 11
-51.5908
 21
185.568
  0
LINE
  8
0
 10
-51.5908
 20
185.568
 11
-51.8401
 21
185.469
  0
LINE
  8
0
 10
-51.8401
 20
185.469
 11
-52.0999
 21
185.403
  0
LINE
  8
0
 10
-52.0999
 20
185.403
 11
-52.3659
 21
185.369
  0
LINE
  8
0
 10
-52.3659
 20
185.369
 11
-52.6341
 21
185.369
  0
LINE
  8
0
 10
52.3659
 20
185.369
 11
52.0999
 21
185.403
  0
LINE
  8
0
 10
52.0999
 20
185.403
 11
51.8401
 21
185.469
  0
LINE
  8
0
 10
51.8401
 20
185.469
 11
51.5908
 21
185.568
  0
LINE
  8
0
 10
51.5908
 20
185.568
 11
51.3559
 21
185.697
  0
LINE
  8
0
 10
51.3559
 20
185.697
 11
51.1389
 21
185.855
  0
LINE
  8
0
 10
51.1389
 20
185.855
 11
50.9434
 21
186.038
  0
LINE
  8
0
 10
50.9434
 20
186.038
 11
50.7725
 21
186.245
  0
LINE
  8
0
 10
50.7725
 20
186.245
 11
50.6288
 21
186.471
  0
LINE
  8
0
 10
50.6288
 20
186.471
 11
50.5146
 21
186.714
  0
LINE
  8
0
 10
50.5146
 20
186.714
 11
50.4318
 21
186.969
  0
LINE
  8
0
 10
50.4318
 20
186.969
 11
50.3815
 21
187.232
  0
LINE
  8
0
 10
50.3815
 20
187.232
 11
50.3647
 21
187.5
  0
LINE
  8
0
 10
50.3647
 20
187.5
 11
50.3815
 21
187.768
  0
LINE
  8
0
 10
50.3815
 20
187.768
 11
50.4318
 21
188.031
  0
LINE
  8
0
 10
50.4318
 20
188.031
 11
50.5146
 21
188.286
  0
LINE
  8
0
 10
50.5146
 20
188.286
 11
50.6288
 21
188.529
  0
LINE
  8
0
 10
50.6288
 20
188.529
 11
50.7725
 21
188.755
  0
LINE
  8
0
 10
50.7725
 20
188.755
 11
50.9434
 21
188.962
  0
LINE
  8
0
 10
50.9434
 20
188.962
 11
51.1389
 21
189.145
  0
LINE
  8
0
 10
51.1389
 20
189.145
 11
51.3559
 21
189.303
  0
LINE
  8
0
 10
51.3559
 20
189.303
 11
51.5908
 21
189.432
  0
LINE
  8
0
 10
51.5908
 20
189.432
 11
51.8401
 21
189.531
  0
LINE
  8
0
 10
51.8401
 20
189.531
 11
52.0999
 21
189.597
  0
LINE
  8
0
 10
52.0999
 20
189.597
 11
52.3659
 21
189.631
  0
LINE
  8
0
 10
52.3659
 20
189.631
 11
52.6341
 21
189.631
  0
LINE
  8
0
 10
52.6341
 20
189.631
 11
52.9001
 21
189.597
  0
LINE
  8
0
 10
52.9001
 20
189.597
 11
53.1598
 21
189.531
  0
LINE
  8
0
 10
53.1598
 20
189.531
 11
53.4092
 21
189.432
  0
LINE
  8
0
 10
53.4092
 20
189.432
 11
53.6441
 21
189.303
  0
LINE
  8
0
 10
53.6441
 20
189.303
 11
53.8611
 21
189.145
  0
LINE
  8
0
 10
53.8611
 20
189.145
 11
54.0565
 21
188.962
  0
LINE
  8
0
 10
54.0565
 20
188.962
 11
54.2275
 21
188.755
  0
LINE
  8
0
 10
54.2275
 20
188.755
 11
54.3712
 21
188.529
  0
LINE
  8
0
 10
54.3712
 20
188.529
 11
54.4853
 21
188.286
  0
LINE
  8
0
 10
54.4853
 20
188.286
 11
54.5682
 21
188.031
  0
LINE
  8
0
 10
54.5682
 20
188.031
 11
54.6185
 21
187.768
  0
LINE
  8
0
 10
54.6185
 20
187.768
 11
54.6353
 21
187.5
  0
LINE
  8
0
 10
54.6353
 20
187.5
 11
54.6185
 21
187.232
  0
LINE
  8
0
 10
54.6185
 20
187.232
 11
54.5682
 21
186.969
  0
LINE
  8
0
 10
54.5682
 20
186.969
 11
54.4853
 21
186.714
  0
LINE
  8
0
 10
54.4853
 20
186.714
 11
54.3712
 21
186.471
  0
LINE
  8
0
 10
54.3712
 20
186.471
 11
54.2275
 21
186.245
  0
LINE
  8
0
 10
54.2275
 20
186.245
 11
54.0565
 21
186.038
  0
LINE
  8
0
 10
54.0565
 20
186.038
 11
53.8611
 21
185.855
  0
LINE
  8
0
 10
53.8611
 20
185.855
 11
53.6441
 21
185.697
  0
LINE
  8
0
 10
53.6441
 20
185.697
 11
53.4092
 21
185.568
  0
LINE
  8
0
 10
53.4092
 20
185.568
 11
53.1598
 21
185.469
  0
LINE
  8
0
 10
53.1598
 20
185.469
 11
52.9001
 21
185.403
  0
LINE
  8
0
 10
52.9001
 20
185.403
 11
52.6341
 21
185.369
  0
LINE
  8
0
 10
52.6341
 20
185.369
 11
52.3659
 21
185.369
  0
ENDSEC
  0
SECTION
  2
OBJECTS
  0
DICTIONARY
  0
ENDSEC
  0
EOF
