<?xml version="1.0" standalone="no"?>
<!DOCTYPE svg PUBLIC "-//W3C//DTD SVG 1.1//EN" "http://www.w3.org/Graphics/SVG/1.1/DTD/svg11.dtd">
<svg width="106mm" height="64mm" viewBox="-53 -128 106 64" xmlns="http://www.w3.org/2000/svg" version="1.1">
<title>OpenSCAD Model</title>
<path d="
M 48.4369,-112.589 L 49.0451,-112.745 L 49.6289,-112.976 L 50.1791,-113.278 L 50.6871,-113.647 L 51.1448,-114.077
 L 51.5451,-114.561 L 51.8815,-115.091 L 52.1489,-115.659 L 52.3429,-116.257 L 52.4606,-116.873 L 52.5,-117.5
 L 52.5,-122.5 L 52.4606,-123.127 L 52.3429,-123.743 L 52.1489,-124.341 L 51.8815,-124.909 L 51.5451,-125.439
 L 51.1448,-125.923 L 50.6871,-126.353 L 50.1791,-126.722 L 49.6289,-127.024 L 49.0451,-127.255 L 48.4369,-127.411
 L 47.8139,-127.49 L -47.8139,-127.49 L -48.4369,-127.411 L -49.0451,-127.255 L -49.6289,-127.024 L -50.1791,-126.722
 L -50.6871,-126.353 L -51.1448,-125.923 L -51.5451,-125.439 L -51.8815,-124.909 L -52.1489,-124.341 L -52.3429,-123.743
 L -52.4606,-123.127 L -52.5,-122.5 L -52.5,-117.5 L -52.4606,-116.873 L -52.3429,-116.257 L -52.1489,-115.659
 L -51.8815,-115.091 L -51.5451,-114.561 L -51.1448,-114.077 L -50.6871,-113.647 L -50.1791,-113.278 L -49.6289,-112.976
 L -49.0451,-112.745 L -48.4369,-112.589 L -47.8139,-112.51 L 47.8139,-112.51 z
M -47.5482,-113.009 L -48.1401,-113.084 L -48.7178,-113.232 L -49.2724,-113.452 L -49.7952,-113.739 L -50.2778,-114.09
 L -50.7126,-114.498 L -51.0928,-114.958 L -51.4124,-115.462 L -51.6664,-116.001 L -51.8508,-116.569 L -51.9625,-117.155
 L -52,-117.75 L -52,-122.25 L -51.9625,-122.845 L -51.8508,-123.431 L -51.6664,-123.999 L -51.4124,-124.538
 L -51.0928,-125.042 L -50.7126,-125.502 L -50.2778,-125.91 L -49.7952,-126.261 L -49.2724,-126.548 L -48.7178,-126.768
 L -48.1401,-126.916 L -47.5482,-126.991 L 47.5482,-126.991 L 48.1401,-126.916 L 48.7178,-126.768 L 49.2724,-126.548
 L 49.7952,-126.261 L 50.2778,-125.91 L 50.7126,-125.502 L 51.0928,-125.042 L 51.4124,-124.538 L 51.6664,-123.999
 L 51.8508,-123.431 L 51.9625,-122.845 L 52,-122.25 L 52,-117.75 L 51.9625,-117.155 L 51.8508,-116.569
 L 51.6664,-116.001 L 51.4124,-115.462 L 51.0928,-114.958 L 50.7126,-114.498 L 50.2778,-114.09 L 49.7952,-113.739
 L 49.2724,-113.452 L 48.7178,-113.232 L 48.1401,-113.084 L 47.5482,-113.009 z
M 48.4369,-88.5886 L 49.0451,-88.7447 L 49.6289,-88.9759 L 50.1791,-89.2784 L 50.6871,-89.6474 L 51.1448,-90.0773
 L 51.5451,-90.5611 L 51.8815,-91.0912 L 52.1489,-91.6594 L 52.3429,-92.2566 L 52.4606,-92.8733 L 52.5,-93.5
 L 52.5,-98.5 L 52.4606,-99.1267 L 52.3429,-99.7434 L 52.1489,-100.341 L 51.8815,-100.909 L 51.5451,-101.439
 L 51.1448,-101.923 L 50.6871,-102.353 L 50.1791,-102.722 L 49.6289,-103.024 L 49.0451,-103.255 L 48.4369,-103.411
 L 47.8139,-103.49 L -47.8139,-103.49 L -48.4369,-103.411 L -49.0451,-103.255 L -49.6289,-103.024 L -50.1791,-102.722
 L -50.6871,-102.353 L -51.1448,-101.923 L -51.5451,-101.439 L -51.8815,-100.909 L -52.1489,-100.341 L -52.3429,-99.7434
 L -52.4606,-99.1267 L -52.5,-98.5 L -52.5,-93.5 L -52.4606,-92.8733 L -52.3429,-92.2566 L -52.1489,-91.6594
 L -51.8815,-91.0912 L -51.5451,-90.5611 L -51.1448,-90.0773 L -50.6871,-89.6474 L -50.1791,-89.2784 L -49.6289,-88.9759
 L -49.0451,-88.7447 L -48.4369,-88.5886 L -47.8139,-88.5099 L 47.8139,-88.5099 z
M -47.5375,-89.1806 L -48.1079,-89.2527 L -48.6648,-89.3956 L -49.1994,-89.6073 L -49.7032,-89.8843 L -50.1684,-90.2223
 L -50.5875,-90.6158 L -50.954,-91.0589 L -51.2621,-91.5443 L -51.5069,-92.0646 L -51.6846,-92.6114 L -51.7923,-93.1762
 L -51.8284,-93.75 L -51.8284,-98.25 L -51.7923,-98.8238 L -51.6846,-99.3886 L -51.5069,-99.9354 L -51.2621,-100.456
 L -50.954,-100.941 L -50.5875,-101.384 L -50.1684,-101.778 L -49.7032,-102.116 L -49.1994,-102.393 L -48.6648,-102.604
 L -48.1079,-102.747 L -47.5375,-102.819 L 47.5375,-102.819 L 48.1079,-102.747 L 48.6648,-102.604 L 49.1994,-102.393
 L 49.7032,-102.116 L 50.1684,-101.778 L 50.5875,-101.384 L 50.954,-100.941 L 51.2621,-100.456 L 51.5069,-99.9354
 L 51.6846,-99.3886 L 51.7923,-98.8238 L 51.8284,-98.25 L 51.8284,-93.75 L 51.7923,-93.1762 L 51.6846,-92.6114
 L 51.5069,-92.0646 L 51.2621,-91.5443 L 50.954,-91.0589 L 50.5875,-90.6158 L 50.1684,-90.2223 L 49.7032,-89.8843
 L 49.1994,-89.6073 L 48.6648,-89.3956 L 48.1079,-89.2527 L 47.5375,-89.1806 z
M 48.4369,-64.5886 L 49.0451,-64.7447 L 49.6289,-64.9759 L 50.1791,-65.2784 L 50.6871,-65.6474 L 51.1448,-66.0773
 L 51.5451,-66.5611 L 51.8815,-67.0912 L 52.1489,-67.6594 L 52.3429,-68.2566 L 52.4606,-68.8733 L 52.5,-69.5
 L 52.5,-74.5 L 52.4606,-75.1267 L 52.3429,-75.7434 L 52.1489,-76.3406 L 51.8815,-76.9088 L 51.5451,-77.4389
 L 51.1448,-77.9227 L 50.6871,-78.3526 L 50.1791,-78.7216 L 49.6289,-79.0241 L 49.0451,-79.2553 L 48.4369,-79.4114
 L 47.8139,-79.4901 L -47.8139,-79.4901 L -48.4369,-79.4114 L -49.0451,-79.2553 L -49.6289,-79.0241 L -50.1791,-78.7216
 L -50.6871,-78.3526 L -51.1448,-77.9227 L -51.5451,-77.4389 L -51.8815,-76.9088 L -52.1489,-76.3406 L -52.3429,-75.7434
 L -52.4606,-75.1267 L -52.5,-74.5 L -52.5,-69.5 L -52.4606,-68.8733 L -52.3429,-68.2566 L -52.1489,-67.6594
 L -51.8815,-67.0912 L -51.5451,-66.5611 L -51.1448,-66.0773 L -50.6871,-65.6474 L -50.1791,-65.2784 L -49.6289,-64.9759
 L -49.0451,-64.7447 L -48.4369,-64.5886 L -47.8139,-64.5099 L 47.8139,-64.5099 z
M -47.3825,-67.6445 L -47.6453,-67.6777 L -47.9019,-67.7436 L -48.1482,-67.8412 L -48.3804,-67.9688 L -48.5947,-68.1245
 L -48.7879,-68.3059 L -48.9567,-68.51 L -49.0987,-68.7337 L -49.2115,-68.9734 L -49.2934,-69.2254 L -49.343,-69.4856
 L -49.3596,-69.75 L -49.3596,-74.25 L -49.343,-74.5144 L -49.2934,-74.7746 L -49.2115,-75.0266 L -49.0987,-75.2663
 L -48.9567,-75.49 L -48.7879,-75.6941 L -48.5947,-75.8755 L -48.3804,-76.0312 L -48.1482,-76.1588 L -47.9019,-76.2564
 L -47.6453,-76.3223 L -47.3825,-76.3555 L 47.3825,-76.3555 L 47.6453,-76.3223 L 47.9019,-76.2564 L 48.1482,-76.1588
 L 48.3804,-76.0312 L 48.5947,-75.8755 L 48.7879,-75.6941 L 48.9567,-75.49 L 49.0987,-75.2663 L 49.2115,-75.0266
 L 49.2934,-74.7746 L 49.343,-74.5144 L 49.3596,-74.25 L 49.3596,-69.75 L 49.343,-69.4856 L 49.2934,-69.2254
 L 49.2115,-68.9734 L 49.0987,-68.7337 L 48.9567,-68.51 L 48.7879,-68.3059 L 48.5947,-68.1245 L 48.3804,-67.9688
 L 48.1482,-67.8412 L 47.9019,-67.7436 L 47.6453,-67.6777 L 47.3825,-67.6445 z
" stroke="black" fill="lightgray" stroke-width="0.5"/>
</svg>
