  0
SECTION
  2
BLOCKS
  0
ENDSEC
  0
SECTION
  2
ENTITIES
  0
LINE
  8
0
 10
25.9369
 20
40.5886
 11
26.5451
 21
40.7447
  0
LINE
  8
0
 10
26.5451
 20
40.7447
 11
27.1289
 21
40.9759
  0
LINE
  8
0
 10
27.1289
 20
40.9759
 11
27.6791
 21
41.2784
  0
LINE
  8
0
 10
27.6791
 20
41.2784
 11
28.1871
 21
41.6474
  0
LINE
  8
0
 10
28.1871
 20
41.6474
 11
28.6448
 21
42.0773
  0
LINE
  8
0
 10
28.6448
 20
42.0773
 11
29.0451
 21
42.5611
  0
LINE
  8
0
 10
29.0451
 20
42.5611
 11
29.3815
 21
43.0912
  0
LINE
  8
0
 10
29.3815
 20
43.0912
 11
29.6489
 21
43.6594
  0
LINE
  8
0
 10
29.6489
 20
43.6594
 11
29.8429
 21
44.2566
  0
LINE
  8
0
 10
29.8429
 20
44.2566
 11
29.9606
 21
44.8733
  0
LINE
  8
0
 10
29.9606
 20
44.8733
 11
30
 21
45.5
  0
LINE
  8
0
 10
30
 20
45.5
 11
30
 21
50.5
  0
LINE
  8
0
 10
30
 20
50.5
 11
29.9606
 21
51.1267
  0
LINE
  8
0
 10
29.9606
 20
51.1267
 11
29.8429
 21
51.7434
  0
LINE
  8
0
 10
29.8429
 20
51.7434
 11
29.6489
 21
52.3406
  0
LINE
  8
0
 10
29.6489
 20
52.3406
 11
29.3815
 21
52.9088
  0
LINE
  8
0
 10
29.3815
 20
52.9088
 11
29.0451
 21
53.4389
  0
LINE
  8
0
 10
29.0451
 20
53.4389
 11
28.6448
 21
53.9227
  0
LINE
  8
0
 10
28.6448
 20
53.9227
 11
28.1871
 21
54.3526
  0
LINE
  8
0
 10
28.1871
 20
54.3526
 11
27.6791
 21
54.7216
  0
LINE
  8
0
 10
27.6791
 20
54.7216
 11
27.1289
 21
55.0241
  0
LINE
  8
0
 10
27.1289
 20
55.0241
 11
26.5451
 21
55.2553
  0
LINE
  8
0
 10
26.5451
 20
55.2553
 11
25.9369
 21
55.4114
  0
LINE
  8
0
 10
25.9369
 20
55.4114
 11
25.3139
 21
55.4901
  0
LINE
  8
0
 10
25.3139
 20
55.4901
 11
-25.3139
 21
55.4901
  0
LINE
  8
0
 10
-25.3139
 20
55.4901
 11
-25.9369
 21
55.4114
  0
LINE
  8
0
 10
-25.9369
 20
55.4114
 11
-26.5451
 21
55.2553
  0
LINE
  8
0
 10
-26.5451
 20
55.2553
 11
-27.1289
 21
55.0241
  0
LINE
  8
0
 10
-27.1289
 20
55.0241
 11
-27.6791
 21
54.7216
  0
LINE
  8
0
 10
-27.6791
 20
54.7216
 11
-28.1871
 21
54.3526
  0
LINE
  8
0
 10
-28.1871
 20
54.3526
 11
-28.5
 21
54.0587
  0
LINE
  8
0
 10
-28.5
 20
54.0587
 11
-28.5
 21
55.1148
  0
LINE
  8
0
 10
-28.5
 20
55.1148
 11
-31.5
 21
55.1148
  0
LINE
  8
0
 10
-31.5
 20
55.1148
 11
-31.5
 21
40.8852
  0
LINE
  8
0
 10
-31.5
 20
40.8852
 11
-28.5
 21
40.8852
  0
LINE
  8
0
 10
-28.5
 20
40.8852
 11
-28.5
 21
41.9413
  0
LINE
  8
0
 10
-28.5
 20
41.9413
 11
-28.1871
 21
41.6474
  0
LINE
  8
0
 10
-28.1871
 20
41.6474
 11
-27.6791
 21
41.2784
  0
LINE
  8
0
 10
-27.6791
 20
41.2784
 11
-27.1289
 21
40.9759
  0
LINE
  8
0
 10
-27.1289
 20
40.9759
 11
-26.5451
 21
40.7447
  0
LINE
  8
0
 10
-26.5451
 20
40.7447
 11
-25.9369
 21
40.5886
  0
LINE
  8
0
 10
-25.9369
 20
40.5886
 11
-25.3139
 21
40.5099
  0
LINE
  8
0
 10
-25.3139
 20
40.5099
 11
25.3139
 21
40.5099
  0
LINE
  8
0
 10
25.3139
 20
40.5099
 11
25.9369
 21
40.5886
  0
LINE
  8
0
 10
25.9369
 20
16.5886
 11
26.5451
 21
16.7447
  0
LINE
  8
0
 10
26.5451
 20
16.7447
 11
27.1289
 21
16.9759
  0
LINE
  8
0
 10
27.1289
 20
16.9759
 11
27.6791
 21
17.2784
  0
LINE
  8
0
 10
27.6791
 20
17.2784
 11
28.1871
 21
17.6474
  0
LINE
  8
0
 10
28.1871
 20
17.6474
 11
28.6448
 21
18.0773
  0
LINE
  8
0
 10
28.6448
 20
18.0773
 11
29.0451
 21
18.5611
  0
LINE
  8
0
 10
29.0451
 20
18.5611
 11
29.3815
 21
19.0912
  0
LINE
  8
0
 10
29.3815
 20
19.0912
 11
29.6489
 21
19.6594
  0
LINE
  8
0
 10
29.6489
 20
19.6594
 11
29.8429
 21
20.2566
  0
LINE
  8
0
 10
29.8429
 20
20.2566
 11
29.9606
 21
20.8733
  0
LINE
  8
0
 10
29.9606
 20
20.8733
 11
30
 21
21.5
  0
LINE
  8
0
 10
30
 20
21.5
 11
30
 21
26.5
  0
LINE
  8
0
 10
30
 20
26.5
 11
29.9606
 21
27.1267
  0
LINE
  8
0
 10
29.9606
 20
27.1267
 11
29.8429
 21
27.7434
  0
LINE
  8
0
 10
29.8429
 20
27.7434
 11
29.6489
 21
28.3406
  0
LINE
  8
0
 10
29.6489
 20
28.3406
 11
29.3815
 21
28.9088
  0
LINE
  8
0
 10
29.3815
 20
28.9088
 11
29.0451
 21
29.4389
  0
LINE
  8
0
 10
29.0451
 20
29.4389
 11
28.6448
 21
29.9227
  0
LINE
  8
0
 10
28.6448
 20
29.9227
 11
28.1871
 21
30.3526
  0
LINE
  8
0
 10
28.1871
 20
30.3526
 11
27.6791
 21
30.7216
  0
LINE
  8
0
 10
27.6791
 20
30.7216
 11
27.1289
 21
31.0241
  0
LINE
  8
0
 10
27.1289
 20
31.0241
 11
26.5451
 21
31.2553
  0
LINE
  8
0
 10
26.5451
 20
31.2553
 11
25.9369
 21
31.4114
  0
LINE
  8
0
 10
25.9369
 20
31.4114
 11
25.3139
 21
31.4901
  0
LINE
  8
0
 10
25.3139
 20
31.4901
 11
-25.3139
 21
31.4901
  0
LINE
  8
0
 10
-25.3139
 20
31.4901
 11
-25.9369
 21
31.4114
  0
LINE
  8
0
 10
-25.9369
 20
31.4114
 11
-26.5451
 21
31.2553
  0
LINE
  8
0
 10
-26.5451
 20
31.2553
 11
-27.1289
 21
31.0241
  0
LINE
  8
0
 10
-27.1289
 20
31.0241
 11
-27.6791
 21
30.7216
  0
LINE
  8
0
 10
-27.6791
 20
30.7216
 11
-28.1871
 21
30.3526
  0
LINE
  8
0
 10
-28.1871
 20
30.3526
 11
-28.6448
 21
29.9227
  0
LINE
  8
0
 10
-28.6448
 20
29.9227
 11
-29.0451
 21
29.4389
  0
LINE
  8
0
 10
-29.0451
 20
29.4389
 11
-29.3815
 21
28.9088
  0
LINE
  8
0
 10
-29.3815
 20
28.9088
 11
-29.6489
 21
28.3406
  0
LINE
  8
0
 10
-29.6489
 20
28.3406
 11
-29.8429
 21
27.7434
  0
LINE
  8
0
 10
-29.8429
 20
27.7434
 11
-29.9
 21
27.4442
  0
LINE
  8
0
 10
-29.9
 20
27.4442
 11
-31.5
 21
27.4442
  0
LINE
  8
0
 10
-31.5
 20
27.4442
 11
-31.5
 21
20.5558
  0
LINE
  8
0
 10
-31.5
 20
20.5558
 11
-29.9
 21
20.5558
  0
LINE
  8
0
 10
-29.9
 20
20.5558
 11
-29.8429
 21
20.2566
  0
LINE
  8
0
 10
-29.8429
 20
20.2566
 11
-29.6489
 21
19.6594
  0
LINE
  8
0
 10
-29.6489
 20
19.6594
 11
-29.3815
 21
19.0912
  0
LINE
  8
0
 10
-29.3815
 20
19.0912
 11
-29.0451
 21
18.5611
  0
LINE
  8
0
 10
-29.0451
 20
18.5611
 11
-28.6448
 21
18.0773
  0
LINE
  8
0
 10
-28.6448
 20
18.0773
 11
-28.1871
 21
17.6474
  0
LINE
  8
0
 10
-28.1871
 20
17.6474
 11
-27.6791
 21
17.2784
  0
LINE
  8
0
 10
-27.6791
 20
17.2784
 11
-27.1289
 21
16.9759
  0
LINE
  8
0
 10
-27.1289
 20
16.9759
 11
-26.5451
 21
16.7447
  0
LINE
  8
0
 10
-26.5451
 20
16.7447
 11
-25.9369
 21
16.5886
  0
LINE
  8
0
 10
-25.9369
 20
16.5886
 11
-25.3139
 21
16.5099
  0
LINE
  8
0
 10
-25.3139
 20
16.5099
 11
25.3139
 21
16.5099
  0
LINE
  8
0
 10
25.3139
 20
16.5099
 11
25.9369
 21
16.5886
  0
LINE
  8
0
 10
-22.613
 20
22.2036
 11
-22.8373
 21
22.2319
  0
LINE
  8
0
 10
-22.8373
 20
22.2319
 11
-23.0562
 21
22.2881
  0
LINE
  8
0
 10
-23.0562
 20
22.2881
 11
-23.2664
 21
22.3713
  0
LINE
  8
0
 10
-23.2664
 20
22.3713
 11
-23.4645
 21
22.4802
  0
LINE
  8
0
 10
-23.4645
 20
22.4802
 11
-23.6474
 21
22.6131
  0
LINE
  8
0
 10
-23.6474
 20
22.6131
 11
-23.8121
 21
22.7678
  0
LINE
  8
0
 10
-23.8121
 20
22.7678
 11
-23.9562
 21
22.942
  0
LINE
  8
0
 10
-23.9562
 20
22.942
 11
-24.0773
 21
23.1329
  0
LINE
  8
0
 10
-24.0773
 20
23.1329
 11
-24.1736
 21
23.3374
  0
LINE
  8
0
 10
-24.1736
 20
23.3374
 11
-24.2434
 21
23.5524
  0
LINE
  8
0
 10
-24.2434
 20
23.5524
 11
-24.2858
 21
23.7744
  0
LINE
  8
0
 10
-24.2858
 20
23.7744
 11
-24.3
 21
24
  0
LINE
  8
0
 10
-24.3
 20
24
 11
-24.2858
 21
24.2256
  0
LINE
  8
0
 10
-24.2858
 20
24.2256
 11
-24.2434
 21
24.4476
  0
LINE
  8
0
 10
-24.2434
 20
24.4476
 11
-24.1736
 21
24.6626
  0
LINE
  8
0
 10
-24.1736
 20
24.6626
 11
-24.0773
 21
24.8671
  0
LINE
  8
0
 10
-24.0773
 20
24.8671
 11
-23.9562
 21
25.058
  0
LINE
  8
0
 10
-23.9562
 20
25.058
 11
-23.8121
 21
25.2322
  0
LINE
  8
0
 10
-23.8121
 20
25.2322
 11
-23.6474
 21
25.3869
  0
LINE
  8
0
 10
-23.6474
 20
25.3869
 11
-23.4645
 21
25.5198
  0
LINE
  8
0
 10
-23.4645
 20
25.5198
 11
-23.2664
 21
25.6287
  0
LINE
  8
0
 10
-23.2664
 20
25.6287
 11
-23.0562
 21
25.7119
  0
LINE
  8
0
 10
-23.0562
 20
25.7119
 11
-22.8373
 21
25.7681
  0
LINE
  8
0
 10
-22.8373
 20
25.7681
 11
-22.613
 21
25.7964
  0
LINE
  8
0
 10
-22.613
 20
25.7964
 11
-22.387
 21
25.7964
  0
LINE
  8
0
 10
-22.387
 20
25.7964
 11
-22.1627
 21
25.7681
  0
LINE
  8
0
 10
-22.1627
 20
25.7681
 11
-21.9438
 21
25.7119
  0
LINE
  8
0
 10
-21.9438
 20
25.7119
 11
-21.7336
 21
25.6287
  0
LINE
  8
0
 10
-21.7336
 20
25.6287
 11
-21.5355
 21
25.5198
  0
LINE
  8
0
 10
-21.5355
 20
25.5198
 11
-21.3526
 21
25.3869
  0
LINE
  8
0
 10
-21.3526
 20
25.3869
 11
-21.1879
 21
25.2322
  0
LINE
  8
0
 10
-21.1879
 20
25.2322
 11
-21.0438
 21
25.058
  0
LINE
  8
0
 10
-21.0438
 20
25.058
 11
-20.9226
 21
24.8671
  0
LINE
  8
0
 10
-20.9226
 20
24.8671
 11
-20.8264
 21
24.6626
  0
LINE
  8
0
 10
-20.8264
 20
24.6626
 11
-20.7565
 21
24.4476
  0
LINE
  8
0
 10
-20.7565
 20
24.4476
 11
-20.7142
 21
24.2256
  0
LINE
  8
0
 10
-20.7142
 20
24.2256
 11
-20.7
 21
24
  0
LINE
  8
0
 10
-20.7
 20
24
 11
-20.7142
 21
23.7744
  0
LINE
  8
0
 10
-20.7142
 20
23.7744
 11
-20.7565
 21
23.5524
  0
LINE
  8
0
 10
-20.7565
 20
23.5524
 11
-20.8264
 21
23.3374
  0
LINE
  8
0
 10
-20.8264
 20
23.3374
 11
-20.9226
 21
23.1329
  0
LINE
  8
0
 10
-20.9226
 20
23.1329
 11
-21.0438
 21
22.942
  0
LINE
  8
0
 10
-21.0438
 20
22.942
 11
-21.1879
 21
22.7678
  0
LINE
  8
0
 10
-21.1879
 20
22.7678
 11
-21.3526
 21
22.6131
  0
LINE
  8
0
 10
-21.3526
 20
22.6131
 11
-21.5355
 21
22.4802
  0
LINE
  8
0
 10
-21.5355
 20
22.4802
 11
-21.7336
 21
22.3713
  0
LINE
  8
0
 10
-21.7336
 20
22.3713
 11
-21.9438
 21
22.2881
  0
LINE
  8
0
 10
-21.9438
 20
22.2881
 11
-22.1627
 21
22.2319
  0
LINE
  8
0
 10
-22.1627
 20
22.2319
 11
-22.387
 21
22.2036
  0
LINE
  8
0
 10
-22.387
 20
22.2036
 11
-22.613
 21
22.2036
  0
LINE
  8
0
 10
22.387
 20
22.2036
 11
22.1627
 21
22.2319
  0
LINE
  8
0
 10
22.1627
 20
22.2319
 11
21.9438
 21
22.2881
  0
LINE
  8
0
 10
21.9438
 20
22.2881
 11
21.7336
 21
22.3713
  0
LINE
  8
0
 10
21.7336
 20
22.3713
 11
21.5355
 21
22.4802
  0
LINE
  8
0
 10
21.5355
 20
22.4802
 11
21.3526
 21
22.6131
  0
LINE
  8
0
 10
21.3526
 20
22.6131
 11
21.1879
 21
22.7678
  0
LINE
  8
0
 10
21.1879
 20
22.7678
 11
21.0438
 21
22.942
  0
LINE
  8
0
 10
21.0438
 20
22.942
 11
20.9226
 21
23.1329
  0
LINE
  8
0
 10
20.9226
 20
23.1329
 11
20.8264
 21
23.3374
  0
LINE
  8
0
 10
20.8264
 20
23.3374
 11
20.7565
 21
23.5524
  0
LINE
  8
0
 10
20.7565
 20
23.5524
 11
20.7142
 21
23.7744
  0
LINE
  8
0
 10
20.7142
 20
23.7744
 11
20.7
 21
24
  0
LINE
  8
0
 10
20.7
 20
24
 11
20.7142
 21
24.2256
  0
LINE
  8
0
 10
20.7142
 20
24.2256
 11
20.7565
 21
24.4476
  0
LINE
  8
0
 10
20.7565
 20
24.4476
 11
20.8264
 21
24.6626
  0
LINE
  8
0
 10
20.8264
 20
24.6626
 11
20.9226
 21
24.8671
  0
LINE
  8
0
 10
20.9226
 20
24.8671
 11
21.0438
 21
25.058
  0
LINE
  8
0
 10
21.0438
 20
25.058
 11
21.1879
 21
25.2322
  0
LINE
  8
0
 10
21.1879
 20
25.2322
 11
21.3526
 21
25.3869
  0
LINE
  8
0
 10
21.3526
 20
25.3869
 11
21.5355
 21
25.5198
  0
LINE
  8
0
 10
21.5355
 20
25.5198
 11
21.7336
 21
25.6287
  0
LINE
  8
0
 10
21.7336
 20
25.6287
 11
21.9438
 21
25.7119
  0
LINE
  8
0
 10
21.9438
 20
25.7119
 11
22.1627
 21
25.7681
  0
LINE
  8
0
 10
22.1627
 20
25.7681
 11
22.387
 21
25.7964
  0
LINE
  8
0
 10
22.387
 20
25.7964
 11
22.613
 21
25.7964
  0
LINE
  8
0
 10
22.613
 20
25.7964
 11
22.8373
 21
25.7681
  0
LINE
  8
0
 10
22.8373
 20
25.7681
 11
23.0562
 21
25.7119
  0
LINE
  8
0
 10
23.0562
 20
25.7119
 11
23.2664
 21
25.6287
  0
LINE
  8
0
 10
23.2664
 20
25.6287
 11
23.4645
 21
25.5198
  0
LINE
  8
0
 10
23.4645
 20
25.5198
 11
23.6474
 21
25.3869
  0
LINE
  8
0
 10
23.6474
 20
25.3869
 11
23.8121
 21
25.2322
  0
LINE
  8
0
 10
23.8121
 20
25.2322
 11
23.9562
 21
25.058
  0
LINE
  8
0
 10
23.9562
 20
25.058
 11
24.0773
 21
24.8671
  0
LINE
  8
0
 10
24.0773
 20
24.8671
 11
24.1736
 21
24.6626
  0
LINE
  8
0
 10
24.1736
 20
24.6626
 11
24.2434
 21
24.4476
  0
LINE
  8
0
 10
24.2434
 20
24.4476
 11
24.2858
 21
24.2256
  0
LINE
  8
0
 10
24.2858
 20
24.2256
 11
24.3
 21
24
  0
LINE
  8
0
 10
24.3
 20
24
 11
24.2858
 21
23.7744
  0
LINE
  8
0
 10
24.2858
 20
23.7744
 11
24.2434
 21
23.5524
  0
LINE
  8
0
 10
24.2434
 20
23.5524
 11
24.1736
 21
23.3374
  0
LINE
  8
0
 10
24.1736
 20
23.3374
 11
24.0773
 21
23.1329
  0
LINE
  8
0
 10
24.0773
 20
23.1329
 11
23.9562
 21
22.942
  0
LINE
  8
0
 10
23.9562
 20
22.942
 11
23.8121
 21
22.7678
  0
LINE
  8
0
 10
23.8121
 20
22.7678
 11
23.6474
 21
22.6131
  0
LINE
  8
0
 10
23.6474
 20
22.6131
 11
23.4645
 21
22.4802
  0
LINE
  8
0
 10
23.4645
 20
22.4802
 11
23.2664
 21
22.3713
  0
LINE
  8
0
 10
23.2664
 20
22.3713
 11
23.0562
 21
22.2881
  0
LINE
  8
0
 10
23.0562
 20
22.2881
 11
22.8373
 21
22.2319
  0
LINE
  8
0
 10
22.8373
 20
22.2319
 11
22.613
 21
22.2036
  0
LINE
  8
0
 10
22.613
 20
22.2036
 11
22.387
 21
22.2036
  0
ENDSEC
  0
SECTION
  2
OBJECTS
  0
DICTIONARY
  0
ENDSEC
  0
EOF
