<?xml version="1.0" standalone="no"?>
<!DOCTYPE svg PUBLIC "-//W3C//DTD SVG 1.1//EN" "http://www.w3.org/Graphics/SVG/1.1/DTD/svg11.dtd">
<svg width="182mm" height="100mm" viewBox="-92 -185 182 100" xmlns="http://www.w3.org/2000/svg" version="1.1">
<title>OpenSCAD Model</title>
<path d="
M 85.9369,-139.589 L 86.5451,-139.745 L 87.1289,-139.976 L 87.6791,-140.278 L 88.1871,-140.647 L 88.6448,-141.077
 L 89.0451,-141.561 L 89.3815,-142.091 L 89.6489,-142.659 L 89.8429,-143.257 L 89.9606,-143.873 L 90,-144.5
 L 90,-179.5 L 89.9606,-180.127 L 89.8429,-180.743 L 89.6489,-181.341 L 89.3815,-181.909 L 89.0451,-182.439
 L 88.6448,-182.923 L 88.1871,-183.353 L 87.6791,-183.722 L 87.1289,-184.024 L 86.5451,-184.255 L 85.9369,-184.411
 L 85.3139,-184.49 L -85.3139,-184.49 L -85.9369,-184.411 L -86.5451,-184.255 L -87.1289,-184.024 L -87.6791,-183.722
 L -88.1871,-183.353 L -88.5,-183.059 L -88.5,-184.479 L -91.5,-184.479 L -91.5,-139.521 L -88.5,-139.521
 L -88.5,-140.941 L -88.1871,-140.647 L -87.6791,-140.278 L -87.1289,-139.976 L -86.5451,-139.745 L -85.9369,-139.589
 L -85.3139,-139.51 L 85.3139,-139.51 z
M -84.6955,-141.893 L -85.0833,-141.942 L -85.4619,-142.039 L -85.8254,-142.183 L -86.168,-142.372 L -86.4843,-142.601
 L -86.7692,-142.869 L -87.0184,-143.17 L -87.2279,-143.5 L -87.3943,-143.854 L -87.5151,-144.226 L -87.5884,-144.61
 L -87.6129,-145 L -87.6129,-179 L -87.5884,-179.39 L -87.5151,-179.774 L -87.3943,-180.146 L -87.2279,-180.5
 L -87.0184,-180.83 L -86.7692,-181.131 L -86.4843,-181.399 L -86.168,-181.628 L -85.8254,-181.817 L -85.4619,-181.961
 L -85.0833,-182.058 L -84.6955,-182.107 L 84.6955,-182.107 L 85.0833,-182.058 L 85.4619,-181.961 L 85.8254,-181.817
 L 86.168,-181.628 L 86.4843,-181.399 L 86.7692,-181.131 L 87.0184,-180.83 L 87.2279,-180.5 L 87.3943,-180.146
 L 87.5151,-179.774 L 87.5884,-179.39 L 87.6129,-179 L 87.6129,-145 L 87.5884,-144.61 L 87.5151,-144.226
 L 87.3943,-143.854 L 87.2279,-143.5 L 87.0184,-143.17 L 86.7692,-142.869 L 86.4843,-142.601 L 86.168,-142.372
 L 85.8254,-142.183 L 85.4619,-142.039 L 85.0833,-141.942 L 84.6955,-141.893 z
M 85.9369,-85.5886 L 86.5451,-85.7447 L 87.1289,-85.9759 L 87.6791,-86.2784 L 88.1871,-86.6474 L 88.6448,-87.0773
 L 89.0451,-87.5611 L 89.3815,-88.0912 L 89.6489,-88.6594 L 89.8429,-89.2566 L 89.9606,-89.8733 L 90,-90.5
 L 90,-125.5 L 89.9606,-126.127 L 89.8429,-126.743 L 89.6489,-127.341 L 89.3815,-127.909 L 89.0451,-128.439
 L 88.6448,-128.923 L 88.1871,-129.353 L 87.6791,-129.722 L 87.1289,-130.024 L 86.5451,-130.255 L 85.9369,-130.411
 L 85.3139,-130.49 L -85.3139,-130.49 L -85.9369,-130.411 L -86.5451,-130.255 L -87.1289,-130.024 L -87.6791,-129.722
 L -88.1871,-129.353 L -88.5,-129.059 L -88.5,-129.153 L -91.5,-129.153 L -91.5,-86.8474 L -88.5,-86.8474
 L -88.5,-86.9413 L -88.1871,-86.6474 L -87.6791,-86.2784 L -87.1289,-85.9759 L -86.5451,-85.7447 L -85.9369,-85.5886
 L -85.3139,-85.5099 L 85.3139,-85.5099 z
M 82.3659,-120.869 L 82.0999,-120.903 L 81.8401,-120.969 L 81.5908,-121.068 L 81.3559,-121.197 L 81.1389,-121.355
 L 80.9434,-121.538 L 80.7725,-121.745 L 80.6288,-121.971 L 80.5146,-122.214 L 80.4318,-122.469 L 80.3815,-122.732
 L 80.3647,-123 L 80.3815,-123.268 L 80.4318,-123.531 L 80.5146,-123.786 L 80.6288,-124.029 L 80.7725,-124.255
 L 80.9434,-124.462 L 81.1389,-124.645 L 81.3559,-124.803 L 81.5908,-124.932 L 81.8401,-125.031 L 82.0999,-125.097
 L 82.3659,-125.131 L 82.6341,-125.131 L 82.9001,-125.097 L 83.1598,-125.031 L 83.4092,-124.932 L 83.6441,-124.803
 L 83.8611,-124.645 L 84.0566,-124.462 L 84.2275,-124.255 L 84.3712,-124.029 L 84.4853,-123.786 L 84.5682,-123.531
 L 84.6185,-123.268 L 84.6353,-123 L 84.6185,-122.732 L 84.5682,-122.469 L 84.4853,-122.214 L 84.3712,-121.971
 L 84.2275,-121.745 L 84.0566,-121.538 L 83.8611,-121.355 L 83.6441,-121.197 L 83.4092,-121.068 L 83.1598,-120.969
 L 82.9001,-120.903 L 82.6341,-120.869 z
M -82.6341,-120.869 L -82.9001,-120.903 L -83.1598,-120.969 L -83.4092,-121.068 L -83.6441,-121.197 L -83.8611,-121.355
 L -84.0566,-121.538 L -84.2275,-121.745 L -84.3712,-121.971 L -84.4853,-122.214 L -84.5682,-122.469 L -84.6185,-122.732
 L -84.6353,-123 L -84.6185,-123.268 L -84.5682,-123.531 L -84.4853,-123.786 L -84.3712,-124.029 L -84.2275,-124.255
 L -84.0566,-124.462 L -83.8611,-124.645 L -83.6441,-124.803 L -83.4092,-124.932 L -83.1598,-125.031 L -82.9001,-125.097
 L -82.6341,-125.131 L -82.3659,-125.131 L -82.0999,-125.097 L -81.8401,-125.031 L -81.5908,-124.932 L -81.3559,-124.803
 L -81.1389,-124.645 L -80.9434,-124.462 L -80.7725,-124.255 L -80.6288,-124.029 L -80.5146,-123.786 L -80.4318,-123.531
 L -80.3815,-123.268 L -80.3647,-123 L -80.3815,-122.732 L -80.4318,-122.469 L -80.5146,-122.214 L -80.6288,-121.971
 L -80.7725,-121.745 L -80.9434,-121.538 L -81.1389,-121.355 L -81.3559,-121.197 L -81.5908,-121.068 L -81.8401,-120.969
 L -82.0999,-120.903 L -82.3659,-120.869 z
M 82.3659,-90.8689 L 82.0999,-90.9025 L 81.8401,-90.9692 L 81.5908,-91.0679 L 81.3559,-91.1971 L 81.1389,-91.3547
 L 80.9434,-91.5383 L 80.7725,-91.7449 L 80.6288,-91.9713 L 80.5146,-92.214 L 80.4318,-92.469 L 80.3815,-92.7324
 L 80.3647,-93 L 80.3815,-93.2676 L 80.4318,-93.531 L 80.5146,-93.7861 L 80.6288,-94.0287 L 80.7725,-94.2551
 L 80.9434,-94.4617 L 81.1389,-94.6453 L 81.3559,-94.8029 L 81.5908,-94.9321 L 81.8401,-95.0308 L 82.0999,-95.0975
 L 82.3659,-95.1311 L 82.6341,-95.1311 L 82.9001,-95.0975 L 83.1598,-95.0308 L 83.4092,-94.9321 L 83.6441,-94.8029
 L 83.8611,-94.6453 L 84.0566,-94.4617 L 84.2275,-94.2551 L 84.3712,-94.0287 L 84.4853,-93.7861 L 84.5682,-93.531
 L 84.6185,-93.2676 L 84.6353,-93 L 84.6185,-92.7324 L 84.5682,-92.469 L 84.4853,-92.214 L 84.3712,-91.9713
 L 84.2275,-91.7449 L 84.0566,-91.5383 L 83.8611,-91.3547 L 83.6441,-91.1971 L 83.4092,-91.0679 L 83.1598,-90.9692
 L 82.9001,-90.9025 L 82.6341,-90.8689 z
M -82.6341,-90.8689 L -82.9001,-90.9025 L -83.1598,-90.9692 L -83.4092,-91.0679 L -83.6441,-91.1971 L -83.8611,-91.3547
 L -84.0566,-91.5383 L -84.2275,-91.7449 L -84.3712,-91.9713 L -84.4853,-92.214 L -84.5682,-92.469 L -84.6185,-92.7324
 L -84.6353,-93 L -84.6185,-93.2676 L -84.5682,-93.531 L -84.4853,-93.7861 L -84.3712,-94.0287 L -84.2275,-94.2551
 L -84.0566,-94.4617 L -83.8611,-94.6453 L -83.6441,-94.8029 L -83.4092,-94.9321 L -83.1598,-95.0308 L -82.9001,-95.0975
 L -82.6341,-95.1311 L -82.3659,-95.1311 L -82.0999,-95.0975 L -81.8401,-95.0308 L -81.5908,-94.9321 L -81.3559,-94.8029
 L -81.1389,-94.6453 L -80.9434,-94.4617 L -80.7725,-94.2551 L -80.6288,-94.0287 L -80.5146,-93.7861 L -80.4318,-93.531
 L -80.3815,-93.2676 L -80.3647,-93 L -80.3815,-92.7324 L -80.4318,-92.469 L -80.5146,-92.214 L -80.6288,-91.9713
 L -80.7725,-91.7449 L -80.9434,-91.5383 L -81.1389,-91.3547 L -81.3559,-91.1971 L -81.5908,-91.0679 L -81.8401,-90.9692
 L -82.0999,-90.9025 L -82.3659,-90.8689 z
" stroke="black" fill="lightgray" stroke-width="0.5"/>
</svg>
