  0
SECTION
  2
BLOCKS
  0
ENDSEC
  0
SECTION
  2
ENTITIES
  0
LINE
  8
0
 10
10.9369
 20
85.5886
 11
11.5451
 21
85.7447
  0
LINE
  8
0
 10
11.5451
 20
85.7447
 11
12.1289
 21
85.9759
  0
LINE
  8
0
 10
12.1289
 20
85.9759
 11
12.6791
 21
86.2784
  0
LINE
  8
0
 10
12.6791
 20
86.2784
 11
13.1871
 21
86.6474
  0
LINE
  8
0
 10
13.1871
 20
86.6474
 11
13.6448
 21
87.0773
  0
LINE
  8
0
 10
13.6448
 20
87.0773
 11
14.0451
 21
87.5611
  0
LINE
  8
0
 10
14.0451
 20
87.5611
 11
14.3815
 21
88.0912
  0
LINE
  8
0
 10
14.3815
 20
88.0912
 11
14.6489
 21
88.6594
  0
LINE
  8
0
 10
14.6489
 20
88.6594
 11
14.8429
 21
89.2566
  0
LINE
  8
0
 10
14.8429
 20
89.2566
 11
14.9606
 21
89.8733
  0
LINE
  8
0
 10
14.9606
 20
89.8733
 11
15
 21
90.5
  0
LINE
  8
0
 10
15
 20
90.5
 11
15
 21
125.5
  0
LINE
  8
0
 10
15
 20
125.5
 11
14.9606
 21
126.127
  0
LINE
  8
0
 10
14.9606
 20
126.127
 11
14.8429
 21
126.743
  0
LINE
  8
0
 10
14.8429
 20
126.743
 11
14.6489
 21
127.341
  0
LINE
  8
0
 10
14.6489
 20
127.341
 11
14.3815
 21
127.909
  0
LINE
  8
0
 10
14.3815
 20
127.909
 11
14.0451
 21
128.439
  0
LINE
  8
0
 10
14.0451
 20
128.439
 11
13.6448
 21
128.923
  0
LINE
  8
0
 10
13.6448
 20
128.923
 11
13.1871
 21
129.353
  0
LINE
  8
0
 10
13.1871
 20
129.353
 11
12.6791
 21
129.722
  0
LINE
  8
0
 10
12.6791
 20
129.722
 11
12.1289
 21
130.024
  0
LINE
  8
0
 10
12.1289
 20
130.024
 11
11.5451
 21
130.255
  0
LINE
  8
0
 10
11.5451
 20
130.255
 11
10.9369
 21
130.411
  0
LINE
  8
0
 10
10.9369
 20
130.411
 11
10.3139
 21
130.49
  0
LINE
  8
0
 10
10.3139
 20
130.49
 11
-10.3139
 21
130.49
  0
LINE
  8
0
 10
-10.3139
 20
130.49
 11
-10.9369
 21
130.411
  0
LINE
  8
0
 10
-10.9369
 20
130.411
 11
-11.5451
 21
130.255
  0
LINE
  8
0
 10
-11.5451
 20
130.255
 11
-12.1289
 21
130.024
  0
LINE
  8
0
 10
-12.1289
 20
130.024
 11
-12.6791
 21
129.722
  0
LINE
  8
0
 10
-12.6791
 20
129.722
 11
-13.1871
 21
129.353
  0
LINE
  8
0
 10
-13.1871
 20
129.353
 11
-13.6448
 21
128.923
  0
LINE
  8
0
 10
-13.6448
 20
128.923
 11
-14.0451
 21
128.439
  0
LINE
  8
0
 10
-14.0451
 20
128.439
 11
-14.3815
 21
127.909
  0
LINE
  8
0
 10
-14.3815
 20
127.909
 11
-14.6489
 21
127.341
  0
LINE
  8
0
 10
-14.6489
 20
127.341
 11
-14.8429
 21
126.743
  0
LINE
  8
0
 10
-14.8429
 20
126.743
 11
-14.9606
 21
126.127
  0
LINE
  8
0
 10
-14.9606
 20
126.127
 11
-15
 21
125.5
  0
LINE
  8
0
 10
-15
 20
125.5
 11
-15
 21
90.5
  0
LINE
  8
0
 10
-15
 20
90.5
 11
-14.9606
 21
89.8733
  0
LINE
  8
0
 10
-14.9606
 20
89.8733
 11
-14.8429
 21
89.2566
  0
LINE
  8
0
 10
-14.8429
 20
89.2566
 11
-14.6489
 21
88.6594
  0
LINE
  8
0
 10
-14.6489
 20
88.6594
 11
-14.3815
 21
88.0912
  0
LINE
  8
0
 10
-14.3815
 20
88.0912
 11
-14.0451
 21
87.5611
  0
LINE
  8
0
 10
-14.0451
 20
87.5611
 11
-13.6448
 21
87.0773
  0
LINE
  8
0
 10
-13.6448
 20
87.0773
 11
-13.1871
 21
86.6474
  0
LINE
  8
0
 10
-13.1871
 20
86.6474
 11
-12.6791
 21
86.2784
  0
LINE
  8
0
 10
-12.6791
 20
86.2784
 11
-12.1289
 21
85.9759
  0
LINE
  8
0
 10
-12.1289
 20
85.9759
 11
-11.5451
 21
85.7447
  0
LINE
  8
0
 10
-11.5451
 20
85.7447
 11
-10.9369
 21
85.5886
  0
LINE
  8
0
 10
-10.9369
 20
85.5886
 11
-10.3139
 21
85.5099
  0
LINE
  8
0
 10
-10.3139
 20
85.5099
 11
10.3139
 21
85.5099
  0
LINE
  8
0
 10
10.3139
 20
85.5099
 11
10.9369
 21
85.5886
  0
LINE
  8
0
 10
10.9369
 20
31.5886
 11
11.5451
 21
31.7447
  0
LINE
  8
0
 10
11.5451
 20
31.7447
 11
12.1289
 21
31.9759
  0
LINE
  8
0
 10
12.1289
 20
31.9759
 11
12.6791
 21
32.2784
  0
LINE
  8
0
 10
12.6791
 20
32.2784
 11
13.1871
 21
32.6474
  0
LINE
  8
0
 10
13.1871
 20
32.6474
 11
13.6448
 21
33.0773
  0
LINE
  8
0
 10
13.6448
 20
33.0773
 11
14.0451
 21
33.5611
  0
LINE
  8
0
 10
14.0451
 20
33.5611
 11
14.3815
 21
34.0912
  0
LINE
  8
0
 10
14.3815
 20
34.0912
 11
14.6489
 21
34.6594
  0
LINE
  8
0
 10
14.6489
 20
34.6594
 11
14.8429
 21
35.2566
  0
LINE
  8
0
 10
14.8429
 20
35.2566
 11
14.9606
 21
35.8733
  0
LINE
  8
0
 10
14.9606
 20
35.8733
 11
15
 21
36.5
  0
LINE
  8
0
 10
15
 20
36.5
 11
15
 21
71.5
  0
LINE
  8
0
 10
15
 20
71.5
 11
14.9606
 21
72.1267
  0
LINE
  8
0
 10
14.9606
 20
72.1267
 11
14.8429
 21
72.7434
  0
LINE
  8
0
 10
14.8429
 20
72.7434
 11
14.6489
 21
73.3406
  0
LINE
  8
0
 10
14.6489
 20
73.3406
 11
14.3815
 21
73.9088
  0
LINE
  8
0
 10
14.3815
 20
73.9088
 11
14.0451
 21
74.4389
  0
LINE
  8
0
 10
14.0451
 20
74.4389
 11
13.6448
 21
74.9227
  0
LINE
  8
0
 10
13.6448
 20
74.9227
 11
13.1871
 21
75.3526
  0
LINE
  8
0
 10
13.1871
 20
75.3526
 11
12.6791
 21
75.7216
  0
LINE
  8
0
 10
12.6791
 20
75.7216
 11
12.1289
 21
76.0241
  0
LINE
  8
0
 10
12.1289
 20
76.0241
 11
11.5451
 21
76.2553
  0
LINE
  8
0
 10
11.5451
 20
76.2553
 11
10.9369
 21
76.4114
  0
LINE
  8
0
 10
10.9369
 20
76.4114
 11
10.3139
 21
76.4901
  0
LINE
  8
0
 10
10.3139
 20
76.4901
 11
-10.3139
 21
76.4901
  0
LINE
  8
0
 10
-10.3139
 20
76.4901
 11
-10.9369
 21
76.4114
  0
LINE
  8
0
 10
-10.9369
 20
76.4114
 11
-11.5451
 21
76.2553
  0
LINE
  8
0
 10
-11.5451
 20
76.2553
 11
-12.1289
 21
76.0241
  0
LINE
  8
0
 10
-12.1289
 20
76.0241
 11
-12.6791
 21
75.7216
  0
LINE
  8
0
 10
-12.6791
 20
75.7216
 11
-13.1871
 21
75.3526
  0
LINE
  8
0
 10
-13.1871
 20
75.3526
 11
-13.6448
 21
74.9227
  0
LINE
  8
0
 10
-13.6448
 20
74.9227
 11
-14.0451
 21
74.4389
  0
LINE
  8
0
 10
-14.0451
 20
74.4389
 11
-14.3815
 21
73.9088
  0
LINE
  8
0
 10
-14.3815
 20
73.9088
 11
-14.6489
 21
73.3406
  0
LINE
  8
0
 10
-14.6489
 20
73.3406
 11
-14.8429
 21
72.7434
  0
LINE
  8
0
 10
-14.8429
 20
72.7434
 11
-14.9606
 21
72.1267
  0
LINE
  8
0
 10
-14.9606
 20
72.1267
 11
-15
 21
71.5
  0
LINE
  8
0
 10
-15
 20
71.5
 11
-15
 21
36.5
  0
LINE
  8
0
 10
-15
 20
36.5
 11
-14.9606
 21
35.8733
  0
LINE
  8
0
 10
-14.9606
 20
35.8733
 11
-14.8429
 21
35.2566
  0
LINE
  8
0
 10
-14.8429
 20
35.2566
 11
-14.6489
 21
34.6594
  0
LINE
  8
0
 10
-14.6489
 20
34.6594
 11
-14.3815
 21
34.0912
  0
LINE
  8
0
 10
-14.3815
 20
34.0912
 11
-14.0451
 21
33.5611
  0
LINE
  8
0
 10
-14.0451
 20
33.5611
 11
-13.6448
 21
33.0773
  0
LINE
  8
0
 10
-13.6448
 20
33.0773
 11
-13.1871
 21
32.6474
  0
LINE
  8
0
 10
-13.1871
 20
32.6474
 11
-12.6791
 21
32.2784
  0
LINE
  8
0
 10
-12.6791
 20
32.2784
 11
-12.1289
 21
31.9759
  0
LINE
  8
0
 10
-12.1289
 20
31.9759
 11
-11.5451
 21
31.7447
  0
LINE
  8
0
 10
-11.5451
 20
31.7447
 11
-10.9369
 21
31.5886
  0
LINE
  8
0
 10
-10.9369
 20
31.5886
 11
-10.3139
 21
31.5099
  0
LINE
  8
0
 10
-10.3139
 20
31.5099
 11
10.3139
 21
31.5099
  0
LINE
  8
0
 10
10.3139
 20
31.5099
 11
10.9369
 21
31.5886
  0
LINE
  8
0
 10
7.38696
 20
67.2036
 11
7.1627
 21
67.2319
  0
LINE
  8
0
 10
7.1627
 20
67.2319
 11
6.94376
 21
67.2881
  0
LINE
  8
0
 10
6.94376
 20
67.2881
 11
6.7336
 21
67.3713
  0
LINE
  8
0
 10
6.7336
 20
67.3713
 11
6.53551
 21
67.4802
  0
LINE
  8
0
 10
6.53551
 20
67.4802
 11
6.35263
 21
67.6131
  0
LINE
  8
0
 10
6.35263
 20
67.6131
 11
6.18785
 21
67.7678
  0
LINE
  8
0
 10
6.18785
 20
67.7678
 11
6.04376
 21
67.942
  0
LINE
  8
0
 10
6.04376
 20
67.942
 11
5.92264
 21
68.1328
  0
LINE
  8
0
 10
5.92264
 20
68.1328
 11
5.8264
 21
68.3374
  0
LINE
  8
0
 10
5.8264
 20
68.3374
 11
5.75655
 21
68.5524
  0
LINE
  8
0
 10
5.75655
 20
68.5524
 11
5.71419
 21
68.7744
  0
LINE
  8
0
 10
5.71419
 20
68.7744
 11
5.7
 21
69
  0
LINE
  8
0
 10
5.7
 20
69
 11
5.71419
 21
69.2256
  0
LINE
  8
0
 10
5.71419
 20
69.2256
 11
5.75655
 21
69.4476
  0
LINE
  8
0
 10
5.75655
 20
69.4476
 11
5.8264
 21
69.6626
  0
LINE
  8
0
 10
5.8264
 20
69.6626
 11
5.92264
 21
69.8671
  0
LINE
  8
0
 10
5.92264
 20
69.8671
 11
6.04376
 21
70.058
  0
LINE
  8
0
 10
6.04376
 20
70.058
 11
6.18785
 21
70.2322
  0
LINE
  8
0
 10
6.18785
 20
70.2322
 11
6.35263
 21
70.3869
  0
LINE
  8
0
 10
6.35263
 20
70.3869
 11
6.53551
 21
70.5198
  0
LINE
  8
0
 10
6.53551
 20
70.5198
 11
6.7336
 21
70.6287
  0
LINE
  8
0
 10
6.7336
 20
70.6287
 11
6.94376
 21
70.7119
  0
LINE
  8
0
 10
6.94376
 20
70.7119
 11
7.1627
 21
70.7681
  0
LINE
  8
0
 10
7.1627
 20
70.7681
 11
7.38696
 21
70.7964
  0
LINE
  8
0
 10
7.38696
 20
70.7964
 11
7.61302
 21
70.7964
  0
LINE
  8
0
 10
7.61302
 20
70.7964
 11
7.83728
 21
70.7681
  0
LINE
  8
0
 10
7.83728
 20
70.7681
 11
8.05623
 21
70.7119
  0
LINE
  8
0
 10
8.05623
 20
70.7119
 11
8.26639
 21
70.6287
  0
LINE
  8
0
 10
8.26639
 20
70.6287
 11
8.46448
 21
70.5198
  0
LINE
  8
0
 10
8.46448
 20
70.5198
 11
8.64735
 21
70.3869
  0
LINE
  8
0
 10
8.64735
 20
70.3869
 11
8.81213
 21
70.2322
  0
LINE
  8
0
 10
8.81213
 20
70.2322
 11
8.95622
 21
70.058
  0
LINE
  8
0
 10
8.95622
 20
70.058
 11
9.07735
 21
69.8671
  0
LINE
  8
0
 10
9.07735
 20
69.8671
 11
9.17358
 21
69.6626
  0
LINE
  8
0
 10
9.17358
 20
69.6626
 11
9.24344
 21
69.4476
  0
LINE
  8
0
 10
9.24344
 20
69.4476
 11
9.2858
 21
69.2256
  0
LINE
  8
0
 10
9.2858
 20
69.2256
 11
9.29999
 21
69
  0
LINE
  8
0
 10
9.29999
 20
69
 11
9.2858
 21
68.7744
  0
LINE
  8
0
 10
9.2858
 20
68.7744
 11
9.24344
 21
68.5524
  0
LINE
  8
0
 10
9.24344
 20
68.5524
 11
9.17358
 21
68.3374
  0
LINE
  8
0
 10
9.17358
 20
68.3374
 11
9.07735
 21
68.1328
  0
LINE
  8
0
 10
9.07735
 20
68.1328
 11
8.95622
 21
67.942
  0
LINE
  8
0
 10
8.95622
 20
67.942
 11
8.81213
 21
67.7678
  0
LINE
  8
0
 10
8.81213
 20
67.7678
 11
8.64735
 21
67.6131
  0
LINE
  8
0
 10
8.64735
 20
67.6131
 11
8.46448
 21
67.4802
  0
LINE
  8
0
 10
8.46448
 20
67.4802
 11
8.26639
 21
67.3713
  0
LINE
  8
0
 10
8.26639
 20
67.3713
 11
8.05623
 21
67.2881
  0
LINE
  8
0
 10
8.05623
 20
67.2881
 11
7.83728
 21
67.2319
  0
LINE
  8
0
 10
7.83728
 20
67.2319
 11
7.61302
 21
67.2036
  0
LINE
  8
0
 10
7.61302
 20
67.2036
 11
7.38696
 21
67.2036
  0
LINE
  8
0
 10
-7.61302
 20
67.2036
 11
-7.83728
 21
67.2319
  0
LINE
  8
0
 10
-7.83728
 20
67.2319
 11
-8.05623
 21
67.2881
  0
LINE
  8
0
 10
-8.05623
 20
67.2881
 11
-8.26639
 21
67.3713
  0
LINE
  8
0
 10
-8.26639
 20
67.3713
 11
-8.46448
 21
67.4802
  0
LINE
  8
0
 10
-8.46448
 20
67.4802
 11
-8.64735
 21
67.6131
  0
LINE
  8
0
 10
-8.64735
 20
67.6131
 11
-8.81213
 21
67.7678
  0
LINE
  8
0
 10
-8.81213
 20
67.7678
 11
-8.95622
 21
67.942
  0
LINE
  8
0
 10
-8.95622
 20
67.942
 11
-9.07735
 21
68.1328
  0
LINE
  8
0
 10
-9.07735
 20
68.1328
 11
-9.17358
 21
68.3374
  0
LINE
  8
0
 10
-9.17358
 20
68.3374
 11
-9.24344
 21
68.5524
  0
LINE
  8
0
 10
-9.24344
 20
68.5524
 11
-9.2858
 21
68.7744
  0
LINE
  8
0
 10
-9.2858
 20
68.7744
 11
-9.29999
 21
69
  0
LINE
  8
0
 10
-9.29999
 20
69
 11
-9.2858
 21
69.2256
  0
LINE
  8
0
 10
-9.2858
 20
69.2256
 11
-9.24344
 21
69.4476
  0
LINE
  8
0
 10
-9.24344
 20
69.4476
 11
-9.17358
 21
69.6626
  0
LINE
  8
0
 10
-9.17358
 20
69.6626
 11
-9.07735
 21
69.8671
  0
LINE
  8
0
 10
-9.07735
 20
69.8671
 11
-8.95622
 21
70.058
  0
LINE
  8
0
 10
-8.95622
 20
70.058
 11
-8.81213
 21
70.2322
  0
LINE
  8
0
 10
-8.81213
 20
70.2322
 11
-8.64735
 21
70.3869
  0
LINE
  8
0
 10
-8.64735
 20
70.3869
 11
-8.46448
 21
70.5198
  0
LINE
  8
0
 10
-8.46448
 20
70.5198
 11
-8.26639
 21
70.6287
  0
LINE
  8
0
 10
-8.26639
 20
70.6287
 11
-8.05623
 21
70.7119
  0
LINE
  8
0
 10
-8.05623
 20
70.7119
 11
-7.83728
 21
70.7681
  0
LINE
  8
0
 10
-7.83728
 20
70.7681
 11
-7.61302
 21
70.7964
  0
LINE
  8
0
 10
-7.61302
 20
70.7964
 11
-7.38696
 21
70.7964
  0
LINE
  8
0
 10
-7.38696
 20
70.7964
 11
-7.1627
 21
70.7681
  0
LINE
  8
0
 10
-7.1627
 20
70.7681
 11
-6.94376
 21
70.7119
  0
LINE
  8
0
 10
-6.94376
 20
70.7119
 11
-6.7336
 21
70.6287
  0
LINE
  8
0
 10
-6.7336
 20
70.6287
 11
-6.53551
 21
70.5198
  0
LINE
  8
0
 10
-6.53551
 20
70.5198
 11
-6.35263
 21
70.3869
  0
LINE
  8
0
 10
-6.35263
 20
70.3869
 11
-6.18785
 21
70.2322
  0
LINE
  8
0
 10
-6.18785
 20
70.2322
 11
-6.04376
 21
70.058
  0
LINE
  8
0
 10
-6.04376
 20
70.058
 11
-5.92264
 21
69.8671
  0
LINE
  8
0
 10
-5.92264
 20
69.8671
 11
-5.8264
 21
69.6626
  0
LINE
  8
0
 10
-5.8264
 20
69.6626
 11
-5.75655
 21
69.4476
  0
LINE
  8
0
 10
-5.75655
 20
69.4476
 11
-5.71419
 21
69.2256
  0
LINE
  8
0
 10
-5.71419
 20
69.2256
 11
-5.7
 21
69
  0
LINE
  8
0
 10
-5.7
 20
69
 11
-5.71419
 21
68.7744
  0
LINE
  8
0
 10
-5.71419
 20
68.7744
 11
-5.75655
 21
68.5524
  0
LINE
  8
0
 10
-5.75655
 20
68.5524
 11
-5.8264
 21
68.3374
  0
LINE
  8
0
 10
-5.8264
 20
68.3374
 11
-5.92264
 21
68.1328
  0
LINE
  8
0
 10
-5.92264
 20
68.1328
 11
-6.04376
 21
67.942
  0
LINE
  8
0
 10
-6.04376
 20
67.942
 11
-6.18785
 21
67.7678
  0
LINE
  8
0
 10
-6.18785
 20
67.7678
 11
-6.35263
 21
67.6131
  0
LINE
  8
0
 10
-6.35263
 20
67.6131
 11
-6.53551
 21
67.4802
  0
LINE
  8
0
 10
-6.53551
 20
67.4802
 11
-6.7336
 21
67.3713
  0
LINE
  8
0
 10
-6.7336
 20
67.3713
 11
-6.94376
 21
67.2881
  0
LINE
  8
0
 10
-6.94376
 20
67.2881
 11
-7.1627
 21
67.2319
  0
LINE
  8
0
 10
-7.1627
 20
67.2319
 11
-7.38696
 21
67.2036
  0
LINE
  8
0
 10
-7.38696
 20
67.2036
 11
-7.61302
 21
67.2036
  0
LINE
  8
0
 10
-7.61302
 20
37.2036
 11
-7.83728
 21
37.2319
  0
LINE
  8
0
 10
-7.83728
 20
37.2319
 11
-8.05623
 21
37.2881
  0
LINE
  8
0
 10
-8.05623
 20
37.2881
 11
-8.26639
 21
37.3713
  0
LINE
  8
0
 10
-8.26639
 20
37.3713
 11
-8.46448
 21
37.4802
  0
LINE
  8
0
 10
-8.46448
 20
37.4802
 11
-8.64735
 21
37.6131
  0
LINE
  8
0
 10
-8.64735
 20
37.6131
 11
-8.81213
 21
37.7678
  0
LINE
  8
0
 10
-8.81213
 20
37.7678
 11
-8.95622
 21
37.942
  0
LINE
  8
0
 10
-8.95622
 20
37.942
 11
-9.07735
 21
38.1329
  0
LINE
  8
0
 10
-9.07735
 20
38.1329
 11
-9.17358
 21
38.3374
  0
LINE
  8
0
 10
-9.17358
 20
38.3374
 11
-9.24344
 21
38.5524
  0
LINE
  8
0
 10
-9.24344
 20
38.5524
 11
-9.2858
 21
38.7744
  0
LINE
  8
0
 10
-9.2858
 20
38.7744
 11
-9.29999
 21
39
  0
LINE
  8
0
 10
-9.29999
 20
39
 11
-9.2858
 21
39.2256
  0
LINE
  8
0
 10
-9.2858
 20
39.2256
 11
-9.24344
 21
39.4476
  0
LINE
  8
0
 10
-9.24344
 20
39.4476
 11
-9.17358
 21
39.6626
  0
LINE
  8
0
 10
-9.17358
 20
39.6626
 11
-9.07735
 21
39.8672
  0
LINE
  8
0
 10
-9.07735
 20
39.8672
 11
-8.95622
 21
40.058
  0
LINE
  8
0
 10
-8.95622
 20
40.058
 11
-8.81213
 21
40.2322
  0
LINE
  8
0
 10
-8.81213
 20
40.2322
 11
-8.64735
 21
40.3869
  0
LINE
  8
0
 10
-8.64735
 20
40.3869
 11
-8.46448
 21
40.5198
  0
LINE
  8
0
 10
-8.46448
 20
40.5198
 11
-8.26639
 21
40.6287
  0
LINE
  8
0
 10
-8.26639
 20
40.6287
 11
-8.05623
 21
40.7119
  0
LINE
  8
0
 10
-8.05623
 20
40.7119
 11
-7.83728
 21
40.7681
  0
LINE
  8
0
 10
-7.83728
 20
40.7681
 11
-7.61302
 21
40.7964
  0
LINE
  8
0
 10
-7.61302
 20
40.7964
 11
-7.38696
 21
40.7964
  0
LINE
  8
0
 10
-7.38696
 20
40.7964
 11
-7.1627
 21
40.7681
  0
LINE
  8
0
 10
-7.1627
 20
40.7681
 11
-6.94376
 21
40.7119
  0
LINE
  8
0
 10
-6.94376
 20
40.7119
 11
-6.7336
 21
40.6287
  0
LINE
  8
0
 10
-6.7336
 20
40.6287
 11
-6.53551
 21
40.5198
  0
LINE
  8
0
 10
-6.53551
 20
40.5198
 11
-6.35263
 21
40.3869
  0
LINE
  8
0
 10
-6.35263
 20
40.3869
 11
-6.18785
 21
40.2322
  0
LINE
  8
0
 10
-6.18785
 20
40.2322
 11
-6.04376
 21
40.058
  0
LINE
  8
0
 10
-6.04376
 20
40.058
 11
-5.92264
 21
39.8672
  0
LINE
  8
0
 10
-5.92264
 20
39.8672
 11
-5.8264
 21
39.6626
  0
LINE
  8
0
 10
-5.8264
 20
39.6626
 11
-5.75655
 21
39.4476
  0
LINE
  8
0
 10
-5.75655
 20
39.4476
 11
-5.71419
 21
39.2256
  0
LINE
  8
0
 10
-5.71419
 20
39.2256
 11
-5.7
 21
39
  0
LINE
  8
0
 10
-5.7
 20
39
 11
-5.71419
 21
38.7744
  0
LINE
  8
0
 10
-5.71419
 20
38.7744
 11
-5.75655
 21
38.5524
  0
LINE
  8
0
 10
-5.75655
 20
38.5524
 11
-5.8264
 21
38.3374
  0
LINE
  8
0
 10
-5.8264
 20
38.3374
 11
-5.92264
 21
38.1329
  0
LINE
  8
0
 10
-5.92264
 20
38.1329
 11
-6.04376
 21
37.942
  0
LINE
  8
0
 10
-6.04376
 20
37.942
 11
-6.18785
 21
37.7678
  0
LINE
  8
0
 10
-6.18785
 20
37.7678
 11
-6.35263
 21
37.6131
  0
LINE
  8
0
 10
-6.35263
 20
37.6131
 11
-6.53551
 21
37.4802
  0
LINE
  8
0
 10
-6.53551
 20
37.4802
 11
-6.7336
 21
37.3713
  0
LINE
  8
0
 10
-6.7336
 20
37.3713
 11
-6.94376
 21
37.2881
  0
LINE
  8
0
 10
-6.94376
 20
37.2881
 11
-7.1627
 21
37.2319
  0
LINE
  8
0
 10
-7.1627
 20
37.2319
 11
-7.38696
 21
37.2036
  0
LINE
  8
0
 10
-7.38696
 20
37.2036
 11
-7.61302
 21
37.2036
  0
LINE
  8
0
 10
7.38696
 20
37.2036
 11
7.1627
 21
37.2319
  0
LINE
  8
0
 10
7.1627
 20
37.2319
 11
6.94376
 21
37.2881
  0
LINE
  8
0
 10
6.94376
 20
37.2881
 11
6.7336
 21
37.3713
  0
LINE
  8
0
 10
6.7336
 20
37.3713
 11
6.53551
 21
37.4802
  0
LINE
  8
0
 10
6.53551
 20
37.4802
 11
6.35263
 21
37.6131
  0
LINE
  8
0
 10
6.35263
 20
37.6131
 11
6.18785
 21
37.7678
  0
LINE
  8
0
 10
6.18785
 20
37.7678
 11
6.04376
 21
37.942
  0
LINE
  8
0
 10
6.04376
 20
37.942
 11
5.92264
 21
38.1329
  0
LINE
  8
0
 10
5.92264
 20
38.1329
 11
5.8264
 21
38.3374
  0
LINE
  8
0
 10
5.8264
 20
38.3374
 11
5.75655
 21
38.5524
  0
LINE
  8
0
 10
5.75655
 20
38.5524
 11
5.71419
 21
38.7744
  0
LINE
  8
0
 10
5.71419
 20
38.7744
 11
5.7
 21
39
  0
LINE
  8
0
 10
5.7
 20
39
 11
5.71419
 21
39.2256
  0
LINE
  8
0
 10
5.71419
 20
39.2256
 11
5.75655
 21
39.4476
  0
LINE
  8
0
 10
5.75655
 20
39.4476
 11
5.8264
 21
39.6626
  0
LINE
  8
0
 10
5.8264
 20
39.6626
 11
5.92264
 21
39.8672
  0
LINE
  8
0
 10
5.92264
 20
39.8672
 11
6.04376
 21
40.058
  0
LINE
  8
0
 10
6.04376
 20
40.058
 11
6.18785
 21
40.2322
  0
LINE
  8
0
 10
6.18785
 20
40.2322
 11
6.35263
 21
40.3869
  0
LINE
  8
0
 10
6.35263
 20
40.3869
 11
6.53551
 21
40.5198
  0
LINE
  8
0
 10
6.53551
 20
40.5198
 11
6.7336
 21
40.6287
  0
LINE
  8
0
 10
6.7336
 20
40.6287
 11
6.94376
 21
40.7119
  0
LINE
  8
0
 10
6.94376
 20
40.7119
 11
7.1627
 21
40.7681
  0
LINE
  8
0
 10
7.1627
 20
40.7681
 11
7.38696
 21
40.7964
  0
LINE
  8
0
 10
7.38696
 20
40.7964
 11
7.61302
 21
40.7964
  0
LINE
  8
0
 10
7.61302
 20
40.7964
 11
7.83728
 21
40.7681
  0
LINE
  8
0
 10
7.83728
 20
40.7681
 11
8.05623
 21
40.7119
  0
LINE
  8
0
 10
8.05623
 20
40.7119
 11
8.26639
 21
40.6287
  0
LINE
  8
0
 10
8.26639
 20
40.6287
 11
8.46448
 21
40.5198
  0
LINE
  8
0
 10
8.46448
 20
40.5198
 11
8.64735
 21
40.3869
  0
LINE
  8
0
 10
8.64735
 20
40.3869
 11
8.81213
 21
40.2322
  0
LINE
  8
0
 10
8.81213
 20
40.2322
 11
8.95622
 21
40.058
  0
LINE
  8
0
 10
8.95622
 20
40.058
 11
9.07735
 21
39.8672
  0
LINE
  8
0
 10
9.07735
 20
39.8672
 11
9.17358
 21
39.6626
  0
LINE
  8
0
 10
9.17358
 20
39.6626
 11
9.24344
 21
39.4476
  0
LINE
  8
0
 10
9.24344
 20
39.4476
 11
9.2858
 21
39.2256
  0
LINE
  8
0
 10
9.2858
 20
39.2256
 11
9.29999
 21
39
  0
LINE
  8
0
 10
9.29999
 20
39
 11
9.2858
 21
38.7744
  0
LINE
  8
0
 10
9.2858
 20
38.7744
 11
9.24344
 21
38.5524
  0
LINE
  8
0
 10
9.24344
 20
38.5524
 11
9.17358
 21
38.3374
  0
LINE
  8
0
 10
9.17358
 20
38.3374
 11
9.07735
 21
38.1329
  0
LINE
  8
0
 10
9.07735
 20
38.1329
 11
8.95622
 21
37.942
  0
LINE
  8
0
 10
8.95622
 20
37.942
 11
8.81213
 21
37.7678
  0
LINE
  8
0
 10
8.81213
 20
37.7678
 11
8.64735
 21
37.6131
  0
LINE
  8
0
 10
8.64735
 20
37.6131
 11
8.46448
 21
37.4802
  0
LINE
  8
0
 10
8.46448
 20
37.4802
 11
8.26639
 21
37.3713
  0
LINE
  8
0
 10
8.26639
 20
37.3713
 11
8.05623
 21
37.2881
  0
LINE
  8
0
 10
8.05623
 20
37.2881
 11
7.83728
 21
37.2319
  0
LINE
  8
0
 10
7.83728
 20
37.2319
 11
7.61302
 21
37.2036
  0
LINE
  8
0
 10
7.61302
 20
37.2036
 11
7.38696
 21
37.2036
  0
ENDSEC
  0
SECTION
  2
OBJECTS
  0
DICTIONARY
  0
ENDSEC
  0
EOF
