  0
SECTION
  2
BLOCKS
  0
ENDSEC
  0
SECTION
  2
ENTITIES
  0
LINE
  8
0
 10
3.4369
 20
508.589
 11
4.04507
 21
508.745
  0
LINE
  8
0
 10
4.04507
 20
508.745
 11
4.62889
 21
508.976
  0
LINE
  8
0
 10
4.62889
 20
508.976
 11
5.17912
 21
509.278
  0
LINE
  8
0
 10
5.17912
 20
509.278
 11
5.68712
 21
509.647
  0
LINE
  8
0
 10
5.68712
 20
509.647
 11
6.14484
 21
510.077
  0
LINE
  8
0
 10
6.14484
 20
510.077
 11
6.54507
 21
510.561
  0
LINE
  8
0
 10
6.54507
 20
510.561
 11
6.88153
 21
511.091
  0
LINE
  8
0
 10
6.88153
 20
511.091
 11
7.14888
 21
511.659
  0
LINE
  8
0
 10
7.14888
 20
511.659
 11
7.34291
 21
512.257
  0
LINE
  8
0
 10
7.34291
 20
512.257
 11
7.46057
 21
512.873
  0
LINE
  8
0
 10
7.46057
 20
512.873
 11
7.5
 21
513.5
  0
LINE
  8
0
 10
7.5
 20
513.5
 11
7.5
 21
638.5
  0
LINE
  8
0
 10
7.5
 20
638.5
 11
7.46057
 21
639.127
  0
LINE
  8
0
 10
7.46057
 20
639.127
 11
7.34291
 21
639.743
  0
LINE
  8
0
 10
7.34291
 20
639.743
 11
7.14888
 21
640.341
  0
LINE
  8
0
 10
7.14888
 20
640.341
 11
6.88153
 21
640.909
  0
LINE
  8
0
 10
6.88153
 20
640.909
 11
6.54507
 21
641.439
  0
LINE
  8
0
 10
6.54507
 20
641.439
 11
6.14484
 21
641.923
  0
LINE
  8
0
 10
6.14484
 20
641.923
 11
5.68712
 21
642.353
  0
LINE
  8
0
 10
5.68712
 20
642.353
 11
5.17912
 21
642.722
  0
LINE
  8
0
 10
5.17912
 20
642.722
 11
4.62889
 21
643.024
  0
LINE
  8
0
 10
4.62889
 20
643.024
 11
4.04507
 21
643.255
  0
LINE
  8
0
 10
4.04507
 20
643.255
 11
3.4369
 21
643.411
  0
LINE
  8
0
 10
3.4369
 20
643.411
 11
2.81395
 21
643.49
  0
LINE
  8
0
 10
2.81395
 20
643.49
 11
-2.81395
 21
643.49
  0
LINE
  8
0
 10
-2.81395
 20
643.49
 11
-3.4369
 21
643.411
  0
LINE
  8
0
 10
-3.4369
 20
643.411
 11
-4.04507
 21
643.255
  0
LINE
  8
0
 10
-4.04507
 20
643.255
 11
-4.62889
 21
643.024
  0
LINE
  8
0
 10
-4.62889
 20
643.024
 11
-5.17912
 21
642.722
  0
LINE
  8
0
 10
-5.17912
 20
642.722
 11
-5.68712
 21
642.353
  0
LINE
  8
0
 10
-5.68712
 20
642.353
 11
-6.14484
 21
641.923
  0
LINE
  8
0
 10
-6.14484
 20
641.923
 11
-6.54507
 21
641.439
  0
LINE
  8
0
 10
-6.54507
 20
641.439
 11
-6.88153
 21
640.909
  0
LINE
  8
0
 10
-6.88153
 20
640.909
 11
-7.14888
 21
640.341
  0
LINE
  8
0
 10
-7.14888
 20
640.341
 11
-7.34291
 21
639.743
  0
LINE
  8
0
 10
-7.34291
 20
639.743
 11
-7.46057
 21
639.127
  0
LINE
  8
0
 10
-7.46057
 20
639.127
 11
-7.5
 21
638.5
  0
LINE
  8
0
 10
-7.5
 20
638.5
 11
-7.5
 21
513.5
  0
LINE
  8
0
 10
-7.5
 20
513.5
 11
-7.46057
 21
512.873
  0
LINE
  8
0
 10
-7.46057
 20
512.873
 11
-7.34291
 21
512.257
  0
LINE
  8
0
 10
-7.34291
 20
512.257
 11
-7.14888
 21
511.659
  0
LINE
  8
0
 10
-7.14888
 20
511.659
 11
-6.88153
 21
511.091
  0
LINE
  8
0
 10
-6.88153
 20
511.091
 11
-6.54507
 21
510.561
  0
LINE
  8
0
 10
-6.54507
 20
510.561
 11
-6.14484
 21
510.077
  0
LINE
  8
0
 10
-6.14484
 20
510.077
 11
-5.68712
 21
509.647
  0
LINE
  8
0
 10
-5.68712
 20
509.647
 11
-5.17912
 21
509.278
  0
LINE
  8
0
 10
-5.17912
 20
509.278
 11
-4.62889
 21
508.976
  0
LINE
  8
0
 10
-4.62889
 20
508.976
 11
-4.04507
 21
508.745
  0
LINE
  8
0
 10
-4.04507
 20
508.745
 11
-3.4369
 21
508.589
  0
LINE
  8
0
 10
-3.4369
 20
508.589
 11
-2.81395
 21
508.51
  0
LINE
  8
0
 10
-2.81395
 20
508.51
 11
2.81395
 21
508.51
  0
LINE
  8
0
 10
2.81395
 20
508.51
 11
3.4369
 21
508.589
  0
LINE
  8
0
 10
-2.24316
 20
510.135
 11
-2.72565
 21
510.196
  0
LINE
  8
0
 10
-2.72565
 20
510.196
 11
-3.1967
 21
510.317
  0
LINE
  8
0
 10
-3.1967
 20
510.317
 11
-3.64888
 21
510.496
  0
LINE
  8
0
 10
-3.64888
 20
510.496
 11
-4.07506
 21
510.73
  0
LINE
  8
0
 10
-4.07506
 20
510.73
 11
-4.46851
 21
511.016
  0
LINE
  8
0
 10
-4.46851
 20
511.016
 11
-4.82301
 21
511.349
  0
LINE
  8
0
 10
-4.82301
 20
511.349
 11
-5.13301
 21
511.724
  0
LINE
  8
0
 10
-5.13301
 20
511.724
 11
-5.3936
 21
512.134
  0
LINE
  8
0
 10
-5.3936
 20
512.134
 11
-5.60068
 21
512.574
  0
LINE
  8
0
 10
-5.60068
 20
512.574
 11
-5.75096
 21
513.037
  0
LINE
  8
0
 10
-5.75096
 20
513.037
 11
-5.84209
 21
513.515
  0
LINE
  8
0
 10
-5.84209
 20
513.515
 11
-5.87262
 21
514
  0
LINE
  8
0
 10
-5.87262
 20
514
 11
-5.87262
 21
638
  0
LINE
  8
0
 10
-5.87262
 20
638
 11
-5.84209
 21
638.485
  0
LINE
  8
0
 10
-5.84209
 20
638.485
 11
-5.75096
 21
638.963
  0
LINE
  8
0
 10
-5.75096
 20
638.963
 11
-5.60068
 21
639.426
  0
LINE
  8
0
 10
-5.60068
 20
639.426
 11
-5.3936
 21
639.866
  0
LINE
  8
0
 10
-5.3936
 20
639.866
 11
-5.13301
 21
640.276
  0
LINE
  8
0
 10
-5.13301
 20
640.276
 11
-4.82301
 21
640.651
  0
LINE
  8
0
 10
-4.82301
 20
640.651
 11
-4.46851
 21
640.984
  0
LINE
  8
0
 10
-4.46851
 20
640.984
 11
-4.07506
 21
641.27
  0
LINE
  8
0
 10
-4.07506
 20
641.27
 11
-3.64888
 21
641.504
  0
LINE
  8
0
 10
-3.64888
 20
641.504
 11
-3.1967
 21
641.683
  0
LINE
  8
0
 10
-3.1967
 20
641.683
 11
-2.72565
 21
641.804
  0
LINE
  8
0
 10
-2.72565
 20
641.804
 11
-2.24316
 21
641.865
  0
LINE
  8
0
 10
-2.24316
 20
641.865
 11
2.24316
 21
641.865
  0
LINE
  8
0
 10
2.24316
 20
641.865
 11
2.72565
 21
641.804
  0
LINE
  8
0
 10
2.72565
 20
641.804
 11
3.1967
 21
641.683
  0
LINE
  8
0
 10
3.1967
 20
641.683
 11
3.64888
 21
641.504
  0
LINE
  8
0
 10
3.64888
 20
641.504
 11
4.07506
 21
641.27
  0
LINE
  8
0
 10
4.07506
 20
641.27
 11
4.46851
 21
640.984
  0
LINE
  8
0
 10
4.46851
 20
640.984
 11
4.82301
 21
640.651
  0
LINE
  8
0
 10
4.82301
 20
640.651
 11
5.13301
 21
640.276
  0
LINE
  8
0
 10
5.13301
 20
640.276
 11
5.3936
 21
639.866
  0
LINE
  8
0
 10
5.3936
 20
639.866
 11
5.60068
 21
639.426
  0
LINE
  8
0
 10
5.60068
 20
639.426
 11
5.75096
 21
638.963
  0
LINE
  8
0
 10
5.75096
 20
638.963
 11
5.84209
 21
638.485
  0
LINE
  8
0
 10
5.84209
 20
638.485
 11
5.87262
 21
638
  0
LINE
  8
0
 10
5.87262
 20
638
 11
5.87262
 21
514
  0
LINE
  8
0
 10
5.87262
 20
514
 11
5.84209
 21
513.515
  0
LINE
  8
0
 10
5.84209
 20
513.515
 11
5.75096
 21
513.037
  0
LINE
  8
0
 10
5.75096
 20
513.037
 11
5.60068
 21
512.574
  0
LINE
  8
0
 10
5.60068
 20
512.574
 11
5.3936
 21
512.134
  0
LINE
  8
0
 10
5.3936
 20
512.134
 11
5.13301
 21
511.724
  0
LINE
  8
0
 10
5.13301
 20
511.724
 11
4.82301
 21
511.349
  0
LINE
  8
0
 10
4.82301
 20
511.349
 11
4.46851
 21
511.016
  0
LINE
  8
0
 10
4.46851
 20
511.016
 11
4.07506
 21
510.73
  0
LINE
  8
0
 10
4.07506
 20
510.73
 11
3.64888
 21
510.496
  0
LINE
  8
0
 10
3.64888
 20
510.496
 11
3.1967
 21
510.317
  0
LINE
  8
0
 10
3.1967
 20
510.317
 11
2.72565
 21
510.196
  0
LINE
  8
0
 10
2.72565
 20
510.196
 11
2.24316
 21
510.135
  0
LINE
  8
0
 10
2.24316
 20
510.135
 11
-2.24316
 21
510.135
  0
LINE
  8
0
 10
3.4369
 20
364.589
 11
4.04507
 21
364.745
  0
LINE
  8
0
 10
4.04507
 20
364.745
 11
4.62889
 21
364.976
  0
LINE
  8
0
 10
4.62889
 20
364.976
 11
5.17912
 21
365.278
  0
LINE
  8
0
 10
5.17912
 20
365.278
 11
5.68712
 21
365.647
  0
LINE
  8
0
 10
5.68712
 20
365.647
 11
6.14484
 21
366.077
  0
LINE
  8
0
 10
6.14484
 20
366.077
 11
6.54507
 21
366.561
  0
LINE
  8
0
 10
6.54507
 20
366.561
 11
6.88153
 21
367.091
  0
LINE
  8
0
 10
6.88153
 20
367.091
 11
7.14888
 21
367.659
  0
LINE
  8
0
 10
7.14888
 20
367.659
 11
7.34291
 21
368.257
  0
LINE
  8
0
 10
7.34291
 20
368.257
 11
7.46057
 21
368.873
  0
LINE
  8
0
 10
7.46057
 20
368.873
 11
7.5
 21
369.5
  0
LINE
  8
0
 10
7.5
 20
369.5
 11
7.5
 21
494.5
  0
LINE
  8
0
 10
7.5
 20
494.5
 11
7.46057
 21
495.127
  0
LINE
  8
0
 10
7.46057
 20
495.127
 11
7.34291
 21
495.743
  0
LINE
  8
0
 10
7.34291
 20
495.743
 11
7.14888
 21
496.341
  0
LINE
  8
0
 10
7.14888
 20
496.341
 11
6.88153
 21
496.909
  0
LINE
  8
0
 10
6.88153
 20
496.909
 11
6.54507
 21
497.439
  0
LINE
  8
0
 10
6.54507
 20
497.439
 11
6.14484
 21
497.923
  0
LINE
  8
0
 10
6.14484
 20
497.923
 11
5.68712
 21
498.353
  0
LINE
  8
0
 10
5.68712
 20
498.353
 11
5.17912
 21
498.722
  0
LINE
  8
0
 10
5.17912
 20
498.722
 11
4.62889
 21
499.024
  0
LINE
  8
0
 10
4.62889
 20
499.024
 11
4.04507
 21
499.255
  0
LINE
  8
0
 10
4.04507
 20
499.255
 11
3.4369
 21
499.411
  0
LINE
  8
0
 10
3.4369
 20
499.411
 11
2.81395
 21
499.49
  0
LINE
  8
0
 10
2.81395
 20
499.49
 11
-2.81395
 21
499.49
  0
LINE
  8
0
 10
-2.81395
 20
499.49
 11
-3.4369
 21
499.411
  0
LINE
  8
0
 10
-3.4369
 20
499.411
 11
-4.04507
 21
499.255
  0
LINE
  8
0
 10
-4.04507
 20
499.255
 11
-4.62889
 21
499.024
  0
LINE
  8
0
 10
-4.62889
 20
499.024
 11
-5.17912
 21
498.722
  0
LINE
  8
0
 10
-5.17912
 20
498.722
 11
-5.68712
 21
498.353
  0
LINE
  8
0
 10
-5.68712
 20
498.353
 11
-6.14484
 21
497.923
  0
LINE
  8
0
 10
-6.14484
 20
497.923
 11
-6.54507
 21
497.439
  0
LINE
  8
0
 10
-6.54507
 20
497.439
 11
-6.88153
 21
496.909
  0
LINE
  8
0
 10
-6.88153
 20
496.909
 11
-7.14888
 21
496.341
  0
LINE
  8
0
 10
-7.14888
 20
496.341
 11
-7.34291
 21
495.743
  0
LINE
  8
0
 10
-7.34291
 20
495.743
 11
-7.46057
 21
495.127
  0
LINE
  8
0
 10
-7.46057
 20
495.127
 11
-7.5
 21
494.5
  0
LINE
  8
0
 10
-7.5
 20
494.5
 11
-7.5
 21
369.5
  0
LINE
  8
0
 10
-7.5
 20
369.5
 11
-7.46057
 21
368.873
  0
LINE
  8
0
 10
-7.46057
 20
368.873
 11
-7.34291
 21
368.257
  0
LINE
  8
0
 10
-7.34291
 20
368.257
 11
-7.14888
 21
367.659
  0
LINE
  8
0
 10
-7.14888
 20
367.659
 11
-6.88153
 21
367.091
  0
LINE
  8
0
 10
-6.88153
 20
367.091
 11
-6.54507
 21
366.561
  0
LINE
  8
0
 10
-6.54507
 20
366.561
 11
-6.14484
 21
366.077
  0
LINE
  8
0
 10
-6.14484
 20
366.077
 11
-5.68712
 21
365.647
  0
LINE
  8
0
 10
-5.68712
 20
365.647
 11
-5.17912
 21
365.278
  0
LINE
  8
0
 10
-5.17912
 20
365.278
 11
-4.62889
 21
364.976
  0
LINE
  8
0
 10
-4.62889
 20
364.976
 11
-4.04507
 21
364.745
  0
LINE
  8
0
 10
-4.04507
 20
364.745
 11
-3.4369
 21
364.589
  0
LINE
  8
0
 10
-3.4369
 20
364.589
 11
-2.81395
 21
364.51
  0
LINE
  8
0
 10
-2.81395
 20
364.51
 11
2.81395
 21
364.51
  0
LINE
  8
0
 10
2.81395
 20
364.51
 11
3.4369
 21
364.589
  0
LINE
  8
0
 10
3.4369
 20
220.589
 11
4.04507
 21
220.745
  0
LINE
  8
0
 10
4.04507
 20
220.745
 11
4.62889
 21
220.976
  0
LINE
  8
0
 10
4.62889
 20
220.976
 11
5.17912
 21
221.278
  0
LINE
  8
0
 10
5.17912
 20
221.278
 11
5.68712
 21
221.647
  0
LINE
  8
0
 10
5.68712
 20
221.647
 11
6.14484
 21
222.077
  0
LINE
  8
0
 10
6.14484
 20
222.077
 11
6.54507
 21
222.561
  0
LINE
  8
0
 10
6.54507
 20
222.561
 11
6.88153
 21
223.091
  0
LINE
  8
0
 10
6.88153
 20
223.091
 11
7.14888
 21
223.659
  0
LINE
  8
0
 10
7.14888
 20
223.659
 11
7.34291
 21
224.257
  0
LINE
  8
0
 10
7.34291
 20
224.257
 11
7.46057
 21
224.873
  0
LINE
  8
0
 10
7.46057
 20
224.873
 11
7.5
 21
225.5
  0
LINE
  8
0
 10
7.5
 20
225.5
 11
7.5
 21
350.5
  0
LINE
  8
0
 10
7.5
 20
350.5
 11
7.46057
 21
351.127
  0
LINE
  8
0
 10
7.46057
 20
351.127
 11
7.34291
 21
351.743
  0
LINE
  8
0
 10
7.34291
 20
351.743
 11
7.14888
 21
352.341
  0
LINE
  8
0
 10
7.14888
 20
352.341
 11
6.88153
 21
352.909
  0
LINE
  8
0
 10
6.88153
 20
352.909
 11
6.54507
 21
353.439
  0
LINE
  8
0
 10
6.54507
 20
353.439
 11
6.14484
 21
353.923
  0
LINE
  8
0
 10
6.14484
 20
353.923
 11
5.68712
 21
354.353
  0
LINE
  8
0
 10
5.68712
 20
354.353
 11
5.17912
 21
354.722
  0
LINE
  8
0
 10
5.17912
 20
354.722
 11
4.62889
 21
355.024
  0
LINE
  8
0
 10
4.62889
 20
355.024
 11
4.04507
 21
355.255
  0
LINE
  8
0
 10
4.04507
 20
355.255
 11
3.4369
 21
355.411
  0
LINE
  8
0
 10
3.4369
 20
355.411
 11
2.81395
 21
355.49
  0
LINE
  8
0
 10
2.81395
 20
355.49
 11
-2.81395
 21
355.49
  0
LINE
  8
0
 10
-2.81395
 20
355.49
 11
-3.4369
 21
355.411
  0
LINE
  8
0
 10
-3.4369
 20
355.411
 11
-4.04507
 21
355.255
  0
LINE
  8
0
 10
-4.04507
 20
355.255
 11
-4.62889
 21
355.024
  0
LINE
  8
0
 10
-4.62889
 20
355.024
 11
-5.17912
 21
354.722
  0
LINE
  8
0
 10
-5.17912
 20
354.722
 11
-5.68712
 21
354.353
  0
LINE
  8
0
 10
-5.68712
 20
354.353
 11
-6.14484
 21
353.923
  0
LINE
  8
0
 10
-6.14484
 20
353.923
 11
-6.54507
 21
353.439
  0
LINE
  8
0
 10
-6.54507
 20
353.439
 11
-6.88153
 21
352.909
  0
LINE
  8
0
 10
-6.88153
 20
352.909
 11
-7.14888
 21
352.341
  0
LINE
  8
0
 10
-7.14888
 20
352.341
 11
-7.34291
 21
351.743
  0
LINE
  8
0
 10
-7.34291
 20
351.743
 11
-7.46057
 21
351.127
  0
LINE
  8
0
 10
-7.46057
 20
351.127
 11
-7.5
 21
350.5
  0
LINE
  8
0
 10
-7.5
 20
350.5
 11
-7.5
 21
225.5
  0
LINE
  8
0
 10
-7.5
 20
225.5
 11
-7.46057
 21
224.873
  0
LINE
  8
0
 10
-7.46057
 20
224.873
 11
-7.34291
 21
224.257
  0
LINE
  8
0
 10
-7.34291
 20
224.257
 11
-7.14888
 21
223.659
  0
LINE
  8
0
 10
-7.14888
 20
223.659
 11
-6.88153
 21
223.091
  0
LINE
  8
0
 10
-6.88153
 20
223.091
 11
-6.54507
 21
222.561
  0
LINE
  8
0
 10
-6.54507
 20
222.561
 11
-6.14484
 21
222.077
  0
LINE
  8
0
 10
-6.14484
 20
222.077
 11
-5.68712
 21
221.647
  0
LINE
  8
0
 10
-5.68712
 20
221.647
 11
-5.17912
 21
221.278
  0
LINE
  8
0
 10
-5.17912
 20
221.278
 11
-4.62889
 21
220.976
  0
LINE
  8
0
 10
-4.62889
 20
220.976
 11
-4.04507
 21
220.745
  0
LINE
  8
0
 10
-4.04507
 20
220.745
 11
-3.4369
 21
220.589
  0
LINE
  8
0
 10
-3.4369
 20
220.589
 11
-2.81395
 21
220.51
  0
LINE
  8
0
 10
-2.81395
 20
220.51
 11
2.81395
 21
220.51
  0
LINE
  8
0
 10
2.81395
 20
220.51
 11
3.4369
 21
220.589
  0
LINE
  8
0
 10
-0.113022
 20
346.204
 11
-0.33728
 21
346.232
  0
LINE
  8
0
 10
-0.33728
 20
346.232
 11
-0.556229
 21
346.288
  0
LINE
  8
0
 10
-0.556229
 20
346.288
 11
-0.766388
 21
346.371
  0
LINE
  8
0
 10
-0.766388
 20
346.371
 11
-0.964478
 21
346.48
  0
LINE
  8
0
 10
-0.964478
 20
346.48
 11
-1.14735
 21
346.613
  0
LINE
  8
0
 10
-1.14735
 20
346.613
 11
-1.31213
 21
346.768
  0
LINE
  8
0
 10
-1.31213
 20
346.768
 11
-1.45622
 21
346.942
  0
LINE
  8
0
 10
-1.45622
 20
346.942
 11
-1.57735
 21
347.133
  0
LINE
  8
0
 10
-1.57735
 20
347.133
 11
-1.67358
 21
347.337
  0
LINE
  8
0
 10
-1.67358
 20
347.337
 11
-1.74344
 21
347.552
  0
LINE
  8
0
 10
-1.74344
 20
347.552
 11
-1.7858
 21
347.774
  0
LINE
  8
0
 10
-1.7858
 20
347.774
 11
-1.79999
 21
348
  0
LINE
  8
0
 10
-1.79999
 20
348
 11
-1.7858
 21
348.226
  0
LINE
  8
0
 10
-1.7858
 20
348.226
 11
-1.74344
 21
348.448
  0
LINE
  8
0
 10
-1.74344
 20
348.448
 11
-1.67358
 21
348.663
  0
LINE
  8
0
 10
-1.67358
 20
348.663
 11
-1.57735
 21
348.867
  0
LINE
  8
0
 10
-1.57735
 20
348.867
 11
-1.45622
 21
349.058
  0
LINE
  8
0
 10
-1.45622
 20
349.058
 11
-1.31213
 21
349.232
  0
LINE
  8
0
 10
-1.31213
 20
349.232
 11
-1.14735
 21
349.387
  0
LINE
  8
0
 10
-1.14735
 20
349.387
 11
-0.964478
 21
349.52
  0
LINE
  8
0
 10
-0.964478
 20
349.52
 11
-0.766388
 21
349.629
  0
LINE
  8
0
 10
-0.766388
 20
349.629
 11
-0.556229
 21
349.712
  0
LINE
  8
0
 10
-0.556229
 20
349.712
 11
-0.33728
 21
349.768
  0
LINE
  8
0
 10
-0.33728
 20
349.768
 11
-0.113022
 21
349.796
  0
LINE
  8
0
 10
-0.113022
 20
349.796
 11
0.113022
 21
349.796
  0
LINE
  8
0
 10
0.113022
 20
349.796
 11
0.33728
 21
349.768
  0
LINE
  8
0
 10
0.33728
 20
349.768
 11
0.556229
 21
349.712
  0
LINE
  8
0
 10
0.556229
 20
349.712
 11
0.766388
 21
349.629
  0
LINE
  8
0
 10
0.766388
 20
349.629
 11
0.964478
 21
349.52
  0
LINE
  8
0
 10
0.964478
 20
349.52
 11
1.14735
 21
349.387
  0
LINE
  8
0
 10
1.14735
 20
349.387
 11
1.31213
 21
349.232
  0
LINE
  8
0
 10
1.31213
 20
349.232
 11
1.45622
 21
349.058
  0
LINE
  8
0
 10
1.45622
 20
349.058
 11
1.57735
 21
348.867
  0
LINE
  8
0
 10
1.57735
 20
348.867
 11
1.67358
 21
348.663
  0
LINE
  8
0
 10
1.67358
 20
348.663
 11
1.74344
 21
348.448
  0
LINE
  8
0
 10
1.74344
 20
348.448
 11
1.7858
 21
348.226
  0
LINE
  8
0
 10
1.7858
 20
348.226
 11
1.79999
 21
348
  0
LINE
  8
0
 10
1.79999
 20
348
 11
1.7858
 21
347.774
  0
LINE
  8
0
 10
1.7858
 20
347.774
 11
1.74344
 21
347.552
  0
LINE
  8
0
 10
1.74344
 20
347.552
 11
1.67358
 21
347.337
  0
LINE
  8
0
 10
1.67358
 20
347.337
 11
1.57735
 21
347.133
  0
LINE
  8
0
 10
1.57735
 20
347.133
 11
1.45622
 21
346.942
  0
LINE
  8
0
 10
1.45622
 20
346.942
 11
1.31213
 21
346.768
  0
LINE
  8
0
 10
1.31213
 20
346.768
 11
1.14735
 21
346.613
  0
LINE
  8
0
 10
1.14735
 20
346.613
 11
0.964478
 21
346.48
  0
LINE
  8
0
 10
0.964478
 20
346.48
 11
0.766388
 21
346.371
  0
LINE
  8
0
 10
0.766388
 20
346.371
 11
0.556229
 21
346.288
  0
LINE
  8
0
 10
0.556229
 20
346.288
 11
0.33728
 21
346.232
  0
LINE
  8
0
 10
0.33728
 20
346.232
 11
0.113022
 21
346.204
  0
LINE
  8
0
 10
0.113022
 20
346.204
 11
-0.113022
 21
346.204
  0
LINE
  8
0
 10
-0.113022
 20
226.204
 11
-0.33728
 21
226.232
  0
LINE
  8
0
 10
-0.33728
 20
226.232
 11
-0.556229
 21
226.288
  0
LINE
  8
0
 10
-0.556229
 20
226.288
 11
-0.766388
 21
226.371
  0
LINE
  8
0
 10
-0.766388
 20
226.371
 11
-0.964478
 21
226.48
  0
LINE
  8
0
 10
-0.964478
 20
226.48
 11
-1.14735
 21
226.613
  0
LINE
  8
0
 10
-1.14735
 20
226.613
 11
-1.31213
 21
226.768
  0
LINE
  8
0
 10
-1.31213
 20
226.768
 11
-1.45622
 21
226.942
  0
LINE
  8
0
 10
-1.45622
 20
226.942
 11
-1.57735
 21
227.133
  0
LINE
  8
0
 10
-1.57735
 20
227.133
 11
-1.67358
 21
227.337
  0
LINE
  8
0
 10
-1.67358
 20
227.337
 11
-1.74344
 21
227.552
  0
LINE
  8
0
 10
-1.74344
 20
227.552
 11
-1.7858
 21
227.774
  0
LINE
  8
0
 10
-1.7858
 20
227.774
 11
-1.79999
 21
228
  0
LINE
  8
0
 10
-1.79999
 20
228
 11
-1.7858
 21
228.226
  0
LINE
  8
0
 10
-1.7858
 20
228.226
 11
-1.74344
 21
228.448
  0
LINE
  8
0
 10
-1.74344
 20
228.448
 11
-1.67358
 21
228.663
  0
LINE
  8
0
 10
-1.67358
 20
228.663
 11
-1.57735
 21
228.867
  0
LINE
  8
0
 10
-1.57735
 20
228.867
 11
-1.45622
 21
229.058
  0
LINE
  8
0
 10
-1.45622
 20
229.058
 11
-1.31213
 21
229.232
  0
LINE
  8
0
 10
-1.31213
 20
229.232
 11
-1.14735
 21
229.387
  0
LINE
  8
0
 10
-1.14735
 20
229.387
 11
-0.964478
 21
229.52
  0
LINE
  8
0
 10
-0.964478
 20
229.52
 11
-0.766388
 21
229.629
  0
LINE
  8
0
 10
-0.766388
 20
229.629
 11
-0.556229
 21
229.712
  0
LINE
  8
0
 10
-0.556229
 20
229.712
 11
-0.33728
 21
229.768
  0
LINE
  8
0
 10
-0.33728
 20
229.768
 11
-0.113022
 21
229.796
  0
LINE
  8
0
 10
-0.113022
 20
229.796
 11
0.113022
 21
229.796
  0
LINE
  8
0
 10
0.113022
 20
229.796
 11
0.33728
 21
229.768
  0
LINE
  8
0
 10
0.33728
 20
229.768
 11
0.556229
 21
229.712
  0
LINE
  8
0
 10
0.556229
 20
229.712
 11
0.766388
 21
229.629
  0
LINE
  8
0
 10
0.766388
 20
229.629
 11
0.964478
 21
229.52
  0
LINE
  8
0
 10
0.964478
 20
229.52
 11
1.14735
 21
229.387
  0
LINE
  8
0
 10
1.14735
 20
229.387
 11
1.31213
 21
229.232
  0
LINE
  8
0
 10
1.31213
 20
229.232
 11
1.45622
 21
229.058
  0
LINE
  8
0
 10
1.45622
 20
229.058
 11
1.57735
 21
228.867
  0
LINE
  8
0
 10
1.57735
 20
228.867
 11
1.67358
 21
228.663
  0
LINE
  8
0
 10
1.67358
 20
228.663
 11
1.74344
 21
228.448
  0
LINE
  8
0
 10
1.74344
 20
228.448
 11
1.7858
 21
228.226
  0
LINE
  8
0
 10
1.7858
 20
228.226
 11
1.79999
 21
228
  0
LINE
  8
0
 10
1.79999
 20
228
 11
1.7858
 21
227.774
  0
LINE
  8
0
 10
1.7858
 20
227.774
 11
1.74344
 21
227.552
  0
LINE
  8
0
 10
1.74344
 20
227.552
 11
1.67358
 21
227.337
  0
LINE
  8
0
 10
1.67358
 20
227.337
 11
1.57735
 21
227.133
  0
LINE
  8
0
 10
1.57735
 20
227.133
 11
1.45622
 21
226.942
  0
LINE
  8
0
 10
1.45622
 20
226.942
 11
1.31213
 21
226.768
  0
LINE
  8
0
 10
1.31213
 20
226.768
 11
1.14735
 21
226.613
  0
LINE
  8
0
 10
1.14735
 20
226.613
 11
0.964478
 21
226.48
  0
LINE
  8
0
 10
0.964478
 20
226.48
 11
0.766388
 21
226.371
  0
LINE
  8
0
 10
0.766388
 20
226.371
 11
0.556229
 21
226.288
  0
LINE
  8
0
 10
0.556229
 20
226.288
 11
0.33728
 21
226.232
  0
LINE
  8
0
 10
0.33728
 20
226.232
 11
0.113022
 21
226.204
  0
LINE
  8
0
 10
0.113022
 20
226.204
 11
-0.113022
 21
226.204
  0
ENDSEC
  0
SECTION
  2
OBJECTS
  0
DICTIONARY
  0
ENDSEC
  0
EOF
