  0
SECTION
  2
BLOCKS
  0
ENDSEC
  0
SECTION
  2
ENTITIES
  0
LINE
  8
0
 10
10.9369
 20
561.089
 11
11.5451
 21
561.245
  0
LINE
  8
0
 10
11.5451
 20
561.245
 11
12.1289
 21
561.476
  0
LINE
  8
0
 10
12.1289
 20
561.476
 11
12.6791
 21
561.778
  0
LINE
  8
0
 10
12.6791
 20
561.778
 11
13.1871
 21
562.147
  0
LINE
  8
0
 10
13.1871
 20
562.147
 11
13.6448
 21
562.577
  0
LINE
  8
0
 10
13.6448
 20
562.577
 11
14.0451
 21
563.061
  0
LINE
  8
0
 10
14.0451
 20
563.061
 11
14.3815
 21
563.591
  0
LINE
  8
0
 10
14.3815
 20
563.591
 11
14.6489
 21
564.159
  0
LINE
  8
0
 10
14.6489
 20
564.159
 11
14.8429
 21
564.757
  0
LINE
  8
0
 10
14.8429
 20
564.757
 11
14.9606
 21
565.373
  0
LINE
  8
0
 10
14.9606
 20
565.373
 11
15
 21
566
  0
LINE
  8
0
 10
15
 20
566
 11
15
 21
706
  0
LINE
  8
0
 10
15
 20
706
 11
14.9606
 21
706.627
  0
LINE
  8
0
 10
14.9606
 20
706.627
 11
14.8429
 21
707.243
  0
LINE
  8
0
 10
14.8429
 20
707.243
 11
14.6489
 21
707.841
  0
LINE
  8
0
 10
14.6489
 20
707.841
 11
14.3815
 21
708.409
  0
LINE
  8
0
 10
14.3815
 20
708.409
 11
14.0451
 21
708.939
  0
LINE
  8
0
 10
14.0451
 20
708.939
 11
13.6448
 21
709.423
  0
LINE
  8
0
 10
13.6448
 20
709.423
 11
13.1871
 21
709.853
  0
LINE
  8
0
 10
13.1871
 20
709.853
 11
12.6791
 21
710.222
  0
LINE
  8
0
 10
12.6791
 20
710.222
 11
12.1289
 21
710.524
  0
LINE
  8
0
 10
12.1289
 20
710.524
 11
11.5451
 21
710.755
  0
LINE
  8
0
 10
11.5451
 20
710.755
 11
10.9369
 21
710.911
  0
LINE
  8
0
 10
10.9369
 20
710.911
 11
10.3139
 21
710.99
  0
LINE
  8
0
 10
10.3139
 20
710.99
 11
-10.3139
 21
710.99
  0
LINE
  8
0
 10
-10.3139
 20
710.99
 11
-10.9369
 21
710.911
  0
LINE
  8
0
 10
-10.9369
 20
710.911
 11
-11.5451
 21
710.755
  0
LINE
  8
0
 10
-11.5451
 20
710.755
 11
-12.1289
 21
710.524
  0
LINE
  8
0
 10
-12.1289
 20
710.524
 11
-12.6791
 21
710.222
  0
LINE
  8
0
 10
-12.6791
 20
710.222
 11
-13.1871
 21
709.853
  0
LINE
  8
0
 10
-13.1871
 20
709.853
 11
-13.6448
 21
709.423
  0
LINE
  8
0
 10
-13.6448
 20
709.423
 11
-14.0451
 21
708.939
  0
LINE
  8
0
 10
-14.0451
 20
708.939
 11
-14.3815
 21
708.409
  0
LINE
  8
0
 10
-14.3815
 20
708.409
 11
-14.6489
 21
707.841
  0
LINE
  8
0
 10
-14.6489
 20
707.841
 11
-14.8429
 21
707.243
  0
LINE
  8
0
 10
-14.8429
 20
707.243
 11
-14.9606
 21
706.627
  0
LINE
  8
0
 10
-14.9606
 20
706.627
 11
-15
 21
706
  0
LINE
  8
0
 10
-15
 20
706
 11
-15
 21
566
  0
LINE
  8
0
 10
-15
 20
566
 11
-14.9606
 21
565.373
  0
LINE
  8
0
 10
-14.9606
 20
565.373
 11
-14.8429
 21
564.757
  0
LINE
  8
0
 10
-14.8429
 20
564.757
 11
-14.6489
 21
564.159
  0
LINE
  8
0
 10
-14.6489
 20
564.159
 11
-14.3815
 21
563.591
  0
LINE
  8
0
 10
-14.3815
 20
563.591
 11
-14.0451
 21
563.061
  0
LINE
  8
0
 10
-14.0451
 20
563.061
 11
-13.6448
 21
562.577
  0
LINE
  8
0
 10
-13.6448
 20
562.577
 11
-13.1871
 21
562.147
  0
LINE
  8
0
 10
-13.1871
 20
562.147
 11
-12.6791
 21
561.778
  0
LINE
  8
0
 10
-12.6791
 20
561.778
 11
-12.1289
 21
561.476
  0
LINE
  8
0
 10
-12.1289
 20
561.476
 11
-11.5451
 21
561.245
  0
LINE
  8
0
 10
-11.5451
 20
561.245
 11
-10.9369
 21
561.089
  0
LINE
  8
0
 10
-10.9369
 20
561.089
 11
-10.3139
 21
561.01
  0
LINE
  8
0
 10
-10.3139
 20
561.01
 11
10.3139
 21
561.01
  0
LINE
  8
0
 10
10.3139
 20
561.01
 11
10.9369
 21
561.089
  0
LINE
  8
0
 10
-9.74316
 20
562.635
 11
-10.2256
 21
562.696
  0
LINE
  8
0
 10
-10.2256
 20
562.696
 11
-10.6967
 21
562.817
  0
LINE
  8
0
 10
-10.6967
 20
562.817
 11
-11.1489
 21
562.996
  0
LINE
  8
0
 10
-11.1489
 20
562.996
 11
-11.5751
 21
563.23
  0
LINE
  8
0
 10
-11.5751
 20
563.23
 11
-11.9685
 21
563.516
  0
LINE
  8
0
 10
-11.9685
 20
563.516
 11
-12.323
 21
563.849
  0
LINE
  8
0
 10
-12.323
 20
563.849
 11
-12.633
 21
564.224
  0
LINE
  8
0
 10
-12.633
 20
564.224
 11
-12.8936
 21
564.634
  0
LINE
  8
0
 10
-12.8936
 20
564.634
 11
-13.1007
 21
565.074
  0
LINE
  8
0
 10
-13.1007
 20
565.074
 11
-13.251
 21
565.537
  0
LINE
  8
0
 10
-13.251
 20
565.537
 11
-13.3421
 21
566.015
  0
LINE
  8
0
 10
-13.3421
 20
566.015
 11
-13.3726
 21
566.5
  0
LINE
  8
0
 10
-13.3726
 20
566.5
 11
-13.3726
 21
705.5
  0
LINE
  8
0
 10
-13.3726
 20
705.5
 11
-13.3421
 21
705.985
  0
LINE
  8
0
 10
-13.3421
 20
705.985
 11
-13.251
 21
706.463
  0
LINE
  8
0
 10
-13.251
 20
706.463
 11
-13.1007
 21
706.926
  0
LINE
  8
0
 10
-13.1007
 20
706.926
 11
-12.8936
 21
707.366
  0
LINE
  8
0
 10
-12.8936
 20
707.366
 11
-12.633
 21
707.776
  0
LINE
  8
0
 10
-12.633
 20
707.776
 11
-12.323
 21
708.151
  0
LINE
  8
0
 10
-12.323
 20
708.151
 11
-11.9685
 21
708.484
  0
LINE
  8
0
 10
-11.9685
 20
708.484
 11
-11.5751
 21
708.77
  0
LINE
  8
0
 10
-11.5751
 20
708.77
 11
-11.1489
 21
709.004
  0
LINE
  8
0
 10
-11.1489
 20
709.004
 11
-10.6967
 21
709.183
  0
LINE
  8
0
 10
-10.6967
 20
709.183
 11
-10.2256
 21
709.304
  0
LINE
  8
0
 10
-10.2256
 20
709.304
 11
-9.74316
 21
709.365
  0
LINE
  8
0
 10
-9.74316
 20
709.365
 11
9.74316
 21
709.365
  0
LINE
  8
0
 10
9.74316
 20
709.365
 11
10.2256
 21
709.304
  0
LINE
  8
0
 10
10.2256
 20
709.304
 11
10.6967
 21
709.183
  0
LINE
  8
0
 10
10.6967
 20
709.183
 11
11.1489
 21
709.004
  0
LINE
  8
0
 10
11.1489
 20
709.004
 11
11.5751
 21
708.77
  0
LINE
  8
0
 10
11.5751
 20
708.77
 11
11.9685
 21
708.484
  0
LINE
  8
0
 10
11.9685
 20
708.484
 11
12.323
 21
708.151
  0
LINE
  8
0
 10
12.323
 20
708.151
 11
12.633
 21
707.776
  0
LINE
  8
0
 10
12.633
 20
707.776
 11
12.8936
 21
707.366
  0
LINE
  8
0
 10
12.8936
 20
707.366
 11
13.1007
 21
706.926
  0
LINE
  8
0
 10
13.1007
 20
706.926
 11
13.251
 21
706.463
  0
LINE
  8
0
 10
13.251
 20
706.463
 11
13.3421
 21
705.985
  0
LINE
  8
0
 10
13.3421
 20
705.985
 11
13.3726
 21
705.5
  0
LINE
  8
0
 10
13.3726
 20
705.5
 11
13.3726
 21
566.5
  0
LINE
  8
0
 10
13.3726
 20
566.5
 11
13.3421
 21
566.015
  0
LINE
  8
0
 10
13.3421
 20
566.015
 11
13.251
 21
565.537
  0
LINE
  8
0
 10
13.251
 20
565.537
 11
13.1007
 21
565.074
  0
LINE
  8
0
 10
13.1007
 20
565.074
 11
12.8936
 21
564.634
  0
LINE
  8
0
 10
12.8936
 20
564.634
 11
12.633
 21
564.224
  0
LINE
  8
0
 10
12.633
 20
564.224
 11
12.323
 21
563.849
  0
LINE
  8
0
 10
12.323
 20
563.849
 11
11.9685
 21
563.516
  0
LINE
  8
0
 10
11.9685
 20
563.516
 11
11.5751
 21
563.23
  0
LINE
  8
0
 10
11.5751
 20
563.23
 11
11.1489
 21
562.996
  0
LINE
  8
0
 10
11.1489
 20
562.996
 11
10.6967
 21
562.817
  0
LINE
  8
0
 10
10.6967
 20
562.817
 11
10.2256
 21
562.696
  0
LINE
  8
0
 10
10.2256
 20
562.696
 11
9.74316
 21
562.635
  0
LINE
  8
0
 10
9.74316
 20
562.635
 11
-9.74316
 21
562.635
  0
LINE
  8
0
 10
10.9369
 20
402.089
 11
11.5451
 21
402.245
  0
LINE
  8
0
 10
11.5451
 20
402.245
 11
12.1289
 21
402.476
  0
LINE
  8
0
 10
12.1289
 20
402.476
 11
12.6791
 21
402.778
  0
LINE
  8
0
 10
12.6791
 20
402.778
 11
13.1871
 21
403.147
  0
LINE
  8
0
 10
13.1871
 20
403.147
 11
13.6448
 21
403.577
  0
LINE
  8
0
 10
13.6448
 20
403.577
 11
14.0451
 21
404.061
  0
LINE
  8
0
 10
14.0451
 20
404.061
 11
14.3815
 21
404.591
  0
LINE
  8
0
 10
14.3815
 20
404.591
 11
14.6489
 21
405.159
  0
LINE
  8
0
 10
14.6489
 20
405.159
 11
14.8429
 21
405.757
  0
LINE
  8
0
 10
14.8429
 20
405.757
 11
14.9606
 21
406.373
  0
LINE
  8
0
 10
14.9606
 20
406.373
 11
15
 21
407
  0
LINE
  8
0
 10
15
 20
407
 11
15
 21
547
  0
LINE
  8
0
 10
15
 20
547
 11
14.9606
 21
547.627
  0
LINE
  8
0
 10
14.9606
 20
547.627
 11
14.8429
 21
548.243
  0
LINE
  8
0
 10
14.8429
 20
548.243
 11
14.6489
 21
548.841
  0
LINE
  8
0
 10
14.6489
 20
548.841
 11
14.3815
 21
549.409
  0
LINE
  8
0
 10
14.3815
 20
549.409
 11
14.0451
 21
549.939
  0
LINE
  8
0
 10
14.0451
 20
549.939
 11
13.6448
 21
550.423
  0
LINE
  8
0
 10
13.6448
 20
550.423
 11
13.1871
 21
550.853
  0
LINE
  8
0
 10
13.1871
 20
550.853
 11
12.6791
 21
551.222
  0
LINE
  8
0
 10
12.6791
 20
551.222
 11
12.1289
 21
551.524
  0
LINE
  8
0
 10
12.1289
 20
551.524
 11
11.5451
 21
551.755
  0
LINE
  8
0
 10
11.5451
 20
551.755
 11
10.9369
 21
551.911
  0
LINE
  8
0
 10
10.9369
 20
551.911
 11
10.3139
 21
551.99
  0
LINE
  8
0
 10
10.3139
 20
551.99
 11
-10.3139
 21
551.99
  0
LINE
  8
0
 10
-10.3139
 20
551.99
 11
-10.9369
 21
551.911
  0
LINE
  8
0
 10
-10.9369
 20
551.911
 11
-11.5451
 21
551.755
  0
LINE
  8
0
 10
-11.5451
 20
551.755
 11
-12.1289
 21
551.524
  0
LINE
  8
0
 10
-12.1289
 20
551.524
 11
-12.6791
 21
551.222
  0
LINE
  8
0
 10
-12.6791
 20
551.222
 11
-13.1871
 21
550.853
  0
LINE
  8
0
 10
-13.1871
 20
550.853
 11
-13.6448
 21
550.423
  0
LINE
  8
0
 10
-13.6448
 20
550.423
 11
-14.0451
 21
549.939
  0
LINE
  8
0
 10
-14.0451
 20
549.939
 11
-14.3815
 21
549.409
  0
LINE
  8
0
 10
-14.3815
 20
549.409
 11
-14.6489
 21
548.841
  0
LINE
  8
0
 10
-14.6489
 20
548.841
 11
-14.8429
 21
548.243
  0
LINE
  8
0
 10
-14.8429
 20
548.243
 11
-14.9606
 21
547.627
  0
LINE
  8
0
 10
-14.9606
 20
547.627
 11
-15
 21
547
  0
LINE
  8
0
 10
-15
 20
547
 11
-15
 21
407
  0
LINE
  8
0
 10
-15
 20
407
 11
-14.9606
 21
406.373
  0
LINE
  8
0
 10
-14.9606
 20
406.373
 11
-14.8429
 21
405.757
  0
LINE
  8
0
 10
-14.8429
 20
405.757
 11
-14.6489
 21
405.159
  0
LINE
  8
0
 10
-14.6489
 20
405.159
 11
-14.3815
 21
404.591
  0
LINE
  8
0
 10
-14.3815
 20
404.591
 11
-14.0451
 21
404.061
  0
LINE
  8
0
 10
-14.0451
 20
404.061
 11
-13.6448
 21
403.577
  0
LINE
  8
0
 10
-13.6448
 20
403.577
 11
-13.1871
 21
403.147
  0
LINE
  8
0
 10
-13.1871
 20
403.147
 11
-12.6791
 21
402.778
  0
LINE
  8
0
 10
-12.6791
 20
402.778
 11
-12.1289
 21
402.476
  0
LINE
  8
0
 10
-12.1289
 20
402.476
 11
-11.5451
 21
402.245
  0
LINE
  8
0
 10
-11.5451
 20
402.245
 11
-10.9369
 21
402.089
  0
LINE
  8
0
 10
-10.9369
 20
402.089
 11
-10.3139
 21
402.01
  0
LINE
  8
0
 10
-10.3139
 20
402.01
 11
10.3139
 21
402.01
  0
LINE
  8
0
 10
10.3139
 20
402.01
 11
10.9369
 21
402.089
  0
LINE
  8
0
 10
10.9369
 20
243.089
 11
11.5451
 21
243.245
  0
LINE
  8
0
 10
11.5451
 20
243.245
 11
12.1289
 21
243.476
  0
LINE
  8
0
 10
12.1289
 20
243.476
 11
12.6791
 21
243.778
  0
LINE
  8
0
 10
12.6791
 20
243.778
 11
13.1871
 21
244.147
  0
LINE
  8
0
 10
13.1871
 20
244.147
 11
13.6448
 21
244.577
  0
LINE
  8
0
 10
13.6448
 20
244.577
 11
14.0451
 21
245.061
  0
LINE
  8
0
 10
14.0451
 20
245.061
 11
14.3815
 21
245.591
  0
LINE
  8
0
 10
14.3815
 20
245.591
 11
14.6489
 21
246.159
  0
LINE
  8
0
 10
14.6489
 20
246.159
 11
14.8429
 21
246.757
  0
LINE
  8
0
 10
14.8429
 20
246.757
 11
14.9606
 21
247.373
  0
LINE
  8
0
 10
14.9606
 20
247.373
 11
15
 21
248
  0
LINE
  8
0
 10
15
 20
248
 11
15
 21
388
  0
LINE
  8
0
 10
15
 20
388
 11
14.9606
 21
388.627
  0
LINE
  8
0
 10
14.9606
 20
388.627
 11
14.8429
 21
389.243
  0
LINE
  8
0
 10
14.8429
 20
389.243
 11
14.6489
 21
389.841
  0
LINE
  8
0
 10
14.6489
 20
389.841
 11
14.3815
 21
390.409
  0
LINE
  8
0
 10
14.3815
 20
390.409
 11
14.0451
 21
390.939
  0
LINE
  8
0
 10
14.0451
 20
390.939
 11
13.6448
 21
391.423
  0
LINE
  8
0
 10
13.6448
 20
391.423
 11
13.1871
 21
391.853
  0
LINE
  8
0
 10
13.1871
 20
391.853
 11
12.6791
 21
392.222
  0
LINE
  8
0
 10
12.6791
 20
392.222
 11
12.1289
 21
392.524
  0
LINE
  8
0
 10
12.1289
 20
392.524
 11
11.5451
 21
392.755
  0
LINE
  8
0
 10
11.5451
 20
392.755
 11
10.9369
 21
392.911
  0
LINE
  8
0
 10
10.9369
 20
392.911
 11
10.3139
 21
392.99
  0
LINE
  8
0
 10
10.3139
 20
392.99
 11
-10.3139
 21
392.99
  0
LINE
  8
0
 10
-10.3139
 20
392.99
 11
-10.9369
 21
392.911
  0
LINE
  8
0
 10
-10.9369
 20
392.911
 11
-11.5451
 21
392.755
  0
LINE
  8
0
 10
-11.5451
 20
392.755
 11
-12.1289
 21
392.524
  0
LINE
  8
0
 10
-12.1289
 20
392.524
 11
-12.6791
 21
392.222
  0
LINE
  8
0
 10
-12.6791
 20
392.222
 11
-13.1871
 21
391.853
  0
LINE
  8
0
 10
-13.1871
 20
391.853
 11
-13.6448
 21
391.423
  0
LINE
  8
0
 10
-13.6448
 20
391.423
 11
-14.0451
 21
390.939
  0
LINE
  8
0
 10
-14.0451
 20
390.939
 11
-14.3815
 21
390.409
  0
LINE
  8
0
 10
-14.3815
 20
390.409
 11
-14.6489
 21
389.841
  0
LINE
  8
0
 10
-14.6489
 20
389.841
 11
-14.8429
 21
389.243
  0
LINE
  8
0
 10
-14.8429
 20
389.243
 11
-14.9606
 21
388.627
  0
LINE
  8
0
 10
-14.9606
 20
388.627
 11
-15
 21
388
  0
LINE
  8
0
 10
-15
 20
388
 11
-15
 21
248
  0
LINE
  8
0
 10
-15
 20
248
 11
-14.9606
 21
247.373
  0
LINE
  8
0
 10
-14.9606
 20
247.373
 11
-14.8429
 21
246.757
  0
LINE
  8
0
 10
-14.8429
 20
246.757
 11
-14.6489
 21
246.159
  0
LINE
  8
0
 10
-14.6489
 20
246.159
 11
-14.3815
 21
245.591
  0
LINE
  8
0
 10
-14.3815
 20
245.591
 11
-14.0451
 21
245.061
  0
LINE
  8
0
 10
-14.0451
 20
245.061
 11
-13.6448
 21
244.577
  0
LINE
  8
0
 10
-13.6448
 20
244.577
 11
-13.1871
 21
244.147
  0
LINE
  8
0
 10
-13.1871
 20
244.147
 11
-12.6791
 21
243.778
  0
LINE
  8
0
 10
-12.6791
 20
243.778
 11
-12.1289
 21
243.476
  0
LINE
  8
0
 10
-12.1289
 20
243.476
 11
-11.5451
 21
243.245
  0
LINE
  8
0
 10
-11.5451
 20
243.245
 11
-10.9369
 21
243.089
  0
LINE
  8
0
 10
-10.9369
 20
243.089
 11
-10.3139
 21
243.01
  0
LINE
  8
0
 10
-10.3139
 20
243.01
 11
10.3139
 21
243.01
  0
LINE
  8
0
 10
10.3139
 20
243.01
 11
10.9369
 21
243.089
  0
LINE
  8
0
 10
7.38696
 20
383.704
 11
7.1627
 21
383.732
  0
LINE
  8
0
 10
7.1627
 20
383.732
 11
6.94376
 21
383.788
  0
LINE
  8
0
 10
6.94376
 20
383.788
 11
6.7336
 21
383.871
  0
LINE
  8
0
 10
6.7336
 20
383.871
 11
6.53551
 21
383.98
  0
LINE
  8
0
 10
6.53551
 20
383.98
 11
6.35263
 21
384.113
  0
LINE
  8
0
 10
6.35263
 20
384.113
 11
6.18785
 21
384.268
  0
LINE
  8
0
 10
6.18785
 20
384.268
 11
6.04376
 21
384.442
  0
LINE
  8
0
 10
6.04376
 20
384.442
 11
5.92264
 21
384.633
  0
LINE
  8
0
 10
5.92264
 20
384.633
 11
5.8264
 21
384.837
  0
LINE
  8
0
 10
5.8264
 20
384.837
 11
5.75655
 21
385.052
  0
LINE
  8
0
 10
5.75655
 20
385.052
 11
5.71419
 21
385.274
  0
LINE
  8
0
 10
5.71419
 20
385.274
 11
5.7
 21
385.5
  0
LINE
  8
0
 10
5.7
 20
385.5
 11
5.71419
 21
385.726
  0
LINE
  8
0
 10
5.71419
 20
385.726
 11
5.75655
 21
385.948
  0
LINE
  8
0
 10
5.75655
 20
385.948
 11
5.8264
 21
386.163
  0
LINE
  8
0
 10
5.8264
 20
386.163
 11
5.92264
 21
386.367
  0
LINE
  8
0
 10
5.92264
 20
386.367
 11
6.04376
 21
386.558
  0
LINE
  8
0
 10
6.04376
 20
386.558
 11
6.18785
 21
386.732
  0
LINE
  8
0
 10
6.18785
 20
386.732
 11
6.35263
 21
386.887
  0
LINE
  8
0
 10
6.35263
 20
386.887
 11
6.53551
 21
387.02
  0
LINE
  8
0
 10
6.53551
 20
387.02
 11
6.7336
 21
387.129
  0
LINE
  8
0
 10
6.7336
 20
387.129
 11
6.94376
 21
387.212
  0
LINE
  8
0
 10
6.94376
 20
387.212
 11
7.1627
 21
387.268
  0
LINE
  8
0
 10
7.1627
 20
387.268
 11
7.38696
 21
387.296
  0
LINE
  8
0
 10
7.38696
 20
387.296
 11
7.61302
 21
387.296
  0
LINE
  8
0
 10
7.61302
 20
387.296
 11
7.83728
 21
387.268
  0
LINE
  8
0
 10
7.83728
 20
387.268
 11
8.05623
 21
387.212
  0
LINE
  8
0
 10
8.05623
 20
387.212
 11
8.26639
 21
387.129
  0
LINE
  8
0
 10
8.26639
 20
387.129
 11
8.46448
 21
387.02
  0
LINE
  8
0
 10
8.46448
 20
387.02
 11
8.64735
 21
386.887
  0
LINE
  8
0
 10
8.64735
 20
386.887
 11
8.81213
 21
386.732
  0
LINE
  8
0
 10
8.81213
 20
386.732
 11
8.95622
 21
386.558
  0
LINE
  8
0
 10
8.95622
 20
386.558
 11
9.07735
 21
386.367
  0
LINE
  8
0
 10
9.07735
 20
386.367
 11
9.17358
 21
386.163
  0
LINE
  8
0
 10
9.17358
 20
386.163
 11
9.24344
 21
385.948
  0
LINE
  8
0
 10
9.24344
 20
385.948
 11
9.2858
 21
385.726
  0
LINE
  8
0
 10
9.2858
 20
385.726
 11
9.29999
 21
385.5
  0
LINE
  8
0
 10
9.29999
 20
385.5
 11
9.2858
 21
385.274
  0
LINE
  8
0
 10
9.2858
 20
385.274
 11
9.24344
 21
385.052
  0
LINE
  8
0
 10
9.24344
 20
385.052
 11
9.17358
 21
384.837
  0
LINE
  8
0
 10
9.17358
 20
384.837
 11
9.07735
 21
384.633
  0
LINE
  8
0
 10
9.07735
 20
384.633
 11
8.95622
 21
384.442
  0
LINE
  8
0
 10
8.95622
 20
384.442
 11
8.81213
 21
384.268
  0
LINE
  8
0
 10
8.81213
 20
384.268
 11
8.64735
 21
384.113
  0
LINE
  8
0
 10
8.64735
 20
384.113
 11
8.46448
 21
383.98
  0
LINE
  8
0
 10
8.46448
 20
383.98
 11
8.26639
 21
383.871
  0
LINE
  8
0
 10
8.26639
 20
383.871
 11
8.05623
 21
383.788
  0
LINE
  8
0
 10
8.05623
 20
383.788
 11
7.83728
 21
383.732
  0
LINE
  8
0
 10
7.83728
 20
383.732
 11
7.61302
 21
383.704
  0
LINE
  8
0
 10
7.61302
 20
383.704
 11
7.38696
 21
383.704
  0
LINE
  8
0
 10
-7.61302
 20
383.704
 11
-7.83728
 21
383.732
  0
LINE
  8
0
 10
-7.83728
 20
383.732
 11
-8.05623
 21
383.788
  0
LINE
  8
0
 10
-8.05623
 20
383.788
 11
-8.26639
 21
383.871
  0
LINE
  8
0
 10
-8.26639
 20
383.871
 11
-8.46448
 21
383.98
  0
LINE
  8
0
 10
-8.46448
 20
383.98
 11
-8.64735
 21
384.113
  0
LINE
  8
0
 10
-8.64735
 20
384.113
 11
-8.81213
 21
384.268
  0
LINE
  8
0
 10
-8.81213
 20
384.268
 11
-8.95622
 21
384.442
  0
LINE
  8
0
 10
-8.95622
 20
384.442
 11
-9.07735
 21
384.633
  0
LINE
  8
0
 10
-9.07735
 20
384.633
 11
-9.17358
 21
384.837
  0
LINE
  8
0
 10
-9.17358
 20
384.837
 11
-9.24344
 21
385.052
  0
LINE
  8
0
 10
-9.24344
 20
385.052
 11
-9.2858
 21
385.274
  0
LINE
  8
0
 10
-9.2858
 20
385.274
 11
-9.29999
 21
385.5
  0
LINE
  8
0
 10
-9.29999
 20
385.5
 11
-9.2858
 21
385.726
  0
LINE
  8
0
 10
-9.2858
 20
385.726
 11
-9.24344
 21
385.948
  0
LINE
  8
0
 10
-9.24344
 20
385.948
 11
-9.17358
 21
386.163
  0
LINE
  8
0
 10
-9.17358
 20
386.163
 11
-9.07735
 21
386.367
  0
LINE
  8
0
 10
-9.07735
 20
386.367
 11
-8.95622
 21
386.558
  0
LINE
  8
0
 10
-8.95622
 20
386.558
 11
-8.81213
 21
386.732
  0
LINE
  8
0
 10
-8.81213
 20
386.732
 11
-8.64735
 21
386.887
  0
LINE
  8
0
 10
-8.64735
 20
386.887
 11
-8.46448
 21
387.02
  0
LINE
  8
0
 10
-8.46448
 20
387.02
 11
-8.26639
 21
387.129
  0
LINE
  8
0
 10
-8.26639
 20
387.129
 11
-8.05623
 21
387.212
  0
LINE
  8
0
 10
-8.05623
 20
387.212
 11
-7.83728
 21
387.268
  0
LINE
  8
0
 10
-7.83728
 20
387.268
 11
-7.61302
 21
387.296
  0
LINE
  8
0
 10
-7.61302
 20
387.296
 11
-7.38696
 21
387.296
  0
LINE
  8
0
 10
-7.38696
 20
387.296
 11
-7.1627
 21
387.268
  0
LINE
  8
0
 10
-7.1627
 20
387.268
 11
-6.94376
 21
387.212
  0
LINE
  8
0
 10
-6.94376
 20
387.212
 11
-6.7336
 21
387.129
  0
LINE
  8
0
 10
-6.7336
 20
387.129
 11
-6.53551
 21
387.02
  0
LINE
  8
0
 10
-6.53551
 20
387.02
 11
-6.35263
 21
386.887
  0
LINE
  8
0
 10
-6.35263
 20
386.887
 11
-6.18785
 21
386.732
  0
LINE
  8
0
 10
-6.18785
 20
386.732
 11
-6.04376
 21
386.558
  0
LINE
  8
0
 10
-6.04376
 20
386.558
 11
-5.92264
 21
386.367
  0
LINE
  8
0
 10
-5.92264
 20
386.367
 11
-5.8264
 21
386.163
  0
LINE
  8
0
 10
-5.8264
 20
386.163
 11
-5.75655
 21
385.948
  0
LINE
  8
0
 10
-5.75655
 20
385.948
 11
-5.71419
 21
385.726
  0
LINE
  8
0
 10
-5.71419
 20
385.726
 11
-5.7
 21
385.5
  0
LINE
  8
0
 10
-5.7
 20
385.5
 11
-5.71419
 21
385.274
  0
LINE
  8
0
 10
-5.71419
 20
385.274
 11
-5.75655
 21
385.052
  0
LINE
  8
0
 10
-5.75655
 20
385.052
 11
-5.8264
 21
384.837
  0
LINE
  8
0
 10
-5.8264
 20
384.837
 11
-5.92264
 21
384.633
  0
LINE
  8
0
 10
-5.92264
 20
384.633
 11
-6.04376
 21
384.442
  0
LINE
  8
0
 10
-6.04376
 20
384.442
 11
-6.18785
 21
384.268
  0
LINE
  8
0
 10
-6.18785
 20
384.268
 11
-6.35263
 21
384.113
  0
LINE
  8
0
 10
-6.35263
 20
384.113
 11
-6.53551
 21
383.98
  0
LINE
  8
0
 10
-6.53551
 20
383.98
 11
-6.7336
 21
383.871
  0
LINE
  8
0
 10
-6.7336
 20
383.871
 11
-6.94376
 21
383.788
  0
LINE
  8
0
 10
-6.94376
 20
383.788
 11
-7.1627
 21
383.732
  0
LINE
  8
0
 10
-7.1627
 20
383.732
 11
-7.38696
 21
383.704
  0
LINE
  8
0
 10
-7.38696
 20
383.704
 11
-7.61302
 21
383.704
  0
LINE
  8
0
 10
-7.61302
 20
248.704
 11
-7.83728
 21
248.732
  0
LINE
  8
0
 10
-7.83728
 20
248.732
 11
-8.05623
 21
248.788
  0
LINE
  8
0
 10
-8.05623
 20
248.788
 11
-8.26639
 21
248.871
  0
LINE
  8
0
 10
-8.26639
 20
248.871
 11
-8.46448
 21
248.98
  0
LINE
  8
0
 10
-8.46448
 20
248.98
 11
-8.64735
 21
249.113
  0
LINE
  8
0
 10
-8.64735
 20
249.113
 11
-8.81213
 21
249.268
  0
LINE
  8
0
 10
-8.81213
 20
249.268
 11
-8.95622
 21
249.442
  0
LINE
  8
0
 10
-8.95622
 20
249.442
 11
-9.07735
 21
249.633
  0
LINE
  8
0
 10
-9.07735
 20
249.633
 11
-9.17358
 21
249.837
  0
LINE
  8
0
 10
-9.17358
 20
249.837
 11
-9.24344
 21
250.052
  0
LINE
  8
0
 10
-9.24344
 20
250.052
 11
-9.2858
 21
250.274
  0
LINE
  8
0
 10
-9.2858
 20
250.274
 11
-9.29999
 21
250.5
  0
LINE
  8
0
 10
-9.29999
 20
250.5
 11
-9.2858
 21
250.726
  0
LINE
  8
0
 10
-9.2858
 20
250.726
 11
-9.24344
 21
250.948
  0
LINE
  8
0
 10
-9.24344
 20
250.948
 11
-9.17358
 21
251.163
  0
LINE
  8
0
 10
-9.17358
 20
251.163
 11
-9.07735
 21
251.367
  0
LINE
  8
0
 10
-9.07735
 20
251.367
 11
-8.95622
 21
251.558
  0
LINE
  8
0
 10
-8.95622
 20
251.558
 11
-8.81213
 21
251.732
  0
LINE
  8
0
 10
-8.81213
 20
251.732
 11
-8.64735
 21
251.887
  0
LINE
  8
0
 10
-8.64735
 20
251.887
 11
-8.46448
 21
252.02
  0
LINE
  8
0
 10
-8.46448
 20
252.02
 11
-8.26639
 21
252.129
  0
LINE
  8
0
 10
-8.26639
 20
252.129
 11
-8.05623
 21
252.212
  0
LINE
  8
0
 10
-8.05623
 20
252.212
 11
-7.83728
 21
252.268
  0
LINE
  8
0
 10
-7.83728
 20
252.268
 11
-7.61302
 21
252.296
  0
LINE
  8
0
 10
-7.61302
 20
252.296
 11
-7.38696
 21
252.296
  0
LINE
  8
0
 10
-7.38696
 20
252.296
 11
-7.1627
 21
252.268
  0
LINE
  8
0
 10
-7.1627
 20
252.268
 11
-6.94376
 21
252.212
  0
LINE
  8
0
 10
-6.94376
 20
252.212
 11
-6.7336
 21
252.129
  0
LINE
  8
0
 10
-6.7336
 20
252.129
 11
-6.53551
 21
252.02
  0
LINE
  8
0
 10
-6.53551
 20
252.02
 11
-6.35263
 21
251.887
  0
LINE
  8
0
 10
-6.35263
 20
251.887
 11
-6.18785
 21
251.732
  0
LINE
  8
0
 10
-6.18785
 20
251.732
 11
-6.04376
 21
251.558
  0
LINE
  8
0
 10
-6.04376
 20
251.558
 11
-5.92264
 21
251.367
  0
LINE
  8
0
 10
-5.92264
 20
251.367
 11
-5.8264
 21
251.163
  0
LINE
  8
0
 10
-5.8264
 20
251.163
 11
-5.75655
 21
250.948
  0
LINE
  8
0
 10
-5.75655
 20
250.948
 11
-5.71419
 21
250.726
  0
LINE
  8
0
 10
-5.71419
 20
250.726
 11
-5.7
 21
250.5
  0
LINE
  8
0
 10
-5.7
 20
250.5
 11
-5.71419
 21
250.274
  0
LINE
  8
0
 10
-5.71419
 20
250.274
 11
-5.75655
 21
250.052
  0
LINE
  8
0
 10
-5.75655
 20
250.052
 11
-5.8264
 21
249.837
  0
LINE
  8
0
 10
-5.8264
 20
249.837
 11
-5.92264
 21
249.633
  0
LINE
  8
0
 10
-5.92264
 20
249.633
 11
-6.04376
 21
249.442
  0
LINE
  8
0
 10
-6.04376
 20
249.442
 11
-6.18785
 21
249.268
  0
LINE
  8
0
 10
-6.18785
 20
249.268
 11
-6.35263
 21
249.113
  0
LINE
  8
0
 10
-6.35263
 20
249.113
 11
-6.53551
 21
248.98
  0
LINE
  8
0
 10
-6.53551
 20
248.98
 11
-6.7336
 21
248.871
  0
LINE
  8
0
 10
-6.7336
 20
248.871
 11
-6.94376
 21
248.788
  0
LINE
  8
0
 10
-6.94376
 20
248.788
 11
-7.1627
 21
248.732
  0
LINE
  8
0
 10
-7.1627
 20
248.732
 11
-7.38696
 21
248.704
  0
LINE
  8
0
 10
-7.38696
 20
248.704
 11
-7.61302
 21
248.704
  0
LINE
  8
0
 10
7.38696
 20
248.704
 11
7.1627
 21
248.732
  0
LINE
  8
0
 10
7.1627
 20
248.732
 11
6.94376
 21
248.788
  0
LINE
  8
0
 10
6.94376
 20
248.788
 11
6.7336
 21
248.871
  0
LINE
  8
0
 10
6.7336
 20
248.871
 11
6.53551
 21
248.98
  0
LINE
  8
0
 10
6.53551
 20
248.98
 11
6.35263
 21
249.113
  0
LINE
  8
0
 10
6.35263
 20
249.113
 11
6.18785
 21
249.268
  0
LINE
  8
0
 10
6.18785
 20
249.268
 11
6.04376
 21
249.442
  0
LINE
  8
0
 10
6.04376
 20
249.442
 11
5.92264
 21
249.633
  0
LINE
  8
0
 10
5.92264
 20
249.633
 11
5.8264
 21
249.837
  0
LINE
  8
0
 10
5.8264
 20
249.837
 11
5.75655
 21
250.052
  0
LINE
  8
0
 10
5.75655
 20
250.052
 11
5.71419
 21
250.274
  0
LINE
  8
0
 10
5.71419
 20
250.274
 11
5.7
 21
250.5
  0
LINE
  8
0
 10
5.7
 20
250.5
 11
5.71419
 21
250.726
  0
LINE
  8
0
 10
5.71419
 20
250.726
 11
5.75655
 21
250.948
  0
LINE
  8
0
 10
5.75655
 20
250.948
 11
5.8264
 21
251.163
  0
LINE
  8
0
 10
5.8264
 20
251.163
 11
5.92264
 21
251.367
  0
LINE
  8
0
 10
5.92264
 20
251.367
 11
6.04376
 21
251.558
  0
LINE
  8
0
 10
6.04376
 20
251.558
 11
6.18785
 21
251.732
  0
LINE
  8
0
 10
6.18785
 20
251.732
 11
6.35263
 21
251.887
  0
LINE
  8
0
 10
6.35263
 20
251.887
 11
6.53551
 21
252.02
  0
LINE
  8
0
 10
6.53551
 20
252.02
 11
6.7336
 21
252.129
  0
LINE
  8
0
 10
6.7336
 20
252.129
 11
6.94376
 21
252.212
  0
LINE
  8
0
 10
6.94376
 20
252.212
 11
7.1627
 21
252.268
  0
LINE
  8
0
 10
7.1627
 20
252.268
 11
7.38696
 21
252.296
  0
LINE
  8
0
 10
7.38696
 20
252.296
 11
7.61302
 21
252.296
  0
LINE
  8
0
 10
7.61302
 20
252.296
 11
7.83728
 21
252.268
  0
LINE
  8
0
 10
7.83728
 20
252.268
 11
8.05623
 21
252.212
  0
LINE
  8
0
 10
8.05623
 20
252.212
 11
8.26639
 21
252.129
  0
LINE
  8
0
 10
8.26639
 20
252.129
 11
8.46448
 21
252.02
  0
LINE
  8
0
 10
8.46448
 20
252.02
 11
8.64735
 21
251.887
  0
LINE
  8
0
 10
8.64735
 20
251.887
 11
8.81213
 21
251.732
  0
LINE
  8
0
 10
8.81213
 20
251.732
 11
8.95622
 21
251.558
  0
LINE
  8
0
 10
8.95622
 20
251.558
 11
9.07735
 21
251.367
  0
LINE
  8
0
 10
9.07735
 20
251.367
 11
9.17358
 21
251.163
  0
LINE
  8
0
 10
9.17358
 20
251.163
 11
9.24344
 21
250.948
  0
LINE
  8
0
 10
9.24344
 20
250.948
 11
9.2858
 21
250.726
  0
LINE
  8
0
 10
9.2858
 20
250.726
 11
9.29999
 21
250.5
  0
LINE
  8
0
 10
9.29999
 20
250.5
 11
9.2858
 21
250.274
  0
LINE
  8
0
 10
9.2858
 20
250.274
 11
9.24344
 21
250.052
  0
LINE
  8
0
 10
9.24344
 20
250.052
 11
9.17358
 21
249.837
  0
LINE
  8
0
 10
9.17358
 20
249.837
 11
9.07735
 21
249.633
  0
LINE
  8
0
 10
9.07735
 20
249.633
 11
8.95622
 21
249.442
  0
LINE
  8
0
 10
8.95622
 20
249.442
 11
8.81213
 21
249.268
  0
LINE
  8
0
 10
8.81213
 20
249.268
 11
8.64735
 21
249.113
  0
LINE
  8
0
 10
8.64735
 20
249.113
 11
8.46448
 21
248.98
  0
LINE
  8
0
 10
8.46448
 20
248.98
 11
8.26639
 21
248.871
  0
LINE
  8
0
 10
8.26639
 20
248.871
 11
8.05623
 21
248.788
  0
LINE
  8
0
 10
8.05623
 20
248.788
 11
7.83728
 21
248.732
  0
LINE
  8
0
 10
7.83728
 20
248.732
 11
7.61302
 21
248.704
  0
LINE
  8
0
 10
7.61302
 20
248.704
 11
7.38696
 21
248.704
  0
ENDSEC
  0
SECTION
  2
OBJECTS
  0
DICTIONARY
  0
ENDSEC
  0
EOF
