<?xml version="1.0" standalone="no"?>
<!DOCTYPE svg PUBLIC "-//W3C//DTD SVG 1.1//EN" "http://www.w3.org/Graphics/SVG/1.1/DTD/svg11.dtd">
<svg width="16mm" height="786mm" viewBox="-8 -1506 16 786" xmlns="http://www.w3.org/2000/svg" version="1.1">
<title>OpenSCAD Model</title>
<path d="
M 3.4369,-1356.09 L 4.04507,-1356.24 L 4.62889,-1356.48 L 5.17912,-1356.78 L 5.68712,-1357.15 L 6.14484,-1357.58
 L 6.54507,-1358.06 L 6.88153,-1358.59 L 7.14888,-1359.16 L 7.34291,-1359.76 L 7.46057,-1360.37 L 7.5,-1361
 L 7.5,-1501 L 7.46057,-1501.63 L 7.34291,-1502.24 L 7.14888,-1502.84 L 6.88153,-1503.41 L 6.54507,-1503.94
 L 6.14484,-1504.42 L 5.68712,-1504.85 L 5.17912,-1505.22 L 4.62889,-1505.52 L 4.04507,-1505.76 L 3.4369,-1505.91
 L 2.81395,-1505.99 L -2.81395,-1505.99 L -3.4369,-1505.91 L -4.04507,-1505.76 L -4.62889,-1505.52 L -5.17912,-1505.22
 L -5.68712,-1504.85 L -6.14484,-1504.42 L -6.54507,-1503.94 L -6.88153,-1503.41 L -7.14888,-1502.84 L -7.34291,-1502.24
 L -7.46057,-1501.63 L -7.5,-1501 L -7.5,-1361 L -7.46057,-1360.37 L -7.34291,-1359.76 L -7.14888,-1359.16
 L -6.88153,-1358.59 L -6.54507,-1358.06 L -6.14484,-1357.58 L -5.68712,-1357.15 L -5.17912,-1356.78 L -4.62889,-1356.48
 L -4.04507,-1356.24 L -3.4369,-1356.09 L -2.81395,-1356.01 L 2.81395,-1356.01 z
M -2.25116,-1357.51 L -2.74951,-1357.57 L -3.23605,-1357.7 L -3.70311,-1357.88 L -4.1433,-1358.12 L -4.54968,-1358.42
 L -4.91586,-1358.76 L -5.23605,-1359.15 L -5.50522,-1359.57 L -5.7191,-1360.03 L -5.87433,-1360.51 L -5.96844,-1361
 L -6,-1361.5 L -6,-1500.5 L -5.96844,-1501 L -5.87433,-1501.49 L -5.7191,-1501.97 L -5.50522,-1502.43
 L -5.23605,-1502.85 L -4.91586,-1503.24 L -4.54968,-1503.58 L -4.1433,-1503.88 L -3.70311,-1504.12 L -3.23605,-1504.3
 L -2.74951,-1504.43 L -2.25116,-1504.49 L 2.25116,-1504.49 L 2.74951,-1504.43 L 3.23605,-1504.3 L 3.70311,-1504.12
 L 4.1433,-1503.88 L 4.54968,-1503.58 L 4.91586,-1503.24 L 5.23605,-1502.85 L 5.50522,-1502.43 L 5.7191,-1501.97
 L 5.87433,-1501.49 L 5.96844,-1501 L 6,-1500.5 L 6,-1361.5 L 5.96844,-1361 L 5.87433,-1360.51
 L 5.7191,-1360.03 L 5.50522,-1359.57 L 5.23605,-1359.15 L 4.91586,-1358.76 L 4.54968,-1358.42 L 4.1433,-1358.12
 L 3.70311,-1357.88 L 3.23605,-1357.7 L 2.74951,-1357.57 L 2.25116,-1357.51 z
M 3.4369,-1197.09 L 4.04507,-1197.24 L 4.62889,-1197.48 L 5.17912,-1197.78 L 5.68712,-1198.15 L 6.14484,-1198.58
 L 6.54507,-1199.06 L 6.88153,-1199.59 L 7.14888,-1200.16 L 7.34291,-1200.76 L 7.46057,-1201.37 L 7.5,-1202
 L 7.5,-1342 L 7.46057,-1342.63 L 7.34291,-1343.24 L 7.14888,-1343.84 L 6.88153,-1344.41 L 6.54507,-1344.94
 L 6.14484,-1345.42 L 5.68712,-1345.85 L 5.17912,-1346.22 L 4.62889,-1346.52 L 4.04507,-1346.76 L 3.4369,-1346.91
 L 2.81395,-1346.99 L -2.81395,-1346.99 L -3.4369,-1346.91 L -4.04507,-1346.76 L -4.62889,-1346.52 L -5.17912,-1346.22
 L -5.68712,-1345.85 L -6.14484,-1345.42 L -6.54507,-1344.94 L -6.88153,-1344.41 L -7.14888,-1343.84 L -7.34291,-1343.24
 L -7.46057,-1342.63 L -7.5,-1342 L -7.5,-1202 L -7.46057,-1201.37 L -7.34291,-1200.76 L -7.14888,-1200.16
 L -6.88153,-1199.59 L -6.54507,-1199.06 L -6.14484,-1198.58 L -5.68712,-1198.15 L -5.17912,-1197.78 L -4.62889,-1197.48
 L -4.04507,-1197.24 L -3.4369,-1197.09 L -2.81395,-1197.01 L 2.81395,-1197.01 z
M -2.25116,-1198.51 L -2.74951,-1198.57 L -3.23605,-1198.7 L -3.70311,-1198.88 L -4.1433,-1199.12 L -4.54968,-1199.42
 L -4.91586,-1199.76 L -5.23605,-1200.15 L -5.50522,-1200.57 L -5.7191,-1201.03 L -5.87433,-1201.51 L -5.96844,-1202
 L -6,-1202.5 L -6,-1341.5 L -5.96844,-1342 L -5.87433,-1342.49 L -5.7191,-1342.97 L -5.50522,-1343.43
 L -5.23605,-1343.85 L -4.91586,-1344.24 L -4.54968,-1344.58 L -4.1433,-1344.88 L -3.70311,-1345.12 L -3.23605,-1345.3
 L -2.74951,-1345.43 L -2.25116,-1345.49 L 2.25116,-1345.49 L 2.74951,-1345.43 L 3.23605,-1345.3 L 3.70311,-1345.12
 L 4.1433,-1344.88 L 4.54968,-1344.58 L 4.91586,-1344.24 L 5.23605,-1343.85 L 5.50522,-1343.43 L 5.7191,-1342.97
 L 5.87433,-1342.49 L 5.96844,-1342 L 6,-1341.5 L 6,-1202.5 L 5.96844,-1202 L 5.87433,-1201.51
 L 5.7191,-1201.03 L 5.50522,-1200.57 L 5.23605,-1200.15 L 4.91586,-1199.76 L 4.54968,-1199.42 L 4.1433,-1199.12
 L 3.70311,-1198.88 L 3.23605,-1198.7 L 2.74951,-1198.57 L 2.25116,-1198.51 z
M 3.4369,-1038.09 L 4.04507,-1038.24 L 4.62889,-1038.48 L 5.17912,-1038.78 L 5.68712,-1039.15 L 6.14484,-1039.58
 L 6.54507,-1040.06 L 6.88153,-1040.59 L 7.14888,-1041.16 L 7.34291,-1041.76 L 7.46057,-1042.37 L 7.5,-1043
 L 7.5,-1183 L 7.46057,-1183.63 L 7.34291,-1184.24 L 7.14888,-1184.84 L 6.88153,-1185.41 L 6.54507,-1185.94
 L 6.14484,-1186.42 L 5.68712,-1186.85 L 5.17912,-1187.22 L 4.62889,-1187.52 L 4.04507,-1187.76 L 3.4369,-1187.91
 L 2.81395,-1187.99 L -2.81395,-1187.99 L -3.4369,-1187.91 L -4.04507,-1187.76 L -4.62889,-1187.52 L -5.17912,-1187.22
 L -5.68712,-1186.85 L -6.14484,-1186.42 L -6.54507,-1185.94 L -6.88153,-1185.41 L -7.14888,-1184.84 L -7.34291,-1184.24
 L -7.46057,-1183.63 L -7.5,-1183 L -7.5,-1043 L -7.46057,-1042.37 L -7.34291,-1041.76 L -7.14888,-1041.16
 L -6.88153,-1040.59 L -6.54507,-1040.06 L -6.14484,-1039.58 L -5.68712,-1039.15 L -5.17912,-1038.78 L -4.62889,-1038.48
 L -4.04507,-1038.24 L -3.4369,-1038.09 L -2.81395,-1038.01 L 2.81395,-1038.01 z
M -2.25116,-1039.51 L -2.74951,-1039.57 L -3.23605,-1039.7 L -3.70311,-1039.88 L -4.1433,-1040.12 L -4.54968,-1040.42
 L -4.91586,-1040.76 L -5.23605,-1041.15 L -5.50522,-1041.57 L -5.7191,-1042.03 L -5.87433,-1042.51 L -5.96844,-1043
 L -6,-1043.5 L -6,-1182.5 L -5.96844,-1183 L -5.87433,-1183.49 L -5.7191,-1183.97 L -5.50522,-1184.43
 L -5.23605,-1184.85 L -4.91586,-1185.24 L -4.54968,-1185.58 L -4.1433,-1185.88 L -3.70311,-1186.12 L -3.23605,-1186.3
 L -2.74951,-1186.43 L -2.25116,-1186.49 L 2.25116,-1186.49 L 2.74951,-1186.43 L 3.23605,-1186.3 L 3.70311,-1186.12
 L 4.1433,-1185.88 L 4.54968,-1185.58 L 4.91586,-1185.24 L 5.23605,-1184.85 L 5.50522,-1184.43 L 5.7191,-1183.97
 L 5.87433,-1183.49 L 5.96844,-1183 L 6,-1182.5 L 6,-1043.5 L 5.96844,-1043 L 5.87433,-1042.51
 L 5.7191,-1042.03 L 5.50522,-1041.57 L 5.23605,-1041.15 L 4.91586,-1040.76 L 4.54968,-1040.42 L 4.1433,-1040.12
 L 3.70311,-1039.88 L 3.23605,-1039.7 L 2.74951,-1039.57 L 2.25116,-1039.51 z
M 3.4369,-879.089 L 4.04507,-879.245 L 4.62889,-879.476 L 5.17912,-879.778 L 5.68712,-880.147 L 6.14484,-880.577
 L 6.54507,-881.061 L 6.88153,-881.591 L 7.14888,-882.159 L 7.34291,-882.757 L 7.46057,-883.373 L 7.5,-884
 L 7.5,-1024 L 7.46057,-1024.63 L 7.34291,-1025.24 L 7.14888,-1025.84 L 6.88153,-1026.41 L 6.54507,-1026.94
 L 6.14484,-1027.42 L 5.68712,-1027.85 L 5.17912,-1028.22 L 4.62889,-1028.52 L 4.04507,-1028.76 L 3.4369,-1028.91
 L 2.81395,-1028.99 L -2.81395,-1028.99 L -3.4369,-1028.91 L -4.04507,-1028.76 L -4.62889,-1028.52 L -5.17912,-1028.22
 L -5.68712,-1027.85 L -6.14484,-1027.42 L -6.54507,-1026.94 L -6.88153,-1026.41 L -7.14888,-1025.84 L -7.34291,-1025.24
 L -7.46057,-1024.63 L -7.5,-1024 L -7.5,-884 L -7.46057,-883.373 L -7.34291,-882.757 L -7.14888,-882.159
 L -6.88153,-881.591 L -6.54507,-881.061 L -6.14484,-880.577 L -5.68712,-880.147 L -5.17912,-879.778 L -4.62889,-879.476
 L -4.04507,-879.245 L -3.4369,-879.089 L -2.81395,-879.01 L 2.81395,-879.01 z
M -2.19545,-881.393 L -2.5833,-881.442 L -2.96194,-881.539 L -3.32541,-881.683 L -3.66798,-881.872 L -3.98424,-882.101
 L -4.26921,-882.369 L -4.5184,-882.67 L -4.72786,-883 L -4.89432,-883.354 L -5.01512,-883.726 L -5.08836,-884.11
 L -5.11292,-884.5 L -5.11292,-1023.5 L -5.08836,-1023.89 L -5.01512,-1024.27 L -4.89432,-1024.65 L -4.72786,-1025
 L -4.5184,-1025.33 L -4.26921,-1025.63 L -3.98424,-1025.9 L -3.66798,-1026.13 L -3.32541,-1026.32 L -2.96194,-1026.46
 L -2.5833,-1026.56 L -2.19545,-1026.61 L 2.19545,-1026.61 L 2.5833,-1026.56 L 2.96194,-1026.46 L 3.32541,-1026.32
 L 3.66798,-1026.13 L 3.98424,-1025.9 L 4.26921,-1025.63 L 4.5184,-1025.33 L 4.72786,-1025 L 4.89432,-1024.65
 L 5.01512,-1024.27 L 5.08836,-1023.89 L 5.11292,-1023.5 L 5.11292,-884.5 L 5.08836,-884.11 L 5.01512,-883.726
 L 4.89432,-883.354 L 4.72786,-883 L 4.5184,-882.67 L 4.26921,-882.369 L 3.98424,-882.101 L 3.66798,-881.872
 L 3.32541,-881.683 L 2.96194,-881.539 L 2.5833,-881.442 L 2.19545,-881.393 z
M 3.4369,-720.089 L 4.04507,-720.245 L 4.62889,-720.476 L 5.17912,-720.778 L 5.68712,-721.147 L 6.14484,-721.577
 L 6.54507,-722.061 L 6.88153,-722.591 L 7.14888,-723.159 L 7.34291,-723.757 L 7.46057,-724.373 L 7.5,-725
 L 7.5,-865 L 7.46057,-865.627 L 7.34291,-866.243 L 7.14888,-866.841 L 6.88153,-867.409 L 6.54507,-867.939
 L 6.14484,-868.423 L 5.68712,-868.853 L 5.17912,-869.222 L 4.62889,-869.524 L 4.04507,-869.755 L 3.4369,-869.911
 L 2.81395,-869.99 L -2.81395,-869.99 L -3.4369,-869.911 L -4.04507,-869.755 L -4.62889,-869.524 L -5.17912,-869.222
 L -5.68712,-868.853 L -6.14484,-868.423 L -6.54507,-867.939 L -6.88153,-867.409 L -7.14888,-866.841 L -7.34291,-866.243
 L -7.46057,-865.627 L -7.5,-865 L -7.5,-725 L -7.46057,-724.373 L -7.34291,-723.757 L -7.14888,-723.159
 L -6.88153,-722.591 L -6.54507,-722.061 L -6.14484,-721.577 L -5.68712,-721.147 L -5.17912,-720.778 L -4.62889,-720.476
 L -4.04507,-720.245 L -3.4369,-720.089 L -2.81395,-720.01 L 2.81395,-720.01 z
M -0.134064,-860.369 L -0.400101,-860.403 L -0.659836,-860.469 L -0.909149,-860.568 L -1.14413,-860.697 L -1.36108,-860.855
 L -1.55655,-861.038 L -1.72748,-861.245 L -1.87117,-861.471 L -1.98534,-861.714 L -2.06821,-861.969 L -2.11845,-862.232
 L -2.13528,-862.5 L -2.11845,-862.768 L -2.06821,-863.031 L -1.98534,-863.286 L -1.87117,-863.529 L -1.72748,-863.755
 L -1.55655,-863.962 L -1.36108,-864.145 L -1.14413,-864.303 L -0.909149,-864.432 L -0.659836,-864.531 L -0.400101,-864.597
 L -0.134064,-864.631 L 0.134064,-864.631 L 0.400101,-864.597 L 0.659836,-864.531 L 0.909149,-864.432 L 1.14413,-864.303
 L 1.36108,-864.145 L 1.55655,-863.962 L 1.72748,-863.755 L 1.87117,-863.529 L 1.98534,-863.286 L 2.06821,-863.031
 L 2.11845,-862.768 L 2.13528,-862.5 L 2.11845,-862.232 L 2.06821,-861.969 L 1.98534,-861.714 L 1.87117,-861.471
 L 1.72748,-861.245 L 1.55655,-861.038 L 1.36108,-860.855 L 1.14413,-860.697 L 0.909149,-860.568 L 0.659836,-860.469
 L 0.400101,-860.403 L 0.134064,-860.369 z
M -0.134064,-725.369 L -0.400101,-725.403 L -0.659836,-725.469 L -0.909149,-725.568 L -1.14413,-725.697 L -1.36108,-725.855
 L -1.55655,-726.038 L -1.72748,-726.245 L -1.87117,-726.471 L -1.98534,-726.714 L -2.06821,-726.969 L -2.11845,-727.232
 L -2.13528,-727.5 L -2.11845,-727.768 L -2.06821,-728.031 L -1.98534,-728.286 L -1.87117,-728.529 L -1.72748,-728.755
 L -1.55655,-728.962 L -1.36108,-729.145 L -1.14413,-729.303 L -0.909149,-729.432 L -0.659836,-729.531 L -0.400101,-729.597
 L -0.134064,-729.631 L 0.134064,-729.631 L 0.400101,-729.597 L 0.659836,-729.531 L 0.909149,-729.432 L 1.14413,-729.303
 L 1.36108,-729.145 L 1.55655,-728.962 L 1.72748,-728.755 L 1.87117,-728.529 L 1.98534,-728.286 L 2.06821,-728.031
 L 2.11845,-727.768 L 2.13528,-727.5 L 2.11845,-727.232 L 2.06821,-726.969 L 1.98534,-726.714 L 1.87117,-726.471
 L 1.72748,-726.245 L 1.55655,-726.038 L 1.36108,-725.855 L 1.14413,-725.697 L 0.909149,-725.568 L 0.659836,-725.469
 L 0.400101,-725.403 L 0.134064,-725.369 z
" stroke="black" fill="lightgray" stroke-width="0.5"/>
</svg>
