<?xml version="1.0" standalone="no"?>
<!DOCTYPE svg PUBLIC "-//W3C//DTD SVG 1.1//EN" "http://www.w3.org/Graphics/SVG/1.1/DTD/svg11.dtd">
<svg width="46mm" height="862mm" viewBox="-23 -1649 46 862" xmlns="http://www.w3.org/2000/svg" version="1.1">
<title>OpenSCAD Model</title>
<path d="
M 18.4369,-1483.59 L 19.0451,-1483.74 L 19.6289,-1483.98 L 20.1791,-1484.28 L 20.6871,-1484.65 L 21.1448,-1485.08
 L 21.5451,-1485.56 L 21.8815,-1486.09 L 22.1489,-1486.66 L 22.3429,-1487.26 L 22.4606,-1487.87 L 22.5,-1488.5
 L 22.5,-1643.5 L 22.4606,-1644.13 L 22.3429,-1644.74 L 22.1489,-1645.34 L 21.8815,-1645.91 L 21.5451,-1646.44
 L 21.1448,-1646.92 L 20.6871,-1647.35 L 20.1791,-1647.72 L 19.6289,-1648.02 L 19.0451,-1648.26 L 18.4369,-1648.41
 L 17.8139,-1648.49 L -17.8139,-1648.49 L -18.4369,-1648.41 L -19.0451,-1648.26 L -19.6289,-1648.02 L -20.1791,-1647.72
 L -20.6871,-1647.35 L -21.1448,-1646.92 L -21.5451,-1646.44 L -21.8815,-1645.91 L -22.1489,-1645.34 L -22.3429,-1644.74
 L -22.4606,-1644.13 L -22.5,-1643.5 L -22.5,-1488.5 L -22.4606,-1487.87 L -22.3429,-1487.26 L -22.1489,-1486.66
 L -21.8815,-1486.09 L -21.5451,-1485.56 L -21.1448,-1485.08 L -20.6871,-1484.65 L -20.1791,-1484.28 L -19.6289,-1483.98
 L -19.0451,-1483.74 L -18.4369,-1483.59 L -17.8139,-1483.51 L 17.8139,-1483.51 z
M -17.2512,-1485.01 L -17.7495,-1485.07 L -18.2361,-1485.2 L -18.7031,-1485.38 L -19.1433,-1485.62 L -19.5497,-1485.92
 L -19.9159,-1486.26 L -20.2361,-1486.65 L -20.5052,-1487.07 L -20.7191,-1487.53 L -20.8743,-1488.01 L -20.9684,-1488.5
 L -21,-1489 L -21,-1643 L -20.9684,-1643.5 L -20.8743,-1643.99 L -20.7191,-1644.47 L -20.5052,-1644.93
 L -20.2361,-1645.35 L -19.9159,-1645.74 L -19.5497,-1646.08 L -19.1433,-1646.38 L -18.7031,-1646.62 L -18.2361,-1646.8
 L -17.7495,-1646.93 L -17.2512,-1646.99 L 17.2512,-1646.99 L 17.7495,-1646.93 L 18.2361,-1646.8 L 18.7031,-1646.62
 L 19.1433,-1646.38 L 19.5497,-1646.08 L 19.9159,-1645.74 L 20.2361,-1645.35 L 20.5052,-1644.93 L 20.7191,-1644.47
 L 20.8743,-1643.99 L 20.9684,-1643.5 L 21,-1643 L 21,-1489 L 20.9684,-1488.5 L 20.8743,-1488.01
 L 20.7191,-1487.53 L 20.5052,-1487.07 L 20.2361,-1486.65 L 19.9159,-1486.26 L 19.5497,-1485.92 L 19.1433,-1485.62
 L 18.7031,-1485.38 L 18.2361,-1485.2 L 17.7495,-1485.07 L 17.2512,-1485.01 z
M 18.4369,-1309.59 L 19.0451,-1309.74 L 19.6289,-1309.98 L 20.1791,-1310.28 L 20.6871,-1310.65 L 21.1448,-1311.08
 L 21.5451,-1311.56 L 21.8815,-1312.09 L 22.1489,-1312.66 L 22.3429,-1313.26 L 22.4606,-1313.87 L 22.5,-1314.5
 L 22.5,-1469.5 L 22.4606,-1470.13 L 22.3429,-1470.74 L 22.1489,-1471.34 L 21.8815,-1471.91 L 21.5451,-1472.44
 L 21.1448,-1472.92 L 20.6871,-1473.35 L 20.1791,-1473.72 L 19.6289,-1474.02 L 19.0451,-1474.26 L 18.4369,-1474.41
 L 17.8139,-1474.49 L -17.8139,-1474.49 L -18.4369,-1474.41 L -19.0451,-1474.26 L -19.6289,-1474.02 L -20.1791,-1473.72
 L -20.6871,-1473.35 L -21.1448,-1472.92 L -21.5451,-1472.44 L -21.8815,-1471.91 L -22.1489,-1471.34 L -22.3429,-1470.74
 L -22.4606,-1470.13 L -22.5,-1469.5 L -22.5,-1314.5 L -22.4606,-1313.87 L -22.3429,-1313.26 L -22.1489,-1312.66
 L -21.8815,-1312.09 L -21.5451,-1311.56 L -21.1448,-1311.08 L -20.6871,-1310.65 L -20.1791,-1310.28 L -19.6289,-1309.98
 L -19.0451,-1309.74 L -18.4369,-1309.59 L -17.8139,-1309.51 L 17.8139,-1309.51 z
M -17.2512,-1311.01 L -17.7495,-1311.07 L -18.2361,-1311.2 L -18.7031,-1311.38 L -19.1433,-1311.62 L -19.5497,-1311.92
 L -19.9159,-1312.26 L -20.2361,-1312.65 L -20.5052,-1313.07 L -20.7191,-1313.53 L -20.8743,-1314.01 L -20.9684,-1314.5
 L -21,-1315 L -21,-1469 L -20.9684,-1469.5 L -20.8743,-1469.99 L -20.7191,-1470.47 L -20.5052,-1470.93
 L -20.2361,-1471.35 L -19.9159,-1471.74 L -19.5497,-1472.08 L -19.1433,-1472.38 L -18.7031,-1472.62 L -18.2361,-1472.8
 L -17.7495,-1472.93 L -17.2512,-1472.99 L 17.2512,-1472.99 L 17.7495,-1472.93 L 18.2361,-1472.8 L 18.7031,-1472.62
 L 19.1433,-1472.38 L 19.5497,-1472.08 L 19.9159,-1471.74 L 20.2361,-1471.35 L 20.5052,-1470.93 L 20.7191,-1470.47
 L 20.8743,-1469.99 L 20.9684,-1469.5 L 21,-1469 L 21,-1315 L 20.9684,-1314.5 L 20.8743,-1314.01
 L 20.7191,-1313.53 L 20.5052,-1313.07 L 20.2361,-1312.65 L 19.9159,-1312.26 L 19.5497,-1311.92 L 19.1433,-1311.62
 L 18.7031,-1311.38 L 18.2361,-1311.2 L 17.7495,-1311.07 L 17.2512,-1311.01 z
M 18.4369,-1135.59 L 19.0451,-1135.74 L 19.6289,-1135.98 L 20.1791,-1136.28 L 20.6871,-1136.65 L 21.1448,-1137.08
 L 21.5451,-1137.56 L 21.8815,-1138.09 L 22.1489,-1138.66 L 22.3429,-1139.26 L 22.4606,-1139.87 L 22.5,-1140.5
 L 22.5,-1295.5 L 22.4606,-1296.13 L 22.3429,-1296.74 L 22.1489,-1297.34 L 21.8815,-1297.91 L 21.5451,-1298.44
 L 21.1448,-1298.92 L 20.6871,-1299.35 L 20.1791,-1299.72 L 19.6289,-1300.02 L 19.0451,-1300.26 L 18.4369,-1300.41
 L 17.8139,-1300.49 L -17.8139,-1300.49 L -18.4369,-1300.41 L -19.0451,-1300.26 L -19.6289,-1300.02 L -20.1791,-1299.72
 L -20.6871,-1299.35 L -21.1448,-1298.92 L -21.5451,-1298.44 L -21.8815,-1297.91 L -22.1489,-1297.34 L -22.3429,-1296.74
 L -22.4606,-1296.13 L -22.5,-1295.5 L -22.5,-1140.5 L -22.4606,-1139.87 L -22.3429,-1139.26 L -22.1489,-1138.66
 L -21.8815,-1138.09 L -21.5451,-1137.56 L -21.1448,-1137.08 L -20.6871,-1136.65 L -20.1791,-1136.28 L -19.6289,-1135.98
 L -19.0451,-1135.74 L -18.4369,-1135.59 L -17.8139,-1135.51 L 17.8139,-1135.51 z
M -17.2512,-1137.01 L -17.7495,-1137.07 L -18.2361,-1137.2 L -18.7031,-1137.38 L -19.1433,-1137.62 L -19.5497,-1137.92
 L -19.9159,-1138.26 L -20.2361,-1138.65 L -20.5052,-1139.07 L -20.7191,-1139.53 L -20.8743,-1140.01 L -20.9684,-1140.5
 L -21,-1141 L -21,-1295 L -20.9684,-1295.5 L -20.8743,-1295.99 L -20.7191,-1296.47 L -20.5052,-1296.93
 L -20.2361,-1297.35 L -19.9159,-1297.74 L -19.5497,-1298.08 L -19.1433,-1298.38 L -18.7031,-1298.62 L -18.2361,-1298.8
 L -17.7495,-1298.93 L -17.2512,-1298.99 L 17.2512,-1298.99 L 17.7495,-1298.93 L 18.2361,-1298.8 L 18.7031,-1298.62
 L 19.1433,-1298.38 L 19.5497,-1298.08 L 19.9159,-1297.74 L 20.2361,-1297.35 L 20.5052,-1296.93 L 20.7191,-1296.47
 L 20.8743,-1295.99 L 20.9684,-1295.5 L 21,-1295 L 21,-1141 L 20.9684,-1140.5 L 20.8743,-1140.01
 L 20.7191,-1139.53 L 20.5052,-1139.07 L 20.2361,-1138.65 L 19.9159,-1138.26 L 19.5497,-1137.92 L 19.1433,-1137.62
 L 18.7031,-1137.38 L 18.2361,-1137.2 L 17.7495,-1137.07 L 17.2512,-1137.01 z
M 18.4369,-961.589 L 19.0451,-961.745 L 19.6289,-961.976 L 20.1791,-962.278 L 20.6871,-962.647 L 21.1448,-963.077
 L 21.5451,-963.561 L 21.8815,-964.091 L 22.1489,-964.659 L 22.3429,-965.257 L 22.4606,-965.873 L 22.5,-966.5
 L 22.5,-1121.5 L 22.4606,-1122.13 L 22.3429,-1122.74 L 22.1489,-1123.34 L 21.8815,-1123.91 L 21.5451,-1124.44
 L 21.1448,-1124.92 L 20.6871,-1125.35 L 20.1791,-1125.72 L 19.6289,-1126.02 L 19.0451,-1126.26 L 18.4369,-1126.41
 L 17.8139,-1126.49 L -17.8139,-1126.49 L -18.4369,-1126.41 L -19.0451,-1126.26 L -19.6289,-1126.02 L -20.1791,-1125.72
 L -20.6871,-1125.35 L -21.1448,-1124.92 L -21.5451,-1124.44 L -21.8815,-1123.91 L -22.1489,-1123.34 L -22.3429,-1122.74
 L -22.4606,-1122.13 L -22.5,-1121.5 L -22.5,-966.5 L -22.4606,-965.873 L -22.3429,-965.257 L -22.1489,-964.659
 L -21.8815,-964.091 L -21.5451,-963.561 L -21.1448,-963.077 L -20.6871,-962.647 L -20.1791,-962.278 L -19.6289,-961.976
 L -19.0451,-961.745 L -18.4369,-961.589 L -17.8139,-961.51 L 17.8139,-961.51 z
M -17.1954,-963.893 L -17.5833,-963.942 L -17.9619,-964.039 L -18.3254,-964.183 L -18.668,-964.372 L -18.9842,-964.601
 L -19.2692,-964.869 L -19.5184,-965.17 L -19.7279,-965.5 L -19.8943,-965.854 L -20.0151,-966.226 L -20.0884,-966.61
 L -20.1129,-967 L -20.1129,-1121 L -20.0884,-1121.39 L -20.0151,-1121.77 L -19.8943,-1122.15 L -19.7279,-1122.5
 L -19.5184,-1122.83 L -19.2692,-1123.13 L -18.9842,-1123.4 L -18.668,-1123.63 L -18.3254,-1123.82 L -17.9619,-1123.96
 L -17.5833,-1124.06 L -17.1954,-1124.11 L 17.1954,-1124.11 L 17.5833,-1124.06 L 17.9619,-1123.96 L 18.3254,-1123.82
 L 18.668,-1123.63 L 18.9842,-1123.4 L 19.2692,-1123.13 L 19.5184,-1122.83 L 19.7279,-1122.5 L 19.8943,-1122.15
 L 20.0151,-1121.77 L 20.0884,-1121.39 L 20.1129,-1121 L 20.1129,-967 L 20.0884,-966.61 L 20.0151,-966.226
 L 19.8943,-965.854 L 19.7279,-965.5 L 19.5184,-965.17 L 19.2692,-964.869 L 18.9842,-964.601 L 18.668,-964.372
 L 18.3254,-964.183 L 17.9619,-964.039 L 17.5833,-963.942 L 17.1954,-963.893 z
M 18.4369,-787.589 L 19.0451,-787.745 L 19.6289,-787.976 L 20.1791,-788.278 L 20.6871,-788.647 L 21.1448,-789.077
 L 21.5451,-789.561 L 21.8815,-790.091 L 22.1489,-790.659 L 22.3429,-791.257 L 22.4606,-791.873 L 22.5,-792.5
 L 22.5,-947.5 L 22.4606,-948.127 L 22.3429,-948.743 L 22.1489,-949.341 L 21.8815,-949.909 L 21.5451,-950.439
 L 21.1448,-950.923 L 20.6871,-951.353 L 20.1791,-951.722 L 19.6289,-952.024 L 19.0451,-952.255 L 18.4369,-952.411
 L 17.8139,-952.49 L -17.8139,-952.49 L -18.4369,-952.411 L -19.0451,-952.255 L -19.6289,-952.024 L -20.1791,-951.722
 L -20.6871,-951.353 L -21.1448,-950.923 L -21.5451,-950.439 L -21.8815,-949.909 L -22.1489,-949.341 L -22.3429,-948.743
 L -22.4606,-948.127 L -22.5,-947.5 L -22.5,-792.5 L -22.4606,-791.873 L -22.3429,-791.257 L -22.1489,-790.659
 L -21.8815,-790.091 L -21.5451,-789.561 L -21.1448,-789.077 L -20.6871,-788.647 L -20.1791,-788.278 L -19.6289,-787.976
 L -19.0451,-787.745 L -18.4369,-787.589 L -17.8139,-787.51 L 17.8139,-787.51 z
M 14.8659,-942.869 L 14.5999,-942.903 L 14.3401,-942.969 L 14.0908,-943.068 L 13.8559,-943.197 L 13.6389,-943.355
 L 13.4434,-943.538 L 13.2725,-943.745 L 13.1288,-943.971 L 13.0146,-944.214 L 12.9318,-944.469 L 12.8815,-944.732
 L 12.8647,-945 L 12.8815,-945.268 L 12.9318,-945.531 L 13.0146,-945.786 L 13.1288,-946.029 L 13.2725,-946.255
 L 13.4434,-946.462 L 13.6389,-946.645 L 13.8559,-946.803 L 14.0908,-946.932 L 14.3401,-947.031 L 14.5999,-947.097
 L 14.8659,-947.131 L 15.1341,-947.131 L 15.4001,-947.097 L 15.6598,-947.031 L 15.9091,-946.932 L 16.1441,-946.803
 L 16.3611,-946.645 L 16.5565,-946.462 L 16.7275,-946.255 L 16.8712,-946.029 L 16.9853,-945.786 L 17.0682,-945.531
 L 17.1185,-945.268 L 17.1353,-945 L 17.1185,-944.732 L 17.0682,-944.469 L 16.9853,-944.214 L 16.8712,-943.971
 L 16.7275,-943.745 L 16.5565,-943.538 L 16.3611,-943.355 L 16.1441,-943.197 L 15.9091,-943.068 L 15.6598,-942.969
 L 15.4001,-942.903 L 15.1341,-942.869 z
M -15.1341,-942.869 L -15.4001,-942.903 L -15.6598,-942.969 L -15.9091,-943.068 L -16.1441,-943.197 L -16.3611,-943.355
 L -16.5565,-943.538 L -16.7275,-943.745 L -16.8712,-943.971 L -16.9853,-944.214 L -17.0682,-944.469 L -17.1185,-944.732
 L -17.1353,-945 L -17.1185,-945.268 L -17.0682,-945.531 L -16.9853,-945.786 L -16.8712,-946.029 L -16.7275,-946.255
 L -16.5565,-946.462 L -16.3611,-946.645 L -16.1441,-946.803 L -15.9091,-946.932 L -15.6598,-947.031 L -15.4001,-947.097
 L -15.1341,-947.131 L -14.8659,-947.131 L -14.5999,-947.097 L -14.3401,-947.031 L -14.0908,-946.932 L -13.8559,-946.803
 L -13.6389,-946.645 L -13.4434,-946.462 L -13.2725,-946.255 L -13.1288,-946.029 L -13.0146,-945.786 L -12.9318,-945.531
 L -12.8815,-945.268 L -12.8647,-945 L -12.8815,-944.732 L -12.9318,-944.469 L -13.0146,-944.214 L -13.1288,-943.971
 L -13.2725,-943.745 L -13.4434,-943.538 L -13.6389,-943.355 L -13.8559,-943.197 L -14.0908,-943.068 L -14.3401,-942.969
 L -14.5999,-942.903 L -14.8659,-942.869 z
M 14.8659,-792.869 L 14.5999,-792.903 L 14.3401,-792.969 L 14.0908,-793.068 L 13.8559,-793.197 L 13.6389,-793.355
 L 13.4434,-793.538 L 13.2725,-793.745 L 13.1288,-793.971 L 13.0146,-794.214 L 12.9318,-794.469 L 12.8815,-794.732
 L 12.8647,-795 L 12.8815,-795.268 L 12.9318,-795.531 L 13.0146,-795.786 L 13.1288,-796.029 L 13.2725,-796.255
 L 13.4434,-796.462 L 13.6389,-796.645 L 13.8559,-796.803 L 14.0908,-796.932 L 14.3401,-797.031 L 14.5999,-797.097
 L 14.8659,-797.131 L 15.1341,-797.131 L 15.4001,-797.097 L 15.6598,-797.031 L 15.9091,-796.932 L 16.1441,-796.803
 L 16.3611,-796.645 L 16.5565,-796.462 L 16.7275,-796.255 L 16.8712,-796.029 L 16.9853,-795.786 L 17.0682,-795.531
 L 17.1185,-795.268 L 17.1353,-795 L 17.1185,-794.732 L 17.0682,-794.469 L 16.9853,-794.214 L 16.8712,-793.971
 L 16.7275,-793.745 L 16.5565,-793.538 L 16.3611,-793.355 L 16.1441,-793.197 L 15.9091,-793.068 L 15.6598,-792.969
 L 15.4001,-792.903 L 15.1341,-792.869 z
M -15.1341,-792.869 L -15.4001,-792.903 L -15.6598,-792.969 L -15.9091,-793.068 L -16.1441,-793.197 L -16.3611,-793.355
 L -16.5565,-793.538 L -16.7275,-793.745 L -16.8712,-793.971 L -16.9853,-794.214 L -17.0682,-794.469 L -17.1185,-794.732
 L -17.1353,-795 L -17.1185,-795.268 L -17.0682,-795.531 L -16.9853,-795.786 L -16.8712,-796.029 L -16.7275,-796.255
 L -16.5565,-796.462 L -16.3611,-796.645 L -16.1441,-796.803 L -15.9091,-796.932 L -15.6598,-797.031 L -15.4001,-797.097
 L -15.1341,-797.131 L -14.8659,-797.131 L -14.5999,-797.097 L -14.3401,-797.031 L -14.0908,-796.932 L -13.8559,-796.803
 L -13.6389,-796.645 L -13.4434,-796.462 L -13.2725,-796.255 L -13.1288,-796.029 L -13.0146,-795.786 L -12.9318,-795.531
 L -12.8815,-795.268 L -12.8647,-795 L -12.8815,-794.732 L -12.9318,-794.469 L -13.0146,-794.214 L -13.1288,-793.971
 L -13.2725,-793.745 L -13.4434,-793.538 L -13.6389,-793.355 L -13.8559,-793.197 L -14.0908,-793.068 L -14.3401,-792.969
 L -14.5999,-792.903 L -14.8659,-792.869 z
" stroke="black" fill="lightgray" stroke-width="0.5"/>
</svg>
