<?xml version="1.0" standalone="no"?>
<!DOCTYPE svg PUBLIC "-//W3C//DTD SVG 1.1//EN" "http://www.w3.org/Graphics/SVG/1.1/DTD/svg11.dtd">
<svg width="46mm" height="154mm" viewBox="-23 -239 46 154" xmlns="http://www.w3.org/2000/svg" version="1.1">
<title>OpenSCAD Model</title>
<path d="
M 18.4369,-193.589 L 19.0451,-193.745 L 19.6289,-193.976 L 20.1791,-194.278 L 20.6871,-194.647 L 21.1448,-195.077
 L 21.5451,-195.561 L 21.8815,-196.091 L 22.1489,-196.659 L 22.3429,-197.257 L 22.4606,-197.873 L 22.5,-198.5
 L 22.5,-233.5 L 22.4606,-234.127 L 22.3429,-234.743 L 22.1489,-235.341 L 21.8815,-235.909 L 21.5451,-236.439
 L 21.1448,-236.923 L 20.6871,-237.353 L 20.1791,-237.722 L 19.6289,-238.024 L 19.0451,-238.255 L 18.4369,-238.411
 L 17.8139,-238.49 L -17.8139,-238.49 L -18.4369,-238.411 L -19.0451,-238.255 L -19.6289,-238.024 L -20.1791,-237.722
 L -20.6871,-237.353 L -21.1448,-236.923 L -21.5451,-236.439 L -21.8815,-235.909 L -22.1489,-235.341 L -22.3429,-234.743
 L -22.4606,-234.127 L -22.5,-233.5 L -22.5,-198.5 L -22.4606,-197.873 L -22.3429,-197.257 L -22.1489,-196.659
 L -21.8815,-196.091 L -21.5451,-195.561 L -21.1448,-195.077 L -20.6871,-194.647 L -20.1791,-194.278 L -19.6289,-193.976
 L -19.0451,-193.745 L -18.4369,-193.589 L -17.8139,-193.51 L 17.8139,-193.51 z
M -17.5482,-194.009 L -18.1401,-194.084 L -18.7178,-194.232 L -19.2724,-194.452 L -19.7952,-194.739 L -20.2778,-195.09
 L -20.7126,-195.498 L -21.0928,-195.958 L -21.4124,-196.462 L -21.6664,-197.001 L -21.8508,-197.569 L -21.9625,-198.155
 L -22,-198.75 L -22,-233.25 L -21.9625,-233.845 L -21.8508,-234.431 L -21.6664,-234.999 L -21.4124,-235.538
 L -21.0928,-236.042 L -20.7126,-236.502 L -20.2778,-236.91 L -19.7952,-237.261 L -19.2724,-237.548 L -18.7178,-237.768
 L -18.1401,-237.916 L -17.5482,-237.991 L 17.5482,-237.991 L 18.1401,-237.916 L 18.7178,-237.768 L 19.2724,-237.548
 L 19.7952,-237.261 L 20.2778,-236.91 L 20.7126,-236.502 L 21.0928,-236.042 L 21.4124,-235.538 L 21.6664,-234.999
 L 21.8508,-234.431 L 21.9625,-233.845 L 22,-233.25 L 22,-198.75 L 21.9625,-198.155 L 21.8508,-197.569
 L 21.6664,-197.001 L 21.4124,-196.462 L 21.0928,-195.958 L 20.7126,-195.498 L 20.2778,-195.09 L 19.7952,-194.739
 L 19.2724,-194.452 L 18.7178,-194.232 L 18.1401,-194.084 L 17.5482,-194.009 z
M 18.4369,-139.589 L 19.0451,-139.745 L 19.6289,-139.976 L 20.1791,-140.278 L 20.6871,-140.647 L 21.1448,-141.077
 L 21.5451,-141.561 L 21.8815,-142.091 L 22.1489,-142.659 L 22.3429,-143.257 L 22.4606,-143.873 L 22.5,-144.5
 L 22.5,-179.5 L 22.4606,-180.127 L 22.3429,-180.743 L 22.1489,-181.341 L 21.8815,-181.909 L 21.5451,-182.439
 L 21.1448,-182.923 L 20.6871,-183.353 L 20.1791,-183.722 L 19.6289,-184.024 L 19.0451,-184.255 L 18.4369,-184.411
 L 17.8139,-184.49 L -17.8139,-184.49 L -18.4369,-184.411 L -19.0451,-184.255 L -19.6289,-184.024 L -20.1791,-183.722
 L -20.6871,-183.353 L -21.1448,-182.923 L -21.5451,-182.439 L -21.8815,-181.909 L -22.1489,-181.341 L -22.3429,-180.743
 L -22.4606,-180.127 L -22.5,-179.5 L -22.5,-144.5 L -22.4606,-143.873 L -22.3429,-143.257 L -22.1489,-142.659
 L -21.8815,-142.091 L -21.5451,-141.561 L -21.1448,-141.077 L -20.6871,-140.647 L -20.1791,-140.278 L -19.6289,-139.976
 L -19.0451,-139.745 L -18.4369,-139.589 L -17.8139,-139.51 L 17.8139,-139.51 z
M -17.493,-140.888 L -17.9751,-140.949 L -18.4457,-141.07 L -18.8975,-141.249 L -19.3234,-141.483 L -19.7165,-141.769
 L -20.0707,-142.101 L -20.3805,-142.476 L -20.6408,-142.886 L -20.8477,-143.326 L -20.9979,-143.788 L -21.089,-144.265
 L -21.1195,-144.75 L -21.1195,-179.25 L -21.089,-179.735 L -20.9979,-180.212 L -20.8477,-180.674 L -20.6408,-181.114
 L -20.3805,-181.524 L -20.0707,-181.899 L -19.7165,-182.231 L -19.3234,-182.517 L -18.8975,-182.751 L -18.4457,-182.93
 L -17.9751,-183.051 L -17.493,-183.112 L 17.493,-183.112 L 17.9751,-183.051 L 18.4457,-182.93 L 18.8975,-182.751
 L 19.3234,-182.517 L 19.7165,-182.231 L 20.0707,-181.899 L 20.3805,-181.524 L 20.6408,-181.114 L 20.8477,-180.674
 L 20.9979,-180.212 L 21.089,-179.735 L 21.1195,-179.25 L 21.1195,-144.75 L 21.089,-144.265 L 20.9979,-143.788
 L 20.8477,-143.326 L 20.6408,-142.886 L 20.3805,-142.476 L 20.0707,-142.101 L 19.7165,-141.769 L 19.3234,-141.483
 L 18.8975,-141.249 L 18.4457,-141.07 L 17.9751,-140.949 L 17.493,-140.888 z
M 18.4369,-85.5886 L 19.0451,-85.7447 L 19.6289,-85.9759 L 20.1791,-86.2784 L 20.6871,-86.6474 L 21.1448,-87.0773
 L 21.5451,-87.5611 L 21.8815,-88.0912 L 22.1489,-88.6594 L 22.3429,-89.2566 L 22.4606,-89.8733 L 22.5,-90.5
 L 22.5,-125.5 L 22.4606,-126.127 L 22.3429,-126.743 L 22.1489,-127.341 L 21.8815,-127.909 L 21.5451,-128.439
 L 21.1448,-128.923 L 20.6871,-129.353 L 20.1791,-129.722 L 19.6289,-130.024 L 19.0451,-130.255 L 18.4369,-130.411
 L 17.8139,-130.49 L -17.8139,-130.49 L -18.4369,-130.411 L -19.0451,-130.255 L -19.6289,-130.024 L -20.1791,-129.722
 L -20.6871,-129.353 L -21.1448,-128.923 L -21.5451,-128.439 L -21.8815,-127.909 L -22.1489,-127.341 L -22.3429,-126.743
 L -22.4606,-126.127 L -22.5,-125.5 L -22.5,-90.5 L -22.4606,-89.8733 L -22.3429,-89.2566 L -22.1489,-88.6594
 L -21.8815,-88.0912 L -21.5451,-87.5611 L -21.1448,-87.0773 L -20.6871,-86.6474 L -20.1791,-86.2784 L -19.6289,-85.9759
 L -19.0451,-85.7447 L -18.4369,-85.5886 L -17.8139,-85.5099 L 17.8139,-85.5099 z
M 14.887,-121.204 L 14.6627,-121.232 L 14.4438,-121.288 L 14.2336,-121.371 L 14.0355,-121.48 L 13.8526,-121.613
 L 13.6879,-121.768 L 13.5438,-121.942 L 13.4226,-122.133 L 13.3264,-122.337 L 13.2565,-122.552 L 13.2142,-122.774
 L 13.2,-123 L 13.2142,-123.226 L 13.2565,-123.448 L 13.3264,-123.663 L 13.4226,-123.867 L 13.5438,-124.058
 L 13.6879,-124.232 L 13.8526,-124.387 L 14.0355,-124.52 L 14.2336,-124.629 L 14.4438,-124.712 L 14.6627,-124.768
 L 14.887,-124.796 L 15.113,-124.796 L 15.3373,-124.768 L 15.5562,-124.712 L 15.7664,-124.629 L 15.9645,-124.52
 L 16.1474,-124.387 L 16.3121,-124.232 L 16.4562,-124.058 L 16.5773,-123.867 L 16.6736,-123.663 L 16.7434,-123.448
 L 16.7858,-123.226 L 16.8,-123 L 16.7858,-122.774 L 16.7434,-122.552 L 16.6736,-122.337 L 16.5773,-122.133
 L 16.4562,-121.942 L 16.3121,-121.768 L 16.1474,-121.613 L 15.9645,-121.48 L 15.7664,-121.371 L 15.5562,-121.288
 L 15.3373,-121.232 L 15.113,-121.204 z
M -15.113,-121.204 L -15.3373,-121.232 L -15.5562,-121.288 L -15.7664,-121.371 L -15.9645,-121.48 L -16.1474,-121.613
 L -16.3121,-121.768 L -16.4562,-121.942 L -16.5773,-122.133 L -16.6736,-122.337 L -16.7434,-122.552 L -16.7858,-122.774
 L -16.8,-123 L -16.7858,-123.226 L -16.7434,-123.448 L -16.6736,-123.663 L -16.5773,-123.867 L -16.4562,-124.058
 L -16.3121,-124.232 L -16.1474,-124.387 L -15.9645,-124.52 L -15.7664,-124.629 L -15.5562,-124.712 L -15.3373,-124.768
 L -15.113,-124.796 L -14.887,-124.796 L -14.6627,-124.768 L -14.4438,-124.712 L -14.2336,-124.629 L -14.0355,-124.52
 L -13.8526,-124.387 L -13.6879,-124.232 L -13.5438,-124.058 L -13.4226,-123.867 L -13.3264,-123.663 L -13.2565,-123.448
 L -13.2142,-123.226 L -13.2,-123 L -13.2142,-122.774 L -13.2565,-122.552 L -13.3264,-122.337 L -13.4226,-122.133
 L -13.5438,-121.942 L -13.6879,-121.768 L -13.8526,-121.613 L -14.0355,-121.48 L -14.2336,-121.371 L -14.4438,-121.288
 L -14.6627,-121.232 L -14.887,-121.204 z
M 14.887,-91.2036 L 14.6627,-91.2319 L 14.4438,-91.2881 L 14.2336,-91.3713 L 14.0355,-91.4802 L 13.8526,-91.6131
 L 13.6879,-91.7678 L 13.5438,-91.942 L 13.4226,-92.1329 L 13.3264,-92.3374 L 13.2565,-92.5524 L 13.2142,-92.7744
 L 13.2,-93 L 13.2142,-93.2256 L 13.2565,-93.4476 L 13.3264,-93.6626 L 13.4226,-93.8672 L 13.5438,-94.058
 L 13.6879,-94.2322 L 13.8526,-94.3869 L 14.0355,-94.5198 L 14.2336,-94.6287 L 14.4438,-94.7119 L 14.6627,-94.7681
 L 14.887,-94.7964 L 15.113,-94.7964 L 15.3373,-94.7681 L 15.5562,-94.7119 L 15.7664,-94.6287 L 15.9645,-94.5198
 L 16.1474,-94.3869 L 16.3121,-94.2322 L 16.4562,-94.058 L 16.5773,-93.8672 L 16.6736,-93.6626 L 16.7434,-93.4476
 L 16.7858,-93.2256 L 16.8,-93 L 16.7858,-92.7744 L 16.7434,-92.5524 L 16.6736,-92.3374 L 16.5773,-92.1329
 L 16.4562,-91.942 L 16.3121,-91.7678 L 16.1474,-91.6131 L 15.9645,-91.4802 L 15.7664,-91.3713 L 15.5562,-91.2881
 L 15.3373,-91.2319 L 15.113,-91.2036 z
M -15.113,-91.2036 L -15.3373,-91.2319 L -15.5562,-91.2881 L -15.7664,-91.3713 L -15.9645,-91.4802 L -16.1474,-91.6131
 L -16.3121,-91.7678 L -16.4562,-91.942 L -16.5773,-92.1329 L -16.6736,-92.3374 L -16.7434,-92.5524 L -16.7858,-92.7744
 L -16.8,-93 L -16.7858,-93.2256 L -16.7434,-93.4476 L -16.6736,-93.6626 L -16.5773,-93.8672 L -16.4562,-94.058
 L -16.3121,-94.2322 L -16.1474,-94.3869 L -15.9645,-94.5198 L -15.7664,-94.6287 L -15.5562,-94.7119 L -15.3373,-94.7681
 L -15.113,-94.7964 L -14.887,-94.7964 L -14.6627,-94.7681 L -14.4438,-94.7119 L -14.2336,-94.6287 L -14.0355,-94.5198
 L -13.8526,-94.3869 L -13.6879,-94.2322 L -13.5438,-94.058 L -13.4226,-93.8672 L -13.3264,-93.6626 L -13.2565,-93.4476
 L -13.2142,-93.2256 L -13.2,-93 L -13.2142,-92.7744 L -13.2565,-92.5524 L -13.3264,-92.3374 L -13.4226,-92.1329
 L -13.5438,-91.942 L -13.6879,-91.7678 L -13.8526,-91.6131 L -14.0355,-91.4802 L -14.2336,-91.3713 L -14.4438,-91.2881
 L -14.6627,-91.2319 L -14.887,-91.2036 z
" stroke="black" fill="lightgray" stroke-width="0.5"/>
</svg>
