  0
SECTION
  2
BLOCKS
  0
ENDSEC
  0
SECTION
  2
ENTITIES
  0
LINE
  8
0
 10
25.9369
 20
247.589
 11
26.5451
 21
247.745
  0
LINE
  8
0
 10
26.5451
 20
247.745
 11
27.1289
 21
247.976
  0
LINE
  8
0
 10
27.1289
 20
247.976
 11
27.6791
 21
248.278
  0
LINE
  8
0
 10
27.6791
 20
248.278
 11
28.1871
 21
248.647
  0
LINE
  8
0
 10
28.1871
 20
248.647
 11
28.6448
 21
249.077
  0
LINE
  8
0
 10
28.6448
 20
249.077
 11
29.0451
 21
249.561
  0
LINE
  8
0
 10
29.0451
 20
249.561
 11
29.3815
 21
250.091
  0
LINE
  8
0
 10
29.3815
 20
250.091
 11
29.6489
 21
250.659
  0
LINE
  8
0
 10
29.6489
 20
250.659
 11
29.8429
 21
251.257
  0
LINE
  8
0
 10
29.8429
 20
251.257
 11
29.9606
 21
251.873
  0
LINE
  8
0
 10
29.9606
 20
251.873
 11
30
 21
252.5
  0
LINE
  8
0
 10
30
 20
252.5
 11
30
 21
287.5
  0
LINE
  8
0
 10
30
 20
287.5
 11
29.9606
 21
288.127
  0
LINE
  8
0
 10
29.9606
 20
288.127
 11
29.8429
 21
288.743
  0
LINE
  8
0
 10
29.8429
 20
288.743
 11
29.6489
 21
289.341
  0
LINE
  8
0
 10
29.6489
 20
289.341
 11
29.3815
 21
289.909
  0
LINE
  8
0
 10
29.3815
 20
289.909
 11
29.0451
 21
290.439
  0
LINE
  8
0
 10
29.0451
 20
290.439
 11
28.6448
 21
290.923
  0
LINE
  8
0
 10
28.6448
 20
290.923
 11
28.1871
 21
291.353
  0
LINE
  8
0
 10
28.1871
 20
291.353
 11
27.6791
 21
291.722
  0
LINE
  8
0
 10
27.6791
 20
291.722
 11
27.1289
 21
292.024
  0
LINE
  8
0
 10
27.1289
 20
292.024
 11
26.5451
 21
292.255
  0
LINE
  8
0
 10
26.5451
 20
292.255
 11
25.9369
 21
292.411
  0
LINE
  8
0
 10
25.9369
 20
292.411
 11
25.3139
 21
292.49
  0
LINE
  8
0
 10
25.3139
 20
292.49
 11
-25.3139
 21
292.49
  0
LINE
  8
0
 10
-25.3139
 20
292.49
 11
-25.9369
 21
292.411
  0
LINE
  8
0
 10
-25.9369
 20
292.411
 11
-26.5451
 21
292.255
  0
LINE
  8
0
 10
-26.5451
 20
292.255
 11
-27.1289
 21
292.024
  0
LINE
  8
0
 10
-27.1289
 20
292.024
 11
-27.6791
 21
291.722
  0
LINE
  8
0
 10
-27.6791
 20
291.722
 11
-28.1871
 21
291.353
  0
LINE
  8
0
 10
-28.1871
 20
291.353
 11
-28.6448
 21
290.923
  0
LINE
  8
0
 10
-28.6448
 20
290.923
 11
-29.0451
 21
290.439
  0
LINE
  8
0
 10
-29.0451
 20
290.439
 11
-29.3815
 21
289.909
  0
LINE
  8
0
 10
-29.3815
 20
289.909
 11
-29.6489
 21
289.341
  0
LINE
  8
0
 10
-29.6489
 20
289.341
 11
-29.8429
 21
288.743
  0
LINE
  8
0
 10
-29.8429
 20
288.743
 11
-29.9606
 21
288.127
  0
LINE
  8
0
 10
-29.9606
 20
288.127
 11
-30
 21
287.5
  0
LINE
  8
0
 10
-30
 20
287.5
 11
-30
 21
252.5
  0
LINE
  8
0
 10
-30
 20
252.5
 11
-29.9606
 21
251.873
  0
LINE
  8
0
 10
-29.9606
 20
251.873
 11
-29.8429
 21
251.257
  0
LINE
  8
0
 10
-29.8429
 20
251.257
 11
-29.6489
 21
250.659
  0
LINE
  8
0
 10
-29.6489
 20
250.659
 11
-29.3815
 21
250.091
  0
LINE
  8
0
 10
-29.3815
 20
250.091
 11
-29.0451
 21
249.561
  0
LINE
  8
0
 10
-29.0451
 20
249.561
 11
-28.6448
 21
249.077
  0
LINE
  8
0
 10
-28.6448
 20
249.077
 11
-28.1871
 21
248.647
  0
LINE
  8
0
 10
-28.1871
 20
248.647
 11
-27.6791
 21
248.278
  0
LINE
  8
0
 10
-27.6791
 20
248.278
 11
-27.1289
 21
247.976
  0
LINE
  8
0
 10
-27.1289
 20
247.976
 11
-26.5451
 21
247.745
  0
LINE
  8
0
 10
-26.5451
 20
247.745
 11
-25.9369
 21
247.589
  0
LINE
  8
0
 10
-25.9369
 20
247.589
 11
-25.3139
 21
247.51
  0
LINE
  8
0
 10
-25.3139
 20
247.51
 11
25.3139
 21
247.51
  0
LINE
  8
0
 10
25.3139
 20
247.51
 11
25.9369
 21
247.589
  0
LINE
  8
0
 10
-25.0482
 20
248.009
 11
-25.6401
 21
248.084
  0
LINE
  8
0
 10
-25.6401
 20
248.084
 11
-26.2178
 21
248.232
  0
LINE
  8
0
 10
-26.2178
 20
248.232
 11
-26.7724
 21
248.452
  0
LINE
  8
0
 10
-26.7724
 20
248.452
 11
-27.2952
 21
248.739
  0
LINE
  8
0
 10
-27.2952
 20
248.739
 11
-27.7778
 21
249.09
  0
LINE
  8
0
 10
-27.7778
 20
249.09
 11
-28.2126
 21
249.498
  0
LINE
  8
0
 10
-28.2126
 20
249.498
 11
-28.5928
 21
249.958
  0
LINE
  8
0
 10
-28.5928
 20
249.958
 11
-28.9124
 21
250.462
  0
LINE
  8
0
 10
-28.9124
 20
250.462
 11
-29.1664
 21
251.001
  0
LINE
  8
0
 10
-29.1664
 20
251.001
 11
-29.3508
 21
251.569
  0
LINE
  8
0
 10
-29.3508
 20
251.569
 11
-29.4625
 21
252.155
  0
LINE
  8
0
 10
-29.4625
 20
252.155
 11
-29.5
 21
252.75
  0
LINE
  8
0
 10
-29.5
 20
252.75
 11
-29.5
 21
287.25
  0
LINE
  8
0
 10
-29.5
 20
287.25
 11
-29.4625
 21
287.845
  0
LINE
  8
0
 10
-29.4625
 20
287.845
 11
-29.3508
 21
288.431
  0
LINE
  8
0
 10
-29.3508
 20
288.431
 11
-29.1664
 21
288.999
  0
LINE
  8
0
 10
-29.1664
 20
288.999
 11
-28.9124
 21
289.538
  0
LINE
  8
0
 10
-28.9124
 20
289.538
 11
-28.5928
 21
290.042
  0
LINE
  8
0
 10
-28.5928
 20
290.042
 11
-28.2126
 21
290.502
  0
LINE
  8
0
 10
-28.2126
 20
290.502
 11
-27.7778
 21
290.91
  0
LINE
  8
0
 10
-27.7778
 20
290.91
 11
-27.2952
 21
291.261
  0
LINE
  8
0
 10
-27.2952
 20
291.261
 11
-26.7724
 21
291.548
  0
LINE
  8
0
 10
-26.7724
 20
291.548
 11
-26.2178
 21
291.768
  0
LINE
  8
0
 10
-26.2178
 20
291.768
 11
-25.6401
 21
291.916
  0
LINE
  8
0
 10
-25.6401
 20
291.916
 11
-25.0482
 21
291.991
  0
LINE
  8
0
 10
-25.0482
 20
291.991
 11
25.0482
 21
291.991
  0
LINE
  8
0
 10
25.0482
 20
291.991
 11
25.6401
 21
291.916
  0
LINE
  8
0
 10
25.6401
 20
291.916
 11
26.2178
 21
291.768
  0
LINE
  8
0
 10
26.2178
 20
291.768
 11
26.7724
 21
291.548
  0
LINE
  8
0
 10
26.7724
 20
291.548
 11
27.2952
 21
291.261
  0
LINE
  8
0
 10
27.2952
 20
291.261
 11
27.7778
 21
290.91
  0
LINE
  8
0
 10
27.7778
 20
290.91
 11
28.2126
 21
290.502
  0
LINE
  8
0
 10
28.2126
 20
290.502
 11
28.5928
 21
290.042
  0
LINE
  8
0
 10
28.5928
 20
290.042
 11
28.9124
 21
289.538
  0
LINE
  8
0
 10
28.9124
 20
289.538
 11
29.1664
 21
288.999
  0
LINE
  8
0
 10
29.1664
 20
288.999
 11
29.3508
 21
288.431
  0
LINE
  8
0
 10
29.3508
 20
288.431
 11
29.4625
 21
287.845
  0
LINE
  8
0
 10
29.4625
 20
287.845
 11
29.5
 21
287.25
  0
LINE
  8
0
 10
29.5
 20
287.25
 11
29.5
 21
252.75
  0
LINE
  8
0
 10
29.5
 20
252.75
 11
29.4625
 21
252.155
  0
LINE
  8
0
 10
29.4625
 20
252.155
 11
29.3508
 21
251.569
  0
LINE
  8
0
 10
29.3508
 20
251.569
 11
29.1664
 21
251.001
  0
LINE
  8
0
 10
29.1664
 20
251.001
 11
28.9124
 21
250.462
  0
LINE
  8
0
 10
28.9124
 20
250.462
 11
28.5928
 21
249.958
  0
LINE
  8
0
 10
28.5928
 20
249.958
 11
28.2126
 21
249.498
  0
LINE
  8
0
 10
28.2126
 20
249.498
 11
27.7778
 21
249.09
  0
LINE
  8
0
 10
27.7778
 20
249.09
 11
27.2952
 21
248.739
  0
LINE
  8
0
 10
27.2952
 20
248.739
 11
26.7724
 21
248.452
  0
LINE
  8
0
 10
26.7724
 20
248.452
 11
26.2178
 21
248.232
  0
LINE
  8
0
 10
26.2178
 20
248.232
 11
25.6401
 21
248.084
  0
LINE
  8
0
 10
25.6401
 20
248.084
 11
25.0482
 21
248.009
  0
LINE
  8
0
 10
25.0482
 20
248.009
 11
-25.0482
 21
248.009
  0
LINE
  8
0
 10
25.9369
 20
193.589
 11
26.5451
 21
193.745
  0
LINE
  8
0
 10
26.5451
 20
193.745
 11
27.1289
 21
193.976
  0
LINE
  8
0
 10
27.1289
 20
193.976
 11
27.6791
 21
194.278
  0
LINE
  8
0
 10
27.6791
 20
194.278
 11
28.1871
 21
194.647
  0
LINE
  8
0
 10
28.1871
 20
194.647
 11
28.6448
 21
195.077
  0
LINE
  8
0
 10
28.6448
 20
195.077
 11
29.0451
 21
195.561
  0
LINE
  8
0
 10
29.0451
 20
195.561
 11
29.3815
 21
196.091
  0
LINE
  8
0
 10
29.3815
 20
196.091
 11
29.6489
 21
196.659
  0
LINE
  8
0
 10
29.6489
 20
196.659
 11
29.8429
 21
197.257
  0
LINE
  8
0
 10
29.8429
 20
197.257
 11
29.9606
 21
197.873
  0
LINE
  8
0
 10
29.9606
 20
197.873
 11
30
 21
198.5
  0
LINE
  8
0
 10
30
 20
198.5
 11
30
 21
233.5
  0
LINE
  8
0
 10
30
 20
233.5
 11
29.9606
 21
234.127
  0
LINE
  8
0
 10
29.9606
 20
234.127
 11
29.8429
 21
234.743
  0
LINE
  8
0
 10
29.8429
 20
234.743
 11
29.6489
 21
235.341
  0
LINE
  8
0
 10
29.6489
 20
235.341
 11
29.3815
 21
235.909
  0
LINE
  8
0
 10
29.3815
 20
235.909
 11
29.0451
 21
236.439
  0
LINE
  8
0
 10
29.0451
 20
236.439
 11
28.6448
 21
236.923
  0
LINE
  8
0
 10
28.6448
 20
236.923
 11
28.1871
 21
237.353
  0
LINE
  8
0
 10
28.1871
 20
237.353
 11
27.6791
 21
237.722
  0
LINE
  8
0
 10
27.6791
 20
237.722
 11
27.1289
 21
238.024
  0
LINE
  8
0
 10
27.1289
 20
238.024
 11
26.5451
 21
238.255
  0
LINE
  8
0
 10
26.5451
 20
238.255
 11
25.9369
 21
238.411
  0
LINE
  8
0
 10
25.9369
 20
238.411
 11
25.3139
 21
238.49
  0
LINE
  8
0
 10
25.3139
 20
238.49
 11
-25.3139
 21
238.49
  0
LINE
  8
0
 10
-25.3139
 20
238.49
 11
-25.9369
 21
238.411
  0
LINE
  8
0
 10
-25.9369
 20
238.411
 11
-26.5451
 21
238.255
  0
LINE
  8
0
 10
-26.5451
 20
238.255
 11
-27.1289
 21
238.024
  0
LINE
  8
0
 10
-27.1289
 20
238.024
 11
-27.6791
 21
237.722
  0
LINE
  8
0
 10
-27.6791
 20
237.722
 11
-28.1871
 21
237.353
  0
LINE
  8
0
 10
-28.1871
 20
237.353
 11
-28.6448
 21
236.923
  0
LINE
  8
0
 10
-28.6448
 20
236.923
 11
-29.0451
 21
236.439
  0
LINE
  8
0
 10
-29.0451
 20
236.439
 11
-29.3815
 21
235.909
  0
LINE
  8
0
 10
-29.3815
 20
235.909
 11
-29.6489
 21
235.341
  0
LINE
  8
0
 10
-29.6489
 20
235.341
 11
-29.8429
 21
234.743
  0
LINE
  8
0
 10
-29.8429
 20
234.743
 11
-29.9606
 21
234.127
  0
LINE
  8
0
 10
-29.9606
 20
234.127
 11
-30
 21
233.5
  0
LINE
  8
0
 10
-30
 20
233.5
 11
-30
 21
198.5
  0
LINE
  8
0
 10
-30
 20
198.5
 11
-29.9606
 21
197.873
  0
LINE
  8
0
 10
-29.9606
 20
197.873
 11
-29.8429
 21
197.257
  0
LINE
  8
0
 10
-29.8429
 20
197.257
 11
-29.6489
 21
196.659
  0
LINE
  8
0
 10
-29.6489
 20
196.659
 11
-29.3815
 21
196.091
  0
LINE
  8
0
 10
-29.3815
 20
196.091
 11
-29.0451
 21
195.561
  0
LINE
  8
0
 10
-29.0451
 20
195.561
 11
-28.6448
 21
195.077
  0
LINE
  8
0
 10
-28.6448
 20
195.077
 11
-28.1871
 21
194.647
  0
LINE
  8
0
 10
-28.1871
 20
194.647
 11
-27.6791
 21
194.278
  0
LINE
  8
0
 10
-27.6791
 20
194.278
 11
-27.1289
 21
193.976
  0
LINE
  8
0
 10
-27.1289
 20
193.976
 11
-26.5451
 21
193.745
  0
LINE
  8
0
 10
-26.5451
 20
193.745
 11
-25.9369
 21
193.589
  0
LINE
  8
0
 10
-25.9369
 20
193.589
 11
-25.3139
 21
193.51
  0
LINE
  8
0
 10
-25.3139
 20
193.51
 11
25.3139
 21
193.51
  0
LINE
  8
0
 10
25.3139
 20
193.51
 11
25.9369
 21
193.589
  0
LINE
  8
0
 10
-25.0375
 20
194.181
 11
-25.6079
 21
194.253
  0
LINE
  8
0
 10
-25.6079
 20
194.253
 11
-26.1648
 21
194.396
  0
LINE
  8
0
 10
-26.1648
 20
194.396
 11
-26.6994
 21
194.607
  0
LINE
  8
0
 10
-26.6994
 20
194.607
 11
-27.2032
 21
194.884
  0
LINE
  8
0
 10
-27.2032
 20
194.884
 11
-27.6684
 21
195.222
  0
LINE
  8
0
 10
-27.6684
 20
195.222
 11
-28.0875
 21
195.616
  0
LINE
  8
0
 10
-28.0875
 20
195.616
 11
-28.454
 21
196.059
  0
LINE
  8
0
 10
-28.454
 20
196.059
 11
-28.7621
 21
196.544
  0
LINE
  8
0
 10
-28.7621
 20
196.544
 11
-29.0069
 21
197.065
  0
LINE
  8
0
 10
-29.0069
 20
197.065
 11
-29.1846
 21
197.611
  0
LINE
  8
0
 10
-29.1846
 20
197.611
 11
-29.2923
 21
198.176
  0
LINE
  8
0
 10
-29.2923
 20
198.176
 11
-29.3284
 21
198.75
  0
LINE
  8
0
 10
-29.3284
 20
198.75
 11
-29.3284
 21
233.25
  0
LINE
  8
0
 10
-29.3284
 20
233.25
 11
-29.2923
 21
233.824
  0
LINE
  8
0
 10
-29.2923
 20
233.824
 11
-29.1846
 21
234.389
  0
LINE
  8
0
 10
-29.1846
 20
234.389
 11
-29.0069
 21
234.935
  0
LINE
  8
0
 10
-29.0069
 20
234.935
 11
-28.7621
 21
235.456
  0
LINE
  8
0
 10
-28.7621
 20
235.456
 11
-28.454
 21
235.941
  0
LINE
  8
0
 10
-28.454
 20
235.941
 11
-28.0875
 21
236.384
  0
LINE
  8
0
 10
-28.0875
 20
236.384
 11
-27.6684
 21
236.778
  0
LINE
  8
0
 10
-27.6684
 20
236.778
 11
-27.2032
 21
237.116
  0
LINE
  8
0
 10
-27.2032
 20
237.116
 11
-26.6994
 21
237.393
  0
LINE
  8
0
 10
-26.6994
 20
237.393
 11
-26.1648
 21
237.604
  0
LINE
  8
0
 10
-26.1648
 20
237.604
 11
-25.6079
 21
237.747
  0
LINE
  8
0
 10
-25.6079
 20
237.747
 11
-25.0375
 21
237.819
  0
LINE
  8
0
 10
-25.0375
 20
237.819
 11
25.0375
 21
237.819
  0
LINE
  8
0
 10
25.0375
 20
237.819
 11
25.6079
 21
237.747
  0
LINE
  8
0
 10
25.6079
 20
237.747
 11
26.1648
 21
237.604
  0
LINE
  8
0
 10
26.1648
 20
237.604
 11
26.6994
 21
237.393
  0
LINE
  8
0
 10
26.6994
 20
237.393
 11
27.2032
 21
237.116
  0
LINE
  8
0
 10
27.2032
 20
237.116
 11
27.6684
 21
236.778
  0
LINE
  8
0
 10
27.6684
 20
236.778
 11
28.0875
 21
236.384
  0
LINE
  8
0
 10
28.0875
 20
236.384
 11
28.454
 21
235.941
  0
LINE
  8
0
 10
28.454
 20
235.941
 11
28.7621
 21
235.456
  0
LINE
  8
0
 10
28.7621
 20
235.456
 11
29.0069
 21
234.935
  0
LINE
  8
0
 10
29.0069
 20
234.935
 11
29.1846
 21
234.389
  0
LINE
  8
0
 10
29.1846
 20
234.389
 11
29.2923
 21
233.824
  0
LINE
  8
0
 10
29.2923
 20
233.824
 11
29.3284
 21
233.25
  0
LINE
  8
0
 10
29.3284
 20
233.25
 11
29.3284
 21
198.75
  0
LINE
  8
0
 10
29.3284
 20
198.75
 11
29.2923
 21
198.176
  0
LINE
  8
0
 10
29.2923
 20
198.176
 11
29.1846
 21
197.611
  0
LINE
  8
0
 10
29.1846
 20
197.611
 11
29.0069
 21
197.065
  0
LINE
  8
0
 10
29.0069
 20
197.065
 11
28.7621
 21
196.544
  0
LINE
  8
0
 10
28.7621
 20
196.544
 11
28.454
 21
196.059
  0
LINE
  8
0
 10
28.454
 20
196.059
 11
28.0875
 21
195.616
  0
LINE
  8
0
 10
28.0875
 20
195.616
 11
27.6684
 21
195.222
  0
LINE
  8
0
 10
27.6684
 20
195.222
 11
27.2032
 21
194.884
  0
LINE
  8
0
 10
27.2032
 20
194.884
 11
26.6994
 21
194.607
  0
LINE
  8
0
 10
26.6994
 20
194.607
 11
26.1648
 21
194.396
  0
LINE
  8
0
 10
26.1648
 20
194.396
 11
25.6079
 21
194.253
  0
LINE
  8
0
 10
25.6079
 20
194.253
 11
25.0375
 21
194.181
  0
LINE
  8
0
 10
25.0375
 20
194.181
 11
-25.0375
 21
194.181
  0
LINE
  8
0
 10
25.9369
 20
139.589
 11
26.5451
 21
139.745
  0
LINE
  8
0
 10
26.5451
 20
139.745
 11
27.1289
 21
139.976
  0
LINE
  8
0
 10
27.1289
 20
139.976
 11
27.6791
 21
140.278
  0
LINE
  8
0
 10
27.6791
 20
140.278
 11
28.1871
 21
140.647
  0
LINE
  8
0
 10
28.1871
 20
140.647
 11
28.6448
 21
141.077
  0
LINE
  8
0
 10
28.6448
 20
141.077
 11
29.0451
 21
141.561
  0
LINE
  8
0
 10
29.0451
 20
141.561
 11
29.3815
 21
142.091
  0
LINE
  8
0
 10
29.3815
 20
142.091
 11
29.6489
 21
142.659
  0
LINE
  8
0
 10
29.6489
 20
142.659
 11
29.8429
 21
143.257
  0
LINE
  8
0
 10
29.8429
 20
143.257
 11
29.9606
 21
143.873
  0
LINE
  8
0
 10
29.9606
 20
143.873
 11
30
 21
144.5
  0
LINE
  8
0
 10
30
 20
144.5
 11
30
 21
179.5
  0
LINE
  8
0
 10
30
 20
179.5
 11
29.9606
 21
180.127
  0
LINE
  8
0
 10
29.9606
 20
180.127
 11
29.8429
 21
180.743
  0
LINE
  8
0
 10
29.8429
 20
180.743
 11
29.6489
 21
181.341
  0
LINE
  8
0
 10
29.6489
 20
181.341
 11
29.3815
 21
181.909
  0
LINE
  8
0
 10
29.3815
 20
181.909
 11
29.0451
 21
182.439
  0
LINE
  8
0
 10
29.0451
 20
182.439
 11
28.6448
 21
182.923
  0
LINE
  8
0
 10
28.6448
 20
182.923
 11
28.1871
 21
183.353
  0
LINE
  8
0
 10
28.1871
 20
183.353
 11
27.6791
 21
183.722
  0
LINE
  8
0
 10
27.6791
 20
183.722
 11
27.1289
 21
184.024
  0
LINE
  8
0
 10
27.1289
 20
184.024
 11
26.5451
 21
184.255
  0
LINE
  8
0
 10
26.5451
 20
184.255
 11
25.9369
 21
184.411
  0
LINE
  8
0
 10
25.9369
 20
184.411
 11
25.3139
 21
184.49
  0
LINE
  8
0
 10
25.3139
 20
184.49
 11
-25.3139
 21
184.49
  0
LINE
  8
0
 10
-25.3139
 20
184.49
 11
-25.9369
 21
184.411
  0
LINE
  8
0
 10
-25.9369
 20
184.411
 11
-26.5451
 21
184.255
  0
LINE
  8
0
 10
-26.5451
 20
184.255
 11
-27.1289
 21
184.024
  0
LINE
  8
0
 10
-27.1289
 20
184.024
 11
-27.6791
 21
183.722
  0
LINE
  8
0
 10
-27.6791
 20
183.722
 11
-28.1871
 21
183.353
  0
LINE
  8
0
 10
-28.1871
 20
183.353
 11
-28.6448
 21
182.923
  0
LINE
  8
0
 10
-28.6448
 20
182.923
 11
-29.0451
 21
182.439
  0
LINE
  8
0
 10
-29.0451
 20
182.439
 11
-29.3815
 21
181.909
  0
LINE
  8
0
 10
-29.3815
 20
181.909
 11
-29.6489
 21
181.341
  0
LINE
  8
0
 10
-29.6489
 20
181.341
 11
-29.8429
 21
180.743
  0
LINE
  8
0
 10
-29.8429
 20
180.743
 11
-29.9606
 21
180.127
  0
LINE
  8
0
 10
-29.9606
 20
180.127
 11
-30
 21
179.5
  0
LINE
  8
0
 10
-30
 20
179.5
 11
-30
 21
144.5
  0
LINE
  8
0
 10
-30
 20
144.5
 11
-29.9606
 21
143.873
  0
LINE
  8
0
 10
-29.9606
 20
143.873
 11
-29.8429
 21
143.257
  0
LINE
  8
0
 10
-29.8429
 20
143.257
 11
-29.6489
 21
142.659
  0
LINE
  8
0
 10
-29.6489
 20
142.659
 11
-29.3815
 21
142.091
  0
LINE
  8
0
 10
-29.3815
 20
142.091
 11
-29.0451
 21
141.561
  0
LINE
  8
0
 10
-29.0451
 20
141.561
 11
-28.6448
 21
141.077
  0
LINE
  8
0
 10
-28.6448
 20
141.077
 11
-28.1871
 21
140.647
  0
LINE
  8
0
 10
-28.1871
 20
140.647
 11
-27.6791
 21
140.278
  0
LINE
  8
0
 10
-27.6791
 20
140.278
 11
-27.1289
 21
139.976
  0
LINE
  8
0
 10
-27.1289
 20
139.976
 11
-26.5451
 21
139.745
  0
LINE
  8
0
 10
-26.5451
 20
139.745
 11
-25.9369
 21
139.589
  0
LINE
  8
0
 10
-25.9369
 20
139.589
 11
-25.3139
 21
139.51
  0
LINE
  8
0
 10
-25.3139
 20
139.51
 11
25.3139
 21
139.51
  0
LINE
  8
0
 10
25.3139
 20
139.51
 11
25.9369
 21
139.589
  0
LINE
  8
0
 10
-24.8825
 20
142.645
 11
-25.1453
 21
142.678
  0
LINE
  8
0
 10
-25.1453
 20
142.678
 11
-25.4019
 21
142.744
  0
LINE
  8
0
 10
-25.4019
 20
142.744
 11
-25.6482
 21
142.841
  0
LINE
  8
0
 10
-25.6482
 20
142.841
 11
-25.8804
 21
142.969
  0
LINE
  8
0
 10
-25.8804
 20
142.969
 11
-26.0947
 21
143.125
  0
LINE
  8
0
 10
-26.0947
 20
143.125
 11
-26.2879
 21
143.306
  0
LINE
  8
0
 10
-26.2879
 20
143.306
 11
-26.4567
 21
143.51
  0
LINE
  8
0
 10
-26.4567
 20
143.51
 11
-26.5987
 21
143.734
  0
LINE
  8
0
 10
-26.5987
 20
143.734
 11
-26.7115
 21
143.973
  0
LINE
  8
0
 10
-26.7115
 20
143.973
 11
-26.7934
 21
144.225
  0
LINE
  8
0
 10
-26.7934
 20
144.225
 11
-26.843
 21
144.486
  0
LINE
  8
0
 10
-26.843
 20
144.486
 11
-26.8596
 21
144.75
  0
LINE
  8
0
 10
-26.8596
 20
144.75
 11
-26.8596
 21
179.25
  0
LINE
  8
0
 10
-26.8596
 20
179.25
 11
-26.843
 21
179.514
  0
LINE
  8
0
 10
-26.843
 20
179.514
 11
-26.7934
 21
179.775
  0
LINE
  8
0
 10
-26.7934
 20
179.775
 11
-26.7115
 21
180.027
  0
LINE
  8
0
 10
-26.7115
 20
180.027
 11
-26.5987
 21
180.266
  0
LINE
  8
0
 10
-26.5987
 20
180.266
 11
-26.4567
 21
180.49
  0
LINE
  8
0
 10
-26.4567
 20
180.49
 11
-26.2879
 21
180.694
  0
LINE
  8
0
 10
-26.2879
 20
180.694
 11
-26.0947
 21
180.875
  0
LINE
  8
0
 10
-26.0947
 20
180.875
 11
-25.8804
 21
181.031
  0
LINE
  8
0
 10
-25.8804
 20
181.031
 11
-25.6482
 21
181.159
  0
LINE
  8
0
 10
-25.6482
 20
181.159
 11
-25.4019
 21
181.256
  0
LINE
  8
0
 10
-25.4019
 20
181.256
 11
-25.1453
 21
181.322
  0
LINE
  8
0
 10
-25.1453
 20
181.322
 11
-24.8825
 21
181.355
  0
LINE
  8
0
 10
-24.8825
 20
181.355
 11
24.8825
 21
181.355
  0
LINE
  8
0
 10
24.8825
 20
181.355
 11
25.1453
 21
181.322
  0
LINE
  8
0
 10
25.1453
 20
181.322
 11
25.4019
 21
181.256
  0
LINE
  8
0
 10
25.4019
 20
181.256
 11
25.6482
 21
181.159
  0
LINE
  8
0
 10
25.6482
 20
181.159
 11
25.8804
 21
181.031
  0
LINE
  8
0
 10
25.8804
 20
181.031
 11
26.0947
 21
180.875
  0
LINE
  8
0
 10
26.0947
 20
180.875
 11
26.2879
 21
180.694
  0
LINE
  8
0
 10
26.2879
 20
180.694
 11
26.4567
 21
180.49
  0
LINE
  8
0
 10
26.4567
 20
180.49
 11
26.5987
 21
180.266
  0
LINE
  8
0
 10
26.5987
 20
180.266
 11
26.7115
 21
180.027
  0
LINE
  8
0
 10
26.7115
 20
180.027
 11
26.7934
 21
179.775
  0
LINE
  8
0
 10
26.7934
 20
179.775
 11
26.843
 21
179.514
  0
LINE
  8
0
 10
26.843
 20
179.514
 11
26.8596
 21
179.25
  0
LINE
  8
0
 10
26.8596
 20
179.25
 11
26.8596
 21
144.75
  0
LINE
  8
0
 10
26.8596
 20
144.75
 11
26.843
 21
144.486
  0
LINE
  8
0
 10
26.843
 20
144.486
 11
26.7934
 21
144.225
  0
LINE
  8
0
 10
26.7934
 20
144.225
 11
26.7115
 21
143.973
  0
LINE
  8
0
 10
26.7115
 20
143.973
 11
26.5987
 21
143.734
  0
LINE
  8
0
 10
26.5987
 20
143.734
 11
26.4567
 21
143.51
  0
LINE
  8
0
 10
26.4567
 20
143.51
 11
26.2879
 21
143.306
  0
LINE
  8
0
 10
26.2879
 20
143.306
 11
26.0947
 21
143.125
  0
LINE
  8
0
 10
26.0947
 20
143.125
 11
25.8804
 21
142.969
  0
LINE
  8
0
 10
25.8804
 20
142.969
 11
25.6482
 21
142.841
  0
LINE
  8
0
 10
25.6482
 20
142.841
 11
25.4019
 21
142.744
  0
LINE
  8
0
 10
25.4019
 20
142.744
 11
25.1453
 21
142.678
  0
LINE
  8
0
 10
25.1453
 20
142.678
 11
24.8825
 21
142.645
  0
LINE
  8
0
 10
24.8825
 20
142.645
 11
-24.8825
 21
142.645
  0
ENDSEC
  0
SECTION
  2
OBJECTS
  0
DICTIONARY
  0
ENDSEC
  0
EOF
