  0
SECTION
  2
BLOCKS
  0
ENDSEC
  0
SECTION
  2
ENTITIES
  0
LINE
  8
0
 10
39
 20
279.99
 11
16.4645
 21
279.99
  0
LINE
  8
0
 10
16.4645
 20
279.99
 11
19.4547
 21
277
  0
LINE
  8
0
 10
19.4547
 20
277
 11
39
 21
277
  0
LINE
  8
0
 10
39
 20
277
 11
39
 21
279.99
  0
LINE
  8
0
 10
47.9369
 20
176.089
 11
48.5451
 21
176.245
  0
LINE
  8
0
 10
48.5451
 20
176.245
 11
49.1289
 21
176.476
  0
LINE
  8
0
 10
49.1289
 20
176.476
 11
49.6791
 21
176.778
  0
LINE
  8
0
 10
49.6791
 20
176.778
 11
50.1871
 21
177.147
  0
LINE
  8
0
 10
50.1871
 20
177.147
 11
50.6448
 21
177.577
  0
LINE
  8
0
 10
50.6448
 20
177.577
 11
51.0451
 21
178.061
  0
LINE
  8
0
 10
51.0451
 20
178.061
 11
51.3815
 21
178.591
  0
LINE
  8
0
 10
51.3815
 20
178.591
 11
51.6489
 21
179.159
  0
LINE
  8
0
 10
51.6489
 20
179.159
 11
51.8429
 21
179.757
  0
LINE
  8
0
 10
51.8429
 20
179.757
 11
51.9606
 21
180.373
  0
LINE
  8
0
 10
51.9606
 20
180.373
 11
52
 21
181
  0
LINE
  8
0
 10
52
 20
181
 11
52
 21
275
  0
LINE
  8
0
 10
52
 20
275
 11
51.9685
 21
275.5
  0
LINE
  8
0
 10
51.9685
 20
275.5
 11
18.9399
 21
275.5
  0
LINE
  8
0
 10
18.9399
 20
275.5
 11
18.8866
 21
275.447
  0
LINE
  8
0
 10
18.8866
 20
275.447
 11
18.8333
 21
275.5
  0
LINE
  8
0
 10
18.8333
 20
275.5
 11
16.9398
 21
275.5
  0
LINE
  8
0
 10
16.9398
 20
275.5
 11
21.5018
 21
273.694
  0
LINE
  8
0
 10
21.5018
 20
273.694
 11
27.0592
 21
270.639
  0
LINE
  8
0
 10
27.0592
 20
270.639
 11
32.1899
 21
266.911
  0
LINE
  8
0
 10
32.1899
 20
266.911
 11
36.8129
 21
262.57
  0
LINE
  8
0
 10
36.8129
 20
262.57
 11
40.8553
 21
257.683
  0
LINE
  8
0
 10
40.8553
 20
257.683
 11
44.2535
 21
252.329
  0
LINE
  8
0
 10
44.2535
 20
252.329
 11
46.9537
 21
246.59
  0
LINE
  8
0
 10
46.9537
 20
246.59
 11
48.9134
 21
240.559
  0
LINE
  8
0
 10
48.9134
 20
240.559
 11
50.1018
 21
234.329
  0
LINE
  8
0
 10
50.1018
 20
234.329
 11
50.5
 21
228
  0
LINE
  8
0
 10
50.5
 20
228
 11
50.1018
 21
221.671
  0
LINE
  8
0
 10
50.1018
 20
221.671
 11
48.9134
 21
215.441
  0
LINE
  8
0
 10
48.9134
 20
215.441
 11
46.9537
 21
209.41
  0
LINE
  8
0
 10
46.9537
 20
209.41
 11
44.2535
 21
203.671
  0
LINE
  8
0
 10
44.2535
 20
203.671
 11
40.8553
 21
198.317
  0
LINE
  8
0
 10
40.8553
 20
198.317
 11
36.8129
 21
193.43
  0
LINE
  8
0
 10
36.8129
 20
193.43
 11
32.1899
 21
189.089
  0
LINE
  8
0
 10
32.1899
 20
189.089
 11
27.0592
 21
185.361
  0
LINE
  8
0
 10
27.0592
 20
185.361
 11
21.5018
 21
182.306
  0
LINE
  8
0
 10
21.5018
 20
182.306
 11
15.6053
 21
179.972
  0
LINE
  8
0
 10
15.6053
 20
179.972
 11
9.46275
 21
178.395
  0
LINE
  8
0
 10
9.46275
 20
178.395
 11
3.17091
 21
177.6
  0
LINE
  8
0
 10
3.17091
 20
177.6
 11
-3.17091
 21
177.6
  0
LINE
  8
0
 10
-3.17091
 20
177.6
 11
-9.46275
 21
178.395
  0
LINE
  8
0
 10
-9.46275
 20
178.395
 11
-15.6053
 21
179.972
  0
LINE
  8
0
 10
-15.6053
 20
179.972
 11
-21.5018
 21
182.306
  0
LINE
  8
0
 10
-21.5018
 20
182.306
 11
-27.0592
 21
185.361
  0
LINE
  8
0
 10
-27.0592
 20
185.361
 11
-32.1899
 21
189.089
  0
LINE
  8
0
 10
-32.1899
 20
189.089
 11
-36.8129
 21
193.43
  0
LINE
  8
0
 10
-36.8129
 20
193.43
 11
-40.8553
 21
198.317
  0
LINE
  8
0
 10
-40.8553
 20
198.317
 11
-44.2535
 21
203.671
  0
LINE
  8
0
 10
-44.2535
 20
203.671
 11
-46.9537
 21
209.41
  0
LINE
  8
0
 10
-46.9537
 20
209.41
 11
-48.9134
 21
215.441
  0
LINE
  8
0
 10
-48.9134
 20
215.441
 11
-50.1018
 21
221.671
  0
LINE
  8
0
 10
-50.1018
 20
221.671
 11
-50.5
 21
228
  0
LINE
  8
0
 10
-50.5
 20
228
 11
-50.1018
 21
234.329
  0
LINE
  8
0
 10
-50.1018
 20
234.329
 11
-48.9134
 21
240.559
  0
LINE
  8
0
 10
-48.9134
 20
240.559
 11
-46.9537
 21
246.59
  0
LINE
  8
0
 10
-46.9537
 20
246.59
 11
-44.2535
 21
252.329
  0
LINE
  8
0
 10
-44.2535
 20
252.329
 11
-40.8553
 21
257.683
  0
LINE
  8
0
 10
-40.8553
 20
257.683
 11
-36.8129
 21
262.57
  0
LINE
  8
0
 10
-36.8129
 20
262.57
 11
-32.1899
 21
266.911
  0
LINE
  8
0
 10
-32.1899
 20
266.911
 11
-27.0592
 21
270.639
  0
LINE
  8
0
 10
-27.0592
 20
270.639
 11
-21.5018
 21
273.694
  0
LINE
  8
0
 10
-21.5018
 20
273.694
 11
-15.6053
 21
276.028
  0
LINE
  8
0
 10
-15.6053
 20
276.028
 11
-9.46275
 21
277.605
  0
LINE
  8
0
 10
-9.46275
 20
277.605
 11
-3.17091
 21
278.4
  0
LINE
  8
0
 10
-3.17091
 20
278.4
 11
3.17091
 21
278.4
  0
LINE
  8
0
 10
3.17091
 20
278.4
 11
9.46275
 21
277.605
  0
LINE
  8
0
 10
9.46275
 20
277.605
 11
11.821
 21
277
  0
LINE
  8
0
 10
11.821
 20
277
 11
17.3333
 21
277
  0
LINE
  8
0
 10
17.3333
 20
277
 11
14.3432
 21
279.99
  0
LINE
  8
0
 10
14.3432
 20
279.99
 11
-47.3139
 21
279.99
  0
LINE
  8
0
 10
-47.3139
 20
279.99
 11
-47.9369
 21
279.911
  0
LINE
  8
0
 10
-47.9369
 20
279.911
 11
-48.5451
 21
279.755
  0
LINE
  8
0
 10
-48.5451
 20
279.755
 11
-49.1289
 21
279.524
  0
LINE
  8
0
 10
-49.1289
 20
279.524
 11
-49.6791
 21
279.222
  0
LINE
  8
0
 10
-49.6791
 20
279.222
 11
-50.1871
 21
278.853
  0
LINE
  8
0
 10
-50.1871
 20
278.853
 11
-50.6448
 21
278.423
  0
LINE
  8
0
 10
-50.6448
 20
278.423
 11
-51.0451
 21
277.939
  0
LINE
  8
0
 10
-51.0451
 20
277.939
 11
-51.3815
 21
277.409
  0
LINE
  8
0
 10
-51.3815
 20
277.409
 11
-51.6489
 21
276.841
  0
LINE
  8
0
 10
-51.6489
 20
276.841
 11
-51.8429
 21
276.243
  0
LINE
  8
0
 10
-51.8429
 20
276.243
 11
-51.8905
 21
275.994
  0
LINE
  8
0
 10
-51.8905
 20
275.994
 11
-44.8116
 21
275.994
  0
LINE
  8
0
 10
-44.8116
 20
275.994
 11
-44.4379
 21
275.947
  0
LINE
  8
0
 10
-44.4379
 20
275.947
 11
-44.0729
 21
275.853
  0
LINE
  8
0
 10
-44.0729
 20
275.853
 11
-43.7227
 21
275.714
  0
LINE
  8
0
 10
-43.7227
 20
275.714
 11
-43.3925
 21
275.533
  0
LINE
  8
0
 10
-43.3925
 20
275.533
 11
-43.0877
 21
275.312
  0
LINE
  8
0
 10
-43.0877
 20
275.312
 11
-42.8131
 21
275.054
  0
LINE
  8
0
 10
-42.8131
 20
275.054
 11
-42.5729
 21
274.763
  0
LINE
  8
0
 10
-42.5729
 20
274.763
 11
-42.3711
 21
274.445
  0
LINE
  8
0
 10
-42.3711
 20
274.445
 11
-42.2107
 21
274.104
  0
LINE
  8
0
 10
-42.2107
 20
274.104
 11
-42.0942
 21
273.746
  0
LINE
  8
0
 10
-42.0942
 20
273.746
 11
-42.0237
 21
273.376
  0
LINE
  8
0
 10
-42.0237
 20
273.376
 11
-42
 21
273
  0
LINE
  8
0
 10
-42
 20
273
 11
-42.0237
 21
272.624
  0
LINE
  8
0
 10
-42.0237
 20
272.624
 11
-42.0942
 21
272.254
  0
LINE
  8
0
 10
-42.0942
 20
272.254
 11
-42.2107
 21
271.896
  0
LINE
  8
0
 10
-42.2107
 20
271.896
 11
-42.3711
 21
271.555
  0
LINE
  8
0
 10
-42.3711
 20
271.555
 11
-42.5729
 21
271.237
  0
LINE
  8
0
 10
-42.5729
 20
271.237
 11
-42.8131
 21
270.946
  0
LINE
  8
0
 10
-42.8131
 20
270.946
 11
-43.0877
 21
270.688
  0
LINE
  8
0
 10
-43.0877
 20
270.688
 11
-43.3925
 21
270.467
  0
LINE
  8
0
 10
-43.3925
 20
270.467
 11
-43.7227
 21
270.286
  0
LINE
  8
0
 10
-43.7227
 20
270.286
 11
-44.0729
 21
270.147
  0
LINE
  8
0
 10
-44.0729
 20
270.147
 11
-44.4379
 21
270.053
  0
LINE
  8
0
 10
-44.4379
 20
270.053
 11
-44.8116
 21
270.006
  0
LINE
  8
0
 10
-44.8116
 20
270.006
 11
-52
 21
270.006
  0
LINE
  8
0
 10
-52
 20
270.006
 11
-52
 21
185.994
  0
LINE
  8
0
 10
-52
 20
185.994
 11
-44.8116
 21
185.994
  0
LINE
  8
0
 10
-44.8116
 20
185.994
 11
-44.4379
 21
185.947
  0
LINE
  8
0
 10
-44.4379
 20
185.947
 11
-44.0729
 21
185.853
  0
LINE
  8
0
 10
-44.0729
 20
185.853
 11
-43.7227
 21
185.714
  0
LINE
  8
0
 10
-43.7227
 20
185.714
 11
-43.3925
 21
185.533
  0
LINE
  8
0
 10
-43.3925
 20
185.533
 11
-43.0877
 21
185.312
  0
LINE
  8
0
 10
-43.0877
 20
185.312
 11
-42.8131
 21
185.054
  0
LINE
  8
0
 10
-42.8131
 20
185.054
 11
-42.5729
 21
184.763
  0
LINE
  8
0
 10
-42.5729
 20
184.763
 11
-42.3711
 21
184.445
  0
LINE
  8
0
 10
-42.3711
 20
184.445
 11
-42.2107
 21
184.104
  0
LINE
  8
0
 10
-42.2107
 20
184.104
 11
-42.0942
 21
183.746
  0
LINE
  8
0
 10
-42.0942
 20
183.746
 11
-42.0237
 21
183.376
  0
LINE
  8
0
 10
-42.0237
 20
183.376
 11
-42
 21
183
  0
LINE
  8
0
 10
-42
 20
183
 11
-42.0237
 21
182.624
  0
LINE
  8
0
 10
-42.0237
 20
182.624
 11
-42.0942
 21
182.254
  0
LINE
  8
0
 10
-42.0942
 20
182.254
 11
-42.2107
 21
181.896
  0
LINE
  8
0
 10
-42.2107
 20
181.896
 11
-42.3711
 21
181.555
  0
LINE
  8
0
 10
-42.3711
 20
181.555
 11
-42.5729
 21
181.237
  0
LINE
  8
0
 10
-42.5729
 20
181.237
 11
-42.8131
 21
180.946
  0
LINE
  8
0
 10
-42.8131
 20
180.946
 11
-43.0877
 21
180.688
  0
LINE
  8
0
 10
-43.0877
 20
180.688
 11
-43.3925
 21
180.467
  0
LINE
  8
0
 10
-43.3925
 20
180.467
 11
-43.7227
 21
180.286
  0
LINE
  8
0
 10
-43.7227
 20
180.286
 11
-44.0729
 21
180.147
  0
LINE
  8
0
 10
-44.0729
 20
180.147
 11
-44.4379
 21
180.053
  0
LINE
  8
0
 10
-44.4379
 20
180.053
 11
-44.8116
 21
180.006
  0
LINE
  8
0
 10
-44.8116
 20
180.006
 11
-51.8905
 21
180.006
  0
LINE
  8
0
 10
-51.8905
 20
180.006
 11
-51.8429
 21
179.757
  0
LINE
  8
0
 10
-51.8429
 20
179.757
 11
-51.6489
 21
179.159
  0
LINE
  8
0
 10
-51.6489
 20
179.159
 11
-51.3815
 21
178.591
  0
LINE
  8
0
 10
-51.3815
 20
178.591
 11
-51.0451
 21
178.061
  0
LINE
  8
0
 10
-51.0451
 20
178.061
 11
-50.6448
 21
177.577
  0
LINE
  8
0
 10
-50.6448
 20
177.577
 11
-50.1871
 21
177.147
  0
LINE
  8
0
 10
-50.1871
 20
177.147
 11
-49.6791
 21
176.778
  0
LINE
  8
0
 10
-49.6791
 20
176.778
 11
-49.1289
 21
176.476
  0
LINE
  8
0
 10
-49.1289
 20
176.476
 11
-48.5451
 21
176.245
  0
LINE
  8
0
 10
-48.5451
 20
176.245
 11
-47.9369
 21
176.089
  0
LINE
  8
0
 10
-47.9369
 20
176.089
 11
-47.3139
 21
176.01
  0
LINE
  8
0
 10
-47.3139
 20
176.01
 11
47.3139
 21
176.01
  0
LINE
  8
0
 10
47.3139
 20
176.01
 11
47.9369
 21
176.089
  0
LINE
  8
0
 10
44.8116
 20
180.006
 11
44.4379
 21
180.053
  0
LINE
  8
0
 10
44.4379
 20
180.053
 11
44.0729
 21
180.147
  0
LINE
  8
0
 10
44.0729
 20
180.147
 11
43.7227
 21
180.286
  0
LINE
  8
0
 10
43.7227
 20
180.286
 11
43.3925
 21
180.467
  0
LINE
  8
0
 10
43.3925
 20
180.467
 11
43.0877
 21
180.688
  0
LINE
  8
0
 10
43.0877
 20
180.688
 11
42.8131
 21
180.946
  0
LINE
  8
0
 10
42.8131
 20
180.946
 11
42.5729
 21
181.237
  0
LINE
  8
0
 10
42.5729
 20
181.237
 11
42.3711
 21
181.555
  0
LINE
  8
0
 10
42.3711
 20
181.555
 11
42.2107
 21
181.896
  0
LINE
  8
0
 10
42.2107
 20
181.896
 11
42.0942
 21
182.254
  0
LINE
  8
0
 10
42.0942
 20
182.254
 11
42.0237
 21
182.624
  0
LINE
  8
0
 10
42.0237
 20
182.624
 11
42
 21
183
  0
LINE
  8
0
 10
42
 20
183
 11
42.0237
 21
183.376
  0
LINE
  8
0
 10
42.0237
 20
183.376
 11
42.0942
 21
183.746
  0
LINE
  8
0
 10
42.0942
 20
183.746
 11
42.2107
 21
184.104
  0
LINE
  8
0
 10
42.2107
 20
184.104
 11
42.3711
 21
184.445
  0
LINE
  8
0
 10
42.3711
 20
184.445
 11
42.5729
 21
184.763
  0
LINE
  8
0
 10
42.5729
 20
184.763
 11
42.8131
 21
185.054
  0
LINE
  8
0
 10
42.8131
 20
185.054
 11
43.0877
 21
185.312
  0
LINE
  8
0
 10
43.0877
 20
185.312
 11
43.3925
 21
185.533
  0
LINE
  8
0
 10
43.3925
 20
185.533
 11
43.7227
 21
185.714
  0
LINE
  8
0
 10
43.7227
 20
185.714
 11
44.0729
 21
185.853
  0
LINE
  8
0
 10
44.0729
 20
185.853
 11
44.4379
 21
185.947
  0
LINE
  8
0
 10
44.4379
 20
185.947
 11
44.8116
 21
185.994
  0
LINE
  8
0
 10
44.8116
 20
185.994
 11
45.1884
 21
185.994
  0
LINE
  8
0
 10
45.1884
 20
185.994
 11
45.5621
 21
185.947
  0
LINE
  8
0
 10
45.5621
 20
185.947
 11
45.927
 21
185.853
  0
LINE
  8
0
 10
45.927
 20
185.853
 11
46.2773
 21
185.714
  0
LINE
  8
0
 10
46.2773
 20
185.714
 11
46.6075
 21
185.533
  0
LINE
  8
0
 10
46.6075
 20
185.533
 11
46.9123
 21
185.312
  0
LINE
  8
0
 10
46.9123
 20
185.312
 11
47.1869
 21
185.054
  0
LINE
  8
0
 10
47.1869
 20
185.054
 11
47.427
 21
184.763
  0
LINE
  8
0
 10
47.427
 20
184.763
 11
47.6289
 21
184.445
  0
LINE
  8
0
 10
47.6289
 20
184.445
 11
47.7893
 21
184.104
  0
LINE
  8
0
 10
47.7893
 20
184.104
 11
47.9057
 21
183.746
  0
LINE
  8
0
 10
47.9057
 20
183.746
 11
47.9763
 21
183.376
  0
LINE
  8
0
 10
47.9763
 20
183.376
 11
48
 21
183
  0
LINE
  8
0
 10
48
 20
183
 11
47.9763
 21
182.624
  0
LINE
  8
0
 10
47.9763
 20
182.624
 11
47.9057
 21
182.254
  0
LINE
  8
0
 10
47.9057
 20
182.254
 11
47.7893
 21
181.896
  0
LINE
  8
0
 10
47.7893
 20
181.896
 11
47.6289
 21
181.555
  0
LINE
  8
0
 10
47.6289
 20
181.555
 11
47.427
 21
181.237
  0
LINE
  8
0
 10
47.427
 20
181.237
 11
47.1869
 21
180.946
  0
LINE
  8
0
 10
47.1869
 20
180.946
 11
46.9123
 21
180.688
  0
LINE
  8
0
 10
46.9123
 20
180.688
 11
46.6075
 21
180.467
  0
LINE
  8
0
 10
46.6075
 20
180.467
 11
46.2773
 21
180.286
  0
LINE
  8
0
 10
46.2773
 20
180.286
 11
45.927
 21
180.147
  0
LINE
  8
0
 10
45.927
 20
180.147
 11
45.5621
 21
180.053
  0
LINE
  8
0
 10
45.5621
 20
180.053
 11
45.1884
 21
180.006
  0
LINE
  8
0
 10
45.1884
 20
180.006
 11
44.8116
 21
180.006
  0
ENDSEC
  0
SECTION
  2
OBJECTS
  0
DICTIONARY
  0
ENDSEC
  0
EOF
