<?xml version="1.0" standalone="no"?>
<!DOCTYPE svg PUBLIC "-//W3C//DTD SVG 1.1//EN" "http://www.w3.org/Graphics/SVG/1.1/DTD/svg11.dtd">
<svg width="38mm" height="32mm" viewBox="-16 -94 38 32" xmlns="http://www.w3.org/2000/svg" version="1.1">
<title>OpenSCAD Model</title>
<path d="
M 17.9369,-62.0886 L 18.5451,-62.2447 L 19.1289,-62.4759 L 19.6791,-62.7784 L 20.1871,-63.1474 L 20.6448,-63.5773
 L 21.0451,-64.0611 L 21.3815,-64.5912 L 21.6489,-65.1594 L 21.8429,-65.7566 L 21.9606,-66.3733 L 22,-67
 L 22,-71 L 21.9606,-71.6267 L 21.8429,-72.2435 L 21.6489,-72.8406 L 21.3815,-73.4088 L 21.0451,-73.9389
 L 20.6448,-74.4227 L 20.1871,-74.8526 L 19.6791,-75.2216 L 19.1289,-75.5241 L 18.5451,-75.7553 L 17.9369,-75.9114
 L 17.3139,-75.9901 L 16,-75.9901 L 16,-88.5 L 9.45872,-88.5 L 10.07,-87.9259 L 11.2307,-86.5229
 L 12.2064,-84.9854 L 12.9818,-83.3378 L 13.5444,-81.606 L 13.8857,-79.8173 L 14,-78 L 13.8857,-76.1827
 L 13.5444,-74.394 L 12.9818,-72.6622 L 12.2064,-71.0146 L 11.2307,-69.4771 L 10.07,-68.0741 L 8.74265,-66.8276
 L 7.26949,-65.7572 L 5.6738,-64.88 L 3.98074,-64.2097 L 2.21703,-63.7568 L 0.410461,-63.5286 L -1.41046,-63.5286
 L -3.21703,-63.7568 L -4.98074,-64.2097 L -6.6738,-64.88 L -8.26949,-65.7572 L -9.74265,-66.8276 L -11.07,-68.0741
 L -12.2307,-69.4771 L -13.2064,-71.0146 L -13.9818,-72.6622 L -14.5444,-74.394 L -14.8857,-76.1827 L -15,-78
 L -14.8857,-79.8173 L -14.5444,-81.606 L -13.9818,-83.3378 L -13.2064,-84.9854 L -12.2307,-86.5229 L -11.07,-87.9259
 L -9.74265,-89.1724 L -8.26949,-90.2428 L -6.6738,-91.12 L -4.98074,-91.7903 L -3.21703,-92.2432 L -1.41046,-92.4714
 L 0,-92.4714 L 0,-92.5 L 1.24998,-92.5 L -0.240128,-93.9901 L -1.5,-93.9901 L -1.5,-93.5
 L -15.5,-93.5 L -15.5,-94 L -16,-94 L -16,-67 L -15.9606,-66.3733 L -15.8429,-65.7566
 L -15.6489,-65.1594 L -15.3815,-64.5912 L -15.0451,-64.0611 L -14.6448,-63.5773 L -14.1871,-63.1474 L -13.6791,-62.7784
 L -13.1289,-62.4759 L -12.5451,-62.2447 L -11.9369,-62.0886 L -11.3139,-62.0099 L 17.3139,-62.0099 z
M 14.8116,-66.0059 L 14.4379,-66.0531 L 14.0729,-66.1468 L 13.7227,-66.2855 L 13.3925,-66.467 L 13.0877,-66.6885
 L 12.8131,-66.9464 L 12.5729,-67.2366 L 12.3711,-67.5547 L 12.2107,-67.8956 L 12.0942,-68.2539 L 12.0237,-68.624
 L 12,-69 L 12.0237,-69.376 L 12.0942,-69.7461 L 12.2107,-70.1044 L 12.3711,-70.4453 L 12.5729,-70.7634
 L 12.8131,-71.0536 L 13.0877,-71.3116 L 13.3925,-71.533 L 13.7227,-71.7145 L 14.0729,-71.8532 L 14.4379,-71.9469
 L 14.8116,-71.9941 L 15.1884,-71.9941 L 15.5621,-71.9469 L 15.927,-71.8532 L 16.2773,-71.7145 L 16.6075,-71.533
 L 16.9123,-71.3116 L 17.1869,-71.0536 L 17.427,-70.7634 L 17.6289,-70.4453 L 17.7893,-70.1044 L 17.9057,-69.7461
 L 17.9763,-69.376 L 18,-69 L 17.9763,-68.624 L 17.9057,-68.2539 L 17.7893,-67.8956 L 17.6289,-67.5547
 L 17.427,-67.2366 L 17.1869,-66.9464 L 16.9123,-66.6885 L 16.6075,-66.467 L 16.2773,-66.2855 L 15.927,-66.1468
 L 15.5621,-66.0531 L 15.1884,-66.0059 z
M 14.1871,-92.8526 L 13.6791,-93.2216 L 13.1289,-93.5241 L 12.5451,-93.7553 L 11.9369,-93.9114 L 11.3139,-93.9901
 L 1.88118,-93.9901 L 3.37131,-92.5 L 14.5626,-92.5 z
M 14.1874,-89.0177 L 14.309,-89.0489 L 14.4258,-89.0952 L 14.5358,-89.1557 L 14.6374,-89.2295 L 14.729,-89.3154
 L 14.809,-89.4122 L 14.8763,-89.5182 L 14.9298,-89.6319 L 14.9686,-89.7513 L 14.9921,-89.8747 L 15,-90
 L 14.9921,-90.1253 L 14.9686,-90.2487 L 14.9298,-90.3681 L 14.8763,-90.4818 L 14.809,-90.5878 L 14.729,-90.6845
 L 14.6374,-90.7705 L 14.5358,-90.8443 L 14.4258,-90.9048 L 14.309,-90.951 L 14.1874,-90.9823 L 14.0628,-90.998
 L 8.93719,-90.998 L 8.81261,-90.9823 L 8.69098,-90.951 L 8.57422,-90.9048 L 8.46417,-90.8443 L 8.36256,-90.7705
 L 8.27103,-90.6845 L 8.19098,-90.5878 L 8.12369,-90.4818 L 8.07022,-90.3681 L 8.0314,-90.2487 L 8.00787,-90.1253
 L 8,-90 L 8.00787,-89.8747 L 8.0314,-89.7513 L 8.07022,-89.6319 L 8.12369,-89.5182 L 8.19098,-89.4122
 L 8.27103,-89.3154 L 8.36256,-89.2295 L 8.46417,-89.1557 L 8.57422,-89.0952 L 8.69098,-89.0489 L 8.81261,-89.0177
 L 8.93719,-89.002 L 14.0628,-89.002 z
" stroke="black" fill="lightgray" stroke-width="0.5"/>
</svg>
