<?xml version="1.0" standalone="no"?>
<!DOCTYPE svg PUBLIC "-//W3C//DTD SVG 1.1//EN" "http://www.w3.org/Graphics/SVG/1.1/DTD/svg11.dtd">
<svg width="90mm" height="129mm" viewBox="-45 -237 90 129" xmlns="http://www.w3.org/2000/svg" version="1.1">
<title>OpenSCAD Model</title>
<path d="
M 40.9369,-177.089 L 41.5451,-177.245 L 42.1289,-177.476 L 42.6791,-177.778 L 43.1871,-178.147 L 43.6448,-178.577
 L 44.0451,-179.061 L 44.3815,-179.591 L 44.6489,-180.159 L 44.8429,-180.757 L 44.9606,-181.373 L 45,-182
 L 45,-232 L 44.9606,-232.627 L 44.8429,-233.243 L 44.6489,-233.841 L 44.3815,-234.409 L 44.0451,-234.939
 L 43.6448,-235.423 L 43.1871,-235.853 L 42.6791,-236.222 L 42.1289,-236.524 L 41.5451,-236.755 L 40.9369,-236.911
 L 40.3139,-236.99 L -40.3139,-236.99 L -40.9369,-236.911 L -41.5451,-236.755 L -42.1289,-236.524 L -42.6791,-236.222
 L -43.1871,-235.853 L -43.6448,-235.423 L -44.0451,-234.939 L -44.3815,-234.409 L -44.6489,-233.841 L -44.8429,-233.243
 L -44.9606,-232.627 L -45,-232 L -45,-182 L -44.9606,-181.373 L -44.8429,-180.757 L -44.6489,-180.159
 L -44.3815,-179.591 L -44.0451,-179.061 L -43.6448,-178.577 L -43.1871,-178.147 L -42.6791,-177.778 L -42.1289,-177.476
 L -41.5451,-177.245 L -40.9369,-177.089 L -40.3139,-177.01 L 40.3139,-177.01 z
M -40.0375,-177.681 L -40.6079,-177.753 L -41.1648,-177.896 L -41.6994,-178.107 L -42.2032,-178.384 L -42.6684,-178.722
 L -43.0875,-179.116 L -43.454,-179.559 L -43.7621,-180.044 L -44.0069,-180.565 L -44.1846,-181.111 L -44.2923,-181.676
 L -44.3284,-182.25 L -44.3284,-231.75 L -44.2923,-232.324 L -44.1846,-232.889 L -44.0069,-233.435 L -43.7621,-233.956
 L -43.454,-234.441 L -43.0875,-234.884 L -42.6684,-235.278 L -42.2032,-235.616 L -41.6994,-235.893 L -41.1648,-236.104
 L -40.6079,-236.247 L -40.0375,-236.319 L 40.0375,-236.319 L 40.6079,-236.247 L 41.1648,-236.104 L 41.6994,-235.893
 L 42.2032,-235.616 L 42.6684,-235.278 L 43.0875,-234.884 L 43.454,-234.441 L 43.7621,-233.956 L 44.0069,-233.435
 L 44.1846,-232.889 L 44.2923,-232.324 L 44.3284,-231.75 L 44.3284,-182.25 L 44.2923,-181.676 L 44.1846,-181.111
 L 44.0069,-180.565 L 43.7621,-180.044 L 43.454,-179.559 L 43.0875,-179.116 L 42.6684,-178.722 L 42.2032,-178.384
 L 41.6994,-178.107 L 41.1648,-177.896 L 40.6079,-177.753 L 40.0375,-177.681 z
M 40.9369,-108.089 L 41.5451,-108.245 L 42.1289,-108.476 L 42.6791,-108.778 L 43.1871,-109.147 L 43.6448,-109.577
 L 44.0451,-110.061 L 44.3815,-110.591 L 44.6489,-111.159 L 44.8429,-111.757 L 44.9606,-112.373 L 45,-113
 L 45,-163 L 44.9606,-163.627 L 44.8429,-164.243 L 44.6489,-164.841 L 44.3815,-165.409 L 44.0451,-165.939
 L 43.6448,-166.423 L 43.1871,-166.853 L 42.6791,-167.222 L 42.1289,-167.524 L 41.5451,-167.755 L 40.9369,-167.911
 L 40.3139,-167.99 L -40.3139,-167.99 L -40.9369,-167.911 L -41.5451,-167.755 L -42.1289,-167.524 L -42.6791,-167.222
 L -43.1871,-166.853 L -43.6448,-166.423 L -44.0451,-165.939 L -44.3815,-165.409 L -44.6489,-164.841 L -44.8429,-164.243
 L -44.9606,-163.627 L -45,-163 L -45,-113 L -44.9606,-112.373 L -44.8429,-111.757 L -44.6489,-111.159
 L -44.3815,-110.591 L -44.0451,-110.061 L -43.6448,-109.577 L -43.1871,-109.147 L -42.6791,-108.778 L -42.1289,-108.476
 L -41.5451,-108.245 L -40.9369,-108.089 L -40.3139,-108.01 L 40.3139,-108.01 z
M -39.8825,-111.145 L -40.1453,-111.178 L -40.4019,-111.244 L -40.6482,-111.341 L -40.8804,-111.469 L -41.0947,-111.625
 L -41.2879,-111.806 L -41.4567,-112.01 L -41.5987,-112.234 L -41.7115,-112.473 L -41.7934,-112.725 L -41.843,-112.986
 L -41.8596,-113.25 L -41.8596,-162.75 L -41.843,-163.014 L -41.7934,-163.275 L -41.7115,-163.527 L -41.5987,-163.766
 L -41.4567,-163.99 L -41.2879,-164.194 L -41.0947,-164.375 L -40.8804,-164.531 L -40.6482,-164.659 L -40.4019,-164.756
 L -40.1453,-164.822 L -39.8825,-164.855 L 39.8825,-164.855 L 40.1453,-164.822 L 40.4019,-164.756 L 40.6482,-164.659
 L 40.8804,-164.531 L 41.0947,-164.375 L 41.2879,-164.194 L 41.4567,-163.99 L 41.5987,-163.766 L 41.7115,-163.527
 L 41.7934,-163.275 L 41.843,-163.014 L 41.8596,-162.75 L 41.8596,-113.25 L 41.843,-112.986 L 41.7934,-112.725
 L 41.7115,-112.473 L 41.5987,-112.234 L 41.4567,-112.01 L 41.2879,-111.806 L 41.0947,-111.625 L 40.8804,-111.469
 L 40.6482,-111.341 L 40.4019,-111.244 L 40.1453,-111.178 L 39.8825,-111.145 z
" stroke="black" fill="lightgray" stroke-width="0.5"/>
</svg>
