<?xml version="1.0" standalone="no"?>
<!DOCTYPE svg PUBLIC "-//W3C//DTD SVG 1.1//EN" "http://www.w3.org/Graphics/SVG/1.1/DTD/svg11.dtd">
<svg width="16mm" height="100mm" viewBox="-8 -131 16 100" xmlns="http://www.w3.org/2000/svg" version="1.1">
<title>OpenSCAD Model</title>
<path d="
M 3.4369,-85.5886 L 4.04507,-85.7447 L 4.62889,-85.9759 L 5.17912,-86.2784 L 5.68712,-86.6474 L 6.14484,-87.0773
 L 6.54507,-87.5611 L 6.88153,-88.0912 L 7.14888,-88.6594 L 7.34291,-89.2566 L 7.46057,-89.8733 L 7.5,-90.5
 L 7.5,-125.5 L 7.46057,-126.127 L 7.34291,-126.743 L 7.14888,-127.341 L 6.88153,-127.909 L 6.54507,-128.439
 L 6.14484,-128.923 L 5.68712,-129.353 L 5.17912,-129.722 L 4.62889,-130.024 L 4.04507,-130.255 L 3.4369,-130.411
 L 2.81395,-130.49 L -2.81395,-130.49 L -3.4369,-130.411 L -4.04507,-130.255 L -4.62889,-130.024 L -5.17912,-129.722
 L -5.68712,-129.353 L -6.14484,-128.923 L -6.54507,-128.439 L -6.88153,-127.909 L -7.14888,-127.341 L -7.34291,-126.743
 L -7.46057,-126.127 L -7.5,-125.5 L -7.5,-90.5 L -7.46057,-89.8733 L -7.34291,-89.2566 L -7.14888,-88.6594
 L -6.88153,-88.0912 L -6.54507,-87.5611 L -6.14484,-87.0773 L -5.68712,-86.6474 L -5.17912,-86.2784 L -4.62889,-85.9759
 L -4.04507,-85.7447 L -3.4369,-85.5886 L -2.81395,-85.5099 L 2.81395,-85.5099 z
M 3.4369,-31.5886 L 4.04507,-31.7447 L 4.62889,-31.9759 L 5.17912,-32.2784 L 5.68712,-32.6474 L 6.14484,-33.0773
 L 6.54507,-33.5611 L 6.88153,-34.0912 L 7.14888,-34.6594 L 7.34291,-35.2566 L 7.46057,-35.8733 L 7.5,-36.5
 L 7.5,-71.5 L 7.46057,-72.1267 L 7.34291,-72.7434 L 7.14888,-73.3406 L 6.88153,-73.9088 L 6.54507,-74.4389
 L 6.14484,-74.9227 L 5.68712,-75.3526 L 5.17912,-75.7216 L 4.62889,-76.0241 L 4.04507,-76.2553 L 3.4369,-76.4114
 L 2.81395,-76.4901 L -2.81395,-76.4901 L -3.4369,-76.4114 L -4.04507,-76.2553 L -4.62889,-76.0241 L -5.17912,-75.7216
 L -5.68712,-75.3526 L -6.14484,-74.9227 L -6.54507,-74.4389 L -6.88153,-73.9088 L -7.14888,-73.3406 L -7.34291,-72.7434
 L -7.46057,-72.1267 L -7.5,-71.5 L -7.5,-36.5 L -7.46057,-35.8733 L -7.34291,-35.2566 L -7.14888,-34.6594
 L -6.88153,-34.0912 L -6.54507,-33.5611 L -6.14484,-33.0773 L -5.68712,-32.6474 L -5.17912,-32.2784 L -4.62889,-31.9759
 L -4.04507,-31.7447 L -3.4369,-31.5886 L -2.81395,-31.5099 L 2.81395,-31.5099 z
M -0.113022,-67.2036 L -0.33728,-67.2319 L -0.556229,-67.2881 L -0.766388,-67.3713 L -0.964478,-67.4802 L -1.14735,-67.6131
 L -1.31213,-67.7678 L -1.45622,-67.942 L -1.57735,-68.1328 L -1.67358,-68.3374 L -1.74344,-68.5524 L -1.7858,-68.7744
 L -1.79999,-69 L -1.7858,-69.2256 L -1.74344,-69.4476 L -1.67358,-69.6626 L -1.57735,-69.8671 L -1.45622,-70.058
 L -1.31213,-70.2322 L -1.14735,-70.3869 L -0.964478,-70.5198 L -0.766388,-70.6287 L -0.556229,-70.7119 L -0.33728,-70.7681
 L -0.113022,-70.7964 L 0.113022,-70.7964 L 0.33728,-70.7681 L 0.556229,-70.7119 L 0.766388,-70.6287 L 0.964478,-70.5198
 L 1.14735,-70.3869 L 1.31213,-70.2322 L 1.45622,-70.058 L 1.57735,-69.8671 L 1.67358,-69.6626 L 1.74344,-69.4476
 L 1.7858,-69.2256 L 1.79999,-69 L 1.7858,-68.7744 L 1.74344,-68.5524 L 1.67358,-68.3374 L 1.57735,-68.1328
 L 1.45622,-67.942 L 1.31213,-67.7678 L 1.14735,-67.6131 L 0.964478,-67.4802 L 0.766388,-67.3713 L 0.556229,-67.2881
 L 0.33728,-67.2319 L 0.113022,-67.2036 z
M -0.113022,-37.2036 L -0.33728,-37.2319 L -0.556229,-37.2881 L -0.766388,-37.3713 L -0.964478,-37.4802 L -1.14735,-37.6131
 L -1.31213,-37.7678 L -1.45622,-37.942 L -1.57735,-38.1329 L -1.67358,-38.3374 L -1.74344,-38.5524 L -1.7858,-38.7744
 L -1.79999,-39 L -1.7858,-39.2256 L -1.74344,-39.4476 L -1.67358,-39.6626 L -1.57735,-39.8672 L -1.45622,-40.058
 L -1.31213,-40.2322 L -1.14735,-40.3869 L -0.964478,-40.5198 L -0.766388,-40.6287 L -0.556229,-40.7119 L -0.33728,-40.7681
 L -0.113022,-40.7964 L 0.113022,-40.7964 L 0.33728,-40.7681 L 0.556229,-40.7119 L 0.766388,-40.6287 L 0.964478,-40.5198
 L 1.14735,-40.3869 L 1.31213,-40.2322 L 1.45622,-40.058 L 1.57735,-39.8672 L 1.67358,-39.6626 L 1.74344,-39.4476
 L 1.7858,-39.2256 L 1.79999,-39 L 1.7858,-38.7744 L 1.74344,-38.5524 L 1.67358,-38.3374 L 1.57735,-38.1329
 L 1.45622,-37.942 L 1.31213,-37.7678 L 1.14735,-37.6131 L 0.964478,-37.4802 L 0.766388,-37.3713 L 0.556229,-37.2881
 L 0.33728,-37.2319 L 0.113022,-37.2036 z
" stroke="black" fill="lightgray" stroke-width="0.5"/>
</svg>
