  0
SECTION
  2
BLOCKS
  0
ENDSEC
  0
SECTION
  2
ENTITIES
  0
LINE
  8
0
 10
3.4369
 20
463.589
 11
4.04507
 21
463.745
  0
LINE
  8
0
 10
4.04507
 20
463.745
 11
4.62889
 21
463.976
  0
LINE
  8
0
 10
4.62889
 20
463.976
 11
5.17912
 21
464.278
  0
LINE
  8
0
 10
5.17912
 20
464.278
 11
5.68712
 21
464.647
  0
LINE
  8
0
 10
5.68712
 20
464.647
 11
6.14484
 21
465.077
  0
LINE
  8
0
 10
6.14484
 20
465.077
 11
6.54507
 21
465.561
  0
LINE
  8
0
 10
6.54507
 20
465.561
 11
6.88153
 21
466.091
  0
LINE
  8
0
 10
6.88153
 20
466.091
 11
7.14888
 21
466.659
  0
LINE
  8
0
 10
7.14888
 20
466.659
 11
7.34291
 21
467.257
  0
LINE
  8
0
 10
7.34291
 20
467.257
 11
7.46057
 21
467.873
  0
LINE
  8
0
 10
7.46057
 20
467.873
 11
7.5
 21
468.5
  0
LINE
  8
0
 10
7.5
 20
468.5
 11
7.5
 21
503.5
  0
LINE
  8
0
 10
7.5
 20
503.5
 11
7.46057
 21
504.127
  0
LINE
  8
0
 10
7.46057
 20
504.127
 11
7.34291
 21
504.743
  0
LINE
  8
0
 10
7.34291
 20
504.743
 11
7.14888
 21
505.341
  0
LINE
  8
0
 10
7.14888
 20
505.341
 11
6.88153
 21
505.909
  0
LINE
  8
0
 10
6.88153
 20
505.909
 11
6.54507
 21
506.439
  0
LINE
  8
0
 10
6.54507
 20
506.439
 11
6.14484
 21
506.923
  0
LINE
  8
0
 10
6.14484
 20
506.923
 11
5.68712
 21
507.353
  0
LINE
  8
0
 10
5.68712
 20
507.353
 11
5.17912
 21
507.722
  0
LINE
  8
0
 10
5.17912
 20
507.722
 11
4.62889
 21
508.024
  0
LINE
  8
0
 10
4.62889
 20
508.024
 11
4.04507
 21
508.255
  0
LINE
  8
0
 10
4.04507
 20
508.255
 11
3.4369
 21
508.411
  0
LINE
  8
0
 10
3.4369
 20
508.411
 11
2.81395
 21
508.49
  0
LINE
  8
0
 10
2.81395
 20
508.49
 11
-2.81395
 21
508.49
  0
LINE
  8
0
 10
-2.81395
 20
508.49
 11
-3.4369
 21
508.411
  0
LINE
  8
0
 10
-3.4369
 20
508.411
 11
-4.04507
 21
508.255
  0
LINE
  8
0
 10
-4.04507
 20
508.255
 11
-4.62889
 21
508.024
  0
LINE
  8
0
 10
-4.62889
 20
508.024
 11
-5.17912
 21
507.722
  0
LINE
  8
0
 10
-5.17912
 20
507.722
 11
-5.68712
 21
507.353
  0
LINE
  8
0
 10
-5.68712
 20
507.353
 11
-6.14484
 21
506.923
  0
LINE
  8
0
 10
-6.14484
 20
506.923
 11
-6.54507
 21
506.439
  0
LINE
  8
0
 10
-6.54507
 20
506.439
 11
-6.88153
 21
505.909
  0
LINE
  8
0
 10
-6.88153
 20
505.909
 11
-7.14888
 21
505.341
  0
LINE
  8
0
 10
-7.14888
 20
505.341
 11
-7.34291
 21
504.743
  0
LINE
  8
0
 10
-7.34291
 20
504.743
 11
-7.46057
 21
504.127
  0
LINE
  8
0
 10
-7.46057
 20
504.127
 11
-7.5
 21
503.5
  0
LINE
  8
0
 10
-7.5
 20
503.5
 11
-7.5
 21
468.5
  0
LINE
  8
0
 10
-7.5
 20
468.5
 11
-7.46057
 21
467.873
  0
LINE
  8
0
 10
-7.46057
 20
467.873
 11
-7.34291
 21
467.257
  0
LINE
  8
0
 10
-7.34291
 20
467.257
 11
-7.14888
 21
466.659
  0
LINE
  8
0
 10
-7.14888
 20
466.659
 11
-6.88153
 21
466.091
  0
LINE
  8
0
 10
-6.88153
 20
466.091
 11
-6.54507
 21
465.561
  0
LINE
  8
0
 10
-6.54507
 20
465.561
 11
-6.14484
 21
465.077
  0
LINE
  8
0
 10
-6.14484
 20
465.077
 11
-5.68712
 21
464.647
  0
LINE
  8
0
 10
-5.68712
 20
464.647
 11
-5.17912
 21
464.278
  0
LINE
  8
0
 10
-5.17912
 20
464.278
 11
-4.62889
 21
463.976
  0
LINE
  8
0
 10
-4.62889
 20
463.976
 11
-4.04507
 21
463.745
  0
LINE
  8
0
 10
-4.04507
 20
463.745
 11
-3.4369
 21
463.589
  0
LINE
  8
0
 10
-3.4369
 20
463.589
 11
-2.81395
 21
463.51
  0
LINE
  8
0
 10
-2.81395
 20
463.51
 11
2.81395
 21
463.51
  0
LINE
  8
0
 10
2.81395
 20
463.51
 11
3.4369
 21
463.589
  0
LINE
  8
0
 10
-2.25116
 20
465.008
 11
-2.74951
 21
465.071
  0
LINE
  8
0
 10
-2.74951
 20
465.071
 11
-3.23605
 21
465.196
  0
LINE
  8
0
 10
-3.23605
 20
465.196
 11
-3.70311
 21
465.381
  0
LINE
  8
0
 10
-3.70311
 20
465.381
 11
-4.1433
 21
465.623
  0
LINE
  8
0
 10
-4.1433
 20
465.623
 11
-4.54968
 21
465.918
  0
LINE
  8
0
 10
-4.54968
 20
465.918
 11
-4.91586
 21
466.262
  0
LINE
  8
0
 10
-4.91586
 20
466.262
 11
-5.23605
 21
466.649
  0
LINE
  8
0
 10
-5.23605
 20
466.649
 11
-5.50522
 21
467.073
  0
LINE
  8
0
 10
-5.50522
 20
467.073
 11
-5.7191
 21
467.528
  0
LINE
  8
0
 10
-5.7191
 20
467.528
 11
-5.87433
 21
468.005
  0
LINE
  8
0
 10
-5.87433
 20
468.005
 11
-5.96844
 21
468.499
  0
LINE
  8
0
 10
-5.96844
 20
468.499
 11
-6
 21
469
  0
LINE
  8
0
 10
-6
 20
469
 11
-6
 21
503
  0
LINE
  8
0
 10
-6
 20
503
 11
-5.96844
 21
503.501
  0
LINE
  8
0
 10
-5.96844
 20
503.501
 11
-5.87433
 21
503.995
  0
LINE
  8
0
 10
-5.87433
 20
503.995
 11
-5.7191
 21
504.472
  0
LINE
  8
0
 10
-5.7191
 20
504.472
 11
-5.50522
 21
504.927
  0
LINE
  8
0
 10
-5.50522
 20
504.927
 11
-5.23605
 21
505.351
  0
LINE
  8
0
 10
-5.23605
 20
505.351
 11
-4.91586
 21
505.738
  0
LINE
  8
0
 10
-4.91586
 20
505.738
 11
-4.54968
 21
506.082
  0
LINE
  8
0
 10
-4.54968
 20
506.082
 11
-4.1433
 21
506.377
  0
LINE
  8
0
 10
-4.1433
 20
506.377
 11
-3.70311
 21
506.619
  0
LINE
  8
0
 10
-3.70311
 20
506.619
 11
-3.23605
 21
506.804
  0
LINE
  8
0
 10
-3.23605
 20
506.804
 11
-2.74951
 21
506.929
  0
LINE
  8
0
 10
-2.74951
 20
506.929
 11
-2.25116
 21
506.992
  0
LINE
  8
0
 10
-2.25116
 20
506.992
 11
2.25116
 21
506.992
  0
LINE
  8
0
 10
2.25116
 20
506.992
 11
2.74951
 21
506.929
  0
LINE
  8
0
 10
2.74951
 20
506.929
 11
3.23605
 21
506.804
  0
LINE
  8
0
 10
3.23605
 20
506.804
 11
3.70311
 21
506.619
  0
LINE
  8
0
 10
3.70311
 20
506.619
 11
4.1433
 21
506.377
  0
LINE
  8
0
 10
4.1433
 20
506.377
 11
4.54968
 21
506.082
  0
LINE
  8
0
 10
4.54968
 20
506.082
 11
4.91586
 21
505.738
  0
LINE
  8
0
 10
4.91586
 20
505.738
 11
5.23605
 21
505.351
  0
LINE
  8
0
 10
5.23605
 20
505.351
 11
5.50522
 21
504.927
  0
LINE
  8
0
 10
5.50522
 20
504.927
 11
5.7191
 21
504.472
  0
LINE
  8
0
 10
5.7191
 20
504.472
 11
5.87433
 21
503.995
  0
LINE
  8
0
 10
5.87433
 20
503.995
 11
5.96844
 21
503.501
  0
LINE
  8
0
 10
5.96844
 20
503.501
 11
6
 21
503
  0
LINE
  8
0
 10
6
 20
503
 11
6
 21
469
  0
LINE
  8
0
 10
6
 20
469
 11
5.96844
 21
468.499
  0
LINE
  8
0
 10
5.96844
 20
468.499
 11
5.87433
 21
468.005
  0
LINE
  8
0
 10
5.87433
 20
468.005
 11
5.7191
 21
467.528
  0
LINE
  8
0
 10
5.7191
 20
467.528
 11
5.50522
 21
467.073
  0
LINE
  8
0
 10
5.50522
 20
467.073
 11
5.23605
 21
466.649
  0
LINE
  8
0
 10
5.23605
 20
466.649
 11
4.91586
 21
466.262
  0
LINE
  8
0
 10
4.91586
 20
466.262
 11
4.54968
 21
465.918
  0
LINE
  8
0
 10
4.54968
 20
465.918
 11
4.1433
 21
465.623
  0
LINE
  8
0
 10
4.1433
 20
465.623
 11
3.70311
 21
465.381
  0
LINE
  8
0
 10
3.70311
 20
465.381
 11
3.23605
 21
465.196
  0
LINE
  8
0
 10
3.23605
 20
465.196
 11
2.74951
 21
465.071
  0
LINE
  8
0
 10
2.74951
 20
465.071
 11
2.25116
 21
465.008
  0
LINE
  8
0
 10
2.25116
 20
465.008
 11
-2.25116
 21
465.008
  0
LINE
  8
0
 10
3.4369
 20
409.589
 11
4.04507
 21
409.745
  0
LINE
  8
0
 10
4.04507
 20
409.745
 11
4.62889
 21
409.976
  0
LINE
  8
0
 10
4.62889
 20
409.976
 11
5.17912
 21
410.278
  0
LINE
  8
0
 10
5.17912
 20
410.278
 11
5.68712
 21
410.647
  0
LINE
  8
0
 10
5.68712
 20
410.647
 11
6.14484
 21
411.077
  0
LINE
  8
0
 10
6.14484
 20
411.077
 11
6.54507
 21
411.561
  0
LINE
  8
0
 10
6.54507
 20
411.561
 11
6.88153
 21
412.091
  0
LINE
  8
0
 10
6.88153
 20
412.091
 11
7.14888
 21
412.659
  0
LINE
  8
0
 10
7.14888
 20
412.659
 11
7.34291
 21
413.257
  0
LINE
  8
0
 10
7.34291
 20
413.257
 11
7.46057
 21
413.873
  0
LINE
  8
0
 10
7.46057
 20
413.873
 11
7.5
 21
414.5
  0
LINE
  8
0
 10
7.5
 20
414.5
 11
7.5
 21
449.5
  0
LINE
  8
0
 10
7.5
 20
449.5
 11
7.46057
 21
450.127
  0
LINE
  8
0
 10
7.46057
 20
450.127
 11
7.34291
 21
450.743
  0
LINE
  8
0
 10
7.34291
 20
450.743
 11
7.14888
 21
451.341
  0
LINE
  8
0
 10
7.14888
 20
451.341
 11
6.88153
 21
451.909
  0
LINE
  8
0
 10
6.88153
 20
451.909
 11
6.54507
 21
452.439
  0
LINE
  8
0
 10
6.54507
 20
452.439
 11
6.14484
 21
452.923
  0
LINE
  8
0
 10
6.14484
 20
452.923
 11
5.68712
 21
453.353
  0
LINE
  8
0
 10
5.68712
 20
453.353
 11
5.17912
 21
453.722
  0
LINE
  8
0
 10
5.17912
 20
453.722
 11
4.62889
 21
454.024
  0
LINE
  8
0
 10
4.62889
 20
454.024
 11
4.04507
 21
454.255
  0
LINE
  8
0
 10
4.04507
 20
454.255
 11
3.4369
 21
454.411
  0
LINE
  8
0
 10
3.4369
 20
454.411
 11
2.81395
 21
454.49
  0
LINE
  8
0
 10
2.81395
 20
454.49
 11
-2.81395
 21
454.49
  0
LINE
  8
0
 10
-2.81395
 20
454.49
 11
-3.4369
 21
454.411
  0
LINE
  8
0
 10
-3.4369
 20
454.411
 11
-4.04507
 21
454.255
  0
LINE
  8
0
 10
-4.04507
 20
454.255
 11
-4.62889
 21
454.024
  0
LINE
  8
0
 10
-4.62889
 20
454.024
 11
-5.17912
 21
453.722
  0
LINE
  8
0
 10
-5.17912
 20
453.722
 11
-5.68712
 21
453.353
  0
LINE
  8
0
 10
-5.68712
 20
453.353
 11
-6.14484
 21
452.923
  0
LINE
  8
0
 10
-6.14484
 20
452.923
 11
-6.54507
 21
452.439
  0
LINE
  8
0
 10
-6.54507
 20
452.439
 11
-6.88153
 21
451.909
  0
LINE
  8
0
 10
-6.88153
 20
451.909
 11
-7.14888
 21
451.341
  0
LINE
  8
0
 10
-7.14888
 20
451.341
 11
-7.34291
 21
450.743
  0
LINE
  8
0
 10
-7.34291
 20
450.743
 11
-7.46057
 21
450.127
  0
LINE
  8
0
 10
-7.46057
 20
450.127
 11
-7.5
 21
449.5
  0
LINE
  8
0
 10
-7.5
 20
449.5
 11
-7.5
 21
414.5
  0
LINE
  8
0
 10
-7.5
 20
414.5
 11
-7.46057
 21
413.873
  0
LINE
  8
0
 10
-7.46057
 20
413.873
 11
-7.34291
 21
413.257
  0
LINE
  8
0
 10
-7.34291
 20
413.257
 11
-7.14888
 21
412.659
  0
LINE
  8
0
 10
-7.14888
 20
412.659
 11
-6.88153
 21
412.091
  0
LINE
  8
0
 10
-6.88153
 20
412.091
 11
-6.54507
 21
411.561
  0
LINE
  8
0
 10
-6.54507
 20
411.561
 11
-6.14484
 21
411.077
  0
LINE
  8
0
 10
-6.14484
 20
411.077
 11
-5.68712
 21
410.647
  0
LINE
  8
0
 10
-5.68712
 20
410.647
 11
-5.17912
 21
410.278
  0
LINE
  8
0
 10
-5.17912
 20
410.278
 11
-4.62889
 21
409.976
  0
LINE
  8
0
 10
-4.62889
 20
409.976
 11
-4.04507
 21
409.745
  0
LINE
  8
0
 10
-4.04507
 20
409.745
 11
-3.4369
 21
409.589
  0
LINE
  8
0
 10
-3.4369
 20
409.589
 11
-2.81395
 21
409.51
  0
LINE
  8
0
 10
-2.81395
 20
409.51
 11
2.81395
 21
409.51
  0
LINE
  8
0
 10
2.81395
 20
409.51
 11
3.4369
 21
409.589
  0
LINE
  8
0
 10
-2.25116
 20
411.008
 11
-2.74951
 21
411.071
  0
LINE
  8
0
 10
-2.74951
 20
411.071
 11
-3.23605
 21
411.196
  0
LINE
  8
0
 10
-3.23605
 20
411.196
 11
-3.70311
 21
411.381
  0
LINE
  8
0
 10
-3.70311
 20
411.381
 11
-4.1433
 21
411.623
  0
LINE
  8
0
 10
-4.1433
 20
411.623
 11
-4.54968
 21
411.918
  0
LINE
  8
0
 10
-4.54968
 20
411.918
 11
-4.91586
 21
412.262
  0
LINE
  8
0
 10
-4.91586
 20
412.262
 11
-5.23605
 21
412.649
  0
LINE
  8
0
 10
-5.23605
 20
412.649
 11
-5.50522
 21
413.073
  0
LINE
  8
0
 10
-5.50522
 20
413.073
 11
-5.7191
 21
413.528
  0
LINE
  8
0
 10
-5.7191
 20
413.528
 11
-5.87433
 21
414.005
  0
LINE
  8
0
 10
-5.87433
 20
414.005
 11
-5.96844
 21
414.499
  0
LINE
  8
0
 10
-5.96844
 20
414.499
 11
-6
 21
415
  0
LINE
  8
0
 10
-6
 20
415
 11
-6
 21
449
  0
LINE
  8
0
 10
-6
 20
449
 11
-5.96844
 21
449.501
  0
LINE
  8
0
 10
-5.96844
 20
449.501
 11
-5.87433
 21
449.995
  0
LINE
  8
0
 10
-5.87433
 20
449.995
 11
-5.7191
 21
450.472
  0
LINE
  8
0
 10
-5.7191
 20
450.472
 11
-5.50522
 21
450.927
  0
LINE
  8
0
 10
-5.50522
 20
450.927
 11
-5.23605
 21
451.351
  0
LINE
  8
0
 10
-5.23605
 20
451.351
 11
-4.91586
 21
451.738
  0
LINE
  8
0
 10
-4.91586
 20
451.738
 11
-4.54968
 21
452.082
  0
LINE
  8
0
 10
-4.54968
 20
452.082
 11
-4.1433
 21
452.377
  0
LINE
  8
0
 10
-4.1433
 20
452.377
 11
-3.70311
 21
452.619
  0
LINE
  8
0
 10
-3.70311
 20
452.619
 11
-3.23605
 21
452.804
  0
LINE
  8
0
 10
-3.23605
 20
452.804
 11
-2.74951
 21
452.929
  0
LINE
  8
0
 10
-2.74951
 20
452.929
 11
-2.25116
 21
452.992
  0
LINE
  8
0
 10
-2.25116
 20
452.992
 11
2.25116
 21
452.992
  0
LINE
  8
0
 10
2.25116
 20
452.992
 11
2.74951
 21
452.929
  0
LINE
  8
0
 10
2.74951
 20
452.929
 11
3.23605
 21
452.804
  0
LINE
  8
0
 10
3.23605
 20
452.804
 11
3.70311
 21
452.619
  0
LINE
  8
0
 10
3.70311
 20
452.619
 11
4.1433
 21
452.377
  0
LINE
  8
0
 10
4.1433
 20
452.377
 11
4.54968
 21
452.082
  0
LINE
  8
0
 10
4.54968
 20
452.082
 11
4.91586
 21
451.738
  0
LINE
  8
0
 10
4.91586
 20
451.738
 11
5.23605
 21
451.351
  0
LINE
  8
0
 10
5.23605
 20
451.351
 11
5.50522
 21
450.927
  0
LINE
  8
0
 10
5.50522
 20
450.927
 11
5.7191
 21
450.472
  0
LINE
  8
0
 10
5.7191
 20
450.472
 11
5.87433
 21
449.995
  0
LINE
  8
0
 10
5.87433
 20
449.995
 11
5.96844
 21
449.501
  0
LINE
  8
0
 10
5.96844
 20
449.501
 11
6
 21
449
  0
LINE
  8
0
 10
6
 20
449
 11
6
 21
415
  0
LINE
  8
0
 10
6
 20
415
 11
5.96844
 21
414.499
  0
LINE
  8
0
 10
5.96844
 20
414.499
 11
5.87433
 21
414.005
  0
LINE
  8
0
 10
5.87433
 20
414.005
 11
5.7191
 21
413.528
  0
LINE
  8
0
 10
5.7191
 20
413.528
 11
5.50522
 21
413.073
  0
LINE
  8
0
 10
5.50522
 20
413.073
 11
5.23605
 21
412.649
  0
LINE
  8
0
 10
5.23605
 20
412.649
 11
4.91586
 21
412.262
  0
LINE
  8
0
 10
4.91586
 20
412.262
 11
4.54968
 21
411.918
  0
LINE
  8
0
 10
4.54968
 20
411.918
 11
4.1433
 21
411.623
  0
LINE
  8
0
 10
4.1433
 20
411.623
 11
3.70311
 21
411.381
  0
LINE
  8
0
 10
3.70311
 20
411.381
 11
3.23605
 21
411.196
  0
LINE
  8
0
 10
3.23605
 20
411.196
 11
2.74951
 21
411.071
  0
LINE
  8
0
 10
2.74951
 20
411.071
 11
2.25116
 21
411.008
  0
LINE
  8
0
 10
2.25116
 20
411.008
 11
-2.25116
 21
411.008
  0
LINE
  8
0
 10
3.4369
 20
355.589
 11
4.04507
 21
355.745
  0
LINE
  8
0
 10
4.04507
 20
355.745
 11
4.62889
 21
355.976
  0
LINE
  8
0
 10
4.62889
 20
355.976
 11
5.17912
 21
356.278
  0
LINE
  8
0
 10
5.17912
 20
356.278
 11
5.68712
 21
356.647
  0
LINE
  8
0
 10
5.68712
 20
356.647
 11
6.14484
 21
357.077
  0
LINE
  8
0
 10
6.14484
 20
357.077
 11
6.54507
 21
357.561
  0
LINE
  8
0
 10
6.54507
 20
357.561
 11
6.88153
 21
358.091
  0
LINE
  8
0
 10
6.88153
 20
358.091
 11
7.14888
 21
358.659
  0
LINE
  8
0
 10
7.14888
 20
358.659
 11
7.34291
 21
359.257
  0
LINE
  8
0
 10
7.34291
 20
359.257
 11
7.46057
 21
359.873
  0
LINE
  8
0
 10
7.46057
 20
359.873
 11
7.5
 21
360.5
  0
LINE
  8
0
 10
7.5
 20
360.5
 11
7.5
 21
395.5
  0
LINE
  8
0
 10
7.5
 20
395.5
 11
7.46057
 21
396.127
  0
LINE
  8
0
 10
7.46057
 20
396.127
 11
7.34291
 21
396.743
  0
LINE
  8
0
 10
7.34291
 20
396.743
 11
7.14888
 21
397.341
  0
LINE
  8
0
 10
7.14888
 20
397.341
 11
6.88153
 21
397.909
  0
LINE
  8
0
 10
6.88153
 20
397.909
 11
6.54507
 21
398.439
  0
LINE
  8
0
 10
6.54507
 20
398.439
 11
6.14484
 21
398.923
  0
LINE
  8
0
 10
6.14484
 20
398.923
 11
5.68712
 21
399.353
  0
LINE
  8
0
 10
5.68712
 20
399.353
 11
5.17912
 21
399.722
  0
LINE
  8
0
 10
5.17912
 20
399.722
 11
4.62889
 21
400.024
  0
LINE
  8
0
 10
4.62889
 20
400.024
 11
4.04507
 21
400.255
  0
LINE
  8
0
 10
4.04507
 20
400.255
 11
3.4369
 21
400.411
  0
LINE
  8
0
 10
3.4369
 20
400.411
 11
2.81395
 21
400.49
  0
LINE
  8
0
 10
2.81395
 20
400.49
 11
-2.81395
 21
400.49
  0
LINE
  8
0
 10
-2.81395
 20
400.49
 11
-3.4369
 21
400.411
  0
LINE
  8
0
 10
-3.4369
 20
400.411
 11
-4.04507
 21
400.255
  0
LINE
  8
0
 10
-4.04507
 20
400.255
 11
-4.62889
 21
400.024
  0
LINE
  8
0
 10
-4.62889
 20
400.024
 11
-5.17912
 21
399.722
  0
LINE
  8
0
 10
-5.17912
 20
399.722
 11
-5.68712
 21
399.353
  0
LINE
  8
0
 10
-5.68712
 20
399.353
 11
-6.14484
 21
398.923
  0
LINE
  8
0
 10
-6.14484
 20
398.923
 11
-6.54507
 21
398.439
  0
LINE
  8
0
 10
-6.54507
 20
398.439
 11
-6.88153
 21
397.909
  0
LINE
  8
0
 10
-6.88153
 20
397.909
 11
-7.14888
 21
397.341
  0
LINE
  8
0
 10
-7.14888
 20
397.341
 11
-7.34291
 21
396.743
  0
LINE
  8
0
 10
-7.34291
 20
396.743
 11
-7.46057
 21
396.127
  0
LINE
  8
0
 10
-7.46057
 20
396.127
 11
-7.5
 21
395.5
  0
LINE
  8
0
 10
-7.5
 20
395.5
 11
-7.5
 21
360.5
  0
LINE
  8
0
 10
-7.5
 20
360.5
 11
-7.46057
 21
359.873
  0
LINE
  8
0
 10
-7.46057
 20
359.873
 11
-7.34291
 21
359.257
  0
LINE
  8
0
 10
-7.34291
 20
359.257
 11
-7.14888
 21
358.659
  0
LINE
  8
0
 10
-7.14888
 20
358.659
 11
-6.88153
 21
358.091
  0
LINE
  8
0
 10
-6.88153
 20
358.091
 11
-6.54507
 21
357.561
  0
LINE
  8
0
 10
-6.54507
 20
357.561
 11
-6.14484
 21
357.077
  0
LINE
  8
0
 10
-6.14484
 20
357.077
 11
-5.68712
 21
356.647
  0
LINE
  8
0
 10
-5.68712
 20
356.647
 11
-5.17912
 21
356.278
  0
LINE
  8
0
 10
-5.17912
 20
356.278
 11
-4.62889
 21
355.976
  0
LINE
  8
0
 10
-4.62889
 20
355.976
 11
-4.04507
 21
355.745
  0
LINE
  8
0
 10
-4.04507
 20
355.745
 11
-3.4369
 21
355.589
  0
LINE
  8
0
 10
-3.4369
 20
355.589
 11
-2.81395
 21
355.51
  0
LINE
  8
0
 10
-2.81395
 20
355.51
 11
2.81395
 21
355.51
  0
LINE
  8
0
 10
2.81395
 20
355.51
 11
3.4369
 21
355.589
  0
LINE
  8
0
 10
-2.25116
 20
357.008
 11
-2.74951
 21
357.071
  0
LINE
  8
0
 10
-2.74951
 20
357.071
 11
-3.23605
 21
357.196
  0
LINE
  8
0
 10
-3.23605
 20
357.196
 11
-3.70311
 21
357.381
  0
LINE
  8
0
 10
-3.70311
 20
357.381
 11
-4.1433
 21
357.623
  0
LINE
  8
0
 10
-4.1433
 20
357.623
 11
-4.54968
 21
357.918
  0
LINE
  8
0
 10
-4.54968
 20
357.918
 11
-4.91586
 21
358.262
  0
LINE
  8
0
 10
-4.91586
 20
358.262
 11
-5.23605
 21
358.649
  0
LINE
  8
0
 10
-5.23605
 20
358.649
 11
-5.50522
 21
359.073
  0
LINE
  8
0
 10
-5.50522
 20
359.073
 11
-5.7191
 21
359.528
  0
LINE
  8
0
 10
-5.7191
 20
359.528
 11
-5.87433
 21
360.005
  0
LINE
  8
0
 10
-5.87433
 20
360.005
 11
-5.96844
 21
360.499
  0
LINE
  8
0
 10
-5.96844
 20
360.499
 11
-6
 21
361
  0
LINE
  8
0
 10
-6
 20
361
 11
-6
 21
395
  0
LINE
  8
0
 10
-6
 20
395
 11
-5.96844
 21
395.501
  0
LINE
  8
0
 10
-5.96844
 20
395.501
 11
-5.87433
 21
395.995
  0
LINE
  8
0
 10
-5.87433
 20
395.995
 11
-5.7191
 21
396.472
  0
LINE
  8
0
 10
-5.7191
 20
396.472
 11
-5.50522
 21
396.927
  0
LINE
  8
0
 10
-5.50522
 20
396.927
 11
-5.23605
 21
397.351
  0
LINE
  8
0
 10
-5.23605
 20
397.351
 11
-4.91586
 21
397.738
  0
LINE
  8
0
 10
-4.91586
 20
397.738
 11
-4.54968
 21
398.082
  0
LINE
  8
0
 10
-4.54968
 20
398.082
 11
-4.1433
 21
398.377
  0
LINE
  8
0
 10
-4.1433
 20
398.377
 11
-3.70311
 21
398.619
  0
LINE
  8
0
 10
-3.70311
 20
398.619
 11
-3.23605
 21
398.804
  0
LINE
  8
0
 10
-3.23605
 20
398.804
 11
-2.74951
 21
398.929
  0
LINE
  8
0
 10
-2.74951
 20
398.929
 11
-2.25116
 21
398.992
  0
LINE
  8
0
 10
-2.25116
 20
398.992
 11
2.25116
 21
398.992
  0
LINE
  8
0
 10
2.25116
 20
398.992
 11
2.74951
 21
398.929
  0
LINE
  8
0
 10
2.74951
 20
398.929
 11
3.23605
 21
398.804
  0
LINE
  8
0
 10
3.23605
 20
398.804
 11
3.70311
 21
398.619
  0
LINE
  8
0
 10
3.70311
 20
398.619
 11
4.1433
 21
398.377
  0
LINE
  8
0
 10
4.1433
 20
398.377
 11
4.54968
 21
398.082
  0
LINE
  8
0
 10
4.54968
 20
398.082
 11
4.91586
 21
397.738
  0
LINE
  8
0
 10
4.91586
 20
397.738
 11
5.23605
 21
397.351
  0
LINE
  8
0
 10
5.23605
 20
397.351
 11
5.50522
 21
396.927
  0
LINE
  8
0
 10
5.50522
 20
396.927
 11
5.7191
 21
396.472
  0
LINE
  8
0
 10
5.7191
 20
396.472
 11
5.87433
 21
395.995
  0
LINE
  8
0
 10
5.87433
 20
395.995
 11
5.96844
 21
395.501
  0
LINE
  8
0
 10
5.96844
 20
395.501
 11
6
 21
395
  0
LINE
  8
0
 10
6
 20
395
 11
6
 21
361
  0
LINE
  8
0
 10
6
 20
361
 11
5.96844
 21
360.499
  0
LINE
  8
0
 10
5.96844
 20
360.499
 11
5.87433
 21
360.005
  0
LINE
  8
0
 10
5.87433
 20
360.005
 11
5.7191
 21
359.528
  0
LINE
  8
0
 10
5.7191
 20
359.528
 11
5.50522
 21
359.073
  0
LINE
  8
0
 10
5.50522
 20
359.073
 11
5.23605
 21
358.649
  0
LINE
  8
0
 10
5.23605
 20
358.649
 11
4.91586
 21
358.262
  0
LINE
  8
0
 10
4.91586
 20
358.262
 11
4.54968
 21
357.918
  0
LINE
  8
0
 10
4.54968
 20
357.918
 11
4.1433
 21
357.623
  0
LINE
  8
0
 10
4.1433
 20
357.623
 11
3.70311
 21
357.381
  0
LINE
  8
0
 10
3.70311
 20
357.381
 11
3.23605
 21
357.196
  0
LINE
  8
0
 10
3.23605
 20
357.196
 11
2.74951
 21
357.071
  0
LINE
  8
0
 10
2.74951
 20
357.071
 11
2.25116
 21
357.008
  0
LINE
  8
0
 10
2.25116
 20
357.008
 11
-2.25116
 21
357.008
  0
LINE
  8
0
 10
3.4369
 20
301.589
 11
4.04507
 21
301.745
  0
LINE
  8
0
 10
4.04507
 20
301.745
 11
4.62889
 21
301.976
  0
LINE
  8
0
 10
4.62889
 20
301.976
 11
5.17912
 21
302.278
  0
LINE
  8
0
 10
5.17912
 20
302.278
 11
5.68712
 21
302.647
  0
LINE
  8
0
 10
5.68712
 20
302.647
 11
6.14484
 21
303.077
  0
LINE
  8
0
 10
6.14484
 20
303.077
 11
6.54507
 21
303.561
  0
LINE
  8
0
 10
6.54507
 20
303.561
 11
6.88153
 21
304.091
  0
LINE
  8
0
 10
6.88153
 20
304.091
 11
7.14888
 21
304.659
  0
LINE
  8
0
 10
7.14888
 20
304.659
 11
7.34291
 21
305.257
  0
LINE
  8
0
 10
7.34291
 20
305.257
 11
7.46057
 21
305.873
  0
LINE
  8
0
 10
7.46057
 20
305.873
 11
7.5
 21
306.5
  0
LINE
  8
0
 10
7.5
 20
306.5
 11
7.5
 21
341.5
  0
LINE
  8
0
 10
7.5
 20
341.5
 11
7.46057
 21
342.127
  0
LINE
  8
0
 10
7.46057
 20
342.127
 11
7.34291
 21
342.743
  0
LINE
  8
0
 10
7.34291
 20
342.743
 11
7.14888
 21
343.341
  0
LINE
  8
0
 10
7.14888
 20
343.341
 11
6.88153
 21
343.909
  0
LINE
  8
0
 10
6.88153
 20
343.909
 11
6.54507
 21
344.439
  0
LINE
  8
0
 10
6.54507
 20
344.439
 11
6.14484
 21
344.923
  0
LINE
  8
0
 10
6.14484
 20
344.923
 11
5.68712
 21
345.353
  0
LINE
  8
0
 10
5.68712
 20
345.353
 11
5.17912
 21
345.722
  0
LINE
  8
0
 10
5.17912
 20
345.722
 11
4.62889
 21
346.024
  0
LINE
  8
0
 10
4.62889
 20
346.024
 11
4.04507
 21
346.255
  0
LINE
  8
0
 10
4.04507
 20
346.255
 11
3.4369
 21
346.411
  0
LINE
  8
0
 10
3.4369
 20
346.411
 11
2.81395
 21
346.49
  0
LINE
  8
0
 10
2.81395
 20
346.49
 11
-2.81395
 21
346.49
  0
LINE
  8
0
 10
-2.81395
 20
346.49
 11
-3.4369
 21
346.411
  0
LINE
  8
0
 10
-3.4369
 20
346.411
 11
-4.04507
 21
346.255
  0
LINE
  8
0
 10
-4.04507
 20
346.255
 11
-4.62889
 21
346.024
  0
LINE
  8
0
 10
-4.62889
 20
346.024
 11
-5.17912
 21
345.722
  0
LINE
  8
0
 10
-5.17912
 20
345.722
 11
-5.68712
 21
345.353
  0
LINE
  8
0
 10
-5.68712
 20
345.353
 11
-6.14484
 21
344.923
  0
LINE
  8
0
 10
-6.14484
 20
344.923
 11
-6.54507
 21
344.439
  0
LINE
  8
0
 10
-6.54507
 20
344.439
 11
-6.88153
 21
343.909
  0
LINE
  8
0
 10
-6.88153
 20
343.909
 11
-7.14888
 21
343.341
  0
LINE
  8
0
 10
-7.14888
 20
343.341
 11
-7.34291
 21
342.743
  0
LINE
  8
0
 10
-7.34291
 20
342.743
 11
-7.46057
 21
342.127
  0
LINE
  8
0
 10
-7.46057
 20
342.127
 11
-7.5
 21
341.5
  0
LINE
  8
0
 10
-7.5
 20
341.5
 11
-7.5
 21
306.5
  0
LINE
  8
0
 10
-7.5
 20
306.5
 11
-7.46057
 21
305.873
  0
LINE
  8
0
 10
-7.46057
 20
305.873
 11
-7.34291
 21
305.257
  0
LINE
  8
0
 10
-7.34291
 20
305.257
 11
-7.14888
 21
304.659
  0
LINE
  8
0
 10
-7.14888
 20
304.659
 11
-6.88153
 21
304.091
  0
LINE
  8
0
 10
-6.88153
 20
304.091
 11
-6.54507
 21
303.561
  0
LINE
  8
0
 10
-6.54507
 20
303.561
 11
-6.14484
 21
303.077
  0
LINE
  8
0
 10
-6.14484
 20
303.077
 11
-5.68712
 21
302.647
  0
LINE
  8
0
 10
-5.68712
 20
302.647
 11
-5.17912
 21
302.278
  0
LINE
  8
0
 10
-5.17912
 20
302.278
 11
-4.62889
 21
301.976
  0
LINE
  8
0
 10
-4.62889
 20
301.976
 11
-4.04507
 21
301.745
  0
LINE
  8
0
 10
-4.04507
 20
301.745
 11
-3.4369
 21
301.589
  0
LINE
  8
0
 10
-3.4369
 20
301.589
 11
-2.81395
 21
301.51
  0
LINE
  8
0
 10
-2.81395
 20
301.51
 11
2.81395
 21
301.51
  0
LINE
  8
0
 10
2.81395
 20
301.51
 11
3.4369
 21
301.589
  0
LINE
  8
0
 10
-2.19545
 20
303.893
 11
-2.5833
 21
303.942
  0
LINE
  8
0
 10
-2.5833
 20
303.942
 11
-2.96194
 21
304.039
  0
LINE
  8
0
 10
-2.96194
 20
304.039
 11
-3.32541
 21
304.183
  0
LINE
  8
0
 10
-3.32541
 20
304.183
 11
-3.66798
 21
304.372
  0
LINE
  8
0
 10
-3.66798
 20
304.372
 11
-3.98424
 21
304.601
  0
LINE
  8
0
 10
-3.98424
 20
304.601
 11
-4.26921
 21
304.869
  0
LINE
  8
0
 10
-4.26921
 20
304.869
 11
-4.5184
 21
305.17
  0
LINE
  8
0
 10
-4.5184
 20
305.17
 11
-4.72786
 21
305.5
  0
LINE
  8
0
 10
-4.72786
 20
305.5
 11
-4.89432
 21
305.854
  0
LINE
  8
0
 10
-4.89432
 20
305.854
 11
-5.01512
 21
306.226
  0
LINE
  8
0
 10
-5.01512
 20
306.226
 11
-5.08836
 21
306.61
  0
LINE
  8
0
 10
-5.08836
 20
306.61
 11
-5.11292
 21
307
  0
LINE
  8
0
 10
-5.11292
 20
307
 11
-5.11292
 21
341
  0
LINE
  8
0
 10
-5.11292
 20
341
 11
-5.08836
 21
341.39
  0
LINE
  8
0
 10
-5.08836
 20
341.39
 11
-5.01512
 21
341.774
  0
LINE
  8
0
 10
-5.01512
 20
341.774
 11
-4.89432
 21
342.146
  0
LINE
  8
0
 10
-4.89432
 20
342.146
 11
-4.72786
 21
342.5
  0
LINE
  8
0
 10
-4.72786
 20
342.5
 11
-4.5184
 21
342.83
  0
LINE
  8
0
 10
-4.5184
 20
342.83
 11
-4.26921
 21
343.131
  0
LINE
  8
0
 10
-4.26921
 20
343.131
 11
-3.98424
 21
343.399
  0
LINE
  8
0
 10
-3.98424
 20
343.399
 11
-3.66798
 21
343.628
  0
LINE
  8
0
 10
-3.66798
 20
343.628
 11
-3.32541
 21
343.817
  0
LINE
  8
0
 10
-3.32541
 20
343.817
 11
-2.96194
 21
343.961
  0
LINE
  8
0
 10
-2.96194
 20
343.961
 11
-2.5833
 21
344.058
  0
LINE
  8
0
 10
-2.5833
 20
344.058
 11
-2.19545
 21
344.107
  0
LINE
  8
0
 10
-2.19545
 20
344.107
 11
2.19545
 21
344.107
  0
LINE
  8
0
 10
2.19545
 20
344.107
 11
2.5833
 21
344.058
  0
LINE
  8
0
 10
2.5833
 20
344.058
 11
2.96194
 21
343.961
  0
LINE
  8
0
 10
2.96194
 20
343.961
 11
3.32541
 21
343.817
  0
LINE
  8
0
 10
3.32541
 20
343.817
 11
3.66798
 21
343.628
  0
LINE
  8
0
 10
3.66798
 20
343.628
 11
3.98424
 21
343.399
  0
LINE
  8
0
 10
3.98424
 20
343.399
 11
4.26921
 21
343.131
  0
LINE
  8
0
 10
4.26921
 20
343.131
 11
4.5184
 21
342.83
  0
LINE
  8
0
 10
4.5184
 20
342.83
 11
4.72786
 21
342.5
  0
LINE
  8
0
 10
4.72786
 20
342.5
 11
4.89432
 21
342.146
  0
LINE
  8
0
 10
4.89432
 20
342.146
 11
5.01512
 21
341.774
  0
LINE
  8
0
 10
5.01512
 20
341.774
 11
5.08836
 21
341.39
  0
LINE
  8
0
 10
5.08836
 20
341.39
 11
5.11292
 21
341
  0
LINE
  8
0
 10
5.11292
 20
341
 11
5.11292
 21
307
  0
LINE
  8
0
 10
5.11292
 20
307
 11
5.08836
 21
306.61
  0
LINE
  8
0
 10
5.08836
 20
306.61
 11
5.01512
 21
306.226
  0
LINE
  8
0
 10
5.01512
 20
306.226
 11
4.89432
 21
305.854
  0
LINE
  8
0
 10
4.89432
 20
305.854
 11
4.72786
 21
305.5
  0
LINE
  8
0
 10
4.72786
 20
305.5
 11
4.5184
 21
305.17
  0
LINE
  8
0
 10
4.5184
 20
305.17
 11
4.26921
 21
304.869
  0
LINE
  8
0
 10
4.26921
 20
304.869
 11
3.98424
 21
304.601
  0
LINE
  8
0
 10
3.98424
 20
304.601
 11
3.66798
 21
304.372
  0
LINE
  8
0
 10
3.66798
 20
304.372
 11
3.32541
 21
304.183
  0
LINE
  8
0
 10
3.32541
 20
304.183
 11
2.96194
 21
304.039
  0
LINE
  8
0
 10
2.96194
 20
304.039
 11
2.5833
 21
303.942
  0
LINE
  8
0
 10
2.5833
 20
303.942
 11
2.19545
 21
303.893
  0
LINE
  8
0
 10
2.19545
 20
303.893
 11
-2.19545
 21
303.893
  0
LINE
  8
0
 10
3.4369
 20
247.589
 11
4.04507
 21
247.745
  0
LINE
  8
0
 10
4.04507
 20
247.745
 11
4.62889
 21
247.976
  0
LINE
  8
0
 10
4.62889
 20
247.976
 11
5.17912
 21
248.278
  0
LINE
  8
0
 10
5.17912
 20
248.278
 11
5.68712
 21
248.647
  0
LINE
  8
0
 10
5.68712
 20
248.647
 11
6.14484
 21
249.077
  0
LINE
  8
0
 10
6.14484
 20
249.077
 11
6.54507
 21
249.561
  0
LINE
  8
0
 10
6.54507
 20
249.561
 11
6.88153
 21
250.091
  0
LINE
  8
0
 10
6.88153
 20
250.091
 11
7.14888
 21
250.659
  0
LINE
  8
0
 10
7.14888
 20
250.659
 11
7.34291
 21
251.257
  0
LINE
  8
0
 10
7.34291
 20
251.257
 11
7.46057
 21
251.873
  0
LINE
  8
0
 10
7.46057
 20
251.873
 11
7.5
 21
252.5
  0
LINE
  8
0
 10
7.5
 20
252.5
 11
7.5
 21
287.5
  0
LINE
  8
0
 10
7.5
 20
287.5
 11
7.46057
 21
288.127
  0
LINE
  8
0
 10
7.46057
 20
288.127
 11
7.34291
 21
288.743
  0
LINE
  8
0
 10
7.34291
 20
288.743
 11
7.14888
 21
289.341
  0
LINE
  8
0
 10
7.14888
 20
289.341
 11
6.88153
 21
289.909
  0
LINE
  8
0
 10
6.88153
 20
289.909
 11
6.54507
 21
290.439
  0
LINE
  8
0
 10
6.54507
 20
290.439
 11
6.14484
 21
290.923
  0
LINE
  8
0
 10
6.14484
 20
290.923
 11
5.68712
 21
291.353
  0
LINE
  8
0
 10
5.68712
 20
291.353
 11
5.17912
 21
291.722
  0
LINE
  8
0
 10
5.17912
 20
291.722
 11
4.62889
 21
292.024
  0
LINE
  8
0
 10
4.62889
 20
292.024
 11
4.04507
 21
292.255
  0
LINE
  8
0
 10
4.04507
 20
292.255
 11
3.4369
 21
292.411
  0
LINE
  8
0
 10
3.4369
 20
292.411
 11
2.81395
 21
292.49
  0
LINE
  8
0
 10
2.81395
 20
292.49
 11
-2.81395
 21
292.49
  0
LINE
  8
0
 10
-2.81395
 20
292.49
 11
-3.4369
 21
292.411
  0
LINE
  8
0
 10
-3.4369
 20
292.411
 11
-4.04507
 21
292.255
  0
LINE
  8
0
 10
-4.04507
 20
292.255
 11
-4.62889
 21
292.024
  0
LINE
  8
0
 10
-4.62889
 20
292.024
 11
-5.17912
 21
291.722
  0
LINE
  8
0
 10
-5.17912
 20
291.722
 11
-5.68712
 21
291.353
  0
LINE
  8
0
 10
-5.68712
 20
291.353
 11
-6.14484
 21
290.923
  0
LINE
  8
0
 10
-6.14484
 20
290.923
 11
-6.54507
 21
290.439
  0
LINE
  8
0
 10
-6.54507
 20
290.439
 11
-6.88153
 21
289.909
  0
LINE
  8
0
 10
-6.88153
 20
289.909
 11
-7.14888
 21
289.341
  0
LINE
  8
0
 10
-7.14888
 20
289.341
 11
-7.34291
 21
288.743
  0
LINE
  8
0
 10
-7.34291
 20
288.743
 11
-7.46057
 21
288.127
  0
LINE
  8
0
 10
-7.46057
 20
288.127
 11
-7.5
 21
287.5
  0
LINE
  8
0
 10
-7.5
 20
287.5
 11
-7.5
 21
252.5
  0
LINE
  8
0
 10
-7.5
 20
252.5
 11
-7.46057
 21
251.873
  0
LINE
  8
0
 10
-7.46057
 20
251.873
 11
-7.34291
 21
251.257
  0
LINE
  8
0
 10
-7.34291
 20
251.257
 11
-7.14888
 21
250.659
  0
LINE
  8
0
 10
-7.14888
 20
250.659
 11
-6.88153
 21
250.091
  0
LINE
  8
0
 10
-6.88153
 20
250.091
 11
-6.54507
 21
249.561
  0
LINE
  8
0
 10
-6.54507
 20
249.561
 11
-6.14484
 21
249.077
  0
LINE
  8
0
 10
-6.14484
 20
249.077
 11
-5.68712
 21
248.647
  0
LINE
  8
0
 10
-5.68712
 20
248.647
 11
-5.17912
 21
248.278
  0
LINE
  8
0
 10
-5.17912
 20
248.278
 11
-4.62889
 21
247.976
  0
LINE
  8
0
 10
-4.62889
 20
247.976
 11
-4.04507
 21
247.745
  0
LINE
  8
0
 10
-4.04507
 20
247.745
 11
-3.4369
 21
247.589
  0
LINE
  8
0
 10
-3.4369
 20
247.589
 11
-2.81395
 21
247.51
  0
LINE
  8
0
 10
-2.81395
 20
247.51
 11
2.81395
 21
247.51
  0
LINE
  8
0
 10
2.81395
 20
247.51
 11
3.4369
 21
247.589
  0
LINE
  8
0
 10
-0.134064
 20
282.869
 11
-0.400101
 21
282.903
  0
LINE
  8
0
 10
-0.400101
 20
282.903
 11
-0.659836
 21
282.969
  0
LINE
  8
0
 10
-0.659836
 20
282.969
 11
-0.909149
 21
283.068
  0
LINE
  8
0
 10
-0.909149
 20
283.068
 11
-1.14413
 21
283.197
  0
LINE
  8
0
 10
-1.14413
 20
283.197
 11
-1.36108
 21
283.355
  0
LINE
  8
0
 10
-1.36108
 20
283.355
 11
-1.55655
 21
283.538
  0
LINE
  8
0
 10
-1.55655
 20
283.538
 11
-1.72748
 21
283.745
  0
LINE
  8
0
 10
-1.72748
 20
283.745
 11
-1.87117
 21
283.971
  0
LINE
  8
0
 10
-1.87117
 20
283.971
 11
-1.98534
 21
284.214
  0
LINE
  8
0
 10
-1.98534
 20
284.214
 11
-2.06821
 21
284.469
  0
LINE
  8
0
 10
-2.06821
 20
284.469
 11
-2.11845
 21
284.732
  0
LINE
  8
0
 10
-2.11845
 20
284.732
 11
-2.13528
 21
285
  0
LINE
  8
0
 10
-2.13528
 20
285
 11
-2.11845
 21
285.268
  0
LINE
  8
0
 10
-2.11845
 20
285.268
 11
-2.06821
 21
285.531
  0
LINE
  8
0
 10
-2.06821
 20
285.531
 11
-1.98534
 21
285.786
  0
LINE
  8
0
 10
-1.98534
 20
285.786
 11
-1.87117
 21
286.029
  0
LINE
  8
0
 10
-1.87117
 20
286.029
 11
-1.72748
 21
286.255
  0
LINE
  8
0
 10
-1.72748
 20
286.255
 11
-1.55655
 21
286.462
  0
LINE
  8
0
 10
-1.55655
 20
286.462
 11
-1.36108
 21
286.645
  0
LINE
  8
0
 10
-1.36108
 20
286.645
 11
-1.14413
 21
286.803
  0
LINE
  8
0
 10
-1.14413
 20
286.803
 11
-0.909149
 21
286.932
  0
LINE
  8
0
 10
-0.909149
 20
286.932
 11
-0.659836
 21
287.031
  0
LINE
  8
0
 10
-0.659836
 20
287.031
 11
-0.400101
 21
287.097
  0
LINE
  8
0
 10
-0.400101
 20
287.097
 11
-0.134064
 21
287.131
  0
LINE
  8
0
 10
-0.134064
 20
287.131
 11
0.134064
 21
287.131
  0
LINE
  8
0
 10
0.134064
 20
287.131
 11
0.400101
 21
287.097
  0
LINE
  8
0
 10
0.400101
 20
287.097
 11
0.659836
 21
287.031
  0
LINE
  8
0
 10
0.659836
 20
287.031
 11
0.909149
 21
286.932
  0
LINE
  8
0
 10
0.909149
 20
286.932
 11
1.14413
 21
286.803
  0
LINE
  8
0
 10
1.14413
 20
286.803
 11
1.36108
 21
286.645
  0
LINE
  8
0
 10
1.36108
 20
286.645
 11
1.55655
 21
286.462
  0
LINE
  8
0
 10
1.55655
 20
286.462
 11
1.72748
 21
286.255
  0
LINE
  8
0
 10
1.72748
 20
286.255
 11
1.87117
 21
286.029
  0
LINE
  8
0
 10
1.87117
 20
286.029
 11
1.98534
 21
285.786
  0
LINE
  8
0
 10
1.98534
 20
285.786
 11
2.06821
 21
285.531
  0
LINE
  8
0
 10
2.06821
 20
285.531
 11
2.11845
 21
285.268
  0
LINE
  8
0
 10
2.11845
 20
285.268
 11
2.13528
 21
285
  0
LINE
  8
0
 10
2.13528
 20
285
 11
2.11845
 21
284.732
  0
LINE
  8
0
 10
2.11845
 20
284.732
 11
2.06821
 21
284.469
  0
LINE
  8
0
 10
2.06821
 20
284.469
 11
1.98534
 21
284.214
  0
LINE
  8
0
 10
1.98534
 20
284.214
 11
1.87117
 21
283.971
  0
LINE
  8
0
 10
1.87117
 20
283.971
 11
1.72748
 21
283.745
  0
LINE
  8
0
 10
1.72748
 20
283.745
 11
1.55655
 21
283.538
  0
LINE
  8
0
 10
1.55655
 20
283.538
 11
1.36108
 21
283.355
  0
LINE
  8
0
 10
1.36108
 20
283.355
 11
1.14413
 21
283.197
  0
LINE
  8
0
 10
1.14413
 20
283.197
 11
0.909149
 21
283.068
  0
LINE
  8
0
 10
0.909149
 20
283.068
 11
0.659836
 21
282.969
  0
LINE
  8
0
 10
0.659836
 20
282.969
 11
0.400101
 21
282.903
  0
LINE
  8
0
 10
0.400101
 20
282.903
 11
0.134064
 21
282.869
  0
LINE
  8
0
 10
0.134064
 20
282.869
 11
-0.134064
 21
282.869
  0
LINE
  8
0
 10
-0.134064
 20
252.869
 11
-0.400101
 21
252.903
  0
LINE
  8
0
 10
-0.400101
 20
252.903
 11
-0.659836
 21
252.969
  0
LINE
  8
0
 10
-0.659836
 20
252.969
 11
-0.909149
 21
253.068
  0
LINE
  8
0
 10
-0.909149
 20
253.068
 11
-1.14413
 21
253.197
  0
LINE
  8
0
 10
-1.14413
 20
253.197
 11
-1.36108
 21
253.355
  0
LINE
  8
0
 10
-1.36108
 20
253.355
 11
-1.55655
 21
253.538
  0
LINE
  8
0
 10
-1.55655
 20
253.538
 11
-1.72748
 21
253.745
  0
LINE
  8
0
 10
-1.72748
 20
253.745
 11
-1.87117
 21
253.971
  0
LINE
  8
0
 10
-1.87117
 20
253.971
 11
-1.98534
 21
254.214
  0
LINE
  8
0
 10
-1.98534
 20
254.214
 11
-2.06821
 21
254.469
  0
LINE
  8
0
 10
-2.06821
 20
254.469
 11
-2.11845
 21
254.732
  0
LINE
  8
0
 10
-2.11845
 20
254.732
 11
-2.13528
 21
255
  0
LINE
  8
0
 10
-2.13528
 20
255
 11
-2.11845
 21
255.268
  0
LINE
  8
0
 10
-2.11845
 20
255.268
 11
-2.06821
 21
255.531
  0
LINE
  8
0
 10
-2.06821
 20
255.531
 11
-1.98534
 21
255.786
  0
LINE
  8
0
 10
-1.98534
 20
255.786
 11
-1.87117
 21
256.029
  0
LINE
  8
0
 10
-1.87117
 20
256.029
 11
-1.72748
 21
256.255
  0
LINE
  8
0
 10
-1.72748
 20
256.255
 11
-1.55655
 21
256.462
  0
LINE
  8
0
 10
-1.55655
 20
256.462
 11
-1.36108
 21
256.645
  0
LINE
  8
0
 10
-1.36108
 20
256.645
 11
-1.14413
 21
256.803
  0
LINE
  8
0
 10
-1.14413
 20
256.803
 11
-0.909149
 21
256.932
  0
LINE
  8
0
 10
-0.909149
 20
256.932
 11
-0.659836
 21
257.031
  0
LINE
  8
0
 10
-0.659836
 20
257.031
 11
-0.400101
 21
257.097
  0
LINE
  8
0
 10
-0.400101
 20
257.097
 11
-0.134064
 21
257.131
  0
LINE
  8
0
 10
-0.134064
 20
257.131
 11
0.134064
 21
257.131
  0
LINE
  8
0
 10
0.134064
 20
257.131
 11
0.400101
 21
257.097
  0
LINE
  8
0
 10
0.400101
 20
257.097
 11
0.659836
 21
257.031
  0
LINE
  8
0
 10
0.659836
 20
257.031
 11
0.909149
 21
256.932
  0
LINE
  8
0
 10
0.909149
 20
256.932
 11
1.14413
 21
256.803
  0
LINE
  8
0
 10
1.14413
 20
256.803
 11
1.36108
 21
256.645
  0
LINE
  8
0
 10
1.36108
 20
256.645
 11
1.55655
 21
256.462
  0
LINE
  8
0
 10
1.55655
 20
256.462
 11
1.72748
 21
256.255
  0
LINE
  8
0
 10
1.72748
 20
256.255
 11
1.87117
 21
256.029
  0
LINE
  8
0
 10
1.87117
 20
256.029
 11
1.98534
 21
255.786
  0
LINE
  8
0
 10
1.98534
 20
255.786
 11
2.06821
 21
255.531
  0
LINE
  8
0
 10
2.06821
 20
255.531
 11
2.11845
 21
255.268
  0
LINE
  8
0
 10
2.11845
 20
255.268
 11
2.13528
 21
255
  0
LINE
  8
0
 10
2.13528
 20
255
 11
2.11845
 21
254.732
  0
LINE
  8
0
 10
2.11845
 20
254.732
 11
2.06821
 21
254.469
  0
LINE
  8
0
 10
2.06821
 20
254.469
 11
1.98534
 21
254.214
  0
LINE
  8
0
 10
1.98534
 20
254.214
 11
1.87117
 21
253.971
  0
LINE
  8
0
 10
1.87117
 20
253.971
 11
1.72748
 21
253.745
  0
LINE
  8
0
 10
1.72748
 20
253.745
 11
1.55655
 21
253.538
  0
LINE
  8
0
 10
1.55655
 20
253.538
 11
1.36108
 21
253.355
  0
LINE
  8
0
 10
1.36108
 20
253.355
 11
1.14413
 21
253.197
  0
LINE
  8
0
 10
1.14413
 20
253.197
 11
0.909149
 21
253.068
  0
LINE
  8
0
 10
0.909149
 20
253.068
 11
0.659836
 21
252.969
  0
LINE
  8
0
 10
0.659836
 20
252.969
 11
0.400101
 21
252.903
  0
LINE
  8
0
 10
0.400101
 20
252.903
 11
0.134064
 21
252.869
  0
LINE
  8
0
 10
0.134064
 20
252.869
 11
-0.134064
 21
252.869
  0
ENDSEC
  0
SECTION
  2
OBJECTS
  0
DICTIONARY
  0
ENDSEC
  0
EOF
