<?xml version="1.0" standalone="no"?>
<!DOCTYPE svg PUBLIC "-//W3C//DTD SVG 1.1//EN" "http://www.w3.org/Graphics/SVG/1.1/DTD/svg11.dtd">
<svg width="77mm" height="129mm" viewBox="-39 -237 77 129" xmlns="http://www.w3.org/2000/svg" version="1.1">
<title>OpenSCAD Model</title>
<path d="
M 33.4369,-177.089 L 34.0451,-177.245 L 34.6289,-177.476 L 35.1791,-177.778 L 35.6871,-178.147 L 36.1448,-178.577
 L 36.5451,-179.061 L 36.8815,-179.591 L 37.1489,-180.159 L 37.3429,-180.757 L 37.4606,-181.373 L 37.5,-182
 L 37.5,-232 L 37.4606,-232.627 L 37.3429,-233.243 L 37.1489,-233.841 L 36.8815,-234.409 L 36.5451,-234.939
 L 36.1448,-235.423 L 35.6871,-235.853 L 35.1791,-236.222 L 34.6289,-236.524 L 34.0451,-236.755 L 33.4369,-236.911
 L 32.8139,-236.99 L -32.8139,-236.99 L -33.4369,-236.911 L -34.0451,-236.755 L -34.6289,-236.524 L -35.1791,-236.222
 L -35.6871,-235.853 L -36,-235.559 L -36,-236.979 L -39,-236.979 L -39,-177.021 L -36,-177.021
 L -36,-178.441 L -35.6871,-178.147 L -35.1791,-177.778 L -34.6289,-177.476 L -34.0451,-177.245 L -33.4369,-177.089
 L -32.8139,-177.01 L 32.8139,-177.01 z
M -32.1954,-179.393 L -32.5833,-179.442 L -32.9619,-179.539 L -33.3254,-179.683 L -33.668,-179.872 L -33.9842,-180.101
 L -34.2692,-180.369 L -34.5184,-180.67 L -34.7279,-181 L -34.8943,-181.354 L -35.0151,-181.726 L -35.0884,-182.11
 L -35.1129,-182.5 L -35.1129,-231.5 L -35.0884,-231.89 L -35.0151,-232.274 L -34.8943,-232.646 L -34.7279,-233
 L -34.5184,-233.33 L -34.2692,-233.631 L -33.9842,-233.899 L -33.668,-234.128 L -33.3254,-234.317 L -32.9619,-234.461
 L -32.5833,-234.558 L -32.1954,-234.607 L 32.1954,-234.607 L 32.5833,-234.558 L 32.9619,-234.461 L 33.3254,-234.317
 L 33.668,-234.128 L 33.9842,-233.899 L 34.2692,-233.631 L 34.5184,-233.33 L 34.7279,-233 L 34.8943,-232.646
 L 35.0151,-232.274 L 35.0884,-231.89 L 35.1129,-231.5 L 35.1129,-182.5 L 35.0884,-182.11 L 35.0151,-181.726
 L 34.8943,-181.354 L 34.7279,-181 L 34.5184,-180.67 L 34.2692,-180.369 L 33.9842,-180.101 L 33.668,-179.872
 L 33.3254,-179.683 L 32.9619,-179.539 L 32.5833,-179.442 L 32.1954,-179.393 z
M 33.4369,-108.089 L 34.0451,-108.245 L 34.6289,-108.476 L 35.1791,-108.778 L 35.6871,-109.147 L 36.1448,-109.577
 L 36.5451,-110.061 L 36.8815,-110.591 L 37.1489,-111.159 L 37.3429,-111.757 L 37.4606,-112.373 L 37.5,-113
 L 37.5,-163 L 37.4606,-163.627 L 37.3429,-164.243 L 37.1489,-164.841 L 36.8815,-165.409 L 36.5451,-165.939
 L 36.1448,-166.423 L 35.6871,-166.853 L 35.1791,-167.222 L 34.6289,-167.524 L 34.0451,-167.755 L 33.4369,-167.911
 L 32.8139,-167.99 L -32.8139,-167.99 L -33.4369,-167.911 L -34.0451,-167.755 L -34.6289,-167.524 L -35.1791,-167.222
 L -35.6871,-166.853 L -36,-166.559 L -36,-166.653 L -39,-166.653 L -39,-109.347 L -36,-109.347
 L -36,-109.441 L -35.6871,-109.147 L -35.1791,-108.778 L -34.6289,-108.476 L -34.0451,-108.245 L -33.4369,-108.089
 L -32.8139,-108.01 L 32.8139,-108.01 z
M 29.8659,-158.369 L 29.5999,-158.403 L 29.3401,-158.469 L 29.0908,-158.568 L 28.8559,-158.697 L 28.6389,-158.855
 L 28.4434,-159.038 L 28.2725,-159.245 L 28.1288,-159.471 L 28.0146,-159.714 L 27.9318,-159.969 L 27.8815,-160.232
 L 27.8647,-160.5 L 27.8815,-160.768 L 27.9318,-161.031 L 28.0146,-161.286 L 28.1288,-161.529 L 28.2725,-161.755
 L 28.4434,-161.962 L 28.6389,-162.145 L 28.8559,-162.303 L 29.0908,-162.432 L 29.3401,-162.531 L 29.5999,-162.597
 L 29.8659,-162.631 L 30.1341,-162.631 L 30.4001,-162.597 L 30.6598,-162.531 L 30.9091,-162.432 L 31.1441,-162.303
 L 31.3611,-162.145 L 31.5565,-161.962 L 31.7275,-161.755 L 31.8712,-161.529 L 31.9853,-161.286 L 32.0682,-161.031
 L 32.1185,-160.768 L 32.1353,-160.5 L 32.1185,-160.232 L 32.0682,-159.969 L 31.9853,-159.714 L 31.8712,-159.471
 L 31.7275,-159.245 L 31.5565,-159.038 L 31.3611,-158.855 L 31.1441,-158.697 L 30.9091,-158.568 L 30.6598,-158.469
 L 30.4001,-158.403 L 30.1341,-158.369 z
M -30.1341,-158.369 L -30.4001,-158.403 L -30.6598,-158.469 L -30.9091,-158.568 L -31.1441,-158.697 L -31.3611,-158.855
 L -31.5565,-159.038 L -31.7275,-159.245 L -31.8712,-159.471 L -31.9853,-159.714 L -32.0682,-159.969 L -32.1185,-160.232
 L -32.1353,-160.5 L -32.1185,-160.768 L -32.0682,-161.031 L -31.9853,-161.286 L -31.8712,-161.529 L -31.7275,-161.755
 L -31.5565,-161.962 L -31.3611,-162.145 L -31.1441,-162.303 L -30.9091,-162.432 L -30.6598,-162.531 L -30.4001,-162.597
 L -30.1341,-162.631 L -29.8659,-162.631 L -29.5999,-162.597 L -29.3401,-162.531 L -29.0908,-162.432 L -28.8559,-162.303
 L -28.6389,-162.145 L -28.4434,-161.962 L -28.2725,-161.755 L -28.1288,-161.529 L -28.0146,-161.286 L -27.9318,-161.031
 L -27.8815,-160.768 L -27.8647,-160.5 L -27.8815,-160.232 L -27.9318,-159.969 L -28.0146,-159.714 L -28.1288,-159.471
 L -28.2725,-159.245 L -28.4434,-159.038 L -28.6389,-158.855 L -28.8559,-158.697 L -29.0908,-158.568 L -29.3401,-158.469
 L -29.5999,-158.403 L -29.8659,-158.369 z
M 29.8659,-113.369 L 29.5999,-113.403 L 29.3401,-113.469 L 29.0908,-113.568 L 28.8559,-113.697 L 28.6389,-113.855
 L 28.4434,-114.038 L 28.2725,-114.245 L 28.1288,-114.471 L 28.0146,-114.714 L 27.9318,-114.969 L 27.8815,-115.232
 L 27.8647,-115.5 L 27.8815,-115.768 L 27.9318,-116.031 L 28.0146,-116.286 L 28.1288,-116.529 L 28.2725,-116.755
 L 28.4434,-116.962 L 28.6389,-117.145 L 28.8559,-117.303 L 29.0908,-117.432 L 29.3401,-117.531 L 29.5999,-117.597
 L 29.8659,-117.631 L 30.1341,-117.631 L 30.4001,-117.597 L 30.6598,-117.531 L 30.9091,-117.432 L 31.1441,-117.303
 L 31.3611,-117.145 L 31.5565,-116.962 L 31.7275,-116.755 L 31.8712,-116.529 L 31.9853,-116.286 L 32.0682,-116.031
 L 32.1185,-115.768 L 32.1353,-115.5 L 32.1185,-115.232 L 32.0682,-114.969 L 31.9853,-114.714 L 31.8712,-114.471
 L 31.7275,-114.245 L 31.5565,-114.038 L 31.3611,-113.855 L 31.1441,-113.697 L 30.9091,-113.568 L 30.6598,-113.469
 L 30.4001,-113.403 L 30.1341,-113.369 z
M -30.1341,-113.369 L -30.4001,-113.403 L -30.6598,-113.469 L -30.9091,-113.568 L -31.1441,-113.697 L -31.3611,-113.855
 L -31.5565,-114.038 L -31.7275,-114.245 L -31.8712,-114.471 L -31.9853,-114.714 L -32.0682,-114.969 L -32.1185,-115.232
 L -32.1353,-115.5 L -32.1185,-115.768 L -32.0682,-116.031 L -31.9853,-116.286 L -31.8712,-116.529 L -31.7275,-116.755
 L -31.5565,-116.962 L -31.3611,-117.145 L -31.1441,-117.303 L -30.9091,-117.432 L -30.6598,-117.531 L -30.4001,-117.597
 L -30.1341,-117.631 L -29.8659,-117.631 L -29.5999,-117.597 L -29.3401,-117.531 L -29.0908,-117.432 L -28.8559,-117.303
 L -28.6389,-117.145 L -28.4434,-116.962 L -28.2725,-116.755 L -28.1288,-116.529 L -28.0146,-116.286 L -27.9318,-116.031
 L -27.8815,-115.768 L -27.8647,-115.5 L -27.8815,-115.232 L -27.9318,-114.969 L -28.0146,-114.714 L -28.1288,-114.471
 L -28.2725,-114.245 L -28.4434,-114.038 L -28.6389,-113.855 L -28.8559,-113.697 L -29.0908,-113.568 L -29.3401,-113.469
 L -29.5999,-113.403 L -29.8659,-113.369 z
" stroke="black" fill="lightgray" stroke-width="0.5"/>
</svg>
