<?xml version="1.0" standalone="no"?>
<!DOCTYPE svg PUBLIC "-//W3C//DTD SVG 1.1//EN" "http://www.w3.org/Graphics/SVG/1.1/DTD/svg11.dtd">
<svg width="16mm" height="514mm" viewBox="-8 -779 16 514" xmlns="http://www.w3.org/2000/svg" version="1.1">
<title>OpenSCAD Model</title>
<path d="
M 3.4369,-613.589 L 4.04507,-613.745 L 4.62889,-613.976 L 5.17912,-614.278 L 5.68712,-614.647 L 6.14484,-615.077
 L 6.54507,-615.561 L 6.88153,-616.091 L 7.14888,-616.659 L 7.34291,-617.257 L 7.46057,-617.873 L 7.5,-618.5
 L 7.5,-773.5 L 7.46057,-774.127 L 7.34291,-774.743 L 7.14888,-775.341 L 6.88153,-775.909 L 6.54507,-776.439
 L 6.14484,-776.923 L 5.68712,-777.353 L 5.17912,-777.722 L 4.62889,-778.024 L 4.04507,-778.255 L 3.4369,-778.411
 L 2.81395,-778.49 L -2.81395,-778.49 L -3.4369,-778.411 L -4.04507,-778.255 L -4.62889,-778.024 L -5.17912,-777.722
 L -5.68712,-777.353 L -6.14484,-776.923 L -6.54507,-776.439 L -6.88153,-775.909 L -7.14888,-775.341 L -7.34291,-774.743
 L -7.46057,-774.127 L -7.5,-773.5 L -7.5,-618.5 L -7.46057,-617.873 L -7.34291,-617.257 L -7.14888,-616.659
 L -6.88153,-616.091 L -6.54507,-615.561 L -6.14484,-615.077 L -5.68712,-614.647 L -5.17912,-614.278 L -4.62889,-613.976
 L -4.04507,-613.745 L -3.4369,-613.589 L -2.81395,-613.51 L 2.81395,-613.51 z
M -2.24316,-615.135 L -2.72565,-615.196 L -3.1967,-615.317 L -3.64888,-615.496 L -4.07506,-615.73 L -4.46851,-616.016
 L -4.82301,-616.349 L -5.13301,-616.724 L -5.3936,-617.134 L -5.60068,-617.574 L -5.75096,-618.037 L -5.84209,-618.515
 L -5.87262,-619 L -5.87262,-773 L -5.84209,-773.485 L -5.75096,-773.963 L -5.60068,-774.426 L -5.3936,-774.866
 L -5.13301,-775.276 L -4.82301,-775.651 L -4.46851,-775.984 L -4.07506,-776.27 L -3.64888,-776.504 L -3.1967,-776.683
 L -2.72565,-776.804 L -2.24316,-776.865 L 2.24316,-776.865 L 2.72565,-776.804 L 3.1967,-776.683 L 3.64888,-776.504
 L 4.07506,-776.27 L 4.46851,-775.984 L 4.82301,-775.651 L 5.13301,-775.276 L 5.3936,-774.866 L 5.60068,-774.426
 L 5.75096,-773.963 L 5.84209,-773.485 L 5.87262,-773 L 5.87262,-619 L 5.84209,-618.515 L 5.75096,-618.037
 L 5.60068,-617.574 L 5.3936,-617.134 L 5.13301,-616.724 L 4.82301,-616.349 L 4.46851,-616.016 L 4.07506,-615.73
 L 3.64888,-615.496 L 3.1967,-615.317 L 2.72565,-615.196 L 2.24316,-615.135 z
M 3.4369,-439.589 L 4.04507,-439.745 L 4.62889,-439.976 L 5.17912,-440.278 L 5.68712,-440.647 L 6.14484,-441.077
 L 6.54507,-441.561 L 6.88153,-442.091 L 7.14888,-442.659 L 7.34291,-443.257 L 7.46057,-443.873 L 7.5,-444.5
 L 7.5,-599.5 L 7.46057,-600.127 L 7.34291,-600.743 L 7.14888,-601.341 L 6.88153,-601.909 L 6.54507,-602.439
 L 6.14484,-602.923 L 5.68712,-603.353 L 5.17912,-603.722 L 4.62889,-604.024 L 4.04507,-604.255 L 3.4369,-604.411
 L 2.81395,-604.49 L -2.81395,-604.49 L -3.4369,-604.411 L -4.04507,-604.255 L -4.62889,-604.024 L -5.17912,-603.722
 L -5.68712,-603.353 L -6.14484,-602.923 L -6.54507,-602.439 L -6.88153,-601.909 L -7.14888,-601.341 L -7.34291,-600.743
 L -7.46057,-600.127 L -7.5,-599.5 L -7.5,-444.5 L -7.46057,-443.873 L -7.34291,-443.257 L -7.14888,-442.659
 L -6.88153,-442.091 L -6.54507,-441.561 L -6.14484,-441.077 L -5.68712,-440.647 L -5.17912,-440.278 L -4.62889,-439.976
 L -4.04507,-439.745 L -3.4369,-439.589 L -2.81395,-439.51 L 2.81395,-439.51 z
M 3.4369,-265.589 L 4.04507,-265.745 L 4.62889,-265.976 L 5.17912,-266.278 L 5.68712,-266.647 L 6.14484,-267.077
 L 6.54507,-267.561 L 6.88153,-268.091 L 7.14888,-268.659 L 7.34291,-269.257 L 7.46057,-269.873 L 7.5,-270.5
 L 7.5,-425.5 L 7.46057,-426.127 L 7.34291,-426.743 L 7.14888,-427.341 L 6.88153,-427.909 L 6.54507,-428.439
 L 6.14484,-428.923 L 5.68712,-429.353 L 5.17912,-429.722 L 4.62889,-430.024 L 4.04507,-430.255 L 3.4369,-430.411
 L 2.81395,-430.49 L -2.81395,-430.49 L -3.4369,-430.411 L -4.04507,-430.255 L -4.62889,-430.024 L -5.17912,-429.722
 L -5.68712,-429.353 L -6.14484,-428.923 L -6.54507,-428.439 L -6.88153,-427.909 L -7.14888,-427.341 L -7.34291,-426.743
 L -7.46057,-426.127 L -7.5,-425.5 L -7.5,-270.5 L -7.46057,-269.873 L -7.34291,-269.257 L -7.14888,-268.659
 L -6.88153,-268.091 L -6.54507,-267.561 L -6.14484,-267.077 L -5.68712,-266.647 L -5.17912,-266.278 L -4.62889,-265.976
 L -4.04507,-265.745 L -3.4369,-265.589 L -2.81395,-265.51 L 2.81395,-265.51 z
M -0.113022,-421.204 L -0.33728,-421.232 L -0.556229,-421.288 L -0.766388,-421.371 L -0.964478,-421.48 L -1.14735,-421.613
 L -1.31213,-421.768 L -1.45622,-421.942 L -1.57735,-422.133 L -1.67358,-422.337 L -1.74344,-422.552 L -1.7858,-422.774
 L -1.79999,-423 L -1.7858,-423.226 L -1.74344,-423.448 L -1.67358,-423.663 L -1.57735,-423.867 L -1.45622,-424.058
 L -1.31213,-424.232 L -1.14735,-424.387 L -0.964478,-424.52 L -0.766388,-424.629 L -0.556229,-424.712 L -0.33728,-424.768
 L -0.113022,-424.796 L 0.113022,-424.796 L 0.33728,-424.768 L 0.556229,-424.712 L 0.766388,-424.629 L 0.964478,-424.52
 L 1.14735,-424.387 L 1.31213,-424.232 L 1.45622,-424.058 L 1.57735,-423.867 L 1.67358,-423.663 L 1.74344,-423.448
 L 1.7858,-423.226 L 1.79999,-423 L 1.7858,-422.774 L 1.74344,-422.552 L 1.67358,-422.337 L 1.57735,-422.133
 L 1.45622,-421.942 L 1.31213,-421.768 L 1.14735,-421.613 L 0.964478,-421.48 L 0.766388,-421.371 L 0.556229,-421.288
 L 0.33728,-421.232 L 0.113022,-421.204 z
M -0.113022,-271.204 L -0.33728,-271.232 L -0.556229,-271.288 L -0.766388,-271.371 L -0.964478,-271.48 L -1.14735,-271.613
 L -1.31213,-271.768 L -1.45622,-271.942 L -1.57735,-272.133 L -1.67358,-272.337 L -1.74344,-272.552 L -1.7858,-272.774
 L -1.79999,-273 L -1.7858,-273.226 L -1.74344,-273.448 L -1.67358,-273.663 L -1.57735,-273.867 L -1.45622,-274.058
 L -1.31213,-274.232 L -1.14735,-274.387 L -0.964478,-274.52 L -0.766388,-274.629 L -0.556229,-274.712 L -0.33728,-274.768
 L -0.113022,-274.796 L 0.113022,-274.796 L 0.33728,-274.768 L 0.556229,-274.712 L 0.766388,-274.629 L 0.964478,-274.52
 L 1.14735,-274.387 L 1.31213,-274.232 L 1.45622,-274.058 L 1.57735,-273.867 L 1.67358,-273.663 L 1.74344,-273.448
 L 1.7858,-273.226 L 1.79999,-273 L 1.7858,-272.774 L 1.74344,-272.552 L 1.67358,-272.337 L 1.57735,-272.133
 L 1.45622,-271.942 L 1.31213,-271.768 L 1.14735,-271.613 L 0.964478,-271.48 L 0.766388,-271.371 L 0.556229,-271.288
 L 0.33728,-271.232 L 0.113022,-271.204 z
" stroke="black" fill="lightgray" stroke-width="0.5"/>
</svg>
