  0
SECTION
  2
BLOCKS
  0
ENDSEC
  0
SECTION
  2
ENTITIES
  0
LINE
  8
0
 10
3.4369
 20
718.589
 11
4.04507
 21
718.745
  0
LINE
  8
0
 10
4.04507
 20
718.745
 11
4.62889
 21
718.976
  0
LINE
  8
0
 10
4.62889
 20
718.976
 11
5.17912
 21
719.278
  0
LINE
  8
0
 10
5.17912
 20
719.278
 11
5.68712
 21
719.647
  0
LINE
  8
0
 10
5.68712
 20
719.647
 11
6.14484
 21
720.077
  0
LINE
  8
0
 10
6.14484
 20
720.077
 11
6.54507
 21
720.561
  0
LINE
  8
0
 10
6.54507
 20
720.561
 11
6.88153
 21
721.091
  0
LINE
  8
0
 10
6.88153
 20
721.091
 11
7.14888
 21
721.659
  0
LINE
  8
0
 10
7.14888
 20
721.659
 11
7.34291
 21
722.257
  0
LINE
  8
0
 10
7.34291
 20
722.257
 11
7.46057
 21
722.873
  0
LINE
  8
0
 10
7.46057
 20
722.873
 11
7.5
 21
723.5
  0
LINE
  8
0
 10
7.5
 20
723.5
 11
7.5
 21
788.5
  0
LINE
  8
0
 10
7.5
 20
788.5
 11
7.46057
 21
789.127
  0
LINE
  8
0
 10
7.46057
 20
789.127
 11
7.34291
 21
789.743
  0
LINE
  8
0
 10
7.34291
 20
789.743
 11
7.14888
 21
790.341
  0
LINE
  8
0
 10
7.14888
 20
790.341
 11
6.88153
 21
790.909
  0
LINE
  8
0
 10
6.88153
 20
790.909
 11
6.54507
 21
791.439
  0
LINE
  8
0
 10
6.54507
 20
791.439
 11
6.14484
 21
791.923
  0
LINE
  8
0
 10
6.14484
 20
791.923
 11
5.68712
 21
792.353
  0
LINE
  8
0
 10
5.68712
 20
792.353
 11
5.17912
 21
792.722
  0
LINE
  8
0
 10
5.17912
 20
792.722
 11
4.62889
 21
793.024
  0
LINE
  8
0
 10
4.62889
 20
793.024
 11
4.04507
 21
793.255
  0
LINE
  8
0
 10
4.04507
 20
793.255
 11
3.4369
 21
793.411
  0
LINE
  8
0
 10
3.4369
 20
793.411
 11
2.81395
 21
793.49
  0
LINE
  8
0
 10
2.81395
 20
793.49
 11
-2.81395
 21
793.49
  0
LINE
  8
0
 10
-2.81395
 20
793.49
 11
-3.4369
 21
793.411
  0
LINE
  8
0
 10
-3.4369
 20
793.411
 11
-4.04507
 21
793.255
  0
LINE
  8
0
 10
-4.04507
 20
793.255
 11
-4.62889
 21
793.024
  0
LINE
  8
0
 10
-4.62889
 20
793.024
 11
-5.17912
 21
792.722
  0
LINE
  8
0
 10
-5.17912
 20
792.722
 11
-5.68712
 21
792.353
  0
LINE
  8
0
 10
-5.68712
 20
792.353
 11
-6.14484
 21
791.923
  0
LINE
  8
0
 10
-6.14484
 20
791.923
 11
-6.54507
 21
791.439
  0
LINE
  8
0
 10
-6.54507
 20
791.439
 11
-6.88153
 21
790.909
  0
LINE
  8
0
 10
-6.88153
 20
790.909
 11
-7.14888
 21
790.341
  0
LINE
  8
0
 10
-7.14888
 20
790.341
 11
-7.34291
 21
789.743
  0
LINE
  8
0
 10
-7.34291
 20
789.743
 11
-7.46057
 21
789.127
  0
LINE
  8
0
 10
-7.46057
 20
789.127
 11
-7.5
 21
788.5
  0
LINE
  8
0
 10
-7.5
 20
788.5
 11
-7.5
 21
723.5
  0
LINE
  8
0
 10
-7.5
 20
723.5
 11
-7.46057
 21
722.873
  0
LINE
  8
0
 10
-7.46057
 20
722.873
 11
-7.34291
 21
722.257
  0
LINE
  8
0
 10
-7.34291
 20
722.257
 11
-7.14888
 21
721.659
  0
LINE
  8
0
 10
-7.14888
 20
721.659
 11
-6.88153
 21
721.091
  0
LINE
  8
0
 10
-6.88153
 20
721.091
 11
-6.54507
 21
720.561
  0
LINE
  8
0
 10
-6.54507
 20
720.561
 11
-6.14484
 21
720.077
  0
LINE
  8
0
 10
-6.14484
 20
720.077
 11
-5.68712
 21
719.647
  0
LINE
  8
0
 10
-5.68712
 20
719.647
 11
-5.17912
 21
719.278
  0
LINE
  8
0
 10
-5.17912
 20
719.278
 11
-4.62889
 21
718.976
  0
LINE
  8
0
 10
-4.62889
 20
718.976
 11
-4.04507
 21
718.745
  0
LINE
  8
0
 10
-4.04507
 20
718.745
 11
-3.4369
 21
718.589
  0
LINE
  8
0
 10
-3.4369
 20
718.589
 11
-2.81395
 21
718.51
  0
LINE
  8
0
 10
-2.81395
 20
718.51
 11
2.81395
 21
718.51
  0
LINE
  8
0
 10
2.81395
 20
718.51
 11
3.4369
 21
718.589
  0
LINE
  8
0
 10
-2.25116
 20
720.008
 11
-2.74951
 21
720.071
  0
LINE
  8
0
 10
-2.74951
 20
720.071
 11
-3.23605
 21
720.196
  0
LINE
  8
0
 10
-3.23605
 20
720.196
 11
-3.70311
 21
720.381
  0
LINE
  8
0
 10
-3.70311
 20
720.381
 11
-4.1433
 21
720.623
  0
LINE
  8
0
 10
-4.1433
 20
720.623
 11
-4.54968
 21
720.918
  0
LINE
  8
0
 10
-4.54968
 20
720.918
 11
-4.91586
 21
721.262
  0
LINE
  8
0
 10
-4.91586
 20
721.262
 11
-5.23605
 21
721.649
  0
LINE
  8
0
 10
-5.23605
 20
721.649
 11
-5.50522
 21
722.073
  0
LINE
  8
0
 10
-5.50522
 20
722.073
 11
-5.7191
 21
722.528
  0
LINE
  8
0
 10
-5.7191
 20
722.528
 11
-5.87433
 21
723.005
  0
LINE
  8
0
 10
-5.87433
 20
723.005
 11
-5.96844
 21
723.499
  0
LINE
  8
0
 10
-5.96844
 20
723.499
 11
-6
 21
724
  0
LINE
  8
0
 10
-6
 20
724
 11
-6
 21
788
  0
LINE
  8
0
 10
-6
 20
788
 11
-5.96844
 21
788.501
  0
LINE
  8
0
 10
-5.96844
 20
788.501
 11
-5.87433
 21
788.995
  0
LINE
  8
0
 10
-5.87433
 20
788.995
 11
-5.7191
 21
789.472
  0
LINE
  8
0
 10
-5.7191
 20
789.472
 11
-5.50522
 21
789.927
  0
LINE
  8
0
 10
-5.50522
 20
789.927
 11
-5.23605
 21
790.351
  0
LINE
  8
0
 10
-5.23605
 20
790.351
 11
-4.91586
 21
790.738
  0
LINE
  8
0
 10
-4.91586
 20
790.738
 11
-4.54968
 21
791.082
  0
LINE
  8
0
 10
-4.54968
 20
791.082
 11
-4.1433
 21
791.377
  0
LINE
  8
0
 10
-4.1433
 20
791.377
 11
-3.70311
 21
791.619
  0
LINE
  8
0
 10
-3.70311
 20
791.619
 11
-3.23605
 21
791.804
  0
LINE
  8
0
 10
-3.23605
 20
791.804
 11
-2.74951
 21
791.929
  0
LINE
  8
0
 10
-2.74951
 20
791.929
 11
-2.25116
 21
791.992
  0
LINE
  8
0
 10
-2.25116
 20
791.992
 11
2.25116
 21
791.992
  0
LINE
  8
0
 10
2.25116
 20
791.992
 11
2.74951
 21
791.929
  0
LINE
  8
0
 10
2.74951
 20
791.929
 11
3.23605
 21
791.804
  0
LINE
  8
0
 10
3.23605
 20
791.804
 11
3.70311
 21
791.619
  0
LINE
  8
0
 10
3.70311
 20
791.619
 11
4.1433
 21
791.377
  0
LINE
  8
0
 10
4.1433
 20
791.377
 11
4.54968
 21
791.082
  0
LINE
  8
0
 10
4.54968
 20
791.082
 11
4.91586
 21
790.738
  0
LINE
  8
0
 10
4.91586
 20
790.738
 11
5.23605
 21
790.351
  0
LINE
  8
0
 10
5.23605
 20
790.351
 11
5.50522
 21
789.927
  0
LINE
  8
0
 10
5.50522
 20
789.927
 11
5.7191
 21
789.472
  0
LINE
  8
0
 10
5.7191
 20
789.472
 11
5.87433
 21
788.995
  0
LINE
  8
0
 10
5.87433
 20
788.995
 11
5.96844
 21
788.501
  0
LINE
  8
0
 10
5.96844
 20
788.501
 11
6
 21
788
  0
LINE
  8
0
 10
6
 20
788
 11
6
 21
724
  0
LINE
  8
0
 10
6
 20
724
 11
5.96844
 21
723.499
  0
LINE
  8
0
 10
5.96844
 20
723.499
 11
5.87433
 21
723.005
  0
LINE
  8
0
 10
5.87433
 20
723.005
 11
5.7191
 21
722.528
  0
LINE
  8
0
 10
5.7191
 20
722.528
 11
5.50522
 21
722.073
  0
LINE
  8
0
 10
5.50522
 20
722.073
 11
5.23605
 21
721.649
  0
LINE
  8
0
 10
5.23605
 20
721.649
 11
4.91586
 21
721.262
  0
LINE
  8
0
 10
4.91586
 20
721.262
 11
4.54968
 21
720.918
  0
LINE
  8
0
 10
4.54968
 20
720.918
 11
4.1433
 21
720.623
  0
LINE
  8
0
 10
4.1433
 20
720.623
 11
3.70311
 21
720.381
  0
LINE
  8
0
 10
3.70311
 20
720.381
 11
3.23605
 21
720.196
  0
LINE
  8
0
 10
3.23605
 20
720.196
 11
2.74951
 21
720.071
  0
LINE
  8
0
 10
2.74951
 20
720.071
 11
2.25116
 21
720.008
  0
LINE
  8
0
 10
2.25116
 20
720.008
 11
-2.25116
 21
720.008
  0
LINE
  8
0
 10
3.4369
 20
634.589
 11
4.04507
 21
634.745
  0
LINE
  8
0
 10
4.04507
 20
634.745
 11
4.62889
 21
634.976
  0
LINE
  8
0
 10
4.62889
 20
634.976
 11
5.17912
 21
635.278
  0
LINE
  8
0
 10
5.17912
 20
635.278
 11
5.68712
 21
635.647
  0
LINE
  8
0
 10
5.68712
 20
635.647
 11
6.14484
 21
636.077
  0
LINE
  8
0
 10
6.14484
 20
636.077
 11
6.54507
 21
636.561
  0
LINE
  8
0
 10
6.54507
 20
636.561
 11
6.88153
 21
637.091
  0
LINE
  8
0
 10
6.88153
 20
637.091
 11
7.14888
 21
637.659
  0
LINE
  8
0
 10
7.14888
 20
637.659
 11
7.34291
 21
638.257
  0
LINE
  8
0
 10
7.34291
 20
638.257
 11
7.46057
 21
638.873
  0
LINE
  8
0
 10
7.46057
 20
638.873
 11
7.5
 21
639.5
  0
LINE
  8
0
 10
7.5
 20
639.5
 11
7.5
 21
704.5
  0
LINE
  8
0
 10
7.5
 20
704.5
 11
7.46057
 21
705.127
  0
LINE
  8
0
 10
7.46057
 20
705.127
 11
7.34291
 21
705.743
  0
LINE
  8
0
 10
7.34291
 20
705.743
 11
7.14888
 21
706.341
  0
LINE
  8
0
 10
7.14888
 20
706.341
 11
6.88153
 21
706.909
  0
LINE
  8
0
 10
6.88153
 20
706.909
 11
6.54507
 21
707.439
  0
LINE
  8
0
 10
6.54507
 20
707.439
 11
6.14484
 21
707.923
  0
LINE
  8
0
 10
6.14484
 20
707.923
 11
5.68712
 21
708.353
  0
LINE
  8
0
 10
5.68712
 20
708.353
 11
5.17912
 21
708.722
  0
LINE
  8
0
 10
5.17912
 20
708.722
 11
4.62889
 21
709.024
  0
LINE
  8
0
 10
4.62889
 20
709.024
 11
4.04507
 21
709.255
  0
LINE
  8
0
 10
4.04507
 20
709.255
 11
3.4369
 21
709.411
  0
LINE
  8
0
 10
3.4369
 20
709.411
 11
2.81395
 21
709.49
  0
LINE
  8
0
 10
2.81395
 20
709.49
 11
-2.81395
 21
709.49
  0
LINE
  8
0
 10
-2.81395
 20
709.49
 11
-3.4369
 21
709.411
  0
LINE
  8
0
 10
-3.4369
 20
709.411
 11
-4.04507
 21
709.255
  0
LINE
  8
0
 10
-4.04507
 20
709.255
 11
-4.62889
 21
709.024
  0
LINE
  8
0
 10
-4.62889
 20
709.024
 11
-5.17912
 21
708.722
  0
LINE
  8
0
 10
-5.17912
 20
708.722
 11
-5.68712
 21
708.353
  0
LINE
  8
0
 10
-5.68712
 20
708.353
 11
-6.14484
 21
707.923
  0
LINE
  8
0
 10
-6.14484
 20
707.923
 11
-6.54507
 21
707.439
  0
LINE
  8
0
 10
-6.54507
 20
707.439
 11
-6.88153
 21
706.909
  0
LINE
  8
0
 10
-6.88153
 20
706.909
 11
-7.14888
 21
706.341
  0
LINE
  8
0
 10
-7.14888
 20
706.341
 11
-7.34291
 21
705.743
  0
LINE
  8
0
 10
-7.34291
 20
705.743
 11
-7.46057
 21
705.127
  0
LINE
  8
0
 10
-7.46057
 20
705.127
 11
-7.5
 21
704.5
  0
LINE
  8
0
 10
-7.5
 20
704.5
 11
-7.5
 21
639.5
  0
LINE
  8
0
 10
-7.5
 20
639.5
 11
-7.46057
 21
638.873
  0
LINE
  8
0
 10
-7.46057
 20
638.873
 11
-7.34291
 21
638.257
  0
LINE
  8
0
 10
-7.34291
 20
638.257
 11
-7.14888
 21
637.659
  0
LINE
  8
0
 10
-7.14888
 20
637.659
 11
-6.88153
 21
637.091
  0
LINE
  8
0
 10
-6.88153
 20
637.091
 11
-6.54507
 21
636.561
  0
LINE
  8
0
 10
-6.54507
 20
636.561
 11
-6.14484
 21
636.077
  0
LINE
  8
0
 10
-6.14484
 20
636.077
 11
-5.68712
 21
635.647
  0
LINE
  8
0
 10
-5.68712
 20
635.647
 11
-5.17912
 21
635.278
  0
LINE
  8
0
 10
-5.17912
 20
635.278
 11
-4.62889
 21
634.976
  0
LINE
  8
0
 10
-4.62889
 20
634.976
 11
-4.04507
 21
634.745
  0
LINE
  8
0
 10
-4.04507
 20
634.745
 11
-3.4369
 21
634.589
  0
LINE
  8
0
 10
-3.4369
 20
634.589
 11
-2.81395
 21
634.51
  0
LINE
  8
0
 10
-2.81395
 20
634.51
 11
2.81395
 21
634.51
  0
LINE
  8
0
 10
2.81395
 20
634.51
 11
3.4369
 21
634.589
  0
LINE
  8
0
 10
-2.25116
 20
636.008
 11
-2.74951
 21
636.071
  0
LINE
  8
0
 10
-2.74951
 20
636.071
 11
-3.23605
 21
636.196
  0
LINE
  8
0
 10
-3.23605
 20
636.196
 11
-3.70311
 21
636.381
  0
LINE
  8
0
 10
-3.70311
 20
636.381
 11
-4.1433
 21
636.623
  0
LINE
  8
0
 10
-4.1433
 20
636.623
 11
-4.54968
 21
636.918
  0
LINE
  8
0
 10
-4.54968
 20
636.918
 11
-4.91586
 21
637.262
  0
LINE
  8
0
 10
-4.91586
 20
637.262
 11
-5.23605
 21
637.649
  0
LINE
  8
0
 10
-5.23605
 20
637.649
 11
-5.50522
 21
638.073
  0
LINE
  8
0
 10
-5.50522
 20
638.073
 11
-5.7191
 21
638.528
  0
LINE
  8
0
 10
-5.7191
 20
638.528
 11
-5.87433
 21
639.005
  0
LINE
  8
0
 10
-5.87433
 20
639.005
 11
-5.96844
 21
639.499
  0
LINE
  8
0
 10
-5.96844
 20
639.499
 11
-6
 21
640
  0
LINE
  8
0
 10
-6
 20
640
 11
-6
 21
704
  0
LINE
  8
0
 10
-6
 20
704
 11
-5.96844
 21
704.501
  0
LINE
  8
0
 10
-5.96844
 20
704.501
 11
-5.87433
 21
704.995
  0
LINE
  8
0
 10
-5.87433
 20
704.995
 11
-5.7191
 21
705.472
  0
LINE
  8
0
 10
-5.7191
 20
705.472
 11
-5.50522
 21
705.927
  0
LINE
  8
0
 10
-5.50522
 20
705.927
 11
-5.23605
 21
706.351
  0
LINE
  8
0
 10
-5.23605
 20
706.351
 11
-4.91586
 21
706.738
  0
LINE
  8
0
 10
-4.91586
 20
706.738
 11
-4.54968
 21
707.082
  0
LINE
  8
0
 10
-4.54968
 20
707.082
 11
-4.1433
 21
707.377
  0
LINE
  8
0
 10
-4.1433
 20
707.377
 11
-3.70311
 21
707.619
  0
LINE
  8
0
 10
-3.70311
 20
707.619
 11
-3.23605
 21
707.804
  0
LINE
  8
0
 10
-3.23605
 20
707.804
 11
-2.74951
 21
707.929
  0
LINE
  8
0
 10
-2.74951
 20
707.929
 11
-2.25116
 21
707.992
  0
LINE
  8
0
 10
-2.25116
 20
707.992
 11
2.25116
 21
707.992
  0
LINE
  8
0
 10
2.25116
 20
707.992
 11
2.74951
 21
707.929
  0
LINE
  8
0
 10
2.74951
 20
707.929
 11
3.23605
 21
707.804
  0
LINE
  8
0
 10
3.23605
 20
707.804
 11
3.70311
 21
707.619
  0
LINE
  8
0
 10
3.70311
 20
707.619
 11
4.1433
 21
707.377
  0
LINE
  8
0
 10
4.1433
 20
707.377
 11
4.54968
 21
707.082
  0
LINE
  8
0
 10
4.54968
 20
707.082
 11
4.91586
 21
706.738
  0
LINE
  8
0
 10
4.91586
 20
706.738
 11
5.23605
 21
706.351
  0
LINE
  8
0
 10
5.23605
 20
706.351
 11
5.50522
 21
705.927
  0
LINE
  8
0
 10
5.50522
 20
705.927
 11
5.7191
 21
705.472
  0
LINE
  8
0
 10
5.7191
 20
705.472
 11
5.87433
 21
704.995
  0
LINE
  8
0
 10
5.87433
 20
704.995
 11
5.96844
 21
704.501
  0
LINE
  8
0
 10
5.96844
 20
704.501
 11
6
 21
704
  0
LINE
  8
0
 10
6
 20
704
 11
6
 21
640
  0
LINE
  8
0
 10
6
 20
640
 11
5.96844
 21
639.499
  0
LINE
  8
0
 10
5.96844
 20
639.499
 11
5.87433
 21
639.005
  0
LINE
  8
0
 10
5.87433
 20
639.005
 11
5.7191
 21
638.528
  0
LINE
  8
0
 10
5.7191
 20
638.528
 11
5.50522
 21
638.073
  0
LINE
  8
0
 10
5.50522
 20
638.073
 11
5.23605
 21
637.649
  0
LINE
  8
0
 10
5.23605
 20
637.649
 11
4.91586
 21
637.262
  0
LINE
  8
0
 10
4.91586
 20
637.262
 11
4.54968
 21
636.918
  0
LINE
  8
0
 10
4.54968
 20
636.918
 11
4.1433
 21
636.623
  0
LINE
  8
0
 10
4.1433
 20
636.623
 11
3.70311
 21
636.381
  0
LINE
  8
0
 10
3.70311
 20
636.381
 11
3.23605
 21
636.196
  0
LINE
  8
0
 10
3.23605
 20
636.196
 11
2.74951
 21
636.071
  0
LINE
  8
0
 10
2.74951
 20
636.071
 11
2.25116
 21
636.008
  0
LINE
  8
0
 10
2.25116
 20
636.008
 11
-2.25116
 21
636.008
  0
LINE
  8
0
 10
3.4369
 20
550.589
 11
4.04507
 21
550.745
  0
LINE
  8
0
 10
4.04507
 20
550.745
 11
4.62889
 21
550.976
  0
LINE
  8
0
 10
4.62889
 20
550.976
 11
5.17912
 21
551.278
  0
LINE
  8
0
 10
5.17912
 20
551.278
 11
5.68712
 21
551.647
  0
LINE
  8
0
 10
5.68712
 20
551.647
 11
6.14484
 21
552.077
  0
LINE
  8
0
 10
6.14484
 20
552.077
 11
6.54507
 21
552.561
  0
LINE
  8
0
 10
6.54507
 20
552.561
 11
6.88153
 21
553.091
  0
LINE
  8
0
 10
6.88153
 20
553.091
 11
7.14888
 21
553.659
  0
LINE
  8
0
 10
7.14888
 20
553.659
 11
7.34291
 21
554.257
  0
LINE
  8
0
 10
7.34291
 20
554.257
 11
7.46057
 21
554.873
  0
LINE
  8
0
 10
7.46057
 20
554.873
 11
7.5
 21
555.5
  0
LINE
  8
0
 10
7.5
 20
555.5
 11
7.5
 21
620.5
  0
LINE
  8
0
 10
7.5
 20
620.5
 11
7.46057
 21
621.127
  0
LINE
  8
0
 10
7.46057
 20
621.127
 11
7.34291
 21
621.743
  0
LINE
  8
0
 10
7.34291
 20
621.743
 11
7.14888
 21
622.341
  0
LINE
  8
0
 10
7.14888
 20
622.341
 11
6.88153
 21
622.909
  0
LINE
  8
0
 10
6.88153
 20
622.909
 11
6.54507
 21
623.439
  0
LINE
  8
0
 10
6.54507
 20
623.439
 11
6.14484
 21
623.923
  0
LINE
  8
0
 10
6.14484
 20
623.923
 11
5.68712
 21
624.353
  0
LINE
  8
0
 10
5.68712
 20
624.353
 11
5.17912
 21
624.722
  0
LINE
  8
0
 10
5.17912
 20
624.722
 11
4.62889
 21
625.024
  0
LINE
  8
0
 10
4.62889
 20
625.024
 11
4.04507
 21
625.255
  0
LINE
  8
0
 10
4.04507
 20
625.255
 11
3.4369
 21
625.411
  0
LINE
  8
0
 10
3.4369
 20
625.411
 11
2.81395
 21
625.49
  0
LINE
  8
0
 10
2.81395
 20
625.49
 11
-2.81395
 21
625.49
  0
LINE
  8
0
 10
-2.81395
 20
625.49
 11
-3.4369
 21
625.411
  0
LINE
  8
0
 10
-3.4369
 20
625.411
 11
-4.04507
 21
625.255
  0
LINE
  8
0
 10
-4.04507
 20
625.255
 11
-4.62889
 21
625.024
  0
LINE
  8
0
 10
-4.62889
 20
625.024
 11
-5.17912
 21
624.722
  0
LINE
  8
0
 10
-5.17912
 20
624.722
 11
-5.68712
 21
624.353
  0
LINE
  8
0
 10
-5.68712
 20
624.353
 11
-6.14484
 21
623.923
  0
LINE
  8
0
 10
-6.14484
 20
623.923
 11
-6.54507
 21
623.439
  0
LINE
  8
0
 10
-6.54507
 20
623.439
 11
-6.88153
 21
622.909
  0
LINE
  8
0
 10
-6.88153
 20
622.909
 11
-7.14888
 21
622.341
  0
LINE
  8
0
 10
-7.14888
 20
622.341
 11
-7.34291
 21
621.743
  0
LINE
  8
0
 10
-7.34291
 20
621.743
 11
-7.46057
 21
621.127
  0
LINE
  8
0
 10
-7.46057
 20
621.127
 11
-7.5
 21
620.5
  0
LINE
  8
0
 10
-7.5
 20
620.5
 11
-7.5
 21
555.5
  0
LINE
  8
0
 10
-7.5
 20
555.5
 11
-7.46057
 21
554.873
  0
LINE
  8
0
 10
-7.46057
 20
554.873
 11
-7.34291
 21
554.257
  0
LINE
  8
0
 10
-7.34291
 20
554.257
 11
-7.14888
 21
553.659
  0
LINE
  8
0
 10
-7.14888
 20
553.659
 11
-6.88153
 21
553.091
  0
LINE
  8
0
 10
-6.88153
 20
553.091
 11
-6.54507
 21
552.561
  0
LINE
  8
0
 10
-6.54507
 20
552.561
 11
-6.14484
 21
552.077
  0
LINE
  8
0
 10
-6.14484
 20
552.077
 11
-5.68712
 21
551.647
  0
LINE
  8
0
 10
-5.68712
 20
551.647
 11
-5.17912
 21
551.278
  0
LINE
  8
0
 10
-5.17912
 20
551.278
 11
-4.62889
 21
550.976
  0
LINE
  8
0
 10
-4.62889
 20
550.976
 11
-4.04507
 21
550.745
  0
LINE
  8
0
 10
-4.04507
 20
550.745
 11
-3.4369
 21
550.589
  0
LINE
  8
0
 10
-3.4369
 20
550.589
 11
-2.81395
 21
550.51
  0
LINE
  8
0
 10
-2.81395
 20
550.51
 11
2.81395
 21
550.51
  0
LINE
  8
0
 10
2.81395
 20
550.51
 11
3.4369
 21
550.589
  0
LINE
  8
0
 10
-2.25116
 20
552.008
 11
-2.74951
 21
552.071
  0
LINE
  8
0
 10
-2.74951
 20
552.071
 11
-3.23605
 21
552.196
  0
LINE
  8
0
 10
-3.23605
 20
552.196
 11
-3.70311
 21
552.381
  0
LINE
  8
0
 10
-3.70311
 20
552.381
 11
-4.1433
 21
552.623
  0
LINE
  8
0
 10
-4.1433
 20
552.623
 11
-4.54968
 21
552.918
  0
LINE
  8
0
 10
-4.54968
 20
552.918
 11
-4.91586
 21
553.262
  0
LINE
  8
0
 10
-4.91586
 20
553.262
 11
-5.23605
 21
553.649
  0
LINE
  8
0
 10
-5.23605
 20
553.649
 11
-5.50522
 21
554.073
  0
LINE
  8
0
 10
-5.50522
 20
554.073
 11
-5.7191
 21
554.528
  0
LINE
  8
0
 10
-5.7191
 20
554.528
 11
-5.87433
 21
555.005
  0
LINE
  8
0
 10
-5.87433
 20
555.005
 11
-5.96844
 21
555.499
  0
LINE
  8
0
 10
-5.96844
 20
555.499
 11
-6
 21
556
  0
LINE
  8
0
 10
-6
 20
556
 11
-6
 21
620
  0
LINE
  8
0
 10
-6
 20
620
 11
-5.96844
 21
620.501
  0
LINE
  8
0
 10
-5.96844
 20
620.501
 11
-5.87433
 21
620.995
  0
LINE
  8
0
 10
-5.87433
 20
620.995
 11
-5.7191
 21
621.472
  0
LINE
  8
0
 10
-5.7191
 20
621.472
 11
-5.50522
 21
621.927
  0
LINE
  8
0
 10
-5.50522
 20
621.927
 11
-5.23605
 21
622.351
  0
LINE
  8
0
 10
-5.23605
 20
622.351
 11
-4.91586
 21
622.738
  0
LINE
  8
0
 10
-4.91586
 20
622.738
 11
-4.54968
 21
623.082
  0
LINE
  8
0
 10
-4.54968
 20
623.082
 11
-4.1433
 21
623.377
  0
LINE
  8
0
 10
-4.1433
 20
623.377
 11
-3.70311
 21
623.619
  0
LINE
  8
0
 10
-3.70311
 20
623.619
 11
-3.23605
 21
623.804
  0
LINE
  8
0
 10
-3.23605
 20
623.804
 11
-2.74951
 21
623.929
  0
LINE
  8
0
 10
-2.74951
 20
623.929
 11
-2.25116
 21
623.992
  0
LINE
  8
0
 10
-2.25116
 20
623.992
 11
2.25116
 21
623.992
  0
LINE
  8
0
 10
2.25116
 20
623.992
 11
2.74951
 21
623.929
  0
LINE
  8
0
 10
2.74951
 20
623.929
 11
3.23605
 21
623.804
  0
LINE
  8
0
 10
3.23605
 20
623.804
 11
3.70311
 21
623.619
  0
LINE
  8
0
 10
3.70311
 20
623.619
 11
4.1433
 21
623.377
  0
LINE
  8
0
 10
4.1433
 20
623.377
 11
4.54968
 21
623.082
  0
LINE
  8
0
 10
4.54968
 20
623.082
 11
4.91586
 21
622.738
  0
LINE
  8
0
 10
4.91586
 20
622.738
 11
5.23605
 21
622.351
  0
LINE
  8
0
 10
5.23605
 20
622.351
 11
5.50522
 21
621.927
  0
LINE
  8
0
 10
5.50522
 20
621.927
 11
5.7191
 21
621.472
  0
LINE
  8
0
 10
5.7191
 20
621.472
 11
5.87433
 21
620.995
  0
LINE
  8
0
 10
5.87433
 20
620.995
 11
5.96844
 21
620.501
  0
LINE
  8
0
 10
5.96844
 20
620.501
 11
6
 21
620
  0
LINE
  8
0
 10
6
 20
620
 11
6
 21
556
  0
LINE
  8
0
 10
6
 20
556
 11
5.96844
 21
555.499
  0
LINE
  8
0
 10
5.96844
 20
555.499
 11
5.87433
 21
555.005
  0
LINE
  8
0
 10
5.87433
 20
555.005
 11
5.7191
 21
554.528
  0
LINE
  8
0
 10
5.7191
 20
554.528
 11
5.50522
 21
554.073
  0
LINE
  8
0
 10
5.50522
 20
554.073
 11
5.23605
 21
553.649
  0
LINE
  8
0
 10
5.23605
 20
553.649
 11
4.91586
 21
553.262
  0
LINE
  8
0
 10
4.91586
 20
553.262
 11
4.54968
 21
552.918
  0
LINE
  8
0
 10
4.54968
 20
552.918
 11
4.1433
 21
552.623
  0
LINE
  8
0
 10
4.1433
 20
552.623
 11
3.70311
 21
552.381
  0
LINE
  8
0
 10
3.70311
 20
552.381
 11
3.23605
 21
552.196
  0
LINE
  8
0
 10
3.23605
 20
552.196
 11
2.74951
 21
552.071
  0
LINE
  8
0
 10
2.74951
 20
552.071
 11
2.25116
 21
552.008
  0
LINE
  8
0
 10
2.25116
 20
552.008
 11
-2.25116
 21
552.008
  0
LINE
  8
0
 10
3.4369
 20
466.589
 11
4.04507
 21
466.745
  0
LINE
  8
0
 10
4.04507
 20
466.745
 11
4.62889
 21
466.976
  0
LINE
  8
0
 10
4.62889
 20
466.976
 11
5.17912
 21
467.278
  0
LINE
  8
0
 10
5.17912
 20
467.278
 11
5.68712
 21
467.647
  0
LINE
  8
0
 10
5.68712
 20
467.647
 11
6.14484
 21
468.077
  0
LINE
  8
0
 10
6.14484
 20
468.077
 11
6.54507
 21
468.561
  0
LINE
  8
0
 10
6.54507
 20
468.561
 11
6.88153
 21
469.091
  0
LINE
  8
0
 10
6.88153
 20
469.091
 11
7.14888
 21
469.659
  0
LINE
  8
0
 10
7.14888
 20
469.659
 11
7.34291
 21
470.257
  0
LINE
  8
0
 10
7.34291
 20
470.257
 11
7.46057
 21
470.873
  0
LINE
  8
0
 10
7.46057
 20
470.873
 11
7.5
 21
471.5
  0
LINE
  8
0
 10
7.5
 20
471.5
 11
7.5
 21
536.5
  0
LINE
  8
0
 10
7.5
 20
536.5
 11
7.46057
 21
537.127
  0
LINE
  8
0
 10
7.46057
 20
537.127
 11
7.34291
 21
537.743
  0
LINE
  8
0
 10
7.34291
 20
537.743
 11
7.14888
 21
538.341
  0
LINE
  8
0
 10
7.14888
 20
538.341
 11
6.88153
 21
538.909
  0
LINE
  8
0
 10
6.88153
 20
538.909
 11
6.54507
 21
539.439
  0
LINE
  8
0
 10
6.54507
 20
539.439
 11
6.14484
 21
539.923
  0
LINE
  8
0
 10
6.14484
 20
539.923
 11
5.68712
 21
540.353
  0
LINE
  8
0
 10
5.68712
 20
540.353
 11
5.17912
 21
540.722
  0
LINE
  8
0
 10
5.17912
 20
540.722
 11
4.62889
 21
541.024
  0
LINE
  8
0
 10
4.62889
 20
541.024
 11
4.04507
 21
541.255
  0
LINE
  8
0
 10
4.04507
 20
541.255
 11
3.4369
 21
541.411
  0
LINE
  8
0
 10
3.4369
 20
541.411
 11
2.81395
 21
541.49
  0
LINE
  8
0
 10
2.81395
 20
541.49
 11
-2.81395
 21
541.49
  0
LINE
  8
0
 10
-2.81395
 20
541.49
 11
-3.4369
 21
541.411
  0
LINE
  8
0
 10
-3.4369
 20
541.411
 11
-4.04507
 21
541.255
  0
LINE
  8
0
 10
-4.04507
 20
541.255
 11
-4.62889
 21
541.024
  0
LINE
  8
0
 10
-4.62889
 20
541.024
 11
-5.17912
 21
540.722
  0
LINE
  8
0
 10
-5.17912
 20
540.722
 11
-5.68712
 21
540.353
  0
LINE
  8
0
 10
-5.68712
 20
540.353
 11
-6.14484
 21
539.923
  0
LINE
  8
0
 10
-6.14484
 20
539.923
 11
-6.54507
 21
539.439
  0
LINE
  8
0
 10
-6.54507
 20
539.439
 11
-6.88153
 21
538.909
  0
LINE
  8
0
 10
-6.88153
 20
538.909
 11
-7.14888
 21
538.341
  0
LINE
  8
0
 10
-7.14888
 20
538.341
 11
-7.34291
 21
537.743
  0
LINE
  8
0
 10
-7.34291
 20
537.743
 11
-7.46057
 21
537.127
  0
LINE
  8
0
 10
-7.46057
 20
537.127
 11
-7.5
 21
536.5
  0
LINE
  8
0
 10
-7.5
 20
536.5
 11
-7.5
 21
471.5
  0
LINE
  8
0
 10
-7.5
 20
471.5
 11
-7.46057
 21
470.873
  0
LINE
  8
0
 10
-7.46057
 20
470.873
 11
-7.34291
 21
470.257
  0
LINE
  8
0
 10
-7.34291
 20
470.257
 11
-7.14888
 21
469.659
  0
LINE
  8
0
 10
-7.14888
 20
469.659
 11
-6.88153
 21
469.091
  0
LINE
  8
0
 10
-6.88153
 20
469.091
 11
-6.54507
 21
468.561
  0
LINE
  8
0
 10
-6.54507
 20
468.561
 11
-6.14484
 21
468.077
  0
LINE
  8
0
 10
-6.14484
 20
468.077
 11
-5.68712
 21
467.647
  0
LINE
  8
0
 10
-5.68712
 20
467.647
 11
-5.17912
 21
467.278
  0
LINE
  8
0
 10
-5.17912
 20
467.278
 11
-4.62889
 21
466.976
  0
LINE
  8
0
 10
-4.62889
 20
466.976
 11
-4.04507
 21
466.745
  0
LINE
  8
0
 10
-4.04507
 20
466.745
 11
-3.4369
 21
466.589
  0
LINE
  8
0
 10
-3.4369
 20
466.589
 11
-2.81395
 21
466.51
  0
LINE
  8
0
 10
-2.81395
 20
466.51
 11
2.81395
 21
466.51
  0
LINE
  8
0
 10
2.81395
 20
466.51
 11
3.4369
 21
466.589
  0
LINE
  8
0
 10
-2.19545
 20
468.893
 11
-2.5833
 21
468.942
  0
LINE
  8
0
 10
-2.5833
 20
468.942
 11
-2.96194
 21
469.039
  0
LINE
  8
0
 10
-2.96194
 20
469.039
 11
-3.32541
 21
469.183
  0
LINE
  8
0
 10
-3.32541
 20
469.183
 11
-3.66798
 21
469.372
  0
LINE
  8
0
 10
-3.66798
 20
469.372
 11
-3.98424
 21
469.601
  0
LINE
  8
0
 10
-3.98424
 20
469.601
 11
-4.26921
 21
469.869
  0
LINE
  8
0
 10
-4.26921
 20
469.869
 11
-4.5184
 21
470.17
  0
LINE
  8
0
 10
-4.5184
 20
470.17
 11
-4.72786
 21
470.5
  0
LINE
  8
0
 10
-4.72786
 20
470.5
 11
-4.89432
 21
470.854
  0
LINE
  8
0
 10
-4.89432
 20
470.854
 11
-5.01512
 21
471.226
  0
LINE
  8
0
 10
-5.01512
 20
471.226
 11
-5.08836
 21
471.61
  0
LINE
  8
0
 10
-5.08836
 20
471.61
 11
-5.11292
 21
472
  0
LINE
  8
0
 10
-5.11292
 20
472
 11
-5.11292
 21
536
  0
LINE
  8
0
 10
-5.11292
 20
536
 11
-5.08836
 21
536.39
  0
LINE
  8
0
 10
-5.08836
 20
536.39
 11
-5.01512
 21
536.774
  0
LINE
  8
0
 10
-5.01512
 20
536.774
 11
-4.89432
 21
537.146
  0
LINE
  8
0
 10
-4.89432
 20
537.146
 11
-4.72786
 21
537.5
  0
LINE
  8
0
 10
-4.72786
 20
537.5
 11
-4.5184
 21
537.83
  0
LINE
  8
0
 10
-4.5184
 20
537.83
 11
-4.26921
 21
538.131
  0
LINE
  8
0
 10
-4.26921
 20
538.131
 11
-3.98424
 21
538.399
  0
LINE
  8
0
 10
-3.98424
 20
538.399
 11
-3.66798
 21
538.628
  0
LINE
  8
0
 10
-3.66798
 20
538.628
 11
-3.32541
 21
538.817
  0
LINE
  8
0
 10
-3.32541
 20
538.817
 11
-2.96194
 21
538.961
  0
LINE
  8
0
 10
-2.96194
 20
538.961
 11
-2.5833
 21
539.058
  0
LINE
  8
0
 10
-2.5833
 20
539.058
 11
-2.19545
 21
539.107
  0
LINE
  8
0
 10
-2.19545
 20
539.107
 11
2.19545
 21
539.107
  0
LINE
  8
0
 10
2.19545
 20
539.107
 11
2.5833
 21
539.058
  0
LINE
  8
0
 10
2.5833
 20
539.058
 11
2.96194
 21
538.961
  0
LINE
  8
0
 10
2.96194
 20
538.961
 11
3.32541
 21
538.817
  0
LINE
  8
0
 10
3.32541
 20
538.817
 11
3.66798
 21
538.628
  0
LINE
  8
0
 10
3.66798
 20
538.628
 11
3.98424
 21
538.399
  0
LINE
  8
0
 10
3.98424
 20
538.399
 11
4.26921
 21
538.131
  0
LINE
  8
0
 10
4.26921
 20
538.131
 11
4.5184
 21
537.83
  0
LINE
  8
0
 10
4.5184
 20
537.83
 11
4.72786
 21
537.5
  0
LINE
  8
0
 10
4.72786
 20
537.5
 11
4.89432
 21
537.146
  0
LINE
  8
0
 10
4.89432
 20
537.146
 11
5.01512
 21
536.774
  0
LINE
  8
0
 10
5.01512
 20
536.774
 11
5.08836
 21
536.39
  0
LINE
  8
0
 10
5.08836
 20
536.39
 11
5.11292
 21
536
  0
LINE
  8
0
 10
5.11292
 20
536
 11
5.11292
 21
472
  0
LINE
  8
0
 10
5.11292
 20
472
 11
5.08836
 21
471.61
  0
LINE
  8
0
 10
5.08836
 20
471.61
 11
5.01512
 21
471.226
  0
LINE
  8
0
 10
5.01512
 20
471.226
 11
4.89432
 21
470.854
  0
LINE
  8
0
 10
4.89432
 20
470.854
 11
4.72786
 21
470.5
  0
LINE
  8
0
 10
4.72786
 20
470.5
 11
4.5184
 21
470.17
  0
LINE
  8
0
 10
4.5184
 20
470.17
 11
4.26921
 21
469.869
  0
LINE
  8
0
 10
4.26921
 20
469.869
 11
3.98424
 21
469.601
  0
LINE
  8
0
 10
3.98424
 20
469.601
 11
3.66798
 21
469.372
  0
LINE
  8
0
 10
3.66798
 20
469.372
 11
3.32541
 21
469.183
  0
LINE
  8
0
 10
3.32541
 20
469.183
 11
2.96194
 21
469.039
  0
LINE
  8
0
 10
2.96194
 20
469.039
 11
2.5833
 21
468.942
  0
LINE
  8
0
 10
2.5833
 20
468.942
 11
2.19545
 21
468.893
  0
LINE
  8
0
 10
2.19545
 20
468.893
 11
-2.19545
 21
468.893
  0
LINE
  8
0
 10
3.4369
 20
382.589
 11
4.04507
 21
382.745
  0
LINE
  8
0
 10
4.04507
 20
382.745
 11
4.62889
 21
382.976
  0
LINE
  8
0
 10
4.62889
 20
382.976
 11
5.17912
 21
383.278
  0
LINE
  8
0
 10
5.17912
 20
383.278
 11
5.68712
 21
383.647
  0
LINE
  8
0
 10
5.68712
 20
383.647
 11
6.14484
 21
384.077
  0
LINE
  8
0
 10
6.14484
 20
384.077
 11
6.54507
 21
384.561
  0
LINE
  8
0
 10
6.54507
 20
384.561
 11
6.88153
 21
385.091
  0
LINE
  8
0
 10
6.88153
 20
385.091
 11
7.14888
 21
385.659
  0
LINE
  8
0
 10
7.14888
 20
385.659
 11
7.34291
 21
386.257
  0
LINE
  8
0
 10
7.34291
 20
386.257
 11
7.46057
 21
386.873
  0
LINE
  8
0
 10
7.46057
 20
386.873
 11
7.5
 21
387.5
  0
LINE
  8
0
 10
7.5
 20
387.5
 11
7.5
 21
452.5
  0
LINE
  8
0
 10
7.5
 20
452.5
 11
7.46057
 21
453.127
  0
LINE
  8
0
 10
7.46057
 20
453.127
 11
7.34291
 21
453.743
  0
LINE
  8
0
 10
7.34291
 20
453.743
 11
7.14888
 21
454.341
  0
LINE
  8
0
 10
7.14888
 20
454.341
 11
6.88153
 21
454.909
  0
LINE
  8
0
 10
6.88153
 20
454.909
 11
6.54507
 21
455.439
  0
LINE
  8
0
 10
6.54507
 20
455.439
 11
6.14484
 21
455.923
  0
LINE
  8
0
 10
6.14484
 20
455.923
 11
5.68712
 21
456.353
  0
LINE
  8
0
 10
5.68712
 20
456.353
 11
5.17912
 21
456.722
  0
LINE
  8
0
 10
5.17912
 20
456.722
 11
4.62889
 21
457.024
  0
LINE
  8
0
 10
4.62889
 20
457.024
 11
4.04507
 21
457.255
  0
LINE
  8
0
 10
4.04507
 20
457.255
 11
3.4369
 21
457.411
  0
LINE
  8
0
 10
3.4369
 20
457.411
 11
2.81395
 21
457.49
  0
LINE
  8
0
 10
2.81395
 20
457.49
 11
-2.81395
 21
457.49
  0
LINE
  8
0
 10
-2.81395
 20
457.49
 11
-3.4369
 21
457.411
  0
LINE
  8
0
 10
-3.4369
 20
457.411
 11
-4.04507
 21
457.255
  0
LINE
  8
0
 10
-4.04507
 20
457.255
 11
-4.62889
 21
457.024
  0
LINE
  8
0
 10
-4.62889
 20
457.024
 11
-5.17912
 21
456.722
  0
LINE
  8
0
 10
-5.17912
 20
456.722
 11
-5.68712
 21
456.353
  0
LINE
  8
0
 10
-5.68712
 20
456.353
 11
-6.14484
 21
455.923
  0
LINE
  8
0
 10
-6.14484
 20
455.923
 11
-6.54507
 21
455.439
  0
LINE
  8
0
 10
-6.54507
 20
455.439
 11
-6.88153
 21
454.909
  0
LINE
  8
0
 10
-6.88153
 20
454.909
 11
-7.14888
 21
454.341
  0
LINE
  8
0
 10
-7.14888
 20
454.341
 11
-7.34291
 21
453.743
  0
LINE
  8
0
 10
-7.34291
 20
453.743
 11
-7.46057
 21
453.127
  0
LINE
  8
0
 10
-7.46057
 20
453.127
 11
-7.5
 21
452.5
  0
LINE
  8
0
 10
-7.5
 20
452.5
 11
-7.5
 21
387.5
  0
LINE
  8
0
 10
-7.5
 20
387.5
 11
-7.46057
 21
386.873
  0
LINE
  8
0
 10
-7.46057
 20
386.873
 11
-7.34291
 21
386.257
  0
LINE
  8
0
 10
-7.34291
 20
386.257
 11
-7.14888
 21
385.659
  0
LINE
  8
0
 10
-7.14888
 20
385.659
 11
-6.88153
 21
385.091
  0
LINE
  8
0
 10
-6.88153
 20
385.091
 11
-6.54507
 21
384.561
  0
LINE
  8
0
 10
-6.54507
 20
384.561
 11
-6.14484
 21
384.077
  0
LINE
  8
0
 10
-6.14484
 20
384.077
 11
-5.68712
 21
383.647
  0
LINE
  8
0
 10
-5.68712
 20
383.647
 11
-5.17912
 21
383.278
  0
LINE
  8
0
 10
-5.17912
 20
383.278
 11
-4.62889
 21
382.976
  0
LINE
  8
0
 10
-4.62889
 20
382.976
 11
-4.04507
 21
382.745
  0
LINE
  8
0
 10
-4.04507
 20
382.745
 11
-3.4369
 21
382.589
  0
LINE
  8
0
 10
-3.4369
 20
382.589
 11
-2.81395
 21
382.51
  0
LINE
  8
0
 10
-2.81395
 20
382.51
 11
2.81395
 21
382.51
  0
LINE
  8
0
 10
2.81395
 20
382.51
 11
3.4369
 21
382.589
  0
LINE
  8
0
 10
-0.134064
 20
447.869
 11
-0.400101
 21
447.903
  0
LINE
  8
0
 10
-0.400101
 20
447.903
 11
-0.659836
 21
447.969
  0
LINE
  8
0
 10
-0.659836
 20
447.969
 11
-0.909149
 21
448.068
  0
LINE
  8
0
 10
-0.909149
 20
448.068
 11
-1.14413
 21
448.197
  0
LINE
  8
0
 10
-1.14413
 20
448.197
 11
-1.36108
 21
448.355
  0
LINE
  8
0
 10
-1.36108
 20
448.355
 11
-1.55655
 21
448.538
  0
LINE
  8
0
 10
-1.55655
 20
448.538
 11
-1.72748
 21
448.745
  0
LINE
  8
0
 10
-1.72748
 20
448.745
 11
-1.87117
 21
448.971
  0
LINE
  8
0
 10
-1.87117
 20
448.971
 11
-1.98534
 21
449.214
  0
LINE
  8
0
 10
-1.98534
 20
449.214
 11
-2.06821
 21
449.469
  0
LINE
  8
0
 10
-2.06821
 20
449.469
 11
-2.11845
 21
449.732
  0
LINE
  8
0
 10
-2.11845
 20
449.732
 11
-2.13528
 21
450
  0
LINE
  8
0
 10
-2.13528
 20
450
 11
-2.11845
 21
450.268
  0
LINE
  8
0
 10
-2.11845
 20
450.268
 11
-2.06821
 21
450.531
  0
LINE
  8
0
 10
-2.06821
 20
450.531
 11
-1.98534
 21
450.786
  0
LINE
  8
0
 10
-1.98534
 20
450.786
 11
-1.87117
 21
451.029
  0
LINE
  8
0
 10
-1.87117
 20
451.029
 11
-1.72748
 21
451.255
  0
LINE
  8
0
 10
-1.72748
 20
451.255
 11
-1.55655
 21
451.462
  0
LINE
  8
0
 10
-1.55655
 20
451.462
 11
-1.36108
 21
451.645
  0
LINE
  8
0
 10
-1.36108
 20
451.645
 11
-1.14413
 21
451.803
  0
LINE
  8
0
 10
-1.14413
 20
451.803
 11
-0.909149
 21
451.932
  0
LINE
  8
0
 10
-0.909149
 20
451.932
 11
-0.659836
 21
452.031
  0
LINE
  8
0
 10
-0.659836
 20
452.031
 11
-0.400101
 21
452.097
  0
LINE
  8
0
 10
-0.400101
 20
452.097
 11
-0.134064
 21
452.131
  0
LINE
  8
0
 10
-0.134064
 20
452.131
 11
0.134064
 21
452.131
  0
LINE
  8
0
 10
0.134064
 20
452.131
 11
0.400101
 21
452.097
  0
LINE
  8
0
 10
0.400101
 20
452.097
 11
0.659836
 21
452.031
  0
LINE
  8
0
 10
0.659836
 20
452.031
 11
0.909149
 21
451.932
  0
LINE
  8
0
 10
0.909149
 20
451.932
 11
1.14413
 21
451.803
  0
LINE
  8
0
 10
1.14413
 20
451.803
 11
1.36108
 21
451.645
  0
LINE
  8
0
 10
1.36108
 20
451.645
 11
1.55655
 21
451.462
  0
LINE
  8
0
 10
1.55655
 20
451.462
 11
1.72748
 21
451.255
  0
LINE
  8
0
 10
1.72748
 20
451.255
 11
1.87117
 21
451.029
  0
LINE
  8
0
 10
1.87117
 20
451.029
 11
1.98534
 21
450.786
  0
LINE
  8
0
 10
1.98534
 20
450.786
 11
2.06821
 21
450.531
  0
LINE
  8
0
 10
2.06821
 20
450.531
 11
2.11845
 21
450.268
  0
LINE
  8
0
 10
2.11845
 20
450.268
 11
2.13528
 21
450
  0
LINE
  8
0
 10
2.13528
 20
450
 11
2.11845
 21
449.732
  0
LINE
  8
0
 10
2.11845
 20
449.732
 11
2.06821
 21
449.469
  0
LINE
  8
0
 10
2.06821
 20
449.469
 11
1.98534
 21
449.214
  0
LINE
  8
0
 10
1.98534
 20
449.214
 11
1.87117
 21
448.971
  0
LINE
  8
0
 10
1.87117
 20
448.971
 11
1.72748
 21
448.745
  0
LINE
  8
0
 10
1.72748
 20
448.745
 11
1.55655
 21
448.538
  0
LINE
  8
0
 10
1.55655
 20
448.538
 11
1.36108
 21
448.355
  0
LINE
  8
0
 10
1.36108
 20
448.355
 11
1.14413
 21
448.197
  0
LINE
  8
0
 10
1.14413
 20
448.197
 11
0.909149
 21
448.068
  0
LINE
  8
0
 10
0.909149
 20
448.068
 11
0.659836
 21
447.969
  0
LINE
  8
0
 10
0.659836
 20
447.969
 11
0.400101
 21
447.903
  0
LINE
  8
0
 10
0.400101
 20
447.903
 11
0.134064
 21
447.869
  0
LINE
  8
0
 10
0.134064
 20
447.869
 11
-0.134064
 21
447.869
  0
LINE
  8
0
 10
-0.134064
 20
387.869
 11
-0.400101
 21
387.903
  0
LINE
  8
0
 10
-0.400101
 20
387.903
 11
-0.659836
 21
387.969
  0
LINE
  8
0
 10
-0.659836
 20
387.969
 11
-0.909149
 21
388.068
  0
LINE
  8
0
 10
-0.909149
 20
388.068
 11
-1.14413
 21
388.197
  0
LINE
  8
0
 10
-1.14413
 20
388.197
 11
-1.36108
 21
388.355
  0
LINE
  8
0
 10
-1.36108
 20
388.355
 11
-1.55655
 21
388.538
  0
LINE
  8
0
 10
-1.55655
 20
388.538
 11
-1.72748
 21
388.745
  0
LINE
  8
0
 10
-1.72748
 20
388.745
 11
-1.87117
 21
388.971
  0
LINE
  8
0
 10
-1.87117
 20
388.971
 11
-1.98534
 21
389.214
  0
LINE
  8
0
 10
-1.98534
 20
389.214
 11
-2.06821
 21
389.469
  0
LINE
  8
0
 10
-2.06821
 20
389.469
 11
-2.11845
 21
389.732
  0
LINE
  8
0
 10
-2.11845
 20
389.732
 11
-2.13528
 21
390
  0
LINE
  8
0
 10
-2.13528
 20
390
 11
-2.11845
 21
390.268
  0
LINE
  8
0
 10
-2.11845
 20
390.268
 11
-2.06821
 21
390.531
  0
LINE
  8
0
 10
-2.06821
 20
390.531
 11
-1.98534
 21
390.786
  0
LINE
  8
0
 10
-1.98534
 20
390.786
 11
-1.87117
 21
391.029
  0
LINE
  8
0
 10
-1.87117
 20
391.029
 11
-1.72748
 21
391.255
  0
LINE
  8
0
 10
-1.72748
 20
391.255
 11
-1.55655
 21
391.462
  0
LINE
  8
0
 10
-1.55655
 20
391.462
 11
-1.36108
 21
391.645
  0
LINE
  8
0
 10
-1.36108
 20
391.645
 11
-1.14413
 21
391.803
  0
LINE
  8
0
 10
-1.14413
 20
391.803
 11
-0.909149
 21
391.932
  0
LINE
  8
0
 10
-0.909149
 20
391.932
 11
-0.659836
 21
392.031
  0
LINE
  8
0
 10
-0.659836
 20
392.031
 11
-0.400101
 21
392.097
  0
LINE
  8
0
 10
-0.400101
 20
392.097
 11
-0.134064
 21
392.131
  0
LINE
  8
0
 10
-0.134064
 20
392.131
 11
0.134064
 21
392.131
  0
LINE
  8
0
 10
0.134064
 20
392.131
 11
0.400101
 21
392.097
  0
LINE
  8
0
 10
0.400101
 20
392.097
 11
0.659836
 21
392.031
  0
LINE
  8
0
 10
0.659836
 20
392.031
 11
0.909149
 21
391.932
  0
LINE
  8
0
 10
0.909149
 20
391.932
 11
1.14413
 21
391.803
  0
LINE
  8
0
 10
1.14413
 20
391.803
 11
1.36108
 21
391.645
  0
LINE
  8
0
 10
1.36108
 20
391.645
 11
1.55655
 21
391.462
  0
LINE
  8
0
 10
1.55655
 20
391.462
 11
1.72748
 21
391.255
  0
LINE
  8
0
 10
1.72748
 20
391.255
 11
1.87117
 21
391.029
  0
LINE
  8
0
 10
1.87117
 20
391.029
 11
1.98534
 21
390.786
  0
LINE
  8
0
 10
1.98534
 20
390.786
 11
2.06821
 21
390.531
  0
LINE
  8
0
 10
2.06821
 20
390.531
 11
2.11845
 21
390.268
  0
LINE
  8
0
 10
2.11845
 20
390.268
 11
2.13528
 21
390
  0
LINE
  8
0
 10
2.13528
 20
390
 11
2.11845
 21
389.732
  0
LINE
  8
0
 10
2.11845
 20
389.732
 11
2.06821
 21
389.469
  0
LINE
  8
0
 10
2.06821
 20
389.469
 11
1.98534
 21
389.214
  0
LINE
  8
0
 10
1.98534
 20
389.214
 11
1.87117
 21
388.971
  0
LINE
  8
0
 10
1.87117
 20
388.971
 11
1.72748
 21
388.745
  0
LINE
  8
0
 10
1.72748
 20
388.745
 11
1.55655
 21
388.538
  0
LINE
  8
0
 10
1.55655
 20
388.538
 11
1.36108
 21
388.355
  0
LINE
  8
0
 10
1.36108
 20
388.355
 11
1.14413
 21
388.197
  0
LINE
  8
0
 10
1.14413
 20
388.197
 11
0.909149
 21
388.068
  0
LINE
  8
0
 10
0.909149
 20
388.068
 11
0.659836
 21
387.969
  0
LINE
  8
0
 10
0.659836
 20
387.969
 11
0.400101
 21
387.903
  0
LINE
  8
0
 10
0.400101
 20
387.903
 11
0.134064
 21
387.869
  0
LINE
  8
0
 10
0.134064
 20
387.869
 11
-0.134064
 21
387.869
  0
ENDSEC
  0
SECTION
  2
OBJECTS
  0
DICTIONARY
  0
ENDSEC
  0
EOF
