<?xml version="1.0" standalone="no"?>
<!DOCTYPE svg PUBLIC "-//W3C//DTD SVG 1.1//EN" "http://www.w3.org/Graphics/SVG/1.1/DTD/svg11.dtd">
<svg width="77mm" height="64mm" viewBox="-39 -128 77 64" xmlns="http://www.w3.org/2000/svg" version="1.1">
<title>OpenSCAD Model</title>
<path d="
M -36,-113.941 L -35.6871,-113.647 L -35.1791,-113.278 L -34.6289,-112.976 L -34.0451,-112.745 L -33.4369,-112.589
 L -32.8139,-112.51 L 32.8139,-112.51 L 33.4369,-112.589 L 34.0451,-112.745 L 34.6289,-112.976 L 35.1791,-113.278
 L 35.6871,-113.647 L 36.1448,-114.077 L 36.5451,-114.561 L 36.8815,-115.091 L 37.1489,-115.659 L 37.3429,-116.257
 L 37.4606,-116.873 L 37.5,-117.5 L 37.5,-122.5 L 37.4606,-123.127 L 37.3429,-123.743 L 37.1489,-124.341
 L 36.8815,-124.909 L 36.5451,-125.439 L 36.1448,-125.923 L 35.6871,-126.353 L 35.1791,-126.722 L 34.6289,-127.024
 L 34.0451,-127.255 L 33.4369,-127.411 L 32.8139,-127.49 L -32.8139,-127.49 L -33.4369,-127.411 L -34.0451,-127.255
 L -34.6289,-127.024 L -35.1791,-126.722 L -35.6871,-126.353 L -36,-126.059 L -36,-127.49 L -39,-127.49
 L -39,-112.51 L -36,-112.51 z
M -32.2512,-114.008 L -32.7495,-114.071 L -33.2361,-114.196 L -33.7031,-114.381 L -34.1433,-114.623 L -34.5497,-114.918
 L -34.9159,-115.262 L -35.2361,-115.649 L -35.5052,-116.073 L -35.7191,-116.528 L -35.8743,-117.005 L -35.9685,-117.499
 L -36,-118 L -36,-122 L -35.9685,-122.501 L -35.8743,-122.995 L -35.7191,-123.472 L -35.5052,-123.927
 L -35.2361,-124.351 L -34.9159,-124.738 L -34.5497,-125.082 L -34.1433,-125.377 L -33.7031,-125.619 L -33.2361,-125.804
 L -32.7495,-125.929 L -32.2512,-125.992 L 32.2512,-125.992 L 32.7495,-125.929 L 33.2361,-125.804 L 33.7031,-125.619
 L 34.1433,-125.377 L 34.5497,-125.082 L 34.9159,-124.738 L 35.2361,-124.351 L 35.5052,-123.927 L 35.7191,-123.472
 L 35.8743,-122.995 L 35.9685,-122.501 L 36,-122 L 36,-118 L 35.9685,-117.499 L 35.8743,-117.005
 L 35.7191,-116.528 L 35.5052,-116.073 L 35.2361,-115.649 L 34.9159,-115.262 L 34.5497,-114.918 L 34.1433,-114.623
 L 33.7031,-114.381 L 33.2361,-114.196 L 32.7495,-114.071 L 32.2512,-114.008 z
M 33.4369,-88.5886 L 34.0451,-88.7447 L 34.6289,-88.9759 L 35.1791,-89.2784 L 35.6871,-89.6474 L 36.1448,-90.0773
 L 36.5451,-90.5611 L 36.8815,-91.0912 L 37.1489,-91.6594 L 37.3429,-92.2566 L 37.4606,-92.8733 L 37.5,-93.5
 L 37.5,-98.5 L 37.4606,-99.1267 L 37.3429,-99.7434 L 37.1489,-100.341 L 36.8815,-100.909 L 36.5451,-101.439
 L 36.1448,-101.923 L 35.6871,-102.353 L 35.1791,-102.722 L 34.6289,-103.024 L 34.0451,-103.255 L 33.4369,-103.411
 L 32.8139,-103.49 L -32.8139,-103.49 L -33.4369,-103.411 L -34.0451,-103.255 L -34.6289,-103.024 L -35.1791,-102.722
 L -35.6871,-102.353 L -36,-102.059 L -36,-103.479 L -39,-103.479 L -39,-88.5208 L -36,-88.5208
 L -36,-89.9413 L -35.6871,-89.6474 L -35.1791,-89.2784 L -34.6289,-88.9759 L -34.0451,-88.7447 L -33.4369,-88.5886
 L -32.8139,-88.5099 L 32.8139,-88.5099 z
M -32.1954,-90.8932 L -32.5833,-90.9422 L -32.9619,-91.0394 L -33.3254,-91.1833 L -33.668,-91.3717 L -33.9842,-91.6015
 L -34.2692,-91.8691 L -34.5184,-92.1703 L -34.7279,-92.5004 L -34.8943,-92.8541 L -35.0151,-93.2259 L -35.0884,-93.6098
 L -35.1129,-94 L -35.1129,-98 L -35.0884,-98.3902 L -35.0151,-98.7741 L -34.8943,-99.1459 L -34.7279,-99.4996
 L -34.5184,-99.8297 L -34.2692,-100.131 L -33.9842,-100.399 L -33.668,-100.628 L -33.3254,-100.817 L -32.9619,-100.961
 L -32.5833,-101.058 L -32.1954,-101.107 L 32.1954,-101.107 L 32.5833,-101.058 L 32.9619,-100.961 L 33.3254,-100.817
 L 33.668,-100.628 L 33.9842,-100.399 L 34.2692,-100.131 L 34.5184,-99.8297 L 34.7279,-99.4996 L 34.8943,-99.1459
 L 35.0151,-98.7741 L 35.0884,-98.3902 L 35.1129,-98 L 35.1129,-94 L 35.0884,-93.6098 L 35.0151,-93.2259
 L 34.8943,-92.8541 L 34.7279,-92.5004 L 34.5184,-92.1703 L 34.2692,-91.8691 L 33.9842,-91.6015 L 33.668,-91.3717
 L 33.3254,-91.1833 L 32.9619,-91.0394 L 32.5833,-90.9422 L 32.1954,-90.8932 z
M 33.4369,-64.5886 L 34.0451,-64.7447 L 34.6289,-64.9759 L 35.1791,-65.2784 L 35.6871,-65.6474 L 36.1448,-66.0773
 L 36.5451,-66.5611 L 36.8815,-67.0912 L 37.1489,-67.6594 L 37.3429,-68.2566 L 37.4606,-68.8733 L 37.5,-69.5
 L 37.5,-74.5 L 37.4606,-75.1267 L 37.3429,-75.7434 L 37.1489,-76.3406 L 36.8815,-76.9088 L 36.5451,-77.4389
 L 36.1448,-77.9227 L 35.6871,-78.3526 L 35.1791,-78.7216 L 34.6289,-79.0241 L 34.0451,-79.2553 L 33.4369,-79.4114
 L 32.8139,-79.4901 L -32.8139,-79.4901 L -33.4369,-79.4114 L -34.0451,-79.2553 L -34.6289,-79.0241 L -35.1791,-78.7216
 L -35.6871,-78.3526 L -36,-78.0587 L -36,-78.1526 L -39,-78.1526 L -39,-65.8474 L -36,-65.8474
 L -36,-65.9413 L -35.6871,-65.6474 L -35.1791,-65.2784 L -34.6289,-64.9759 L -34.0451,-64.7447 L -33.4369,-64.5886
 L -32.8139,-64.5099 L 32.8139,-64.5099 z
M 29.8659,-69.8689 L 29.5999,-69.9025 L 29.3401,-69.9692 L 29.0908,-70.0679 L 28.8559,-70.1971 L 28.6389,-70.3547
 L 28.4434,-70.5383 L 28.2725,-70.7449 L 28.1288,-70.9713 L 28.0146,-71.214 L 27.9318,-71.469 L 27.8815,-71.7324
 L 27.8647,-72 L 27.8815,-72.2676 L 27.9318,-72.531 L 28.0146,-72.786 L 28.1288,-73.0287 L 28.2725,-73.2551
 L 28.4434,-73.4617 L 28.6389,-73.6453 L 28.8559,-73.8029 L 29.0908,-73.9321 L 29.3401,-74.0308 L 29.5999,-74.0975
 L 29.8659,-74.1311 L 30.1341,-74.1311 L 30.4001,-74.0975 L 30.6598,-74.0308 L 30.9091,-73.9321 L 31.1441,-73.8029
 L 31.3611,-73.6453 L 31.5565,-73.4617 L 31.7275,-73.2551 L 31.8712,-73.0287 L 31.9853,-72.786 L 32.0682,-72.531
 L 32.1185,-72.2676 L 32.1353,-72 L 32.1185,-71.7324 L 32.0682,-71.469 L 31.9853,-71.214 L 31.8712,-70.9713
 L 31.7275,-70.7449 L 31.5565,-70.5383 L 31.3611,-70.3547 L 31.1441,-70.1971 L 30.9091,-70.0679 L 30.6598,-69.9692
 L 30.4001,-69.9025 L 30.1341,-69.8689 z
M -30.1341,-69.8689 L -30.4001,-69.9025 L -30.6598,-69.9692 L -30.9091,-70.0679 L -31.1441,-70.1971 L -31.3611,-70.3547
 L -31.5565,-70.5383 L -31.7275,-70.7449 L -31.8712,-70.9713 L -31.9853,-71.214 L -32.0682,-71.469 L -32.1185,-71.7324
 L -32.1353,-72 L -32.1185,-72.2676 L -32.0682,-72.531 L -31.9853,-72.786 L -31.8712,-73.0287 L -31.7275,-73.2551
 L -31.5565,-73.4617 L -31.3611,-73.6453 L -31.1441,-73.8029 L -30.9091,-73.9321 L -30.6598,-74.0308 L -30.4001,-74.0975
 L -30.1341,-74.1311 L -29.8659,-74.1311 L -29.5999,-74.0975 L -29.3401,-74.0308 L -29.0908,-73.9321 L -28.8559,-73.8029
 L -28.6389,-73.6453 L -28.4434,-73.4617 L -28.2725,-73.2551 L -28.1288,-73.0287 L -28.0146,-72.786 L -27.9318,-72.531
 L -27.8815,-72.2676 L -27.8647,-72 L -27.8815,-71.7324 L -27.9318,-71.469 L -28.0146,-71.214 L -28.1288,-70.9713
 L -28.2725,-70.7449 L -28.4434,-70.5383 L -28.6389,-70.3547 L -28.8559,-70.1971 L -29.0908,-70.0679 L -29.3401,-69.9692
 L -29.5999,-69.9025 L -29.8659,-69.8689 z
" stroke="black" fill="lightgray" stroke-width="0.5"/>
</svg>
