  0
SECTION
  2
BLOCKS
  0
ENDSEC
  0
SECTION
  2
ENTITIES
  0
LINE
  8
0
 10
3.4369
 20
289.589
 11
4.04507
 21
289.745
  0
LINE
  8
0
 10
4.04507
 20
289.745
 11
4.62889
 21
289.976
  0
LINE
  8
0
 10
4.62889
 20
289.976
 11
5.17912
 21
290.278
  0
LINE
  8
0
 10
5.17912
 20
290.278
 11
5.68712
 21
290.647
  0
LINE
  8
0
 10
5.68712
 20
290.647
 11
6.14484
 21
291.077
  0
LINE
  8
0
 10
6.14484
 20
291.077
 11
6.54507
 21
291.561
  0
LINE
  8
0
 10
6.54507
 20
291.561
 11
6.88153
 21
292.091
  0
LINE
  8
0
 10
6.88153
 20
292.091
 11
7.14888
 21
292.659
  0
LINE
  8
0
 10
7.14888
 20
292.659
 11
7.34291
 21
293.257
  0
LINE
  8
0
 10
7.34291
 20
293.257
 11
7.46057
 21
293.873
  0
LINE
  8
0
 10
7.46057
 20
293.873
 11
7.5
 21
294.5
  0
LINE
  8
0
 10
7.5
 20
294.5
 11
7.5
 21
389.5
  0
LINE
  8
0
 10
7.5
 20
389.5
 11
7.46057
 21
390.127
  0
LINE
  8
0
 10
7.46057
 20
390.127
 11
7.34291
 21
390.743
  0
LINE
  8
0
 10
7.34291
 20
390.743
 11
7.14888
 21
391.341
  0
LINE
  8
0
 10
7.14888
 20
391.341
 11
6.88153
 21
391.909
  0
LINE
  8
0
 10
6.88153
 20
391.909
 11
6.54507
 21
392.439
  0
LINE
  8
0
 10
6.54507
 20
392.439
 11
6.14484
 21
392.923
  0
LINE
  8
0
 10
6.14484
 20
392.923
 11
5.68712
 21
393.353
  0
LINE
  8
0
 10
5.68712
 20
393.353
 11
5.17912
 21
393.722
  0
LINE
  8
0
 10
5.17912
 20
393.722
 11
4.62889
 21
394.024
  0
LINE
  8
0
 10
4.62889
 20
394.024
 11
4.04507
 21
394.255
  0
LINE
  8
0
 10
4.04507
 20
394.255
 11
3.4369
 21
394.411
  0
LINE
  8
0
 10
3.4369
 20
394.411
 11
2.81395
 21
394.49
  0
LINE
  8
0
 10
2.81395
 20
394.49
 11
-2.81395
 21
394.49
  0
LINE
  8
0
 10
-2.81395
 20
394.49
 11
-3.4369
 21
394.411
  0
LINE
  8
0
 10
-3.4369
 20
394.411
 11
-4.04507
 21
394.255
  0
LINE
  8
0
 10
-4.04507
 20
394.255
 11
-4.62889
 21
394.024
  0
LINE
  8
0
 10
-4.62889
 20
394.024
 11
-5.17912
 21
393.722
  0
LINE
  8
0
 10
-5.17912
 20
393.722
 11
-5.68712
 21
393.353
  0
LINE
  8
0
 10
-5.68712
 20
393.353
 11
-6.14484
 21
392.923
  0
LINE
  8
0
 10
-6.14484
 20
392.923
 11
-6.54507
 21
392.439
  0
LINE
  8
0
 10
-6.54507
 20
392.439
 11
-6.88153
 21
391.909
  0
LINE
  8
0
 10
-6.88153
 20
391.909
 11
-7.14888
 21
391.341
  0
LINE
  8
0
 10
-7.14888
 20
391.341
 11
-7.34291
 21
390.743
  0
LINE
  8
0
 10
-7.34291
 20
390.743
 11
-7.46057
 21
390.127
  0
LINE
  8
0
 10
-7.46057
 20
390.127
 11
-7.5
 21
389.5
  0
LINE
  8
0
 10
-7.5
 20
389.5
 11
-7.5
 21
294.5
  0
LINE
  8
0
 10
-7.5
 20
294.5
 11
-7.46057
 21
293.873
  0
LINE
  8
0
 10
-7.46057
 20
293.873
 11
-7.34291
 21
293.257
  0
LINE
  8
0
 10
-7.34291
 20
293.257
 11
-7.14888
 21
292.659
  0
LINE
  8
0
 10
-7.14888
 20
292.659
 11
-6.88153
 21
292.091
  0
LINE
  8
0
 10
-6.88153
 20
292.091
 11
-6.54507
 21
291.561
  0
LINE
  8
0
 10
-6.54507
 20
291.561
 11
-6.14484
 21
291.077
  0
LINE
  8
0
 10
-6.14484
 20
291.077
 11
-5.68712
 21
290.647
  0
LINE
  8
0
 10
-5.68712
 20
290.647
 11
-5.17912
 21
290.278
  0
LINE
  8
0
 10
-5.17912
 20
290.278
 11
-4.62889
 21
289.976
  0
LINE
  8
0
 10
-4.62889
 20
289.976
 11
-4.04507
 21
289.745
  0
LINE
  8
0
 10
-4.04507
 20
289.745
 11
-3.4369
 21
289.589
  0
LINE
  8
0
 10
-3.4369
 20
289.589
 11
-2.81395
 21
289.51
  0
LINE
  8
0
 10
-2.81395
 20
289.51
 11
2.81395
 21
289.51
  0
LINE
  8
0
 10
2.81395
 20
289.51
 11
3.4369
 21
289.589
  0
LINE
  8
0
 10
-2.19545
 20
291.893
 11
-2.5833
 21
291.942
  0
LINE
  8
0
 10
-2.5833
 20
291.942
 11
-2.96194
 21
292.039
  0
LINE
  8
0
 10
-2.96194
 20
292.039
 11
-3.32541
 21
292.183
  0
LINE
  8
0
 10
-3.32541
 20
292.183
 11
-3.66798
 21
292.372
  0
LINE
  8
0
 10
-3.66798
 20
292.372
 11
-3.98424
 21
292.601
  0
LINE
  8
0
 10
-3.98424
 20
292.601
 11
-4.26921
 21
292.869
  0
LINE
  8
0
 10
-4.26921
 20
292.869
 11
-4.5184
 21
293.17
  0
LINE
  8
0
 10
-4.5184
 20
293.17
 11
-4.72786
 21
293.5
  0
LINE
  8
0
 10
-4.72786
 20
293.5
 11
-4.89432
 21
293.854
  0
LINE
  8
0
 10
-4.89432
 20
293.854
 11
-5.01512
 21
294.226
  0
LINE
  8
0
 10
-5.01512
 20
294.226
 11
-5.08836
 21
294.61
  0
LINE
  8
0
 10
-5.08836
 20
294.61
 11
-5.11292
 21
295
  0
LINE
  8
0
 10
-5.11292
 20
295
 11
-5.11292
 21
389
  0
LINE
  8
0
 10
-5.11292
 20
389
 11
-5.08836
 21
389.39
  0
LINE
  8
0
 10
-5.08836
 20
389.39
 11
-5.01512
 21
389.774
  0
LINE
  8
0
 10
-5.01512
 20
389.774
 11
-4.89432
 21
390.146
  0
LINE
  8
0
 10
-4.89432
 20
390.146
 11
-4.72786
 21
390.5
  0
LINE
  8
0
 10
-4.72786
 20
390.5
 11
-4.5184
 21
390.83
  0
LINE
  8
0
 10
-4.5184
 20
390.83
 11
-4.26921
 21
391.131
  0
LINE
  8
0
 10
-4.26921
 20
391.131
 11
-3.98424
 21
391.399
  0
LINE
  8
0
 10
-3.98424
 20
391.399
 11
-3.66798
 21
391.628
  0
LINE
  8
0
 10
-3.66798
 20
391.628
 11
-3.32541
 21
391.817
  0
LINE
  8
0
 10
-3.32541
 20
391.817
 11
-2.96194
 21
391.961
  0
LINE
  8
0
 10
-2.96194
 20
391.961
 11
-2.5833
 21
392.058
  0
LINE
  8
0
 10
-2.5833
 20
392.058
 11
-2.19545
 21
392.107
  0
LINE
  8
0
 10
-2.19545
 20
392.107
 11
2.19545
 21
392.107
  0
LINE
  8
0
 10
2.19545
 20
392.107
 11
2.5833
 21
392.058
  0
LINE
  8
0
 10
2.5833
 20
392.058
 11
2.96194
 21
391.961
  0
LINE
  8
0
 10
2.96194
 20
391.961
 11
3.32541
 21
391.817
  0
LINE
  8
0
 10
3.32541
 20
391.817
 11
3.66798
 21
391.628
  0
LINE
  8
0
 10
3.66798
 20
391.628
 11
3.98424
 21
391.399
  0
LINE
  8
0
 10
3.98424
 20
391.399
 11
4.26921
 21
391.131
  0
LINE
  8
0
 10
4.26921
 20
391.131
 11
4.5184
 21
390.83
  0
LINE
  8
0
 10
4.5184
 20
390.83
 11
4.72786
 21
390.5
  0
LINE
  8
0
 10
4.72786
 20
390.5
 11
4.89432
 21
390.146
  0
LINE
  8
0
 10
4.89432
 20
390.146
 11
5.01512
 21
389.774
  0
LINE
  8
0
 10
5.01512
 20
389.774
 11
5.08836
 21
389.39
  0
LINE
  8
0
 10
5.08836
 20
389.39
 11
5.11292
 21
389
  0
LINE
  8
0
 10
5.11292
 20
389
 11
5.11292
 21
295
  0
LINE
  8
0
 10
5.11292
 20
295
 11
5.08836
 21
294.61
  0
LINE
  8
0
 10
5.08836
 20
294.61
 11
5.01512
 21
294.226
  0
LINE
  8
0
 10
5.01512
 20
294.226
 11
4.89432
 21
293.854
  0
LINE
  8
0
 10
4.89432
 20
293.854
 11
4.72786
 21
293.5
  0
LINE
  8
0
 10
4.72786
 20
293.5
 11
4.5184
 21
293.17
  0
LINE
  8
0
 10
4.5184
 20
293.17
 11
4.26921
 21
292.869
  0
LINE
  8
0
 10
4.26921
 20
292.869
 11
3.98424
 21
292.601
  0
LINE
  8
0
 10
3.98424
 20
292.601
 11
3.66798
 21
292.372
  0
LINE
  8
0
 10
3.66798
 20
292.372
 11
3.32541
 21
292.183
  0
LINE
  8
0
 10
3.32541
 20
292.183
 11
2.96194
 21
292.039
  0
LINE
  8
0
 10
2.96194
 20
292.039
 11
2.5833
 21
291.942
  0
LINE
  8
0
 10
2.5833
 20
291.942
 11
2.19545
 21
291.893
  0
LINE
  8
0
 10
2.19545
 20
291.893
 11
-2.19545
 21
291.893
  0
LINE
  8
0
 10
3.4369
 20
175.589
 11
4.04507
 21
175.745
  0
LINE
  8
0
 10
4.04507
 20
175.745
 11
4.62889
 21
175.976
  0
LINE
  8
0
 10
4.62889
 20
175.976
 11
5.17912
 21
176.278
  0
LINE
  8
0
 10
5.17912
 20
176.278
 11
5.68712
 21
176.647
  0
LINE
  8
0
 10
5.68712
 20
176.647
 11
6.14484
 21
177.077
  0
LINE
  8
0
 10
6.14484
 20
177.077
 11
6.54507
 21
177.561
  0
LINE
  8
0
 10
6.54507
 20
177.561
 11
6.88153
 21
178.091
  0
LINE
  8
0
 10
6.88153
 20
178.091
 11
7.14888
 21
178.659
  0
LINE
  8
0
 10
7.14888
 20
178.659
 11
7.34291
 21
179.257
  0
LINE
  8
0
 10
7.34291
 20
179.257
 11
7.46057
 21
179.873
  0
LINE
  8
0
 10
7.46057
 20
179.873
 11
7.5
 21
180.5
  0
LINE
  8
0
 10
7.5
 20
180.5
 11
7.5
 21
275.5
  0
LINE
  8
0
 10
7.5
 20
275.5
 11
7.46057
 21
276.127
  0
LINE
  8
0
 10
7.46057
 20
276.127
 11
7.34291
 21
276.743
  0
LINE
  8
0
 10
7.34291
 20
276.743
 11
7.14888
 21
277.341
  0
LINE
  8
0
 10
7.14888
 20
277.341
 11
6.88153
 21
277.909
  0
LINE
  8
0
 10
6.88153
 20
277.909
 11
6.54507
 21
278.439
  0
LINE
  8
0
 10
6.54507
 20
278.439
 11
6.14484
 21
278.923
  0
LINE
  8
0
 10
6.14484
 20
278.923
 11
5.68712
 21
279.353
  0
LINE
  8
0
 10
5.68712
 20
279.353
 11
5.17912
 21
279.722
  0
LINE
  8
0
 10
5.17912
 20
279.722
 11
4.62889
 21
280.024
  0
LINE
  8
0
 10
4.62889
 20
280.024
 11
4.04507
 21
280.255
  0
LINE
  8
0
 10
4.04507
 20
280.255
 11
3.4369
 21
280.411
  0
LINE
  8
0
 10
3.4369
 20
280.411
 11
2.81395
 21
280.49
  0
LINE
  8
0
 10
2.81395
 20
280.49
 11
-2.81395
 21
280.49
  0
LINE
  8
0
 10
-2.81395
 20
280.49
 11
-3.4369
 21
280.411
  0
LINE
  8
0
 10
-3.4369
 20
280.411
 11
-4.04507
 21
280.255
  0
LINE
  8
0
 10
-4.04507
 20
280.255
 11
-4.62889
 21
280.024
  0
LINE
  8
0
 10
-4.62889
 20
280.024
 11
-5.17912
 21
279.722
  0
LINE
  8
0
 10
-5.17912
 20
279.722
 11
-5.68712
 21
279.353
  0
LINE
  8
0
 10
-5.68712
 20
279.353
 11
-6.14484
 21
278.923
  0
LINE
  8
0
 10
-6.14484
 20
278.923
 11
-6.54507
 21
278.439
  0
LINE
  8
0
 10
-6.54507
 20
278.439
 11
-6.88153
 21
277.909
  0
LINE
  8
0
 10
-6.88153
 20
277.909
 11
-7.14888
 21
277.341
  0
LINE
  8
0
 10
-7.14888
 20
277.341
 11
-7.34291
 21
276.743
  0
LINE
  8
0
 10
-7.34291
 20
276.743
 11
-7.46057
 21
276.127
  0
LINE
  8
0
 10
-7.46057
 20
276.127
 11
-7.5
 21
275.5
  0
LINE
  8
0
 10
-7.5
 20
275.5
 11
-7.5
 21
180.5
  0
LINE
  8
0
 10
-7.5
 20
180.5
 11
-7.46057
 21
179.873
  0
LINE
  8
0
 10
-7.46057
 20
179.873
 11
-7.34291
 21
179.257
  0
LINE
  8
0
 10
-7.34291
 20
179.257
 11
-7.14888
 21
178.659
  0
LINE
  8
0
 10
-7.14888
 20
178.659
 11
-6.88153
 21
178.091
  0
LINE
  8
0
 10
-6.88153
 20
178.091
 11
-6.54507
 21
177.561
  0
LINE
  8
0
 10
-6.54507
 20
177.561
 11
-6.14484
 21
177.077
  0
LINE
  8
0
 10
-6.14484
 20
177.077
 11
-5.68712
 21
176.647
  0
LINE
  8
0
 10
-5.68712
 20
176.647
 11
-5.17912
 21
176.278
  0
LINE
  8
0
 10
-5.17912
 20
176.278
 11
-4.62889
 21
175.976
  0
LINE
  8
0
 10
-4.62889
 20
175.976
 11
-4.04507
 21
175.745
  0
LINE
  8
0
 10
-4.04507
 20
175.745
 11
-3.4369
 21
175.589
  0
LINE
  8
0
 10
-3.4369
 20
175.589
 11
-2.81395
 21
175.51
  0
LINE
  8
0
 10
-2.81395
 20
175.51
 11
2.81395
 21
175.51
  0
LINE
  8
0
 10
2.81395
 20
175.51
 11
3.4369
 21
175.589
  0
LINE
  8
0
 10
-0.134064
 20
270.869
 11
-0.400101
 21
270.903
  0
LINE
  8
0
 10
-0.400101
 20
270.903
 11
-0.659836
 21
270.969
  0
LINE
  8
0
 10
-0.659836
 20
270.969
 11
-0.909149
 21
271.068
  0
LINE
  8
0
 10
-0.909149
 20
271.068
 11
-1.14413
 21
271.197
  0
LINE
  8
0
 10
-1.14413
 20
271.197
 11
-1.36108
 21
271.355
  0
LINE
  8
0
 10
-1.36108
 20
271.355
 11
-1.55655
 21
271.538
  0
LINE
  8
0
 10
-1.55655
 20
271.538
 11
-1.72748
 21
271.745
  0
LINE
  8
0
 10
-1.72748
 20
271.745
 11
-1.87117
 21
271.971
  0
LINE
  8
0
 10
-1.87117
 20
271.971
 11
-1.98534
 21
272.214
  0
LINE
  8
0
 10
-1.98534
 20
272.214
 11
-2.06821
 21
272.469
  0
LINE
  8
0
 10
-2.06821
 20
272.469
 11
-2.11845
 21
272.732
  0
LINE
  8
0
 10
-2.11845
 20
272.732
 11
-2.13528
 21
273
  0
LINE
  8
0
 10
-2.13528
 20
273
 11
-2.11845
 21
273.268
  0
LINE
  8
0
 10
-2.11845
 20
273.268
 11
-2.06821
 21
273.531
  0
LINE
  8
0
 10
-2.06821
 20
273.531
 11
-1.98534
 21
273.786
  0
LINE
  8
0
 10
-1.98534
 20
273.786
 11
-1.87117
 21
274.029
  0
LINE
  8
0
 10
-1.87117
 20
274.029
 11
-1.72748
 21
274.255
  0
LINE
  8
0
 10
-1.72748
 20
274.255
 11
-1.55655
 21
274.462
  0
LINE
  8
0
 10
-1.55655
 20
274.462
 11
-1.36108
 21
274.645
  0
LINE
  8
0
 10
-1.36108
 20
274.645
 11
-1.14413
 21
274.803
  0
LINE
  8
0
 10
-1.14413
 20
274.803
 11
-0.909149
 21
274.932
  0
LINE
  8
0
 10
-0.909149
 20
274.932
 11
-0.659836
 21
275.031
  0
LINE
  8
0
 10
-0.659836
 20
275.031
 11
-0.400101
 21
275.097
  0
LINE
  8
0
 10
-0.400101
 20
275.097
 11
-0.134064
 21
275.131
  0
LINE
  8
0
 10
-0.134064
 20
275.131
 11
0.134064
 21
275.131
  0
LINE
  8
0
 10
0.134064
 20
275.131
 11
0.400101
 21
275.097
  0
LINE
  8
0
 10
0.400101
 20
275.097
 11
0.659836
 21
275.031
  0
LINE
  8
0
 10
0.659836
 20
275.031
 11
0.909149
 21
274.932
  0
LINE
  8
0
 10
0.909149
 20
274.932
 11
1.14413
 21
274.803
  0
LINE
  8
0
 10
1.14413
 20
274.803
 11
1.36108
 21
274.645
  0
LINE
  8
0
 10
1.36108
 20
274.645
 11
1.55655
 21
274.462
  0
LINE
  8
0
 10
1.55655
 20
274.462
 11
1.72748
 21
274.255
  0
LINE
  8
0
 10
1.72748
 20
274.255
 11
1.87117
 21
274.029
  0
LINE
  8
0
 10
1.87117
 20
274.029
 11
1.98534
 21
273.786
  0
LINE
  8
0
 10
1.98534
 20
273.786
 11
2.06821
 21
273.531
  0
LINE
  8
0
 10
2.06821
 20
273.531
 11
2.11845
 21
273.268
  0
LINE
  8
0
 10
2.11845
 20
273.268
 11
2.13528
 21
273
  0
LINE
  8
0
 10
2.13528
 20
273
 11
2.11845
 21
272.732
  0
LINE
  8
0
 10
2.11845
 20
272.732
 11
2.06821
 21
272.469
  0
LINE
  8
0
 10
2.06821
 20
272.469
 11
1.98534
 21
272.214
  0
LINE
  8
0
 10
1.98534
 20
272.214
 11
1.87117
 21
271.971
  0
LINE
  8
0
 10
1.87117
 20
271.971
 11
1.72748
 21
271.745
  0
LINE
  8
0
 10
1.72748
 20
271.745
 11
1.55655
 21
271.538
  0
LINE
  8
0
 10
1.55655
 20
271.538
 11
1.36108
 21
271.355
  0
LINE
  8
0
 10
1.36108
 20
271.355
 11
1.14413
 21
271.197
  0
LINE
  8
0
 10
1.14413
 20
271.197
 11
0.909149
 21
271.068
  0
LINE
  8
0
 10
0.909149
 20
271.068
 11
0.659836
 21
270.969
  0
LINE
  8
0
 10
0.659836
 20
270.969
 11
0.400101
 21
270.903
  0
LINE
  8
0
 10
0.400101
 20
270.903
 11
0.134064
 21
270.869
  0
LINE
  8
0
 10
0.134064
 20
270.869
 11
-0.134064
 21
270.869
  0
LINE
  8
0
 10
-0.134064
 20
180.869
 11
-0.400101
 21
180.903
  0
LINE
  8
0
 10
-0.400101
 20
180.903
 11
-0.659836
 21
180.969
  0
LINE
  8
0
 10
-0.659836
 20
180.969
 11
-0.909149
 21
181.068
  0
LINE
  8
0
 10
-0.909149
 20
181.068
 11
-1.14413
 21
181.197
  0
LINE
  8
0
 10
-1.14413
 20
181.197
 11
-1.36108
 21
181.355
  0
LINE
  8
0
 10
-1.36108
 20
181.355
 11
-1.55655
 21
181.538
  0
LINE
  8
0
 10
-1.55655
 20
181.538
 11
-1.72748
 21
181.745
  0
LINE
  8
0
 10
-1.72748
 20
181.745
 11
-1.87117
 21
181.971
  0
LINE
  8
0
 10
-1.87117
 20
181.971
 11
-1.98534
 21
182.214
  0
LINE
  8
0
 10
-1.98534
 20
182.214
 11
-2.06821
 21
182.469
  0
LINE
  8
0
 10
-2.06821
 20
182.469
 11
-2.11845
 21
182.732
  0
LINE
  8
0
 10
-2.11845
 20
182.732
 11
-2.13528
 21
183
  0
LINE
  8
0
 10
-2.13528
 20
183
 11
-2.11845
 21
183.268
  0
LINE
  8
0
 10
-2.11845
 20
183.268
 11
-2.06821
 21
183.531
  0
LINE
  8
0
 10
-2.06821
 20
183.531
 11
-1.98534
 21
183.786
  0
LINE
  8
0
 10
-1.98534
 20
183.786
 11
-1.87117
 21
184.029
  0
LINE
  8
0
 10
-1.87117
 20
184.029
 11
-1.72748
 21
184.255
  0
LINE
  8
0
 10
-1.72748
 20
184.255
 11
-1.55655
 21
184.462
  0
LINE
  8
0
 10
-1.55655
 20
184.462
 11
-1.36108
 21
184.645
  0
LINE
  8
0
 10
-1.36108
 20
184.645
 11
-1.14413
 21
184.803
  0
LINE
  8
0
 10
-1.14413
 20
184.803
 11
-0.909149
 21
184.932
  0
LINE
  8
0
 10
-0.909149
 20
184.932
 11
-0.659836
 21
185.031
  0
LINE
  8
0
 10
-0.659836
 20
185.031
 11
-0.400101
 21
185.097
  0
LINE
  8
0
 10
-0.400101
 20
185.097
 11
-0.134064
 21
185.131
  0
LINE
  8
0
 10
-0.134064
 20
185.131
 11
0.134064
 21
185.131
  0
LINE
  8
0
 10
0.134064
 20
185.131
 11
0.400101
 21
185.097
  0
LINE
  8
0
 10
0.400101
 20
185.097
 11
0.659836
 21
185.031
  0
LINE
  8
0
 10
0.659836
 20
185.031
 11
0.909149
 21
184.932
  0
LINE
  8
0
 10
0.909149
 20
184.932
 11
1.14413
 21
184.803
  0
LINE
  8
0
 10
1.14413
 20
184.803
 11
1.36108
 21
184.645
  0
LINE
  8
0
 10
1.36108
 20
184.645
 11
1.55655
 21
184.462
  0
LINE
  8
0
 10
1.55655
 20
184.462
 11
1.72748
 21
184.255
  0
LINE
  8
0
 10
1.72748
 20
184.255
 11
1.87117
 21
184.029
  0
LINE
  8
0
 10
1.87117
 20
184.029
 11
1.98534
 21
183.786
  0
LINE
  8
0
 10
1.98534
 20
183.786
 11
2.06821
 21
183.531
  0
LINE
  8
0
 10
2.06821
 20
183.531
 11
2.11845
 21
183.268
  0
LINE
  8
0
 10
2.11845
 20
183.268
 11
2.13528
 21
183
  0
LINE
  8
0
 10
2.13528
 20
183
 11
2.11845
 21
182.732
  0
LINE
  8
0
 10
2.11845
 20
182.732
 11
2.06821
 21
182.469
  0
LINE
  8
0
 10
2.06821
 20
182.469
 11
1.98534
 21
182.214
  0
LINE
  8
0
 10
1.98534
 20
182.214
 11
1.87117
 21
181.971
  0
LINE
  8
0
 10
1.87117
 20
181.971
 11
1.72748
 21
181.745
  0
LINE
  8
0
 10
1.72748
 20
181.745
 11
1.55655
 21
181.538
  0
LINE
  8
0
 10
1.55655
 20
181.538
 11
1.36108
 21
181.355
  0
LINE
  8
0
 10
1.36108
 20
181.355
 11
1.14413
 21
181.197
  0
LINE
  8
0
 10
1.14413
 20
181.197
 11
0.909149
 21
181.068
  0
LINE
  8
0
 10
0.909149
 20
181.068
 11
0.659836
 21
180.969
  0
LINE
  8
0
 10
0.659836
 20
180.969
 11
0.400101
 21
180.903
  0
LINE
  8
0
 10
0.400101
 20
180.903
 11
0.134064
 21
180.869
  0
LINE
  8
0
 10
0.134064
 20
180.869
 11
-0.134064
 21
180.869
  0
ENDSEC
  0
SECTION
  2
OBJECTS
  0
DICTIONARY
  0
ENDSEC
  0
EOF
