  0
SECTION
  2
BLOCKS
  0
ENDSEC
  0
SECTION
  2
ENTITIES
  0
LINE
  8
0
 10
18.4369
 20
289.589
 11
19.0451
 21
289.745
  0
LINE
  8
0
 10
19.0451
 20
289.745
 11
19.6289
 21
289.976
  0
LINE
  8
0
 10
19.6289
 20
289.976
 11
20.1791
 21
290.278
  0
LINE
  8
0
 10
20.1791
 20
290.278
 11
20.6871
 21
290.647
  0
LINE
  8
0
 10
20.6871
 20
290.647
 11
21.1448
 21
291.077
  0
LINE
  8
0
 10
21.1448
 20
291.077
 11
21.5451
 21
291.561
  0
LINE
  8
0
 10
21.5451
 20
291.561
 11
21.8815
 21
292.091
  0
LINE
  8
0
 10
21.8815
 20
292.091
 11
22.1489
 21
292.659
  0
LINE
  8
0
 10
22.1489
 20
292.659
 11
22.3429
 21
293.257
  0
LINE
  8
0
 10
22.3429
 20
293.257
 11
22.4606
 21
293.873
  0
LINE
  8
0
 10
22.4606
 20
293.873
 11
22.5
 21
294.5
  0
LINE
  8
0
 10
22.5
 20
294.5
 11
22.5
 21
389.5
  0
LINE
  8
0
 10
22.5
 20
389.5
 11
22.4606
 21
390.127
  0
LINE
  8
0
 10
22.4606
 20
390.127
 11
22.3429
 21
390.743
  0
LINE
  8
0
 10
22.3429
 20
390.743
 11
22.1489
 21
391.341
  0
LINE
  8
0
 10
22.1489
 20
391.341
 11
21.8815
 21
391.909
  0
LINE
  8
0
 10
21.8815
 20
391.909
 11
21.5451
 21
392.439
  0
LINE
  8
0
 10
21.5451
 20
392.439
 11
21.1448
 21
392.923
  0
LINE
  8
0
 10
21.1448
 20
392.923
 11
20.6871
 21
393.353
  0
LINE
  8
0
 10
20.6871
 20
393.353
 11
20.1791
 21
393.722
  0
LINE
  8
0
 10
20.1791
 20
393.722
 11
19.6289
 21
394.024
  0
LINE
  8
0
 10
19.6289
 20
394.024
 11
19.0451
 21
394.255
  0
LINE
  8
0
 10
19.0451
 20
394.255
 11
18.4369
 21
394.411
  0
LINE
  8
0
 10
18.4369
 20
394.411
 11
17.8139
 21
394.49
  0
LINE
  8
0
 10
17.8139
 20
394.49
 11
-17.8139
 21
394.49
  0
LINE
  8
0
 10
-17.8139
 20
394.49
 11
-18.4369
 21
394.411
  0
LINE
  8
0
 10
-18.4369
 20
394.411
 11
-19.0451
 21
394.255
  0
LINE
  8
0
 10
-19.0451
 20
394.255
 11
-19.6289
 21
394.024
  0
LINE
  8
0
 10
-19.6289
 20
394.024
 11
-20.1791
 21
393.722
  0
LINE
  8
0
 10
-20.1791
 20
393.722
 11
-20.6871
 21
393.353
  0
LINE
  8
0
 10
-20.6871
 20
393.353
 11
-21.1448
 21
392.923
  0
LINE
  8
0
 10
-21.1448
 20
392.923
 11
-21.5451
 21
392.439
  0
LINE
  8
0
 10
-21.5451
 20
392.439
 11
-21.8815
 21
391.909
  0
LINE
  8
0
 10
-21.8815
 20
391.909
 11
-22.1489
 21
391.341
  0
LINE
  8
0
 10
-22.1489
 20
391.341
 11
-22.3429
 21
390.743
  0
LINE
  8
0
 10
-22.3429
 20
390.743
 11
-22.4606
 21
390.127
  0
LINE
  8
0
 10
-22.4606
 20
390.127
 11
-22.5
 21
389.5
  0
LINE
  8
0
 10
-22.5
 20
389.5
 11
-22.5
 21
294.5
  0
LINE
  8
0
 10
-22.5
 20
294.5
 11
-22.4606
 21
293.873
  0
LINE
  8
0
 10
-22.4606
 20
293.873
 11
-22.3429
 21
293.257
  0
LINE
  8
0
 10
-22.3429
 20
293.257
 11
-22.1489
 21
292.659
  0
LINE
  8
0
 10
-22.1489
 20
292.659
 11
-21.8815
 21
292.091
  0
LINE
  8
0
 10
-21.8815
 20
292.091
 11
-21.5451
 21
291.561
  0
LINE
  8
0
 10
-21.5451
 20
291.561
 11
-21.1448
 21
291.077
  0
LINE
  8
0
 10
-21.1448
 20
291.077
 11
-20.6871
 21
290.647
  0
LINE
  8
0
 10
-20.6871
 20
290.647
 11
-20.1791
 21
290.278
  0
LINE
  8
0
 10
-20.1791
 20
290.278
 11
-19.6289
 21
289.976
  0
LINE
  8
0
 10
-19.6289
 20
289.976
 11
-19.0451
 21
289.745
  0
LINE
  8
0
 10
-19.0451
 20
289.745
 11
-18.4369
 21
289.589
  0
LINE
  8
0
 10
-18.4369
 20
289.589
 11
-17.8139
 21
289.51
  0
LINE
  8
0
 10
-17.8139
 20
289.51
 11
17.8139
 21
289.51
  0
LINE
  8
0
 10
17.8139
 20
289.51
 11
18.4369
 21
289.589
  0
LINE
  8
0
 10
-17.1954
 20
291.893
 11
-17.5833
 21
291.942
  0
LINE
  8
0
 10
-17.5833
 20
291.942
 11
-17.9619
 21
292.039
  0
LINE
  8
0
 10
-17.9619
 20
292.039
 11
-18.3254
 21
292.183
  0
LINE
  8
0
 10
-18.3254
 20
292.183
 11
-18.668
 21
292.372
  0
LINE
  8
0
 10
-18.668
 20
292.372
 11
-18.9842
 21
292.601
  0
LINE
  8
0
 10
-18.9842
 20
292.601
 11
-19.2692
 21
292.869
  0
LINE
  8
0
 10
-19.2692
 20
292.869
 11
-19.5184
 21
293.17
  0
LINE
  8
0
 10
-19.5184
 20
293.17
 11
-19.7279
 21
293.5
  0
LINE
  8
0
 10
-19.7279
 20
293.5
 11
-19.8943
 21
293.854
  0
LINE
  8
0
 10
-19.8943
 20
293.854
 11
-20.0151
 21
294.226
  0
LINE
  8
0
 10
-20.0151
 20
294.226
 11
-20.0884
 21
294.61
  0
LINE
  8
0
 10
-20.0884
 20
294.61
 11
-20.1129
 21
295
  0
LINE
  8
0
 10
-20.1129
 20
295
 11
-20.1129
 21
389
  0
LINE
  8
0
 10
-20.1129
 20
389
 11
-20.0884
 21
389.39
  0
LINE
  8
0
 10
-20.0884
 20
389.39
 11
-20.0151
 21
389.774
  0
LINE
  8
0
 10
-20.0151
 20
389.774
 11
-19.8943
 21
390.146
  0
LINE
  8
0
 10
-19.8943
 20
390.146
 11
-19.7279
 21
390.5
  0
LINE
  8
0
 10
-19.7279
 20
390.5
 11
-19.5184
 21
390.83
  0
LINE
  8
0
 10
-19.5184
 20
390.83
 11
-19.2692
 21
391.131
  0
LINE
  8
0
 10
-19.2692
 20
391.131
 11
-18.9842
 21
391.399
  0
LINE
  8
0
 10
-18.9842
 20
391.399
 11
-18.668
 21
391.628
  0
LINE
  8
0
 10
-18.668
 20
391.628
 11
-18.3254
 21
391.817
  0
LINE
  8
0
 10
-18.3254
 20
391.817
 11
-17.9619
 21
391.961
  0
LINE
  8
0
 10
-17.9619
 20
391.961
 11
-17.5833
 21
392.058
  0
LINE
  8
0
 10
-17.5833
 20
392.058
 11
-17.1954
 21
392.107
  0
LINE
  8
0
 10
-17.1954
 20
392.107
 11
17.1954
 21
392.107
  0
LINE
  8
0
 10
17.1954
 20
392.107
 11
17.5833
 21
392.058
  0
LINE
  8
0
 10
17.5833
 20
392.058
 11
17.9619
 21
391.961
  0
LINE
  8
0
 10
17.9619
 20
391.961
 11
18.3254
 21
391.817
  0
LINE
  8
0
 10
18.3254
 20
391.817
 11
18.668
 21
391.628
  0
LINE
  8
0
 10
18.668
 20
391.628
 11
18.9842
 21
391.399
  0
LINE
  8
0
 10
18.9842
 20
391.399
 11
19.2692
 21
391.131
  0
LINE
  8
0
 10
19.2692
 20
391.131
 11
19.5184
 21
390.83
  0
LINE
  8
0
 10
19.5184
 20
390.83
 11
19.7279
 21
390.5
  0
LINE
  8
0
 10
19.7279
 20
390.5
 11
19.8943
 21
390.146
  0
LINE
  8
0
 10
19.8943
 20
390.146
 11
20.0151
 21
389.774
  0
LINE
  8
0
 10
20.0151
 20
389.774
 11
20.0884
 21
389.39
  0
LINE
  8
0
 10
20.0884
 20
389.39
 11
20.1129
 21
389
  0
LINE
  8
0
 10
20.1129
 20
389
 11
20.1129
 21
295
  0
LINE
  8
0
 10
20.1129
 20
295
 11
20.0884
 21
294.61
  0
LINE
  8
0
 10
20.0884
 20
294.61
 11
20.0151
 21
294.226
  0
LINE
  8
0
 10
20.0151
 20
294.226
 11
19.8943
 21
293.854
  0
LINE
  8
0
 10
19.8943
 20
293.854
 11
19.7279
 21
293.5
  0
LINE
  8
0
 10
19.7279
 20
293.5
 11
19.5184
 21
293.17
  0
LINE
  8
0
 10
19.5184
 20
293.17
 11
19.2692
 21
292.869
  0
LINE
  8
0
 10
19.2692
 20
292.869
 11
18.9842
 21
292.601
  0
LINE
  8
0
 10
18.9842
 20
292.601
 11
18.668
 21
292.372
  0
LINE
  8
0
 10
18.668
 20
292.372
 11
18.3254
 21
292.183
  0
LINE
  8
0
 10
18.3254
 20
292.183
 11
17.9619
 21
292.039
  0
LINE
  8
0
 10
17.9619
 20
292.039
 11
17.5833
 21
291.942
  0
LINE
  8
0
 10
17.5833
 20
291.942
 11
17.1954
 21
291.893
  0
LINE
  8
0
 10
17.1954
 20
291.893
 11
-17.1954
 21
291.893
  0
LINE
  8
0
 10
18.4369
 20
175.589
 11
19.0451
 21
175.745
  0
LINE
  8
0
 10
19.0451
 20
175.745
 11
19.6289
 21
175.976
  0
LINE
  8
0
 10
19.6289
 20
175.976
 11
20.1791
 21
176.278
  0
LINE
  8
0
 10
20.1791
 20
176.278
 11
20.6871
 21
176.647
  0
LINE
  8
0
 10
20.6871
 20
176.647
 11
21.1448
 21
177.077
  0
LINE
  8
0
 10
21.1448
 20
177.077
 11
21.5451
 21
177.561
  0
LINE
  8
0
 10
21.5451
 20
177.561
 11
21.8815
 21
178.091
  0
LINE
  8
0
 10
21.8815
 20
178.091
 11
22.1489
 21
178.659
  0
LINE
  8
0
 10
22.1489
 20
178.659
 11
22.3429
 21
179.257
  0
LINE
  8
0
 10
22.3429
 20
179.257
 11
22.4606
 21
179.873
  0
LINE
  8
0
 10
22.4606
 20
179.873
 11
22.5
 21
180.5
  0
LINE
  8
0
 10
22.5
 20
180.5
 11
22.5
 21
275.5
  0
LINE
  8
0
 10
22.5
 20
275.5
 11
22.4606
 21
276.127
  0
LINE
  8
0
 10
22.4606
 20
276.127
 11
22.3429
 21
276.743
  0
LINE
  8
0
 10
22.3429
 20
276.743
 11
22.1489
 21
277.341
  0
LINE
  8
0
 10
22.1489
 20
277.341
 11
21.8815
 21
277.909
  0
LINE
  8
0
 10
21.8815
 20
277.909
 11
21.5451
 21
278.439
  0
LINE
  8
0
 10
21.5451
 20
278.439
 11
21.1448
 21
278.923
  0
LINE
  8
0
 10
21.1448
 20
278.923
 11
20.6871
 21
279.353
  0
LINE
  8
0
 10
20.6871
 20
279.353
 11
20.1791
 21
279.722
  0
LINE
  8
0
 10
20.1791
 20
279.722
 11
19.6289
 21
280.024
  0
LINE
  8
0
 10
19.6289
 20
280.024
 11
19.0451
 21
280.255
  0
LINE
  8
0
 10
19.0451
 20
280.255
 11
18.4369
 21
280.411
  0
LINE
  8
0
 10
18.4369
 20
280.411
 11
17.8139
 21
280.49
  0
LINE
  8
0
 10
17.8139
 20
280.49
 11
-17.8139
 21
280.49
  0
LINE
  8
0
 10
-17.8139
 20
280.49
 11
-18.4369
 21
280.411
  0
LINE
  8
0
 10
-18.4369
 20
280.411
 11
-19.0451
 21
280.255
  0
LINE
  8
0
 10
-19.0451
 20
280.255
 11
-19.6289
 21
280.024
  0
LINE
  8
0
 10
-19.6289
 20
280.024
 11
-20.1791
 21
279.722
  0
LINE
  8
0
 10
-20.1791
 20
279.722
 11
-20.6871
 21
279.353
  0
LINE
  8
0
 10
-20.6871
 20
279.353
 11
-21.1448
 21
278.923
  0
LINE
  8
0
 10
-21.1448
 20
278.923
 11
-21.5451
 21
278.439
  0
LINE
  8
0
 10
-21.5451
 20
278.439
 11
-21.8815
 21
277.909
  0
LINE
  8
0
 10
-21.8815
 20
277.909
 11
-22.1489
 21
277.341
  0
LINE
  8
0
 10
-22.1489
 20
277.341
 11
-22.3429
 21
276.743
  0
LINE
  8
0
 10
-22.3429
 20
276.743
 11
-22.4606
 21
276.127
  0
LINE
  8
0
 10
-22.4606
 20
276.127
 11
-22.5
 21
275.5
  0
LINE
  8
0
 10
-22.5
 20
275.5
 11
-22.5
 21
180.5
  0
LINE
  8
0
 10
-22.5
 20
180.5
 11
-22.4606
 21
179.873
  0
LINE
  8
0
 10
-22.4606
 20
179.873
 11
-22.3429
 21
179.257
  0
LINE
  8
0
 10
-22.3429
 20
179.257
 11
-22.1489
 21
178.659
  0
LINE
  8
0
 10
-22.1489
 20
178.659
 11
-21.8815
 21
178.091
  0
LINE
  8
0
 10
-21.8815
 20
178.091
 11
-21.5451
 21
177.561
  0
LINE
  8
0
 10
-21.5451
 20
177.561
 11
-21.1448
 21
177.077
  0
LINE
  8
0
 10
-21.1448
 20
177.077
 11
-20.6871
 21
176.647
  0
LINE
  8
0
 10
-20.6871
 20
176.647
 11
-20.1791
 21
176.278
  0
LINE
  8
0
 10
-20.1791
 20
176.278
 11
-19.6289
 21
175.976
  0
LINE
  8
0
 10
-19.6289
 20
175.976
 11
-19.0451
 21
175.745
  0
LINE
  8
0
 10
-19.0451
 20
175.745
 11
-18.4369
 21
175.589
  0
LINE
  8
0
 10
-18.4369
 20
175.589
 11
-17.8139
 21
175.51
  0
LINE
  8
0
 10
-17.8139
 20
175.51
 11
17.8139
 21
175.51
  0
LINE
  8
0
 10
17.8139
 20
175.51
 11
18.4369
 21
175.589
  0
LINE
  8
0
 10
14.8659
 20
270.869
 11
14.5999
 21
270.903
  0
LINE
  8
0
 10
14.5999
 20
270.903
 11
14.3401
 21
270.969
  0
LINE
  8
0
 10
14.3401
 20
270.969
 11
14.0908
 21
271.068
  0
LINE
  8
0
 10
14.0908
 20
271.068
 11
13.8559
 21
271.197
  0
LINE
  8
0
 10
13.8559
 20
271.197
 11
13.6389
 21
271.355
  0
LINE
  8
0
 10
13.6389
 20
271.355
 11
13.4434
 21
271.538
  0
LINE
  8
0
 10
13.4434
 20
271.538
 11
13.2725
 21
271.745
  0
LINE
  8
0
 10
13.2725
 20
271.745
 11
13.1288
 21
271.971
  0
LINE
  8
0
 10
13.1288
 20
271.971
 11
13.0146
 21
272.214
  0
LINE
  8
0
 10
13.0146
 20
272.214
 11
12.9318
 21
272.469
  0
LINE
  8
0
 10
12.9318
 20
272.469
 11
12.8815
 21
272.732
  0
LINE
  8
0
 10
12.8815
 20
272.732
 11
12.8647
 21
273
  0
LINE
  8
0
 10
12.8647
 20
273
 11
12.8815
 21
273.268
  0
LINE
  8
0
 10
12.8815
 20
273.268
 11
12.9318
 21
273.531
  0
LINE
  8
0
 10
12.9318
 20
273.531
 11
13.0146
 21
273.786
  0
LINE
  8
0
 10
13.0146
 20
273.786
 11
13.1288
 21
274.029
  0
LINE
  8
0
 10
13.1288
 20
274.029
 11
13.2725
 21
274.255
  0
LINE
  8
0
 10
13.2725
 20
274.255
 11
13.4434
 21
274.462
  0
LINE
  8
0
 10
13.4434
 20
274.462
 11
13.6389
 21
274.645
  0
LINE
  8
0
 10
13.6389
 20
274.645
 11
13.8559
 21
274.803
  0
LINE
  8
0
 10
13.8559
 20
274.803
 11
14.0908
 21
274.932
  0
LINE
  8
0
 10
14.0908
 20
274.932
 11
14.3401
 21
275.031
  0
LINE
  8
0
 10
14.3401
 20
275.031
 11
14.5999
 21
275.097
  0
LINE
  8
0
 10
14.5999
 20
275.097
 11
14.8659
 21
275.131
  0
LINE
  8
0
 10
14.8659
 20
275.131
 11
15.1341
 21
275.131
  0
LINE
  8
0
 10
15.1341
 20
275.131
 11
15.4001
 21
275.097
  0
LINE
  8
0
 10
15.4001
 20
275.097
 11
15.6598
 21
275.031
  0
LINE
  8
0
 10
15.6598
 20
275.031
 11
15.9091
 21
274.932
  0
LINE
  8
0
 10
15.9091
 20
274.932
 11
16.1441
 21
274.803
  0
LINE
  8
0
 10
16.1441
 20
274.803
 11
16.3611
 21
274.645
  0
LINE
  8
0
 10
16.3611
 20
274.645
 11
16.5565
 21
274.462
  0
LINE
  8
0
 10
16.5565
 20
274.462
 11
16.7275
 21
274.255
  0
LINE
  8
0
 10
16.7275
 20
274.255
 11
16.8712
 21
274.029
  0
LINE
  8
0
 10
16.8712
 20
274.029
 11
16.9853
 21
273.786
  0
LINE
  8
0
 10
16.9853
 20
273.786
 11
17.0682
 21
273.531
  0
LINE
  8
0
 10
17.0682
 20
273.531
 11
17.1185
 21
273.268
  0
LINE
  8
0
 10
17.1185
 20
273.268
 11
17.1353
 21
273
  0
LINE
  8
0
 10
17.1353
 20
273
 11
17.1185
 21
272.732
  0
LINE
  8
0
 10
17.1185
 20
272.732
 11
17.0682
 21
272.469
  0
LINE
  8
0
 10
17.0682
 20
272.469
 11
16.9853
 21
272.214
  0
LINE
  8
0
 10
16.9853
 20
272.214
 11
16.8712
 21
271.971
  0
LINE
  8
0
 10
16.8712
 20
271.971
 11
16.7275
 21
271.745
  0
LINE
  8
0
 10
16.7275
 20
271.745
 11
16.5565
 21
271.538
  0
LINE
  8
0
 10
16.5565
 20
271.538
 11
16.3611
 21
271.355
  0
LINE
  8
0
 10
16.3611
 20
271.355
 11
16.1441
 21
271.197
  0
LINE
  8
0
 10
16.1441
 20
271.197
 11
15.9091
 21
271.068
  0
LINE
  8
0
 10
15.9091
 20
271.068
 11
15.6598
 21
270.969
  0
LINE
  8
0
 10
15.6598
 20
270.969
 11
15.4001
 21
270.903
  0
LINE
  8
0
 10
15.4001
 20
270.903
 11
15.1341
 21
270.869
  0
LINE
  8
0
 10
15.1341
 20
270.869
 11
14.8659
 21
270.869
  0
LINE
  8
0
 10
-15.1341
 20
270.869
 11
-15.4001
 21
270.903
  0
LINE
  8
0
 10
-15.4001
 20
270.903
 11
-15.6598
 21
270.969
  0
LINE
  8
0
 10
-15.6598
 20
270.969
 11
-15.9091
 21
271.068
  0
LINE
  8
0
 10
-15.9091
 20
271.068
 11
-16.1441
 21
271.197
  0
LINE
  8
0
 10
-16.1441
 20
271.197
 11
-16.3611
 21
271.355
  0
LINE
  8
0
 10
-16.3611
 20
271.355
 11
-16.5565
 21
271.538
  0
LINE
  8
0
 10
-16.5565
 20
271.538
 11
-16.7275
 21
271.745
  0
LINE
  8
0
 10
-16.7275
 20
271.745
 11
-16.8712
 21
271.971
  0
LINE
  8
0
 10
-16.8712
 20
271.971
 11
-16.9853
 21
272.214
  0
LINE
  8
0
 10
-16.9853
 20
272.214
 11
-17.0682
 21
272.469
  0
LINE
  8
0
 10
-17.0682
 20
272.469
 11
-17.1185
 21
272.732
  0
LINE
  8
0
 10
-17.1185
 20
272.732
 11
-17.1353
 21
273
  0
LINE
  8
0
 10
-17.1353
 20
273
 11
-17.1185
 21
273.268
  0
LINE
  8
0
 10
-17.1185
 20
273.268
 11
-17.0682
 21
273.531
  0
LINE
  8
0
 10
-17.0682
 20
273.531
 11
-16.9853
 21
273.786
  0
LINE
  8
0
 10
-16.9853
 20
273.786
 11
-16.8712
 21
274.029
  0
LINE
  8
0
 10
-16.8712
 20
274.029
 11
-16.7275
 21
274.255
  0
LINE
  8
0
 10
-16.7275
 20
274.255
 11
-16.5565
 21
274.462
  0
LINE
  8
0
 10
-16.5565
 20
274.462
 11
-16.3611
 21
274.645
  0
LINE
  8
0
 10
-16.3611
 20
274.645
 11
-16.1441
 21
274.803
  0
LINE
  8
0
 10
-16.1441
 20
274.803
 11
-15.9091
 21
274.932
  0
LINE
  8
0
 10
-15.9091
 20
274.932
 11
-15.6598
 21
275.031
  0
LINE
  8
0
 10
-15.6598
 20
275.031
 11
-15.4001
 21
275.097
  0
LINE
  8
0
 10
-15.4001
 20
275.097
 11
-15.1341
 21
275.131
  0
LINE
  8
0
 10
-15.1341
 20
275.131
 11
-14.8659
 21
275.131
  0
LINE
  8
0
 10
-14.8659
 20
275.131
 11
-14.5999
 21
275.097
  0
LINE
  8
0
 10
-14.5999
 20
275.097
 11
-14.3401
 21
275.031
  0
LINE
  8
0
 10
-14.3401
 20
275.031
 11
-14.0908
 21
274.932
  0
LINE
  8
0
 10
-14.0908
 20
274.932
 11
-13.8559
 21
274.803
  0
LINE
  8
0
 10
-13.8559
 20
274.803
 11
-13.6389
 21
274.645
  0
LINE
  8
0
 10
-13.6389
 20
274.645
 11
-13.4434
 21
274.462
  0
LINE
  8
0
 10
-13.4434
 20
274.462
 11
-13.2725
 21
274.255
  0
LINE
  8
0
 10
-13.2725
 20
274.255
 11
-13.1288
 21
274.029
  0
LINE
  8
0
 10
-13.1288
 20
274.029
 11
-13.0146
 21
273.786
  0
LINE
  8
0
 10
-13.0146
 20
273.786
 11
-12.9318
 21
273.531
  0
LINE
  8
0
 10
-12.9318
 20
273.531
 11
-12.8815
 21
273.268
  0
LINE
  8
0
 10
-12.8815
 20
273.268
 11
-12.8647
 21
273
  0
LINE
  8
0
 10
-12.8647
 20
273
 11
-12.8815
 21
272.732
  0
LINE
  8
0
 10
-12.8815
 20
272.732
 11
-12.9318
 21
272.469
  0
LINE
  8
0
 10
-12.9318
 20
272.469
 11
-13.0146
 21
272.214
  0
LINE
  8
0
 10
-13.0146
 20
272.214
 11
-13.1288
 21
271.971
  0
LINE
  8
0
 10
-13.1288
 20
271.971
 11
-13.2725
 21
271.745
  0
LINE
  8
0
 10
-13.2725
 20
271.745
 11
-13.4434
 21
271.538
  0
LINE
  8
0
 10
-13.4434
 20
271.538
 11
-13.6389
 21
271.355
  0
LINE
  8
0
 10
-13.6389
 20
271.355
 11
-13.8559
 21
271.197
  0
LINE
  8
0
 10
-13.8559
 20
271.197
 11
-14.0908
 21
271.068
  0
LINE
  8
0
 10
-14.0908
 20
271.068
 11
-14.3401
 21
270.969
  0
LINE
  8
0
 10
-14.3401
 20
270.969
 11
-14.5999
 21
270.903
  0
LINE
  8
0
 10
-14.5999
 20
270.903
 11
-14.8659
 21
270.869
  0
LINE
  8
0
 10
-14.8659
 20
270.869
 11
-15.1341
 21
270.869
  0
LINE
  8
0
 10
14.8659
 20
180.869
 11
14.5999
 21
180.903
  0
LINE
  8
0
 10
14.5999
 20
180.903
 11
14.3401
 21
180.969
  0
LINE
  8
0
 10
14.3401
 20
180.969
 11
14.0908
 21
181.068
  0
LINE
  8
0
 10
14.0908
 20
181.068
 11
13.8559
 21
181.197
  0
LINE
  8
0
 10
13.8559
 20
181.197
 11
13.6389
 21
181.355
  0
LINE
  8
0
 10
13.6389
 20
181.355
 11
13.4434
 21
181.538
  0
LINE
  8
0
 10
13.4434
 20
181.538
 11
13.2725
 21
181.745
  0
LINE
  8
0
 10
13.2725
 20
181.745
 11
13.1288
 21
181.971
  0
LINE
  8
0
 10
13.1288
 20
181.971
 11
13.0146
 21
182.214
  0
LINE
  8
0
 10
13.0146
 20
182.214
 11
12.9318
 21
182.469
  0
LINE
  8
0
 10
12.9318
 20
182.469
 11
12.8815
 21
182.732
  0
LINE
  8
0
 10
12.8815
 20
182.732
 11
12.8647
 21
183
  0
LINE
  8
0
 10
12.8647
 20
183
 11
12.8815
 21
183.268
  0
LINE
  8
0
 10
12.8815
 20
183.268
 11
12.9318
 21
183.531
  0
LINE
  8
0
 10
12.9318
 20
183.531
 11
13.0146
 21
183.786
  0
LINE
  8
0
 10
13.0146
 20
183.786
 11
13.1288
 21
184.029
  0
LINE
  8
0
 10
13.1288
 20
184.029
 11
13.2725
 21
184.255
  0
LINE
  8
0
 10
13.2725
 20
184.255
 11
13.4434
 21
184.462
  0
LINE
  8
0
 10
13.4434
 20
184.462
 11
13.6389
 21
184.645
  0
LINE
  8
0
 10
13.6389
 20
184.645
 11
13.8559
 21
184.803
  0
LINE
  8
0
 10
13.8559
 20
184.803
 11
14.0908
 21
184.932
  0
LINE
  8
0
 10
14.0908
 20
184.932
 11
14.3401
 21
185.031
  0
LINE
  8
0
 10
14.3401
 20
185.031
 11
14.5999
 21
185.097
  0
LINE
  8
0
 10
14.5999
 20
185.097
 11
14.8659
 21
185.131
  0
LINE
  8
0
 10
14.8659
 20
185.131
 11
15.1341
 21
185.131
  0
LINE
  8
0
 10
15.1341
 20
185.131
 11
15.4001
 21
185.097
  0
LINE
  8
0
 10
15.4001
 20
185.097
 11
15.6598
 21
185.031
  0
LINE
  8
0
 10
15.6598
 20
185.031
 11
15.9091
 21
184.932
  0
LINE
  8
0
 10
15.9091
 20
184.932
 11
16.1441
 21
184.803
  0
LINE
  8
0
 10
16.1441
 20
184.803
 11
16.3611
 21
184.645
  0
LINE
  8
0
 10
16.3611
 20
184.645
 11
16.5565
 21
184.462
  0
LINE
  8
0
 10
16.5565
 20
184.462
 11
16.7275
 21
184.255
  0
LINE
  8
0
 10
16.7275
 20
184.255
 11
16.8712
 21
184.029
  0
LINE
  8
0
 10
16.8712
 20
184.029
 11
16.9853
 21
183.786
  0
LINE
  8
0
 10
16.9853
 20
183.786
 11
17.0682
 21
183.531
  0
LINE
  8
0
 10
17.0682
 20
183.531
 11
17.1185
 21
183.268
  0
LINE
  8
0
 10
17.1185
 20
183.268
 11
17.1353
 21
183
  0
LINE
  8
0
 10
17.1353
 20
183
 11
17.1185
 21
182.732
  0
LINE
  8
0
 10
17.1185
 20
182.732
 11
17.0682
 21
182.469
  0
LINE
  8
0
 10
17.0682
 20
182.469
 11
16.9853
 21
182.214
  0
LINE
  8
0
 10
16.9853
 20
182.214
 11
16.8712
 21
181.971
  0
LINE
  8
0
 10
16.8712
 20
181.971
 11
16.7275
 21
181.745
  0
LINE
  8
0
 10
16.7275
 20
181.745
 11
16.5565
 21
181.538
  0
LINE
  8
0
 10
16.5565
 20
181.538
 11
16.3611
 21
181.355
  0
LINE
  8
0
 10
16.3611
 20
181.355
 11
16.1441
 21
181.197
  0
LINE
  8
0
 10
16.1441
 20
181.197
 11
15.9091
 21
181.068
  0
LINE
  8
0
 10
15.9091
 20
181.068
 11
15.6598
 21
180.969
  0
LINE
  8
0
 10
15.6598
 20
180.969
 11
15.4001
 21
180.903
  0
LINE
  8
0
 10
15.4001
 20
180.903
 11
15.1341
 21
180.869
  0
LINE
  8
0
 10
15.1341
 20
180.869
 11
14.8659
 21
180.869
  0
LINE
  8
0
 10
-15.1341
 20
180.869
 11
-15.4001
 21
180.903
  0
LINE
  8
0
 10
-15.4001
 20
180.903
 11
-15.6598
 21
180.969
  0
LINE
  8
0
 10
-15.6598
 20
180.969
 11
-15.9091
 21
181.068
  0
LINE
  8
0
 10
-15.9091
 20
181.068
 11
-16.1441
 21
181.197
  0
LINE
  8
0
 10
-16.1441
 20
181.197
 11
-16.3611
 21
181.355
  0
LINE
  8
0
 10
-16.3611
 20
181.355
 11
-16.5565
 21
181.538
  0
LINE
  8
0
 10
-16.5565
 20
181.538
 11
-16.7275
 21
181.745
  0
LINE
  8
0
 10
-16.7275
 20
181.745
 11
-16.8712
 21
181.971
  0
LINE
  8
0
 10
-16.8712
 20
181.971
 11
-16.9853
 21
182.214
  0
LINE
  8
0
 10
-16.9853
 20
182.214
 11
-17.0682
 21
182.469
  0
LINE
  8
0
 10
-17.0682
 20
182.469
 11
-17.1185
 21
182.732
  0
LINE
  8
0
 10
-17.1185
 20
182.732
 11
-17.1353
 21
183
  0
LINE
  8
0
 10
-17.1353
 20
183
 11
-17.1185
 21
183.268
  0
LINE
  8
0
 10
-17.1185
 20
183.268
 11
-17.0682
 21
183.531
  0
LINE
  8
0
 10
-17.0682
 20
183.531
 11
-16.9853
 21
183.786
  0
LINE
  8
0
 10
-16.9853
 20
183.786
 11
-16.8712
 21
184.029
  0
LINE
  8
0
 10
-16.8712
 20
184.029
 11
-16.7275
 21
184.255
  0
LINE
  8
0
 10
-16.7275
 20
184.255
 11
-16.5565
 21
184.462
  0
LINE
  8
0
 10
-16.5565
 20
184.462
 11
-16.3611
 21
184.645
  0
LINE
  8
0
 10
-16.3611
 20
184.645
 11
-16.1441
 21
184.803
  0
LINE
  8
0
 10
-16.1441
 20
184.803
 11
-15.9091
 21
184.932
  0
LINE
  8
0
 10
-15.9091
 20
184.932
 11
-15.6598
 21
185.031
  0
LINE
  8
0
 10
-15.6598
 20
185.031
 11
-15.4001
 21
185.097
  0
LINE
  8
0
 10
-15.4001
 20
185.097
 11
-15.1341
 21
185.131
  0
LINE
  8
0
 10
-15.1341
 20
185.131
 11
-14.8659
 21
185.131
  0
LINE
  8
0
 10
-14.8659
 20
185.131
 11
-14.5999
 21
185.097
  0
LINE
  8
0
 10
-14.5999
 20
185.097
 11
-14.3401
 21
185.031
  0
LINE
  8
0
 10
-14.3401
 20
185.031
 11
-14.0908
 21
184.932
  0
LINE
  8
0
 10
-14.0908
 20
184.932
 11
-13.8559
 21
184.803
  0
LINE
  8
0
 10
-13.8559
 20
184.803
 11
-13.6389
 21
184.645
  0
LINE
  8
0
 10
-13.6389
 20
184.645
 11
-13.4434
 21
184.462
  0
LINE
  8
0
 10
-13.4434
 20
184.462
 11
-13.2725
 21
184.255
  0
LINE
  8
0
 10
-13.2725
 20
184.255
 11
-13.1288
 21
184.029
  0
LINE
  8
0
 10
-13.1288
 20
184.029
 11
-13.0146
 21
183.786
  0
LINE
  8
0
 10
-13.0146
 20
183.786
 11
-12.9318
 21
183.531
  0
LINE
  8
0
 10
-12.9318
 20
183.531
 11
-12.8815
 21
183.268
  0
LINE
  8
0
 10
-12.8815
 20
183.268
 11
-12.8647
 21
183
  0
LINE
  8
0
 10
-12.8647
 20
183
 11
-12.8815
 21
182.732
  0
LINE
  8
0
 10
-12.8815
 20
182.732
 11
-12.9318
 21
182.469
  0
LINE
  8
0
 10
-12.9318
 20
182.469
 11
-13.0146
 21
182.214
  0
LINE
  8
0
 10
-13.0146
 20
182.214
 11
-13.1288
 21
181.971
  0
LINE
  8
0
 10
-13.1288
 20
181.971
 11
-13.2725
 21
181.745
  0
LINE
  8
0
 10
-13.2725
 20
181.745
 11
-13.4434
 21
181.538
  0
LINE
  8
0
 10
-13.4434
 20
181.538
 11
-13.6389
 21
181.355
  0
LINE
  8
0
 10
-13.6389
 20
181.355
 11
-13.8559
 21
181.197
  0
LINE
  8
0
 10
-13.8559
 20
181.197
 11
-14.0908
 21
181.068
  0
LINE
  8
0
 10
-14.0908
 20
181.068
 11
-14.3401
 21
180.969
  0
LINE
  8
0
 10
-14.3401
 20
180.969
 11
-14.5999
 21
180.903
  0
LINE
  8
0
 10
-14.5999
 20
180.903
 11
-14.8659
 21
180.869
  0
LINE
  8
0
 10
-14.8659
 20
180.869
 11
-15.1341
 21
180.869
  0
ENDSEC
  0
SECTION
  2
OBJECTS
  0
DICTIONARY
  0
ENDSEC
  0
EOF
