<?xml version="1.0" standalone="no"?>
<!DOCTYPE svg PUBLIC "-//W3C//DTD SVG 1.1//EN" "http://www.w3.org/Graphics/SVG/1.1/DTD/svg11.dtd">
<svg width="30mm" height="160mm" viewBox="-15 -206 30 160" xmlns="http://www.w3.org/2000/svg" version="1.1">
<title>OpenSCAD Model</title>
<path d="
M 10.9369,-130.589 L 11.5451,-130.745 L 12.1289,-130.976 L 12.6791,-131.278 L 13.1871,-131.647 L 13.6448,-132.077
 L 14.0451,-132.561 L 14.3815,-133.091 L 14.6489,-133.659 L 14.8429,-134.257 L 14.9606,-134.873 L 15,-135.5
 L 15,-200.5 L 14.9606,-201.127 L 14.8429,-201.743 L 14.6489,-202.341 L 14.3815,-202.909 L 14.0451,-203.439
 L 13.6448,-203.923 L 13.1871,-204.353 L 12.6791,-204.722 L 12.1289,-205.024 L 11.5451,-205.255 L 10.9369,-205.411
 L 10.3139,-205.49 L -10.3139,-205.49 L -10.9369,-205.411 L -11.5451,-205.255 L -12.1289,-205.024 L -12.6791,-204.722
 L -13.1871,-204.353 L -13.6448,-203.923 L -14.0451,-203.439 L -14.3815,-202.909 L -14.6489,-202.341 L -14.8429,-201.743
 L -14.9606,-201.127 L -15,-200.5 L -15,-135.5 L -14.9606,-134.873 L -14.8429,-134.257 L -14.6489,-133.659
 L -14.3815,-133.091 L -14.0451,-132.561 L -13.6448,-132.077 L -13.1871,-131.647 L -12.6791,-131.278 L -12.1289,-130.976
 L -11.5451,-130.745 L -10.9369,-130.589 L -10.3139,-130.51 L 10.3139,-130.51 z
M 10.9369,-46.5886 L 11.5451,-46.7447 L 12.1289,-46.9759 L 12.6791,-47.2784 L 13.1871,-47.6474 L 13.6448,-48.0773
 L 14.0451,-48.5611 L 14.3815,-49.0912 L 14.6489,-49.6594 L 14.8429,-50.2566 L 14.9606,-50.8733 L 15,-51.5
 L 15,-116.5 L 14.9606,-117.127 L 14.8429,-117.743 L 14.6489,-118.341 L 14.3815,-118.909 L 14.0451,-119.439
 L 13.6448,-119.923 L 13.1871,-120.353 L 12.6791,-120.722 L 12.1289,-121.024 L 11.5451,-121.255 L 10.9369,-121.411
 L 10.3139,-121.49 L -10.3139,-121.49 L -10.9369,-121.411 L -11.5451,-121.255 L -12.1289,-121.024 L -12.6791,-120.722
 L -13.1871,-120.353 L -13.6448,-119.923 L -14.0451,-119.439 L -14.3815,-118.909 L -14.6489,-118.341 L -14.8429,-117.743
 L -14.9606,-117.127 L -15,-116.5 L -15,-51.5 L -14.9606,-50.8733 L -14.8429,-50.2566 L -14.6489,-49.6594
 L -14.3815,-49.0912 L -14.0451,-48.5611 L -13.6448,-48.0773 L -13.1871,-47.6474 L -12.6791,-47.2784 L -12.1289,-46.9759
 L -11.5451,-46.7447 L -10.9369,-46.5886 L -10.3139,-46.5099 L 10.3139,-46.5099 z
M 7.38696,-112.204 L 7.1627,-112.232 L 6.94376,-112.288 L 6.7336,-112.371 L 6.53551,-112.48 L 6.35263,-112.613
 L 6.18785,-112.768 L 6.04376,-112.942 L 5.92264,-113.133 L 5.8264,-113.337 L 5.75655,-113.552 L 5.71419,-113.774
 L 5.7,-114 L 5.71419,-114.226 L 5.75655,-114.448 L 5.8264,-114.663 L 5.92264,-114.867 L 6.04376,-115.058
 L 6.18785,-115.232 L 6.35263,-115.387 L 6.53551,-115.52 L 6.7336,-115.629 L 6.94376,-115.712 L 7.1627,-115.768
 L 7.38696,-115.796 L 7.61302,-115.796 L 7.83728,-115.768 L 8.05623,-115.712 L 8.26639,-115.629 L 8.46448,-115.52
 L 8.64735,-115.387 L 8.81213,-115.232 L 8.95622,-115.058 L 9.07735,-114.867 L 9.17358,-114.663 L 9.24344,-114.448
 L 9.2858,-114.226 L 9.29999,-114 L 9.2858,-113.774 L 9.24344,-113.552 L 9.17358,-113.337 L 9.07735,-113.133
 L 8.95622,-112.942 L 8.81213,-112.768 L 8.64735,-112.613 L 8.46448,-112.48 L 8.26639,-112.371 L 8.05623,-112.288
 L 7.83728,-112.232 L 7.61302,-112.204 z
M -7.61302,-112.204 L -7.83728,-112.232 L -8.05623,-112.288 L -8.26639,-112.371 L -8.46448,-112.48 L -8.64735,-112.613
 L -8.81213,-112.768 L -8.95622,-112.942 L -9.07735,-113.133 L -9.17358,-113.337 L -9.24344,-113.552 L -9.2858,-113.774
 L -9.29999,-114 L -9.2858,-114.226 L -9.24344,-114.448 L -9.17358,-114.663 L -9.07735,-114.867 L -8.95622,-115.058
 L -8.81213,-115.232 L -8.64735,-115.387 L -8.46448,-115.52 L -8.26639,-115.629 L -8.05623,-115.712 L -7.83728,-115.768
 L -7.61302,-115.796 L -7.38696,-115.796 L -7.1627,-115.768 L -6.94376,-115.712 L -6.7336,-115.629 L -6.53551,-115.52
 L -6.35263,-115.387 L -6.18785,-115.232 L -6.04376,-115.058 L -5.92264,-114.867 L -5.8264,-114.663 L -5.75655,-114.448
 L -5.71419,-114.226 L -5.7,-114 L -5.71419,-113.774 L -5.75655,-113.552 L -5.8264,-113.337 L -5.92264,-113.133
 L -6.04376,-112.942 L -6.18785,-112.768 L -6.35263,-112.613 L -6.53551,-112.48 L -6.7336,-112.371 L -6.94376,-112.288
 L -7.1627,-112.232 L -7.38696,-112.204 z
M -7.61302,-52.2036 L -7.83728,-52.2319 L -8.05623,-52.2881 L -8.26639,-52.3713 L -8.46448,-52.4802 L -8.64735,-52.6131
 L -8.81213,-52.7678 L -8.95622,-52.942 L -9.07735,-53.1328 L -9.17358,-53.3374 L -9.24344,-53.5524 L -9.2858,-53.7744
 L -9.29999,-54 L -9.2858,-54.2256 L -9.24344,-54.4476 L -9.17358,-54.6626 L -9.07735,-54.8672 L -8.95622,-55.058
 L -8.81213,-55.2322 L -8.64735,-55.3869 L -8.46448,-55.5198 L -8.26639,-55.6287 L -8.05623,-55.7119 L -7.83728,-55.7681
 L -7.61302,-55.7964 L -7.38696,-55.7964 L -7.1627,-55.7681 L -6.94376,-55.7119 L -6.7336,-55.6287 L -6.53551,-55.5198
 L -6.35263,-55.3869 L -6.18785,-55.2322 L -6.04376,-55.058 L -5.92264,-54.8672 L -5.8264,-54.6626 L -5.75655,-54.4476
 L -5.71419,-54.2256 L -5.7,-54 L -5.71419,-53.7744 L -5.75655,-53.5524 L -5.8264,-53.3374 L -5.92264,-53.1328
 L -6.04376,-52.942 L -6.18785,-52.7678 L -6.35263,-52.6131 L -6.53551,-52.4802 L -6.7336,-52.3713 L -6.94376,-52.2881
 L -7.1627,-52.2319 L -7.38696,-52.2036 z
M 7.38696,-52.2036 L 7.1627,-52.2319 L 6.94376,-52.2881 L 6.7336,-52.3713 L 6.53551,-52.4802 L 6.35263,-52.6131
 L 6.18785,-52.7678 L 6.04376,-52.942 L 5.92264,-53.1328 L 5.8264,-53.3374 L 5.75655,-53.5524 L 5.71419,-53.7744
 L 5.7,-54 L 5.71419,-54.2256 L 5.75655,-54.4476 L 5.8264,-54.6626 L 5.92264,-54.8672 L 6.04376,-55.058
 L 6.18785,-55.2322 L 6.35263,-55.3869 L 6.53551,-55.5198 L 6.7336,-55.6287 L 6.94376,-55.7119 L 7.1627,-55.7681
 L 7.38696,-55.7964 L 7.61302,-55.7964 L 7.83728,-55.7681 L 8.05623,-55.7119 L 8.26639,-55.6287 L 8.46448,-55.5198
 L 8.64735,-55.3869 L 8.81213,-55.2322 L 8.95622,-55.058 L 9.07735,-54.8672 L 9.17358,-54.6626 L 9.24344,-54.4476
 L 9.2858,-54.2256 L 9.29999,-54 L 9.2858,-53.7744 L 9.24344,-53.5524 L 9.17358,-53.3374 L 9.07735,-53.1328
 L 8.95622,-52.942 L 8.81213,-52.7678 L 8.64735,-52.6131 L 8.46448,-52.4802 L 8.26639,-52.3713 L 8.05623,-52.2881
 L 7.83728,-52.2319 L 7.61302,-52.2036 z
" stroke="black" fill="lightgray" stroke-width="0.5"/>
</svg>
