<?xml version="1.0" standalone="no"?>
<!DOCTYPE svg PUBLIC "-//W3C//DTD SVG 1.1//EN" "http://www.w3.org/Graphics/SVG/1.1/DTD/svg11.dtd">
<svg width="30mm" height="288mm" viewBox="-15 -441 30 288" xmlns="http://www.w3.org/2000/svg" version="1.1">
<title>OpenSCAD Model</title>
<path d="
M 10.9369,-351.089 L 11.5451,-351.245 L 12.1289,-351.476 L 12.6791,-351.778 L 13.1871,-352.147 L 13.6448,-352.577
 L 14.0451,-353.061 L 14.3815,-353.591 L 14.6489,-354.159 L 14.8429,-354.757 L 14.9606,-355.373 L 15,-356
 L 15,-436 L 14.9606,-436.627 L 14.8429,-437.243 L 14.6489,-437.841 L 14.3815,-438.409 L 14.0451,-438.939
 L 13.6448,-439.423 L 13.1871,-439.853 L 12.6791,-440.222 L 12.1289,-440.524 L 11.5451,-440.755 L 10.9369,-440.911
 L 10.3139,-440.99 L -10.3139,-440.99 L -10.9369,-440.911 L -11.5451,-440.755 L -12.1289,-440.524 L -12.6791,-440.222
 L -13.1871,-439.853 L -13.6448,-439.423 L -14.0451,-438.939 L -14.3815,-438.409 L -14.6489,-437.841 L -14.8429,-437.243
 L -14.9606,-436.627 L -15,-436 L -15,-356 L -14.9606,-355.373 L -14.8429,-354.757 L -14.6489,-354.159
 L -14.3815,-353.591 L -14.0451,-353.061 L -13.6448,-352.577 L -13.1871,-352.147 L -12.6791,-351.778 L -12.1289,-351.476
 L -11.5451,-351.245 L -10.9369,-351.089 L -10.3139,-351.01 L 10.3139,-351.01 z
M -9.74316,-352.635 L -10.2256,-352.696 L -10.6967,-352.817 L -11.1489,-352.996 L -11.5751,-353.23 L -11.9685,-353.516
 L -12.323,-353.849 L -12.633,-354.224 L -12.8936,-354.634 L -13.1007,-355.074 L -13.251,-355.537 L -13.3421,-356.015
 L -13.3726,-356.5 L -13.3726,-435.5 L -13.3421,-435.985 L -13.251,-436.463 L -13.1007,-436.926 L -12.8936,-437.366
 L -12.633,-437.776 L -12.323,-438.151 L -11.9685,-438.484 L -11.5751,-438.77 L -11.1489,-439.004 L -10.6967,-439.183
 L -10.2256,-439.304 L -9.74316,-439.365 L 9.74316,-439.365 L 10.2256,-439.304 L 10.6967,-439.183 L 11.1489,-439.004
 L 11.5751,-438.77 L 11.9685,-438.484 L 12.323,-438.151 L 12.633,-437.776 L 12.8936,-437.366 L 13.1007,-436.926
 L 13.251,-436.463 L 13.3421,-435.985 L 13.3726,-435.5 L 13.3726,-356.5 L 13.3421,-356.015 L 13.251,-355.537
 L 13.1007,-355.074 L 12.8936,-354.634 L 12.633,-354.224 L 12.323,-353.849 L 11.9685,-353.516 L 11.5751,-353.23
 L 11.1489,-352.996 L 10.6967,-352.817 L 10.2256,-352.696 L 9.74316,-352.635 z
M 10.9369,-252.089 L 11.5451,-252.245 L 12.1289,-252.476 L 12.6791,-252.778 L 13.1871,-253.147 L 13.6448,-253.577
 L 14.0451,-254.061 L 14.3815,-254.591 L 14.6489,-255.159 L 14.8429,-255.757 L 14.9606,-256.373 L 15,-257
 L 15,-337 L 14.9606,-337.627 L 14.8429,-338.243 L 14.6489,-338.841 L 14.3815,-339.409 L 14.0451,-339.939
 L 13.6448,-340.423 L 13.1871,-340.853 L 12.6791,-341.222 L 12.1289,-341.524 L 11.5451,-341.755 L 10.9369,-341.911
 L 10.3139,-341.99 L -10.3139,-341.99 L -10.9369,-341.911 L -11.5451,-341.755 L -12.1289,-341.524 L -12.6791,-341.222
 L -13.1871,-340.853 L -13.6448,-340.423 L -14.0451,-339.939 L -14.3815,-339.409 L -14.6489,-338.841 L -14.8429,-338.243
 L -14.9606,-337.627 L -15,-337 L -15,-257 L -14.9606,-256.373 L -14.8429,-255.757 L -14.6489,-255.159
 L -14.3815,-254.591 L -14.0451,-254.061 L -13.6448,-253.577 L -13.1871,-253.147 L -12.6791,-252.778 L -12.1289,-252.476
 L -11.5451,-252.245 L -10.9369,-252.089 L -10.3139,-252.01 L 10.3139,-252.01 z
M 10.9369,-153.089 L 11.5451,-153.245 L 12.1289,-153.476 L 12.6791,-153.778 L 13.1871,-154.147 L 13.6448,-154.577
 L 14.0451,-155.061 L 14.3815,-155.591 L 14.6489,-156.159 L 14.8429,-156.757 L 14.9606,-157.373 L 15,-158
 L 15,-238 L 14.9606,-238.627 L 14.8429,-239.243 L 14.6489,-239.841 L 14.3815,-240.409 L 14.0451,-240.939
 L 13.6448,-241.423 L 13.1871,-241.853 L 12.6791,-242.222 L 12.1289,-242.524 L 11.5451,-242.755 L 10.9369,-242.911
 L 10.3139,-242.99 L -10.3139,-242.99 L -10.9369,-242.911 L -11.5451,-242.755 L -12.1289,-242.524 L -12.6791,-242.222
 L -13.1871,-241.853 L -13.6448,-241.423 L -14.0451,-240.939 L -14.3815,-240.409 L -14.6489,-239.841 L -14.8429,-239.243
 L -14.9606,-238.627 L -15,-238 L -15,-158 L -14.9606,-157.373 L -14.8429,-156.757 L -14.6489,-156.159
 L -14.3815,-155.591 L -14.0451,-155.061 L -13.6448,-154.577 L -13.1871,-154.147 L -12.6791,-153.778 L -12.1289,-153.476
 L -11.5451,-153.245 L -10.9369,-153.089 L -10.3139,-153.01 L 10.3139,-153.01 z
M 7.38696,-233.704 L 7.1627,-233.732 L 6.94376,-233.788 L 6.7336,-233.871 L 6.53551,-233.98 L 6.35263,-234.113
 L 6.18785,-234.268 L 6.04376,-234.442 L 5.92264,-234.633 L 5.8264,-234.837 L 5.75655,-235.052 L 5.71419,-235.274
 L 5.7,-235.5 L 5.71419,-235.726 L 5.75655,-235.948 L 5.8264,-236.163 L 5.92264,-236.367 L 6.04376,-236.558
 L 6.18785,-236.732 L 6.35263,-236.887 L 6.53551,-237.02 L 6.7336,-237.129 L 6.94376,-237.212 L 7.1627,-237.268
 L 7.38696,-237.296 L 7.61302,-237.296 L 7.83728,-237.268 L 8.05623,-237.212 L 8.26639,-237.129 L 8.46448,-237.02
 L 8.64735,-236.887 L 8.81213,-236.732 L 8.95622,-236.558 L 9.07735,-236.367 L 9.17358,-236.163 L 9.24344,-235.948
 L 9.2858,-235.726 L 9.29999,-235.5 L 9.2858,-235.274 L 9.24344,-235.052 L 9.17358,-234.837 L 9.07735,-234.633
 L 8.95622,-234.442 L 8.81213,-234.268 L 8.64735,-234.113 L 8.46448,-233.98 L 8.26639,-233.871 L 8.05623,-233.788
 L 7.83728,-233.732 L 7.61302,-233.704 z
M -7.61302,-233.704 L -7.83728,-233.732 L -8.05623,-233.788 L -8.26639,-233.871 L -8.46448,-233.98 L -8.64735,-234.113
 L -8.81213,-234.268 L -8.95622,-234.442 L -9.07735,-234.633 L -9.17358,-234.837 L -9.24344,-235.052 L -9.2858,-235.274
 L -9.29999,-235.5 L -9.2858,-235.726 L -9.24344,-235.948 L -9.17358,-236.163 L -9.07735,-236.367 L -8.95622,-236.558
 L -8.81213,-236.732 L -8.64735,-236.887 L -8.46448,-237.02 L -8.26639,-237.129 L -8.05623,-237.212 L -7.83728,-237.268
 L -7.61302,-237.296 L -7.38696,-237.296 L -7.1627,-237.268 L -6.94376,-237.212 L -6.7336,-237.129 L -6.53551,-237.02
 L -6.35263,-236.887 L -6.18785,-236.732 L -6.04376,-236.558 L -5.92264,-236.367 L -5.8264,-236.163 L -5.75655,-235.948
 L -5.71419,-235.726 L -5.7,-235.5 L -5.71419,-235.274 L -5.75655,-235.052 L -5.8264,-234.837 L -5.92264,-234.633
 L -6.04376,-234.442 L -6.18785,-234.268 L -6.35263,-234.113 L -6.53551,-233.98 L -6.7336,-233.871 L -6.94376,-233.788
 L -7.1627,-233.732 L -7.38696,-233.704 z
M -7.61302,-158.704 L -7.83728,-158.732 L -8.05623,-158.788 L -8.26639,-158.871 L -8.46448,-158.98 L -8.64735,-159.113
 L -8.81213,-159.268 L -8.95622,-159.442 L -9.07735,-159.633 L -9.17358,-159.837 L -9.24344,-160.052 L -9.2858,-160.274
 L -9.29999,-160.5 L -9.2858,-160.726 L -9.24344,-160.948 L -9.17358,-161.163 L -9.07735,-161.367 L -8.95622,-161.558
 L -8.81213,-161.732 L -8.64735,-161.887 L -8.46448,-162.02 L -8.26639,-162.129 L -8.05623,-162.212 L -7.83728,-162.268
 L -7.61302,-162.296 L -7.38696,-162.296 L -7.1627,-162.268 L -6.94376,-162.212 L -6.7336,-162.129 L -6.53551,-162.02
 L -6.35263,-161.887 L -6.18785,-161.732 L -6.04376,-161.558 L -5.92264,-161.367 L -5.8264,-161.163 L -5.75655,-160.948
 L -5.71419,-160.726 L -5.7,-160.5 L -5.71419,-160.274 L -5.75655,-160.052 L -5.8264,-159.837 L -5.92264,-159.633
 L -6.04376,-159.442 L -6.18785,-159.268 L -6.35263,-159.113 L -6.53551,-158.98 L -6.7336,-158.871 L -6.94376,-158.788
 L -7.1627,-158.732 L -7.38696,-158.704 z
M 7.38696,-158.704 L 7.1627,-158.732 L 6.94376,-158.788 L 6.7336,-158.871 L 6.53551,-158.98 L 6.35263,-159.113
 L 6.18785,-159.268 L 6.04376,-159.442 L 5.92264,-159.633 L 5.8264,-159.837 L 5.75655,-160.052 L 5.71419,-160.274
 L 5.7,-160.5 L 5.71419,-160.726 L 5.75655,-160.948 L 5.8264,-161.163 L 5.92264,-161.367 L 6.04376,-161.558
 L 6.18785,-161.732 L 6.35263,-161.887 L 6.53551,-162.02 L 6.7336,-162.129 L 6.94376,-162.212 L 7.1627,-162.268
 L 7.38696,-162.296 L 7.61302,-162.296 L 7.83728,-162.268 L 8.05623,-162.212 L 8.26639,-162.129 L 8.46448,-162.02
 L 8.64735,-161.887 L 8.81213,-161.732 L 8.95622,-161.558 L 9.07735,-161.367 L 9.17358,-161.163 L 9.24344,-160.948
 L 9.2858,-160.726 L 9.29999,-160.5 L 9.2858,-160.274 L 9.24344,-160.052 L 9.17358,-159.837 L 9.07735,-159.633
 L 8.95622,-159.442 L 8.81213,-159.268 L 8.64735,-159.113 L 8.46448,-158.98 L 8.26639,-158.871 L 8.05623,-158.788
 L 7.83728,-158.732 L 7.61302,-158.704 z
" stroke="black" fill="lightgray" stroke-width="0.5"/>
</svg>
