  0
SECTION
  2
BLOCKS
  0
ENDSEC
  0
SECTION
  2
ENTITIES
  0
LINE
  8
0
 10
18.4369
 20
613.589
 11
19.0451
 21
613.745
  0
LINE
  8
0
 10
19.0451
 20
613.745
 11
19.6289
 21
613.976
  0
LINE
  8
0
 10
19.6289
 20
613.976
 11
20.1791
 21
614.278
  0
LINE
  8
0
 10
20.1791
 20
614.278
 11
20.6871
 21
614.647
  0
LINE
  8
0
 10
20.6871
 20
614.647
 11
21.1448
 21
615.077
  0
LINE
  8
0
 10
21.1448
 20
615.077
 11
21.5451
 21
615.561
  0
LINE
  8
0
 10
21.5451
 20
615.561
 11
21.8815
 21
616.091
  0
LINE
  8
0
 10
21.8815
 20
616.091
 11
22.1489
 21
616.659
  0
LINE
  8
0
 10
22.1489
 20
616.659
 11
22.3429
 21
617.257
  0
LINE
  8
0
 10
22.3429
 20
617.257
 11
22.4606
 21
617.873
  0
LINE
  8
0
 10
22.4606
 20
617.873
 11
22.5
 21
618.5
  0
LINE
  8
0
 10
22.5
 20
618.5
 11
22.5
 21
773.5
  0
LINE
  8
0
 10
22.5
 20
773.5
 11
22.4606
 21
774.127
  0
LINE
  8
0
 10
22.4606
 20
774.127
 11
22.3429
 21
774.743
  0
LINE
  8
0
 10
22.3429
 20
774.743
 11
22.1489
 21
775.341
  0
LINE
  8
0
 10
22.1489
 20
775.341
 11
21.8815
 21
775.909
  0
LINE
  8
0
 10
21.8815
 20
775.909
 11
21.5451
 21
776.439
  0
LINE
  8
0
 10
21.5451
 20
776.439
 11
21.1448
 21
776.923
  0
LINE
  8
0
 10
21.1448
 20
776.923
 11
20.6871
 21
777.353
  0
LINE
  8
0
 10
20.6871
 20
777.353
 11
20.1791
 21
777.722
  0
LINE
  8
0
 10
20.1791
 20
777.722
 11
19.6289
 21
778.024
  0
LINE
  8
0
 10
19.6289
 20
778.024
 11
19.0451
 21
778.255
  0
LINE
  8
0
 10
19.0451
 20
778.255
 11
18.4369
 21
778.411
  0
LINE
  8
0
 10
18.4369
 20
778.411
 11
17.8139
 21
778.49
  0
LINE
  8
0
 10
17.8139
 20
778.49
 11
-17.8139
 21
778.49
  0
LINE
  8
0
 10
-17.8139
 20
778.49
 11
-18.4369
 21
778.411
  0
LINE
  8
0
 10
-18.4369
 20
778.411
 11
-19.0451
 21
778.255
  0
LINE
  8
0
 10
-19.0451
 20
778.255
 11
-19.6289
 21
778.024
  0
LINE
  8
0
 10
-19.6289
 20
778.024
 11
-20.1791
 21
777.722
  0
LINE
  8
0
 10
-20.1791
 20
777.722
 11
-20.6871
 21
777.353
  0
LINE
  8
0
 10
-20.6871
 20
777.353
 11
-21.1448
 21
776.923
  0
LINE
  8
0
 10
-21.1448
 20
776.923
 11
-21.5451
 21
776.439
  0
LINE
  8
0
 10
-21.5451
 20
776.439
 11
-21.8815
 21
775.909
  0
LINE
  8
0
 10
-21.8815
 20
775.909
 11
-22.1489
 21
775.341
  0
LINE
  8
0
 10
-22.1489
 20
775.341
 11
-22.3429
 21
774.743
  0
LINE
  8
0
 10
-22.3429
 20
774.743
 11
-22.4606
 21
774.127
  0
LINE
  8
0
 10
-22.4606
 20
774.127
 11
-22.5
 21
773.5
  0
LINE
  8
0
 10
-22.5
 20
773.5
 11
-22.5
 21
618.5
  0
LINE
  8
0
 10
-22.5
 20
618.5
 11
-22.4606
 21
617.873
  0
LINE
  8
0
 10
-22.4606
 20
617.873
 11
-22.3429
 21
617.257
  0
LINE
  8
0
 10
-22.3429
 20
617.257
 11
-22.1489
 21
616.659
  0
LINE
  8
0
 10
-22.1489
 20
616.659
 11
-21.8815
 21
616.091
  0
LINE
  8
0
 10
-21.8815
 20
616.091
 11
-21.5451
 21
615.561
  0
LINE
  8
0
 10
-21.5451
 20
615.561
 11
-21.1448
 21
615.077
  0
LINE
  8
0
 10
-21.1448
 20
615.077
 11
-20.6871
 21
614.647
  0
LINE
  8
0
 10
-20.6871
 20
614.647
 11
-20.1791
 21
614.278
  0
LINE
  8
0
 10
-20.1791
 20
614.278
 11
-19.6289
 21
613.976
  0
LINE
  8
0
 10
-19.6289
 20
613.976
 11
-19.0451
 21
613.745
  0
LINE
  8
0
 10
-19.0451
 20
613.745
 11
-18.4369
 21
613.589
  0
LINE
  8
0
 10
-18.4369
 20
613.589
 11
-17.8139
 21
613.51
  0
LINE
  8
0
 10
-17.8139
 20
613.51
 11
17.8139
 21
613.51
  0
LINE
  8
0
 10
17.8139
 20
613.51
 11
18.4369
 21
613.589
  0
LINE
  8
0
 10
-17.2432
 20
615.135
 11
-17.7256
 21
615.196
  0
LINE
  8
0
 10
-17.7256
 20
615.196
 11
-18.1967
 21
615.317
  0
LINE
  8
0
 10
-18.1967
 20
615.317
 11
-18.6489
 21
615.496
  0
LINE
  8
0
 10
-18.6489
 20
615.496
 11
-19.0751
 21
615.73
  0
LINE
  8
0
 10
-19.0751
 20
615.73
 11
-19.4685
 21
616.016
  0
LINE
  8
0
 10
-19.4685
 20
616.016
 11
-19.823
 21
616.349
  0
LINE
  8
0
 10
-19.823
 20
616.349
 11
-20.133
 21
616.724
  0
LINE
  8
0
 10
-20.133
 20
616.724
 11
-20.3936
 21
617.134
  0
LINE
  8
0
 10
-20.3936
 20
617.134
 11
-20.6007
 21
617.574
  0
LINE
  8
0
 10
-20.6007
 20
617.574
 11
-20.751
 21
618.037
  0
LINE
  8
0
 10
-20.751
 20
618.037
 11
-20.8421
 21
618.515
  0
LINE
  8
0
 10
-20.8421
 20
618.515
 11
-20.8726
 21
619
  0
LINE
  8
0
 10
-20.8726
 20
619
 11
-20.8726
 21
773
  0
LINE
  8
0
 10
-20.8726
 20
773
 11
-20.8421
 21
773.485
  0
LINE
  8
0
 10
-20.8421
 20
773.485
 11
-20.751
 21
773.963
  0
LINE
  8
0
 10
-20.751
 20
773.963
 11
-20.6007
 21
774.426
  0
LINE
  8
0
 10
-20.6007
 20
774.426
 11
-20.3936
 21
774.866
  0
LINE
  8
0
 10
-20.3936
 20
774.866
 11
-20.133
 21
775.276
  0
LINE
  8
0
 10
-20.133
 20
775.276
 11
-19.823
 21
775.651
  0
LINE
  8
0
 10
-19.823
 20
775.651
 11
-19.4685
 21
775.984
  0
LINE
  8
0
 10
-19.4685
 20
775.984
 11
-19.0751
 21
776.27
  0
LINE
  8
0
 10
-19.0751
 20
776.27
 11
-18.6489
 21
776.504
  0
LINE
  8
0
 10
-18.6489
 20
776.504
 11
-18.1967
 21
776.683
  0
LINE
  8
0
 10
-18.1967
 20
776.683
 11
-17.7256
 21
776.804
  0
LINE
  8
0
 10
-17.7256
 20
776.804
 11
-17.2432
 21
776.865
  0
LINE
  8
0
 10
-17.2432
 20
776.865
 11
17.2432
 21
776.865
  0
LINE
  8
0
 10
17.2432
 20
776.865
 11
17.7256
 21
776.804
  0
LINE
  8
0
 10
17.7256
 20
776.804
 11
18.1967
 21
776.683
  0
LINE
  8
0
 10
18.1967
 20
776.683
 11
18.6489
 21
776.504
  0
LINE
  8
0
 10
18.6489
 20
776.504
 11
19.0751
 21
776.27
  0
LINE
  8
0
 10
19.0751
 20
776.27
 11
19.4685
 21
775.984
  0
LINE
  8
0
 10
19.4685
 20
775.984
 11
19.823
 21
775.651
  0
LINE
  8
0
 10
19.823
 20
775.651
 11
20.133
 21
775.276
  0
LINE
  8
0
 10
20.133
 20
775.276
 11
20.3936
 21
774.866
  0
LINE
  8
0
 10
20.3936
 20
774.866
 11
20.6007
 21
774.426
  0
LINE
  8
0
 10
20.6007
 20
774.426
 11
20.751
 21
773.963
  0
LINE
  8
0
 10
20.751
 20
773.963
 11
20.8421
 21
773.485
  0
LINE
  8
0
 10
20.8421
 20
773.485
 11
20.8726
 21
773
  0
LINE
  8
0
 10
20.8726
 20
773
 11
20.8726
 21
619
  0
LINE
  8
0
 10
20.8726
 20
619
 11
20.8421
 21
618.515
  0
LINE
  8
0
 10
20.8421
 20
618.515
 11
20.751
 21
618.037
  0
LINE
  8
0
 10
20.751
 20
618.037
 11
20.6007
 21
617.574
  0
LINE
  8
0
 10
20.6007
 20
617.574
 11
20.3936
 21
617.134
  0
LINE
  8
0
 10
20.3936
 20
617.134
 11
20.133
 21
616.724
  0
LINE
  8
0
 10
20.133
 20
616.724
 11
19.823
 21
616.349
  0
LINE
  8
0
 10
19.823
 20
616.349
 11
19.4685
 21
616.016
  0
LINE
  8
0
 10
19.4685
 20
616.016
 11
19.0751
 21
615.73
  0
LINE
  8
0
 10
19.0751
 20
615.73
 11
18.6489
 21
615.496
  0
LINE
  8
0
 10
18.6489
 20
615.496
 11
18.1967
 21
615.317
  0
LINE
  8
0
 10
18.1967
 20
615.317
 11
17.7256
 21
615.196
  0
LINE
  8
0
 10
17.7256
 20
615.196
 11
17.2432
 21
615.135
  0
LINE
  8
0
 10
17.2432
 20
615.135
 11
-17.2432
 21
615.135
  0
LINE
  8
0
 10
18.4369
 20
439.589
 11
19.0451
 21
439.745
  0
LINE
  8
0
 10
19.0451
 20
439.745
 11
19.6289
 21
439.976
  0
LINE
  8
0
 10
19.6289
 20
439.976
 11
20.1791
 21
440.278
  0
LINE
  8
0
 10
20.1791
 20
440.278
 11
20.6871
 21
440.647
  0
LINE
  8
0
 10
20.6871
 20
440.647
 11
21.1448
 21
441.077
  0
LINE
  8
0
 10
21.1448
 20
441.077
 11
21.5451
 21
441.561
  0
LINE
  8
0
 10
21.5451
 20
441.561
 11
21.8815
 21
442.091
  0
LINE
  8
0
 10
21.8815
 20
442.091
 11
22.1489
 21
442.659
  0
LINE
  8
0
 10
22.1489
 20
442.659
 11
22.3429
 21
443.257
  0
LINE
  8
0
 10
22.3429
 20
443.257
 11
22.4606
 21
443.873
  0
LINE
  8
0
 10
22.4606
 20
443.873
 11
22.5
 21
444.5
  0
LINE
  8
0
 10
22.5
 20
444.5
 11
22.5
 21
599.5
  0
LINE
  8
0
 10
22.5
 20
599.5
 11
22.4606
 21
600.127
  0
LINE
  8
0
 10
22.4606
 20
600.127
 11
22.3429
 21
600.743
  0
LINE
  8
0
 10
22.3429
 20
600.743
 11
22.1489
 21
601.341
  0
LINE
  8
0
 10
22.1489
 20
601.341
 11
21.8815
 21
601.909
  0
LINE
  8
0
 10
21.8815
 20
601.909
 11
21.5451
 21
602.439
  0
LINE
  8
0
 10
21.5451
 20
602.439
 11
21.1448
 21
602.923
  0
LINE
  8
0
 10
21.1448
 20
602.923
 11
20.6871
 21
603.353
  0
LINE
  8
0
 10
20.6871
 20
603.353
 11
20.1791
 21
603.722
  0
LINE
  8
0
 10
20.1791
 20
603.722
 11
19.6289
 21
604.024
  0
LINE
  8
0
 10
19.6289
 20
604.024
 11
19.0451
 21
604.255
  0
LINE
  8
0
 10
19.0451
 20
604.255
 11
18.4369
 21
604.411
  0
LINE
  8
0
 10
18.4369
 20
604.411
 11
17.8139
 21
604.49
  0
LINE
  8
0
 10
17.8139
 20
604.49
 11
-17.8139
 21
604.49
  0
LINE
  8
0
 10
-17.8139
 20
604.49
 11
-18.4369
 21
604.411
  0
LINE
  8
0
 10
-18.4369
 20
604.411
 11
-19.0451
 21
604.255
  0
LINE
  8
0
 10
-19.0451
 20
604.255
 11
-19.6289
 21
604.024
  0
LINE
  8
0
 10
-19.6289
 20
604.024
 11
-20.1791
 21
603.722
  0
LINE
  8
0
 10
-20.1791
 20
603.722
 11
-20.6871
 21
603.353
  0
LINE
  8
0
 10
-20.6871
 20
603.353
 11
-21.1448
 21
602.923
  0
LINE
  8
0
 10
-21.1448
 20
602.923
 11
-21.5451
 21
602.439
  0
LINE
  8
0
 10
-21.5451
 20
602.439
 11
-21.8815
 21
601.909
  0
LINE
  8
0
 10
-21.8815
 20
601.909
 11
-22.1489
 21
601.341
  0
LINE
  8
0
 10
-22.1489
 20
601.341
 11
-22.3429
 21
600.743
  0
LINE
  8
0
 10
-22.3429
 20
600.743
 11
-22.4606
 21
600.127
  0
LINE
  8
0
 10
-22.4606
 20
600.127
 11
-22.5
 21
599.5
  0
LINE
  8
0
 10
-22.5
 20
599.5
 11
-22.5
 21
444.5
  0
LINE
  8
0
 10
-22.5
 20
444.5
 11
-22.4606
 21
443.873
  0
LINE
  8
0
 10
-22.4606
 20
443.873
 11
-22.3429
 21
443.257
  0
LINE
  8
0
 10
-22.3429
 20
443.257
 11
-22.1489
 21
442.659
  0
LINE
  8
0
 10
-22.1489
 20
442.659
 11
-21.8815
 21
442.091
  0
LINE
  8
0
 10
-21.8815
 20
442.091
 11
-21.5451
 21
441.561
  0
LINE
  8
0
 10
-21.5451
 20
441.561
 11
-21.1448
 21
441.077
  0
LINE
  8
0
 10
-21.1448
 20
441.077
 11
-20.6871
 21
440.647
  0
LINE
  8
0
 10
-20.6871
 20
440.647
 11
-20.1791
 21
440.278
  0
LINE
  8
0
 10
-20.1791
 20
440.278
 11
-19.6289
 21
439.976
  0
LINE
  8
0
 10
-19.6289
 20
439.976
 11
-19.0451
 21
439.745
  0
LINE
  8
0
 10
-19.0451
 20
439.745
 11
-18.4369
 21
439.589
  0
LINE
  8
0
 10
-18.4369
 20
439.589
 11
-17.8139
 21
439.51
  0
LINE
  8
0
 10
-17.8139
 20
439.51
 11
17.8139
 21
439.51
  0
LINE
  8
0
 10
17.8139
 20
439.51
 11
18.4369
 21
439.589
  0
LINE
  8
0
 10
18.4369
 20
265.589
 11
19.0451
 21
265.745
  0
LINE
  8
0
 10
19.0451
 20
265.745
 11
19.6289
 21
265.976
  0
LINE
  8
0
 10
19.6289
 20
265.976
 11
20.1791
 21
266.278
  0
LINE
  8
0
 10
20.1791
 20
266.278
 11
20.6871
 21
266.647
  0
LINE
  8
0
 10
20.6871
 20
266.647
 11
21.1448
 21
267.077
  0
LINE
  8
0
 10
21.1448
 20
267.077
 11
21.5451
 21
267.561
  0
LINE
  8
0
 10
21.5451
 20
267.561
 11
21.8815
 21
268.091
  0
LINE
  8
0
 10
21.8815
 20
268.091
 11
22.1489
 21
268.659
  0
LINE
  8
0
 10
22.1489
 20
268.659
 11
22.3429
 21
269.257
  0
LINE
  8
0
 10
22.3429
 20
269.257
 11
22.4606
 21
269.873
  0
LINE
  8
0
 10
22.4606
 20
269.873
 11
22.5
 21
270.5
  0
LINE
  8
0
 10
22.5
 20
270.5
 11
22.5
 21
425.5
  0
LINE
  8
0
 10
22.5
 20
425.5
 11
22.4606
 21
426.127
  0
LINE
  8
0
 10
22.4606
 20
426.127
 11
22.3429
 21
426.743
  0
LINE
  8
0
 10
22.3429
 20
426.743
 11
22.1489
 21
427.341
  0
LINE
  8
0
 10
22.1489
 20
427.341
 11
21.8815
 21
427.909
  0
LINE
  8
0
 10
21.8815
 20
427.909
 11
21.5451
 21
428.439
  0
LINE
  8
0
 10
21.5451
 20
428.439
 11
21.1448
 21
428.923
  0
LINE
  8
0
 10
21.1448
 20
428.923
 11
20.6871
 21
429.353
  0
LINE
  8
0
 10
20.6871
 20
429.353
 11
20.1791
 21
429.722
  0
LINE
  8
0
 10
20.1791
 20
429.722
 11
19.6289
 21
430.024
  0
LINE
  8
0
 10
19.6289
 20
430.024
 11
19.0451
 21
430.255
  0
LINE
  8
0
 10
19.0451
 20
430.255
 11
18.4369
 21
430.411
  0
LINE
  8
0
 10
18.4369
 20
430.411
 11
17.8139
 21
430.49
  0
LINE
  8
0
 10
17.8139
 20
430.49
 11
-17.8139
 21
430.49
  0
LINE
  8
0
 10
-17.8139
 20
430.49
 11
-18.4369
 21
430.411
  0
LINE
  8
0
 10
-18.4369
 20
430.411
 11
-19.0451
 21
430.255
  0
LINE
  8
0
 10
-19.0451
 20
430.255
 11
-19.6289
 21
430.024
  0
LINE
  8
0
 10
-19.6289
 20
430.024
 11
-20.1791
 21
429.722
  0
LINE
  8
0
 10
-20.1791
 20
429.722
 11
-20.6871
 21
429.353
  0
LINE
  8
0
 10
-20.6871
 20
429.353
 11
-21.1448
 21
428.923
  0
LINE
  8
0
 10
-21.1448
 20
428.923
 11
-21.5451
 21
428.439
  0
LINE
  8
0
 10
-21.5451
 20
428.439
 11
-21.8815
 21
427.909
  0
LINE
  8
0
 10
-21.8815
 20
427.909
 11
-22.1489
 21
427.341
  0
LINE
  8
0
 10
-22.1489
 20
427.341
 11
-22.3429
 21
426.743
  0
LINE
  8
0
 10
-22.3429
 20
426.743
 11
-22.4606
 21
426.127
  0
LINE
  8
0
 10
-22.4606
 20
426.127
 11
-22.5
 21
425.5
  0
LINE
  8
0
 10
-22.5
 20
425.5
 11
-22.5
 21
270.5
  0
LINE
  8
0
 10
-22.5
 20
270.5
 11
-22.4606
 21
269.873
  0
LINE
  8
0
 10
-22.4606
 20
269.873
 11
-22.3429
 21
269.257
  0
LINE
  8
0
 10
-22.3429
 20
269.257
 11
-22.1489
 21
268.659
  0
LINE
  8
0
 10
-22.1489
 20
268.659
 11
-21.8815
 21
268.091
  0
LINE
  8
0
 10
-21.8815
 20
268.091
 11
-21.5451
 21
267.561
  0
LINE
  8
0
 10
-21.5451
 20
267.561
 11
-21.1448
 21
267.077
  0
LINE
  8
0
 10
-21.1448
 20
267.077
 11
-20.6871
 21
266.647
  0
LINE
  8
0
 10
-20.6871
 20
266.647
 11
-20.1791
 21
266.278
  0
LINE
  8
0
 10
-20.1791
 20
266.278
 11
-19.6289
 21
265.976
  0
LINE
  8
0
 10
-19.6289
 20
265.976
 11
-19.0451
 21
265.745
  0
LINE
  8
0
 10
-19.0451
 20
265.745
 11
-18.4369
 21
265.589
  0
LINE
  8
0
 10
-18.4369
 20
265.589
 11
-17.8139
 21
265.51
  0
LINE
  8
0
 10
-17.8139
 20
265.51
 11
17.8139
 21
265.51
  0
LINE
  8
0
 10
17.8139
 20
265.51
 11
18.4369
 21
265.589
  0
LINE
  8
0
 10
14.887
 20
421.204
 11
14.6627
 21
421.232
  0
LINE
  8
0
 10
14.6627
 20
421.232
 11
14.4438
 21
421.288
  0
LINE
  8
0
 10
14.4438
 20
421.288
 11
14.2336
 21
421.371
  0
LINE
  8
0
 10
14.2336
 20
421.371
 11
14.0355
 21
421.48
  0
LINE
  8
0
 10
14.0355
 20
421.48
 11
13.8526
 21
421.613
  0
LINE
  8
0
 10
13.8526
 20
421.613
 11
13.6879
 21
421.768
  0
LINE
  8
0
 10
13.6879
 20
421.768
 11
13.5438
 21
421.942
  0
LINE
  8
0
 10
13.5438
 20
421.942
 11
13.4226
 21
422.133
  0
LINE
  8
0
 10
13.4226
 20
422.133
 11
13.3264
 21
422.337
  0
LINE
  8
0
 10
13.3264
 20
422.337
 11
13.2565
 21
422.552
  0
LINE
  8
0
 10
13.2565
 20
422.552
 11
13.2142
 21
422.774
  0
LINE
  8
0
 10
13.2142
 20
422.774
 11
13.2
 21
423
  0
LINE
  8
0
 10
13.2
 20
423
 11
13.2142
 21
423.226
  0
LINE
  8
0
 10
13.2142
 20
423.226
 11
13.2565
 21
423.448
  0
LINE
  8
0
 10
13.2565
 20
423.448
 11
13.3264
 21
423.663
  0
LINE
  8
0
 10
13.3264
 20
423.663
 11
13.4226
 21
423.867
  0
LINE
  8
0
 10
13.4226
 20
423.867
 11
13.5438
 21
424.058
  0
LINE
  8
0
 10
13.5438
 20
424.058
 11
13.6879
 21
424.232
  0
LINE
  8
0
 10
13.6879
 20
424.232
 11
13.8526
 21
424.387
  0
LINE
  8
0
 10
13.8526
 20
424.387
 11
14.0355
 21
424.52
  0
LINE
  8
0
 10
14.0355
 20
424.52
 11
14.2336
 21
424.629
  0
LINE
  8
0
 10
14.2336
 20
424.629
 11
14.4438
 21
424.712
  0
LINE
  8
0
 10
14.4438
 20
424.712
 11
14.6627
 21
424.768
  0
LINE
  8
0
 10
14.6627
 20
424.768
 11
14.887
 21
424.796
  0
LINE
  8
0
 10
14.887
 20
424.796
 11
15.113
 21
424.796
  0
LINE
  8
0
 10
15.113
 20
424.796
 11
15.3373
 21
424.768
  0
LINE
  8
0
 10
15.3373
 20
424.768
 11
15.5562
 21
424.712
  0
LINE
  8
0
 10
15.5562
 20
424.712
 11
15.7664
 21
424.629
  0
LINE
  8
0
 10
15.7664
 20
424.629
 11
15.9645
 21
424.52
  0
LINE
  8
0
 10
15.9645
 20
424.52
 11
16.1474
 21
424.387
  0
LINE
  8
0
 10
16.1474
 20
424.387
 11
16.3121
 21
424.232
  0
LINE
  8
0
 10
16.3121
 20
424.232
 11
16.4562
 21
424.058
  0
LINE
  8
0
 10
16.4562
 20
424.058
 11
16.5773
 21
423.867
  0
LINE
  8
0
 10
16.5773
 20
423.867
 11
16.6736
 21
423.663
  0
LINE
  8
0
 10
16.6736
 20
423.663
 11
16.7434
 21
423.448
  0
LINE
  8
0
 10
16.7434
 20
423.448
 11
16.7858
 21
423.226
  0
LINE
  8
0
 10
16.7858
 20
423.226
 11
16.8
 21
423
  0
LINE
  8
0
 10
16.8
 20
423
 11
16.7858
 21
422.774
  0
LINE
  8
0
 10
16.7858
 20
422.774
 11
16.7434
 21
422.552
  0
LINE
  8
0
 10
16.7434
 20
422.552
 11
16.6736
 21
422.337
  0
LINE
  8
0
 10
16.6736
 20
422.337
 11
16.5773
 21
422.133
  0
LINE
  8
0
 10
16.5773
 20
422.133
 11
16.4562
 21
421.942
  0
LINE
  8
0
 10
16.4562
 20
421.942
 11
16.3121
 21
421.768
  0
LINE
  8
0
 10
16.3121
 20
421.768
 11
16.1474
 21
421.613
  0
LINE
  8
0
 10
16.1474
 20
421.613
 11
15.9645
 21
421.48
  0
LINE
  8
0
 10
15.9645
 20
421.48
 11
15.7664
 21
421.371
  0
LINE
  8
0
 10
15.7664
 20
421.371
 11
15.5562
 21
421.288
  0
LINE
  8
0
 10
15.5562
 20
421.288
 11
15.3373
 21
421.232
  0
LINE
  8
0
 10
15.3373
 20
421.232
 11
15.113
 21
421.204
  0
LINE
  8
0
 10
15.113
 20
421.204
 11
14.887
 21
421.204
  0
LINE
  8
0
 10
-15.113
 20
421.204
 11
-15.3373
 21
421.232
  0
LINE
  8
0
 10
-15.3373
 20
421.232
 11
-15.5562
 21
421.288
  0
LINE
  8
0
 10
-15.5562
 20
421.288
 11
-15.7664
 21
421.371
  0
LINE
  8
0
 10
-15.7664
 20
421.371
 11
-15.9645
 21
421.48
  0
LINE
  8
0
 10
-15.9645
 20
421.48
 11
-16.1474
 21
421.613
  0
LINE
  8
0
 10
-16.1474
 20
421.613
 11
-16.3121
 21
421.768
  0
LINE
  8
0
 10
-16.3121
 20
421.768
 11
-16.4562
 21
421.942
  0
LINE
  8
0
 10
-16.4562
 20
421.942
 11
-16.5773
 21
422.133
  0
LINE
  8
0
 10
-16.5773
 20
422.133
 11
-16.6736
 21
422.337
  0
LINE
  8
0
 10
-16.6736
 20
422.337
 11
-16.7434
 21
422.552
  0
LINE
  8
0
 10
-16.7434
 20
422.552
 11
-16.7858
 21
422.774
  0
LINE
  8
0
 10
-16.7858
 20
422.774
 11
-16.8
 21
423
  0
LINE
  8
0
 10
-16.8
 20
423
 11
-16.7858
 21
423.226
  0
LINE
  8
0
 10
-16.7858
 20
423.226
 11
-16.7434
 21
423.448
  0
LINE
  8
0
 10
-16.7434
 20
423.448
 11
-16.6736
 21
423.663
  0
LINE
  8
0
 10
-16.6736
 20
423.663
 11
-16.5773
 21
423.867
  0
LINE
  8
0
 10
-16.5773
 20
423.867
 11
-16.4562
 21
424.058
  0
LINE
  8
0
 10
-16.4562
 20
424.058
 11
-16.3121
 21
424.232
  0
LINE
  8
0
 10
-16.3121
 20
424.232
 11
-16.1474
 21
424.387
  0
LINE
  8
0
 10
-16.1474
 20
424.387
 11
-15.9645
 21
424.52
  0
LINE
  8
0
 10
-15.9645
 20
424.52
 11
-15.7664
 21
424.629
  0
LINE
  8
0
 10
-15.7664
 20
424.629
 11
-15.5562
 21
424.712
  0
LINE
  8
0
 10
-15.5562
 20
424.712
 11
-15.3373
 21
424.768
  0
LINE
  8
0
 10
-15.3373
 20
424.768
 11
-15.113
 21
424.796
  0
LINE
  8
0
 10
-15.113
 20
424.796
 11
-14.887
 21
424.796
  0
LINE
  8
0
 10
-14.887
 20
424.796
 11
-14.6627
 21
424.768
  0
LINE
  8
0
 10
-14.6627
 20
424.768
 11
-14.4438
 21
424.712
  0
LINE
  8
0
 10
-14.4438
 20
424.712
 11
-14.2336
 21
424.629
  0
LINE
  8
0
 10
-14.2336
 20
424.629
 11
-14.0355
 21
424.52
  0
LINE
  8
0
 10
-14.0355
 20
424.52
 11
-13.8526
 21
424.387
  0
LINE
  8
0
 10
-13.8526
 20
424.387
 11
-13.6879
 21
424.232
  0
LINE
  8
0
 10
-13.6879
 20
424.232
 11
-13.5438
 21
424.058
  0
LINE
  8
0
 10
-13.5438
 20
424.058
 11
-13.4226
 21
423.867
  0
LINE
  8
0
 10
-13.4226
 20
423.867
 11
-13.3264
 21
423.663
  0
LINE
  8
0
 10
-13.3264
 20
423.663
 11
-13.2565
 21
423.448
  0
LINE
  8
0
 10
-13.2565
 20
423.448
 11
-13.2142
 21
423.226
  0
LINE
  8
0
 10
-13.2142
 20
423.226
 11
-13.2
 21
423
  0
LINE
  8
0
 10
-13.2
 20
423
 11
-13.2142
 21
422.774
  0
LINE
  8
0
 10
-13.2142
 20
422.774
 11
-13.2565
 21
422.552
  0
LINE
  8
0
 10
-13.2565
 20
422.552
 11
-13.3264
 21
422.337
  0
LINE
  8
0
 10
-13.3264
 20
422.337
 11
-13.4226
 21
422.133
  0
LINE
  8
0
 10
-13.4226
 20
422.133
 11
-13.5438
 21
421.942
  0
LINE
  8
0
 10
-13.5438
 20
421.942
 11
-13.6879
 21
421.768
  0
LINE
  8
0
 10
-13.6879
 20
421.768
 11
-13.8526
 21
421.613
  0
LINE
  8
0
 10
-13.8526
 20
421.613
 11
-14.0355
 21
421.48
  0
LINE
  8
0
 10
-14.0355
 20
421.48
 11
-14.2336
 21
421.371
  0
LINE
  8
0
 10
-14.2336
 20
421.371
 11
-14.4438
 21
421.288
  0
LINE
  8
0
 10
-14.4438
 20
421.288
 11
-14.6627
 21
421.232
  0
LINE
  8
0
 10
-14.6627
 20
421.232
 11
-14.887
 21
421.204
  0
LINE
  8
0
 10
-14.887
 20
421.204
 11
-15.113
 21
421.204
  0
LINE
  8
0
 10
-15.113
 20
271.204
 11
-15.3373
 21
271.232
  0
LINE
  8
0
 10
-15.3373
 20
271.232
 11
-15.5562
 21
271.288
  0
LINE
  8
0
 10
-15.5562
 20
271.288
 11
-15.7664
 21
271.371
  0
LINE
  8
0
 10
-15.7664
 20
271.371
 11
-15.9645
 21
271.48
  0
LINE
  8
0
 10
-15.9645
 20
271.48
 11
-16.1474
 21
271.613
  0
LINE
  8
0
 10
-16.1474
 20
271.613
 11
-16.3121
 21
271.768
  0
LINE
  8
0
 10
-16.3121
 20
271.768
 11
-16.4562
 21
271.942
  0
LINE
  8
0
 10
-16.4562
 20
271.942
 11
-16.5773
 21
272.133
  0
LINE
  8
0
 10
-16.5773
 20
272.133
 11
-16.6736
 21
272.337
  0
LINE
  8
0
 10
-16.6736
 20
272.337
 11
-16.7434
 21
272.552
  0
LINE
  8
0
 10
-16.7434
 20
272.552
 11
-16.7858
 21
272.774
  0
LINE
  8
0
 10
-16.7858
 20
272.774
 11
-16.8
 21
273
  0
LINE
  8
0
 10
-16.8
 20
273
 11
-16.7858
 21
273.226
  0
LINE
  8
0
 10
-16.7858
 20
273.226
 11
-16.7434
 21
273.448
  0
LINE
  8
0
 10
-16.7434
 20
273.448
 11
-16.6736
 21
273.663
  0
LINE
  8
0
 10
-16.6736
 20
273.663
 11
-16.5773
 21
273.867
  0
LINE
  8
0
 10
-16.5773
 20
273.867
 11
-16.4562
 21
274.058
  0
LINE
  8
0
 10
-16.4562
 20
274.058
 11
-16.3121
 21
274.232
  0
LINE
  8
0
 10
-16.3121
 20
274.232
 11
-16.1474
 21
274.387
  0
LINE
  8
0
 10
-16.1474
 20
274.387
 11
-15.9645
 21
274.52
  0
LINE
  8
0
 10
-15.9645
 20
274.52
 11
-15.7664
 21
274.629
  0
LINE
  8
0
 10
-15.7664
 20
274.629
 11
-15.5562
 21
274.712
  0
LINE
  8
0
 10
-15.5562
 20
274.712
 11
-15.3373
 21
274.768
  0
LINE
  8
0
 10
-15.3373
 20
274.768
 11
-15.113
 21
274.796
  0
LINE
  8
0
 10
-15.113
 20
274.796
 11
-14.887
 21
274.796
  0
LINE
  8
0
 10
-14.887
 20
274.796
 11
-14.6627
 21
274.768
  0
LINE
  8
0
 10
-14.6627
 20
274.768
 11
-14.4438
 21
274.712
  0
LINE
  8
0
 10
-14.4438
 20
274.712
 11
-14.2336
 21
274.629
  0
LINE
  8
0
 10
-14.2336
 20
274.629
 11
-14.0355
 21
274.52
  0
LINE
  8
0
 10
-14.0355
 20
274.52
 11
-13.8526
 21
274.387
  0
LINE
  8
0
 10
-13.8526
 20
274.387
 11
-13.6879
 21
274.232
  0
LINE
  8
0
 10
-13.6879
 20
274.232
 11
-13.5438
 21
274.058
  0
LINE
  8
0
 10
-13.5438
 20
274.058
 11
-13.4226
 21
273.867
  0
LINE
  8
0
 10
-13.4226
 20
273.867
 11
-13.3264
 21
273.663
  0
LINE
  8
0
 10
-13.3264
 20
273.663
 11
-13.2565
 21
273.448
  0
LINE
  8
0
 10
-13.2565
 20
273.448
 11
-13.2142
 21
273.226
  0
LINE
  8
0
 10
-13.2142
 20
273.226
 11
-13.2
 21
273
  0
LINE
  8
0
 10
-13.2
 20
273
 11
-13.2142
 21
272.774
  0
LINE
  8
0
 10
-13.2142
 20
272.774
 11
-13.2565
 21
272.552
  0
LINE
  8
0
 10
-13.2565
 20
272.552
 11
-13.3264
 21
272.337
  0
LINE
  8
0
 10
-13.3264
 20
272.337
 11
-13.4226
 21
272.133
  0
LINE
  8
0
 10
-13.4226
 20
272.133
 11
-13.5438
 21
271.942
  0
LINE
  8
0
 10
-13.5438
 20
271.942
 11
-13.6879
 21
271.768
  0
LINE
  8
0
 10
-13.6879
 20
271.768
 11
-13.8526
 21
271.613
  0
LINE
  8
0
 10
-13.8526
 20
271.613
 11
-14.0355
 21
271.48
  0
LINE
  8
0
 10
-14.0355
 20
271.48
 11
-14.2336
 21
271.371
  0
LINE
  8
0
 10
-14.2336
 20
271.371
 11
-14.4438
 21
271.288
  0
LINE
  8
0
 10
-14.4438
 20
271.288
 11
-14.6627
 21
271.232
  0
LINE
  8
0
 10
-14.6627
 20
271.232
 11
-14.887
 21
271.204
  0
LINE
  8
0
 10
-14.887
 20
271.204
 11
-15.113
 21
271.204
  0
LINE
  8
0
 10
14.887
 20
271.204
 11
14.6627
 21
271.232
  0
LINE
  8
0
 10
14.6627
 20
271.232
 11
14.4438
 21
271.288
  0
LINE
  8
0
 10
14.4438
 20
271.288
 11
14.2336
 21
271.371
  0
LINE
  8
0
 10
14.2336
 20
271.371
 11
14.0355
 21
271.48
  0
LINE
  8
0
 10
14.0355
 20
271.48
 11
13.8526
 21
271.613
  0
LINE
  8
0
 10
13.8526
 20
271.613
 11
13.6879
 21
271.768
  0
LINE
  8
0
 10
13.6879
 20
271.768
 11
13.5438
 21
271.942
  0
LINE
  8
0
 10
13.5438
 20
271.942
 11
13.4226
 21
272.133
  0
LINE
  8
0
 10
13.4226
 20
272.133
 11
13.3264
 21
272.337
  0
LINE
  8
0
 10
13.3264
 20
272.337
 11
13.2565
 21
272.552
  0
LINE
  8
0
 10
13.2565
 20
272.552
 11
13.2142
 21
272.774
  0
LINE
  8
0
 10
13.2142
 20
272.774
 11
13.2
 21
273
  0
LINE
  8
0
 10
13.2
 20
273
 11
13.2142
 21
273.226
  0
LINE
  8
0
 10
13.2142
 20
273.226
 11
13.2565
 21
273.448
  0
LINE
  8
0
 10
13.2565
 20
273.448
 11
13.3264
 21
273.663
  0
LINE
  8
0
 10
13.3264
 20
273.663
 11
13.4226
 21
273.867
  0
LINE
  8
0
 10
13.4226
 20
273.867
 11
13.5438
 21
274.058
  0
LINE
  8
0
 10
13.5438
 20
274.058
 11
13.6879
 21
274.232
  0
LINE
  8
0
 10
13.6879
 20
274.232
 11
13.8526
 21
274.387
  0
LINE
  8
0
 10
13.8526
 20
274.387
 11
14.0355
 21
274.52
  0
LINE
  8
0
 10
14.0355
 20
274.52
 11
14.2336
 21
274.629
  0
LINE
  8
0
 10
14.2336
 20
274.629
 11
14.4438
 21
274.712
  0
LINE
  8
0
 10
14.4438
 20
274.712
 11
14.6627
 21
274.768
  0
LINE
  8
0
 10
14.6627
 20
274.768
 11
14.887
 21
274.796
  0
LINE
  8
0
 10
14.887
 20
274.796
 11
15.113
 21
274.796
  0
LINE
  8
0
 10
15.113
 20
274.796
 11
15.3373
 21
274.768
  0
LINE
  8
0
 10
15.3373
 20
274.768
 11
15.5562
 21
274.712
  0
LINE
  8
0
 10
15.5562
 20
274.712
 11
15.7664
 21
274.629
  0
LINE
  8
0
 10
15.7664
 20
274.629
 11
15.9645
 21
274.52
  0
LINE
  8
0
 10
15.9645
 20
274.52
 11
16.1474
 21
274.387
  0
LINE
  8
0
 10
16.1474
 20
274.387
 11
16.3121
 21
274.232
  0
LINE
  8
0
 10
16.3121
 20
274.232
 11
16.4562
 21
274.058
  0
LINE
  8
0
 10
16.4562
 20
274.058
 11
16.5773
 21
273.867
  0
LINE
  8
0
 10
16.5773
 20
273.867
 11
16.6736
 21
273.663
  0
LINE
  8
0
 10
16.6736
 20
273.663
 11
16.7434
 21
273.448
  0
LINE
  8
0
 10
16.7434
 20
273.448
 11
16.7858
 21
273.226
  0
LINE
  8
0
 10
16.7858
 20
273.226
 11
16.8
 21
273
  0
LINE
  8
0
 10
16.8
 20
273
 11
16.7858
 21
272.774
  0
LINE
  8
0
 10
16.7858
 20
272.774
 11
16.7434
 21
272.552
  0
LINE
  8
0
 10
16.7434
 20
272.552
 11
16.6736
 21
272.337
  0
LINE
  8
0
 10
16.6736
 20
272.337
 11
16.5773
 21
272.133
  0
LINE
  8
0
 10
16.5773
 20
272.133
 11
16.4562
 21
271.942
  0
LINE
  8
0
 10
16.4562
 20
271.942
 11
16.3121
 21
271.768
  0
LINE
  8
0
 10
16.3121
 20
271.768
 11
16.1474
 21
271.613
  0
LINE
  8
0
 10
16.1474
 20
271.613
 11
15.9645
 21
271.48
  0
LINE
  8
0
 10
15.9645
 20
271.48
 11
15.7664
 21
271.371
  0
LINE
  8
0
 10
15.7664
 20
271.371
 11
15.5562
 21
271.288
  0
LINE
  8
0
 10
15.5562
 20
271.288
 11
15.3373
 21
271.232
  0
LINE
  8
0
 10
15.3373
 20
271.232
 11
15.113
 21
271.204
  0
LINE
  8
0
 10
15.113
 20
271.204
 11
14.887
 21
271.204
  0
ENDSEC
  0
SECTION
  2
OBJECTS
  0
DICTIONARY
  0
ENDSEC
  0
EOF
