<?xml version="1.0" standalone="no"?>
<!DOCTYPE svg PUBLIC "-//W3C//DTD SVG 1.1//EN" "http://www.w3.org/Graphics/SVG/1.1/DTD/svg11.dtd">
<svg width="60mm" height="160mm" viewBox="-30 -290 60 160" xmlns="http://www.w3.org/2000/svg" version="1.1">
<title>OpenSCAD Model</title>
<path d="
M 25.9369,-214.589 L 26.5451,-214.745 L 27.1289,-214.976 L 27.6791,-215.278 L 28.1871,-215.647 L 28.6448,-216.077
 L 29.0451,-216.561 L 29.3815,-217.091 L 29.6489,-217.659 L 29.8429,-218.257 L 29.9606,-218.873 L 30,-219.5
 L 30,-284.5 L 29.9606,-285.127 L 29.8429,-285.743 L 29.6489,-286.341 L 29.3815,-286.909 L 29.0451,-287.439
 L 28.6448,-287.923 L 28.1871,-288.353 L 27.6791,-288.722 L 27.1289,-289.024 L 26.5451,-289.255 L 25.9369,-289.411
 L 25.3139,-289.49 L -25.3139,-289.49 L -25.9369,-289.411 L -26.5451,-289.255 L -27.1289,-289.024 L -27.6791,-288.722
 L -28.1871,-288.353 L -28.6448,-287.923 L -29.0451,-287.439 L -29.3815,-286.909 L -29.6489,-286.341 L -29.8429,-285.743
 L -29.9606,-285.127 L -30,-284.5 L -30,-219.5 L -29.9606,-218.873 L -29.8429,-218.257 L -29.6489,-217.659
 L -29.3815,-217.091 L -29.0451,-216.561 L -28.6448,-216.077 L -28.1871,-215.647 L -27.6791,-215.278 L -27.1289,-214.976
 L -26.5451,-214.745 L -25.9369,-214.589 L -25.3139,-214.51 L 25.3139,-214.51 z
M -24.6954,-216.893 L -25.0833,-216.942 L -25.4619,-217.039 L -25.8254,-217.183 L -26.168,-217.372 L -26.4842,-217.601
 L -26.7692,-217.869 L -27.0184,-218.17 L -27.2279,-218.5 L -27.3943,-218.854 L -27.5151,-219.226 L -27.5884,-219.61
 L -27.6129,-220 L -27.6129,-284 L -27.5884,-284.39 L -27.5151,-284.774 L -27.3943,-285.146 L -27.2279,-285.5
 L -27.0184,-285.83 L -26.7692,-286.131 L -26.4842,-286.399 L -26.168,-286.628 L -25.8254,-286.817 L -25.4619,-286.961
 L -25.0833,-287.058 L -24.6954,-287.107 L 24.6954,-287.107 L 25.0833,-287.058 L 25.4619,-286.961 L 25.8254,-286.817
 L 26.168,-286.628 L 26.4842,-286.399 L 26.7692,-286.131 L 27.0184,-285.83 L 27.2279,-285.5 L 27.3943,-285.146
 L 27.5151,-284.774 L 27.5884,-284.39 L 27.6129,-284 L 27.6129,-220 L 27.5884,-219.61 L 27.5151,-219.226
 L 27.3943,-218.854 L 27.2279,-218.5 L 27.0184,-218.17 L 26.7692,-217.869 L 26.4842,-217.601 L 26.168,-217.372
 L 25.8254,-217.183 L 25.4619,-217.039 L 25.0833,-216.942 L 24.6954,-216.893 z
M 25.9369,-130.589 L 26.5451,-130.745 L 27.1289,-130.976 L 27.6791,-131.278 L 28.1871,-131.647 L 28.6448,-132.077
 L 29.0451,-132.561 L 29.3815,-133.091 L 29.6489,-133.659 L 29.8429,-134.257 L 29.9606,-134.873 L 30,-135.5
 L 30,-200.5 L 29.9606,-201.127 L 29.8429,-201.743 L 29.6489,-202.341 L 29.3815,-202.909 L 29.0451,-203.439
 L 28.6448,-203.923 L 28.1871,-204.353 L 27.6791,-204.722 L 27.1289,-205.024 L 26.5451,-205.255 L 25.9369,-205.411
 L 25.3139,-205.49 L -25.3139,-205.49 L -25.9369,-205.411 L -26.5451,-205.255 L -27.1289,-205.024 L -27.6791,-204.722
 L -28.1871,-204.353 L -28.6448,-203.923 L -29.0451,-203.439 L -29.3815,-202.909 L -29.6489,-202.341 L -29.8429,-201.743
 L -29.9606,-201.127 L -30,-200.5 L -30,-135.5 L -29.9606,-134.873 L -29.8429,-134.257 L -29.6489,-133.659
 L -29.3815,-133.091 L -29.0451,-132.561 L -28.6448,-132.077 L -28.1871,-131.647 L -27.6791,-131.278 L -27.1289,-130.976
 L -26.5451,-130.745 L -25.9369,-130.589 L -25.3139,-130.51 L 25.3139,-130.51 z
M 22.3659,-195.869 L 22.0999,-195.903 L 21.8401,-195.969 L 21.5908,-196.068 L 21.3559,-196.197 L 21.1389,-196.355
 L 20.9434,-196.538 L 20.7725,-196.745 L 20.6288,-196.971 L 20.5146,-197.214 L 20.4318,-197.469 L 20.3815,-197.732
 L 20.3647,-198 L 20.3815,-198.268 L 20.4318,-198.531 L 20.5146,-198.786 L 20.6288,-199.029 L 20.7725,-199.255
 L 20.9434,-199.462 L 21.1389,-199.645 L 21.3559,-199.803 L 21.5908,-199.932 L 21.8401,-200.031 L 22.0999,-200.097
 L 22.3659,-200.131 L 22.6341,-200.131 L 22.9001,-200.097 L 23.1598,-200.031 L 23.4091,-199.932 L 23.6441,-199.803
 L 23.8611,-199.645 L 24.0565,-199.462 L 24.2275,-199.255 L 24.3712,-199.029 L 24.4853,-198.786 L 24.5682,-198.531
 L 24.6185,-198.268 L 24.6353,-198 L 24.6185,-197.732 L 24.5682,-197.469 L 24.4853,-197.214 L 24.3712,-196.971
 L 24.2275,-196.745 L 24.0565,-196.538 L 23.8611,-196.355 L 23.6441,-196.197 L 23.4091,-196.068 L 23.1598,-195.969
 L 22.9001,-195.903 L 22.6341,-195.869 z
M -22.6341,-195.869 L -22.9001,-195.903 L -23.1598,-195.969 L -23.4091,-196.068 L -23.6441,-196.197 L -23.8611,-196.355
 L -24.0565,-196.538 L -24.2275,-196.745 L -24.3712,-196.971 L -24.4853,-197.214 L -24.5682,-197.469 L -24.6185,-197.732
 L -24.6353,-198 L -24.6185,-198.268 L -24.5682,-198.531 L -24.4853,-198.786 L -24.3712,-199.029 L -24.2275,-199.255
 L -24.0565,-199.462 L -23.8611,-199.645 L -23.6441,-199.803 L -23.4091,-199.932 L -23.1598,-200.031 L -22.9001,-200.097
 L -22.6341,-200.131 L -22.3659,-200.131 L -22.0999,-200.097 L -21.8401,-200.031 L -21.5908,-199.932 L -21.3559,-199.803
 L -21.1389,-199.645 L -20.9434,-199.462 L -20.7725,-199.255 L -20.6288,-199.029 L -20.5146,-198.786 L -20.4318,-198.531
 L -20.3815,-198.268 L -20.3647,-198 L -20.3815,-197.732 L -20.4318,-197.469 L -20.5146,-197.214 L -20.6288,-196.971
 L -20.7725,-196.745 L -20.9434,-196.538 L -21.1389,-196.355 L -21.3559,-196.197 L -21.5908,-196.068 L -21.8401,-195.969
 L -22.0999,-195.903 L -22.3659,-195.869 z
M 22.3659,-135.869 L 22.0999,-135.903 L 21.8401,-135.969 L 21.5908,-136.068 L 21.3559,-136.197 L 21.1389,-136.355
 L 20.9434,-136.538 L 20.7725,-136.745 L 20.6288,-136.971 L 20.5146,-137.214 L 20.4318,-137.469 L 20.3815,-137.732
 L 20.3647,-138 L 20.3815,-138.268 L 20.4318,-138.531 L 20.5146,-138.786 L 20.6288,-139.029 L 20.7725,-139.255
 L 20.9434,-139.462 L 21.1389,-139.645 L 21.3559,-139.803 L 21.5908,-139.932 L 21.8401,-140.031 L 22.0999,-140.097
 L 22.3659,-140.131 L 22.6341,-140.131 L 22.9001,-140.097 L 23.1598,-140.031 L 23.4091,-139.932 L 23.6441,-139.803
 L 23.8611,-139.645 L 24.0565,-139.462 L 24.2275,-139.255 L 24.3712,-139.029 L 24.4853,-138.786 L 24.5682,-138.531
 L 24.6185,-138.268 L 24.6353,-138 L 24.6185,-137.732 L 24.5682,-137.469 L 24.4853,-137.214 L 24.3712,-136.971
 L 24.2275,-136.745 L 24.0565,-136.538 L 23.8611,-136.355 L 23.6441,-136.197 L 23.4091,-136.068 L 23.1598,-135.969
 L 22.9001,-135.903 L 22.6341,-135.869 z
M -22.6341,-135.869 L -22.9001,-135.903 L -23.1598,-135.969 L -23.4091,-136.068 L -23.6441,-136.197 L -23.8611,-136.355
 L -24.0565,-136.538 L -24.2275,-136.745 L -24.3712,-136.971 L -24.4853,-137.214 L -24.5682,-137.469 L -24.6185,-137.732
 L -24.6353,-138 L -24.6185,-138.268 L -24.5682,-138.531 L -24.4853,-138.786 L -24.3712,-139.029 L -24.2275,-139.255
 L -24.0565,-139.462 L -23.8611,-139.645 L -23.6441,-139.803 L -23.4091,-139.932 L -23.1598,-140.031 L -22.9001,-140.097
 L -22.6341,-140.131 L -22.3659,-140.131 L -22.0999,-140.097 L -21.8401,-140.031 L -21.5908,-139.932 L -21.3559,-139.803
 L -21.1389,-139.645 L -20.9434,-139.462 L -20.7725,-139.255 L -20.6288,-139.029 L -20.5146,-138.786 L -20.4318,-138.531
 L -20.3815,-138.268 L -20.3647,-138 L -20.3815,-137.732 L -20.4318,-137.469 L -20.5146,-137.214 L -20.6288,-136.971
 L -20.7725,-136.745 L -20.9434,-136.538 L -21.1389,-136.355 L -21.3559,-136.197 L -21.5908,-136.068 L -21.8401,-135.969
 L -22.0999,-135.903 L -22.3659,-135.869 z
" stroke="black" fill="lightgray" stroke-width="0.5"/>
</svg>
