<?xml version="1.0" standalone="no"?>
<!DOCTYPE svg PUBLIC "-//W3C//DTD SVG 1.1//EN" "http://www.w3.org/Graphics/SVG/1.1/DTD/svg11.dtd">
<svg width="46mm" height="244mm" viewBox="-23 -458 46 244" xmlns="http://www.w3.org/2000/svg" version="1.1">
<title>OpenSCAD Model</title>
<path d="
M 18.4369,-382.589 L 19.0451,-382.745 L 19.6289,-382.976 L 20.1791,-383.278 L 20.6871,-383.647 L 21.1448,-384.077
 L 21.5451,-384.561 L 21.8815,-385.091 L 22.1489,-385.659 L 22.3429,-386.257 L 22.4606,-386.873 L 22.5,-387.5
 L 22.5,-452.5 L 22.4606,-453.127 L 22.3429,-453.743 L 22.1489,-454.341 L 21.8815,-454.909 L 21.5451,-455.439
 L 21.1448,-455.923 L 20.6871,-456.353 L 20.1791,-456.722 L 19.6289,-457.024 L 19.0451,-457.255 L 18.4369,-457.411
 L 17.8139,-457.49 L -17.8139,-457.49 L -18.4369,-457.411 L -19.0451,-457.255 L -19.6289,-457.024 L -20.1791,-456.722
 L -20.6871,-456.353 L -21.1448,-455.923 L -21.5451,-455.439 L -21.8815,-454.909 L -22.1489,-454.341 L -22.3429,-453.743
 L -22.4606,-453.127 L -22.5,-452.5 L -22.5,-387.5 L -22.4606,-386.873 L -22.3429,-386.257 L -22.1489,-385.659
 L -21.8815,-385.091 L -21.5451,-384.561 L -21.1448,-384.077 L -20.6871,-383.647 L -20.1791,-383.278 L -19.6289,-382.976
 L -19.0451,-382.745 L -18.4369,-382.589 L -17.8139,-382.51 L 17.8139,-382.51 z
M -17.2512,-384.008 L -17.7495,-384.071 L -18.2361,-384.196 L -18.7031,-384.381 L -19.1433,-384.623 L -19.5497,-384.918
 L -19.9159,-385.262 L -20.2361,-385.649 L -20.5052,-386.073 L -20.7191,-386.528 L -20.8743,-387.005 L -20.9684,-387.499
 L -21,-388 L -21,-452 L -20.9684,-452.501 L -20.8743,-452.995 L -20.7191,-453.472 L -20.5052,-453.927
 L -20.2361,-454.351 L -19.9159,-454.738 L -19.5497,-455.082 L -19.1433,-455.377 L -18.7031,-455.619 L -18.2361,-455.804
 L -17.7495,-455.929 L -17.2512,-455.992 L 17.2512,-455.992 L 17.7495,-455.929 L 18.2361,-455.804 L 18.7031,-455.619
 L 19.1433,-455.377 L 19.5497,-455.082 L 19.9159,-454.738 L 20.2361,-454.351 L 20.5052,-453.927 L 20.7191,-453.472
 L 20.8743,-452.995 L 20.9684,-452.501 L 21,-452 L 21,-388 L 20.9684,-387.499 L 20.8743,-387.005
 L 20.7191,-386.528 L 20.5052,-386.073 L 20.2361,-385.649 L 19.9159,-385.262 L 19.5497,-384.918 L 19.1433,-384.623
 L 18.7031,-384.381 L 18.2361,-384.196 L 17.7495,-384.071 L 17.2512,-384.008 z
M 18.4369,-298.589 L 19.0451,-298.745 L 19.6289,-298.976 L 20.1791,-299.278 L 20.6871,-299.647 L 21.1448,-300.077
 L 21.5451,-300.561 L 21.8815,-301.091 L 22.1489,-301.659 L 22.3429,-302.257 L 22.4606,-302.873 L 22.5,-303.5
 L 22.5,-368.5 L 22.4606,-369.127 L 22.3429,-369.743 L 22.1489,-370.341 L 21.8815,-370.909 L 21.5451,-371.439
 L 21.1448,-371.923 L 20.6871,-372.353 L 20.1791,-372.722 L 19.6289,-373.024 L 19.0451,-373.255 L 18.4369,-373.411
 L 17.8139,-373.49 L -17.8139,-373.49 L -18.4369,-373.411 L -19.0451,-373.255 L -19.6289,-373.024 L -20.1791,-372.722
 L -20.6871,-372.353 L -21.1448,-371.923 L -21.5451,-371.439 L -21.8815,-370.909 L -22.1489,-370.341 L -22.3429,-369.743
 L -22.4606,-369.127 L -22.5,-368.5 L -22.5,-303.5 L -22.4606,-302.873 L -22.3429,-302.257 L -22.1489,-301.659
 L -21.8815,-301.091 L -21.5451,-300.561 L -21.1448,-300.077 L -20.6871,-299.647 L -20.1791,-299.278 L -19.6289,-298.976
 L -19.0451,-298.745 L -18.4369,-298.589 L -17.8139,-298.51 L 17.8139,-298.51 z
M -17.1954,-300.893 L -17.5833,-300.942 L -17.9619,-301.039 L -18.3254,-301.183 L -18.668,-301.372 L -18.9842,-301.601
 L -19.2692,-301.869 L -19.5184,-302.17 L -19.7279,-302.5 L -19.8943,-302.854 L -20.0151,-303.226 L -20.0884,-303.61
 L -20.1129,-304 L -20.1129,-368 L -20.0884,-368.39 L -20.0151,-368.774 L -19.8943,-369.146 L -19.7279,-369.5
 L -19.5184,-369.83 L -19.2692,-370.131 L -18.9842,-370.399 L -18.668,-370.628 L -18.3254,-370.817 L -17.9619,-370.961
 L -17.5833,-371.058 L -17.1954,-371.107 L 17.1954,-371.107 L 17.5833,-371.058 L 17.9619,-370.961 L 18.3254,-370.817
 L 18.668,-370.628 L 18.9842,-370.399 L 19.2692,-370.131 L 19.5184,-369.83 L 19.7279,-369.5 L 19.8943,-369.146
 L 20.0151,-368.774 L 20.0884,-368.39 L 20.1129,-368 L 20.1129,-304 L 20.0884,-303.61 L 20.0151,-303.226
 L 19.8943,-302.854 L 19.7279,-302.5 L 19.5184,-302.17 L 19.2692,-301.869 L 18.9842,-301.601 L 18.668,-301.372
 L 18.3254,-301.183 L 17.9619,-301.039 L 17.5833,-300.942 L 17.1954,-300.893 z
M 18.4369,-214.589 L 19.0451,-214.745 L 19.6289,-214.976 L 20.1791,-215.278 L 20.6871,-215.647 L 21.1448,-216.077
 L 21.5451,-216.561 L 21.8815,-217.091 L 22.1489,-217.659 L 22.3429,-218.257 L 22.4606,-218.873 L 22.5,-219.5
 L 22.5,-284.5 L 22.4606,-285.127 L 22.3429,-285.743 L 22.1489,-286.341 L 21.8815,-286.909 L 21.5451,-287.439
 L 21.1448,-287.923 L 20.6871,-288.353 L 20.1791,-288.722 L 19.6289,-289.024 L 19.0451,-289.255 L 18.4369,-289.411
 L 17.8139,-289.49 L -17.8139,-289.49 L -18.4369,-289.411 L -19.0451,-289.255 L -19.6289,-289.024 L -20.1791,-288.722
 L -20.6871,-288.353 L -21.1448,-287.923 L -21.5451,-287.439 L -21.8815,-286.909 L -22.1489,-286.341 L -22.3429,-285.743
 L -22.4606,-285.127 L -22.5,-284.5 L -22.5,-219.5 L -22.4606,-218.873 L -22.3429,-218.257 L -22.1489,-217.659
 L -21.8815,-217.091 L -21.5451,-216.561 L -21.1448,-216.077 L -20.6871,-215.647 L -20.1791,-215.278 L -19.6289,-214.976
 L -19.0451,-214.745 L -18.4369,-214.589 L -17.8139,-214.51 L 17.8139,-214.51 z
M 14.8659,-279.869 L 14.5999,-279.903 L 14.3401,-279.969 L 14.0908,-280.068 L 13.8559,-280.197 L 13.6389,-280.355
 L 13.4434,-280.538 L 13.2725,-280.745 L 13.1288,-280.971 L 13.0146,-281.214 L 12.9318,-281.469 L 12.8815,-281.732
 L 12.8647,-282 L 12.8815,-282.268 L 12.9318,-282.531 L 13.0146,-282.786 L 13.1288,-283.029 L 13.2725,-283.255
 L 13.4434,-283.462 L 13.6389,-283.645 L 13.8559,-283.803 L 14.0908,-283.932 L 14.3401,-284.031 L 14.5999,-284.097
 L 14.8659,-284.131 L 15.1341,-284.131 L 15.4001,-284.097 L 15.6598,-284.031 L 15.9091,-283.932 L 16.1441,-283.803
 L 16.3611,-283.645 L 16.5565,-283.462 L 16.7275,-283.255 L 16.8712,-283.029 L 16.9853,-282.786 L 17.0682,-282.531
 L 17.1185,-282.268 L 17.1353,-282 L 17.1185,-281.732 L 17.0682,-281.469 L 16.9853,-281.214 L 16.8712,-280.971
 L 16.7275,-280.745 L 16.5565,-280.538 L 16.3611,-280.355 L 16.1441,-280.197 L 15.9091,-280.068 L 15.6598,-279.969
 L 15.4001,-279.903 L 15.1341,-279.869 z
M -15.1341,-279.869 L -15.4001,-279.903 L -15.6598,-279.969 L -15.9091,-280.068 L -16.1441,-280.197 L -16.3611,-280.355
 L -16.5565,-280.538 L -16.7275,-280.745 L -16.8712,-280.971 L -16.9853,-281.214 L -17.0682,-281.469 L -17.1185,-281.732
 L -17.1353,-282 L -17.1185,-282.268 L -17.0682,-282.531 L -16.9853,-282.786 L -16.8712,-283.029 L -16.7275,-283.255
 L -16.5565,-283.462 L -16.3611,-283.645 L -16.1441,-283.803 L -15.9091,-283.932 L -15.6598,-284.031 L -15.4001,-284.097
 L -15.1341,-284.131 L -14.8659,-284.131 L -14.5999,-284.097 L -14.3401,-284.031 L -14.0908,-283.932 L -13.8559,-283.803
 L -13.6389,-283.645 L -13.4434,-283.462 L -13.2725,-283.255 L -13.1288,-283.029 L -13.0146,-282.786 L -12.9318,-282.531
 L -12.8815,-282.268 L -12.8647,-282 L -12.8815,-281.732 L -12.9318,-281.469 L -13.0146,-281.214 L -13.1288,-280.971
 L -13.2725,-280.745 L -13.4434,-280.538 L -13.6389,-280.355 L -13.8559,-280.197 L -14.0908,-280.068 L -14.3401,-279.969
 L -14.5999,-279.903 L -14.8659,-279.869 z
M 14.8659,-219.869 L 14.5999,-219.903 L 14.3401,-219.969 L 14.0908,-220.068 L 13.8559,-220.197 L 13.6389,-220.355
 L 13.4434,-220.538 L 13.2725,-220.745 L 13.1288,-220.971 L 13.0146,-221.214 L 12.9318,-221.469 L 12.8815,-221.732
 L 12.8647,-222 L 12.8815,-222.268 L 12.9318,-222.531 L 13.0146,-222.786 L 13.1288,-223.029 L 13.2725,-223.255
 L 13.4434,-223.462 L 13.6389,-223.645 L 13.8559,-223.803 L 14.0908,-223.932 L 14.3401,-224.031 L 14.5999,-224.097
 L 14.8659,-224.131 L 15.1341,-224.131 L 15.4001,-224.097 L 15.6598,-224.031 L 15.9091,-223.932 L 16.1441,-223.803
 L 16.3611,-223.645 L 16.5565,-223.462 L 16.7275,-223.255 L 16.8712,-223.029 L 16.9853,-222.786 L 17.0682,-222.531
 L 17.1185,-222.268 L 17.1353,-222 L 17.1185,-221.732 L 17.0682,-221.469 L 16.9853,-221.214 L 16.8712,-220.971
 L 16.7275,-220.745 L 16.5565,-220.538 L 16.3611,-220.355 L 16.1441,-220.197 L 15.9091,-220.068 L 15.6598,-219.969
 L 15.4001,-219.903 L 15.1341,-219.869 z
M -15.1341,-219.869 L -15.4001,-219.903 L -15.6598,-219.969 L -15.9091,-220.068 L -16.1441,-220.197 L -16.3611,-220.355
 L -16.5565,-220.538 L -16.7275,-220.745 L -16.8712,-220.971 L -16.9853,-221.214 L -17.0682,-221.469 L -17.1185,-221.732
 L -17.1353,-222 L -17.1185,-222.268 L -17.0682,-222.531 L -16.9853,-222.786 L -16.8712,-223.029 L -16.7275,-223.255
 L -16.5565,-223.462 L -16.3611,-223.645 L -16.1441,-223.803 L -15.9091,-223.932 L -15.6598,-224.031 L -15.4001,-224.097
 L -15.1341,-224.131 L -14.8659,-224.131 L -14.5999,-224.097 L -14.3401,-224.031 L -14.0908,-223.932 L -13.8559,-223.803
 L -13.6389,-223.645 L -13.4434,-223.462 L -13.2725,-223.255 L -13.1288,-223.029 L -13.0146,-222.786 L -12.9318,-222.531
 L -12.8815,-222.268 L -12.8647,-222 L -12.8815,-221.732 L -12.9318,-221.469 L -13.0146,-221.214 L -13.1288,-220.971
 L -13.2725,-220.745 L -13.4434,-220.538 L -13.6389,-220.355 L -13.8559,-220.197 L -14.0908,-220.068 L -14.3401,-219.969
 L -14.5999,-219.903 L -14.8659,-219.869 z
" stroke="black" fill="lightgray" stroke-width="0.5"/>
</svg>
