  0
SECTION
  2
BLOCKS
  0
ENDSEC
  0
SECTION
  2
ENTITIES
  0
LINE
  8
0
 10
18.4369
 20
220.589
 11
19.0451
 21
220.745
  0
LINE
  8
0
 10
19.0451
 20
220.745
 11
19.6289
 21
220.976
  0
LINE
  8
0
 10
19.6289
 20
220.976
 11
20.1791
 21
221.278
  0
LINE
  8
0
 10
20.1791
 20
221.278
 11
20.6871
 21
221.647
  0
LINE
  8
0
 10
20.6871
 20
221.647
 11
21.1448
 21
222.077
  0
LINE
  8
0
 10
21.1448
 20
222.077
 11
21.5451
 21
222.561
  0
LINE
  8
0
 10
21.5451
 20
222.561
 11
21.8815
 21
223.091
  0
LINE
  8
0
 10
21.8815
 20
223.091
 11
22.1489
 21
223.659
  0
LINE
  8
0
 10
22.1489
 20
223.659
 11
22.3429
 21
224.257
  0
LINE
  8
0
 10
22.3429
 20
224.257
 11
22.4606
 21
224.873
  0
LINE
  8
0
 10
22.4606
 20
224.873
 11
22.5
 21
225.5
  0
LINE
  8
0
 10
22.5
 20
225.5
 11
22.5
 21
350.5
  0
LINE
  8
0
 10
22.5
 20
350.5
 11
22.4606
 21
351.127
  0
LINE
  8
0
 10
22.4606
 20
351.127
 11
22.3429
 21
351.743
  0
LINE
  8
0
 10
22.3429
 20
351.743
 11
22.1489
 21
352.341
  0
LINE
  8
0
 10
22.1489
 20
352.341
 11
21.8815
 21
352.909
  0
LINE
  8
0
 10
21.8815
 20
352.909
 11
21.5451
 21
353.439
  0
LINE
  8
0
 10
21.5451
 20
353.439
 11
21.1448
 21
353.923
  0
LINE
  8
0
 10
21.1448
 20
353.923
 11
20.6871
 21
354.353
  0
LINE
  8
0
 10
20.6871
 20
354.353
 11
20.1791
 21
354.722
  0
LINE
  8
0
 10
20.1791
 20
354.722
 11
19.6289
 21
355.024
  0
LINE
  8
0
 10
19.6289
 20
355.024
 11
19.0451
 21
355.255
  0
LINE
  8
0
 10
19.0451
 20
355.255
 11
18.4369
 21
355.411
  0
LINE
  8
0
 10
18.4369
 20
355.411
 11
17.8139
 21
355.49
  0
LINE
  8
0
 10
17.8139
 20
355.49
 11
-17.8139
 21
355.49
  0
LINE
  8
0
 10
-17.8139
 20
355.49
 11
-18.4369
 21
355.411
  0
LINE
  8
0
 10
-18.4369
 20
355.411
 11
-19.0451
 21
355.255
  0
LINE
  8
0
 10
-19.0451
 20
355.255
 11
-19.6289
 21
355.024
  0
LINE
  8
0
 10
-19.6289
 20
355.024
 11
-20.1791
 21
354.722
  0
LINE
  8
0
 10
-20.1791
 20
354.722
 11
-20.6871
 21
354.353
  0
LINE
  8
0
 10
-20.6871
 20
354.353
 11
-21.1448
 21
353.923
  0
LINE
  8
0
 10
-21.1448
 20
353.923
 11
-21.5451
 21
353.439
  0
LINE
  8
0
 10
-21.5451
 20
353.439
 11
-21.8815
 21
352.909
  0
LINE
  8
0
 10
-21.8815
 20
352.909
 11
-22.1489
 21
352.341
  0
LINE
  8
0
 10
-22.1489
 20
352.341
 11
-22.3429
 21
351.743
  0
LINE
  8
0
 10
-22.3429
 20
351.743
 11
-22.4606
 21
351.127
  0
LINE
  8
0
 10
-22.4606
 20
351.127
 11
-22.5
 21
350.5
  0
LINE
  8
0
 10
-22.5
 20
350.5
 11
-22.5
 21
225.5
  0
LINE
  8
0
 10
-22.5
 20
225.5
 11
-22.4606
 21
224.873
  0
LINE
  8
0
 10
-22.4606
 20
224.873
 11
-22.3429
 21
224.257
  0
LINE
  8
0
 10
-22.3429
 20
224.257
 11
-22.1489
 21
223.659
  0
LINE
  8
0
 10
-22.1489
 20
223.659
 11
-21.8815
 21
223.091
  0
LINE
  8
0
 10
-21.8815
 20
223.091
 11
-21.5451
 21
222.561
  0
LINE
  8
0
 10
-21.5451
 20
222.561
 11
-21.1448
 21
222.077
  0
LINE
  8
0
 10
-21.1448
 20
222.077
 11
-20.6871
 21
221.647
  0
LINE
  8
0
 10
-20.6871
 20
221.647
 11
-20.1791
 21
221.278
  0
LINE
  8
0
 10
-20.1791
 20
221.278
 11
-19.6289
 21
220.976
  0
LINE
  8
0
 10
-19.6289
 20
220.976
 11
-19.0451
 21
220.745
  0
LINE
  8
0
 10
-19.0451
 20
220.745
 11
-18.4369
 21
220.589
  0
LINE
  8
0
 10
-18.4369
 20
220.589
 11
-17.8139
 21
220.51
  0
LINE
  8
0
 10
-17.8139
 20
220.51
 11
17.8139
 21
220.51
  0
LINE
  8
0
 10
17.8139
 20
220.51
 11
18.4369
 21
220.589
  0
LINE
  8
0
 10
18.4369
 20
76.5886
 11
19.0451
 21
76.7447
  0
LINE
  8
0
 10
19.0451
 20
76.7447
 11
19.6289
 21
76.9759
  0
LINE
  8
0
 10
19.6289
 20
76.9759
 11
20.1791
 21
77.2784
  0
LINE
  8
0
 10
20.1791
 20
77.2784
 11
20.6871
 21
77.6474
  0
LINE
  8
0
 10
20.6871
 20
77.6474
 11
21.1448
 21
78.0773
  0
LINE
  8
0
 10
21.1448
 20
78.0773
 11
21.5451
 21
78.5611
  0
LINE
  8
0
 10
21.5451
 20
78.5611
 11
21.8815
 21
79.0912
  0
LINE
  8
0
 10
21.8815
 20
79.0912
 11
22.1489
 21
79.6594
  0
LINE
  8
0
 10
22.1489
 20
79.6594
 11
22.3429
 21
80.2566
  0
LINE
  8
0
 10
22.3429
 20
80.2566
 11
22.4606
 21
80.8733
  0
LINE
  8
0
 10
22.4606
 20
80.8733
 11
22.5
 21
81.5
  0
LINE
  8
0
 10
22.5
 20
81.5
 11
22.5
 21
206.5
  0
LINE
  8
0
 10
22.5
 20
206.5
 11
22.4606
 21
207.127
  0
LINE
  8
0
 10
22.4606
 20
207.127
 11
22.3429
 21
207.743
  0
LINE
  8
0
 10
22.3429
 20
207.743
 11
22.1489
 21
208.341
  0
LINE
  8
0
 10
22.1489
 20
208.341
 11
21.8815
 21
208.909
  0
LINE
  8
0
 10
21.8815
 20
208.909
 11
21.5451
 21
209.439
  0
LINE
  8
0
 10
21.5451
 20
209.439
 11
21.1448
 21
209.923
  0
LINE
  8
0
 10
21.1448
 20
209.923
 11
20.6871
 21
210.353
  0
LINE
  8
0
 10
20.6871
 20
210.353
 11
20.1791
 21
210.722
  0
LINE
  8
0
 10
20.1791
 20
210.722
 11
19.6289
 21
211.024
  0
LINE
  8
0
 10
19.6289
 20
211.024
 11
19.0451
 21
211.255
  0
LINE
  8
0
 10
19.0451
 20
211.255
 11
18.4369
 21
211.411
  0
LINE
  8
0
 10
18.4369
 20
211.411
 11
17.8139
 21
211.49
  0
LINE
  8
0
 10
17.8139
 20
211.49
 11
-17.8139
 21
211.49
  0
LINE
  8
0
 10
-17.8139
 20
211.49
 11
-18.4369
 21
211.411
  0
LINE
  8
0
 10
-18.4369
 20
211.411
 11
-19.0451
 21
211.255
  0
LINE
  8
0
 10
-19.0451
 20
211.255
 11
-19.6289
 21
211.024
  0
LINE
  8
0
 10
-19.6289
 20
211.024
 11
-20.1791
 21
210.722
  0
LINE
  8
0
 10
-20.1791
 20
210.722
 11
-20.6871
 21
210.353
  0
LINE
  8
0
 10
-20.6871
 20
210.353
 11
-21.1448
 21
209.923
  0
LINE
  8
0
 10
-21.1448
 20
209.923
 11
-21.5451
 21
209.439
  0
LINE
  8
0
 10
-21.5451
 20
209.439
 11
-21.8815
 21
208.909
  0
LINE
  8
0
 10
-21.8815
 20
208.909
 11
-22.1489
 21
208.341
  0
LINE
  8
0
 10
-22.1489
 20
208.341
 11
-22.3429
 21
207.743
  0
LINE
  8
0
 10
-22.3429
 20
207.743
 11
-22.4606
 21
207.127
  0
LINE
  8
0
 10
-22.4606
 20
207.127
 11
-22.5
 21
206.5
  0
LINE
  8
0
 10
-22.5
 20
206.5
 11
-22.5
 21
81.5
  0
LINE
  8
0
 10
-22.5
 20
81.5
 11
-22.4606
 21
80.8733
  0
LINE
  8
0
 10
-22.4606
 20
80.8733
 11
-22.3429
 21
80.2566
  0
LINE
  8
0
 10
-22.3429
 20
80.2566
 11
-22.1489
 21
79.6594
  0
LINE
  8
0
 10
-22.1489
 20
79.6594
 11
-21.8815
 21
79.0912
  0
LINE
  8
0
 10
-21.8815
 20
79.0912
 11
-21.5451
 21
78.5611
  0
LINE
  8
0
 10
-21.5451
 20
78.5611
 11
-21.1448
 21
78.0773
  0
LINE
  8
0
 10
-21.1448
 20
78.0773
 11
-20.6871
 21
77.6474
  0
LINE
  8
0
 10
-20.6871
 20
77.6474
 11
-20.1791
 21
77.2784
  0
LINE
  8
0
 10
-20.1791
 20
77.2784
 11
-19.6289
 21
76.9759
  0
LINE
  8
0
 10
-19.6289
 20
76.9759
 11
-19.0451
 21
76.7447
  0
LINE
  8
0
 10
-19.0451
 20
76.7447
 11
-18.4369
 21
76.5886
  0
LINE
  8
0
 10
-18.4369
 20
76.5886
 11
-17.8139
 21
76.5099
  0
LINE
  8
0
 10
-17.8139
 20
76.5099
 11
17.8139
 21
76.5099
  0
LINE
  8
0
 10
17.8139
 20
76.5099
 11
18.4369
 21
76.5886
  0
LINE
  8
0
 10
14.887
 20
202.204
 11
14.6627
 21
202.232
  0
LINE
  8
0
 10
14.6627
 20
202.232
 11
14.4438
 21
202.288
  0
LINE
  8
0
 10
14.4438
 20
202.288
 11
14.2336
 21
202.371
  0
LINE
  8
0
 10
14.2336
 20
202.371
 11
14.0355
 21
202.48
  0
LINE
  8
0
 10
14.0355
 20
202.48
 11
13.8526
 21
202.613
  0
LINE
  8
0
 10
13.8526
 20
202.613
 11
13.6879
 21
202.768
  0
LINE
  8
0
 10
13.6879
 20
202.768
 11
13.5438
 21
202.942
  0
LINE
  8
0
 10
13.5438
 20
202.942
 11
13.4226
 21
203.133
  0
LINE
  8
0
 10
13.4226
 20
203.133
 11
13.3264
 21
203.337
  0
LINE
  8
0
 10
13.3264
 20
203.337
 11
13.2565
 21
203.552
  0
LINE
  8
0
 10
13.2565
 20
203.552
 11
13.2142
 21
203.774
  0
LINE
  8
0
 10
13.2142
 20
203.774
 11
13.2
 21
204
  0
LINE
  8
0
 10
13.2
 20
204
 11
13.2142
 21
204.226
  0
LINE
  8
0
 10
13.2142
 20
204.226
 11
13.2565
 21
204.448
  0
LINE
  8
0
 10
13.2565
 20
204.448
 11
13.3264
 21
204.663
  0
LINE
  8
0
 10
13.3264
 20
204.663
 11
13.4226
 21
204.867
  0
LINE
  8
0
 10
13.4226
 20
204.867
 11
13.5438
 21
205.058
  0
LINE
  8
0
 10
13.5438
 20
205.058
 11
13.6879
 21
205.232
  0
LINE
  8
0
 10
13.6879
 20
205.232
 11
13.8526
 21
205.387
  0
LINE
  8
0
 10
13.8526
 20
205.387
 11
14.0355
 21
205.52
  0
LINE
  8
0
 10
14.0355
 20
205.52
 11
14.2336
 21
205.629
  0
LINE
  8
0
 10
14.2336
 20
205.629
 11
14.4438
 21
205.712
  0
LINE
  8
0
 10
14.4438
 20
205.712
 11
14.6627
 21
205.768
  0
LINE
  8
0
 10
14.6627
 20
205.768
 11
14.887
 21
205.796
  0
LINE
  8
0
 10
14.887
 20
205.796
 11
15.113
 21
205.796
  0
LINE
  8
0
 10
15.113
 20
205.796
 11
15.3373
 21
205.768
  0
LINE
  8
0
 10
15.3373
 20
205.768
 11
15.5562
 21
205.712
  0
LINE
  8
0
 10
15.5562
 20
205.712
 11
15.7664
 21
205.629
  0
LINE
  8
0
 10
15.7664
 20
205.629
 11
15.9645
 21
205.52
  0
LINE
  8
0
 10
15.9645
 20
205.52
 11
16.1474
 21
205.387
  0
LINE
  8
0
 10
16.1474
 20
205.387
 11
16.3121
 21
205.232
  0
LINE
  8
0
 10
16.3121
 20
205.232
 11
16.4562
 21
205.058
  0
LINE
  8
0
 10
16.4562
 20
205.058
 11
16.5773
 21
204.867
  0
LINE
  8
0
 10
16.5773
 20
204.867
 11
16.6736
 21
204.663
  0
LINE
  8
0
 10
16.6736
 20
204.663
 11
16.7434
 21
204.448
  0
LINE
  8
0
 10
16.7434
 20
204.448
 11
16.7858
 21
204.226
  0
LINE
  8
0
 10
16.7858
 20
204.226
 11
16.8
 21
204
  0
LINE
  8
0
 10
16.8
 20
204
 11
16.7858
 21
203.774
  0
LINE
  8
0
 10
16.7858
 20
203.774
 11
16.7434
 21
203.552
  0
LINE
  8
0
 10
16.7434
 20
203.552
 11
16.6736
 21
203.337
  0
LINE
  8
0
 10
16.6736
 20
203.337
 11
16.5773
 21
203.133
  0
LINE
  8
0
 10
16.5773
 20
203.133
 11
16.4562
 21
202.942
  0
LINE
  8
0
 10
16.4562
 20
202.942
 11
16.3121
 21
202.768
  0
LINE
  8
0
 10
16.3121
 20
202.768
 11
16.1474
 21
202.613
  0
LINE
  8
0
 10
16.1474
 20
202.613
 11
15.9645
 21
202.48
  0
LINE
  8
0
 10
15.9645
 20
202.48
 11
15.7664
 21
202.371
  0
LINE
  8
0
 10
15.7664
 20
202.371
 11
15.5562
 21
202.288
  0
LINE
  8
0
 10
15.5562
 20
202.288
 11
15.3373
 21
202.232
  0
LINE
  8
0
 10
15.3373
 20
202.232
 11
15.113
 21
202.204
  0
LINE
  8
0
 10
15.113
 20
202.204
 11
14.887
 21
202.204
  0
LINE
  8
0
 10
-15.113
 20
202.204
 11
-15.3373
 21
202.232
  0
LINE
  8
0
 10
-15.3373
 20
202.232
 11
-15.5562
 21
202.288
  0
LINE
  8
0
 10
-15.5562
 20
202.288
 11
-15.7664
 21
202.371
  0
LINE
  8
0
 10
-15.7664
 20
202.371
 11
-15.9645
 21
202.48
  0
LINE
  8
0
 10
-15.9645
 20
202.48
 11
-16.1474
 21
202.613
  0
LINE
  8
0
 10
-16.1474
 20
202.613
 11
-16.3121
 21
202.768
  0
LINE
  8
0
 10
-16.3121
 20
202.768
 11
-16.4562
 21
202.942
  0
LINE
  8
0
 10
-16.4562
 20
202.942
 11
-16.5773
 21
203.133
  0
LINE
  8
0
 10
-16.5773
 20
203.133
 11
-16.6736
 21
203.337
  0
LINE
  8
0
 10
-16.6736
 20
203.337
 11
-16.7434
 21
203.552
  0
LINE
  8
0
 10
-16.7434
 20
203.552
 11
-16.7858
 21
203.774
  0
LINE
  8
0
 10
-16.7858
 20
203.774
 11
-16.8
 21
204
  0
LINE
  8
0
 10
-16.8
 20
204
 11
-16.7858
 21
204.226
  0
LINE
  8
0
 10
-16.7858
 20
204.226
 11
-16.7434
 21
204.448
  0
LINE
  8
0
 10
-16.7434
 20
204.448
 11
-16.6736
 21
204.663
  0
LINE
  8
0
 10
-16.6736
 20
204.663
 11
-16.5773
 21
204.867
  0
LINE
  8
0
 10
-16.5773
 20
204.867
 11
-16.4562
 21
205.058
  0
LINE
  8
0
 10
-16.4562
 20
205.058
 11
-16.3121
 21
205.232
  0
LINE
  8
0
 10
-16.3121
 20
205.232
 11
-16.1474
 21
205.387
  0
LINE
  8
0
 10
-16.1474
 20
205.387
 11
-15.9645
 21
205.52
  0
LINE
  8
0
 10
-15.9645
 20
205.52
 11
-15.7664
 21
205.629
  0
LINE
  8
0
 10
-15.7664
 20
205.629
 11
-15.5562
 21
205.712
  0
LINE
  8
0
 10
-15.5562
 20
205.712
 11
-15.3373
 21
205.768
  0
LINE
  8
0
 10
-15.3373
 20
205.768
 11
-15.113
 21
205.796
  0
LINE
  8
0
 10
-15.113
 20
205.796
 11
-14.887
 21
205.796
  0
LINE
  8
0
 10
-14.887
 20
205.796
 11
-14.6627
 21
205.768
  0
LINE
  8
0
 10
-14.6627
 20
205.768
 11
-14.4438
 21
205.712
  0
LINE
  8
0
 10
-14.4438
 20
205.712
 11
-14.2336
 21
205.629
  0
LINE
  8
0
 10
-14.2336
 20
205.629
 11
-14.0355
 21
205.52
  0
LINE
  8
0
 10
-14.0355
 20
205.52
 11
-13.8526
 21
205.387
  0
LINE
  8
0
 10
-13.8526
 20
205.387
 11
-13.6879
 21
205.232
  0
LINE
  8
0
 10
-13.6879
 20
205.232
 11
-13.5438
 21
205.058
  0
LINE
  8
0
 10
-13.5438
 20
205.058
 11
-13.4226
 21
204.867
  0
LINE
  8
0
 10
-13.4226
 20
204.867
 11
-13.3264
 21
204.663
  0
LINE
  8
0
 10
-13.3264
 20
204.663
 11
-13.2565
 21
204.448
  0
LINE
  8
0
 10
-13.2565
 20
204.448
 11
-13.2142
 21
204.226
  0
LINE
  8
0
 10
-13.2142
 20
204.226
 11
-13.2
 21
204
  0
LINE
  8
0
 10
-13.2
 20
204
 11
-13.2142
 21
203.774
  0
LINE
  8
0
 10
-13.2142
 20
203.774
 11
-13.2565
 21
203.552
  0
LINE
  8
0
 10
-13.2565
 20
203.552
 11
-13.3264
 21
203.337
  0
LINE
  8
0
 10
-13.3264
 20
203.337
 11
-13.4226
 21
203.133
  0
LINE
  8
0
 10
-13.4226
 20
203.133
 11
-13.5438
 21
202.942
  0
LINE
  8
0
 10
-13.5438
 20
202.942
 11
-13.6879
 21
202.768
  0
LINE
  8
0
 10
-13.6879
 20
202.768
 11
-13.8526
 21
202.613
  0
LINE
  8
0
 10
-13.8526
 20
202.613
 11
-14.0355
 21
202.48
  0
LINE
  8
0
 10
-14.0355
 20
202.48
 11
-14.2336
 21
202.371
  0
LINE
  8
0
 10
-14.2336
 20
202.371
 11
-14.4438
 21
202.288
  0
LINE
  8
0
 10
-14.4438
 20
202.288
 11
-14.6627
 21
202.232
  0
LINE
  8
0
 10
-14.6627
 20
202.232
 11
-14.887
 21
202.204
  0
LINE
  8
0
 10
-14.887
 20
202.204
 11
-15.113
 21
202.204
  0
LINE
  8
0
 10
-15.113
 20
82.2036
 11
-15.3373
 21
82.2319
  0
LINE
  8
0
 10
-15.3373
 20
82.2319
 11
-15.5562
 21
82.2881
  0
LINE
  8
0
 10
-15.5562
 20
82.2881
 11
-15.7664
 21
82.3713
  0
LINE
  8
0
 10
-15.7664
 20
82.3713
 11
-15.9645
 21
82.4802
  0
LINE
  8
0
 10
-15.9645
 20
82.4802
 11
-16.1474
 21
82.6131
  0
LINE
  8
0
 10
-16.1474
 20
82.6131
 11
-16.3121
 21
82.7678
  0
LINE
  8
0
 10
-16.3121
 20
82.7678
 11
-16.4562
 21
82.942
  0
LINE
  8
0
 10
-16.4562
 20
82.942
 11
-16.5773
 21
83.1328
  0
LINE
  8
0
 10
-16.5773
 20
83.1328
 11
-16.6736
 21
83.3374
  0
LINE
  8
0
 10
-16.6736
 20
83.3374
 11
-16.7434
 21
83.5524
  0
LINE
  8
0
 10
-16.7434
 20
83.5524
 11
-16.7858
 21
83.7744
  0
LINE
  8
0
 10
-16.7858
 20
83.7744
 11
-16.8
 21
84
  0
LINE
  8
0
 10
-16.8
 20
84
 11
-16.7858
 21
84.2256
  0
LINE
  8
0
 10
-16.7858
 20
84.2256
 11
-16.7434
 21
84.4476
  0
LINE
  8
0
 10
-16.7434
 20
84.4476
 11
-16.6736
 21
84.6626
  0
LINE
  8
0
 10
-16.6736
 20
84.6626
 11
-16.5773
 21
84.8672
  0
LINE
  8
0
 10
-16.5773
 20
84.8672
 11
-16.4562
 21
85.058
  0
LINE
  8
0
 10
-16.4562
 20
85.058
 11
-16.3121
 21
85.2322
  0
LINE
  8
0
 10
-16.3121
 20
85.2322
 11
-16.1474
 21
85.3869
  0
LINE
  8
0
 10
-16.1474
 20
85.3869
 11
-15.9645
 21
85.5198
  0
LINE
  8
0
 10
-15.9645
 20
85.5198
 11
-15.7664
 21
85.6287
  0
LINE
  8
0
 10
-15.7664
 20
85.6287
 11
-15.5562
 21
85.7119
  0
LINE
  8
0
 10
-15.5562
 20
85.7119
 11
-15.3373
 21
85.7681
  0
LINE
  8
0
 10
-15.3373
 20
85.7681
 11
-15.113
 21
85.7964
  0
LINE
  8
0
 10
-15.113
 20
85.7964
 11
-14.887
 21
85.7964
  0
LINE
  8
0
 10
-14.887
 20
85.7964
 11
-14.6627
 21
85.7681
  0
LINE
  8
0
 10
-14.6627
 20
85.7681
 11
-14.4438
 21
85.7119
  0
LINE
  8
0
 10
-14.4438
 20
85.7119
 11
-14.2336
 21
85.6287
  0
LINE
  8
0
 10
-14.2336
 20
85.6287
 11
-14.0355
 21
85.5198
  0
LINE
  8
0
 10
-14.0355
 20
85.5198
 11
-13.8526
 21
85.3869
  0
LINE
  8
0
 10
-13.8526
 20
85.3869
 11
-13.6879
 21
85.2322
  0
LINE
  8
0
 10
-13.6879
 20
85.2322
 11
-13.5438
 21
85.058
  0
LINE
  8
0
 10
-13.5438
 20
85.058
 11
-13.4226
 21
84.8672
  0
LINE
  8
0
 10
-13.4226
 20
84.8672
 11
-13.3264
 21
84.6626
  0
LINE
  8
0
 10
-13.3264
 20
84.6626
 11
-13.2565
 21
84.4476
  0
LINE
  8
0
 10
-13.2565
 20
84.4476
 11
-13.2142
 21
84.2256
  0
LINE
  8
0
 10
-13.2142
 20
84.2256
 11
-13.2
 21
84
  0
LINE
  8
0
 10
-13.2
 20
84
 11
-13.2142
 21
83.7744
  0
LINE
  8
0
 10
-13.2142
 20
83.7744
 11
-13.2565
 21
83.5524
  0
LINE
  8
0
 10
-13.2565
 20
83.5524
 11
-13.3264
 21
83.3374
  0
LINE
  8
0
 10
-13.3264
 20
83.3374
 11
-13.4226
 21
83.1328
  0
LINE
  8
0
 10
-13.4226
 20
83.1328
 11
-13.5438
 21
82.942
  0
LINE
  8
0
 10
-13.5438
 20
82.942
 11
-13.6879
 21
82.7678
  0
LINE
  8
0
 10
-13.6879
 20
82.7678
 11
-13.8526
 21
82.6131
  0
LINE
  8
0
 10
-13.8526
 20
82.6131
 11
-14.0355
 21
82.4802
  0
LINE
  8
0
 10
-14.0355
 20
82.4802
 11
-14.2336
 21
82.3713
  0
LINE
  8
0
 10
-14.2336
 20
82.3713
 11
-14.4438
 21
82.2881
  0
LINE
  8
0
 10
-14.4438
 20
82.2881
 11
-14.6627
 21
82.2319
  0
LINE
  8
0
 10
-14.6627
 20
82.2319
 11
-14.887
 21
82.2036
  0
LINE
  8
0
 10
-14.887
 20
82.2036
 11
-15.113
 21
82.2036
  0
LINE
  8
0
 10
14.887
 20
82.2036
 11
14.6627
 21
82.2319
  0
LINE
  8
0
 10
14.6627
 20
82.2319
 11
14.4438
 21
82.2881
  0
LINE
  8
0
 10
14.4438
 20
82.2881
 11
14.2336
 21
82.3713
  0
LINE
  8
0
 10
14.2336
 20
82.3713
 11
14.0355
 21
82.4802
  0
LINE
  8
0
 10
14.0355
 20
82.4802
 11
13.8526
 21
82.6131
  0
LINE
  8
0
 10
13.8526
 20
82.6131
 11
13.6879
 21
82.7678
  0
LINE
  8
0
 10
13.6879
 20
82.7678
 11
13.5438
 21
82.942
  0
LINE
  8
0
 10
13.5438
 20
82.942
 11
13.4226
 21
83.1328
  0
LINE
  8
0
 10
13.4226
 20
83.1328
 11
13.3264
 21
83.3374
  0
LINE
  8
0
 10
13.3264
 20
83.3374
 11
13.2565
 21
83.5524
  0
LINE
  8
0
 10
13.2565
 20
83.5524
 11
13.2142
 21
83.7744
  0
LINE
  8
0
 10
13.2142
 20
83.7744
 11
13.2
 21
84
  0
LINE
  8
0
 10
13.2
 20
84
 11
13.2142
 21
84.2256
  0
LINE
  8
0
 10
13.2142
 20
84.2256
 11
13.2565
 21
84.4476
  0
LINE
  8
0
 10
13.2565
 20
84.4476
 11
13.3264
 21
84.6626
  0
LINE
  8
0
 10
13.3264
 20
84.6626
 11
13.4226
 21
84.8672
  0
LINE
  8
0
 10
13.4226
 20
84.8672
 11
13.5438
 21
85.058
  0
LINE
  8
0
 10
13.5438
 20
85.058
 11
13.6879
 21
85.2322
  0
LINE
  8
0
 10
13.6879
 20
85.2322
 11
13.8526
 21
85.3869
  0
LINE
  8
0
 10
13.8526
 20
85.3869
 11
14.0355
 21
85.5198
  0
LINE
  8
0
 10
14.0355
 20
85.5198
 11
14.2336
 21
85.6287
  0
LINE
  8
0
 10
14.2336
 20
85.6287
 11
14.4438
 21
85.7119
  0
LINE
  8
0
 10
14.4438
 20
85.7119
 11
14.6627
 21
85.7681
  0
LINE
  8
0
 10
14.6627
 20
85.7681
 11
14.887
 21
85.7964
  0
LINE
  8
0
 10
14.887
 20
85.7964
 11
15.113
 21
85.7964
  0
LINE
  8
0
 10
15.113
 20
85.7964
 11
15.3373
 21
85.7681
  0
LINE
  8
0
 10
15.3373
 20
85.7681
 11
15.5562
 21
85.7119
  0
LINE
  8
0
 10
15.5562
 20
85.7119
 11
15.7664
 21
85.6287
  0
LINE
  8
0
 10
15.7664
 20
85.6287
 11
15.9645
 21
85.5198
  0
LINE
  8
0
 10
15.9645
 20
85.5198
 11
16.1474
 21
85.3869
  0
LINE
  8
0
 10
16.1474
 20
85.3869
 11
16.3121
 21
85.2322
  0
LINE
  8
0
 10
16.3121
 20
85.2322
 11
16.4562
 21
85.058
  0
LINE
  8
0
 10
16.4562
 20
85.058
 11
16.5773
 21
84.8672
  0
LINE
  8
0
 10
16.5773
 20
84.8672
 11
16.6736
 21
84.6626
  0
LINE
  8
0
 10
16.6736
 20
84.6626
 11
16.7434
 21
84.4476
  0
LINE
  8
0
 10
16.7434
 20
84.4476
 11
16.7858
 21
84.2256
  0
LINE
  8
0
 10
16.7858
 20
84.2256
 11
16.8
 21
84
  0
LINE
  8
0
 10
16.8
 20
84
 11
16.7858
 21
83.7744
  0
LINE
  8
0
 10
16.7858
 20
83.7744
 11
16.7434
 21
83.5524
  0
LINE
  8
0
 10
16.7434
 20
83.5524
 11
16.6736
 21
83.3374
  0
LINE
  8
0
 10
16.6736
 20
83.3374
 11
16.5773
 21
83.1328
  0
LINE
  8
0
 10
16.5773
 20
83.1328
 11
16.4562
 21
82.942
  0
LINE
  8
0
 10
16.4562
 20
82.942
 11
16.3121
 21
82.7678
  0
LINE
  8
0
 10
16.3121
 20
82.7678
 11
16.1474
 21
82.6131
  0
LINE
  8
0
 10
16.1474
 20
82.6131
 11
15.9645
 21
82.4802
  0
LINE
  8
0
 10
15.9645
 20
82.4802
 11
15.7664
 21
82.3713
  0
LINE
  8
0
 10
15.7664
 20
82.3713
 11
15.5562
 21
82.2881
  0
LINE
  8
0
 10
15.5562
 20
82.2881
 11
15.3373
 21
82.2319
  0
LINE
  8
0
 10
15.3373
 20
82.2319
 11
15.113
 21
82.2036
  0
LINE
  8
0
 10
15.113
 20
82.2036
 11
14.887
 21
82.2036
  0
ENDSEC
  0
SECTION
  2
OBJECTS
  0
DICTIONARY
  0
ENDSEC
  0
EOF
