<?xml version="1.0" standalone="no"?>
<!DOCTYPE svg PUBLIC "-//W3C//DTD SVG 1.1//EN" "http://www.w3.org/Graphics/SVG/1.1/DTD/svg11.dtd">
<svg width="30mm" height="244mm" viewBox="-15 -374 30 244" xmlns="http://www.w3.org/2000/svg" version="1.1">
<title>OpenSCAD Model</title>
<path d="
M 10.9369,-298.589 L 11.5451,-298.745 L 12.1289,-298.976 L 12.6791,-299.278 L 13.1871,-299.647 L 13.6448,-300.077
 L 14.0451,-300.561 L 14.3815,-301.091 L 14.6489,-301.659 L 14.8429,-302.257 L 14.9606,-302.873 L 15,-303.5
 L 15,-368.5 L 14.9606,-369.127 L 14.8429,-369.743 L 14.6489,-370.341 L 14.3815,-370.909 L 14.0451,-371.439
 L 13.6448,-371.923 L 13.1871,-372.353 L 12.6791,-372.722 L 12.1289,-373.024 L 11.5451,-373.255 L 10.9369,-373.411
 L 10.3139,-373.49 L -10.3139,-373.49 L -10.9369,-373.411 L -11.5451,-373.255 L -12.1289,-373.024 L -12.6791,-372.722
 L -13.1871,-372.353 L -13.6448,-371.923 L -14.0451,-371.439 L -14.3815,-370.909 L -14.6489,-370.341 L -14.8429,-369.743
 L -14.9606,-369.127 L -15,-368.5 L -15,-303.5 L -14.9606,-302.873 L -14.8429,-302.257 L -14.6489,-301.659
 L -14.3815,-301.091 L -14.0451,-300.561 L -13.6448,-300.077 L -13.1871,-299.647 L -12.6791,-299.278 L -12.1289,-298.976
 L -11.5451,-298.745 L -10.9369,-298.589 L -10.3139,-298.51 L 10.3139,-298.51 z
M -9.74316,-300.135 L -10.2256,-300.196 L -10.6967,-300.317 L -11.1489,-300.496 L -11.5751,-300.73 L -11.9685,-301.016
 L -12.323,-301.349 L -12.633,-301.724 L -12.8936,-302.134 L -13.1007,-302.574 L -13.251,-303.037 L -13.3421,-303.515
 L -13.3726,-304 L -13.3726,-368 L -13.3421,-368.485 L -13.251,-368.963 L -13.1007,-369.426 L -12.8936,-369.866
 L -12.633,-370.276 L -12.323,-370.651 L -11.9685,-370.984 L -11.5751,-371.27 L -11.1489,-371.504 L -10.6967,-371.683
 L -10.2256,-371.804 L -9.74316,-371.865 L 9.74316,-371.865 L 10.2256,-371.804 L 10.6967,-371.683 L 11.1489,-371.504
 L 11.5751,-371.27 L 11.9685,-370.984 L 12.323,-370.651 L 12.633,-370.276 L 12.8936,-369.866 L 13.1007,-369.426
 L 13.251,-368.963 L 13.3421,-368.485 L 13.3726,-368 L 13.3726,-304 L 13.3421,-303.515 L 13.251,-303.037
 L 13.1007,-302.574 L 12.8936,-302.134 L 12.633,-301.724 L 12.323,-301.349 L 11.9685,-301.016 L 11.5751,-300.73
 L 11.1489,-300.496 L 10.6967,-300.317 L 10.2256,-300.196 L 9.74316,-300.135 z
M 10.9369,-214.589 L 11.5451,-214.745 L 12.1289,-214.976 L 12.6791,-215.278 L 13.1871,-215.647 L 13.6448,-216.077
 L 14.0451,-216.561 L 14.3815,-217.091 L 14.6489,-217.659 L 14.8429,-218.257 L 14.9606,-218.873 L 15,-219.5
 L 15,-284.5 L 14.9606,-285.127 L 14.8429,-285.743 L 14.6489,-286.341 L 14.3815,-286.909 L 14.0451,-287.439
 L 13.6448,-287.923 L 13.1871,-288.353 L 12.6791,-288.722 L 12.1289,-289.024 L 11.5451,-289.255 L 10.9369,-289.411
 L 10.3139,-289.49 L -10.3139,-289.49 L -10.9369,-289.411 L -11.5451,-289.255 L -12.1289,-289.024 L -12.6791,-288.722
 L -13.1871,-288.353 L -13.6448,-287.923 L -14.0451,-287.439 L -14.3815,-286.909 L -14.6489,-286.341 L -14.8429,-285.743
 L -14.9606,-285.127 L -15,-284.5 L -15,-219.5 L -14.9606,-218.873 L -14.8429,-218.257 L -14.6489,-217.659
 L -14.3815,-217.091 L -14.0451,-216.561 L -13.6448,-216.077 L -13.1871,-215.647 L -12.6791,-215.278 L -12.1289,-214.976
 L -11.5451,-214.745 L -10.9369,-214.589 L -10.3139,-214.51 L 10.3139,-214.51 z
M 10.9369,-130.589 L 11.5451,-130.745 L 12.1289,-130.976 L 12.6791,-131.278 L 13.1871,-131.647 L 13.6448,-132.077
 L 14.0451,-132.561 L 14.3815,-133.091 L 14.6489,-133.659 L 14.8429,-134.257 L 14.9606,-134.873 L 15,-135.5
 L 15,-200.5 L 14.9606,-201.127 L 14.8429,-201.743 L 14.6489,-202.341 L 14.3815,-202.909 L 14.0451,-203.439
 L 13.6448,-203.923 L 13.1871,-204.353 L 12.6791,-204.722 L 12.1289,-205.024 L 11.5451,-205.255 L 10.9369,-205.411
 L 10.3139,-205.49 L -10.3139,-205.49 L -10.9369,-205.411 L -11.5451,-205.255 L -12.1289,-205.024 L -12.6791,-204.722
 L -13.1871,-204.353 L -13.6448,-203.923 L -14.0451,-203.439 L -14.3815,-202.909 L -14.6489,-202.341 L -14.8429,-201.743
 L -14.9606,-201.127 L -15,-200.5 L -15,-135.5 L -14.9606,-134.873 L -14.8429,-134.257 L -14.6489,-133.659
 L -14.3815,-133.091 L -14.0451,-132.561 L -13.6448,-132.077 L -13.1871,-131.647 L -12.6791,-131.278 L -12.1289,-130.976
 L -11.5451,-130.745 L -10.9369,-130.589 L -10.3139,-130.51 L 10.3139,-130.51 z
M 7.38696,-196.204 L 7.1627,-196.232 L 6.94376,-196.288 L 6.7336,-196.371 L 6.53551,-196.48 L 6.35263,-196.613
 L 6.18785,-196.768 L 6.04376,-196.942 L 5.92264,-197.133 L 5.8264,-197.337 L 5.75655,-197.552 L 5.71419,-197.774
 L 5.7,-198 L 5.71419,-198.226 L 5.75655,-198.448 L 5.8264,-198.663 L 5.92264,-198.867 L 6.04376,-199.058
 L 6.18785,-199.232 L 6.35263,-199.387 L 6.53551,-199.52 L 6.7336,-199.629 L 6.94376,-199.712 L 7.1627,-199.768
 L 7.38696,-199.796 L 7.61302,-199.796 L 7.83728,-199.768 L 8.05623,-199.712 L 8.26639,-199.629 L 8.46448,-199.52
 L 8.64735,-199.387 L 8.81213,-199.232 L 8.95622,-199.058 L 9.07735,-198.867 L 9.17358,-198.663 L 9.24344,-198.448
 L 9.2858,-198.226 L 9.29999,-198 L 9.2858,-197.774 L 9.24344,-197.552 L 9.17358,-197.337 L 9.07735,-197.133
 L 8.95622,-196.942 L 8.81213,-196.768 L 8.64735,-196.613 L 8.46448,-196.48 L 8.26639,-196.371 L 8.05623,-196.288
 L 7.83728,-196.232 L 7.61302,-196.204 z
M -7.61302,-196.204 L -7.83728,-196.232 L -8.05623,-196.288 L -8.26639,-196.371 L -8.46448,-196.48 L -8.64735,-196.613
 L -8.81213,-196.768 L -8.95622,-196.942 L -9.07735,-197.133 L -9.17358,-197.337 L -9.24344,-197.552 L -9.2858,-197.774
 L -9.29999,-198 L -9.2858,-198.226 L -9.24344,-198.448 L -9.17358,-198.663 L -9.07735,-198.867 L -8.95622,-199.058
 L -8.81213,-199.232 L -8.64735,-199.387 L -8.46448,-199.52 L -8.26639,-199.629 L -8.05623,-199.712 L -7.83728,-199.768
 L -7.61302,-199.796 L -7.38696,-199.796 L -7.1627,-199.768 L -6.94376,-199.712 L -6.7336,-199.629 L -6.53551,-199.52
 L -6.35263,-199.387 L -6.18785,-199.232 L -6.04376,-199.058 L -5.92264,-198.867 L -5.8264,-198.663 L -5.75655,-198.448
 L -5.71419,-198.226 L -5.7,-198 L -5.71419,-197.774 L -5.75655,-197.552 L -5.8264,-197.337 L -5.92264,-197.133
 L -6.04376,-196.942 L -6.18785,-196.768 L -6.35263,-196.613 L -6.53551,-196.48 L -6.7336,-196.371 L -6.94376,-196.288
 L -7.1627,-196.232 L -7.38696,-196.204 z
M -7.61302,-136.204 L -7.83728,-136.232 L -8.05623,-136.288 L -8.26639,-136.371 L -8.46448,-136.48 L -8.64735,-136.613
 L -8.81213,-136.768 L -8.95622,-136.942 L -9.07735,-137.133 L -9.17358,-137.337 L -9.24344,-137.552 L -9.2858,-137.774
 L -9.29999,-138 L -9.2858,-138.226 L -9.24344,-138.448 L -9.17358,-138.663 L -9.07735,-138.867 L -8.95622,-139.058
 L -8.81213,-139.232 L -8.64735,-139.387 L -8.46448,-139.52 L -8.26639,-139.629 L -8.05623,-139.712 L -7.83728,-139.768
 L -7.61302,-139.796 L -7.38696,-139.796 L -7.1627,-139.768 L -6.94376,-139.712 L -6.7336,-139.629 L -6.53551,-139.52
 L -6.35263,-139.387 L -6.18785,-139.232 L -6.04376,-139.058 L -5.92264,-138.867 L -5.8264,-138.663 L -5.75655,-138.448
 L -5.71419,-138.226 L -5.7,-138 L -5.71419,-137.774 L -5.75655,-137.552 L -5.8264,-137.337 L -5.92264,-137.133
 L -6.04376,-136.942 L -6.18785,-136.768 L -6.35263,-136.613 L -6.53551,-136.48 L -6.7336,-136.371 L -6.94376,-136.288
 L -7.1627,-136.232 L -7.38696,-136.204 z
M 7.38696,-136.204 L 7.1627,-136.232 L 6.94376,-136.288 L 6.7336,-136.371 L 6.53551,-136.48 L 6.35263,-136.613
 L 6.18785,-136.768 L 6.04376,-136.942 L 5.92264,-137.133 L 5.8264,-137.337 L 5.75655,-137.552 L 5.71419,-137.774
 L 5.7,-138 L 5.71419,-138.226 L 5.75655,-138.448 L 5.8264,-138.663 L 5.92264,-138.867 L 6.04376,-139.058
 L 6.18785,-139.232 L 6.35263,-139.387 L 6.53551,-139.52 L 6.7336,-139.629 L 6.94376,-139.712 L 7.1627,-139.768
 L 7.38696,-139.796 L 7.61302,-139.796 L 7.83728,-139.768 L 8.05623,-139.712 L 8.26639,-139.629 L 8.46448,-139.52
 L 8.64735,-139.387 L 8.81213,-139.232 L 8.95622,-139.058 L 9.07735,-138.867 L 9.17358,-138.663 L 9.24344,-138.448
 L 9.2858,-138.226 L 9.29999,-138 L 9.2858,-137.774 L 9.24344,-137.552 L 9.17358,-137.337 L 9.07735,-137.133
 L 8.95622,-136.942 L 8.81213,-136.768 L 8.64735,-136.613 L 8.46448,-136.48 L 8.26639,-136.371 L 8.05623,-136.288
 L 7.83728,-136.232 L 7.61302,-136.204 z
" stroke="black" fill="lightgray" stroke-width="0.5"/>
</svg>
