<?xml version="1.0" standalone="no"?>
<!DOCTYPE svg PUBLIC "-//W3C//DTD SVG 1.1//EN" "http://www.w3.org/Graphics/SVG/1.1/DTD/svg11.dtd">
<svg width="16mm" height="64mm" viewBox="-8 -128 16 64" xmlns="http://www.w3.org/2000/svg" version="1.1">
<title>OpenSCAD Model</title>
<path d="
M 3.4369,-112.589 L 4.04507,-112.745 L 4.62889,-112.976 L 5.17912,-113.278 L 5.68712,-113.647 L 6.14484,-114.077
 L 6.54507,-114.561 L 6.88153,-115.091 L 7.14888,-115.659 L 7.34291,-116.257 L 7.46057,-116.873 L 7.5,-117.5
 L 7.5,-122.5 L 7.46057,-123.127 L 7.34291,-123.743 L 7.14888,-124.341 L 6.88153,-124.909 L 6.54507,-125.439
 L 6.14484,-125.923 L 5.68712,-126.353 L 5.17912,-126.722 L 4.62889,-127.024 L 4.04507,-127.255 L 3.4369,-127.411
 L 2.81395,-127.49 L -2.81395,-127.49 L -3.4369,-127.411 L -4.04507,-127.255 L -4.62889,-127.024 L -5.17912,-126.722
 L -5.68712,-126.353 L -6.14484,-125.923 L -6.54507,-125.439 L -6.88153,-124.909 L -7.14888,-124.341 L -7.34291,-123.743
 L -7.46057,-123.127 L -7.5,-122.5 L -7.5,-117.5 L -7.46057,-116.873 L -7.34291,-116.257 L -7.14888,-115.659
 L -6.88153,-115.091 L -6.54507,-114.561 L -6.14484,-114.077 L -5.68712,-113.647 L -5.17912,-113.278 L -4.62889,-112.976
 L -4.04507,-112.745 L -3.4369,-112.589 L -2.81395,-112.51 L 2.81395,-112.51 z
M -2.54825,-113.009 L -3.14006,-113.084 L -3.71782,-113.232 L -4.27245,-113.452 L -4.79517,-113.739 L -5.27776,-114.09
 L -5.7126,-114.498 L -6.09282,-114.958 L -6.41245,-115.462 L -6.66643,-116.001 L -6.85077,-116.569 L -6.96254,-117.155
 L -7,-117.75 L -7,-122.25 L -6.96254,-122.845 L -6.85077,-123.431 L -6.66643,-123.999 L -6.41245,-124.538
 L -6.09282,-125.042 L -5.7126,-125.502 L -5.27776,-125.91 L -4.79517,-126.261 L -4.27245,-126.548 L -3.71782,-126.768
 L -3.14006,-126.916 L -2.54825,-126.991 L 2.54825,-126.991 L 3.14006,-126.916 L 3.71782,-126.768 L 4.27245,-126.548
 L 4.79517,-126.261 L 5.27776,-125.91 L 5.7126,-125.502 L 6.09282,-125.042 L 6.41245,-124.538 L 6.66643,-123.999
 L 6.85077,-123.431 L 6.96254,-122.845 L 7,-122.25 L 7,-117.75 L 6.96254,-117.155 L 6.85077,-116.569
 L 6.66643,-116.001 L 6.41245,-115.462 L 6.09282,-114.958 L 5.7126,-114.498 L 5.27776,-114.09 L 4.79517,-113.739
 L 4.27245,-113.452 L 3.71782,-113.232 L 3.14006,-113.084 L 2.54825,-113.009 z
M 3.4369,-88.5886 L 4.04507,-88.7447 L 4.62889,-88.9759 L 5.17912,-89.2784 L 5.68712,-89.6474 L 6.14484,-90.0773
 L 6.54507,-90.5611 L 6.88153,-91.0912 L 7.14888,-91.6594 L 7.34291,-92.2566 L 7.46057,-92.8733 L 7.5,-93.5
 L 7.5,-98.5 L 7.46057,-99.1267 L 7.34291,-99.7434 L 7.14888,-100.341 L 6.88153,-100.909 L 6.54507,-101.439
 L 6.14484,-101.923 L 5.68712,-102.353 L 5.17912,-102.722 L 4.62889,-103.024 L 4.04507,-103.255 L 3.4369,-103.411
 L 2.81395,-103.49 L -2.81395,-103.49 L -3.4369,-103.411 L -4.04507,-103.255 L -4.62889,-103.024 L -5.17912,-102.722
 L -5.68712,-102.353 L -6.14484,-101.923 L -6.54507,-101.439 L -6.88153,-100.909 L -7.14888,-100.341 L -7.34291,-99.7434
 L -7.46057,-99.1267 L -7.5,-98.5 L -7.5,-93.5 L -7.46057,-92.8733 L -7.34291,-92.2566 L -7.14888,-91.6594
 L -6.88153,-91.0912 L -6.54507,-90.5611 L -6.14484,-90.0773 L -5.68712,-89.6474 L -5.17912,-89.2784 L -4.62889,-88.9759
 L -4.04507,-88.7447 L -3.4369,-88.5886 L -2.81395,-88.5099 L 2.81395,-88.5099 z
M -2.53748,-89.1806 L -3.10791,-89.2527 L -3.66481,-89.3956 L -4.1994,-89.6073 L -4.70325,-89.8843 L -5.1684,-90.2223
 L -5.58754,-90.6158 L -5.95403,-91.0589 L -6.26212,-91.5443 L -6.50691,-92.0646 L -6.68459,-92.6114 L -6.79233,-93.1762
 L -6.82843,-93.75 L -6.82843,-98.25 L -6.79233,-98.8238 L -6.68459,-99.3886 L -6.50691,-99.9354 L -6.26212,-100.456
 L -5.95403,-100.941 L -5.58754,-101.384 L -5.1684,-101.778 L -4.70325,-102.116 L -4.1994,-102.393 L -3.66481,-102.604
 L -3.10791,-102.747 L -2.53748,-102.819 L 2.53748,-102.819 L 3.10791,-102.747 L 3.66481,-102.604 L 4.1994,-102.393
 L 4.70325,-102.116 L 5.1684,-101.778 L 5.58754,-101.384 L 5.95403,-100.941 L 6.26212,-100.456 L 6.50691,-99.9354
 L 6.68459,-99.3886 L 6.79233,-98.8238 L 6.82843,-98.25 L 6.82843,-93.75 L 6.79233,-93.1762 L 6.68459,-92.6114
 L 6.50691,-92.0646 L 6.26212,-91.5443 L 5.95403,-91.0589 L 5.58754,-90.6158 L 5.1684,-90.2223 L 4.70325,-89.8843
 L 4.1994,-89.6073 L 3.66481,-89.3956 L 3.10791,-89.2527 L 2.53748,-89.1806 z
M 3.4369,-64.5886 L 4.04507,-64.7447 L 4.62889,-64.9759 L 5.17912,-65.2784 L 5.68712,-65.6474 L 6.14484,-66.0773
 L 6.54507,-66.5611 L 6.88153,-67.0912 L 7.14888,-67.6594 L 7.34291,-68.2566 L 7.46057,-68.8733 L 7.5,-69.5
 L 7.5,-74.5 L 7.46057,-75.1267 L 7.34291,-75.7434 L 7.14888,-76.3406 L 6.88153,-76.9088 L 6.54507,-77.4389
 L 6.14484,-77.9227 L 5.68712,-78.3526 L 5.17912,-78.7216 L 4.62889,-79.0241 L 4.04507,-79.2553 L 3.4369,-79.4114
 L 2.81395,-79.4901 L -2.81395,-79.4901 L -3.4369,-79.4114 L -4.04507,-79.2553 L -4.62889,-79.0241 L -5.17912,-78.7216
 L -5.68712,-78.3526 L -6.14484,-77.9227 L -6.54507,-77.4389 L -6.88153,-76.9088 L -7.14888,-76.3406 L -7.34291,-75.7434
 L -7.46057,-75.1267 L -7.5,-74.5 L -7.5,-69.5 L -7.46057,-68.8733 L -7.34291,-68.2566 L -7.14888,-67.6594
 L -6.88153,-67.0912 L -6.54507,-66.5611 L -6.14484,-66.0773 L -5.68712,-65.6474 L -5.17912,-65.2784 L -4.62889,-64.9759
 L -4.04507,-64.7447 L -3.4369,-64.5886 L -2.81395,-64.5099 L 2.81395,-64.5099 z
M -2.38246,-67.6445 L -2.64529,-67.6777 L -2.9019,-67.7436 L -3.14822,-67.8412 L -3.38039,-67.9688 L -3.59473,-68.1245
 L -3.78784,-68.3059 L -3.95673,-68.51 L -4.09868,-68.7337 L -4.21149,-68.9734 L -4.29335,-69.2254 L -4.34299,-69.4856
 L -4.35962,-69.75 L -4.35962,-74.25 L -4.34299,-74.5144 L -4.29335,-74.7746 L -4.21149,-75.0266 L -4.09868,-75.2663
 L -3.95673,-75.49 L -3.78784,-75.6941 L -3.59473,-75.8755 L -3.38039,-76.0312 L -3.14822,-76.1588 L -2.9019,-76.2564
 L -2.64529,-76.3223 L -2.38246,-76.3555 L 2.38246,-76.3555 L 2.64529,-76.3223 L 2.9019,-76.2564 L 3.14822,-76.1588
 L 3.38039,-76.0312 L 3.59473,-75.8755 L 3.78784,-75.6941 L 3.95673,-75.49 L 4.09868,-75.2663 L 4.21149,-75.0266
 L 4.29335,-74.7746 L 4.34299,-74.5144 L 4.35962,-74.25 L 4.35962,-69.75 L 4.34299,-69.4856 L 4.29335,-69.2254
 L 4.21149,-68.9734 L 4.09868,-68.7337 L 3.95673,-68.51 L 3.78784,-68.3059 L 3.59473,-68.1245 L 3.38039,-67.9688
 L 3.14822,-67.8412 L 2.9019,-67.7436 L 2.64529,-67.6777 L 2.38246,-67.6445 z
" stroke="black" fill="lightgray" stroke-width="0.5"/>
</svg>
