<?xml version="1.0" standalone="no"?>
<!DOCTYPE svg PUBLIC "-//W3C//DTD SVG 1.1//EN" "http://www.w3.org/Graphics/SVG/1.1/DTD/svg11.dtd">
<svg width="16mm" height="40mm" viewBox="-8 -80 16 40" xmlns="http://www.w3.org/2000/svg" version="1.1">
<title>OpenSCAD Model</title>
<path d="
M 3.4369,-64.5886 L 4.04507,-64.7447 L 4.62889,-64.9759 L 5.17912,-65.2784 L 5.68712,-65.6474 L 6.14484,-66.0773
 L 6.54507,-66.5611 L 6.88153,-67.0912 L 7.14888,-67.6594 L 7.34291,-68.2566 L 7.46057,-68.8733 L 7.5,-69.5
 L 7.5,-74.5 L 7.46057,-75.1267 L 7.34291,-75.7434 L 7.14888,-76.3406 L 6.88153,-76.9088 L 6.54507,-77.4389
 L 6.14484,-77.9227 L 5.68712,-78.3526 L 5.17912,-78.7216 L 4.62889,-79.0241 L 4.04507,-79.2553 L 3.4369,-79.4114
 L 2.81395,-79.4901 L -2.81395,-79.4901 L -3.4369,-79.4114 L -4.04507,-79.2553 L -4.62889,-79.0241 L -5.17912,-78.7216
 L -5.68712,-78.3526 L -6.14484,-77.9227 L -6.54507,-77.4389 L -6.88153,-76.9088 L -7.14888,-76.3406 L -7.34291,-75.7434
 L -7.46057,-75.1267 L -7.5,-74.5 L -7.5,-69.5 L -7.46057,-68.8733 L -7.34291,-68.2566 L -7.14888,-67.6594
 L -6.88153,-67.0912 L -6.54507,-66.5611 L -6.14484,-66.0773 L -5.68712,-65.6474 L -5.17912,-65.2784 L -4.62889,-64.9759
 L -4.04507,-64.7447 L -3.4369,-64.5886 L -2.81395,-64.5099 L 2.81395,-64.5099 z
M -2.53748,-65.1806 L -3.10791,-65.2527 L -3.66481,-65.3956 L -4.1994,-65.6073 L -4.70325,-65.8843 L -5.1684,-66.2223
 L -5.58754,-66.6158 L -5.95403,-67.0589 L -6.26212,-67.5443 L -6.50691,-68.0646 L -6.68459,-68.6114 L -6.79233,-69.1762
 L -6.82843,-69.75 L -6.82843,-74.25 L -6.79233,-74.8238 L -6.68459,-75.3886 L -6.50691,-75.9354 L -6.26212,-76.4557
 L -5.95403,-76.9411 L -5.58754,-77.3842 L -5.1684,-77.7777 L -4.70325,-78.1157 L -4.1994,-78.3927 L -3.66481,-78.6044
 L -3.10791,-78.7473 L -2.53748,-78.8194 L 2.53748,-78.8194 L 3.10791,-78.7473 L 3.66481,-78.6044 L 4.1994,-78.3927
 L 4.70325,-78.1157 L 5.1684,-77.7777 L 5.58754,-77.3842 L 5.95403,-76.9411 L 6.26212,-76.4557 L 6.50691,-75.9354
 L 6.68459,-75.3886 L 6.79233,-74.8238 L 6.82843,-74.25 L 6.82843,-69.75 L 6.79233,-69.1762 L 6.68459,-68.6114
 L 6.50691,-68.0646 L 6.26212,-67.5443 L 5.95403,-67.0589 L 5.58754,-66.6158 L 5.1684,-66.2223 L 4.70325,-65.8843
 L 4.1994,-65.6073 L 3.66481,-65.3956 L 3.10791,-65.2527 L 2.53748,-65.1806 z
M 3.4369,-40.5886 L 4.04507,-40.7447 L 4.62889,-40.9759 L 5.17912,-41.2784 L 5.68712,-41.6474 L 6.14484,-42.0773
 L 6.54507,-42.5611 L 6.88153,-43.0912 L 7.14888,-43.6594 L 7.34291,-44.2566 L 7.46057,-44.8733 L 7.5,-45.5
 L 7.5,-50.5 L 7.46057,-51.1267 L 7.34291,-51.7434 L 7.14888,-52.3406 L 6.88153,-52.9088 L 6.54507,-53.4389
 L 6.14484,-53.9227 L 5.68712,-54.3526 L 5.17912,-54.7216 L 4.62889,-55.0241 L 4.04507,-55.2553 L 3.4369,-55.4114
 L 2.81395,-55.4901 L -2.81395,-55.4901 L -3.4369,-55.4114 L -4.04507,-55.2553 L -4.62889,-55.0241 L -5.17912,-54.7216
 L -5.68712,-54.3526 L -6.14484,-53.9227 L -6.54507,-53.4389 L -6.88153,-52.9088 L -7.14888,-52.3406 L -7.34291,-51.7434
 L -7.46057,-51.1267 L -7.5,-50.5 L -7.5,-45.5 L -7.46057,-44.8733 L -7.34291,-44.2566 L -7.14888,-43.6594
 L -6.88153,-43.0912 L -6.54507,-42.5611 L -6.14484,-42.0773 L -5.68712,-41.6474 L -5.17912,-41.2784 L -4.62889,-40.9759
 L -4.04507,-40.7447 L -3.4369,-40.5886 L -2.81395,-40.5099 L 2.81395,-40.5099 z
M -2.38246,-43.6445 L -2.64529,-43.6777 L -2.9019,-43.7436 L -3.14822,-43.8412 L -3.38039,-43.9688 L -3.59473,-44.1245
 L -3.78784,-44.3059 L -3.95673,-44.51 L -4.09868,-44.7337 L -4.21149,-44.9734 L -4.29335,-45.2254 L -4.34299,-45.4856
 L -4.35962,-45.75 L -4.35962,-50.25 L -4.34299,-50.5144 L -4.29335,-50.7746 L -4.21149,-51.0266 L -4.09868,-51.2663
 L -3.95673,-51.49 L -3.78784,-51.6941 L -3.59473,-51.8755 L -3.38039,-52.0312 L -3.14822,-52.1588 L -2.9019,-52.2564
 L -2.64529,-52.3223 L -2.38246,-52.3555 L 2.38246,-52.3555 L 2.64529,-52.3223 L 2.9019,-52.2564 L 3.14822,-52.1588
 L 3.38039,-52.0312 L 3.59473,-51.8755 L 3.78784,-51.6941 L 3.95673,-51.49 L 4.09868,-51.2663 L 4.21149,-51.0266
 L 4.29335,-50.7746 L 4.34299,-50.5144 L 4.35962,-50.25 L 4.35962,-45.75 L 4.34299,-45.4856 L 4.29335,-45.2254
 L 4.21149,-44.9734 L 4.09868,-44.7337 L 3.95673,-44.51 L 3.78784,-44.3059 L 3.59473,-44.1245 L 3.38039,-43.9688
 L 3.14822,-43.8412 L 2.9019,-43.7436 L 2.64529,-43.6777 L 2.38246,-43.6445 z
" stroke="black" fill="lightgray" stroke-width="0.5"/>
</svg>
