  0
SECTION
  2
BLOCKS
  0
ENDSEC
  0
SECTION
  2
ENTITIES
  0
LINE
  8
0
 10
25.4369
 20
315.589
 11
26.0451
 21
315.745
  0
LINE
  8
0
 10
26.0451
 20
315.745
 11
26.6289
 21
315.976
  0
LINE
  8
0
 10
26.6289
 20
315.976
 11
27.1791
 21
316.278
  0
LINE
  8
0
 10
27.1791
 20
316.278
 11
27.6871
 21
316.647
  0
LINE
  8
0
 10
27.6871
 20
316.647
 11
28.1448
 21
317.077
  0
LINE
  8
0
 10
28.1448
 20
317.077
 11
28.5451
 21
317.561
  0
LINE
  8
0
 10
28.5451
 20
317.561
 11
28.8815
 21
318.091
  0
LINE
  8
0
 10
28.8815
 20
318.091
 11
29.1489
 21
318.659
  0
LINE
  8
0
 10
29.1489
 20
318.659
 11
29.3429
 21
319.257
  0
LINE
  8
0
 10
29.3429
 20
319.257
 11
29.4606
 21
319.873
  0
LINE
  8
0
 10
29.4606
 20
319.873
 11
29.5
 21
320.5
  0
LINE
  8
0
 10
29.5
 20
320.5
 11
29.5
 21
367.5
  0
LINE
  8
0
 10
29.5
 20
367.5
 11
13.9715
 21
367.5
  0
LINE
  8
0
 10
13.9715
 20
367.5
 11
13.9751
 21
367.498
  0
LINE
  8
0
 10
13.9751
 20
367.498
 11
11.7482
 21
367.498
  0
LINE
  8
0
 10
11.7482
 20
367.498
 11
11.6236
 21
367.482
  0
LINE
  8
0
 10
11.6236
 20
367.482
 11
11.502
 21
367.451
  0
LINE
  8
0
 10
11.502
 20
367.451
 11
11.3852
 21
367.405
  0
LINE
  8
0
 10
11.3852
 20
367.405
 11
11.2752
 21
367.344
  0
LINE
  8
0
 10
11.2752
 20
367.344
 11
11.1736
 21
367.271
  0
LINE
  8
0
 10
11.1736
 20
367.271
 11
11.082
 21
367.185
  0
LINE
  8
0
 10
11.082
 20
367.185
 11
11.002
 21
367.088
  0
LINE
  8
0
 10
11.002
 20
367.088
 11
10.9347
 21
366.982
  0
LINE
  8
0
 10
10.9347
 20
366.982
 11
10.8812
 21
366.868
  0
LINE
  8
0
 10
10.8812
 20
366.868
 11
10.8424
 21
366.749
  0
LINE
  8
0
 10
10.8424
 20
366.749
 11
10.8189
 21
366.625
  0
LINE
  8
0
 10
10.8189
 20
366.625
 11
10.811
 21
366.5
  0
LINE
  8
0
 10
10.811
 20
366.5
 11
10.8189
 21
366.375
  0
LINE
  8
0
 10
10.8189
 20
366.375
 11
10.8424
 21
366.251
  0
LINE
  8
0
 10
10.8424
 20
366.251
 11
10.8812
 21
366.132
  0
LINE
  8
0
 10
10.8812
 20
366.132
 11
10.9347
 21
366.018
  0
LINE
  8
0
 10
10.9347
 20
366.018
 11
11.002
 21
365.912
  0
LINE
  8
0
 10
11.002
 20
365.912
 11
11.082
 21
365.815
  0
LINE
  8
0
 10
11.082
 20
365.815
 11
11.1736
 21
365.729
  0
LINE
  8
0
 10
11.1736
 20
365.729
 11
11.2752
 21
365.656
  0
LINE
  8
0
 10
11.2752
 20
365.656
 11
11.3852
 21
365.595
  0
LINE
  8
0
 10
11.3852
 20
365.595
 11
11.502
 21
365.549
  0
LINE
  8
0
 10
11.502
 20
365.549
 11
11.6236
 21
365.518
  0
LINE
  8
0
 10
11.6236
 20
365.518
 11
11.7482
 21
365.502
  0
LINE
  8
0
 10
11.7482
 20
365.502
 11
16.777
 21
365.502
  0
LINE
  8
0
 10
16.777
 20
365.502
 11
16.8917
 21
365.419
  0
LINE
  8
0
 10
16.8917
 20
365.419
 11
19.3177
 21
363.14
  0
LINE
  8
0
 10
19.3177
 20
363.14
 11
21.4389
 21
360.576
  0
LINE
  8
0
 10
21.4389
 20
360.576
 11
23.2221
 21
357.766
  0
LINE
  8
0
 10
23.2221
 20
357.766
 11
24.6391
 21
354.755
  0
LINE
  8
0
 10
24.6391
 20
354.755
 11
25.6674
 21
351.59
  0
LINE
  8
0
 10
25.6674
 20
351.59
 11
26.291
 21
348.321
  0
LINE
  8
0
 10
26.291
 20
348.321
 11
26.5
 21
345
  0
LINE
  8
0
 10
26.5
 20
345
 11
26.291
 21
341.679
  0
LINE
  8
0
 10
26.291
 20
341.679
 11
25.6674
 21
338.41
  0
LINE
  8
0
 10
25.6674
 20
338.41
 11
24.6391
 21
335.245
  0
LINE
  8
0
 10
24.6391
 20
335.245
 11
23.2221
 21
332.234
  0
LINE
  8
0
 10
23.2221
 20
332.234
 11
21.4389
 21
329.424
  0
LINE
  8
0
 10
21.4389
 20
329.424
 11
19.3177
 21
326.86
  0
LINE
  8
0
 10
19.3177
 20
326.86
 11
16.8917
 21
324.581
  0
LINE
  8
0
 10
16.8917
 20
324.581
 11
14.1994
 21
322.625
  0
LINE
  8
0
 10
14.1994
 20
322.625
 11
11.2831
 21
321.022
  0
LINE
  8
0
 10
11.2831
 20
321.022
 11
8.18895
 21
319.797
  0
LINE
  8
0
 10
8.18895
 20
319.797
 11
4.96559
 21
318.969
  0
LINE
  8
0
 10
4.96559
 20
318.969
 11
1.66394
 21
318.552
  0
LINE
  8
0
 10
1.66394
 20
318.552
 11
-1.66394
 21
318.552
  0
LINE
  8
0
 10
-1.66394
 20
318.552
 11
-4.96559
 21
318.969
  0
LINE
  8
0
 10
-4.96559
 20
318.969
 11
-8.18895
 21
319.797
  0
LINE
  8
0
 10
-8.18895
 20
319.797
 11
-11.2831
 21
321.022
  0
LINE
  8
0
 10
-11.2831
 20
321.022
 11
-14.1994
 21
322.625
  0
LINE
  8
0
 10
-14.1994
 20
322.625
 11
-16.8917
 21
324.581
  0
LINE
  8
0
 10
-16.8917
 20
324.581
 11
-19.3177
 21
326.86
  0
LINE
  8
0
 10
-19.3177
 20
326.86
 11
-21.4389
 21
329.424
  0
LINE
  8
0
 10
-21.4389
 20
329.424
 11
-23.2221
 21
332.234
  0
LINE
  8
0
 10
-23.2221
 20
332.234
 11
-24.6391
 21
335.245
  0
LINE
  8
0
 10
-24.6391
 20
335.245
 11
-25.6674
 21
338.41
  0
LINE
  8
0
 10
-25.6674
 20
338.41
 11
-26.291
 21
341.679
  0
LINE
  8
0
 10
-26.291
 20
341.679
 11
-26.5
 21
345
  0
LINE
  8
0
 10
-26.5
 20
345
 11
-26.291
 21
348.321
  0
LINE
  8
0
 10
-26.291
 20
348.321
 11
-25.6674
 21
351.59
  0
LINE
  8
0
 10
-25.6674
 20
351.59
 11
-24.6391
 21
354.755
  0
LINE
  8
0
 10
-24.6391
 20
354.755
 11
-23.2221
 21
357.766
  0
LINE
  8
0
 10
-23.2221
 20
357.766
 11
-21.4389
 21
360.576
  0
LINE
  8
0
 10
-21.4389
 20
360.576
 11
-19.3177
 21
363.14
  0
LINE
  8
0
 10
-19.3177
 20
363.14
 11
-16.8917
 21
365.419
  0
LINE
  8
0
 10
-16.8917
 20
365.419
 11
-14.1994
 21
367.375
  0
LINE
  8
0
 10
-14.1994
 20
367.375
 11
-11.2831
 21
368.978
  0
LINE
  8
0
 10
-11.2831
 20
368.978
 11
-8.18895
 21
370.203
  0
LINE
  8
0
 10
-8.18895
 20
370.203
 11
-4.96559
 21
371.031
  0
LINE
  8
0
 10
-4.96559
 20
371.031
 11
-1.66394
 21
371.448
  0
LINE
  8
0
 10
-1.66394
 20
371.448
 11
0
 21
371.448
  0
LINE
  8
0
 10
0
 20
371.448
 11
0
 21
371.5
  0
LINE
  8
0
 10
0
 20
371.5
 11
9.49998
 21
371.5
  0
LINE
  8
0
 10
9.49998
 20
371.5
 11
6.50986
 21
374.49
  0
LINE
  8
0
 10
6.50986
 20
374.49
 11
3.5
 21
374.49
  0
LINE
  8
0
 10
3.5
 20
374.49
 11
3.5
 21
373.5
  0
LINE
  8
0
 10
3.5
 20
373.5
 11
-28.5
 21
373.5
  0
LINE
  8
0
 10
-28.5
 20
373.5
 11
-28.5
 21
374.5
  0
LINE
  8
0
 10
-28.5
 20
374.5
 11
-29.5
 21
374.5
  0
LINE
  8
0
 10
-29.5
 20
374.5
 11
-29.5
 21
370.494
  0
LINE
  8
0
 10
-29.5
 20
370.494
 11
-22.3116
 21
370.494
  0
LINE
  8
0
 10
-22.3116
 20
370.494
 11
-21.9379
 21
370.447
  0
LINE
  8
0
 10
-21.9379
 20
370.447
 11
-21.5729
 21
370.353
  0
LINE
  8
0
 10
-21.5729
 20
370.353
 11
-21.2227
 21
370.214
  0
LINE
  8
0
 10
-21.2227
 20
370.214
 11
-20.8925
 21
370.033
  0
LINE
  8
0
 10
-20.8925
 20
370.033
 11
-20.5877
 21
369.812
  0
LINE
  8
0
 10
-20.5877
 20
369.812
 11
-20.3131
 21
369.554
  0
LINE
  8
0
 10
-20.3131
 20
369.554
 11
-20.0729
 21
369.263
  0
LINE
  8
0
 10
-20.0729
 20
369.263
 11
-19.8711
 21
368.945
  0
LINE
  8
0
 10
-19.8711
 20
368.945
 11
-19.7107
 21
368.604
  0
LINE
  8
0
 10
-19.7107
 20
368.604
 11
-19.5942
 21
368.246
  0
LINE
  8
0
 10
-19.5942
 20
368.246
 11
-19.5237
 21
367.876
  0
LINE
  8
0
 10
-19.5237
 20
367.876
 11
-19.5
 21
367.5
  0
LINE
  8
0
 10
-19.5
 20
367.5
 11
-19.5237
 21
367.124
  0
LINE
  8
0
 10
-19.5237
 20
367.124
 11
-19.5942
 21
366.754
  0
LINE
  8
0
 10
-19.5942
 20
366.754
 11
-19.7107
 21
366.396
  0
LINE
  8
0
 10
-19.7107
 20
366.396
 11
-19.8711
 21
366.055
  0
LINE
  8
0
 10
-19.8711
 20
366.055
 11
-20.0729
 21
365.737
  0
LINE
  8
0
 10
-20.0729
 20
365.737
 11
-20.3131
 21
365.446
  0
LINE
  8
0
 10
-20.3131
 20
365.446
 11
-20.5877
 21
365.188
  0
LINE
  8
0
 10
-20.5877
 20
365.188
 11
-20.8925
 21
364.967
  0
LINE
  8
0
 10
-20.8925
 20
364.967
 11
-21.2227
 21
364.786
  0
LINE
  8
0
 10
-21.2227
 20
364.786
 11
-21.5729
 21
364.647
  0
LINE
  8
0
 10
-21.5729
 20
364.647
 11
-21.9379
 21
364.553
  0
LINE
  8
0
 10
-21.9379
 20
364.553
 11
-22.3116
 21
364.506
  0
LINE
  8
0
 10
-22.3116
 20
364.506
 11
-29.5
 21
364.506
  0
LINE
  8
0
 10
-29.5
 20
364.506
 11
-29.5
 21
325.494
  0
LINE
  8
0
 10
-29.5
 20
325.494
 11
-22.3116
 21
325.494
  0
LINE
  8
0
 10
-22.3116
 20
325.494
 11
-21.9379
 21
325.447
  0
LINE
  8
0
 10
-21.9379
 20
325.447
 11
-21.5729
 21
325.353
  0
LINE
  8
0
 10
-21.5729
 20
325.353
 11
-21.2227
 21
325.214
  0
LINE
  8
0
 10
-21.2227
 20
325.214
 11
-20.8925
 21
325.033
  0
LINE
  8
0
 10
-20.8925
 20
325.033
 11
-20.5877
 21
324.812
  0
LINE
  8
0
 10
-20.5877
 20
324.812
 11
-20.3131
 21
324.554
  0
LINE
  8
0
 10
-20.3131
 20
324.554
 11
-20.0729
 21
324.263
  0
LINE
  8
0
 10
-20.0729
 20
324.263
 11
-19.8711
 21
323.945
  0
LINE
  8
0
 10
-19.8711
 20
323.945
 11
-19.7107
 21
323.604
  0
LINE
  8
0
 10
-19.7107
 20
323.604
 11
-19.5942
 21
323.246
  0
LINE
  8
0
 10
-19.5942
 20
323.246
 11
-19.5237
 21
322.876
  0
LINE
  8
0
 10
-19.5237
 20
322.876
 11
-19.5
 21
322.5
  0
LINE
  8
0
 10
-19.5
 20
322.5
 11
-19.5237
 21
322.124
  0
LINE
  8
0
 10
-19.5237
 20
322.124
 11
-19.5942
 21
321.754
  0
LINE
  8
0
 10
-19.5942
 20
321.754
 11
-19.7107
 21
321.396
  0
LINE
  8
0
 10
-19.7107
 20
321.396
 11
-19.8711
 21
321.055
  0
LINE
  8
0
 10
-19.8711
 20
321.055
 11
-20.0729
 21
320.737
  0
LINE
  8
0
 10
-20.0729
 20
320.737
 11
-20.3131
 21
320.446
  0
LINE
  8
0
 10
-20.3131
 20
320.446
 11
-20.5877
 21
320.188
  0
LINE
  8
0
 10
-20.5877
 20
320.188
 11
-20.8925
 21
319.967
  0
LINE
  8
0
 10
-20.8925
 20
319.967
 11
-21.2227
 21
319.786
  0
LINE
  8
0
 10
-21.2227
 20
319.786
 11
-21.5729
 21
319.647
  0
LINE
  8
0
 10
-21.5729
 20
319.647
 11
-21.9379
 21
319.553
  0
LINE
  8
0
 10
-21.9379
 20
319.553
 11
-22.3116
 21
319.506
  0
LINE
  8
0
 10
-22.3116
 20
319.506
 11
-29.3905
 21
319.506
  0
LINE
  8
0
 10
-29.3905
 20
319.506
 11
-29.3429
 21
319.257
  0
LINE
  8
0
 10
-29.3429
 20
319.257
 11
-29.1489
 21
318.659
  0
LINE
  8
0
 10
-29.1489
 20
318.659
 11
-28.8815
 21
318.091
  0
LINE
  8
0
 10
-28.8815
 20
318.091
 11
-28.5451
 21
317.561
  0
LINE
  8
0
 10
-28.5451
 20
317.561
 11
-28.1448
 21
317.077
  0
LINE
  8
0
 10
-28.1448
 20
317.077
 11
-27.6871
 21
316.647
  0
LINE
  8
0
 10
-27.6871
 20
316.647
 11
-27.1791
 21
316.278
  0
LINE
  8
0
 10
-27.1791
 20
316.278
 11
-26.6289
 21
315.976
  0
LINE
  8
0
 10
-26.6289
 20
315.976
 11
-26.0451
 21
315.745
  0
LINE
  8
0
 10
-26.0451
 20
315.745
 11
-25.4369
 21
315.589
  0
LINE
  8
0
 10
-25.4369
 20
315.589
 11
-24.8139
 21
315.51
  0
LINE
  8
0
 10
-24.8139
 20
315.51
 11
24.8139
 21
315.51
  0
LINE
  8
0
 10
24.8139
 20
315.51
 11
25.4369
 21
315.589
  0
LINE
  8
0
 10
22.3116
 20
319.506
 11
21.9379
 21
319.553
  0
LINE
  8
0
 10
21.9379
 20
319.553
 11
21.5729
 21
319.647
  0
LINE
  8
0
 10
21.5729
 20
319.647
 11
21.2227
 21
319.786
  0
LINE
  8
0
 10
21.2227
 20
319.786
 11
20.8925
 21
319.967
  0
LINE
  8
0
 10
20.8925
 20
319.967
 11
20.5877
 21
320.188
  0
LINE
  8
0
 10
20.5877
 20
320.188
 11
20.3131
 21
320.446
  0
LINE
  8
0
 10
20.3131
 20
320.446
 11
20.0729
 21
320.737
  0
LINE
  8
0
 10
20.0729
 20
320.737
 11
19.8711
 21
321.055
  0
LINE
  8
0
 10
19.8711
 20
321.055
 11
19.7107
 21
321.396
  0
LINE
  8
0
 10
19.7107
 20
321.396
 11
19.5942
 21
321.754
  0
LINE
  8
0
 10
19.5942
 20
321.754
 11
19.5237
 21
322.124
  0
LINE
  8
0
 10
19.5237
 20
322.124
 11
19.5
 21
322.5
  0
LINE
  8
0
 10
19.5
 20
322.5
 11
19.5237
 21
322.876
  0
LINE
  8
0
 10
19.5237
 20
322.876
 11
19.5942
 21
323.246
  0
LINE
  8
0
 10
19.5942
 20
323.246
 11
19.7107
 21
323.604
  0
LINE
  8
0
 10
19.7107
 20
323.604
 11
19.8711
 21
323.945
  0
LINE
  8
0
 10
19.8711
 20
323.945
 11
20.0729
 21
324.263
  0
LINE
  8
0
 10
20.0729
 20
324.263
 11
20.3131
 21
324.554
  0
LINE
  8
0
 10
20.3131
 20
324.554
 11
20.5877
 21
324.812
  0
LINE
  8
0
 10
20.5877
 20
324.812
 11
20.8925
 21
325.033
  0
LINE
  8
0
 10
20.8925
 20
325.033
 11
21.2227
 21
325.214
  0
LINE
  8
0
 10
21.2227
 20
325.214
 11
21.5729
 21
325.353
  0
LINE
  8
0
 10
21.5729
 20
325.353
 11
21.9379
 21
325.447
  0
LINE
  8
0
 10
21.9379
 20
325.447
 11
22.3116
 21
325.494
  0
LINE
  8
0
 10
22.3116
 20
325.494
 11
22.6884
 21
325.494
  0
LINE
  8
0
 10
22.6884
 20
325.494
 11
23.0621
 21
325.447
  0
LINE
  8
0
 10
23.0621
 20
325.447
 11
23.427
 21
325.353
  0
LINE
  8
0
 10
23.427
 20
325.353
 11
23.7773
 21
325.214
  0
LINE
  8
0
 10
23.7773
 20
325.214
 11
24.1075
 21
325.033
  0
LINE
  8
0
 10
24.1075
 20
325.033
 11
24.4123
 21
324.812
  0
LINE
  8
0
 10
24.4123
 20
324.812
 11
24.6869
 21
324.554
  0
LINE
  8
0
 10
24.6869
 20
324.554
 11
24.927
 21
324.263
  0
LINE
  8
0
 10
24.927
 20
324.263
 11
25.1289
 21
323.945
  0
LINE
  8
0
 10
25.1289
 20
323.945
 11
25.2893
 21
323.604
  0
LINE
  8
0
 10
25.2893
 20
323.604
 11
25.4057
 21
323.246
  0
LINE
  8
0
 10
25.4057
 20
323.246
 11
25.4763
 21
322.876
  0
LINE
  8
0
 10
25.4763
 20
322.876
 11
25.5
 21
322.5
  0
LINE
  8
0
 10
25.5
 20
322.5
 11
25.4763
 21
322.124
  0
LINE
  8
0
 10
25.4763
 20
322.124
 11
25.4057
 21
321.754
  0
LINE
  8
0
 10
25.4057
 20
321.754
 11
25.2893
 21
321.396
  0
LINE
  8
0
 10
25.2893
 20
321.396
 11
25.1289
 21
321.055
  0
LINE
  8
0
 10
25.1289
 20
321.055
 11
24.927
 21
320.737
  0
LINE
  8
0
 10
24.927
 20
320.737
 11
24.6869
 21
320.446
  0
LINE
  8
0
 10
24.6869
 20
320.446
 11
24.4123
 21
320.188
  0
LINE
  8
0
 10
24.4123
 20
320.188
 11
24.1075
 21
319.967
  0
LINE
  8
0
 10
24.1075
 20
319.967
 11
23.7773
 21
319.786
  0
LINE
  8
0
 10
23.7773
 20
319.786
 11
23.427
 21
319.647
  0
LINE
  8
0
 10
23.427
 20
319.647
 11
23.0621
 21
319.553
  0
LINE
  8
0
 10
23.0621
 20
319.553
 11
22.6884
 21
319.506
  0
LINE
  8
0
 10
22.6884
 20
319.506
 11
22.3116
 21
319.506
  0
LINE
  8
0
 10
19.5
 20
374.49
 11
8.63118
 21
374.49
  0
LINE
  8
0
 10
8.63118
 20
374.49
 11
11.6213
 21
371.5
  0
LINE
  8
0
 10
11.6213
 20
371.5
 11
19.5
 21
371.5
  0
LINE
  8
0
 10
19.5
 20
371.5
 11
19.5
 21
374.49
  0
LINE
  8
0
 10
25.4369
 20
246.589
 11
26.0451
 21
246.745
  0
LINE
  8
0
 10
26.0451
 20
246.745
 11
26.6289
 21
246.976
  0
LINE
  8
0
 10
26.6289
 20
246.976
 11
27.1791
 21
247.278
  0
LINE
  8
0
 10
27.1791
 20
247.278
 11
27.6871
 21
247.647
  0
LINE
  8
0
 10
27.6871
 20
247.647
 11
28.1448
 21
248.077
  0
LINE
  8
0
 10
28.1448
 20
248.077
 11
28.5451
 21
248.561
  0
LINE
  8
0
 10
28.5451
 20
248.561
 11
28.8815
 21
249.091
  0
LINE
  8
0
 10
28.8815
 20
249.091
 11
29.1489
 21
249.659
  0
LINE
  8
0
 10
29.1489
 20
249.659
 11
29.3429
 21
250.257
  0
LINE
  8
0
 10
29.3429
 20
250.257
 11
29.4606
 21
250.873
  0
LINE
  8
0
 10
29.4606
 20
250.873
 11
29.5
 21
251.5
  0
LINE
  8
0
 10
29.5
 20
251.5
 11
29.5
 21
298.5
  0
LINE
  8
0
 10
29.5
 20
298.5
 11
13.9715
 21
298.5
  0
LINE
  8
0
 10
13.9715
 20
298.5
 11
13.9751
 21
298.498
  0
LINE
  8
0
 10
13.9751
 20
298.498
 11
11.7482
 21
298.498
  0
LINE
  8
0
 10
11.7482
 20
298.498
 11
11.6236
 21
298.482
  0
LINE
  8
0
 10
11.6236
 20
298.482
 11
11.502
 21
298.451
  0
LINE
  8
0
 10
11.502
 20
298.451
 11
11.3852
 21
298.405
  0
LINE
  8
0
 10
11.3852
 20
298.405
 11
11.2752
 21
298.344
  0
LINE
  8
0
 10
11.2752
 20
298.344
 11
11.1736
 21
298.271
  0
LINE
  8
0
 10
11.1736
 20
298.271
 11
11.082
 21
298.185
  0
LINE
  8
0
 10
11.082
 20
298.185
 11
11.002
 21
298.088
  0
LINE
  8
0
 10
11.002
 20
298.088
 11
10.9347
 21
297.982
  0
LINE
  8
0
 10
10.9347
 20
297.982
 11
10.8812
 21
297.868
  0
LINE
  8
0
 10
10.8812
 20
297.868
 11
10.8424
 21
297.749
  0
LINE
  8
0
 10
10.8424
 20
297.749
 11
10.8189
 21
297.625
  0
LINE
  8
0
 10
10.8189
 20
297.625
 11
10.811
 21
297.5
  0
LINE
  8
0
 10
10.811
 20
297.5
 11
10.8189
 21
297.375
  0
LINE
  8
0
 10
10.8189
 20
297.375
 11
10.8424
 21
297.251
  0
LINE
  8
0
 10
10.8424
 20
297.251
 11
10.8812
 21
297.132
  0
LINE
  8
0
 10
10.8812
 20
297.132
 11
10.9347
 21
297.018
  0
LINE
  8
0
 10
10.9347
 20
297.018
 11
11.002
 21
296.912
  0
LINE
  8
0
 10
11.002
 20
296.912
 11
11.082
 21
296.815
  0
LINE
  8
0
 10
11.082
 20
296.815
 11
11.1736
 21
296.729
  0
LINE
  8
0
 10
11.1736
 20
296.729
 11
11.2752
 21
296.656
  0
LINE
  8
0
 10
11.2752
 20
296.656
 11
11.3852
 21
296.595
  0
LINE
  8
0
 10
11.3852
 20
296.595
 11
11.502
 21
296.549
  0
LINE
  8
0
 10
11.502
 20
296.549
 11
11.6236
 21
296.518
  0
LINE
  8
0
 10
11.6236
 20
296.518
 11
11.7482
 21
296.502
  0
LINE
  8
0
 10
11.7482
 20
296.502
 11
16.777
 21
296.502
  0
LINE
  8
0
 10
16.777
 20
296.502
 11
16.8917
 21
296.419
  0
LINE
  8
0
 10
16.8917
 20
296.419
 11
19.3177
 21
294.14
  0
LINE
  8
0
 10
19.3177
 20
294.14
 11
21.4389
 21
291.576
  0
LINE
  8
0
 10
21.4389
 20
291.576
 11
23.2221
 21
288.766
  0
LINE
  8
0
 10
23.2221
 20
288.766
 11
24.6391
 21
285.755
  0
LINE
  8
0
 10
24.6391
 20
285.755
 11
25.6674
 21
282.59
  0
LINE
  8
0
 10
25.6674
 20
282.59
 11
26.291
 21
279.321
  0
LINE
  8
0
 10
26.291
 20
279.321
 11
26.5
 21
276
  0
LINE
  8
0
 10
26.5
 20
276
 11
26.291
 21
272.679
  0
LINE
  8
0
 10
26.291
 20
272.679
 11
25.6674
 21
269.41
  0
LINE
  8
0
 10
25.6674
 20
269.41
 11
24.6391
 21
266.245
  0
LINE
  8
0
 10
24.6391
 20
266.245
 11
23.2221
 21
263.234
  0
LINE
  8
0
 10
23.2221
 20
263.234
 11
21.4389
 21
260.424
  0
LINE
  8
0
 10
21.4389
 20
260.424
 11
19.3177
 21
257.86
  0
LINE
  8
0
 10
19.3177
 20
257.86
 11
16.8917
 21
255.581
  0
LINE
  8
0
 10
16.8917
 20
255.581
 11
14.1994
 21
253.625
  0
LINE
  8
0
 10
14.1994
 20
253.625
 11
11.2831
 21
252.022
  0
LINE
  8
0
 10
11.2831
 20
252.022
 11
8.18895
 21
250.797
  0
LINE
  8
0
 10
8.18895
 20
250.797
 11
4.96559
 21
249.969
  0
LINE
  8
0
 10
4.96559
 20
249.969
 11
1.66394
 21
249.552
  0
LINE
  8
0
 10
1.66394
 20
249.552
 11
-1.66394
 21
249.552
  0
LINE
  8
0
 10
-1.66394
 20
249.552
 11
-4.96559
 21
249.969
  0
LINE
  8
0
 10
-4.96559
 20
249.969
 11
-8.18895
 21
250.797
  0
LINE
  8
0
 10
-8.18895
 20
250.797
 11
-11.2831
 21
252.022
  0
LINE
  8
0
 10
-11.2831
 20
252.022
 11
-14.1994
 21
253.625
  0
LINE
  8
0
 10
-14.1994
 20
253.625
 11
-16.8917
 21
255.581
  0
LINE
  8
0
 10
-16.8917
 20
255.581
 11
-19.3177
 21
257.86
  0
LINE
  8
0
 10
-19.3177
 20
257.86
 11
-21.4389
 21
260.424
  0
LINE
  8
0
 10
-21.4389
 20
260.424
 11
-23.2221
 21
263.234
  0
LINE
  8
0
 10
-23.2221
 20
263.234
 11
-24.6391
 21
266.245
  0
LINE
  8
0
 10
-24.6391
 20
266.245
 11
-25.6674
 21
269.41
  0
LINE
  8
0
 10
-25.6674
 20
269.41
 11
-26.291
 21
272.679
  0
LINE
  8
0
 10
-26.291
 20
272.679
 11
-26.5
 21
276
  0
LINE
  8
0
 10
-26.5
 20
276
 11
-26.291
 21
279.321
  0
LINE
  8
0
 10
-26.291
 20
279.321
 11
-25.6674
 21
282.59
  0
LINE
  8
0
 10
-25.6674
 20
282.59
 11
-24.6391
 21
285.755
  0
LINE
  8
0
 10
-24.6391
 20
285.755
 11
-23.2221
 21
288.766
  0
LINE
  8
0
 10
-23.2221
 20
288.766
 11
-21.4389
 21
291.576
  0
LINE
  8
0
 10
-21.4389
 20
291.576
 11
-19.3177
 21
294.14
  0
LINE
  8
0
 10
-19.3177
 20
294.14
 11
-16.8917
 21
296.419
  0
LINE
  8
0
 10
-16.8917
 20
296.419
 11
-14.1994
 21
298.375
  0
LINE
  8
0
 10
-14.1994
 20
298.375
 11
-11.2831
 21
299.978
  0
LINE
  8
0
 10
-11.2831
 20
299.978
 11
-8.18895
 21
301.203
  0
LINE
  8
0
 10
-8.18895
 20
301.203
 11
-4.96559
 21
302.031
  0
LINE
  8
0
 10
-4.96559
 20
302.031
 11
-1.66394
 21
302.448
  0
LINE
  8
0
 10
-1.66394
 20
302.448
 11
0
 21
302.448
  0
LINE
  8
0
 10
0
 20
302.448
 11
0
 21
302.5
  0
LINE
  8
0
 10
0
 20
302.5
 11
9.49998
 21
302.5
  0
LINE
  8
0
 10
9.49998
 20
302.5
 11
6.50986
 21
305.49
  0
LINE
  8
0
 10
6.50986
 20
305.49
 11
3.5
 21
305.49
  0
LINE
  8
0
 10
3.5
 20
305.49
 11
3.5
 21
304.5
  0
LINE
  8
0
 10
3.5
 20
304.5
 11
-28.5
 21
304.5
  0
LINE
  8
0
 10
-28.5
 20
304.5
 11
-28.5
 21
305.5
  0
LINE
  8
0
 10
-28.5
 20
305.5
 11
-29.5
 21
305.5
  0
LINE
  8
0
 10
-29.5
 20
305.5
 11
-29.5
 21
301.494
  0
LINE
  8
0
 10
-29.5
 20
301.494
 11
-22.3116
 21
301.494
  0
LINE
  8
0
 10
-22.3116
 20
301.494
 11
-21.9379
 21
301.447
  0
LINE
  8
0
 10
-21.9379
 20
301.447
 11
-21.5729
 21
301.353
  0
LINE
  8
0
 10
-21.5729
 20
301.353
 11
-21.2227
 21
301.214
  0
LINE
  8
0
 10
-21.2227
 20
301.214
 11
-20.8925
 21
301.033
  0
LINE
  8
0
 10
-20.8925
 20
301.033
 11
-20.5877
 21
300.812
  0
LINE
  8
0
 10
-20.5877
 20
300.812
 11
-20.3131
 21
300.554
  0
LINE
  8
0
 10
-20.3131
 20
300.554
 11
-20.0729
 21
300.263
  0
LINE
  8
0
 10
-20.0729
 20
300.263
 11
-19.8711
 21
299.945
  0
LINE
  8
0
 10
-19.8711
 20
299.945
 11
-19.7107
 21
299.604
  0
LINE
  8
0
 10
-19.7107
 20
299.604
 11
-19.5942
 21
299.246
  0
LINE
  8
0
 10
-19.5942
 20
299.246
 11
-19.5237
 21
298.876
  0
LINE
  8
0
 10
-19.5237
 20
298.876
 11
-19.5
 21
298.5
  0
LINE
  8
0
 10
-19.5
 20
298.5
 11
-19.5237
 21
298.124
  0
LINE
  8
0
 10
-19.5237
 20
298.124
 11
-19.5942
 21
297.754
  0
LINE
  8
0
 10
-19.5942
 20
297.754
 11
-19.7107
 21
297.396
  0
LINE
  8
0
 10
-19.7107
 20
297.396
 11
-19.8711
 21
297.055
  0
LINE
  8
0
 10
-19.8711
 20
297.055
 11
-20.0729
 21
296.737
  0
LINE
  8
0
 10
-20.0729
 20
296.737
 11
-20.3131
 21
296.446
  0
LINE
  8
0
 10
-20.3131
 20
296.446
 11
-20.5877
 21
296.188
  0
LINE
  8
0
 10
-20.5877
 20
296.188
 11
-20.8925
 21
295.967
  0
LINE
  8
0
 10
-20.8925
 20
295.967
 11
-21.2227
 21
295.786
  0
LINE
  8
0
 10
-21.2227
 20
295.786
 11
-21.5729
 21
295.647
  0
LINE
  8
0
 10
-21.5729
 20
295.647
 11
-21.9379
 21
295.553
  0
LINE
  8
0
 10
-21.9379
 20
295.553
 11
-22.3116
 21
295.506
  0
LINE
  8
0
 10
-22.3116
 20
295.506
 11
-29.5
 21
295.506
  0
LINE
  8
0
 10
-29.5
 20
295.506
 11
-29.5
 21
256.494
  0
LINE
  8
0
 10
-29.5
 20
256.494
 11
-22.3116
 21
256.494
  0
LINE
  8
0
 10
-22.3116
 20
256.494
 11
-21.9379
 21
256.447
  0
LINE
  8
0
 10
-21.9379
 20
256.447
 11
-21.5729
 21
256.353
  0
LINE
  8
0
 10
-21.5729
 20
256.353
 11
-21.2227
 21
256.214
  0
LINE
  8
0
 10
-21.2227
 20
256.214
 11
-20.8925
 21
256.033
  0
LINE
  8
0
 10
-20.8925
 20
256.033
 11
-20.5877
 21
255.812
  0
LINE
  8
0
 10
-20.5877
 20
255.812
 11
-20.3131
 21
255.554
  0
LINE
  8
0
 10
-20.3131
 20
255.554
 11
-20.0729
 21
255.263
  0
LINE
  8
0
 10
-20.0729
 20
255.263
 11
-19.8711
 21
254.945
  0
LINE
  8
0
 10
-19.8711
 20
254.945
 11
-19.7107
 21
254.604
  0
LINE
  8
0
 10
-19.7107
 20
254.604
 11
-19.5942
 21
254.246
  0
LINE
  8
0
 10
-19.5942
 20
254.246
 11
-19.5237
 21
253.876
  0
LINE
  8
0
 10
-19.5237
 20
253.876
 11
-19.5
 21
253.5
  0
LINE
  8
0
 10
-19.5
 20
253.5
 11
-19.5237
 21
253.124
  0
LINE
  8
0
 10
-19.5237
 20
253.124
 11
-19.5942
 21
252.754
  0
LINE
  8
0
 10
-19.5942
 20
252.754
 11
-19.7107
 21
252.396
  0
LINE
  8
0
 10
-19.7107
 20
252.396
 11
-19.8711
 21
252.055
  0
LINE
  8
0
 10
-19.8711
 20
252.055
 11
-20.0729
 21
251.737
  0
LINE
  8
0
 10
-20.0729
 20
251.737
 11
-20.3131
 21
251.446
  0
LINE
  8
0
 10
-20.3131
 20
251.446
 11
-20.5877
 21
251.188
  0
LINE
  8
0
 10
-20.5877
 20
251.188
 11
-20.8925
 21
250.967
  0
LINE
  8
0
 10
-20.8925
 20
250.967
 11
-21.2227
 21
250.786
  0
LINE
  8
0
 10
-21.2227
 20
250.786
 11
-21.5729
 21
250.647
  0
LINE
  8
0
 10
-21.5729
 20
250.647
 11
-21.9379
 21
250.553
  0
LINE
  8
0
 10
-21.9379
 20
250.553
 11
-22.3116
 21
250.506
  0
LINE
  8
0
 10
-22.3116
 20
250.506
 11
-29.3905
 21
250.506
  0
LINE
  8
0
 10
-29.3905
 20
250.506
 11
-29.3429
 21
250.257
  0
LINE
  8
0
 10
-29.3429
 20
250.257
 11
-29.1489
 21
249.659
  0
LINE
  8
0
 10
-29.1489
 20
249.659
 11
-28.8815
 21
249.091
  0
LINE
  8
0
 10
-28.8815
 20
249.091
 11
-28.5451
 21
248.561
  0
LINE
  8
0
 10
-28.5451
 20
248.561
 11
-28.1448
 21
248.077
  0
LINE
  8
0
 10
-28.1448
 20
248.077
 11
-27.6871
 21
247.647
  0
LINE
  8
0
 10
-27.6871
 20
247.647
 11
-27.1791
 21
247.278
  0
LINE
  8
0
 10
-27.1791
 20
247.278
 11
-26.6289
 21
246.976
  0
LINE
  8
0
 10
-26.6289
 20
246.976
 11
-26.0451
 21
246.745
  0
LINE
  8
0
 10
-26.0451
 20
246.745
 11
-25.4369
 21
246.589
  0
LINE
  8
0
 10
-25.4369
 20
246.589
 11
-24.8139
 21
246.51
  0
LINE
  8
0
 10
-24.8139
 20
246.51
 11
24.8139
 21
246.51
  0
LINE
  8
0
 10
24.8139
 20
246.51
 11
25.4369
 21
246.589
  0
LINE
  8
0
 10
22.3116
 20
250.506
 11
21.9379
 21
250.553
  0
LINE
  8
0
 10
21.9379
 20
250.553
 11
21.5729
 21
250.647
  0
LINE
  8
0
 10
21.5729
 20
250.647
 11
21.2227
 21
250.786
  0
LINE
  8
0
 10
21.2227
 20
250.786
 11
20.8925
 21
250.967
  0
LINE
  8
0
 10
20.8925
 20
250.967
 11
20.5877
 21
251.188
  0
LINE
  8
0
 10
20.5877
 20
251.188
 11
20.3131
 21
251.446
  0
LINE
  8
0
 10
20.3131
 20
251.446
 11
20.0729
 21
251.737
  0
LINE
  8
0
 10
20.0729
 20
251.737
 11
19.8711
 21
252.055
  0
LINE
  8
0
 10
19.8711
 20
252.055
 11
19.7107
 21
252.396
  0
LINE
  8
0
 10
19.7107
 20
252.396
 11
19.5942
 21
252.754
  0
LINE
  8
0
 10
19.5942
 20
252.754
 11
19.5237
 21
253.124
  0
LINE
  8
0
 10
19.5237
 20
253.124
 11
19.5
 21
253.5
  0
LINE
  8
0
 10
19.5
 20
253.5
 11
19.5237
 21
253.876
  0
LINE
  8
0
 10
19.5237
 20
253.876
 11
19.5942
 21
254.246
  0
LINE
  8
0
 10
19.5942
 20
254.246
 11
19.7107
 21
254.604
  0
LINE
  8
0
 10
19.7107
 20
254.604
 11
19.8711
 21
254.945
  0
LINE
  8
0
 10
19.8711
 20
254.945
 11
20.0729
 21
255.263
  0
LINE
  8
0
 10
20.0729
 20
255.263
 11
20.3131
 21
255.554
  0
LINE
  8
0
 10
20.3131
 20
255.554
 11
20.5877
 21
255.812
  0
LINE
  8
0
 10
20.5877
 20
255.812
 11
20.8925
 21
256.033
  0
LINE
  8
0
 10
20.8925
 20
256.033
 11
21.2227
 21
256.214
  0
LINE
  8
0
 10
21.2227
 20
256.214
 11
21.5729
 21
256.353
  0
LINE
  8
0
 10
21.5729
 20
256.353
 11
21.9379
 21
256.447
  0
LINE
  8
0
 10
21.9379
 20
256.447
 11
22.3116
 21
256.494
  0
LINE
  8
0
 10
22.3116
 20
256.494
 11
22.6884
 21
256.494
  0
LINE
  8
0
 10
22.6884
 20
256.494
 11
23.0621
 21
256.447
  0
LINE
  8
0
 10
23.0621
 20
256.447
 11
23.427
 21
256.353
  0
LINE
  8
0
 10
23.427
 20
256.353
 11
23.7773
 21
256.214
  0
LINE
  8
0
 10
23.7773
 20
256.214
 11
24.1075
 21
256.033
  0
LINE
  8
0
 10
24.1075
 20
256.033
 11
24.4123
 21
255.812
  0
LINE
  8
0
 10
24.4123
 20
255.812
 11
24.6869
 21
255.554
  0
LINE
  8
0
 10
24.6869
 20
255.554
 11
24.927
 21
255.263
  0
LINE
  8
0
 10
24.927
 20
255.263
 11
25.1289
 21
254.945
  0
LINE
  8
0
 10
25.1289
 20
254.945
 11
25.2893
 21
254.604
  0
LINE
  8
0
 10
25.2893
 20
254.604
 11
25.4057
 21
254.246
  0
LINE
  8
0
 10
25.4057
 20
254.246
 11
25.4763
 21
253.876
  0
LINE
  8
0
 10
25.4763
 20
253.876
 11
25.5
 21
253.5
  0
LINE
  8
0
 10
25.5
 20
253.5
 11
25.4763
 21
253.124
  0
LINE
  8
0
 10
25.4763
 20
253.124
 11
25.4057
 21
252.754
  0
LINE
  8
0
 10
25.4057
 20
252.754
 11
25.2893
 21
252.396
  0
LINE
  8
0
 10
25.2893
 20
252.396
 11
25.1289
 21
252.055
  0
LINE
  8
0
 10
25.1289
 20
252.055
 11
24.927
 21
251.737
  0
LINE
  8
0
 10
24.927
 20
251.737
 11
24.6869
 21
251.446
  0
LINE
  8
0
 10
24.6869
 20
251.446
 11
24.4123
 21
251.188
  0
LINE
  8
0
 10
24.4123
 20
251.188
 11
24.1075
 21
250.967
  0
LINE
  8
0
 10
24.1075
 20
250.967
 11
23.7773
 21
250.786
  0
LINE
  8
0
 10
23.7773
 20
250.786
 11
23.427
 21
250.647
  0
LINE
  8
0
 10
23.427
 20
250.647
 11
23.0621
 21
250.553
  0
LINE
  8
0
 10
23.0621
 20
250.553
 11
22.6884
 21
250.506
  0
LINE
  8
0
 10
22.6884
 20
250.506
 11
22.3116
 21
250.506
  0
LINE
  8
0
 10
19.5
 20
305.49
 11
8.63118
 21
305.49
  0
LINE
  8
0
 10
8.63118
 20
305.49
 11
11.6213
 21
302.5
  0
LINE
  8
0
 10
11.6213
 20
302.5
 11
19.5
 21
302.5
  0
LINE
  8
0
 10
19.5
 20
302.5
 11
19.5
 21
305.49
  0
LINE
  8
0
 10
25.4369
 20
177.589
 11
26.0451
 21
177.745
  0
LINE
  8
0
 10
26.0451
 20
177.745
 11
26.6289
 21
177.976
  0
LINE
  8
0
 10
26.6289
 20
177.976
 11
27.1791
 21
178.278
  0
LINE
  8
0
 10
27.1791
 20
178.278
 11
27.6871
 21
178.647
  0
LINE
  8
0
 10
27.6871
 20
178.647
 11
28.1448
 21
179.077
  0
LINE
  8
0
 10
28.1448
 20
179.077
 11
28.5451
 21
179.561
  0
LINE
  8
0
 10
28.5451
 20
179.561
 11
28.8815
 21
180.091
  0
LINE
  8
0
 10
28.8815
 20
180.091
 11
29.1489
 21
180.659
  0
LINE
  8
0
 10
29.1489
 20
180.659
 11
29.3429
 21
181.257
  0
LINE
  8
0
 10
29.3429
 20
181.257
 11
29.4606
 21
181.873
  0
LINE
  8
0
 10
29.4606
 20
181.873
 11
29.5
 21
182.5
  0
LINE
  8
0
 10
29.5
 20
182.5
 11
29.5
 21
229.5
  0
LINE
  8
0
 10
29.5
 20
229.5
 11
13.9715
 21
229.5
  0
LINE
  8
0
 10
13.9715
 20
229.5
 11
13.9751
 21
229.498
  0
LINE
  8
0
 10
13.9751
 20
229.498
 11
11.7482
 21
229.498
  0
LINE
  8
0
 10
11.7482
 20
229.498
 11
11.6236
 21
229.482
  0
LINE
  8
0
 10
11.6236
 20
229.482
 11
11.502
 21
229.451
  0
LINE
  8
0
 10
11.502
 20
229.451
 11
11.3852
 21
229.405
  0
LINE
  8
0
 10
11.3852
 20
229.405
 11
11.2752
 21
229.344
  0
LINE
  8
0
 10
11.2752
 20
229.344
 11
11.1736
 21
229.271
  0
LINE
  8
0
 10
11.1736
 20
229.271
 11
11.082
 21
229.185
  0
LINE
  8
0
 10
11.082
 20
229.185
 11
11.002
 21
229.088
  0
LINE
  8
0
 10
11.002
 20
229.088
 11
10.9347
 21
228.982
  0
LINE
  8
0
 10
10.9347
 20
228.982
 11
10.8812
 21
228.868
  0
LINE
  8
0
 10
10.8812
 20
228.868
 11
10.8424
 21
228.749
  0
LINE
  8
0
 10
10.8424
 20
228.749
 11
10.8189
 21
228.625
  0
LINE
  8
0
 10
10.8189
 20
228.625
 11
10.811
 21
228.5
  0
LINE
  8
0
 10
10.811
 20
228.5
 11
10.8189
 21
228.375
  0
LINE
  8
0
 10
10.8189
 20
228.375
 11
10.8424
 21
228.251
  0
LINE
  8
0
 10
10.8424
 20
228.251
 11
10.8812
 21
228.132
  0
LINE
  8
0
 10
10.8812
 20
228.132
 11
10.9347
 21
228.018
  0
LINE
  8
0
 10
10.9347
 20
228.018
 11
11.002
 21
227.912
  0
LINE
  8
0
 10
11.002
 20
227.912
 11
11.082
 21
227.815
  0
LINE
  8
0
 10
11.082
 20
227.815
 11
11.1736
 21
227.729
  0
LINE
  8
0
 10
11.1736
 20
227.729
 11
11.2752
 21
227.656
  0
LINE
  8
0
 10
11.2752
 20
227.656
 11
11.3852
 21
227.595
  0
LINE
  8
0
 10
11.3852
 20
227.595
 11
11.502
 21
227.549
  0
LINE
  8
0
 10
11.502
 20
227.549
 11
11.6236
 21
227.518
  0
LINE
  8
0
 10
11.6236
 20
227.518
 11
11.7482
 21
227.502
  0
LINE
  8
0
 10
11.7482
 20
227.502
 11
16.777
 21
227.502
  0
LINE
  8
0
 10
16.777
 20
227.502
 11
16.8917
 21
227.419
  0
LINE
  8
0
 10
16.8917
 20
227.419
 11
19.3177
 21
225.14
  0
LINE
  8
0
 10
19.3177
 20
225.14
 11
21.4389
 21
222.576
  0
LINE
  8
0
 10
21.4389
 20
222.576
 11
23.2221
 21
219.766
  0
LINE
  8
0
 10
23.2221
 20
219.766
 11
24.6391
 21
216.755
  0
LINE
  8
0
 10
24.6391
 20
216.755
 11
25.6674
 21
213.59
  0
LINE
  8
0
 10
25.6674
 20
213.59
 11
26.291
 21
210.321
  0
LINE
  8
0
 10
26.291
 20
210.321
 11
26.5
 21
207
  0
LINE
  8
0
 10
26.5
 20
207
 11
26.291
 21
203.679
  0
LINE
  8
0
 10
26.291
 20
203.679
 11
25.6674
 21
200.41
  0
LINE
  8
0
 10
25.6674
 20
200.41
 11
24.6391
 21
197.245
  0
LINE
  8
0
 10
24.6391
 20
197.245
 11
23.2221
 21
194.234
  0
LINE
  8
0
 10
23.2221
 20
194.234
 11
21.4389
 21
191.424
  0
LINE
  8
0
 10
21.4389
 20
191.424
 11
19.3177
 21
188.86
  0
LINE
  8
0
 10
19.3177
 20
188.86
 11
16.8917
 21
186.581
  0
LINE
  8
0
 10
16.8917
 20
186.581
 11
14.1994
 21
184.625
  0
LINE
  8
0
 10
14.1994
 20
184.625
 11
11.2831
 21
183.022
  0
LINE
  8
0
 10
11.2831
 20
183.022
 11
8.18895
 21
181.797
  0
LINE
  8
0
 10
8.18895
 20
181.797
 11
4.96559
 21
180.969
  0
LINE
  8
0
 10
4.96559
 20
180.969
 11
1.66394
 21
180.552
  0
LINE
  8
0
 10
1.66394
 20
180.552
 11
-1.66394
 21
180.552
  0
LINE
  8
0
 10
-1.66394
 20
180.552
 11
-4.96559
 21
180.969
  0
LINE
  8
0
 10
-4.96559
 20
180.969
 11
-8.18895
 21
181.797
  0
LINE
  8
0
 10
-8.18895
 20
181.797
 11
-11.2831
 21
183.022
  0
LINE
  8
0
 10
-11.2831
 20
183.022
 11
-14.1994
 21
184.625
  0
LINE
  8
0
 10
-14.1994
 20
184.625
 11
-16.8917
 21
186.581
  0
LINE
  8
0
 10
-16.8917
 20
186.581
 11
-19.3177
 21
188.86
  0
LINE
  8
0
 10
-19.3177
 20
188.86
 11
-21.4389
 21
191.424
  0
LINE
  8
0
 10
-21.4389
 20
191.424
 11
-23.2221
 21
194.234
  0
LINE
  8
0
 10
-23.2221
 20
194.234
 11
-24.6391
 21
197.245
  0
LINE
  8
0
 10
-24.6391
 20
197.245
 11
-25.6674
 21
200.41
  0
LINE
  8
0
 10
-25.6674
 20
200.41
 11
-26.291
 21
203.679
  0
LINE
  8
0
 10
-26.291
 20
203.679
 11
-26.5
 21
207
  0
LINE
  8
0
 10
-26.5
 20
207
 11
-26.291
 21
210.321
  0
LINE
  8
0
 10
-26.291
 20
210.321
 11
-25.6674
 21
213.59
  0
LINE
  8
0
 10
-25.6674
 20
213.59
 11
-24.6391
 21
216.755
  0
LINE
  8
0
 10
-24.6391
 20
216.755
 11
-23.2221
 21
219.766
  0
LINE
  8
0
 10
-23.2221
 20
219.766
 11
-21.4389
 21
222.576
  0
LINE
  8
0
 10
-21.4389
 20
222.576
 11
-19.3177
 21
225.14
  0
LINE
  8
0
 10
-19.3177
 20
225.14
 11
-16.8917
 21
227.419
  0
LINE
  8
0
 10
-16.8917
 20
227.419
 11
-14.1994
 21
229.375
  0
LINE
  8
0
 10
-14.1994
 20
229.375
 11
-11.2831
 21
230.978
  0
LINE
  8
0
 10
-11.2831
 20
230.978
 11
-8.18895
 21
232.203
  0
LINE
  8
0
 10
-8.18895
 20
232.203
 11
-4.96559
 21
233.031
  0
LINE
  8
0
 10
-4.96559
 20
233.031
 11
-1.66394
 21
233.448
  0
LINE
  8
0
 10
-1.66394
 20
233.448
 11
0
 21
233.448
  0
LINE
  8
0
 10
0
 20
233.448
 11
0
 21
233.5
  0
LINE
  8
0
 10
0
 20
233.5
 11
9.49998
 21
233.5
  0
LINE
  8
0
 10
9.49998
 20
233.5
 11
6.50986
 21
236.49
  0
LINE
  8
0
 10
6.50986
 20
236.49
 11
3.5
 21
236.49
  0
LINE
  8
0
 10
3.5
 20
236.49
 11
3.5
 21
235.5
  0
LINE
  8
0
 10
3.5
 20
235.5
 11
-28.5
 21
235.5
  0
LINE
  8
0
 10
-28.5
 20
235.5
 11
-28.5
 21
236.5
  0
LINE
  8
0
 10
-28.5
 20
236.5
 11
-29.5
 21
236.5
  0
LINE
  8
0
 10
-29.5
 20
236.5
 11
-29.5
 21
232.494
  0
LINE
  8
0
 10
-29.5
 20
232.494
 11
-22.3116
 21
232.494
  0
LINE
  8
0
 10
-22.3116
 20
232.494
 11
-21.9379
 21
232.447
  0
LINE
  8
0
 10
-21.9379
 20
232.447
 11
-21.5729
 21
232.353
  0
LINE
  8
0
 10
-21.5729
 20
232.353
 11
-21.2227
 21
232.214
  0
LINE
  8
0
 10
-21.2227
 20
232.214
 11
-20.8925
 21
232.033
  0
LINE
  8
0
 10
-20.8925
 20
232.033
 11
-20.5877
 21
231.812
  0
LINE
  8
0
 10
-20.5877
 20
231.812
 11
-20.3131
 21
231.554
  0
LINE
  8
0
 10
-20.3131
 20
231.554
 11
-20.0729
 21
231.263
  0
LINE
  8
0
 10
-20.0729
 20
231.263
 11
-19.8711
 21
230.945
  0
LINE
  8
0
 10
-19.8711
 20
230.945
 11
-19.7107
 21
230.604
  0
LINE
  8
0
 10
-19.7107
 20
230.604
 11
-19.5942
 21
230.246
  0
LINE
  8
0
 10
-19.5942
 20
230.246
 11
-19.5237
 21
229.876
  0
LINE
  8
0
 10
-19.5237
 20
229.876
 11
-19.5
 21
229.5
  0
LINE
  8
0
 10
-19.5
 20
229.5
 11
-19.5237
 21
229.124
  0
LINE
  8
0
 10
-19.5237
 20
229.124
 11
-19.5942
 21
228.754
  0
LINE
  8
0
 10
-19.5942
 20
228.754
 11
-19.7107
 21
228.396
  0
LINE
  8
0
 10
-19.7107
 20
228.396
 11
-19.8711
 21
228.055
  0
LINE
  8
0
 10
-19.8711
 20
228.055
 11
-20.0729
 21
227.737
  0
LINE
  8
0
 10
-20.0729
 20
227.737
 11
-20.3131
 21
227.446
  0
LINE
  8
0
 10
-20.3131
 20
227.446
 11
-20.5877
 21
227.188
  0
LINE
  8
0
 10
-20.5877
 20
227.188
 11
-20.8925
 21
226.967
  0
LINE
  8
0
 10
-20.8925
 20
226.967
 11
-21.2227
 21
226.786
  0
LINE
  8
0
 10
-21.2227
 20
226.786
 11
-21.5729
 21
226.647
  0
LINE
  8
0
 10
-21.5729
 20
226.647
 11
-21.9379
 21
226.553
  0
LINE
  8
0
 10
-21.9379
 20
226.553
 11
-22.3116
 21
226.506
  0
LINE
  8
0
 10
-22.3116
 20
226.506
 11
-29.5
 21
226.506
  0
LINE
  8
0
 10
-29.5
 20
226.506
 11
-29.5
 21
187.494
  0
LINE
  8
0
 10
-29.5
 20
187.494
 11
-22.3116
 21
187.494
  0
LINE
  8
0
 10
-22.3116
 20
187.494
 11
-21.9379
 21
187.447
  0
LINE
  8
0
 10
-21.9379
 20
187.447
 11
-21.5729
 21
187.353
  0
LINE
  8
0
 10
-21.5729
 20
187.353
 11
-21.2227
 21
187.214
  0
LINE
  8
0
 10
-21.2227
 20
187.214
 11
-20.8925
 21
187.033
  0
LINE
  8
0
 10
-20.8925
 20
187.033
 11
-20.5877
 21
186.812
  0
LINE
  8
0
 10
-20.5877
 20
186.812
 11
-20.3131
 21
186.554
  0
LINE
  8
0
 10
-20.3131
 20
186.554
 11
-20.0729
 21
186.263
  0
LINE
  8
0
 10
-20.0729
 20
186.263
 11
-19.8711
 21
185.945
  0
LINE
  8
0
 10
-19.8711
 20
185.945
 11
-19.7107
 21
185.604
  0
LINE
  8
0
 10
-19.7107
 20
185.604
 11
-19.5942
 21
185.246
  0
LINE
  8
0
 10
-19.5942
 20
185.246
 11
-19.5237
 21
184.876
  0
LINE
  8
0
 10
-19.5237
 20
184.876
 11
-19.5
 21
184.5
  0
LINE
  8
0
 10
-19.5
 20
184.5
 11
-19.5237
 21
184.124
  0
LINE
  8
0
 10
-19.5237
 20
184.124
 11
-19.5942
 21
183.754
  0
LINE
  8
0
 10
-19.5942
 20
183.754
 11
-19.7107
 21
183.396
  0
LINE
  8
0
 10
-19.7107
 20
183.396
 11
-19.8711
 21
183.055
  0
LINE
  8
0
 10
-19.8711
 20
183.055
 11
-20.0729
 21
182.737
  0
LINE
  8
0
 10
-20.0729
 20
182.737
 11
-20.3131
 21
182.446
  0
LINE
  8
0
 10
-20.3131
 20
182.446
 11
-20.5877
 21
182.188
  0
LINE
  8
0
 10
-20.5877
 20
182.188
 11
-20.8925
 21
181.967
  0
LINE
  8
0
 10
-20.8925
 20
181.967
 11
-21.2227
 21
181.786
  0
LINE
  8
0
 10
-21.2227
 20
181.786
 11
-21.5729
 21
181.647
  0
LINE
  8
0
 10
-21.5729
 20
181.647
 11
-21.9379
 21
181.553
  0
LINE
  8
0
 10
-21.9379
 20
181.553
 11
-22.3116
 21
181.506
  0
LINE
  8
0
 10
-22.3116
 20
181.506
 11
-29.3905
 21
181.506
  0
LINE
  8
0
 10
-29.3905
 20
181.506
 11
-29.3429
 21
181.257
  0
LINE
  8
0
 10
-29.3429
 20
181.257
 11
-29.1489
 21
180.659
  0
LINE
  8
0
 10
-29.1489
 20
180.659
 11
-28.8815
 21
180.091
  0
LINE
  8
0
 10
-28.8815
 20
180.091
 11
-28.5451
 21
179.561
  0
LINE
  8
0
 10
-28.5451
 20
179.561
 11
-28.1448
 21
179.077
  0
LINE
  8
0
 10
-28.1448
 20
179.077
 11
-27.6871
 21
178.647
  0
LINE
  8
0
 10
-27.6871
 20
178.647
 11
-27.1791
 21
178.278
  0
LINE
  8
0
 10
-27.1791
 20
178.278
 11
-26.6289
 21
177.976
  0
LINE
  8
0
 10
-26.6289
 20
177.976
 11
-26.0451
 21
177.745
  0
LINE
  8
0
 10
-26.0451
 20
177.745
 11
-25.4369
 21
177.589
  0
LINE
  8
0
 10
-25.4369
 20
177.589
 11
-24.8139
 21
177.51
  0
LINE
  8
0
 10
-24.8139
 20
177.51
 11
24.8139
 21
177.51
  0
LINE
  8
0
 10
24.8139
 20
177.51
 11
25.4369
 21
177.589
  0
LINE
  8
0
 10
22.3116
 20
181.506
 11
21.9379
 21
181.553
  0
LINE
  8
0
 10
21.9379
 20
181.553
 11
21.5729
 21
181.647
  0
LINE
  8
0
 10
21.5729
 20
181.647
 11
21.2227
 21
181.786
  0
LINE
  8
0
 10
21.2227
 20
181.786
 11
20.8925
 21
181.967
  0
LINE
  8
0
 10
20.8925
 20
181.967
 11
20.5877
 21
182.188
  0
LINE
  8
0
 10
20.5877
 20
182.188
 11
20.3131
 21
182.446
  0
LINE
  8
0
 10
20.3131
 20
182.446
 11
20.0729
 21
182.737
  0
LINE
  8
0
 10
20.0729
 20
182.737
 11
19.8711
 21
183.055
  0
LINE
  8
0
 10
19.8711
 20
183.055
 11
19.7107
 21
183.396
  0
LINE
  8
0
 10
19.7107
 20
183.396
 11
19.5942
 21
183.754
  0
LINE
  8
0
 10
19.5942
 20
183.754
 11
19.5237
 21
184.124
  0
LINE
  8
0
 10
19.5237
 20
184.124
 11
19.5
 21
184.5
  0
LINE
  8
0
 10
19.5
 20
184.5
 11
19.5237
 21
184.876
  0
LINE
  8
0
 10
19.5237
 20
184.876
 11
19.5942
 21
185.246
  0
LINE
  8
0
 10
19.5942
 20
185.246
 11
19.7107
 21
185.604
  0
LINE
  8
0
 10
19.7107
 20
185.604
 11
19.8711
 21
185.945
  0
LINE
  8
0
 10
19.8711
 20
185.945
 11
20.0729
 21
186.263
  0
LINE
  8
0
 10
20.0729
 20
186.263
 11
20.3131
 21
186.554
  0
LINE
  8
0
 10
20.3131
 20
186.554
 11
20.5877
 21
186.812
  0
LINE
  8
0
 10
20.5877
 20
186.812
 11
20.8925
 21
187.033
  0
LINE
  8
0
 10
20.8925
 20
187.033
 11
21.2227
 21
187.214
  0
LINE
  8
0
 10
21.2227
 20
187.214
 11
21.5729
 21
187.353
  0
LINE
  8
0
 10
21.5729
 20
187.353
 11
21.9379
 21
187.447
  0
LINE
  8
0
 10
21.9379
 20
187.447
 11
22.3116
 21
187.494
  0
LINE
  8
0
 10
22.3116
 20
187.494
 11
22.6884
 21
187.494
  0
LINE
  8
0
 10
22.6884
 20
187.494
 11
23.0621
 21
187.447
  0
LINE
  8
0
 10
23.0621
 20
187.447
 11
23.427
 21
187.353
  0
LINE
  8
0
 10
23.427
 20
187.353
 11
23.7773
 21
187.214
  0
LINE
  8
0
 10
23.7773
 20
187.214
 11
24.1075
 21
187.033
  0
LINE
  8
0
 10
24.1075
 20
187.033
 11
24.4123
 21
186.812
  0
LINE
  8
0
 10
24.4123
 20
186.812
 11
24.6869
 21
186.554
  0
LINE
  8
0
 10
24.6869
 20
186.554
 11
24.927
 21
186.263
  0
LINE
  8
0
 10
24.927
 20
186.263
 11
25.1289
 21
185.945
  0
LINE
  8
0
 10
25.1289
 20
185.945
 11
25.2893
 21
185.604
  0
LINE
  8
0
 10
25.2893
 20
185.604
 11
25.4057
 21
185.246
  0
LINE
  8
0
 10
25.4057
 20
185.246
 11
25.4763
 21
184.876
  0
LINE
  8
0
 10
25.4763
 20
184.876
 11
25.5
 21
184.5
  0
LINE
  8
0
 10
25.5
 20
184.5
 11
25.4763
 21
184.124
  0
LINE
  8
0
 10
25.4763
 20
184.124
 11
25.4057
 21
183.754
  0
LINE
  8
0
 10
25.4057
 20
183.754
 11
25.2893
 21
183.396
  0
LINE
  8
0
 10
25.2893
 20
183.396
 11
25.1289
 21
183.055
  0
LINE
  8
0
 10
25.1289
 20
183.055
 11
24.927
 21
182.737
  0
LINE
  8
0
 10
24.927
 20
182.737
 11
24.6869
 21
182.446
  0
LINE
  8
0
 10
24.6869
 20
182.446
 11
24.4123
 21
182.188
  0
LINE
  8
0
 10
24.4123
 20
182.188
 11
24.1075
 21
181.967
  0
LINE
  8
0
 10
24.1075
 20
181.967
 11
23.7773
 21
181.786
  0
LINE
  8
0
 10
23.7773
 20
181.786
 11
23.427
 21
181.647
  0
LINE
  8
0
 10
23.427
 20
181.647
 11
23.0621
 21
181.553
  0
LINE
  8
0
 10
23.0621
 20
181.553
 11
22.6884
 21
181.506
  0
LINE
  8
0
 10
22.6884
 20
181.506
 11
22.3116
 21
181.506
  0
LINE
  8
0
 10
19.5
 20
236.49
 11
8.63118
 21
236.49
  0
LINE
  8
0
 10
8.63118
 20
236.49
 11
11.6213
 21
233.5
  0
LINE
  8
0
 10
11.6213
 20
233.5
 11
19.5
 21
233.5
  0
LINE
  8
0
 10
19.5
 20
233.5
 11
19.5
 21
236.49
  0
ENDSEC
  0
SECTION
  2
OBJECTS
  0
DICTIONARY
  0
ENDSEC
  0
EOF
