<?xml version="1.0" standalone="no"?>
<!DOCTYPE svg PUBLIC "-//W3C//DTD SVG 1.1//EN" "http://www.w3.org/Graphics/SVG/1.1/DTD/svg11.dtd">
<svg width="16mm" height="108mm" viewBox="-8 -171 16 108" xmlns="http://www.w3.org/2000/svg" version="1.1">
<title>OpenSCAD Model</title>
<path d="
M 3.4369,-141.089 L 4.04507,-141.245 L 4.62889,-141.476 L 5.17912,-141.778 L 5.68712,-142.147 L 6.14484,-142.577
 L 6.54507,-143.061 L 6.88153,-143.591 L 7.14888,-144.159 L 7.34291,-144.757 L 7.46057,-145.373 L 7.5,-146
 L 7.5,-166 L 7.46057,-166.627 L 7.34291,-167.243 L 7.14888,-167.841 L 6.88153,-168.409 L 6.54507,-168.939
 L 6.14484,-169.423 L 5.68712,-169.853 L 5.17912,-170.222 L 4.62889,-170.524 L 4.04507,-170.755 L 3.4369,-170.911
 L 2.81395,-170.99 L -2.81395,-170.99 L -3.4369,-170.911 L -4.04507,-170.755 L -4.62889,-170.524 L -5.17912,-170.222
 L -5.68712,-169.853 L -6.14484,-169.423 L -6.54507,-168.939 L -6.88153,-168.409 L -7.14888,-167.841 L -7.34291,-167.243
 L -7.46057,-166.627 L -7.5,-166 L -7.5,-146 L -7.46057,-145.373 L -7.34291,-144.757 L -7.14888,-144.159
 L -6.88153,-143.591 L -6.54507,-143.061 L -6.14484,-142.577 L -5.68712,-142.147 L -5.17912,-141.778 L -4.62889,-141.476
 L -4.04507,-141.245 L -3.4369,-141.089 L -2.81395,-141.01 L 2.81395,-141.01 z
M -2.24316,-142.635 L -2.72565,-142.696 L -3.1967,-142.817 L -3.64888,-142.996 L -4.07506,-143.23 L -4.46851,-143.516
 L -4.82301,-143.849 L -5.13301,-144.224 L -5.3936,-144.634 L -5.60068,-145.074 L -5.75096,-145.537 L -5.84209,-146.015
 L -5.87262,-146.5 L -5.87262,-165.5 L -5.84209,-165.985 L -5.75096,-166.463 L -5.60068,-166.926 L -5.3936,-167.366
 L -5.13301,-167.776 L -4.82301,-168.151 L -4.46851,-168.484 L -4.07506,-168.77 L -3.64888,-169.004 L -3.1967,-169.183
 L -2.72565,-169.304 L -2.24316,-169.365 L 2.24316,-169.365 L 2.72565,-169.304 L 3.1967,-169.183 L 3.64888,-169.004
 L 4.07506,-168.77 L 4.46851,-168.484 L 4.82301,-168.151 L 5.13301,-167.776 L 5.3936,-167.366 L 5.60068,-166.926
 L 5.75096,-166.463 L 5.84209,-165.985 L 5.87262,-165.5 L 5.87262,-146.5 L 5.84209,-146.015 L 5.75096,-145.537
 L 5.60068,-145.074 L 5.3936,-144.634 L 5.13301,-144.224 L 4.82301,-143.849 L 4.46851,-143.516 L 4.07506,-143.23
 L 3.64888,-142.996 L 3.1967,-142.817 L 2.72565,-142.696 L 2.24316,-142.635 z
M 3.4369,-102.089 L 4.04507,-102.245 L 4.62889,-102.476 L 5.17912,-102.778 L 5.68712,-103.147 L 6.14484,-103.577
 L 6.54507,-104.061 L 6.88153,-104.591 L 7.14888,-105.159 L 7.34291,-105.757 L 7.46057,-106.373 L 7.5,-107
 L 7.5,-127 L 7.46057,-127.627 L 7.34291,-128.243 L 7.14888,-128.841 L 6.88153,-129.409 L 6.54507,-129.939
 L 6.14484,-130.423 L 5.68712,-130.853 L 5.17912,-131.222 L 4.62889,-131.524 L 4.04507,-131.755 L 3.4369,-131.911
 L 2.81395,-131.99 L -2.81395,-131.99 L -3.4369,-131.911 L -4.04507,-131.755 L -4.62889,-131.524 L -5.17912,-131.222
 L -5.68712,-130.853 L -6.14484,-130.423 L -6.54507,-129.939 L -6.88153,-129.409 L -7.14888,-128.841 L -7.34291,-128.243
 L -7.46057,-127.627 L -7.5,-127 L -7.5,-107 L -7.46057,-106.373 L -7.34291,-105.757 L -7.14888,-105.159
 L -6.88153,-104.591 L -6.54507,-104.061 L -6.14484,-103.577 L -5.68712,-103.147 L -5.17912,-102.778 L -4.62889,-102.476
 L -4.04507,-102.245 L -3.4369,-102.089 L -2.81395,-102.01 L 2.81395,-102.01 z
M 3.4369,-63.0886 L 4.04507,-63.2447 L 4.62889,-63.4759 L 5.17912,-63.7784 L 5.68712,-64.1474 L 6.14484,-64.5773
 L 6.54507,-65.0611 L 6.88153,-65.5912 L 7.14888,-66.1594 L 7.34291,-66.7566 L 7.46057,-67.3733 L 7.5,-68
 L 7.5,-88 L 7.46057,-88.6267 L 7.34291,-89.2434 L 7.14888,-89.8406 L 6.88153,-90.4088 L 6.54507,-90.9389
 L 6.14484,-91.4227 L 5.68712,-91.8526 L 5.17912,-92.2216 L 4.62889,-92.5241 L 4.04507,-92.7553 L 3.4369,-92.9114
 L 2.81395,-92.9901 L -2.81395,-92.9901 L -3.4369,-92.9114 L -4.04507,-92.7553 L -4.62889,-92.5241 L -5.17912,-92.2216
 L -5.68712,-91.8526 L -6.14484,-91.4227 L -6.54507,-90.9389 L -6.88153,-90.4088 L -7.14888,-89.8406 L -7.34291,-89.2434
 L -7.46057,-88.6267 L -7.5,-88 L -7.5,-68 L -7.46057,-67.3733 L -7.34291,-66.7566 L -7.14888,-66.1594
 L -6.88153,-65.5912 L -6.54507,-65.0611 L -6.14484,-64.5773 L -5.68712,-64.1474 L -5.17912,-63.7784 L -4.62889,-63.4759
 L -4.04507,-63.2447 L -3.4369,-63.0886 L -2.81395,-63.0099 L 2.81395,-63.0099 z
M -0.113022,-83.7036 L -0.33728,-83.7319 L -0.556229,-83.7881 L -0.766388,-83.8713 L -0.964478,-83.9802 L -1.14735,-84.1131
 L -1.31213,-84.2678 L -1.45622,-84.442 L -1.57735,-84.6328 L -1.67358,-84.8374 L -1.74344,-85.0524 L -1.7858,-85.2744
 L -1.79999,-85.5 L -1.7858,-85.7256 L -1.74344,-85.9476 L -1.67358,-86.1626 L -1.57735,-86.3671 L -1.45622,-86.558
 L -1.31213,-86.7322 L -1.14735,-86.8869 L -0.964478,-87.0198 L -0.766388,-87.1287 L -0.556229,-87.2119 L -0.33728,-87.2681
 L -0.113022,-87.2964 L 0.113022,-87.2964 L 0.33728,-87.2681 L 0.556229,-87.2119 L 0.766388,-87.1287 L 0.964478,-87.0198
 L 1.14735,-86.8869 L 1.31213,-86.7322 L 1.45622,-86.558 L 1.57735,-86.3671 L 1.67358,-86.1626 L 1.74344,-85.9476
 L 1.7858,-85.7256 L 1.79999,-85.5 L 1.7858,-85.2744 L 1.74344,-85.0524 L 1.67358,-84.8374 L 1.57735,-84.6328
 L 1.45622,-84.442 L 1.31213,-84.2678 L 1.14735,-84.1131 L 0.964478,-83.9802 L 0.766388,-83.8713 L 0.556229,-83.7881
 L 0.33728,-83.7319 L 0.113022,-83.7036 z
M -0.113022,-68.7036 L -0.33728,-68.7319 L -0.556229,-68.7881 L -0.766388,-68.8713 L -0.964478,-68.9802 L -1.14735,-69.1131
 L -1.31213,-69.2678 L -1.45622,-69.442 L -1.57735,-69.6329 L -1.67358,-69.8374 L -1.74344,-70.0524 L -1.7858,-70.2744
 L -1.79999,-70.5 L -1.7858,-70.7256 L -1.74344,-70.9476 L -1.67358,-71.1626 L -1.57735,-71.3672 L -1.45622,-71.558
 L -1.31213,-71.7322 L -1.14735,-71.8869 L -0.964478,-72.0198 L -0.766388,-72.1287 L -0.556229,-72.2119 L -0.33728,-72.2681
 L -0.113022,-72.2964 L 0.113022,-72.2964 L 0.33728,-72.2681 L 0.556229,-72.2119 L 0.766388,-72.1287 L 0.964478,-72.0198
 L 1.14735,-71.8869 L 1.31213,-71.7322 L 1.45622,-71.558 L 1.57735,-71.3672 L 1.67358,-71.1626 L 1.74344,-70.9476
 L 1.7858,-70.7256 L 1.79999,-70.5 L 1.7858,-70.2744 L 1.74344,-70.0524 L 1.67358,-69.8374 L 1.57735,-69.6329
 L 1.45622,-69.442 L 1.31213,-69.2678 L 1.14735,-69.1131 L 0.964478,-68.9802 L 0.766388,-68.8713 L 0.556229,-68.7881
 L 0.33728,-68.7319 L 0.113022,-68.7036 z
" stroke="black" fill="lightgray" stroke-width="0.5"/>
</svg>
