<?xml version="1.0" standalone="no"?>
<!DOCTYPE svg PUBLIC "-//W3C//DTD SVG 1.1//EN" "http://www.w3.org/Graphics/SVG/1.1/DTD/svg11.dtd">
<svg width="62mm" height="336mm" viewBox="-32 -651 62 336" xmlns="http://www.w3.org/2000/svg" version="1.1">
<title>OpenSCAD Model</title>
<path d="
M -28.5,-592.441 L -28.1871,-592.147 L -27.6791,-591.778 L -27.1289,-591.476 L -26.5451,-591.245 L -25.9369,-591.089
 L -25.3139,-591.01 L 25.3139,-591.01 L 25.9369,-591.089 L 26.5451,-591.245 L 27.1289,-591.476 L 27.6791,-591.778
 L 28.1871,-592.147 L 28.6448,-592.577 L 29.0451,-593.061 L 29.3815,-593.591 L 29.6489,-594.159 L 29.8429,-594.757
 L 29.9606,-595.373 L 30,-596 L 30,-646 L 29.9606,-646.627 L 29.8429,-647.243 L 29.6489,-647.841
 L 29.3815,-648.409 L 29.0451,-648.939 L 28.6448,-649.423 L 28.1871,-649.853 L 27.6791,-650.222 L 27.1289,-650.524
 L 26.5451,-650.755 L 25.9369,-650.911 L 25.3139,-650.99 L -25.3139,-650.99 L -25.9369,-650.911 L -26.5451,-650.755
 L -27.1289,-650.524 L -27.6791,-650.222 L -28.1871,-649.853 L -28.5,-649.559 L -28.5,-650.99 L -31.5,-650.99
 L -31.5,-591.01 L -28.5,-591.01 z
M -24.7512,-592.508 L -25.2495,-592.571 L -25.7361,-592.696 L -26.2031,-592.881 L -26.6433,-593.123 L -27.0497,-593.418
 L -27.4159,-593.762 L -27.7361,-594.149 L -28.0052,-594.573 L -28.2191,-595.028 L -28.3743,-595.505 L -28.4684,-595.999
 L -28.5,-596.5 L -28.5,-645.5 L -28.4684,-646.001 L -28.3743,-646.495 L -28.2191,-646.972 L -28.0052,-647.427
 L -27.7361,-647.851 L -27.4159,-648.238 L -27.0497,-648.582 L -26.6433,-648.877 L -26.2031,-649.119 L -25.7361,-649.304
 L -25.2495,-649.429 L -24.7512,-649.492 L 24.7512,-649.492 L 25.2495,-649.429 L 25.7361,-649.304 L 26.2031,-649.119
 L 26.6433,-648.877 L 27.0497,-648.582 L 27.4159,-648.238 L 27.7361,-647.851 L 28.0052,-647.427 L 28.2191,-646.972
 L 28.3743,-646.495 L 28.4684,-646.001 L 28.5,-645.5 L 28.5,-596.5 L 28.4684,-595.999 L 28.3743,-595.505
 L 28.2191,-595.028 L 28.0052,-594.573 L 27.7361,-594.149 L 27.4159,-593.762 L 27.0497,-593.418 L 26.6433,-593.123
 L 26.2031,-592.881 L 25.7361,-592.696 L 25.2495,-592.571 L 24.7512,-592.508 z
M -28.5,-523.441 L -28.1871,-523.147 L -27.6791,-522.778 L -27.1289,-522.476 L -26.5451,-522.245 L -25.9369,-522.089
 L -25.3139,-522.01 L 25.3139,-522.01 L 25.9369,-522.089 L 26.5451,-522.245 L 27.1289,-522.476 L 27.6791,-522.778
 L 28.1871,-523.147 L 28.6448,-523.577 L 29.0451,-524.061 L 29.3815,-524.591 L 29.6489,-525.159 L 29.8429,-525.757
 L 29.9606,-526.373 L 30,-527 L 30,-577 L 29.9606,-577.627 L 29.8429,-578.243 L 29.6489,-578.841
 L 29.3815,-579.409 L 29.0451,-579.939 L 28.6448,-580.423 L 28.1871,-580.853 L 27.6791,-581.222 L 27.1289,-581.524
 L 26.5451,-581.755 L 25.9369,-581.911 L 25.3139,-581.99 L -25.3139,-581.99 L -25.9369,-581.911 L -26.5451,-581.755
 L -27.1289,-581.524 L -27.6791,-581.222 L -28.1871,-580.853 L -28.5,-580.559 L -28.5,-581.99 L -31.5,-581.99
 L -31.5,-522.01 L -28.5,-522.01 z
M -24.7512,-523.508 L -25.2495,-523.571 L -25.7361,-523.696 L -26.2031,-523.881 L -26.6433,-524.123 L -27.0497,-524.418
 L -27.4159,-524.762 L -27.7361,-525.149 L -28.0052,-525.573 L -28.2191,-526.028 L -28.3743,-526.505 L -28.4684,-526.999
 L -28.5,-527.5 L -28.5,-576.5 L -28.4684,-577.001 L -28.3743,-577.495 L -28.2191,-577.972 L -28.0052,-578.427
 L -27.7361,-578.851 L -27.4159,-579.238 L -27.0497,-579.582 L -26.6433,-579.877 L -26.2031,-580.119 L -25.7361,-580.304
 L -25.2495,-580.429 L -24.7512,-580.492 L 24.7512,-580.492 L 25.2495,-580.429 L 25.7361,-580.304 L 26.2031,-580.119
 L 26.6433,-579.877 L 27.0497,-579.582 L 27.4159,-579.238 L 27.7361,-578.851 L 28.0052,-578.427 L 28.2191,-577.972
 L 28.3743,-577.495 L 28.4684,-577.001 L 28.5,-576.5 L 28.5,-527.5 L 28.4684,-526.999 L 28.3743,-526.505
 L 28.2191,-526.028 L 28.0052,-525.573 L 27.7361,-525.149 L 27.4159,-524.762 L 27.0497,-524.418 L 26.6433,-524.123
 L 26.2031,-523.881 L 25.7361,-523.696 L 25.2495,-523.571 L 24.7512,-523.508 z
M -28.5,-454.441 L -28.1871,-454.147 L -27.6791,-453.778 L -27.1289,-453.476 L -26.5451,-453.245 L -25.9369,-453.089
 L -25.3139,-453.01 L 25.3139,-453.01 L 25.9369,-453.089 L 26.5451,-453.245 L 27.1289,-453.476 L 27.6791,-453.778
 L 28.1871,-454.147 L 28.6448,-454.577 L 29.0451,-455.061 L 29.3815,-455.591 L 29.6489,-456.159 L 29.8429,-456.757
 L 29.9606,-457.373 L 30,-458 L 30,-508 L 29.9606,-508.627 L 29.8429,-509.243 L 29.6489,-509.841
 L 29.3815,-510.409 L 29.0451,-510.939 L 28.6448,-511.423 L 28.1871,-511.853 L 27.6791,-512.222 L 27.1289,-512.524
 L 26.5451,-512.755 L 25.9369,-512.911 L 25.3139,-512.99 L -25.3139,-512.99 L -25.9369,-512.911 L -26.5451,-512.755
 L -27.1289,-512.524 L -27.6791,-512.222 L -28.1871,-511.853 L -28.5,-511.559 L -28.5,-512.99 L -31.5,-512.99
 L -31.5,-453.01 L -28.5,-453.01 z
M -24.7512,-454.508 L -25.2495,-454.571 L -25.7361,-454.696 L -26.2031,-454.881 L -26.6433,-455.123 L -27.0497,-455.418
 L -27.4159,-455.762 L -27.7361,-456.149 L -28.0052,-456.573 L -28.2191,-457.028 L -28.3743,-457.505 L -28.4684,-457.999
 L -28.5,-458.5 L -28.5,-507.5 L -28.4684,-508.001 L -28.3743,-508.495 L -28.2191,-508.972 L -28.0052,-509.427
 L -27.7361,-509.851 L -27.4159,-510.238 L -27.0497,-510.582 L -26.6433,-510.877 L -26.2031,-511.119 L -25.7361,-511.304
 L -25.2495,-511.429 L -24.7512,-511.492 L 24.7512,-511.492 L 25.2495,-511.429 L 25.7361,-511.304 L 26.2031,-511.119
 L 26.6433,-510.877 L 27.0497,-510.582 L 27.4159,-510.238 L 27.7361,-509.851 L 28.0052,-509.427 L 28.2191,-508.972
 L 28.3743,-508.495 L 28.4684,-508.001 L 28.5,-507.5 L 28.5,-458.5 L 28.4684,-457.999 L 28.3743,-457.505
 L 28.2191,-457.028 L 28.0052,-456.573 L 27.7361,-456.149 L 27.4159,-455.762 L 27.0497,-455.418 L 26.6433,-455.123
 L 26.2031,-454.881 L 25.7361,-454.696 L 25.2495,-454.571 L 24.7512,-454.508 z
M 25.9369,-384.089 L 26.5451,-384.245 L 27.1289,-384.476 L 27.6791,-384.778 L 28.1871,-385.147 L 28.6448,-385.577
 L 29.0451,-386.061 L 29.3815,-386.591 L 29.6489,-387.159 L 29.8429,-387.757 L 29.9606,-388.373 L 30,-389
 L 30,-439 L 29.9606,-439.627 L 29.8429,-440.243 L 29.6489,-440.841 L 29.3815,-441.409 L 29.0451,-441.939
 L 28.6448,-442.423 L 28.1871,-442.853 L 27.6791,-443.222 L 27.1289,-443.524 L 26.5451,-443.755 L 25.9369,-443.911
 L 25.3139,-443.99 L -25.3139,-443.99 L -25.9369,-443.911 L -26.5451,-443.755 L -27.1289,-443.524 L -27.6791,-443.222
 L -28.1871,-442.853 L -28.5,-442.559 L -28.5,-443.979 L -31.5,-443.979 L -31.5,-384.021 L -28.5,-384.021
 L -28.5,-385.441 L -28.1871,-385.147 L -27.6791,-384.778 L -27.1289,-384.476 L -26.5451,-384.245 L -25.9369,-384.089
 L -25.3139,-384.01 L 25.3139,-384.01 z
M -24.6954,-386.393 L -25.0833,-386.442 L -25.4619,-386.539 L -25.8254,-386.683 L -26.168,-386.872 L -26.4842,-387.101
 L -26.7692,-387.369 L -27.0184,-387.67 L -27.2279,-388 L -27.3943,-388.354 L -27.5151,-388.726 L -27.5884,-389.11
 L -27.6129,-389.5 L -27.6129,-438.5 L -27.5884,-438.89 L -27.5151,-439.274 L -27.3943,-439.646 L -27.2279,-440
 L -27.0184,-440.33 L -26.7692,-440.631 L -26.4842,-440.899 L -26.168,-441.128 L -25.8254,-441.317 L -25.4619,-441.461
 L -25.0833,-441.558 L -24.6954,-441.607 L 24.6954,-441.607 L 25.0833,-441.558 L 25.4619,-441.461 L 25.8254,-441.317
 L 26.168,-441.128 L 26.4842,-440.899 L 26.7692,-440.631 L 27.0184,-440.33 L 27.2279,-440 L 27.3943,-439.646
 L 27.5151,-439.274 L 27.5884,-438.89 L 27.6129,-438.5 L 27.6129,-389.5 L 27.5884,-389.11 L 27.5151,-388.726
 L 27.3943,-388.354 L 27.2279,-388 L 27.0184,-387.67 L 26.7692,-387.369 L 26.4842,-387.101 L 26.168,-386.872
 L 25.8254,-386.683 L 25.4619,-386.539 L 25.0833,-386.442 L 24.6954,-386.393 z
M 25.9369,-315.089 L 26.5451,-315.245 L 27.1289,-315.476 L 27.6791,-315.778 L 28.1871,-316.147 L 28.6448,-316.577
 L 29.0451,-317.061 L 29.3815,-317.591 L 29.6489,-318.159 L 29.8429,-318.757 L 29.9606,-319.373 L 30,-320
 L 30,-370 L 29.9606,-370.627 L 29.8429,-371.243 L 29.6489,-371.841 L 29.3815,-372.409 L 29.0451,-372.939
 L 28.6448,-373.423 L 28.1871,-373.853 L 27.6791,-374.222 L 27.1289,-374.524 L 26.5451,-374.755 L 25.9369,-374.911
 L 25.3139,-374.99 L -25.3139,-374.99 L -25.9369,-374.911 L -26.5451,-374.755 L -27.1289,-374.524 L -27.6791,-374.222
 L -28.1871,-373.853 L -28.5,-373.559 L -28.5,-373.653 L -31.5,-373.653 L -31.5,-316.347 L -28.5,-316.347
 L -28.5,-316.441 L -28.1871,-316.147 L -27.6791,-315.778 L -27.1289,-315.476 L -26.5451,-315.245 L -25.9369,-315.089
 L -25.3139,-315.01 L 25.3139,-315.01 z
M -22.6341,-365.369 L -22.9001,-365.403 L -23.1598,-365.469 L -23.4091,-365.568 L -23.6441,-365.697 L -23.8611,-365.855
 L -24.0565,-366.038 L -24.2275,-366.245 L -24.3712,-366.471 L -24.4853,-366.714 L -24.5682,-366.969 L -24.6185,-367.232
 L -24.6353,-367.5 L -24.6185,-367.768 L -24.5682,-368.031 L -24.4853,-368.286 L -24.3712,-368.529 L -24.2275,-368.755
 L -24.0565,-368.962 L -23.8611,-369.145 L -23.6441,-369.303 L -23.4091,-369.432 L -23.1598,-369.531 L -22.9001,-369.597
 L -22.6341,-369.631 L -22.3659,-369.631 L -22.0999,-369.597 L -21.8401,-369.531 L -21.5908,-369.432 L -21.3559,-369.303
 L -21.1389,-369.145 L -20.9434,-368.962 L -20.7725,-368.755 L -20.6288,-368.529 L -20.5146,-368.286 L -20.4318,-368.031
 L -20.3815,-367.768 L -20.3647,-367.5 L -20.3815,-367.232 L -20.4318,-366.969 L -20.5146,-366.714 L -20.6288,-366.471
 L -20.7725,-366.245 L -20.9434,-366.038 L -21.1389,-365.855 L -21.3559,-365.697 L -21.5908,-365.568 L -21.8401,-365.469
 L -22.0999,-365.403 L -22.3659,-365.369 z
M 22.3659,-365.369 L 22.0999,-365.403 L 21.8401,-365.469 L 21.5908,-365.568 L 21.3559,-365.697 L 21.1389,-365.855
 L 20.9434,-366.038 L 20.7725,-366.245 L 20.6288,-366.471 L 20.5146,-366.714 L 20.4318,-366.969 L 20.3815,-367.232
 L 20.3647,-367.5 L 20.3815,-367.768 L 20.4318,-368.031 L 20.5146,-368.286 L 20.6288,-368.529 L 20.7725,-368.755
 L 20.9434,-368.962 L 21.1389,-369.145 L 21.3559,-369.303 L 21.5908,-369.432 L 21.8401,-369.531 L 22.0999,-369.597
 L 22.3659,-369.631 L 22.6341,-369.631 L 22.9001,-369.597 L 23.1598,-369.531 L 23.4091,-369.432 L 23.6441,-369.303
 L 23.8611,-369.145 L 24.0565,-368.962 L 24.2275,-368.755 L 24.3712,-368.529 L 24.4853,-368.286 L 24.5682,-368.031
 L 24.6185,-367.768 L 24.6353,-367.5 L 24.6185,-367.232 L 24.5682,-366.969 L 24.4853,-366.714 L 24.3712,-366.471
 L 24.2275,-366.245 L 24.0565,-366.038 L 23.8611,-365.855 L 23.6441,-365.697 L 23.4091,-365.568 L 23.1598,-365.469
 L 22.9001,-365.403 L 22.6341,-365.369 z
M -22.6341,-320.369 L -22.9001,-320.403 L -23.1598,-320.469 L -23.4091,-320.568 L -23.6441,-320.697 L -23.8611,-320.855
 L -24.0565,-321.038 L -24.2275,-321.245 L -24.3712,-321.471 L -24.4853,-321.714 L -24.5682,-321.969 L -24.6185,-322.232
 L -24.6353,-322.5 L -24.6185,-322.768 L -24.5682,-323.031 L -24.4853,-323.286 L -24.3712,-323.529 L -24.2275,-323.755
 L -24.0565,-323.962 L -23.8611,-324.145 L -23.6441,-324.303 L -23.4091,-324.432 L -23.1598,-324.531 L -22.9001,-324.597
 L -22.6341,-324.631 L -22.3659,-324.631 L -22.0999,-324.597 L -21.8401,-324.531 L -21.5908,-324.432 L -21.3559,-324.303
 L -21.1389,-324.145 L -20.9434,-323.962 L -20.7725,-323.755 L -20.6288,-323.529 L -20.5146,-323.286 L -20.4318,-323.031
 L -20.3815,-322.768 L -20.3647,-322.5 L -20.3815,-322.232 L -20.4318,-321.969 L -20.5146,-321.714 L -20.6288,-321.471
 L -20.7725,-321.245 L -20.9434,-321.038 L -21.1389,-320.855 L -21.3559,-320.697 L -21.5908,-320.568 L -21.8401,-320.469
 L -22.0999,-320.403 L -22.3659,-320.369 z
M 22.3659,-320.369 L 22.0999,-320.403 L 21.8401,-320.469 L 21.5908,-320.568 L 21.3559,-320.697 L 21.1389,-320.855
 L 20.9434,-321.038 L 20.7725,-321.245 L 20.6288,-321.471 L 20.5146,-321.714 L 20.4318,-321.969 L 20.3815,-322.232
 L 20.3647,-322.5 L 20.3815,-322.768 L 20.4318,-323.031 L 20.5146,-323.286 L 20.6288,-323.529 L 20.7725,-323.755
 L 20.9434,-323.962 L 21.1389,-324.145 L 21.3559,-324.303 L 21.5908,-324.432 L 21.8401,-324.531 L 22.0999,-324.597
 L 22.3659,-324.631 L 22.6341,-324.631 L 22.9001,-324.597 L 23.1598,-324.531 L 23.4091,-324.432 L 23.6441,-324.303
 L 23.8611,-324.145 L 24.0565,-323.962 L 24.2275,-323.755 L 24.3712,-323.529 L 24.4853,-323.286 L 24.5682,-323.031
 L 24.6185,-322.768 L 24.6353,-322.5 L 24.6185,-322.232 L 24.5682,-321.969 L 24.4853,-321.714 L 24.3712,-321.471
 L 24.2275,-321.245 L 24.0565,-321.038 L 23.8611,-320.855 L 23.6441,-320.697 L 23.4091,-320.568 L 23.1598,-320.469
 L 22.9001,-320.403 L 22.6341,-320.369 z
" stroke="black" fill="lightgray" stroke-width="0.5"/>
</svg>
