<?xml version="1.0" standalone="no"?>
<!DOCTYPE svg PUBLIC "-//W3C//DTD SVG 1.1//EN" "http://www.w3.org/Graphics/SVG/1.1/DTD/svg11.dtd">
<svg width="46mm" height="486mm" viewBox="-23 -936 46 486" xmlns="http://www.w3.org/2000/svg" version="1.1">
<title>OpenSCAD Model</title>
<path d="
M 18.4369,-846.089 L 19.0451,-846.245 L 19.6289,-846.476 L 20.1791,-846.778 L 20.6871,-847.147 L 21.1448,-847.577
 L 21.5451,-848.061 L 21.8815,-848.591 L 22.1489,-849.159 L 22.3429,-849.757 L 22.4606,-850.373 L 22.5,-851
 L 22.5,-931 L 22.4606,-931.627 L 22.3429,-932.243 L 22.1489,-932.841 L 21.8815,-933.409 L 21.5451,-933.939
 L 21.1448,-934.423 L 20.6871,-934.853 L 20.1791,-935.222 L 19.6289,-935.524 L 19.0451,-935.755 L 18.4369,-935.911
 L 17.8139,-935.99 L -17.8139,-935.99 L -18.4369,-935.911 L -19.0451,-935.755 L -19.6289,-935.524 L -20.1791,-935.222
 L -20.6871,-934.853 L -21.1448,-934.423 L -21.5451,-933.939 L -21.8815,-933.409 L -22.1489,-932.841 L -22.3429,-932.243
 L -22.4606,-931.627 L -22.5,-931 L -22.5,-851 L -22.4606,-850.373 L -22.3429,-849.757 L -22.1489,-849.159
 L -21.8815,-848.591 L -21.5451,-848.061 L -21.1448,-847.577 L -20.6871,-847.147 L -20.1791,-846.778 L -19.6289,-846.476
 L -19.0451,-846.245 L -18.4369,-846.089 L -17.8139,-846.01 L 17.8139,-846.01 z
M -17.2512,-847.508 L -17.7495,-847.571 L -18.2361,-847.696 L -18.7031,-847.881 L -19.1433,-848.123 L -19.5497,-848.418
 L -19.9159,-848.762 L -20.2361,-849.149 L -20.5052,-849.573 L -20.7191,-850.028 L -20.8743,-850.505 L -20.9684,-850.999
 L -21,-851.5 L -21,-930.5 L -20.9684,-931.001 L -20.8743,-931.495 L -20.7191,-931.972 L -20.5052,-932.427
 L -20.2361,-932.851 L -19.9159,-933.238 L -19.5497,-933.582 L -19.1433,-933.877 L -18.7031,-934.119 L -18.2361,-934.304
 L -17.7495,-934.429 L -17.2512,-934.492 L 17.2512,-934.492 L 17.7495,-934.429 L 18.2361,-934.304 L 18.7031,-934.119
 L 19.1433,-933.877 L 19.5497,-933.582 L 19.9159,-933.238 L 20.2361,-932.851 L 20.5052,-932.427 L 20.7191,-931.972
 L 20.8743,-931.495 L 20.9684,-931.001 L 21,-930.5 L 21,-851.5 L 20.9684,-850.999 L 20.8743,-850.505
 L 20.7191,-850.028 L 20.5052,-849.573 L 20.2361,-849.149 L 19.9159,-848.762 L 19.5497,-848.418 L 19.1433,-848.123
 L 18.7031,-847.881 L 18.2361,-847.696 L 17.7495,-847.571 L 17.2512,-847.508 z
M 18.4369,-747.089 L 19.0451,-747.245 L 19.6289,-747.476 L 20.1791,-747.778 L 20.6871,-748.147 L 21.1448,-748.577
 L 21.5451,-749.061 L 21.8815,-749.591 L 22.1489,-750.159 L 22.3429,-750.757 L 22.4606,-751.373 L 22.5,-752
 L 22.5,-832 L 22.4606,-832.627 L 22.3429,-833.243 L 22.1489,-833.841 L 21.8815,-834.409 L 21.5451,-834.939
 L 21.1448,-835.423 L 20.6871,-835.853 L 20.1791,-836.222 L 19.6289,-836.524 L 19.0451,-836.755 L 18.4369,-836.911
 L 17.8139,-836.99 L -17.8139,-836.99 L -18.4369,-836.911 L -19.0451,-836.755 L -19.6289,-836.524 L -20.1791,-836.222
 L -20.6871,-835.853 L -21.1448,-835.423 L -21.5451,-834.939 L -21.8815,-834.409 L -22.1489,-833.841 L -22.3429,-833.243
 L -22.4606,-832.627 L -22.5,-832 L -22.5,-752 L -22.4606,-751.373 L -22.3429,-750.757 L -22.1489,-750.159
 L -21.8815,-749.591 L -21.5451,-749.061 L -21.1448,-748.577 L -20.6871,-748.147 L -20.1791,-747.778 L -19.6289,-747.476
 L -19.0451,-747.245 L -18.4369,-747.089 L -17.8139,-747.01 L 17.8139,-747.01 z
M -17.2512,-748.508 L -17.7495,-748.571 L -18.2361,-748.696 L -18.7031,-748.881 L -19.1433,-749.123 L -19.5497,-749.418
 L -19.9159,-749.762 L -20.2361,-750.149 L -20.5052,-750.573 L -20.7191,-751.028 L -20.8743,-751.505 L -20.9684,-751.999
 L -21,-752.5 L -21,-831.5 L -20.9684,-832.001 L -20.8743,-832.495 L -20.7191,-832.972 L -20.5052,-833.427
 L -20.2361,-833.851 L -19.9159,-834.238 L -19.5497,-834.582 L -19.1433,-834.877 L -18.7031,-835.119 L -18.2361,-835.304
 L -17.7495,-835.429 L -17.2512,-835.492 L 17.2512,-835.492 L 17.7495,-835.429 L 18.2361,-835.304 L 18.7031,-835.119
 L 19.1433,-834.877 L 19.5497,-834.582 L 19.9159,-834.238 L 20.2361,-833.851 L 20.5052,-833.427 L 20.7191,-832.972
 L 20.8743,-832.495 L 20.9684,-832.001 L 21,-831.5 L 21,-752.5 L 20.9684,-751.999 L 20.8743,-751.505
 L 20.7191,-751.028 L 20.5052,-750.573 L 20.2361,-750.149 L 19.9159,-749.762 L 19.5497,-749.418 L 19.1433,-749.123
 L 18.7031,-748.881 L 18.2361,-748.696 L 17.7495,-748.571 L 17.2512,-748.508 z
M 18.4369,-648.089 L 19.0451,-648.245 L 19.6289,-648.476 L 20.1791,-648.778 L 20.6871,-649.147 L 21.1448,-649.577
 L 21.5451,-650.061 L 21.8815,-650.591 L 22.1489,-651.159 L 22.3429,-651.757 L 22.4606,-652.373 L 22.5,-653
 L 22.5,-733 L 22.4606,-733.627 L 22.3429,-734.243 L 22.1489,-734.841 L 21.8815,-735.409 L 21.5451,-735.939
 L 21.1448,-736.423 L 20.6871,-736.853 L 20.1791,-737.222 L 19.6289,-737.524 L 19.0451,-737.755 L 18.4369,-737.911
 L 17.8139,-737.99 L -17.8139,-737.99 L -18.4369,-737.911 L -19.0451,-737.755 L -19.6289,-737.524 L -20.1791,-737.222
 L -20.6871,-736.853 L -21.1448,-736.423 L -21.5451,-735.939 L -21.8815,-735.409 L -22.1489,-734.841 L -22.3429,-734.243
 L -22.4606,-733.627 L -22.5,-733 L -22.5,-653 L -22.4606,-652.373 L -22.3429,-651.757 L -22.1489,-651.159
 L -21.8815,-650.591 L -21.5451,-650.061 L -21.1448,-649.577 L -20.6871,-649.147 L -20.1791,-648.778 L -19.6289,-648.476
 L -19.0451,-648.245 L -18.4369,-648.089 L -17.8139,-648.01 L 17.8139,-648.01 z
M -17.2512,-649.508 L -17.7495,-649.571 L -18.2361,-649.696 L -18.7031,-649.881 L -19.1433,-650.123 L -19.5497,-650.418
 L -19.9159,-650.762 L -20.2361,-651.149 L -20.5052,-651.573 L -20.7191,-652.028 L -20.8743,-652.505 L -20.9684,-652.999
 L -21,-653.5 L -21,-732.5 L -20.9684,-733.001 L -20.8743,-733.495 L -20.7191,-733.972 L -20.5052,-734.427
 L -20.2361,-734.851 L -19.9159,-735.238 L -19.5497,-735.582 L -19.1433,-735.877 L -18.7031,-736.119 L -18.2361,-736.304
 L -17.7495,-736.429 L -17.2512,-736.492 L 17.2512,-736.492 L 17.7495,-736.429 L 18.2361,-736.304 L 18.7031,-736.119
 L 19.1433,-735.877 L 19.5497,-735.582 L 19.9159,-735.238 L 20.2361,-734.851 L 20.5052,-734.427 L 20.7191,-733.972
 L 20.8743,-733.495 L 20.9684,-733.001 L 21,-732.5 L 21,-653.5 L 20.9684,-652.999 L 20.8743,-652.505
 L 20.7191,-652.028 L 20.5052,-651.573 L 20.2361,-651.149 L 19.9159,-650.762 L 19.5497,-650.418 L 19.1433,-650.123
 L 18.7031,-649.881 L 18.2361,-649.696 L 17.7495,-649.571 L 17.2512,-649.508 z
M 18.4369,-549.089 L 19.0451,-549.245 L 19.6289,-549.476 L 20.1791,-549.778 L 20.6871,-550.147 L 21.1448,-550.577
 L 21.5451,-551.061 L 21.8815,-551.591 L 22.1489,-552.159 L 22.3429,-552.757 L 22.4606,-553.373 L 22.5,-554
 L 22.5,-634 L 22.4606,-634.627 L 22.3429,-635.243 L 22.1489,-635.841 L 21.8815,-636.409 L 21.5451,-636.939
 L 21.1448,-637.423 L 20.6871,-637.853 L 20.1791,-638.222 L 19.6289,-638.524 L 19.0451,-638.755 L 18.4369,-638.911
 L 17.8139,-638.99 L -17.8139,-638.99 L -18.4369,-638.911 L -19.0451,-638.755 L -19.6289,-638.524 L -20.1791,-638.222
 L -20.6871,-637.853 L -21.1448,-637.423 L -21.5451,-636.939 L -21.8815,-636.409 L -22.1489,-635.841 L -22.3429,-635.243
 L -22.4606,-634.627 L -22.5,-634 L -22.5,-554 L -22.4606,-553.373 L -22.3429,-552.757 L -22.1489,-552.159
 L -21.8815,-551.591 L -21.5451,-551.061 L -21.1448,-550.577 L -20.6871,-550.147 L -20.1791,-549.778 L -19.6289,-549.476
 L -19.0451,-549.245 L -18.4369,-549.089 L -17.8139,-549.01 L 17.8139,-549.01 z
M -17.1954,-551.393 L -17.5833,-551.442 L -17.9619,-551.539 L -18.3254,-551.683 L -18.668,-551.872 L -18.9842,-552.101
 L -19.2692,-552.369 L -19.5184,-552.67 L -19.7279,-553 L -19.8943,-553.354 L -20.0151,-553.726 L -20.0884,-554.11
 L -20.1129,-554.5 L -20.1129,-633.5 L -20.0884,-633.89 L -20.0151,-634.274 L -19.8943,-634.646 L -19.7279,-635
 L -19.5184,-635.33 L -19.2692,-635.631 L -18.9842,-635.899 L -18.668,-636.128 L -18.3254,-636.317 L -17.9619,-636.461
 L -17.5833,-636.558 L -17.1954,-636.607 L 17.1954,-636.607 L 17.5833,-636.558 L 17.9619,-636.461 L 18.3254,-636.317
 L 18.668,-636.128 L 18.9842,-635.899 L 19.2692,-635.631 L 19.5184,-635.33 L 19.7279,-635 L 19.8943,-634.646
 L 20.0151,-634.274 L 20.0884,-633.89 L 20.1129,-633.5 L 20.1129,-554.5 L 20.0884,-554.11 L 20.0151,-553.726
 L 19.8943,-553.354 L 19.7279,-553 L 19.5184,-552.67 L 19.2692,-552.369 L 18.9842,-552.101 L 18.668,-551.872
 L 18.3254,-551.683 L 17.9619,-551.539 L 17.5833,-551.442 L 17.1954,-551.393 z
M 18.4369,-450.089 L 19.0451,-450.245 L 19.6289,-450.476 L 20.1791,-450.778 L 20.6871,-451.147 L 21.1448,-451.577
 L 21.5451,-452.061 L 21.8815,-452.591 L 22.1489,-453.159 L 22.3429,-453.757 L 22.4606,-454.373 L 22.5,-455
 L 22.5,-535 L 22.4606,-535.627 L 22.3429,-536.243 L 22.1489,-536.841 L 21.8815,-537.409 L 21.5451,-537.939
 L 21.1448,-538.423 L 20.6871,-538.853 L 20.1791,-539.222 L 19.6289,-539.524 L 19.0451,-539.755 L 18.4369,-539.911
 L 17.8139,-539.99 L -17.8139,-539.99 L -18.4369,-539.911 L -19.0451,-539.755 L -19.6289,-539.524 L -20.1791,-539.222
 L -20.6871,-538.853 L -21.1448,-538.423 L -21.5451,-537.939 L -21.8815,-537.409 L -22.1489,-536.841 L -22.3429,-536.243
 L -22.4606,-535.627 L -22.5,-535 L -22.5,-455 L -22.4606,-454.373 L -22.3429,-453.757 L -22.1489,-453.159
 L -21.8815,-452.591 L -21.5451,-452.061 L -21.1448,-451.577 L -20.6871,-451.147 L -20.1791,-450.778 L -19.6289,-450.476
 L -19.0451,-450.245 L -18.4369,-450.089 L -17.8139,-450.01 L 17.8139,-450.01 z
M 14.8659,-530.369 L 14.5999,-530.403 L 14.3401,-530.469 L 14.0908,-530.568 L 13.8559,-530.697 L 13.6389,-530.855
 L 13.4434,-531.038 L 13.2725,-531.245 L 13.1288,-531.471 L 13.0146,-531.714 L 12.9318,-531.969 L 12.8815,-532.232
 L 12.8647,-532.5 L 12.8815,-532.768 L 12.9318,-533.031 L 13.0146,-533.286 L 13.1288,-533.529 L 13.2725,-533.755
 L 13.4434,-533.962 L 13.6389,-534.145 L 13.8559,-534.303 L 14.0908,-534.432 L 14.3401,-534.531 L 14.5999,-534.597
 L 14.8659,-534.631 L 15.1341,-534.631 L 15.4001,-534.597 L 15.6598,-534.531 L 15.9091,-534.432 L 16.1441,-534.303
 L 16.3611,-534.145 L 16.5565,-533.962 L 16.7275,-533.755 L 16.8712,-533.529 L 16.9853,-533.286 L 17.0682,-533.031
 L 17.1185,-532.768 L 17.1353,-532.5 L 17.1185,-532.232 L 17.0682,-531.969 L 16.9853,-531.714 L 16.8712,-531.471
 L 16.7275,-531.245 L 16.5565,-531.038 L 16.3611,-530.855 L 16.1441,-530.697 L 15.9091,-530.568 L 15.6598,-530.469
 L 15.4001,-530.403 L 15.1341,-530.369 z
M -15.1341,-530.369 L -15.4001,-530.403 L -15.6598,-530.469 L -15.9091,-530.568 L -16.1441,-530.697 L -16.3611,-530.855
 L -16.5565,-531.038 L -16.7275,-531.245 L -16.8712,-531.471 L -16.9853,-531.714 L -17.0682,-531.969 L -17.1185,-532.232
 L -17.1353,-532.5 L -17.1185,-532.768 L -17.0682,-533.031 L -16.9853,-533.286 L -16.8712,-533.529 L -16.7275,-533.755
 L -16.5565,-533.962 L -16.3611,-534.145 L -16.1441,-534.303 L -15.9091,-534.432 L -15.6598,-534.531 L -15.4001,-534.597
 L -15.1341,-534.631 L -14.8659,-534.631 L -14.5999,-534.597 L -14.3401,-534.531 L -14.0908,-534.432 L -13.8559,-534.303
 L -13.6389,-534.145 L -13.4434,-533.962 L -13.2725,-533.755 L -13.1288,-533.529 L -13.0146,-533.286 L -12.9318,-533.031
 L -12.8815,-532.768 L -12.8647,-532.5 L -12.8815,-532.232 L -12.9318,-531.969 L -13.0146,-531.714 L -13.1288,-531.471
 L -13.2725,-531.245 L -13.4434,-531.038 L -13.6389,-530.855 L -13.8559,-530.697 L -14.0908,-530.568 L -14.3401,-530.469
 L -14.5999,-530.403 L -14.8659,-530.369 z
M 14.8659,-455.369 L 14.5999,-455.403 L 14.3401,-455.469 L 14.0908,-455.568 L 13.8559,-455.697 L 13.6389,-455.855
 L 13.4434,-456.038 L 13.2725,-456.245 L 13.1288,-456.471 L 13.0146,-456.714 L 12.9318,-456.969 L 12.8815,-457.232
 L 12.8647,-457.5 L 12.8815,-457.768 L 12.9318,-458.031 L 13.0146,-458.286 L 13.1288,-458.529 L 13.2725,-458.755
 L 13.4434,-458.962 L 13.6389,-459.145 L 13.8559,-459.303 L 14.0908,-459.432 L 14.3401,-459.531 L 14.5999,-459.597
 L 14.8659,-459.631 L 15.1341,-459.631 L 15.4001,-459.597 L 15.6598,-459.531 L 15.9091,-459.432 L 16.1441,-459.303
 L 16.3611,-459.145 L 16.5565,-458.962 L 16.7275,-458.755 L 16.8712,-458.529 L 16.9853,-458.286 L 17.0682,-458.031
 L 17.1185,-457.768 L 17.1353,-457.5 L 17.1185,-457.232 L 17.0682,-456.969 L 16.9853,-456.714 L 16.8712,-456.471
 L 16.7275,-456.245 L 16.5565,-456.038 L 16.3611,-455.855 L 16.1441,-455.697 L 15.9091,-455.568 L 15.6598,-455.469
 L 15.4001,-455.403 L 15.1341,-455.369 z
M -15.1341,-455.369 L -15.4001,-455.403 L -15.6598,-455.469 L -15.9091,-455.568 L -16.1441,-455.697 L -16.3611,-455.855
 L -16.5565,-456.038 L -16.7275,-456.245 L -16.8712,-456.471 L -16.9853,-456.714 L -17.0682,-456.969 L -17.1185,-457.232
 L -17.1353,-457.5 L -17.1185,-457.768 L -17.0682,-458.031 L -16.9853,-458.286 L -16.8712,-458.529 L -16.7275,-458.755
 L -16.5565,-458.962 L -16.3611,-459.145 L -16.1441,-459.303 L -15.9091,-459.432 L -15.6598,-459.531 L -15.4001,-459.597
 L -15.1341,-459.631 L -14.8659,-459.631 L -14.5999,-459.597 L -14.3401,-459.531 L -14.0908,-459.432 L -13.8559,-459.303
 L -13.6389,-459.145 L -13.4434,-458.962 L -13.2725,-458.755 L -13.1288,-458.529 L -13.0146,-458.286 L -12.9318,-458.031
 L -12.8815,-457.768 L -12.8647,-457.5 L -12.8815,-457.232 L -12.9318,-456.969 L -13.0146,-456.714 L -13.1288,-456.471
 L -13.2725,-456.245 L -13.4434,-456.038 L -13.6389,-455.855 L -13.8559,-455.697 L -14.0908,-455.568 L -14.3401,-455.469
 L -14.5999,-455.403 L -14.8659,-455.369 z
" stroke="black" fill="lightgray" stroke-width="0.5"/>
</svg>
