<?xml version="1.0" standalone="no"?>
<!DOCTYPE svg PUBLIC "-//W3C//DTD SVG 1.1//EN" "http://www.w3.org/Graphics/SVG/1.1/DTD/svg11.dtd">
<svg width="150mm" height="69mm" viewBox="-75 -132 150 69" xmlns="http://www.w3.org/2000/svg" version="1.1">
<title>OpenSCAD Model</title>
<path d="
M 70.9369,-102.089 L 71.5451,-102.245 L 72.1289,-102.476 L 72.6791,-102.778 L 73.1871,-103.147 L 73.6448,-103.577
 L 74.0451,-104.061 L 74.3815,-104.591 L 74.6489,-105.159 L 74.8429,-105.757 L 74.9606,-106.373 L 75,-107
 L 75,-127 L 74.9606,-127.627 L 74.8429,-128.243 L 74.6489,-128.841 L 74.3815,-129.409 L 74.0451,-129.939
 L 73.6448,-130.423 L 73.1871,-130.853 L 72.6791,-131.222 L 72.1289,-131.524 L 71.5451,-131.755 L 70.9369,-131.911
 L 70.3139,-131.99 L -70.3139,-131.99 L -70.9369,-131.911 L -71.5451,-131.755 L -72.1289,-131.524 L -72.6791,-131.222
 L -73.1871,-130.853 L -73.6448,-130.423 L -74.0451,-129.939 L -74.3815,-129.409 L -74.6489,-128.841 L -74.8429,-128.243
 L -74.9606,-127.627 L -75,-127 L -75,-107 L -74.9606,-106.373 L -74.8429,-105.757 L -74.6489,-105.159
 L -74.3815,-104.591 L -74.0451,-104.061 L -73.6448,-103.577 L -73.1871,-103.147 L -72.6791,-102.778 L -72.1289,-102.476
 L -71.5451,-102.245 L -70.9369,-102.089 L -70.3139,-102.01 L 70.3139,-102.01 z
M -70.0375,-102.681 L -70.6079,-102.753 L -71.1648,-102.896 L -71.6994,-103.107 L -72.2032,-103.384 L -72.6684,-103.722
 L -73.0875,-104.116 L -73.454,-104.559 L -73.7621,-105.044 L -74.0069,-105.565 L -74.1846,-106.111 L -74.2923,-106.676
 L -74.3284,-107.25 L -74.3284,-126.75 L -74.2923,-127.324 L -74.1846,-127.889 L -74.0069,-128.435 L -73.7621,-128.956
 L -73.454,-129.441 L -73.0875,-129.884 L -72.6684,-130.278 L -72.2032,-130.616 L -71.6994,-130.893 L -71.1648,-131.104
 L -70.6079,-131.247 L -70.0375,-131.319 L 70.0375,-131.319 L 70.6079,-131.247 L 71.1648,-131.104 L 71.6994,-130.893
 L 72.2032,-130.616 L 72.6684,-130.278 L 73.0875,-129.884 L 73.454,-129.441 L 73.7621,-128.956 L 74.0069,-128.435
 L 74.1846,-127.889 L 74.2923,-127.324 L 74.3284,-126.75 L 74.3284,-107.25 L 74.2923,-106.676 L 74.1846,-106.111
 L 74.0069,-105.565 L 73.7621,-105.044 L 73.454,-104.559 L 73.0875,-104.116 L 72.6684,-103.722 L 72.2032,-103.384
 L 71.6994,-103.107 L 71.1648,-102.896 L 70.6079,-102.753 L 70.0375,-102.681 z
M 70.9369,-63.0886 L 71.5451,-63.2447 L 72.1289,-63.4759 L 72.6791,-63.7784 L 73.1871,-64.1474 L 73.6448,-64.5773
 L 74.0451,-65.0611 L 74.3815,-65.5912 L 74.6489,-66.1594 L 74.8429,-66.7566 L 74.9606,-67.3733 L 75,-68
 L 75,-88 L 74.9606,-88.6267 L 74.8429,-89.2434 L 74.6489,-89.8406 L 74.3815,-90.4088 L 74.0451,-90.9389
 L 73.6448,-91.4227 L 73.1871,-91.8526 L 72.6791,-92.2216 L 72.1289,-92.5241 L 71.5451,-92.7553 L 70.9369,-92.9114
 L 70.3139,-92.9901 L -70.3139,-92.9901 L -70.9369,-92.9114 L -71.5451,-92.7553 L -72.1289,-92.5241 L -72.6791,-92.2216
 L -73.1871,-91.8526 L -73.6448,-91.4227 L -74.0451,-90.9389 L -74.3815,-90.4088 L -74.6489,-89.8406 L -74.8429,-89.2434
 L -74.9606,-88.6267 L -75,-88 L -75,-68 L -74.9606,-67.3733 L -74.8429,-66.7566 L -74.6489,-66.1594
 L -74.3815,-65.5912 L -74.0451,-65.0611 L -73.6448,-64.5773 L -73.1871,-64.1474 L -72.6791,-63.7784 L -72.1289,-63.4759
 L -71.5451,-63.2447 L -70.9369,-63.0886 L -70.3139,-63.0099 L 70.3139,-63.0099 z
M -69.8825,-66.1445 L -70.1453,-66.1777 L -70.4019,-66.2436 L -70.6482,-66.3412 L -70.8804,-66.4688 L -71.0947,-66.6245
 L -71.2879,-66.8059 L -71.4567,-67.01 L -71.5987,-67.2337 L -71.7115,-67.4734 L -71.7934,-67.7254 L -71.843,-67.9856
 L -71.8596,-68.25 L -71.8596,-87.75 L -71.843,-88.0144 L -71.7934,-88.2746 L -71.7115,-88.5266 L -71.5987,-88.7663
 L -71.4567,-88.99 L -71.2879,-89.1941 L -71.0947,-89.3755 L -70.8804,-89.5312 L -70.6482,-89.6588 L -70.4019,-89.7564
 L -70.1453,-89.8223 L -69.8825,-89.8555 L 69.8825,-89.8555 L 70.1453,-89.8223 L 70.4019,-89.7564 L 70.6482,-89.6588
 L 70.8804,-89.5312 L 71.0947,-89.3755 L 71.2879,-89.1941 L 71.4567,-88.99 L 71.5987,-88.7663 L 71.7115,-88.5266
 L 71.7934,-88.2746 L 71.843,-88.0144 L 71.8596,-87.75 L 71.8596,-68.25 L 71.843,-67.9856 L 71.7934,-67.7254
 L 71.7115,-67.4734 L 71.5987,-67.2337 L 71.4567,-67.01 L 71.2879,-66.8059 L 71.0947,-66.6245 L 70.8804,-66.4688
 L 70.6482,-66.3412 L 70.4019,-66.2436 L 70.1453,-66.1777 L 69.8825,-66.1445 z
" stroke="black" fill="lightgray" stroke-width="0.5"/>
</svg>
