<?xml version="1.0" standalone="no"?>
<!DOCTYPE svg PUBLIC "-//W3C//DTD SVG 1.1//EN" "http://www.w3.org/Graphics/SVG/1.1/DTD/svg11.dtd">
<svg width="136mm" height="64mm" viewBox="-68 -104 136 64" xmlns="http://www.w3.org/2000/svg" version="1.1">
<title>OpenSCAD Model</title>
<path d="
M 63.4369,-88.5886 L 64.0451,-88.7447 L 64.6289,-88.9759 L 65.1791,-89.2784 L 65.6871,-89.6474 L 66.1448,-90.0773
 L 66.5451,-90.5611 L 66.8815,-91.0912 L 67.1489,-91.6594 L 67.3429,-92.2566 L 67.4606,-92.8733 L 67.5,-93.5
 L 67.5,-98.5 L 67.4606,-99.1267 L 67.3429,-99.7434 L 67.1489,-100.341 L 66.8815,-100.909 L 66.5451,-101.439
 L 66.1448,-101.923 L 65.6871,-102.353 L 65.1791,-102.722 L 64.6289,-103.024 L 64.0451,-103.255 L 63.4369,-103.411
 L 62.8139,-103.49 L -62.8139,-103.49 L -63.4369,-103.411 L -64.0451,-103.255 L -64.6289,-103.024 L -65.1791,-102.722
 L -65.6871,-102.353 L -66.1448,-101.923 L -66.5451,-101.439 L -66.8815,-100.909 L -67.1489,-100.341 L -67.3429,-99.7434
 L -67.4606,-99.1267 L -67.5,-98.5 L -67.5,-93.5 L -67.4606,-92.8733 L -67.3429,-92.2566 L -67.1489,-91.6594
 L -66.8815,-91.0912 L -66.5451,-90.5611 L -66.1448,-90.0773 L -65.6871,-89.6474 L -65.1791,-89.2784 L -64.6289,-88.9759
 L -64.0451,-88.7447 L -63.4369,-88.5886 L -62.8139,-88.5099 L 62.8139,-88.5099 z
M -62.5482,-89.0094 L -63.1401,-89.0841 L -63.7178,-89.2325 L -64.2724,-89.4521 L -64.7952,-89.7395 L -65.2778,-90.0901
 L -65.7126,-90.4984 L -66.0928,-90.958 L -66.4125,-91.4617 L -66.6664,-92.0014 L -66.8508,-92.5687 L -66.9625,-93.1547
 L -67,-93.75 L -67,-98.25 L -66.9625,-98.8453 L -66.8508,-99.4313 L -66.6664,-99.9986 L -66.4125,-100.538
 L -66.0928,-101.042 L -65.7126,-101.502 L -65.2778,-101.91 L -64.7952,-102.261 L -64.2724,-102.548 L -63.7178,-102.768
 L -63.1401,-102.916 L -62.5482,-102.991 L 62.5482,-102.991 L 63.1401,-102.916 L 63.7178,-102.768 L 64.2724,-102.548
 L 64.7952,-102.261 L 65.2778,-101.91 L 65.7126,-101.502 L 66.0928,-101.042 L 66.4125,-100.538 L 66.6664,-99.9986
 L 66.8508,-99.4313 L 66.9625,-98.8453 L 67,-98.25 L 67,-93.75 L 66.9625,-93.1547 L 66.8508,-92.5687
 L 66.6664,-92.0014 L 66.4125,-91.4617 L 66.0928,-90.958 L 65.7126,-90.4984 L 65.2778,-90.0901 L 64.7952,-89.7395
 L 64.2724,-89.4521 L 63.7178,-89.2325 L 63.1401,-89.0841 L 62.5482,-89.0094 z
M 63.4369,-64.5886 L 64.0451,-64.7447 L 64.6289,-64.9759 L 65.1791,-65.2784 L 65.6871,-65.6474 L 66.1448,-66.0773
 L 66.5451,-66.5611 L 66.8815,-67.0912 L 67.1489,-67.6594 L 67.3429,-68.2566 L 67.4606,-68.8733 L 67.5,-69.5
 L 67.5,-74.5 L 67.4606,-75.1267 L 67.3429,-75.7434 L 67.1489,-76.3406 L 66.8815,-76.9088 L 66.5451,-77.4389
 L 66.1448,-77.9227 L 65.6871,-78.3526 L 65.1791,-78.7216 L 64.6289,-79.0241 L 64.0451,-79.2553 L 63.4369,-79.4114
 L 62.8139,-79.4901 L -62.8139,-79.4901 L -63.4369,-79.4114 L -64.0451,-79.2553 L -64.6289,-79.0241 L -65.1791,-78.7216
 L -65.6871,-78.3526 L -66.1448,-77.9227 L -66.5451,-77.4389 L -66.8815,-76.9088 L -67.1489,-76.3406 L -67.3429,-75.7434
 L -67.4606,-75.1267 L -67.5,-74.5 L -67.5,-69.5 L -67.4606,-68.8733 L -67.3429,-68.2566 L -67.1489,-67.6594
 L -66.8815,-67.0912 L -66.5451,-66.5611 L -66.1448,-66.0773 L -65.6871,-65.6474 L -65.1791,-65.2784 L -64.6289,-64.9759
 L -64.0451,-64.7447 L -63.4369,-64.5886 L -62.8139,-64.5099 L 62.8139,-64.5099 z
M -62.493,-65.8882 L -62.9751,-65.9491 L -63.4457,-66.0699 L -63.8975,-66.2488 L -64.3234,-66.4829 L -64.7165,-66.7685
 L -65.0707,-67.1012 L -65.3805,-67.4756 L -65.6408,-67.8859 L -65.8477,-68.3256 L -65.9979,-68.7877 L -66.089,-69.265
 L -66.1195,-69.75 L -66.1195,-74.25 L -66.089,-74.735 L -65.9979,-75.2123 L -65.8477,-75.6744 L -65.6408,-76.1141
 L -65.3805,-76.5244 L -65.0707,-76.8988 L -64.7165,-77.2315 L -64.3234,-77.5171 L -63.8975,-77.7512 L -63.4457,-77.9301
 L -62.9751,-78.0509 L -62.493,-78.1118 L 62.493,-78.1118 L 62.9751,-78.0509 L 63.4457,-77.9301 L 63.8975,-77.7512
 L 64.3234,-77.5171 L 64.7165,-77.2315 L 65.0707,-76.8988 L 65.3805,-76.5244 L 65.6408,-76.1141 L 65.8477,-75.6744
 L 65.9979,-75.2123 L 66.089,-74.735 L 66.1195,-74.25 L 66.1195,-69.75 L 66.089,-69.265 L 65.9979,-68.7877
 L 65.8477,-68.3256 L 65.6408,-67.8859 L 65.3805,-67.4756 L 65.0707,-67.1012 L 64.7165,-66.7685 L 64.3234,-66.4829
 L 63.8975,-66.2488 L 63.4457,-66.0699 L 62.9751,-65.9491 L 62.493,-65.8882 z
M 63.4369,-40.5886 L 64.0451,-40.7447 L 64.6289,-40.9759 L 65.1791,-41.2784 L 65.6871,-41.6474 L 66.1448,-42.0773
 L 66.5451,-42.5611 L 66.8815,-43.0912 L 67.1489,-43.6594 L 67.3429,-44.2566 L 67.4606,-44.8733 L 67.5,-45.5
 L 67.5,-50.5 L 67.4606,-51.1267 L 67.3429,-51.7434 L 67.1489,-52.3406 L 66.8815,-52.9088 L 66.5451,-53.4389
 L 66.1448,-53.9227 L 65.6871,-54.3526 L 65.1791,-54.7216 L 64.6289,-55.0241 L 64.0451,-55.2553 L 63.4369,-55.4114
 L 62.8139,-55.4901 L -62.8139,-55.4901 L -63.4369,-55.4114 L -64.0451,-55.2553 L -64.6289,-55.0241 L -65.1791,-54.7216
 L -65.6871,-54.3526 L -66.1448,-53.9227 L -66.5451,-53.4389 L -66.8815,-52.9088 L -67.1489,-52.3406 L -67.3429,-51.7434
 L -67.4606,-51.1267 L -67.5,-50.5 L -67.5,-45.5 L -67.4606,-44.8733 L -67.3429,-44.2566 L -67.1489,-43.6594
 L -66.8815,-43.0912 L -66.5451,-42.5611 L -66.1448,-42.0773 L -65.6871,-41.6474 L -65.1791,-41.2784 L -64.6289,-40.9759
 L -64.0451,-40.7447 L -63.4369,-40.5886 L -62.8139,-40.5099 L 62.8139,-40.5099 z
M -60.113,-46.2036 L -60.3373,-46.2319 L -60.5562,-46.2881 L -60.7664,-46.3713 L -60.9645,-46.4802 L -61.1474,-46.6131
 L -61.3121,-46.7678 L -61.4562,-46.942 L -61.5773,-47.1329 L -61.6736,-47.3374 L -61.7434,-47.5524 L -61.7858,-47.7744
 L -61.8,-48 L -61.7858,-48.2256 L -61.7434,-48.4476 L -61.6736,-48.6626 L -61.5773,-48.8671 L -61.4562,-49.058
 L -61.3121,-49.2322 L -61.1474,-49.3869 L -60.9645,-49.5198 L -60.7664,-49.6287 L -60.5562,-49.7119 L -60.3373,-49.7681
 L -60.113,-49.7964 L -59.887,-49.7964 L -59.6627,-49.7681 L -59.4438,-49.7119 L -59.2336,-49.6287 L -59.0355,-49.5198
 L -58.8526,-49.3869 L -58.6879,-49.2322 L -58.5438,-49.058 L -58.4226,-48.8671 L -58.3264,-48.6626 L -58.2565,-48.4476
 L -58.2142,-48.2256 L -58.2,-48 L -58.2142,-47.7744 L -58.2565,-47.5524 L -58.3264,-47.3374 L -58.4226,-47.1329
 L -58.5438,-46.942 L -58.6879,-46.7678 L -58.8526,-46.6131 L -59.0355,-46.4802 L -59.2336,-46.3713 L -59.4438,-46.2881
 L -59.6627,-46.2319 L -59.887,-46.2036 z
M 59.887,-46.2036 L 59.6627,-46.2319 L 59.4438,-46.2881 L 59.2336,-46.3713 L 59.0355,-46.4802 L 58.8526,-46.6131
 L 58.6879,-46.7678 L 58.5438,-46.942 L 58.4226,-47.1329 L 58.3264,-47.3374 L 58.2565,-47.5524 L 58.2142,-47.7744
 L 58.2,-48 L 58.2142,-48.2256 L 58.2565,-48.4476 L 58.3264,-48.6626 L 58.4226,-48.8671 L 58.5438,-49.058
 L 58.6879,-49.2322 L 58.8526,-49.3869 L 59.0355,-49.5198 L 59.2336,-49.6287 L 59.4438,-49.7119 L 59.6627,-49.7681
 L 59.887,-49.7964 L 60.113,-49.7964 L 60.3373,-49.7681 L 60.5562,-49.7119 L 60.7664,-49.6287 L 60.9645,-49.5198
 L 61.1474,-49.3869 L 61.3121,-49.2322 L 61.4562,-49.058 L 61.5773,-48.8671 L 61.6736,-48.6626 L 61.7434,-48.4476
 L 61.7858,-48.2256 L 61.8,-48 L 61.7858,-47.7744 L 61.7434,-47.5524 L 61.6736,-47.3374 L 61.5773,-47.1329
 L 61.4562,-46.942 L 61.3121,-46.7678 L 61.1474,-46.6131 L 60.9645,-46.4802 L 60.7664,-46.3713 L 60.5562,-46.2881
 L 60.3373,-46.2319 L 60.113,-46.2036 z
" stroke="black" fill="lightgray" stroke-width="0.5"/>
</svg>
