  0
SECTION
  2
BLOCKS
  0
ENDSEC
  0
SECTION
  2
ENTITIES
  0
LINE
  8
0
 10
48.4369
 20
139.589
 11
49.0451
 21
139.745
  0
LINE
  8
0
 10
49.0451
 20
139.745
 11
49.6289
 21
139.976
  0
LINE
  8
0
 10
49.6289
 20
139.976
 11
50.1791
 21
140.278
  0
LINE
  8
0
 10
50.1791
 20
140.278
 11
50.6871
 21
140.647
  0
LINE
  8
0
 10
50.6871
 20
140.647
 11
51.1448
 21
141.077
  0
LINE
  8
0
 10
51.1448
 20
141.077
 11
51.5451
 21
141.561
  0
LINE
  8
0
 10
51.5451
 20
141.561
 11
51.8815
 21
142.091
  0
LINE
  8
0
 10
51.8815
 20
142.091
 11
52.1489
 21
142.659
  0
LINE
  8
0
 10
52.1489
 20
142.659
 11
52.3429
 21
143.257
  0
LINE
  8
0
 10
52.3429
 20
143.257
 11
52.4606
 21
143.873
  0
LINE
  8
0
 10
52.4606
 20
143.873
 11
52.5
 21
144.5
  0
LINE
  8
0
 10
52.5
 20
144.5
 11
52.5
 21
179.5
  0
LINE
  8
0
 10
52.5
 20
179.5
 11
52.4606
 21
180.127
  0
LINE
  8
0
 10
52.4606
 20
180.127
 11
52.3429
 21
180.743
  0
LINE
  8
0
 10
52.3429
 20
180.743
 11
52.1489
 21
181.341
  0
LINE
  8
0
 10
52.1489
 20
181.341
 11
51.8815
 21
181.909
  0
LINE
  8
0
 10
51.8815
 20
181.909
 11
51.5451
 21
182.439
  0
LINE
  8
0
 10
51.5451
 20
182.439
 11
51.1448
 21
182.923
  0
LINE
  8
0
 10
51.1448
 20
182.923
 11
50.6871
 21
183.353
  0
LINE
  8
0
 10
50.6871
 20
183.353
 11
50.1791
 21
183.722
  0
LINE
  8
0
 10
50.1791
 20
183.722
 11
49.6289
 21
184.024
  0
LINE
  8
0
 10
49.6289
 20
184.024
 11
49.0451
 21
184.255
  0
LINE
  8
0
 10
49.0451
 20
184.255
 11
48.4369
 21
184.411
  0
LINE
  8
0
 10
48.4369
 20
184.411
 11
47.8139
 21
184.49
  0
LINE
  8
0
 10
47.8139
 20
184.49
 11
-47.8139
 21
184.49
  0
LINE
  8
0
 10
-47.8139
 20
184.49
 11
-48.4369
 21
184.411
  0
LINE
  8
0
 10
-48.4369
 20
184.411
 11
-49.0451
 21
184.255
  0
LINE
  8
0
 10
-49.0451
 20
184.255
 11
-49.6289
 21
184.024
  0
LINE
  8
0
 10
-49.6289
 20
184.024
 11
-50.1791
 21
183.722
  0
LINE
  8
0
 10
-50.1791
 20
183.722
 11
-50.6871
 21
183.353
  0
LINE
  8
0
 10
-50.6871
 20
183.353
 11
-51.1448
 21
182.923
  0
LINE
  8
0
 10
-51.1448
 20
182.923
 11
-51.5451
 21
182.439
  0
LINE
  8
0
 10
-51.5451
 20
182.439
 11
-51.8815
 21
181.909
  0
LINE
  8
0
 10
-51.8815
 20
181.909
 11
-52.1489
 21
181.341
  0
LINE
  8
0
 10
-52.1489
 20
181.341
 11
-52.3429
 21
180.743
  0
LINE
  8
0
 10
-52.3429
 20
180.743
 11
-52.4606
 21
180.127
  0
LINE
  8
0
 10
-52.4606
 20
180.127
 11
-52.5
 21
179.5
  0
LINE
  8
0
 10
-52.5
 20
179.5
 11
-52.5
 21
144.5
  0
LINE
  8
0
 10
-52.5
 20
144.5
 11
-52.4606
 21
143.873
  0
LINE
  8
0
 10
-52.4606
 20
143.873
 11
-52.3429
 21
143.257
  0
LINE
  8
0
 10
-52.3429
 20
143.257
 11
-52.1489
 21
142.659
  0
LINE
  8
0
 10
-52.1489
 20
142.659
 11
-51.8815
 21
142.091
  0
LINE
  8
0
 10
-51.8815
 20
142.091
 11
-51.5451
 21
141.561
  0
LINE
  8
0
 10
-51.5451
 20
141.561
 11
-51.1448
 21
141.077
  0
LINE
  8
0
 10
-51.1448
 20
141.077
 11
-50.6871
 21
140.647
  0
LINE
  8
0
 10
-50.6871
 20
140.647
 11
-50.1791
 21
140.278
  0
LINE
  8
0
 10
-50.1791
 20
140.278
 11
-49.6289
 21
139.976
  0
LINE
  8
0
 10
-49.6289
 20
139.976
 11
-49.0451
 21
139.745
  0
LINE
  8
0
 10
-49.0451
 20
139.745
 11
-48.4369
 21
139.589
  0
LINE
  8
0
 10
-48.4369
 20
139.589
 11
-47.8139
 21
139.51
  0
LINE
  8
0
 10
-47.8139
 20
139.51
 11
47.8139
 21
139.51
  0
LINE
  8
0
 10
47.8139
 20
139.51
 11
48.4369
 21
139.589
  0
LINE
  8
0
 10
-47.5375
 20
140.181
 11
-48.1079
 21
140.253
  0
LINE
  8
0
 10
-48.1079
 20
140.253
 11
-48.6648
 21
140.396
  0
LINE
  8
0
 10
-48.6648
 20
140.396
 11
-49.1994
 21
140.607
  0
LINE
  8
0
 10
-49.1994
 20
140.607
 11
-49.7032
 21
140.884
  0
LINE
  8
0
 10
-49.7032
 20
140.884
 11
-50.1684
 21
141.222
  0
LINE
  8
0
 10
-50.1684
 20
141.222
 11
-50.5875
 21
141.616
  0
LINE
  8
0
 10
-50.5875
 20
141.616
 11
-50.954
 21
142.059
  0
LINE
  8
0
 10
-50.954
 20
142.059
 11
-51.2621
 21
142.544
  0
LINE
  8
0
 10
-51.2621
 20
142.544
 11
-51.5069
 21
143.065
  0
LINE
  8
0
 10
-51.5069
 20
143.065
 11
-51.6846
 21
143.611
  0
LINE
  8
0
 10
-51.6846
 20
143.611
 11
-51.7923
 21
144.176
  0
LINE
  8
0
 10
-51.7923
 20
144.176
 11
-51.8284
 21
144.75
  0
LINE
  8
0
 10
-51.8284
 20
144.75
 11
-51.8284
 21
179.25
  0
LINE
  8
0
 10
-51.8284
 20
179.25
 11
-51.7923
 21
179.824
  0
LINE
  8
0
 10
-51.7923
 20
179.824
 11
-51.6846
 21
180.389
  0
LINE
  8
0
 10
-51.6846
 20
180.389
 11
-51.5069
 21
180.935
  0
LINE
  8
0
 10
-51.5069
 20
180.935
 11
-51.2621
 21
181.456
  0
LINE
  8
0
 10
-51.2621
 20
181.456
 11
-50.954
 21
181.941
  0
LINE
  8
0
 10
-50.954
 20
181.941
 11
-50.5875
 21
182.384
  0
LINE
  8
0
 10
-50.5875
 20
182.384
 11
-50.1684
 21
182.778
  0
LINE
  8
0
 10
-50.1684
 20
182.778
 11
-49.7032
 21
183.116
  0
LINE
  8
0
 10
-49.7032
 20
183.116
 11
-49.1994
 21
183.393
  0
LINE
  8
0
 10
-49.1994
 20
183.393
 11
-48.6648
 21
183.604
  0
LINE
  8
0
 10
-48.6648
 20
183.604
 11
-48.1079
 21
183.747
  0
LINE
  8
0
 10
-48.1079
 20
183.747
 11
-47.5375
 21
183.819
  0
LINE
  8
0
 10
-47.5375
 20
183.819
 11
47.5375
 21
183.819
  0
LINE
  8
0
 10
47.5375
 20
183.819
 11
48.1079
 21
183.747
  0
LINE
  8
0
 10
48.1079
 20
183.747
 11
48.6648
 21
183.604
  0
LINE
  8
0
 10
48.6648
 20
183.604
 11
49.1994
 21
183.393
  0
LINE
  8
0
 10
49.1994
 20
183.393
 11
49.7032
 21
183.116
  0
LINE
  8
0
 10
49.7032
 20
183.116
 11
50.1684
 21
182.778
  0
LINE
  8
0
 10
50.1684
 20
182.778
 11
50.5875
 21
182.384
  0
LINE
  8
0
 10
50.5875
 20
182.384
 11
50.954
 21
181.941
  0
LINE
  8
0
 10
50.954
 20
181.941
 11
51.2621
 21
181.456
  0
LINE
  8
0
 10
51.2621
 20
181.456
 11
51.5069
 21
180.935
  0
LINE
  8
0
 10
51.5069
 20
180.935
 11
51.6846
 21
180.389
  0
LINE
  8
0
 10
51.6846
 20
180.389
 11
51.7923
 21
179.824
  0
LINE
  8
0
 10
51.7923
 20
179.824
 11
51.8284
 21
179.25
  0
LINE
  8
0
 10
51.8284
 20
179.25
 11
51.8284
 21
144.75
  0
LINE
  8
0
 10
51.8284
 20
144.75
 11
51.7923
 21
144.176
  0
LINE
  8
0
 10
51.7923
 20
144.176
 11
51.6846
 21
143.611
  0
LINE
  8
0
 10
51.6846
 20
143.611
 11
51.5069
 21
143.065
  0
LINE
  8
0
 10
51.5069
 20
143.065
 11
51.2621
 21
142.544
  0
LINE
  8
0
 10
51.2621
 20
142.544
 11
50.954
 21
142.059
  0
LINE
  8
0
 10
50.954
 20
142.059
 11
50.5875
 21
141.616
  0
LINE
  8
0
 10
50.5875
 20
141.616
 11
50.1684
 21
141.222
  0
LINE
  8
0
 10
50.1684
 20
141.222
 11
49.7032
 21
140.884
  0
LINE
  8
0
 10
49.7032
 20
140.884
 11
49.1994
 21
140.607
  0
LINE
  8
0
 10
49.1994
 20
140.607
 11
48.6648
 21
140.396
  0
LINE
  8
0
 10
48.6648
 20
140.396
 11
48.1079
 21
140.253
  0
LINE
  8
0
 10
48.1079
 20
140.253
 11
47.5375
 21
140.181
  0
LINE
  8
0
 10
47.5375
 20
140.181
 11
-47.5375
 21
140.181
  0
LINE
  8
0
 10
48.4369
 20
85.5886
 11
49.0451
 21
85.7447
  0
LINE
  8
0
 10
49.0451
 20
85.7447
 11
49.6289
 21
85.9759
  0
LINE
  8
0
 10
49.6289
 20
85.9759
 11
50.1791
 21
86.2784
  0
LINE
  8
0
 10
50.1791
 20
86.2784
 11
50.6871
 21
86.6474
  0
LINE
  8
0
 10
50.6871
 20
86.6474
 11
51.1448
 21
87.0773
  0
LINE
  8
0
 10
51.1448
 20
87.0773
 11
51.5451
 21
87.5611
  0
LINE
  8
0
 10
51.5451
 20
87.5611
 11
51.8815
 21
88.0912
  0
LINE
  8
0
 10
51.8815
 20
88.0912
 11
52.1489
 21
88.6594
  0
LINE
  8
0
 10
52.1489
 20
88.6594
 11
52.3429
 21
89.2566
  0
LINE
  8
0
 10
52.3429
 20
89.2566
 11
52.4606
 21
89.8733
  0
LINE
  8
0
 10
52.4606
 20
89.8733
 11
52.5
 21
90.5
  0
LINE
  8
0
 10
52.5
 20
90.5
 11
52.5
 21
125.5
  0
LINE
  8
0
 10
52.5
 20
125.5
 11
52.4606
 21
126.127
  0
LINE
  8
0
 10
52.4606
 20
126.127
 11
52.3429
 21
126.743
  0
LINE
  8
0
 10
52.3429
 20
126.743
 11
52.1489
 21
127.341
  0
LINE
  8
0
 10
52.1489
 20
127.341
 11
51.8815
 21
127.909
  0
LINE
  8
0
 10
51.8815
 20
127.909
 11
51.5451
 21
128.439
  0
LINE
  8
0
 10
51.5451
 20
128.439
 11
51.1448
 21
128.923
  0
LINE
  8
0
 10
51.1448
 20
128.923
 11
50.6871
 21
129.353
  0
LINE
  8
0
 10
50.6871
 20
129.353
 11
50.1791
 21
129.722
  0
LINE
  8
0
 10
50.1791
 20
129.722
 11
49.6289
 21
130.024
  0
LINE
  8
0
 10
49.6289
 20
130.024
 11
49.0451
 21
130.255
  0
LINE
  8
0
 10
49.0451
 20
130.255
 11
48.4369
 21
130.411
  0
LINE
  8
0
 10
48.4369
 20
130.411
 11
47.8139
 21
130.49
  0
LINE
  8
0
 10
47.8139
 20
130.49
 11
-47.8139
 21
130.49
  0
LINE
  8
0
 10
-47.8139
 20
130.49
 11
-48.4369
 21
130.411
  0
LINE
  8
0
 10
-48.4369
 20
130.411
 11
-49.0451
 21
130.255
  0
LINE
  8
0
 10
-49.0451
 20
130.255
 11
-49.6289
 21
130.024
  0
LINE
  8
0
 10
-49.6289
 20
130.024
 11
-50.1791
 21
129.722
  0
LINE
  8
0
 10
-50.1791
 20
129.722
 11
-50.6871
 21
129.353
  0
LINE
  8
0
 10
-50.6871
 20
129.353
 11
-51.1448
 21
128.923
  0
LINE
  8
0
 10
-51.1448
 20
128.923
 11
-51.5451
 21
128.439
  0
LINE
  8
0
 10
-51.5451
 20
128.439
 11
-51.8815
 21
127.909
  0
LINE
  8
0
 10
-51.8815
 20
127.909
 11
-52.1489
 21
127.341
  0
LINE
  8
0
 10
-52.1489
 20
127.341
 11
-52.3429
 21
126.743
  0
LINE
  8
0
 10
-52.3429
 20
126.743
 11
-52.4606
 21
126.127
  0
LINE
  8
0
 10
-52.4606
 20
126.127
 11
-52.5
 21
125.5
  0
LINE
  8
0
 10
-52.5
 20
125.5
 11
-52.5
 21
90.5
  0
LINE
  8
0
 10
-52.5
 20
90.5
 11
-52.4606
 21
89.8733
  0
LINE
  8
0
 10
-52.4606
 20
89.8733
 11
-52.3429
 21
89.2566
  0
LINE
  8
0
 10
-52.3429
 20
89.2566
 11
-52.1489
 21
88.6594
  0
LINE
  8
0
 10
-52.1489
 20
88.6594
 11
-51.8815
 21
88.0912
  0
LINE
  8
0
 10
-51.8815
 20
88.0912
 11
-51.5451
 21
87.5611
  0
LINE
  8
0
 10
-51.5451
 20
87.5611
 11
-51.1448
 21
87.0773
  0
LINE
  8
0
 10
-51.1448
 20
87.0773
 11
-50.6871
 21
86.6474
  0
LINE
  8
0
 10
-50.6871
 20
86.6474
 11
-50.1791
 21
86.2784
  0
LINE
  8
0
 10
-50.1791
 20
86.2784
 11
-49.6289
 21
85.9759
  0
LINE
  8
0
 10
-49.6289
 20
85.9759
 11
-49.0451
 21
85.7447
  0
LINE
  8
0
 10
-49.0451
 20
85.7447
 11
-48.4369
 21
85.5886
  0
LINE
  8
0
 10
-48.4369
 20
85.5886
 11
-47.8139
 21
85.5099
  0
LINE
  8
0
 10
-47.8139
 20
85.5099
 11
47.8139
 21
85.5099
  0
LINE
  8
0
 10
47.8139
 20
85.5099
 11
48.4369
 21
85.5886
  0
LINE
  8
0
 10
-47.3825
 20
88.6445
 11
-47.6453
 21
88.6777
  0
LINE
  8
0
 10
-47.6453
 20
88.6777
 11
-47.9019
 21
88.7436
  0
LINE
  8
0
 10
-47.9019
 20
88.7436
 11
-48.1482
 21
88.8412
  0
LINE
  8
0
 10
-48.1482
 20
88.8412
 11
-48.3804
 21
88.9688
  0
LINE
  8
0
 10
-48.3804
 20
88.9688
 11
-48.5947
 21
89.1245
  0
LINE
  8
0
 10
-48.5947
 20
89.1245
 11
-48.7879
 21
89.3059
  0
LINE
  8
0
 10
-48.7879
 20
89.3059
 11
-48.9567
 21
89.51
  0
LINE
  8
0
 10
-48.9567
 20
89.51
 11
-49.0987
 21
89.7337
  0
LINE
  8
0
 10
-49.0987
 20
89.7337
 11
-49.2115
 21
89.9734
  0
LINE
  8
0
 10
-49.2115
 20
89.9734
 11
-49.2934
 21
90.2254
  0
LINE
  8
0
 10
-49.2934
 20
90.2254
 11
-49.343
 21
90.4856
  0
LINE
  8
0
 10
-49.343
 20
90.4856
 11
-49.3596
 21
90.75
  0
LINE
  8
0
 10
-49.3596
 20
90.75
 11
-49.3596
 21
125.25
  0
LINE
  8
0
 10
-49.3596
 20
125.25
 11
-49.343
 21
125.514
  0
LINE
  8
0
 10
-49.343
 20
125.514
 11
-49.2934
 21
125.775
  0
LINE
  8
0
 10
-49.2934
 20
125.775
 11
-49.2115
 21
126.027
  0
LINE
  8
0
 10
-49.2115
 20
126.027
 11
-49.0987
 21
126.266
  0
LINE
  8
0
 10
-49.0987
 20
126.266
 11
-48.9567
 21
126.49
  0
LINE
  8
0
 10
-48.9567
 20
126.49
 11
-48.7879
 21
126.694
  0
LINE
  8
0
 10
-48.7879
 20
126.694
 11
-48.5947
 21
126.875
  0
LINE
  8
0
 10
-48.5947
 20
126.875
 11
-48.3804
 21
127.031
  0
LINE
  8
0
 10
-48.3804
 20
127.031
 11
-48.1482
 21
127.159
  0
LINE
  8
0
 10
-48.1482
 20
127.159
 11
-47.9019
 21
127.256
  0
LINE
  8
0
 10
-47.9019
 20
127.256
 11
-47.6453
 21
127.322
  0
LINE
  8
0
 10
-47.6453
 20
127.322
 11
-47.3825
 21
127.355
  0
LINE
  8
0
 10
-47.3825
 20
127.355
 11
47.3825
 21
127.355
  0
LINE
  8
0
 10
47.3825
 20
127.355
 11
47.6453
 21
127.322
  0
LINE
  8
0
 10
47.6453
 20
127.322
 11
47.9019
 21
127.256
  0
LINE
  8
0
 10
47.9019
 20
127.256
 11
48.1482
 21
127.159
  0
LINE
  8
0
 10
48.1482
 20
127.159
 11
48.3804
 21
127.031
  0
LINE
  8
0
 10
48.3804
 20
127.031
 11
48.5947
 21
126.875
  0
LINE
  8
0
 10
48.5947
 20
126.875
 11
48.7879
 21
126.694
  0
LINE
  8
0
 10
48.7879
 20
126.694
 11
48.9567
 21
126.49
  0
LINE
  8
0
 10
48.9567
 20
126.49
 11
49.0987
 21
126.266
  0
LINE
  8
0
 10
49.0987
 20
126.266
 11
49.2115
 21
126.027
  0
LINE
  8
0
 10
49.2115
 20
126.027
 11
49.2934
 21
125.775
  0
LINE
  8
0
 10
49.2934
 20
125.775
 11
49.343
 21
125.514
  0
LINE
  8
0
 10
49.343
 20
125.514
 11
49.3596
 21
125.25
  0
LINE
  8
0
 10
49.3596
 20
125.25
 11
49.3596
 21
90.75
  0
LINE
  8
0
 10
49.3596
 20
90.75
 11
49.343
 21
90.4856
  0
LINE
  8
0
 10
49.343
 20
90.4856
 11
49.2934
 21
90.2254
  0
LINE
  8
0
 10
49.2934
 20
90.2254
 11
49.2115
 21
89.9734
  0
LINE
  8
0
 10
49.2115
 20
89.9734
 11
49.0987
 21
89.7337
  0
LINE
  8
0
 10
49.0987
 20
89.7337
 11
48.9567
 21
89.51
  0
LINE
  8
0
 10
48.9567
 20
89.51
 11
48.7879
 21
89.3059
  0
LINE
  8
0
 10
48.7879
 20
89.3059
 11
48.5947
 21
89.1245
  0
LINE
  8
0
 10
48.5947
 20
89.1245
 11
48.3804
 21
88.9688
  0
LINE
  8
0
 10
48.3804
 20
88.9688
 11
48.1482
 21
88.8412
  0
LINE
  8
0
 10
48.1482
 20
88.8412
 11
47.9019
 21
88.7436
  0
LINE
  8
0
 10
47.9019
 20
88.7436
 11
47.6453
 21
88.6777
  0
LINE
  8
0
 10
47.6453
 20
88.6777
 11
47.3825
 21
88.6445
  0
LINE
  8
0
 10
47.3825
 20
88.6445
 11
-47.3825
 21
88.6445
  0
ENDSEC
  0
SECTION
  2
OBJECTS
  0
DICTIONARY
  0
ENDSEC
  0
EOF
