<?xml version="1.0" standalone="no"?>
<!DOCTYPE svg PUBLIC "-//W3C//DTD SVG 1.1//EN" "http://www.w3.org/Graphics/SVG/1.1/DTD/svg11.dtd">
<svg width="46mm" height="129mm" viewBox="-23 -168 46 129" xmlns="http://www.w3.org/2000/svg" version="1.1">
<title>OpenSCAD Model</title>
<path d="
M 18.4369,-108.089 L 19.0451,-108.245 L 19.6289,-108.476 L 20.1791,-108.778 L 20.6871,-109.147 L 21.1448,-109.577
 L 21.5451,-110.061 L 21.8815,-110.591 L 22.1489,-111.159 L 22.3429,-111.757 L 22.4606,-112.373 L 22.5,-113
 L 22.5,-163 L 22.4606,-163.627 L 22.3429,-164.243 L 22.1489,-164.841 L 21.8815,-165.409 L 21.5451,-165.939
 L 21.1448,-166.423 L 20.6871,-166.853 L 20.1791,-167.222 L 19.6289,-167.524 L 19.0451,-167.755 L 18.4369,-167.911
 L 17.8139,-167.99 L -17.8139,-167.99 L -18.4369,-167.911 L -19.0451,-167.755 L -19.6289,-167.524 L -20.1791,-167.222
 L -20.6871,-166.853 L -21.1448,-166.423 L -21.5451,-165.939 L -21.8815,-165.409 L -22.1489,-164.841 L -22.3429,-164.243
 L -22.4606,-163.627 L -22.5,-163 L -22.5,-113 L -22.4606,-112.373 L -22.3429,-111.757 L -22.1489,-111.159
 L -21.8815,-110.591 L -21.5451,-110.061 L -21.1448,-109.577 L -20.6871,-109.147 L -20.1791,-108.778 L -19.6289,-108.476
 L -19.0451,-108.245 L -18.4369,-108.089 L -17.8139,-108.01 L 17.8139,-108.01 z
M 18.4369,-39.0886 L 19.0451,-39.2447 L 19.6289,-39.4759 L 20.1791,-39.7784 L 20.6871,-40.1474 L 21.1448,-40.5773
 L 21.5451,-41.0611 L 21.8815,-41.5912 L 22.1489,-42.1594 L 22.3429,-42.7566 L 22.4606,-43.3733 L 22.5,-44
 L 22.5,-94 L 22.4606,-94.6267 L 22.3429,-95.2434 L 22.1489,-95.8406 L 21.8815,-96.4088 L 21.5451,-96.9389
 L 21.1448,-97.4227 L 20.6871,-97.8526 L 20.1791,-98.2216 L 19.6289,-98.5241 L 19.0451,-98.7553 L 18.4369,-98.9114
 L 17.8139,-98.9901 L -17.8139,-98.9901 L -18.4369,-98.9114 L -19.0451,-98.7553 L -19.6289,-98.5241 L -20.1791,-98.2216
 L -20.6871,-97.8526 L -21.1448,-97.4227 L -21.5451,-96.9389 L -21.8815,-96.4088 L -22.1489,-95.8406 L -22.3429,-95.2434
 L -22.4606,-94.6267 L -22.5,-94 L -22.5,-44 L -22.4606,-43.3733 L -22.3429,-42.7566 L -22.1489,-42.1594
 L -21.8815,-41.5912 L -21.5451,-41.0611 L -21.1448,-40.5773 L -20.6871,-40.1474 L -20.1791,-39.7784 L -19.6289,-39.4759
 L -19.0451,-39.2447 L -18.4369,-39.0886 L -17.8139,-39.0099 L 17.8139,-39.0099 z
M 14.887,-89.7036 L 14.6627,-89.7319 L 14.4438,-89.7881 L 14.2336,-89.8713 L 14.0355,-89.9802 L 13.8526,-90.1131
 L 13.6879,-90.2678 L 13.5438,-90.442 L 13.4226,-90.6328 L 13.3264,-90.8374 L 13.2565,-91.0524 L 13.2142,-91.2744
 L 13.2,-91.5 L 13.2142,-91.7256 L 13.2565,-91.9476 L 13.3264,-92.1626 L 13.4226,-92.3672 L 13.5438,-92.558
 L 13.6879,-92.7322 L 13.8526,-92.8869 L 14.0355,-93.0198 L 14.2336,-93.1287 L 14.4438,-93.2119 L 14.6627,-93.2681
 L 14.887,-93.2964 L 15.113,-93.2964 L 15.3373,-93.2681 L 15.5562,-93.2119 L 15.7664,-93.1287 L 15.9645,-93.0198
 L 16.1474,-92.8869 L 16.3121,-92.7322 L 16.4562,-92.558 L 16.5773,-92.3672 L 16.6736,-92.1626 L 16.7434,-91.9476
 L 16.7858,-91.7256 L 16.8,-91.5 L 16.7858,-91.2744 L 16.7434,-91.0524 L 16.6736,-90.8374 L 16.5773,-90.6328
 L 16.4562,-90.442 L 16.3121,-90.2678 L 16.1474,-90.1131 L 15.9645,-89.9802 L 15.7664,-89.8713 L 15.5562,-89.7881
 L 15.3373,-89.7319 L 15.113,-89.7036 z
M -15.113,-89.7036 L -15.3373,-89.7319 L -15.5562,-89.7881 L -15.7664,-89.8713 L -15.9645,-89.9802 L -16.1474,-90.1131
 L -16.3121,-90.2678 L -16.4562,-90.442 L -16.5773,-90.6328 L -16.6736,-90.8374 L -16.7434,-91.0524 L -16.7858,-91.2744
 L -16.8,-91.5 L -16.7858,-91.7256 L -16.7434,-91.9476 L -16.6736,-92.1626 L -16.5773,-92.3672 L -16.4562,-92.558
 L -16.3121,-92.7322 L -16.1474,-92.8869 L -15.9645,-93.0198 L -15.7664,-93.1287 L -15.5562,-93.2119 L -15.3373,-93.2681
 L -15.113,-93.2964 L -14.887,-93.2964 L -14.6627,-93.2681 L -14.4438,-93.2119 L -14.2336,-93.1287 L -14.0355,-93.0198
 L -13.8526,-92.8869 L -13.6879,-92.7322 L -13.5438,-92.558 L -13.4226,-92.3672 L -13.3264,-92.1626 L -13.2565,-91.9476
 L -13.2142,-91.7256 L -13.2,-91.5 L -13.2142,-91.2744 L -13.2565,-91.0524 L -13.3264,-90.8374 L -13.4226,-90.6328
 L -13.5438,-90.442 L -13.6879,-90.2678 L -13.8526,-90.1131 L -14.0355,-89.9802 L -14.2336,-89.8713 L -14.4438,-89.7881
 L -14.6627,-89.7319 L -14.887,-89.7036 z
M 14.887,-44.7036 L 14.6627,-44.7319 L 14.4438,-44.7881 L 14.2336,-44.8713 L 14.0355,-44.9802 L 13.8526,-45.1131
 L 13.6879,-45.2678 L 13.5438,-45.442 L 13.4226,-45.6328 L 13.3264,-45.8374 L 13.2565,-46.0524 L 13.2142,-46.2744
 L 13.2,-46.5 L 13.2142,-46.7256 L 13.2565,-46.9476 L 13.3264,-47.1626 L 13.4226,-47.3672 L 13.5438,-47.558
 L 13.6879,-47.7322 L 13.8526,-47.8869 L 14.0355,-48.0198 L 14.2336,-48.1287 L 14.4438,-48.2119 L 14.6627,-48.2681
 L 14.887,-48.2964 L 15.113,-48.2964 L 15.3373,-48.2681 L 15.5562,-48.2119 L 15.7664,-48.1287 L 15.9645,-48.0198
 L 16.1474,-47.8869 L 16.3121,-47.7322 L 16.4562,-47.558 L 16.5773,-47.3672 L 16.6736,-47.1626 L 16.7434,-46.9476
 L 16.7858,-46.7256 L 16.8,-46.5 L 16.7858,-46.2744 L 16.7434,-46.0524 L 16.6736,-45.8374 L 16.5773,-45.6328
 L 16.4562,-45.442 L 16.3121,-45.2678 L 16.1474,-45.1131 L 15.9645,-44.9802 L 15.7664,-44.8713 L 15.5562,-44.7881
 L 15.3373,-44.7319 L 15.113,-44.7036 z
M -15.113,-44.7036 L -15.3373,-44.7319 L -15.5562,-44.7881 L -15.7664,-44.8713 L -15.9645,-44.9802 L -16.1474,-45.1131
 L -16.3121,-45.2678 L -16.4562,-45.442 L -16.5773,-45.6328 L -16.6736,-45.8374 L -16.7434,-46.0524 L -16.7858,-46.2744
 L -16.8,-46.5 L -16.7858,-46.7256 L -16.7434,-46.9476 L -16.6736,-47.1626 L -16.5773,-47.3672 L -16.4562,-47.558
 L -16.3121,-47.7322 L -16.1474,-47.8869 L -15.9645,-48.0198 L -15.7664,-48.1287 L -15.5562,-48.2119 L -15.3373,-48.2681
 L -15.113,-48.2964 L -14.887,-48.2964 L -14.6627,-48.2681 L -14.4438,-48.2119 L -14.2336,-48.1287 L -14.0355,-48.0198
 L -13.8526,-47.8869 L -13.6879,-47.7322 L -13.5438,-47.558 L -13.4226,-47.3672 L -13.3264,-47.1626 L -13.2565,-46.9476
 L -13.2142,-46.7256 L -13.2,-46.5 L -13.2142,-46.2744 L -13.2565,-46.0524 L -13.3264,-45.8374 L -13.4226,-45.6328
 L -13.5438,-45.442 L -13.6879,-45.2678 L -13.8526,-45.1131 L -14.0355,-44.9802 L -14.2336,-44.8713 L -14.4438,-44.7881
 L -14.6627,-44.7319 L -14.887,-44.7036 z
" stroke="black" fill="lightgray" stroke-width="0.5"/>
</svg>
