  0
SECTION
  2
BLOCKS
  0
ENDSEC
  0
SECTION
  2
ENTITIES
  0
LINE
  8
0
 10
17.9369
 20
140.089
 11
18.5451
 21
140.245
  0
LINE
  8
0
 10
18.5451
 20
140.245
 11
19.1289
 21
140.476
  0
LINE
  8
0
 10
19.1289
 20
140.476
 11
19.6791
 21
140.778
  0
LINE
  8
0
 10
19.6791
 20
140.778
 11
20.1871
 21
141.147
  0
LINE
  8
0
 10
20.1871
 20
141.147
 11
20.6448
 21
141.577
  0
LINE
  8
0
 10
20.6448
 20
141.577
 11
21.0451
 21
142.061
  0
LINE
  8
0
 10
21.0451
 20
142.061
 11
21.3815
 21
142.591
  0
LINE
  8
0
 10
21.3815
 20
142.591
 11
21.6489
 21
143.159
  0
LINE
  8
0
 10
21.6489
 20
143.159
 11
21.8429
 21
143.757
  0
LINE
  8
0
 10
21.8429
 20
143.757
 11
21.9606
 21
144.373
  0
LINE
  8
0
 10
21.9606
 20
144.373
 11
22
 21
145
  0
LINE
  8
0
 10
22
 20
145
 11
22
 21
177
  0
LINE
  8
0
 10
22
 20
177
 11
11.5
 21
177
  0
LINE
  8
0
 10
11.5
 20
177
 11
11.5
 21
176.995
  0
LINE
  8
0
 10
11.5
 20
176.995
 11
11.343
 21
176.995
  0
LINE
  8
0
 10
11.343
 20
176.995
 11
11.0315
 21
176.956
  0
LINE
  8
0
 10
11.0315
 20
176.956
 11
10.7274
 21
176.878
  0
LINE
  8
0
 10
10.7274
 20
176.878
 11
10.4355
 21
176.762
  0
LINE
  8
0
 10
10.4355
 20
176.762
 11
10.1604
 21
176.611
  0
LINE
  8
0
 10
10.1604
 20
176.611
 11
9.90643
 21
176.426
  0
LINE
  8
0
 10
9.90643
 20
176.426
 11
9.67757
 21
176.211
  0
LINE
  8
0
 10
9.67757
 20
176.211
 11
9.47745
 21
175.969
  0
LINE
  8
0
 10
9.47745
 20
175.969
 11
9.30922
 21
175.704
  0
LINE
  8
0
 10
9.30922
 20
175.704
 11
9.17555
 21
175.42
  0
LINE
  8
0
 10
9.17555
 20
175.42
 11
9.07854
 21
175.122
  0
LINE
  8
0
 10
9.07854
 20
175.122
 11
9.0197
 21
174.813
  0
LINE
  8
0
 10
9.0197
 20
174.813
 11
9
 21
174.5
  0
LINE
  8
0
 10
9
 20
174.5
 11
9.0197
 21
174.187
  0
LINE
  8
0
 10
9.0197
 20
174.187
 11
9.07854
 21
173.878
  0
LINE
  8
0
 10
9.07854
 20
173.878
 11
9.17555
 21
173.58
  0
LINE
  8
0
 10
9.17555
 20
173.58
 11
9.30922
 21
173.296
  0
LINE
  8
0
 10
9.30922
 20
173.296
 11
9.47745
 21
173.031
  0
LINE
  8
0
 10
9.47745
 20
173.031
 11
9.67757
 21
172.789
  0
LINE
  8
0
 10
9.67757
 20
172.789
 11
9.90643
 21
172.574
  0
LINE
  8
0
 10
9.90643
 20
172.574
 11
10.1604
 21
172.389
  0
LINE
  8
0
 10
10.1604
 20
172.389
 11
10.4355
 21
172.238
  0
LINE
  8
0
 10
10.4355
 20
172.238
 11
10.7274
 21
172.122
  0
LINE
  8
0
 10
10.7274
 20
172.122
 11
11.0315
 21
172.044
  0
LINE
  8
0
 10
11.0315
 20
172.044
 11
11.343
 21
172.005
  0
LINE
  8
0
 10
11.343
 20
172.005
 11
13.7429
 21
172.005
  0
LINE
  8
0
 10
13.7429
 20
172.005
 11
13.7533
 21
171.992
  0
LINE
  8
0
 10
13.7533
 20
171.992
 11
14.8972
 21
170.19
  0
LINE
  8
0
 10
14.8972
 20
170.19
 11
15.8062
 21
168.258
  0
LINE
  8
0
 10
15.8062
 20
168.258
 11
16.4659
 21
166.228
  0
LINE
  8
0
 10
16.4659
 20
166.228
 11
16.8659
 21
164.131
  0
LINE
  8
0
 10
16.8659
 20
164.131
 11
17
 21
162
  0
LINE
  8
0
 10
17
 20
162
 11
16.8659
 21
159.869
  0
LINE
  8
0
 10
16.8659
 20
159.869
 11
16.4659
 21
157.772
  0
LINE
  8
0
 10
16.4659
 20
157.772
 11
15.8062
 21
155.742
  0
LINE
  8
0
 10
15.8062
 20
155.742
 11
14.8972
 21
153.81
  0
LINE
  8
0
 10
14.8972
 20
153.81
 11
13.7533
 21
152.008
  0
LINE
  8
0
 10
13.7533
 20
152.008
 11
12.3925
 21
150.363
  0
LINE
  8
0
 10
12.3925
 20
150.363
 11
10.8362
 21
148.901
  0
LINE
  8
0
 10
10.8362
 20
148.901
 11
9.10905
 21
147.646
  0
LINE
  8
0
 10
9.10905
 20
147.646
 11
7.23824
 21
146.618
  0
LINE
  8
0
 10
7.23824
 20
146.618
 11
5.25328
 21
145.832
  0
LINE
  8
0
 10
5.25328
 20
145.832
 11
3.18547
 21
145.301
  0
LINE
  8
0
 10
3.18547
 20
145.301
 11
1.06743
 21
145.034
  0
LINE
  8
0
 10
1.06743
 20
145.034
 11
-1.06743
 21
145.034
  0
LINE
  8
0
 10
-1.06743
 20
145.034
 11
-3.18547
 21
145.301
  0
LINE
  8
0
 10
-3.18547
 20
145.301
 11
-5.25328
 21
145.832
  0
LINE
  8
0
 10
-5.25328
 20
145.832
 11
-7.23824
 21
146.618
  0
LINE
  8
0
 10
-7.23824
 20
146.618
 11
-9.10905
 21
147.646
  0
LINE
  8
0
 10
-9.10905
 20
147.646
 11
-10.8362
 21
148.901
  0
LINE
  8
0
 10
-10.8362
 20
148.901
 11
-12.3925
 21
150.363
  0
LINE
  8
0
 10
-12.3925
 20
150.363
 11
-13.7533
 21
152.008
  0
LINE
  8
0
 10
-13.7533
 20
152.008
 11
-14.8972
 21
153.81
  0
LINE
  8
0
 10
-14.8972
 20
153.81
 11
-15.8062
 21
155.742
  0
LINE
  8
0
 10
-15.8062
 20
155.742
 11
-16.4659
 21
157.772
  0
LINE
  8
0
 10
-16.4659
 20
157.772
 11
-16.8659
 21
159.869
  0
LINE
  8
0
 10
-16.8659
 20
159.869
 11
-17
 21
162
  0
LINE
  8
0
 10
-17
 20
162
 11
-16.8659
 21
164.131
  0
LINE
  8
0
 10
-16.8659
 20
164.131
 11
-16.4659
 21
166.228
  0
LINE
  8
0
 10
-16.4659
 20
166.228
 11
-15.8062
 21
168.258
  0
LINE
  8
0
 10
-15.8062
 20
168.258
 11
-14.8972
 21
170.19
  0
LINE
  8
0
 10
-14.8972
 20
170.19
 11
-13.7533
 21
171.992
  0
LINE
  8
0
 10
-13.7533
 20
171.992
 11
-12.3925
 21
173.637
  0
LINE
  8
0
 10
-12.3925
 20
173.637
 11
-10.8362
 21
175.099
  0
LINE
  8
0
 10
-10.8362
 20
175.099
 11
-9.10905
 21
176.354
  0
LINE
  8
0
 10
-9.10905
 20
176.354
 11
-7.23824
 21
177.382
  0
LINE
  8
0
 10
-7.23824
 20
177.382
 11
-5.25328
 21
178.168
  0
LINE
  8
0
 10
-5.25328
 20
178.168
 11
-3.18547
 21
178.699
  0
LINE
  8
0
 10
-3.18547
 20
178.699
 11
-1.06743
 21
178.966
  0
LINE
  8
0
 10
-1.06743
 20
178.966
 11
0
 21
178.966
  0
LINE
  8
0
 10
0
 20
178.966
 11
0
 21
181
  0
LINE
  8
0
 10
0
 20
181
 11
6.99998
 21
181
  0
LINE
  8
0
 10
6.99998
 20
181
 11
4.00986
 21
183.99
  0
LINE
  8
0
 10
4.00986
 20
183.99
 11
3.5
 21
183.99
  0
LINE
  8
0
 10
3.5
 20
183.99
 11
3.5
 21
183
  0
LINE
  8
0
 10
3.5
 20
183
 11
-21.5
 21
183
  0
LINE
  8
0
 10
-21.5
 20
183
 11
-21.5
 21
184
  0
LINE
  8
0
 10
-21.5
 20
184
 11
-22
 21
184
  0
LINE
  8
0
 10
-22
 20
184
 11
-22
 21
179.994
  0
LINE
  8
0
 10
-22
 20
179.994
 11
-14.8116
 21
179.994
  0
LINE
  8
0
 10
-14.8116
 20
179.994
 11
-14.4379
 21
179.947
  0
LINE
  8
0
 10
-14.4379
 20
179.947
 11
-14.0729
 21
179.853
  0
LINE
  8
0
 10
-14.0729
 20
179.853
 11
-13.7227
 21
179.714
  0
LINE
  8
0
 10
-13.7227
 20
179.714
 11
-13.3925
 21
179.533
  0
LINE
  8
0
 10
-13.3925
 20
179.533
 11
-13.0877
 21
179.312
  0
LINE
  8
0
 10
-13.0877
 20
179.312
 11
-12.8131
 21
179.054
  0
LINE
  8
0
 10
-12.8131
 20
179.054
 11
-12.5729
 21
178.763
  0
LINE
  8
0
 10
-12.5729
 20
178.763
 11
-12.3711
 21
178.445
  0
LINE
  8
0
 10
-12.3711
 20
178.445
 11
-12.2107
 21
178.104
  0
LINE
  8
0
 10
-12.2107
 20
178.104
 11
-12.0942
 21
177.746
  0
LINE
  8
0
 10
-12.0942
 20
177.746
 11
-12.0237
 21
177.376
  0
LINE
  8
0
 10
-12.0237
 20
177.376
 11
-12
 21
177
  0
LINE
  8
0
 10
-12
 20
177
 11
-12.0237
 21
176.624
  0
LINE
  8
0
 10
-12.0237
 20
176.624
 11
-12.0942
 21
176.254
  0
LINE
  8
0
 10
-12.0942
 20
176.254
 11
-12.2107
 21
175.896
  0
LINE
  8
0
 10
-12.2107
 20
175.896
 11
-12.3711
 21
175.555
  0
LINE
  8
0
 10
-12.3711
 20
175.555
 11
-12.5729
 21
175.237
  0
LINE
  8
0
 10
-12.5729
 20
175.237
 11
-12.8131
 21
174.946
  0
LINE
  8
0
 10
-12.8131
 20
174.946
 11
-13.0877
 21
174.688
  0
LINE
  8
0
 10
-13.0877
 20
174.688
 11
-13.3925
 21
174.467
  0
LINE
  8
0
 10
-13.3925
 20
174.467
 11
-13.7227
 21
174.286
  0
LINE
  8
0
 10
-13.7227
 20
174.286
 11
-14.0729
 21
174.147
  0
LINE
  8
0
 10
-14.0729
 20
174.147
 11
-14.4379
 21
174.053
  0
LINE
  8
0
 10
-14.4379
 20
174.053
 11
-14.8116
 21
174.006
  0
LINE
  8
0
 10
-14.8116
 20
174.006
 11
-22
 21
174.006
  0
LINE
  8
0
 10
-22
 20
174.006
 11
-22
 21
149.994
  0
LINE
  8
0
 10
-22
 20
149.994
 11
-14.8116
 21
149.994
  0
LINE
  8
0
 10
-14.8116
 20
149.994
 11
-14.4379
 21
149.947
  0
LINE
  8
0
 10
-14.4379
 20
149.947
 11
-14.0729
 21
149.853
  0
LINE
  8
0
 10
-14.0729
 20
149.853
 11
-13.7227
 21
149.714
  0
LINE
  8
0
 10
-13.7227
 20
149.714
 11
-13.3925
 21
149.533
  0
LINE
  8
0
 10
-13.3925
 20
149.533
 11
-13.0877
 21
149.312
  0
LINE
  8
0
 10
-13.0877
 20
149.312
 11
-12.8131
 21
149.054
  0
LINE
  8
0
 10
-12.8131
 20
149.054
 11
-12.5729
 21
148.763
  0
LINE
  8
0
 10
-12.5729
 20
148.763
 11
-12.3711
 21
148.445
  0
LINE
  8
0
 10
-12.3711
 20
148.445
 11
-12.2107
 21
148.104
  0
LINE
  8
0
 10
-12.2107
 20
148.104
 11
-12.0942
 21
147.746
  0
LINE
  8
0
 10
-12.0942
 20
147.746
 11
-12.0237
 21
147.376
  0
LINE
  8
0
 10
-12.0237
 20
147.376
 11
-12
 21
147
  0
LINE
  8
0
 10
-12
 20
147
 11
-12.0237
 21
146.624
  0
LINE
  8
0
 10
-12.0237
 20
146.624
 11
-12.0942
 21
146.254
  0
LINE
  8
0
 10
-12.0942
 20
146.254
 11
-12.2107
 21
145.896
  0
LINE
  8
0
 10
-12.2107
 20
145.896
 11
-12.3711
 21
145.555
  0
LINE
  8
0
 10
-12.3711
 20
145.555
 11
-12.5729
 21
145.237
  0
LINE
  8
0
 10
-12.5729
 20
145.237
 11
-12.8131
 21
144.946
  0
LINE
  8
0
 10
-12.8131
 20
144.946
 11
-13.0877
 21
144.688
  0
LINE
  8
0
 10
-13.0877
 20
144.688
 11
-13.3925
 21
144.467
  0
LINE
  8
0
 10
-13.3925
 20
144.467
 11
-13.7227
 21
144.286
  0
LINE
  8
0
 10
-13.7227
 20
144.286
 11
-14.0729
 21
144.147
  0
LINE
  8
0
 10
-14.0729
 20
144.147
 11
-14.4379
 21
144.053
  0
LINE
  8
0
 10
-14.4379
 20
144.053
 11
-14.8116
 21
144.006
  0
LINE
  8
0
 10
-14.8116
 20
144.006
 11
-21.8905
 21
144.006
  0
LINE
  8
0
 10
-21.8905
 20
144.006
 11
-21.8429
 21
143.757
  0
LINE
  8
0
 10
-21.8429
 20
143.757
 11
-21.6489
 21
143.159
  0
LINE
  8
0
 10
-21.6489
 20
143.159
 11
-21.3815
 21
142.591
  0
LINE
  8
0
 10
-21.3815
 20
142.591
 11
-21.0451
 21
142.061
  0
LINE
  8
0
 10
-21.0451
 20
142.061
 11
-20.6448
 21
141.577
  0
LINE
  8
0
 10
-20.6448
 20
141.577
 11
-20.1871
 21
141.147
  0
LINE
  8
0
 10
-20.1871
 20
141.147
 11
-19.6791
 21
140.778
  0
LINE
  8
0
 10
-19.6791
 20
140.778
 11
-19.1289
 21
140.476
  0
LINE
  8
0
 10
-19.1289
 20
140.476
 11
-18.5451
 21
140.245
  0
LINE
  8
0
 10
-18.5451
 20
140.245
 11
-17.9369
 21
140.089
  0
LINE
  8
0
 10
-17.9369
 20
140.089
 11
-17.3139
 21
140.01
  0
LINE
  8
0
 10
-17.3139
 20
140.01
 11
17.3139
 21
140.01
  0
LINE
  8
0
 10
17.3139
 20
140.01
 11
17.9369
 21
140.089
  0
LINE
  8
0
 10
14.8116
 20
144.006
 11
14.4379
 21
144.053
  0
LINE
  8
0
 10
14.4379
 20
144.053
 11
14.0729
 21
144.147
  0
LINE
  8
0
 10
14.0729
 20
144.147
 11
13.7227
 21
144.286
  0
LINE
  8
0
 10
13.7227
 20
144.286
 11
13.3925
 21
144.467
  0
LINE
  8
0
 10
13.3925
 20
144.467
 11
13.0877
 21
144.688
  0
LINE
  8
0
 10
13.0877
 20
144.688
 11
12.8131
 21
144.946
  0
LINE
  8
0
 10
12.8131
 20
144.946
 11
12.5729
 21
145.237
  0
LINE
  8
0
 10
12.5729
 20
145.237
 11
12.3711
 21
145.555
  0
LINE
  8
0
 10
12.3711
 20
145.555
 11
12.2107
 21
145.896
  0
LINE
  8
0
 10
12.2107
 20
145.896
 11
12.0942
 21
146.254
  0
LINE
  8
0
 10
12.0942
 20
146.254
 11
12.0237
 21
146.624
  0
LINE
  8
0
 10
12.0237
 20
146.624
 11
12
 21
147
  0
LINE
  8
0
 10
12
 20
147
 11
12.0237
 21
147.376
  0
LINE
  8
0
 10
12.0237
 20
147.376
 11
12.0942
 21
147.746
  0
LINE
  8
0
 10
12.0942
 20
147.746
 11
12.2107
 21
148.104
  0
LINE
  8
0
 10
12.2107
 20
148.104
 11
12.3711
 21
148.445
  0
LINE
  8
0
 10
12.3711
 20
148.445
 11
12.5729
 21
148.763
  0
LINE
  8
0
 10
12.5729
 20
148.763
 11
12.8131
 21
149.054
  0
LINE
  8
0
 10
12.8131
 20
149.054
 11
13.0877
 21
149.312
  0
LINE
  8
0
 10
13.0877
 20
149.312
 11
13.3925
 21
149.533
  0
LINE
  8
0
 10
13.3925
 20
149.533
 11
13.7227
 21
149.714
  0
LINE
  8
0
 10
13.7227
 20
149.714
 11
14.0729
 21
149.853
  0
LINE
  8
0
 10
14.0729
 20
149.853
 11
14.4379
 21
149.947
  0
LINE
  8
0
 10
14.4379
 20
149.947
 11
14.8116
 21
149.994
  0
LINE
  8
0
 10
14.8116
 20
149.994
 11
15.1884
 21
149.994
  0
LINE
  8
0
 10
15.1884
 20
149.994
 11
15.5621
 21
149.947
  0
LINE
  8
0
 10
15.5621
 20
149.947
 11
15.927
 21
149.853
  0
LINE
  8
0
 10
15.927
 20
149.853
 11
16.2773
 21
149.714
  0
LINE
  8
0
 10
16.2773
 20
149.714
 11
16.6075
 21
149.533
  0
LINE
  8
0
 10
16.6075
 20
149.533
 11
16.9123
 21
149.312
  0
LINE
  8
0
 10
16.9123
 20
149.312
 11
17.1869
 21
149.054
  0
LINE
  8
0
 10
17.1869
 20
149.054
 11
17.427
 21
148.763
  0
LINE
  8
0
 10
17.427
 20
148.763
 11
17.6289
 21
148.445
  0
LINE
  8
0
 10
17.6289
 20
148.445
 11
17.7893
 21
148.104
  0
LINE
  8
0
 10
17.7893
 20
148.104
 11
17.9057
 21
147.746
  0
LINE
  8
0
 10
17.9057
 20
147.746
 11
17.9763
 21
147.376
  0
LINE
  8
0
 10
17.9763
 20
147.376
 11
18
 21
147
  0
LINE
  8
0
 10
18
 20
147
 11
17.9763
 21
146.624
  0
LINE
  8
0
 10
17.9763
 20
146.624
 11
17.9057
 21
146.254
  0
LINE
  8
0
 10
17.9057
 20
146.254
 11
17.7893
 21
145.896
  0
LINE
  8
0
 10
17.7893
 20
145.896
 11
17.6289
 21
145.555
  0
LINE
  8
0
 10
17.6289
 20
145.555
 11
17.427
 21
145.237
  0
LINE
  8
0
 10
17.427
 20
145.237
 11
17.1869
 21
144.946
  0
LINE
  8
0
 10
17.1869
 20
144.946
 11
16.9123
 21
144.688
  0
LINE
  8
0
 10
16.9123
 20
144.688
 11
16.6075
 21
144.467
  0
LINE
  8
0
 10
16.6075
 20
144.467
 11
16.2773
 21
144.286
  0
LINE
  8
0
 10
16.2773
 20
144.286
 11
15.927
 21
144.147
  0
LINE
  8
0
 10
15.927
 20
144.147
 11
15.5621
 21
144.053
  0
LINE
  8
0
 10
15.5621
 20
144.053
 11
15.1884
 21
144.006
  0
LINE
  8
0
 10
15.1884
 20
144.006
 11
14.8116
 21
144.006
  0
LINE
  8
0
 10
16
 20
183.99
 11
6.13118
 21
183.99
  0
LINE
  8
0
 10
6.13118
 20
183.99
 11
9.12131
 21
181
  0
LINE
  8
0
 10
9.12131
 20
181
 11
16
 21
181
  0
LINE
  8
0
 10
16
 20
181
 11
16
 21
183.99
  0
LINE
  8
0
 10
17.9369
 20
86.0886
 11
18.5451
 21
86.2447
  0
LINE
  8
0
 10
18.5451
 20
86.2447
 11
19.1289
 21
86.4759
  0
LINE
  8
0
 10
19.1289
 20
86.4759
 11
19.6791
 21
86.7784
  0
LINE
  8
0
 10
19.6791
 20
86.7784
 11
20.1871
 21
87.1474
  0
LINE
  8
0
 10
20.1871
 20
87.1474
 11
20.6448
 21
87.5773
  0
LINE
  8
0
 10
20.6448
 20
87.5773
 11
21.0451
 21
88.0611
  0
LINE
  8
0
 10
21.0451
 20
88.0611
 11
21.3815
 21
88.5912
  0
LINE
  8
0
 10
21.3815
 20
88.5912
 11
21.6489
 21
89.1594
  0
LINE
  8
0
 10
21.6489
 20
89.1594
 11
21.8429
 21
89.7566
  0
LINE
  8
0
 10
21.8429
 20
89.7566
 11
21.9606
 21
90.3733
  0
LINE
  8
0
 10
21.9606
 20
90.3733
 11
22
 21
91
  0
LINE
  8
0
 10
22
 20
91
 11
22
 21
125
  0
LINE
  8
0
 10
22
 20
125
 11
21.9606
 21
125.627
  0
LINE
  8
0
 10
21.9606
 20
125.627
 11
21.8429
 21
126.243
  0
LINE
  8
0
 10
21.8429
 20
126.243
 11
21.6489
 21
126.841
  0
LINE
  8
0
 10
21.6489
 20
126.841
 11
21.3815
 21
127.409
  0
LINE
  8
0
 10
21.3815
 20
127.409
 11
21.0451
 21
127.939
  0
LINE
  8
0
 10
21.0451
 20
127.939
 11
20.6448
 21
128.423
  0
LINE
  8
0
 10
20.6448
 20
128.423
 11
20.1871
 21
128.853
  0
LINE
  8
0
 10
20.1871
 20
128.853
 11
19.6791
 21
129.222
  0
LINE
  8
0
 10
19.6791
 20
129.222
 11
19.1289
 21
129.524
  0
LINE
  8
0
 10
19.1289
 20
129.524
 11
18.5451
 21
129.755
  0
LINE
  8
0
 10
18.5451
 20
129.755
 11
17.9369
 21
129.911
  0
LINE
  8
0
 10
17.9369
 20
129.911
 11
17.3139
 21
129.99
  0
LINE
  8
0
 10
17.3139
 20
129.99
 11
3.5
 21
129.99
  0
LINE
  8
0
 10
3.5
 20
129.99
 11
3.5
 21
129
  0
LINE
  8
0
 10
3.5
 20
129
 11
-21.5
 21
129
  0
LINE
  8
0
 10
-21.5
 20
129
 11
-21.5
 21
130
  0
LINE
  8
0
 10
-21.5
 20
130
 11
-22
 21
130
  0
LINE
  8
0
 10
-22
 20
130
 11
-22
 21
125.994
  0
LINE
  8
0
 10
-22
 20
125.994
 11
-14.8116
 21
125.994
  0
LINE
  8
0
 10
-14.8116
 20
125.994
 11
-14.4379
 21
125.947
  0
LINE
  8
0
 10
-14.4379
 20
125.947
 11
-14.0729
 21
125.853
  0
LINE
  8
0
 10
-14.0729
 20
125.853
 11
-13.7227
 21
125.714
  0
LINE
  8
0
 10
-13.7227
 20
125.714
 11
-13.3925
 21
125.533
  0
LINE
  8
0
 10
-13.3925
 20
125.533
 11
-13.0877
 21
125.312
  0
LINE
  8
0
 10
-13.0877
 20
125.312
 11
-12.8131
 21
125.054
  0
LINE
  8
0
 10
-12.8131
 20
125.054
 11
-12.5729
 21
124.763
  0
LINE
  8
0
 10
-12.5729
 20
124.763
 11
-12.3711
 21
124.445
  0
LINE
  8
0
 10
-12.3711
 20
124.445
 11
-12.2107
 21
124.104
  0
LINE
  8
0
 10
-12.2107
 20
124.104
 11
-12.0942
 21
123.746
  0
LINE
  8
0
 10
-12.0942
 20
123.746
 11
-12.0237
 21
123.376
  0
LINE
  8
0
 10
-12.0237
 20
123.376
 11
-12
 21
123
  0
LINE
  8
0
 10
-12
 20
123
 11
-12.0237
 21
122.624
  0
LINE
  8
0
 10
-12.0237
 20
122.624
 11
-12.0942
 21
122.254
  0
LINE
  8
0
 10
-12.0942
 20
122.254
 11
-12.2107
 21
121.896
  0
LINE
  8
0
 10
-12.2107
 20
121.896
 11
-12.3711
 21
121.555
  0
LINE
  8
0
 10
-12.3711
 20
121.555
 11
-12.5729
 21
121.237
  0
LINE
  8
0
 10
-12.5729
 20
121.237
 11
-12.8131
 21
120.946
  0
LINE
  8
0
 10
-12.8131
 20
120.946
 11
-13.0877
 21
120.688
  0
LINE
  8
0
 10
-13.0877
 20
120.688
 11
-13.3925
 21
120.467
  0
LINE
  8
0
 10
-13.3925
 20
120.467
 11
-13.7227
 21
120.286
  0
LINE
  8
0
 10
-13.7227
 20
120.286
 11
-14.0729
 21
120.147
  0
LINE
  8
0
 10
-14.0729
 20
120.147
 11
-14.4379
 21
120.053
  0
LINE
  8
0
 10
-14.4379
 20
120.053
 11
-14.8116
 21
120.006
  0
LINE
  8
0
 10
-14.8116
 20
120.006
 11
-22
 21
120.006
  0
LINE
  8
0
 10
-22
 20
120.006
 11
-22
 21
95.9941
  0
LINE
  8
0
 10
-22
 20
95.9941
 11
-14.8116
 21
95.9941
  0
LINE
  8
0
 10
-14.8116
 20
95.9941
 11
-14.4379
 21
95.9469
  0
LINE
  8
0
 10
-14.4379
 20
95.9469
 11
-14.0729
 21
95.8532
  0
LINE
  8
0
 10
-14.0729
 20
95.8532
 11
-13.7227
 21
95.7145
  0
LINE
  8
0
 10
-13.7227
 20
95.7145
 11
-13.3925
 21
95.533
  0
LINE
  8
0
 10
-13.3925
 20
95.533
 11
-13.0877
 21
95.3116
  0
LINE
  8
0
 10
-13.0877
 20
95.3116
 11
-12.8131
 21
95.0536
  0
LINE
  8
0
 10
-12.8131
 20
95.0536
 11
-12.5729
 21
94.7634
  0
LINE
  8
0
 10
-12.5729
 20
94.7634
 11
-12.3711
 21
94.4453
  0
LINE
  8
0
 10
-12.3711
 20
94.4453
 11
-12.2107
 21
94.1044
  0
LINE
  8
0
 10
-12.2107
 20
94.1044
 11
-12.0942
 21
93.7461
  0
LINE
  8
0
 10
-12.0942
 20
93.7461
 11
-12.0237
 21
93.376
  0
LINE
  8
0
 10
-12.0237
 20
93.376
 11
-12
 21
93
  0
LINE
  8
0
 10
-12
 20
93
 11
-12.0237
 21
92.624
  0
LINE
  8
0
 10
-12.0237
 20
92.624
 11
-12.0942
 21
92.2539
  0
LINE
  8
0
 10
-12.0942
 20
92.2539
 11
-12.2107
 21
91.8956
  0
LINE
  8
0
 10
-12.2107
 20
91.8956
 11
-12.3711
 21
91.5547
  0
LINE
  8
0
 10
-12.3711
 20
91.5547
 11
-12.5729
 21
91.2366
  0
LINE
  8
0
 10
-12.5729
 20
91.2366
 11
-12.8131
 21
90.9464
  0
LINE
  8
0
 10
-12.8131
 20
90.9464
 11
-13.0877
 21
90.6885
  0
LINE
  8
0
 10
-13.0877
 20
90.6885
 11
-13.3925
 21
90.467
  0
LINE
  8
0
 10
-13.3925
 20
90.467
 11
-13.7227
 21
90.2855
  0
LINE
  8
0
 10
-13.7227
 20
90.2855
 11
-14.0729
 21
90.1468
  0
LINE
  8
0
 10
-14.0729
 20
90.1468
 11
-14.4379
 21
90.0531
  0
LINE
  8
0
 10
-14.4379
 20
90.0531
 11
-14.8116
 21
90.0059
  0
LINE
  8
0
 10
-14.8116
 20
90.0059
 11
-21.8905
 21
90.0059
  0
LINE
  8
0
 10
-21.8905
 20
90.0059
 11
-21.8429
 21
89.7566
  0
LINE
  8
0
 10
-21.8429
 20
89.7566
 11
-21.6489
 21
89.1594
  0
LINE
  8
0
 10
-21.6489
 20
89.1594
 11
-21.3815
 21
88.5912
  0
LINE
  8
0
 10
-21.3815
 20
88.5912
 11
-21.0451
 21
88.0611
  0
LINE
  8
0
 10
-21.0451
 20
88.0611
 11
-20.6448
 21
87.5773
  0
LINE
  8
0
 10
-20.6448
 20
87.5773
 11
-20.1871
 21
87.1474
  0
LINE
  8
0
 10
-20.1871
 20
87.1474
 11
-19.6791
 21
86.7784
  0
LINE
  8
0
 10
-19.6791
 20
86.7784
 11
-19.1289
 21
86.4759
  0
LINE
  8
0
 10
-19.1289
 20
86.4759
 11
-18.5451
 21
86.2447
  0
LINE
  8
0
 10
-18.5451
 20
86.2447
 11
-17.9369
 21
86.0886
  0
LINE
  8
0
 10
-17.9369
 20
86.0886
 11
-17.3139
 21
86.0099
  0
LINE
  8
0
 10
-17.3139
 20
86.0099
 11
17.3139
 21
86.0099
  0
LINE
  8
0
 10
17.3139
 20
86.0099
 11
17.9369
 21
86.0886
  0
LINE
  8
0
 10
-0.408127
 20
101.513
 11
-1.21797
 21
101.615
  0
LINE
  8
0
 10
-1.21797
 20
101.615
 11
-2.00861
 21
101.818
  0
LINE
  8
0
 10
-2.00861
 20
101.818
 11
-2.76756
 21
102.119
  0
LINE
  8
0
 10
-2.76756
 20
102.119
 11
-3.48286
 21
102.512
  0
LINE
  8
0
 10
-3.48286
 20
102.512
 11
-4.14325
 21
102.992
  0
LINE
  8
0
 10
-4.14325
 20
102.992
 11
-4.73828
 21
103.55
  0
LINE
  8
0
 10
-4.73828
 20
103.55
 11
-5.25861
 21
104.179
  0
LINE
  8
0
 10
-5.25861
 20
104.179
 11
-5.69598
 21
104.869
  0
LINE
  8
0
 10
-5.69598
 20
104.869
 11
-6.04353
 21
105.607
  0
LINE
  8
0
 10
-6.04353
 20
105.607
 11
-6.29578
 21
106.384
  0
LINE
  8
0
 10
-6.29578
 20
106.384
 11
-6.44873
 21
107.185
  0
LINE
  8
0
 10
-6.44873
 20
107.185
 11
-6.5
 21
108
  0
LINE
  8
0
 10
-6.5
 20
108
 11
-6.44873
 21
108.815
  0
LINE
  8
0
 10
-6.44873
 20
108.815
 11
-6.29578
 21
109.616
  0
LINE
  8
0
 10
-6.29578
 20
109.616
 11
-6.04353
 21
110.393
  0
LINE
  8
0
 10
-6.04353
 20
110.393
 11
-5.69598
 21
111.131
  0
LINE
  8
0
 10
-5.69598
 20
111.131
 11
-5.25861
 21
111.821
  0
LINE
  8
0
 10
-5.25861
 20
111.821
 11
-4.73828
 21
112.45
  0
LINE
  8
0
 10
-4.73828
 20
112.45
 11
-4.14325
 21
113.008
  0
LINE
  8
0
 10
-4.14325
 20
113.008
 11
-3.48286
 21
113.488
  0
LINE
  8
0
 10
-3.48286
 20
113.488
 11
-2.76756
 21
113.881
  0
LINE
  8
0
 10
-2.76756
 20
113.881
 11
-2.00861
 21
114.182
  0
LINE
  8
0
 10
-2.00861
 20
114.182
 11
-1.21797
 21
114.385
  0
LINE
  8
0
 10
-1.21797
 20
114.385
 11
-0.408127
 21
114.487
  0
LINE
  8
0
 10
-0.408127
 20
114.487
 11
0.408127
 21
114.487
  0
LINE
  8
0
 10
0.408127
 20
114.487
 11
1.21797
 21
114.385
  0
LINE
  8
0
 10
1.21797
 20
114.385
 11
2.00861
 21
114.182
  0
LINE
  8
0
 10
2.00861
 20
114.182
 11
2.76756
 21
113.881
  0
LINE
  8
0
 10
2.76756
 20
113.881
 11
3.48286
 21
113.488
  0
LINE
  8
0
 10
3.48286
 20
113.488
 11
4.14325
 21
113.008
  0
LINE
  8
0
 10
4.14325
 20
113.008
 11
4.73828
 21
112.45
  0
LINE
  8
0
 10
4.73828
 20
112.45
 11
5.25861
 21
111.821
  0
LINE
  8
0
 10
5.25861
 20
111.821
 11
5.69598
 21
111.131
  0
LINE
  8
0
 10
5.69598
 20
111.131
 11
6.04353
 21
110.393
  0
LINE
  8
0
 10
6.04353
 20
110.393
 11
6.29578
 21
109.616
  0
LINE
  8
0
 10
6.29578
 20
109.616
 11
6.44873
 21
108.815
  0
LINE
  8
0
 10
6.44873
 20
108.815
 11
6.5
 21
108
  0
LINE
  8
0
 10
6.5
 20
108
 11
6.44873
 21
107.185
  0
LINE
  8
0
 10
6.44873
 20
107.185
 11
6.29578
 21
106.384
  0
LINE
  8
0
 10
6.29578
 20
106.384
 11
6.04353
 21
105.607
  0
LINE
  8
0
 10
6.04353
 20
105.607
 11
5.69598
 21
104.869
  0
LINE
  8
0
 10
5.69598
 20
104.869
 11
5.25861
 21
104.179
  0
LINE
  8
0
 10
5.25861
 20
104.179
 11
4.73828
 21
103.55
  0
LINE
  8
0
 10
4.73828
 20
103.55
 11
4.14325
 21
102.992
  0
LINE
  8
0
 10
4.14325
 20
102.992
 11
3.48286
 21
102.512
  0
LINE
  8
0
 10
3.48286
 20
102.512
 11
2.76756
 21
102.119
  0
LINE
  8
0
 10
2.76756
 20
102.119
 11
2.00861
 21
101.818
  0
LINE
  8
0
 10
2.00861
 20
101.818
 11
1.21797
 21
101.615
  0
LINE
  8
0
 10
1.21797
 20
101.615
 11
0.408127
 21
101.513
  0
LINE
  8
0
 10
0.408127
 20
101.513
 11
-0.408127
 21
101.513
  0
LINE
  8
0
 10
14.8116
 20
90.0059
 11
14.4379
 21
90.0531
  0
LINE
  8
0
 10
14.4379
 20
90.0531
 11
14.0729
 21
90.1468
  0
LINE
  8
0
 10
14.0729
 20
90.1468
 11
13.7227
 21
90.2855
  0
LINE
  8
0
 10
13.7227
 20
90.2855
 11
13.3925
 21
90.467
  0
LINE
  8
0
 10
13.3925
 20
90.467
 11
13.0877
 21
90.6885
  0
LINE
  8
0
 10
13.0877
 20
90.6885
 11
12.8131
 21
90.9464
  0
LINE
  8
0
 10
12.8131
 20
90.9464
 11
12.5729
 21
91.2366
  0
LINE
  8
0
 10
12.5729
 20
91.2366
 11
12.3711
 21
91.5547
  0
LINE
  8
0
 10
12.3711
 20
91.5547
 11
12.2107
 21
91.8956
  0
LINE
  8
0
 10
12.2107
 20
91.8956
 11
12.0942
 21
92.2539
  0
LINE
  8
0
 10
12.0942
 20
92.2539
 11
12.0237
 21
92.624
  0
LINE
  8
0
 10
12.0237
 20
92.624
 11
12
 21
93
  0
LINE
  8
0
 10
12
 20
93
 11
12.0237
 21
93.376
  0
LINE
  8
0
 10
12.0237
 20
93.376
 11
12.0942
 21
93.7461
  0
LINE
  8
0
 10
12.0942
 20
93.7461
 11
12.2107
 21
94.1044
  0
LINE
  8
0
 10
12.2107
 20
94.1044
 11
12.3711
 21
94.4453
  0
LINE
  8
0
 10
12.3711
 20
94.4453
 11
12.5729
 21
94.7634
  0
LINE
  8
0
 10
12.5729
 20
94.7634
 11
12.8131
 21
95.0536
  0
LINE
  8
0
 10
12.8131
 20
95.0536
 11
13.0877
 21
95.3116
  0
LINE
  8
0
 10
13.0877
 20
95.3116
 11
13.3925
 21
95.533
  0
LINE
  8
0
 10
13.3925
 20
95.533
 11
13.7227
 21
95.7145
  0
LINE
  8
0
 10
13.7227
 20
95.7145
 11
14.0729
 21
95.8532
  0
LINE
  8
0
 10
14.0729
 20
95.8532
 11
14.4379
 21
95.9469
  0
LINE
  8
0
 10
14.4379
 20
95.9469
 11
14.8116
 21
95.9941
  0
LINE
  8
0
 10
14.8116
 20
95.9941
 11
15.1884
 21
95.9941
  0
LINE
  8
0
 10
15.1884
 20
95.9941
 11
15.5621
 21
95.9469
  0
LINE
  8
0
 10
15.5621
 20
95.9469
 11
15.927
 21
95.8532
  0
LINE
  8
0
 10
15.927
 20
95.8532
 11
16.2773
 21
95.7145
  0
LINE
  8
0
 10
16.2773
 20
95.7145
 11
16.6075
 21
95.533
  0
LINE
  8
0
 10
16.6075
 20
95.533
 11
16.9123
 21
95.3116
  0
LINE
  8
0
 10
16.9123
 20
95.3116
 11
17.1869
 21
95.0536
  0
LINE
  8
0
 10
17.1869
 20
95.0536
 11
17.427
 21
94.7634
  0
LINE
  8
0
 10
17.427
 20
94.7634
 11
17.6289
 21
94.4453
  0
LINE
  8
0
 10
17.6289
 20
94.4453
 11
17.7893
 21
94.1044
  0
LINE
  8
0
 10
17.7893
 20
94.1044
 11
17.9057
 21
93.7461
  0
LINE
  8
0
 10
17.9057
 20
93.7461
 11
17.9763
 21
93.376
  0
LINE
  8
0
 10
17.9763
 20
93.376
 11
18
 21
93
  0
LINE
  8
0
 10
18
 20
93
 11
17.9763
 21
92.624
  0
LINE
  8
0
 10
17.9763
 20
92.624
 11
17.9057
 21
92.2539
  0
LINE
  8
0
 10
17.9057
 20
92.2539
 11
17.7893
 21
91.8956
  0
LINE
  8
0
 10
17.7893
 20
91.8956
 11
17.6289
 21
91.5547
  0
LINE
  8
0
 10
17.6289
 20
91.5547
 11
17.427
 21
91.2366
  0
LINE
  8
0
 10
17.427
 20
91.2366
 11
17.1869
 21
90.9464
  0
LINE
  8
0
 10
17.1869
 20
90.9464
 11
16.9123
 21
90.6885
  0
LINE
  8
0
 10
16.9123
 20
90.6885
 11
16.6075
 21
90.467
  0
LINE
  8
0
 10
16.6075
 20
90.467
 11
16.2773
 21
90.2855
  0
LINE
  8
0
 10
16.2773
 20
90.2855
 11
15.927
 21
90.1468
  0
LINE
  8
0
 10
15.927
 20
90.1468
 11
15.5621
 21
90.0531
  0
LINE
  8
0
 10
15.5621
 20
90.0531
 11
15.1884
 21
90.0059
  0
LINE
  8
0
 10
15.1884
 20
90.0059
 11
14.8116
 21
90.0059
  0
ENDSEC
  0
SECTION
  2
OBJECTS
  0
DICTIONARY
  0
ENDSEC
  0
EOF
