<?xml version="1.0" standalone="no"?>
<!DOCTYPE svg PUBLIC "-//W3C//DTD SVG 1.1//EN" "http://www.w3.org/Graphics/SVG/1.1/DTD/svg11.dtd">
<svg width="107mm" height="64mm" viewBox="-54 -128 107 64" xmlns="http://www.w3.org/2000/svg" version="1.1">
<title>OpenSCAD Model</title>
<path d="
M -51,-113.941 L -50.6871,-113.647 L -50.1791,-113.278 L -49.6289,-112.976 L -49.0451,-112.745 L -48.4369,-112.589
 L -47.8139,-112.51 L 47.8139,-112.51 L 48.4369,-112.589 L 49.0451,-112.745 L 49.6289,-112.976 L 50.1791,-113.278
 L 50.6871,-113.647 L 51.1448,-114.077 L 51.5451,-114.561 L 51.8815,-115.091 L 52.1489,-115.659 L 52.3429,-116.257
 L 52.4606,-116.873 L 52.5,-117.5 L 52.5,-122.5 L 52.4606,-123.127 L 52.3429,-123.743 L 52.1489,-124.341
 L 51.8815,-124.909 L 51.5451,-125.439 L 51.1448,-125.923 L 50.6871,-126.353 L 50.1791,-126.722 L 49.6289,-127.024
 L 49.0451,-127.255 L 48.4369,-127.411 L 47.8139,-127.49 L -47.8139,-127.49 L -48.4369,-127.411 L -49.0451,-127.255
 L -49.6289,-127.024 L -50.1791,-126.722 L -50.6871,-126.353 L -51,-126.059 L -51,-127.49 L -54,-127.49
 L -54,-112.51 L -51,-112.51 z
M -47.2512,-114.008 L -47.7495,-114.071 L -48.2361,-114.196 L -48.7031,-114.381 L -49.1433,-114.623 L -49.5497,-114.918
 L -49.9159,-115.262 L -50.2361,-115.649 L -50.5052,-116.073 L -50.7191,-116.528 L -50.8743,-117.005 L -50.9685,-117.499
 L -51,-118 L -51,-122 L -50.9685,-122.501 L -50.8743,-122.995 L -50.7191,-123.472 L -50.5052,-123.927
 L -50.2361,-124.351 L -49.9159,-124.738 L -49.5497,-125.082 L -49.1433,-125.377 L -48.7031,-125.619 L -48.2361,-125.804
 L -47.7495,-125.929 L -47.2512,-125.992 L 47.2512,-125.992 L 47.7495,-125.929 L 48.2361,-125.804 L 48.7031,-125.619
 L 49.1433,-125.377 L 49.5497,-125.082 L 49.9159,-124.738 L 50.2361,-124.351 L 50.5052,-123.927 L 50.7191,-123.472
 L 50.8743,-122.995 L 50.9685,-122.501 L 51,-122 L 51,-118 L 50.9685,-117.499 L 50.8743,-117.005
 L 50.7191,-116.528 L 50.5052,-116.073 L 50.2361,-115.649 L 49.9159,-115.262 L 49.5497,-114.918 L 49.1433,-114.623
 L 48.7031,-114.381 L 48.2361,-114.196 L 47.7495,-114.071 L 47.2512,-114.008 z
M 48.4369,-88.5886 L 49.0451,-88.7447 L 49.6289,-88.9759 L 50.1791,-89.2784 L 50.6871,-89.6474 L 51.1448,-90.0773
 L 51.5451,-90.5611 L 51.8815,-91.0912 L 52.1489,-91.6594 L 52.3429,-92.2566 L 52.4606,-92.8733 L 52.5,-93.5
 L 52.5,-98.5 L 52.4606,-99.1267 L 52.3429,-99.7434 L 52.1489,-100.341 L 51.8815,-100.909 L 51.5451,-101.439
 L 51.1448,-101.923 L 50.6871,-102.353 L 50.1791,-102.722 L 49.6289,-103.024 L 49.0451,-103.255 L 48.4369,-103.411
 L 47.8139,-103.49 L -47.8139,-103.49 L -48.4369,-103.411 L -49.0451,-103.255 L -49.6289,-103.024 L -50.1791,-102.722
 L -50.6871,-102.353 L -51,-102.059 L -51,-103.479 L -54,-103.479 L -54,-88.5208 L -51,-88.5208
 L -51,-89.9413 L -50.6871,-89.6474 L -50.1791,-89.2784 L -49.6289,-88.9759 L -49.0451,-88.7447 L -48.4369,-88.5886
 L -47.8139,-88.5099 L 47.8139,-88.5099 z
M -47.1954,-90.8932 L -47.5833,-90.9422 L -47.9619,-91.0394 L -48.3254,-91.1833 L -48.668,-91.3717 L -48.9842,-91.6015
 L -49.2692,-91.8691 L -49.5184,-92.1703 L -49.7279,-92.5004 L -49.8943,-92.8541 L -50.0151,-93.2259 L -50.0884,-93.6098
 L -50.1129,-94 L -50.1129,-98 L -50.0884,-98.3902 L -50.0151,-98.7741 L -49.8943,-99.1459 L -49.7279,-99.4996
 L -49.5184,-99.8297 L -49.2692,-100.131 L -48.9842,-100.399 L -48.668,-100.628 L -48.3254,-100.817 L -47.9619,-100.961
 L -47.5833,-101.058 L -47.1954,-101.107 L 47.1954,-101.107 L 47.5833,-101.058 L 47.9619,-100.961 L 48.3254,-100.817
 L 48.668,-100.628 L 48.9842,-100.399 L 49.2692,-100.131 L 49.5184,-99.8297 L 49.7279,-99.4996 L 49.8943,-99.1459
 L 50.0151,-98.7741 L 50.0884,-98.3902 L 50.1129,-98 L 50.1129,-94 L 50.0884,-93.6098 L 50.0151,-93.2259
 L 49.8943,-92.8541 L 49.7279,-92.5004 L 49.5184,-92.1703 L 49.2692,-91.8691 L 48.9842,-91.6015 L 48.668,-91.3717
 L 48.3254,-91.1833 L 47.9619,-91.0394 L 47.5833,-90.9422 L 47.1954,-90.8932 z
M 48.4369,-64.5886 L 49.0451,-64.7447 L 49.6289,-64.9759 L 50.1791,-65.2784 L 50.6871,-65.6474 L 51.1448,-66.0773
 L 51.5451,-66.5611 L 51.8815,-67.0912 L 52.1489,-67.6594 L 52.3429,-68.2566 L 52.4606,-68.8733 L 52.5,-69.5
 L 52.5,-74.5 L 52.4606,-75.1267 L 52.3429,-75.7434 L 52.1489,-76.3406 L 51.8815,-76.9088 L 51.5451,-77.4389
 L 51.1448,-77.9227 L 50.6871,-78.3526 L 50.1791,-78.7216 L 49.6289,-79.0241 L 49.0451,-79.2553 L 48.4369,-79.4114
 L 47.8139,-79.4901 L -47.8139,-79.4901 L -48.4369,-79.4114 L -49.0451,-79.2553 L -49.6289,-79.0241 L -50.1791,-78.7216
 L -50.6871,-78.3526 L -51,-78.0587 L -51,-78.1526 L -54,-78.1526 L -54,-65.8474 L -51,-65.8474
 L -51,-65.9413 L -50.6871,-65.6474 L -50.1791,-65.2784 L -49.6289,-64.9759 L -49.0451,-64.7447 L -48.4369,-64.5886
 L -47.8139,-64.5099 L 47.8139,-64.5099 z
M 44.8659,-69.8689 L 44.5999,-69.9025 L 44.3401,-69.9692 L 44.0908,-70.0679 L 43.8559,-70.1971 L 43.6389,-70.3547
 L 43.4434,-70.5383 L 43.2725,-70.7449 L 43.1288,-70.9713 L 43.0146,-71.214 L 42.9318,-71.469 L 42.8815,-71.7324
 L 42.8647,-72 L 42.8815,-72.2676 L 42.9318,-72.531 L 43.0146,-72.786 L 43.1288,-73.0287 L 43.2725,-73.2551
 L 43.4434,-73.4617 L 43.6389,-73.6453 L 43.8559,-73.8029 L 44.0908,-73.9321 L 44.3401,-74.0308 L 44.5999,-74.0975
 L 44.8659,-74.1311 L 45.1341,-74.1311 L 45.4001,-74.0975 L 45.6598,-74.0308 L 45.9092,-73.9321 L 46.1441,-73.8029
 L 46.3611,-73.6453 L 46.5565,-73.4617 L 46.7275,-73.2551 L 46.8712,-73.0287 L 46.9853,-72.786 L 47.0682,-72.531
 L 47.1185,-72.2676 L 47.1353,-72 L 47.1185,-71.7324 L 47.0682,-71.469 L 46.9853,-71.214 L 46.8712,-70.9713
 L 46.7275,-70.7449 L 46.5565,-70.5383 L 46.3611,-70.3547 L 46.1441,-70.1971 L 45.9092,-70.0679 L 45.6598,-69.9692
 L 45.4001,-69.9025 L 45.1341,-69.8689 z
M -45.1341,-69.8689 L -45.4001,-69.9025 L -45.6598,-69.9692 L -45.9092,-70.0679 L -46.1441,-70.1971 L -46.3611,-70.3547
 L -46.5565,-70.5383 L -46.7275,-70.7449 L -46.8712,-70.9713 L -46.9853,-71.214 L -47.0682,-71.469 L -47.1185,-71.7324
 L -47.1353,-72 L -47.1185,-72.2676 L -47.0682,-72.531 L -46.9853,-72.786 L -46.8712,-73.0287 L -46.7275,-73.2551
 L -46.5565,-73.4617 L -46.3611,-73.6453 L -46.1441,-73.8029 L -45.9092,-73.9321 L -45.6598,-74.0308 L -45.4001,-74.0975
 L -45.1341,-74.1311 L -44.8659,-74.1311 L -44.5999,-74.0975 L -44.3401,-74.0308 L -44.0908,-73.9321 L -43.8559,-73.8029
 L -43.6389,-73.6453 L -43.4434,-73.4617 L -43.2725,-73.2551 L -43.1288,-73.0287 L -43.0146,-72.786 L -42.9318,-72.531
 L -42.8815,-72.2676 L -42.8647,-72 L -42.8815,-71.7324 L -42.9318,-71.469 L -43.0146,-71.214 L -43.1288,-70.9713
 L -43.2725,-70.7449 L -43.4434,-70.5383 L -43.6389,-70.3547 L -43.8559,-70.1971 L -44.0908,-70.0679 L -44.3401,-69.9692
 L -44.5999,-69.9025 L -44.8659,-69.8689 z
" stroke="black" fill="lightgray" stroke-width="0.5"/>
</svg>
