<?xml version="1.0" standalone="no"?>
<!DOCTYPE svg PUBLIC "-//W3C//DTD SVG 1.1//EN" "http://www.w3.org/Graphics/SVG/1.1/DTD/svg11.dtd">
<svg width="30mm" height="514mm" viewBox="-15 -953 30 514" xmlns="http://www.w3.org/2000/svg" version="1.1">
<title>OpenSCAD Model</title>
<path d="
M 10.9369,-787.589 L 11.5451,-787.745 L 12.1289,-787.976 L 12.6791,-788.278 L 13.1871,-788.647 L 13.6448,-789.077
 L 14.0451,-789.561 L 14.3815,-790.091 L 14.6489,-790.659 L 14.8429,-791.257 L 14.9606,-791.873 L 15,-792.5
 L 15,-947.5 L 14.9606,-948.127 L 14.8429,-948.743 L 14.6489,-949.341 L 14.3815,-949.909 L 14.0451,-950.439
 L 13.6448,-950.923 L 13.1871,-951.353 L 12.6791,-951.722 L 12.1289,-952.024 L 11.5451,-952.255 L 10.9369,-952.411
 L 10.3139,-952.49 L -10.3139,-952.49 L -10.9369,-952.411 L -11.5451,-952.255 L -12.1289,-952.024 L -12.6791,-951.722
 L -13.1871,-951.353 L -13.6448,-950.923 L -14.0451,-950.439 L -14.3815,-949.909 L -14.6489,-949.341 L -14.8429,-948.743
 L -14.9606,-948.127 L -15,-947.5 L -15,-792.5 L -14.9606,-791.873 L -14.8429,-791.257 L -14.6489,-790.659
 L -14.3815,-790.091 L -14.0451,-789.561 L -13.6448,-789.077 L -13.1871,-788.647 L -12.6791,-788.278 L -12.1289,-787.976
 L -11.5451,-787.745 L -10.9369,-787.589 L -10.3139,-787.51 L 10.3139,-787.51 z
M -9.75116,-789.008 L -10.2495,-789.071 L -10.7361,-789.196 L -11.2031,-789.381 L -11.6433,-789.623 L -12.0497,-789.918
 L -12.4159,-790.262 L -12.7361,-790.649 L -13.0052,-791.073 L -13.2191,-791.528 L -13.3743,-792.005 L -13.4684,-792.499
 L -13.5,-793 L -13.5,-947 L -13.4684,-947.501 L -13.3743,-947.995 L -13.2191,-948.472 L -13.0052,-948.927
 L -12.7361,-949.351 L -12.4159,-949.738 L -12.0497,-950.082 L -11.6433,-950.377 L -11.2031,-950.619 L -10.7361,-950.804
 L -10.2495,-950.929 L -9.75116,-950.992 L 9.75116,-950.992 L 10.2495,-950.929 L 10.7361,-950.804 L 11.2031,-950.619
 L 11.6433,-950.377 L 12.0497,-950.082 L 12.4159,-949.738 L 12.7361,-949.351 L 13.0052,-948.927 L 13.2191,-948.472
 L 13.3743,-947.995 L 13.4684,-947.501 L 13.5,-947 L 13.5,-793 L 13.4684,-792.499 L 13.3743,-792.005
 L 13.2191,-791.528 L 13.0052,-791.073 L 12.7361,-790.649 L 12.4159,-790.262 L 12.0497,-789.918 L 11.6433,-789.623
 L 11.2031,-789.381 L 10.7361,-789.196 L 10.2495,-789.071 L 9.75116,-789.008 z
M 10.9369,-613.589 L 11.5451,-613.745 L 12.1289,-613.976 L 12.6791,-614.278 L 13.1871,-614.647 L 13.6448,-615.077
 L 14.0451,-615.561 L 14.3815,-616.091 L 14.6489,-616.659 L 14.8429,-617.257 L 14.9606,-617.873 L 15,-618.5
 L 15,-773.5 L 14.9606,-774.127 L 14.8429,-774.743 L 14.6489,-775.341 L 14.3815,-775.909 L 14.0451,-776.439
 L 13.6448,-776.923 L 13.1871,-777.353 L 12.6791,-777.722 L 12.1289,-778.024 L 11.5451,-778.255 L 10.9369,-778.411
 L 10.3139,-778.49 L -10.3139,-778.49 L -10.9369,-778.411 L -11.5451,-778.255 L -12.1289,-778.024 L -12.6791,-777.722
 L -13.1871,-777.353 L -13.6448,-776.923 L -14.0451,-776.439 L -14.3815,-775.909 L -14.6489,-775.341 L -14.8429,-774.743
 L -14.9606,-774.127 L -15,-773.5 L -15,-618.5 L -14.9606,-617.873 L -14.8429,-617.257 L -14.6489,-616.659
 L -14.3815,-616.091 L -14.0451,-615.561 L -13.6448,-615.077 L -13.1871,-614.647 L -12.6791,-614.278 L -12.1289,-613.976
 L -11.5451,-613.745 L -10.9369,-613.589 L -10.3139,-613.51 L 10.3139,-613.51 z
M -9.69545,-615.893 L -10.0833,-615.942 L -10.4619,-616.039 L -10.8254,-616.183 L -11.168,-616.372 L -11.4842,-616.601
 L -11.7692,-616.869 L -12.0184,-617.17 L -12.2279,-617.5 L -12.3943,-617.854 L -12.5151,-618.226 L -12.5884,-618.61
 L -12.6129,-619 L -12.6129,-773 L -12.5884,-773.39 L -12.5151,-773.774 L -12.3943,-774.146 L -12.2279,-774.5
 L -12.0184,-774.83 L -11.7692,-775.131 L -11.4842,-775.399 L -11.168,-775.628 L -10.8254,-775.817 L -10.4619,-775.961
 L -10.0833,-776.058 L -9.69545,-776.107 L 9.69545,-776.107 L 10.0833,-776.058 L 10.4619,-775.961 L 10.8254,-775.817
 L 11.168,-775.628 L 11.4842,-775.399 L 11.7692,-775.131 L 12.0184,-774.83 L 12.2279,-774.5 L 12.3943,-774.146
 L 12.5151,-773.774 L 12.5884,-773.39 L 12.6129,-773 L 12.6129,-619 L 12.5884,-618.61 L 12.5151,-618.226
 L 12.3943,-617.854 L 12.2279,-617.5 L 12.0184,-617.17 L 11.7692,-616.869 L 11.4842,-616.601 L 11.168,-616.372
 L 10.8254,-616.183 L 10.4619,-616.039 L 10.0833,-615.942 L 9.69545,-615.893 z
M 10.9369,-439.589 L 11.5451,-439.745 L 12.1289,-439.976 L 12.6791,-440.278 L 13.1871,-440.647 L 13.6448,-441.077
 L 14.0451,-441.561 L 14.3815,-442.091 L 14.6489,-442.659 L 14.8429,-443.257 L 14.9606,-443.873 L 15,-444.5
 L 15,-599.5 L 14.9606,-600.127 L 14.8429,-600.743 L 14.6489,-601.341 L 14.3815,-601.909 L 14.0451,-602.439
 L 13.6448,-602.923 L 13.1871,-603.353 L 12.6791,-603.722 L 12.1289,-604.024 L 11.5451,-604.255 L 10.9369,-604.411
 L 10.3139,-604.49 L -10.3139,-604.49 L -10.9369,-604.411 L -11.5451,-604.255 L -12.1289,-604.024 L -12.6791,-603.722
 L -13.1871,-603.353 L -13.6448,-602.923 L -14.0451,-602.439 L -14.3815,-601.909 L -14.6489,-601.341 L -14.8429,-600.743
 L -14.9606,-600.127 L -15,-599.5 L -15,-444.5 L -14.9606,-443.873 L -14.8429,-443.257 L -14.6489,-442.659
 L -14.3815,-442.091 L -14.0451,-441.561 L -13.6448,-441.077 L -13.1871,-440.647 L -12.6791,-440.278 L -12.1289,-439.976
 L -11.5451,-439.745 L -10.9369,-439.589 L -10.3139,-439.51 L 10.3139,-439.51 z
M 7.36592,-594.869 L 7.09988,-594.903 L 6.84015,-594.969 L 6.59084,-595.068 L 6.35585,-595.197 L 6.1389,-595.355
 L 5.94344,-595.538 L 5.77251,-595.745 L 5.62881,-595.971 L 5.51465,-596.214 L 5.43178,-596.469 L 5.38153,-596.732
 L 5.3647,-597 L 5.38153,-597.268 L 5.43178,-597.531 L 5.51465,-597.786 L 5.62881,-598.029 L 5.77251,-598.255
 L 5.94344,-598.462 L 6.1389,-598.645 L 6.35585,-598.803 L 6.59084,-598.932 L 6.84015,-599.031 L 7.09988,-599.097
 L 7.36592,-599.131 L 7.63406,-599.131 L 7.9001,-599.097 L 8.15984,-599.031 L 8.40915,-598.932 L 8.64413,-598.803
 L 8.86108,-598.645 L 9.05655,-598.462 L 9.22748,-598.255 L 9.37117,-598.029 L 9.48534,-597.786 L 9.56821,-597.531
 L 9.61845,-597.268 L 9.63528,-597 L 9.61845,-596.732 L 9.56821,-596.469 L 9.48534,-596.214 L 9.37117,-595.971
 L 9.22748,-595.745 L 9.05655,-595.538 L 8.86108,-595.355 L 8.64413,-595.197 L 8.40915,-595.068 L 8.15984,-594.969
 L 7.9001,-594.903 L 7.63406,-594.869 z
M -7.63406,-594.869 L -7.9001,-594.903 L -8.15984,-594.969 L -8.40915,-595.068 L -8.64413,-595.197 L -8.86108,-595.355
 L -9.05655,-595.538 L -9.22748,-595.745 L -9.37117,-595.971 L -9.48534,-596.214 L -9.56821,-596.469 L -9.61845,-596.732
 L -9.63528,-597 L -9.61845,-597.268 L -9.56821,-597.531 L -9.48534,-597.786 L -9.37117,-598.029 L -9.22748,-598.255
 L -9.05655,-598.462 L -8.86108,-598.645 L -8.64413,-598.803 L -8.40915,-598.932 L -8.15984,-599.031 L -7.9001,-599.097
 L -7.63406,-599.131 L -7.36592,-599.131 L -7.09988,-599.097 L -6.84015,-599.031 L -6.59084,-598.932 L -6.35585,-598.803
 L -6.1389,-598.645 L -5.94344,-598.462 L -5.77251,-598.255 L -5.62881,-598.029 L -5.51465,-597.786 L -5.43178,-597.531
 L -5.38153,-597.268 L -5.3647,-597 L -5.38153,-596.732 L -5.43178,-596.469 L -5.51465,-596.214 L -5.62881,-595.971
 L -5.77251,-595.745 L -5.94344,-595.538 L -6.1389,-595.355 L -6.35585,-595.197 L -6.59084,-595.068 L -6.84015,-594.969
 L -7.09988,-594.903 L -7.36592,-594.869 z
M 7.36592,-444.869 L 7.09988,-444.903 L 6.84015,-444.969 L 6.59084,-445.068 L 6.35585,-445.197 L 6.1389,-445.355
 L 5.94344,-445.538 L 5.77251,-445.745 L 5.62881,-445.971 L 5.51465,-446.214 L 5.43178,-446.469 L 5.38153,-446.732
 L 5.3647,-447 L 5.38153,-447.268 L 5.43178,-447.531 L 5.51465,-447.786 L 5.62881,-448.029 L 5.77251,-448.255
 L 5.94344,-448.462 L 6.1389,-448.645 L 6.35585,-448.803 L 6.59084,-448.932 L 6.84015,-449.031 L 7.09988,-449.097
 L 7.36592,-449.131 L 7.63406,-449.131 L 7.9001,-449.097 L 8.15984,-449.031 L 8.40915,-448.932 L 8.64413,-448.803
 L 8.86108,-448.645 L 9.05655,-448.462 L 9.22748,-448.255 L 9.37117,-448.029 L 9.48534,-447.786 L 9.56821,-447.531
 L 9.61845,-447.268 L 9.63528,-447 L 9.61845,-446.732 L 9.56821,-446.469 L 9.48534,-446.214 L 9.37117,-445.971
 L 9.22748,-445.745 L 9.05655,-445.538 L 8.86108,-445.355 L 8.64413,-445.197 L 8.40915,-445.068 L 8.15984,-444.969
 L 7.9001,-444.903 L 7.63406,-444.869 z
M -7.63406,-444.869 L -7.9001,-444.903 L -8.15984,-444.969 L -8.40915,-445.068 L -8.64413,-445.197 L -8.86108,-445.355
 L -9.05655,-445.538 L -9.22748,-445.745 L -9.37117,-445.971 L -9.48534,-446.214 L -9.56821,-446.469 L -9.61845,-446.732
 L -9.63528,-447 L -9.61845,-447.268 L -9.56821,-447.531 L -9.48534,-447.786 L -9.37117,-448.029 L -9.22748,-448.255
 L -9.05655,-448.462 L -8.86108,-448.645 L -8.64413,-448.803 L -8.40915,-448.932 L -8.15984,-449.031 L -7.9001,-449.097
 L -7.63406,-449.131 L -7.36592,-449.131 L -7.09988,-449.097 L -6.84015,-449.031 L -6.59084,-448.932 L -6.35585,-448.803
 L -6.1389,-448.645 L -5.94344,-448.462 L -5.77251,-448.255 L -5.62881,-448.029 L -5.51465,-447.786 L -5.43178,-447.531
 L -5.38153,-447.268 L -5.3647,-447 L -5.38153,-446.732 L -5.43178,-446.469 L -5.51465,-446.214 L -5.62881,-445.971
 L -5.77251,-445.745 L -5.94344,-445.538 L -6.1389,-445.355 L -6.35585,-445.197 L -6.59084,-445.068 L -6.84015,-444.969
 L -7.09988,-444.903 L -7.36592,-444.869 z
" stroke="black" fill="lightgray" stroke-width="0.5"/>
</svg>
