<?xml version="1.0" standalone="no"?>
<!DOCTYPE svg PUBLIC "-//W3C//DTD SVG 1.1//EN" "http://www.w3.org/Graphics/SVG/1.1/DTD/svg11.dtd">
<svg width="120mm" height="100mm" viewBox="-60 -185 120 100" xmlns="http://www.w3.org/2000/svg" version="1.1">
<title>OpenSCAD Model</title>
<path d="
M 55.9369,-139.589 L 56.5451,-139.745 L 57.1289,-139.976 L 57.6791,-140.278 L 58.1871,-140.647 L 58.6448,-141.077
 L 59.0451,-141.561 L 59.3815,-142.091 L 59.6489,-142.659 L 59.8429,-143.257 L 59.9606,-143.873 L 60,-144.5
 L 60,-179.5 L 59.9606,-180.127 L 59.8429,-180.743 L 59.6489,-181.341 L 59.3815,-181.909 L 59.0451,-182.439
 L 58.6448,-182.923 L 58.1871,-183.353 L 57.6791,-183.722 L 57.1289,-184.024 L 56.5451,-184.255 L 55.9369,-184.411
 L 55.3139,-184.49 L -55.3139,-184.49 L -55.9369,-184.411 L -56.5451,-184.255 L -57.1289,-184.024 L -57.6791,-183.722
 L -58.1871,-183.353 L -58.6448,-182.923 L -59.0451,-182.439 L -59.3815,-181.909 L -59.6489,-181.341 L -59.8429,-180.743
 L -59.9606,-180.127 L -60,-179.5 L -60,-144.5 L -59.9606,-143.873 L -59.8429,-143.257 L -59.6489,-142.659
 L -59.3815,-142.091 L -59.0451,-141.561 L -58.6448,-141.077 L -58.1871,-140.647 L -57.6791,-140.278 L -57.1289,-139.976
 L -56.5451,-139.745 L -55.9369,-139.589 L -55.3139,-139.51 L 55.3139,-139.51 z
M -55.0375,-140.181 L -55.6079,-140.253 L -56.1648,-140.396 L -56.6994,-140.607 L -57.2032,-140.884 L -57.6684,-141.222
 L -58.0875,-141.616 L -58.454,-142.059 L -58.7621,-142.544 L -59.0069,-143.065 L -59.1846,-143.611 L -59.2923,-144.176
 L -59.3284,-144.75 L -59.3284,-179.25 L -59.2923,-179.824 L -59.1846,-180.389 L -59.0069,-180.935 L -58.7621,-181.456
 L -58.454,-181.941 L -58.0875,-182.384 L -57.6684,-182.778 L -57.2032,-183.116 L -56.6994,-183.393 L -56.1648,-183.604
 L -55.6079,-183.747 L -55.0375,-183.819 L 55.0375,-183.819 L 55.6079,-183.747 L 56.1648,-183.604 L 56.6994,-183.393
 L 57.2032,-183.116 L 57.6684,-182.778 L 58.0875,-182.384 L 58.454,-181.941 L 58.7621,-181.456 L 59.0069,-180.935
 L 59.1846,-180.389 L 59.2923,-179.824 L 59.3284,-179.25 L 59.3284,-144.75 L 59.2923,-144.176 L 59.1846,-143.611
 L 59.0069,-143.065 L 58.7621,-142.544 L 58.454,-142.059 L 58.0875,-141.616 L 57.6684,-141.222 L 57.2032,-140.884
 L 56.6994,-140.607 L 56.1648,-140.396 L 55.6079,-140.253 L 55.0375,-140.181 z
M 55.9369,-85.5886 L 56.5451,-85.7447 L 57.1289,-85.9759 L 57.6791,-86.2784 L 58.1871,-86.6474 L 58.6448,-87.0773
 L 59.0451,-87.5611 L 59.3815,-88.0912 L 59.6489,-88.6594 L 59.8429,-89.2566 L 59.9606,-89.8733 L 60,-90.5
 L 60,-125.5 L 59.9606,-126.127 L 59.8429,-126.743 L 59.6489,-127.341 L 59.3815,-127.909 L 59.0451,-128.439
 L 58.6448,-128.923 L 58.1871,-129.353 L 57.6791,-129.722 L 57.1289,-130.024 L 56.5451,-130.255 L 55.9369,-130.411
 L 55.3139,-130.49 L -55.3139,-130.49 L -55.9369,-130.411 L -56.5451,-130.255 L -57.1289,-130.024 L -57.6791,-129.722
 L -58.1871,-129.353 L -58.6448,-128.923 L -59.0451,-128.439 L -59.3815,-127.909 L -59.6489,-127.341 L -59.8429,-126.743
 L -59.9606,-126.127 L -60,-125.5 L -60,-90.5 L -59.9606,-89.8733 L -59.8429,-89.2566 L -59.6489,-88.6594
 L -59.3815,-88.0912 L -59.0451,-87.5611 L -58.6448,-87.0773 L -58.1871,-86.6474 L -57.6791,-86.2784 L -57.1289,-85.9759
 L -56.5451,-85.7447 L -55.9369,-85.5886 L -55.3139,-85.5099 L 55.3139,-85.5099 z
M -54.8825,-88.6445 L -55.1453,-88.6777 L -55.4019,-88.7436 L -55.6482,-88.8412 L -55.8804,-88.9688 L -56.0947,-89.1245
 L -56.2879,-89.3059 L -56.4567,-89.51 L -56.5987,-89.7337 L -56.7115,-89.9734 L -56.7934,-90.2254 L -56.843,-90.4856
 L -56.8596,-90.75 L -56.8596,-125.25 L -56.843,-125.514 L -56.7934,-125.775 L -56.7115,-126.027 L -56.5987,-126.266
 L -56.4567,-126.49 L -56.2879,-126.694 L -56.0947,-126.875 L -55.8804,-127.031 L -55.6482,-127.159 L -55.4019,-127.256
 L -55.1453,-127.322 L -54.8825,-127.355 L 54.8825,-127.355 L 55.1453,-127.322 L 55.4019,-127.256 L 55.6482,-127.159
 L 55.8804,-127.031 L 56.0947,-126.875 L 56.2879,-126.694 L 56.4567,-126.49 L 56.5987,-126.266 L 56.7115,-126.027
 L 56.7934,-125.775 L 56.843,-125.514 L 56.8596,-125.25 L 56.8596,-90.75 L 56.843,-90.4856 L 56.7934,-90.2254
 L 56.7115,-89.9734 L 56.5987,-89.7337 L 56.4567,-89.51 L 56.2879,-89.3059 L 56.0947,-89.1245 L 55.8804,-88.9688
 L 55.6482,-88.8412 L 55.4019,-88.7436 L 55.1453,-88.6777 L 54.8825,-88.6445 z
" stroke="black" fill="lightgray" stroke-width="0.5"/>
</svg>
