<?xml version="1.0" standalone="no"?>
<!DOCTYPE svg PUBLIC "-//W3C//DTD SVG 1.1//EN" "http://www.w3.org/Graphics/SVG/1.1/DTD/svg11.dtd">
<svg width="16mm" height="244mm" viewBox="-8 -374 16 244" xmlns="http://www.w3.org/2000/svg" version="1.1">
<title>OpenSCAD Model</title>
<path d="
M 3.4369,-298.589 L 4.04507,-298.745 L 4.62889,-298.976 L 5.17912,-299.278 L 5.68712,-299.647 L 6.14484,-300.077
 L 6.54507,-300.561 L 6.88153,-301.091 L 7.14888,-301.659 L 7.34291,-302.257 L 7.46057,-302.873 L 7.5,-303.5
 L 7.5,-368.5 L 7.46057,-369.127 L 7.34291,-369.743 L 7.14888,-370.341 L 6.88153,-370.909 L 6.54507,-371.439
 L 6.14484,-371.923 L 5.68712,-372.353 L 5.17912,-372.722 L 4.62889,-373.024 L 4.04507,-373.255 L 3.4369,-373.411
 L 2.81395,-373.49 L -2.81395,-373.49 L -3.4369,-373.411 L -4.04507,-373.255 L -4.62889,-373.024 L -5.17912,-372.722
 L -5.68712,-372.353 L -6.14484,-371.923 L -6.54507,-371.439 L -6.88153,-370.909 L -7.14888,-370.341 L -7.34291,-369.743
 L -7.46057,-369.127 L -7.5,-368.5 L -7.5,-303.5 L -7.46057,-302.873 L -7.34291,-302.257 L -7.14888,-301.659
 L -6.88153,-301.091 L -6.54507,-300.561 L -6.14484,-300.077 L -5.68712,-299.647 L -5.17912,-299.278 L -4.62889,-298.976
 L -4.04507,-298.745 L -3.4369,-298.589 L -2.81395,-298.51 L 2.81395,-298.51 z
M -2.24316,-300.135 L -2.72565,-300.196 L -3.1967,-300.317 L -3.64888,-300.496 L -4.07506,-300.73 L -4.46851,-301.016
 L -4.82301,-301.349 L -5.13301,-301.724 L -5.3936,-302.134 L -5.60068,-302.574 L -5.75096,-303.037 L -5.84209,-303.515
 L -5.87262,-304 L -5.87262,-368 L -5.84209,-368.485 L -5.75096,-368.963 L -5.60068,-369.426 L -5.3936,-369.866
 L -5.13301,-370.276 L -4.82301,-370.651 L -4.46851,-370.984 L -4.07506,-371.27 L -3.64888,-371.504 L -3.1967,-371.683
 L -2.72565,-371.804 L -2.24316,-371.865 L 2.24316,-371.865 L 2.72565,-371.804 L 3.1967,-371.683 L 3.64888,-371.504
 L 4.07506,-371.27 L 4.46851,-370.984 L 4.82301,-370.651 L 5.13301,-370.276 L 5.3936,-369.866 L 5.60068,-369.426
 L 5.75096,-368.963 L 5.84209,-368.485 L 5.87262,-368 L 5.87262,-304 L 5.84209,-303.515 L 5.75096,-303.037
 L 5.60068,-302.574 L 5.3936,-302.134 L 5.13301,-301.724 L 4.82301,-301.349 L 4.46851,-301.016 L 4.07506,-300.73
 L 3.64888,-300.496 L 3.1967,-300.317 L 2.72565,-300.196 L 2.24316,-300.135 z
M 3.4369,-214.589 L 4.04507,-214.745 L 4.62889,-214.976 L 5.17912,-215.278 L 5.68712,-215.647 L 6.14484,-216.077
 L 6.54507,-216.561 L 6.88153,-217.091 L 7.14888,-217.659 L 7.34291,-218.257 L 7.46057,-218.873 L 7.5,-219.5
 L 7.5,-284.5 L 7.46057,-285.127 L 7.34291,-285.743 L 7.14888,-286.341 L 6.88153,-286.909 L 6.54507,-287.439
 L 6.14484,-287.923 L 5.68712,-288.353 L 5.17912,-288.722 L 4.62889,-289.024 L 4.04507,-289.255 L 3.4369,-289.411
 L 2.81395,-289.49 L -2.81395,-289.49 L -3.4369,-289.411 L -4.04507,-289.255 L -4.62889,-289.024 L -5.17912,-288.722
 L -5.68712,-288.353 L -6.14484,-287.923 L -6.54507,-287.439 L -6.88153,-286.909 L -7.14888,-286.341 L -7.34291,-285.743
 L -7.46057,-285.127 L -7.5,-284.5 L -7.5,-219.5 L -7.46057,-218.873 L -7.34291,-218.257 L -7.14888,-217.659
 L -6.88153,-217.091 L -6.54507,-216.561 L -6.14484,-216.077 L -5.68712,-215.647 L -5.17912,-215.278 L -4.62889,-214.976
 L -4.04507,-214.745 L -3.4369,-214.589 L -2.81395,-214.51 L 2.81395,-214.51 z
M 3.4369,-130.589 L 4.04507,-130.745 L 4.62889,-130.976 L 5.17912,-131.278 L 5.68712,-131.647 L 6.14484,-132.077
 L 6.54507,-132.561 L 6.88153,-133.091 L 7.14888,-133.659 L 7.34291,-134.257 L 7.46057,-134.873 L 7.5,-135.5
 L 7.5,-200.5 L 7.46057,-201.127 L 7.34291,-201.743 L 7.14888,-202.341 L 6.88153,-202.909 L 6.54507,-203.439
 L 6.14484,-203.923 L 5.68712,-204.353 L 5.17912,-204.722 L 4.62889,-205.024 L 4.04507,-205.255 L 3.4369,-205.411
 L 2.81395,-205.49 L -2.81395,-205.49 L -3.4369,-205.411 L -4.04507,-205.255 L -4.62889,-205.024 L -5.17912,-204.722
 L -5.68712,-204.353 L -6.14484,-203.923 L -6.54507,-203.439 L -6.88153,-202.909 L -7.14888,-202.341 L -7.34291,-201.743
 L -7.46057,-201.127 L -7.5,-200.5 L -7.5,-135.5 L -7.46057,-134.873 L -7.34291,-134.257 L -7.14888,-133.659
 L -6.88153,-133.091 L -6.54507,-132.561 L -6.14484,-132.077 L -5.68712,-131.647 L -5.17912,-131.278 L -4.62889,-130.976
 L -4.04507,-130.745 L -3.4369,-130.589 L -2.81395,-130.51 L 2.81395,-130.51 z
M -0.113022,-196.204 L -0.33728,-196.232 L -0.556229,-196.288 L -0.766388,-196.371 L -0.964478,-196.48 L -1.14735,-196.613
 L -1.31213,-196.768 L -1.45622,-196.942 L -1.57735,-197.133 L -1.67358,-197.337 L -1.74344,-197.552 L -1.7858,-197.774
 L -1.79999,-198 L -1.7858,-198.226 L -1.74344,-198.448 L -1.67358,-198.663 L -1.57735,-198.867 L -1.45622,-199.058
 L -1.31213,-199.232 L -1.14735,-199.387 L -0.964478,-199.52 L -0.766388,-199.629 L -0.556229,-199.712 L -0.33728,-199.768
 L -0.113022,-199.796 L 0.113022,-199.796 L 0.33728,-199.768 L 0.556229,-199.712 L 0.766388,-199.629 L 0.964478,-199.52
 L 1.14735,-199.387 L 1.31213,-199.232 L 1.45622,-199.058 L 1.57735,-198.867 L 1.67358,-198.663 L 1.74344,-198.448
 L 1.7858,-198.226 L 1.79999,-198 L 1.7858,-197.774 L 1.74344,-197.552 L 1.67358,-197.337 L 1.57735,-197.133
 L 1.45622,-196.942 L 1.31213,-196.768 L 1.14735,-196.613 L 0.964478,-196.48 L 0.766388,-196.371 L 0.556229,-196.288
 L 0.33728,-196.232 L 0.113022,-196.204 z
M -0.113022,-136.204 L -0.33728,-136.232 L -0.556229,-136.288 L -0.766388,-136.371 L -0.964478,-136.48 L -1.14735,-136.613
 L -1.31213,-136.768 L -1.45622,-136.942 L -1.57735,-137.133 L -1.67358,-137.337 L -1.74344,-137.552 L -1.7858,-137.774
 L -1.79999,-138 L -1.7858,-138.226 L -1.74344,-138.448 L -1.67358,-138.663 L -1.57735,-138.867 L -1.45622,-139.058
 L -1.31213,-139.232 L -1.14735,-139.387 L -0.964478,-139.52 L -0.766388,-139.629 L -0.556229,-139.712 L -0.33728,-139.768
 L -0.113022,-139.796 L 0.113022,-139.796 L 0.33728,-139.768 L 0.556229,-139.712 L 0.766388,-139.629 L 0.964478,-139.52
 L 1.14735,-139.387 L 1.31213,-139.232 L 1.45622,-139.058 L 1.57735,-138.867 L 1.67358,-138.663 L 1.74344,-138.448
 L 1.7858,-138.226 L 1.79999,-138 L 1.7858,-137.774 L 1.74344,-137.552 L 1.67358,-137.337 L 1.57735,-137.133
 L 1.45622,-136.942 L 1.31213,-136.768 L 1.14735,-136.613 L 0.964478,-136.48 L 0.766388,-136.371 L 0.556229,-136.288
 L 0.33728,-136.232 L 0.113022,-136.204 z
" stroke="black" fill="lightgray" stroke-width="0.5"/>
</svg>
