<?xml version="1.0" standalone="no"?>
<!DOCTYPE svg PUBLIC "-//W3C//DTD SVG 1.1//EN" "http://www.w3.org/Graphics/SVG/1.1/DTD/svg11.dtd">
<svg width="152mm" height="108mm" viewBox="-77 -210 152 108" xmlns="http://www.w3.org/2000/svg" version="1.1">
<title>OpenSCAD Model</title>
<path d="
M -73.5,-181.441 L -73.1871,-181.147 L -72.6791,-180.778 L -72.1289,-180.476 L -71.5451,-180.245 L -70.9369,-180.089
 L -70.3139,-180.01 L 70.3139,-180.01 L 70.9369,-180.089 L 71.5451,-180.245 L 72.1289,-180.476 L 72.6791,-180.778
 L 73.1871,-181.147 L 73.6448,-181.577 L 74.0451,-182.061 L 74.3815,-182.591 L 74.6489,-183.159 L 74.8429,-183.757
 L 74.9606,-184.373 L 75,-185 L 75,-205 L 74.9606,-205.627 L 74.8429,-206.243 L 74.6489,-206.841
 L 74.3815,-207.409 L 74.0451,-207.939 L 73.6448,-208.423 L 73.1871,-208.853 L 72.6791,-209.222 L 72.1289,-209.524
 L 71.5451,-209.755 L 70.9369,-209.911 L 70.3139,-209.99 L -70.3139,-209.99 L -70.9369,-209.911 L -71.5451,-209.755
 L -72.1289,-209.524 L -72.6791,-209.222 L -73.1871,-208.853 L -73.5,-208.559 L -73.5,-209.99 L -76.5,-209.99
 L -76.5,-180.01 L -73.5,-180.01 z
M -69.7512,-181.508 L -70.2495,-181.571 L -70.7361,-181.696 L -71.2031,-181.881 L -71.6433,-182.123 L -72.0497,-182.418
 L -72.4159,-182.762 L -72.7361,-183.149 L -73.0052,-183.573 L -73.2191,-184.028 L -73.3743,-184.505 L -73.4685,-184.999
 L -73.5,-185.5 L -73.5,-204.5 L -73.4685,-205.001 L -73.3743,-205.495 L -73.2191,-205.972 L -73.0052,-206.427
 L -72.7361,-206.851 L -72.4159,-207.238 L -72.0497,-207.582 L -71.6433,-207.877 L -71.2031,-208.119 L -70.7361,-208.304
 L -70.2495,-208.429 L -69.7512,-208.492 L 69.7512,-208.492 L 70.2495,-208.429 L 70.7361,-208.304 L 71.2031,-208.119
 L 71.6433,-207.877 L 72.0497,-207.582 L 72.4159,-207.238 L 72.7361,-206.851 L 73.0052,-206.427 L 73.2191,-205.972
 L 73.3743,-205.495 L 73.4685,-205.001 L 73.5,-204.5 L 73.5,-185.5 L 73.4685,-184.999 L 73.3743,-184.505
 L 73.2191,-184.028 L 73.0052,-183.573 L 72.7361,-183.149 L 72.4159,-182.762 L 72.0497,-182.418 L 71.6433,-182.123
 L 71.2031,-181.881 L 70.7361,-181.696 L 70.2495,-181.571 L 69.7512,-181.508 z
M 70.9369,-141.089 L 71.5451,-141.245 L 72.1289,-141.476 L 72.6791,-141.778 L 73.1871,-142.147 L 73.6448,-142.577
 L 74.0451,-143.061 L 74.3815,-143.591 L 74.6489,-144.159 L 74.8429,-144.757 L 74.9606,-145.373 L 75,-146
 L 75,-166 L 74.9606,-166.627 L 74.8429,-167.243 L 74.6489,-167.841 L 74.3815,-168.409 L 74.0451,-168.939
 L 73.6448,-169.423 L 73.1871,-169.853 L 72.6791,-170.222 L 72.1289,-170.524 L 71.5451,-170.755 L 70.9369,-170.911
 L 70.3139,-170.99 L -70.3139,-170.99 L -70.9369,-170.911 L -71.5451,-170.755 L -72.1289,-170.524 L -72.6791,-170.222
 L -73.1871,-169.853 L -73.5,-169.559 L -73.5,-170.979 L -76.5,-170.979 L -76.5,-141.021 L -73.5,-141.021
 L -73.5,-142.441 L -73.1871,-142.147 L -72.6791,-141.778 L -72.1289,-141.476 L -71.5451,-141.245 L -70.9369,-141.089
 L -70.3139,-141.01 L 70.3139,-141.01 z
M -69.6955,-143.393 L -70.0833,-143.442 L -70.4619,-143.539 L -70.8254,-143.683 L -71.168,-143.872 L -71.4843,-144.101
 L -71.7692,-144.369 L -72.0184,-144.67 L -72.2279,-145 L -72.3943,-145.354 L -72.5151,-145.726 L -72.5884,-146.11
 L -72.6129,-146.5 L -72.6129,-165.5 L -72.5884,-165.89 L -72.5151,-166.274 L -72.3943,-166.646 L -72.2279,-167
 L -72.0184,-167.33 L -71.7692,-167.631 L -71.4843,-167.899 L -71.168,-168.128 L -70.8254,-168.317 L -70.4619,-168.461
 L -70.0833,-168.558 L -69.6955,-168.607 L 69.6955,-168.607 L 70.0833,-168.558 L 70.4619,-168.461 L 70.8254,-168.317
 L 71.168,-168.128 L 71.4843,-167.899 L 71.7692,-167.631 L 72.0184,-167.33 L 72.2279,-167 L 72.3943,-166.646
 L 72.5151,-166.274 L 72.5884,-165.89 L 72.6129,-165.5 L 72.6129,-146.5 L 72.5884,-146.11 L 72.5151,-145.726
 L 72.3943,-145.354 L 72.2279,-145 L 72.0184,-144.67 L 71.7692,-144.369 L 71.4843,-144.101 L 71.168,-143.872
 L 70.8254,-143.683 L 70.4619,-143.539 L 70.0833,-143.442 L 69.6955,-143.393 z
M 70.9369,-102.089 L 71.5451,-102.245 L 72.1289,-102.476 L 72.6791,-102.778 L 73.1871,-103.147 L 73.6448,-103.577
 L 74.0451,-104.061 L 74.3815,-104.591 L 74.6489,-105.159 L 74.8429,-105.757 L 74.9606,-106.373 L 75,-107
 L 75,-127 L 74.9606,-127.627 L 74.8429,-128.243 L 74.6489,-128.841 L 74.3815,-129.409 L 74.0451,-129.939
 L 73.6448,-130.423 L 73.1871,-130.853 L 72.6791,-131.222 L 72.1289,-131.524 L 71.5451,-131.755 L 70.9369,-131.911
 L 70.3139,-131.99 L -70.3139,-131.99 L -70.9369,-131.911 L -71.5451,-131.755 L -72.1289,-131.524 L -72.6791,-131.222
 L -73.1871,-130.853 L -73.5,-130.559 L -73.5,-130.653 L -76.5,-130.653 L -76.5,-103.347 L -73.5,-103.347
 L -73.5,-103.441 L -73.1871,-103.147 L -72.6791,-102.778 L -72.1289,-102.476 L -71.5451,-102.245 L -70.9369,-102.089
 L -70.3139,-102.01 L 70.3139,-102.01 z
M 67.3659,-122.369 L 67.0999,-122.403 L 66.8401,-122.469 L 66.5908,-122.568 L 66.3559,-122.697 L 66.1389,-122.855
 L 65.9434,-123.038 L 65.7725,-123.245 L 65.6288,-123.471 L 65.5146,-123.714 L 65.4318,-123.969 L 65.3815,-124.232
 L 65.3647,-124.5 L 65.3815,-124.768 L 65.4318,-125.031 L 65.5146,-125.286 L 65.6288,-125.529 L 65.7725,-125.755
 L 65.9434,-125.962 L 66.1389,-126.145 L 66.3559,-126.303 L 66.5908,-126.432 L 66.8401,-126.531 L 67.0999,-126.597
 L 67.3659,-126.631 L 67.6341,-126.631 L 67.9001,-126.597 L 68.1598,-126.531 L 68.4092,-126.432 L 68.6441,-126.303
 L 68.8611,-126.145 L 69.0566,-125.962 L 69.2275,-125.755 L 69.3712,-125.529 L 69.4853,-125.286 L 69.5682,-125.031
 L 69.6185,-124.768 L 69.6353,-124.5 L 69.6185,-124.232 L 69.5682,-123.969 L 69.4853,-123.714 L 69.3712,-123.471
 L 69.2275,-123.245 L 69.0566,-123.038 L 68.8611,-122.855 L 68.6441,-122.697 L 68.4092,-122.568 L 68.1598,-122.469
 L 67.9001,-122.403 L 67.6341,-122.369 z
M -67.6341,-122.369 L -67.9001,-122.403 L -68.1598,-122.469 L -68.4092,-122.568 L -68.6441,-122.697 L -68.8611,-122.855
 L -69.0566,-123.038 L -69.2275,-123.245 L -69.3712,-123.471 L -69.4853,-123.714 L -69.5682,-123.969 L -69.6185,-124.232
 L -69.6353,-124.5 L -69.6185,-124.768 L -69.5682,-125.031 L -69.4853,-125.286 L -69.3712,-125.529 L -69.2275,-125.755
 L -69.0566,-125.962 L -68.8611,-126.145 L -68.6441,-126.303 L -68.4092,-126.432 L -68.1598,-126.531 L -67.9001,-126.597
 L -67.6341,-126.631 L -67.3659,-126.631 L -67.0999,-126.597 L -66.8401,-126.531 L -66.5908,-126.432 L -66.3559,-126.303
 L -66.1389,-126.145 L -65.9434,-125.962 L -65.7725,-125.755 L -65.6288,-125.529 L -65.5146,-125.286 L -65.4318,-125.031
 L -65.3815,-124.768 L -65.3647,-124.5 L -65.3815,-124.232 L -65.4318,-123.969 L -65.5146,-123.714 L -65.6288,-123.471
 L -65.7725,-123.245 L -65.9434,-123.038 L -66.1389,-122.855 L -66.3559,-122.697 L -66.5908,-122.568 L -66.8401,-122.469
 L -67.0999,-122.403 L -67.3659,-122.369 z
M 67.3659,-107.369 L 67.0999,-107.403 L 66.8401,-107.469 L 66.5908,-107.568 L 66.3559,-107.697 L 66.1389,-107.855
 L 65.9434,-108.038 L 65.7725,-108.245 L 65.6288,-108.471 L 65.5146,-108.714 L 65.4318,-108.969 L 65.3815,-109.232
 L 65.3647,-109.5 L 65.3815,-109.768 L 65.4318,-110.031 L 65.5146,-110.286 L 65.6288,-110.529 L 65.7725,-110.755
 L 65.9434,-110.962 L 66.1389,-111.145 L 66.3559,-111.303 L 66.5908,-111.432 L 66.8401,-111.531 L 67.0999,-111.597
 L 67.3659,-111.631 L 67.6341,-111.631 L 67.9001,-111.597 L 68.1598,-111.531 L 68.4092,-111.432 L 68.6441,-111.303
 L 68.8611,-111.145 L 69.0566,-110.962 L 69.2275,-110.755 L 69.3712,-110.529 L 69.4853,-110.286 L 69.5682,-110.031
 L 69.6185,-109.768 L 69.6353,-109.5 L 69.6185,-109.232 L 69.5682,-108.969 L 69.4853,-108.714 L 69.3712,-108.471
 L 69.2275,-108.245 L 69.0566,-108.038 L 68.8611,-107.855 L 68.6441,-107.697 L 68.4092,-107.568 L 68.1598,-107.469
 L 67.9001,-107.403 L 67.6341,-107.369 z
M -67.6341,-107.369 L -67.9001,-107.403 L -68.1598,-107.469 L -68.4092,-107.568 L -68.6441,-107.697 L -68.8611,-107.855
 L -69.0566,-108.038 L -69.2275,-108.245 L -69.3712,-108.471 L -69.4853,-108.714 L -69.5682,-108.969 L -69.6185,-109.232
 L -69.6353,-109.5 L -69.6185,-109.768 L -69.5682,-110.031 L -69.4853,-110.286 L -69.3712,-110.529 L -69.2275,-110.755
 L -69.0566,-110.962 L -68.8611,-111.145 L -68.6441,-111.303 L -68.4092,-111.432 L -68.1598,-111.531 L -67.9001,-111.597
 L -67.6341,-111.631 L -67.3659,-111.631 L -67.0999,-111.597 L -66.8401,-111.531 L -66.5908,-111.432 L -66.3559,-111.303
 L -66.1389,-111.145 L -65.9434,-110.962 L -65.7725,-110.755 L -65.6288,-110.529 L -65.5146,-110.286 L -65.4318,-110.031
 L -65.3815,-109.768 L -65.3647,-109.5 L -65.3815,-109.232 L -65.4318,-108.969 L -65.5146,-108.714 L -65.6288,-108.471
 L -65.7725,-108.245 L -65.9434,-108.038 L -66.1389,-107.855 L -66.3559,-107.697 L -66.5908,-107.568 L -66.8401,-107.469
 L -67.0999,-107.403 L -67.3659,-107.369 z
" stroke="black" fill="lightgray" stroke-width="0.5"/>
</svg>
