<?xml version="1.0" standalone="no"?>
<!DOCTYPE svg PUBLIC "-//W3C//DTD SVG 1.1//EN" "http://www.w3.org/Graphics/SVG/1.1/DTD/svg11.dtd">
<svg width="136mm" height="69mm" viewBox="-68 -132 136 69" xmlns="http://www.w3.org/2000/svg" version="1.1">
<title>OpenSCAD Model</title>
<path d="
M 63.4369,-102.089 L 64.0451,-102.245 L 64.6289,-102.476 L 65.1791,-102.778 L 65.6871,-103.147 L 66.1448,-103.577
 L 66.5451,-104.061 L 66.8815,-104.591 L 67.1489,-105.159 L 67.3429,-105.757 L 67.4606,-106.373 L 67.5,-107
 L 67.5,-127 L 67.4606,-127.627 L 67.3429,-128.243 L 67.1489,-128.841 L 66.8815,-129.409 L 66.5451,-129.939
 L 66.1448,-130.423 L 65.6871,-130.853 L 65.1791,-131.222 L 64.6289,-131.524 L 64.0451,-131.755 L 63.4369,-131.911
 L 62.8139,-131.99 L -62.8139,-131.99 L -63.4369,-131.911 L -64.0451,-131.755 L -64.6289,-131.524 L -65.1791,-131.222
 L -65.6871,-130.853 L -66.1448,-130.423 L -66.5451,-129.939 L -66.8815,-129.409 L -67.1489,-128.841 L -67.3429,-128.243
 L -67.4606,-127.627 L -67.5,-127 L -67.5,-107 L -67.4606,-106.373 L -67.3429,-105.757 L -67.1489,-105.159
 L -66.8815,-104.591 L -66.5451,-104.061 L -66.1448,-103.577 L -65.6871,-103.147 L -65.1791,-102.778 L -64.6289,-102.476
 L -64.0451,-102.245 L -63.4369,-102.089 L -62.8139,-102.01 L 62.8139,-102.01 z
M -62.5375,-102.681 L -63.1079,-102.753 L -63.6648,-102.896 L -64.1994,-103.107 L -64.7032,-103.384 L -65.1684,-103.722
 L -65.5875,-104.116 L -65.954,-104.559 L -66.2621,-105.044 L -66.5069,-105.565 L -66.6846,-106.111 L -66.7923,-106.676
 L -66.8284,-107.25 L -66.8284,-126.75 L -66.7923,-127.324 L -66.6846,-127.889 L -66.5069,-128.435 L -66.2621,-128.956
 L -65.954,-129.441 L -65.5875,-129.884 L -65.1684,-130.278 L -64.7032,-130.616 L -64.1994,-130.893 L -63.6648,-131.104
 L -63.1079,-131.247 L -62.5375,-131.319 L 62.5375,-131.319 L 63.1079,-131.247 L 63.6648,-131.104 L 64.1994,-130.893
 L 64.7032,-130.616 L 65.1684,-130.278 L 65.5875,-129.884 L 65.954,-129.441 L 66.2621,-128.956 L 66.5069,-128.435
 L 66.6846,-127.889 L 66.7923,-127.324 L 66.8284,-126.75 L 66.8284,-107.25 L 66.7923,-106.676 L 66.6846,-106.111
 L 66.5069,-105.565 L 66.2621,-105.044 L 65.954,-104.559 L 65.5875,-104.116 L 65.1684,-103.722 L 64.7032,-103.384
 L 64.1994,-103.107 L 63.6648,-102.896 L 63.1079,-102.753 L 62.5375,-102.681 z
M 63.4369,-63.0886 L 64.0451,-63.2447 L 64.6289,-63.4759 L 65.1791,-63.7784 L 65.6871,-64.1474 L 66.1448,-64.5773
 L 66.5451,-65.0611 L 66.8815,-65.5912 L 67.1489,-66.1594 L 67.3429,-66.7566 L 67.4606,-67.3733 L 67.5,-68
 L 67.5,-88 L 67.4606,-88.6267 L 67.3429,-89.2434 L 67.1489,-89.8406 L 66.8815,-90.4088 L 66.5451,-90.9389
 L 66.1448,-91.4227 L 65.6871,-91.8526 L 65.1791,-92.2216 L 64.6289,-92.5241 L 64.0451,-92.7553 L 63.4369,-92.9114
 L 62.8139,-92.9901 L -62.8139,-92.9901 L -63.4369,-92.9114 L -64.0451,-92.7553 L -64.6289,-92.5241 L -65.1791,-92.2216
 L -65.6871,-91.8526 L -66.1448,-91.4227 L -66.5451,-90.9389 L -66.8815,-90.4088 L -67.1489,-89.8406 L -67.3429,-89.2434
 L -67.4606,-88.6267 L -67.5,-88 L -67.5,-68 L -67.4606,-67.3733 L -67.3429,-66.7566 L -67.1489,-66.1594
 L -66.8815,-65.5912 L -66.5451,-65.0611 L -66.1448,-64.5773 L -65.6871,-64.1474 L -65.1791,-63.7784 L -64.6289,-63.4759
 L -64.0451,-63.2447 L -63.4369,-63.0886 L -62.8139,-63.0099 L 62.8139,-63.0099 z
M -62.3825,-66.1445 L -62.6453,-66.1777 L -62.9019,-66.2436 L -63.1482,-66.3412 L -63.3804,-66.4688 L -63.5947,-66.6245
 L -63.7879,-66.8059 L -63.9567,-67.01 L -64.0987,-67.2337 L -64.2115,-67.4734 L -64.2934,-67.7254 L -64.343,-67.9856
 L -64.3596,-68.25 L -64.3596,-87.75 L -64.343,-88.0144 L -64.2934,-88.2746 L -64.2115,-88.5266 L -64.0987,-88.7663
 L -63.9567,-88.99 L -63.7879,-89.1941 L -63.5947,-89.3755 L -63.3804,-89.5312 L -63.1482,-89.6588 L -62.9019,-89.7564
 L -62.6453,-89.8223 L -62.3825,-89.8555 L 62.3825,-89.8555 L 62.6453,-89.8223 L 62.9019,-89.7564 L 63.1482,-89.6588
 L 63.3804,-89.5312 L 63.5947,-89.3755 L 63.7879,-89.1941 L 63.9567,-88.99 L 64.0987,-88.7663 L 64.2115,-88.5266
 L 64.2934,-88.2746 L 64.343,-88.0144 L 64.3596,-87.75 L 64.3596,-68.25 L 64.343,-67.9856 L 64.2934,-67.7254
 L 64.2115,-67.4734 L 64.0987,-67.2337 L 63.9567,-67.01 L 63.7879,-66.8059 L 63.5947,-66.6245 L 63.3804,-66.4688
 L 63.1482,-66.3412 L 62.9019,-66.2436 L 62.6453,-66.1777 L 62.3825,-66.1445 z
" stroke="black" fill="lightgray" stroke-width="0.5"/>
</svg>
