  0
SECTION
  2
BLOCKS
  0
ENDSEC
  0
SECTION
  2
ENTITIES
  0
LINE
  8
0
 10
10.9369
 20
63.0886
 11
11.5451
 21
63.2447
  0
LINE
  8
0
 10
11.5451
 20
63.2447
 11
12.1289
 21
63.4759
  0
LINE
  8
0
 10
12.1289
 20
63.4759
 11
12.6791
 21
63.7784
  0
LINE
  8
0
 10
12.6791
 20
63.7784
 11
13.1871
 21
64.1474
  0
LINE
  8
0
 10
13.1871
 20
64.1474
 11
13.6448
 21
64.5773
  0
LINE
  8
0
 10
13.6448
 20
64.5773
 11
14.0451
 21
65.0611
  0
LINE
  8
0
 10
14.0451
 20
65.0611
 11
14.3815
 21
65.5912
  0
LINE
  8
0
 10
14.3815
 20
65.5912
 11
14.6489
 21
66.1594
  0
LINE
  8
0
 10
14.6489
 20
66.1594
 11
14.8429
 21
66.7566
  0
LINE
  8
0
 10
14.8429
 20
66.7566
 11
14.9606
 21
67.3733
  0
LINE
  8
0
 10
14.9606
 20
67.3733
 11
15
 21
68
  0
LINE
  8
0
 10
15
 20
68
 11
15
 21
88
  0
LINE
  8
0
 10
15
 20
88
 11
14.9606
 21
88.6267
  0
LINE
  8
0
 10
14.9606
 20
88.6267
 11
14.8429
 21
89.2434
  0
LINE
  8
0
 10
14.8429
 20
89.2434
 11
14.6489
 21
89.8406
  0
LINE
  8
0
 10
14.6489
 20
89.8406
 11
14.3815
 21
90.4088
  0
LINE
  8
0
 10
14.3815
 20
90.4088
 11
14.0451
 21
90.9389
  0
LINE
  8
0
 10
14.0451
 20
90.9389
 11
13.6448
 21
91.4227
  0
LINE
  8
0
 10
13.6448
 20
91.4227
 11
13.1871
 21
91.8526
  0
LINE
  8
0
 10
13.1871
 20
91.8526
 11
12.6791
 21
92.2216
  0
LINE
  8
0
 10
12.6791
 20
92.2216
 11
12.1289
 21
92.5241
  0
LINE
  8
0
 10
12.1289
 20
92.5241
 11
11.5451
 21
92.7553
  0
LINE
  8
0
 10
11.5451
 20
92.7553
 11
10.9369
 21
92.9114
  0
LINE
  8
0
 10
10.9369
 20
92.9114
 11
10.3139
 21
92.9901
  0
LINE
  8
0
 10
10.3139
 20
92.9901
 11
-10.3139
 21
92.9901
  0
LINE
  8
0
 10
-10.3139
 20
92.9901
 11
-10.9369
 21
92.9114
  0
LINE
  8
0
 10
-10.9369
 20
92.9114
 11
-11.5451
 21
92.7553
  0
LINE
  8
0
 10
-11.5451
 20
92.7553
 11
-12.1289
 21
92.5241
  0
LINE
  8
0
 10
-12.1289
 20
92.5241
 11
-12.6791
 21
92.2216
  0
LINE
  8
0
 10
-12.6791
 20
92.2216
 11
-13.1871
 21
91.8526
  0
LINE
  8
0
 10
-13.1871
 20
91.8526
 11
-13.6448
 21
91.4227
  0
LINE
  8
0
 10
-13.6448
 20
91.4227
 11
-14.0451
 21
90.9389
  0
LINE
  8
0
 10
-14.0451
 20
90.9389
 11
-14.3815
 21
90.4088
  0
LINE
  8
0
 10
-14.3815
 20
90.4088
 11
-14.6489
 21
89.8406
  0
LINE
  8
0
 10
-14.6489
 20
89.8406
 11
-14.8429
 21
89.2434
  0
LINE
  8
0
 10
-14.8429
 20
89.2434
 11
-14.9606
 21
88.6267
  0
LINE
  8
0
 10
-14.9606
 20
88.6267
 11
-15
 21
88
  0
LINE
  8
0
 10
-15
 20
88
 11
-15
 21
68
  0
LINE
  8
0
 10
-15
 20
68
 11
-14.9606
 21
67.3733
  0
LINE
  8
0
 10
-14.9606
 20
67.3733
 11
-14.8429
 21
66.7566
  0
LINE
  8
0
 10
-14.8429
 20
66.7566
 11
-14.6489
 21
66.1594
  0
LINE
  8
0
 10
-14.6489
 20
66.1594
 11
-14.3815
 21
65.5912
  0
LINE
  8
0
 10
-14.3815
 20
65.5912
 11
-14.0451
 21
65.0611
  0
LINE
  8
0
 10
-14.0451
 20
65.0611
 11
-13.6448
 21
64.5773
  0
LINE
  8
0
 10
-13.6448
 20
64.5773
 11
-13.1871
 21
64.1474
  0
LINE
  8
0
 10
-13.1871
 20
64.1474
 11
-12.6791
 21
63.7784
  0
LINE
  8
0
 10
-12.6791
 20
63.7784
 11
-12.1289
 21
63.4759
  0
LINE
  8
0
 10
-12.1289
 20
63.4759
 11
-11.5451
 21
63.2447
  0
LINE
  8
0
 10
-11.5451
 20
63.2447
 11
-10.9369
 21
63.0886
  0
LINE
  8
0
 10
-10.9369
 20
63.0886
 11
-10.3139
 21
63.0099
  0
LINE
  8
0
 10
-10.3139
 20
63.0099
 11
10.3139
 21
63.0099
  0
LINE
  8
0
 10
10.3139
 20
63.0099
 11
10.9369
 21
63.0886
  0
LINE
  8
0
 10
10.9369
 20
24.0886
 11
11.5451
 21
24.2447
  0
LINE
  8
0
 10
11.5451
 20
24.2447
 11
12.1289
 21
24.4759
  0
LINE
  8
0
 10
12.1289
 20
24.4759
 11
12.6791
 21
24.7784
  0
LINE
  8
0
 10
12.6791
 20
24.7784
 11
13.1871
 21
25.1474
  0
LINE
  8
0
 10
13.1871
 20
25.1474
 11
13.6448
 21
25.5773
  0
LINE
  8
0
 10
13.6448
 20
25.5773
 11
14.0451
 21
26.0611
  0
LINE
  8
0
 10
14.0451
 20
26.0611
 11
14.3815
 21
26.5912
  0
LINE
  8
0
 10
14.3815
 20
26.5912
 11
14.6489
 21
27.1594
  0
LINE
  8
0
 10
14.6489
 20
27.1594
 11
14.8429
 21
27.7566
  0
LINE
  8
0
 10
14.8429
 20
27.7566
 11
14.9606
 21
28.3733
  0
LINE
  8
0
 10
14.9606
 20
28.3733
 11
15
 21
29
  0
LINE
  8
0
 10
15
 20
29
 11
15
 21
49
  0
LINE
  8
0
 10
15
 20
49
 11
14.9606
 21
49.6267
  0
LINE
  8
0
 10
14.9606
 20
49.6267
 11
14.8429
 21
50.2434
  0
LINE
  8
0
 10
14.8429
 20
50.2434
 11
14.6489
 21
50.8406
  0
LINE
  8
0
 10
14.6489
 20
50.8406
 11
14.3815
 21
51.4088
  0
LINE
  8
0
 10
14.3815
 20
51.4088
 11
14.0451
 21
51.9389
  0
LINE
  8
0
 10
14.0451
 20
51.9389
 11
13.6448
 21
52.4227
  0
LINE
  8
0
 10
13.6448
 20
52.4227
 11
13.1871
 21
52.8526
  0
LINE
  8
0
 10
13.1871
 20
52.8526
 11
12.6791
 21
53.2216
  0
LINE
  8
0
 10
12.6791
 20
53.2216
 11
12.1289
 21
53.5241
  0
LINE
  8
0
 10
12.1289
 20
53.5241
 11
11.5451
 21
53.7553
  0
LINE
  8
0
 10
11.5451
 20
53.7553
 11
10.9369
 21
53.9114
  0
LINE
  8
0
 10
10.9369
 20
53.9114
 11
10.3139
 21
53.9901
  0
LINE
  8
0
 10
10.3139
 20
53.9901
 11
-10.3139
 21
53.9901
  0
LINE
  8
0
 10
-10.3139
 20
53.9901
 11
-10.9369
 21
53.9114
  0
LINE
  8
0
 10
-10.9369
 20
53.9114
 11
-11.5451
 21
53.7553
  0
LINE
  8
0
 10
-11.5451
 20
53.7553
 11
-12.1289
 21
53.5241
  0
LINE
  8
0
 10
-12.1289
 20
53.5241
 11
-12.6791
 21
53.2216
  0
LINE
  8
0
 10
-12.6791
 20
53.2216
 11
-13.1871
 21
52.8526
  0
LINE
  8
0
 10
-13.1871
 20
52.8526
 11
-13.6448
 21
52.4227
  0
LINE
  8
0
 10
-13.6448
 20
52.4227
 11
-14.0451
 21
51.9389
  0
LINE
  8
0
 10
-14.0451
 20
51.9389
 11
-14.3815
 21
51.4088
  0
LINE
  8
0
 10
-14.3815
 20
51.4088
 11
-14.6489
 21
50.8406
  0
LINE
  8
0
 10
-14.6489
 20
50.8406
 11
-14.8429
 21
50.2434
  0
LINE
  8
0
 10
-14.8429
 20
50.2434
 11
-14.9606
 21
49.6267
  0
LINE
  8
0
 10
-14.9606
 20
49.6267
 11
-15
 21
49
  0
LINE
  8
0
 10
-15
 20
49
 11
-15
 21
29
  0
LINE
  8
0
 10
-15
 20
29
 11
-14.9606
 21
28.3733
  0
LINE
  8
0
 10
-14.9606
 20
28.3733
 11
-14.8429
 21
27.7566
  0
LINE
  8
0
 10
-14.8429
 20
27.7566
 11
-14.6489
 21
27.1594
  0
LINE
  8
0
 10
-14.6489
 20
27.1594
 11
-14.3815
 21
26.5912
  0
LINE
  8
0
 10
-14.3815
 20
26.5912
 11
-14.0451
 21
26.0611
  0
LINE
  8
0
 10
-14.0451
 20
26.0611
 11
-13.6448
 21
25.5773
  0
LINE
  8
0
 10
-13.6448
 20
25.5773
 11
-13.1871
 21
25.1474
  0
LINE
  8
0
 10
-13.1871
 20
25.1474
 11
-12.6791
 21
24.7784
  0
LINE
  8
0
 10
-12.6791
 20
24.7784
 11
-12.1289
 21
24.4759
  0
LINE
  8
0
 10
-12.1289
 20
24.4759
 11
-11.5451
 21
24.2447
  0
LINE
  8
0
 10
-11.5451
 20
24.2447
 11
-10.9369
 21
24.0886
  0
LINE
  8
0
 10
-10.9369
 20
24.0886
 11
-10.3139
 21
24.0099
  0
LINE
  8
0
 10
-10.3139
 20
24.0099
 11
10.3139
 21
24.0099
  0
LINE
  8
0
 10
10.3139
 20
24.0099
 11
10.9369
 21
24.0886
  0
LINE
  8
0
 10
7.38696
 20
44.7036
 11
7.1627
 21
44.7319
  0
LINE
  8
0
 10
7.1627
 20
44.7319
 11
6.94376
 21
44.7881
  0
LINE
  8
0
 10
6.94376
 20
44.7881
 11
6.7336
 21
44.8713
  0
LINE
  8
0
 10
6.7336
 20
44.8713
 11
6.53551
 21
44.9802
  0
LINE
  8
0
 10
6.53551
 20
44.9802
 11
6.35263
 21
45.1131
  0
LINE
  8
0
 10
6.35263
 20
45.1131
 11
6.18785
 21
45.2678
  0
LINE
  8
0
 10
6.18785
 20
45.2678
 11
6.04376
 21
45.442
  0
LINE
  8
0
 10
6.04376
 20
45.442
 11
5.92264
 21
45.6328
  0
LINE
  8
0
 10
5.92264
 20
45.6328
 11
5.8264
 21
45.8374
  0
LINE
  8
0
 10
5.8264
 20
45.8374
 11
5.75655
 21
46.0524
  0
LINE
  8
0
 10
5.75655
 20
46.0524
 11
5.71419
 21
46.2744
  0
LINE
  8
0
 10
5.71419
 20
46.2744
 11
5.7
 21
46.5
  0
LINE
  8
0
 10
5.7
 20
46.5
 11
5.71419
 21
46.7256
  0
LINE
  8
0
 10
5.71419
 20
46.7256
 11
5.75655
 21
46.9476
  0
LINE
  8
0
 10
5.75655
 20
46.9476
 11
5.8264
 21
47.1626
  0
LINE
  8
0
 10
5.8264
 20
47.1626
 11
5.92264
 21
47.3671
  0
LINE
  8
0
 10
5.92264
 20
47.3671
 11
6.04376
 21
47.558
  0
LINE
  8
0
 10
6.04376
 20
47.558
 11
6.18785
 21
47.7322
  0
LINE
  8
0
 10
6.18785
 20
47.7322
 11
6.35263
 21
47.8869
  0
LINE
  8
0
 10
6.35263
 20
47.8869
 11
6.53551
 21
48.0198
  0
LINE
  8
0
 10
6.53551
 20
48.0198
 11
6.7336
 21
48.1287
  0
LINE
  8
0
 10
6.7336
 20
48.1287
 11
6.94376
 21
48.2119
  0
LINE
  8
0
 10
6.94376
 20
48.2119
 11
7.1627
 21
48.2681
  0
LINE
  8
0
 10
7.1627
 20
48.2681
 11
7.38696
 21
48.2964
  0
LINE
  8
0
 10
7.38696
 20
48.2964
 11
7.61302
 21
48.2964
  0
LINE
  8
0
 10
7.61302
 20
48.2964
 11
7.83728
 21
48.2681
  0
LINE
  8
0
 10
7.83728
 20
48.2681
 11
8.05623
 21
48.2119
  0
LINE
  8
0
 10
8.05623
 20
48.2119
 11
8.26639
 21
48.1287
  0
LINE
  8
0
 10
8.26639
 20
48.1287
 11
8.46448
 21
48.0198
  0
LINE
  8
0
 10
8.46448
 20
48.0198
 11
8.64735
 21
47.8869
  0
LINE
  8
0
 10
8.64735
 20
47.8869
 11
8.81213
 21
47.7322
  0
LINE
  8
0
 10
8.81213
 20
47.7322
 11
8.95622
 21
47.558
  0
LINE
  8
0
 10
8.95622
 20
47.558
 11
9.07735
 21
47.3671
  0
LINE
  8
0
 10
9.07735
 20
47.3671
 11
9.17358
 21
47.1626
  0
LINE
  8
0
 10
9.17358
 20
47.1626
 11
9.24344
 21
46.9476
  0
LINE
  8
0
 10
9.24344
 20
46.9476
 11
9.2858
 21
46.7256
  0
LINE
  8
0
 10
9.2858
 20
46.7256
 11
9.29999
 21
46.5
  0
LINE
  8
0
 10
9.29999
 20
46.5
 11
9.2858
 21
46.2744
  0
LINE
  8
0
 10
9.2858
 20
46.2744
 11
9.24344
 21
46.0524
  0
LINE
  8
0
 10
9.24344
 20
46.0524
 11
9.17358
 21
45.8374
  0
LINE
  8
0
 10
9.17358
 20
45.8374
 11
9.07735
 21
45.6328
  0
LINE
  8
0
 10
9.07735
 20
45.6328
 11
8.95622
 21
45.442
  0
LINE
  8
0
 10
8.95622
 20
45.442
 11
8.81213
 21
45.2678
  0
LINE
  8
0
 10
8.81213
 20
45.2678
 11
8.64735
 21
45.1131
  0
LINE
  8
0
 10
8.64735
 20
45.1131
 11
8.46448
 21
44.9802
  0
LINE
  8
0
 10
8.46448
 20
44.9802
 11
8.26639
 21
44.8713
  0
LINE
  8
0
 10
8.26639
 20
44.8713
 11
8.05623
 21
44.7881
  0
LINE
  8
0
 10
8.05623
 20
44.7881
 11
7.83728
 21
44.7319
  0
LINE
  8
0
 10
7.83728
 20
44.7319
 11
7.61302
 21
44.7036
  0
LINE
  8
0
 10
7.61302
 20
44.7036
 11
7.38696
 21
44.7036
  0
LINE
  8
0
 10
-7.61302
 20
44.7036
 11
-7.83728
 21
44.7319
  0
LINE
  8
0
 10
-7.83728
 20
44.7319
 11
-8.05623
 21
44.7881
  0
LINE
  8
0
 10
-8.05623
 20
44.7881
 11
-8.26639
 21
44.8713
  0
LINE
  8
0
 10
-8.26639
 20
44.8713
 11
-8.46448
 21
44.9802
  0
LINE
  8
0
 10
-8.46448
 20
44.9802
 11
-8.64735
 21
45.1131
  0
LINE
  8
0
 10
-8.64735
 20
45.1131
 11
-8.81213
 21
45.2678
  0
LINE
  8
0
 10
-8.81213
 20
45.2678
 11
-8.95622
 21
45.442
  0
LINE
  8
0
 10
-8.95622
 20
45.442
 11
-9.07735
 21
45.6328
  0
LINE
  8
0
 10
-9.07735
 20
45.6328
 11
-9.17358
 21
45.8374
  0
LINE
  8
0
 10
-9.17358
 20
45.8374
 11
-9.24344
 21
46.0524
  0
LINE
  8
0
 10
-9.24344
 20
46.0524
 11
-9.2858
 21
46.2744
  0
LINE
  8
0
 10
-9.2858
 20
46.2744
 11
-9.29999
 21
46.5
  0
LINE
  8
0
 10
-9.29999
 20
46.5
 11
-9.2858
 21
46.7256
  0
LINE
  8
0
 10
-9.2858
 20
46.7256
 11
-9.24344
 21
46.9476
  0
LINE
  8
0
 10
-9.24344
 20
46.9476
 11
-9.17358
 21
47.1626
  0
LINE
  8
0
 10
-9.17358
 20
47.1626
 11
-9.07735
 21
47.3671
  0
LINE
  8
0
 10
-9.07735
 20
47.3671
 11
-8.95622
 21
47.558
  0
LINE
  8
0
 10
-8.95622
 20
47.558
 11
-8.81213
 21
47.7322
  0
LINE
  8
0
 10
-8.81213
 20
47.7322
 11
-8.64735
 21
47.8869
  0
LINE
  8
0
 10
-8.64735
 20
47.8869
 11
-8.46448
 21
48.0198
  0
LINE
  8
0
 10
-8.46448
 20
48.0198
 11
-8.26639
 21
48.1287
  0
LINE
  8
0
 10
-8.26639
 20
48.1287
 11
-8.05623
 21
48.2119
  0
LINE
  8
0
 10
-8.05623
 20
48.2119
 11
-7.83728
 21
48.2681
  0
LINE
  8
0
 10
-7.83728
 20
48.2681
 11
-7.61302
 21
48.2964
  0
LINE
  8
0
 10
-7.61302
 20
48.2964
 11
-7.38696
 21
48.2964
  0
LINE
  8
0
 10
-7.38696
 20
48.2964
 11
-7.1627
 21
48.2681
  0
LINE
  8
0
 10
-7.1627
 20
48.2681
 11
-6.94376
 21
48.2119
  0
LINE
  8
0
 10
-6.94376
 20
48.2119
 11
-6.7336
 21
48.1287
  0
LINE
  8
0
 10
-6.7336
 20
48.1287
 11
-6.53551
 21
48.0198
  0
LINE
  8
0
 10
-6.53551
 20
48.0198
 11
-6.35263
 21
47.8869
  0
LINE
  8
0
 10
-6.35263
 20
47.8869
 11
-6.18785
 21
47.7322
  0
LINE
  8
0
 10
-6.18785
 20
47.7322
 11
-6.04376
 21
47.558
  0
LINE
  8
0
 10
-6.04376
 20
47.558
 11
-5.92264
 21
47.3671
  0
LINE
  8
0
 10
-5.92264
 20
47.3671
 11
-5.8264
 21
47.1626
  0
LINE
  8
0
 10
-5.8264
 20
47.1626
 11
-5.75655
 21
46.9476
  0
LINE
  8
0
 10
-5.75655
 20
46.9476
 11
-5.71419
 21
46.7256
  0
LINE
  8
0
 10
-5.71419
 20
46.7256
 11
-5.7
 21
46.5
  0
LINE
  8
0
 10
-5.7
 20
46.5
 11
-5.71419
 21
46.2744
  0
LINE
  8
0
 10
-5.71419
 20
46.2744
 11
-5.75655
 21
46.0524
  0
LINE
  8
0
 10
-5.75655
 20
46.0524
 11
-5.8264
 21
45.8374
  0
LINE
  8
0
 10
-5.8264
 20
45.8374
 11
-5.92264
 21
45.6328
  0
LINE
  8
0
 10
-5.92264
 20
45.6328
 11
-6.04376
 21
45.442
  0
LINE
  8
0
 10
-6.04376
 20
45.442
 11
-6.18785
 21
45.2678
  0
LINE
  8
0
 10
-6.18785
 20
45.2678
 11
-6.35263
 21
45.1131
  0
LINE
  8
0
 10
-6.35263
 20
45.1131
 11
-6.53551
 21
44.9802
  0
LINE
  8
0
 10
-6.53551
 20
44.9802
 11
-6.7336
 21
44.8713
  0
LINE
  8
0
 10
-6.7336
 20
44.8713
 11
-6.94376
 21
44.7881
  0
LINE
  8
0
 10
-6.94376
 20
44.7881
 11
-7.1627
 21
44.7319
  0
LINE
  8
0
 10
-7.1627
 20
44.7319
 11
-7.38696
 21
44.7036
  0
LINE
  8
0
 10
-7.38696
 20
44.7036
 11
-7.61302
 21
44.7036
  0
LINE
  8
0
 10
7.38696
 20
29.7036
 11
7.1627
 21
29.7319
  0
LINE
  8
0
 10
7.1627
 20
29.7319
 11
6.94376
 21
29.7881
  0
LINE
  8
0
 10
6.94376
 20
29.7881
 11
6.7336
 21
29.8713
  0
LINE
  8
0
 10
6.7336
 20
29.8713
 11
6.53551
 21
29.9802
  0
LINE
  8
0
 10
6.53551
 20
29.9802
 11
6.35263
 21
30.1131
  0
LINE
  8
0
 10
6.35263
 20
30.1131
 11
6.18785
 21
30.2678
  0
LINE
  8
0
 10
6.18785
 20
30.2678
 11
6.04376
 21
30.442
  0
LINE
  8
0
 10
6.04376
 20
30.442
 11
5.92264
 21
30.6329
  0
LINE
  8
0
 10
5.92264
 20
30.6329
 11
5.8264
 21
30.8374
  0
LINE
  8
0
 10
5.8264
 20
30.8374
 11
5.75655
 21
31.0524
  0
LINE
  8
0
 10
5.75655
 20
31.0524
 11
5.71419
 21
31.2744
  0
LINE
  8
0
 10
5.71419
 20
31.2744
 11
5.7
 21
31.5
  0
LINE
  8
0
 10
5.7
 20
31.5
 11
5.71419
 21
31.7256
  0
LINE
  8
0
 10
5.71419
 20
31.7256
 11
5.75655
 21
31.9476
  0
LINE
  8
0
 10
5.75655
 20
31.9476
 11
5.8264
 21
32.1626
  0
LINE
  8
0
 10
5.8264
 20
32.1626
 11
5.92264
 21
32.3672
  0
LINE
  8
0
 10
5.92264
 20
32.3672
 11
6.04376
 21
32.558
  0
LINE
  8
0
 10
6.04376
 20
32.558
 11
6.18785
 21
32.7322
  0
LINE
  8
0
 10
6.18785
 20
32.7322
 11
6.35263
 21
32.8869
  0
LINE
  8
0
 10
6.35263
 20
32.8869
 11
6.53551
 21
33.0198
  0
LINE
  8
0
 10
6.53551
 20
33.0198
 11
6.7336
 21
33.1287
  0
LINE
  8
0
 10
6.7336
 20
33.1287
 11
6.94376
 21
33.2119
  0
LINE
  8
0
 10
6.94376
 20
33.2119
 11
7.1627
 21
33.2681
  0
LINE
  8
0
 10
7.1627
 20
33.2681
 11
7.38696
 21
33.2964
  0
LINE
  8
0
 10
7.38696
 20
33.2964
 11
7.61302
 21
33.2964
  0
LINE
  8
0
 10
7.61302
 20
33.2964
 11
7.83728
 21
33.2681
  0
LINE
  8
0
 10
7.83728
 20
33.2681
 11
8.05623
 21
33.2119
  0
LINE
  8
0
 10
8.05623
 20
33.2119
 11
8.26639
 21
33.1287
  0
LINE
  8
0
 10
8.26639
 20
33.1287
 11
8.46448
 21
33.0198
  0
LINE
  8
0
 10
8.46448
 20
33.0198
 11
8.64735
 21
32.8869
  0
LINE
  8
0
 10
8.64735
 20
32.8869
 11
8.81213
 21
32.7322
  0
LINE
  8
0
 10
8.81213
 20
32.7322
 11
8.95622
 21
32.558
  0
LINE
  8
0
 10
8.95622
 20
32.558
 11
9.07735
 21
32.3672
  0
LINE
  8
0
 10
9.07735
 20
32.3672
 11
9.17358
 21
32.1626
  0
LINE
  8
0
 10
9.17358
 20
32.1626
 11
9.24344
 21
31.9476
  0
LINE
  8
0
 10
9.24344
 20
31.9476
 11
9.2858
 21
31.7256
  0
LINE
  8
0
 10
9.2858
 20
31.7256
 11
9.29999
 21
31.5
  0
LINE
  8
0
 10
9.29999
 20
31.5
 11
9.2858
 21
31.2744
  0
LINE
  8
0
 10
9.2858
 20
31.2744
 11
9.24344
 21
31.0524
  0
LINE
  8
0
 10
9.24344
 20
31.0524
 11
9.17358
 21
30.8374
  0
LINE
  8
0
 10
9.17358
 20
30.8374
 11
9.07735
 21
30.6329
  0
LINE
  8
0
 10
9.07735
 20
30.6329
 11
8.95622
 21
30.442
  0
LINE
  8
0
 10
8.95622
 20
30.442
 11
8.81213
 21
30.2678
  0
LINE
  8
0
 10
8.81213
 20
30.2678
 11
8.64735
 21
30.1131
  0
LINE
  8
0
 10
8.64735
 20
30.1131
 11
8.46448
 21
29.9802
  0
LINE
  8
0
 10
8.46448
 20
29.9802
 11
8.26639
 21
29.8713
  0
LINE
  8
0
 10
8.26639
 20
29.8713
 11
8.05623
 21
29.7881
  0
LINE
  8
0
 10
8.05623
 20
29.7881
 11
7.83728
 21
29.7319
  0
LINE
  8
0
 10
7.83728
 20
29.7319
 11
7.61302
 21
29.7036
  0
LINE
  8
0
 10
7.61302
 20
29.7036
 11
7.38696
 21
29.7036
  0
LINE
  8
0
 10
-7.61302
 20
29.7036
 11
-7.83728
 21
29.7319
  0
LINE
  8
0
 10
-7.83728
 20
29.7319
 11
-8.05623
 21
29.7881
  0
LINE
  8
0
 10
-8.05623
 20
29.7881
 11
-8.26639
 21
29.8713
  0
LINE
  8
0
 10
-8.26639
 20
29.8713
 11
-8.46448
 21
29.9802
  0
LINE
  8
0
 10
-8.46448
 20
29.9802
 11
-8.64735
 21
30.1131
  0
LINE
  8
0
 10
-8.64735
 20
30.1131
 11
-8.81213
 21
30.2678
  0
LINE
  8
0
 10
-8.81213
 20
30.2678
 11
-8.95622
 21
30.442
  0
LINE
  8
0
 10
-8.95622
 20
30.442
 11
-9.07735
 21
30.6329
  0
LINE
  8
0
 10
-9.07735
 20
30.6329
 11
-9.17358
 21
30.8374
  0
LINE
  8
0
 10
-9.17358
 20
30.8374
 11
-9.24344
 21
31.0524
  0
LINE
  8
0
 10
-9.24344
 20
31.0524
 11
-9.2858
 21
31.2744
  0
LINE
  8
0
 10
-9.2858
 20
31.2744
 11
-9.29999
 21
31.5
  0
LINE
  8
0
 10
-9.29999
 20
31.5
 11
-9.2858
 21
31.7256
  0
LINE
  8
0
 10
-9.2858
 20
31.7256
 11
-9.24344
 21
31.9476
  0
LINE
  8
0
 10
-9.24344
 20
31.9476
 11
-9.17358
 21
32.1626
  0
LINE
  8
0
 10
-9.17358
 20
32.1626
 11
-9.07735
 21
32.3672
  0
LINE
  8
0
 10
-9.07735
 20
32.3672
 11
-8.95622
 21
32.558
  0
LINE
  8
0
 10
-8.95622
 20
32.558
 11
-8.81213
 21
32.7322
  0
LINE
  8
0
 10
-8.81213
 20
32.7322
 11
-8.64735
 21
32.8869
  0
LINE
  8
0
 10
-8.64735
 20
32.8869
 11
-8.46448
 21
33.0198
  0
LINE
  8
0
 10
-8.46448
 20
33.0198
 11
-8.26639
 21
33.1287
  0
LINE
  8
0
 10
-8.26639
 20
33.1287
 11
-8.05623
 21
33.2119
  0
LINE
  8
0
 10
-8.05623
 20
33.2119
 11
-7.83728
 21
33.2681
  0
LINE
  8
0
 10
-7.83728
 20
33.2681
 11
-7.61302
 21
33.2964
  0
LINE
  8
0
 10
-7.61302
 20
33.2964
 11
-7.38696
 21
33.2964
  0
LINE
  8
0
 10
-7.38696
 20
33.2964
 11
-7.1627
 21
33.2681
  0
LINE
  8
0
 10
-7.1627
 20
33.2681
 11
-6.94376
 21
33.2119
  0
LINE
  8
0
 10
-6.94376
 20
33.2119
 11
-6.7336
 21
33.1287
  0
LINE
  8
0
 10
-6.7336
 20
33.1287
 11
-6.53551
 21
33.0198
  0
LINE
  8
0
 10
-6.53551
 20
33.0198
 11
-6.35263
 21
32.8869
  0
LINE
  8
0
 10
-6.35263
 20
32.8869
 11
-6.18785
 21
32.7322
  0
LINE
  8
0
 10
-6.18785
 20
32.7322
 11
-6.04376
 21
32.558
  0
LINE
  8
0
 10
-6.04376
 20
32.558
 11
-5.92264
 21
32.3672
  0
LINE
  8
0
 10
-5.92264
 20
32.3672
 11
-5.8264
 21
32.1626
  0
LINE
  8
0
 10
-5.8264
 20
32.1626
 11
-5.75655
 21
31.9476
  0
LINE
  8
0
 10
-5.75655
 20
31.9476
 11
-5.71419
 21
31.7256
  0
LINE
  8
0
 10
-5.71419
 20
31.7256
 11
-5.7
 21
31.5
  0
LINE
  8
0
 10
-5.7
 20
31.5
 11
-5.71419
 21
31.2744
  0
LINE
  8
0
 10
-5.71419
 20
31.2744
 11
-5.75655
 21
31.0524
  0
LINE
  8
0
 10
-5.75655
 20
31.0524
 11
-5.8264
 21
30.8374
  0
LINE
  8
0
 10
-5.8264
 20
30.8374
 11
-5.92264
 21
30.6329
  0
LINE
  8
0
 10
-5.92264
 20
30.6329
 11
-6.04376
 21
30.442
  0
LINE
  8
0
 10
-6.04376
 20
30.442
 11
-6.18785
 21
30.2678
  0
LINE
  8
0
 10
-6.18785
 20
30.2678
 11
-6.35263
 21
30.1131
  0
LINE
  8
0
 10
-6.35263
 20
30.1131
 11
-6.53551
 21
29.9802
  0
LINE
  8
0
 10
-6.53551
 20
29.9802
 11
-6.7336
 21
29.8713
  0
LINE
  8
0
 10
-6.7336
 20
29.8713
 11
-6.94376
 21
29.7881
  0
LINE
  8
0
 10
-6.94376
 20
29.7881
 11
-7.1627
 21
29.7319
  0
LINE
  8
0
 10
-7.1627
 20
29.7319
 11
-7.38696
 21
29.7036
  0
LINE
  8
0
 10
-7.38696
 20
29.7036
 11
-7.61302
 21
29.7036
  0
ENDSEC
  0
SECTION
  2
OBJECTS
  0
DICTIONARY
  0
ENDSEC
  0
EOF
