  0
SECTION
  2
BLOCKS
  0
ENDSEC
  0
SECTION
  2
ENTITIES
  0
LINE
  8
0
 10
3.4369
 20
108.089
 11
4.04507
 21
108.245
  0
LINE
  8
0
 10
4.04507
 20
108.245
 11
4.62889
 21
108.476
  0
LINE
  8
0
 10
4.62889
 20
108.476
 11
5.17912
 21
108.778
  0
LINE
  8
0
 10
5.17912
 20
108.778
 11
5.68712
 21
109.147
  0
LINE
  8
0
 10
5.68712
 20
109.147
 11
6.14484
 21
109.577
  0
LINE
  8
0
 10
6.14484
 20
109.577
 11
6.54507
 21
110.061
  0
LINE
  8
0
 10
6.54507
 20
110.061
 11
6.88153
 21
110.591
  0
LINE
  8
0
 10
6.88153
 20
110.591
 11
7.14888
 21
111.159
  0
LINE
  8
0
 10
7.14888
 20
111.159
 11
7.34291
 21
111.757
  0
LINE
  8
0
 10
7.34291
 20
111.757
 11
7.46057
 21
112.373
  0
LINE
  8
0
 10
7.46057
 20
112.373
 11
7.5
 21
113
  0
LINE
  8
0
 10
7.5
 20
113
 11
7.5
 21
163
  0
LINE
  8
0
 10
7.5
 20
163
 11
7.46057
 21
163.627
  0
LINE
  8
0
 10
7.46057
 20
163.627
 11
7.34291
 21
164.243
  0
LINE
  8
0
 10
7.34291
 20
164.243
 11
7.14888
 21
164.841
  0
LINE
  8
0
 10
7.14888
 20
164.841
 11
6.88153
 21
165.409
  0
LINE
  8
0
 10
6.88153
 20
165.409
 11
6.54507
 21
165.939
  0
LINE
  8
0
 10
6.54507
 20
165.939
 11
6.14484
 21
166.423
  0
LINE
  8
0
 10
6.14484
 20
166.423
 11
5.68712
 21
166.853
  0
LINE
  8
0
 10
5.68712
 20
166.853
 11
5.17912
 21
167.222
  0
LINE
  8
0
 10
5.17912
 20
167.222
 11
4.62889
 21
167.524
  0
LINE
  8
0
 10
4.62889
 20
167.524
 11
4.04507
 21
167.755
  0
LINE
  8
0
 10
4.04507
 20
167.755
 11
3.4369
 21
167.911
  0
LINE
  8
0
 10
3.4369
 20
167.911
 11
2.81395
 21
167.99
  0
LINE
  8
0
 10
2.81395
 20
167.99
 11
-2.81395
 21
167.99
  0
LINE
  8
0
 10
-2.81395
 20
167.99
 11
-3.4369
 21
167.911
  0
LINE
  8
0
 10
-3.4369
 20
167.911
 11
-4.04507
 21
167.755
  0
LINE
  8
0
 10
-4.04507
 20
167.755
 11
-4.62889
 21
167.524
  0
LINE
  8
0
 10
-4.62889
 20
167.524
 11
-5.17912
 21
167.222
  0
LINE
  8
0
 10
-5.17912
 20
167.222
 11
-5.68712
 21
166.853
  0
LINE
  8
0
 10
-5.68712
 20
166.853
 11
-6.14484
 21
166.423
  0
LINE
  8
0
 10
-6.14484
 20
166.423
 11
-6.54507
 21
165.939
  0
LINE
  8
0
 10
-6.54507
 20
165.939
 11
-6.88153
 21
165.409
  0
LINE
  8
0
 10
-6.88153
 20
165.409
 11
-7.14888
 21
164.841
  0
LINE
  8
0
 10
-7.14888
 20
164.841
 11
-7.34291
 21
164.243
  0
LINE
  8
0
 10
-7.34291
 20
164.243
 11
-7.46057
 21
163.627
  0
LINE
  8
0
 10
-7.46057
 20
163.627
 11
-7.5
 21
163
  0
LINE
  8
0
 10
-7.5
 20
163
 11
-7.5
 21
113
  0
LINE
  8
0
 10
-7.5
 20
113
 11
-7.46057
 21
112.373
  0
LINE
  8
0
 10
-7.46057
 20
112.373
 11
-7.34291
 21
111.757
  0
LINE
  8
0
 10
-7.34291
 20
111.757
 11
-7.14888
 21
111.159
  0
LINE
  8
0
 10
-7.14888
 20
111.159
 11
-6.88153
 21
110.591
  0
LINE
  8
0
 10
-6.88153
 20
110.591
 11
-6.54507
 21
110.061
  0
LINE
  8
0
 10
-6.54507
 20
110.061
 11
-6.14484
 21
109.577
  0
LINE
  8
0
 10
-6.14484
 20
109.577
 11
-5.68712
 21
109.147
  0
LINE
  8
0
 10
-5.68712
 20
109.147
 11
-5.17912
 21
108.778
  0
LINE
  8
0
 10
-5.17912
 20
108.778
 11
-4.62889
 21
108.476
  0
LINE
  8
0
 10
-4.62889
 20
108.476
 11
-4.04507
 21
108.245
  0
LINE
  8
0
 10
-4.04507
 20
108.245
 11
-3.4369
 21
108.089
  0
LINE
  8
0
 10
-3.4369
 20
108.089
 11
-2.81395
 21
108.01
  0
LINE
  8
0
 10
-2.81395
 20
108.01
 11
2.81395
 21
108.01
  0
LINE
  8
0
 10
2.81395
 20
108.01
 11
3.4369
 21
108.089
  0
LINE
  8
0
 10
3.4369
 20
39.0886
 11
4.04507
 21
39.2447
  0
LINE
  8
0
 10
4.04507
 20
39.2447
 11
4.62889
 21
39.4759
  0
LINE
  8
0
 10
4.62889
 20
39.4759
 11
5.17912
 21
39.7784
  0
LINE
  8
0
 10
5.17912
 20
39.7784
 11
5.68712
 21
40.1474
  0
LINE
  8
0
 10
5.68712
 20
40.1474
 11
6.14484
 21
40.5773
  0
LINE
  8
0
 10
6.14484
 20
40.5773
 11
6.54507
 21
41.0611
  0
LINE
  8
0
 10
6.54507
 20
41.0611
 11
6.88153
 21
41.5912
  0
LINE
  8
0
 10
6.88153
 20
41.5912
 11
7.14888
 21
42.1594
  0
LINE
  8
0
 10
7.14888
 20
42.1594
 11
7.34291
 21
42.7566
  0
LINE
  8
0
 10
7.34291
 20
42.7566
 11
7.46057
 21
43.3733
  0
LINE
  8
0
 10
7.46057
 20
43.3733
 11
7.5
 21
44
  0
LINE
  8
0
 10
7.5
 20
44
 11
7.5
 21
94
  0
LINE
  8
0
 10
7.5
 20
94
 11
7.46057
 21
94.6267
  0
LINE
  8
0
 10
7.46057
 20
94.6267
 11
7.34291
 21
95.2434
  0
LINE
  8
0
 10
7.34291
 20
95.2434
 11
7.14888
 21
95.8406
  0
LINE
  8
0
 10
7.14888
 20
95.8406
 11
6.88153
 21
96.4088
  0
LINE
  8
0
 10
6.88153
 20
96.4088
 11
6.54507
 21
96.9389
  0
LINE
  8
0
 10
6.54507
 20
96.9389
 11
6.14484
 21
97.4227
  0
LINE
  8
0
 10
6.14484
 20
97.4227
 11
5.68712
 21
97.8526
  0
LINE
  8
0
 10
5.68712
 20
97.8526
 11
5.17912
 21
98.2216
  0
LINE
  8
0
 10
5.17912
 20
98.2216
 11
4.62889
 21
98.5241
  0
LINE
  8
0
 10
4.62889
 20
98.5241
 11
4.04507
 21
98.7553
  0
LINE
  8
0
 10
4.04507
 20
98.7553
 11
3.4369
 21
98.9114
  0
LINE
  8
0
 10
3.4369
 20
98.9114
 11
2.81395
 21
98.9901
  0
LINE
  8
0
 10
2.81395
 20
98.9901
 11
-2.81395
 21
98.9901
  0
LINE
  8
0
 10
-2.81395
 20
98.9901
 11
-3.4369
 21
98.9114
  0
LINE
  8
0
 10
-3.4369
 20
98.9114
 11
-4.04507
 21
98.7553
  0
LINE
  8
0
 10
-4.04507
 20
98.7553
 11
-4.62889
 21
98.5241
  0
LINE
  8
0
 10
-4.62889
 20
98.5241
 11
-5.17912
 21
98.2216
  0
LINE
  8
0
 10
-5.17912
 20
98.2216
 11
-5.68712
 21
97.8526
  0
LINE
  8
0
 10
-5.68712
 20
97.8526
 11
-6.14484
 21
97.4227
  0
LINE
  8
0
 10
-6.14484
 20
97.4227
 11
-6.54507
 21
96.9389
  0
LINE
  8
0
 10
-6.54507
 20
96.9389
 11
-6.88153
 21
96.4088
  0
LINE
  8
0
 10
-6.88153
 20
96.4088
 11
-7.14888
 21
95.8406
  0
LINE
  8
0
 10
-7.14888
 20
95.8406
 11
-7.34291
 21
95.2434
  0
LINE
  8
0
 10
-7.34291
 20
95.2434
 11
-7.46057
 21
94.6267
  0
LINE
  8
0
 10
-7.46057
 20
94.6267
 11
-7.5
 21
94
  0
LINE
  8
0
 10
-7.5
 20
94
 11
-7.5
 21
44
  0
LINE
  8
0
 10
-7.5
 20
44
 11
-7.46057
 21
43.3733
  0
LINE
  8
0
 10
-7.46057
 20
43.3733
 11
-7.34291
 21
42.7566
  0
LINE
  8
0
 10
-7.34291
 20
42.7566
 11
-7.14888
 21
42.1594
  0
LINE
  8
0
 10
-7.14888
 20
42.1594
 11
-6.88153
 21
41.5912
  0
LINE
  8
0
 10
-6.88153
 20
41.5912
 11
-6.54507
 21
41.0611
  0
LINE
  8
0
 10
-6.54507
 20
41.0611
 11
-6.14484
 21
40.5773
  0
LINE
  8
0
 10
-6.14484
 20
40.5773
 11
-5.68712
 21
40.1474
  0
LINE
  8
0
 10
-5.68712
 20
40.1474
 11
-5.17912
 21
39.7784
  0
LINE
  8
0
 10
-5.17912
 20
39.7784
 11
-4.62889
 21
39.4759
  0
LINE
  8
0
 10
-4.62889
 20
39.4759
 11
-4.04507
 21
39.2447
  0
LINE
  8
0
 10
-4.04507
 20
39.2447
 11
-3.4369
 21
39.0886
  0
LINE
  8
0
 10
-3.4369
 20
39.0886
 11
-2.81395
 21
39.0099
  0
LINE
  8
0
 10
-2.81395
 20
39.0099
 11
2.81395
 21
39.0099
  0
LINE
  8
0
 10
2.81395
 20
39.0099
 11
3.4369
 21
39.0886
  0
LINE
  8
0
 10
-0.113022
 20
89.7036
 11
-0.33728
 21
89.7319
  0
LINE
  8
0
 10
-0.33728
 20
89.7319
 11
-0.556229
 21
89.7881
  0
LINE
  8
0
 10
-0.556229
 20
89.7881
 11
-0.766388
 21
89.8713
  0
LINE
  8
0
 10
-0.766388
 20
89.8713
 11
-0.964478
 21
89.9802
  0
LINE
  8
0
 10
-0.964478
 20
89.9802
 11
-1.14735
 21
90.1131
  0
LINE
  8
0
 10
-1.14735
 20
90.1131
 11
-1.31213
 21
90.2678
  0
LINE
  8
0
 10
-1.31213
 20
90.2678
 11
-1.45622
 21
90.442
  0
LINE
  8
0
 10
-1.45622
 20
90.442
 11
-1.57735
 21
90.6328
  0
LINE
  8
0
 10
-1.57735
 20
90.6328
 11
-1.67358
 21
90.8374
  0
LINE
  8
0
 10
-1.67358
 20
90.8374
 11
-1.74344
 21
91.0524
  0
LINE
  8
0
 10
-1.74344
 20
91.0524
 11
-1.7858
 21
91.2744
  0
LINE
  8
0
 10
-1.7858
 20
91.2744
 11
-1.79999
 21
91.5
  0
LINE
  8
0
 10
-1.79999
 20
91.5
 11
-1.7858
 21
91.7256
  0
LINE
  8
0
 10
-1.7858
 20
91.7256
 11
-1.74344
 21
91.9476
  0
LINE
  8
0
 10
-1.74344
 20
91.9476
 11
-1.67358
 21
92.1626
  0
LINE
  8
0
 10
-1.67358
 20
92.1626
 11
-1.57735
 21
92.3672
  0
LINE
  8
0
 10
-1.57735
 20
92.3672
 11
-1.45622
 21
92.558
  0
LINE
  8
0
 10
-1.45622
 20
92.558
 11
-1.31213
 21
92.7322
  0
LINE
  8
0
 10
-1.31213
 20
92.7322
 11
-1.14735
 21
92.8869
  0
LINE
  8
0
 10
-1.14735
 20
92.8869
 11
-0.964478
 21
93.0198
  0
LINE
  8
0
 10
-0.964478
 20
93.0198
 11
-0.766388
 21
93.1287
  0
LINE
  8
0
 10
-0.766388
 20
93.1287
 11
-0.556229
 21
93.2119
  0
LINE
  8
0
 10
-0.556229
 20
93.2119
 11
-0.33728
 21
93.2681
  0
LINE
  8
0
 10
-0.33728
 20
93.2681
 11
-0.113022
 21
93.2964
  0
LINE
  8
0
 10
-0.113022
 20
93.2964
 11
0.113022
 21
93.2964
  0
LINE
  8
0
 10
0.113022
 20
93.2964
 11
0.33728
 21
93.2681
  0
LINE
  8
0
 10
0.33728
 20
93.2681
 11
0.556229
 21
93.2119
  0
LINE
  8
0
 10
0.556229
 20
93.2119
 11
0.766388
 21
93.1287
  0
LINE
  8
0
 10
0.766388
 20
93.1287
 11
0.964478
 21
93.0198
  0
LINE
  8
0
 10
0.964478
 20
93.0198
 11
1.14735
 21
92.8869
  0
LINE
  8
0
 10
1.14735
 20
92.8869
 11
1.31213
 21
92.7322
  0
LINE
  8
0
 10
1.31213
 20
92.7322
 11
1.45622
 21
92.558
  0
LINE
  8
0
 10
1.45622
 20
92.558
 11
1.57735
 21
92.3672
  0
LINE
  8
0
 10
1.57735
 20
92.3672
 11
1.67358
 21
92.1626
  0
LINE
  8
0
 10
1.67358
 20
92.1626
 11
1.74344
 21
91.9476
  0
LINE
  8
0
 10
1.74344
 20
91.9476
 11
1.7858
 21
91.7256
  0
LINE
  8
0
 10
1.7858
 20
91.7256
 11
1.79999
 21
91.5
  0
LINE
  8
0
 10
1.79999
 20
91.5
 11
1.7858
 21
91.2744
  0
LINE
  8
0
 10
1.7858
 20
91.2744
 11
1.74344
 21
91.0524
  0
LINE
  8
0
 10
1.74344
 20
91.0524
 11
1.67358
 21
90.8374
  0
LINE
  8
0
 10
1.67358
 20
90.8374
 11
1.57735
 21
90.6328
  0
LINE
  8
0
 10
1.57735
 20
90.6328
 11
1.45622
 21
90.442
  0
LINE
  8
0
 10
1.45622
 20
90.442
 11
1.31213
 21
90.2678
  0
LINE
  8
0
 10
1.31213
 20
90.2678
 11
1.14735
 21
90.1131
  0
LINE
  8
0
 10
1.14735
 20
90.1131
 11
0.964478
 21
89.9802
  0
LINE
  8
0
 10
0.964478
 20
89.9802
 11
0.766388
 21
89.8713
  0
LINE
  8
0
 10
0.766388
 20
89.8713
 11
0.556229
 21
89.7881
  0
LINE
  8
0
 10
0.556229
 20
89.7881
 11
0.33728
 21
89.7319
  0
LINE
  8
0
 10
0.33728
 20
89.7319
 11
0.113022
 21
89.7036
  0
LINE
  8
0
 10
0.113022
 20
89.7036
 11
-0.113022
 21
89.7036
  0
LINE
  8
0
 10
-0.113022
 20
44.7036
 11
-0.33728
 21
44.7319
  0
LINE
  8
0
 10
-0.33728
 20
44.7319
 11
-0.556229
 21
44.7881
  0
LINE
  8
0
 10
-0.556229
 20
44.7881
 11
-0.766388
 21
44.8713
  0
LINE
  8
0
 10
-0.766388
 20
44.8713
 11
-0.964478
 21
44.9802
  0
LINE
  8
0
 10
-0.964478
 20
44.9802
 11
-1.14735
 21
45.1131
  0
LINE
  8
0
 10
-1.14735
 20
45.1131
 11
-1.31213
 21
45.2678
  0
LINE
  8
0
 10
-1.31213
 20
45.2678
 11
-1.45622
 21
45.442
  0
LINE
  8
0
 10
-1.45622
 20
45.442
 11
-1.57735
 21
45.6328
  0
LINE
  8
0
 10
-1.57735
 20
45.6328
 11
-1.67358
 21
45.8374
  0
LINE
  8
0
 10
-1.67358
 20
45.8374
 11
-1.74344
 21
46.0524
  0
LINE
  8
0
 10
-1.74344
 20
46.0524
 11
-1.7858
 21
46.2744
  0
LINE
  8
0
 10
-1.7858
 20
46.2744
 11
-1.79999
 21
46.5
  0
LINE
  8
0
 10
-1.79999
 20
46.5
 11
-1.7858
 21
46.7256
  0
LINE
  8
0
 10
-1.7858
 20
46.7256
 11
-1.74344
 21
46.9476
  0
LINE
  8
0
 10
-1.74344
 20
46.9476
 11
-1.67358
 21
47.1626
  0
LINE
  8
0
 10
-1.67358
 20
47.1626
 11
-1.57735
 21
47.3672
  0
LINE
  8
0
 10
-1.57735
 20
47.3672
 11
-1.45622
 21
47.558
  0
LINE
  8
0
 10
-1.45622
 20
47.558
 11
-1.31213
 21
47.7322
  0
LINE
  8
0
 10
-1.31213
 20
47.7322
 11
-1.14735
 21
47.8869
  0
LINE
  8
0
 10
-1.14735
 20
47.8869
 11
-0.964478
 21
48.0198
  0
LINE
  8
0
 10
-0.964478
 20
48.0198
 11
-0.766388
 21
48.1287
  0
LINE
  8
0
 10
-0.766388
 20
48.1287
 11
-0.556229
 21
48.2119
  0
LINE
  8
0
 10
-0.556229
 20
48.2119
 11
-0.33728
 21
48.2681
  0
LINE
  8
0
 10
-0.33728
 20
48.2681
 11
-0.113022
 21
48.2964
  0
LINE
  8
0
 10
-0.113022
 20
48.2964
 11
0.113022
 21
48.2964
  0
LINE
  8
0
 10
0.113022
 20
48.2964
 11
0.33728
 21
48.2681
  0
LINE
  8
0
 10
0.33728
 20
48.2681
 11
0.556229
 21
48.2119
  0
LINE
  8
0
 10
0.556229
 20
48.2119
 11
0.766388
 21
48.1287
  0
LINE
  8
0
 10
0.766388
 20
48.1287
 11
0.964478
 21
48.0198
  0
LINE
  8
0
 10
0.964478
 20
48.0198
 11
1.14735
 21
47.8869
  0
LINE
  8
0
 10
1.14735
 20
47.8869
 11
1.31213
 21
47.7322
  0
LINE
  8
0
 10
1.31213
 20
47.7322
 11
1.45622
 21
47.558
  0
LINE
  8
0
 10
1.45622
 20
47.558
 11
1.57735
 21
47.3672
  0
LINE
  8
0
 10
1.57735
 20
47.3672
 11
1.67358
 21
47.1626
  0
LINE
  8
0
 10
1.67358
 20
47.1626
 11
1.74344
 21
46.9476
  0
LINE
  8
0
 10
1.74344
 20
46.9476
 11
1.7858
 21
46.7256
  0
LINE
  8
0
 10
1.7858
 20
46.7256
 11
1.79999
 21
46.5
  0
LINE
  8
0
 10
1.79999
 20
46.5
 11
1.7858
 21
46.2744
  0
LINE
  8
0
 10
1.7858
 20
46.2744
 11
1.74344
 21
46.0524
  0
LINE
  8
0
 10
1.74344
 20
46.0524
 11
1.67358
 21
45.8374
  0
LINE
  8
0
 10
1.67358
 20
45.8374
 11
1.57735
 21
45.6328
  0
LINE
  8
0
 10
1.57735
 20
45.6328
 11
1.45622
 21
45.442
  0
LINE
  8
0
 10
1.45622
 20
45.442
 11
1.31213
 21
45.2678
  0
LINE
  8
0
 10
1.31213
 20
45.2678
 11
1.14735
 21
45.1131
  0
LINE
  8
0
 10
1.14735
 20
45.1131
 11
0.964478
 21
44.9802
  0
LINE
  8
0
 10
0.964478
 20
44.9802
 11
0.766388
 21
44.8713
  0
LINE
  8
0
 10
0.766388
 20
44.8713
 11
0.556229
 21
44.7881
  0
LINE
  8
0
 10
0.556229
 20
44.7881
 11
0.33728
 21
44.7319
  0
LINE
  8
0
 10
0.33728
 20
44.7319
 11
0.113022
 21
44.7036
  0
LINE
  8
0
 10
0.113022
 20
44.7036
 11
-0.113022
 21
44.7036
  0
ENDSEC
  0
SECTION
  2
OBJECTS
  0
DICTIONARY
  0
ENDSEC
  0
EOF
