<?xml version="1.0" standalone="no"?>
<!DOCTYPE svg PUBLIC "-//W3C//DTD SVG 1.1//EN" "http://www.w3.org/Graphics/SVG/1.1/DTD/svg11.dtd">
<svg width="46mm" height="334mm" viewBox="-23 -509 46 334" xmlns="http://www.w3.org/2000/svg" version="1.1">
<title>OpenSCAD Model</title>
<path d="
M 18.4369,-403.589 L 19.0451,-403.745 L 19.6289,-403.976 L 20.1791,-404.278 L 20.6871,-404.647 L 21.1448,-405.077
 L 21.5451,-405.561 L 21.8815,-406.091 L 22.1489,-406.659 L 22.3429,-407.257 L 22.4606,-407.873 L 22.5,-408.5
 L 22.5,-503.5 L 22.4606,-504.127 L 22.3429,-504.743 L 22.1489,-505.341 L 21.8815,-505.909 L 21.5451,-506.439
 L 21.1448,-506.923 L 20.6871,-507.353 L 20.1791,-507.722 L 19.6289,-508.024 L 19.0451,-508.255 L 18.4369,-508.411
 L 17.8139,-508.49 L -17.8139,-508.49 L -18.4369,-508.411 L -19.0451,-508.255 L -19.6289,-508.024 L -20.1791,-507.722
 L -20.6871,-507.353 L -21.1448,-506.923 L -21.5451,-506.439 L -21.8815,-505.909 L -22.1489,-505.341 L -22.3429,-504.743
 L -22.4606,-504.127 L -22.5,-503.5 L -22.5,-408.5 L -22.4606,-407.873 L -22.3429,-407.257 L -22.1489,-406.659
 L -21.8815,-406.091 L -21.5451,-405.561 L -21.1448,-405.077 L -20.6871,-404.647 L -20.1791,-404.278 L -19.6289,-403.976
 L -19.0451,-403.745 L -18.4369,-403.589 L -17.8139,-403.51 L 17.8139,-403.51 z
M -17.2432,-405.135 L -17.7256,-405.196 L -18.1967,-405.317 L -18.6489,-405.496 L -19.0751,-405.73 L -19.4685,-406.016
 L -19.823,-406.349 L -20.133,-406.724 L -20.3936,-407.134 L -20.6007,-407.574 L -20.751,-408.037 L -20.8421,-408.515
 L -20.8726,-409 L -20.8726,-503 L -20.8421,-503.485 L -20.751,-503.963 L -20.6007,-504.426 L -20.3936,-504.866
 L -20.133,-505.276 L -19.823,-505.651 L -19.4685,-505.984 L -19.0751,-506.27 L -18.6489,-506.504 L -18.1967,-506.683
 L -17.7256,-506.804 L -17.2432,-506.865 L 17.2432,-506.865 L 17.7256,-506.804 L 18.1967,-506.683 L 18.6489,-506.504
 L 19.0751,-506.27 L 19.4685,-505.984 L 19.823,-505.651 L 20.133,-505.276 L 20.3936,-504.866 L 20.6007,-504.426
 L 20.751,-503.963 L 20.8421,-503.485 L 20.8726,-503 L 20.8726,-409 L 20.8421,-408.515 L 20.751,-408.037
 L 20.6007,-407.574 L 20.3936,-407.134 L 20.133,-406.724 L 19.823,-406.349 L 19.4685,-406.016 L 19.0751,-405.73
 L 18.6489,-405.496 L 18.1967,-405.317 L 17.7256,-405.196 L 17.2432,-405.135 z
M 18.4369,-289.589 L 19.0451,-289.745 L 19.6289,-289.976 L 20.1791,-290.278 L 20.6871,-290.647 L 21.1448,-291.077
 L 21.5451,-291.561 L 21.8815,-292.091 L 22.1489,-292.659 L 22.3429,-293.257 L 22.4606,-293.873 L 22.5,-294.5
 L 22.5,-389.5 L 22.4606,-390.127 L 22.3429,-390.743 L 22.1489,-391.341 L 21.8815,-391.909 L 21.5451,-392.439
 L 21.1448,-392.923 L 20.6871,-393.353 L 20.1791,-393.722 L 19.6289,-394.024 L 19.0451,-394.255 L 18.4369,-394.411
 L 17.8139,-394.49 L -17.8139,-394.49 L -18.4369,-394.411 L -19.0451,-394.255 L -19.6289,-394.024 L -20.1791,-393.722
 L -20.6871,-393.353 L -21.1448,-392.923 L -21.5451,-392.439 L -21.8815,-391.909 L -22.1489,-391.341 L -22.3429,-390.743
 L -22.4606,-390.127 L -22.5,-389.5 L -22.5,-294.5 L -22.4606,-293.873 L -22.3429,-293.257 L -22.1489,-292.659
 L -21.8815,-292.091 L -21.5451,-291.561 L -21.1448,-291.077 L -20.6871,-290.647 L -20.1791,-290.278 L -19.6289,-289.976
 L -19.0451,-289.745 L -18.4369,-289.589 L -17.8139,-289.51 L 17.8139,-289.51 z
M 18.4369,-175.589 L 19.0451,-175.745 L 19.6289,-175.976 L 20.1791,-176.278 L 20.6871,-176.647 L 21.1448,-177.077
 L 21.5451,-177.561 L 21.8815,-178.091 L 22.1489,-178.659 L 22.3429,-179.257 L 22.4606,-179.873 L 22.5,-180.5
 L 22.5,-275.5 L 22.4606,-276.127 L 22.3429,-276.743 L 22.1489,-277.341 L 21.8815,-277.909 L 21.5451,-278.439
 L 21.1448,-278.923 L 20.6871,-279.353 L 20.1791,-279.722 L 19.6289,-280.024 L 19.0451,-280.255 L 18.4369,-280.411
 L 17.8139,-280.49 L -17.8139,-280.49 L -18.4369,-280.411 L -19.0451,-280.255 L -19.6289,-280.024 L -20.1791,-279.722
 L -20.6871,-279.353 L -21.1448,-278.923 L -21.5451,-278.439 L -21.8815,-277.909 L -22.1489,-277.341 L -22.3429,-276.743
 L -22.4606,-276.127 L -22.5,-275.5 L -22.5,-180.5 L -22.4606,-179.873 L -22.3429,-179.257 L -22.1489,-178.659
 L -21.8815,-178.091 L -21.5451,-177.561 L -21.1448,-177.077 L -20.6871,-176.647 L -20.1791,-176.278 L -19.6289,-175.976
 L -19.0451,-175.745 L -18.4369,-175.589 L -17.8139,-175.51 L 17.8139,-175.51 z
M 14.887,-271.204 L 14.6627,-271.232 L 14.4438,-271.288 L 14.2336,-271.371 L 14.0355,-271.48 L 13.8526,-271.613
 L 13.6879,-271.768 L 13.5438,-271.942 L 13.4226,-272.133 L 13.3264,-272.337 L 13.2565,-272.552 L 13.2142,-272.774
 L 13.2,-273 L 13.2142,-273.226 L 13.2565,-273.448 L 13.3264,-273.663 L 13.4226,-273.867 L 13.5438,-274.058
 L 13.6879,-274.232 L 13.8526,-274.387 L 14.0355,-274.52 L 14.2336,-274.629 L 14.4438,-274.712 L 14.6627,-274.768
 L 14.887,-274.796 L 15.113,-274.796 L 15.3373,-274.768 L 15.5562,-274.712 L 15.7664,-274.629 L 15.9645,-274.52
 L 16.1474,-274.387 L 16.3121,-274.232 L 16.4562,-274.058 L 16.5773,-273.867 L 16.6736,-273.663 L 16.7434,-273.448
 L 16.7858,-273.226 L 16.8,-273 L 16.7858,-272.774 L 16.7434,-272.552 L 16.6736,-272.337 L 16.5773,-272.133
 L 16.4562,-271.942 L 16.3121,-271.768 L 16.1474,-271.613 L 15.9645,-271.48 L 15.7664,-271.371 L 15.5562,-271.288
 L 15.3373,-271.232 L 15.113,-271.204 z
M -15.113,-271.204 L -15.3373,-271.232 L -15.5562,-271.288 L -15.7664,-271.371 L -15.9645,-271.48 L -16.1474,-271.613
 L -16.3121,-271.768 L -16.4562,-271.942 L -16.5773,-272.133 L -16.6736,-272.337 L -16.7434,-272.552 L -16.7858,-272.774
 L -16.8,-273 L -16.7858,-273.226 L -16.7434,-273.448 L -16.6736,-273.663 L -16.5773,-273.867 L -16.4562,-274.058
 L -16.3121,-274.232 L -16.1474,-274.387 L -15.9645,-274.52 L -15.7664,-274.629 L -15.5562,-274.712 L -15.3373,-274.768
 L -15.113,-274.796 L -14.887,-274.796 L -14.6627,-274.768 L -14.4438,-274.712 L -14.2336,-274.629 L -14.0355,-274.52
 L -13.8526,-274.387 L -13.6879,-274.232 L -13.5438,-274.058 L -13.4226,-273.867 L -13.3264,-273.663 L -13.2565,-273.448
 L -13.2142,-273.226 L -13.2,-273 L -13.2142,-272.774 L -13.2565,-272.552 L -13.3264,-272.337 L -13.4226,-272.133
 L -13.5438,-271.942 L -13.6879,-271.768 L -13.8526,-271.613 L -14.0355,-271.48 L -14.2336,-271.371 L -14.4438,-271.288
 L -14.6627,-271.232 L -14.887,-271.204 z
M 14.887,-181.204 L 14.6627,-181.232 L 14.4438,-181.288 L 14.2336,-181.371 L 14.0355,-181.48 L 13.8526,-181.613
 L 13.6879,-181.768 L 13.5438,-181.942 L 13.4226,-182.133 L 13.3264,-182.337 L 13.2565,-182.552 L 13.2142,-182.774
 L 13.2,-183 L 13.2142,-183.226 L 13.2565,-183.448 L 13.3264,-183.663 L 13.4226,-183.867 L 13.5438,-184.058
 L 13.6879,-184.232 L 13.8526,-184.387 L 14.0355,-184.52 L 14.2336,-184.629 L 14.4438,-184.712 L 14.6627,-184.768
 L 14.887,-184.796 L 15.113,-184.796 L 15.3373,-184.768 L 15.5562,-184.712 L 15.7664,-184.629 L 15.9645,-184.52
 L 16.1474,-184.387 L 16.3121,-184.232 L 16.4562,-184.058 L 16.5773,-183.867 L 16.6736,-183.663 L 16.7434,-183.448
 L 16.7858,-183.226 L 16.8,-183 L 16.7858,-182.774 L 16.7434,-182.552 L 16.6736,-182.337 L 16.5773,-182.133
 L 16.4562,-181.942 L 16.3121,-181.768 L 16.1474,-181.613 L 15.9645,-181.48 L 15.7664,-181.371 L 15.5562,-181.288
 L 15.3373,-181.232 L 15.113,-181.204 z
M -15.113,-181.204 L -15.3373,-181.232 L -15.5562,-181.288 L -15.7664,-181.371 L -15.9645,-181.48 L -16.1474,-181.613
 L -16.3121,-181.768 L -16.4562,-181.942 L -16.5773,-182.133 L -16.6736,-182.337 L -16.7434,-182.552 L -16.7858,-182.774
 L -16.8,-183 L -16.7858,-183.226 L -16.7434,-183.448 L -16.6736,-183.663 L -16.5773,-183.867 L -16.4562,-184.058
 L -16.3121,-184.232 L -16.1474,-184.387 L -15.9645,-184.52 L -15.7664,-184.629 L -15.5562,-184.712 L -15.3373,-184.768
 L -15.113,-184.796 L -14.887,-184.796 L -14.6627,-184.768 L -14.4438,-184.712 L -14.2336,-184.629 L -14.0355,-184.52
 L -13.8526,-184.387 L -13.6879,-184.232 L -13.5438,-184.058 L -13.4226,-183.867 L -13.3264,-183.663 L -13.2565,-183.448
 L -13.2142,-183.226 L -13.2,-183 L -13.2142,-182.774 L -13.2565,-182.552 L -13.3264,-182.337 L -13.4226,-182.133
 L -13.5438,-181.942 L -13.6879,-181.768 L -13.8526,-181.613 L -14.0355,-181.48 L -14.2336,-181.371 L -14.4438,-181.288
 L -14.6627,-181.232 L -14.887,-181.204 z
" stroke="black" fill="lightgray" stroke-width="0.5"/>
</svg>
