  0
SECTION
  2
BLOCKS
  0
ENDSEC
  0
SECTION
  2
ENTITIES
  0
LINE
  8
0
 10
3.4369
 20
720.089
 11
4.04507
 21
720.245
  0
LINE
  8
0
 10
4.04507
 20
720.245
 11
4.62889
 21
720.476
  0
LINE
  8
0
 10
4.62889
 20
720.476
 11
5.17912
 21
720.778
  0
LINE
  8
0
 10
5.17912
 20
720.778
 11
5.68712
 21
721.147
  0
LINE
  8
0
 10
5.68712
 20
721.147
 11
6.14484
 21
721.577
  0
LINE
  8
0
 10
6.14484
 20
721.577
 11
6.54507
 21
722.061
  0
LINE
  8
0
 10
6.54507
 20
722.061
 11
6.88153
 21
722.591
  0
LINE
  8
0
 10
6.88153
 20
722.591
 11
7.14888
 21
723.159
  0
LINE
  8
0
 10
7.14888
 20
723.159
 11
7.34291
 21
723.757
  0
LINE
  8
0
 10
7.34291
 20
723.757
 11
7.46057
 21
724.373
  0
LINE
  8
0
 10
7.46057
 20
724.373
 11
7.5
 21
725
  0
LINE
  8
0
 10
7.5
 20
725
 11
7.5
 21
865
  0
LINE
  8
0
 10
7.5
 20
865
 11
7.46057
 21
865.627
  0
LINE
  8
0
 10
7.46057
 20
865.627
 11
7.34291
 21
866.243
  0
LINE
  8
0
 10
7.34291
 20
866.243
 11
7.14888
 21
866.841
  0
LINE
  8
0
 10
7.14888
 20
866.841
 11
6.88153
 21
867.409
  0
LINE
  8
0
 10
6.88153
 20
867.409
 11
6.54507
 21
867.939
  0
LINE
  8
0
 10
6.54507
 20
867.939
 11
6.14484
 21
868.423
  0
LINE
  8
0
 10
6.14484
 20
868.423
 11
5.68712
 21
868.853
  0
LINE
  8
0
 10
5.68712
 20
868.853
 11
5.17912
 21
869.222
  0
LINE
  8
0
 10
5.17912
 20
869.222
 11
4.62889
 21
869.524
  0
LINE
  8
0
 10
4.62889
 20
869.524
 11
4.04507
 21
869.755
  0
LINE
  8
0
 10
4.04507
 20
869.755
 11
3.4369
 21
869.911
  0
LINE
  8
0
 10
3.4369
 20
869.911
 11
2.81395
 21
869.99
  0
LINE
  8
0
 10
2.81395
 20
869.99
 11
-2.81395
 21
869.99
  0
LINE
  8
0
 10
-2.81395
 20
869.99
 11
-3.4369
 21
869.911
  0
LINE
  8
0
 10
-3.4369
 20
869.911
 11
-4.04507
 21
869.755
  0
LINE
  8
0
 10
-4.04507
 20
869.755
 11
-4.62889
 21
869.524
  0
LINE
  8
0
 10
-4.62889
 20
869.524
 11
-5.17912
 21
869.222
  0
LINE
  8
0
 10
-5.17912
 20
869.222
 11
-5.68712
 21
868.853
  0
LINE
  8
0
 10
-5.68712
 20
868.853
 11
-6.14484
 21
868.423
  0
LINE
  8
0
 10
-6.14484
 20
868.423
 11
-6.54507
 21
867.939
  0
LINE
  8
0
 10
-6.54507
 20
867.939
 11
-6.88153
 21
867.409
  0
LINE
  8
0
 10
-6.88153
 20
867.409
 11
-7.14888
 21
866.841
  0
LINE
  8
0
 10
-7.14888
 20
866.841
 11
-7.34291
 21
866.243
  0
LINE
  8
0
 10
-7.34291
 20
866.243
 11
-7.46057
 21
865.627
  0
LINE
  8
0
 10
-7.46057
 20
865.627
 11
-7.5
 21
865
  0
LINE
  8
0
 10
-7.5
 20
865
 11
-7.5
 21
725
  0
LINE
  8
0
 10
-7.5
 20
725
 11
-7.46057
 21
724.373
  0
LINE
  8
0
 10
-7.46057
 20
724.373
 11
-7.34291
 21
723.757
  0
LINE
  8
0
 10
-7.34291
 20
723.757
 11
-7.14888
 21
723.159
  0
LINE
  8
0
 10
-7.14888
 20
723.159
 11
-6.88153
 21
722.591
  0
LINE
  8
0
 10
-6.88153
 20
722.591
 11
-6.54507
 21
722.061
  0
LINE
  8
0
 10
-6.54507
 20
722.061
 11
-6.14484
 21
721.577
  0
LINE
  8
0
 10
-6.14484
 20
721.577
 11
-5.68712
 21
721.147
  0
LINE
  8
0
 10
-5.68712
 20
721.147
 11
-5.17912
 21
720.778
  0
LINE
  8
0
 10
-5.17912
 20
720.778
 11
-4.62889
 21
720.476
  0
LINE
  8
0
 10
-4.62889
 20
720.476
 11
-4.04507
 21
720.245
  0
LINE
  8
0
 10
-4.04507
 20
720.245
 11
-3.4369
 21
720.089
  0
LINE
  8
0
 10
-3.4369
 20
720.089
 11
-2.81395
 21
720.01
  0
LINE
  8
0
 10
-2.81395
 20
720.01
 11
2.81395
 21
720.01
  0
LINE
  8
0
 10
2.81395
 20
720.01
 11
3.4369
 21
720.089
  0
LINE
  8
0
 10
-2.25116
 20
721.508
 11
-2.74951
 21
721.571
  0
LINE
  8
0
 10
-2.74951
 20
721.571
 11
-3.23605
 21
721.696
  0
LINE
  8
0
 10
-3.23605
 20
721.696
 11
-3.70311
 21
721.881
  0
LINE
  8
0
 10
-3.70311
 20
721.881
 11
-4.1433
 21
722.123
  0
LINE
  8
0
 10
-4.1433
 20
722.123
 11
-4.54968
 21
722.418
  0
LINE
  8
0
 10
-4.54968
 20
722.418
 11
-4.91586
 21
722.762
  0
LINE
  8
0
 10
-4.91586
 20
722.762
 11
-5.23605
 21
723.149
  0
LINE
  8
0
 10
-5.23605
 20
723.149
 11
-5.50522
 21
723.573
  0
LINE
  8
0
 10
-5.50522
 20
723.573
 11
-5.7191
 21
724.028
  0
LINE
  8
0
 10
-5.7191
 20
724.028
 11
-5.87433
 21
724.505
  0
LINE
  8
0
 10
-5.87433
 20
724.505
 11
-5.96844
 21
724.999
  0
LINE
  8
0
 10
-5.96844
 20
724.999
 11
-6
 21
725.5
  0
LINE
  8
0
 10
-6
 20
725.5
 11
-6
 21
864.5
  0
LINE
  8
0
 10
-6
 20
864.5
 11
-5.96844
 21
865.001
  0
LINE
  8
0
 10
-5.96844
 20
865.001
 11
-5.87433
 21
865.495
  0
LINE
  8
0
 10
-5.87433
 20
865.495
 11
-5.7191
 21
865.972
  0
LINE
  8
0
 10
-5.7191
 20
865.972
 11
-5.50522
 21
866.427
  0
LINE
  8
0
 10
-5.50522
 20
866.427
 11
-5.23605
 21
866.851
  0
LINE
  8
0
 10
-5.23605
 20
866.851
 11
-4.91586
 21
867.238
  0
LINE
  8
0
 10
-4.91586
 20
867.238
 11
-4.54968
 21
867.582
  0
LINE
  8
0
 10
-4.54968
 20
867.582
 11
-4.1433
 21
867.877
  0
LINE
  8
0
 10
-4.1433
 20
867.877
 11
-3.70311
 21
868.119
  0
LINE
  8
0
 10
-3.70311
 20
868.119
 11
-3.23605
 21
868.304
  0
LINE
  8
0
 10
-3.23605
 20
868.304
 11
-2.74951
 21
868.429
  0
LINE
  8
0
 10
-2.74951
 20
868.429
 11
-2.25116
 21
868.492
  0
LINE
  8
0
 10
-2.25116
 20
868.492
 11
2.25116
 21
868.492
  0
LINE
  8
0
 10
2.25116
 20
868.492
 11
2.74951
 21
868.429
  0
LINE
  8
0
 10
2.74951
 20
868.429
 11
3.23605
 21
868.304
  0
LINE
  8
0
 10
3.23605
 20
868.304
 11
3.70311
 21
868.119
  0
LINE
  8
0
 10
3.70311
 20
868.119
 11
4.1433
 21
867.877
  0
LINE
  8
0
 10
4.1433
 20
867.877
 11
4.54968
 21
867.582
  0
LINE
  8
0
 10
4.54968
 20
867.582
 11
4.91586
 21
867.238
  0
LINE
  8
0
 10
4.91586
 20
867.238
 11
5.23605
 21
866.851
  0
LINE
  8
0
 10
5.23605
 20
866.851
 11
5.50522
 21
866.427
  0
LINE
  8
0
 10
5.50522
 20
866.427
 11
5.7191
 21
865.972
  0
LINE
  8
0
 10
5.7191
 20
865.972
 11
5.87433
 21
865.495
  0
LINE
  8
0
 10
5.87433
 20
865.495
 11
5.96844
 21
865.001
  0
LINE
  8
0
 10
5.96844
 20
865.001
 11
6
 21
864.5
  0
LINE
  8
0
 10
6
 20
864.5
 11
6
 21
725.5
  0
LINE
  8
0
 10
6
 20
725.5
 11
5.96844
 21
724.999
  0
LINE
  8
0
 10
5.96844
 20
724.999
 11
5.87433
 21
724.505
  0
LINE
  8
0
 10
5.87433
 20
724.505
 11
5.7191
 21
724.028
  0
LINE
  8
0
 10
5.7191
 20
724.028
 11
5.50522
 21
723.573
  0
LINE
  8
0
 10
5.50522
 20
723.573
 11
5.23605
 21
723.149
  0
LINE
  8
0
 10
5.23605
 20
723.149
 11
4.91586
 21
722.762
  0
LINE
  8
0
 10
4.91586
 20
722.762
 11
4.54968
 21
722.418
  0
LINE
  8
0
 10
4.54968
 20
722.418
 11
4.1433
 21
722.123
  0
LINE
  8
0
 10
4.1433
 20
722.123
 11
3.70311
 21
721.881
  0
LINE
  8
0
 10
3.70311
 20
721.881
 11
3.23605
 21
721.696
  0
LINE
  8
0
 10
3.23605
 20
721.696
 11
2.74951
 21
721.571
  0
LINE
  8
0
 10
2.74951
 20
721.571
 11
2.25116
 21
721.508
  0
LINE
  8
0
 10
2.25116
 20
721.508
 11
-2.25116
 21
721.508
  0
LINE
  8
0
 10
3.4369
 20
561.089
 11
4.04507
 21
561.245
  0
LINE
  8
0
 10
4.04507
 20
561.245
 11
4.62889
 21
561.476
  0
LINE
  8
0
 10
4.62889
 20
561.476
 11
5.17912
 21
561.778
  0
LINE
  8
0
 10
5.17912
 20
561.778
 11
5.68712
 21
562.147
  0
LINE
  8
0
 10
5.68712
 20
562.147
 11
6.14484
 21
562.577
  0
LINE
  8
0
 10
6.14484
 20
562.577
 11
6.54507
 21
563.061
  0
LINE
  8
0
 10
6.54507
 20
563.061
 11
6.88153
 21
563.591
  0
LINE
  8
0
 10
6.88153
 20
563.591
 11
7.14888
 21
564.159
  0
LINE
  8
0
 10
7.14888
 20
564.159
 11
7.34291
 21
564.757
  0
LINE
  8
0
 10
7.34291
 20
564.757
 11
7.46057
 21
565.373
  0
LINE
  8
0
 10
7.46057
 20
565.373
 11
7.5
 21
566
  0
LINE
  8
0
 10
7.5
 20
566
 11
7.5
 21
706
  0
LINE
  8
0
 10
7.5
 20
706
 11
7.46057
 21
706.627
  0
LINE
  8
0
 10
7.46057
 20
706.627
 11
7.34291
 21
707.243
  0
LINE
  8
0
 10
7.34291
 20
707.243
 11
7.14888
 21
707.841
  0
LINE
  8
0
 10
7.14888
 20
707.841
 11
6.88153
 21
708.409
  0
LINE
  8
0
 10
6.88153
 20
708.409
 11
6.54507
 21
708.939
  0
LINE
  8
0
 10
6.54507
 20
708.939
 11
6.14484
 21
709.423
  0
LINE
  8
0
 10
6.14484
 20
709.423
 11
5.68712
 21
709.853
  0
LINE
  8
0
 10
5.68712
 20
709.853
 11
5.17912
 21
710.222
  0
LINE
  8
0
 10
5.17912
 20
710.222
 11
4.62889
 21
710.524
  0
LINE
  8
0
 10
4.62889
 20
710.524
 11
4.04507
 21
710.755
  0
LINE
  8
0
 10
4.04507
 20
710.755
 11
3.4369
 21
710.911
  0
LINE
  8
0
 10
3.4369
 20
710.911
 11
2.81395
 21
710.99
  0
LINE
  8
0
 10
2.81395
 20
710.99
 11
-2.81395
 21
710.99
  0
LINE
  8
0
 10
-2.81395
 20
710.99
 11
-3.4369
 21
710.911
  0
LINE
  8
0
 10
-3.4369
 20
710.911
 11
-4.04507
 21
710.755
  0
LINE
  8
0
 10
-4.04507
 20
710.755
 11
-4.62889
 21
710.524
  0
LINE
  8
0
 10
-4.62889
 20
710.524
 11
-5.17912
 21
710.222
  0
LINE
  8
0
 10
-5.17912
 20
710.222
 11
-5.68712
 21
709.853
  0
LINE
  8
0
 10
-5.68712
 20
709.853
 11
-6.14484
 21
709.423
  0
LINE
  8
0
 10
-6.14484
 20
709.423
 11
-6.54507
 21
708.939
  0
LINE
  8
0
 10
-6.54507
 20
708.939
 11
-6.88153
 21
708.409
  0
LINE
  8
0
 10
-6.88153
 20
708.409
 11
-7.14888
 21
707.841
  0
LINE
  8
0
 10
-7.14888
 20
707.841
 11
-7.34291
 21
707.243
  0
LINE
  8
0
 10
-7.34291
 20
707.243
 11
-7.46057
 21
706.627
  0
LINE
  8
0
 10
-7.46057
 20
706.627
 11
-7.5
 21
706
  0
LINE
  8
0
 10
-7.5
 20
706
 11
-7.5
 21
566
  0
LINE
  8
0
 10
-7.5
 20
566
 11
-7.46057
 21
565.373
  0
LINE
  8
0
 10
-7.46057
 20
565.373
 11
-7.34291
 21
564.757
  0
LINE
  8
0
 10
-7.34291
 20
564.757
 11
-7.14888
 21
564.159
  0
LINE
  8
0
 10
-7.14888
 20
564.159
 11
-6.88153
 21
563.591
  0
LINE
  8
0
 10
-6.88153
 20
563.591
 11
-6.54507
 21
563.061
  0
LINE
  8
0
 10
-6.54507
 20
563.061
 11
-6.14484
 21
562.577
  0
LINE
  8
0
 10
-6.14484
 20
562.577
 11
-5.68712
 21
562.147
  0
LINE
  8
0
 10
-5.68712
 20
562.147
 11
-5.17912
 21
561.778
  0
LINE
  8
0
 10
-5.17912
 20
561.778
 11
-4.62889
 21
561.476
  0
LINE
  8
0
 10
-4.62889
 20
561.476
 11
-4.04507
 21
561.245
  0
LINE
  8
0
 10
-4.04507
 20
561.245
 11
-3.4369
 21
561.089
  0
LINE
  8
0
 10
-3.4369
 20
561.089
 11
-2.81395
 21
561.01
  0
LINE
  8
0
 10
-2.81395
 20
561.01
 11
2.81395
 21
561.01
  0
LINE
  8
0
 10
2.81395
 20
561.01
 11
3.4369
 21
561.089
  0
LINE
  8
0
 10
-2.19545
 20
563.393
 11
-2.5833
 21
563.442
  0
LINE
  8
0
 10
-2.5833
 20
563.442
 11
-2.96194
 21
563.539
  0
LINE
  8
0
 10
-2.96194
 20
563.539
 11
-3.32541
 21
563.683
  0
LINE
  8
0
 10
-3.32541
 20
563.683
 11
-3.66798
 21
563.872
  0
LINE
  8
0
 10
-3.66798
 20
563.872
 11
-3.98424
 21
564.101
  0
LINE
  8
0
 10
-3.98424
 20
564.101
 11
-4.26921
 21
564.369
  0
LINE
  8
0
 10
-4.26921
 20
564.369
 11
-4.5184
 21
564.67
  0
LINE
  8
0
 10
-4.5184
 20
564.67
 11
-4.72786
 21
565
  0
LINE
  8
0
 10
-4.72786
 20
565
 11
-4.89432
 21
565.354
  0
LINE
  8
0
 10
-4.89432
 20
565.354
 11
-5.01512
 21
565.726
  0
LINE
  8
0
 10
-5.01512
 20
565.726
 11
-5.08836
 21
566.11
  0
LINE
  8
0
 10
-5.08836
 20
566.11
 11
-5.11292
 21
566.5
  0
LINE
  8
0
 10
-5.11292
 20
566.5
 11
-5.11292
 21
705.5
  0
LINE
  8
0
 10
-5.11292
 20
705.5
 11
-5.08836
 21
705.89
  0
LINE
  8
0
 10
-5.08836
 20
705.89
 11
-5.01512
 21
706.274
  0
LINE
  8
0
 10
-5.01512
 20
706.274
 11
-4.89432
 21
706.646
  0
LINE
  8
0
 10
-4.89432
 20
706.646
 11
-4.72786
 21
707
  0
LINE
  8
0
 10
-4.72786
 20
707
 11
-4.5184
 21
707.33
  0
LINE
  8
0
 10
-4.5184
 20
707.33
 11
-4.26921
 21
707.631
  0
LINE
  8
0
 10
-4.26921
 20
707.631
 11
-3.98424
 21
707.899
  0
LINE
  8
0
 10
-3.98424
 20
707.899
 11
-3.66798
 21
708.128
  0
LINE
  8
0
 10
-3.66798
 20
708.128
 11
-3.32541
 21
708.317
  0
LINE
  8
0
 10
-3.32541
 20
708.317
 11
-2.96194
 21
708.461
  0
LINE
  8
0
 10
-2.96194
 20
708.461
 11
-2.5833
 21
708.558
  0
LINE
  8
0
 10
-2.5833
 20
708.558
 11
-2.19545
 21
708.607
  0
LINE
  8
0
 10
-2.19545
 20
708.607
 11
2.19545
 21
708.607
  0
LINE
  8
0
 10
2.19545
 20
708.607
 11
2.5833
 21
708.558
  0
LINE
  8
0
 10
2.5833
 20
708.558
 11
2.96194
 21
708.461
  0
LINE
  8
0
 10
2.96194
 20
708.461
 11
3.32541
 21
708.317
  0
LINE
  8
0
 10
3.32541
 20
708.317
 11
3.66798
 21
708.128
  0
LINE
  8
0
 10
3.66798
 20
708.128
 11
3.98424
 21
707.899
  0
LINE
  8
0
 10
3.98424
 20
707.899
 11
4.26921
 21
707.631
  0
LINE
  8
0
 10
4.26921
 20
707.631
 11
4.5184
 21
707.33
  0
LINE
  8
0
 10
4.5184
 20
707.33
 11
4.72786
 21
707
  0
LINE
  8
0
 10
4.72786
 20
707
 11
4.89432
 21
706.646
  0
LINE
  8
0
 10
4.89432
 20
706.646
 11
5.01512
 21
706.274
  0
LINE
  8
0
 10
5.01512
 20
706.274
 11
5.08836
 21
705.89
  0
LINE
  8
0
 10
5.08836
 20
705.89
 11
5.11292
 21
705.5
  0
LINE
  8
0
 10
5.11292
 20
705.5
 11
5.11292
 21
566.5
  0
LINE
  8
0
 10
5.11292
 20
566.5
 11
5.08836
 21
566.11
  0
LINE
  8
0
 10
5.08836
 20
566.11
 11
5.01512
 21
565.726
  0
LINE
  8
0
 10
5.01512
 20
565.726
 11
4.89432
 21
565.354
  0
LINE
  8
0
 10
4.89432
 20
565.354
 11
4.72786
 21
565
  0
LINE
  8
0
 10
4.72786
 20
565
 11
4.5184
 21
564.67
  0
LINE
  8
0
 10
4.5184
 20
564.67
 11
4.26921
 21
564.369
  0
LINE
  8
0
 10
4.26921
 20
564.369
 11
3.98424
 21
564.101
  0
LINE
  8
0
 10
3.98424
 20
564.101
 11
3.66798
 21
563.872
  0
LINE
  8
0
 10
3.66798
 20
563.872
 11
3.32541
 21
563.683
  0
LINE
  8
0
 10
3.32541
 20
563.683
 11
2.96194
 21
563.539
  0
LINE
  8
0
 10
2.96194
 20
563.539
 11
2.5833
 21
563.442
  0
LINE
  8
0
 10
2.5833
 20
563.442
 11
2.19545
 21
563.393
  0
LINE
  8
0
 10
2.19545
 20
563.393
 11
-2.19545
 21
563.393
  0
LINE
  8
0
 10
3.4369
 20
402.089
 11
4.04507
 21
402.245
  0
LINE
  8
0
 10
4.04507
 20
402.245
 11
4.62889
 21
402.476
  0
LINE
  8
0
 10
4.62889
 20
402.476
 11
5.17912
 21
402.778
  0
LINE
  8
0
 10
5.17912
 20
402.778
 11
5.68712
 21
403.147
  0
LINE
  8
0
 10
5.68712
 20
403.147
 11
6.14484
 21
403.577
  0
LINE
  8
0
 10
6.14484
 20
403.577
 11
6.54507
 21
404.061
  0
LINE
  8
0
 10
6.54507
 20
404.061
 11
6.88153
 21
404.591
  0
LINE
  8
0
 10
6.88153
 20
404.591
 11
7.14888
 21
405.159
  0
LINE
  8
0
 10
7.14888
 20
405.159
 11
7.34291
 21
405.757
  0
LINE
  8
0
 10
7.34291
 20
405.757
 11
7.46057
 21
406.373
  0
LINE
  8
0
 10
7.46057
 20
406.373
 11
7.5
 21
407
  0
LINE
  8
0
 10
7.5
 20
407
 11
7.5
 21
547
  0
LINE
  8
0
 10
7.5
 20
547
 11
7.46057
 21
547.627
  0
LINE
  8
0
 10
7.46057
 20
547.627
 11
7.34291
 21
548.243
  0
LINE
  8
0
 10
7.34291
 20
548.243
 11
7.14888
 21
548.841
  0
LINE
  8
0
 10
7.14888
 20
548.841
 11
6.88153
 21
549.409
  0
LINE
  8
0
 10
6.88153
 20
549.409
 11
6.54507
 21
549.939
  0
LINE
  8
0
 10
6.54507
 20
549.939
 11
6.14484
 21
550.423
  0
LINE
  8
0
 10
6.14484
 20
550.423
 11
5.68712
 21
550.853
  0
LINE
  8
0
 10
5.68712
 20
550.853
 11
5.17912
 21
551.222
  0
LINE
  8
0
 10
5.17912
 20
551.222
 11
4.62889
 21
551.524
  0
LINE
  8
0
 10
4.62889
 20
551.524
 11
4.04507
 21
551.755
  0
LINE
  8
0
 10
4.04507
 20
551.755
 11
3.4369
 21
551.911
  0
LINE
  8
0
 10
3.4369
 20
551.911
 11
2.81395
 21
551.99
  0
LINE
  8
0
 10
2.81395
 20
551.99
 11
-2.81395
 21
551.99
  0
LINE
  8
0
 10
-2.81395
 20
551.99
 11
-3.4369
 21
551.911
  0
LINE
  8
0
 10
-3.4369
 20
551.911
 11
-4.04507
 21
551.755
  0
LINE
  8
0
 10
-4.04507
 20
551.755
 11
-4.62889
 21
551.524
  0
LINE
  8
0
 10
-4.62889
 20
551.524
 11
-5.17912
 21
551.222
  0
LINE
  8
0
 10
-5.17912
 20
551.222
 11
-5.68712
 21
550.853
  0
LINE
  8
0
 10
-5.68712
 20
550.853
 11
-6.14484
 21
550.423
  0
LINE
  8
0
 10
-6.14484
 20
550.423
 11
-6.54507
 21
549.939
  0
LINE
  8
0
 10
-6.54507
 20
549.939
 11
-6.88153
 21
549.409
  0
LINE
  8
0
 10
-6.88153
 20
549.409
 11
-7.14888
 21
548.841
  0
LINE
  8
0
 10
-7.14888
 20
548.841
 11
-7.34291
 21
548.243
  0
LINE
  8
0
 10
-7.34291
 20
548.243
 11
-7.46057
 21
547.627
  0
LINE
  8
0
 10
-7.46057
 20
547.627
 11
-7.5
 21
547
  0
LINE
  8
0
 10
-7.5
 20
547
 11
-7.5
 21
407
  0
LINE
  8
0
 10
-7.5
 20
407
 11
-7.46057
 21
406.373
  0
LINE
  8
0
 10
-7.46057
 20
406.373
 11
-7.34291
 21
405.757
  0
LINE
  8
0
 10
-7.34291
 20
405.757
 11
-7.14888
 21
405.159
  0
LINE
  8
0
 10
-7.14888
 20
405.159
 11
-6.88153
 21
404.591
  0
LINE
  8
0
 10
-6.88153
 20
404.591
 11
-6.54507
 21
404.061
  0
LINE
  8
0
 10
-6.54507
 20
404.061
 11
-6.14484
 21
403.577
  0
LINE
  8
0
 10
-6.14484
 20
403.577
 11
-5.68712
 21
403.147
  0
LINE
  8
0
 10
-5.68712
 20
403.147
 11
-5.17912
 21
402.778
  0
LINE
  8
0
 10
-5.17912
 20
402.778
 11
-4.62889
 21
402.476
  0
LINE
  8
0
 10
-4.62889
 20
402.476
 11
-4.04507
 21
402.245
  0
LINE
  8
0
 10
-4.04507
 20
402.245
 11
-3.4369
 21
402.089
  0
LINE
  8
0
 10
-3.4369
 20
402.089
 11
-2.81395
 21
402.01
  0
LINE
  8
0
 10
-2.81395
 20
402.01
 11
2.81395
 21
402.01
  0
LINE
  8
0
 10
2.81395
 20
402.01
 11
3.4369
 21
402.089
  0
LINE
  8
0
 10
-0.134064
 20
542.369
 11
-0.400101
 21
542.403
  0
LINE
  8
0
 10
-0.400101
 20
542.403
 11
-0.659836
 21
542.469
  0
LINE
  8
0
 10
-0.659836
 20
542.469
 11
-0.909149
 21
542.568
  0
LINE
  8
0
 10
-0.909149
 20
542.568
 11
-1.14413
 21
542.697
  0
LINE
  8
0
 10
-1.14413
 20
542.697
 11
-1.36108
 21
542.855
  0
LINE
  8
0
 10
-1.36108
 20
542.855
 11
-1.55655
 21
543.038
  0
LINE
  8
0
 10
-1.55655
 20
543.038
 11
-1.72748
 21
543.245
  0
LINE
  8
0
 10
-1.72748
 20
543.245
 11
-1.87117
 21
543.471
  0
LINE
  8
0
 10
-1.87117
 20
543.471
 11
-1.98534
 21
543.714
  0
LINE
  8
0
 10
-1.98534
 20
543.714
 11
-2.06821
 21
543.969
  0
LINE
  8
0
 10
-2.06821
 20
543.969
 11
-2.11845
 21
544.232
  0
LINE
  8
0
 10
-2.11845
 20
544.232
 11
-2.13528
 21
544.5
  0
LINE
  8
0
 10
-2.13528
 20
544.5
 11
-2.11845
 21
544.768
  0
LINE
  8
0
 10
-2.11845
 20
544.768
 11
-2.06821
 21
545.031
  0
LINE
  8
0
 10
-2.06821
 20
545.031
 11
-1.98534
 21
545.286
  0
LINE
  8
0
 10
-1.98534
 20
545.286
 11
-1.87117
 21
545.529
  0
LINE
  8
0
 10
-1.87117
 20
545.529
 11
-1.72748
 21
545.755
  0
LINE
  8
0
 10
-1.72748
 20
545.755
 11
-1.55655
 21
545.962
  0
LINE
  8
0
 10
-1.55655
 20
545.962
 11
-1.36108
 21
546.145
  0
LINE
  8
0
 10
-1.36108
 20
546.145
 11
-1.14413
 21
546.303
  0
LINE
  8
0
 10
-1.14413
 20
546.303
 11
-0.909149
 21
546.432
  0
LINE
  8
0
 10
-0.909149
 20
546.432
 11
-0.659836
 21
546.531
  0
LINE
  8
0
 10
-0.659836
 20
546.531
 11
-0.400101
 21
546.597
  0
LINE
  8
0
 10
-0.400101
 20
546.597
 11
-0.134064
 21
546.631
  0
LINE
  8
0
 10
-0.134064
 20
546.631
 11
0.134064
 21
546.631
  0
LINE
  8
0
 10
0.134064
 20
546.631
 11
0.400101
 21
546.597
  0
LINE
  8
0
 10
0.400101
 20
546.597
 11
0.659836
 21
546.531
  0
LINE
  8
0
 10
0.659836
 20
546.531
 11
0.909149
 21
546.432
  0
LINE
  8
0
 10
0.909149
 20
546.432
 11
1.14413
 21
546.303
  0
LINE
  8
0
 10
1.14413
 20
546.303
 11
1.36108
 21
546.145
  0
LINE
  8
0
 10
1.36108
 20
546.145
 11
1.55655
 21
545.962
  0
LINE
  8
0
 10
1.55655
 20
545.962
 11
1.72748
 21
545.755
  0
LINE
  8
0
 10
1.72748
 20
545.755
 11
1.87117
 21
545.529
  0
LINE
  8
0
 10
1.87117
 20
545.529
 11
1.98534
 21
545.286
  0
LINE
  8
0
 10
1.98534
 20
545.286
 11
2.06821
 21
545.031
  0
LINE
  8
0
 10
2.06821
 20
545.031
 11
2.11845
 21
544.768
  0
LINE
  8
0
 10
2.11845
 20
544.768
 11
2.13528
 21
544.5
  0
LINE
  8
0
 10
2.13528
 20
544.5
 11
2.11845
 21
544.232
  0
LINE
  8
0
 10
2.11845
 20
544.232
 11
2.06821
 21
543.969
  0
LINE
  8
0
 10
2.06821
 20
543.969
 11
1.98534
 21
543.714
  0
LINE
  8
0
 10
1.98534
 20
543.714
 11
1.87117
 21
543.471
  0
LINE
  8
0
 10
1.87117
 20
543.471
 11
1.72748
 21
543.245
  0
LINE
  8
0
 10
1.72748
 20
543.245
 11
1.55655
 21
543.038
  0
LINE
  8
0
 10
1.55655
 20
543.038
 11
1.36108
 21
542.855
  0
LINE
  8
0
 10
1.36108
 20
542.855
 11
1.14413
 21
542.697
  0
LINE
  8
0
 10
1.14413
 20
542.697
 11
0.909149
 21
542.568
  0
LINE
  8
0
 10
0.909149
 20
542.568
 11
0.659836
 21
542.469
  0
LINE
  8
0
 10
0.659836
 20
542.469
 11
0.400101
 21
542.403
  0
LINE
  8
0
 10
0.400101
 20
542.403
 11
0.134064
 21
542.369
  0
LINE
  8
0
 10
0.134064
 20
542.369
 11
-0.134064
 21
542.369
  0
LINE
  8
0
 10
-0.134064
 20
407.369
 11
-0.400101
 21
407.403
  0
LINE
  8
0
 10
-0.400101
 20
407.403
 11
-0.659836
 21
407.469
  0
LINE
  8
0
 10
-0.659836
 20
407.469
 11
-0.909149
 21
407.568
  0
LINE
  8
0
 10
-0.909149
 20
407.568
 11
-1.14413
 21
407.697
  0
LINE
  8
0
 10
-1.14413
 20
407.697
 11
-1.36108
 21
407.855
  0
LINE
  8
0
 10
-1.36108
 20
407.855
 11
-1.55655
 21
408.038
  0
LINE
  8
0
 10
-1.55655
 20
408.038
 11
-1.72748
 21
408.245
  0
LINE
  8
0
 10
-1.72748
 20
408.245
 11
-1.87117
 21
408.471
  0
LINE
  8
0
 10
-1.87117
 20
408.471
 11
-1.98534
 21
408.714
  0
LINE
  8
0
 10
-1.98534
 20
408.714
 11
-2.06821
 21
408.969
  0
LINE
  8
0
 10
-2.06821
 20
408.969
 11
-2.11845
 21
409.232
  0
LINE
  8
0
 10
-2.11845
 20
409.232
 11
-2.13528
 21
409.5
  0
LINE
  8
0
 10
-2.13528
 20
409.5
 11
-2.11845
 21
409.768
  0
LINE
  8
0
 10
-2.11845
 20
409.768
 11
-2.06821
 21
410.031
  0
LINE
  8
0
 10
-2.06821
 20
410.031
 11
-1.98534
 21
410.286
  0
LINE
  8
0
 10
-1.98534
 20
410.286
 11
-1.87117
 21
410.529
  0
LINE
  8
0
 10
-1.87117
 20
410.529
 11
-1.72748
 21
410.755
  0
LINE
  8
0
 10
-1.72748
 20
410.755
 11
-1.55655
 21
410.962
  0
LINE
  8
0
 10
-1.55655
 20
410.962
 11
-1.36108
 21
411.145
  0
LINE
  8
0
 10
-1.36108
 20
411.145
 11
-1.14413
 21
411.303
  0
LINE
  8
0
 10
-1.14413
 20
411.303
 11
-0.909149
 21
411.432
  0
LINE
  8
0
 10
-0.909149
 20
411.432
 11
-0.659836
 21
411.531
  0
LINE
  8
0
 10
-0.659836
 20
411.531
 11
-0.400101
 21
411.597
  0
LINE
  8
0
 10
-0.400101
 20
411.597
 11
-0.134064
 21
411.631
  0
LINE
  8
0
 10
-0.134064
 20
411.631
 11
0.134064
 21
411.631
  0
LINE
  8
0
 10
0.134064
 20
411.631
 11
0.400101
 21
411.597
  0
LINE
  8
0
 10
0.400101
 20
411.597
 11
0.659836
 21
411.531
  0
LINE
  8
0
 10
0.659836
 20
411.531
 11
0.909149
 21
411.432
  0
LINE
  8
0
 10
0.909149
 20
411.432
 11
1.14413
 21
411.303
  0
LINE
  8
0
 10
1.14413
 20
411.303
 11
1.36108
 21
411.145
  0
LINE
  8
0
 10
1.36108
 20
411.145
 11
1.55655
 21
410.962
  0
LINE
  8
0
 10
1.55655
 20
410.962
 11
1.72748
 21
410.755
  0
LINE
  8
0
 10
1.72748
 20
410.755
 11
1.87117
 21
410.529
  0
LINE
  8
0
 10
1.87117
 20
410.529
 11
1.98534
 21
410.286
  0
LINE
  8
0
 10
1.98534
 20
410.286
 11
2.06821
 21
410.031
  0
LINE
  8
0
 10
2.06821
 20
410.031
 11
2.11845
 21
409.768
  0
LINE
  8
0
 10
2.11845
 20
409.768
 11
2.13528
 21
409.5
  0
LINE
  8
0
 10
2.13528
 20
409.5
 11
2.11845
 21
409.232
  0
LINE
  8
0
 10
2.11845
 20
409.232
 11
2.06821
 21
408.969
  0
LINE
  8
0
 10
2.06821
 20
408.969
 11
1.98534
 21
408.714
  0
LINE
  8
0
 10
1.98534
 20
408.714
 11
1.87117
 21
408.471
  0
LINE
  8
0
 10
1.87117
 20
408.471
 11
1.72748
 21
408.245
  0
LINE
  8
0
 10
1.72748
 20
408.245
 11
1.55655
 21
408.038
  0
LINE
  8
0
 10
1.55655
 20
408.038
 11
1.36108
 21
407.855
  0
LINE
  8
0
 10
1.36108
 20
407.855
 11
1.14413
 21
407.697
  0
LINE
  8
0
 10
1.14413
 20
407.697
 11
0.909149
 21
407.568
  0
LINE
  8
0
 10
0.909149
 20
407.568
 11
0.659836
 21
407.469
  0
LINE
  8
0
 10
0.659836
 20
407.469
 11
0.400101
 21
407.403
  0
LINE
  8
0
 10
0.400101
 20
407.403
 11
0.134064
 21
407.369
  0
LINE
  8
0
 10
0.134064
 20
407.369
 11
-0.134064
 21
407.369
  0
ENDSEC
  0
SECTION
  2
OBJECTS
  0
DICTIONARY
  0
ENDSEC
  0
EOF
