<?xml version="1.0" standalone="no"?>
<!DOCTYPE svg PUBLIC "-//W3C//DTD SVG 1.1//EN" "http://www.w3.org/Graphics/SVG/1.1/DTD/svg11.dtd">
<svg width="150mm" height="69mm" viewBox="-75 -93 150 69" xmlns="http://www.w3.org/2000/svg" version="1.1">
<title>OpenSCAD Model</title>
<path d="
M 70.9369,-63.0886 L 71.5451,-63.2447 L 72.1289,-63.4759 L 72.6791,-63.7784 L 73.1871,-64.1474 L 73.6448,-64.5773
 L 74.0451,-65.0611 L 74.3815,-65.5912 L 74.6489,-66.1594 L 74.8429,-66.7566 L 74.9606,-67.3733 L 75,-68
 L 75,-88 L 74.9606,-88.6267 L 74.8429,-89.2434 L 74.6489,-89.8406 L 74.3815,-90.4088 L 74.0451,-90.9389
 L 73.6448,-91.4227 L 73.1871,-91.8526 L 72.6791,-92.2216 L 72.1289,-92.5241 L 71.5451,-92.7553 L 70.9369,-92.9114
 L 70.3139,-92.9901 L -70.3139,-92.9901 L -70.9369,-92.9114 L -71.5451,-92.7553 L -72.1289,-92.5241 L -72.6791,-92.2216
 L -73.1871,-91.8526 L -73.6448,-91.4227 L -74.0451,-90.9389 L -74.3815,-90.4088 L -74.6489,-89.8406 L -74.8429,-89.2434
 L -74.9606,-88.6267 L -75,-88 L -75,-68 L -74.9606,-67.3733 L -74.8429,-66.7566 L -74.6489,-66.1594
 L -74.3815,-65.5912 L -74.0451,-65.0611 L -73.6448,-64.5773 L -73.1871,-64.1474 L -72.6791,-63.7784 L -72.1289,-63.4759
 L -71.5451,-63.2447 L -70.9369,-63.0886 L -70.3139,-63.0099 L 70.3139,-63.0099 z
M -69.993,-64.3882 L -70.4751,-64.4491 L -70.9457,-64.5699 L -71.3975,-64.7488 L -71.8234,-64.9829 L -72.2165,-65.2685
 L -72.5707,-65.6012 L -72.8805,-65.9756 L -73.1408,-66.3859 L -73.3477,-66.8256 L -73.4979,-67.2877 L -73.589,-67.765
 L -73.6195,-68.25 L -73.6195,-87.75 L -73.589,-88.235 L -73.4979,-88.7123 L -73.3477,-89.1744 L -73.1408,-89.6141
 L -72.8805,-90.0244 L -72.5707,-90.3988 L -72.2165,-90.7315 L -71.8234,-91.0171 L -71.3975,-91.2512 L -70.9457,-91.4301
 L -70.4751,-91.5509 L -69.993,-91.6118 L 69.993,-91.6118 L 70.4751,-91.5509 L 70.9457,-91.4301 L 71.3975,-91.2512
 L 71.8234,-91.0171 L 72.2165,-90.7315 L 72.5707,-90.3988 L 72.8805,-90.0244 L 73.1408,-89.6141 L 73.3477,-89.1744
 L 73.4979,-88.7123 L 73.589,-88.235 L 73.6195,-87.75 L 73.6195,-68.25 L 73.589,-67.765 L 73.4979,-67.2877
 L 73.3477,-66.8256 L 73.1408,-66.3859 L 72.8805,-65.9756 L 72.5707,-65.6012 L 72.2165,-65.2685 L 71.8234,-64.9829
 L 71.3975,-64.7488 L 70.9457,-64.5699 L 70.4751,-64.4491 L 69.993,-64.3882 z
M 70.9369,-24.0886 L 71.5451,-24.2447 L 72.1289,-24.4759 L 72.6791,-24.7784 L 73.1871,-25.1474 L 73.6448,-25.5773
 L 74.0451,-26.0611 L 74.3815,-26.5912 L 74.6489,-27.1594 L 74.8429,-27.7566 L 74.9606,-28.3733 L 75,-29
 L 75,-49 L 74.9606,-49.6267 L 74.8429,-50.2434 L 74.6489,-50.8406 L 74.3815,-51.4088 L 74.0451,-51.9389
 L 73.6448,-52.4227 L 73.1871,-52.8526 L 72.6791,-53.2216 L 72.1289,-53.5241 L 71.5451,-53.7553 L 70.9369,-53.9114
 L 70.3139,-53.9901 L -70.3139,-53.9901 L -70.9369,-53.9114 L -71.5451,-53.7553 L -72.1289,-53.5241 L -72.6791,-53.2216
 L -73.1871,-52.8526 L -73.6448,-52.4227 L -74.0451,-51.9389 L -74.3815,-51.4088 L -74.6489,-50.8406 L -74.8429,-50.2434
 L -74.9606,-49.6267 L -75,-49 L -75,-29 L -74.9606,-28.3733 L -74.8429,-27.7566 L -74.6489,-27.1594
 L -74.3815,-26.5912 L -74.0451,-26.0611 L -73.6448,-25.5773 L -73.1871,-25.1474 L -72.6791,-24.7784 L -72.1289,-24.4759
 L -71.5451,-24.2447 L -70.9369,-24.0886 L -70.3139,-24.0099 L 70.3139,-24.0099 z
M 67.387,-44.7036 L 67.1627,-44.7319 L 66.9438,-44.7881 L 66.7336,-44.8713 L 66.5355,-44.9802 L 66.3526,-45.1131
 L 66.1879,-45.2678 L 66.0438,-45.442 L 65.9226,-45.6328 L 65.8264,-45.8374 L 65.7565,-46.0524 L 65.7142,-46.2744
 L 65.7,-46.5 L 65.7142,-46.7256 L 65.7565,-46.9476 L 65.8264,-47.1626 L 65.9226,-47.3671 L 66.0438,-47.558
 L 66.1879,-47.7322 L 66.3526,-47.8869 L 66.5355,-48.0198 L 66.7336,-48.1287 L 66.9438,-48.2119 L 67.1627,-48.2681
 L 67.387,-48.2964 L 67.613,-48.2964 L 67.8373,-48.2681 L 68.0562,-48.2119 L 68.2664,-48.1287 L 68.4645,-48.0198
 L 68.6474,-47.8869 L 68.8121,-47.7322 L 68.9562,-47.558 L 69.0773,-47.3671 L 69.1736,-47.1626 L 69.2434,-46.9476
 L 69.2858,-46.7256 L 69.3,-46.5 L 69.2858,-46.2744 L 69.2434,-46.0524 L 69.1736,-45.8374 L 69.0773,-45.6328
 L 68.9562,-45.442 L 68.8121,-45.2678 L 68.6474,-45.1131 L 68.4645,-44.9802 L 68.2664,-44.8713 L 68.0562,-44.7881
 L 67.8373,-44.7319 L 67.613,-44.7036 z
M -67.613,-44.7036 L -67.8373,-44.7319 L -68.0562,-44.7881 L -68.2664,-44.8713 L -68.4645,-44.9802 L -68.6474,-45.1131
 L -68.8121,-45.2678 L -68.9562,-45.442 L -69.0773,-45.6328 L -69.1736,-45.8374 L -69.2434,-46.0524 L -69.2858,-46.2744
 L -69.3,-46.5 L -69.2858,-46.7256 L -69.2434,-46.9476 L -69.1736,-47.1626 L -69.0773,-47.3671 L -68.9562,-47.558
 L -68.8121,-47.7322 L -68.6474,-47.8869 L -68.4645,-48.0198 L -68.2664,-48.1287 L -68.0562,-48.2119 L -67.8373,-48.2681
 L -67.613,-48.2964 L -67.387,-48.2964 L -67.1627,-48.2681 L -66.9438,-48.2119 L -66.7336,-48.1287 L -66.5355,-48.0198
 L -66.3526,-47.8869 L -66.1879,-47.7322 L -66.0438,-47.558 L -65.9226,-47.3671 L -65.8264,-47.1626 L -65.7565,-46.9476
 L -65.7142,-46.7256 L -65.7,-46.5 L -65.7142,-46.2744 L -65.7565,-46.0524 L -65.8264,-45.8374 L -65.9226,-45.6328
 L -66.0438,-45.442 L -66.1879,-45.2678 L -66.3526,-45.1131 L -66.5355,-44.9802 L -66.7336,-44.8713 L -66.9438,-44.7881
 L -67.1627,-44.7319 L -67.387,-44.7036 z
M 67.387,-29.7036 L 67.1627,-29.7319 L 66.9438,-29.7881 L 66.7336,-29.8713 L 66.5355,-29.9802 L 66.3526,-30.1131
 L 66.1879,-30.2678 L 66.0438,-30.442 L 65.9226,-30.6329 L 65.8264,-30.8374 L 65.7565,-31.0524 L 65.7142,-31.2744
 L 65.7,-31.5 L 65.7142,-31.7256 L 65.7565,-31.9476 L 65.8264,-32.1626 L 65.9226,-32.3672 L 66.0438,-32.558
 L 66.1879,-32.7322 L 66.3526,-32.8869 L 66.5355,-33.0198 L 66.7336,-33.1287 L 66.9438,-33.2119 L 67.1627,-33.2681
 L 67.387,-33.2964 L 67.613,-33.2964 L 67.8373,-33.2681 L 68.0562,-33.2119 L 68.2664,-33.1287 L 68.4645,-33.0198
 L 68.6474,-32.8869 L 68.8121,-32.7322 L 68.9562,-32.558 L 69.0773,-32.3672 L 69.1736,-32.1626 L 69.2434,-31.9476
 L 69.2858,-31.7256 L 69.3,-31.5 L 69.2858,-31.2744 L 69.2434,-31.0524 L 69.1736,-30.8374 L 69.0773,-30.6329
 L 68.9562,-30.442 L 68.8121,-30.2678 L 68.6474,-30.1131 L 68.4645,-29.9802 L 68.2664,-29.8713 L 68.0562,-29.7881
 L 67.8373,-29.7319 L 67.613,-29.7036 z
M -67.613,-29.7036 L -67.8373,-29.7319 L -68.0562,-29.7881 L -68.2664,-29.8713 L -68.4645,-29.9802 L -68.6474,-30.1131
 L -68.8121,-30.2678 L -68.9562,-30.442 L -69.0773,-30.6329 L -69.1736,-30.8374 L -69.2434,-31.0524 L -69.2858,-31.2744
 L -69.3,-31.5 L -69.2858,-31.7256 L -69.2434,-31.9476 L -69.1736,-32.1626 L -69.0773,-32.3672 L -68.9562,-32.558
 L -68.8121,-32.7322 L -68.6474,-32.8869 L -68.4645,-33.0198 L -68.2664,-33.1287 L -68.0562,-33.2119 L -67.8373,-33.2681
 L -67.613,-33.2964 L -67.387,-33.2964 L -67.1627,-33.2681 L -66.9438,-33.2119 L -66.7336,-33.1287 L -66.5355,-33.0198
 L -66.3526,-32.8869 L -66.1879,-32.7322 L -66.0438,-32.558 L -65.9226,-32.3672 L -65.8264,-32.1626 L -65.7565,-31.9476
 L -65.7142,-31.7256 L -65.7,-31.5 L -65.7142,-31.2744 L -65.7565,-31.0524 L -65.8264,-30.8374 L -65.9226,-30.6329
 L -66.0438,-30.442 L -66.1879,-30.2678 L -66.3526,-30.1131 L -66.5355,-29.9802 L -66.7336,-29.8713 L -66.9438,-29.7881
 L -67.1627,-29.7319 L -67.387,-29.7036 z
" stroke="black" fill="lightgray" stroke-width="0.5"/>
</svg>
