  0
SECTION
  2
BLOCKS
  0
ENDSEC
  0
SECTION
  2
ENTITIES
  0
LINE
  8
0
 10
3.4369
 20
180.089
 11
4.04507
 21
180.245
  0
LINE
  8
0
 10
4.04507
 20
180.245
 11
4.62889
 21
180.476
  0
LINE
  8
0
 10
4.62889
 20
180.476
 11
5.17912
 21
180.778
  0
LINE
  8
0
 10
5.17912
 20
180.778
 11
5.68712
 21
181.147
  0
LINE
  8
0
 10
5.68712
 20
181.147
 11
6.14484
 21
181.577
  0
LINE
  8
0
 10
6.14484
 20
181.577
 11
6.54507
 21
182.061
  0
LINE
  8
0
 10
6.54507
 20
182.061
 11
6.88153
 21
182.591
  0
LINE
  8
0
 10
6.88153
 20
182.591
 11
7.14888
 21
183.159
  0
LINE
  8
0
 10
7.14888
 20
183.159
 11
7.34291
 21
183.757
  0
LINE
  8
0
 10
7.34291
 20
183.757
 11
7.46057
 21
184.373
  0
LINE
  8
0
 10
7.46057
 20
184.373
 11
7.5
 21
185
  0
LINE
  8
0
 10
7.5
 20
185
 11
7.5
 21
205
  0
LINE
  8
0
 10
7.5
 20
205
 11
7.46057
 21
205.627
  0
LINE
  8
0
 10
7.46057
 20
205.627
 11
7.34291
 21
206.243
  0
LINE
  8
0
 10
7.34291
 20
206.243
 11
7.14888
 21
206.841
  0
LINE
  8
0
 10
7.14888
 20
206.841
 11
6.88153
 21
207.409
  0
LINE
  8
0
 10
6.88153
 20
207.409
 11
6.54507
 21
207.939
  0
LINE
  8
0
 10
6.54507
 20
207.939
 11
6.14484
 21
208.423
  0
LINE
  8
0
 10
6.14484
 20
208.423
 11
5.68712
 21
208.853
  0
LINE
  8
0
 10
5.68712
 20
208.853
 11
5.17912
 21
209.222
  0
LINE
  8
0
 10
5.17912
 20
209.222
 11
4.62889
 21
209.524
  0
LINE
  8
0
 10
4.62889
 20
209.524
 11
4.04507
 21
209.755
  0
LINE
  8
0
 10
4.04507
 20
209.755
 11
3.4369
 21
209.911
  0
LINE
  8
0
 10
3.4369
 20
209.911
 11
2.81395
 21
209.99
  0
LINE
  8
0
 10
2.81395
 20
209.99
 11
-2.81395
 21
209.99
  0
LINE
  8
0
 10
-2.81395
 20
209.99
 11
-3.4369
 21
209.911
  0
LINE
  8
0
 10
-3.4369
 20
209.911
 11
-4.04507
 21
209.755
  0
LINE
  8
0
 10
-4.04507
 20
209.755
 11
-4.62889
 21
209.524
  0
LINE
  8
0
 10
-4.62889
 20
209.524
 11
-5.17912
 21
209.222
  0
LINE
  8
0
 10
-5.17912
 20
209.222
 11
-5.68712
 21
208.853
  0
LINE
  8
0
 10
-5.68712
 20
208.853
 11
-6.14484
 21
208.423
  0
LINE
  8
0
 10
-6.14484
 20
208.423
 11
-6.54507
 21
207.939
  0
LINE
  8
0
 10
-6.54507
 20
207.939
 11
-6.88153
 21
207.409
  0
LINE
  8
0
 10
-6.88153
 20
207.409
 11
-7.14888
 21
206.841
  0
LINE
  8
0
 10
-7.14888
 20
206.841
 11
-7.34291
 21
206.243
  0
LINE
  8
0
 10
-7.34291
 20
206.243
 11
-7.46057
 21
205.627
  0
LINE
  8
0
 10
-7.46057
 20
205.627
 11
-7.5
 21
205
  0
LINE
  8
0
 10
-7.5
 20
205
 11
-7.5
 21
185
  0
LINE
  8
0
 10
-7.5
 20
185
 11
-7.46057
 21
184.373
  0
LINE
  8
0
 10
-7.46057
 20
184.373
 11
-7.34291
 21
183.757
  0
LINE
  8
0
 10
-7.34291
 20
183.757
 11
-7.14888
 21
183.159
  0
LINE
  8
0
 10
-7.14888
 20
183.159
 11
-6.88153
 21
182.591
  0
LINE
  8
0
 10
-6.88153
 20
182.591
 11
-6.54507
 21
182.061
  0
LINE
  8
0
 10
-6.54507
 20
182.061
 11
-6.14484
 21
181.577
  0
LINE
  8
0
 10
-6.14484
 20
181.577
 11
-5.68712
 21
181.147
  0
LINE
  8
0
 10
-5.68712
 20
181.147
 11
-5.17912
 21
180.778
  0
LINE
  8
0
 10
-5.17912
 20
180.778
 11
-4.62889
 21
180.476
  0
LINE
  8
0
 10
-4.62889
 20
180.476
 11
-4.04507
 21
180.245
  0
LINE
  8
0
 10
-4.04507
 20
180.245
 11
-3.4369
 21
180.089
  0
LINE
  8
0
 10
-3.4369
 20
180.089
 11
-2.81395
 21
180.01
  0
LINE
  8
0
 10
-2.81395
 20
180.01
 11
2.81395
 21
180.01
  0
LINE
  8
0
 10
2.81395
 20
180.01
 11
3.4369
 21
180.089
  0
LINE
  8
0
 10
-2.25116
 20
181.508
 11
-2.74951
 21
181.571
  0
LINE
  8
0
 10
-2.74951
 20
181.571
 11
-3.23605
 21
181.696
  0
LINE
  8
0
 10
-3.23605
 20
181.696
 11
-3.70311
 21
181.881
  0
LINE
  8
0
 10
-3.70311
 20
181.881
 11
-4.1433
 21
182.123
  0
LINE
  8
0
 10
-4.1433
 20
182.123
 11
-4.54968
 21
182.418
  0
LINE
  8
0
 10
-4.54968
 20
182.418
 11
-4.91586
 21
182.762
  0
LINE
  8
0
 10
-4.91586
 20
182.762
 11
-5.23605
 21
183.149
  0
LINE
  8
0
 10
-5.23605
 20
183.149
 11
-5.50522
 21
183.573
  0
LINE
  8
0
 10
-5.50522
 20
183.573
 11
-5.7191
 21
184.028
  0
LINE
  8
0
 10
-5.7191
 20
184.028
 11
-5.87433
 21
184.505
  0
LINE
  8
0
 10
-5.87433
 20
184.505
 11
-5.96844
 21
184.999
  0
LINE
  8
0
 10
-5.96844
 20
184.999
 11
-6
 21
185.5
  0
LINE
  8
0
 10
-6
 20
185.5
 11
-6
 21
204.5
  0
LINE
  8
0
 10
-6
 20
204.5
 11
-5.96844
 21
205.001
  0
LINE
  8
0
 10
-5.96844
 20
205.001
 11
-5.87433
 21
205.495
  0
LINE
  8
0
 10
-5.87433
 20
205.495
 11
-5.7191
 21
205.972
  0
LINE
  8
0
 10
-5.7191
 20
205.972
 11
-5.50522
 21
206.427
  0
LINE
  8
0
 10
-5.50522
 20
206.427
 11
-5.23605
 21
206.851
  0
LINE
  8
0
 10
-5.23605
 20
206.851
 11
-4.91586
 21
207.238
  0
LINE
  8
0
 10
-4.91586
 20
207.238
 11
-4.54968
 21
207.582
  0
LINE
  8
0
 10
-4.54968
 20
207.582
 11
-4.1433
 21
207.877
  0
LINE
  8
0
 10
-4.1433
 20
207.877
 11
-3.70311
 21
208.119
  0
LINE
  8
0
 10
-3.70311
 20
208.119
 11
-3.23605
 21
208.304
  0
LINE
  8
0
 10
-3.23605
 20
208.304
 11
-2.74951
 21
208.429
  0
LINE
  8
0
 10
-2.74951
 20
208.429
 11
-2.25116
 21
208.492
  0
LINE
  8
0
 10
-2.25116
 20
208.492
 11
2.25116
 21
208.492
  0
LINE
  8
0
 10
2.25116
 20
208.492
 11
2.74951
 21
208.429
  0
LINE
  8
0
 10
2.74951
 20
208.429
 11
3.23605
 21
208.304
  0
LINE
  8
0
 10
3.23605
 20
208.304
 11
3.70311
 21
208.119
  0
LINE
  8
0
 10
3.70311
 20
208.119
 11
4.1433
 21
207.877
  0
LINE
  8
0
 10
4.1433
 20
207.877
 11
4.54968
 21
207.582
  0
LINE
  8
0
 10
4.54968
 20
207.582
 11
4.91586
 21
207.238
  0
LINE
  8
0
 10
4.91586
 20
207.238
 11
5.23605
 21
206.851
  0
LINE
  8
0
 10
5.23605
 20
206.851
 11
5.50522
 21
206.427
  0
LINE
  8
0
 10
5.50522
 20
206.427
 11
5.7191
 21
205.972
  0
LINE
  8
0
 10
5.7191
 20
205.972
 11
5.87433
 21
205.495
  0
LINE
  8
0
 10
5.87433
 20
205.495
 11
5.96844
 21
205.001
  0
LINE
  8
0
 10
5.96844
 20
205.001
 11
6
 21
204.5
  0
LINE
  8
0
 10
6
 20
204.5
 11
6
 21
185.5
  0
LINE
  8
0
 10
6
 20
185.5
 11
5.96844
 21
184.999
  0
LINE
  8
0
 10
5.96844
 20
184.999
 11
5.87433
 21
184.505
  0
LINE
  8
0
 10
5.87433
 20
184.505
 11
5.7191
 21
184.028
  0
LINE
  8
0
 10
5.7191
 20
184.028
 11
5.50522
 21
183.573
  0
LINE
  8
0
 10
5.50522
 20
183.573
 11
5.23605
 21
183.149
  0
LINE
  8
0
 10
5.23605
 20
183.149
 11
4.91586
 21
182.762
  0
LINE
  8
0
 10
4.91586
 20
182.762
 11
4.54968
 21
182.418
  0
LINE
  8
0
 10
4.54968
 20
182.418
 11
4.1433
 21
182.123
  0
LINE
  8
0
 10
4.1433
 20
182.123
 11
3.70311
 21
181.881
  0
LINE
  8
0
 10
3.70311
 20
181.881
 11
3.23605
 21
181.696
  0
LINE
  8
0
 10
3.23605
 20
181.696
 11
2.74951
 21
181.571
  0
LINE
  8
0
 10
2.74951
 20
181.571
 11
2.25116
 21
181.508
  0
LINE
  8
0
 10
2.25116
 20
181.508
 11
-2.25116
 21
181.508
  0
LINE
  8
0
 10
3.4369
 20
141.089
 11
4.04507
 21
141.245
  0
LINE
  8
0
 10
4.04507
 20
141.245
 11
4.62889
 21
141.476
  0
LINE
  8
0
 10
4.62889
 20
141.476
 11
5.17912
 21
141.778
  0
LINE
  8
0
 10
5.17912
 20
141.778
 11
5.68712
 21
142.147
  0
LINE
  8
0
 10
5.68712
 20
142.147
 11
6.14484
 21
142.577
  0
LINE
  8
0
 10
6.14484
 20
142.577
 11
6.54507
 21
143.061
  0
LINE
  8
0
 10
6.54507
 20
143.061
 11
6.88153
 21
143.591
  0
LINE
  8
0
 10
6.88153
 20
143.591
 11
7.14888
 21
144.159
  0
LINE
  8
0
 10
7.14888
 20
144.159
 11
7.34291
 21
144.757
  0
LINE
  8
0
 10
7.34291
 20
144.757
 11
7.46057
 21
145.373
  0
LINE
  8
0
 10
7.46057
 20
145.373
 11
7.5
 21
146
  0
LINE
  8
0
 10
7.5
 20
146
 11
7.5
 21
166
  0
LINE
  8
0
 10
7.5
 20
166
 11
7.46057
 21
166.627
  0
LINE
  8
0
 10
7.46057
 20
166.627
 11
7.34291
 21
167.243
  0
LINE
  8
0
 10
7.34291
 20
167.243
 11
7.14888
 21
167.841
  0
LINE
  8
0
 10
7.14888
 20
167.841
 11
6.88153
 21
168.409
  0
LINE
  8
0
 10
6.88153
 20
168.409
 11
6.54507
 21
168.939
  0
LINE
  8
0
 10
6.54507
 20
168.939
 11
6.14484
 21
169.423
  0
LINE
  8
0
 10
6.14484
 20
169.423
 11
5.68712
 21
169.853
  0
LINE
  8
0
 10
5.68712
 20
169.853
 11
5.17912
 21
170.222
  0
LINE
  8
0
 10
5.17912
 20
170.222
 11
4.62889
 21
170.524
  0
LINE
  8
0
 10
4.62889
 20
170.524
 11
4.04507
 21
170.755
  0
LINE
  8
0
 10
4.04507
 20
170.755
 11
3.4369
 21
170.911
  0
LINE
  8
0
 10
3.4369
 20
170.911
 11
2.81395
 21
170.99
  0
LINE
  8
0
 10
2.81395
 20
170.99
 11
-2.81395
 21
170.99
  0
LINE
  8
0
 10
-2.81395
 20
170.99
 11
-3.4369
 21
170.911
  0
LINE
  8
0
 10
-3.4369
 20
170.911
 11
-4.04507
 21
170.755
  0
LINE
  8
0
 10
-4.04507
 20
170.755
 11
-4.62889
 21
170.524
  0
LINE
  8
0
 10
-4.62889
 20
170.524
 11
-5.17912
 21
170.222
  0
LINE
  8
0
 10
-5.17912
 20
170.222
 11
-5.68712
 21
169.853
  0
LINE
  8
0
 10
-5.68712
 20
169.853
 11
-6.14484
 21
169.423
  0
LINE
  8
0
 10
-6.14484
 20
169.423
 11
-6.54507
 21
168.939
  0
LINE
  8
0
 10
-6.54507
 20
168.939
 11
-6.88153
 21
168.409
  0
LINE
  8
0
 10
-6.88153
 20
168.409
 11
-7.14888
 21
167.841
  0
LINE
  8
0
 10
-7.14888
 20
167.841
 11
-7.34291
 21
167.243
  0
LINE
  8
0
 10
-7.34291
 20
167.243
 11
-7.46057
 21
166.627
  0
LINE
  8
0
 10
-7.46057
 20
166.627
 11
-7.5
 21
166
  0
LINE
  8
0
 10
-7.5
 20
166
 11
-7.5
 21
146
  0
LINE
  8
0
 10
-7.5
 20
146
 11
-7.46057
 21
145.373
  0
LINE
  8
0
 10
-7.46057
 20
145.373
 11
-7.34291
 21
144.757
  0
LINE
  8
0
 10
-7.34291
 20
144.757
 11
-7.14888
 21
144.159
  0
LINE
  8
0
 10
-7.14888
 20
144.159
 11
-6.88153
 21
143.591
  0
LINE
  8
0
 10
-6.88153
 20
143.591
 11
-6.54507
 21
143.061
  0
LINE
  8
0
 10
-6.54507
 20
143.061
 11
-6.14484
 21
142.577
  0
LINE
  8
0
 10
-6.14484
 20
142.577
 11
-5.68712
 21
142.147
  0
LINE
  8
0
 10
-5.68712
 20
142.147
 11
-5.17912
 21
141.778
  0
LINE
  8
0
 10
-5.17912
 20
141.778
 11
-4.62889
 21
141.476
  0
LINE
  8
0
 10
-4.62889
 20
141.476
 11
-4.04507
 21
141.245
  0
LINE
  8
0
 10
-4.04507
 20
141.245
 11
-3.4369
 21
141.089
  0
LINE
  8
0
 10
-3.4369
 20
141.089
 11
-2.81395
 21
141.01
  0
LINE
  8
0
 10
-2.81395
 20
141.01
 11
2.81395
 21
141.01
  0
LINE
  8
0
 10
2.81395
 20
141.01
 11
3.4369
 21
141.089
  0
LINE
  8
0
 10
-2.19545
 20
143.393
 11
-2.5833
 21
143.442
  0
LINE
  8
0
 10
-2.5833
 20
143.442
 11
-2.96194
 21
143.539
  0
LINE
  8
0
 10
-2.96194
 20
143.539
 11
-3.32541
 21
143.683
  0
LINE
  8
0
 10
-3.32541
 20
143.683
 11
-3.66798
 21
143.872
  0
LINE
  8
0
 10
-3.66798
 20
143.872
 11
-3.98424
 21
144.101
  0
LINE
  8
0
 10
-3.98424
 20
144.101
 11
-4.26921
 21
144.369
  0
LINE
  8
0
 10
-4.26921
 20
144.369
 11
-4.5184
 21
144.67
  0
LINE
  8
0
 10
-4.5184
 20
144.67
 11
-4.72786
 21
145
  0
LINE
  8
0
 10
-4.72786
 20
145
 11
-4.89432
 21
145.354
  0
LINE
  8
0
 10
-4.89432
 20
145.354
 11
-5.01512
 21
145.726
  0
LINE
  8
0
 10
-5.01512
 20
145.726
 11
-5.08836
 21
146.11
  0
LINE
  8
0
 10
-5.08836
 20
146.11
 11
-5.11292
 21
146.5
  0
LINE
  8
0
 10
-5.11292
 20
146.5
 11
-5.11292
 21
165.5
  0
LINE
  8
0
 10
-5.11292
 20
165.5
 11
-5.08836
 21
165.89
  0
LINE
  8
0
 10
-5.08836
 20
165.89
 11
-5.01512
 21
166.274
  0
LINE
  8
0
 10
-5.01512
 20
166.274
 11
-4.89432
 21
166.646
  0
LINE
  8
0
 10
-4.89432
 20
166.646
 11
-4.72786
 21
167
  0
LINE
  8
0
 10
-4.72786
 20
167
 11
-4.5184
 21
167.33
  0
LINE
  8
0
 10
-4.5184
 20
167.33
 11
-4.26921
 21
167.631
  0
LINE
  8
0
 10
-4.26921
 20
167.631
 11
-3.98424
 21
167.899
  0
LINE
  8
0
 10
-3.98424
 20
167.899
 11
-3.66798
 21
168.128
  0
LINE
  8
0
 10
-3.66798
 20
168.128
 11
-3.32541
 21
168.317
  0
LINE
  8
0
 10
-3.32541
 20
168.317
 11
-2.96194
 21
168.461
  0
LINE
  8
0
 10
-2.96194
 20
168.461
 11
-2.5833
 21
168.558
  0
LINE
  8
0
 10
-2.5833
 20
168.558
 11
-2.19545
 21
168.607
  0
LINE
  8
0
 10
-2.19545
 20
168.607
 11
2.19545
 21
168.607
  0
LINE
  8
0
 10
2.19545
 20
168.607
 11
2.5833
 21
168.558
  0
LINE
  8
0
 10
2.5833
 20
168.558
 11
2.96194
 21
168.461
  0
LINE
  8
0
 10
2.96194
 20
168.461
 11
3.32541
 21
168.317
  0
LINE
  8
0
 10
3.32541
 20
168.317
 11
3.66798
 21
168.128
  0
LINE
  8
0
 10
3.66798
 20
168.128
 11
3.98424
 21
167.899
  0
LINE
  8
0
 10
3.98424
 20
167.899
 11
4.26921
 21
167.631
  0
LINE
  8
0
 10
4.26921
 20
167.631
 11
4.5184
 21
167.33
  0
LINE
  8
0
 10
4.5184
 20
167.33
 11
4.72786
 21
167
  0
LINE
  8
0
 10
4.72786
 20
167
 11
4.89432
 21
166.646
  0
LINE
  8
0
 10
4.89432
 20
166.646
 11
5.01512
 21
166.274
  0
LINE
  8
0
 10
5.01512
 20
166.274
 11
5.08836
 21
165.89
  0
LINE
  8
0
 10
5.08836
 20
165.89
 11
5.11292
 21
165.5
  0
LINE
  8
0
 10
5.11292
 20
165.5
 11
5.11292
 21
146.5
  0
LINE
  8
0
 10
5.11292
 20
146.5
 11
5.08836
 21
146.11
  0
LINE
  8
0
 10
5.08836
 20
146.11
 11
5.01512
 21
145.726
  0
LINE
  8
0
 10
5.01512
 20
145.726
 11
4.89432
 21
145.354
  0
LINE
  8
0
 10
4.89432
 20
145.354
 11
4.72786
 21
145
  0
LINE
  8
0
 10
4.72786
 20
145
 11
4.5184
 21
144.67
  0
LINE
  8
0
 10
4.5184
 20
144.67
 11
4.26921
 21
144.369
  0
LINE
  8
0
 10
4.26921
 20
144.369
 11
3.98424
 21
144.101
  0
LINE
  8
0
 10
3.98424
 20
144.101
 11
3.66798
 21
143.872
  0
LINE
  8
0
 10
3.66798
 20
143.872
 11
3.32541
 21
143.683
  0
LINE
  8
0
 10
3.32541
 20
143.683
 11
2.96194
 21
143.539
  0
LINE
  8
0
 10
2.96194
 20
143.539
 11
2.5833
 21
143.442
  0
LINE
  8
0
 10
2.5833
 20
143.442
 11
2.19545
 21
143.393
  0
LINE
  8
0
 10
2.19545
 20
143.393
 11
-2.19545
 21
143.393
  0
LINE
  8
0
 10
3.4369
 20
102.089
 11
4.04507
 21
102.245
  0
LINE
  8
0
 10
4.04507
 20
102.245
 11
4.62889
 21
102.476
  0
LINE
  8
0
 10
4.62889
 20
102.476
 11
5.17912
 21
102.778
  0
LINE
  8
0
 10
5.17912
 20
102.778
 11
5.68712
 21
103.147
  0
LINE
  8
0
 10
5.68712
 20
103.147
 11
6.14484
 21
103.577
  0
LINE
  8
0
 10
6.14484
 20
103.577
 11
6.54507
 21
104.061
  0
LINE
  8
0
 10
6.54507
 20
104.061
 11
6.88153
 21
104.591
  0
LINE
  8
0
 10
6.88153
 20
104.591
 11
7.14888
 21
105.159
  0
LINE
  8
0
 10
7.14888
 20
105.159
 11
7.34291
 21
105.757
  0
LINE
  8
0
 10
7.34291
 20
105.757
 11
7.46057
 21
106.373
  0
LINE
  8
0
 10
7.46057
 20
106.373
 11
7.5
 21
107
  0
LINE
  8
0
 10
7.5
 20
107
 11
7.5
 21
127
  0
LINE
  8
0
 10
7.5
 20
127
 11
7.46057
 21
127.627
  0
LINE
  8
0
 10
7.46057
 20
127.627
 11
7.34291
 21
128.243
  0
LINE
  8
0
 10
7.34291
 20
128.243
 11
7.14888
 21
128.841
  0
LINE
  8
0
 10
7.14888
 20
128.841
 11
6.88153
 21
129.409
  0
LINE
  8
0
 10
6.88153
 20
129.409
 11
6.54507
 21
129.939
  0
LINE
  8
0
 10
6.54507
 20
129.939
 11
6.14484
 21
130.423
  0
LINE
  8
0
 10
6.14484
 20
130.423
 11
5.68712
 21
130.853
  0
LINE
  8
0
 10
5.68712
 20
130.853
 11
5.17912
 21
131.222
  0
LINE
  8
0
 10
5.17912
 20
131.222
 11
4.62889
 21
131.524
  0
LINE
  8
0
 10
4.62889
 20
131.524
 11
4.04507
 21
131.755
  0
LINE
  8
0
 10
4.04507
 20
131.755
 11
3.4369
 21
131.911
  0
LINE
  8
0
 10
3.4369
 20
131.911
 11
2.81395
 21
131.99
  0
LINE
  8
0
 10
2.81395
 20
131.99
 11
-2.81395
 21
131.99
  0
LINE
  8
0
 10
-2.81395
 20
131.99
 11
-3.4369
 21
131.911
  0
LINE
  8
0
 10
-3.4369
 20
131.911
 11
-4.04507
 21
131.755
  0
LINE
  8
0
 10
-4.04507
 20
131.755
 11
-4.62889
 21
131.524
  0
LINE
  8
0
 10
-4.62889
 20
131.524
 11
-5.17912
 21
131.222
  0
LINE
  8
0
 10
-5.17912
 20
131.222
 11
-5.68712
 21
130.853
  0
LINE
  8
0
 10
-5.68712
 20
130.853
 11
-6.14484
 21
130.423
  0
LINE
  8
0
 10
-6.14484
 20
130.423
 11
-6.54507
 21
129.939
  0
LINE
  8
0
 10
-6.54507
 20
129.939
 11
-6.88153
 21
129.409
  0
LINE
  8
0
 10
-6.88153
 20
129.409
 11
-7.14888
 21
128.841
  0
LINE
  8
0
 10
-7.14888
 20
128.841
 11
-7.34291
 21
128.243
  0
LINE
  8
0
 10
-7.34291
 20
128.243
 11
-7.46057
 21
127.627
  0
LINE
  8
0
 10
-7.46057
 20
127.627
 11
-7.5
 21
127
  0
LINE
  8
0
 10
-7.5
 20
127
 11
-7.5
 21
107
  0
LINE
  8
0
 10
-7.5
 20
107
 11
-7.46057
 21
106.373
  0
LINE
  8
0
 10
-7.46057
 20
106.373
 11
-7.34291
 21
105.757
  0
LINE
  8
0
 10
-7.34291
 20
105.757
 11
-7.14888
 21
105.159
  0
LINE
  8
0
 10
-7.14888
 20
105.159
 11
-6.88153
 21
104.591
  0
LINE
  8
0
 10
-6.88153
 20
104.591
 11
-6.54507
 21
104.061
  0
LINE
  8
0
 10
-6.54507
 20
104.061
 11
-6.14484
 21
103.577
  0
LINE
  8
0
 10
-6.14484
 20
103.577
 11
-5.68712
 21
103.147
  0
LINE
  8
0
 10
-5.68712
 20
103.147
 11
-5.17912
 21
102.778
  0
LINE
  8
0
 10
-5.17912
 20
102.778
 11
-4.62889
 21
102.476
  0
LINE
  8
0
 10
-4.62889
 20
102.476
 11
-4.04507
 21
102.245
  0
LINE
  8
0
 10
-4.04507
 20
102.245
 11
-3.4369
 21
102.089
  0
LINE
  8
0
 10
-3.4369
 20
102.089
 11
-2.81395
 21
102.01
  0
LINE
  8
0
 10
-2.81395
 20
102.01
 11
2.81395
 21
102.01
  0
LINE
  8
0
 10
2.81395
 20
102.01
 11
3.4369
 21
102.089
  0
LINE
  8
0
 10
-0.134064
 20
122.369
 11
-0.400101
 21
122.403
  0
LINE
  8
0
 10
-0.400101
 20
122.403
 11
-0.659836
 21
122.469
  0
LINE
  8
0
 10
-0.659836
 20
122.469
 11
-0.909149
 21
122.568
  0
LINE
  8
0
 10
-0.909149
 20
122.568
 11
-1.14413
 21
122.697
  0
LINE
  8
0
 10
-1.14413
 20
122.697
 11
-1.36108
 21
122.855
  0
LINE
  8
0
 10
-1.36108
 20
122.855
 11
-1.55655
 21
123.038
  0
LINE
  8
0
 10
-1.55655
 20
123.038
 11
-1.72748
 21
123.245
  0
LINE
  8
0
 10
-1.72748
 20
123.245
 11
-1.87117
 21
123.471
  0
LINE
  8
0
 10
-1.87117
 20
123.471
 11
-1.98534
 21
123.714
  0
LINE
  8
0
 10
-1.98534
 20
123.714
 11
-2.06821
 21
123.969
  0
LINE
  8
0
 10
-2.06821
 20
123.969
 11
-2.11845
 21
124.232
  0
LINE
  8
0
 10
-2.11845
 20
124.232
 11
-2.13528
 21
124.5
  0
LINE
  8
0
 10
-2.13528
 20
124.5
 11
-2.11845
 21
124.768
  0
LINE
  8
0
 10
-2.11845
 20
124.768
 11
-2.06821
 21
125.031
  0
LINE
  8
0
 10
-2.06821
 20
125.031
 11
-1.98534
 21
125.286
  0
LINE
  8
0
 10
-1.98534
 20
125.286
 11
-1.87117
 21
125.529
  0
LINE
  8
0
 10
-1.87117
 20
125.529
 11
-1.72748
 21
125.755
  0
LINE
  8
0
 10
-1.72748
 20
125.755
 11
-1.55655
 21
125.962
  0
LINE
  8
0
 10
-1.55655
 20
125.962
 11
-1.36108
 21
126.145
  0
LINE
  8
0
 10
-1.36108
 20
126.145
 11
-1.14413
 21
126.303
  0
LINE
  8
0
 10
-1.14413
 20
126.303
 11
-0.909149
 21
126.432
  0
LINE
  8
0
 10
-0.909149
 20
126.432
 11
-0.659836
 21
126.531
  0
LINE
  8
0
 10
-0.659836
 20
126.531
 11
-0.400101
 21
126.597
  0
LINE
  8
0
 10
-0.400101
 20
126.597
 11
-0.134064
 21
126.631
  0
LINE
  8
0
 10
-0.134064
 20
126.631
 11
0.134064
 21
126.631
  0
LINE
  8
0
 10
0.134064
 20
126.631
 11
0.400101
 21
126.597
  0
LINE
  8
0
 10
0.400101
 20
126.597
 11
0.659836
 21
126.531
  0
LINE
  8
0
 10
0.659836
 20
126.531
 11
0.909149
 21
126.432
  0
LINE
  8
0
 10
0.909149
 20
126.432
 11
1.14413
 21
126.303
  0
LINE
  8
0
 10
1.14413
 20
126.303
 11
1.36108
 21
126.145
  0
LINE
  8
0
 10
1.36108
 20
126.145
 11
1.55655
 21
125.962
  0
LINE
  8
0
 10
1.55655
 20
125.962
 11
1.72748
 21
125.755
  0
LINE
  8
0
 10
1.72748
 20
125.755
 11
1.87117
 21
125.529
  0
LINE
  8
0
 10
1.87117
 20
125.529
 11
1.98534
 21
125.286
  0
LINE
  8
0
 10
1.98534
 20
125.286
 11
2.06821
 21
125.031
  0
LINE
  8
0
 10
2.06821
 20
125.031
 11
2.11845
 21
124.768
  0
LINE
  8
0
 10
2.11845
 20
124.768
 11
2.13528
 21
124.5
  0
LINE
  8
0
 10
2.13528
 20
124.5
 11
2.11845
 21
124.232
  0
LINE
  8
0
 10
2.11845
 20
124.232
 11
2.06821
 21
123.969
  0
LINE
  8
0
 10
2.06821
 20
123.969
 11
1.98534
 21
123.714
  0
LINE
  8
0
 10
1.98534
 20
123.714
 11
1.87117
 21
123.471
  0
LINE
  8
0
 10
1.87117
 20
123.471
 11
1.72748
 21
123.245
  0
LINE
  8
0
 10
1.72748
 20
123.245
 11
1.55655
 21
123.038
  0
LINE
  8
0
 10
1.55655
 20
123.038
 11
1.36108
 21
122.855
  0
LINE
  8
0
 10
1.36108
 20
122.855
 11
1.14413
 21
122.697
  0
LINE
  8
0
 10
1.14413
 20
122.697
 11
0.909149
 21
122.568
  0
LINE
  8
0
 10
0.909149
 20
122.568
 11
0.659836
 21
122.469
  0
LINE
  8
0
 10
0.659836
 20
122.469
 11
0.400101
 21
122.403
  0
LINE
  8
0
 10
0.400101
 20
122.403
 11
0.134064
 21
122.369
  0
LINE
  8
0
 10
0.134064
 20
122.369
 11
-0.134064
 21
122.369
  0
LINE
  8
0
 10
-0.134064
 20
107.369
 11
-0.400101
 21
107.403
  0
LINE
  8
0
 10
-0.400101
 20
107.403
 11
-0.659836
 21
107.469
  0
LINE
  8
0
 10
-0.659836
 20
107.469
 11
-0.909149
 21
107.568
  0
LINE
  8
0
 10
-0.909149
 20
107.568
 11
-1.14413
 21
107.697
  0
LINE
  8
0
 10
-1.14413
 20
107.697
 11
-1.36108
 21
107.855
  0
LINE
  8
0
 10
-1.36108
 20
107.855
 11
-1.55655
 21
108.038
  0
LINE
  8
0
 10
-1.55655
 20
108.038
 11
-1.72748
 21
108.245
  0
LINE
  8
0
 10
-1.72748
 20
108.245
 11
-1.87117
 21
108.471
  0
LINE
  8
0
 10
-1.87117
 20
108.471
 11
-1.98534
 21
108.714
  0
LINE
  8
0
 10
-1.98534
 20
108.714
 11
-2.06821
 21
108.969
  0
LINE
  8
0
 10
-2.06821
 20
108.969
 11
-2.11845
 21
109.232
  0
LINE
  8
0
 10
-2.11845
 20
109.232
 11
-2.13528
 21
109.5
  0
LINE
  8
0
 10
-2.13528
 20
109.5
 11
-2.11845
 21
109.768
  0
LINE
  8
0
 10
-2.11845
 20
109.768
 11
-2.06821
 21
110.031
  0
LINE
  8
0
 10
-2.06821
 20
110.031
 11
-1.98534
 21
110.286
  0
LINE
  8
0
 10
-1.98534
 20
110.286
 11
-1.87117
 21
110.529
  0
LINE
  8
0
 10
-1.87117
 20
110.529
 11
-1.72748
 21
110.755
  0
LINE
  8
0
 10
-1.72748
 20
110.755
 11
-1.55655
 21
110.962
  0
LINE
  8
0
 10
-1.55655
 20
110.962
 11
-1.36108
 21
111.145
  0
LINE
  8
0
 10
-1.36108
 20
111.145
 11
-1.14413
 21
111.303
  0
LINE
  8
0
 10
-1.14413
 20
111.303
 11
-0.909149
 21
111.432
  0
LINE
  8
0
 10
-0.909149
 20
111.432
 11
-0.659836
 21
111.531
  0
LINE
  8
0
 10
-0.659836
 20
111.531
 11
-0.400101
 21
111.597
  0
LINE
  8
0
 10
-0.400101
 20
111.597
 11
-0.134064
 21
111.631
  0
LINE
  8
0
 10
-0.134064
 20
111.631
 11
0.134064
 21
111.631
  0
LINE
  8
0
 10
0.134064
 20
111.631
 11
0.400101
 21
111.597
  0
LINE
  8
0
 10
0.400101
 20
111.597
 11
0.659836
 21
111.531
  0
LINE
  8
0
 10
0.659836
 20
111.531
 11
0.909149
 21
111.432
  0
LINE
  8
0
 10
0.909149
 20
111.432
 11
1.14413
 21
111.303
  0
LINE
  8
0
 10
1.14413
 20
111.303
 11
1.36108
 21
111.145
  0
LINE
  8
0
 10
1.36108
 20
111.145
 11
1.55655
 21
110.962
  0
LINE
  8
0
 10
1.55655
 20
110.962
 11
1.72748
 21
110.755
  0
LINE
  8
0
 10
1.72748
 20
110.755
 11
1.87117
 21
110.529
  0
LINE
  8
0
 10
1.87117
 20
110.529
 11
1.98534
 21
110.286
  0
LINE
  8
0
 10
1.98534
 20
110.286
 11
2.06821
 21
110.031
  0
LINE
  8
0
 10
2.06821
 20
110.031
 11
2.11845
 21
109.768
  0
LINE
  8
0
 10
2.11845
 20
109.768
 11
2.13528
 21
109.5
  0
LINE
  8
0
 10
2.13528
 20
109.5
 11
2.11845
 21
109.232
  0
LINE
  8
0
 10
2.11845
 20
109.232
 11
2.06821
 21
108.969
  0
LINE
  8
0
 10
2.06821
 20
108.969
 11
1.98534
 21
108.714
  0
LINE
  8
0
 10
1.98534
 20
108.714
 11
1.87117
 21
108.471
  0
LINE
  8
0
 10
1.87117
 20
108.471
 11
1.72748
 21
108.245
  0
LINE
  8
0
 10
1.72748
 20
108.245
 11
1.55655
 21
108.038
  0
LINE
  8
0
 10
1.55655
 20
108.038
 11
1.36108
 21
107.855
  0
LINE
  8
0
 10
1.36108
 20
107.855
 11
1.14413
 21
107.697
  0
LINE
  8
0
 10
1.14413
 20
107.697
 11
0.909149
 21
107.568
  0
LINE
  8
0
 10
0.909149
 20
107.568
 11
0.659836
 21
107.469
  0
LINE
  8
0
 10
0.659836
 20
107.469
 11
0.400101
 21
107.403
  0
LINE
  8
0
 10
0.400101
 20
107.403
 11
0.134064
 21
107.369
  0
LINE
  8
0
 10
0.134064
 20
107.369
 11
-0.134064
 21
107.369
  0
ENDSEC
  0
SECTION
  2
OBJECTS
  0
DICTIONARY
  0
ENDSEC
  0
EOF
