<?xml version="1.0" standalone="no"?>
<!DOCTYPE svg PUBLIC "-//W3C//DTD SVG 1.1//EN" "http://www.w3.org/Graphics/SVG/1.1/DTD/svg11.dtd">
<svg width="90mm" height="108mm" viewBox="-45 -210 90 108" xmlns="http://www.w3.org/2000/svg" version="1.1">
<title>OpenSCAD Model</title>
<path d="
M 40.9369,-180.089 L 41.5451,-180.245 L 42.1289,-180.476 L 42.6791,-180.778 L 43.1871,-181.147 L 43.6448,-181.577
 L 44.0451,-182.061 L 44.3815,-182.591 L 44.6489,-183.159 L 44.8429,-183.757 L 44.9606,-184.373 L 45,-185
 L 45,-205 L 44.9606,-205.627 L 44.8429,-206.243 L 44.6489,-206.841 L 44.3815,-207.409 L 44.0451,-207.939
 L 43.6448,-208.423 L 43.1871,-208.853 L 42.6791,-209.222 L 42.1289,-209.524 L 41.5451,-209.755 L 40.9369,-209.911
 L 40.3139,-209.99 L -40.3139,-209.99 L -40.9369,-209.911 L -41.5451,-209.755 L -42.1289,-209.524 L -42.6791,-209.222
 L -43.1871,-208.853 L -43.6448,-208.423 L -44.0451,-207.939 L -44.3815,-207.409 L -44.6489,-206.841 L -44.8429,-206.243
 L -44.9606,-205.627 L -45,-205 L -45,-185 L -44.9606,-184.373 L -44.8429,-183.757 L -44.6489,-183.159
 L -44.3815,-182.591 L -44.0451,-182.061 L -43.6448,-181.577 L -43.1871,-181.147 L -42.6791,-180.778 L -42.1289,-180.476
 L -41.5451,-180.245 L -40.9369,-180.089 L -40.3139,-180.01 L 40.3139,-180.01 z
M -40.0482,-180.509 L -40.6401,-180.584 L -41.2178,-180.732 L -41.7724,-180.952 L -42.2952,-181.239 L -42.7778,-181.59
 L -43.2126,-181.998 L -43.5928,-182.458 L -43.9124,-182.962 L -44.1664,-183.501 L -44.3508,-184.069 L -44.4625,-184.655
 L -44.5,-185.25 L -44.5,-204.75 L -44.4625,-205.345 L -44.3508,-205.931 L -44.1664,-206.499 L -43.9124,-207.038
 L -43.5928,-207.542 L -43.2126,-208.002 L -42.7778,-208.41 L -42.2952,-208.761 L -41.7724,-209.048 L -41.2178,-209.268
 L -40.6401,-209.416 L -40.0482,-209.491 L 40.0482,-209.491 L 40.6401,-209.416 L 41.2178,-209.268 L 41.7724,-209.048
 L 42.2952,-208.761 L 42.7778,-208.41 L 43.2126,-208.002 L 43.5928,-207.542 L 43.9124,-207.038 L 44.1664,-206.499
 L 44.3508,-205.931 L 44.4625,-205.345 L 44.5,-204.75 L 44.5,-185.25 L 44.4625,-184.655 L 44.3508,-184.069
 L 44.1664,-183.501 L 43.9124,-182.962 L 43.5928,-182.458 L 43.2126,-181.998 L 42.7778,-181.59 L 42.2952,-181.239
 L 41.7724,-180.952 L 41.2178,-180.732 L 40.6401,-180.584 L 40.0482,-180.509 z
M 40.9369,-141.089 L 41.5451,-141.245 L 42.1289,-141.476 L 42.6791,-141.778 L 43.1871,-142.147 L 43.6448,-142.577
 L 44.0451,-143.061 L 44.3815,-143.591 L 44.6489,-144.159 L 44.8429,-144.757 L 44.9606,-145.373 L 45,-146
 L 45,-166 L 44.9606,-166.627 L 44.8429,-167.243 L 44.6489,-167.841 L 44.3815,-168.409 L 44.0451,-168.939
 L 43.6448,-169.423 L 43.1871,-169.853 L 42.6791,-170.222 L 42.1289,-170.524 L 41.5451,-170.755 L 40.9369,-170.911
 L 40.3139,-170.99 L -40.3139,-170.99 L -40.9369,-170.911 L -41.5451,-170.755 L -42.1289,-170.524 L -42.6791,-170.222
 L -43.1871,-169.853 L -43.6448,-169.423 L -44.0451,-168.939 L -44.3815,-168.409 L -44.6489,-167.841 L -44.8429,-167.243
 L -44.9606,-166.627 L -45,-166 L -45,-146 L -44.9606,-145.373 L -44.8429,-144.757 L -44.6489,-144.159
 L -44.3815,-143.591 L -44.0451,-143.061 L -43.6448,-142.577 L -43.1871,-142.147 L -42.6791,-141.778 L -42.1289,-141.476
 L -41.5451,-141.245 L -40.9369,-141.089 L -40.3139,-141.01 L 40.3139,-141.01 z
M -40.0375,-141.681 L -40.6079,-141.753 L -41.1648,-141.896 L -41.6994,-142.107 L -42.2032,-142.384 L -42.6684,-142.722
 L -43.0875,-143.116 L -43.454,-143.559 L -43.7621,-144.044 L -44.0069,-144.565 L -44.1846,-145.111 L -44.2923,-145.676
 L -44.3284,-146.25 L -44.3284,-165.75 L -44.2923,-166.324 L -44.1846,-166.889 L -44.0069,-167.435 L -43.7621,-167.956
 L -43.454,-168.441 L -43.0875,-168.884 L -42.6684,-169.278 L -42.2032,-169.616 L -41.6994,-169.893 L -41.1648,-170.104
 L -40.6079,-170.247 L -40.0375,-170.319 L 40.0375,-170.319 L 40.6079,-170.247 L 41.1648,-170.104 L 41.6994,-169.893
 L 42.2032,-169.616 L 42.6684,-169.278 L 43.0875,-168.884 L 43.454,-168.441 L 43.7621,-167.956 L 44.0069,-167.435
 L 44.1846,-166.889 L 44.2923,-166.324 L 44.3284,-165.75 L 44.3284,-146.25 L 44.2923,-145.676 L 44.1846,-145.111
 L 44.0069,-144.565 L 43.7621,-144.044 L 43.454,-143.559 L 43.0875,-143.116 L 42.6684,-142.722 L 42.2032,-142.384
 L 41.6994,-142.107 L 41.1648,-141.896 L 40.6079,-141.753 L 40.0375,-141.681 z
M 40.9369,-102.089 L 41.5451,-102.245 L 42.1289,-102.476 L 42.6791,-102.778 L 43.1871,-103.147 L 43.6448,-103.577
 L 44.0451,-104.061 L 44.3815,-104.591 L 44.6489,-105.159 L 44.8429,-105.757 L 44.9606,-106.373 L 45,-107
 L 45,-127 L 44.9606,-127.627 L 44.8429,-128.243 L 44.6489,-128.841 L 44.3815,-129.409 L 44.0451,-129.939
 L 43.6448,-130.423 L 43.1871,-130.853 L 42.6791,-131.222 L 42.1289,-131.524 L 41.5451,-131.755 L 40.9369,-131.911
 L 40.3139,-131.99 L -40.3139,-131.99 L -40.9369,-131.911 L -41.5451,-131.755 L -42.1289,-131.524 L -42.6791,-131.222
 L -43.1871,-130.853 L -43.6448,-130.423 L -44.0451,-129.939 L -44.3815,-129.409 L -44.6489,-128.841 L -44.8429,-128.243
 L -44.9606,-127.627 L -45,-127 L -45,-107 L -44.9606,-106.373 L -44.8429,-105.757 L -44.6489,-105.159
 L -44.3815,-104.591 L -44.0451,-104.061 L -43.6448,-103.577 L -43.1871,-103.147 L -42.6791,-102.778 L -42.1289,-102.476
 L -41.5451,-102.245 L -40.9369,-102.089 L -40.3139,-102.01 L 40.3139,-102.01 z
M -39.8825,-105.145 L -40.1453,-105.178 L -40.4019,-105.244 L -40.6482,-105.341 L -40.8804,-105.469 L -41.0947,-105.625
 L -41.2879,-105.806 L -41.4567,-106.01 L -41.5987,-106.234 L -41.7115,-106.473 L -41.7934,-106.725 L -41.843,-106.986
 L -41.8596,-107.25 L -41.8596,-126.75 L -41.843,-127.014 L -41.7934,-127.275 L -41.7115,-127.527 L -41.5987,-127.766
 L -41.4567,-127.99 L -41.2879,-128.194 L -41.0947,-128.375 L -40.8804,-128.531 L -40.6482,-128.659 L -40.4019,-128.756
 L -40.1453,-128.822 L -39.8825,-128.855 L 39.8825,-128.855 L 40.1453,-128.822 L 40.4019,-128.756 L 40.6482,-128.659
 L 40.8804,-128.531 L 41.0947,-128.375 L 41.2879,-128.194 L 41.4567,-127.99 L 41.5987,-127.766 L 41.7115,-127.527
 L 41.7934,-127.275 L 41.843,-127.014 L 41.8596,-126.75 L 41.8596,-107.25 L 41.843,-106.986 L 41.7934,-106.725
 L 41.7115,-106.473 L 41.5987,-106.234 L 41.4567,-106.01 L 41.2879,-105.806 L 41.0947,-105.625 L 40.8804,-105.469
 L 40.6482,-105.341 L 40.4019,-105.244 L 40.1453,-105.178 L 39.8825,-105.145 z
" stroke="black" fill="lightgray" stroke-width="0.5"/>
</svg>
