<?xml version="1.0" standalone="no"?>
<!DOCTYPE svg PUBLIC "-//W3C//DTD SVG 1.1//EN" "http://www.w3.org/Graphics/SVG/1.1/DTD/svg11.dtd">
<svg width="60mm" height="288mm" viewBox="-30 -540 60 288" xmlns="http://www.w3.org/2000/svg" version="1.1">
<title>OpenSCAD Model</title>
<path d="
M 25.9369,-450.089 L 26.5451,-450.245 L 27.1289,-450.476 L 27.6791,-450.778 L 28.1871,-451.147 L 28.6448,-451.577
 L 29.0451,-452.061 L 29.3815,-452.591 L 29.6489,-453.159 L 29.8429,-453.757 L 29.9606,-454.373 L 30,-455
 L 30,-535 L 29.9606,-535.627 L 29.8429,-536.243 L 29.6489,-536.841 L 29.3815,-537.409 L 29.0451,-537.939
 L 28.6448,-538.423 L 28.1871,-538.853 L 27.6791,-539.222 L 27.1289,-539.524 L 26.5451,-539.755 L 25.9369,-539.911
 L 25.3139,-539.99 L -25.3139,-539.99 L -25.9369,-539.911 L -26.5451,-539.755 L -27.1289,-539.524 L -27.6791,-539.222
 L -28.1871,-538.853 L -28.6448,-538.423 L -29.0451,-537.939 L -29.3815,-537.409 L -29.6489,-536.841 L -29.8429,-536.243
 L -29.9606,-535.627 L -30,-535 L -30,-455 L -29.9606,-454.373 L -29.8429,-453.757 L -29.6489,-453.159
 L -29.3815,-452.591 L -29.0451,-452.061 L -28.6448,-451.577 L -28.1871,-451.147 L -27.6791,-450.778 L -27.1289,-450.476
 L -26.5451,-450.245 L -25.9369,-450.089 L -25.3139,-450.01 L 25.3139,-450.01 z
M -24.7512,-451.508 L -25.2495,-451.571 L -25.7361,-451.696 L -26.2031,-451.881 L -26.6433,-452.123 L -27.0497,-452.418
 L -27.4159,-452.762 L -27.7361,-453.149 L -28.0052,-453.573 L -28.2191,-454.028 L -28.3743,-454.505 L -28.4684,-454.999
 L -28.5,-455.5 L -28.5,-534.5 L -28.4684,-535.001 L -28.3743,-535.495 L -28.2191,-535.972 L -28.0052,-536.427
 L -27.7361,-536.851 L -27.4159,-537.238 L -27.0497,-537.582 L -26.6433,-537.877 L -26.2031,-538.119 L -25.7361,-538.304
 L -25.2495,-538.429 L -24.7512,-538.492 L 24.7512,-538.492 L 25.2495,-538.429 L 25.7361,-538.304 L 26.2031,-538.119
 L 26.6433,-537.877 L 27.0497,-537.582 L 27.4159,-537.238 L 27.7361,-536.851 L 28.0052,-536.427 L 28.2191,-535.972
 L 28.3743,-535.495 L 28.4684,-535.001 L 28.5,-534.5 L 28.5,-455.5 L 28.4684,-454.999 L 28.3743,-454.505
 L 28.2191,-454.028 L 28.0052,-453.573 L 27.7361,-453.149 L 27.4159,-452.762 L 27.0497,-452.418 L 26.6433,-452.123
 L 26.2031,-451.881 L 25.7361,-451.696 L 25.2495,-451.571 L 24.7512,-451.508 z
M 25.9369,-351.089 L 26.5451,-351.245 L 27.1289,-351.476 L 27.6791,-351.778 L 28.1871,-352.147 L 28.6448,-352.577
 L 29.0451,-353.061 L 29.3815,-353.591 L 29.6489,-354.159 L 29.8429,-354.757 L 29.9606,-355.373 L 30,-356
 L 30,-436 L 29.9606,-436.627 L 29.8429,-437.243 L 29.6489,-437.841 L 29.3815,-438.409 L 29.0451,-438.939
 L 28.6448,-439.423 L 28.1871,-439.853 L 27.6791,-440.222 L 27.1289,-440.524 L 26.5451,-440.755 L 25.9369,-440.911
 L 25.3139,-440.99 L -25.3139,-440.99 L -25.9369,-440.911 L -26.5451,-440.755 L -27.1289,-440.524 L -27.6791,-440.222
 L -28.1871,-439.853 L -28.6448,-439.423 L -29.0451,-438.939 L -29.3815,-438.409 L -29.6489,-437.841 L -29.8429,-437.243
 L -29.9606,-436.627 L -30,-436 L -30,-356 L -29.9606,-355.373 L -29.8429,-354.757 L -29.6489,-354.159
 L -29.3815,-353.591 L -29.0451,-353.061 L -28.6448,-352.577 L -28.1871,-352.147 L -27.6791,-351.778 L -27.1289,-351.476
 L -26.5451,-351.245 L -25.9369,-351.089 L -25.3139,-351.01 L 25.3139,-351.01 z
M -24.6954,-353.393 L -25.0833,-353.442 L -25.4619,-353.539 L -25.8254,-353.683 L -26.168,-353.872 L -26.4842,-354.101
 L -26.7692,-354.369 L -27.0184,-354.67 L -27.2279,-355 L -27.3943,-355.354 L -27.5151,-355.726 L -27.5884,-356.11
 L -27.6129,-356.5 L -27.6129,-435.5 L -27.5884,-435.89 L -27.5151,-436.274 L -27.3943,-436.646 L -27.2279,-437
 L -27.0184,-437.33 L -26.7692,-437.631 L -26.4842,-437.899 L -26.168,-438.128 L -25.8254,-438.317 L -25.4619,-438.461
 L -25.0833,-438.558 L -24.6954,-438.607 L 24.6954,-438.607 L 25.0833,-438.558 L 25.4619,-438.461 L 25.8254,-438.317
 L 26.168,-438.128 L 26.4842,-437.899 L 26.7692,-437.631 L 27.0184,-437.33 L 27.2279,-437 L 27.3943,-436.646
 L 27.5151,-436.274 L 27.5884,-435.89 L 27.6129,-435.5 L 27.6129,-356.5 L 27.5884,-356.11 L 27.5151,-355.726
 L 27.3943,-355.354 L 27.2279,-355 L 27.0184,-354.67 L 26.7692,-354.369 L 26.4842,-354.101 L 26.168,-353.872
 L 25.8254,-353.683 L 25.4619,-353.539 L 25.0833,-353.442 L 24.6954,-353.393 z
M 25.9369,-252.089 L 26.5451,-252.245 L 27.1289,-252.476 L 27.6791,-252.778 L 28.1871,-253.147 L 28.6448,-253.577
 L 29.0451,-254.061 L 29.3815,-254.591 L 29.6489,-255.159 L 29.8429,-255.757 L 29.9606,-256.373 L 30,-257
 L 30,-337 L 29.9606,-337.627 L 29.8429,-338.243 L 29.6489,-338.841 L 29.3815,-339.409 L 29.0451,-339.939
 L 28.6448,-340.423 L 28.1871,-340.853 L 27.6791,-341.222 L 27.1289,-341.524 L 26.5451,-341.755 L 25.9369,-341.911
 L 25.3139,-341.99 L -25.3139,-341.99 L -25.9369,-341.911 L -26.5451,-341.755 L -27.1289,-341.524 L -27.6791,-341.222
 L -28.1871,-340.853 L -28.6448,-340.423 L -29.0451,-339.939 L -29.3815,-339.409 L -29.6489,-338.841 L -29.8429,-338.243
 L -29.9606,-337.627 L -30,-337 L -30,-257 L -29.9606,-256.373 L -29.8429,-255.757 L -29.6489,-255.159
 L -29.3815,-254.591 L -29.0451,-254.061 L -28.6448,-253.577 L -28.1871,-253.147 L -27.6791,-252.778 L -27.1289,-252.476
 L -26.5451,-252.245 L -25.9369,-252.089 L -25.3139,-252.01 L 25.3139,-252.01 z
M 22.3659,-332.369 L 22.0999,-332.403 L 21.8401,-332.469 L 21.5908,-332.568 L 21.3559,-332.697 L 21.1389,-332.855
 L 20.9434,-333.038 L 20.7725,-333.245 L 20.6288,-333.471 L 20.5146,-333.714 L 20.4318,-333.969 L 20.3815,-334.232
 L 20.3647,-334.5 L 20.3815,-334.768 L 20.4318,-335.031 L 20.5146,-335.286 L 20.6288,-335.529 L 20.7725,-335.755
 L 20.9434,-335.962 L 21.1389,-336.145 L 21.3559,-336.303 L 21.5908,-336.432 L 21.8401,-336.531 L 22.0999,-336.597
 L 22.3659,-336.631 L 22.6341,-336.631 L 22.9001,-336.597 L 23.1598,-336.531 L 23.4091,-336.432 L 23.6441,-336.303
 L 23.8611,-336.145 L 24.0565,-335.962 L 24.2275,-335.755 L 24.3712,-335.529 L 24.4853,-335.286 L 24.5682,-335.031
 L 24.6185,-334.768 L 24.6353,-334.5 L 24.6185,-334.232 L 24.5682,-333.969 L 24.4853,-333.714 L 24.3712,-333.471
 L 24.2275,-333.245 L 24.0565,-333.038 L 23.8611,-332.855 L 23.6441,-332.697 L 23.4091,-332.568 L 23.1598,-332.469
 L 22.9001,-332.403 L 22.6341,-332.369 z
M -22.6341,-332.369 L -22.9001,-332.403 L -23.1598,-332.469 L -23.4091,-332.568 L -23.6441,-332.697 L -23.8611,-332.855
 L -24.0565,-333.038 L -24.2275,-333.245 L -24.3712,-333.471 L -24.4853,-333.714 L -24.5682,-333.969 L -24.6185,-334.232
 L -24.6353,-334.5 L -24.6185,-334.768 L -24.5682,-335.031 L -24.4853,-335.286 L -24.3712,-335.529 L -24.2275,-335.755
 L -24.0565,-335.962 L -23.8611,-336.145 L -23.6441,-336.303 L -23.4091,-336.432 L -23.1598,-336.531 L -22.9001,-336.597
 L -22.6341,-336.631 L -22.3659,-336.631 L -22.0999,-336.597 L -21.8401,-336.531 L -21.5908,-336.432 L -21.3559,-336.303
 L -21.1389,-336.145 L -20.9434,-335.962 L -20.7725,-335.755 L -20.6288,-335.529 L -20.5146,-335.286 L -20.4318,-335.031
 L -20.3815,-334.768 L -20.3647,-334.5 L -20.3815,-334.232 L -20.4318,-333.969 L -20.5146,-333.714 L -20.6288,-333.471
 L -20.7725,-333.245 L -20.9434,-333.038 L -21.1389,-332.855 L -21.3559,-332.697 L -21.5908,-332.568 L -21.8401,-332.469
 L -22.0999,-332.403 L -22.3659,-332.369 z
M 22.3659,-257.369 L 22.0999,-257.403 L 21.8401,-257.469 L 21.5908,-257.568 L 21.3559,-257.697 L 21.1389,-257.855
 L 20.9434,-258.038 L 20.7725,-258.245 L 20.6288,-258.471 L 20.5146,-258.714 L 20.4318,-258.969 L 20.3815,-259.232
 L 20.3647,-259.5 L 20.3815,-259.768 L 20.4318,-260.031 L 20.5146,-260.286 L 20.6288,-260.529 L 20.7725,-260.755
 L 20.9434,-260.962 L 21.1389,-261.145 L 21.3559,-261.303 L 21.5908,-261.432 L 21.8401,-261.531 L 22.0999,-261.597
 L 22.3659,-261.631 L 22.6341,-261.631 L 22.9001,-261.597 L 23.1598,-261.531 L 23.4091,-261.432 L 23.6441,-261.303
 L 23.8611,-261.145 L 24.0565,-260.962 L 24.2275,-260.755 L 24.3712,-260.529 L 24.4853,-260.286 L 24.5682,-260.031
 L 24.6185,-259.768 L 24.6353,-259.5 L 24.6185,-259.232 L 24.5682,-258.969 L 24.4853,-258.714 L 24.3712,-258.471
 L 24.2275,-258.245 L 24.0565,-258.038 L 23.8611,-257.855 L 23.6441,-257.697 L 23.4091,-257.568 L 23.1598,-257.469
 L 22.9001,-257.403 L 22.6341,-257.369 z
M -22.6341,-257.369 L -22.9001,-257.403 L -23.1598,-257.469 L -23.4091,-257.568 L -23.6441,-257.697 L -23.8611,-257.855
 L -24.0565,-258.038 L -24.2275,-258.245 L -24.3712,-258.471 L -24.4853,-258.714 L -24.5682,-258.969 L -24.6185,-259.232
 L -24.6353,-259.5 L -24.6185,-259.768 L -24.5682,-260.031 L -24.4853,-260.286 L -24.3712,-260.529 L -24.2275,-260.755
 L -24.0565,-260.962 L -23.8611,-261.145 L -23.6441,-261.303 L -23.4091,-261.432 L -23.1598,-261.531 L -22.9001,-261.597
 L -22.6341,-261.631 L -22.3659,-261.631 L -22.0999,-261.597 L -21.8401,-261.531 L -21.5908,-261.432 L -21.3559,-261.303
 L -21.1389,-261.145 L -20.9434,-260.962 L -20.7725,-260.755 L -20.6288,-260.529 L -20.5146,-260.286 L -20.4318,-260.031
 L -20.3815,-259.768 L -20.3647,-259.5 L -20.3815,-259.232 L -20.4318,-258.969 L -20.5146,-258.714 L -20.6288,-258.471
 L -20.7725,-258.245 L -20.9434,-258.038 L -21.1389,-257.855 L -21.3559,-257.697 L -21.5908,-257.568 L -21.8401,-257.469
 L -22.0999,-257.403 L -22.3659,-257.369 z
" stroke="black" fill="lightgray" stroke-width="0.5"/>
</svg>
