<?xml version="1.0" standalone="no"?>
<!DOCTYPE svg PUBLIC "-//W3C//DTD SVG 1.1//EN" "http://www.w3.org/Graphics/SVG/1.1/DTD/svg11.dtd">
<svg width="60mm" height="189mm" viewBox="-30 -342 60 189" xmlns="http://www.w3.org/2000/svg" version="1.1">
<title>OpenSCAD Model</title>
<path d="
M 25.9369,-252.089 L 26.5451,-252.245 L 27.1289,-252.476 L 27.6791,-252.778 L 28.1871,-253.147 L 28.6448,-253.577
 L 29.0451,-254.061 L 29.3815,-254.591 L 29.6489,-255.159 L 29.8429,-255.757 L 29.9606,-256.373 L 30,-257
 L 30,-337 L 29.9606,-337.627 L 29.8429,-338.243 L 29.6489,-338.841 L 29.3815,-339.409 L 29.0451,-339.939
 L 28.6448,-340.423 L 28.1871,-340.853 L 27.6791,-341.222 L 27.1289,-341.524 L 26.5451,-341.755 L 25.9369,-341.911
 L 25.3139,-341.99 L -25.3139,-341.99 L -25.9369,-341.911 L -26.5451,-341.755 L -27.1289,-341.524 L -27.6791,-341.222
 L -28.1871,-340.853 L -28.6448,-340.423 L -29.0451,-339.939 L -29.3815,-339.409 L -29.6489,-338.841 L -29.8429,-338.243
 L -29.9606,-337.627 L -30,-337 L -30,-257 L -29.9606,-256.373 L -29.8429,-255.757 L -29.6489,-255.159
 L -29.3815,-254.591 L -29.0451,-254.061 L -28.6448,-253.577 L -28.1871,-253.147 L -27.6791,-252.778 L -27.1289,-252.476
 L -26.5451,-252.245 L -25.9369,-252.089 L -25.3139,-252.01 L 25.3139,-252.01 z
M -24.6954,-254.393 L -25.0833,-254.442 L -25.4619,-254.539 L -25.8254,-254.683 L -26.168,-254.872 L -26.4842,-255.101
 L -26.7692,-255.369 L -27.0184,-255.67 L -27.2279,-256 L -27.3943,-256.354 L -27.5151,-256.726 L -27.5884,-257.11
 L -27.6129,-257.5 L -27.6129,-336.5 L -27.5884,-336.89 L -27.5151,-337.274 L -27.3943,-337.646 L -27.2279,-338
 L -27.0184,-338.33 L -26.7692,-338.631 L -26.4842,-338.899 L -26.168,-339.128 L -25.8254,-339.317 L -25.4619,-339.461
 L -25.0833,-339.558 L -24.6954,-339.607 L 24.6954,-339.607 L 25.0833,-339.558 L 25.4619,-339.461 L 25.8254,-339.317
 L 26.168,-339.128 L 26.4842,-338.899 L 26.7692,-338.631 L 27.0184,-338.33 L 27.2279,-338 L 27.3943,-337.646
 L 27.5151,-337.274 L 27.5884,-336.89 L 27.6129,-336.5 L 27.6129,-257.5 L 27.5884,-257.11 L 27.5151,-256.726
 L 27.3943,-256.354 L 27.2279,-256 L 27.0184,-255.67 L 26.7692,-255.369 L 26.4842,-255.101 L 26.168,-254.872
 L 25.8254,-254.683 L 25.4619,-254.539 L 25.0833,-254.442 L 24.6954,-254.393 z
M 25.9369,-153.089 L 26.5451,-153.245 L 27.1289,-153.476 L 27.6791,-153.778 L 28.1871,-154.147 L 28.6448,-154.577
 L 29.0451,-155.061 L 29.3815,-155.591 L 29.6489,-156.159 L 29.8429,-156.757 L 29.9606,-157.373 L 30,-158
 L 30,-238 L 29.9606,-238.627 L 29.8429,-239.243 L 29.6489,-239.841 L 29.3815,-240.409 L 29.0451,-240.939
 L 28.6448,-241.423 L 28.1871,-241.853 L 27.6791,-242.222 L 27.1289,-242.524 L 26.5451,-242.755 L 25.9369,-242.911
 L 25.3139,-242.99 L -25.3139,-242.99 L -25.9369,-242.911 L -26.5451,-242.755 L -27.1289,-242.524 L -27.6791,-242.222
 L -28.1871,-241.853 L -28.6448,-241.423 L -29.0451,-240.939 L -29.3815,-240.409 L -29.6489,-239.841 L -29.8429,-239.243
 L -29.9606,-238.627 L -30,-238 L -30,-158 L -29.9606,-157.373 L -29.8429,-156.757 L -29.6489,-156.159
 L -29.3815,-155.591 L -29.0451,-155.061 L -28.6448,-154.577 L -28.1871,-154.147 L -27.6791,-153.778 L -27.1289,-153.476
 L -26.5451,-153.245 L -25.9369,-153.089 L -25.3139,-153.01 L 25.3139,-153.01 z
M 22.3659,-233.369 L 22.0999,-233.403 L 21.8401,-233.469 L 21.5908,-233.568 L 21.3559,-233.697 L 21.1389,-233.855
 L 20.9434,-234.038 L 20.7725,-234.245 L 20.6288,-234.471 L 20.5146,-234.714 L 20.4318,-234.969 L 20.3815,-235.232
 L 20.3647,-235.5 L 20.3815,-235.768 L 20.4318,-236.031 L 20.5146,-236.286 L 20.6288,-236.529 L 20.7725,-236.755
 L 20.9434,-236.962 L 21.1389,-237.145 L 21.3559,-237.303 L 21.5908,-237.432 L 21.8401,-237.531 L 22.0999,-237.597
 L 22.3659,-237.631 L 22.6341,-237.631 L 22.9001,-237.597 L 23.1598,-237.531 L 23.4091,-237.432 L 23.6441,-237.303
 L 23.8611,-237.145 L 24.0565,-236.962 L 24.2275,-236.755 L 24.3712,-236.529 L 24.4853,-236.286 L 24.5682,-236.031
 L 24.6185,-235.768 L 24.6353,-235.5 L 24.6185,-235.232 L 24.5682,-234.969 L 24.4853,-234.714 L 24.3712,-234.471
 L 24.2275,-234.245 L 24.0565,-234.038 L 23.8611,-233.855 L 23.6441,-233.697 L 23.4091,-233.568 L 23.1598,-233.469
 L 22.9001,-233.403 L 22.6341,-233.369 z
M -22.6341,-233.369 L -22.9001,-233.403 L -23.1598,-233.469 L -23.4091,-233.568 L -23.6441,-233.697 L -23.8611,-233.855
 L -24.0565,-234.038 L -24.2275,-234.245 L -24.3712,-234.471 L -24.4853,-234.714 L -24.5682,-234.969 L -24.6185,-235.232
 L -24.6353,-235.5 L -24.6185,-235.768 L -24.5682,-236.031 L -24.4853,-236.286 L -24.3712,-236.529 L -24.2275,-236.755
 L -24.0565,-236.962 L -23.8611,-237.145 L -23.6441,-237.303 L -23.4091,-237.432 L -23.1598,-237.531 L -22.9001,-237.597
 L -22.6341,-237.631 L -22.3659,-237.631 L -22.0999,-237.597 L -21.8401,-237.531 L -21.5908,-237.432 L -21.3559,-237.303
 L -21.1389,-237.145 L -20.9434,-236.962 L -20.7725,-236.755 L -20.6288,-236.529 L -20.5146,-236.286 L -20.4318,-236.031
 L -20.3815,-235.768 L -20.3647,-235.5 L -20.3815,-235.232 L -20.4318,-234.969 L -20.5146,-234.714 L -20.6288,-234.471
 L -20.7725,-234.245 L -20.9434,-234.038 L -21.1389,-233.855 L -21.3559,-233.697 L -21.5908,-233.568 L -21.8401,-233.469
 L -22.0999,-233.403 L -22.3659,-233.369 z
M 22.3659,-158.369 L 22.0999,-158.403 L 21.8401,-158.469 L 21.5908,-158.568 L 21.3559,-158.697 L 21.1389,-158.855
 L 20.9434,-159.038 L 20.7725,-159.245 L 20.6288,-159.471 L 20.5146,-159.714 L 20.4318,-159.969 L 20.3815,-160.232
 L 20.3647,-160.5 L 20.3815,-160.768 L 20.4318,-161.031 L 20.5146,-161.286 L 20.6288,-161.529 L 20.7725,-161.755
 L 20.9434,-161.962 L 21.1389,-162.145 L 21.3559,-162.303 L 21.5908,-162.432 L 21.8401,-162.531 L 22.0999,-162.597
 L 22.3659,-162.631 L 22.6341,-162.631 L 22.9001,-162.597 L 23.1598,-162.531 L 23.4091,-162.432 L 23.6441,-162.303
 L 23.8611,-162.145 L 24.0565,-161.962 L 24.2275,-161.755 L 24.3712,-161.529 L 24.4853,-161.286 L 24.5682,-161.031
 L 24.6185,-160.768 L 24.6353,-160.5 L 24.6185,-160.232 L 24.5682,-159.969 L 24.4853,-159.714 L 24.3712,-159.471
 L 24.2275,-159.245 L 24.0565,-159.038 L 23.8611,-158.855 L 23.6441,-158.697 L 23.4091,-158.568 L 23.1598,-158.469
 L 22.9001,-158.403 L 22.6341,-158.369 z
M -22.6341,-158.369 L -22.9001,-158.403 L -23.1598,-158.469 L -23.4091,-158.568 L -23.6441,-158.697 L -23.8611,-158.855
 L -24.0565,-159.038 L -24.2275,-159.245 L -24.3712,-159.471 L -24.4853,-159.714 L -24.5682,-159.969 L -24.6185,-160.232
 L -24.6353,-160.5 L -24.6185,-160.768 L -24.5682,-161.031 L -24.4853,-161.286 L -24.3712,-161.529 L -24.2275,-161.755
 L -24.0565,-161.962 L -23.8611,-162.145 L -23.6441,-162.303 L -23.4091,-162.432 L -23.1598,-162.531 L -22.9001,-162.597
 L -22.6341,-162.631 L -22.3659,-162.631 L -22.0999,-162.597 L -21.8401,-162.531 L -21.5908,-162.432 L -21.3559,-162.303
 L -21.1389,-162.145 L -20.9434,-161.962 L -20.7725,-161.755 L -20.6288,-161.529 L -20.5146,-161.286 L -20.4318,-161.031
 L -20.3815,-160.768 L -20.3647,-160.5 L -20.3815,-160.232 L -20.4318,-159.969 L -20.5146,-159.714 L -20.6288,-159.471
 L -20.7725,-159.245 L -20.9434,-159.038 L -21.1389,-158.855 L -21.3559,-158.697 L -21.5908,-158.568 L -21.8401,-158.469
 L -22.0999,-158.403 L -22.3659,-158.369 z
" stroke="black" fill="lightgray" stroke-width="0.5"/>
</svg>
