<?xml version="1.0" standalone="no"?>
<!DOCTYPE svg PUBLIC "-//W3C//DTD SVG 1.1//EN" "http://www.w3.org/Graphics/SVG/1.1/DTD/svg11.dtd">
<svg width="180mm" height="64mm" viewBox="-90 -104 180 64" xmlns="http://www.w3.org/2000/svg" version="1.1">
<title>OpenSCAD Model</title>
<path d="
M 85.9369,-88.5886 L 86.5451,-88.7447 L 87.1289,-88.9759 L 87.6791,-89.2784 L 88.1871,-89.6474 L 88.6448,-90.0773
 L 89.0451,-90.5611 L 89.3815,-91.0912 L 89.6489,-91.6594 L 89.8429,-92.2566 L 89.9606,-92.8733 L 90,-93.5
 L 90,-98.5 L 89.9606,-99.1267 L 89.8429,-99.7434 L 89.6489,-100.341 L 89.3815,-100.909 L 89.0451,-101.439
 L 88.6448,-101.923 L 88.1871,-102.353 L 87.6791,-102.722 L 87.1289,-103.024 L 86.5451,-103.255 L 85.9369,-103.411
 L 85.3139,-103.49 L -85.3139,-103.49 L -85.9369,-103.411 L -86.5451,-103.255 L -87.1289,-103.024 L -87.6791,-102.722
 L -88.1871,-102.353 L -88.6448,-101.923 L -89.0451,-101.439 L -89.3815,-100.909 L -89.6489,-100.341 L -89.8429,-99.7434
 L -89.9606,-99.1267 L -90,-98.5 L -90,-93.5 L -89.9606,-92.8733 L -89.8429,-92.2566 L -89.6489,-91.6594
 L -89.3815,-91.0912 L -89.0451,-90.5611 L -88.6448,-90.0773 L -88.1871,-89.6474 L -87.6791,-89.2784 L -87.1289,-88.9759
 L -86.5451,-88.7447 L -85.9369,-88.5886 L -85.3139,-88.5099 L 85.3139,-88.5099 z
M -85.0482,-89.0094 L -85.6401,-89.0841 L -86.2178,-89.2325 L -86.7724,-89.4521 L -87.2952,-89.7395 L -87.7778,-90.0901
 L -88.2126,-90.4984 L -88.5928,-90.958 L -88.9125,-91.4617 L -89.1664,-92.0014 L -89.3508,-92.5687 L -89.4625,-93.1547
 L -89.5,-93.75 L -89.5,-98.25 L -89.4625,-98.8453 L -89.3508,-99.4313 L -89.1664,-99.9986 L -88.9125,-100.538
 L -88.5928,-101.042 L -88.2126,-101.502 L -87.7778,-101.91 L -87.2952,-102.261 L -86.7724,-102.548 L -86.2178,-102.768
 L -85.6401,-102.916 L -85.0482,-102.991 L 85.0482,-102.991 L 85.6401,-102.916 L 86.2178,-102.768 L 86.7724,-102.548
 L 87.2952,-102.261 L 87.7778,-101.91 L 88.2126,-101.502 L 88.5928,-101.042 L 88.9125,-100.538 L 89.1664,-99.9986
 L 89.3508,-99.4313 L 89.4625,-98.8453 L 89.5,-98.25 L 89.5,-93.75 L 89.4625,-93.1547 L 89.3508,-92.5687
 L 89.1664,-92.0014 L 88.9125,-91.4617 L 88.5928,-90.958 L 88.2126,-90.4984 L 87.7778,-90.0901 L 87.2952,-89.7395
 L 86.7724,-89.4521 L 86.2178,-89.2325 L 85.6401,-89.0841 L 85.0482,-89.0094 z
M 85.9369,-64.5886 L 86.5451,-64.7447 L 87.1289,-64.9759 L 87.6791,-65.2784 L 88.1871,-65.6474 L 88.6448,-66.0773
 L 89.0451,-66.5611 L 89.3815,-67.0912 L 89.6489,-67.6594 L 89.8429,-68.2566 L 89.9606,-68.8733 L 90,-69.5
 L 90,-74.5 L 89.9606,-75.1267 L 89.8429,-75.7434 L 89.6489,-76.3406 L 89.3815,-76.9088 L 89.0451,-77.4389
 L 88.6448,-77.9227 L 88.1871,-78.3526 L 87.6791,-78.7216 L 87.1289,-79.0241 L 86.5451,-79.2553 L 85.9369,-79.4114
 L 85.3139,-79.4901 L -85.3139,-79.4901 L -85.9369,-79.4114 L -86.5451,-79.2553 L -87.1289,-79.0241 L -87.6791,-78.7216
 L -88.1871,-78.3526 L -88.6448,-77.9227 L -89.0451,-77.4389 L -89.3815,-76.9088 L -89.6489,-76.3406 L -89.8429,-75.7434
 L -89.9606,-75.1267 L -90,-74.5 L -90,-69.5 L -89.9606,-68.8733 L -89.8429,-68.2566 L -89.6489,-67.6594
 L -89.3815,-67.0912 L -89.0451,-66.5611 L -88.6448,-66.0773 L -88.1871,-65.6474 L -87.6791,-65.2784 L -87.1289,-64.9759
 L -86.5451,-64.7447 L -85.9369,-64.5886 L -85.3139,-64.5099 L 85.3139,-64.5099 z
M -84.993,-65.8882 L -85.4751,-65.9491 L -85.9457,-66.0699 L -86.3975,-66.2488 L -86.8234,-66.4829 L -87.2165,-66.7685
 L -87.5707,-67.1012 L -87.8805,-67.4756 L -88.1408,-67.8859 L -88.3477,-68.3256 L -88.4979,-68.7877 L -88.589,-69.265
 L -88.6195,-69.75 L -88.6195,-74.25 L -88.589,-74.735 L -88.4979,-75.2123 L -88.3477,-75.6744 L -88.1408,-76.1141
 L -87.8805,-76.5244 L -87.5707,-76.8988 L -87.2165,-77.2315 L -86.8234,-77.5171 L -86.3975,-77.7512 L -85.9457,-77.9301
 L -85.4751,-78.0509 L -84.993,-78.1118 L 84.993,-78.1118 L 85.4751,-78.0509 L 85.9457,-77.9301 L 86.3975,-77.7512
 L 86.8234,-77.5171 L 87.2165,-77.2315 L 87.5707,-76.8988 L 87.8805,-76.5244 L 88.1408,-76.1141 L 88.3477,-75.6744
 L 88.4979,-75.2123 L 88.589,-74.735 L 88.6195,-74.25 L 88.6195,-69.75 L 88.589,-69.265 L 88.4979,-68.7877
 L 88.3477,-68.3256 L 88.1408,-67.8859 L 87.8805,-67.4756 L 87.5707,-67.1012 L 87.2165,-66.7685 L 86.8234,-66.4829
 L 86.3975,-66.2488 L 85.9457,-66.0699 L 85.4751,-65.9491 L 84.993,-65.8882 z
M 85.9369,-40.5886 L 86.5451,-40.7447 L 87.1289,-40.9759 L 87.6791,-41.2784 L 88.1871,-41.6474 L 88.6448,-42.0773
 L 89.0451,-42.5611 L 89.3815,-43.0912 L 89.6489,-43.6594 L 89.8429,-44.2566 L 89.9606,-44.8733 L 90,-45.5
 L 90,-50.5 L 89.9606,-51.1267 L 89.8429,-51.7434 L 89.6489,-52.3406 L 89.3815,-52.9088 L 89.0451,-53.4389
 L 88.6448,-53.9227 L 88.1871,-54.3526 L 87.6791,-54.7216 L 87.1289,-55.0241 L 86.5451,-55.2553 L 85.9369,-55.4114
 L 85.3139,-55.4901 L -85.3139,-55.4901 L -85.9369,-55.4114 L -86.5451,-55.2553 L -87.1289,-55.0241 L -87.6791,-54.7216
 L -88.1871,-54.3526 L -88.6448,-53.9227 L -89.0451,-53.4389 L -89.3815,-52.9088 L -89.6489,-52.3406 L -89.8429,-51.7434
 L -89.9606,-51.1267 L -90,-50.5 L -90,-45.5 L -89.9606,-44.8733 L -89.8429,-44.2566 L -89.6489,-43.6594
 L -89.3815,-43.0912 L -89.0451,-42.5611 L -88.6448,-42.0773 L -88.1871,-41.6474 L -87.6791,-41.2784 L -87.1289,-40.9759
 L -86.5451,-40.7447 L -85.9369,-40.5886 L -85.3139,-40.5099 L 85.3139,-40.5099 z
M -82.613,-46.2036 L -82.8373,-46.2319 L -83.0562,-46.2881 L -83.2664,-46.3713 L -83.4645,-46.4802 L -83.6474,-46.6131
 L -83.8121,-46.7678 L -83.9562,-46.942 L -84.0773,-47.1329 L -84.1736,-47.3374 L -84.2434,-47.5524 L -84.2858,-47.7744
 L -84.3,-48 L -84.2858,-48.2256 L -84.2434,-48.4476 L -84.1736,-48.6626 L -84.0773,-48.8671 L -83.9562,-49.058
 L -83.8121,-49.2322 L -83.6474,-49.3869 L -83.4645,-49.5198 L -83.2664,-49.6287 L -83.0562,-49.7119 L -82.8373,-49.7681
 L -82.613,-49.7964 L -82.387,-49.7964 L -82.1627,-49.7681 L -81.9438,-49.7119 L -81.7336,-49.6287 L -81.5355,-49.5198
 L -81.3526,-49.3869 L -81.1879,-49.2322 L -81.0438,-49.058 L -80.9226,-48.8671 L -80.8264,-48.6626 L -80.7565,-48.4476
 L -80.7142,-48.2256 L -80.7,-48 L -80.7142,-47.7744 L -80.7565,-47.5524 L -80.8264,-47.3374 L -80.9226,-47.1329
 L -81.0438,-46.942 L -81.1879,-46.7678 L -81.3526,-46.6131 L -81.5355,-46.4802 L -81.7336,-46.3713 L -81.9438,-46.2881
 L -82.1627,-46.2319 L -82.387,-46.2036 z
M 82.387,-46.2036 L 82.1627,-46.2319 L 81.9438,-46.2881 L 81.7336,-46.3713 L 81.5355,-46.4802 L 81.3526,-46.6131
 L 81.1879,-46.7678 L 81.0438,-46.942 L 80.9226,-47.1329 L 80.8264,-47.3374 L 80.7565,-47.5524 L 80.7142,-47.7744
 L 80.7,-48 L 80.7142,-48.2256 L 80.7565,-48.4476 L 80.8264,-48.6626 L 80.9226,-48.8671 L 81.0438,-49.058
 L 81.1879,-49.2322 L 81.3526,-49.3869 L 81.5355,-49.5198 L 81.7336,-49.6287 L 81.9438,-49.7119 L 82.1627,-49.7681
 L 82.387,-49.7964 L 82.613,-49.7964 L 82.8373,-49.7681 L 83.0562,-49.7119 L 83.2664,-49.6287 L 83.4645,-49.5198
 L 83.6474,-49.3869 L 83.8121,-49.2322 L 83.9562,-49.058 L 84.0773,-48.8671 L 84.1736,-48.6626 L 84.2434,-48.4476
 L 84.2858,-48.2256 L 84.3,-48 L 84.2858,-47.7744 L 84.2434,-47.5524 L 84.1736,-47.3374 L 84.0773,-47.1329
 L 83.9562,-46.942 L 83.8121,-46.7678 L 83.6474,-46.6131 L 83.4645,-46.4802 L 83.2664,-46.3713 L 83.0562,-46.2881
 L 82.8373,-46.2319 L 82.613,-46.2036 z
" stroke="black" fill="lightgray" stroke-width="0.5"/>
</svg>
