<?xml version="1.0" standalone="no"?>
<!DOCTYPE svg PUBLIC "-//W3C//DTD SVG 1.1//EN" "http://www.w3.org/Graphics/SVG/1.1/DTD/svg11.dtd">
<svg width="107mm" height="40mm" viewBox="-54 -80 107 40" xmlns="http://www.w3.org/2000/svg" version="1.1">
<title>OpenSCAD Model</title>
<path d="
M 48.4369,-64.5886 L 49.0451,-64.7447 L 49.6289,-64.9759 L 50.1791,-65.2784 L 50.6871,-65.6474 L 51.1448,-66.0773
 L 51.5451,-66.5611 L 51.8815,-67.0912 L 52.1489,-67.6594 L 52.3429,-68.2566 L 52.4606,-68.8733 L 52.5,-69.5
 L 52.5,-74.5 L 52.4606,-75.1267 L 52.3429,-75.7434 L 52.1489,-76.3406 L 51.8815,-76.9088 L 51.5451,-77.4389
 L 51.1448,-77.9227 L 50.6871,-78.3526 L 50.1791,-78.7216 L 49.6289,-79.0241 L 49.0451,-79.2553 L 48.4369,-79.4114
 L 47.8139,-79.4901 L -47.8139,-79.4901 L -48.4369,-79.4114 L -49.0451,-79.2553 L -49.6289,-79.0241 L -50.1791,-78.7216
 L -50.6871,-78.3526 L -51,-78.0587 L -51,-79.4792 L -54,-79.4792 L -54,-64.5208 L -51,-64.5208
 L -51,-65.9413 L -50.6871,-65.6474 L -50.1791,-65.2784 L -49.6289,-64.9759 L -49.0451,-64.7447 L -48.4369,-64.5886
 L -47.8139,-64.5099 L 47.8139,-64.5099 z
M -47.1954,-66.8932 L -47.5833,-66.9422 L -47.9619,-67.0394 L -48.3254,-67.1833 L -48.668,-67.3717 L -48.9842,-67.6015
 L -49.2692,-67.8691 L -49.5184,-68.1703 L -49.7279,-68.5004 L -49.8943,-68.8541 L -50.0151,-69.2259 L -50.0884,-69.6098
 L -50.1129,-70 L -50.1129,-74 L -50.0884,-74.3902 L -50.0151,-74.7741 L -49.8943,-75.1459 L -49.7279,-75.4996
 L -49.5184,-75.8297 L -49.2692,-76.1309 L -48.9842,-76.3985 L -48.668,-76.6283 L -48.3254,-76.8167 L -47.9619,-76.9606
 L -47.5833,-77.0578 L -47.1954,-77.1068 L 47.1954,-77.1068 L 47.5833,-77.0578 L 47.9619,-76.9606 L 48.3254,-76.8167
 L 48.668,-76.6283 L 48.9842,-76.3985 L 49.2692,-76.1309 L 49.5184,-75.8297 L 49.7279,-75.4996 L 49.8943,-75.1459
 L 50.0151,-74.7741 L 50.0884,-74.3902 L 50.1129,-74 L 50.1129,-70 L 50.0884,-69.6098 L 50.0151,-69.2259
 L 49.8943,-68.8541 L 49.7279,-68.5004 L 49.5184,-68.1703 L 49.2692,-67.8691 L 48.9842,-67.6015 L 48.668,-67.3717
 L 48.3254,-67.1833 L 47.9619,-67.0394 L 47.5833,-66.9422 L 47.1954,-66.8932 z
M 48.4369,-40.5886 L 49.0451,-40.7447 L 49.6289,-40.9759 L 50.1791,-41.2784 L 50.6871,-41.6474 L 51.1448,-42.0773
 L 51.5451,-42.5611 L 51.8815,-43.0912 L 52.1489,-43.6594 L 52.3429,-44.2566 L 52.4606,-44.8733 L 52.5,-45.5
 L 52.5,-50.5 L 52.4606,-51.1267 L 52.3429,-51.7434 L 52.1489,-52.3406 L 51.8815,-52.9088 L 51.5451,-53.4389
 L 51.1448,-53.9227 L 50.6871,-54.3526 L 50.1791,-54.7216 L 49.6289,-55.0241 L 49.0451,-55.2553 L 48.4369,-55.4114
 L 47.8139,-55.4901 L -47.8139,-55.4901 L -48.4369,-55.4114 L -49.0451,-55.2553 L -49.6289,-55.0241 L -50.1791,-54.7216
 L -50.6871,-54.3526 L -51,-54.0587 L -51,-54.1526 L -54,-54.1526 L -54,-41.8474 L -51,-41.8474
 L -51,-41.9413 L -50.6871,-41.6474 L -50.1791,-41.2784 L -49.6289,-40.9759 L -49.0451,-40.7447 L -48.4369,-40.5886
 L -47.8139,-40.5099 L 47.8139,-40.5099 z
M 44.8659,-45.8689 L 44.5999,-45.9025 L 44.3401,-45.9692 L 44.0908,-46.0679 L 43.8559,-46.1971 L 43.6389,-46.3547
 L 43.4434,-46.5383 L 43.2725,-46.7449 L 43.1288,-46.9713 L 43.0146,-47.214 L 42.9318,-47.469 L 42.8815,-47.7324
 L 42.8647,-48 L 42.8815,-48.2676 L 42.9318,-48.531 L 43.0146,-48.786 L 43.1288,-49.0287 L 43.2725,-49.2551
 L 43.4434,-49.4617 L 43.6389,-49.6453 L 43.8559,-49.8029 L 44.0908,-49.9321 L 44.3401,-50.0308 L 44.5999,-50.0975
 L 44.8659,-50.1311 L 45.1341,-50.1311 L 45.4001,-50.0975 L 45.6598,-50.0308 L 45.9092,-49.9321 L 46.1441,-49.8029
 L 46.3611,-49.6453 L 46.5565,-49.4617 L 46.7275,-49.2551 L 46.8712,-49.0287 L 46.9853,-48.786 L 47.0682,-48.531
 L 47.1185,-48.2676 L 47.1353,-48 L 47.1185,-47.7324 L 47.0682,-47.469 L 46.9853,-47.214 L 46.8712,-46.9713
 L 46.7275,-46.7449 L 46.5565,-46.5383 L 46.3611,-46.3547 L 46.1441,-46.1971 L 45.9092,-46.0679 L 45.6598,-45.9692
 L 45.4001,-45.9025 L 45.1341,-45.8689 z
M -45.1341,-45.8689 L -45.4001,-45.9025 L -45.6598,-45.9692 L -45.9092,-46.0679 L -46.1441,-46.1971 L -46.3611,-46.3547
 L -46.5565,-46.5383 L -46.7275,-46.7449 L -46.8712,-46.9713 L -46.9853,-47.214 L -47.0682,-47.469 L -47.1185,-47.7324
 L -47.1353,-48 L -47.1185,-48.2676 L -47.0682,-48.531 L -46.9853,-48.786 L -46.8712,-49.0287 L -46.7275,-49.2551
 L -46.5565,-49.4617 L -46.3611,-49.6453 L -46.1441,-49.8029 L -45.9092,-49.9321 L -45.6598,-50.0308 L -45.4001,-50.0975
 L -45.1341,-50.1311 L -44.8659,-50.1311 L -44.5999,-50.0975 L -44.3401,-50.0308 L -44.0908,-49.9321 L -43.8559,-49.8029
 L -43.6389,-49.6453 L -43.4434,-49.4617 L -43.2725,-49.2551 L -43.1288,-49.0287 L -43.0146,-48.786 L -42.9318,-48.531
 L -42.8815,-48.2676 L -42.8647,-48 L -42.8815,-47.7324 L -42.9318,-47.469 L -43.0146,-47.214 L -43.1288,-46.9713
 L -43.2725,-46.7449 L -43.4434,-46.5383 L -43.6389,-46.3547 L -43.8559,-46.1971 L -44.0908,-46.0679 L -44.3401,-45.9692
 L -44.5999,-45.9025 L -44.8659,-45.8689 z
" stroke="black" fill="lightgray" stroke-width="0.5"/>
</svg>
