<?xml version="1.0" standalone="no"?>
<!DOCTYPE svg PUBLIC "-//W3C//DTD SVG 1.1//EN" "http://www.w3.org/Graphics/SVG/1.1/DTD/svg11.dtd">
<svg width="77mm" height="40mm" viewBox="-39 -80 77 40" xmlns="http://www.w3.org/2000/svg" version="1.1">
<title>OpenSCAD Model</title>
<path d="
M 33.4369,-64.5886 L 34.0451,-64.7447 L 34.6289,-64.9759 L 35.1791,-65.2784 L 35.6871,-65.6474 L 36.1448,-66.0773
 L 36.5451,-66.5611 L 36.8815,-67.0912 L 37.1489,-67.6594 L 37.3429,-68.2566 L 37.4606,-68.8733 L 37.5,-69.5
 L 37.5,-74.5 L 37.4606,-75.1267 L 37.3429,-75.7434 L 37.1489,-76.3406 L 36.8815,-76.9088 L 36.5451,-77.4389
 L 36.1448,-77.9227 L 35.6871,-78.3526 L 35.1791,-78.7216 L 34.6289,-79.0241 L 34.0451,-79.2553 L 33.4369,-79.4114
 L 32.8139,-79.4901 L -32.8139,-79.4901 L -33.4369,-79.4114 L -34.0451,-79.2553 L -34.6289,-79.0241 L -35.1791,-78.7216
 L -35.6871,-78.3526 L -36,-78.0587 L -36,-79.4792 L -39,-79.4792 L -39,-64.5208 L -36,-64.5208
 L -36,-65.9413 L -35.6871,-65.6474 L -35.1791,-65.2784 L -34.6289,-64.9759 L -34.0451,-64.7447 L -33.4369,-64.5886
 L -32.8139,-64.5099 L 32.8139,-64.5099 z
M -32.1954,-66.8932 L -32.5833,-66.9422 L -32.9619,-67.0394 L -33.3254,-67.1833 L -33.668,-67.3717 L -33.9842,-67.6015
 L -34.2692,-67.8691 L -34.5184,-68.1703 L -34.7279,-68.5004 L -34.8943,-68.8541 L -35.0151,-69.2259 L -35.0884,-69.6098
 L -35.1129,-70 L -35.1129,-74 L -35.0884,-74.3902 L -35.0151,-74.7741 L -34.8943,-75.1459 L -34.7279,-75.4996
 L -34.5184,-75.8297 L -34.2692,-76.1309 L -33.9842,-76.3985 L -33.668,-76.6283 L -33.3254,-76.8167 L -32.9619,-76.9606
 L -32.5833,-77.0578 L -32.1954,-77.1068 L 32.1954,-77.1068 L 32.5833,-77.0578 L 32.9619,-76.9606 L 33.3254,-76.8167
 L 33.668,-76.6283 L 33.9842,-76.3985 L 34.2692,-76.1309 L 34.5184,-75.8297 L 34.7279,-75.4996 L 34.8943,-75.1459
 L 35.0151,-74.7741 L 35.0884,-74.3902 L 35.1129,-74 L 35.1129,-70 L 35.0884,-69.6098 L 35.0151,-69.2259
 L 34.8943,-68.8541 L 34.7279,-68.5004 L 34.5184,-68.1703 L 34.2692,-67.8691 L 33.9842,-67.6015 L 33.668,-67.3717
 L 33.3254,-67.1833 L 32.9619,-67.0394 L 32.5833,-66.9422 L 32.1954,-66.8932 z
M 33.4369,-40.5886 L 34.0451,-40.7447 L 34.6289,-40.9759 L 35.1791,-41.2784 L 35.6871,-41.6474 L 36.1448,-42.0773
 L 36.5451,-42.5611 L 36.8815,-43.0912 L 37.1489,-43.6594 L 37.3429,-44.2566 L 37.4606,-44.8733 L 37.5,-45.5
 L 37.5,-50.5 L 37.4606,-51.1267 L 37.3429,-51.7434 L 37.1489,-52.3406 L 36.8815,-52.9088 L 36.5451,-53.4389
 L 36.1448,-53.9227 L 35.6871,-54.3526 L 35.1791,-54.7216 L 34.6289,-55.0241 L 34.0451,-55.2553 L 33.4369,-55.4114
 L 32.8139,-55.4901 L -32.8139,-55.4901 L -33.4369,-55.4114 L -34.0451,-55.2553 L -34.6289,-55.0241 L -35.1791,-54.7216
 L -35.6871,-54.3526 L -36,-54.0587 L -36,-54.1526 L -39,-54.1526 L -39,-41.8474 L -36,-41.8474
 L -36,-41.9413 L -35.6871,-41.6474 L -35.1791,-41.2784 L -34.6289,-40.9759 L -34.0451,-40.7447 L -33.4369,-40.5886
 L -32.8139,-40.5099 L 32.8139,-40.5099 z
M 29.8659,-45.8689 L 29.5999,-45.9025 L 29.3401,-45.9692 L 29.0908,-46.0679 L 28.8559,-46.1971 L 28.6389,-46.3547
 L 28.4434,-46.5383 L 28.2725,-46.7449 L 28.1288,-46.9713 L 28.0146,-47.214 L 27.9318,-47.469 L 27.8815,-47.7324
 L 27.8647,-48 L 27.8815,-48.2676 L 27.9318,-48.531 L 28.0146,-48.786 L 28.1288,-49.0287 L 28.2725,-49.2551
 L 28.4434,-49.4617 L 28.6389,-49.6453 L 28.8559,-49.8029 L 29.0908,-49.9321 L 29.3401,-50.0308 L 29.5999,-50.0975
 L 29.8659,-50.1311 L 30.1341,-50.1311 L 30.4001,-50.0975 L 30.6598,-50.0308 L 30.9091,-49.9321 L 31.1441,-49.8029
 L 31.3611,-49.6453 L 31.5565,-49.4617 L 31.7275,-49.2551 L 31.8712,-49.0287 L 31.9853,-48.786 L 32.0682,-48.531
 L 32.1185,-48.2676 L 32.1353,-48 L 32.1185,-47.7324 L 32.0682,-47.469 L 31.9853,-47.214 L 31.8712,-46.9713
 L 31.7275,-46.7449 L 31.5565,-46.5383 L 31.3611,-46.3547 L 31.1441,-46.1971 L 30.9091,-46.0679 L 30.6598,-45.9692
 L 30.4001,-45.9025 L 30.1341,-45.8689 z
M -30.1341,-45.8689 L -30.4001,-45.9025 L -30.6598,-45.9692 L -30.9091,-46.0679 L -31.1441,-46.1971 L -31.3611,-46.3547
 L -31.5565,-46.5383 L -31.7275,-46.7449 L -31.8712,-46.9713 L -31.9853,-47.214 L -32.0682,-47.469 L -32.1185,-47.7324
 L -32.1353,-48 L -32.1185,-48.2676 L -32.0682,-48.531 L -31.9853,-48.786 L -31.8712,-49.0287 L -31.7275,-49.2551
 L -31.5565,-49.4617 L -31.3611,-49.6453 L -31.1441,-49.8029 L -30.9091,-49.9321 L -30.6598,-50.0308 L -30.4001,-50.0975
 L -30.1341,-50.1311 L -29.8659,-50.1311 L -29.5999,-50.0975 L -29.3401,-50.0308 L -29.0908,-49.9321 L -28.8559,-49.8029
 L -28.6389,-49.6453 L -28.4434,-49.4617 L -28.2725,-49.2551 L -28.1288,-49.0287 L -28.0146,-48.786 L -27.9318,-48.531
 L -27.8815,-48.2676 L -27.8647,-48 L -27.8815,-47.7324 L -27.9318,-47.469 L -28.0146,-47.214 L -28.1288,-46.9713
 L -28.2725,-46.7449 L -28.4434,-46.5383 L -28.6389,-46.3547 L -28.8559,-46.1971 L -29.0908,-46.0679 L -29.3401,-45.9692
 L -29.5999,-45.9025 L -29.8659,-45.8689 z
" stroke="black" fill="lightgray" stroke-width="0.5"/>
</svg>
