<?xml version="1.0" standalone="no"?>
<!DOCTYPE svg PUBLIC "-//W3C//DTD SVG 1.1//EN" "http://www.w3.org/Graphics/SVG/1.1/DTD/svg11.dtd">
<svg width="30mm" height="786mm" viewBox="-15 -1506 30 786" xmlns="http://www.w3.org/2000/svg" version="1.1">
<title>OpenSCAD Model</title>
<path d="
M 10.9369,-1356.09 L 11.5451,-1356.24 L 12.1289,-1356.48 L 12.6791,-1356.78 L 13.1871,-1357.15 L 13.6448,-1357.58
 L 14.0451,-1358.06 L 14.3815,-1358.59 L 14.6489,-1359.16 L 14.8429,-1359.76 L 14.9606,-1360.37 L 15,-1361
 L 15,-1501 L 14.9606,-1501.63 L 14.8429,-1502.24 L 14.6489,-1502.84 L 14.3815,-1503.41 L 14.0451,-1503.94
 L 13.6448,-1504.42 L 13.1871,-1504.85 L 12.6791,-1505.22 L 12.1289,-1505.52 L 11.5451,-1505.76 L 10.9369,-1505.91
 L 10.3139,-1505.99 L -10.3139,-1505.99 L -10.9369,-1505.91 L -11.5451,-1505.76 L -12.1289,-1505.52 L -12.6791,-1505.22
 L -13.1871,-1504.85 L -13.6448,-1504.42 L -14.0451,-1503.94 L -14.3815,-1503.41 L -14.6489,-1502.84 L -14.8429,-1502.24
 L -14.9606,-1501.63 L -15,-1501 L -15,-1361 L -14.9606,-1360.37 L -14.8429,-1359.76 L -14.6489,-1359.16
 L -14.3815,-1358.59 L -14.0451,-1358.06 L -13.6448,-1357.58 L -13.1871,-1357.15 L -12.6791,-1356.78 L -12.1289,-1356.48
 L -11.5451,-1356.24 L -10.9369,-1356.09 L -10.3139,-1356.01 L 10.3139,-1356.01 z
M -9.75116,-1357.51 L -10.2495,-1357.57 L -10.7361,-1357.7 L -11.2031,-1357.88 L -11.6433,-1358.12 L -12.0497,-1358.42
 L -12.4159,-1358.76 L -12.7361,-1359.15 L -13.0052,-1359.57 L -13.2191,-1360.03 L -13.3743,-1360.51 L -13.4684,-1361
 L -13.5,-1361.5 L -13.5,-1500.5 L -13.4684,-1501 L -13.3743,-1501.49 L -13.2191,-1501.97 L -13.0052,-1502.43
 L -12.7361,-1502.85 L -12.4159,-1503.24 L -12.0497,-1503.58 L -11.6433,-1503.88 L -11.2031,-1504.12 L -10.7361,-1504.3
 L -10.2495,-1504.43 L -9.75116,-1504.49 L 9.75116,-1504.49 L 10.2495,-1504.43 L 10.7361,-1504.3 L 11.2031,-1504.12
 L 11.6433,-1503.88 L 12.0497,-1503.58 L 12.4159,-1503.24 L 12.7361,-1502.85 L 13.0052,-1502.43 L 13.2191,-1501.97
 L 13.3743,-1501.49 L 13.4684,-1501 L 13.5,-1500.5 L 13.5,-1361.5 L 13.4684,-1361 L 13.3743,-1360.51
 L 13.2191,-1360.03 L 13.0052,-1359.57 L 12.7361,-1359.15 L 12.4159,-1358.76 L 12.0497,-1358.42 L 11.6433,-1358.12
 L 11.2031,-1357.88 L 10.7361,-1357.7 L 10.2495,-1357.57 L 9.75116,-1357.51 z
M 10.9369,-1197.09 L 11.5451,-1197.24 L 12.1289,-1197.48 L 12.6791,-1197.78 L 13.1871,-1198.15 L 13.6448,-1198.58
 L 14.0451,-1199.06 L 14.3815,-1199.59 L 14.6489,-1200.16 L 14.8429,-1200.76 L 14.9606,-1201.37 L 15,-1202
 L 15,-1342 L 14.9606,-1342.63 L 14.8429,-1343.24 L 14.6489,-1343.84 L 14.3815,-1344.41 L 14.0451,-1344.94
 L 13.6448,-1345.42 L 13.1871,-1345.85 L 12.6791,-1346.22 L 12.1289,-1346.52 L 11.5451,-1346.76 L 10.9369,-1346.91
 L 10.3139,-1346.99 L -10.3139,-1346.99 L -10.9369,-1346.91 L -11.5451,-1346.76 L -12.1289,-1346.52 L -12.6791,-1346.22
 L -13.1871,-1345.85 L -13.6448,-1345.42 L -14.0451,-1344.94 L -14.3815,-1344.41 L -14.6489,-1343.84 L -14.8429,-1343.24
 L -14.9606,-1342.63 L -15,-1342 L -15,-1202 L -14.9606,-1201.37 L -14.8429,-1200.76 L -14.6489,-1200.16
 L -14.3815,-1199.59 L -14.0451,-1199.06 L -13.6448,-1198.58 L -13.1871,-1198.15 L -12.6791,-1197.78 L -12.1289,-1197.48
 L -11.5451,-1197.24 L -10.9369,-1197.09 L -10.3139,-1197.01 L 10.3139,-1197.01 z
M -9.75116,-1198.51 L -10.2495,-1198.57 L -10.7361,-1198.7 L -11.2031,-1198.88 L -11.6433,-1199.12 L -12.0497,-1199.42
 L -12.4159,-1199.76 L -12.7361,-1200.15 L -13.0052,-1200.57 L -13.2191,-1201.03 L -13.3743,-1201.51 L -13.4684,-1202
 L -13.5,-1202.5 L -13.5,-1341.5 L -13.4684,-1342 L -13.3743,-1342.49 L -13.2191,-1342.97 L -13.0052,-1343.43
 L -12.7361,-1343.85 L -12.4159,-1344.24 L -12.0497,-1344.58 L -11.6433,-1344.88 L -11.2031,-1345.12 L -10.7361,-1345.3
 L -10.2495,-1345.43 L -9.75116,-1345.49 L 9.75116,-1345.49 L 10.2495,-1345.43 L 10.7361,-1345.3 L 11.2031,-1345.12
 L 11.6433,-1344.88 L 12.0497,-1344.58 L 12.4159,-1344.24 L 12.7361,-1343.85 L 13.0052,-1343.43 L 13.2191,-1342.97
 L 13.3743,-1342.49 L 13.4684,-1342 L 13.5,-1341.5 L 13.5,-1202.5 L 13.4684,-1202 L 13.3743,-1201.51
 L 13.2191,-1201.03 L 13.0052,-1200.57 L 12.7361,-1200.15 L 12.4159,-1199.76 L 12.0497,-1199.42 L 11.6433,-1199.12
 L 11.2031,-1198.88 L 10.7361,-1198.7 L 10.2495,-1198.57 L 9.75116,-1198.51 z
M 10.9369,-1038.09 L 11.5451,-1038.24 L 12.1289,-1038.48 L 12.6791,-1038.78 L 13.1871,-1039.15 L 13.6448,-1039.58
 L 14.0451,-1040.06 L 14.3815,-1040.59 L 14.6489,-1041.16 L 14.8429,-1041.76 L 14.9606,-1042.37 L 15,-1043
 L 15,-1183 L 14.9606,-1183.63 L 14.8429,-1184.24 L 14.6489,-1184.84 L 14.3815,-1185.41 L 14.0451,-1185.94
 L 13.6448,-1186.42 L 13.1871,-1186.85 L 12.6791,-1187.22 L 12.1289,-1187.52 L 11.5451,-1187.76 L 10.9369,-1187.91
 L 10.3139,-1187.99 L -10.3139,-1187.99 L -10.9369,-1187.91 L -11.5451,-1187.76 L -12.1289,-1187.52 L -12.6791,-1187.22
 L -13.1871,-1186.85 L -13.6448,-1186.42 L -14.0451,-1185.94 L -14.3815,-1185.41 L -14.6489,-1184.84 L -14.8429,-1184.24
 L -14.9606,-1183.63 L -15,-1183 L -15,-1043 L -14.9606,-1042.37 L -14.8429,-1041.76 L -14.6489,-1041.16
 L -14.3815,-1040.59 L -14.0451,-1040.06 L -13.6448,-1039.58 L -13.1871,-1039.15 L -12.6791,-1038.78 L -12.1289,-1038.48
 L -11.5451,-1038.24 L -10.9369,-1038.09 L -10.3139,-1038.01 L 10.3139,-1038.01 z
M -9.75116,-1039.51 L -10.2495,-1039.57 L -10.7361,-1039.7 L -11.2031,-1039.88 L -11.6433,-1040.12 L -12.0497,-1040.42
 L -12.4159,-1040.76 L -12.7361,-1041.15 L -13.0052,-1041.57 L -13.2191,-1042.03 L -13.3743,-1042.51 L -13.4684,-1043
 L -13.5,-1043.5 L -13.5,-1182.5 L -13.4684,-1183 L -13.3743,-1183.49 L -13.2191,-1183.97 L -13.0052,-1184.43
 L -12.7361,-1184.85 L -12.4159,-1185.24 L -12.0497,-1185.58 L -11.6433,-1185.88 L -11.2031,-1186.12 L -10.7361,-1186.3
 L -10.2495,-1186.43 L -9.75116,-1186.49 L 9.75116,-1186.49 L 10.2495,-1186.43 L 10.7361,-1186.3 L 11.2031,-1186.12
 L 11.6433,-1185.88 L 12.0497,-1185.58 L 12.4159,-1185.24 L 12.7361,-1184.85 L 13.0052,-1184.43 L 13.2191,-1183.97
 L 13.3743,-1183.49 L 13.4684,-1183 L 13.5,-1182.5 L 13.5,-1043.5 L 13.4684,-1043 L 13.3743,-1042.51
 L 13.2191,-1042.03 L 13.0052,-1041.57 L 12.7361,-1041.15 L 12.4159,-1040.76 L 12.0497,-1040.42 L 11.6433,-1040.12
 L 11.2031,-1039.88 L 10.7361,-1039.7 L 10.2495,-1039.57 L 9.75116,-1039.51 z
M 10.9369,-879.089 L 11.5451,-879.245 L 12.1289,-879.476 L 12.6791,-879.778 L 13.1871,-880.147 L 13.6448,-880.577
 L 14.0451,-881.061 L 14.3815,-881.591 L 14.6489,-882.159 L 14.8429,-882.757 L 14.9606,-883.373 L 15,-884
 L 15,-1024 L 14.9606,-1024.63 L 14.8429,-1025.24 L 14.6489,-1025.84 L 14.3815,-1026.41 L 14.0451,-1026.94
 L 13.6448,-1027.42 L 13.1871,-1027.85 L 12.6791,-1028.22 L 12.1289,-1028.52 L 11.5451,-1028.76 L 10.9369,-1028.91
 L 10.3139,-1028.99 L -10.3139,-1028.99 L -10.9369,-1028.91 L -11.5451,-1028.76 L -12.1289,-1028.52 L -12.6791,-1028.22
 L -13.1871,-1027.85 L -13.6448,-1027.42 L -14.0451,-1026.94 L -14.3815,-1026.41 L -14.6489,-1025.84 L -14.8429,-1025.24
 L -14.9606,-1024.63 L -15,-1024 L -15,-884 L -14.9606,-883.373 L -14.8429,-882.757 L -14.6489,-882.159
 L -14.3815,-881.591 L -14.0451,-881.061 L -13.6448,-880.577 L -13.1871,-880.147 L -12.6791,-879.778 L -12.1289,-879.476
 L -11.5451,-879.245 L -10.9369,-879.089 L -10.3139,-879.01 L 10.3139,-879.01 z
M -9.69545,-881.393 L -10.0833,-881.442 L -10.4619,-881.539 L -10.8254,-881.683 L -11.168,-881.872 L -11.4842,-882.101
 L -11.7692,-882.369 L -12.0184,-882.67 L -12.2279,-883 L -12.3943,-883.354 L -12.5151,-883.726 L -12.5884,-884.11
 L -12.6129,-884.5 L -12.6129,-1023.5 L -12.5884,-1023.89 L -12.5151,-1024.27 L -12.3943,-1024.65 L -12.2279,-1025
 L -12.0184,-1025.33 L -11.7692,-1025.63 L -11.4842,-1025.9 L -11.168,-1026.13 L -10.8254,-1026.32 L -10.4619,-1026.46
 L -10.0833,-1026.56 L -9.69545,-1026.61 L 9.69545,-1026.61 L 10.0833,-1026.56 L 10.4619,-1026.46 L 10.8254,-1026.32
 L 11.168,-1026.13 L 11.4842,-1025.9 L 11.7692,-1025.63 L 12.0184,-1025.33 L 12.2279,-1025 L 12.3943,-1024.65
 L 12.5151,-1024.27 L 12.5884,-1023.89 L 12.6129,-1023.5 L 12.6129,-884.5 L 12.5884,-884.11 L 12.5151,-883.726
 L 12.3943,-883.354 L 12.2279,-883 L 12.0184,-882.67 L 11.7692,-882.369 L 11.4842,-882.101 L 11.168,-881.872
 L 10.8254,-881.683 L 10.4619,-881.539 L 10.0833,-881.442 L 9.69545,-881.393 z
M 10.9369,-720.089 L 11.5451,-720.245 L 12.1289,-720.476 L 12.6791,-720.778 L 13.1871,-721.147 L 13.6448,-721.577
 L 14.0451,-722.061 L 14.3815,-722.591 L 14.6489,-723.159 L 14.8429,-723.757 L 14.9606,-724.373 L 15,-725
 L 15,-865 L 14.9606,-865.627 L 14.8429,-866.243 L 14.6489,-866.841 L 14.3815,-867.409 L 14.0451,-867.939
 L 13.6448,-868.423 L 13.1871,-868.853 L 12.6791,-869.222 L 12.1289,-869.524 L 11.5451,-869.755 L 10.9369,-869.911
 L 10.3139,-869.99 L -10.3139,-869.99 L -10.9369,-869.911 L -11.5451,-869.755 L -12.1289,-869.524 L -12.6791,-869.222
 L -13.1871,-868.853 L -13.6448,-868.423 L -14.0451,-867.939 L -14.3815,-867.409 L -14.6489,-866.841 L -14.8429,-866.243
 L -14.9606,-865.627 L -15,-865 L -15,-725 L -14.9606,-724.373 L -14.8429,-723.757 L -14.6489,-723.159
 L -14.3815,-722.591 L -14.0451,-722.061 L -13.6448,-721.577 L -13.1871,-721.147 L -12.6791,-720.778 L -12.1289,-720.476
 L -11.5451,-720.245 L -10.9369,-720.089 L -10.3139,-720.01 L 10.3139,-720.01 z
M 7.36592,-860.369 L 7.09988,-860.403 L 6.84015,-860.469 L 6.59084,-860.568 L 6.35585,-860.697 L 6.1389,-860.855
 L 5.94344,-861.038 L 5.77251,-861.245 L 5.62881,-861.471 L 5.51465,-861.714 L 5.43178,-861.969 L 5.38153,-862.232
 L 5.3647,-862.5 L 5.38153,-862.768 L 5.43178,-863.031 L 5.51465,-863.286 L 5.62881,-863.529 L 5.77251,-863.755
 L 5.94344,-863.962 L 6.1389,-864.145 L 6.35585,-864.303 L 6.59084,-864.432 L 6.84015,-864.531 L 7.09988,-864.597
 L 7.36592,-864.631 L 7.63406,-864.631 L 7.9001,-864.597 L 8.15984,-864.531 L 8.40915,-864.432 L 8.64413,-864.303
 L 8.86108,-864.145 L 9.05655,-863.962 L 9.22748,-863.755 L 9.37117,-863.529 L 9.48534,-863.286 L 9.56821,-863.031
 L 9.61845,-862.768 L 9.63528,-862.5 L 9.61845,-862.232 L 9.56821,-861.969 L 9.48534,-861.714 L 9.37117,-861.471
 L 9.22748,-861.245 L 9.05655,-861.038 L 8.86108,-860.855 L 8.64413,-860.697 L 8.40915,-860.568 L 8.15984,-860.469
 L 7.9001,-860.403 L 7.63406,-860.369 z
M -7.63406,-860.369 L -7.9001,-860.403 L -8.15984,-860.469 L -8.40915,-860.568 L -8.64413,-860.697 L -8.86108,-860.855
 L -9.05655,-861.038 L -9.22748,-861.245 L -9.37117,-861.471 L -9.48534,-861.714 L -9.56821,-861.969 L -9.61845,-862.232
 L -9.63528,-862.5 L -9.61845,-862.768 L -9.56821,-863.031 L -9.48534,-863.286 L -9.37117,-863.529 L -9.22748,-863.755
 L -9.05655,-863.962 L -8.86108,-864.145 L -8.64413,-864.303 L -8.40915,-864.432 L -8.15984,-864.531 L -7.9001,-864.597
 L -7.63406,-864.631 L -7.36592,-864.631 L -7.09988,-864.597 L -6.84015,-864.531 L -6.59084,-864.432 L -6.35585,-864.303
 L -6.1389,-864.145 L -5.94344,-863.962 L -5.77251,-863.755 L -5.62881,-863.529 L -5.51465,-863.286 L -5.43178,-863.031
 L -5.38153,-862.768 L -5.3647,-862.5 L -5.38153,-862.232 L -5.43178,-861.969 L -5.51465,-861.714 L -5.62881,-861.471
 L -5.77251,-861.245 L -5.94344,-861.038 L -6.1389,-860.855 L -6.35585,-860.697 L -6.59084,-860.568 L -6.84015,-860.469
 L -7.09988,-860.403 L -7.36592,-860.369 z
M 7.36592,-725.369 L 7.09988,-725.403 L 6.84015,-725.469 L 6.59084,-725.568 L 6.35585,-725.697 L 6.1389,-725.855
 L 5.94344,-726.038 L 5.77251,-726.245 L 5.62881,-726.471 L 5.51465,-726.714 L 5.43178,-726.969 L 5.38153,-727.232
 L 5.3647,-727.5 L 5.38153,-727.768 L 5.43178,-728.031 L 5.51465,-728.286 L 5.62881,-728.529 L 5.77251,-728.755
 L 5.94344,-728.962 L 6.1389,-729.145 L 6.35585,-729.303 L 6.59084,-729.432 L 6.84015,-729.531 L 7.09988,-729.597
 L 7.36592,-729.631 L 7.63406,-729.631 L 7.9001,-729.597 L 8.15984,-729.531 L 8.40915,-729.432 L 8.64413,-729.303
 L 8.86108,-729.145 L 9.05655,-728.962 L 9.22748,-728.755 L 9.37117,-728.529 L 9.48534,-728.286 L 9.56821,-728.031
 L 9.61845,-727.768 L 9.63528,-727.5 L 9.61845,-727.232 L 9.56821,-726.969 L 9.48534,-726.714 L 9.37117,-726.471
 L 9.22748,-726.245 L 9.05655,-726.038 L 8.86108,-725.855 L 8.64413,-725.697 L 8.40915,-725.568 L 8.15984,-725.469
 L 7.9001,-725.403 L 7.63406,-725.369 z
M -7.63406,-725.369 L -7.9001,-725.403 L -8.15984,-725.469 L -8.40915,-725.568 L -8.64413,-725.697 L -8.86108,-725.855
 L -9.05655,-726.038 L -9.22748,-726.245 L -9.37117,-726.471 L -9.48534,-726.714 L -9.56821,-726.969 L -9.61845,-727.232
 L -9.63528,-727.5 L -9.61845,-727.768 L -9.56821,-728.031 L -9.48534,-728.286 L -9.37117,-728.529 L -9.22748,-728.755
 L -9.05655,-728.962 L -8.86108,-729.145 L -8.64413,-729.303 L -8.40915,-729.432 L -8.15984,-729.531 L -7.9001,-729.597
 L -7.63406,-729.631 L -7.36592,-729.631 L -7.09988,-729.597 L -6.84015,-729.531 L -6.59084,-729.432 L -6.35585,-729.303
 L -6.1389,-729.145 L -5.94344,-728.962 L -5.77251,-728.755 L -5.62881,-728.529 L -5.51465,-728.286 L -5.43178,-728.031
 L -5.38153,-727.768 L -5.3647,-727.5 L -5.38153,-727.232 L -5.43178,-726.969 L -5.51465,-726.714 L -5.62881,-726.471
 L -5.77251,-726.245 L -5.94344,-726.038 L -6.1389,-725.855 L -6.35585,-725.697 L -6.59084,-725.568 L -6.84015,-725.469
 L -7.09988,-725.403 L -7.36592,-725.369 z
" stroke="black" fill="lightgray" stroke-width="0.5"/>
</svg>
