<?xml version="1.0" standalone="no"?>
<!DOCTYPE svg PUBLIC "-//W3C//DTD SVG 1.1//EN" "http://www.w3.org/Graphics/SVG/1.1/DTD/svg11.dtd">
<svg width="166mm" height="108mm" viewBox="-83 -171 166 108" xmlns="http://www.w3.org/2000/svg" version="1.1">
<title>OpenSCAD Model</title>
<path d="
M 78.4369,-141.089 L 79.0451,-141.245 L 79.6289,-141.476 L 80.1791,-141.778 L 80.6871,-142.147 L 81.1448,-142.577
 L 81.5451,-143.061 L 81.8815,-143.591 L 82.1489,-144.159 L 82.3429,-144.757 L 82.4606,-145.373 L 82.5,-146
 L 82.5,-166 L 82.4606,-166.627 L 82.3429,-167.243 L 82.1489,-167.841 L 81.8815,-168.409 L 81.5451,-168.939
 L 81.1448,-169.423 L 80.6871,-169.853 L 80.1791,-170.222 L 79.6289,-170.524 L 79.0451,-170.755 L 78.4369,-170.911
 L 77.8139,-170.99 L -77.8139,-170.99 L -78.4369,-170.911 L -79.0451,-170.755 L -79.6289,-170.524 L -80.1791,-170.222
 L -80.6871,-169.853 L -81.1448,-169.423 L -81.5451,-168.939 L -81.8815,-168.409 L -82.1489,-167.841 L -82.3429,-167.243
 L -82.4606,-166.627 L -82.5,-166 L -82.5,-146 L -82.4606,-145.373 L -82.3429,-144.757 L -82.1489,-144.159
 L -81.8815,-143.591 L -81.5451,-143.061 L -81.1448,-142.577 L -80.6871,-142.147 L -80.1791,-141.778 L -79.6289,-141.476
 L -79.0451,-141.245 L -78.4369,-141.089 L -77.8139,-141.01 L 77.8139,-141.01 z
M -77.5482,-141.509 L -78.1401,-141.584 L -78.7178,-141.732 L -79.2724,-141.952 L -79.7952,-142.239 L -80.2778,-142.59
 L -80.7126,-142.998 L -81.0928,-143.458 L -81.4125,-143.962 L -81.6664,-144.501 L -81.8508,-145.069 L -81.9625,-145.655
 L -82,-146.25 L -82,-165.75 L -81.9625,-166.345 L -81.8508,-166.931 L -81.6664,-167.499 L -81.4125,-168.038
 L -81.0928,-168.542 L -80.7126,-169.002 L -80.2778,-169.41 L -79.7952,-169.761 L -79.2724,-170.048 L -78.7178,-170.268
 L -78.1401,-170.416 L -77.5482,-170.491 L 77.5482,-170.491 L 78.1401,-170.416 L 78.7178,-170.268 L 79.2724,-170.048
 L 79.7952,-169.761 L 80.2778,-169.41 L 80.7126,-169.002 L 81.0928,-168.542 L 81.4125,-168.038 L 81.6664,-167.499
 L 81.8508,-166.931 L 81.9625,-166.345 L 82,-165.75 L 82,-146.25 L 81.9625,-145.655 L 81.8508,-145.069
 L 81.6664,-144.501 L 81.4125,-143.962 L 81.0928,-143.458 L 80.7126,-142.998 L 80.2778,-142.59 L 79.7952,-142.239
 L 79.2724,-141.952 L 78.7178,-141.732 L 78.1401,-141.584 L 77.5482,-141.509 z
M 78.4369,-102.089 L 79.0451,-102.245 L 79.6289,-102.476 L 80.1791,-102.778 L 80.6871,-103.147 L 81.1448,-103.577
 L 81.5451,-104.061 L 81.8815,-104.591 L 82.1489,-105.159 L 82.3429,-105.757 L 82.4606,-106.373 L 82.5,-107
 L 82.5,-127 L 82.4606,-127.627 L 82.3429,-128.243 L 82.1489,-128.841 L 81.8815,-129.409 L 81.5451,-129.939
 L 81.1448,-130.423 L 80.6871,-130.853 L 80.1791,-131.222 L 79.6289,-131.524 L 79.0451,-131.755 L 78.4369,-131.911
 L 77.8139,-131.99 L -77.8139,-131.99 L -78.4369,-131.911 L -79.0451,-131.755 L -79.6289,-131.524 L -80.1791,-131.222
 L -80.6871,-130.853 L -81.1448,-130.423 L -81.5451,-129.939 L -81.8815,-129.409 L -82.1489,-128.841 L -82.3429,-128.243
 L -82.4606,-127.627 L -82.5,-127 L -82.5,-107 L -82.4606,-106.373 L -82.3429,-105.757 L -82.1489,-105.159
 L -81.8815,-104.591 L -81.5451,-104.061 L -81.1448,-103.577 L -80.6871,-103.147 L -80.1791,-102.778 L -79.6289,-102.476
 L -79.0451,-102.245 L -78.4369,-102.089 L -77.8139,-102.01 L 77.8139,-102.01 z
M -77.493,-103.388 L -77.9751,-103.449 L -78.4457,-103.57 L -78.8975,-103.749 L -79.3234,-103.983 L -79.7165,-104.269
 L -80.0707,-104.601 L -80.3805,-104.976 L -80.6408,-105.386 L -80.8477,-105.826 L -80.9979,-106.288 L -81.089,-106.765
 L -81.1195,-107.25 L -81.1195,-126.75 L -81.089,-127.235 L -80.9979,-127.712 L -80.8477,-128.174 L -80.6408,-128.614
 L -80.3805,-129.024 L -80.0707,-129.399 L -79.7165,-129.731 L -79.3234,-130.017 L -78.8975,-130.251 L -78.4457,-130.43
 L -77.9751,-130.551 L -77.493,-130.612 L 77.493,-130.612 L 77.9751,-130.551 L 78.4457,-130.43 L 78.8975,-130.251
 L 79.3234,-130.017 L 79.7165,-129.731 L 80.0707,-129.399 L 80.3805,-129.024 L 80.6408,-128.614 L 80.8477,-128.174
 L 80.9979,-127.712 L 81.089,-127.235 L 81.1195,-126.75 L 81.1195,-107.25 L 81.089,-106.765 L 80.9979,-106.288
 L 80.8477,-105.826 L 80.6408,-105.386 L 80.3805,-104.976 L 80.0707,-104.601 L 79.7165,-104.269 L 79.3234,-103.983
 L 78.8975,-103.749 L 78.4457,-103.57 L 77.9751,-103.449 L 77.493,-103.388 z
M 78.4369,-63.0886 L 79.0451,-63.2447 L 79.6289,-63.4759 L 80.1791,-63.7784 L 80.6871,-64.1474 L 81.1448,-64.5773
 L 81.5451,-65.0611 L 81.8815,-65.5912 L 82.1489,-66.1594 L 82.3429,-66.7566 L 82.4606,-67.3733 L 82.5,-68
 L 82.5,-88 L 82.4606,-88.6267 L 82.3429,-89.2434 L 82.1489,-89.8406 L 81.8815,-90.4088 L 81.5451,-90.9389
 L 81.1448,-91.4227 L 80.6871,-91.8526 L 80.1791,-92.2216 L 79.6289,-92.5241 L 79.0451,-92.7553 L 78.4369,-92.9114
 L 77.8139,-92.9901 L -77.8139,-92.9901 L -78.4369,-92.9114 L -79.0451,-92.7553 L -79.6289,-92.5241 L -80.1791,-92.2216
 L -80.6871,-91.8526 L -81.1448,-91.4227 L -81.5451,-90.9389 L -81.8815,-90.4088 L -82.1489,-89.8406 L -82.3429,-89.2434
 L -82.4606,-88.6267 L -82.5,-88 L -82.5,-68 L -82.4606,-67.3733 L -82.3429,-66.7566 L -82.1489,-66.1594
 L -81.8815,-65.5912 L -81.5451,-65.0611 L -81.1448,-64.5773 L -80.6871,-64.1474 L -80.1791,-63.7784 L -79.6289,-63.4759
 L -79.0451,-63.2447 L -78.4369,-63.0886 L -77.8139,-63.0099 L 77.8139,-63.0099 z
M 74.887,-83.7036 L 74.6627,-83.7319 L 74.4438,-83.7881 L 74.2336,-83.8713 L 74.0355,-83.9802 L 73.8526,-84.1131
 L 73.6879,-84.2678 L 73.5438,-84.442 L 73.4226,-84.6328 L 73.3264,-84.8374 L 73.2565,-85.0524 L 73.2142,-85.2744
 L 73.2,-85.5 L 73.2142,-85.7256 L 73.2565,-85.9476 L 73.3264,-86.1626 L 73.4226,-86.3671 L 73.5438,-86.558
 L 73.6879,-86.7322 L 73.8526,-86.8869 L 74.0355,-87.0198 L 74.2336,-87.1287 L 74.4438,-87.2119 L 74.6627,-87.2681
 L 74.887,-87.2964 L 75.113,-87.2964 L 75.3373,-87.2681 L 75.5562,-87.2119 L 75.7664,-87.1287 L 75.9645,-87.0198
 L 76.1474,-86.8869 L 76.3121,-86.7322 L 76.4562,-86.558 L 76.5773,-86.3671 L 76.6736,-86.1626 L 76.7434,-85.9476
 L 76.7858,-85.7256 L 76.8,-85.5 L 76.7858,-85.2744 L 76.7434,-85.0524 L 76.6736,-84.8374 L 76.5773,-84.6328
 L 76.4562,-84.442 L 76.3121,-84.2678 L 76.1474,-84.1131 L 75.9645,-83.9802 L 75.7664,-83.8713 L 75.5562,-83.7881
 L 75.3373,-83.7319 L 75.113,-83.7036 z
M -75.113,-83.7036 L -75.3373,-83.7319 L -75.5562,-83.7881 L -75.7664,-83.8713 L -75.9645,-83.9802 L -76.1474,-84.1131
 L -76.3121,-84.2678 L -76.4562,-84.442 L -76.5773,-84.6328 L -76.6736,-84.8374 L -76.7434,-85.0524 L -76.7858,-85.2744
 L -76.8,-85.5 L -76.7858,-85.7256 L -76.7434,-85.9476 L -76.6736,-86.1626 L -76.5773,-86.3671 L -76.4562,-86.558
 L -76.3121,-86.7322 L -76.1474,-86.8869 L -75.9645,-87.0198 L -75.7664,-87.1287 L -75.5562,-87.2119 L -75.3373,-87.2681
 L -75.113,-87.2964 L -74.887,-87.2964 L -74.6627,-87.2681 L -74.4438,-87.2119 L -74.2336,-87.1287 L -74.0355,-87.0198
 L -73.8526,-86.8869 L -73.6879,-86.7322 L -73.5438,-86.558 L -73.4226,-86.3671 L -73.3264,-86.1626 L -73.2565,-85.9476
 L -73.2142,-85.7256 L -73.2,-85.5 L -73.2142,-85.2744 L -73.2565,-85.0524 L -73.3264,-84.8374 L -73.4226,-84.6328
 L -73.5438,-84.442 L -73.6879,-84.2678 L -73.8526,-84.1131 L -74.0355,-83.9802 L -74.2336,-83.8713 L -74.4438,-83.7881
 L -74.6627,-83.7319 L -74.887,-83.7036 z
M 74.887,-68.7036 L 74.6627,-68.7319 L 74.4438,-68.7881 L 74.2336,-68.8713 L 74.0355,-68.9802 L 73.8526,-69.1131
 L 73.6879,-69.2678 L 73.5438,-69.442 L 73.4226,-69.6329 L 73.3264,-69.8374 L 73.2565,-70.0524 L 73.2142,-70.2744
 L 73.2,-70.5 L 73.2142,-70.7256 L 73.2565,-70.9476 L 73.3264,-71.1626 L 73.4226,-71.3672 L 73.5438,-71.558
 L 73.6879,-71.7322 L 73.8526,-71.8869 L 74.0355,-72.0198 L 74.2336,-72.1287 L 74.4438,-72.2119 L 74.6627,-72.2681
 L 74.887,-72.2964 L 75.113,-72.2964 L 75.3373,-72.2681 L 75.5562,-72.2119 L 75.7664,-72.1287 L 75.9645,-72.0198
 L 76.1474,-71.8869 L 76.3121,-71.7322 L 76.4562,-71.558 L 76.5773,-71.3672 L 76.6736,-71.1626 L 76.7434,-70.9476
 L 76.7858,-70.7256 L 76.8,-70.5 L 76.7858,-70.2744 L 76.7434,-70.0524 L 76.6736,-69.8374 L 76.5773,-69.6329
 L 76.4562,-69.442 L 76.3121,-69.2678 L 76.1474,-69.1131 L 75.9645,-68.9802 L 75.7664,-68.8713 L 75.5562,-68.7881
 L 75.3373,-68.7319 L 75.113,-68.7036 z
M -75.113,-68.7036 L -75.3373,-68.7319 L -75.5562,-68.7881 L -75.7664,-68.8713 L -75.9645,-68.9802 L -76.1474,-69.1131
 L -76.3121,-69.2678 L -76.4562,-69.442 L -76.5773,-69.6329 L -76.6736,-69.8374 L -76.7434,-70.0524 L -76.7858,-70.2744
 L -76.8,-70.5 L -76.7858,-70.7256 L -76.7434,-70.9476 L -76.6736,-71.1626 L -76.5773,-71.3672 L -76.4562,-71.558
 L -76.3121,-71.7322 L -76.1474,-71.8869 L -75.9645,-72.0198 L -75.7664,-72.1287 L -75.5562,-72.2119 L -75.3373,-72.2681
 L -75.113,-72.2964 L -74.887,-72.2964 L -74.6627,-72.2681 L -74.4438,-72.2119 L -74.2336,-72.1287 L -74.0355,-72.0198
 L -73.8526,-71.8869 L -73.6879,-71.7322 L -73.5438,-71.558 L -73.4226,-71.3672 L -73.3264,-71.1626 L -73.2565,-70.9476
 L -73.2142,-70.7256 L -73.2,-70.5 L -73.2142,-70.2744 L -73.2565,-70.0524 L -73.3264,-69.8374 L -73.4226,-69.6329
 L -73.5438,-69.442 L -73.6879,-69.2678 L -73.8526,-69.1131 L -74.0355,-68.9802 L -74.2336,-68.8713 L -74.4438,-68.7881
 L -74.6627,-68.7319 L -74.887,-68.7036 z
" stroke="black" fill="lightgray" stroke-width="0.5"/>
</svg>
