<?xml version="1.0" standalone="no"?>
<!DOCTYPE svg PUBLIC "-//W3C//DTD SVG 1.1//EN" "http://www.w3.org/Graphics/SVG/1.1/DTD/svg11.dtd">
<svg width="76mm" height="129mm" viewBox="-38 -168 76 129" xmlns="http://www.w3.org/2000/svg" version="1.1">
<title>OpenSCAD Model</title>
<path d="
M 33.4369,-108.089 L 34.0451,-108.245 L 34.6289,-108.476 L 35.1791,-108.778 L 35.6871,-109.147 L 36.1448,-109.577
 L 36.5451,-110.061 L 36.8815,-110.591 L 37.1489,-111.159 L 37.3429,-111.757 L 37.4606,-112.373 L 37.5,-113
 L 37.5,-163 L 37.4606,-163.627 L 37.3429,-164.243 L 37.1489,-164.841 L 36.8815,-165.409 L 36.5451,-165.939
 L 36.1448,-166.423 L 35.6871,-166.853 L 35.1791,-167.222 L 34.6289,-167.524 L 34.0451,-167.755 L 33.4369,-167.911
 L 32.8139,-167.99 L -32.8139,-167.99 L -33.4369,-167.911 L -34.0451,-167.755 L -34.6289,-167.524 L -35.1791,-167.222
 L -35.6871,-166.853 L -36.1448,-166.423 L -36.5451,-165.939 L -36.8815,-165.409 L -37.1489,-164.841 L -37.3429,-164.243
 L -37.4606,-163.627 L -37.5,-163 L -37.5,-113 L -37.4606,-112.373 L -37.3429,-111.757 L -37.1489,-111.159
 L -36.8815,-110.591 L -36.5451,-110.061 L -36.1448,-109.577 L -35.6871,-109.147 L -35.1791,-108.778 L -34.6289,-108.476
 L -34.0451,-108.245 L -33.4369,-108.089 L -32.8139,-108.01 L 32.8139,-108.01 z
M -32.493,-109.388 L -32.9751,-109.449 L -33.4457,-109.57 L -33.8975,-109.749 L -34.3234,-109.983 L -34.7165,-110.269
 L -35.0707,-110.601 L -35.3805,-110.976 L -35.6408,-111.386 L -35.8477,-111.826 L -35.9979,-112.288 L -36.089,-112.765
 L -36.1195,-113.25 L -36.1195,-162.75 L -36.089,-163.235 L -35.9979,-163.712 L -35.8477,-164.174 L -35.6408,-164.614
 L -35.3805,-165.024 L -35.0707,-165.399 L -34.7165,-165.731 L -34.3234,-166.017 L -33.8975,-166.251 L -33.4457,-166.43
 L -32.9751,-166.551 L -32.493,-166.612 L 32.493,-166.612 L 32.9751,-166.551 L 33.4457,-166.43 L 33.8975,-166.251
 L 34.3234,-166.017 L 34.7165,-165.731 L 35.0707,-165.399 L 35.3805,-165.024 L 35.6408,-164.614 L 35.8477,-164.174
 L 35.9979,-163.712 L 36.089,-163.235 L 36.1195,-162.75 L 36.1195,-113.25 L 36.089,-112.765 L 35.9979,-112.288
 L 35.8477,-111.826 L 35.6408,-111.386 L 35.3805,-110.976 L 35.0707,-110.601 L 34.7165,-110.269 L 34.3234,-109.983
 L 33.8975,-109.749 L 33.4457,-109.57 L 32.9751,-109.449 L 32.493,-109.388 z
M 33.4369,-39.0886 L 34.0451,-39.2447 L 34.6289,-39.4759 L 35.1791,-39.7784 L 35.6871,-40.1474 L 36.1448,-40.5773
 L 36.5451,-41.0611 L 36.8815,-41.5912 L 37.1489,-42.1594 L 37.3429,-42.7566 L 37.4606,-43.3733 L 37.5,-44
 L 37.5,-94 L 37.4606,-94.6267 L 37.3429,-95.2434 L 37.1489,-95.8406 L 36.8815,-96.4088 L 36.5451,-96.9389
 L 36.1448,-97.4227 L 35.6871,-97.8526 L 35.1791,-98.2216 L 34.6289,-98.5241 L 34.0451,-98.7553 L 33.4369,-98.9114
 L 32.8139,-98.9901 L -32.8139,-98.9901 L -33.4369,-98.9114 L -34.0451,-98.7553 L -34.6289,-98.5241 L -35.1791,-98.2216
 L -35.6871,-97.8526 L -36.1448,-97.4227 L -36.5451,-96.9389 L -36.8815,-96.4088 L -37.1489,-95.8406 L -37.3429,-95.2434
 L -37.4606,-94.6267 L -37.5,-94 L -37.5,-44 L -37.4606,-43.3733 L -37.3429,-42.7566 L -37.1489,-42.1594
 L -36.8815,-41.5912 L -36.5451,-41.0611 L -36.1448,-40.5773 L -35.6871,-40.1474 L -35.1791,-39.7784 L -34.6289,-39.4759
 L -34.0451,-39.2447 L -33.4369,-39.0886 L -32.8139,-39.0099 L 32.8139,-39.0099 z
M 29.887,-89.7036 L 29.6627,-89.7319 L 29.4438,-89.7881 L 29.2336,-89.8713 L 29.0355,-89.9802 L 28.8526,-90.1131
 L 28.6879,-90.2678 L 28.5438,-90.442 L 28.4226,-90.6328 L 28.3264,-90.8374 L 28.2565,-91.0524 L 28.2142,-91.2744
 L 28.2,-91.5 L 28.2142,-91.7256 L 28.2565,-91.9476 L 28.3264,-92.1626 L 28.4226,-92.3672 L 28.5438,-92.558
 L 28.6879,-92.7322 L 28.8526,-92.8869 L 29.0355,-93.0198 L 29.2336,-93.1287 L 29.4438,-93.2119 L 29.6627,-93.2681
 L 29.887,-93.2964 L 30.113,-93.2964 L 30.3373,-93.2681 L 30.5562,-93.2119 L 30.7664,-93.1287 L 30.9645,-93.0198
 L 31.1474,-92.8869 L 31.3121,-92.7322 L 31.4562,-92.558 L 31.5773,-92.3672 L 31.6736,-92.1626 L 31.7434,-91.9476
 L 31.7858,-91.7256 L 31.8,-91.5 L 31.7858,-91.2744 L 31.7434,-91.0524 L 31.6736,-90.8374 L 31.5773,-90.6328
 L 31.4562,-90.442 L 31.3121,-90.2678 L 31.1474,-90.1131 L 30.9645,-89.9802 L 30.7664,-89.8713 L 30.5562,-89.7881
 L 30.3373,-89.7319 L 30.113,-89.7036 z
M -30.113,-89.7036 L -30.3373,-89.7319 L -30.5562,-89.7881 L -30.7664,-89.8713 L -30.9645,-89.9802 L -31.1474,-90.1131
 L -31.3121,-90.2678 L -31.4562,-90.442 L -31.5773,-90.6328 L -31.6736,-90.8374 L -31.7434,-91.0524 L -31.7858,-91.2744
 L -31.8,-91.5 L -31.7858,-91.7256 L -31.7434,-91.9476 L -31.6736,-92.1626 L -31.5773,-92.3672 L -31.4562,-92.558
 L -31.3121,-92.7322 L -31.1474,-92.8869 L -30.9645,-93.0198 L -30.7664,-93.1287 L -30.5562,-93.2119 L -30.3373,-93.2681
 L -30.113,-93.2964 L -29.887,-93.2964 L -29.6627,-93.2681 L -29.4438,-93.2119 L -29.2336,-93.1287 L -29.0355,-93.0198
 L -28.8526,-92.8869 L -28.6879,-92.7322 L -28.5438,-92.558 L -28.4226,-92.3672 L -28.3264,-92.1626 L -28.2565,-91.9476
 L -28.2142,-91.7256 L -28.2,-91.5 L -28.2142,-91.2744 L -28.2565,-91.0524 L -28.3264,-90.8374 L -28.4226,-90.6328
 L -28.5438,-90.442 L -28.6879,-90.2678 L -28.8526,-90.1131 L -29.0355,-89.9802 L -29.2336,-89.8713 L -29.4438,-89.7881
 L -29.6627,-89.7319 L -29.887,-89.7036 z
M -30.113,-44.7036 L -30.3373,-44.7319 L -30.5562,-44.7881 L -30.7664,-44.8713 L -30.9645,-44.9802 L -31.1474,-45.1131
 L -31.3121,-45.2678 L -31.4562,-45.442 L -31.5773,-45.6328 L -31.6736,-45.8374 L -31.7434,-46.0524 L -31.7858,-46.2744
 L -31.8,-46.5 L -31.7858,-46.7256 L -31.7434,-46.9476 L -31.6736,-47.1626 L -31.5773,-47.3672 L -31.4562,-47.558
 L -31.3121,-47.7322 L -31.1474,-47.8869 L -30.9645,-48.0198 L -30.7664,-48.1287 L -30.5562,-48.2119 L -30.3373,-48.2681
 L -30.113,-48.2964 L -29.887,-48.2964 L -29.6627,-48.2681 L -29.4438,-48.2119 L -29.2336,-48.1287 L -29.0355,-48.0198
 L -28.8526,-47.8869 L -28.6879,-47.7322 L -28.5438,-47.558 L -28.4226,-47.3672 L -28.3264,-47.1626 L -28.2565,-46.9476
 L -28.2142,-46.7256 L -28.2,-46.5 L -28.2142,-46.2744 L -28.2565,-46.0524 L -28.3264,-45.8374 L -28.4226,-45.6328
 L -28.5438,-45.442 L -28.6879,-45.2678 L -28.8526,-45.1131 L -29.0355,-44.9802 L -29.2336,-44.8713 L -29.4438,-44.7881
 L -29.6627,-44.7319 L -29.887,-44.7036 z
M 29.887,-44.7036 L 29.6627,-44.7319 L 29.4438,-44.7881 L 29.2336,-44.8713 L 29.0355,-44.9802 L 28.8526,-45.1131
 L 28.6879,-45.2678 L 28.5438,-45.442 L 28.4226,-45.6328 L 28.3264,-45.8374 L 28.2565,-46.0524 L 28.2142,-46.2744
 L 28.2,-46.5 L 28.2142,-46.7256 L 28.2565,-46.9476 L 28.3264,-47.1626 L 28.4226,-47.3672 L 28.5438,-47.558
 L 28.6879,-47.7322 L 28.8526,-47.8869 L 29.0355,-48.0198 L 29.2336,-48.1287 L 29.4438,-48.2119 L 29.6627,-48.2681
 L 29.887,-48.2964 L 30.113,-48.2964 L 30.3373,-48.2681 L 30.5562,-48.2119 L 30.7664,-48.1287 L 30.9645,-48.0198
 L 31.1474,-47.8869 L 31.3121,-47.7322 L 31.4562,-47.558 L 31.5773,-47.3672 L 31.6736,-47.1626 L 31.7434,-46.9476
 L 31.7858,-46.7256 L 31.8,-46.5 L 31.7858,-46.2744 L 31.7434,-46.0524 L 31.6736,-45.8374 L 31.5773,-45.6328
 L 31.4562,-45.442 L 31.3121,-45.2678 L 31.1474,-45.1131 L 30.9645,-44.9802 L 30.7664,-44.8713 L 30.5562,-44.7881
 L 30.3373,-44.7319 L 30.113,-44.7036 z
" stroke="black" fill="lightgray" stroke-width="0.5"/>
</svg>
