<?xml version="1.0" standalone="no"?>
<!DOCTYPE svg PUBLIC "-//W3C//DTD SVG 1.1//EN" "http://www.w3.org/Graphics/SVG/1.1/DTD/svg11.dtd">
<svg width="60mm" height="220mm" viewBox="-30 -281 60 220" xmlns="http://www.w3.org/2000/svg" version="1.1">
<title>OpenSCAD Model</title>
<path d="
M 25.9369,-175.589 L 26.5451,-175.745 L 27.1289,-175.976 L 27.6791,-176.278 L 28.1871,-176.647 L 28.6448,-177.077
 L 29.0451,-177.561 L 29.3815,-178.091 L 29.6489,-178.659 L 29.8429,-179.257 L 29.9606,-179.873 L 30,-180.5
 L 30,-275.5 L 29.9606,-276.127 L 29.8429,-276.743 L 29.6489,-277.341 L 29.3815,-277.909 L 29.0451,-278.439
 L 28.6448,-278.923 L 28.1871,-279.353 L 27.6791,-279.722 L 27.1289,-280.024 L 26.5451,-280.255 L 25.9369,-280.411
 L 25.3139,-280.49 L -25.3139,-280.49 L -25.9369,-280.411 L -26.5451,-280.255 L -27.1289,-280.024 L -27.6791,-279.722
 L -28.1871,-279.353 L -28.6448,-278.923 L -29.0451,-278.439 L -29.3815,-277.909 L -29.6489,-277.341 L -29.8429,-276.743
 L -29.9606,-276.127 L -30,-275.5 L -30,-180.5 L -29.9606,-179.873 L -29.8429,-179.257 L -29.6489,-178.659
 L -29.3815,-178.091 L -29.0451,-177.561 L -28.6448,-177.077 L -28.1871,-176.647 L -27.6791,-176.278 L -27.1289,-175.976
 L -26.5451,-175.745 L -25.9369,-175.589 L -25.3139,-175.51 L 25.3139,-175.51 z
M 25.9369,-61.5886 L 26.5451,-61.7447 L 27.1289,-61.9759 L 27.6791,-62.2784 L 28.1871,-62.6474 L 28.6448,-63.0773
 L 29.0451,-63.5611 L 29.3815,-64.0912 L 29.6489,-64.6594 L 29.8429,-65.2566 L 29.9606,-65.8733 L 30,-66.5
 L 30,-161.5 L 29.9606,-162.127 L 29.8429,-162.743 L 29.6489,-163.341 L 29.3815,-163.909 L 29.0451,-164.439
 L 28.6448,-164.923 L 28.1871,-165.353 L 27.6791,-165.722 L 27.1289,-166.024 L 26.5451,-166.255 L 25.9369,-166.411
 L 25.3139,-166.49 L -25.3139,-166.49 L -25.9369,-166.411 L -26.5451,-166.255 L -27.1289,-166.024 L -27.6791,-165.722
 L -28.1871,-165.353 L -28.6448,-164.923 L -29.0451,-164.439 L -29.3815,-163.909 L -29.6489,-163.341 L -29.8429,-162.743
 L -29.9606,-162.127 L -30,-161.5 L -30,-66.5 L -29.9606,-65.8733 L -29.8429,-65.2566 L -29.6489,-64.6594
 L -29.3815,-64.0912 L -29.0451,-63.5611 L -28.6448,-63.0773 L -28.1871,-62.6474 L -27.6791,-62.2784 L -27.1289,-61.9759
 L -26.5451,-61.7447 L -25.9369,-61.5886 L -25.3139,-61.5099 L 25.3139,-61.5099 z
M 22.387,-157.204 L 22.1627,-157.232 L 21.9438,-157.288 L 21.7336,-157.371 L 21.5355,-157.48 L 21.3526,-157.613
 L 21.1879,-157.768 L 21.0438,-157.942 L 20.9226,-158.133 L 20.8264,-158.337 L 20.7565,-158.552 L 20.7142,-158.774
 L 20.7,-159 L 20.7142,-159.226 L 20.7565,-159.448 L 20.8264,-159.663 L 20.9226,-159.867 L 21.0438,-160.058
 L 21.1879,-160.232 L 21.3526,-160.387 L 21.5355,-160.52 L 21.7336,-160.629 L 21.9438,-160.712 L 22.1627,-160.768
 L 22.387,-160.796 L 22.613,-160.796 L 22.8373,-160.768 L 23.0562,-160.712 L 23.2664,-160.629 L 23.4645,-160.52
 L 23.6474,-160.387 L 23.8121,-160.232 L 23.9562,-160.058 L 24.0773,-159.867 L 24.1736,-159.663 L 24.2434,-159.448
 L 24.2858,-159.226 L 24.3,-159 L 24.2858,-158.774 L 24.2434,-158.552 L 24.1736,-158.337 L 24.0773,-158.133
 L 23.9562,-157.942 L 23.8121,-157.768 L 23.6474,-157.613 L 23.4645,-157.48 L 23.2664,-157.371 L 23.0562,-157.288
 L 22.8373,-157.232 L 22.613,-157.204 z
M -22.613,-157.204 L -22.8373,-157.232 L -23.0562,-157.288 L -23.2664,-157.371 L -23.4645,-157.48 L -23.6474,-157.613
 L -23.8121,-157.768 L -23.9562,-157.942 L -24.0773,-158.133 L -24.1736,-158.337 L -24.2434,-158.552 L -24.2858,-158.774
 L -24.3,-159 L -24.2858,-159.226 L -24.2434,-159.448 L -24.1736,-159.663 L -24.0773,-159.867 L -23.9562,-160.058
 L -23.8121,-160.232 L -23.6474,-160.387 L -23.4645,-160.52 L -23.2664,-160.629 L -23.0562,-160.712 L -22.8373,-160.768
 L -22.613,-160.796 L -22.387,-160.796 L -22.1627,-160.768 L -21.9438,-160.712 L -21.7336,-160.629 L -21.5355,-160.52
 L -21.3526,-160.387 L -21.1879,-160.232 L -21.0438,-160.058 L -20.9226,-159.867 L -20.8264,-159.663 L -20.7565,-159.448
 L -20.7142,-159.226 L -20.7,-159 L -20.7142,-158.774 L -20.7565,-158.552 L -20.8264,-158.337 L -20.9226,-158.133
 L -21.0438,-157.942 L -21.1879,-157.768 L -21.3526,-157.613 L -21.5355,-157.48 L -21.7336,-157.371 L -21.9438,-157.288
 L -22.1627,-157.232 L -22.387,-157.204 z
M -22.613,-67.2036 L -22.8373,-67.2319 L -23.0562,-67.2881 L -23.2664,-67.3713 L -23.4645,-67.4802 L -23.6474,-67.6131
 L -23.8121,-67.7678 L -23.9562,-67.942 L -24.0773,-68.1328 L -24.1736,-68.3374 L -24.2434,-68.5524 L -24.2858,-68.7744
 L -24.3,-69 L -24.2858,-69.2256 L -24.2434,-69.4476 L -24.1736,-69.6626 L -24.0773,-69.8672 L -23.9562,-70.058
 L -23.8121,-70.2322 L -23.6474,-70.3869 L -23.4645,-70.5198 L -23.2664,-70.6287 L -23.0562,-70.7119 L -22.8373,-70.7681
 L -22.613,-70.7964 L -22.387,-70.7964 L -22.1627,-70.7681 L -21.9438,-70.7119 L -21.7336,-70.6287 L -21.5355,-70.5198
 L -21.3526,-70.3869 L -21.1879,-70.2322 L -21.0438,-70.058 L -20.9226,-69.8672 L -20.8264,-69.6626 L -20.7565,-69.4476
 L -20.7142,-69.2256 L -20.7,-69 L -20.7142,-68.7744 L -20.7565,-68.5524 L -20.8264,-68.3374 L -20.9226,-68.1328
 L -21.0438,-67.942 L -21.1879,-67.7678 L -21.3526,-67.6131 L -21.5355,-67.4802 L -21.7336,-67.3713 L -21.9438,-67.2881
 L -22.1627,-67.2319 L -22.387,-67.2036 z
M 22.387,-67.2036 L 22.1627,-67.2319 L 21.9438,-67.2881 L 21.7336,-67.3713 L 21.5355,-67.4802 L 21.3526,-67.6131
 L 21.1879,-67.7678 L 21.0438,-67.942 L 20.9226,-68.1328 L 20.8264,-68.3374 L 20.7565,-68.5524 L 20.7142,-68.7744
 L 20.7,-69 L 20.7142,-69.2256 L 20.7565,-69.4476 L 20.8264,-69.6626 L 20.9226,-69.8672 L 21.0438,-70.058
 L 21.1879,-70.2322 L 21.3526,-70.3869 L 21.5355,-70.5198 L 21.7336,-70.6287 L 21.9438,-70.7119 L 22.1627,-70.7681
 L 22.387,-70.7964 L 22.613,-70.7964 L 22.8373,-70.7681 L 23.0562,-70.7119 L 23.2664,-70.6287 L 23.4645,-70.5198
 L 23.6474,-70.3869 L 23.8121,-70.2322 L 23.9562,-70.058 L 24.0773,-69.8672 L 24.1736,-69.6626 L 24.2434,-69.4476
 L 24.2858,-69.2256 L 24.3,-69 L 24.2858,-68.7744 L 24.2434,-68.5524 L 24.1736,-68.3374 L 24.0773,-68.1328
 L 23.9562,-67.942 L 23.8121,-67.7678 L 23.6474,-67.6131 L 23.4645,-67.4802 L 23.2664,-67.3713 L 23.0562,-67.2881
 L 22.8373,-67.2319 L 22.613,-67.2036 z
" stroke="black" fill="lightgray" stroke-width="0.5"/>
</svg>
