  0
SECTION
  2
BLOCKS
  0
ENDSEC
  0
SECTION
  2
ENTITIES
  0
LINE
  8
0
 10
48.4369
 20
88.5886
 11
49.0451
 21
88.7447
  0
LINE
  8
0
 10
49.0451
 20
88.7447
 11
49.6289
 21
88.9759
  0
LINE
  8
0
 10
49.6289
 20
88.9759
 11
50.1791
 21
89.2784
  0
LINE
  8
0
 10
50.1791
 20
89.2784
 11
50.6871
 21
89.6474
  0
LINE
  8
0
 10
50.6871
 20
89.6474
 11
51.1448
 21
90.0773
  0
LINE
  8
0
 10
51.1448
 20
90.0773
 11
51.5451
 21
90.5611
  0
LINE
  8
0
 10
51.5451
 20
90.5611
 11
51.8815
 21
91.0912
  0
LINE
  8
0
 10
51.8815
 20
91.0912
 11
52.1489
 21
91.6594
  0
LINE
  8
0
 10
52.1489
 20
91.6594
 11
52.3429
 21
92.2566
  0
LINE
  8
0
 10
52.3429
 20
92.2566
 11
52.4606
 21
92.8733
  0
LINE
  8
0
 10
52.4606
 20
92.8733
 11
52.5
 21
93.5
  0
LINE
  8
0
 10
52.5
 20
93.5
 11
52.5
 21
98.5
  0
LINE
  8
0
 10
52.5
 20
98.5
 11
52.4606
 21
99.1267
  0
LINE
  8
0
 10
52.4606
 20
99.1267
 11
52.3429
 21
99.7434
  0
LINE
  8
0
 10
52.3429
 20
99.7434
 11
52.1489
 21
100.341
  0
LINE
  8
0
 10
52.1489
 20
100.341
 11
51.8815
 21
100.909
  0
LINE
  8
0
 10
51.8815
 20
100.909
 11
51.5451
 21
101.439
  0
LINE
  8
0
 10
51.5451
 20
101.439
 11
51.1448
 21
101.923
  0
LINE
  8
0
 10
51.1448
 20
101.923
 11
50.6871
 21
102.353
  0
LINE
  8
0
 10
50.6871
 20
102.353
 11
50.1791
 21
102.722
  0
LINE
  8
0
 10
50.1791
 20
102.722
 11
49.6289
 21
103.024
  0
LINE
  8
0
 10
49.6289
 20
103.024
 11
49.0451
 21
103.255
  0
LINE
  8
0
 10
49.0451
 20
103.255
 11
48.4369
 21
103.411
  0
LINE
  8
0
 10
48.4369
 20
103.411
 11
47.8139
 21
103.49
  0
LINE
  8
0
 10
47.8139
 20
103.49
 11
-47.8139
 21
103.49
  0
LINE
  8
0
 10
-47.8139
 20
103.49
 11
-48.4369
 21
103.411
  0
LINE
  8
0
 10
-48.4369
 20
103.411
 11
-49.0451
 21
103.255
  0
LINE
  8
0
 10
-49.0451
 20
103.255
 11
-49.6289
 21
103.024
  0
LINE
  8
0
 10
-49.6289
 20
103.024
 11
-50.1791
 21
102.722
  0
LINE
  8
0
 10
-50.1791
 20
102.722
 11
-50.6871
 21
102.353
  0
LINE
  8
0
 10
-50.6871
 20
102.353
 11
-51.1448
 21
101.923
  0
LINE
  8
0
 10
-51.1448
 20
101.923
 11
-51.5451
 21
101.439
  0
LINE
  8
0
 10
-51.5451
 20
101.439
 11
-51.8815
 21
100.909
  0
LINE
  8
0
 10
-51.8815
 20
100.909
 11
-52.1489
 21
100.341
  0
LINE
  8
0
 10
-52.1489
 20
100.341
 11
-52.3429
 21
99.7434
  0
LINE
  8
0
 10
-52.3429
 20
99.7434
 11
-52.4606
 21
99.1267
  0
LINE
  8
0
 10
-52.4606
 20
99.1267
 11
-52.5
 21
98.5
  0
LINE
  8
0
 10
-52.5
 20
98.5
 11
-52.5
 21
93.5
  0
LINE
  8
0
 10
-52.5
 20
93.5
 11
-52.4606
 21
92.8733
  0
LINE
  8
0
 10
-52.4606
 20
92.8733
 11
-52.3429
 21
92.2566
  0
LINE
  8
0
 10
-52.3429
 20
92.2566
 11
-52.1489
 21
91.6594
  0
LINE
  8
0
 10
-52.1489
 20
91.6594
 11
-51.8815
 21
91.0912
  0
LINE
  8
0
 10
-51.8815
 20
91.0912
 11
-51.5451
 21
90.5611
  0
LINE
  8
0
 10
-51.5451
 20
90.5611
 11
-51.1448
 21
90.0773
  0
LINE
  8
0
 10
-51.1448
 20
90.0773
 11
-50.6871
 21
89.6474
  0
LINE
  8
0
 10
-50.6871
 20
89.6474
 11
-50.1791
 21
89.2784
  0
LINE
  8
0
 10
-50.1791
 20
89.2784
 11
-49.6289
 21
88.9759
  0
LINE
  8
0
 10
-49.6289
 20
88.9759
 11
-49.0451
 21
88.7447
  0
LINE
  8
0
 10
-49.0451
 20
88.7447
 11
-48.4369
 21
88.5886
  0
LINE
  8
0
 10
-48.4369
 20
88.5886
 11
-47.8139
 21
88.5099
  0
LINE
  8
0
 10
-47.8139
 20
88.5099
 11
47.8139
 21
88.5099
  0
LINE
  8
0
 10
47.8139
 20
88.5099
 11
48.4369
 21
88.5886
  0
LINE
  8
0
 10
-47.5482
 20
89.0094
 11
-48.1401
 21
89.0841
  0
LINE
  8
0
 10
-48.1401
 20
89.0841
 11
-48.7178
 21
89.2325
  0
LINE
  8
0
 10
-48.7178
 20
89.2325
 11
-49.2724
 21
89.4521
  0
LINE
  8
0
 10
-49.2724
 20
89.4521
 11
-49.7952
 21
89.7395
  0
LINE
  8
0
 10
-49.7952
 20
89.7395
 11
-50.2778
 21
90.0901
  0
LINE
  8
0
 10
-50.2778
 20
90.0901
 11
-50.7126
 21
90.4984
  0
LINE
  8
0
 10
-50.7126
 20
90.4984
 11
-51.0928
 21
90.958
  0
LINE
  8
0
 10
-51.0928
 20
90.958
 11
-51.4124
 21
91.4617
  0
LINE
  8
0
 10
-51.4124
 20
91.4617
 11
-51.6664
 21
92.0014
  0
LINE
  8
0
 10
-51.6664
 20
92.0014
 11
-51.8508
 21
92.5687
  0
LINE
  8
0
 10
-51.8508
 20
92.5687
 11
-51.9625
 21
93.1547
  0
LINE
  8
0
 10
-51.9625
 20
93.1547
 11
-52
 21
93.75
  0
LINE
  8
0
 10
-52
 20
93.75
 11
-52
 21
98.25
  0
LINE
  8
0
 10
-52
 20
98.25
 11
-51.9625
 21
98.8453
  0
LINE
  8
0
 10
-51.9625
 20
98.8453
 11
-51.8508
 21
99.4313
  0
LINE
  8
0
 10
-51.8508
 20
99.4313
 11
-51.6664
 21
99.9986
  0
LINE
  8
0
 10
-51.6664
 20
99.9986
 11
-51.4124
 21
100.538
  0
LINE
  8
0
 10
-51.4124
 20
100.538
 11
-51.0928
 21
101.042
  0
LINE
  8
0
 10
-51.0928
 20
101.042
 11
-50.7126
 21
101.502
  0
LINE
  8
0
 10
-50.7126
 20
101.502
 11
-50.2778
 21
101.91
  0
LINE
  8
0
 10
-50.2778
 20
101.91
 11
-49.7952
 21
102.261
  0
LINE
  8
0
 10
-49.7952
 20
102.261
 11
-49.2724
 21
102.548
  0
LINE
  8
0
 10
-49.2724
 20
102.548
 11
-48.7178
 21
102.768
  0
LINE
  8
0
 10
-48.7178
 20
102.768
 11
-48.1401
 21
102.916
  0
LINE
  8
0
 10
-48.1401
 20
102.916
 11
-47.5482
 21
102.991
  0
LINE
  8
0
 10
-47.5482
 20
102.991
 11
47.5482
 21
102.991
  0
LINE
  8
0
 10
47.5482
 20
102.991
 11
48.1401
 21
102.916
  0
LINE
  8
0
 10
48.1401
 20
102.916
 11
48.7178
 21
102.768
  0
LINE
  8
0
 10
48.7178
 20
102.768
 11
49.2724
 21
102.548
  0
LINE
  8
0
 10
49.2724
 20
102.548
 11
49.7952
 21
102.261
  0
LINE
  8
0
 10
49.7952
 20
102.261
 11
50.2778
 21
101.91
  0
LINE
  8
0
 10
50.2778
 20
101.91
 11
50.7126
 21
101.502
  0
LINE
  8
0
 10
50.7126
 20
101.502
 11
51.0928
 21
101.042
  0
LINE
  8
0
 10
51.0928
 20
101.042
 11
51.4124
 21
100.538
  0
LINE
  8
0
 10
51.4124
 20
100.538
 11
51.6664
 21
99.9986
  0
LINE
  8
0
 10
51.6664
 20
99.9986
 11
51.8508
 21
99.4313
  0
LINE
  8
0
 10
51.8508
 20
99.4313
 11
51.9625
 21
98.8453
  0
LINE
  8
0
 10
51.9625
 20
98.8453
 11
52
 21
98.25
  0
LINE
  8
0
 10
52
 20
98.25
 11
52
 21
93.75
  0
LINE
  8
0
 10
52
 20
93.75
 11
51.9625
 21
93.1547
  0
LINE
  8
0
 10
51.9625
 20
93.1547
 11
51.8508
 21
92.5687
  0
LINE
  8
0
 10
51.8508
 20
92.5687
 11
51.6664
 21
92.0014
  0
LINE
  8
0
 10
51.6664
 20
92.0014
 11
51.4124
 21
91.4617
  0
LINE
  8
0
 10
51.4124
 20
91.4617
 11
51.0928
 21
90.958
  0
LINE
  8
0
 10
51.0928
 20
90.958
 11
50.7126
 21
90.4984
  0
LINE
  8
0
 10
50.7126
 20
90.4984
 11
50.2778
 21
90.0901
  0
LINE
  8
0
 10
50.2778
 20
90.0901
 11
49.7952
 21
89.7395
  0
LINE
  8
0
 10
49.7952
 20
89.7395
 11
49.2724
 21
89.4521
  0
LINE
  8
0
 10
49.2724
 20
89.4521
 11
48.7178
 21
89.2325
  0
LINE
  8
0
 10
48.7178
 20
89.2325
 11
48.1401
 21
89.0841
  0
LINE
  8
0
 10
48.1401
 20
89.0841
 11
47.5482
 21
89.0094
  0
LINE
  8
0
 10
47.5482
 20
89.0094
 11
-47.5482
 21
89.0094
  0
LINE
  8
0
 10
48.4369
 20
64.5886
 11
49.0451
 21
64.7447
  0
LINE
  8
0
 10
49.0451
 20
64.7447
 11
49.6289
 21
64.9759
  0
LINE
  8
0
 10
49.6289
 20
64.9759
 11
50.1791
 21
65.2784
  0
LINE
  8
0
 10
50.1791
 20
65.2784
 11
50.6871
 21
65.6474
  0
LINE
  8
0
 10
50.6871
 20
65.6474
 11
51.1448
 21
66.0773
  0
LINE
  8
0
 10
51.1448
 20
66.0773
 11
51.5451
 21
66.5611
  0
LINE
  8
0
 10
51.5451
 20
66.5611
 11
51.8815
 21
67.0912
  0
LINE
  8
0
 10
51.8815
 20
67.0912
 11
52.1489
 21
67.6594
  0
LINE
  8
0
 10
52.1489
 20
67.6594
 11
52.3429
 21
68.2566
  0
LINE
  8
0
 10
52.3429
 20
68.2566
 11
52.4606
 21
68.8733
  0
LINE
  8
0
 10
52.4606
 20
68.8733
 11
52.5
 21
69.5
  0
LINE
  8
0
 10
52.5
 20
69.5
 11
52.5
 21
74.5
  0
LINE
  8
0
 10
52.5
 20
74.5
 11
52.4606
 21
75.1267
  0
LINE
  8
0
 10
52.4606
 20
75.1267
 11
52.3429
 21
75.7434
  0
LINE
  8
0
 10
52.3429
 20
75.7434
 11
52.1489
 21
76.3406
  0
LINE
  8
0
 10
52.1489
 20
76.3406
 11
51.8815
 21
76.9088
  0
LINE
  8
0
 10
51.8815
 20
76.9088
 11
51.5451
 21
77.4389
  0
LINE
  8
0
 10
51.5451
 20
77.4389
 11
51.1448
 21
77.9227
  0
LINE
  8
0
 10
51.1448
 20
77.9227
 11
50.6871
 21
78.3526
  0
LINE
  8
0
 10
50.6871
 20
78.3526
 11
50.1791
 21
78.7216
  0
LINE
  8
0
 10
50.1791
 20
78.7216
 11
49.6289
 21
79.0241
  0
LINE
  8
0
 10
49.6289
 20
79.0241
 11
49.0451
 21
79.2553
  0
LINE
  8
0
 10
49.0451
 20
79.2553
 11
48.4369
 21
79.4114
  0
LINE
  8
0
 10
48.4369
 20
79.4114
 11
47.8139
 21
79.4901
  0
LINE
  8
0
 10
47.8139
 20
79.4901
 11
-47.8139
 21
79.4901
  0
LINE
  8
0
 10
-47.8139
 20
79.4901
 11
-48.4369
 21
79.4114
  0
LINE
  8
0
 10
-48.4369
 20
79.4114
 11
-49.0451
 21
79.2553
  0
LINE
  8
0
 10
-49.0451
 20
79.2553
 11
-49.6289
 21
79.0241
  0
LINE
  8
0
 10
-49.6289
 20
79.0241
 11
-50.1791
 21
78.7216
  0
LINE
  8
0
 10
-50.1791
 20
78.7216
 11
-50.6871
 21
78.3526
  0
LINE
  8
0
 10
-50.6871
 20
78.3526
 11
-51.1448
 21
77.9227
  0
LINE
  8
0
 10
-51.1448
 20
77.9227
 11
-51.5451
 21
77.4389
  0
LINE
  8
0
 10
-51.5451
 20
77.4389
 11
-51.8815
 21
76.9088
  0
LINE
  8
0
 10
-51.8815
 20
76.9088
 11
-52.1489
 21
76.3406
  0
LINE
  8
0
 10
-52.1489
 20
76.3406
 11
-52.3429
 21
75.7434
  0
LINE
  8
0
 10
-52.3429
 20
75.7434
 11
-52.4606
 21
75.1267
  0
LINE
  8
0
 10
-52.4606
 20
75.1267
 11
-52.5
 21
74.5
  0
LINE
  8
0
 10
-52.5
 20
74.5
 11
-52.5
 21
69.5
  0
LINE
  8
0
 10
-52.5
 20
69.5
 11
-52.4606
 21
68.8733
  0
LINE
  8
0
 10
-52.4606
 20
68.8733
 11
-52.3429
 21
68.2566
  0
LINE
  8
0
 10
-52.3429
 20
68.2566
 11
-52.1489
 21
67.6594
  0
LINE
  8
0
 10
-52.1489
 20
67.6594
 11
-51.8815
 21
67.0912
  0
LINE
  8
0
 10
-51.8815
 20
67.0912
 11
-51.5451
 21
66.5611
  0
LINE
  8
0
 10
-51.5451
 20
66.5611
 11
-51.1448
 21
66.0773
  0
LINE
  8
0
 10
-51.1448
 20
66.0773
 11
-50.6871
 21
65.6474
  0
LINE
  8
0
 10
-50.6871
 20
65.6474
 11
-50.1791
 21
65.2784
  0
LINE
  8
0
 10
-50.1791
 20
65.2784
 11
-49.6289
 21
64.9759
  0
LINE
  8
0
 10
-49.6289
 20
64.9759
 11
-49.0451
 21
64.7447
  0
LINE
  8
0
 10
-49.0451
 20
64.7447
 11
-48.4369
 21
64.5886
  0
LINE
  8
0
 10
-48.4369
 20
64.5886
 11
-47.8139
 21
64.5099
  0
LINE
  8
0
 10
-47.8139
 20
64.5099
 11
47.8139
 21
64.5099
  0
LINE
  8
0
 10
47.8139
 20
64.5099
 11
48.4369
 21
64.5886
  0
LINE
  8
0
 10
-47.493
 20
65.8882
 11
-47.9751
 21
65.9491
  0
LINE
  8
0
 10
-47.9751
 20
65.9491
 11
-48.4457
 21
66.0699
  0
LINE
  8
0
 10
-48.4457
 20
66.0699
 11
-48.8975
 21
66.2488
  0
LINE
  8
0
 10
-48.8975
 20
66.2488
 11
-49.3234
 21
66.4829
  0
LINE
  8
0
 10
-49.3234
 20
66.4829
 11
-49.7165
 21
66.7685
  0
LINE
  8
0
 10
-49.7165
 20
66.7685
 11
-50.0707
 21
67.1012
  0
LINE
  8
0
 10
-50.0707
 20
67.1012
 11
-50.3805
 21
67.4756
  0
LINE
  8
0
 10
-50.3805
 20
67.4756
 11
-50.6408
 21
67.8859
  0
LINE
  8
0
 10
-50.6408
 20
67.8859
 11
-50.8477
 21
68.3256
  0
LINE
  8
0
 10
-50.8477
 20
68.3256
 11
-50.9979
 21
68.7877
  0
LINE
  8
0
 10
-50.9979
 20
68.7877
 11
-51.089
 21
69.265
  0
LINE
  8
0
 10
-51.089
 20
69.265
 11
-51.1195
 21
69.75
  0
LINE
  8
0
 10
-51.1195
 20
69.75
 11
-51.1195
 21
74.25
  0
LINE
  8
0
 10
-51.1195
 20
74.25
 11
-51.089
 21
74.735
  0
LINE
  8
0
 10
-51.089
 20
74.735
 11
-50.9979
 21
75.2123
  0
LINE
  8
0
 10
-50.9979
 20
75.2123
 11
-50.8477
 21
75.6744
  0
LINE
  8
0
 10
-50.8477
 20
75.6744
 11
-50.6408
 21
76.1141
  0
LINE
  8
0
 10
-50.6408
 20
76.1141
 11
-50.3805
 21
76.5244
  0
LINE
  8
0
 10
-50.3805
 20
76.5244
 11
-50.0707
 21
76.8988
  0
LINE
  8
0
 10
-50.0707
 20
76.8988
 11
-49.7165
 21
77.2315
  0
LINE
  8
0
 10
-49.7165
 20
77.2315
 11
-49.3234
 21
77.5171
  0
LINE
  8
0
 10
-49.3234
 20
77.5171
 11
-48.8975
 21
77.7512
  0
LINE
  8
0
 10
-48.8975
 20
77.7512
 11
-48.4457
 21
77.9301
  0
LINE
  8
0
 10
-48.4457
 20
77.9301
 11
-47.9751
 21
78.0509
  0
LINE
  8
0
 10
-47.9751
 20
78.0509
 11
-47.493
 21
78.1118
  0
LINE
  8
0
 10
-47.493
 20
78.1118
 11
47.493
 21
78.1118
  0
LINE
  8
0
 10
47.493
 20
78.1118
 11
47.9751
 21
78.0509
  0
LINE
  8
0
 10
47.9751
 20
78.0509
 11
48.4457
 21
77.9301
  0
LINE
  8
0
 10
48.4457
 20
77.9301
 11
48.8975
 21
77.7512
  0
LINE
  8
0
 10
48.8975
 20
77.7512
 11
49.3234
 21
77.5171
  0
LINE
  8
0
 10
49.3234
 20
77.5171
 11
49.7165
 21
77.2315
  0
LINE
  8
0
 10
49.7165
 20
77.2315
 11
50.0707
 21
76.8988
  0
LINE
  8
0
 10
50.0707
 20
76.8988
 11
50.3805
 21
76.5244
  0
LINE
  8
0
 10
50.3805
 20
76.5244
 11
50.6408
 21
76.1141
  0
LINE
  8
0
 10
50.6408
 20
76.1141
 11
50.8477
 21
75.6744
  0
LINE
  8
0
 10
50.8477
 20
75.6744
 11
50.9979
 21
75.2123
  0
LINE
  8
0
 10
50.9979
 20
75.2123
 11
51.089
 21
74.735
  0
LINE
  8
0
 10
51.089
 20
74.735
 11
51.1195
 21
74.25
  0
LINE
  8
0
 10
51.1195
 20
74.25
 11
51.1195
 21
69.75
  0
LINE
  8
0
 10
51.1195
 20
69.75
 11
51.089
 21
69.265
  0
LINE
  8
0
 10
51.089
 20
69.265
 11
50.9979
 21
68.7877
  0
LINE
  8
0
 10
50.9979
 20
68.7877
 11
50.8477
 21
68.3256
  0
LINE
  8
0
 10
50.8477
 20
68.3256
 11
50.6408
 21
67.8859
  0
LINE
  8
0
 10
50.6408
 20
67.8859
 11
50.3805
 21
67.4756
  0
LINE
  8
0
 10
50.3805
 20
67.4756
 11
50.0707
 21
67.1012
  0
LINE
  8
0
 10
50.0707
 20
67.1012
 11
49.7165
 21
66.7685
  0
LINE
  8
0
 10
49.7165
 20
66.7685
 11
49.3234
 21
66.4829
  0
LINE
  8
0
 10
49.3234
 20
66.4829
 11
48.8975
 21
66.2488
  0
LINE
  8
0
 10
48.8975
 20
66.2488
 11
48.4457
 21
66.0699
  0
LINE
  8
0
 10
48.4457
 20
66.0699
 11
47.9751
 21
65.9491
  0
LINE
  8
0
 10
47.9751
 20
65.9491
 11
47.493
 21
65.8882
  0
LINE
  8
0
 10
47.493
 20
65.8882
 11
-47.493
 21
65.8882
  0
LINE
  8
0
 10
48.4369
 20
40.5886
 11
49.0451
 21
40.7447
  0
LINE
  8
0
 10
49.0451
 20
40.7447
 11
49.6289
 21
40.9759
  0
LINE
  8
0
 10
49.6289
 20
40.9759
 11
50.1791
 21
41.2784
  0
LINE
  8
0
 10
50.1791
 20
41.2784
 11
50.6871
 21
41.6474
  0
LINE
  8
0
 10
50.6871
 20
41.6474
 11
51.1448
 21
42.0773
  0
LINE
  8
0
 10
51.1448
 20
42.0773
 11
51.5451
 21
42.5611
  0
LINE
  8
0
 10
51.5451
 20
42.5611
 11
51.8815
 21
43.0912
  0
LINE
  8
0
 10
51.8815
 20
43.0912
 11
52.1489
 21
43.6594
  0
LINE
  8
0
 10
52.1489
 20
43.6594
 11
52.3429
 21
44.2566
  0
LINE
  8
0
 10
52.3429
 20
44.2566
 11
52.4606
 21
44.8733
  0
LINE
  8
0
 10
52.4606
 20
44.8733
 11
52.5
 21
45.5
  0
LINE
  8
0
 10
52.5
 20
45.5
 11
52.5
 21
50.5
  0
LINE
  8
0
 10
52.5
 20
50.5
 11
52.4606
 21
51.1267
  0
LINE
  8
0
 10
52.4606
 20
51.1267
 11
52.3429
 21
51.7434
  0
LINE
  8
0
 10
52.3429
 20
51.7434
 11
52.1489
 21
52.3406
  0
LINE
  8
0
 10
52.1489
 20
52.3406
 11
51.8815
 21
52.9088
  0
LINE
  8
0
 10
51.8815
 20
52.9088
 11
51.5451
 21
53.4389
  0
LINE
  8
0
 10
51.5451
 20
53.4389
 11
51.1448
 21
53.9227
  0
LINE
  8
0
 10
51.1448
 20
53.9227
 11
50.6871
 21
54.3526
  0
LINE
  8
0
 10
50.6871
 20
54.3526
 11
50.1791
 21
54.7216
  0
LINE
  8
0
 10
50.1791
 20
54.7216
 11
49.6289
 21
55.0241
  0
LINE
  8
0
 10
49.6289
 20
55.0241
 11
49.0451
 21
55.2553
  0
LINE
  8
0
 10
49.0451
 20
55.2553
 11
48.4369
 21
55.4114
  0
LINE
  8
0
 10
48.4369
 20
55.4114
 11
47.8139
 21
55.4901
  0
LINE
  8
0
 10
47.8139
 20
55.4901
 11
-47.8139
 21
55.4901
  0
LINE
  8
0
 10
-47.8139
 20
55.4901
 11
-48.4369
 21
55.4114
  0
LINE
  8
0
 10
-48.4369
 20
55.4114
 11
-49.0451
 21
55.2553
  0
LINE
  8
0
 10
-49.0451
 20
55.2553
 11
-49.6289
 21
55.0241
  0
LINE
  8
0
 10
-49.6289
 20
55.0241
 11
-50.1791
 21
54.7216
  0
LINE
  8
0
 10
-50.1791
 20
54.7216
 11
-50.6871
 21
54.3526
  0
LINE
  8
0
 10
-50.6871
 20
54.3526
 11
-51.1448
 21
53.9227
  0
LINE
  8
0
 10
-51.1448
 20
53.9227
 11
-51.5451
 21
53.4389
  0
LINE
  8
0
 10
-51.5451
 20
53.4389
 11
-51.8815
 21
52.9088
  0
LINE
  8
0
 10
-51.8815
 20
52.9088
 11
-52.1489
 21
52.3406
  0
LINE
  8
0
 10
-52.1489
 20
52.3406
 11
-52.3429
 21
51.7434
  0
LINE
  8
0
 10
-52.3429
 20
51.7434
 11
-52.4606
 21
51.1267
  0
LINE
  8
0
 10
-52.4606
 20
51.1267
 11
-52.5
 21
50.5
  0
LINE
  8
0
 10
-52.5
 20
50.5
 11
-52.5
 21
45.5
  0
LINE
  8
0
 10
-52.5
 20
45.5
 11
-52.4606
 21
44.8733
  0
LINE
  8
0
 10
-52.4606
 20
44.8733
 11
-52.3429
 21
44.2566
  0
LINE
  8
0
 10
-52.3429
 20
44.2566
 11
-52.1489
 21
43.6594
  0
LINE
  8
0
 10
-52.1489
 20
43.6594
 11
-51.8815
 21
43.0912
  0
LINE
  8
0
 10
-51.8815
 20
43.0912
 11
-51.5451
 21
42.5611
  0
LINE
  8
0
 10
-51.5451
 20
42.5611
 11
-51.1448
 21
42.0773
  0
LINE
  8
0
 10
-51.1448
 20
42.0773
 11
-50.6871
 21
41.6474
  0
LINE
  8
0
 10
-50.6871
 20
41.6474
 11
-50.1791
 21
41.2784
  0
LINE
  8
0
 10
-50.1791
 20
41.2784
 11
-49.6289
 21
40.9759
  0
LINE
  8
0
 10
-49.6289
 20
40.9759
 11
-49.0451
 21
40.7447
  0
LINE
  8
0
 10
-49.0451
 20
40.7447
 11
-48.4369
 21
40.5886
  0
LINE
  8
0
 10
-48.4369
 20
40.5886
 11
-47.8139
 21
40.5099
  0
LINE
  8
0
 10
-47.8139
 20
40.5099
 11
47.8139
 21
40.5099
  0
LINE
  8
0
 10
47.8139
 20
40.5099
 11
48.4369
 21
40.5886
  0
LINE
  8
0
 10
-45.113
 20
46.2036
 11
-45.3373
 21
46.2319
  0
LINE
  8
0
 10
-45.3373
 20
46.2319
 11
-45.5562
 21
46.2881
  0
LINE
  8
0
 10
-45.5562
 20
46.2881
 11
-45.7664
 21
46.3713
  0
LINE
  8
0
 10
-45.7664
 20
46.3713
 11
-45.9645
 21
46.4802
  0
LINE
  8
0
 10
-45.9645
 20
46.4802
 11
-46.1474
 21
46.6131
  0
LINE
  8
0
 10
-46.1474
 20
46.6131
 11
-46.3121
 21
46.7678
  0
LINE
  8
0
 10
-46.3121
 20
46.7678
 11
-46.4562
 21
46.942
  0
LINE
  8
0
 10
-46.4562
 20
46.942
 11
-46.5773
 21
47.1329
  0
LINE
  8
0
 10
-46.5773
 20
47.1329
 11
-46.6736
 21
47.3374
  0
LINE
  8
0
 10
-46.6736
 20
47.3374
 11
-46.7434
 21
47.5524
  0
LINE
  8
0
 10
-46.7434
 20
47.5524
 11
-46.7858
 21
47.7744
  0
LINE
  8
0
 10
-46.7858
 20
47.7744
 11
-46.8
 21
48
  0
LINE
  8
0
 10
-46.8
 20
48
 11
-46.7858
 21
48.2256
  0
LINE
  8
0
 10
-46.7858
 20
48.2256
 11
-46.7434
 21
48.4476
  0
LINE
  8
0
 10
-46.7434
 20
48.4476
 11
-46.6736
 21
48.6626
  0
LINE
  8
0
 10
-46.6736
 20
48.6626
 11
-46.5773
 21
48.8671
  0
LINE
  8
0
 10
-46.5773
 20
48.8671
 11
-46.4562
 21
49.058
  0
LINE
  8
0
 10
-46.4562
 20
49.058
 11
-46.3121
 21
49.2322
  0
LINE
  8
0
 10
-46.3121
 20
49.2322
 11
-46.1474
 21
49.3869
  0
LINE
  8
0
 10
-46.1474
 20
49.3869
 11
-45.9645
 21
49.5198
  0
LINE
  8
0
 10
-45.9645
 20
49.5198
 11
-45.7664
 21
49.6287
  0
LINE
  8
0
 10
-45.7664
 20
49.6287
 11
-45.5562
 21
49.7119
  0
LINE
  8
0
 10
-45.5562
 20
49.7119
 11
-45.3373
 21
49.7681
  0
LINE
  8
0
 10
-45.3373
 20
49.7681
 11
-45.113
 21
49.7964
  0
LINE
  8
0
 10
-45.113
 20
49.7964
 11
-44.887
 21
49.7964
  0
LINE
  8
0
 10
-44.887
 20
49.7964
 11
-44.6627
 21
49.7681
  0
LINE
  8
0
 10
-44.6627
 20
49.7681
 11
-44.4438
 21
49.7119
  0
LINE
  8
0
 10
-44.4438
 20
49.7119
 11
-44.2336
 21
49.6287
  0
LINE
  8
0
 10
-44.2336
 20
49.6287
 11
-44.0355
 21
49.5198
  0
LINE
  8
0
 10
-44.0355
 20
49.5198
 11
-43.8526
 21
49.3869
  0
LINE
  8
0
 10
-43.8526
 20
49.3869
 11
-43.6879
 21
49.2322
  0
LINE
  8
0
 10
-43.6879
 20
49.2322
 11
-43.5438
 21
49.058
  0
LINE
  8
0
 10
-43.5438
 20
49.058
 11
-43.4226
 21
48.8671
  0
LINE
  8
0
 10
-43.4226
 20
48.8671
 11
-43.3264
 21
48.6626
  0
LINE
  8
0
 10
-43.3264
 20
48.6626
 11
-43.2565
 21
48.4476
  0
LINE
  8
0
 10
-43.2565
 20
48.4476
 11
-43.2142
 21
48.2256
  0
LINE
  8
0
 10
-43.2142
 20
48.2256
 11
-43.2
 21
48
  0
LINE
  8
0
 10
-43.2
 20
48
 11
-43.2142
 21
47.7744
  0
LINE
  8
0
 10
-43.2142
 20
47.7744
 11
-43.2565
 21
47.5524
  0
LINE
  8
0
 10
-43.2565
 20
47.5524
 11
-43.3264
 21
47.3374
  0
LINE
  8
0
 10
-43.3264
 20
47.3374
 11
-43.4226
 21
47.1329
  0
LINE
  8
0
 10
-43.4226
 20
47.1329
 11
-43.5438
 21
46.942
  0
LINE
  8
0
 10
-43.5438
 20
46.942
 11
-43.6879
 21
46.7678
  0
LINE
  8
0
 10
-43.6879
 20
46.7678
 11
-43.8526
 21
46.6131
  0
LINE
  8
0
 10
-43.8526
 20
46.6131
 11
-44.0355
 21
46.4802
  0
LINE
  8
0
 10
-44.0355
 20
46.4802
 11
-44.2336
 21
46.3713
  0
LINE
  8
0
 10
-44.2336
 20
46.3713
 11
-44.4438
 21
46.2881
  0
LINE
  8
0
 10
-44.4438
 20
46.2881
 11
-44.6627
 21
46.2319
  0
LINE
  8
0
 10
-44.6627
 20
46.2319
 11
-44.887
 21
46.2036
  0
LINE
  8
0
 10
-44.887
 20
46.2036
 11
-45.113
 21
46.2036
  0
LINE
  8
0
 10
44.887
 20
46.2036
 11
44.6627
 21
46.2319
  0
LINE
  8
0
 10
44.6627
 20
46.2319
 11
44.4438
 21
46.2881
  0
LINE
  8
0
 10
44.4438
 20
46.2881
 11
44.2336
 21
46.3713
  0
LINE
  8
0
 10
44.2336
 20
46.3713
 11
44.0355
 21
46.4802
  0
LINE
  8
0
 10
44.0355
 20
46.4802
 11
43.8526
 21
46.6131
  0
LINE
  8
0
 10
43.8526
 20
46.6131
 11
43.6879
 21
46.7678
  0
LINE
  8
0
 10
43.6879
 20
46.7678
 11
43.5438
 21
46.942
  0
LINE
  8
0
 10
43.5438
 20
46.942
 11
43.4226
 21
47.1329
  0
LINE
  8
0
 10
43.4226
 20
47.1329
 11
43.3264
 21
47.3374
  0
LINE
  8
0
 10
43.3264
 20
47.3374
 11
43.2565
 21
47.5524
  0
LINE
  8
0
 10
43.2565
 20
47.5524
 11
43.2142
 21
47.7744
  0
LINE
  8
0
 10
43.2142
 20
47.7744
 11
43.2
 21
48
  0
LINE
  8
0
 10
43.2
 20
48
 11
43.2142
 21
48.2256
  0
LINE
  8
0
 10
43.2142
 20
48.2256
 11
43.2565
 21
48.4476
  0
LINE
  8
0
 10
43.2565
 20
48.4476
 11
43.3264
 21
48.6626
  0
LINE
  8
0
 10
43.3264
 20
48.6626
 11
43.4226
 21
48.8671
  0
LINE
  8
0
 10
43.4226
 20
48.8671
 11
43.5438
 21
49.058
  0
LINE
  8
0
 10
43.5438
 20
49.058
 11
43.6879
 21
49.2322
  0
LINE
  8
0
 10
43.6879
 20
49.2322
 11
43.8526
 21
49.3869
  0
LINE
  8
0
 10
43.8526
 20
49.3869
 11
44.0355
 21
49.5198
  0
LINE
  8
0
 10
44.0355
 20
49.5198
 11
44.2336
 21
49.6287
  0
LINE
  8
0
 10
44.2336
 20
49.6287
 11
44.4438
 21
49.7119
  0
LINE
  8
0
 10
44.4438
 20
49.7119
 11
44.6627
 21
49.7681
  0
LINE
  8
0
 10
44.6627
 20
49.7681
 11
44.887
 21
49.7964
  0
LINE
  8
0
 10
44.887
 20
49.7964
 11
45.113
 21
49.7964
  0
LINE
  8
0
 10
45.113
 20
49.7964
 11
45.3373
 21
49.7681
  0
LINE
  8
0
 10
45.3373
 20
49.7681
 11
45.5562
 21
49.7119
  0
LINE
  8
0
 10
45.5562
 20
49.7119
 11
45.7664
 21
49.6287
  0
LINE
  8
0
 10
45.7664
 20
49.6287
 11
45.9645
 21
49.5198
  0
LINE
  8
0
 10
45.9645
 20
49.5198
 11
46.1474
 21
49.3869
  0
LINE
  8
0
 10
46.1474
 20
49.3869
 11
46.3121
 21
49.2322
  0
LINE
  8
0
 10
46.3121
 20
49.2322
 11
46.4562
 21
49.058
  0
LINE
  8
0
 10
46.4562
 20
49.058
 11
46.5773
 21
48.8671
  0
LINE
  8
0
 10
46.5773
 20
48.8671
 11
46.6736
 21
48.6626
  0
LINE
  8
0
 10
46.6736
 20
48.6626
 11
46.7434
 21
48.4476
  0
LINE
  8
0
 10
46.7434
 20
48.4476
 11
46.7858
 21
48.2256
  0
LINE
  8
0
 10
46.7858
 20
48.2256
 11
46.8
 21
48
  0
LINE
  8
0
 10
46.8
 20
48
 11
46.7858
 21
47.7744
  0
LINE
  8
0
 10
46.7858
 20
47.7744
 11
46.7434
 21
47.5524
  0
LINE
  8
0
 10
46.7434
 20
47.5524
 11
46.6736
 21
47.3374
  0
LINE
  8
0
 10
46.6736
 20
47.3374
 11
46.5773
 21
47.1329
  0
LINE
  8
0
 10
46.5773
 20
47.1329
 11
46.4562
 21
46.942
  0
LINE
  8
0
 10
46.4562
 20
46.942
 11
46.3121
 21
46.7678
  0
LINE
  8
0
 10
46.3121
 20
46.7678
 11
46.1474
 21
46.6131
  0
LINE
  8
0
 10
46.1474
 20
46.6131
 11
45.9645
 21
46.4802
  0
LINE
  8
0
 10
45.9645
 20
46.4802
 11
45.7664
 21
46.3713
  0
LINE
  8
0
 10
45.7664
 20
46.3713
 11
45.5562
 21
46.2881
  0
LINE
  8
0
 10
45.5562
 20
46.2881
 11
45.3373
 21
46.2319
  0
LINE
  8
0
 10
45.3373
 20
46.2319
 11
45.113
 21
46.2036
  0
LINE
  8
0
 10
45.113
 20
46.2036
 11
44.887
 21
46.2036
  0
ENDSEC
  0
SECTION
  2
OBJECTS
  0
DICTIONARY
  0
ENDSEC
  0
EOF
