  0
SECTION
  2
BLOCKS
  0
ENDSEC
  0
SECTION
  2
ENTITIES
  0
LINE
  8
0
 10
18.4369
 20
382.589
 11
19.0451
 21
382.745
  0
LINE
  8
0
 10
19.0451
 20
382.745
 11
19.6289
 21
382.976
  0
LINE
  8
0
 10
19.6289
 20
382.976
 11
20.1791
 21
383.278
  0
LINE
  8
0
 10
20.1791
 20
383.278
 11
20.6871
 21
383.647
  0
LINE
  8
0
 10
20.6871
 20
383.647
 11
21.1448
 21
384.077
  0
LINE
  8
0
 10
21.1448
 20
384.077
 11
21.5451
 21
384.561
  0
LINE
  8
0
 10
21.5451
 20
384.561
 11
21.8815
 21
385.091
  0
LINE
  8
0
 10
21.8815
 20
385.091
 11
22.1489
 21
385.659
  0
LINE
  8
0
 10
22.1489
 20
385.659
 11
22.3429
 21
386.257
  0
LINE
  8
0
 10
22.3429
 20
386.257
 11
22.4606
 21
386.873
  0
LINE
  8
0
 10
22.4606
 20
386.873
 11
22.5
 21
387.5
  0
LINE
  8
0
 10
22.5
 20
387.5
 11
22.5
 21
452.5
  0
LINE
  8
0
 10
22.5
 20
452.5
 11
22.4606
 21
453.127
  0
LINE
  8
0
 10
22.4606
 20
453.127
 11
22.3429
 21
453.743
  0
LINE
  8
0
 10
22.3429
 20
453.743
 11
22.1489
 21
454.341
  0
LINE
  8
0
 10
22.1489
 20
454.341
 11
21.8815
 21
454.909
  0
LINE
  8
0
 10
21.8815
 20
454.909
 11
21.5451
 21
455.439
  0
LINE
  8
0
 10
21.5451
 20
455.439
 11
21.1448
 21
455.923
  0
LINE
  8
0
 10
21.1448
 20
455.923
 11
20.6871
 21
456.353
  0
LINE
  8
0
 10
20.6871
 20
456.353
 11
20.1791
 21
456.722
  0
LINE
  8
0
 10
20.1791
 20
456.722
 11
19.6289
 21
457.024
  0
LINE
  8
0
 10
19.6289
 20
457.024
 11
19.0451
 21
457.255
  0
LINE
  8
0
 10
19.0451
 20
457.255
 11
18.4369
 21
457.411
  0
LINE
  8
0
 10
18.4369
 20
457.411
 11
17.8139
 21
457.49
  0
LINE
  8
0
 10
17.8139
 20
457.49
 11
-17.8139
 21
457.49
  0
LINE
  8
0
 10
-17.8139
 20
457.49
 11
-18.4369
 21
457.411
  0
LINE
  8
0
 10
-18.4369
 20
457.411
 11
-19.0451
 21
457.255
  0
LINE
  8
0
 10
-19.0451
 20
457.255
 11
-19.6289
 21
457.024
  0
LINE
  8
0
 10
-19.6289
 20
457.024
 11
-20.1791
 21
456.722
  0
LINE
  8
0
 10
-20.1791
 20
456.722
 11
-20.6871
 21
456.353
  0
LINE
  8
0
 10
-20.6871
 20
456.353
 11
-21.1448
 21
455.923
  0
LINE
  8
0
 10
-21.1448
 20
455.923
 11
-21.5451
 21
455.439
  0
LINE
  8
0
 10
-21.5451
 20
455.439
 11
-21.8815
 21
454.909
  0
LINE
  8
0
 10
-21.8815
 20
454.909
 11
-22.1489
 21
454.341
  0
LINE
  8
0
 10
-22.1489
 20
454.341
 11
-22.3429
 21
453.743
  0
LINE
  8
0
 10
-22.3429
 20
453.743
 11
-22.4606
 21
453.127
  0
LINE
  8
0
 10
-22.4606
 20
453.127
 11
-22.5
 21
452.5
  0
LINE
  8
0
 10
-22.5
 20
452.5
 11
-22.5
 21
387.5
  0
LINE
  8
0
 10
-22.5
 20
387.5
 11
-22.4606
 21
386.873
  0
LINE
  8
0
 10
-22.4606
 20
386.873
 11
-22.3429
 21
386.257
  0
LINE
  8
0
 10
-22.3429
 20
386.257
 11
-22.1489
 21
385.659
  0
LINE
  8
0
 10
-22.1489
 20
385.659
 11
-21.8815
 21
385.091
  0
LINE
  8
0
 10
-21.8815
 20
385.091
 11
-21.5451
 21
384.561
  0
LINE
  8
0
 10
-21.5451
 20
384.561
 11
-21.1448
 21
384.077
  0
LINE
  8
0
 10
-21.1448
 20
384.077
 11
-20.6871
 21
383.647
  0
LINE
  8
0
 10
-20.6871
 20
383.647
 11
-20.1791
 21
383.278
  0
LINE
  8
0
 10
-20.1791
 20
383.278
 11
-19.6289
 21
382.976
  0
LINE
  8
0
 10
-19.6289
 20
382.976
 11
-19.0451
 21
382.745
  0
LINE
  8
0
 10
-19.0451
 20
382.745
 11
-18.4369
 21
382.589
  0
LINE
  8
0
 10
-18.4369
 20
382.589
 11
-17.8139
 21
382.51
  0
LINE
  8
0
 10
-17.8139
 20
382.51
 11
17.8139
 21
382.51
  0
LINE
  8
0
 10
17.8139
 20
382.51
 11
18.4369
 21
382.589
  0
LINE
  8
0
 10
-17.2512
 20
384.008
 11
-17.7495
 21
384.071
  0
LINE
  8
0
 10
-17.7495
 20
384.071
 11
-18.2361
 21
384.196
  0
LINE
  8
0
 10
-18.2361
 20
384.196
 11
-18.7031
 21
384.381
  0
LINE
  8
0
 10
-18.7031
 20
384.381
 11
-19.1433
 21
384.623
  0
LINE
  8
0
 10
-19.1433
 20
384.623
 11
-19.5497
 21
384.918
  0
LINE
  8
0
 10
-19.5497
 20
384.918
 11
-19.9159
 21
385.262
  0
LINE
  8
0
 10
-19.9159
 20
385.262
 11
-20.2361
 21
385.649
  0
LINE
  8
0
 10
-20.2361
 20
385.649
 11
-20.5052
 21
386.073
  0
LINE
  8
0
 10
-20.5052
 20
386.073
 11
-20.7191
 21
386.528
  0
LINE
  8
0
 10
-20.7191
 20
386.528
 11
-20.8743
 21
387.005
  0
LINE
  8
0
 10
-20.8743
 20
387.005
 11
-20.9684
 21
387.499
  0
LINE
  8
0
 10
-20.9684
 20
387.499
 11
-21
 21
388
  0
LINE
  8
0
 10
-21
 20
388
 11
-21
 21
452
  0
LINE
  8
0
 10
-21
 20
452
 11
-20.9684
 21
452.501
  0
LINE
  8
0
 10
-20.9684
 20
452.501
 11
-20.8743
 21
452.995
  0
LINE
  8
0
 10
-20.8743
 20
452.995
 11
-20.7191
 21
453.472
  0
LINE
  8
0
 10
-20.7191
 20
453.472
 11
-20.5052
 21
453.927
  0
LINE
  8
0
 10
-20.5052
 20
453.927
 11
-20.2361
 21
454.351
  0
LINE
  8
0
 10
-20.2361
 20
454.351
 11
-19.9159
 21
454.738
  0
LINE
  8
0
 10
-19.9159
 20
454.738
 11
-19.5497
 21
455.082
  0
LINE
  8
0
 10
-19.5497
 20
455.082
 11
-19.1433
 21
455.377
  0
LINE
  8
0
 10
-19.1433
 20
455.377
 11
-18.7031
 21
455.619
  0
LINE
  8
0
 10
-18.7031
 20
455.619
 11
-18.2361
 21
455.804
  0
LINE
  8
0
 10
-18.2361
 20
455.804
 11
-17.7495
 21
455.929
  0
LINE
  8
0
 10
-17.7495
 20
455.929
 11
-17.2512
 21
455.992
  0
LINE
  8
0
 10
-17.2512
 20
455.992
 11
17.2512
 21
455.992
  0
LINE
  8
0
 10
17.2512
 20
455.992
 11
17.7495
 21
455.929
  0
LINE
  8
0
 10
17.7495
 20
455.929
 11
18.2361
 21
455.804
  0
LINE
  8
0
 10
18.2361
 20
455.804
 11
18.7031
 21
455.619
  0
LINE
  8
0
 10
18.7031
 20
455.619
 11
19.1433
 21
455.377
  0
LINE
  8
0
 10
19.1433
 20
455.377
 11
19.5497
 21
455.082
  0
LINE
  8
0
 10
19.5497
 20
455.082
 11
19.9159
 21
454.738
  0
LINE
  8
0
 10
19.9159
 20
454.738
 11
20.2361
 21
454.351
  0
LINE
  8
0
 10
20.2361
 20
454.351
 11
20.5052
 21
453.927
  0
LINE
  8
0
 10
20.5052
 20
453.927
 11
20.7191
 21
453.472
  0
LINE
  8
0
 10
20.7191
 20
453.472
 11
20.8743
 21
452.995
  0
LINE
  8
0
 10
20.8743
 20
452.995
 11
20.9684
 21
452.501
  0
LINE
  8
0
 10
20.9684
 20
452.501
 11
21
 21
452
  0
LINE
  8
0
 10
21
 20
452
 11
21
 21
388
  0
LINE
  8
0
 10
21
 20
388
 11
20.9684
 21
387.499
  0
LINE
  8
0
 10
20.9684
 20
387.499
 11
20.8743
 21
387.005
  0
LINE
  8
0
 10
20.8743
 20
387.005
 11
20.7191
 21
386.528
  0
LINE
  8
0
 10
20.7191
 20
386.528
 11
20.5052
 21
386.073
  0
LINE
  8
0
 10
20.5052
 20
386.073
 11
20.2361
 21
385.649
  0
LINE
  8
0
 10
20.2361
 20
385.649
 11
19.9159
 21
385.262
  0
LINE
  8
0
 10
19.9159
 20
385.262
 11
19.5497
 21
384.918
  0
LINE
  8
0
 10
19.5497
 20
384.918
 11
19.1433
 21
384.623
  0
LINE
  8
0
 10
19.1433
 20
384.623
 11
18.7031
 21
384.381
  0
LINE
  8
0
 10
18.7031
 20
384.381
 11
18.2361
 21
384.196
  0
LINE
  8
0
 10
18.2361
 20
384.196
 11
17.7495
 21
384.071
  0
LINE
  8
0
 10
17.7495
 20
384.071
 11
17.2512
 21
384.008
  0
LINE
  8
0
 10
17.2512
 20
384.008
 11
-17.2512
 21
384.008
  0
LINE
  8
0
 10
18.4369
 20
298.589
 11
19.0451
 21
298.745
  0
LINE
  8
0
 10
19.0451
 20
298.745
 11
19.6289
 21
298.976
  0
LINE
  8
0
 10
19.6289
 20
298.976
 11
20.1791
 21
299.278
  0
LINE
  8
0
 10
20.1791
 20
299.278
 11
20.6871
 21
299.647
  0
LINE
  8
0
 10
20.6871
 20
299.647
 11
21.1448
 21
300.077
  0
LINE
  8
0
 10
21.1448
 20
300.077
 11
21.5451
 21
300.561
  0
LINE
  8
0
 10
21.5451
 20
300.561
 11
21.8815
 21
301.091
  0
LINE
  8
0
 10
21.8815
 20
301.091
 11
22.1489
 21
301.659
  0
LINE
  8
0
 10
22.1489
 20
301.659
 11
22.3429
 21
302.257
  0
LINE
  8
0
 10
22.3429
 20
302.257
 11
22.4606
 21
302.873
  0
LINE
  8
0
 10
22.4606
 20
302.873
 11
22.5
 21
303.5
  0
LINE
  8
0
 10
22.5
 20
303.5
 11
22.5
 21
368.5
  0
LINE
  8
0
 10
22.5
 20
368.5
 11
22.4606
 21
369.127
  0
LINE
  8
0
 10
22.4606
 20
369.127
 11
22.3429
 21
369.743
  0
LINE
  8
0
 10
22.3429
 20
369.743
 11
22.1489
 21
370.341
  0
LINE
  8
0
 10
22.1489
 20
370.341
 11
21.8815
 21
370.909
  0
LINE
  8
0
 10
21.8815
 20
370.909
 11
21.5451
 21
371.439
  0
LINE
  8
0
 10
21.5451
 20
371.439
 11
21.1448
 21
371.923
  0
LINE
  8
0
 10
21.1448
 20
371.923
 11
20.6871
 21
372.353
  0
LINE
  8
0
 10
20.6871
 20
372.353
 11
20.1791
 21
372.722
  0
LINE
  8
0
 10
20.1791
 20
372.722
 11
19.6289
 21
373.024
  0
LINE
  8
0
 10
19.6289
 20
373.024
 11
19.0451
 21
373.255
  0
LINE
  8
0
 10
19.0451
 20
373.255
 11
18.4369
 21
373.411
  0
LINE
  8
0
 10
18.4369
 20
373.411
 11
17.8139
 21
373.49
  0
LINE
  8
0
 10
17.8139
 20
373.49
 11
-17.8139
 21
373.49
  0
LINE
  8
0
 10
-17.8139
 20
373.49
 11
-18.4369
 21
373.411
  0
LINE
  8
0
 10
-18.4369
 20
373.411
 11
-19.0451
 21
373.255
  0
LINE
  8
0
 10
-19.0451
 20
373.255
 11
-19.6289
 21
373.024
  0
LINE
  8
0
 10
-19.6289
 20
373.024
 11
-20.1791
 21
372.722
  0
LINE
  8
0
 10
-20.1791
 20
372.722
 11
-20.6871
 21
372.353
  0
LINE
  8
0
 10
-20.6871
 20
372.353
 11
-21.1448
 21
371.923
  0
LINE
  8
0
 10
-21.1448
 20
371.923
 11
-21.5451
 21
371.439
  0
LINE
  8
0
 10
-21.5451
 20
371.439
 11
-21.8815
 21
370.909
  0
LINE
  8
0
 10
-21.8815
 20
370.909
 11
-22.1489
 21
370.341
  0
LINE
  8
0
 10
-22.1489
 20
370.341
 11
-22.3429
 21
369.743
  0
LINE
  8
0
 10
-22.3429
 20
369.743
 11
-22.4606
 21
369.127
  0
LINE
  8
0
 10
-22.4606
 20
369.127
 11
-22.5
 21
368.5
  0
LINE
  8
0
 10
-22.5
 20
368.5
 11
-22.5
 21
303.5
  0
LINE
  8
0
 10
-22.5
 20
303.5
 11
-22.4606
 21
302.873
  0
LINE
  8
0
 10
-22.4606
 20
302.873
 11
-22.3429
 21
302.257
  0
LINE
  8
0
 10
-22.3429
 20
302.257
 11
-22.1489
 21
301.659
  0
LINE
  8
0
 10
-22.1489
 20
301.659
 11
-21.8815
 21
301.091
  0
LINE
  8
0
 10
-21.8815
 20
301.091
 11
-21.5451
 21
300.561
  0
LINE
  8
0
 10
-21.5451
 20
300.561
 11
-21.1448
 21
300.077
  0
LINE
  8
0
 10
-21.1448
 20
300.077
 11
-20.6871
 21
299.647
  0
LINE
  8
0
 10
-20.6871
 20
299.647
 11
-20.1791
 21
299.278
  0
LINE
  8
0
 10
-20.1791
 20
299.278
 11
-19.6289
 21
298.976
  0
LINE
  8
0
 10
-19.6289
 20
298.976
 11
-19.0451
 21
298.745
  0
LINE
  8
0
 10
-19.0451
 20
298.745
 11
-18.4369
 21
298.589
  0
LINE
  8
0
 10
-18.4369
 20
298.589
 11
-17.8139
 21
298.51
  0
LINE
  8
0
 10
-17.8139
 20
298.51
 11
17.8139
 21
298.51
  0
LINE
  8
0
 10
17.8139
 20
298.51
 11
18.4369
 21
298.589
  0
LINE
  8
0
 10
-17.1954
 20
300.893
 11
-17.5833
 21
300.942
  0
LINE
  8
0
 10
-17.5833
 20
300.942
 11
-17.9619
 21
301.039
  0
LINE
  8
0
 10
-17.9619
 20
301.039
 11
-18.3254
 21
301.183
  0
LINE
  8
0
 10
-18.3254
 20
301.183
 11
-18.668
 21
301.372
  0
LINE
  8
0
 10
-18.668
 20
301.372
 11
-18.9842
 21
301.601
  0
LINE
  8
0
 10
-18.9842
 20
301.601
 11
-19.2692
 21
301.869
  0
LINE
  8
0
 10
-19.2692
 20
301.869
 11
-19.5184
 21
302.17
  0
LINE
  8
0
 10
-19.5184
 20
302.17
 11
-19.7279
 21
302.5
  0
LINE
  8
0
 10
-19.7279
 20
302.5
 11
-19.8943
 21
302.854
  0
LINE
  8
0
 10
-19.8943
 20
302.854
 11
-20.0151
 21
303.226
  0
LINE
  8
0
 10
-20.0151
 20
303.226
 11
-20.0884
 21
303.61
  0
LINE
  8
0
 10
-20.0884
 20
303.61
 11
-20.1129
 21
304
  0
LINE
  8
0
 10
-20.1129
 20
304
 11
-20.1129
 21
368
  0
LINE
  8
0
 10
-20.1129
 20
368
 11
-20.0884
 21
368.39
  0
LINE
  8
0
 10
-20.0884
 20
368.39
 11
-20.0151
 21
368.774
  0
LINE
  8
0
 10
-20.0151
 20
368.774
 11
-19.8943
 21
369.146
  0
LINE
  8
0
 10
-19.8943
 20
369.146
 11
-19.7279
 21
369.5
  0
LINE
  8
0
 10
-19.7279
 20
369.5
 11
-19.5184
 21
369.83
  0
LINE
  8
0
 10
-19.5184
 20
369.83
 11
-19.2692
 21
370.131
  0
LINE
  8
0
 10
-19.2692
 20
370.131
 11
-18.9842
 21
370.399
  0
LINE
  8
0
 10
-18.9842
 20
370.399
 11
-18.668
 21
370.628
  0
LINE
  8
0
 10
-18.668
 20
370.628
 11
-18.3254
 21
370.817
  0
LINE
  8
0
 10
-18.3254
 20
370.817
 11
-17.9619
 21
370.961
  0
LINE
  8
0
 10
-17.9619
 20
370.961
 11
-17.5833
 21
371.058
  0
LINE
  8
0
 10
-17.5833
 20
371.058
 11
-17.1954
 21
371.107
  0
LINE
  8
0
 10
-17.1954
 20
371.107
 11
17.1954
 21
371.107
  0
LINE
  8
0
 10
17.1954
 20
371.107
 11
17.5833
 21
371.058
  0
LINE
  8
0
 10
17.5833
 20
371.058
 11
17.9619
 21
370.961
  0
LINE
  8
0
 10
17.9619
 20
370.961
 11
18.3254
 21
370.817
  0
LINE
  8
0
 10
18.3254
 20
370.817
 11
18.668
 21
370.628
  0
LINE
  8
0
 10
18.668
 20
370.628
 11
18.9842
 21
370.399
  0
LINE
  8
0
 10
18.9842
 20
370.399
 11
19.2692
 21
370.131
  0
LINE
  8
0
 10
19.2692
 20
370.131
 11
19.5184
 21
369.83
  0
LINE
  8
0
 10
19.5184
 20
369.83
 11
19.7279
 21
369.5
  0
LINE
  8
0
 10
19.7279
 20
369.5
 11
19.8943
 21
369.146
  0
LINE
  8
0
 10
19.8943
 20
369.146
 11
20.0151
 21
368.774
  0
LINE
  8
0
 10
20.0151
 20
368.774
 11
20.0884
 21
368.39
  0
LINE
  8
0
 10
20.0884
 20
368.39
 11
20.1129
 21
368
  0
LINE
  8
0
 10
20.1129
 20
368
 11
20.1129
 21
304
  0
LINE
  8
0
 10
20.1129
 20
304
 11
20.0884
 21
303.61
  0
LINE
  8
0
 10
20.0884
 20
303.61
 11
20.0151
 21
303.226
  0
LINE
  8
0
 10
20.0151
 20
303.226
 11
19.8943
 21
302.854
  0
LINE
  8
0
 10
19.8943
 20
302.854
 11
19.7279
 21
302.5
  0
LINE
  8
0
 10
19.7279
 20
302.5
 11
19.5184
 21
302.17
  0
LINE
  8
0
 10
19.5184
 20
302.17
 11
19.2692
 21
301.869
  0
LINE
  8
0
 10
19.2692
 20
301.869
 11
18.9842
 21
301.601
  0
LINE
  8
0
 10
18.9842
 20
301.601
 11
18.668
 21
301.372
  0
LINE
  8
0
 10
18.668
 20
301.372
 11
18.3254
 21
301.183
  0
LINE
  8
0
 10
18.3254
 20
301.183
 11
17.9619
 21
301.039
  0
LINE
  8
0
 10
17.9619
 20
301.039
 11
17.5833
 21
300.942
  0
LINE
  8
0
 10
17.5833
 20
300.942
 11
17.1954
 21
300.893
  0
LINE
  8
0
 10
17.1954
 20
300.893
 11
-17.1954
 21
300.893
  0
LINE
  8
0
 10
18.4369
 20
214.589
 11
19.0451
 21
214.745
  0
LINE
  8
0
 10
19.0451
 20
214.745
 11
19.6289
 21
214.976
  0
LINE
  8
0
 10
19.6289
 20
214.976
 11
20.1791
 21
215.278
  0
LINE
  8
0
 10
20.1791
 20
215.278
 11
20.6871
 21
215.647
  0
LINE
  8
0
 10
20.6871
 20
215.647
 11
21.1448
 21
216.077
  0
LINE
  8
0
 10
21.1448
 20
216.077
 11
21.5451
 21
216.561
  0
LINE
  8
0
 10
21.5451
 20
216.561
 11
21.8815
 21
217.091
  0
LINE
  8
0
 10
21.8815
 20
217.091
 11
22.1489
 21
217.659
  0
LINE
  8
0
 10
22.1489
 20
217.659
 11
22.3429
 21
218.257
  0
LINE
  8
0
 10
22.3429
 20
218.257
 11
22.4606
 21
218.873
  0
LINE
  8
0
 10
22.4606
 20
218.873
 11
22.5
 21
219.5
  0
LINE
  8
0
 10
22.5
 20
219.5
 11
22.5
 21
284.5
  0
LINE
  8
0
 10
22.5
 20
284.5
 11
22.4606
 21
285.127
  0
LINE
  8
0
 10
22.4606
 20
285.127
 11
22.3429
 21
285.743
  0
LINE
  8
0
 10
22.3429
 20
285.743
 11
22.1489
 21
286.341
  0
LINE
  8
0
 10
22.1489
 20
286.341
 11
21.8815
 21
286.909
  0
LINE
  8
0
 10
21.8815
 20
286.909
 11
21.5451
 21
287.439
  0
LINE
  8
0
 10
21.5451
 20
287.439
 11
21.1448
 21
287.923
  0
LINE
  8
0
 10
21.1448
 20
287.923
 11
20.6871
 21
288.353
  0
LINE
  8
0
 10
20.6871
 20
288.353
 11
20.1791
 21
288.722
  0
LINE
  8
0
 10
20.1791
 20
288.722
 11
19.6289
 21
289.024
  0
LINE
  8
0
 10
19.6289
 20
289.024
 11
19.0451
 21
289.255
  0
LINE
  8
0
 10
19.0451
 20
289.255
 11
18.4369
 21
289.411
  0
LINE
  8
0
 10
18.4369
 20
289.411
 11
17.8139
 21
289.49
  0
LINE
  8
0
 10
17.8139
 20
289.49
 11
-17.8139
 21
289.49
  0
LINE
  8
0
 10
-17.8139
 20
289.49
 11
-18.4369
 21
289.411
  0
LINE
  8
0
 10
-18.4369
 20
289.411
 11
-19.0451
 21
289.255
  0
LINE
  8
0
 10
-19.0451
 20
289.255
 11
-19.6289
 21
289.024
  0
LINE
  8
0
 10
-19.6289
 20
289.024
 11
-20.1791
 21
288.722
  0
LINE
  8
0
 10
-20.1791
 20
288.722
 11
-20.6871
 21
288.353
  0
LINE
  8
0
 10
-20.6871
 20
288.353
 11
-21.1448
 21
287.923
  0
LINE
  8
0
 10
-21.1448
 20
287.923
 11
-21.5451
 21
287.439
  0
LINE
  8
0
 10
-21.5451
 20
287.439
 11
-21.8815
 21
286.909
  0
LINE
  8
0
 10
-21.8815
 20
286.909
 11
-22.1489
 21
286.341
  0
LINE
  8
0
 10
-22.1489
 20
286.341
 11
-22.3429
 21
285.743
  0
LINE
  8
0
 10
-22.3429
 20
285.743
 11
-22.4606
 21
285.127
  0
LINE
  8
0
 10
-22.4606
 20
285.127
 11
-22.5
 21
284.5
  0
LINE
  8
0
 10
-22.5
 20
284.5
 11
-22.5
 21
219.5
  0
LINE
  8
0
 10
-22.5
 20
219.5
 11
-22.4606
 21
218.873
  0
LINE
  8
0
 10
-22.4606
 20
218.873
 11
-22.3429
 21
218.257
  0
LINE
  8
0
 10
-22.3429
 20
218.257
 11
-22.1489
 21
217.659
  0
LINE
  8
0
 10
-22.1489
 20
217.659
 11
-21.8815
 21
217.091
  0
LINE
  8
0
 10
-21.8815
 20
217.091
 11
-21.5451
 21
216.561
  0
LINE
  8
0
 10
-21.5451
 20
216.561
 11
-21.1448
 21
216.077
  0
LINE
  8
0
 10
-21.1448
 20
216.077
 11
-20.6871
 21
215.647
  0
LINE
  8
0
 10
-20.6871
 20
215.647
 11
-20.1791
 21
215.278
  0
LINE
  8
0
 10
-20.1791
 20
215.278
 11
-19.6289
 21
214.976
  0
LINE
  8
0
 10
-19.6289
 20
214.976
 11
-19.0451
 21
214.745
  0
LINE
  8
0
 10
-19.0451
 20
214.745
 11
-18.4369
 21
214.589
  0
LINE
  8
0
 10
-18.4369
 20
214.589
 11
-17.8139
 21
214.51
  0
LINE
  8
0
 10
-17.8139
 20
214.51
 11
17.8139
 21
214.51
  0
LINE
  8
0
 10
17.8139
 20
214.51
 11
18.4369
 21
214.589
  0
LINE
  8
0
 10
14.8659
 20
279.869
 11
14.5999
 21
279.903
  0
LINE
  8
0
 10
14.5999
 20
279.903
 11
14.3401
 21
279.969
  0
LINE
  8
0
 10
14.3401
 20
279.969
 11
14.0908
 21
280.068
  0
LINE
  8
0
 10
14.0908
 20
280.068
 11
13.8559
 21
280.197
  0
LINE
  8
0
 10
13.8559
 20
280.197
 11
13.6389
 21
280.355
  0
LINE
  8
0
 10
13.6389
 20
280.355
 11
13.4434
 21
280.538
  0
LINE
  8
0
 10
13.4434
 20
280.538
 11
13.2725
 21
280.745
  0
LINE
  8
0
 10
13.2725
 20
280.745
 11
13.1288
 21
280.971
  0
LINE
  8
0
 10
13.1288
 20
280.971
 11
13.0146
 21
281.214
  0
LINE
  8
0
 10
13.0146
 20
281.214
 11
12.9318
 21
281.469
  0
LINE
  8
0
 10
12.9318
 20
281.469
 11
12.8815
 21
281.732
  0
LINE
  8
0
 10
12.8815
 20
281.732
 11
12.8647
 21
282
  0
LINE
  8
0
 10
12.8647
 20
282
 11
12.8815
 21
282.268
  0
LINE
  8
0
 10
12.8815
 20
282.268
 11
12.9318
 21
282.531
  0
LINE
  8
0
 10
12.9318
 20
282.531
 11
13.0146
 21
282.786
  0
LINE
  8
0
 10
13.0146
 20
282.786
 11
13.1288
 21
283.029
  0
LINE
  8
0
 10
13.1288
 20
283.029
 11
13.2725
 21
283.255
  0
LINE
  8
0
 10
13.2725
 20
283.255
 11
13.4434
 21
283.462
  0
LINE
  8
0
 10
13.4434
 20
283.462
 11
13.6389
 21
283.645
  0
LINE
  8
0
 10
13.6389
 20
283.645
 11
13.8559
 21
283.803
  0
LINE
  8
0
 10
13.8559
 20
283.803
 11
14.0908
 21
283.932
  0
LINE
  8
0
 10
14.0908
 20
283.932
 11
14.3401
 21
284.031
  0
LINE
  8
0
 10
14.3401
 20
284.031
 11
14.5999
 21
284.097
  0
LINE
  8
0
 10
14.5999
 20
284.097
 11
14.8659
 21
284.131
  0
LINE
  8
0
 10
14.8659
 20
284.131
 11
15.1341
 21
284.131
  0
LINE
  8
0
 10
15.1341
 20
284.131
 11
15.4001
 21
284.097
  0
LINE
  8
0
 10
15.4001
 20
284.097
 11
15.6598
 21
284.031
  0
LINE
  8
0
 10
15.6598
 20
284.031
 11
15.9091
 21
283.932
  0
LINE
  8
0
 10
15.9091
 20
283.932
 11
16.1441
 21
283.803
  0
LINE
  8
0
 10
16.1441
 20
283.803
 11
16.3611
 21
283.645
  0
LINE
  8
0
 10
16.3611
 20
283.645
 11
16.5565
 21
283.462
  0
LINE
  8
0
 10
16.5565
 20
283.462
 11
16.7275
 21
283.255
  0
LINE
  8
0
 10
16.7275
 20
283.255
 11
16.8712
 21
283.029
  0
LINE
  8
0
 10
16.8712
 20
283.029
 11
16.9853
 21
282.786
  0
LINE
  8
0
 10
16.9853
 20
282.786
 11
17.0682
 21
282.531
  0
LINE
  8
0
 10
17.0682
 20
282.531
 11
17.1185
 21
282.268
  0
LINE
  8
0
 10
17.1185
 20
282.268
 11
17.1353
 21
282
  0
LINE
  8
0
 10
17.1353
 20
282
 11
17.1185
 21
281.732
  0
LINE
  8
0
 10
17.1185
 20
281.732
 11
17.0682
 21
281.469
  0
LINE
  8
0
 10
17.0682
 20
281.469
 11
16.9853
 21
281.214
  0
LINE
  8
0
 10
16.9853
 20
281.214
 11
16.8712
 21
280.971
  0
LINE
  8
0
 10
16.8712
 20
280.971
 11
16.7275
 21
280.745
  0
LINE
  8
0
 10
16.7275
 20
280.745
 11
16.5565
 21
280.538
  0
LINE
  8
0
 10
16.5565
 20
280.538
 11
16.3611
 21
280.355
  0
LINE
  8
0
 10
16.3611
 20
280.355
 11
16.1441
 21
280.197
  0
LINE
  8
0
 10
16.1441
 20
280.197
 11
15.9091
 21
280.068
  0
LINE
  8
0
 10
15.9091
 20
280.068
 11
15.6598
 21
279.969
  0
LINE
  8
0
 10
15.6598
 20
279.969
 11
15.4001
 21
279.903
  0
LINE
  8
0
 10
15.4001
 20
279.903
 11
15.1341
 21
279.869
  0
LINE
  8
0
 10
15.1341
 20
279.869
 11
14.8659
 21
279.869
  0
LINE
  8
0
 10
-15.1341
 20
279.869
 11
-15.4001
 21
279.903
  0
LINE
  8
0
 10
-15.4001
 20
279.903
 11
-15.6598
 21
279.969
  0
LINE
  8
0
 10
-15.6598
 20
279.969
 11
-15.9091
 21
280.068
  0
LINE
  8
0
 10
-15.9091
 20
280.068
 11
-16.1441
 21
280.197
  0
LINE
  8
0
 10
-16.1441
 20
280.197
 11
-16.3611
 21
280.355
  0
LINE
  8
0
 10
-16.3611
 20
280.355
 11
-16.5565
 21
280.538
  0
LINE
  8
0
 10
-16.5565
 20
280.538
 11
-16.7275
 21
280.745
  0
LINE
  8
0
 10
-16.7275
 20
280.745
 11
-16.8712
 21
280.971
  0
LINE
  8
0
 10
-16.8712
 20
280.971
 11
-16.9853
 21
281.214
  0
LINE
  8
0
 10
-16.9853
 20
281.214
 11
-17.0682
 21
281.469
  0
LINE
  8
0
 10
-17.0682
 20
281.469
 11
-17.1185
 21
281.732
  0
LINE
  8
0
 10
-17.1185
 20
281.732
 11
-17.1353
 21
282
  0
LINE
  8
0
 10
-17.1353
 20
282
 11
-17.1185
 21
282.268
  0
LINE
  8
0
 10
-17.1185
 20
282.268
 11
-17.0682
 21
282.531
  0
LINE
  8
0
 10
-17.0682
 20
282.531
 11
-16.9853
 21
282.786
  0
LINE
  8
0
 10
-16.9853
 20
282.786
 11
-16.8712
 21
283.029
  0
LINE
  8
0
 10
-16.8712
 20
283.029
 11
-16.7275
 21
283.255
  0
LINE
  8
0
 10
-16.7275
 20
283.255
 11
-16.5565
 21
283.462
  0
LINE
  8
0
 10
-16.5565
 20
283.462
 11
-16.3611
 21
283.645
  0
LINE
  8
0
 10
-16.3611
 20
283.645
 11
-16.1441
 21
283.803
  0
LINE
  8
0
 10
-16.1441
 20
283.803
 11
-15.9091
 21
283.932
  0
LINE
  8
0
 10
-15.9091
 20
283.932
 11
-15.6598
 21
284.031
  0
LINE
  8
0
 10
-15.6598
 20
284.031
 11
-15.4001
 21
284.097
  0
LINE
  8
0
 10
-15.4001
 20
284.097
 11
-15.1341
 21
284.131
  0
LINE
  8
0
 10
-15.1341
 20
284.131
 11
-14.8659
 21
284.131
  0
LINE
  8
0
 10
-14.8659
 20
284.131
 11
-14.5999
 21
284.097
  0
LINE
  8
0
 10
-14.5999
 20
284.097
 11
-14.3401
 21
284.031
  0
LINE
  8
0
 10
-14.3401
 20
284.031
 11
-14.0908
 21
283.932
  0
LINE
  8
0
 10
-14.0908
 20
283.932
 11
-13.8559
 21
283.803
  0
LINE
  8
0
 10
-13.8559
 20
283.803
 11
-13.6389
 21
283.645
  0
LINE
  8
0
 10
-13.6389
 20
283.645
 11
-13.4434
 21
283.462
  0
LINE
  8
0
 10
-13.4434
 20
283.462
 11
-13.2725
 21
283.255
  0
LINE
  8
0
 10
-13.2725
 20
283.255
 11
-13.1288
 21
283.029
  0
LINE
  8
0
 10
-13.1288
 20
283.029
 11
-13.0146
 21
282.786
  0
LINE
  8
0
 10
-13.0146
 20
282.786
 11
-12.9318
 21
282.531
  0
LINE
  8
0
 10
-12.9318
 20
282.531
 11
-12.8815
 21
282.268
  0
LINE
  8
0
 10
-12.8815
 20
282.268
 11
-12.8647
 21
282
  0
LINE
  8
0
 10
-12.8647
 20
282
 11
-12.8815
 21
281.732
  0
LINE
  8
0
 10
-12.8815
 20
281.732
 11
-12.9318
 21
281.469
  0
LINE
  8
0
 10
-12.9318
 20
281.469
 11
-13.0146
 21
281.214
  0
LINE
  8
0
 10
-13.0146
 20
281.214
 11
-13.1288
 21
280.971
  0
LINE
  8
0
 10
-13.1288
 20
280.971
 11
-13.2725
 21
280.745
  0
LINE
  8
0
 10
-13.2725
 20
280.745
 11
-13.4434
 21
280.538
  0
LINE
  8
0
 10
-13.4434
 20
280.538
 11
-13.6389
 21
280.355
  0
LINE
  8
0
 10
-13.6389
 20
280.355
 11
-13.8559
 21
280.197
  0
LINE
  8
0
 10
-13.8559
 20
280.197
 11
-14.0908
 21
280.068
  0
LINE
  8
0
 10
-14.0908
 20
280.068
 11
-14.3401
 21
279.969
  0
LINE
  8
0
 10
-14.3401
 20
279.969
 11
-14.5999
 21
279.903
  0
LINE
  8
0
 10
-14.5999
 20
279.903
 11
-14.8659
 21
279.869
  0
LINE
  8
0
 10
-14.8659
 20
279.869
 11
-15.1341
 21
279.869
  0
LINE
  8
0
 10
14.8659
 20
219.869
 11
14.5999
 21
219.903
  0
LINE
  8
0
 10
14.5999
 20
219.903
 11
14.3401
 21
219.969
  0
LINE
  8
0
 10
14.3401
 20
219.969
 11
14.0908
 21
220.068
  0
LINE
  8
0
 10
14.0908
 20
220.068
 11
13.8559
 21
220.197
  0
LINE
  8
0
 10
13.8559
 20
220.197
 11
13.6389
 21
220.355
  0
LINE
  8
0
 10
13.6389
 20
220.355
 11
13.4434
 21
220.538
  0
LINE
  8
0
 10
13.4434
 20
220.538
 11
13.2725
 21
220.745
  0
LINE
  8
0
 10
13.2725
 20
220.745
 11
13.1288
 21
220.971
  0
LINE
  8
0
 10
13.1288
 20
220.971
 11
13.0146
 21
221.214
  0
LINE
  8
0
 10
13.0146
 20
221.214
 11
12.9318
 21
221.469
  0
LINE
  8
0
 10
12.9318
 20
221.469
 11
12.8815
 21
221.732
  0
LINE
  8
0
 10
12.8815
 20
221.732
 11
12.8647
 21
222
  0
LINE
  8
0
 10
12.8647
 20
222
 11
12.8815
 21
222.268
  0
LINE
  8
0
 10
12.8815
 20
222.268
 11
12.9318
 21
222.531
  0
LINE
  8
0
 10
12.9318
 20
222.531
 11
13.0146
 21
222.786
  0
LINE
  8
0
 10
13.0146
 20
222.786
 11
13.1288
 21
223.029
  0
LINE
  8
0
 10
13.1288
 20
223.029
 11
13.2725
 21
223.255
  0
LINE
  8
0
 10
13.2725
 20
223.255
 11
13.4434
 21
223.462
  0
LINE
  8
0
 10
13.4434
 20
223.462
 11
13.6389
 21
223.645
  0
LINE
  8
0
 10
13.6389
 20
223.645
 11
13.8559
 21
223.803
  0
LINE
  8
0
 10
13.8559
 20
223.803
 11
14.0908
 21
223.932
  0
LINE
  8
0
 10
14.0908
 20
223.932
 11
14.3401
 21
224.031
  0
LINE
  8
0
 10
14.3401
 20
224.031
 11
14.5999
 21
224.097
  0
LINE
  8
0
 10
14.5999
 20
224.097
 11
14.8659
 21
224.131
  0
LINE
  8
0
 10
14.8659
 20
224.131
 11
15.1341
 21
224.131
  0
LINE
  8
0
 10
15.1341
 20
224.131
 11
15.4001
 21
224.097
  0
LINE
  8
0
 10
15.4001
 20
224.097
 11
15.6598
 21
224.031
  0
LINE
  8
0
 10
15.6598
 20
224.031
 11
15.9091
 21
223.932
  0
LINE
  8
0
 10
15.9091
 20
223.932
 11
16.1441
 21
223.803
  0
LINE
  8
0
 10
16.1441
 20
223.803
 11
16.3611
 21
223.645
  0
LINE
  8
0
 10
16.3611
 20
223.645
 11
16.5565
 21
223.462
  0
LINE
  8
0
 10
16.5565
 20
223.462
 11
16.7275
 21
223.255
  0
LINE
  8
0
 10
16.7275
 20
223.255
 11
16.8712
 21
223.029
  0
LINE
  8
0
 10
16.8712
 20
223.029
 11
16.9853
 21
222.786
  0
LINE
  8
0
 10
16.9853
 20
222.786
 11
17.0682
 21
222.531
  0
LINE
  8
0
 10
17.0682
 20
222.531
 11
17.1185
 21
222.268
  0
LINE
  8
0
 10
17.1185
 20
222.268
 11
17.1353
 21
222
  0
LINE
  8
0
 10
17.1353
 20
222
 11
17.1185
 21
221.732
  0
LINE
  8
0
 10
17.1185
 20
221.732
 11
17.0682
 21
221.469
  0
LINE
  8
0
 10
17.0682
 20
221.469
 11
16.9853
 21
221.214
  0
LINE
  8
0
 10
16.9853
 20
221.214
 11
16.8712
 21
220.971
  0
LINE
  8
0
 10
16.8712
 20
220.971
 11
16.7275
 21
220.745
  0
LINE
  8
0
 10
16.7275
 20
220.745
 11
16.5565
 21
220.538
  0
LINE
  8
0
 10
16.5565
 20
220.538
 11
16.3611
 21
220.355
  0
LINE
  8
0
 10
16.3611
 20
220.355
 11
16.1441
 21
220.197
  0
LINE
  8
0
 10
16.1441
 20
220.197
 11
15.9091
 21
220.068
  0
LINE
  8
0
 10
15.9091
 20
220.068
 11
15.6598
 21
219.969
  0
LINE
  8
0
 10
15.6598
 20
219.969
 11
15.4001
 21
219.903
  0
LINE
  8
0
 10
15.4001
 20
219.903
 11
15.1341
 21
219.869
  0
LINE
  8
0
 10
15.1341
 20
219.869
 11
14.8659
 21
219.869
  0
LINE
  8
0
 10
-15.1341
 20
219.869
 11
-15.4001
 21
219.903
  0
LINE
  8
0
 10
-15.4001
 20
219.903
 11
-15.6598
 21
219.969
  0
LINE
  8
0
 10
-15.6598
 20
219.969
 11
-15.9091
 21
220.068
  0
LINE
  8
0
 10
-15.9091
 20
220.068
 11
-16.1441
 21
220.197
  0
LINE
  8
0
 10
-16.1441
 20
220.197
 11
-16.3611
 21
220.355
  0
LINE
  8
0
 10
-16.3611
 20
220.355
 11
-16.5565
 21
220.538
  0
LINE
  8
0
 10
-16.5565
 20
220.538
 11
-16.7275
 21
220.745
  0
LINE
  8
0
 10
-16.7275
 20
220.745
 11
-16.8712
 21
220.971
  0
LINE
  8
0
 10
-16.8712
 20
220.971
 11
-16.9853
 21
221.214
  0
LINE
  8
0
 10
-16.9853
 20
221.214
 11
-17.0682
 21
221.469
  0
LINE
  8
0
 10
-17.0682
 20
221.469
 11
-17.1185
 21
221.732
  0
LINE
  8
0
 10
-17.1185
 20
221.732
 11
-17.1353
 21
222
  0
LINE
  8
0
 10
-17.1353
 20
222
 11
-17.1185
 21
222.268
  0
LINE
  8
0
 10
-17.1185
 20
222.268
 11
-17.0682
 21
222.531
  0
LINE
  8
0
 10
-17.0682
 20
222.531
 11
-16.9853
 21
222.786
  0
LINE
  8
0
 10
-16.9853
 20
222.786
 11
-16.8712
 21
223.029
  0
LINE
  8
0
 10
-16.8712
 20
223.029
 11
-16.7275
 21
223.255
  0
LINE
  8
0
 10
-16.7275
 20
223.255
 11
-16.5565
 21
223.462
  0
LINE
  8
0
 10
-16.5565
 20
223.462
 11
-16.3611
 21
223.645
  0
LINE
  8
0
 10
-16.3611
 20
223.645
 11
-16.1441
 21
223.803
  0
LINE
  8
0
 10
-16.1441
 20
223.803
 11
-15.9091
 21
223.932
  0
LINE
  8
0
 10
-15.9091
 20
223.932
 11
-15.6598
 21
224.031
  0
LINE
  8
0
 10
-15.6598
 20
224.031
 11
-15.4001
 21
224.097
  0
LINE
  8
0
 10
-15.4001
 20
224.097
 11
-15.1341
 21
224.131
  0
LINE
  8
0
 10
-15.1341
 20
224.131
 11
-14.8659
 21
224.131
  0
LINE
  8
0
 10
-14.8659
 20
224.131
 11
-14.5999
 21
224.097
  0
LINE
  8
0
 10
-14.5999
 20
224.097
 11
-14.3401
 21
224.031
  0
LINE
  8
0
 10
-14.3401
 20
224.031
 11
-14.0908
 21
223.932
  0
LINE
  8
0
 10
-14.0908
 20
223.932
 11
-13.8559
 21
223.803
  0
LINE
  8
0
 10
-13.8559
 20
223.803
 11
-13.6389
 21
223.645
  0
LINE
  8
0
 10
-13.6389
 20
223.645
 11
-13.4434
 21
223.462
  0
LINE
  8
0
 10
-13.4434
 20
223.462
 11
-13.2725
 21
223.255
  0
LINE
  8
0
 10
-13.2725
 20
223.255
 11
-13.1288
 21
223.029
  0
LINE
  8
0
 10
-13.1288
 20
223.029
 11
-13.0146
 21
222.786
  0
LINE
  8
0
 10
-13.0146
 20
222.786
 11
-12.9318
 21
222.531
  0
LINE
  8
0
 10
-12.9318
 20
222.531
 11
-12.8815
 21
222.268
  0
LINE
  8
0
 10
-12.8815
 20
222.268
 11
-12.8647
 21
222
  0
LINE
  8
0
 10
-12.8647
 20
222
 11
-12.8815
 21
221.732
  0
LINE
  8
0
 10
-12.8815
 20
221.732
 11
-12.9318
 21
221.469
  0
LINE
  8
0
 10
-12.9318
 20
221.469
 11
-13.0146
 21
221.214
  0
LINE
  8
0
 10
-13.0146
 20
221.214
 11
-13.1288
 21
220.971
  0
LINE
  8
0
 10
-13.1288
 20
220.971
 11
-13.2725
 21
220.745
  0
LINE
  8
0
 10
-13.2725
 20
220.745
 11
-13.4434
 21
220.538
  0
LINE
  8
0
 10
-13.4434
 20
220.538
 11
-13.6389
 21
220.355
  0
LINE
  8
0
 10
-13.6389
 20
220.355
 11
-13.8559
 21
220.197
  0
LINE
  8
0
 10
-13.8559
 20
220.197
 11
-14.0908
 21
220.068
  0
LINE
  8
0
 10
-14.0908
 20
220.068
 11
-14.3401
 21
219.969
  0
LINE
  8
0
 10
-14.3401
 20
219.969
 11
-14.5999
 21
219.903
  0
LINE
  8
0
 10
-14.5999
 20
219.903
 11
-14.8659
 21
219.869
  0
LINE
  8
0
 10
-14.8659
 20
219.869
 11
-15.1341
 21
219.869
  0
ENDSEC
  0
SECTION
  2
OBJECTS
  0
DICTIONARY
  0
ENDSEC
  0
EOF
