<?xml version="1.0" standalone="no"?>
<!DOCTYPE svg PUBLIC "-//W3C//DTD SVG 1.1//EN" "http://www.w3.org/Graphics/SVG/1.1/DTD/svg11.dtd">
<svg width="106mm" height="40mm" viewBox="-53 -80 106 40" xmlns="http://www.w3.org/2000/svg" version="1.1">
<title>OpenSCAD Model</title>
<path d="
M 48.4369,-64.5886 L 49.0451,-64.7447 L 49.6289,-64.9759 L 50.1791,-65.2784 L 50.6871,-65.6474 L 51.1448,-66.0773
 L 51.5451,-66.5611 L 51.8815,-67.0912 L 52.1489,-67.6594 L 52.3429,-68.2566 L 52.4606,-68.8733 L 52.5,-69.5
 L 52.5,-74.5 L 52.4606,-75.1267 L 52.3429,-75.7434 L 52.1489,-76.3406 L 51.8815,-76.9088 L 51.5451,-77.4389
 L 51.1448,-77.9227 L 50.6871,-78.3526 L 50.1791,-78.7216 L 49.6289,-79.0241 L 49.0451,-79.2553 L 48.4369,-79.4114
 L 47.8139,-79.4901 L -47.8139,-79.4901 L -48.4369,-79.4114 L -49.0451,-79.2553 L -49.6289,-79.0241 L -50.1791,-78.7216
 L -50.6871,-78.3526 L -51.1448,-77.9227 L -51.5451,-77.4389 L -51.8815,-76.9088 L -52.1489,-76.3406 L -52.3429,-75.7434
 L -52.4606,-75.1267 L -52.5,-74.5 L -52.5,-69.5 L -52.4606,-68.8733 L -52.3429,-68.2566 L -52.1489,-67.6594
 L -51.8815,-67.0912 L -51.5451,-66.5611 L -51.1448,-66.0773 L -50.6871,-65.6474 L -50.1791,-65.2784 L -49.6289,-64.9759
 L -49.0451,-64.7447 L -48.4369,-64.5886 L -47.8139,-64.5099 L 47.8139,-64.5099 z
M -47.5375,-65.1806 L -48.1079,-65.2527 L -48.6648,-65.3956 L -49.1994,-65.6073 L -49.7032,-65.8843 L -50.1684,-66.2223
 L -50.5875,-66.6158 L -50.954,-67.0589 L -51.2621,-67.5443 L -51.5069,-68.0646 L -51.6846,-68.6114 L -51.7923,-69.1762
 L -51.8284,-69.75 L -51.8284,-74.25 L -51.7923,-74.8238 L -51.6846,-75.3886 L -51.5069,-75.9354 L -51.2621,-76.4557
 L -50.954,-76.9411 L -50.5875,-77.3842 L -50.1684,-77.7777 L -49.7032,-78.1157 L -49.1994,-78.3927 L -48.6648,-78.6044
 L -48.1079,-78.7473 L -47.5375,-78.8194 L 47.5375,-78.8194 L 48.1079,-78.7473 L 48.6648,-78.6044 L 49.1994,-78.3927
 L 49.7032,-78.1157 L 50.1684,-77.7777 L 50.5875,-77.3842 L 50.954,-76.9411 L 51.2621,-76.4557 L 51.5069,-75.9354
 L 51.6846,-75.3886 L 51.7923,-74.8238 L 51.8284,-74.25 L 51.8284,-69.75 L 51.7923,-69.1762 L 51.6846,-68.6114
 L 51.5069,-68.0646 L 51.2621,-67.5443 L 50.954,-67.0589 L 50.5875,-66.6158 L 50.1684,-66.2223 L 49.7032,-65.8843
 L 49.1994,-65.6073 L 48.6648,-65.3956 L 48.1079,-65.2527 L 47.5375,-65.1806 z
M 48.4369,-40.5886 L 49.0451,-40.7447 L 49.6289,-40.9759 L 50.1791,-41.2784 L 50.6871,-41.6474 L 51.1448,-42.0773
 L 51.5451,-42.5611 L 51.8815,-43.0912 L 52.1489,-43.6594 L 52.3429,-44.2566 L 52.4606,-44.8733 L 52.5,-45.5
 L 52.5,-50.5 L 52.4606,-51.1267 L 52.3429,-51.7434 L 52.1489,-52.3406 L 51.8815,-52.9088 L 51.5451,-53.4389
 L 51.1448,-53.9227 L 50.6871,-54.3526 L 50.1791,-54.7216 L 49.6289,-55.0241 L 49.0451,-55.2553 L 48.4369,-55.4114
 L 47.8139,-55.4901 L -47.8139,-55.4901 L -48.4369,-55.4114 L -49.0451,-55.2553 L -49.6289,-55.0241 L -50.1791,-54.7216
 L -50.6871,-54.3526 L -51.1448,-53.9227 L -51.5451,-53.4389 L -51.8815,-52.9088 L -52.1489,-52.3406 L -52.3429,-51.7434
 L -52.4606,-51.1267 L -52.5,-50.5 L -52.5,-45.5 L -52.4606,-44.8733 L -52.3429,-44.2566 L -52.1489,-43.6594
 L -51.8815,-43.0912 L -51.5451,-42.5611 L -51.1448,-42.0773 L -50.6871,-41.6474 L -50.1791,-41.2784 L -49.6289,-40.9759
 L -49.0451,-40.7447 L -48.4369,-40.5886 L -47.8139,-40.5099 L 47.8139,-40.5099 z
M -47.3825,-43.6445 L -47.6453,-43.6777 L -47.9019,-43.7436 L -48.1482,-43.8412 L -48.3804,-43.9688 L -48.5947,-44.1245
 L -48.7879,-44.3059 L -48.9567,-44.51 L -49.0987,-44.7337 L -49.2115,-44.9734 L -49.2934,-45.2254 L -49.343,-45.4856
 L -49.3596,-45.75 L -49.3596,-50.25 L -49.343,-50.5144 L -49.2934,-50.7746 L -49.2115,-51.0266 L -49.0987,-51.2663
 L -48.9567,-51.49 L -48.7879,-51.6941 L -48.5947,-51.8755 L -48.3804,-52.0312 L -48.1482,-52.1588 L -47.9019,-52.2564
 L -47.6453,-52.3223 L -47.3825,-52.3555 L 47.3825,-52.3555 L 47.6453,-52.3223 L 47.9019,-52.2564 L 48.1482,-52.1588
 L 48.3804,-52.0312 L 48.5947,-51.8755 L 48.7879,-51.6941 L 48.9567,-51.49 L 49.0987,-51.2663 L 49.2115,-51.0266
 L 49.2934,-50.7746 L 49.343,-50.5144 L 49.3596,-50.25 L 49.3596,-45.75 L 49.343,-45.4856 L 49.2934,-45.2254
 L 49.2115,-44.9734 L 49.0987,-44.7337 L 48.9567,-44.51 L 48.7879,-44.3059 L 48.5947,-44.1245 L 48.3804,-43.9688
 L 48.1482,-43.8412 L 47.9019,-43.7436 L 47.6453,-43.6777 L 47.3825,-43.6445 z
" stroke="black" fill="lightgray" stroke-width="0.5"/>
</svg>
