<?xml version="1.0" standalone="no"?>
<!DOCTYPE svg PUBLIC "-//W3C//DTD SVG 1.1//EN" "http://www.w3.org/Graphics/SVG/1.1/DTD/svg11.dtd">
<svg width="44mm" height="98mm" viewBox="-22 -184 44 98" xmlns="http://www.w3.org/2000/svg" version="1.1">
<title>OpenSCAD Model</title>
<path d="
M 17.9369,-140.089 L 18.5451,-140.245 L 19.1289,-140.476 L 19.6791,-140.778 L 20.1871,-141.147 L 20.6448,-141.577
 L 21.0451,-142.061 L 21.3815,-142.591 L 21.6489,-143.159 L 21.8429,-143.757 L 21.9606,-144.373 L 22,-145
 L 22,-177 L 11.5,-177 L 11.5,-176.995 L 11.343,-176.995 L 11.0315,-176.956 L 10.7274,-176.878
 L 10.4355,-176.762 L 10.1604,-176.611 L 9.90643,-176.426 L 9.67757,-176.211 L 9.47745,-175.969 L 9.30922,-175.704
 L 9.17555,-175.42 L 9.07854,-175.122 L 9.0197,-174.813 L 9,-174.5 L 9.0197,-174.187 L 9.07854,-173.878
 L 9.17555,-173.58 L 9.30922,-173.296 L 9.47745,-173.031 L 9.67757,-172.789 L 9.90643,-172.574 L 10.1604,-172.389
 L 10.4355,-172.238 L 10.7274,-172.122 L 11.0315,-172.044 L 11.343,-172.005 L 13.7429,-172.005 L 13.7533,-171.992
 L 14.8972,-170.19 L 15.8062,-168.258 L 16.4659,-166.228 L 16.8659,-164.131 L 17,-162 L 16.8659,-159.869
 L 16.4659,-157.772 L 15.8062,-155.742 L 14.8972,-153.81 L 13.7533,-152.008 L 12.3925,-150.363 L 10.8362,-148.901
 L 9.10905,-147.646 L 7.23824,-146.618 L 5.25328,-145.832 L 3.18547,-145.301 L 1.06743,-145.034 L -1.06743,-145.034
 L -3.18547,-145.301 L -5.25328,-145.832 L -7.23824,-146.618 L -9.10905,-147.646 L -10.8362,-148.901 L -12.3925,-150.363
 L -13.7533,-152.008 L -14.8972,-153.81 L -15.8062,-155.742 L -16.4659,-157.772 L -16.8659,-159.869 L -17,-162
 L -16.8659,-164.131 L -16.4659,-166.228 L -15.8062,-168.258 L -14.8972,-170.19 L -13.7533,-171.992 L -12.3925,-173.637
 L -10.8362,-175.099 L -9.10905,-176.354 L -7.23824,-177.382 L -5.25328,-178.168 L -3.18547,-178.699 L -1.06743,-178.966
 L 0,-178.966 L 0,-181 L 6.99998,-181 L 4.00986,-183.99 L 3.5,-183.99 L 3.5,-183
 L -21.5,-183 L -21.5,-184 L -22,-184 L -22,-179.994 L -14.8116,-179.994 L -14.4379,-179.947
 L -14.0729,-179.853 L -13.7227,-179.714 L -13.3925,-179.533 L -13.0877,-179.312 L -12.8131,-179.054 L -12.5729,-178.763
 L -12.3711,-178.445 L -12.2107,-178.104 L -12.0942,-177.746 L -12.0237,-177.376 L -12,-177 L -12.0237,-176.624
 L -12.0942,-176.254 L -12.2107,-175.896 L -12.3711,-175.555 L -12.5729,-175.237 L -12.8131,-174.946 L -13.0877,-174.688
 L -13.3925,-174.467 L -13.7227,-174.286 L -14.0729,-174.147 L -14.4379,-174.053 L -14.8116,-174.006 L -22,-174.006
 L -22,-149.994 L -14.8116,-149.994 L -14.4379,-149.947 L -14.0729,-149.853 L -13.7227,-149.714 L -13.3925,-149.533
 L -13.0877,-149.312 L -12.8131,-149.054 L -12.5729,-148.763 L -12.3711,-148.445 L -12.2107,-148.104 L -12.0942,-147.746
 L -12.0237,-147.376 L -12,-147 L -12.0237,-146.624 L -12.0942,-146.254 L -12.2107,-145.896 L -12.3711,-145.555
 L -12.5729,-145.237 L -12.8131,-144.946 L -13.0877,-144.688 L -13.3925,-144.467 L -13.7227,-144.286 L -14.0729,-144.147
 L -14.4379,-144.053 L -14.8116,-144.006 L -21.8905,-144.006 L -21.8429,-143.757 L -21.6489,-143.159 L -21.3815,-142.591
 L -21.0451,-142.061 L -20.6448,-141.577 L -20.1871,-141.147 L -19.6791,-140.778 L -19.1289,-140.476 L -18.5451,-140.245
 L -17.9369,-140.089 L -17.3139,-140.01 L 17.3139,-140.01 z
M 14.8116,-144.006 L 14.4379,-144.053 L 14.0729,-144.147 L 13.7227,-144.286 L 13.3925,-144.467 L 13.0877,-144.688
 L 12.8131,-144.946 L 12.5729,-145.237 L 12.3711,-145.555 L 12.2107,-145.896 L 12.0942,-146.254 L 12.0237,-146.624
 L 12,-147 L 12.0237,-147.376 L 12.0942,-147.746 L 12.2107,-148.104 L 12.3711,-148.445 L 12.5729,-148.763
 L 12.8131,-149.054 L 13.0877,-149.312 L 13.3925,-149.533 L 13.7227,-149.714 L 14.0729,-149.853 L 14.4379,-149.947
 L 14.8116,-149.994 L 15.1884,-149.994 L 15.5621,-149.947 L 15.927,-149.853 L 16.2773,-149.714 L 16.6075,-149.533
 L 16.9123,-149.312 L 17.1869,-149.054 L 17.427,-148.763 L 17.6289,-148.445 L 17.7893,-148.104 L 17.9057,-147.746
 L 17.9763,-147.376 L 18,-147 L 17.9763,-146.624 L 17.9057,-146.254 L 17.7893,-145.896 L 17.6289,-145.555
 L 17.427,-145.237 L 17.1869,-144.946 L 16.9123,-144.688 L 16.6075,-144.467 L 16.2773,-144.286 L 15.927,-144.147
 L 15.5621,-144.053 L 15.1884,-144.006 z
M 16,-183.99 L 6.13118,-183.99 L 9.12131,-181 L 16,-181 z
M 17.9369,-86.0886 L 18.5451,-86.2447 L 19.1289,-86.4759 L 19.6791,-86.7784 L 20.1871,-87.1474 L 20.6448,-87.5773
 L 21.0451,-88.0611 L 21.3815,-88.5912 L 21.6489,-89.1594 L 21.8429,-89.7566 L 21.9606,-90.3733 L 22,-91
 L 22,-125 L 21.9606,-125.627 L 21.8429,-126.243 L 21.6489,-126.841 L 21.3815,-127.409 L 21.0451,-127.939
 L 20.6448,-128.423 L 20.1871,-128.853 L 19.6791,-129.222 L 19.1289,-129.524 L 18.5451,-129.755 L 17.9369,-129.911
 L 17.3139,-129.99 L 3.5,-129.99 L 3.5,-129 L -21.5,-129 L -21.5,-130 L -22,-130
 L -22,-125.994 L -14.8116,-125.994 L -14.4379,-125.947 L -14.0729,-125.853 L -13.7227,-125.714 L -13.3925,-125.533
 L -13.0877,-125.312 L -12.8131,-125.054 L -12.5729,-124.763 L -12.3711,-124.445 L -12.2107,-124.104 L -12.0942,-123.746
 L -12.0237,-123.376 L -12,-123 L -12.0237,-122.624 L -12.0942,-122.254 L -12.2107,-121.896 L -12.3711,-121.555
 L -12.5729,-121.237 L -12.8131,-120.946 L -13.0877,-120.688 L -13.3925,-120.467 L -13.7227,-120.286 L -14.0729,-120.147
 L -14.4379,-120.053 L -14.8116,-120.006 L -22,-120.006 L -22,-95.9941 L -14.8116,-95.9941 L -14.4379,-95.9469
 L -14.0729,-95.8532 L -13.7227,-95.7145 L -13.3925,-95.533 L -13.0877,-95.3116 L -12.8131,-95.0536 L -12.5729,-94.7634
 L -12.3711,-94.4453 L -12.2107,-94.1044 L -12.0942,-93.7461 L -12.0237,-93.376 L -12,-93 L -12.0237,-92.624
 L -12.0942,-92.2539 L -12.2107,-91.8956 L -12.3711,-91.5547 L -12.5729,-91.2366 L -12.8131,-90.9464 L -13.0877,-90.6885
 L -13.3925,-90.467 L -13.7227,-90.2855 L -14.0729,-90.1468 L -14.4379,-90.0531 L -14.8116,-90.0059 L -21.8905,-90.0059
 L -21.8429,-89.7566 L -21.6489,-89.1594 L -21.3815,-88.5912 L -21.0451,-88.0611 L -20.6448,-87.5773 L -20.1871,-87.1474
 L -19.6791,-86.7784 L -19.1289,-86.4759 L -18.5451,-86.2447 L -17.9369,-86.0886 L -17.3139,-86.0099 L 17.3139,-86.0099
 z
M -0.408127,-101.513 L -1.21797,-101.615 L -2.00861,-101.818 L -2.76756,-102.119 L -3.48286,-102.512 L -4.14325,-102.992
 L -4.73828,-103.55 L -5.25861,-104.179 L -5.69598,-104.869 L -6.04353,-105.607 L -6.29578,-106.384 L -6.44873,-107.185
 L -6.5,-108 L -6.44873,-108.815 L -6.29578,-109.616 L -6.04353,-110.393 L -5.69598,-111.131 L -5.25861,-111.821
 L -4.73828,-112.45 L -4.14325,-113.008 L -3.48286,-113.488 L -2.76756,-113.881 L -2.00861,-114.182 L -1.21797,-114.385
 L -0.408127,-114.487 L 0.408127,-114.487 L 1.21797,-114.385 L 2.00861,-114.182 L 2.76756,-113.881 L 3.48286,-113.488
 L 4.14325,-113.008 L 4.73828,-112.45 L 5.25861,-111.821 L 5.69598,-111.131 L 6.04353,-110.393 L 6.29578,-109.616
 L 6.44873,-108.815 L 6.5,-108 L 6.44873,-107.185 L 6.29578,-106.384 L 6.04353,-105.607 L 5.69598,-104.869
 L 5.25861,-104.179 L 4.73828,-103.55 L 4.14325,-102.992 L 3.48286,-102.512 L 2.76756,-102.119 L 2.00861,-101.818
 L 1.21797,-101.615 L 0.408127,-101.513 z
M 14.8116,-90.0059 L 14.4379,-90.0531 L 14.0729,-90.1468 L 13.7227,-90.2855 L 13.3925,-90.467 L 13.0877,-90.6885
 L 12.8131,-90.9464 L 12.5729,-91.2366 L 12.3711,-91.5547 L 12.2107,-91.8956 L 12.0942,-92.2539 L 12.0237,-92.624
 L 12,-93 L 12.0237,-93.376 L 12.0942,-93.7461 L 12.2107,-94.1044 L 12.3711,-94.4453 L 12.5729,-94.7634
 L 12.8131,-95.0536 L 13.0877,-95.3116 L 13.3925,-95.533 L 13.7227,-95.7145 L 14.0729,-95.8532 L 14.4379,-95.9469
 L 14.8116,-95.9941 L 15.1884,-95.9941 L 15.5621,-95.9469 L 15.927,-95.8532 L 16.2773,-95.7145 L 16.6075,-95.533
 L 16.9123,-95.3116 L 17.1869,-95.0536 L 17.427,-94.7634 L 17.6289,-94.4453 L 17.7893,-94.1044 L 17.9057,-93.7461
 L 17.9763,-93.376 L 18,-93 L 17.9763,-92.624 L 17.9057,-92.2539 L 17.7893,-91.8956 L 17.6289,-91.5547
 L 17.427,-91.2366 L 17.1869,-90.9464 L 16.9123,-90.6885 L 16.6075,-90.467 L 16.2773,-90.2855 L 15.927,-90.1468
 L 15.5621,-90.0531 L 15.1884,-90.0059 z
" stroke="black" fill="lightgray" stroke-width="0.5"/>
</svg>
