<?xml version="1.0" standalone="no"?>
<!DOCTYPE svg PUBLIC "-//W3C//DTD SVG 1.1//EN" "http://www.w3.org/Graphics/SVG/1.1/DTD/svg11.dtd">
<svg width="16mm" height="220mm" viewBox="-8 -395 16 220" xmlns="http://www.w3.org/2000/svg" version="1.1">
<title>OpenSCAD Model</title>
<path d="
M 3.4369,-289.589 L 4.04507,-289.745 L 4.62889,-289.976 L 5.17912,-290.278 L 5.68712,-290.647 L 6.14484,-291.077
 L 6.54507,-291.561 L 6.88153,-292.091 L 7.14888,-292.659 L 7.34291,-293.257 L 7.46057,-293.873 L 7.5,-294.5
 L 7.5,-389.5 L 7.46057,-390.127 L 7.34291,-390.743 L 7.14888,-391.341 L 6.88153,-391.909 L 6.54507,-392.439
 L 6.14484,-392.923 L 5.68712,-393.353 L 5.17912,-393.722 L 4.62889,-394.024 L 4.04507,-394.255 L 3.4369,-394.411
 L 2.81395,-394.49 L -2.81395,-394.49 L -3.4369,-394.411 L -4.04507,-394.255 L -4.62889,-394.024 L -5.17912,-393.722
 L -5.68712,-393.353 L -6.14484,-392.923 L -6.54507,-392.439 L -6.88153,-391.909 L -7.14888,-391.341 L -7.34291,-390.743
 L -7.46057,-390.127 L -7.5,-389.5 L -7.5,-294.5 L -7.46057,-293.873 L -7.34291,-293.257 L -7.14888,-292.659
 L -6.88153,-292.091 L -6.54507,-291.561 L -6.14484,-291.077 L -5.68712,-290.647 L -5.17912,-290.278 L -4.62889,-289.976
 L -4.04507,-289.745 L -3.4369,-289.589 L -2.81395,-289.51 L 2.81395,-289.51 z
M -2.19545,-291.893 L -2.5833,-291.942 L -2.96194,-292.039 L -3.32541,-292.183 L -3.66798,-292.372 L -3.98424,-292.601
 L -4.26921,-292.869 L -4.5184,-293.17 L -4.72786,-293.5 L -4.89432,-293.854 L -5.01512,-294.226 L -5.08836,-294.61
 L -5.11292,-295 L -5.11292,-389 L -5.08836,-389.39 L -5.01512,-389.774 L -4.89432,-390.146 L -4.72786,-390.5
 L -4.5184,-390.83 L -4.26921,-391.131 L -3.98424,-391.399 L -3.66798,-391.628 L -3.32541,-391.817 L -2.96194,-391.961
 L -2.5833,-392.058 L -2.19545,-392.107 L 2.19545,-392.107 L 2.5833,-392.058 L 2.96194,-391.961 L 3.32541,-391.817
 L 3.66798,-391.628 L 3.98424,-391.399 L 4.26921,-391.131 L 4.5184,-390.83 L 4.72786,-390.5 L 4.89432,-390.146
 L 5.01512,-389.774 L 5.08836,-389.39 L 5.11292,-389 L 5.11292,-295 L 5.08836,-294.61 L 5.01512,-294.226
 L 4.89432,-293.854 L 4.72786,-293.5 L 4.5184,-293.17 L 4.26921,-292.869 L 3.98424,-292.601 L 3.66798,-292.372
 L 3.32541,-292.183 L 2.96194,-292.039 L 2.5833,-291.942 L 2.19545,-291.893 z
M 3.4369,-175.589 L 4.04507,-175.745 L 4.62889,-175.976 L 5.17912,-176.278 L 5.68712,-176.647 L 6.14484,-177.077
 L 6.54507,-177.561 L 6.88153,-178.091 L 7.14888,-178.659 L 7.34291,-179.257 L 7.46057,-179.873 L 7.5,-180.5
 L 7.5,-275.5 L 7.46057,-276.127 L 7.34291,-276.743 L 7.14888,-277.341 L 6.88153,-277.909 L 6.54507,-278.439
 L 6.14484,-278.923 L 5.68712,-279.353 L 5.17912,-279.722 L 4.62889,-280.024 L 4.04507,-280.255 L 3.4369,-280.411
 L 2.81395,-280.49 L -2.81395,-280.49 L -3.4369,-280.411 L -4.04507,-280.255 L -4.62889,-280.024 L -5.17912,-279.722
 L -5.68712,-279.353 L -6.14484,-278.923 L -6.54507,-278.439 L -6.88153,-277.909 L -7.14888,-277.341 L -7.34291,-276.743
 L -7.46057,-276.127 L -7.5,-275.5 L -7.5,-180.5 L -7.46057,-179.873 L -7.34291,-179.257 L -7.14888,-178.659
 L -6.88153,-178.091 L -6.54507,-177.561 L -6.14484,-177.077 L -5.68712,-176.647 L -5.17912,-176.278 L -4.62889,-175.976
 L -4.04507,-175.745 L -3.4369,-175.589 L -2.81395,-175.51 L 2.81395,-175.51 z
M -0.134064,-270.869 L -0.400101,-270.903 L -0.659836,-270.969 L -0.909149,-271.068 L -1.14413,-271.197 L -1.36108,-271.355
 L -1.55655,-271.538 L -1.72748,-271.745 L -1.87117,-271.971 L -1.98534,-272.214 L -2.06821,-272.469 L -2.11845,-272.732
 L -2.13528,-273 L -2.11845,-273.268 L -2.06821,-273.531 L -1.98534,-273.786 L -1.87117,-274.029 L -1.72748,-274.255
 L -1.55655,-274.462 L -1.36108,-274.645 L -1.14413,-274.803 L -0.909149,-274.932 L -0.659836,-275.031 L -0.400101,-275.097
 L -0.134064,-275.131 L 0.134064,-275.131 L 0.400101,-275.097 L 0.659836,-275.031 L 0.909149,-274.932 L 1.14413,-274.803
 L 1.36108,-274.645 L 1.55655,-274.462 L 1.72748,-274.255 L 1.87117,-274.029 L 1.98534,-273.786 L 2.06821,-273.531
 L 2.11845,-273.268 L 2.13528,-273 L 2.11845,-272.732 L 2.06821,-272.469 L 1.98534,-272.214 L 1.87117,-271.971
 L 1.72748,-271.745 L 1.55655,-271.538 L 1.36108,-271.355 L 1.14413,-271.197 L 0.909149,-271.068 L 0.659836,-270.969
 L 0.400101,-270.903 L 0.134064,-270.869 z
M -0.134064,-180.869 L -0.400101,-180.903 L -0.659836,-180.969 L -0.909149,-181.068 L -1.14413,-181.197 L -1.36108,-181.355
 L -1.55655,-181.538 L -1.72748,-181.745 L -1.87117,-181.971 L -1.98534,-182.214 L -2.06821,-182.469 L -2.11845,-182.732
 L -2.13528,-183 L -2.11845,-183.268 L -2.06821,-183.531 L -1.98534,-183.786 L -1.87117,-184.029 L -1.72748,-184.255
 L -1.55655,-184.462 L -1.36108,-184.645 L -1.14413,-184.803 L -0.909149,-184.932 L -0.659836,-185.031 L -0.400101,-185.097
 L -0.134064,-185.131 L 0.134064,-185.131 L 0.400101,-185.097 L 0.659836,-185.031 L 0.909149,-184.932 L 1.14413,-184.803
 L 1.36108,-184.645 L 1.55655,-184.462 L 1.72748,-184.255 L 1.87117,-184.029 L 1.98534,-183.786 L 2.06821,-183.531
 L 2.11845,-183.268 L 2.13528,-183 L 2.11845,-182.732 L 2.06821,-182.469 L 1.98534,-182.214 L 1.87117,-181.971
 L 1.72748,-181.745 L 1.55655,-181.538 L 1.36108,-181.355 L 1.14413,-181.197 L 0.909149,-181.068 L 0.659836,-180.969
 L 0.400101,-180.903 L 0.134064,-180.869 z
" stroke="black" fill="lightgray" stroke-width="0.5"/>
</svg>
