<?xml version="1.0" standalone="no"?>
<!DOCTYPE svg PUBLIC "-//W3C//DTD SVG 1.1//EN" "http://www.w3.org/Graphics/SVG/1.1/DTD/svg11.dtd">
<svg width="46mm" height="100mm" viewBox="-23 -131 46 100" xmlns="http://www.w3.org/2000/svg" version="1.1">
<title>OpenSCAD Model</title>
<path d="
M 18.4369,-85.5886 L 19.0451,-85.7447 L 19.6289,-85.9759 L 20.1791,-86.2784 L 20.6871,-86.6474 L 21.1448,-87.0773
 L 21.5451,-87.5611 L 21.8815,-88.0912 L 22.1489,-88.6594 L 22.3429,-89.2566 L 22.4606,-89.8733 L 22.5,-90.5
 L 22.5,-125.5 L 22.4606,-126.127 L 22.3429,-126.743 L 22.1489,-127.341 L 21.8815,-127.909 L 21.5451,-128.439
 L 21.1448,-128.923 L 20.6871,-129.353 L 20.1791,-129.722 L 19.6289,-130.024 L 19.0451,-130.255 L 18.4369,-130.411
 L 17.8139,-130.49 L -17.8139,-130.49 L -18.4369,-130.411 L -19.0451,-130.255 L -19.6289,-130.024 L -20.1791,-129.722
 L -20.6871,-129.353 L -21.1448,-128.923 L -21.5451,-128.439 L -21.8815,-127.909 L -22.1489,-127.341 L -22.3429,-126.743
 L -22.4606,-126.127 L -22.5,-125.5 L -22.5,-90.5 L -22.4606,-89.8733 L -22.3429,-89.2566 L -22.1489,-88.6594
 L -21.8815,-88.0912 L -21.5451,-87.5611 L -21.1448,-87.0773 L -20.6871,-86.6474 L -20.1791,-86.2784 L -19.6289,-85.9759
 L -19.0451,-85.7447 L -18.4369,-85.5886 L -17.8139,-85.5099 L 17.8139,-85.5099 z
M 18.4369,-31.5886 L 19.0451,-31.7447 L 19.6289,-31.9759 L 20.1791,-32.2784 L 20.6871,-32.6474 L 21.1448,-33.0773
 L 21.5451,-33.5611 L 21.8815,-34.0912 L 22.1489,-34.6594 L 22.3429,-35.2566 L 22.4606,-35.8733 L 22.5,-36.5
 L 22.5,-71.5 L 22.4606,-72.1267 L 22.3429,-72.7434 L 22.1489,-73.3406 L 21.8815,-73.9088 L 21.5451,-74.4389
 L 21.1448,-74.9227 L 20.6871,-75.3526 L 20.1791,-75.7216 L 19.6289,-76.0241 L 19.0451,-76.2553 L 18.4369,-76.4114
 L 17.8139,-76.4901 L -17.8139,-76.4901 L -18.4369,-76.4114 L -19.0451,-76.2553 L -19.6289,-76.0241 L -20.1791,-75.7216
 L -20.6871,-75.3526 L -21.1448,-74.9227 L -21.5451,-74.4389 L -21.8815,-73.9088 L -22.1489,-73.3406 L -22.3429,-72.7434
 L -22.4606,-72.1267 L -22.5,-71.5 L -22.5,-36.5 L -22.4606,-35.8733 L -22.3429,-35.2566 L -22.1489,-34.6594
 L -21.8815,-34.0912 L -21.5451,-33.5611 L -21.1448,-33.0773 L -20.6871,-32.6474 L -20.1791,-32.2784 L -19.6289,-31.9759
 L -19.0451,-31.7447 L -18.4369,-31.5886 L -17.8139,-31.5099 L 17.8139,-31.5099 z
M 14.887,-67.2036 L 14.6627,-67.2319 L 14.4438,-67.2881 L 14.2336,-67.3713 L 14.0355,-67.4802 L 13.8526,-67.6131
 L 13.6879,-67.7678 L 13.5438,-67.942 L 13.4226,-68.1328 L 13.3264,-68.3374 L 13.2565,-68.5524 L 13.2142,-68.7744
 L 13.2,-69 L 13.2142,-69.2256 L 13.2565,-69.4476 L 13.3264,-69.6626 L 13.4226,-69.8671 L 13.5438,-70.058
 L 13.6879,-70.2322 L 13.8526,-70.3869 L 14.0355,-70.5198 L 14.2336,-70.6287 L 14.4438,-70.7119 L 14.6627,-70.7681
 L 14.887,-70.7964 L 15.113,-70.7964 L 15.3373,-70.7681 L 15.5562,-70.7119 L 15.7664,-70.6287 L 15.9645,-70.5198
 L 16.1474,-70.3869 L 16.3121,-70.2322 L 16.4562,-70.058 L 16.5773,-69.8671 L 16.6736,-69.6626 L 16.7434,-69.4476
 L 16.7858,-69.2256 L 16.8,-69 L 16.7858,-68.7744 L 16.7434,-68.5524 L 16.6736,-68.3374 L 16.5773,-68.1328
 L 16.4562,-67.942 L 16.3121,-67.7678 L 16.1474,-67.6131 L 15.9645,-67.4802 L 15.7664,-67.3713 L 15.5562,-67.2881
 L 15.3373,-67.2319 L 15.113,-67.2036 z
M -15.113,-67.2036 L -15.3373,-67.2319 L -15.5562,-67.2881 L -15.7664,-67.3713 L -15.9645,-67.4802 L -16.1474,-67.6131
 L -16.3121,-67.7678 L -16.4562,-67.942 L -16.5773,-68.1328 L -16.6736,-68.3374 L -16.7434,-68.5524 L -16.7858,-68.7744
 L -16.8,-69 L -16.7858,-69.2256 L -16.7434,-69.4476 L -16.6736,-69.6626 L -16.5773,-69.8671 L -16.4562,-70.058
 L -16.3121,-70.2322 L -16.1474,-70.3869 L -15.9645,-70.5198 L -15.7664,-70.6287 L -15.5562,-70.7119 L -15.3373,-70.7681
 L -15.113,-70.7964 L -14.887,-70.7964 L -14.6627,-70.7681 L -14.4438,-70.7119 L -14.2336,-70.6287 L -14.0355,-70.5198
 L -13.8526,-70.3869 L -13.6879,-70.2322 L -13.5438,-70.058 L -13.4226,-69.8671 L -13.3264,-69.6626 L -13.2565,-69.4476
 L -13.2142,-69.2256 L -13.2,-69 L -13.2142,-68.7744 L -13.2565,-68.5524 L -13.3264,-68.3374 L -13.4226,-68.1328
 L -13.5438,-67.942 L -13.6879,-67.7678 L -13.8526,-67.6131 L -14.0355,-67.4802 L -14.2336,-67.3713 L -14.4438,-67.2881
 L -14.6627,-67.2319 L -14.887,-67.2036 z
M 14.887,-37.2036 L 14.6627,-37.2319 L 14.4438,-37.2881 L 14.2336,-37.3713 L 14.0355,-37.4802 L 13.8526,-37.6131
 L 13.6879,-37.7678 L 13.5438,-37.942 L 13.4226,-38.1329 L 13.3264,-38.3374 L 13.2565,-38.5524 L 13.2142,-38.7744
 L 13.2,-39 L 13.2142,-39.2256 L 13.2565,-39.4476 L 13.3264,-39.6626 L 13.4226,-39.8672 L 13.5438,-40.058
 L 13.6879,-40.2322 L 13.8526,-40.3869 L 14.0355,-40.5198 L 14.2336,-40.6287 L 14.4438,-40.7119 L 14.6627,-40.7681
 L 14.887,-40.7964 L 15.113,-40.7964 L 15.3373,-40.7681 L 15.5562,-40.7119 L 15.7664,-40.6287 L 15.9645,-40.5198
 L 16.1474,-40.3869 L 16.3121,-40.2322 L 16.4562,-40.058 L 16.5773,-39.8672 L 16.6736,-39.6626 L 16.7434,-39.4476
 L 16.7858,-39.2256 L 16.8,-39 L 16.7858,-38.7744 L 16.7434,-38.5524 L 16.6736,-38.3374 L 16.5773,-38.1329
 L 16.4562,-37.942 L 16.3121,-37.7678 L 16.1474,-37.6131 L 15.9645,-37.4802 L 15.7664,-37.3713 L 15.5562,-37.2881
 L 15.3373,-37.2319 L 15.113,-37.2036 z
M -15.113,-37.2036 L -15.3373,-37.2319 L -15.5562,-37.2881 L -15.7664,-37.3713 L -15.9645,-37.4802 L -16.1474,-37.6131
 L -16.3121,-37.7678 L -16.4562,-37.942 L -16.5773,-38.1329 L -16.6736,-38.3374 L -16.7434,-38.5524 L -16.7858,-38.7744
 L -16.8,-39 L -16.7858,-39.2256 L -16.7434,-39.4476 L -16.6736,-39.6626 L -16.5773,-39.8672 L -16.4562,-40.058
 L -16.3121,-40.2322 L -16.1474,-40.3869 L -15.9645,-40.5198 L -15.7664,-40.6287 L -15.5562,-40.7119 L -15.3373,-40.7681
 L -15.113,-40.7964 L -14.887,-40.7964 L -14.6627,-40.7681 L -14.4438,-40.7119 L -14.2336,-40.6287 L -14.0355,-40.5198
 L -13.8526,-40.3869 L -13.6879,-40.2322 L -13.5438,-40.058 L -13.4226,-39.8672 L -13.3264,-39.6626 L -13.2565,-39.4476
 L -13.2142,-39.2256 L -13.2,-39 L -13.2142,-38.7744 L -13.2565,-38.5524 L -13.3264,-38.3374 L -13.4226,-38.1329
 L -13.5438,-37.942 L -13.6879,-37.7678 L -13.8526,-37.6131 L -14.0355,-37.4802 L -14.2336,-37.3713 L -14.4438,-37.2881
 L -14.6627,-37.2319 L -14.887,-37.2036 z
" stroke="black" fill="lightgray" stroke-width="0.5"/>
</svg>
