<?xml version="1.0" standalone="no"?>
<!DOCTYPE svg PUBLIC "-//W3C//DTD SVG 1.1//EN" "http://www.w3.org/Graphics/SVG/1.1/DTD/svg11.dtd">
<svg width="44mm" height="152mm" viewBox="-22 -292 44 152" xmlns="http://www.w3.org/2000/svg" version="1.1">
<title>OpenSCAD Model</title>
<path d="
M 17.9369,-248.089 L 18.5451,-248.245 L 19.1289,-248.476 L 19.6791,-248.778 L 20.1871,-249.147 L 20.6448,-249.577
 L 21.0451,-250.061 L 21.3815,-250.591 L 21.6489,-251.159 L 21.8429,-251.757 L 21.9606,-252.373 L 22,-253
 L 22,-285 L 11.5,-285 L 11.5,-284.995 L 11.343,-284.995 L 11.0315,-284.956 L 10.7274,-284.878
 L 10.4355,-284.762 L 10.1604,-284.611 L 9.90643,-284.426 L 9.67757,-284.211 L 9.47745,-283.969 L 9.30922,-283.704
 L 9.17555,-283.42 L 9.07854,-283.122 L 9.0197,-282.813 L 9,-282.5 L 9.0197,-282.187 L 9.07854,-281.878
 L 9.17555,-281.58 L 9.30922,-281.296 L 9.47745,-281.031 L 9.67757,-280.789 L 9.90643,-280.574 L 10.1604,-280.389
 L 10.4355,-280.238 L 10.7274,-280.122 L 11.0315,-280.044 L 11.343,-280.005 L 13.7429,-280.005 L 13.7533,-279.992
 L 14.8972,-278.19 L 15.8062,-276.258 L 16.4659,-274.228 L 16.8659,-272.131 L 17,-270 L 16.8659,-267.869
 L 16.4659,-265.772 L 15.8062,-263.742 L 14.8972,-261.81 L 13.7533,-260.008 L 12.3925,-258.363 L 10.8362,-256.901
 L 9.10905,-255.646 L 7.23824,-254.618 L 5.25328,-253.832 L 3.18547,-253.301 L 1.06743,-253.034 L -1.06743,-253.034
 L -3.18547,-253.301 L -5.25328,-253.832 L -7.23824,-254.618 L -9.10905,-255.646 L -10.8362,-256.901 L -12.3925,-258.363
 L -13.7533,-260.008 L -14.8972,-261.81 L -15.8062,-263.742 L -16.4659,-265.772 L -16.8659,-267.869 L -17,-270
 L -16.8659,-272.131 L -16.4659,-274.228 L -15.8062,-276.258 L -14.8972,-278.19 L -13.7533,-279.992 L -12.3925,-281.637
 L -10.8362,-283.099 L -9.10905,-284.354 L -7.23824,-285.382 L -5.25328,-286.168 L -3.18547,-286.699 L -1.06743,-286.966
 L 0,-286.966 L 0,-289 L 6.99998,-289 L 4.00986,-291.99 L 4,-291.99 L 4,-291
 L -21,-291 L -21,-292 L -22,-292 L -22,-287.994 L -14.8116,-287.994 L -14.4379,-287.947
 L -14.0729,-287.853 L -13.7227,-287.714 L -13.3925,-287.533 L -13.0877,-287.312 L -12.8131,-287.054 L -12.5729,-286.763
 L -12.3711,-286.445 L -12.2107,-286.104 L -12.0942,-285.746 L -12.0237,-285.376 L -12,-285 L -12.0237,-284.624
 L -12.0942,-284.254 L -12.2107,-283.896 L -12.3711,-283.555 L -12.5729,-283.237 L -12.8131,-282.946 L -13.0877,-282.688
 L -13.3925,-282.467 L -13.7227,-282.286 L -14.0729,-282.147 L -14.4379,-282.053 L -14.8116,-282.006 L -22,-282.006
 L -22,-257.994 L -14.8116,-257.994 L -14.4379,-257.947 L -14.0729,-257.853 L -13.7227,-257.714 L -13.3925,-257.533
 L -13.0877,-257.312 L -12.8131,-257.054 L -12.5729,-256.763 L -12.3711,-256.445 L -12.2107,-256.104 L -12.0942,-255.746
 L -12.0237,-255.376 L -12,-255 L -12.0237,-254.624 L -12.0942,-254.254 L -12.2107,-253.896 L -12.3711,-253.555
 L -12.5729,-253.237 L -12.8131,-252.946 L -13.0877,-252.688 L -13.3925,-252.467 L -13.7227,-252.286 L -14.0729,-252.147
 L -14.4379,-252.053 L -14.8116,-252.006 L -21.8905,-252.006 L -21.8429,-251.757 L -21.6489,-251.159 L -21.3815,-250.591
 L -21.0451,-250.061 L -20.6448,-249.577 L -20.1871,-249.147 L -19.6791,-248.778 L -19.1289,-248.476 L -18.5451,-248.245
 L -17.9369,-248.089 L -17.3139,-248.01 L 17.3139,-248.01 z
M 14.8116,-252.006 L 14.4379,-252.053 L 14.0729,-252.147 L 13.7227,-252.286 L 13.3925,-252.467 L 13.0877,-252.688
 L 12.8131,-252.946 L 12.5729,-253.237 L 12.3711,-253.555 L 12.2107,-253.896 L 12.0942,-254.254 L 12.0237,-254.624
 L 12,-255 L 12.0237,-255.376 L 12.0942,-255.746 L 12.2107,-256.104 L 12.3711,-256.445 L 12.5729,-256.763
 L 12.8131,-257.054 L 13.0877,-257.312 L 13.3925,-257.533 L 13.7227,-257.714 L 14.0729,-257.853 L 14.4379,-257.947
 L 14.8116,-257.994 L 15.1884,-257.994 L 15.5621,-257.947 L 15.927,-257.853 L 16.2773,-257.714 L 16.6075,-257.533
 L 16.9123,-257.312 L 17.1869,-257.054 L 17.427,-256.763 L 17.6289,-256.445 L 17.7893,-256.104 L 17.9057,-255.746
 L 17.9763,-255.376 L 18,-255 L 17.9763,-254.624 L 17.9057,-254.254 L 17.7893,-253.896 L 17.6289,-253.555
 L 17.427,-253.237 L 17.1869,-252.946 L 16.9123,-252.688 L 16.6075,-252.467 L 16.2773,-252.286 L 15.927,-252.147
 L 15.5621,-252.053 L 15.1884,-252.006 z
M 16,-291.99 L 6.13118,-291.99 L 9.12131,-289 L 16,-289 z
M 17.9369,-194.089 L 18.5451,-194.245 L 19.1289,-194.476 L 19.6791,-194.778 L 20.1871,-195.147 L 20.6448,-195.577
 L 21.0451,-196.061 L 21.3815,-196.591 L 21.6489,-197.159 L 21.8429,-197.757 L 21.9606,-198.373 L 22,-199
 L 22,-231 L 11.5,-231 L 11.5,-230.995 L 11.343,-230.995 L 11.0315,-230.956 L 10.7274,-230.878
 L 10.4355,-230.762 L 10.1604,-230.611 L 9.90643,-230.426 L 9.67757,-230.211 L 9.47745,-229.969 L 9.30922,-229.704
 L 9.17555,-229.42 L 9.07854,-229.122 L 9.0197,-228.813 L 9,-228.5 L 9.0197,-228.187 L 9.07854,-227.878
 L 9.17555,-227.58 L 9.30922,-227.296 L 9.47745,-227.031 L 9.67757,-226.789 L 9.90643,-226.574 L 10.1604,-226.389
 L 10.4355,-226.238 L 10.7274,-226.122 L 11.0315,-226.044 L 11.343,-226.005 L 13.7429,-226.005 L 13.7533,-225.992
 L 14.8972,-224.19 L 15.8062,-222.258 L 16.4659,-220.228 L 16.8659,-218.131 L 17,-216 L 16.8659,-213.869
 L 16.4659,-211.772 L 15.8062,-209.742 L 14.8972,-207.81 L 13.7533,-206.008 L 12.3925,-204.363 L 10.8362,-202.901
 L 9.10905,-201.646 L 7.23824,-200.618 L 5.25328,-199.832 L 3.18547,-199.301 L 1.06743,-199.034 L -1.06743,-199.034
 L -3.18547,-199.301 L -5.25328,-199.832 L -7.23824,-200.618 L -9.10905,-201.646 L -10.8362,-202.901 L -12.3925,-204.363
 L -13.7533,-206.008 L -14.8972,-207.81 L -15.8062,-209.742 L -16.4659,-211.772 L -16.8659,-213.869 L -17,-216
 L -16.8659,-218.131 L -16.4659,-220.228 L -15.8062,-222.258 L -14.8972,-224.19 L -13.7533,-225.992 L -12.3925,-227.637
 L -10.8362,-229.099 L -9.10905,-230.354 L -7.23824,-231.382 L -5.25328,-232.168 L -3.18547,-232.699 L -1.06743,-232.966
 L 0,-232.966 L 0,-235 L 6.99998,-235 L 4.00986,-237.99 L 4,-237.99 L 4,-237
 L -21,-237 L -21,-238 L -22,-238 L -22,-233.994 L -14.8116,-233.994 L -14.4379,-233.947
 L -14.0729,-233.853 L -13.7227,-233.714 L -13.3925,-233.533 L -13.0877,-233.312 L -12.8131,-233.054 L -12.5729,-232.763
 L -12.3711,-232.445 L -12.2107,-232.104 L -12.0942,-231.746 L -12.0237,-231.376 L -12,-231 L -12.0237,-230.624
 L -12.0942,-230.254 L -12.2107,-229.896 L -12.3711,-229.555 L -12.5729,-229.237 L -12.8131,-228.946 L -13.0877,-228.688
 L -13.3925,-228.467 L -13.7227,-228.286 L -14.0729,-228.147 L -14.4379,-228.053 L -14.8116,-228.006 L -22,-228.006
 L -22,-203.994 L -14.8116,-203.994 L -14.4379,-203.947 L -14.0729,-203.853 L -13.7227,-203.714 L -13.3925,-203.533
 L -13.0877,-203.312 L -12.8131,-203.054 L -12.5729,-202.763 L -12.3711,-202.445 L -12.2107,-202.104 L -12.0942,-201.746
 L -12.0237,-201.376 L -12,-201 L -12.0237,-200.624 L -12.0942,-200.254 L -12.2107,-199.896 L -12.3711,-199.555
 L -12.5729,-199.237 L -12.8131,-198.946 L -13.0877,-198.688 L -13.3925,-198.467 L -13.7227,-198.286 L -14.0729,-198.147
 L -14.4379,-198.053 L -14.8116,-198.006 L -21.8905,-198.006 L -21.8429,-197.757 L -21.6489,-197.159 L -21.3815,-196.591
 L -21.0451,-196.061 L -20.6448,-195.577 L -20.1871,-195.147 L -19.6791,-194.778 L -19.1289,-194.476 L -18.5451,-194.245
 L -17.9369,-194.089 L -17.3139,-194.01 L 17.3139,-194.01 z
M 14.8116,-198.006 L 14.4379,-198.053 L 14.0729,-198.147 L 13.7227,-198.286 L 13.3925,-198.467 L 13.0877,-198.688
 L 12.8131,-198.946 L 12.5729,-199.237 L 12.3711,-199.555 L 12.2107,-199.896 L 12.0942,-200.254 L 12.0237,-200.624
 L 12,-201 L 12.0237,-201.376 L 12.0942,-201.746 L 12.2107,-202.104 L 12.3711,-202.445 L 12.5729,-202.763
 L 12.8131,-203.054 L 13.0877,-203.312 L 13.3925,-203.533 L 13.7227,-203.714 L 14.0729,-203.853 L 14.4379,-203.947
 L 14.8116,-203.994 L 15.1884,-203.994 L 15.5621,-203.947 L 15.927,-203.853 L 16.2773,-203.714 L 16.6075,-203.533
 L 16.9123,-203.312 L 17.1869,-203.054 L 17.427,-202.763 L 17.6289,-202.445 L 17.7893,-202.104 L 17.9057,-201.746
 L 17.9763,-201.376 L 18,-201 L 17.9763,-200.624 L 17.9057,-200.254 L 17.7893,-199.896 L 17.6289,-199.555
 L 17.427,-199.237 L 17.1869,-198.946 L 16.9123,-198.688 L 16.6075,-198.467 L 16.2773,-198.286 L 15.927,-198.147
 L 15.5621,-198.053 L 15.1884,-198.006 z
M 16,-237.99 L 6.13118,-237.99 L 9.12131,-235 L 16,-235 z
M 17.9369,-140.089 L 18.5451,-140.245 L 19.1289,-140.476 L 19.6791,-140.778 L 20.1871,-141.147 L 20.6448,-141.577
 L 21.0451,-142.061 L 21.3815,-142.591 L 21.6489,-143.159 L 21.8429,-143.757 L 21.9606,-144.373 L 22,-145
 L 22,-177 L 11.5,-177 L 11.5,-176.995 L 11.343,-176.995 L 11.0315,-176.956 L 10.7274,-176.878
 L 10.4355,-176.762 L 10.1604,-176.611 L 9.90643,-176.426 L 9.67757,-176.211 L 9.47745,-175.969 L 9.30922,-175.704
 L 9.17555,-175.42 L 9.07854,-175.122 L 9.0197,-174.813 L 9,-174.5 L 9.0197,-174.187 L 9.07854,-173.878
 L 9.17555,-173.58 L 9.30922,-173.296 L 9.47745,-173.031 L 9.67757,-172.789 L 9.90643,-172.574 L 10.1604,-172.389
 L 10.4355,-172.238 L 10.7274,-172.122 L 11.0315,-172.044 L 11.343,-172.005 L 13.7429,-172.005 L 13.7533,-171.992
 L 14.8972,-170.19 L 15.8062,-168.258 L 16.4659,-166.228 L 16.8659,-164.131 L 17,-162 L 16.8659,-159.869
 L 16.4659,-157.772 L 15.8062,-155.742 L 14.8972,-153.81 L 13.7533,-152.008 L 12.3925,-150.363 L 10.8362,-148.901
 L 9.10905,-147.646 L 7.23824,-146.618 L 5.25328,-145.832 L 3.18547,-145.301 L 1.06743,-145.034 L -1.06743,-145.034
 L -3.18547,-145.301 L -5.25328,-145.832 L -7.23824,-146.618 L -9.10905,-147.646 L -10.8362,-148.901 L -12.3925,-150.363
 L -13.7533,-152.008 L -14.8972,-153.81 L -15.8062,-155.742 L -16.4659,-157.772 L -16.8659,-159.869 L -17,-162
 L -16.8659,-164.131 L -16.4659,-166.228 L -15.8062,-168.258 L -14.8972,-170.19 L -13.7533,-171.992 L -12.3925,-173.637
 L -10.8362,-175.099 L -9.10905,-176.354 L -7.23824,-177.382 L -5.25328,-178.168 L -3.18547,-178.699 L -1.06743,-178.966
 L 0,-178.966 L 0,-181 L 6.99998,-181 L 4.00986,-183.99 L 4,-183.99 L 4,-183
 L -21,-183 L -21,-184 L -22,-184 L -22,-179.994 L -14.8116,-179.994 L -14.4379,-179.947
 L -14.0729,-179.853 L -13.7227,-179.714 L -13.3925,-179.533 L -13.0877,-179.312 L -12.8131,-179.054 L -12.5729,-178.763
 L -12.3711,-178.445 L -12.2107,-178.104 L -12.0942,-177.746 L -12.0237,-177.376 L -12,-177 L -12.0237,-176.624
 L -12.0942,-176.254 L -12.2107,-175.896 L -12.3711,-175.555 L -12.5729,-175.237 L -12.8131,-174.946 L -13.0877,-174.688
 L -13.3925,-174.467 L -13.7227,-174.286 L -14.0729,-174.147 L -14.4379,-174.053 L -14.8116,-174.006 L -22,-174.006
 L -22,-149.994 L -14.8116,-149.994 L -14.4379,-149.947 L -14.0729,-149.853 L -13.7227,-149.714 L -13.3925,-149.533
 L -13.0877,-149.312 L -12.8131,-149.054 L -12.5729,-148.763 L -12.3711,-148.445 L -12.2107,-148.104 L -12.0942,-147.746
 L -12.0237,-147.376 L -12,-147 L -12.0237,-146.624 L -12.0942,-146.254 L -12.2107,-145.896 L -12.3711,-145.555
 L -12.5729,-145.237 L -12.8131,-144.946 L -13.0877,-144.688 L -13.3925,-144.467 L -13.7227,-144.286 L -14.0729,-144.147
 L -14.4379,-144.053 L -14.8116,-144.006 L -21.8905,-144.006 L -21.8429,-143.757 L -21.6489,-143.159 L -21.3815,-142.591
 L -21.0451,-142.061 L -20.6448,-141.577 L -20.1871,-141.147 L -19.6791,-140.778 L -19.1289,-140.476 L -18.5451,-140.245
 L -17.9369,-140.089 L -17.3139,-140.01 L 17.3139,-140.01 z
M 14.8116,-144.006 L 14.4379,-144.053 L 14.0729,-144.147 L 13.7227,-144.286 L 13.3925,-144.467 L 13.0877,-144.688
 L 12.8131,-144.946 L 12.5729,-145.237 L 12.3711,-145.555 L 12.2107,-145.896 L 12.0942,-146.254 L 12.0237,-146.624
 L 12,-147 L 12.0237,-147.376 L 12.0942,-147.746 L 12.2107,-148.104 L 12.3711,-148.445 L 12.5729,-148.763
 L 12.8131,-149.054 L 13.0877,-149.312 L 13.3925,-149.533 L 13.7227,-149.714 L 14.0729,-149.853 L 14.4379,-149.947
 L 14.8116,-149.994 L 15.1884,-149.994 L 15.5621,-149.947 L 15.927,-149.853 L 16.2773,-149.714 L 16.6075,-149.533
 L 16.9123,-149.312 L 17.1869,-149.054 L 17.427,-148.763 L 17.6289,-148.445 L 17.7893,-148.104 L 17.9057,-147.746
 L 17.9763,-147.376 L 18,-147 L 17.9763,-146.624 L 17.9057,-146.254 L 17.7893,-145.896 L 17.6289,-145.555
 L 17.427,-145.237 L 17.1869,-144.946 L 16.9123,-144.688 L 16.6075,-144.467 L 16.2773,-144.286 L 15.927,-144.147
 L 15.5621,-144.053 L 15.1884,-144.006 z
M 16,-183.99 L 6.13118,-183.99 L 9.12131,-181 L 16,-181 z
" stroke="black" fill="lightgray" stroke-width="0.5"/>
</svg>
