<?xml version="1.0" standalone="no"?>
<!DOCTYPE svg PUBLIC "-//W3C//DTD SVG 1.1//EN" "http://www.w3.org/Graphics/SVG/1.1/DTD/svg11.dtd">
<svg width="120mm" height="154mm" viewBox="-60 -239 120 154" xmlns="http://www.w3.org/2000/svg" version="1.1">
<title>OpenSCAD Model</title>
<path d="
M 55.9369,-193.589 L 56.5451,-193.745 L 57.1289,-193.976 L 57.6791,-194.278 L 58.1871,-194.647 L 58.6448,-195.077
 L 59.0451,-195.561 L 59.3815,-196.091 L 59.6489,-196.659 L 59.8429,-197.257 L 59.9606,-197.873 L 60,-198.5
 L 60,-233.5 L 59.9606,-234.127 L 59.8429,-234.743 L 59.6489,-235.341 L 59.3815,-235.909 L 59.0451,-236.439
 L 58.6448,-236.923 L 58.1871,-237.353 L 57.6791,-237.722 L 57.1289,-238.024 L 56.5451,-238.255 L 55.9369,-238.411
 L 55.3139,-238.49 L -55.3139,-238.49 L -55.9369,-238.411 L -56.5451,-238.255 L -57.1289,-238.024 L -57.6791,-237.722
 L -58.1871,-237.353 L -58.6448,-236.923 L -59.0451,-236.439 L -59.3815,-235.909 L -59.6489,-235.341 L -59.8429,-234.743
 L -59.9606,-234.127 L -60,-233.5 L -60,-198.5 L -59.9606,-197.873 L -59.8429,-197.257 L -59.6489,-196.659
 L -59.3815,-196.091 L -59.0451,-195.561 L -58.6448,-195.077 L -58.1871,-194.647 L -57.6791,-194.278 L -57.1289,-193.976
 L -56.5451,-193.745 L -55.9369,-193.589 L -55.3139,-193.51 L 55.3139,-193.51 z
M -55.0482,-194.009 L -55.6401,-194.084 L -56.2178,-194.232 L -56.7724,-194.452 L -57.2952,-194.739 L -57.7778,-195.09
 L -58.2126,-195.498 L -58.5928,-195.958 L -58.9124,-196.462 L -59.1664,-197.001 L -59.3508,-197.569 L -59.4625,-198.155
 L -59.5,-198.75 L -59.5,-233.25 L -59.4625,-233.845 L -59.3508,-234.431 L -59.1664,-234.999 L -58.9124,-235.538
 L -58.5928,-236.042 L -58.2126,-236.502 L -57.7778,-236.91 L -57.2952,-237.261 L -56.7724,-237.548 L -56.2178,-237.768
 L -55.6401,-237.916 L -55.0482,-237.991 L 55.0482,-237.991 L 55.6401,-237.916 L 56.2178,-237.768 L 56.7724,-237.548
 L 57.2952,-237.261 L 57.7778,-236.91 L 58.2126,-236.502 L 58.5928,-236.042 L 58.9124,-235.538 L 59.1664,-234.999
 L 59.3508,-234.431 L 59.4625,-233.845 L 59.5,-233.25 L 59.5,-198.75 L 59.4625,-198.155 L 59.3508,-197.569
 L 59.1664,-197.001 L 58.9124,-196.462 L 58.5928,-195.958 L 58.2126,-195.498 L 57.7778,-195.09 L 57.2952,-194.739
 L 56.7724,-194.452 L 56.2178,-194.232 L 55.6401,-194.084 L 55.0482,-194.009 z
M 55.9369,-139.589 L 56.5451,-139.745 L 57.1289,-139.976 L 57.6791,-140.278 L 58.1871,-140.647 L 58.6448,-141.077
 L 59.0451,-141.561 L 59.3815,-142.091 L 59.6489,-142.659 L 59.8429,-143.257 L 59.9606,-143.873 L 60,-144.5
 L 60,-179.5 L 59.9606,-180.127 L 59.8429,-180.743 L 59.6489,-181.341 L 59.3815,-181.909 L 59.0451,-182.439
 L 58.6448,-182.923 L 58.1871,-183.353 L 57.6791,-183.722 L 57.1289,-184.024 L 56.5451,-184.255 L 55.9369,-184.411
 L 55.3139,-184.49 L -55.3139,-184.49 L -55.9369,-184.411 L -56.5451,-184.255 L -57.1289,-184.024 L -57.6791,-183.722
 L -58.1871,-183.353 L -58.6448,-182.923 L -59.0451,-182.439 L -59.3815,-181.909 L -59.6489,-181.341 L -59.8429,-180.743
 L -59.9606,-180.127 L -60,-179.5 L -60,-144.5 L -59.9606,-143.873 L -59.8429,-143.257 L -59.6489,-142.659
 L -59.3815,-142.091 L -59.0451,-141.561 L -58.6448,-141.077 L -58.1871,-140.647 L -57.6791,-140.278 L -57.1289,-139.976
 L -56.5451,-139.745 L -55.9369,-139.589 L -55.3139,-139.51 L 55.3139,-139.51 z
M -54.993,-140.888 L -55.4751,-140.949 L -55.9457,-141.07 L -56.3975,-141.249 L -56.8234,-141.483 L -57.2165,-141.769
 L -57.5707,-142.101 L -57.8805,-142.476 L -58.1408,-142.886 L -58.3477,-143.326 L -58.4979,-143.788 L -58.589,-144.265
 L -58.6195,-144.75 L -58.6195,-179.25 L -58.589,-179.735 L -58.4979,-180.212 L -58.3477,-180.674 L -58.1408,-181.114
 L -57.8805,-181.524 L -57.5707,-181.899 L -57.2165,-182.231 L -56.8234,-182.517 L -56.3975,-182.751 L -55.9457,-182.93
 L -55.4751,-183.051 L -54.993,-183.112 L 54.993,-183.112 L 55.4751,-183.051 L 55.9457,-182.93 L 56.3975,-182.751
 L 56.8234,-182.517 L 57.2165,-182.231 L 57.5707,-181.899 L 57.8805,-181.524 L 58.1408,-181.114 L 58.3477,-180.674
 L 58.4979,-180.212 L 58.589,-179.735 L 58.6195,-179.25 L 58.6195,-144.75 L 58.589,-144.265 L 58.4979,-143.788
 L 58.3477,-143.326 L 58.1408,-142.886 L 57.8805,-142.476 L 57.5707,-142.101 L 57.2165,-141.769 L 56.8234,-141.483
 L 56.3975,-141.249 L 55.9457,-141.07 L 55.4751,-140.949 L 54.993,-140.888 z
M 55.9369,-85.5886 L 56.5451,-85.7447 L 57.1289,-85.9759 L 57.6791,-86.2784 L 58.1871,-86.6474 L 58.6448,-87.0773
 L 59.0451,-87.5611 L 59.3815,-88.0912 L 59.6489,-88.6594 L 59.8429,-89.2566 L 59.9606,-89.8733 L 60,-90.5
 L 60,-125.5 L 59.9606,-126.127 L 59.8429,-126.743 L 59.6489,-127.341 L 59.3815,-127.909 L 59.0451,-128.439
 L 58.6448,-128.923 L 58.1871,-129.353 L 57.6791,-129.722 L 57.1289,-130.024 L 56.5451,-130.255 L 55.9369,-130.411
 L 55.3139,-130.49 L -55.3139,-130.49 L -55.9369,-130.411 L -56.5451,-130.255 L -57.1289,-130.024 L -57.6791,-129.722
 L -58.1871,-129.353 L -58.6448,-128.923 L -59.0451,-128.439 L -59.3815,-127.909 L -59.6489,-127.341 L -59.8429,-126.743
 L -59.9606,-126.127 L -60,-125.5 L -60,-90.5 L -59.9606,-89.8733 L -59.8429,-89.2566 L -59.6489,-88.6594
 L -59.3815,-88.0912 L -59.0451,-87.5611 L -58.6448,-87.0773 L -58.1871,-86.6474 L -57.6791,-86.2784 L -57.1289,-85.9759
 L -56.5451,-85.7447 L -55.9369,-85.5886 L -55.3139,-85.5099 L 55.3139,-85.5099 z
M -52.613,-121.204 L -52.8373,-121.232 L -53.0562,-121.288 L -53.2664,-121.371 L -53.4645,-121.48 L -53.6474,-121.613
 L -53.8121,-121.768 L -53.9562,-121.942 L -54.0773,-122.133 L -54.1736,-122.337 L -54.2434,-122.552 L -54.2858,-122.774
 L -54.3,-123 L -54.2858,-123.226 L -54.2434,-123.448 L -54.1736,-123.663 L -54.0773,-123.867 L -53.9562,-124.058
 L -53.8121,-124.232 L -53.6474,-124.387 L -53.4645,-124.52 L -53.2664,-124.629 L -53.0562,-124.712 L -52.8373,-124.768
 L -52.613,-124.796 L -52.387,-124.796 L -52.1627,-124.768 L -51.9438,-124.712 L -51.7336,-124.629 L -51.5355,-124.52
 L -51.3526,-124.387 L -51.1879,-124.232 L -51.0438,-124.058 L -50.9226,-123.867 L -50.8264,-123.663 L -50.7565,-123.448
 L -50.7142,-123.226 L -50.7,-123 L -50.7142,-122.774 L -50.7565,-122.552 L -50.8264,-122.337 L -50.9226,-122.133
 L -51.0438,-121.942 L -51.1879,-121.768 L -51.3526,-121.613 L -51.5355,-121.48 L -51.7336,-121.371 L -51.9438,-121.288
 L -52.1627,-121.232 L -52.387,-121.204 z
M 52.387,-121.204 L 52.1627,-121.232 L 51.9438,-121.288 L 51.7336,-121.371 L 51.5355,-121.48 L 51.3526,-121.613
 L 51.1879,-121.768 L 51.0438,-121.942 L 50.9226,-122.133 L 50.8264,-122.337 L 50.7565,-122.552 L 50.7142,-122.774
 L 50.7,-123 L 50.7142,-123.226 L 50.7565,-123.448 L 50.8264,-123.663 L 50.9226,-123.867 L 51.0438,-124.058
 L 51.1879,-124.232 L 51.3526,-124.387 L 51.5355,-124.52 L 51.7336,-124.629 L 51.9438,-124.712 L 52.1627,-124.768
 L 52.387,-124.796 L 52.613,-124.796 L 52.8373,-124.768 L 53.0562,-124.712 L 53.2664,-124.629 L 53.4645,-124.52
 L 53.6474,-124.387 L 53.8121,-124.232 L 53.9562,-124.058 L 54.0773,-123.867 L 54.1736,-123.663 L 54.2434,-123.448
 L 54.2858,-123.226 L 54.3,-123 L 54.2858,-122.774 L 54.2434,-122.552 L 54.1736,-122.337 L 54.0773,-122.133
 L 53.9562,-121.942 L 53.8121,-121.768 L 53.6474,-121.613 L 53.4645,-121.48 L 53.2664,-121.371 L 53.0562,-121.288
 L 52.8373,-121.232 L 52.613,-121.204 z
M 52.387,-91.2036 L 52.1627,-91.2319 L 51.9438,-91.2881 L 51.7336,-91.3713 L 51.5355,-91.4802 L 51.3526,-91.6131
 L 51.1879,-91.7678 L 51.0438,-91.942 L 50.9226,-92.1329 L 50.8264,-92.3374 L 50.7565,-92.5524 L 50.7142,-92.7744
 L 50.7,-93 L 50.7142,-93.2256 L 50.7565,-93.4476 L 50.8264,-93.6626 L 50.9226,-93.8672 L 51.0438,-94.058
 L 51.1879,-94.2322 L 51.3526,-94.3869 L 51.5355,-94.5198 L 51.7336,-94.6287 L 51.9438,-94.7119 L 52.1627,-94.7681
 L 52.387,-94.7964 L 52.613,-94.7964 L 52.8373,-94.7681 L 53.0562,-94.7119 L 53.2664,-94.6287 L 53.4645,-94.5198
 L 53.6474,-94.3869 L 53.8121,-94.2322 L 53.9562,-94.058 L 54.0773,-93.8672 L 54.1736,-93.6626 L 54.2434,-93.4476
 L 54.2858,-93.2256 L 54.3,-93 L 54.2858,-92.7744 L 54.2434,-92.5524 L 54.1736,-92.3374 L 54.0773,-92.1329
 L 53.9562,-91.942 L 53.8121,-91.7678 L 53.6474,-91.6131 L 53.4645,-91.4802 L 53.2664,-91.3713 L 53.0562,-91.2881
 L 52.8373,-91.2319 L 52.613,-91.2036 z
M -52.613,-91.2036 L -52.8373,-91.2319 L -53.0562,-91.2881 L -53.2664,-91.3713 L -53.4645,-91.4802 L -53.6474,-91.6131
 L -53.8121,-91.7678 L -53.9562,-91.942 L -54.0773,-92.1329 L -54.1736,-92.3374 L -54.2434,-92.5524 L -54.2858,-92.7744
 L -54.3,-93 L -54.2858,-93.2256 L -54.2434,-93.4476 L -54.1736,-93.6626 L -54.0773,-93.8672 L -53.9562,-94.058
 L -53.8121,-94.2322 L -53.6474,-94.3869 L -53.4645,-94.5198 L -53.2664,-94.6287 L -53.0562,-94.7119 L -52.8373,-94.7681
 L -52.613,-94.7964 L -52.387,-94.7964 L -52.1627,-94.7681 L -51.9438,-94.7119 L -51.7336,-94.6287 L -51.5355,-94.5198
 L -51.3526,-94.3869 L -51.1879,-94.2322 L -51.0438,-94.058 L -50.9226,-93.8672 L -50.8264,-93.6626 L -50.7565,-93.4476
 L -50.7142,-93.2256 L -50.7,-93 L -50.7142,-92.7744 L -50.7565,-92.5524 L -50.8264,-92.3374 L -50.9226,-92.1329
 L -51.0438,-91.942 L -51.1879,-91.7678 L -51.3526,-91.6131 L -51.5355,-91.4802 L -51.7336,-91.3713 L -51.9438,-91.2881
 L -52.1627,-91.2319 L -52.387,-91.2036 z
" stroke="black" fill="lightgray" stroke-width="0.5"/>
</svg>
