<?xml version="1.0" standalone="no"?>
<!DOCTYPE svg PUBLIC "-//W3C//DTD SVG 1.1//EN" "http://www.w3.org/Graphics/SVG/1.1/DTD/svg11.dtd">
<svg width="60mm" height="198mm" viewBox="-30 -375 60 198" xmlns="http://www.w3.org/2000/svg" version="1.1">
<title>OpenSCAD Model</title>
<path d="
M 25.4369,-315.589 L 26.0451,-315.745 L 26.6289,-315.976 L 27.1791,-316.278 L 27.6871,-316.647 L 28.1448,-317.077
 L 28.5451,-317.561 L 28.8815,-318.091 L 29.1489,-318.659 L 29.3429,-319.257 L 29.4606,-319.873 L 29.5,-320.5
 L 29.5,-367.5 L 13.9715,-367.5 L 13.9751,-367.498 L 11.7482,-367.498 L 11.6236,-367.482 L 11.502,-367.451
 L 11.3852,-367.405 L 11.2752,-367.344 L 11.1736,-367.271 L 11.082,-367.185 L 11.002,-367.088 L 10.9347,-366.982
 L 10.8812,-366.868 L 10.8424,-366.749 L 10.8189,-366.625 L 10.811,-366.5 L 10.8189,-366.375 L 10.8424,-366.251
 L 10.8812,-366.132 L 10.9347,-366.018 L 11.002,-365.912 L 11.082,-365.815 L 11.1736,-365.729 L 11.2752,-365.656
 L 11.3852,-365.595 L 11.502,-365.549 L 11.6236,-365.518 L 11.7482,-365.502 L 16.777,-365.502 L 16.8917,-365.419
 L 19.3177,-363.14 L 21.4389,-360.576 L 23.2221,-357.766 L 24.6391,-354.755 L 25.6674,-351.59 L 26.291,-348.321
 L 26.5,-345 L 26.291,-341.679 L 25.6674,-338.41 L 24.6391,-335.245 L 23.2221,-332.234 L 21.4389,-329.424
 L 19.3177,-326.86 L 16.8917,-324.581 L 14.1994,-322.625 L 11.2831,-321.022 L 8.18895,-319.797 L 4.96559,-318.969
 L 1.66394,-318.552 L -1.66394,-318.552 L -4.96559,-318.969 L -8.18895,-319.797 L -11.2831,-321.022 L -14.1994,-322.625
 L -16.8917,-324.581 L -19.3177,-326.86 L -21.4389,-329.424 L -23.2221,-332.234 L -24.6391,-335.245 L -25.6674,-338.41
 L -26.291,-341.679 L -26.5,-345 L -26.291,-348.321 L -25.6674,-351.59 L -24.6391,-354.755 L -23.2221,-357.766
 L -21.4389,-360.576 L -19.3177,-363.14 L -16.8917,-365.419 L -14.1994,-367.375 L -11.2831,-368.978 L -8.18895,-370.203
 L -4.96559,-371.031 L -1.66394,-371.448 L 0,-371.448 L 0,-371.5 L 9.49998,-371.5 L 6.50986,-374.49
 L 3.5,-374.49 L 3.5,-373.5 L -28.5,-373.5 L -28.5,-374.5 L -29.5,-374.5 L -29.5,-370.494
 L -22.3116,-370.494 L -21.9379,-370.447 L -21.5729,-370.353 L -21.2227,-370.214 L -20.8925,-370.033 L -20.5877,-369.812
 L -20.3131,-369.554 L -20.0729,-369.263 L -19.8711,-368.945 L -19.7107,-368.604 L -19.5942,-368.246 L -19.5237,-367.876
 L -19.5,-367.5 L -19.5237,-367.124 L -19.5942,-366.754 L -19.7107,-366.396 L -19.8711,-366.055 L -20.0729,-365.737
 L -20.3131,-365.446 L -20.5877,-365.188 L -20.8925,-364.967 L -21.2227,-364.786 L -21.5729,-364.647 L -21.9379,-364.553
 L -22.3116,-364.506 L -29.5,-364.506 L -29.5,-325.494 L -22.3116,-325.494 L -21.9379,-325.447 L -21.5729,-325.353
 L -21.2227,-325.214 L -20.8925,-325.033 L -20.5877,-324.812 L -20.3131,-324.554 L -20.0729,-324.263 L -19.8711,-323.945
 L -19.7107,-323.604 L -19.5942,-323.246 L -19.5237,-322.876 L -19.5,-322.5 L -19.5237,-322.124 L -19.5942,-321.754
 L -19.7107,-321.396 L -19.8711,-321.055 L -20.0729,-320.737 L -20.3131,-320.446 L -20.5877,-320.188 L -20.8925,-319.967
 L -21.2227,-319.786 L -21.5729,-319.647 L -21.9379,-319.553 L -22.3116,-319.506 L -29.3905,-319.506 L -29.3429,-319.257
 L -29.1489,-318.659 L -28.8815,-318.091 L -28.5451,-317.561 L -28.1448,-317.077 L -27.6871,-316.647 L -27.1791,-316.278
 L -26.6289,-315.976 L -26.0451,-315.745 L -25.4369,-315.589 L -24.8139,-315.51 L 24.8139,-315.51 z
M 22.3116,-319.506 L 21.9379,-319.553 L 21.5729,-319.647 L 21.2227,-319.786 L 20.8925,-319.967 L 20.5877,-320.188
 L 20.3131,-320.446 L 20.0729,-320.737 L 19.8711,-321.055 L 19.7107,-321.396 L 19.5942,-321.754 L 19.5237,-322.124
 L 19.5,-322.5 L 19.5237,-322.876 L 19.5942,-323.246 L 19.7107,-323.604 L 19.8711,-323.945 L 20.0729,-324.263
 L 20.3131,-324.554 L 20.5877,-324.812 L 20.8925,-325.033 L 21.2227,-325.214 L 21.5729,-325.353 L 21.9379,-325.447
 L 22.3116,-325.494 L 22.6884,-325.494 L 23.0621,-325.447 L 23.427,-325.353 L 23.7773,-325.214 L 24.1075,-325.033
 L 24.4123,-324.812 L 24.6869,-324.554 L 24.927,-324.263 L 25.1289,-323.945 L 25.2893,-323.604 L 25.4057,-323.246
 L 25.4763,-322.876 L 25.5,-322.5 L 25.4763,-322.124 L 25.4057,-321.754 L 25.2893,-321.396 L 25.1289,-321.055
 L 24.927,-320.737 L 24.6869,-320.446 L 24.4123,-320.188 L 24.1075,-319.967 L 23.7773,-319.786 L 23.427,-319.647
 L 23.0621,-319.553 L 22.6884,-319.506 z
M 19.5,-374.49 L 8.63118,-374.49 L 11.6213,-371.5 L 19.5,-371.5 z
M 25.4369,-246.589 L 26.0451,-246.745 L 26.6289,-246.976 L 27.1791,-247.278 L 27.6871,-247.647 L 28.1448,-248.077
 L 28.5451,-248.561 L 28.8815,-249.091 L 29.1489,-249.659 L 29.3429,-250.257 L 29.4606,-250.873 L 29.5,-251.5
 L 29.5,-298.5 L 13.9715,-298.5 L 13.9751,-298.498 L 11.7482,-298.498 L 11.6236,-298.482 L 11.502,-298.451
 L 11.3852,-298.405 L 11.2752,-298.344 L 11.1736,-298.271 L 11.082,-298.185 L 11.002,-298.088 L 10.9347,-297.982
 L 10.8812,-297.868 L 10.8424,-297.749 L 10.8189,-297.625 L 10.811,-297.5 L 10.8189,-297.375 L 10.8424,-297.251
 L 10.8812,-297.132 L 10.9347,-297.018 L 11.002,-296.912 L 11.082,-296.815 L 11.1736,-296.729 L 11.2752,-296.656
 L 11.3852,-296.595 L 11.502,-296.549 L 11.6236,-296.518 L 11.7482,-296.502 L 16.777,-296.502 L 16.8917,-296.419
 L 19.3177,-294.14 L 21.4389,-291.576 L 23.2221,-288.766 L 24.6391,-285.755 L 25.6674,-282.59 L 26.291,-279.321
 L 26.5,-276 L 26.291,-272.679 L 25.6674,-269.41 L 24.6391,-266.245 L 23.2221,-263.234 L 21.4389,-260.424
 L 19.3177,-257.86 L 16.8917,-255.581 L 14.1994,-253.625 L 11.2831,-252.022 L 8.18895,-250.797 L 4.96559,-249.969
 L 1.66394,-249.552 L -1.66394,-249.552 L -4.96559,-249.969 L -8.18895,-250.797 L -11.2831,-252.022 L -14.1994,-253.625
 L -16.8917,-255.581 L -19.3177,-257.86 L -21.4389,-260.424 L -23.2221,-263.234 L -24.6391,-266.245 L -25.6674,-269.41
 L -26.291,-272.679 L -26.5,-276 L -26.291,-279.321 L -25.6674,-282.59 L -24.6391,-285.755 L -23.2221,-288.766
 L -21.4389,-291.576 L -19.3177,-294.14 L -16.8917,-296.419 L -14.1994,-298.375 L -11.2831,-299.978 L -8.18895,-301.203
 L -4.96559,-302.031 L -1.66394,-302.448 L 0,-302.448 L 0,-302.5 L 9.49998,-302.5 L 6.50986,-305.49
 L 3.5,-305.49 L 3.5,-304.5 L -28.5,-304.5 L -28.5,-305.5 L -29.5,-305.5 L -29.5,-301.494
 L -22.3116,-301.494 L -21.9379,-301.447 L -21.5729,-301.353 L -21.2227,-301.214 L -20.8925,-301.033 L -20.5877,-300.812
 L -20.3131,-300.554 L -20.0729,-300.263 L -19.8711,-299.945 L -19.7107,-299.604 L -19.5942,-299.246 L -19.5237,-298.876
 L -19.5,-298.5 L -19.5237,-298.124 L -19.5942,-297.754 L -19.7107,-297.396 L -19.8711,-297.055 L -20.0729,-296.737
 L -20.3131,-296.446 L -20.5877,-296.188 L -20.8925,-295.967 L -21.2227,-295.786 L -21.5729,-295.647 L -21.9379,-295.553
 L -22.3116,-295.506 L -29.5,-295.506 L -29.5,-256.494 L -22.3116,-256.494 L -21.9379,-256.447 L -21.5729,-256.353
 L -21.2227,-256.214 L -20.8925,-256.033 L -20.5877,-255.812 L -20.3131,-255.554 L -20.0729,-255.263 L -19.8711,-254.945
 L -19.7107,-254.604 L -19.5942,-254.246 L -19.5237,-253.876 L -19.5,-253.5 L -19.5237,-253.124 L -19.5942,-252.754
 L -19.7107,-252.396 L -19.8711,-252.055 L -20.0729,-251.737 L -20.3131,-251.446 L -20.5877,-251.188 L -20.8925,-250.967
 L -21.2227,-250.786 L -21.5729,-250.647 L -21.9379,-250.553 L -22.3116,-250.506 L -29.3905,-250.506 L -29.3429,-250.257
 L -29.1489,-249.659 L -28.8815,-249.091 L -28.5451,-248.561 L -28.1448,-248.077 L -27.6871,-247.647 L -27.1791,-247.278
 L -26.6289,-246.976 L -26.0451,-246.745 L -25.4369,-246.589 L -24.8139,-246.51 L 24.8139,-246.51 z
M 22.3116,-250.506 L 21.9379,-250.553 L 21.5729,-250.647 L 21.2227,-250.786 L 20.8925,-250.967 L 20.5877,-251.188
 L 20.3131,-251.446 L 20.0729,-251.737 L 19.8711,-252.055 L 19.7107,-252.396 L 19.5942,-252.754 L 19.5237,-253.124
 L 19.5,-253.5 L 19.5237,-253.876 L 19.5942,-254.246 L 19.7107,-254.604 L 19.8711,-254.945 L 20.0729,-255.263
 L 20.3131,-255.554 L 20.5877,-255.812 L 20.8925,-256.033 L 21.2227,-256.214 L 21.5729,-256.353 L 21.9379,-256.447
 L 22.3116,-256.494 L 22.6884,-256.494 L 23.0621,-256.447 L 23.427,-256.353 L 23.7773,-256.214 L 24.1075,-256.033
 L 24.4123,-255.812 L 24.6869,-255.554 L 24.927,-255.263 L 25.1289,-254.945 L 25.2893,-254.604 L 25.4057,-254.246
 L 25.4763,-253.876 L 25.5,-253.5 L 25.4763,-253.124 L 25.4057,-252.754 L 25.2893,-252.396 L 25.1289,-252.055
 L 24.927,-251.737 L 24.6869,-251.446 L 24.4123,-251.188 L 24.1075,-250.967 L 23.7773,-250.786 L 23.427,-250.647
 L 23.0621,-250.553 L 22.6884,-250.506 z
M 19.5,-305.49 L 8.63118,-305.49 L 11.6213,-302.5 L 19.5,-302.5 z
M 25.4369,-177.589 L 26.0451,-177.745 L 26.6289,-177.976 L 27.1791,-178.278 L 27.6871,-178.647 L 28.1448,-179.077
 L 28.5451,-179.561 L 28.8815,-180.091 L 29.1489,-180.659 L 29.3429,-181.257 L 29.4606,-181.873 L 29.5,-182.5
 L 29.5,-229.5 L 13.9715,-229.5 L 13.9751,-229.498 L 11.7482,-229.498 L 11.6236,-229.482 L 11.502,-229.451
 L 11.3852,-229.405 L 11.2752,-229.344 L 11.1736,-229.271 L 11.082,-229.185 L 11.002,-229.088 L 10.9347,-228.982
 L 10.8812,-228.868 L 10.8424,-228.749 L 10.8189,-228.625 L 10.811,-228.5 L 10.8189,-228.375 L 10.8424,-228.251
 L 10.8812,-228.132 L 10.9347,-228.018 L 11.002,-227.912 L 11.082,-227.815 L 11.1736,-227.729 L 11.2752,-227.656
 L 11.3852,-227.595 L 11.502,-227.549 L 11.6236,-227.518 L 11.7482,-227.502 L 16.777,-227.502 L 16.8917,-227.419
 L 19.3177,-225.14 L 21.4389,-222.576 L 23.2221,-219.766 L 24.6391,-216.755 L 25.6674,-213.59 L 26.291,-210.321
 L 26.5,-207 L 26.291,-203.679 L 25.6674,-200.41 L 24.6391,-197.245 L 23.2221,-194.234 L 21.4389,-191.424
 L 19.3177,-188.86 L 16.8917,-186.581 L 14.1994,-184.625 L 11.2831,-183.022 L 8.18895,-181.797 L 4.96559,-180.969
 L 1.66394,-180.552 L -1.66394,-180.552 L -4.96559,-180.969 L -8.18895,-181.797 L -11.2831,-183.022 L -14.1994,-184.625
 L -16.8917,-186.581 L -19.3177,-188.86 L -21.4389,-191.424 L -23.2221,-194.234 L -24.6391,-197.245 L -25.6674,-200.41
 L -26.291,-203.679 L -26.5,-207 L -26.291,-210.321 L -25.6674,-213.59 L -24.6391,-216.755 L -23.2221,-219.766
 L -21.4389,-222.576 L -19.3177,-225.14 L -16.8917,-227.419 L -14.1994,-229.375 L -11.2831,-230.978 L -8.18895,-232.203
 L -4.96559,-233.031 L -1.66394,-233.448 L 0,-233.448 L 0,-233.5 L 9.49998,-233.5 L 6.50986,-236.49
 L 3.5,-236.49 L 3.5,-235.5 L -28.5,-235.5 L -28.5,-236.5 L -29.5,-236.5 L -29.5,-232.494
 L -22.3116,-232.494 L -21.9379,-232.447 L -21.5729,-232.353 L -21.2227,-232.214 L -20.8925,-232.033 L -20.5877,-231.812
 L -20.3131,-231.554 L -20.0729,-231.263 L -19.8711,-230.945 L -19.7107,-230.604 L -19.5942,-230.246 L -19.5237,-229.876
 L -19.5,-229.5 L -19.5237,-229.124 L -19.5942,-228.754 L -19.7107,-228.396 L -19.8711,-228.055 L -20.0729,-227.737
 L -20.3131,-227.446 L -20.5877,-227.188 L -20.8925,-226.967 L -21.2227,-226.786 L -21.5729,-226.647 L -21.9379,-226.553
 L -22.3116,-226.506 L -29.5,-226.506 L -29.5,-187.494 L -22.3116,-187.494 L -21.9379,-187.447 L -21.5729,-187.353
 L -21.2227,-187.214 L -20.8925,-187.033 L -20.5877,-186.812 L -20.3131,-186.554 L -20.0729,-186.263 L -19.8711,-185.945
 L -19.7107,-185.604 L -19.5942,-185.246 L -19.5237,-184.876 L -19.5,-184.5 L -19.5237,-184.124 L -19.5942,-183.754
 L -19.7107,-183.396 L -19.8711,-183.055 L -20.0729,-182.737 L -20.3131,-182.446 L -20.5877,-182.188 L -20.8925,-181.967
 L -21.2227,-181.786 L -21.5729,-181.647 L -21.9379,-181.553 L -22.3116,-181.506 L -29.3905,-181.506 L -29.3429,-181.257
 L -29.1489,-180.659 L -28.8815,-180.091 L -28.5451,-179.561 L -28.1448,-179.077 L -27.6871,-178.647 L -27.1791,-178.278
 L -26.6289,-177.976 L -26.0451,-177.745 L -25.4369,-177.589 L -24.8139,-177.51 L 24.8139,-177.51 z
M 22.3116,-181.506 L 21.9379,-181.553 L 21.5729,-181.647 L 21.2227,-181.786 L 20.8925,-181.967 L 20.5877,-182.188
 L 20.3131,-182.446 L 20.0729,-182.737 L 19.8711,-183.055 L 19.7107,-183.396 L 19.5942,-183.754 L 19.5237,-184.124
 L 19.5,-184.5 L 19.5237,-184.876 L 19.5942,-185.246 L 19.7107,-185.604 L 19.8711,-185.945 L 20.0729,-186.263
 L 20.3131,-186.554 L 20.5877,-186.812 L 20.8925,-187.033 L 21.2227,-187.214 L 21.5729,-187.353 L 21.9379,-187.447
 L 22.3116,-187.494 L 22.6884,-187.494 L 23.0621,-187.447 L 23.427,-187.353 L 23.7773,-187.214 L 24.1075,-187.033
 L 24.4123,-186.812 L 24.6869,-186.554 L 24.927,-186.263 L 25.1289,-185.945 L 25.2893,-185.604 L 25.4057,-185.246
 L 25.4763,-184.876 L 25.5,-184.5 L 25.4763,-184.124 L 25.4057,-183.754 L 25.2893,-183.396 L 25.1289,-183.055
 L 24.927,-182.737 L 24.6869,-182.446 L 24.4123,-182.188 L 24.1075,-181.967 L 23.7773,-181.786 L 23.427,-181.647
 L 23.0621,-181.553 L 22.6884,-181.506 z
M 19.5,-236.49 L 8.63118,-236.49 L 11.6213,-233.5 L 19.5,-233.5 z
" stroke="black" fill="lightgray" stroke-width="0.5"/>
</svg>
