  0
SECTION
  2
BLOCKS
  0
ENDSEC
  0
SECTION
  2
ENTITIES
  0
LINE
  8
0
 10
-6
 20
211.51
 11
-5.46725
 21
210.866
  0
LINE
  8
0
 10
-5.46725
 20
210.866
 11
-4.78067
 21
210.221
  0
LINE
  8
0
 10
-4.78067
 20
210.221
 11
-4.01869
 21
209.668
  0
LINE
  8
0
 10
-4.01869
 20
209.668
 11
-3.19334
 21
209.214
  0
LINE
  8
0
 10
-3.19334
 20
209.214
 11
-2.31763
 21
208.867
  0
LINE
  8
0
 10
-2.31763
 20
208.867
 11
-1.40535
 21
208.633
  0
LINE
  8
0
 10
-1.40535
 20
208.633
 11
-0.470917
 21
208.515
  0
LINE
  8
0
 10
-0.470917
 20
208.515
 11
0.470917
 21
208.515
  0
LINE
  8
0
 10
0.470917
 20
208.515
 11
1.40535
 21
208.633
  0
LINE
  8
0
 10
1.40535
 20
208.633
 11
2.31763
 21
208.867
  0
LINE
  8
0
 10
2.31763
 20
208.867
 11
3.19334
 21
209.214
  0
LINE
  8
0
 10
3.19334
 20
209.214
 11
4.01869
 21
209.668
  0
LINE
  8
0
 10
4.01869
 20
209.668
 11
4.78067
 21
210.221
  0
LINE
  8
0
 10
4.78067
 20
210.221
 11
5.46725
 21
210.866
  0
LINE
  8
0
 10
5.46725
 20
210.866
 11
6.06763
 21
211.592
  0
LINE
  8
0
 10
6.06763
 20
211.592
 11
6.5723
 21
212.387
  0
LINE
  8
0
 10
6.5723
 20
212.387
 11
6.97331
 21
213.239
  0
LINE
  8
0
 10
6.97331
 20
213.239
 11
7.26436
 21
214.135
  0
LINE
  8
0
 10
7.26436
 20
214.135
 11
7.44086
 21
215.06
  0
LINE
  8
0
 10
7.44086
 20
215.06
 11
7.5
 21
216
  0
LINE
  8
0
 10
7.5
 20
216
 11
7.44086
 21
216.94
  0
LINE
  8
0
 10
7.44086
 20
216.94
 11
7.26436
 21
217.865
  0
LINE
  8
0
 10
7.26436
 20
217.865
 11
6.97331
 21
218.761
  0
LINE
  8
0
 10
6.97331
 20
218.761
 11
6.5723
 21
219.613
  0
LINE
  8
0
 10
6.5723
 20
219.613
 11
6.06763
 21
220.408
  0
LINE
  8
0
 10
6.06763
 20
220.408
 11
5.46725
 21
221.134
  0
LINE
  8
0
 10
5.46725
 20
221.134
 11
4.78067
 21
221.779
  0
LINE
  8
0
 10
4.78067
 20
221.779
 11
4.01869
 21
222.332
  0
LINE
  8
0
 10
4.01869
 20
222.332
 11
3.19334
 21
222.786
  0
LINE
  8
0
 10
3.19334
 20
222.786
 11
2.31763
 21
223.133
  0
LINE
  8
0
 10
2.31763
 20
223.133
 11
1.40535
 21
223.367
  0
LINE
  8
0
 10
1.40535
 20
223.367
 11
0.470917
 21
223.485
  0
LINE
  8
0
 10
0.470917
 20
223.485
 11
-0.470917
 21
223.485
  0
LINE
  8
0
 10
-0.470917
 20
223.485
 11
-1.40535
 21
223.367
  0
LINE
  8
0
 10
-1.40535
 20
223.367
 11
-2.31763
 21
223.133
  0
LINE
  8
0
 10
-2.31763
 20
223.133
 11
-3.19334
 21
222.786
  0
LINE
  8
0
 10
-3.19334
 20
222.786
 11
-4.01869
 21
222.332
  0
LINE
  8
0
 10
-4.01869
 20
222.332
 11
-4.78067
 21
221.779
  0
LINE
  8
0
 10
-4.78067
 20
221.779
 11
-5.46725
 21
221.134
  0
LINE
  8
0
 10
-5.46725
 20
221.134
 11
-6
 21
220.49
  0
LINE
  8
0
 10
-6
 20
220.49
 11
-6
 21
223.49
  0
LINE
  8
0
 10
-6
 20
223.49
 11
-9
 21
223.49
  0
LINE
  8
0
 10
-9
 20
223.49
 11
-9
 21
208.51
  0
LINE
  8
0
 10
-9
 20
208.51
 11
-6
 21
208.51
  0
LINE
  8
0
 10
-6
 20
208.51
 11
-6
 21
211.51
  0
LINE
  8
0
 10
-2.25116
 20
210.008
 11
-2.74951
 21
210.071
  0
LINE
  8
0
 10
-2.74951
 20
210.071
 11
-3.23605
 21
210.196
  0
LINE
  8
0
 10
-3.23605
 20
210.196
 11
-3.70311
 21
210.381
  0
LINE
  8
0
 10
-3.70311
 20
210.381
 11
-4.1433
 21
210.623
  0
LINE
  8
0
 10
-4.1433
 20
210.623
 11
-4.54968
 21
210.918
  0
LINE
  8
0
 10
-4.54968
 20
210.918
 11
-4.91586
 21
211.262
  0
LINE
  8
0
 10
-4.91586
 20
211.262
 11
-5.23605
 21
211.649
  0
LINE
  8
0
 10
-5.23605
 20
211.649
 11
-5.50522
 21
212.073
  0
LINE
  8
0
 10
-5.50522
 20
212.073
 11
-5.7191
 21
212.528
  0
LINE
  8
0
 10
-5.7191
 20
212.528
 11
-5.87433
 21
213.005
  0
LINE
  8
0
 10
-5.87433
 20
213.005
 11
-5.96844
 21
213.499
  0
LINE
  8
0
 10
-5.96844
 20
213.499
 11
-6
 21
214
  0
LINE
  8
0
 10
-6
 20
214
 11
-6
 21
218
  0
LINE
  8
0
 10
-6
 20
218
 11
-5.96844
 21
218.501
  0
LINE
  8
0
 10
-5.96844
 20
218.501
 11
-5.87433
 21
218.995
  0
LINE
  8
0
 10
-5.87433
 20
218.995
 11
-5.7191
 21
219.472
  0
LINE
  8
0
 10
-5.7191
 20
219.472
 11
-5.50522
 21
219.927
  0
LINE
  8
0
 10
-5.50522
 20
219.927
 11
-5.23605
 21
220.351
  0
LINE
  8
0
 10
-5.23605
 20
220.351
 11
-4.91586
 21
220.738
  0
LINE
  8
0
 10
-4.91586
 20
220.738
 11
-4.54968
 21
221.082
  0
LINE
  8
0
 10
-4.54968
 20
221.082
 11
-4.1433
 21
221.377
  0
LINE
  8
0
 10
-4.1433
 20
221.377
 11
-3.70311
 21
221.619
  0
LINE
  8
0
 10
-3.70311
 20
221.619
 11
-3.23605
 21
221.804
  0
LINE
  8
0
 10
-3.23605
 20
221.804
 11
-2.74951
 21
221.929
  0
LINE
  8
0
 10
-2.74951
 20
221.929
 11
-2.25116
 21
221.992
  0
LINE
  8
0
 10
-2.25116
 20
221.992
 11
2.25116
 21
221.992
  0
LINE
  8
0
 10
2.25116
 20
221.992
 11
2.74951
 21
221.929
  0
LINE
  8
0
 10
2.74951
 20
221.929
 11
3.23605
 21
221.804
  0
LINE
  8
0
 10
3.23605
 20
221.804
 11
3.70311
 21
221.619
  0
LINE
  8
0
 10
3.70311
 20
221.619
 11
4.1433
 21
221.377
  0
LINE
  8
0
 10
4.1433
 20
221.377
 11
4.54968
 21
221.082
  0
LINE
  8
0
 10
4.54968
 20
221.082
 11
4.91586
 21
220.738
  0
LINE
  8
0
 10
4.91586
 20
220.738
 11
5.23605
 21
220.351
  0
LINE
  8
0
 10
5.23605
 20
220.351
 11
5.50522
 21
219.927
  0
LINE
  8
0
 10
5.50522
 20
219.927
 11
5.7191
 21
219.472
  0
LINE
  8
0
 10
5.7191
 20
219.472
 11
5.87433
 21
218.995
  0
LINE
  8
0
 10
5.87433
 20
218.995
 11
5.96844
 21
218.501
  0
LINE
  8
0
 10
5.96844
 20
218.501
 11
6
 21
218
  0
LINE
  8
0
 10
6
 20
218
 11
6
 21
214
  0
LINE
  8
0
 10
6
 20
214
 11
5.96844
 21
213.499
  0
LINE
  8
0
 10
5.96844
 20
213.499
 11
5.87433
 21
213.005
  0
LINE
  8
0
 10
5.87433
 20
213.005
 11
5.7191
 21
212.528
  0
LINE
  8
0
 10
5.7191
 20
212.528
 11
5.50522
 21
212.073
  0
LINE
  8
0
 10
5.50522
 20
212.073
 11
5.23605
 21
211.649
  0
LINE
  8
0
 10
5.23605
 20
211.649
 11
4.91586
 21
211.262
  0
LINE
  8
0
 10
4.91586
 20
211.262
 11
4.54968
 21
210.918
  0
LINE
  8
0
 10
4.54968
 20
210.918
 11
4.1433
 21
210.623
  0
LINE
  8
0
 10
4.1433
 20
210.623
 11
3.70311
 21
210.381
  0
LINE
  8
0
 10
3.70311
 20
210.381
 11
3.23605
 21
210.196
  0
LINE
  8
0
 10
3.23605
 20
210.196
 11
2.74951
 21
210.071
  0
LINE
  8
0
 10
2.74951
 20
210.071
 11
2.25116
 21
210.008
  0
LINE
  8
0
 10
2.25116
 20
210.008
 11
-2.25116
 21
210.008
  0
LINE
  8
0
 10
-6
 20
187.51
 11
-5.46725
 21
186.866
  0
LINE
  8
0
 10
-5.46725
 20
186.866
 11
-4.78067
 21
186.221
  0
LINE
  8
0
 10
-4.78067
 20
186.221
 11
-4.01869
 21
185.668
  0
LINE
  8
0
 10
-4.01869
 20
185.668
 11
-3.19334
 21
185.214
  0
LINE
  8
0
 10
-3.19334
 20
185.214
 11
-2.31763
 21
184.867
  0
LINE
  8
0
 10
-2.31763
 20
184.867
 11
-1.40535
 21
184.633
  0
LINE
  8
0
 10
-1.40535
 20
184.633
 11
-0.470917
 21
184.515
  0
LINE
  8
0
 10
-0.470917
 20
184.515
 11
0.470917
 21
184.515
  0
LINE
  8
0
 10
0.470917
 20
184.515
 11
1.40535
 21
184.633
  0
LINE
  8
0
 10
1.40535
 20
184.633
 11
2.31763
 21
184.867
  0
LINE
  8
0
 10
2.31763
 20
184.867
 11
3.19334
 21
185.214
  0
LINE
  8
0
 10
3.19334
 20
185.214
 11
4.01869
 21
185.668
  0
LINE
  8
0
 10
4.01869
 20
185.668
 11
4.78067
 21
186.221
  0
LINE
  8
0
 10
4.78067
 20
186.221
 11
5.46725
 21
186.866
  0
LINE
  8
0
 10
5.46725
 20
186.866
 11
6.06763
 21
187.592
  0
LINE
  8
0
 10
6.06763
 20
187.592
 11
6.5723
 21
188.387
  0
LINE
  8
0
 10
6.5723
 20
188.387
 11
6.97331
 21
189.239
  0
LINE
  8
0
 10
6.97331
 20
189.239
 11
7.26436
 21
190.135
  0
LINE
  8
0
 10
7.26436
 20
190.135
 11
7.44086
 21
191.06
  0
LINE
  8
0
 10
7.44086
 20
191.06
 11
7.5
 21
192
  0
LINE
  8
0
 10
7.5
 20
192
 11
7.44086
 21
192.94
  0
LINE
  8
0
 10
7.44086
 20
192.94
 11
7.26436
 21
193.865
  0
LINE
  8
0
 10
7.26436
 20
193.865
 11
6.97331
 21
194.761
  0
LINE
  8
0
 10
6.97331
 20
194.761
 11
6.5723
 21
195.613
  0
LINE
  8
0
 10
6.5723
 20
195.613
 11
6.06763
 21
196.408
  0
LINE
  8
0
 10
6.06763
 20
196.408
 11
5.46725
 21
197.134
  0
LINE
  8
0
 10
5.46725
 20
197.134
 11
4.78067
 21
197.779
  0
LINE
  8
0
 10
4.78067
 20
197.779
 11
4.01869
 21
198.332
  0
LINE
  8
0
 10
4.01869
 20
198.332
 11
3.19334
 21
198.786
  0
LINE
  8
0
 10
3.19334
 20
198.786
 11
2.31763
 21
199.133
  0
LINE
  8
0
 10
2.31763
 20
199.133
 11
1.40535
 21
199.367
  0
LINE
  8
0
 10
1.40535
 20
199.367
 11
0.470917
 21
199.485
  0
LINE
  8
0
 10
0.470917
 20
199.485
 11
-0.470917
 21
199.485
  0
LINE
  8
0
 10
-0.470917
 20
199.485
 11
-1.40535
 21
199.367
  0
LINE
  8
0
 10
-1.40535
 20
199.367
 11
-2.31763
 21
199.133
  0
LINE
  8
0
 10
-2.31763
 20
199.133
 11
-3.19334
 21
198.786
  0
LINE
  8
0
 10
-3.19334
 20
198.786
 11
-4.01869
 21
198.332
  0
LINE
  8
0
 10
-4.01869
 20
198.332
 11
-4.78067
 21
197.779
  0
LINE
  8
0
 10
-4.78067
 20
197.779
 11
-5.46725
 21
197.134
  0
LINE
  8
0
 10
-5.46725
 20
197.134
 11
-6
 21
196.49
  0
LINE
  8
0
 10
-6
 20
196.49
 11
-6
 21
199.49
  0
LINE
  8
0
 10
-6
 20
199.49
 11
-9
 21
199.49
  0
LINE
  8
0
 10
-9
 20
199.49
 11
-9
 21
184.51
  0
LINE
  8
0
 10
-9
 20
184.51
 11
-6
 21
184.51
  0
LINE
  8
0
 10
-6
 20
184.51
 11
-6
 21
187.51
  0
LINE
  8
0
 10
-2.25116
 20
186.008
 11
-2.74951
 21
186.071
  0
LINE
  8
0
 10
-2.74951
 20
186.071
 11
-3.23605
 21
186.196
  0
LINE
  8
0
 10
-3.23605
 20
186.196
 11
-3.70311
 21
186.381
  0
LINE
  8
0
 10
-3.70311
 20
186.381
 11
-4.1433
 21
186.623
  0
LINE
  8
0
 10
-4.1433
 20
186.623
 11
-4.54968
 21
186.918
  0
LINE
  8
0
 10
-4.54968
 20
186.918
 11
-4.91586
 21
187.262
  0
LINE
  8
0
 10
-4.91586
 20
187.262
 11
-5.23605
 21
187.649
  0
LINE
  8
0
 10
-5.23605
 20
187.649
 11
-5.50522
 21
188.073
  0
LINE
  8
0
 10
-5.50522
 20
188.073
 11
-5.7191
 21
188.528
  0
LINE
  8
0
 10
-5.7191
 20
188.528
 11
-5.87433
 21
189.005
  0
LINE
  8
0
 10
-5.87433
 20
189.005
 11
-5.96844
 21
189.499
  0
LINE
  8
0
 10
-5.96844
 20
189.499
 11
-6
 21
190
  0
LINE
  8
0
 10
-6
 20
190
 11
-6
 21
194
  0
LINE
  8
0
 10
-6
 20
194
 11
-5.96844
 21
194.501
  0
LINE
  8
0
 10
-5.96844
 20
194.501
 11
-5.87433
 21
194.995
  0
LINE
  8
0
 10
-5.87433
 20
194.995
 11
-5.7191
 21
195.472
  0
LINE
  8
0
 10
-5.7191
 20
195.472
 11
-5.50522
 21
195.927
  0
LINE
  8
0
 10
-5.50522
 20
195.927
 11
-5.23605
 21
196.351
  0
LINE
  8
0
 10
-5.23605
 20
196.351
 11
-4.91586
 21
196.738
  0
LINE
  8
0
 10
-4.91586
 20
196.738
 11
-4.54968
 21
197.082
  0
LINE
  8
0
 10
-4.54968
 20
197.082
 11
-4.1433
 21
197.377
  0
LINE
  8
0
 10
-4.1433
 20
197.377
 11
-3.70311
 21
197.619
  0
LINE
  8
0
 10
-3.70311
 20
197.619
 11
-3.23605
 21
197.804
  0
LINE
  8
0
 10
-3.23605
 20
197.804
 11
-2.74951
 21
197.929
  0
LINE
  8
0
 10
-2.74951
 20
197.929
 11
-2.25116
 21
197.992
  0
LINE
  8
0
 10
-2.25116
 20
197.992
 11
2.25116
 21
197.992
  0
LINE
  8
0
 10
2.25116
 20
197.992
 11
2.74951
 21
197.929
  0
LINE
  8
0
 10
2.74951
 20
197.929
 11
3.23605
 21
197.804
  0
LINE
  8
0
 10
3.23605
 20
197.804
 11
3.70311
 21
197.619
  0
LINE
  8
0
 10
3.70311
 20
197.619
 11
4.1433
 21
197.377
  0
LINE
  8
0
 10
4.1433
 20
197.377
 11
4.54968
 21
197.082
  0
LINE
  8
0
 10
4.54968
 20
197.082
 11
4.91586
 21
196.738
  0
LINE
  8
0
 10
4.91586
 20
196.738
 11
5.23605
 21
196.351
  0
LINE
  8
0
 10
5.23605
 20
196.351
 11
5.50522
 21
195.927
  0
LINE
  8
0
 10
5.50522
 20
195.927
 11
5.7191
 21
195.472
  0
LINE
  8
0
 10
5.7191
 20
195.472
 11
5.87433
 21
194.995
  0
LINE
  8
0
 10
5.87433
 20
194.995
 11
5.96844
 21
194.501
  0
LINE
  8
0
 10
5.96844
 20
194.501
 11
6
 21
194
  0
LINE
  8
0
 10
6
 20
194
 11
6
 21
190
  0
LINE
  8
0
 10
6
 20
190
 11
5.96844
 21
189.499
  0
LINE
  8
0
 10
5.96844
 20
189.499
 11
5.87433
 21
189.005
  0
LINE
  8
0
 10
5.87433
 20
189.005
 11
5.7191
 21
188.528
  0
LINE
  8
0
 10
5.7191
 20
188.528
 11
5.50522
 21
188.073
  0
LINE
  8
0
 10
5.50522
 20
188.073
 11
5.23605
 21
187.649
  0
LINE
  8
0
 10
5.23605
 20
187.649
 11
4.91586
 21
187.262
  0
LINE
  8
0
 10
4.91586
 20
187.262
 11
4.54968
 21
186.918
  0
LINE
  8
0
 10
4.54968
 20
186.918
 11
4.1433
 21
186.623
  0
LINE
  8
0
 10
4.1433
 20
186.623
 11
3.70311
 21
186.381
  0
LINE
  8
0
 10
3.70311
 20
186.381
 11
3.23605
 21
186.196
  0
LINE
  8
0
 10
3.23605
 20
186.196
 11
2.74951
 21
186.071
  0
LINE
  8
0
 10
2.74951
 20
186.071
 11
2.25116
 21
186.008
  0
LINE
  8
0
 10
2.25116
 20
186.008
 11
-2.25116
 21
186.008
  0
LINE
  8
0
 10
-6
 20
163.51
 11
-5.46725
 21
162.866
  0
LINE
  8
0
 10
-5.46725
 20
162.866
 11
-4.78067
 21
162.221
  0
LINE
  8
0
 10
-4.78067
 20
162.221
 11
-4.01869
 21
161.668
  0
LINE
  8
0
 10
-4.01869
 20
161.668
 11
-3.19334
 21
161.214
  0
LINE
  8
0
 10
-3.19334
 20
161.214
 11
-2.31763
 21
160.867
  0
LINE
  8
0
 10
-2.31763
 20
160.867
 11
-1.40535
 21
160.633
  0
LINE
  8
0
 10
-1.40535
 20
160.633
 11
-0.470917
 21
160.515
  0
LINE
  8
0
 10
-0.470917
 20
160.515
 11
0.470917
 21
160.515
  0
LINE
  8
0
 10
0.470917
 20
160.515
 11
1.40535
 21
160.633
  0
LINE
  8
0
 10
1.40535
 20
160.633
 11
2.31763
 21
160.867
  0
LINE
  8
0
 10
2.31763
 20
160.867
 11
3.19334
 21
161.214
  0
LINE
  8
0
 10
3.19334
 20
161.214
 11
4.01869
 21
161.668
  0
LINE
  8
0
 10
4.01869
 20
161.668
 11
4.78067
 21
162.221
  0
LINE
  8
0
 10
4.78067
 20
162.221
 11
5.46725
 21
162.866
  0
LINE
  8
0
 10
5.46725
 20
162.866
 11
6.06763
 21
163.592
  0
LINE
  8
0
 10
6.06763
 20
163.592
 11
6.5723
 21
164.387
  0
LINE
  8
0
 10
6.5723
 20
164.387
 11
6.97331
 21
165.239
  0
LINE
  8
0
 10
6.97331
 20
165.239
 11
7.26436
 21
166.135
  0
LINE
  8
0
 10
7.26436
 20
166.135
 11
7.44086
 21
167.06
  0
LINE
  8
0
 10
7.44086
 20
167.06
 11
7.5
 21
168
  0
LINE
  8
0
 10
7.5
 20
168
 11
7.44086
 21
168.94
  0
LINE
  8
0
 10
7.44086
 20
168.94
 11
7.26436
 21
169.865
  0
LINE
  8
0
 10
7.26436
 20
169.865
 11
6.97331
 21
170.761
  0
LINE
  8
0
 10
6.97331
 20
170.761
 11
6.5723
 21
171.613
  0
LINE
  8
0
 10
6.5723
 20
171.613
 11
6.06763
 21
172.408
  0
LINE
  8
0
 10
6.06763
 20
172.408
 11
5.46725
 21
173.134
  0
LINE
  8
0
 10
5.46725
 20
173.134
 11
4.78067
 21
173.779
  0
LINE
  8
0
 10
4.78067
 20
173.779
 11
4.01869
 21
174.332
  0
LINE
  8
0
 10
4.01869
 20
174.332
 11
3.19334
 21
174.786
  0
LINE
  8
0
 10
3.19334
 20
174.786
 11
2.31763
 21
175.133
  0
LINE
  8
0
 10
2.31763
 20
175.133
 11
1.40535
 21
175.367
  0
LINE
  8
0
 10
1.40535
 20
175.367
 11
0.470917
 21
175.485
  0
LINE
  8
0
 10
0.470917
 20
175.485
 11
-0.470917
 21
175.485
  0
LINE
  8
0
 10
-0.470917
 20
175.485
 11
-1.40535
 21
175.367
  0
LINE
  8
0
 10
-1.40535
 20
175.367
 11
-2.31763
 21
175.133
  0
LINE
  8
0
 10
-2.31763
 20
175.133
 11
-3.19334
 21
174.786
  0
LINE
  8
0
 10
-3.19334
 20
174.786
 11
-4.01869
 21
174.332
  0
LINE
  8
0
 10
-4.01869
 20
174.332
 11
-4.78067
 21
173.779
  0
LINE
  8
0
 10
-4.78067
 20
173.779
 11
-5.46725
 21
173.134
  0
LINE
  8
0
 10
-5.46725
 20
173.134
 11
-6
 21
172.49
  0
LINE
  8
0
 10
-6
 20
172.49
 11
-6
 21
175.49
  0
LINE
  8
0
 10
-6
 20
175.49
 11
-9
 21
175.49
  0
LINE
  8
0
 10
-9
 20
175.49
 11
-9
 21
160.51
  0
LINE
  8
0
 10
-9
 20
160.51
 11
-6
 21
160.51
  0
LINE
  8
0
 10
-6
 20
160.51
 11
-6
 21
163.51
  0
LINE
  8
0
 10
-2.25116
 20
162.008
 11
-2.74951
 21
162.071
  0
LINE
  8
0
 10
-2.74951
 20
162.071
 11
-3.23605
 21
162.196
  0
LINE
  8
0
 10
-3.23605
 20
162.196
 11
-3.70311
 21
162.381
  0
LINE
  8
0
 10
-3.70311
 20
162.381
 11
-4.1433
 21
162.623
  0
LINE
  8
0
 10
-4.1433
 20
162.623
 11
-4.54968
 21
162.918
  0
LINE
  8
0
 10
-4.54968
 20
162.918
 11
-4.91586
 21
163.262
  0
LINE
  8
0
 10
-4.91586
 20
163.262
 11
-5.23605
 21
163.649
  0
LINE
  8
0
 10
-5.23605
 20
163.649
 11
-5.50522
 21
164.073
  0
LINE
  8
0
 10
-5.50522
 20
164.073
 11
-5.7191
 21
164.528
  0
LINE
  8
0
 10
-5.7191
 20
164.528
 11
-5.87433
 21
165.005
  0
LINE
  8
0
 10
-5.87433
 20
165.005
 11
-5.96844
 21
165.499
  0
LINE
  8
0
 10
-5.96844
 20
165.499
 11
-6
 21
166
  0
LINE
  8
0
 10
-6
 20
166
 11
-6
 21
170
  0
LINE
  8
0
 10
-6
 20
170
 11
-5.96844
 21
170.501
  0
LINE
  8
0
 10
-5.96844
 20
170.501
 11
-5.87433
 21
170.995
  0
LINE
  8
0
 10
-5.87433
 20
170.995
 11
-5.7191
 21
171.472
  0
LINE
  8
0
 10
-5.7191
 20
171.472
 11
-5.50522
 21
171.927
  0
LINE
  8
0
 10
-5.50522
 20
171.927
 11
-5.23605
 21
172.351
  0
LINE
  8
0
 10
-5.23605
 20
172.351
 11
-4.91586
 21
172.738
  0
LINE
  8
0
 10
-4.91586
 20
172.738
 11
-4.54968
 21
173.082
  0
LINE
  8
0
 10
-4.54968
 20
173.082
 11
-4.1433
 21
173.377
  0
LINE
  8
0
 10
-4.1433
 20
173.377
 11
-3.70311
 21
173.619
  0
LINE
  8
0
 10
-3.70311
 20
173.619
 11
-3.23605
 21
173.804
  0
LINE
  8
0
 10
-3.23605
 20
173.804
 11
-2.74951
 21
173.929
  0
LINE
  8
0
 10
-2.74951
 20
173.929
 11
-2.25116
 21
173.992
  0
LINE
  8
0
 10
-2.25116
 20
173.992
 11
2.25116
 21
173.992
  0
LINE
  8
0
 10
2.25116
 20
173.992
 11
2.74951
 21
173.929
  0
LINE
  8
0
 10
2.74951
 20
173.929
 11
3.23605
 21
173.804
  0
LINE
  8
0
 10
3.23605
 20
173.804
 11
3.70311
 21
173.619
  0
LINE
  8
0
 10
3.70311
 20
173.619
 11
4.1433
 21
173.377
  0
LINE
  8
0
 10
4.1433
 20
173.377
 11
4.54968
 21
173.082
  0
LINE
  8
0
 10
4.54968
 20
173.082
 11
4.91586
 21
172.738
  0
LINE
  8
0
 10
4.91586
 20
172.738
 11
5.23605
 21
172.351
  0
LINE
  8
0
 10
5.23605
 20
172.351
 11
5.50522
 21
171.927
  0
LINE
  8
0
 10
5.50522
 20
171.927
 11
5.7191
 21
171.472
  0
LINE
  8
0
 10
5.7191
 20
171.472
 11
5.87433
 21
170.995
  0
LINE
  8
0
 10
5.87433
 20
170.995
 11
5.96844
 21
170.501
  0
LINE
  8
0
 10
5.96844
 20
170.501
 11
6
 21
170
  0
LINE
  8
0
 10
6
 20
170
 11
6
 21
166
  0
LINE
  8
0
 10
6
 20
166
 11
5.96844
 21
165.499
  0
LINE
  8
0
 10
5.96844
 20
165.499
 11
5.87433
 21
165.005
  0
LINE
  8
0
 10
5.87433
 20
165.005
 11
5.7191
 21
164.528
  0
LINE
  8
0
 10
5.7191
 20
164.528
 11
5.50522
 21
164.073
  0
LINE
  8
0
 10
5.50522
 20
164.073
 11
5.23605
 21
163.649
  0
LINE
  8
0
 10
5.23605
 20
163.649
 11
4.91586
 21
163.262
  0
LINE
  8
0
 10
4.91586
 20
163.262
 11
4.54968
 21
162.918
  0
LINE
  8
0
 10
4.54968
 20
162.918
 11
4.1433
 21
162.623
  0
LINE
  8
0
 10
4.1433
 20
162.623
 11
3.70311
 21
162.381
  0
LINE
  8
0
 10
3.70311
 20
162.381
 11
3.23605
 21
162.196
  0
LINE
  8
0
 10
3.23605
 20
162.196
 11
2.74951
 21
162.071
  0
LINE
  8
0
 10
2.74951
 20
162.071
 11
2.25116
 21
162.008
  0
LINE
  8
0
 10
2.25116
 20
162.008
 11
-2.25116
 21
162.008
  0
LINE
  8
0
 10
1.40535
 20
136.633
 11
2.31763
 21
136.867
  0
LINE
  8
0
 10
2.31763
 20
136.867
 11
3.19334
 21
137.214
  0
LINE
  8
0
 10
3.19334
 20
137.214
 11
4.01869
 21
137.668
  0
LINE
  8
0
 10
4.01869
 20
137.668
 11
4.78067
 21
138.221
  0
LINE
  8
0
 10
4.78067
 20
138.221
 11
5.46725
 21
138.866
  0
LINE
  8
0
 10
5.46725
 20
138.866
 11
6.06763
 21
139.592
  0
LINE
  8
0
 10
6.06763
 20
139.592
 11
6.5723
 21
140.387
  0
LINE
  8
0
 10
6.5723
 20
140.387
 11
6.97331
 21
141.239
  0
LINE
  8
0
 10
6.97331
 20
141.239
 11
7.26436
 21
142.135
  0
LINE
  8
0
 10
7.26436
 20
142.135
 11
7.44086
 21
143.06
  0
LINE
  8
0
 10
7.44086
 20
143.06
 11
7.5
 21
144
  0
LINE
  8
0
 10
7.5
 20
144
 11
7.44086
 21
144.94
  0
LINE
  8
0
 10
7.44086
 20
144.94
 11
7.26436
 21
145.865
  0
LINE
  8
0
 10
7.26436
 20
145.865
 11
6.97331
 21
146.761
  0
LINE
  8
0
 10
6.97331
 20
146.761
 11
6.5723
 21
147.613
  0
LINE
  8
0
 10
6.5723
 20
147.613
 11
6.06763
 21
148.408
  0
LINE
  8
0
 10
6.06763
 20
148.408
 11
5.46725
 21
149.134
  0
LINE
  8
0
 10
5.46725
 20
149.134
 11
4.78067
 21
149.779
  0
LINE
  8
0
 10
4.78067
 20
149.779
 11
4.01869
 21
150.332
  0
LINE
  8
0
 10
4.01869
 20
150.332
 11
3.19334
 21
150.786
  0
LINE
  8
0
 10
3.19334
 20
150.786
 11
2.31763
 21
151.133
  0
LINE
  8
0
 10
2.31763
 20
151.133
 11
1.40535
 21
151.367
  0
LINE
  8
0
 10
1.40535
 20
151.367
 11
0.470917
 21
151.485
  0
LINE
  8
0
 10
0.470917
 20
151.485
 11
-0.470917
 21
151.485
  0
LINE
  8
0
 10
-0.470917
 20
151.485
 11
-1.40535
 21
151.367
  0
LINE
  8
0
 10
-1.40535
 20
151.367
 11
-2.31763
 21
151.133
  0
LINE
  8
0
 10
-2.31763
 20
151.133
 11
-3.19334
 21
150.786
  0
LINE
  8
0
 10
-3.19334
 20
150.786
 11
-4.01869
 21
150.332
  0
LINE
  8
0
 10
-4.01869
 20
150.332
 11
-4.78067
 21
149.779
  0
LINE
  8
0
 10
-4.78067
 20
149.779
 11
-5.46725
 21
149.134
  0
LINE
  8
0
 10
-5.46725
 20
149.134
 11
-6
 21
148.49
  0
LINE
  8
0
 10
-6
 20
148.49
 11
-6
 21
151.479
  0
LINE
  8
0
 10
-6
 20
151.479
 11
-9
 21
151.479
  0
LINE
  8
0
 10
-9
 20
151.479
 11
-9
 21
136.521
  0
LINE
  8
0
 10
-9
 20
136.521
 11
-6
 21
136.521
  0
LINE
  8
0
 10
-6
 20
136.521
 11
-6
 21
139.51
  0
LINE
  8
0
 10
-6
 20
139.51
 11
-5.46725
 21
138.866
  0
LINE
  8
0
 10
-5.46725
 20
138.866
 11
-4.78067
 21
138.221
  0
LINE
  8
0
 10
-4.78067
 20
138.221
 11
-4.01869
 21
137.668
  0
LINE
  8
0
 10
-4.01869
 20
137.668
 11
-3.19334
 21
137.214
  0
LINE
  8
0
 10
-3.19334
 20
137.214
 11
-2.31763
 21
136.867
  0
LINE
  8
0
 10
-2.31763
 20
136.867
 11
-1.40535
 21
136.633
  0
LINE
  8
0
 10
-1.40535
 20
136.633
 11
-0.470917
 21
136.515
  0
LINE
  8
0
 10
-0.470917
 20
136.515
 11
0.470917
 21
136.515
  0
LINE
  8
0
 10
0.470917
 20
136.515
 11
1.40535
 21
136.633
  0
LINE
  8
0
 10
-2.19545
 20
138.893
 11
-2.5833
 21
138.942
  0
LINE
  8
0
 10
-2.5833
 20
138.942
 11
-2.96194
 21
139.039
  0
LINE
  8
0
 10
-2.96194
 20
139.039
 11
-3.32541
 21
139.183
  0
LINE
  8
0
 10
-3.32541
 20
139.183
 11
-3.66798
 21
139.372
  0
LINE
  8
0
 10
-3.66798
 20
139.372
 11
-3.98424
 21
139.601
  0
LINE
  8
0
 10
-3.98424
 20
139.601
 11
-4.26921
 21
139.869
  0
LINE
  8
0
 10
-4.26921
 20
139.869
 11
-4.5184
 21
140.17
  0
LINE
  8
0
 10
-4.5184
 20
140.17
 11
-4.72786
 21
140.5
  0
LINE
  8
0
 10
-4.72786
 20
140.5
 11
-4.89432
 21
140.854
  0
LINE
  8
0
 10
-4.89432
 20
140.854
 11
-5.01512
 21
141.226
  0
LINE
  8
0
 10
-5.01512
 20
141.226
 11
-5.08836
 21
141.61
  0
LINE
  8
0
 10
-5.08836
 20
141.61
 11
-5.11292
 21
142
  0
LINE
  8
0
 10
-5.11292
 20
142
 11
-5.11292
 21
146
  0
LINE
  8
0
 10
-5.11292
 20
146
 11
-5.08836
 21
146.39
  0
LINE
  8
0
 10
-5.08836
 20
146.39
 11
-5.01512
 21
146.774
  0
LINE
  8
0
 10
-5.01512
 20
146.774
 11
-4.89432
 21
147.146
  0
LINE
  8
0
 10
-4.89432
 20
147.146
 11
-4.72786
 21
147.5
  0
LINE
  8
0
 10
-4.72786
 20
147.5
 11
-4.5184
 21
147.83
  0
LINE
  8
0
 10
-4.5184
 20
147.83
 11
-4.26921
 21
148.131
  0
LINE
  8
0
 10
-4.26921
 20
148.131
 11
-3.98424
 21
148.399
  0
LINE
  8
0
 10
-3.98424
 20
148.399
 11
-3.66798
 21
148.628
  0
LINE
  8
0
 10
-3.66798
 20
148.628
 11
-3.32541
 21
148.817
  0
LINE
  8
0
 10
-3.32541
 20
148.817
 11
-2.96194
 21
148.961
  0
LINE
  8
0
 10
-2.96194
 20
148.961
 11
-2.5833
 21
149.058
  0
LINE
  8
0
 10
-2.5833
 20
149.058
 11
-2.19545
 21
149.107
  0
LINE
  8
0
 10
-2.19545
 20
149.107
 11
2.19545
 21
149.107
  0
LINE
  8
0
 10
2.19545
 20
149.107
 11
2.5833
 21
149.058
  0
LINE
  8
0
 10
2.5833
 20
149.058
 11
2.96194
 21
148.961
  0
LINE
  8
0
 10
2.96194
 20
148.961
 11
3.32541
 21
148.817
  0
LINE
  8
0
 10
3.32541
 20
148.817
 11
3.66798
 21
148.628
  0
LINE
  8
0
 10
3.66798
 20
148.628
 11
3.98424
 21
148.399
  0
LINE
  8
0
 10
3.98424
 20
148.399
 11
4.26921
 21
148.131
  0
LINE
  8
0
 10
4.26921
 20
148.131
 11
4.5184
 21
147.83
  0
LINE
  8
0
 10
4.5184
 20
147.83
 11
4.72786
 21
147.5
  0
LINE
  8
0
 10
4.72786
 20
147.5
 11
4.89432
 21
147.146
  0
LINE
  8
0
 10
4.89432
 20
147.146
 11
5.01512
 21
146.774
  0
LINE
  8
0
 10
5.01512
 20
146.774
 11
5.08836
 21
146.39
  0
LINE
  8
0
 10
5.08836
 20
146.39
 11
5.11292
 21
146
  0
LINE
  8
0
 10
5.11292
 20
146
 11
5.11292
 21
142
  0
LINE
  8
0
 10
5.11292
 20
142
 11
5.08836
 21
141.61
  0
LINE
  8
0
 10
5.08836
 20
141.61
 11
5.01512
 21
141.226
  0
LINE
  8
0
 10
5.01512
 20
141.226
 11
4.89432
 21
140.854
  0
LINE
  8
0
 10
4.89432
 20
140.854
 11
4.72786
 21
140.5
  0
LINE
  8
0
 10
4.72786
 20
140.5
 11
4.5184
 21
140.17
  0
LINE
  8
0
 10
4.5184
 20
140.17
 11
4.26921
 21
139.869
  0
LINE
  8
0
 10
4.26921
 20
139.869
 11
3.98424
 21
139.601
  0
LINE
  8
0
 10
3.98424
 20
139.601
 11
3.66798
 21
139.372
  0
LINE
  8
0
 10
3.66798
 20
139.372
 11
3.32541
 21
139.183
  0
LINE
  8
0
 10
3.32541
 20
139.183
 11
2.96194
 21
139.039
  0
LINE
  8
0
 10
2.96194
 20
139.039
 11
2.5833
 21
138.942
  0
LINE
  8
0
 10
2.5833
 20
138.942
 11
2.19545
 21
138.893
  0
LINE
  8
0
 10
2.19545
 20
138.893
 11
-2.19545
 21
138.893
  0
LINE
  8
0
 10
1.40535
 20
112.633
 11
2.31763
 21
112.867
  0
LINE
  8
0
 10
2.31763
 20
112.867
 11
3.19334
 21
113.214
  0
LINE
  8
0
 10
3.19334
 20
113.214
 11
4.01869
 21
113.668
  0
LINE
  8
0
 10
4.01869
 20
113.668
 11
4.78067
 21
114.221
  0
LINE
  8
0
 10
4.78067
 20
114.221
 11
5.46725
 21
114.866
  0
LINE
  8
0
 10
5.46725
 20
114.866
 11
6.06763
 21
115.592
  0
LINE
  8
0
 10
6.06763
 20
115.592
 11
6.5723
 21
116.387
  0
LINE
  8
0
 10
6.5723
 20
116.387
 11
6.97331
 21
117.239
  0
LINE
  8
0
 10
6.97331
 20
117.239
 11
7.26436
 21
118.135
  0
LINE
  8
0
 10
7.26436
 20
118.135
 11
7.44086
 21
119.06
  0
LINE
  8
0
 10
7.44086
 20
119.06
 11
7.5
 21
120
  0
LINE
  8
0
 10
7.5
 20
120
 11
7.44086
 21
120.94
  0
LINE
  8
0
 10
7.44086
 20
120.94
 11
7.26436
 21
121.865
  0
LINE
  8
0
 10
7.26436
 20
121.865
 11
6.97331
 21
122.761
  0
LINE
  8
0
 10
6.97331
 20
122.761
 11
6.5723
 21
123.613
  0
LINE
  8
0
 10
6.5723
 20
123.613
 11
6.06763
 21
124.408
  0
LINE
  8
0
 10
6.06763
 20
124.408
 11
5.46725
 21
125.134
  0
LINE
  8
0
 10
5.46725
 20
125.134
 11
4.78067
 21
125.779
  0
LINE
  8
0
 10
4.78067
 20
125.779
 11
4.01869
 21
126.332
  0
LINE
  8
0
 10
4.01869
 20
126.332
 11
3.19334
 21
126.786
  0
LINE
  8
0
 10
3.19334
 20
126.786
 11
2.31763
 21
127.133
  0
LINE
  8
0
 10
2.31763
 20
127.133
 11
1.40535
 21
127.367
  0
LINE
  8
0
 10
1.40535
 20
127.367
 11
0.470917
 21
127.485
  0
LINE
  8
0
 10
0.470917
 20
127.485
 11
-0.470917
 21
127.485
  0
LINE
  8
0
 10
-0.470917
 20
127.485
 11
-1.40535
 21
127.367
  0
LINE
  8
0
 10
-1.40535
 20
127.367
 11
-2.31763
 21
127.133
  0
LINE
  8
0
 10
-2.31763
 20
127.133
 11
-3.19334
 21
126.786
  0
LINE
  8
0
 10
-3.19334
 20
126.786
 11
-4.01869
 21
126.332
  0
LINE
  8
0
 10
-4.01869
 20
126.332
 11
-4.78067
 21
125.779
  0
LINE
  8
0
 10
-4.78067
 20
125.779
 11
-5.46725
 21
125.134
  0
LINE
  8
0
 10
-5.46725
 20
125.134
 11
-6
 21
124.49
  0
LINE
  8
0
 10
-6
 20
124.49
 11
-6
 21
126.153
  0
LINE
  8
0
 10
-6
 20
126.153
 11
-9
 21
126.153
  0
LINE
  8
0
 10
-9
 20
126.153
 11
-9
 21
113.847
  0
LINE
  8
0
 10
-9
 20
113.847
 11
-6
 21
113.847
  0
LINE
  8
0
 10
-6
 20
113.847
 11
-6
 21
115.51
  0
LINE
  8
0
 10
-6
 20
115.51
 11
-5.46725
 21
114.866
  0
LINE
  8
0
 10
-5.46725
 20
114.866
 11
-4.78067
 21
114.221
  0
LINE
  8
0
 10
-4.78067
 20
114.221
 11
-4.01869
 21
113.668
  0
LINE
  8
0
 10
-4.01869
 20
113.668
 11
-3.19334
 21
113.214
  0
LINE
  8
0
 10
-3.19334
 20
113.214
 11
-2.31763
 21
112.867
  0
LINE
  8
0
 10
-2.31763
 20
112.867
 11
-1.40535
 21
112.633
  0
LINE
  8
0
 10
-1.40535
 20
112.633
 11
-0.470917
 21
112.515
  0
LINE
  8
0
 10
-0.470917
 20
112.515
 11
0.470917
 21
112.515
  0
LINE
  8
0
 10
0.470917
 20
112.515
 11
1.40535
 21
112.633
  0
LINE
  8
0
 10
-0.134064
 20
117.869
 11
-0.400101
 21
117.903
  0
LINE
  8
0
 10
-0.400101
 20
117.903
 11
-0.659836
 21
117.969
  0
LINE
  8
0
 10
-0.659836
 20
117.969
 11
-0.909149
 21
118.068
  0
LINE
  8
0
 10
-0.909149
 20
118.068
 11
-1.14413
 21
118.197
  0
LINE
  8
0
 10
-1.14413
 20
118.197
 11
-1.36108
 21
118.355
  0
LINE
  8
0
 10
-1.36108
 20
118.355
 11
-1.55655
 21
118.538
  0
LINE
  8
0
 10
-1.55655
 20
118.538
 11
-1.72748
 21
118.745
  0
LINE
  8
0
 10
-1.72748
 20
118.745
 11
-1.87117
 21
118.971
  0
LINE
  8
0
 10
-1.87117
 20
118.971
 11
-1.98534
 21
119.214
  0
LINE
  8
0
 10
-1.98534
 20
119.214
 11
-2.06821
 21
119.469
  0
LINE
  8
0
 10
-2.06821
 20
119.469
 11
-2.11845
 21
119.732
  0
LINE
  8
0
 10
-2.11845
 20
119.732
 11
-2.13528
 21
120
  0
LINE
  8
0
 10
-2.13528
 20
120
 11
-2.11845
 21
120.268
  0
LINE
  8
0
 10
-2.11845
 20
120.268
 11
-2.06821
 21
120.531
  0
LINE
  8
0
 10
-2.06821
 20
120.531
 11
-1.98534
 21
120.786
  0
LINE
  8
0
 10
-1.98534
 20
120.786
 11
-1.87117
 21
121.029
  0
LINE
  8
0
 10
-1.87117
 20
121.029
 11
-1.72748
 21
121.255
  0
LINE
  8
0
 10
-1.72748
 20
121.255
 11
-1.55655
 21
121.462
  0
LINE
  8
0
 10
-1.55655
 20
121.462
 11
-1.36108
 21
121.645
  0
LINE
  8
0
 10
-1.36108
 20
121.645
 11
-1.14413
 21
121.803
  0
LINE
  8
0
 10
-1.14413
 20
121.803
 11
-0.909149
 21
121.932
  0
LINE
  8
0
 10
-0.909149
 20
121.932
 11
-0.659836
 21
122.031
  0
LINE
  8
0
 10
-0.659836
 20
122.031
 11
-0.400101
 21
122.097
  0
LINE
  8
0
 10
-0.400101
 20
122.097
 11
-0.134064
 21
122.131
  0
LINE
  8
0
 10
-0.134064
 20
122.131
 11
0.134064
 21
122.131
  0
LINE
  8
0
 10
0.134064
 20
122.131
 11
0.400101
 21
122.097
  0
LINE
  8
0
 10
0.400101
 20
122.097
 11
0.659836
 21
122.031
  0
LINE
  8
0
 10
0.659836
 20
122.031
 11
0.909149
 21
121.932
  0
LINE
  8
0
 10
0.909149
 20
121.932
 11
1.14413
 21
121.803
  0
LINE
  8
0
 10
1.14413
 20
121.803
 11
1.36108
 21
121.645
  0
LINE
  8
0
 10
1.36108
 20
121.645
 11
1.55655
 21
121.462
  0
LINE
  8
0
 10
1.55655
 20
121.462
 11
1.72748
 21
121.255
  0
LINE
  8
0
 10
1.72748
 20
121.255
 11
1.87117
 21
121.029
  0
LINE
  8
0
 10
1.87117
 20
121.029
 11
1.98534
 21
120.786
  0
LINE
  8
0
 10
1.98534
 20
120.786
 11
2.06821
 21
120.531
  0
LINE
  8
0
 10
2.06821
 20
120.531
 11
2.11845
 21
120.268
  0
LINE
  8
0
 10
2.11845
 20
120.268
 11
2.13528
 21
120
  0
LINE
  8
0
 10
2.13528
 20
120
 11
2.11845
 21
119.732
  0
LINE
  8
0
 10
2.11845
 20
119.732
 11
2.06821
 21
119.469
  0
LINE
  8
0
 10
2.06821
 20
119.469
 11
1.98534
 21
119.214
  0
LINE
  8
0
 10
1.98534
 20
119.214
 11
1.87117
 21
118.971
  0
LINE
  8
0
 10
1.87117
 20
118.971
 11
1.72748
 21
118.745
  0
LINE
  8
0
 10
1.72748
 20
118.745
 11
1.55655
 21
118.538
  0
LINE
  8
0
 10
1.55655
 20
118.538
 11
1.36108
 21
118.355
  0
LINE
  8
0
 10
1.36108
 20
118.355
 11
1.14413
 21
118.197
  0
LINE
  8
0
 10
1.14413
 20
118.197
 11
0.909149
 21
118.068
  0
LINE
  8
0
 10
0.909149
 20
118.068
 11
0.659836
 21
117.969
  0
LINE
  8
0
 10
0.659836
 20
117.969
 11
0.400101
 21
117.903
  0
LINE
  8
0
 10
0.400101
 20
117.903
 11
0.134064
 21
117.869
  0
LINE
  8
0
 10
0.134064
 20
117.869
 11
-0.134064
 21
117.869
  0
ENDSEC
  0
SECTION
  2
OBJECTS
  0
DICTIONARY
  0
ENDSEC
  0
EOF
