  0
SECTION
  2
BLOCKS
  0
ENDSEC
  0
SECTION
  2
ENTITIES
  0
LINE
  8
0
 10
10.9369
 20
1611.09
 11
11.5451
 21
1611.24
  0
LINE
  8
0
 10
11.5451
 20
1611.24
 11
12.1289
 21
1611.48
  0
LINE
  8
0
 10
12.1289
 20
1611.48
 11
12.6791
 21
1611.78
  0
LINE
  8
0
 10
12.6791
 20
1611.78
 11
13.1871
 21
1612.15
  0
LINE
  8
0
 10
13.1871
 20
1612.15
 11
13.6448
 21
1612.58
  0
LINE
  8
0
 10
13.6448
 20
1612.58
 11
14.0451
 21
1613.06
  0
LINE
  8
0
 10
14.0451
 20
1613.06
 11
14.3815
 21
1613.59
  0
LINE
  8
0
 10
14.3815
 20
1613.59
 11
14.6489
 21
1614.16
  0
LINE
  8
0
 10
14.6489
 20
1614.16
 11
14.8429
 21
1614.76
  0
LINE
  8
0
 10
14.8429
 20
1614.76
 11
14.9606
 21
1615.37
  0
LINE
  8
0
 10
14.9606
 20
1615.37
 11
15
 21
1616
  0
LINE
  8
0
 10
15
 20
1616
 11
15
 21
1786
  0
LINE
  8
0
 10
15
 20
1786
 11
14.9606
 21
1786.63
  0
LINE
  8
0
 10
14.9606
 20
1786.63
 11
14.8429
 21
1787.24
  0
LINE
  8
0
 10
14.8429
 20
1787.24
 11
14.6489
 21
1787.84
  0
LINE
  8
0
 10
14.6489
 20
1787.84
 11
14.3815
 21
1788.41
  0
LINE
  8
0
 10
14.3815
 20
1788.41
 11
14.0451
 21
1788.94
  0
LINE
  8
0
 10
14.0451
 20
1788.94
 11
13.6448
 21
1789.42
  0
LINE
  8
0
 10
13.6448
 20
1789.42
 11
13.1871
 21
1789.85
  0
LINE
  8
0
 10
13.1871
 20
1789.85
 11
12.6791
 21
1790.22
  0
LINE
  8
0
 10
12.6791
 20
1790.22
 11
12.1289
 21
1790.52
  0
LINE
  8
0
 10
12.1289
 20
1790.52
 11
11.5451
 21
1790.76
  0
LINE
  8
0
 10
11.5451
 20
1790.76
 11
10.9369
 21
1790.91
  0
LINE
  8
0
 10
10.9369
 20
1790.91
 11
10.3139
 21
1790.99
  0
LINE
  8
0
 10
10.3139
 20
1790.99
 11
-10.3139
 21
1790.99
  0
LINE
  8
0
 10
-10.3139
 20
1790.99
 11
-10.9369
 21
1790.91
  0
LINE
  8
0
 10
-10.9369
 20
1790.91
 11
-11.5451
 21
1790.76
  0
LINE
  8
0
 10
-11.5451
 20
1790.76
 11
-12.1289
 21
1790.52
  0
LINE
  8
0
 10
-12.1289
 20
1790.52
 11
-12.6791
 21
1790.22
  0
LINE
  8
0
 10
-12.6791
 20
1790.22
 11
-13.1871
 21
1789.85
  0
LINE
  8
0
 10
-13.1871
 20
1789.85
 11
-13.6448
 21
1789.42
  0
LINE
  8
0
 10
-13.6448
 20
1789.42
 11
-14.0451
 21
1788.94
  0
LINE
  8
0
 10
-14.0451
 20
1788.94
 11
-14.3815
 21
1788.41
  0
LINE
  8
0
 10
-14.3815
 20
1788.41
 11
-14.6489
 21
1787.84
  0
LINE
  8
0
 10
-14.6489
 20
1787.84
 11
-14.8429
 21
1787.24
  0
LINE
  8
0
 10
-14.8429
 20
1787.24
 11
-14.9606
 21
1786.63
  0
LINE
  8
0
 10
-14.9606
 20
1786.63
 11
-15
 21
1786
  0
LINE
  8
0
 10
-15
 20
1786
 11
-15
 21
1616
  0
LINE
  8
0
 10
-15
 20
1616
 11
-14.9606
 21
1615.37
  0
LINE
  8
0
 10
-14.9606
 20
1615.37
 11
-14.8429
 21
1614.76
  0
LINE
  8
0
 10
-14.8429
 20
1614.76
 11
-14.6489
 21
1614.16
  0
LINE
  8
0
 10
-14.6489
 20
1614.16
 11
-14.3815
 21
1613.59
  0
LINE
  8
0
 10
-14.3815
 20
1613.59
 11
-14.0451
 21
1613.06
  0
LINE
  8
0
 10
-14.0451
 20
1613.06
 11
-13.6448
 21
1612.58
  0
LINE
  8
0
 10
-13.6448
 20
1612.58
 11
-13.1871
 21
1612.15
  0
LINE
  8
0
 10
-13.1871
 20
1612.15
 11
-12.6791
 21
1611.78
  0
LINE
  8
0
 10
-12.6791
 20
1611.78
 11
-12.1289
 21
1611.48
  0
LINE
  8
0
 10
-12.1289
 20
1611.48
 11
-11.5451
 21
1611.24
  0
LINE
  8
0
 10
-11.5451
 20
1611.24
 11
-10.9369
 21
1611.09
  0
LINE
  8
0
 10
-10.9369
 20
1611.09
 11
-10.3139
 21
1611.01
  0
LINE
  8
0
 10
-10.3139
 20
1611.01
 11
10.3139
 21
1611.01
  0
LINE
  8
0
 10
10.3139
 20
1611.01
 11
10.9369
 21
1611.09
  0
LINE
  8
0
 10
-9.75116
 20
1612.51
 11
-10.2495
 21
1612.57
  0
LINE
  8
0
 10
-10.2495
 20
1612.57
 11
-10.7361
 21
1612.7
  0
LINE
  8
0
 10
-10.7361
 20
1612.7
 11
-11.2031
 21
1612.88
  0
LINE
  8
0
 10
-11.2031
 20
1612.88
 11
-11.6433
 21
1613.12
  0
LINE
  8
0
 10
-11.6433
 20
1613.12
 11
-12.0497
 21
1613.42
  0
LINE
  8
0
 10
-12.0497
 20
1613.42
 11
-12.4159
 21
1613.76
  0
LINE
  8
0
 10
-12.4159
 20
1613.76
 11
-12.7361
 21
1614.15
  0
LINE
  8
0
 10
-12.7361
 20
1614.15
 11
-13.0052
 21
1614.57
  0
LINE
  8
0
 10
-13.0052
 20
1614.57
 11
-13.2191
 21
1615.03
  0
LINE
  8
0
 10
-13.2191
 20
1615.03
 11
-13.3743
 21
1615.51
  0
LINE
  8
0
 10
-13.3743
 20
1615.51
 11
-13.4684
 21
1616
  0
LINE
  8
0
 10
-13.4684
 20
1616
 11
-13.5
 21
1616.5
  0
LINE
  8
0
 10
-13.5
 20
1616.5
 11
-13.5
 21
1785.5
  0
LINE
  8
0
 10
-13.5
 20
1785.5
 11
-13.4684
 21
1786
  0
LINE
  8
0
 10
-13.4684
 20
1786
 11
-13.3743
 21
1786.49
  0
LINE
  8
0
 10
-13.3743
 20
1786.49
 11
-13.2191
 21
1786.97
  0
LINE
  8
0
 10
-13.2191
 20
1786.97
 11
-13.0052
 21
1787.43
  0
LINE
  8
0
 10
-13.0052
 20
1787.43
 11
-12.7361
 21
1787.85
  0
LINE
  8
0
 10
-12.7361
 20
1787.85
 11
-12.4159
 21
1788.24
  0
LINE
  8
0
 10
-12.4159
 20
1788.24
 11
-12.0497
 21
1788.58
  0
LINE
  8
0
 10
-12.0497
 20
1788.58
 11
-11.6433
 21
1788.88
  0
LINE
  8
0
 10
-11.6433
 20
1788.88
 11
-11.2031
 21
1789.12
  0
LINE
  8
0
 10
-11.2031
 20
1789.12
 11
-10.7361
 21
1789.3
  0
LINE
  8
0
 10
-10.7361
 20
1789.3
 11
-10.2495
 21
1789.43
  0
LINE
  8
0
 10
-10.2495
 20
1789.43
 11
-9.75116
 21
1789.49
  0
LINE
  8
0
 10
-9.75116
 20
1789.49
 11
9.75116
 21
1789.49
  0
LINE
  8
0
 10
9.75116
 20
1789.49
 11
10.2495
 21
1789.43
  0
LINE
  8
0
 10
10.2495
 20
1789.43
 11
10.7361
 21
1789.3
  0
LINE
  8
0
 10
10.7361
 20
1789.3
 11
11.2031
 21
1789.12
  0
LINE
  8
0
 10
11.2031
 20
1789.12
 11
11.6433
 21
1788.88
  0
LINE
  8
0
 10
11.6433
 20
1788.88
 11
12.0497
 21
1788.58
  0
LINE
  8
0
 10
12.0497
 20
1788.58
 11
12.4159
 21
1788.24
  0
LINE
  8
0
 10
12.4159
 20
1788.24
 11
12.7361
 21
1787.85
  0
LINE
  8
0
 10
12.7361
 20
1787.85
 11
13.0052
 21
1787.43
  0
LINE
  8
0
 10
13.0052
 20
1787.43
 11
13.2191
 21
1786.97
  0
LINE
  8
0
 10
13.2191
 20
1786.97
 11
13.3743
 21
1786.49
  0
LINE
  8
0
 10
13.3743
 20
1786.49
 11
13.4684
 21
1786
  0
LINE
  8
0
 10
13.4684
 20
1786
 11
13.5
 21
1785.5
  0
LINE
  8
0
 10
13.5
 20
1785.5
 11
13.5
 21
1616.5
  0
LINE
  8
0
 10
13.5
 20
1616.5
 11
13.4684
 21
1616
  0
LINE
  8
0
 10
13.4684
 20
1616
 11
13.3743
 21
1615.51
  0
LINE
  8
0
 10
13.3743
 20
1615.51
 11
13.2191
 21
1615.03
  0
LINE
  8
0
 10
13.2191
 20
1615.03
 11
13.0052
 21
1614.57
  0
LINE
  8
0
 10
13.0052
 20
1614.57
 11
12.7361
 21
1614.15
  0
LINE
  8
0
 10
12.7361
 20
1614.15
 11
12.4159
 21
1613.76
  0
LINE
  8
0
 10
12.4159
 20
1613.76
 11
12.0497
 21
1613.42
  0
LINE
  8
0
 10
12.0497
 20
1613.42
 11
11.6433
 21
1613.12
  0
LINE
  8
0
 10
11.6433
 20
1613.12
 11
11.2031
 21
1612.88
  0
LINE
  8
0
 10
11.2031
 20
1612.88
 11
10.7361
 21
1612.7
  0
LINE
  8
0
 10
10.7361
 20
1612.7
 11
10.2495
 21
1612.57
  0
LINE
  8
0
 10
10.2495
 20
1612.57
 11
9.75116
 21
1612.51
  0
LINE
  8
0
 10
9.75116
 20
1612.51
 11
-9.75116
 21
1612.51
  0
LINE
  8
0
 10
10.9369
 20
1422.09
 11
11.5451
 21
1422.24
  0
LINE
  8
0
 10
11.5451
 20
1422.24
 11
12.1289
 21
1422.48
  0
LINE
  8
0
 10
12.1289
 20
1422.48
 11
12.6791
 21
1422.78
  0
LINE
  8
0
 10
12.6791
 20
1422.78
 11
13.1871
 21
1423.15
  0
LINE
  8
0
 10
13.1871
 20
1423.15
 11
13.6448
 21
1423.58
  0
LINE
  8
0
 10
13.6448
 20
1423.58
 11
14.0451
 21
1424.06
  0
LINE
  8
0
 10
14.0451
 20
1424.06
 11
14.3815
 21
1424.59
  0
LINE
  8
0
 10
14.3815
 20
1424.59
 11
14.6489
 21
1425.16
  0
LINE
  8
0
 10
14.6489
 20
1425.16
 11
14.8429
 21
1425.76
  0
LINE
  8
0
 10
14.8429
 20
1425.76
 11
14.9606
 21
1426.37
  0
LINE
  8
0
 10
14.9606
 20
1426.37
 11
15
 21
1427
  0
LINE
  8
0
 10
15
 20
1427
 11
15
 21
1597
  0
LINE
  8
0
 10
15
 20
1597
 11
14.9606
 21
1597.63
  0
LINE
  8
0
 10
14.9606
 20
1597.63
 11
14.8429
 21
1598.24
  0
LINE
  8
0
 10
14.8429
 20
1598.24
 11
14.6489
 21
1598.84
  0
LINE
  8
0
 10
14.6489
 20
1598.84
 11
14.3815
 21
1599.41
  0
LINE
  8
0
 10
14.3815
 20
1599.41
 11
14.0451
 21
1599.94
  0
LINE
  8
0
 10
14.0451
 20
1599.94
 11
13.6448
 21
1600.42
  0
LINE
  8
0
 10
13.6448
 20
1600.42
 11
13.1871
 21
1600.85
  0
LINE
  8
0
 10
13.1871
 20
1600.85
 11
12.6791
 21
1601.22
  0
LINE
  8
0
 10
12.6791
 20
1601.22
 11
12.1289
 21
1601.52
  0
LINE
  8
0
 10
12.1289
 20
1601.52
 11
11.5451
 21
1601.76
  0
LINE
  8
0
 10
11.5451
 20
1601.76
 11
10.9369
 21
1601.91
  0
LINE
  8
0
 10
10.9369
 20
1601.91
 11
10.3139
 21
1601.99
  0
LINE
  8
0
 10
10.3139
 20
1601.99
 11
-10.3139
 21
1601.99
  0
LINE
  8
0
 10
-10.3139
 20
1601.99
 11
-10.9369
 21
1601.91
  0
LINE
  8
0
 10
-10.9369
 20
1601.91
 11
-11.5451
 21
1601.76
  0
LINE
  8
0
 10
-11.5451
 20
1601.76
 11
-12.1289
 21
1601.52
  0
LINE
  8
0
 10
-12.1289
 20
1601.52
 11
-12.6791
 21
1601.22
  0
LINE
  8
0
 10
-12.6791
 20
1601.22
 11
-13.1871
 21
1600.85
  0
LINE
  8
0
 10
-13.1871
 20
1600.85
 11
-13.6448
 21
1600.42
  0
LINE
  8
0
 10
-13.6448
 20
1600.42
 11
-14.0451
 21
1599.94
  0
LINE
  8
0
 10
-14.0451
 20
1599.94
 11
-14.3815
 21
1599.41
  0
LINE
  8
0
 10
-14.3815
 20
1599.41
 11
-14.6489
 21
1598.84
  0
LINE
  8
0
 10
-14.6489
 20
1598.84
 11
-14.8429
 21
1598.24
  0
LINE
  8
0
 10
-14.8429
 20
1598.24
 11
-14.9606
 21
1597.63
  0
LINE
  8
0
 10
-14.9606
 20
1597.63
 11
-15
 21
1597
  0
LINE
  8
0
 10
-15
 20
1597
 11
-15
 21
1427
  0
LINE
  8
0
 10
-15
 20
1427
 11
-14.9606
 21
1426.37
  0
LINE
  8
0
 10
-14.9606
 20
1426.37
 11
-14.8429
 21
1425.76
  0
LINE
  8
0
 10
-14.8429
 20
1425.76
 11
-14.6489
 21
1425.16
  0
LINE
  8
0
 10
-14.6489
 20
1425.16
 11
-14.3815
 21
1424.59
  0
LINE
  8
0
 10
-14.3815
 20
1424.59
 11
-14.0451
 21
1424.06
  0
LINE
  8
0
 10
-14.0451
 20
1424.06
 11
-13.6448
 21
1423.58
  0
LINE
  8
0
 10
-13.6448
 20
1423.58
 11
-13.1871
 21
1423.15
  0
LINE
  8
0
 10
-13.1871
 20
1423.15
 11
-12.6791
 21
1422.78
  0
LINE
  8
0
 10
-12.6791
 20
1422.78
 11
-12.1289
 21
1422.48
  0
LINE
  8
0
 10
-12.1289
 20
1422.48
 11
-11.5451
 21
1422.24
  0
LINE
  8
0
 10
-11.5451
 20
1422.24
 11
-10.9369
 21
1422.09
  0
LINE
  8
0
 10
-10.9369
 20
1422.09
 11
-10.3139
 21
1422.01
  0
LINE
  8
0
 10
-10.3139
 20
1422.01
 11
10.3139
 21
1422.01
  0
LINE
  8
0
 10
10.3139
 20
1422.01
 11
10.9369
 21
1422.09
  0
LINE
  8
0
 10
-9.75116
 20
1423.51
 11
-10.2495
 21
1423.57
  0
LINE
  8
0
 10
-10.2495
 20
1423.57
 11
-10.7361
 21
1423.7
  0
LINE
  8
0
 10
-10.7361
 20
1423.7
 11
-11.2031
 21
1423.88
  0
LINE
  8
0
 10
-11.2031
 20
1423.88
 11
-11.6433
 21
1424.12
  0
LINE
  8
0
 10
-11.6433
 20
1424.12
 11
-12.0497
 21
1424.42
  0
LINE
  8
0
 10
-12.0497
 20
1424.42
 11
-12.4159
 21
1424.76
  0
LINE
  8
0
 10
-12.4159
 20
1424.76
 11
-12.7361
 21
1425.15
  0
LINE
  8
0
 10
-12.7361
 20
1425.15
 11
-13.0052
 21
1425.57
  0
LINE
  8
0
 10
-13.0052
 20
1425.57
 11
-13.2191
 21
1426.03
  0
LINE
  8
0
 10
-13.2191
 20
1426.03
 11
-13.3743
 21
1426.51
  0
LINE
  8
0
 10
-13.3743
 20
1426.51
 11
-13.4684
 21
1427
  0
LINE
  8
0
 10
-13.4684
 20
1427
 11
-13.5
 21
1427.5
  0
LINE
  8
0
 10
-13.5
 20
1427.5
 11
-13.5
 21
1596.5
  0
LINE
  8
0
 10
-13.5
 20
1596.5
 11
-13.4684
 21
1597
  0
LINE
  8
0
 10
-13.4684
 20
1597
 11
-13.3743
 21
1597.49
  0
LINE
  8
0
 10
-13.3743
 20
1597.49
 11
-13.2191
 21
1597.97
  0
LINE
  8
0
 10
-13.2191
 20
1597.97
 11
-13.0052
 21
1598.43
  0
LINE
  8
0
 10
-13.0052
 20
1598.43
 11
-12.7361
 21
1598.85
  0
LINE
  8
0
 10
-12.7361
 20
1598.85
 11
-12.4159
 21
1599.24
  0
LINE
  8
0
 10
-12.4159
 20
1599.24
 11
-12.0497
 21
1599.58
  0
LINE
  8
0
 10
-12.0497
 20
1599.58
 11
-11.6433
 21
1599.88
  0
LINE
  8
0
 10
-11.6433
 20
1599.88
 11
-11.2031
 21
1600.12
  0
LINE
  8
0
 10
-11.2031
 20
1600.12
 11
-10.7361
 21
1600.3
  0
LINE
  8
0
 10
-10.7361
 20
1600.3
 11
-10.2495
 21
1600.43
  0
LINE
  8
0
 10
-10.2495
 20
1600.43
 11
-9.75116
 21
1600.49
  0
LINE
  8
0
 10
-9.75116
 20
1600.49
 11
9.75116
 21
1600.49
  0
LINE
  8
0
 10
9.75116
 20
1600.49
 11
10.2495
 21
1600.43
  0
LINE
  8
0
 10
10.2495
 20
1600.43
 11
10.7361
 21
1600.3
  0
LINE
  8
0
 10
10.7361
 20
1600.3
 11
11.2031
 21
1600.12
  0
LINE
  8
0
 10
11.2031
 20
1600.12
 11
11.6433
 21
1599.88
  0
LINE
  8
0
 10
11.6433
 20
1599.88
 11
12.0497
 21
1599.58
  0
LINE
  8
0
 10
12.0497
 20
1599.58
 11
12.4159
 21
1599.24
  0
LINE
  8
0
 10
12.4159
 20
1599.24
 11
12.7361
 21
1598.85
  0
LINE
  8
0
 10
12.7361
 20
1598.85
 11
13.0052
 21
1598.43
  0
LINE
  8
0
 10
13.0052
 20
1598.43
 11
13.2191
 21
1597.97
  0
LINE
  8
0
 10
13.2191
 20
1597.97
 11
13.3743
 21
1597.49
  0
LINE
  8
0
 10
13.3743
 20
1597.49
 11
13.4684
 21
1597
  0
LINE
  8
0
 10
13.4684
 20
1597
 11
13.5
 21
1596.5
  0
LINE
  8
0
 10
13.5
 20
1596.5
 11
13.5
 21
1427.5
  0
LINE
  8
0
 10
13.5
 20
1427.5
 11
13.4684
 21
1427
  0
LINE
  8
0
 10
13.4684
 20
1427
 11
13.3743
 21
1426.51
  0
LINE
  8
0
 10
13.3743
 20
1426.51
 11
13.2191
 21
1426.03
  0
LINE
  8
0
 10
13.2191
 20
1426.03
 11
13.0052
 21
1425.57
  0
LINE
  8
0
 10
13.0052
 20
1425.57
 11
12.7361
 21
1425.15
  0
LINE
  8
0
 10
12.7361
 20
1425.15
 11
12.4159
 21
1424.76
  0
LINE
  8
0
 10
12.4159
 20
1424.76
 11
12.0497
 21
1424.42
  0
LINE
  8
0
 10
12.0497
 20
1424.42
 11
11.6433
 21
1424.12
  0
LINE
  8
0
 10
11.6433
 20
1424.12
 11
11.2031
 21
1423.88
  0
LINE
  8
0
 10
11.2031
 20
1423.88
 11
10.7361
 21
1423.7
  0
LINE
  8
0
 10
10.7361
 20
1423.7
 11
10.2495
 21
1423.57
  0
LINE
  8
0
 10
10.2495
 20
1423.57
 11
9.75116
 21
1423.51
  0
LINE
  8
0
 10
9.75116
 20
1423.51
 11
-9.75116
 21
1423.51
  0
LINE
  8
0
 10
10.9369
 20
1233.09
 11
11.5451
 21
1233.24
  0
LINE
  8
0
 10
11.5451
 20
1233.24
 11
12.1289
 21
1233.48
  0
LINE
  8
0
 10
12.1289
 20
1233.48
 11
12.6791
 21
1233.78
  0
LINE
  8
0
 10
12.6791
 20
1233.78
 11
13.1871
 21
1234.15
  0
LINE
  8
0
 10
13.1871
 20
1234.15
 11
13.6448
 21
1234.58
  0
LINE
  8
0
 10
13.6448
 20
1234.58
 11
14.0451
 21
1235.06
  0
LINE
  8
0
 10
14.0451
 20
1235.06
 11
14.3815
 21
1235.59
  0
LINE
  8
0
 10
14.3815
 20
1235.59
 11
14.6489
 21
1236.16
  0
LINE
  8
0
 10
14.6489
 20
1236.16
 11
14.8429
 21
1236.76
  0
LINE
  8
0
 10
14.8429
 20
1236.76
 11
14.9606
 21
1237.37
  0
LINE
  8
0
 10
14.9606
 20
1237.37
 11
15
 21
1238
  0
LINE
  8
0
 10
15
 20
1238
 11
15
 21
1408
  0
LINE
  8
0
 10
15
 20
1408
 11
14.9606
 21
1408.63
  0
LINE
  8
0
 10
14.9606
 20
1408.63
 11
14.8429
 21
1409.24
  0
LINE
  8
0
 10
14.8429
 20
1409.24
 11
14.6489
 21
1409.84
  0
LINE
  8
0
 10
14.6489
 20
1409.84
 11
14.3815
 21
1410.41
  0
LINE
  8
0
 10
14.3815
 20
1410.41
 11
14.0451
 21
1410.94
  0
LINE
  8
0
 10
14.0451
 20
1410.94
 11
13.6448
 21
1411.42
  0
LINE
  8
0
 10
13.6448
 20
1411.42
 11
13.1871
 21
1411.85
  0
LINE
  8
0
 10
13.1871
 20
1411.85
 11
12.6791
 21
1412.22
  0
LINE
  8
0
 10
12.6791
 20
1412.22
 11
12.1289
 21
1412.52
  0
LINE
  8
0
 10
12.1289
 20
1412.52
 11
11.5451
 21
1412.76
  0
LINE
  8
0
 10
11.5451
 20
1412.76
 11
10.9369
 21
1412.91
  0
LINE
  8
0
 10
10.9369
 20
1412.91
 11
10.3139
 21
1412.99
  0
LINE
  8
0
 10
10.3139
 20
1412.99
 11
-10.3139
 21
1412.99
  0
LINE
  8
0
 10
-10.3139
 20
1412.99
 11
-10.9369
 21
1412.91
  0
LINE
  8
0
 10
-10.9369
 20
1412.91
 11
-11.5451
 21
1412.76
  0
LINE
  8
0
 10
-11.5451
 20
1412.76
 11
-12.1289
 21
1412.52
  0
LINE
  8
0
 10
-12.1289
 20
1412.52
 11
-12.6791
 21
1412.22
  0
LINE
  8
0
 10
-12.6791
 20
1412.22
 11
-13.1871
 21
1411.85
  0
LINE
  8
0
 10
-13.1871
 20
1411.85
 11
-13.6448
 21
1411.42
  0
LINE
  8
0
 10
-13.6448
 20
1411.42
 11
-14.0451
 21
1410.94
  0
LINE
  8
0
 10
-14.0451
 20
1410.94
 11
-14.3815
 21
1410.41
  0
LINE
  8
0
 10
-14.3815
 20
1410.41
 11
-14.6489
 21
1409.84
  0
LINE
  8
0
 10
-14.6489
 20
1409.84
 11
-14.8429
 21
1409.24
  0
LINE
  8
0
 10
-14.8429
 20
1409.24
 11
-14.9606
 21
1408.63
  0
LINE
  8
0
 10
-14.9606
 20
1408.63
 11
-15
 21
1408
  0
LINE
  8
0
 10
-15
 20
1408
 11
-15
 21
1238
  0
LINE
  8
0
 10
-15
 20
1238
 11
-14.9606
 21
1237.37
  0
LINE
  8
0
 10
-14.9606
 20
1237.37
 11
-14.8429
 21
1236.76
  0
LINE
  8
0
 10
-14.8429
 20
1236.76
 11
-14.6489
 21
1236.16
  0
LINE
  8
0
 10
-14.6489
 20
1236.16
 11
-14.3815
 21
1235.59
  0
LINE
  8
0
 10
-14.3815
 20
1235.59
 11
-14.0451
 21
1235.06
  0
LINE
  8
0
 10
-14.0451
 20
1235.06
 11
-13.6448
 21
1234.58
  0
LINE
  8
0
 10
-13.6448
 20
1234.58
 11
-13.1871
 21
1234.15
  0
LINE
  8
0
 10
-13.1871
 20
1234.15
 11
-12.6791
 21
1233.78
  0
LINE
  8
0
 10
-12.6791
 20
1233.78
 11
-12.1289
 21
1233.48
  0
LINE
  8
0
 10
-12.1289
 20
1233.48
 11
-11.5451
 21
1233.24
  0
LINE
  8
0
 10
-11.5451
 20
1233.24
 11
-10.9369
 21
1233.09
  0
LINE
  8
0
 10
-10.9369
 20
1233.09
 11
-10.3139
 21
1233.01
  0
LINE
  8
0
 10
-10.3139
 20
1233.01
 11
10.3139
 21
1233.01
  0
LINE
  8
0
 10
10.3139
 20
1233.01
 11
10.9369
 21
1233.09
  0
LINE
  8
0
 10
-9.75116
 20
1234.51
 11
-10.2495
 21
1234.57
  0
LINE
  8
0
 10
-10.2495
 20
1234.57
 11
-10.7361
 21
1234.7
  0
LINE
  8
0
 10
-10.7361
 20
1234.7
 11
-11.2031
 21
1234.88
  0
LINE
  8
0
 10
-11.2031
 20
1234.88
 11
-11.6433
 21
1235.12
  0
LINE
  8
0
 10
-11.6433
 20
1235.12
 11
-12.0497
 21
1235.42
  0
LINE
  8
0
 10
-12.0497
 20
1235.42
 11
-12.4159
 21
1235.76
  0
LINE
  8
0
 10
-12.4159
 20
1235.76
 11
-12.7361
 21
1236.15
  0
LINE
  8
0
 10
-12.7361
 20
1236.15
 11
-13.0052
 21
1236.57
  0
LINE
  8
0
 10
-13.0052
 20
1236.57
 11
-13.2191
 21
1237.03
  0
LINE
  8
0
 10
-13.2191
 20
1237.03
 11
-13.3743
 21
1237.51
  0
LINE
  8
0
 10
-13.3743
 20
1237.51
 11
-13.4684
 21
1238
  0
LINE
  8
0
 10
-13.4684
 20
1238
 11
-13.5
 21
1238.5
  0
LINE
  8
0
 10
-13.5
 20
1238.5
 11
-13.5
 21
1407.5
  0
LINE
  8
0
 10
-13.5
 20
1407.5
 11
-13.4684
 21
1408
  0
LINE
  8
0
 10
-13.4684
 20
1408
 11
-13.3743
 21
1408.49
  0
LINE
  8
0
 10
-13.3743
 20
1408.49
 11
-13.2191
 21
1408.97
  0
LINE
  8
0
 10
-13.2191
 20
1408.97
 11
-13.0052
 21
1409.43
  0
LINE
  8
0
 10
-13.0052
 20
1409.43
 11
-12.7361
 21
1409.85
  0
LINE
  8
0
 10
-12.7361
 20
1409.85
 11
-12.4159
 21
1410.24
  0
LINE
  8
0
 10
-12.4159
 20
1410.24
 11
-12.0497
 21
1410.58
  0
LINE
  8
0
 10
-12.0497
 20
1410.58
 11
-11.6433
 21
1410.88
  0
LINE
  8
0
 10
-11.6433
 20
1410.88
 11
-11.2031
 21
1411.12
  0
LINE
  8
0
 10
-11.2031
 20
1411.12
 11
-10.7361
 21
1411.3
  0
LINE
  8
0
 10
-10.7361
 20
1411.3
 11
-10.2495
 21
1411.43
  0
LINE
  8
0
 10
-10.2495
 20
1411.43
 11
-9.75116
 21
1411.49
  0
LINE
  8
0
 10
-9.75116
 20
1411.49
 11
9.75116
 21
1411.49
  0
LINE
  8
0
 10
9.75116
 20
1411.49
 11
10.2495
 21
1411.43
  0
LINE
  8
0
 10
10.2495
 20
1411.43
 11
10.7361
 21
1411.3
  0
LINE
  8
0
 10
10.7361
 20
1411.3
 11
11.2031
 21
1411.12
  0
LINE
  8
0
 10
11.2031
 20
1411.12
 11
11.6433
 21
1410.88
  0
LINE
  8
0
 10
11.6433
 20
1410.88
 11
12.0497
 21
1410.58
  0
LINE
  8
0
 10
12.0497
 20
1410.58
 11
12.4159
 21
1410.24
  0
LINE
  8
0
 10
12.4159
 20
1410.24
 11
12.7361
 21
1409.85
  0
LINE
  8
0
 10
12.7361
 20
1409.85
 11
13.0052
 21
1409.43
  0
LINE
  8
0
 10
13.0052
 20
1409.43
 11
13.2191
 21
1408.97
  0
LINE
  8
0
 10
13.2191
 20
1408.97
 11
13.3743
 21
1408.49
  0
LINE
  8
0
 10
13.3743
 20
1408.49
 11
13.4684
 21
1408
  0
LINE
  8
0
 10
13.4684
 20
1408
 11
13.5
 21
1407.5
  0
LINE
  8
0
 10
13.5
 20
1407.5
 11
13.5
 21
1238.5
  0
LINE
  8
0
 10
13.5
 20
1238.5
 11
13.4684
 21
1238
  0
LINE
  8
0
 10
13.4684
 20
1238
 11
13.3743
 21
1237.51
  0
LINE
  8
0
 10
13.3743
 20
1237.51
 11
13.2191
 21
1237.03
  0
LINE
  8
0
 10
13.2191
 20
1237.03
 11
13.0052
 21
1236.57
  0
LINE
  8
0
 10
13.0052
 20
1236.57
 11
12.7361
 21
1236.15
  0
LINE
  8
0
 10
12.7361
 20
1236.15
 11
12.4159
 21
1235.76
  0
LINE
  8
0
 10
12.4159
 20
1235.76
 11
12.0497
 21
1235.42
  0
LINE
  8
0
 10
12.0497
 20
1235.42
 11
11.6433
 21
1235.12
  0
LINE
  8
0
 10
11.6433
 20
1235.12
 11
11.2031
 21
1234.88
  0
LINE
  8
0
 10
11.2031
 20
1234.88
 11
10.7361
 21
1234.7
  0
LINE
  8
0
 10
10.7361
 20
1234.7
 11
10.2495
 21
1234.57
  0
LINE
  8
0
 10
10.2495
 20
1234.57
 11
9.75116
 21
1234.51
  0
LINE
  8
0
 10
9.75116
 20
1234.51
 11
-9.75116
 21
1234.51
  0
LINE
  8
0
 10
10.9369
 20
1044.09
 11
11.5451
 21
1044.24
  0
LINE
  8
0
 10
11.5451
 20
1044.24
 11
12.1289
 21
1044.48
  0
LINE
  8
0
 10
12.1289
 20
1044.48
 11
12.6791
 21
1044.78
  0
LINE
  8
0
 10
12.6791
 20
1044.78
 11
13.1871
 21
1045.15
  0
LINE
  8
0
 10
13.1871
 20
1045.15
 11
13.6448
 21
1045.58
  0
LINE
  8
0
 10
13.6448
 20
1045.58
 11
14.0451
 21
1046.06
  0
LINE
  8
0
 10
14.0451
 20
1046.06
 11
14.3815
 21
1046.59
  0
LINE
  8
0
 10
14.3815
 20
1046.59
 11
14.6489
 21
1047.16
  0
LINE
  8
0
 10
14.6489
 20
1047.16
 11
14.8429
 21
1047.76
  0
LINE
  8
0
 10
14.8429
 20
1047.76
 11
14.9606
 21
1048.37
  0
LINE
  8
0
 10
14.9606
 20
1048.37
 11
15
 21
1049
  0
LINE
  8
0
 10
15
 20
1049
 11
15
 21
1219
  0
LINE
  8
0
 10
15
 20
1219
 11
14.9606
 21
1219.63
  0
LINE
  8
0
 10
14.9606
 20
1219.63
 11
14.8429
 21
1220.24
  0
LINE
  8
0
 10
14.8429
 20
1220.24
 11
14.6489
 21
1220.84
  0
LINE
  8
0
 10
14.6489
 20
1220.84
 11
14.3815
 21
1221.41
  0
LINE
  8
0
 10
14.3815
 20
1221.41
 11
14.0451
 21
1221.94
  0
LINE
  8
0
 10
14.0451
 20
1221.94
 11
13.6448
 21
1222.42
  0
LINE
  8
0
 10
13.6448
 20
1222.42
 11
13.1871
 21
1222.85
  0
LINE
  8
0
 10
13.1871
 20
1222.85
 11
12.6791
 21
1223.22
  0
LINE
  8
0
 10
12.6791
 20
1223.22
 11
12.1289
 21
1223.52
  0
LINE
  8
0
 10
12.1289
 20
1223.52
 11
11.5451
 21
1223.76
  0
LINE
  8
0
 10
11.5451
 20
1223.76
 11
10.9369
 21
1223.91
  0
LINE
  8
0
 10
10.9369
 20
1223.91
 11
10.3139
 21
1223.99
  0
LINE
  8
0
 10
10.3139
 20
1223.99
 11
-10.3139
 21
1223.99
  0
LINE
  8
0
 10
-10.3139
 20
1223.99
 11
-10.9369
 21
1223.91
  0
LINE
  8
0
 10
-10.9369
 20
1223.91
 11
-11.5451
 21
1223.76
  0
LINE
  8
0
 10
-11.5451
 20
1223.76
 11
-12.1289
 21
1223.52
  0
LINE
  8
0
 10
-12.1289
 20
1223.52
 11
-12.6791
 21
1223.22
  0
LINE
  8
0
 10
-12.6791
 20
1223.22
 11
-13.1871
 21
1222.85
  0
LINE
  8
0
 10
-13.1871
 20
1222.85
 11
-13.6448
 21
1222.42
  0
LINE
  8
0
 10
-13.6448
 20
1222.42
 11
-14.0451
 21
1221.94
  0
LINE
  8
0
 10
-14.0451
 20
1221.94
 11
-14.3815
 21
1221.41
  0
LINE
  8
0
 10
-14.3815
 20
1221.41
 11
-14.6489
 21
1220.84
  0
LINE
  8
0
 10
-14.6489
 20
1220.84
 11
-14.8429
 21
1220.24
  0
LINE
  8
0
 10
-14.8429
 20
1220.24
 11
-14.9606
 21
1219.63
  0
LINE
  8
0
 10
-14.9606
 20
1219.63
 11
-15
 21
1219
  0
LINE
  8
0
 10
-15
 20
1219
 11
-15
 21
1049
  0
LINE
  8
0
 10
-15
 20
1049
 11
-14.9606
 21
1048.37
  0
LINE
  8
0
 10
-14.9606
 20
1048.37
 11
-14.8429
 21
1047.76
  0
LINE
  8
0
 10
-14.8429
 20
1047.76
 11
-14.6489
 21
1047.16
  0
LINE
  8
0
 10
-14.6489
 20
1047.16
 11
-14.3815
 21
1046.59
  0
LINE
  8
0
 10
-14.3815
 20
1046.59
 11
-14.0451
 21
1046.06
  0
LINE
  8
0
 10
-14.0451
 20
1046.06
 11
-13.6448
 21
1045.58
  0
LINE
  8
0
 10
-13.6448
 20
1045.58
 11
-13.1871
 21
1045.15
  0
LINE
  8
0
 10
-13.1871
 20
1045.15
 11
-12.6791
 21
1044.78
  0
LINE
  8
0
 10
-12.6791
 20
1044.78
 11
-12.1289
 21
1044.48
  0
LINE
  8
0
 10
-12.1289
 20
1044.48
 11
-11.5451
 21
1044.24
  0
LINE
  8
0
 10
-11.5451
 20
1044.24
 11
-10.9369
 21
1044.09
  0
LINE
  8
0
 10
-10.9369
 20
1044.09
 11
-10.3139
 21
1044.01
  0
LINE
  8
0
 10
-10.3139
 20
1044.01
 11
10.3139
 21
1044.01
  0
LINE
  8
0
 10
10.3139
 20
1044.01
 11
10.9369
 21
1044.09
  0
LINE
  8
0
 10
-9.69545
 20
1046.39
 11
-10.0833
 21
1046.44
  0
LINE
  8
0
 10
-10.0833
 20
1046.44
 11
-10.4619
 21
1046.54
  0
LINE
  8
0
 10
-10.4619
 20
1046.54
 11
-10.8254
 21
1046.68
  0
LINE
  8
0
 10
-10.8254
 20
1046.68
 11
-11.168
 21
1046.87
  0
LINE
  8
0
 10
-11.168
 20
1046.87
 11
-11.4842
 21
1047.1
  0
LINE
  8
0
 10
-11.4842
 20
1047.1
 11
-11.7692
 21
1047.37
  0
LINE
  8
0
 10
-11.7692
 20
1047.37
 11
-12.0184
 21
1047.67
  0
LINE
  8
0
 10
-12.0184
 20
1047.67
 11
-12.2279
 21
1048
  0
LINE
  8
0
 10
-12.2279
 20
1048
 11
-12.3943
 21
1048.35
  0
LINE
  8
0
 10
-12.3943
 20
1048.35
 11
-12.5151
 21
1048.73
  0
LINE
  8
0
 10
-12.5151
 20
1048.73
 11
-12.5884
 21
1049.11
  0
LINE
  8
0
 10
-12.5884
 20
1049.11
 11
-12.6129
 21
1049.5
  0
LINE
  8
0
 10
-12.6129
 20
1049.5
 11
-12.6129
 21
1218.5
  0
LINE
  8
0
 10
-12.6129
 20
1218.5
 11
-12.5884
 21
1218.89
  0
LINE
  8
0
 10
-12.5884
 20
1218.89
 11
-12.5151
 21
1219.27
  0
LINE
  8
0
 10
-12.5151
 20
1219.27
 11
-12.3943
 21
1219.65
  0
LINE
  8
0
 10
-12.3943
 20
1219.65
 11
-12.2279
 21
1220
  0
LINE
  8
0
 10
-12.2279
 20
1220
 11
-12.0184
 21
1220.33
  0
LINE
  8
0
 10
-12.0184
 20
1220.33
 11
-11.7692
 21
1220.63
  0
LINE
  8
0
 10
-11.7692
 20
1220.63
 11
-11.4842
 21
1220.9
  0
LINE
  8
0
 10
-11.4842
 20
1220.9
 11
-11.168
 21
1221.13
  0
LINE
  8
0
 10
-11.168
 20
1221.13
 11
-10.8254
 21
1221.32
  0
LINE
  8
0
 10
-10.8254
 20
1221.32
 11
-10.4619
 21
1221.46
  0
LINE
  8
0
 10
-10.4619
 20
1221.46
 11
-10.0833
 21
1221.56
  0
LINE
  8
0
 10
-10.0833
 20
1221.56
 11
-9.69545
 21
1221.61
  0
LINE
  8
0
 10
-9.69545
 20
1221.61
 11
9.69545
 21
1221.61
  0
LINE
  8
0
 10
9.69545
 20
1221.61
 11
10.0833
 21
1221.56
  0
LINE
  8
0
 10
10.0833
 20
1221.56
 11
10.4619
 21
1221.46
  0
LINE
  8
0
 10
10.4619
 20
1221.46
 11
10.8254
 21
1221.32
  0
LINE
  8
0
 10
10.8254
 20
1221.32
 11
11.168
 21
1221.13
  0
LINE
  8
0
 10
11.168
 20
1221.13
 11
11.4842
 21
1220.9
  0
LINE
  8
0
 10
11.4842
 20
1220.9
 11
11.7692
 21
1220.63
  0
LINE
  8
0
 10
11.7692
 20
1220.63
 11
12.0184
 21
1220.33
  0
LINE
  8
0
 10
12.0184
 20
1220.33
 11
12.2279
 21
1220
  0
LINE
  8
0
 10
12.2279
 20
1220
 11
12.3943
 21
1219.65
  0
LINE
  8
0
 10
12.3943
 20
1219.65
 11
12.5151
 21
1219.27
  0
LINE
  8
0
 10
12.5151
 20
1219.27
 11
12.5884
 21
1218.89
  0
LINE
  8
0
 10
12.5884
 20
1218.89
 11
12.6129
 21
1218.5
  0
LINE
  8
0
 10
12.6129
 20
1218.5
 11
12.6129
 21
1049.5
  0
LINE
  8
0
 10
12.6129
 20
1049.5
 11
12.5884
 21
1049.11
  0
LINE
  8
0
 10
12.5884
 20
1049.11
 11
12.5151
 21
1048.73
  0
LINE
  8
0
 10
12.5151
 20
1048.73
 11
12.3943
 21
1048.35
  0
LINE
  8
0
 10
12.3943
 20
1048.35
 11
12.2279
 21
1048
  0
LINE
  8
0
 10
12.2279
 20
1048
 11
12.0184
 21
1047.67
  0
LINE
  8
0
 10
12.0184
 20
1047.67
 11
11.7692
 21
1047.37
  0
LINE
  8
0
 10
11.7692
 20
1047.37
 11
11.4842
 21
1047.1
  0
LINE
  8
0
 10
11.4842
 20
1047.1
 11
11.168
 21
1046.87
  0
LINE
  8
0
 10
11.168
 20
1046.87
 11
10.8254
 21
1046.68
  0
LINE
  8
0
 10
10.8254
 20
1046.68
 11
10.4619
 21
1046.54
  0
LINE
  8
0
 10
10.4619
 20
1046.54
 11
10.0833
 21
1046.44
  0
LINE
  8
0
 10
10.0833
 20
1046.44
 11
9.69545
 21
1046.39
  0
LINE
  8
0
 10
9.69545
 20
1046.39
 11
-9.69545
 21
1046.39
  0
LINE
  8
0
 10
10.9369
 20
855.089
 11
11.5451
 21
855.245
  0
LINE
  8
0
 10
11.5451
 20
855.245
 11
12.1289
 21
855.476
  0
LINE
  8
0
 10
12.1289
 20
855.476
 11
12.6791
 21
855.778
  0
LINE
  8
0
 10
12.6791
 20
855.778
 11
13.1871
 21
856.147
  0
LINE
  8
0
 10
13.1871
 20
856.147
 11
13.6448
 21
856.577
  0
LINE
  8
0
 10
13.6448
 20
856.577
 11
14.0451
 21
857.061
  0
LINE
  8
0
 10
14.0451
 20
857.061
 11
14.3815
 21
857.591
  0
LINE
  8
0
 10
14.3815
 20
857.591
 11
14.6489
 21
858.159
  0
LINE
  8
0
 10
14.6489
 20
858.159
 11
14.8429
 21
858.757
  0
LINE
  8
0
 10
14.8429
 20
858.757
 11
14.9606
 21
859.373
  0
LINE
  8
0
 10
14.9606
 20
859.373
 11
15
 21
860
  0
LINE
  8
0
 10
15
 20
860
 11
15
 21
1030
  0
LINE
  8
0
 10
15
 20
1030
 11
14.9606
 21
1030.63
  0
LINE
  8
0
 10
14.9606
 20
1030.63
 11
14.8429
 21
1031.24
  0
LINE
  8
0
 10
14.8429
 20
1031.24
 11
14.6489
 21
1031.84
  0
LINE
  8
0
 10
14.6489
 20
1031.84
 11
14.3815
 21
1032.41
  0
LINE
  8
0
 10
14.3815
 20
1032.41
 11
14.0451
 21
1032.94
  0
LINE
  8
0
 10
14.0451
 20
1032.94
 11
13.6448
 21
1033.42
  0
LINE
  8
0
 10
13.6448
 20
1033.42
 11
13.1871
 21
1033.85
  0
LINE
  8
0
 10
13.1871
 20
1033.85
 11
12.6791
 21
1034.22
  0
LINE
  8
0
 10
12.6791
 20
1034.22
 11
12.1289
 21
1034.52
  0
LINE
  8
0
 10
12.1289
 20
1034.52
 11
11.5451
 21
1034.76
  0
LINE
  8
0
 10
11.5451
 20
1034.76
 11
10.9369
 21
1034.91
  0
LINE
  8
0
 10
10.9369
 20
1034.91
 11
10.3139
 21
1034.99
  0
LINE
  8
0
 10
10.3139
 20
1034.99
 11
-10.3139
 21
1034.99
  0
LINE
  8
0
 10
-10.3139
 20
1034.99
 11
-10.9369
 21
1034.91
  0
LINE
  8
0
 10
-10.9369
 20
1034.91
 11
-11.5451
 21
1034.76
  0
LINE
  8
0
 10
-11.5451
 20
1034.76
 11
-12.1289
 21
1034.52
  0
LINE
  8
0
 10
-12.1289
 20
1034.52
 11
-12.6791
 21
1034.22
  0
LINE
  8
0
 10
-12.6791
 20
1034.22
 11
-13.1871
 21
1033.85
  0
LINE
  8
0
 10
-13.1871
 20
1033.85
 11
-13.6448
 21
1033.42
  0
LINE
  8
0
 10
-13.6448
 20
1033.42
 11
-14.0451
 21
1032.94
  0
LINE
  8
0
 10
-14.0451
 20
1032.94
 11
-14.3815
 21
1032.41
  0
LINE
  8
0
 10
-14.3815
 20
1032.41
 11
-14.6489
 21
1031.84
  0
LINE
  8
0
 10
-14.6489
 20
1031.84
 11
-14.8429
 21
1031.24
  0
LINE
  8
0
 10
-14.8429
 20
1031.24
 11
-14.9606
 21
1030.63
  0
LINE
  8
0
 10
-14.9606
 20
1030.63
 11
-15
 21
1030
  0
LINE
  8
0
 10
-15
 20
1030
 11
-15
 21
860
  0
LINE
  8
0
 10
-15
 20
860
 11
-14.9606
 21
859.373
  0
LINE
  8
0
 10
-14.9606
 20
859.373
 11
-14.8429
 21
858.757
  0
LINE
  8
0
 10
-14.8429
 20
858.757
 11
-14.6489
 21
858.159
  0
LINE
  8
0
 10
-14.6489
 20
858.159
 11
-14.3815
 21
857.591
  0
LINE
  8
0
 10
-14.3815
 20
857.591
 11
-14.0451
 21
857.061
  0
LINE
  8
0
 10
-14.0451
 20
857.061
 11
-13.6448
 21
856.577
  0
LINE
  8
0
 10
-13.6448
 20
856.577
 11
-13.1871
 21
856.147
  0
LINE
  8
0
 10
-13.1871
 20
856.147
 11
-12.6791
 21
855.778
  0
LINE
  8
0
 10
-12.6791
 20
855.778
 11
-12.1289
 21
855.476
  0
LINE
  8
0
 10
-12.1289
 20
855.476
 11
-11.5451
 21
855.245
  0
LINE
  8
0
 10
-11.5451
 20
855.245
 11
-10.9369
 21
855.089
  0
LINE
  8
0
 10
-10.9369
 20
855.089
 11
-10.3139
 21
855.01
  0
LINE
  8
0
 10
-10.3139
 20
855.01
 11
10.3139
 21
855.01
  0
LINE
  8
0
 10
10.3139
 20
855.01
 11
10.9369
 21
855.089
  0
LINE
  8
0
 10
7.36592
 20
1025.37
 11
7.09988
 21
1025.4
  0
LINE
  8
0
 10
7.09988
 20
1025.4
 11
6.84015
 21
1025.47
  0
LINE
  8
0
 10
6.84015
 20
1025.47
 11
6.59084
 21
1025.57
  0
LINE
  8
0
 10
6.59084
 20
1025.57
 11
6.35585
 21
1025.7
  0
LINE
  8
0
 10
6.35585
 20
1025.7
 11
6.1389
 21
1025.85
  0
LINE
  8
0
 10
6.1389
 20
1025.85
 11
5.94344
 21
1026.04
  0
LINE
  8
0
 10
5.94344
 20
1026.04
 11
5.77251
 21
1026.24
  0
LINE
  8
0
 10
5.77251
 20
1026.24
 11
5.62881
 21
1026.47
  0
LINE
  8
0
 10
5.62881
 20
1026.47
 11
5.51465
 21
1026.71
  0
LINE
  8
0
 10
5.51465
 20
1026.71
 11
5.43178
 21
1026.97
  0
LINE
  8
0
 10
5.43178
 20
1026.97
 11
5.38153
 21
1027.23
  0
LINE
  8
0
 10
5.38153
 20
1027.23
 11
5.3647
 21
1027.5
  0
LINE
  8
0
 10
5.3647
 20
1027.5
 11
5.38153
 21
1027.77
  0
LINE
  8
0
 10
5.38153
 20
1027.77
 11
5.43178
 21
1028.03
  0
LINE
  8
0
 10
5.43178
 20
1028.03
 11
5.51465
 21
1028.29
  0
LINE
  8
0
 10
5.51465
 20
1028.29
 11
5.62881
 21
1028.53
  0
LINE
  8
0
 10
5.62881
 20
1028.53
 11
5.77251
 21
1028.76
  0
LINE
  8
0
 10
5.77251
 20
1028.76
 11
5.94344
 21
1028.96
  0
LINE
  8
0
 10
5.94344
 20
1028.96
 11
6.1389
 21
1029.15
  0
LINE
  8
0
 10
6.1389
 20
1029.15
 11
6.35585
 21
1029.3
  0
LINE
  8
0
 10
6.35585
 20
1029.3
 11
6.59084
 21
1029.43
  0
LINE
  8
0
 10
6.59084
 20
1029.43
 11
6.84015
 21
1029.53
  0
LINE
  8
0
 10
6.84015
 20
1029.53
 11
7.09988
 21
1029.6
  0
LINE
  8
0
 10
7.09988
 20
1029.6
 11
7.36592
 21
1029.63
  0
LINE
  8
0
 10
7.36592
 20
1029.63
 11
7.63406
 21
1029.63
  0
LINE
  8
0
 10
7.63406
 20
1029.63
 11
7.9001
 21
1029.6
  0
LINE
  8
0
 10
7.9001
 20
1029.6
 11
8.15984
 21
1029.53
  0
LINE
  8
0
 10
8.15984
 20
1029.53
 11
8.40915
 21
1029.43
  0
LINE
  8
0
 10
8.40915
 20
1029.43
 11
8.64413
 21
1029.3
  0
LINE
  8
0
 10
8.64413
 20
1029.3
 11
8.86108
 21
1029.15
  0
LINE
  8
0
 10
8.86108
 20
1029.15
 11
9.05655
 21
1028.96
  0
LINE
  8
0
 10
9.05655
 20
1028.96
 11
9.22748
 21
1028.76
  0
LINE
  8
0
 10
9.22748
 20
1028.76
 11
9.37117
 21
1028.53
  0
LINE
  8
0
 10
9.37117
 20
1028.53
 11
9.48534
 21
1028.29
  0
LINE
  8
0
 10
9.48534
 20
1028.29
 11
9.56821
 21
1028.03
  0
LINE
  8
0
 10
9.56821
 20
1028.03
 11
9.61845
 21
1027.77
  0
LINE
  8
0
 10
9.61845
 20
1027.77
 11
9.63528
 21
1027.5
  0
LINE
  8
0
 10
9.63528
 20
1027.5
 11
9.61845
 21
1027.23
  0
LINE
  8
0
 10
9.61845
 20
1027.23
 11
9.56821
 21
1026.97
  0
LINE
  8
0
 10
9.56821
 20
1026.97
 11
9.48534
 21
1026.71
  0
LINE
  8
0
 10
9.48534
 20
1026.71
 11
9.37117
 21
1026.47
  0
LINE
  8
0
 10
9.37117
 20
1026.47
 11
9.22748
 21
1026.24
  0
LINE
  8
0
 10
9.22748
 20
1026.24
 11
9.05655
 21
1026.04
  0
LINE
  8
0
 10
9.05655
 20
1026.04
 11
8.86108
 21
1025.85
  0
LINE
  8
0
 10
8.86108
 20
1025.85
 11
8.64413
 21
1025.7
  0
LINE
  8
0
 10
8.64413
 20
1025.7
 11
8.40915
 21
1025.57
  0
LINE
  8
0
 10
8.40915
 20
1025.57
 11
8.15984
 21
1025.47
  0
LINE
  8
0
 10
8.15984
 20
1025.47
 11
7.9001
 21
1025.4
  0
LINE
  8
0
 10
7.9001
 20
1025.4
 11
7.63406
 21
1025.37
  0
LINE
  8
0
 10
7.63406
 20
1025.37
 11
7.36592
 21
1025.37
  0
LINE
  8
0
 10
-7.63406
 20
1025.37
 11
-7.9001
 21
1025.4
  0
LINE
  8
0
 10
-7.9001
 20
1025.4
 11
-8.15984
 21
1025.47
  0
LINE
  8
0
 10
-8.15984
 20
1025.47
 11
-8.40915
 21
1025.57
  0
LINE
  8
0
 10
-8.40915
 20
1025.57
 11
-8.64413
 21
1025.7
  0
LINE
  8
0
 10
-8.64413
 20
1025.7
 11
-8.86108
 21
1025.85
  0
LINE
  8
0
 10
-8.86108
 20
1025.85
 11
-9.05655
 21
1026.04
  0
LINE
  8
0
 10
-9.05655
 20
1026.04
 11
-9.22748
 21
1026.24
  0
LINE
  8
0
 10
-9.22748
 20
1026.24
 11
-9.37117
 21
1026.47
  0
LINE
  8
0
 10
-9.37117
 20
1026.47
 11
-9.48534
 21
1026.71
  0
LINE
  8
0
 10
-9.48534
 20
1026.71
 11
-9.56821
 21
1026.97
  0
LINE
  8
0
 10
-9.56821
 20
1026.97
 11
-9.61845
 21
1027.23
  0
LINE
  8
0
 10
-9.61845
 20
1027.23
 11
-9.63528
 21
1027.5
  0
LINE
  8
0
 10
-9.63528
 20
1027.5
 11
-9.61845
 21
1027.77
  0
LINE
  8
0
 10
-9.61845
 20
1027.77
 11
-9.56821
 21
1028.03
  0
LINE
  8
0
 10
-9.56821
 20
1028.03
 11
-9.48534
 21
1028.29
  0
LINE
  8
0
 10
-9.48534
 20
1028.29
 11
-9.37117
 21
1028.53
  0
LINE
  8
0
 10
-9.37117
 20
1028.53
 11
-9.22748
 21
1028.76
  0
LINE
  8
0
 10
-9.22748
 20
1028.76
 11
-9.05655
 21
1028.96
  0
LINE
  8
0
 10
-9.05655
 20
1028.96
 11
-8.86108
 21
1029.15
  0
LINE
  8
0
 10
-8.86108
 20
1029.15
 11
-8.64413
 21
1029.3
  0
LINE
  8
0
 10
-8.64413
 20
1029.3
 11
-8.40915
 21
1029.43
  0
LINE
  8
0
 10
-8.40915
 20
1029.43
 11
-8.15984
 21
1029.53
  0
LINE
  8
0
 10
-8.15984
 20
1029.53
 11
-7.9001
 21
1029.6
  0
LINE
  8
0
 10
-7.9001
 20
1029.6
 11
-7.63406
 21
1029.63
  0
LINE
  8
0
 10
-7.63406
 20
1029.63
 11
-7.36592
 21
1029.63
  0
LINE
  8
0
 10
-7.36592
 20
1029.63
 11
-7.09988
 21
1029.6
  0
LINE
  8
0
 10
-7.09988
 20
1029.6
 11
-6.84015
 21
1029.53
  0
LINE
  8
0
 10
-6.84015
 20
1029.53
 11
-6.59084
 21
1029.43
  0
LINE
  8
0
 10
-6.59084
 20
1029.43
 11
-6.35585
 21
1029.3
  0
LINE
  8
0
 10
-6.35585
 20
1029.3
 11
-6.1389
 21
1029.15
  0
LINE
  8
0
 10
-6.1389
 20
1029.15
 11
-5.94344
 21
1028.96
  0
LINE
  8
0
 10
-5.94344
 20
1028.96
 11
-5.77251
 21
1028.76
  0
LINE
  8
0
 10
-5.77251
 20
1028.76
 11
-5.62881
 21
1028.53
  0
LINE
  8
0
 10
-5.62881
 20
1028.53
 11
-5.51465
 21
1028.29
  0
LINE
  8
0
 10
-5.51465
 20
1028.29
 11
-5.43178
 21
1028.03
  0
LINE
  8
0
 10
-5.43178
 20
1028.03
 11
-5.38153
 21
1027.77
  0
LINE
  8
0
 10
-5.38153
 20
1027.77
 11
-5.3647
 21
1027.5
  0
LINE
  8
0
 10
-5.3647
 20
1027.5
 11
-5.38153
 21
1027.23
  0
LINE
  8
0
 10
-5.38153
 20
1027.23
 11
-5.43178
 21
1026.97
  0
LINE
  8
0
 10
-5.43178
 20
1026.97
 11
-5.51465
 21
1026.71
  0
LINE
  8
0
 10
-5.51465
 20
1026.71
 11
-5.62881
 21
1026.47
  0
LINE
  8
0
 10
-5.62881
 20
1026.47
 11
-5.77251
 21
1026.24
  0
LINE
  8
0
 10
-5.77251
 20
1026.24
 11
-5.94344
 21
1026.04
  0
LINE
  8
0
 10
-5.94344
 20
1026.04
 11
-6.1389
 21
1025.85
  0
LINE
  8
0
 10
-6.1389
 20
1025.85
 11
-6.35585
 21
1025.7
  0
LINE
  8
0
 10
-6.35585
 20
1025.7
 11
-6.59084
 21
1025.57
  0
LINE
  8
0
 10
-6.59084
 20
1025.57
 11
-6.84015
 21
1025.47
  0
LINE
  8
0
 10
-6.84015
 20
1025.47
 11
-7.09988
 21
1025.4
  0
LINE
  8
0
 10
-7.09988
 20
1025.4
 11
-7.36592
 21
1025.37
  0
LINE
  8
0
 10
-7.36592
 20
1025.37
 11
-7.63406
 21
1025.37
  0
LINE
  8
0
 10
7.36592
 20
860.369
 11
7.09988
 21
860.403
  0
LINE
  8
0
 10
7.09988
 20
860.403
 11
6.84015
 21
860.469
  0
LINE
  8
0
 10
6.84015
 20
860.469
 11
6.59084
 21
860.568
  0
LINE
  8
0
 10
6.59084
 20
860.568
 11
6.35585
 21
860.697
  0
LINE
  8
0
 10
6.35585
 20
860.697
 11
6.1389
 21
860.855
  0
LINE
  8
0
 10
6.1389
 20
860.855
 11
5.94344
 21
861.038
  0
LINE
  8
0
 10
5.94344
 20
861.038
 11
5.77251
 21
861.245
  0
LINE
  8
0
 10
5.77251
 20
861.245
 11
5.62881
 21
861.471
  0
LINE
  8
0
 10
5.62881
 20
861.471
 11
5.51465
 21
861.714
  0
LINE
  8
0
 10
5.51465
 20
861.714
 11
5.43178
 21
861.969
  0
LINE
  8
0
 10
5.43178
 20
861.969
 11
5.38153
 21
862.232
  0
LINE
  8
0
 10
5.38153
 20
862.232
 11
5.3647
 21
862.5
  0
LINE
  8
0
 10
5.3647
 20
862.5
 11
5.38153
 21
862.768
  0
LINE
  8
0
 10
5.38153
 20
862.768
 11
5.43178
 21
863.031
  0
LINE
  8
0
 10
5.43178
 20
863.031
 11
5.51465
 21
863.286
  0
LINE
  8
0
 10
5.51465
 20
863.286
 11
5.62881
 21
863.529
  0
LINE
  8
0
 10
5.62881
 20
863.529
 11
5.77251
 21
863.755
  0
LINE
  8
0
 10
5.77251
 20
863.755
 11
5.94344
 21
863.962
  0
LINE
  8
0
 10
5.94344
 20
863.962
 11
6.1389
 21
864.145
  0
LINE
  8
0
 10
6.1389
 20
864.145
 11
6.35585
 21
864.303
  0
LINE
  8
0
 10
6.35585
 20
864.303
 11
6.59084
 21
864.432
  0
LINE
  8
0
 10
6.59084
 20
864.432
 11
6.84015
 21
864.531
  0
LINE
  8
0
 10
6.84015
 20
864.531
 11
7.09988
 21
864.597
  0
LINE
  8
0
 10
7.09988
 20
864.597
 11
7.36592
 21
864.631
  0
LINE
  8
0
 10
7.36592
 20
864.631
 11
7.63406
 21
864.631
  0
LINE
  8
0
 10
7.63406
 20
864.631
 11
7.9001
 21
864.597
  0
LINE
  8
0
 10
7.9001
 20
864.597
 11
8.15984
 21
864.531
  0
LINE
  8
0
 10
8.15984
 20
864.531
 11
8.40915
 21
864.432
  0
LINE
  8
0
 10
8.40915
 20
864.432
 11
8.64413
 21
864.303
  0
LINE
  8
0
 10
8.64413
 20
864.303
 11
8.86108
 21
864.145
  0
LINE
  8
0
 10
8.86108
 20
864.145
 11
9.05655
 21
863.962
  0
LINE
  8
0
 10
9.05655
 20
863.962
 11
9.22748
 21
863.755
  0
LINE
  8
0
 10
9.22748
 20
863.755
 11
9.37117
 21
863.529
  0
LINE
  8
0
 10
9.37117
 20
863.529
 11
9.48534
 21
863.286
  0
LINE
  8
0
 10
9.48534
 20
863.286
 11
9.56821
 21
863.031
  0
LINE
  8
0
 10
9.56821
 20
863.031
 11
9.61845
 21
862.768
  0
LINE
  8
0
 10
9.61845
 20
862.768
 11
9.63528
 21
862.5
  0
LINE
  8
0
 10
9.63528
 20
862.5
 11
9.61845
 21
862.232
  0
LINE
  8
0
 10
9.61845
 20
862.232
 11
9.56821
 21
861.969
  0
LINE
  8
0
 10
9.56821
 20
861.969
 11
9.48534
 21
861.714
  0
LINE
  8
0
 10
9.48534
 20
861.714
 11
9.37117
 21
861.471
  0
LINE
  8
0
 10
9.37117
 20
861.471
 11
9.22748
 21
861.245
  0
LINE
  8
0
 10
9.22748
 20
861.245
 11
9.05655
 21
861.038
  0
LINE
  8
0
 10
9.05655
 20
861.038
 11
8.86108
 21
860.855
  0
LINE
  8
0
 10
8.86108
 20
860.855
 11
8.64413
 21
860.697
  0
LINE
  8
0
 10
8.64413
 20
860.697
 11
8.40915
 21
860.568
  0
LINE
  8
0
 10
8.40915
 20
860.568
 11
8.15984
 21
860.469
  0
LINE
  8
0
 10
8.15984
 20
860.469
 11
7.9001
 21
860.403
  0
LINE
  8
0
 10
7.9001
 20
860.403
 11
7.63406
 21
860.369
  0
LINE
  8
0
 10
7.63406
 20
860.369
 11
7.36592
 21
860.369
  0
LINE
  8
0
 10
-7.63406
 20
860.369
 11
-7.9001
 21
860.403
  0
LINE
  8
0
 10
-7.9001
 20
860.403
 11
-8.15984
 21
860.469
  0
LINE
  8
0
 10
-8.15984
 20
860.469
 11
-8.40915
 21
860.568
  0
LINE
  8
0
 10
-8.40915
 20
860.568
 11
-8.64413
 21
860.697
  0
LINE
  8
0
 10
-8.64413
 20
860.697
 11
-8.86108
 21
860.855
  0
LINE
  8
0
 10
-8.86108
 20
860.855
 11
-9.05655
 21
861.038
  0
LINE
  8
0
 10
-9.05655
 20
861.038
 11
-9.22748
 21
861.245
  0
LINE
  8
0
 10
-9.22748
 20
861.245
 11
-9.37117
 21
861.471
  0
LINE
  8
0
 10
-9.37117
 20
861.471
 11
-9.48534
 21
861.714
  0
LINE
  8
0
 10
-9.48534
 20
861.714
 11
-9.56821
 21
861.969
  0
LINE
  8
0
 10
-9.56821
 20
861.969
 11
-9.61845
 21
862.232
  0
LINE
  8
0
 10
-9.61845
 20
862.232
 11
-9.63528
 21
862.5
  0
LINE
  8
0
 10
-9.63528
 20
862.5
 11
-9.61845
 21
862.768
  0
LINE
  8
0
 10
-9.61845
 20
862.768
 11
-9.56821
 21
863.031
  0
LINE
  8
0
 10
-9.56821
 20
863.031
 11
-9.48534
 21
863.286
  0
LINE
  8
0
 10
-9.48534
 20
863.286
 11
-9.37117
 21
863.529
  0
LINE
  8
0
 10
-9.37117
 20
863.529
 11
-9.22748
 21
863.755
  0
LINE
  8
0
 10
-9.22748
 20
863.755
 11
-9.05655
 21
863.962
  0
LINE
  8
0
 10
-9.05655
 20
863.962
 11
-8.86108
 21
864.145
  0
LINE
  8
0
 10
-8.86108
 20
864.145
 11
-8.64413
 21
864.303
  0
LINE
  8
0
 10
-8.64413
 20
864.303
 11
-8.40915
 21
864.432
  0
LINE
  8
0
 10
-8.40915
 20
864.432
 11
-8.15984
 21
864.531
  0
LINE
  8
0
 10
-8.15984
 20
864.531
 11
-7.9001
 21
864.597
  0
LINE
  8
0
 10
-7.9001
 20
864.597
 11
-7.63406
 21
864.631
  0
LINE
  8
0
 10
-7.63406
 20
864.631
 11
-7.36592
 21
864.631
  0
LINE
  8
0
 10
-7.36592
 20
864.631
 11
-7.09988
 21
864.597
  0
LINE
  8
0
 10
-7.09988
 20
864.597
 11
-6.84015
 21
864.531
  0
LINE
  8
0
 10
-6.84015
 20
864.531
 11
-6.59084
 21
864.432
  0
LINE
  8
0
 10
-6.59084
 20
864.432
 11
-6.35585
 21
864.303
  0
LINE
  8
0
 10
-6.35585
 20
864.303
 11
-6.1389
 21
864.145
  0
LINE
  8
0
 10
-6.1389
 20
864.145
 11
-5.94344
 21
863.962
  0
LINE
  8
0
 10
-5.94344
 20
863.962
 11
-5.77251
 21
863.755
  0
LINE
  8
0
 10
-5.77251
 20
863.755
 11
-5.62881
 21
863.529
  0
LINE
  8
0
 10
-5.62881
 20
863.529
 11
-5.51465
 21
863.286
  0
LINE
  8
0
 10
-5.51465
 20
863.286
 11
-5.43178
 21
863.031
  0
LINE
  8
0
 10
-5.43178
 20
863.031
 11
-5.38153
 21
862.768
  0
LINE
  8
0
 10
-5.38153
 20
862.768
 11
-5.3647
 21
862.5
  0
LINE
  8
0
 10
-5.3647
 20
862.5
 11
-5.38153
 21
862.232
  0
LINE
  8
0
 10
-5.38153
 20
862.232
 11
-5.43178
 21
861.969
  0
LINE
  8
0
 10
-5.43178
 20
861.969
 11
-5.51465
 21
861.714
  0
LINE
  8
0
 10
-5.51465
 20
861.714
 11
-5.62881
 21
861.471
  0
LINE
  8
0
 10
-5.62881
 20
861.471
 11
-5.77251
 21
861.245
  0
LINE
  8
0
 10
-5.77251
 20
861.245
 11
-5.94344
 21
861.038
  0
LINE
  8
0
 10
-5.94344
 20
861.038
 11
-6.1389
 21
860.855
  0
LINE
  8
0
 10
-6.1389
 20
860.855
 11
-6.35585
 21
860.697
  0
LINE
  8
0
 10
-6.35585
 20
860.697
 11
-6.59084
 21
860.568
  0
LINE
  8
0
 10
-6.59084
 20
860.568
 11
-6.84015
 21
860.469
  0
LINE
  8
0
 10
-6.84015
 20
860.469
 11
-7.09988
 21
860.403
  0
LINE
  8
0
 10
-7.09988
 20
860.403
 11
-7.36592
 21
860.369
  0
LINE
  8
0
 10
-7.36592
 20
860.369
 11
-7.63406
 21
860.369
  0
ENDSEC
  0
SECTION
  2
OBJECTS
  0
DICTIONARY
  0
ENDSEC
  0
EOF
