<?xml version="1.0" standalone="no"?>
<!DOCTYPE svg PUBLIC "-//W3C//DTD SVG 1.1//EN" "http://www.w3.org/Graphics/SVG/1.1/DTD/svg11.dtd">
<svg width="167mm" height="40mm" viewBox="-84 -56 167 40" xmlns="http://www.w3.org/2000/svg" version="1.1">
<title>OpenSCAD Model</title>
<path d="
M 78.4369,-40.5886 L 79.0451,-40.7447 L 79.6289,-40.9759 L 80.1791,-41.2784 L 80.6871,-41.6474 L 81.1448,-42.0773
 L 81.5451,-42.5611 L 81.8815,-43.0912 L 82.1489,-43.6594 L 82.3429,-44.2566 L 82.4606,-44.8733 L 82.5,-45.5
 L 82.5,-50.5 L 82.4606,-51.1267 L 82.3429,-51.7434 L 82.1489,-52.3406 L 81.8815,-52.9088 L 81.5451,-53.4389
 L 81.1448,-53.9227 L 80.6871,-54.3526 L 80.1791,-54.7216 L 79.6289,-55.0241 L 79.0451,-55.2553 L 78.4369,-55.4114
 L 77.8139,-55.4901 L -77.8139,-55.4901 L -78.4369,-55.4114 L -79.0451,-55.2553 L -79.6289,-55.0241 L -80.1791,-54.7216
 L -80.6871,-54.3526 L -81,-54.0587 L -81,-55.1148 L -84,-55.1148 L -84,-40.8852 L -81,-40.8852
 L -81,-41.9413 L -80.6871,-41.6474 L -80.1791,-41.2784 L -79.6289,-40.9759 L -79.0451,-40.7447 L -78.4369,-40.5886
 L -77.8139,-40.5099 L 77.8139,-40.5099 z
M 78.4369,-16.5886 L 79.0451,-16.7447 L 79.6289,-16.9759 L 80.1791,-17.2784 L 80.6871,-17.6474 L 81.1448,-18.0773
 L 81.5451,-18.5611 L 81.8815,-19.0912 L 82.1489,-19.6594 L 82.3429,-20.2566 L 82.4606,-20.8733 L 82.5,-21.5
 L 82.5,-26.5 L 82.4606,-27.1267 L 82.3429,-27.7434 L 82.1489,-28.3406 L 81.8815,-28.9088 L 81.5451,-29.4389
 L 81.1448,-29.9227 L 80.6871,-30.3526 L 80.1791,-30.7216 L 79.6289,-31.0241 L 79.0451,-31.2553 L 78.4369,-31.4114
 L 77.8139,-31.4901 L -77.8139,-31.4901 L -78.4369,-31.4114 L -79.0451,-31.2553 L -79.6289,-31.0241 L -80.1791,-30.7216
 L -80.6871,-30.3526 L -81.1448,-29.9227 L -81.5451,-29.4389 L -81.8815,-28.9088 L -82.1489,-28.3406 L -82.3429,-27.7434
 L -82.4,-27.4442 L -84,-27.4442 L -84,-20.5558 L -82.4,-20.5558 L -82.3429,-20.2566 L -82.1489,-19.6594
 L -81.8815,-19.0912 L -81.5451,-18.5611 L -81.1448,-18.0773 L -80.6871,-17.6474 L -80.1791,-17.2784 L -79.6289,-16.9759
 L -79.0451,-16.7447 L -78.4369,-16.5886 L -77.8139,-16.5099 L 77.8139,-16.5099 z
M -75.113,-22.2036 L -75.3373,-22.2319 L -75.5562,-22.2881 L -75.7664,-22.3713 L -75.9645,-22.4802 L -76.1474,-22.6131
 L -76.3121,-22.7678 L -76.4562,-22.942 L -76.5773,-23.1329 L -76.6736,-23.3374 L -76.7434,-23.5524 L -76.7858,-23.7744
 L -76.8,-24 L -76.7858,-24.2256 L -76.7434,-24.4476 L -76.6736,-24.6626 L -76.5773,-24.8671 L -76.4562,-25.058
 L -76.3121,-25.2322 L -76.1474,-25.3869 L -75.9645,-25.5198 L -75.7664,-25.6287 L -75.5562,-25.7119 L -75.3373,-25.7681
 L -75.113,-25.7964 L -74.887,-25.7964 L -74.6627,-25.7681 L -74.4438,-25.7119 L -74.2336,-25.6287 L -74.0355,-25.5198
 L -73.8526,-25.3869 L -73.6879,-25.2322 L -73.5438,-25.058 L -73.4226,-24.8671 L -73.3264,-24.6626 L -73.2565,-24.4476
 L -73.2142,-24.2256 L -73.2,-24 L -73.2142,-23.7744 L -73.2565,-23.5524 L -73.3264,-23.3374 L -73.4226,-23.1329
 L -73.5438,-22.942 L -73.6879,-22.7678 L -73.8526,-22.6131 L -74.0355,-22.4802 L -74.2336,-22.3713 L -74.4438,-22.2881
 L -74.6627,-22.2319 L -74.887,-22.2036 z
M 74.887,-22.2036 L 74.6627,-22.2319 L 74.4438,-22.2881 L 74.2336,-22.3713 L 74.0355,-22.4802 L 73.8526,-22.6131
 L 73.6879,-22.7678 L 73.5438,-22.942 L 73.4226,-23.1329 L 73.3264,-23.3374 L 73.2565,-23.5524 L 73.2142,-23.7744
 L 73.2,-24 L 73.2142,-24.2256 L 73.2565,-24.4476 L 73.3264,-24.6626 L 73.4226,-24.8671 L 73.5438,-25.058
 L 73.6879,-25.2322 L 73.8526,-25.3869 L 74.0355,-25.5198 L 74.2336,-25.6287 L 74.4438,-25.7119 L 74.6627,-25.7681
 L 74.887,-25.7964 L 75.113,-25.7964 L 75.3373,-25.7681 L 75.5562,-25.7119 L 75.7664,-25.6287 L 75.9645,-25.5198
 L 76.1474,-25.3869 L 76.3121,-25.2322 L 76.4562,-25.058 L 76.5773,-24.8671 L 76.6736,-24.6626 L 76.7434,-24.4476
 L 76.7858,-24.2256 L 76.8,-24 L 76.7858,-23.7744 L 76.7434,-23.5524 L 76.6736,-23.3374 L 76.5773,-23.1329
 L 76.4562,-22.942 L 76.3121,-22.7678 L 76.1474,-22.6131 L 75.9645,-22.4802 L 75.7664,-22.3713 L 75.5562,-22.2881
 L 75.3373,-22.2319 L 75.113,-22.2036 z
" stroke="black" fill="lightgray" stroke-width="0.5"/>
</svg>
