<?xml version="1.0" standalone="no"?>
<!DOCTYPE svg PUBLIC "-//W3C//DTD SVG 1.1//EN" "http://www.w3.org/Graphics/SVG/1.1/DTD/svg11.dtd">
<svg width="30mm" height="244mm" viewBox="-15 -458 30 244" xmlns="http://www.w3.org/2000/svg" version="1.1">
<title>OpenSCAD Model</title>
<path d="
M 10.9369,-382.589 L 11.5451,-382.745 L 12.1289,-382.976 L 12.6791,-383.278 L 13.1871,-383.647 L 13.6448,-384.077
 L 14.0451,-384.561 L 14.3815,-385.091 L 14.6489,-385.659 L 14.8429,-386.257 L 14.9606,-386.873 L 15,-387.5
 L 15,-452.5 L 14.9606,-453.127 L 14.8429,-453.743 L 14.6489,-454.341 L 14.3815,-454.909 L 14.0451,-455.439
 L 13.6448,-455.923 L 13.1871,-456.353 L 12.6791,-456.722 L 12.1289,-457.024 L 11.5451,-457.255 L 10.9369,-457.411
 L 10.3139,-457.49 L -10.3139,-457.49 L -10.9369,-457.411 L -11.5451,-457.255 L -12.1289,-457.024 L -12.6791,-456.722
 L -13.1871,-456.353 L -13.6448,-455.923 L -14.0451,-455.439 L -14.3815,-454.909 L -14.6489,-454.341 L -14.8429,-453.743
 L -14.9606,-453.127 L -15,-452.5 L -15,-387.5 L -14.9606,-386.873 L -14.8429,-386.257 L -14.6489,-385.659
 L -14.3815,-385.091 L -14.0451,-384.561 L -13.6448,-384.077 L -13.1871,-383.647 L -12.6791,-383.278 L -12.1289,-382.976
 L -11.5451,-382.745 L -10.9369,-382.589 L -10.3139,-382.51 L 10.3139,-382.51 z
M -9.75116,-384.008 L -10.2495,-384.071 L -10.7361,-384.196 L -11.2031,-384.381 L -11.6433,-384.623 L -12.0497,-384.918
 L -12.4159,-385.262 L -12.7361,-385.649 L -13.0052,-386.073 L -13.2191,-386.528 L -13.3743,-387.005 L -13.4684,-387.499
 L -13.5,-388 L -13.5,-452 L -13.4684,-452.501 L -13.3743,-452.995 L -13.2191,-453.472 L -13.0052,-453.927
 L -12.7361,-454.351 L -12.4159,-454.738 L -12.0497,-455.082 L -11.6433,-455.377 L -11.2031,-455.619 L -10.7361,-455.804
 L -10.2495,-455.929 L -9.75116,-455.992 L 9.75116,-455.992 L 10.2495,-455.929 L 10.7361,-455.804 L 11.2031,-455.619
 L 11.6433,-455.377 L 12.0497,-455.082 L 12.4159,-454.738 L 12.7361,-454.351 L 13.0052,-453.927 L 13.2191,-453.472
 L 13.3743,-452.995 L 13.4684,-452.501 L 13.5,-452 L 13.5,-388 L 13.4684,-387.499 L 13.3743,-387.005
 L 13.2191,-386.528 L 13.0052,-386.073 L 12.7361,-385.649 L 12.4159,-385.262 L 12.0497,-384.918 L 11.6433,-384.623
 L 11.2031,-384.381 L 10.7361,-384.196 L 10.2495,-384.071 L 9.75116,-384.008 z
M 10.9369,-298.589 L 11.5451,-298.745 L 12.1289,-298.976 L 12.6791,-299.278 L 13.1871,-299.647 L 13.6448,-300.077
 L 14.0451,-300.561 L 14.3815,-301.091 L 14.6489,-301.659 L 14.8429,-302.257 L 14.9606,-302.873 L 15,-303.5
 L 15,-368.5 L 14.9606,-369.127 L 14.8429,-369.743 L 14.6489,-370.341 L 14.3815,-370.909 L 14.0451,-371.439
 L 13.6448,-371.923 L 13.1871,-372.353 L 12.6791,-372.722 L 12.1289,-373.024 L 11.5451,-373.255 L 10.9369,-373.411
 L 10.3139,-373.49 L -10.3139,-373.49 L -10.9369,-373.411 L -11.5451,-373.255 L -12.1289,-373.024 L -12.6791,-372.722
 L -13.1871,-372.353 L -13.6448,-371.923 L -14.0451,-371.439 L -14.3815,-370.909 L -14.6489,-370.341 L -14.8429,-369.743
 L -14.9606,-369.127 L -15,-368.5 L -15,-303.5 L -14.9606,-302.873 L -14.8429,-302.257 L -14.6489,-301.659
 L -14.3815,-301.091 L -14.0451,-300.561 L -13.6448,-300.077 L -13.1871,-299.647 L -12.6791,-299.278 L -12.1289,-298.976
 L -11.5451,-298.745 L -10.9369,-298.589 L -10.3139,-298.51 L 10.3139,-298.51 z
M -9.69545,-300.893 L -10.0833,-300.942 L -10.4619,-301.039 L -10.8254,-301.183 L -11.168,-301.372 L -11.4842,-301.601
 L -11.7692,-301.869 L -12.0184,-302.17 L -12.2279,-302.5 L -12.3943,-302.854 L -12.5151,-303.226 L -12.5884,-303.61
 L -12.6129,-304 L -12.6129,-368 L -12.5884,-368.39 L -12.5151,-368.774 L -12.3943,-369.146 L -12.2279,-369.5
 L -12.0184,-369.83 L -11.7692,-370.131 L -11.4842,-370.399 L -11.168,-370.628 L -10.8254,-370.817 L -10.4619,-370.961
 L -10.0833,-371.058 L -9.69545,-371.107 L 9.69545,-371.107 L 10.0833,-371.058 L 10.4619,-370.961 L 10.8254,-370.817
 L 11.168,-370.628 L 11.4842,-370.399 L 11.7692,-370.131 L 12.0184,-369.83 L 12.2279,-369.5 L 12.3943,-369.146
 L 12.5151,-368.774 L 12.5884,-368.39 L 12.6129,-368 L 12.6129,-304 L 12.5884,-303.61 L 12.5151,-303.226
 L 12.3943,-302.854 L 12.2279,-302.5 L 12.0184,-302.17 L 11.7692,-301.869 L 11.4842,-301.601 L 11.168,-301.372
 L 10.8254,-301.183 L 10.4619,-301.039 L 10.0833,-300.942 L 9.69545,-300.893 z
M 10.9369,-214.589 L 11.5451,-214.745 L 12.1289,-214.976 L 12.6791,-215.278 L 13.1871,-215.647 L 13.6448,-216.077
 L 14.0451,-216.561 L 14.3815,-217.091 L 14.6489,-217.659 L 14.8429,-218.257 L 14.9606,-218.873 L 15,-219.5
 L 15,-284.5 L 14.9606,-285.127 L 14.8429,-285.743 L 14.6489,-286.341 L 14.3815,-286.909 L 14.0451,-287.439
 L 13.6448,-287.923 L 13.1871,-288.353 L 12.6791,-288.722 L 12.1289,-289.024 L 11.5451,-289.255 L 10.9369,-289.411
 L 10.3139,-289.49 L -10.3139,-289.49 L -10.9369,-289.411 L -11.5451,-289.255 L -12.1289,-289.024 L -12.6791,-288.722
 L -13.1871,-288.353 L -13.6448,-287.923 L -14.0451,-287.439 L -14.3815,-286.909 L -14.6489,-286.341 L -14.8429,-285.743
 L -14.9606,-285.127 L -15,-284.5 L -15,-219.5 L -14.9606,-218.873 L -14.8429,-218.257 L -14.6489,-217.659
 L -14.3815,-217.091 L -14.0451,-216.561 L -13.6448,-216.077 L -13.1871,-215.647 L -12.6791,-215.278 L -12.1289,-214.976
 L -11.5451,-214.745 L -10.9369,-214.589 L -10.3139,-214.51 L 10.3139,-214.51 z
M 7.36592,-279.869 L 7.09988,-279.903 L 6.84015,-279.969 L 6.59084,-280.068 L 6.35585,-280.197 L 6.1389,-280.355
 L 5.94344,-280.538 L 5.77251,-280.745 L 5.62881,-280.971 L 5.51465,-281.214 L 5.43178,-281.469 L 5.38153,-281.732
 L 5.3647,-282 L 5.38153,-282.268 L 5.43178,-282.531 L 5.51465,-282.786 L 5.62881,-283.029 L 5.77251,-283.255
 L 5.94344,-283.462 L 6.1389,-283.645 L 6.35585,-283.803 L 6.59084,-283.932 L 6.84015,-284.031 L 7.09988,-284.097
 L 7.36592,-284.131 L 7.63406,-284.131 L 7.9001,-284.097 L 8.15984,-284.031 L 8.40915,-283.932 L 8.64413,-283.803
 L 8.86108,-283.645 L 9.05655,-283.462 L 9.22748,-283.255 L 9.37117,-283.029 L 9.48534,-282.786 L 9.56821,-282.531
 L 9.61845,-282.268 L 9.63528,-282 L 9.61845,-281.732 L 9.56821,-281.469 L 9.48534,-281.214 L 9.37117,-280.971
 L 9.22748,-280.745 L 9.05655,-280.538 L 8.86108,-280.355 L 8.64413,-280.197 L 8.40915,-280.068 L 8.15984,-279.969
 L 7.9001,-279.903 L 7.63406,-279.869 z
M -7.63406,-279.869 L -7.9001,-279.903 L -8.15984,-279.969 L -8.40915,-280.068 L -8.64413,-280.197 L -8.86108,-280.355
 L -9.05655,-280.538 L -9.22748,-280.745 L -9.37117,-280.971 L -9.48534,-281.214 L -9.56821,-281.469 L -9.61845,-281.732
 L -9.63528,-282 L -9.61845,-282.268 L -9.56821,-282.531 L -9.48534,-282.786 L -9.37117,-283.029 L -9.22748,-283.255
 L -9.05655,-283.462 L -8.86108,-283.645 L -8.64413,-283.803 L -8.40915,-283.932 L -8.15984,-284.031 L -7.9001,-284.097
 L -7.63406,-284.131 L -7.36592,-284.131 L -7.09988,-284.097 L -6.84015,-284.031 L -6.59084,-283.932 L -6.35585,-283.803
 L -6.1389,-283.645 L -5.94344,-283.462 L -5.77251,-283.255 L -5.62881,-283.029 L -5.51465,-282.786 L -5.43178,-282.531
 L -5.38153,-282.268 L -5.3647,-282 L -5.38153,-281.732 L -5.43178,-281.469 L -5.51465,-281.214 L -5.62881,-280.971
 L -5.77251,-280.745 L -5.94344,-280.538 L -6.1389,-280.355 L -6.35585,-280.197 L -6.59084,-280.068 L -6.84015,-279.969
 L -7.09988,-279.903 L -7.36592,-279.869 z
M 7.36592,-219.869 L 7.09988,-219.903 L 6.84015,-219.969 L 6.59084,-220.068 L 6.35585,-220.197 L 6.1389,-220.355
 L 5.94344,-220.538 L 5.77251,-220.745 L 5.62881,-220.971 L 5.51465,-221.214 L 5.43178,-221.469 L 5.38153,-221.732
 L 5.3647,-222 L 5.38153,-222.268 L 5.43178,-222.531 L 5.51465,-222.786 L 5.62881,-223.029 L 5.77251,-223.255
 L 5.94344,-223.462 L 6.1389,-223.645 L 6.35585,-223.803 L 6.59084,-223.932 L 6.84015,-224.031 L 7.09988,-224.097
 L 7.36592,-224.131 L 7.63406,-224.131 L 7.9001,-224.097 L 8.15984,-224.031 L 8.40915,-223.932 L 8.64413,-223.803
 L 8.86108,-223.645 L 9.05655,-223.462 L 9.22748,-223.255 L 9.37117,-223.029 L 9.48534,-222.786 L 9.56821,-222.531
 L 9.61845,-222.268 L 9.63528,-222 L 9.61845,-221.732 L 9.56821,-221.469 L 9.48534,-221.214 L 9.37117,-220.971
 L 9.22748,-220.745 L 9.05655,-220.538 L 8.86108,-220.355 L 8.64413,-220.197 L 8.40915,-220.068 L 8.15984,-219.969
 L 7.9001,-219.903 L 7.63406,-219.869 z
M -7.63406,-219.869 L -7.9001,-219.903 L -8.15984,-219.969 L -8.40915,-220.068 L -8.64413,-220.197 L -8.86108,-220.355
 L -9.05655,-220.538 L -9.22748,-220.745 L -9.37117,-220.971 L -9.48534,-221.214 L -9.56821,-221.469 L -9.61845,-221.732
 L -9.63528,-222 L -9.61845,-222.268 L -9.56821,-222.531 L -9.48534,-222.786 L -9.37117,-223.029 L -9.22748,-223.255
 L -9.05655,-223.462 L -8.86108,-223.645 L -8.64413,-223.803 L -8.40915,-223.932 L -8.15984,-224.031 L -7.9001,-224.097
 L -7.63406,-224.131 L -7.36592,-224.131 L -7.09988,-224.097 L -6.84015,-224.031 L -6.59084,-223.932 L -6.35585,-223.803
 L -6.1389,-223.645 L -5.94344,-223.462 L -5.77251,-223.255 L -5.62881,-223.029 L -5.51465,-222.786 L -5.43178,-222.531
 L -5.38153,-222.268 L -5.3647,-222 L -5.38153,-221.732 L -5.43178,-221.469 L -5.51465,-221.214 L -5.62881,-220.971
 L -5.77251,-220.745 L -5.94344,-220.538 L -6.1389,-220.355 L -6.35585,-220.197 L -6.59084,-220.068 L -6.84015,-219.969
 L -7.09988,-219.903 L -7.36592,-219.869 z
" stroke="black" fill="lightgray" stroke-width="0.5"/>
</svg>
