<?xml version="1.0" standalone="no"?>
<!DOCTYPE svg PUBLIC "-//W3C//DTD SVG 1.1//EN" "http://www.w3.org/Graphics/SVG/1.1/DTD/svg11.dtd">
<svg width="16mm" height="378mm" viewBox="-8 -705 16 378" xmlns="http://www.w3.org/2000/svg" version="1.1">
<title>OpenSCAD Model</title>
<path d="
M 3.4369,-585.089 L 4.04507,-585.245 L 4.62889,-585.476 L 5.17912,-585.778 L 5.68712,-586.147 L 6.14484,-586.577
 L 6.54507,-587.061 L 6.88153,-587.591 L 7.14888,-588.159 L 7.34291,-588.757 L 7.46057,-589.373 L 7.5,-590
 L 7.5,-700 L 7.46057,-700.627 L 7.34291,-701.243 L 7.14888,-701.841 L 6.88153,-702.409 L 6.54507,-702.939
 L 6.14484,-703.423 L 5.68712,-703.853 L 5.17912,-704.222 L 4.62889,-704.524 L 4.04507,-704.755 L 3.4369,-704.911
 L 2.81395,-704.99 L -2.81395,-704.99 L -3.4369,-704.911 L -4.04507,-704.755 L -4.62889,-704.524 L -5.17912,-704.222
 L -5.68712,-703.853 L -6.14484,-703.423 L -6.54507,-702.939 L -6.88153,-702.409 L -7.14888,-701.841 L -7.34291,-701.243
 L -7.46057,-700.627 L -7.5,-700 L -7.5,-590 L -7.46057,-589.373 L -7.34291,-588.757 L -7.14888,-588.159
 L -6.88153,-587.591 L -6.54507,-587.061 L -6.14484,-586.577 L -5.68712,-586.147 L -5.17912,-585.778 L -4.62889,-585.476
 L -4.04507,-585.245 L -3.4369,-585.089 L -2.81395,-585.01 L 2.81395,-585.01 z
M -2.25116,-586.508 L -2.74951,-586.571 L -3.23605,-586.696 L -3.70311,-586.881 L -4.1433,-587.123 L -4.54968,-587.418
 L -4.91586,-587.762 L -5.23605,-588.149 L -5.50522,-588.573 L -5.7191,-589.028 L -5.87433,-589.505 L -5.96844,-589.999
 L -6,-590.5 L -6,-699.5 L -5.96844,-700.001 L -5.87433,-700.495 L -5.7191,-700.972 L -5.50522,-701.427
 L -5.23605,-701.851 L -4.91586,-702.238 L -4.54968,-702.582 L -4.1433,-702.877 L -3.70311,-703.119 L -3.23605,-703.304
 L -2.74951,-703.429 L -2.25116,-703.492 L 2.25116,-703.492 L 2.74951,-703.429 L 3.23605,-703.304 L 3.70311,-703.119
 L 4.1433,-702.877 L 4.54968,-702.582 L 4.91586,-702.238 L 5.23605,-701.851 L 5.50522,-701.427 L 5.7191,-700.972
 L 5.87433,-700.495 L 5.96844,-700.001 L 6,-699.5 L 6,-590.5 L 5.96844,-589.999 L 5.87433,-589.505
 L 5.7191,-589.028 L 5.50522,-588.573 L 5.23605,-588.149 L 4.91586,-587.762 L 4.54968,-587.418 L 4.1433,-587.123
 L 3.70311,-586.881 L 3.23605,-586.696 L 2.74951,-586.571 L 2.25116,-586.508 z
M 3.4369,-456.089 L 4.04507,-456.245 L 4.62889,-456.476 L 5.17912,-456.778 L 5.68712,-457.147 L 6.14484,-457.577
 L 6.54507,-458.061 L 6.88153,-458.591 L 7.14888,-459.159 L 7.34291,-459.757 L 7.46057,-460.373 L 7.5,-461
 L 7.5,-571 L 7.46057,-571.627 L 7.34291,-572.243 L 7.14888,-572.841 L 6.88153,-573.409 L 6.54507,-573.939
 L 6.14484,-574.423 L 5.68712,-574.853 L 5.17912,-575.222 L 4.62889,-575.524 L 4.04507,-575.755 L 3.4369,-575.911
 L 2.81395,-575.99 L -2.81395,-575.99 L -3.4369,-575.911 L -4.04507,-575.755 L -4.62889,-575.524 L -5.17912,-575.222
 L -5.68712,-574.853 L -6.14484,-574.423 L -6.54507,-573.939 L -6.88153,-573.409 L -7.14888,-572.841 L -7.34291,-572.243
 L -7.46057,-571.627 L -7.5,-571 L -7.5,-461 L -7.46057,-460.373 L -7.34291,-459.757 L -7.14888,-459.159
 L -6.88153,-458.591 L -6.54507,-458.061 L -6.14484,-457.577 L -5.68712,-457.147 L -5.17912,-456.778 L -4.62889,-456.476
 L -4.04507,-456.245 L -3.4369,-456.089 L -2.81395,-456.01 L 2.81395,-456.01 z
M -2.19545,-458.393 L -2.5833,-458.442 L -2.96194,-458.539 L -3.32541,-458.683 L -3.66798,-458.872 L -3.98424,-459.101
 L -4.26921,-459.369 L -4.5184,-459.67 L -4.72786,-460 L -4.89432,-460.354 L -5.01512,-460.726 L -5.08836,-461.11
 L -5.11292,-461.5 L -5.11292,-570.5 L -5.08836,-570.89 L -5.01512,-571.274 L -4.89432,-571.646 L -4.72786,-572
 L -4.5184,-572.33 L -4.26921,-572.631 L -3.98424,-572.899 L -3.66798,-573.128 L -3.32541,-573.317 L -2.96194,-573.461
 L -2.5833,-573.558 L -2.19545,-573.607 L 2.19545,-573.607 L 2.5833,-573.558 L 2.96194,-573.461 L 3.32541,-573.317
 L 3.66798,-573.128 L 3.98424,-572.899 L 4.26921,-572.631 L 4.5184,-572.33 L 4.72786,-572 L 4.89432,-571.646
 L 5.01512,-571.274 L 5.08836,-570.89 L 5.11292,-570.5 L 5.11292,-461.5 L 5.08836,-461.11 L 5.01512,-460.726
 L 4.89432,-460.354 L 4.72786,-460 L 4.5184,-459.67 L 4.26921,-459.369 L 3.98424,-459.101 L 3.66798,-458.872
 L 3.32541,-458.683 L 2.96194,-458.539 L 2.5833,-458.442 L 2.19545,-458.393 z
M 3.4369,-327.089 L 4.04507,-327.245 L 4.62889,-327.476 L 5.17912,-327.778 L 5.68712,-328.147 L 6.14484,-328.577
 L 6.54507,-329.061 L 6.88153,-329.591 L 7.14888,-330.159 L 7.34291,-330.757 L 7.46057,-331.373 L 7.5,-332
 L 7.5,-442 L 7.46057,-442.627 L 7.34291,-443.243 L 7.14888,-443.841 L 6.88153,-444.409 L 6.54507,-444.939
 L 6.14484,-445.423 L 5.68712,-445.853 L 5.17912,-446.222 L 4.62889,-446.524 L 4.04507,-446.755 L 3.4369,-446.911
 L 2.81395,-446.99 L -2.81395,-446.99 L -3.4369,-446.911 L -4.04507,-446.755 L -4.62889,-446.524 L -5.17912,-446.222
 L -5.68712,-445.853 L -6.14484,-445.423 L -6.54507,-444.939 L -6.88153,-444.409 L -7.14888,-443.841 L -7.34291,-443.243
 L -7.46057,-442.627 L -7.5,-442 L -7.5,-332 L -7.46057,-331.373 L -7.34291,-330.757 L -7.14888,-330.159
 L -6.88153,-329.591 L -6.54507,-329.061 L -6.14484,-328.577 L -5.68712,-328.147 L -5.17912,-327.778 L -4.62889,-327.476
 L -4.04507,-327.245 L -3.4369,-327.089 L -2.81395,-327.01 L 2.81395,-327.01 z
M -0.134064,-437.369 L -0.400101,-437.403 L -0.659836,-437.469 L -0.909149,-437.568 L -1.14413,-437.697 L -1.36108,-437.855
 L -1.55655,-438.038 L -1.72748,-438.245 L -1.87117,-438.471 L -1.98534,-438.714 L -2.06821,-438.969 L -2.11845,-439.232
 L -2.13528,-439.5 L -2.11845,-439.768 L -2.06821,-440.031 L -1.98534,-440.286 L -1.87117,-440.529 L -1.72748,-440.755
 L -1.55655,-440.962 L -1.36108,-441.145 L -1.14413,-441.303 L -0.909149,-441.432 L -0.659836,-441.531 L -0.400101,-441.597
 L -0.134064,-441.631 L 0.134064,-441.631 L 0.400101,-441.597 L 0.659836,-441.531 L 0.909149,-441.432 L 1.14413,-441.303
 L 1.36108,-441.145 L 1.55655,-440.962 L 1.72748,-440.755 L 1.87117,-440.529 L 1.98534,-440.286 L 2.06821,-440.031
 L 2.11845,-439.768 L 2.13528,-439.5 L 2.11845,-439.232 L 2.06821,-438.969 L 1.98534,-438.714 L 1.87117,-438.471
 L 1.72748,-438.245 L 1.55655,-438.038 L 1.36108,-437.855 L 1.14413,-437.697 L 0.909149,-437.568 L 0.659836,-437.469
 L 0.400101,-437.403 L 0.134064,-437.369 z
M -0.134064,-332.369 L -0.400101,-332.403 L -0.659836,-332.469 L -0.909149,-332.568 L -1.14413,-332.697 L -1.36108,-332.855
 L -1.55655,-333.038 L -1.72748,-333.245 L -1.87117,-333.471 L -1.98534,-333.714 L -2.06821,-333.969 L -2.11845,-334.232
 L -2.13528,-334.5 L -2.11845,-334.768 L -2.06821,-335.031 L -1.98534,-335.286 L -1.87117,-335.529 L -1.72748,-335.755
 L -1.55655,-335.962 L -1.36108,-336.145 L -1.14413,-336.303 L -0.909149,-336.432 L -0.659836,-336.531 L -0.400101,-336.597
 L -0.134064,-336.631 L 0.134064,-336.631 L 0.400101,-336.597 L 0.659836,-336.531 L 0.909149,-336.432 L 1.14413,-336.303
 L 1.36108,-336.145 L 1.55655,-335.962 L 1.72748,-335.755 L 1.87117,-335.529 L 1.98534,-335.286 L 2.06821,-335.031
 L 2.11845,-334.768 L 2.13528,-334.5 L 2.11845,-334.232 L 2.06821,-333.969 L 1.98534,-333.714 L 1.87117,-333.471
 L 1.72748,-333.245 L 1.55655,-333.038 L 1.36108,-332.855 L 1.14413,-332.697 L 0.909149,-332.568 L 0.659836,-332.469
 L 0.400101,-332.403 L 0.134064,-332.369 z
" stroke="black" fill="lightgray" stroke-width="0.5"/>
</svg>
