<?xml version="1.0" standalone="no"?>
<!DOCTYPE svg PUBLIC "-//W3C//DTD SVG 1.1//EN" "http://www.w3.org/Graphics/SVG/1.1/DTD/svg11.dtd">
<svg width="46mm" height="40mm" viewBox="-23 -56 46 40" xmlns="http://www.w3.org/2000/svg" version="1.1">
<title>OpenSCAD Model</title>
<path d="
M 18.4369,-40.5886 L 19.0451,-40.7447 L 19.6289,-40.9759 L 20.1791,-41.2784 L 20.6871,-41.6474 L 21.1448,-42.0773
 L 21.5451,-42.5611 L 21.8815,-43.0912 L 22.1489,-43.6594 L 22.3429,-44.2566 L 22.4606,-44.8733 L 22.5,-45.5
 L 22.5,-50.5 L 22.4606,-51.1267 L 22.3429,-51.7434 L 22.1489,-52.3406 L 21.8815,-52.9088 L 21.5451,-53.4389
 L 21.1448,-53.9227 L 20.6871,-54.3526 L 20.1791,-54.7216 L 19.6289,-55.0241 L 19.0451,-55.2553 L 18.4369,-55.4114
 L 17.8139,-55.4901 L -17.8139,-55.4901 L -18.4369,-55.4114 L -19.0451,-55.2553 L -19.6289,-55.0241 L -20.1791,-54.7216
 L -20.6871,-54.3526 L -21.1448,-53.9227 L -21.5451,-53.4389 L -21.8815,-52.9088 L -22.1489,-52.3406 L -22.3429,-51.7434
 L -22.4606,-51.1267 L -22.5,-50.5 L -22.5,-45.5 L -22.4606,-44.8733 L -22.3429,-44.2566 L -22.1489,-43.6594
 L -21.8815,-43.0912 L -21.5451,-42.5611 L -21.1448,-42.0773 L -20.6871,-41.6474 L -20.1791,-41.2784 L -19.6289,-40.9759
 L -19.0451,-40.7447 L -18.4369,-40.5886 L -17.8139,-40.5099 L 17.8139,-40.5099 z
M -17.493,-41.8882 L -17.9751,-41.9491 L -18.4457,-42.0699 L -18.8975,-42.2488 L -19.3234,-42.4829 L -19.7165,-42.7685
 L -20.0707,-43.1012 L -20.3805,-43.4756 L -20.6408,-43.8859 L -20.8477,-44.3256 L -20.9979,-44.7877 L -21.089,-45.265
 L -21.1195,-45.75 L -21.1195,-50.25 L -21.089,-50.735 L -20.9979,-51.2123 L -20.8477,-51.6744 L -20.6408,-52.1141
 L -20.3805,-52.5244 L -20.0707,-52.8988 L -19.7165,-53.2315 L -19.3234,-53.5171 L -18.8975,-53.7512 L -18.4457,-53.9301
 L -17.9751,-54.0509 L -17.493,-54.1118 L 17.493,-54.1118 L 17.9751,-54.0509 L 18.4457,-53.9301 L 18.8975,-53.7512
 L 19.3234,-53.5171 L 19.7165,-53.2315 L 20.0707,-52.8988 L 20.3805,-52.5244 L 20.6408,-52.1141 L 20.8477,-51.6744
 L 20.9979,-51.2123 L 21.089,-50.735 L 21.1195,-50.25 L 21.1195,-45.75 L 21.089,-45.265 L 20.9979,-44.7877
 L 20.8477,-44.3256 L 20.6408,-43.8859 L 20.3805,-43.4756 L 20.0707,-43.1012 L 19.7165,-42.7685 L 19.3234,-42.4829
 L 18.8975,-42.2488 L 18.4457,-42.0699 L 17.9751,-41.9491 L 17.493,-41.8882 z
M 18.4369,-16.5886 L 19.0451,-16.7447 L 19.6289,-16.9759 L 20.1791,-17.2784 L 20.6871,-17.6474 L 21.1448,-18.0773
 L 21.5451,-18.5611 L 21.8815,-19.0912 L 22.1489,-19.6594 L 22.3429,-20.2566 L 22.4606,-20.8733 L 22.5,-21.5
 L 22.5,-26.5 L 22.4606,-27.1267 L 22.3429,-27.7434 L 22.1489,-28.3406 L 21.8815,-28.9088 L 21.5451,-29.4389
 L 21.1448,-29.9227 L 20.6871,-30.3526 L 20.1791,-30.7216 L 19.6289,-31.0241 L 19.0451,-31.2553 L 18.4369,-31.4114
 L 17.8139,-31.4901 L -17.8139,-31.4901 L -18.4369,-31.4114 L -19.0451,-31.2553 L -19.6289,-31.0241 L -20.1791,-30.7216
 L -20.6871,-30.3526 L -21.1448,-29.9227 L -21.5451,-29.4389 L -21.8815,-28.9088 L -22.1489,-28.3406 L -22.3429,-27.7434
 L -22.4606,-27.1267 L -22.5,-26.5 L -22.5,-21.5 L -22.4606,-20.8733 L -22.3429,-20.2566 L -22.1489,-19.6594
 L -21.8815,-19.0912 L -21.5451,-18.5611 L -21.1448,-18.0773 L -20.6871,-17.6474 L -20.1791,-17.2784 L -19.6289,-16.9759
 L -19.0451,-16.7447 L -18.4369,-16.5886 L -17.8139,-16.5099 L 17.8139,-16.5099 z
M -15.113,-22.2036 L -15.3373,-22.2319 L -15.5562,-22.2881 L -15.7664,-22.3713 L -15.9645,-22.4802 L -16.1474,-22.6131
 L -16.3121,-22.7678 L -16.4562,-22.942 L -16.5773,-23.1329 L -16.6736,-23.3374 L -16.7434,-23.5524 L -16.7858,-23.7744
 L -16.8,-24 L -16.7858,-24.2256 L -16.7434,-24.4476 L -16.6736,-24.6626 L -16.5773,-24.8671 L -16.4562,-25.058
 L -16.3121,-25.2322 L -16.1474,-25.3869 L -15.9645,-25.5198 L -15.7664,-25.6287 L -15.5562,-25.7119 L -15.3373,-25.7681
 L -15.113,-25.7964 L -14.887,-25.7964 L -14.6627,-25.7681 L -14.4438,-25.7119 L -14.2336,-25.6287 L -14.0355,-25.5198
 L -13.8526,-25.3869 L -13.6879,-25.2322 L -13.5438,-25.058 L -13.4226,-24.8671 L -13.3264,-24.6626 L -13.2565,-24.4476
 L -13.2142,-24.2256 L -13.2,-24 L -13.2142,-23.7744 L -13.2565,-23.5524 L -13.3264,-23.3374 L -13.4226,-23.1329
 L -13.5438,-22.942 L -13.6879,-22.7678 L -13.8526,-22.6131 L -14.0355,-22.4802 L -14.2336,-22.3713 L -14.4438,-22.2881
 L -14.6627,-22.2319 L -14.887,-22.2036 z
M 14.887,-22.2036 L 14.6627,-22.2319 L 14.4438,-22.2881 L 14.2336,-22.3713 L 14.0355,-22.4802 L 13.8526,-22.6131
 L 13.6879,-22.7678 L 13.5438,-22.942 L 13.4226,-23.1329 L 13.3264,-23.3374 L 13.2565,-23.5524 L 13.2142,-23.7744
 L 13.2,-24 L 13.2142,-24.2256 L 13.2565,-24.4476 L 13.3264,-24.6626 L 13.4226,-24.8671 L 13.5438,-25.058
 L 13.6879,-25.2322 L 13.8526,-25.3869 L 14.0355,-25.5198 L 14.2336,-25.6287 L 14.4438,-25.7119 L 14.6627,-25.7681
 L 14.887,-25.7964 L 15.113,-25.7964 L 15.3373,-25.7681 L 15.5562,-25.7119 L 15.7664,-25.6287 L 15.9645,-25.5198
 L 16.1474,-25.3869 L 16.3121,-25.2322 L 16.4562,-25.058 L 16.5773,-24.8671 L 16.6736,-24.6626 L 16.7434,-24.4476
 L 16.7858,-24.2256 L 16.8,-24 L 16.7858,-23.7744 L 16.7434,-23.5524 L 16.6736,-23.3374 L 16.5773,-23.1329
 L 16.4562,-22.942 L 16.3121,-22.7678 L 16.1474,-22.6131 L 15.9645,-22.4802 L 15.7664,-22.3713 L 15.5562,-22.2881
 L 15.3373,-22.2319 L 15.113,-22.2036 z
" stroke="black" fill="lightgray" stroke-width="0.5"/>
</svg>
