<?xml version="1.0" standalone="no"?>
<!DOCTYPE svg PUBLIC "-//W3C//DTD SVG 1.1//EN" "http://www.w3.org/Graphics/SVG/1.1/DTD/svg11.dtd">
<svg width="30mm" height="558mm" viewBox="-15 -1035 30 558" xmlns="http://www.w3.org/2000/svg" version="1.1">
<title>OpenSCAD Model</title>
<path d="
M 10.9369,-855.089 L 11.5451,-855.245 L 12.1289,-855.476 L 12.6791,-855.778 L 13.1871,-856.147 L 13.6448,-856.577
 L 14.0451,-857.061 L 14.3815,-857.591 L 14.6489,-858.159 L 14.8429,-858.757 L 14.9606,-859.373 L 15,-860
 L 15,-1030 L 14.9606,-1030.63 L 14.8429,-1031.24 L 14.6489,-1031.84 L 14.3815,-1032.41 L 14.0451,-1032.94
 L 13.6448,-1033.42 L 13.1871,-1033.85 L 12.6791,-1034.22 L 12.1289,-1034.52 L 11.5451,-1034.76 L 10.9369,-1034.91
 L 10.3139,-1034.99 L -10.3139,-1034.99 L -10.9369,-1034.91 L -11.5451,-1034.76 L -12.1289,-1034.52 L -12.6791,-1034.22
 L -13.1871,-1033.85 L -13.6448,-1033.42 L -14.0451,-1032.94 L -14.3815,-1032.41 L -14.6489,-1031.84 L -14.8429,-1031.24
 L -14.9606,-1030.63 L -15,-1030 L -15,-860 L -14.9606,-859.373 L -14.8429,-858.757 L -14.6489,-858.159
 L -14.3815,-857.591 L -14.0451,-857.061 L -13.6448,-856.577 L -13.1871,-856.147 L -12.6791,-855.778 L -12.1289,-855.476
 L -11.5451,-855.245 L -10.9369,-855.089 L -10.3139,-855.01 L 10.3139,-855.01 z
M -9.75116,-856.508 L -10.2495,-856.571 L -10.7361,-856.696 L -11.2031,-856.881 L -11.6433,-857.123 L -12.0497,-857.418
 L -12.4159,-857.762 L -12.7361,-858.149 L -13.0052,-858.573 L -13.2191,-859.028 L -13.3743,-859.505 L -13.4684,-859.999
 L -13.5,-860.5 L -13.5,-1029.5 L -13.4684,-1030 L -13.3743,-1030.49 L -13.2191,-1030.97 L -13.0052,-1031.43
 L -12.7361,-1031.85 L -12.4159,-1032.24 L -12.0497,-1032.58 L -11.6433,-1032.88 L -11.2031,-1033.12 L -10.7361,-1033.3
 L -10.2495,-1033.43 L -9.75116,-1033.49 L 9.75116,-1033.49 L 10.2495,-1033.43 L 10.7361,-1033.3 L 11.2031,-1033.12
 L 11.6433,-1032.88 L 12.0497,-1032.58 L 12.4159,-1032.24 L 12.7361,-1031.85 L 13.0052,-1031.43 L 13.2191,-1030.97
 L 13.3743,-1030.49 L 13.4684,-1030 L 13.5,-1029.5 L 13.5,-860.5 L 13.4684,-859.999 L 13.3743,-859.505
 L 13.2191,-859.028 L 13.0052,-858.573 L 12.7361,-858.149 L 12.4159,-857.762 L 12.0497,-857.418 L 11.6433,-857.123
 L 11.2031,-856.881 L 10.7361,-856.696 L 10.2495,-856.571 L 9.75116,-856.508 z
M 10.9369,-666.089 L 11.5451,-666.245 L 12.1289,-666.476 L 12.6791,-666.778 L 13.1871,-667.147 L 13.6448,-667.577
 L 14.0451,-668.061 L 14.3815,-668.591 L 14.6489,-669.159 L 14.8429,-669.757 L 14.9606,-670.373 L 15,-671
 L 15,-841 L 14.9606,-841.627 L 14.8429,-842.243 L 14.6489,-842.841 L 14.3815,-843.409 L 14.0451,-843.939
 L 13.6448,-844.423 L 13.1871,-844.853 L 12.6791,-845.222 L 12.1289,-845.524 L 11.5451,-845.755 L 10.9369,-845.911
 L 10.3139,-845.99 L -10.3139,-845.99 L -10.9369,-845.911 L -11.5451,-845.755 L -12.1289,-845.524 L -12.6791,-845.222
 L -13.1871,-844.853 L -13.6448,-844.423 L -14.0451,-843.939 L -14.3815,-843.409 L -14.6489,-842.841 L -14.8429,-842.243
 L -14.9606,-841.627 L -15,-841 L -15,-671 L -14.9606,-670.373 L -14.8429,-669.757 L -14.6489,-669.159
 L -14.3815,-668.591 L -14.0451,-668.061 L -13.6448,-667.577 L -13.1871,-667.147 L -12.6791,-666.778 L -12.1289,-666.476
 L -11.5451,-666.245 L -10.9369,-666.089 L -10.3139,-666.01 L 10.3139,-666.01 z
M -9.69545,-668.393 L -10.0833,-668.442 L -10.4619,-668.539 L -10.8254,-668.683 L -11.168,-668.872 L -11.4842,-669.101
 L -11.7692,-669.369 L -12.0184,-669.67 L -12.2279,-670 L -12.3943,-670.354 L -12.5151,-670.726 L -12.5884,-671.11
 L -12.6129,-671.5 L -12.6129,-840.5 L -12.5884,-840.89 L -12.5151,-841.274 L -12.3943,-841.646 L -12.2279,-842
 L -12.0184,-842.33 L -11.7692,-842.631 L -11.4842,-842.899 L -11.168,-843.128 L -10.8254,-843.317 L -10.4619,-843.461
 L -10.0833,-843.558 L -9.69545,-843.607 L 9.69545,-843.607 L 10.0833,-843.558 L 10.4619,-843.461 L 10.8254,-843.317
 L 11.168,-843.128 L 11.4842,-842.899 L 11.7692,-842.631 L 12.0184,-842.33 L 12.2279,-842 L 12.3943,-841.646
 L 12.5151,-841.274 L 12.5884,-840.89 L 12.6129,-840.5 L 12.6129,-671.5 L 12.5884,-671.11 L 12.5151,-670.726
 L 12.3943,-670.354 L 12.2279,-670 L 12.0184,-669.67 L 11.7692,-669.369 L 11.4842,-669.101 L 11.168,-668.872
 L 10.8254,-668.683 L 10.4619,-668.539 L 10.0833,-668.442 L 9.69545,-668.393 z
M 10.9369,-477.089 L 11.5451,-477.245 L 12.1289,-477.476 L 12.6791,-477.778 L 13.1871,-478.147 L 13.6448,-478.577
 L 14.0451,-479.061 L 14.3815,-479.591 L 14.6489,-480.159 L 14.8429,-480.757 L 14.9606,-481.373 L 15,-482
 L 15,-652 L 14.9606,-652.627 L 14.8429,-653.243 L 14.6489,-653.841 L 14.3815,-654.409 L 14.0451,-654.939
 L 13.6448,-655.423 L 13.1871,-655.853 L 12.6791,-656.222 L 12.1289,-656.524 L 11.5451,-656.755 L 10.9369,-656.911
 L 10.3139,-656.99 L -10.3139,-656.99 L -10.9369,-656.911 L -11.5451,-656.755 L -12.1289,-656.524 L -12.6791,-656.222
 L -13.1871,-655.853 L -13.6448,-655.423 L -14.0451,-654.939 L -14.3815,-654.409 L -14.6489,-653.841 L -14.8429,-653.243
 L -14.9606,-652.627 L -15,-652 L -15,-482 L -14.9606,-481.373 L -14.8429,-480.757 L -14.6489,-480.159
 L -14.3815,-479.591 L -14.0451,-479.061 L -13.6448,-478.577 L -13.1871,-478.147 L -12.6791,-477.778 L -12.1289,-477.476
 L -11.5451,-477.245 L -10.9369,-477.089 L -10.3139,-477.01 L 10.3139,-477.01 z
M 7.36592,-647.369 L 7.09988,-647.403 L 6.84015,-647.469 L 6.59084,-647.568 L 6.35585,-647.697 L 6.1389,-647.855
 L 5.94344,-648.038 L 5.77251,-648.245 L 5.62881,-648.471 L 5.51465,-648.714 L 5.43178,-648.969 L 5.38153,-649.232
 L 5.3647,-649.5 L 5.38153,-649.768 L 5.43178,-650.031 L 5.51465,-650.286 L 5.62881,-650.529 L 5.77251,-650.755
 L 5.94344,-650.962 L 6.1389,-651.145 L 6.35585,-651.303 L 6.59084,-651.432 L 6.84015,-651.531 L 7.09988,-651.597
 L 7.36592,-651.631 L 7.63406,-651.631 L 7.9001,-651.597 L 8.15984,-651.531 L 8.40915,-651.432 L 8.64413,-651.303
 L 8.86108,-651.145 L 9.05655,-650.962 L 9.22748,-650.755 L 9.37117,-650.529 L 9.48534,-650.286 L 9.56821,-650.031
 L 9.61845,-649.768 L 9.63528,-649.5 L 9.61845,-649.232 L 9.56821,-648.969 L 9.48534,-648.714 L 9.37117,-648.471
 L 9.22748,-648.245 L 9.05655,-648.038 L 8.86108,-647.855 L 8.64413,-647.697 L 8.40915,-647.568 L 8.15984,-647.469
 L 7.9001,-647.403 L 7.63406,-647.369 z
M -7.63406,-647.369 L -7.9001,-647.403 L -8.15984,-647.469 L -8.40915,-647.568 L -8.64413,-647.697 L -8.86108,-647.855
 L -9.05655,-648.038 L -9.22748,-648.245 L -9.37117,-648.471 L -9.48534,-648.714 L -9.56821,-648.969 L -9.61845,-649.232
 L -9.63528,-649.5 L -9.61845,-649.768 L -9.56821,-650.031 L -9.48534,-650.286 L -9.37117,-650.529 L -9.22748,-650.755
 L -9.05655,-650.962 L -8.86108,-651.145 L -8.64413,-651.303 L -8.40915,-651.432 L -8.15984,-651.531 L -7.9001,-651.597
 L -7.63406,-651.631 L -7.36592,-651.631 L -7.09988,-651.597 L -6.84015,-651.531 L -6.59084,-651.432 L -6.35585,-651.303
 L -6.1389,-651.145 L -5.94344,-650.962 L -5.77251,-650.755 L -5.62881,-650.529 L -5.51465,-650.286 L -5.43178,-650.031
 L -5.38153,-649.768 L -5.3647,-649.5 L -5.38153,-649.232 L -5.43178,-648.969 L -5.51465,-648.714 L -5.62881,-648.471
 L -5.77251,-648.245 L -5.94344,-648.038 L -6.1389,-647.855 L -6.35585,-647.697 L -6.59084,-647.568 L -6.84015,-647.469
 L -7.09988,-647.403 L -7.36592,-647.369 z
M 7.36592,-482.369 L 7.09988,-482.403 L 6.84015,-482.469 L 6.59084,-482.568 L 6.35585,-482.697 L 6.1389,-482.855
 L 5.94344,-483.038 L 5.77251,-483.245 L 5.62881,-483.471 L 5.51465,-483.714 L 5.43178,-483.969 L 5.38153,-484.232
 L 5.3647,-484.5 L 5.38153,-484.768 L 5.43178,-485.031 L 5.51465,-485.286 L 5.62881,-485.529 L 5.77251,-485.755
 L 5.94344,-485.962 L 6.1389,-486.145 L 6.35585,-486.303 L 6.59084,-486.432 L 6.84015,-486.531 L 7.09988,-486.597
 L 7.36592,-486.631 L 7.63406,-486.631 L 7.9001,-486.597 L 8.15984,-486.531 L 8.40915,-486.432 L 8.64413,-486.303
 L 8.86108,-486.145 L 9.05655,-485.962 L 9.22748,-485.755 L 9.37117,-485.529 L 9.48534,-485.286 L 9.56821,-485.031
 L 9.61845,-484.768 L 9.63528,-484.5 L 9.61845,-484.232 L 9.56821,-483.969 L 9.48534,-483.714 L 9.37117,-483.471
 L 9.22748,-483.245 L 9.05655,-483.038 L 8.86108,-482.855 L 8.64413,-482.697 L 8.40915,-482.568 L 8.15984,-482.469
 L 7.9001,-482.403 L 7.63406,-482.369 z
M -7.63406,-482.369 L -7.9001,-482.403 L -8.15984,-482.469 L -8.40915,-482.568 L -8.64413,-482.697 L -8.86108,-482.855
 L -9.05655,-483.038 L -9.22748,-483.245 L -9.37117,-483.471 L -9.48534,-483.714 L -9.56821,-483.969 L -9.61845,-484.232
 L -9.63528,-484.5 L -9.61845,-484.768 L -9.56821,-485.031 L -9.48534,-485.286 L -9.37117,-485.529 L -9.22748,-485.755
 L -9.05655,-485.962 L -8.86108,-486.145 L -8.64413,-486.303 L -8.40915,-486.432 L -8.15984,-486.531 L -7.9001,-486.597
 L -7.63406,-486.631 L -7.36592,-486.631 L -7.09988,-486.597 L -6.84015,-486.531 L -6.59084,-486.432 L -6.35585,-486.303
 L -6.1389,-486.145 L -5.94344,-485.962 L -5.77251,-485.755 L -5.62881,-485.529 L -5.51465,-485.286 L -5.43178,-485.031
 L -5.38153,-484.768 L -5.3647,-484.5 L -5.38153,-484.232 L -5.43178,-483.969 L -5.51465,-483.714 L -5.62881,-483.471
 L -5.77251,-483.245 L -5.94344,-483.038 L -6.1389,-482.855 L -6.35585,-482.697 L -6.59084,-482.568 L -6.84015,-482.469
 L -7.09988,-482.403 L -7.36592,-482.369 z
" stroke="black" fill="lightgray" stroke-width="0.5"/>
</svg>
