<?xml version="1.0" standalone="no"?>
<!DOCTYPE svg PUBLIC "-//W3C//DTD SVG 1.1//EN" "http://www.w3.org/Graphics/SVG/1.1/DTD/svg11.dtd">
<svg width="16mm" height="514mm" viewBox="-8 -953 16 514" xmlns="http://www.w3.org/2000/svg" version="1.1">
<title>OpenSCAD Model</title>
<path d="
M 3.4369,-787.589 L 4.04507,-787.745 L 4.62889,-787.976 L 5.17912,-788.278 L 5.68712,-788.647 L 6.14484,-789.077
 L 6.54507,-789.561 L 6.88153,-790.091 L 7.14888,-790.659 L 7.34291,-791.257 L 7.46057,-791.873 L 7.5,-792.5
 L 7.5,-947.5 L 7.46057,-948.127 L 7.34291,-948.743 L 7.14888,-949.341 L 6.88153,-949.909 L 6.54507,-950.439
 L 6.14484,-950.923 L 5.68712,-951.353 L 5.17912,-951.722 L 4.62889,-952.024 L 4.04507,-952.255 L 3.4369,-952.411
 L 2.81395,-952.49 L -2.81395,-952.49 L -3.4369,-952.411 L -4.04507,-952.255 L -4.62889,-952.024 L -5.17912,-951.722
 L -5.68712,-951.353 L -6.14484,-950.923 L -6.54507,-950.439 L -6.88153,-949.909 L -7.14888,-949.341 L -7.34291,-948.743
 L -7.46057,-948.127 L -7.5,-947.5 L -7.5,-792.5 L -7.46057,-791.873 L -7.34291,-791.257 L -7.14888,-790.659
 L -6.88153,-790.091 L -6.54507,-789.561 L -6.14484,-789.077 L -5.68712,-788.647 L -5.17912,-788.278 L -4.62889,-787.976
 L -4.04507,-787.745 L -3.4369,-787.589 L -2.81395,-787.51 L 2.81395,-787.51 z
M -2.25116,-789.008 L -2.74951,-789.071 L -3.23605,-789.196 L -3.70311,-789.381 L -4.1433,-789.623 L -4.54968,-789.918
 L -4.91586,-790.262 L -5.23605,-790.649 L -5.50522,-791.073 L -5.7191,-791.528 L -5.87433,-792.005 L -5.96844,-792.499
 L -6,-793 L -6,-947 L -5.96844,-947.501 L -5.87433,-947.995 L -5.7191,-948.472 L -5.50522,-948.927
 L -5.23605,-949.351 L -4.91586,-949.738 L -4.54968,-950.082 L -4.1433,-950.377 L -3.70311,-950.619 L -3.23605,-950.804
 L -2.74951,-950.929 L -2.25116,-950.992 L 2.25116,-950.992 L 2.74951,-950.929 L 3.23605,-950.804 L 3.70311,-950.619
 L 4.1433,-950.377 L 4.54968,-950.082 L 4.91586,-949.738 L 5.23605,-949.351 L 5.50522,-948.927 L 5.7191,-948.472
 L 5.87433,-947.995 L 5.96844,-947.501 L 6,-947 L 6,-793 L 5.96844,-792.499 L 5.87433,-792.005
 L 5.7191,-791.528 L 5.50522,-791.073 L 5.23605,-790.649 L 4.91586,-790.262 L 4.54968,-789.918 L 4.1433,-789.623
 L 3.70311,-789.381 L 3.23605,-789.196 L 2.74951,-789.071 L 2.25116,-789.008 z
M 3.4369,-613.589 L 4.04507,-613.745 L 4.62889,-613.976 L 5.17912,-614.278 L 5.68712,-614.647 L 6.14484,-615.077
 L 6.54507,-615.561 L 6.88153,-616.091 L 7.14888,-616.659 L 7.34291,-617.257 L 7.46057,-617.873 L 7.5,-618.5
 L 7.5,-773.5 L 7.46057,-774.127 L 7.34291,-774.743 L 7.14888,-775.341 L 6.88153,-775.909 L 6.54507,-776.439
 L 6.14484,-776.923 L 5.68712,-777.353 L 5.17912,-777.722 L 4.62889,-778.024 L 4.04507,-778.255 L 3.4369,-778.411
 L 2.81395,-778.49 L -2.81395,-778.49 L -3.4369,-778.411 L -4.04507,-778.255 L -4.62889,-778.024 L -5.17912,-777.722
 L -5.68712,-777.353 L -6.14484,-776.923 L -6.54507,-776.439 L -6.88153,-775.909 L -7.14888,-775.341 L -7.34291,-774.743
 L -7.46057,-774.127 L -7.5,-773.5 L -7.5,-618.5 L -7.46057,-617.873 L -7.34291,-617.257 L -7.14888,-616.659
 L -6.88153,-616.091 L -6.54507,-615.561 L -6.14484,-615.077 L -5.68712,-614.647 L -5.17912,-614.278 L -4.62889,-613.976
 L -4.04507,-613.745 L -3.4369,-613.589 L -2.81395,-613.51 L 2.81395,-613.51 z
M -2.19545,-615.893 L -2.5833,-615.942 L -2.96194,-616.039 L -3.32541,-616.183 L -3.66798,-616.372 L -3.98424,-616.601
 L -4.26921,-616.869 L -4.5184,-617.17 L -4.72786,-617.5 L -4.89432,-617.854 L -5.01512,-618.226 L -5.08836,-618.61
 L -5.11292,-619 L -5.11292,-773 L -5.08836,-773.39 L -5.01512,-773.774 L -4.89432,-774.146 L -4.72786,-774.5
 L -4.5184,-774.83 L -4.26921,-775.131 L -3.98424,-775.399 L -3.66798,-775.628 L -3.32541,-775.817 L -2.96194,-775.961
 L -2.5833,-776.058 L -2.19545,-776.107 L 2.19545,-776.107 L 2.5833,-776.058 L 2.96194,-775.961 L 3.32541,-775.817
 L 3.66798,-775.628 L 3.98424,-775.399 L 4.26921,-775.131 L 4.5184,-774.83 L 4.72786,-774.5 L 4.89432,-774.146
 L 5.01512,-773.774 L 5.08836,-773.39 L 5.11292,-773 L 5.11292,-619 L 5.08836,-618.61 L 5.01512,-618.226
 L 4.89432,-617.854 L 4.72786,-617.5 L 4.5184,-617.17 L 4.26921,-616.869 L 3.98424,-616.601 L 3.66798,-616.372
 L 3.32541,-616.183 L 2.96194,-616.039 L 2.5833,-615.942 L 2.19545,-615.893 z
M 3.4369,-439.589 L 4.04507,-439.745 L 4.62889,-439.976 L 5.17912,-440.278 L 5.68712,-440.647 L 6.14484,-441.077
 L 6.54507,-441.561 L 6.88153,-442.091 L 7.14888,-442.659 L 7.34291,-443.257 L 7.46057,-443.873 L 7.5,-444.5
 L 7.5,-599.5 L 7.46057,-600.127 L 7.34291,-600.743 L 7.14888,-601.341 L 6.88153,-601.909 L 6.54507,-602.439
 L 6.14484,-602.923 L 5.68712,-603.353 L 5.17912,-603.722 L 4.62889,-604.024 L 4.04507,-604.255 L 3.4369,-604.411
 L 2.81395,-604.49 L -2.81395,-604.49 L -3.4369,-604.411 L -4.04507,-604.255 L -4.62889,-604.024 L -5.17912,-603.722
 L -5.68712,-603.353 L -6.14484,-602.923 L -6.54507,-602.439 L -6.88153,-601.909 L -7.14888,-601.341 L -7.34291,-600.743
 L -7.46057,-600.127 L -7.5,-599.5 L -7.5,-444.5 L -7.46057,-443.873 L -7.34291,-443.257 L -7.14888,-442.659
 L -6.88153,-442.091 L -6.54507,-441.561 L -6.14484,-441.077 L -5.68712,-440.647 L -5.17912,-440.278 L -4.62889,-439.976
 L -4.04507,-439.745 L -3.4369,-439.589 L -2.81395,-439.51 L 2.81395,-439.51 z
M -0.134064,-594.869 L -0.400101,-594.903 L -0.659836,-594.969 L -0.909149,-595.068 L -1.14413,-595.197 L -1.36108,-595.355
 L -1.55655,-595.538 L -1.72748,-595.745 L -1.87117,-595.971 L -1.98534,-596.214 L -2.06821,-596.469 L -2.11845,-596.732
 L -2.13528,-597 L -2.11845,-597.268 L -2.06821,-597.531 L -1.98534,-597.786 L -1.87117,-598.029 L -1.72748,-598.255
 L -1.55655,-598.462 L -1.36108,-598.645 L -1.14413,-598.803 L -0.909149,-598.932 L -0.659836,-599.031 L -0.400101,-599.097
 L -0.134064,-599.131 L 0.134064,-599.131 L 0.400101,-599.097 L 0.659836,-599.031 L 0.909149,-598.932 L 1.14413,-598.803
 L 1.36108,-598.645 L 1.55655,-598.462 L 1.72748,-598.255 L 1.87117,-598.029 L 1.98534,-597.786 L 2.06821,-597.531
 L 2.11845,-597.268 L 2.13528,-597 L 2.11845,-596.732 L 2.06821,-596.469 L 1.98534,-596.214 L 1.87117,-595.971
 L 1.72748,-595.745 L 1.55655,-595.538 L 1.36108,-595.355 L 1.14413,-595.197 L 0.909149,-595.068 L 0.659836,-594.969
 L 0.400101,-594.903 L 0.134064,-594.869 z
M -0.134064,-444.869 L -0.400101,-444.903 L -0.659836,-444.969 L -0.909149,-445.068 L -1.14413,-445.197 L -1.36108,-445.355
 L -1.55655,-445.538 L -1.72748,-445.745 L -1.87117,-445.971 L -1.98534,-446.214 L -2.06821,-446.469 L -2.11845,-446.732
 L -2.13528,-447 L -2.11845,-447.268 L -2.06821,-447.531 L -1.98534,-447.786 L -1.87117,-448.029 L -1.72748,-448.255
 L -1.55655,-448.462 L -1.36108,-448.645 L -1.14413,-448.803 L -0.909149,-448.932 L -0.659836,-449.031 L -0.400101,-449.097
 L -0.134064,-449.131 L 0.134064,-449.131 L 0.400101,-449.097 L 0.659836,-449.031 L 0.909149,-448.932 L 1.14413,-448.803
 L 1.36108,-448.645 L 1.55655,-448.462 L 1.72748,-448.255 L 1.87117,-448.029 L 1.98534,-447.786 L 2.06821,-447.531
 L 2.11845,-447.268 L 2.13528,-447 L 2.11845,-446.732 L 2.06821,-446.469 L 1.98534,-446.214 L 1.87117,-445.971
 L 1.72748,-445.745 L 1.55655,-445.538 L 1.36108,-445.355 L 1.14413,-445.197 L 0.909149,-445.068 L 0.659836,-444.969
 L 0.400101,-444.903 L 0.134064,-444.869 z
" stroke="black" fill="lightgray" stroke-width="0.5"/>
</svg>
