<?xml version="1.0" standalone="no"?>
<!DOCTYPE svg PUBLIC "-//W3C//DTD SVG 1.1//EN" "http://www.w3.org/Graphics/SVG/1.1/DTD/svg11.dtd">
<svg width="134mm" height="134mm" viewBox="-67 -355 134 134" xmlns="http://www.w3.org/2000/svg" version="1.1">
<title>OpenSCAD Model</title>
<path d="
M 50.25,-354.99 L 21.4645,-354.99 L 24.4547,-352 L 50.25,-352 z
M 62.9369,-221.089 L 63.5451,-221.245 L 64.1289,-221.476 L 64.6791,-221.778 L 65.1871,-222.147 L 65.6448,-222.577
 L 66.0451,-223.061 L 66.3815,-223.591 L 66.6489,-224.159 L 66.8429,-224.757 L 66.9606,-225.373 L 67,-226
 L 67,-350 L 20.9837,-350 L 27.8885,-347.266 L 35.0966,-343.303 L 41.7513,-338.469 L 47.7474,-332.838
 L 52.9906,-326.5 L 57.3981,-319.555 L 60.9004,-312.112 L 63.4422,-304.289 L 64.9835,-296.209 L 65.5,-288
 L 64.9835,-279.791 L 63.4422,-271.711 L 60.9004,-263.888 L 57.3981,-256.445 L 52.9906,-249.5 L 47.7474,-243.162
 L 41.7513,-237.531 L 35.0966,-232.697 L 27.8885,-228.734 L 20.2406,-225.706 L 12.2735,-223.66 L 4.11278,-222.629
 L -4.11278,-222.629 L -12.2735,-223.66 L -20.2406,-225.706 L -27.8885,-228.734 L -35.0966,-232.697 L -41.7513,-237.531
 L -47.7474,-243.162 L -52.9906,-249.5 L -57.3981,-256.445 L -60.9004,-263.888 L -63.4422,-271.711 L -64.9835,-279.791
 L -65.5,-288 L -64.9835,-296.209 L -63.4422,-304.289 L -60.9004,-312.112 L -57.3981,-319.555 L -52.9906,-326.5
 L -47.7474,-332.838 L -41.7513,-338.469 L -35.0966,-343.303 L -27.8885,-347.266 L -20.2406,-350.294 L -12.2735,-352.34
 L -4.11278,-353.371 L 4.11278,-353.371 L 12.2735,-352.34 L 13.597,-352 L 22.3333,-352 L 19.3432,-354.99
 L -62.3139,-354.99 L -62.9369,-354.911 L -63.5451,-354.755 L -64.1289,-354.524 L -64.6791,-354.222 L -65.1871,-353.853
 L -65.6448,-353.423 L -66.0451,-352.939 L -66.3815,-352.409 L -66.6489,-351.841 L -66.8429,-351.243 L -66.8905,-350.994
 L -59.8116,-350.994 L -59.4379,-350.947 L -59.0729,-350.853 L -58.7227,-350.714 L -58.3925,-350.533 L -58.0877,-350.312
 L -57.8131,-350.054 L -57.5729,-349.763 L -57.3711,-349.445 L -57.2107,-349.104 L -57.0942,-348.746 L -57.0237,-348.376
 L -57,-348 L -57.0237,-347.624 L -57.0942,-347.254 L -57.2107,-346.896 L -57.3711,-346.555 L -57.5729,-346.237
 L -57.8131,-345.946 L -58.0877,-345.688 L -58.3925,-345.467 L -58.7227,-345.286 L -59.0729,-345.147 L -59.4379,-345.053
 L -59.8116,-345.006 L -67,-345.006 L -67,-230.994 L -59.8116,-230.994 L -59.4379,-230.947 L -59.0729,-230.853
 L -58.7227,-230.714 L -58.3925,-230.533 L -58.0877,-230.312 L -57.8131,-230.054 L -57.5729,-229.763 L -57.3711,-229.445
 L -57.2107,-229.104 L -57.0942,-228.746 L -57.0237,-228.376 L -57,-228 L -57.0237,-227.624 L -57.0942,-227.254
 L -57.2107,-226.896 L -57.3711,-226.555 L -57.5729,-226.237 L -57.8131,-225.946 L -58.0877,-225.688 L -58.3925,-225.467
 L -58.7227,-225.286 L -59.0729,-225.147 L -59.4379,-225.053 L -59.8116,-225.006 L -66.8905,-225.006 L -66.8429,-224.757
 L -66.6489,-224.159 L -66.3815,-223.591 L -66.0451,-223.061 L -65.6448,-222.577 L -65.1871,-222.147 L -64.6791,-221.778
 L -64.1289,-221.476 L -63.5451,-221.245 L -62.9369,-221.089 L -62.3139,-221.01 L 62.3139,-221.01 z
M 59.8116,-225.006 L 59.4379,-225.053 L 59.0729,-225.147 L 58.7227,-225.286 L 58.3925,-225.467 L 58.0877,-225.688
 L 57.8131,-225.946 L 57.5729,-226.237 L 57.3711,-226.555 L 57.2107,-226.896 L 57.0942,-227.254 L 57.0237,-227.624
 L 57,-228 L 57.0237,-228.376 L 57.0942,-228.746 L 57.2107,-229.104 L 57.3711,-229.445 L 57.5729,-229.763
 L 57.8131,-230.054 L 58.0877,-230.312 L 58.3925,-230.533 L 58.7227,-230.714 L 59.0729,-230.853 L 59.4379,-230.947
 L 59.8116,-230.994 L 60.1884,-230.994 L 60.5621,-230.947 L 60.927,-230.853 L 61.2773,-230.714 L 61.6075,-230.533
 L 61.9123,-230.312 L 62.1869,-230.054 L 62.427,-229.763 L 62.6289,-229.445 L 62.7893,-229.104 L 62.9057,-228.746
 L 62.9763,-228.376 L 63,-228 L 62.9763,-227.624 L 62.9057,-227.254 L 62.7893,-226.896 L 62.6289,-226.555
 L 62.427,-226.237 L 62.1869,-225.946 L 61.9123,-225.688 L 61.6075,-225.467 L 61.2773,-225.286 L 60.927,-225.147
 L 60.5621,-225.053 L 60.1884,-225.006 z
" stroke="black" fill="lightgray" stroke-width="0.5"/>
</svg>
