<?xml version="1.0" standalone="no"?>
<!DOCTYPE svg PUBLIC "-//W3C//DTD SVG 1.1//EN" "http://www.w3.org/Graphics/SVG/1.1/DTD/svg11.dtd">
<svg width="30mm" height="424mm" viewBox="-15 -644 30 424" xmlns="http://www.w3.org/2000/svg" version="1.1">
<title>OpenSCAD Model</title>
<path d="
M 10.9369,-508.589 L 11.5451,-508.745 L 12.1289,-508.976 L 12.6791,-509.278 L 13.1871,-509.647 L 13.6448,-510.077
 L 14.0451,-510.561 L 14.3815,-511.091 L 14.6489,-511.659 L 14.8429,-512.257 L 14.9606,-512.873 L 15,-513.5
 L 15,-638.5 L 14.9606,-639.127 L 14.8429,-639.743 L 14.6489,-640.341 L 14.3815,-640.909 L 14.0451,-641.439
 L 13.6448,-641.923 L 13.1871,-642.353 L 12.6791,-642.722 L 12.1289,-643.024 L 11.5451,-643.255 L 10.9369,-643.411
 L 10.3139,-643.49 L -10.3139,-643.49 L -10.9369,-643.411 L -11.5451,-643.255 L -12.1289,-643.024 L -12.6791,-642.722
 L -13.1871,-642.353 L -13.6448,-641.923 L -14.0451,-641.439 L -14.3815,-640.909 L -14.6489,-640.341 L -14.8429,-639.743
 L -14.9606,-639.127 L -15,-638.5 L -15,-513.5 L -14.9606,-512.873 L -14.8429,-512.257 L -14.6489,-511.659
 L -14.3815,-511.091 L -14.0451,-510.561 L -13.6448,-510.077 L -13.1871,-509.647 L -12.6791,-509.278 L -12.1289,-508.976
 L -11.5451,-508.745 L -10.9369,-508.589 L -10.3139,-508.51 L 10.3139,-508.51 z
M -9.74316,-510.135 L -10.2256,-510.196 L -10.6967,-510.317 L -11.1489,-510.496 L -11.5751,-510.73 L -11.9685,-511.016
 L -12.323,-511.349 L -12.633,-511.724 L -12.8936,-512.134 L -13.1007,-512.574 L -13.251,-513.037 L -13.3421,-513.515
 L -13.3726,-514 L -13.3726,-638 L -13.3421,-638.485 L -13.251,-638.963 L -13.1007,-639.426 L -12.8936,-639.866
 L -12.633,-640.276 L -12.323,-640.651 L -11.9685,-640.984 L -11.5751,-641.27 L -11.1489,-641.504 L -10.6967,-641.683
 L -10.2256,-641.804 L -9.74316,-641.865 L 9.74316,-641.865 L 10.2256,-641.804 L 10.6967,-641.683 L 11.1489,-641.504
 L 11.5751,-641.27 L 11.9685,-640.984 L 12.323,-640.651 L 12.633,-640.276 L 12.8936,-639.866 L 13.1007,-639.426
 L 13.251,-638.963 L 13.3421,-638.485 L 13.3726,-638 L 13.3726,-514 L 13.3421,-513.515 L 13.251,-513.037
 L 13.1007,-512.574 L 12.8936,-512.134 L 12.633,-511.724 L 12.323,-511.349 L 11.9685,-511.016 L 11.5751,-510.73
 L 11.1489,-510.496 L 10.6967,-510.317 L 10.2256,-510.196 L 9.74316,-510.135 z
M 10.9369,-364.589 L 11.5451,-364.745 L 12.1289,-364.976 L 12.6791,-365.278 L 13.1871,-365.647 L 13.6448,-366.077
 L 14.0451,-366.561 L 14.3815,-367.091 L 14.6489,-367.659 L 14.8429,-368.257 L 14.9606,-368.873 L 15,-369.5
 L 15,-494.5 L 14.9606,-495.127 L 14.8429,-495.743 L 14.6489,-496.341 L 14.3815,-496.909 L 14.0451,-497.439
 L 13.6448,-497.923 L 13.1871,-498.353 L 12.6791,-498.722 L 12.1289,-499.024 L 11.5451,-499.255 L 10.9369,-499.411
 L 10.3139,-499.49 L -10.3139,-499.49 L -10.9369,-499.411 L -11.5451,-499.255 L -12.1289,-499.024 L -12.6791,-498.722
 L -13.1871,-498.353 L -13.6448,-497.923 L -14.0451,-497.439 L -14.3815,-496.909 L -14.6489,-496.341 L -14.8429,-495.743
 L -14.9606,-495.127 L -15,-494.5 L -15,-369.5 L -14.9606,-368.873 L -14.8429,-368.257 L -14.6489,-367.659
 L -14.3815,-367.091 L -14.0451,-366.561 L -13.6448,-366.077 L -13.1871,-365.647 L -12.6791,-365.278 L -12.1289,-364.976
 L -11.5451,-364.745 L -10.9369,-364.589 L -10.3139,-364.51 L 10.3139,-364.51 z
M 10.9369,-220.589 L 11.5451,-220.745 L 12.1289,-220.976 L 12.6791,-221.278 L 13.1871,-221.647 L 13.6448,-222.077
 L 14.0451,-222.561 L 14.3815,-223.091 L 14.6489,-223.659 L 14.8429,-224.257 L 14.9606,-224.873 L 15,-225.5
 L 15,-350.5 L 14.9606,-351.127 L 14.8429,-351.743 L 14.6489,-352.341 L 14.3815,-352.909 L 14.0451,-353.439
 L 13.6448,-353.923 L 13.1871,-354.353 L 12.6791,-354.722 L 12.1289,-355.024 L 11.5451,-355.255 L 10.9369,-355.411
 L 10.3139,-355.49 L -10.3139,-355.49 L -10.9369,-355.411 L -11.5451,-355.255 L -12.1289,-355.024 L -12.6791,-354.722
 L -13.1871,-354.353 L -13.6448,-353.923 L -14.0451,-353.439 L -14.3815,-352.909 L -14.6489,-352.341 L -14.8429,-351.743
 L -14.9606,-351.127 L -15,-350.5 L -15,-225.5 L -14.9606,-224.873 L -14.8429,-224.257 L -14.6489,-223.659
 L -14.3815,-223.091 L -14.0451,-222.561 L -13.6448,-222.077 L -13.1871,-221.647 L -12.6791,-221.278 L -12.1289,-220.976
 L -11.5451,-220.745 L -10.9369,-220.589 L -10.3139,-220.51 L 10.3139,-220.51 z
M 7.38696,-346.204 L 7.1627,-346.232 L 6.94376,-346.288 L 6.7336,-346.371 L 6.53551,-346.48 L 6.35263,-346.613
 L 6.18785,-346.768 L 6.04376,-346.942 L 5.92264,-347.133 L 5.8264,-347.337 L 5.75655,-347.552 L 5.71419,-347.774
 L 5.7,-348 L 5.71419,-348.226 L 5.75655,-348.448 L 5.8264,-348.663 L 5.92264,-348.867 L 6.04376,-349.058
 L 6.18785,-349.232 L 6.35263,-349.387 L 6.53551,-349.52 L 6.7336,-349.629 L 6.94376,-349.712 L 7.1627,-349.768
 L 7.38696,-349.796 L 7.61302,-349.796 L 7.83728,-349.768 L 8.05623,-349.712 L 8.26639,-349.629 L 8.46448,-349.52
 L 8.64735,-349.387 L 8.81213,-349.232 L 8.95622,-349.058 L 9.07735,-348.867 L 9.17358,-348.663 L 9.24344,-348.448
 L 9.2858,-348.226 L 9.29999,-348 L 9.2858,-347.774 L 9.24344,-347.552 L 9.17358,-347.337 L 9.07735,-347.133
 L 8.95622,-346.942 L 8.81213,-346.768 L 8.64735,-346.613 L 8.46448,-346.48 L 8.26639,-346.371 L 8.05623,-346.288
 L 7.83728,-346.232 L 7.61302,-346.204 z
M -7.61302,-346.204 L -7.83728,-346.232 L -8.05623,-346.288 L -8.26639,-346.371 L -8.46448,-346.48 L -8.64735,-346.613
 L -8.81213,-346.768 L -8.95622,-346.942 L -9.07735,-347.133 L -9.17358,-347.337 L -9.24344,-347.552 L -9.2858,-347.774
 L -9.29999,-348 L -9.2858,-348.226 L -9.24344,-348.448 L -9.17358,-348.663 L -9.07735,-348.867 L -8.95622,-349.058
 L -8.81213,-349.232 L -8.64735,-349.387 L -8.46448,-349.52 L -8.26639,-349.629 L -8.05623,-349.712 L -7.83728,-349.768
 L -7.61302,-349.796 L -7.38696,-349.796 L -7.1627,-349.768 L -6.94376,-349.712 L -6.7336,-349.629 L -6.53551,-349.52
 L -6.35263,-349.387 L -6.18785,-349.232 L -6.04376,-349.058 L -5.92264,-348.867 L -5.8264,-348.663 L -5.75655,-348.448
 L -5.71419,-348.226 L -5.7,-348 L -5.71419,-347.774 L -5.75655,-347.552 L -5.8264,-347.337 L -5.92264,-347.133
 L -6.04376,-346.942 L -6.18785,-346.768 L -6.35263,-346.613 L -6.53551,-346.48 L -6.7336,-346.371 L -6.94376,-346.288
 L -7.1627,-346.232 L -7.38696,-346.204 z
M -7.61302,-226.204 L -7.83728,-226.232 L -8.05623,-226.288 L -8.26639,-226.371 L -8.46448,-226.48 L -8.64735,-226.613
 L -8.81213,-226.768 L -8.95622,-226.942 L -9.07735,-227.133 L -9.17358,-227.337 L -9.24344,-227.552 L -9.2858,-227.774
 L -9.29999,-228 L -9.2858,-228.226 L -9.24344,-228.448 L -9.17358,-228.663 L -9.07735,-228.867 L -8.95622,-229.058
 L -8.81213,-229.232 L -8.64735,-229.387 L -8.46448,-229.52 L -8.26639,-229.629 L -8.05623,-229.712 L -7.83728,-229.768
 L -7.61302,-229.796 L -7.38696,-229.796 L -7.1627,-229.768 L -6.94376,-229.712 L -6.7336,-229.629 L -6.53551,-229.52
 L -6.35263,-229.387 L -6.18785,-229.232 L -6.04376,-229.058 L -5.92264,-228.867 L -5.8264,-228.663 L -5.75655,-228.448
 L -5.71419,-228.226 L -5.7,-228 L -5.71419,-227.774 L -5.75655,-227.552 L -5.8264,-227.337 L -5.92264,-227.133
 L -6.04376,-226.942 L -6.18785,-226.768 L -6.35263,-226.613 L -6.53551,-226.48 L -6.7336,-226.371 L -6.94376,-226.288
 L -7.1627,-226.232 L -7.38696,-226.204 z
M 7.38696,-226.204 L 7.1627,-226.232 L 6.94376,-226.288 L 6.7336,-226.371 L 6.53551,-226.48 L 6.35263,-226.613
 L 6.18785,-226.768 L 6.04376,-226.942 L 5.92264,-227.133 L 5.8264,-227.337 L 5.75655,-227.552 L 5.71419,-227.774
 L 5.7,-228 L 5.71419,-228.226 L 5.75655,-228.448 L 5.8264,-228.663 L 5.92264,-228.867 L 6.04376,-229.058
 L 6.18785,-229.232 L 6.35263,-229.387 L 6.53551,-229.52 L 6.7336,-229.629 L 6.94376,-229.712 L 7.1627,-229.768
 L 7.38696,-229.796 L 7.61302,-229.796 L 7.83728,-229.768 L 8.05623,-229.712 L 8.26639,-229.629 L 8.46448,-229.52
 L 8.64735,-229.387 L 8.81213,-229.232 L 8.95622,-229.058 L 9.07735,-228.867 L 9.17358,-228.663 L 9.24344,-228.448
 L 9.2858,-228.226 L 9.29999,-228 L 9.2858,-227.774 L 9.24344,-227.552 L 9.17358,-227.337 L 9.07735,-227.133
 L 8.95622,-226.942 L 8.81213,-226.768 L 8.64735,-226.613 L 8.46448,-226.48 L 8.26639,-226.371 L 8.05623,-226.288
 L 7.83728,-226.232 L 7.61302,-226.204 z
" stroke="black" fill="lightgray" stroke-width="0.5"/>
</svg>
