<?xml version="1.0" standalone="no"?>
<!DOCTYPE svg PUBLIC "-//W3C//DTD SVG 1.1//EN" "http://www.w3.org/Graphics/SVG/1.1/DTD/svg11.dtd">
<svg width="32mm" height="40mm" viewBox="-17 -80 32 40" xmlns="http://www.w3.org/2000/svg" version="1.1">
<title>OpenSCAD Model</title>
<path d="
M 10.9369,-64.5886 L 11.5451,-64.7447 L 12.1289,-64.9759 L 12.6791,-65.2784 L 13.1871,-65.6474 L 13.6448,-66.0773
 L 14.0451,-66.5611 L 14.3815,-67.0912 L 14.6489,-67.6594 L 14.8429,-68.2566 L 14.9606,-68.8733 L 15,-69.5
 L 15,-74.5 L 14.9606,-75.1267 L 14.8429,-75.7434 L 14.6489,-76.3406 L 14.3815,-76.9088 L 14.0451,-77.4389
 L 13.6448,-77.9227 L 13.1871,-78.3526 L 12.6791,-78.7216 L 12.1289,-79.0241 L 11.5451,-79.2553 L 10.9369,-79.4114
 L 10.3139,-79.4901 L -10.3139,-79.4901 L -10.9369,-79.4114 L -11.5451,-79.2553 L -12.1289,-79.0241 L -12.6791,-78.7216
 L -13.1871,-78.3526 L -13.5,-78.0587 L -13.5,-79.4792 L -16.5,-79.4792 L -16.5,-64.5208 L -13.5,-64.5208
 L -13.5,-65.9413 L -13.1871,-65.6474 L -12.6791,-65.2784 L -12.1289,-64.9759 L -11.5451,-64.7447 L -10.9369,-64.5886
 L -10.3139,-64.5099 L 10.3139,-64.5099 z
M -9.69545,-66.8932 L -10.0833,-66.9422 L -10.4619,-67.0394 L -10.8254,-67.1833 L -11.168,-67.3717 L -11.4842,-67.6015
 L -11.7692,-67.8691 L -12.0184,-68.1703 L -12.2279,-68.5004 L -12.3943,-68.8541 L -12.5151,-69.2259 L -12.5884,-69.6098
 L -12.6129,-70 L -12.6129,-74 L -12.5884,-74.3902 L -12.5151,-74.7741 L -12.3943,-75.1459 L -12.2279,-75.4996
 L -12.0184,-75.8297 L -11.7692,-76.1309 L -11.4842,-76.3985 L -11.168,-76.6283 L -10.8254,-76.8167 L -10.4619,-76.9606
 L -10.0833,-77.0578 L -9.69545,-77.1068 L 9.69545,-77.1068 L 10.0833,-77.0578 L 10.4619,-76.9606 L 10.8254,-76.8167
 L 11.168,-76.6283 L 11.4842,-76.3985 L 11.7692,-76.1309 L 12.0184,-75.8297 L 12.2279,-75.4996 L 12.3943,-75.1459
 L 12.5151,-74.7741 L 12.5884,-74.3902 L 12.6129,-74 L 12.6129,-70 L 12.5884,-69.6098 L 12.5151,-69.2259
 L 12.3943,-68.8541 L 12.2279,-68.5004 L 12.0184,-68.1703 L 11.7692,-67.8691 L 11.4842,-67.6015 L 11.168,-67.3717
 L 10.8254,-67.1833 L 10.4619,-67.0394 L 10.0833,-66.9422 L 9.69545,-66.8932 z
M 10.9369,-40.5886 L 11.5451,-40.7447 L 12.1289,-40.9759 L 12.6791,-41.2784 L 13.1871,-41.6474 L 13.6448,-42.0773
 L 14.0451,-42.5611 L 14.3815,-43.0912 L 14.6489,-43.6594 L 14.8429,-44.2566 L 14.9606,-44.8733 L 15,-45.5
 L 15,-50.5 L 14.9606,-51.1267 L 14.8429,-51.7434 L 14.6489,-52.3406 L 14.3815,-52.9088 L 14.0451,-53.4389
 L 13.6448,-53.9227 L 13.1871,-54.3526 L 12.6791,-54.7216 L 12.1289,-55.0241 L 11.5451,-55.2553 L 10.9369,-55.4114
 L 10.3139,-55.4901 L -10.3139,-55.4901 L -10.9369,-55.4114 L -11.5451,-55.2553 L -12.1289,-55.0241 L -12.6791,-54.7216
 L -13.1871,-54.3526 L -13.5,-54.0587 L -13.5,-54.1526 L -16.5,-54.1526 L -16.5,-41.8474 L -13.5,-41.8474
 L -13.5,-41.9413 L -13.1871,-41.6474 L -12.6791,-41.2784 L -12.1289,-40.9759 L -11.5451,-40.7447 L -10.9369,-40.5886
 L -10.3139,-40.5099 L 10.3139,-40.5099 z
M 7.36592,-45.8689 L 7.09988,-45.9025 L 6.84015,-45.9692 L 6.59084,-46.0679 L 6.35585,-46.1971 L 6.1389,-46.3547
 L 5.94344,-46.5383 L 5.77251,-46.7449 L 5.62881,-46.9713 L 5.51465,-47.214 L 5.43178,-47.469 L 5.38153,-47.7324
 L 5.3647,-48 L 5.38153,-48.2676 L 5.43178,-48.531 L 5.51465,-48.786 L 5.62881,-49.0287 L 5.77251,-49.2551
 L 5.94344,-49.4617 L 6.1389,-49.6453 L 6.35585,-49.8029 L 6.59084,-49.9321 L 6.84015,-50.0308 L 7.09988,-50.0975
 L 7.36592,-50.1311 L 7.63406,-50.1311 L 7.9001,-50.0975 L 8.15984,-50.0308 L 8.40915,-49.9321 L 8.64413,-49.8029
 L 8.86108,-49.6453 L 9.05655,-49.4617 L 9.22748,-49.2551 L 9.37117,-49.0287 L 9.48534,-48.786 L 9.56821,-48.531
 L 9.61845,-48.2676 L 9.63528,-48 L 9.61845,-47.7324 L 9.56821,-47.469 L 9.48534,-47.214 L 9.37117,-46.9713
 L 9.22748,-46.7449 L 9.05655,-46.5383 L 8.86108,-46.3547 L 8.64413,-46.1971 L 8.40915,-46.0679 L 8.15984,-45.9692
 L 7.9001,-45.9025 L 7.63406,-45.8689 z
M -7.63406,-45.8689 L -7.9001,-45.9025 L -8.15984,-45.9692 L -8.40915,-46.0679 L -8.64413,-46.1971 L -8.86108,-46.3547
 L -9.05655,-46.5383 L -9.22748,-46.7449 L -9.37117,-46.9713 L -9.48534,-47.214 L -9.56821,-47.469 L -9.61845,-47.7324
 L -9.63528,-48 L -9.61845,-48.2676 L -9.56821,-48.531 L -9.48534,-48.786 L -9.37117,-49.0287 L -9.22748,-49.2551
 L -9.05655,-49.4617 L -8.86108,-49.6453 L -8.64413,-49.8029 L -8.40915,-49.9321 L -8.15984,-50.0308 L -7.9001,-50.0975
 L -7.63406,-50.1311 L -7.36592,-50.1311 L -7.09988,-50.0975 L -6.84015,-50.0308 L -6.59084,-49.9321 L -6.35585,-49.8029
 L -6.1389,-49.6453 L -5.94344,-49.4617 L -5.77251,-49.2551 L -5.62881,-49.0287 L -5.51465,-48.786 L -5.43178,-48.531
 L -5.38153,-48.2676 L -5.3647,-48 L -5.38153,-47.7324 L -5.43178,-47.469 L -5.51465,-47.214 L -5.62881,-46.9713
 L -5.77251,-46.7449 L -5.94344,-46.5383 L -6.1389,-46.3547 L -6.35585,-46.1971 L -6.59084,-46.0679 L -6.84015,-45.9692
 L -7.09988,-45.9025 L -7.36592,-45.8689 z
" stroke="black" fill="lightgray" stroke-width="0.5"/>
</svg>
