  0
SECTION
  2
BLOCKS
  0
ENDSEC
  0
SECTION
  2
ENTITIES
  0
LINE
  8
0
 10
-13.5
 20
113.941
 11
-13.1871
 21
113.647
  0
LINE
  8
0
 10
-13.1871
 20
113.647
 11
-12.6791
 21
113.278
  0
LINE
  8
0
 10
-12.6791
 20
113.278
 11
-12.1289
 21
112.976
  0
LINE
  8
0
 10
-12.1289
 20
112.976
 11
-11.5451
 21
112.745
  0
LINE
  8
0
 10
-11.5451
 20
112.745
 11
-10.9369
 21
112.589
  0
LINE
  8
0
 10
-10.9369
 20
112.589
 11
-10.3139
 21
112.51
  0
LINE
  8
0
 10
-10.3139
 20
112.51
 11
10.3139
 21
112.51
  0
LINE
  8
0
 10
10.3139
 20
112.51
 11
10.9369
 21
112.589
  0
LINE
  8
0
 10
10.9369
 20
112.589
 11
11.5451
 21
112.745
  0
LINE
  8
0
 10
11.5451
 20
112.745
 11
12.1289
 21
112.976
  0
LINE
  8
0
 10
12.1289
 20
112.976
 11
12.6791
 21
113.278
  0
LINE
  8
0
 10
12.6791
 20
113.278
 11
13.1871
 21
113.647
  0
LINE
  8
0
 10
13.1871
 20
113.647
 11
13.6448
 21
114.077
  0
LINE
  8
0
 10
13.6448
 20
114.077
 11
14.0451
 21
114.561
  0
LINE
  8
0
 10
14.0451
 20
114.561
 11
14.3815
 21
115.091
  0
LINE
  8
0
 10
14.3815
 20
115.091
 11
14.6489
 21
115.659
  0
LINE
  8
0
 10
14.6489
 20
115.659
 11
14.8429
 21
116.257
  0
LINE
  8
0
 10
14.8429
 20
116.257
 11
14.9606
 21
116.873
  0
LINE
  8
0
 10
14.9606
 20
116.873
 11
15
 21
117.5
  0
LINE
  8
0
 10
15
 20
117.5
 11
15
 21
122.5
  0
LINE
  8
0
 10
15
 20
122.5
 11
14.9606
 21
123.127
  0
LINE
  8
0
 10
14.9606
 20
123.127
 11
14.8429
 21
123.743
  0
LINE
  8
0
 10
14.8429
 20
123.743
 11
14.6489
 21
124.341
  0
LINE
  8
0
 10
14.6489
 20
124.341
 11
14.3815
 21
124.909
  0
LINE
  8
0
 10
14.3815
 20
124.909
 11
14.0451
 21
125.439
  0
LINE
  8
0
 10
14.0451
 20
125.439
 11
13.6448
 21
125.923
  0
LINE
  8
0
 10
13.6448
 20
125.923
 11
13.1871
 21
126.353
  0
LINE
  8
0
 10
13.1871
 20
126.353
 11
12.6791
 21
126.722
  0
LINE
  8
0
 10
12.6791
 20
126.722
 11
12.1289
 21
127.024
  0
LINE
  8
0
 10
12.1289
 20
127.024
 11
11.5451
 21
127.255
  0
LINE
  8
0
 10
11.5451
 20
127.255
 11
10.9369
 21
127.411
  0
LINE
  8
0
 10
10.9369
 20
127.411
 11
10.3139
 21
127.49
  0
LINE
  8
0
 10
10.3139
 20
127.49
 11
-10.3139
 21
127.49
  0
LINE
  8
0
 10
-10.3139
 20
127.49
 11
-10.9369
 21
127.411
  0
LINE
  8
0
 10
-10.9369
 20
127.411
 11
-11.5451
 21
127.255
  0
LINE
  8
0
 10
-11.5451
 20
127.255
 11
-12.1289
 21
127.024
  0
LINE
  8
0
 10
-12.1289
 20
127.024
 11
-12.6791
 21
126.722
  0
LINE
  8
0
 10
-12.6791
 20
126.722
 11
-13.1871
 21
126.353
  0
LINE
  8
0
 10
-13.1871
 20
126.353
 11
-13.5
 21
126.059
  0
LINE
  8
0
 10
-13.5
 20
126.059
 11
-13.5
 21
127.49
  0
LINE
  8
0
 10
-13.5
 20
127.49
 11
-16.5
 21
127.49
  0
LINE
  8
0
 10
-16.5
 20
127.49
 11
-16.5
 21
112.51
  0
LINE
  8
0
 10
-16.5
 20
112.51
 11
-13.5
 21
112.51
  0
LINE
  8
0
 10
-13.5
 20
112.51
 11
-13.5
 21
113.941
  0
LINE
  8
0
 10
-9.75116
 20
114.008
 11
-10.2495
 21
114.071
  0
LINE
  8
0
 10
-10.2495
 20
114.071
 11
-10.7361
 21
114.196
  0
LINE
  8
0
 10
-10.7361
 20
114.196
 11
-11.2031
 21
114.381
  0
LINE
  8
0
 10
-11.2031
 20
114.381
 11
-11.6433
 21
114.623
  0
LINE
  8
0
 10
-11.6433
 20
114.623
 11
-12.0497
 21
114.918
  0
LINE
  8
0
 10
-12.0497
 20
114.918
 11
-12.4159
 21
115.262
  0
LINE
  8
0
 10
-12.4159
 20
115.262
 11
-12.7361
 21
115.649
  0
LINE
  8
0
 10
-12.7361
 20
115.649
 11
-13.0052
 21
116.073
  0
LINE
  8
0
 10
-13.0052
 20
116.073
 11
-13.2191
 21
116.528
  0
LINE
  8
0
 10
-13.2191
 20
116.528
 11
-13.3743
 21
117.005
  0
LINE
  8
0
 10
-13.3743
 20
117.005
 11
-13.4684
 21
117.499
  0
LINE
  8
0
 10
-13.4684
 20
117.499
 11
-13.5
 21
118
  0
LINE
  8
0
 10
-13.5
 20
118
 11
-13.5
 21
122
  0
LINE
  8
0
 10
-13.5
 20
122
 11
-13.4684
 21
122.501
  0
LINE
  8
0
 10
-13.4684
 20
122.501
 11
-13.3743
 21
122.995
  0
LINE
  8
0
 10
-13.3743
 20
122.995
 11
-13.2191
 21
123.472
  0
LINE
  8
0
 10
-13.2191
 20
123.472
 11
-13.0052
 21
123.927
  0
LINE
  8
0
 10
-13.0052
 20
123.927
 11
-12.7361
 21
124.351
  0
LINE
  8
0
 10
-12.7361
 20
124.351
 11
-12.4159
 21
124.738
  0
LINE
  8
0
 10
-12.4159
 20
124.738
 11
-12.0497
 21
125.082
  0
LINE
  8
0
 10
-12.0497
 20
125.082
 11
-11.6433
 21
125.377
  0
LINE
  8
0
 10
-11.6433
 20
125.377
 11
-11.2031
 21
125.619
  0
LINE
  8
0
 10
-11.2031
 20
125.619
 11
-10.7361
 21
125.804
  0
LINE
  8
0
 10
-10.7361
 20
125.804
 11
-10.2495
 21
125.929
  0
LINE
  8
0
 10
-10.2495
 20
125.929
 11
-9.75116
 21
125.992
  0
LINE
  8
0
 10
-9.75116
 20
125.992
 11
9.75116
 21
125.992
  0
LINE
  8
0
 10
9.75116
 20
125.992
 11
10.2495
 21
125.929
  0
LINE
  8
0
 10
10.2495
 20
125.929
 11
10.7361
 21
125.804
  0
LINE
  8
0
 10
10.7361
 20
125.804
 11
11.2031
 21
125.619
  0
LINE
  8
0
 10
11.2031
 20
125.619
 11
11.6433
 21
125.377
  0
LINE
  8
0
 10
11.6433
 20
125.377
 11
12.0497
 21
125.082
  0
LINE
  8
0
 10
12.0497
 20
125.082
 11
12.4159
 21
124.738
  0
LINE
  8
0
 10
12.4159
 20
124.738
 11
12.7361
 21
124.351
  0
LINE
  8
0
 10
12.7361
 20
124.351
 11
13.0052
 21
123.927
  0
LINE
  8
0
 10
13.0052
 20
123.927
 11
13.2191
 21
123.472
  0
LINE
  8
0
 10
13.2191
 20
123.472
 11
13.3743
 21
122.995
  0
LINE
  8
0
 10
13.3743
 20
122.995
 11
13.4684
 21
122.501
  0
LINE
  8
0
 10
13.4684
 20
122.501
 11
13.5
 21
122
  0
LINE
  8
0
 10
13.5
 20
122
 11
13.5
 21
118
  0
LINE
  8
0
 10
13.5
 20
118
 11
13.4684
 21
117.499
  0
LINE
  8
0
 10
13.4684
 20
117.499
 11
13.3743
 21
117.005
  0
LINE
  8
0
 10
13.3743
 20
117.005
 11
13.2191
 21
116.528
  0
LINE
  8
0
 10
13.2191
 20
116.528
 11
13.0052
 21
116.073
  0
LINE
  8
0
 10
13.0052
 20
116.073
 11
12.7361
 21
115.649
  0
LINE
  8
0
 10
12.7361
 20
115.649
 11
12.4159
 21
115.262
  0
LINE
  8
0
 10
12.4159
 20
115.262
 11
12.0497
 21
114.918
  0
LINE
  8
0
 10
12.0497
 20
114.918
 11
11.6433
 21
114.623
  0
LINE
  8
0
 10
11.6433
 20
114.623
 11
11.2031
 21
114.381
  0
LINE
  8
0
 10
11.2031
 20
114.381
 11
10.7361
 21
114.196
  0
LINE
  8
0
 10
10.7361
 20
114.196
 11
10.2495
 21
114.071
  0
LINE
  8
0
 10
10.2495
 20
114.071
 11
9.75116
 21
114.008
  0
LINE
  8
0
 10
9.75116
 20
114.008
 11
-9.75116
 21
114.008
  0
LINE
  8
0
 10
10.9369
 20
88.5886
 11
11.5451
 21
88.7447
  0
LINE
  8
0
 10
11.5451
 20
88.7447
 11
12.1289
 21
88.9759
  0
LINE
  8
0
 10
12.1289
 20
88.9759
 11
12.6791
 21
89.2784
  0
LINE
  8
0
 10
12.6791
 20
89.2784
 11
13.1871
 21
89.6474
  0
LINE
  8
0
 10
13.1871
 20
89.6474
 11
13.6448
 21
90.0773
  0
LINE
  8
0
 10
13.6448
 20
90.0773
 11
14.0451
 21
90.5611
  0
LINE
  8
0
 10
14.0451
 20
90.5611
 11
14.3815
 21
91.0912
  0
LINE
  8
0
 10
14.3815
 20
91.0912
 11
14.6489
 21
91.6594
  0
LINE
  8
0
 10
14.6489
 20
91.6594
 11
14.8429
 21
92.2566
  0
LINE
  8
0
 10
14.8429
 20
92.2566
 11
14.9606
 21
92.8733
  0
LINE
  8
0
 10
14.9606
 20
92.8733
 11
15
 21
93.5
  0
LINE
  8
0
 10
15
 20
93.5
 11
15
 21
98.5
  0
LINE
  8
0
 10
15
 20
98.5
 11
14.9606
 21
99.1267
  0
LINE
  8
0
 10
14.9606
 20
99.1267
 11
14.8429
 21
99.7434
  0
LINE
  8
0
 10
14.8429
 20
99.7434
 11
14.6489
 21
100.341
  0
LINE
  8
0
 10
14.6489
 20
100.341
 11
14.3815
 21
100.909
  0
LINE
  8
0
 10
14.3815
 20
100.909
 11
14.0451
 21
101.439
  0
LINE
  8
0
 10
14.0451
 20
101.439
 11
13.6448
 21
101.923
  0
LINE
  8
0
 10
13.6448
 20
101.923
 11
13.1871
 21
102.353
  0
LINE
  8
0
 10
13.1871
 20
102.353
 11
12.6791
 21
102.722
  0
LINE
  8
0
 10
12.6791
 20
102.722
 11
12.1289
 21
103.024
  0
LINE
  8
0
 10
12.1289
 20
103.024
 11
11.5451
 21
103.255
  0
LINE
  8
0
 10
11.5451
 20
103.255
 11
10.9369
 21
103.411
  0
LINE
  8
0
 10
10.9369
 20
103.411
 11
10.3139
 21
103.49
  0
LINE
  8
0
 10
10.3139
 20
103.49
 11
-10.3139
 21
103.49
  0
LINE
  8
0
 10
-10.3139
 20
103.49
 11
-10.9369
 21
103.411
  0
LINE
  8
0
 10
-10.9369
 20
103.411
 11
-11.5451
 21
103.255
  0
LINE
  8
0
 10
-11.5451
 20
103.255
 11
-12.1289
 21
103.024
  0
LINE
  8
0
 10
-12.1289
 20
103.024
 11
-12.6791
 21
102.722
  0
LINE
  8
0
 10
-12.6791
 20
102.722
 11
-13.1871
 21
102.353
  0
LINE
  8
0
 10
-13.1871
 20
102.353
 11
-13.5
 21
102.059
  0
LINE
  8
0
 10
-13.5
 20
102.059
 11
-13.5
 21
103.479
  0
LINE
  8
0
 10
-13.5
 20
103.479
 11
-16.5
 21
103.479
  0
LINE
  8
0
 10
-16.5
 20
103.479
 11
-16.5
 21
88.5208
  0
LINE
  8
0
 10
-16.5
 20
88.5208
 11
-13.5
 21
88.5208
  0
LINE
  8
0
 10
-13.5
 20
88.5208
 11
-13.5
 21
89.9413
  0
LINE
  8
0
 10
-13.5
 20
89.9413
 11
-13.1871
 21
89.6474
  0
LINE
  8
0
 10
-13.1871
 20
89.6474
 11
-12.6791
 21
89.2784
  0
LINE
  8
0
 10
-12.6791
 20
89.2784
 11
-12.1289
 21
88.9759
  0
LINE
  8
0
 10
-12.1289
 20
88.9759
 11
-11.5451
 21
88.7447
  0
LINE
  8
0
 10
-11.5451
 20
88.7447
 11
-10.9369
 21
88.5886
  0
LINE
  8
0
 10
-10.9369
 20
88.5886
 11
-10.3139
 21
88.5099
  0
LINE
  8
0
 10
-10.3139
 20
88.5099
 11
10.3139
 21
88.5099
  0
LINE
  8
0
 10
10.3139
 20
88.5099
 11
10.9369
 21
88.5886
  0
LINE
  8
0
 10
-9.69545
 20
90.8932
 11
-10.0833
 21
90.9422
  0
LINE
  8
0
 10
-10.0833
 20
90.9422
 11
-10.4619
 21
91.0394
  0
LINE
  8
0
 10
-10.4619
 20
91.0394
 11
-10.8254
 21
91.1833
  0
LINE
  8
0
 10
-10.8254
 20
91.1833
 11
-11.168
 21
91.3717
  0
LINE
  8
0
 10
-11.168
 20
91.3717
 11
-11.4842
 21
91.6015
  0
LINE
  8
0
 10
-11.4842
 20
91.6015
 11
-11.7692
 21
91.8691
  0
LINE
  8
0
 10
-11.7692
 20
91.8691
 11
-12.0184
 21
92.1703
  0
LINE
  8
0
 10
-12.0184
 20
92.1703
 11
-12.2279
 21
92.5004
  0
LINE
  8
0
 10
-12.2279
 20
92.5004
 11
-12.3943
 21
92.8541
  0
LINE
  8
0
 10
-12.3943
 20
92.8541
 11
-12.5151
 21
93.2259
  0
LINE
  8
0
 10
-12.5151
 20
93.2259
 11
-12.5884
 21
93.6098
  0
LINE
  8
0
 10
-12.5884
 20
93.6098
 11
-12.6129
 21
94
  0
LINE
  8
0
 10
-12.6129
 20
94
 11
-12.6129
 21
98
  0
LINE
  8
0
 10
-12.6129
 20
98
 11
-12.5884
 21
98.3902
  0
LINE
  8
0
 10
-12.5884
 20
98.3902
 11
-12.5151
 21
98.7741
  0
LINE
  8
0
 10
-12.5151
 20
98.7741
 11
-12.3943
 21
99.1459
  0
LINE
  8
0
 10
-12.3943
 20
99.1459
 11
-12.2279
 21
99.4996
  0
LINE
  8
0
 10
-12.2279
 20
99.4996
 11
-12.0184
 21
99.8297
  0
LINE
  8
0
 10
-12.0184
 20
99.8297
 11
-11.7692
 21
100.131
  0
LINE
  8
0
 10
-11.7692
 20
100.131
 11
-11.4842
 21
100.399
  0
LINE
  8
0
 10
-11.4842
 20
100.399
 11
-11.168
 21
100.628
  0
LINE
  8
0
 10
-11.168
 20
100.628
 11
-10.8254
 21
100.817
  0
LINE
  8
0
 10
-10.8254
 20
100.817
 11
-10.4619
 21
100.961
  0
LINE
  8
0
 10
-10.4619
 20
100.961
 11
-10.0833
 21
101.058
  0
LINE
  8
0
 10
-10.0833
 20
101.058
 11
-9.69545
 21
101.107
  0
LINE
  8
0
 10
-9.69545
 20
101.107
 11
9.69545
 21
101.107
  0
LINE
  8
0
 10
9.69545
 20
101.107
 11
10.0833
 21
101.058
  0
LINE
  8
0
 10
10.0833
 20
101.058
 11
10.4619
 21
100.961
  0
LINE
  8
0
 10
10.4619
 20
100.961
 11
10.8254
 21
100.817
  0
LINE
  8
0
 10
10.8254
 20
100.817
 11
11.168
 21
100.628
  0
LINE
  8
0
 10
11.168
 20
100.628
 11
11.4842
 21
100.399
  0
LINE
  8
0
 10
11.4842
 20
100.399
 11
11.7692
 21
100.131
  0
LINE
  8
0
 10
11.7692
 20
100.131
 11
12.0184
 21
99.8297
  0
LINE
  8
0
 10
12.0184
 20
99.8297
 11
12.2279
 21
99.4996
  0
LINE
  8
0
 10
12.2279
 20
99.4996
 11
12.3943
 21
99.1459
  0
LINE
  8
0
 10
12.3943
 20
99.1459
 11
12.5151
 21
98.7741
  0
LINE
  8
0
 10
12.5151
 20
98.7741
 11
12.5884
 21
98.3902
  0
LINE
  8
0
 10
12.5884
 20
98.3902
 11
12.6129
 21
98
  0
LINE
  8
0
 10
12.6129
 20
98
 11
12.6129
 21
94
  0
LINE
  8
0
 10
12.6129
 20
94
 11
12.5884
 21
93.6098
  0
LINE
  8
0
 10
12.5884
 20
93.6098
 11
12.5151
 21
93.2259
  0
LINE
  8
0
 10
12.5151
 20
93.2259
 11
12.3943
 21
92.8541
  0
LINE
  8
0
 10
12.3943
 20
92.8541
 11
12.2279
 21
92.5004
  0
LINE
  8
0
 10
12.2279
 20
92.5004
 11
12.0184
 21
92.1703
  0
LINE
  8
0
 10
12.0184
 20
92.1703
 11
11.7692
 21
91.8691
  0
LINE
  8
0
 10
11.7692
 20
91.8691
 11
11.4842
 21
91.6015
  0
LINE
  8
0
 10
11.4842
 20
91.6015
 11
11.168
 21
91.3717
  0
LINE
  8
0
 10
11.168
 20
91.3717
 11
10.8254
 21
91.1833
  0
LINE
  8
0
 10
10.8254
 20
91.1833
 11
10.4619
 21
91.0394
  0
LINE
  8
0
 10
10.4619
 20
91.0394
 11
10.0833
 21
90.9422
  0
LINE
  8
0
 10
10.0833
 20
90.9422
 11
9.69545
 21
90.8932
  0
LINE
  8
0
 10
9.69545
 20
90.8932
 11
-9.69545
 21
90.8932
  0
LINE
  8
0
 10
10.9369
 20
64.5886
 11
11.5451
 21
64.7447
  0
LINE
  8
0
 10
11.5451
 20
64.7447
 11
12.1289
 21
64.9759
  0
LINE
  8
0
 10
12.1289
 20
64.9759
 11
12.6791
 21
65.2784
  0
LINE
  8
0
 10
12.6791
 20
65.2784
 11
13.1871
 21
65.6474
  0
LINE
  8
0
 10
13.1871
 20
65.6474
 11
13.6448
 21
66.0773
  0
LINE
  8
0
 10
13.6448
 20
66.0773
 11
14.0451
 21
66.5611
  0
LINE
  8
0
 10
14.0451
 20
66.5611
 11
14.3815
 21
67.0912
  0
LINE
  8
0
 10
14.3815
 20
67.0912
 11
14.6489
 21
67.6594
  0
LINE
  8
0
 10
14.6489
 20
67.6594
 11
14.8429
 21
68.2566
  0
LINE
  8
0
 10
14.8429
 20
68.2566
 11
14.9606
 21
68.8733
  0
LINE
  8
0
 10
14.9606
 20
68.8733
 11
15
 21
69.5
  0
LINE
  8
0
 10
15
 20
69.5
 11
15
 21
74.5
  0
LINE
  8
0
 10
15
 20
74.5
 11
14.9606
 21
75.1267
  0
LINE
  8
0
 10
14.9606
 20
75.1267
 11
14.8429
 21
75.7434
  0
LINE
  8
0
 10
14.8429
 20
75.7434
 11
14.6489
 21
76.3406
  0
LINE
  8
0
 10
14.6489
 20
76.3406
 11
14.3815
 21
76.9088
  0
LINE
  8
0
 10
14.3815
 20
76.9088
 11
14.0451
 21
77.4389
  0
LINE
  8
0
 10
14.0451
 20
77.4389
 11
13.6448
 21
77.9227
  0
LINE
  8
0
 10
13.6448
 20
77.9227
 11
13.1871
 21
78.3526
  0
LINE
  8
0
 10
13.1871
 20
78.3526
 11
12.6791
 21
78.7216
  0
LINE
  8
0
 10
12.6791
 20
78.7216
 11
12.1289
 21
79.0241
  0
LINE
  8
0
 10
12.1289
 20
79.0241
 11
11.5451
 21
79.2553
  0
LINE
  8
0
 10
11.5451
 20
79.2553
 11
10.9369
 21
79.4114
  0
LINE
  8
0
 10
10.9369
 20
79.4114
 11
10.3139
 21
79.4901
  0
LINE
  8
0
 10
10.3139
 20
79.4901
 11
-10.3139
 21
79.4901
  0
LINE
  8
0
 10
-10.3139
 20
79.4901
 11
-10.9369
 21
79.4114
  0
LINE
  8
0
 10
-10.9369
 20
79.4114
 11
-11.5451
 21
79.2553
  0
LINE
  8
0
 10
-11.5451
 20
79.2553
 11
-12.1289
 21
79.0241
  0
LINE
  8
0
 10
-12.1289
 20
79.0241
 11
-12.6791
 21
78.7216
  0
LINE
  8
0
 10
-12.6791
 20
78.7216
 11
-13.1871
 21
78.3526
  0
LINE
  8
0
 10
-13.1871
 20
78.3526
 11
-13.5
 21
78.0587
  0
LINE
  8
0
 10
-13.5
 20
78.0587
 11
-13.5
 21
78.1526
  0
LINE
  8
0
 10
-13.5
 20
78.1526
 11
-16.5
 21
78.1526
  0
LINE
  8
0
 10
-16.5
 20
78.1526
 11
-16.5
 21
65.8474
  0
LINE
  8
0
 10
-16.5
 20
65.8474
 11
-13.5
 21
65.8474
  0
LINE
  8
0
 10
-13.5
 20
65.8474
 11
-13.5
 21
65.9413
  0
LINE
  8
0
 10
-13.5
 20
65.9413
 11
-13.1871
 21
65.6474
  0
LINE
  8
0
 10
-13.1871
 20
65.6474
 11
-12.6791
 21
65.2784
  0
LINE
  8
0
 10
-12.6791
 20
65.2784
 11
-12.1289
 21
64.9759
  0
LINE
  8
0
 10
-12.1289
 20
64.9759
 11
-11.5451
 21
64.7447
  0
LINE
  8
0
 10
-11.5451
 20
64.7447
 11
-10.9369
 21
64.5886
  0
LINE
  8
0
 10
-10.9369
 20
64.5886
 11
-10.3139
 21
64.5099
  0
LINE
  8
0
 10
-10.3139
 20
64.5099
 11
10.3139
 21
64.5099
  0
LINE
  8
0
 10
10.3139
 20
64.5099
 11
10.9369
 21
64.5886
  0
LINE
  8
0
 10
7.36592
 20
69.8689
 11
7.09988
 21
69.9025
  0
LINE
  8
0
 10
7.09988
 20
69.9025
 11
6.84015
 21
69.9692
  0
LINE
  8
0
 10
6.84015
 20
69.9692
 11
6.59084
 21
70.0679
  0
LINE
  8
0
 10
6.59084
 20
70.0679
 11
6.35585
 21
70.1971
  0
LINE
  8
0
 10
6.35585
 20
70.1971
 11
6.1389
 21
70.3547
  0
LINE
  8
0
 10
6.1389
 20
70.3547
 11
5.94344
 21
70.5383
  0
LINE
  8
0
 10
5.94344
 20
70.5383
 11
5.77251
 21
70.7449
  0
LINE
  8
0
 10
5.77251
 20
70.7449
 11
5.62881
 21
70.9713
  0
LINE
  8
0
 10
5.62881
 20
70.9713
 11
5.51465
 21
71.214
  0
LINE
  8
0
 10
5.51465
 20
71.214
 11
5.43178
 21
71.469
  0
LINE
  8
0
 10
5.43178
 20
71.469
 11
5.38153
 21
71.7324
  0
LINE
  8
0
 10
5.38153
 20
71.7324
 11
5.3647
 21
72
  0
LINE
  8
0
 10
5.3647
 20
72
 11
5.38153
 21
72.2676
  0
LINE
  8
0
 10
5.38153
 20
72.2676
 11
5.43178
 21
72.531
  0
LINE
  8
0
 10
5.43178
 20
72.531
 11
5.51465
 21
72.786
  0
LINE
  8
0
 10
5.51465
 20
72.786
 11
5.62881
 21
73.0287
  0
LINE
  8
0
 10
5.62881
 20
73.0287
 11
5.77251
 21
73.2551
  0
LINE
  8
0
 10
5.77251
 20
73.2551
 11
5.94344
 21
73.4617
  0
LINE
  8
0
 10
5.94344
 20
73.4617
 11
6.1389
 21
73.6453
  0
LINE
  8
0
 10
6.1389
 20
73.6453
 11
6.35585
 21
73.8029
  0
LINE
  8
0
 10
6.35585
 20
73.8029
 11
6.59084
 21
73.9321
  0
LINE
  8
0
 10
6.59084
 20
73.9321
 11
6.84015
 21
74.0308
  0
LINE
  8
0
 10
6.84015
 20
74.0308
 11
7.09988
 21
74.0975
  0
LINE
  8
0
 10
7.09988
 20
74.0975
 11
7.36592
 21
74.1311
  0
LINE
  8
0
 10
7.36592
 20
74.1311
 11
7.63406
 21
74.1311
  0
LINE
  8
0
 10
7.63406
 20
74.1311
 11
7.9001
 21
74.0975
  0
LINE
  8
0
 10
7.9001
 20
74.0975
 11
8.15984
 21
74.0308
  0
LINE
  8
0
 10
8.15984
 20
74.0308
 11
8.40915
 21
73.9321
  0
LINE
  8
0
 10
8.40915
 20
73.9321
 11
8.64413
 21
73.8029
  0
LINE
  8
0
 10
8.64413
 20
73.8029
 11
8.86108
 21
73.6453
  0
LINE
  8
0
 10
8.86108
 20
73.6453
 11
9.05655
 21
73.4617
  0
LINE
  8
0
 10
9.05655
 20
73.4617
 11
9.22748
 21
73.2551
  0
LINE
  8
0
 10
9.22748
 20
73.2551
 11
9.37117
 21
73.0287
  0
LINE
  8
0
 10
9.37117
 20
73.0287
 11
9.48534
 21
72.786
  0
LINE
  8
0
 10
9.48534
 20
72.786
 11
9.56821
 21
72.531
  0
LINE
  8
0
 10
9.56821
 20
72.531
 11
9.61845
 21
72.2676
  0
LINE
  8
0
 10
9.61845
 20
72.2676
 11
9.63528
 21
72
  0
LINE
  8
0
 10
9.63528
 20
72
 11
9.61845
 21
71.7324
  0
LINE
  8
0
 10
9.61845
 20
71.7324
 11
9.56821
 21
71.469
  0
LINE
  8
0
 10
9.56821
 20
71.469
 11
9.48534
 21
71.214
  0
LINE
  8
0
 10
9.48534
 20
71.214
 11
9.37117
 21
70.9713
  0
LINE
  8
0
 10
9.37117
 20
70.9713
 11
9.22748
 21
70.7449
  0
LINE
  8
0
 10
9.22748
 20
70.7449
 11
9.05655
 21
70.5383
  0
LINE
  8
0
 10
9.05655
 20
70.5383
 11
8.86108
 21
70.3547
  0
LINE
  8
0
 10
8.86108
 20
70.3547
 11
8.64413
 21
70.1971
  0
LINE
  8
0
 10
8.64413
 20
70.1971
 11
8.40915
 21
70.0679
  0
LINE
  8
0
 10
8.40915
 20
70.0679
 11
8.15984
 21
69.9692
  0
LINE
  8
0
 10
8.15984
 20
69.9692
 11
7.9001
 21
69.9025
  0
LINE
  8
0
 10
7.9001
 20
69.9025
 11
7.63406
 21
69.8689
  0
LINE
  8
0
 10
7.63406
 20
69.8689
 11
7.36592
 21
69.8689
  0
LINE
  8
0
 10
-7.63406
 20
69.8689
 11
-7.9001
 21
69.9025
  0
LINE
  8
0
 10
-7.9001
 20
69.9025
 11
-8.15984
 21
69.9692
  0
LINE
  8
0
 10
-8.15984
 20
69.9692
 11
-8.40915
 21
70.0679
  0
LINE
  8
0
 10
-8.40915
 20
70.0679
 11
-8.64413
 21
70.1971
  0
LINE
  8
0
 10
-8.64413
 20
70.1971
 11
-8.86108
 21
70.3547
  0
LINE
  8
0
 10
-8.86108
 20
70.3547
 11
-9.05655
 21
70.5383
  0
LINE
  8
0
 10
-9.05655
 20
70.5383
 11
-9.22748
 21
70.7449
  0
LINE
  8
0
 10
-9.22748
 20
70.7449
 11
-9.37117
 21
70.9713
  0
LINE
  8
0
 10
-9.37117
 20
70.9713
 11
-9.48534
 21
71.214
  0
LINE
  8
0
 10
-9.48534
 20
71.214
 11
-9.56821
 21
71.469
  0
LINE
  8
0
 10
-9.56821
 20
71.469
 11
-9.61845
 21
71.7324
  0
LINE
  8
0
 10
-9.61845
 20
71.7324
 11
-9.63528
 21
72
  0
LINE
  8
0
 10
-9.63528
 20
72
 11
-9.61845
 21
72.2676
  0
LINE
  8
0
 10
-9.61845
 20
72.2676
 11
-9.56821
 21
72.531
  0
LINE
  8
0
 10
-9.56821
 20
72.531
 11
-9.48534
 21
72.786
  0
LINE
  8
0
 10
-9.48534
 20
72.786
 11
-9.37117
 21
73.0287
  0
LINE
  8
0
 10
-9.37117
 20
73.0287
 11
-9.22748
 21
73.2551
  0
LINE
  8
0
 10
-9.22748
 20
73.2551
 11
-9.05655
 21
73.4617
  0
LINE
  8
0
 10
-9.05655
 20
73.4617
 11
-8.86108
 21
73.6453
  0
LINE
  8
0
 10
-8.86108
 20
73.6453
 11
-8.64413
 21
73.8029
  0
LINE
  8
0
 10
-8.64413
 20
73.8029
 11
-8.40915
 21
73.9321
  0
LINE
  8
0
 10
-8.40915
 20
73.9321
 11
-8.15984
 21
74.0308
  0
LINE
  8
0
 10
-8.15984
 20
74.0308
 11
-7.9001
 21
74.0975
  0
LINE
  8
0
 10
-7.9001
 20
74.0975
 11
-7.63406
 21
74.1311
  0
LINE
  8
0
 10
-7.63406
 20
74.1311
 11
-7.36592
 21
74.1311
  0
LINE
  8
0
 10
-7.36592
 20
74.1311
 11
-7.09988
 21
74.0975
  0
LINE
  8
0
 10
-7.09988
 20
74.0975
 11
-6.84015
 21
74.0308
  0
LINE
  8
0
 10
-6.84015
 20
74.0308
 11
-6.59084
 21
73.9321
  0
LINE
  8
0
 10
-6.59084
 20
73.9321
 11
-6.35585
 21
73.8029
  0
LINE
  8
0
 10
-6.35585
 20
73.8029
 11
-6.1389
 21
73.6453
  0
LINE
  8
0
 10
-6.1389
 20
73.6453
 11
-5.94344
 21
73.4617
  0
LINE
  8
0
 10
-5.94344
 20
73.4617
 11
-5.77251
 21
73.2551
  0
LINE
  8
0
 10
-5.77251
 20
73.2551
 11
-5.62881
 21
73.0287
  0
LINE
  8
0
 10
-5.62881
 20
73.0287
 11
-5.51465
 21
72.786
  0
LINE
  8
0
 10
-5.51465
 20
72.786
 11
-5.43178
 21
72.531
  0
LINE
  8
0
 10
-5.43178
 20
72.531
 11
-5.38153
 21
72.2676
  0
LINE
  8
0
 10
-5.38153
 20
72.2676
 11
-5.3647
 21
72
  0
LINE
  8
0
 10
-5.3647
 20
72
 11
-5.38153
 21
71.7324
  0
LINE
  8
0
 10
-5.38153
 20
71.7324
 11
-5.43178
 21
71.469
  0
LINE
  8
0
 10
-5.43178
 20
71.469
 11
-5.51465
 21
71.214
  0
LINE
  8
0
 10
-5.51465
 20
71.214
 11
-5.62881
 21
70.9713
  0
LINE
  8
0
 10
-5.62881
 20
70.9713
 11
-5.77251
 21
70.7449
  0
LINE
  8
0
 10
-5.77251
 20
70.7449
 11
-5.94344
 21
70.5383
  0
LINE
  8
0
 10
-5.94344
 20
70.5383
 11
-6.1389
 21
70.3547
  0
LINE
  8
0
 10
-6.1389
 20
70.3547
 11
-6.35585
 21
70.1971
  0
LINE
  8
0
 10
-6.35585
 20
70.1971
 11
-6.59084
 21
70.0679
  0
LINE
  8
0
 10
-6.59084
 20
70.0679
 11
-6.84015
 21
69.9692
  0
LINE
  8
0
 10
-6.84015
 20
69.9692
 11
-7.09988
 21
69.9025
  0
LINE
  8
0
 10
-7.09988
 20
69.9025
 11
-7.36592
 21
69.8689
  0
LINE
  8
0
 10
-7.36592
 20
69.8689
 11
-7.63406
 21
69.8689
  0
ENDSEC
  0
SECTION
  2
OBJECTS
  0
DICTIONARY
  0
ENDSEC
  0
EOF
