<?xml version="1.0" standalone="no"?>
<!DOCTYPE svg PUBLIC "-//W3C//DTD SVG 1.1//EN" "http://www.w3.org/Graphics/SVG/1.1/DTD/svg11.dtd">
<svg width="166mm" height="108mm" viewBox="-83 -210 166 108" xmlns="http://www.w3.org/2000/svg" version="1.1">
<title>OpenSCAD Model</title>
<path d="
M 78.4369,-180.089 L 79.0451,-180.245 L 79.6289,-180.476 L 80.1791,-180.778 L 80.6871,-181.147 L 81.1448,-181.577
 L 81.5451,-182.061 L 81.8815,-182.591 L 82.1489,-183.159 L 82.3429,-183.757 L 82.4606,-184.373 L 82.5,-185
 L 82.5,-205 L 82.4606,-205.627 L 82.3429,-206.243 L 82.1489,-206.841 L 81.8815,-207.409 L 81.5451,-207.939
 L 81.1448,-208.423 L 80.6871,-208.853 L 80.1791,-209.222 L 79.6289,-209.524 L 79.0451,-209.755 L 78.4369,-209.911
 L 77.8139,-209.99 L -77.8139,-209.99 L -78.4369,-209.911 L -79.0451,-209.755 L -79.6289,-209.524 L -80.1791,-209.222
 L -80.6871,-208.853 L -81.1448,-208.423 L -81.5451,-207.939 L -81.8815,-207.409 L -82.1489,-206.841 L -82.3429,-206.243
 L -82.4606,-205.627 L -82.5,-205 L -82.5,-185 L -82.4606,-184.373 L -82.3429,-183.757 L -82.1489,-183.159
 L -81.8815,-182.591 L -81.5451,-182.061 L -81.1448,-181.577 L -80.6871,-181.147 L -80.1791,-180.778 L -79.6289,-180.476
 L -79.0451,-180.245 L -78.4369,-180.089 L -77.8139,-180.01 L 77.8139,-180.01 z
M -77.5482,-180.509 L -78.1401,-180.584 L -78.7178,-180.732 L -79.2724,-180.952 L -79.7952,-181.239 L -80.2778,-181.59
 L -80.7126,-181.998 L -81.0928,-182.458 L -81.4125,-182.962 L -81.6664,-183.501 L -81.8508,-184.069 L -81.9625,-184.655
 L -82,-185.25 L -82,-204.75 L -81.9625,-205.345 L -81.8508,-205.931 L -81.6664,-206.499 L -81.4125,-207.038
 L -81.0928,-207.542 L -80.7126,-208.002 L -80.2778,-208.41 L -79.7952,-208.761 L -79.2724,-209.048 L -78.7178,-209.268
 L -78.1401,-209.416 L -77.5482,-209.491 L 77.5482,-209.491 L 78.1401,-209.416 L 78.7178,-209.268 L 79.2724,-209.048
 L 79.7952,-208.761 L 80.2778,-208.41 L 80.7126,-208.002 L 81.0928,-207.542 L 81.4125,-207.038 L 81.6664,-206.499
 L 81.8508,-205.931 L 81.9625,-205.345 L 82,-204.75 L 82,-185.25 L 81.9625,-184.655 L 81.8508,-184.069
 L 81.6664,-183.501 L 81.4125,-182.962 L 81.0928,-182.458 L 80.7126,-181.998 L 80.2778,-181.59 L 79.7952,-181.239
 L 79.2724,-180.952 L 78.7178,-180.732 L 78.1401,-180.584 L 77.5482,-180.509 z
M 78.4369,-141.089 L 79.0451,-141.245 L 79.6289,-141.476 L 80.1791,-141.778 L 80.6871,-142.147 L 81.1448,-142.577
 L 81.5451,-143.061 L 81.8815,-143.591 L 82.1489,-144.159 L 82.3429,-144.757 L 82.4606,-145.373 L 82.5,-146
 L 82.5,-166 L 82.4606,-166.627 L 82.3429,-167.243 L 82.1489,-167.841 L 81.8815,-168.409 L 81.5451,-168.939
 L 81.1448,-169.423 L 80.6871,-169.853 L 80.1791,-170.222 L 79.6289,-170.524 L 79.0451,-170.755 L 78.4369,-170.911
 L 77.8139,-170.99 L -77.8139,-170.99 L -78.4369,-170.911 L -79.0451,-170.755 L -79.6289,-170.524 L -80.1791,-170.222
 L -80.6871,-169.853 L -81.1448,-169.423 L -81.5451,-168.939 L -81.8815,-168.409 L -82.1489,-167.841 L -82.3429,-167.243
 L -82.4606,-166.627 L -82.5,-166 L -82.5,-146 L -82.4606,-145.373 L -82.3429,-144.757 L -82.1489,-144.159
 L -81.8815,-143.591 L -81.5451,-143.061 L -81.1448,-142.577 L -80.6871,-142.147 L -80.1791,-141.778 L -79.6289,-141.476
 L -79.0451,-141.245 L -78.4369,-141.089 L -77.8139,-141.01 L 77.8139,-141.01 z
M -77.5375,-141.681 L -78.1079,-141.753 L -78.6648,-141.896 L -79.1994,-142.107 L -79.7032,-142.384 L -80.1684,-142.722
 L -80.5875,-143.116 L -80.954,-143.559 L -81.2621,-144.044 L -81.5069,-144.565 L -81.6846,-145.111 L -81.7923,-145.676
 L -81.8284,-146.25 L -81.8284,-165.75 L -81.7923,-166.324 L -81.6846,-166.889 L -81.5069,-167.435 L -81.2621,-167.956
 L -80.954,-168.441 L -80.5875,-168.884 L -80.1684,-169.278 L -79.7032,-169.616 L -79.1994,-169.893 L -78.6648,-170.104
 L -78.1079,-170.247 L -77.5375,-170.319 L 77.5375,-170.319 L 78.1079,-170.247 L 78.6648,-170.104 L 79.1994,-169.893
 L 79.7032,-169.616 L 80.1684,-169.278 L 80.5875,-168.884 L 80.954,-168.441 L 81.2621,-167.956 L 81.5069,-167.435
 L 81.6846,-166.889 L 81.7923,-166.324 L 81.8284,-165.75 L 81.8284,-146.25 L 81.7923,-145.676 L 81.6846,-145.111
 L 81.5069,-144.565 L 81.2621,-144.044 L 80.954,-143.559 L 80.5875,-143.116 L 80.1684,-142.722 L 79.7032,-142.384
 L 79.1994,-142.107 L 78.6648,-141.896 L 78.1079,-141.753 L 77.5375,-141.681 z
M 78.4369,-102.089 L 79.0451,-102.245 L 79.6289,-102.476 L 80.1791,-102.778 L 80.6871,-103.147 L 81.1448,-103.577
 L 81.5451,-104.061 L 81.8815,-104.591 L 82.1489,-105.159 L 82.3429,-105.757 L 82.4606,-106.373 L 82.5,-107
 L 82.5,-127 L 82.4606,-127.627 L 82.3429,-128.243 L 82.1489,-128.841 L 81.8815,-129.409 L 81.5451,-129.939
 L 81.1448,-130.423 L 80.6871,-130.853 L 80.1791,-131.222 L 79.6289,-131.524 L 79.0451,-131.755 L 78.4369,-131.911
 L 77.8139,-131.99 L -77.8139,-131.99 L -78.4369,-131.911 L -79.0451,-131.755 L -79.6289,-131.524 L -80.1791,-131.222
 L -80.6871,-130.853 L -81.1448,-130.423 L -81.5451,-129.939 L -81.8815,-129.409 L -82.1489,-128.841 L -82.3429,-128.243
 L -82.4606,-127.627 L -82.5,-127 L -82.5,-107 L -82.4606,-106.373 L -82.3429,-105.757 L -82.1489,-105.159
 L -81.8815,-104.591 L -81.5451,-104.061 L -81.1448,-103.577 L -80.6871,-103.147 L -80.1791,-102.778 L -79.6289,-102.476
 L -79.0451,-102.245 L -78.4369,-102.089 L -77.8139,-102.01 L 77.8139,-102.01 z
M -77.3825,-105.145 L -77.6453,-105.178 L -77.9019,-105.244 L -78.1482,-105.341 L -78.3804,-105.469 L -78.5947,-105.625
 L -78.7879,-105.806 L -78.9567,-106.01 L -79.0987,-106.234 L -79.2115,-106.473 L -79.2934,-106.725 L -79.343,-106.986
 L -79.3596,-107.25 L -79.3596,-126.75 L -79.343,-127.014 L -79.2934,-127.275 L -79.2115,-127.527 L -79.0987,-127.766
 L -78.9567,-127.99 L -78.7879,-128.194 L -78.5947,-128.375 L -78.3804,-128.531 L -78.1482,-128.659 L -77.9019,-128.756
 L -77.6453,-128.822 L -77.3825,-128.855 L 77.3825,-128.855 L 77.6453,-128.822 L 77.9019,-128.756 L 78.1482,-128.659
 L 78.3804,-128.531 L 78.5947,-128.375 L 78.7879,-128.194 L 78.9567,-127.99 L 79.0987,-127.766 L 79.2115,-127.527
 L 79.2934,-127.275 L 79.343,-127.014 L 79.3596,-126.75 L 79.3596,-107.25 L 79.343,-106.986 L 79.2934,-106.725
 L 79.2115,-106.473 L 79.0987,-106.234 L 78.9567,-106.01 L 78.7879,-105.806 L 78.5947,-105.625 L 78.3804,-105.469
 L 78.1482,-105.341 L 77.9019,-105.244 L 77.6453,-105.178 L 77.3825,-105.145 z
" stroke="black" fill="lightgray" stroke-width="0.5"/>
</svg>
