<?xml version="1.0" standalone="no"?>
<!DOCTYPE svg PUBLIC "-//W3C//DTD SVG 1.1//EN" "http://www.w3.org/Graphics/SVG/1.1/DTD/svg11.dtd">
<svg width="16mm" height="244mm" viewBox="-8 -458 16 244" xmlns="http://www.w3.org/2000/svg" version="1.1">
<title>OpenSCAD Model</title>
<path d="
M 3.4369,-382.589 L 4.04507,-382.745 L 4.62889,-382.976 L 5.17912,-383.278 L 5.68712,-383.647 L 6.14484,-384.077
 L 6.54507,-384.561 L 6.88153,-385.091 L 7.14888,-385.659 L 7.34291,-386.257 L 7.46057,-386.873 L 7.5,-387.5
 L 7.5,-452.5 L 7.46057,-453.127 L 7.34291,-453.743 L 7.14888,-454.341 L 6.88153,-454.909 L 6.54507,-455.439
 L 6.14484,-455.923 L 5.68712,-456.353 L 5.17912,-456.722 L 4.62889,-457.024 L 4.04507,-457.255 L 3.4369,-457.411
 L 2.81395,-457.49 L -2.81395,-457.49 L -3.4369,-457.411 L -4.04507,-457.255 L -4.62889,-457.024 L -5.17912,-456.722
 L -5.68712,-456.353 L -6.14484,-455.923 L -6.54507,-455.439 L -6.88153,-454.909 L -7.14888,-454.341 L -7.34291,-453.743
 L -7.46057,-453.127 L -7.5,-452.5 L -7.5,-387.5 L -7.46057,-386.873 L -7.34291,-386.257 L -7.14888,-385.659
 L -6.88153,-385.091 L -6.54507,-384.561 L -6.14484,-384.077 L -5.68712,-383.647 L -5.17912,-383.278 L -4.62889,-382.976
 L -4.04507,-382.745 L -3.4369,-382.589 L -2.81395,-382.51 L 2.81395,-382.51 z
M -2.25116,-384.008 L -2.74951,-384.071 L -3.23605,-384.196 L -3.70311,-384.381 L -4.1433,-384.623 L -4.54968,-384.918
 L -4.91586,-385.262 L -5.23605,-385.649 L -5.50522,-386.073 L -5.7191,-386.528 L -5.87433,-387.005 L -5.96844,-387.499
 L -6,-388 L -6,-452 L -5.96844,-452.501 L -5.87433,-452.995 L -5.7191,-453.472 L -5.50522,-453.927
 L -5.23605,-454.351 L -4.91586,-454.738 L -4.54968,-455.082 L -4.1433,-455.377 L -3.70311,-455.619 L -3.23605,-455.804
 L -2.74951,-455.929 L -2.25116,-455.992 L 2.25116,-455.992 L 2.74951,-455.929 L 3.23605,-455.804 L 3.70311,-455.619
 L 4.1433,-455.377 L 4.54968,-455.082 L 4.91586,-454.738 L 5.23605,-454.351 L 5.50522,-453.927 L 5.7191,-453.472
 L 5.87433,-452.995 L 5.96844,-452.501 L 6,-452 L 6,-388 L 5.96844,-387.499 L 5.87433,-387.005
 L 5.7191,-386.528 L 5.50522,-386.073 L 5.23605,-385.649 L 4.91586,-385.262 L 4.54968,-384.918 L 4.1433,-384.623
 L 3.70311,-384.381 L 3.23605,-384.196 L 2.74951,-384.071 L 2.25116,-384.008 z
M 3.4369,-298.589 L 4.04507,-298.745 L 4.62889,-298.976 L 5.17912,-299.278 L 5.68712,-299.647 L 6.14484,-300.077
 L 6.54507,-300.561 L 6.88153,-301.091 L 7.14888,-301.659 L 7.34291,-302.257 L 7.46057,-302.873 L 7.5,-303.5
 L 7.5,-368.5 L 7.46057,-369.127 L 7.34291,-369.743 L 7.14888,-370.341 L 6.88153,-370.909 L 6.54507,-371.439
 L 6.14484,-371.923 L 5.68712,-372.353 L 5.17912,-372.722 L 4.62889,-373.024 L 4.04507,-373.255 L 3.4369,-373.411
 L 2.81395,-373.49 L -2.81395,-373.49 L -3.4369,-373.411 L -4.04507,-373.255 L -4.62889,-373.024 L -5.17912,-372.722
 L -5.68712,-372.353 L -6.14484,-371.923 L -6.54507,-371.439 L -6.88153,-370.909 L -7.14888,-370.341 L -7.34291,-369.743
 L -7.46057,-369.127 L -7.5,-368.5 L -7.5,-303.5 L -7.46057,-302.873 L -7.34291,-302.257 L -7.14888,-301.659
 L -6.88153,-301.091 L -6.54507,-300.561 L -6.14484,-300.077 L -5.68712,-299.647 L -5.17912,-299.278 L -4.62889,-298.976
 L -4.04507,-298.745 L -3.4369,-298.589 L -2.81395,-298.51 L 2.81395,-298.51 z
M -2.19545,-300.893 L -2.5833,-300.942 L -2.96194,-301.039 L -3.32541,-301.183 L -3.66798,-301.372 L -3.98424,-301.601
 L -4.26921,-301.869 L -4.5184,-302.17 L -4.72786,-302.5 L -4.89432,-302.854 L -5.01512,-303.226 L -5.08836,-303.61
 L -5.11292,-304 L -5.11292,-368 L -5.08836,-368.39 L -5.01512,-368.774 L -4.89432,-369.146 L -4.72786,-369.5
 L -4.5184,-369.83 L -4.26921,-370.131 L -3.98424,-370.399 L -3.66798,-370.628 L -3.32541,-370.817 L -2.96194,-370.961
 L -2.5833,-371.058 L -2.19545,-371.107 L 2.19545,-371.107 L 2.5833,-371.058 L 2.96194,-370.961 L 3.32541,-370.817
 L 3.66798,-370.628 L 3.98424,-370.399 L 4.26921,-370.131 L 4.5184,-369.83 L 4.72786,-369.5 L 4.89432,-369.146
 L 5.01512,-368.774 L 5.08836,-368.39 L 5.11292,-368 L 5.11292,-304 L 5.08836,-303.61 L 5.01512,-303.226
 L 4.89432,-302.854 L 4.72786,-302.5 L 4.5184,-302.17 L 4.26921,-301.869 L 3.98424,-301.601 L 3.66798,-301.372
 L 3.32541,-301.183 L 2.96194,-301.039 L 2.5833,-300.942 L 2.19545,-300.893 z
M 3.4369,-214.589 L 4.04507,-214.745 L 4.62889,-214.976 L 5.17912,-215.278 L 5.68712,-215.647 L 6.14484,-216.077
 L 6.54507,-216.561 L 6.88153,-217.091 L 7.14888,-217.659 L 7.34291,-218.257 L 7.46057,-218.873 L 7.5,-219.5
 L 7.5,-284.5 L 7.46057,-285.127 L 7.34291,-285.743 L 7.14888,-286.341 L 6.88153,-286.909 L 6.54507,-287.439
 L 6.14484,-287.923 L 5.68712,-288.353 L 5.17912,-288.722 L 4.62889,-289.024 L 4.04507,-289.255 L 3.4369,-289.411
 L 2.81395,-289.49 L -2.81395,-289.49 L -3.4369,-289.411 L -4.04507,-289.255 L -4.62889,-289.024 L -5.17912,-288.722
 L -5.68712,-288.353 L -6.14484,-287.923 L -6.54507,-287.439 L -6.88153,-286.909 L -7.14888,-286.341 L -7.34291,-285.743
 L -7.46057,-285.127 L -7.5,-284.5 L -7.5,-219.5 L -7.46057,-218.873 L -7.34291,-218.257 L -7.14888,-217.659
 L -6.88153,-217.091 L -6.54507,-216.561 L -6.14484,-216.077 L -5.68712,-215.647 L -5.17912,-215.278 L -4.62889,-214.976
 L -4.04507,-214.745 L -3.4369,-214.589 L -2.81395,-214.51 L 2.81395,-214.51 z
M -0.134064,-279.869 L -0.400101,-279.903 L -0.659836,-279.969 L -0.909149,-280.068 L -1.14413,-280.197 L -1.36108,-280.355
 L -1.55655,-280.538 L -1.72748,-280.745 L -1.87117,-280.971 L -1.98534,-281.214 L -2.06821,-281.469 L -2.11845,-281.732
 L -2.13528,-282 L -2.11845,-282.268 L -2.06821,-282.531 L -1.98534,-282.786 L -1.87117,-283.029 L -1.72748,-283.255
 L -1.55655,-283.462 L -1.36108,-283.645 L -1.14413,-283.803 L -0.909149,-283.932 L -0.659836,-284.031 L -0.400101,-284.097
 L -0.134064,-284.131 L 0.134064,-284.131 L 0.400101,-284.097 L 0.659836,-284.031 L 0.909149,-283.932 L 1.14413,-283.803
 L 1.36108,-283.645 L 1.55655,-283.462 L 1.72748,-283.255 L 1.87117,-283.029 L 1.98534,-282.786 L 2.06821,-282.531
 L 2.11845,-282.268 L 2.13528,-282 L 2.11845,-281.732 L 2.06821,-281.469 L 1.98534,-281.214 L 1.87117,-280.971
 L 1.72748,-280.745 L 1.55655,-280.538 L 1.36108,-280.355 L 1.14413,-280.197 L 0.909149,-280.068 L 0.659836,-279.969
 L 0.400101,-279.903 L 0.134064,-279.869 z
M -0.134064,-219.869 L -0.400101,-219.903 L -0.659836,-219.969 L -0.909149,-220.068 L -1.14413,-220.197 L -1.36108,-220.355
 L -1.55655,-220.538 L -1.72748,-220.745 L -1.87117,-220.971 L -1.98534,-221.214 L -2.06821,-221.469 L -2.11845,-221.732
 L -2.13528,-222 L -2.11845,-222.268 L -2.06821,-222.531 L -1.98534,-222.786 L -1.87117,-223.029 L -1.72748,-223.255
 L -1.55655,-223.462 L -1.36108,-223.645 L -1.14413,-223.803 L -0.909149,-223.932 L -0.659836,-224.031 L -0.400101,-224.097
 L -0.134064,-224.131 L 0.134064,-224.131 L 0.400101,-224.097 L 0.659836,-224.031 L 0.909149,-223.932 L 1.14413,-223.803
 L 1.36108,-223.645 L 1.55655,-223.462 L 1.72748,-223.255 L 1.87117,-223.029 L 1.98534,-222.786 L 2.06821,-222.531
 L 2.11845,-222.268 L 2.13528,-222 L 2.11845,-221.732 L 2.06821,-221.469 L 1.98534,-221.214 L 1.87117,-220.971
 L 1.72748,-220.745 L 1.55655,-220.538 L 1.36108,-220.355 L 1.14413,-220.197 L 0.909149,-220.068 L 0.659836,-219.969
 L 0.400101,-219.903 L 0.134064,-219.869 z
" stroke="black" fill="lightgray" stroke-width="0.5"/>
</svg>
