<?xml version="1.0" standalone="no"?>
<!DOCTYPE svg PUBLIC "-//W3C//DTD SVG 1.1//EN" "http://www.w3.org/Graphics/SVG/1.1/DTD/svg11.dtd">
<svg width="167mm" height="64mm" viewBox="-84 -104 167 64" xmlns="http://www.w3.org/2000/svg" version="1.1">
<title>OpenSCAD Model</title>
<path d="
M -81,-89.9413 L -80.6871,-89.6474 L -80.1791,-89.2784 L -79.6289,-88.9759 L -79.0451,-88.7447 L -78.4369,-88.5886
 L -77.8139,-88.5099 L 77.8139,-88.5099 L 78.4369,-88.5886 L 79.0451,-88.7447 L 79.6289,-88.9759 L 80.1791,-89.2784
 L 80.6871,-89.6474 L 81.1448,-90.0773 L 81.5451,-90.5611 L 81.8815,-91.0912 L 82.1489,-91.6594 L 82.3429,-92.2566
 L 82.4606,-92.8733 L 82.5,-93.5 L 82.5,-98.5 L 82.4606,-99.1267 L 82.3429,-99.7434 L 82.1489,-100.341
 L 81.8815,-100.909 L 81.5451,-101.439 L 81.1448,-101.923 L 80.6871,-102.353 L 80.1791,-102.722 L 79.6289,-103.024
 L 79.0451,-103.255 L 78.4369,-103.411 L 77.8139,-103.49 L -77.8139,-103.49 L -78.4369,-103.411 L -79.0451,-103.255
 L -79.6289,-103.024 L -80.1791,-102.722 L -80.6871,-102.353 L -81,-102.059 L -81,-103.49 L -84,-103.49
 L -84,-88.5099 L -81,-88.5099 z
M -77.2432,-90.135 L -77.7256,-90.196 L -78.1967,-90.3169 L -78.6489,-90.4959 L -79.0751,-90.7302 L -79.4685,-91.0161
 L -79.823,-91.349 L -80.133,-91.7237 L -80.3936,-92.1344 L -80.6007,-92.5744 L -80.751,-93.0369 L -80.8421,-93.5146
 L -80.8726,-94 L -80.8726,-98 L -80.8421,-98.4854 L -80.751,-98.9631 L -80.6007,-99.4256 L -80.3936,-99.8656
 L -80.133,-100.276 L -79.823,-100.651 L -79.4685,-100.984 L -79.0751,-101.27 L -78.6489,-101.504 L -78.1967,-101.683
 L -77.7256,-101.804 L -77.2432,-101.865 L 77.2432,-101.865 L 77.7256,-101.804 L 78.1967,-101.683 L 78.6489,-101.504
 L 79.0751,-101.27 L 79.4685,-100.984 L 79.823,-100.651 L 80.133,-100.276 L 80.3936,-99.8656 L 80.6007,-99.4256
 L 80.751,-98.9631 L 80.8421,-98.4854 L 80.8726,-98 L 80.8726,-94 L 80.8421,-93.5146 L 80.751,-93.0369
 L 80.6007,-92.5744 L 80.3936,-92.1344 L 80.133,-91.7237 L 79.823,-91.349 L 79.4685,-91.0161 L 79.0751,-90.7302
 L 78.6489,-90.4959 L 78.1967,-90.3169 L 77.7256,-90.196 L 77.2432,-90.135 z
M 78.4369,-64.5886 L 79.0451,-64.7447 L 79.6289,-64.9759 L 80.1791,-65.2784 L 80.6871,-65.6474 L 81.1448,-66.0773
 L 81.5451,-66.5611 L 81.8815,-67.0912 L 82.1489,-67.6594 L 82.3429,-68.2566 L 82.4606,-68.8733 L 82.5,-69.5
 L 82.5,-74.5 L 82.4606,-75.1267 L 82.3429,-75.7434 L 82.1489,-76.3406 L 81.8815,-76.9088 L 81.5451,-77.4389
 L 81.1448,-77.9227 L 80.6871,-78.3526 L 80.1791,-78.7216 L 79.6289,-79.0241 L 79.0451,-79.2553 L 78.4369,-79.4114
 L 77.8139,-79.4901 L -77.8139,-79.4901 L -78.4369,-79.4114 L -79.0451,-79.2553 L -79.6289,-79.0241 L -80.1791,-78.7216
 L -80.6871,-78.3526 L -81,-78.0587 L -81,-79.1148 L -84,-79.1148 L -84,-64.8852 L -81,-64.8852
 L -81,-65.9413 L -80.6871,-65.6474 L -80.1791,-65.2784 L -79.6289,-64.9759 L -79.0451,-64.7447 L -78.4369,-64.5886
 L -77.8139,-64.5099 L 77.8139,-64.5099 z
M 78.4369,-40.5886 L 79.0451,-40.7447 L 79.6289,-40.9759 L 80.1791,-41.2784 L 80.6871,-41.6474 L 81.1448,-42.0773
 L 81.5451,-42.5611 L 81.8815,-43.0912 L 82.1489,-43.6594 L 82.3429,-44.2566 L 82.4606,-44.8733 L 82.5,-45.5
 L 82.5,-50.5 L 82.4606,-51.1267 L 82.3429,-51.7434 L 82.1489,-52.3406 L 81.8815,-52.9088 L 81.5451,-53.4389
 L 81.1448,-53.9227 L 80.6871,-54.3526 L 80.1791,-54.7216 L 79.6289,-55.0241 L 79.0451,-55.2553 L 78.4369,-55.4114
 L 77.8139,-55.4901 L -77.8139,-55.4901 L -78.4369,-55.4114 L -79.0451,-55.2553 L -79.6289,-55.0241 L -80.1791,-54.7216
 L -80.6871,-54.3526 L -81.1448,-53.9227 L -81.5451,-53.4389 L -81.8815,-52.9088 L -82.1489,-52.3406 L -82.3429,-51.7434
 L -82.4,-51.4442 L -84,-51.4442 L -84,-44.5558 L -82.4,-44.5558 L -82.3429,-44.2566 L -82.1489,-43.6594
 L -81.8815,-43.0912 L -81.5451,-42.5611 L -81.1448,-42.0773 L -80.6871,-41.6474 L -80.1791,-41.2784 L -79.6289,-40.9759
 L -79.0451,-40.7447 L -78.4369,-40.5886 L -77.8139,-40.5099 L 77.8139,-40.5099 z
M -75.113,-46.2036 L -75.3373,-46.2319 L -75.5562,-46.2881 L -75.7664,-46.3713 L -75.9645,-46.4802 L -76.1474,-46.6131
 L -76.3121,-46.7678 L -76.4562,-46.942 L -76.5773,-47.1329 L -76.6736,-47.3374 L -76.7434,-47.5524 L -76.7858,-47.7744
 L -76.8,-48 L -76.7858,-48.2256 L -76.7434,-48.4476 L -76.6736,-48.6626 L -76.5773,-48.8671 L -76.4562,-49.058
 L -76.3121,-49.2322 L -76.1474,-49.3869 L -75.9645,-49.5198 L -75.7664,-49.6287 L -75.5562,-49.7119 L -75.3373,-49.7681
 L -75.113,-49.7964 L -74.887,-49.7964 L -74.6627,-49.7681 L -74.4438,-49.7119 L -74.2336,-49.6287 L -74.0355,-49.5198
 L -73.8526,-49.3869 L -73.6879,-49.2322 L -73.5438,-49.058 L -73.4226,-48.8671 L -73.3264,-48.6626 L -73.2565,-48.4476
 L -73.2142,-48.2256 L -73.2,-48 L -73.2142,-47.7744 L -73.2565,-47.5524 L -73.3264,-47.3374 L -73.4226,-47.1329
 L -73.5438,-46.942 L -73.6879,-46.7678 L -73.8526,-46.6131 L -74.0355,-46.4802 L -74.2336,-46.3713 L -74.4438,-46.2881
 L -74.6627,-46.2319 L -74.887,-46.2036 z
M 74.887,-46.2036 L 74.6627,-46.2319 L 74.4438,-46.2881 L 74.2336,-46.3713 L 74.0355,-46.4802 L 73.8526,-46.6131
 L 73.6879,-46.7678 L 73.5438,-46.942 L 73.4226,-47.1329 L 73.3264,-47.3374 L 73.2565,-47.5524 L 73.2142,-47.7744
 L 73.2,-48 L 73.2142,-48.2256 L 73.2565,-48.4476 L 73.3264,-48.6626 L 73.4226,-48.8671 L 73.5438,-49.058
 L 73.6879,-49.2322 L 73.8526,-49.3869 L 74.0355,-49.5198 L 74.2336,-49.6287 L 74.4438,-49.7119 L 74.6627,-49.7681
 L 74.887,-49.7964 L 75.113,-49.7964 L 75.3373,-49.7681 L 75.5562,-49.7119 L 75.7664,-49.6287 L 75.9645,-49.5198
 L 76.1474,-49.3869 L 76.3121,-49.2322 L 76.4562,-49.058 L 76.5773,-48.8671 L 76.6736,-48.6626 L 76.7434,-48.4476
 L 76.7858,-48.2256 L 76.8,-48 L 76.7858,-47.7744 L 76.7434,-47.5524 L 76.6736,-47.3374 L 76.5773,-47.1329
 L 76.4562,-46.942 L 76.3121,-46.7678 L 76.1474,-46.6131 L 75.9645,-46.4802 L 75.7664,-46.3713 L 75.5562,-46.2881
 L 75.3373,-46.2319 L 75.113,-46.2036 z
" stroke="black" fill="lightgray" stroke-width="0.5"/>
</svg>
