  0
SECTION
  2
BLOCKS
  0
ENDSEC
  0
SECTION
  2
ENTITIES
  0
LINE
  8
0
 10
10.9369
 20
139.589
 11
11.5451
 21
139.745
  0
LINE
  8
0
 10
11.5451
 20
139.745
 11
12.1289
 21
139.976
  0
LINE
  8
0
 10
12.1289
 20
139.976
 11
12.6791
 21
140.278
  0
LINE
  8
0
 10
12.6791
 20
140.278
 11
13.1871
 21
140.647
  0
LINE
  8
0
 10
13.1871
 20
140.647
 11
13.6448
 21
141.077
  0
LINE
  8
0
 10
13.6448
 20
141.077
 11
14.0451
 21
141.561
  0
LINE
  8
0
 10
14.0451
 20
141.561
 11
14.3815
 21
142.091
  0
LINE
  8
0
 10
14.3815
 20
142.091
 11
14.6489
 21
142.659
  0
LINE
  8
0
 10
14.6489
 20
142.659
 11
14.8429
 21
143.257
  0
LINE
  8
0
 10
14.8429
 20
143.257
 11
14.9606
 21
143.873
  0
LINE
  8
0
 10
14.9606
 20
143.873
 11
15
 21
144.5
  0
LINE
  8
0
 10
15
 20
144.5
 11
15
 21
179.5
  0
LINE
  8
0
 10
15
 20
179.5
 11
14.9606
 21
180.127
  0
LINE
  8
0
 10
14.9606
 20
180.127
 11
14.8429
 21
180.743
  0
LINE
  8
0
 10
14.8429
 20
180.743
 11
14.6489
 21
181.341
  0
LINE
  8
0
 10
14.6489
 20
181.341
 11
14.3815
 21
181.909
  0
LINE
  8
0
 10
14.3815
 20
181.909
 11
14.0451
 21
182.439
  0
LINE
  8
0
 10
14.0451
 20
182.439
 11
13.6448
 21
182.923
  0
LINE
  8
0
 10
13.6448
 20
182.923
 11
13.1871
 21
183.353
  0
LINE
  8
0
 10
13.1871
 20
183.353
 11
12.6791
 21
183.722
  0
LINE
  8
0
 10
12.6791
 20
183.722
 11
12.1289
 21
184.024
  0
LINE
  8
0
 10
12.1289
 20
184.024
 11
11.5451
 21
184.255
  0
LINE
  8
0
 10
11.5451
 20
184.255
 11
10.9369
 21
184.411
  0
LINE
  8
0
 10
10.9369
 20
184.411
 11
10.3139
 21
184.49
  0
LINE
  8
0
 10
10.3139
 20
184.49
 11
-10.3139
 21
184.49
  0
LINE
  8
0
 10
-10.3139
 20
184.49
 11
-10.9369
 21
184.411
  0
LINE
  8
0
 10
-10.9369
 20
184.411
 11
-11.5451
 21
184.255
  0
LINE
  8
0
 10
-11.5451
 20
184.255
 11
-12.1289
 21
184.024
  0
LINE
  8
0
 10
-12.1289
 20
184.024
 11
-12.6791
 21
183.722
  0
LINE
  8
0
 10
-12.6791
 20
183.722
 11
-13.1871
 21
183.353
  0
LINE
  8
0
 10
-13.1871
 20
183.353
 11
-13.6448
 21
182.923
  0
LINE
  8
0
 10
-13.6448
 20
182.923
 11
-14.0451
 21
182.439
  0
LINE
  8
0
 10
-14.0451
 20
182.439
 11
-14.3815
 21
181.909
  0
LINE
  8
0
 10
-14.3815
 20
181.909
 11
-14.6489
 21
181.341
  0
LINE
  8
0
 10
-14.6489
 20
181.341
 11
-14.8429
 21
180.743
  0
LINE
  8
0
 10
-14.8429
 20
180.743
 11
-14.9606
 21
180.127
  0
LINE
  8
0
 10
-14.9606
 20
180.127
 11
-15
 21
179.5
  0
LINE
  8
0
 10
-15
 20
179.5
 11
-15
 21
144.5
  0
LINE
  8
0
 10
-15
 20
144.5
 11
-14.9606
 21
143.873
  0
LINE
  8
0
 10
-14.9606
 20
143.873
 11
-14.8429
 21
143.257
  0
LINE
  8
0
 10
-14.8429
 20
143.257
 11
-14.6489
 21
142.659
  0
LINE
  8
0
 10
-14.6489
 20
142.659
 11
-14.3815
 21
142.091
  0
LINE
  8
0
 10
-14.3815
 20
142.091
 11
-14.0451
 21
141.561
  0
LINE
  8
0
 10
-14.0451
 20
141.561
 11
-13.6448
 21
141.077
  0
LINE
  8
0
 10
-13.6448
 20
141.077
 11
-13.1871
 21
140.647
  0
LINE
  8
0
 10
-13.1871
 20
140.647
 11
-12.6791
 21
140.278
  0
LINE
  8
0
 10
-12.6791
 20
140.278
 11
-12.1289
 21
139.976
  0
LINE
  8
0
 10
-12.1289
 20
139.976
 11
-11.5451
 21
139.745
  0
LINE
  8
0
 10
-11.5451
 20
139.745
 11
-10.9369
 21
139.589
  0
LINE
  8
0
 10
-10.9369
 20
139.589
 11
-10.3139
 21
139.51
  0
LINE
  8
0
 10
-10.3139
 20
139.51
 11
10.3139
 21
139.51
  0
LINE
  8
0
 10
10.3139
 20
139.51
 11
10.9369
 21
139.589
  0
LINE
  8
0
 10
-9.69545
 20
141.893
 11
-10.0833
 21
141.942
  0
LINE
  8
0
 10
-10.0833
 20
141.942
 11
-10.4619
 21
142.039
  0
LINE
  8
0
 10
-10.4619
 20
142.039
 11
-10.8254
 21
142.183
  0
LINE
  8
0
 10
-10.8254
 20
142.183
 11
-11.168
 21
142.372
  0
LINE
  8
0
 10
-11.168
 20
142.372
 11
-11.4842
 21
142.601
  0
LINE
  8
0
 10
-11.4842
 20
142.601
 11
-11.7692
 21
142.869
  0
LINE
  8
0
 10
-11.7692
 20
142.869
 11
-12.0184
 21
143.17
  0
LINE
  8
0
 10
-12.0184
 20
143.17
 11
-12.2279
 21
143.5
  0
LINE
  8
0
 10
-12.2279
 20
143.5
 11
-12.3943
 21
143.854
  0
LINE
  8
0
 10
-12.3943
 20
143.854
 11
-12.5151
 21
144.226
  0
LINE
  8
0
 10
-12.5151
 20
144.226
 11
-12.5884
 21
144.61
  0
LINE
  8
0
 10
-12.5884
 20
144.61
 11
-12.6129
 21
145
  0
LINE
  8
0
 10
-12.6129
 20
145
 11
-12.6129
 21
179
  0
LINE
  8
0
 10
-12.6129
 20
179
 11
-12.5884
 21
179.39
  0
LINE
  8
0
 10
-12.5884
 20
179.39
 11
-12.5151
 21
179.774
  0
LINE
  8
0
 10
-12.5151
 20
179.774
 11
-12.3943
 21
180.146
  0
LINE
  8
0
 10
-12.3943
 20
180.146
 11
-12.2279
 21
180.5
  0
LINE
  8
0
 10
-12.2279
 20
180.5
 11
-12.0184
 21
180.83
  0
LINE
  8
0
 10
-12.0184
 20
180.83
 11
-11.7692
 21
181.131
  0
LINE
  8
0
 10
-11.7692
 20
181.131
 11
-11.4842
 21
181.399
  0
LINE
  8
0
 10
-11.4842
 20
181.399
 11
-11.168
 21
181.628
  0
LINE
  8
0
 10
-11.168
 20
181.628
 11
-10.8254
 21
181.817
  0
LINE
  8
0
 10
-10.8254
 20
181.817
 11
-10.4619
 21
181.961
  0
LINE
  8
0
 10
-10.4619
 20
181.961
 11
-10.0833
 21
182.058
  0
LINE
  8
0
 10
-10.0833
 20
182.058
 11
-9.69545
 21
182.107
  0
LINE
  8
0
 10
-9.69545
 20
182.107
 11
9.69545
 21
182.107
  0
LINE
  8
0
 10
9.69545
 20
182.107
 11
10.0833
 21
182.058
  0
LINE
  8
0
 10
10.0833
 20
182.058
 11
10.4619
 21
181.961
  0
LINE
  8
0
 10
10.4619
 20
181.961
 11
10.8254
 21
181.817
  0
LINE
  8
0
 10
10.8254
 20
181.817
 11
11.168
 21
181.628
  0
LINE
  8
0
 10
11.168
 20
181.628
 11
11.4842
 21
181.399
  0
LINE
  8
0
 10
11.4842
 20
181.399
 11
11.7692
 21
181.131
  0
LINE
  8
0
 10
11.7692
 20
181.131
 11
12.0184
 21
180.83
  0
LINE
  8
0
 10
12.0184
 20
180.83
 11
12.2279
 21
180.5
  0
LINE
  8
0
 10
12.2279
 20
180.5
 11
12.3943
 21
180.146
  0
LINE
  8
0
 10
12.3943
 20
180.146
 11
12.5151
 21
179.774
  0
LINE
  8
0
 10
12.5151
 20
179.774
 11
12.5884
 21
179.39
  0
LINE
  8
0
 10
12.5884
 20
179.39
 11
12.6129
 21
179
  0
LINE
  8
0
 10
12.6129
 20
179
 11
12.6129
 21
145
  0
LINE
  8
0
 10
12.6129
 20
145
 11
12.5884
 21
144.61
  0
LINE
  8
0
 10
12.5884
 20
144.61
 11
12.5151
 21
144.226
  0
LINE
  8
0
 10
12.5151
 20
144.226
 11
12.3943
 21
143.854
  0
LINE
  8
0
 10
12.3943
 20
143.854
 11
12.2279
 21
143.5
  0
LINE
  8
0
 10
12.2279
 20
143.5
 11
12.0184
 21
143.17
  0
LINE
  8
0
 10
12.0184
 20
143.17
 11
11.7692
 21
142.869
  0
LINE
  8
0
 10
11.7692
 20
142.869
 11
11.4842
 21
142.601
  0
LINE
  8
0
 10
11.4842
 20
142.601
 11
11.168
 21
142.372
  0
LINE
  8
0
 10
11.168
 20
142.372
 11
10.8254
 21
142.183
  0
LINE
  8
0
 10
10.8254
 20
142.183
 11
10.4619
 21
142.039
  0
LINE
  8
0
 10
10.4619
 20
142.039
 11
10.0833
 21
141.942
  0
LINE
  8
0
 10
10.0833
 20
141.942
 11
9.69545
 21
141.893
  0
LINE
  8
0
 10
9.69545
 20
141.893
 11
-9.69545
 21
141.893
  0
LINE
  8
0
 10
10.9369
 20
85.5886
 11
11.5451
 21
85.7447
  0
LINE
  8
0
 10
11.5451
 20
85.7447
 11
12.1289
 21
85.9759
  0
LINE
  8
0
 10
12.1289
 20
85.9759
 11
12.6791
 21
86.2784
  0
LINE
  8
0
 10
12.6791
 20
86.2784
 11
13.1871
 21
86.6474
  0
LINE
  8
0
 10
13.1871
 20
86.6474
 11
13.6448
 21
87.0773
  0
LINE
  8
0
 10
13.6448
 20
87.0773
 11
14.0451
 21
87.5611
  0
LINE
  8
0
 10
14.0451
 20
87.5611
 11
14.3815
 21
88.0912
  0
LINE
  8
0
 10
14.3815
 20
88.0912
 11
14.6489
 21
88.6594
  0
LINE
  8
0
 10
14.6489
 20
88.6594
 11
14.8429
 21
89.2566
  0
LINE
  8
0
 10
14.8429
 20
89.2566
 11
14.9606
 21
89.8733
  0
LINE
  8
0
 10
14.9606
 20
89.8733
 11
15
 21
90.5
  0
LINE
  8
0
 10
15
 20
90.5
 11
15
 21
125.5
  0
LINE
  8
0
 10
15
 20
125.5
 11
14.9606
 21
126.127
  0
LINE
  8
0
 10
14.9606
 20
126.127
 11
14.8429
 21
126.743
  0
LINE
  8
0
 10
14.8429
 20
126.743
 11
14.6489
 21
127.341
  0
LINE
  8
0
 10
14.6489
 20
127.341
 11
14.3815
 21
127.909
  0
LINE
  8
0
 10
14.3815
 20
127.909
 11
14.0451
 21
128.439
  0
LINE
  8
0
 10
14.0451
 20
128.439
 11
13.6448
 21
128.923
  0
LINE
  8
0
 10
13.6448
 20
128.923
 11
13.1871
 21
129.353
  0
LINE
  8
0
 10
13.1871
 20
129.353
 11
12.6791
 21
129.722
  0
LINE
  8
0
 10
12.6791
 20
129.722
 11
12.1289
 21
130.024
  0
LINE
  8
0
 10
12.1289
 20
130.024
 11
11.5451
 21
130.255
  0
LINE
  8
0
 10
11.5451
 20
130.255
 11
10.9369
 21
130.411
  0
LINE
  8
0
 10
10.9369
 20
130.411
 11
10.3139
 21
130.49
  0
LINE
  8
0
 10
10.3139
 20
130.49
 11
-10.3139
 21
130.49
  0
LINE
  8
0
 10
-10.3139
 20
130.49
 11
-10.9369
 21
130.411
  0
LINE
  8
0
 10
-10.9369
 20
130.411
 11
-11.5451
 21
130.255
  0
LINE
  8
0
 10
-11.5451
 20
130.255
 11
-12.1289
 21
130.024
  0
LINE
  8
0
 10
-12.1289
 20
130.024
 11
-12.6791
 21
129.722
  0
LINE
  8
0
 10
-12.6791
 20
129.722
 11
-13.1871
 21
129.353
  0
LINE
  8
0
 10
-13.1871
 20
129.353
 11
-13.6448
 21
128.923
  0
LINE
  8
0
 10
-13.6448
 20
128.923
 11
-14.0451
 21
128.439
  0
LINE
  8
0
 10
-14.0451
 20
128.439
 11
-14.3815
 21
127.909
  0
LINE
  8
0
 10
-14.3815
 20
127.909
 11
-14.6489
 21
127.341
  0
LINE
  8
0
 10
-14.6489
 20
127.341
 11
-14.8429
 21
126.743
  0
LINE
  8
0
 10
-14.8429
 20
126.743
 11
-14.9606
 21
126.127
  0
LINE
  8
0
 10
-14.9606
 20
126.127
 11
-15
 21
125.5
  0
LINE
  8
0
 10
-15
 20
125.5
 11
-15
 21
90.5
  0
LINE
  8
0
 10
-15
 20
90.5
 11
-14.9606
 21
89.8733
  0
LINE
  8
0
 10
-14.9606
 20
89.8733
 11
-14.8429
 21
89.2566
  0
LINE
  8
0
 10
-14.8429
 20
89.2566
 11
-14.6489
 21
88.6594
  0
LINE
  8
0
 10
-14.6489
 20
88.6594
 11
-14.3815
 21
88.0912
  0
LINE
  8
0
 10
-14.3815
 20
88.0912
 11
-14.0451
 21
87.5611
  0
LINE
  8
0
 10
-14.0451
 20
87.5611
 11
-13.6448
 21
87.0773
  0
LINE
  8
0
 10
-13.6448
 20
87.0773
 11
-13.1871
 21
86.6474
  0
LINE
  8
0
 10
-13.1871
 20
86.6474
 11
-12.6791
 21
86.2784
  0
LINE
  8
0
 10
-12.6791
 20
86.2784
 11
-12.1289
 21
85.9759
  0
LINE
  8
0
 10
-12.1289
 20
85.9759
 11
-11.5451
 21
85.7447
  0
LINE
  8
0
 10
-11.5451
 20
85.7447
 11
-10.9369
 21
85.5886
  0
LINE
  8
0
 10
-10.9369
 20
85.5886
 11
-10.3139
 21
85.5099
  0
LINE
  8
0
 10
-10.3139
 20
85.5099
 11
10.3139
 21
85.5099
  0
LINE
  8
0
 10
10.3139
 20
85.5099
 11
10.9369
 21
85.5886
  0
LINE
  8
0
 10
7.36592
 20
120.869
 11
7.09988
 21
120.903
  0
LINE
  8
0
 10
7.09988
 20
120.903
 11
6.84015
 21
120.969
  0
LINE
  8
0
 10
6.84015
 20
120.969
 11
6.59084
 21
121.068
  0
LINE
  8
0
 10
6.59084
 20
121.068
 11
6.35585
 21
121.197
  0
LINE
  8
0
 10
6.35585
 20
121.197
 11
6.1389
 21
121.355
  0
LINE
  8
0
 10
6.1389
 20
121.355
 11
5.94344
 21
121.538
  0
LINE
  8
0
 10
5.94344
 20
121.538
 11
5.77251
 21
121.745
  0
LINE
  8
0
 10
5.77251
 20
121.745
 11
5.62881
 21
121.971
  0
LINE
  8
0
 10
5.62881
 20
121.971
 11
5.51465
 21
122.214
  0
LINE
  8
0
 10
5.51465
 20
122.214
 11
5.43178
 21
122.469
  0
LINE
  8
0
 10
5.43178
 20
122.469
 11
5.38153
 21
122.732
  0
LINE
  8
0
 10
5.38153
 20
122.732
 11
5.3647
 21
123
  0
LINE
  8
0
 10
5.3647
 20
123
 11
5.38153
 21
123.268
  0
LINE
  8
0
 10
5.38153
 20
123.268
 11
5.43178
 21
123.531
  0
LINE
  8
0
 10
5.43178
 20
123.531
 11
5.51465
 21
123.786
  0
LINE
  8
0
 10
5.51465
 20
123.786
 11
5.62881
 21
124.029
  0
LINE
  8
0
 10
5.62881
 20
124.029
 11
5.77251
 21
124.255
  0
LINE
  8
0
 10
5.77251
 20
124.255
 11
5.94344
 21
124.462
  0
LINE
  8
0
 10
5.94344
 20
124.462
 11
6.1389
 21
124.645
  0
LINE
  8
0
 10
6.1389
 20
124.645
 11
6.35585
 21
124.803
  0
LINE
  8
0
 10
6.35585
 20
124.803
 11
6.59084
 21
124.932
  0
LINE
  8
0
 10
6.59084
 20
124.932
 11
6.84015
 21
125.031
  0
LINE
  8
0
 10
6.84015
 20
125.031
 11
7.09988
 21
125.097
  0
LINE
  8
0
 10
7.09988
 20
125.097
 11
7.36592
 21
125.131
  0
LINE
  8
0
 10
7.36592
 20
125.131
 11
7.63406
 21
125.131
  0
LINE
  8
0
 10
7.63406
 20
125.131
 11
7.9001
 21
125.097
  0
LINE
  8
0
 10
7.9001
 20
125.097
 11
8.15984
 21
125.031
  0
LINE
  8
0
 10
8.15984
 20
125.031
 11
8.40915
 21
124.932
  0
LINE
  8
0
 10
8.40915
 20
124.932
 11
8.64413
 21
124.803
  0
LINE
  8
0
 10
8.64413
 20
124.803
 11
8.86108
 21
124.645
  0
LINE
  8
0
 10
8.86108
 20
124.645
 11
9.05655
 21
124.462
  0
LINE
  8
0
 10
9.05655
 20
124.462
 11
9.22748
 21
124.255
  0
LINE
  8
0
 10
9.22748
 20
124.255
 11
9.37117
 21
124.029
  0
LINE
  8
0
 10
9.37117
 20
124.029
 11
9.48534
 21
123.786
  0
LINE
  8
0
 10
9.48534
 20
123.786
 11
9.56821
 21
123.531
  0
LINE
  8
0
 10
9.56821
 20
123.531
 11
9.61845
 21
123.268
  0
LINE
  8
0
 10
9.61845
 20
123.268
 11
9.63528
 21
123
  0
LINE
  8
0
 10
9.63528
 20
123
 11
9.61845
 21
122.732
  0
LINE
  8
0
 10
9.61845
 20
122.732
 11
9.56821
 21
122.469
  0
LINE
  8
0
 10
9.56821
 20
122.469
 11
9.48534
 21
122.214
  0
LINE
  8
0
 10
9.48534
 20
122.214
 11
9.37117
 21
121.971
  0
LINE
  8
0
 10
9.37117
 20
121.971
 11
9.22748
 21
121.745
  0
LINE
  8
0
 10
9.22748
 20
121.745
 11
9.05655
 21
121.538
  0
LINE
  8
0
 10
9.05655
 20
121.538
 11
8.86108
 21
121.355
  0
LINE
  8
0
 10
8.86108
 20
121.355
 11
8.64413
 21
121.197
  0
LINE
  8
0
 10
8.64413
 20
121.197
 11
8.40915
 21
121.068
  0
LINE
  8
0
 10
8.40915
 20
121.068
 11
8.15984
 21
120.969
  0
LINE
  8
0
 10
8.15984
 20
120.969
 11
7.9001
 21
120.903
  0
LINE
  8
0
 10
7.9001
 20
120.903
 11
7.63406
 21
120.869
  0
LINE
  8
0
 10
7.63406
 20
120.869
 11
7.36592
 21
120.869
  0
LINE
  8
0
 10
-7.63406
 20
120.869
 11
-7.9001
 21
120.903
  0
LINE
  8
0
 10
-7.9001
 20
120.903
 11
-8.15984
 21
120.969
  0
LINE
  8
0
 10
-8.15984
 20
120.969
 11
-8.40915
 21
121.068
  0
LINE
  8
0
 10
-8.40915
 20
121.068
 11
-8.64413
 21
121.197
  0
LINE
  8
0
 10
-8.64413
 20
121.197
 11
-8.86108
 21
121.355
  0
LINE
  8
0
 10
-8.86108
 20
121.355
 11
-9.05655
 21
121.538
  0
LINE
  8
0
 10
-9.05655
 20
121.538
 11
-9.22748
 21
121.745
  0
LINE
  8
0
 10
-9.22748
 20
121.745
 11
-9.37117
 21
121.971
  0
LINE
  8
0
 10
-9.37117
 20
121.971
 11
-9.48534
 21
122.214
  0
LINE
  8
0
 10
-9.48534
 20
122.214
 11
-9.56821
 21
122.469
  0
LINE
  8
0
 10
-9.56821
 20
122.469
 11
-9.61845
 21
122.732
  0
LINE
  8
0
 10
-9.61845
 20
122.732
 11
-9.63528
 21
123
  0
LINE
  8
0
 10
-9.63528
 20
123
 11
-9.61845
 21
123.268
  0
LINE
  8
0
 10
-9.61845
 20
123.268
 11
-9.56821
 21
123.531
  0
LINE
  8
0
 10
-9.56821
 20
123.531
 11
-9.48534
 21
123.786
  0
LINE
  8
0
 10
-9.48534
 20
123.786
 11
-9.37117
 21
124.029
  0
LINE
  8
0
 10
-9.37117
 20
124.029
 11
-9.22748
 21
124.255
  0
LINE
  8
0
 10
-9.22748
 20
124.255
 11
-9.05655
 21
124.462
  0
LINE
  8
0
 10
-9.05655
 20
124.462
 11
-8.86108
 21
124.645
  0
LINE
  8
0
 10
-8.86108
 20
124.645
 11
-8.64413
 21
124.803
  0
LINE
  8
0
 10
-8.64413
 20
124.803
 11
-8.40915
 21
124.932
  0
LINE
  8
0
 10
-8.40915
 20
124.932
 11
-8.15984
 21
125.031
  0
LINE
  8
0
 10
-8.15984
 20
125.031
 11
-7.9001
 21
125.097
  0
LINE
  8
0
 10
-7.9001
 20
125.097
 11
-7.63406
 21
125.131
  0
LINE
  8
0
 10
-7.63406
 20
125.131
 11
-7.36592
 21
125.131
  0
LINE
  8
0
 10
-7.36592
 20
125.131
 11
-7.09988
 21
125.097
  0
LINE
  8
0
 10
-7.09988
 20
125.097
 11
-6.84015
 21
125.031
  0
LINE
  8
0
 10
-6.84015
 20
125.031
 11
-6.59084
 21
124.932
  0
LINE
  8
0
 10
-6.59084
 20
124.932
 11
-6.35585
 21
124.803
  0
LINE
  8
0
 10
-6.35585
 20
124.803
 11
-6.1389
 21
124.645
  0
LINE
  8
0
 10
-6.1389
 20
124.645
 11
-5.94344
 21
124.462
  0
LINE
  8
0
 10
-5.94344
 20
124.462
 11
-5.77251
 21
124.255
  0
LINE
  8
0
 10
-5.77251
 20
124.255
 11
-5.62881
 21
124.029
  0
LINE
  8
0
 10
-5.62881
 20
124.029
 11
-5.51465
 21
123.786
  0
LINE
  8
0
 10
-5.51465
 20
123.786
 11
-5.43178
 21
123.531
  0
LINE
  8
0
 10
-5.43178
 20
123.531
 11
-5.38153
 21
123.268
  0
LINE
  8
0
 10
-5.38153
 20
123.268
 11
-5.3647
 21
123
  0
LINE
  8
0
 10
-5.3647
 20
123
 11
-5.38153
 21
122.732
  0
LINE
  8
0
 10
-5.38153
 20
122.732
 11
-5.43178
 21
122.469
  0
LINE
  8
0
 10
-5.43178
 20
122.469
 11
-5.51465
 21
122.214
  0
LINE
  8
0
 10
-5.51465
 20
122.214
 11
-5.62881
 21
121.971
  0
LINE
  8
0
 10
-5.62881
 20
121.971
 11
-5.77251
 21
121.745
  0
LINE
  8
0
 10
-5.77251
 20
121.745
 11
-5.94344
 21
121.538
  0
LINE
  8
0
 10
-5.94344
 20
121.538
 11
-6.1389
 21
121.355
  0
LINE
  8
0
 10
-6.1389
 20
121.355
 11
-6.35585
 21
121.197
  0
LINE
  8
0
 10
-6.35585
 20
121.197
 11
-6.59084
 21
121.068
  0
LINE
  8
0
 10
-6.59084
 20
121.068
 11
-6.84015
 21
120.969
  0
LINE
  8
0
 10
-6.84015
 20
120.969
 11
-7.09988
 21
120.903
  0
LINE
  8
0
 10
-7.09988
 20
120.903
 11
-7.36592
 21
120.869
  0
LINE
  8
0
 10
-7.36592
 20
120.869
 11
-7.63406
 21
120.869
  0
LINE
  8
0
 10
7.36592
 20
90.8689
 11
7.09988
 21
90.9025
  0
LINE
  8
0
 10
7.09988
 20
90.9025
 11
6.84015
 21
90.9692
  0
LINE
  8
0
 10
6.84015
 20
90.9692
 11
6.59084
 21
91.0679
  0
LINE
  8
0
 10
6.59084
 20
91.0679
 11
6.35585
 21
91.1971
  0
LINE
  8
0
 10
6.35585
 20
91.1971
 11
6.1389
 21
91.3547
  0
LINE
  8
0
 10
6.1389
 20
91.3547
 11
5.94344
 21
91.5383
  0
LINE
  8
0
 10
5.94344
 20
91.5383
 11
5.77251
 21
91.7449
  0
LINE
  8
0
 10
5.77251
 20
91.7449
 11
5.62881
 21
91.9713
  0
LINE
  8
0
 10
5.62881
 20
91.9713
 11
5.51465
 21
92.214
  0
LINE
  8
0
 10
5.51465
 20
92.214
 11
5.43178
 21
92.469
  0
LINE
  8
0
 10
5.43178
 20
92.469
 11
5.38153
 21
92.7324
  0
LINE
  8
0
 10
5.38153
 20
92.7324
 11
5.3647
 21
93
  0
LINE
  8
0
 10
5.3647
 20
93
 11
5.38153
 21
93.2676
  0
LINE
  8
0
 10
5.38153
 20
93.2676
 11
5.43178
 21
93.531
  0
LINE
  8
0
 10
5.43178
 20
93.531
 11
5.51465
 21
93.7861
  0
LINE
  8
0
 10
5.51465
 20
93.7861
 11
5.62881
 21
94.0287
  0
LINE
  8
0
 10
5.62881
 20
94.0287
 11
5.77251
 21
94.2551
  0
LINE
  8
0
 10
5.77251
 20
94.2551
 11
5.94344
 21
94.4617
  0
LINE
  8
0
 10
5.94344
 20
94.4617
 11
6.1389
 21
94.6453
  0
LINE
  8
0
 10
6.1389
 20
94.6453
 11
6.35585
 21
94.8029
  0
LINE
  8
0
 10
6.35585
 20
94.8029
 11
6.59084
 21
94.9321
  0
LINE
  8
0
 10
6.59084
 20
94.9321
 11
6.84015
 21
95.0308
  0
LINE
  8
0
 10
6.84015
 20
95.0308
 11
7.09988
 21
95.0975
  0
LINE
  8
0
 10
7.09988
 20
95.0975
 11
7.36592
 21
95.1311
  0
LINE
  8
0
 10
7.36592
 20
95.1311
 11
7.63406
 21
95.1311
  0
LINE
  8
0
 10
7.63406
 20
95.1311
 11
7.9001
 21
95.0975
  0
LINE
  8
0
 10
7.9001
 20
95.0975
 11
8.15984
 21
95.0308
  0
LINE
  8
0
 10
8.15984
 20
95.0308
 11
8.40915
 21
94.9321
  0
LINE
  8
0
 10
8.40915
 20
94.9321
 11
8.64413
 21
94.8029
  0
LINE
  8
0
 10
8.64413
 20
94.8029
 11
8.86108
 21
94.6453
  0
LINE
  8
0
 10
8.86108
 20
94.6453
 11
9.05655
 21
94.4617
  0
LINE
  8
0
 10
9.05655
 20
94.4617
 11
9.22748
 21
94.2551
  0
LINE
  8
0
 10
9.22748
 20
94.2551
 11
9.37117
 21
94.0287
  0
LINE
  8
0
 10
9.37117
 20
94.0287
 11
9.48534
 21
93.7861
  0
LINE
  8
0
 10
9.48534
 20
93.7861
 11
9.56821
 21
93.531
  0
LINE
  8
0
 10
9.56821
 20
93.531
 11
9.61845
 21
93.2676
  0
LINE
  8
0
 10
9.61845
 20
93.2676
 11
9.63528
 21
93
  0
LINE
  8
0
 10
9.63528
 20
93
 11
9.61845
 21
92.7324
  0
LINE
  8
0
 10
9.61845
 20
92.7324
 11
9.56821
 21
92.469
  0
LINE
  8
0
 10
9.56821
 20
92.469
 11
9.48534
 21
92.214
  0
LINE
  8
0
 10
9.48534
 20
92.214
 11
9.37117
 21
91.9713
  0
LINE
  8
0
 10
9.37117
 20
91.9713
 11
9.22748
 21
91.7449
  0
LINE
  8
0
 10
9.22748
 20
91.7449
 11
9.05655
 21
91.5383
  0
LINE
  8
0
 10
9.05655
 20
91.5383
 11
8.86108
 21
91.3547
  0
LINE
  8
0
 10
8.86108
 20
91.3547
 11
8.64413
 21
91.1971
  0
LINE
  8
0
 10
8.64413
 20
91.1971
 11
8.40915
 21
91.0679
  0
LINE
  8
0
 10
8.40915
 20
91.0679
 11
8.15984
 21
90.9692
  0
LINE
  8
0
 10
8.15984
 20
90.9692
 11
7.9001
 21
90.9025
  0
LINE
  8
0
 10
7.9001
 20
90.9025
 11
7.63406
 21
90.8689
  0
LINE
  8
0
 10
7.63406
 20
90.8689
 11
7.36592
 21
90.8689
  0
LINE
  8
0
 10
-7.63406
 20
90.8689
 11
-7.9001
 21
90.9025
  0
LINE
  8
0
 10
-7.9001
 20
90.9025
 11
-8.15984
 21
90.9692
  0
LINE
  8
0
 10
-8.15984
 20
90.9692
 11
-8.40915
 21
91.0679
  0
LINE
  8
0
 10
-8.40915
 20
91.0679
 11
-8.64413
 21
91.1971
  0
LINE
  8
0
 10
-8.64413
 20
91.1971
 11
-8.86108
 21
91.3547
  0
LINE
  8
0
 10
-8.86108
 20
91.3547
 11
-9.05655
 21
91.5383
  0
LINE
  8
0
 10
-9.05655
 20
91.5383
 11
-9.22748
 21
91.7449
  0
LINE
  8
0
 10
-9.22748
 20
91.7449
 11
-9.37117
 21
91.9713
  0
LINE
  8
0
 10
-9.37117
 20
91.9713
 11
-9.48534
 21
92.214
  0
LINE
  8
0
 10
-9.48534
 20
92.214
 11
-9.56821
 21
92.469
  0
LINE
  8
0
 10
-9.56821
 20
92.469
 11
-9.61845
 21
92.7324
  0
LINE
  8
0
 10
-9.61845
 20
92.7324
 11
-9.63528
 21
93
  0
LINE
  8
0
 10
-9.63528
 20
93
 11
-9.61845
 21
93.2676
  0
LINE
  8
0
 10
-9.61845
 20
93.2676
 11
-9.56821
 21
93.531
  0
LINE
  8
0
 10
-9.56821
 20
93.531
 11
-9.48534
 21
93.7861
  0
LINE
  8
0
 10
-9.48534
 20
93.7861
 11
-9.37117
 21
94.0287
  0
LINE
  8
0
 10
-9.37117
 20
94.0287
 11
-9.22748
 21
94.2551
  0
LINE
  8
0
 10
-9.22748
 20
94.2551
 11
-9.05655
 21
94.4617
  0
LINE
  8
0
 10
-9.05655
 20
94.4617
 11
-8.86108
 21
94.6453
  0
LINE
  8
0
 10
-8.86108
 20
94.6453
 11
-8.64413
 21
94.8029
  0
LINE
  8
0
 10
-8.64413
 20
94.8029
 11
-8.40915
 21
94.9321
  0
LINE
  8
0
 10
-8.40915
 20
94.9321
 11
-8.15984
 21
95.0308
  0
LINE
  8
0
 10
-8.15984
 20
95.0308
 11
-7.9001
 21
95.0975
  0
LINE
  8
0
 10
-7.9001
 20
95.0975
 11
-7.63406
 21
95.1311
  0
LINE
  8
0
 10
-7.63406
 20
95.1311
 11
-7.36592
 21
95.1311
  0
LINE
  8
0
 10
-7.36592
 20
95.1311
 11
-7.09988
 21
95.0975
  0
LINE
  8
0
 10
-7.09988
 20
95.0975
 11
-6.84015
 21
95.0308
  0
LINE
  8
0
 10
-6.84015
 20
95.0308
 11
-6.59084
 21
94.9321
  0
LINE
  8
0
 10
-6.59084
 20
94.9321
 11
-6.35585
 21
94.8029
  0
LINE
  8
0
 10
-6.35585
 20
94.8029
 11
-6.1389
 21
94.6453
  0
LINE
  8
0
 10
-6.1389
 20
94.6453
 11
-5.94344
 21
94.4617
  0
LINE
  8
0
 10
-5.94344
 20
94.4617
 11
-5.77251
 21
94.2551
  0
LINE
  8
0
 10
-5.77251
 20
94.2551
 11
-5.62881
 21
94.0287
  0
LINE
  8
0
 10
-5.62881
 20
94.0287
 11
-5.51465
 21
93.7861
  0
LINE
  8
0
 10
-5.51465
 20
93.7861
 11
-5.43178
 21
93.531
  0
LINE
  8
0
 10
-5.43178
 20
93.531
 11
-5.38153
 21
93.2676
  0
LINE
  8
0
 10
-5.38153
 20
93.2676
 11
-5.3647
 21
93
  0
LINE
  8
0
 10
-5.3647
 20
93
 11
-5.38153
 21
92.7324
  0
LINE
  8
0
 10
-5.38153
 20
92.7324
 11
-5.43178
 21
92.469
  0
LINE
  8
0
 10
-5.43178
 20
92.469
 11
-5.51465
 21
92.214
  0
LINE
  8
0
 10
-5.51465
 20
92.214
 11
-5.62881
 21
91.9713
  0
LINE
  8
0
 10
-5.62881
 20
91.9713
 11
-5.77251
 21
91.7449
  0
LINE
  8
0
 10
-5.77251
 20
91.7449
 11
-5.94344
 21
91.5383
  0
LINE
  8
0
 10
-5.94344
 20
91.5383
 11
-6.1389
 21
91.3547
  0
LINE
  8
0
 10
-6.1389
 20
91.3547
 11
-6.35585
 21
91.1971
  0
LINE
  8
0
 10
-6.35585
 20
91.1971
 11
-6.59084
 21
91.0679
  0
LINE
  8
0
 10
-6.59084
 20
91.0679
 11
-6.84015
 21
90.9692
  0
LINE
  8
0
 10
-6.84015
 20
90.9692
 11
-7.09988
 21
90.9025
  0
LINE
  8
0
 10
-7.09988
 20
90.9025
 11
-7.36592
 21
90.8689
  0
LINE
  8
0
 10
-7.36592
 20
90.8689
 11
-7.63406
 21
90.8689
  0
ENDSEC
  0
SECTION
  2
OBJECTS
  0
DICTIONARY
  0
ENDSEC
  0
EOF
