  0
SECTION
  2
BLOCKS
  0
ENDSEC
  0
SECTION
  2
ENTITIES
  0
LINE
  8
0
 10
10.9369
 20
289.589
 11
11.5451
 21
289.745
  0
LINE
  8
0
 10
11.5451
 20
289.745
 11
12.1289
 21
289.976
  0
LINE
  8
0
 10
12.1289
 20
289.976
 11
12.6791
 21
290.278
  0
LINE
  8
0
 10
12.6791
 20
290.278
 11
13.1871
 21
290.647
  0
LINE
  8
0
 10
13.1871
 20
290.647
 11
13.6448
 21
291.077
  0
LINE
  8
0
 10
13.6448
 20
291.077
 11
14.0451
 21
291.561
  0
LINE
  8
0
 10
14.0451
 20
291.561
 11
14.3815
 21
292.091
  0
LINE
  8
0
 10
14.3815
 20
292.091
 11
14.6489
 21
292.659
  0
LINE
  8
0
 10
14.6489
 20
292.659
 11
14.8429
 21
293.257
  0
LINE
  8
0
 10
14.8429
 20
293.257
 11
14.9606
 21
293.873
  0
LINE
  8
0
 10
14.9606
 20
293.873
 11
15
 21
294.5
  0
LINE
  8
0
 10
15
 20
294.5
 11
15
 21
389.5
  0
LINE
  8
0
 10
15
 20
389.5
 11
14.9606
 21
390.127
  0
LINE
  8
0
 10
14.9606
 20
390.127
 11
14.8429
 21
390.743
  0
LINE
  8
0
 10
14.8429
 20
390.743
 11
14.6489
 21
391.341
  0
LINE
  8
0
 10
14.6489
 20
391.341
 11
14.3815
 21
391.909
  0
LINE
  8
0
 10
14.3815
 20
391.909
 11
14.0451
 21
392.439
  0
LINE
  8
0
 10
14.0451
 20
392.439
 11
13.6448
 21
392.923
  0
LINE
  8
0
 10
13.6448
 20
392.923
 11
13.1871
 21
393.353
  0
LINE
  8
0
 10
13.1871
 20
393.353
 11
12.6791
 21
393.722
  0
LINE
  8
0
 10
12.6791
 20
393.722
 11
12.1289
 21
394.024
  0
LINE
  8
0
 10
12.1289
 20
394.024
 11
11.5451
 21
394.255
  0
LINE
  8
0
 10
11.5451
 20
394.255
 11
10.9369
 21
394.411
  0
LINE
  8
0
 10
10.9369
 20
394.411
 11
10.3139
 21
394.49
  0
LINE
  8
0
 10
10.3139
 20
394.49
 11
-10.3139
 21
394.49
  0
LINE
  8
0
 10
-10.3139
 20
394.49
 11
-10.9369
 21
394.411
  0
LINE
  8
0
 10
-10.9369
 20
394.411
 11
-11.5451
 21
394.255
  0
LINE
  8
0
 10
-11.5451
 20
394.255
 11
-12.1289
 21
394.024
  0
LINE
  8
0
 10
-12.1289
 20
394.024
 11
-12.6791
 21
393.722
  0
LINE
  8
0
 10
-12.6791
 20
393.722
 11
-13.1871
 21
393.353
  0
LINE
  8
0
 10
-13.1871
 20
393.353
 11
-13.6448
 21
392.923
  0
LINE
  8
0
 10
-13.6448
 20
392.923
 11
-14.0451
 21
392.439
  0
LINE
  8
0
 10
-14.0451
 20
392.439
 11
-14.3815
 21
391.909
  0
LINE
  8
0
 10
-14.3815
 20
391.909
 11
-14.6489
 21
391.341
  0
LINE
  8
0
 10
-14.6489
 20
391.341
 11
-14.8429
 21
390.743
  0
LINE
  8
0
 10
-14.8429
 20
390.743
 11
-14.9606
 21
390.127
  0
LINE
  8
0
 10
-14.9606
 20
390.127
 11
-15
 21
389.5
  0
LINE
  8
0
 10
-15
 20
389.5
 11
-15
 21
294.5
  0
LINE
  8
0
 10
-15
 20
294.5
 11
-14.9606
 21
293.873
  0
LINE
  8
0
 10
-14.9606
 20
293.873
 11
-14.8429
 21
293.257
  0
LINE
  8
0
 10
-14.8429
 20
293.257
 11
-14.6489
 21
292.659
  0
LINE
  8
0
 10
-14.6489
 20
292.659
 11
-14.3815
 21
292.091
  0
LINE
  8
0
 10
-14.3815
 20
292.091
 11
-14.0451
 21
291.561
  0
LINE
  8
0
 10
-14.0451
 20
291.561
 11
-13.6448
 21
291.077
  0
LINE
  8
0
 10
-13.6448
 20
291.077
 11
-13.1871
 21
290.647
  0
LINE
  8
0
 10
-13.1871
 20
290.647
 11
-12.6791
 21
290.278
  0
LINE
  8
0
 10
-12.6791
 20
290.278
 11
-12.1289
 21
289.976
  0
LINE
  8
0
 10
-12.1289
 20
289.976
 11
-11.5451
 21
289.745
  0
LINE
  8
0
 10
-11.5451
 20
289.745
 11
-10.9369
 21
289.589
  0
LINE
  8
0
 10
-10.9369
 20
289.589
 11
-10.3139
 21
289.51
  0
LINE
  8
0
 10
-10.3139
 20
289.51
 11
10.3139
 21
289.51
  0
LINE
  8
0
 10
10.3139
 20
289.51
 11
10.9369
 21
289.589
  0
LINE
  8
0
 10
-9.69545
 20
291.893
 11
-10.0833
 21
291.942
  0
LINE
  8
0
 10
-10.0833
 20
291.942
 11
-10.4619
 21
292.039
  0
LINE
  8
0
 10
-10.4619
 20
292.039
 11
-10.8254
 21
292.183
  0
LINE
  8
0
 10
-10.8254
 20
292.183
 11
-11.168
 21
292.372
  0
LINE
  8
0
 10
-11.168
 20
292.372
 11
-11.4842
 21
292.601
  0
LINE
  8
0
 10
-11.4842
 20
292.601
 11
-11.7692
 21
292.869
  0
LINE
  8
0
 10
-11.7692
 20
292.869
 11
-12.0184
 21
293.17
  0
LINE
  8
0
 10
-12.0184
 20
293.17
 11
-12.2279
 21
293.5
  0
LINE
  8
0
 10
-12.2279
 20
293.5
 11
-12.3943
 21
293.854
  0
LINE
  8
0
 10
-12.3943
 20
293.854
 11
-12.5151
 21
294.226
  0
LINE
  8
0
 10
-12.5151
 20
294.226
 11
-12.5884
 21
294.61
  0
LINE
  8
0
 10
-12.5884
 20
294.61
 11
-12.6129
 21
295
  0
LINE
  8
0
 10
-12.6129
 20
295
 11
-12.6129
 21
389
  0
LINE
  8
0
 10
-12.6129
 20
389
 11
-12.5884
 21
389.39
  0
LINE
  8
0
 10
-12.5884
 20
389.39
 11
-12.5151
 21
389.774
  0
LINE
  8
0
 10
-12.5151
 20
389.774
 11
-12.3943
 21
390.146
  0
LINE
  8
0
 10
-12.3943
 20
390.146
 11
-12.2279
 21
390.5
  0
LINE
  8
0
 10
-12.2279
 20
390.5
 11
-12.0184
 21
390.83
  0
LINE
  8
0
 10
-12.0184
 20
390.83
 11
-11.7692
 21
391.131
  0
LINE
  8
0
 10
-11.7692
 20
391.131
 11
-11.4842
 21
391.399
  0
LINE
  8
0
 10
-11.4842
 20
391.399
 11
-11.168
 21
391.628
  0
LINE
  8
0
 10
-11.168
 20
391.628
 11
-10.8254
 21
391.817
  0
LINE
  8
0
 10
-10.8254
 20
391.817
 11
-10.4619
 21
391.961
  0
LINE
  8
0
 10
-10.4619
 20
391.961
 11
-10.0833
 21
392.058
  0
LINE
  8
0
 10
-10.0833
 20
392.058
 11
-9.69545
 21
392.107
  0
LINE
  8
0
 10
-9.69545
 20
392.107
 11
9.69545
 21
392.107
  0
LINE
  8
0
 10
9.69545
 20
392.107
 11
10.0833
 21
392.058
  0
LINE
  8
0
 10
10.0833
 20
392.058
 11
10.4619
 21
391.961
  0
LINE
  8
0
 10
10.4619
 20
391.961
 11
10.8254
 21
391.817
  0
LINE
  8
0
 10
10.8254
 20
391.817
 11
11.168
 21
391.628
  0
LINE
  8
0
 10
11.168
 20
391.628
 11
11.4842
 21
391.399
  0
LINE
  8
0
 10
11.4842
 20
391.399
 11
11.7692
 21
391.131
  0
LINE
  8
0
 10
11.7692
 20
391.131
 11
12.0184
 21
390.83
  0
LINE
  8
0
 10
12.0184
 20
390.83
 11
12.2279
 21
390.5
  0
LINE
  8
0
 10
12.2279
 20
390.5
 11
12.3943
 21
390.146
  0
LINE
  8
0
 10
12.3943
 20
390.146
 11
12.5151
 21
389.774
  0
LINE
  8
0
 10
12.5151
 20
389.774
 11
12.5884
 21
389.39
  0
LINE
  8
0
 10
12.5884
 20
389.39
 11
12.6129
 21
389
  0
LINE
  8
0
 10
12.6129
 20
389
 11
12.6129
 21
295
  0
LINE
  8
0
 10
12.6129
 20
295
 11
12.5884
 21
294.61
  0
LINE
  8
0
 10
12.5884
 20
294.61
 11
12.5151
 21
294.226
  0
LINE
  8
0
 10
12.5151
 20
294.226
 11
12.3943
 21
293.854
  0
LINE
  8
0
 10
12.3943
 20
293.854
 11
12.2279
 21
293.5
  0
LINE
  8
0
 10
12.2279
 20
293.5
 11
12.0184
 21
293.17
  0
LINE
  8
0
 10
12.0184
 20
293.17
 11
11.7692
 21
292.869
  0
LINE
  8
0
 10
11.7692
 20
292.869
 11
11.4842
 21
292.601
  0
LINE
  8
0
 10
11.4842
 20
292.601
 11
11.168
 21
292.372
  0
LINE
  8
0
 10
11.168
 20
292.372
 11
10.8254
 21
292.183
  0
LINE
  8
0
 10
10.8254
 20
292.183
 11
10.4619
 21
292.039
  0
LINE
  8
0
 10
10.4619
 20
292.039
 11
10.0833
 21
291.942
  0
LINE
  8
0
 10
10.0833
 20
291.942
 11
9.69545
 21
291.893
  0
LINE
  8
0
 10
9.69545
 20
291.893
 11
-9.69545
 21
291.893
  0
LINE
  8
0
 10
10.9369
 20
175.589
 11
11.5451
 21
175.745
  0
LINE
  8
0
 10
11.5451
 20
175.745
 11
12.1289
 21
175.976
  0
LINE
  8
0
 10
12.1289
 20
175.976
 11
12.6791
 21
176.278
  0
LINE
  8
0
 10
12.6791
 20
176.278
 11
13.1871
 21
176.647
  0
LINE
  8
0
 10
13.1871
 20
176.647
 11
13.6448
 21
177.077
  0
LINE
  8
0
 10
13.6448
 20
177.077
 11
14.0451
 21
177.561
  0
LINE
  8
0
 10
14.0451
 20
177.561
 11
14.3815
 21
178.091
  0
LINE
  8
0
 10
14.3815
 20
178.091
 11
14.6489
 21
178.659
  0
LINE
  8
0
 10
14.6489
 20
178.659
 11
14.8429
 21
179.257
  0
LINE
  8
0
 10
14.8429
 20
179.257
 11
14.9606
 21
179.873
  0
LINE
  8
0
 10
14.9606
 20
179.873
 11
15
 21
180.5
  0
LINE
  8
0
 10
15
 20
180.5
 11
15
 21
275.5
  0
LINE
  8
0
 10
15
 20
275.5
 11
14.9606
 21
276.127
  0
LINE
  8
0
 10
14.9606
 20
276.127
 11
14.8429
 21
276.743
  0
LINE
  8
0
 10
14.8429
 20
276.743
 11
14.6489
 21
277.341
  0
LINE
  8
0
 10
14.6489
 20
277.341
 11
14.3815
 21
277.909
  0
LINE
  8
0
 10
14.3815
 20
277.909
 11
14.0451
 21
278.439
  0
LINE
  8
0
 10
14.0451
 20
278.439
 11
13.6448
 21
278.923
  0
LINE
  8
0
 10
13.6448
 20
278.923
 11
13.1871
 21
279.353
  0
LINE
  8
0
 10
13.1871
 20
279.353
 11
12.6791
 21
279.722
  0
LINE
  8
0
 10
12.6791
 20
279.722
 11
12.1289
 21
280.024
  0
LINE
  8
0
 10
12.1289
 20
280.024
 11
11.5451
 21
280.255
  0
LINE
  8
0
 10
11.5451
 20
280.255
 11
10.9369
 21
280.411
  0
LINE
  8
0
 10
10.9369
 20
280.411
 11
10.3139
 21
280.49
  0
LINE
  8
0
 10
10.3139
 20
280.49
 11
-10.3139
 21
280.49
  0
LINE
  8
0
 10
-10.3139
 20
280.49
 11
-10.9369
 21
280.411
  0
LINE
  8
0
 10
-10.9369
 20
280.411
 11
-11.5451
 21
280.255
  0
LINE
  8
0
 10
-11.5451
 20
280.255
 11
-12.1289
 21
280.024
  0
LINE
  8
0
 10
-12.1289
 20
280.024
 11
-12.6791
 21
279.722
  0
LINE
  8
0
 10
-12.6791
 20
279.722
 11
-13.1871
 21
279.353
  0
LINE
  8
0
 10
-13.1871
 20
279.353
 11
-13.6448
 21
278.923
  0
LINE
  8
0
 10
-13.6448
 20
278.923
 11
-14.0451
 21
278.439
  0
LINE
  8
0
 10
-14.0451
 20
278.439
 11
-14.3815
 21
277.909
  0
LINE
  8
0
 10
-14.3815
 20
277.909
 11
-14.6489
 21
277.341
  0
LINE
  8
0
 10
-14.6489
 20
277.341
 11
-14.8429
 21
276.743
  0
LINE
  8
0
 10
-14.8429
 20
276.743
 11
-14.9606
 21
276.127
  0
LINE
  8
0
 10
-14.9606
 20
276.127
 11
-15
 21
275.5
  0
LINE
  8
0
 10
-15
 20
275.5
 11
-15
 21
180.5
  0
LINE
  8
0
 10
-15
 20
180.5
 11
-14.9606
 21
179.873
  0
LINE
  8
0
 10
-14.9606
 20
179.873
 11
-14.8429
 21
179.257
  0
LINE
  8
0
 10
-14.8429
 20
179.257
 11
-14.6489
 21
178.659
  0
LINE
  8
0
 10
-14.6489
 20
178.659
 11
-14.3815
 21
178.091
  0
LINE
  8
0
 10
-14.3815
 20
178.091
 11
-14.0451
 21
177.561
  0
LINE
  8
0
 10
-14.0451
 20
177.561
 11
-13.6448
 21
177.077
  0
LINE
  8
0
 10
-13.6448
 20
177.077
 11
-13.1871
 21
176.647
  0
LINE
  8
0
 10
-13.1871
 20
176.647
 11
-12.6791
 21
176.278
  0
LINE
  8
0
 10
-12.6791
 20
176.278
 11
-12.1289
 21
175.976
  0
LINE
  8
0
 10
-12.1289
 20
175.976
 11
-11.5451
 21
175.745
  0
LINE
  8
0
 10
-11.5451
 20
175.745
 11
-10.9369
 21
175.589
  0
LINE
  8
0
 10
-10.9369
 20
175.589
 11
-10.3139
 21
175.51
  0
LINE
  8
0
 10
-10.3139
 20
175.51
 11
10.3139
 21
175.51
  0
LINE
  8
0
 10
10.3139
 20
175.51
 11
10.9369
 21
175.589
  0
LINE
  8
0
 10
7.36592
 20
270.869
 11
7.09988
 21
270.903
  0
LINE
  8
0
 10
7.09988
 20
270.903
 11
6.84015
 21
270.969
  0
LINE
  8
0
 10
6.84015
 20
270.969
 11
6.59084
 21
271.068
  0
LINE
  8
0
 10
6.59084
 20
271.068
 11
6.35585
 21
271.197
  0
LINE
  8
0
 10
6.35585
 20
271.197
 11
6.1389
 21
271.355
  0
LINE
  8
0
 10
6.1389
 20
271.355
 11
5.94344
 21
271.538
  0
LINE
  8
0
 10
5.94344
 20
271.538
 11
5.77251
 21
271.745
  0
LINE
  8
0
 10
5.77251
 20
271.745
 11
5.62881
 21
271.971
  0
LINE
  8
0
 10
5.62881
 20
271.971
 11
5.51465
 21
272.214
  0
LINE
  8
0
 10
5.51465
 20
272.214
 11
5.43178
 21
272.469
  0
LINE
  8
0
 10
5.43178
 20
272.469
 11
5.38153
 21
272.732
  0
LINE
  8
0
 10
5.38153
 20
272.732
 11
5.3647
 21
273
  0
LINE
  8
0
 10
5.3647
 20
273
 11
5.38153
 21
273.268
  0
LINE
  8
0
 10
5.38153
 20
273.268
 11
5.43178
 21
273.531
  0
LINE
  8
0
 10
5.43178
 20
273.531
 11
5.51465
 21
273.786
  0
LINE
  8
0
 10
5.51465
 20
273.786
 11
5.62881
 21
274.029
  0
LINE
  8
0
 10
5.62881
 20
274.029
 11
5.77251
 21
274.255
  0
LINE
  8
0
 10
5.77251
 20
274.255
 11
5.94344
 21
274.462
  0
LINE
  8
0
 10
5.94344
 20
274.462
 11
6.1389
 21
274.645
  0
LINE
  8
0
 10
6.1389
 20
274.645
 11
6.35585
 21
274.803
  0
LINE
  8
0
 10
6.35585
 20
274.803
 11
6.59084
 21
274.932
  0
LINE
  8
0
 10
6.59084
 20
274.932
 11
6.84015
 21
275.031
  0
LINE
  8
0
 10
6.84015
 20
275.031
 11
7.09988
 21
275.097
  0
LINE
  8
0
 10
7.09988
 20
275.097
 11
7.36592
 21
275.131
  0
LINE
  8
0
 10
7.36592
 20
275.131
 11
7.63406
 21
275.131
  0
LINE
  8
0
 10
7.63406
 20
275.131
 11
7.9001
 21
275.097
  0
LINE
  8
0
 10
7.9001
 20
275.097
 11
8.15984
 21
275.031
  0
LINE
  8
0
 10
8.15984
 20
275.031
 11
8.40915
 21
274.932
  0
LINE
  8
0
 10
8.40915
 20
274.932
 11
8.64413
 21
274.803
  0
LINE
  8
0
 10
8.64413
 20
274.803
 11
8.86108
 21
274.645
  0
LINE
  8
0
 10
8.86108
 20
274.645
 11
9.05655
 21
274.462
  0
LINE
  8
0
 10
9.05655
 20
274.462
 11
9.22748
 21
274.255
  0
LINE
  8
0
 10
9.22748
 20
274.255
 11
9.37117
 21
274.029
  0
LINE
  8
0
 10
9.37117
 20
274.029
 11
9.48534
 21
273.786
  0
LINE
  8
0
 10
9.48534
 20
273.786
 11
9.56821
 21
273.531
  0
LINE
  8
0
 10
9.56821
 20
273.531
 11
9.61845
 21
273.268
  0
LINE
  8
0
 10
9.61845
 20
273.268
 11
9.63528
 21
273
  0
LINE
  8
0
 10
9.63528
 20
273
 11
9.61845
 21
272.732
  0
LINE
  8
0
 10
9.61845
 20
272.732
 11
9.56821
 21
272.469
  0
LINE
  8
0
 10
9.56821
 20
272.469
 11
9.48534
 21
272.214
  0
LINE
  8
0
 10
9.48534
 20
272.214
 11
9.37117
 21
271.971
  0
LINE
  8
0
 10
9.37117
 20
271.971
 11
9.22748
 21
271.745
  0
LINE
  8
0
 10
9.22748
 20
271.745
 11
9.05655
 21
271.538
  0
LINE
  8
0
 10
9.05655
 20
271.538
 11
8.86108
 21
271.355
  0
LINE
  8
0
 10
8.86108
 20
271.355
 11
8.64413
 21
271.197
  0
LINE
  8
0
 10
8.64413
 20
271.197
 11
8.40915
 21
271.068
  0
LINE
  8
0
 10
8.40915
 20
271.068
 11
8.15984
 21
270.969
  0
LINE
  8
0
 10
8.15984
 20
270.969
 11
7.9001
 21
270.903
  0
LINE
  8
0
 10
7.9001
 20
270.903
 11
7.63406
 21
270.869
  0
LINE
  8
0
 10
7.63406
 20
270.869
 11
7.36592
 21
270.869
  0
LINE
  8
0
 10
-7.63406
 20
270.869
 11
-7.9001
 21
270.903
  0
LINE
  8
0
 10
-7.9001
 20
270.903
 11
-8.15984
 21
270.969
  0
LINE
  8
0
 10
-8.15984
 20
270.969
 11
-8.40915
 21
271.068
  0
LINE
  8
0
 10
-8.40915
 20
271.068
 11
-8.64413
 21
271.197
  0
LINE
  8
0
 10
-8.64413
 20
271.197
 11
-8.86108
 21
271.355
  0
LINE
  8
0
 10
-8.86108
 20
271.355
 11
-9.05655
 21
271.538
  0
LINE
  8
0
 10
-9.05655
 20
271.538
 11
-9.22748
 21
271.745
  0
LINE
  8
0
 10
-9.22748
 20
271.745
 11
-9.37117
 21
271.971
  0
LINE
  8
0
 10
-9.37117
 20
271.971
 11
-9.48534
 21
272.214
  0
LINE
  8
0
 10
-9.48534
 20
272.214
 11
-9.56821
 21
272.469
  0
LINE
  8
0
 10
-9.56821
 20
272.469
 11
-9.61845
 21
272.732
  0
LINE
  8
0
 10
-9.61845
 20
272.732
 11
-9.63528
 21
273
  0
LINE
  8
0
 10
-9.63528
 20
273
 11
-9.61845
 21
273.268
  0
LINE
  8
0
 10
-9.61845
 20
273.268
 11
-9.56821
 21
273.531
  0
LINE
  8
0
 10
-9.56821
 20
273.531
 11
-9.48534
 21
273.786
  0
LINE
  8
0
 10
-9.48534
 20
273.786
 11
-9.37117
 21
274.029
  0
LINE
  8
0
 10
-9.37117
 20
274.029
 11
-9.22748
 21
274.255
  0
LINE
  8
0
 10
-9.22748
 20
274.255
 11
-9.05655
 21
274.462
  0
LINE
  8
0
 10
-9.05655
 20
274.462
 11
-8.86108
 21
274.645
  0
LINE
  8
0
 10
-8.86108
 20
274.645
 11
-8.64413
 21
274.803
  0
LINE
  8
0
 10
-8.64413
 20
274.803
 11
-8.40915
 21
274.932
  0
LINE
  8
0
 10
-8.40915
 20
274.932
 11
-8.15984
 21
275.031
  0
LINE
  8
0
 10
-8.15984
 20
275.031
 11
-7.9001
 21
275.097
  0
LINE
  8
0
 10
-7.9001
 20
275.097
 11
-7.63406
 21
275.131
  0
LINE
  8
0
 10
-7.63406
 20
275.131
 11
-7.36592
 21
275.131
  0
LINE
  8
0
 10
-7.36592
 20
275.131
 11
-7.09988
 21
275.097
  0
LINE
  8
0
 10
-7.09988
 20
275.097
 11
-6.84015
 21
275.031
  0
LINE
  8
0
 10
-6.84015
 20
275.031
 11
-6.59084
 21
274.932
  0
LINE
  8
0
 10
-6.59084
 20
274.932
 11
-6.35585
 21
274.803
  0
LINE
  8
0
 10
-6.35585
 20
274.803
 11
-6.1389
 21
274.645
  0
LINE
  8
0
 10
-6.1389
 20
274.645
 11
-5.94344
 21
274.462
  0
LINE
  8
0
 10
-5.94344
 20
274.462
 11
-5.77251
 21
274.255
  0
LINE
  8
0
 10
-5.77251
 20
274.255
 11
-5.62881
 21
274.029
  0
LINE
  8
0
 10
-5.62881
 20
274.029
 11
-5.51465
 21
273.786
  0
LINE
  8
0
 10
-5.51465
 20
273.786
 11
-5.43178
 21
273.531
  0
LINE
  8
0
 10
-5.43178
 20
273.531
 11
-5.38153
 21
273.268
  0
LINE
  8
0
 10
-5.38153
 20
273.268
 11
-5.3647
 21
273
  0
LINE
  8
0
 10
-5.3647
 20
273
 11
-5.38153
 21
272.732
  0
LINE
  8
0
 10
-5.38153
 20
272.732
 11
-5.43178
 21
272.469
  0
LINE
  8
0
 10
-5.43178
 20
272.469
 11
-5.51465
 21
272.214
  0
LINE
  8
0
 10
-5.51465
 20
272.214
 11
-5.62881
 21
271.971
  0
LINE
  8
0
 10
-5.62881
 20
271.971
 11
-5.77251
 21
271.745
  0
LINE
  8
0
 10
-5.77251
 20
271.745
 11
-5.94344
 21
271.538
  0
LINE
  8
0
 10
-5.94344
 20
271.538
 11
-6.1389
 21
271.355
  0
LINE
  8
0
 10
-6.1389
 20
271.355
 11
-6.35585
 21
271.197
  0
LINE
  8
0
 10
-6.35585
 20
271.197
 11
-6.59084
 21
271.068
  0
LINE
  8
0
 10
-6.59084
 20
271.068
 11
-6.84015
 21
270.969
  0
LINE
  8
0
 10
-6.84015
 20
270.969
 11
-7.09988
 21
270.903
  0
LINE
  8
0
 10
-7.09988
 20
270.903
 11
-7.36592
 21
270.869
  0
LINE
  8
0
 10
-7.36592
 20
270.869
 11
-7.63406
 21
270.869
  0
LINE
  8
0
 10
7.36592
 20
180.869
 11
7.09988
 21
180.903
  0
LINE
  8
0
 10
7.09988
 20
180.903
 11
6.84015
 21
180.969
  0
LINE
  8
0
 10
6.84015
 20
180.969
 11
6.59084
 21
181.068
  0
LINE
  8
0
 10
6.59084
 20
181.068
 11
6.35585
 21
181.197
  0
LINE
  8
0
 10
6.35585
 20
181.197
 11
6.1389
 21
181.355
  0
LINE
  8
0
 10
6.1389
 20
181.355
 11
5.94344
 21
181.538
  0
LINE
  8
0
 10
5.94344
 20
181.538
 11
5.77251
 21
181.745
  0
LINE
  8
0
 10
5.77251
 20
181.745
 11
5.62881
 21
181.971
  0
LINE
  8
0
 10
5.62881
 20
181.971
 11
5.51465
 21
182.214
  0
LINE
  8
0
 10
5.51465
 20
182.214
 11
5.43178
 21
182.469
  0
LINE
  8
0
 10
5.43178
 20
182.469
 11
5.38153
 21
182.732
  0
LINE
  8
0
 10
5.38153
 20
182.732
 11
5.3647
 21
183
  0
LINE
  8
0
 10
5.3647
 20
183
 11
5.38153
 21
183.268
  0
LINE
  8
0
 10
5.38153
 20
183.268
 11
5.43178
 21
183.531
  0
LINE
  8
0
 10
5.43178
 20
183.531
 11
5.51465
 21
183.786
  0
LINE
  8
0
 10
5.51465
 20
183.786
 11
5.62881
 21
184.029
  0
LINE
  8
0
 10
5.62881
 20
184.029
 11
5.77251
 21
184.255
  0
LINE
  8
0
 10
5.77251
 20
184.255
 11
5.94344
 21
184.462
  0
LINE
  8
0
 10
5.94344
 20
184.462
 11
6.1389
 21
184.645
  0
LINE
  8
0
 10
6.1389
 20
184.645
 11
6.35585
 21
184.803
  0
LINE
  8
0
 10
6.35585
 20
184.803
 11
6.59084
 21
184.932
  0
LINE
  8
0
 10
6.59084
 20
184.932
 11
6.84015
 21
185.031
  0
LINE
  8
0
 10
6.84015
 20
185.031
 11
7.09988
 21
185.097
  0
LINE
  8
0
 10
7.09988
 20
185.097
 11
7.36592
 21
185.131
  0
LINE
  8
0
 10
7.36592
 20
185.131
 11
7.63406
 21
185.131
  0
LINE
  8
0
 10
7.63406
 20
185.131
 11
7.9001
 21
185.097
  0
LINE
  8
0
 10
7.9001
 20
185.097
 11
8.15984
 21
185.031
  0
LINE
  8
0
 10
8.15984
 20
185.031
 11
8.40915
 21
184.932
  0
LINE
  8
0
 10
8.40915
 20
184.932
 11
8.64413
 21
184.803
  0
LINE
  8
0
 10
8.64413
 20
184.803
 11
8.86108
 21
184.645
  0
LINE
  8
0
 10
8.86108
 20
184.645
 11
9.05655
 21
184.462
  0
LINE
  8
0
 10
9.05655
 20
184.462
 11
9.22748
 21
184.255
  0
LINE
  8
0
 10
9.22748
 20
184.255
 11
9.37117
 21
184.029
  0
LINE
  8
0
 10
9.37117
 20
184.029
 11
9.48534
 21
183.786
  0
LINE
  8
0
 10
9.48534
 20
183.786
 11
9.56821
 21
183.531
  0
LINE
  8
0
 10
9.56821
 20
183.531
 11
9.61845
 21
183.268
  0
LINE
  8
0
 10
9.61845
 20
183.268
 11
9.63528
 21
183
  0
LINE
  8
0
 10
9.63528
 20
183
 11
9.61845
 21
182.732
  0
LINE
  8
0
 10
9.61845
 20
182.732
 11
9.56821
 21
182.469
  0
LINE
  8
0
 10
9.56821
 20
182.469
 11
9.48534
 21
182.214
  0
LINE
  8
0
 10
9.48534
 20
182.214
 11
9.37117
 21
181.971
  0
LINE
  8
0
 10
9.37117
 20
181.971
 11
9.22748
 21
181.745
  0
LINE
  8
0
 10
9.22748
 20
181.745
 11
9.05655
 21
181.538
  0
LINE
  8
0
 10
9.05655
 20
181.538
 11
8.86108
 21
181.355
  0
LINE
  8
0
 10
8.86108
 20
181.355
 11
8.64413
 21
181.197
  0
LINE
  8
0
 10
8.64413
 20
181.197
 11
8.40915
 21
181.068
  0
LINE
  8
0
 10
8.40915
 20
181.068
 11
8.15984
 21
180.969
  0
LINE
  8
0
 10
8.15984
 20
180.969
 11
7.9001
 21
180.903
  0
LINE
  8
0
 10
7.9001
 20
180.903
 11
7.63406
 21
180.869
  0
LINE
  8
0
 10
7.63406
 20
180.869
 11
7.36592
 21
180.869
  0
LINE
  8
0
 10
-7.63406
 20
180.869
 11
-7.9001
 21
180.903
  0
LINE
  8
0
 10
-7.9001
 20
180.903
 11
-8.15984
 21
180.969
  0
LINE
  8
0
 10
-8.15984
 20
180.969
 11
-8.40915
 21
181.068
  0
LINE
  8
0
 10
-8.40915
 20
181.068
 11
-8.64413
 21
181.197
  0
LINE
  8
0
 10
-8.64413
 20
181.197
 11
-8.86108
 21
181.355
  0
LINE
  8
0
 10
-8.86108
 20
181.355
 11
-9.05655
 21
181.538
  0
LINE
  8
0
 10
-9.05655
 20
181.538
 11
-9.22748
 21
181.745
  0
LINE
  8
0
 10
-9.22748
 20
181.745
 11
-9.37117
 21
181.971
  0
LINE
  8
0
 10
-9.37117
 20
181.971
 11
-9.48534
 21
182.214
  0
LINE
  8
0
 10
-9.48534
 20
182.214
 11
-9.56821
 21
182.469
  0
LINE
  8
0
 10
-9.56821
 20
182.469
 11
-9.61845
 21
182.732
  0
LINE
  8
0
 10
-9.61845
 20
182.732
 11
-9.63528
 21
183
  0
LINE
  8
0
 10
-9.63528
 20
183
 11
-9.61845
 21
183.268
  0
LINE
  8
0
 10
-9.61845
 20
183.268
 11
-9.56821
 21
183.531
  0
LINE
  8
0
 10
-9.56821
 20
183.531
 11
-9.48534
 21
183.786
  0
LINE
  8
0
 10
-9.48534
 20
183.786
 11
-9.37117
 21
184.029
  0
LINE
  8
0
 10
-9.37117
 20
184.029
 11
-9.22748
 21
184.255
  0
LINE
  8
0
 10
-9.22748
 20
184.255
 11
-9.05655
 21
184.462
  0
LINE
  8
0
 10
-9.05655
 20
184.462
 11
-8.86108
 21
184.645
  0
LINE
  8
0
 10
-8.86108
 20
184.645
 11
-8.64413
 21
184.803
  0
LINE
  8
0
 10
-8.64413
 20
184.803
 11
-8.40915
 21
184.932
  0
LINE
  8
0
 10
-8.40915
 20
184.932
 11
-8.15984
 21
185.031
  0
LINE
  8
0
 10
-8.15984
 20
185.031
 11
-7.9001
 21
185.097
  0
LINE
  8
0
 10
-7.9001
 20
185.097
 11
-7.63406
 21
185.131
  0
LINE
  8
0
 10
-7.63406
 20
185.131
 11
-7.36592
 21
185.131
  0
LINE
  8
0
 10
-7.36592
 20
185.131
 11
-7.09988
 21
185.097
  0
LINE
  8
0
 10
-7.09988
 20
185.097
 11
-6.84015
 21
185.031
  0
LINE
  8
0
 10
-6.84015
 20
185.031
 11
-6.59084
 21
184.932
  0
LINE
  8
0
 10
-6.59084
 20
184.932
 11
-6.35585
 21
184.803
  0
LINE
  8
0
 10
-6.35585
 20
184.803
 11
-6.1389
 21
184.645
  0
LINE
  8
0
 10
-6.1389
 20
184.645
 11
-5.94344
 21
184.462
  0
LINE
  8
0
 10
-5.94344
 20
184.462
 11
-5.77251
 21
184.255
  0
LINE
  8
0
 10
-5.77251
 20
184.255
 11
-5.62881
 21
184.029
  0
LINE
  8
0
 10
-5.62881
 20
184.029
 11
-5.51465
 21
183.786
  0
LINE
  8
0
 10
-5.51465
 20
183.786
 11
-5.43178
 21
183.531
  0
LINE
  8
0
 10
-5.43178
 20
183.531
 11
-5.38153
 21
183.268
  0
LINE
  8
0
 10
-5.38153
 20
183.268
 11
-5.3647
 21
183
  0
LINE
  8
0
 10
-5.3647
 20
183
 11
-5.38153
 21
182.732
  0
LINE
  8
0
 10
-5.38153
 20
182.732
 11
-5.43178
 21
182.469
  0
LINE
  8
0
 10
-5.43178
 20
182.469
 11
-5.51465
 21
182.214
  0
LINE
  8
0
 10
-5.51465
 20
182.214
 11
-5.62881
 21
181.971
  0
LINE
  8
0
 10
-5.62881
 20
181.971
 11
-5.77251
 21
181.745
  0
LINE
  8
0
 10
-5.77251
 20
181.745
 11
-5.94344
 21
181.538
  0
LINE
  8
0
 10
-5.94344
 20
181.538
 11
-6.1389
 21
181.355
  0
LINE
  8
0
 10
-6.1389
 20
181.355
 11
-6.35585
 21
181.197
  0
LINE
  8
0
 10
-6.35585
 20
181.197
 11
-6.59084
 21
181.068
  0
LINE
  8
0
 10
-6.59084
 20
181.068
 11
-6.84015
 21
180.969
  0
LINE
  8
0
 10
-6.84015
 20
180.969
 11
-7.09988
 21
180.903
  0
LINE
  8
0
 10
-7.09988
 20
180.903
 11
-7.36592
 21
180.869
  0
LINE
  8
0
 10
-7.36592
 20
180.869
 11
-7.63406
 21
180.869
  0
ENDSEC
  0
SECTION
  2
OBJECTS
  0
DICTIONARY
  0
ENDSEC
  0
EOF
