<?xml version="1.0" standalone="no"?>
<!DOCTYPE svg PUBLIC "-//W3C//DTD SVG 1.1//EN" "http://www.w3.org/Graphics/SVG/1.1/DTD/svg11.dtd">
<svg width="122mm" height="69mm" viewBox="-62 -132 122 69" xmlns="http://www.w3.org/2000/svg" version="1.1">
<title>OpenSCAD Model</title>
<path d="
M 55.9369,-102.089 L 56.5451,-102.245 L 57.1289,-102.476 L 57.6791,-102.778 L 58.1871,-103.147 L 58.6448,-103.577
 L 59.0451,-104.061 L 59.3815,-104.591 L 59.6489,-105.159 L 59.8429,-105.757 L 59.9606,-106.373 L 60,-107
 L 60,-127 L 59.9606,-127.627 L 59.8429,-128.243 L 59.6489,-128.841 L 59.3815,-129.409 L 59.0451,-129.939
 L 58.6448,-130.423 L 58.1871,-130.853 L 57.6791,-131.222 L 57.1289,-131.524 L 56.5451,-131.755 L 55.9369,-131.911
 L 55.3139,-131.99 L -55.3139,-131.99 L -55.9369,-131.911 L -56.5451,-131.755 L -57.1289,-131.524 L -57.6791,-131.222
 L -58.1871,-130.853 L -58.5,-130.559 L -58.5,-131.979 L -61.5,-131.979 L -61.5,-102.021 L -58.5,-102.021
 L -58.5,-103.441 L -58.1871,-103.147 L -57.6791,-102.778 L -57.1289,-102.476 L -56.5451,-102.245 L -55.9369,-102.089
 L -55.3139,-102.01 L 55.3139,-102.01 z
M -54.6954,-104.393 L -55.0833,-104.442 L -55.4619,-104.539 L -55.8254,-104.683 L -56.168,-104.872 L -56.4842,-105.101
 L -56.7692,-105.369 L -57.0184,-105.67 L -57.2279,-106 L -57.3943,-106.354 L -57.5151,-106.726 L -57.5884,-107.11
 L -57.6129,-107.5 L -57.6129,-126.5 L -57.5884,-126.89 L -57.5151,-127.274 L -57.3943,-127.646 L -57.2279,-128
 L -57.0184,-128.33 L -56.7692,-128.631 L -56.4842,-128.899 L -56.168,-129.128 L -55.8254,-129.317 L -55.4619,-129.461
 L -55.0833,-129.558 L -54.6954,-129.607 L 54.6954,-129.607 L 55.0833,-129.558 L 55.4619,-129.461 L 55.8254,-129.317
 L 56.168,-129.128 L 56.4842,-128.899 L 56.7692,-128.631 L 57.0184,-128.33 L 57.2279,-128 L 57.3943,-127.646
 L 57.5151,-127.274 L 57.5884,-126.89 L 57.6129,-126.5 L 57.6129,-107.5 L 57.5884,-107.11 L 57.5151,-106.726
 L 57.3943,-106.354 L 57.2279,-106 L 57.0184,-105.67 L 56.7692,-105.369 L 56.4842,-105.101 L 56.168,-104.872
 L 55.8254,-104.683 L 55.4619,-104.539 L 55.0833,-104.442 L 54.6954,-104.393 z
M 55.9369,-63.0886 L 56.5451,-63.2447 L 57.1289,-63.4759 L 57.6791,-63.7784 L 58.1871,-64.1474 L 58.6448,-64.5773
 L 59.0451,-65.0611 L 59.3815,-65.5912 L 59.6489,-66.1594 L 59.8429,-66.7566 L 59.9606,-67.3733 L 60,-68
 L 60,-88 L 59.9606,-88.6267 L 59.8429,-89.2434 L 59.6489,-89.8406 L 59.3815,-90.4088 L 59.0451,-90.9389
 L 58.6448,-91.4227 L 58.1871,-91.8526 L 57.6791,-92.2216 L 57.1289,-92.5241 L 56.5451,-92.7553 L 55.9369,-92.9114
 L 55.3139,-92.9901 L -55.3139,-92.9901 L -55.9369,-92.9114 L -56.5451,-92.7553 L -57.1289,-92.5241 L -57.6791,-92.2216
 L -58.1871,-91.8526 L -58.5,-91.5587 L -58.5,-91.6526 L -61.5,-91.6526 L -61.5,-64.3474 L -58.5,-64.3474
 L -58.5,-64.4413 L -58.1871,-64.1474 L -57.6791,-63.7784 L -57.1289,-63.4759 L -56.5451,-63.2447 L -55.9369,-63.0886
 L -55.3139,-63.0099 L 55.3139,-63.0099 z
M 52.3659,-83.3689 L 52.0999,-83.4025 L 51.8401,-83.4692 L 51.5908,-83.5679 L 51.3559,-83.6971 L 51.1389,-83.8547
 L 50.9434,-84.0383 L 50.7725,-84.2449 L 50.6288,-84.4713 L 50.5146,-84.7139 L 50.4318,-84.969 L 50.3815,-85.2324
 L 50.3647,-85.5 L 50.3815,-85.7676 L 50.4318,-86.031 L 50.5146,-86.286 L 50.6288,-86.5287 L 50.7725,-86.7551
 L 50.9434,-86.9617 L 51.1389,-87.1453 L 51.3559,-87.3029 L 51.5908,-87.4321 L 51.8401,-87.5308 L 52.0999,-87.5975
 L 52.3659,-87.6311 L 52.6341,-87.6311 L 52.9001,-87.5975 L 53.1598,-87.5308 L 53.4092,-87.4321 L 53.6441,-87.3029
 L 53.8611,-87.1453 L 54.0565,-86.9617 L 54.2275,-86.7551 L 54.3712,-86.5287 L 54.4853,-86.286 L 54.5682,-86.031
 L 54.6185,-85.7676 L 54.6353,-85.5 L 54.6185,-85.2324 L 54.5682,-84.969 L 54.4853,-84.7139 L 54.3712,-84.4713
 L 54.2275,-84.2449 L 54.0565,-84.0383 L 53.8611,-83.8547 L 53.6441,-83.6971 L 53.4092,-83.5679 L 53.1598,-83.4692
 L 52.9001,-83.4025 L 52.6341,-83.3689 z
M -52.6341,-83.3689 L -52.9001,-83.4025 L -53.1598,-83.4692 L -53.4092,-83.5679 L -53.6441,-83.6971 L -53.8611,-83.8547
 L -54.0565,-84.0383 L -54.2275,-84.2449 L -54.3712,-84.4713 L -54.4853,-84.7139 L -54.5682,-84.969 L -54.6185,-85.2324
 L -54.6353,-85.5 L -54.6185,-85.7676 L -54.5682,-86.031 L -54.4853,-86.286 L -54.3712,-86.5287 L -54.2275,-86.7551
 L -54.0565,-86.9617 L -53.8611,-87.1453 L -53.6441,-87.3029 L -53.4092,-87.4321 L -53.1598,-87.5308 L -52.9001,-87.5975
 L -52.6341,-87.6311 L -52.3659,-87.6311 L -52.0999,-87.5975 L -51.8401,-87.5308 L -51.5908,-87.4321 L -51.3559,-87.3029
 L -51.1389,-87.1453 L -50.9434,-86.9617 L -50.7725,-86.7551 L -50.6288,-86.5287 L -50.5146,-86.286 L -50.4318,-86.031
 L -50.3815,-85.7676 L -50.3647,-85.5 L -50.3815,-85.2324 L -50.4318,-84.969 L -50.5146,-84.7139 L -50.6288,-84.4713
 L -50.7725,-84.2449 L -50.9434,-84.0383 L -51.1389,-83.8547 L -51.3559,-83.6971 L -51.5908,-83.5679 L -51.8401,-83.4692
 L -52.0999,-83.4025 L -52.3659,-83.3689 z
M 52.3659,-68.3689 L 52.0999,-68.4025 L 51.8401,-68.4692 L 51.5908,-68.5679 L 51.3559,-68.6971 L 51.1389,-68.8547
 L 50.9434,-69.0383 L 50.7725,-69.2449 L 50.6288,-69.4713 L 50.5146,-69.714 L 50.4318,-69.969 L 50.3815,-70.2324
 L 50.3647,-70.5 L 50.3815,-70.7676 L 50.4318,-71.031 L 50.5146,-71.2861 L 50.6288,-71.5287 L 50.7725,-71.7551
 L 50.9434,-71.9617 L 51.1389,-72.1453 L 51.3559,-72.3029 L 51.5908,-72.4321 L 51.8401,-72.5308 L 52.0999,-72.5975
 L 52.3659,-72.6311 L 52.6341,-72.6311 L 52.9001,-72.5975 L 53.1598,-72.5308 L 53.4092,-72.4321 L 53.6441,-72.3029
 L 53.8611,-72.1453 L 54.0565,-71.9617 L 54.2275,-71.7551 L 54.3712,-71.5287 L 54.4853,-71.2861 L 54.5682,-71.031
 L 54.6185,-70.7676 L 54.6353,-70.5 L 54.6185,-70.2324 L 54.5682,-69.969 L 54.4853,-69.714 L 54.3712,-69.4713
 L 54.2275,-69.2449 L 54.0565,-69.0383 L 53.8611,-68.8547 L 53.6441,-68.6971 L 53.4092,-68.5679 L 53.1598,-68.4692
 L 52.9001,-68.4025 L 52.6341,-68.3689 z
M -52.6341,-68.3689 L -52.9001,-68.4025 L -53.1598,-68.4692 L -53.4092,-68.5679 L -53.6441,-68.6971 L -53.8611,-68.8547
 L -54.0565,-69.0383 L -54.2275,-69.2449 L -54.3712,-69.4713 L -54.4853,-69.714 L -54.5682,-69.969 L -54.6185,-70.2324
 L -54.6353,-70.5 L -54.6185,-70.7676 L -54.5682,-71.031 L -54.4853,-71.2861 L -54.3712,-71.5287 L -54.2275,-71.7551
 L -54.0565,-71.9617 L -53.8611,-72.1453 L -53.6441,-72.3029 L -53.4092,-72.4321 L -53.1598,-72.5308 L -52.9001,-72.5975
 L -52.6341,-72.6311 L -52.3659,-72.6311 L -52.0999,-72.5975 L -51.8401,-72.5308 L -51.5908,-72.4321 L -51.3559,-72.3029
 L -51.1389,-72.1453 L -50.9434,-71.9617 L -50.7725,-71.7551 L -50.6288,-71.5287 L -50.5146,-71.2861 L -50.4318,-71.031
 L -50.3815,-70.7676 L -50.3647,-70.5 L -50.3815,-70.2324 L -50.4318,-69.969 L -50.5146,-69.714 L -50.6288,-69.4713
 L -50.7725,-69.2449 L -50.9434,-69.0383 L -51.1389,-68.8547 L -51.3559,-68.6971 L -51.5908,-68.5679 L -51.8401,-68.4692
 L -52.0999,-68.4025 L -52.3659,-68.3689 z
" stroke="black" fill="lightgray" stroke-width="0.5"/>
</svg>
