  0
SECTION
  2
BLOCKS
  0
ENDSEC
  0
SECTION
  2
ENTITIES
  0
LINE
  8
0
 10
18.4369
 20
787.589
 11
19.0451
 21
787.745
  0
LINE
  8
0
 10
19.0451
 20
787.745
 11
19.6289
 21
787.976
  0
LINE
  8
0
 10
19.6289
 20
787.976
 11
20.1791
 21
788.278
  0
LINE
  8
0
 10
20.1791
 20
788.278
 11
20.6871
 21
788.647
  0
LINE
  8
0
 10
20.6871
 20
788.647
 11
21.1448
 21
789.077
  0
LINE
  8
0
 10
21.1448
 20
789.077
 11
21.5451
 21
789.561
  0
LINE
  8
0
 10
21.5451
 20
789.561
 11
21.8815
 21
790.091
  0
LINE
  8
0
 10
21.8815
 20
790.091
 11
22.1489
 21
790.659
  0
LINE
  8
0
 10
22.1489
 20
790.659
 11
22.3429
 21
791.257
  0
LINE
  8
0
 10
22.3429
 20
791.257
 11
22.4606
 21
791.873
  0
LINE
  8
0
 10
22.4606
 20
791.873
 11
22.5
 21
792.5
  0
LINE
  8
0
 10
22.5
 20
792.5
 11
22.5
 21
947.5
  0
LINE
  8
0
 10
22.5
 20
947.5
 11
22.4606
 21
948.127
  0
LINE
  8
0
 10
22.4606
 20
948.127
 11
22.3429
 21
948.743
  0
LINE
  8
0
 10
22.3429
 20
948.743
 11
22.1489
 21
949.341
  0
LINE
  8
0
 10
22.1489
 20
949.341
 11
21.8815
 21
949.909
  0
LINE
  8
0
 10
21.8815
 20
949.909
 11
21.5451
 21
950.439
  0
LINE
  8
0
 10
21.5451
 20
950.439
 11
21.1448
 21
950.923
  0
LINE
  8
0
 10
21.1448
 20
950.923
 11
20.6871
 21
951.353
  0
LINE
  8
0
 10
20.6871
 20
951.353
 11
20.1791
 21
951.722
  0
LINE
  8
0
 10
20.1791
 20
951.722
 11
19.6289
 21
952.024
  0
LINE
  8
0
 10
19.6289
 20
952.024
 11
19.0451
 21
952.255
  0
LINE
  8
0
 10
19.0451
 20
952.255
 11
18.4369
 21
952.411
  0
LINE
  8
0
 10
18.4369
 20
952.411
 11
17.8139
 21
952.49
  0
LINE
  8
0
 10
17.8139
 20
952.49
 11
-17.8139
 21
952.49
  0
LINE
  8
0
 10
-17.8139
 20
952.49
 11
-18.4369
 21
952.411
  0
LINE
  8
0
 10
-18.4369
 20
952.411
 11
-19.0451
 21
952.255
  0
LINE
  8
0
 10
-19.0451
 20
952.255
 11
-19.6289
 21
952.024
  0
LINE
  8
0
 10
-19.6289
 20
952.024
 11
-20.1791
 21
951.722
  0
LINE
  8
0
 10
-20.1791
 20
951.722
 11
-20.6871
 21
951.353
  0
LINE
  8
0
 10
-20.6871
 20
951.353
 11
-21.1448
 21
950.923
  0
LINE
  8
0
 10
-21.1448
 20
950.923
 11
-21.5451
 21
950.439
  0
LINE
  8
0
 10
-21.5451
 20
950.439
 11
-21.8815
 21
949.909
  0
LINE
  8
0
 10
-21.8815
 20
949.909
 11
-22.1489
 21
949.341
  0
LINE
  8
0
 10
-22.1489
 20
949.341
 11
-22.3429
 21
948.743
  0
LINE
  8
0
 10
-22.3429
 20
948.743
 11
-22.4606
 21
948.127
  0
LINE
  8
0
 10
-22.4606
 20
948.127
 11
-22.5
 21
947.5
  0
LINE
  8
0
 10
-22.5
 20
947.5
 11
-22.5
 21
792.5
  0
LINE
  8
0
 10
-22.5
 20
792.5
 11
-22.4606
 21
791.873
  0
LINE
  8
0
 10
-22.4606
 20
791.873
 11
-22.3429
 21
791.257
  0
LINE
  8
0
 10
-22.3429
 20
791.257
 11
-22.1489
 21
790.659
  0
LINE
  8
0
 10
-22.1489
 20
790.659
 11
-21.8815
 21
790.091
  0
LINE
  8
0
 10
-21.8815
 20
790.091
 11
-21.5451
 21
789.561
  0
LINE
  8
0
 10
-21.5451
 20
789.561
 11
-21.1448
 21
789.077
  0
LINE
  8
0
 10
-21.1448
 20
789.077
 11
-20.6871
 21
788.647
  0
LINE
  8
0
 10
-20.6871
 20
788.647
 11
-20.1791
 21
788.278
  0
LINE
  8
0
 10
-20.1791
 20
788.278
 11
-19.6289
 21
787.976
  0
LINE
  8
0
 10
-19.6289
 20
787.976
 11
-19.0451
 21
787.745
  0
LINE
  8
0
 10
-19.0451
 20
787.745
 11
-18.4369
 21
787.589
  0
LINE
  8
0
 10
-18.4369
 20
787.589
 11
-17.8139
 21
787.51
  0
LINE
  8
0
 10
-17.8139
 20
787.51
 11
17.8139
 21
787.51
  0
LINE
  8
0
 10
17.8139
 20
787.51
 11
18.4369
 21
787.589
  0
LINE
  8
0
 10
-17.2512
 20
789.008
 11
-17.7495
 21
789.071
  0
LINE
  8
0
 10
-17.7495
 20
789.071
 11
-18.2361
 21
789.196
  0
LINE
  8
0
 10
-18.2361
 20
789.196
 11
-18.7031
 21
789.381
  0
LINE
  8
0
 10
-18.7031
 20
789.381
 11
-19.1433
 21
789.623
  0
LINE
  8
0
 10
-19.1433
 20
789.623
 11
-19.5497
 21
789.918
  0
LINE
  8
0
 10
-19.5497
 20
789.918
 11
-19.9159
 21
790.262
  0
LINE
  8
0
 10
-19.9159
 20
790.262
 11
-20.2361
 21
790.649
  0
LINE
  8
0
 10
-20.2361
 20
790.649
 11
-20.5052
 21
791.073
  0
LINE
  8
0
 10
-20.5052
 20
791.073
 11
-20.7191
 21
791.528
  0
LINE
  8
0
 10
-20.7191
 20
791.528
 11
-20.8743
 21
792.005
  0
LINE
  8
0
 10
-20.8743
 20
792.005
 11
-20.9684
 21
792.499
  0
LINE
  8
0
 10
-20.9684
 20
792.499
 11
-21
 21
793
  0
LINE
  8
0
 10
-21
 20
793
 11
-21
 21
947
  0
LINE
  8
0
 10
-21
 20
947
 11
-20.9684
 21
947.501
  0
LINE
  8
0
 10
-20.9684
 20
947.501
 11
-20.8743
 21
947.995
  0
LINE
  8
0
 10
-20.8743
 20
947.995
 11
-20.7191
 21
948.472
  0
LINE
  8
0
 10
-20.7191
 20
948.472
 11
-20.5052
 21
948.927
  0
LINE
  8
0
 10
-20.5052
 20
948.927
 11
-20.2361
 21
949.351
  0
LINE
  8
0
 10
-20.2361
 20
949.351
 11
-19.9159
 21
949.738
  0
LINE
  8
0
 10
-19.9159
 20
949.738
 11
-19.5497
 21
950.082
  0
LINE
  8
0
 10
-19.5497
 20
950.082
 11
-19.1433
 21
950.377
  0
LINE
  8
0
 10
-19.1433
 20
950.377
 11
-18.7031
 21
950.619
  0
LINE
  8
0
 10
-18.7031
 20
950.619
 11
-18.2361
 21
950.804
  0
LINE
  8
0
 10
-18.2361
 20
950.804
 11
-17.7495
 21
950.929
  0
LINE
  8
0
 10
-17.7495
 20
950.929
 11
-17.2512
 21
950.992
  0
LINE
  8
0
 10
-17.2512
 20
950.992
 11
17.2512
 21
950.992
  0
LINE
  8
0
 10
17.2512
 20
950.992
 11
17.7495
 21
950.929
  0
LINE
  8
0
 10
17.7495
 20
950.929
 11
18.2361
 21
950.804
  0
LINE
  8
0
 10
18.2361
 20
950.804
 11
18.7031
 21
950.619
  0
LINE
  8
0
 10
18.7031
 20
950.619
 11
19.1433
 21
950.377
  0
LINE
  8
0
 10
19.1433
 20
950.377
 11
19.5497
 21
950.082
  0
LINE
  8
0
 10
19.5497
 20
950.082
 11
19.9159
 21
949.738
  0
LINE
  8
0
 10
19.9159
 20
949.738
 11
20.2361
 21
949.351
  0
LINE
  8
0
 10
20.2361
 20
949.351
 11
20.5052
 21
948.927
  0
LINE
  8
0
 10
20.5052
 20
948.927
 11
20.7191
 21
948.472
  0
LINE
  8
0
 10
20.7191
 20
948.472
 11
20.8743
 21
947.995
  0
LINE
  8
0
 10
20.8743
 20
947.995
 11
20.9684
 21
947.501
  0
LINE
  8
0
 10
20.9684
 20
947.501
 11
21
 21
947
  0
LINE
  8
0
 10
21
 20
947
 11
21
 21
793
  0
LINE
  8
0
 10
21
 20
793
 11
20.9684
 21
792.499
  0
LINE
  8
0
 10
20.9684
 20
792.499
 11
20.8743
 21
792.005
  0
LINE
  8
0
 10
20.8743
 20
792.005
 11
20.7191
 21
791.528
  0
LINE
  8
0
 10
20.7191
 20
791.528
 11
20.5052
 21
791.073
  0
LINE
  8
0
 10
20.5052
 20
791.073
 11
20.2361
 21
790.649
  0
LINE
  8
0
 10
20.2361
 20
790.649
 11
19.9159
 21
790.262
  0
LINE
  8
0
 10
19.9159
 20
790.262
 11
19.5497
 21
789.918
  0
LINE
  8
0
 10
19.5497
 20
789.918
 11
19.1433
 21
789.623
  0
LINE
  8
0
 10
19.1433
 20
789.623
 11
18.7031
 21
789.381
  0
LINE
  8
0
 10
18.7031
 20
789.381
 11
18.2361
 21
789.196
  0
LINE
  8
0
 10
18.2361
 20
789.196
 11
17.7495
 21
789.071
  0
LINE
  8
0
 10
17.7495
 20
789.071
 11
17.2512
 21
789.008
  0
LINE
  8
0
 10
17.2512
 20
789.008
 11
-17.2512
 21
789.008
  0
LINE
  8
0
 10
18.4369
 20
613.589
 11
19.0451
 21
613.745
  0
LINE
  8
0
 10
19.0451
 20
613.745
 11
19.6289
 21
613.976
  0
LINE
  8
0
 10
19.6289
 20
613.976
 11
20.1791
 21
614.278
  0
LINE
  8
0
 10
20.1791
 20
614.278
 11
20.6871
 21
614.647
  0
LINE
  8
0
 10
20.6871
 20
614.647
 11
21.1448
 21
615.077
  0
LINE
  8
0
 10
21.1448
 20
615.077
 11
21.5451
 21
615.561
  0
LINE
  8
0
 10
21.5451
 20
615.561
 11
21.8815
 21
616.091
  0
LINE
  8
0
 10
21.8815
 20
616.091
 11
22.1489
 21
616.659
  0
LINE
  8
0
 10
22.1489
 20
616.659
 11
22.3429
 21
617.257
  0
LINE
  8
0
 10
22.3429
 20
617.257
 11
22.4606
 21
617.873
  0
LINE
  8
0
 10
22.4606
 20
617.873
 11
22.5
 21
618.5
  0
LINE
  8
0
 10
22.5
 20
618.5
 11
22.5
 21
773.5
  0
LINE
  8
0
 10
22.5
 20
773.5
 11
22.4606
 21
774.127
  0
LINE
  8
0
 10
22.4606
 20
774.127
 11
22.3429
 21
774.743
  0
LINE
  8
0
 10
22.3429
 20
774.743
 11
22.1489
 21
775.341
  0
LINE
  8
0
 10
22.1489
 20
775.341
 11
21.8815
 21
775.909
  0
LINE
  8
0
 10
21.8815
 20
775.909
 11
21.5451
 21
776.439
  0
LINE
  8
0
 10
21.5451
 20
776.439
 11
21.1448
 21
776.923
  0
LINE
  8
0
 10
21.1448
 20
776.923
 11
20.6871
 21
777.353
  0
LINE
  8
0
 10
20.6871
 20
777.353
 11
20.1791
 21
777.722
  0
LINE
  8
0
 10
20.1791
 20
777.722
 11
19.6289
 21
778.024
  0
LINE
  8
0
 10
19.6289
 20
778.024
 11
19.0451
 21
778.255
  0
LINE
  8
0
 10
19.0451
 20
778.255
 11
18.4369
 21
778.411
  0
LINE
  8
0
 10
18.4369
 20
778.411
 11
17.8139
 21
778.49
  0
LINE
  8
0
 10
17.8139
 20
778.49
 11
-17.8139
 21
778.49
  0
LINE
  8
0
 10
-17.8139
 20
778.49
 11
-18.4369
 21
778.411
  0
LINE
  8
0
 10
-18.4369
 20
778.411
 11
-19.0451
 21
778.255
  0
LINE
  8
0
 10
-19.0451
 20
778.255
 11
-19.6289
 21
778.024
  0
LINE
  8
0
 10
-19.6289
 20
778.024
 11
-20.1791
 21
777.722
  0
LINE
  8
0
 10
-20.1791
 20
777.722
 11
-20.6871
 21
777.353
  0
LINE
  8
0
 10
-20.6871
 20
777.353
 11
-21.1448
 21
776.923
  0
LINE
  8
0
 10
-21.1448
 20
776.923
 11
-21.5451
 21
776.439
  0
LINE
  8
0
 10
-21.5451
 20
776.439
 11
-21.8815
 21
775.909
  0
LINE
  8
0
 10
-21.8815
 20
775.909
 11
-22.1489
 21
775.341
  0
LINE
  8
0
 10
-22.1489
 20
775.341
 11
-22.3429
 21
774.743
  0
LINE
  8
0
 10
-22.3429
 20
774.743
 11
-22.4606
 21
774.127
  0
LINE
  8
0
 10
-22.4606
 20
774.127
 11
-22.5
 21
773.5
  0
LINE
  8
0
 10
-22.5
 20
773.5
 11
-22.5
 21
618.5
  0
LINE
  8
0
 10
-22.5
 20
618.5
 11
-22.4606
 21
617.873
  0
LINE
  8
0
 10
-22.4606
 20
617.873
 11
-22.3429
 21
617.257
  0
LINE
  8
0
 10
-22.3429
 20
617.257
 11
-22.1489
 21
616.659
  0
LINE
  8
0
 10
-22.1489
 20
616.659
 11
-21.8815
 21
616.091
  0
LINE
  8
0
 10
-21.8815
 20
616.091
 11
-21.5451
 21
615.561
  0
LINE
  8
0
 10
-21.5451
 20
615.561
 11
-21.1448
 21
615.077
  0
LINE
  8
0
 10
-21.1448
 20
615.077
 11
-20.6871
 21
614.647
  0
LINE
  8
0
 10
-20.6871
 20
614.647
 11
-20.1791
 21
614.278
  0
LINE
  8
0
 10
-20.1791
 20
614.278
 11
-19.6289
 21
613.976
  0
LINE
  8
0
 10
-19.6289
 20
613.976
 11
-19.0451
 21
613.745
  0
LINE
  8
0
 10
-19.0451
 20
613.745
 11
-18.4369
 21
613.589
  0
LINE
  8
0
 10
-18.4369
 20
613.589
 11
-17.8139
 21
613.51
  0
LINE
  8
0
 10
-17.8139
 20
613.51
 11
17.8139
 21
613.51
  0
LINE
  8
0
 10
17.8139
 20
613.51
 11
18.4369
 21
613.589
  0
LINE
  8
0
 10
-17.1954
 20
615.893
 11
-17.5833
 21
615.942
  0
LINE
  8
0
 10
-17.5833
 20
615.942
 11
-17.9619
 21
616.039
  0
LINE
  8
0
 10
-17.9619
 20
616.039
 11
-18.3254
 21
616.183
  0
LINE
  8
0
 10
-18.3254
 20
616.183
 11
-18.668
 21
616.372
  0
LINE
  8
0
 10
-18.668
 20
616.372
 11
-18.9842
 21
616.601
  0
LINE
  8
0
 10
-18.9842
 20
616.601
 11
-19.2692
 21
616.869
  0
LINE
  8
0
 10
-19.2692
 20
616.869
 11
-19.5184
 21
617.17
  0
LINE
  8
0
 10
-19.5184
 20
617.17
 11
-19.7279
 21
617.5
  0
LINE
  8
0
 10
-19.7279
 20
617.5
 11
-19.8943
 21
617.854
  0
LINE
  8
0
 10
-19.8943
 20
617.854
 11
-20.0151
 21
618.226
  0
LINE
  8
0
 10
-20.0151
 20
618.226
 11
-20.0884
 21
618.61
  0
LINE
  8
0
 10
-20.0884
 20
618.61
 11
-20.1129
 21
619
  0
LINE
  8
0
 10
-20.1129
 20
619
 11
-20.1129
 21
773
  0
LINE
  8
0
 10
-20.1129
 20
773
 11
-20.0884
 21
773.39
  0
LINE
  8
0
 10
-20.0884
 20
773.39
 11
-20.0151
 21
773.774
  0
LINE
  8
0
 10
-20.0151
 20
773.774
 11
-19.8943
 21
774.146
  0
LINE
  8
0
 10
-19.8943
 20
774.146
 11
-19.7279
 21
774.5
  0
LINE
  8
0
 10
-19.7279
 20
774.5
 11
-19.5184
 21
774.83
  0
LINE
  8
0
 10
-19.5184
 20
774.83
 11
-19.2692
 21
775.131
  0
LINE
  8
0
 10
-19.2692
 20
775.131
 11
-18.9842
 21
775.399
  0
LINE
  8
0
 10
-18.9842
 20
775.399
 11
-18.668
 21
775.628
  0
LINE
  8
0
 10
-18.668
 20
775.628
 11
-18.3254
 21
775.817
  0
LINE
  8
0
 10
-18.3254
 20
775.817
 11
-17.9619
 21
775.961
  0
LINE
  8
0
 10
-17.9619
 20
775.961
 11
-17.5833
 21
776.058
  0
LINE
  8
0
 10
-17.5833
 20
776.058
 11
-17.1954
 21
776.107
  0
LINE
  8
0
 10
-17.1954
 20
776.107
 11
17.1954
 21
776.107
  0
LINE
  8
0
 10
17.1954
 20
776.107
 11
17.5833
 21
776.058
  0
LINE
  8
0
 10
17.5833
 20
776.058
 11
17.9619
 21
775.961
  0
LINE
  8
0
 10
17.9619
 20
775.961
 11
18.3254
 21
775.817
  0
LINE
  8
0
 10
18.3254
 20
775.817
 11
18.668
 21
775.628
  0
LINE
  8
0
 10
18.668
 20
775.628
 11
18.9842
 21
775.399
  0
LINE
  8
0
 10
18.9842
 20
775.399
 11
19.2692
 21
775.131
  0
LINE
  8
0
 10
19.2692
 20
775.131
 11
19.5184
 21
774.83
  0
LINE
  8
0
 10
19.5184
 20
774.83
 11
19.7279
 21
774.5
  0
LINE
  8
0
 10
19.7279
 20
774.5
 11
19.8943
 21
774.146
  0
LINE
  8
0
 10
19.8943
 20
774.146
 11
20.0151
 21
773.774
  0
LINE
  8
0
 10
20.0151
 20
773.774
 11
20.0884
 21
773.39
  0
LINE
  8
0
 10
20.0884
 20
773.39
 11
20.1129
 21
773
  0
LINE
  8
0
 10
20.1129
 20
773
 11
20.1129
 21
619
  0
LINE
  8
0
 10
20.1129
 20
619
 11
20.0884
 21
618.61
  0
LINE
  8
0
 10
20.0884
 20
618.61
 11
20.0151
 21
618.226
  0
LINE
  8
0
 10
20.0151
 20
618.226
 11
19.8943
 21
617.854
  0
LINE
  8
0
 10
19.8943
 20
617.854
 11
19.7279
 21
617.5
  0
LINE
  8
0
 10
19.7279
 20
617.5
 11
19.5184
 21
617.17
  0
LINE
  8
0
 10
19.5184
 20
617.17
 11
19.2692
 21
616.869
  0
LINE
  8
0
 10
19.2692
 20
616.869
 11
18.9842
 21
616.601
  0
LINE
  8
0
 10
18.9842
 20
616.601
 11
18.668
 21
616.372
  0
LINE
  8
0
 10
18.668
 20
616.372
 11
18.3254
 21
616.183
  0
LINE
  8
0
 10
18.3254
 20
616.183
 11
17.9619
 21
616.039
  0
LINE
  8
0
 10
17.9619
 20
616.039
 11
17.5833
 21
615.942
  0
LINE
  8
0
 10
17.5833
 20
615.942
 11
17.1954
 21
615.893
  0
LINE
  8
0
 10
17.1954
 20
615.893
 11
-17.1954
 21
615.893
  0
LINE
  8
0
 10
18.4369
 20
439.589
 11
19.0451
 21
439.745
  0
LINE
  8
0
 10
19.0451
 20
439.745
 11
19.6289
 21
439.976
  0
LINE
  8
0
 10
19.6289
 20
439.976
 11
20.1791
 21
440.278
  0
LINE
  8
0
 10
20.1791
 20
440.278
 11
20.6871
 21
440.647
  0
LINE
  8
0
 10
20.6871
 20
440.647
 11
21.1448
 21
441.077
  0
LINE
  8
0
 10
21.1448
 20
441.077
 11
21.5451
 21
441.561
  0
LINE
  8
0
 10
21.5451
 20
441.561
 11
21.8815
 21
442.091
  0
LINE
  8
0
 10
21.8815
 20
442.091
 11
22.1489
 21
442.659
  0
LINE
  8
0
 10
22.1489
 20
442.659
 11
22.3429
 21
443.257
  0
LINE
  8
0
 10
22.3429
 20
443.257
 11
22.4606
 21
443.873
  0
LINE
  8
0
 10
22.4606
 20
443.873
 11
22.5
 21
444.5
  0
LINE
  8
0
 10
22.5
 20
444.5
 11
22.5
 21
599.5
  0
LINE
  8
0
 10
22.5
 20
599.5
 11
22.4606
 21
600.127
  0
LINE
  8
0
 10
22.4606
 20
600.127
 11
22.3429
 21
600.743
  0
LINE
  8
0
 10
22.3429
 20
600.743
 11
22.1489
 21
601.341
  0
LINE
  8
0
 10
22.1489
 20
601.341
 11
21.8815
 21
601.909
  0
LINE
  8
0
 10
21.8815
 20
601.909
 11
21.5451
 21
602.439
  0
LINE
  8
0
 10
21.5451
 20
602.439
 11
21.1448
 21
602.923
  0
LINE
  8
0
 10
21.1448
 20
602.923
 11
20.6871
 21
603.353
  0
LINE
  8
0
 10
20.6871
 20
603.353
 11
20.1791
 21
603.722
  0
LINE
  8
0
 10
20.1791
 20
603.722
 11
19.6289
 21
604.024
  0
LINE
  8
0
 10
19.6289
 20
604.024
 11
19.0451
 21
604.255
  0
LINE
  8
0
 10
19.0451
 20
604.255
 11
18.4369
 21
604.411
  0
LINE
  8
0
 10
18.4369
 20
604.411
 11
17.8139
 21
604.49
  0
LINE
  8
0
 10
17.8139
 20
604.49
 11
-17.8139
 21
604.49
  0
LINE
  8
0
 10
-17.8139
 20
604.49
 11
-18.4369
 21
604.411
  0
LINE
  8
0
 10
-18.4369
 20
604.411
 11
-19.0451
 21
604.255
  0
LINE
  8
0
 10
-19.0451
 20
604.255
 11
-19.6289
 21
604.024
  0
LINE
  8
0
 10
-19.6289
 20
604.024
 11
-20.1791
 21
603.722
  0
LINE
  8
0
 10
-20.1791
 20
603.722
 11
-20.6871
 21
603.353
  0
LINE
  8
0
 10
-20.6871
 20
603.353
 11
-21.1448
 21
602.923
  0
LINE
  8
0
 10
-21.1448
 20
602.923
 11
-21.5451
 21
602.439
  0
LINE
  8
0
 10
-21.5451
 20
602.439
 11
-21.8815
 21
601.909
  0
LINE
  8
0
 10
-21.8815
 20
601.909
 11
-22.1489
 21
601.341
  0
LINE
  8
0
 10
-22.1489
 20
601.341
 11
-22.3429
 21
600.743
  0
LINE
  8
0
 10
-22.3429
 20
600.743
 11
-22.4606
 21
600.127
  0
LINE
  8
0
 10
-22.4606
 20
600.127
 11
-22.5
 21
599.5
  0
LINE
  8
0
 10
-22.5
 20
599.5
 11
-22.5
 21
444.5
  0
LINE
  8
0
 10
-22.5
 20
444.5
 11
-22.4606
 21
443.873
  0
LINE
  8
0
 10
-22.4606
 20
443.873
 11
-22.3429
 21
443.257
  0
LINE
  8
0
 10
-22.3429
 20
443.257
 11
-22.1489
 21
442.659
  0
LINE
  8
0
 10
-22.1489
 20
442.659
 11
-21.8815
 21
442.091
  0
LINE
  8
0
 10
-21.8815
 20
442.091
 11
-21.5451
 21
441.561
  0
LINE
  8
0
 10
-21.5451
 20
441.561
 11
-21.1448
 21
441.077
  0
LINE
  8
0
 10
-21.1448
 20
441.077
 11
-20.6871
 21
440.647
  0
LINE
  8
0
 10
-20.6871
 20
440.647
 11
-20.1791
 21
440.278
  0
LINE
  8
0
 10
-20.1791
 20
440.278
 11
-19.6289
 21
439.976
  0
LINE
  8
0
 10
-19.6289
 20
439.976
 11
-19.0451
 21
439.745
  0
LINE
  8
0
 10
-19.0451
 20
439.745
 11
-18.4369
 21
439.589
  0
LINE
  8
0
 10
-18.4369
 20
439.589
 11
-17.8139
 21
439.51
  0
LINE
  8
0
 10
-17.8139
 20
439.51
 11
17.8139
 21
439.51
  0
LINE
  8
0
 10
17.8139
 20
439.51
 11
18.4369
 21
439.589
  0
LINE
  8
0
 10
14.8659
 20
594.869
 11
14.5999
 21
594.903
  0
LINE
  8
0
 10
14.5999
 20
594.903
 11
14.3401
 21
594.969
  0
LINE
  8
0
 10
14.3401
 20
594.969
 11
14.0908
 21
595.068
  0
LINE
  8
0
 10
14.0908
 20
595.068
 11
13.8559
 21
595.197
  0
LINE
  8
0
 10
13.8559
 20
595.197
 11
13.6389
 21
595.355
  0
LINE
  8
0
 10
13.6389
 20
595.355
 11
13.4434
 21
595.538
  0
LINE
  8
0
 10
13.4434
 20
595.538
 11
13.2725
 21
595.745
  0
LINE
  8
0
 10
13.2725
 20
595.745
 11
13.1288
 21
595.971
  0
LINE
  8
0
 10
13.1288
 20
595.971
 11
13.0146
 21
596.214
  0
LINE
  8
0
 10
13.0146
 20
596.214
 11
12.9318
 21
596.469
  0
LINE
  8
0
 10
12.9318
 20
596.469
 11
12.8815
 21
596.732
  0
LINE
  8
0
 10
12.8815
 20
596.732
 11
12.8647
 21
597
  0
LINE
  8
0
 10
12.8647
 20
597
 11
12.8815
 21
597.268
  0
LINE
  8
0
 10
12.8815
 20
597.268
 11
12.9318
 21
597.531
  0
LINE
  8
0
 10
12.9318
 20
597.531
 11
13.0146
 21
597.786
  0
LINE
  8
0
 10
13.0146
 20
597.786
 11
13.1288
 21
598.029
  0
LINE
  8
0
 10
13.1288
 20
598.029
 11
13.2725
 21
598.255
  0
LINE
  8
0
 10
13.2725
 20
598.255
 11
13.4434
 21
598.462
  0
LINE
  8
0
 10
13.4434
 20
598.462
 11
13.6389
 21
598.645
  0
LINE
  8
0
 10
13.6389
 20
598.645
 11
13.8559
 21
598.803
  0
LINE
  8
0
 10
13.8559
 20
598.803
 11
14.0908
 21
598.932
  0
LINE
  8
0
 10
14.0908
 20
598.932
 11
14.3401
 21
599.031
  0
LINE
  8
0
 10
14.3401
 20
599.031
 11
14.5999
 21
599.097
  0
LINE
  8
0
 10
14.5999
 20
599.097
 11
14.8659
 21
599.131
  0
LINE
  8
0
 10
14.8659
 20
599.131
 11
15.1341
 21
599.131
  0
LINE
  8
0
 10
15.1341
 20
599.131
 11
15.4001
 21
599.097
  0
LINE
  8
0
 10
15.4001
 20
599.097
 11
15.6598
 21
599.031
  0
LINE
  8
0
 10
15.6598
 20
599.031
 11
15.9091
 21
598.932
  0
LINE
  8
0
 10
15.9091
 20
598.932
 11
16.1441
 21
598.803
  0
LINE
  8
0
 10
16.1441
 20
598.803
 11
16.3611
 21
598.645
  0
LINE
  8
0
 10
16.3611
 20
598.645
 11
16.5565
 21
598.462
  0
LINE
  8
0
 10
16.5565
 20
598.462
 11
16.7275
 21
598.255
  0
LINE
  8
0
 10
16.7275
 20
598.255
 11
16.8712
 21
598.029
  0
LINE
  8
0
 10
16.8712
 20
598.029
 11
16.9853
 21
597.786
  0
LINE
  8
0
 10
16.9853
 20
597.786
 11
17.0682
 21
597.531
  0
LINE
  8
0
 10
17.0682
 20
597.531
 11
17.1185
 21
597.268
  0
LINE
  8
0
 10
17.1185
 20
597.268
 11
17.1353
 21
597
  0
LINE
  8
0
 10
17.1353
 20
597
 11
17.1185
 21
596.732
  0
LINE
  8
0
 10
17.1185
 20
596.732
 11
17.0682
 21
596.469
  0
LINE
  8
0
 10
17.0682
 20
596.469
 11
16.9853
 21
596.214
  0
LINE
  8
0
 10
16.9853
 20
596.214
 11
16.8712
 21
595.971
  0
LINE
  8
0
 10
16.8712
 20
595.971
 11
16.7275
 21
595.745
  0
LINE
  8
0
 10
16.7275
 20
595.745
 11
16.5565
 21
595.538
  0
LINE
  8
0
 10
16.5565
 20
595.538
 11
16.3611
 21
595.355
  0
LINE
  8
0
 10
16.3611
 20
595.355
 11
16.1441
 21
595.197
  0
LINE
  8
0
 10
16.1441
 20
595.197
 11
15.9091
 21
595.068
  0
LINE
  8
0
 10
15.9091
 20
595.068
 11
15.6598
 21
594.969
  0
LINE
  8
0
 10
15.6598
 20
594.969
 11
15.4001
 21
594.903
  0
LINE
  8
0
 10
15.4001
 20
594.903
 11
15.1341
 21
594.869
  0
LINE
  8
0
 10
15.1341
 20
594.869
 11
14.8659
 21
594.869
  0
LINE
  8
0
 10
-15.1341
 20
594.869
 11
-15.4001
 21
594.903
  0
LINE
  8
0
 10
-15.4001
 20
594.903
 11
-15.6598
 21
594.969
  0
LINE
  8
0
 10
-15.6598
 20
594.969
 11
-15.9091
 21
595.068
  0
LINE
  8
0
 10
-15.9091
 20
595.068
 11
-16.1441
 21
595.197
  0
LINE
  8
0
 10
-16.1441
 20
595.197
 11
-16.3611
 21
595.355
  0
LINE
  8
0
 10
-16.3611
 20
595.355
 11
-16.5565
 21
595.538
  0
LINE
  8
0
 10
-16.5565
 20
595.538
 11
-16.7275
 21
595.745
  0
LINE
  8
0
 10
-16.7275
 20
595.745
 11
-16.8712
 21
595.971
  0
LINE
  8
0
 10
-16.8712
 20
595.971
 11
-16.9853
 21
596.214
  0
LINE
  8
0
 10
-16.9853
 20
596.214
 11
-17.0682
 21
596.469
  0
LINE
  8
0
 10
-17.0682
 20
596.469
 11
-17.1185
 21
596.732
  0
LINE
  8
0
 10
-17.1185
 20
596.732
 11
-17.1353
 21
597
  0
LINE
  8
0
 10
-17.1353
 20
597
 11
-17.1185
 21
597.268
  0
LINE
  8
0
 10
-17.1185
 20
597.268
 11
-17.0682
 21
597.531
  0
LINE
  8
0
 10
-17.0682
 20
597.531
 11
-16.9853
 21
597.786
  0
LINE
  8
0
 10
-16.9853
 20
597.786
 11
-16.8712
 21
598.029
  0
LINE
  8
0
 10
-16.8712
 20
598.029
 11
-16.7275
 21
598.255
  0
LINE
  8
0
 10
-16.7275
 20
598.255
 11
-16.5565
 21
598.462
  0
LINE
  8
0
 10
-16.5565
 20
598.462
 11
-16.3611
 21
598.645
  0
LINE
  8
0
 10
-16.3611
 20
598.645
 11
-16.1441
 21
598.803
  0
LINE
  8
0
 10
-16.1441
 20
598.803
 11
-15.9091
 21
598.932
  0
LINE
  8
0
 10
-15.9091
 20
598.932
 11
-15.6598
 21
599.031
  0
LINE
  8
0
 10
-15.6598
 20
599.031
 11
-15.4001
 21
599.097
  0
LINE
  8
0
 10
-15.4001
 20
599.097
 11
-15.1341
 21
599.131
  0
LINE
  8
0
 10
-15.1341
 20
599.131
 11
-14.8659
 21
599.131
  0
LINE
  8
0
 10
-14.8659
 20
599.131
 11
-14.5999
 21
599.097
  0
LINE
  8
0
 10
-14.5999
 20
599.097
 11
-14.3401
 21
599.031
  0
LINE
  8
0
 10
-14.3401
 20
599.031
 11
-14.0908
 21
598.932
  0
LINE
  8
0
 10
-14.0908
 20
598.932
 11
-13.8559
 21
598.803
  0
LINE
  8
0
 10
-13.8559
 20
598.803
 11
-13.6389
 21
598.645
  0
LINE
  8
0
 10
-13.6389
 20
598.645
 11
-13.4434
 21
598.462
  0
LINE
  8
0
 10
-13.4434
 20
598.462
 11
-13.2725
 21
598.255
  0
LINE
  8
0
 10
-13.2725
 20
598.255
 11
-13.1288
 21
598.029
  0
LINE
  8
0
 10
-13.1288
 20
598.029
 11
-13.0146
 21
597.786
  0
LINE
  8
0
 10
-13.0146
 20
597.786
 11
-12.9318
 21
597.531
  0
LINE
  8
0
 10
-12.9318
 20
597.531
 11
-12.8815
 21
597.268
  0
LINE
  8
0
 10
-12.8815
 20
597.268
 11
-12.8647
 21
597
  0
LINE
  8
0
 10
-12.8647
 20
597
 11
-12.8815
 21
596.732
  0
LINE
  8
0
 10
-12.8815
 20
596.732
 11
-12.9318
 21
596.469
  0
LINE
  8
0
 10
-12.9318
 20
596.469
 11
-13.0146
 21
596.214
  0
LINE
  8
0
 10
-13.0146
 20
596.214
 11
-13.1288
 21
595.971
  0
LINE
  8
0
 10
-13.1288
 20
595.971
 11
-13.2725
 21
595.745
  0
LINE
  8
0
 10
-13.2725
 20
595.745
 11
-13.4434
 21
595.538
  0
LINE
  8
0
 10
-13.4434
 20
595.538
 11
-13.6389
 21
595.355
  0
LINE
  8
0
 10
-13.6389
 20
595.355
 11
-13.8559
 21
595.197
  0
LINE
  8
0
 10
-13.8559
 20
595.197
 11
-14.0908
 21
595.068
  0
LINE
  8
0
 10
-14.0908
 20
595.068
 11
-14.3401
 21
594.969
  0
LINE
  8
0
 10
-14.3401
 20
594.969
 11
-14.5999
 21
594.903
  0
LINE
  8
0
 10
-14.5999
 20
594.903
 11
-14.8659
 21
594.869
  0
LINE
  8
0
 10
-14.8659
 20
594.869
 11
-15.1341
 21
594.869
  0
LINE
  8
0
 10
14.8659
 20
444.869
 11
14.5999
 21
444.903
  0
LINE
  8
0
 10
14.5999
 20
444.903
 11
14.3401
 21
444.969
  0
LINE
  8
0
 10
14.3401
 20
444.969
 11
14.0908
 21
445.068
  0
LINE
  8
0
 10
14.0908
 20
445.068
 11
13.8559
 21
445.197
  0
LINE
  8
0
 10
13.8559
 20
445.197
 11
13.6389
 21
445.355
  0
LINE
  8
0
 10
13.6389
 20
445.355
 11
13.4434
 21
445.538
  0
LINE
  8
0
 10
13.4434
 20
445.538
 11
13.2725
 21
445.745
  0
LINE
  8
0
 10
13.2725
 20
445.745
 11
13.1288
 21
445.971
  0
LINE
  8
0
 10
13.1288
 20
445.971
 11
13.0146
 21
446.214
  0
LINE
  8
0
 10
13.0146
 20
446.214
 11
12.9318
 21
446.469
  0
LINE
  8
0
 10
12.9318
 20
446.469
 11
12.8815
 21
446.732
  0
LINE
  8
0
 10
12.8815
 20
446.732
 11
12.8647
 21
447
  0
LINE
  8
0
 10
12.8647
 20
447
 11
12.8815
 21
447.268
  0
LINE
  8
0
 10
12.8815
 20
447.268
 11
12.9318
 21
447.531
  0
LINE
  8
0
 10
12.9318
 20
447.531
 11
13.0146
 21
447.786
  0
LINE
  8
0
 10
13.0146
 20
447.786
 11
13.1288
 21
448.029
  0
LINE
  8
0
 10
13.1288
 20
448.029
 11
13.2725
 21
448.255
  0
LINE
  8
0
 10
13.2725
 20
448.255
 11
13.4434
 21
448.462
  0
LINE
  8
0
 10
13.4434
 20
448.462
 11
13.6389
 21
448.645
  0
LINE
  8
0
 10
13.6389
 20
448.645
 11
13.8559
 21
448.803
  0
LINE
  8
0
 10
13.8559
 20
448.803
 11
14.0908
 21
448.932
  0
LINE
  8
0
 10
14.0908
 20
448.932
 11
14.3401
 21
449.031
  0
LINE
  8
0
 10
14.3401
 20
449.031
 11
14.5999
 21
449.097
  0
LINE
  8
0
 10
14.5999
 20
449.097
 11
14.8659
 21
449.131
  0
LINE
  8
0
 10
14.8659
 20
449.131
 11
15.1341
 21
449.131
  0
LINE
  8
0
 10
15.1341
 20
449.131
 11
15.4001
 21
449.097
  0
LINE
  8
0
 10
15.4001
 20
449.097
 11
15.6598
 21
449.031
  0
LINE
  8
0
 10
15.6598
 20
449.031
 11
15.9091
 21
448.932
  0
LINE
  8
0
 10
15.9091
 20
448.932
 11
16.1441
 21
448.803
  0
LINE
  8
0
 10
16.1441
 20
448.803
 11
16.3611
 21
448.645
  0
LINE
  8
0
 10
16.3611
 20
448.645
 11
16.5565
 21
448.462
  0
LINE
  8
0
 10
16.5565
 20
448.462
 11
16.7275
 21
448.255
  0
LINE
  8
0
 10
16.7275
 20
448.255
 11
16.8712
 21
448.029
  0
LINE
  8
0
 10
16.8712
 20
448.029
 11
16.9853
 21
447.786
  0
LINE
  8
0
 10
16.9853
 20
447.786
 11
17.0682
 21
447.531
  0
LINE
  8
0
 10
17.0682
 20
447.531
 11
17.1185
 21
447.268
  0
LINE
  8
0
 10
17.1185
 20
447.268
 11
17.1353
 21
447
  0
LINE
  8
0
 10
17.1353
 20
447
 11
17.1185
 21
446.732
  0
LINE
  8
0
 10
17.1185
 20
446.732
 11
17.0682
 21
446.469
  0
LINE
  8
0
 10
17.0682
 20
446.469
 11
16.9853
 21
446.214
  0
LINE
  8
0
 10
16.9853
 20
446.214
 11
16.8712
 21
445.971
  0
LINE
  8
0
 10
16.8712
 20
445.971
 11
16.7275
 21
445.745
  0
LINE
  8
0
 10
16.7275
 20
445.745
 11
16.5565
 21
445.538
  0
LINE
  8
0
 10
16.5565
 20
445.538
 11
16.3611
 21
445.355
  0
LINE
  8
0
 10
16.3611
 20
445.355
 11
16.1441
 21
445.197
  0
LINE
  8
0
 10
16.1441
 20
445.197
 11
15.9091
 21
445.068
  0
LINE
  8
0
 10
15.9091
 20
445.068
 11
15.6598
 21
444.969
  0
LINE
  8
0
 10
15.6598
 20
444.969
 11
15.4001
 21
444.903
  0
LINE
  8
0
 10
15.4001
 20
444.903
 11
15.1341
 21
444.869
  0
LINE
  8
0
 10
15.1341
 20
444.869
 11
14.8659
 21
444.869
  0
LINE
  8
0
 10
-15.1341
 20
444.869
 11
-15.4001
 21
444.903
  0
LINE
  8
0
 10
-15.4001
 20
444.903
 11
-15.6598
 21
444.969
  0
LINE
  8
0
 10
-15.6598
 20
444.969
 11
-15.9091
 21
445.068
  0
LINE
  8
0
 10
-15.9091
 20
445.068
 11
-16.1441
 21
445.197
  0
LINE
  8
0
 10
-16.1441
 20
445.197
 11
-16.3611
 21
445.355
  0
LINE
  8
0
 10
-16.3611
 20
445.355
 11
-16.5565
 21
445.538
  0
LINE
  8
0
 10
-16.5565
 20
445.538
 11
-16.7275
 21
445.745
  0
LINE
  8
0
 10
-16.7275
 20
445.745
 11
-16.8712
 21
445.971
  0
LINE
  8
0
 10
-16.8712
 20
445.971
 11
-16.9853
 21
446.214
  0
LINE
  8
0
 10
-16.9853
 20
446.214
 11
-17.0682
 21
446.469
  0
LINE
  8
0
 10
-17.0682
 20
446.469
 11
-17.1185
 21
446.732
  0
LINE
  8
0
 10
-17.1185
 20
446.732
 11
-17.1353
 21
447
  0
LINE
  8
0
 10
-17.1353
 20
447
 11
-17.1185
 21
447.268
  0
LINE
  8
0
 10
-17.1185
 20
447.268
 11
-17.0682
 21
447.531
  0
LINE
  8
0
 10
-17.0682
 20
447.531
 11
-16.9853
 21
447.786
  0
LINE
  8
0
 10
-16.9853
 20
447.786
 11
-16.8712
 21
448.029
  0
LINE
  8
0
 10
-16.8712
 20
448.029
 11
-16.7275
 21
448.255
  0
LINE
  8
0
 10
-16.7275
 20
448.255
 11
-16.5565
 21
448.462
  0
LINE
  8
0
 10
-16.5565
 20
448.462
 11
-16.3611
 21
448.645
  0
LINE
  8
0
 10
-16.3611
 20
448.645
 11
-16.1441
 21
448.803
  0
LINE
  8
0
 10
-16.1441
 20
448.803
 11
-15.9091
 21
448.932
  0
LINE
  8
0
 10
-15.9091
 20
448.932
 11
-15.6598
 21
449.031
  0
LINE
  8
0
 10
-15.6598
 20
449.031
 11
-15.4001
 21
449.097
  0
LINE
  8
0
 10
-15.4001
 20
449.097
 11
-15.1341
 21
449.131
  0
LINE
  8
0
 10
-15.1341
 20
449.131
 11
-14.8659
 21
449.131
  0
LINE
  8
0
 10
-14.8659
 20
449.131
 11
-14.5999
 21
449.097
  0
LINE
  8
0
 10
-14.5999
 20
449.097
 11
-14.3401
 21
449.031
  0
LINE
  8
0
 10
-14.3401
 20
449.031
 11
-14.0908
 21
448.932
  0
LINE
  8
0
 10
-14.0908
 20
448.932
 11
-13.8559
 21
448.803
  0
LINE
  8
0
 10
-13.8559
 20
448.803
 11
-13.6389
 21
448.645
  0
LINE
  8
0
 10
-13.6389
 20
448.645
 11
-13.4434
 21
448.462
  0
LINE
  8
0
 10
-13.4434
 20
448.462
 11
-13.2725
 21
448.255
  0
LINE
  8
0
 10
-13.2725
 20
448.255
 11
-13.1288
 21
448.029
  0
LINE
  8
0
 10
-13.1288
 20
448.029
 11
-13.0146
 21
447.786
  0
LINE
  8
0
 10
-13.0146
 20
447.786
 11
-12.9318
 21
447.531
  0
LINE
  8
0
 10
-12.9318
 20
447.531
 11
-12.8815
 21
447.268
  0
LINE
  8
0
 10
-12.8815
 20
447.268
 11
-12.8647
 21
447
  0
LINE
  8
0
 10
-12.8647
 20
447
 11
-12.8815
 21
446.732
  0
LINE
  8
0
 10
-12.8815
 20
446.732
 11
-12.9318
 21
446.469
  0
LINE
  8
0
 10
-12.9318
 20
446.469
 11
-13.0146
 21
446.214
  0
LINE
  8
0
 10
-13.0146
 20
446.214
 11
-13.1288
 21
445.971
  0
LINE
  8
0
 10
-13.1288
 20
445.971
 11
-13.2725
 21
445.745
  0
LINE
  8
0
 10
-13.2725
 20
445.745
 11
-13.4434
 21
445.538
  0
LINE
  8
0
 10
-13.4434
 20
445.538
 11
-13.6389
 21
445.355
  0
LINE
  8
0
 10
-13.6389
 20
445.355
 11
-13.8559
 21
445.197
  0
LINE
  8
0
 10
-13.8559
 20
445.197
 11
-14.0908
 21
445.068
  0
LINE
  8
0
 10
-14.0908
 20
445.068
 11
-14.3401
 21
444.969
  0
LINE
  8
0
 10
-14.3401
 20
444.969
 11
-14.5999
 21
444.903
  0
LINE
  8
0
 10
-14.5999
 20
444.903
 11
-14.8659
 21
444.869
  0
LINE
  8
0
 10
-14.8659
 20
444.869
 11
-15.1341
 21
444.869
  0
ENDSEC
  0
SECTION
  2
OBJECTS
  0
DICTIONARY
  0
ENDSEC
  0
EOF
