<?xml version="1.0" standalone="no"?>
<!DOCTYPE svg PUBLIC "-//W3C//DTD SVG 1.1//EN" "http://www.w3.org/Graphics/SVG/1.1/DTD/svg11.dtd">
<svg width="150mm" height="64mm" viewBox="-75 -128 150 64" xmlns="http://www.w3.org/2000/svg" version="1.1">
<title>OpenSCAD Model</title>
<path d="
M 70.9369,-112.589 L 71.5451,-112.745 L 72.1289,-112.976 L 72.6791,-113.278 L 73.1871,-113.647 L 73.6448,-114.077
 L 74.0451,-114.561 L 74.3815,-115.091 L 74.6489,-115.659 L 74.8429,-116.257 L 74.9606,-116.873 L 75,-117.5
 L 75,-122.5 L 74.9606,-123.127 L 74.8429,-123.743 L 74.6489,-124.341 L 74.3815,-124.909 L 74.0451,-125.439
 L 73.6448,-125.923 L 73.1871,-126.353 L 72.6791,-126.722 L 72.1289,-127.024 L 71.5451,-127.255 L 70.9369,-127.411
 L 70.3139,-127.49 L -70.3139,-127.49 L -70.9369,-127.411 L -71.5451,-127.255 L -72.1289,-127.024 L -72.6791,-126.722
 L -73.1871,-126.353 L -73.6448,-125.923 L -74.0451,-125.439 L -74.3815,-124.909 L -74.6489,-124.341 L -74.8429,-123.743
 L -74.9606,-123.127 L -75,-122.5 L -75,-117.5 L -74.9606,-116.873 L -74.8429,-116.257 L -74.6489,-115.659
 L -74.3815,-115.091 L -74.0451,-114.561 L -73.6448,-114.077 L -73.1871,-113.647 L -72.6791,-113.278 L -72.1289,-112.976
 L -71.5451,-112.745 L -70.9369,-112.589 L -70.3139,-112.51 L 70.3139,-112.51 z
M -70.0482,-113.009 L -70.6401,-113.084 L -71.2178,-113.232 L -71.7724,-113.452 L -72.2952,-113.739 L -72.7778,-114.09
 L -73.2126,-114.498 L -73.5928,-114.958 L -73.9125,-115.462 L -74.1664,-116.001 L -74.3508,-116.569 L -74.4625,-117.155
 L -74.5,-117.75 L -74.5,-122.25 L -74.4625,-122.845 L -74.3508,-123.431 L -74.1664,-123.999 L -73.9125,-124.538
 L -73.5928,-125.042 L -73.2126,-125.502 L -72.7778,-125.91 L -72.2952,-126.261 L -71.7724,-126.548 L -71.2178,-126.768
 L -70.6401,-126.916 L -70.0482,-126.991 L 70.0482,-126.991 L 70.6401,-126.916 L 71.2178,-126.768 L 71.7724,-126.548
 L 72.2952,-126.261 L 72.7778,-125.91 L 73.2126,-125.502 L 73.5928,-125.042 L 73.9125,-124.538 L 74.1664,-123.999
 L 74.3508,-123.431 L 74.4625,-122.845 L 74.5,-122.25 L 74.5,-117.75 L 74.4625,-117.155 L 74.3508,-116.569
 L 74.1664,-116.001 L 73.9125,-115.462 L 73.5928,-114.958 L 73.2126,-114.498 L 72.7778,-114.09 L 72.2952,-113.739
 L 71.7724,-113.452 L 71.2178,-113.232 L 70.6401,-113.084 L 70.0482,-113.009 z
M 70.9369,-88.5886 L 71.5451,-88.7447 L 72.1289,-88.9759 L 72.6791,-89.2784 L 73.1871,-89.6474 L 73.6448,-90.0773
 L 74.0451,-90.5611 L 74.3815,-91.0912 L 74.6489,-91.6594 L 74.8429,-92.2566 L 74.9606,-92.8733 L 75,-93.5
 L 75,-98.5 L 74.9606,-99.1267 L 74.8429,-99.7434 L 74.6489,-100.341 L 74.3815,-100.909 L 74.0451,-101.439
 L 73.6448,-101.923 L 73.1871,-102.353 L 72.6791,-102.722 L 72.1289,-103.024 L 71.5451,-103.255 L 70.9369,-103.411
 L 70.3139,-103.49 L -70.3139,-103.49 L -70.9369,-103.411 L -71.5451,-103.255 L -72.1289,-103.024 L -72.6791,-102.722
 L -73.1871,-102.353 L -73.6448,-101.923 L -74.0451,-101.439 L -74.3815,-100.909 L -74.6489,-100.341 L -74.8429,-99.7434
 L -74.9606,-99.1267 L -75,-98.5 L -75,-93.5 L -74.9606,-92.8733 L -74.8429,-92.2566 L -74.6489,-91.6594
 L -74.3815,-91.0912 L -74.0451,-90.5611 L -73.6448,-90.0773 L -73.1871,-89.6474 L -72.6791,-89.2784 L -72.1289,-88.9759
 L -71.5451,-88.7447 L -70.9369,-88.5886 L -70.3139,-88.5099 L 70.3139,-88.5099 z
M -70.0375,-89.1806 L -70.6079,-89.2527 L -71.1648,-89.3956 L -71.6994,-89.6073 L -72.2032,-89.8843 L -72.6684,-90.2223
 L -73.0875,-90.6158 L -73.454,-91.0589 L -73.7621,-91.5443 L -74.0069,-92.0646 L -74.1846,-92.6114 L -74.2923,-93.1762
 L -74.3284,-93.75 L -74.3284,-98.25 L -74.2923,-98.8238 L -74.1846,-99.3886 L -74.0069,-99.9354 L -73.7621,-100.456
 L -73.454,-100.941 L -73.0875,-101.384 L -72.6684,-101.778 L -72.2032,-102.116 L -71.6994,-102.393 L -71.1648,-102.604
 L -70.6079,-102.747 L -70.0375,-102.819 L 70.0375,-102.819 L 70.6079,-102.747 L 71.1648,-102.604 L 71.6994,-102.393
 L 72.2032,-102.116 L 72.6684,-101.778 L 73.0875,-101.384 L 73.454,-100.941 L 73.7621,-100.456 L 74.0069,-99.9354
 L 74.1846,-99.3886 L 74.2923,-98.8238 L 74.3284,-98.25 L 74.3284,-93.75 L 74.2923,-93.1762 L 74.1846,-92.6114
 L 74.0069,-92.0646 L 73.7621,-91.5443 L 73.454,-91.0589 L 73.0875,-90.6158 L 72.6684,-90.2223 L 72.2032,-89.8843
 L 71.6994,-89.6073 L 71.1648,-89.3956 L 70.6079,-89.2527 L 70.0375,-89.1806 z
M 70.9369,-64.5886 L 71.5451,-64.7447 L 72.1289,-64.9759 L 72.6791,-65.2784 L 73.1871,-65.6474 L 73.6448,-66.0773
 L 74.0451,-66.5611 L 74.3815,-67.0912 L 74.6489,-67.6594 L 74.8429,-68.2566 L 74.9606,-68.8733 L 75,-69.5
 L 75,-74.5 L 74.9606,-75.1267 L 74.8429,-75.7434 L 74.6489,-76.3406 L 74.3815,-76.9088 L 74.0451,-77.4389
 L 73.6448,-77.9227 L 73.1871,-78.3526 L 72.6791,-78.7216 L 72.1289,-79.0241 L 71.5451,-79.2553 L 70.9369,-79.4114
 L 70.3139,-79.4901 L -70.3139,-79.4901 L -70.9369,-79.4114 L -71.5451,-79.2553 L -72.1289,-79.0241 L -72.6791,-78.7216
 L -73.1871,-78.3526 L -73.6448,-77.9227 L -74.0451,-77.4389 L -74.3815,-76.9088 L -74.6489,-76.3406 L -74.8429,-75.7434
 L -74.9606,-75.1267 L -75,-74.5 L -75,-69.5 L -74.9606,-68.8733 L -74.8429,-68.2566 L -74.6489,-67.6594
 L -74.3815,-67.0912 L -74.0451,-66.5611 L -73.6448,-66.0773 L -73.1871,-65.6474 L -72.6791,-65.2784 L -72.1289,-64.9759
 L -71.5451,-64.7447 L -70.9369,-64.5886 L -70.3139,-64.5099 L 70.3139,-64.5099 z
M -69.8825,-67.6445 L -70.1453,-67.6777 L -70.4019,-67.7436 L -70.6482,-67.8412 L -70.8804,-67.9688 L -71.0947,-68.1245
 L -71.2879,-68.3059 L -71.4567,-68.51 L -71.5987,-68.7337 L -71.7115,-68.9734 L -71.7934,-69.2254 L -71.843,-69.4856
 L -71.8596,-69.75 L -71.8596,-74.25 L -71.843,-74.5144 L -71.7934,-74.7746 L -71.7115,-75.0266 L -71.5987,-75.2663
 L -71.4567,-75.49 L -71.2879,-75.6941 L -71.0947,-75.8755 L -70.8804,-76.0312 L -70.6482,-76.1588 L -70.4019,-76.2564
 L -70.1453,-76.3223 L -69.8825,-76.3555 L 69.8825,-76.3555 L 70.1453,-76.3223 L 70.4019,-76.2564 L 70.6482,-76.1588
 L 70.8804,-76.0312 L 71.0947,-75.8755 L 71.2879,-75.6941 L 71.4567,-75.49 L 71.5987,-75.2663 L 71.7115,-75.0266
 L 71.7934,-74.7746 L 71.843,-74.5144 L 71.8596,-74.25 L 71.8596,-69.75 L 71.843,-69.4856 L 71.7934,-69.2254
 L 71.7115,-68.9734 L 71.5987,-68.7337 L 71.4567,-68.51 L 71.2879,-68.3059 L 71.0947,-68.1245 L 70.8804,-67.9688
 L 70.6482,-67.8412 L 70.4019,-67.7436 L 70.1453,-67.6777 L 69.8825,-67.6445 z
" stroke="black" fill="lightgray" stroke-width="0.5"/>
</svg>
