<?xml version="1.0" standalone="no"?>
<!DOCTYPE svg PUBLIC "-//W3C//DTD SVG 1.1//EN" "http://www.w3.org/Graphics/SVG/1.1/DTD/svg11.dtd">
<svg width="30mm" height="378mm" viewBox="-15 -705 30 378" xmlns="http://www.w3.org/2000/svg" version="1.1">
<title>OpenSCAD Model</title>
<path d="
M 10.9369,-585.089 L 11.5451,-585.245 L 12.1289,-585.476 L 12.6791,-585.778 L 13.1871,-586.147 L 13.6448,-586.577
 L 14.0451,-587.061 L 14.3815,-587.591 L 14.6489,-588.159 L 14.8429,-588.757 L 14.9606,-589.373 L 15,-590
 L 15,-700 L 14.9606,-700.627 L 14.8429,-701.243 L 14.6489,-701.841 L 14.3815,-702.409 L 14.0451,-702.939
 L 13.6448,-703.423 L 13.1871,-703.853 L 12.6791,-704.222 L 12.1289,-704.524 L 11.5451,-704.755 L 10.9369,-704.911
 L 10.3139,-704.99 L -10.3139,-704.99 L -10.9369,-704.911 L -11.5451,-704.755 L -12.1289,-704.524 L -12.6791,-704.222
 L -13.1871,-703.853 L -13.6448,-703.423 L -14.0451,-702.939 L -14.3815,-702.409 L -14.6489,-701.841 L -14.8429,-701.243
 L -14.9606,-700.627 L -15,-700 L -15,-590 L -14.9606,-589.373 L -14.8429,-588.757 L -14.6489,-588.159
 L -14.3815,-587.591 L -14.0451,-587.061 L -13.6448,-586.577 L -13.1871,-586.147 L -12.6791,-585.778 L -12.1289,-585.476
 L -11.5451,-585.245 L -10.9369,-585.089 L -10.3139,-585.01 L 10.3139,-585.01 z
M -9.75116,-586.508 L -10.2495,-586.571 L -10.7361,-586.696 L -11.2031,-586.881 L -11.6433,-587.123 L -12.0497,-587.418
 L -12.4159,-587.762 L -12.7361,-588.149 L -13.0052,-588.573 L -13.2191,-589.028 L -13.3743,-589.505 L -13.4684,-589.999
 L -13.5,-590.5 L -13.5,-699.5 L -13.4684,-700.001 L -13.3743,-700.495 L -13.2191,-700.972 L -13.0052,-701.427
 L -12.7361,-701.851 L -12.4159,-702.238 L -12.0497,-702.582 L -11.6433,-702.877 L -11.2031,-703.119 L -10.7361,-703.304
 L -10.2495,-703.429 L -9.75116,-703.492 L 9.75116,-703.492 L 10.2495,-703.429 L 10.7361,-703.304 L 11.2031,-703.119
 L 11.6433,-702.877 L 12.0497,-702.582 L 12.4159,-702.238 L 12.7361,-701.851 L 13.0052,-701.427 L 13.2191,-700.972
 L 13.3743,-700.495 L 13.4684,-700.001 L 13.5,-699.5 L 13.5,-590.5 L 13.4684,-589.999 L 13.3743,-589.505
 L 13.2191,-589.028 L 13.0052,-588.573 L 12.7361,-588.149 L 12.4159,-587.762 L 12.0497,-587.418 L 11.6433,-587.123
 L 11.2031,-586.881 L 10.7361,-586.696 L 10.2495,-586.571 L 9.75116,-586.508 z
M 10.9369,-456.089 L 11.5451,-456.245 L 12.1289,-456.476 L 12.6791,-456.778 L 13.1871,-457.147 L 13.6448,-457.577
 L 14.0451,-458.061 L 14.3815,-458.591 L 14.6489,-459.159 L 14.8429,-459.757 L 14.9606,-460.373 L 15,-461
 L 15,-571 L 14.9606,-571.627 L 14.8429,-572.243 L 14.6489,-572.841 L 14.3815,-573.409 L 14.0451,-573.939
 L 13.6448,-574.423 L 13.1871,-574.853 L 12.6791,-575.222 L 12.1289,-575.524 L 11.5451,-575.755 L 10.9369,-575.911
 L 10.3139,-575.99 L -10.3139,-575.99 L -10.9369,-575.911 L -11.5451,-575.755 L -12.1289,-575.524 L -12.6791,-575.222
 L -13.1871,-574.853 L -13.6448,-574.423 L -14.0451,-573.939 L -14.3815,-573.409 L -14.6489,-572.841 L -14.8429,-572.243
 L -14.9606,-571.627 L -15,-571 L -15,-461 L -14.9606,-460.373 L -14.8429,-459.757 L -14.6489,-459.159
 L -14.3815,-458.591 L -14.0451,-458.061 L -13.6448,-457.577 L -13.1871,-457.147 L -12.6791,-456.778 L -12.1289,-456.476
 L -11.5451,-456.245 L -10.9369,-456.089 L -10.3139,-456.01 L 10.3139,-456.01 z
M -9.69545,-458.393 L -10.0833,-458.442 L -10.4619,-458.539 L -10.8254,-458.683 L -11.168,-458.872 L -11.4842,-459.101
 L -11.7692,-459.369 L -12.0184,-459.67 L -12.2279,-460 L -12.3943,-460.354 L -12.5151,-460.726 L -12.5884,-461.11
 L -12.6129,-461.5 L -12.6129,-570.5 L -12.5884,-570.89 L -12.5151,-571.274 L -12.3943,-571.646 L -12.2279,-572
 L -12.0184,-572.33 L -11.7692,-572.631 L -11.4842,-572.899 L -11.168,-573.128 L -10.8254,-573.317 L -10.4619,-573.461
 L -10.0833,-573.558 L -9.69545,-573.607 L 9.69545,-573.607 L 10.0833,-573.558 L 10.4619,-573.461 L 10.8254,-573.317
 L 11.168,-573.128 L 11.4842,-572.899 L 11.7692,-572.631 L 12.0184,-572.33 L 12.2279,-572 L 12.3943,-571.646
 L 12.5151,-571.274 L 12.5884,-570.89 L 12.6129,-570.5 L 12.6129,-461.5 L 12.5884,-461.11 L 12.5151,-460.726
 L 12.3943,-460.354 L 12.2279,-460 L 12.0184,-459.67 L 11.7692,-459.369 L 11.4842,-459.101 L 11.168,-458.872
 L 10.8254,-458.683 L 10.4619,-458.539 L 10.0833,-458.442 L 9.69545,-458.393 z
M 10.9369,-327.089 L 11.5451,-327.245 L 12.1289,-327.476 L 12.6791,-327.778 L 13.1871,-328.147 L 13.6448,-328.577
 L 14.0451,-329.061 L 14.3815,-329.591 L 14.6489,-330.159 L 14.8429,-330.757 L 14.9606,-331.373 L 15,-332
 L 15,-442 L 14.9606,-442.627 L 14.8429,-443.243 L 14.6489,-443.841 L 14.3815,-444.409 L 14.0451,-444.939
 L 13.6448,-445.423 L 13.1871,-445.853 L 12.6791,-446.222 L 12.1289,-446.524 L 11.5451,-446.755 L 10.9369,-446.911
 L 10.3139,-446.99 L -10.3139,-446.99 L -10.9369,-446.911 L -11.5451,-446.755 L -12.1289,-446.524 L -12.6791,-446.222
 L -13.1871,-445.853 L -13.6448,-445.423 L -14.0451,-444.939 L -14.3815,-444.409 L -14.6489,-443.841 L -14.8429,-443.243
 L -14.9606,-442.627 L -15,-442 L -15,-332 L -14.9606,-331.373 L -14.8429,-330.757 L -14.6489,-330.159
 L -14.3815,-329.591 L -14.0451,-329.061 L -13.6448,-328.577 L -13.1871,-328.147 L -12.6791,-327.778 L -12.1289,-327.476
 L -11.5451,-327.245 L -10.9369,-327.089 L -10.3139,-327.01 L 10.3139,-327.01 z
M 7.36592,-437.369 L 7.09988,-437.403 L 6.84015,-437.469 L 6.59084,-437.568 L 6.35585,-437.697 L 6.1389,-437.855
 L 5.94344,-438.038 L 5.77251,-438.245 L 5.62881,-438.471 L 5.51465,-438.714 L 5.43178,-438.969 L 5.38153,-439.232
 L 5.3647,-439.5 L 5.38153,-439.768 L 5.43178,-440.031 L 5.51465,-440.286 L 5.62881,-440.529 L 5.77251,-440.755
 L 5.94344,-440.962 L 6.1389,-441.145 L 6.35585,-441.303 L 6.59084,-441.432 L 6.84015,-441.531 L 7.09988,-441.597
 L 7.36592,-441.631 L 7.63406,-441.631 L 7.9001,-441.597 L 8.15984,-441.531 L 8.40915,-441.432 L 8.64413,-441.303
 L 8.86108,-441.145 L 9.05655,-440.962 L 9.22748,-440.755 L 9.37117,-440.529 L 9.48534,-440.286 L 9.56821,-440.031
 L 9.61845,-439.768 L 9.63528,-439.5 L 9.61845,-439.232 L 9.56821,-438.969 L 9.48534,-438.714 L 9.37117,-438.471
 L 9.22748,-438.245 L 9.05655,-438.038 L 8.86108,-437.855 L 8.64413,-437.697 L 8.40915,-437.568 L 8.15984,-437.469
 L 7.9001,-437.403 L 7.63406,-437.369 z
M -7.63406,-437.369 L -7.9001,-437.403 L -8.15984,-437.469 L -8.40915,-437.568 L -8.64413,-437.697 L -8.86108,-437.855
 L -9.05655,-438.038 L -9.22748,-438.245 L -9.37117,-438.471 L -9.48534,-438.714 L -9.56821,-438.969 L -9.61845,-439.232
 L -9.63528,-439.5 L -9.61845,-439.768 L -9.56821,-440.031 L -9.48534,-440.286 L -9.37117,-440.529 L -9.22748,-440.755
 L -9.05655,-440.962 L -8.86108,-441.145 L -8.64413,-441.303 L -8.40915,-441.432 L -8.15984,-441.531 L -7.9001,-441.597
 L -7.63406,-441.631 L -7.36592,-441.631 L -7.09988,-441.597 L -6.84015,-441.531 L -6.59084,-441.432 L -6.35585,-441.303
 L -6.1389,-441.145 L -5.94344,-440.962 L -5.77251,-440.755 L -5.62881,-440.529 L -5.51465,-440.286 L -5.43178,-440.031
 L -5.38153,-439.768 L -5.3647,-439.5 L -5.38153,-439.232 L -5.43178,-438.969 L -5.51465,-438.714 L -5.62881,-438.471
 L -5.77251,-438.245 L -5.94344,-438.038 L -6.1389,-437.855 L -6.35585,-437.697 L -6.59084,-437.568 L -6.84015,-437.469
 L -7.09988,-437.403 L -7.36592,-437.369 z
M 7.36592,-332.369 L 7.09988,-332.403 L 6.84015,-332.469 L 6.59084,-332.568 L 6.35585,-332.697 L 6.1389,-332.855
 L 5.94344,-333.038 L 5.77251,-333.245 L 5.62881,-333.471 L 5.51465,-333.714 L 5.43178,-333.969 L 5.38153,-334.232
 L 5.3647,-334.5 L 5.38153,-334.768 L 5.43178,-335.031 L 5.51465,-335.286 L 5.62881,-335.529 L 5.77251,-335.755
 L 5.94344,-335.962 L 6.1389,-336.145 L 6.35585,-336.303 L 6.59084,-336.432 L 6.84015,-336.531 L 7.09988,-336.597
 L 7.36592,-336.631 L 7.63406,-336.631 L 7.9001,-336.597 L 8.15984,-336.531 L 8.40915,-336.432 L 8.64413,-336.303
 L 8.86108,-336.145 L 9.05655,-335.962 L 9.22748,-335.755 L 9.37117,-335.529 L 9.48534,-335.286 L 9.56821,-335.031
 L 9.61845,-334.768 L 9.63528,-334.5 L 9.61845,-334.232 L 9.56821,-333.969 L 9.48534,-333.714 L 9.37117,-333.471
 L 9.22748,-333.245 L 9.05655,-333.038 L 8.86108,-332.855 L 8.64413,-332.697 L 8.40915,-332.568 L 8.15984,-332.469
 L 7.9001,-332.403 L 7.63406,-332.369 z
M -7.63406,-332.369 L -7.9001,-332.403 L -8.15984,-332.469 L -8.40915,-332.568 L -8.64413,-332.697 L -8.86108,-332.855
 L -9.05655,-333.038 L -9.22748,-333.245 L -9.37117,-333.471 L -9.48534,-333.714 L -9.56821,-333.969 L -9.61845,-334.232
 L -9.63528,-334.5 L -9.61845,-334.768 L -9.56821,-335.031 L -9.48534,-335.286 L -9.37117,-335.529 L -9.22748,-335.755
 L -9.05655,-335.962 L -8.86108,-336.145 L -8.64413,-336.303 L -8.40915,-336.432 L -8.15984,-336.531 L -7.9001,-336.597
 L -7.63406,-336.631 L -7.36592,-336.631 L -7.09988,-336.597 L -6.84015,-336.531 L -6.59084,-336.432 L -6.35585,-336.303
 L -6.1389,-336.145 L -5.94344,-335.962 L -5.77251,-335.755 L -5.62881,-335.529 L -5.51465,-335.286 L -5.43178,-335.031
 L -5.38153,-334.768 L -5.3647,-334.5 L -5.38153,-334.232 L -5.43178,-333.969 L -5.51465,-333.714 L -5.62881,-333.471
 L -5.77251,-333.245 L -5.94344,-333.038 L -6.1389,-332.855 L -6.35585,-332.697 L -6.59084,-332.568 L -6.84015,-332.469
 L -7.09988,-332.403 L -7.36592,-332.369 z
" stroke="black" fill="lightgray" stroke-width="0.5"/>
</svg>
