  0
SECTION
  2
BLOCKS
  0
ENDSEC
  0
SECTION
  2
ENTITIES
  0
LINE
  8
0
 10
3.4369
 20
288.089
 11
4.04507
 21
288.245
  0
LINE
  8
0
 10
4.04507
 20
288.245
 11
4.62889
 21
288.476
  0
LINE
  8
0
 10
4.62889
 20
288.476
 11
5.17912
 21
288.778
  0
LINE
  8
0
 10
5.17912
 20
288.778
 11
5.68712
 21
289.147
  0
LINE
  8
0
 10
5.68712
 20
289.147
 11
6.14484
 21
289.577
  0
LINE
  8
0
 10
6.14484
 20
289.577
 11
6.54507
 21
290.061
  0
LINE
  8
0
 10
6.54507
 20
290.061
 11
6.88153
 21
290.591
  0
LINE
  8
0
 10
6.88153
 20
290.591
 11
7.14888
 21
291.159
  0
LINE
  8
0
 10
7.14888
 20
291.159
 11
7.34291
 21
291.757
  0
LINE
  8
0
 10
7.34291
 20
291.757
 11
7.46057
 21
292.373
  0
LINE
  8
0
 10
7.46057
 20
292.373
 11
7.5
 21
293
  0
LINE
  8
0
 10
7.5
 20
293
 11
7.5
 21
463
  0
LINE
  8
0
 10
7.5
 20
463
 11
7.46057
 21
463.627
  0
LINE
  8
0
 10
7.46057
 20
463.627
 11
7.34291
 21
464.243
  0
LINE
  8
0
 10
7.34291
 20
464.243
 11
7.14888
 21
464.841
  0
LINE
  8
0
 10
7.14888
 20
464.841
 11
6.88153
 21
465.409
  0
LINE
  8
0
 10
6.88153
 20
465.409
 11
6.54507
 21
465.939
  0
LINE
  8
0
 10
6.54507
 20
465.939
 11
6.14484
 21
466.423
  0
LINE
  8
0
 10
6.14484
 20
466.423
 11
5.68712
 21
466.853
  0
LINE
  8
0
 10
5.68712
 20
466.853
 11
5.17912
 21
467.222
  0
LINE
  8
0
 10
5.17912
 20
467.222
 11
4.62889
 21
467.524
  0
LINE
  8
0
 10
4.62889
 20
467.524
 11
4.04507
 21
467.755
  0
LINE
  8
0
 10
4.04507
 20
467.755
 11
3.4369
 21
467.911
  0
LINE
  8
0
 10
3.4369
 20
467.911
 11
2.81395
 21
467.99
  0
LINE
  8
0
 10
2.81395
 20
467.99
 11
-2.81395
 21
467.99
  0
LINE
  8
0
 10
-2.81395
 20
467.99
 11
-3.4369
 21
467.911
  0
LINE
  8
0
 10
-3.4369
 20
467.911
 11
-4.04507
 21
467.755
  0
LINE
  8
0
 10
-4.04507
 20
467.755
 11
-4.62889
 21
467.524
  0
LINE
  8
0
 10
-4.62889
 20
467.524
 11
-5.17912
 21
467.222
  0
LINE
  8
0
 10
-5.17912
 20
467.222
 11
-5.68712
 21
466.853
  0
LINE
  8
0
 10
-5.68712
 20
466.853
 11
-6.14484
 21
466.423
  0
LINE
  8
0
 10
-6.14484
 20
466.423
 11
-6.54507
 21
465.939
  0
LINE
  8
0
 10
-6.54507
 20
465.939
 11
-6.88153
 21
465.409
  0
LINE
  8
0
 10
-6.88153
 20
465.409
 11
-7.14888
 21
464.841
  0
LINE
  8
0
 10
-7.14888
 20
464.841
 11
-7.34291
 21
464.243
  0
LINE
  8
0
 10
-7.34291
 20
464.243
 11
-7.46057
 21
463.627
  0
LINE
  8
0
 10
-7.46057
 20
463.627
 11
-7.5
 21
463
  0
LINE
  8
0
 10
-7.5
 20
463
 11
-7.5
 21
293
  0
LINE
  8
0
 10
-7.5
 20
293
 11
-7.46057
 21
292.373
  0
LINE
  8
0
 10
-7.46057
 20
292.373
 11
-7.34291
 21
291.757
  0
LINE
  8
0
 10
-7.34291
 20
291.757
 11
-7.14888
 21
291.159
  0
LINE
  8
0
 10
-7.14888
 20
291.159
 11
-6.88153
 21
290.591
  0
LINE
  8
0
 10
-6.88153
 20
290.591
 11
-6.54507
 21
290.061
  0
LINE
  8
0
 10
-6.54507
 20
290.061
 11
-6.14484
 21
289.577
  0
LINE
  8
0
 10
-6.14484
 20
289.577
 11
-5.68712
 21
289.147
  0
LINE
  8
0
 10
-5.68712
 20
289.147
 11
-5.17912
 21
288.778
  0
LINE
  8
0
 10
-5.17912
 20
288.778
 11
-4.62889
 21
288.476
  0
LINE
  8
0
 10
-4.62889
 20
288.476
 11
-4.04507
 21
288.245
  0
LINE
  8
0
 10
-4.04507
 20
288.245
 11
-3.4369
 21
288.089
  0
LINE
  8
0
 10
-3.4369
 20
288.089
 11
-2.81395
 21
288.01
  0
LINE
  8
0
 10
-2.81395
 20
288.01
 11
2.81395
 21
288.01
  0
LINE
  8
0
 10
2.81395
 20
288.01
 11
3.4369
 21
288.089
  0
LINE
  8
0
 10
3.4369
 20
99.0886
 11
4.04507
 21
99.2447
  0
LINE
  8
0
 10
4.04507
 20
99.2447
 11
4.62889
 21
99.4759
  0
LINE
  8
0
 10
4.62889
 20
99.4759
 11
5.17912
 21
99.7784
  0
LINE
  8
0
 10
5.17912
 20
99.7784
 11
5.68712
 21
100.147
  0
LINE
  8
0
 10
5.68712
 20
100.147
 11
6.14484
 21
100.577
  0
LINE
  8
0
 10
6.14484
 20
100.577
 11
6.54507
 21
101.061
  0
LINE
  8
0
 10
6.54507
 20
101.061
 11
6.88153
 21
101.591
  0
LINE
  8
0
 10
6.88153
 20
101.591
 11
7.14888
 21
102.159
  0
LINE
  8
0
 10
7.14888
 20
102.159
 11
7.34291
 21
102.757
  0
LINE
  8
0
 10
7.34291
 20
102.757
 11
7.46057
 21
103.373
  0
LINE
  8
0
 10
7.46057
 20
103.373
 11
7.5
 21
104
  0
LINE
  8
0
 10
7.5
 20
104
 11
7.5
 21
274
  0
LINE
  8
0
 10
7.5
 20
274
 11
7.46057
 21
274.627
  0
LINE
  8
0
 10
7.46057
 20
274.627
 11
7.34291
 21
275.243
  0
LINE
  8
0
 10
7.34291
 20
275.243
 11
7.14888
 21
275.841
  0
LINE
  8
0
 10
7.14888
 20
275.841
 11
6.88153
 21
276.409
  0
LINE
  8
0
 10
6.88153
 20
276.409
 11
6.54507
 21
276.939
  0
LINE
  8
0
 10
6.54507
 20
276.939
 11
6.14484
 21
277.423
  0
LINE
  8
0
 10
6.14484
 20
277.423
 11
5.68712
 21
277.853
  0
LINE
  8
0
 10
5.68712
 20
277.853
 11
5.17912
 21
278.222
  0
LINE
  8
0
 10
5.17912
 20
278.222
 11
4.62889
 21
278.524
  0
LINE
  8
0
 10
4.62889
 20
278.524
 11
4.04507
 21
278.755
  0
LINE
  8
0
 10
4.04507
 20
278.755
 11
3.4369
 21
278.911
  0
LINE
  8
0
 10
3.4369
 20
278.911
 11
2.81395
 21
278.99
  0
LINE
  8
0
 10
2.81395
 20
278.99
 11
-2.81395
 21
278.99
  0
LINE
  8
0
 10
-2.81395
 20
278.99
 11
-3.4369
 21
278.911
  0
LINE
  8
0
 10
-3.4369
 20
278.911
 11
-4.04507
 21
278.755
  0
LINE
  8
0
 10
-4.04507
 20
278.755
 11
-4.62889
 21
278.524
  0
LINE
  8
0
 10
-4.62889
 20
278.524
 11
-5.17912
 21
278.222
  0
LINE
  8
0
 10
-5.17912
 20
278.222
 11
-5.68712
 21
277.853
  0
LINE
  8
0
 10
-5.68712
 20
277.853
 11
-6.14484
 21
277.423
  0
LINE
  8
0
 10
-6.14484
 20
277.423
 11
-6.54507
 21
276.939
  0
LINE
  8
0
 10
-6.54507
 20
276.939
 11
-6.88153
 21
276.409
  0
LINE
  8
0
 10
-6.88153
 20
276.409
 11
-7.14888
 21
275.841
  0
LINE
  8
0
 10
-7.14888
 20
275.841
 11
-7.34291
 21
275.243
  0
LINE
  8
0
 10
-7.34291
 20
275.243
 11
-7.46057
 21
274.627
  0
LINE
  8
0
 10
-7.46057
 20
274.627
 11
-7.5
 21
274
  0
LINE
  8
0
 10
-7.5
 20
274
 11
-7.5
 21
104
  0
LINE
  8
0
 10
-7.5
 20
104
 11
-7.46057
 21
103.373
  0
LINE
  8
0
 10
-7.46057
 20
103.373
 11
-7.34291
 21
102.757
  0
LINE
  8
0
 10
-7.34291
 20
102.757
 11
-7.14888
 21
102.159
  0
LINE
  8
0
 10
-7.14888
 20
102.159
 11
-6.88153
 21
101.591
  0
LINE
  8
0
 10
-6.88153
 20
101.591
 11
-6.54507
 21
101.061
  0
LINE
  8
0
 10
-6.54507
 20
101.061
 11
-6.14484
 21
100.577
  0
LINE
  8
0
 10
-6.14484
 20
100.577
 11
-5.68712
 21
100.147
  0
LINE
  8
0
 10
-5.68712
 20
100.147
 11
-5.17912
 21
99.7784
  0
LINE
  8
0
 10
-5.17912
 20
99.7784
 11
-4.62889
 21
99.4759
  0
LINE
  8
0
 10
-4.62889
 20
99.4759
 11
-4.04507
 21
99.2447
  0
LINE
  8
0
 10
-4.04507
 20
99.2447
 11
-3.4369
 21
99.0886
  0
LINE
  8
0
 10
-3.4369
 20
99.0886
 11
-2.81395
 21
99.0099
  0
LINE
  8
0
 10
-2.81395
 20
99.0099
 11
2.81395
 21
99.0099
  0
LINE
  8
0
 10
2.81395
 20
99.0099
 11
3.4369
 21
99.0886
  0
LINE
  8
0
 10
-0.113022
 20
269.704
 11
-0.33728
 21
269.732
  0
LINE
  8
0
 10
-0.33728
 20
269.732
 11
-0.556229
 21
269.788
  0
LINE
  8
0
 10
-0.556229
 20
269.788
 11
-0.766388
 21
269.871
  0
LINE
  8
0
 10
-0.766388
 20
269.871
 11
-0.964478
 21
269.98
  0
LINE
  8
0
 10
-0.964478
 20
269.98
 11
-1.14735
 21
270.113
  0
LINE
  8
0
 10
-1.14735
 20
270.113
 11
-1.31213
 21
270.268
  0
LINE
  8
0
 10
-1.31213
 20
270.268
 11
-1.45622
 21
270.442
  0
LINE
  8
0
 10
-1.45622
 20
270.442
 11
-1.57735
 21
270.633
  0
LINE
  8
0
 10
-1.57735
 20
270.633
 11
-1.67358
 21
270.837
  0
LINE
  8
0
 10
-1.67358
 20
270.837
 11
-1.74344
 21
271.052
  0
LINE
  8
0
 10
-1.74344
 20
271.052
 11
-1.7858
 21
271.274
  0
LINE
  8
0
 10
-1.7858
 20
271.274
 11
-1.79999
 21
271.5
  0
LINE
  8
0
 10
-1.79999
 20
271.5
 11
-1.7858
 21
271.726
  0
LINE
  8
0
 10
-1.7858
 20
271.726
 11
-1.74344
 21
271.948
  0
LINE
  8
0
 10
-1.74344
 20
271.948
 11
-1.67358
 21
272.163
  0
LINE
  8
0
 10
-1.67358
 20
272.163
 11
-1.57735
 21
272.367
  0
LINE
  8
0
 10
-1.57735
 20
272.367
 11
-1.45622
 21
272.558
  0
LINE
  8
0
 10
-1.45622
 20
272.558
 11
-1.31213
 21
272.732
  0
LINE
  8
0
 10
-1.31213
 20
272.732
 11
-1.14735
 21
272.887
  0
LINE
  8
0
 10
-1.14735
 20
272.887
 11
-0.964478
 21
273.02
  0
LINE
  8
0
 10
-0.964478
 20
273.02
 11
-0.766388
 21
273.129
  0
LINE
  8
0
 10
-0.766388
 20
273.129
 11
-0.556229
 21
273.212
  0
LINE
  8
0
 10
-0.556229
 20
273.212
 11
-0.33728
 21
273.268
  0
LINE
  8
0
 10
-0.33728
 20
273.268
 11
-0.113022
 21
273.296
  0
LINE
  8
0
 10
-0.113022
 20
273.296
 11
0.113022
 21
273.296
  0
LINE
  8
0
 10
0.113022
 20
273.296
 11
0.33728
 21
273.268
  0
LINE
  8
0
 10
0.33728
 20
273.268
 11
0.556229
 21
273.212
  0
LINE
  8
0
 10
0.556229
 20
273.212
 11
0.766388
 21
273.129
  0
LINE
  8
0
 10
0.766388
 20
273.129
 11
0.964478
 21
273.02
  0
LINE
  8
0
 10
0.964478
 20
273.02
 11
1.14735
 21
272.887
  0
LINE
  8
0
 10
1.14735
 20
272.887
 11
1.31213
 21
272.732
  0
LINE
  8
0
 10
1.31213
 20
272.732
 11
1.45622
 21
272.558
  0
LINE
  8
0
 10
1.45622
 20
272.558
 11
1.57735
 21
272.367
  0
LINE
  8
0
 10
1.57735
 20
272.367
 11
1.67358
 21
272.163
  0
LINE
  8
0
 10
1.67358
 20
272.163
 11
1.74344
 21
271.948
  0
LINE
  8
0
 10
1.74344
 20
271.948
 11
1.7858
 21
271.726
  0
LINE
  8
0
 10
1.7858
 20
271.726
 11
1.79999
 21
271.5
  0
LINE
  8
0
 10
1.79999
 20
271.5
 11
1.7858
 21
271.274
  0
LINE
  8
0
 10
1.7858
 20
271.274
 11
1.74344
 21
271.052
  0
LINE
  8
0
 10
1.74344
 20
271.052
 11
1.67358
 21
270.837
  0
LINE
  8
0
 10
1.67358
 20
270.837
 11
1.57735
 21
270.633
  0
LINE
  8
0
 10
1.57735
 20
270.633
 11
1.45622
 21
270.442
  0
LINE
  8
0
 10
1.45622
 20
270.442
 11
1.31213
 21
270.268
  0
LINE
  8
0
 10
1.31213
 20
270.268
 11
1.14735
 21
270.113
  0
LINE
  8
0
 10
1.14735
 20
270.113
 11
0.964478
 21
269.98
  0
LINE
  8
0
 10
0.964478
 20
269.98
 11
0.766388
 21
269.871
  0
LINE
  8
0
 10
0.766388
 20
269.871
 11
0.556229
 21
269.788
  0
LINE
  8
0
 10
0.556229
 20
269.788
 11
0.33728
 21
269.732
  0
LINE
  8
0
 10
0.33728
 20
269.732
 11
0.113022
 21
269.704
  0
LINE
  8
0
 10
0.113022
 20
269.704
 11
-0.113022
 21
269.704
  0
LINE
  8
0
 10
-0.113022
 20
104.704
 11
-0.33728
 21
104.732
  0
LINE
  8
0
 10
-0.33728
 20
104.732
 11
-0.556229
 21
104.788
  0
LINE
  8
0
 10
-0.556229
 20
104.788
 11
-0.766388
 21
104.871
  0
LINE
  8
0
 10
-0.766388
 20
104.871
 11
-0.964478
 21
104.98
  0
LINE
  8
0
 10
-0.964478
 20
104.98
 11
-1.14735
 21
105.113
  0
LINE
  8
0
 10
-1.14735
 20
105.113
 11
-1.31213
 21
105.268
  0
LINE
  8
0
 10
-1.31213
 20
105.268
 11
-1.45622
 21
105.442
  0
LINE
  8
0
 10
-1.45622
 20
105.442
 11
-1.57735
 21
105.633
  0
LINE
  8
0
 10
-1.57735
 20
105.633
 11
-1.67358
 21
105.837
  0
LINE
  8
0
 10
-1.67358
 20
105.837
 11
-1.74344
 21
106.052
  0
LINE
  8
0
 10
-1.74344
 20
106.052
 11
-1.7858
 21
106.274
  0
LINE
  8
0
 10
-1.7858
 20
106.274
 11
-1.79999
 21
106.5
  0
LINE
  8
0
 10
-1.79999
 20
106.5
 11
-1.7858
 21
106.726
  0
LINE
  8
0
 10
-1.7858
 20
106.726
 11
-1.74344
 21
106.948
  0
LINE
  8
0
 10
-1.74344
 20
106.948
 11
-1.67358
 21
107.163
  0
LINE
  8
0
 10
-1.67358
 20
107.163
 11
-1.57735
 21
107.367
  0
LINE
  8
0
 10
-1.57735
 20
107.367
 11
-1.45622
 21
107.558
  0
LINE
  8
0
 10
-1.45622
 20
107.558
 11
-1.31213
 21
107.732
  0
LINE
  8
0
 10
-1.31213
 20
107.732
 11
-1.14735
 21
107.887
  0
LINE
  8
0
 10
-1.14735
 20
107.887
 11
-0.964478
 21
108.02
  0
LINE
  8
0
 10
-0.964478
 20
108.02
 11
-0.766388
 21
108.129
  0
LINE
  8
0
 10
-0.766388
 20
108.129
 11
-0.556229
 21
108.212
  0
LINE
  8
0
 10
-0.556229
 20
108.212
 11
-0.33728
 21
108.268
  0
LINE
  8
0
 10
-0.33728
 20
108.268
 11
-0.113022
 21
108.296
  0
LINE
  8
0
 10
-0.113022
 20
108.296
 11
0.113022
 21
108.296
  0
LINE
  8
0
 10
0.113022
 20
108.296
 11
0.33728
 21
108.268
  0
LINE
  8
0
 10
0.33728
 20
108.268
 11
0.556229
 21
108.212
  0
LINE
  8
0
 10
0.556229
 20
108.212
 11
0.766388
 21
108.129
  0
LINE
  8
0
 10
0.766388
 20
108.129
 11
0.964478
 21
108.02
  0
LINE
  8
0
 10
0.964478
 20
108.02
 11
1.14735
 21
107.887
  0
LINE
  8
0
 10
1.14735
 20
107.887
 11
1.31213
 21
107.732
  0
LINE
  8
0
 10
1.31213
 20
107.732
 11
1.45622
 21
107.558
  0
LINE
  8
0
 10
1.45622
 20
107.558
 11
1.57735
 21
107.367
  0
LINE
  8
0
 10
1.57735
 20
107.367
 11
1.67358
 21
107.163
  0
LINE
  8
0
 10
1.67358
 20
107.163
 11
1.74344
 21
106.948
  0
LINE
  8
0
 10
1.74344
 20
106.948
 11
1.7858
 21
106.726
  0
LINE
  8
0
 10
1.7858
 20
106.726
 11
1.79999
 21
106.5
  0
LINE
  8
0
 10
1.79999
 20
106.5
 11
1.7858
 21
106.274
  0
LINE
  8
0
 10
1.7858
 20
106.274
 11
1.74344
 21
106.052
  0
LINE
  8
0
 10
1.74344
 20
106.052
 11
1.67358
 21
105.837
  0
LINE
  8
0
 10
1.67358
 20
105.837
 11
1.57735
 21
105.633
  0
LINE
  8
0
 10
1.57735
 20
105.633
 11
1.45622
 21
105.442
  0
LINE
  8
0
 10
1.45622
 20
105.442
 11
1.31213
 21
105.268
  0
LINE
  8
0
 10
1.31213
 20
105.268
 11
1.14735
 21
105.113
  0
LINE
  8
0
 10
1.14735
 20
105.113
 11
0.964478
 21
104.98
  0
LINE
  8
0
 10
0.964478
 20
104.98
 11
0.766388
 21
104.871
  0
LINE
  8
0
 10
0.766388
 20
104.871
 11
0.556229
 21
104.788
  0
LINE
  8
0
 10
0.556229
 20
104.788
 11
0.33728
 21
104.732
  0
LINE
  8
0
 10
0.33728
 20
104.732
 11
0.113022
 21
104.704
  0
LINE
  8
0
 10
0.113022
 20
104.704
 11
-0.113022
 21
104.704
  0
ENDSEC
  0
SECTION
  2
OBJECTS
  0
DICTIONARY
  0
ENDSEC
  0
EOF
