<?xml version="1.0" standalone="no"?>
<!DOCTYPE svg PUBLIC "-//W3C//DTD SVG 1.1//EN" "http://www.w3.org/Graphics/SVG/1.1/DTD/svg11.dtd">
<svg width="16mm" height="198mm" viewBox="-8 -375 16 198" xmlns="http://www.w3.org/2000/svg" version="1.1">
<title>OpenSCAD Model</title>
<path d="
M 3.4369,-315.089 L 4.04507,-315.245 L 4.62889,-315.476 L 5.17912,-315.778 L 5.68712,-316.147 L 6.14484,-316.577
 L 6.54507,-317.061 L 6.88153,-317.591 L 7.14888,-318.159 L 7.34291,-318.757 L 7.46057,-319.373 L 7.5,-320
 L 7.5,-370 L 7.46057,-370.627 L 7.34291,-371.243 L 7.14888,-371.841 L 6.88153,-372.409 L 6.54507,-372.939
 L 6.14484,-373.423 L 5.68712,-373.853 L 5.17912,-374.222 L 4.62889,-374.524 L 4.04507,-374.755 L 3.4369,-374.911
 L 2.81395,-374.99 L -2.81395,-374.99 L -3.4369,-374.911 L -4.04507,-374.755 L -4.62889,-374.524 L -5.17912,-374.222
 L -5.68712,-373.853 L -6.14484,-373.423 L -6.54507,-372.939 L -6.88153,-372.409 L -7.14888,-371.841 L -7.34291,-371.243
 L -7.46057,-370.627 L -7.5,-370 L -7.5,-320 L -7.46057,-319.373 L -7.34291,-318.757 L -7.14888,-318.159
 L -6.88153,-317.591 L -6.54507,-317.061 L -6.14484,-316.577 L -5.68712,-316.147 L -5.17912,-315.778 L -4.62889,-315.476
 L -4.04507,-315.245 L -3.4369,-315.089 L -2.81395,-315.01 L 2.81395,-315.01 z
M -2.25116,-316.508 L -2.74951,-316.571 L -3.23605,-316.696 L -3.70311,-316.881 L -4.1433,-317.123 L -4.54968,-317.418
 L -4.91586,-317.762 L -5.23605,-318.149 L -5.50522,-318.573 L -5.7191,-319.028 L -5.87433,-319.505 L -5.96844,-319.999
 L -6,-320.5 L -6,-369.5 L -5.96844,-370.001 L -5.87433,-370.495 L -5.7191,-370.972 L -5.50522,-371.427
 L -5.23605,-371.851 L -4.91586,-372.238 L -4.54968,-372.582 L -4.1433,-372.877 L -3.70311,-373.119 L -3.23605,-373.304
 L -2.74951,-373.429 L -2.25116,-373.492 L 2.25116,-373.492 L 2.74951,-373.429 L 3.23605,-373.304 L 3.70311,-373.119
 L 4.1433,-372.877 L 4.54968,-372.582 L 4.91586,-372.238 L 5.23605,-371.851 L 5.50522,-371.427 L 5.7191,-370.972
 L 5.87433,-370.495 L 5.96844,-370.001 L 6,-369.5 L 6,-320.5 L 5.96844,-319.999 L 5.87433,-319.505
 L 5.7191,-319.028 L 5.50522,-318.573 L 5.23605,-318.149 L 4.91586,-317.762 L 4.54968,-317.418 L 4.1433,-317.123
 L 3.70311,-316.881 L 3.23605,-316.696 L 2.74951,-316.571 L 2.25116,-316.508 z
M 3.4369,-246.089 L 4.04507,-246.245 L 4.62889,-246.476 L 5.17912,-246.778 L 5.68712,-247.147 L 6.14484,-247.577
 L 6.54507,-248.061 L 6.88153,-248.591 L 7.14888,-249.159 L 7.34291,-249.757 L 7.46057,-250.373 L 7.5,-251
 L 7.5,-301 L 7.46057,-301.627 L 7.34291,-302.243 L 7.14888,-302.841 L 6.88153,-303.409 L 6.54507,-303.939
 L 6.14484,-304.423 L 5.68712,-304.853 L 5.17912,-305.222 L 4.62889,-305.524 L 4.04507,-305.755 L 3.4369,-305.911
 L 2.81395,-305.99 L -2.81395,-305.99 L -3.4369,-305.911 L -4.04507,-305.755 L -4.62889,-305.524 L -5.17912,-305.222
 L -5.68712,-304.853 L -6.14484,-304.423 L -6.54507,-303.939 L -6.88153,-303.409 L -7.14888,-302.841 L -7.34291,-302.243
 L -7.46057,-301.627 L -7.5,-301 L -7.5,-251 L -7.46057,-250.373 L -7.34291,-249.757 L -7.14888,-249.159
 L -6.88153,-248.591 L -6.54507,-248.061 L -6.14484,-247.577 L -5.68712,-247.147 L -5.17912,-246.778 L -4.62889,-246.476
 L -4.04507,-246.245 L -3.4369,-246.089 L -2.81395,-246.01 L 2.81395,-246.01 z
M -2.19545,-248.393 L -2.5833,-248.442 L -2.96194,-248.539 L -3.32541,-248.683 L -3.66798,-248.872 L -3.98424,-249.101
 L -4.26921,-249.369 L -4.5184,-249.67 L -4.72786,-250 L -4.89432,-250.354 L -5.01512,-250.726 L -5.08836,-251.11
 L -5.11292,-251.5 L -5.11292,-300.5 L -5.08836,-300.89 L -5.01512,-301.274 L -4.89432,-301.646 L -4.72786,-302
 L -4.5184,-302.33 L -4.26921,-302.631 L -3.98424,-302.899 L -3.66798,-303.128 L -3.32541,-303.317 L -2.96194,-303.461
 L -2.5833,-303.558 L -2.19545,-303.607 L 2.19545,-303.607 L 2.5833,-303.558 L 2.96194,-303.461 L 3.32541,-303.317
 L 3.66798,-303.128 L 3.98424,-302.899 L 4.26921,-302.631 L 4.5184,-302.33 L 4.72786,-302 L 4.89432,-301.646
 L 5.01512,-301.274 L 5.08836,-300.89 L 5.11292,-300.5 L 5.11292,-251.5 L 5.08836,-251.11 L 5.01512,-250.726
 L 4.89432,-250.354 L 4.72786,-250 L 4.5184,-249.67 L 4.26921,-249.369 L 3.98424,-249.101 L 3.66798,-248.872
 L 3.32541,-248.683 L 2.96194,-248.539 L 2.5833,-248.442 L 2.19545,-248.393 z
M 3.4369,-177.089 L 4.04507,-177.245 L 4.62889,-177.476 L 5.17912,-177.778 L 5.68712,-178.147 L 6.14484,-178.577
 L 6.54507,-179.061 L 6.88153,-179.591 L 7.14888,-180.159 L 7.34291,-180.757 L 7.46057,-181.373 L 7.5,-182
 L 7.5,-232 L 7.46057,-232.627 L 7.34291,-233.243 L 7.14888,-233.841 L 6.88153,-234.409 L 6.54507,-234.939
 L 6.14484,-235.423 L 5.68712,-235.853 L 5.17912,-236.222 L 4.62889,-236.524 L 4.04507,-236.755 L 3.4369,-236.911
 L 2.81395,-236.99 L -2.81395,-236.99 L -3.4369,-236.911 L -4.04507,-236.755 L -4.62889,-236.524 L -5.17912,-236.222
 L -5.68712,-235.853 L -6.14484,-235.423 L -6.54507,-234.939 L -6.88153,-234.409 L -7.14888,-233.841 L -7.34291,-233.243
 L -7.46057,-232.627 L -7.5,-232 L -7.5,-182 L -7.46057,-181.373 L -7.34291,-180.757 L -7.14888,-180.159
 L -6.88153,-179.591 L -6.54507,-179.061 L -6.14484,-178.577 L -5.68712,-178.147 L -5.17912,-177.778 L -4.62889,-177.476
 L -4.04507,-177.245 L -3.4369,-177.089 L -2.81395,-177.01 L 2.81395,-177.01 z
M -0.134064,-227.369 L -0.400101,-227.403 L -0.659836,-227.469 L -0.909149,-227.568 L -1.14413,-227.697 L -1.36108,-227.855
 L -1.55655,-228.038 L -1.72748,-228.245 L -1.87117,-228.471 L -1.98534,-228.714 L -2.06821,-228.969 L -2.11845,-229.232
 L -2.13528,-229.5 L -2.11845,-229.768 L -2.06821,-230.031 L -1.98534,-230.286 L -1.87117,-230.529 L -1.72748,-230.755
 L -1.55655,-230.962 L -1.36108,-231.145 L -1.14413,-231.303 L -0.909149,-231.432 L -0.659836,-231.531 L -0.400101,-231.597
 L -0.134064,-231.631 L 0.134064,-231.631 L 0.400101,-231.597 L 0.659836,-231.531 L 0.909149,-231.432 L 1.14413,-231.303
 L 1.36108,-231.145 L 1.55655,-230.962 L 1.72748,-230.755 L 1.87117,-230.529 L 1.98534,-230.286 L 2.06821,-230.031
 L 2.11845,-229.768 L 2.13528,-229.5 L 2.11845,-229.232 L 2.06821,-228.969 L 1.98534,-228.714 L 1.87117,-228.471
 L 1.72748,-228.245 L 1.55655,-228.038 L 1.36108,-227.855 L 1.14413,-227.697 L 0.909149,-227.568 L 0.659836,-227.469
 L 0.400101,-227.403 L 0.134064,-227.369 z
M -0.134064,-182.369 L -0.400101,-182.403 L -0.659836,-182.469 L -0.909149,-182.568 L -1.14413,-182.697 L -1.36108,-182.855
 L -1.55655,-183.038 L -1.72748,-183.245 L -1.87117,-183.471 L -1.98534,-183.714 L -2.06821,-183.969 L -2.11845,-184.232
 L -2.13528,-184.5 L -2.11845,-184.768 L -2.06821,-185.031 L -1.98534,-185.286 L -1.87117,-185.529 L -1.72748,-185.755
 L -1.55655,-185.962 L -1.36108,-186.145 L -1.14413,-186.303 L -0.909149,-186.432 L -0.659836,-186.531 L -0.400101,-186.597
 L -0.134064,-186.631 L 0.134064,-186.631 L 0.400101,-186.597 L 0.659836,-186.531 L 0.909149,-186.432 L 1.14413,-186.303
 L 1.36108,-186.145 L 1.55655,-185.962 L 1.72748,-185.755 L 1.87117,-185.529 L 1.98534,-185.286 L 2.06821,-185.031
 L 2.11845,-184.768 L 2.13528,-184.5 L 2.11845,-184.232 L 2.06821,-183.969 L 1.98534,-183.714 L 1.87117,-183.471
 L 1.72748,-183.245 L 1.55655,-183.038 L 1.36108,-182.855 L 1.14413,-182.697 L 0.909149,-182.568 L 0.659836,-182.469
 L 0.400101,-182.403 L 0.134064,-182.369 z
" stroke="black" fill="lightgray" stroke-width="0.5"/>
</svg>
