<?xml version="1.0" standalone="no"?>
<!DOCTYPE svg PUBLIC "-//W3C//DTD SVG 1.1//EN" "http://www.w3.org/Graphics/SVG/1.1/DTD/svg11.dtd">
<svg width="76mm" height="336mm" viewBox="-38 -651 76 336" xmlns="http://www.w3.org/2000/svg" version="1.1">
<title>OpenSCAD Model</title>
<path d="
M 33.4369,-591.089 L 34.0451,-591.245 L 34.6289,-591.476 L 35.1791,-591.778 L 35.6871,-592.147 L 36.1448,-592.577
 L 36.5451,-593.061 L 36.8815,-593.591 L 37.1489,-594.159 L 37.3429,-594.757 L 37.4606,-595.373 L 37.5,-596
 L 37.5,-646 L 37.4606,-646.627 L 37.3429,-647.243 L 37.1489,-647.841 L 36.8815,-648.409 L 36.5451,-648.939
 L 36.1448,-649.423 L 35.6871,-649.853 L 35.1791,-650.222 L 34.6289,-650.524 L 34.0451,-650.755 L 33.4369,-650.911
 L 32.8139,-650.99 L -32.8139,-650.99 L -33.4369,-650.911 L -34.0451,-650.755 L -34.6289,-650.524 L -35.1791,-650.222
 L -35.6871,-649.853 L -36.1448,-649.423 L -36.5451,-648.939 L -36.8815,-648.409 L -37.1489,-647.841 L -37.3429,-647.243
 L -37.4606,-646.627 L -37.5,-646 L -37.5,-596 L -37.4606,-595.373 L -37.3429,-594.757 L -37.1489,-594.159
 L -36.8815,-593.591 L -36.5451,-593.061 L -36.1448,-592.577 L -35.6871,-592.147 L -35.1791,-591.778 L -34.6289,-591.476
 L -34.0451,-591.245 L -33.4369,-591.089 L -32.8139,-591.01 L 32.8139,-591.01 z
M -32.5482,-591.509 L -33.1401,-591.584 L -33.7178,-591.732 L -34.2724,-591.952 L -34.7952,-592.239 L -35.2778,-592.59
 L -35.7126,-592.998 L -36.0928,-593.458 L -36.4124,-593.962 L -36.6664,-594.501 L -36.8508,-595.069 L -36.9625,-595.655
 L -37,-596.25 L -37,-645.75 L -36.9625,-646.345 L -36.8508,-646.931 L -36.6664,-647.499 L -36.4124,-648.038
 L -36.0928,-648.542 L -35.7126,-649.002 L -35.2778,-649.41 L -34.7952,-649.761 L -34.2724,-650.048 L -33.7178,-650.268
 L -33.1401,-650.416 L -32.5482,-650.491 L 32.5482,-650.491 L 33.1401,-650.416 L 33.7178,-650.268 L 34.2724,-650.048
 L 34.7952,-649.761 L 35.2778,-649.41 L 35.7126,-649.002 L 36.0928,-648.542 L 36.4124,-648.038 L 36.6664,-647.499
 L 36.8508,-646.931 L 36.9625,-646.345 L 37,-645.75 L 37,-596.25 L 36.9625,-595.655 L 36.8508,-595.069
 L 36.6664,-594.501 L 36.4124,-593.962 L 36.0928,-593.458 L 35.7126,-592.998 L 35.2778,-592.59 L 34.7952,-592.239
 L 34.2724,-591.952 L 33.7178,-591.732 L 33.1401,-591.584 L 32.5482,-591.509 z
M 33.4369,-522.089 L 34.0451,-522.245 L 34.6289,-522.476 L 35.1791,-522.778 L 35.6871,-523.147 L 36.1448,-523.577
 L 36.5451,-524.061 L 36.8815,-524.591 L 37.1489,-525.159 L 37.3429,-525.757 L 37.4606,-526.373 L 37.5,-527
 L 37.5,-577 L 37.4606,-577.627 L 37.3429,-578.243 L 37.1489,-578.841 L 36.8815,-579.409 L 36.5451,-579.939
 L 36.1448,-580.423 L 35.6871,-580.853 L 35.1791,-581.222 L 34.6289,-581.524 L 34.0451,-581.755 L 33.4369,-581.911
 L 32.8139,-581.99 L -32.8139,-581.99 L -33.4369,-581.911 L -34.0451,-581.755 L -34.6289,-581.524 L -35.1791,-581.222
 L -35.6871,-580.853 L -36.1448,-580.423 L -36.5451,-579.939 L -36.8815,-579.409 L -37.1489,-578.841 L -37.3429,-578.243
 L -37.4606,-577.627 L -37.5,-577 L -37.5,-527 L -37.4606,-526.373 L -37.3429,-525.757 L -37.1489,-525.159
 L -36.8815,-524.591 L -36.5451,-524.061 L -36.1448,-523.577 L -35.6871,-523.147 L -35.1791,-522.778 L -34.6289,-522.476
 L -34.0451,-522.245 L -33.4369,-522.089 L -32.8139,-522.01 L 32.8139,-522.01 z
M -32.5482,-522.509 L -33.1401,-522.584 L -33.7178,-522.732 L -34.2724,-522.952 L -34.7952,-523.239 L -35.2778,-523.59
 L -35.7126,-523.998 L -36.0928,-524.458 L -36.4124,-524.962 L -36.6664,-525.501 L -36.8508,-526.069 L -36.9625,-526.655
 L -37,-527.25 L -37,-576.75 L -36.9625,-577.345 L -36.8508,-577.931 L -36.6664,-578.499 L -36.4124,-579.038
 L -36.0928,-579.542 L -35.7126,-580.002 L -35.2778,-580.41 L -34.7952,-580.761 L -34.2724,-581.048 L -33.7178,-581.268
 L -33.1401,-581.416 L -32.5482,-581.491 L 32.5482,-581.491 L 33.1401,-581.416 L 33.7178,-581.268 L 34.2724,-581.048
 L 34.7952,-580.761 L 35.2778,-580.41 L 35.7126,-580.002 L 36.0928,-579.542 L 36.4124,-579.038 L 36.6664,-578.499
 L 36.8508,-577.931 L 36.9625,-577.345 L 37,-576.75 L 37,-527.25 L 36.9625,-526.655 L 36.8508,-526.069
 L 36.6664,-525.501 L 36.4124,-524.962 L 36.0928,-524.458 L 35.7126,-523.998 L 35.2778,-523.59 L 34.7952,-523.239
 L 34.2724,-522.952 L 33.7178,-522.732 L 33.1401,-522.584 L 32.5482,-522.509 z
M 33.4369,-453.089 L 34.0451,-453.245 L 34.6289,-453.476 L 35.1791,-453.778 L 35.6871,-454.147 L 36.1448,-454.577
 L 36.5451,-455.061 L 36.8815,-455.591 L 37.1489,-456.159 L 37.3429,-456.757 L 37.4606,-457.373 L 37.5,-458
 L 37.5,-508 L 37.4606,-508.627 L 37.3429,-509.243 L 37.1489,-509.841 L 36.8815,-510.409 L 36.5451,-510.939
 L 36.1448,-511.423 L 35.6871,-511.853 L 35.1791,-512.222 L 34.6289,-512.524 L 34.0451,-512.755 L 33.4369,-512.911
 L 32.8139,-512.99 L -32.8139,-512.99 L -33.4369,-512.911 L -34.0451,-512.755 L -34.6289,-512.524 L -35.1791,-512.222
 L -35.6871,-511.853 L -36.1448,-511.423 L -36.5451,-510.939 L -36.8815,-510.409 L -37.1489,-509.841 L -37.3429,-509.243
 L -37.4606,-508.627 L -37.5,-508 L -37.5,-458 L -37.4606,-457.373 L -37.3429,-456.757 L -37.1489,-456.159
 L -36.8815,-455.591 L -36.5451,-455.061 L -36.1448,-454.577 L -35.6871,-454.147 L -35.1791,-453.778 L -34.6289,-453.476
 L -34.0451,-453.245 L -33.4369,-453.089 L -32.8139,-453.01 L 32.8139,-453.01 z
M -32.5482,-453.509 L -33.1401,-453.584 L -33.7178,-453.732 L -34.2724,-453.952 L -34.7952,-454.239 L -35.2778,-454.59
 L -35.7126,-454.998 L -36.0928,-455.458 L -36.4124,-455.962 L -36.6664,-456.501 L -36.8508,-457.069 L -36.9625,-457.655
 L -37,-458.25 L -37,-507.75 L -36.9625,-508.345 L -36.8508,-508.931 L -36.6664,-509.499 L -36.4124,-510.038
 L -36.0928,-510.542 L -35.7126,-511.002 L -35.2778,-511.41 L -34.7952,-511.761 L -34.2724,-512.048 L -33.7178,-512.268
 L -33.1401,-512.416 L -32.5482,-512.491 L 32.5482,-512.491 L 33.1401,-512.416 L 33.7178,-512.268 L 34.2724,-512.048
 L 34.7952,-511.761 L 35.2778,-511.41 L 35.7126,-511.002 L 36.0928,-510.542 L 36.4124,-510.038 L 36.6664,-509.499
 L 36.8508,-508.931 L 36.9625,-508.345 L 37,-507.75 L 37,-458.25 L 36.9625,-457.655 L 36.8508,-457.069
 L 36.6664,-456.501 L 36.4124,-455.962 L 36.0928,-455.458 L 35.7126,-454.998 L 35.2778,-454.59 L 34.7952,-454.239
 L 34.2724,-453.952 L 33.7178,-453.732 L 33.1401,-453.584 L 32.5482,-453.509 z
M 33.4369,-384.089 L 34.0451,-384.245 L 34.6289,-384.476 L 35.1791,-384.778 L 35.6871,-385.147 L 36.1448,-385.577
 L 36.5451,-386.061 L 36.8815,-386.591 L 37.1489,-387.159 L 37.3429,-387.757 L 37.4606,-388.373 L 37.5,-389
 L 37.5,-439 L 37.4606,-439.627 L 37.3429,-440.243 L 37.1489,-440.841 L 36.8815,-441.409 L 36.5451,-441.939
 L 36.1448,-442.423 L 35.6871,-442.853 L 35.1791,-443.222 L 34.6289,-443.524 L 34.0451,-443.755 L 33.4369,-443.911
 L 32.8139,-443.99 L -32.8139,-443.99 L -33.4369,-443.911 L -34.0451,-443.755 L -34.6289,-443.524 L -35.1791,-443.222
 L -35.6871,-442.853 L -36.1448,-442.423 L -36.5451,-441.939 L -36.8815,-441.409 L -37.1489,-440.841 L -37.3429,-440.243
 L -37.4606,-439.627 L -37.5,-439 L -37.5,-389 L -37.4606,-388.373 L -37.3429,-387.757 L -37.1489,-387.159
 L -36.8815,-386.591 L -36.5451,-386.061 L -36.1448,-385.577 L -35.6871,-385.147 L -35.1791,-384.778 L -34.6289,-384.476
 L -34.0451,-384.245 L -33.4369,-384.089 L -32.8139,-384.01 L 32.8139,-384.01 z
M -32.5375,-384.681 L -33.1079,-384.753 L -33.6648,-384.896 L -34.1994,-385.107 L -34.7032,-385.384 L -35.1684,-385.722
 L -35.5875,-386.116 L -35.954,-386.559 L -36.2621,-387.044 L -36.5069,-387.565 L -36.6846,-388.111 L -36.7923,-388.676
 L -36.8284,-389.25 L -36.8284,-438.75 L -36.7923,-439.324 L -36.6846,-439.889 L -36.5069,-440.435 L -36.2621,-440.956
 L -35.954,-441.441 L -35.5875,-441.884 L -35.1684,-442.278 L -34.7032,-442.616 L -34.1994,-442.893 L -33.6648,-443.104
 L -33.1079,-443.247 L -32.5375,-443.319 L 32.5375,-443.319 L 33.1079,-443.247 L 33.6648,-443.104 L 34.1994,-442.893
 L 34.7032,-442.616 L 35.1684,-442.278 L 35.5875,-441.884 L 35.954,-441.441 L 36.2621,-440.956 L 36.5069,-440.435
 L 36.6846,-439.889 L 36.7923,-439.324 L 36.8284,-438.75 L 36.8284,-389.25 L 36.7923,-388.676 L 36.6846,-388.111
 L 36.5069,-387.565 L 36.2621,-387.044 L 35.954,-386.559 L 35.5875,-386.116 L 35.1684,-385.722 L 34.7032,-385.384
 L 34.1994,-385.107 L 33.6648,-384.896 L 33.1079,-384.753 L 32.5375,-384.681 z
M 33.4369,-315.089 L 34.0451,-315.245 L 34.6289,-315.476 L 35.1791,-315.778 L 35.6871,-316.147 L 36.1448,-316.577
 L 36.5451,-317.061 L 36.8815,-317.591 L 37.1489,-318.159 L 37.3429,-318.757 L 37.4606,-319.373 L 37.5,-320
 L 37.5,-370 L 37.4606,-370.627 L 37.3429,-371.243 L 37.1489,-371.841 L 36.8815,-372.409 L 36.5451,-372.939
 L 36.1448,-373.423 L 35.6871,-373.853 L 35.1791,-374.222 L 34.6289,-374.524 L 34.0451,-374.755 L 33.4369,-374.911
 L 32.8139,-374.99 L -32.8139,-374.99 L -33.4369,-374.911 L -34.0451,-374.755 L -34.6289,-374.524 L -35.1791,-374.222
 L -35.6871,-373.853 L -36.1448,-373.423 L -36.5451,-372.939 L -36.8815,-372.409 L -37.1489,-371.841 L -37.3429,-371.243
 L -37.4606,-370.627 L -37.5,-370 L -37.5,-320 L -37.4606,-319.373 L -37.3429,-318.757 L -37.1489,-318.159
 L -36.8815,-317.591 L -36.5451,-317.061 L -36.1448,-316.577 L -35.6871,-316.147 L -35.1791,-315.778 L -34.6289,-315.476
 L -34.0451,-315.245 L -33.4369,-315.089 L -32.8139,-315.01 L 32.8139,-315.01 z
M -32.3825,-318.145 L -32.6453,-318.178 L -32.9019,-318.244 L -33.1482,-318.341 L -33.3804,-318.469 L -33.5947,-318.625
 L -33.7879,-318.806 L -33.9567,-319.01 L -34.0987,-319.234 L -34.2115,-319.473 L -34.2934,-319.725 L -34.343,-319.986
 L -34.3596,-320.25 L -34.3596,-369.75 L -34.343,-370.014 L -34.2934,-370.275 L -34.2115,-370.527 L -34.0987,-370.766
 L -33.9567,-370.99 L -33.7879,-371.194 L -33.5947,-371.375 L -33.3804,-371.531 L -33.1482,-371.659 L -32.9019,-371.756
 L -32.6453,-371.822 L -32.3825,-371.855 L 32.3825,-371.855 L 32.6453,-371.822 L 32.9019,-371.756 L 33.1482,-371.659
 L 33.3804,-371.531 L 33.5947,-371.375 L 33.7879,-371.194 L 33.9567,-370.99 L 34.0987,-370.766 L 34.2115,-370.527
 L 34.2934,-370.275 L 34.343,-370.014 L 34.3596,-369.75 L 34.3596,-320.25 L 34.343,-319.986 L 34.2934,-319.725
 L 34.2115,-319.473 L 34.0987,-319.234 L 33.9567,-319.01 L 33.7879,-318.806 L 33.5947,-318.625 L 33.3804,-318.469
 L 33.1482,-318.341 L 32.9019,-318.244 L 32.6453,-318.178 L 32.3825,-318.145 z
" stroke="black" fill="lightgray" stroke-width="0.5"/>
</svg>
