<?xml version="1.0" standalone="no"?>
<!DOCTYPE svg PUBLIC "-//W3C//DTD SVG 1.1//EN" "http://www.w3.org/Graphics/SVG/1.1/DTD/svg11.dtd">
<svg width="152mm" height="186mm" viewBox="-77 -366 152 186" xmlns="http://www.w3.org/2000/svg" version="1.1">
<title>OpenSCAD Model</title>
<path d="
M -73.5,-337.441 L -73.1871,-337.147 L -72.6791,-336.778 L -72.1289,-336.476 L -71.5451,-336.245 L -70.9369,-336.089
 L -70.3139,-336.01 L 70.3139,-336.01 L 70.9369,-336.089 L 71.5451,-336.245 L 72.1289,-336.476 L 72.6791,-336.778
 L 73.1871,-337.147 L 73.6448,-337.577 L 74.0451,-338.061 L 74.3815,-338.591 L 74.6489,-339.159 L 74.8429,-339.757
 L 74.9606,-340.373 L 75,-341 L 75,-361 L 74.9606,-361.627 L 74.8429,-362.243 L 74.6489,-362.841
 L 74.3815,-363.409 L 74.0451,-363.939 L 73.6448,-364.423 L 73.1871,-364.853 L 72.6791,-365.222 L 72.1289,-365.524
 L 71.5451,-365.755 L 70.9369,-365.911 L 70.3139,-365.99 L -70.3139,-365.99 L -70.9369,-365.911 L -71.5451,-365.755
 L -72.1289,-365.524 L -72.6791,-365.222 L -73.1871,-364.853 L -73.5,-364.559 L -73.5,-365.99 L -76.5,-365.99
 L -76.5,-336.01 L -73.5,-336.01 z
M -69.7512,-337.508 L -70.2495,-337.571 L -70.7361,-337.696 L -71.2031,-337.881 L -71.6433,-338.123 L -72.0497,-338.418
 L -72.4159,-338.762 L -72.7361,-339.149 L -73.0052,-339.573 L -73.2191,-340.028 L -73.3743,-340.505 L -73.4685,-340.999
 L -73.5,-341.5 L -73.5,-360.5 L -73.4685,-361.001 L -73.3743,-361.495 L -73.2191,-361.972 L -73.0052,-362.427
 L -72.7361,-362.851 L -72.4159,-363.238 L -72.0497,-363.582 L -71.6433,-363.877 L -71.2031,-364.119 L -70.7361,-364.304
 L -70.2495,-364.429 L -69.7512,-364.492 L 69.7512,-364.492 L 70.2495,-364.429 L 70.7361,-364.304 L 71.2031,-364.119
 L 71.6433,-363.877 L 72.0497,-363.582 L 72.4159,-363.238 L 72.7361,-362.851 L 73.0052,-362.427 L 73.2191,-361.972
 L 73.3743,-361.495 L 73.4685,-361.001 L 73.5,-360.5 L 73.5,-341.5 L 73.4685,-340.999 L 73.3743,-340.505
 L 73.2191,-340.028 L 73.0052,-339.573 L 72.7361,-339.149 L 72.4159,-338.762 L 72.0497,-338.418 L 71.6433,-338.123
 L 71.2031,-337.881 L 70.7361,-337.696 L 70.2495,-337.571 L 69.7512,-337.508 z
M -73.5,-298.441 L -73.1871,-298.147 L -72.6791,-297.778 L -72.1289,-297.476 L -71.5451,-297.245 L -70.9369,-297.089
 L -70.3139,-297.01 L 70.3139,-297.01 L 70.9369,-297.089 L 71.5451,-297.245 L 72.1289,-297.476 L 72.6791,-297.778
 L 73.1871,-298.147 L 73.6448,-298.577 L 74.0451,-299.061 L 74.3815,-299.591 L 74.6489,-300.159 L 74.8429,-300.757
 L 74.9606,-301.373 L 75,-302 L 75,-322 L 74.9606,-322.627 L 74.8429,-323.243 L 74.6489,-323.841
 L 74.3815,-324.409 L 74.0451,-324.939 L 73.6448,-325.423 L 73.1871,-325.853 L 72.6791,-326.222 L 72.1289,-326.524
 L 71.5451,-326.755 L 70.9369,-326.911 L 70.3139,-326.99 L -70.3139,-326.99 L -70.9369,-326.911 L -71.5451,-326.755
 L -72.1289,-326.524 L -72.6791,-326.222 L -73.1871,-325.853 L -73.5,-325.559 L -73.5,-326.99 L -76.5,-326.99
 L -76.5,-297.01 L -73.5,-297.01 z
M -69.7512,-298.508 L -70.2495,-298.571 L -70.7361,-298.696 L -71.2031,-298.881 L -71.6433,-299.123 L -72.0497,-299.418
 L -72.4159,-299.762 L -72.7361,-300.149 L -73.0052,-300.573 L -73.2191,-301.028 L -73.3743,-301.505 L -73.4685,-301.999
 L -73.5,-302.5 L -73.5,-321.5 L -73.4685,-322.001 L -73.3743,-322.495 L -73.2191,-322.972 L -73.0052,-323.427
 L -72.7361,-323.851 L -72.4159,-324.238 L -72.0497,-324.582 L -71.6433,-324.877 L -71.2031,-325.119 L -70.7361,-325.304
 L -70.2495,-325.429 L -69.7512,-325.492 L 69.7512,-325.492 L 70.2495,-325.429 L 70.7361,-325.304 L 71.2031,-325.119
 L 71.6433,-324.877 L 72.0497,-324.582 L 72.4159,-324.238 L 72.7361,-323.851 L 73.0052,-323.427 L 73.2191,-322.972
 L 73.3743,-322.495 L 73.4685,-322.001 L 73.5,-321.5 L 73.5,-302.5 L 73.4685,-301.999 L 73.3743,-301.505
 L 73.2191,-301.028 L 73.0052,-300.573 L 72.7361,-300.149 L 72.4159,-299.762 L 72.0497,-299.418 L 71.6433,-299.123
 L 71.2031,-298.881 L 70.7361,-298.696 L 70.2495,-298.571 L 69.7512,-298.508 z
M -73.5,-259.441 L -73.1871,-259.147 L -72.6791,-258.778 L -72.1289,-258.476 L -71.5451,-258.245 L -70.9369,-258.089
 L -70.3139,-258.01 L 70.3139,-258.01 L 70.9369,-258.089 L 71.5451,-258.245 L 72.1289,-258.476 L 72.6791,-258.778
 L 73.1871,-259.147 L 73.6448,-259.577 L 74.0451,-260.061 L 74.3815,-260.591 L 74.6489,-261.159 L 74.8429,-261.757
 L 74.9606,-262.373 L 75,-263 L 75,-283 L 74.9606,-283.627 L 74.8429,-284.243 L 74.6489,-284.841
 L 74.3815,-285.409 L 74.0451,-285.939 L 73.6448,-286.423 L 73.1871,-286.853 L 72.6791,-287.222 L 72.1289,-287.524
 L 71.5451,-287.755 L 70.9369,-287.911 L 70.3139,-287.99 L -70.3139,-287.99 L -70.9369,-287.911 L -71.5451,-287.755
 L -72.1289,-287.524 L -72.6791,-287.222 L -73.1871,-286.853 L -73.5,-286.559 L -73.5,-287.99 L -76.5,-287.99
 L -76.5,-258.01 L -73.5,-258.01 z
M -69.7512,-259.508 L -70.2495,-259.571 L -70.7361,-259.696 L -71.2031,-259.881 L -71.6433,-260.123 L -72.0497,-260.418
 L -72.4159,-260.762 L -72.7361,-261.149 L -73.0052,-261.573 L -73.2191,-262.028 L -73.3743,-262.505 L -73.4685,-262.999
 L -73.5,-263.5 L -73.5,-282.5 L -73.4685,-283.001 L -73.3743,-283.495 L -73.2191,-283.972 L -73.0052,-284.427
 L -72.7361,-284.851 L -72.4159,-285.238 L -72.0497,-285.582 L -71.6433,-285.877 L -71.2031,-286.119 L -70.7361,-286.304
 L -70.2495,-286.429 L -69.7512,-286.492 L 69.7512,-286.492 L 70.2495,-286.429 L 70.7361,-286.304 L 71.2031,-286.119
 L 71.6433,-285.877 L 72.0497,-285.582 L 72.4159,-285.238 L 72.7361,-284.851 L 73.0052,-284.427 L 73.2191,-283.972
 L 73.3743,-283.495 L 73.4685,-283.001 L 73.5,-282.5 L 73.5,-263.5 L 73.4685,-262.999 L 73.3743,-262.505
 L 73.2191,-262.028 L 73.0052,-261.573 L 72.7361,-261.149 L 72.4159,-260.762 L 72.0497,-260.418 L 71.6433,-260.123
 L 71.2031,-259.881 L 70.7361,-259.696 L 70.2495,-259.571 L 69.7512,-259.508 z
M 70.9369,-219.089 L 71.5451,-219.245 L 72.1289,-219.476 L 72.6791,-219.778 L 73.1871,-220.147 L 73.6448,-220.577
 L 74.0451,-221.061 L 74.3815,-221.591 L 74.6489,-222.159 L 74.8429,-222.757 L 74.9606,-223.373 L 75,-224
 L 75,-244 L 74.9606,-244.627 L 74.8429,-245.243 L 74.6489,-245.841 L 74.3815,-246.409 L 74.0451,-246.939
 L 73.6448,-247.423 L 73.1871,-247.853 L 72.6791,-248.222 L 72.1289,-248.524 L 71.5451,-248.755 L 70.9369,-248.911
 L 70.3139,-248.99 L -70.3139,-248.99 L -70.9369,-248.911 L -71.5451,-248.755 L -72.1289,-248.524 L -72.6791,-248.222
 L -73.1871,-247.853 L -73.5,-247.559 L -73.5,-248.979 L -76.5,-248.979 L -76.5,-219.021 L -73.5,-219.021
 L -73.5,-220.441 L -73.1871,-220.147 L -72.6791,-219.778 L -72.1289,-219.476 L -71.5451,-219.245 L -70.9369,-219.089
 L -70.3139,-219.01 L 70.3139,-219.01 z
M -69.6955,-221.393 L -70.0833,-221.442 L -70.4619,-221.539 L -70.8254,-221.683 L -71.168,-221.872 L -71.4843,-222.101
 L -71.7692,-222.369 L -72.0184,-222.67 L -72.2279,-223 L -72.3943,-223.354 L -72.5151,-223.726 L -72.5884,-224.11
 L -72.6129,-224.5 L -72.6129,-243.5 L -72.5884,-243.89 L -72.5151,-244.274 L -72.3943,-244.646 L -72.2279,-245
 L -72.0184,-245.33 L -71.7692,-245.631 L -71.4843,-245.899 L -71.168,-246.128 L -70.8254,-246.317 L -70.4619,-246.461
 L -70.0833,-246.558 L -69.6955,-246.607 L 69.6955,-246.607 L 70.0833,-246.558 L 70.4619,-246.461 L 70.8254,-246.317
 L 71.168,-246.128 L 71.4843,-245.899 L 71.7692,-245.631 L 72.0184,-245.33 L 72.2279,-245 L 72.3943,-244.646
 L 72.5151,-244.274 L 72.5884,-243.89 L 72.6129,-243.5 L 72.6129,-224.5 L 72.5884,-224.11 L 72.5151,-223.726
 L 72.3943,-223.354 L 72.2279,-223 L 72.0184,-222.67 L 71.7692,-222.369 L 71.4843,-222.101 L 71.168,-221.872
 L 70.8254,-221.683 L 70.4619,-221.539 L 70.0833,-221.442 L 69.6955,-221.393 z
M 70.9369,-180.089 L 71.5451,-180.245 L 72.1289,-180.476 L 72.6791,-180.778 L 73.1871,-181.147 L 73.6448,-181.577
 L 74.0451,-182.061 L 74.3815,-182.591 L 74.6489,-183.159 L 74.8429,-183.757 L 74.9606,-184.373 L 75,-185
 L 75,-205 L 74.9606,-205.627 L 74.8429,-206.243 L 74.6489,-206.841 L 74.3815,-207.409 L 74.0451,-207.939
 L 73.6448,-208.423 L 73.1871,-208.853 L 72.6791,-209.222 L 72.1289,-209.524 L 71.5451,-209.755 L 70.9369,-209.911
 L 70.3139,-209.99 L -70.3139,-209.99 L -70.9369,-209.911 L -71.5451,-209.755 L -72.1289,-209.524 L -72.6791,-209.222
 L -73.1871,-208.853 L -73.5,-208.559 L -73.5,-208.653 L -76.5,-208.653 L -76.5,-181.347 L -73.5,-181.347
 L -73.5,-181.441 L -73.1871,-181.147 L -72.6791,-180.778 L -72.1289,-180.476 L -71.5451,-180.245 L -70.9369,-180.089
 L -70.3139,-180.01 L 70.3139,-180.01 z
M -67.6341,-200.369 L -67.9001,-200.403 L -68.1598,-200.469 L -68.4092,-200.568 L -68.6441,-200.697 L -68.8611,-200.855
 L -69.0566,-201.038 L -69.2275,-201.245 L -69.3712,-201.471 L -69.4853,-201.714 L -69.5682,-201.969 L -69.6185,-202.232
 L -69.6353,-202.5 L -69.6185,-202.768 L -69.5682,-203.031 L -69.4853,-203.286 L -69.3712,-203.529 L -69.2275,-203.755
 L -69.0566,-203.962 L -68.8611,-204.145 L -68.6441,-204.303 L -68.4092,-204.432 L -68.1598,-204.531 L -67.9001,-204.597
 L -67.6341,-204.631 L -67.3659,-204.631 L -67.0999,-204.597 L -66.8401,-204.531 L -66.5908,-204.432 L -66.3559,-204.303
 L -66.1389,-204.145 L -65.9434,-203.962 L -65.7725,-203.755 L -65.6288,-203.529 L -65.5146,-203.286 L -65.4318,-203.031
 L -65.3815,-202.768 L -65.3647,-202.5 L -65.3815,-202.232 L -65.4318,-201.969 L -65.5146,-201.714 L -65.6288,-201.471
 L -65.7725,-201.245 L -65.9434,-201.038 L -66.1389,-200.855 L -66.3559,-200.697 L -66.5908,-200.568 L -66.8401,-200.469
 L -67.0999,-200.403 L -67.3659,-200.369 z
M 67.3659,-200.369 L 67.0999,-200.403 L 66.8401,-200.469 L 66.5908,-200.568 L 66.3559,-200.697 L 66.1389,-200.855
 L 65.9434,-201.038 L 65.7725,-201.245 L 65.6288,-201.471 L 65.5146,-201.714 L 65.4318,-201.969 L 65.3815,-202.232
 L 65.3647,-202.5 L 65.3815,-202.768 L 65.4318,-203.031 L 65.5146,-203.286 L 65.6288,-203.529 L 65.7725,-203.755
 L 65.9434,-203.962 L 66.1389,-204.145 L 66.3559,-204.303 L 66.5908,-204.432 L 66.8401,-204.531 L 67.0999,-204.597
 L 67.3659,-204.631 L 67.6341,-204.631 L 67.9001,-204.597 L 68.1598,-204.531 L 68.4092,-204.432 L 68.6441,-204.303
 L 68.8611,-204.145 L 69.0566,-203.962 L 69.2275,-203.755 L 69.3712,-203.529 L 69.4853,-203.286 L 69.5682,-203.031
 L 69.6185,-202.768 L 69.6353,-202.5 L 69.6185,-202.232 L 69.5682,-201.969 L 69.4853,-201.714 L 69.3712,-201.471
 L 69.2275,-201.245 L 69.0566,-201.038 L 68.8611,-200.855 L 68.6441,-200.697 L 68.4092,-200.568 L 68.1598,-200.469
 L 67.9001,-200.403 L 67.6341,-200.369 z
M -67.6341,-185.369 L -67.9001,-185.403 L -68.1598,-185.469 L -68.4092,-185.568 L -68.6441,-185.697 L -68.8611,-185.855
 L -69.0566,-186.038 L -69.2275,-186.245 L -69.3712,-186.471 L -69.4853,-186.714 L -69.5682,-186.969 L -69.6185,-187.232
 L -69.6353,-187.5 L -69.6185,-187.768 L -69.5682,-188.031 L -69.4853,-188.286 L -69.3712,-188.529 L -69.2275,-188.755
 L -69.0566,-188.962 L -68.8611,-189.145 L -68.6441,-189.303 L -68.4092,-189.432 L -68.1598,-189.531 L -67.9001,-189.597
 L -67.6341,-189.631 L -67.3659,-189.631 L -67.0999,-189.597 L -66.8401,-189.531 L -66.5908,-189.432 L -66.3559,-189.303
 L -66.1389,-189.145 L -65.9434,-188.962 L -65.7725,-188.755 L -65.6288,-188.529 L -65.5146,-188.286 L -65.4318,-188.031
 L -65.3815,-187.768 L -65.3647,-187.5 L -65.3815,-187.232 L -65.4318,-186.969 L -65.5146,-186.714 L -65.6288,-186.471
 L -65.7725,-186.245 L -65.9434,-186.038 L -66.1389,-185.855 L -66.3559,-185.697 L -66.5908,-185.568 L -66.8401,-185.469
 L -67.0999,-185.403 L -67.3659,-185.369 z
M 67.3659,-185.369 L 67.0999,-185.403 L 66.8401,-185.469 L 66.5908,-185.568 L 66.3559,-185.697 L 66.1389,-185.855
 L 65.9434,-186.038 L 65.7725,-186.245 L 65.6288,-186.471 L 65.5146,-186.714 L 65.4318,-186.969 L 65.3815,-187.232
 L 65.3647,-187.5 L 65.3815,-187.768 L 65.4318,-188.031 L 65.5146,-188.286 L 65.6288,-188.529 L 65.7725,-188.755
 L 65.9434,-188.962 L 66.1389,-189.145 L 66.3559,-189.303 L 66.5908,-189.432 L 66.8401,-189.531 L 67.0999,-189.597
 L 67.3659,-189.631 L 67.6341,-189.631 L 67.9001,-189.597 L 68.1598,-189.531 L 68.4092,-189.432 L 68.6441,-189.303
 L 68.8611,-189.145 L 69.0566,-188.962 L 69.2275,-188.755 L 69.3712,-188.529 L 69.4853,-188.286 L 69.5682,-188.031
 L 69.6185,-187.768 L 69.6353,-187.5 L 69.6185,-187.232 L 69.5682,-186.969 L 69.4853,-186.714 L 69.3712,-186.471
 L 69.2275,-186.245 L 69.0566,-186.038 L 68.8611,-185.855 L 68.6441,-185.697 L 68.4092,-185.568 L 68.1598,-185.469
 L 67.9001,-185.403 L 67.6341,-185.369 z
" stroke="black" fill="lightgray" stroke-width="0.5"/>
</svg>
