  0
SECTION
  2
BLOCKS
  0
ENDSEC
  0
SECTION
  2
ENTITIES
  0
LINE
  8
0
 10
40.9369
 20
463.589
 11
41.5451
 21
463.745
  0
LINE
  8
0
 10
41.5451
 20
463.745
 11
42.1289
 21
463.976
  0
LINE
  8
0
 10
42.1289
 20
463.976
 11
42.6791
 21
464.278
  0
LINE
  8
0
 10
42.6791
 20
464.278
 11
43.1871
 21
464.647
  0
LINE
  8
0
 10
43.1871
 20
464.647
 11
43.6448
 21
465.077
  0
LINE
  8
0
 10
43.6448
 20
465.077
 11
44.0451
 21
465.561
  0
LINE
  8
0
 10
44.0451
 20
465.561
 11
44.3815
 21
466.091
  0
LINE
  8
0
 10
44.3815
 20
466.091
 11
44.6489
 21
466.659
  0
LINE
  8
0
 10
44.6489
 20
466.659
 11
44.8429
 21
467.257
  0
LINE
  8
0
 10
44.8429
 20
467.257
 11
44.9606
 21
467.873
  0
LINE
  8
0
 10
44.9606
 20
467.873
 11
45
 21
468.5
  0
LINE
  8
0
 10
45
 20
468.5
 11
45
 21
503.5
  0
LINE
  8
0
 10
45
 20
503.5
 11
44.9606
 21
504.127
  0
LINE
  8
0
 10
44.9606
 20
504.127
 11
44.8429
 21
504.743
  0
LINE
  8
0
 10
44.8429
 20
504.743
 11
44.6489
 21
505.341
  0
LINE
  8
0
 10
44.6489
 20
505.341
 11
44.3815
 21
505.909
  0
LINE
  8
0
 10
44.3815
 20
505.909
 11
44.0451
 21
506.439
  0
LINE
  8
0
 10
44.0451
 20
506.439
 11
43.6448
 21
506.923
  0
LINE
  8
0
 10
43.6448
 20
506.923
 11
43.1871
 21
507.353
  0
LINE
  8
0
 10
43.1871
 20
507.353
 11
42.6791
 21
507.722
  0
LINE
  8
0
 10
42.6791
 20
507.722
 11
42.1289
 21
508.024
  0
LINE
  8
0
 10
42.1289
 20
508.024
 11
41.5451
 21
508.255
  0
LINE
  8
0
 10
41.5451
 20
508.255
 11
40.9369
 21
508.411
  0
LINE
  8
0
 10
40.9369
 20
508.411
 11
40.3139
 21
508.49
  0
LINE
  8
0
 10
40.3139
 20
508.49
 11
-40.3139
 21
508.49
  0
LINE
  8
0
 10
-40.3139
 20
508.49
 11
-40.9369
 21
508.411
  0
LINE
  8
0
 10
-40.9369
 20
508.411
 11
-41.5451
 21
508.255
  0
LINE
  8
0
 10
-41.5451
 20
508.255
 11
-42.1289
 21
508.024
  0
LINE
  8
0
 10
-42.1289
 20
508.024
 11
-42.6791
 21
507.722
  0
LINE
  8
0
 10
-42.6791
 20
507.722
 11
-43.1871
 21
507.353
  0
LINE
  8
0
 10
-43.1871
 20
507.353
 11
-43.6448
 21
506.923
  0
LINE
  8
0
 10
-43.6448
 20
506.923
 11
-44.0451
 21
506.439
  0
LINE
  8
0
 10
-44.0451
 20
506.439
 11
-44.3815
 21
505.909
  0
LINE
  8
0
 10
-44.3815
 20
505.909
 11
-44.6489
 21
505.341
  0
LINE
  8
0
 10
-44.6489
 20
505.341
 11
-44.8429
 21
504.743
  0
LINE
  8
0
 10
-44.8429
 20
504.743
 11
-44.9606
 21
504.127
  0
LINE
  8
0
 10
-44.9606
 20
504.127
 11
-45
 21
503.5
  0
LINE
  8
0
 10
-45
 20
503.5
 11
-45
 21
468.5
  0
LINE
  8
0
 10
-45
 20
468.5
 11
-44.9606
 21
467.873
  0
LINE
  8
0
 10
-44.9606
 20
467.873
 11
-44.8429
 21
467.257
  0
LINE
  8
0
 10
-44.8429
 20
467.257
 11
-44.6489
 21
466.659
  0
LINE
  8
0
 10
-44.6489
 20
466.659
 11
-44.3815
 21
466.091
  0
LINE
  8
0
 10
-44.3815
 20
466.091
 11
-44.0451
 21
465.561
  0
LINE
  8
0
 10
-44.0451
 20
465.561
 11
-43.6448
 21
465.077
  0
LINE
  8
0
 10
-43.6448
 20
465.077
 11
-43.1871
 21
464.647
  0
LINE
  8
0
 10
-43.1871
 20
464.647
 11
-42.6791
 21
464.278
  0
LINE
  8
0
 10
-42.6791
 20
464.278
 11
-42.1289
 21
463.976
  0
LINE
  8
0
 10
-42.1289
 20
463.976
 11
-41.5451
 21
463.745
  0
LINE
  8
0
 10
-41.5451
 20
463.745
 11
-40.9369
 21
463.589
  0
LINE
  8
0
 10
-40.9369
 20
463.589
 11
-40.3139
 21
463.51
  0
LINE
  8
0
 10
-40.3139
 20
463.51
 11
40.3139
 21
463.51
  0
LINE
  8
0
 10
40.3139
 20
463.51
 11
40.9369
 21
463.589
  0
LINE
  8
0
 10
-40.0482
 20
464.009
 11
-40.6401
 21
464.084
  0
LINE
  8
0
 10
-40.6401
 20
464.084
 11
-41.2178
 21
464.232
  0
LINE
  8
0
 10
-41.2178
 20
464.232
 11
-41.7724
 21
464.452
  0
LINE
  8
0
 10
-41.7724
 20
464.452
 11
-42.2952
 21
464.739
  0
LINE
  8
0
 10
-42.2952
 20
464.739
 11
-42.7778
 21
465.09
  0
LINE
  8
0
 10
-42.7778
 20
465.09
 11
-43.2126
 21
465.498
  0
LINE
  8
0
 10
-43.2126
 20
465.498
 11
-43.5928
 21
465.958
  0
LINE
  8
0
 10
-43.5928
 20
465.958
 11
-43.9124
 21
466.462
  0
LINE
  8
0
 10
-43.9124
 20
466.462
 11
-44.1664
 21
467.001
  0
LINE
  8
0
 10
-44.1664
 20
467.001
 11
-44.3508
 21
467.569
  0
LINE
  8
0
 10
-44.3508
 20
467.569
 11
-44.4625
 21
468.155
  0
LINE
  8
0
 10
-44.4625
 20
468.155
 11
-44.5
 21
468.75
  0
LINE
  8
0
 10
-44.5
 20
468.75
 11
-44.5
 21
503.25
  0
LINE
  8
0
 10
-44.5
 20
503.25
 11
-44.4625
 21
503.845
  0
LINE
  8
0
 10
-44.4625
 20
503.845
 11
-44.3508
 21
504.431
  0
LINE
  8
0
 10
-44.3508
 20
504.431
 11
-44.1664
 21
504.999
  0
LINE
  8
0
 10
-44.1664
 20
504.999
 11
-43.9124
 21
505.538
  0
LINE
  8
0
 10
-43.9124
 20
505.538
 11
-43.5928
 21
506.042
  0
LINE
  8
0
 10
-43.5928
 20
506.042
 11
-43.2126
 21
506.502
  0
LINE
  8
0
 10
-43.2126
 20
506.502
 11
-42.7778
 21
506.91
  0
LINE
  8
0
 10
-42.7778
 20
506.91
 11
-42.2952
 21
507.261
  0
LINE
  8
0
 10
-42.2952
 20
507.261
 11
-41.7724
 21
507.548
  0
LINE
  8
0
 10
-41.7724
 20
507.548
 11
-41.2178
 21
507.768
  0
LINE
  8
0
 10
-41.2178
 20
507.768
 11
-40.6401
 21
507.916
  0
LINE
  8
0
 10
-40.6401
 20
507.916
 11
-40.0482
 21
507.991
  0
LINE
  8
0
 10
-40.0482
 20
507.991
 11
40.0482
 21
507.991
  0
LINE
  8
0
 10
40.0482
 20
507.991
 11
40.6401
 21
507.916
  0
LINE
  8
0
 10
40.6401
 20
507.916
 11
41.2178
 21
507.768
  0
LINE
  8
0
 10
41.2178
 20
507.768
 11
41.7724
 21
507.548
  0
LINE
  8
0
 10
41.7724
 20
507.548
 11
42.2952
 21
507.261
  0
LINE
  8
0
 10
42.2952
 20
507.261
 11
42.7778
 21
506.91
  0
LINE
  8
0
 10
42.7778
 20
506.91
 11
43.2126
 21
506.502
  0
LINE
  8
0
 10
43.2126
 20
506.502
 11
43.5928
 21
506.042
  0
LINE
  8
0
 10
43.5928
 20
506.042
 11
43.9124
 21
505.538
  0
LINE
  8
0
 10
43.9124
 20
505.538
 11
44.1664
 21
504.999
  0
LINE
  8
0
 10
44.1664
 20
504.999
 11
44.3508
 21
504.431
  0
LINE
  8
0
 10
44.3508
 20
504.431
 11
44.4625
 21
503.845
  0
LINE
  8
0
 10
44.4625
 20
503.845
 11
44.5
 21
503.25
  0
LINE
  8
0
 10
44.5
 20
503.25
 11
44.5
 21
468.75
  0
LINE
  8
0
 10
44.5
 20
468.75
 11
44.4625
 21
468.155
  0
LINE
  8
0
 10
44.4625
 20
468.155
 11
44.3508
 21
467.569
  0
LINE
  8
0
 10
44.3508
 20
467.569
 11
44.1664
 21
467.001
  0
LINE
  8
0
 10
44.1664
 20
467.001
 11
43.9124
 21
466.462
  0
LINE
  8
0
 10
43.9124
 20
466.462
 11
43.5928
 21
465.958
  0
LINE
  8
0
 10
43.5928
 20
465.958
 11
43.2126
 21
465.498
  0
LINE
  8
0
 10
43.2126
 20
465.498
 11
42.7778
 21
465.09
  0
LINE
  8
0
 10
42.7778
 20
465.09
 11
42.2952
 21
464.739
  0
LINE
  8
0
 10
42.2952
 20
464.739
 11
41.7724
 21
464.452
  0
LINE
  8
0
 10
41.7724
 20
464.452
 11
41.2178
 21
464.232
  0
LINE
  8
0
 10
41.2178
 20
464.232
 11
40.6401
 21
464.084
  0
LINE
  8
0
 10
40.6401
 20
464.084
 11
40.0482
 21
464.009
  0
LINE
  8
0
 10
40.0482
 20
464.009
 11
-40.0482
 21
464.009
  0
LINE
  8
0
 10
40.9369
 20
409.589
 11
41.5451
 21
409.745
  0
LINE
  8
0
 10
41.5451
 20
409.745
 11
42.1289
 21
409.976
  0
LINE
  8
0
 10
42.1289
 20
409.976
 11
42.6791
 21
410.278
  0
LINE
  8
0
 10
42.6791
 20
410.278
 11
43.1871
 21
410.647
  0
LINE
  8
0
 10
43.1871
 20
410.647
 11
43.6448
 21
411.077
  0
LINE
  8
0
 10
43.6448
 20
411.077
 11
44.0451
 21
411.561
  0
LINE
  8
0
 10
44.0451
 20
411.561
 11
44.3815
 21
412.091
  0
LINE
  8
0
 10
44.3815
 20
412.091
 11
44.6489
 21
412.659
  0
LINE
  8
0
 10
44.6489
 20
412.659
 11
44.8429
 21
413.257
  0
LINE
  8
0
 10
44.8429
 20
413.257
 11
44.9606
 21
413.873
  0
LINE
  8
0
 10
44.9606
 20
413.873
 11
45
 21
414.5
  0
LINE
  8
0
 10
45
 20
414.5
 11
45
 21
449.5
  0
LINE
  8
0
 10
45
 20
449.5
 11
44.9606
 21
450.127
  0
LINE
  8
0
 10
44.9606
 20
450.127
 11
44.8429
 21
450.743
  0
LINE
  8
0
 10
44.8429
 20
450.743
 11
44.6489
 21
451.341
  0
LINE
  8
0
 10
44.6489
 20
451.341
 11
44.3815
 21
451.909
  0
LINE
  8
0
 10
44.3815
 20
451.909
 11
44.0451
 21
452.439
  0
LINE
  8
0
 10
44.0451
 20
452.439
 11
43.6448
 21
452.923
  0
LINE
  8
0
 10
43.6448
 20
452.923
 11
43.1871
 21
453.353
  0
LINE
  8
0
 10
43.1871
 20
453.353
 11
42.6791
 21
453.722
  0
LINE
  8
0
 10
42.6791
 20
453.722
 11
42.1289
 21
454.024
  0
LINE
  8
0
 10
42.1289
 20
454.024
 11
41.5451
 21
454.255
  0
LINE
  8
0
 10
41.5451
 20
454.255
 11
40.9369
 21
454.411
  0
LINE
  8
0
 10
40.9369
 20
454.411
 11
40.3139
 21
454.49
  0
LINE
  8
0
 10
40.3139
 20
454.49
 11
-40.3139
 21
454.49
  0
LINE
  8
0
 10
-40.3139
 20
454.49
 11
-40.9369
 21
454.411
  0
LINE
  8
0
 10
-40.9369
 20
454.411
 11
-41.5451
 21
454.255
  0
LINE
  8
0
 10
-41.5451
 20
454.255
 11
-42.1289
 21
454.024
  0
LINE
  8
0
 10
-42.1289
 20
454.024
 11
-42.6791
 21
453.722
  0
LINE
  8
0
 10
-42.6791
 20
453.722
 11
-43.1871
 21
453.353
  0
LINE
  8
0
 10
-43.1871
 20
453.353
 11
-43.6448
 21
452.923
  0
LINE
  8
0
 10
-43.6448
 20
452.923
 11
-44.0451
 21
452.439
  0
LINE
  8
0
 10
-44.0451
 20
452.439
 11
-44.3815
 21
451.909
  0
LINE
  8
0
 10
-44.3815
 20
451.909
 11
-44.6489
 21
451.341
  0
LINE
  8
0
 10
-44.6489
 20
451.341
 11
-44.8429
 21
450.743
  0
LINE
  8
0
 10
-44.8429
 20
450.743
 11
-44.9606
 21
450.127
  0
LINE
  8
0
 10
-44.9606
 20
450.127
 11
-45
 21
449.5
  0
LINE
  8
0
 10
-45
 20
449.5
 11
-45
 21
414.5
  0
LINE
  8
0
 10
-45
 20
414.5
 11
-44.9606
 21
413.873
  0
LINE
  8
0
 10
-44.9606
 20
413.873
 11
-44.8429
 21
413.257
  0
LINE
  8
0
 10
-44.8429
 20
413.257
 11
-44.6489
 21
412.659
  0
LINE
  8
0
 10
-44.6489
 20
412.659
 11
-44.3815
 21
412.091
  0
LINE
  8
0
 10
-44.3815
 20
412.091
 11
-44.0451
 21
411.561
  0
LINE
  8
0
 10
-44.0451
 20
411.561
 11
-43.6448
 21
411.077
  0
LINE
  8
0
 10
-43.6448
 20
411.077
 11
-43.1871
 21
410.647
  0
LINE
  8
0
 10
-43.1871
 20
410.647
 11
-42.6791
 21
410.278
  0
LINE
  8
0
 10
-42.6791
 20
410.278
 11
-42.1289
 21
409.976
  0
LINE
  8
0
 10
-42.1289
 20
409.976
 11
-41.5451
 21
409.745
  0
LINE
  8
0
 10
-41.5451
 20
409.745
 11
-40.9369
 21
409.589
  0
LINE
  8
0
 10
-40.9369
 20
409.589
 11
-40.3139
 21
409.51
  0
LINE
  8
0
 10
-40.3139
 20
409.51
 11
40.3139
 21
409.51
  0
LINE
  8
0
 10
40.3139
 20
409.51
 11
40.9369
 21
409.589
  0
LINE
  8
0
 10
-40.0482
 20
410.009
 11
-40.6401
 21
410.084
  0
LINE
  8
0
 10
-40.6401
 20
410.084
 11
-41.2178
 21
410.232
  0
LINE
  8
0
 10
-41.2178
 20
410.232
 11
-41.7724
 21
410.452
  0
LINE
  8
0
 10
-41.7724
 20
410.452
 11
-42.2952
 21
410.739
  0
LINE
  8
0
 10
-42.2952
 20
410.739
 11
-42.7778
 21
411.09
  0
LINE
  8
0
 10
-42.7778
 20
411.09
 11
-43.2126
 21
411.498
  0
LINE
  8
0
 10
-43.2126
 20
411.498
 11
-43.5928
 21
411.958
  0
LINE
  8
0
 10
-43.5928
 20
411.958
 11
-43.9124
 21
412.462
  0
LINE
  8
0
 10
-43.9124
 20
412.462
 11
-44.1664
 21
413.001
  0
LINE
  8
0
 10
-44.1664
 20
413.001
 11
-44.3508
 21
413.569
  0
LINE
  8
0
 10
-44.3508
 20
413.569
 11
-44.4625
 21
414.155
  0
LINE
  8
0
 10
-44.4625
 20
414.155
 11
-44.5
 21
414.75
  0
LINE
  8
0
 10
-44.5
 20
414.75
 11
-44.5
 21
449.25
  0
LINE
  8
0
 10
-44.5
 20
449.25
 11
-44.4625
 21
449.845
  0
LINE
  8
0
 10
-44.4625
 20
449.845
 11
-44.3508
 21
450.431
  0
LINE
  8
0
 10
-44.3508
 20
450.431
 11
-44.1664
 21
450.999
  0
LINE
  8
0
 10
-44.1664
 20
450.999
 11
-43.9124
 21
451.538
  0
LINE
  8
0
 10
-43.9124
 20
451.538
 11
-43.5928
 21
452.042
  0
LINE
  8
0
 10
-43.5928
 20
452.042
 11
-43.2126
 21
452.502
  0
LINE
  8
0
 10
-43.2126
 20
452.502
 11
-42.7778
 21
452.91
  0
LINE
  8
0
 10
-42.7778
 20
452.91
 11
-42.2952
 21
453.261
  0
LINE
  8
0
 10
-42.2952
 20
453.261
 11
-41.7724
 21
453.548
  0
LINE
  8
0
 10
-41.7724
 20
453.548
 11
-41.2178
 21
453.768
  0
LINE
  8
0
 10
-41.2178
 20
453.768
 11
-40.6401
 21
453.916
  0
LINE
  8
0
 10
-40.6401
 20
453.916
 11
-40.0482
 21
453.991
  0
LINE
  8
0
 10
-40.0482
 20
453.991
 11
40.0482
 21
453.991
  0
LINE
  8
0
 10
40.0482
 20
453.991
 11
40.6401
 21
453.916
  0
LINE
  8
0
 10
40.6401
 20
453.916
 11
41.2178
 21
453.768
  0
LINE
  8
0
 10
41.2178
 20
453.768
 11
41.7724
 21
453.548
  0
LINE
  8
0
 10
41.7724
 20
453.548
 11
42.2952
 21
453.261
  0
LINE
  8
0
 10
42.2952
 20
453.261
 11
42.7778
 21
452.91
  0
LINE
  8
0
 10
42.7778
 20
452.91
 11
43.2126
 21
452.502
  0
LINE
  8
0
 10
43.2126
 20
452.502
 11
43.5928
 21
452.042
  0
LINE
  8
0
 10
43.5928
 20
452.042
 11
43.9124
 21
451.538
  0
LINE
  8
0
 10
43.9124
 20
451.538
 11
44.1664
 21
450.999
  0
LINE
  8
0
 10
44.1664
 20
450.999
 11
44.3508
 21
450.431
  0
LINE
  8
0
 10
44.3508
 20
450.431
 11
44.4625
 21
449.845
  0
LINE
  8
0
 10
44.4625
 20
449.845
 11
44.5
 21
449.25
  0
LINE
  8
0
 10
44.5
 20
449.25
 11
44.5
 21
414.75
  0
LINE
  8
0
 10
44.5
 20
414.75
 11
44.4625
 21
414.155
  0
LINE
  8
0
 10
44.4625
 20
414.155
 11
44.3508
 21
413.569
  0
LINE
  8
0
 10
44.3508
 20
413.569
 11
44.1664
 21
413.001
  0
LINE
  8
0
 10
44.1664
 20
413.001
 11
43.9124
 21
412.462
  0
LINE
  8
0
 10
43.9124
 20
412.462
 11
43.5928
 21
411.958
  0
LINE
  8
0
 10
43.5928
 20
411.958
 11
43.2126
 21
411.498
  0
LINE
  8
0
 10
43.2126
 20
411.498
 11
42.7778
 21
411.09
  0
LINE
  8
0
 10
42.7778
 20
411.09
 11
42.2952
 21
410.739
  0
LINE
  8
0
 10
42.2952
 20
410.739
 11
41.7724
 21
410.452
  0
LINE
  8
0
 10
41.7724
 20
410.452
 11
41.2178
 21
410.232
  0
LINE
  8
0
 10
41.2178
 20
410.232
 11
40.6401
 21
410.084
  0
LINE
  8
0
 10
40.6401
 20
410.084
 11
40.0482
 21
410.009
  0
LINE
  8
0
 10
40.0482
 20
410.009
 11
-40.0482
 21
410.009
  0
LINE
  8
0
 10
40.9369
 20
355.589
 11
41.5451
 21
355.745
  0
LINE
  8
0
 10
41.5451
 20
355.745
 11
42.1289
 21
355.976
  0
LINE
  8
0
 10
42.1289
 20
355.976
 11
42.6791
 21
356.278
  0
LINE
  8
0
 10
42.6791
 20
356.278
 11
43.1871
 21
356.647
  0
LINE
  8
0
 10
43.1871
 20
356.647
 11
43.6448
 21
357.077
  0
LINE
  8
0
 10
43.6448
 20
357.077
 11
44.0451
 21
357.561
  0
LINE
  8
0
 10
44.0451
 20
357.561
 11
44.3815
 21
358.091
  0
LINE
  8
0
 10
44.3815
 20
358.091
 11
44.6489
 21
358.659
  0
LINE
  8
0
 10
44.6489
 20
358.659
 11
44.8429
 21
359.257
  0
LINE
  8
0
 10
44.8429
 20
359.257
 11
44.9606
 21
359.873
  0
LINE
  8
0
 10
44.9606
 20
359.873
 11
45
 21
360.5
  0
LINE
  8
0
 10
45
 20
360.5
 11
45
 21
395.5
  0
LINE
  8
0
 10
45
 20
395.5
 11
44.9606
 21
396.127
  0
LINE
  8
0
 10
44.9606
 20
396.127
 11
44.8429
 21
396.743
  0
LINE
  8
0
 10
44.8429
 20
396.743
 11
44.6489
 21
397.341
  0
LINE
  8
0
 10
44.6489
 20
397.341
 11
44.3815
 21
397.909
  0
LINE
  8
0
 10
44.3815
 20
397.909
 11
44.0451
 21
398.439
  0
LINE
  8
0
 10
44.0451
 20
398.439
 11
43.6448
 21
398.923
  0
LINE
  8
0
 10
43.6448
 20
398.923
 11
43.1871
 21
399.353
  0
LINE
  8
0
 10
43.1871
 20
399.353
 11
42.6791
 21
399.722
  0
LINE
  8
0
 10
42.6791
 20
399.722
 11
42.1289
 21
400.024
  0
LINE
  8
0
 10
42.1289
 20
400.024
 11
41.5451
 21
400.255
  0
LINE
  8
0
 10
41.5451
 20
400.255
 11
40.9369
 21
400.411
  0
LINE
  8
0
 10
40.9369
 20
400.411
 11
40.3139
 21
400.49
  0
LINE
  8
0
 10
40.3139
 20
400.49
 11
-40.3139
 21
400.49
  0
LINE
  8
0
 10
-40.3139
 20
400.49
 11
-40.9369
 21
400.411
  0
LINE
  8
0
 10
-40.9369
 20
400.411
 11
-41.5451
 21
400.255
  0
LINE
  8
0
 10
-41.5451
 20
400.255
 11
-42.1289
 21
400.024
  0
LINE
  8
0
 10
-42.1289
 20
400.024
 11
-42.6791
 21
399.722
  0
LINE
  8
0
 10
-42.6791
 20
399.722
 11
-43.1871
 21
399.353
  0
LINE
  8
0
 10
-43.1871
 20
399.353
 11
-43.6448
 21
398.923
  0
LINE
  8
0
 10
-43.6448
 20
398.923
 11
-44.0451
 21
398.439
  0
LINE
  8
0
 10
-44.0451
 20
398.439
 11
-44.3815
 21
397.909
  0
LINE
  8
0
 10
-44.3815
 20
397.909
 11
-44.6489
 21
397.341
  0
LINE
  8
0
 10
-44.6489
 20
397.341
 11
-44.8429
 21
396.743
  0
LINE
  8
0
 10
-44.8429
 20
396.743
 11
-44.9606
 21
396.127
  0
LINE
  8
0
 10
-44.9606
 20
396.127
 11
-45
 21
395.5
  0
LINE
  8
0
 10
-45
 20
395.5
 11
-45
 21
360.5
  0
LINE
  8
0
 10
-45
 20
360.5
 11
-44.9606
 21
359.873
  0
LINE
  8
0
 10
-44.9606
 20
359.873
 11
-44.8429
 21
359.257
  0
LINE
  8
0
 10
-44.8429
 20
359.257
 11
-44.6489
 21
358.659
  0
LINE
  8
0
 10
-44.6489
 20
358.659
 11
-44.3815
 21
358.091
  0
LINE
  8
0
 10
-44.3815
 20
358.091
 11
-44.0451
 21
357.561
  0
LINE
  8
0
 10
-44.0451
 20
357.561
 11
-43.6448
 21
357.077
  0
LINE
  8
0
 10
-43.6448
 20
357.077
 11
-43.1871
 21
356.647
  0
LINE
  8
0
 10
-43.1871
 20
356.647
 11
-42.6791
 21
356.278
  0
LINE
  8
0
 10
-42.6791
 20
356.278
 11
-42.1289
 21
355.976
  0
LINE
  8
0
 10
-42.1289
 20
355.976
 11
-41.5451
 21
355.745
  0
LINE
  8
0
 10
-41.5451
 20
355.745
 11
-40.9369
 21
355.589
  0
LINE
  8
0
 10
-40.9369
 20
355.589
 11
-40.3139
 21
355.51
  0
LINE
  8
0
 10
-40.3139
 20
355.51
 11
40.3139
 21
355.51
  0
LINE
  8
0
 10
40.3139
 20
355.51
 11
40.9369
 21
355.589
  0
LINE
  8
0
 10
-40.0482
 20
356.009
 11
-40.6401
 21
356.084
  0
LINE
  8
0
 10
-40.6401
 20
356.084
 11
-41.2178
 21
356.232
  0
LINE
  8
0
 10
-41.2178
 20
356.232
 11
-41.7724
 21
356.452
  0
LINE
  8
0
 10
-41.7724
 20
356.452
 11
-42.2952
 21
356.739
  0
LINE
  8
0
 10
-42.2952
 20
356.739
 11
-42.7778
 21
357.09
  0
LINE
  8
0
 10
-42.7778
 20
357.09
 11
-43.2126
 21
357.498
  0
LINE
  8
0
 10
-43.2126
 20
357.498
 11
-43.5928
 21
357.958
  0
LINE
  8
0
 10
-43.5928
 20
357.958
 11
-43.9124
 21
358.462
  0
LINE
  8
0
 10
-43.9124
 20
358.462
 11
-44.1664
 21
359.001
  0
LINE
  8
0
 10
-44.1664
 20
359.001
 11
-44.3508
 21
359.569
  0
LINE
  8
0
 10
-44.3508
 20
359.569
 11
-44.4625
 21
360.155
  0
LINE
  8
0
 10
-44.4625
 20
360.155
 11
-44.5
 21
360.75
  0
LINE
  8
0
 10
-44.5
 20
360.75
 11
-44.5
 21
395.25
  0
LINE
  8
0
 10
-44.5
 20
395.25
 11
-44.4625
 21
395.845
  0
LINE
  8
0
 10
-44.4625
 20
395.845
 11
-44.3508
 21
396.431
  0
LINE
  8
0
 10
-44.3508
 20
396.431
 11
-44.1664
 21
396.999
  0
LINE
  8
0
 10
-44.1664
 20
396.999
 11
-43.9124
 21
397.538
  0
LINE
  8
0
 10
-43.9124
 20
397.538
 11
-43.5928
 21
398.042
  0
LINE
  8
0
 10
-43.5928
 20
398.042
 11
-43.2126
 21
398.502
  0
LINE
  8
0
 10
-43.2126
 20
398.502
 11
-42.7778
 21
398.91
  0
LINE
  8
0
 10
-42.7778
 20
398.91
 11
-42.2952
 21
399.261
  0
LINE
  8
0
 10
-42.2952
 20
399.261
 11
-41.7724
 21
399.548
  0
LINE
  8
0
 10
-41.7724
 20
399.548
 11
-41.2178
 21
399.768
  0
LINE
  8
0
 10
-41.2178
 20
399.768
 11
-40.6401
 21
399.916
  0
LINE
  8
0
 10
-40.6401
 20
399.916
 11
-40.0482
 21
399.991
  0
LINE
  8
0
 10
-40.0482
 20
399.991
 11
40.0482
 21
399.991
  0
LINE
  8
0
 10
40.0482
 20
399.991
 11
40.6401
 21
399.916
  0
LINE
  8
0
 10
40.6401
 20
399.916
 11
41.2178
 21
399.768
  0
LINE
  8
0
 10
41.2178
 20
399.768
 11
41.7724
 21
399.548
  0
LINE
  8
0
 10
41.7724
 20
399.548
 11
42.2952
 21
399.261
  0
LINE
  8
0
 10
42.2952
 20
399.261
 11
42.7778
 21
398.91
  0
LINE
  8
0
 10
42.7778
 20
398.91
 11
43.2126
 21
398.502
  0
LINE
  8
0
 10
43.2126
 20
398.502
 11
43.5928
 21
398.042
  0
LINE
  8
0
 10
43.5928
 20
398.042
 11
43.9124
 21
397.538
  0
LINE
  8
0
 10
43.9124
 20
397.538
 11
44.1664
 21
396.999
  0
LINE
  8
0
 10
44.1664
 20
396.999
 11
44.3508
 21
396.431
  0
LINE
  8
0
 10
44.3508
 20
396.431
 11
44.4625
 21
395.845
  0
LINE
  8
0
 10
44.4625
 20
395.845
 11
44.5
 21
395.25
  0
LINE
  8
0
 10
44.5
 20
395.25
 11
44.5
 21
360.75
  0
LINE
  8
0
 10
44.5
 20
360.75
 11
44.4625
 21
360.155
  0
LINE
  8
0
 10
44.4625
 20
360.155
 11
44.3508
 21
359.569
  0
LINE
  8
0
 10
44.3508
 20
359.569
 11
44.1664
 21
359.001
  0
LINE
  8
0
 10
44.1664
 20
359.001
 11
43.9124
 21
358.462
  0
LINE
  8
0
 10
43.9124
 20
358.462
 11
43.5928
 21
357.958
  0
LINE
  8
0
 10
43.5928
 20
357.958
 11
43.2126
 21
357.498
  0
LINE
  8
0
 10
43.2126
 20
357.498
 11
42.7778
 21
357.09
  0
LINE
  8
0
 10
42.7778
 20
357.09
 11
42.2952
 21
356.739
  0
LINE
  8
0
 10
42.2952
 20
356.739
 11
41.7724
 21
356.452
  0
LINE
  8
0
 10
41.7724
 20
356.452
 11
41.2178
 21
356.232
  0
LINE
  8
0
 10
41.2178
 20
356.232
 11
40.6401
 21
356.084
  0
LINE
  8
0
 10
40.6401
 20
356.084
 11
40.0482
 21
356.009
  0
LINE
  8
0
 10
40.0482
 20
356.009
 11
-40.0482
 21
356.009
  0
LINE
  8
0
 10
40.9369
 20
301.589
 11
41.5451
 21
301.745
  0
LINE
  8
0
 10
41.5451
 20
301.745
 11
42.1289
 21
301.976
  0
LINE
  8
0
 10
42.1289
 20
301.976
 11
42.6791
 21
302.278
  0
LINE
  8
0
 10
42.6791
 20
302.278
 11
43.1871
 21
302.647
  0
LINE
  8
0
 10
43.1871
 20
302.647
 11
43.6448
 21
303.077
  0
LINE
  8
0
 10
43.6448
 20
303.077
 11
44.0451
 21
303.561
  0
LINE
  8
0
 10
44.0451
 20
303.561
 11
44.3815
 21
304.091
  0
LINE
  8
0
 10
44.3815
 20
304.091
 11
44.6489
 21
304.659
  0
LINE
  8
0
 10
44.6489
 20
304.659
 11
44.8429
 21
305.257
  0
LINE
  8
0
 10
44.8429
 20
305.257
 11
44.9606
 21
305.873
  0
LINE
  8
0
 10
44.9606
 20
305.873
 11
45
 21
306.5
  0
LINE
  8
0
 10
45
 20
306.5
 11
45
 21
341.5
  0
LINE
  8
0
 10
45
 20
341.5
 11
44.9606
 21
342.127
  0
LINE
  8
0
 10
44.9606
 20
342.127
 11
44.8429
 21
342.743
  0
LINE
  8
0
 10
44.8429
 20
342.743
 11
44.6489
 21
343.341
  0
LINE
  8
0
 10
44.6489
 20
343.341
 11
44.3815
 21
343.909
  0
LINE
  8
0
 10
44.3815
 20
343.909
 11
44.0451
 21
344.439
  0
LINE
  8
0
 10
44.0451
 20
344.439
 11
43.6448
 21
344.923
  0
LINE
  8
0
 10
43.6448
 20
344.923
 11
43.1871
 21
345.353
  0
LINE
  8
0
 10
43.1871
 20
345.353
 11
42.6791
 21
345.722
  0
LINE
  8
0
 10
42.6791
 20
345.722
 11
42.1289
 21
346.024
  0
LINE
  8
0
 10
42.1289
 20
346.024
 11
41.5451
 21
346.255
  0
LINE
  8
0
 10
41.5451
 20
346.255
 11
40.9369
 21
346.411
  0
LINE
  8
0
 10
40.9369
 20
346.411
 11
40.3139
 21
346.49
  0
LINE
  8
0
 10
40.3139
 20
346.49
 11
-40.3139
 21
346.49
  0
LINE
  8
0
 10
-40.3139
 20
346.49
 11
-40.9369
 21
346.411
  0
LINE
  8
0
 10
-40.9369
 20
346.411
 11
-41.5451
 21
346.255
  0
LINE
  8
0
 10
-41.5451
 20
346.255
 11
-42.1289
 21
346.024
  0
LINE
  8
0
 10
-42.1289
 20
346.024
 11
-42.6791
 21
345.722
  0
LINE
  8
0
 10
-42.6791
 20
345.722
 11
-43.1871
 21
345.353
  0
LINE
  8
0
 10
-43.1871
 20
345.353
 11
-43.6448
 21
344.923
  0
LINE
  8
0
 10
-43.6448
 20
344.923
 11
-44.0451
 21
344.439
  0
LINE
  8
0
 10
-44.0451
 20
344.439
 11
-44.3815
 21
343.909
  0
LINE
  8
0
 10
-44.3815
 20
343.909
 11
-44.6489
 21
343.341
  0
LINE
  8
0
 10
-44.6489
 20
343.341
 11
-44.8429
 21
342.743
  0
LINE
  8
0
 10
-44.8429
 20
342.743
 11
-44.9606
 21
342.127
  0
LINE
  8
0
 10
-44.9606
 20
342.127
 11
-45
 21
341.5
  0
LINE
  8
0
 10
-45
 20
341.5
 11
-45
 21
306.5
  0
LINE
  8
0
 10
-45
 20
306.5
 11
-44.9606
 21
305.873
  0
LINE
  8
0
 10
-44.9606
 20
305.873
 11
-44.8429
 21
305.257
  0
LINE
  8
0
 10
-44.8429
 20
305.257
 11
-44.6489
 21
304.659
  0
LINE
  8
0
 10
-44.6489
 20
304.659
 11
-44.3815
 21
304.091
  0
LINE
  8
0
 10
-44.3815
 20
304.091
 11
-44.0451
 21
303.561
  0
LINE
  8
0
 10
-44.0451
 20
303.561
 11
-43.6448
 21
303.077
  0
LINE
  8
0
 10
-43.6448
 20
303.077
 11
-43.1871
 21
302.647
  0
LINE
  8
0
 10
-43.1871
 20
302.647
 11
-42.6791
 21
302.278
  0
LINE
  8
0
 10
-42.6791
 20
302.278
 11
-42.1289
 21
301.976
  0
LINE
  8
0
 10
-42.1289
 20
301.976
 11
-41.5451
 21
301.745
  0
LINE
  8
0
 10
-41.5451
 20
301.745
 11
-40.9369
 21
301.589
  0
LINE
  8
0
 10
-40.9369
 20
301.589
 11
-40.3139
 21
301.51
  0
LINE
  8
0
 10
-40.3139
 20
301.51
 11
40.3139
 21
301.51
  0
LINE
  8
0
 10
40.3139
 20
301.51
 11
40.9369
 21
301.589
  0
LINE
  8
0
 10
-40.0375
 20
302.181
 11
-40.6079
 21
302.253
  0
LINE
  8
0
 10
-40.6079
 20
302.253
 11
-41.1648
 21
302.396
  0
LINE
  8
0
 10
-41.1648
 20
302.396
 11
-41.6994
 21
302.607
  0
LINE
  8
0
 10
-41.6994
 20
302.607
 11
-42.2032
 21
302.884
  0
LINE
  8
0
 10
-42.2032
 20
302.884
 11
-42.6684
 21
303.222
  0
LINE
  8
0
 10
-42.6684
 20
303.222
 11
-43.0875
 21
303.616
  0
LINE
  8
0
 10
-43.0875
 20
303.616
 11
-43.454
 21
304.059
  0
LINE
  8
0
 10
-43.454
 20
304.059
 11
-43.7621
 21
304.544
  0
LINE
  8
0
 10
-43.7621
 20
304.544
 11
-44.0069
 21
305.065
  0
LINE
  8
0
 10
-44.0069
 20
305.065
 11
-44.1846
 21
305.611
  0
LINE
  8
0
 10
-44.1846
 20
305.611
 11
-44.2923
 21
306.176
  0
LINE
  8
0
 10
-44.2923
 20
306.176
 11
-44.3284
 21
306.75
  0
LINE
  8
0
 10
-44.3284
 20
306.75
 11
-44.3284
 21
341.25
  0
LINE
  8
0
 10
-44.3284
 20
341.25
 11
-44.2923
 21
341.824
  0
LINE
  8
0
 10
-44.2923
 20
341.824
 11
-44.1846
 21
342.389
  0
LINE
  8
0
 10
-44.1846
 20
342.389
 11
-44.0069
 21
342.935
  0
LINE
  8
0
 10
-44.0069
 20
342.935
 11
-43.7621
 21
343.456
  0
LINE
  8
0
 10
-43.7621
 20
343.456
 11
-43.454
 21
343.941
  0
LINE
  8
0
 10
-43.454
 20
343.941
 11
-43.0875
 21
344.384
  0
LINE
  8
0
 10
-43.0875
 20
344.384
 11
-42.6684
 21
344.778
  0
LINE
  8
0
 10
-42.6684
 20
344.778
 11
-42.2032
 21
345.116
  0
LINE
  8
0
 10
-42.2032
 20
345.116
 11
-41.6994
 21
345.393
  0
LINE
  8
0
 10
-41.6994
 20
345.393
 11
-41.1648
 21
345.604
  0
LINE
  8
0
 10
-41.1648
 20
345.604
 11
-40.6079
 21
345.747
  0
LINE
  8
0
 10
-40.6079
 20
345.747
 11
-40.0375
 21
345.819
  0
LINE
  8
0
 10
-40.0375
 20
345.819
 11
40.0375
 21
345.819
  0
LINE
  8
0
 10
40.0375
 20
345.819
 11
40.6079
 21
345.747
  0
LINE
  8
0
 10
40.6079
 20
345.747
 11
41.1648
 21
345.604
  0
LINE
  8
0
 10
41.1648
 20
345.604
 11
41.6994
 21
345.393
  0
LINE
  8
0
 10
41.6994
 20
345.393
 11
42.2032
 21
345.116
  0
LINE
  8
0
 10
42.2032
 20
345.116
 11
42.6684
 21
344.778
  0
LINE
  8
0
 10
42.6684
 20
344.778
 11
43.0875
 21
344.384
  0
LINE
  8
0
 10
43.0875
 20
344.384
 11
43.454
 21
343.941
  0
LINE
  8
0
 10
43.454
 20
343.941
 11
43.7621
 21
343.456
  0
LINE
  8
0
 10
43.7621
 20
343.456
 11
44.0069
 21
342.935
  0
LINE
  8
0
 10
44.0069
 20
342.935
 11
44.1846
 21
342.389
  0
LINE
  8
0
 10
44.1846
 20
342.389
 11
44.2923
 21
341.824
  0
LINE
  8
0
 10
44.2923
 20
341.824
 11
44.3284
 21
341.25
  0
LINE
  8
0
 10
44.3284
 20
341.25
 11
44.3284
 21
306.75
  0
LINE
  8
0
 10
44.3284
 20
306.75
 11
44.2923
 21
306.176
  0
LINE
  8
0
 10
44.2923
 20
306.176
 11
44.1846
 21
305.611
  0
LINE
  8
0
 10
44.1846
 20
305.611
 11
44.0069
 21
305.065
  0
LINE
  8
0
 10
44.0069
 20
305.065
 11
43.7621
 21
304.544
  0
LINE
  8
0
 10
43.7621
 20
304.544
 11
43.454
 21
304.059
  0
LINE
  8
0
 10
43.454
 20
304.059
 11
43.0875
 21
303.616
  0
LINE
  8
0
 10
43.0875
 20
303.616
 11
42.6684
 21
303.222
  0
LINE
  8
0
 10
42.6684
 20
303.222
 11
42.2032
 21
302.884
  0
LINE
  8
0
 10
42.2032
 20
302.884
 11
41.6994
 21
302.607
  0
LINE
  8
0
 10
41.6994
 20
302.607
 11
41.1648
 21
302.396
  0
LINE
  8
0
 10
41.1648
 20
302.396
 11
40.6079
 21
302.253
  0
LINE
  8
0
 10
40.6079
 20
302.253
 11
40.0375
 21
302.181
  0
LINE
  8
0
 10
40.0375
 20
302.181
 11
-40.0375
 21
302.181
  0
LINE
  8
0
 10
40.9369
 20
247.589
 11
41.5451
 21
247.745
  0
LINE
  8
0
 10
41.5451
 20
247.745
 11
42.1289
 21
247.976
  0
LINE
  8
0
 10
42.1289
 20
247.976
 11
42.6791
 21
248.278
  0
LINE
  8
0
 10
42.6791
 20
248.278
 11
43.1871
 21
248.647
  0
LINE
  8
0
 10
43.1871
 20
248.647
 11
43.6448
 21
249.077
  0
LINE
  8
0
 10
43.6448
 20
249.077
 11
44.0451
 21
249.561
  0
LINE
  8
0
 10
44.0451
 20
249.561
 11
44.3815
 21
250.091
  0
LINE
  8
0
 10
44.3815
 20
250.091
 11
44.6489
 21
250.659
  0
LINE
  8
0
 10
44.6489
 20
250.659
 11
44.8429
 21
251.257
  0
LINE
  8
0
 10
44.8429
 20
251.257
 11
44.9606
 21
251.873
  0
LINE
  8
0
 10
44.9606
 20
251.873
 11
45
 21
252.5
  0
LINE
  8
0
 10
45
 20
252.5
 11
45
 21
287.5
  0
LINE
  8
0
 10
45
 20
287.5
 11
44.9606
 21
288.127
  0
LINE
  8
0
 10
44.9606
 20
288.127
 11
44.8429
 21
288.743
  0
LINE
  8
0
 10
44.8429
 20
288.743
 11
44.6489
 21
289.341
  0
LINE
  8
0
 10
44.6489
 20
289.341
 11
44.3815
 21
289.909
  0
LINE
  8
0
 10
44.3815
 20
289.909
 11
44.0451
 21
290.439
  0
LINE
  8
0
 10
44.0451
 20
290.439
 11
43.6448
 21
290.923
  0
LINE
  8
0
 10
43.6448
 20
290.923
 11
43.1871
 21
291.353
  0
LINE
  8
0
 10
43.1871
 20
291.353
 11
42.6791
 21
291.722
  0
LINE
  8
0
 10
42.6791
 20
291.722
 11
42.1289
 21
292.024
  0
LINE
  8
0
 10
42.1289
 20
292.024
 11
41.5451
 21
292.255
  0
LINE
  8
0
 10
41.5451
 20
292.255
 11
40.9369
 21
292.411
  0
LINE
  8
0
 10
40.9369
 20
292.411
 11
40.3139
 21
292.49
  0
LINE
  8
0
 10
40.3139
 20
292.49
 11
-40.3139
 21
292.49
  0
LINE
  8
0
 10
-40.3139
 20
292.49
 11
-40.9369
 21
292.411
  0
LINE
  8
0
 10
-40.9369
 20
292.411
 11
-41.5451
 21
292.255
  0
LINE
  8
0
 10
-41.5451
 20
292.255
 11
-42.1289
 21
292.024
  0
LINE
  8
0
 10
-42.1289
 20
292.024
 11
-42.6791
 21
291.722
  0
LINE
  8
0
 10
-42.6791
 20
291.722
 11
-43.1871
 21
291.353
  0
LINE
  8
0
 10
-43.1871
 20
291.353
 11
-43.6448
 21
290.923
  0
LINE
  8
0
 10
-43.6448
 20
290.923
 11
-44.0451
 21
290.439
  0
LINE
  8
0
 10
-44.0451
 20
290.439
 11
-44.3815
 21
289.909
  0
LINE
  8
0
 10
-44.3815
 20
289.909
 11
-44.6489
 21
289.341
  0
LINE
  8
0
 10
-44.6489
 20
289.341
 11
-44.8429
 21
288.743
  0
LINE
  8
0
 10
-44.8429
 20
288.743
 11
-44.9606
 21
288.127
  0
LINE
  8
0
 10
-44.9606
 20
288.127
 11
-45
 21
287.5
  0
LINE
  8
0
 10
-45
 20
287.5
 11
-45
 21
252.5
  0
LINE
  8
0
 10
-45
 20
252.5
 11
-44.9606
 21
251.873
  0
LINE
  8
0
 10
-44.9606
 20
251.873
 11
-44.8429
 21
251.257
  0
LINE
  8
0
 10
-44.8429
 20
251.257
 11
-44.6489
 21
250.659
  0
LINE
  8
0
 10
-44.6489
 20
250.659
 11
-44.3815
 21
250.091
  0
LINE
  8
0
 10
-44.3815
 20
250.091
 11
-44.0451
 21
249.561
  0
LINE
  8
0
 10
-44.0451
 20
249.561
 11
-43.6448
 21
249.077
  0
LINE
  8
0
 10
-43.6448
 20
249.077
 11
-43.1871
 21
248.647
  0
LINE
  8
0
 10
-43.1871
 20
248.647
 11
-42.6791
 21
248.278
  0
LINE
  8
0
 10
-42.6791
 20
248.278
 11
-42.1289
 21
247.976
  0
LINE
  8
0
 10
-42.1289
 20
247.976
 11
-41.5451
 21
247.745
  0
LINE
  8
0
 10
-41.5451
 20
247.745
 11
-40.9369
 21
247.589
  0
LINE
  8
0
 10
-40.9369
 20
247.589
 11
-40.3139
 21
247.51
  0
LINE
  8
0
 10
-40.3139
 20
247.51
 11
40.3139
 21
247.51
  0
LINE
  8
0
 10
40.3139
 20
247.51
 11
40.9369
 21
247.589
  0
LINE
  8
0
 10
-39.8825
 20
250.645
 11
-40.1453
 21
250.678
  0
LINE
  8
0
 10
-40.1453
 20
250.678
 11
-40.4019
 21
250.744
  0
LINE
  8
0
 10
-40.4019
 20
250.744
 11
-40.6482
 21
250.841
  0
LINE
  8
0
 10
-40.6482
 20
250.841
 11
-40.8804
 21
250.969
  0
LINE
  8
0
 10
-40.8804
 20
250.969
 11
-41.0947
 21
251.125
  0
LINE
  8
0
 10
-41.0947
 20
251.125
 11
-41.2879
 21
251.306
  0
LINE
  8
0
 10
-41.2879
 20
251.306
 11
-41.4567
 21
251.51
  0
LINE
  8
0
 10
-41.4567
 20
251.51
 11
-41.5987
 21
251.734
  0
LINE
  8
0
 10
-41.5987
 20
251.734
 11
-41.7115
 21
251.973
  0
LINE
  8
0
 10
-41.7115
 20
251.973
 11
-41.7934
 21
252.225
  0
LINE
  8
0
 10
-41.7934
 20
252.225
 11
-41.843
 21
252.486
  0
LINE
  8
0
 10
-41.843
 20
252.486
 11
-41.8596
 21
252.75
  0
LINE
  8
0
 10
-41.8596
 20
252.75
 11
-41.8596
 21
287.25
  0
LINE
  8
0
 10
-41.8596
 20
287.25
 11
-41.843
 21
287.514
  0
LINE
  8
0
 10
-41.843
 20
287.514
 11
-41.7934
 21
287.775
  0
LINE
  8
0
 10
-41.7934
 20
287.775
 11
-41.7115
 21
288.027
  0
LINE
  8
0
 10
-41.7115
 20
288.027
 11
-41.5987
 21
288.266
  0
LINE
  8
0
 10
-41.5987
 20
288.266
 11
-41.4567
 21
288.49
  0
LINE
  8
0
 10
-41.4567
 20
288.49
 11
-41.2879
 21
288.694
  0
LINE
  8
0
 10
-41.2879
 20
288.694
 11
-41.0947
 21
288.875
  0
LINE
  8
0
 10
-41.0947
 20
288.875
 11
-40.8804
 21
289.031
  0
LINE
  8
0
 10
-40.8804
 20
289.031
 11
-40.6482
 21
289.159
  0
LINE
  8
0
 10
-40.6482
 20
289.159
 11
-40.4019
 21
289.256
  0
LINE
  8
0
 10
-40.4019
 20
289.256
 11
-40.1453
 21
289.322
  0
LINE
  8
0
 10
-40.1453
 20
289.322
 11
-39.8825
 21
289.355
  0
LINE
  8
0
 10
-39.8825
 20
289.355
 11
39.8825
 21
289.355
  0
LINE
  8
0
 10
39.8825
 20
289.355
 11
40.1453
 21
289.322
  0
LINE
  8
0
 10
40.1453
 20
289.322
 11
40.4019
 21
289.256
  0
LINE
  8
0
 10
40.4019
 20
289.256
 11
40.6482
 21
289.159
  0
LINE
  8
0
 10
40.6482
 20
289.159
 11
40.8804
 21
289.031
  0
LINE
  8
0
 10
40.8804
 20
289.031
 11
41.0947
 21
288.875
  0
LINE
  8
0
 10
41.0947
 20
288.875
 11
41.2879
 21
288.694
  0
LINE
  8
0
 10
41.2879
 20
288.694
 11
41.4567
 21
288.49
  0
LINE
  8
0
 10
41.4567
 20
288.49
 11
41.5987
 21
288.266
  0
LINE
  8
0
 10
41.5987
 20
288.266
 11
41.7115
 21
288.027
  0
LINE
  8
0
 10
41.7115
 20
288.027
 11
41.7934
 21
287.775
  0
LINE
  8
0
 10
41.7934
 20
287.775
 11
41.843
 21
287.514
  0
LINE
  8
0
 10
41.843
 20
287.514
 11
41.8596
 21
287.25
  0
LINE
  8
0
 10
41.8596
 20
287.25
 11
41.8596
 21
252.75
  0
LINE
  8
0
 10
41.8596
 20
252.75
 11
41.843
 21
252.486
  0
LINE
  8
0
 10
41.843
 20
252.486
 11
41.7934
 21
252.225
  0
LINE
  8
0
 10
41.7934
 20
252.225
 11
41.7115
 21
251.973
  0
LINE
  8
0
 10
41.7115
 20
251.973
 11
41.5987
 21
251.734
  0
LINE
  8
0
 10
41.5987
 20
251.734
 11
41.4567
 21
251.51
  0
LINE
  8
0
 10
41.4567
 20
251.51
 11
41.2879
 21
251.306
  0
LINE
  8
0
 10
41.2879
 20
251.306
 11
41.0947
 21
251.125
  0
LINE
  8
0
 10
41.0947
 20
251.125
 11
40.8804
 21
250.969
  0
LINE
  8
0
 10
40.8804
 20
250.969
 11
40.6482
 21
250.841
  0
LINE
  8
0
 10
40.6482
 20
250.841
 11
40.4019
 21
250.744
  0
LINE
  8
0
 10
40.4019
 20
250.744
 11
40.1453
 21
250.678
  0
LINE
  8
0
 10
40.1453
 20
250.678
 11
39.8825
 21
250.645
  0
LINE
  8
0
 10
39.8825
 20
250.645
 11
-39.8825
 21
250.645
  0
ENDSEC
  0
SECTION
  2
OBJECTS
  0
DICTIONARY
  0
ENDSEC
  0
EOF
