<?xml version="1.0" standalone="no"?>
<!DOCTYPE svg PUBLIC "-//W3C//DTD SVG 1.1//EN" "http://www.w3.org/Graphics/SVG/1.1/DTD/svg11.dtd">
<svg width="30mm" height="220mm" viewBox="-15 -281 30 220" xmlns="http://www.w3.org/2000/svg" version="1.1">
<title>OpenSCAD Model</title>
<path d="
M 10.9369,-175.589 L 11.5451,-175.745 L 12.1289,-175.976 L 12.6791,-176.278 L 13.1871,-176.647 L 13.6448,-177.077
 L 14.0451,-177.561 L 14.3815,-178.091 L 14.6489,-178.659 L 14.8429,-179.257 L 14.9606,-179.873 L 15,-180.5
 L 15,-275.5 L 14.9606,-276.127 L 14.8429,-276.743 L 14.6489,-277.341 L 14.3815,-277.909 L 14.0451,-278.439
 L 13.6448,-278.923 L 13.1871,-279.353 L 12.6791,-279.722 L 12.1289,-280.024 L 11.5451,-280.255 L 10.9369,-280.411
 L 10.3139,-280.49 L -10.3139,-280.49 L -10.9369,-280.411 L -11.5451,-280.255 L -12.1289,-280.024 L -12.6791,-279.722
 L -13.1871,-279.353 L -13.6448,-278.923 L -14.0451,-278.439 L -14.3815,-277.909 L -14.6489,-277.341 L -14.8429,-276.743
 L -14.9606,-276.127 L -15,-275.5 L -15,-180.5 L -14.9606,-179.873 L -14.8429,-179.257 L -14.6489,-178.659
 L -14.3815,-178.091 L -14.0451,-177.561 L -13.6448,-177.077 L -13.1871,-176.647 L -12.6791,-176.278 L -12.1289,-175.976
 L -11.5451,-175.745 L -10.9369,-175.589 L -10.3139,-175.51 L 10.3139,-175.51 z
M 10.9369,-61.5886 L 11.5451,-61.7447 L 12.1289,-61.9759 L 12.6791,-62.2784 L 13.1871,-62.6474 L 13.6448,-63.0773
 L 14.0451,-63.5611 L 14.3815,-64.0912 L 14.6489,-64.6594 L 14.8429,-65.2566 L 14.9606,-65.8733 L 15,-66.5
 L 15,-161.5 L 14.9606,-162.127 L 14.8429,-162.743 L 14.6489,-163.341 L 14.3815,-163.909 L 14.0451,-164.439
 L 13.6448,-164.923 L 13.1871,-165.353 L 12.6791,-165.722 L 12.1289,-166.024 L 11.5451,-166.255 L 10.9369,-166.411
 L 10.3139,-166.49 L -10.3139,-166.49 L -10.9369,-166.411 L -11.5451,-166.255 L -12.1289,-166.024 L -12.6791,-165.722
 L -13.1871,-165.353 L -13.6448,-164.923 L -14.0451,-164.439 L -14.3815,-163.909 L -14.6489,-163.341 L -14.8429,-162.743
 L -14.9606,-162.127 L -15,-161.5 L -15,-66.5 L -14.9606,-65.8733 L -14.8429,-65.2566 L -14.6489,-64.6594
 L -14.3815,-64.0912 L -14.0451,-63.5611 L -13.6448,-63.0773 L -13.1871,-62.6474 L -12.6791,-62.2784 L -12.1289,-61.9759
 L -11.5451,-61.7447 L -10.9369,-61.5886 L -10.3139,-61.5099 L 10.3139,-61.5099 z
M 7.38696,-157.204 L 7.1627,-157.232 L 6.94376,-157.288 L 6.7336,-157.371 L 6.53551,-157.48 L 6.35263,-157.613
 L 6.18785,-157.768 L 6.04376,-157.942 L 5.92264,-158.133 L 5.8264,-158.337 L 5.75655,-158.552 L 5.71419,-158.774
 L 5.7,-159 L 5.71419,-159.226 L 5.75655,-159.448 L 5.8264,-159.663 L 5.92264,-159.867 L 6.04376,-160.058
 L 6.18785,-160.232 L 6.35263,-160.387 L 6.53551,-160.52 L 6.7336,-160.629 L 6.94376,-160.712 L 7.1627,-160.768
 L 7.38696,-160.796 L 7.61302,-160.796 L 7.83728,-160.768 L 8.05623,-160.712 L 8.26639,-160.629 L 8.46448,-160.52
 L 8.64735,-160.387 L 8.81213,-160.232 L 8.95622,-160.058 L 9.07735,-159.867 L 9.17358,-159.663 L 9.24344,-159.448
 L 9.2858,-159.226 L 9.29999,-159 L 9.2858,-158.774 L 9.24344,-158.552 L 9.17358,-158.337 L 9.07735,-158.133
 L 8.95622,-157.942 L 8.81213,-157.768 L 8.64735,-157.613 L 8.46448,-157.48 L 8.26639,-157.371 L 8.05623,-157.288
 L 7.83728,-157.232 L 7.61302,-157.204 z
M -7.61302,-157.204 L -7.83728,-157.232 L -8.05623,-157.288 L -8.26639,-157.371 L -8.46448,-157.48 L -8.64735,-157.613
 L -8.81213,-157.768 L -8.95622,-157.942 L -9.07735,-158.133 L -9.17358,-158.337 L -9.24344,-158.552 L -9.2858,-158.774
 L -9.29999,-159 L -9.2858,-159.226 L -9.24344,-159.448 L -9.17358,-159.663 L -9.07735,-159.867 L -8.95622,-160.058
 L -8.81213,-160.232 L -8.64735,-160.387 L -8.46448,-160.52 L -8.26639,-160.629 L -8.05623,-160.712 L -7.83728,-160.768
 L -7.61302,-160.796 L -7.38696,-160.796 L -7.1627,-160.768 L -6.94376,-160.712 L -6.7336,-160.629 L -6.53551,-160.52
 L -6.35263,-160.387 L -6.18785,-160.232 L -6.04376,-160.058 L -5.92264,-159.867 L -5.8264,-159.663 L -5.75655,-159.448
 L -5.71419,-159.226 L -5.7,-159 L -5.71419,-158.774 L -5.75655,-158.552 L -5.8264,-158.337 L -5.92264,-158.133
 L -6.04376,-157.942 L -6.18785,-157.768 L -6.35263,-157.613 L -6.53551,-157.48 L -6.7336,-157.371 L -6.94376,-157.288
 L -7.1627,-157.232 L -7.38696,-157.204 z
M -7.61302,-67.2036 L -7.83728,-67.2319 L -8.05623,-67.2881 L -8.26639,-67.3713 L -8.46448,-67.4802 L -8.64735,-67.6131
 L -8.81213,-67.7678 L -8.95622,-67.942 L -9.07735,-68.1328 L -9.17358,-68.3374 L -9.24344,-68.5524 L -9.2858,-68.7744
 L -9.29999,-69 L -9.2858,-69.2256 L -9.24344,-69.4476 L -9.17358,-69.6626 L -9.07735,-69.8672 L -8.95622,-70.058
 L -8.81213,-70.2322 L -8.64735,-70.3869 L -8.46448,-70.5198 L -8.26639,-70.6287 L -8.05623,-70.7119 L -7.83728,-70.7681
 L -7.61302,-70.7964 L -7.38696,-70.7964 L -7.1627,-70.7681 L -6.94376,-70.7119 L -6.7336,-70.6287 L -6.53551,-70.5198
 L -6.35263,-70.3869 L -6.18785,-70.2322 L -6.04376,-70.058 L -5.92264,-69.8672 L -5.8264,-69.6626 L -5.75655,-69.4476
 L -5.71419,-69.2256 L -5.7,-69 L -5.71419,-68.7744 L -5.75655,-68.5524 L -5.8264,-68.3374 L -5.92264,-68.1328
 L -6.04376,-67.942 L -6.18785,-67.7678 L -6.35263,-67.6131 L -6.53551,-67.4802 L -6.7336,-67.3713 L -6.94376,-67.2881
 L -7.1627,-67.2319 L -7.38696,-67.2036 z
M 7.38696,-67.2036 L 7.1627,-67.2319 L 6.94376,-67.2881 L 6.7336,-67.3713 L 6.53551,-67.4802 L 6.35263,-67.6131
 L 6.18785,-67.7678 L 6.04376,-67.942 L 5.92264,-68.1328 L 5.8264,-68.3374 L 5.75655,-68.5524 L 5.71419,-68.7744
 L 5.7,-69 L 5.71419,-69.2256 L 5.75655,-69.4476 L 5.8264,-69.6626 L 5.92264,-69.8672 L 6.04376,-70.058
 L 6.18785,-70.2322 L 6.35263,-70.3869 L 6.53551,-70.5198 L 6.7336,-70.6287 L 6.94376,-70.7119 L 7.1627,-70.7681
 L 7.38696,-70.7964 L 7.61302,-70.7964 L 7.83728,-70.7681 L 8.05623,-70.7119 L 8.26639,-70.6287 L 8.46448,-70.5198
 L 8.64735,-70.3869 L 8.81213,-70.2322 L 8.95622,-70.058 L 9.07735,-69.8672 L 9.17358,-69.6626 L 9.24344,-69.4476
 L 9.2858,-69.2256 L 9.29999,-69 L 9.2858,-68.7744 L 9.24344,-68.5524 L 9.17358,-68.3374 L 9.07735,-68.1328
 L 8.95622,-67.942 L 8.81213,-67.7678 L 8.64735,-67.6131 L 8.46448,-67.4802 L 8.26639,-67.3713 L 8.05623,-67.2881
 L 7.83728,-67.2319 L 7.61302,-67.2036 z
" stroke="black" fill="lightgray" stroke-width="0.5"/>
</svg>
