<?xml version="1.0" standalone="no"?>
<!DOCTYPE svg PUBLIC "-//W3C//DTD SVG 1.1//EN" "http://www.w3.org/Graphics/SVG/1.1/DTD/svg11.dtd">
<svg width="90mm" height="64mm" viewBox="-45 -104 90 64" xmlns="http://www.w3.org/2000/svg" version="1.1">
<title>OpenSCAD Model</title>
<path d="
M 40.9369,-88.5886 L 41.5451,-88.7447 L 42.1289,-88.9759 L 42.6791,-89.2784 L 43.1871,-89.6474 L 43.6448,-90.0773
 L 44.0451,-90.5611 L 44.3815,-91.0912 L 44.6489,-91.6594 L 44.8429,-92.2566 L 44.9606,-92.8733 L 45,-93.5
 L 45,-98.5 L 44.9606,-99.1267 L 44.8429,-99.7434 L 44.6489,-100.341 L 44.3815,-100.909 L 44.0451,-101.439
 L 43.6448,-101.923 L 43.1871,-102.353 L 42.6791,-102.722 L 42.1289,-103.024 L 41.5451,-103.255 L 40.9369,-103.411
 L 40.3139,-103.49 L -40.3139,-103.49 L -40.9369,-103.411 L -41.5451,-103.255 L -42.1289,-103.024 L -42.6791,-102.722
 L -43.1871,-102.353 L -43.6448,-101.923 L -44.0451,-101.439 L -44.3815,-100.909 L -44.6489,-100.341 L -44.8429,-99.7434
 L -44.9606,-99.1267 L -45,-98.5 L -45,-93.5 L -44.9606,-92.8733 L -44.8429,-92.2566 L -44.6489,-91.6594
 L -44.3815,-91.0912 L -44.0451,-90.5611 L -43.6448,-90.0773 L -43.1871,-89.6474 L -42.6791,-89.2784 L -42.1289,-88.9759
 L -41.5451,-88.7447 L -40.9369,-88.5886 L -40.3139,-88.5099 L 40.3139,-88.5099 z
M -40.0482,-89.0094 L -40.6401,-89.0841 L -41.2178,-89.2325 L -41.7724,-89.4521 L -42.2952,-89.7395 L -42.7778,-90.0901
 L -43.2126,-90.4984 L -43.5928,-90.958 L -43.9124,-91.4617 L -44.1664,-92.0014 L -44.3508,-92.5687 L -44.4625,-93.1547
 L -44.5,-93.75 L -44.5,-98.25 L -44.4625,-98.8453 L -44.3508,-99.4313 L -44.1664,-99.9986 L -43.9124,-100.538
 L -43.5928,-101.042 L -43.2126,-101.502 L -42.7778,-101.91 L -42.2952,-102.261 L -41.7724,-102.548 L -41.2178,-102.768
 L -40.6401,-102.916 L -40.0482,-102.991 L 40.0482,-102.991 L 40.6401,-102.916 L 41.2178,-102.768 L 41.7724,-102.548
 L 42.2952,-102.261 L 42.7778,-101.91 L 43.2126,-101.502 L 43.5928,-101.042 L 43.9124,-100.538 L 44.1664,-99.9986
 L 44.3508,-99.4313 L 44.4625,-98.8453 L 44.5,-98.25 L 44.5,-93.75 L 44.4625,-93.1547 L 44.3508,-92.5687
 L 44.1664,-92.0014 L 43.9124,-91.4617 L 43.5928,-90.958 L 43.2126,-90.4984 L 42.7778,-90.0901 L 42.2952,-89.7395
 L 41.7724,-89.4521 L 41.2178,-89.2325 L 40.6401,-89.0841 L 40.0482,-89.0094 z
M 40.9369,-64.5886 L 41.5451,-64.7447 L 42.1289,-64.9759 L 42.6791,-65.2784 L 43.1871,-65.6474 L 43.6448,-66.0773
 L 44.0451,-66.5611 L 44.3815,-67.0912 L 44.6489,-67.6594 L 44.8429,-68.2566 L 44.9606,-68.8733 L 45,-69.5
 L 45,-74.5 L 44.9606,-75.1267 L 44.8429,-75.7434 L 44.6489,-76.3406 L 44.3815,-76.9088 L 44.0451,-77.4389
 L 43.6448,-77.9227 L 43.1871,-78.3526 L 42.6791,-78.7216 L 42.1289,-79.0241 L 41.5451,-79.2553 L 40.9369,-79.4114
 L 40.3139,-79.4901 L -40.3139,-79.4901 L -40.9369,-79.4114 L -41.5451,-79.2553 L -42.1289,-79.0241 L -42.6791,-78.7216
 L -43.1871,-78.3526 L -43.6448,-77.9227 L -44.0451,-77.4389 L -44.3815,-76.9088 L -44.6489,-76.3406 L -44.8429,-75.7434
 L -44.9606,-75.1267 L -45,-74.5 L -45,-69.5 L -44.9606,-68.8733 L -44.8429,-68.2566 L -44.6489,-67.6594
 L -44.3815,-67.0912 L -44.0451,-66.5611 L -43.6448,-66.0773 L -43.1871,-65.6474 L -42.6791,-65.2784 L -42.1289,-64.9759
 L -41.5451,-64.7447 L -40.9369,-64.5886 L -40.3139,-64.5099 L 40.3139,-64.5099 z
M -39.993,-65.8882 L -40.4751,-65.9491 L -40.9457,-66.0699 L -41.3975,-66.2488 L -41.8234,-66.4829 L -42.2165,-66.7685
 L -42.5707,-67.1012 L -42.8805,-67.4756 L -43.1408,-67.8859 L -43.3477,-68.3256 L -43.4979,-68.7877 L -43.589,-69.265
 L -43.6195,-69.75 L -43.6195,-74.25 L -43.589,-74.735 L -43.4979,-75.2123 L -43.3477,-75.6744 L -43.1408,-76.1141
 L -42.8805,-76.5244 L -42.5707,-76.8988 L -42.2165,-77.2315 L -41.8234,-77.5171 L -41.3975,-77.7512 L -40.9457,-77.9301
 L -40.4751,-78.0509 L -39.993,-78.1118 L 39.993,-78.1118 L 40.4751,-78.0509 L 40.9457,-77.9301 L 41.3975,-77.7512
 L 41.8234,-77.5171 L 42.2165,-77.2315 L 42.5707,-76.8988 L 42.8805,-76.5244 L 43.1408,-76.1141 L 43.3477,-75.6744
 L 43.4979,-75.2123 L 43.589,-74.735 L 43.6195,-74.25 L 43.6195,-69.75 L 43.589,-69.265 L 43.4979,-68.7877
 L 43.3477,-68.3256 L 43.1408,-67.8859 L 42.8805,-67.4756 L 42.5707,-67.1012 L 42.2165,-66.7685 L 41.8234,-66.4829
 L 41.3975,-66.2488 L 40.9457,-66.0699 L 40.4751,-65.9491 L 39.993,-65.8882 z
M 40.9369,-40.5886 L 41.5451,-40.7447 L 42.1289,-40.9759 L 42.6791,-41.2784 L 43.1871,-41.6474 L 43.6448,-42.0773
 L 44.0451,-42.5611 L 44.3815,-43.0912 L 44.6489,-43.6594 L 44.8429,-44.2566 L 44.9606,-44.8733 L 45,-45.5
 L 45,-50.5 L 44.9606,-51.1267 L 44.8429,-51.7434 L 44.6489,-52.3406 L 44.3815,-52.9088 L 44.0451,-53.4389
 L 43.6448,-53.9227 L 43.1871,-54.3526 L 42.6791,-54.7216 L 42.1289,-55.0241 L 41.5451,-55.2553 L 40.9369,-55.4114
 L 40.3139,-55.4901 L -40.3139,-55.4901 L -40.9369,-55.4114 L -41.5451,-55.2553 L -42.1289,-55.0241 L -42.6791,-54.7216
 L -43.1871,-54.3526 L -43.6448,-53.9227 L -44.0451,-53.4389 L -44.3815,-52.9088 L -44.6489,-52.3406 L -44.8429,-51.7434
 L -44.9606,-51.1267 L -45,-50.5 L -45,-45.5 L -44.9606,-44.8733 L -44.8429,-44.2566 L -44.6489,-43.6594
 L -44.3815,-43.0912 L -44.0451,-42.5611 L -43.6448,-42.0773 L -43.1871,-41.6474 L -42.6791,-41.2784 L -42.1289,-40.9759
 L -41.5451,-40.7447 L -40.9369,-40.5886 L -40.3139,-40.5099 L 40.3139,-40.5099 z
M -37.613,-46.2036 L -37.8373,-46.2319 L -38.0562,-46.2881 L -38.2664,-46.3713 L -38.4645,-46.4802 L -38.6474,-46.6131
 L -38.8121,-46.7678 L -38.9562,-46.942 L -39.0773,-47.1329 L -39.1736,-47.3374 L -39.2434,-47.5524 L -39.2858,-47.7744
 L -39.3,-48 L -39.2858,-48.2256 L -39.2434,-48.4476 L -39.1736,-48.6626 L -39.0773,-48.8671 L -38.9562,-49.058
 L -38.8121,-49.2322 L -38.6474,-49.3869 L -38.4645,-49.5198 L -38.2664,-49.6287 L -38.0562,-49.7119 L -37.8373,-49.7681
 L -37.613,-49.7964 L -37.387,-49.7964 L -37.1627,-49.7681 L -36.9438,-49.7119 L -36.7336,-49.6287 L -36.5355,-49.5198
 L -36.3526,-49.3869 L -36.1879,-49.2322 L -36.0438,-49.058 L -35.9226,-48.8671 L -35.8264,-48.6626 L -35.7565,-48.4476
 L -35.7142,-48.2256 L -35.7,-48 L -35.7142,-47.7744 L -35.7565,-47.5524 L -35.8264,-47.3374 L -35.9226,-47.1329
 L -36.0438,-46.942 L -36.1879,-46.7678 L -36.3526,-46.6131 L -36.5355,-46.4802 L -36.7336,-46.3713 L -36.9438,-46.2881
 L -37.1627,-46.2319 L -37.387,-46.2036 z
M 37.387,-46.2036 L 37.1627,-46.2319 L 36.9438,-46.2881 L 36.7336,-46.3713 L 36.5355,-46.4802 L 36.3526,-46.6131
 L 36.1879,-46.7678 L 36.0438,-46.942 L 35.9226,-47.1329 L 35.8264,-47.3374 L 35.7565,-47.5524 L 35.7142,-47.7744
 L 35.7,-48 L 35.7142,-48.2256 L 35.7565,-48.4476 L 35.8264,-48.6626 L 35.9226,-48.8671 L 36.0438,-49.058
 L 36.1879,-49.2322 L 36.3526,-49.3869 L 36.5355,-49.5198 L 36.7336,-49.6287 L 36.9438,-49.7119 L 37.1627,-49.7681
 L 37.387,-49.7964 L 37.613,-49.7964 L 37.8373,-49.7681 L 38.0562,-49.7119 L 38.2664,-49.6287 L 38.4645,-49.5198
 L 38.6474,-49.3869 L 38.8121,-49.2322 L 38.9562,-49.058 L 39.0773,-48.8671 L 39.1736,-48.6626 L 39.2434,-48.4476
 L 39.2858,-48.2256 L 39.3,-48 L 39.2858,-47.7744 L 39.2434,-47.5524 L 39.1736,-47.3374 L 39.0773,-47.1329
 L 38.9562,-46.942 L 38.8121,-46.7678 L 38.6474,-46.6131 L 38.4645,-46.4802 L 38.2664,-46.3713 L 38.0562,-46.2881
 L 37.8373,-46.2319 L 37.613,-46.2036 z
" stroke="black" fill="lightgray" stroke-width="0.5"/>
</svg>
