  0
SECTION
  2
BLOCKS
  0
ENDSEC
  0
SECTION
  2
ENTITIES
  0
LINE
  8
0
 10
63.4369
 20
102.089
 11
64.0451
 21
102.245
  0
LINE
  8
0
 10
64.0451
 20
102.245
 11
64.6289
 21
102.476
  0
LINE
  8
0
 10
64.6289
 20
102.476
 11
65.1791
 21
102.778
  0
LINE
  8
0
 10
65.1791
 20
102.778
 11
65.6871
 21
103.147
  0
LINE
  8
0
 10
65.6871
 20
103.147
 11
66.1448
 21
103.577
  0
LINE
  8
0
 10
66.1448
 20
103.577
 11
66.5451
 21
104.061
  0
LINE
  8
0
 10
66.5451
 20
104.061
 11
66.8815
 21
104.591
  0
LINE
  8
0
 10
66.8815
 20
104.591
 11
67.1489
 21
105.159
  0
LINE
  8
0
 10
67.1489
 20
105.159
 11
67.3429
 21
105.757
  0
LINE
  8
0
 10
67.3429
 20
105.757
 11
67.4606
 21
106.373
  0
LINE
  8
0
 10
67.4606
 20
106.373
 11
67.5
 21
107
  0
LINE
  8
0
 10
67.5
 20
107
 11
67.5
 21
127
  0
LINE
  8
0
 10
67.5
 20
127
 11
67.4606
 21
127.627
  0
LINE
  8
0
 10
67.4606
 20
127.627
 11
67.3429
 21
128.243
  0
LINE
  8
0
 10
67.3429
 20
128.243
 11
67.1489
 21
128.841
  0
LINE
  8
0
 10
67.1489
 20
128.841
 11
66.8815
 21
129.409
  0
LINE
  8
0
 10
66.8815
 20
129.409
 11
66.5451
 21
129.939
  0
LINE
  8
0
 10
66.5451
 20
129.939
 11
66.1448
 21
130.423
  0
LINE
  8
0
 10
66.1448
 20
130.423
 11
65.6871
 21
130.853
  0
LINE
  8
0
 10
65.6871
 20
130.853
 11
65.1791
 21
131.222
  0
LINE
  8
0
 10
65.1791
 20
131.222
 11
64.6289
 21
131.524
  0
LINE
  8
0
 10
64.6289
 20
131.524
 11
64.0451
 21
131.755
  0
LINE
  8
0
 10
64.0451
 20
131.755
 11
63.4369
 21
131.911
  0
LINE
  8
0
 10
63.4369
 20
131.911
 11
62.8139
 21
131.99
  0
LINE
  8
0
 10
62.8139
 20
131.99
 11
-62.8139
 21
131.99
  0
LINE
  8
0
 10
-62.8139
 20
131.99
 11
-63.4369
 21
131.911
  0
LINE
  8
0
 10
-63.4369
 20
131.911
 11
-64.0451
 21
131.755
  0
LINE
  8
0
 10
-64.0451
 20
131.755
 11
-64.6289
 21
131.524
  0
LINE
  8
0
 10
-64.6289
 20
131.524
 11
-65.1791
 21
131.222
  0
LINE
  8
0
 10
-65.1791
 20
131.222
 11
-65.6871
 21
130.853
  0
LINE
  8
0
 10
-65.6871
 20
130.853
 11
-66.1448
 21
130.423
  0
LINE
  8
0
 10
-66.1448
 20
130.423
 11
-66.5451
 21
129.939
  0
LINE
  8
0
 10
-66.5451
 20
129.939
 11
-66.8815
 21
129.409
  0
LINE
  8
0
 10
-66.8815
 20
129.409
 11
-67.1489
 21
128.841
  0
LINE
  8
0
 10
-67.1489
 20
128.841
 11
-67.3429
 21
128.243
  0
LINE
  8
0
 10
-67.3429
 20
128.243
 11
-67.4606
 21
127.627
  0
LINE
  8
0
 10
-67.4606
 20
127.627
 11
-67.5
 21
127
  0
LINE
  8
0
 10
-67.5
 20
127
 11
-67.5
 21
107
  0
LINE
  8
0
 10
-67.5
 20
107
 11
-67.4606
 21
106.373
  0
LINE
  8
0
 10
-67.4606
 20
106.373
 11
-67.3429
 21
105.757
  0
LINE
  8
0
 10
-67.3429
 20
105.757
 11
-67.1489
 21
105.159
  0
LINE
  8
0
 10
-67.1489
 20
105.159
 11
-66.8815
 21
104.591
  0
LINE
  8
0
 10
-66.8815
 20
104.591
 11
-66.5451
 21
104.061
  0
LINE
  8
0
 10
-66.5451
 20
104.061
 11
-66.1448
 21
103.577
  0
LINE
  8
0
 10
-66.1448
 20
103.577
 11
-65.6871
 21
103.147
  0
LINE
  8
0
 10
-65.6871
 20
103.147
 11
-65.1791
 21
102.778
  0
LINE
  8
0
 10
-65.1791
 20
102.778
 11
-64.6289
 21
102.476
  0
LINE
  8
0
 10
-64.6289
 20
102.476
 11
-64.0451
 21
102.245
  0
LINE
  8
0
 10
-64.0451
 20
102.245
 11
-63.4369
 21
102.089
  0
LINE
  8
0
 10
-63.4369
 20
102.089
 11
-62.8139
 21
102.01
  0
LINE
  8
0
 10
-62.8139
 20
102.01
 11
62.8139
 21
102.01
  0
LINE
  8
0
 10
62.8139
 20
102.01
 11
63.4369
 21
102.089
  0
LINE
  8
0
 10
-62.5375
 20
102.681
 11
-63.1079
 21
102.753
  0
LINE
  8
0
 10
-63.1079
 20
102.753
 11
-63.6648
 21
102.896
  0
LINE
  8
0
 10
-63.6648
 20
102.896
 11
-64.1994
 21
103.107
  0
LINE
  8
0
 10
-64.1994
 20
103.107
 11
-64.7032
 21
103.384
  0
LINE
  8
0
 10
-64.7032
 20
103.384
 11
-65.1684
 21
103.722
  0
LINE
  8
0
 10
-65.1684
 20
103.722
 11
-65.5875
 21
104.116
  0
LINE
  8
0
 10
-65.5875
 20
104.116
 11
-65.954
 21
104.559
  0
LINE
  8
0
 10
-65.954
 20
104.559
 11
-66.2621
 21
105.044
  0
LINE
  8
0
 10
-66.2621
 20
105.044
 11
-66.5069
 21
105.565
  0
LINE
  8
0
 10
-66.5069
 20
105.565
 11
-66.6846
 21
106.111
  0
LINE
  8
0
 10
-66.6846
 20
106.111
 11
-66.7923
 21
106.676
  0
LINE
  8
0
 10
-66.7923
 20
106.676
 11
-66.8284
 21
107.25
  0
LINE
  8
0
 10
-66.8284
 20
107.25
 11
-66.8284
 21
126.75
  0
LINE
  8
0
 10
-66.8284
 20
126.75
 11
-66.7923
 21
127.324
  0
LINE
  8
0
 10
-66.7923
 20
127.324
 11
-66.6846
 21
127.889
  0
LINE
  8
0
 10
-66.6846
 20
127.889
 11
-66.5069
 21
128.435
  0
LINE
  8
0
 10
-66.5069
 20
128.435
 11
-66.2621
 21
128.956
  0
LINE
  8
0
 10
-66.2621
 20
128.956
 11
-65.954
 21
129.441
  0
LINE
  8
0
 10
-65.954
 20
129.441
 11
-65.5875
 21
129.884
  0
LINE
  8
0
 10
-65.5875
 20
129.884
 11
-65.1684
 21
130.278
  0
LINE
  8
0
 10
-65.1684
 20
130.278
 11
-64.7032
 21
130.616
  0
LINE
  8
0
 10
-64.7032
 20
130.616
 11
-64.1994
 21
130.893
  0
LINE
  8
0
 10
-64.1994
 20
130.893
 11
-63.6648
 21
131.104
  0
LINE
  8
0
 10
-63.6648
 20
131.104
 11
-63.1079
 21
131.247
  0
LINE
  8
0
 10
-63.1079
 20
131.247
 11
-62.5375
 21
131.319
  0
LINE
  8
0
 10
-62.5375
 20
131.319
 11
62.5375
 21
131.319
  0
LINE
  8
0
 10
62.5375
 20
131.319
 11
63.1079
 21
131.247
  0
LINE
  8
0
 10
63.1079
 20
131.247
 11
63.6648
 21
131.104
  0
LINE
  8
0
 10
63.6648
 20
131.104
 11
64.1994
 21
130.893
  0
LINE
  8
0
 10
64.1994
 20
130.893
 11
64.7032
 21
130.616
  0
LINE
  8
0
 10
64.7032
 20
130.616
 11
65.1684
 21
130.278
  0
LINE
  8
0
 10
65.1684
 20
130.278
 11
65.5875
 21
129.884
  0
LINE
  8
0
 10
65.5875
 20
129.884
 11
65.954
 21
129.441
  0
LINE
  8
0
 10
65.954
 20
129.441
 11
66.2621
 21
128.956
  0
LINE
  8
0
 10
66.2621
 20
128.956
 11
66.5069
 21
128.435
  0
LINE
  8
0
 10
66.5069
 20
128.435
 11
66.6846
 21
127.889
  0
LINE
  8
0
 10
66.6846
 20
127.889
 11
66.7923
 21
127.324
  0
LINE
  8
0
 10
66.7923
 20
127.324
 11
66.8284
 21
126.75
  0
LINE
  8
0
 10
66.8284
 20
126.75
 11
66.8284
 21
107.25
  0
LINE
  8
0
 10
66.8284
 20
107.25
 11
66.7923
 21
106.676
  0
LINE
  8
0
 10
66.7923
 20
106.676
 11
66.6846
 21
106.111
  0
LINE
  8
0
 10
66.6846
 20
106.111
 11
66.5069
 21
105.565
  0
LINE
  8
0
 10
66.5069
 20
105.565
 11
66.2621
 21
105.044
  0
LINE
  8
0
 10
66.2621
 20
105.044
 11
65.954
 21
104.559
  0
LINE
  8
0
 10
65.954
 20
104.559
 11
65.5875
 21
104.116
  0
LINE
  8
0
 10
65.5875
 20
104.116
 11
65.1684
 21
103.722
  0
LINE
  8
0
 10
65.1684
 20
103.722
 11
64.7032
 21
103.384
  0
LINE
  8
0
 10
64.7032
 20
103.384
 11
64.1994
 21
103.107
  0
LINE
  8
0
 10
64.1994
 20
103.107
 11
63.6648
 21
102.896
  0
LINE
  8
0
 10
63.6648
 20
102.896
 11
63.1079
 21
102.753
  0
LINE
  8
0
 10
63.1079
 20
102.753
 11
62.5375
 21
102.681
  0
LINE
  8
0
 10
62.5375
 20
102.681
 11
-62.5375
 21
102.681
  0
LINE
  8
0
 10
63.4369
 20
63.0886
 11
64.0451
 21
63.2447
  0
LINE
  8
0
 10
64.0451
 20
63.2447
 11
64.6289
 21
63.4759
  0
LINE
  8
0
 10
64.6289
 20
63.4759
 11
65.1791
 21
63.7784
  0
LINE
  8
0
 10
65.1791
 20
63.7784
 11
65.6871
 21
64.1474
  0
LINE
  8
0
 10
65.6871
 20
64.1474
 11
66.1448
 21
64.5773
  0
LINE
  8
0
 10
66.1448
 20
64.5773
 11
66.5451
 21
65.0611
  0
LINE
  8
0
 10
66.5451
 20
65.0611
 11
66.8815
 21
65.5912
  0
LINE
  8
0
 10
66.8815
 20
65.5912
 11
67.1489
 21
66.1594
  0
LINE
  8
0
 10
67.1489
 20
66.1594
 11
67.3429
 21
66.7566
  0
LINE
  8
0
 10
67.3429
 20
66.7566
 11
67.4606
 21
67.3733
  0
LINE
  8
0
 10
67.4606
 20
67.3733
 11
67.5
 21
68
  0
LINE
  8
0
 10
67.5
 20
68
 11
67.5
 21
88
  0
LINE
  8
0
 10
67.5
 20
88
 11
67.4606
 21
88.6267
  0
LINE
  8
0
 10
67.4606
 20
88.6267
 11
67.3429
 21
89.2434
  0
LINE
  8
0
 10
67.3429
 20
89.2434
 11
67.1489
 21
89.8406
  0
LINE
  8
0
 10
67.1489
 20
89.8406
 11
66.8815
 21
90.4088
  0
LINE
  8
0
 10
66.8815
 20
90.4088
 11
66.5451
 21
90.9389
  0
LINE
  8
0
 10
66.5451
 20
90.9389
 11
66.1448
 21
91.4227
  0
LINE
  8
0
 10
66.1448
 20
91.4227
 11
65.6871
 21
91.8526
  0
LINE
  8
0
 10
65.6871
 20
91.8526
 11
65.1791
 21
92.2216
  0
LINE
  8
0
 10
65.1791
 20
92.2216
 11
64.6289
 21
92.5241
  0
LINE
  8
0
 10
64.6289
 20
92.5241
 11
64.0451
 21
92.7553
  0
LINE
  8
0
 10
64.0451
 20
92.7553
 11
63.4369
 21
92.9114
  0
LINE
  8
0
 10
63.4369
 20
92.9114
 11
62.8139
 21
92.9901
  0
LINE
  8
0
 10
62.8139
 20
92.9901
 11
-62.8139
 21
92.9901
  0
LINE
  8
0
 10
-62.8139
 20
92.9901
 11
-63.4369
 21
92.9114
  0
LINE
  8
0
 10
-63.4369
 20
92.9114
 11
-64.0451
 21
92.7553
  0
LINE
  8
0
 10
-64.0451
 20
92.7553
 11
-64.6289
 21
92.5241
  0
LINE
  8
0
 10
-64.6289
 20
92.5241
 11
-65.1791
 21
92.2216
  0
LINE
  8
0
 10
-65.1791
 20
92.2216
 11
-65.6871
 21
91.8526
  0
LINE
  8
0
 10
-65.6871
 20
91.8526
 11
-66.1448
 21
91.4227
  0
LINE
  8
0
 10
-66.1448
 20
91.4227
 11
-66.5451
 21
90.9389
  0
LINE
  8
0
 10
-66.5451
 20
90.9389
 11
-66.8815
 21
90.4088
  0
LINE
  8
0
 10
-66.8815
 20
90.4088
 11
-67.1489
 21
89.8406
  0
LINE
  8
0
 10
-67.1489
 20
89.8406
 11
-67.3429
 21
89.2434
  0
LINE
  8
0
 10
-67.3429
 20
89.2434
 11
-67.4606
 21
88.6267
  0
LINE
  8
0
 10
-67.4606
 20
88.6267
 11
-67.5
 21
88
  0
LINE
  8
0
 10
-67.5
 20
88
 11
-67.5
 21
68
  0
LINE
  8
0
 10
-67.5
 20
68
 11
-67.4606
 21
67.3733
  0
LINE
  8
0
 10
-67.4606
 20
67.3733
 11
-67.3429
 21
66.7566
  0
LINE
  8
0
 10
-67.3429
 20
66.7566
 11
-67.1489
 21
66.1594
  0
LINE
  8
0
 10
-67.1489
 20
66.1594
 11
-66.8815
 21
65.5912
  0
LINE
  8
0
 10
-66.8815
 20
65.5912
 11
-66.5451
 21
65.0611
  0
LINE
  8
0
 10
-66.5451
 20
65.0611
 11
-66.1448
 21
64.5773
  0
LINE
  8
0
 10
-66.1448
 20
64.5773
 11
-65.6871
 21
64.1474
  0
LINE
  8
0
 10
-65.6871
 20
64.1474
 11
-65.1791
 21
63.7784
  0
LINE
  8
0
 10
-65.1791
 20
63.7784
 11
-64.6289
 21
63.4759
  0
LINE
  8
0
 10
-64.6289
 20
63.4759
 11
-64.0451
 21
63.2447
  0
LINE
  8
0
 10
-64.0451
 20
63.2447
 11
-63.4369
 21
63.0886
  0
LINE
  8
0
 10
-63.4369
 20
63.0886
 11
-62.8139
 21
63.0099
  0
LINE
  8
0
 10
-62.8139
 20
63.0099
 11
62.8139
 21
63.0099
  0
LINE
  8
0
 10
62.8139
 20
63.0099
 11
63.4369
 21
63.0886
  0
LINE
  8
0
 10
-62.3825
 20
66.1445
 11
-62.6453
 21
66.1777
  0
LINE
  8
0
 10
-62.6453
 20
66.1777
 11
-62.9019
 21
66.2436
  0
LINE
  8
0
 10
-62.9019
 20
66.2436
 11
-63.1482
 21
66.3412
  0
LINE
  8
0
 10
-63.1482
 20
66.3412
 11
-63.3804
 21
66.4688
  0
LINE
  8
0
 10
-63.3804
 20
66.4688
 11
-63.5947
 21
66.6245
  0
LINE
  8
0
 10
-63.5947
 20
66.6245
 11
-63.7879
 21
66.8059
  0
LINE
  8
0
 10
-63.7879
 20
66.8059
 11
-63.9567
 21
67.01
  0
LINE
  8
0
 10
-63.9567
 20
67.01
 11
-64.0987
 21
67.2337
  0
LINE
  8
0
 10
-64.0987
 20
67.2337
 11
-64.2115
 21
67.4734
  0
LINE
  8
0
 10
-64.2115
 20
67.4734
 11
-64.2934
 21
67.7254
  0
LINE
  8
0
 10
-64.2934
 20
67.7254
 11
-64.343
 21
67.9856
  0
LINE
  8
0
 10
-64.343
 20
67.9856
 11
-64.3596
 21
68.25
  0
LINE
  8
0
 10
-64.3596
 20
68.25
 11
-64.3596
 21
87.75
  0
LINE
  8
0
 10
-64.3596
 20
87.75
 11
-64.343
 21
88.0144
  0
LINE
  8
0
 10
-64.343
 20
88.0144
 11
-64.2934
 21
88.2746
  0
LINE
  8
0
 10
-64.2934
 20
88.2746
 11
-64.2115
 21
88.5266
  0
LINE
  8
0
 10
-64.2115
 20
88.5266
 11
-64.0987
 21
88.7663
  0
LINE
  8
0
 10
-64.0987
 20
88.7663
 11
-63.9567
 21
88.99
  0
LINE
  8
0
 10
-63.9567
 20
88.99
 11
-63.7879
 21
89.1941
  0
LINE
  8
0
 10
-63.7879
 20
89.1941
 11
-63.5947
 21
89.3755
  0
LINE
  8
0
 10
-63.5947
 20
89.3755
 11
-63.3804
 21
89.5312
  0
LINE
  8
0
 10
-63.3804
 20
89.5312
 11
-63.1482
 21
89.6588
  0
LINE
  8
0
 10
-63.1482
 20
89.6588
 11
-62.9019
 21
89.7564
  0
LINE
  8
0
 10
-62.9019
 20
89.7564
 11
-62.6453
 21
89.8223
  0
LINE
  8
0
 10
-62.6453
 20
89.8223
 11
-62.3825
 21
89.8555
  0
LINE
  8
0
 10
-62.3825
 20
89.8555
 11
62.3825
 21
89.8555
  0
LINE
  8
0
 10
62.3825
 20
89.8555
 11
62.6453
 21
89.8223
  0
LINE
  8
0
 10
62.6453
 20
89.8223
 11
62.9019
 21
89.7564
  0
LINE
  8
0
 10
62.9019
 20
89.7564
 11
63.1482
 21
89.6588
  0
LINE
  8
0
 10
63.1482
 20
89.6588
 11
63.3804
 21
89.5312
  0
LINE
  8
0
 10
63.3804
 20
89.5312
 11
63.5947
 21
89.3755
  0
LINE
  8
0
 10
63.5947
 20
89.3755
 11
63.7879
 21
89.1941
  0
LINE
  8
0
 10
63.7879
 20
89.1941
 11
63.9567
 21
88.99
  0
LINE
  8
0
 10
63.9567
 20
88.99
 11
64.0987
 21
88.7663
  0
LINE
  8
0
 10
64.0987
 20
88.7663
 11
64.2115
 21
88.5266
  0
LINE
  8
0
 10
64.2115
 20
88.5266
 11
64.2934
 21
88.2746
  0
LINE
  8
0
 10
64.2934
 20
88.2746
 11
64.343
 21
88.0144
  0
LINE
  8
0
 10
64.343
 20
88.0144
 11
64.3596
 21
87.75
  0
LINE
  8
0
 10
64.3596
 20
87.75
 11
64.3596
 21
68.25
  0
LINE
  8
0
 10
64.3596
 20
68.25
 11
64.343
 21
67.9856
  0
LINE
  8
0
 10
64.343
 20
67.9856
 11
64.2934
 21
67.7254
  0
LINE
  8
0
 10
64.2934
 20
67.7254
 11
64.2115
 21
67.4734
  0
LINE
  8
0
 10
64.2115
 20
67.4734
 11
64.0987
 21
67.2337
  0
LINE
  8
0
 10
64.0987
 20
67.2337
 11
63.9567
 21
67.01
  0
LINE
  8
0
 10
63.9567
 20
67.01
 11
63.7879
 21
66.8059
  0
LINE
  8
0
 10
63.7879
 20
66.8059
 11
63.5947
 21
66.6245
  0
LINE
  8
0
 10
63.5947
 20
66.6245
 11
63.3804
 21
66.4688
  0
LINE
  8
0
 10
63.3804
 20
66.4688
 11
63.1482
 21
66.3412
  0
LINE
  8
0
 10
63.1482
 20
66.3412
 11
62.9019
 21
66.2436
  0
LINE
  8
0
 10
62.9019
 20
66.2436
 11
62.6453
 21
66.1777
  0
LINE
  8
0
 10
62.6453
 20
66.1777
 11
62.3825
 21
66.1445
  0
LINE
  8
0
 10
62.3825
 20
66.1445
 11
-62.3825
 21
66.1445
  0
ENDSEC
  0
SECTION
  2
OBJECTS
  0
DICTIONARY
  0
ENDSEC
  0
EOF
