<?xml version="1.0" standalone="no"?>
<!DOCTYPE svg PUBLIC "-//W3C//DTD SVG 1.1//EN" "http://www.w3.org/Graphics/SVG/1.1/DTD/svg11.dtd">
<svg width="60mm" height="244mm" viewBox="-30 -374 60 244" xmlns="http://www.w3.org/2000/svg" version="1.1">
<title>OpenSCAD Model</title>
<path d="
M 25.9369,-298.589 L 26.5451,-298.745 L 27.1289,-298.976 L 27.6791,-299.278 L 28.1871,-299.647 L 28.6448,-300.077
 L 29.0451,-300.561 L 29.3815,-301.091 L 29.6489,-301.659 L 29.8429,-302.257 L 29.9606,-302.873 L 30,-303.5
 L 30,-368.5 L 29.9606,-369.127 L 29.8429,-369.743 L 29.6489,-370.341 L 29.3815,-370.909 L 29.0451,-371.439
 L 28.6448,-371.923 L 28.1871,-372.353 L 27.6791,-372.722 L 27.1289,-373.024 L 26.5451,-373.255 L 25.9369,-373.411
 L 25.3139,-373.49 L -25.3139,-373.49 L -25.9369,-373.411 L -26.5451,-373.255 L -27.1289,-373.024 L -27.6791,-372.722
 L -28.1871,-372.353 L -28.6448,-371.923 L -29.0451,-371.439 L -29.3815,-370.909 L -29.6489,-370.341 L -29.8429,-369.743
 L -29.9606,-369.127 L -30,-368.5 L -30,-303.5 L -29.9606,-302.873 L -29.8429,-302.257 L -29.6489,-301.659
 L -29.3815,-301.091 L -29.0451,-300.561 L -28.6448,-300.077 L -28.1871,-299.647 L -27.6791,-299.278 L -27.1289,-298.976
 L -26.5451,-298.745 L -25.9369,-298.589 L -25.3139,-298.51 L 25.3139,-298.51 z
M -24.7432,-300.135 L -25.2256,-300.196 L -25.6967,-300.317 L -26.1489,-300.496 L -26.5751,-300.73 L -26.9685,-301.016
 L -27.323,-301.349 L -27.633,-301.724 L -27.8936,-302.134 L -28.1007,-302.574 L -28.251,-303.037 L -28.3421,-303.515
 L -28.3726,-304 L -28.3726,-368 L -28.3421,-368.485 L -28.251,-368.963 L -28.1007,-369.426 L -27.8936,-369.866
 L -27.633,-370.276 L -27.323,-370.651 L -26.9685,-370.984 L -26.5751,-371.27 L -26.1489,-371.504 L -25.6967,-371.683
 L -25.2256,-371.804 L -24.7432,-371.865 L 24.7432,-371.865 L 25.2256,-371.804 L 25.6967,-371.683 L 26.1489,-371.504
 L 26.5751,-371.27 L 26.9685,-370.984 L 27.323,-370.651 L 27.633,-370.276 L 27.8936,-369.866 L 28.1007,-369.426
 L 28.251,-368.963 L 28.3421,-368.485 L 28.3726,-368 L 28.3726,-304 L 28.3421,-303.515 L 28.251,-303.037
 L 28.1007,-302.574 L 27.8936,-302.134 L 27.633,-301.724 L 27.323,-301.349 L 26.9685,-301.016 L 26.5751,-300.73
 L 26.1489,-300.496 L 25.6967,-300.317 L 25.2256,-300.196 L 24.7432,-300.135 z
M 25.9369,-214.589 L 26.5451,-214.745 L 27.1289,-214.976 L 27.6791,-215.278 L 28.1871,-215.647 L 28.6448,-216.077
 L 29.0451,-216.561 L 29.3815,-217.091 L 29.6489,-217.659 L 29.8429,-218.257 L 29.9606,-218.873 L 30,-219.5
 L 30,-284.5 L 29.9606,-285.127 L 29.8429,-285.743 L 29.6489,-286.341 L 29.3815,-286.909 L 29.0451,-287.439
 L 28.6448,-287.923 L 28.1871,-288.353 L 27.6791,-288.722 L 27.1289,-289.024 L 26.5451,-289.255 L 25.9369,-289.411
 L 25.3139,-289.49 L -25.3139,-289.49 L -25.9369,-289.411 L -26.5451,-289.255 L -27.1289,-289.024 L -27.6791,-288.722
 L -28.1871,-288.353 L -28.6448,-287.923 L -29.0451,-287.439 L -29.3815,-286.909 L -29.6489,-286.341 L -29.8429,-285.743
 L -29.9606,-285.127 L -30,-284.5 L -30,-219.5 L -29.9606,-218.873 L -29.8429,-218.257 L -29.6489,-217.659
 L -29.3815,-217.091 L -29.0451,-216.561 L -28.6448,-216.077 L -28.1871,-215.647 L -27.6791,-215.278 L -27.1289,-214.976
 L -26.5451,-214.745 L -25.9369,-214.589 L -25.3139,-214.51 L 25.3139,-214.51 z
M 25.9369,-130.589 L 26.5451,-130.745 L 27.1289,-130.976 L 27.6791,-131.278 L 28.1871,-131.647 L 28.6448,-132.077
 L 29.0451,-132.561 L 29.3815,-133.091 L 29.6489,-133.659 L 29.8429,-134.257 L 29.9606,-134.873 L 30,-135.5
 L 30,-200.5 L 29.9606,-201.127 L 29.8429,-201.743 L 29.6489,-202.341 L 29.3815,-202.909 L 29.0451,-203.439
 L 28.6448,-203.923 L 28.1871,-204.353 L 27.6791,-204.722 L 27.1289,-205.024 L 26.5451,-205.255 L 25.9369,-205.411
 L 25.3139,-205.49 L -25.3139,-205.49 L -25.9369,-205.411 L -26.5451,-205.255 L -27.1289,-205.024 L -27.6791,-204.722
 L -28.1871,-204.353 L -28.6448,-203.923 L -29.0451,-203.439 L -29.3815,-202.909 L -29.6489,-202.341 L -29.8429,-201.743
 L -29.9606,-201.127 L -30,-200.5 L -30,-135.5 L -29.9606,-134.873 L -29.8429,-134.257 L -29.6489,-133.659
 L -29.3815,-133.091 L -29.0451,-132.561 L -28.6448,-132.077 L -28.1871,-131.647 L -27.6791,-131.278 L -27.1289,-130.976
 L -26.5451,-130.745 L -25.9369,-130.589 L -25.3139,-130.51 L 25.3139,-130.51 z
M 22.387,-196.204 L 22.1627,-196.232 L 21.9438,-196.288 L 21.7336,-196.371 L 21.5355,-196.48 L 21.3526,-196.613
 L 21.1879,-196.768 L 21.0438,-196.942 L 20.9226,-197.133 L 20.8264,-197.337 L 20.7565,-197.552 L 20.7142,-197.774
 L 20.7,-198 L 20.7142,-198.226 L 20.7565,-198.448 L 20.8264,-198.663 L 20.9226,-198.867 L 21.0438,-199.058
 L 21.1879,-199.232 L 21.3526,-199.387 L 21.5355,-199.52 L 21.7336,-199.629 L 21.9438,-199.712 L 22.1627,-199.768
 L 22.387,-199.796 L 22.613,-199.796 L 22.8373,-199.768 L 23.0562,-199.712 L 23.2664,-199.629 L 23.4645,-199.52
 L 23.6474,-199.387 L 23.8121,-199.232 L 23.9562,-199.058 L 24.0773,-198.867 L 24.1736,-198.663 L 24.2434,-198.448
 L 24.2858,-198.226 L 24.3,-198 L 24.2858,-197.774 L 24.2434,-197.552 L 24.1736,-197.337 L 24.0773,-197.133
 L 23.9562,-196.942 L 23.8121,-196.768 L 23.6474,-196.613 L 23.4645,-196.48 L 23.2664,-196.371 L 23.0562,-196.288
 L 22.8373,-196.232 L 22.613,-196.204 z
M -22.613,-196.204 L -22.8373,-196.232 L -23.0562,-196.288 L -23.2664,-196.371 L -23.4645,-196.48 L -23.6474,-196.613
 L -23.8121,-196.768 L -23.9562,-196.942 L -24.0773,-197.133 L -24.1736,-197.337 L -24.2434,-197.552 L -24.2858,-197.774
 L -24.3,-198 L -24.2858,-198.226 L -24.2434,-198.448 L -24.1736,-198.663 L -24.0773,-198.867 L -23.9562,-199.058
 L -23.8121,-199.232 L -23.6474,-199.387 L -23.4645,-199.52 L -23.2664,-199.629 L -23.0562,-199.712 L -22.8373,-199.768
 L -22.613,-199.796 L -22.387,-199.796 L -22.1627,-199.768 L -21.9438,-199.712 L -21.7336,-199.629 L -21.5355,-199.52
 L -21.3526,-199.387 L -21.1879,-199.232 L -21.0438,-199.058 L -20.9226,-198.867 L -20.8264,-198.663 L -20.7565,-198.448
 L -20.7142,-198.226 L -20.7,-198 L -20.7142,-197.774 L -20.7565,-197.552 L -20.8264,-197.337 L -20.9226,-197.133
 L -21.0438,-196.942 L -21.1879,-196.768 L -21.3526,-196.613 L -21.5355,-196.48 L -21.7336,-196.371 L -21.9438,-196.288
 L -22.1627,-196.232 L -22.387,-196.204 z
M -22.613,-136.204 L -22.8373,-136.232 L -23.0562,-136.288 L -23.2664,-136.371 L -23.4645,-136.48 L -23.6474,-136.613
 L -23.8121,-136.768 L -23.9562,-136.942 L -24.0773,-137.133 L -24.1736,-137.337 L -24.2434,-137.552 L -24.2858,-137.774
 L -24.3,-138 L -24.2858,-138.226 L -24.2434,-138.448 L -24.1736,-138.663 L -24.0773,-138.867 L -23.9562,-139.058
 L -23.8121,-139.232 L -23.6474,-139.387 L -23.4645,-139.52 L -23.2664,-139.629 L -23.0562,-139.712 L -22.8373,-139.768
 L -22.613,-139.796 L -22.387,-139.796 L -22.1627,-139.768 L -21.9438,-139.712 L -21.7336,-139.629 L -21.5355,-139.52
 L -21.3526,-139.387 L -21.1879,-139.232 L -21.0438,-139.058 L -20.9226,-138.867 L -20.8264,-138.663 L -20.7565,-138.448
 L -20.7142,-138.226 L -20.7,-138 L -20.7142,-137.774 L -20.7565,-137.552 L -20.8264,-137.337 L -20.9226,-137.133
 L -21.0438,-136.942 L -21.1879,-136.768 L -21.3526,-136.613 L -21.5355,-136.48 L -21.7336,-136.371 L -21.9438,-136.288
 L -22.1627,-136.232 L -22.387,-136.204 z
M 22.387,-136.204 L 22.1627,-136.232 L 21.9438,-136.288 L 21.7336,-136.371 L 21.5355,-136.48 L 21.3526,-136.613
 L 21.1879,-136.768 L 21.0438,-136.942 L 20.9226,-137.133 L 20.8264,-137.337 L 20.7565,-137.552 L 20.7142,-137.774
 L 20.7,-138 L 20.7142,-138.226 L 20.7565,-138.448 L 20.8264,-138.663 L 20.9226,-138.867 L 21.0438,-139.058
 L 21.1879,-139.232 L 21.3526,-139.387 L 21.5355,-139.52 L 21.7336,-139.629 L 21.9438,-139.712 L 22.1627,-139.768
 L 22.387,-139.796 L 22.613,-139.796 L 22.8373,-139.768 L 23.0562,-139.712 L 23.2664,-139.629 L 23.4645,-139.52
 L 23.6474,-139.387 L 23.8121,-139.232 L 23.9562,-139.058 L 24.0773,-138.867 L 24.1736,-138.663 L 24.2434,-138.448
 L 24.2858,-138.226 L 24.3,-138 L 24.2858,-137.774 L 24.2434,-137.552 L 24.1736,-137.337 L 24.0773,-137.133
 L 23.9562,-136.942 L 23.8121,-136.768 L 23.6474,-136.613 L 23.4645,-136.48 L 23.2664,-136.371 L 23.0562,-136.288
 L 22.8373,-136.232 L 22.613,-136.204 z
" stroke="black" fill="lightgray" stroke-width="0.5"/>
</svg>
