<?xml version="1.0" standalone="no"?>
<!DOCTYPE svg PUBLIC "-//W3C//DTD SVG 1.1//EN" "http://www.w3.org/Graphics/SVG/1.1/DTD/svg11.dtd">
<svg width="46mm" height="288mm" viewBox="-23 -441 46 288" xmlns="http://www.w3.org/2000/svg" version="1.1">
<title>OpenSCAD Model</title>
<path d="
M 18.4369,-351.089 L 19.0451,-351.245 L 19.6289,-351.476 L 20.1791,-351.778 L 20.6871,-352.147 L 21.1448,-352.577
 L 21.5451,-353.061 L 21.8815,-353.591 L 22.1489,-354.159 L 22.3429,-354.757 L 22.4606,-355.373 L 22.5,-356
 L 22.5,-436 L 22.4606,-436.627 L 22.3429,-437.243 L 22.1489,-437.841 L 21.8815,-438.409 L 21.5451,-438.939
 L 21.1448,-439.423 L 20.6871,-439.853 L 20.1791,-440.222 L 19.6289,-440.524 L 19.0451,-440.755 L 18.4369,-440.911
 L 17.8139,-440.99 L -17.8139,-440.99 L -18.4369,-440.911 L -19.0451,-440.755 L -19.6289,-440.524 L -20.1791,-440.222
 L -20.6871,-439.853 L -21.1448,-439.423 L -21.5451,-438.939 L -21.8815,-438.409 L -22.1489,-437.841 L -22.3429,-437.243
 L -22.4606,-436.627 L -22.5,-436 L -22.5,-356 L -22.4606,-355.373 L -22.3429,-354.757 L -22.1489,-354.159
 L -21.8815,-353.591 L -21.5451,-353.061 L -21.1448,-352.577 L -20.6871,-352.147 L -20.1791,-351.778 L -19.6289,-351.476
 L -19.0451,-351.245 L -18.4369,-351.089 L -17.8139,-351.01 L 17.8139,-351.01 z
M -17.2432,-352.635 L -17.7256,-352.696 L -18.1967,-352.817 L -18.6489,-352.996 L -19.0751,-353.23 L -19.4685,-353.516
 L -19.823,-353.849 L -20.133,-354.224 L -20.3936,-354.634 L -20.6007,-355.074 L -20.751,-355.537 L -20.8421,-356.015
 L -20.8726,-356.5 L -20.8726,-435.5 L -20.8421,-435.985 L -20.751,-436.463 L -20.6007,-436.926 L -20.3936,-437.366
 L -20.133,-437.776 L -19.823,-438.151 L -19.4685,-438.484 L -19.0751,-438.77 L -18.6489,-439.004 L -18.1967,-439.183
 L -17.7256,-439.304 L -17.2432,-439.365 L 17.2432,-439.365 L 17.7256,-439.304 L 18.1967,-439.183 L 18.6489,-439.004
 L 19.0751,-438.77 L 19.4685,-438.484 L 19.823,-438.151 L 20.133,-437.776 L 20.3936,-437.366 L 20.6007,-436.926
 L 20.751,-436.463 L 20.8421,-435.985 L 20.8726,-435.5 L 20.8726,-356.5 L 20.8421,-356.015 L 20.751,-355.537
 L 20.6007,-355.074 L 20.3936,-354.634 L 20.133,-354.224 L 19.823,-353.849 L 19.4685,-353.516 L 19.0751,-353.23
 L 18.6489,-352.996 L 18.1967,-352.817 L 17.7256,-352.696 L 17.2432,-352.635 z
M 18.4369,-252.089 L 19.0451,-252.245 L 19.6289,-252.476 L 20.1791,-252.778 L 20.6871,-253.147 L 21.1448,-253.577
 L 21.5451,-254.061 L 21.8815,-254.591 L 22.1489,-255.159 L 22.3429,-255.757 L 22.4606,-256.373 L 22.5,-257
 L 22.5,-337 L 22.4606,-337.627 L 22.3429,-338.243 L 22.1489,-338.841 L 21.8815,-339.409 L 21.5451,-339.939
 L 21.1448,-340.423 L 20.6871,-340.853 L 20.1791,-341.222 L 19.6289,-341.524 L 19.0451,-341.755 L 18.4369,-341.911
 L 17.8139,-341.99 L -17.8139,-341.99 L -18.4369,-341.911 L -19.0451,-341.755 L -19.6289,-341.524 L -20.1791,-341.222
 L -20.6871,-340.853 L -21.1448,-340.423 L -21.5451,-339.939 L -21.8815,-339.409 L -22.1489,-338.841 L -22.3429,-338.243
 L -22.4606,-337.627 L -22.5,-337 L -22.5,-257 L -22.4606,-256.373 L -22.3429,-255.757 L -22.1489,-255.159
 L -21.8815,-254.591 L -21.5451,-254.061 L -21.1448,-253.577 L -20.6871,-253.147 L -20.1791,-252.778 L -19.6289,-252.476
 L -19.0451,-252.245 L -18.4369,-252.089 L -17.8139,-252.01 L 17.8139,-252.01 z
M 18.4369,-153.089 L 19.0451,-153.245 L 19.6289,-153.476 L 20.1791,-153.778 L 20.6871,-154.147 L 21.1448,-154.577
 L 21.5451,-155.061 L 21.8815,-155.591 L 22.1489,-156.159 L 22.3429,-156.757 L 22.4606,-157.373 L 22.5,-158
 L 22.5,-238 L 22.4606,-238.627 L 22.3429,-239.243 L 22.1489,-239.841 L 21.8815,-240.409 L 21.5451,-240.939
 L 21.1448,-241.423 L 20.6871,-241.853 L 20.1791,-242.222 L 19.6289,-242.524 L 19.0451,-242.755 L 18.4369,-242.911
 L 17.8139,-242.99 L -17.8139,-242.99 L -18.4369,-242.911 L -19.0451,-242.755 L -19.6289,-242.524 L -20.1791,-242.222
 L -20.6871,-241.853 L -21.1448,-241.423 L -21.5451,-240.939 L -21.8815,-240.409 L -22.1489,-239.841 L -22.3429,-239.243
 L -22.4606,-238.627 L -22.5,-238 L -22.5,-158 L -22.4606,-157.373 L -22.3429,-156.757 L -22.1489,-156.159
 L -21.8815,-155.591 L -21.5451,-155.061 L -21.1448,-154.577 L -20.6871,-154.147 L -20.1791,-153.778 L -19.6289,-153.476
 L -19.0451,-153.245 L -18.4369,-153.089 L -17.8139,-153.01 L 17.8139,-153.01 z
M 14.887,-233.704 L 14.6627,-233.732 L 14.4438,-233.788 L 14.2336,-233.871 L 14.0355,-233.98 L 13.8526,-234.113
 L 13.6879,-234.268 L 13.5438,-234.442 L 13.4226,-234.633 L 13.3264,-234.837 L 13.2565,-235.052 L 13.2142,-235.274
 L 13.2,-235.5 L 13.2142,-235.726 L 13.2565,-235.948 L 13.3264,-236.163 L 13.4226,-236.367 L 13.5438,-236.558
 L 13.6879,-236.732 L 13.8526,-236.887 L 14.0355,-237.02 L 14.2336,-237.129 L 14.4438,-237.212 L 14.6627,-237.268
 L 14.887,-237.296 L 15.113,-237.296 L 15.3373,-237.268 L 15.5562,-237.212 L 15.7664,-237.129 L 15.9645,-237.02
 L 16.1474,-236.887 L 16.3121,-236.732 L 16.4562,-236.558 L 16.5773,-236.367 L 16.6736,-236.163 L 16.7434,-235.948
 L 16.7858,-235.726 L 16.8,-235.5 L 16.7858,-235.274 L 16.7434,-235.052 L 16.6736,-234.837 L 16.5773,-234.633
 L 16.4562,-234.442 L 16.3121,-234.268 L 16.1474,-234.113 L 15.9645,-233.98 L 15.7664,-233.871 L 15.5562,-233.788
 L 15.3373,-233.732 L 15.113,-233.704 z
M -15.113,-233.704 L -15.3373,-233.732 L -15.5562,-233.788 L -15.7664,-233.871 L -15.9645,-233.98 L -16.1474,-234.113
 L -16.3121,-234.268 L -16.4562,-234.442 L -16.5773,-234.633 L -16.6736,-234.837 L -16.7434,-235.052 L -16.7858,-235.274
 L -16.8,-235.5 L -16.7858,-235.726 L -16.7434,-235.948 L -16.6736,-236.163 L -16.5773,-236.367 L -16.4562,-236.558
 L -16.3121,-236.732 L -16.1474,-236.887 L -15.9645,-237.02 L -15.7664,-237.129 L -15.5562,-237.212 L -15.3373,-237.268
 L -15.113,-237.296 L -14.887,-237.296 L -14.6627,-237.268 L -14.4438,-237.212 L -14.2336,-237.129 L -14.0355,-237.02
 L -13.8526,-236.887 L -13.6879,-236.732 L -13.5438,-236.558 L -13.4226,-236.367 L -13.3264,-236.163 L -13.2565,-235.948
 L -13.2142,-235.726 L -13.2,-235.5 L -13.2142,-235.274 L -13.2565,-235.052 L -13.3264,-234.837 L -13.4226,-234.633
 L -13.5438,-234.442 L -13.6879,-234.268 L -13.8526,-234.113 L -14.0355,-233.98 L -14.2336,-233.871 L -14.4438,-233.788
 L -14.6627,-233.732 L -14.887,-233.704 z
M 14.887,-158.704 L 14.6627,-158.732 L 14.4438,-158.788 L 14.2336,-158.871 L 14.0355,-158.98 L 13.8526,-159.113
 L 13.6879,-159.268 L 13.5438,-159.442 L 13.4226,-159.633 L 13.3264,-159.837 L 13.2565,-160.052 L 13.2142,-160.274
 L 13.2,-160.5 L 13.2142,-160.726 L 13.2565,-160.948 L 13.3264,-161.163 L 13.4226,-161.367 L 13.5438,-161.558
 L 13.6879,-161.732 L 13.8526,-161.887 L 14.0355,-162.02 L 14.2336,-162.129 L 14.4438,-162.212 L 14.6627,-162.268
 L 14.887,-162.296 L 15.113,-162.296 L 15.3373,-162.268 L 15.5562,-162.212 L 15.7664,-162.129 L 15.9645,-162.02
 L 16.1474,-161.887 L 16.3121,-161.732 L 16.4562,-161.558 L 16.5773,-161.367 L 16.6736,-161.163 L 16.7434,-160.948
 L 16.7858,-160.726 L 16.8,-160.5 L 16.7858,-160.274 L 16.7434,-160.052 L 16.6736,-159.837 L 16.5773,-159.633
 L 16.4562,-159.442 L 16.3121,-159.268 L 16.1474,-159.113 L 15.9645,-158.98 L 15.7664,-158.871 L 15.5562,-158.788
 L 15.3373,-158.732 L 15.113,-158.704 z
M -15.113,-158.704 L -15.3373,-158.732 L -15.5562,-158.788 L -15.7664,-158.871 L -15.9645,-158.98 L -16.1474,-159.113
 L -16.3121,-159.268 L -16.4562,-159.442 L -16.5773,-159.633 L -16.6736,-159.837 L -16.7434,-160.052 L -16.7858,-160.274
 L -16.8,-160.5 L -16.7858,-160.726 L -16.7434,-160.948 L -16.6736,-161.163 L -16.5773,-161.367 L -16.4562,-161.558
 L -16.3121,-161.732 L -16.1474,-161.887 L -15.9645,-162.02 L -15.7664,-162.129 L -15.5562,-162.212 L -15.3373,-162.268
 L -15.113,-162.296 L -14.887,-162.296 L -14.6627,-162.268 L -14.4438,-162.212 L -14.2336,-162.129 L -14.0355,-162.02
 L -13.8526,-161.887 L -13.6879,-161.732 L -13.5438,-161.558 L -13.4226,-161.367 L -13.3264,-161.163 L -13.2565,-160.948
 L -13.2142,-160.726 L -13.2,-160.5 L -13.2142,-160.274 L -13.2565,-160.052 L -13.3264,-159.837 L -13.4226,-159.633
 L -13.5438,-159.442 L -13.6879,-159.268 L -13.8526,-159.113 L -14.0355,-158.98 L -14.2336,-158.871 L -14.4438,-158.788
 L -14.6627,-158.732 L -14.887,-158.704 z
" stroke="black" fill="lightgray" stroke-width="0.5"/>
</svg>
