<?xml version="1.0" standalone="no"?>
<!DOCTYPE svg PUBLIC "-//W3C//DTD SVG 1.1//EN" "http://www.w3.org/Graphics/SVG/1.1/DTD/svg11.dtd">
<svg width="30mm" height="369mm" viewBox="-15 -657 30 369" xmlns="http://www.w3.org/2000/svg" version="1.1">
<title>OpenSCAD Model</title>
<path d="
M 10.9369,-477.089 L 11.5451,-477.245 L 12.1289,-477.476 L 12.6791,-477.778 L 13.1871,-478.147 L 13.6448,-478.577
 L 14.0451,-479.061 L 14.3815,-479.591 L 14.6489,-480.159 L 14.8429,-480.757 L 14.9606,-481.373 L 15,-482
 L 15,-652 L 14.9606,-652.627 L 14.8429,-653.243 L 14.6489,-653.841 L 14.3815,-654.409 L 14.0451,-654.939
 L 13.6448,-655.423 L 13.1871,-655.853 L 12.6791,-656.222 L 12.1289,-656.524 L 11.5451,-656.755 L 10.9369,-656.911
 L 10.3139,-656.99 L -10.3139,-656.99 L -10.9369,-656.911 L -11.5451,-656.755 L -12.1289,-656.524 L -12.6791,-656.222
 L -13.1871,-655.853 L -13.6448,-655.423 L -14.0451,-654.939 L -14.3815,-654.409 L -14.6489,-653.841 L -14.8429,-653.243
 L -14.9606,-652.627 L -15,-652 L -15,-482 L -14.9606,-481.373 L -14.8429,-480.757 L -14.6489,-480.159
 L -14.3815,-479.591 L -14.0451,-479.061 L -13.6448,-478.577 L -13.1871,-478.147 L -12.6791,-477.778 L -12.1289,-477.476
 L -11.5451,-477.245 L -10.9369,-477.089 L -10.3139,-477.01 L 10.3139,-477.01 z
M -9.69545,-479.393 L -10.0833,-479.442 L -10.4619,-479.539 L -10.8254,-479.683 L -11.168,-479.872 L -11.4842,-480.101
 L -11.7692,-480.369 L -12.0184,-480.67 L -12.2279,-481 L -12.3943,-481.354 L -12.5151,-481.726 L -12.5884,-482.11
 L -12.6129,-482.5 L -12.6129,-651.5 L -12.5884,-651.89 L -12.5151,-652.274 L -12.3943,-652.646 L -12.2279,-653
 L -12.0184,-653.33 L -11.7692,-653.631 L -11.4842,-653.899 L -11.168,-654.128 L -10.8254,-654.317 L -10.4619,-654.461
 L -10.0833,-654.558 L -9.69545,-654.607 L 9.69545,-654.607 L 10.0833,-654.558 L 10.4619,-654.461 L 10.8254,-654.317
 L 11.168,-654.128 L 11.4842,-653.899 L 11.7692,-653.631 L 12.0184,-653.33 L 12.2279,-653 L 12.3943,-652.646
 L 12.5151,-652.274 L 12.5884,-651.89 L 12.6129,-651.5 L 12.6129,-482.5 L 12.5884,-482.11 L 12.5151,-481.726
 L 12.3943,-481.354 L 12.2279,-481 L 12.0184,-480.67 L 11.7692,-480.369 L 11.4842,-480.101 L 11.168,-479.872
 L 10.8254,-479.683 L 10.4619,-479.539 L 10.0833,-479.442 L 9.69545,-479.393 z
M 10.9369,-288.089 L 11.5451,-288.245 L 12.1289,-288.476 L 12.6791,-288.778 L 13.1871,-289.147 L 13.6448,-289.577
 L 14.0451,-290.061 L 14.3815,-290.591 L 14.6489,-291.159 L 14.8429,-291.757 L 14.9606,-292.373 L 15,-293
 L 15,-463 L 14.9606,-463.627 L 14.8429,-464.243 L 14.6489,-464.841 L 14.3815,-465.409 L 14.0451,-465.939
 L 13.6448,-466.423 L 13.1871,-466.853 L 12.6791,-467.222 L 12.1289,-467.524 L 11.5451,-467.755 L 10.9369,-467.911
 L 10.3139,-467.99 L -10.3139,-467.99 L -10.9369,-467.911 L -11.5451,-467.755 L -12.1289,-467.524 L -12.6791,-467.222
 L -13.1871,-466.853 L -13.6448,-466.423 L -14.0451,-465.939 L -14.3815,-465.409 L -14.6489,-464.841 L -14.8429,-464.243
 L -14.9606,-463.627 L -15,-463 L -15,-293 L -14.9606,-292.373 L -14.8429,-291.757 L -14.6489,-291.159
 L -14.3815,-290.591 L -14.0451,-290.061 L -13.6448,-289.577 L -13.1871,-289.147 L -12.6791,-288.778 L -12.1289,-288.476
 L -11.5451,-288.245 L -10.9369,-288.089 L -10.3139,-288.01 L 10.3139,-288.01 z
M 7.36592,-458.369 L 7.09988,-458.403 L 6.84015,-458.469 L 6.59084,-458.568 L 6.35585,-458.697 L 6.1389,-458.855
 L 5.94344,-459.038 L 5.77251,-459.245 L 5.62881,-459.471 L 5.51465,-459.714 L 5.43178,-459.969 L 5.38153,-460.232
 L 5.3647,-460.5 L 5.38153,-460.768 L 5.43178,-461.031 L 5.51465,-461.286 L 5.62881,-461.529 L 5.77251,-461.755
 L 5.94344,-461.962 L 6.1389,-462.145 L 6.35585,-462.303 L 6.59084,-462.432 L 6.84015,-462.531 L 7.09988,-462.597
 L 7.36592,-462.631 L 7.63406,-462.631 L 7.9001,-462.597 L 8.15984,-462.531 L 8.40915,-462.432 L 8.64413,-462.303
 L 8.86108,-462.145 L 9.05655,-461.962 L 9.22748,-461.755 L 9.37117,-461.529 L 9.48534,-461.286 L 9.56821,-461.031
 L 9.61845,-460.768 L 9.63528,-460.5 L 9.61845,-460.232 L 9.56821,-459.969 L 9.48534,-459.714 L 9.37117,-459.471
 L 9.22748,-459.245 L 9.05655,-459.038 L 8.86108,-458.855 L 8.64413,-458.697 L 8.40915,-458.568 L 8.15984,-458.469
 L 7.9001,-458.403 L 7.63406,-458.369 z
M -7.63406,-458.369 L -7.9001,-458.403 L -8.15984,-458.469 L -8.40915,-458.568 L -8.64413,-458.697 L -8.86108,-458.855
 L -9.05655,-459.038 L -9.22748,-459.245 L -9.37117,-459.471 L -9.48534,-459.714 L -9.56821,-459.969 L -9.61845,-460.232
 L -9.63528,-460.5 L -9.61845,-460.768 L -9.56821,-461.031 L -9.48534,-461.286 L -9.37117,-461.529 L -9.22748,-461.755
 L -9.05655,-461.962 L -8.86108,-462.145 L -8.64413,-462.303 L -8.40915,-462.432 L -8.15984,-462.531 L -7.9001,-462.597
 L -7.63406,-462.631 L -7.36592,-462.631 L -7.09988,-462.597 L -6.84015,-462.531 L -6.59084,-462.432 L -6.35585,-462.303
 L -6.1389,-462.145 L -5.94344,-461.962 L -5.77251,-461.755 L -5.62881,-461.529 L -5.51465,-461.286 L -5.43178,-461.031
 L -5.38153,-460.768 L -5.3647,-460.5 L -5.38153,-460.232 L -5.43178,-459.969 L -5.51465,-459.714 L -5.62881,-459.471
 L -5.77251,-459.245 L -5.94344,-459.038 L -6.1389,-458.855 L -6.35585,-458.697 L -6.59084,-458.568 L -6.84015,-458.469
 L -7.09988,-458.403 L -7.36592,-458.369 z
M 7.36592,-293.369 L 7.09988,-293.403 L 6.84015,-293.469 L 6.59084,-293.568 L 6.35585,-293.697 L 6.1389,-293.855
 L 5.94344,-294.038 L 5.77251,-294.245 L 5.62881,-294.471 L 5.51465,-294.714 L 5.43178,-294.969 L 5.38153,-295.232
 L 5.3647,-295.5 L 5.38153,-295.768 L 5.43178,-296.031 L 5.51465,-296.286 L 5.62881,-296.529 L 5.77251,-296.755
 L 5.94344,-296.962 L 6.1389,-297.145 L 6.35585,-297.303 L 6.59084,-297.432 L 6.84015,-297.531 L 7.09988,-297.597
 L 7.36592,-297.631 L 7.63406,-297.631 L 7.9001,-297.597 L 8.15984,-297.531 L 8.40915,-297.432 L 8.64413,-297.303
 L 8.86108,-297.145 L 9.05655,-296.962 L 9.22748,-296.755 L 9.37117,-296.529 L 9.48534,-296.286 L 9.56821,-296.031
 L 9.61845,-295.768 L 9.63528,-295.5 L 9.61845,-295.232 L 9.56821,-294.969 L 9.48534,-294.714 L 9.37117,-294.471
 L 9.22748,-294.245 L 9.05655,-294.038 L 8.86108,-293.855 L 8.64413,-293.697 L 8.40915,-293.568 L 8.15984,-293.469
 L 7.9001,-293.403 L 7.63406,-293.369 z
M -7.63406,-293.369 L -7.9001,-293.403 L -8.15984,-293.469 L -8.40915,-293.568 L -8.64413,-293.697 L -8.86108,-293.855
 L -9.05655,-294.038 L -9.22748,-294.245 L -9.37117,-294.471 L -9.48534,-294.714 L -9.56821,-294.969 L -9.61845,-295.232
 L -9.63528,-295.5 L -9.61845,-295.768 L -9.56821,-296.031 L -9.48534,-296.286 L -9.37117,-296.529 L -9.22748,-296.755
 L -9.05655,-296.962 L -8.86108,-297.145 L -8.64413,-297.303 L -8.40915,-297.432 L -8.15984,-297.531 L -7.9001,-297.597
 L -7.63406,-297.631 L -7.36592,-297.631 L -7.09988,-297.597 L -6.84015,-297.531 L -6.59084,-297.432 L -6.35585,-297.303
 L -6.1389,-297.145 L -5.94344,-296.962 L -5.77251,-296.755 L -5.62881,-296.529 L -5.51465,-296.286 L -5.43178,-296.031
 L -5.38153,-295.768 L -5.3647,-295.5 L -5.38153,-295.232 L -5.43178,-294.969 L -5.51465,-294.714 L -5.62881,-294.471
 L -5.77251,-294.245 L -5.94344,-294.038 L -6.1389,-293.855 L -6.35585,-293.697 L -6.59084,-293.568 L -6.84015,-293.469
 L -7.09988,-293.403 L -7.36592,-293.369 z
" stroke="black" fill="lightgray" stroke-width="0.5"/>
</svg>
