<?xml version="1.0" standalone="no"?>
<!DOCTYPE svg PUBLIC "-//W3C//DTD SVG 1.1//EN" "http://www.w3.org/Graphics/SVG/1.1/DTD/svg11.dtd">
<svg width="30mm" height="514mm" viewBox="-15 -779 30 514" xmlns="http://www.w3.org/2000/svg" version="1.1">
<title>OpenSCAD Model</title>
<path d="
M 10.9369,-613.589 L 11.5451,-613.745 L 12.1289,-613.976 L 12.6791,-614.278 L 13.1871,-614.647 L 13.6448,-615.077
 L 14.0451,-615.561 L 14.3815,-616.091 L 14.6489,-616.659 L 14.8429,-617.257 L 14.9606,-617.873 L 15,-618.5
 L 15,-773.5 L 14.9606,-774.127 L 14.8429,-774.743 L 14.6489,-775.341 L 14.3815,-775.909 L 14.0451,-776.439
 L 13.6448,-776.923 L 13.1871,-777.353 L 12.6791,-777.722 L 12.1289,-778.024 L 11.5451,-778.255 L 10.9369,-778.411
 L 10.3139,-778.49 L -10.3139,-778.49 L -10.9369,-778.411 L -11.5451,-778.255 L -12.1289,-778.024 L -12.6791,-777.722
 L -13.1871,-777.353 L -13.6448,-776.923 L -14.0451,-776.439 L -14.3815,-775.909 L -14.6489,-775.341 L -14.8429,-774.743
 L -14.9606,-774.127 L -15,-773.5 L -15,-618.5 L -14.9606,-617.873 L -14.8429,-617.257 L -14.6489,-616.659
 L -14.3815,-616.091 L -14.0451,-615.561 L -13.6448,-615.077 L -13.1871,-614.647 L -12.6791,-614.278 L -12.1289,-613.976
 L -11.5451,-613.745 L -10.9369,-613.589 L -10.3139,-613.51 L 10.3139,-613.51 z
M -9.74316,-615.135 L -10.2256,-615.196 L -10.6967,-615.317 L -11.1489,-615.496 L -11.5751,-615.73 L -11.9685,-616.016
 L -12.323,-616.349 L -12.633,-616.724 L -12.8936,-617.134 L -13.1007,-617.574 L -13.251,-618.037 L -13.3421,-618.515
 L -13.3726,-619 L -13.3726,-773 L -13.3421,-773.485 L -13.251,-773.963 L -13.1007,-774.426 L -12.8936,-774.866
 L -12.633,-775.276 L -12.323,-775.651 L -11.9685,-775.984 L -11.5751,-776.27 L -11.1489,-776.504 L -10.6967,-776.683
 L -10.2256,-776.804 L -9.74316,-776.865 L 9.74316,-776.865 L 10.2256,-776.804 L 10.6967,-776.683 L 11.1489,-776.504
 L 11.5751,-776.27 L 11.9685,-775.984 L 12.323,-775.651 L 12.633,-775.276 L 12.8936,-774.866 L 13.1007,-774.426
 L 13.251,-773.963 L 13.3421,-773.485 L 13.3726,-773 L 13.3726,-619 L 13.3421,-618.515 L 13.251,-618.037
 L 13.1007,-617.574 L 12.8936,-617.134 L 12.633,-616.724 L 12.323,-616.349 L 11.9685,-616.016 L 11.5751,-615.73
 L 11.1489,-615.496 L 10.6967,-615.317 L 10.2256,-615.196 L 9.74316,-615.135 z
M 10.9369,-439.589 L 11.5451,-439.745 L 12.1289,-439.976 L 12.6791,-440.278 L 13.1871,-440.647 L 13.6448,-441.077
 L 14.0451,-441.561 L 14.3815,-442.091 L 14.6489,-442.659 L 14.8429,-443.257 L 14.9606,-443.873 L 15,-444.5
 L 15,-599.5 L 14.9606,-600.127 L 14.8429,-600.743 L 14.6489,-601.341 L 14.3815,-601.909 L 14.0451,-602.439
 L 13.6448,-602.923 L 13.1871,-603.353 L 12.6791,-603.722 L 12.1289,-604.024 L 11.5451,-604.255 L 10.9369,-604.411
 L 10.3139,-604.49 L -10.3139,-604.49 L -10.9369,-604.411 L -11.5451,-604.255 L -12.1289,-604.024 L -12.6791,-603.722
 L -13.1871,-603.353 L -13.6448,-602.923 L -14.0451,-602.439 L -14.3815,-601.909 L -14.6489,-601.341 L -14.8429,-600.743
 L -14.9606,-600.127 L -15,-599.5 L -15,-444.5 L -14.9606,-443.873 L -14.8429,-443.257 L -14.6489,-442.659
 L -14.3815,-442.091 L -14.0451,-441.561 L -13.6448,-441.077 L -13.1871,-440.647 L -12.6791,-440.278 L -12.1289,-439.976
 L -11.5451,-439.745 L -10.9369,-439.589 L -10.3139,-439.51 L 10.3139,-439.51 z
M 10.9369,-265.589 L 11.5451,-265.745 L 12.1289,-265.976 L 12.6791,-266.278 L 13.1871,-266.647 L 13.6448,-267.077
 L 14.0451,-267.561 L 14.3815,-268.091 L 14.6489,-268.659 L 14.8429,-269.257 L 14.9606,-269.873 L 15,-270.5
 L 15,-425.5 L 14.9606,-426.127 L 14.8429,-426.743 L 14.6489,-427.341 L 14.3815,-427.909 L 14.0451,-428.439
 L 13.6448,-428.923 L 13.1871,-429.353 L 12.6791,-429.722 L 12.1289,-430.024 L 11.5451,-430.255 L 10.9369,-430.411
 L 10.3139,-430.49 L -10.3139,-430.49 L -10.9369,-430.411 L -11.5451,-430.255 L -12.1289,-430.024 L -12.6791,-429.722
 L -13.1871,-429.353 L -13.6448,-428.923 L -14.0451,-428.439 L -14.3815,-427.909 L -14.6489,-427.341 L -14.8429,-426.743
 L -14.9606,-426.127 L -15,-425.5 L -15,-270.5 L -14.9606,-269.873 L -14.8429,-269.257 L -14.6489,-268.659
 L -14.3815,-268.091 L -14.0451,-267.561 L -13.6448,-267.077 L -13.1871,-266.647 L -12.6791,-266.278 L -12.1289,-265.976
 L -11.5451,-265.745 L -10.9369,-265.589 L -10.3139,-265.51 L 10.3139,-265.51 z
M 7.38696,-421.204 L 7.1627,-421.232 L 6.94376,-421.288 L 6.7336,-421.371 L 6.53551,-421.48 L 6.35263,-421.613
 L 6.18785,-421.768 L 6.04376,-421.942 L 5.92264,-422.133 L 5.8264,-422.337 L 5.75655,-422.552 L 5.71419,-422.774
 L 5.7,-423 L 5.71419,-423.226 L 5.75655,-423.448 L 5.8264,-423.663 L 5.92264,-423.867 L 6.04376,-424.058
 L 6.18785,-424.232 L 6.35263,-424.387 L 6.53551,-424.52 L 6.7336,-424.629 L 6.94376,-424.712 L 7.1627,-424.768
 L 7.38696,-424.796 L 7.61302,-424.796 L 7.83728,-424.768 L 8.05623,-424.712 L 8.26639,-424.629 L 8.46448,-424.52
 L 8.64735,-424.387 L 8.81213,-424.232 L 8.95622,-424.058 L 9.07735,-423.867 L 9.17358,-423.663 L 9.24344,-423.448
 L 9.2858,-423.226 L 9.29999,-423 L 9.2858,-422.774 L 9.24344,-422.552 L 9.17358,-422.337 L 9.07735,-422.133
 L 8.95622,-421.942 L 8.81213,-421.768 L 8.64735,-421.613 L 8.46448,-421.48 L 8.26639,-421.371 L 8.05623,-421.288
 L 7.83728,-421.232 L 7.61302,-421.204 z
M -7.61302,-421.204 L -7.83728,-421.232 L -8.05623,-421.288 L -8.26639,-421.371 L -8.46448,-421.48 L -8.64735,-421.613
 L -8.81213,-421.768 L -8.95622,-421.942 L -9.07735,-422.133 L -9.17358,-422.337 L -9.24344,-422.552 L -9.2858,-422.774
 L -9.29999,-423 L -9.2858,-423.226 L -9.24344,-423.448 L -9.17358,-423.663 L -9.07735,-423.867 L -8.95622,-424.058
 L -8.81213,-424.232 L -8.64735,-424.387 L -8.46448,-424.52 L -8.26639,-424.629 L -8.05623,-424.712 L -7.83728,-424.768
 L -7.61302,-424.796 L -7.38696,-424.796 L -7.1627,-424.768 L -6.94376,-424.712 L -6.7336,-424.629 L -6.53551,-424.52
 L -6.35263,-424.387 L -6.18785,-424.232 L -6.04376,-424.058 L -5.92264,-423.867 L -5.8264,-423.663 L -5.75655,-423.448
 L -5.71419,-423.226 L -5.7,-423 L -5.71419,-422.774 L -5.75655,-422.552 L -5.8264,-422.337 L -5.92264,-422.133
 L -6.04376,-421.942 L -6.18785,-421.768 L -6.35263,-421.613 L -6.53551,-421.48 L -6.7336,-421.371 L -6.94376,-421.288
 L -7.1627,-421.232 L -7.38696,-421.204 z
M -7.61302,-271.204 L -7.83728,-271.232 L -8.05623,-271.288 L -8.26639,-271.371 L -8.46448,-271.48 L -8.64735,-271.613
 L -8.81213,-271.768 L -8.95622,-271.942 L -9.07735,-272.133 L -9.17358,-272.337 L -9.24344,-272.552 L -9.2858,-272.774
 L -9.29999,-273 L -9.2858,-273.226 L -9.24344,-273.448 L -9.17358,-273.663 L -9.07735,-273.867 L -8.95622,-274.058
 L -8.81213,-274.232 L -8.64735,-274.387 L -8.46448,-274.52 L -8.26639,-274.629 L -8.05623,-274.712 L -7.83728,-274.768
 L -7.61302,-274.796 L -7.38696,-274.796 L -7.1627,-274.768 L -6.94376,-274.712 L -6.7336,-274.629 L -6.53551,-274.52
 L -6.35263,-274.387 L -6.18785,-274.232 L -6.04376,-274.058 L -5.92264,-273.867 L -5.8264,-273.663 L -5.75655,-273.448
 L -5.71419,-273.226 L -5.7,-273 L -5.71419,-272.774 L -5.75655,-272.552 L -5.8264,-272.337 L -5.92264,-272.133
 L -6.04376,-271.942 L -6.18785,-271.768 L -6.35263,-271.613 L -6.53551,-271.48 L -6.7336,-271.371 L -6.94376,-271.288
 L -7.1627,-271.232 L -7.38696,-271.204 z
M 7.38696,-271.204 L 7.1627,-271.232 L 6.94376,-271.288 L 6.7336,-271.371 L 6.53551,-271.48 L 6.35263,-271.613
 L 6.18785,-271.768 L 6.04376,-271.942 L 5.92264,-272.133 L 5.8264,-272.337 L 5.75655,-272.552 L 5.71419,-272.774
 L 5.7,-273 L 5.71419,-273.226 L 5.75655,-273.448 L 5.8264,-273.663 L 5.92264,-273.867 L 6.04376,-274.058
 L 6.18785,-274.232 L 6.35263,-274.387 L 6.53551,-274.52 L 6.7336,-274.629 L 6.94376,-274.712 L 7.1627,-274.768
 L 7.38696,-274.796 L 7.61302,-274.796 L 7.83728,-274.768 L 8.05623,-274.712 L 8.26639,-274.629 L 8.46448,-274.52
 L 8.64735,-274.387 L 8.81213,-274.232 L 8.95622,-274.058 L 9.07735,-273.867 L 9.17358,-273.663 L 9.24344,-273.448
 L 9.2858,-273.226 L 9.29999,-273 L 9.2858,-272.774 L 9.24344,-272.552 L 9.17358,-272.337 L 9.07735,-272.133
 L 8.95622,-271.942 L 8.81213,-271.768 L 8.64735,-271.613 L 8.46448,-271.48 L 8.26639,-271.371 L 8.05623,-271.288
 L 7.83728,-271.232 L 7.61302,-271.204 z
" stroke="black" fill="lightgray" stroke-width="0.5"/>
</svg>
