  0
SECTION
  2
BLOCKS
  0
ENDSEC
  0
SECTION
  2
ENTITIES
  0
LINE
  8
0
 10
-43.5
 20
592.441
 11
-43.1871
 21
592.147
  0
LINE
  8
0
 10
-43.1871
 20
592.147
 11
-42.6791
 21
591.778
  0
LINE
  8
0
 10
-42.6791
 20
591.778
 11
-42.1289
 21
591.476
  0
LINE
  8
0
 10
-42.1289
 20
591.476
 11
-41.5451
 21
591.245
  0
LINE
  8
0
 10
-41.5451
 20
591.245
 11
-40.9369
 21
591.089
  0
LINE
  8
0
 10
-40.9369
 20
591.089
 11
-40.3139
 21
591.01
  0
LINE
  8
0
 10
-40.3139
 20
591.01
 11
40.3139
 21
591.01
  0
LINE
  8
0
 10
40.3139
 20
591.01
 11
40.9369
 21
591.089
  0
LINE
  8
0
 10
40.9369
 20
591.089
 11
41.5451
 21
591.245
  0
LINE
  8
0
 10
41.5451
 20
591.245
 11
42.1289
 21
591.476
  0
LINE
  8
0
 10
42.1289
 20
591.476
 11
42.6791
 21
591.778
  0
LINE
  8
0
 10
42.6791
 20
591.778
 11
43.1871
 21
592.147
  0
LINE
  8
0
 10
43.1871
 20
592.147
 11
43.6448
 21
592.577
  0
LINE
  8
0
 10
43.6448
 20
592.577
 11
44.0451
 21
593.061
  0
LINE
  8
0
 10
44.0451
 20
593.061
 11
44.3815
 21
593.591
  0
LINE
  8
0
 10
44.3815
 20
593.591
 11
44.6489
 21
594.159
  0
LINE
  8
0
 10
44.6489
 20
594.159
 11
44.8429
 21
594.757
  0
LINE
  8
0
 10
44.8429
 20
594.757
 11
44.9606
 21
595.373
  0
LINE
  8
0
 10
44.9606
 20
595.373
 11
45
 21
596
  0
LINE
  8
0
 10
45
 20
596
 11
45
 21
646
  0
LINE
  8
0
 10
45
 20
646
 11
44.9606
 21
646.627
  0
LINE
  8
0
 10
44.9606
 20
646.627
 11
44.8429
 21
647.243
  0
LINE
  8
0
 10
44.8429
 20
647.243
 11
44.6489
 21
647.841
  0
LINE
  8
0
 10
44.6489
 20
647.841
 11
44.3815
 21
648.409
  0
LINE
  8
0
 10
44.3815
 20
648.409
 11
44.0451
 21
648.939
  0
LINE
  8
0
 10
44.0451
 20
648.939
 11
43.6448
 21
649.423
  0
LINE
  8
0
 10
43.6448
 20
649.423
 11
43.1871
 21
649.853
  0
LINE
  8
0
 10
43.1871
 20
649.853
 11
42.6791
 21
650.222
  0
LINE
  8
0
 10
42.6791
 20
650.222
 11
42.1289
 21
650.524
  0
LINE
  8
0
 10
42.1289
 20
650.524
 11
41.5451
 21
650.755
  0
LINE
  8
0
 10
41.5451
 20
650.755
 11
40.9369
 21
650.911
  0
LINE
  8
0
 10
40.9369
 20
650.911
 11
40.3139
 21
650.99
  0
LINE
  8
0
 10
40.3139
 20
650.99
 11
-40.3139
 21
650.99
  0
LINE
  8
0
 10
-40.3139
 20
650.99
 11
-40.9369
 21
650.911
  0
LINE
  8
0
 10
-40.9369
 20
650.911
 11
-41.5451
 21
650.755
  0
LINE
  8
0
 10
-41.5451
 20
650.755
 11
-42.1289
 21
650.524
  0
LINE
  8
0
 10
-42.1289
 20
650.524
 11
-42.6791
 21
650.222
  0
LINE
  8
0
 10
-42.6791
 20
650.222
 11
-43.1871
 21
649.853
  0
LINE
  8
0
 10
-43.1871
 20
649.853
 11
-43.5
 21
649.559
  0
LINE
  8
0
 10
-43.5
 20
649.559
 11
-43.5
 21
650.99
  0
LINE
  8
0
 10
-43.5
 20
650.99
 11
-46.5
 21
650.99
  0
LINE
  8
0
 10
-46.5
 20
650.99
 11
-46.5
 21
591.01
  0
LINE
  8
0
 10
-46.5
 20
591.01
 11
-43.5
 21
591.01
  0
LINE
  8
0
 10
-43.5
 20
591.01
 11
-43.5
 21
592.441
  0
LINE
  8
0
 10
-39.7512
 20
592.508
 11
-40.2495
 21
592.571
  0
LINE
  8
0
 10
-40.2495
 20
592.571
 11
-40.7361
 21
592.696
  0
LINE
  8
0
 10
-40.7361
 20
592.696
 11
-41.2031
 21
592.881
  0
LINE
  8
0
 10
-41.2031
 20
592.881
 11
-41.6433
 21
593.123
  0
LINE
  8
0
 10
-41.6433
 20
593.123
 11
-42.0497
 21
593.418
  0
LINE
  8
0
 10
-42.0497
 20
593.418
 11
-42.4159
 21
593.762
  0
LINE
  8
0
 10
-42.4159
 20
593.762
 11
-42.7361
 21
594.149
  0
LINE
  8
0
 10
-42.7361
 20
594.149
 11
-43.0052
 21
594.573
  0
LINE
  8
0
 10
-43.0052
 20
594.573
 11
-43.2191
 21
595.028
  0
LINE
  8
0
 10
-43.2191
 20
595.028
 11
-43.3743
 21
595.505
  0
LINE
  8
0
 10
-43.3743
 20
595.505
 11
-43.4685
 21
595.999
  0
LINE
  8
0
 10
-43.4685
 20
595.999
 11
-43.5
 21
596.5
  0
LINE
  8
0
 10
-43.5
 20
596.5
 11
-43.5
 21
645.5
  0
LINE
  8
0
 10
-43.5
 20
645.5
 11
-43.4685
 21
646.001
  0
LINE
  8
0
 10
-43.4685
 20
646.001
 11
-43.3743
 21
646.495
  0
LINE
  8
0
 10
-43.3743
 20
646.495
 11
-43.2191
 21
646.972
  0
LINE
  8
0
 10
-43.2191
 20
646.972
 11
-43.0052
 21
647.427
  0
LINE
  8
0
 10
-43.0052
 20
647.427
 11
-42.7361
 21
647.851
  0
LINE
  8
0
 10
-42.7361
 20
647.851
 11
-42.4159
 21
648.238
  0
LINE
  8
0
 10
-42.4159
 20
648.238
 11
-42.0497
 21
648.582
  0
LINE
  8
0
 10
-42.0497
 20
648.582
 11
-41.6433
 21
648.877
  0
LINE
  8
0
 10
-41.6433
 20
648.877
 11
-41.2031
 21
649.119
  0
LINE
  8
0
 10
-41.2031
 20
649.119
 11
-40.7361
 21
649.304
  0
LINE
  8
0
 10
-40.7361
 20
649.304
 11
-40.2495
 21
649.429
  0
LINE
  8
0
 10
-40.2495
 20
649.429
 11
-39.7512
 21
649.492
  0
LINE
  8
0
 10
-39.7512
 20
649.492
 11
39.7512
 21
649.492
  0
LINE
  8
0
 10
39.7512
 20
649.492
 11
40.2495
 21
649.429
  0
LINE
  8
0
 10
40.2495
 20
649.429
 11
40.7361
 21
649.304
  0
LINE
  8
0
 10
40.7361
 20
649.304
 11
41.2031
 21
649.119
  0
LINE
  8
0
 10
41.2031
 20
649.119
 11
41.6433
 21
648.877
  0
LINE
  8
0
 10
41.6433
 20
648.877
 11
42.0497
 21
648.582
  0
LINE
  8
0
 10
42.0497
 20
648.582
 11
42.4159
 21
648.238
  0
LINE
  8
0
 10
42.4159
 20
648.238
 11
42.7361
 21
647.851
  0
LINE
  8
0
 10
42.7361
 20
647.851
 11
43.0052
 21
647.427
  0
LINE
  8
0
 10
43.0052
 20
647.427
 11
43.2191
 21
646.972
  0
LINE
  8
0
 10
43.2191
 20
646.972
 11
43.3743
 21
646.495
  0
LINE
  8
0
 10
43.3743
 20
646.495
 11
43.4685
 21
646.001
  0
LINE
  8
0
 10
43.4685
 20
646.001
 11
43.5
 21
645.5
  0
LINE
  8
0
 10
43.5
 20
645.5
 11
43.5
 21
596.5
  0
LINE
  8
0
 10
43.5
 20
596.5
 11
43.4685
 21
595.999
  0
LINE
  8
0
 10
43.4685
 20
595.999
 11
43.3743
 21
595.505
  0
LINE
  8
0
 10
43.3743
 20
595.505
 11
43.2191
 21
595.028
  0
LINE
  8
0
 10
43.2191
 20
595.028
 11
43.0052
 21
594.573
  0
LINE
  8
0
 10
43.0052
 20
594.573
 11
42.7361
 21
594.149
  0
LINE
  8
0
 10
42.7361
 20
594.149
 11
42.4159
 21
593.762
  0
LINE
  8
0
 10
42.4159
 20
593.762
 11
42.0497
 21
593.418
  0
LINE
  8
0
 10
42.0497
 20
593.418
 11
41.6433
 21
593.123
  0
LINE
  8
0
 10
41.6433
 20
593.123
 11
41.2031
 21
592.881
  0
LINE
  8
0
 10
41.2031
 20
592.881
 11
40.7361
 21
592.696
  0
LINE
  8
0
 10
40.7361
 20
592.696
 11
40.2495
 21
592.571
  0
LINE
  8
0
 10
40.2495
 20
592.571
 11
39.7512
 21
592.508
  0
LINE
  8
0
 10
39.7512
 20
592.508
 11
-39.7512
 21
592.508
  0
LINE
  8
0
 10
-43.5
 20
523.441
 11
-43.1871
 21
523.147
  0
LINE
  8
0
 10
-43.1871
 20
523.147
 11
-42.6791
 21
522.778
  0
LINE
  8
0
 10
-42.6791
 20
522.778
 11
-42.1289
 21
522.476
  0
LINE
  8
0
 10
-42.1289
 20
522.476
 11
-41.5451
 21
522.245
  0
LINE
  8
0
 10
-41.5451
 20
522.245
 11
-40.9369
 21
522.089
  0
LINE
  8
0
 10
-40.9369
 20
522.089
 11
-40.3139
 21
522.01
  0
LINE
  8
0
 10
-40.3139
 20
522.01
 11
40.3139
 21
522.01
  0
LINE
  8
0
 10
40.3139
 20
522.01
 11
40.9369
 21
522.089
  0
LINE
  8
0
 10
40.9369
 20
522.089
 11
41.5451
 21
522.245
  0
LINE
  8
0
 10
41.5451
 20
522.245
 11
42.1289
 21
522.476
  0
LINE
  8
0
 10
42.1289
 20
522.476
 11
42.6791
 21
522.778
  0
LINE
  8
0
 10
42.6791
 20
522.778
 11
43.1871
 21
523.147
  0
LINE
  8
0
 10
43.1871
 20
523.147
 11
43.6448
 21
523.577
  0
LINE
  8
0
 10
43.6448
 20
523.577
 11
44.0451
 21
524.061
  0
LINE
  8
0
 10
44.0451
 20
524.061
 11
44.3815
 21
524.591
  0
LINE
  8
0
 10
44.3815
 20
524.591
 11
44.6489
 21
525.159
  0
LINE
  8
0
 10
44.6489
 20
525.159
 11
44.8429
 21
525.757
  0
LINE
  8
0
 10
44.8429
 20
525.757
 11
44.9606
 21
526.373
  0
LINE
  8
0
 10
44.9606
 20
526.373
 11
45
 21
527
  0
LINE
  8
0
 10
45
 20
527
 11
45
 21
577
  0
LINE
  8
0
 10
45
 20
577
 11
44.9606
 21
577.627
  0
LINE
  8
0
 10
44.9606
 20
577.627
 11
44.8429
 21
578.243
  0
LINE
  8
0
 10
44.8429
 20
578.243
 11
44.6489
 21
578.841
  0
LINE
  8
0
 10
44.6489
 20
578.841
 11
44.3815
 21
579.409
  0
LINE
  8
0
 10
44.3815
 20
579.409
 11
44.0451
 21
579.939
  0
LINE
  8
0
 10
44.0451
 20
579.939
 11
43.6448
 21
580.423
  0
LINE
  8
0
 10
43.6448
 20
580.423
 11
43.1871
 21
580.853
  0
LINE
  8
0
 10
43.1871
 20
580.853
 11
42.6791
 21
581.222
  0
LINE
  8
0
 10
42.6791
 20
581.222
 11
42.1289
 21
581.524
  0
LINE
  8
0
 10
42.1289
 20
581.524
 11
41.5451
 21
581.755
  0
LINE
  8
0
 10
41.5451
 20
581.755
 11
40.9369
 21
581.911
  0
LINE
  8
0
 10
40.9369
 20
581.911
 11
40.3139
 21
581.99
  0
LINE
  8
0
 10
40.3139
 20
581.99
 11
-40.3139
 21
581.99
  0
LINE
  8
0
 10
-40.3139
 20
581.99
 11
-40.9369
 21
581.911
  0
LINE
  8
0
 10
-40.9369
 20
581.911
 11
-41.5451
 21
581.755
  0
LINE
  8
0
 10
-41.5451
 20
581.755
 11
-42.1289
 21
581.524
  0
LINE
  8
0
 10
-42.1289
 20
581.524
 11
-42.6791
 21
581.222
  0
LINE
  8
0
 10
-42.6791
 20
581.222
 11
-43.1871
 21
580.853
  0
LINE
  8
0
 10
-43.1871
 20
580.853
 11
-43.5
 21
580.559
  0
LINE
  8
0
 10
-43.5
 20
580.559
 11
-43.5
 21
581.99
  0
LINE
  8
0
 10
-43.5
 20
581.99
 11
-46.5
 21
581.99
  0
LINE
  8
0
 10
-46.5
 20
581.99
 11
-46.5
 21
522.01
  0
LINE
  8
0
 10
-46.5
 20
522.01
 11
-43.5
 21
522.01
  0
LINE
  8
0
 10
-43.5
 20
522.01
 11
-43.5
 21
523.441
  0
LINE
  8
0
 10
-39.7512
 20
523.508
 11
-40.2495
 21
523.571
  0
LINE
  8
0
 10
-40.2495
 20
523.571
 11
-40.7361
 21
523.696
  0
LINE
  8
0
 10
-40.7361
 20
523.696
 11
-41.2031
 21
523.881
  0
LINE
  8
0
 10
-41.2031
 20
523.881
 11
-41.6433
 21
524.123
  0
LINE
  8
0
 10
-41.6433
 20
524.123
 11
-42.0497
 21
524.418
  0
LINE
  8
0
 10
-42.0497
 20
524.418
 11
-42.4159
 21
524.762
  0
LINE
  8
0
 10
-42.4159
 20
524.762
 11
-42.7361
 21
525.149
  0
LINE
  8
0
 10
-42.7361
 20
525.149
 11
-43.0052
 21
525.573
  0
LINE
  8
0
 10
-43.0052
 20
525.573
 11
-43.2191
 21
526.028
  0
LINE
  8
0
 10
-43.2191
 20
526.028
 11
-43.3743
 21
526.505
  0
LINE
  8
0
 10
-43.3743
 20
526.505
 11
-43.4685
 21
526.999
  0
LINE
  8
0
 10
-43.4685
 20
526.999
 11
-43.5
 21
527.5
  0
LINE
  8
0
 10
-43.5
 20
527.5
 11
-43.5
 21
576.5
  0
LINE
  8
0
 10
-43.5
 20
576.5
 11
-43.4685
 21
577.001
  0
LINE
  8
0
 10
-43.4685
 20
577.001
 11
-43.3743
 21
577.495
  0
LINE
  8
0
 10
-43.3743
 20
577.495
 11
-43.2191
 21
577.972
  0
LINE
  8
0
 10
-43.2191
 20
577.972
 11
-43.0052
 21
578.427
  0
LINE
  8
0
 10
-43.0052
 20
578.427
 11
-42.7361
 21
578.851
  0
LINE
  8
0
 10
-42.7361
 20
578.851
 11
-42.4159
 21
579.238
  0
LINE
  8
0
 10
-42.4159
 20
579.238
 11
-42.0497
 21
579.582
  0
LINE
  8
0
 10
-42.0497
 20
579.582
 11
-41.6433
 21
579.877
  0
LINE
  8
0
 10
-41.6433
 20
579.877
 11
-41.2031
 21
580.119
  0
LINE
  8
0
 10
-41.2031
 20
580.119
 11
-40.7361
 21
580.304
  0
LINE
  8
0
 10
-40.7361
 20
580.304
 11
-40.2495
 21
580.429
  0
LINE
  8
0
 10
-40.2495
 20
580.429
 11
-39.7512
 21
580.492
  0
LINE
  8
0
 10
-39.7512
 20
580.492
 11
39.7512
 21
580.492
  0
LINE
  8
0
 10
39.7512
 20
580.492
 11
40.2495
 21
580.429
  0
LINE
  8
0
 10
40.2495
 20
580.429
 11
40.7361
 21
580.304
  0
LINE
  8
0
 10
40.7361
 20
580.304
 11
41.2031
 21
580.119
  0
LINE
  8
0
 10
41.2031
 20
580.119
 11
41.6433
 21
579.877
  0
LINE
  8
0
 10
41.6433
 20
579.877
 11
42.0497
 21
579.582
  0
LINE
  8
0
 10
42.0497
 20
579.582
 11
42.4159
 21
579.238
  0
LINE
  8
0
 10
42.4159
 20
579.238
 11
42.7361
 21
578.851
  0
LINE
  8
0
 10
42.7361
 20
578.851
 11
43.0052
 21
578.427
  0
LINE
  8
0
 10
43.0052
 20
578.427
 11
43.2191
 21
577.972
  0
LINE
  8
0
 10
43.2191
 20
577.972
 11
43.3743
 21
577.495
  0
LINE
  8
0
 10
43.3743
 20
577.495
 11
43.4685
 21
577.001
  0
LINE
  8
0
 10
43.4685
 20
577.001
 11
43.5
 21
576.5
  0
LINE
  8
0
 10
43.5
 20
576.5
 11
43.5
 21
527.5
  0
LINE
  8
0
 10
43.5
 20
527.5
 11
43.4685
 21
526.999
  0
LINE
  8
0
 10
43.4685
 20
526.999
 11
43.3743
 21
526.505
  0
LINE
  8
0
 10
43.3743
 20
526.505
 11
43.2191
 21
526.028
  0
LINE
  8
0
 10
43.2191
 20
526.028
 11
43.0052
 21
525.573
  0
LINE
  8
0
 10
43.0052
 20
525.573
 11
42.7361
 21
525.149
  0
LINE
  8
0
 10
42.7361
 20
525.149
 11
42.4159
 21
524.762
  0
LINE
  8
0
 10
42.4159
 20
524.762
 11
42.0497
 21
524.418
  0
LINE
  8
0
 10
42.0497
 20
524.418
 11
41.6433
 21
524.123
  0
LINE
  8
0
 10
41.6433
 20
524.123
 11
41.2031
 21
523.881
  0
LINE
  8
0
 10
41.2031
 20
523.881
 11
40.7361
 21
523.696
  0
LINE
  8
0
 10
40.7361
 20
523.696
 11
40.2495
 21
523.571
  0
LINE
  8
0
 10
40.2495
 20
523.571
 11
39.7512
 21
523.508
  0
LINE
  8
0
 10
39.7512
 20
523.508
 11
-39.7512
 21
523.508
  0
LINE
  8
0
 10
-43.5
 20
454.441
 11
-43.1871
 21
454.147
  0
LINE
  8
0
 10
-43.1871
 20
454.147
 11
-42.6791
 21
453.778
  0
LINE
  8
0
 10
-42.6791
 20
453.778
 11
-42.1289
 21
453.476
  0
LINE
  8
0
 10
-42.1289
 20
453.476
 11
-41.5451
 21
453.245
  0
LINE
  8
0
 10
-41.5451
 20
453.245
 11
-40.9369
 21
453.089
  0
LINE
  8
0
 10
-40.9369
 20
453.089
 11
-40.3139
 21
453.01
  0
LINE
  8
0
 10
-40.3139
 20
453.01
 11
40.3139
 21
453.01
  0
LINE
  8
0
 10
40.3139
 20
453.01
 11
40.9369
 21
453.089
  0
LINE
  8
0
 10
40.9369
 20
453.089
 11
41.5451
 21
453.245
  0
LINE
  8
0
 10
41.5451
 20
453.245
 11
42.1289
 21
453.476
  0
LINE
  8
0
 10
42.1289
 20
453.476
 11
42.6791
 21
453.778
  0
LINE
  8
0
 10
42.6791
 20
453.778
 11
43.1871
 21
454.147
  0
LINE
  8
0
 10
43.1871
 20
454.147
 11
43.6448
 21
454.577
  0
LINE
  8
0
 10
43.6448
 20
454.577
 11
44.0451
 21
455.061
  0
LINE
  8
0
 10
44.0451
 20
455.061
 11
44.3815
 21
455.591
  0
LINE
  8
0
 10
44.3815
 20
455.591
 11
44.6489
 21
456.159
  0
LINE
  8
0
 10
44.6489
 20
456.159
 11
44.8429
 21
456.757
  0
LINE
  8
0
 10
44.8429
 20
456.757
 11
44.9606
 21
457.373
  0
LINE
  8
0
 10
44.9606
 20
457.373
 11
45
 21
458
  0
LINE
  8
0
 10
45
 20
458
 11
45
 21
508
  0
LINE
  8
0
 10
45
 20
508
 11
44.9606
 21
508.627
  0
LINE
  8
0
 10
44.9606
 20
508.627
 11
44.8429
 21
509.243
  0
LINE
  8
0
 10
44.8429
 20
509.243
 11
44.6489
 21
509.841
  0
LINE
  8
0
 10
44.6489
 20
509.841
 11
44.3815
 21
510.409
  0
LINE
  8
0
 10
44.3815
 20
510.409
 11
44.0451
 21
510.939
  0
LINE
  8
0
 10
44.0451
 20
510.939
 11
43.6448
 21
511.423
  0
LINE
  8
0
 10
43.6448
 20
511.423
 11
43.1871
 21
511.853
  0
LINE
  8
0
 10
43.1871
 20
511.853
 11
42.6791
 21
512.222
  0
LINE
  8
0
 10
42.6791
 20
512.222
 11
42.1289
 21
512.524
  0
LINE
  8
0
 10
42.1289
 20
512.524
 11
41.5451
 21
512.755
  0
LINE
  8
0
 10
41.5451
 20
512.755
 11
40.9369
 21
512.911
  0
LINE
  8
0
 10
40.9369
 20
512.911
 11
40.3139
 21
512.99
  0
LINE
  8
0
 10
40.3139
 20
512.99
 11
-40.3139
 21
512.99
  0
LINE
  8
0
 10
-40.3139
 20
512.99
 11
-40.9369
 21
512.911
  0
LINE
  8
0
 10
-40.9369
 20
512.911
 11
-41.5451
 21
512.755
  0
LINE
  8
0
 10
-41.5451
 20
512.755
 11
-42.1289
 21
512.524
  0
LINE
  8
0
 10
-42.1289
 20
512.524
 11
-42.6791
 21
512.222
  0
LINE
  8
0
 10
-42.6791
 20
512.222
 11
-43.1871
 21
511.853
  0
LINE
  8
0
 10
-43.1871
 20
511.853
 11
-43.5
 21
511.559
  0
LINE
  8
0
 10
-43.5
 20
511.559
 11
-43.5
 21
512.99
  0
LINE
  8
0
 10
-43.5
 20
512.99
 11
-46.5
 21
512.99
  0
LINE
  8
0
 10
-46.5
 20
512.99
 11
-46.5
 21
453.01
  0
LINE
  8
0
 10
-46.5
 20
453.01
 11
-43.5
 21
453.01
  0
LINE
  8
0
 10
-43.5
 20
453.01
 11
-43.5
 21
454.441
  0
LINE
  8
0
 10
-39.7512
 20
454.508
 11
-40.2495
 21
454.571
  0
LINE
  8
0
 10
-40.2495
 20
454.571
 11
-40.7361
 21
454.696
  0
LINE
  8
0
 10
-40.7361
 20
454.696
 11
-41.2031
 21
454.881
  0
LINE
  8
0
 10
-41.2031
 20
454.881
 11
-41.6433
 21
455.123
  0
LINE
  8
0
 10
-41.6433
 20
455.123
 11
-42.0497
 21
455.418
  0
LINE
  8
0
 10
-42.0497
 20
455.418
 11
-42.4159
 21
455.762
  0
LINE
  8
0
 10
-42.4159
 20
455.762
 11
-42.7361
 21
456.149
  0
LINE
  8
0
 10
-42.7361
 20
456.149
 11
-43.0052
 21
456.573
  0
LINE
  8
0
 10
-43.0052
 20
456.573
 11
-43.2191
 21
457.028
  0
LINE
  8
0
 10
-43.2191
 20
457.028
 11
-43.3743
 21
457.505
  0
LINE
  8
0
 10
-43.3743
 20
457.505
 11
-43.4685
 21
457.999
  0
LINE
  8
0
 10
-43.4685
 20
457.999
 11
-43.5
 21
458.5
  0
LINE
  8
0
 10
-43.5
 20
458.5
 11
-43.5
 21
507.5
  0
LINE
  8
0
 10
-43.5
 20
507.5
 11
-43.4685
 21
508.001
  0
LINE
  8
0
 10
-43.4685
 20
508.001
 11
-43.3743
 21
508.495
  0
LINE
  8
0
 10
-43.3743
 20
508.495
 11
-43.2191
 21
508.972
  0
LINE
  8
0
 10
-43.2191
 20
508.972
 11
-43.0052
 21
509.427
  0
LINE
  8
0
 10
-43.0052
 20
509.427
 11
-42.7361
 21
509.851
  0
LINE
  8
0
 10
-42.7361
 20
509.851
 11
-42.4159
 21
510.238
  0
LINE
  8
0
 10
-42.4159
 20
510.238
 11
-42.0497
 21
510.582
  0
LINE
  8
0
 10
-42.0497
 20
510.582
 11
-41.6433
 21
510.877
  0
LINE
  8
0
 10
-41.6433
 20
510.877
 11
-41.2031
 21
511.119
  0
LINE
  8
0
 10
-41.2031
 20
511.119
 11
-40.7361
 21
511.304
  0
LINE
  8
0
 10
-40.7361
 20
511.304
 11
-40.2495
 21
511.429
  0
LINE
  8
0
 10
-40.2495
 20
511.429
 11
-39.7512
 21
511.492
  0
LINE
  8
0
 10
-39.7512
 20
511.492
 11
39.7512
 21
511.492
  0
LINE
  8
0
 10
39.7512
 20
511.492
 11
40.2495
 21
511.429
  0
LINE
  8
0
 10
40.2495
 20
511.429
 11
40.7361
 21
511.304
  0
LINE
  8
0
 10
40.7361
 20
511.304
 11
41.2031
 21
511.119
  0
LINE
  8
0
 10
41.2031
 20
511.119
 11
41.6433
 21
510.877
  0
LINE
  8
0
 10
41.6433
 20
510.877
 11
42.0497
 21
510.582
  0
LINE
  8
0
 10
42.0497
 20
510.582
 11
42.4159
 21
510.238
  0
LINE
  8
0
 10
42.4159
 20
510.238
 11
42.7361
 21
509.851
  0
LINE
  8
0
 10
42.7361
 20
509.851
 11
43.0052
 21
509.427
  0
LINE
  8
0
 10
43.0052
 20
509.427
 11
43.2191
 21
508.972
  0
LINE
  8
0
 10
43.2191
 20
508.972
 11
43.3743
 21
508.495
  0
LINE
  8
0
 10
43.3743
 20
508.495
 11
43.4685
 21
508.001
  0
LINE
  8
0
 10
43.4685
 20
508.001
 11
43.5
 21
507.5
  0
LINE
  8
0
 10
43.5
 20
507.5
 11
43.5
 21
458.5
  0
LINE
  8
0
 10
43.5
 20
458.5
 11
43.4685
 21
457.999
  0
LINE
  8
0
 10
43.4685
 20
457.999
 11
43.3743
 21
457.505
  0
LINE
  8
0
 10
43.3743
 20
457.505
 11
43.2191
 21
457.028
  0
LINE
  8
0
 10
43.2191
 20
457.028
 11
43.0052
 21
456.573
  0
LINE
  8
0
 10
43.0052
 20
456.573
 11
42.7361
 21
456.149
  0
LINE
  8
0
 10
42.7361
 20
456.149
 11
42.4159
 21
455.762
  0
LINE
  8
0
 10
42.4159
 20
455.762
 11
42.0497
 21
455.418
  0
LINE
  8
0
 10
42.0497
 20
455.418
 11
41.6433
 21
455.123
  0
LINE
  8
0
 10
41.6433
 20
455.123
 11
41.2031
 21
454.881
  0
LINE
  8
0
 10
41.2031
 20
454.881
 11
40.7361
 21
454.696
  0
LINE
  8
0
 10
40.7361
 20
454.696
 11
40.2495
 21
454.571
  0
LINE
  8
0
 10
40.2495
 20
454.571
 11
39.7512
 21
454.508
  0
LINE
  8
0
 10
39.7512
 20
454.508
 11
-39.7512
 21
454.508
  0
LINE
  8
0
 10
40.9369
 20
384.089
 11
41.5451
 21
384.245
  0
LINE
  8
0
 10
41.5451
 20
384.245
 11
42.1289
 21
384.476
  0
LINE
  8
0
 10
42.1289
 20
384.476
 11
42.6791
 21
384.778
  0
LINE
  8
0
 10
42.6791
 20
384.778
 11
43.1871
 21
385.147
  0
LINE
  8
0
 10
43.1871
 20
385.147
 11
43.6448
 21
385.577
  0
LINE
  8
0
 10
43.6448
 20
385.577
 11
44.0451
 21
386.061
  0
LINE
  8
0
 10
44.0451
 20
386.061
 11
44.3815
 21
386.591
  0
LINE
  8
0
 10
44.3815
 20
386.591
 11
44.6489
 21
387.159
  0
LINE
  8
0
 10
44.6489
 20
387.159
 11
44.8429
 21
387.757
  0
LINE
  8
0
 10
44.8429
 20
387.757
 11
44.9606
 21
388.373
  0
LINE
  8
0
 10
44.9606
 20
388.373
 11
45
 21
389
  0
LINE
  8
0
 10
45
 20
389
 11
45
 21
439
  0
LINE
  8
0
 10
45
 20
439
 11
44.9606
 21
439.627
  0
LINE
  8
0
 10
44.9606
 20
439.627
 11
44.8429
 21
440.243
  0
LINE
  8
0
 10
44.8429
 20
440.243
 11
44.6489
 21
440.841
  0
LINE
  8
0
 10
44.6489
 20
440.841
 11
44.3815
 21
441.409
  0
LINE
  8
0
 10
44.3815
 20
441.409
 11
44.0451
 21
441.939
  0
LINE
  8
0
 10
44.0451
 20
441.939
 11
43.6448
 21
442.423
  0
LINE
  8
0
 10
43.6448
 20
442.423
 11
43.1871
 21
442.853
  0
LINE
  8
0
 10
43.1871
 20
442.853
 11
42.6791
 21
443.222
  0
LINE
  8
0
 10
42.6791
 20
443.222
 11
42.1289
 21
443.524
  0
LINE
  8
0
 10
42.1289
 20
443.524
 11
41.5451
 21
443.755
  0
LINE
  8
0
 10
41.5451
 20
443.755
 11
40.9369
 21
443.911
  0
LINE
  8
0
 10
40.9369
 20
443.911
 11
40.3139
 21
443.99
  0
LINE
  8
0
 10
40.3139
 20
443.99
 11
-40.3139
 21
443.99
  0
LINE
  8
0
 10
-40.3139
 20
443.99
 11
-40.9369
 21
443.911
  0
LINE
  8
0
 10
-40.9369
 20
443.911
 11
-41.5451
 21
443.755
  0
LINE
  8
0
 10
-41.5451
 20
443.755
 11
-42.1289
 21
443.524
  0
LINE
  8
0
 10
-42.1289
 20
443.524
 11
-42.6791
 21
443.222
  0
LINE
  8
0
 10
-42.6791
 20
443.222
 11
-43.1871
 21
442.853
  0
LINE
  8
0
 10
-43.1871
 20
442.853
 11
-43.5
 21
442.559
  0
LINE
  8
0
 10
-43.5
 20
442.559
 11
-43.5
 21
443.979
  0
LINE
  8
0
 10
-43.5
 20
443.979
 11
-46.5
 21
443.979
  0
LINE
  8
0
 10
-46.5
 20
443.979
 11
-46.5
 21
384.021
  0
LINE
  8
0
 10
-46.5
 20
384.021
 11
-43.5
 21
384.021
  0
LINE
  8
0
 10
-43.5
 20
384.021
 11
-43.5
 21
385.441
  0
LINE
  8
0
 10
-43.5
 20
385.441
 11
-43.1871
 21
385.147
  0
LINE
  8
0
 10
-43.1871
 20
385.147
 11
-42.6791
 21
384.778
  0
LINE
  8
0
 10
-42.6791
 20
384.778
 11
-42.1289
 21
384.476
  0
LINE
  8
0
 10
-42.1289
 20
384.476
 11
-41.5451
 21
384.245
  0
LINE
  8
0
 10
-41.5451
 20
384.245
 11
-40.9369
 21
384.089
  0
LINE
  8
0
 10
-40.9369
 20
384.089
 11
-40.3139
 21
384.01
  0
LINE
  8
0
 10
-40.3139
 20
384.01
 11
40.3139
 21
384.01
  0
LINE
  8
0
 10
40.3139
 20
384.01
 11
40.9369
 21
384.089
  0
LINE
  8
0
 10
-39.6954
 20
386.393
 11
-40.0833
 21
386.442
  0
LINE
  8
0
 10
-40.0833
 20
386.442
 11
-40.4619
 21
386.539
  0
LINE
  8
0
 10
-40.4619
 20
386.539
 11
-40.8254
 21
386.683
  0
LINE
  8
0
 10
-40.8254
 20
386.683
 11
-41.168
 21
386.872
  0
LINE
  8
0
 10
-41.168
 20
386.872
 11
-41.4842
 21
387.101
  0
LINE
  8
0
 10
-41.4842
 20
387.101
 11
-41.7692
 21
387.369
  0
LINE
  8
0
 10
-41.7692
 20
387.369
 11
-42.0184
 21
387.67
  0
LINE
  8
0
 10
-42.0184
 20
387.67
 11
-42.2279
 21
388
  0
LINE
  8
0
 10
-42.2279
 20
388
 11
-42.3943
 21
388.354
  0
LINE
  8
0
 10
-42.3943
 20
388.354
 11
-42.5151
 21
388.726
  0
LINE
  8
0
 10
-42.5151
 20
388.726
 11
-42.5884
 21
389.11
  0
LINE
  8
0
 10
-42.5884
 20
389.11
 11
-42.6129
 21
389.5
  0
LINE
  8
0
 10
-42.6129
 20
389.5
 11
-42.6129
 21
438.5
  0
LINE
  8
0
 10
-42.6129
 20
438.5
 11
-42.5884
 21
438.89
  0
LINE
  8
0
 10
-42.5884
 20
438.89
 11
-42.5151
 21
439.274
  0
LINE
  8
0
 10
-42.5151
 20
439.274
 11
-42.3943
 21
439.646
  0
LINE
  8
0
 10
-42.3943
 20
439.646
 11
-42.2279
 21
440
  0
LINE
  8
0
 10
-42.2279
 20
440
 11
-42.0184
 21
440.33
  0
LINE
  8
0
 10
-42.0184
 20
440.33
 11
-41.7692
 21
440.631
  0
LINE
  8
0
 10
-41.7692
 20
440.631
 11
-41.4842
 21
440.899
  0
LINE
  8
0
 10
-41.4842
 20
440.899
 11
-41.168
 21
441.128
  0
LINE
  8
0
 10
-41.168
 20
441.128
 11
-40.8254
 21
441.317
  0
LINE
  8
0
 10
-40.8254
 20
441.317
 11
-40.4619
 21
441.461
  0
LINE
  8
0
 10
-40.4619
 20
441.461
 11
-40.0833
 21
441.558
  0
LINE
  8
0
 10
-40.0833
 20
441.558
 11
-39.6954
 21
441.607
  0
LINE
  8
0
 10
-39.6954
 20
441.607
 11
39.6954
 21
441.607
  0
LINE
  8
0
 10
39.6954
 20
441.607
 11
40.0833
 21
441.558
  0
LINE
  8
0
 10
40.0833
 20
441.558
 11
40.4619
 21
441.461
  0
LINE
  8
0
 10
40.4619
 20
441.461
 11
40.8254
 21
441.317
  0
LINE
  8
0
 10
40.8254
 20
441.317
 11
41.168
 21
441.128
  0
LINE
  8
0
 10
41.168
 20
441.128
 11
41.4842
 21
440.899
  0
LINE
  8
0
 10
41.4842
 20
440.899
 11
41.7692
 21
440.631
  0
LINE
  8
0
 10
41.7692
 20
440.631
 11
42.0184
 21
440.33
  0
LINE
  8
0
 10
42.0184
 20
440.33
 11
42.2279
 21
440
  0
LINE
  8
0
 10
42.2279
 20
440
 11
42.3943
 21
439.646
  0
LINE
  8
0
 10
42.3943
 20
439.646
 11
42.5151
 21
439.274
  0
LINE
  8
0
 10
42.5151
 20
439.274
 11
42.5884
 21
438.89
  0
LINE
  8
0
 10
42.5884
 20
438.89
 11
42.6129
 21
438.5
  0
LINE
  8
0
 10
42.6129
 20
438.5
 11
42.6129
 21
389.5
  0
LINE
  8
0
 10
42.6129
 20
389.5
 11
42.5884
 21
389.11
  0
LINE
  8
0
 10
42.5884
 20
389.11
 11
42.5151
 21
388.726
  0
LINE
  8
0
 10
42.5151
 20
388.726
 11
42.3943
 21
388.354
  0
LINE
  8
0
 10
42.3943
 20
388.354
 11
42.2279
 21
388
  0
LINE
  8
0
 10
42.2279
 20
388
 11
42.0184
 21
387.67
  0
LINE
  8
0
 10
42.0184
 20
387.67
 11
41.7692
 21
387.369
  0
LINE
  8
0
 10
41.7692
 20
387.369
 11
41.4842
 21
387.101
  0
LINE
  8
0
 10
41.4842
 20
387.101
 11
41.168
 21
386.872
  0
LINE
  8
0
 10
41.168
 20
386.872
 11
40.8254
 21
386.683
  0
LINE
  8
0
 10
40.8254
 20
386.683
 11
40.4619
 21
386.539
  0
LINE
  8
0
 10
40.4619
 20
386.539
 11
40.0833
 21
386.442
  0
LINE
  8
0
 10
40.0833
 20
386.442
 11
39.6954
 21
386.393
  0
LINE
  8
0
 10
39.6954
 20
386.393
 11
-39.6954
 21
386.393
  0
LINE
  8
0
 10
40.9369
 20
315.089
 11
41.5451
 21
315.245
  0
LINE
  8
0
 10
41.5451
 20
315.245
 11
42.1289
 21
315.476
  0
LINE
  8
0
 10
42.1289
 20
315.476
 11
42.6791
 21
315.778
  0
LINE
  8
0
 10
42.6791
 20
315.778
 11
43.1871
 21
316.147
  0
LINE
  8
0
 10
43.1871
 20
316.147
 11
43.6448
 21
316.577
  0
LINE
  8
0
 10
43.6448
 20
316.577
 11
44.0451
 21
317.061
  0
LINE
  8
0
 10
44.0451
 20
317.061
 11
44.3815
 21
317.591
  0
LINE
  8
0
 10
44.3815
 20
317.591
 11
44.6489
 21
318.159
  0
LINE
  8
0
 10
44.6489
 20
318.159
 11
44.8429
 21
318.757
  0
LINE
  8
0
 10
44.8429
 20
318.757
 11
44.9606
 21
319.373
  0
LINE
  8
0
 10
44.9606
 20
319.373
 11
45
 21
320
  0
LINE
  8
0
 10
45
 20
320
 11
45
 21
370
  0
LINE
  8
0
 10
45
 20
370
 11
44.9606
 21
370.627
  0
LINE
  8
0
 10
44.9606
 20
370.627
 11
44.8429
 21
371.243
  0
LINE
  8
0
 10
44.8429
 20
371.243
 11
44.6489
 21
371.841
  0
LINE
  8
0
 10
44.6489
 20
371.841
 11
44.3815
 21
372.409
  0
LINE
  8
0
 10
44.3815
 20
372.409
 11
44.0451
 21
372.939
  0
LINE
  8
0
 10
44.0451
 20
372.939
 11
43.6448
 21
373.423
  0
LINE
  8
0
 10
43.6448
 20
373.423
 11
43.1871
 21
373.853
  0
LINE
  8
0
 10
43.1871
 20
373.853
 11
42.6791
 21
374.222
  0
LINE
  8
0
 10
42.6791
 20
374.222
 11
42.1289
 21
374.524
  0
LINE
  8
0
 10
42.1289
 20
374.524
 11
41.5451
 21
374.755
  0
LINE
  8
0
 10
41.5451
 20
374.755
 11
40.9369
 21
374.911
  0
LINE
  8
0
 10
40.9369
 20
374.911
 11
40.3139
 21
374.99
  0
LINE
  8
0
 10
40.3139
 20
374.99
 11
-40.3139
 21
374.99
  0
LINE
  8
0
 10
-40.3139
 20
374.99
 11
-40.9369
 21
374.911
  0
LINE
  8
0
 10
-40.9369
 20
374.911
 11
-41.5451
 21
374.755
  0
LINE
  8
0
 10
-41.5451
 20
374.755
 11
-42.1289
 21
374.524
  0
LINE
  8
0
 10
-42.1289
 20
374.524
 11
-42.6791
 21
374.222
  0
LINE
  8
0
 10
-42.6791
 20
374.222
 11
-43.1871
 21
373.853
  0
LINE
  8
0
 10
-43.1871
 20
373.853
 11
-43.5
 21
373.559
  0
LINE
  8
0
 10
-43.5
 20
373.559
 11
-43.5
 21
373.653
  0
LINE
  8
0
 10
-43.5
 20
373.653
 11
-46.5
 21
373.653
  0
LINE
  8
0
 10
-46.5
 20
373.653
 11
-46.5
 21
316.347
  0
LINE
  8
0
 10
-46.5
 20
316.347
 11
-43.5
 21
316.347
  0
LINE
  8
0
 10
-43.5
 20
316.347
 11
-43.5
 21
316.441
  0
LINE
  8
0
 10
-43.5
 20
316.441
 11
-43.1871
 21
316.147
  0
LINE
  8
0
 10
-43.1871
 20
316.147
 11
-42.6791
 21
315.778
  0
LINE
  8
0
 10
-42.6791
 20
315.778
 11
-42.1289
 21
315.476
  0
LINE
  8
0
 10
-42.1289
 20
315.476
 11
-41.5451
 21
315.245
  0
LINE
  8
0
 10
-41.5451
 20
315.245
 11
-40.9369
 21
315.089
  0
LINE
  8
0
 10
-40.9369
 20
315.089
 11
-40.3139
 21
315.01
  0
LINE
  8
0
 10
-40.3139
 20
315.01
 11
40.3139
 21
315.01
  0
LINE
  8
0
 10
40.3139
 20
315.01
 11
40.9369
 21
315.089
  0
LINE
  8
0
 10
-37.6341
 20
365.369
 11
-37.9001
 21
365.403
  0
LINE
  8
0
 10
-37.9001
 20
365.403
 11
-38.1598
 21
365.469
  0
LINE
  8
0
 10
-38.1598
 20
365.469
 11
-38.4092
 21
365.568
  0
LINE
  8
0
 10
-38.4092
 20
365.568
 11
-38.6441
 21
365.697
  0
LINE
  8
0
 10
-38.6441
 20
365.697
 11
-38.8611
 21
365.855
  0
LINE
  8
0
 10
-38.8611
 20
365.855
 11
-39.0565
 21
366.038
  0
LINE
  8
0
 10
-39.0565
 20
366.038
 11
-39.2275
 21
366.245
  0
LINE
  8
0
 10
-39.2275
 20
366.245
 11
-39.3712
 21
366.471
  0
LINE
  8
0
 10
-39.3712
 20
366.471
 11
-39.4853
 21
366.714
  0
LINE
  8
0
 10
-39.4853
 20
366.714
 11
-39.5682
 21
366.969
  0
LINE
  8
0
 10
-39.5682
 20
366.969
 11
-39.6185
 21
367.232
  0
LINE
  8
0
 10
-39.6185
 20
367.232
 11
-39.6353
 21
367.5
  0
LINE
  8
0
 10
-39.6353
 20
367.5
 11
-39.6185
 21
367.768
  0
LINE
  8
0
 10
-39.6185
 20
367.768
 11
-39.5682
 21
368.031
  0
LINE
  8
0
 10
-39.5682
 20
368.031
 11
-39.4853
 21
368.286
  0
LINE
  8
0
 10
-39.4853
 20
368.286
 11
-39.3712
 21
368.529
  0
LINE
  8
0
 10
-39.3712
 20
368.529
 11
-39.2275
 21
368.755
  0
LINE
  8
0
 10
-39.2275
 20
368.755
 11
-39.0565
 21
368.962
  0
LINE
  8
0
 10
-39.0565
 20
368.962
 11
-38.8611
 21
369.145
  0
LINE
  8
0
 10
-38.8611
 20
369.145
 11
-38.6441
 21
369.303
  0
LINE
  8
0
 10
-38.6441
 20
369.303
 11
-38.4092
 21
369.432
  0
LINE
  8
0
 10
-38.4092
 20
369.432
 11
-38.1598
 21
369.531
  0
LINE
  8
0
 10
-38.1598
 20
369.531
 11
-37.9001
 21
369.597
  0
LINE
  8
0
 10
-37.9001
 20
369.597
 11
-37.6341
 21
369.631
  0
LINE
  8
0
 10
-37.6341
 20
369.631
 11
-37.3659
 21
369.631
  0
LINE
  8
0
 10
-37.3659
 20
369.631
 11
-37.0999
 21
369.597
  0
LINE
  8
0
 10
-37.0999
 20
369.597
 11
-36.8401
 21
369.531
  0
LINE
  8
0
 10
-36.8401
 20
369.531
 11
-36.5908
 21
369.432
  0
LINE
  8
0
 10
-36.5908
 20
369.432
 11
-36.3559
 21
369.303
  0
LINE
  8
0
 10
-36.3559
 20
369.303
 11
-36.1389
 21
369.145
  0
LINE
  8
0
 10
-36.1389
 20
369.145
 11
-35.9434
 21
368.962
  0
LINE
  8
0
 10
-35.9434
 20
368.962
 11
-35.7725
 21
368.755
  0
LINE
  8
0
 10
-35.7725
 20
368.755
 11
-35.6288
 21
368.529
  0
LINE
  8
0
 10
-35.6288
 20
368.529
 11
-35.5146
 21
368.286
  0
LINE
  8
0
 10
-35.5146
 20
368.286
 11
-35.4318
 21
368.031
  0
LINE
  8
0
 10
-35.4318
 20
368.031
 11
-35.3815
 21
367.768
  0
LINE
  8
0
 10
-35.3815
 20
367.768
 11
-35.3647
 21
367.5
  0
LINE
  8
0
 10
-35.3647
 20
367.5
 11
-35.3815
 21
367.232
  0
LINE
  8
0
 10
-35.3815
 20
367.232
 11
-35.4318
 21
366.969
  0
LINE
  8
0
 10
-35.4318
 20
366.969
 11
-35.5146
 21
366.714
  0
LINE
  8
0
 10
-35.5146
 20
366.714
 11
-35.6288
 21
366.471
  0
LINE
  8
0
 10
-35.6288
 20
366.471
 11
-35.7725
 21
366.245
  0
LINE
  8
0
 10
-35.7725
 20
366.245
 11
-35.9434
 21
366.038
  0
LINE
  8
0
 10
-35.9434
 20
366.038
 11
-36.1389
 21
365.855
  0
LINE
  8
0
 10
-36.1389
 20
365.855
 11
-36.3559
 21
365.697
  0
LINE
  8
0
 10
-36.3559
 20
365.697
 11
-36.5908
 21
365.568
  0
LINE
  8
0
 10
-36.5908
 20
365.568
 11
-36.8401
 21
365.469
  0
LINE
  8
0
 10
-36.8401
 20
365.469
 11
-37.0999
 21
365.403
  0
LINE
  8
0
 10
-37.0999
 20
365.403
 11
-37.3659
 21
365.369
  0
LINE
  8
0
 10
-37.3659
 20
365.369
 11
-37.6341
 21
365.369
  0
LINE
  8
0
 10
37.3659
 20
365.369
 11
37.0999
 21
365.403
  0
LINE
  8
0
 10
37.0999
 20
365.403
 11
36.8401
 21
365.469
  0
LINE
  8
0
 10
36.8401
 20
365.469
 11
36.5908
 21
365.568
  0
LINE
  8
0
 10
36.5908
 20
365.568
 11
36.3559
 21
365.697
  0
LINE
  8
0
 10
36.3559
 20
365.697
 11
36.1389
 21
365.855
  0
LINE
  8
0
 10
36.1389
 20
365.855
 11
35.9434
 21
366.038
  0
LINE
  8
0
 10
35.9434
 20
366.038
 11
35.7725
 21
366.245
  0
LINE
  8
0
 10
35.7725
 20
366.245
 11
35.6288
 21
366.471
  0
LINE
  8
0
 10
35.6288
 20
366.471
 11
35.5146
 21
366.714
  0
LINE
  8
0
 10
35.5146
 20
366.714
 11
35.4318
 21
366.969
  0
LINE
  8
0
 10
35.4318
 20
366.969
 11
35.3815
 21
367.232
  0
LINE
  8
0
 10
35.3815
 20
367.232
 11
35.3647
 21
367.5
  0
LINE
  8
0
 10
35.3647
 20
367.5
 11
35.3815
 21
367.768
  0
LINE
  8
0
 10
35.3815
 20
367.768
 11
35.4318
 21
368.031
  0
LINE
  8
0
 10
35.4318
 20
368.031
 11
35.5146
 21
368.286
  0
LINE
  8
0
 10
35.5146
 20
368.286
 11
35.6288
 21
368.529
  0
LINE
  8
0
 10
35.6288
 20
368.529
 11
35.7725
 21
368.755
  0
LINE
  8
0
 10
35.7725
 20
368.755
 11
35.9434
 21
368.962
  0
LINE
  8
0
 10
35.9434
 20
368.962
 11
36.1389
 21
369.145
  0
LINE
  8
0
 10
36.1389
 20
369.145
 11
36.3559
 21
369.303
  0
LINE
  8
0
 10
36.3559
 20
369.303
 11
36.5908
 21
369.432
  0
LINE
  8
0
 10
36.5908
 20
369.432
 11
36.8401
 21
369.531
  0
LINE
  8
0
 10
36.8401
 20
369.531
 11
37.0999
 21
369.597
  0
LINE
  8
0
 10
37.0999
 20
369.597
 11
37.3659
 21
369.631
  0
LINE
  8
0
 10
37.3659
 20
369.631
 11
37.6341
 21
369.631
  0
LINE
  8
0
 10
37.6341
 20
369.631
 11
37.9001
 21
369.597
  0
LINE
  8
0
 10
37.9001
 20
369.597
 11
38.1598
 21
369.531
  0
LINE
  8
0
 10
38.1598
 20
369.531
 11
38.4092
 21
369.432
  0
LINE
  8
0
 10
38.4092
 20
369.432
 11
38.6441
 21
369.303
  0
LINE
  8
0
 10
38.6441
 20
369.303
 11
38.8611
 21
369.145
  0
LINE
  8
0
 10
38.8611
 20
369.145
 11
39.0565
 21
368.962
  0
LINE
  8
0
 10
39.0565
 20
368.962
 11
39.2275
 21
368.755
  0
LINE
  8
0
 10
39.2275
 20
368.755
 11
39.3712
 21
368.529
  0
LINE
  8
0
 10
39.3712
 20
368.529
 11
39.4853
 21
368.286
  0
LINE
  8
0
 10
39.4853
 20
368.286
 11
39.5682
 21
368.031
  0
LINE
  8
0
 10
39.5682
 20
368.031
 11
39.6185
 21
367.768
  0
LINE
  8
0
 10
39.6185
 20
367.768
 11
39.6353
 21
367.5
  0
LINE
  8
0
 10
39.6353
 20
367.5
 11
39.6185
 21
367.232
  0
LINE
  8
0
 10
39.6185
 20
367.232
 11
39.5682
 21
366.969
  0
LINE
  8
0
 10
39.5682
 20
366.969
 11
39.4853
 21
366.714
  0
LINE
  8
0
 10
39.4853
 20
366.714
 11
39.3712
 21
366.471
  0
LINE
  8
0
 10
39.3712
 20
366.471
 11
39.2275
 21
366.245
  0
LINE
  8
0
 10
39.2275
 20
366.245
 11
39.0565
 21
366.038
  0
LINE
  8
0
 10
39.0565
 20
366.038
 11
38.8611
 21
365.855
  0
LINE
  8
0
 10
38.8611
 20
365.855
 11
38.6441
 21
365.697
  0
LINE
  8
0
 10
38.6441
 20
365.697
 11
38.4092
 21
365.568
  0
LINE
  8
0
 10
38.4092
 20
365.568
 11
38.1598
 21
365.469
  0
LINE
  8
0
 10
38.1598
 20
365.469
 11
37.9001
 21
365.403
  0
LINE
  8
0
 10
37.9001
 20
365.403
 11
37.6341
 21
365.369
  0
LINE
  8
0
 10
37.6341
 20
365.369
 11
37.3659
 21
365.369
  0
LINE
  8
0
 10
-37.6341
 20
320.369
 11
-37.9001
 21
320.403
  0
LINE
  8
0
 10
-37.9001
 20
320.403
 11
-38.1598
 21
320.469
  0
LINE
  8
0
 10
-38.1598
 20
320.469
 11
-38.4092
 21
320.568
  0
LINE
  8
0
 10
-38.4092
 20
320.568
 11
-38.6441
 21
320.697
  0
LINE
  8
0
 10
-38.6441
 20
320.697
 11
-38.8611
 21
320.855
  0
LINE
  8
0
 10
-38.8611
 20
320.855
 11
-39.0565
 21
321.038
  0
LINE
  8
0
 10
-39.0565
 20
321.038
 11
-39.2275
 21
321.245
  0
LINE
  8
0
 10
-39.2275
 20
321.245
 11
-39.3712
 21
321.471
  0
LINE
  8
0
 10
-39.3712
 20
321.471
 11
-39.4853
 21
321.714
  0
LINE
  8
0
 10
-39.4853
 20
321.714
 11
-39.5682
 21
321.969
  0
LINE
  8
0
 10
-39.5682
 20
321.969
 11
-39.6185
 21
322.232
  0
LINE
  8
0
 10
-39.6185
 20
322.232
 11
-39.6353
 21
322.5
  0
LINE
  8
0
 10
-39.6353
 20
322.5
 11
-39.6185
 21
322.768
  0
LINE
  8
0
 10
-39.6185
 20
322.768
 11
-39.5682
 21
323.031
  0
LINE
  8
0
 10
-39.5682
 20
323.031
 11
-39.4853
 21
323.286
  0
LINE
  8
0
 10
-39.4853
 20
323.286
 11
-39.3712
 21
323.529
  0
LINE
  8
0
 10
-39.3712
 20
323.529
 11
-39.2275
 21
323.755
  0
LINE
  8
0
 10
-39.2275
 20
323.755
 11
-39.0565
 21
323.962
  0
LINE
  8
0
 10
-39.0565
 20
323.962
 11
-38.8611
 21
324.145
  0
LINE
  8
0
 10
-38.8611
 20
324.145
 11
-38.6441
 21
324.303
  0
LINE
  8
0
 10
-38.6441
 20
324.303
 11
-38.4092
 21
324.432
  0
LINE
  8
0
 10
-38.4092
 20
324.432
 11
-38.1598
 21
324.531
  0
LINE
  8
0
 10
-38.1598
 20
324.531
 11
-37.9001
 21
324.597
  0
LINE
  8
0
 10
-37.9001
 20
324.597
 11
-37.6341
 21
324.631
  0
LINE
  8
0
 10
-37.6341
 20
324.631
 11
-37.3659
 21
324.631
  0
LINE
  8
0
 10
-37.3659
 20
324.631
 11
-37.0999
 21
324.597
  0
LINE
  8
0
 10
-37.0999
 20
324.597
 11
-36.8401
 21
324.531
  0
LINE
  8
0
 10
-36.8401
 20
324.531
 11
-36.5908
 21
324.432
  0
LINE
  8
0
 10
-36.5908
 20
324.432
 11
-36.3559
 21
324.303
  0
LINE
  8
0
 10
-36.3559
 20
324.303
 11
-36.1389
 21
324.145
  0
LINE
  8
0
 10
-36.1389
 20
324.145
 11
-35.9434
 21
323.962
  0
LINE
  8
0
 10
-35.9434
 20
323.962
 11
-35.7725
 21
323.755
  0
LINE
  8
0
 10
-35.7725
 20
323.755
 11
-35.6288
 21
323.529
  0
LINE
  8
0
 10
-35.6288
 20
323.529
 11
-35.5146
 21
323.286
  0
LINE
  8
0
 10
-35.5146
 20
323.286
 11
-35.4318
 21
323.031
  0
LINE
  8
0
 10
-35.4318
 20
323.031
 11
-35.3815
 21
322.768
  0
LINE
  8
0
 10
-35.3815
 20
322.768
 11
-35.3647
 21
322.5
  0
LINE
  8
0
 10
-35.3647
 20
322.5
 11
-35.3815
 21
322.232
  0
LINE
  8
0
 10
-35.3815
 20
322.232
 11
-35.4318
 21
321.969
  0
LINE
  8
0
 10
-35.4318
 20
321.969
 11
-35.5146
 21
321.714
  0
LINE
  8
0
 10
-35.5146
 20
321.714
 11
-35.6288
 21
321.471
  0
LINE
  8
0
 10
-35.6288
 20
321.471
 11
-35.7725
 21
321.245
  0
LINE
  8
0
 10
-35.7725
 20
321.245
 11
-35.9434
 21
321.038
  0
LINE
  8
0
 10
-35.9434
 20
321.038
 11
-36.1389
 21
320.855
  0
LINE
  8
0
 10
-36.1389
 20
320.855
 11
-36.3559
 21
320.697
  0
LINE
  8
0
 10
-36.3559
 20
320.697
 11
-36.5908
 21
320.568
  0
LINE
  8
0
 10
-36.5908
 20
320.568
 11
-36.8401
 21
320.469
  0
LINE
  8
0
 10
-36.8401
 20
320.469
 11
-37.0999
 21
320.403
  0
LINE
  8
0
 10
-37.0999
 20
320.403
 11
-37.3659
 21
320.369
  0
LINE
  8
0
 10
-37.3659
 20
320.369
 11
-37.6341
 21
320.369
  0
LINE
  8
0
 10
37.3659
 20
320.369
 11
37.0999
 21
320.403
  0
LINE
  8
0
 10
37.0999
 20
320.403
 11
36.8401
 21
320.469
  0
LINE
  8
0
 10
36.8401
 20
320.469
 11
36.5908
 21
320.568
  0
LINE
  8
0
 10
36.5908
 20
320.568
 11
36.3559
 21
320.697
  0
LINE
  8
0
 10
36.3559
 20
320.697
 11
36.1389
 21
320.855
  0
LINE
  8
0
 10
36.1389
 20
320.855
 11
35.9434
 21
321.038
  0
LINE
  8
0
 10
35.9434
 20
321.038
 11
35.7725
 21
321.245
  0
LINE
  8
0
 10
35.7725
 20
321.245
 11
35.6288
 21
321.471
  0
LINE
  8
0
 10
35.6288
 20
321.471
 11
35.5146
 21
321.714
  0
LINE
  8
0
 10
35.5146
 20
321.714
 11
35.4318
 21
321.969
  0
LINE
  8
0
 10
35.4318
 20
321.969
 11
35.3815
 21
322.232
  0
LINE
  8
0
 10
35.3815
 20
322.232
 11
35.3647
 21
322.5
  0
LINE
  8
0
 10
35.3647
 20
322.5
 11
35.3815
 21
322.768
  0
LINE
  8
0
 10
35.3815
 20
322.768
 11
35.4318
 21
323.031
  0
LINE
  8
0
 10
35.4318
 20
323.031
 11
35.5146
 21
323.286
  0
LINE
  8
0
 10
35.5146
 20
323.286
 11
35.6288
 21
323.529
  0
LINE
  8
0
 10
35.6288
 20
323.529
 11
35.7725
 21
323.755
  0
LINE
  8
0
 10
35.7725
 20
323.755
 11
35.9434
 21
323.962
  0
LINE
  8
0
 10
35.9434
 20
323.962
 11
36.1389
 21
324.145
  0
LINE
  8
0
 10
36.1389
 20
324.145
 11
36.3559
 21
324.303
  0
LINE
  8
0
 10
36.3559
 20
324.303
 11
36.5908
 21
324.432
  0
LINE
  8
0
 10
36.5908
 20
324.432
 11
36.8401
 21
324.531
  0
LINE
  8
0
 10
36.8401
 20
324.531
 11
37.0999
 21
324.597
  0
LINE
  8
0
 10
37.0999
 20
324.597
 11
37.3659
 21
324.631
  0
LINE
  8
0
 10
37.3659
 20
324.631
 11
37.6341
 21
324.631
  0
LINE
  8
0
 10
37.6341
 20
324.631
 11
37.9001
 21
324.597
  0
LINE
  8
0
 10
37.9001
 20
324.597
 11
38.1598
 21
324.531
  0
LINE
  8
0
 10
38.1598
 20
324.531
 11
38.4092
 21
324.432
  0
LINE
  8
0
 10
38.4092
 20
324.432
 11
38.6441
 21
324.303
  0
LINE
  8
0
 10
38.6441
 20
324.303
 11
38.8611
 21
324.145
  0
LINE
  8
0
 10
38.8611
 20
324.145
 11
39.0565
 21
323.962
  0
LINE
  8
0
 10
39.0565
 20
323.962
 11
39.2275
 21
323.755
  0
LINE
  8
0
 10
39.2275
 20
323.755
 11
39.3712
 21
323.529
  0
LINE
  8
0
 10
39.3712
 20
323.529
 11
39.4853
 21
323.286
  0
LINE
  8
0
 10
39.4853
 20
323.286
 11
39.5682
 21
323.031
  0
LINE
  8
0
 10
39.5682
 20
323.031
 11
39.6185
 21
322.768
  0
LINE
  8
0
 10
39.6185
 20
322.768
 11
39.6353
 21
322.5
  0
LINE
  8
0
 10
39.6353
 20
322.5
 11
39.6185
 21
322.232
  0
LINE
  8
0
 10
39.6185
 20
322.232
 11
39.5682
 21
321.969
  0
LINE
  8
0
 10
39.5682
 20
321.969
 11
39.4853
 21
321.714
  0
LINE
  8
0
 10
39.4853
 20
321.714
 11
39.3712
 21
321.471
  0
LINE
  8
0
 10
39.3712
 20
321.471
 11
39.2275
 21
321.245
  0
LINE
  8
0
 10
39.2275
 20
321.245
 11
39.0565
 21
321.038
  0
LINE
  8
0
 10
39.0565
 20
321.038
 11
38.8611
 21
320.855
  0
LINE
  8
0
 10
38.8611
 20
320.855
 11
38.6441
 21
320.697
  0
LINE
  8
0
 10
38.6441
 20
320.697
 11
38.4092
 21
320.568
  0
LINE
  8
0
 10
38.4092
 20
320.568
 11
38.1598
 21
320.469
  0
LINE
  8
0
 10
38.1598
 20
320.469
 11
37.9001
 21
320.403
  0
LINE
  8
0
 10
37.9001
 20
320.403
 11
37.6341
 21
320.369
  0
LINE
  8
0
 10
37.6341
 20
320.369
 11
37.3659
 21
320.369
  0
ENDSEC
  0
SECTION
  2
OBJECTS
  0
DICTIONARY
  0
ENDSEC
  0
EOF
