<?xml version="1.0" standalone="no"?>
<!DOCTYPE svg PUBLIC "-//W3C//DTD SVG 1.1//EN" "http://www.w3.org/Graphics/SVG/1.1/DTD/svg11.dtd">
<svg width="30mm" height="936mm" viewBox="-15 -1791 30 936" xmlns="http://www.w3.org/2000/svg" version="1.1">
<title>OpenSCAD Model</title>
<path d="
M 10.9369,-1611.09 L 11.5451,-1611.24 L 12.1289,-1611.48 L 12.6791,-1611.78 L 13.1871,-1612.15 L 13.6448,-1612.58
 L 14.0451,-1613.06 L 14.3815,-1613.59 L 14.6489,-1614.16 L 14.8429,-1614.76 L 14.9606,-1615.37 L 15,-1616
 L 15,-1786 L 14.9606,-1786.63 L 14.8429,-1787.24 L 14.6489,-1787.84 L 14.3815,-1788.41 L 14.0451,-1788.94
 L 13.6448,-1789.42 L 13.1871,-1789.85 L 12.6791,-1790.22 L 12.1289,-1790.52 L 11.5451,-1790.76 L 10.9369,-1790.91
 L 10.3139,-1790.99 L -10.3139,-1790.99 L -10.9369,-1790.91 L -11.5451,-1790.76 L -12.1289,-1790.52 L -12.6791,-1790.22
 L -13.1871,-1789.85 L -13.6448,-1789.42 L -14.0451,-1788.94 L -14.3815,-1788.41 L -14.6489,-1787.84 L -14.8429,-1787.24
 L -14.9606,-1786.63 L -15,-1786 L -15,-1616 L -14.9606,-1615.37 L -14.8429,-1614.76 L -14.6489,-1614.16
 L -14.3815,-1613.59 L -14.0451,-1613.06 L -13.6448,-1612.58 L -13.1871,-1612.15 L -12.6791,-1611.78 L -12.1289,-1611.48
 L -11.5451,-1611.24 L -10.9369,-1611.09 L -10.3139,-1611.01 L 10.3139,-1611.01 z
M -9.75116,-1612.51 L -10.2495,-1612.57 L -10.7361,-1612.7 L -11.2031,-1612.88 L -11.6433,-1613.12 L -12.0497,-1613.42
 L -12.4159,-1613.76 L -12.7361,-1614.15 L -13.0052,-1614.57 L -13.2191,-1615.03 L -13.3743,-1615.51 L -13.4684,-1616
 L -13.5,-1616.5 L -13.5,-1785.5 L -13.4684,-1786 L -13.3743,-1786.49 L -13.2191,-1786.97 L -13.0052,-1787.43
 L -12.7361,-1787.85 L -12.4159,-1788.24 L -12.0497,-1788.58 L -11.6433,-1788.88 L -11.2031,-1789.12 L -10.7361,-1789.3
 L -10.2495,-1789.43 L -9.75116,-1789.49 L 9.75116,-1789.49 L 10.2495,-1789.43 L 10.7361,-1789.3 L 11.2031,-1789.12
 L 11.6433,-1788.88 L 12.0497,-1788.58 L 12.4159,-1788.24 L 12.7361,-1787.85 L 13.0052,-1787.43 L 13.2191,-1786.97
 L 13.3743,-1786.49 L 13.4684,-1786 L 13.5,-1785.5 L 13.5,-1616.5 L 13.4684,-1616 L 13.3743,-1615.51
 L 13.2191,-1615.03 L 13.0052,-1614.57 L 12.7361,-1614.15 L 12.4159,-1613.76 L 12.0497,-1613.42 L 11.6433,-1613.12
 L 11.2031,-1612.88 L 10.7361,-1612.7 L 10.2495,-1612.57 L 9.75116,-1612.51 z
M 10.9369,-1422.09 L 11.5451,-1422.24 L 12.1289,-1422.48 L 12.6791,-1422.78 L 13.1871,-1423.15 L 13.6448,-1423.58
 L 14.0451,-1424.06 L 14.3815,-1424.59 L 14.6489,-1425.16 L 14.8429,-1425.76 L 14.9606,-1426.37 L 15,-1427
 L 15,-1597 L 14.9606,-1597.63 L 14.8429,-1598.24 L 14.6489,-1598.84 L 14.3815,-1599.41 L 14.0451,-1599.94
 L 13.6448,-1600.42 L 13.1871,-1600.85 L 12.6791,-1601.22 L 12.1289,-1601.52 L 11.5451,-1601.76 L 10.9369,-1601.91
 L 10.3139,-1601.99 L -10.3139,-1601.99 L -10.9369,-1601.91 L -11.5451,-1601.76 L -12.1289,-1601.52 L -12.6791,-1601.22
 L -13.1871,-1600.85 L -13.6448,-1600.42 L -14.0451,-1599.94 L -14.3815,-1599.41 L -14.6489,-1598.84 L -14.8429,-1598.24
 L -14.9606,-1597.63 L -15,-1597 L -15,-1427 L -14.9606,-1426.37 L -14.8429,-1425.76 L -14.6489,-1425.16
 L -14.3815,-1424.59 L -14.0451,-1424.06 L -13.6448,-1423.58 L -13.1871,-1423.15 L -12.6791,-1422.78 L -12.1289,-1422.48
 L -11.5451,-1422.24 L -10.9369,-1422.09 L -10.3139,-1422.01 L 10.3139,-1422.01 z
M -9.75116,-1423.51 L -10.2495,-1423.57 L -10.7361,-1423.7 L -11.2031,-1423.88 L -11.6433,-1424.12 L -12.0497,-1424.42
 L -12.4159,-1424.76 L -12.7361,-1425.15 L -13.0052,-1425.57 L -13.2191,-1426.03 L -13.3743,-1426.51 L -13.4684,-1427
 L -13.5,-1427.5 L -13.5,-1596.5 L -13.4684,-1597 L -13.3743,-1597.49 L -13.2191,-1597.97 L -13.0052,-1598.43
 L -12.7361,-1598.85 L -12.4159,-1599.24 L -12.0497,-1599.58 L -11.6433,-1599.88 L -11.2031,-1600.12 L -10.7361,-1600.3
 L -10.2495,-1600.43 L -9.75116,-1600.49 L 9.75116,-1600.49 L 10.2495,-1600.43 L 10.7361,-1600.3 L 11.2031,-1600.12
 L 11.6433,-1599.88 L 12.0497,-1599.58 L 12.4159,-1599.24 L 12.7361,-1598.85 L 13.0052,-1598.43 L 13.2191,-1597.97
 L 13.3743,-1597.49 L 13.4684,-1597 L 13.5,-1596.5 L 13.5,-1427.5 L 13.4684,-1427 L 13.3743,-1426.51
 L 13.2191,-1426.03 L 13.0052,-1425.57 L 12.7361,-1425.15 L 12.4159,-1424.76 L 12.0497,-1424.42 L 11.6433,-1424.12
 L 11.2031,-1423.88 L 10.7361,-1423.7 L 10.2495,-1423.57 L 9.75116,-1423.51 z
M 10.9369,-1233.09 L 11.5451,-1233.24 L 12.1289,-1233.48 L 12.6791,-1233.78 L 13.1871,-1234.15 L 13.6448,-1234.58
 L 14.0451,-1235.06 L 14.3815,-1235.59 L 14.6489,-1236.16 L 14.8429,-1236.76 L 14.9606,-1237.37 L 15,-1238
 L 15,-1408 L 14.9606,-1408.63 L 14.8429,-1409.24 L 14.6489,-1409.84 L 14.3815,-1410.41 L 14.0451,-1410.94
 L 13.6448,-1411.42 L 13.1871,-1411.85 L 12.6791,-1412.22 L 12.1289,-1412.52 L 11.5451,-1412.76 L 10.9369,-1412.91
 L 10.3139,-1412.99 L -10.3139,-1412.99 L -10.9369,-1412.91 L -11.5451,-1412.76 L -12.1289,-1412.52 L -12.6791,-1412.22
 L -13.1871,-1411.85 L -13.6448,-1411.42 L -14.0451,-1410.94 L -14.3815,-1410.41 L -14.6489,-1409.84 L -14.8429,-1409.24
 L -14.9606,-1408.63 L -15,-1408 L -15,-1238 L -14.9606,-1237.37 L -14.8429,-1236.76 L -14.6489,-1236.16
 L -14.3815,-1235.59 L -14.0451,-1235.06 L -13.6448,-1234.58 L -13.1871,-1234.15 L -12.6791,-1233.78 L -12.1289,-1233.48
 L -11.5451,-1233.24 L -10.9369,-1233.09 L -10.3139,-1233.01 L 10.3139,-1233.01 z
M -9.75116,-1234.51 L -10.2495,-1234.57 L -10.7361,-1234.7 L -11.2031,-1234.88 L -11.6433,-1235.12 L -12.0497,-1235.42
 L -12.4159,-1235.76 L -12.7361,-1236.15 L -13.0052,-1236.57 L -13.2191,-1237.03 L -13.3743,-1237.51 L -13.4684,-1238
 L -13.5,-1238.5 L -13.5,-1407.5 L -13.4684,-1408 L -13.3743,-1408.49 L -13.2191,-1408.97 L -13.0052,-1409.43
 L -12.7361,-1409.85 L -12.4159,-1410.24 L -12.0497,-1410.58 L -11.6433,-1410.88 L -11.2031,-1411.12 L -10.7361,-1411.3
 L -10.2495,-1411.43 L -9.75116,-1411.49 L 9.75116,-1411.49 L 10.2495,-1411.43 L 10.7361,-1411.3 L 11.2031,-1411.12
 L 11.6433,-1410.88 L 12.0497,-1410.58 L 12.4159,-1410.24 L 12.7361,-1409.85 L 13.0052,-1409.43 L 13.2191,-1408.97
 L 13.3743,-1408.49 L 13.4684,-1408 L 13.5,-1407.5 L 13.5,-1238.5 L 13.4684,-1238 L 13.3743,-1237.51
 L 13.2191,-1237.03 L 13.0052,-1236.57 L 12.7361,-1236.15 L 12.4159,-1235.76 L 12.0497,-1235.42 L 11.6433,-1235.12
 L 11.2031,-1234.88 L 10.7361,-1234.7 L 10.2495,-1234.57 L 9.75116,-1234.51 z
M 10.9369,-1044.09 L 11.5451,-1044.24 L 12.1289,-1044.48 L 12.6791,-1044.78 L 13.1871,-1045.15 L 13.6448,-1045.58
 L 14.0451,-1046.06 L 14.3815,-1046.59 L 14.6489,-1047.16 L 14.8429,-1047.76 L 14.9606,-1048.37 L 15,-1049
 L 15,-1219 L 14.9606,-1219.63 L 14.8429,-1220.24 L 14.6489,-1220.84 L 14.3815,-1221.41 L 14.0451,-1221.94
 L 13.6448,-1222.42 L 13.1871,-1222.85 L 12.6791,-1223.22 L 12.1289,-1223.52 L 11.5451,-1223.76 L 10.9369,-1223.91
 L 10.3139,-1223.99 L -10.3139,-1223.99 L -10.9369,-1223.91 L -11.5451,-1223.76 L -12.1289,-1223.52 L -12.6791,-1223.22
 L -13.1871,-1222.85 L -13.6448,-1222.42 L -14.0451,-1221.94 L -14.3815,-1221.41 L -14.6489,-1220.84 L -14.8429,-1220.24
 L -14.9606,-1219.63 L -15,-1219 L -15,-1049 L -14.9606,-1048.37 L -14.8429,-1047.76 L -14.6489,-1047.16
 L -14.3815,-1046.59 L -14.0451,-1046.06 L -13.6448,-1045.58 L -13.1871,-1045.15 L -12.6791,-1044.78 L -12.1289,-1044.48
 L -11.5451,-1044.24 L -10.9369,-1044.09 L -10.3139,-1044.01 L 10.3139,-1044.01 z
M -9.69545,-1046.39 L -10.0833,-1046.44 L -10.4619,-1046.54 L -10.8254,-1046.68 L -11.168,-1046.87 L -11.4842,-1047.1
 L -11.7692,-1047.37 L -12.0184,-1047.67 L -12.2279,-1048 L -12.3943,-1048.35 L -12.5151,-1048.73 L -12.5884,-1049.11
 L -12.6129,-1049.5 L -12.6129,-1218.5 L -12.5884,-1218.89 L -12.5151,-1219.27 L -12.3943,-1219.65 L -12.2279,-1220
 L -12.0184,-1220.33 L -11.7692,-1220.63 L -11.4842,-1220.9 L -11.168,-1221.13 L -10.8254,-1221.32 L -10.4619,-1221.46
 L -10.0833,-1221.56 L -9.69545,-1221.61 L 9.69545,-1221.61 L 10.0833,-1221.56 L 10.4619,-1221.46 L 10.8254,-1221.32
 L 11.168,-1221.13 L 11.4842,-1220.9 L 11.7692,-1220.63 L 12.0184,-1220.33 L 12.2279,-1220 L 12.3943,-1219.65
 L 12.5151,-1219.27 L 12.5884,-1218.89 L 12.6129,-1218.5 L 12.6129,-1049.5 L 12.5884,-1049.11 L 12.5151,-1048.73
 L 12.3943,-1048.35 L 12.2279,-1048 L 12.0184,-1047.67 L 11.7692,-1047.37 L 11.4842,-1047.1 L 11.168,-1046.87
 L 10.8254,-1046.68 L 10.4619,-1046.54 L 10.0833,-1046.44 L 9.69545,-1046.39 z
M 10.9369,-855.089 L 11.5451,-855.245 L 12.1289,-855.476 L 12.6791,-855.778 L 13.1871,-856.147 L 13.6448,-856.577
 L 14.0451,-857.061 L 14.3815,-857.591 L 14.6489,-858.159 L 14.8429,-858.757 L 14.9606,-859.373 L 15,-860
 L 15,-1030 L 14.9606,-1030.63 L 14.8429,-1031.24 L 14.6489,-1031.84 L 14.3815,-1032.41 L 14.0451,-1032.94
 L 13.6448,-1033.42 L 13.1871,-1033.85 L 12.6791,-1034.22 L 12.1289,-1034.52 L 11.5451,-1034.76 L 10.9369,-1034.91
 L 10.3139,-1034.99 L -10.3139,-1034.99 L -10.9369,-1034.91 L -11.5451,-1034.76 L -12.1289,-1034.52 L -12.6791,-1034.22
 L -13.1871,-1033.85 L -13.6448,-1033.42 L -14.0451,-1032.94 L -14.3815,-1032.41 L -14.6489,-1031.84 L -14.8429,-1031.24
 L -14.9606,-1030.63 L -15,-1030 L -15,-860 L -14.9606,-859.373 L -14.8429,-858.757 L -14.6489,-858.159
 L -14.3815,-857.591 L -14.0451,-857.061 L -13.6448,-856.577 L -13.1871,-856.147 L -12.6791,-855.778 L -12.1289,-855.476
 L -11.5451,-855.245 L -10.9369,-855.089 L -10.3139,-855.01 L 10.3139,-855.01 z
M 7.36592,-1025.37 L 7.09988,-1025.4 L 6.84015,-1025.47 L 6.59084,-1025.57 L 6.35585,-1025.7 L 6.1389,-1025.85
 L 5.94344,-1026.04 L 5.77251,-1026.24 L 5.62881,-1026.47 L 5.51465,-1026.71 L 5.43178,-1026.97 L 5.38153,-1027.23
 L 5.3647,-1027.5 L 5.38153,-1027.77 L 5.43178,-1028.03 L 5.51465,-1028.29 L 5.62881,-1028.53 L 5.77251,-1028.76
 L 5.94344,-1028.96 L 6.1389,-1029.15 L 6.35585,-1029.3 L 6.59084,-1029.43 L 6.84015,-1029.53 L 7.09988,-1029.6
 L 7.36592,-1029.63 L 7.63406,-1029.63 L 7.9001,-1029.6 L 8.15984,-1029.53 L 8.40915,-1029.43 L 8.64413,-1029.3
 L 8.86108,-1029.15 L 9.05655,-1028.96 L 9.22748,-1028.76 L 9.37117,-1028.53 L 9.48534,-1028.29 L 9.56821,-1028.03
 L 9.61845,-1027.77 L 9.63528,-1027.5 L 9.61845,-1027.23 L 9.56821,-1026.97 L 9.48534,-1026.71 L 9.37117,-1026.47
 L 9.22748,-1026.24 L 9.05655,-1026.04 L 8.86108,-1025.85 L 8.64413,-1025.7 L 8.40915,-1025.57 L 8.15984,-1025.47
 L 7.9001,-1025.4 L 7.63406,-1025.37 z
M -7.63406,-1025.37 L -7.9001,-1025.4 L -8.15984,-1025.47 L -8.40915,-1025.57 L -8.64413,-1025.7 L -8.86108,-1025.85
 L -9.05655,-1026.04 L -9.22748,-1026.24 L -9.37117,-1026.47 L -9.48534,-1026.71 L -9.56821,-1026.97 L -9.61845,-1027.23
 L -9.63528,-1027.5 L -9.61845,-1027.77 L -9.56821,-1028.03 L -9.48534,-1028.29 L -9.37117,-1028.53 L -9.22748,-1028.76
 L -9.05655,-1028.96 L -8.86108,-1029.15 L -8.64413,-1029.3 L -8.40915,-1029.43 L -8.15984,-1029.53 L -7.9001,-1029.6
 L -7.63406,-1029.63 L -7.36592,-1029.63 L -7.09988,-1029.6 L -6.84015,-1029.53 L -6.59084,-1029.43 L -6.35585,-1029.3
 L -6.1389,-1029.15 L -5.94344,-1028.96 L -5.77251,-1028.76 L -5.62881,-1028.53 L -5.51465,-1028.29 L -5.43178,-1028.03
 L -5.38153,-1027.77 L -5.3647,-1027.5 L -5.38153,-1027.23 L -5.43178,-1026.97 L -5.51465,-1026.71 L -5.62881,-1026.47
 L -5.77251,-1026.24 L -5.94344,-1026.04 L -6.1389,-1025.85 L -6.35585,-1025.7 L -6.59084,-1025.57 L -6.84015,-1025.47
 L -7.09988,-1025.4 L -7.36592,-1025.37 z
M 7.36592,-860.369 L 7.09988,-860.403 L 6.84015,-860.469 L 6.59084,-860.568 L 6.35585,-860.697 L 6.1389,-860.855
 L 5.94344,-861.038 L 5.77251,-861.245 L 5.62881,-861.471 L 5.51465,-861.714 L 5.43178,-861.969 L 5.38153,-862.232
 L 5.3647,-862.5 L 5.38153,-862.768 L 5.43178,-863.031 L 5.51465,-863.286 L 5.62881,-863.529 L 5.77251,-863.755
 L 5.94344,-863.962 L 6.1389,-864.145 L 6.35585,-864.303 L 6.59084,-864.432 L 6.84015,-864.531 L 7.09988,-864.597
 L 7.36592,-864.631 L 7.63406,-864.631 L 7.9001,-864.597 L 8.15984,-864.531 L 8.40915,-864.432 L 8.64413,-864.303
 L 8.86108,-864.145 L 9.05655,-863.962 L 9.22748,-863.755 L 9.37117,-863.529 L 9.48534,-863.286 L 9.56821,-863.031
 L 9.61845,-862.768 L 9.63528,-862.5 L 9.61845,-862.232 L 9.56821,-861.969 L 9.48534,-861.714 L 9.37117,-861.471
 L 9.22748,-861.245 L 9.05655,-861.038 L 8.86108,-860.855 L 8.64413,-860.697 L 8.40915,-860.568 L 8.15984,-860.469
 L 7.9001,-860.403 L 7.63406,-860.369 z
M -7.63406,-860.369 L -7.9001,-860.403 L -8.15984,-860.469 L -8.40915,-860.568 L -8.64413,-860.697 L -8.86108,-860.855
 L -9.05655,-861.038 L -9.22748,-861.245 L -9.37117,-861.471 L -9.48534,-861.714 L -9.56821,-861.969 L -9.61845,-862.232
 L -9.63528,-862.5 L -9.61845,-862.768 L -9.56821,-863.031 L -9.48534,-863.286 L -9.37117,-863.529 L -9.22748,-863.755
 L -9.05655,-863.962 L -8.86108,-864.145 L -8.64413,-864.303 L -8.40915,-864.432 L -8.15984,-864.531 L -7.9001,-864.597
 L -7.63406,-864.631 L -7.36592,-864.631 L -7.09988,-864.597 L -6.84015,-864.531 L -6.59084,-864.432 L -6.35585,-864.303
 L -6.1389,-864.145 L -5.94344,-863.962 L -5.77251,-863.755 L -5.62881,-863.529 L -5.51465,-863.286 L -5.43178,-863.031
 L -5.38153,-862.768 L -5.3647,-862.5 L -5.38153,-862.232 L -5.43178,-861.969 L -5.51465,-861.714 L -5.62881,-861.471
 L -5.77251,-861.245 L -5.94344,-861.038 L -6.1389,-860.855 L -6.35585,-860.697 L -6.59084,-860.568 L -6.84015,-860.469
 L -7.09988,-860.403 L -7.36592,-860.369 z
" stroke="black" fill="lightgray" stroke-width="0.5"/>
</svg>
