  0
SECTION
  2
BLOCKS
  0
ENDSEC
  0
SECTION
  2
ENTITIES
  0
LINE
  8
0
 10
85.9369
 20
64.5886
 11
86.5451
 21
64.7447
  0
LINE
  8
0
 10
86.5451
 20
64.7447
 11
87.1289
 21
64.9759
  0
LINE
  8
0
 10
87.1289
 20
64.9759
 11
87.6791
 21
65.2784
  0
LINE
  8
0
 10
87.6791
 20
65.2784
 11
88.1871
 21
65.6474
  0
LINE
  8
0
 10
88.1871
 20
65.6474
 11
88.6448
 21
66.0773
  0
LINE
  8
0
 10
88.6448
 20
66.0773
 11
89.0451
 21
66.5611
  0
LINE
  8
0
 10
89.0451
 20
66.5611
 11
89.3815
 21
67.0912
  0
LINE
  8
0
 10
89.3815
 20
67.0912
 11
89.6489
 21
67.6594
  0
LINE
  8
0
 10
89.6489
 20
67.6594
 11
89.8429
 21
68.2566
  0
LINE
  8
0
 10
89.8429
 20
68.2566
 11
89.9606
 21
68.8733
  0
LINE
  8
0
 10
89.9606
 20
68.8733
 11
90
 21
69.5
  0
LINE
  8
0
 10
90
 20
69.5
 11
90
 21
74.5
  0
LINE
  8
0
 10
90
 20
74.5
 11
89.9606
 21
75.1267
  0
LINE
  8
0
 10
89.9606
 20
75.1267
 11
89.8429
 21
75.7434
  0
LINE
  8
0
 10
89.8429
 20
75.7434
 11
89.6489
 21
76.3406
  0
LINE
  8
0
 10
89.6489
 20
76.3406
 11
89.3815
 21
76.9088
  0
LINE
  8
0
 10
89.3815
 20
76.9088
 11
89.0451
 21
77.4389
  0
LINE
  8
0
 10
89.0451
 20
77.4389
 11
88.6448
 21
77.9227
  0
LINE
  8
0
 10
88.6448
 20
77.9227
 11
88.1871
 21
78.3526
  0
LINE
  8
0
 10
88.1871
 20
78.3526
 11
87.6791
 21
78.7216
  0
LINE
  8
0
 10
87.6791
 20
78.7216
 11
87.1289
 21
79.0241
  0
LINE
  8
0
 10
87.1289
 20
79.0241
 11
86.5451
 21
79.2553
  0
LINE
  8
0
 10
86.5451
 20
79.2553
 11
85.9369
 21
79.4114
  0
LINE
  8
0
 10
85.9369
 20
79.4114
 11
85.3139
 21
79.4901
  0
LINE
  8
0
 10
85.3139
 20
79.4901
 11
-85.3139
 21
79.4901
  0
LINE
  8
0
 10
-85.3139
 20
79.4901
 11
-85.9369
 21
79.4114
  0
LINE
  8
0
 10
-85.9369
 20
79.4114
 11
-86.5451
 21
79.2553
  0
LINE
  8
0
 10
-86.5451
 20
79.2553
 11
-87.1289
 21
79.0241
  0
LINE
  8
0
 10
-87.1289
 20
79.0241
 11
-87.6791
 21
78.7216
  0
LINE
  8
0
 10
-87.6791
 20
78.7216
 11
-88.1871
 21
78.3526
  0
LINE
  8
0
 10
-88.1871
 20
78.3526
 11
-88.6448
 21
77.9227
  0
LINE
  8
0
 10
-88.6448
 20
77.9227
 11
-89.0451
 21
77.4389
  0
LINE
  8
0
 10
-89.0451
 20
77.4389
 11
-89.3815
 21
76.9088
  0
LINE
  8
0
 10
-89.3815
 20
76.9088
 11
-89.6489
 21
76.3406
  0
LINE
  8
0
 10
-89.6489
 20
76.3406
 11
-89.8429
 21
75.7434
  0
LINE
  8
0
 10
-89.8429
 20
75.7434
 11
-89.9606
 21
75.1267
  0
LINE
  8
0
 10
-89.9606
 20
75.1267
 11
-90
 21
74.5
  0
LINE
  8
0
 10
-90
 20
74.5
 11
-90
 21
69.5
  0
LINE
  8
0
 10
-90
 20
69.5
 11
-89.9606
 21
68.8733
  0
LINE
  8
0
 10
-89.9606
 20
68.8733
 11
-89.8429
 21
68.2566
  0
LINE
  8
0
 10
-89.8429
 20
68.2566
 11
-89.6489
 21
67.6594
  0
LINE
  8
0
 10
-89.6489
 20
67.6594
 11
-89.3815
 21
67.0912
  0
LINE
  8
0
 10
-89.3815
 20
67.0912
 11
-89.0451
 21
66.5611
  0
LINE
  8
0
 10
-89.0451
 20
66.5611
 11
-88.6448
 21
66.0773
  0
LINE
  8
0
 10
-88.6448
 20
66.0773
 11
-88.1871
 21
65.6474
  0
LINE
  8
0
 10
-88.1871
 20
65.6474
 11
-87.6791
 21
65.2784
  0
LINE
  8
0
 10
-87.6791
 20
65.2784
 11
-87.1289
 21
64.9759
  0
LINE
  8
0
 10
-87.1289
 20
64.9759
 11
-86.5451
 21
64.7447
  0
LINE
  8
0
 10
-86.5451
 20
64.7447
 11
-85.9369
 21
64.5886
  0
LINE
  8
0
 10
-85.9369
 20
64.5886
 11
-85.3139
 21
64.5099
  0
LINE
  8
0
 10
-85.3139
 20
64.5099
 11
85.3139
 21
64.5099
  0
LINE
  8
0
 10
85.3139
 20
64.5099
 11
85.9369
 21
64.5886
  0
LINE
  8
0
 10
-85.0375
 20
65.1806
 11
-85.6079
 21
65.2527
  0
LINE
  8
0
 10
-85.6079
 20
65.2527
 11
-86.1648
 21
65.3956
  0
LINE
  8
0
 10
-86.1648
 20
65.3956
 11
-86.6994
 21
65.6073
  0
LINE
  8
0
 10
-86.6994
 20
65.6073
 11
-87.2032
 21
65.8843
  0
LINE
  8
0
 10
-87.2032
 20
65.8843
 11
-87.6684
 21
66.2223
  0
LINE
  8
0
 10
-87.6684
 20
66.2223
 11
-88.0875
 21
66.6158
  0
LINE
  8
0
 10
-88.0875
 20
66.6158
 11
-88.454
 21
67.0589
  0
LINE
  8
0
 10
-88.454
 20
67.0589
 11
-88.7621
 21
67.5443
  0
LINE
  8
0
 10
-88.7621
 20
67.5443
 11
-89.0069
 21
68.0646
  0
LINE
  8
0
 10
-89.0069
 20
68.0646
 11
-89.1846
 21
68.6114
  0
LINE
  8
0
 10
-89.1846
 20
68.6114
 11
-89.2923
 21
69.1762
  0
LINE
  8
0
 10
-89.2923
 20
69.1762
 11
-89.3284
 21
69.75
  0
LINE
  8
0
 10
-89.3284
 20
69.75
 11
-89.3284
 21
74.25
  0
LINE
  8
0
 10
-89.3284
 20
74.25
 11
-89.2923
 21
74.8238
  0
LINE
  8
0
 10
-89.2923
 20
74.8238
 11
-89.1846
 21
75.3886
  0
LINE
  8
0
 10
-89.1846
 20
75.3886
 11
-89.0069
 21
75.9354
  0
LINE
  8
0
 10
-89.0069
 20
75.9354
 11
-88.7621
 21
76.4557
  0
LINE
  8
0
 10
-88.7621
 20
76.4557
 11
-88.454
 21
76.9411
  0
LINE
  8
0
 10
-88.454
 20
76.9411
 11
-88.0875
 21
77.3842
  0
LINE
  8
0
 10
-88.0875
 20
77.3842
 11
-87.6684
 21
77.7777
  0
LINE
  8
0
 10
-87.6684
 20
77.7777
 11
-87.2032
 21
78.1157
  0
LINE
  8
0
 10
-87.2032
 20
78.1157
 11
-86.6994
 21
78.3927
  0
LINE
  8
0
 10
-86.6994
 20
78.3927
 11
-86.1648
 21
78.6044
  0
LINE
  8
0
 10
-86.1648
 20
78.6044
 11
-85.6079
 21
78.7473
  0
LINE
  8
0
 10
-85.6079
 20
78.7473
 11
-85.0375
 21
78.8194
  0
LINE
  8
0
 10
-85.0375
 20
78.8194
 11
85.0375
 21
78.8194
  0
LINE
  8
0
 10
85.0375
 20
78.8194
 11
85.6079
 21
78.7473
  0
LINE
  8
0
 10
85.6079
 20
78.7473
 11
86.1648
 21
78.6044
  0
LINE
  8
0
 10
86.1648
 20
78.6044
 11
86.6994
 21
78.3927
  0
LINE
  8
0
 10
86.6994
 20
78.3927
 11
87.2032
 21
78.1157
  0
LINE
  8
0
 10
87.2032
 20
78.1157
 11
87.6684
 21
77.7777
  0
LINE
  8
0
 10
87.6684
 20
77.7777
 11
88.0875
 21
77.3842
  0
LINE
  8
0
 10
88.0875
 20
77.3842
 11
88.454
 21
76.9411
  0
LINE
  8
0
 10
88.454
 20
76.9411
 11
88.7621
 21
76.4557
  0
LINE
  8
0
 10
88.7621
 20
76.4557
 11
89.0069
 21
75.9354
  0
LINE
  8
0
 10
89.0069
 20
75.9354
 11
89.1846
 21
75.3886
  0
LINE
  8
0
 10
89.1846
 20
75.3886
 11
89.2923
 21
74.8238
  0
LINE
  8
0
 10
89.2923
 20
74.8238
 11
89.3284
 21
74.25
  0
LINE
  8
0
 10
89.3284
 20
74.25
 11
89.3284
 21
69.75
  0
LINE
  8
0
 10
89.3284
 20
69.75
 11
89.2923
 21
69.1762
  0
LINE
  8
0
 10
89.2923
 20
69.1762
 11
89.1846
 21
68.6114
  0
LINE
  8
0
 10
89.1846
 20
68.6114
 11
89.0069
 21
68.0646
  0
LINE
  8
0
 10
89.0069
 20
68.0646
 11
88.7621
 21
67.5443
  0
LINE
  8
0
 10
88.7621
 20
67.5443
 11
88.454
 21
67.0589
  0
LINE
  8
0
 10
88.454
 20
67.0589
 11
88.0875
 21
66.6158
  0
LINE
  8
0
 10
88.0875
 20
66.6158
 11
87.6684
 21
66.2223
  0
LINE
  8
0
 10
87.6684
 20
66.2223
 11
87.2032
 21
65.8843
  0
LINE
  8
0
 10
87.2032
 20
65.8843
 11
86.6994
 21
65.6073
  0
LINE
  8
0
 10
86.6994
 20
65.6073
 11
86.1648
 21
65.3956
  0
LINE
  8
0
 10
86.1648
 20
65.3956
 11
85.6079
 21
65.2527
  0
LINE
  8
0
 10
85.6079
 20
65.2527
 11
85.0375
 21
65.1806
  0
LINE
  8
0
 10
85.0375
 20
65.1806
 11
-85.0375
 21
65.1806
  0
LINE
  8
0
 10
85.9369
 20
40.5886
 11
86.5451
 21
40.7447
  0
LINE
  8
0
 10
86.5451
 20
40.7447
 11
87.1289
 21
40.9759
  0
LINE
  8
0
 10
87.1289
 20
40.9759
 11
87.6791
 21
41.2784
  0
LINE
  8
0
 10
87.6791
 20
41.2784
 11
88.1871
 21
41.6474
  0
LINE
  8
0
 10
88.1871
 20
41.6474
 11
88.6448
 21
42.0773
  0
LINE
  8
0
 10
88.6448
 20
42.0773
 11
89.0451
 21
42.5611
  0
LINE
  8
0
 10
89.0451
 20
42.5611
 11
89.3815
 21
43.0912
  0
LINE
  8
0
 10
89.3815
 20
43.0912
 11
89.6489
 21
43.6594
  0
LINE
  8
0
 10
89.6489
 20
43.6594
 11
89.8429
 21
44.2566
  0
LINE
  8
0
 10
89.8429
 20
44.2566
 11
89.9606
 21
44.8733
  0
LINE
  8
0
 10
89.9606
 20
44.8733
 11
90
 21
45.5
  0
LINE
  8
0
 10
90
 20
45.5
 11
90
 21
50.5
  0
LINE
  8
0
 10
90
 20
50.5
 11
89.9606
 21
51.1267
  0
LINE
  8
0
 10
89.9606
 20
51.1267
 11
89.8429
 21
51.7434
  0
LINE
  8
0
 10
89.8429
 20
51.7434
 11
89.6489
 21
52.3406
  0
LINE
  8
0
 10
89.6489
 20
52.3406
 11
89.3815
 21
52.9088
  0
LINE
  8
0
 10
89.3815
 20
52.9088
 11
89.0451
 21
53.4389
  0
LINE
  8
0
 10
89.0451
 20
53.4389
 11
88.6448
 21
53.9227
  0
LINE
  8
0
 10
88.6448
 20
53.9227
 11
88.1871
 21
54.3526
  0
LINE
  8
0
 10
88.1871
 20
54.3526
 11
87.6791
 21
54.7216
  0
LINE
  8
0
 10
87.6791
 20
54.7216
 11
87.1289
 21
55.0241
  0
LINE
  8
0
 10
87.1289
 20
55.0241
 11
86.5451
 21
55.2553
  0
LINE
  8
0
 10
86.5451
 20
55.2553
 11
85.9369
 21
55.4114
  0
LINE
  8
0
 10
85.9369
 20
55.4114
 11
85.3139
 21
55.4901
  0
LINE
  8
0
 10
85.3139
 20
55.4901
 11
-85.3139
 21
55.4901
  0
LINE
  8
0
 10
-85.3139
 20
55.4901
 11
-85.9369
 21
55.4114
  0
LINE
  8
0
 10
-85.9369
 20
55.4114
 11
-86.5451
 21
55.2553
  0
LINE
  8
0
 10
-86.5451
 20
55.2553
 11
-87.1289
 21
55.0241
  0
LINE
  8
0
 10
-87.1289
 20
55.0241
 11
-87.6791
 21
54.7216
  0
LINE
  8
0
 10
-87.6791
 20
54.7216
 11
-88.1871
 21
54.3526
  0
LINE
  8
0
 10
-88.1871
 20
54.3526
 11
-88.6448
 21
53.9227
  0
LINE
  8
0
 10
-88.6448
 20
53.9227
 11
-89.0451
 21
53.4389
  0
LINE
  8
0
 10
-89.0451
 20
53.4389
 11
-89.3815
 21
52.9088
  0
LINE
  8
0
 10
-89.3815
 20
52.9088
 11
-89.6489
 21
52.3406
  0
LINE
  8
0
 10
-89.6489
 20
52.3406
 11
-89.8429
 21
51.7434
  0
LINE
  8
0
 10
-89.8429
 20
51.7434
 11
-89.9606
 21
51.1267
  0
LINE
  8
0
 10
-89.9606
 20
51.1267
 11
-90
 21
50.5
  0
LINE
  8
0
 10
-90
 20
50.5
 11
-90
 21
45.5
  0
LINE
  8
0
 10
-90
 20
45.5
 11
-89.9606
 21
44.8733
  0
LINE
  8
0
 10
-89.9606
 20
44.8733
 11
-89.8429
 21
44.2566
  0
LINE
  8
0
 10
-89.8429
 20
44.2566
 11
-89.6489
 21
43.6594
  0
LINE
  8
0
 10
-89.6489
 20
43.6594
 11
-89.3815
 21
43.0912
  0
LINE
  8
0
 10
-89.3815
 20
43.0912
 11
-89.0451
 21
42.5611
  0
LINE
  8
0
 10
-89.0451
 20
42.5611
 11
-88.6448
 21
42.0773
  0
LINE
  8
0
 10
-88.6448
 20
42.0773
 11
-88.1871
 21
41.6474
  0
LINE
  8
0
 10
-88.1871
 20
41.6474
 11
-87.6791
 21
41.2784
  0
LINE
  8
0
 10
-87.6791
 20
41.2784
 11
-87.1289
 21
40.9759
  0
LINE
  8
0
 10
-87.1289
 20
40.9759
 11
-86.5451
 21
40.7447
  0
LINE
  8
0
 10
-86.5451
 20
40.7447
 11
-85.9369
 21
40.5886
  0
LINE
  8
0
 10
-85.9369
 20
40.5886
 11
-85.3139
 21
40.5099
  0
LINE
  8
0
 10
-85.3139
 20
40.5099
 11
85.3139
 21
40.5099
  0
LINE
  8
0
 10
85.3139
 20
40.5099
 11
85.9369
 21
40.5886
  0
LINE
  8
0
 10
-84.8825
 20
43.6445
 11
-85.1453
 21
43.6777
  0
LINE
  8
0
 10
-85.1453
 20
43.6777
 11
-85.4019
 21
43.7436
  0
LINE
  8
0
 10
-85.4019
 20
43.7436
 11
-85.6482
 21
43.8412
  0
LINE
  8
0
 10
-85.6482
 20
43.8412
 11
-85.8804
 21
43.9688
  0
LINE
  8
0
 10
-85.8804
 20
43.9688
 11
-86.0947
 21
44.1245
  0
LINE
  8
0
 10
-86.0947
 20
44.1245
 11
-86.2879
 21
44.3059
  0
LINE
  8
0
 10
-86.2879
 20
44.3059
 11
-86.4567
 21
44.51
  0
LINE
  8
0
 10
-86.4567
 20
44.51
 11
-86.5987
 21
44.7337
  0
LINE
  8
0
 10
-86.5987
 20
44.7337
 11
-86.7115
 21
44.9734
  0
LINE
  8
0
 10
-86.7115
 20
44.9734
 11
-86.7934
 21
45.2254
  0
LINE
  8
0
 10
-86.7934
 20
45.2254
 11
-86.843
 21
45.4856
  0
LINE
  8
0
 10
-86.843
 20
45.4856
 11
-86.8596
 21
45.75
  0
LINE
  8
0
 10
-86.8596
 20
45.75
 11
-86.8596
 21
50.25
  0
LINE
  8
0
 10
-86.8596
 20
50.25
 11
-86.843
 21
50.5144
  0
LINE
  8
0
 10
-86.843
 20
50.5144
 11
-86.7934
 21
50.7746
  0
LINE
  8
0
 10
-86.7934
 20
50.7746
 11
-86.7115
 21
51.0266
  0
LINE
  8
0
 10
-86.7115
 20
51.0266
 11
-86.5987
 21
51.2663
  0
LINE
  8
0
 10
-86.5987
 20
51.2663
 11
-86.4567
 21
51.49
  0
LINE
  8
0
 10
-86.4567
 20
51.49
 11
-86.2879
 21
51.6941
  0
LINE
  8
0
 10
-86.2879
 20
51.6941
 11
-86.0947
 21
51.8755
  0
LINE
  8
0
 10
-86.0947
 20
51.8755
 11
-85.8804
 21
52.0312
  0
LINE
  8
0
 10
-85.8804
 20
52.0312
 11
-85.6482
 21
52.1588
  0
LINE
  8
0
 10
-85.6482
 20
52.1588
 11
-85.4019
 21
52.2564
  0
LINE
  8
0
 10
-85.4019
 20
52.2564
 11
-85.1453
 21
52.3223
  0
LINE
  8
0
 10
-85.1453
 20
52.3223
 11
-84.8825
 21
52.3555
  0
LINE
  8
0
 10
-84.8825
 20
52.3555
 11
84.8825
 21
52.3555
  0
LINE
  8
0
 10
84.8825
 20
52.3555
 11
85.1453
 21
52.3223
  0
LINE
  8
0
 10
85.1453
 20
52.3223
 11
85.4019
 21
52.2564
  0
LINE
  8
0
 10
85.4019
 20
52.2564
 11
85.6482
 21
52.1588
  0
LINE
  8
0
 10
85.6482
 20
52.1588
 11
85.8804
 21
52.0312
  0
LINE
  8
0
 10
85.8804
 20
52.0312
 11
86.0947
 21
51.8755
  0
LINE
  8
0
 10
86.0947
 20
51.8755
 11
86.2879
 21
51.6941
  0
LINE
  8
0
 10
86.2879
 20
51.6941
 11
86.4567
 21
51.49
  0
LINE
  8
0
 10
86.4567
 20
51.49
 11
86.5987
 21
51.2663
  0
LINE
  8
0
 10
86.5987
 20
51.2663
 11
86.7115
 21
51.0266
  0
LINE
  8
0
 10
86.7115
 20
51.0266
 11
86.7934
 21
50.7746
  0
LINE
  8
0
 10
86.7934
 20
50.7746
 11
86.843
 21
50.5144
  0
LINE
  8
0
 10
86.843
 20
50.5144
 11
86.8596
 21
50.25
  0
LINE
  8
0
 10
86.8596
 20
50.25
 11
86.8596
 21
45.75
  0
LINE
  8
0
 10
86.8596
 20
45.75
 11
86.843
 21
45.4856
  0
LINE
  8
0
 10
86.843
 20
45.4856
 11
86.7934
 21
45.2254
  0
LINE
  8
0
 10
86.7934
 20
45.2254
 11
86.7115
 21
44.9734
  0
LINE
  8
0
 10
86.7115
 20
44.9734
 11
86.5987
 21
44.7337
  0
LINE
  8
0
 10
86.5987
 20
44.7337
 11
86.4567
 21
44.51
  0
LINE
  8
0
 10
86.4567
 20
44.51
 11
86.2879
 21
44.3059
  0
LINE
  8
0
 10
86.2879
 20
44.3059
 11
86.0947
 21
44.1245
  0
LINE
  8
0
 10
86.0947
 20
44.1245
 11
85.8804
 21
43.9688
  0
LINE
  8
0
 10
85.8804
 20
43.9688
 11
85.6482
 21
43.8412
  0
LINE
  8
0
 10
85.6482
 20
43.8412
 11
85.4019
 21
43.7436
  0
LINE
  8
0
 10
85.4019
 20
43.7436
 11
85.1453
 21
43.6777
  0
LINE
  8
0
 10
85.1453
 20
43.6777
 11
84.8825
 21
43.6445
  0
LINE
  8
0
 10
84.8825
 20
43.6445
 11
-84.8825
 21
43.6445
  0
ENDSEC
  0
SECTION
  2
OBJECTS
  0
DICTIONARY
  0
ENDSEC
  0
EOF
