<?xml version="1.0" standalone="no"?>
<!DOCTYPE svg PUBLIC "-//W3C//DTD SVG 1.1//EN" "http://www.w3.org/Graphics/SVG/1.1/DTD/svg11.dtd">
<svg width="122mm" height="64mm" viewBox="-62 -104 122 64" xmlns="http://www.w3.org/2000/svg" version="1.1">
<title>OpenSCAD Model</title>
<path d="
M -58.5,-89.9413 L -58.1871,-89.6474 L -57.6791,-89.2784 L -57.1289,-88.9759 L -56.5451,-88.7447 L -55.9369,-88.5886
 L -55.3139,-88.5099 L 55.3139,-88.5099 L 55.9369,-88.5886 L 56.5451,-88.7447 L 57.1289,-88.9759 L 57.6791,-89.2784
 L 58.1871,-89.6474 L 58.6448,-90.0773 L 59.0451,-90.5611 L 59.3815,-91.0912 L 59.6489,-91.6594 L 59.8429,-92.2566
 L 59.9606,-92.8733 L 60,-93.5 L 60,-98.5 L 59.9606,-99.1267 L 59.8429,-99.7434 L 59.6489,-100.341
 L 59.3815,-100.909 L 59.0451,-101.439 L 58.6448,-101.923 L 58.1871,-102.353 L 57.6791,-102.722 L 57.1289,-103.024
 L 56.5451,-103.255 L 55.9369,-103.411 L 55.3139,-103.49 L -55.3139,-103.49 L -55.9369,-103.411 L -56.5451,-103.255
 L -57.1289,-103.024 L -57.6791,-102.722 L -58.1871,-102.353 L -58.5,-102.059 L -58.5,-103.49 L -61.5,-103.49
 L -61.5,-88.5099 L -58.5,-88.5099 z
M -54.7432,-90.135 L -55.2256,-90.196 L -55.6967,-90.3169 L -56.1489,-90.4959 L -56.5751,-90.7302 L -56.9685,-91.0161
 L -57.323,-91.349 L -57.633,-91.7237 L -57.8936,-92.1344 L -58.1007,-92.5744 L -58.251,-93.0369 L -58.3421,-93.5146
 L -58.3726,-94 L -58.3726,-98 L -58.3421,-98.4854 L -58.251,-98.9631 L -58.1007,-99.4256 L -57.8936,-99.8656
 L -57.633,-100.276 L -57.323,-100.651 L -56.9685,-100.984 L -56.5751,-101.27 L -56.1489,-101.504 L -55.6967,-101.683
 L -55.2256,-101.804 L -54.7432,-101.865 L 54.7432,-101.865 L 55.2256,-101.804 L 55.6967,-101.683 L 56.1489,-101.504
 L 56.5751,-101.27 L 56.9685,-100.984 L 57.323,-100.651 L 57.633,-100.276 L 57.8936,-99.8656 L 58.1007,-99.4256
 L 58.251,-98.9631 L 58.3421,-98.4854 L 58.3726,-98 L 58.3726,-94 L 58.3421,-93.5146 L 58.251,-93.0369
 L 58.1007,-92.5744 L 57.8936,-92.1344 L 57.633,-91.7237 L 57.323,-91.349 L 56.9685,-91.0161 L 56.5751,-90.7302
 L 56.1489,-90.4959 L 55.6967,-90.3169 L 55.2256,-90.196 L 54.7432,-90.135 z
M 55.9369,-64.5886 L 56.5451,-64.7447 L 57.1289,-64.9759 L 57.6791,-65.2784 L 58.1871,-65.6474 L 58.6448,-66.0773
 L 59.0451,-66.5611 L 59.3815,-67.0912 L 59.6489,-67.6594 L 59.8429,-68.2566 L 59.9606,-68.8733 L 60,-69.5
 L 60,-74.5 L 59.9606,-75.1267 L 59.8429,-75.7434 L 59.6489,-76.3406 L 59.3815,-76.9088 L 59.0451,-77.4389
 L 58.6448,-77.9227 L 58.1871,-78.3526 L 57.6791,-78.7216 L 57.1289,-79.0241 L 56.5451,-79.2553 L 55.9369,-79.4114
 L 55.3139,-79.4901 L -55.3139,-79.4901 L -55.9369,-79.4114 L -56.5451,-79.2553 L -57.1289,-79.0241 L -57.6791,-78.7216
 L -58.1871,-78.3526 L -58.5,-78.0587 L -58.5,-79.1148 L -61.5,-79.1148 L -61.5,-64.8852 L -58.5,-64.8852
 L -58.5,-65.9413 L -58.1871,-65.6474 L -57.6791,-65.2784 L -57.1289,-64.9759 L -56.5451,-64.7447 L -55.9369,-64.5886
 L -55.3139,-64.5099 L 55.3139,-64.5099 z
M 55.9369,-40.5886 L 56.5451,-40.7447 L 57.1289,-40.9759 L 57.6791,-41.2784 L 58.1871,-41.6474 L 58.6448,-42.0773
 L 59.0451,-42.5611 L 59.3815,-43.0912 L 59.6489,-43.6594 L 59.8429,-44.2566 L 59.9606,-44.8733 L 60,-45.5
 L 60,-50.5 L 59.9606,-51.1267 L 59.8429,-51.7434 L 59.6489,-52.3406 L 59.3815,-52.9088 L 59.0451,-53.4389
 L 58.6448,-53.9227 L 58.1871,-54.3526 L 57.6791,-54.7216 L 57.1289,-55.0241 L 56.5451,-55.2553 L 55.9369,-55.4114
 L 55.3139,-55.4901 L -55.3139,-55.4901 L -55.9369,-55.4114 L -56.5451,-55.2553 L -57.1289,-55.0241 L -57.6791,-54.7216
 L -58.1871,-54.3526 L -58.6448,-53.9227 L -59.0451,-53.4389 L -59.3815,-52.9088 L -59.6489,-52.3406 L -59.8429,-51.7434
 L -59.9,-51.4442 L -61.5,-51.4442 L -61.5,-44.5558 L -59.9,-44.5558 L -59.8429,-44.2566 L -59.6489,-43.6594
 L -59.3815,-43.0912 L -59.0451,-42.5611 L -58.6448,-42.0773 L -58.1871,-41.6474 L -57.6791,-41.2784 L -57.1289,-40.9759
 L -56.5451,-40.7447 L -55.9369,-40.5886 L -55.3139,-40.5099 L 55.3139,-40.5099 z
M -52.613,-46.2036 L -52.8373,-46.2319 L -53.0562,-46.2881 L -53.2664,-46.3713 L -53.4645,-46.4802 L -53.6474,-46.6131
 L -53.8121,-46.7678 L -53.9562,-46.942 L -54.0773,-47.1329 L -54.1736,-47.3374 L -54.2434,-47.5524 L -54.2858,-47.7744
 L -54.3,-48 L -54.2858,-48.2256 L -54.2434,-48.4476 L -54.1736,-48.6626 L -54.0773,-48.8671 L -53.9562,-49.058
 L -53.8121,-49.2322 L -53.6474,-49.3869 L -53.4645,-49.5198 L -53.2664,-49.6287 L -53.0562,-49.7119 L -52.8373,-49.7681
 L -52.613,-49.7964 L -52.387,-49.7964 L -52.1627,-49.7681 L -51.9438,-49.7119 L -51.7336,-49.6287 L -51.5355,-49.5198
 L -51.3526,-49.3869 L -51.1879,-49.2322 L -51.0438,-49.058 L -50.9226,-48.8671 L -50.8264,-48.6626 L -50.7565,-48.4476
 L -50.7142,-48.2256 L -50.7,-48 L -50.7142,-47.7744 L -50.7565,-47.5524 L -50.8264,-47.3374 L -50.9226,-47.1329
 L -51.0438,-46.942 L -51.1879,-46.7678 L -51.3526,-46.6131 L -51.5355,-46.4802 L -51.7336,-46.3713 L -51.9438,-46.2881
 L -52.1627,-46.2319 L -52.387,-46.2036 z
M 52.387,-46.2036 L 52.1627,-46.2319 L 51.9438,-46.2881 L 51.7336,-46.3713 L 51.5355,-46.4802 L 51.3526,-46.6131
 L 51.1879,-46.7678 L 51.0438,-46.942 L 50.9226,-47.1329 L 50.8264,-47.3374 L 50.7565,-47.5524 L 50.7142,-47.7744
 L 50.7,-48 L 50.7142,-48.2256 L 50.7565,-48.4476 L 50.8264,-48.6626 L 50.9226,-48.8671 L 51.0438,-49.058
 L 51.1879,-49.2322 L 51.3526,-49.3869 L 51.5355,-49.5198 L 51.7336,-49.6287 L 51.9438,-49.7119 L 52.1627,-49.7681
 L 52.387,-49.7964 L 52.613,-49.7964 L 52.8373,-49.7681 L 53.0562,-49.7119 L 53.2664,-49.6287 L 53.4645,-49.5198
 L 53.6474,-49.3869 L 53.8121,-49.2322 L 53.9562,-49.058 L 54.0773,-48.8671 L 54.1736,-48.6626 L 54.2434,-48.4476
 L 54.2858,-48.2256 L 54.3,-48 L 54.2858,-47.7744 L 54.2434,-47.5524 L 54.1736,-47.3374 L 54.0773,-47.1329
 L 53.9562,-46.942 L 53.8121,-46.7678 L 53.6474,-46.6131 L 53.4645,-46.4802 L 53.2664,-46.3713 L 53.0562,-46.2881
 L 52.8373,-46.2319 L 52.613,-46.2036 z
" stroke="black" fill="lightgray" stroke-width="0.5"/>
</svg>
