<?xml version="1.0" standalone="no"?>
<!DOCTYPE svg PUBLIC "-//W3C//DTD SVG 1.1//EN" "http://www.w3.org/Graphics/SVG/1.1/DTD/svg11.dtd">
<svg width="16mm" height="712mm" viewBox="-8 -1364 16 712" xmlns="http://www.w3.org/2000/svg" version="1.1">
<title>OpenSCAD Model</title>
<path d="
M 3.4369,-1228.59 L 4.04507,-1228.74 L 4.62889,-1228.98 L 5.17912,-1229.28 L 5.68712,-1229.65 L 6.14484,-1230.08
 L 6.54507,-1230.56 L 6.88153,-1231.09 L 7.14888,-1231.66 L 7.34291,-1232.26 L 7.46057,-1232.87 L 7.5,-1233.5
 L 7.5,-1358.5 L 7.46057,-1359.13 L 7.34291,-1359.74 L 7.14888,-1360.34 L 6.88153,-1360.91 L 6.54507,-1361.44
 L 6.14484,-1361.92 L 5.68712,-1362.35 L 5.17912,-1362.72 L 4.62889,-1363.02 L 4.04507,-1363.26 L 3.4369,-1363.41
 L 2.81395,-1363.49 L -2.81395,-1363.49 L -3.4369,-1363.41 L -4.04507,-1363.26 L -4.62889,-1363.02 L -5.17912,-1362.72
 L -5.68712,-1362.35 L -6.14484,-1361.92 L -6.54507,-1361.44 L -6.88153,-1360.91 L -7.14888,-1360.34 L -7.34291,-1359.74
 L -7.46057,-1359.13 L -7.5,-1358.5 L -7.5,-1233.5 L -7.46057,-1232.87 L -7.34291,-1232.26 L -7.14888,-1231.66
 L -6.88153,-1231.09 L -6.54507,-1230.56 L -6.14484,-1230.08 L -5.68712,-1229.65 L -5.17912,-1229.28 L -4.62889,-1228.98
 L -4.04507,-1228.74 L -3.4369,-1228.59 L -2.81395,-1228.51 L 2.81395,-1228.51 z
M -2.25116,-1230.01 L -2.74951,-1230.07 L -3.23605,-1230.2 L -3.70311,-1230.38 L -4.1433,-1230.62 L -4.54968,-1230.92
 L -4.91586,-1231.26 L -5.23605,-1231.65 L -5.50522,-1232.07 L -5.7191,-1232.53 L -5.87433,-1233.01 L -5.96844,-1233.5
 L -6,-1234 L -6,-1358 L -5.96844,-1358.5 L -5.87433,-1358.99 L -5.7191,-1359.47 L -5.50522,-1359.93
 L -5.23605,-1360.35 L -4.91586,-1360.74 L -4.54968,-1361.08 L -4.1433,-1361.38 L -3.70311,-1361.62 L -3.23605,-1361.8
 L -2.74951,-1361.93 L -2.25116,-1361.99 L 2.25116,-1361.99 L 2.74951,-1361.93 L 3.23605,-1361.8 L 3.70311,-1361.62
 L 4.1433,-1361.38 L 4.54968,-1361.08 L 4.91586,-1360.74 L 5.23605,-1360.35 L 5.50522,-1359.93 L 5.7191,-1359.47
 L 5.87433,-1358.99 L 5.96844,-1358.5 L 6,-1358 L 6,-1234 L 5.96844,-1233.5 L 5.87433,-1233.01
 L 5.7191,-1232.53 L 5.50522,-1232.07 L 5.23605,-1231.65 L 4.91586,-1231.26 L 4.54968,-1230.92 L 4.1433,-1230.62
 L 3.70311,-1230.38 L 3.23605,-1230.2 L 2.74951,-1230.07 L 2.25116,-1230.01 z
M 3.4369,-1084.59 L 4.04507,-1084.74 L 4.62889,-1084.98 L 5.17912,-1085.28 L 5.68712,-1085.65 L 6.14484,-1086.08
 L 6.54507,-1086.56 L 6.88153,-1087.09 L 7.14888,-1087.66 L 7.34291,-1088.26 L 7.46057,-1088.87 L 7.5,-1089.5
 L 7.5,-1214.5 L 7.46057,-1215.13 L 7.34291,-1215.74 L 7.14888,-1216.34 L 6.88153,-1216.91 L 6.54507,-1217.44
 L 6.14484,-1217.92 L 5.68712,-1218.35 L 5.17912,-1218.72 L 4.62889,-1219.02 L 4.04507,-1219.26 L 3.4369,-1219.41
 L 2.81395,-1219.49 L -2.81395,-1219.49 L -3.4369,-1219.41 L -4.04507,-1219.26 L -4.62889,-1219.02 L -5.17912,-1218.72
 L -5.68712,-1218.35 L -6.14484,-1217.92 L -6.54507,-1217.44 L -6.88153,-1216.91 L -7.14888,-1216.34 L -7.34291,-1215.74
 L -7.46057,-1215.13 L -7.5,-1214.5 L -7.5,-1089.5 L -7.46057,-1088.87 L -7.34291,-1088.26 L -7.14888,-1087.66
 L -6.88153,-1087.09 L -6.54507,-1086.56 L -6.14484,-1086.08 L -5.68712,-1085.65 L -5.17912,-1085.28 L -4.62889,-1084.98
 L -4.04507,-1084.74 L -3.4369,-1084.59 L -2.81395,-1084.51 L 2.81395,-1084.51 z
M -2.25116,-1086.01 L -2.74951,-1086.07 L -3.23605,-1086.2 L -3.70311,-1086.38 L -4.1433,-1086.62 L -4.54968,-1086.92
 L -4.91586,-1087.26 L -5.23605,-1087.65 L -5.50522,-1088.07 L -5.7191,-1088.53 L -5.87433,-1089.01 L -5.96844,-1089.5
 L -6,-1090 L -6,-1214 L -5.96844,-1214.5 L -5.87433,-1214.99 L -5.7191,-1215.47 L -5.50522,-1215.93
 L -5.23605,-1216.35 L -4.91586,-1216.74 L -4.54968,-1217.08 L -4.1433,-1217.38 L -3.70311,-1217.62 L -3.23605,-1217.8
 L -2.74951,-1217.93 L -2.25116,-1217.99 L 2.25116,-1217.99 L 2.74951,-1217.93 L 3.23605,-1217.8 L 3.70311,-1217.62
 L 4.1433,-1217.38 L 4.54968,-1217.08 L 4.91586,-1216.74 L 5.23605,-1216.35 L 5.50522,-1215.93 L 5.7191,-1215.47
 L 5.87433,-1214.99 L 5.96844,-1214.5 L 6,-1214 L 6,-1090 L 5.96844,-1089.5 L 5.87433,-1089.01
 L 5.7191,-1088.53 L 5.50522,-1088.07 L 5.23605,-1087.65 L 4.91586,-1087.26 L 4.54968,-1086.92 L 4.1433,-1086.62
 L 3.70311,-1086.38 L 3.23605,-1086.2 L 2.74951,-1086.07 L 2.25116,-1086.01 z
M 3.4369,-940.589 L 4.04507,-940.745 L 4.62889,-940.976 L 5.17912,-941.278 L 5.68712,-941.647 L 6.14484,-942.077
 L 6.54507,-942.561 L 6.88153,-943.091 L 7.14888,-943.659 L 7.34291,-944.257 L 7.46057,-944.873 L 7.5,-945.5
 L 7.5,-1070.5 L 7.46057,-1071.13 L 7.34291,-1071.74 L 7.14888,-1072.34 L 6.88153,-1072.91 L 6.54507,-1073.44
 L 6.14484,-1073.92 L 5.68712,-1074.35 L 5.17912,-1074.72 L 4.62889,-1075.02 L 4.04507,-1075.26 L 3.4369,-1075.41
 L 2.81395,-1075.49 L -2.81395,-1075.49 L -3.4369,-1075.41 L -4.04507,-1075.26 L -4.62889,-1075.02 L -5.17912,-1074.72
 L -5.68712,-1074.35 L -6.14484,-1073.92 L -6.54507,-1073.44 L -6.88153,-1072.91 L -7.14888,-1072.34 L -7.34291,-1071.74
 L -7.46057,-1071.13 L -7.5,-1070.5 L -7.5,-945.5 L -7.46057,-944.873 L -7.34291,-944.257 L -7.14888,-943.659
 L -6.88153,-943.091 L -6.54507,-942.561 L -6.14484,-942.077 L -5.68712,-941.647 L -5.17912,-941.278 L -4.62889,-940.976
 L -4.04507,-940.745 L -3.4369,-940.589 L -2.81395,-940.51 L 2.81395,-940.51 z
M -2.25116,-942.008 L -2.74951,-942.071 L -3.23605,-942.196 L -3.70311,-942.381 L -4.1433,-942.623 L -4.54968,-942.918
 L -4.91586,-943.262 L -5.23605,-943.649 L -5.50522,-944.073 L -5.7191,-944.528 L -5.87433,-945.005 L -5.96844,-945.499
 L -6,-946 L -6,-1070 L -5.96844,-1070.5 L -5.87433,-1070.99 L -5.7191,-1071.47 L -5.50522,-1071.93
 L -5.23605,-1072.35 L -4.91586,-1072.74 L -4.54968,-1073.08 L -4.1433,-1073.38 L -3.70311,-1073.62 L -3.23605,-1073.8
 L -2.74951,-1073.93 L -2.25116,-1073.99 L 2.25116,-1073.99 L 2.74951,-1073.93 L 3.23605,-1073.8 L 3.70311,-1073.62
 L 4.1433,-1073.38 L 4.54968,-1073.08 L 4.91586,-1072.74 L 5.23605,-1072.35 L 5.50522,-1071.93 L 5.7191,-1071.47
 L 5.87433,-1070.99 L 5.96844,-1070.5 L 6,-1070 L 6,-946 L 5.96844,-945.499 L 5.87433,-945.005
 L 5.7191,-944.528 L 5.50522,-944.073 L 5.23605,-943.649 L 4.91586,-943.262 L 4.54968,-942.918 L 4.1433,-942.623
 L 3.70311,-942.381 L 3.23605,-942.196 L 2.74951,-942.071 L 2.25116,-942.008 z
M 3.4369,-796.589 L 4.04507,-796.745 L 4.62889,-796.976 L 5.17912,-797.278 L 5.68712,-797.647 L 6.14484,-798.077
 L 6.54507,-798.561 L 6.88153,-799.091 L 7.14888,-799.659 L 7.34291,-800.257 L 7.46057,-800.873 L 7.5,-801.5
 L 7.5,-926.5 L 7.46057,-927.127 L 7.34291,-927.743 L 7.14888,-928.341 L 6.88153,-928.909 L 6.54507,-929.439
 L 6.14484,-929.923 L 5.68712,-930.353 L 5.17912,-930.722 L 4.62889,-931.024 L 4.04507,-931.255 L 3.4369,-931.411
 L 2.81395,-931.49 L -2.81395,-931.49 L -3.4369,-931.411 L -4.04507,-931.255 L -4.62889,-931.024 L -5.17912,-930.722
 L -5.68712,-930.353 L -6.14484,-929.923 L -6.54507,-929.439 L -6.88153,-928.909 L -7.14888,-928.341 L -7.34291,-927.743
 L -7.46057,-927.127 L -7.5,-926.5 L -7.5,-801.5 L -7.46057,-800.873 L -7.34291,-800.257 L -7.14888,-799.659
 L -6.88153,-799.091 L -6.54507,-798.561 L -6.14484,-798.077 L -5.68712,-797.647 L -5.17912,-797.278 L -4.62889,-796.976
 L -4.04507,-796.745 L -3.4369,-796.589 L -2.81395,-796.51 L 2.81395,-796.51 z
M -2.19545,-798.893 L -2.5833,-798.942 L -2.96194,-799.039 L -3.32541,-799.183 L -3.66798,-799.372 L -3.98424,-799.601
 L -4.26921,-799.869 L -4.5184,-800.17 L -4.72786,-800.5 L -4.89432,-800.854 L -5.01512,-801.226 L -5.08836,-801.61
 L -5.11292,-802 L -5.11292,-926 L -5.08836,-926.39 L -5.01512,-926.774 L -4.89432,-927.146 L -4.72786,-927.5
 L -4.5184,-927.83 L -4.26921,-928.131 L -3.98424,-928.399 L -3.66798,-928.628 L -3.32541,-928.817 L -2.96194,-928.961
 L -2.5833,-929.058 L -2.19545,-929.107 L 2.19545,-929.107 L 2.5833,-929.058 L 2.96194,-928.961 L 3.32541,-928.817
 L 3.66798,-928.628 L 3.98424,-928.399 L 4.26921,-928.131 L 4.5184,-927.83 L 4.72786,-927.5 L 4.89432,-927.146
 L 5.01512,-926.774 L 5.08836,-926.39 L 5.11292,-926 L 5.11292,-802 L 5.08836,-801.61 L 5.01512,-801.226
 L 4.89432,-800.854 L 4.72786,-800.5 L 4.5184,-800.17 L 4.26921,-799.869 L 3.98424,-799.601 L 3.66798,-799.372
 L 3.32541,-799.183 L 2.96194,-799.039 L 2.5833,-798.942 L 2.19545,-798.893 z
M 3.4369,-652.589 L 4.04507,-652.745 L 4.62889,-652.976 L 5.17912,-653.278 L 5.68712,-653.647 L 6.14484,-654.077
 L 6.54507,-654.561 L 6.88153,-655.091 L 7.14888,-655.659 L 7.34291,-656.257 L 7.46057,-656.873 L 7.5,-657.5
 L 7.5,-782.5 L 7.46057,-783.127 L 7.34291,-783.743 L 7.14888,-784.341 L 6.88153,-784.909 L 6.54507,-785.439
 L 6.14484,-785.923 L 5.68712,-786.353 L 5.17912,-786.722 L 4.62889,-787.024 L 4.04507,-787.255 L 3.4369,-787.411
 L 2.81395,-787.49 L -2.81395,-787.49 L -3.4369,-787.411 L -4.04507,-787.255 L -4.62889,-787.024 L -5.17912,-786.722
 L -5.68712,-786.353 L -6.14484,-785.923 L -6.54507,-785.439 L -6.88153,-784.909 L -7.14888,-784.341 L -7.34291,-783.743
 L -7.46057,-783.127 L -7.5,-782.5 L -7.5,-657.5 L -7.46057,-656.873 L -7.34291,-656.257 L -7.14888,-655.659
 L -6.88153,-655.091 L -6.54507,-654.561 L -6.14484,-654.077 L -5.68712,-653.647 L -5.17912,-653.278 L -4.62889,-652.976
 L -4.04507,-652.745 L -3.4369,-652.589 L -2.81395,-652.51 L 2.81395,-652.51 z
M -0.134064,-777.869 L -0.400101,-777.903 L -0.659836,-777.969 L -0.909149,-778.068 L -1.14413,-778.197 L -1.36108,-778.355
 L -1.55655,-778.538 L -1.72748,-778.745 L -1.87117,-778.971 L -1.98534,-779.214 L -2.06821,-779.469 L -2.11845,-779.732
 L -2.13528,-780 L -2.11845,-780.268 L -2.06821,-780.531 L -1.98534,-780.786 L -1.87117,-781.029 L -1.72748,-781.255
 L -1.55655,-781.462 L -1.36108,-781.645 L -1.14413,-781.803 L -0.909149,-781.932 L -0.659836,-782.031 L -0.400101,-782.097
 L -0.134064,-782.131 L 0.134064,-782.131 L 0.400101,-782.097 L 0.659836,-782.031 L 0.909149,-781.932 L 1.14413,-781.803
 L 1.36108,-781.645 L 1.55655,-781.462 L 1.72748,-781.255 L 1.87117,-781.029 L 1.98534,-780.786 L 2.06821,-780.531
 L 2.11845,-780.268 L 2.13528,-780 L 2.11845,-779.732 L 2.06821,-779.469 L 1.98534,-779.214 L 1.87117,-778.971
 L 1.72748,-778.745 L 1.55655,-778.538 L 1.36108,-778.355 L 1.14413,-778.197 L 0.909149,-778.068 L 0.659836,-777.969
 L 0.400101,-777.903 L 0.134064,-777.869 z
M -0.134064,-657.869 L -0.400101,-657.903 L -0.659836,-657.969 L -0.909149,-658.068 L -1.14413,-658.197 L -1.36108,-658.355
 L -1.55655,-658.538 L -1.72748,-658.745 L -1.87117,-658.971 L -1.98534,-659.214 L -2.06821,-659.469 L -2.11845,-659.732
 L -2.13528,-660 L -2.11845,-660.268 L -2.06821,-660.531 L -1.98534,-660.786 L -1.87117,-661.029 L -1.72748,-661.255
 L -1.55655,-661.462 L -1.36108,-661.645 L -1.14413,-661.803 L -0.909149,-661.932 L -0.659836,-662.031 L -0.400101,-662.097
 L -0.134064,-662.131 L 0.134064,-662.131 L 0.400101,-662.097 L 0.659836,-662.031 L 0.909149,-661.932 L 1.14413,-661.803
 L 1.36108,-661.645 L 1.55655,-661.462 L 1.72748,-661.255 L 1.87117,-661.029 L 1.98534,-660.786 L 2.06821,-660.531
 L 2.11845,-660.268 L 2.13528,-660 L 2.11845,-659.732 L 2.06821,-659.469 L 1.98534,-659.214 L 1.87117,-658.971
 L 1.72748,-658.745 L 1.55655,-658.538 L 1.36108,-658.355 L 1.14413,-658.197 L 0.909149,-658.068 L 0.659836,-657.969
 L 0.400101,-657.903 L 0.134064,-657.869 z
" stroke="black" fill="lightgray" stroke-width="0.5"/>
</svg>
