  0
SECTION
  2
BLOCKS
  0
ENDSEC
  0
SECTION
  2
ENTITIES
  0
LINE
  8
0
 10
3.4369
 20
591.089
 11
4.04507
 21
591.245
  0
LINE
  8
0
 10
4.04507
 20
591.245
 11
4.62889
 21
591.476
  0
LINE
  8
0
 10
4.62889
 20
591.476
 11
5.17912
 21
591.778
  0
LINE
  8
0
 10
5.17912
 20
591.778
 11
5.68712
 21
592.147
  0
LINE
  8
0
 10
5.68712
 20
592.147
 11
6.14484
 21
592.577
  0
LINE
  8
0
 10
6.14484
 20
592.577
 11
6.54507
 21
593.061
  0
LINE
  8
0
 10
6.54507
 20
593.061
 11
6.88153
 21
593.591
  0
LINE
  8
0
 10
6.88153
 20
593.591
 11
7.14888
 21
594.159
  0
LINE
  8
0
 10
7.14888
 20
594.159
 11
7.34291
 21
594.757
  0
LINE
  8
0
 10
7.34291
 20
594.757
 11
7.46057
 21
595.373
  0
LINE
  8
0
 10
7.46057
 20
595.373
 11
7.5
 21
596
  0
LINE
  8
0
 10
7.5
 20
596
 11
7.5
 21
646
  0
LINE
  8
0
 10
7.5
 20
646
 11
7.46057
 21
646.627
  0
LINE
  8
0
 10
7.46057
 20
646.627
 11
7.34291
 21
647.243
  0
LINE
  8
0
 10
7.34291
 20
647.243
 11
7.14888
 21
647.841
  0
LINE
  8
0
 10
7.14888
 20
647.841
 11
6.88153
 21
648.409
  0
LINE
  8
0
 10
6.88153
 20
648.409
 11
6.54507
 21
648.939
  0
LINE
  8
0
 10
6.54507
 20
648.939
 11
6.14484
 21
649.423
  0
LINE
  8
0
 10
6.14484
 20
649.423
 11
5.68712
 21
649.853
  0
LINE
  8
0
 10
5.68712
 20
649.853
 11
5.17912
 21
650.222
  0
LINE
  8
0
 10
5.17912
 20
650.222
 11
4.62889
 21
650.524
  0
LINE
  8
0
 10
4.62889
 20
650.524
 11
4.04507
 21
650.755
  0
LINE
  8
0
 10
4.04507
 20
650.755
 11
3.4369
 21
650.911
  0
LINE
  8
0
 10
3.4369
 20
650.911
 11
2.81395
 21
650.99
  0
LINE
  8
0
 10
2.81395
 20
650.99
 11
-2.81395
 21
650.99
  0
LINE
  8
0
 10
-2.81395
 20
650.99
 11
-3.4369
 21
650.911
  0
LINE
  8
0
 10
-3.4369
 20
650.911
 11
-4.04507
 21
650.755
  0
LINE
  8
0
 10
-4.04507
 20
650.755
 11
-4.62889
 21
650.524
  0
LINE
  8
0
 10
-4.62889
 20
650.524
 11
-5.17912
 21
650.222
  0
LINE
  8
0
 10
-5.17912
 20
650.222
 11
-5.68712
 21
649.853
  0
LINE
  8
0
 10
-5.68712
 20
649.853
 11
-6.14484
 21
649.423
  0
LINE
  8
0
 10
-6.14484
 20
649.423
 11
-6.54507
 21
648.939
  0
LINE
  8
0
 10
-6.54507
 20
648.939
 11
-6.88153
 21
648.409
  0
LINE
  8
0
 10
-6.88153
 20
648.409
 11
-7.14888
 21
647.841
  0
LINE
  8
0
 10
-7.14888
 20
647.841
 11
-7.34291
 21
647.243
  0
LINE
  8
0
 10
-7.34291
 20
647.243
 11
-7.46057
 21
646.627
  0
LINE
  8
0
 10
-7.46057
 20
646.627
 11
-7.5
 21
646
  0
LINE
  8
0
 10
-7.5
 20
646
 11
-7.5
 21
596
  0
LINE
  8
0
 10
-7.5
 20
596
 11
-7.46057
 21
595.373
  0
LINE
  8
0
 10
-7.46057
 20
595.373
 11
-7.34291
 21
594.757
  0
LINE
  8
0
 10
-7.34291
 20
594.757
 11
-7.14888
 21
594.159
  0
LINE
  8
0
 10
-7.14888
 20
594.159
 11
-6.88153
 21
593.591
  0
LINE
  8
0
 10
-6.88153
 20
593.591
 11
-6.54507
 21
593.061
  0
LINE
  8
0
 10
-6.54507
 20
593.061
 11
-6.14484
 21
592.577
  0
LINE
  8
0
 10
-6.14484
 20
592.577
 11
-5.68712
 21
592.147
  0
LINE
  8
0
 10
-5.68712
 20
592.147
 11
-5.17912
 21
591.778
  0
LINE
  8
0
 10
-5.17912
 20
591.778
 11
-4.62889
 21
591.476
  0
LINE
  8
0
 10
-4.62889
 20
591.476
 11
-4.04507
 21
591.245
  0
LINE
  8
0
 10
-4.04507
 20
591.245
 11
-3.4369
 21
591.089
  0
LINE
  8
0
 10
-3.4369
 20
591.089
 11
-2.81395
 21
591.01
  0
LINE
  8
0
 10
-2.81395
 20
591.01
 11
2.81395
 21
591.01
  0
LINE
  8
0
 10
2.81395
 20
591.01
 11
3.4369
 21
591.089
  0
LINE
  8
0
 10
-2.25116
 20
592.508
 11
-2.74951
 21
592.571
  0
LINE
  8
0
 10
-2.74951
 20
592.571
 11
-3.23605
 21
592.696
  0
LINE
  8
0
 10
-3.23605
 20
592.696
 11
-3.70311
 21
592.881
  0
LINE
  8
0
 10
-3.70311
 20
592.881
 11
-4.1433
 21
593.123
  0
LINE
  8
0
 10
-4.1433
 20
593.123
 11
-4.54968
 21
593.418
  0
LINE
  8
0
 10
-4.54968
 20
593.418
 11
-4.91586
 21
593.762
  0
LINE
  8
0
 10
-4.91586
 20
593.762
 11
-5.23605
 21
594.149
  0
LINE
  8
0
 10
-5.23605
 20
594.149
 11
-5.50522
 21
594.573
  0
LINE
  8
0
 10
-5.50522
 20
594.573
 11
-5.7191
 21
595.028
  0
LINE
  8
0
 10
-5.7191
 20
595.028
 11
-5.87433
 21
595.505
  0
LINE
  8
0
 10
-5.87433
 20
595.505
 11
-5.96844
 21
595.999
  0
LINE
  8
0
 10
-5.96844
 20
595.999
 11
-6
 21
596.5
  0
LINE
  8
0
 10
-6
 20
596.5
 11
-6
 21
645.5
  0
LINE
  8
0
 10
-6
 20
645.5
 11
-5.96844
 21
646.001
  0
LINE
  8
0
 10
-5.96844
 20
646.001
 11
-5.87433
 21
646.495
  0
LINE
  8
0
 10
-5.87433
 20
646.495
 11
-5.7191
 21
646.972
  0
LINE
  8
0
 10
-5.7191
 20
646.972
 11
-5.50522
 21
647.427
  0
LINE
  8
0
 10
-5.50522
 20
647.427
 11
-5.23605
 21
647.851
  0
LINE
  8
0
 10
-5.23605
 20
647.851
 11
-4.91586
 21
648.238
  0
LINE
  8
0
 10
-4.91586
 20
648.238
 11
-4.54968
 21
648.582
  0
LINE
  8
0
 10
-4.54968
 20
648.582
 11
-4.1433
 21
648.877
  0
LINE
  8
0
 10
-4.1433
 20
648.877
 11
-3.70311
 21
649.119
  0
LINE
  8
0
 10
-3.70311
 20
649.119
 11
-3.23605
 21
649.304
  0
LINE
  8
0
 10
-3.23605
 20
649.304
 11
-2.74951
 21
649.429
  0
LINE
  8
0
 10
-2.74951
 20
649.429
 11
-2.25116
 21
649.492
  0
LINE
  8
0
 10
-2.25116
 20
649.492
 11
2.25116
 21
649.492
  0
LINE
  8
0
 10
2.25116
 20
649.492
 11
2.74951
 21
649.429
  0
LINE
  8
0
 10
2.74951
 20
649.429
 11
3.23605
 21
649.304
  0
LINE
  8
0
 10
3.23605
 20
649.304
 11
3.70311
 21
649.119
  0
LINE
  8
0
 10
3.70311
 20
649.119
 11
4.1433
 21
648.877
  0
LINE
  8
0
 10
4.1433
 20
648.877
 11
4.54968
 21
648.582
  0
LINE
  8
0
 10
4.54968
 20
648.582
 11
4.91586
 21
648.238
  0
LINE
  8
0
 10
4.91586
 20
648.238
 11
5.23605
 21
647.851
  0
LINE
  8
0
 10
5.23605
 20
647.851
 11
5.50522
 21
647.427
  0
LINE
  8
0
 10
5.50522
 20
647.427
 11
5.7191
 21
646.972
  0
LINE
  8
0
 10
5.7191
 20
646.972
 11
5.87433
 21
646.495
  0
LINE
  8
0
 10
5.87433
 20
646.495
 11
5.96844
 21
646.001
  0
LINE
  8
0
 10
5.96844
 20
646.001
 11
6
 21
645.5
  0
LINE
  8
0
 10
6
 20
645.5
 11
6
 21
596.5
  0
LINE
  8
0
 10
6
 20
596.5
 11
5.96844
 21
595.999
  0
LINE
  8
0
 10
5.96844
 20
595.999
 11
5.87433
 21
595.505
  0
LINE
  8
0
 10
5.87433
 20
595.505
 11
5.7191
 21
595.028
  0
LINE
  8
0
 10
5.7191
 20
595.028
 11
5.50522
 21
594.573
  0
LINE
  8
0
 10
5.50522
 20
594.573
 11
5.23605
 21
594.149
  0
LINE
  8
0
 10
5.23605
 20
594.149
 11
4.91586
 21
593.762
  0
LINE
  8
0
 10
4.91586
 20
593.762
 11
4.54968
 21
593.418
  0
LINE
  8
0
 10
4.54968
 20
593.418
 11
4.1433
 21
593.123
  0
LINE
  8
0
 10
4.1433
 20
593.123
 11
3.70311
 21
592.881
  0
LINE
  8
0
 10
3.70311
 20
592.881
 11
3.23605
 21
592.696
  0
LINE
  8
0
 10
3.23605
 20
592.696
 11
2.74951
 21
592.571
  0
LINE
  8
0
 10
2.74951
 20
592.571
 11
2.25116
 21
592.508
  0
LINE
  8
0
 10
2.25116
 20
592.508
 11
-2.25116
 21
592.508
  0
LINE
  8
0
 10
3.4369
 20
522.089
 11
4.04507
 21
522.245
  0
LINE
  8
0
 10
4.04507
 20
522.245
 11
4.62889
 21
522.476
  0
LINE
  8
0
 10
4.62889
 20
522.476
 11
5.17912
 21
522.778
  0
LINE
  8
0
 10
5.17912
 20
522.778
 11
5.68712
 21
523.147
  0
LINE
  8
0
 10
5.68712
 20
523.147
 11
6.14484
 21
523.577
  0
LINE
  8
0
 10
6.14484
 20
523.577
 11
6.54507
 21
524.061
  0
LINE
  8
0
 10
6.54507
 20
524.061
 11
6.88153
 21
524.591
  0
LINE
  8
0
 10
6.88153
 20
524.591
 11
7.14888
 21
525.159
  0
LINE
  8
0
 10
7.14888
 20
525.159
 11
7.34291
 21
525.757
  0
LINE
  8
0
 10
7.34291
 20
525.757
 11
7.46057
 21
526.373
  0
LINE
  8
0
 10
7.46057
 20
526.373
 11
7.5
 21
527
  0
LINE
  8
0
 10
7.5
 20
527
 11
7.5
 21
577
  0
LINE
  8
0
 10
7.5
 20
577
 11
7.46057
 21
577.627
  0
LINE
  8
0
 10
7.46057
 20
577.627
 11
7.34291
 21
578.243
  0
LINE
  8
0
 10
7.34291
 20
578.243
 11
7.14888
 21
578.841
  0
LINE
  8
0
 10
7.14888
 20
578.841
 11
6.88153
 21
579.409
  0
LINE
  8
0
 10
6.88153
 20
579.409
 11
6.54507
 21
579.939
  0
LINE
  8
0
 10
6.54507
 20
579.939
 11
6.14484
 21
580.423
  0
LINE
  8
0
 10
6.14484
 20
580.423
 11
5.68712
 21
580.853
  0
LINE
  8
0
 10
5.68712
 20
580.853
 11
5.17912
 21
581.222
  0
LINE
  8
0
 10
5.17912
 20
581.222
 11
4.62889
 21
581.524
  0
LINE
  8
0
 10
4.62889
 20
581.524
 11
4.04507
 21
581.755
  0
LINE
  8
0
 10
4.04507
 20
581.755
 11
3.4369
 21
581.911
  0
LINE
  8
0
 10
3.4369
 20
581.911
 11
2.81395
 21
581.99
  0
LINE
  8
0
 10
2.81395
 20
581.99
 11
-2.81395
 21
581.99
  0
LINE
  8
0
 10
-2.81395
 20
581.99
 11
-3.4369
 21
581.911
  0
LINE
  8
0
 10
-3.4369
 20
581.911
 11
-4.04507
 21
581.755
  0
LINE
  8
0
 10
-4.04507
 20
581.755
 11
-4.62889
 21
581.524
  0
LINE
  8
0
 10
-4.62889
 20
581.524
 11
-5.17912
 21
581.222
  0
LINE
  8
0
 10
-5.17912
 20
581.222
 11
-5.68712
 21
580.853
  0
LINE
  8
0
 10
-5.68712
 20
580.853
 11
-6.14484
 21
580.423
  0
LINE
  8
0
 10
-6.14484
 20
580.423
 11
-6.54507
 21
579.939
  0
LINE
  8
0
 10
-6.54507
 20
579.939
 11
-6.88153
 21
579.409
  0
LINE
  8
0
 10
-6.88153
 20
579.409
 11
-7.14888
 21
578.841
  0
LINE
  8
0
 10
-7.14888
 20
578.841
 11
-7.34291
 21
578.243
  0
LINE
  8
0
 10
-7.34291
 20
578.243
 11
-7.46057
 21
577.627
  0
LINE
  8
0
 10
-7.46057
 20
577.627
 11
-7.5
 21
577
  0
LINE
  8
0
 10
-7.5
 20
577
 11
-7.5
 21
527
  0
LINE
  8
0
 10
-7.5
 20
527
 11
-7.46057
 21
526.373
  0
LINE
  8
0
 10
-7.46057
 20
526.373
 11
-7.34291
 21
525.757
  0
LINE
  8
0
 10
-7.34291
 20
525.757
 11
-7.14888
 21
525.159
  0
LINE
  8
0
 10
-7.14888
 20
525.159
 11
-6.88153
 21
524.591
  0
LINE
  8
0
 10
-6.88153
 20
524.591
 11
-6.54507
 21
524.061
  0
LINE
  8
0
 10
-6.54507
 20
524.061
 11
-6.14484
 21
523.577
  0
LINE
  8
0
 10
-6.14484
 20
523.577
 11
-5.68712
 21
523.147
  0
LINE
  8
0
 10
-5.68712
 20
523.147
 11
-5.17912
 21
522.778
  0
LINE
  8
0
 10
-5.17912
 20
522.778
 11
-4.62889
 21
522.476
  0
LINE
  8
0
 10
-4.62889
 20
522.476
 11
-4.04507
 21
522.245
  0
LINE
  8
0
 10
-4.04507
 20
522.245
 11
-3.4369
 21
522.089
  0
LINE
  8
0
 10
-3.4369
 20
522.089
 11
-2.81395
 21
522.01
  0
LINE
  8
0
 10
-2.81395
 20
522.01
 11
2.81395
 21
522.01
  0
LINE
  8
0
 10
2.81395
 20
522.01
 11
3.4369
 21
522.089
  0
LINE
  8
0
 10
-2.25116
 20
523.508
 11
-2.74951
 21
523.571
  0
LINE
  8
0
 10
-2.74951
 20
523.571
 11
-3.23605
 21
523.696
  0
LINE
  8
0
 10
-3.23605
 20
523.696
 11
-3.70311
 21
523.881
  0
LINE
  8
0
 10
-3.70311
 20
523.881
 11
-4.1433
 21
524.123
  0
LINE
  8
0
 10
-4.1433
 20
524.123
 11
-4.54968
 21
524.418
  0
LINE
  8
0
 10
-4.54968
 20
524.418
 11
-4.91586
 21
524.762
  0
LINE
  8
0
 10
-4.91586
 20
524.762
 11
-5.23605
 21
525.149
  0
LINE
  8
0
 10
-5.23605
 20
525.149
 11
-5.50522
 21
525.573
  0
LINE
  8
0
 10
-5.50522
 20
525.573
 11
-5.7191
 21
526.028
  0
LINE
  8
0
 10
-5.7191
 20
526.028
 11
-5.87433
 21
526.505
  0
LINE
  8
0
 10
-5.87433
 20
526.505
 11
-5.96844
 21
526.999
  0
LINE
  8
0
 10
-5.96844
 20
526.999
 11
-6
 21
527.5
  0
LINE
  8
0
 10
-6
 20
527.5
 11
-6
 21
576.5
  0
LINE
  8
0
 10
-6
 20
576.5
 11
-5.96844
 21
577.001
  0
LINE
  8
0
 10
-5.96844
 20
577.001
 11
-5.87433
 21
577.495
  0
LINE
  8
0
 10
-5.87433
 20
577.495
 11
-5.7191
 21
577.972
  0
LINE
  8
0
 10
-5.7191
 20
577.972
 11
-5.50522
 21
578.427
  0
LINE
  8
0
 10
-5.50522
 20
578.427
 11
-5.23605
 21
578.851
  0
LINE
  8
0
 10
-5.23605
 20
578.851
 11
-4.91586
 21
579.238
  0
LINE
  8
0
 10
-4.91586
 20
579.238
 11
-4.54968
 21
579.582
  0
LINE
  8
0
 10
-4.54968
 20
579.582
 11
-4.1433
 21
579.877
  0
LINE
  8
0
 10
-4.1433
 20
579.877
 11
-3.70311
 21
580.119
  0
LINE
  8
0
 10
-3.70311
 20
580.119
 11
-3.23605
 21
580.304
  0
LINE
  8
0
 10
-3.23605
 20
580.304
 11
-2.74951
 21
580.429
  0
LINE
  8
0
 10
-2.74951
 20
580.429
 11
-2.25116
 21
580.492
  0
LINE
  8
0
 10
-2.25116
 20
580.492
 11
2.25116
 21
580.492
  0
LINE
  8
0
 10
2.25116
 20
580.492
 11
2.74951
 21
580.429
  0
LINE
  8
0
 10
2.74951
 20
580.429
 11
3.23605
 21
580.304
  0
LINE
  8
0
 10
3.23605
 20
580.304
 11
3.70311
 21
580.119
  0
LINE
  8
0
 10
3.70311
 20
580.119
 11
4.1433
 21
579.877
  0
LINE
  8
0
 10
4.1433
 20
579.877
 11
4.54968
 21
579.582
  0
LINE
  8
0
 10
4.54968
 20
579.582
 11
4.91586
 21
579.238
  0
LINE
  8
0
 10
4.91586
 20
579.238
 11
5.23605
 21
578.851
  0
LINE
  8
0
 10
5.23605
 20
578.851
 11
5.50522
 21
578.427
  0
LINE
  8
0
 10
5.50522
 20
578.427
 11
5.7191
 21
577.972
  0
LINE
  8
0
 10
5.7191
 20
577.972
 11
5.87433
 21
577.495
  0
LINE
  8
0
 10
5.87433
 20
577.495
 11
5.96844
 21
577.001
  0
LINE
  8
0
 10
5.96844
 20
577.001
 11
6
 21
576.5
  0
LINE
  8
0
 10
6
 20
576.5
 11
6
 21
527.5
  0
LINE
  8
0
 10
6
 20
527.5
 11
5.96844
 21
526.999
  0
LINE
  8
0
 10
5.96844
 20
526.999
 11
5.87433
 21
526.505
  0
LINE
  8
0
 10
5.87433
 20
526.505
 11
5.7191
 21
526.028
  0
LINE
  8
0
 10
5.7191
 20
526.028
 11
5.50522
 21
525.573
  0
LINE
  8
0
 10
5.50522
 20
525.573
 11
5.23605
 21
525.149
  0
LINE
  8
0
 10
5.23605
 20
525.149
 11
4.91586
 21
524.762
  0
LINE
  8
0
 10
4.91586
 20
524.762
 11
4.54968
 21
524.418
  0
LINE
  8
0
 10
4.54968
 20
524.418
 11
4.1433
 21
524.123
  0
LINE
  8
0
 10
4.1433
 20
524.123
 11
3.70311
 21
523.881
  0
LINE
  8
0
 10
3.70311
 20
523.881
 11
3.23605
 21
523.696
  0
LINE
  8
0
 10
3.23605
 20
523.696
 11
2.74951
 21
523.571
  0
LINE
  8
0
 10
2.74951
 20
523.571
 11
2.25116
 21
523.508
  0
LINE
  8
0
 10
2.25116
 20
523.508
 11
-2.25116
 21
523.508
  0
LINE
  8
0
 10
3.4369
 20
453.089
 11
4.04507
 21
453.245
  0
LINE
  8
0
 10
4.04507
 20
453.245
 11
4.62889
 21
453.476
  0
LINE
  8
0
 10
4.62889
 20
453.476
 11
5.17912
 21
453.778
  0
LINE
  8
0
 10
5.17912
 20
453.778
 11
5.68712
 21
454.147
  0
LINE
  8
0
 10
5.68712
 20
454.147
 11
6.14484
 21
454.577
  0
LINE
  8
0
 10
6.14484
 20
454.577
 11
6.54507
 21
455.061
  0
LINE
  8
0
 10
6.54507
 20
455.061
 11
6.88153
 21
455.591
  0
LINE
  8
0
 10
6.88153
 20
455.591
 11
7.14888
 21
456.159
  0
LINE
  8
0
 10
7.14888
 20
456.159
 11
7.34291
 21
456.757
  0
LINE
  8
0
 10
7.34291
 20
456.757
 11
7.46057
 21
457.373
  0
LINE
  8
0
 10
7.46057
 20
457.373
 11
7.5
 21
458
  0
LINE
  8
0
 10
7.5
 20
458
 11
7.5
 21
508
  0
LINE
  8
0
 10
7.5
 20
508
 11
7.46057
 21
508.627
  0
LINE
  8
0
 10
7.46057
 20
508.627
 11
7.34291
 21
509.243
  0
LINE
  8
0
 10
7.34291
 20
509.243
 11
7.14888
 21
509.841
  0
LINE
  8
0
 10
7.14888
 20
509.841
 11
6.88153
 21
510.409
  0
LINE
  8
0
 10
6.88153
 20
510.409
 11
6.54507
 21
510.939
  0
LINE
  8
0
 10
6.54507
 20
510.939
 11
6.14484
 21
511.423
  0
LINE
  8
0
 10
6.14484
 20
511.423
 11
5.68712
 21
511.853
  0
LINE
  8
0
 10
5.68712
 20
511.853
 11
5.17912
 21
512.222
  0
LINE
  8
0
 10
5.17912
 20
512.222
 11
4.62889
 21
512.524
  0
LINE
  8
0
 10
4.62889
 20
512.524
 11
4.04507
 21
512.755
  0
LINE
  8
0
 10
4.04507
 20
512.755
 11
3.4369
 21
512.911
  0
LINE
  8
0
 10
3.4369
 20
512.911
 11
2.81395
 21
512.99
  0
LINE
  8
0
 10
2.81395
 20
512.99
 11
-2.81395
 21
512.99
  0
LINE
  8
0
 10
-2.81395
 20
512.99
 11
-3.4369
 21
512.911
  0
LINE
  8
0
 10
-3.4369
 20
512.911
 11
-4.04507
 21
512.755
  0
LINE
  8
0
 10
-4.04507
 20
512.755
 11
-4.62889
 21
512.524
  0
LINE
  8
0
 10
-4.62889
 20
512.524
 11
-5.17912
 21
512.222
  0
LINE
  8
0
 10
-5.17912
 20
512.222
 11
-5.68712
 21
511.853
  0
LINE
  8
0
 10
-5.68712
 20
511.853
 11
-6.14484
 21
511.423
  0
LINE
  8
0
 10
-6.14484
 20
511.423
 11
-6.54507
 21
510.939
  0
LINE
  8
0
 10
-6.54507
 20
510.939
 11
-6.88153
 21
510.409
  0
LINE
  8
0
 10
-6.88153
 20
510.409
 11
-7.14888
 21
509.841
  0
LINE
  8
0
 10
-7.14888
 20
509.841
 11
-7.34291
 21
509.243
  0
LINE
  8
0
 10
-7.34291
 20
509.243
 11
-7.46057
 21
508.627
  0
LINE
  8
0
 10
-7.46057
 20
508.627
 11
-7.5
 21
508
  0
LINE
  8
0
 10
-7.5
 20
508
 11
-7.5
 21
458
  0
LINE
  8
0
 10
-7.5
 20
458
 11
-7.46057
 21
457.373
  0
LINE
  8
0
 10
-7.46057
 20
457.373
 11
-7.34291
 21
456.757
  0
LINE
  8
0
 10
-7.34291
 20
456.757
 11
-7.14888
 21
456.159
  0
LINE
  8
0
 10
-7.14888
 20
456.159
 11
-6.88153
 21
455.591
  0
LINE
  8
0
 10
-6.88153
 20
455.591
 11
-6.54507
 21
455.061
  0
LINE
  8
0
 10
-6.54507
 20
455.061
 11
-6.14484
 21
454.577
  0
LINE
  8
0
 10
-6.14484
 20
454.577
 11
-5.68712
 21
454.147
  0
LINE
  8
0
 10
-5.68712
 20
454.147
 11
-5.17912
 21
453.778
  0
LINE
  8
0
 10
-5.17912
 20
453.778
 11
-4.62889
 21
453.476
  0
LINE
  8
0
 10
-4.62889
 20
453.476
 11
-4.04507
 21
453.245
  0
LINE
  8
0
 10
-4.04507
 20
453.245
 11
-3.4369
 21
453.089
  0
LINE
  8
0
 10
-3.4369
 20
453.089
 11
-2.81395
 21
453.01
  0
LINE
  8
0
 10
-2.81395
 20
453.01
 11
2.81395
 21
453.01
  0
LINE
  8
0
 10
2.81395
 20
453.01
 11
3.4369
 21
453.089
  0
LINE
  8
0
 10
-2.25116
 20
454.508
 11
-2.74951
 21
454.571
  0
LINE
  8
0
 10
-2.74951
 20
454.571
 11
-3.23605
 21
454.696
  0
LINE
  8
0
 10
-3.23605
 20
454.696
 11
-3.70311
 21
454.881
  0
LINE
  8
0
 10
-3.70311
 20
454.881
 11
-4.1433
 21
455.123
  0
LINE
  8
0
 10
-4.1433
 20
455.123
 11
-4.54968
 21
455.418
  0
LINE
  8
0
 10
-4.54968
 20
455.418
 11
-4.91586
 21
455.762
  0
LINE
  8
0
 10
-4.91586
 20
455.762
 11
-5.23605
 21
456.149
  0
LINE
  8
0
 10
-5.23605
 20
456.149
 11
-5.50522
 21
456.573
  0
LINE
  8
0
 10
-5.50522
 20
456.573
 11
-5.7191
 21
457.028
  0
LINE
  8
0
 10
-5.7191
 20
457.028
 11
-5.87433
 21
457.505
  0
LINE
  8
0
 10
-5.87433
 20
457.505
 11
-5.96844
 21
457.999
  0
LINE
  8
0
 10
-5.96844
 20
457.999
 11
-6
 21
458.5
  0
LINE
  8
0
 10
-6
 20
458.5
 11
-6
 21
507.5
  0
LINE
  8
0
 10
-6
 20
507.5
 11
-5.96844
 21
508.001
  0
LINE
  8
0
 10
-5.96844
 20
508.001
 11
-5.87433
 21
508.495
  0
LINE
  8
0
 10
-5.87433
 20
508.495
 11
-5.7191
 21
508.972
  0
LINE
  8
0
 10
-5.7191
 20
508.972
 11
-5.50522
 21
509.427
  0
LINE
  8
0
 10
-5.50522
 20
509.427
 11
-5.23605
 21
509.851
  0
LINE
  8
0
 10
-5.23605
 20
509.851
 11
-4.91586
 21
510.238
  0
LINE
  8
0
 10
-4.91586
 20
510.238
 11
-4.54968
 21
510.582
  0
LINE
  8
0
 10
-4.54968
 20
510.582
 11
-4.1433
 21
510.877
  0
LINE
  8
0
 10
-4.1433
 20
510.877
 11
-3.70311
 21
511.119
  0
LINE
  8
0
 10
-3.70311
 20
511.119
 11
-3.23605
 21
511.304
  0
LINE
  8
0
 10
-3.23605
 20
511.304
 11
-2.74951
 21
511.429
  0
LINE
  8
0
 10
-2.74951
 20
511.429
 11
-2.25116
 21
511.492
  0
LINE
  8
0
 10
-2.25116
 20
511.492
 11
2.25116
 21
511.492
  0
LINE
  8
0
 10
2.25116
 20
511.492
 11
2.74951
 21
511.429
  0
LINE
  8
0
 10
2.74951
 20
511.429
 11
3.23605
 21
511.304
  0
LINE
  8
0
 10
3.23605
 20
511.304
 11
3.70311
 21
511.119
  0
LINE
  8
0
 10
3.70311
 20
511.119
 11
4.1433
 21
510.877
  0
LINE
  8
0
 10
4.1433
 20
510.877
 11
4.54968
 21
510.582
  0
LINE
  8
0
 10
4.54968
 20
510.582
 11
4.91586
 21
510.238
  0
LINE
  8
0
 10
4.91586
 20
510.238
 11
5.23605
 21
509.851
  0
LINE
  8
0
 10
5.23605
 20
509.851
 11
5.50522
 21
509.427
  0
LINE
  8
0
 10
5.50522
 20
509.427
 11
5.7191
 21
508.972
  0
LINE
  8
0
 10
5.7191
 20
508.972
 11
5.87433
 21
508.495
  0
LINE
  8
0
 10
5.87433
 20
508.495
 11
5.96844
 21
508.001
  0
LINE
  8
0
 10
5.96844
 20
508.001
 11
6
 21
507.5
  0
LINE
  8
0
 10
6
 20
507.5
 11
6
 21
458.5
  0
LINE
  8
0
 10
6
 20
458.5
 11
5.96844
 21
457.999
  0
LINE
  8
0
 10
5.96844
 20
457.999
 11
5.87433
 21
457.505
  0
LINE
  8
0
 10
5.87433
 20
457.505
 11
5.7191
 21
457.028
  0
LINE
  8
0
 10
5.7191
 20
457.028
 11
5.50522
 21
456.573
  0
LINE
  8
0
 10
5.50522
 20
456.573
 11
5.23605
 21
456.149
  0
LINE
  8
0
 10
5.23605
 20
456.149
 11
4.91586
 21
455.762
  0
LINE
  8
0
 10
4.91586
 20
455.762
 11
4.54968
 21
455.418
  0
LINE
  8
0
 10
4.54968
 20
455.418
 11
4.1433
 21
455.123
  0
LINE
  8
0
 10
4.1433
 20
455.123
 11
3.70311
 21
454.881
  0
LINE
  8
0
 10
3.70311
 20
454.881
 11
3.23605
 21
454.696
  0
LINE
  8
0
 10
3.23605
 20
454.696
 11
2.74951
 21
454.571
  0
LINE
  8
0
 10
2.74951
 20
454.571
 11
2.25116
 21
454.508
  0
LINE
  8
0
 10
2.25116
 20
454.508
 11
-2.25116
 21
454.508
  0
LINE
  8
0
 10
3.4369
 20
384.089
 11
4.04507
 21
384.245
  0
LINE
  8
0
 10
4.04507
 20
384.245
 11
4.62889
 21
384.476
  0
LINE
  8
0
 10
4.62889
 20
384.476
 11
5.17912
 21
384.778
  0
LINE
  8
0
 10
5.17912
 20
384.778
 11
5.68712
 21
385.147
  0
LINE
  8
0
 10
5.68712
 20
385.147
 11
6.14484
 21
385.577
  0
LINE
  8
0
 10
6.14484
 20
385.577
 11
6.54507
 21
386.061
  0
LINE
  8
0
 10
6.54507
 20
386.061
 11
6.88153
 21
386.591
  0
LINE
  8
0
 10
6.88153
 20
386.591
 11
7.14888
 21
387.159
  0
LINE
  8
0
 10
7.14888
 20
387.159
 11
7.34291
 21
387.757
  0
LINE
  8
0
 10
7.34291
 20
387.757
 11
7.46057
 21
388.373
  0
LINE
  8
0
 10
7.46057
 20
388.373
 11
7.5
 21
389
  0
LINE
  8
0
 10
7.5
 20
389
 11
7.5
 21
439
  0
LINE
  8
0
 10
7.5
 20
439
 11
7.46057
 21
439.627
  0
LINE
  8
0
 10
7.46057
 20
439.627
 11
7.34291
 21
440.243
  0
LINE
  8
0
 10
7.34291
 20
440.243
 11
7.14888
 21
440.841
  0
LINE
  8
0
 10
7.14888
 20
440.841
 11
6.88153
 21
441.409
  0
LINE
  8
0
 10
6.88153
 20
441.409
 11
6.54507
 21
441.939
  0
LINE
  8
0
 10
6.54507
 20
441.939
 11
6.14484
 21
442.423
  0
LINE
  8
0
 10
6.14484
 20
442.423
 11
5.68712
 21
442.853
  0
LINE
  8
0
 10
5.68712
 20
442.853
 11
5.17912
 21
443.222
  0
LINE
  8
0
 10
5.17912
 20
443.222
 11
4.62889
 21
443.524
  0
LINE
  8
0
 10
4.62889
 20
443.524
 11
4.04507
 21
443.755
  0
LINE
  8
0
 10
4.04507
 20
443.755
 11
3.4369
 21
443.911
  0
LINE
  8
0
 10
3.4369
 20
443.911
 11
2.81395
 21
443.99
  0
LINE
  8
0
 10
2.81395
 20
443.99
 11
-2.81395
 21
443.99
  0
LINE
  8
0
 10
-2.81395
 20
443.99
 11
-3.4369
 21
443.911
  0
LINE
  8
0
 10
-3.4369
 20
443.911
 11
-4.04507
 21
443.755
  0
LINE
  8
0
 10
-4.04507
 20
443.755
 11
-4.62889
 21
443.524
  0
LINE
  8
0
 10
-4.62889
 20
443.524
 11
-5.17912
 21
443.222
  0
LINE
  8
0
 10
-5.17912
 20
443.222
 11
-5.68712
 21
442.853
  0
LINE
  8
0
 10
-5.68712
 20
442.853
 11
-6.14484
 21
442.423
  0
LINE
  8
0
 10
-6.14484
 20
442.423
 11
-6.54507
 21
441.939
  0
LINE
  8
0
 10
-6.54507
 20
441.939
 11
-6.88153
 21
441.409
  0
LINE
  8
0
 10
-6.88153
 20
441.409
 11
-7.14888
 21
440.841
  0
LINE
  8
0
 10
-7.14888
 20
440.841
 11
-7.34291
 21
440.243
  0
LINE
  8
0
 10
-7.34291
 20
440.243
 11
-7.46057
 21
439.627
  0
LINE
  8
0
 10
-7.46057
 20
439.627
 11
-7.5
 21
439
  0
LINE
  8
0
 10
-7.5
 20
439
 11
-7.5
 21
389
  0
LINE
  8
0
 10
-7.5
 20
389
 11
-7.46057
 21
388.373
  0
LINE
  8
0
 10
-7.46057
 20
388.373
 11
-7.34291
 21
387.757
  0
LINE
  8
0
 10
-7.34291
 20
387.757
 11
-7.14888
 21
387.159
  0
LINE
  8
0
 10
-7.14888
 20
387.159
 11
-6.88153
 21
386.591
  0
LINE
  8
0
 10
-6.88153
 20
386.591
 11
-6.54507
 21
386.061
  0
LINE
  8
0
 10
-6.54507
 20
386.061
 11
-6.14484
 21
385.577
  0
LINE
  8
0
 10
-6.14484
 20
385.577
 11
-5.68712
 21
385.147
  0
LINE
  8
0
 10
-5.68712
 20
385.147
 11
-5.17912
 21
384.778
  0
LINE
  8
0
 10
-5.17912
 20
384.778
 11
-4.62889
 21
384.476
  0
LINE
  8
0
 10
-4.62889
 20
384.476
 11
-4.04507
 21
384.245
  0
LINE
  8
0
 10
-4.04507
 20
384.245
 11
-3.4369
 21
384.089
  0
LINE
  8
0
 10
-3.4369
 20
384.089
 11
-2.81395
 21
384.01
  0
LINE
  8
0
 10
-2.81395
 20
384.01
 11
2.81395
 21
384.01
  0
LINE
  8
0
 10
2.81395
 20
384.01
 11
3.4369
 21
384.089
  0
LINE
  8
0
 10
-2.19545
 20
386.393
 11
-2.5833
 21
386.442
  0
LINE
  8
0
 10
-2.5833
 20
386.442
 11
-2.96194
 21
386.539
  0
LINE
  8
0
 10
-2.96194
 20
386.539
 11
-3.32541
 21
386.683
  0
LINE
  8
0
 10
-3.32541
 20
386.683
 11
-3.66798
 21
386.872
  0
LINE
  8
0
 10
-3.66798
 20
386.872
 11
-3.98424
 21
387.101
  0
LINE
  8
0
 10
-3.98424
 20
387.101
 11
-4.26921
 21
387.369
  0
LINE
  8
0
 10
-4.26921
 20
387.369
 11
-4.5184
 21
387.67
  0
LINE
  8
0
 10
-4.5184
 20
387.67
 11
-4.72786
 21
388
  0
LINE
  8
0
 10
-4.72786
 20
388
 11
-4.89432
 21
388.354
  0
LINE
  8
0
 10
-4.89432
 20
388.354
 11
-5.01512
 21
388.726
  0
LINE
  8
0
 10
-5.01512
 20
388.726
 11
-5.08836
 21
389.11
  0
LINE
  8
0
 10
-5.08836
 20
389.11
 11
-5.11292
 21
389.5
  0
LINE
  8
0
 10
-5.11292
 20
389.5
 11
-5.11292
 21
438.5
  0
LINE
  8
0
 10
-5.11292
 20
438.5
 11
-5.08836
 21
438.89
  0
LINE
  8
0
 10
-5.08836
 20
438.89
 11
-5.01512
 21
439.274
  0
LINE
  8
0
 10
-5.01512
 20
439.274
 11
-4.89432
 21
439.646
  0
LINE
  8
0
 10
-4.89432
 20
439.646
 11
-4.72786
 21
440
  0
LINE
  8
0
 10
-4.72786
 20
440
 11
-4.5184
 21
440.33
  0
LINE
  8
0
 10
-4.5184
 20
440.33
 11
-4.26921
 21
440.631
  0
LINE
  8
0
 10
-4.26921
 20
440.631
 11
-3.98424
 21
440.899
  0
LINE
  8
0
 10
-3.98424
 20
440.899
 11
-3.66798
 21
441.128
  0
LINE
  8
0
 10
-3.66798
 20
441.128
 11
-3.32541
 21
441.317
  0
LINE
  8
0
 10
-3.32541
 20
441.317
 11
-2.96194
 21
441.461
  0
LINE
  8
0
 10
-2.96194
 20
441.461
 11
-2.5833
 21
441.558
  0
LINE
  8
0
 10
-2.5833
 20
441.558
 11
-2.19545
 21
441.607
  0
LINE
  8
0
 10
-2.19545
 20
441.607
 11
2.19545
 21
441.607
  0
LINE
  8
0
 10
2.19545
 20
441.607
 11
2.5833
 21
441.558
  0
LINE
  8
0
 10
2.5833
 20
441.558
 11
2.96194
 21
441.461
  0
LINE
  8
0
 10
2.96194
 20
441.461
 11
3.32541
 21
441.317
  0
LINE
  8
0
 10
3.32541
 20
441.317
 11
3.66798
 21
441.128
  0
LINE
  8
0
 10
3.66798
 20
441.128
 11
3.98424
 21
440.899
  0
LINE
  8
0
 10
3.98424
 20
440.899
 11
4.26921
 21
440.631
  0
LINE
  8
0
 10
4.26921
 20
440.631
 11
4.5184
 21
440.33
  0
LINE
  8
0
 10
4.5184
 20
440.33
 11
4.72786
 21
440
  0
LINE
  8
0
 10
4.72786
 20
440
 11
4.89432
 21
439.646
  0
LINE
  8
0
 10
4.89432
 20
439.646
 11
5.01512
 21
439.274
  0
LINE
  8
0
 10
5.01512
 20
439.274
 11
5.08836
 21
438.89
  0
LINE
  8
0
 10
5.08836
 20
438.89
 11
5.11292
 21
438.5
  0
LINE
  8
0
 10
5.11292
 20
438.5
 11
5.11292
 21
389.5
  0
LINE
  8
0
 10
5.11292
 20
389.5
 11
5.08836
 21
389.11
  0
LINE
  8
0
 10
5.08836
 20
389.11
 11
5.01512
 21
388.726
  0
LINE
  8
0
 10
5.01512
 20
388.726
 11
4.89432
 21
388.354
  0
LINE
  8
0
 10
4.89432
 20
388.354
 11
4.72786
 21
388
  0
LINE
  8
0
 10
4.72786
 20
388
 11
4.5184
 21
387.67
  0
LINE
  8
0
 10
4.5184
 20
387.67
 11
4.26921
 21
387.369
  0
LINE
  8
0
 10
4.26921
 20
387.369
 11
3.98424
 21
387.101
  0
LINE
  8
0
 10
3.98424
 20
387.101
 11
3.66798
 21
386.872
  0
LINE
  8
0
 10
3.66798
 20
386.872
 11
3.32541
 21
386.683
  0
LINE
  8
0
 10
3.32541
 20
386.683
 11
2.96194
 21
386.539
  0
LINE
  8
0
 10
2.96194
 20
386.539
 11
2.5833
 21
386.442
  0
LINE
  8
0
 10
2.5833
 20
386.442
 11
2.19545
 21
386.393
  0
LINE
  8
0
 10
2.19545
 20
386.393
 11
-2.19545
 21
386.393
  0
LINE
  8
0
 10
3.4369
 20
315.089
 11
4.04507
 21
315.245
  0
LINE
  8
0
 10
4.04507
 20
315.245
 11
4.62889
 21
315.476
  0
LINE
  8
0
 10
4.62889
 20
315.476
 11
5.17912
 21
315.778
  0
LINE
  8
0
 10
5.17912
 20
315.778
 11
5.68712
 21
316.147
  0
LINE
  8
0
 10
5.68712
 20
316.147
 11
6.14484
 21
316.577
  0
LINE
  8
0
 10
6.14484
 20
316.577
 11
6.54507
 21
317.061
  0
LINE
  8
0
 10
6.54507
 20
317.061
 11
6.88153
 21
317.591
  0
LINE
  8
0
 10
6.88153
 20
317.591
 11
7.14888
 21
318.159
  0
LINE
  8
0
 10
7.14888
 20
318.159
 11
7.34291
 21
318.757
  0
LINE
  8
0
 10
7.34291
 20
318.757
 11
7.46057
 21
319.373
  0
LINE
  8
0
 10
7.46057
 20
319.373
 11
7.5
 21
320
  0
LINE
  8
0
 10
7.5
 20
320
 11
7.5
 21
370
  0
LINE
  8
0
 10
7.5
 20
370
 11
7.46057
 21
370.627
  0
LINE
  8
0
 10
7.46057
 20
370.627
 11
7.34291
 21
371.243
  0
LINE
  8
0
 10
7.34291
 20
371.243
 11
7.14888
 21
371.841
  0
LINE
  8
0
 10
7.14888
 20
371.841
 11
6.88153
 21
372.409
  0
LINE
  8
0
 10
6.88153
 20
372.409
 11
6.54507
 21
372.939
  0
LINE
  8
0
 10
6.54507
 20
372.939
 11
6.14484
 21
373.423
  0
LINE
  8
0
 10
6.14484
 20
373.423
 11
5.68712
 21
373.853
  0
LINE
  8
0
 10
5.68712
 20
373.853
 11
5.17912
 21
374.222
  0
LINE
  8
0
 10
5.17912
 20
374.222
 11
4.62889
 21
374.524
  0
LINE
  8
0
 10
4.62889
 20
374.524
 11
4.04507
 21
374.755
  0
LINE
  8
0
 10
4.04507
 20
374.755
 11
3.4369
 21
374.911
  0
LINE
  8
0
 10
3.4369
 20
374.911
 11
2.81395
 21
374.99
  0
LINE
  8
0
 10
2.81395
 20
374.99
 11
-2.81395
 21
374.99
  0
LINE
  8
0
 10
-2.81395
 20
374.99
 11
-3.4369
 21
374.911
  0
LINE
  8
0
 10
-3.4369
 20
374.911
 11
-4.04507
 21
374.755
  0
LINE
  8
0
 10
-4.04507
 20
374.755
 11
-4.62889
 21
374.524
  0
LINE
  8
0
 10
-4.62889
 20
374.524
 11
-5.17912
 21
374.222
  0
LINE
  8
0
 10
-5.17912
 20
374.222
 11
-5.68712
 21
373.853
  0
LINE
  8
0
 10
-5.68712
 20
373.853
 11
-6.14484
 21
373.423
  0
LINE
  8
0
 10
-6.14484
 20
373.423
 11
-6.54507
 21
372.939
  0
LINE
  8
0
 10
-6.54507
 20
372.939
 11
-6.88153
 21
372.409
  0
LINE
  8
0
 10
-6.88153
 20
372.409
 11
-7.14888
 21
371.841
  0
LINE
  8
0
 10
-7.14888
 20
371.841
 11
-7.34291
 21
371.243
  0
LINE
  8
0
 10
-7.34291
 20
371.243
 11
-7.46057
 21
370.627
  0
LINE
  8
0
 10
-7.46057
 20
370.627
 11
-7.5
 21
370
  0
LINE
  8
0
 10
-7.5
 20
370
 11
-7.5
 21
320
  0
LINE
  8
0
 10
-7.5
 20
320
 11
-7.46057
 21
319.373
  0
LINE
  8
0
 10
-7.46057
 20
319.373
 11
-7.34291
 21
318.757
  0
LINE
  8
0
 10
-7.34291
 20
318.757
 11
-7.14888
 21
318.159
  0
LINE
  8
0
 10
-7.14888
 20
318.159
 11
-6.88153
 21
317.591
  0
LINE
  8
0
 10
-6.88153
 20
317.591
 11
-6.54507
 21
317.061
  0
LINE
  8
0
 10
-6.54507
 20
317.061
 11
-6.14484
 21
316.577
  0
LINE
  8
0
 10
-6.14484
 20
316.577
 11
-5.68712
 21
316.147
  0
LINE
  8
0
 10
-5.68712
 20
316.147
 11
-5.17912
 21
315.778
  0
LINE
  8
0
 10
-5.17912
 20
315.778
 11
-4.62889
 21
315.476
  0
LINE
  8
0
 10
-4.62889
 20
315.476
 11
-4.04507
 21
315.245
  0
LINE
  8
0
 10
-4.04507
 20
315.245
 11
-3.4369
 21
315.089
  0
LINE
  8
0
 10
-3.4369
 20
315.089
 11
-2.81395
 21
315.01
  0
LINE
  8
0
 10
-2.81395
 20
315.01
 11
2.81395
 21
315.01
  0
LINE
  8
0
 10
2.81395
 20
315.01
 11
3.4369
 21
315.089
  0
LINE
  8
0
 10
-0.134064
 20
365.369
 11
-0.400101
 21
365.403
  0
LINE
  8
0
 10
-0.400101
 20
365.403
 11
-0.659836
 21
365.469
  0
LINE
  8
0
 10
-0.659836
 20
365.469
 11
-0.909149
 21
365.568
  0
LINE
  8
0
 10
-0.909149
 20
365.568
 11
-1.14413
 21
365.697
  0
LINE
  8
0
 10
-1.14413
 20
365.697
 11
-1.36108
 21
365.855
  0
LINE
  8
0
 10
-1.36108
 20
365.855
 11
-1.55655
 21
366.038
  0
LINE
  8
0
 10
-1.55655
 20
366.038
 11
-1.72748
 21
366.245
  0
LINE
  8
0
 10
-1.72748
 20
366.245
 11
-1.87117
 21
366.471
  0
LINE
  8
0
 10
-1.87117
 20
366.471
 11
-1.98534
 21
366.714
  0
LINE
  8
0
 10
-1.98534
 20
366.714
 11
-2.06821
 21
366.969
  0
LINE
  8
0
 10
-2.06821
 20
366.969
 11
-2.11845
 21
367.232
  0
LINE
  8
0
 10
-2.11845
 20
367.232
 11
-2.13528
 21
367.5
  0
LINE
  8
0
 10
-2.13528
 20
367.5
 11
-2.11845
 21
367.768
  0
LINE
  8
0
 10
-2.11845
 20
367.768
 11
-2.06821
 21
368.031
  0
LINE
  8
0
 10
-2.06821
 20
368.031
 11
-1.98534
 21
368.286
  0
LINE
  8
0
 10
-1.98534
 20
368.286
 11
-1.87117
 21
368.529
  0
LINE
  8
0
 10
-1.87117
 20
368.529
 11
-1.72748
 21
368.755
  0
LINE
  8
0
 10
-1.72748
 20
368.755
 11
-1.55655
 21
368.962
  0
LINE
  8
0
 10
-1.55655
 20
368.962
 11
-1.36108
 21
369.145
  0
LINE
  8
0
 10
-1.36108
 20
369.145
 11
-1.14413
 21
369.303
  0
LINE
  8
0
 10
-1.14413
 20
369.303
 11
-0.909149
 21
369.432
  0
LINE
  8
0
 10
-0.909149
 20
369.432
 11
-0.659836
 21
369.531
  0
LINE
  8
0
 10
-0.659836
 20
369.531
 11
-0.400101
 21
369.597
  0
LINE
  8
0
 10
-0.400101
 20
369.597
 11
-0.134064
 21
369.631
  0
LINE
  8
0
 10
-0.134064
 20
369.631
 11
0.134064
 21
369.631
  0
LINE
  8
0
 10
0.134064
 20
369.631
 11
0.400101
 21
369.597
  0
LINE
  8
0
 10
0.400101
 20
369.597
 11
0.659836
 21
369.531
  0
LINE
  8
0
 10
0.659836
 20
369.531
 11
0.909149
 21
369.432
  0
LINE
  8
0
 10
0.909149
 20
369.432
 11
1.14413
 21
369.303
  0
LINE
  8
0
 10
1.14413
 20
369.303
 11
1.36108
 21
369.145
  0
LINE
  8
0
 10
1.36108
 20
369.145
 11
1.55655
 21
368.962
  0
LINE
  8
0
 10
1.55655
 20
368.962
 11
1.72748
 21
368.755
  0
LINE
  8
0
 10
1.72748
 20
368.755
 11
1.87117
 21
368.529
  0
LINE
  8
0
 10
1.87117
 20
368.529
 11
1.98534
 21
368.286
  0
LINE
  8
0
 10
1.98534
 20
368.286
 11
2.06821
 21
368.031
  0
LINE
  8
0
 10
2.06821
 20
368.031
 11
2.11845
 21
367.768
  0
LINE
  8
0
 10
2.11845
 20
367.768
 11
2.13528
 21
367.5
  0
LINE
  8
0
 10
2.13528
 20
367.5
 11
2.11845
 21
367.232
  0
LINE
  8
0
 10
2.11845
 20
367.232
 11
2.06821
 21
366.969
  0
LINE
  8
0
 10
2.06821
 20
366.969
 11
1.98534
 21
366.714
  0
LINE
  8
0
 10
1.98534
 20
366.714
 11
1.87117
 21
366.471
  0
LINE
  8
0
 10
1.87117
 20
366.471
 11
1.72748
 21
366.245
  0
LINE
  8
0
 10
1.72748
 20
366.245
 11
1.55655
 21
366.038
  0
LINE
  8
0
 10
1.55655
 20
366.038
 11
1.36108
 21
365.855
  0
LINE
  8
0
 10
1.36108
 20
365.855
 11
1.14413
 21
365.697
  0
LINE
  8
0
 10
1.14413
 20
365.697
 11
0.909149
 21
365.568
  0
LINE
  8
0
 10
0.909149
 20
365.568
 11
0.659836
 21
365.469
  0
LINE
  8
0
 10
0.659836
 20
365.469
 11
0.400101
 21
365.403
  0
LINE
  8
0
 10
0.400101
 20
365.403
 11
0.134064
 21
365.369
  0
LINE
  8
0
 10
0.134064
 20
365.369
 11
-0.134064
 21
365.369
  0
LINE
  8
0
 10
-0.134064
 20
320.369
 11
-0.400101
 21
320.403
  0
LINE
  8
0
 10
-0.400101
 20
320.403
 11
-0.659836
 21
320.469
  0
LINE
  8
0
 10
-0.659836
 20
320.469
 11
-0.909149
 21
320.568
  0
LINE
  8
0
 10
-0.909149
 20
320.568
 11
-1.14413
 21
320.697
  0
LINE
  8
0
 10
-1.14413
 20
320.697
 11
-1.36108
 21
320.855
  0
LINE
  8
0
 10
-1.36108
 20
320.855
 11
-1.55655
 21
321.038
  0
LINE
  8
0
 10
-1.55655
 20
321.038
 11
-1.72748
 21
321.245
  0
LINE
  8
0
 10
-1.72748
 20
321.245
 11
-1.87117
 21
321.471
  0
LINE
  8
0
 10
-1.87117
 20
321.471
 11
-1.98534
 21
321.714
  0
LINE
  8
0
 10
-1.98534
 20
321.714
 11
-2.06821
 21
321.969
  0
LINE
  8
0
 10
-2.06821
 20
321.969
 11
-2.11845
 21
322.232
  0
LINE
  8
0
 10
-2.11845
 20
322.232
 11
-2.13528
 21
322.5
  0
LINE
  8
0
 10
-2.13528
 20
322.5
 11
-2.11845
 21
322.768
  0
LINE
  8
0
 10
-2.11845
 20
322.768
 11
-2.06821
 21
323.031
  0
LINE
  8
0
 10
-2.06821
 20
323.031
 11
-1.98534
 21
323.286
  0
LINE
  8
0
 10
-1.98534
 20
323.286
 11
-1.87117
 21
323.529
  0
LINE
  8
0
 10
-1.87117
 20
323.529
 11
-1.72748
 21
323.755
  0
LINE
  8
0
 10
-1.72748
 20
323.755
 11
-1.55655
 21
323.962
  0
LINE
  8
0
 10
-1.55655
 20
323.962
 11
-1.36108
 21
324.145
  0
LINE
  8
0
 10
-1.36108
 20
324.145
 11
-1.14413
 21
324.303
  0
LINE
  8
0
 10
-1.14413
 20
324.303
 11
-0.909149
 21
324.432
  0
LINE
  8
0
 10
-0.909149
 20
324.432
 11
-0.659836
 21
324.531
  0
LINE
  8
0
 10
-0.659836
 20
324.531
 11
-0.400101
 21
324.597
  0
LINE
  8
0
 10
-0.400101
 20
324.597
 11
-0.134064
 21
324.631
  0
LINE
  8
0
 10
-0.134064
 20
324.631
 11
0.134064
 21
324.631
  0
LINE
  8
0
 10
0.134064
 20
324.631
 11
0.400101
 21
324.597
  0
LINE
  8
0
 10
0.400101
 20
324.597
 11
0.659836
 21
324.531
  0
LINE
  8
0
 10
0.659836
 20
324.531
 11
0.909149
 21
324.432
  0
LINE
  8
0
 10
0.909149
 20
324.432
 11
1.14413
 21
324.303
  0
LINE
  8
0
 10
1.14413
 20
324.303
 11
1.36108
 21
324.145
  0
LINE
  8
0
 10
1.36108
 20
324.145
 11
1.55655
 21
323.962
  0
LINE
  8
0
 10
1.55655
 20
323.962
 11
1.72748
 21
323.755
  0
LINE
  8
0
 10
1.72748
 20
323.755
 11
1.87117
 21
323.529
  0
LINE
  8
0
 10
1.87117
 20
323.529
 11
1.98534
 21
323.286
  0
LINE
  8
0
 10
1.98534
 20
323.286
 11
2.06821
 21
323.031
  0
LINE
  8
0
 10
2.06821
 20
323.031
 11
2.11845
 21
322.768
  0
LINE
  8
0
 10
2.11845
 20
322.768
 11
2.13528
 21
322.5
  0
LINE
  8
0
 10
2.13528
 20
322.5
 11
2.11845
 21
322.232
  0
LINE
  8
0
 10
2.11845
 20
322.232
 11
2.06821
 21
321.969
  0
LINE
  8
0
 10
2.06821
 20
321.969
 11
1.98534
 21
321.714
  0
LINE
  8
0
 10
1.98534
 20
321.714
 11
1.87117
 21
321.471
  0
LINE
  8
0
 10
1.87117
 20
321.471
 11
1.72748
 21
321.245
  0
LINE
  8
0
 10
1.72748
 20
321.245
 11
1.55655
 21
321.038
  0
LINE
  8
0
 10
1.55655
 20
321.038
 11
1.36108
 21
320.855
  0
LINE
  8
0
 10
1.36108
 20
320.855
 11
1.14413
 21
320.697
  0
LINE
  8
0
 10
1.14413
 20
320.697
 11
0.909149
 21
320.568
  0
LINE
  8
0
 10
0.909149
 20
320.568
 11
0.659836
 21
320.469
  0
LINE
  8
0
 10
0.659836
 20
320.469
 11
0.400101
 21
320.403
  0
LINE
  8
0
 10
0.400101
 20
320.403
 11
0.134064
 21
320.369
  0
LINE
  8
0
 10
0.134064
 20
320.369
 11
-0.134064
 21
320.369
  0
ENDSEC
  0
SECTION
  2
OBJECTS
  0
DICTIONARY
  0
ENDSEC
  0
EOF
