<?xml version="1.0" standalone="no"?>
<!DOCTYPE svg PUBLIC "-//W3C//DTD SVG 1.1//EN" "http://www.w3.org/Graphics/SVG/1.1/DTD/svg11.dtd">
<svg width="180mm" height="154mm" viewBox="-90 -293 180 154" xmlns="http://www.w3.org/2000/svg" version="1.1">
<title>OpenSCAD Model</title>
<path d="
M 85.9369,-247.589 L 86.5451,-247.745 L 87.1289,-247.976 L 87.6791,-248.278 L 88.1871,-248.647 L 88.6448,-249.077
 L 89.0451,-249.561 L 89.3815,-250.091 L 89.6489,-250.659 L 89.8429,-251.257 L 89.9606,-251.873 L 90,-252.5
 L 90,-287.5 L 89.9606,-288.127 L 89.8429,-288.743 L 89.6489,-289.341 L 89.3815,-289.909 L 89.0451,-290.439
 L 88.6448,-290.923 L 88.1871,-291.353 L 87.6791,-291.722 L 87.1289,-292.024 L 86.5451,-292.255 L 85.9369,-292.411
 L 85.3139,-292.49 L -85.3139,-292.49 L -85.9369,-292.411 L -86.5451,-292.255 L -87.1289,-292.024 L -87.6791,-291.722
 L -88.1871,-291.353 L -88.6448,-290.923 L -89.0451,-290.439 L -89.3815,-289.909 L -89.6489,-289.341 L -89.8429,-288.743
 L -89.9606,-288.127 L -90,-287.5 L -90,-252.5 L -89.9606,-251.873 L -89.8429,-251.257 L -89.6489,-250.659
 L -89.3815,-250.091 L -89.0451,-249.561 L -88.6448,-249.077 L -88.1871,-248.647 L -87.6791,-248.278 L -87.1289,-247.976
 L -86.5451,-247.745 L -85.9369,-247.589 L -85.3139,-247.51 L 85.3139,-247.51 z
M -85.0482,-248.009 L -85.6401,-248.084 L -86.2178,-248.232 L -86.7724,-248.452 L -87.2952,-248.739 L -87.7778,-249.09
 L -88.2126,-249.498 L -88.5928,-249.958 L -88.9125,-250.462 L -89.1664,-251.001 L -89.3508,-251.569 L -89.4625,-252.155
 L -89.5,-252.75 L -89.5,-287.25 L -89.4625,-287.845 L -89.3508,-288.431 L -89.1664,-288.999 L -88.9125,-289.538
 L -88.5928,-290.042 L -88.2126,-290.502 L -87.7778,-290.91 L -87.2952,-291.261 L -86.7724,-291.548 L -86.2178,-291.768
 L -85.6401,-291.916 L -85.0482,-291.991 L 85.0482,-291.991 L 85.6401,-291.916 L 86.2178,-291.768 L 86.7724,-291.548
 L 87.2952,-291.261 L 87.7778,-290.91 L 88.2126,-290.502 L 88.5928,-290.042 L 88.9125,-289.538 L 89.1664,-288.999
 L 89.3508,-288.431 L 89.4625,-287.845 L 89.5,-287.25 L 89.5,-252.75 L 89.4625,-252.155 L 89.3508,-251.569
 L 89.1664,-251.001 L 88.9125,-250.462 L 88.5928,-249.958 L 88.2126,-249.498 L 87.7778,-249.09 L 87.2952,-248.739
 L 86.7724,-248.452 L 86.2178,-248.232 L 85.6401,-248.084 L 85.0482,-248.009 z
M 85.9369,-193.589 L 86.5451,-193.745 L 87.1289,-193.976 L 87.6791,-194.278 L 88.1871,-194.647 L 88.6448,-195.077
 L 89.0451,-195.561 L 89.3815,-196.091 L 89.6489,-196.659 L 89.8429,-197.257 L 89.9606,-197.873 L 90,-198.5
 L 90,-233.5 L 89.9606,-234.127 L 89.8429,-234.743 L 89.6489,-235.341 L 89.3815,-235.909 L 89.0451,-236.439
 L 88.6448,-236.923 L 88.1871,-237.353 L 87.6791,-237.722 L 87.1289,-238.024 L 86.5451,-238.255 L 85.9369,-238.411
 L 85.3139,-238.49 L -85.3139,-238.49 L -85.9369,-238.411 L -86.5451,-238.255 L -87.1289,-238.024 L -87.6791,-237.722
 L -88.1871,-237.353 L -88.6448,-236.923 L -89.0451,-236.439 L -89.3815,-235.909 L -89.6489,-235.341 L -89.8429,-234.743
 L -89.9606,-234.127 L -90,-233.5 L -90,-198.5 L -89.9606,-197.873 L -89.8429,-197.257 L -89.6489,-196.659
 L -89.3815,-196.091 L -89.0451,-195.561 L -88.6448,-195.077 L -88.1871,-194.647 L -87.6791,-194.278 L -87.1289,-193.976
 L -86.5451,-193.745 L -85.9369,-193.589 L -85.3139,-193.51 L 85.3139,-193.51 z
M -85.0375,-194.181 L -85.6079,-194.253 L -86.1648,-194.396 L -86.6994,-194.607 L -87.2032,-194.884 L -87.6684,-195.222
 L -88.0875,-195.616 L -88.454,-196.059 L -88.7621,-196.544 L -89.0069,-197.065 L -89.1846,-197.611 L -89.2923,-198.176
 L -89.3284,-198.75 L -89.3284,-233.25 L -89.2923,-233.824 L -89.1846,-234.389 L -89.0069,-234.935 L -88.7621,-235.456
 L -88.454,-235.941 L -88.0875,-236.384 L -87.6684,-236.778 L -87.2032,-237.116 L -86.6994,-237.393 L -86.1648,-237.604
 L -85.6079,-237.747 L -85.0375,-237.819 L 85.0375,-237.819 L 85.6079,-237.747 L 86.1648,-237.604 L 86.6994,-237.393
 L 87.2032,-237.116 L 87.6684,-236.778 L 88.0875,-236.384 L 88.454,-235.941 L 88.7621,-235.456 L 89.0069,-234.935
 L 89.1846,-234.389 L 89.2923,-233.824 L 89.3284,-233.25 L 89.3284,-198.75 L 89.2923,-198.176 L 89.1846,-197.611
 L 89.0069,-197.065 L 88.7621,-196.544 L 88.454,-196.059 L 88.0875,-195.616 L 87.6684,-195.222 L 87.2032,-194.884
 L 86.6994,-194.607 L 86.1648,-194.396 L 85.6079,-194.253 L 85.0375,-194.181 z
M 85.9369,-139.589 L 86.5451,-139.745 L 87.1289,-139.976 L 87.6791,-140.278 L 88.1871,-140.647 L 88.6448,-141.077
 L 89.0451,-141.561 L 89.3815,-142.091 L 89.6489,-142.659 L 89.8429,-143.257 L 89.9606,-143.873 L 90,-144.5
 L 90,-179.5 L 89.9606,-180.127 L 89.8429,-180.743 L 89.6489,-181.341 L 89.3815,-181.909 L 89.0451,-182.439
 L 88.6448,-182.923 L 88.1871,-183.353 L 87.6791,-183.722 L 87.1289,-184.024 L 86.5451,-184.255 L 85.9369,-184.411
 L 85.3139,-184.49 L -85.3139,-184.49 L -85.9369,-184.411 L -86.5451,-184.255 L -87.1289,-184.024 L -87.6791,-183.722
 L -88.1871,-183.353 L -88.6448,-182.923 L -89.0451,-182.439 L -89.3815,-181.909 L -89.6489,-181.341 L -89.8429,-180.743
 L -89.9606,-180.127 L -90,-179.5 L -90,-144.5 L -89.9606,-143.873 L -89.8429,-143.257 L -89.6489,-142.659
 L -89.3815,-142.091 L -89.0451,-141.561 L -88.6448,-141.077 L -88.1871,-140.647 L -87.6791,-140.278 L -87.1289,-139.976
 L -86.5451,-139.745 L -85.9369,-139.589 L -85.3139,-139.51 L 85.3139,-139.51 z
M -84.8825,-142.645 L -85.1453,-142.678 L -85.4019,-142.744 L -85.6482,-142.841 L -85.8804,-142.969 L -86.0947,-143.125
 L -86.2879,-143.306 L -86.4567,-143.51 L -86.5987,-143.734 L -86.7115,-143.973 L -86.7934,-144.225 L -86.843,-144.486
 L -86.8596,-144.75 L -86.8596,-179.25 L -86.843,-179.514 L -86.7934,-179.775 L -86.7115,-180.027 L -86.5987,-180.266
 L -86.4567,-180.49 L -86.2879,-180.694 L -86.0947,-180.875 L -85.8804,-181.031 L -85.6482,-181.159 L -85.4019,-181.256
 L -85.1453,-181.322 L -84.8825,-181.355 L 84.8825,-181.355 L 85.1453,-181.322 L 85.4019,-181.256 L 85.6482,-181.159
 L 85.8804,-181.031 L 86.0947,-180.875 L 86.2879,-180.694 L 86.4567,-180.49 L 86.5987,-180.266 L 86.7115,-180.027
 L 86.7934,-179.775 L 86.843,-179.514 L 86.8596,-179.25 L 86.8596,-144.75 L 86.843,-144.486 L 86.7934,-144.225
 L 86.7115,-143.973 L 86.5987,-143.734 L 86.4567,-143.51 L 86.2879,-143.306 L 86.0947,-143.125 L 85.8804,-142.969
 L 85.6482,-142.841 L 85.4019,-142.744 L 85.1453,-142.678 L 84.8825,-142.645 z
" stroke="black" fill="lightgray" stroke-width="0.5"/>
</svg>
