<?xml version="1.0" standalone="no"?>
<!DOCTYPE svg PUBLIC "-//W3C//DTD SVG 1.1//EN" "http://www.w3.org/Graphics/SVG/1.1/DTD/svg11.dtd">
<svg width="137mm" height="40mm" viewBox="-69 -80 137 40" xmlns="http://www.w3.org/2000/svg" version="1.1">
<title>OpenSCAD Model</title>
<path d="
M 63.4369,-64.5886 L 64.0451,-64.7447 L 64.6289,-64.9759 L 65.1791,-65.2784 L 65.6871,-65.6474 L 66.1448,-66.0773
 L 66.5451,-66.5611 L 66.8815,-67.0912 L 67.1489,-67.6594 L 67.3429,-68.2566 L 67.4606,-68.8733 L 67.5,-69.5
 L 67.5,-74.5 L 67.4606,-75.1267 L 67.3429,-75.7434 L 67.1489,-76.3406 L 66.8815,-76.9088 L 66.5451,-77.4389
 L 66.1448,-77.9227 L 65.6871,-78.3526 L 65.1791,-78.7216 L 64.6289,-79.0241 L 64.0451,-79.2553 L 63.4369,-79.4114
 L 62.8139,-79.4901 L -62.8139,-79.4901 L -63.4369,-79.4114 L -64.0451,-79.2553 L -64.6289,-79.0241 L -65.1791,-78.7216
 L -65.6871,-78.3526 L -66,-78.0587 L -66,-79.4792 L -69,-79.4792 L -69,-64.5208 L -66,-64.5208
 L -66,-65.9413 L -65.6871,-65.6474 L -65.1791,-65.2784 L -64.6289,-64.9759 L -64.0451,-64.7447 L -63.4369,-64.5886
 L -62.8139,-64.5099 L 62.8139,-64.5099 z
M -62.1954,-66.8932 L -62.5833,-66.9422 L -62.9619,-67.0394 L -63.3254,-67.1833 L -63.668,-67.3717 L -63.9842,-67.6015
 L -64.2692,-67.8691 L -64.5184,-68.1703 L -64.7279,-68.5004 L -64.8943,-68.8541 L -65.0151,-69.2259 L -65.0884,-69.6098
 L -65.1129,-70 L -65.1129,-74 L -65.0884,-74.3902 L -65.0151,-74.7741 L -64.8943,-75.1459 L -64.7279,-75.4996
 L -64.5184,-75.8297 L -64.2692,-76.1309 L -63.9842,-76.3985 L -63.668,-76.6283 L -63.3254,-76.8167 L -62.9619,-76.9606
 L -62.5833,-77.0578 L -62.1954,-77.1068 L 62.1954,-77.1068 L 62.5833,-77.0578 L 62.9619,-76.9606 L 63.3254,-76.8167
 L 63.668,-76.6283 L 63.9842,-76.3985 L 64.2692,-76.1309 L 64.5184,-75.8297 L 64.7279,-75.4996 L 64.8943,-75.1459
 L 65.0151,-74.7741 L 65.0884,-74.3902 L 65.1129,-74 L 65.1129,-70 L 65.0884,-69.6098 L 65.0151,-69.2259
 L 64.8943,-68.8541 L 64.7279,-68.5004 L 64.5184,-68.1703 L 64.2692,-67.8691 L 63.9842,-67.6015 L 63.668,-67.3717
 L 63.3254,-67.1833 L 62.9619,-67.0394 L 62.5833,-66.9422 L 62.1954,-66.8932 z
M 63.4369,-40.5886 L 64.0451,-40.7447 L 64.6289,-40.9759 L 65.1791,-41.2784 L 65.6871,-41.6474 L 66.1448,-42.0773
 L 66.5451,-42.5611 L 66.8815,-43.0912 L 67.1489,-43.6594 L 67.3429,-44.2566 L 67.4606,-44.8733 L 67.5,-45.5
 L 67.5,-50.5 L 67.4606,-51.1267 L 67.3429,-51.7434 L 67.1489,-52.3406 L 66.8815,-52.9088 L 66.5451,-53.4389
 L 66.1448,-53.9227 L 65.6871,-54.3526 L 65.1791,-54.7216 L 64.6289,-55.0241 L 64.0451,-55.2553 L 63.4369,-55.4114
 L 62.8139,-55.4901 L -62.8139,-55.4901 L -63.4369,-55.4114 L -64.0451,-55.2553 L -64.6289,-55.0241 L -65.1791,-54.7216
 L -65.6871,-54.3526 L -66,-54.0587 L -66,-54.1526 L -69,-54.1526 L -69,-41.8474 L -66,-41.8474
 L -66,-41.9413 L -65.6871,-41.6474 L -65.1791,-41.2784 L -64.6289,-40.9759 L -64.0451,-40.7447 L -63.4369,-40.5886
 L -62.8139,-40.5099 L 62.8139,-40.5099 z
M 59.8659,-45.8689 L 59.5999,-45.9025 L 59.3401,-45.9692 L 59.0908,-46.0679 L 58.8559,-46.1971 L 58.6389,-46.3547
 L 58.4434,-46.5383 L 58.2725,-46.7449 L 58.1288,-46.9713 L 58.0146,-47.214 L 57.9318,-47.469 L 57.8815,-47.7324
 L 57.8647,-48 L 57.8815,-48.2676 L 57.9318,-48.531 L 58.0146,-48.786 L 58.1288,-49.0287 L 58.2725,-49.2551
 L 58.4434,-49.4617 L 58.6389,-49.6453 L 58.8559,-49.8029 L 59.0908,-49.9321 L 59.3401,-50.0308 L 59.5999,-50.0975
 L 59.8659,-50.1311 L 60.1341,-50.1311 L 60.4001,-50.0975 L 60.6598,-50.0308 L 60.9092,-49.9321 L 61.1441,-49.8029
 L 61.3611,-49.6453 L 61.5565,-49.4617 L 61.7275,-49.2551 L 61.8712,-49.0287 L 61.9853,-48.786 L 62.0682,-48.531
 L 62.1185,-48.2676 L 62.1353,-48 L 62.1185,-47.7324 L 62.0682,-47.469 L 61.9853,-47.214 L 61.8712,-46.9713
 L 61.7275,-46.7449 L 61.5565,-46.5383 L 61.3611,-46.3547 L 61.1441,-46.1971 L 60.9092,-46.0679 L 60.6598,-45.9692
 L 60.4001,-45.9025 L 60.1341,-45.8689 z
M -60.1341,-45.8689 L -60.4001,-45.9025 L -60.6598,-45.9692 L -60.9092,-46.0679 L -61.1441,-46.1971 L -61.3611,-46.3547
 L -61.5565,-46.5383 L -61.7275,-46.7449 L -61.8712,-46.9713 L -61.9853,-47.214 L -62.0682,-47.469 L -62.1185,-47.7324
 L -62.1353,-48 L -62.1185,-48.2676 L -62.0682,-48.531 L -61.9853,-48.786 L -61.8712,-49.0287 L -61.7275,-49.2551
 L -61.5565,-49.4617 L -61.3611,-49.6453 L -61.1441,-49.8029 L -60.9092,-49.9321 L -60.6598,-50.0308 L -60.4001,-50.0975
 L -60.1341,-50.1311 L -59.8659,-50.1311 L -59.5999,-50.0975 L -59.3401,-50.0308 L -59.0908,-49.9321 L -58.8559,-49.8029
 L -58.6389,-49.6453 L -58.4434,-49.4617 L -58.2725,-49.2551 L -58.1288,-49.0287 L -58.0146,-48.786 L -57.9318,-48.531
 L -57.8815,-48.2676 L -57.8647,-48 L -57.8815,-47.7324 L -57.9318,-47.469 L -58.0146,-47.214 L -58.1288,-46.9713
 L -58.2725,-46.7449 L -58.4434,-46.5383 L -58.6389,-46.3547 L -58.8559,-46.1971 L -59.0908,-46.0679 L -59.3401,-45.9692
 L -59.5999,-45.9025 L -59.8659,-45.8689 z
" stroke="black" fill="lightgray" stroke-width="0.5"/>
</svg>
