<?xml version="1.0" standalone="no"?>
<!DOCTYPE svg PUBLIC "-//W3C//DTD SVG 1.1//EN" "http://www.w3.org/Graphics/SVG/1.1/DTD/svg11.dtd">
<svg width="76mm" height="186mm" viewBox="-38 -366 76 186" xmlns="http://www.w3.org/2000/svg" version="1.1">
<title>OpenSCAD Model</title>
<path d="
M 33.4369,-336.089 L 34.0451,-336.245 L 34.6289,-336.476 L 35.1791,-336.778 L 35.6871,-337.147 L 36.1448,-337.577
 L 36.5451,-338.061 L 36.8815,-338.591 L 37.1489,-339.159 L 37.3429,-339.757 L 37.4606,-340.373 L 37.5,-341
 L 37.5,-361 L 37.4606,-361.627 L 37.3429,-362.243 L 37.1489,-362.841 L 36.8815,-363.409 L 36.5451,-363.939
 L 36.1448,-364.423 L 35.6871,-364.853 L 35.1791,-365.222 L 34.6289,-365.524 L 34.0451,-365.755 L 33.4369,-365.911
 L 32.8139,-365.99 L -32.8139,-365.99 L -33.4369,-365.911 L -34.0451,-365.755 L -34.6289,-365.524 L -35.1791,-365.222
 L -35.6871,-364.853 L -36.1448,-364.423 L -36.5451,-363.939 L -36.8815,-363.409 L -37.1489,-362.841 L -37.3429,-362.243
 L -37.4606,-361.627 L -37.5,-361 L -37.5,-341 L -37.4606,-340.373 L -37.3429,-339.757 L -37.1489,-339.159
 L -36.8815,-338.591 L -36.5451,-338.061 L -36.1448,-337.577 L -35.6871,-337.147 L -35.1791,-336.778 L -34.6289,-336.476
 L -34.0451,-336.245 L -33.4369,-336.089 L -32.8139,-336.01 L 32.8139,-336.01 z
M -32.5482,-336.509 L -33.1401,-336.584 L -33.7178,-336.732 L -34.2724,-336.952 L -34.7952,-337.239 L -35.2778,-337.59
 L -35.7126,-337.998 L -36.0928,-338.458 L -36.4124,-338.962 L -36.6664,-339.501 L -36.8508,-340.069 L -36.9625,-340.655
 L -37,-341.25 L -37,-360.75 L -36.9625,-361.345 L -36.8508,-361.931 L -36.6664,-362.499 L -36.4124,-363.038
 L -36.0928,-363.542 L -35.7126,-364.002 L -35.2778,-364.41 L -34.7952,-364.761 L -34.2724,-365.048 L -33.7178,-365.268
 L -33.1401,-365.416 L -32.5482,-365.491 L 32.5482,-365.491 L 33.1401,-365.416 L 33.7178,-365.268 L 34.2724,-365.048
 L 34.7952,-364.761 L 35.2778,-364.41 L 35.7126,-364.002 L 36.0928,-363.542 L 36.4124,-363.038 L 36.6664,-362.499
 L 36.8508,-361.931 L 36.9625,-361.345 L 37,-360.75 L 37,-341.25 L 36.9625,-340.655 L 36.8508,-340.069
 L 36.6664,-339.501 L 36.4124,-338.962 L 36.0928,-338.458 L 35.7126,-337.998 L 35.2778,-337.59 L 34.7952,-337.239
 L 34.2724,-336.952 L 33.7178,-336.732 L 33.1401,-336.584 L 32.5482,-336.509 z
M 33.4369,-297.089 L 34.0451,-297.245 L 34.6289,-297.476 L 35.1791,-297.778 L 35.6871,-298.147 L 36.1448,-298.577
 L 36.5451,-299.061 L 36.8815,-299.591 L 37.1489,-300.159 L 37.3429,-300.757 L 37.4606,-301.373 L 37.5,-302
 L 37.5,-322 L 37.4606,-322.627 L 37.3429,-323.243 L 37.1489,-323.841 L 36.8815,-324.409 L 36.5451,-324.939
 L 36.1448,-325.423 L 35.6871,-325.853 L 35.1791,-326.222 L 34.6289,-326.524 L 34.0451,-326.755 L 33.4369,-326.911
 L 32.8139,-326.99 L -32.8139,-326.99 L -33.4369,-326.911 L -34.0451,-326.755 L -34.6289,-326.524 L -35.1791,-326.222
 L -35.6871,-325.853 L -36.1448,-325.423 L -36.5451,-324.939 L -36.8815,-324.409 L -37.1489,-323.841 L -37.3429,-323.243
 L -37.4606,-322.627 L -37.5,-322 L -37.5,-302 L -37.4606,-301.373 L -37.3429,-300.757 L -37.1489,-300.159
 L -36.8815,-299.591 L -36.5451,-299.061 L -36.1448,-298.577 L -35.6871,-298.147 L -35.1791,-297.778 L -34.6289,-297.476
 L -34.0451,-297.245 L -33.4369,-297.089 L -32.8139,-297.01 L 32.8139,-297.01 z
M -32.5482,-297.509 L -33.1401,-297.584 L -33.7178,-297.732 L -34.2724,-297.952 L -34.7952,-298.239 L -35.2778,-298.59
 L -35.7126,-298.998 L -36.0928,-299.458 L -36.4124,-299.962 L -36.6664,-300.501 L -36.8508,-301.069 L -36.9625,-301.655
 L -37,-302.25 L -37,-321.75 L -36.9625,-322.345 L -36.8508,-322.931 L -36.6664,-323.499 L -36.4124,-324.038
 L -36.0928,-324.542 L -35.7126,-325.002 L -35.2778,-325.41 L -34.7952,-325.761 L -34.2724,-326.048 L -33.7178,-326.268
 L -33.1401,-326.416 L -32.5482,-326.491 L 32.5482,-326.491 L 33.1401,-326.416 L 33.7178,-326.268 L 34.2724,-326.048
 L 34.7952,-325.761 L 35.2778,-325.41 L 35.7126,-325.002 L 36.0928,-324.542 L 36.4124,-324.038 L 36.6664,-323.499
 L 36.8508,-322.931 L 36.9625,-322.345 L 37,-321.75 L 37,-302.25 L 36.9625,-301.655 L 36.8508,-301.069
 L 36.6664,-300.501 L 36.4124,-299.962 L 36.0928,-299.458 L 35.7126,-298.998 L 35.2778,-298.59 L 34.7952,-298.239
 L 34.2724,-297.952 L 33.7178,-297.732 L 33.1401,-297.584 L 32.5482,-297.509 z
M 33.4369,-258.089 L 34.0451,-258.245 L 34.6289,-258.476 L 35.1791,-258.778 L 35.6871,-259.147 L 36.1448,-259.577
 L 36.5451,-260.061 L 36.8815,-260.591 L 37.1489,-261.159 L 37.3429,-261.757 L 37.4606,-262.373 L 37.5,-263
 L 37.5,-283 L 37.4606,-283.627 L 37.3429,-284.243 L 37.1489,-284.841 L 36.8815,-285.409 L 36.5451,-285.939
 L 36.1448,-286.423 L 35.6871,-286.853 L 35.1791,-287.222 L 34.6289,-287.524 L 34.0451,-287.755 L 33.4369,-287.911
 L 32.8139,-287.99 L -32.8139,-287.99 L -33.4369,-287.911 L -34.0451,-287.755 L -34.6289,-287.524 L -35.1791,-287.222
 L -35.6871,-286.853 L -36.1448,-286.423 L -36.5451,-285.939 L -36.8815,-285.409 L -37.1489,-284.841 L -37.3429,-284.243
 L -37.4606,-283.627 L -37.5,-283 L -37.5,-263 L -37.4606,-262.373 L -37.3429,-261.757 L -37.1489,-261.159
 L -36.8815,-260.591 L -36.5451,-260.061 L -36.1448,-259.577 L -35.6871,-259.147 L -35.1791,-258.778 L -34.6289,-258.476
 L -34.0451,-258.245 L -33.4369,-258.089 L -32.8139,-258.01 L 32.8139,-258.01 z
M -32.5482,-258.509 L -33.1401,-258.584 L -33.7178,-258.732 L -34.2724,-258.952 L -34.7952,-259.239 L -35.2778,-259.59
 L -35.7126,-259.998 L -36.0928,-260.458 L -36.4124,-260.962 L -36.6664,-261.501 L -36.8508,-262.069 L -36.9625,-262.655
 L -37,-263.25 L -37,-282.75 L -36.9625,-283.345 L -36.8508,-283.931 L -36.6664,-284.499 L -36.4124,-285.038
 L -36.0928,-285.542 L -35.7126,-286.002 L -35.2778,-286.41 L -34.7952,-286.761 L -34.2724,-287.048 L -33.7178,-287.268
 L -33.1401,-287.416 L -32.5482,-287.491 L 32.5482,-287.491 L 33.1401,-287.416 L 33.7178,-287.268 L 34.2724,-287.048
 L 34.7952,-286.761 L 35.2778,-286.41 L 35.7126,-286.002 L 36.0928,-285.542 L 36.4124,-285.038 L 36.6664,-284.499
 L 36.8508,-283.931 L 36.9625,-283.345 L 37,-282.75 L 37,-263.25 L 36.9625,-262.655 L 36.8508,-262.069
 L 36.6664,-261.501 L 36.4124,-260.962 L 36.0928,-260.458 L 35.7126,-259.998 L 35.2778,-259.59 L 34.7952,-259.239
 L 34.2724,-258.952 L 33.7178,-258.732 L 33.1401,-258.584 L 32.5482,-258.509 z
M 33.4369,-219.089 L 34.0451,-219.245 L 34.6289,-219.476 L 35.1791,-219.778 L 35.6871,-220.147 L 36.1448,-220.577
 L 36.5451,-221.061 L 36.8815,-221.591 L 37.1489,-222.159 L 37.3429,-222.757 L 37.4606,-223.373 L 37.5,-224
 L 37.5,-244 L 37.4606,-244.627 L 37.3429,-245.243 L 37.1489,-245.841 L 36.8815,-246.409 L 36.5451,-246.939
 L 36.1448,-247.423 L 35.6871,-247.853 L 35.1791,-248.222 L 34.6289,-248.524 L 34.0451,-248.755 L 33.4369,-248.911
 L 32.8139,-248.99 L -32.8139,-248.99 L -33.4369,-248.911 L -34.0451,-248.755 L -34.6289,-248.524 L -35.1791,-248.222
 L -35.6871,-247.853 L -36.1448,-247.423 L -36.5451,-246.939 L -36.8815,-246.409 L -37.1489,-245.841 L -37.3429,-245.243
 L -37.4606,-244.627 L -37.5,-244 L -37.5,-224 L -37.4606,-223.373 L -37.3429,-222.757 L -37.1489,-222.159
 L -36.8815,-221.591 L -36.5451,-221.061 L -36.1448,-220.577 L -35.6871,-220.147 L -35.1791,-219.778 L -34.6289,-219.476
 L -34.0451,-219.245 L -33.4369,-219.089 L -32.8139,-219.01 L 32.8139,-219.01 z
M -32.5375,-219.681 L -33.1079,-219.753 L -33.6648,-219.896 L -34.1994,-220.107 L -34.7032,-220.384 L -35.1684,-220.722
 L -35.5875,-221.116 L -35.954,-221.559 L -36.2621,-222.044 L -36.5069,-222.565 L -36.6846,-223.111 L -36.7923,-223.676
 L -36.8284,-224.25 L -36.8284,-243.75 L -36.7923,-244.324 L -36.6846,-244.889 L -36.5069,-245.435 L -36.2621,-245.956
 L -35.954,-246.441 L -35.5875,-246.884 L -35.1684,-247.278 L -34.7032,-247.616 L -34.1994,-247.893 L -33.6648,-248.104
 L -33.1079,-248.247 L -32.5375,-248.319 L 32.5375,-248.319 L 33.1079,-248.247 L 33.6648,-248.104 L 34.1994,-247.893
 L 34.7032,-247.616 L 35.1684,-247.278 L 35.5875,-246.884 L 35.954,-246.441 L 36.2621,-245.956 L 36.5069,-245.435
 L 36.6846,-244.889 L 36.7923,-244.324 L 36.8284,-243.75 L 36.8284,-224.25 L 36.7923,-223.676 L 36.6846,-223.111
 L 36.5069,-222.565 L 36.2621,-222.044 L 35.954,-221.559 L 35.5875,-221.116 L 35.1684,-220.722 L 34.7032,-220.384
 L 34.1994,-220.107 L 33.6648,-219.896 L 33.1079,-219.753 L 32.5375,-219.681 z
M 33.4369,-180.089 L 34.0451,-180.245 L 34.6289,-180.476 L 35.1791,-180.778 L 35.6871,-181.147 L 36.1448,-181.577
 L 36.5451,-182.061 L 36.8815,-182.591 L 37.1489,-183.159 L 37.3429,-183.757 L 37.4606,-184.373 L 37.5,-185
 L 37.5,-205 L 37.4606,-205.627 L 37.3429,-206.243 L 37.1489,-206.841 L 36.8815,-207.409 L 36.5451,-207.939
 L 36.1448,-208.423 L 35.6871,-208.853 L 35.1791,-209.222 L 34.6289,-209.524 L 34.0451,-209.755 L 33.4369,-209.911
 L 32.8139,-209.99 L -32.8139,-209.99 L -33.4369,-209.911 L -34.0451,-209.755 L -34.6289,-209.524 L -35.1791,-209.222
 L -35.6871,-208.853 L -36.1448,-208.423 L -36.5451,-207.939 L -36.8815,-207.409 L -37.1489,-206.841 L -37.3429,-206.243
 L -37.4606,-205.627 L -37.5,-205 L -37.5,-185 L -37.4606,-184.373 L -37.3429,-183.757 L -37.1489,-183.159
 L -36.8815,-182.591 L -36.5451,-182.061 L -36.1448,-181.577 L -35.6871,-181.147 L -35.1791,-180.778 L -34.6289,-180.476
 L -34.0451,-180.245 L -33.4369,-180.089 L -32.8139,-180.01 L 32.8139,-180.01 z
M -32.3825,-183.145 L -32.6453,-183.178 L -32.9019,-183.244 L -33.1482,-183.341 L -33.3804,-183.469 L -33.5947,-183.625
 L -33.7879,-183.806 L -33.9567,-184.01 L -34.0987,-184.234 L -34.2115,-184.473 L -34.2934,-184.725 L -34.343,-184.986
 L -34.3596,-185.25 L -34.3596,-204.75 L -34.343,-205.014 L -34.2934,-205.275 L -34.2115,-205.527 L -34.0987,-205.766
 L -33.9567,-205.99 L -33.7879,-206.194 L -33.5947,-206.375 L -33.3804,-206.531 L -33.1482,-206.659 L -32.9019,-206.756
 L -32.6453,-206.822 L -32.3825,-206.855 L 32.3825,-206.855 L 32.6453,-206.822 L 32.9019,-206.756 L 33.1482,-206.659
 L 33.3804,-206.531 L 33.5947,-206.375 L 33.7879,-206.194 L 33.9567,-205.99 L 34.0987,-205.766 L 34.2115,-205.527
 L 34.2934,-205.275 L 34.343,-205.014 L 34.3596,-204.75 L 34.3596,-185.25 L 34.343,-184.986 L 34.2934,-184.725
 L 34.2115,-184.473 L 34.0987,-184.234 L 33.9567,-184.01 L 33.7879,-183.806 L 33.5947,-183.625 L 33.3804,-183.469
 L 33.1482,-183.341 L 32.9019,-183.244 L 32.6453,-183.178 L 32.3825,-183.145 z
" stroke="black" fill="lightgray" stroke-width="0.5"/>
</svg>
