<?xml version="1.0" standalone="no"?>
<!DOCTYPE svg PUBLIC "-//W3C//DTD SVG 1.1//EN" "http://www.w3.org/Graphics/SVG/1.1/DTD/svg11.dtd">
<svg width="46mm" height="378mm" viewBox="-23 -576 46 378" xmlns="http://www.w3.org/2000/svg" version="1.1">
<title>OpenSCAD Model</title>
<path d="
M 18.4369,-456.089 L 19.0451,-456.245 L 19.6289,-456.476 L 20.1791,-456.778 L 20.6871,-457.147 L 21.1448,-457.577
 L 21.5451,-458.061 L 21.8815,-458.591 L 22.1489,-459.159 L 22.3429,-459.757 L 22.4606,-460.373 L 22.5,-461
 L 22.5,-571 L 22.4606,-571.627 L 22.3429,-572.243 L 22.1489,-572.841 L 21.8815,-573.409 L 21.5451,-573.939
 L 21.1448,-574.423 L 20.6871,-574.853 L 20.1791,-575.222 L 19.6289,-575.524 L 19.0451,-575.755 L 18.4369,-575.911
 L 17.8139,-575.99 L -17.8139,-575.99 L -18.4369,-575.911 L -19.0451,-575.755 L -19.6289,-575.524 L -20.1791,-575.222
 L -20.6871,-574.853 L -21.1448,-574.423 L -21.5451,-573.939 L -21.8815,-573.409 L -22.1489,-572.841 L -22.3429,-572.243
 L -22.4606,-571.627 L -22.5,-571 L -22.5,-461 L -22.4606,-460.373 L -22.3429,-459.757 L -22.1489,-459.159
 L -21.8815,-458.591 L -21.5451,-458.061 L -21.1448,-457.577 L -20.6871,-457.147 L -20.1791,-456.778 L -19.6289,-456.476
 L -19.0451,-456.245 L -18.4369,-456.089 L -17.8139,-456.01 L 17.8139,-456.01 z
M -17.2432,-457.635 L -17.7256,-457.696 L -18.1967,-457.817 L -18.6489,-457.996 L -19.0751,-458.23 L -19.4685,-458.516
 L -19.823,-458.849 L -20.133,-459.224 L -20.3936,-459.634 L -20.6007,-460.074 L -20.751,-460.537 L -20.8421,-461.015
 L -20.8726,-461.5 L -20.8726,-570.5 L -20.8421,-570.985 L -20.751,-571.463 L -20.6007,-571.926 L -20.3936,-572.366
 L -20.133,-572.776 L -19.823,-573.151 L -19.4685,-573.484 L -19.0751,-573.77 L -18.6489,-574.004 L -18.1967,-574.183
 L -17.7256,-574.304 L -17.2432,-574.365 L 17.2432,-574.365 L 17.7256,-574.304 L 18.1967,-574.183 L 18.6489,-574.004
 L 19.0751,-573.77 L 19.4685,-573.484 L 19.823,-573.151 L 20.133,-572.776 L 20.3936,-572.366 L 20.6007,-571.926
 L 20.751,-571.463 L 20.8421,-570.985 L 20.8726,-570.5 L 20.8726,-461.5 L 20.8421,-461.015 L 20.751,-460.537
 L 20.6007,-460.074 L 20.3936,-459.634 L 20.133,-459.224 L 19.823,-458.849 L 19.4685,-458.516 L 19.0751,-458.23
 L 18.6489,-457.996 L 18.1967,-457.817 L 17.7256,-457.696 L 17.2432,-457.635 z
M 18.4369,-327.089 L 19.0451,-327.245 L 19.6289,-327.476 L 20.1791,-327.778 L 20.6871,-328.147 L 21.1448,-328.577
 L 21.5451,-329.061 L 21.8815,-329.591 L 22.1489,-330.159 L 22.3429,-330.757 L 22.4606,-331.373 L 22.5,-332
 L 22.5,-442 L 22.4606,-442.627 L 22.3429,-443.243 L 22.1489,-443.841 L 21.8815,-444.409 L 21.5451,-444.939
 L 21.1448,-445.423 L 20.6871,-445.853 L 20.1791,-446.222 L 19.6289,-446.524 L 19.0451,-446.755 L 18.4369,-446.911
 L 17.8139,-446.99 L -17.8139,-446.99 L -18.4369,-446.911 L -19.0451,-446.755 L -19.6289,-446.524 L -20.1791,-446.222
 L -20.6871,-445.853 L -21.1448,-445.423 L -21.5451,-444.939 L -21.8815,-444.409 L -22.1489,-443.841 L -22.3429,-443.243
 L -22.4606,-442.627 L -22.5,-442 L -22.5,-332 L -22.4606,-331.373 L -22.3429,-330.757 L -22.1489,-330.159
 L -21.8815,-329.591 L -21.5451,-329.061 L -21.1448,-328.577 L -20.6871,-328.147 L -20.1791,-327.778 L -19.6289,-327.476
 L -19.0451,-327.245 L -18.4369,-327.089 L -17.8139,-327.01 L 17.8139,-327.01 z
M 18.4369,-198.089 L 19.0451,-198.245 L 19.6289,-198.476 L 20.1791,-198.778 L 20.6871,-199.147 L 21.1448,-199.577
 L 21.5451,-200.061 L 21.8815,-200.591 L 22.1489,-201.159 L 22.3429,-201.757 L 22.4606,-202.373 L 22.5,-203
 L 22.5,-313 L 22.4606,-313.627 L 22.3429,-314.243 L 22.1489,-314.841 L 21.8815,-315.409 L 21.5451,-315.939
 L 21.1448,-316.423 L 20.6871,-316.853 L 20.1791,-317.222 L 19.6289,-317.524 L 19.0451,-317.755 L 18.4369,-317.911
 L 17.8139,-317.99 L -17.8139,-317.99 L -18.4369,-317.911 L -19.0451,-317.755 L -19.6289,-317.524 L -20.1791,-317.222
 L -20.6871,-316.853 L -21.1448,-316.423 L -21.5451,-315.939 L -21.8815,-315.409 L -22.1489,-314.841 L -22.3429,-314.243
 L -22.4606,-313.627 L -22.5,-313 L -22.5,-203 L -22.4606,-202.373 L -22.3429,-201.757 L -22.1489,-201.159
 L -21.8815,-200.591 L -21.5451,-200.061 L -21.1448,-199.577 L -20.6871,-199.147 L -20.1791,-198.778 L -19.6289,-198.476
 L -19.0451,-198.245 L -18.4369,-198.089 L -17.8139,-198.01 L 17.8139,-198.01 z
M 14.887,-308.704 L 14.6627,-308.732 L 14.4438,-308.788 L 14.2336,-308.871 L 14.0355,-308.98 L 13.8526,-309.113
 L 13.6879,-309.268 L 13.5438,-309.442 L 13.4226,-309.633 L 13.3264,-309.837 L 13.2565,-310.052 L 13.2142,-310.274
 L 13.2,-310.5 L 13.2142,-310.726 L 13.2565,-310.948 L 13.3264,-311.163 L 13.4226,-311.367 L 13.5438,-311.558
 L 13.6879,-311.732 L 13.8526,-311.887 L 14.0355,-312.02 L 14.2336,-312.129 L 14.4438,-312.212 L 14.6627,-312.268
 L 14.887,-312.296 L 15.113,-312.296 L 15.3373,-312.268 L 15.5562,-312.212 L 15.7664,-312.129 L 15.9645,-312.02
 L 16.1474,-311.887 L 16.3121,-311.732 L 16.4562,-311.558 L 16.5773,-311.367 L 16.6736,-311.163 L 16.7434,-310.948
 L 16.7858,-310.726 L 16.8,-310.5 L 16.7858,-310.274 L 16.7434,-310.052 L 16.6736,-309.837 L 16.5773,-309.633
 L 16.4562,-309.442 L 16.3121,-309.268 L 16.1474,-309.113 L 15.9645,-308.98 L 15.7664,-308.871 L 15.5562,-308.788
 L 15.3373,-308.732 L 15.113,-308.704 z
M -15.113,-308.704 L -15.3373,-308.732 L -15.5562,-308.788 L -15.7664,-308.871 L -15.9645,-308.98 L -16.1474,-309.113
 L -16.3121,-309.268 L -16.4562,-309.442 L -16.5773,-309.633 L -16.6736,-309.837 L -16.7434,-310.052 L -16.7858,-310.274
 L -16.8,-310.5 L -16.7858,-310.726 L -16.7434,-310.948 L -16.6736,-311.163 L -16.5773,-311.367 L -16.4562,-311.558
 L -16.3121,-311.732 L -16.1474,-311.887 L -15.9645,-312.02 L -15.7664,-312.129 L -15.5562,-312.212 L -15.3373,-312.268
 L -15.113,-312.296 L -14.887,-312.296 L -14.6627,-312.268 L -14.4438,-312.212 L -14.2336,-312.129 L -14.0355,-312.02
 L -13.8526,-311.887 L -13.6879,-311.732 L -13.5438,-311.558 L -13.4226,-311.367 L -13.3264,-311.163 L -13.2565,-310.948
 L -13.2142,-310.726 L -13.2,-310.5 L -13.2142,-310.274 L -13.2565,-310.052 L -13.3264,-309.837 L -13.4226,-309.633
 L -13.5438,-309.442 L -13.6879,-309.268 L -13.8526,-309.113 L -14.0355,-308.98 L -14.2336,-308.871 L -14.4438,-308.788
 L -14.6627,-308.732 L -14.887,-308.704 z
M -15.113,-203.704 L -15.3373,-203.732 L -15.5562,-203.788 L -15.7664,-203.871 L -15.9645,-203.98 L -16.1474,-204.113
 L -16.3121,-204.268 L -16.4562,-204.442 L -16.5773,-204.633 L -16.6736,-204.837 L -16.7434,-205.052 L -16.7858,-205.274
 L -16.8,-205.5 L -16.7858,-205.726 L -16.7434,-205.948 L -16.6736,-206.163 L -16.5773,-206.367 L -16.4562,-206.558
 L -16.3121,-206.732 L -16.1474,-206.887 L -15.9645,-207.02 L -15.7664,-207.129 L -15.5562,-207.212 L -15.3373,-207.268
 L -15.113,-207.296 L -14.887,-207.296 L -14.6627,-207.268 L -14.4438,-207.212 L -14.2336,-207.129 L -14.0355,-207.02
 L -13.8526,-206.887 L -13.6879,-206.732 L -13.5438,-206.558 L -13.4226,-206.367 L -13.3264,-206.163 L -13.2565,-205.948
 L -13.2142,-205.726 L -13.2,-205.5 L -13.2142,-205.274 L -13.2565,-205.052 L -13.3264,-204.837 L -13.4226,-204.633
 L -13.5438,-204.442 L -13.6879,-204.268 L -13.8526,-204.113 L -14.0355,-203.98 L -14.2336,-203.871 L -14.4438,-203.788
 L -14.6627,-203.732 L -14.887,-203.704 z
M 14.887,-203.704 L 14.6627,-203.732 L 14.4438,-203.788 L 14.2336,-203.871 L 14.0355,-203.98 L 13.8526,-204.113
 L 13.6879,-204.268 L 13.5438,-204.442 L 13.4226,-204.633 L 13.3264,-204.837 L 13.2565,-205.052 L 13.2142,-205.274
 L 13.2,-205.5 L 13.2142,-205.726 L 13.2565,-205.948 L 13.3264,-206.163 L 13.4226,-206.367 L 13.5438,-206.558
 L 13.6879,-206.732 L 13.8526,-206.887 L 14.0355,-207.02 L 14.2336,-207.129 L 14.4438,-207.212 L 14.6627,-207.268
 L 14.887,-207.296 L 15.113,-207.296 L 15.3373,-207.268 L 15.5562,-207.212 L 15.7664,-207.129 L 15.9645,-207.02
 L 16.1474,-206.887 L 16.3121,-206.732 L 16.4562,-206.558 L 16.5773,-206.367 L 16.6736,-206.163 L 16.7434,-205.948
 L 16.7858,-205.726 L 16.8,-205.5 L 16.7858,-205.274 L 16.7434,-205.052 L 16.6736,-204.837 L 16.5773,-204.633
 L 16.4562,-204.442 L 16.3121,-204.268 L 16.1474,-204.113 L 15.9645,-203.98 L 15.7664,-203.871 L 15.5562,-203.788
 L 15.3373,-203.732 L 15.113,-203.704 z
" stroke="black" fill="lightgray" stroke-width="0.5"/>
</svg>
