  0
SECTION
  2
BLOCKS
  0
ENDSEC
  0
SECTION
  2
ENTITIES
  0
LINE
  8
0
 10
40.9369
 20
315.089
 11
41.5451
 21
315.245
  0
LINE
  8
0
 10
41.5451
 20
315.245
 11
42.1289
 21
315.476
  0
LINE
  8
0
 10
42.1289
 20
315.476
 11
42.6791
 21
315.778
  0
LINE
  8
0
 10
42.6791
 20
315.778
 11
43.1871
 21
316.147
  0
LINE
  8
0
 10
43.1871
 20
316.147
 11
43.6448
 21
316.577
  0
LINE
  8
0
 10
43.6448
 20
316.577
 11
44.0451
 21
317.061
  0
LINE
  8
0
 10
44.0451
 20
317.061
 11
44.3815
 21
317.591
  0
LINE
  8
0
 10
44.3815
 20
317.591
 11
44.6489
 21
318.159
  0
LINE
  8
0
 10
44.6489
 20
318.159
 11
44.8429
 21
318.757
  0
LINE
  8
0
 10
44.8429
 20
318.757
 11
44.9606
 21
319.373
  0
LINE
  8
0
 10
44.9606
 20
319.373
 11
45
 21
320
  0
LINE
  8
0
 10
45
 20
320
 11
45
 21
370
  0
LINE
  8
0
 10
45
 20
370
 11
44.9606
 21
370.627
  0
LINE
  8
0
 10
44.9606
 20
370.627
 11
44.8429
 21
371.243
  0
LINE
  8
0
 10
44.8429
 20
371.243
 11
44.6489
 21
371.841
  0
LINE
  8
0
 10
44.6489
 20
371.841
 11
44.3815
 21
372.409
  0
LINE
  8
0
 10
44.3815
 20
372.409
 11
44.0451
 21
372.939
  0
LINE
  8
0
 10
44.0451
 20
372.939
 11
43.6448
 21
373.423
  0
LINE
  8
0
 10
43.6448
 20
373.423
 11
43.1871
 21
373.853
  0
LINE
  8
0
 10
43.1871
 20
373.853
 11
42.6791
 21
374.222
  0
LINE
  8
0
 10
42.6791
 20
374.222
 11
42.1289
 21
374.524
  0
LINE
  8
0
 10
42.1289
 20
374.524
 11
41.5451
 21
374.755
  0
LINE
  8
0
 10
41.5451
 20
374.755
 11
40.9369
 21
374.911
  0
LINE
  8
0
 10
40.9369
 20
374.911
 11
40.3139
 21
374.99
  0
LINE
  8
0
 10
40.3139
 20
374.99
 11
-40.3139
 21
374.99
  0
LINE
  8
0
 10
-40.3139
 20
374.99
 11
-40.9369
 21
374.911
  0
LINE
  8
0
 10
-40.9369
 20
374.911
 11
-41.5451
 21
374.755
  0
LINE
  8
0
 10
-41.5451
 20
374.755
 11
-42.1289
 21
374.524
  0
LINE
  8
0
 10
-42.1289
 20
374.524
 11
-42.6791
 21
374.222
  0
LINE
  8
0
 10
-42.6791
 20
374.222
 11
-43.1871
 21
373.853
  0
LINE
  8
0
 10
-43.1871
 20
373.853
 11
-43.6448
 21
373.423
  0
LINE
  8
0
 10
-43.6448
 20
373.423
 11
-44.0451
 21
372.939
  0
LINE
  8
0
 10
-44.0451
 20
372.939
 11
-44.3815
 21
372.409
  0
LINE
  8
0
 10
-44.3815
 20
372.409
 11
-44.6489
 21
371.841
  0
LINE
  8
0
 10
-44.6489
 20
371.841
 11
-44.8429
 21
371.243
  0
LINE
  8
0
 10
-44.8429
 20
371.243
 11
-44.9606
 21
370.627
  0
LINE
  8
0
 10
-44.9606
 20
370.627
 11
-45
 21
370
  0
LINE
  8
0
 10
-45
 20
370
 11
-45
 21
320
  0
LINE
  8
0
 10
-45
 20
320
 11
-44.9606
 21
319.373
  0
LINE
  8
0
 10
-44.9606
 20
319.373
 11
-44.8429
 21
318.757
  0
LINE
  8
0
 10
-44.8429
 20
318.757
 11
-44.6489
 21
318.159
  0
LINE
  8
0
 10
-44.6489
 20
318.159
 11
-44.3815
 21
317.591
  0
LINE
  8
0
 10
-44.3815
 20
317.591
 11
-44.0451
 21
317.061
  0
LINE
  8
0
 10
-44.0451
 20
317.061
 11
-43.6448
 21
316.577
  0
LINE
  8
0
 10
-43.6448
 20
316.577
 11
-43.1871
 21
316.147
  0
LINE
  8
0
 10
-43.1871
 20
316.147
 11
-42.6791
 21
315.778
  0
LINE
  8
0
 10
-42.6791
 20
315.778
 11
-42.1289
 21
315.476
  0
LINE
  8
0
 10
-42.1289
 20
315.476
 11
-41.5451
 21
315.245
  0
LINE
  8
0
 10
-41.5451
 20
315.245
 11
-40.9369
 21
315.089
  0
LINE
  8
0
 10
-40.9369
 20
315.089
 11
-40.3139
 21
315.01
  0
LINE
  8
0
 10
-40.3139
 20
315.01
 11
40.3139
 21
315.01
  0
LINE
  8
0
 10
40.3139
 20
315.01
 11
40.9369
 21
315.089
  0
LINE
  8
0
 10
-40.0482
 20
315.509
 11
-40.6401
 21
315.584
  0
LINE
  8
0
 10
-40.6401
 20
315.584
 11
-41.2178
 21
315.732
  0
LINE
  8
0
 10
-41.2178
 20
315.732
 11
-41.7724
 21
315.952
  0
LINE
  8
0
 10
-41.7724
 20
315.952
 11
-42.2952
 21
316.239
  0
LINE
  8
0
 10
-42.2952
 20
316.239
 11
-42.7778
 21
316.59
  0
LINE
  8
0
 10
-42.7778
 20
316.59
 11
-43.2126
 21
316.998
  0
LINE
  8
0
 10
-43.2126
 20
316.998
 11
-43.5928
 21
317.458
  0
LINE
  8
0
 10
-43.5928
 20
317.458
 11
-43.9124
 21
317.962
  0
LINE
  8
0
 10
-43.9124
 20
317.962
 11
-44.1664
 21
318.501
  0
LINE
  8
0
 10
-44.1664
 20
318.501
 11
-44.3508
 21
319.069
  0
LINE
  8
0
 10
-44.3508
 20
319.069
 11
-44.4625
 21
319.655
  0
LINE
  8
0
 10
-44.4625
 20
319.655
 11
-44.5
 21
320.25
  0
LINE
  8
0
 10
-44.5
 20
320.25
 11
-44.5
 21
369.75
  0
LINE
  8
0
 10
-44.5
 20
369.75
 11
-44.4625
 21
370.345
  0
LINE
  8
0
 10
-44.4625
 20
370.345
 11
-44.3508
 21
370.931
  0
LINE
  8
0
 10
-44.3508
 20
370.931
 11
-44.1664
 21
371.499
  0
LINE
  8
0
 10
-44.1664
 20
371.499
 11
-43.9124
 21
372.038
  0
LINE
  8
0
 10
-43.9124
 20
372.038
 11
-43.5928
 21
372.542
  0
LINE
  8
0
 10
-43.5928
 20
372.542
 11
-43.2126
 21
373.002
  0
LINE
  8
0
 10
-43.2126
 20
373.002
 11
-42.7778
 21
373.41
  0
LINE
  8
0
 10
-42.7778
 20
373.41
 11
-42.2952
 21
373.761
  0
LINE
  8
0
 10
-42.2952
 20
373.761
 11
-41.7724
 21
374.048
  0
LINE
  8
0
 10
-41.7724
 20
374.048
 11
-41.2178
 21
374.268
  0
LINE
  8
0
 10
-41.2178
 20
374.268
 11
-40.6401
 21
374.416
  0
LINE
  8
0
 10
-40.6401
 20
374.416
 11
-40.0482
 21
374.491
  0
LINE
  8
0
 10
-40.0482
 20
374.491
 11
40.0482
 21
374.491
  0
LINE
  8
0
 10
40.0482
 20
374.491
 11
40.6401
 21
374.416
  0
LINE
  8
0
 10
40.6401
 20
374.416
 11
41.2178
 21
374.268
  0
LINE
  8
0
 10
41.2178
 20
374.268
 11
41.7724
 21
374.048
  0
LINE
  8
0
 10
41.7724
 20
374.048
 11
42.2952
 21
373.761
  0
LINE
  8
0
 10
42.2952
 20
373.761
 11
42.7778
 21
373.41
  0
LINE
  8
0
 10
42.7778
 20
373.41
 11
43.2126
 21
373.002
  0
LINE
  8
0
 10
43.2126
 20
373.002
 11
43.5928
 21
372.542
  0
LINE
  8
0
 10
43.5928
 20
372.542
 11
43.9124
 21
372.038
  0
LINE
  8
0
 10
43.9124
 20
372.038
 11
44.1664
 21
371.499
  0
LINE
  8
0
 10
44.1664
 20
371.499
 11
44.3508
 21
370.931
  0
LINE
  8
0
 10
44.3508
 20
370.931
 11
44.4625
 21
370.345
  0
LINE
  8
0
 10
44.4625
 20
370.345
 11
44.5
 21
369.75
  0
LINE
  8
0
 10
44.5
 20
369.75
 11
44.5
 21
320.25
  0
LINE
  8
0
 10
44.5
 20
320.25
 11
44.4625
 21
319.655
  0
LINE
  8
0
 10
44.4625
 20
319.655
 11
44.3508
 21
319.069
  0
LINE
  8
0
 10
44.3508
 20
319.069
 11
44.1664
 21
318.501
  0
LINE
  8
0
 10
44.1664
 20
318.501
 11
43.9124
 21
317.962
  0
LINE
  8
0
 10
43.9124
 20
317.962
 11
43.5928
 21
317.458
  0
LINE
  8
0
 10
43.5928
 20
317.458
 11
43.2126
 21
316.998
  0
LINE
  8
0
 10
43.2126
 20
316.998
 11
42.7778
 21
316.59
  0
LINE
  8
0
 10
42.7778
 20
316.59
 11
42.2952
 21
316.239
  0
LINE
  8
0
 10
42.2952
 20
316.239
 11
41.7724
 21
315.952
  0
LINE
  8
0
 10
41.7724
 20
315.952
 11
41.2178
 21
315.732
  0
LINE
  8
0
 10
41.2178
 20
315.732
 11
40.6401
 21
315.584
  0
LINE
  8
0
 10
40.6401
 20
315.584
 11
40.0482
 21
315.509
  0
LINE
  8
0
 10
40.0482
 20
315.509
 11
-40.0482
 21
315.509
  0
LINE
  8
0
 10
40.9369
 20
246.089
 11
41.5451
 21
246.245
  0
LINE
  8
0
 10
41.5451
 20
246.245
 11
42.1289
 21
246.476
  0
LINE
  8
0
 10
42.1289
 20
246.476
 11
42.6791
 21
246.778
  0
LINE
  8
0
 10
42.6791
 20
246.778
 11
43.1871
 21
247.147
  0
LINE
  8
0
 10
43.1871
 20
247.147
 11
43.6448
 21
247.577
  0
LINE
  8
0
 10
43.6448
 20
247.577
 11
44.0451
 21
248.061
  0
LINE
  8
0
 10
44.0451
 20
248.061
 11
44.3815
 21
248.591
  0
LINE
  8
0
 10
44.3815
 20
248.591
 11
44.6489
 21
249.159
  0
LINE
  8
0
 10
44.6489
 20
249.159
 11
44.8429
 21
249.757
  0
LINE
  8
0
 10
44.8429
 20
249.757
 11
44.9606
 21
250.373
  0
LINE
  8
0
 10
44.9606
 20
250.373
 11
45
 21
251
  0
LINE
  8
0
 10
45
 20
251
 11
45
 21
301
  0
LINE
  8
0
 10
45
 20
301
 11
44.9606
 21
301.627
  0
LINE
  8
0
 10
44.9606
 20
301.627
 11
44.8429
 21
302.243
  0
LINE
  8
0
 10
44.8429
 20
302.243
 11
44.6489
 21
302.841
  0
LINE
  8
0
 10
44.6489
 20
302.841
 11
44.3815
 21
303.409
  0
LINE
  8
0
 10
44.3815
 20
303.409
 11
44.0451
 21
303.939
  0
LINE
  8
0
 10
44.0451
 20
303.939
 11
43.6448
 21
304.423
  0
LINE
  8
0
 10
43.6448
 20
304.423
 11
43.1871
 21
304.853
  0
LINE
  8
0
 10
43.1871
 20
304.853
 11
42.6791
 21
305.222
  0
LINE
  8
0
 10
42.6791
 20
305.222
 11
42.1289
 21
305.524
  0
LINE
  8
0
 10
42.1289
 20
305.524
 11
41.5451
 21
305.755
  0
LINE
  8
0
 10
41.5451
 20
305.755
 11
40.9369
 21
305.911
  0
LINE
  8
0
 10
40.9369
 20
305.911
 11
40.3139
 21
305.99
  0
LINE
  8
0
 10
40.3139
 20
305.99
 11
-40.3139
 21
305.99
  0
LINE
  8
0
 10
-40.3139
 20
305.99
 11
-40.9369
 21
305.911
  0
LINE
  8
0
 10
-40.9369
 20
305.911
 11
-41.5451
 21
305.755
  0
LINE
  8
0
 10
-41.5451
 20
305.755
 11
-42.1289
 21
305.524
  0
LINE
  8
0
 10
-42.1289
 20
305.524
 11
-42.6791
 21
305.222
  0
LINE
  8
0
 10
-42.6791
 20
305.222
 11
-43.1871
 21
304.853
  0
LINE
  8
0
 10
-43.1871
 20
304.853
 11
-43.6448
 21
304.423
  0
LINE
  8
0
 10
-43.6448
 20
304.423
 11
-44.0451
 21
303.939
  0
LINE
  8
0
 10
-44.0451
 20
303.939
 11
-44.3815
 21
303.409
  0
LINE
  8
0
 10
-44.3815
 20
303.409
 11
-44.6489
 21
302.841
  0
LINE
  8
0
 10
-44.6489
 20
302.841
 11
-44.8429
 21
302.243
  0
LINE
  8
0
 10
-44.8429
 20
302.243
 11
-44.9606
 21
301.627
  0
LINE
  8
0
 10
-44.9606
 20
301.627
 11
-45
 21
301
  0
LINE
  8
0
 10
-45
 20
301
 11
-45
 21
251
  0
LINE
  8
0
 10
-45
 20
251
 11
-44.9606
 21
250.373
  0
LINE
  8
0
 10
-44.9606
 20
250.373
 11
-44.8429
 21
249.757
  0
LINE
  8
0
 10
-44.8429
 20
249.757
 11
-44.6489
 21
249.159
  0
LINE
  8
0
 10
-44.6489
 20
249.159
 11
-44.3815
 21
248.591
  0
LINE
  8
0
 10
-44.3815
 20
248.591
 11
-44.0451
 21
248.061
  0
LINE
  8
0
 10
-44.0451
 20
248.061
 11
-43.6448
 21
247.577
  0
LINE
  8
0
 10
-43.6448
 20
247.577
 11
-43.1871
 21
247.147
  0
LINE
  8
0
 10
-43.1871
 20
247.147
 11
-42.6791
 21
246.778
  0
LINE
  8
0
 10
-42.6791
 20
246.778
 11
-42.1289
 21
246.476
  0
LINE
  8
0
 10
-42.1289
 20
246.476
 11
-41.5451
 21
246.245
  0
LINE
  8
0
 10
-41.5451
 20
246.245
 11
-40.9369
 21
246.089
  0
LINE
  8
0
 10
-40.9369
 20
246.089
 11
-40.3139
 21
246.01
  0
LINE
  8
0
 10
-40.3139
 20
246.01
 11
40.3139
 21
246.01
  0
LINE
  8
0
 10
40.3139
 20
246.01
 11
40.9369
 21
246.089
  0
LINE
  8
0
 10
-40.0375
 20
246.681
 11
-40.6079
 21
246.753
  0
LINE
  8
0
 10
-40.6079
 20
246.753
 11
-41.1648
 21
246.896
  0
LINE
  8
0
 10
-41.1648
 20
246.896
 11
-41.6994
 21
247.107
  0
LINE
  8
0
 10
-41.6994
 20
247.107
 11
-42.2032
 21
247.384
  0
LINE
  8
0
 10
-42.2032
 20
247.384
 11
-42.6684
 21
247.722
  0
LINE
  8
0
 10
-42.6684
 20
247.722
 11
-43.0875
 21
248.116
  0
LINE
  8
0
 10
-43.0875
 20
248.116
 11
-43.454
 21
248.559
  0
LINE
  8
0
 10
-43.454
 20
248.559
 11
-43.7621
 21
249.044
  0
LINE
  8
0
 10
-43.7621
 20
249.044
 11
-44.0069
 21
249.565
  0
LINE
  8
0
 10
-44.0069
 20
249.565
 11
-44.1846
 21
250.111
  0
LINE
  8
0
 10
-44.1846
 20
250.111
 11
-44.2923
 21
250.676
  0
LINE
  8
0
 10
-44.2923
 20
250.676
 11
-44.3284
 21
251.25
  0
LINE
  8
0
 10
-44.3284
 20
251.25
 11
-44.3284
 21
300.75
  0
LINE
  8
0
 10
-44.3284
 20
300.75
 11
-44.2923
 21
301.324
  0
LINE
  8
0
 10
-44.2923
 20
301.324
 11
-44.1846
 21
301.889
  0
LINE
  8
0
 10
-44.1846
 20
301.889
 11
-44.0069
 21
302.435
  0
LINE
  8
0
 10
-44.0069
 20
302.435
 11
-43.7621
 21
302.956
  0
LINE
  8
0
 10
-43.7621
 20
302.956
 11
-43.454
 21
303.441
  0
LINE
  8
0
 10
-43.454
 20
303.441
 11
-43.0875
 21
303.884
  0
LINE
  8
0
 10
-43.0875
 20
303.884
 11
-42.6684
 21
304.278
  0
LINE
  8
0
 10
-42.6684
 20
304.278
 11
-42.2032
 21
304.616
  0
LINE
  8
0
 10
-42.2032
 20
304.616
 11
-41.6994
 21
304.893
  0
LINE
  8
0
 10
-41.6994
 20
304.893
 11
-41.1648
 21
305.104
  0
LINE
  8
0
 10
-41.1648
 20
305.104
 11
-40.6079
 21
305.247
  0
LINE
  8
0
 10
-40.6079
 20
305.247
 11
-40.0375
 21
305.319
  0
LINE
  8
0
 10
-40.0375
 20
305.319
 11
40.0375
 21
305.319
  0
LINE
  8
0
 10
40.0375
 20
305.319
 11
40.6079
 21
305.247
  0
LINE
  8
0
 10
40.6079
 20
305.247
 11
41.1648
 21
305.104
  0
LINE
  8
0
 10
41.1648
 20
305.104
 11
41.6994
 21
304.893
  0
LINE
  8
0
 10
41.6994
 20
304.893
 11
42.2032
 21
304.616
  0
LINE
  8
0
 10
42.2032
 20
304.616
 11
42.6684
 21
304.278
  0
LINE
  8
0
 10
42.6684
 20
304.278
 11
43.0875
 21
303.884
  0
LINE
  8
0
 10
43.0875
 20
303.884
 11
43.454
 21
303.441
  0
LINE
  8
0
 10
43.454
 20
303.441
 11
43.7621
 21
302.956
  0
LINE
  8
0
 10
43.7621
 20
302.956
 11
44.0069
 21
302.435
  0
LINE
  8
0
 10
44.0069
 20
302.435
 11
44.1846
 21
301.889
  0
LINE
  8
0
 10
44.1846
 20
301.889
 11
44.2923
 21
301.324
  0
LINE
  8
0
 10
44.2923
 20
301.324
 11
44.3284
 21
300.75
  0
LINE
  8
0
 10
44.3284
 20
300.75
 11
44.3284
 21
251.25
  0
LINE
  8
0
 10
44.3284
 20
251.25
 11
44.2923
 21
250.676
  0
LINE
  8
0
 10
44.2923
 20
250.676
 11
44.1846
 21
250.111
  0
LINE
  8
0
 10
44.1846
 20
250.111
 11
44.0069
 21
249.565
  0
LINE
  8
0
 10
44.0069
 20
249.565
 11
43.7621
 21
249.044
  0
LINE
  8
0
 10
43.7621
 20
249.044
 11
43.454
 21
248.559
  0
LINE
  8
0
 10
43.454
 20
248.559
 11
43.0875
 21
248.116
  0
LINE
  8
0
 10
43.0875
 20
248.116
 11
42.6684
 21
247.722
  0
LINE
  8
0
 10
42.6684
 20
247.722
 11
42.2032
 21
247.384
  0
LINE
  8
0
 10
42.2032
 20
247.384
 11
41.6994
 21
247.107
  0
LINE
  8
0
 10
41.6994
 20
247.107
 11
41.1648
 21
246.896
  0
LINE
  8
0
 10
41.1648
 20
246.896
 11
40.6079
 21
246.753
  0
LINE
  8
0
 10
40.6079
 20
246.753
 11
40.0375
 21
246.681
  0
LINE
  8
0
 10
40.0375
 20
246.681
 11
-40.0375
 21
246.681
  0
LINE
  8
0
 10
40.9369
 20
177.089
 11
41.5451
 21
177.245
  0
LINE
  8
0
 10
41.5451
 20
177.245
 11
42.1289
 21
177.476
  0
LINE
  8
0
 10
42.1289
 20
177.476
 11
42.6791
 21
177.778
  0
LINE
  8
0
 10
42.6791
 20
177.778
 11
43.1871
 21
178.147
  0
LINE
  8
0
 10
43.1871
 20
178.147
 11
43.6448
 21
178.577
  0
LINE
  8
0
 10
43.6448
 20
178.577
 11
44.0451
 21
179.061
  0
LINE
  8
0
 10
44.0451
 20
179.061
 11
44.3815
 21
179.591
  0
LINE
  8
0
 10
44.3815
 20
179.591
 11
44.6489
 21
180.159
  0
LINE
  8
0
 10
44.6489
 20
180.159
 11
44.8429
 21
180.757
  0
LINE
  8
0
 10
44.8429
 20
180.757
 11
44.9606
 21
181.373
  0
LINE
  8
0
 10
44.9606
 20
181.373
 11
45
 21
182
  0
LINE
  8
0
 10
45
 20
182
 11
45
 21
232
  0
LINE
  8
0
 10
45
 20
232
 11
44.9606
 21
232.627
  0
LINE
  8
0
 10
44.9606
 20
232.627
 11
44.8429
 21
233.243
  0
LINE
  8
0
 10
44.8429
 20
233.243
 11
44.6489
 21
233.841
  0
LINE
  8
0
 10
44.6489
 20
233.841
 11
44.3815
 21
234.409
  0
LINE
  8
0
 10
44.3815
 20
234.409
 11
44.0451
 21
234.939
  0
LINE
  8
0
 10
44.0451
 20
234.939
 11
43.6448
 21
235.423
  0
LINE
  8
0
 10
43.6448
 20
235.423
 11
43.1871
 21
235.853
  0
LINE
  8
0
 10
43.1871
 20
235.853
 11
42.6791
 21
236.222
  0
LINE
  8
0
 10
42.6791
 20
236.222
 11
42.1289
 21
236.524
  0
LINE
  8
0
 10
42.1289
 20
236.524
 11
41.5451
 21
236.755
  0
LINE
  8
0
 10
41.5451
 20
236.755
 11
40.9369
 21
236.911
  0
LINE
  8
0
 10
40.9369
 20
236.911
 11
40.3139
 21
236.99
  0
LINE
  8
0
 10
40.3139
 20
236.99
 11
-40.3139
 21
236.99
  0
LINE
  8
0
 10
-40.3139
 20
236.99
 11
-40.9369
 21
236.911
  0
LINE
  8
0
 10
-40.9369
 20
236.911
 11
-41.5451
 21
236.755
  0
LINE
  8
0
 10
-41.5451
 20
236.755
 11
-42.1289
 21
236.524
  0
LINE
  8
0
 10
-42.1289
 20
236.524
 11
-42.6791
 21
236.222
  0
LINE
  8
0
 10
-42.6791
 20
236.222
 11
-43.1871
 21
235.853
  0
LINE
  8
0
 10
-43.1871
 20
235.853
 11
-43.6448
 21
235.423
  0
LINE
  8
0
 10
-43.6448
 20
235.423
 11
-44.0451
 21
234.939
  0
LINE
  8
0
 10
-44.0451
 20
234.939
 11
-44.3815
 21
234.409
  0
LINE
  8
0
 10
-44.3815
 20
234.409
 11
-44.6489
 21
233.841
  0
LINE
  8
0
 10
-44.6489
 20
233.841
 11
-44.8429
 21
233.243
  0
LINE
  8
0
 10
-44.8429
 20
233.243
 11
-44.9606
 21
232.627
  0
LINE
  8
0
 10
-44.9606
 20
232.627
 11
-45
 21
232
  0
LINE
  8
0
 10
-45
 20
232
 11
-45
 21
182
  0
LINE
  8
0
 10
-45
 20
182
 11
-44.9606
 21
181.373
  0
LINE
  8
0
 10
-44.9606
 20
181.373
 11
-44.8429
 21
180.757
  0
LINE
  8
0
 10
-44.8429
 20
180.757
 11
-44.6489
 21
180.159
  0
LINE
  8
0
 10
-44.6489
 20
180.159
 11
-44.3815
 21
179.591
  0
LINE
  8
0
 10
-44.3815
 20
179.591
 11
-44.0451
 21
179.061
  0
LINE
  8
0
 10
-44.0451
 20
179.061
 11
-43.6448
 21
178.577
  0
LINE
  8
0
 10
-43.6448
 20
178.577
 11
-43.1871
 21
178.147
  0
LINE
  8
0
 10
-43.1871
 20
178.147
 11
-42.6791
 21
177.778
  0
LINE
  8
0
 10
-42.6791
 20
177.778
 11
-42.1289
 21
177.476
  0
LINE
  8
0
 10
-42.1289
 20
177.476
 11
-41.5451
 21
177.245
  0
LINE
  8
0
 10
-41.5451
 20
177.245
 11
-40.9369
 21
177.089
  0
LINE
  8
0
 10
-40.9369
 20
177.089
 11
-40.3139
 21
177.01
  0
LINE
  8
0
 10
-40.3139
 20
177.01
 11
40.3139
 21
177.01
  0
LINE
  8
0
 10
40.3139
 20
177.01
 11
40.9369
 21
177.089
  0
LINE
  8
0
 10
-39.8825
 20
180.145
 11
-40.1453
 21
180.178
  0
LINE
  8
0
 10
-40.1453
 20
180.178
 11
-40.4019
 21
180.244
  0
LINE
  8
0
 10
-40.4019
 20
180.244
 11
-40.6482
 21
180.341
  0
LINE
  8
0
 10
-40.6482
 20
180.341
 11
-40.8804
 21
180.469
  0
LINE
  8
0
 10
-40.8804
 20
180.469
 11
-41.0947
 21
180.625
  0
LINE
  8
0
 10
-41.0947
 20
180.625
 11
-41.2879
 21
180.806
  0
LINE
  8
0
 10
-41.2879
 20
180.806
 11
-41.4567
 21
181.01
  0
LINE
  8
0
 10
-41.4567
 20
181.01
 11
-41.5987
 21
181.234
  0
LINE
  8
0
 10
-41.5987
 20
181.234
 11
-41.7115
 21
181.473
  0
LINE
  8
0
 10
-41.7115
 20
181.473
 11
-41.7934
 21
181.725
  0
LINE
  8
0
 10
-41.7934
 20
181.725
 11
-41.843
 21
181.986
  0
LINE
  8
0
 10
-41.843
 20
181.986
 11
-41.8596
 21
182.25
  0
LINE
  8
0
 10
-41.8596
 20
182.25
 11
-41.8596
 21
231.75
  0
LINE
  8
0
 10
-41.8596
 20
231.75
 11
-41.843
 21
232.014
  0
LINE
  8
0
 10
-41.843
 20
232.014
 11
-41.7934
 21
232.275
  0
LINE
  8
0
 10
-41.7934
 20
232.275
 11
-41.7115
 21
232.527
  0
LINE
  8
0
 10
-41.7115
 20
232.527
 11
-41.5987
 21
232.766
  0
LINE
  8
0
 10
-41.5987
 20
232.766
 11
-41.4567
 21
232.99
  0
LINE
  8
0
 10
-41.4567
 20
232.99
 11
-41.2879
 21
233.194
  0
LINE
  8
0
 10
-41.2879
 20
233.194
 11
-41.0947
 21
233.375
  0
LINE
  8
0
 10
-41.0947
 20
233.375
 11
-40.8804
 21
233.531
  0
LINE
  8
0
 10
-40.8804
 20
233.531
 11
-40.6482
 21
233.659
  0
LINE
  8
0
 10
-40.6482
 20
233.659
 11
-40.4019
 21
233.756
  0
LINE
  8
0
 10
-40.4019
 20
233.756
 11
-40.1453
 21
233.822
  0
LINE
  8
0
 10
-40.1453
 20
233.822
 11
-39.8825
 21
233.855
  0
LINE
  8
0
 10
-39.8825
 20
233.855
 11
39.8825
 21
233.855
  0
LINE
  8
0
 10
39.8825
 20
233.855
 11
40.1453
 21
233.822
  0
LINE
  8
0
 10
40.1453
 20
233.822
 11
40.4019
 21
233.756
  0
LINE
  8
0
 10
40.4019
 20
233.756
 11
40.6482
 21
233.659
  0
LINE
  8
0
 10
40.6482
 20
233.659
 11
40.8804
 21
233.531
  0
LINE
  8
0
 10
40.8804
 20
233.531
 11
41.0947
 21
233.375
  0
LINE
  8
0
 10
41.0947
 20
233.375
 11
41.2879
 21
233.194
  0
LINE
  8
0
 10
41.2879
 20
233.194
 11
41.4567
 21
232.99
  0
LINE
  8
0
 10
41.4567
 20
232.99
 11
41.5987
 21
232.766
  0
LINE
  8
0
 10
41.5987
 20
232.766
 11
41.7115
 21
232.527
  0
LINE
  8
0
 10
41.7115
 20
232.527
 11
41.7934
 21
232.275
  0
LINE
  8
0
 10
41.7934
 20
232.275
 11
41.843
 21
232.014
  0
LINE
  8
0
 10
41.843
 20
232.014
 11
41.8596
 21
231.75
  0
LINE
  8
0
 10
41.8596
 20
231.75
 11
41.8596
 21
182.25
  0
LINE
  8
0
 10
41.8596
 20
182.25
 11
41.843
 21
181.986
  0
LINE
  8
0
 10
41.843
 20
181.986
 11
41.7934
 21
181.725
  0
LINE
  8
0
 10
41.7934
 20
181.725
 11
41.7115
 21
181.473
  0
LINE
  8
0
 10
41.7115
 20
181.473
 11
41.5987
 21
181.234
  0
LINE
  8
0
 10
41.5987
 20
181.234
 11
41.4567
 21
181.01
  0
LINE
  8
0
 10
41.4567
 20
181.01
 11
41.2879
 21
180.806
  0
LINE
  8
0
 10
41.2879
 20
180.806
 11
41.0947
 21
180.625
  0
LINE
  8
0
 10
41.0947
 20
180.625
 11
40.8804
 21
180.469
  0
LINE
  8
0
 10
40.8804
 20
180.469
 11
40.6482
 21
180.341
  0
LINE
  8
0
 10
40.6482
 20
180.341
 11
40.4019
 21
180.244
  0
LINE
  8
0
 10
40.4019
 20
180.244
 11
40.1453
 21
180.178
  0
LINE
  8
0
 10
40.1453
 20
180.178
 11
39.8825
 21
180.145
  0
LINE
  8
0
 10
39.8825
 20
180.145
 11
-39.8825
 21
180.145
  0
ENDSEC
  0
SECTION
  2
OBJECTS
  0
DICTIONARY
  0
ENDSEC
  0
EOF
