<?xml version="1.0" standalone="no"?>
<!DOCTYPE svg PUBLIC "-//W3C//DTD SVG 1.1//EN" "http://www.w3.org/Graphics/SVG/1.1/DTD/svg11.dtd">
<svg width="30mm" height="198mm" viewBox="-15 -375 30 198" xmlns="http://www.w3.org/2000/svg" version="1.1">
<title>OpenSCAD Model</title>
<path d="
M 10.9369,-315.089 L 11.5451,-315.245 L 12.1289,-315.476 L 12.6791,-315.778 L 13.1871,-316.147 L 13.6448,-316.577
 L 14.0451,-317.061 L 14.3815,-317.591 L 14.6489,-318.159 L 14.8429,-318.757 L 14.9606,-319.373 L 15,-320
 L 15,-370 L 14.9606,-370.627 L 14.8429,-371.243 L 14.6489,-371.841 L 14.3815,-372.409 L 14.0451,-372.939
 L 13.6448,-373.423 L 13.1871,-373.853 L 12.6791,-374.222 L 12.1289,-374.524 L 11.5451,-374.755 L 10.9369,-374.911
 L 10.3139,-374.99 L -10.3139,-374.99 L -10.9369,-374.911 L -11.5451,-374.755 L -12.1289,-374.524 L -12.6791,-374.222
 L -13.1871,-373.853 L -13.6448,-373.423 L -14.0451,-372.939 L -14.3815,-372.409 L -14.6489,-371.841 L -14.8429,-371.243
 L -14.9606,-370.627 L -15,-370 L -15,-320 L -14.9606,-319.373 L -14.8429,-318.757 L -14.6489,-318.159
 L -14.3815,-317.591 L -14.0451,-317.061 L -13.6448,-316.577 L -13.1871,-316.147 L -12.6791,-315.778 L -12.1289,-315.476
 L -11.5451,-315.245 L -10.9369,-315.089 L -10.3139,-315.01 L 10.3139,-315.01 z
M -9.75116,-316.508 L -10.2495,-316.571 L -10.7361,-316.696 L -11.2031,-316.881 L -11.6433,-317.123 L -12.0497,-317.418
 L -12.4159,-317.762 L -12.7361,-318.149 L -13.0052,-318.573 L -13.2191,-319.028 L -13.3743,-319.505 L -13.4684,-319.999
 L -13.5,-320.5 L -13.5,-369.5 L -13.4684,-370.001 L -13.3743,-370.495 L -13.2191,-370.972 L -13.0052,-371.427
 L -12.7361,-371.851 L -12.4159,-372.238 L -12.0497,-372.582 L -11.6433,-372.877 L -11.2031,-373.119 L -10.7361,-373.304
 L -10.2495,-373.429 L -9.75116,-373.492 L 9.75116,-373.492 L 10.2495,-373.429 L 10.7361,-373.304 L 11.2031,-373.119
 L 11.6433,-372.877 L 12.0497,-372.582 L 12.4159,-372.238 L 12.7361,-371.851 L 13.0052,-371.427 L 13.2191,-370.972
 L 13.3743,-370.495 L 13.4684,-370.001 L 13.5,-369.5 L 13.5,-320.5 L 13.4684,-319.999 L 13.3743,-319.505
 L 13.2191,-319.028 L 13.0052,-318.573 L 12.7361,-318.149 L 12.4159,-317.762 L 12.0497,-317.418 L 11.6433,-317.123
 L 11.2031,-316.881 L 10.7361,-316.696 L 10.2495,-316.571 L 9.75116,-316.508 z
M 10.9369,-246.089 L 11.5451,-246.245 L 12.1289,-246.476 L 12.6791,-246.778 L 13.1871,-247.147 L 13.6448,-247.577
 L 14.0451,-248.061 L 14.3815,-248.591 L 14.6489,-249.159 L 14.8429,-249.757 L 14.9606,-250.373 L 15,-251
 L 15,-301 L 14.9606,-301.627 L 14.8429,-302.243 L 14.6489,-302.841 L 14.3815,-303.409 L 14.0451,-303.939
 L 13.6448,-304.423 L 13.1871,-304.853 L 12.6791,-305.222 L 12.1289,-305.524 L 11.5451,-305.755 L 10.9369,-305.911
 L 10.3139,-305.99 L -10.3139,-305.99 L -10.9369,-305.911 L -11.5451,-305.755 L -12.1289,-305.524 L -12.6791,-305.222
 L -13.1871,-304.853 L -13.6448,-304.423 L -14.0451,-303.939 L -14.3815,-303.409 L -14.6489,-302.841 L -14.8429,-302.243
 L -14.9606,-301.627 L -15,-301 L -15,-251 L -14.9606,-250.373 L -14.8429,-249.757 L -14.6489,-249.159
 L -14.3815,-248.591 L -14.0451,-248.061 L -13.6448,-247.577 L -13.1871,-247.147 L -12.6791,-246.778 L -12.1289,-246.476
 L -11.5451,-246.245 L -10.9369,-246.089 L -10.3139,-246.01 L 10.3139,-246.01 z
M -9.69545,-248.393 L -10.0833,-248.442 L -10.4619,-248.539 L -10.8254,-248.683 L -11.168,-248.872 L -11.4842,-249.101
 L -11.7692,-249.369 L -12.0184,-249.67 L -12.2279,-250 L -12.3943,-250.354 L -12.5151,-250.726 L -12.5884,-251.11
 L -12.6129,-251.5 L -12.6129,-300.5 L -12.5884,-300.89 L -12.5151,-301.274 L -12.3943,-301.646 L -12.2279,-302
 L -12.0184,-302.33 L -11.7692,-302.631 L -11.4842,-302.899 L -11.168,-303.128 L -10.8254,-303.317 L -10.4619,-303.461
 L -10.0833,-303.558 L -9.69545,-303.607 L 9.69545,-303.607 L 10.0833,-303.558 L 10.4619,-303.461 L 10.8254,-303.317
 L 11.168,-303.128 L 11.4842,-302.899 L 11.7692,-302.631 L 12.0184,-302.33 L 12.2279,-302 L 12.3943,-301.646
 L 12.5151,-301.274 L 12.5884,-300.89 L 12.6129,-300.5 L 12.6129,-251.5 L 12.5884,-251.11 L 12.5151,-250.726
 L 12.3943,-250.354 L 12.2279,-250 L 12.0184,-249.67 L 11.7692,-249.369 L 11.4842,-249.101 L 11.168,-248.872
 L 10.8254,-248.683 L 10.4619,-248.539 L 10.0833,-248.442 L 9.69545,-248.393 z
M 10.9369,-177.089 L 11.5451,-177.245 L 12.1289,-177.476 L 12.6791,-177.778 L 13.1871,-178.147 L 13.6448,-178.577
 L 14.0451,-179.061 L 14.3815,-179.591 L 14.6489,-180.159 L 14.8429,-180.757 L 14.9606,-181.373 L 15,-182
 L 15,-232 L 14.9606,-232.627 L 14.8429,-233.243 L 14.6489,-233.841 L 14.3815,-234.409 L 14.0451,-234.939
 L 13.6448,-235.423 L 13.1871,-235.853 L 12.6791,-236.222 L 12.1289,-236.524 L 11.5451,-236.755 L 10.9369,-236.911
 L 10.3139,-236.99 L -10.3139,-236.99 L -10.9369,-236.911 L -11.5451,-236.755 L -12.1289,-236.524 L -12.6791,-236.222
 L -13.1871,-235.853 L -13.6448,-235.423 L -14.0451,-234.939 L -14.3815,-234.409 L -14.6489,-233.841 L -14.8429,-233.243
 L -14.9606,-232.627 L -15,-232 L -15,-182 L -14.9606,-181.373 L -14.8429,-180.757 L -14.6489,-180.159
 L -14.3815,-179.591 L -14.0451,-179.061 L -13.6448,-178.577 L -13.1871,-178.147 L -12.6791,-177.778 L -12.1289,-177.476
 L -11.5451,-177.245 L -10.9369,-177.089 L -10.3139,-177.01 L 10.3139,-177.01 z
M 7.36592,-227.369 L 7.09988,-227.403 L 6.84015,-227.469 L 6.59084,-227.568 L 6.35585,-227.697 L 6.1389,-227.855
 L 5.94344,-228.038 L 5.77251,-228.245 L 5.62881,-228.471 L 5.51465,-228.714 L 5.43178,-228.969 L 5.38153,-229.232
 L 5.3647,-229.5 L 5.38153,-229.768 L 5.43178,-230.031 L 5.51465,-230.286 L 5.62881,-230.529 L 5.77251,-230.755
 L 5.94344,-230.962 L 6.1389,-231.145 L 6.35585,-231.303 L 6.59084,-231.432 L 6.84015,-231.531 L 7.09988,-231.597
 L 7.36592,-231.631 L 7.63406,-231.631 L 7.9001,-231.597 L 8.15984,-231.531 L 8.40915,-231.432 L 8.64413,-231.303
 L 8.86108,-231.145 L 9.05655,-230.962 L 9.22748,-230.755 L 9.37117,-230.529 L 9.48534,-230.286 L 9.56821,-230.031
 L 9.61845,-229.768 L 9.63528,-229.5 L 9.61845,-229.232 L 9.56821,-228.969 L 9.48534,-228.714 L 9.37117,-228.471
 L 9.22748,-228.245 L 9.05655,-228.038 L 8.86108,-227.855 L 8.64413,-227.697 L 8.40915,-227.568 L 8.15984,-227.469
 L 7.9001,-227.403 L 7.63406,-227.369 z
M -7.63406,-227.369 L -7.9001,-227.403 L -8.15984,-227.469 L -8.40915,-227.568 L -8.64413,-227.697 L -8.86108,-227.855
 L -9.05655,-228.038 L -9.22748,-228.245 L -9.37117,-228.471 L -9.48534,-228.714 L -9.56821,-228.969 L -9.61845,-229.232
 L -9.63528,-229.5 L -9.61845,-229.768 L -9.56821,-230.031 L -9.48534,-230.286 L -9.37117,-230.529 L -9.22748,-230.755
 L -9.05655,-230.962 L -8.86108,-231.145 L -8.64413,-231.303 L -8.40915,-231.432 L -8.15984,-231.531 L -7.9001,-231.597
 L -7.63406,-231.631 L -7.36592,-231.631 L -7.09988,-231.597 L -6.84015,-231.531 L -6.59084,-231.432 L -6.35585,-231.303
 L -6.1389,-231.145 L -5.94344,-230.962 L -5.77251,-230.755 L -5.62881,-230.529 L -5.51465,-230.286 L -5.43178,-230.031
 L -5.38153,-229.768 L -5.3647,-229.5 L -5.38153,-229.232 L -5.43178,-228.969 L -5.51465,-228.714 L -5.62881,-228.471
 L -5.77251,-228.245 L -5.94344,-228.038 L -6.1389,-227.855 L -6.35585,-227.697 L -6.59084,-227.568 L -6.84015,-227.469
 L -7.09988,-227.403 L -7.36592,-227.369 z
M 7.36592,-182.369 L 7.09988,-182.403 L 6.84015,-182.469 L 6.59084,-182.568 L 6.35585,-182.697 L 6.1389,-182.855
 L 5.94344,-183.038 L 5.77251,-183.245 L 5.62881,-183.471 L 5.51465,-183.714 L 5.43178,-183.969 L 5.38153,-184.232
 L 5.3647,-184.5 L 5.38153,-184.768 L 5.43178,-185.031 L 5.51465,-185.286 L 5.62881,-185.529 L 5.77251,-185.755
 L 5.94344,-185.962 L 6.1389,-186.145 L 6.35585,-186.303 L 6.59084,-186.432 L 6.84015,-186.531 L 7.09988,-186.597
 L 7.36592,-186.631 L 7.63406,-186.631 L 7.9001,-186.597 L 8.15984,-186.531 L 8.40915,-186.432 L 8.64413,-186.303
 L 8.86108,-186.145 L 9.05655,-185.962 L 9.22748,-185.755 L 9.37117,-185.529 L 9.48534,-185.286 L 9.56821,-185.031
 L 9.61845,-184.768 L 9.63528,-184.5 L 9.61845,-184.232 L 9.56821,-183.969 L 9.48534,-183.714 L 9.37117,-183.471
 L 9.22748,-183.245 L 9.05655,-183.038 L 8.86108,-182.855 L 8.64413,-182.697 L 8.40915,-182.568 L 8.15984,-182.469
 L 7.9001,-182.403 L 7.63406,-182.369 z
M -7.63406,-182.369 L -7.9001,-182.403 L -8.15984,-182.469 L -8.40915,-182.568 L -8.64413,-182.697 L -8.86108,-182.855
 L -9.05655,-183.038 L -9.22748,-183.245 L -9.37117,-183.471 L -9.48534,-183.714 L -9.56821,-183.969 L -9.61845,-184.232
 L -9.63528,-184.5 L -9.61845,-184.768 L -9.56821,-185.031 L -9.48534,-185.286 L -9.37117,-185.529 L -9.22748,-185.755
 L -9.05655,-185.962 L -8.86108,-186.145 L -8.64413,-186.303 L -8.40915,-186.432 L -8.15984,-186.531 L -7.9001,-186.597
 L -7.63406,-186.631 L -7.36592,-186.631 L -7.09988,-186.597 L -6.84015,-186.531 L -6.59084,-186.432 L -6.35585,-186.303
 L -6.1389,-186.145 L -5.94344,-185.962 L -5.77251,-185.755 L -5.62881,-185.529 L -5.51465,-185.286 L -5.43178,-185.031
 L -5.38153,-184.768 L -5.3647,-184.5 L -5.38153,-184.232 L -5.43178,-183.969 L -5.51465,-183.714 L -5.62881,-183.471
 L -5.77251,-183.245 L -5.94344,-183.038 L -6.1389,-182.855 L -6.35585,-182.697 L -6.59084,-182.568 L -6.84015,-182.469
 L -7.09988,-182.403 L -7.36592,-182.369 z
" stroke="black" fill="lightgray" stroke-width="0.5"/>
</svg>
