  0
SECTION
  2
BLOCKS
  0
ENDSEC
  0
SECTION
  2
ENTITIES
  0
LINE
  8
0
 10
25.9369
 20
85.5886
 11
26.5451
 21
85.7447
  0
LINE
  8
0
 10
26.5451
 20
85.7447
 11
27.1289
 21
85.9759
  0
LINE
  8
0
 10
27.1289
 20
85.9759
 11
27.6791
 21
86.2784
  0
LINE
  8
0
 10
27.6791
 20
86.2784
 11
28.1871
 21
86.6474
  0
LINE
  8
0
 10
28.1871
 20
86.6474
 11
28.6448
 21
87.0773
  0
LINE
  8
0
 10
28.6448
 20
87.0773
 11
29.0451
 21
87.5611
  0
LINE
  8
0
 10
29.0451
 20
87.5611
 11
29.3815
 21
88.0912
  0
LINE
  8
0
 10
29.3815
 20
88.0912
 11
29.6489
 21
88.6594
  0
LINE
  8
0
 10
29.6489
 20
88.6594
 11
29.8429
 21
89.2566
  0
LINE
  8
0
 10
29.8429
 20
89.2566
 11
29.9606
 21
89.8733
  0
LINE
  8
0
 10
29.9606
 20
89.8733
 11
30
 21
90.5
  0
LINE
  8
0
 10
30
 20
90.5
 11
30
 21
125.5
  0
LINE
  8
0
 10
30
 20
125.5
 11
29.9606
 21
126.127
  0
LINE
  8
0
 10
29.9606
 20
126.127
 11
29.8429
 21
126.743
  0
LINE
  8
0
 10
29.8429
 20
126.743
 11
29.6489
 21
127.341
  0
LINE
  8
0
 10
29.6489
 20
127.341
 11
29.3815
 21
127.909
  0
LINE
  8
0
 10
29.3815
 20
127.909
 11
29.0451
 21
128.439
  0
LINE
  8
0
 10
29.0451
 20
128.439
 11
28.6448
 21
128.923
  0
LINE
  8
0
 10
28.6448
 20
128.923
 11
28.1871
 21
129.353
  0
LINE
  8
0
 10
28.1871
 20
129.353
 11
27.6791
 21
129.722
  0
LINE
  8
0
 10
27.6791
 20
129.722
 11
27.1289
 21
130.024
  0
LINE
  8
0
 10
27.1289
 20
130.024
 11
26.5451
 21
130.255
  0
LINE
  8
0
 10
26.5451
 20
130.255
 11
25.9369
 21
130.411
  0
LINE
  8
0
 10
25.9369
 20
130.411
 11
25.3139
 21
130.49
  0
LINE
  8
0
 10
25.3139
 20
130.49
 11
-25.3139
 21
130.49
  0
LINE
  8
0
 10
-25.3139
 20
130.49
 11
-25.9369
 21
130.411
  0
LINE
  8
0
 10
-25.9369
 20
130.411
 11
-26.5451
 21
130.255
  0
LINE
  8
0
 10
-26.5451
 20
130.255
 11
-27.1289
 21
130.024
  0
LINE
  8
0
 10
-27.1289
 20
130.024
 11
-27.6791
 21
129.722
  0
LINE
  8
0
 10
-27.6791
 20
129.722
 11
-28.1871
 21
129.353
  0
LINE
  8
0
 10
-28.1871
 20
129.353
 11
-28.5
 21
129.059
  0
LINE
  8
0
 10
-28.5
 20
129.059
 11
-28.5
 21
130.115
  0
LINE
  8
0
 10
-28.5
 20
130.115
 11
-31.5
 21
130.115
  0
LINE
  8
0
 10
-31.5
 20
130.115
 11
-31.5
 21
85.8852
  0
LINE
  8
0
 10
-31.5
 20
85.8852
 11
-28.5
 21
85.8852
  0
LINE
  8
0
 10
-28.5
 20
85.8852
 11
-28.5
 21
86.9413
  0
LINE
  8
0
 10
-28.5
 20
86.9413
 11
-28.1871
 21
86.6474
  0
LINE
  8
0
 10
-28.1871
 20
86.6474
 11
-27.6791
 21
86.2784
  0
LINE
  8
0
 10
-27.6791
 20
86.2784
 11
-27.1289
 21
85.9759
  0
LINE
  8
0
 10
-27.1289
 20
85.9759
 11
-26.5451
 21
85.7447
  0
LINE
  8
0
 10
-26.5451
 20
85.7447
 11
-25.9369
 21
85.5886
  0
LINE
  8
0
 10
-25.9369
 20
85.5886
 11
-25.3139
 21
85.5099
  0
LINE
  8
0
 10
-25.3139
 20
85.5099
 11
25.3139
 21
85.5099
  0
LINE
  8
0
 10
25.3139
 20
85.5099
 11
25.9369
 21
85.5886
  0
LINE
  8
0
 10
25.9369
 20
31.5886
 11
26.5451
 21
31.7447
  0
LINE
  8
0
 10
26.5451
 20
31.7447
 11
27.1289
 21
31.9759
  0
LINE
  8
0
 10
27.1289
 20
31.9759
 11
27.6791
 21
32.2784
  0
LINE
  8
0
 10
27.6791
 20
32.2784
 11
28.1871
 21
32.6474
  0
LINE
  8
0
 10
28.1871
 20
32.6474
 11
28.6448
 21
33.0773
  0
LINE
  8
0
 10
28.6448
 20
33.0773
 11
29.0451
 21
33.5611
  0
LINE
  8
0
 10
29.0451
 20
33.5611
 11
29.3815
 21
34.0912
  0
LINE
  8
0
 10
29.3815
 20
34.0912
 11
29.6489
 21
34.6594
  0
LINE
  8
0
 10
29.6489
 20
34.6594
 11
29.8429
 21
35.2566
  0
LINE
  8
0
 10
29.8429
 20
35.2566
 11
29.9606
 21
35.8733
  0
LINE
  8
0
 10
29.9606
 20
35.8733
 11
30
 21
36.5
  0
LINE
  8
0
 10
30
 20
36.5
 11
30
 21
71.5
  0
LINE
  8
0
 10
30
 20
71.5
 11
29.9606
 21
72.1267
  0
LINE
  8
0
 10
29.9606
 20
72.1267
 11
29.8429
 21
72.7434
  0
LINE
  8
0
 10
29.8429
 20
72.7434
 11
29.6489
 21
73.3406
  0
LINE
  8
0
 10
29.6489
 20
73.3406
 11
29.3815
 21
73.9088
  0
LINE
  8
0
 10
29.3815
 20
73.9088
 11
29.0451
 21
74.4389
  0
LINE
  8
0
 10
29.0451
 20
74.4389
 11
28.6448
 21
74.9227
  0
LINE
  8
0
 10
28.6448
 20
74.9227
 11
28.1871
 21
75.3526
  0
LINE
  8
0
 10
28.1871
 20
75.3526
 11
27.6791
 21
75.7216
  0
LINE
  8
0
 10
27.6791
 20
75.7216
 11
27.1289
 21
76.0241
  0
LINE
  8
0
 10
27.1289
 20
76.0241
 11
26.5451
 21
76.2553
  0
LINE
  8
0
 10
26.5451
 20
76.2553
 11
25.9369
 21
76.4114
  0
LINE
  8
0
 10
25.9369
 20
76.4114
 11
25.3139
 21
76.4901
  0
LINE
  8
0
 10
25.3139
 20
76.4901
 11
-25.3139
 21
76.4901
  0
LINE
  8
0
 10
-25.3139
 20
76.4901
 11
-25.9369
 21
76.4114
  0
LINE
  8
0
 10
-25.9369
 20
76.4114
 11
-26.5451
 21
76.2553
  0
LINE
  8
0
 10
-26.5451
 20
76.2553
 11
-27.1289
 21
76.0241
  0
LINE
  8
0
 10
-27.1289
 20
76.0241
 11
-27.6791
 21
75.7216
  0
LINE
  8
0
 10
-27.6791
 20
75.7216
 11
-28.1871
 21
75.3526
  0
LINE
  8
0
 10
-28.1871
 20
75.3526
 11
-28.6448
 21
74.9227
  0
LINE
  8
0
 10
-28.6448
 20
74.9227
 11
-29.0451
 21
74.4389
  0
LINE
  8
0
 10
-29.0451
 20
74.4389
 11
-29.3815
 21
73.9088
  0
LINE
  8
0
 10
-29.3815
 20
73.9088
 11
-29.6489
 21
73.3406
  0
LINE
  8
0
 10
-29.6489
 20
73.3406
 11
-29.8429
 21
72.7434
  0
LINE
  8
0
 10
-29.8429
 20
72.7434
 11
-29.9
 21
72.4442
  0
LINE
  8
0
 10
-29.9
 20
72.4442
 11
-31.5
 21
72.4442
  0
LINE
  8
0
 10
-31.5
 20
72.4442
 11
-31.5
 21
35.5558
  0
LINE
  8
0
 10
-31.5
 20
35.5558
 11
-29.9
 21
35.5558
  0
LINE
  8
0
 10
-29.9
 20
35.5558
 11
-29.8429
 21
35.2566
  0
LINE
  8
0
 10
-29.8429
 20
35.2566
 11
-29.6489
 21
34.6594
  0
LINE
  8
0
 10
-29.6489
 20
34.6594
 11
-29.3815
 21
34.0912
  0
LINE
  8
0
 10
-29.3815
 20
34.0912
 11
-29.0451
 21
33.5611
  0
LINE
  8
0
 10
-29.0451
 20
33.5611
 11
-28.6448
 21
33.0773
  0
LINE
  8
0
 10
-28.6448
 20
33.0773
 11
-28.1871
 21
32.6474
  0
LINE
  8
0
 10
-28.1871
 20
32.6474
 11
-27.6791
 21
32.2784
  0
LINE
  8
0
 10
-27.6791
 20
32.2784
 11
-27.1289
 21
31.9759
  0
LINE
  8
0
 10
-27.1289
 20
31.9759
 11
-26.5451
 21
31.7447
  0
LINE
  8
0
 10
-26.5451
 20
31.7447
 11
-25.9369
 21
31.5886
  0
LINE
  8
0
 10
-25.9369
 20
31.5886
 11
-25.3139
 21
31.5099
  0
LINE
  8
0
 10
-25.3139
 20
31.5099
 11
25.3139
 21
31.5099
  0
LINE
  8
0
 10
25.3139
 20
31.5099
 11
25.9369
 21
31.5886
  0
LINE
  8
0
 10
22.387
 20
67.2036
 11
22.1627
 21
67.2319
  0
LINE
  8
0
 10
22.1627
 20
67.2319
 11
21.9438
 21
67.2881
  0
LINE
  8
0
 10
21.9438
 20
67.2881
 11
21.7336
 21
67.3713
  0
LINE
  8
0
 10
21.7336
 20
67.3713
 11
21.5355
 21
67.4802
  0
LINE
  8
0
 10
21.5355
 20
67.4802
 11
21.3526
 21
67.6131
  0
LINE
  8
0
 10
21.3526
 20
67.6131
 11
21.1879
 21
67.7678
  0
LINE
  8
0
 10
21.1879
 20
67.7678
 11
21.0438
 21
67.942
  0
LINE
  8
0
 10
21.0438
 20
67.942
 11
20.9226
 21
68.1328
  0
LINE
  8
0
 10
20.9226
 20
68.1328
 11
20.8264
 21
68.3374
  0
LINE
  8
0
 10
20.8264
 20
68.3374
 11
20.7565
 21
68.5524
  0
LINE
  8
0
 10
20.7565
 20
68.5524
 11
20.7142
 21
68.7744
  0
LINE
  8
0
 10
20.7142
 20
68.7744
 11
20.7
 21
69
  0
LINE
  8
0
 10
20.7
 20
69
 11
20.7142
 21
69.2256
  0
LINE
  8
0
 10
20.7142
 20
69.2256
 11
20.7565
 21
69.4476
  0
LINE
  8
0
 10
20.7565
 20
69.4476
 11
20.8264
 21
69.6626
  0
LINE
  8
0
 10
20.8264
 20
69.6626
 11
20.9226
 21
69.8671
  0
LINE
  8
0
 10
20.9226
 20
69.8671
 11
21.0438
 21
70.058
  0
LINE
  8
0
 10
21.0438
 20
70.058
 11
21.1879
 21
70.2322
  0
LINE
  8
0
 10
21.1879
 20
70.2322
 11
21.3526
 21
70.3869
  0
LINE
  8
0
 10
21.3526
 20
70.3869
 11
21.5355
 21
70.5198
  0
LINE
  8
0
 10
21.5355
 20
70.5198
 11
21.7336
 21
70.6287
  0
LINE
  8
0
 10
21.7336
 20
70.6287
 11
21.9438
 21
70.7119
  0
LINE
  8
0
 10
21.9438
 20
70.7119
 11
22.1627
 21
70.7681
  0
LINE
  8
0
 10
22.1627
 20
70.7681
 11
22.387
 21
70.7964
  0
LINE
  8
0
 10
22.387
 20
70.7964
 11
22.613
 21
70.7964
  0
LINE
  8
0
 10
22.613
 20
70.7964
 11
22.8373
 21
70.7681
  0
LINE
  8
0
 10
22.8373
 20
70.7681
 11
23.0562
 21
70.7119
  0
LINE
  8
0
 10
23.0562
 20
70.7119
 11
23.2664
 21
70.6287
  0
LINE
  8
0
 10
23.2664
 20
70.6287
 11
23.4645
 21
70.5198
  0
LINE
  8
0
 10
23.4645
 20
70.5198
 11
23.6474
 21
70.3869
  0
LINE
  8
0
 10
23.6474
 20
70.3869
 11
23.8121
 21
70.2322
  0
LINE
  8
0
 10
23.8121
 20
70.2322
 11
23.9562
 21
70.058
  0
LINE
  8
0
 10
23.9562
 20
70.058
 11
24.0773
 21
69.8671
  0
LINE
  8
0
 10
24.0773
 20
69.8671
 11
24.1736
 21
69.6626
  0
LINE
  8
0
 10
24.1736
 20
69.6626
 11
24.2434
 21
69.4476
  0
LINE
  8
0
 10
24.2434
 20
69.4476
 11
24.2858
 21
69.2256
  0
LINE
  8
0
 10
24.2858
 20
69.2256
 11
24.3
 21
69
  0
LINE
  8
0
 10
24.3
 20
69
 11
24.2858
 21
68.7744
  0
LINE
  8
0
 10
24.2858
 20
68.7744
 11
24.2434
 21
68.5524
  0
LINE
  8
0
 10
24.2434
 20
68.5524
 11
24.1736
 21
68.3374
  0
LINE
  8
0
 10
24.1736
 20
68.3374
 11
24.0773
 21
68.1328
  0
LINE
  8
0
 10
24.0773
 20
68.1328
 11
23.9562
 21
67.942
  0
LINE
  8
0
 10
23.9562
 20
67.942
 11
23.8121
 21
67.7678
  0
LINE
  8
0
 10
23.8121
 20
67.7678
 11
23.6474
 21
67.6131
  0
LINE
  8
0
 10
23.6474
 20
67.6131
 11
23.4645
 21
67.4802
  0
LINE
  8
0
 10
23.4645
 20
67.4802
 11
23.2664
 21
67.3713
  0
LINE
  8
0
 10
23.2664
 20
67.3713
 11
23.0562
 21
67.2881
  0
LINE
  8
0
 10
23.0562
 20
67.2881
 11
22.8373
 21
67.2319
  0
LINE
  8
0
 10
22.8373
 20
67.2319
 11
22.613
 21
67.2036
  0
LINE
  8
0
 10
22.613
 20
67.2036
 11
22.387
 21
67.2036
  0
LINE
  8
0
 10
-22.613
 20
67.2036
 11
-22.8373
 21
67.2319
  0
LINE
  8
0
 10
-22.8373
 20
67.2319
 11
-23.0562
 21
67.2881
  0
LINE
  8
0
 10
-23.0562
 20
67.2881
 11
-23.2664
 21
67.3713
  0
LINE
  8
0
 10
-23.2664
 20
67.3713
 11
-23.4645
 21
67.4802
  0
LINE
  8
0
 10
-23.4645
 20
67.4802
 11
-23.6474
 21
67.6131
  0
LINE
  8
0
 10
-23.6474
 20
67.6131
 11
-23.8121
 21
67.7678
  0
LINE
  8
0
 10
-23.8121
 20
67.7678
 11
-23.9562
 21
67.942
  0
LINE
  8
0
 10
-23.9562
 20
67.942
 11
-24.0773
 21
68.1328
  0
LINE
  8
0
 10
-24.0773
 20
68.1328
 11
-24.1736
 21
68.3374
  0
LINE
  8
0
 10
-24.1736
 20
68.3374
 11
-24.2434
 21
68.5524
  0
LINE
  8
0
 10
-24.2434
 20
68.5524
 11
-24.2858
 21
68.7744
  0
LINE
  8
0
 10
-24.2858
 20
68.7744
 11
-24.3
 21
69
  0
LINE
  8
0
 10
-24.3
 20
69
 11
-24.2858
 21
69.2256
  0
LINE
  8
0
 10
-24.2858
 20
69.2256
 11
-24.2434
 21
69.4476
  0
LINE
  8
0
 10
-24.2434
 20
69.4476
 11
-24.1736
 21
69.6626
  0
LINE
  8
0
 10
-24.1736
 20
69.6626
 11
-24.0773
 21
69.8671
  0
LINE
  8
0
 10
-24.0773
 20
69.8671
 11
-23.9562
 21
70.058
  0
LINE
  8
0
 10
-23.9562
 20
70.058
 11
-23.8121
 21
70.2322
  0
LINE
  8
0
 10
-23.8121
 20
70.2322
 11
-23.6474
 21
70.3869
  0
LINE
  8
0
 10
-23.6474
 20
70.3869
 11
-23.4645
 21
70.5198
  0
LINE
  8
0
 10
-23.4645
 20
70.5198
 11
-23.2664
 21
70.6287
  0
LINE
  8
0
 10
-23.2664
 20
70.6287
 11
-23.0562
 21
70.7119
  0
LINE
  8
0
 10
-23.0562
 20
70.7119
 11
-22.8373
 21
70.7681
  0
LINE
  8
0
 10
-22.8373
 20
70.7681
 11
-22.613
 21
70.7964
  0
LINE
  8
0
 10
-22.613
 20
70.7964
 11
-22.387
 21
70.7964
  0
LINE
  8
0
 10
-22.387
 20
70.7964
 11
-22.1627
 21
70.7681
  0
LINE
  8
0
 10
-22.1627
 20
70.7681
 11
-21.9438
 21
70.7119
  0
LINE
  8
0
 10
-21.9438
 20
70.7119
 11
-21.7336
 21
70.6287
  0
LINE
  8
0
 10
-21.7336
 20
70.6287
 11
-21.5355
 21
70.5198
  0
LINE
  8
0
 10
-21.5355
 20
70.5198
 11
-21.3526
 21
70.3869
  0
LINE
  8
0
 10
-21.3526
 20
70.3869
 11
-21.1879
 21
70.2322
  0
LINE
  8
0
 10
-21.1879
 20
70.2322
 11
-21.0438
 21
70.058
  0
LINE
  8
0
 10
-21.0438
 20
70.058
 11
-20.9226
 21
69.8671
  0
LINE
  8
0
 10
-20.9226
 20
69.8671
 11
-20.8264
 21
69.6626
  0
LINE
  8
0
 10
-20.8264
 20
69.6626
 11
-20.7565
 21
69.4476
  0
LINE
  8
0
 10
-20.7565
 20
69.4476
 11
-20.7142
 21
69.2256
  0
LINE
  8
0
 10
-20.7142
 20
69.2256
 11
-20.7
 21
69
  0
LINE
  8
0
 10
-20.7
 20
69
 11
-20.7142
 21
68.7744
  0
LINE
  8
0
 10
-20.7142
 20
68.7744
 11
-20.7565
 21
68.5524
  0
LINE
  8
0
 10
-20.7565
 20
68.5524
 11
-20.8264
 21
68.3374
  0
LINE
  8
0
 10
-20.8264
 20
68.3374
 11
-20.9226
 21
68.1328
  0
LINE
  8
0
 10
-20.9226
 20
68.1328
 11
-21.0438
 21
67.942
  0
LINE
  8
0
 10
-21.0438
 20
67.942
 11
-21.1879
 21
67.7678
  0
LINE
  8
0
 10
-21.1879
 20
67.7678
 11
-21.3526
 21
67.6131
  0
LINE
  8
0
 10
-21.3526
 20
67.6131
 11
-21.5355
 21
67.4802
  0
LINE
  8
0
 10
-21.5355
 20
67.4802
 11
-21.7336
 21
67.3713
  0
LINE
  8
0
 10
-21.7336
 20
67.3713
 11
-21.9438
 21
67.2881
  0
LINE
  8
0
 10
-21.9438
 20
67.2881
 11
-22.1627
 21
67.2319
  0
LINE
  8
0
 10
-22.1627
 20
67.2319
 11
-22.387
 21
67.2036
  0
LINE
  8
0
 10
-22.387
 20
67.2036
 11
-22.613
 21
67.2036
  0
LINE
  8
0
 10
22.387
 20
37.2036
 11
22.1627
 21
37.2319
  0
LINE
  8
0
 10
22.1627
 20
37.2319
 11
21.9438
 21
37.2881
  0
LINE
  8
0
 10
21.9438
 20
37.2881
 11
21.7336
 21
37.3713
  0
LINE
  8
0
 10
21.7336
 20
37.3713
 11
21.5355
 21
37.4802
  0
LINE
  8
0
 10
21.5355
 20
37.4802
 11
21.3526
 21
37.6131
  0
LINE
  8
0
 10
21.3526
 20
37.6131
 11
21.1879
 21
37.7678
  0
LINE
  8
0
 10
21.1879
 20
37.7678
 11
21.0438
 21
37.942
  0
LINE
  8
0
 10
21.0438
 20
37.942
 11
20.9226
 21
38.1329
  0
LINE
  8
0
 10
20.9226
 20
38.1329
 11
20.8264
 21
38.3374
  0
LINE
  8
0
 10
20.8264
 20
38.3374
 11
20.7565
 21
38.5524
  0
LINE
  8
0
 10
20.7565
 20
38.5524
 11
20.7142
 21
38.7744
  0
LINE
  8
0
 10
20.7142
 20
38.7744
 11
20.7
 21
39
  0
LINE
  8
0
 10
20.7
 20
39
 11
20.7142
 21
39.2256
  0
LINE
  8
0
 10
20.7142
 20
39.2256
 11
20.7565
 21
39.4476
  0
LINE
  8
0
 10
20.7565
 20
39.4476
 11
20.8264
 21
39.6626
  0
LINE
  8
0
 10
20.8264
 20
39.6626
 11
20.9226
 21
39.8672
  0
LINE
  8
0
 10
20.9226
 20
39.8672
 11
21.0438
 21
40.058
  0
LINE
  8
0
 10
21.0438
 20
40.058
 11
21.1879
 21
40.2322
  0
LINE
  8
0
 10
21.1879
 20
40.2322
 11
21.3526
 21
40.3869
  0
LINE
  8
0
 10
21.3526
 20
40.3869
 11
21.5355
 21
40.5198
  0
LINE
  8
0
 10
21.5355
 20
40.5198
 11
21.7336
 21
40.6287
  0
LINE
  8
0
 10
21.7336
 20
40.6287
 11
21.9438
 21
40.7119
  0
LINE
  8
0
 10
21.9438
 20
40.7119
 11
22.1627
 21
40.7681
  0
LINE
  8
0
 10
22.1627
 20
40.7681
 11
22.387
 21
40.7964
  0
LINE
  8
0
 10
22.387
 20
40.7964
 11
22.613
 21
40.7964
  0
LINE
  8
0
 10
22.613
 20
40.7964
 11
22.8373
 21
40.7681
  0
LINE
  8
0
 10
22.8373
 20
40.7681
 11
23.0562
 21
40.7119
  0
LINE
  8
0
 10
23.0562
 20
40.7119
 11
23.2664
 21
40.6287
  0
LINE
  8
0
 10
23.2664
 20
40.6287
 11
23.4645
 21
40.5198
  0
LINE
  8
0
 10
23.4645
 20
40.5198
 11
23.6474
 21
40.3869
  0
LINE
  8
0
 10
23.6474
 20
40.3869
 11
23.8121
 21
40.2322
  0
LINE
  8
0
 10
23.8121
 20
40.2322
 11
23.9562
 21
40.058
  0
LINE
  8
0
 10
23.9562
 20
40.058
 11
24.0773
 21
39.8672
  0
LINE
  8
0
 10
24.0773
 20
39.8672
 11
24.1736
 21
39.6626
  0
LINE
  8
0
 10
24.1736
 20
39.6626
 11
24.2434
 21
39.4476
  0
LINE
  8
0
 10
24.2434
 20
39.4476
 11
24.2858
 21
39.2256
  0
LINE
  8
0
 10
24.2858
 20
39.2256
 11
24.3
 21
39
  0
LINE
  8
0
 10
24.3
 20
39
 11
24.2858
 21
38.7744
  0
LINE
  8
0
 10
24.2858
 20
38.7744
 11
24.2434
 21
38.5524
  0
LINE
  8
0
 10
24.2434
 20
38.5524
 11
24.1736
 21
38.3374
  0
LINE
  8
0
 10
24.1736
 20
38.3374
 11
24.0773
 21
38.1329
  0
LINE
  8
0
 10
24.0773
 20
38.1329
 11
23.9562
 21
37.942
  0
LINE
  8
0
 10
23.9562
 20
37.942
 11
23.8121
 21
37.7678
  0
LINE
  8
0
 10
23.8121
 20
37.7678
 11
23.6474
 21
37.6131
  0
LINE
  8
0
 10
23.6474
 20
37.6131
 11
23.4645
 21
37.4802
  0
LINE
  8
0
 10
23.4645
 20
37.4802
 11
23.2664
 21
37.3713
  0
LINE
  8
0
 10
23.2664
 20
37.3713
 11
23.0562
 21
37.2881
  0
LINE
  8
0
 10
23.0562
 20
37.2881
 11
22.8373
 21
37.2319
  0
LINE
  8
0
 10
22.8373
 20
37.2319
 11
22.613
 21
37.2036
  0
LINE
  8
0
 10
22.613
 20
37.2036
 11
22.387
 21
37.2036
  0
LINE
  8
0
 10
-22.613
 20
37.2036
 11
-22.8373
 21
37.2319
  0
LINE
  8
0
 10
-22.8373
 20
37.2319
 11
-23.0562
 21
37.2881
  0
LINE
  8
0
 10
-23.0562
 20
37.2881
 11
-23.2664
 21
37.3713
  0
LINE
  8
0
 10
-23.2664
 20
37.3713
 11
-23.4645
 21
37.4802
  0
LINE
  8
0
 10
-23.4645
 20
37.4802
 11
-23.6474
 21
37.6131
  0
LINE
  8
0
 10
-23.6474
 20
37.6131
 11
-23.8121
 21
37.7678
  0
LINE
  8
0
 10
-23.8121
 20
37.7678
 11
-23.9562
 21
37.942
  0
LINE
  8
0
 10
-23.9562
 20
37.942
 11
-24.0773
 21
38.1329
  0
LINE
  8
0
 10
-24.0773
 20
38.1329
 11
-24.1736
 21
38.3374
  0
LINE
  8
0
 10
-24.1736
 20
38.3374
 11
-24.2434
 21
38.5524
  0
LINE
  8
0
 10
-24.2434
 20
38.5524
 11
-24.2858
 21
38.7744
  0
LINE
  8
0
 10
-24.2858
 20
38.7744
 11
-24.3
 21
39
  0
LINE
  8
0
 10
-24.3
 20
39
 11
-24.2858
 21
39.2256
  0
LINE
  8
0
 10
-24.2858
 20
39.2256
 11
-24.2434
 21
39.4476
  0
LINE
  8
0
 10
-24.2434
 20
39.4476
 11
-24.1736
 21
39.6626
  0
LINE
  8
0
 10
-24.1736
 20
39.6626
 11
-24.0773
 21
39.8672
  0
LINE
  8
0
 10
-24.0773
 20
39.8672
 11
-23.9562
 21
40.058
  0
LINE
  8
0
 10
-23.9562
 20
40.058
 11
-23.8121
 21
40.2322
  0
LINE
  8
0
 10
-23.8121
 20
40.2322
 11
-23.6474
 21
40.3869
  0
LINE
  8
0
 10
-23.6474
 20
40.3869
 11
-23.4645
 21
40.5198
  0
LINE
  8
0
 10
-23.4645
 20
40.5198
 11
-23.2664
 21
40.6287
  0
LINE
  8
0
 10
-23.2664
 20
40.6287
 11
-23.0562
 21
40.7119
  0
LINE
  8
0
 10
-23.0562
 20
40.7119
 11
-22.8373
 21
40.7681
  0
LINE
  8
0
 10
-22.8373
 20
40.7681
 11
-22.613
 21
40.7964
  0
LINE
  8
0
 10
-22.613
 20
40.7964
 11
-22.387
 21
40.7964
  0
LINE
  8
0
 10
-22.387
 20
40.7964
 11
-22.1627
 21
40.7681
  0
LINE
  8
0
 10
-22.1627
 20
40.7681
 11
-21.9438
 21
40.7119
  0
LINE
  8
0
 10
-21.9438
 20
40.7119
 11
-21.7336
 21
40.6287
  0
LINE
  8
0
 10
-21.7336
 20
40.6287
 11
-21.5355
 21
40.5198
  0
LINE
  8
0
 10
-21.5355
 20
40.5198
 11
-21.3526
 21
40.3869
  0
LINE
  8
0
 10
-21.3526
 20
40.3869
 11
-21.1879
 21
40.2322
  0
LINE
  8
0
 10
-21.1879
 20
40.2322
 11
-21.0438
 21
40.058
  0
LINE
  8
0
 10
-21.0438
 20
40.058
 11
-20.9226
 21
39.8672
  0
LINE
  8
0
 10
-20.9226
 20
39.8672
 11
-20.8264
 21
39.6626
  0
LINE
  8
0
 10
-20.8264
 20
39.6626
 11
-20.7565
 21
39.4476
  0
LINE
  8
0
 10
-20.7565
 20
39.4476
 11
-20.7142
 21
39.2256
  0
LINE
  8
0
 10
-20.7142
 20
39.2256
 11
-20.7
 21
39
  0
LINE
  8
0
 10
-20.7
 20
39
 11
-20.7142
 21
38.7744
  0
LINE
  8
0
 10
-20.7142
 20
38.7744
 11
-20.7565
 21
38.5524
  0
LINE
  8
0
 10
-20.7565
 20
38.5524
 11
-20.8264
 21
38.3374
  0
LINE
  8
0
 10
-20.8264
 20
38.3374
 11
-20.9226
 21
38.1329
  0
LINE
  8
0
 10
-20.9226
 20
38.1329
 11
-21.0438
 21
37.942
  0
LINE
  8
0
 10
-21.0438
 20
37.942
 11
-21.1879
 21
37.7678
  0
LINE
  8
0
 10
-21.1879
 20
37.7678
 11
-21.3526
 21
37.6131
  0
LINE
  8
0
 10
-21.3526
 20
37.6131
 11
-21.5355
 21
37.4802
  0
LINE
  8
0
 10
-21.5355
 20
37.4802
 11
-21.7336
 21
37.3713
  0
LINE
  8
0
 10
-21.7336
 20
37.3713
 11
-21.9438
 21
37.2881
  0
LINE
  8
0
 10
-21.9438
 20
37.2881
 11
-22.1627
 21
37.2319
  0
LINE
  8
0
 10
-22.1627
 20
37.2319
 11
-22.387
 21
37.2036
  0
LINE
  8
0
 10
-22.387
 20
37.2036
 11
-22.613
 21
37.2036
  0
ENDSEC
  0
SECTION
  2
OBJECTS
  0
DICTIONARY
  0
ENDSEC
  0
EOF
