<?xml version="1.0" standalone="no"?>
<!DOCTYPE svg PUBLIC "-//W3C//DTD SVG 1.1//EN" "http://www.w3.org/Graphics/SVG/1.1/DTD/svg11.dtd">
<svg width="104mm" height="332mm" viewBox="-52 -622 104 332" xmlns="http://www.w3.org/2000/svg" version="1.1">
<title>OpenSCAD Model</title>
<path d="
M 47.9369,-518.089 L 48.5451,-518.245 L 49.1289,-518.476 L 49.6791,-518.778 L 50.1871,-519.147 L 50.6448,-519.577
 L 51.0451,-520.061 L 51.3815,-520.591 L 51.6489,-521.159 L 51.8429,-521.757 L 51.9606,-522.373 L 52,-523
 L 52,-617 L 18.561,-617 L 18.561,-616.998 L 17.7482,-616.998 L 17.6236,-616.982 L 17.502,-616.951
 L 17.3852,-616.905 L 17.2752,-616.844 L 17.1736,-616.771 L 17.082,-616.685 L 17.002,-616.588 L 16.9347,-616.482
 L 16.8812,-616.368 L 16.8424,-616.249 L 16.8189,-616.125 L 16.811,-616 L 16.8189,-615.875 L 16.8424,-615.751
 L 16.8812,-615.632 L 16.9347,-615.518 L 17.002,-615.412 L 17.082,-615.315 L 17.1736,-615.229 L 17.2752,-615.156
 L 17.3852,-615.095 L 17.502,-615.049 L 17.6236,-615.018 L 17.7482,-615.002 L 19.1824,-615.002 L 20.8632,-614.337
 L 26.2555,-611.372 L 31.2338,-607.755 L 35.7195,-603.543 L 39.6418,-598.801 L 42.939,-593.606 L 45.559,-588.038
 L 47.4606,-582.186 L 48.6136,-576.141 L 49,-570 L 48.6136,-563.859 L 47.4606,-557.814 L 45.559,-551.962
 L 42.939,-546.394 L 39.6418,-541.199 L 35.7195,-536.457 L 31.2338,-532.245 L 26.2555,-528.628 L 20.8632,-525.663
 L 15.1418,-523.398 L 9.18167,-521.868 L 3.07672,-521.097 L -3.07672,-521.097 L -9.18167,-521.868 L -15.1418,-523.398
 L -20.8632,-525.663 L -26.2555,-528.628 L -31.2338,-532.245 L -35.7195,-536.457 L -39.6418,-541.199 L -42.939,-546.394
 L -45.559,-551.962 L -47.4606,-557.814 L -48.6136,-563.859 L -49,-570 L -48.6136,-576.141 L -47.4606,-582.186
 L -45.559,-588.038 L -42.939,-593.606 L -39.6418,-598.801 L -35.7195,-603.543 L -31.2338,-607.755 L -26.2555,-611.372
 L -20.8632,-614.337 L -15.1418,-616.602 L -9.18167,-618.132 L -3.07672,-618.903 L 0,-618.903 L 0,-619
 L 32,-619 L 29.0099,-621.99 L -19,-621.99 L -19,-621 L -51,-621 L -51,-622
 L -52,-622 L -52,-617.994 L -44.8116,-617.994 L -44.4379,-617.947 L -44.0729,-617.853 L -43.7227,-617.714
 L -43.3925,-617.533 L -43.0877,-617.312 L -42.8131,-617.054 L -42.5729,-616.763 L -42.3711,-616.445 L -42.2107,-616.104
 L -42.0942,-615.746 L -42.0237,-615.376 L -42,-615 L -42.0237,-614.624 L -42.0942,-614.254 L -42.2107,-613.896
 L -42.3711,-613.555 L -42.5729,-613.237 L -42.8131,-612.946 L -43.0877,-612.688 L -43.3925,-612.467 L -43.7227,-612.286
 L -44.0729,-612.147 L -44.4379,-612.053 L -44.8116,-612.006 L -52,-612.006 L -52,-527.994 L -44.8116,-527.994
 L -44.4379,-527.947 L -44.0729,-527.853 L -43.7227,-527.714 L -43.3925,-527.533 L -43.0877,-527.312 L -42.8131,-527.054
 L -42.5729,-526.763 L -42.3711,-526.445 L -42.2107,-526.104 L -42.0942,-525.746 L -42.0237,-525.376 L -42,-525
 L -42.0237,-524.624 L -42.0942,-524.254 L -42.2107,-523.896 L -42.3711,-523.555 L -42.5729,-523.237 L -42.8131,-522.946
 L -43.0877,-522.688 L -43.3925,-522.467 L -43.7227,-522.286 L -44.0729,-522.147 L -44.4379,-522.053 L -44.8116,-522.006
 L -51.8905,-522.006 L -51.8429,-521.757 L -51.6489,-521.159 L -51.3815,-520.591 L -51.0451,-520.061 L -50.6448,-519.577
 L -50.1871,-519.147 L -49.6791,-518.778 L -49.1289,-518.476 L -48.5451,-518.245 L -47.9369,-518.089 L -47.3139,-518.01
 L 47.3139,-518.01 z
M 44.8116,-522.006 L 44.4379,-522.053 L 44.0729,-522.147 L 43.7227,-522.286 L 43.3925,-522.467 L 43.0877,-522.688
 L 42.8131,-522.946 L 42.5729,-523.237 L 42.3711,-523.555 L 42.2107,-523.896 L 42.0942,-524.254 L 42.0237,-524.624
 L 42,-525 L 42.0237,-525.376 L 42.0942,-525.746 L 42.2107,-526.104 L 42.3711,-526.445 L 42.5729,-526.763
 L 42.8131,-527.054 L 43.0877,-527.312 L 43.3925,-527.533 L 43.7227,-527.714 L 44.0729,-527.853 L 44.4379,-527.947
 L 44.8116,-527.994 L 45.1884,-527.994 L 45.5621,-527.947 L 45.927,-527.853 L 46.2773,-527.714 L 46.6075,-527.533
 L 46.9123,-527.312 L 47.1869,-527.054 L 47.427,-526.763 L 47.6289,-526.445 L 47.7893,-526.104 L 47.9057,-525.746
 L 47.9763,-525.376 L 48,-525 L 47.9763,-524.624 L 47.9057,-524.254 L 47.7893,-523.896 L 47.6289,-523.555
 L 47.427,-523.237 L 47.1869,-522.946 L 46.9123,-522.688 L 46.6075,-522.467 L 46.2773,-522.286 L 45.927,-522.147
 L 45.5621,-522.053 L 45.1884,-522.006 z
M 42,-621.99 L 31.1312,-621.99 L 34.1213,-619 L 42,-619 z
M 47.9369,-404.089 L 48.5451,-404.245 L 49.1289,-404.476 L 49.6791,-404.778 L 50.1871,-405.147 L 50.6448,-405.577
 L 51.0451,-406.061 L 51.3815,-406.591 L 51.6489,-407.159 L 51.8429,-407.757 L 51.9606,-408.373 L 52,-409
 L 52,-503 L 18.561,-503 L 18.561,-502.998 L 17.7482,-502.998 L 17.6236,-502.982 L 17.502,-502.951
 L 17.3852,-502.905 L 17.2752,-502.844 L 17.1736,-502.771 L 17.082,-502.685 L 17.002,-502.588 L 16.9347,-502.482
 L 16.8812,-502.368 L 16.8424,-502.249 L 16.8189,-502.125 L 16.811,-502 L 16.8189,-501.875 L 16.8424,-501.751
 L 16.8812,-501.632 L 16.9347,-501.518 L 17.002,-501.412 L 17.082,-501.315 L 17.1736,-501.229 L 17.2752,-501.156
 L 17.3852,-501.095 L 17.502,-501.049 L 17.6236,-501.018 L 17.7482,-501.002 L 19.1824,-501.002 L 20.8632,-500.337
 L 26.2555,-497.372 L 31.2338,-493.755 L 35.7195,-489.543 L 39.6418,-484.801 L 42.939,-479.606 L 45.559,-474.038
 L 47.4606,-468.186 L 48.6136,-462.141 L 49,-456 L 48.6136,-449.859 L 47.4606,-443.814 L 45.559,-437.962
 L 42.939,-432.394 L 39.6418,-427.199 L 35.7195,-422.457 L 31.2338,-418.245 L 26.2555,-414.628 L 20.8632,-411.663
 L 15.1418,-409.398 L 9.18167,-407.868 L 3.07672,-407.097 L -3.07672,-407.097 L -9.18167,-407.868 L -15.1418,-409.398
 L -20.8632,-411.663 L -26.2555,-414.628 L -31.2338,-418.245 L -35.7195,-422.457 L -39.6418,-427.199 L -42.939,-432.394
 L -45.559,-437.962 L -47.4606,-443.814 L -48.6136,-449.859 L -49,-456 L -48.6136,-462.141 L -47.4606,-468.186
 L -45.559,-474.038 L -42.939,-479.606 L -39.6418,-484.801 L -35.7195,-489.543 L -31.2338,-493.755 L -26.2555,-497.372
 L -20.8632,-500.337 L -15.1418,-502.602 L -9.18167,-504.132 L -3.07672,-504.903 L 0,-504.903 L 0,-505
 L 32,-505 L 29.0099,-507.99 L -19,-507.99 L -19,-507 L -51,-507 L -51,-508
 L -52,-508 L -52,-503.994 L -44.8116,-503.994 L -44.4379,-503.947 L -44.0729,-503.853 L -43.7227,-503.714
 L -43.3925,-503.533 L -43.0877,-503.312 L -42.8131,-503.054 L -42.5729,-502.763 L -42.3711,-502.445 L -42.2107,-502.104
 L -42.0942,-501.746 L -42.0237,-501.376 L -42,-501 L -42.0237,-500.624 L -42.0942,-500.254 L -42.2107,-499.896
 L -42.3711,-499.555 L -42.5729,-499.237 L -42.8131,-498.946 L -43.0877,-498.688 L -43.3925,-498.467 L -43.7227,-498.286
 L -44.0729,-498.147 L -44.4379,-498.053 L -44.8116,-498.006 L -52,-498.006 L -52,-413.994 L -44.8116,-413.994
 L -44.4379,-413.947 L -44.0729,-413.853 L -43.7227,-413.714 L -43.3925,-413.533 L -43.0877,-413.312 L -42.8131,-413.054
 L -42.5729,-412.763 L -42.3711,-412.445 L -42.2107,-412.104 L -42.0942,-411.746 L -42.0237,-411.376 L -42,-411
 L -42.0237,-410.624 L -42.0942,-410.254 L -42.2107,-409.896 L -42.3711,-409.555 L -42.5729,-409.237 L -42.8131,-408.946
 L -43.0877,-408.688 L -43.3925,-408.467 L -43.7227,-408.286 L -44.0729,-408.147 L -44.4379,-408.053 L -44.8116,-408.006
 L -51.8905,-408.006 L -51.8429,-407.757 L -51.6489,-407.159 L -51.3815,-406.591 L -51.0451,-406.061 L -50.6448,-405.577
 L -50.1871,-405.147 L -49.6791,-404.778 L -49.1289,-404.476 L -48.5451,-404.245 L -47.9369,-404.089 L -47.3139,-404.01
 L 47.3139,-404.01 z
M 44.8116,-408.006 L 44.4379,-408.053 L 44.0729,-408.147 L 43.7227,-408.286 L 43.3925,-408.467 L 43.0877,-408.688
 L 42.8131,-408.946 L 42.5729,-409.237 L 42.3711,-409.555 L 42.2107,-409.896 L 42.0942,-410.254 L 42.0237,-410.624
 L 42,-411 L 42.0237,-411.376 L 42.0942,-411.746 L 42.2107,-412.104 L 42.3711,-412.445 L 42.5729,-412.763
 L 42.8131,-413.054 L 43.0877,-413.312 L 43.3925,-413.533 L 43.7227,-413.714 L 44.0729,-413.853 L 44.4379,-413.947
 L 44.8116,-413.994 L 45.1884,-413.994 L 45.5621,-413.947 L 45.927,-413.853 L 46.2773,-413.714 L 46.6075,-413.533
 L 46.9123,-413.312 L 47.1869,-413.054 L 47.427,-412.763 L 47.6289,-412.445 L 47.7893,-412.104 L 47.9057,-411.746
 L 47.9763,-411.376 L 48,-411 L 47.9763,-410.624 L 47.9057,-410.254 L 47.7893,-409.896 L 47.6289,-409.555
 L 47.427,-409.237 L 47.1869,-408.946 L 46.9123,-408.688 L 46.6075,-408.467 L 46.2773,-408.286 L 45.927,-408.147
 L 45.5621,-408.053 L 45.1884,-408.006 z
M 42,-507.99 L 31.1312,-507.99 L 34.1213,-505 L 42,-505 z
M 47.9369,-290.089 L 48.5451,-290.245 L 49.1289,-290.476 L 49.6791,-290.778 L 50.1871,-291.147 L 50.6448,-291.577
 L 51.0451,-292.061 L 51.3815,-292.591 L 51.6489,-293.159 L 51.8429,-293.757 L 51.9606,-294.373 L 52,-295
 L 52,-389 L 18.561,-389 L 18.561,-388.998 L 17.7482,-388.998 L 17.6236,-388.982 L 17.502,-388.951
 L 17.3852,-388.905 L 17.2752,-388.844 L 17.1736,-388.771 L 17.082,-388.685 L 17.002,-388.588 L 16.9347,-388.482
 L 16.8812,-388.368 L 16.8424,-388.249 L 16.8189,-388.125 L 16.811,-388 L 16.8189,-387.875 L 16.8424,-387.751
 L 16.8812,-387.632 L 16.9347,-387.518 L 17.002,-387.412 L 17.082,-387.315 L 17.1736,-387.229 L 17.2752,-387.156
 L 17.3852,-387.095 L 17.502,-387.049 L 17.6236,-387.018 L 17.7482,-387.002 L 19.1824,-387.002 L 20.8632,-386.337
 L 26.2555,-383.372 L 31.2338,-379.755 L 35.7195,-375.543 L 39.6418,-370.801 L 42.939,-365.606 L 45.559,-360.038
 L 47.4606,-354.186 L 48.6136,-348.141 L 49,-342 L 48.6136,-335.859 L 47.4606,-329.814 L 45.559,-323.962
 L 42.939,-318.394 L 39.6418,-313.199 L 35.7195,-308.457 L 31.2338,-304.245 L 26.2555,-300.628 L 20.8632,-297.663
 L 15.1418,-295.398 L 9.18167,-293.868 L 3.07672,-293.097 L -3.07672,-293.097 L -9.18167,-293.868 L -15.1418,-295.398
 L -20.8632,-297.663 L -26.2555,-300.628 L -31.2338,-304.245 L -35.7195,-308.457 L -39.6418,-313.199 L -42.939,-318.394
 L -45.559,-323.962 L -47.4606,-329.814 L -48.6136,-335.859 L -49,-342 L -48.6136,-348.141 L -47.4606,-354.186
 L -45.559,-360.038 L -42.939,-365.606 L -39.6418,-370.801 L -35.7195,-375.543 L -31.2338,-379.755 L -26.2555,-383.372
 L -20.8632,-386.337 L -15.1418,-388.602 L -9.18167,-390.132 L -3.07672,-390.903 L 0,-390.903 L 0,-391
 L 32,-391 L 29.0099,-393.99 L -19,-393.99 L -19,-393 L -51,-393 L -51,-394
 L -52,-394 L -52,-389.994 L -44.8116,-389.994 L -44.4379,-389.947 L -44.0729,-389.853 L -43.7227,-389.714
 L -43.3925,-389.533 L -43.0877,-389.312 L -42.8131,-389.054 L -42.5729,-388.763 L -42.3711,-388.445 L -42.2107,-388.104
 L -42.0942,-387.746 L -42.0237,-387.376 L -42,-387 L -42.0237,-386.624 L -42.0942,-386.254 L -42.2107,-385.896
 L -42.3711,-385.555 L -42.5729,-385.237 L -42.8131,-384.946 L -43.0877,-384.688 L -43.3925,-384.467 L -43.7227,-384.286
 L -44.0729,-384.147 L -44.4379,-384.053 L -44.8116,-384.006 L -52,-384.006 L -52,-299.994 L -44.8116,-299.994
 L -44.4379,-299.947 L -44.0729,-299.853 L -43.7227,-299.714 L -43.3925,-299.533 L -43.0877,-299.312 L -42.8131,-299.054
 L -42.5729,-298.763 L -42.3711,-298.445 L -42.2107,-298.104 L -42.0942,-297.746 L -42.0237,-297.376 L -42,-297
 L -42.0237,-296.624 L -42.0942,-296.254 L -42.2107,-295.896 L -42.3711,-295.555 L -42.5729,-295.237 L -42.8131,-294.946
 L -43.0877,-294.688 L -43.3925,-294.467 L -43.7227,-294.286 L -44.0729,-294.147 L -44.4379,-294.053 L -44.8116,-294.006
 L -51.8905,-294.006 L -51.8429,-293.757 L -51.6489,-293.159 L -51.3815,-292.591 L -51.0451,-292.061 L -50.6448,-291.577
 L -50.1871,-291.147 L -49.6791,-290.778 L -49.1289,-290.476 L -48.5451,-290.245 L -47.9369,-290.089 L -47.3139,-290.01
 L 47.3139,-290.01 z
M 44.8116,-294.006 L 44.4379,-294.053 L 44.0729,-294.147 L 43.7227,-294.286 L 43.3925,-294.467 L 43.0877,-294.688
 L 42.8131,-294.946 L 42.5729,-295.237 L 42.3711,-295.555 L 42.2107,-295.896 L 42.0942,-296.254 L 42.0237,-296.624
 L 42,-297 L 42.0237,-297.376 L 42.0942,-297.746 L 42.2107,-298.104 L 42.3711,-298.445 L 42.5729,-298.763
 L 42.8131,-299.054 L 43.0877,-299.312 L 43.3925,-299.533 L 43.7227,-299.714 L 44.0729,-299.853 L 44.4379,-299.947
 L 44.8116,-299.994 L 45.1884,-299.994 L 45.5621,-299.947 L 45.927,-299.853 L 46.2773,-299.714 L 46.6075,-299.533
 L 46.9123,-299.312 L 47.1869,-299.054 L 47.427,-298.763 L 47.6289,-298.445 L 47.7893,-298.104 L 47.9057,-297.746
 L 47.9763,-297.376 L 48,-297 L 47.9763,-296.624 L 47.9057,-296.254 L 47.7893,-295.896 L 47.6289,-295.555
 L 47.427,-295.237 L 47.1869,-294.946 L 46.9123,-294.688 L 46.6075,-294.467 L 46.2773,-294.286 L 45.927,-294.147
 L 45.5621,-294.053 L 45.1884,-294.006 z
M 42,-393.99 L 31.1312,-393.99 L 34.1213,-391 L 42,-391 z
" stroke="black" fill="lightgray" stroke-width="0.5"/>
</svg>
