<?xml version="1.0" standalone="no"?>
<!DOCTYPE svg PUBLIC "-//W3C//DTD SVG 1.1//EN" "http://www.w3.org/Graphics/SVG/1.1/DTD/svg11.dtd">
<svg width="150mm" height="154mm" viewBox="-75 -293 150 154" xmlns="http://www.w3.org/2000/svg" version="1.1">
<title>OpenSCAD Model</title>
<path d="
M 70.9369,-247.589 L 71.5451,-247.745 L 72.1289,-247.976 L 72.6791,-248.278 L 73.1871,-248.647 L 73.6448,-249.077
 L 74.0451,-249.561 L 74.3815,-250.091 L 74.6489,-250.659 L 74.8429,-251.257 L 74.9606,-251.873 L 75,-252.5
 L 75,-287.5 L 74.9606,-288.127 L 74.8429,-288.743 L 74.6489,-289.341 L 74.3815,-289.909 L 74.0451,-290.439
 L 73.6448,-290.923 L 73.1871,-291.353 L 72.6791,-291.722 L 72.1289,-292.024 L 71.5451,-292.255 L 70.9369,-292.411
 L 70.3139,-292.49 L -70.3139,-292.49 L -70.9369,-292.411 L -71.5451,-292.255 L -72.1289,-292.024 L -72.6791,-291.722
 L -73.1871,-291.353 L -73.6448,-290.923 L -74.0451,-290.439 L -74.3815,-289.909 L -74.6489,-289.341 L -74.8429,-288.743
 L -74.9606,-288.127 L -75,-287.5 L -75,-252.5 L -74.9606,-251.873 L -74.8429,-251.257 L -74.6489,-250.659
 L -74.3815,-250.091 L -74.0451,-249.561 L -73.6448,-249.077 L -73.1871,-248.647 L -72.6791,-248.278 L -72.1289,-247.976
 L -71.5451,-247.745 L -70.9369,-247.589 L -70.3139,-247.51 L 70.3139,-247.51 z
M -70.0482,-248.009 L -70.6401,-248.084 L -71.2178,-248.232 L -71.7724,-248.452 L -72.2952,-248.739 L -72.7778,-249.09
 L -73.2126,-249.498 L -73.5928,-249.958 L -73.9125,-250.462 L -74.1664,-251.001 L -74.3508,-251.569 L -74.4625,-252.155
 L -74.5,-252.75 L -74.5,-287.25 L -74.4625,-287.845 L -74.3508,-288.431 L -74.1664,-288.999 L -73.9125,-289.538
 L -73.5928,-290.042 L -73.2126,-290.502 L -72.7778,-290.91 L -72.2952,-291.261 L -71.7724,-291.548 L -71.2178,-291.768
 L -70.6401,-291.916 L -70.0482,-291.991 L 70.0482,-291.991 L 70.6401,-291.916 L 71.2178,-291.768 L 71.7724,-291.548
 L 72.2952,-291.261 L 72.7778,-290.91 L 73.2126,-290.502 L 73.5928,-290.042 L 73.9125,-289.538 L 74.1664,-288.999
 L 74.3508,-288.431 L 74.4625,-287.845 L 74.5,-287.25 L 74.5,-252.75 L 74.4625,-252.155 L 74.3508,-251.569
 L 74.1664,-251.001 L 73.9125,-250.462 L 73.5928,-249.958 L 73.2126,-249.498 L 72.7778,-249.09 L 72.2952,-248.739
 L 71.7724,-248.452 L 71.2178,-248.232 L 70.6401,-248.084 L 70.0482,-248.009 z
M 70.9369,-193.589 L 71.5451,-193.745 L 72.1289,-193.976 L 72.6791,-194.278 L 73.1871,-194.647 L 73.6448,-195.077
 L 74.0451,-195.561 L 74.3815,-196.091 L 74.6489,-196.659 L 74.8429,-197.257 L 74.9606,-197.873 L 75,-198.5
 L 75,-233.5 L 74.9606,-234.127 L 74.8429,-234.743 L 74.6489,-235.341 L 74.3815,-235.909 L 74.0451,-236.439
 L 73.6448,-236.923 L 73.1871,-237.353 L 72.6791,-237.722 L 72.1289,-238.024 L 71.5451,-238.255 L 70.9369,-238.411
 L 70.3139,-238.49 L -70.3139,-238.49 L -70.9369,-238.411 L -71.5451,-238.255 L -72.1289,-238.024 L -72.6791,-237.722
 L -73.1871,-237.353 L -73.6448,-236.923 L -74.0451,-236.439 L -74.3815,-235.909 L -74.6489,-235.341 L -74.8429,-234.743
 L -74.9606,-234.127 L -75,-233.5 L -75,-198.5 L -74.9606,-197.873 L -74.8429,-197.257 L -74.6489,-196.659
 L -74.3815,-196.091 L -74.0451,-195.561 L -73.6448,-195.077 L -73.1871,-194.647 L -72.6791,-194.278 L -72.1289,-193.976
 L -71.5451,-193.745 L -70.9369,-193.589 L -70.3139,-193.51 L 70.3139,-193.51 z
M -70.0375,-194.181 L -70.6079,-194.253 L -71.1648,-194.396 L -71.6994,-194.607 L -72.2032,-194.884 L -72.6684,-195.222
 L -73.0875,-195.616 L -73.454,-196.059 L -73.7621,-196.544 L -74.0069,-197.065 L -74.1846,-197.611 L -74.2923,-198.176
 L -74.3284,-198.75 L -74.3284,-233.25 L -74.2923,-233.824 L -74.1846,-234.389 L -74.0069,-234.935 L -73.7621,-235.456
 L -73.454,-235.941 L -73.0875,-236.384 L -72.6684,-236.778 L -72.2032,-237.116 L -71.6994,-237.393 L -71.1648,-237.604
 L -70.6079,-237.747 L -70.0375,-237.819 L 70.0375,-237.819 L 70.6079,-237.747 L 71.1648,-237.604 L 71.6994,-237.393
 L 72.2032,-237.116 L 72.6684,-236.778 L 73.0875,-236.384 L 73.454,-235.941 L 73.7621,-235.456 L 74.0069,-234.935
 L 74.1846,-234.389 L 74.2923,-233.824 L 74.3284,-233.25 L 74.3284,-198.75 L 74.2923,-198.176 L 74.1846,-197.611
 L 74.0069,-197.065 L 73.7621,-196.544 L 73.454,-196.059 L 73.0875,-195.616 L 72.6684,-195.222 L 72.2032,-194.884
 L 71.6994,-194.607 L 71.1648,-194.396 L 70.6079,-194.253 L 70.0375,-194.181 z
M 70.9369,-139.589 L 71.5451,-139.745 L 72.1289,-139.976 L 72.6791,-140.278 L 73.1871,-140.647 L 73.6448,-141.077
 L 74.0451,-141.561 L 74.3815,-142.091 L 74.6489,-142.659 L 74.8429,-143.257 L 74.9606,-143.873 L 75,-144.5
 L 75,-179.5 L 74.9606,-180.127 L 74.8429,-180.743 L 74.6489,-181.341 L 74.3815,-181.909 L 74.0451,-182.439
 L 73.6448,-182.923 L 73.1871,-183.353 L 72.6791,-183.722 L 72.1289,-184.024 L 71.5451,-184.255 L 70.9369,-184.411
 L 70.3139,-184.49 L -70.3139,-184.49 L -70.9369,-184.411 L -71.5451,-184.255 L -72.1289,-184.024 L -72.6791,-183.722
 L -73.1871,-183.353 L -73.6448,-182.923 L -74.0451,-182.439 L -74.3815,-181.909 L -74.6489,-181.341 L -74.8429,-180.743
 L -74.9606,-180.127 L -75,-179.5 L -75,-144.5 L -74.9606,-143.873 L -74.8429,-143.257 L -74.6489,-142.659
 L -74.3815,-142.091 L -74.0451,-141.561 L -73.6448,-141.077 L -73.1871,-140.647 L -72.6791,-140.278 L -72.1289,-139.976
 L -71.5451,-139.745 L -70.9369,-139.589 L -70.3139,-139.51 L 70.3139,-139.51 z
M -69.8825,-142.645 L -70.1453,-142.678 L -70.4019,-142.744 L -70.6482,-142.841 L -70.8804,-142.969 L -71.0947,-143.125
 L -71.2879,-143.306 L -71.4567,-143.51 L -71.5987,-143.734 L -71.7115,-143.973 L -71.7934,-144.225 L -71.843,-144.486
 L -71.8596,-144.75 L -71.8596,-179.25 L -71.843,-179.514 L -71.7934,-179.775 L -71.7115,-180.027 L -71.5987,-180.266
 L -71.4567,-180.49 L -71.2879,-180.694 L -71.0947,-180.875 L -70.8804,-181.031 L -70.6482,-181.159 L -70.4019,-181.256
 L -70.1453,-181.322 L -69.8825,-181.355 L 69.8825,-181.355 L 70.1453,-181.322 L 70.4019,-181.256 L 70.6482,-181.159
 L 70.8804,-181.031 L 71.0947,-180.875 L 71.2879,-180.694 L 71.4567,-180.49 L 71.5987,-180.266 L 71.7115,-180.027
 L 71.7934,-179.775 L 71.843,-179.514 L 71.8596,-179.25 L 71.8596,-144.75 L 71.843,-144.486 L 71.7934,-144.225
 L 71.7115,-143.973 L 71.5987,-143.734 L 71.4567,-143.51 L 71.2879,-143.306 L 71.0947,-143.125 L 70.8804,-142.969
 L 70.6482,-142.841 L 70.4019,-142.744 L 70.1453,-142.678 L 69.8825,-142.645 z
" stroke="black" fill="lightgray" stroke-width="0.5"/>
</svg>
