<?xml version="1.0" standalone="no"?>
<!DOCTYPE svg PUBLIC "-//W3C//DTD SVG 1.1//EN" "http://www.w3.org/Graphics/SVG/1.1/DTD/svg11.dtd">
<svg width="30mm" height="280mm" viewBox="-15 -356 30 280" xmlns="http://www.w3.org/2000/svg" version="1.1">
<title>OpenSCAD Model</title>
<path d="
M 10.9369,-220.589 L 11.5451,-220.745 L 12.1289,-220.976 L 12.6791,-221.278 L 13.1871,-221.647 L 13.6448,-222.077
 L 14.0451,-222.561 L 14.3815,-223.091 L 14.6489,-223.659 L 14.8429,-224.257 L 14.9606,-224.873 L 15,-225.5
 L 15,-350.5 L 14.9606,-351.127 L 14.8429,-351.743 L 14.6489,-352.341 L 14.3815,-352.909 L 14.0451,-353.439
 L 13.6448,-353.923 L 13.1871,-354.353 L 12.6791,-354.722 L 12.1289,-355.024 L 11.5451,-355.255 L 10.9369,-355.411
 L 10.3139,-355.49 L -10.3139,-355.49 L -10.9369,-355.411 L -11.5451,-355.255 L -12.1289,-355.024 L -12.6791,-354.722
 L -13.1871,-354.353 L -13.6448,-353.923 L -14.0451,-353.439 L -14.3815,-352.909 L -14.6489,-352.341 L -14.8429,-351.743
 L -14.9606,-351.127 L -15,-350.5 L -15,-225.5 L -14.9606,-224.873 L -14.8429,-224.257 L -14.6489,-223.659
 L -14.3815,-223.091 L -14.0451,-222.561 L -13.6448,-222.077 L -13.1871,-221.647 L -12.6791,-221.278 L -12.1289,-220.976
 L -11.5451,-220.745 L -10.9369,-220.589 L -10.3139,-220.51 L 10.3139,-220.51 z
M 10.9369,-76.5886 L 11.5451,-76.7447 L 12.1289,-76.9759 L 12.6791,-77.2784 L 13.1871,-77.6474 L 13.6448,-78.0773
 L 14.0451,-78.5611 L 14.3815,-79.0912 L 14.6489,-79.6594 L 14.8429,-80.2566 L 14.9606,-80.8733 L 15,-81.5
 L 15,-206.5 L 14.9606,-207.127 L 14.8429,-207.743 L 14.6489,-208.341 L 14.3815,-208.909 L 14.0451,-209.439
 L 13.6448,-209.923 L 13.1871,-210.353 L 12.6791,-210.722 L 12.1289,-211.024 L 11.5451,-211.255 L 10.9369,-211.411
 L 10.3139,-211.49 L -10.3139,-211.49 L -10.9369,-211.411 L -11.5451,-211.255 L -12.1289,-211.024 L -12.6791,-210.722
 L -13.1871,-210.353 L -13.6448,-209.923 L -14.0451,-209.439 L -14.3815,-208.909 L -14.6489,-208.341 L -14.8429,-207.743
 L -14.9606,-207.127 L -15,-206.5 L -15,-81.5 L -14.9606,-80.8733 L -14.8429,-80.2566 L -14.6489,-79.6594
 L -14.3815,-79.0912 L -14.0451,-78.5611 L -13.6448,-78.0773 L -13.1871,-77.6474 L -12.6791,-77.2784 L -12.1289,-76.9759
 L -11.5451,-76.7447 L -10.9369,-76.5886 L -10.3139,-76.5099 L 10.3139,-76.5099 z
M 7.38696,-202.204 L 7.1627,-202.232 L 6.94376,-202.288 L 6.7336,-202.371 L 6.53551,-202.48 L 6.35263,-202.613
 L 6.18785,-202.768 L 6.04376,-202.942 L 5.92264,-203.133 L 5.8264,-203.337 L 5.75655,-203.552 L 5.71419,-203.774
 L 5.7,-204 L 5.71419,-204.226 L 5.75655,-204.448 L 5.8264,-204.663 L 5.92264,-204.867 L 6.04376,-205.058
 L 6.18785,-205.232 L 6.35263,-205.387 L 6.53551,-205.52 L 6.7336,-205.629 L 6.94376,-205.712 L 7.1627,-205.768
 L 7.38696,-205.796 L 7.61302,-205.796 L 7.83728,-205.768 L 8.05623,-205.712 L 8.26639,-205.629 L 8.46448,-205.52
 L 8.64735,-205.387 L 8.81213,-205.232 L 8.95622,-205.058 L 9.07735,-204.867 L 9.17358,-204.663 L 9.24344,-204.448
 L 9.2858,-204.226 L 9.29999,-204 L 9.2858,-203.774 L 9.24344,-203.552 L 9.17358,-203.337 L 9.07735,-203.133
 L 8.95622,-202.942 L 8.81213,-202.768 L 8.64735,-202.613 L 8.46448,-202.48 L 8.26639,-202.371 L 8.05623,-202.288
 L 7.83728,-202.232 L 7.61302,-202.204 z
M -7.61302,-202.204 L -7.83728,-202.232 L -8.05623,-202.288 L -8.26639,-202.371 L -8.46448,-202.48 L -8.64735,-202.613
 L -8.81213,-202.768 L -8.95622,-202.942 L -9.07735,-203.133 L -9.17358,-203.337 L -9.24344,-203.552 L -9.2858,-203.774
 L -9.29999,-204 L -9.2858,-204.226 L -9.24344,-204.448 L -9.17358,-204.663 L -9.07735,-204.867 L -8.95622,-205.058
 L -8.81213,-205.232 L -8.64735,-205.387 L -8.46448,-205.52 L -8.26639,-205.629 L -8.05623,-205.712 L -7.83728,-205.768
 L -7.61302,-205.796 L -7.38696,-205.796 L -7.1627,-205.768 L -6.94376,-205.712 L -6.7336,-205.629 L -6.53551,-205.52
 L -6.35263,-205.387 L -6.18785,-205.232 L -6.04376,-205.058 L -5.92264,-204.867 L -5.8264,-204.663 L -5.75655,-204.448
 L -5.71419,-204.226 L -5.7,-204 L -5.71419,-203.774 L -5.75655,-203.552 L -5.8264,-203.337 L -5.92264,-203.133
 L -6.04376,-202.942 L -6.18785,-202.768 L -6.35263,-202.613 L -6.53551,-202.48 L -6.7336,-202.371 L -6.94376,-202.288
 L -7.1627,-202.232 L -7.38696,-202.204 z
M -7.61302,-82.2036 L -7.83728,-82.2319 L -8.05623,-82.2881 L -8.26639,-82.3713 L -8.46448,-82.4802 L -8.64735,-82.6131
 L -8.81213,-82.7678 L -8.95622,-82.942 L -9.07735,-83.1328 L -9.17358,-83.3374 L -9.24344,-83.5524 L -9.2858,-83.7744
 L -9.29999,-84 L -9.2858,-84.2256 L -9.24344,-84.4476 L -9.17358,-84.6626 L -9.07735,-84.8672 L -8.95622,-85.058
 L -8.81213,-85.2322 L -8.64735,-85.3869 L -8.46448,-85.5198 L -8.26639,-85.6287 L -8.05623,-85.7119 L -7.83728,-85.7681
 L -7.61302,-85.7964 L -7.38696,-85.7964 L -7.1627,-85.7681 L -6.94376,-85.7119 L -6.7336,-85.6287 L -6.53551,-85.5198
 L -6.35263,-85.3869 L -6.18785,-85.2322 L -6.04376,-85.058 L -5.92264,-84.8672 L -5.8264,-84.6626 L -5.75655,-84.4476
 L -5.71419,-84.2256 L -5.7,-84 L -5.71419,-83.7744 L -5.75655,-83.5524 L -5.8264,-83.3374 L -5.92264,-83.1328
 L -6.04376,-82.942 L -6.18785,-82.7678 L -6.35263,-82.6131 L -6.53551,-82.4802 L -6.7336,-82.3713 L -6.94376,-82.2881
 L -7.1627,-82.2319 L -7.38696,-82.2036 z
M 7.38696,-82.2036 L 7.1627,-82.2319 L 6.94376,-82.2881 L 6.7336,-82.3713 L 6.53551,-82.4802 L 6.35263,-82.6131
 L 6.18785,-82.7678 L 6.04376,-82.942 L 5.92264,-83.1328 L 5.8264,-83.3374 L 5.75655,-83.5524 L 5.71419,-83.7744
 L 5.7,-84 L 5.71419,-84.2256 L 5.75655,-84.4476 L 5.8264,-84.6626 L 5.92264,-84.8672 L 6.04376,-85.058
 L 6.18785,-85.2322 L 6.35263,-85.3869 L 6.53551,-85.5198 L 6.7336,-85.6287 L 6.94376,-85.7119 L 7.1627,-85.7681
 L 7.38696,-85.7964 L 7.61302,-85.7964 L 7.83728,-85.7681 L 8.05623,-85.7119 L 8.26639,-85.6287 L 8.46448,-85.5198
 L 8.64735,-85.3869 L 8.81213,-85.2322 L 8.95622,-85.058 L 9.07735,-84.8672 L 9.17358,-84.6626 L 9.24344,-84.4476
 L 9.2858,-84.2256 L 9.29999,-84 L 9.2858,-83.7744 L 9.24344,-83.5524 L 9.17358,-83.3374 L 9.07735,-83.1328
 L 8.95622,-82.942 L 8.81213,-82.7678 L 8.64735,-82.6131 L 8.46448,-82.4802 L 8.26639,-82.3713 L 8.05623,-82.2881
 L 7.83728,-82.2319 L 7.61302,-82.2036 z
" stroke="black" fill="lightgray" stroke-width="0.5"/>
</svg>
