<?xml version="1.0" standalone="no"?>
<!DOCTYPE svg PUBLIC "-//W3C//DTD SVG 1.1//EN" "http://www.w3.org/Graphics/SVG/1.1/DTD/svg11.dtd">
<svg width="30mm" height="309mm" viewBox="-15 -393 30 309" xmlns="http://www.w3.org/2000/svg" version="1.1">
<title>OpenSCAD Model</title>
<path d="
M 10.9369,-243.089 L 11.5451,-243.245 L 12.1289,-243.476 L 12.6791,-243.778 L 13.1871,-244.147 L 13.6448,-244.577
 L 14.0451,-245.061 L 14.3815,-245.591 L 14.6489,-246.159 L 14.8429,-246.757 L 14.9606,-247.373 L 15,-248
 L 15,-388 L 14.9606,-388.627 L 14.8429,-389.243 L 14.6489,-389.841 L 14.3815,-390.409 L 14.0451,-390.939
 L 13.6448,-391.423 L 13.1871,-391.853 L 12.6791,-392.222 L 12.1289,-392.524 L 11.5451,-392.755 L 10.9369,-392.911
 L 10.3139,-392.99 L -10.3139,-392.99 L -10.9369,-392.911 L -11.5451,-392.755 L -12.1289,-392.524 L -12.6791,-392.222
 L -13.1871,-391.853 L -13.6448,-391.423 L -14.0451,-390.939 L -14.3815,-390.409 L -14.6489,-389.841 L -14.8429,-389.243
 L -14.9606,-388.627 L -15,-388 L -15,-248 L -14.9606,-247.373 L -14.8429,-246.757 L -14.6489,-246.159
 L -14.3815,-245.591 L -14.0451,-245.061 L -13.6448,-244.577 L -13.1871,-244.147 L -12.6791,-243.778 L -12.1289,-243.476
 L -11.5451,-243.245 L -10.9369,-243.089 L -10.3139,-243.01 L 10.3139,-243.01 z
M 10.9369,-84.0886 L 11.5451,-84.2447 L 12.1289,-84.4759 L 12.6791,-84.7784 L 13.1871,-85.1474 L 13.6448,-85.5773
 L 14.0451,-86.0611 L 14.3815,-86.5912 L 14.6489,-87.1594 L 14.8429,-87.7566 L 14.9606,-88.3733 L 15,-89
 L 15,-229 L 14.9606,-229.627 L 14.8429,-230.243 L 14.6489,-230.841 L 14.3815,-231.409 L 14.0451,-231.939
 L 13.6448,-232.423 L 13.1871,-232.853 L 12.6791,-233.222 L 12.1289,-233.524 L 11.5451,-233.755 L 10.9369,-233.911
 L 10.3139,-233.99 L -10.3139,-233.99 L -10.9369,-233.911 L -11.5451,-233.755 L -12.1289,-233.524 L -12.6791,-233.222
 L -13.1871,-232.853 L -13.6448,-232.423 L -14.0451,-231.939 L -14.3815,-231.409 L -14.6489,-230.841 L -14.8429,-230.243
 L -14.9606,-229.627 L -15,-229 L -15,-89 L -14.9606,-88.3733 L -14.8429,-87.7566 L -14.6489,-87.1594
 L -14.3815,-86.5912 L -14.0451,-86.0611 L -13.6448,-85.5773 L -13.1871,-85.1474 L -12.6791,-84.7784 L -12.1289,-84.4759
 L -11.5451,-84.2447 L -10.9369,-84.0886 L -10.3139,-84.0099 L 10.3139,-84.0099 z
M 7.38696,-224.704 L 7.1627,-224.732 L 6.94376,-224.788 L 6.7336,-224.871 L 6.53551,-224.98 L 6.35263,-225.113
 L 6.18785,-225.268 L 6.04376,-225.442 L 5.92264,-225.633 L 5.8264,-225.837 L 5.75655,-226.052 L 5.71419,-226.274
 L 5.7,-226.5 L 5.71419,-226.726 L 5.75655,-226.948 L 5.8264,-227.163 L 5.92264,-227.367 L 6.04376,-227.558
 L 6.18785,-227.732 L 6.35263,-227.887 L 6.53551,-228.02 L 6.7336,-228.129 L 6.94376,-228.212 L 7.1627,-228.268
 L 7.38696,-228.296 L 7.61302,-228.296 L 7.83728,-228.268 L 8.05623,-228.212 L 8.26639,-228.129 L 8.46448,-228.02
 L 8.64735,-227.887 L 8.81213,-227.732 L 8.95622,-227.558 L 9.07735,-227.367 L 9.17358,-227.163 L 9.24344,-226.948
 L 9.2858,-226.726 L 9.29999,-226.5 L 9.2858,-226.274 L 9.24344,-226.052 L 9.17358,-225.837 L 9.07735,-225.633
 L 8.95622,-225.442 L 8.81213,-225.268 L 8.64735,-225.113 L 8.46448,-224.98 L 8.26639,-224.871 L 8.05623,-224.788
 L 7.83728,-224.732 L 7.61302,-224.704 z
M -7.61302,-224.704 L -7.83728,-224.732 L -8.05623,-224.788 L -8.26639,-224.871 L -8.46448,-224.98 L -8.64735,-225.113
 L -8.81213,-225.268 L -8.95622,-225.442 L -9.07735,-225.633 L -9.17358,-225.837 L -9.24344,-226.052 L -9.2858,-226.274
 L -9.29999,-226.5 L -9.2858,-226.726 L -9.24344,-226.948 L -9.17358,-227.163 L -9.07735,-227.367 L -8.95622,-227.558
 L -8.81213,-227.732 L -8.64735,-227.887 L -8.46448,-228.02 L -8.26639,-228.129 L -8.05623,-228.212 L -7.83728,-228.268
 L -7.61302,-228.296 L -7.38696,-228.296 L -7.1627,-228.268 L -6.94376,-228.212 L -6.7336,-228.129 L -6.53551,-228.02
 L -6.35263,-227.887 L -6.18785,-227.732 L -6.04376,-227.558 L -5.92264,-227.367 L -5.8264,-227.163 L -5.75655,-226.948
 L -5.71419,-226.726 L -5.7,-226.5 L -5.71419,-226.274 L -5.75655,-226.052 L -5.8264,-225.837 L -5.92264,-225.633
 L -6.04376,-225.442 L -6.18785,-225.268 L -6.35263,-225.113 L -6.53551,-224.98 L -6.7336,-224.871 L -6.94376,-224.788
 L -7.1627,-224.732 L -7.38696,-224.704 z
M -7.61302,-89.7036 L -7.83728,-89.7319 L -8.05623,-89.7881 L -8.26639,-89.8713 L -8.46448,-89.9802 L -8.64735,-90.1131
 L -8.81213,-90.2678 L -8.95622,-90.442 L -9.07735,-90.6328 L -9.17358,-90.8374 L -9.24344,-91.0524 L -9.2858,-91.2744
 L -9.29999,-91.5 L -9.2858,-91.7256 L -9.24344,-91.9476 L -9.17358,-92.1626 L -9.07735,-92.3672 L -8.95622,-92.558
 L -8.81213,-92.7322 L -8.64735,-92.8869 L -8.46448,-93.0198 L -8.26639,-93.1287 L -8.05623,-93.2119 L -7.83728,-93.2681
 L -7.61302,-93.2964 L -7.38696,-93.2964 L -7.1627,-93.2681 L -6.94376,-93.2119 L -6.7336,-93.1287 L -6.53551,-93.0198
 L -6.35263,-92.8869 L -6.18785,-92.7322 L -6.04376,-92.558 L -5.92264,-92.3672 L -5.8264,-92.1626 L -5.75655,-91.9476
 L -5.71419,-91.7256 L -5.7,-91.5 L -5.71419,-91.2744 L -5.75655,-91.0524 L -5.8264,-90.8374 L -5.92264,-90.6328
 L -6.04376,-90.442 L -6.18785,-90.2678 L -6.35263,-90.1131 L -6.53551,-89.9802 L -6.7336,-89.8713 L -6.94376,-89.7881
 L -7.1627,-89.7319 L -7.38696,-89.7036 z
M 7.38696,-89.7036 L 7.1627,-89.7319 L 6.94376,-89.7881 L 6.7336,-89.8713 L 6.53551,-89.9802 L 6.35263,-90.1131
 L 6.18785,-90.2678 L 6.04376,-90.442 L 5.92264,-90.6328 L 5.8264,-90.8374 L 5.75655,-91.0524 L 5.71419,-91.2744
 L 5.7,-91.5 L 5.71419,-91.7256 L 5.75655,-91.9476 L 5.8264,-92.1626 L 5.92264,-92.3672 L 6.04376,-92.558
 L 6.18785,-92.7322 L 6.35263,-92.8869 L 6.53551,-93.0198 L 6.7336,-93.1287 L 6.94376,-93.2119 L 7.1627,-93.2681
 L 7.38696,-93.2964 L 7.61302,-93.2964 L 7.83728,-93.2681 L 8.05623,-93.2119 L 8.26639,-93.1287 L 8.46448,-93.0198
 L 8.64735,-92.8869 L 8.81213,-92.7322 L 8.95622,-92.558 L 9.07735,-92.3672 L 9.17358,-92.1626 L 9.24344,-91.9476
 L 9.2858,-91.7256 L 9.29999,-91.5 L 9.2858,-91.2744 L 9.24344,-91.0524 L 9.17358,-90.8374 L 9.07735,-90.6328
 L 8.95622,-90.442 L 8.81213,-90.2678 L 8.64735,-90.1131 L 8.46448,-89.9802 L 8.26639,-89.8713 L 8.05623,-89.7881
 L 7.83728,-89.7319 L 7.61302,-89.7036 z
" stroke="black" fill="lightgray" stroke-width="0.5"/>
</svg>
