  0
SECTION
  2
BLOCKS
  0
ENDSEC
  0
SECTION
  2
ENTITIES
  0
LINE
  8
0
 10
-13.5
 20
142.441
 11
-13.1871
 21
142.147
  0
LINE
  8
0
 10
-13.1871
 20
142.147
 11
-12.6791
 21
141.778
  0
LINE
  8
0
 10
-12.6791
 20
141.778
 11
-12.1289
 21
141.476
  0
LINE
  8
0
 10
-12.1289
 20
141.476
 11
-11.5451
 21
141.245
  0
LINE
  8
0
 10
-11.5451
 20
141.245
 11
-10.9369
 21
141.089
  0
LINE
  8
0
 10
-10.9369
 20
141.089
 11
-10.3139
 21
141.01
  0
LINE
  8
0
 10
-10.3139
 20
141.01
 11
10.3139
 21
141.01
  0
LINE
  8
0
 10
10.3139
 20
141.01
 11
10.9369
 21
141.089
  0
LINE
  8
0
 10
10.9369
 20
141.089
 11
11.5451
 21
141.245
  0
LINE
  8
0
 10
11.5451
 20
141.245
 11
12.1289
 21
141.476
  0
LINE
  8
0
 10
12.1289
 20
141.476
 11
12.6791
 21
141.778
  0
LINE
  8
0
 10
12.6791
 20
141.778
 11
13.1871
 21
142.147
  0
LINE
  8
0
 10
13.1871
 20
142.147
 11
13.6448
 21
142.577
  0
LINE
  8
0
 10
13.6448
 20
142.577
 11
14.0451
 21
143.061
  0
LINE
  8
0
 10
14.0451
 20
143.061
 11
14.3815
 21
143.591
  0
LINE
  8
0
 10
14.3815
 20
143.591
 11
14.6489
 21
144.159
  0
LINE
  8
0
 10
14.6489
 20
144.159
 11
14.8429
 21
144.757
  0
LINE
  8
0
 10
14.8429
 20
144.757
 11
14.9606
 21
145.373
  0
LINE
  8
0
 10
14.9606
 20
145.373
 11
15
 21
146
  0
LINE
  8
0
 10
15
 20
146
 11
15
 21
166
  0
LINE
  8
0
 10
15
 20
166
 11
14.9606
 21
166.627
  0
LINE
  8
0
 10
14.9606
 20
166.627
 11
14.8429
 21
167.243
  0
LINE
  8
0
 10
14.8429
 20
167.243
 11
14.6489
 21
167.841
  0
LINE
  8
0
 10
14.6489
 20
167.841
 11
14.3815
 21
168.409
  0
LINE
  8
0
 10
14.3815
 20
168.409
 11
14.0451
 21
168.939
  0
LINE
  8
0
 10
14.0451
 20
168.939
 11
13.6448
 21
169.423
  0
LINE
  8
0
 10
13.6448
 20
169.423
 11
13.1871
 21
169.853
  0
LINE
  8
0
 10
13.1871
 20
169.853
 11
12.6791
 21
170.222
  0
LINE
  8
0
 10
12.6791
 20
170.222
 11
12.1289
 21
170.524
  0
LINE
  8
0
 10
12.1289
 20
170.524
 11
11.5451
 21
170.755
  0
LINE
  8
0
 10
11.5451
 20
170.755
 11
10.9369
 21
170.911
  0
LINE
  8
0
 10
10.9369
 20
170.911
 11
10.3139
 21
170.99
  0
LINE
  8
0
 10
10.3139
 20
170.99
 11
-10.3139
 21
170.99
  0
LINE
  8
0
 10
-10.3139
 20
170.99
 11
-10.9369
 21
170.911
  0
LINE
  8
0
 10
-10.9369
 20
170.911
 11
-11.5451
 21
170.755
  0
LINE
  8
0
 10
-11.5451
 20
170.755
 11
-12.1289
 21
170.524
  0
LINE
  8
0
 10
-12.1289
 20
170.524
 11
-12.6791
 21
170.222
  0
LINE
  8
0
 10
-12.6791
 20
170.222
 11
-13.1871
 21
169.853
  0
LINE
  8
0
 10
-13.1871
 20
169.853
 11
-13.5
 21
169.559
  0
LINE
  8
0
 10
-13.5
 20
169.559
 11
-13.5
 21
170.99
  0
LINE
  8
0
 10
-13.5
 20
170.99
 11
-16.5
 21
170.99
  0
LINE
  8
0
 10
-16.5
 20
170.99
 11
-16.5
 21
141.01
  0
LINE
  8
0
 10
-16.5
 20
141.01
 11
-13.5
 21
141.01
  0
LINE
  8
0
 10
-13.5
 20
141.01
 11
-13.5
 21
142.441
  0
LINE
  8
0
 10
-9.74316
 20
142.635
 11
-10.2256
 21
142.696
  0
LINE
  8
0
 10
-10.2256
 20
142.696
 11
-10.6967
 21
142.817
  0
LINE
  8
0
 10
-10.6967
 20
142.817
 11
-11.1489
 21
142.996
  0
LINE
  8
0
 10
-11.1489
 20
142.996
 11
-11.5751
 21
143.23
  0
LINE
  8
0
 10
-11.5751
 20
143.23
 11
-11.9685
 21
143.516
  0
LINE
  8
0
 10
-11.9685
 20
143.516
 11
-12.323
 21
143.849
  0
LINE
  8
0
 10
-12.323
 20
143.849
 11
-12.633
 21
144.224
  0
LINE
  8
0
 10
-12.633
 20
144.224
 11
-12.8936
 21
144.634
  0
LINE
  8
0
 10
-12.8936
 20
144.634
 11
-13.1007
 21
145.074
  0
LINE
  8
0
 10
-13.1007
 20
145.074
 11
-13.251
 21
145.537
  0
LINE
  8
0
 10
-13.251
 20
145.537
 11
-13.3421
 21
146.015
  0
LINE
  8
0
 10
-13.3421
 20
146.015
 11
-13.3726
 21
146.5
  0
LINE
  8
0
 10
-13.3726
 20
146.5
 11
-13.3726
 21
165.5
  0
LINE
  8
0
 10
-13.3726
 20
165.5
 11
-13.3421
 21
165.985
  0
LINE
  8
0
 10
-13.3421
 20
165.985
 11
-13.251
 21
166.463
  0
LINE
  8
0
 10
-13.251
 20
166.463
 11
-13.1007
 21
166.926
  0
LINE
  8
0
 10
-13.1007
 20
166.926
 11
-12.8936
 21
167.366
  0
LINE
  8
0
 10
-12.8936
 20
167.366
 11
-12.633
 21
167.776
  0
LINE
  8
0
 10
-12.633
 20
167.776
 11
-12.323
 21
168.151
  0
LINE
  8
0
 10
-12.323
 20
168.151
 11
-11.9685
 21
168.484
  0
LINE
  8
0
 10
-11.9685
 20
168.484
 11
-11.5751
 21
168.77
  0
LINE
  8
0
 10
-11.5751
 20
168.77
 11
-11.1489
 21
169.004
  0
LINE
  8
0
 10
-11.1489
 20
169.004
 11
-10.6967
 21
169.183
  0
LINE
  8
0
 10
-10.6967
 20
169.183
 11
-10.2256
 21
169.304
  0
LINE
  8
0
 10
-10.2256
 20
169.304
 11
-9.74316
 21
169.365
  0
LINE
  8
0
 10
-9.74316
 20
169.365
 11
9.74316
 21
169.365
  0
LINE
  8
0
 10
9.74316
 20
169.365
 11
10.2256
 21
169.304
  0
LINE
  8
0
 10
10.2256
 20
169.304
 11
10.6967
 21
169.183
  0
LINE
  8
0
 10
10.6967
 20
169.183
 11
11.1489
 21
169.004
  0
LINE
  8
0
 10
11.1489
 20
169.004
 11
11.5751
 21
168.77
  0
LINE
  8
0
 10
11.5751
 20
168.77
 11
11.9685
 21
168.484
  0
LINE
  8
0
 10
11.9685
 20
168.484
 11
12.323
 21
168.151
  0
LINE
  8
0
 10
12.323
 20
168.151
 11
12.633
 21
167.776
  0
LINE
  8
0
 10
12.633
 20
167.776
 11
12.8936
 21
167.366
  0
LINE
  8
0
 10
12.8936
 20
167.366
 11
13.1007
 21
166.926
  0
LINE
  8
0
 10
13.1007
 20
166.926
 11
13.251
 21
166.463
  0
LINE
  8
0
 10
13.251
 20
166.463
 11
13.3421
 21
165.985
  0
LINE
  8
0
 10
13.3421
 20
165.985
 11
13.3726
 21
165.5
  0
LINE
  8
0
 10
13.3726
 20
165.5
 11
13.3726
 21
146.5
  0
LINE
  8
0
 10
13.3726
 20
146.5
 11
13.3421
 21
146.015
  0
LINE
  8
0
 10
13.3421
 20
146.015
 11
13.251
 21
145.537
  0
LINE
  8
0
 10
13.251
 20
145.537
 11
13.1007
 21
145.074
  0
LINE
  8
0
 10
13.1007
 20
145.074
 11
12.8936
 21
144.634
  0
LINE
  8
0
 10
12.8936
 20
144.634
 11
12.633
 21
144.224
  0
LINE
  8
0
 10
12.633
 20
144.224
 11
12.323
 21
143.849
  0
LINE
  8
0
 10
12.323
 20
143.849
 11
11.9685
 21
143.516
  0
LINE
  8
0
 10
11.9685
 20
143.516
 11
11.5751
 21
143.23
  0
LINE
  8
0
 10
11.5751
 20
143.23
 11
11.1489
 21
142.996
  0
LINE
  8
0
 10
11.1489
 20
142.996
 11
10.6967
 21
142.817
  0
LINE
  8
0
 10
10.6967
 20
142.817
 11
10.2256
 21
142.696
  0
LINE
  8
0
 10
10.2256
 20
142.696
 11
9.74316
 21
142.635
  0
LINE
  8
0
 10
9.74316
 20
142.635
 11
-9.74316
 21
142.635
  0
LINE
  8
0
 10
10.9369
 20
102.089
 11
11.5451
 21
102.245
  0
LINE
  8
0
 10
11.5451
 20
102.245
 11
12.1289
 21
102.476
  0
LINE
  8
0
 10
12.1289
 20
102.476
 11
12.6791
 21
102.778
  0
LINE
  8
0
 10
12.6791
 20
102.778
 11
13.1871
 21
103.147
  0
LINE
  8
0
 10
13.1871
 20
103.147
 11
13.6448
 21
103.577
  0
LINE
  8
0
 10
13.6448
 20
103.577
 11
14.0451
 21
104.061
  0
LINE
  8
0
 10
14.0451
 20
104.061
 11
14.3815
 21
104.591
  0
LINE
  8
0
 10
14.3815
 20
104.591
 11
14.6489
 21
105.159
  0
LINE
  8
0
 10
14.6489
 20
105.159
 11
14.8429
 21
105.757
  0
LINE
  8
0
 10
14.8429
 20
105.757
 11
14.9606
 21
106.373
  0
LINE
  8
0
 10
14.9606
 20
106.373
 11
15
 21
107
  0
LINE
  8
0
 10
15
 20
107
 11
15
 21
127
  0
LINE
  8
0
 10
15
 20
127
 11
14.9606
 21
127.627
  0
LINE
  8
0
 10
14.9606
 20
127.627
 11
14.8429
 21
128.243
  0
LINE
  8
0
 10
14.8429
 20
128.243
 11
14.6489
 21
128.841
  0
LINE
  8
0
 10
14.6489
 20
128.841
 11
14.3815
 21
129.409
  0
LINE
  8
0
 10
14.3815
 20
129.409
 11
14.0451
 21
129.939
  0
LINE
  8
0
 10
14.0451
 20
129.939
 11
13.6448
 21
130.423
  0
LINE
  8
0
 10
13.6448
 20
130.423
 11
13.1871
 21
130.853
  0
LINE
  8
0
 10
13.1871
 20
130.853
 11
12.6791
 21
131.222
  0
LINE
  8
0
 10
12.6791
 20
131.222
 11
12.1289
 21
131.524
  0
LINE
  8
0
 10
12.1289
 20
131.524
 11
11.5451
 21
131.755
  0
LINE
  8
0
 10
11.5451
 20
131.755
 11
10.9369
 21
131.911
  0
LINE
  8
0
 10
10.9369
 20
131.911
 11
10.3139
 21
131.99
  0
LINE
  8
0
 10
10.3139
 20
131.99
 11
-10.3139
 21
131.99
  0
LINE
  8
0
 10
-10.3139
 20
131.99
 11
-10.9369
 21
131.911
  0
LINE
  8
0
 10
-10.9369
 20
131.911
 11
-11.5451
 21
131.755
  0
LINE
  8
0
 10
-11.5451
 20
131.755
 11
-12.1289
 21
131.524
  0
LINE
  8
0
 10
-12.1289
 20
131.524
 11
-12.6791
 21
131.222
  0
LINE
  8
0
 10
-12.6791
 20
131.222
 11
-13.1871
 21
130.853
  0
LINE
  8
0
 10
-13.1871
 20
130.853
 11
-13.5
 21
130.559
  0
LINE
  8
0
 10
-13.5
 20
130.559
 11
-13.5
 21
131.615
  0
LINE
  8
0
 10
-13.5
 20
131.615
 11
-16.5
 21
131.615
  0
LINE
  8
0
 10
-16.5
 20
131.615
 11
-16.5
 21
102.385
  0
LINE
  8
0
 10
-16.5
 20
102.385
 11
-13.5
 21
102.385
  0
LINE
  8
0
 10
-13.5
 20
102.385
 11
-13.5
 21
103.441
  0
LINE
  8
0
 10
-13.5
 20
103.441
 11
-13.1871
 21
103.147
  0
LINE
  8
0
 10
-13.1871
 20
103.147
 11
-12.6791
 21
102.778
  0
LINE
  8
0
 10
-12.6791
 20
102.778
 11
-12.1289
 21
102.476
  0
LINE
  8
0
 10
-12.1289
 20
102.476
 11
-11.5451
 21
102.245
  0
LINE
  8
0
 10
-11.5451
 20
102.245
 11
-10.9369
 21
102.089
  0
LINE
  8
0
 10
-10.9369
 20
102.089
 11
-10.3139
 21
102.01
  0
LINE
  8
0
 10
-10.3139
 20
102.01
 11
10.3139
 21
102.01
  0
LINE
  8
0
 10
10.3139
 20
102.01
 11
10.9369
 21
102.089
  0
LINE
  8
0
 10
10.9369
 20
63.0886
 11
11.5451
 21
63.2447
  0
LINE
  8
0
 10
11.5451
 20
63.2447
 11
12.1289
 21
63.4759
  0
LINE
  8
0
 10
12.1289
 20
63.4759
 11
12.6791
 21
63.7784
  0
LINE
  8
0
 10
12.6791
 20
63.7784
 11
13.1871
 21
64.1474
  0
LINE
  8
0
 10
13.1871
 20
64.1474
 11
13.6448
 21
64.5773
  0
LINE
  8
0
 10
13.6448
 20
64.5773
 11
14.0451
 21
65.0611
  0
LINE
  8
0
 10
14.0451
 20
65.0611
 11
14.3815
 21
65.5912
  0
LINE
  8
0
 10
14.3815
 20
65.5912
 11
14.6489
 21
66.1594
  0
LINE
  8
0
 10
14.6489
 20
66.1594
 11
14.8429
 21
66.7566
  0
LINE
  8
0
 10
14.8429
 20
66.7566
 11
14.9606
 21
67.3733
  0
LINE
  8
0
 10
14.9606
 20
67.3733
 11
15
 21
68
  0
LINE
  8
0
 10
15
 20
68
 11
15
 21
88
  0
LINE
  8
0
 10
15
 20
88
 11
14.9606
 21
88.6267
  0
LINE
  8
0
 10
14.9606
 20
88.6267
 11
14.8429
 21
89.2434
  0
LINE
  8
0
 10
14.8429
 20
89.2434
 11
14.6489
 21
89.8406
  0
LINE
  8
0
 10
14.6489
 20
89.8406
 11
14.3815
 21
90.4088
  0
LINE
  8
0
 10
14.3815
 20
90.4088
 11
14.0451
 21
90.9389
  0
LINE
  8
0
 10
14.0451
 20
90.9389
 11
13.6448
 21
91.4227
  0
LINE
  8
0
 10
13.6448
 20
91.4227
 11
13.1871
 21
91.8526
  0
LINE
  8
0
 10
13.1871
 20
91.8526
 11
12.6791
 21
92.2216
  0
LINE
  8
0
 10
12.6791
 20
92.2216
 11
12.1289
 21
92.5241
  0
LINE
  8
0
 10
12.1289
 20
92.5241
 11
11.5451
 21
92.7553
  0
LINE
  8
0
 10
11.5451
 20
92.7553
 11
10.9369
 21
92.9114
  0
LINE
  8
0
 10
10.9369
 20
92.9114
 11
10.3139
 21
92.9901
  0
LINE
  8
0
 10
10.3139
 20
92.9901
 11
-10.3139
 21
92.9901
  0
LINE
  8
0
 10
-10.3139
 20
92.9901
 11
-10.9369
 21
92.9114
  0
LINE
  8
0
 10
-10.9369
 20
92.9114
 11
-11.5451
 21
92.7553
  0
LINE
  8
0
 10
-11.5451
 20
92.7553
 11
-12.1289
 21
92.5241
  0
LINE
  8
0
 10
-12.1289
 20
92.5241
 11
-12.6791
 21
92.2216
  0
LINE
  8
0
 10
-12.6791
 20
92.2216
 11
-13.1871
 21
91.8526
  0
LINE
  8
0
 10
-13.1871
 20
91.8526
 11
-13.6448
 21
91.4227
  0
LINE
  8
0
 10
-13.6448
 20
91.4227
 11
-14.0451
 21
90.9389
  0
LINE
  8
0
 10
-14.0451
 20
90.9389
 11
-14.3815
 21
90.4088
  0
LINE
  8
0
 10
-14.3815
 20
90.4088
 11
-14.6489
 21
89.8406
  0
LINE
  8
0
 10
-14.6489
 20
89.8406
 11
-14.8429
 21
89.2434
  0
LINE
  8
0
 10
-14.8429
 20
89.2434
 11
-14.9
 21
88.9442
  0
LINE
  8
0
 10
-14.9
 20
88.9442
 11
-16.5
 21
88.9442
  0
LINE
  8
0
 10
-16.5
 20
88.9442
 11
-16.5
 21
67.0558
  0
LINE
  8
0
 10
-16.5
 20
67.0558
 11
-14.9
 21
67.0558
  0
LINE
  8
0
 10
-14.9
 20
67.0558
 11
-14.8429
 21
66.7566
  0
LINE
  8
0
 10
-14.8429
 20
66.7566
 11
-14.6489
 21
66.1594
  0
LINE
  8
0
 10
-14.6489
 20
66.1594
 11
-14.3815
 21
65.5912
  0
LINE
  8
0
 10
-14.3815
 20
65.5912
 11
-14.0451
 21
65.0611
  0
LINE
  8
0
 10
-14.0451
 20
65.0611
 11
-13.6448
 21
64.5773
  0
LINE
  8
0
 10
-13.6448
 20
64.5773
 11
-13.1871
 21
64.1474
  0
LINE
  8
0
 10
-13.1871
 20
64.1474
 11
-12.6791
 21
63.7784
  0
LINE
  8
0
 10
-12.6791
 20
63.7784
 11
-12.1289
 21
63.4759
  0
LINE
  8
0
 10
-12.1289
 20
63.4759
 11
-11.5451
 21
63.2447
  0
LINE
  8
0
 10
-11.5451
 20
63.2447
 11
-10.9369
 21
63.0886
  0
LINE
  8
0
 10
-10.9369
 20
63.0886
 11
-10.3139
 21
63.0099
  0
LINE
  8
0
 10
-10.3139
 20
63.0099
 11
10.3139
 21
63.0099
  0
LINE
  8
0
 10
10.3139
 20
63.0099
 11
10.9369
 21
63.0886
  0
LINE
  8
0
 10
-7.61302
 20
83.7036
 11
-7.83728
 21
83.7319
  0
LINE
  8
0
 10
-7.83728
 20
83.7319
 11
-8.05623
 21
83.7881
  0
LINE
  8
0
 10
-8.05623
 20
83.7881
 11
-8.26639
 21
83.8713
  0
LINE
  8
0
 10
-8.26639
 20
83.8713
 11
-8.46448
 21
83.9802
  0
LINE
  8
0
 10
-8.46448
 20
83.9802
 11
-8.64735
 21
84.1131
  0
LINE
  8
0
 10
-8.64735
 20
84.1131
 11
-8.81213
 21
84.2678
  0
LINE
  8
0
 10
-8.81213
 20
84.2678
 11
-8.95622
 21
84.442
  0
LINE
  8
0
 10
-8.95622
 20
84.442
 11
-9.07735
 21
84.6328
  0
LINE
  8
0
 10
-9.07735
 20
84.6328
 11
-9.17358
 21
84.8374
  0
LINE
  8
0
 10
-9.17358
 20
84.8374
 11
-9.24344
 21
85.0524
  0
LINE
  8
0
 10
-9.24344
 20
85.0524
 11
-9.2858
 21
85.2744
  0
LINE
  8
0
 10
-9.2858
 20
85.2744
 11
-9.29999
 21
85.5
  0
LINE
  8
0
 10
-9.29999
 20
85.5
 11
-9.2858
 21
85.7256
  0
LINE
  8
0
 10
-9.2858
 20
85.7256
 11
-9.24344
 21
85.9476
  0
LINE
  8
0
 10
-9.24344
 20
85.9476
 11
-9.17358
 21
86.1626
  0
LINE
  8
0
 10
-9.17358
 20
86.1626
 11
-9.07735
 21
86.3671
  0
LINE
  8
0
 10
-9.07735
 20
86.3671
 11
-8.95622
 21
86.558
  0
LINE
  8
0
 10
-8.95622
 20
86.558
 11
-8.81213
 21
86.7322
  0
LINE
  8
0
 10
-8.81213
 20
86.7322
 11
-8.64735
 21
86.8869
  0
LINE
  8
0
 10
-8.64735
 20
86.8869
 11
-8.46448
 21
87.0198
  0
LINE
  8
0
 10
-8.46448
 20
87.0198
 11
-8.26639
 21
87.1287
  0
LINE
  8
0
 10
-8.26639
 20
87.1287
 11
-8.05623
 21
87.2119
  0
LINE
  8
0
 10
-8.05623
 20
87.2119
 11
-7.83728
 21
87.2681
  0
LINE
  8
0
 10
-7.83728
 20
87.2681
 11
-7.61302
 21
87.2964
  0
LINE
  8
0
 10
-7.61302
 20
87.2964
 11
-7.38696
 21
87.2964
  0
LINE
  8
0
 10
-7.38696
 20
87.2964
 11
-7.1627
 21
87.2681
  0
LINE
  8
0
 10
-7.1627
 20
87.2681
 11
-6.94376
 21
87.2119
  0
LINE
  8
0
 10
-6.94376
 20
87.2119
 11
-6.7336
 21
87.1287
  0
LINE
  8
0
 10
-6.7336
 20
87.1287
 11
-6.53551
 21
87.0198
  0
LINE
  8
0
 10
-6.53551
 20
87.0198
 11
-6.35263
 21
86.8869
  0
LINE
  8
0
 10
-6.35263
 20
86.8869
 11
-6.18785
 21
86.7322
  0
LINE
  8
0
 10
-6.18785
 20
86.7322
 11
-6.04376
 21
86.558
  0
LINE
  8
0
 10
-6.04376
 20
86.558
 11
-5.92264
 21
86.3671
  0
LINE
  8
0
 10
-5.92264
 20
86.3671
 11
-5.8264
 21
86.1626
  0
LINE
  8
0
 10
-5.8264
 20
86.1626
 11
-5.75655
 21
85.9476
  0
LINE
  8
0
 10
-5.75655
 20
85.9476
 11
-5.71419
 21
85.7256
  0
LINE
  8
0
 10
-5.71419
 20
85.7256
 11
-5.7
 21
85.5
  0
LINE
  8
0
 10
-5.7
 20
85.5
 11
-5.71419
 21
85.2744
  0
LINE
  8
0
 10
-5.71419
 20
85.2744
 11
-5.75655
 21
85.0524
  0
LINE
  8
0
 10
-5.75655
 20
85.0524
 11
-5.8264
 21
84.8374
  0
LINE
  8
0
 10
-5.8264
 20
84.8374
 11
-5.92264
 21
84.6328
  0
LINE
  8
0
 10
-5.92264
 20
84.6328
 11
-6.04376
 21
84.442
  0
LINE
  8
0
 10
-6.04376
 20
84.442
 11
-6.18785
 21
84.2678
  0
LINE
  8
0
 10
-6.18785
 20
84.2678
 11
-6.35263
 21
84.1131
  0
LINE
  8
0
 10
-6.35263
 20
84.1131
 11
-6.53551
 21
83.9802
  0
LINE
  8
0
 10
-6.53551
 20
83.9802
 11
-6.7336
 21
83.8713
  0
LINE
  8
0
 10
-6.7336
 20
83.8713
 11
-6.94376
 21
83.7881
  0
LINE
  8
0
 10
-6.94376
 20
83.7881
 11
-7.1627
 21
83.7319
  0
LINE
  8
0
 10
-7.1627
 20
83.7319
 11
-7.38696
 21
83.7036
  0
LINE
  8
0
 10
-7.38696
 20
83.7036
 11
-7.61302
 21
83.7036
  0
LINE
  8
0
 10
7.38696
 20
83.7036
 11
7.1627
 21
83.7319
  0
LINE
  8
0
 10
7.1627
 20
83.7319
 11
6.94376
 21
83.7881
  0
LINE
  8
0
 10
6.94376
 20
83.7881
 11
6.7336
 21
83.8713
  0
LINE
  8
0
 10
6.7336
 20
83.8713
 11
6.53551
 21
83.9802
  0
LINE
  8
0
 10
6.53551
 20
83.9802
 11
6.35263
 21
84.1131
  0
LINE
  8
0
 10
6.35263
 20
84.1131
 11
6.18785
 21
84.2678
  0
LINE
  8
0
 10
6.18785
 20
84.2678
 11
6.04376
 21
84.442
  0
LINE
  8
0
 10
6.04376
 20
84.442
 11
5.92264
 21
84.6328
  0
LINE
  8
0
 10
5.92264
 20
84.6328
 11
5.8264
 21
84.8374
  0
LINE
  8
0
 10
5.8264
 20
84.8374
 11
5.75655
 21
85.0524
  0
LINE
  8
0
 10
5.75655
 20
85.0524
 11
5.71419
 21
85.2744
  0
LINE
  8
0
 10
5.71419
 20
85.2744
 11
5.7
 21
85.5
  0
LINE
  8
0
 10
5.7
 20
85.5
 11
5.71419
 21
85.7256
  0
LINE
  8
0
 10
5.71419
 20
85.7256
 11
5.75655
 21
85.9476
  0
LINE
  8
0
 10
5.75655
 20
85.9476
 11
5.8264
 21
86.1626
  0
LINE
  8
0
 10
5.8264
 20
86.1626
 11
5.92264
 21
86.3671
  0
LINE
  8
0
 10
5.92264
 20
86.3671
 11
6.04376
 21
86.558
  0
LINE
  8
0
 10
6.04376
 20
86.558
 11
6.18785
 21
86.7322
  0
LINE
  8
0
 10
6.18785
 20
86.7322
 11
6.35263
 21
86.8869
  0
LINE
  8
0
 10
6.35263
 20
86.8869
 11
6.53551
 21
87.0198
  0
LINE
  8
0
 10
6.53551
 20
87.0198
 11
6.7336
 21
87.1287
  0
LINE
  8
0
 10
6.7336
 20
87.1287
 11
6.94376
 21
87.2119
  0
LINE
  8
0
 10
6.94376
 20
87.2119
 11
7.1627
 21
87.2681
  0
LINE
  8
0
 10
7.1627
 20
87.2681
 11
7.38696
 21
87.2964
  0
LINE
  8
0
 10
7.38696
 20
87.2964
 11
7.61302
 21
87.2964
  0
LINE
  8
0
 10
7.61302
 20
87.2964
 11
7.83728
 21
87.2681
  0
LINE
  8
0
 10
7.83728
 20
87.2681
 11
8.05623
 21
87.2119
  0
LINE
  8
0
 10
8.05623
 20
87.2119
 11
8.26639
 21
87.1287
  0
LINE
  8
0
 10
8.26639
 20
87.1287
 11
8.46448
 21
87.0198
  0
LINE
  8
0
 10
8.46448
 20
87.0198
 11
8.64735
 21
86.8869
  0
LINE
  8
0
 10
8.64735
 20
86.8869
 11
8.81213
 21
86.7322
  0
LINE
  8
0
 10
8.81213
 20
86.7322
 11
8.95622
 21
86.558
  0
LINE
  8
0
 10
8.95622
 20
86.558
 11
9.07735
 21
86.3671
  0
LINE
  8
0
 10
9.07735
 20
86.3671
 11
9.17358
 21
86.1626
  0
LINE
  8
0
 10
9.17358
 20
86.1626
 11
9.24344
 21
85.9476
  0
LINE
  8
0
 10
9.24344
 20
85.9476
 11
9.2858
 21
85.7256
  0
LINE
  8
0
 10
9.2858
 20
85.7256
 11
9.29999
 21
85.5
  0
LINE
  8
0
 10
9.29999
 20
85.5
 11
9.2858
 21
85.2744
  0
LINE
  8
0
 10
9.2858
 20
85.2744
 11
9.24344
 21
85.0524
  0
LINE
  8
0
 10
9.24344
 20
85.0524
 11
9.17358
 21
84.8374
  0
LINE
  8
0
 10
9.17358
 20
84.8374
 11
9.07735
 21
84.6328
  0
LINE
  8
0
 10
9.07735
 20
84.6328
 11
8.95622
 21
84.442
  0
LINE
  8
0
 10
8.95622
 20
84.442
 11
8.81213
 21
84.2678
  0
LINE
  8
0
 10
8.81213
 20
84.2678
 11
8.64735
 21
84.1131
  0
LINE
  8
0
 10
8.64735
 20
84.1131
 11
8.46448
 21
83.9802
  0
LINE
  8
0
 10
8.46448
 20
83.9802
 11
8.26639
 21
83.8713
  0
LINE
  8
0
 10
8.26639
 20
83.8713
 11
8.05623
 21
83.7881
  0
LINE
  8
0
 10
8.05623
 20
83.7881
 11
7.83728
 21
83.7319
  0
LINE
  8
0
 10
7.83728
 20
83.7319
 11
7.61302
 21
83.7036
  0
LINE
  8
0
 10
7.61302
 20
83.7036
 11
7.38696
 21
83.7036
  0
LINE
  8
0
 10
-7.61302
 20
68.7036
 11
-7.83728
 21
68.7319
  0
LINE
  8
0
 10
-7.83728
 20
68.7319
 11
-8.05623
 21
68.7881
  0
LINE
  8
0
 10
-8.05623
 20
68.7881
 11
-8.26639
 21
68.8713
  0
LINE
  8
0
 10
-8.26639
 20
68.8713
 11
-8.46448
 21
68.9802
  0
LINE
  8
0
 10
-8.46448
 20
68.9802
 11
-8.64735
 21
69.1131
  0
LINE
  8
0
 10
-8.64735
 20
69.1131
 11
-8.81213
 21
69.2678
  0
LINE
  8
0
 10
-8.81213
 20
69.2678
 11
-8.95622
 21
69.442
  0
LINE
  8
0
 10
-8.95622
 20
69.442
 11
-9.07735
 21
69.6329
  0
LINE
  8
0
 10
-9.07735
 20
69.6329
 11
-9.17358
 21
69.8374
  0
LINE
  8
0
 10
-9.17358
 20
69.8374
 11
-9.24344
 21
70.0524
  0
LINE
  8
0
 10
-9.24344
 20
70.0524
 11
-9.2858
 21
70.2744
  0
LINE
  8
0
 10
-9.2858
 20
70.2744
 11
-9.29999
 21
70.5
  0
LINE
  8
0
 10
-9.29999
 20
70.5
 11
-9.2858
 21
70.7256
  0
LINE
  8
0
 10
-9.2858
 20
70.7256
 11
-9.24344
 21
70.9476
  0
LINE
  8
0
 10
-9.24344
 20
70.9476
 11
-9.17358
 21
71.1626
  0
LINE
  8
0
 10
-9.17358
 20
71.1626
 11
-9.07735
 21
71.3672
  0
LINE
  8
0
 10
-9.07735
 20
71.3672
 11
-8.95622
 21
71.558
  0
LINE
  8
0
 10
-8.95622
 20
71.558
 11
-8.81213
 21
71.7322
  0
LINE
  8
0
 10
-8.81213
 20
71.7322
 11
-8.64735
 21
71.8869
  0
LINE
  8
0
 10
-8.64735
 20
71.8869
 11
-8.46448
 21
72.0198
  0
LINE
  8
0
 10
-8.46448
 20
72.0198
 11
-8.26639
 21
72.1287
  0
LINE
  8
0
 10
-8.26639
 20
72.1287
 11
-8.05623
 21
72.2119
  0
LINE
  8
0
 10
-8.05623
 20
72.2119
 11
-7.83728
 21
72.2681
  0
LINE
  8
0
 10
-7.83728
 20
72.2681
 11
-7.61302
 21
72.2964
  0
LINE
  8
0
 10
-7.61302
 20
72.2964
 11
-7.38696
 21
72.2964
  0
LINE
  8
0
 10
-7.38696
 20
72.2964
 11
-7.1627
 21
72.2681
  0
LINE
  8
0
 10
-7.1627
 20
72.2681
 11
-6.94376
 21
72.2119
  0
LINE
  8
0
 10
-6.94376
 20
72.2119
 11
-6.7336
 21
72.1287
  0
LINE
  8
0
 10
-6.7336
 20
72.1287
 11
-6.53551
 21
72.0198
  0
LINE
  8
0
 10
-6.53551
 20
72.0198
 11
-6.35263
 21
71.8869
  0
LINE
  8
0
 10
-6.35263
 20
71.8869
 11
-6.18785
 21
71.7322
  0
LINE
  8
0
 10
-6.18785
 20
71.7322
 11
-6.04376
 21
71.558
  0
LINE
  8
0
 10
-6.04376
 20
71.558
 11
-5.92264
 21
71.3672
  0
LINE
  8
0
 10
-5.92264
 20
71.3672
 11
-5.8264
 21
71.1626
  0
LINE
  8
0
 10
-5.8264
 20
71.1626
 11
-5.75655
 21
70.9476
  0
LINE
  8
0
 10
-5.75655
 20
70.9476
 11
-5.71419
 21
70.7256
  0
LINE
  8
0
 10
-5.71419
 20
70.7256
 11
-5.7
 21
70.5
  0
LINE
  8
0
 10
-5.7
 20
70.5
 11
-5.71419
 21
70.2744
  0
LINE
  8
0
 10
-5.71419
 20
70.2744
 11
-5.75655
 21
70.0524
  0
LINE
  8
0
 10
-5.75655
 20
70.0524
 11
-5.8264
 21
69.8374
  0
LINE
  8
0
 10
-5.8264
 20
69.8374
 11
-5.92264
 21
69.6329
  0
LINE
  8
0
 10
-5.92264
 20
69.6329
 11
-6.04376
 21
69.442
  0
LINE
  8
0
 10
-6.04376
 20
69.442
 11
-6.18785
 21
69.2678
  0
LINE
  8
0
 10
-6.18785
 20
69.2678
 11
-6.35263
 21
69.1131
  0
LINE
  8
0
 10
-6.35263
 20
69.1131
 11
-6.53551
 21
68.9802
  0
LINE
  8
0
 10
-6.53551
 20
68.9802
 11
-6.7336
 21
68.8713
  0
LINE
  8
0
 10
-6.7336
 20
68.8713
 11
-6.94376
 21
68.7881
  0
LINE
  8
0
 10
-6.94376
 20
68.7881
 11
-7.1627
 21
68.7319
  0
LINE
  8
0
 10
-7.1627
 20
68.7319
 11
-7.38696
 21
68.7036
  0
LINE
  8
0
 10
-7.38696
 20
68.7036
 11
-7.61302
 21
68.7036
  0
LINE
  8
0
 10
7.38696
 20
68.7036
 11
7.1627
 21
68.7319
  0
LINE
  8
0
 10
7.1627
 20
68.7319
 11
6.94376
 21
68.7881
  0
LINE
  8
0
 10
6.94376
 20
68.7881
 11
6.7336
 21
68.8713
  0
LINE
  8
0
 10
6.7336
 20
68.8713
 11
6.53551
 21
68.9802
  0
LINE
  8
0
 10
6.53551
 20
68.9802
 11
6.35263
 21
69.1131
  0
LINE
  8
0
 10
6.35263
 20
69.1131
 11
6.18785
 21
69.2678
  0
LINE
  8
0
 10
6.18785
 20
69.2678
 11
6.04376
 21
69.442
  0
LINE
  8
0
 10
6.04376
 20
69.442
 11
5.92264
 21
69.6329
  0
LINE
  8
0
 10
5.92264
 20
69.6329
 11
5.8264
 21
69.8374
  0
LINE
  8
0
 10
5.8264
 20
69.8374
 11
5.75655
 21
70.0524
  0
LINE
  8
0
 10
5.75655
 20
70.0524
 11
5.71419
 21
70.2744
  0
LINE
  8
0
 10
5.71419
 20
70.2744
 11
5.7
 21
70.5
  0
LINE
  8
0
 10
5.7
 20
70.5
 11
5.71419
 21
70.7256
  0
LINE
  8
0
 10
5.71419
 20
70.7256
 11
5.75655
 21
70.9476
  0
LINE
  8
0
 10
5.75655
 20
70.9476
 11
5.8264
 21
71.1626
  0
LINE
  8
0
 10
5.8264
 20
71.1626
 11
5.92264
 21
71.3672
  0
LINE
  8
0
 10
5.92264
 20
71.3672
 11
6.04376
 21
71.558
  0
LINE
  8
0
 10
6.04376
 20
71.558
 11
6.18785
 21
71.7322
  0
LINE
  8
0
 10
6.18785
 20
71.7322
 11
6.35263
 21
71.8869
  0
LINE
  8
0
 10
6.35263
 20
71.8869
 11
6.53551
 21
72.0198
  0
LINE
  8
0
 10
6.53551
 20
72.0198
 11
6.7336
 21
72.1287
  0
LINE
  8
0
 10
6.7336
 20
72.1287
 11
6.94376
 21
72.2119
  0
LINE
  8
0
 10
6.94376
 20
72.2119
 11
7.1627
 21
72.2681
  0
LINE
  8
0
 10
7.1627
 20
72.2681
 11
7.38696
 21
72.2964
  0
LINE
  8
0
 10
7.38696
 20
72.2964
 11
7.61302
 21
72.2964
  0
LINE
  8
0
 10
7.61302
 20
72.2964
 11
7.83728
 21
72.2681
  0
LINE
  8
0
 10
7.83728
 20
72.2681
 11
8.05623
 21
72.2119
  0
LINE
  8
0
 10
8.05623
 20
72.2119
 11
8.26639
 21
72.1287
  0
LINE
  8
0
 10
8.26639
 20
72.1287
 11
8.46448
 21
72.0198
  0
LINE
  8
0
 10
8.46448
 20
72.0198
 11
8.64735
 21
71.8869
  0
LINE
  8
0
 10
8.64735
 20
71.8869
 11
8.81213
 21
71.7322
  0
LINE
  8
0
 10
8.81213
 20
71.7322
 11
8.95622
 21
71.558
  0
LINE
  8
0
 10
8.95622
 20
71.558
 11
9.07735
 21
71.3672
  0
LINE
  8
0
 10
9.07735
 20
71.3672
 11
9.17358
 21
71.1626
  0
LINE
  8
0
 10
9.17358
 20
71.1626
 11
9.24344
 21
70.9476
  0
LINE
  8
0
 10
9.24344
 20
70.9476
 11
9.2858
 21
70.7256
  0
LINE
  8
0
 10
9.2858
 20
70.7256
 11
9.29999
 21
70.5
  0
LINE
  8
0
 10
9.29999
 20
70.5
 11
9.2858
 21
70.2744
  0
LINE
  8
0
 10
9.2858
 20
70.2744
 11
9.24344
 21
70.0524
  0
LINE
  8
0
 10
9.24344
 20
70.0524
 11
9.17358
 21
69.8374
  0
LINE
  8
0
 10
9.17358
 20
69.8374
 11
9.07735
 21
69.6329
  0
LINE
  8
0
 10
9.07735
 20
69.6329
 11
8.95622
 21
69.442
  0
LINE
  8
0
 10
8.95622
 20
69.442
 11
8.81213
 21
69.2678
  0
LINE
  8
0
 10
8.81213
 20
69.2678
 11
8.64735
 21
69.1131
  0
LINE
  8
0
 10
8.64735
 20
69.1131
 11
8.46448
 21
68.9802
  0
LINE
  8
0
 10
8.46448
 20
68.9802
 11
8.26639
 21
68.8713
  0
LINE
  8
0
 10
8.26639
 20
68.8713
 11
8.05623
 21
68.7881
  0
LINE
  8
0
 10
8.05623
 20
68.7881
 11
7.83728
 21
68.7319
  0
LINE
  8
0
 10
7.83728
 20
68.7319
 11
7.61302
 21
68.7036
  0
LINE
  8
0
 10
7.61302
 20
68.7036
 11
7.38696
 21
68.7036
  0
ENDSEC
  0
SECTION
  2
OBJECTS
  0
DICTIONARY
  0
ENDSEC
  0
EOF
