  0
SECTION
  2
BLOCKS
  0
ENDSEC
  0
SECTION
  2
ENTITIES
  0
LINE
  8
0
 10
10.9369
 20
298.589
 11
11.5451
 21
298.745
  0
LINE
  8
0
 10
11.5451
 20
298.745
 11
12.1289
 21
298.976
  0
LINE
  8
0
 10
12.1289
 20
298.976
 11
12.6791
 21
299.278
  0
LINE
  8
0
 10
12.6791
 20
299.278
 11
13.1871
 21
299.647
  0
LINE
  8
0
 10
13.1871
 20
299.647
 11
13.6448
 21
300.077
  0
LINE
  8
0
 10
13.6448
 20
300.077
 11
14.0451
 21
300.561
  0
LINE
  8
0
 10
14.0451
 20
300.561
 11
14.3815
 21
301.091
  0
LINE
  8
0
 10
14.3815
 20
301.091
 11
14.6489
 21
301.659
  0
LINE
  8
0
 10
14.6489
 20
301.659
 11
14.8429
 21
302.257
  0
LINE
  8
0
 10
14.8429
 20
302.257
 11
14.9606
 21
302.873
  0
LINE
  8
0
 10
14.9606
 20
302.873
 11
15
 21
303.5
  0
LINE
  8
0
 10
15
 20
303.5
 11
15
 21
368.5
  0
LINE
  8
0
 10
15
 20
368.5
 11
14.9606
 21
369.127
  0
LINE
  8
0
 10
14.9606
 20
369.127
 11
14.8429
 21
369.743
  0
LINE
  8
0
 10
14.8429
 20
369.743
 11
14.6489
 21
370.341
  0
LINE
  8
0
 10
14.6489
 20
370.341
 11
14.3815
 21
370.909
  0
LINE
  8
0
 10
14.3815
 20
370.909
 11
14.0451
 21
371.439
  0
LINE
  8
0
 10
14.0451
 20
371.439
 11
13.6448
 21
371.923
  0
LINE
  8
0
 10
13.6448
 20
371.923
 11
13.1871
 21
372.353
  0
LINE
  8
0
 10
13.1871
 20
372.353
 11
12.6791
 21
372.722
  0
LINE
  8
0
 10
12.6791
 20
372.722
 11
12.1289
 21
373.024
  0
LINE
  8
0
 10
12.1289
 20
373.024
 11
11.5451
 21
373.255
  0
LINE
  8
0
 10
11.5451
 20
373.255
 11
10.9369
 21
373.411
  0
LINE
  8
0
 10
10.9369
 20
373.411
 11
10.3139
 21
373.49
  0
LINE
  8
0
 10
10.3139
 20
373.49
 11
-10.3139
 21
373.49
  0
LINE
  8
0
 10
-10.3139
 20
373.49
 11
-10.9369
 21
373.411
  0
LINE
  8
0
 10
-10.9369
 20
373.411
 11
-11.5451
 21
373.255
  0
LINE
  8
0
 10
-11.5451
 20
373.255
 11
-12.1289
 21
373.024
  0
LINE
  8
0
 10
-12.1289
 20
373.024
 11
-12.6791
 21
372.722
  0
LINE
  8
0
 10
-12.6791
 20
372.722
 11
-13.1871
 21
372.353
  0
LINE
  8
0
 10
-13.1871
 20
372.353
 11
-13.6448
 21
371.923
  0
LINE
  8
0
 10
-13.6448
 20
371.923
 11
-14.0451
 21
371.439
  0
LINE
  8
0
 10
-14.0451
 20
371.439
 11
-14.3815
 21
370.909
  0
LINE
  8
0
 10
-14.3815
 20
370.909
 11
-14.6489
 21
370.341
  0
LINE
  8
0
 10
-14.6489
 20
370.341
 11
-14.8429
 21
369.743
  0
LINE
  8
0
 10
-14.8429
 20
369.743
 11
-14.9606
 21
369.127
  0
LINE
  8
0
 10
-14.9606
 20
369.127
 11
-15
 21
368.5
  0
LINE
  8
0
 10
-15
 20
368.5
 11
-15
 21
303.5
  0
LINE
  8
0
 10
-15
 20
303.5
 11
-14.9606
 21
302.873
  0
LINE
  8
0
 10
-14.9606
 20
302.873
 11
-14.8429
 21
302.257
  0
LINE
  8
0
 10
-14.8429
 20
302.257
 11
-14.6489
 21
301.659
  0
LINE
  8
0
 10
-14.6489
 20
301.659
 11
-14.3815
 21
301.091
  0
LINE
  8
0
 10
-14.3815
 20
301.091
 11
-14.0451
 21
300.561
  0
LINE
  8
0
 10
-14.0451
 20
300.561
 11
-13.6448
 21
300.077
  0
LINE
  8
0
 10
-13.6448
 20
300.077
 11
-13.1871
 21
299.647
  0
LINE
  8
0
 10
-13.1871
 20
299.647
 11
-12.6791
 21
299.278
  0
LINE
  8
0
 10
-12.6791
 20
299.278
 11
-12.1289
 21
298.976
  0
LINE
  8
0
 10
-12.1289
 20
298.976
 11
-11.5451
 21
298.745
  0
LINE
  8
0
 10
-11.5451
 20
298.745
 11
-10.9369
 21
298.589
  0
LINE
  8
0
 10
-10.9369
 20
298.589
 11
-10.3139
 21
298.51
  0
LINE
  8
0
 10
-10.3139
 20
298.51
 11
10.3139
 21
298.51
  0
LINE
  8
0
 10
10.3139
 20
298.51
 11
10.9369
 21
298.589
  0
LINE
  8
0
 10
-9.74316
 20
300.135
 11
-10.2256
 21
300.196
  0
LINE
  8
0
 10
-10.2256
 20
300.196
 11
-10.6967
 21
300.317
  0
LINE
  8
0
 10
-10.6967
 20
300.317
 11
-11.1489
 21
300.496
  0
LINE
  8
0
 10
-11.1489
 20
300.496
 11
-11.5751
 21
300.73
  0
LINE
  8
0
 10
-11.5751
 20
300.73
 11
-11.9685
 21
301.016
  0
LINE
  8
0
 10
-11.9685
 20
301.016
 11
-12.323
 21
301.349
  0
LINE
  8
0
 10
-12.323
 20
301.349
 11
-12.633
 21
301.724
  0
LINE
  8
0
 10
-12.633
 20
301.724
 11
-12.8936
 21
302.134
  0
LINE
  8
0
 10
-12.8936
 20
302.134
 11
-13.1007
 21
302.574
  0
LINE
  8
0
 10
-13.1007
 20
302.574
 11
-13.251
 21
303.037
  0
LINE
  8
0
 10
-13.251
 20
303.037
 11
-13.3421
 21
303.515
  0
LINE
  8
0
 10
-13.3421
 20
303.515
 11
-13.3726
 21
304
  0
LINE
  8
0
 10
-13.3726
 20
304
 11
-13.3726
 21
368
  0
LINE
  8
0
 10
-13.3726
 20
368
 11
-13.3421
 21
368.485
  0
LINE
  8
0
 10
-13.3421
 20
368.485
 11
-13.251
 21
368.963
  0
LINE
  8
0
 10
-13.251
 20
368.963
 11
-13.1007
 21
369.426
  0
LINE
  8
0
 10
-13.1007
 20
369.426
 11
-12.8936
 21
369.866
  0
LINE
  8
0
 10
-12.8936
 20
369.866
 11
-12.633
 21
370.276
  0
LINE
  8
0
 10
-12.633
 20
370.276
 11
-12.323
 21
370.651
  0
LINE
  8
0
 10
-12.323
 20
370.651
 11
-11.9685
 21
370.984
  0
LINE
  8
0
 10
-11.9685
 20
370.984
 11
-11.5751
 21
371.27
  0
LINE
  8
0
 10
-11.5751
 20
371.27
 11
-11.1489
 21
371.504
  0
LINE
  8
0
 10
-11.1489
 20
371.504
 11
-10.6967
 21
371.683
  0
LINE
  8
0
 10
-10.6967
 20
371.683
 11
-10.2256
 21
371.804
  0
LINE
  8
0
 10
-10.2256
 20
371.804
 11
-9.74316
 21
371.865
  0
LINE
  8
0
 10
-9.74316
 20
371.865
 11
9.74316
 21
371.865
  0
LINE
  8
0
 10
9.74316
 20
371.865
 11
10.2256
 21
371.804
  0
LINE
  8
0
 10
10.2256
 20
371.804
 11
10.6967
 21
371.683
  0
LINE
  8
0
 10
10.6967
 20
371.683
 11
11.1489
 21
371.504
  0
LINE
  8
0
 10
11.1489
 20
371.504
 11
11.5751
 21
371.27
  0
LINE
  8
0
 10
11.5751
 20
371.27
 11
11.9685
 21
370.984
  0
LINE
  8
0
 10
11.9685
 20
370.984
 11
12.323
 21
370.651
  0
LINE
  8
0
 10
12.323
 20
370.651
 11
12.633
 21
370.276
  0
LINE
  8
0
 10
12.633
 20
370.276
 11
12.8936
 21
369.866
  0
LINE
  8
0
 10
12.8936
 20
369.866
 11
13.1007
 21
369.426
  0
LINE
  8
0
 10
13.1007
 20
369.426
 11
13.251
 21
368.963
  0
LINE
  8
0
 10
13.251
 20
368.963
 11
13.3421
 21
368.485
  0
LINE
  8
0
 10
13.3421
 20
368.485
 11
13.3726
 21
368
  0
LINE
  8
0
 10
13.3726
 20
368
 11
13.3726
 21
304
  0
LINE
  8
0
 10
13.3726
 20
304
 11
13.3421
 21
303.515
  0
LINE
  8
0
 10
13.3421
 20
303.515
 11
13.251
 21
303.037
  0
LINE
  8
0
 10
13.251
 20
303.037
 11
13.1007
 21
302.574
  0
LINE
  8
0
 10
13.1007
 20
302.574
 11
12.8936
 21
302.134
  0
LINE
  8
0
 10
12.8936
 20
302.134
 11
12.633
 21
301.724
  0
LINE
  8
0
 10
12.633
 20
301.724
 11
12.323
 21
301.349
  0
LINE
  8
0
 10
12.323
 20
301.349
 11
11.9685
 21
301.016
  0
LINE
  8
0
 10
11.9685
 20
301.016
 11
11.5751
 21
300.73
  0
LINE
  8
0
 10
11.5751
 20
300.73
 11
11.1489
 21
300.496
  0
LINE
  8
0
 10
11.1489
 20
300.496
 11
10.6967
 21
300.317
  0
LINE
  8
0
 10
10.6967
 20
300.317
 11
10.2256
 21
300.196
  0
LINE
  8
0
 10
10.2256
 20
300.196
 11
9.74316
 21
300.135
  0
LINE
  8
0
 10
9.74316
 20
300.135
 11
-9.74316
 21
300.135
  0
LINE
  8
0
 10
10.9369
 20
214.589
 11
11.5451
 21
214.745
  0
LINE
  8
0
 10
11.5451
 20
214.745
 11
12.1289
 21
214.976
  0
LINE
  8
0
 10
12.1289
 20
214.976
 11
12.6791
 21
215.278
  0
LINE
  8
0
 10
12.6791
 20
215.278
 11
13.1871
 21
215.647
  0
LINE
  8
0
 10
13.1871
 20
215.647
 11
13.6448
 21
216.077
  0
LINE
  8
0
 10
13.6448
 20
216.077
 11
14.0451
 21
216.561
  0
LINE
  8
0
 10
14.0451
 20
216.561
 11
14.3815
 21
217.091
  0
LINE
  8
0
 10
14.3815
 20
217.091
 11
14.6489
 21
217.659
  0
LINE
  8
0
 10
14.6489
 20
217.659
 11
14.8429
 21
218.257
  0
LINE
  8
0
 10
14.8429
 20
218.257
 11
14.9606
 21
218.873
  0
LINE
  8
0
 10
14.9606
 20
218.873
 11
15
 21
219.5
  0
LINE
  8
0
 10
15
 20
219.5
 11
15
 21
284.5
  0
LINE
  8
0
 10
15
 20
284.5
 11
14.9606
 21
285.127
  0
LINE
  8
0
 10
14.9606
 20
285.127
 11
14.8429
 21
285.743
  0
LINE
  8
0
 10
14.8429
 20
285.743
 11
14.6489
 21
286.341
  0
LINE
  8
0
 10
14.6489
 20
286.341
 11
14.3815
 21
286.909
  0
LINE
  8
0
 10
14.3815
 20
286.909
 11
14.0451
 21
287.439
  0
LINE
  8
0
 10
14.0451
 20
287.439
 11
13.6448
 21
287.923
  0
LINE
  8
0
 10
13.6448
 20
287.923
 11
13.1871
 21
288.353
  0
LINE
  8
0
 10
13.1871
 20
288.353
 11
12.6791
 21
288.722
  0
LINE
  8
0
 10
12.6791
 20
288.722
 11
12.1289
 21
289.024
  0
LINE
  8
0
 10
12.1289
 20
289.024
 11
11.5451
 21
289.255
  0
LINE
  8
0
 10
11.5451
 20
289.255
 11
10.9369
 21
289.411
  0
LINE
  8
0
 10
10.9369
 20
289.411
 11
10.3139
 21
289.49
  0
LINE
  8
0
 10
10.3139
 20
289.49
 11
-10.3139
 21
289.49
  0
LINE
  8
0
 10
-10.3139
 20
289.49
 11
-10.9369
 21
289.411
  0
LINE
  8
0
 10
-10.9369
 20
289.411
 11
-11.5451
 21
289.255
  0
LINE
  8
0
 10
-11.5451
 20
289.255
 11
-12.1289
 21
289.024
  0
LINE
  8
0
 10
-12.1289
 20
289.024
 11
-12.6791
 21
288.722
  0
LINE
  8
0
 10
-12.6791
 20
288.722
 11
-13.1871
 21
288.353
  0
LINE
  8
0
 10
-13.1871
 20
288.353
 11
-13.6448
 21
287.923
  0
LINE
  8
0
 10
-13.6448
 20
287.923
 11
-14.0451
 21
287.439
  0
LINE
  8
0
 10
-14.0451
 20
287.439
 11
-14.3815
 21
286.909
  0
LINE
  8
0
 10
-14.3815
 20
286.909
 11
-14.6489
 21
286.341
  0
LINE
  8
0
 10
-14.6489
 20
286.341
 11
-14.8429
 21
285.743
  0
LINE
  8
0
 10
-14.8429
 20
285.743
 11
-14.9606
 21
285.127
  0
LINE
  8
0
 10
-14.9606
 20
285.127
 11
-15
 21
284.5
  0
LINE
  8
0
 10
-15
 20
284.5
 11
-15
 21
219.5
  0
LINE
  8
0
 10
-15
 20
219.5
 11
-14.9606
 21
218.873
  0
LINE
  8
0
 10
-14.9606
 20
218.873
 11
-14.8429
 21
218.257
  0
LINE
  8
0
 10
-14.8429
 20
218.257
 11
-14.6489
 21
217.659
  0
LINE
  8
0
 10
-14.6489
 20
217.659
 11
-14.3815
 21
217.091
  0
LINE
  8
0
 10
-14.3815
 20
217.091
 11
-14.0451
 21
216.561
  0
LINE
  8
0
 10
-14.0451
 20
216.561
 11
-13.6448
 21
216.077
  0
LINE
  8
0
 10
-13.6448
 20
216.077
 11
-13.1871
 21
215.647
  0
LINE
  8
0
 10
-13.1871
 20
215.647
 11
-12.6791
 21
215.278
  0
LINE
  8
0
 10
-12.6791
 20
215.278
 11
-12.1289
 21
214.976
  0
LINE
  8
0
 10
-12.1289
 20
214.976
 11
-11.5451
 21
214.745
  0
LINE
  8
0
 10
-11.5451
 20
214.745
 11
-10.9369
 21
214.589
  0
LINE
  8
0
 10
-10.9369
 20
214.589
 11
-10.3139
 21
214.51
  0
LINE
  8
0
 10
-10.3139
 20
214.51
 11
10.3139
 21
214.51
  0
LINE
  8
0
 10
10.3139
 20
214.51
 11
10.9369
 21
214.589
  0
LINE
  8
0
 10
10.9369
 20
130.589
 11
11.5451
 21
130.745
  0
LINE
  8
0
 10
11.5451
 20
130.745
 11
12.1289
 21
130.976
  0
LINE
  8
0
 10
12.1289
 20
130.976
 11
12.6791
 21
131.278
  0
LINE
  8
0
 10
12.6791
 20
131.278
 11
13.1871
 21
131.647
  0
LINE
  8
0
 10
13.1871
 20
131.647
 11
13.6448
 21
132.077
  0
LINE
  8
0
 10
13.6448
 20
132.077
 11
14.0451
 21
132.561
  0
LINE
  8
0
 10
14.0451
 20
132.561
 11
14.3815
 21
133.091
  0
LINE
  8
0
 10
14.3815
 20
133.091
 11
14.6489
 21
133.659
  0
LINE
  8
0
 10
14.6489
 20
133.659
 11
14.8429
 21
134.257
  0
LINE
  8
0
 10
14.8429
 20
134.257
 11
14.9606
 21
134.873
  0
LINE
  8
0
 10
14.9606
 20
134.873
 11
15
 21
135.5
  0
LINE
  8
0
 10
15
 20
135.5
 11
15
 21
200.5
  0
LINE
  8
0
 10
15
 20
200.5
 11
14.9606
 21
201.127
  0
LINE
  8
0
 10
14.9606
 20
201.127
 11
14.8429
 21
201.743
  0
LINE
  8
0
 10
14.8429
 20
201.743
 11
14.6489
 21
202.341
  0
LINE
  8
0
 10
14.6489
 20
202.341
 11
14.3815
 21
202.909
  0
LINE
  8
0
 10
14.3815
 20
202.909
 11
14.0451
 21
203.439
  0
LINE
  8
0
 10
14.0451
 20
203.439
 11
13.6448
 21
203.923
  0
LINE
  8
0
 10
13.6448
 20
203.923
 11
13.1871
 21
204.353
  0
LINE
  8
0
 10
13.1871
 20
204.353
 11
12.6791
 21
204.722
  0
LINE
  8
0
 10
12.6791
 20
204.722
 11
12.1289
 21
205.024
  0
LINE
  8
0
 10
12.1289
 20
205.024
 11
11.5451
 21
205.255
  0
LINE
  8
0
 10
11.5451
 20
205.255
 11
10.9369
 21
205.411
  0
LINE
  8
0
 10
10.9369
 20
205.411
 11
10.3139
 21
205.49
  0
LINE
  8
0
 10
10.3139
 20
205.49
 11
-10.3139
 21
205.49
  0
LINE
  8
0
 10
-10.3139
 20
205.49
 11
-10.9369
 21
205.411
  0
LINE
  8
0
 10
-10.9369
 20
205.411
 11
-11.5451
 21
205.255
  0
LINE
  8
0
 10
-11.5451
 20
205.255
 11
-12.1289
 21
205.024
  0
LINE
  8
0
 10
-12.1289
 20
205.024
 11
-12.6791
 21
204.722
  0
LINE
  8
0
 10
-12.6791
 20
204.722
 11
-13.1871
 21
204.353
  0
LINE
  8
0
 10
-13.1871
 20
204.353
 11
-13.6448
 21
203.923
  0
LINE
  8
0
 10
-13.6448
 20
203.923
 11
-14.0451
 21
203.439
  0
LINE
  8
0
 10
-14.0451
 20
203.439
 11
-14.3815
 21
202.909
  0
LINE
  8
0
 10
-14.3815
 20
202.909
 11
-14.6489
 21
202.341
  0
LINE
  8
0
 10
-14.6489
 20
202.341
 11
-14.8429
 21
201.743
  0
LINE
  8
0
 10
-14.8429
 20
201.743
 11
-14.9606
 21
201.127
  0
LINE
  8
0
 10
-14.9606
 20
201.127
 11
-15
 21
200.5
  0
LINE
  8
0
 10
-15
 20
200.5
 11
-15
 21
135.5
  0
LINE
  8
0
 10
-15
 20
135.5
 11
-14.9606
 21
134.873
  0
LINE
  8
0
 10
-14.9606
 20
134.873
 11
-14.8429
 21
134.257
  0
LINE
  8
0
 10
-14.8429
 20
134.257
 11
-14.6489
 21
133.659
  0
LINE
  8
0
 10
-14.6489
 20
133.659
 11
-14.3815
 21
133.091
  0
LINE
  8
0
 10
-14.3815
 20
133.091
 11
-14.0451
 21
132.561
  0
LINE
  8
0
 10
-14.0451
 20
132.561
 11
-13.6448
 21
132.077
  0
LINE
  8
0
 10
-13.6448
 20
132.077
 11
-13.1871
 21
131.647
  0
LINE
  8
0
 10
-13.1871
 20
131.647
 11
-12.6791
 21
131.278
  0
LINE
  8
0
 10
-12.6791
 20
131.278
 11
-12.1289
 21
130.976
  0
LINE
  8
0
 10
-12.1289
 20
130.976
 11
-11.5451
 21
130.745
  0
LINE
  8
0
 10
-11.5451
 20
130.745
 11
-10.9369
 21
130.589
  0
LINE
  8
0
 10
-10.9369
 20
130.589
 11
-10.3139
 21
130.51
  0
LINE
  8
0
 10
-10.3139
 20
130.51
 11
10.3139
 21
130.51
  0
LINE
  8
0
 10
10.3139
 20
130.51
 11
10.9369
 21
130.589
  0
LINE
  8
0
 10
7.38696
 20
196.204
 11
7.1627
 21
196.232
  0
LINE
  8
0
 10
7.1627
 20
196.232
 11
6.94376
 21
196.288
  0
LINE
  8
0
 10
6.94376
 20
196.288
 11
6.7336
 21
196.371
  0
LINE
  8
0
 10
6.7336
 20
196.371
 11
6.53551
 21
196.48
  0
LINE
  8
0
 10
6.53551
 20
196.48
 11
6.35263
 21
196.613
  0
LINE
  8
0
 10
6.35263
 20
196.613
 11
6.18785
 21
196.768
  0
LINE
  8
0
 10
6.18785
 20
196.768
 11
6.04376
 21
196.942
  0
LINE
  8
0
 10
6.04376
 20
196.942
 11
5.92264
 21
197.133
  0
LINE
  8
0
 10
5.92264
 20
197.133
 11
5.8264
 21
197.337
  0
LINE
  8
0
 10
5.8264
 20
197.337
 11
5.75655
 21
197.552
  0
LINE
  8
0
 10
5.75655
 20
197.552
 11
5.71419
 21
197.774
  0
LINE
  8
0
 10
5.71419
 20
197.774
 11
5.7
 21
198
  0
LINE
  8
0
 10
5.7
 20
198
 11
5.71419
 21
198.226
  0
LINE
  8
0
 10
5.71419
 20
198.226
 11
5.75655
 21
198.448
  0
LINE
  8
0
 10
5.75655
 20
198.448
 11
5.8264
 21
198.663
  0
LINE
  8
0
 10
5.8264
 20
198.663
 11
5.92264
 21
198.867
  0
LINE
  8
0
 10
5.92264
 20
198.867
 11
6.04376
 21
199.058
  0
LINE
  8
0
 10
6.04376
 20
199.058
 11
6.18785
 21
199.232
  0
LINE
  8
0
 10
6.18785
 20
199.232
 11
6.35263
 21
199.387
  0
LINE
  8
0
 10
6.35263
 20
199.387
 11
6.53551
 21
199.52
  0
LINE
  8
0
 10
6.53551
 20
199.52
 11
6.7336
 21
199.629
  0
LINE
  8
0
 10
6.7336
 20
199.629
 11
6.94376
 21
199.712
  0
LINE
  8
0
 10
6.94376
 20
199.712
 11
7.1627
 21
199.768
  0
LINE
  8
0
 10
7.1627
 20
199.768
 11
7.38696
 21
199.796
  0
LINE
  8
0
 10
7.38696
 20
199.796
 11
7.61302
 21
199.796
  0
LINE
  8
0
 10
7.61302
 20
199.796
 11
7.83728
 21
199.768
  0
LINE
  8
0
 10
7.83728
 20
199.768
 11
8.05623
 21
199.712
  0
LINE
  8
0
 10
8.05623
 20
199.712
 11
8.26639
 21
199.629
  0
LINE
  8
0
 10
8.26639
 20
199.629
 11
8.46448
 21
199.52
  0
LINE
  8
0
 10
8.46448
 20
199.52
 11
8.64735
 21
199.387
  0
LINE
  8
0
 10
8.64735
 20
199.387
 11
8.81213
 21
199.232
  0
LINE
  8
0
 10
8.81213
 20
199.232
 11
8.95622
 21
199.058
  0
LINE
  8
0
 10
8.95622
 20
199.058
 11
9.07735
 21
198.867
  0
LINE
  8
0
 10
9.07735
 20
198.867
 11
9.17358
 21
198.663
  0
LINE
  8
0
 10
9.17358
 20
198.663
 11
9.24344
 21
198.448
  0
LINE
  8
0
 10
9.24344
 20
198.448
 11
9.2858
 21
198.226
  0
LINE
  8
0
 10
9.2858
 20
198.226
 11
9.29999
 21
198
  0
LINE
  8
0
 10
9.29999
 20
198
 11
9.2858
 21
197.774
  0
LINE
  8
0
 10
9.2858
 20
197.774
 11
9.24344
 21
197.552
  0
LINE
  8
0
 10
9.24344
 20
197.552
 11
9.17358
 21
197.337
  0
LINE
  8
0
 10
9.17358
 20
197.337
 11
9.07735
 21
197.133
  0
LINE
  8
0
 10
9.07735
 20
197.133
 11
8.95622
 21
196.942
  0
LINE
  8
0
 10
8.95622
 20
196.942
 11
8.81213
 21
196.768
  0
LINE
  8
0
 10
8.81213
 20
196.768
 11
8.64735
 21
196.613
  0
LINE
  8
0
 10
8.64735
 20
196.613
 11
8.46448
 21
196.48
  0
LINE
  8
0
 10
8.46448
 20
196.48
 11
8.26639
 21
196.371
  0
LINE
  8
0
 10
8.26639
 20
196.371
 11
8.05623
 21
196.288
  0
LINE
  8
0
 10
8.05623
 20
196.288
 11
7.83728
 21
196.232
  0
LINE
  8
0
 10
7.83728
 20
196.232
 11
7.61302
 21
196.204
  0
LINE
  8
0
 10
7.61302
 20
196.204
 11
7.38696
 21
196.204
  0
LINE
  8
0
 10
-7.61302
 20
196.204
 11
-7.83728
 21
196.232
  0
LINE
  8
0
 10
-7.83728
 20
196.232
 11
-8.05623
 21
196.288
  0
LINE
  8
0
 10
-8.05623
 20
196.288
 11
-8.26639
 21
196.371
  0
LINE
  8
0
 10
-8.26639
 20
196.371
 11
-8.46448
 21
196.48
  0
LINE
  8
0
 10
-8.46448
 20
196.48
 11
-8.64735
 21
196.613
  0
LINE
  8
0
 10
-8.64735
 20
196.613
 11
-8.81213
 21
196.768
  0
LINE
  8
0
 10
-8.81213
 20
196.768
 11
-8.95622
 21
196.942
  0
LINE
  8
0
 10
-8.95622
 20
196.942
 11
-9.07735
 21
197.133
  0
LINE
  8
0
 10
-9.07735
 20
197.133
 11
-9.17358
 21
197.337
  0
LINE
  8
0
 10
-9.17358
 20
197.337
 11
-9.24344
 21
197.552
  0
LINE
  8
0
 10
-9.24344
 20
197.552
 11
-9.2858
 21
197.774
  0
LINE
  8
0
 10
-9.2858
 20
197.774
 11
-9.29999
 21
198
  0
LINE
  8
0
 10
-9.29999
 20
198
 11
-9.2858
 21
198.226
  0
LINE
  8
0
 10
-9.2858
 20
198.226
 11
-9.24344
 21
198.448
  0
LINE
  8
0
 10
-9.24344
 20
198.448
 11
-9.17358
 21
198.663
  0
LINE
  8
0
 10
-9.17358
 20
198.663
 11
-9.07735
 21
198.867
  0
LINE
  8
0
 10
-9.07735
 20
198.867
 11
-8.95622
 21
199.058
  0
LINE
  8
0
 10
-8.95622
 20
199.058
 11
-8.81213
 21
199.232
  0
LINE
  8
0
 10
-8.81213
 20
199.232
 11
-8.64735
 21
199.387
  0
LINE
  8
0
 10
-8.64735
 20
199.387
 11
-8.46448
 21
199.52
  0
LINE
  8
0
 10
-8.46448
 20
199.52
 11
-8.26639
 21
199.629
  0
LINE
  8
0
 10
-8.26639
 20
199.629
 11
-8.05623
 21
199.712
  0
LINE
  8
0
 10
-8.05623
 20
199.712
 11
-7.83728
 21
199.768
  0
LINE
  8
0
 10
-7.83728
 20
199.768
 11
-7.61302
 21
199.796
  0
LINE
  8
0
 10
-7.61302
 20
199.796
 11
-7.38696
 21
199.796
  0
LINE
  8
0
 10
-7.38696
 20
199.796
 11
-7.1627
 21
199.768
  0
LINE
  8
0
 10
-7.1627
 20
199.768
 11
-6.94376
 21
199.712
  0
LINE
  8
0
 10
-6.94376
 20
199.712
 11
-6.7336
 21
199.629
  0
LINE
  8
0
 10
-6.7336
 20
199.629
 11
-6.53551
 21
199.52
  0
LINE
  8
0
 10
-6.53551
 20
199.52
 11
-6.35263
 21
199.387
  0
LINE
  8
0
 10
-6.35263
 20
199.387
 11
-6.18785
 21
199.232
  0
LINE
  8
0
 10
-6.18785
 20
199.232
 11
-6.04376
 21
199.058
  0
LINE
  8
0
 10
-6.04376
 20
199.058
 11
-5.92264
 21
198.867
  0
LINE
  8
0
 10
-5.92264
 20
198.867
 11
-5.8264
 21
198.663
  0
LINE
  8
0
 10
-5.8264
 20
198.663
 11
-5.75655
 21
198.448
  0
LINE
  8
0
 10
-5.75655
 20
198.448
 11
-5.71419
 21
198.226
  0
LINE
  8
0
 10
-5.71419
 20
198.226
 11
-5.7
 21
198
  0
LINE
  8
0
 10
-5.7
 20
198
 11
-5.71419
 21
197.774
  0
LINE
  8
0
 10
-5.71419
 20
197.774
 11
-5.75655
 21
197.552
  0
LINE
  8
0
 10
-5.75655
 20
197.552
 11
-5.8264
 21
197.337
  0
LINE
  8
0
 10
-5.8264
 20
197.337
 11
-5.92264
 21
197.133
  0
LINE
  8
0
 10
-5.92264
 20
197.133
 11
-6.04376
 21
196.942
  0
LINE
  8
0
 10
-6.04376
 20
196.942
 11
-6.18785
 21
196.768
  0
LINE
  8
0
 10
-6.18785
 20
196.768
 11
-6.35263
 21
196.613
  0
LINE
  8
0
 10
-6.35263
 20
196.613
 11
-6.53551
 21
196.48
  0
LINE
  8
0
 10
-6.53551
 20
196.48
 11
-6.7336
 21
196.371
  0
LINE
  8
0
 10
-6.7336
 20
196.371
 11
-6.94376
 21
196.288
  0
LINE
  8
0
 10
-6.94376
 20
196.288
 11
-7.1627
 21
196.232
  0
LINE
  8
0
 10
-7.1627
 20
196.232
 11
-7.38696
 21
196.204
  0
LINE
  8
0
 10
-7.38696
 20
196.204
 11
-7.61302
 21
196.204
  0
LINE
  8
0
 10
-7.61302
 20
136.204
 11
-7.83728
 21
136.232
  0
LINE
  8
0
 10
-7.83728
 20
136.232
 11
-8.05623
 21
136.288
  0
LINE
  8
0
 10
-8.05623
 20
136.288
 11
-8.26639
 21
136.371
  0
LINE
  8
0
 10
-8.26639
 20
136.371
 11
-8.46448
 21
136.48
  0
LINE
  8
0
 10
-8.46448
 20
136.48
 11
-8.64735
 21
136.613
  0
LINE
  8
0
 10
-8.64735
 20
136.613
 11
-8.81213
 21
136.768
  0
LINE
  8
0
 10
-8.81213
 20
136.768
 11
-8.95622
 21
136.942
  0
LINE
  8
0
 10
-8.95622
 20
136.942
 11
-9.07735
 21
137.133
  0
LINE
  8
0
 10
-9.07735
 20
137.133
 11
-9.17358
 21
137.337
  0
LINE
  8
0
 10
-9.17358
 20
137.337
 11
-9.24344
 21
137.552
  0
LINE
  8
0
 10
-9.24344
 20
137.552
 11
-9.2858
 21
137.774
  0
LINE
  8
0
 10
-9.2858
 20
137.774
 11
-9.29999
 21
138
  0
LINE
  8
0
 10
-9.29999
 20
138
 11
-9.2858
 21
138.226
  0
LINE
  8
0
 10
-9.2858
 20
138.226
 11
-9.24344
 21
138.448
  0
LINE
  8
0
 10
-9.24344
 20
138.448
 11
-9.17358
 21
138.663
  0
LINE
  8
0
 10
-9.17358
 20
138.663
 11
-9.07735
 21
138.867
  0
LINE
  8
0
 10
-9.07735
 20
138.867
 11
-8.95622
 21
139.058
  0
LINE
  8
0
 10
-8.95622
 20
139.058
 11
-8.81213
 21
139.232
  0
LINE
  8
0
 10
-8.81213
 20
139.232
 11
-8.64735
 21
139.387
  0
LINE
  8
0
 10
-8.64735
 20
139.387
 11
-8.46448
 21
139.52
  0
LINE
  8
0
 10
-8.46448
 20
139.52
 11
-8.26639
 21
139.629
  0
LINE
  8
0
 10
-8.26639
 20
139.629
 11
-8.05623
 21
139.712
  0
LINE
  8
0
 10
-8.05623
 20
139.712
 11
-7.83728
 21
139.768
  0
LINE
  8
0
 10
-7.83728
 20
139.768
 11
-7.61302
 21
139.796
  0
LINE
  8
0
 10
-7.61302
 20
139.796
 11
-7.38696
 21
139.796
  0
LINE
  8
0
 10
-7.38696
 20
139.796
 11
-7.1627
 21
139.768
  0
LINE
  8
0
 10
-7.1627
 20
139.768
 11
-6.94376
 21
139.712
  0
LINE
  8
0
 10
-6.94376
 20
139.712
 11
-6.7336
 21
139.629
  0
LINE
  8
0
 10
-6.7336
 20
139.629
 11
-6.53551
 21
139.52
  0
LINE
  8
0
 10
-6.53551
 20
139.52
 11
-6.35263
 21
139.387
  0
LINE
  8
0
 10
-6.35263
 20
139.387
 11
-6.18785
 21
139.232
  0
LINE
  8
0
 10
-6.18785
 20
139.232
 11
-6.04376
 21
139.058
  0
LINE
  8
0
 10
-6.04376
 20
139.058
 11
-5.92264
 21
138.867
  0
LINE
  8
0
 10
-5.92264
 20
138.867
 11
-5.8264
 21
138.663
  0
LINE
  8
0
 10
-5.8264
 20
138.663
 11
-5.75655
 21
138.448
  0
LINE
  8
0
 10
-5.75655
 20
138.448
 11
-5.71419
 21
138.226
  0
LINE
  8
0
 10
-5.71419
 20
138.226
 11
-5.7
 21
138
  0
LINE
  8
0
 10
-5.7
 20
138
 11
-5.71419
 21
137.774
  0
LINE
  8
0
 10
-5.71419
 20
137.774
 11
-5.75655
 21
137.552
  0
LINE
  8
0
 10
-5.75655
 20
137.552
 11
-5.8264
 21
137.337
  0
LINE
  8
0
 10
-5.8264
 20
137.337
 11
-5.92264
 21
137.133
  0
LINE
  8
0
 10
-5.92264
 20
137.133
 11
-6.04376
 21
136.942
  0
LINE
  8
0
 10
-6.04376
 20
136.942
 11
-6.18785
 21
136.768
  0
LINE
  8
0
 10
-6.18785
 20
136.768
 11
-6.35263
 21
136.613
  0
LINE
  8
0
 10
-6.35263
 20
136.613
 11
-6.53551
 21
136.48
  0
LINE
  8
0
 10
-6.53551
 20
136.48
 11
-6.7336
 21
136.371
  0
LINE
  8
0
 10
-6.7336
 20
136.371
 11
-6.94376
 21
136.288
  0
LINE
  8
0
 10
-6.94376
 20
136.288
 11
-7.1627
 21
136.232
  0
LINE
  8
0
 10
-7.1627
 20
136.232
 11
-7.38696
 21
136.204
  0
LINE
  8
0
 10
-7.38696
 20
136.204
 11
-7.61302
 21
136.204
  0
LINE
  8
0
 10
7.38696
 20
136.204
 11
7.1627
 21
136.232
  0
LINE
  8
0
 10
7.1627
 20
136.232
 11
6.94376
 21
136.288
  0
LINE
  8
0
 10
6.94376
 20
136.288
 11
6.7336
 21
136.371
  0
LINE
  8
0
 10
6.7336
 20
136.371
 11
6.53551
 21
136.48
  0
LINE
  8
0
 10
6.53551
 20
136.48
 11
6.35263
 21
136.613
  0
LINE
  8
0
 10
6.35263
 20
136.613
 11
6.18785
 21
136.768
  0
LINE
  8
0
 10
6.18785
 20
136.768
 11
6.04376
 21
136.942
  0
LINE
  8
0
 10
6.04376
 20
136.942
 11
5.92264
 21
137.133
  0
LINE
  8
0
 10
5.92264
 20
137.133
 11
5.8264
 21
137.337
  0
LINE
  8
0
 10
5.8264
 20
137.337
 11
5.75655
 21
137.552
  0
LINE
  8
0
 10
5.75655
 20
137.552
 11
5.71419
 21
137.774
  0
LINE
  8
0
 10
5.71419
 20
137.774
 11
5.7
 21
138
  0
LINE
  8
0
 10
5.7
 20
138
 11
5.71419
 21
138.226
  0
LINE
  8
0
 10
5.71419
 20
138.226
 11
5.75655
 21
138.448
  0
LINE
  8
0
 10
5.75655
 20
138.448
 11
5.8264
 21
138.663
  0
LINE
  8
0
 10
5.8264
 20
138.663
 11
5.92264
 21
138.867
  0
LINE
  8
0
 10
5.92264
 20
138.867
 11
6.04376
 21
139.058
  0
LINE
  8
0
 10
6.04376
 20
139.058
 11
6.18785
 21
139.232
  0
LINE
  8
0
 10
6.18785
 20
139.232
 11
6.35263
 21
139.387
  0
LINE
  8
0
 10
6.35263
 20
139.387
 11
6.53551
 21
139.52
  0
LINE
  8
0
 10
6.53551
 20
139.52
 11
6.7336
 21
139.629
  0
LINE
  8
0
 10
6.7336
 20
139.629
 11
6.94376
 21
139.712
  0
LINE
  8
0
 10
6.94376
 20
139.712
 11
7.1627
 21
139.768
  0
LINE
  8
0
 10
7.1627
 20
139.768
 11
7.38696
 21
139.796
  0
LINE
  8
0
 10
7.38696
 20
139.796
 11
7.61302
 21
139.796
  0
LINE
  8
0
 10
7.61302
 20
139.796
 11
7.83728
 21
139.768
  0
LINE
  8
0
 10
7.83728
 20
139.768
 11
8.05623
 21
139.712
  0
LINE
  8
0
 10
8.05623
 20
139.712
 11
8.26639
 21
139.629
  0
LINE
  8
0
 10
8.26639
 20
139.629
 11
8.46448
 21
139.52
  0
LINE
  8
0
 10
8.46448
 20
139.52
 11
8.64735
 21
139.387
  0
LINE
  8
0
 10
8.64735
 20
139.387
 11
8.81213
 21
139.232
  0
LINE
  8
0
 10
8.81213
 20
139.232
 11
8.95622
 21
139.058
  0
LINE
  8
0
 10
8.95622
 20
139.058
 11
9.07735
 21
138.867
  0
LINE
  8
0
 10
9.07735
 20
138.867
 11
9.17358
 21
138.663
  0
LINE
  8
0
 10
9.17358
 20
138.663
 11
9.24344
 21
138.448
  0
LINE
  8
0
 10
9.24344
 20
138.448
 11
9.2858
 21
138.226
  0
LINE
  8
0
 10
9.2858
 20
138.226
 11
9.29999
 21
138
  0
LINE
  8
0
 10
9.29999
 20
138
 11
9.2858
 21
137.774
  0
LINE
  8
0
 10
9.2858
 20
137.774
 11
9.24344
 21
137.552
  0
LINE
  8
0
 10
9.24344
 20
137.552
 11
9.17358
 21
137.337
  0
LINE
  8
0
 10
9.17358
 20
137.337
 11
9.07735
 21
137.133
  0
LINE
  8
0
 10
9.07735
 20
137.133
 11
8.95622
 21
136.942
  0
LINE
  8
0
 10
8.95622
 20
136.942
 11
8.81213
 21
136.768
  0
LINE
  8
0
 10
8.81213
 20
136.768
 11
8.64735
 21
136.613
  0
LINE
  8
0
 10
8.64735
 20
136.613
 11
8.46448
 21
136.48
  0
LINE
  8
0
 10
8.46448
 20
136.48
 11
8.26639
 21
136.371
  0
LINE
  8
0
 10
8.26639
 20
136.371
 11
8.05623
 21
136.288
  0
LINE
  8
0
 10
8.05623
 20
136.288
 11
7.83728
 21
136.232
  0
LINE
  8
0
 10
7.83728
 20
136.232
 11
7.61302
 21
136.204
  0
LINE
  8
0
 10
7.61302
 20
136.204
 11
7.38696
 21
136.204
  0
ENDSEC
  0
SECTION
  2
OBJECTS
  0
DICTIONARY
  0
ENDSEC
  0
EOF
