<?xml version="1.0" standalone="no"?>
<!DOCTYPE svg PUBLIC "-//W3C//DTD SVG 1.1//EN" "http://www.w3.org/Graphics/SVG/1.1/DTD/svg11.dtd">
<svg width="46mm" height="129mm" viewBox="-23 -237 46 129" xmlns="http://www.w3.org/2000/svg" version="1.1">
<title>OpenSCAD Model</title>
<path d="
M 18.4369,-177.089 L 19.0451,-177.245 L 19.6289,-177.476 L 20.1791,-177.778 L 20.6871,-178.147 L 21.1448,-178.577
 L 21.5451,-179.061 L 21.8815,-179.591 L 22.1489,-180.159 L 22.3429,-180.757 L 22.4606,-181.373 L 22.5,-182
 L 22.5,-232 L 22.4606,-232.627 L 22.3429,-233.243 L 22.1489,-233.841 L 21.8815,-234.409 L 21.5451,-234.939
 L 21.1448,-235.423 L 20.6871,-235.853 L 20.1791,-236.222 L 19.6289,-236.524 L 19.0451,-236.755 L 18.4369,-236.911
 L 17.8139,-236.99 L -17.8139,-236.99 L -18.4369,-236.911 L -19.0451,-236.755 L -19.6289,-236.524 L -20.1791,-236.222
 L -20.6871,-235.853 L -21.1448,-235.423 L -21.5451,-234.939 L -21.8815,-234.409 L -22.1489,-233.841 L -22.3429,-233.243
 L -22.4606,-232.627 L -22.5,-232 L -22.5,-182 L -22.4606,-181.373 L -22.3429,-180.757 L -22.1489,-180.159
 L -21.8815,-179.591 L -21.5451,-179.061 L -21.1448,-178.577 L -20.6871,-178.147 L -20.1791,-177.778 L -19.6289,-177.476
 L -19.0451,-177.245 L -18.4369,-177.089 L -17.8139,-177.01 L 17.8139,-177.01 z
M -17.1954,-179.393 L -17.5833,-179.442 L -17.9619,-179.539 L -18.3254,-179.683 L -18.668,-179.872 L -18.9842,-180.101
 L -19.2692,-180.369 L -19.5184,-180.67 L -19.7279,-181 L -19.8943,-181.354 L -20.0151,-181.726 L -20.0884,-182.11
 L -20.1129,-182.5 L -20.1129,-231.5 L -20.0884,-231.89 L -20.0151,-232.274 L -19.8943,-232.646 L -19.7279,-233
 L -19.5184,-233.33 L -19.2692,-233.631 L -18.9842,-233.899 L -18.668,-234.128 L -18.3254,-234.317 L -17.9619,-234.461
 L -17.5833,-234.558 L -17.1954,-234.607 L 17.1954,-234.607 L 17.5833,-234.558 L 17.9619,-234.461 L 18.3254,-234.317
 L 18.668,-234.128 L 18.9842,-233.899 L 19.2692,-233.631 L 19.5184,-233.33 L 19.7279,-233 L 19.8943,-232.646
 L 20.0151,-232.274 L 20.0884,-231.89 L 20.1129,-231.5 L 20.1129,-182.5 L 20.0884,-182.11 L 20.0151,-181.726
 L 19.8943,-181.354 L 19.7279,-181 L 19.5184,-180.67 L 19.2692,-180.369 L 18.9842,-180.101 L 18.668,-179.872
 L 18.3254,-179.683 L 17.9619,-179.539 L 17.5833,-179.442 L 17.1954,-179.393 z
M 18.4369,-108.089 L 19.0451,-108.245 L 19.6289,-108.476 L 20.1791,-108.778 L 20.6871,-109.147 L 21.1448,-109.577
 L 21.5451,-110.061 L 21.8815,-110.591 L 22.1489,-111.159 L 22.3429,-111.757 L 22.4606,-112.373 L 22.5,-113
 L 22.5,-163 L 22.4606,-163.627 L 22.3429,-164.243 L 22.1489,-164.841 L 21.8815,-165.409 L 21.5451,-165.939
 L 21.1448,-166.423 L 20.6871,-166.853 L 20.1791,-167.222 L 19.6289,-167.524 L 19.0451,-167.755 L 18.4369,-167.911
 L 17.8139,-167.99 L -17.8139,-167.99 L -18.4369,-167.911 L -19.0451,-167.755 L -19.6289,-167.524 L -20.1791,-167.222
 L -20.6871,-166.853 L -21.1448,-166.423 L -21.5451,-165.939 L -21.8815,-165.409 L -22.1489,-164.841 L -22.3429,-164.243
 L -22.4606,-163.627 L -22.5,-163 L -22.5,-113 L -22.4606,-112.373 L -22.3429,-111.757 L -22.1489,-111.159
 L -21.8815,-110.591 L -21.5451,-110.061 L -21.1448,-109.577 L -20.6871,-109.147 L -20.1791,-108.778 L -19.6289,-108.476
 L -19.0451,-108.245 L -18.4369,-108.089 L -17.8139,-108.01 L 17.8139,-108.01 z
M 14.8659,-158.369 L 14.5999,-158.403 L 14.3401,-158.469 L 14.0908,-158.568 L 13.8559,-158.697 L 13.6389,-158.855
 L 13.4434,-159.038 L 13.2725,-159.245 L 13.1288,-159.471 L 13.0146,-159.714 L 12.9318,-159.969 L 12.8815,-160.232
 L 12.8647,-160.5 L 12.8815,-160.768 L 12.9318,-161.031 L 13.0146,-161.286 L 13.1288,-161.529 L 13.2725,-161.755
 L 13.4434,-161.962 L 13.6389,-162.145 L 13.8559,-162.303 L 14.0908,-162.432 L 14.3401,-162.531 L 14.5999,-162.597
 L 14.8659,-162.631 L 15.1341,-162.631 L 15.4001,-162.597 L 15.6598,-162.531 L 15.9091,-162.432 L 16.1441,-162.303
 L 16.3611,-162.145 L 16.5565,-161.962 L 16.7275,-161.755 L 16.8712,-161.529 L 16.9853,-161.286 L 17.0682,-161.031
 L 17.1185,-160.768 L 17.1353,-160.5 L 17.1185,-160.232 L 17.0682,-159.969 L 16.9853,-159.714 L 16.8712,-159.471
 L 16.7275,-159.245 L 16.5565,-159.038 L 16.3611,-158.855 L 16.1441,-158.697 L 15.9091,-158.568 L 15.6598,-158.469
 L 15.4001,-158.403 L 15.1341,-158.369 z
M -15.1341,-158.369 L -15.4001,-158.403 L -15.6598,-158.469 L -15.9091,-158.568 L -16.1441,-158.697 L -16.3611,-158.855
 L -16.5565,-159.038 L -16.7275,-159.245 L -16.8712,-159.471 L -16.9853,-159.714 L -17.0682,-159.969 L -17.1185,-160.232
 L -17.1353,-160.5 L -17.1185,-160.768 L -17.0682,-161.031 L -16.9853,-161.286 L -16.8712,-161.529 L -16.7275,-161.755
 L -16.5565,-161.962 L -16.3611,-162.145 L -16.1441,-162.303 L -15.9091,-162.432 L -15.6598,-162.531 L -15.4001,-162.597
 L -15.1341,-162.631 L -14.8659,-162.631 L -14.5999,-162.597 L -14.3401,-162.531 L -14.0908,-162.432 L -13.8559,-162.303
 L -13.6389,-162.145 L -13.4434,-161.962 L -13.2725,-161.755 L -13.1288,-161.529 L -13.0146,-161.286 L -12.9318,-161.031
 L -12.8815,-160.768 L -12.8647,-160.5 L -12.8815,-160.232 L -12.9318,-159.969 L -13.0146,-159.714 L -13.1288,-159.471
 L -13.2725,-159.245 L -13.4434,-159.038 L -13.6389,-158.855 L -13.8559,-158.697 L -14.0908,-158.568 L -14.3401,-158.469
 L -14.5999,-158.403 L -14.8659,-158.369 z
M 14.8659,-113.369 L 14.5999,-113.403 L 14.3401,-113.469 L 14.0908,-113.568 L 13.8559,-113.697 L 13.6389,-113.855
 L 13.4434,-114.038 L 13.2725,-114.245 L 13.1288,-114.471 L 13.0146,-114.714 L 12.9318,-114.969 L 12.8815,-115.232
 L 12.8647,-115.5 L 12.8815,-115.768 L 12.9318,-116.031 L 13.0146,-116.286 L 13.1288,-116.529 L 13.2725,-116.755
 L 13.4434,-116.962 L 13.6389,-117.145 L 13.8559,-117.303 L 14.0908,-117.432 L 14.3401,-117.531 L 14.5999,-117.597
 L 14.8659,-117.631 L 15.1341,-117.631 L 15.4001,-117.597 L 15.6598,-117.531 L 15.9091,-117.432 L 16.1441,-117.303
 L 16.3611,-117.145 L 16.5565,-116.962 L 16.7275,-116.755 L 16.8712,-116.529 L 16.9853,-116.286 L 17.0682,-116.031
 L 17.1185,-115.768 L 17.1353,-115.5 L 17.1185,-115.232 L 17.0682,-114.969 L 16.9853,-114.714 L 16.8712,-114.471
 L 16.7275,-114.245 L 16.5565,-114.038 L 16.3611,-113.855 L 16.1441,-113.697 L 15.9091,-113.568 L 15.6598,-113.469
 L 15.4001,-113.403 L 15.1341,-113.369 z
M -15.1341,-113.369 L -15.4001,-113.403 L -15.6598,-113.469 L -15.9091,-113.568 L -16.1441,-113.697 L -16.3611,-113.855
 L -16.5565,-114.038 L -16.7275,-114.245 L -16.8712,-114.471 L -16.9853,-114.714 L -17.0682,-114.969 L -17.1185,-115.232
 L -17.1353,-115.5 L -17.1185,-115.768 L -17.0682,-116.031 L -16.9853,-116.286 L -16.8712,-116.529 L -16.7275,-116.755
 L -16.5565,-116.962 L -16.3611,-117.145 L -16.1441,-117.303 L -15.9091,-117.432 L -15.6598,-117.531 L -15.4001,-117.597
 L -15.1341,-117.631 L -14.8659,-117.631 L -14.5999,-117.597 L -14.3401,-117.531 L -14.0908,-117.432 L -13.8559,-117.303
 L -13.6389,-117.145 L -13.4434,-116.962 L -13.2725,-116.755 L -13.1288,-116.529 L -13.0146,-116.286 L -12.9318,-116.031
 L -12.8815,-115.768 L -12.8647,-115.5 L -12.8815,-115.232 L -12.9318,-114.969 L -13.0146,-114.714 L -13.1288,-114.471
 L -13.2725,-114.245 L -13.4434,-114.038 L -13.6389,-113.855 L -13.8559,-113.697 L -14.0908,-113.568 L -14.3401,-113.469
 L -14.5999,-113.403 L -14.8659,-113.369 z
" stroke="black" fill="lightgray" stroke-width="0.5"/>
</svg>
