<?xml version="1.0" standalone="no"?>
<!DOCTYPE svg PUBLIC "-//W3C//DTD SVG 1.1//EN" "http://www.w3.org/Graphics/SVG/1.1/DTD/svg11.dtd">
<svg width="46mm" height="160mm" viewBox="-23 -206 46 160" xmlns="http://www.w3.org/2000/svg" version="1.1">
<title>OpenSCAD Model</title>
<path d="
M 18.4369,-130.589 L 19.0451,-130.745 L 19.6289,-130.976 L 20.1791,-131.278 L 20.6871,-131.647 L 21.1448,-132.077
 L 21.5451,-132.561 L 21.8815,-133.091 L 22.1489,-133.659 L 22.3429,-134.257 L 22.4606,-134.873 L 22.5,-135.5
 L 22.5,-200.5 L 22.4606,-201.127 L 22.3429,-201.743 L 22.1489,-202.341 L 21.8815,-202.909 L 21.5451,-203.439
 L 21.1448,-203.923 L 20.6871,-204.353 L 20.1791,-204.722 L 19.6289,-205.024 L 19.0451,-205.255 L 18.4369,-205.411
 L 17.8139,-205.49 L -17.8139,-205.49 L -18.4369,-205.411 L -19.0451,-205.255 L -19.6289,-205.024 L -20.1791,-204.722
 L -20.6871,-204.353 L -21.1448,-203.923 L -21.5451,-203.439 L -21.8815,-202.909 L -22.1489,-202.341 L -22.3429,-201.743
 L -22.4606,-201.127 L -22.5,-200.5 L -22.5,-135.5 L -22.4606,-134.873 L -22.3429,-134.257 L -22.1489,-133.659
 L -21.8815,-133.091 L -21.5451,-132.561 L -21.1448,-132.077 L -20.6871,-131.647 L -20.1791,-131.278 L -19.6289,-130.976
 L -19.0451,-130.745 L -18.4369,-130.589 L -17.8139,-130.51 L 17.8139,-130.51 z
M 18.4369,-46.5886 L 19.0451,-46.7447 L 19.6289,-46.9759 L 20.1791,-47.2784 L 20.6871,-47.6474 L 21.1448,-48.0773
 L 21.5451,-48.5611 L 21.8815,-49.0912 L 22.1489,-49.6594 L 22.3429,-50.2566 L 22.4606,-50.8733 L 22.5,-51.5
 L 22.5,-116.5 L 22.4606,-117.127 L 22.3429,-117.743 L 22.1489,-118.341 L 21.8815,-118.909 L 21.5451,-119.439
 L 21.1448,-119.923 L 20.6871,-120.353 L 20.1791,-120.722 L 19.6289,-121.024 L 19.0451,-121.255 L 18.4369,-121.411
 L 17.8139,-121.49 L -17.8139,-121.49 L -18.4369,-121.411 L -19.0451,-121.255 L -19.6289,-121.024 L -20.1791,-120.722
 L -20.6871,-120.353 L -21.1448,-119.923 L -21.5451,-119.439 L -21.8815,-118.909 L -22.1489,-118.341 L -22.3429,-117.743
 L -22.4606,-117.127 L -22.5,-116.5 L -22.5,-51.5 L -22.4606,-50.8733 L -22.3429,-50.2566 L -22.1489,-49.6594
 L -21.8815,-49.0912 L -21.5451,-48.5611 L -21.1448,-48.0773 L -20.6871,-47.6474 L -20.1791,-47.2784 L -19.6289,-46.9759
 L -19.0451,-46.7447 L -18.4369,-46.5886 L -17.8139,-46.5099 L 17.8139,-46.5099 z
M 14.887,-112.204 L 14.6627,-112.232 L 14.4438,-112.288 L 14.2336,-112.371 L 14.0355,-112.48 L 13.8526,-112.613
 L 13.6879,-112.768 L 13.5438,-112.942 L 13.4226,-113.133 L 13.3264,-113.337 L 13.2565,-113.552 L 13.2142,-113.774
 L 13.2,-114 L 13.2142,-114.226 L 13.2565,-114.448 L 13.3264,-114.663 L 13.4226,-114.867 L 13.5438,-115.058
 L 13.6879,-115.232 L 13.8526,-115.387 L 14.0355,-115.52 L 14.2336,-115.629 L 14.4438,-115.712 L 14.6627,-115.768
 L 14.887,-115.796 L 15.113,-115.796 L 15.3373,-115.768 L 15.5562,-115.712 L 15.7664,-115.629 L 15.9645,-115.52
 L 16.1474,-115.387 L 16.3121,-115.232 L 16.4562,-115.058 L 16.5773,-114.867 L 16.6736,-114.663 L 16.7434,-114.448
 L 16.7858,-114.226 L 16.8,-114 L 16.7858,-113.774 L 16.7434,-113.552 L 16.6736,-113.337 L 16.5773,-113.133
 L 16.4562,-112.942 L 16.3121,-112.768 L 16.1474,-112.613 L 15.9645,-112.48 L 15.7664,-112.371 L 15.5562,-112.288
 L 15.3373,-112.232 L 15.113,-112.204 z
M -15.113,-112.204 L -15.3373,-112.232 L -15.5562,-112.288 L -15.7664,-112.371 L -15.9645,-112.48 L -16.1474,-112.613
 L -16.3121,-112.768 L -16.4562,-112.942 L -16.5773,-113.133 L -16.6736,-113.337 L -16.7434,-113.552 L -16.7858,-113.774
 L -16.8,-114 L -16.7858,-114.226 L -16.7434,-114.448 L -16.6736,-114.663 L -16.5773,-114.867 L -16.4562,-115.058
 L -16.3121,-115.232 L -16.1474,-115.387 L -15.9645,-115.52 L -15.7664,-115.629 L -15.5562,-115.712 L -15.3373,-115.768
 L -15.113,-115.796 L -14.887,-115.796 L -14.6627,-115.768 L -14.4438,-115.712 L -14.2336,-115.629 L -14.0355,-115.52
 L -13.8526,-115.387 L -13.6879,-115.232 L -13.5438,-115.058 L -13.4226,-114.867 L -13.3264,-114.663 L -13.2565,-114.448
 L -13.2142,-114.226 L -13.2,-114 L -13.2142,-113.774 L -13.2565,-113.552 L -13.3264,-113.337 L -13.4226,-113.133
 L -13.5438,-112.942 L -13.6879,-112.768 L -13.8526,-112.613 L -14.0355,-112.48 L -14.2336,-112.371 L -14.4438,-112.288
 L -14.6627,-112.232 L -14.887,-112.204 z
M 14.887,-52.2036 L 14.6627,-52.2319 L 14.4438,-52.2881 L 14.2336,-52.3713 L 14.0355,-52.4802 L 13.8526,-52.6131
 L 13.6879,-52.7678 L 13.5438,-52.942 L 13.4226,-53.1328 L 13.3264,-53.3374 L 13.2565,-53.5524 L 13.2142,-53.7744
 L 13.2,-54 L 13.2142,-54.2256 L 13.2565,-54.4476 L 13.3264,-54.6626 L 13.4226,-54.8672 L 13.5438,-55.058
 L 13.6879,-55.2322 L 13.8526,-55.3869 L 14.0355,-55.5198 L 14.2336,-55.6287 L 14.4438,-55.7119 L 14.6627,-55.7681
 L 14.887,-55.7964 L 15.113,-55.7964 L 15.3373,-55.7681 L 15.5562,-55.7119 L 15.7664,-55.6287 L 15.9645,-55.5198
 L 16.1474,-55.3869 L 16.3121,-55.2322 L 16.4562,-55.058 L 16.5773,-54.8672 L 16.6736,-54.6626 L 16.7434,-54.4476
 L 16.7858,-54.2256 L 16.8,-54 L 16.7858,-53.7744 L 16.7434,-53.5524 L 16.6736,-53.3374 L 16.5773,-53.1328
 L 16.4562,-52.942 L 16.3121,-52.7678 L 16.1474,-52.6131 L 15.9645,-52.4802 L 15.7664,-52.3713 L 15.5562,-52.2881
 L 15.3373,-52.2319 L 15.113,-52.2036 z
M -15.113,-52.2036 L -15.3373,-52.2319 L -15.5562,-52.2881 L -15.7664,-52.3713 L -15.9645,-52.4802 L -16.1474,-52.6131
 L -16.3121,-52.7678 L -16.4562,-52.942 L -16.5773,-53.1328 L -16.6736,-53.3374 L -16.7434,-53.5524 L -16.7858,-53.7744
 L -16.8,-54 L -16.7858,-54.2256 L -16.7434,-54.4476 L -16.6736,-54.6626 L -16.5773,-54.8672 L -16.4562,-55.058
 L -16.3121,-55.2322 L -16.1474,-55.3869 L -15.9645,-55.5198 L -15.7664,-55.6287 L -15.5562,-55.7119 L -15.3373,-55.7681
 L -15.113,-55.7964 L -14.887,-55.7964 L -14.6627,-55.7681 L -14.4438,-55.7119 L -14.2336,-55.6287 L -14.0355,-55.5198
 L -13.8526,-55.3869 L -13.6879,-55.2322 L -13.5438,-55.058 L -13.4226,-54.8672 L -13.3264,-54.6626 L -13.2565,-54.4476
 L -13.2142,-54.2256 L -13.2,-54 L -13.2142,-53.7744 L -13.2565,-53.5524 L -13.3264,-53.3374 L -13.4226,-53.1328
 L -13.5438,-52.942 L -13.6879,-52.7678 L -13.8526,-52.6131 L -14.0355,-52.4802 L -14.2336,-52.3713 L -14.4438,-52.2881
 L -14.6627,-52.2319 L -14.887,-52.2036 z
" stroke="black" fill="lightgray" stroke-width="0.5"/>
</svg>
