<?xml version="1.0" standalone="no"?>
<!DOCTYPE svg PUBLIC "-//W3C//DTD SVG 1.1//EN" "http://www.w3.org/Graphics/SVG/1.1/DTD/svg11.dtd">
<svg width="180mm" height="262mm" viewBox="-90 -509 180 262" xmlns="http://www.w3.org/2000/svg" version="1.1">
<title>OpenSCAD Model</title>
<path d="
M 85.9369,-463.589 L 86.5451,-463.745 L 87.1289,-463.976 L 87.6791,-464.278 L 88.1871,-464.647 L 88.6448,-465.077
 L 89.0451,-465.561 L 89.3815,-466.091 L 89.6489,-466.659 L 89.8429,-467.257 L 89.9606,-467.873 L 90,-468.5
 L 90,-503.5 L 89.9606,-504.127 L 89.8429,-504.743 L 89.6489,-505.341 L 89.3815,-505.909 L 89.0451,-506.439
 L 88.6448,-506.923 L 88.1871,-507.353 L 87.6791,-507.722 L 87.1289,-508.024 L 86.5451,-508.255 L 85.9369,-508.411
 L 85.3139,-508.49 L -85.3139,-508.49 L -85.9369,-508.411 L -86.5451,-508.255 L -87.1289,-508.024 L -87.6791,-507.722
 L -88.1871,-507.353 L -88.6448,-506.923 L -89.0451,-506.439 L -89.3815,-505.909 L -89.6489,-505.341 L -89.8429,-504.743
 L -89.9606,-504.127 L -90,-503.5 L -90,-468.5 L -89.9606,-467.873 L -89.8429,-467.257 L -89.6489,-466.659
 L -89.3815,-466.091 L -89.0451,-465.561 L -88.6448,-465.077 L -88.1871,-464.647 L -87.6791,-464.278 L -87.1289,-463.976
 L -86.5451,-463.745 L -85.9369,-463.589 L -85.3139,-463.51 L 85.3139,-463.51 z
M -85.0482,-464.009 L -85.6401,-464.084 L -86.2178,-464.232 L -86.7724,-464.452 L -87.2952,-464.739 L -87.7778,-465.09
 L -88.2126,-465.498 L -88.5928,-465.958 L -88.9125,-466.462 L -89.1664,-467.001 L -89.3508,-467.569 L -89.4625,-468.155
 L -89.5,-468.75 L -89.5,-503.25 L -89.4625,-503.845 L -89.3508,-504.431 L -89.1664,-504.999 L -88.9125,-505.538
 L -88.5928,-506.042 L -88.2126,-506.502 L -87.7778,-506.91 L -87.2952,-507.261 L -86.7724,-507.548 L -86.2178,-507.768
 L -85.6401,-507.916 L -85.0482,-507.991 L 85.0482,-507.991 L 85.6401,-507.916 L 86.2178,-507.768 L 86.7724,-507.548
 L 87.2952,-507.261 L 87.7778,-506.91 L 88.2126,-506.502 L 88.5928,-506.042 L 88.9125,-505.538 L 89.1664,-504.999
 L 89.3508,-504.431 L 89.4625,-503.845 L 89.5,-503.25 L 89.5,-468.75 L 89.4625,-468.155 L 89.3508,-467.569
 L 89.1664,-467.001 L 88.9125,-466.462 L 88.5928,-465.958 L 88.2126,-465.498 L 87.7778,-465.09 L 87.2952,-464.739
 L 86.7724,-464.452 L 86.2178,-464.232 L 85.6401,-464.084 L 85.0482,-464.009 z
M 85.9369,-409.589 L 86.5451,-409.745 L 87.1289,-409.976 L 87.6791,-410.278 L 88.1871,-410.647 L 88.6448,-411.077
 L 89.0451,-411.561 L 89.3815,-412.091 L 89.6489,-412.659 L 89.8429,-413.257 L 89.9606,-413.873 L 90,-414.5
 L 90,-449.5 L 89.9606,-450.127 L 89.8429,-450.743 L 89.6489,-451.341 L 89.3815,-451.909 L 89.0451,-452.439
 L 88.6448,-452.923 L 88.1871,-453.353 L 87.6791,-453.722 L 87.1289,-454.024 L 86.5451,-454.255 L 85.9369,-454.411
 L 85.3139,-454.49 L -85.3139,-454.49 L -85.9369,-454.411 L -86.5451,-454.255 L -87.1289,-454.024 L -87.6791,-453.722
 L -88.1871,-453.353 L -88.6448,-452.923 L -89.0451,-452.439 L -89.3815,-451.909 L -89.6489,-451.341 L -89.8429,-450.743
 L -89.9606,-450.127 L -90,-449.5 L -90,-414.5 L -89.9606,-413.873 L -89.8429,-413.257 L -89.6489,-412.659
 L -89.3815,-412.091 L -89.0451,-411.561 L -88.6448,-411.077 L -88.1871,-410.647 L -87.6791,-410.278 L -87.1289,-409.976
 L -86.5451,-409.745 L -85.9369,-409.589 L -85.3139,-409.51 L 85.3139,-409.51 z
M -85.0482,-410.009 L -85.6401,-410.084 L -86.2178,-410.232 L -86.7724,-410.452 L -87.2952,-410.739 L -87.7778,-411.09
 L -88.2126,-411.498 L -88.5928,-411.958 L -88.9125,-412.462 L -89.1664,-413.001 L -89.3508,-413.569 L -89.4625,-414.155
 L -89.5,-414.75 L -89.5,-449.25 L -89.4625,-449.845 L -89.3508,-450.431 L -89.1664,-450.999 L -88.9125,-451.538
 L -88.5928,-452.042 L -88.2126,-452.502 L -87.7778,-452.91 L -87.2952,-453.261 L -86.7724,-453.548 L -86.2178,-453.768
 L -85.6401,-453.916 L -85.0482,-453.991 L 85.0482,-453.991 L 85.6401,-453.916 L 86.2178,-453.768 L 86.7724,-453.548
 L 87.2952,-453.261 L 87.7778,-452.91 L 88.2126,-452.502 L 88.5928,-452.042 L 88.9125,-451.538 L 89.1664,-450.999
 L 89.3508,-450.431 L 89.4625,-449.845 L 89.5,-449.25 L 89.5,-414.75 L 89.4625,-414.155 L 89.3508,-413.569
 L 89.1664,-413.001 L 88.9125,-412.462 L 88.5928,-411.958 L 88.2126,-411.498 L 87.7778,-411.09 L 87.2952,-410.739
 L 86.7724,-410.452 L 86.2178,-410.232 L 85.6401,-410.084 L 85.0482,-410.009 z
M 85.9369,-355.589 L 86.5451,-355.745 L 87.1289,-355.976 L 87.6791,-356.278 L 88.1871,-356.647 L 88.6448,-357.077
 L 89.0451,-357.561 L 89.3815,-358.091 L 89.6489,-358.659 L 89.8429,-359.257 L 89.9606,-359.873 L 90,-360.5
 L 90,-395.5 L 89.9606,-396.127 L 89.8429,-396.743 L 89.6489,-397.341 L 89.3815,-397.909 L 89.0451,-398.439
 L 88.6448,-398.923 L 88.1871,-399.353 L 87.6791,-399.722 L 87.1289,-400.024 L 86.5451,-400.255 L 85.9369,-400.411
 L 85.3139,-400.49 L -85.3139,-400.49 L -85.9369,-400.411 L -86.5451,-400.255 L -87.1289,-400.024 L -87.6791,-399.722
 L -88.1871,-399.353 L -88.6448,-398.923 L -89.0451,-398.439 L -89.3815,-397.909 L -89.6489,-397.341 L -89.8429,-396.743
 L -89.9606,-396.127 L -90,-395.5 L -90,-360.5 L -89.9606,-359.873 L -89.8429,-359.257 L -89.6489,-358.659
 L -89.3815,-358.091 L -89.0451,-357.561 L -88.6448,-357.077 L -88.1871,-356.647 L -87.6791,-356.278 L -87.1289,-355.976
 L -86.5451,-355.745 L -85.9369,-355.589 L -85.3139,-355.51 L 85.3139,-355.51 z
M -85.0482,-356.009 L -85.6401,-356.084 L -86.2178,-356.232 L -86.7724,-356.452 L -87.2952,-356.739 L -87.7778,-357.09
 L -88.2126,-357.498 L -88.5928,-357.958 L -88.9125,-358.462 L -89.1664,-359.001 L -89.3508,-359.569 L -89.4625,-360.155
 L -89.5,-360.75 L -89.5,-395.25 L -89.4625,-395.845 L -89.3508,-396.431 L -89.1664,-396.999 L -88.9125,-397.538
 L -88.5928,-398.042 L -88.2126,-398.502 L -87.7778,-398.91 L -87.2952,-399.261 L -86.7724,-399.548 L -86.2178,-399.768
 L -85.6401,-399.916 L -85.0482,-399.991 L 85.0482,-399.991 L 85.6401,-399.916 L 86.2178,-399.768 L 86.7724,-399.548
 L 87.2952,-399.261 L 87.7778,-398.91 L 88.2126,-398.502 L 88.5928,-398.042 L 88.9125,-397.538 L 89.1664,-396.999
 L 89.3508,-396.431 L 89.4625,-395.845 L 89.5,-395.25 L 89.5,-360.75 L 89.4625,-360.155 L 89.3508,-359.569
 L 89.1664,-359.001 L 88.9125,-358.462 L 88.5928,-357.958 L 88.2126,-357.498 L 87.7778,-357.09 L 87.2952,-356.739
 L 86.7724,-356.452 L 86.2178,-356.232 L 85.6401,-356.084 L 85.0482,-356.009 z
M 85.9369,-301.589 L 86.5451,-301.745 L 87.1289,-301.976 L 87.6791,-302.278 L 88.1871,-302.647 L 88.6448,-303.077
 L 89.0451,-303.561 L 89.3815,-304.091 L 89.6489,-304.659 L 89.8429,-305.257 L 89.9606,-305.873 L 90,-306.5
 L 90,-341.5 L 89.9606,-342.127 L 89.8429,-342.743 L 89.6489,-343.341 L 89.3815,-343.909 L 89.0451,-344.439
 L 88.6448,-344.923 L 88.1871,-345.353 L 87.6791,-345.722 L 87.1289,-346.024 L 86.5451,-346.255 L 85.9369,-346.411
 L 85.3139,-346.49 L -85.3139,-346.49 L -85.9369,-346.411 L -86.5451,-346.255 L -87.1289,-346.024 L -87.6791,-345.722
 L -88.1871,-345.353 L -88.6448,-344.923 L -89.0451,-344.439 L -89.3815,-343.909 L -89.6489,-343.341 L -89.8429,-342.743
 L -89.9606,-342.127 L -90,-341.5 L -90,-306.5 L -89.9606,-305.873 L -89.8429,-305.257 L -89.6489,-304.659
 L -89.3815,-304.091 L -89.0451,-303.561 L -88.6448,-303.077 L -88.1871,-302.647 L -87.6791,-302.278 L -87.1289,-301.976
 L -86.5451,-301.745 L -85.9369,-301.589 L -85.3139,-301.51 L 85.3139,-301.51 z
M -85.0375,-302.181 L -85.6079,-302.253 L -86.1648,-302.396 L -86.6994,-302.607 L -87.2032,-302.884 L -87.6684,-303.222
 L -88.0875,-303.616 L -88.454,-304.059 L -88.7621,-304.544 L -89.0069,-305.065 L -89.1846,-305.611 L -89.2923,-306.176
 L -89.3284,-306.75 L -89.3284,-341.25 L -89.2923,-341.824 L -89.1846,-342.389 L -89.0069,-342.935 L -88.7621,-343.456
 L -88.454,-343.941 L -88.0875,-344.384 L -87.6684,-344.778 L -87.2032,-345.116 L -86.6994,-345.393 L -86.1648,-345.604
 L -85.6079,-345.747 L -85.0375,-345.819 L 85.0375,-345.819 L 85.6079,-345.747 L 86.1648,-345.604 L 86.6994,-345.393
 L 87.2032,-345.116 L 87.6684,-344.778 L 88.0875,-344.384 L 88.454,-343.941 L 88.7621,-343.456 L 89.0069,-342.935
 L 89.1846,-342.389 L 89.2923,-341.824 L 89.3284,-341.25 L 89.3284,-306.75 L 89.2923,-306.176 L 89.1846,-305.611
 L 89.0069,-305.065 L 88.7621,-304.544 L 88.454,-304.059 L 88.0875,-303.616 L 87.6684,-303.222 L 87.2032,-302.884
 L 86.6994,-302.607 L 86.1648,-302.396 L 85.6079,-302.253 L 85.0375,-302.181 z
M 85.9369,-247.589 L 86.5451,-247.745 L 87.1289,-247.976 L 87.6791,-248.278 L 88.1871,-248.647 L 88.6448,-249.077
 L 89.0451,-249.561 L 89.3815,-250.091 L 89.6489,-250.659 L 89.8429,-251.257 L 89.9606,-251.873 L 90,-252.5
 L 90,-287.5 L 89.9606,-288.127 L 89.8429,-288.743 L 89.6489,-289.341 L 89.3815,-289.909 L 89.0451,-290.439
 L 88.6448,-290.923 L 88.1871,-291.353 L 87.6791,-291.722 L 87.1289,-292.024 L 86.5451,-292.255 L 85.9369,-292.411
 L 85.3139,-292.49 L -85.3139,-292.49 L -85.9369,-292.411 L -86.5451,-292.255 L -87.1289,-292.024 L -87.6791,-291.722
 L -88.1871,-291.353 L -88.6448,-290.923 L -89.0451,-290.439 L -89.3815,-289.909 L -89.6489,-289.341 L -89.8429,-288.743
 L -89.9606,-288.127 L -90,-287.5 L -90,-252.5 L -89.9606,-251.873 L -89.8429,-251.257 L -89.6489,-250.659
 L -89.3815,-250.091 L -89.0451,-249.561 L -88.6448,-249.077 L -88.1871,-248.647 L -87.6791,-248.278 L -87.1289,-247.976
 L -86.5451,-247.745 L -85.9369,-247.589 L -85.3139,-247.51 L 85.3139,-247.51 z
M -84.8825,-250.645 L -85.1453,-250.678 L -85.4019,-250.744 L -85.6482,-250.841 L -85.8804,-250.969 L -86.0947,-251.125
 L -86.2879,-251.306 L -86.4567,-251.51 L -86.5987,-251.734 L -86.7115,-251.973 L -86.7934,-252.225 L -86.843,-252.486
 L -86.8596,-252.75 L -86.8596,-287.25 L -86.843,-287.514 L -86.7934,-287.775 L -86.7115,-288.027 L -86.5987,-288.266
 L -86.4567,-288.49 L -86.2879,-288.694 L -86.0947,-288.875 L -85.8804,-289.031 L -85.6482,-289.159 L -85.4019,-289.256
 L -85.1453,-289.322 L -84.8825,-289.355 L 84.8825,-289.355 L 85.1453,-289.322 L 85.4019,-289.256 L 85.6482,-289.159
 L 85.8804,-289.031 L 86.0947,-288.875 L 86.2879,-288.694 L 86.4567,-288.49 L 86.5987,-288.266 L 86.7115,-288.027
 L 86.7934,-287.775 L 86.843,-287.514 L 86.8596,-287.25 L 86.8596,-252.75 L 86.843,-252.486 L 86.7934,-252.225
 L 86.7115,-251.973 L 86.5987,-251.734 L 86.4567,-251.51 L 86.2879,-251.306 L 86.0947,-251.125 L 85.8804,-250.969
 L 85.6482,-250.841 L 85.4019,-250.744 L 85.1453,-250.678 L 84.8825,-250.645 z
" stroke="black" fill="lightgray" stroke-width="0.5"/>
</svg>
