<?xml version="1.0" standalone="no"?>
<!DOCTYPE svg PUBLIC "-//W3C//DTD SVG 1.1//EN" "http://www.w3.org/Graphics/SVG/1.1/DTD/svg11.dtd">
<svg width="107mm" height="40mm" viewBox="-54 -56 107 40" xmlns="http://www.w3.org/2000/svg" version="1.1">
<title>OpenSCAD Model</title>
<path d="
M 48.4369,-40.5886 L 49.0451,-40.7447 L 49.6289,-40.9759 L 50.1791,-41.2784 L 50.6871,-41.6474 L 51.1448,-42.0773
 L 51.5451,-42.5611 L 51.8815,-43.0912 L 52.1489,-43.6594 L 52.3429,-44.2566 L 52.4606,-44.8733 L 52.5,-45.5
 L 52.5,-50.5 L 52.4606,-51.1267 L 52.3429,-51.7434 L 52.1489,-52.3406 L 51.8815,-52.9088 L 51.5451,-53.4389
 L 51.1448,-53.9227 L 50.6871,-54.3526 L 50.1791,-54.7216 L 49.6289,-55.0241 L 49.0451,-55.2553 L 48.4369,-55.4114
 L 47.8139,-55.4901 L -47.8139,-55.4901 L -48.4369,-55.4114 L -49.0451,-55.2553 L -49.6289,-55.0241 L -50.1791,-54.7216
 L -50.6871,-54.3526 L -51,-54.0587 L -51,-55.1148 L -54,-55.1148 L -54,-40.8852 L -51,-40.8852
 L -51,-41.9413 L -50.6871,-41.6474 L -50.1791,-41.2784 L -49.6289,-40.9759 L -49.0451,-40.7447 L -48.4369,-40.5886
 L -47.8139,-40.5099 L 47.8139,-40.5099 z
M 48.4369,-16.5886 L 49.0451,-16.7447 L 49.6289,-16.9759 L 50.1791,-17.2784 L 50.6871,-17.6474 L 51.1448,-18.0773
 L 51.5451,-18.5611 L 51.8815,-19.0912 L 52.1489,-19.6594 L 52.3429,-20.2566 L 52.4606,-20.8733 L 52.5,-21.5
 L 52.5,-26.5 L 52.4606,-27.1267 L 52.3429,-27.7434 L 52.1489,-28.3406 L 51.8815,-28.9088 L 51.5451,-29.4389
 L 51.1448,-29.9227 L 50.6871,-30.3526 L 50.1791,-30.7216 L 49.6289,-31.0241 L 49.0451,-31.2553 L 48.4369,-31.4114
 L 47.8139,-31.4901 L -47.8139,-31.4901 L -48.4369,-31.4114 L -49.0451,-31.2553 L -49.6289,-31.0241 L -50.1791,-30.7216
 L -50.6871,-30.3526 L -51.1448,-29.9227 L -51.5451,-29.4389 L -51.8815,-28.9088 L -52.1489,-28.3406 L -52.3429,-27.7434
 L -52.4,-27.4442 L -54,-27.4442 L -54,-20.5558 L -52.4,-20.5558 L -52.3429,-20.2566 L -52.1489,-19.6594
 L -51.8815,-19.0912 L -51.5451,-18.5611 L -51.1448,-18.0773 L -50.6871,-17.6474 L -50.1791,-17.2784 L -49.6289,-16.9759
 L -49.0451,-16.7447 L -48.4369,-16.5886 L -47.8139,-16.5099 L 47.8139,-16.5099 z
M -45.113,-22.2036 L -45.3373,-22.2319 L -45.5562,-22.2881 L -45.7664,-22.3713 L -45.9645,-22.4802 L -46.1474,-22.6131
 L -46.3121,-22.7678 L -46.4562,-22.942 L -46.5773,-23.1329 L -46.6736,-23.3374 L -46.7434,-23.5524 L -46.7858,-23.7744
 L -46.8,-24 L -46.7858,-24.2256 L -46.7434,-24.4476 L -46.6736,-24.6626 L -46.5773,-24.8671 L -46.4562,-25.058
 L -46.3121,-25.2322 L -46.1474,-25.3869 L -45.9645,-25.5198 L -45.7664,-25.6287 L -45.5562,-25.7119 L -45.3373,-25.7681
 L -45.113,-25.7964 L -44.887,-25.7964 L -44.6627,-25.7681 L -44.4438,-25.7119 L -44.2336,-25.6287 L -44.0355,-25.5198
 L -43.8526,-25.3869 L -43.6879,-25.2322 L -43.5438,-25.058 L -43.4226,-24.8671 L -43.3264,-24.6626 L -43.2565,-24.4476
 L -43.2142,-24.2256 L -43.2,-24 L -43.2142,-23.7744 L -43.2565,-23.5524 L -43.3264,-23.3374 L -43.4226,-23.1329
 L -43.5438,-22.942 L -43.6879,-22.7678 L -43.8526,-22.6131 L -44.0355,-22.4802 L -44.2336,-22.3713 L -44.4438,-22.2881
 L -44.6627,-22.2319 L -44.887,-22.2036 z
M 44.887,-22.2036 L 44.6627,-22.2319 L 44.4438,-22.2881 L 44.2336,-22.3713 L 44.0355,-22.4802 L 43.8526,-22.6131
 L 43.6879,-22.7678 L 43.5438,-22.942 L 43.4226,-23.1329 L 43.3264,-23.3374 L 43.2565,-23.5524 L 43.2142,-23.7744
 L 43.2,-24 L 43.2142,-24.2256 L 43.2565,-24.4476 L 43.3264,-24.6626 L 43.4226,-24.8671 L 43.5438,-25.058
 L 43.6879,-25.2322 L 43.8526,-25.3869 L 44.0355,-25.5198 L 44.2336,-25.6287 L 44.4438,-25.7119 L 44.6627,-25.7681
 L 44.887,-25.7964 L 45.113,-25.7964 L 45.3373,-25.7681 L 45.5562,-25.7119 L 45.7664,-25.6287 L 45.9645,-25.5198
 L 46.1474,-25.3869 L 46.3121,-25.2322 L 46.4562,-25.058 L 46.5773,-24.8671 L 46.6736,-24.6626 L 46.7434,-24.4476
 L 46.7858,-24.2256 L 46.8,-24 L 46.7858,-23.7744 L 46.7434,-23.5524 L 46.6736,-23.3374 L 46.5773,-23.1329
 L 46.4562,-22.942 L 46.3121,-22.7678 L 46.1474,-22.6131 L 45.9645,-22.4802 L 45.7664,-22.3713 L 45.5562,-22.2881
 L 45.3373,-22.2319 L 45.113,-22.2036 z
" stroke="black" fill="lightgray" stroke-width="0.5"/>
</svg>
