  0
SECTION
  2
BLOCKS
  0
ENDSEC
  0
SECTION
  2
ENTITIES
  0
LINE
  8
0
 10
25.9369
 20
177.089
 11
26.5451
 21
177.245
  0
LINE
  8
0
 10
26.5451
 20
177.245
 11
27.1289
 21
177.476
  0
LINE
  8
0
 10
27.1289
 20
177.476
 11
27.6791
 21
177.778
  0
LINE
  8
0
 10
27.6791
 20
177.778
 11
28.1871
 21
178.147
  0
LINE
  8
0
 10
28.1871
 20
178.147
 11
28.6448
 21
178.577
  0
LINE
  8
0
 10
28.6448
 20
178.577
 11
29.0451
 21
179.061
  0
LINE
  8
0
 10
29.0451
 20
179.061
 11
29.3815
 21
179.591
  0
LINE
  8
0
 10
29.3815
 20
179.591
 11
29.6489
 21
180.159
  0
LINE
  8
0
 10
29.6489
 20
180.159
 11
29.8429
 21
180.757
  0
LINE
  8
0
 10
29.8429
 20
180.757
 11
29.9606
 21
181.373
  0
LINE
  8
0
 10
29.9606
 20
181.373
 11
30
 21
182
  0
LINE
  8
0
 10
30
 20
182
 11
30
 21
232
  0
LINE
  8
0
 10
30
 20
232
 11
29.9606
 21
232.627
  0
LINE
  8
0
 10
29.9606
 20
232.627
 11
29.8429
 21
233.243
  0
LINE
  8
0
 10
29.8429
 20
233.243
 11
29.6489
 21
233.841
  0
LINE
  8
0
 10
29.6489
 20
233.841
 11
29.3815
 21
234.409
  0
LINE
  8
0
 10
29.3815
 20
234.409
 11
29.0451
 21
234.939
  0
LINE
  8
0
 10
29.0451
 20
234.939
 11
28.6448
 21
235.423
  0
LINE
  8
0
 10
28.6448
 20
235.423
 11
28.1871
 21
235.853
  0
LINE
  8
0
 10
28.1871
 20
235.853
 11
27.6791
 21
236.222
  0
LINE
  8
0
 10
27.6791
 20
236.222
 11
27.1289
 21
236.524
  0
LINE
  8
0
 10
27.1289
 20
236.524
 11
26.5451
 21
236.755
  0
LINE
  8
0
 10
26.5451
 20
236.755
 11
25.9369
 21
236.911
  0
LINE
  8
0
 10
25.9369
 20
236.911
 11
25.3139
 21
236.99
  0
LINE
  8
0
 10
25.3139
 20
236.99
 11
-25.3139
 21
236.99
  0
LINE
  8
0
 10
-25.3139
 20
236.99
 11
-25.9369
 21
236.911
  0
LINE
  8
0
 10
-25.9369
 20
236.911
 11
-26.5451
 21
236.755
  0
LINE
  8
0
 10
-26.5451
 20
236.755
 11
-27.1289
 21
236.524
  0
LINE
  8
0
 10
-27.1289
 20
236.524
 11
-27.6791
 21
236.222
  0
LINE
  8
0
 10
-27.6791
 20
236.222
 11
-28.1871
 21
235.853
  0
LINE
  8
0
 10
-28.1871
 20
235.853
 11
-28.6448
 21
235.423
  0
LINE
  8
0
 10
-28.6448
 20
235.423
 11
-29.0451
 21
234.939
  0
LINE
  8
0
 10
-29.0451
 20
234.939
 11
-29.3815
 21
234.409
  0
LINE
  8
0
 10
-29.3815
 20
234.409
 11
-29.6489
 21
233.841
  0
LINE
  8
0
 10
-29.6489
 20
233.841
 11
-29.8429
 21
233.243
  0
LINE
  8
0
 10
-29.8429
 20
233.243
 11
-29.9606
 21
232.627
  0
LINE
  8
0
 10
-29.9606
 20
232.627
 11
-30
 21
232
  0
LINE
  8
0
 10
-30
 20
232
 11
-30
 21
182
  0
LINE
  8
0
 10
-30
 20
182
 11
-29.9606
 21
181.373
  0
LINE
  8
0
 10
-29.9606
 20
181.373
 11
-29.8429
 21
180.757
  0
LINE
  8
0
 10
-29.8429
 20
180.757
 11
-29.6489
 21
180.159
  0
LINE
  8
0
 10
-29.6489
 20
180.159
 11
-29.3815
 21
179.591
  0
LINE
  8
0
 10
-29.3815
 20
179.591
 11
-29.0451
 21
179.061
  0
LINE
  8
0
 10
-29.0451
 20
179.061
 11
-28.6448
 21
178.577
  0
LINE
  8
0
 10
-28.6448
 20
178.577
 11
-28.1871
 21
178.147
  0
LINE
  8
0
 10
-28.1871
 20
178.147
 11
-27.6791
 21
177.778
  0
LINE
  8
0
 10
-27.6791
 20
177.778
 11
-27.1289
 21
177.476
  0
LINE
  8
0
 10
-27.1289
 20
177.476
 11
-26.5451
 21
177.245
  0
LINE
  8
0
 10
-26.5451
 20
177.245
 11
-25.9369
 21
177.089
  0
LINE
  8
0
 10
-25.9369
 20
177.089
 11
-25.3139
 21
177.01
  0
LINE
  8
0
 10
-25.3139
 20
177.01
 11
25.3139
 21
177.01
  0
LINE
  8
0
 10
25.3139
 20
177.01
 11
25.9369
 21
177.089
  0
LINE
  8
0
 10
-25.0375
 20
177.681
 11
-25.6079
 21
177.753
  0
LINE
  8
0
 10
-25.6079
 20
177.753
 11
-26.1648
 21
177.896
  0
LINE
  8
0
 10
-26.1648
 20
177.896
 11
-26.6994
 21
178.107
  0
LINE
  8
0
 10
-26.6994
 20
178.107
 11
-27.2032
 21
178.384
  0
LINE
  8
0
 10
-27.2032
 20
178.384
 11
-27.6684
 21
178.722
  0
LINE
  8
0
 10
-27.6684
 20
178.722
 11
-28.0875
 21
179.116
  0
LINE
  8
0
 10
-28.0875
 20
179.116
 11
-28.454
 21
179.559
  0
LINE
  8
0
 10
-28.454
 20
179.559
 11
-28.7621
 21
180.044
  0
LINE
  8
0
 10
-28.7621
 20
180.044
 11
-29.0069
 21
180.565
  0
LINE
  8
0
 10
-29.0069
 20
180.565
 11
-29.1846
 21
181.111
  0
LINE
  8
0
 10
-29.1846
 20
181.111
 11
-29.2923
 21
181.676
  0
LINE
  8
0
 10
-29.2923
 20
181.676
 11
-29.3284
 21
182.25
  0
LINE
  8
0
 10
-29.3284
 20
182.25
 11
-29.3284
 21
231.75
  0
LINE
  8
0
 10
-29.3284
 20
231.75
 11
-29.2923
 21
232.324
  0
LINE
  8
0
 10
-29.2923
 20
232.324
 11
-29.1846
 21
232.889
  0
LINE
  8
0
 10
-29.1846
 20
232.889
 11
-29.0069
 21
233.435
  0
LINE
  8
0
 10
-29.0069
 20
233.435
 11
-28.7621
 21
233.956
  0
LINE
  8
0
 10
-28.7621
 20
233.956
 11
-28.454
 21
234.441
  0
LINE
  8
0
 10
-28.454
 20
234.441
 11
-28.0875
 21
234.884
  0
LINE
  8
0
 10
-28.0875
 20
234.884
 11
-27.6684
 21
235.278
  0
LINE
  8
0
 10
-27.6684
 20
235.278
 11
-27.2032
 21
235.616
  0
LINE
  8
0
 10
-27.2032
 20
235.616
 11
-26.6994
 21
235.893
  0
LINE
  8
0
 10
-26.6994
 20
235.893
 11
-26.1648
 21
236.104
  0
LINE
  8
0
 10
-26.1648
 20
236.104
 11
-25.6079
 21
236.247
  0
LINE
  8
0
 10
-25.6079
 20
236.247
 11
-25.0375
 21
236.319
  0
LINE
  8
0
 10
-25.0375
 20
236.319
 11
25.0375
 21
236.319
  0
LINE
  8
0
 10
25.0375
 20
236.319
 11
25.6079
 21
236.247
  0
LINE
  8
0
 10
25.6079
 20
236.247
 11
26.1648
 21
236.104
  0
LINE
  8
0
 10
26.1648
 20
236.104
 11
26.6994
 21
235.893
  0
LINE
  8
0
 10
26.6994
 20
235.893
 11
27.2032
 21
235.616
  0
LINE
  8
0
 10
27.2032
 20
235.616
 11
27.6684
 21
235.278
  0
LINE
  8
0
 10
27.6684
 20
235.278
 11
28.0875
 21
234.884
  0
LINE
  8
0
 10
28.0875
 20
234.884
 11
28.454
 21
234.441
  0
LINE
  8
0
 10
28.454
 20
234.441
 11
28.7621
 21
233.956
  0
LINE
  8
0
 10
28.7621
 20
233.956
 11
29.0069
 21
233.435
  0
LINE
  8
0
 10
29.0069
 20
233.435
 11
29.1846
 21
232.889
  0
LINE
  8
0
 10
29.1846
 20
232.889
 11
29.2923
 21
232.324
  0
LINE
  8
0
 10
29.2923
 20
232.324
 11
29.3284
 21
231.75
  0
LINE
  8
0
 10
29.3284
 20
231.75
 11
29.3284
 21
182.25
  0
LINE
  8
0
 10
29.3284
 20
182.25
 11
29.2923
 21
181.676
  0
LINE
  8
0
 10
29.2923
 20
181.676
 11
29.1846
 21
181.111
  0
LINE
  8
0
 10
29.1846
 20
181.111
 11
29.0069
 21
180.565
  0
LINE
  8
0
 10
29.0069
 20
180.565
 11
28.7621
 21
180.044
  0
LINE
  8
0
 10
28.7621
 20
180.044
 11
28.454
 21
179.559
  0
LINE
  8
0
 10
28.454
 20
179.559
 11
28.0875
 21
179.116
  0
LINE
  8
0
 10
28.0875
 20
179.116
 11
27.6684
 21
178.722
  0
LINE
  8
0
 10
27.6684
 20
178.722
 11
27.2032
 21
178.384
  0
LINE
  8
0
 10
27.2032
 20
178.384
 11
26.6994
 21
178.107
  0
LINE
  8
0
 10
26.6994
 20
178.107
 11
26.1648
 21
177.896
  0
LINE
  8
0
 10
26.1648
 20
177.896
 11
25.6079
 21
177.753
  0
LINE
  8
0
 10
25.6079
 20
177.753
 11
25.0375
 21
177.681
  0
LINE
  8
0
 10
25.0375
 20
177.681
 11
-25.0375
 21
177.681
  0
LINE
  8
0
 10
25.9369
 20
108.089
 11
26.5451
 21
108.245
  0
LINE
  8
0
 10
26.5451
 20
108.245
 11
27.1289
 21
108.476
  0
LINE
  8
0
 10
27.1289
 20
108.476
 11
27.6791
 21
108.778
  0
LINE
  8
0
 10
27.6791
 20
108.778
 11
28.1871
 21
109.147
  0
LINE
  8
0
 10
28.1871
 20
109.147
 11
28.6448
 21
109.577
  0
LINE
  8
0
 10
28.6448
 20
109.577
 11
29.0451
 21
110.061
  0
LINE
  8
0
 10
29.0451
 20
110.061
 11
29.3815
 21
110.591
  0
LINE
  8
0
 10
29.3815
 20
110.591
 11
29.6489
 21
111.159
  0
LINE
  8
0
 10
29.6489
 20
111.159
 11
29.8429
 21
111.757
  0
LINE
  8
0
 10
29.8429
 20
111.757
 11
29.9606
 21
112.373
  0
LINE
  8
0
 10
29.9606
 20
112.373
 11
30
 21
113
  0
LINE
  8
0
 10
30
 20
113
 11
30
 21
163
  0
LINE
  8
0
 10
30
 20
163
 11
29.9606
 21
163.627
  0
LINE
  8
0
 10
29.9606
 20
163.627
 11
29.8429
 21
164.243
  0
LINE
  8
0
 10
29.8429
 20
164.243
 11
29.6489
 21
164.841
  0
LINE
  8
0
 10
29.6489
 20
164.841
 11
29.3815
 21
165.409
  0
LINE
  8
0
 10
29.3815
 20
165.409
 11
29.0451
 21
165.939
  0
LINE
  8
0
 10
29.0451
 20
165.939
 11
28.6448
 21
166.423
  0
LINE
  8
0
 10
28.6448
 20
166.423
 11
28.1871
 21
166.853
  0
LINE
  8
0
 10
28.1871
 20
166.853
 11
27.6791
 21
167.222
  0
LINE
  8
0
 10
27.6791
 20
167.222
 11
27.1289
 21
167.524
  0
LINE
  8
0
 10
27.1289
 20
167.524
 11
26.5451
 21
167.755
  0
LINE
  8
0
 10
26.5451
 20
167.755
 11
25.9369
 21
167.911
  0
LINE
  8
0
 10
25.9369
 20
167.911
 11
25.3139
 21
167.99
  0
LINE
  8
0
 10
25.3139
 20
167.99
 11
-25.3139
 21
167.99
  0
LINE
  8
0
 10
-25.3139
 20
167.99
 11
-25.9369
 21
167.911
  0
LINE
  8
0
 10
-25.9369
 20
167.911
 11
-26.5451
 21
167.755
  0
LINE
  8
0
 10
-26.5451
 20
167.755
 11
-27.1289
 21
167.524
  0
LINE
  8
0
 10
-27.1289
 20
167.524
 11
-27.6791
 21
167.222
  0
LINE
  8
0
 10
-27.6791
 20
167.222
 11
-28.1871
 21
166.853
  0
LINE
  8
0
 10
-28.1871
 20
166.853
 11
-28.6448
 21
166.423
  0
LINE
  8
0
 10
-28.6448
 20
166.423
 11
-29.0451
 21
165.939
  0
LINE
  8
0
 10
-29.0451
 20
165.939
 11
-29.3815
 21
165.409
  0
LINE
  8
0
 10
-29.3815
 20
165.409
 11
-29.6489
 21
164.841
  0
LINE
  8
0
 10
-29.6489
 20
164.841
 11
-29.8429
 21
164.243
  0
LINE
  8
0
 10
-29.8429
 20
164.243
 11
-29.9606
 21
163.627
  0
LINE
  8
0
 10
-29.9606
 20
163.627
 11
-30
 21
163
  0
LINE
  8
0
 10
-30
 20
163
 11
-30
 21
113
  0
LINE
  8
0
 10
-30
 20
113
 11
-29.9606
 21
112.373
  0
LINE
  8
0
 10
-29.9606
 20
112.373
 11
-29.8429
 21
111.757
  0
LINE
  8
0
 10
-29.8429
 20
111.757
 11
-29.6489
 21
111.159
  0
LINE
  8
0
 10
-29.6489
 20
111.159
 11
-29.3815
 21
110.591
  0
LINE
  8
0
 10
-29.3815
 20
110.591
 11
-29.0451
 21
110.061
  0
LINE
  8
0
 10
-29.0451
 20
110.061
 11
-28.6448
 21
109.577
  0
LINE
  8
0
 10
-28.6448
 20
109.577
 11
-28.1871
 21
109.147
  0
LINE
  8
0
 10
-28.1871
 20
109.147
 11
-27.6791
 21
108.778
  0
LINE
  8
0
 10
-27.6791
 20
108.778
 11
-27.1289
 21
108.476
  0
LINE
  8
0
 10
-27.1289
 20
108.476
 11
-26.5451
 21
108.245
  0
LINE
  8
0
 10
-26.5451
 20
108.245
 11
-25.9369
 21
108.089
  0
LINE
  8
0
 10
-25.9369
 20
108.089
 11
-25.3139
 21
108.01
  0
LINE
  8
0
 10
-25.3139
 20
108.01
 11
25.3139
 21
108.01
  0
LINE
  8
0
 10
25.3139
 20
108.01
 11
25.9369
 21
108.089
  0
LINE
  8
0
 10
-24.8825
 20
111.145
 11
-25.1453
 21
111.178
  0
LINE
  8
0
 10
-25.1453
 20
111.178
 11
-25.4019
 21
111.244
  0
LINE
  8
0
 10
-25.4019
 20
111.244
 11
-25.6482
 21
111.341
  0
LINE
  8
0
 10
-25.6482
 20
111.341
 11
-25.8804
 21
111.469
  0
LINE
  8
0
 10
-25.8804
 20
111.469
 11
-26.0947
 21
111.625
  0
LINE
  8
0
 10
-26.0947
 20
111.625
 11
-26.2879
 21
111.806
  0
LINE
  8
0
 10
-26.2879
 20
111.806
 11
-26.4567
 21
112.01
  0
LINE
  8
0
 10
-26.4567
 20
112.01
 11
-26.5987
 21
112.234
  0
LINE
  8
0
 10
-26.5987
 20
112.234
 11
-26.7115
 21
112.473
  0
LINE
  8
0
 10
-26.7115
 20
112.473
 11
-26.7934
 21
112.725
  0
LINE
  8
0
 10
-26.7934
 20
112.725
 11
-26.843
 21
112.986
  0
LINE
  8
0
 10
-26.843
 20
112.986
 11
-26.8596
 21
113.25
  0
LINE
  8
0
 10
-26.8596
 20
113.25
 11
-26.8596
 21
162.75
  0
LINE
  8
0
 10
-26.8596
 20
162.75
 11
-26.843
 21
163.014
  0
LINE
  8
0
 10
-26.843
 20
163.014
 11
-26.7934
 21
163.275
  0
LINE
  8
0
 10
-26.7934
 20
163.275
 11
-26.7115
 21
163.527
  0
LINE
  8
0
 10
-26.7115
 20
163.527
 11
-26.5987
 21
163.766
  0
LINE
  8
0
 10
-26.5987
 20
163.766
 11
-26.4567
 21
163.99
  0
LINE
  8
0
 10
-26.4567
 20
163.99
 11
-26.2879
 21
164.194
  0
LINE
  8
0
 10
-26.2879
 20
164.194
 11
-26.0947
 21
164.375
  0
LINE
  8
0
 10
-26.0947
 20
164.375
 11
-25.8804
 21
164.531
  0
LINE
  8
0
 10
-25.8804
 20
164.531
 11
-25.6482
 21
164.659
  0
LINE
  8
0
 10
-25.6482
 20
164.659
 11
-25.4019
 21
164.756
  0
LINE
  8
0
 10
-25.4019
 20
164.756
 11
-25.1453
 21
164.822
  0
LINE
  8
0
 10
-25.1453
 20
164.822
 11
-24.8825
 21
164.855
  0
LINE
  8
0
 10
-24.8825
 20
164.855
 11
24.8825
 21
164.855
  0
LINE
  8
0
 10
24.8825
 20
164.855
 11
25.1453
 21
164.822
  0
LINE
  8
0
 10
25.1453
 20
164.822
 11
25.4019
 21
164.756
  0
LINE
  8
0
 10
25.4019
 20
164.756
 11
25.6482
 21
164.659
  0
LINE
  8
0
 10
25.6482
 20
164.659
 11
25.8804
 21
164.531
  0
LINE
  8
0
 10
25.8804
 20
164.531
 11
26.0947
 21
164.375
  0
LINE
  8
0
 10
26.0947
 20
164.375
 11
26.2879
 21
164.194
  0
LINE
  8
0
 10
26.2879
 20
164.194
 11
26.4567
 21
163.99
  0
LINE
  8
0
 10
26.4567
 20
163.99
 11
26.5987
 21
163.766
  0
LINE
  8
0
 10
26.5987
 20
163.766
 11
26.7115
 21
163.527
  0
LINE
  8
0
 10
26.7115
 20
163.527
 11
26.7934
 21
163.275
  0
LINE
  8
0
 10
26.7934
 20
163.275
 11
26.843
 21
163.014
  0
LINE
  8
0
 10
26.843
 20
163.014
 11
26.8596
 21
162.75
  0
LINE
  8
0
 10
26.8596
 20
162.75
 11
26.8596
 21
113.25
  0
LINE
  8
0
 10
26.8596
 20
113.25
 11
26.843
 21
112.986
  0
LINE
  8
0
 10
26.843
 20
112.986
 11
26.7934
 21
112.725
  0
LINE
  8
0
 10
26.7934
 20
112.725
 11
26.7115
 21
112.473
  0
LINE
  8
0
 10
26.7115
 20
112.473
 11
26.5987
 21
112.234
  0
LINE
  8
0
 10
26.5987
 20
112.234
 11
26.4567
 21
112.01
  0
LINE
  8
0
 10
26.4567
 20
112.01
 11
26.2879
 21
111.806
  0
LINE
  8
0
 10
26.2879
 20
111.806
 11
26.0947
 21
111.625
  0
LINE
  8
0
 10
26.0947
 20
111.625
 11
25.8804
 21
111.469
  0
LINE
  8
0
 10
25.8804
 20
111.469
 11
25.6482
 21
111.341
  0
LINE
  8
0
 10
25.6482
 20
111.341
 11
25.4019
 21
111.244
  0
LINE
  8
0
 10
25.4019
 20
111.244
 11
25.1453
 21
111.178
  0
LINE
  8
0
 10
25.1453
 20
111.178
 11
24.8825
 21
111.145
  0
LINE
  8
0
 10
24.8825
 20
111.145
 11
-24.8825
 21
111.145
  0
ENDSEC
  0
SECTION
  2
OBJECTS
  0
DICTIONARY
  0
ENDSEC
  0
EOF
