<?xml version="1.0" standalone="no"?>
<!DOCTYPE svg PUBLIC "-//W3C//DTD SVG 1.1//EN" "http://www.w3.org/Graphics/SVG/1.1/DTD/svg11.dtd">
<svg width="16mm" height="369mm" viewBox="-8 -468 16 369" xmlns="http://www.w3.org/2000/svg" version="1.1">
<title>OpenSCAD Model</title>
<path d="
M 3.4369,-288.089 L 4.04507,-288.245 L 4.62889,-288.476 L 5.17912,-288.778 L 5.68712,-289.147 L 6.14484,-289.577
 L 6.54507,-290.061 L 6.88153,-290.591 L 7.14888,-291.159 L 7.34291,-291.757 L 7.46057,-292.373 L 7.5,-293
 L 7.5,-463 L 7.46057,-463.627 L 7.34291,-464.243 L 7.14888,-464.841 L 6.88153,-465.409 L 6.54507,-465.939
 L 6.14484,-466.423 L 5.68712,-466.853 L 5.17912,-467.222 L 4.62889,-467.524 L 4.04507,-467.755 L 3.4369,-467.911
 L 2.81395,-467.99 L -2.81395,-467.99 L -3.4369,-467.911 L -4.04507,-467.755 L -4.62889,-467.524 L -5.17912,-467.222
 L -5.68712,-466.853 L -6.14484,-466.423 L -6.54507,-465.939 L -6.88153,-465.409 L -7.14888,-464.841 L -7.34291,-464.243
 L -7.46057,-463.627 L -7.5,-463 L -7.5,-293 L -7.46057,-292.373 L -7.34291,-291.757 L -7.14888,-291.159
 L -6.88153,-290.591 L -6.54507,-290.061 L -6.14484,-289.577 L -5.68712,-289.147 L -5.17912,-288.778 L -4.62889,-288.476
 L -4.04507,-288.245 L -3.4369,-288.089 L -2.81395,-288.01 L 2.81395,-288.01 z
M 3.4369,-99.0886 L 4.04507,-99.2447 L 4.62889,-99.4759 L 5.17912,-99.7784 L 5.68712,-100.147 L 6.14484,-100.577
 L 6.54507,-101.061 L 6.88153,-101.591 L 7.14888,-102.159 L 7.34291,-102.757 L 7.46057,-103.373 L 7.5,-104
 L 7.5,-274 L 7.46057,-274.627 L 7.34291,-275.243 L 7.14888,-275.841 L 6.88153,-276.409 L 6.54507,-276.939
 L 6.14484,-277.423 L 5.68712,-277.853 L 5.17912,-278.222 L 4.62889,-278.524 L 4.04507,-278.755 L 3.4369,-278.911
 L 2.81395,-278.99 L -2.81395,-278.99 L -3.4369,-278.911 L -4.04507,-278.755 L -4.62889,-278.524 L -5.17912,-278.222
 L -5.68712,-277.853 L -6.14484,-277.423 L -6.54507,-276.939 L -6.88153,-276.409 L -7.14888,-275.841 L -7.34291,-275.243
 L -7.46057,-274.627 L -7.5,-274 L -7.5,-104 L -7.46057,-103.373 L -7.34291,-102.757 L -7.14888,-102.159
 L -6.88153,-101.591 L -6.54507,-101.061 L -6.14484,-100.577 L -5.68712,-100.147 L -5.17912,-99.7784 L -4.62889,-99.4759
 L -4.04507,-99.2447 L -3.4369,-99.0886 L -2.81395,-99.0099 L 2.81395,-99.0099 z
M -0.113022,-269.704 L -0.33728,-269.732 L -0.556229,-269.788 L -0.766388,-269.871 L -0.964478,-269.98 L -1.14735,-270.113
 L -1.31213,-270.268 L -1.45622,-270.442 L -1.57735,-270.633 L -1.67358,-270.837 L -1.74344,-271.052 L -1.7858,-271.274
 L -1.79999,-271.5 L -1.7858,-271.726 L -1.74344,-271.948 L -1.67358,-272.163 L -1.57735,-272.367 L -1.45622,-272.558
 L -1.31213,-272.732 L -1.14735,-272.887 L -0.964478,-273.02 L -0.766388,-273.129 L -0.556229,-273.212 L -0.33728,-273.268
 L -0.113022,-273.296 L 0.113022,-273.296 L 0.33728,-273.268 L 0.556229,-273.212 L 0.766388,-273.129 L 0.964478,-273.02
 L 1.14735,-272.887 L 1.31213,-272.732 L 1.45622,-272.558 L 1.57735,-272.367 L 1.67358,-272.163 L 1.74344,-271.948
 L 1.7858,-271.726 L 1.79999,-271.5 L 1.7858,-271.274 L 1.74344,-271.052 L 1.67358,-270.837 L 1.57735,-270.633
 L 1.45622,-270.442 L 1.31213,-270.268 L 1.14735,-270.113 L 0.964478,-269.98 L 0.766388,-269.871 L 0.556229,-269.788
 L 0.33728,-269.732 L 0.113022,-269.704 z
M -0.113022,-104.704 L -0.33728,-104.732 L -0.556229,-104.788 L -0.766388,-104.871 L -0.964478,-104.98 L -1.14735,-105.113
 L -1.31213,-105.268 L -1.45622,-105.442 L -1.57735,-105.633 L -1.67358,-105.837 L -1.74344,-106.052 L -1.7858,-106.274
 L -1.79999,-106.5 L -1.7858,-106.726 L -1.74344,-106.948 L -1.67358,-107.163 L -1.57735,-107.367 L -1.45622,-107.558
 L -1.31213,-107.732 L -1.14735,-107.887 L -0.964478,-108.02 L -0.766388,-108.129 L -0.556229,-108.212 L -0.33728,-108.268
 L -0.113022,-108.296 L 0.113022,-108.296 L 0.33728,-108.268 L 0.556229,-108.212 L 0.766388,-108.129 L 0.964478,-108.02
 L 1.14735,-107.887 L 1.31213,-107.732 L 1.45622,-107.558 L 1.57735,-107.367 L 1.67358,-107.163 L 1.74344,-106.948
 L 1.7858,-106.726 L 1.79999,-106.5 L 1.7858,-106.274 L 1.74344,-106.052 L 1.67358,-105.837 L 1.57735,-105.633
 L 1.45622,-105.442 L 1.31213,-105.268 L 1.14735,-105.113 L 0.964478,-104.98 L 0.766388,-104.871 L 0.556229,-104.788
 L 0.33728,-104.732 L 0.113022,-104.704 z
" stroke="black" fill="lightgray" stroke-width="0.5"/>
</svg>
