<?xml version="1.0" standalone="no"?>
<!DOCTYPE svg PUBLIC "-//W3C//DTD SVG 1.1//EN" "http://www.w3.org/Graphics/SVG/1.1/DTD/svg11.dtd">
<svg width="46mm" height="220mm" viewBox="-23 -281 46 220" xmlns="http://www.w3.org/2000/svg" version="1.1">
<title>OpenSCAD Model</title>
<path d="
M 18.4369,-175.589 L 19.0451,-175.745 L 19.6289,-175.976 L 20.1791,-176.278 L 20.6871,-176.647 L 21.1448,-177.077
 L 21.5451,-177.561 L 21.8815,-178.091 L 22.1489,-178.659 L 22.3429,-179.257 L 22.4606,-179.873 L 22.5,-180.5
 L 22.5,-275.5 L 22.4606,-276.127 L 22.3429,-276.743 L 22.1489,-277.341 L 21.8815,-277.909 L 21.5451,-278.439
 L 21.1448,-278.923 L 20.6871,-279.353 L 20.1791,-279.722 L 19.6289,-280.024 L 19.0451,-280.255 L 18.4369,-280.411
 L 17.8139,-280.49 L -17.8139,-280.49 L -18.4369,-280.411 L -19.0451,-280.255 L -19.6289,-280.024 L -20.1791,-279.722
 L -20.6871,-279.353 L -21.1448,-278.923 L -21.5451,-278.439 L -21.8815,-277.909 L -22.1489,-277.341 L -22.3429,-276.743
 L -22.4606,-276.127 L -22.5,-275.5 L -22.5,-180.5 L -22.4606,-179.873 L -22.3429,-179.257 L -22.1489,-178.659
 L -21.8815,-178.091 L -21.5451,-177.561 L -21.1448,-177.077 L -20.6871,-176.647 L -20.1791,-176.278 L -19.6289,-175.976
 L -19.0451,-175.745 L -18.4369,-175.589 L -17.8139,-175.51 L 17.8139,-175.51 z
M 18.4369,-61.5886 L 19.0451,-61.7447 L 19.6289,-61.9759 L 20.1791,-62.2784 L 20.6871,-62.6474 L 21.1448,-63.0773
 L 21.5451,-63.5611 L 21.8815,-64.0912 L 22.1489,-64.6594 L 22.3429,-65.2566 L 22.4606,-65.8733 L 22.5,-66.5
 L 22.5,-161.5 L 22.4606,-162.127 L 22.3429,-162.743 L 22.1489,-163.341 L 21.8815,-163.909 L 21.5451,-164.439
 L 21.1448,-164.923 L 20.6871,-165.353 L 20.1791,-165.722 L 19.6289,-166.024 L 19.0451,-166.255 L 18.4369,-166.411
 L 17.8139,-166.49 L -17.8139,-166.49 L -18.4369,-166.411 L -19.0451,-166.255 L -19.6289,-166.024 L -20.1791,-165.722
 L -20.6871,-165.353 L -21.1448,-164.923 L -21.5451,-164.439 L -21.8815,-163.909 L -22.1489,-163.341 L -22.3429,-162.743
 L -22.4606,-162.127 L -22.5,-161.5 L -22.5,-66.5 L -22.4606,-65.8733 L -22.3429,-65.2566 L -22.1489,-64.6594
 L -21.8815,-64.0912 L -21.5451,-63.5611 L -21.1448,-63.0773 L -20.6871,-62.6474 L -20.1791,-62.2784 L -19.6289,-61.9759
 L -19.0451,-61.7447 L -18.4369,-61.5886 L -17.8139,-61.5099 L 17.8139,-61.5099 z
M 14.887,-157.204 L 14.6627,-157.232 L 14.4438,-157.288 L 14.2336,-157.371 L 14.0355,-157.48 L 13.8526,-157.613
 L 13.6879,-157.768 L 13.5438,-157.942 L 13.4226,-158.133 L 13.3264,-158.337 L 13.2565,-158.552 L 13.2142,-158.774
 L 13.2,-159 L 13.2142,-159.226 L 13.2565,-159.448 L 13.3264,-159.663 L 13.4226,-159.867 L 13.5438,-160.058
 L 13.6879,-160.232 L 13.8526,-160.387 L 14.0355,-160.52 L 14.2336,-160.629 L 14.4438,-160.712 L 14.6627,-160.768
 L 14.887,-160.796 L 15.113,-160.796 L 15.3373,-160.768 L 15.5562,-160.712 L 15.7664,-160.629 L 15.9645,-160.52
 L 16.1474,-160.387 L 16.3121,-160.232 L 16.4562,-160.058 L 16.5773,-159.867 L 16.6736,-159.663 L 16.7434,-159.448
 L 16.7858,-159.226 L 16.8,-159 L 16.7858,-158.774 L 16.7434,-158.552 L 16.6736,-158.337 L 16.5773,-158.133
 L 16.4562,-157.942 L 16.3121,-157.768 L 16.1474,-157.613 L 15.9645,-157.48 L 15.7664,-157.371 L 15.5562,-157.288
 L 15.3373,-157.232 L 15.113,-157.204 z
M -15.113,-157.204 L -15.3373,-157.232 L -15.5562,-157.288 L -15.7664,-157.371 L -15.9645,-157.48 L -16.1474,-157.613
 L -16.3121,-157.768 L -16.4562,-157.942 L -16.5773,-158.133 L -16.6736,-158.337 L -16.7434,-158.552 L -16.7858,-158.774
 L -16.8,-159 L -16.7858,-159.226 L -16.7434,-159.448 L -16.6736,-159.663 L -16.5773,-159.867 L -16.4562,-160.058
 L -16.3121,-160.232 L -16.1474,-160.387 L -15.9645,-160.52 L -15.7664,-160.629 L -15.5562,-160.712 L -15.3373,-160.768
 L -15.113,-160.796 L -14.887,-160.796 L -14.6627,-160.768 L -14.4438,-160.712 L -14.2336,-160.629 L -14.0355,-160.52
 L -13.8526,-160.387 L -13.6879,-160.232 L -13.5438,-160.058 L -13.4226,-159.867 L -13.3264,-159.663 L -13.2565,-159.448
 L -13.2142,-159.226 L -13.2,-159 L -13.2142,-158.774 L -13.2565,-158.552 L -13.3264,-158.337 L -13.4226,-158.133
 L -13.5438,-157.942 L -13.6879,-157.768 L -13.8526,-157.613 L -14.0355,-157.48 L -14.2336,-157.371 L -14.4438,-157.288
 L -14.6627,-157.232 L -14.887,-157.204 z
M 14.887,-67.2036 L 14.6627,-67.2319 L 14.4438,-67.2881 L 14.2336,-67.3713 L 14.0355,-67.4802 L 13.8526,-67.6131
 L 13.6879,-67.7678 L 13.5438,-67.942 L 13.4226,-68.1328 L 13.3264,-68.3374 L 13.2565,-68.5524 L 13.2142,-68.7744
 L 13.2,-69 L 13.2142,-69.2256 L 13.2565,-69.4476 L 13.3264,-69.6626 L 13.4226,-69.8672 L 13.5438,-70.058
 L 13.6879,-70.2322 L 13.8526,-70.3869 L 14.0355,-70.5198 L 14.2336,-70.6287 L 14.4438,-70.7119 L 14.6627,-70.7681
 L 14.887,-70.7964 L 15.113,-70.7964 L 15.3373,-70.7681 L 15.5562,-70.7119 L 15.7664,-70.6287 L 15.9645,-70.5198
 L 16.1474,-70.3869 L 16.3121,-70.2322 L 16.4562,-70.058 L 16.5773,-69.8672 L 16.6736,-69.6626 L 16.7434,-69.4476
 L 16.7858,-69.2256 L 16.8,-69 L 16.7858,-68.7744 L 16.7434,-68.5524 L 16.6736,-68.3374 L 16.5773,-68.1328
 L 16.4562,-67.942 L 16.3121,-67.7678 L 16.1474,-67.6131 L 15.9645,-67.4802 L 15.7664,-67.3713 L 15.5562,-67.2881
 L 15.3373,-67.2319 L 15.113,-67.2036 z
M -15.113,-67.2036 L -15.3373,-67.2319 L -15.5562,-67.2881 L -15.7664,-67.3713 L -15.9645,-67.4802 L -16.1474,-67.6131
 L -16.3121,-67.7678 L -16.4562,-67.942 L -16.5773,-68.1328 L -16.6736,-68.3374 L -16.7434,-68.5524 L -16.7858,-68.7744
 L -16.8,-69 L -16.7858,-69.2256 L -16.7434,-69.4476 L -16.6736,-69.6626 L -16.5773,-69.8672 L -16.4562,-70.058
 L -16.3121,-70.2322 L -16.1474,-70.3869 L -15.9645,-70.5198 L -15.7664,-70.6287 L -15.5562,-70.7119 L -15.3373,-70.7681
 L -15.113,-70.7964 L -14.887,-70.7964 L -14.6627,-70.7681 L -14.4438,-70.7119 L -14.2336,-70.6287 L -14.0355,-70.5198
 L -13.8526,-70.3869 L -13.6879,-70.2322 L -13.5438,-70.058 L -13.4226,-69.8672 L -13.3264,-69.6626 L -13.2565,-69.4476
 L -13.2142,-69.2256 L -13.2,-69 L -13.2142,-68.7744 L -13.2565,-68.5524 L -13.3264,-68.3374 L -13.4226,-68.1328
 L -13.5438,-67.942 L -13.6879,-67.7678 L -13.8526,-67.6131 L -14.0355,-67.4802 L -14.2336,-67.3713 L -14.4438,-67.2881
 L -14.6627,-67.2319 L -14.887,-67.2036 z
" stroke="black" fill="lightgray" stroke-width="0.5"/>
</svg>
