  0
SECTION
  2
BLOCKS
  0
ENDSEC
  0
SECTION
  2
ENTITIES
  0
LINE
  8
0
 10
25.9369
 20
591.089
 11
26.5451
 21
591.245
  0
LINE
  8
0
 10
26.5451
 20
591.245
 11
27.1289
 21
591.476
  0
LINE
  8
0
 10
27.1289
 20
591.476
 11
27.6791
 21
591.778
  0
LINE
  8
0
 10
27.6791
 20
591.778
 11
28.1871
 21
592.147
  0
LINE
  8
0
 10
28.1871
 20
592.147
 11
28.6448
 21
592.577
  0
LINE
  8
0
 10
28.6448
 20
592.577
 11
29.0451
 21
593.061
  0
LINE
  8
0
 10
29.0451
 20
593.061
 11
29.3815
 21
593.591
  0
LINE
  8
0
 10
29.3815
 20
593.591
 11
29.6489
 21
594.159
  0
LINE
  8
0
 10
29.6489
 20
594.159
 11
29.8429
 21
594.757
  0
LINE
  8
0
 10
29.8429
 20
594.757
 11
29.9606
 21
595.373
  0
LINE
  8
0
 10
29.9606
 20
595.373
 11
30
 21
596
  0
LINE
  8
0
 10
30
 20
596
 11
30
 21
646
  0
LINE
  8
0
 10
30
 20
646
 11
29.9606
 21
646.627
  0
LINE
  8
0
 10
29.9606
 20
646.627
 11
29.8429
 21
647.243
  0
LINE
  8
0
 10
29.8429
 20
647.243
 11
29.6489
 21
647.841
  0
LINE
  8
0
 10
29.6489
 20
647.841
 11
29.3815
 21
648.409
  0
LINE
  8
0
 10
29.3815
 20
648.409
 11
29.0451
 21
648.939
  0
LINE
  8
0
 10
29.0451
 20
648.939
 11
28.6448
 21
649.423
  0
LINE
  8
0
 10
28.6448
 20
649.423
 11
28.1871
 21
649.853
  0
LINE
  8
0
 10
28.1871
 20
649.853
 11
27.6791
 21
650.222
  0
LINE
  8
0
 10
27.6791
 20
650.222
 11
27.1289
 21
650.524
  0
LINE
  8
0
 10
27.1289
 20
650.524
 11
26.5451
 21
650.755
  0
LINE
  8
0
 10
26.5451
 20
650.755
 11
25.9369
 21
650.911
  0
LINE
  8
0
 10
25.9369
 20
650.911
 11
25.3139
 21
650.99
  0
LINE
  8
0
 10
25.3139
 20
650.99
 11
-25.3139
 21
650.99
  0
LINE
  8
0
 10
-25.3139
 20
650.99
 11
-25.9369
 21
650.911
  0
LINE
  8
0
 10
-25.9369
 20
650.911
 11
-26.5451
 21
650.755
  0
LINE
  8
0
 10
-26.5451
 20
650.755
 11
-27.1289
 21
650.524
  0
LINE
  8
0
 10
-27.1289
 20
650.524
 11
-27.6791
 21
650.222
  0
LINE
  8
0
 10
-27.6791
 20
650.222
 11
-28.1871
 21
649.853
  0
LINE
  8
0
 10
-28.1871
 20
649.853
 11
-28.6448
 21
649.423
  0
LINE
  8
0
 10
-28.6448
 20
649.423
 11
-29.0451
 21
648.939
  0
LINE
  8
0
 10
-29.0451
 20
648.939
 11
-29.3815
 21
648.409
  0
LINE
  8
0
 10
-29.3815
 20
648.409
 11
-29.6489
 21
647.841
  0
LINE
  8
0
 10
-29.6489
 20
647.841
 11
-29.8429
 21
647.243
  0
LINE
  8
0
 10
-29.8429
 20
647.243
 11
-29.9606
 21
646.627
  0
LINE
  8
0
 10
-29.9606
 20
646.627
 11
-30
 21
646
  0
LINE
  8
0
 10
-30
 20
646
 11
-30
 21
596
  0
LINE
  8
0
 10
-30
 20
596
 11
-29.9606
 21
595.373
  0
LINE
  8
0
 10
-29.9606
 20
595.373
 11
-29.8429
 21
594.757
  0
LINE
  8
0
 10
-29.8429
 20
594.757
 11
-29.6489
 21
594.159
  0
LINE
  8
0
 10
-29.6489
 20
594.159
 11
-29.3815
 21
593.591
  0
LINE
  8
0
 10
-29.3815
 20
593.591
 11
-29.0451
 21
593.061
  0
LINE
  8
0
 10
-29.0451
 20
593.061
 11
-28.6448
 21
592.577
  0
LINE
  8
0
 10
-28.6448
 20
592.577
 11
-28.1871
 21
592.147
  0
LINE
  8
0
 10
-28.1871
 20
592.147
 11
-27.6791
 21
591.778
  0
LINE
  8
0
 10
-27.6791
 20
591.778
 11
-27.1289
 21
591.476
  0
LINE
  8
0
 10
-27.1289
 20
591.476
 11
-26.5451
 21
591.245
  0
LINE
  8
0
 10
-26.5451
 20
591.245
 11
-25.9369
 21
591.089
  0
LINE
  8
0
 10
-25.9369
 20
591.089
 11
-25.3139
 21
591.01
  0
LINE
  8
0
 10
-25.3139
 20
591.01
 11
25.3139
 21
591.01
  0
LINE
  8
0
 10
25.3139
 20
591.01
 11
25.9369
 21
591.089
  0
LINE
  8
0
 10
-25.0482
 20
591.509
 11
-25.6401
 21
591.584
  0
LINE
  8
0
 10
-25.6401
 20
591.584
 11
-26.2178
 21
591.732
  0
LINE
  8
0
 10
-26.2178
 20
591.732
 11
-26.7724
 21
591.952
  0
LINE
  8
0
 10
-26.7724
 20
591.952
 11
-27.2952
 21
592.239
  0
LINE
  8
0
 10
-27.2952
 20
592.239
 11
-27.7778
 21
592.59
  0
LINE
  8
0
 10
-27.7778
 20
592.59
 11
-28.2126
 21
592.998
  0
LINE
  8
0
 10
-28.2126
 20
592.998
 11
-28.5928
 21
593.458
  0
LINE
  8
0
 10
-28.5928
 20
593.458
 11
-28.9124
 21
593.962
  0
LINE
  8
0
 10
-28.9124
 20
593.962
 11
-29.1664
 21
594.501
  0
LINE
  8
0
 10
-29.1664
 20
594.501
 11
-29.3508
 21
595.069
  0
LINE
  8
0
 10
-29.3508
 20
595.069
 11
-29.4625
 21
595.655
  0
LINE
  8
0
 10
-29.4625
 20
595.655
 11
-29.5
 21
596.25
  0
LINE
  8
0
 10
-29.5
 20
596.25
 11
-29.5
 21
645.75
  0
LINE
  8
0
 10
-29.5
 20
645.75
 11
-29.4625
 21
646.345
  0
LINE
  8
0
 10
-29.4625
 20
646.345
 11
-29.3508
 21
646.931
  0
LINE
  8
0
 10
-29.3508
 20
646.931
 11
-29.1664
 21
647.499
  0
LINE
  8
0
 10
-29.1664
 20
647.499
 11
-28.9124
 21
648.038
  0
LINE
  8
0
 10
-28.9124
 20
648.038
 11
-28.5928
 21
648.542
  0
LINE
  8
0
 10
-28.5928
 20
648.542
 11
-28.2126
 21
649.002
  0
LINE
  8
0
 10
-28.2126
 20
649.002
 11
-27.7778
 21
649.41
  0
LINE
  8
0
 10
-27.7778
 20
649.41
 11
-27.2952
 21
649.761
  0
LINE
  8
0
 10
-27.2952
 20
649.761
 11
-26.7724
 21
650.048
  0
LINE
  8
0
 10
-26.7724
 20
650.048
 11
-26.2178
 21
650.268
  0
LINE
  8
0
 10
-26.2178
 20
650.268
 11
-25.6401
 21
650.416
  0
LINE
  8
0
 10
-25.6401
 20
650.416
 11
-25.0482
 21
650.491
  0
LINE
  8
0
 10
-25.0482
 20
650.491
 11
25.0482
 21
650.491
  0
LINE
  8
0
 10
25.0482
 20
650.491
 11
25.6401
 21
650.416
  0
LINE
  8
0
 10
25.6401
 20
650.416
 11
26.2178
 21
650.268
  0
LINE
  8
0
 10
26.2178
 20
650.268
 11
26.7724
 21
650.048
  0
LINE
  8
0
 10
26.7724
 20
650.048
 11
27.2952
 21
649.761
  0
LINE
  8
0
 10
27.2952
 20
649.761
 11
27.7778
 21
649.41
  0
LINE
  8
0
 10
27.7778
 20
649.41
 11
28.2126
 21
649.002
  0
LINE
  8
0
 10
28.2126
 20
649.002
 11
28.5928
 21
648.542
  0
LINE
  8
0
 10
28.5928
 20
648.542
 11
28.9124
 21
648.038
  0
LINE
  8
0
 10
28.9124
 20
648.038
 11
29.1664
 21
647.499
  0
LINE
  8
0
 10
29.1664
 20
647.499
 11
29.3508
 21
646.931
  0
LINE
  8
0
 10
29.3508
 20
646.931
 11
29.4625
 21
646.345
  0
LINE
  8
0
 10
29.4625
 20
646.345
 11
29.5
 21
645.75
  0
LINE
  8
0
 10
29.5
 20
645.75
 11
29.5
 21
596.25
  0
LINE
  8
0
 10
29.5
 20
596.25
 11
29.4625
 21
595.655
  0
LINE
  8
0
 10
29.4625
 20
595.655
 11
29.3508
 21
595.069
  0
LINE
  8
0
 10
29.3508
 20
595.069
 11
29.1664
 21
594.501
  0
LINE
  8
0
 10
29.1664
 20
594.501
 11
28.9124
 21
593.962
  0
LINE
  8
0
 10
28.9124
 20
593.962
 11
28.5928
 21
593.458
  0
LINE
  8
0
 10
28.5928
 20
593.458
 11
28.2126
 21
592.998
  0
LINE
  8
0
 10
28.2126
 20
592.998
 11
27.7778
 21
592.59
  0
LINE
  8
0
 10
27.7778
 20
592.59
 11
27.2952
 21
592.239
  0
LINE
  8
0
 10
27.2952
 20
592.239
 11
26.7724
 21
591.952
  0
LINE
  8
0
 10
26.7724
 20
591.952
 11
26.2178
 21
591.732
  0
LINE
  8
0
 10
26.2178
 20
591.732
 11
25.6401
 21
591.584
  0
LINE
  8
0
 10
25.6401
 20
591.584
 11
25.0482
 21
591.509
  0
LINE
  8
0
 10
25.0482
 20
591.509
 11
-25.0482
 21
591.509
  0
LINE
  8
0
 10
25.9369
 20
522.089
 11
26.5451
 21
522.245
  0
LINE
  8
0
 10
26.5451
 20
522.245
 11
27.1289
 21
522.476
  0
LINE
  8
0
 10
27.1289
 20
522.476
 11
27.6791
 21
522.778
  0
LINE
  8
0
 10
27.6791
 20
522.778
 11
28.1871
 21
523.147
  0
LINE
  8
0
 10
28.1871
 20
523.147
 11
28.6448
 21
523.577
  0
LINE
  8
0
 10
28.6448
 20
523.577
 11
29.0451
 21
524.061
  0
LINE
  8
0
 10
29.0451
 20
524.061
 11
29.3815
 21
524.591
  0
LINE
  8
0
 10
29.3815
 20
524.591
 11
29.6489
 21
525.159
  0
LINE
  8
0
 10
29.6489
 20
525.159
 11
29.8429
 21
525.757
  0
LINE
  8
0
 10
29.8429
 20
525.757
 11
29.9606
 21
526.373
  0
LINE
  8
0
 10
29.9606
 20
526.373
 11
30
 21
527
  0
LINE
  8
0
 10
30
 20
527
 11
30
 21
577
  0
LINE
  8
0
 10
30
 20
577
 11
29.9606
 21
577.627
  0
LINE
  8
0
 10
29.9606
 20
577.627
 11
29.8429
 21
578.243
  0
LINE
  8
0
 10
29.8429
 20
578.243
 11
29.6489
 21
578.841
  0
LINE
  8
0
 10
29.6489
 20
578.841
 11
29.3815
 21
579.409
  0
LINE
  8
0
 10
29.3815
 20
579.409
 11
29.0451
 21
579.939
  0
LINE
  8
0
 10
29.0451
 20
579.939
 11
28.6448
 21
580.423
  0
LINE
  8
0
 10
28.6448
 20
580.423
 11
28.1871
 21
580.853
  0
LINE
  8
0
 10
28.1871
 20
580.853
 11
27.6791
 21
581.222
  0
LINE
  8
0
 10
27.6791
 20
581.222
 11
27.1289
 21
581.524
  0
LINE
  8
0
 10
27.1289
 20
581.524
 11
26.5451
 21
581.755
  0
LINE
  8
0
 10
26.5451
 20
581.755
 11
25.9369
 21
581.911
  0
LINE
  8
0
 10
25.9369
 20
581.911
 11
25.3139
 21
581.99
  0
LINE
  8
0
 10
25.3139
 20
581.99
 11
-25.3139
 21
581.99
  0
LINE
  8
0
 10
-25.3139
 20
581.99
 11
-25.9369
 21
581.911
  0
LINE
  8
0
 10
-25.9369
 20
581.911
 11
-26.5451
 21
581.755
  0
LINE
  8
0
 10
-26.5451
 20
581.755
 11
-27.1289
 21
581.524
  0
LINE
  8
0
 10
-27.1289
 20
581.524
 11
-27.6791
 21
581.222
  0
LINE
  8
0
 10
-27.6791
 20
581.222
 11
-28.1871
 21
580.853
  0
LINE
  8
0
 10
-28.1871
 20
580.853
 11
-28.6448
 21
580.423
  0
LINE
  8
0
 10
-28.6448
 20
580.423
 11
-29.0451
 21
579.939
  0
LINE
  8
0
 10
-29.0451
 20
579.939
 11
-29.3815
 21
579.409
  0
LINE
  8
0
 10
-29.3815
 20
579.409
 11
-29.6489
 21
578.841
  0
LINE
  8
0
 10
-29.6489
 20
578.841
 11
-29.8429
 21
578.243
  0
LINE
  8
0
 10
-29.8429
 20
578.243
 11
-29.9606
 21
577.627
  0
LINE
  8
0
 10
-29.9606
 20
577.627
 11
-30
 21
577
  0
LINE
  8
0
 10
-30
 20
577
 11
-30
 21
527
  0
LINE
  8
0
 10
-30
 20
527
 11
-29.9606
 21
526.373
  0
LINE
  8
0
 10
-29.9606
 20
526.373
 11
-29.8429
 21
525.757
  0
LINE
  8
0
 10
-29.8429
 20
525.757
 11
-29.6489
 21
525.159
  0
LINE
  8
0
 10
-29.6489
 20
525.159
 11
-29.3815
 21
524.591
  0
LINE
  8
0
 10
-29.3815
 20
524.591
 11
-29.0451
 21
524.061
  0
LINE
  8
0
 10
-29.0451
 20
524.061
 11
-28.6448
 21
523.577
  0
LINE
  8
0
 10
-28.6448
 20
523.577
 11
-28.1871
 21
523.147
  0
LINE
  8
0
 10
-28.1871
 20
523.147
 11
-27.6791
 21
522.778
  0
LINE
  8
0
 10
-27.6791
 20
522.778
 11
-27.1289
 21
522.476
  0
LINE
  8
0
 10
-27.1289
 20
522.476
 11
-26.5451
 21
522.245
  0
LINE
  8
0
 10
-26.5451
 20
522.245
 11
-25.9369
 21
522.089
  0
LINE
  8
0
 10
-25.9369
 20
522.089
 11
-25.3139
 21
522.01
  0
LINE
  8
0
 10
-25.3139
 20
522.01
 11
25.3139
 21
522.01
  0
LINE
  8
0
 10
25.3139
 20
522.01
 11
25.9369
 21
522.089
  0
LINE
  8
0
 10
-25.0482
 20
522.509
 11
-25.6401
 21
522.584
  0
LINE
  8
0
 10
-25.6401
 20
522.584
 11
-26.2178
 21
522.732
  0
LINE
  8
0
 10
-26.2178
 20
522.732
 11
-26.7724
 21
522.952
  0
LINE
  8
0
 10
-26.7724
 20
522.952
 11
-27.2952
 21
523.239
  0
LINE
  8
0
 10
-27.2952
 20
523.239
 11
-27.7778
 21
523.59
  0
LINE
  8
0
 10
-27.7778
 20
523.59
 11
-28.2126
 21
523.998
  0
LINE
  8
0
 10
-28.2126
 20
523.998
 11
-28.5928
 21
524.458
  0
LINE
  8
0
 10
-28.5928
 20
524.458
 11
-28.9124
 21
524.962
  0
LINE
  8
0
 10
-28.9124
 20
524.962
 11
-29.1664
 21
525.501
  0
LINE
  8
0
 10
-29.1664
 20
525.501
 11
-29.3508
 21
526.069
  0
LINE
  8
0
 10
-29.3508
 20
526.069
 11
-29.4625
 21
526.655
  0
LINE
  8
0
 10
-29.4625
 20
526.655
 11
-29.5
 21
527.25
  0
LINE
  8
0
 10
-29.5
 20
527.25
 11
-29.5
 21
576.75
  0
LINE
  8
0
 10
-29.5
 20
576.75
 11
-29.4625
 21
577.345
  0
LINE
  8
0
 10
-29.4625
 20
577.345
 11
-29.3508
 21
577.931
  0
LINE
  8
0
 10
-29.3508
 20
577.931
 11
-29.1664
 21
578.499
  0
LINE
  8
0
 10
-29.1664
 20
578.499
 11
-28.9124
 21
579.038
  0
LINE
  8
0
 10
-28.9124
 20
579.038
 11
-28.5928
 21
579.542
  0
LINE
  8
0
 10
-28.5928
 20
579.542
 11
-28.2126
 21
580.002
  0
LINE
  8
0
 10
-28.2126
 20
580.002
 11
-27.7778
 21
580.41
  0
LINE
  8
0
 10
-27.7778
 20
580.41
 11
-27.2952
 21
580.761
  0
LINE
  8
0
 10
-27.2952
 20
580.761
 11
-26.7724
 21
581.048
  0
LINE
  8
0
 10
-26.7724
 20
581.048
 11
-26.2178
 21
581.268
  0
LINE
  8
0
 10
-26.2178
 20
581.268
 11
-25.6401
 21
581.416
  0
LINE
  8
0
 10
-25.6401
 20
581.416
 11
-25.0482
 21
581.491
  0
LINE
  8
0
 10
-25.0482
 20
581.491
 11
25.0482
 21
581.491
  0
LINE
  8
0
 10
25.0482
 20
581.491
 11
25.6401
 21
581.416
  0
LINE
  8
0
 10
25.6401
 20
581.416
 11
26.2178
 21
581.268
  0
LINE
  8
0
 10
26.2178
 20
581.268
 11
26.7724
 21
581.048
  0
LINE
  8
0
 10
26.7724
 20
581.048
 11
27.2952
 21
580.761
  0
LINE
  8
0
 10
27.2952
 20
580.761
 11
27.7778
 21
580.41
  0
LINE
  8
0
 10
27.7778
 20
580.41
 11
28.2126
 21
580.002
  0
LINE
  8
0
 10
28.2126
 20
580.002
 11
28.5928
 21
579.542
  0
LINE
  8
0
 10
28.5928
 20
579.542
 11
28.9124
 21
579.038
  0
LINE
  8
0
 10
28.9124
 20
579.038
 11
29.1664
 21
578.499
  0
LINE
  8
0
 10
29.1664
 20
578.499
 11
29.3508
 21
577.931
  0
LINE
  8
0
 10
29.3508
 20
577.931
 11
29.4625
 21
577.345
  0
LINE
  8
0
 10
29.4625
 20
577.345
 11
29.5
 21
576.75
  0
LINE
  8
0
 10
29.5
 20
576.75
 11
29.5
 21
527.25
  0
LINE
  8
0
 10
29.5
 20
527.25
 11
29.4625
 21
526.655
  0
LINE
  8
0
 10
29.4625
 20
526.655
 11
29.3508
 21
526.069
  0
LINE
  8
0
 10
29.3508
 20
526.069
 11
29.1664
 21
525.501
  0
LINE
  8
0
 10
29.1664
 20
525.501
 11
28.9124
 21
524.962
  0
LINE
  8
0
 10
28.9124
 20
524.962
 11
28.5928
 21
524.458
  0
LINE
  8
0
 10
28.5928
 20
524.458
 11
28.2126
 21
523.998
  0
LINE
  8
0
 10
28.2126
 20
523.998
 11
27.7778
 21
523.59
  0
LINE
  8
0
 10
27.7778
 20
523.59
 11
27.2952
 21
523.239
  0
LINE
  8
0
 10
27.2952
 20
523.239
 11
26.7724
 21
522.952
  0
LINE
  8
0
 10
26.7724
 20
522.952
 11
26.2178
 21
522.732
  0
LINE
  8
0
 10
26.2178
 20
522.732
 11
25.6401
 21
522.584
  0
LINE
  8
0
 10
25.6401
 20
522.584
 11
25.0482
 21
522.509
  0
LINE
  8
0
 10
25.0482
 20
522.509
 11
-25.0482
 21
522.509
  0
LINE
  8
0
 10
25.9369
 20
453.089
 11
26.5451
 21
453.245
  0
LINE
  8
0
 10
26.5451
 20
453.245
 11
27.1289
 21
453.476
  0
LINE
  8
0
 10
27.1289
 20
453.476
 11
27.6791
 21
453.778
  0
LINE
  8
0
 10
27.6791
 20
453.778
 11
28.1871
 21
454.147
  0
LINE
  8
0
 10
28.1871
 20
454.147
 11
28.6448
 21
454.577
  0
LINE
  8
0
 10
28.6448
 20
454.577
 11
29.0451
 21
455.061
  0
LINE
  8
0
 10
29.0451
 20
455.061
 11
29.3815
 21
455.591
  0
LINE
  8
0
 10
29.3815
 20
455.591
 11
29.6489
 21
456.159
  0
LINE
  8
0
 10
29.6489
 20
456.159
 11
29.8429
 21
456.757
  0
LINE
  8
0
 10
29.8429
 20
456.757
 11
29.9606
 21
457.373
  0
LINE
  8
0
 10
29.9606
 20
457.373
 11
30
 21
458
  0
LINE
  8
0
 10
30
 20
458
 11
30
 21
508
  0
LINE
  8
0
 10
30
 20
508
 11
29.9606
 21
508.627
  0
LINE
  8
0
 10
29.9606
 20
508.627
 11
29.8429
 21
509.243
  0
LINE
  8
0
 10
29.8429
 20
509.243
 11
29.6489
 21
509.841
  0
LINE
  8
0
 10
29.6489
 20
509.841
 11
29.3815
 21
510.409
  0
LINE
  8
0
 10
29.3815
 20
510.409
 11
29.0451
 21
510.939
  0
LINE
  8
0
 10
29.0451
 20
510.939
 11
28.6448
 21
511.423
  0
LINE
  8
0
 10
28.6448
 20
511.423
 11
28.1871
 21
511.853
  0
LINE
  8
0
 10
28.1871
 20
511.853
 11
27.6791
 21
512.222
  0
LINE
  8
0
 10
27.6791
 20
512.222
 11
27.1289
 21
512.524
  0
LINE
  8
0
 10
27.1289
 20
512.524
 11
26.5451
 21
512.755
  0
LINE
  8
0
 10
26.5451
 20
512.755
 11
25.9369
 21
512.911
  0
LINE
  8
0
 10
25.9369
 20
512.911
 11
25.3139
 21
512.99
  0
LINE
  8
0
 10
25.3139
 20
512.99
 11
-25.3139
 21
512.99
  0
LINE
  8
0
 10
-25.3139
 20
512.99
 11
-25.9369
 21
512.911
  0
LINE
  8
0
 10
-25.9369
 20
512.911
 11
-26.5451
 21
512.755
  0
LINE
  8
0
 10
-26.5451
 20
512.755
 11
-27.1289
 21
512.524
  0
LINE
  8
0
 10
-27.1289
 20
512.524
 11
-27.6791
 21
512.222
  0
LINE
  8
0
 10
-27.6791
 20
512.222
 11
-28.1871
 21
511.853
  0
LINE
  8
0
 10
-28.1871
 20
511.853
 11
-28.6448
 21
511.423
  0
LINE
  8
0
 10
-28.6448
 20
511.423
 11
-29.0451
 21
510.939
  0
LINE
  8
0
 10
-29.0451
 20
510.939
 11
-29.3815
 21
510.409
  0
LINE
  8
0
 10
-29.3815
 20
510.409
 11
-29.6489
 21
509.841
  0
LINE
  8
0
 10
-29.6489
 20
509.841
 11
-29.8429
 21
509.243
  0
LINE
  8
0
 10
-29.8429
 20
509.243
 11
-29.9606
 21
508.627
  0
LINE
  8
0
 10
-29.9606
 20
508.627
 11
-30
 21
508
  0
LINE
  8
0
 10
-30
 20
508
 11
-30
 21
458
  0
LINE
  8
0
 10
-30
 20
458
 11
-29.9606
 21
457.373
  0
LINE
  8
0
 10
-29.9606
 20
457.373
 11
-29.8429
 21
456.757
  0
LINE
  8
0
 10
-29.8429
 20
456.757
 11
-29.6489
 21
456.159
  0
LINE
  8
0
 10
-29.6489
 20
456.159
 11
-29.3815
 21
455.591
  0
LINE
  8
0
 10
-29.3815
 20
455.591
 11
-29.0451
 21
455.061
  0
LINE
  8
0
 10
-29.0451
 20
455.061
 11
-28.6448
 21
454.577
  0
LINE
  8
0
 10
-28.6448
 20
454.577
 11
-28.1871
 21
454.147
  0
LINE
  8
0
 10
-28.1871
 20
454.147
 11
-27.6791
 21
453.778
  0
LINE
  8
0
 10
-27.6791
 20
453.778
 11
-27.1289
 21
453.476
  0
LINE
  8
0
 10
-27.1289
 20
453.476
 11
-26.5451
 21
453.245
  0
LINE
  8
0
 10
-26.5451
 20
453.245
 11
-25.9369
 21
453.089
  0
LINE
  8
0
 10
-25.9369
 20
453.089
 11
-25.3139
 21
453.01
  0
LINE
  8
0
 10
-25.3139
 20
453.01
 11
25.3139
 21
453.01
  0
LINE
  8
0
 10
25.3139
 20
453.01
 11
25.9369
 21
453.089
  0
LINE
  8
0
 10
-25.0482
 20
453.509
 11
-25.6401
 21
453.584
  0
LINE
  8
0
 10
-25.6401
 20
453.584
 11
-26.2178
 21
453.732
  0
LINE
  8
0
 10
-26.2178
 20
453.732
 11
-26.7724
 21
453.952
  0
LINE
  8
0
 10
-26.7724
 20
453.952
 11
-27.2952
 21
454.239
  0
LINE
  8
0
 10
-27.2952
 20
454.239
 11
-27.7778
 21
454.59
  0
LINE
  8
0
 10
-27.7778
 20
454.59
 11
-28.2126
 21
454.998
  0
LINE
  8
0
 10
-28.2126
 20
454.998
 11
-28.5928
 21
455.458
  0
LINE
  8
0
 10
-28.5928
 20
455.458
 11
-28.9124
 21
455.962
  0
LINE
  8
0
 10
-28.9124
 20
455.962
 11
-29.1664
 21
456.501
  0
LINE
  8
0
 10
-29.1664
 20
456.501
 11
-29.3508
 21
457.069
  0
LINE
  8
0
 10
-29.3508
 20
457.069
 11
-29.4625
 21
457.655
  0
LINE
  8
0
 10
-29.4625
 20
457.655
 11
-29.5
 21
458.25
  0
LINE
  8
0
 10
-29.5
 20
458.25
 11
-29.5
 21
507.75
  0
LINE
  8
0
 10
-29.5
 20
507.75
 11
-29.4625
 21
508.345
  0
LINE
  8
0
 10
-29.4625
 20
508.345
 11
-29.3508
 21
508.931
  0
LINE
  8
0
 10
-29.3508
 20
508.931
 11
-29.1664
 21
509.499
  0
LINE
  8
0
 10
-29.1664
 20
509.499
 11
-28.9124
 21
510.038
  0
LINE
  8
0
 10
-28.9124
 20
510.038
 11
-28.5928
 21
510.542
  0
LINE
  8
0
 10
-28.5928
 20
510.542
 11
-28.2126
 21
511.002
  0
LINE
  8
0
 10
-28.2126
 20
511.002
 11
-27.7778
 21
511.41
  0
LINE
  8
0
 10
-27.7778
 20
511.41
 11
-27.2952
 21
511.761
  0
LINE
  8
0
 10
-27.2952
 20
511.761
 11
-26.7724
 21
512.048
  0
LINE
  8
0
 10
-26.7724
 20
512.048
 11
-26.2178
 21
512.268
  0
LINE
  8
0
 10
-26.2178
 20
512.268
 11
-25.6401
 21
512.416
  0
LINE
  8
0
 10
-25.6401
 20
512.416
 11
-25.0482
 21
512.491
  0
LINE
  8
0
 10
-25.0482
 20
512.491
 11
25.0482
 21
512.491
  0
LINE
  8
0
 10
25.0482
 20
512.491
 11
25.6401
 21
512.416
  0
LINE
  8
0
 10
25.6401
 20
512.416
 11
26.2178
 21
512.268
  0
LINE
  8
0
 10
26.2178
 20
512.268
 11
26.7724
 21
512.048
  0
LINE
  8
0
 10
26.7724
 20
512.048
 11
27.2952
 21
511.761
  0
LINE
  8
0
 10
27.2952
 20
511.761
 11
27.7778
 21
511.41
  0
LINE
  8
0
 10
27.7778
 20
511.41
 11
28.2126
 21
511.002
  0
LINE
  8
0
 10
28.2126
 20
511.002
 11
28.5928
 21
510.542
  0
LINE
  8
0
 10
28.5928
 20
510.542
 11
28.9124
 21
510.038
  0
LINE
  8
0
 10
28.9124
 20
510.038
 11
29.1664
 21
509.499
  0
LINE
  8
0
 10
29.1664
 20
509.499
 11
29.3508
 21
508.931
  0
LINE
  8
0
 10
29.3508
 20
508.931
 11
29.4625
 21
508.345
  0
LINE
  8
0
 10
29.4625
 20
508.345
 11
29.5
 21
507.75
  0
LINE
  8
0
 10
29.5
 20
507.75
 11
29.5
 21
458.25
  0
LINE
  8
0
 10
29.5
 20
458.25
 11
29.4625
 21
457.655
  0
LINE
  8
0
 10
29.4625
 20
457.655
 11
29.3508
 21
457.069
  0
LINE
  8
0
 10
29.3508
 20
457.069
 11
29.1664
 21
456.501
  0
LINE
  8
0
 10
29.1664
 20
456.501
 11
28.9124
 21
455.962
  0
LINE
  8
0
 10
28.9124
 20
455.962
 11
28.5928
 21
455.458
  0
LINE
  8
0
 10
28.5928
 20
455.458
 11
28.2126
 21
454.998
  0
LINE
  8
0
 10
28.2126
 20
454.998
 11
27.7778
 21
454.59
  0
LINE
  8
0
 10
27.7778
 20
454.59
 11
27.2952
 21
454.239
  0
LINE
  8
0
 10
27.2952
 20
454.239
 11
26.7724
 21
453.952
  0
LINE
  8
0
 10
26.7724
 20
453.952
 11
26.2178
 21
453.732
  0
LINE
  8
0
 10
26.2178
 20
453.732
 11
25.6401
 21
453.584
  0
LINE
  8
0
 10
25.6401
 20
453.584
 11
25.0482
 21
453.509
  0
LINE
  8
0
 10
25.0482
 20
453.509
 11
-25.0482
 21
453.509
  0
LINE
  8
0
 10
25.9369
 20
384.089
 11
26.5451
 21
384.245
  0
LINE
  8
0
 10
26.5451
 20
384.245
 11
27.1289
 21
384.476
  0
LINE
  8
0
 10
27.1289
 20
384.476
 11
27.6791
 21
384.778
  0
LINE
  8
0
 10
27.6791
 20
384.778
 11
28.1871
 21
385.147
  0
LINE
  8
0
 10
28.1871
 20
385.147
 11
28.6448
 21
385.577
  0
LINE
  8
0
 10
28.6448
 20
385.577
 11
29.0451
 21
386.061
  0
LINE
  8
0
 10
29.0451
 20
386.061
 11
29.3815
 21
386.591
  0
LINE
  8
0
 10
29.3815
 20
386.591
 11
29.6489
 21
387.159
  0
LINE
  8
0
 10
29.6489
 20
387.159
 11
29.8429
 21
387.757
  0
LINE
  8
0
 10
29.8429
 20
387.757
 11
29.9606
 21
388.373
  0
LINE
  8
0
 10
29.9606
 20
388.373
 11
30
 21
389
  0
LINE
  8
0
 10
30
 20
389
 11
30
 21
439
  0
LINE
  8
0
 10
30
 20
439
 11
29.9606
 21
439.627
  0
LINE
  8
0
 10
29.9606
 20
439.627
 11
29.8429
 21
440.243
  0
LINE
  8
0
 10
29.8429
 20
440.243
 11
29.6489
 21
440.841
  0
LINE
  8
0
 10
29.6489
 20
440.841
 11
29.3815
 21
441.409
  0
LINE
  8
0
 10
29.3815
 20
441.409
 11
29.0451
 21
441.939
  0
LINE
  8
0
 10
29.0451
 20
441.939
 11
28.6448
 21
442.423
  0
LINE
  8
0
 10
28.6448
 20
442.423
 11
28.1871
 21
442.853
  0
LINE
  8
0
 10
28.1871
 20
442.853
 11
27.6791
 21
443.222
  0
LINE
  8
0
 10
27.6791
 20
443.222
 11
27.1289
 21
443.524
  0
LINE
  8
0
 10
27.1289
 20
443.524
 11
26.5451
 21
443.755
  0
LINE
  8
0
 10
26.5451
 20
443.755
 11
25.9369
 21
443.911
  0
LINE
  8
0
 10
25.9369
 20
443.911
 11
25.3139
 21
443.99
  0
LINE
  8
0
 10
25.3139
 20
443.99
 11
-25.3139
 21
443.99
  0
LINE
  8
0
 10
-25.3139
 20
443.99
 11
-25.9369
 21
443.911
  0
LINE
  8
0
 10
-25.9369
 20
443.911
 11
-26.5451
 21
443.755
  0
LINE
  8
0
 10
-26.5451
 20
443.755
 11
-27.1289
 21
443.524
  0
LINE
  8
0
 10
-27.1289
 20
443.524
 11
-27.6791
 21
443.222
  0
LINE
  8
0
 10
-27.6791
 20
443.222
 11
-28.1871
 21
442.853
  0
LINE
  8
0
 10
-28.1871
 20
442.853
 11
-28.6448
 21
442.423
  0
LINE
  8
0
 10
-28.6448
 20
442.423
 11
-29.0451
 21
441.939
  0
LINE
  8
0
 10
-29.0451
 20
441.939
 11
-29.3815
 21
441.409
  0
LINE
  8
0
 10
-29.3815
 20
441.409
 11
-29.6489
 21
440.841
  0
LINE
  8
0
 10
-29.6489
 20
440.841
 11
-29.8429
 21
440.243
  0
LINE
  8
0
 10
-29.8429
 20
440.243
 11
-29.9606
 21
439.627
  0
LINE
  8
0
 10
-29.9606
 20
439.627
 11
-30
 21
439
  0
LINE
  8
0
 10
-30
 20
439
 11
-30
 21
389
  0
LINE
  8
0
 10
-30
 20
389
 11
-29.9606
 21
388.373
  0
LINE
  8
0
 10
-29.9606
 20
388.373
 11
-29.8429
 21
387.757
  0
LINE
  8
0
 10
-29.8429
 20
387.757
 11
-29.6489
 21
387.159
  0
LINE
  8
0
 10
-29.6489
 20
387.159
 11
-29.3815
 21
386.591
  0
LINE
  8
0
 10
-29.3815
 20
386.591
 11
-29.0451
 21
386.061
  0
LINE
  8
0
 10
-29.0451
 20
386.061
 11
-28.6448
 21
385.577
  0
LINE
  8
0
 10
-28.6448
 20
385.577
 11
-28.1871
 21
385.147
  0
LINE
  8
0
 10
-28.1871
 20
385.147
 11
-27.6791
 21
384.778
  0
LINE
  8
0
 10
-27.6791
 20
384.778
 11
-27.1289
 21
384.476
  0
LINE
  8
0
 10
-27.1289
 20
384.476
 11
-26.5451
 21
384.245
  0
LINE
  8
0
 10
-26.5451
 20
384.245
 11
-25.9369
 21
384.089
  0
LINE
  8
0
 10
-25.9369
 20
384.089
 11
-25.3139
 21
384.01
  0
LINE
  8
0
 10
-25.3139
 20
384.01
 11
25.3139
 21
384.01
  0
LINE
  8
0
 10
25.3139
 20
384.01
 11
25.9369
 21
384.089
  0
LINE
  8
0
 10
-25.0375
 20
384.681
 11
-25.6079
 21
384.753
  0
LINE
  8
0
 10
-25.6079
 20
384.753
 11
-26.1648
 21
384.896
  0
LINE
  8
0
 10
-26.1648
 20
384.896
 11
-26.6994
 21
385.107
  0
LINE
  8
0
 10
-26.6994
 20
385.107
 11
-27.2032
 21
385.384
  0
LINE
  8
0
 10
-27.2032
 20
385.384
 11
-27.6684
 21
385.722
  0
LINE
  8
0
 10
-27.6684
 20
385.722
 11
-28.0875
 21
386.116
  0
LINE
  8
0
 10
-28.0875
 20
386.116
 11
-28.454
 21
386.559
  0
LINE
  8
0
 10
-28.454
 20
386.559
 11
-28.7621
 21
387.044
  0
LINE
  8
0
 10
-28.7621
 20
387.044
 11
-29.0069
 21
387.565
  0
LINE
  8
0
 10
-29.0069
 20
387.565
 11
-29.1846
 21
388.111
  0
LINE
  8
0
 10
-29.1846
 20
388.111
 11
-29.2923
 21
388.676
  0
LINE
  8
0
 10
-29.2923
 20
388.676
 11
-29.3284
 21
389.25
  0
LINE
  8
0
 10
-29.3284
 20
389.25
 11
-29.3284
 21
438.75
  0
LINE
  8
0
 10
-29.3284
 20
438.75
 11
-29.2923
 21
439.324
  0
LINE
  8
0
 10
-29.2923
 20
439.324
 11
-29.1846
 21
439.889
  0
LINE
  8
0
 10
-29.1846
 20
439.889
 11
-29.0069
 21
440.435
  0
LINE
  8
0
 10
-29.0069
 20
440.435
 11
-28.7621
 21
440.956
  0
LINE
  8
0
 10
-28.7621
 20
440.956
 11
-28.454
 21
441.441
  0
LINE
  8
0
 10
-28.454
 20
441.441
 11
-28.0875
 21
441.884
  0
LINE
  8
0
 10
-28.0875
 20
441.884
 11
-27.6684
 21
442.278
  0
LINE
  8
0
 10
-27.6684
 20
442.278
 11
-27.2032
 21
442.616
  0
LINE
  8
0
 10
-27.2032
 20
442.616
 11
-26.6994
 21
442.893
  0
LINE
  8
0
 10
-26.6994
 20
442.893
 11
-26.1648
 21
443.104
  0
LINE
  8
0
 10
-26.1648
 20
443.104
 11
-25.6079
 21
443.247
  0
LINE
  8
0
 10
-25.6079
 20
443.247
 11
-25.0375
 21
443.319
  0
LINE
  8
0
 10
-25.0375
 20
443.319
 11
25.0375
 21
443.319
  0
LINE
  8
0
 10
25.0375
 20
443.319
 11
25.6079
 21
443.247
  0
LINE
  8
0
 10
25.6079
 20
443.247
 11
26.1648
 21
443.104
  0
LINE
  8
0
 10
26.1648
 20
443.104
 11
26.6994
 21
442.893
  0
LINE
  8
0
 10
26.6994
 20
442.893
 11
27.2032
 21
442.616
  0
LINE
  8
0
 10
27.2032
 20
442.616
 11
27.6684
 21
442.278
  0
LINE
  8
0
 10
27.6684
 20
442.278
 11
28.0875
 21
441.884
  0
LINE
  8
0
 10
28.0875
 20
441.884
 11
28.454
 21
441.441
  0
LINE
  8
0
 10
28.454
 20
441.441
 11
28.7621
 21
440.956
  0
LINE
  8
0
 10
28.7621
 20
440.956
 11
29.0069
 21
440.435
  0
LINE
  8
0
 10
29.0069
 20
440.435
 11
29.1846
 21
439.889
  0
LINE
  8
0
 10
29.1846
 20
439.889
 11
29.2923
 21
439.324
  0
LINE
  8
0
 10
29.2923
 20
439.324
 11
29.3284
 21
438.75
  0
LINE
  8
0
 10
29.3284
 20
438.75
 11
29.3284
 21
389.25
  0
LINE
  8
0
 10
29.3284
 20
389.25
 11
29.2923
 21
388.676
  0
LINE
  8
0
 10
29.2923
 20
388.676
 11
29.1846
 21
388.111
  0
LINE
  8
0
 10
29.1846
 20
388.111
 11
29.0069
 21
387.565
  0
LINE
  8
0
 10
29.0069
 20
387.565
 11
28.7621
 21
387.044
  0
LINE
  8
0
 10
28.7621
 20
387.044
 11
28.454
 21
386.559
  0
LINE
  8
0
 10
28.454
 20
386.559
 11
28.0875
 21
386.116
  0
LINE
  8
0
 10
28.0875
 20
386.116
 11
27.6684
 21
385.722
  0
LINE
  8
0
 10
27.6684
 20
385.722
 11
27.2032
 21
385.384
  0
LINE
  8
0
 10
27.2032
 20
385.384
 11
26.6994
 21
385.107
  0
LINE
  8
0
 10
26.6994
 20
385.107
 11
26.1648
 21
384.896
  0
LINE
  8
0
 10
26.1648
 20
384.896
 11
25.6079
 21
384.753
  0
LINE
  8
0
 10
25.6079
 20
384.753
 11
25.0375
 21
384.681
  0
LINE
  8
0
 10
25.0375
 20
384.681
 11
-25.0375
 21
384.681
  0
LINE
  8
0
 10
25.9369
 20
315.089
 11
26.5451
 21
315.245
  0
LINE
  8
0
 10
26.5451
 20
315.245
 11
27.1289
 21
315.476
  0
LINE
  8
0
 10
27.1289
 20
315.476
 11
27.6791
 21
315.778
  0
LINE
  8
0
 10
27.6791
 20
315.778
 11
28.1871
 21
316.147
  0
LINE
  8
0
 10
28.1871
 20
316.147
 11
28.6448
 21
316.577
  0
LINE
  8
0
 10
28.6448
 20
316.577
 11
29.0451
 21
317.061
  0
LINE
  8
0
 10
29.0451
 20
317.061
 11
29.3815
 21
317.591
  0
LINE
  8
0
 10
29.3815
 20
317.591
 11
29.6489
 21
318.159
  0
LINE
  8
0
 10
29.6489
 20
318.159
 11
29.8429
 21
318.757
  0
LINE
  8
0
 10
29.8429
 20
318.757
 11
29.9606
 21
319.373
  0
LINE
  8
0
 10
29.9606
 20
319.373
 11
30
 21
320
  0
LINE
  8
0
 10
30
 20
320
 11
30
 21
370
  0
LINE
  8
0
 10
30
 20
370
 11
29.9606
 21
370.627
  0
LINE
  8
0
 10
29.9606
 20
370.627
 11
29.8429
 21
371.243
  0
LINE
  8
0
 10
29.8429
 20
371.243
 11
29.6489
 21
371.841
  0
LINE
  8
0
 10
29.6489
 20
371.841
 11
29.3815
 21
372.409
  0
LINE
  8
0
 10
29.3815
 20
372.409
 11
29.0451
 21
372.939
  0
LINE
  8
0
 10
29.0451
 20
372.939
 11
28.6448
 21
373.423
  0
LINE
  8
0
 10
28.6448
 20
373.423
 11
28.1871
 21
373.853
  0
LINE
  8
0
 10
28.1871
 20
373.853
 11
27.6791
 21
374.222
  0
LINE
  8
0
 10
27.6791
 20
374.222
 11
27.1289
 21
374.524
  0
LINE
  8
0
 10
27.1289
 20
374.524
 11
26.5451
 21
374.755
  0
LINE
  8
0
 10
26.5451
 20
374.755
 11
25.9369
 21
374.911
  0
LINE
  8
0
 10
25.9369
 20
374.911
 11
25.3139
 21
374.99
  0
LINE
  8
0
 10
25.3139
 20
374.99
 11
-25.3139
 21
374.99
  0
LINE
  8
0
 10
-25.3139
 20
374.99
 11
-25.9369
 21
374.911
  0
LINE
  8
0
 10
-25.9369
 20
374.911
 11
-26.5451
 21
374.755
  0
LINE
  8
0
 10
-26.5451
 20
374.755
 11
-27.1289
 21
374.524
  0
LINE
  8
0
 10
-27.1289
 20
374.524
 11
-27.6791
 21
374.222
  0
LINE
  8
0
 10
-27.6791
 20
374.222
 11
-28.1871
 21
373.853
  0
LINE
  8
0
 10
-28.1871
 20
373.853
 11
-28.6448
 21
373.423
  0
LINE
  8
0
 10
-28.6448
 20
373.423
 11
-29.0451
 21
372.939
  0
LINE
  8
0
 10
-29.0451
 20
372.939
 11
-29.3815
 21
372.409
  0
LINE
  8
0
 10
-29.3815
 20
372.409
 11
-29.6489
 21
371.841
  0
LINE
  8
0
 10
-29.6489
 20
371.841
 11
-29.8429
 21
371.243
  0
LINE
  8
0
 10
-29.8429
 20
371.243
 11
-29.9606
 21
370.627
  0
LINE
  8
0
 10
-29.9606
 20
370.627
 11
-30
 21
370
  0
LINE
  8
0
 10
-30
 20
370
 11
-30
 21
320
  0
LINE
  8
0
 10
-30
 20
320
 11
-29.9606
 21
319.373
  0
LINE
  8
0
 10
-29.9606
 20
319.373
 11
-29.8429
 21
318.757
  0
LINE
  8
0
 10
-29.8429
 20
318.757
 11
-29.6489
 21
318.159
  0
LINE
  8
0
 10
-29.6489
 20
318.159
 11
-29.3815
 21
317.591
  0
LINE
  8
0
 10
-29.3815
 20
317.591
 11
-29.0451
 21
317.061
  0
LINE
  8
0
 10
-29.0451
 20
317.061
 11
-28.6448
 21
316.577
  0
LINE
  8
0
 10
-28.6448
 20
316.577
 11
-28.1871
 21
316.147
  0
LINE
  8
0
 10
-28.1871
 20
316.147
 11
-27.6791
 21
315.778
  0
LINE
  8
0
 10
-27.6791
 20
315.778
 11
-27.1289
 21
315.476
  0
LINE
  8
0
 10
-27.1289
 20
315.476
 11
-26.5451
 21
315.245
  0
LINE
  8
0
 10
-26.5451
 20
315.245
 11
-25.9369
 21
315.089
  0
LINE
  8
0
 10
-25.9369
 20
315.089
 11
-25.3139
 21
315.01
  0
LINE
  8
0
 10
-25.3139
 20
315.01
 11
25.3139
 21
315.01
  0
LINE
  8
0
 10
25.3139
 20
315.01
 11
25.9369
 21
315.089
  0
LINE
  8
0
 10
-24.8825
 20
318.145
 11
-25.1453
 21
318.178
  0
LINE
  8
0
 10
-25.1453
 20
318.178
 11
-25.4019
 21
318.244
  0
LINE
  8
0
 10
-25.4019
 20
318.244
 11
-25.6482
 21
318.341
  0
LINE
  8
0
 10
-25.6482
 20
318.341
 11
-25.8804
 21
318.469
  0
LINE
  8
0
 10
-25.8804
 20
318.469
 11
-26.0947
 21
318.625
  0
LINE
  8
0
 10
-26.0947
 20
318.625
 11
-26.2879
 21
318.806
  0
LINE
  8
0
 10
-26.2879
 20
318.806
 11
-26.4567
 21
319.01
  0
LINE
  8
0
 10
-26.4567
 20
319.01
 11
-26.5987
 21
319.234
  0
LINE
  8
0
 10
-26.5987
 20
319.234
 11
-26.7115
 21
319.473
  0
LINE
  8
0
 10
-26.7115
 20
319.473
 11
-26.7934
 21
319.725
  0
LINE
  8
0
 10
-26.7934
 20
319.725
 11
-26.843
 21
319.986
  0
LINE
  8
0
 10
-26.843
 20
319.986
 11
-26.8596
 21
320.25
  0
LINE
  8
0
 10
-26.8596
 20
320.25
 11
-26.8596
 21
369.75
  0
LINE
  8
0
 10
-26.8596
 20
369.75
 11
-26.843
 21
370.014
  0
LINE
  8
0
 10
-26.843
 20
370.014
 11
-26.7934
 21
370.275
  0
LINE
  8
0
 10
-26.7934
 20
370.275
 11
-26.7115
 21
370.527
  0
LINE
  8
0
 10
-26.7115
 20
370.527
 11
-26.5987
 21
370.766
  0
LINE
  8
0
 10
-26.5987
 20
370.766
 11
-26.4567
 21
370.99
  0
LINE
  8
0
 10
-26.4567
 20
370.99
 11
-26.2879
 21
371.194
  0
LINE
  8
0
 10
-26.2879
 20
371.194
 11
-26.0947
 21
371.375
  0
LINE
  8
0
 10
-26.0947
 20
371.375
 11
-25.8804
 21
371.531
  0
LINE
  8
0
 10
-25.8804
 20
371.531
 11
-25.6482
 21
371.659
  0
LINE
  8
0
 10
-25.6482
 20
371.659
 11
-25.4019
 21
371.756
  0
LINE
  8
0
 10
-25.4019
 20
371.756
 11
-25.1453
 21
371.822
  0
LINE
  8
0
 10
-25.1453
 20
371.822
 11
-24.8825
 21
371.855
  0
LINE
  8
0
 10
-24.8825
 20
371.855
 11
24.8825
 21
371.855
  0
LINE
  8
0
 10
24.8825
 20
371.855
 11
25.1453
 21
371.822
  0
LINE
  8
0
 10
25.1453
 20
371.822
 11
25.4019
 21
371.756
  0
LINE
  8
0
 10
25.4019
 20
371.756
 11
25.6482
 21
371.659
  0
LINE
  8
0
 10
25.6482
 20
371.659
 11
25.8804
 21
371.531
  0
LINE
  8
0
 10
25.8804
 20
371.531
 11
26.0947
 21
371.375
  0
LINE
  8
0
 10
26.0947
 20
371.375
 11
26.2879
 21
371.194
  0
LINE
  8
0
 10
26.2879
 20
371.194
 11
26.4567
 21
370.99
  0
LINE
  8
0
 10
26.4567
 20
370.99
 11
26.5987
 21
370.766
  0
LINE
  8
0
 10
26.5987
 20
370.766
 11
26.7115
 21
370.527
  0
LINE
  8
0
 10
26.7115
 20
370.527
 11
26.7934
 21
370.275
  0
LINE
  8
0
 10
26.7934
 20
370.275
 11
26.843
 21
370.014
  0
LINE
  8
0
 10
26.843
 20
370.014
 11
26.8596
 21
369.75
  0
LINE
  8
0
 10
26.8596
 20
369.75
 11
26.8596
 21
320.25
  0
LINE
  8
0
 10
26.8596
 20
320.25
 11
26.843
 21
319.986
  0
LINE
  8
0
 10
26.843
 20
319.986
 11
26.7934
 21
319.725
  0
LINE
  8
0
 10
26.7934
 20
319.725
 11
26.7115
 21
319.473
  0
LINE
  8
0
 10
26.7115
 20
319.473
 11
26.5987
 21
319.234
  0
LINE
  8
0
 10
26.5987
 20
319.234
 11
26.4567
 21
319.01
  0
LINE
  8
0
 10
26.4567
 20
319.01
 11
26.2879
 21
318.806
  0
LINE
  8
0
 10
26.2879
 20
318.806
 11
26.0947
 21
318.625
  0
LINE
  8
0
 10
26.0947
 20
318.625
 11
25.8804
 21
318.469
  0
LINE
  8
0
 10
25.8804
 20
318.469
 11
25.6482
 21
318.341
  0
LINE
  8
0
 10
25.6482
 20
318.341
 11
25.4019
 21
318.244
  0
LINE
  8
0
 10
25.4019
 20
318.244
 11
25.1453
 21
318.178
  0
LINE
  8
0
 10
25.1453
 20
318.178
 11
24.8825
 21
318.145
  0
LINE
  8
0
 10
24.8825
 20
318.145
 11
-24.8825
 21
318.145
  0
ENDSEC
  0
SECTION
  2
OBJECTS
  0
DICTIONARY
  0
ENDSEC
  0
EOF
