  0
SECTION
  2
BLOCKS
  0
ENDSEC
  0
SECTION
  2
ENTITIES
  0
LINE
  8
0
 10
18.4369
 20
450.089
 11
19.0451
 21
450.245
  0
LINE
  8
0
 10
19.0451
 20
450.245
 11
19.6289
 21
450.476
  0
LINE
  8
0
 10
19.6289
 20
450.476
 11
20.1791
 21
450.778
  0
LINE
  8
0
 10
20.1791
 20
450.778
 11
20.6871
 21
451.147
  0
LINE
  8
0
 10
20.6871
 20
451.147
 11
21.1448
 21
451.577
  0
LINE
  8
0
 10
21.1448
 20
451.577
 11
21.5451
 21
452.061
  0
LINE
  8
0
 10
21.5451
 20
452.061
 11
21.8815
 21
452.591
  0
LINE
  8
0
 10
21.8815
 20
452.591
 11
22.1489
 21
453.159
  0
LINE
  8
0
 10
22.1489
 20
453.159
 11
22.3429
 21
453.757
  0
LINE
  8
0
 10
22.3429
 20
453.757
 11
22.4606
 21
454.373
  0
LINE
  8
0
 10
22.4606
 20
454.373
 11
22.5
 21
455
  0
LINE
  8
0
 10
22.5
 20
455
 11
22.5
 21
535
  0
LINE
  8
0
 10
22.5
 20
535
 11
22.4606
 21
535.627
  0
LINE
  8
0
 10
22.4606
 20
535.627
 11
22.3429
 21
536.243
  0
LINE
  8
0
 10
22.3429
 20
536.243
 11
22.1489
 21
536.841
  0
LINE
  8
0
 10
22.1489
 20
536.841
 11
21.8815
 21
537.409
  0
LINE
  8
0
 10
21.8815
 20
537.409
 11
21.5451
 21
537.939
  0
LINE
  8
0
 10
21.5451
 20
537.939
 11
21.1448
 21
538.423
  0
LINE
  8
0
 10
21.1448
 20
538.423
 11
20.6871
 21
538.853
  0
LINE
  8
0
 10
20.6871
 20
538.853
 11
20.1791
 21
539.222
  0
LINE
  8
0
 10
20.1791
 20
539.222
 11
19.6289
 21
539.524
  0
LINE
  8
0
 10
19.6289
 20
539.524
 11
19.0451
 21
539.755
  0
LINE
  8
0
 10
19.0451
 20
539.755
 11
18.4369
 21
539.911
  0
LINE
  8
0
 10
18.4369
 20
539.911
 11
17.8139
 21
539.99
  0
LINE
  8
0
 10
17.8139
 20
539.99
 11
-17.8139
 21
539.99
  0
LINE
  8
0
 10
-17.8139
 20
539.99
 11
-18.4369
 21
539.911
  0
LINE
  8
0
 10
-18.4369
 20
539.911
 11
-19.0451
 21
539.755
  0
LINE
  8
0
 10
-19.0451
 20
539.755
 11
-19.6289
 21
539.524
  0
LINE
  8
0
 10
-19.6289
 20
539.524
 11
-20.1791
 21
539.222
  0
LINE
  8
0
 10
-20.1791
 20
539.222
 11
-20.6871
 21
538.853
  0
LINE
  8
0
 10
-20.6871
 20
538.853
 11
-21.1448
 21
538.423
  0
LINE
  8
0
 10
-21.1448
 20
538.423
 11
-21.5451
 21
537.939
  0
LINE
  8
0
 10
-21.5451
 20
537.939
 11
-21.8815
 21
537.409
  0
LINE
  8
0
 10
-21.8815
 20
537.409
 11
-22.1489
 21
536.841
  0
LINE
  8
0
 10
-22.1489
 20
536.841
 11
-22.3429
 21
536.243
  0
LINE
  8
0
 10
-22.3429
 20
536.243
 11
-22.4606
 21
535.627
  0
LINE
  8
0
 10
-22.4606
 20
535.627
 11
-22.5
 21
535
  0
LINE
  8
0
 10
-22.5
 20
535
 11
-22.5
 21
455
  0
LINE
  8
0
 10
-22.5
 20
455
 11
-22.4606
 21
454.373
  0
LINE
  8
0
 10
-22.4606
 20
454.373
 11
-22.3429
 21
453.757
  0
LINE
  8
0
 10
-22.3429
 20
453.757
 11
-22.1489
 21
453.159
  0
LINE
  8
0
 10
-22.1489
 20
453.159
 11
-21.8815
 21
452.591
  0
LINE
  8
0
 10
-21.8815
 20
452.591
 11
-21.5451
 21
452.061
  0
LINE
  8
0
 10
-21.5451
 20
452.061
 11
-21.1448
 21
451.577
  0
LINE
  8
0
 10
-21.1448
 20
451.577
 11
-20.6871
 21
451.147
  0
LINE
  8
0
 10
-20.6871
 20
451.147
 11
-20.1791
 21
450.778
  0
LINE
  8
0
 10
-20.1791
 20
450.778
 11
-19.6289
 21
450.476
  0
LINE
  8
0
 10
-19.6289
 20
450.476
 11
-19.0451
 21
450.245
  0
LINE
  8
0
 10
-19.0451
 20
450.245
 11
-18.4369
 21
450.089
  0
LINE
  8
0
 10
-18.4369
 20
450.089
 11
-17.8139
 21
450.01
  0
LINE
  8
0
 10
-17.8139
 20
450.01
 11
17.8139
 21
450.01
  0
LINE
  8
0
 10
17.8139
 20
450.01
 11
18.4369
 21
450.089
  0
LINE
  8
0
 10
-17.2512
 20
451.508
 11
-17.7495
 21
451.571
  0
LINE
  8
0
 10
-17.7495
 20
451.571
 11
-18.2361
 21
451.696
  0
LINE
  8
0
 10
-18.2361
 20
451.696
 11
-18.7031
 21
451.881
  0
LINE
  8
0
 10
-18.7031
 20
451.881
 11
-19.1433
 21
452.123
  0
LINE
  8
0
 10
-19.1433
 20
452.123
 11
-19.5497
 21
452.418
  0
LINE
  8
0
 10
-19.5497
 20
452.418
 11
-19.9159
 21
452.762
  0
LINE
  8
0
 10
-19.9159
 20
452.762
 11
-20.2361
 21
453.149
  0
LINE
  8
0
 10
-20.2361
 20
453.149
 11
-20.5052
 21
453.573
  0
LINE
  8
0
 10
-20.5052
 20
453.573
 11
-20.7191
 21
454.028
  0
LINE
  8
0
 10
-20.7191
 20
454.028
 11
-20.8743
 21
454.505
  0
LINE
  8
0
 10
-20.8743
 20
454.505
 11
-20.9684
 21
454.999
  0
LINE
  8
0
 10
-20.9684
 20
454.999
 11
-21
 21
455.5
  0
LINE
  8
0
 10
-21
 20
455.5
 11
-21
 21
534.5
  0
LINE
  8
0
 10
-21
 20
534.5
 11
-20.9684
 21
535.001
  0
LINE
  8
0
 10
-20.9684
 20
535.001
 11
-20.8743
 21
535.495
  0
LINE
  8
0
 10
-20.8743
 20
535.495
 11
-20.7191
 21
535.972
  0
LINE
  8
0
 10
-20.7191
 20
535.972
 11
-20.5052
 21
536.427
  0
LINE
  8
0
 10
-20.5052
 20
536.427
 11
-20.2361
 21
536.851
  0
LINE
  8
0
 10
-20.2361
 20
536.851
 11
-19.9159
 21
537.238
  0
LINE
  8
0
 10
-19.9159
 20
537.238
 11
-19.5497
 21
537.582
  0
LINE
  8
0
 10
-19.5497
 20
537.582
 11
-19.1433
 21
537.877
  0
LINE
  8
0
 10
-19.1433
 20
537.877
 11
-18.7031
 21
538.119
  0
LINE
  8
0
 10
-18.7031
 20
538.119
 11
-18.2361
 21
538.304
  0
LINE
  8
0
 10
-18.2361
 20
538.304
 11
-17.7495
 21
538.429
  0
LINE
  8
0
 10
-17.7495
 20
538.429
 11
-17.2512
 21
538.492
  0
LINE
  8
0
 10
-17.2512
 20
538.492
 11
17.2512
 21
538.492
  0
LINE
  8
0
 10
17.2512
 20
538.492
 11
17.7495
 21
538.429
  0
LINE
  8
0
 10
17.7495
 20
538.429
 11
18.2361
 21
538.304
  0
LINE
  8
0
 10
18.2361
 20
538.304
 11
18.7031
 21
538.119
  0
LINE
  8
0
 10
18.7031
 20
538.119
 11
19.1433
 21
537.877
  0
LINE
  8
0
 10
19.1433
 20
537.877
 11
19.5497
 21
537.582
  0
LINE
  8
0
 10
19.5497
 20
537.582
 11
19.9159
 21
537.238
  0
LINE
  8
0
 10
19.9159
 20
537.238
 11
20.2361
 21
536.851
  0
LINE
  8
0
 10
20.2361
 20
536.851
 11
20.5052
 21
536.427
  0
LINE
  8
0
 10
20.5052
 20
536.427
 11
20.7191
 21
535.972
  0
LINE
  8
0
 10
20.7191
 20
535.972
 11
20.8743
 21
535.495
  0
LINE
  8
0
 10
20.8743
 20
535.495
 11
20.9684
 21
535.001
  0
LINE
  8
0
 10
20.9684
 20
535.001
 11
21
 21
534.5
  0
LINE
  8
0
 10
21
 20
534.5
 11
21
 21
455.5
  0
LINE
  8
0
 10
21
 20
455.5
 11
20.9684
 21
454.999
  0
LINE
  8
0
 10
20.9684
 20
454.999
 11
20.8743
 21
454.505
  0
LINE
  8
0
 10
20.8743
 20
454.505
 11
20.7191
 21
454.028
  0
LINE
  8
0
 10
20.7191
 20
454.028
 11
20.5052
 21
453.573
  0
LINE
  8
0
 10
20.5052
 20
453.573
 11
20.2361
 21
453.149
  0
LINE
  8
0
 10
20.2361
 20
453.149
 11
19.9159
 21
452.762
  0
LINE
  8
0
 10
19.9159
 20
452.762
 11
19.5497
 21
452.418
  0
LINE
  8
0
 10
19.5497
 20
452.418
 11
19.1433
 21
452.123
  0
LINE
  8
0
 10
19.1433
 20
452.123
 11
18.7031
 21
451.881
  0
LINE
  8
0
 10
18.7031
 20
451.881
 11
18.2361
 21
451.696
  0
LINE
  8
0
 10
18.2361
 20
451.696
 11
17.7495
 21
451.571
  0
LINE
  8
0
 10
17.7495
 20
451.571
 11
17.2512
 21
451.508
  0
LINE
  8
0
 10
17.2512
 20
451.508
 11
-17.2512
 21
451.508
  0
LINE
  8
0
 10
18.4369
 20
351.089
 11
19.0451
 21
351.245
  0
LINE
  8
0
 10
19.0451
 20
351.245
 11
19.6289
 21
351.476
  0
LINE
  8
0
 10
19.6289
 20
351.476
 11
20.1791
 21
351.778
  0
LINE
  8
0
 10
20.1791
 20
351.778
 11
20.6871
 21
352.147
  0
LINE
  8
0
 10
20.6871
 20
352.147
 11
21.1448
 21
352.577
  0
LINE
  8
0
 10
21.1448
 20
352.577
 11
21.5451
 21
353.061
  0
LINE
  8
0
 10
21.5451
 20
353.061
 11
21.8815
 21
353.591
  0
LINE
  8
0
 10
21.8815
 20
353.591
 11
22.1489
 21
354.159
  0
LINE
  8
0
 10
22.1489
 20
354.159
 11
22.3429
 21
354.757
  0
LINE
  8
0
 10
22.3429
 20
354.757
 11
22.4606
 21
355.373
  0
LINE
  8
0
 10
22.4606
 20
355.373
 11
22.5
 21
356
  0
LINE
  8
0
 10
22.5
 20
356
 11
22.5
 21
436
  0
LINE
  8
0
 10
22.5
 20
436
 11
22.4606
 21
436.627
  0
LINE
  8
0
 10
22.4606
 20
436.627
 11
22.3429
 21
437.243
  0
LINE
  8
0
 10
22.3429
 20
437.243
 11
22.1489
 21
437.841
  0
LINE
  8
0
 10
22.1489
 20
437.841
 11
21.8815
 21
438.409
  0
LINE
  8
0
 10
21.8815
 20
438.409
 11
21.5451
 21
438.939
  0
LINE
  8
0
 10
21.5451
 20
438.939
 11
21.1448
 21
439.423
  0
LINE
  8
0
 10
21.1448
 20
439.423
 11
20.6871
 21
439.853
  0
LINE
  8
0
 10
20.6871
 20
439.853
 11
20.1791
 21
440.222
  0
LINE
  8
0
 10
20.1791
 20
440.222
 11
19.6289
 21
440.524
  0
LINE
  8
0
 10
19.6289
 20
440.524
 11
19.0451
 21
440.755
  0
LINE
  8
0
 10
19.0451
 20
440.755
 11
18.4369
 21
440.911
  0
LINE
  8
0
 10
18.4369
 20
440.911
 11
17.8139
 21
440.99
  0
LINE
  8
0
 10
17.8139
 20
440.99
 11
-17.8139
 21
440.99
  0
LINE
  8
0
 10
-17.8139
 20
440.99
 11
-18.4369
 21
440.911
  0
LINE
  8
0
 10
-18.4369
 20
440.911
 11
-19.0451
 21
440.755
  0
LINE
  8
0
 10
-19.0451
 20
440.755
 11
-19.6289
 21
440.524
  0
LINE
  8
0
 10
-19.6289
 20
440.524
 11
-20.1791
 21
440.222
  0
LINE
  8
0
 10
-20.1791
 20
440.222
 11
-20.6871
 21
439.853
  0
LINE
  8
0
 10
-20.6871
 20
439.853
 11
-21.1448
 21
439.423
  0
LINE
  8
0
 10
-21.1448
 20
439.423
 11
-21.5451
 21
438.939
  0
LINE
  8
0
 10
-21.5451
 20
438.939
 11
-21.8815
 21
438.409
  0
LINE
  8
0
 10
-21.8815
 20
438.409
 11
-22.1489
 21
437.841
  0
LINE
  8
0
 10
-22.1489
 20
437.841
 11
-22.3429
 21
437.243
  0
LINE
  8
0
 10
-22.3429
 20
437.243
 11
-22.4606
 21
436.627
  0
LINE
  8
0
 10
-22.4606
 20
436.627
 11
-22.5
 21
436
  0
LINE
  8
0
 10
-22.5
 20
436
 11
-22.5
 21
356
  0
LINE
  8
0
 10
-22.5
 20
356
 11
-22.4606
 21
355.373
  0
LINE
  8
0
 10
-22.4606
 20
355.373
 11
-22.3429
 21
354.757
  0
LINE
  8
0
 10
-22.3429
 20
354.757
 11
-22.1489
 21
354.159
  0
LINE
  8
0
 10
-22.1489
 20
354.159
 11
-21.8815
 21
353.591
  0
LINE
  8
0
 10
-21.8815
 20
353.591
 11
-21.5451
 21
353.061
  0
LINE
  8
0
 10
-21.5451
 20
353.061
 11
-21.1448
 21
352.577
  0
LINE
  8
0
 10
-21.1448
 20
352.577
 11
-20.6871
 21
352.147
  0
LINE
  8
0
 10
-20.6871
 20
352.147
 11
-20.1791
 21
351.778
  0
LINE
  8
0
 10
-20.1791
 20
351.778
 11
-19.6289
 21
351.476
  0
LINE
  8
0
 10
-19.6289
 20
351.476
 11
-19.0451
 21
351.245
  0
LINE
  8
0
 10
-19.0451
 20
351.245
 11
-18.4369
 21
351.089
  0
LINE
  8
0
 10
-18.4369
 20
351.089
 11
-17.8139
 21
351.01
  0
LINE
  8
0
 10
-17.8139
 20
351.01
 11
17.8139
 21
351.01
  0
LINE
  8
0
 10
17.8139
 20
351.01
 11
18.4369
 21
351.089
  0
LINE
  8
0
 10
-17.1954
 20
353.393
 11
-17.5833
 21
353.442
  0
LINE
  8
0
 10
-17.5833
 20
353.442
 11
-17.9619
 21
353.539
  0
LINE
  8
0
 10
-17.9619
 20
353.539
 11
-18.3254
 21
353.683
  0
LINE
  8
0
 10
-18.3254
 20
353.683
 11
-18.668
 21
353.872
  0
LINE
  8
0
 10
-18.668
 20
353.872
 11
-18.9842
 21
354.101
  0
LINE
  8
0
 10
-18.9842
 20
354.101
 11
-19.2692
 21
354.369
  0
LINE
  8
0
 10
-19.2692
 20
354.369
 11
-19.5184
 21
354.67
  0
LINE
  8
0
 10
-19.5184
 20
354.67
 11
-19.7279
 21
355
  0
LINE
  8
0
 10
-19.7279
 20
355
 11
-19.8943
 21
355.354
  0
LINE
  8
0
 10
-19.8943
 20
355.354
 11
-20.0151
 21
355.726
  0
LINE
  8
0
 10
-20.0151
 20
355.726
 11
-20.0884
 21
356.11
  0
LINE
  8
0
 10
-20.0884
 20
356.11
 11
-20.1129
 21
356.5
  0
LINE
  8
0
 10
-20.1129
 20
356.5
 11
-20.1129
 21
435.5
  0
LINE
  8
0
 10
-20.1129
 20
435.5
 11
-20.0884
 21
435.89
  0
LINE
  8
0
 10
-20.0884
 20
435.89
 11
-20.0151
 21
436.274
  0
LINE
  8
0
 10
-20.0151
 20
436.274
 11
-19.8943
 21
436.646
  0
LINE
  8
0
 10
-19.8943
 20
436.646
 11
-19.7279
 21
437
  0
LINE
  8
0
 10
-19.7279
 20
437
 11
-19.5184
 21
437.33
  0
LINE
  8
0
 10
-19.5184
 20
437.33
 11
-19.2692
 21
437.631
  0
LINE
  8
0
 10
-19.2692
 20
437.631
 11
-18.9842
 21
437.899
  0
LINE
  8
0
 10
-18.9842
 20
437.899
 11
-18.668
 21
438.128
  0
LINE
  8
0
 10
-18.668
 20
438.128
 11
-18.3254
 21
438.317
  0
LINE
  8
0
 10
-18.3254
 20
438.317
 11
-17.9619
 21
438.461
  0
LINE
  8
0
 10
-17.9619
 20
438.461
 11
-17.5833
 21
438.558
  0
LINE
  8
0
 10
-17.5833
 20
438.558
 11
-17.1954
 21
438.607
  0
LINE
  8
0
 10
-17.1954
 20
438.607
 11
17.1954
 21
438.607
  0
LINE
  8
0
 10
17.1954
 20
438.607
 11
17.5833
 21
438.558
  0
LINE
  8
0
 10
17.5833
 20
438.558
 11
17.9619
 21
438.461
  0
LINE
  8
0
 10
17.9619
 20
438.461
 11
18.3254
 21
438.317
  0
LINE
  8
0
 10
18.3254
 20
438.317
 11
18.668
 21
438.128
  0
LINE
  8
0
 10
18.668
 20
438.128
 11
18.9842
 21
437.899
  0
LINE
  8
0
 10
18.9842
 20
437.899
 11
19.2692
 21
437.631
  0
LINE
  8
0
 10
19.2692
 20
437.631
 11
19.5184
 21
437.33
  0
LINE
  8
0
 10
19.5184
 20
437.33
 11
19.7279
 21
437
  0
LINE
  8
0
 10
19.7279
 20
437
 11
19.8943
 21
436.646
  0
LINE
  8
0
 10
19.8943
 20
436.646
 11
20.0151
 21
436.274
  0
LINE
  8
0
 10
20.0151
 20
436.274
 11
20.0884
 21
435.89
  0
LINE
  8
0
 10
20.0884
 20
435.89
 11
20.1129
 21
435.5
  0
LINE
  8
0
 10
20.1129
 20
435.5
 11
20.1129
 21
356.5
  0
LINE
  8
0
 10
20.1129
 20
356.5
 11
20.0884
 21
356.11
  0
LINE
  8
0
 10
20.0884
 20
356.11
 11
20.0151
 21
355.726
  0
LINE
  8
0
 10
20.0151
 20
355.726
 11
19.8943
 21
355.354
  0
LINE
  8
0
 10
19.8943
 20
355.354
 11
19.7279
 21
355
  0
LINE
  8
0
 10
19.7279
 20
355
 11
19.5184
 21
354.67
  0
LINE
  8
0
 10
19.5184
 20
354.67
 11
19.2692
 21
354.369
  0
LINE
  8
0
 10
19.2692
 20
354.369
 11
18.9842
 21
354.101
  0
LINE
  8
0
 10
18.9842
 20
354.101
 11
18.668
 21
353.872
  0
LINE
  8
0
 10
18.668
 20
353.872
 11
18.3254
 21
353.683
  0
LINE
  8
0
 10
18.3254
 20
353.683
 11
17.9619
 21
353.539
  0
LINE
  8
0
 10
17.9619
 20
353.539
 11
17.5833
 21
353.442
  0
LINE
  8
0
 10
17.5833
 20
353.442
 11
17.1954
 21
353.393
  0
LINE
  8
0
 10
17.1954
 20
353.393
 11
-17.1954
 21
353.393
  0
LINE
  8
0
 10
18.4369
 20
252.089
 11
19.0451
 21
252.245
  0
LINE
  8
0
 10
19.0451
 20
252.245
 11
19.6289
 21
252.476
  0
LINE
  8
0
 10
19.6289
 20
252.476
 11
20.1791
 21
252.778
  0
LINE
  8
0
 10
20.1791
 20
252.778
 11
20.6871
 21
253.147
  0
LINE
  8
0
 10
20.6871
 20
253.147
 11
21.1448
 21
253.577
  0
LINE
  8
0
 10
21.1448
 20
253.577
 11
21.5451
 21
254.061
  0
LINE
  8
0
 10
21.5451
 20
254.061
 11
21.8815
 21
254.591
  0
LINE
  8
0
 10
21.8815
 20
254.591
 11
22.1489
 21
255.159
  0
LINE
  8
0
 10
22.1489
 20
255.159
 11
22.3429
 21
255.757
  0
LINE
  8
0
 10
22.3429
 20
255.757
 11
22.4606
 21
256.373
  0
LINE
  8
0
 10
22.4606
 20
256.373
 11
22.5
 21
257
  0
LINE
  8
0
 10
22.5
 20
257
 11
22.5
 21
337
  0
LINE
  8
0
 10
22.5
 20
337
 11
22.4606
 21
337.627
  0
LINE
  8
0
 10
22.4606
 20
337.627
 11
22.3429
 21
338.243
  0
LINE
  8
0
 10
22.3429
 20
338.243
 11
22.1489
 21
338.841
  0
LINE
  8
0
 10
22.1489
 20
338.841
 11
21.8815
 21
339.409
  0
LINE
  8
0
 10
21.8815
 20
339.409
 11
21.5451
 21
339.939
  0
LINE
  8
0
 10
21.5451
 20
339.939
 11
21.1448
 21
340.423
  0
LINE
  8
0
 10
21.1448
 20
340.423
 11
20.6871
 21
340.853
  0
LINE
  8
0
 10
20.6871
 20
340.853
 11
20.1791
 21
341.222
  0
LINE
  8
0
 10
20.1791
 20
341.222
 11
19.6289
 21
341.524
  0
LINE
  8
0
 10
19.6289
 20
341.524
 11
19.0451
 21
341.755
  0
LINE
  8
0
 10
19.0451
 20
341.755
 11
18.4369
 21
341.911
  0
LINE
  8
0
 10
18.4369
 20
341.911
 11
17.8139
 21
341.99
  0
LINE
  8
0
 10
17.8139
 20
341.99
 11
-17.8139
 21
341.99
  0
LINE
  8
0
 10
-17.8139
 20
341.99
 11
-18.4369
 21
341.911
  0
LINE
  8
0
 10
-18.4369
 20
341.911
 11
-19.0451
 21
341.755
  0
LINE
  8
0
 10
-19.0451
 20
341.755
 11
-19.6289
 21
341.524
  0
LINE
  8
0
 10
-19.6289
 20
341.524
 11
-20.1791
 21
341.222
  0
LINE
  8
0
 10
-20.1791
 20
341.222
 11
-20.6871
 21
340.853
  0
LINE
  8
0
 10
-20.6871
 20
340.853
 11
-21.1448
 21
340.423
  0
LINE
  8
0
 10
-21.1448
 20
340.423
 11
-21.5451
 21
339.939
  0
LINE
  8
0
 10
-21.5451
 20
339.939
 11
-21.8815
 21
339.409
  0
LINE
  8
0
 10
-21.8815
 20
339.409
 11
-22.1489
 21
338.841
  0
LINE
  8
0
 10
-22.1489
 20
338.841
 11
-22.3429
 21
338.243
  0
LINE
  8
0
 10
-22.3429
 20
338.243
 11
-22.4606
 21
337.627
  0
LINE
  8
0
 10
-22.4606
 20
337.627
 11
-22.5
 21
337
  0
LINE
  8
0
 10
-22.5
 20
337
 11
-22.5
 21
257
  0
LINE
  8
0
 10
-22.5
 20
257
 11
-22.4606
 21
256.373
  0
LINE
  8
0
 10
-22.4606
 20
256.373
 11
-22.3429
 21
255.757
  0
LINE
  8
0
 10
-22.3429
 20
255.757
 11
-22.1489
 21
255.159
  0
LINE
  8
0
 10
-22.1489
 20
255.159
 11
-21.8815
 21
254.591
  0
LINE
  8
0
 10
-21.8815
 20
254.591
 11
-21.5451
 21
254.061
  0
LINE
  8
0
 10
-21.5451
 20
254.061
 11
-21.1448
 21
253.577
  0
LINE
  8
0
 10
-21.1448
 20
253.577
 11
-20.6871
 21
253.147
  0
LINE
  8
0
 10
-20.6871
 20
253.147
 11
-20.1791
 21
252.778
  0
LINE
  8
0
 10
-20.1791
 20
252.778
 11
-19.6289
 21
252.476
  0
LINE
  8
0
 10
-19.6289
 20
252.476
 11
-19.0451
 21
252.245
  0
LINE
  8
0
 10
-19.0451
 20
252.245
 11
-18.4369
 21
252.089
  0
LINE
  8
0
 10
-18.4369
 20
252.089
 11
-17.8139
 21
252.01
  0
LINE
  8
0
 10
-17.8139
 20
252.01
 11
17.8139
 21
252.01
  0
LINE
  8
0
 10
17.8139
 20
252.01
 11
18.4369
 21
252.089
  0
LINE
  8
0
 10
14.8659
 20
332.369
 11
14.5999
 21
332.403
  0
LINE
  8
0
 10
14.5999
 20
332.403
 11
14.3401
 21
332.469
  0
LINE
  8
0
 10
14.3401
 20
332.469
 11
14.0908
 21
332.568
  0
LINE
  8
0
 10
14.0908
 20
332.568
 11
13.8559
 21
332.697
  0
LINE
  8
0
 10
13.8559
 20
332.697
 11
13.6389
 21
332.855
  0
LINE
  8
0
 10
13.6389
 20
332.855
 11
13.4434
 21
333.038
  0
LINE
  8
0
 10
13.4434
 20
333.038
 11
13.2725
 21
333.245
  0
LINE
  8
0
 10
13.2725
 20
333.245
 11
13.1288
 21
333.471
  0
LINE
  8
0
 10
13.1288
 20
333.471
 11
13.0146
 21
333.714
  0
LINE
  8
0
 10
13.0146
 20
333.714
 11
12.9318
 21
333.969
  0
LINE
  8
0
 10
12.9318
 20
333.969
 11
12.8815
 21
334.232
  0
LINE
  8
0
 10
12.8815
 20
334.232
 11
12.8647
 21
334.5
  0
LINE
  8
0
 10
12.8647
 20
334.5
 11
12.8815
 21
334.768
  0
LINE
  8
0
 10
12.8815
 20
334.768
 11
12.9318
 21
335.031
  0
LINE
  8
0
 10
12.9318
 20
335.031
 11
13.0146
 21
335.286
  0
LINE
  8
0
 10
13.0146
 20
335.286
 11
13.1288
 21
335.529
  0
LINE
  8
0
 10
13.1288
 20
335.529
 11
13.2725
 21
335.755
  0
LINE
  8
0
 10
13.2725
 20
335.755
 11
13.4434
 21
335.962
  0
LINE
  8
0
 10
13.4434
 20
335.962
 11
13.6389
 21
336.145
  0
LINE
  8
0
 10
13.6389
 20
336.145
 11
13.8559
 21
336.303
  0
LINE
  8
0
 10
13.8559
 20
336.303
 11
14.0908
 21
336.432
  0
LINE
  8
0
 10
14.0908
 20
336.432
 11
14.3401
 21
336.531
  0
LINE
  8
0
 10
14.3401
 20
336.531
 11
14.5999
 21
336.597
  0
LINE
  8
0
 10
14.5999
 20
336.597
 11
14.8659
 21
336.631
  0
LINE
  8
0
 10
14.8659
 20
336.631
 11
15.1341
 21
336.631
  0
LINE
  8
0
 10
15.1341
 20
336.631
 11
15.4001
 21
336.597
  0
LINE
  8
0
 10
15.4001
 20
336.597
 11
15.6598
 21
336.531
  0
LINE
  8
0
 10
15.6598
 20
336.531
 11
15.9091
 21
336.432
  0
LINE
  8
0
 10
15.9091
 20
336.432
 11
16.1441
 21
336.303
  0
LINE
  8
0
 10
16.1441
 20
336.303
 11
16.3611
 21
336.145
  0
LINE
  8
0
 10
16.3611
 20
336.145
 11
16.5565
 21
335.962
  0
LINE
  8
0
 10
16.5565
 20
335.962
 11
16.7275
 21
335.755
  0
LINE
  8
0
 10
16.7275
 20
335.755
 11
16.8712
 21
335.529
  0
LINE
  8
0
 10
16.8712
 20
335.529
 11
16.9853
 21
335.286
  0
LINE
  8
0
 10
16.9853
 20
335.286
 11
17.0682
 21
335.031
  0
LINE
  8
0
 10
17.0682
 20
335.031
 11
17.1185
 21
334.768
  0
LINE
  8
0
 10
17.1185
 20
334.768
 11
17.1353
 21
334.5
  0
LINE
  8
0
 10
17.1353
 20
334.5
 11
17.1185
 21
334.232
  0
LINE
  8
0
 10
17.1185
 20
334.232
 11
17.0682
 21
333.969
  0
LINE
  8
0
 10
17.0682
 20
333.969
 11
16.9853
 21
333.714
  0
LINE
  8
0
 10
16.9853
 20
333.714
 11
16.8712
 21
333.471
  0
LINE
  8
0
 10
16.8712
 20
333.471
 11
16.7275
 21
333.245
  0
LINE
  8
0
 10
16.7275
 20
333.245
 11
16.5565
 21
333.038
  0
LINE
  8
0
 10
16.5565
 20
333.038
 11
16.3611
 21
332.855
  0
LINE
  8
0
 10
16.3611
 20
332.855
 11
16.1441
 21
332.697
  0
LINE
  8
0
 10
16.1441
 20
332.697
 11
15.9091
 21
332.568
  0
LINE
  8
0
 10
15.9091
 20
332.568
 11
15.6598
 21
332.469
  0
LINE
  8
0
 10
15.6598
 20
332.469
 11
15.4001
 21
332.403
  0
LINE
  8
0
 10
15.4001
 20
332.403
 11
15.1341
 21
332.369
  0
LINE
  8
0
 10
15.1341
 20
332.369
 11
14.8659
 21
332.369
  0
LINE
  8
0
 10
-15.1341
 20
332.369
 11
-15.4001
 21
332.403
  0
LINE
  8
0
 10
-15.4001
 20
332.403
 11
-15.6598
 21
332.469
  0
LINE
  8
0
 10
-15.6598
 20
332.469
 11
-15.9091
 21
332.568
  0
LINE
  8
0
 10
-15.9091
 20
332.568
 11
-16.1441
 21
332.697
  0
LINE
  8
0
 10
-16.1441
 20
332.697
 11
-16.3611
 21
332.855
  0
LINE
  8
0
 10
-16.3611
 20
332.855
 11
-16.5565
 21
333.038
  0
LINE
  8
0
 10
-16.5565
 20
333.038
 11
-16.7275
 21
333.245
  0
LINE
  8
0
 10
-16.7275
 20
333.245
 11
-16.8712
 21
333.471
  0
LINE
  8
0
 10
-16.8712
 20
333.471
 11
-16.9853
 21
333.714
  0
LINE
  8
0
 10
-16.9853
 20
333.714
 11
-17.0682
 21
333.969
  0
LINE
  8
0
 10
-17.0682
 20
333.969
 11
-17.1185
 21
334.232
  0
LINE
  8
0
 10
-17.1185
 20
334.232
 11
-17.1353
 21
334.5
  0
LINE
  8
0
 10
-17.1353
 20
334.5
 11
-17.1185
 21
334.768
  0
LINE
  8
0
 10
-17.1185
 20
334.768
 11
-17.0682
 21
335.031
  0
LINE
  8
0
 10
-17.0682
 20
335.031
 11
-16.9853
 21
335.286
  0
LINE
  8
0
 10
-16.9853
 20
335.286
 11
-16.8712
 21
335.529
  0
LINE
  8
0
 10
-16.8712
 20
335.529
 11
-16.7275
 21
335.755
  0
LINE
  8
0
 10
-16.7275
 20
335.755
 11
-16.5565
 21
335.962
  0
LINE
  8
0
 10
-16.5565
 20
335.962
 11
-16.3611
 21
336.145
  0
LINE
  8
0
 10
-16.3611
 20
336.145
 11
-16.1441
 21
336.303
  0
LINE
  8
0
 10
-16.1441
 20
336.303
 11
-15.9091
 21
336.432
  0
LINE
  8
0
 10
-15.9091
 20
336.432
 11
-15.6598
 21
336.531
  0
LINE
  8
0
 10
-15.6598
 20
336.531
 11
-15.4001
 21
336.597
  0
LINE
  8
0
 10
-15.4001
 20
336.597
 11
-15.1341
 21
336.631
  0
LINE
  8
0
 10
-15.1341
 20
336.631
 11
-14.8659
 21
336.631
  0
LINE
  8
0
 10
-14.8659
 20
336.631
 11
-14.5999
 21
336.597
  0
LINE
  8
0
 10
-14.5999
 20
336.597
 11
-14.3401
 21
336.531
  0
LINE
  8
0
 10
-14.3401
 20
336.531
 11
-14.0908
 21
336.432
  0
LINE
  8
0
 10
-14.0908
 20
336.432
 11
-13.8559
 21
336.303
  0
LINE
  8
0
 10
-13.8559
 20
336.303
 11
-13.6389
 21
336.145
  0
LINE
  8
0
 10
-13.6389
 20
336.145
 11
-13.4434
 21
335.962
  0
LINE
  8
0
 10
-13.4434
 20
335.962
 11
-13.2725
 21
335.755
  0
LINE
  8
0
 10
-13.2725
 20
335.755
 11
-13.1288
 21
335.529
  0
LINE
  8
0
 10
-13.1288
 20
335.529
 11
-13.0146
 21
335.286
  0
LINE
  8
0
 10
-13.0146
 20
335.286
 11
-12.9318
 21
335.031
  0
LINE
  8
0
 10
-12.9318
 20
335.031
 11
-12.8815
 21
334.768
  0
LINE
  8
0
 10
-12.8815
 20
334.768
 11
-12.8647
 21
334.5
  0
LINE
  8
0
 10
-12.8647
 20
334.5
 11
-12.8815
 21
334.232
  0
LINE
  8
0
 10
-12.8815
 20
334.232
 11
-12.9318
 21
333.969
  0
LINE
  8
0
 10
-12.9318
 20
333.969
 11
-13.0146
 21
333.714
  0
LINE
  8
0
 10
-13.0146
 20
333.714
 11
-13.1288
 21
333.471
  0
LINE
  8
0
 10
-13.1288
 20
333.471
 11
-13.2725
 21
333.245
  0
LINE
  8
0
 10
-13.2725
 20
333.245
 11
-13.4434
 21
333.038
  0
LINE
  8
0
 10
-13.4434
 20
333.038
 11
-13.6389
 21
332.855
  0
LINE
  8
0
 10
-13.6389
 20
332.855
 11
-13.8559
 21
332.697
  0
LINE
  8
0
 10
-13.8559
 20
332.697
 11
-14.0908
 21
332.568
  0
LINE
  8
0
 10
-14.0908
 20
332.568
 11
-14.3401
 21
332.469
  0
LINE
  8
0
 10
-14.3401
 20
332.469
 11
-14.5999
 21
332.403
  0
LINE
  8
0
 10
-14.5999
 20
332.403
 11
-14.8659
 21
332.369
  0
LINE
  8
0
 10
-14.8659
 20
332.369
 11
-15.1341
 21
332.369
  0
LINE
  8
0
 10
14.8659
 20
257.369
 11
14.5999
 21
257.403
  0
LINE
  8
0
 10
14.5999
 20
257.403
 11
14.3401
 21
257.469
  0
LINE
  8
0
 10
14.3401
 20
257.469
 11
14.0908
 21
257.568
  0
LINE
  8
0
 10
14.0908
 20
257.568
 11
13.8559
 21
257.697
  0
LINE
  8
0
 10
13.8559
 20
257.697
 11
13.6389
 21
257.855
  0
LINE
  8
0
 10
13.6389
 20
257.855
 11
13.4434
 21
258.038
  0
LINE
  8
0
 10
13.4434
 20
258.038
 11
13.2725
 21
258.245
  0
LINE
  8
0
 10
13.2725
 20
258.245
 11
13.1288
 21
258.471
  0
LINE
  8
0
 10
13.1288
 20
258.471
 11
13.0146
 21
258.714
  0
LINE
  8
0
 10
13.0146
 20
258.714
 11
12.9318
 21
258.969
  0
LINE
  8
0
 10
12.9318
 20
258.969
 11
12.8815
 21
259.232
  0
LINE
  8
0
 10
12.8815
 20
259.232
 11
12.8647
 21
259.5
  0
LINE
  8
0
 10
12.8647
 20
259.5
 11
12.8815
 21
259.768
  0
LINE
  8
0
 10
12.8815
 20
259.768
 11
12.9318
 21
260.031
  0
LINE
  8
0
 10
12.9318
 20
260.031
 11
13.0146
 21
260.286
  0
LINE
  8
0
 10
13.0146
 20
260.286
 11
13.1288
 21
260.529
  0
LINE
  8
0
 10
13.1288
 20
260.529
 11
13.2725
 21
260.755
  0
LINE
  8
0
 10
13.2725
 20
260.755
 11
13.4434
 21
260.962
  0
LINE
  8
0
 10
13.4434
 20
260.962
 11
13.6389
 21
261.145
  0
LINE
  8
0
 10
13.6389
 20
261.145
 11
13.8559
 21
261.303
  0
LINE
  8
0
 10
13.8559
 20
261.303
 11
14.0908
 21
261.432
  0
LINE
  8
0
 10
14.0908
 20
261.432
 11
14.3401
 21
261.531
  0
LINE
  8
0
 10
14.3401
 20
261.531
 11
14.5999
 21
261.597
  0
LINE
  8
0
 10
14.5999
 20
261.597
 11
14.8659
 21
261.631
  0
LINE
  8
0
 10
14.8659
 20
261.631
 11
15.1341
 21
261.631
  0
LINE
  8
0
 10
15.1341
 20
261.631
 11
15.4001
 21
261.597
  0
LINE
  8
0
 10
15.4001
 20
261.597
 11
15.6598
 21
261.531
  0
LINE
  8
0
 10
15.6598
 20
261.531
 11
15.9091
 21
261.432
  0
LINE
  8
0
 10
15.9091
 20
261.432
 11
16.1441
 21
261.303
  0
LINE
  8
0
 10
16.1441
 20
261.303
 11
16.3611
 21
261.145
  0
LINE
  8
0
 10
16.3611
 20
261.145
 11
16.5565
 21
260.962
  0
LINE
  8
0
 10
16.5565
 20
260.962
 11
16.7275
 21
260.755
  0
LINE
  8
0
 10
16.7275
 20
260.755
 11
16.8712
 21
260.529
  0
LINE
  8
0
 10
16.8712
 20
260.529
 11
16.9853
 21
260.286
  0
LINE
  8
0
 10
16.9853
 20
260.286
 11
17.0682
 21
260.031
  0
LINE
  8
0
 10
17.0682
 20
260.031
 11
17.1185
 21
259.768
  0
LINE
  8
0
 10
17.1185
 20
259.768
 11
17.1353
 21
259.5
  0
LINE
  8
0
 10
17.1353
 20
259.5
 11
17.1185
 21
259.232
  0
LINE
  8
0
 10
17.1185
 20
259.232
 11
17.0682
 21
258.969
  0
LINE
  8
0
 10
17.0682
 20
258.969
 11
16.9853
 21
258.714
  0
LINE
  8
0
 10
16.9853
 20
258.714
 11
16.8712
 21
258.471
  0
LINE
  8
0
 10
16.8712
 20
258.471
 11
16.7275
 21
258.245
  0
LINE
  8
0
 10
16.7275
 20
258.245
 11
16.5565
 21
258.038
  0
LINE
  8
0
 10
16.5565
 20
258.038
 11
16.3611
 21
257.855
  0
LINE
  8
0
 10
16.3611
 20
257.855
 11
16.1441
 21
257.697
  0
LINE
  8
0
 10
16.1441
 20
257.697
 11
15.9091
 21
257.568
  0
LINE
  8
0
 10
15.9091
 20
257.568
 11
15.6598
 21
257.469
  0
LINE
  8
0
 10
15.6598
 20
257.469
 11
15.4001
 21
257.403
  0
LINE
  8
0
 10
15.4001
 20
257.403
 11
15.1341
 21
257.369
  0
LINE
  8
0
 10
15.1341
 20
257.369
 11
14.8659
 21
257.369
  0
LINE
  8
0
 10
-15.1341
 20
257.369
 11
-15.4001
 21
257.403
  0
LINE
  8
0
 10
-15.4001
 20
257.403
 11
-15.6598
 21
257.469
  0
LINE
  8
0
 10
-15.6598
 20
257.469
 11
-15.9091
 21
257.568
  0
LINE
  8
0
 10
-15.9091
 20
257.568
 11
-16.1441
 21
257.697
  0
LINE
  8
0
 10
-16.1441
 20
257.697
 11
-16.3611
 21
257.855
  0
LINE
  8
0
 10
-16.3611
 20
257.855
 11
-16.5565
 21
258.038
  0
LINE
  8
0
 10
-16.5565
 20
258.038
 11
-16.7275
 21
258.245
  0
LINE
  8
0
 10
-16.7275
 20
258.245
 11
-16.8712
 21
258.471
  0
LINE
  8
0
 10
-16.8712
 20
258.471
 11
-16.9853
 21
258.714
  0
LINE
  8
0
 10
-16.9853
 20
258.714
 11
-17.0682
 21
258.969
  0
LINE
  8
0
 10
-17.0682
 20
258.969
 11
-17.1185
 21
259.232
  0
LINE
  8
0
 10
-17.1185
 20
259.232
 11
-17.1353
 21
259.5
  0
LINE
  8
0
 10
-17.1353
 20
259.5
 11
-17.1185
 21
259.768
  0
LINE
  8
0
 10
-17.1185
 20
259.768
 11
-17.0682
 21
260.031
  0
LINE
  8
0
 10
-17.0682
 20
260.031
 11
-16.9853
 21
260.286
  0
LINE
  8
0
 10
-16.9853
 20
260.286
 11
-16.8712
 21
260.529
  0
LINE
  8
0
 10
-16.8712
 20
260.529
 11
-16.7275
 21
260.755
  0
LINE
  8
0
 10
-16.7275
 20
260.755
 11
-16.5565
 21
260.962
  0
LINE
  8
0
 10
-16.5565
 20
260.962
 11
-16.3611
 21
261.145
  0
LINE
  8
0
 10
-16.3611
 20
261.145
 11
-16.1441
 21
261.303
  0
LINE
  8
0
 10
-16.1441
 20
261.303
 11
-15.9091
 21
261.432
  0
LINE
  8
0
 10
-15.9091
 20
261.432
 11
-15.6598
 21
261.531
  0
LINE
  8
0
 10
-15.6598
 20
261.531
 11
-15.4001
 21
261.597
  0
LINE
  8
0
 10
-15.4001
 20
261.597
 11
-15.1341
 21
261.631
  0
LINE
  8
0
 10
-15.1341
 20
261.631
 11
-14.8659
 21
261.631
  0
LINE
  8
0
 10
-14.8659
 20
261.631
 11
-14.5999
 21
261.597
  0
LINE
  8
0
 10
-14.5999
 20
261.597
 11
-14.3401
 21
261.531
  0
LINE
  8
0
 10
-14.3401
 20
261.531
 11
-14.0908
 21
261.432
  0
LINE
  8
0
 10
-14.0908
 20
261.432
 11
-13.8559
 21
261.303
  0
LINE
  8
0
 10
-13.8559
 20
261.303
 11
-13.6389
 21
261.145
  0
LINE
  8
0
 10
-13.6389
 20
261.145
 11
-13.4434
 21
260.962
  0
LINE
  8
0
 10
-13.4434
 20
260.962
 11
-13.2725
 21
260.755
  0
LINE
  8
0
 10
-13.2725
 20
260.755
 11
-13.1288
 21
260.529
  0
LINE
  8
0
 10
-13.1288
 20
260.529
 11
-13.0146
 21
260.286
  0
LINE
  8
0
 10
-13.0146
 20
260.286
 11
-12.9318
 21
260.031
  0
LINE
  8
0
 10
-12.9318
 20
260.031
 11
-12.8815
 21
259.768
  0
LINE
  8
0
 10
-12.8815
 20
259.768
 11
-12.8647
 21
259.5
  0
LINE
  8
0
 10
-12.8647
 20
259.5
 11
-12.8815
 21
259.232
  0
LINE
  8
0
 10
-12.8815
 20
259.232
 11
-12.9318
 21
258.969
  0
LINE
  8
0
 10
-12.9318
 20
258.969
 11
-13.0146
 21
258.714
  0
LINE
  8
0
 10
-13.0146
 20
258.714
 11
-13.1288
 21
258.471
  0
LINE
  8
0
 10
-13.1288
 20
258.471
 11
-13.2725
 21
258.245
  0
LINE
  8
0
 10
-13.2725
 20
258.245
 11
-13.4434
 21
258.038
  0
LINE
  8
0
 10
-13.4434
 20
258.038
 11
-13.6389
 21
257.855
  0
LINE
  8
0
 10
-13.6389
 20
257.855
 11
-13.8559
 21
257.697
  0
LINE
  8
0
 10
-13.8559
 20
257.697
 11
-14.0908
 21
257.568
  0
LINE
  8
0
 10
-14.0908
 20
257.568
 11
-14.3401
 21
257.469
  0
LINE
  8
0
 10
-14.3401
 20
257.469
 11
-14.5999
 21
257.403
  0
LINE
  8
0
 10
-14.5999
 20
257.403
 11
-14.8659
 21
257.369
  0
LINE
  8
0
 10
-14.8659
 20
257.369
 11
-15.1341
 21
257.369
  0
ENDSEC
  0
SECTION
  2
OBJECTS
  0
DICTIONARY
  0
ENDSEC
  0
EOF
