<?xml version="1.0" standalone="no"?>
<!DOCTYPE svg PUBLIC "-//W3C//DTD SVG 1.1//EN" "http://www.w3.org/Graphics/SVG/1.1/DTD/svg11.dtd">
<svg width="46mm" height="334mm" viewBox="-23 -623 46 334" xmlns="http://www.w3.org/2000/svg" version="1.1">
<title>OpenSCAD Model</title>
<path d="
M 18.4369,-517.589 L 19.0451,-517.745 L 19.6289,-517.976 L 20.1791,-518.278 L 20.6871,-518.647 L 21.1448,-519.077
 L 21.5451,-519.561 L 21.8815,-520.091 L 22.1489,-520.659 L 22.3429,-521.257 L 22.4606,-521.873 L 22.5,-522.5
 L 22.5,-617.5 L 22.4606,-618.127 L 22.3429,-618.743 L 22.1489,-619.341 L 21.8815,-619.909 L 21.5451,-620.439
 L 21.1448,-620.923 L 20.6871,-621.353 L 20.1791,-621.722 L 19.6289,-622.024 L 19.0451,-622.255 L 18.4369,-622.411
 L 17.8139,-622.49 L -17.8139,-622.49 L -18.4369,-622.411 L -19.0451,-622.255 L -19.6289,-622.024 L -20.1791,-621.722
 L -20.6871,-621.353 L -21.1448,-620.923 L -21.5451,-620.439 L -21.8815,-619.909 L -22.1489,-619.341 L -22.3429,-618.743
 L -22.4606,-618.127 L -22.5,-617.5 L -22.5,-522.5 L -22.4606,-521.873 L -22.3429,-521.257 L -22.1489,-520.659
 L -21.8815,-520.091 L -21.5451,-519.561 L -21.1448,-519.077 L -20.6871,-518.647 L -20.1791,-518.278 L -19.6289,-517.976
 L -19.0451,-517.745 L -18.4369,-517.589 L -17.8139,-517.51 L 17.8139,-517.51 z
M -17.2512,-519.008 L -17.7495,-519.071 L -18.2361,-519.196 L -18.7031,-519.381 L -19.1433,-519.623 L -19.5497,-519.918
 L -19.9159,-520.262 L -20.2361,-520.649 L -20.5052,-521.073 L -20.7191,-521.528 L -20.8743,-522.005 L -20.9684,-522.499
 L -21,-523 L -21,-617 L -20.9684,-617.501 L -20.8743,-617.995 L -20.7191,-618.472 L -20.5052,-618.927
 L -20.2361,-619.351 L -19.9159,-619.738 L -19.5497,-620.082 L -19.1433,-620.377 L -18.7031,-620.619 L -18.2361,-620.804
 L -17.7495,-620.929 L -17.2512,-620.992 L 17.2512,-620.992 L 17.7495,-620.929 L 18.2361,-620.804 L 18.7031,-620.619
 L 19.1433,-620.377 L 19.5497,-620.082 L 19.9159,-619.738 L 20.2361,-619.351 L 20.5052,-618.927 L 20.7191,-618.472
 L 20.8743,-617.995 L 20.9684,-617.501 L 21,-617 L 21,-523 L 20.9684,-522.499 L 20.8743,-522.005
 L 20.7191,-521.528 L 20.5052,-521.073 L 20.2361,-520.649 L 19.9159,-520.262 L 19.5497,-519.918 L 19.1433,-519.623
 L 18.7031,-519.381 L 18.2361,-519.196 L 17.7495,-519.071 L 17.2512,-519.008 z
M 18.4369,-403.589 L 19.0451,-403.745 L 19.6289,-403.976 L 20.1791,-404.278 L 20.6871,-404.647 L 21.1448,-405.077
 L 21.5451,-405.561 L 21.8815,-406.091 L 22.1489,-406.659 L 22.3429,-407.257 L 22.4606,-407.873 L 22.5,-408.5
 L 22.5,-503.5 L 22.4606,-504.127 L 22.3429,-504.743 L 22.1489,-505.341 L 21.8815,-505.909 L 21.5451,-506.439
 L 21.1448,-506.923 L 20.6871,-507.353 L 20.1791,-507.722 L 19.6289,-508.024 L 19.0451,-508.255 L 18.4369,-508.411
 L 17.8139,-508.49 L -17.8139,-508.49 L -18.4369,-508.411 L -19.0451,-508.255 L -19.6289,-508.024 L -20.1791,-507.722
 L -20.6871,-507.353 L -21.1448,-506.923 L -21.5451,-506.439 L -21.8815,-505.909 L -22.1489,-505.341 L -22.3429,-504.743
 L -22.4606,-504.127 L -22.5,-503.5 L -22.5,-408.5 L -22.4606,-407.873 L -22.3429,-407.257 L -22.1489,-406.659
 L -21.8815,-406.091 L -21.5451,-405.561 L -21.1448,-405.077 L -20.6871,-404.647 L -20.1791,-404.278 L -19.6289,-403.976
 L -19.0451,-403.745 L -18.4369,-403.589 L -17.8139,-403.51 L 17.8139,-403.51 z
M -17.1954,-405.893 L -17.5833,-405.942 L -17.9619,-406.039 L -18.3254,-406.183 L -18.668,-406.372 L -18.9842,-406.601
 L -19.2692,-406.869 L -19.5184,-407.17 L -19.7279,-407.5 L -19.8943,-407.854 L -20.0151,-408.226 L -20.0884,-408.61
 L -20.1129,-409 L -20.1129,-503 L -20.0884,-503.39 L -20.0151,-503.774 L -19.8943,-504.146 L -19.7279,-504.5
 L -19.5184,-504.83 L -19.2692,-505.131 L -18.9842,-505.399 L -18.668,-505.628 L -18.3254,-505.817 L -17.9619,-505.961
 L -17.5833,-506.058 L -17.1954,-506.107 L 17.1954,-506.107 L 17.5833,-506.058 L 17.9619,-505.961 L 18.3254,-505.817
 L 18.668,-505.628 L 18.9842,-505.399 L 19.2692,-505.131 L 19.5184,-504.83 L 19.7279,-504.5 L 19.8943,-504.146
 L 20.0151,-503.774 L 20.0884,-503.39 L 20.1129,-503 L 20.1129,-409 L 20.0884,-408.61 L 20.0151,-408.226
 L 19.8943,-407.854 L 19.7279,-407.5 L 19.5184,-407.17 L 19.2692,-406.869 L 18.9842,-406.601 L 18.668,-406.372
 L 18.3254,-406.183 L 17.9619,-406.039 L 17.5833,-405.942 L 17.1954,-405.893 z
M 18.4369,-289.589 L 19.0451,-289.745 L 19.6289,-289.976 L 20.1791,-290.278 L 20.6871,-290.647 L 21.1448,-291.077
 L 21.5451,-291.561 L 21.8815,-292.091 L 22.1489,-292.659 L 22.3429,-293.257 L 22.4606,-293.873 L 22.5,-294.5
 L 22.5,-389.5 L 22.4606,-390.127 L 22.3429,-390.743 L 22.1489,-391.341 L 21.8815,-391.909 L 21.5451,-392.439
 L 21.1448,-392.923 L 20.6871,-393.353 L 20.1791,-393.722 L 19.6289,-394.024 L 19.0451,-394.255 L 18.4369,-394.411
 L 17.8139,-394.49 L -17.8139,-394.49 L -18.4369,-394.411 L -19.0451,-394.255 L -19.6289,-394.024 L -20.1791,-393.722
 L -20.6871,-393.353 L -21.1448,-392.923 L -21.5451,-392.439 L -21.8815,-391.909 L -22.1489,-391.341 L -22.3429,-390.743
 L -22.4606,-390.127 L -22.5,-389.5 L -22.5,-294.5 L -22.4606,-293.873 L -22.3429,-293.257 L -22.1489,-292.659
 L -21.8815,-292.091 L -21.5451,-291.561 L -21.1448,-291.077 L -20.6871,-290.647 L -20.1791,-290.278 L -19.6289,-289.976
 L -19.0451,-289.745 L -18.4369,-289.589 L -17.8139,-289.51 L 17.8139,-289.51 z
M 14.8659,-384.869 L 14.5999,-384.903 L 14.3401,-384.969 L 14.0908,-385.068 L 13.8559,-385.197 L 13.6389,-385.355
 L 13.4434,-385.538 L 13.2725,-385.745 L 13.1288,-385.971 L 13.0146,-386.214 L 12.9318,-386.469 L 12.8815,-386.732
 L 12.8647,-387 L 12.8815,-387.268 L 12.9318,-387.531 L 13.0146,-387.786 L 13.1288,-388.029 L 13.2725,-388.255
 L 13.4434,-388.462 L 13.6389,-388.645 L 13.8559,-388.803 L 14.0908,-388.932 L 14.3401,-389.031 L 14.5999,-389.097
 L 14.8659,-389.131 L 15.1341,-389.131 L 15.4001,-389.097 L 15.6598,-389.031 L 15.9091,-388.932 L 16.1441,-388.803
 L 16.3611,-388.645 L 16.5565,-388.462 L 16.7275,-388.255 L 16.8712,-388.029 L 16.9853,-387.786 L 17.0682,-387.531
 L 17.1185,-387.268 L 17.1353,-387 L 17.1185,-386.732 L 17.0682,-386.469 L 16.9853,-386.214 L 16.8712,-385.971
 L 16.7275,-385.745 L 16.5565,-385.538 L 16.3611,-385.355 L 16.1441,-385.197 L 15.9091,-385.068 L 15.6598,-384.969
 L 15.4001,-384.903 L 15.1341,-384.869 z
M -15.1341,-384.869 L -15.4001,-384.903 L -15.6598,-384.969 L -15.9091,-385.068 L -16.1441,-385.197 L -16.3611,-385.355
 L -16.5565,-385.538 L -16.7275,-385.745 L -16.8712,-385.971 L -16.9853,-386.214 L -17.0682,-386.469 L -17.1185,-386.732
 L -17.1353,-387 L -17.1185,-387.268 L -17.0682,-387.531 L -16.9853,-387.786 L -16.8712,-388.029 L -16.7275,-388.255
 L -16.5565,-388.462 L -16.3611,-388.645 L -16.1441,-388.803 L -15.9091,-388.932 L -15.6598,-389.031 L -15.4001,-389.097
 L -15.1341,-389.131 L -14.8659,-389.131 L -14.5999,-389.097 L -14.3401,-389.031 L -14.0908,-388.932 L -13.8559,-388.803
 L -13.6389,-388.645 L -13.4434,-388.462 L -13.2725,-388.255 L -13.1288,-388.029 L -13.0146,-387.786 L -12.9318,-387.531
 L -12.8815,-387.268 L -12.8647,-387 L -12.8815,-386.732 L -12.9318,-386.469 L -13.0146,-386.214 L -13.1288,-385.971
 L -13.2725,-385.745 L -13.4434,-385.538 L -13.6389,-385.355 L -13.8559,-385.197 L -14.0908,-385.068 L -14.3401,-384.969
 L -14.5999,-384.903 L -14.8659,-384.869 z
M 14.8659,-294.869 L 14.5999,-294.903 L 14.3401,-294.969 L 14.0908,-295.068 L 13.8559,-295.197 L 13.6389,-295.355
 L 13.4434,-295.538 L 13.2725,-295.745 L 13.1288,-295.971 L 13.0146,-296.214 L 12.9318,-296.469 L 12.8815,-296.732
 L 12.8647,-297 L 12.8815,-297.268 L 12.9318,-297.531 L 13.0146,-297.786 L 13.1288,-298.029 L 13.2725,-298.255
 L 13.4434,-298.462 L 13.6389,-298.645 L 13.8559,-298.803 L 14.0908,-298.932 L 14.3401,-299.031 L 14.5999,-299.097
 L 14.8659,-299.131 L 15.1341,-299.131 L 15.4001,-299.097 L 15.6598,-299.031 L 15.9091,-298.932 L 16.1441,-298.803
 L 16.3611,-298.645 L 16.5565,-298.462 L 16.7275,-298.255 L 16.8712,-298.029 L 16.9853,-297.786 L 17.0682,-297.531
 L 17.1185,-297.268 L 17.1353,-297 L 17.1185,-296.732 L 17.0682,-296.469 L 16.9853,-296.214 L 16.8712,-295.971
 L 16.7275,-295.745 L 16.5565,-295.538 L 16.3611,-295.355 L 16.1441,-295.197 L 15.9091,-295.068 L 15.6598,-294.969
 L 15.4001,-294.903 L 15.1341,-294.869 z
M -15.1341,-294.869 L -15.4001,-294.903 L -15.6598,-294.969 L -15.9091,-295.068 L -16.1441,-295.197 L -16.3611,-295.355
 L -16.5565,-295.538 L -16.7275,-295.745 L -16.8712,-295.971 L -16.9853,-296.214 L -17.0682,-296.469 L -17.1185,-296.732
 L -17.1353,-297 L -17.1185,-297.268 L -17.0682,-297.531 L -16.9853,-297.786 L -16.8712,-298.029 L -16.7275,-298.255
 L -16.5565,-298.462 L -16.3611,-298.645 L -16.1441,-298.803 L -15.9091,-298.932 L -15.6598,-299.031 L -15.4001,-299.097
 L -15.1341,-299.131 L -14.8659,-299.131 L -14.5999,-299.097 L -14.3401,-299.031 L -14.0908,-298.932 L -13.8559,-298.803
 L -13.6389,-298.645 L -13.4434,-298.462 L -13.2725,-298.255 L -13.1288,-298.029 L -13.0146,-297.786 L -12.9318,-297.531
 L -12.8815,-297.268 L -12.8647,-297 L -12.8815,-296.732 L -12.9318,-296.469 L -13.0146,-296.214 L -13.1288,-295.971
 L -13.2725,-295.745 L -13.4434,-295.538 L -13.6389,-295.355 L -13.8559,-295.197 L -14.0908,-295.068 L -14.3401,-294.969
 L -14.5999,-294.903 L -14.8659,-294.869 z
" stroke="black" fill="lightgray" stroke-width="0.5"/>
</svg>
