  0
SECTION
  2
BLOCKS
  0
ENDSEC
  0
SECTION
  2
ENTITIES
  0
LINE
  8
0
 10
78.4369
 20
63.0886
 11
79.0451
 21
63.2447
  0
LINE
  8
0
 10
79.0451
 20
63.2447
 11
79.6289
 21
63.4759
  0
LINE
  8
0
 10
79.6289
 20
63.4759
 11
80.1791
 21
63.7784
  0
LINE
  8
0
 10
80.1791
 20
63.7784
 11
80.6871
 21
64.1474
  0
LINE
  8
0
 10
80.6871
 20
64.1474
 11
81.1448
 21
64.5773
  0
LINE
  8
0
 10
81.1448
 20
64.5773
 11
81.5451
 21
65.0611
  0
LINE
  8
0
 10
81.5451
 20
65.0611
 11
81.8815
 21
65.5912
  0
LINE
  8
0
 10
81.8815
 20
65.5912
 11
82.1489
 21
66.1594
  0
LINE
  8
0
 10
82.1489
 20
66.1594
 11
82.3429
 21
66.7566
  0
LINE
  8
0
 10
82.3429
 20
66.7566
 11
82.4606
 21
67.3733
  0
LINE
  8
0
 10
82.4606
 20
67.3733
 11
82.5
 21
68
  0
LINE
  8
0
 10
82.5
 20
68
 11
82.5
 21
88
  0
LINE
  8
0
 10
82.5
 20
88
 11
82.4606
 21
88.6267
  0
LINE
  8
0
 10
82.4606
 20
88.6267
 11
82.3429
 21
89.2434
  0
LINE
  8
0
 10
82.3429
 20
89.2434
 11
82.1489
 21
89.8406
  0
LINE
  8
0
 10
82.1489
 20
89.8406
 11
81.8815
 21
90.4088
  0
LINE
  8
0
 10
81.8815
 20
90.4088
 11
81.5451
 21
90.9389
  0
LINE
  8
0
 10
81.5451
 20
90.9389
 11
81.1448
 21
91.4227
  0
LINE
  8
0
 10
81.1448
 20
91.4227
 11
80.6871
 21
91.8526
  0
LINE
  8
0
 10
80.6871
 20
91.8526
 11
80.1791
 21
92.2216
  0
LINE
  8
0
 10
80.1791
 20
92.2216
 11
79.6289
 21
92.5241
  0
LINE
  8
0
 10
79.6289
 20
92.5241
 11
79.0451
 21
92.7553
  0
LINE
  8
0
 10
79.0451
 20
92.7553
 11
78.4369
 21
92.9114
  0
LINE
  8
0
 10
78.4369
 20
92.9114
 11
77.8139
 21
92.9901
  0
LINE
  8
0
 10
77.8139
 20
92.9901
 11
-77.8139
 21
92.9901
  0
LINE
  8
0
 10
-77.8139
 20
92.9901
 11
-78.4369
 21
92.9114
  0
LINE
  8
0
 10
-78.4369
 20
92.9114
 11
-79.0451
 21
92.7553
  0
LINE
  8
0
 10
-79.0451
 20
92.7553
 11
-79.6289
 21
92.5241
  0
LINE
  8
0
 10
-79.6289
 20
92.5241
 11
-80.1791
 21
92.2216
  0
LINE
  8
0
 10
-80.1791
 20
92.2216
 11
-80.6871
 21
91.8526
  0
LINE
  8
0
 10
-80.6871
 20
91.8526
 11
-81
 21
91.5587
  0
LINE
  8
0
 10
-81
 20
91.5587
 11
-81
 21
92.6148
  0
LINE
  8
0
 10
-81
 20
92.6148
 11
-84
 21
92.6148
  0
LINE
  8
0
 10
-84
 20
92.6148
 11
-84
 21
63.3852
  0
LINE
  8
0
 10
-84
 20
63.3852
 11
-81
 21
63.3852
  0
LINE
  8
0
 10
-81
 20
63.3852
 11
-81
 21
64.4413
  0
LINE
  8
0
 10
-81
 20
64.4413
 11
-80.6871
 21
64.1474
  0
LINE
  8
0
 10
-80.6871
 20
64.1474
 11
-80.1791
 21
63.7784
  0
LINE
  8
0
 10
-80.1791
 20
63.7784
 11
-79.6289
 21
63.4759
  0
LINE
  8
0
 10
-79.6289
 20
63.4759
 11
-79.0451
 21
63.2447
  0
LINE
  8
0
 10
-79.0451
 20
63.2447
 11
-78.4369
 21
63.0886
  0
LINE
  8
0
 10
-78.4369
 20
63.0886
 11
-77.8139
 21
63.0099
  0
LINE
  8
0
 10
-77.8139
 20
63.0099
 11
77.8139
 21
63.0099
  0
LINE
  8
0
 10
77.8139
 20
63.0099
 11
78.4369
 21
63.0886
  0
LINE
  8
0
 10
78.4369
 20
24.0886
 11
79.0451
 21
24.2447
  0
LINE
  8
0
 10
79.0451
 20
24.2447
 11
79.6289
 21
24.4759
  0
LINE
  8
0
 10
79.6289
 20
24.4759
 11
80.1791
 21
24.7784
  0
LINE
  8
0
 10
80.1791
 20
24.7784
 11
80.6871
 21
25.1474
  0
LINE
  8
0
 10
80.6871
 20
25.1474
 11
81.1448
 21
25.5773
  0
LINE
  8
0
 10
81.1448
 20
25.5773
 11
81.5451
 21
26.0611
  0
LINE
  8
0
 10
81.5451
 20
26.0611
 11
81.8815
 21
26.5912
  0
LINE
  8
0
 10
81.8815
 20
26.5912
 11
82.1489
 21
27.1594
  0
LINE
  8
0
 10
82.1489
 20
27.1594
 11
82.3429
 21
27.7566
  0
LINE
  8
0
 10
82.3429
 20
27.7566
 11
82.4606
 21
28.3733
  0
LINE
  8
0
 10
82.4606
 20
28.3733
 11
82.5
 21
29
  0
LINE
  8
0
 10
82.5
 20
29
 11
82.5
 21
49
  0
LINE
  8
0
 10
82.5
 20
49
 11
82.4606
 21
49.6267
  0
LINE
  8
0
 10
82.4606
 20
49.6267
 11
82.3429
 21
50.2434
  0
LINE
  8
0
 10
82.3429
 20
50.2434
 11
82.1489
 21
50.8406
  0
LINE
  8
0
 10
82.1489
 20
50.8406
 11
81.8815
 21
51.4088
  0
LINE
  8
0
 10
81.8815
 20
51.4088
 11
81.5451
 21
51.9389
  0
LINE
  8
0
 10
81.5451
 20
51.9389
 11
81.1448
 21
52.4227
  0
LINE
  8
0
 10
81.1448
 20
52.4227
 11
80.6871
 21
52.8526
  0
LINE
  8
0
 10
80.6871
 20
52.8526
 11
80.1791
 21
53.2216
  0
LINE
  8
0
 10
80.1791
 20
53.2216
 11
79.6289
 21
53.5241
  0
LINE
  8
0
 10
79.6289
 20
53.5241
 11
79.0451
 21
53.7553
  0
LINE
  8
0
 10
79.0451
 20
53.7553
 11
78.4369
 21
53.9114
  0
LINE
  8
0
 10
78.4369
 20
53.9114
 11
77.8139
 21
53.9901
  0
LINE
  8
0
 10
77.8139
 20
53.9901
 11
-77.8139
 21
53.9901
  0
LINE
  8
0
 10
-77.8139
 20
53.9901
 11
-78.4369
 21
53.9114
  0
LINE
  8
0
 10
-78.4369
 20
53.9114
 11
-79.0451
 21
53.7553
  0
LINE
  8
0
 10
-79.0451
 20
53.7553
 11
-79.6289
 21
53.5241
  0
LINE
  8
0
 10
-79.6289
 20
53.5241
 11
-80.1791
 21
53.2216
  0
LINE
  8
0
 10
-80.1791
 20
53.2216
 11
-80.6871
 21
52.8526
  0
LINE
  8
0
 10
-80.6871
 20
52.8526
 11
-81.1448
 21
52.4227
  0
LINE
  8
0
 10
-81.1448
 20
52.4227
 11
-81.5451
 21
51.9389
  0
LINE
  8
0
 10
-81.5451
 20
51.9389
 11
-81.8815
 21
51.4088
  0
LINE
  8
0
 10
-81.8815
 20
51.4088
 11
-82.1489
 21
50.8406
  0
LINE
  8
0
 10
-82.1489
 20
50.8406
 11
-82.3429
 21
50.2434
  0
LINE
  8
0
 10
-82.3429
 20
50.2434
 11
-82.4
 21
49.9442
  0
LINE
  8
0
 10
-82.4
 20
49.9442
 11
-84
 21
49.9442
  0
LINE
  8
0
 10
-84
 20
49.9442
 11
-84
 21
28.0558
  0
LINE
  8
0
 10
-84
 20
28.0558
 11
-82.4
 21
28.0558
  0
LINE
  8
0
 10
-82.4
 20
28.0558
 11
-82.3429
 21
27.7566
  0
LINE
  8
0
 10
-82.3429
 20
27.7566
 11
-82.1489
 21
27.1594
  0
LINE
  8
0
 10
-82.1489
 20
27.1594
 11
-81.8815
 21
26.5912
  0
LINE
  8
0
 10
-81.8815
 20
26.5912
 11
-81.5451
 21
26.0611
  0
LINE
  8
0
 10
-81.5451
 20
26.0611
 11
-81.1448
 21
25.5773
  0
LINE
  8
0
 10
-81.1448
 20
25.5773
 11
-80.6871
 21
25.1474
  0
LINE
  8
0
 10
-80.6871
 20
25.1474
 11
-80.1791
 21
24.7784
  0
LINE
  8
0
 10
-80.1791
 20
24.7784
 11
-79.6289
 21
24.4759
  0
LINE
  8
0
 10
-79.6289
 20
24.4759
 11
-79.0451
 21
24.2447
  0
LINE
  8
0
 10
-79.0451
 20
24.2447
 11
-78.4369
 21
24.0886
  0
LINE
  8
0
 10
-78.4369
 20
24.0886
 11
-77.8139
 21
24.0099
  0
LINE
  8
0
 10
-77.8139
 20
24.0099
 11
77.8139
 21
24.0099
  0
LINE
  8
0
 10
77.8139
 20
24.0099
 11
78.4369
 21
24.0886
  0
LINE
  8
0
 10
-75.113
 20
44.7036
 11
-75.3373
 21
44.7319
  0
LINE
  8
0
 10
-75.3373
 20
44.7319
 11
-75.5562
 21
44.7881
  0
LINE
  8
0
 10
-75.5562
 20
44.7881
 11
-75.7664
 21
44.8713
  0
LINE
  8
0
 10
-75.7664
 20
44.8713
 11
-75.9645
 21
44.9802
  0
LINE
  8
0
 10
-75.9645
 20
44.9802
 11
-76.1474
 21
45.1131
  0
LINE
  8
0
 10
-76.1474
 20
45.1131
 11
-76.3121
 21
45.2678
  0
LINE
  8
0
 10
-76.3121
 20
45.2678
 11
-76.4562
 21
45.442
  0
LINE
  8
0
 10
-76.4562
 20
45.442
 11
-76.5773
 21
45.6328
  0
LINE
  8
0
 10
-76.5773
 20
45.6328
 11
-76.6736
 21
45.8374
  0
LINE
  8
0
 10
-76.6736
 20
45.8374
 11
-76.7434
 21
46.0524
  0
LINE
  8
0
 10
-76.7434
 20
46.0524
 11
-76.7858
 21
46.2744
  0
LINE
  8
0
 10
-76.7858
 20
46.2744
 11
-76.8
 21
46.5
  0
LINE
  8
0
 10
-76.8
 20
46.5
 11
-76.7858
 21
46.7256
  0
LINE
  8
0
 10
-76.7858
 20
46.7256
 11
-76.7434
 21
46.9476
  0
LINE
  8
0
 10
-76.7434
 20
46.9476
 11
-76.6736
 21
47.1626
  0
LINE
  8
0
 10
-76.6736
 20
47.1626
 11
-76.5773
 21
47.3671
  0
LINE
  8
0
 10
-76.5773
 20
47.3671
 11
-76.4562
 21
47.558
  0
LINE
  8
0
 10
-76.4562
 20
47.558
 11
-76.3121
 21
47.7322
  0
LINE
  8
0
 10
-76.3121
 20
47.7322
 11
-76.1474
 21
47.8869
  0
LINE
  8
0
 10
-76.1474
 20
47.8869
 11
-75.9645
 21
48.0198
  0
LINE
  8
0
 10
-75.9645
 20
48.0198
 11
-75.7664
 21
48.1287
  0
LINE
  8
0
 10
-75.7664
 20
48.1287
 11
-75.5562
 21
48.2119
  0
LINE
  8
0
 10
-75.5562
 20
48.2119
 11
-75.3373
 21
48.2681
  0
LINE
  8
0
 10
-75.3373
 20
48.2681
 11
-75.113
 21
48.2964
  0
LINE
  8
0
 10
-75.113
 20
48.2964
 11
-74.887
 21
48.2964
  0
LINE
  8
0
 10
-74.887
 20
48.2964
 11
-74.6627
 21
48.2681
  0
LINE
  8
0
 10
-74.6627
 20
48.2681
 11
-74.4438
 21
48.2119
  0
LINE
  8
0
 10
-74.4438
 20
48.2119
 11
-74.2336
 21
48.1287
  0
LINE
  8
0
 10
-74.2336
 20
48.1287
 11
-74.0355
 21
48.0198
  0
LINE
  8
0
 10
-74.0355
 20
48.0198
 11
-73.8526
 21
47.8869
  0
LINE
  8
0
 10
-73.8526
 20
47.8869
 11
-73.6879
 21
47.7322
  0
LINE
  8
0
 10
-73.6879
 20
47.7322
 11
-73.5438
 21
47.558
  0
LINE
  8
0
 10
-73.5438
 20
47.558
 11
-73.4226
 21
47.3671
  0
LINE
  8
0
 10
-73.4226
 20
47.3671
 11
-73.3264
 21
47.1626
  0
LINE
  8
0
 10
-73.3264
 20
47.1626
 11
-73.2565
 21
46.9476
  0
LINE
  8
0
 10
-73.2565
 20
46.9476
 11
-73.2142
 21
46.7256
  0
LINE
  8
0
 10
-73.2142
 20
46.7256
 11
-73.2
 21
46.5
  0
LINE
  8
0
 10
-73.2
 20
46.5
 11
-73.2142
 21
46.2744
  0
LINE
  8
0
 10
-73.2142
 20
46.2744
 11
-73.2565
 21
46.0524
  0
LINE
  8
0
 10
-73.2565
 20
46.0524
 11
-73.3264
 21
45.8374
  0
LINE
  8
0
 10
-73.3264
 20
45.8374
 11
-73.4226
 21
45.6328
  0
LINE
  8
0
 10
-73.4226
 20
45.6328
 11
-73.5438
 21
45.442
  0
LINE
  8
0
 10
-73.5438
 20
45.442
 11
-73.6879
 21
45.2678
  0
LINE
  8
0
 10
-73.6879
 20
45.2678
 11
-73.8526
 21
45.1131
  0
LINE
  8
0
 10
-73.8526
 20
45.1131
 11
-74.0355
 21
44.9802
  0
LINE
  8
0
 10
-74.0355
 20
44.9802
 11
-74.2336
 21
44.8713
  0
LINE
  8
0
 10
-74.2336
 20
44.8713
 11
-74.4438
 21
44.7881
  0
LINE
  8
0
 10
-74.4438
 20
44.7881
 11
-74.6627
 21
44.7319
  0
LINE
  8
0
 10
-74.6627
 20
44.7319
 11
-74.887
 21
44.7036
  0
LINE
  8
0
 10
-74.887
 20
44.7036
 11
-75.113
 21
44.7036
  0
LINE
  8
0
 10
74.887
 20
44.7036
 11
74.6627
 21
44.7319
  0
LINE
  8
0
 10
74.6627
 20
44.7319
 11
74.4438
 21
44.7881
  0
LINE
  8
0
 10
74.4438
 20
44.7881
 11
74.2336
 21
44.8713
  0
LINE
  8
0
 10
74.2336
 20
44.8713
 11
74.0355
 21
44.9802
  0
LINE
  8
0
 10
74.0355
 20
44.9802
 11
73.8526
 21
45.1131
  0
LINE
  8
0
 10
73.8526
 20
45.1131
 11
73.6879
 21
45.2678
  0
LINE
  8
0
 10
73.6879
 20
45.2678
 11
73.5438
 21
45.442
  0
LINE
  8
0
 10
73.5438
 20
45.442
 11
73.4226
 21
45.6328
  0
LINE
  8
0
 10
73.4226
 20
45.6328
 11
73.3264
 21
45.8374
  0
LINE
  8
0
 10
73.3264
 20
45.8374
 11
73.2565
 21
46.0524
  0
LINE
  8
0
 10
73.2565
 20
46.0524
 11
73.2142
 21
46.2744
  0
LINE
  8
0
 10
73.2142
 20
46.2744
 11
73.2
 21
46.5
  0
LINE
  8
0
 10
73.2
 20
46.5
 11
73.2142
 21
46.7256
  0
LINE
  8
0
 10
73.2142
 20
46.7256
 11
73.2565
 21
46.9476
  0
LINE
  8
0
 10
73.2565
 20
46.9476
 11
73.3264
 21
47.1626
  0
LINE
  8
0
 10
73.3264
 20
47.1626
 11
73.4226
 21
47.3671
  0
LINE
  8
0
 10
73.4226
 20
47.3671
 11
73.5438
 21
47.558
  0
LINE
  8
0
 10
73.5438
 20
47.558
 11
73.6879
 21
47.7322
  0
LINE
  8
0
 10
73.6879
 20
47.7322
 11
73.8526
 21
47.8869
  0
LINE
  8
0
 10
73.8526
 20
47.8869
 11
74.0355
 21
48.0198
  0
LINE
  8
0
 10
74.0355
 20
48.0198
 11
74.2336
 21
48.1287
  0
LINE
  8
0
 10
74.2336
 20
48.1287
 11
74.4438
 21
48.2119
  0
LINE
  8
0
 10
74.4438
 20
48.2119
 11
74.6627
 21
48.2681
  0
LINE
  8
0
 10
74.6627
 20
48.2681
 11
74.887
 21
48.2964
  0
LINE
  8
0
 10
74.887
 20
48.2964
 11
75.113
 21
48.2964
  0
LINE
  8
0
 10
75.113
 20
48.2964
 11
75.3373
 21
48.2681
  0
LINE
  8
0
 10
75.3373
 20
48.2681
 11
75.5562
 21
48.2119
  0
LINE
  8
0
 10
75.5562
 20
48.2119
 11
75.7664
 21
48.1287
  0
LINE
  8
0
 10
75.7664
 20
48.1287
 11
75.9645
 21
48.0198
  0
LINE
  8
0
 10
75.9645
 20
48.0198
 11
76.1474
 21
47.8869
  0
LINE
  8
0
 10
76.1474
 20
47.8869
 11
76.3121
 21
47.7322
  0
LINE
  8
0
 10
76.3121
 20
47.7322
 11
76.4562
 21
47.558
  0
LINE
  8
0
 10
76.4562
 20
47.558
 11
76.5773
 21
47.3671
  0
LINE
  8
0
 10
76.5773
 20
47.3671
 11
76.6736
 21
47.1626
  0
LINE
  8
0
 10
76.6736
 20
47.1626
 11
76.7434
 21
46.9476
  0
LINE
  8
0
 10
76.7434
 20
46.9476
 11
76.7858
 21
46.7256
  0
LINE
  8
0
 10
76.7858
 20
46.7256
 11
76.8
 21
46.5
  0
LINE
  8
0
 10
76.8
 20
46.5
 11
76.7858
 21
46.2744
  0
LINE
  8
0
 10
76.7858
 20
46.2744
 11
76.7434
 21
46.0524
  0
LINE
  8
0
 10
76.7434
 20
46.0524
 11
76.6736
 21
45.8374
  0
LINE
  8
0
 10
76.6736
 20
45.8374
 11
76.5773
 21
45.6328
  0
LINE
  8
0
 10
76.5773
 20
45.6328
 11
76.4562
 21
45.442
  0
LINE
  8
0
 10
76.4562
 20
45.442
 11
76.3121
 21
45.2678
  0
LINE
  8
0
 10
76.3121
 20
45.2678
 11
76.1474
 21
45.1131
  0
LINE
  8
0
 10
76.1474
 20
45.1131
 11
75.9645
 21
44.9802
  0
LINE
  8
0
 10
75.9645
 20
44.9802
 11
75.7664
 21
44.8713
  0
LINE
  8
0
 10
75.7664
 20
44.8713
 11
75.5562
 21
44.7881
  0
LINE
  8
0
 10
75.5562
 20
44.7881
 11
75.3373
 21
44.7319
  0
LINE
  8
0
 10
75.3373
 20
44.7319
 11
75.113
 21
44.7036
  0
LINE
  8
0
 10
75.113
 20
44.7036
 11
74.887
 21
44.7036
  0
LINE
  8
0
 10
-75.113
 20
29.7036
 11
-75.3373
 21
29.7319
  0
LINE
  8
0
 10
-75.3373
 20
29.7319
 11
-75.5562
 21
29.7881
  0
LINE
  8
0
 10
-75.5562
 20
29.7881
 11
-75.7664
 21
29.8713
  0
LINE
  8
0
 10
-75.7664
 20
29.8713
 11
-75.9645
 21
29.9802
  0
LINE
  8
0
 10
-75.9645
 20
29.9802
 11
-76.1474
 21
30.1131
  0
LINE
  8
0
 10
-76.1474
 20
30.1131
 11
-76.3121
 21
30.2678
  0
LINE
  8
0
 10
-76.3121
 20
30.2678
 11
-76.4562
 21
30.442
  0
LINE
  8
0
 10
-76.4562
 20
30.442
 11
-76.5773
 21
30.6329
  0
LINE
  8
0
 10
-76.5773
 20
30.6329
 11
-76.6736
 21
30.8374
  0
LINE
  8
0
 10
-76.6736
 20
30.8374
 11
-76.7434
 21
31.0524
  0
LINE
  8
0
 10
-76.7434
 20
31.0524
 11
-76.7858
 21
31.2744
  0
LINE
  8
0
 10
-76.7858
 20
31.2744
 11
-76.8
 21
31.5
  0
LINE
  8
0
 10
-76.8
 20
31.5
 11
-76.7858
 21
31.7256
  0
LINE
  8
0
 10
-76.7858
 20
31.7256
 11
-76.7434
 21
31.9476
  0
LINE
  8
0
 10
-76.7434
 20
31.9476
 11
-76.6736
 21
32.1626
  0
LINE
  8
0
 10
-76.6736
 20
32.1626
 11
-76.5773
 21
32.3672
  0
LINE
  8
0
 10
-76.5773
 20
32.3672
 11
-76.4562
 21
32.558
  0
LINE
  8
0
 10
-76.4562
 20
32.558
 11
-76.3121
 21
32.7322
  0
LINE
  8
0
 10
-76.3121
 20
32.7322
 11
-76.1474
 21
32.8869
  0
LINE
  8
0
 10
-76.1474
 20
32.8869
 11
-75.9645
 21
33.0198
  0
LINE
  8
0
 10
-75.9645
 20
33.0198
 11
-75.7664
 21
33.1287
  0
LINE
  8
0
 10
-75.7664
 20
33.1287
 11
-75.5562
 21
33.2119
  0
LINE
  8
0
 10
-75.5562
 20
33.2119
 11
-75.3373
 21
33.2681
  0
LINE
  8
0
 10
-75.3373
 20
33.2681
 11
-75.113
 21
33.2964
  0
LINE
  8
0
 10
-75.113
 20
33.2964
 11
-74.887
 21
33.2964
  0
LINE
  8
0
 10
-74.887
 20
33.2964
 11
-74.6627
 21
33.2681
  0
LINE
  8
0
 10
-74.6627
 20
33.2681
 11
-74.4438
 21
33.2119
  0
LINE
  8
0
 10
-74.4438
 20
33.2119
 11
-74.2336
 21
33.1287
  0
LINE
  8
0
 10
-74.2336
 20
33.1287
 11
-74.0355
 21
33.0198
  0
LINE
  8
0
 10
-74.0355
 20
33.0198
 11
-73.8526
 21
32.8869
  0
LINE
  8
0
 10
-73.8526
 20
32.8869
 11
-73.6879
 21
32.7322
  0
LINE
  8
0
 10
-73.6879
 20
32.7322
 11
-73.5438
 21
32.558
  0
LINE
  8
0
 10
-73.5438
 20
32.558
 11
-73.4226
 21
32.3672
  0
LINE
  8
0
 10
-73.4226
 20
32.3672
 11
-73.3264
 21
32.1626
  0
LINE
  8
0
 10
-73.3264
 20
32.1626
 11
-73.2565
 21
31.9476
  0
LINE
  8
0
 10
-73.2565
 20
31.9476
 11
-73.2142
 21
31.7256
  0
LINE
  8
0
 10
-73.2142
 20
31.7256
 11
-73.2
 21
31.5
  0
LINE
  8
0
 10
-73.2
 20
31.5
 11
-73.2142
 21
31.2744
  0
LINE
  8
0
 10
-73.2142
 20
31.2744
 11
-73.2565
 21
31.0524
  0
LINE
  8
0
 10
-73.2565
 20
31.0524
 11
-73.3264
 21
30.8374
  0
LINE
  8
0
 10
-73.3264
 20
30.8374
 11
-73.4226
 21
30.6329
  0
LINE
  8
0
 10
-73.4226
 20
30.6329
 11
-73.5438
 21
30.442
  0
LINE
  8
0
 10
-73.5438
 20
30.442
 11
-73.6879
 21
30.2678
  0
LINE
  8
0
 10
-73.6879
 20
30.2678
 11
-73.8526
 21
30.1131
  0
LINE
  8
0
 10
-73.8526
 20
30.1131
 11
-74.0355
 21
29.9802
  0
LINE
  8
0
 10
-74.0355
 20
29.9802
 11
-74.2336
 21
29.8713
  0
LINE
  8
0
 10
-74.2336
 20
29.8713
 11
-74.4438
 21
29.7881
  0
LINE
  8
0
 10
-74.4438
 20
29.7881
 11
-74.6627
 21
29.7319
  0
LINE
  8
0
 10
-74.6627
 20
29.7319
 11
-74.887
 21
29.7036
  0
LINE
  8
0
 10
-74.887
 20
29.7036
 11
-75.113
 21
29.7036
  0
LINE
  8
0
 10
74.887
 20
29.7036
 11
74.6627
 21
29.7319
  0
LINE
  8
0
 10
74.6627
 20
29.7319
 11
74.4438
 21
29.7881
  0
LINE
  8
0
 10
74.4438
 20
29.7881
 11
74.2336
 21
29.8713
  0
LINE
  8
0
 10
74.2336
 20
29.8713
 11
74.0355
 21
29.9802
  0
LINE
  8
0
 10
74.0355
 20
29.9802
 11
73.8526
 21
30.1131
  0
LINE
  8
0
 10
73.8526
 20
30.1131
 11
73.6879
 21
30.2678
  0
LINE
  8
0
 10
73.6879
 20
30.2678
 11
73.5438
 21
30.442
  0
LINE
  8
0
 10
73.5438
 20
30.442
 11
73.4226
 21
30.6329
  0
LINE
  8
0
 10
73.4226
 20
30.6329
 11
73.3264
 21
30.8374
  0
LINE
  8
0
 10
73.3264
 20
30.8374
 11
73.2565
 21
31.0524
  0
LINE
  8
0
 10
73.2565
 20
31.0524
 11
73.2142
 21
31.2744
  0
LINE
  8
0
 10
73.2142
 20
31.2744
 11
73.2
 21
31.5
  0
LINE
  8
0
 10
73.2
 20
31.5
 11
73.2142
 21
31.7256
  0
LINE
  8
0
 10
73.2142
 20
31.7256
 11
73.2565
 21
31.9476
  0
LINE
  8
0
 10
73.2565
 20
31.9476
 11
73.3264
 21
32.1626
  0
LINE
  8
0
 10
73.3264
 20
32.1626
 11
73.4226
 21
32.3672
  0
LINE
  8
0
 10
73.4226
 20
32.3672
 11
73.5438
 21
32.558
  0
LINE
  8
0
 10
73.5438
 20
32.558
 11
73.6879
 21
32.7322
  0
LINE
  8
0
 10
73.6879
 20
32.7322
 11
73.8526
 21
32.8869
  0
LINE
  8
0
 10
73.8526
 20
32.8869
 11
74.0355
 21
33.0198
  0
LINE
  8
0
 10
74.0355
 20
33.0198
 11
74.2336
 21
33.1287
  0
LINE
  8
0
 10
74.2336
 20
33.1287
 11
74.4438
 21
33.2119
  0
LINE
  8
0
 10
74.4438
 20
33.2119
 11
74.6627
 21
33.2681
  0
LINE
  8
0
 10
74.6627
 20
33.2681
 11
74.887
 21
33.2964
  0
LINE
  8
0
 10
74.887
 20
33.2964
 11
75.113
 21
33.2964
  0
LINE
  8
0
 10
75.113
 20
33.2964
 11
75.3373
 21
33.2681
  0
LINE
  8
0
 10
75.3373
 20
33.2681
 11
75.5562
 21
33.2119
  0
LINE
  8
0
 10
75.5562
 20
33.2119
 11
75.7664
 21
33.1287
  0
LINE
  8
0
 10
75.7664
 20
33.1287
 11
75.9645
 21
33.0198
  0
LINE
  8
0
 10
75.9645
 20
33.0198
 11
76.1474
 21
32.8869
  0
LINE
  8
0
 10
76.1474
 20
32.8869
 11
76.3121
 21
32.7322
  0
LINE
  8
0
 10
76.3121
 20
32.7322
 11
76.4562
 21
32.558
  0
LINE
  8
0
 10
76.4562
 20
32.558
 11
76.5773
 21
32.3672
  0
LINE
  8
0
 10
76.5773
 20
32.3672
 11
76.6736
 21
32.1626
  0
LINE
  8
0
 10
76.6736
 20
32.1626
 11
76.7434
 21
31.9476
  0
LINE
  8
0
 10
76.7434
 20
31.9476
 11
76.7858
 21
31.7256
  0
LINE
  8
0
 10
76.7858
 20
31.7256
 11
76.8
 21
31.5
  0
LINE
  8
0
 10
76.8
 20
31.5
 11
76.7858
 21
31.2744
  0
LINE
  8
0
 10
76.7858
 20
31.2744
 11
76.7434
 21
31.0524
  0
LINE
  8
0
 10
76.7434
 20
31.0524
 11
76.6736
 21
30.8374
  0
LINE
  8
0
 10
76.6736
 20
30.8374
 11
76.5773
 21
30.6329
  0
LINE
  8
0
 10
76.5773
 20
30.6329
 11
76.4562
 21
30.442
  0
LINE
  8
0
 10
76.4562
 20
30.442
 11
76.3121
 21
30.2678
  0
LINE
  8
0
 10
76.3121
 20
30.2678
 11
76.1474
 21
30.1131
  0
LINE
  8
0
 10
76.1474
 20
30.1131
 11
75.9645
 21
29.9802
  0
LINE
  8
0
 10
75.9645
 20
29.9802
 11
75.7664
 21
29.8713
  0
LINE
  8
0
 10
75.7664
 20
29.8713
 11
75.5562
 21
29.7881
  0
LINE
  8
0
 10
75.5562
 20
29.7881
 11
75.3373
 21
29.7319
  0
LINE
  8
0
 10
75.3373
 20
29.7319
 11
75.113
 21
29.7036
  0
LINE
  8
0
 10
75.113
 20
29.7036
 11
74.887
 21
29.7036
  0
ENDSEC
  0
SECTION
  2
OBJECTS
  0
DICTIONARY
  0
ENDSEC
  0
EOF
