  0
SECTION
  2
BLOCKS
  0
ENDSEC
  0
SECTION
  2
ENTITIES
  0
LINE
  8
0
 10
3.4369
 20
40.5886
 11
4.04507
 21
40.7447
  0
LINE
  8
0
 10
4.04507
 20
40.7447
 11
4.62889
 21
40.9759
  0
LINE
  8
0
 10
4.62889
 20
40.9759
 11
5.17912
 21
41.2784
  0
LINE
  8
0
 10
5.17912
 20
41.2784
 11
5.68712
 21
41.6474
  0
LINE
  8
0
 10
5.68712
 20
41.6474
 11
6.14484
 21
42.0773
  0
LINE
  8
0
 10
6.14484
 20
42.0773
 11
6.54507
 21
42.5611
  0
LINE
  8
0
 10
6.54507
 20
42.5611
 11
6.88153
 21
43.0912
  0
LINE
  8
0
 10
6.88153
 20
43.0912
 11
7.14888
 21
43.6594
  0
LINE
  8
0
 10
7.14888
 20
43.6594
 11
7.34291
 21
44.2566
  0
LINE
  8
0
 10
7.34291
 20
44.2566
 11
7.46057
 21
44.8733
  0
LINE
  8
0
 10
7.46057
 20
44.8733
 11
7.5
 21
45.5
  0
LINE
  8
0
 10
7.5
 20
45.5
 11
7.5
 21
50.5
  0
LINE
  8
0
 10
7.5
 20
50.5
 11
7.46057
 21
51.1267
  0
LINE
  8
0
 10
7.46057
 20
51.1267
 11
7.34291
 21
51.7434
  0
LINE
  8
0
 10
7.34291
 20
51.7434
 11
7.14888
 21
52.3406
  0
LINE
  8
0
 10
7.14888
 20
52.3406
 11
6.88153
 21
52.9088
  0
LINE
  8
0
 10
6.88153
 20
52.9088
 11
6.54507
 21
53.4389
  0
LINE
  8
0
 10
6.54507
 20
53.4389
 11
6.14484
 21
53.9227
  0
LINE
  8
0
 10
6.14484
 20
53.9227
 11
5.68712
 21
54.3526
  0
LINE
  8
0
 10
5.68712
 20
54.3526
 11
5.17912
 21
54.7216
  0
LINE
  8
0
 10
5.17912
 20
54.7216
 11
4.62889
 21
55.0241
  0
LINE
  8
0
 10
4.62889
 20
55.0241
 11
4.04507
 21
55.2553
  0
LINE
  8
0
 10
4.04507
 20
55.2553
 11
3.4369
 21
55.4114
  0
LINE
  8
0
 10
3.4369
 20
55.4114
 11
2.81395
 21
55.4901
  0
LINE
  8
0
 10
2.81395
 20
55.4901
 11
-2.81395
 21
55.4901
  0
LINE
  8
0
 10
-2.81395
 20
55.4901
 11
-3.4369
 21
55.4114
  0
LINE
  8
0
 10
-3.4369
 20
55.4114
 11
-4.04507
 21
55.2553
  0
LINE
  8
0
 10
-4.04507
 20
55.2553
 11
-4.62889
 21
55.0241
  0
LINE
  8
0
 10
-4.62889
 20
55.0241
 11
-5.17912
 21
54.7216
  0
LINE
  8
0
 10
-5.17912
 20
54.7216
 11
-5.68712
 21
54.3526
  0
LINE
  8
0
 10
-5.68712
 20
54.3526
 11
-6.14484
 21
53.9227
  0
LINE
  8
0
 10
-6.14484
 20
53.9227
 11
-6.54507
 21
53.4389
  0
LINE
  8
0
 10
-6.54507
 20
53.4389
 11
-6.88153
 21
52.9088
  0
LINE
  8
0
 10
-6.88153
 20
52.9088
 11
-7.14888
 21
52.3406
  0
LINE
  8
0
 10
-7.14888
 20
52.3406
 11
-7.34291
 21
51.7434
  0
LINE
  8
0
 10
-7.34291
 20
51.7434
 11
-7.46057
 21
51.1267
  0
LINE
  8
0
 10
-7.46057
 20
51.1267
 11
-7.5
 21
50.5
  0
LINE
  8
0
 10
-7.5
 20
50.5
 11
-7.5
 21
45.5
  0
LINE
  8
0
 10
-7.5
 20
45.5
 11
-7.46057
 21
44.8733
  0
LINE
  8
0
 10
-7.46057
 20
44.8733
 11
-7.34291
 21
44.2566
  0
LINE
  8
0
 10
-7.34291
 20
44.2566
 11
-7.14888
 21
43.6594
  0
LINE
  8
0
 10
-7.14888
 20
43.6594
 11
-6.88153
 21
43.0912
  0
LINE
  8
0
 10
-6.88153
 20
43.0912
 11
-6.54507
 21
42.5611
  0
LINE
  8
0
 10
-6.54507
 20
42.5611
 11
-6.14484
 21
42.0773
  0
LINE
  8
0
 10
-6.14484
 20
42.0773
 11
-5.68712
 21
41.6474
  0
LINE
  8
0
 10
-5.68712
 20
41.6474
 11
-5.17912
 21
41.2784
  0
LINE
  8
0
 10
-5.17912
 20
41.2784
 11
-4.62889
 21
40.9759
  0
LINE
  8
0
 10
-4.62889
 20
40.9759
 11
-4.04507
 21
40.7447
  0
LINE
  8
0
 10
-4.04507
 20
40.7447
 11
-3.4369
 21
40.5886
  0
LINE
  8
0
 10
-3.4369
 20
40.5886
 11
-2.81395
 21
40.5099
  0
LINE
  8
0
 10
-2.81395
 20
40.5099
 11
2.81395
 21
40.5099
  0
LINE
  8
0
 10
2.81395
 20
40.5099
 11
3.4369
 21
40.5886
  0
LINE
  8
0
 10
-2.49297
 20
41.8882
 11
-2.97505
 21
41.9491
  0
LINE
  8
0
 10
-2.97505
 20
41.9491
 11
-3.44572
 21
42.0699
  0
LINE
  8
0
 10
-3.44572
 20
42.0699
 11
-3.89754
 21
42.2488
  0
LINE
  8
0
 10
-3.89754
 20
42.2488
 11
-4.32336
 21
42.4829
  0
LINE
  8
0
 10
-4.32336
 20
42.4829
 11
-4.71649
 21
42.7685
  0
LINE
  8
0
 10
-4.71649
 20
42.7685
 11
-5.07071
 21
43.1012
  0
LINE
  8
0
 10
-5.07071
 20
43.1012
 11
-5.38046
 21
43.4756
  0
LINE
  8
0
 10
-5.38046
 20
43.4756
 11
-5.64084
 21
43.8859
  0
LINE
  8
0
 10
-5.64084
 20
43.8859
 11
-5.84773
 21
44.3256
  0
LINE
  8
0
 10
-5.84773
 20
44.3256
 11
-5.99789
 21
44.7877
  0
LINE
  8
0
 10
-5.99789
 20
44.7877
 11
-6.08896
 21
45.265
  0
LINE
  8
0
 10
-6.08896
 20
45.265
 11
-6.11946
 21
45.75
  0
LINE
  8
0
 10
-6.11946
 20
45.75
 11
-6.11946
 21
50.25
  0
LINE
  8
0
 10
-6.11946
 20
50.25
 11
-6.08896
 21
50.735
  0
LINE
  8
0
 10
-6.08896
 20
50.735
 11
-5.99789
 21
51.2123
  0
LINE
  8
0
 10
-5.99789
 20
51.2123
 11
-5.84773
 21
51.6744
  0
LINE
  8
0
 10
-5.84773
 20
51.6744
 11
-5.64084
 21
52.1141
  0
LINE
  8
0
 10
-5.64084
 20
52.1141
 11
-5.38046
 21
52.5244
  0
LINE
  8
0
 10
-5.38046
 20
52.5244
 11
-5.07071
 21
52.8988
  0
LINE
  8
0
 10
-5.07071
 20
52.8988
 11
-4.71649
 21
53.2315
  0
LINE
  8
0
 10
-4.71649
 20
53.2315
 11
-4.32336
 21
53.5171
  0
LINE
  8
0
 10
-4.32336
 20
53.5171
 11
-3.89754
 21
53.7512
  0
LINE
  8
0
 10
-3.89754
 20
53.7512
 11
-3.44572
 21
53.9301
  0
LINE
  8
0
 10
-3.44572
 20
53.9301
 11
-2.97505
 21
54.0509
  0
LINE
  8
0
 10
-2.97505
 20
54.0509
 11
-2.49297
 21
54.1118
  0
LINE
  8
0
 10
-2.49297
 20
54.1118
 11
2.49297
 21
54.1118
  0
LINE
  8
0
 10
2.49297
 20
54.1118
 11
2.97505
 21
54.0509
  0
LINE
  8
0
 10
2.97505
 20
54.0509
 11
3.44572
 21
53.9301
  0
LINE
  8
0
 10
3.44572
 20
53.9301
 11
3.89754
 21
53.7512
  0
LINE
  8
0
 10
3.89754
 20
53.7512
 11
4.32336
 21
53.5171
  0
LINE
  8
0
 10
4.32336
 20
53.5171
 11
4.71649
 21
53.2315
  0
LINE
  8
0
 10
4.71649
 20
53.2315
 11
5.07071
 21
52.8988
  0
LINE
  8
0
 10
5.07071
 20
52.8988
 11
5.38046
 21
52.5244
  0
LINE
  8
0
 10
5.38046
 20
52.5244
 11
5.64084
 21
52.1141
  0
LINE
  8
0
 10
5.64084
 20
52.1141
 11
5.84773
 21
51.6744
  0
LINE
  8
0
 10
5.84773
 20
51.6744
 11
5.99789
 21
51.2123
  0
LINE
  8
0
 10
5.99789
 20
51.2123
 11
6.08896
 21
50.735
  0
LINE
  8
0
 10
6.08896
 20
50.735
 11
6.11946
 21
50.25
  0
LINE
  8
0
 10
6.11946
 20
50.25
 11
6.11946
 21
45.75
  0
LINE
  8
0
 10
6.11946
 20
45.75
 11
6.08896
 21
45.265
  0
LINE
  8
0
 10
6.08896
 20
45.265
 11
5.99789
 21
44.7877
  0
LINE
  8
0
 10
5.99789
 20
44.7877
 11
5.84773
 21
44.3256
  0
LINE
  8
0
 10
5.84773
 20
44.3256
 11
5.64084
 21
43.8859
  0
LINE
  8
0
 10
5.64084
 20
43.8859
 11
5.38046
 21
43.4756
  0
LINE
  8
0
 10
5.38046
 20
43.4756
 11
5.07071
 21
43.1012
  0
LINE
  8
0
 10
5.07071
 20
43.1012
 11
4.71649
 21
42.7685
  0
LINE
  8
0
 10
4.71649
 20
42.7685
 11
4.32336
 21
42.4829
  0
LINE
  8
0
 10
4.32336
 20
42.4829
 11
3.89754
 21
42.2488
  0
LINE
  8
0
 10
3.89754
 20
42.2488
 11
3.44572
 21
42.0699
  0
LINE
  8
0
 10
3.44572
 20
42.0699
 11
2.97505
 21
41.9491
  0
LINE
  8
0
 10
2.97505
 20
41.9491
 11
2.49297
 21
41.8882
  0
LINE
  8
0
 10
2.49297
 20
41.8882
 11
-2.49297
 21
41.8882
  0
LINE
  8
0
 10
3.4369
 20
16.5886
 11
4.04507
 21
16.7447
  0
LINE
  8
0
 10
4.04507
 20
16.7447
 11
4.62889
 21
16.9759
  0
LINE
  8
0
 10
4.62889
 20
16.9759
 11
5.17912
 21
17.2784
  0
LINE
  8
0
 10
5.17912
 20
17.2784
 11
5.68712
 21
17.6474
  0
LINE
  8
0
 10
5.68712
 20
17.6474
 11
6.14484
 21
18.0773
  0
LINE
  8
0
 10
6.14484
 20
18.0773
 11
6.54507
 21
18.5611
  0
LINE
  8
0
 10
6.54507
 20
18.5611
 11
6.88153
 21
19.0912
  0
LINE
  8
0
 10
6.88153
 20
19.0912
 11
7.14888
 21
19.6594
  0
LINE
  8
0
 10
7.14888
 20
19.6594
 11
7.34291
 21
20.2566
  0
LINE
  8
0
 10
7.34291
 20
20.2566
 11
7.46057
 21
20.8733
  0
LINE
  8
0
 10
7.46057
 20
20.8733
 11
7.5
 21
21.5
  0
LINE
  8
0
 10
7.5
 20
21.5
 11
7.5
 21
26.5
  0
LINE
  8
0
 10
7.5
 20
26.5
 11
7.46057
 21
27.1267
  0
LINE
  8
0
 10
7.46057
 20
27.1267
 11
7.34291
 21
27.7434
  0
LINE
  8
0
 10
7.34291
 20
27.7434
 11
7.14888
 21
28.3406
  0
LINE
  8
0
 10
7.14888
 20
28.3406
 11
6.88153
 21
28.9088
  0
LINE
  8
0
 10
6.88153
 20
28.9088
 11
6.54507
 21
29.4389
  0
LINE
  8
0
 10
6.54507
 20
29.4389
 11
6.14484
 21
29.9227
  0
LINE
  8
0
 10
6.14484
 20
29.9227
 11
5.68712
 21
30.3526
  0
LINE
  8
0
 10
5.68712
 20
30.3526
 11
5.17912
 21
30.7216
  0
LINE
  8
0
 10
5.17912
 20
30.7216
 11
4.62889
 21
31.0241
  0
LINE
  8
0
 10
4.62889
 20
31.0241
 11
4.04507
 21
31.2553
  0
LINE
  8
0
 10
4.04507
 20
31.2553
 11
3.4369
 21
31.4114
  0
LINE
  8
0
 10
3.4369
 20
31.4114
 11
2.81395
 21
31.4901
  0
LINE
  8
0
 10
2.81395
 20
31.4901
 11
-2.81395
 21
31.4901
  0
LINE
  8
0
 10
-2.81395
 20
31.4901
 11
-3.4369
 21
31.4114
  0
LINE
  8
0
 10
-3.4369
 20
31.4114
 11
-4.04507
 21
31.2553
  0
LINE
  8
0
 10
-4.04507
 20
31.2553
 11
-4.62889
 21
31.0241
  0
LINE
  8
0
 10
-4.62889
 20
31.0241
 11
-5.17912
 21
30.7216
  0
LINE
  8
0
 10
-5.17912
 20
30.7216
 11
-5.68712
 21
30.3526
  0
LINE
  8
0
 10
-5.68712
 20
30.3526
 11
-6.14484
 21
29.9227
  0
LINE
  8
0
 10
-6.14484
 20
29.9227
 11
-6.54507
 21
29.4389
  0
LINE
  8
0
 10
-6.54507
 20
29.4389
 11
-6.88153
 21
28.9088
  0
LINE
  8
0
 10
-6.88153
 20
28.9088
 11
-7.14888
 21
28.3406
  0
LINE
  8
0
 10
-7.14888
 20
28.3406
 11
-7.34291
 21
27.7434
  0
LINE
  8
0
 10
-7.34291
 20
27.7434
 11
-7.46057
 21
27.1267
  0
LINE
  8
0
 10
-7.46057
 20
27.1267
 11
-7.5
 21
26.5
  0
LINE
  8
0
 10
-7.5
 20
26.5
 11
-7.5
 21
21.5
  0
LINE
  8
0
 10
-7.5
 20
21.5
 11
-7.46057
 21
20.8733
  0
LINE
  8
0
 10
-7.46057
 20
20.8733
 11
-7.34291
 21
20.2566
  0
LINE
  8
0
 10
-7.34291
 20
20.2566
 11
-7.14888
 21
19.6594
  0
LINE
  8
0
 10
-7.14888
 20
19.6594
 11
-6.88153
 21
19.0912
  0
LINE
  8
0
 10
-6.88153
 20
19.0912
 11
-6.54507
 21
18.5611
  0
LINE
  8
0
 10
-6.54507
 20
18.5611
 11
-6.14484
 21
18.0773
  0
LINE
  8
0
 10
-6.14484
 20
18.0773
 11
-5.68712
 21
17.6474
  0
LINE
  8
0
 10
-5.68712
 20
17.6474
 11
-5.17912
 21
17.2784
  0
LINE
  8
0
 10
-5.17912
 20
17.2784
 11
-4.62889
 21
16.9759
  0
LINE
  8
0
 10
-4.62889
 20
16.9759
 11
-4.04507
 21
16.7447
  0
LINE
  8
0
 10
-4.04507
 20
16.7447
 11
-3.4369
 21
16.5886
  0
LINE
  8
0
 10
-3.4369
 20
16.5886
 11
-2.81395
 21
16.5099
  0
LINE
  8
0
 10
-2.81395
 20
16.5099
 11
2.81395
 21
16.5099
  0
LINE
  8
0
 10
2.81395
 20
16.5099
 11
3.4369
 21
16.5886
  0
LINE
  8
0
 10
-0.113022
 20
22.2036
 11
-0.33728
 21
22.2319
  0
LINE
  8
0
 10
-0.33728
 20
22.2319
 11
-0.556229
 21
22.2881
  0
LINE
  8
0
 10
-0.556229
 20
22.2881
 11
-0.766388
 21
22.3713
  0
LINE
  8
0
 10
-0.766388
 20
22.3713
 11
-0.964478
 21
22.4802
  0
LINE
  8
0
 10
-0.964478
 20
22.4802
 11
-1.14735
 21
22.6131
  0
LINE
  8
0
 10
-1.14735
 20
22.6131
 11
-1.31213
 21
22.7678
  0
LINE
  8
0
 10
-1.31213
 20
22.7678
 11
-1.45622
 21
22.942
  0
LINE
  8
0
 10
-1.45622
 20
22.942
 11
-1.57735
 21
23.1329
  0
LINE
  8
0
 10
-1.57735
 20
23.1329
 11
-1.67358
 21
23.3374
  0
LINE
  8
0
 10
-1.67358
 20
23.3374
 11
-1.74344
 21
23.5524
  0
LINE
  8
0
 10
-1.74344
 20
23.5524
 11
-1.7858
 21
23.7744
  0
LINE
  8
0
 10
-1.7858
 20
23.7744
 11
-1.79999
 21
24
  0
LINE
  8
0
 10
-1.79999
 20
24
 11
-1.7858
 21
24.2256
  0
LINE
  8
0
 10
-1.7858
 20
24.2256
 11
-1.74344
 21
24.4476
  0
LINE
  8
0
 10
-1.74344
 20
24.4476
 11
-1.67358
 21
24.6626
  0
LINE
  8
0
 10
-1.67358
 20
24.6626
 11
-1.57735
 21
24.8671
  0
LINE
  8
0
 10
-1.57735
 20
24.8671
 11
-1.45622
 21
25.058
  0
LINE
  8
0
 10
-1.45622
 20
25.058
 11
-1.31213
 21
25.2322
  0
LINE
  8
0
 10
-1.31213
 20
25.2322
 11
-1.14735
 21
25.3869
  0
LINE
  8
0
 10
-1.14735
 20
25.3869
 11
-0.964478
 21
25.5198
  0
LINE
  8
0
 10
-0.964478
 20
25.5198
 11
-0.766388
 21
25.6287
  0
LINE
  8
0
 10
-0.766388
 20
25.6287
 11
-0.556229
 21
25.7119
  0
LINE
  8
0
 10
-0.556229
 20
25.7119
 11
-0.33728
 21
25.7681
  0
LINE
  8
0
 10
-0.33728
 20
25.7681
 11
-0.113022
 21
25.7964
  0
LINE
  8
0
 10
-0.113022
 20
25.7964
 11
0.113022
 21
25.7964
  0
LINE
  8
0
 10
0.113022
 20
25.7964
 11
0.33728
 21
25.7681
  0
LINE
  8
0
 10
0.33728
 20
25.7681
 11
0.556229
 21
25.7119
  0
LINE
  8
0
 10
0.556229
 20
25.7119
 11
0.766388
 21
25.6287
  0
LINE
  8
0
 10
0.766388
 20
25.6287
 11
0.964478
 21
25.5198
  0
LINE
  8
0
 10
0.964478
 20
25.5198
 11
1.14735
 21
25.3869
  0
LINE
  8
0
 10
1.14735
 20
25.3869
 11
1.31213
 21
25.2322
  0
LINE
  8
0
 10
1.31213
 20
25.2322
 11
1.45622
 21
25.058
  0
LINE
  8
0
 10
1.45622
 20
25.058
 11
1.57735
 21
24.8671
  0
LINE
  8
0
 10
1.57735
 20
24.8671
 11
1.67358
 21
24.6626
  0
LINE
  8
0
 10
1.67358
 20
24.6626
 11
1.74344
 21
24.4476
  0
LINE
  8
0
 10
1.74344
 20
24.4476
 11
1.7858
 21
24.2256
  0
LINE
  8
0
 10
1.7858
 20
24.2256
 11
1.79999
 21
24
  0
LINE
  8
0
 10
1.79999
 20
24
 11
1.7858
 21
23.7744
  0
LINE
  8
0
 10
1.7858
 20
23.7744
 11
1.74344
 21
23.5524
  0
LINE
  8
0
 10
1.74344
 20
23.5524
 11
1.67358
 21
23.3374
  0
LINE
  8
0
 10
1.67358
 20
23.3374
 11
1.57735
 21
23.1329
  0
LINE
  8
0
 10
1.57735
 20
23.1329
 11
1.45622
 21
22.942
  0
LINE
  8
0
 10
1.45622
 20
22.942
 11
1.31213
 21
22.7678
  0
LINE
  8
0
 10
1.31213
 20
22.7678
 11
1.14735
 21
22.6131
  0
LINE
  8
0
 10
1.14735
 20
22.6131
 11
0.964478
 21
22.4802
  0
LINE
  8
0
 10
0.964478
 20
22.4802
 11
0.766388
 21
22.3713
  0
LINE
  8
0
 10
0.766388
 20
22.3713
 11
0.556229
 21
22.2881
  0
LINE
  8
0
 10
0.556229
 20
22.2881
 11
0.33728
 21
22.2319
  0
LINE
  8
0
 10
0.33728
 20
22.2319
 11
0.113022
 21
22.2036
  0
LINE
  8
0
 10
0.113022
 20
22.2036
 11
-0.113022
 21
22.2036
  0
ENDSEC
  0
SECTION
  2
OBJECTS
  0
DICTIONARY
  0
ENDSEC
  0
EOF
