<?xml version="1.0" standalone="no"?>
<!DOCTYPE svg PUBLIC "-//W3C//DTD SVG 1.1//EN" "http://www.w3.org/Graphics/SVG/1.1/DTD/svg11.dtd">
<svg width="30mm" height="108mm" viewBox="-15 -210 30 108" xmlns="http://www.w3.org/2000/svg" version="1.1">
<title>OpenSCAD Model</title>
<path d="
M 10.9369,-180.089 L 11.5451,-180.245 L 12.1289,-180.476 L 12.6791,-180.778 L 13.1871,-181.147 L 13.6448,-181.577
 L 14.0451,-182.061 L 14.3815,-182.591 L 14.6489,-183.159 L 14.8429,-183.757 L 14.9606,-184.373 L 15,-185
 L 15,-205 L 14.9606,-205.627 L 14.8429,-206.243 L 14.6489,-206.841 L 14.3815,-207.409 L 14.0451,-207.939
 L 13.6448,-208.423 L 13.1871,-208.853 L 12.6791,-209.222 L 12.1289,-209.524 L 11.5451,-209.755 L 10.9369,-209.911
 L 10.3139,-209.99 L -10.3139,-209.99 L -10.9369,-209.911 L -11.5451,-209.755 L -12.1289,-209.524 L -12.6791,-209.222
 L -13.1871,-208.853 L -13.6448,-208.423 L -14.0451,-207.939 L -14.3815,-207.409 L -14.6489,-206.841 L -14.8429,-206.243
 L -14.9606,-205.627 L -15,-205 L -15,-185 L -14.9606,-184.373 L -14.8429,-183.757 L -14.6489,-183.159
 L -14.3815,-182.591 L -14.0451,-182.061 L -13.6448,-181.577 L -13.1871,-181.147 L -12.6791,-180.778 L -12.1289,-180.476
 L -11.5451,-180.245 L -10.9369,-180.089 L -10.3139,-180.01 L 10.3139,-180.01 z
M -10.0482,-180.509 L -10.6401,-180.584 L -11.2178,-180.732 L -11.7724,-180.952 L -12.2952,-181.239 L -12.7778,-181.59
 L -13.2126,-181.998 L -13.5928,-182.458 L -13.9124,-182.962 L -14.1664,-183.501 L -14.3508,-184.069 L -14.4625,-184.655
 L -14.5,-185.25 L -14.5,-204.75 L -14.4625,-205.345 L -14.3508,-205.931 L -14.1664,-206.499 L -13.9124,-207.038
 L -13.5928,-207.542 L -13.2126,-208.002 L -12.7778,-208.41 L -12.2952,-208.761 L -11.7724,-209.048 L -11.2178,-209.268
 L -10.6401,-209.416 L -10.0482,-209.491 L 10.0482,-209.491 L 10.6401,-209.416 L 11.2178,-209.268 L 11.7724,-209.048
 L 12.2952,-208.761 L 12.7778,-208.41 L 13.2126,-208.002 L 13.5928,-207.542 L 13.9124,-207.038 L 14.1664,-206.499
 L 14.3508,-205.931 L 14.4625,-205.345 L 14.5,-204.75 L 14.5,-185.25 L 14.4625,-184.655 L 14.3508,-184.069
 L 14.1664,-183.501 L 13.9124,-182.962 L 13.5928,-182.458 L 13.2126,-181.998 L 12.7778,-181.59 L 12.2952,-181.239
 L 11.7724,-180.952 L 11.2178,-180.732 L 10.6401,-180.584 L 10.0482,-180.509 z
M 10.9369,-141.089 L 11.5451,-141.245 L 12.1289,-141.476 L 12.6791,-141.778 L 13.1871,-142.147 L 13.6448,-142.577
 L 14.0451,-143.061 L 14.3815,-143.591 L 14.6489,-144.159 L 14.8429,-144.757 L 14.9606,-145.373 L 15,-146
 L 15,-166 L 14.9606,-166.627 L 14.8429,-167.243 L 14.6489,-167.841 L 14.3815,-168.409 L 14.0451,-168.939
 L 13.6448,-169.423 L 13.1871,-169.853 L 12.6791,-170.222 L 12.1289,-170.524 L 11.5451,-170.755 L 10.9369,-170.911
 L 10.3139,-170.99 L -10.3139,-170.99 L -10.9369,-170.911 L -11.5451,-170.755 L -12.1289,-170.524 L -12.6791,-170.222
 L -13.1871,-169.853 L -13.6448,-169.423 L -14.0451,-168.939 L -14.3815,-168.409 L -14.6489,-167.841 L -14.8429,-167.243
 L -14.9606,-166.627 L -15,-166 L -15,-146 L -14.9606,-145.373 L -14.8429,-144.757 L -14.6489,-144.159
 L -14.3815,-143.591 L -14.0451,-143.061 L -13.6448,-142.577 L -13.1871,-142.147 L -12.6791,-141.778 L -12.1289,-141.476
 L -11.5451,-141.245 L -10.9369,-141.089 L -10.3139,-141.01 L 10.3139,-141.01 z
M -10.0375,-141.681 L -10.6079,-141.753 L -11.1648,-141.896 L -11.6994,-142.107 L -12.2032,-142.384 L -12.6684,-142.722
 L -13.0875,-143.116 L -13.454,-143.559 L -13.7621,-144.044 L -14.0069,-144.565 L -14.1846,-145.111 L -14.2923,-145.676
 L -14.3284,-146.25 L -14.3284,-165.75 L -14.2923,-166.324 L -14.1846,-166.889 L -14.0069,-167.435 L -13.7621,-167.956
 L -13.454,-168.441 L -13.0875,-168.884 L -12.6684,-169.278 L -12.2032,-169.616 L -11.6994,-169.893 L -11.1648,-170.104
 L -10.6079,-170.247 L -10.0375,-170.319 L 10.0375,-170.319 L 10.6079,-170.247 L 11.1648,-170.104 L 11.6994,-169.893
 L 12.2032,-169.616 L 12.6684,-169.278 L 13.0875,-168.884 L 13.454,-168.441 L 13.7621,-167.956 L 14.0069,-167.435
 L 14.1846,-166.889 L 14.2923,-166.324 L 14.3284,-165.75 L 14.3284,-146.25 L 14.2923,-145.676 L 14.1846,-145.111
 L 14.0069,-144.565 L 13.7621,-144.044 L 13.454,-143.559 L 13.0875,-143.116 L 12.6684,-142.722 L 12.2032,-142.384
 L 11.6994,-142.107 L 11.1648,-141.896 L 10.6079,-141.753 L 10.0375,-141.681 z
M 10.9369,-102.089 L 11.5451,-102.245 L 12.1289,-102.476 L 12.6791,-102.778 L 13.1871,-103.147 L 13.6448,-103.577
 L 14.0451,-104.061 L 14.3815,-104.591 L 14.6489,-105.159 L 14.8429,-105.757 L 14.9606,-106.373 L 15,-107
 L 15,-127 L 14.9606,-127.627 L 14.8429,-128.243 L 14.6489,-128.841 L 14.3815,-129.409 L 14.0451,-129.939
 L 13.6448,-130.423 L 13.1871,-130.853 L 12.6791,-131.222 L 12.1289,-131.524 L 11.5451,-131.755 L 10.9369,-131.911
 L 10.3139,-131.99 L -10.3139,-131.99 L -10.9369,-131.911 L -11.5451,-131.755 L -12.1289,-131.524 L -12.6791,-131.222
 L -13.1871,-130.853 L -13.6448,-130.423 L -14.0451,-129.939 L -14.3815,-129.409 L -14.6489,-128.841 L -14.8429,-128.243
 L -14.9606,-127.627 L -15,-127 L -15,-107 L -14.9606,-106.373 L -14.8429,-105.757 L -14.6489,-105.159
 L -14.3815,-104.591 L -14.0451,-104.061 L -13.6448,-103.577 L -13.1871,-103.147 L -12.6791,-102.778 L -12.1289,-102.476
 L -11.5451,-102.245 L -10.9369,-102.089 L -10.3139,-102.01 L 10.3139,-102.01 z
M -9.88246,-105.145 L -10.1453,-105.178 L -10.4019,-105.244 L -10.6482,-105.341 L -10.8804,-105.469 L -11.0947,-105.625
 L -11.2878,-105.806 L -11.4567,-106.01 L -11.5987,-106.234 L -11.7115,-106.473 L -11.7934,-106.725 L -11.843,-106.986
 L -11.8596,-107.25 L -11.8596,-126.75 L -11.843,-127.014 L -11.7934,-127.275 L -11.7115,-127.527 L -11.5987,-127.766
 L -11.4567,-127.99 L -11.2878,-128.194 L -11.0947,-128.375 L -10.8804,-128.531 L -10.6482,-128.659 L -10.4019,-128.756
 L -10.1453,-128.822 L -9.88246,-128.855 L 9.88246,-128.855 L 10.1453,-128.822 L 10.4019,-128.756 L 10.6482,-128.659
 L 10.8804,-128.531 L 11.0947,-128.375 L 11.2878,-128.194 L 11.4567,-127.99 L 11.5987,-127.766 L 11.7115,-127.527
 L 11.7934,-127.275 L 11.843,-127.014 L 11.8596,-126.75 L 11.8596,-107.25 L 11.843,-106.986 L 11.7934,-106.725
 L 11.7115,-106.473 L 11.5987,-106.234 L 11.4567,-106.01 L 11.2878,-105.806 L 11.0947,-105.625 L 10.8804,-105.469
 L 10.6482,-105.341 L 10.4019,-105.244 L 10.1453,-105.178 L 9.88246,-105.145 z
" stroke="black" fill="lightgray" stroke-width="0.5"/>
</svg>
