  0
SECTION
  2
BLOCKS
  0
ENDSEC
  0
SECTION
  2
ENTITIES
  0
LINE
  8
0
 10
18.4369
 20
208.589
 11
19.0451
 21
208.745
  0
LINE
  8
0
 10
19.0451
 20
208.745
 11
19.6289
 21
208.976
  0
LINE
  8
0
 10
19.6289
 20
208.976
 11
20.1791
 21
209.278
  0
LINE
  8
0
 10
20.1791
 20
209.278
 11
20.6871
 21
209.647
  0
LINE
  8
0
 10
20.6871
 20
209.647
 11
21.1448
 21
210.077
  0
LINE
  8
0
 10
21.1448
 20
210.077
 11
21.5451
 21
210.561
  0
LINE
  8
0
 10
21.5451
 20
210.561
 11
21.8815
 21
211.091
  0
LINE
  8
0
 10
21.8815
 20
211.091
 11
22.1489
 21
211.659
  0
LINE
  8
0
 10
22.1489
 20
211.659
 11
22.3429
 21
212.257
  0
LINE
  8
0
 10
22.3429
 20
212.257
 11
22.4606
 21
212.873
  0
LINE
  8
0
 10
22.4606
 20
212.873
 11
22.5
 21
213.5
  0
LINE
  8
0
 10
22.5
 20
213.5
 11
22.5
 21
218.5
  0
LINE
  8
0
 10
22.5
 20
218.5
 11
22.4606
 21
219.127
  0
LINE
  8
0
 10
22.4606
 20
219.127
 11
22.3429
 21
219.743
  0
LINE
  8
0
 10
22.3429
 20
219.743
 11
22.1489
 21
220.341
  0
LINE
  8
0
 10
22.1489
 20
220.341
 11
21.8815
 21
220.909
  0
LINE
  8
0
 10
21.8815
 20
220.909
 11
21.5451
 21
221.439
  0
LINE
  8
0
 10
21.5451
 20
221.439
 11
21.1448
 21
221.923
  0
LINE
  8
0
 10
21.1448
 20
221.923
 11
20.6871
 21
222.353
  0
LINE
  8
0
 10
20.6871
 20
222.353
 11
20.1791
 21
222.722
  0
LINE
  8
0
 10
20.1791
 20
222.722
 11
19.6289
 21
223.024
  0
LINE
  8
0
 10
19.6289
 20
223.024
 11
19.0451
 21
223.255
  0
LINE
  8
0
 10
19.0451
 20
223.255
 11
18.4369
 21
223.411
  0
LINE
  8
0
 10
18.4369
 20
223.411
 11
17.8139
 21
223.49
  0
LINE
  8
0
 10
17.8139
 20
223.49
 11
-17.8139
 21
223.49
  0
LINE
  8
0
 10
-17.8139
 20
223.49
 11
-18.4369
 21
223.411
  0
LINE
  8
0
 10
-18.4369
 20
223.411
 11
-19.0451
 21
223.255
  0
LINE
  8
0
 10
-19.0451
 20
223.255
 11
-19.6289
 21
223.024
  0
LINE
  8
0
 10
-19.6289
 20
223.024
 11
-20.1791
 21
222.722
  0
LINE
  8
0
 10
-20.1791
 20
222.722
 11
-20.6871
 21
222.353
  0
LINE
  8
0
 10
-20.6871
 20
222.353
 11
-21.1448
 21
221.923
  0
LINE
  8
0
 10
-21.1448
 20
221.923
 11
-21.5451
 21
221.439
  0
LINE
  8
0
 10
-21.5451
 20
221.439
 11
-21.8815
 21
220.909
  0
LINE
  8
0
 10
-21.8815
 20
220.909
 11
-22.1489
 21
220.341
  0
LINE
  8
0
 10
-22.1489
 20
220.341
 11
-22.3429
 21
219.743
  0
LINE
  8
0
 10
-22.3429
 20
219.743
 11
-22.4606
 21
219.127
  0
LINE
  8
0
 10
-22.4606
 20
219.127
 11
-22.5
 21
218.5
  0
LINE
  8
0
 10
-22.5
 20
218.5
 11
-22.5
 21
213.5
  0
LINE
  8
0
 10
-22.5
 20
213.5
 11
-22.4606
 21
212.873
  0
LINE
  8
0
 10
-22.4606
 20
212.873
 11
-22.3429
 21
212.257
  0
LINE
  8
0
 10
-22.3429
 20
212.257
 11
-22.1489
 21
211.659
  0
LINE
  8
0
 10
-22.1489
 20
211.659
 11
-21.8815
 21
211.091
  0
LINE
  8
0
 10
-21.8815
 20
211.091
 11
-21.5451
 21
210.561
  0
LINE
  8
0
 10
-21.5451
 20
210.561
 11
-21.1448
 21
210.077
  0
LINE
  8
0
 10
-21.1448
 20
210.077
 11
-20.6871
 21
209.647
  0
LINE
  8
0
 10
-20.6871
 20
209.647
 11
-20.1791
 21
209.278
  0
LINE
  8
0
 10
-20.1791
 20
209.278
 11
-19.6289
 21
208.976
  0
LINE
  8
0
 10
-19.6289
 20
208.976
 11
-19.0451
 21
208.745
  0
LINE
  8
0
 10
-19.0451
 20
208.745
 11
-18.4369
 21
208.589
  0
LINE
  8
0
 10
-18.4369
 20
208.589
 11
-17.8139
 21
208.51
  0
LINE
  8
0
 10
-17.8139
 20
208.51
 11
17.8139
 21
208.51
  0
LINE
  8
0
 10
17.8139
 20
208.51
 11
18.4369
 21
208.589
  0
LINE
  8
0
 10
-17.5482
 20
209.009
 11
-18.1401
 21
209.084
  0
LINE
  8
0
 10
-18.1401
 20
209.084
 11
-18.7178
 21
209.232
  0
LINE
  8
0
 10
-18.7178
 20
209.232
 11
-19.2724
 21
209.452
  0
LINE
  8
0
 10
-19.2724
 20
209.452
 11
-19.7952
 21
209.739
  0
LINE
  8
0
 10
-19.7952
 20
209.739
 11
-20.2778
 21
210.09
  0
LINE
  8
0
 10
-20.2778
 20
210.09
 11
-20.7126
 21
210.498
  0
LINE
  8
0
 10
-20.7126
 20
210.498
 11
-21.0928
 21
210.958
  0
LINE
  8
0
 10
-21.0928
 20
210.958
 11
-21.4124
 21
211.462
  0
LINE
  8
0
 10
-21.4124
 20
211.462
 11
-21.6664
 21
212.001
  0
LINE
  8
0
 10
-21.6664
 20
212.001
 11
-21.8508
 21
212.569
  0
LINE
  8
0
 10
-21.8508
 20
212.569
 11
-21.9625
 21
213.155
  0
LINE
  8
0
 10
-21.9625
 20
213.155
 11
-22
 21
213.75
  0
LINE
  8
0
 10
-22
 20
213.75
 11
-22
 21
218.25
  0
LINE
  8
0
 10
-22
 20
218.25
 11
-21.9625
 21
218.845
  0
LINE
  8
0
 10
-21.9625
 20
218.845
 11
-21.8508
 21
219.431
  0
LINE
  8
0
 10
-21.8508
 20
219.431
 11
-21.6664
 21
219.999
  0
LINE
  8
0
 10
-21.6664
 20
219.999
 11
-21.4124
 21
220.538
  0
LINE
  8
0
 10
-21.4124
 20
220.538
 11
-21.0928
 21
221.042
  0
LINE
  8
0
 10
-21.0928
 20
221.042
 11
-20.7126
 21
221.502
  0
LINE
  8
0
 10
-20.7126
 20
221.502
 11
-20.2778
 21
221.91
  0
LINE
  8
0
 10
-20.2778
 20
221.91
 11
-19.7952
 21
222.261
  0
LINE
  8
0
 10
-19.7952
 20
222.261
 11
-19.2724
 21
222.548
  0
LINE
  8
0
 10
-19.2724
 20
222.548
 11
-18.7178
 21
222.768
  0
LINE
  8
0
 10
-18.7178
 20
222.768
 11
-18.1401
 21
222.916
  0
LINE
  8
0
 10
-18.1401
 20
222.916
 11
-17.5482
 21
222.991
  0
LINE
  8
0
 10
-17.5482
 20
222.991
 11
17.5482
 21
222.991
  0
LINE
  8
0
 10
17.5482
 20
222.991
 11
18.1401
 21
222.916
  0
LINE
  8
0
 10
18.1401
 20
222.916
 11
18.7178
 21
222.768
  0
LINE
  8
0
 10
18.7178
 20
222.768
 11
19.2724
 21
222.548
  0
LINE
  8
0
 10
19.2724
 20
222.548
 11
19.7952
 21
222.261
  0
LINE
  8
0
 10
19.7952
 20
222.261
 11
20.2778
 21
221.91
  0
LINE
  8
0
 10
20.2778
 20
221.91
 11
20.7126
 21
221.502
  0
LINE
  8
0
 10
20.7126
 20
221.502
 11
21.0928
 21
221.042
  0
LINE
  8
0
 10
21.0928
 20
221.042
 11
21.4124
 21
220.538
  0
LINE
  8
0
 10
21.4124
 20
220.538
 11
21.6664
 21
219.999
  0
LINE
  8
0
 10
21.6664
 20
219.999
 11
21.8508
 21
219.431
  0
LINE
  8
0
 10
21.8508
 20
219.431
 11
21.9625
 21
218.845
  0
LINE
  8
0
 10
21.9625
 20
218.845
 11
22
 21
218.25
  0
LINE
  8
0
 10
22
 20
218.25
 11
22
 21
213.75
  0
LINE
  8
0
 10
22
 20
213.75
 11
21.9625
 21
213.155
  0
LINE
  8
0
 10
21.9625
 20
213.155
 11
21.8508
 21
212.569
  0
LINE
  8
0
 10
21.8508
 20
212.569
 11
21.6664
 21
212.001
  0
LINE
  8
0
 10
21.6664
 20
212.001
 11
21.4124
 21
211.462
  0
LINE
  8
0
 10
21.4124
 20
211.462
 11
21.0928
 21
210.958
  0
LINE
  8
0
 10
21.0928
 20
210.958
 11
20.7126
 21
210.498
  0
LINE
  8
0
 10
20.7126
 20
210.498
 11
20.2778
 21
210.09
  0
LINE
  8
0
 10
20.2778
 20
210.09
 11
19.7952
 21
209.739
  0
LINE
  8
0
 10
19.7952
 20
209.739
 11
19.2724
 21
209.452
  0
LINE
  8
0
 10
19.2724
 20
209.452
 11
18.7178
 21
209.232
  0
LINE
  8
0
 10
18.7178
 20
209.232
 11
18.1401
 21
209.084
  0
LINE
  8
0
 10
18.1401
 20
209.084
 11
17.5482
 21
209.009
  0
LINE
  8
0
 10
17.5482
 20
209.009
 11
-17.5482
 21
209.009
  0
LINE
  8
0
 10
18.4369
 20
184.589
 11
19.0451
 21
184.745
  0
LINE
  8
0
 10
19.0451
 20
184.745
 11
19.6289
 21
184.976
  0
LINE
  8
0
 10
19.6289
 20
184.976
 11
20.1791
 21
185.278
  0
LINE
  8
0
 10
20.1791
 20
185.278
 11
20.6871
 21
185.647
  0
LINE
  8
0
 10
20.6871
 20
185.647
 11
21.1448
 21
186.077
  0
LINE
  8
0
 10
21.1448
 20
186.077
 11
21.5451
 21
186.561
  0
LINE
  8
0
 10
21.5451
 20
186.561
 11
21.8815
 21
187.091
  0
LINE
  8
0
 10
21.8815
 20
187.091
 11
22.1489
 21
187.659
  0
LINE
  8
0
 10
22.1489
 20
187.659
 11
22.3429
 21
188.257
  0
LINE
  8
0
 10
22.3429
 20
188.257
 11
22.4606
 21
188.873
  0
LINE
  8
0
 10
22.4606
 20
188.873
 11
22.5
 21
189.5
  0
LINE
  8
0
 10
22.5
 20
189.5
 11
22.5
 21
194.5
  0
LINE
  8
0
 10
22.5
 20
194.5
 11
22.4606
 21
195.127
  0
LINE
  8
0
 10
22.4606
 20
195.127
 11
22.3429
 21
195.743
  0
LINE
  8
0
 10
22.3429
 20
195.743
 11
22.1489
 21
196.341
  0
LINE
  8
0
 10
22.1489
 20
196.341
 11
21.8815
 21
196.909
  0
LINE
  8
0
 10
21.8815
 20
196.909
 11
21.5451
 21
197.439
  0
LINE
  8
0
 10
21.5451
 20
197.439
 11
21.1448
 21
197.923
  0
LINE
  8
0
 10
21.1448
 20
197.923
 11
20.6871
 21
198.353
  0
LINE
  8
0
 10
20.6871
 20
198.353
 11
20.1791
 21
198.722
  0
LINE
  8
0
 10
20.1791
 20
198.722
 11
19.6289
 21
199.024
  0
LINE
  8
0
 10
19.6289
 20
199.024
 11
19.0451
 21
199.255
  0
LINE
  8
0
 10
19.0451
 20
199.255
 11
18.4369
 21
199.411
  0
LINE
  8
0
 10
18.4369
 20
199.411
 11
17.8139
 21
199.49
  0
LINE
  8
0
 10
17.8139
 20
199.49
 11
-17.8139
 21
199.49
  0
LINE
  8
0
 10
-17.8139
 20
199.49
 11
-18.4369
 21
199.411
  0
LINE
  8
0
 10
-18.4369
 20
199.411
 11
-19.0451
 21
199.255
  0
LINE
  8
0
 10
-19.0451
 20
199.255
 11
-19.6289
 21
199.024
  0
LINE
  8
0
 10
-19.6289
 20
199.024
 11
-20.1791
 21
198.722
  0
LINE
  8
0
 10
-20.1791
 20
198.722
 11
-20.6871
 21
198.353
  0
LINE
  8
0
 10
-20.6871
 20
198.353
 11
-21.1448
 21
197.923
  0
LINE
  8
0
 10
-21.1448
 20
197.923
 11
-21.5451
 21
197.439
  0
LINE
  8
0
 10
-21.5451
 20
197.439
 11
-21.8815
 21
196.909
  0
LINE
  8
0
 10
-21.8815
 20
196.909
 11
-22.1489
 21
196.341
  0
LINE
  8
0
 10
-22.1489
 20
196.341
 11
-22.3429
 21
195.743
  0
LINE
  8
0
 10
-22.3429
 20
195.743
 11
-22.4606
 21
195.127
  0
LINE
  8
0
 10
-22.4606
 20
195.127
 11
-22.5
 21
194.5
  0
LINE
  8
0
 10
-22.5
 20
194.5
 11
-22.5
 21
189.5
  0
LINE
  8
0
 10
-22.5
 20
189.5
 11
-22.4606
 21
188.873
  0
LINE
  8
0
 10
-22.4606
 20
188.873
 11
-22.3429
 21
188.257
  0
LINE
  8
0
 10
-22.3429
 20
188.257
 11
-22.1489
 21
187.659
  0
LINE
  8
0
 10
-22.1489
 20
187.659
 11
-21.8815
 21
187.091
  0
LINE
  8
0
 10
-21.8815
 20
187.091
 11
-21.5451
 21
186.561
  0
LINE
  8
0
 10
-21.5451
 20
186.561
 11
-21.1448
 21
186.077
  0
LINE
  8
0
 10
-21.1448
 20
186.077
 11
-20.6871
 21
185.647
  0
LINE
  8
0
 10
-20.6871
 20
185.647
 11
-20.1791
 21
185.278
  0
LINE
  8
0
 10
-20.1791
 20
185.278
 11
-19.6289
 21
184.976
  0
LINE
  8
0
 10
-19.6289
 20
184.976
 11
-19.0451
 21
184.745
  0
LINE
  8
0
 10
-19.0451
 20
184.745
 11
-18.4369
 21
184.589
  0
LINE
  8
0
 10
-18.4369
 20
184.589
 11
-17.8139
 21
184.51
  0
LINE
  8
0
 10
-17.8139
 20
184.51
 11
17.8139
 21
184.51
  0
LINE
  8
0
 10
17.8139
 20
184.51
 11
18.4369
 21
184.589
  0
LINE
  8
0
 10
-17.5482
 20
185.009
 11
-18.1401
 21
185.084
  0
LINE
  8
0
 10
-18.1401
 20
185.084
 11
-18.7178
 21
185.232
  0
LINE
  8
0
 10
-18.7178
 20
185.232
 11
-19.2724
 21
185.452
  0
LINE
  8
0
 10
-19.2724
 20
185.452
 11
-19.7952
 21
185.739
  0
LINE
  8
0
 10
-19.7952
 20
185.739
 11
-20.2778
 21
186.09
  0
LINE
  8
0
 10
-20.2778
 20
186.09
 11
-20.7126
 21
186.498
  0
LINE
  8
0
 10
-20.7126
 20
186.498
 11
-21.0928
 21
186.958
  0
LINE
  8
0
 10
-21.0928
 20
186.958
 11
-21.4124
 21
187.462
  0
LINE
  8
0
 10
-21.4124
 20
187.462
 11
-21.6664
 21
188.001
  0
LINE
  8
0
 10
-21.6664
 20
188.001
 11
-21.8508
 21
188.569
  0
LINE
  8
0
 10
-21.8508
 20
188.569
 11
-21.9625
 21
189.155
  0
LINE
  8
0
 10
-21.9625
 20
189.155
 11
-22
 21
189.75
  0
LINE
  8
0
 10
-22
 20
189.75
 11
-22
 21
194.25
  0
LINE
  8
0
 10
-22
 20
194.25
 11
-21.9625
 21
194.845
  0
LINE
  8
0
 10
-21.9625
 20
194.845
 11
-21.8508
 21
195.431
  0
LINE
  8
0
 10
-21.8508
 20
195.431
 11
-21.6664
 21
195.999
  0
LINE
  8
0
 10
-21.6664
 20
195.999
 11
-21.4124
 21
196.538
  0
LINE
  8
0
 10
-21.4124
 20
196.538
 11
-21.0928
 21
197.042
  0
LINE
  8
0
 10
-21.0928
 20
197.042
 11
-20.7126
 21
197.502
  0
LINE
  8
0
 10
-20.7126
 20
197.502
 11
-20.2778
 21
197.91
  0
LINE
  8
0
 10
-20.2778
 20
197.91
 11
-19.7952
 21
198.261
  0
LINE
  8
0
 10
-19.7952
 20
198.261
 11
-19.2724
 21
198.548
  0
LINE
  8
0
 10
-19.2724
 20
198.548
 11
-18.7178
 21
198.768
  0
LINE
  8
0
 10
-18.7178
 20
198.768
 11
-18.1401
 21
198.916
  0
LINE
  8
0
 10
-18.1401
 20
198.916
 11
-17.5482
 21
198.991
  0
LINE
  8
0
 10
-17.5482
 20
198.991
 11
17.5482
 21
198.991
  0
LINE
  8
0
 10
17.5482
 20
198.991
 11
18.1401
 21
198.916
  0
LINE
  8
0
 10
18.1401
 20
198.916
 11
18.7178
 21
198.768
  0
LINE
  8
0
 10
18.7178
 20
198.768
 11
19.2724
 21
198.548
  0
LINE
  8
0
 10
19.2724
 20
198.548
 11
19.7952
 21
198.261
  0
LINE
  8
0
 10
19.7952
 20
198.261
 11
20.2778
 21
197.91
  0
LINE
  8
0
 10
20.2778
 20
197.91
 11
20.7126
 21
197.502
  0
LINE
  8
0
 10
20.7126
 20
197.502
 11
21.0928
 21
197.042
  0
LINE
  8
0
 10
21.0928
 20
197.042
 11
21.4124
 21
196.538
  0
LINE
  8
0
 10
21.4124
 20
196.538
 11
21.6664
 21
195.999
  0
LINE
  8
0
 10
21.6664
 20
195.999
 11
21.8508
 21
195.431
  0
LINE
  8
0
 10
21.8508
 20
195.431
 11
21.9625
 21
194.845
  0
LINE
  8
0
 10
21.9625
 20
194.845
 11
22
 21
194.25
  0
LINE
  8
0
 10
22
 20
194.25
 11
22
 21
189.75
  0
LINE
  8
0
 10
22
 20
189.75
 11
21.9625
 21
189.155
  0
LINE
  8
0
 10
21.9625
 20
189.155
 11
21.8508
 21
188.569
  0
LINE
  8
0
 10
21.8508
 20
188.569
 11
21.6664
 21
188.001
  0
LINE
  8
0
 10
21.6664
 20
188.001
 11
21.4124
 21
187.462
  0
LINE
  8
0
 10
21.4124
 20
187.462
 11
21.0928
 21
186.958
  0
LINE
  8
0
 10
21.0928
 20
186.958
 11
20.7126
 21
186.498
  0
LINE
  8
0
 10
20.7126
 20
186.498
 11
20.2778
 21
186.09
  0
LINE
  8
0
 10
20.2778
 20
186.09
 11
19.7952
 21
185.739
  0
LINE
  8
0
 10
19.7952
 20
185.739
 11
19.2724
 21
185.452
  0
LINE
  8
0
 10
19.2724
 20
185.452
 11
18.7178
 21
185.232
  0
LINE
  8
0
 10
18.7178
 20
185.232
 11
18.1401
 21
185.084
  0
LINE
  8
0
 10
18.1401
 20
185.084
 11
17.5482
 21
185.009
  0
LINE
  8
0
 10
17.5482
 20
185.009
 11
-17.5482
 21
185.009
  0
LINE
  8
0
 10
18.4369
 20
160.589
 11
19.0451
 21
160.745
  0
LINE
  8
0
 10
19.0451
 20
160.745
 11
19.6289
 21
160.976
  0
LINE
  8
0
 10
19.6289
 20
160.976
 11
20.1791
 21
161.278
  0
LINE
  8
0
 10
20.1791
 20
161.278
 11
20.6871
 21
161.647
  0
LINE
  8
0
 10
20.6871
 20
161.647
 11
21.1448
 21
162.077
  0
LINE
  8
0
 10
21.1448
 20
162.077
 11
21.5451
 21
162.561
  0
LINE
  8
0
 10
21.5451
 20
162.561
 11
21.8815
 21
163.091
  0
LINE
  8
0
 10
21.8815
 20
163.091
 11
22.1489
 21
163.659
  0
LINE
  8
0
 10
22.1489
 20
163.659
 11
22.3429
 21
164.257
  0
LINE
  8
0
 10
22.3429
 20
164.257
 11
22.4606
 21
164.873
  0
LINE
  8
0
 10
22.4606
 20
164.873
 11
22.5
 21
165.5
  0
LINE
  8
0
 10
22.5
 20
165.5
 11
22.5
 21
170.5
  0
LINE
  8
0
 10
22.5
 20
170.5
 11
22.4606
 21
171.127
  0
LINE
  8
0
 10
22.4606
 20
171.127
 11
22.3429
 21
171.743
  0
LINE
  8
0
 10
22.3429
 20
171.743
 11
22.1489
 21
172.341
  0
LINE
  8
0
 10
22.1489
 20
172.341
 11
21.8815
 21
172.909
  0
LINE
  8
0
 10
21.8815
 20
172.909
 11
21.5451
 21
173.439
  0
LINE
  8
0
 10
21.5451
 20
173.439
 11
21.1448
 21
173.923
  0
LINE
  8
0
 10
21.1448
 20
173.923
 11
20.6871
 21
174.353
  0
LINE
  8
0
 10
20.6871
 20
174.353
 11
20.1791
 21
174.722
  0
LINE
  8
0
 10
20.1791
 20
174.722
 11
19.6289
 21
175.024
  0
LINE
  8
0
 10
19.6289
 20
175.024
 11
19.0451
 21
175.255
  0
LINE
  8
0
 10
19.0451
 20
175.255
 11
18.4369
 21
175.411
  0
LINE
  8
0
 10
18.4369
 20
175.411
 11
17.8139
 21
175.49
  0
LINE
  8
0
 10
17.8139
 20
175.49
 11
-17.8139
 21
175.49
  0
LINE
  8
0
 10
-17.8139
 20
175.49
 11
-18.4369
 21
175.411
  0
LINE
  8
0
 10
-18.4369
 20
175.411
 11
-19.0451
 21
175.255
  0
LINE
  8
0
 10
-19.0451
 20
175.255
 11
-19.6289
 21
175.024
  0
LINE
  8
0
 10
-19.6289
 20
175.024
 11
-20.1791
 21
174.722
  0
LINE
  8
0
 10
-20.1791
 20
174.722
 11
-20.6871
 21
174.353
  0
LINE
  8
0
 10
-20.6871
 20
174.353
 11
-21.1448
 21
173.923
  0
LINE
  8
0
 10
-21.1448
 20
173.923
 11
-21.5451
 21
173.439
  0
LINE
  8
0
 10
-21.5451
 20
173.439
 11
-21.8815
 21
172.909
  0
LINE
  8
0
 10
-21.8815
 20
172.909
 11
-22.1489
 21
172.341
  0
LINE
  8
0
 10
-22.1489
 20
172.341
 11
-22.3429
 21
171.743
  0
LINE
  8
0
 10
-22.3429
 20
171.743
 11
-22.4606
 21
171.127
  0
LINE
  8
0
 10
-22.4606
 20
171.127
 11
-22.5
 21
170.5
  0
LINE
  8
0
 10
-22.5
 20
170.5
 11
-22.5
 21
165.5
  0
LINE
  8
0
 10
-22.5
 20
165.5
 11
-22.4606
 21
164.873
  0
LINE
  8
0
 10
-22.4606
 20
164.873
 11
-22.3429
 21
164.257
  0
LINE
  8
0
 10
-22.3429
 20
164.257
 11
-22.1489
 21
163.659
  0
LINE
  8
0
 10
-22.1489
 20
163.659
 11
-21.8815
 21
163.091
  0
LINE
  8
0
 10
-21.8815
 20
163.091
 11
-21.5451
 21
162.561
  0
LINE
  8
0
 10
-21.5451
 20
162.561
 11
-21.1448
 21
162.077
  0
LINE
  8
0
 10
-21.1448
 20
162.077
 11
-20.6871
 21
161.647
  0
LINE
  8
0
 10
-20.6871
 20
161.647
 11
-20.1791
 21
161.278
  0
LINE
  8
0
 10
-20.1791
 20
161.278
 11
-19.6289
 21
160.976
  0
LINE
  8
0
 10
-19.6289
 20
160.976
 11
-19.0451
 21
160.745
  0
LINE
  8
0
 10
-19.0451
 20
160.745
 11
-18.4369
 21
160.589
  0
LINE
  8
0
 10
-18.4369
 20
160.589
 11
-17.8139
 21
160.51
  0
LINE
  8
0
 10
-17.8139
 20
160.51
 11
17.8139
 21
160.51
  0
LINE
  8
0
 10
17.8139
 20
160.51
 11
18.4369
 21
160.589
  0
LINE
  8
0
 10
-17.5482
 20
161.009
 11
-18.1401
 21
161.084
  0
LINE
  8
0
 10
-18.1401
 20
161.084
 11
-18.7178
 21
161.232
  0
LINE
  8
0
 10
-18.7178
 20
161.232
 11
-19.2724
 21
161.452
  0
LINE
  8
0
 10
-19.2724
 20
161.452
 11
-19.7952
 21
161.739
  0
LINE
  8
0
 10
-19.7952
 20
161.739
 11
-20.2778
 21
162.09
  0
LINE
  8
0
 10
-20.2778
 20
162.09
 11
-20.7126
 21
162.498
  0
LINE
  8
0
 10
-20.7126
 20
162.498
 11
-21.0928
 21
162.958
  0
LINE
  8
0
 10
-21.0928
 20
162.958
 11
-21.4124
 21
163.462
  0
LINE
  8
0
 10
-21.4124
 20
163.462
 11
-21.6664
 21
164.001
  0
LINE
  8
0
 10
-21.6664
 20
164.001
 11
-21.8508
 21
164.569
  0
LINE
  8
0
 10
-21.8508
 20
164.569
 11
-21.9625
 21
165.155
  0
LINE
  8
0
 10
-21.9625
 20
165.155
 11
-22
 21
165.75
  0
LINE
  8
0
 10
-22
 20
165.75
 11
-22
 21
170.25
  0
LINE
  8
0
 10
-22
 20
170.25
 11
-21.9625
 21
170.845
  0
LINE
  8
0
 10
-21.9625
 20
170.845
 11
-21.8508
 21
171.431
  0
LINE
  8
0
 10
-21.8508
 20
171.431
 11
-21.6664
 21
171.999
  0
LINE
  8
0
 10
-21.6664
 20
171.999
 11
-21.4124
 21
172.538
  0
LINE
  8
0
 10
-21.4124
 20
172.538
 11
-21.0928
 21
173.042
  0
LINE
  8
0
 10
-21.0928
 20
173.042
 11
-20.7126
 21
173.502
  0
LINE
  8
0
 10
-20.7126
 20
173.502
 11
-20.2778
 21
173.91
  0
LINE
  8
0
 10
-20.2778
 20
173.91
 11
-19.7952
 21
174.261
  0
LINE
  8
0
 10
-19.7952
 20
174.261
 11
-19.2724
 21
174.548
  0
LINE
  8
0
 10
-19.2724
 20
174.548
 11
-18.7178
 21
174.768
  0
LINE
  8
0
 10
-18.7178
 20
174.768
 11
-18.1401
 21
174.916
  0
LINE
  8
0
 10
-18.1401
 20
174.916
 11
-17.5482
 21
174.991
  0
LINE
  8
0
 10
-17.5482
 20
174.991
 11
17.5482
 21
174.991
  0
LINE
  8
0
 10
17.5482
 20
174.991
 11
18.1401
 21
174.916
  0
LINE
  8
0
 10
18.1401
 20
174.916
 11
18.7178
 21
174.768
  0
LINE
  8
0
 10
18.7178
 20
174.768
 11
19.2724
 21
174.548
  0
LINE
  8
0
 10
19.2724
 20
174.548
 11
19.7952
 21
174.261
  0
LINE
  8
0
 10
19.7952
 20
174.261
 11
20.2778
 21
173.91
  0
LINE
  8
0
 10
20.2778
 20
173.91
 11
20.7126
 21
173.502
  0
LINE
  8
0
 10
20.7126
 20
173.502
 11
21.0928
 21
173.042
  0
LINE
  8
0
 10
21.0928
 20
173.042
 11
21.4124
 21
172.538
  0
LINE
  8
0
 10
21.4124
 20
172.538
 11
21.6664
 21
171.999
  0
LINE
  8
0
 10
21.6664
 20
171.999
 11
21.8508
 21
171.431
  0
LINE
  8
0
 10
21.8508
 20
171.431
 11
21.9625
 21
170.845
  0
LINE
  8
0
 10
21.9625
 20
170.845
 11
22
 21
170.25
  0
LINE
  8
0
 10
22
 20
170.25
 11
22
 21
165.75
  0
LINE
  8
0
 10
22
 20
165.75
 11
21.9625
 21
165.155
  0
LINE
  8
0
 10
21.9625
 20
165.155
 11
21.8508
 21
164.569
  0
LINE
  8
0
 10
21.8508
 20
164.569
 11
21.6664
 21
164.001
  0
LINE
  8
0
 10
21.6664
 20
164.001
 11
21.4124
 21
163.462
  0
LINE
  8
0
 10
21.4124
 20
163.462
 11
21.0928
 21
162.958
  0
LINE
  8
0
 10
21.0928
 20
162.958
 11
20.7126
 21
162.498
  0
LINE
  8
0
 10
20.7126
 20
162.498
 11
20.2778
 21
162.09
  0
LINE
  8
0
 10
20.2778
 20
162.09
 11
19.7952
 21
161.739
  0
LINE
  8
0
 10
19.7952
 20
161.739
 11
19.2724
 21
161.452
  0
LINE
  8
0
 10
19.2724
 20
161.452
 11
18.7178
 21
161.232
  0
LINE
  8
0
 10
18.7178
 20
161.232
 11
18.1401
 21
161.084
  0
LINE
  8
0
 10
18.1401
 20
161.084
 11
17.5482
 21
161.009
  0
LINE
  8
0
 10
17.5482
 20
161.009
 11
-17.5482
 21
161.009
  0
LINE
  8
0
 10
18.4369
 20
136.589
 11
19.0451
 21
136.745
  0
LINE
  8
0
 10
19.0451
 20
136.745
 11
19.6289
 21
136.976
  0
LINE
  8
0
 10
19.6289
 20
136.976
 11
20.1791
 21
137.278
  0
LINE
  8
0
 10
20.1791
 20
137.278
 11
20.6871
 21
137.647
  0
LINE
  8
0
 10
20.6871
 20
137.647
 11
21.1448
 21
138.077
  0
LINE
  8
0
 10
21.1448
 20
138.077
 11
21.5451
 21
138.561
  0
LINE
  8
0
 10
21.5451
 20
138.561
 11
21.8815
 21
139.091
  0
LINE
  8
0
 10
21.8815
 20
139.091
 11
22.1489
 21
139.659
  0
LINE
  8
0
 10
22.1489
 20
139.659
 11
22.3429
 21
140.257
  0
LINE
  8
0
 10
22.3429
 20
140.257
 11
22.4606
 21
140.873
  0
LINE
  8
0
 10
22.4606
 20
140.873
 11
22.5
 21
141.5
  0
LINE
  8
0
 10
22.5
 20
141.5
 11
22.5
 21
146.5
  0
LINE
  8
0
 10
22.5
 20
146.5
 11
22.4606
 21
147.127
  0
LINE
  8
0
 10
22.4606
 20
147.127
 11
22.3429
 21
147.743
  0
LINE
  8
0
 10
22.3429
 20
147.743
 11
22.1489
 21
148.341
  0
LINE
  8
0
 10
22.1489
 20
148.341
 11
21.8815
 21
148.909
  0
LINE
  8
0
 10
21.8815
 20
148.909
 11
21.5451
 21
149.439
  0
LINE
  8
0
 10
21.5451
 20
149.439
 11
21.1448
 21
149.923
  0
LINE
  8
0
 10
21.1448
 20
149.923
 11
20.6871
 21
150.353
  0
LINE
  8
0
 10
20.6871
 20
150.353
 11
20.1791
 21
150.722
  0
LINE
  8
0
 10
20.1791
 20
150.722
 11
19.6289
 21
151.024
  0
LINE
  8
0
 10
19.6289
 20
151.024
 11
19.0451
 21
151.255
  0
LINE
  8
0
 10
19.0451
 20
151.255
 11
18.4369
 21
151.411
  0
LINE
  8
0
 10
18.4369
 20
151.411
 11
17.8139
 21
151.49
  0
LINE
  8
0
 10
17.8139
 20
151.49
 11
-17.8139
 21
151.49
  0
LINE
  8
0
 10
-17.8139
 20
151.49
 11
-18.4369
 21
151.411
  0
LINE
  8
0
 10
-18.4369
 20
151.411
 11
-19.0451
 21
151.255
  0
LINE
  8
0
 10
-19.0451
 20
151.255
 11
-19.6289
 21
151.024
  0
LINE
  8
0
 10
-19.6289
 20
151.024
 11
-20.1791
 21
150.722
  0
LINE
  8
0
 10
-20.1791
 20
150.722
 11
-20.6871
 21
150.353
  0
LINE
  8
0
 10
-20.6871
 20
150.353
 11
-21.1448
 21
149.923
  0
LINE
  8
0
 10
-21.1448
 20
149.923
 11
-21.5451
 21
149.439
  0
LINE
  8
0
 10
-21.5451
 20
149.439
 11
-21.8815
 21
148.909
  0
LINE
  8
0
 10
-21.8815
 20
148.909
 11
-22.1489
 21
148.341
  0
LINE
  8
0
 10
-22.1489
 20
148.341
 11
-22.3429
 21
147.743
  0
LINE
  8
0
 10
-22.3429
 20
147.743
 11
-22.4606
 21
147.127
  0
LINE
  8
0
 10
-22.4606
 20
147.127
 11
-22.5
 21
146.5
  0
LINE
  8
0
 10
-22.5
 20
146.5
 11
-22.5
 21
141.5
  0
LINE
  8
0
 10
-22.5
 20
141.5
 11
-22.4606
 21
140.873
  0
LINE
  8
0
 10
-22.4606
 20
140.873
 11
-22.3429
 21
140.257
  0
LINE
  8
0
 10
-22.3429
 20
140.257
 11
-22.1489
 21
139.659
  0
LINE
  8
0
 10
-22.1489
 20
139.659
 11
-21.8815
 21
139.091
  0
LINE
  8
0
 10
-21.8815
 20
139.091
 11
-21.5451
 21
138.561
  0
LINE
  8
0
 10
-21.5451
 20
138.561
 11
-21.1448
 21
138.077
  0
LINE
  8
0
 10
-21.1448
 20
138.077
 11
-20.6871
 21
137.647
  0
LINE
  8
0
 10
-20.6871
 20
137.647
 11
-20.1791
 21
137.278
  0
LINE
  8
0
 10
-20.1791
 20
137.278
 11
-19.6289
 21
136.976
  0
LINE
  8
0
 10
-19.6289
 20
136.976
 11
-19.0451
 21
136.745
  0
LINE
  8
0
 10
-19.0451
 20
136.745
 11
-18.4369
 21
136.589
  0
LINE
  8
0
 10
-18.4369
 20
136.589
 11
-17.8139
 21
136.51
  0
LINE
  8
0
 10
-17.8139
 20
136.51
 11
17.8139
 21
136.51
  0
LINE
  8
0
 10
17.8139
 20
136.51
 11
18.4369
 21
136.589
  0
LINE
  8
0
 10
-17.5375
 20
137.181
 11
-18.1079
 21
137.253
  0
LINE
  8
0
 10
-18.1079
 20
137.253
 11
-18.6648
 21
137.396
  0
LINE
  8
0
 10
-18.6648
 20
137.396
 11
-19.1994
 21
137.607
  0
LINE
  8
0
 10
-19.1994
 20
137.607
 11
-19.7032
 21
137.884
  0
LINE
  8
0
 10
-19.7032
 20
137.884
 11
-20.1684
 21
138.222
  0
LINE
  8
0
 10
-20.1684
 20
138.222
 11
-20.5875
 21
138.616
  0
LINE
  8
0
 10
-20.5875
 20
138.616
 11
-20.954
 21
139.059
  0
LINE
  8
0
 10
-20.954
 20
139.059
 11
-21.2621
 21
139.544
  0
LINE
  8
0
 10
-21.2621
 20
139.544
 11
-21.5069
 21
140.065
  0
LINE
  8
0
 10
-21.5069
 20
140.065
 11
-21.6846
 21
140.611
  0
LINE
  8
0
 10
-21.6846
 20
140.611
 11
-21.7923
 21
141.176
  0
LINE
  8
0
 10
-21.7923
 20
141.176
 11
-21.8284
 21
141.75
  0
LINE
  8
0
 10
-21.8284
 20
141.75
 11
-21.8284
 21
146.25
  0
LINE
  8
0
 10
-21.8284
 20
146.25
 11
-21.7923
 21
146.824
  0
LINE
  8
0
 10
-21.7923
 20
146.824
 11
-21.6846
 21
147.389
  0
LINE
  8
0
 10
-21.6846
 20
147.389
 11
-21.5069
 21
147.935
  0
LINE
  8
0
 10
-21.5069
 20
147.935
 11
-21.2621
 21
148.456
  0
LINE
  8
0
 10
-21.2621
 20
148.456
 11
-20.954
 21
148.941
  0
LINE
  8
0
 10
-20.954
 20
148.941
 11
-20.5875
 21
149.384
  0
LINE
  8
0
 10
-20.5875
 20
149.384
 11
-20.1684
 21
149.778
  0
LINE
  8
0
 10
-20.1684
 20
149.778
 11
-19.7032
 21
150.116
  0
LINE
  8
0
 10
-19.7032
 20
150.116
 11
-19.1994
 21
150.393
  0
LINE
  8
0
 10
-19.1994
 20
150.393
 11
-18.6648
 21
150.604
  0
LINE
  8
0
 10
-18.6648
 20
150.604
 11
-18.1079
 21
150.747
  0
LINE
  8
0
 10
-18.1079
 20
150.747
 11
-17.5375
 21
150.819
  0
LINE
  8
0
 10
-17.5375
 20
150.819
 11
17.5375
 21
150.819
  0
LINE
  8
0
 10
17.5375
 20
150.819
 11
18.1079
 21
150.747
  0
LINE
  8
0
 10
18.1079
 20
150.747
 11
18.6648
 21
150.604
  0
LINE
  8
0
 10
18.6648
 20
150.604
 11
19.1994
 21
150.393
  0
LINE
  8
0
 10
19.1994
 20
150.393
 11
19.7032
 21
150.116
  0
LINE
  8
0
 10
19.7032
 20
150.116
 11
20.1684
 21
149.778
  0
LINE
  8
0
 10
20.1684
 20
149.778
 11
20.5875
 21
149.384
  0
LINE
  8
0
 10
20.5875
 20
149.384
 11
20.954
 21
148.941
  0
LINE
  8
0
 10
20.954
 20
148.941
 11
21.2621
 21
148.456
  0
LINE
  8
0
 10
21.2621
 20
148.456
 11
21.5069
 21
147.935
  0
LINE
  8
0
 10
21.5069
 20
147.935
 11
21.6846
 21
147.389
  0
LINE
  8
0
 10
21.6846
 20
147.389
 11
21.7923
 21
146.824
  0
LINE
  8
0
 10
21.7923
 20
146.824
 11
21.8284
 21
146.25
  0
LINE
  8
0
 10
21.8284
 20
146.25
 11
21.8284
 21
141.75
  0
LINE
  8
0
 10
21.8284
 20
141.75
 11
21.7923
 21
141.176
  0
LINE
  8
0
 10
21.7923
 20
141.176
 11
21.6846
 21
140.611
  0
LINE
  8
0
 10
21.6846
 20
140.611
 11
21.5069
 21
140.065
  0
LINE
  8
0
 10
21.5069
 20
140.065
 11
21.2621
 21
139.544
  0
LINE
  8
0
 10
21.2621
 20
139.544
 11
20.954
 21
139.059
  0
LINE
  8
0
 10
20.954
 20
139.059
 11
20.5875
 21
138.616
  0
LINE
  8
0
 10
20.5875
 20
138.616
 11
20.1684
 21
138.222
  0
LINE
  8
0
 10
20.1684
 20
138.222
 11
19.7032
 21
137.884
  0
LINE
  8
0
 10
19.7032
 20
137.884
 11
19.1994
 21
137.607
  0
LINE
  8
0
 10
19.1994
 20
137.607
 11
18.6648
 21
137.396
  0
LINE
  8
0
 10
18.6648
 20
137.396
 11
18.1079
 21
137.253
  0
LINE
  8
0
 10
18.1079
 20
137.253
 11
17.5375
 21
137.181
  0
LINE
  8
0
 10
17.5375
 20
137.181
 11
-17.5375
 21
137.181
  0
LINE
  8
0
 10
18.4369
 20
112.589
 11
19.0451
 21
112.745
  0
LINE
  8
0
 10
19.0451
 20
112.745
 11
19.6289
 21
112.976
  0
LINE
  8
0
 10
19.6289
 20
112.976
 11
20.1791
 21
113.278
  0
LINE
  8
0
 10
20.1791
 20
113.278
 11
20.6871
 21
113.647
  0
LINE
  8
0
 10
20.6871
 20
113.647
 11
21.1448
 21
114.077
  0
LINE
  8
0
 10
21.1448
 20
114.077
 11
21.5451
 21
114.561
  0
LINE
  8
0
 10
21.5451
 20
114.561
 11
21.8815
 21
115.091
  0
LINE
  8
0
 10
21.8815
 20
115.091
 11
22.1489
 21
115.659
  0
LINE
  8
0
 10
22.1489
 20
115.659
 11
22.3429
 21
116.257
  0
LINE
  8
0
 10
22.3429
 20
116.257
 11
22.4606
 21
116.873
  0
LINE
  8
0
 10
22.4606
 20
116.873
 11
22.5
 21
117.5
  0
LINE
  8
0
 10
22.5
 20
117.5
 11
22.5
 21
122.5
  0
LINE
  8
0
 10
22.5
 20
122.5
 11
22.4606
 21
123.127
  0
LINE
  8
0
 10
22.4606
 20
123.127
 11
22.3429
 21
123.743
  0
LINE
  8
0
 10
22.3429
 20
123.743
 11
22.1489
 21
124.341
  0
LINE
  8
0
 10
22.1489
 20
124.341
 11
21.8815
 21
124.909
  0
LINE
  8
0
 10
21.8815
 20
124.909
 11
21.5451
 21
125.439
  0
LINE
  8
0
 10
21.5451
 20
125.439
 11
21.1448
 21
125.923
  0
LINE
  8
0
 10
21.1448
 20
125.923
 11
20.6871
 21
126.353
  0
LINE
  8
0
 10
20.6871
 20
126.353
 11
20.1791
 21
126.722
  0
LINE
  8
0
 10
20.1791
 20
126.722
 11
19.6289
 21
127.024
  0
LINE
  8
0
 10
19.6289
 20
127.024
 11
19.0451
 21
127.255
  0
LINE
  8
0
 10
19.0451
 20
127.255
 11
18.4369
 21
127.411
  0
LINE
  8
0
 10
18.4369
 20
127.411
 11
17.8139
 21
127.49
  0
LINE
  8
0
 10
17.8139
 20
127.49
 11
-17.8139
 21
127.49
  0
LINE
  8
0
 10
-17.8139
 20
127.49
 11
-18.4369
 21
127.411
  0
LINE
  8
0
 10
-18.4369
 20
127.411
 11
-19.0451
 21
127.255
  0
LINE
  8
0
 10
-19.0451
 20
127.255
 11
-19.6289
 21
127.024
  0
LINE
  8
0
 10
-19.6289
 20
127.024
 11
-20.1791
 21
126.722
  0
LINE
  8
0
 10
-20.1791
 20
126.722
 11
-20.6871
 21
126.353
  0
LINE
  8
0
 10
-20.6871
 20
126.353
 11
-21.1448
 21
125.923
  0
LINE
  8
0
 10
-21.1448
 20
125.923
 11
-21.5451
 21
125.439
  0
LINE
  8
0
 10
-21.5451
 20
125.439
 11
-21.8815
 21
124.909
  0
LINE
  8
0
 10
-21.8815
 20
124.909
 11
-22.1489
 21
124.341
  0
LINE
  8
0
 10
-22.1489
 20
124.341
 11
-22.3429
 21
123.743
  0
LINE
  8
0
 10
-22.3429
 20
123.743
 11
-22.4606
 21
123.127
  0
LINE
  8
0
 10
-22.4606
 20
123.127
 11
-22.5
 21
122.5
  0
LINE
  8
0
 10
-22.5
 20
122.5
 11
-22.5
 21
117.5
  0
LINE
  8
0
 10
-22.5
 20
117.5
 11
-22.4606
 21
116.873
  0
LINE
  8
0
 10
-22.4606
 20
116.873
 11
-22.3429
 21
116.257
  0
LINE
  8
0
 10
-22.3429
 20
116.257
 11
-22.1489
 21
115.659
  0
LINE
  8
0
 10
-22.1489
 20
115.659
 11
-21.8815
 21
115.091
  0
LINE
  8
0
 10
-21.8815
 20
115.091
 11
-21.5451
 21
114.561
  0
LINE
  8
0
 10
-21.5451
 20
114.561
 11
-21.1448
 21
114.077
  0
LINE
  8
0
 10
-21.1448
 20
114.077
 11
-20.6871
 21
113.647
  0
LINE
  8
0
 10
-20.6871
 20
113.647
 11
-20.1791
 21
113.278
  0
LINE
  8
0
 10
-20.1791
 20
113.278
 11
-19.6289
 21
112.976
  0
LINE
  8
0
 10
-19.6289
 20
112.976
 11
-19.0451
 21
112.745
  0
LINE
  8
0
 10
-19.0451
 20
112.745
 11
-18.4369
 21
112.589
  0
LINE
  8
0
 10
-18.4369
 20
112.589
 11
-17.8139
 21
112.51
  0
LINE
  8
0
 10
-17.8139
 20
112.51
 11
17.8139
 21
112.51
  0
LINE
  8
0
 10
17.8139
 20
112.51
 11
18.4369
 21
112.589
  0
LINE
  8
0
 10
-17.3825
 20
115.645
 11
-17.6453
 21
115.678
  0
LINE
  8
0
 10
-17.6453
 20
115.678
 11
-17.9019
 21
115.744
  0
LINE
  8
0
 10
-17.9019
 20
115.744
 11
-18.1482
 21
115.841
  0
LINE
  8
0
 10
-18.1482
 20
115.841
 11
-18.3804
 21
115.969
  0
LINE
  8
0
 10
-18.3804
 20
115.969
 11
-18.5947
 21
116.125
  0
LINE
  8
0
 10
-18.5947
 20
116.125
 11
-18.7879
 21
116.306
  0
LINE
  8
0
 10
-18.7879
 20
116.306
 11
-18.9567
 21
116.51
  0
LINE
  8
0
 10
-18.9567
 20
116.51
 11
-19.0987
 21
116.734
  0
LINE
  8
0
 10
-19.0987
 20
116.734
 11
-19.2115
 21
116.973
  0
LINE
  8
0
 10
-19.2115
 20
116.973
 11
-19.2934
 21
117.225
  0
LINE
  8
0
 10
-19.2934
 20
117.225
 11
-19.343
 21
117.486
  0
LINE
  8
0
 10
-19.343
 20
117.486
 11
-19.3596
 21
117.75
  0
LINE
  8
0
 10
-19.3596
 20
117.75
 11
-19.3596
 21
122.25
  0
LINE
  8
0
 10
-19.3596
 20
122.25
 11
-19.343
 21
122.514
  0
LINE
  8
0
 10
-19.343
 20
122.514
 11
-19.2934
 21
122.775
  0
LINE
  8
0
 10
-19.2934
 20
122.775
 11
-19.2115
 21
123.027
  0
LINE
  8
0
 10
-19.2115
 20
123.027
 11
-19.0987
 21
123.266
  0
LINE
  8
0
 10
-19.0987
 20
123.266
 11
-18.9567
 21
123.49
  0
LINE
  8
0
 10
-18.9567
 20
123.49
 11
-18.7879
 21
123.694
  0
LINE
  8
0
 10
-18.7879
 20
123.694
 11
-18.5947
 21
123.875
  0
LINE
  8
0
 10
-18.5947
 20
123.875
 11
-18.3804
 21
124.031
  0
LINE
  8
0
 10
-18.3804
 20
124.031
 11
-18.1482
 21
124.159
  0
LINE
  8
0
 10
-18.1482
 20
124.159
 11
-17.9019
 21
124.256
  0
LINE
  8
0
 10
-17.9019
 20
124.256
 11
-17.6453
 21
124.322
  0
LINE
  8
0
 10
-17.6453
 20
124.322
 11
-17.3825
 21
124.355
  0
LINE
  8
0
 10
-17.3825
 20
124.355
 11
17.3825
 21
124.355
  0
LINE
  8
0
 10
17.3825
 20
124.355
 11
17.6453
 21
124.322
  0
LINE
  8
0
 10
17.6453
 20
124.322
 11
17.9019
 21
124.256
  0
LINE
  8
0
 10
17.9019
 20
124.256
 11
18.1482
 21
124.159
  0
LINE
  8
0
 10
18.1482
 20
124.159
 11
18.3804
 21
124.031
  0
LINE
  8
0
 10
18.3804
 20
124.031
 11
18.5947
 21
123.875
  0
LINE
  8
0
 10
18.5947
 20
123.875
 11
18.7879
 21
123.694
  0
LINE
  8
0
 10
18.7879
 20
123.694
 11
18.9567
 21
123.49
  0
LINE
  8
0
 10
18.9567
 20
123.49
 11
19.0987
 21
123.266
  0
LINE
  8
0
 10
19.0987
 20
123.266
 11
19.2115
 21
123.027
  0
LINE
  8
0
 10
19.2115
 20
123.027
 11
19.2934
 21
122.775
  0
LINE
  8
0
 10
19.2934
 20
122.775
 11
19.343
 21
122.514
  0
LINE
  8
0
 10
19.343
 20
122.514
 11
19.3596
 21
122.25
  0
LINE
  8
0
 10
19.3596
 20
122.25
 11
19.3596
 21
117.75
  0
LINE
  8
0
 10
19.3596
 20
117.75
 11
19.343
 21
117.486
  0
LINE
  8
0
 10
19.343
 20
117.486
 11
19.2934
 21
117.225
  0
LINE
  8
0
 10
19.2934
 20
117.225
 11
19.2115
 21
116.973
  0
LINE
  8
0
 10
19.2115
 20
116.973
 11
19.0987
 21
116.734
  0
LINE
  8
0
 10
19.0987
 20
116.734
 11
18.9567
 21
116.51
  0
LINE
  8
0
 10
18.9567
 20
116.51
 11
18.7879
 21
116.306
  0
LINE
  8
0
 10
18.7879
 20
116.306
 11
18.5947
 21
116.125
  0
LINE
  8
0
 10
18.5947
 20
116.125
 11
18.3804
 21
115.969
  0
LINE
  8
0
 10
18.3804
 20
115.969
 11
18.1482
 21
115.841
  0
LINE
  8
0
 10
18.1482
 20
115.841
 11
17.9019
 21
115.744
  0
LINE
  8
0
 10
17.9019
 20
115.744
 11
17.6453
 21
115.678
  0
LINE
  8
0
 10
17.6453
 20
115.678
 11
17.3825
 21
115.645
  0
LINE
  8
0
 10
17.3825
 20
115.645
 11
-17.3825
 21
115.645
  0
ENDSEC
  0
SECTION
  2
OBJECTS
  0
DICTIONARY
  0
ENDSEC
  0
EOF
