<?xml version="1.0" standalone="no"?>
<!DOCTYPE svg PUBLIC "-//W3C//DTD SVG 1.1//EN" "http://www.w3.org/Graphics/SVG/1.1/DTD/svg11.dtd">
<svg width="60mm" height="154mm" viewBox="-30 -257 60 154" xmlns="http://www.w3.org/2000/svg" version="1.1">
<title>OpenSCAD Model</title>
<path d="
M 25.4369,-213.089 L 26.0451,-213.245 L 26.6289,-213.476 L 27.1791,-213.778 L 27.6871,-214.147 L 28.1448,-214.577
 L 28.5451,-215.061 L 28.8815,-215.591 L 29.1489,-216.159 L 29.3429,-216.757 L 29.4606,-217.373 L 29.5,-218
 L 29.5,-252 L 29.4606,-252.627 L 29.3429,-253.243 L 29.1489,-253.841 L 28.8815,-254.409 L 28.5451,-254.939
 L 28.1448,-255.423 L 27.6871,-255.853 L 27.1791,-256.222 L 26.6289,-256.524 L 26.0451,-256.755 L 25.4369,-256.911
 L 24.8139,-256.99 L -9.81395,-256.99 L -10.4369,-256.911 L -11.0451,-256.755 L -11.6289,-256.524 L -12.1791,-256.222
 L -12.6871,-255.853 L -13.1448,-255.423 L -13.5451,-254.939 L -13.8815,-254.409 L -14.1489,-253.841 L -14.3429,-253.243
 L -14.4606,-252.627 L -14.5,-252 L -14.5,-226.99 L -24.8139,-226.99 L -25.4369,-226.911 L -26.0451,-226.755
 L -26.6289,-226.524 L -27.1791,-226.222 L -27.6871,-225.853 L -28.1448,-225.423 L -28.5451,-224.939 L -28.8815,-224.409
 L -29.1489,-223.841 L -29.3429,-223.243 L -29.4606,-222.627 L -29.5,-222 L -29.5,-218 L -29.4606,-217.373
 L -29.3429,-216.757 L -29.1489,-216.159 L -28.8815,-215.591 L -28.5451,-215.061 L -28.1448,-214.577 L -27.6871,-214.147
 L -27.1791,-213.778 L -26.6289,-213.476 L -26.0451,-213.245 L -25.4369,-213.089 L -24.8139,-213.01 L 24.8139,-213.01
 z
M 22.3116,-217.006 L 21.9379,-217.053 L 21.5729,-217.147 L 21.2227,-217.286 L 20.8925,-217.467 L 20.5877,-217.688
 L 20.3131,-217.946 L 20.0729,-218.237 L 19.8711,-218.555 L 19.7107,-218.896 L 19.5942,-219.254 L 19.5237,-219.624
 L 19.5,-220 L 19.5237,-220.376 L 19.5942,-220.746 L 19.7107,-221.104 L 19.8711,-221.445 L 20.0729,-221.763
 L 20.3131,-222.054 L 20.5877,-222.312 L 20.8925,-222.533 L 21.2227,-222.714 L 21.5729,-222.853 L 21.9379,-222.947
 L 22.3116,-222.994 L 22.6884,-222.994 L 23.0621,-222.947 L 23.427,-222.853 L 23.7773,-222.714 L 24.1075,-222.533
 L 24.4123,-222.312 L 24.6869,-222.054 L 24.927,-221.763 L 25.1289,-221.445 L 25.2893,-221.104 L 25.4057,-220.746
 L 25.4763,-220.376 L 25.5,-220 L 25.4763,-219.624 L 25.4057,-219.254 L 25.2893,-218.896 L 25.1289,-218.555
 L 24.927,-218.237 L 24.6869,-217.946 L 24.4123,-217.688 L 24.1075,-217.467 L 23.7773,-217.286 L 23.427,-217.147
 L 23.0621,-217.053 L 22.6884,-217.006 z
M -22.6884,-217.006 L -23.0621,-217.053 L -23.427,-217.147 L -23.7773,-217.286 L -24.1075,-217.467 L -24.4123,-217.688
 L -24.6869,-217.946 L -24.927,-218.237 L -25.1289,-218.555 L -25.2893,-218.896 L -25.4057,-219.254 L -25.4763,-219.624
 L -25.5,-220 L -25.4763,-220.376 L -25.4057,-220.746 L -25.2893,-221.104 L -25.1289,-221.445 L -24.927,-221.763
 L -24.6869,-222.054 L -24.4123,-222.312 L -24.1075,-222.533 L -23.7773,-222.714 L -23.427,-222.853 L -23.0621,-222.947
 L -22.6884,-222.994 L -22.3116,-222.994 L -21.9379,-222.947 L -21.5729,-222.853 L -21.2227,-222.714 L -20.8925,-222.533
 L -20.5877,-222.312 L -20.3131,-222.054 L -20.0729,-221.763 L -19.8711,-221.445 L -19.7107,-221.104 L -19.5942,-220.746
 L -19.5237,-220.376 L -19.5,-220 L -19.5237,-219.624 L -19.5942,-219.254 L -19.7107,-218.896 L -19.8711,-218.555
 L -20.0729,-218.237 L -20.3131,-217.946 L -20.5877,-217.688 L -20.8925,-217.467 L -21.2227,-217.286 L -21.5729,-217.147
 L -21.9379,-217.053 L -22.3116,-217.006 z
M -7.68837,-217.006 L -8.06213,-217.053 L -8.42705,-217.147 L -8.77733,-217.286 L -9.10747,-217.467 L -9.41226,-217.688
 L -9.6869,-217.946 L -9.92705,-218.237 L -10.1289,-218.555 L -10.2893,-218.896 L -10.4057,-219.254 L -10.4763,-219.624
 L -10.5,-220 L -10.4763,-220.376 L -10.4057,-220.746 L -10.2893,-221.104 L -10.1289,-221.445 L -9.92705,-221.763
 L -9.6869,-222.054 L -9.41226,-222.312 L -9.10747,-222.533 L -8.77733,-222.714 L -8.42705,-222.853 L -8.06213,-222.947
 L -7.68837,-222.994 L -7.31161,-222.994 L -6.93785,-222.947 L -6.57294,-222.853 L -6.22266,-222.714 L -5.89252,-222.533
 L -5.58772,-222.312 L -5.31308,-222.054 L -5.07294,-221.763 L -4.87108,-221.445 L -4.71066,-221.104 L -4.59424,-220.746
 L -4.52365,-220.376 L -4.5,-220 L -4.52365,-219.624 L -4.59424,-219.254 L -4.71066,-218.896 L -4.87108,-218.555
 L -5.07294,-218.237 L -5.31308,-217.946 L -5.58772,-217.688 L -5.89252,-217.467 L -6.22266,-217.286 L -6.57294,-217.147
 L -6.93785,-217.053 L -7.31161,-217.006 z
M 7.31161,-217.006 L 6.93785,-217.053 L 6.57294,-217.147 L 6.22266,-217.286 L 5.89252,-217.467 L 5.58772,-217.688
 L 5.31308,-217.946 L 5.07294,-218.237 L 4.87108,-218.555 L 4.71066,-218.896 L 4.59424,-219.254 L 4.52365,-219.624
 L 4.5,-220 L 4.52365,-220.376 L 4.59424,-220.746 L 4.71066,-221.104 L 4.87108,-221.445 L 5.07294,-221.763
 L 5.31308,-222.054 L 5.58772,-222.312 L 5.89252,-222.533 L 6.22266,-222.714 L 6.57294,-222.853 L 6.93785,-222.947
 L 7.31161,-222.994 L 7.68837,-222.994 L 8.06213,-222.947 L 8.42705,-222.853 L 8.77733,-222.714 L 9.10747,-222.533
 L 9.41226,-222.312 L 9.6869,-222.054 L 9.92705,-221.763 L 10.1289,-221.445 L 10.2893,-221.104 L 10.4057,-220.746
 L 10.4763,-220.376 L 10.5,-220 L 10.4763,-219.624 L 10.4057,-219.254 L 10.2893,-218.896 L 10.1289,-218.555
 L 9.92705,-218.237 L 9.6869,-217.946 L 9.41226,-217.688 L 9.10747,-217.467 L 8.77733,-217.286 L 8.42705,-217.147
 L 8.06213,-217.053 L 7.68837,-217.006 z
M 25.4369,-103.089 L 26.0451,-103.245 L 26.6289,-103.476 L 27.1791,-103.778 L 27.6871,-104.147 L 28.1448,-104.577
 L 28.5451,-105.061 L 28.8815,-105.591 L 29.1489,-106.159 L 29.3429,-106.757 L 29.4606,-107.373 L 29.5,-108
 L 29.5,-142 L 29.4606,-142.627 L 29.3429,-143.243 L 29.1489,-143.841 L 28.8815,-144.409 L 28.5451,-144.939
 L 28.1448,-145.423 L 27.6871,-145.853 L 27.1791,-146.222 L 26.6289,-146.524 L 26.0451,-146.755 L 25.4369,-146.911
 L 24.8139,-146.99 L -9.81395,-146.99 L -10.4369,-146.911 L -11.0451,-146.755 L -11.6289,-146.524 L -12.1791,-146.222
 L -12.6871,-145.853 L -13.1448,-145.423 L -13.5451,-144.939 L -13.8815,-144.409 L -14.1489,-143.841 L -14.3429,-143.243
 L -14.4606,-142.627 L -14.5,-142 L -14.5,-116.99 L -24.8139,-116.99 L -25.4369,-116.911 L -26.0451,-116.755
 L -26.6289,-116.524 L -27.1791,-116.222 L -27.6871,-115.853 L -28.1448,-115.423 L -28.5451,-114.939 L -28.8815,-114.409
 L -29.1489,-113.841 L -29.3429,-113.243 L -29.4606,-112.627 L -29.5,-112 L -29.5,-108 L -29.4606,-107.373
 L -29.3429,-106.757 L -29.1489,-106.159 L -28.8815,-105.591 L -28.5451,-105.061 L -28.1448,-104.577 L -27.6871,-104.147
 L -27.1791,-103.778 L -26.6289,-103.476 L -26.0451,-103.245 L -25.4369,-103.089 L -24.8139,-103.01 L 24.8139,-103.01
 z
M 22.3116,-107.006 L 21.9379,-107.053 L 21.5729,-107.147 L 21.2227,-107.286 L 20.8925,-107.467 L 20.5877,-107.688
 L 20.3131,-107.946 L 20.0729,-108.237 L 19.8711,-108.555 L 19.7107,-108.896 L 19.5942,-109.254 L 19.5237,-109.624
 L 19.5,-110 L 19.5237,-110.376 L 19.5942,-110.746 L 19.7107,-111.104 L 19.8711,-111.445 L 20.0729,-111.763
 L 20.3131,-112.054 L 20.5877,-112.312 L 20.8925,-112.533 L 21.2227,-112.714 L 21.5729,-112.853 L 21.9379,-112.947
 L 22.3116,-112.994 L 22.6884,-112.994 L 23.0621,-112.947 L 23.427,-112.853 L 23.7773,-112.714 L 24.1075,-112.533
 L 24.4123,-112.312 L 24.6869,-112.054 L 24.927,-111.763 L 25.1289,-111.445 L 25.2893,-111.104 L 25.4057,-110.746
 L 25.4763,-110.376 L 25.5,-110 L 25.4763,-109.624 L 25.4057,-109.254 L 25.2893,-108.896 L 25.1289,-108.555
 L 24.927,-108.237 L 24.6869,-107.946 L 24.4123,-107.688 L 24.1075,-107.467 L 23.7773,-107.286 L 23.427,-107.147
 L 23.0621,-107.053 L 22.6884,-107.006 z
M 7.31161,-107.006 L 6.93785,-107.053 L 6.57294,-107.147 L 6.22266,-107.286 L 5.89252,-107.467 L 5.58772,-107.688
 L 5.31308,-107.946 L 5.07294,-108.237 L 4.87108,-108.555 L 4.71066,-108.896 L 4.59424,-109.254 L 4.52365,-109.624
 L 4.5,-110 L 4.52365,-110.376 L 4.59424,-110.746 L 4.71066,-111.104 L 4.87108,-111.445 L 5.07294,-111.763
 L 5.31308,-112.054 L 5.58772,-112.312 L 5.89252,-112.533 L 6.22266,-112.714 L 6.57294,-112.853 L 6.93785,-112.947
 L 7.31161,-112.994 L 7.68837,-112.994 L 8.06213,-112.947 L 8.42705,-112.853 L 8.77733,-112.714 L 9.10747,-112.533
 L 9.41226,-112.312 L 9.6869,-112.054 L 9.92705,-111.763 L 10.1289,-111.445 L 10.2893,-111.104 L 10.4057,-110.746
 L 10.4763,-110.376 L 10.5,-110 L 10.4763,-109.624 L 10.4057,-109.254 L 10.2893,-108.896 L 10.1289,-108.555
 L 9.92705,-108.237 L 9.6869,-107.946 L 9.41226,-107.688 L 9.10747,-107.467 L 8.77733,-107.286 L 8.42705,-107.147
 L 8.06213,-107.053 L 7.68837,-107.006 z
M -22.6884,-107.006 L -23.0621,-107.053 L -23.427,-107.147 L -23.7773,-107.286 L -24.1075,-107.467 L -24.4123,-107.688
 L -24.6869,-107.946 L -24.927,-108.237 L -25.1289,-108.555 L -25.2893,-108.896 L -25.4057,-109.254 L -25.4763,-109.624
 L -25.5,-110 L -25.4763,-110.376 L -25.4057,-110.746 L -25.2893,-111.104 L -25.1289,-111.445 L -24.927,-111.763
 L -24.6869,-112.054 L -24.4123,-112.312 L -24.1075,-112.533 L -23.7773,-112.714 L -23.427,-112.853 L -23.0621,-112.947
 L -22.6884,-112.994 L -22.3116,-112.994 L -21.9379,-112.947 L -21.5729,-112.853 L -21.2227,-112.714 L -20.8925,-112.533
 L -20.5877,-112.312 L -20.3131,-112.054 L -20.0729,-111.763 L -19.8711,-111.445 L -19.7107,-111.104 L -19.5942,-110.746
 L -19.5237,-110.376 L -19.5,-110 L -19.5237,-109.624 L -19.5942,-109.254 L -19.7107,-108.896 L -19.8711,-108.555
 L -20.0729,-108.237 L -20.3131,-107.946 L -20.5877,-107.688 L -20.8925,-107.467 L -21.2227,-107.286 L -21.5729,-107.147
 L -21.9379,-107.053 L -22.3116,-107.006 z
M -7.68837,-107.006 L -8.06213,-107.053 L -8.42705,-107.147 L -8.77733,-107.286 L -9.10747,-107.467 L -9.41226,-107.688
 L -9.6869,-107.946 L -9.92705,-108.237 L -10.1289,-108.555 L -10.2893,-108.896 L -10.4057,-109.254 L -10.4763,-109.624
 L -10.5,-110 L -10.4763,-110.376 L -10.4057,-110.746 L -10.2893,-111.104 L -10.1289,-111.445 L -9.92705,-111.763
 L -9.6869,-112.054 L -9.41226,-112.312 L -9.10747,-112.533 L -8.77733,-112.714 L -8.42705,-112.853 L -8.06213,-112.947
 L -7.68837,-112.994 L -7.31161,-112.994 L -6.93785,-112.947 L -6.57294,-112.853 L -6.22266,-112.714 L -5.89252,-112.533
 L -5.58772,-112.312 L -5.31308,-112.054 L -5.07294,-111.763 L -4.87108,-111.445 L -4.71066,-111.104 L -4.59424,-110.746
 L -4.52365,-110.376 L -4.5,-110 L -4.52365,-109.624 L -4.59424,-109.254 L -4.71066,-108.896 L -4.87108,-108.555
 L -5.07294,-108.237 L -5.31308,-107.946 L -5.58772,-107.688 L -5.89252,-107.467 L -6.22266,-107.286 L -6.57294,-107.147
 L -6.93785,-107.053 L -7.31161,-107.006 z
" stroke="black" fill="lightgray" stroke-width="0.5"/>
</svg>
