<?xml version="1.0" standalone="no"?>
<!DOCTYPE svg PUBLIC "-//W3C//DTD SVG 1.1//EN" "http://www.w3.org/Graphics/SVG/1.1/DTD/svg11.dtd">
<svg width="62mm" height="64mm" viewBox="-32 -104 62 64" xmlns="http://www.w3.org/2000/svg" version="1.1">
<title>OpenSCAD Model</title>
<path d="
M -28.5,-89.9413 L -28.1871,-89.6474 L -27.6791,-89.2784 L -27.1289,-88.9759 L -26.5451,-88.7447 L -25.9369,-88.5886
 L -25.3139,-88.5099 L 25.3139,-88.5099 L 25.9369,-88.5886 L 26.5451,-88.7447 L 27.1289,-88.9759 L 27.6791,-89.2784
 L 28.1871,-89.6474 L 28.6448,-90.0773 L 29.0451,-90.5611 L 29.3815,-91.0912 L 29.6489,-91.6594 L 29.8429,-92.2566
 L 29.9606,-92.8733 L 30,-93.5 L 30,-98.5 L 29.9606,-99.1267 L 29.8429,-99.7434 L 29.6489,-100.341
 L 29.3815,-100.909 L 29.0451,-101.439 L 28.6448,-101.923 L 28.1871,-102.353 L 27.6791,-102.722 L 27.1289,-103.024
 L 26.5451,-103.255 L 25.9369,-103.411 L 25.3139,-103.49 L -25.3139,-103.49 L -25.9369,-103.411 L -26.5451,-103.255
 L -27.1289,-103.024 L -27.6791,-102.722 L -28.1871,-102.353 L -28.5,-102.059 L -28.5,-103.49 L -31.5,-103.49
 L -31.5,-88.5099 L -28.5,-88.5099 z
M -24.7432,-90.135 L -25.2256,-90.196 L -25.6967,-90.3169 L -26.1489,-90.4959 L -26.5751,-90.7302 L -26.9685,-91.0161
 L -27.323,-91.349 L -27.633,-91.7237 L -27.8936,-92.1344 L -28.1007,-92.5744 L -28.251,-93.0369 L -28.3421,-93.5146
 L -28.3726,-94 L -28.3726,-98 L -28.3421,-98.4854 L -28.251,-98.9631 L -28.1007,-99.4256 L -27.8936,-99.8656
 L -27.633,-100.276 L -27.323,-100.651 L -26.9685,-100.984 L -26.5751,-101.27 L -26.1489,-101.504 L -25.6967,-101.683
 L -25.2256,-101.804 L -24.7432,-101.865 L 24.7432,-101.865 L 25.2256,-101.804 L 25.6967,-101.683 L 26.1489,-101.504
 L 26.5751,-101.27 L 26.9685,-100.984 L 27.323,-100.651 L 27.633,-100.276 L 27.8936,-99.8656 L 28.1007,-99.4256
 L 28.251,-98.9631 L 28.3421,-98.4854 L 28.3726,-98 L 28.3726,-94 L 28.3421,-93.5146 L 28.251,-93.0369
 L 28.1007,-92.5744 L 27.8936,-92.1344 L 27.633,-91.7237 L 27.323,-91.349 L 26.9685,-91.0161 L 26.5751,-90.7302
 L 26.1489,-90.4959 L 25.6967,-90.3169 L 25.2256,-90.196 L 24.7432,-90.135 z
M 25.9369,-64.5886 L 26.5451,-64.7447 L 27.1289,-64.9759 L 27.6791,-65.2784 L 28.1871,-65.6474 L 28.6448,-66.0773
 L 29.0451,-66.5611 L 29.3815,-67.0912 L 29.6489,-67.6594 L 29.8429,-68.2566 L 29.9606,-68.8733 L 30,-69.5
 L 30,-74.5 L 29.9606,-75.1267 L 29.8429,-75.7434 L 29.6489,-76.3406 L 29.3815,-76.9088 L 29.0451,-77.4389
 L 28.6448,-77.9227 L 28.1871,-78.3526 L 27.6791,-78.7216 L 27.1289,-79.0241 L 26.5451,-79.2553 L 25.9369,-79.4114
 L 25.3139,-79.4901 L -25.3139,-79.4901 L -25.9369,-79.4114 L -26.5451,-79.2553 L -27.1289,-79.0241 L -27.6791,-78.7216
 L -28.1871,-78.3526 L -28.5,-78.0587 L -28.5,-79.1148 L -31.5,-79.1148 L -31.5,-64.8852 L -28.5,-64.8852
 L -28.5,-65.9413 L -28.1871,-65.6474 L -27.6791,-65.2784 L -27.1289,-64.9759 L -26.5451,-64.7447 L -25.9369,-64.5886
 L -25.3139,-64.5099 L 25.3139,-64.5099 z
M 25.9369,-40.5886 L 26.5451,-40.7447 L 27.1289,-40.9759 L 27.6791,-41.2784 L 28.1871,-41.6474 L 28.6448,-42.0773
 L 29.0451,-42.5611 L 29.3815,-43.0912 L 29.6489,-43.6594 L 29.8429,-44.2566 L 29.9606,-44.8733 L 30,-45.5
 L 30,-50.5 L 29.9606,-51.1267 L 29.8429,-51.7434 L 29.6489,-52.3406 L 29.3815,-52.9088 L 29.0451,-53.4389
 L 28.6448,-53.9227 L 28.1871,-54.3526 L 27.6791,-54.7216 L 27.1289,-55.0241 L 26.5451,-55.2553 L 25.9369,-55.4114
 L 25.3139,-55.4901 L -25.3139,-55.4901 L -25.9369,-55.4114 L -26.5451,-55.2553 L -27.1289,-55.0241 L -27.6791,-54.7216
 L -28.1871,-54.3526 L -28.6448,-53.9227 L -29.0451,-53.4389 L -29.3815,-52.9088 L -29.6489,-52.3406 L -29.8429,-51.7434
 L -29.9,-51.4442 L -31.5,-51.4442 L -31.5,-44.5558 L -29.9,-44.5558 L -29.8429,-44.2566 L -29.6489,-43.6594
 L -29.3815,-43.0912 L -29.0451,-42.5611 L -28.6448,-42.0773 L -28.1871,-41.6474 L -27.6791,-41.2784 L -27.1289,-40.9759
 L -26.5451,-40.7447 L -25.9369,-40.5886 L -25.3139,-40.5099 L 25.3139,-40.5099 z
M -22.613,-46.2036 L -22.8373,-46.2319 L -23.0562,-46.2881 L -23.2664,-46.3713 L -23.4645,-46.4802 L -23.6474,-46.6131
 L -23.8121,-46.7678 L -23.9562,-46.942 L -24.0773,-47.1329 L -24.1736,-47.3374 L -24.2434,-47.5524 L -24.2858,-47.7744
 L -24.3,-48 L -24.2858,-48.2256 L -24.2434,-48.4476 L -24.1736,-48.6626 L -24.0773,-48.8671 L -23.9562,-49.058
 L -23.8121,-49.2322 L -23.6474,-49.3869 L -23.4645,-49.5198 L -23.2664,-49.6287 L -23.0562,-49.7119 L -22.8373,-49.7681
 L -22.613,-49.7964 L -22.387,-49.7964 L -22.1627,-49.7681 L -21.9438,-49.7119 L -21.7336,-49.6287 L -21.5355,-49.5198
 L -21.3526,-49.3869 L -21.1879,-49.2322 L -21.0438,-49.058 L -20.9226,-48.8671 L -20.8264,-48.6626 L -20.7565,-48.4476
 L -20.7142,-48.2256 L -20.7,-48 L -20.7142,-47.7744 L -20.7565,-47.5524 L -20.8264,-47.3374 L -20.9226,-47.1329
 L -21.0438,-46.942 L -21.1879,-46.7678 L -21.3526,-46.6131 L -21.5355,-46.4802 L -21.7336,-46.3713 L -21.9438,-46.2881
 L -22.1627,-46.2319 L -22.387,-46.2036 z
M 22.387,-46.2036 L 22.1627,-46.2319 L 21.9438,-46.2881 L 21.7336,-46.3713 L 21.5355,-46.4802 L 21.3526,-46.6131
 L 21.1879,-46.7678 L 21.0438,-46.942 L 20.9226,-47.1329 L 20.8264,-47.3374 L 20.7565,-47.5524 L 20.7142,-47.7744
 L 20.7,-48 L 20.7142,-48.2256 L 20.7565,-48.4476 L 20.8264,-48.6626 L 20.9226,-48.8671 L 21.0438,-49.058
 L 21.1879,-49.2322 L 21.3526,-49.3869 L 21.5355,-49.5198 L 21.7336,-49.6287 L 21.9438,-49.7119 L 22.1627,-49.7681
 L 22.387,-49.7964 L 22.613,-49.7964 L 22.8373,-49.7681 L 23.0562,-49.7119 L 23.2664,-49.6287 L 23.4645,-49.5198
 L 23.6474,-49.3869 L 23.8121,-49.2322 L 23.9562,-49.058 L 24.0773,-48.8671 L 24.1736,-48.6626 L 24.2434,-48.4476
 L 24.2858,-48.2256 L 24.3,-48 L 24.2858,-47.7744 L 24.2434,-47.5524 L 24.1736,-47.3374 L 24.0773,-47.1329
 L 23.9562,-46.942 L 23.8121,-46.7678 L 23.6474,-46.6131 L 23.4645,-46.4802 L 23.2664,-46.3713 L 23.0562,-46.2881
 L 22.8373,-46.2319 L 22.613,-46.2036 z
" stroke="black" fill="lightgray" stroke-width="0.5"/>
</svg>
