  0
SECTION
  2
BLOCKS
  0
ENDSEC
  0
SECTION
  2
ENTITIES
  0
LINE
  8
0
 10
18.4369
 20
315.089
 11
19.0451
 21
315.245
  0
LINE
  8
0
 10
19.0451
 20
315.245
 11
19.6289
 21
315.476
  0
LINE
  8
0
 10
19.6289
 20
315.476
 11
20.1791
 21
315.778
  0
LINE
  8
0
 10
20.1791
 20
315.778
 11
20.6871
 21
316.147
  0
LINE
  8
0
 10
20.6871
 20
316.147
 11
21.1448
 21
316.577
  0
LINE
  8
0
 10
21.1448
 20
316.577
 11
21.5451
 21
317.061
  0
LINE
  8
0
 10
21.5451
 20
317.061
 11
21.8815
 21
317.591
  0
LINE
  8
0
 10
21.8815
 20
317.591
 11
22.1489
 21
318.159
  0
LINE
  8
0
 10
22.1489
 20
318.159
 11
22.3429
 21
318.757
  0
LINE
  8
0
 10
22.3429
 20
318.757
 11
22.4606
 21
319.373
  0
LINE
  8
0
 10
22.4606
 20
319.373
 11
22.5
 21
320
  0
LINE
  8
0
 10
22.5
 20
320
 11
22.5
 21
370
  0
LINE
  8
0
 10
22.5
 20
370
 11
22.4606
 21
370.627
  0
LINE
  8
0
 10
22.4606
 20
370.627
 11
22.3429
 21
371.243
  0
LINE
  8
0
 10
22.3429
 20
371.243
 11
22.1489
 21
371.841
  0
LINE
  8
0
 10
22.1489
 20
371.841
 11
21.8815
 21
372.409
  0
LINE
  8
0
 10
21.8815
 20
372.409
 11
21.5451
 21
372.939
  0
LINE
  8
0
 10
21.5451
 20
372.939
 11
21.1448
 21
373.423
  0
LINE
  8
0
 10
21.1448
 20
373.423
 11
20.6871
 21
373.853
  0
LINE
  8
0
 10
20.6871
 20
373.853
 11
20.1791
 21
374.222
  0
LINE
  8
0
 10
20.1791
 20
374.222
 11
19.6289
 21
374.524
  0
LINE
  8
0
 10
19.6289
 20
374.524
 11
19.0451
 21
374.755
  0
LINE
  8
0
 10
19.0451
 20
374.755
 11
18.4369
 21
374.911
  0
LINE
  8
0
 10
18.4369
 20
374.911
 11
17.8139
 21
374.99
  0
LINE
  8
0
 10
17.8139
 20
374.99
 11
-17.8139
 21
374.99
  0
LINE
  8
0
 10
-17.8139
 20
374.99
 11
-18.4369
 21
374.911
  0
LINE
  8
0
 10
-18.4369
 20
374.911
 11
-19.0451
 21
374.755
  0
LINE
  8
0
 10
-19.0451
 20
374.755
 11
-19.6289
 21
374.524
  0
LINE
  8
0
 10
-19.6289
 20
374.524
 11
-20.1791
 21
374.222
  0
LINE
  8
0
 10
-20.1791
 20
374.222
 11
-20.6871
 21
373.853
  0
LINE
  8
0
 10
-20.6871
 20
373.853
 11
-21.1448
 21
373.423
  0
LINE
  8
0
 10
-21.1448
 20
373.423
 11
-21.5451
 21
372.939
  0
LINE
  8
0
 10
-21.5451
 20
372.939
 11
-21.8815
 21
372.409
  0
LINE
  8
0
 10
-21.8815
 20
372.409
 11
-22.1489
 21
371.841
  0
LINE
  8
0
 10
-22.1489
 20
371.841
 11
-22.3429
 21
371.243
  0
LINE
  8
0
 10
-22.3429
 20
371.243
 11
-22.4606
 21
370.627
  0
LINE
  8
0
 10
-22.4606
 20
370.627
 11
-22.5
 21
370
  0
LINE
  8
0
 10
-22.5
 20
370
 11
-22.5
 21
320
  0
LINE
  8
0
 10
-22.5
 20
320
 11
-22.4606
 21
319.373
  0
LINE
  8
0
 10
-22.4606
 20
319.373
 11
-22.3429
 21
318.757
  0
LINE
  8
0
 10
-22.3429
 20
318.757
 11
-22.1489
 21
318.159
  0
LINE
  8
0
 10
-22.1489
 20
318.159
 11
-21.8815
 21
317.591
  0
LINE
  8
0
 10
-21.8815
 20
317.591
 11
-21.5451
 21
317.061
  0
LINE
  8
0
 10
-21.5451
 20
317.061
 11
-21.1448
 21
316.577
  0
LINE
  8
0
 10
-21.1448
 20
316.577
 11
-20.6871
 21
316.147
  0
LINE
  8
0
 10
-20.6871
 20
316.147
 11
-20.1791
 21
315.778
  0
LINE
  8
0
 10
-20.1791
 20
315.778
 11
-19.6289
 21
315.476
  0
LINE
  8
0
 10
-19.6289
 20
315.476
 11
-19.0451
 21
315.245
  0
LINE
  8
0
 10
-19.0451
 20
315.245
 11
-18.4369
 21
315.089
  0
LINE
  8
0
 10
-18.4369
 20
315.089
 11
-17.8139
 21
315.01
  0
LINE
  8
0
 10
-17.8139
 20
315.01
 11
17.8139
 21
315.01
  0
LINE
  8
0
 10
17.8139
 20
315.01
 11
18.4369
 21
315.089
  0
LINE
  8
0
 10
-17.2512
 20
316.508
 11
-17.7495
 21
316.571
  0
LINE
  8
0
 10
-17.7495
 20
316.571
 11
-18.2361
 21
316.696
  0
LINE
  8
0
 10
-18.2361
 20
316.696
 11
-18.7031
 21
316.881
  0
LINE
  8
0
 10
-18.7031
 20
316.881
 11
-19.1433
 21
317.123
  0
LINE
  8
0
 10
-19.1433
 20
317.123
 11
-19.5497
 21
317.418
  0
LINE
  8
0
 10
-19.5497
 20
317.418
 11
-19.9159
 21
317.762
  0
LINE
  8
0
 10
-19.9159
 20
317.762
 11
-20.2361
 21
318.149
  0
LINE
  8
0
 10
-20.2361
 20
318.149
 11
-20.5052
 21
318.573
  0
LINE
  8
0
 10
-20.5052
 20
318.573
 11
-20.7191
 21
319.028
  0
LINE
  8
0
 10
-20.7191
 20
319.028
 11
-20.8743
 21
319.505
  0
LINE
  8
0
 10
-20.8743
 20
319.505
 11
-20.9684
 21
319.999
  0
LINE
  8
0
 10
-20.9684
 20
319.999
 11
-21
 21
320.5
  0
LINE
  8
0
 10
-21
 20
320.5
 11
-21
 21
369.5
  0
LINE
  8
0
 10
-21
 20
369.5
 11
-20.9684
 21
370.001
  0
LINE
  8
0
 10
-20.9684
 20
370.001
 11
-20.8743
 21
370.495
  0
LINE
  8
0
 10
-20.8743
 20
370.495
 11
-20.7191
 21
370.972
  0
LINE
  8
0
 10
-20.7191
 20
370.972
 11
-20.5052
 21
371.427
  0
LINE
  8
0
 10
-20.5052
 20
371.427
 11
-20.2361
 21
371.851
  0
LINE
  8
0
 10
-20.2361
 20
371.851
 11
-19.9159
 21
372.238
  0
LINE
  8
0
 10
-19.9159
 20
372.238
 11
-19.5497
 21
372.582
  0
LINE
  8
0
 10
-19.5497
 20
372.582
 11
-19.1433
 21
372.877
  0
LINE
  8
0
 10
-19.1433
 20
372.877
 11
-18.7031
 21
373.119
  0
LINE
  8
0
 10
-18.7031
 20
373.119
 11
-18.2361
 21
373.304
  0
LINE
  8
0
 10
-18.2361
 20
373.304
 11
-17.7495
 21
373.429
  0
LINE
  8
0
 10
-17.7495
 20
373.429
 11
-17.2512
 21
373.492
  0
LINE
  8
0
 10
-17.2512
 20
373.492
 11
17.2512
 21
373.492
  0
LINE
  8
0
 10
17.2512
 20
373.492
 11
17.7495
 21
373.429
  0
LINE
  8
0
 10
17.7495
 20
373.429
 11
18.2361
 21
373.304
  0
LINE
  8
0
 10
18.2361
 20
373.304
 11
18.7031
 21
373.119
  0
LINE
  8
0
 10
18.7031
 20
373.119
 11
19.1433
 21
372.877
  0
LINE
  8
0
 10
19.1433
 20
372.877
 11
19.5497
 21
372.582
  0
LINE
  8
0
 10
19.5497
 20
372.582
 11
19.9159
 21
372.238
  0
LINE
  8
0
 10
19.9159
 20
372.238
 11
20.2361
 21
371.851
  0
LINE
  8
0
 10
20.2361
 20
371.851
 11
20.5052
 21
371.427
  0
LINE
  8
0
 10
20.5052
 20
371.427
 11
20.7191
 21
370.972
  0
LINE
  8
0
 10
20.7191
 20
370.972
 11
20.8743
 21
370.495
  0
LINE
  8
0
 10
20.8743
 20
370.495
 11
20.9684
 21
370.001
  0
LINE
  8
0
 10
20.9684
 20
370.001
 11
21
 21
369.5
  0
LINE
  8
0
 10
21
 20
369.5
 11
21
 21
320.5
  0
LINE
  8
0
 10
21
 20
320.5
 11
20.9684
 21
319.999
  0
LINE
  8
0
 10
20.9684
 20
319.999
 11
20.8743
 21
319.505
  0
LINE
  8
0
 10
20.8743
 20
319.505
 11
20.7191
 21
319.028
  0
LINE
  8
0
 10
20.7191
 20
319.028
 11
20.5052
 21
318.573
  0
LINE
  8
0
 10
20.5052
 20
318.573
 11
20.2361
 21
318.149
  0
LINE
  8
0
 10
20.2361
 20
318.149
 11
19.9159
 21
317.762
  0
LINE
  8
0
 10
19.9159
 20
317.762
 11
19.5497
 21
317.418
  0
LINE
  8
0
 10
19.5497
 20
317.418
 11
19.1433
 21
317.123
  0
LINE
  8
0
 10
19.1433
 20
317.123
 11
18.7031
 21
316.881
  0
LINE
  8
0
 10
18.7031
 20
316.881
 11
18.2361
 21
316.696
  0
LINE
  8
0
 10
18.2361
 20
316.696
 11
17.7495
 21
316.571
  0
LINE
  8
0
 10
17.7495
 20
316.571
 11
17.2512
 21
316.508
  0
LINE
  8
0
 10
17.2512
 20
316.508
 11
-17.2512
 21
316.508
  0
LINE
  8
0
 10
18.4369
 20
246.089
 11
19.0451
 21
246.245
  0
LINE
  8
0
 10
19.0451
 20
246.245
 11
19.6289
 21
246.476
  0
LINE
  8
0
 10
19.6289
 20
246.476
 11
20.1791
 21
246.778
  0
LINE
  8
0
 10
20.1791
 20
246.778
 11
20.6871
 21
247.147
  0
LINE
  8
0
 10
20.6871
 20
247.147
 11
21.1448
 21
247.577
  0
LINE
  8
0
 10
21.1448
 20
247.577
 11
21.5451
 21
248.061
  0
LINE
  8
0
 10
21.5451
 20
248.061
 11
21.8815
 21
248.591
  0
LINE
  8
0
 10
21.8815
 20
248.591
 11
22.1489
 21
249.159
  0
LINE
  8
0
 10
22.1489
 20
249.159
 11
22.3429
 21
249.757
  0
LINE
  8
0
 10
22.3429
 20
249.757
 11
22.4606
 21
250.373
  0
LINE
  8
0
 10
22.4606
 20
250.373
 11
22.5
 21
251
  0
LINE
  8
0
 10
22.5
 20
251
 11
22.5
 21
301
  0
LINE
  8
0
 10
22.5
 20
301
 11
22.4606
 21
301.627
  0
LINE
  8
0
 10
22.4606
 20
301.627
 11
22.3429
 21
302.243
  0
LINE
  8
0
 10
22.3429
 20
302.243
 11
22.1489
 21
302.841
  0
LINE
  8
0
 10
22.1489
 20
302.841
 11
21.8815
 21
303.409
  0
LINE
  8
0
 10
21.8815
 20
303.409
 11
21.5451
 21
303.939
  0
LINE
  8
0
 10
21.5451
 20
303.939
 11
21.1448
 21
304.423
  0
LINE
  8
0
 10
21.1448
 20
304.423
 11
20.6871
 21
304.853
  0
LINE
  8
0
 10
20.6871
 20
304.853
 11
20.1791
 21
305.222
  0
LINE
  8
0
 10
20.1791
 20
305.222
 11
19.6289
 21
305.524
  0
LINE
  8
0
 10
19.6289
 20
305.524
 11
19.0451
 21
305.755
  0
LINE
  8
0
 10
19.0451
 20
305.755
 11
18.4369
 21
305.911
  0
LINE
  8
0
 10
18.4369
 20
305.911
 11
17.8139
 21
305.99
  0
LINE
  8
0
 10
17.8139
 20
305.99
 11
-17.8139
 21
305.99
  0
LINE
  8
0
 10
-17.8139
 20
305.99
 11
-18.4369
 21
305.911
  0
LINE
  8
0
 10
-18.4369
 20
305.911
 11
-19.0451
 21
305.755
  0
LINE
  8
0
 10
-19.0451
 20
305.755
 11
-19.6289
 21
305.524
  0
LINE
  8
0
 10
-19.6289
 20
305.524
 11
-20.1791
 21
305.222
  0
LINE
  8
0
 10
-20.1791
 20
305.222
 11
-20.6871
 21
304.853
  0
LINE
  8
0
 10
-20.6871
 20
304.853
 11
-21.1448
 21
304.423
  0
LINE
  8
0
 10
-21.1448
 20
304.423
 11
-21.5451
 21
303.939
  0
LINE
  8
0
 10
-21.5451
 20
303.939
 11
-21.8815
 21
303.409
  0
LINE
  8
0
 10
-21.8815
 20
303.409
 11
-22.1489
 21
302.841
  0
LINE
  8
0
 10
-22.1489
 20
302.841
 11
-22.3429
 21
302.243
  0
LINE
  8
0
 10
-22.3429
 20
302.243
 11
-22.4606
 21
301.627
  0
LINE
  8
0
 10
-22.4606
 20
301.627
 11
-22.5
 21
301
  0
LINE
  8
0
 10
-22.5
 20
301
 11
-22.5
 21
251
  0
LINE
  8
0
 10
-22.5
 20
251
 11
-22.4606
 21
250.373
  0
LINE
  8
0
 10
-22.4606
 20
250.373
 11
-22.3429
 21
249.757
  0
LINE
  8
0
 10
-22.3429
 20
249.757
 11
-22.1489
 21
249.159
  0
LINE
  8
0
 10
-22.1489
 20
249.159
 11
-21.8815
 21
248.591
  0
LINE
  8
0
 10
-21.8815
 20
248.591
 11
-21.5451
 21
248.061
  0
LINE
  8
0
 10
-21.5451
 20
248.061
 11
-21.1448
 21
247.577
  0
LINE
  8
0
 10
-21.1448
 20
247.577
 11
-20.6871
 21
247.147
  0
LINE
  8
0
 10
-20.6871
 20
247.147
 11
-20.1791
 21
246.778
  0
LINE
  8
0
 10
-20.1791
 20
246.778
 11
-19.6289
 21
246.476
  0
LINE
  8
0
 10
-19.6289
 20
246.476
 11
-19.0451
 21
246.245
  0
LINE
  8
0
 10
-19.0451
 20
246.245
 11
-18.4369
 21
246.089
  0
LINE
  8
0
 10
-18.4369
 20
246.089
 11
-17.8139
 21
246.01
  0
LINE
  8
0
 10
-17.8139
 20
246.01
 11
17.8139
 21
246.01
  0
LINE
  8
0
 10
17.8139
 20
246.01
 11
18.4369
 21
246.089
  0
LINE
  8
0
 10
-17.1954
 20
248.393
 11
-17.5833
 21
248.442
  0
LINE
  8
0
 10
-17.5833
 20
248.442
 11
-17.9619
 21
248.539
  0
LINE
  8
0
 10
-17.9619
 20
248.539
 11
-18.3254
 21
248.683
  0
LINE
  8
0
 10
-18.3254
 20
248.683
 11
-18.668
 21
248.872
  0
LINE
  8
0
 10
-18.668
 20
248.872
 11
-18.9842
 21
249.101
  0
LINE
  8
0
 10
-18.9842
 20
249.101
 11
-19.2692
 21
249.369
  0
LINE
  8
0
 10
-19.2692
 20
249.369
 11
-19.5184
 21
249.67
  0
LINE
  8
0
 10
-19.5184
 20
249.67
 11
-19.7279
 21
250
  0
LINE
  8
0
 10
-19.7279
 20
250
 11
-19.8943
 21
250.354
  0
LINE
  8
0
 10
-19.8943
 20
250.354
 11
-20.0151
 21
250.726
  0
LINE
  8
0
 10
-20.0151
 20
250.726
 11
-20.0884
 21
251.11
  0
LINE
  8
0
 10
-20.0884
 20
251.11
 11
-20.1129
 21
251.5
  0
LINE
  8
0
 10
-20.1129
 20
251.5
 11
-20.1129
 21
300.5
  0
LINE
  8
0
 10
-20.1129
 20
300.5
 11
-20.0884
 21
300.89
  0
LINE
  8
0
 10
-20.0884
 20
300.89
 11
-20.0151
 21
301.274
  0
LINE
  8
0
 10
-20.0151
 20
301.274
 11
-19.8943
 21
301.646
  0
LINE
  8
0
 10
-19.8943
 20
301.646
 11
-19.7279
 21
302
  0
LINE
  8
0
 10
-19.7279
 20
302
 11
-19.5184
 21
302.33
  0
LINE
  8
0
 10
-19.5184
 20
302.33
 11
-19.2692
 21
302.631
  0
LINE
  8
0
 10
-19.2692
 20
302.631
 11
-18.9842
 21
302.899
  0
LINE
  8
0
 10
-18.9842
 20
302.899
 11
-18.668
 21
303.128
  0
LINE
  8
0
 10
-18.668
 20
303.128
 11
-18.3254
 21
303.317
  0
LINE
  8
0
 10
-18.3254
 20
303.317
 11
-17.9619
 21
303.461
  0
LINE
  8
0
 10
-17.9619
 20
303.461
 11
-17.5833
 21
303.558
  0
LINE
  8
0
 10
-17.5833
 20
303.558
 11
-17.1954
 21
303.607
  0
LINE
  8
0
 10
-17.1954
 20
303.607
 11
17.1954
 21
303.607
  0
LINE
  8
0
 10
17.1954
 20
303.607
 11
17.5833
 21
303.558
  0
LINE
  8
0
 10
17.5833
 20
303.558
 11
17.9619
 21
303.461
  0
LINE
  8
0
 10
17.9619
 20
303.461
 11
18.3254
 21
303.317
  0
LINE
  8
0
 10
18.3254
 20
303.317
 11
18.668
 21
303.128
  0
LINE
  8
0
 10
18.668
 20
303.128
 11
18.9842
 21
302.899
  0
LINE
  8
0
 10
18.9842
 20
302.899
 11
19.2692
 21
302.631
  0
LINE
  8
0
 10
19.2692
 20
302.631
 11
19.5184
 21
302.33
  0
LINE
  8
0
 10
19.5184
 20
302.33
 11
19.7279
 21
302
  0
LINE
  8
0
 10
19.7279
 20
302
 11
19.8943
 21
301.646
  0
LINE
  8
0
 10
19.8943
 20
301.646
 11
20.0151
 21
301.274
  0
LINE
  8
0
 10
20.0151
 20
301.274
 11
20.0884
 21
300.89
  0
LINE
  8
0
 10
20.0884
 20
300.89
 11
20.1129
 21
300.5
  0
LINE
  8
0
 10
20.1129
 20
300.5
 11
20.1129
 21
251.5
  0
LINE
  8
0
 10
20.1129
 20
251.5
 11
20.0884
 21
251.11
  0
LINE
  8
0
 10
20.0884
 20
251.11
 11
20.0151
 21
250.726
  0
LINE
  8
0
 10
20.0151
 20
250.726
 11
19.8943
 21
250.354
  0
LINE
  8
0
 10
19.8943
 20
250.354
 11
19.7279
 21
250
  0
LINE
  8
0
 10
19.7279
 20
250
 11
19.5184
 21
249.67
  0
LINE
  8
0
 10
19.5184
 20
249.67
 11
19.2692
 21
249.369
  0
LINE
  8
0
 10
19.2692
 20
249.369
 11
18.9842
 21
249.101
  0
LINE
  8
0
 10
18.9842
 20
249.101
 11
18.668
 21
248.872
  0
LINE
  8
0
 10
18.668
 20
248.872
 11
18.3254
 21
248.683
  0
LINE
  8
0
 10
18.3254
 20
248.683
 11
17.9619
 21
248.539
  0
LINE
  8
0
 10
17.9619
 20
248.539
 11
17.5833
 21
248.442
  0
LINE
  8
0
 10
17.5833
 20
248.442
 11
17.1954
 21
248.393
  0
LINE
  8
0
 10
17.1954
 20
248.393
 11
-17.1954
 21
248.393
  0
LINE
  8
0
 10
18.4369
 20
177.089
 11
19.0451
 21
177.245
  0
LINE
  8
0
 10
19.0451
 20
177.245
 11
19.6289
 21
177.476
  0
LINE
  8
0
 10
19.6289
 20
177.476
 11
20.1791
 21
177.778
  0
LINE
  8
0
 10
20.1791
 20
177.778
 11
20.6871
 21
178.147
  0
LINE
  8
0
 10
20.6871
 20
178.147
 11
21.1448
 21
178.577
  0
LINE
  8
0
 10
21.1448
 20
178.577
 11
21.5451
 21
179.061
  0
LINE
  8
0
 10
21.5451
 20
179.061
 11
21.8815
 21
179.591
  0
LINE
  8
0
 10
21.8815
 20
179.591
 11
22.1489
 21
180.159
  0
LINE
  8
0
 10
22.1489
 20
180.159
 11
22.3429
 21
180.757
  0
LINE
  8
0
 10
22.3429
 20
180.757
 11
22.4606
 21
181.373
  0
LINE
  8
0
 10
22.4606
 20
181.373
 11
22.5
 21
182
  0
LINE
  8
0
 10
22.5
 20
182
 11
22.5
 21
232
  0
LINE
  8
0
 10
22.5
 20
232
 11
22.4606
 21
232.627
  0
LINE
  8
0
 10
22.4606
 20
232.627
 11
22.3429
 21
233.243
  0
LINE
  8
0
 10
22.3429
 20
233.243
 11
22.1489
 21
233.841
  0
LINE
  8
0
 10
22.1489
 20
233.841
 11
21.8815
 21
234.409
  0
LINE
  8
0
 10
21.8815
 20
234.409
 11
21.5451
 21
234.939
  0
LINE
  8
0
 10
21.5451
 20
234.939
 11
21.1448
 21
235.423
  0
LINE
  8
0
 10
21.1448
 20
235.423
 11
20.6871
 21
235.853
  0
LINE
  8
0
 10
20.6871
 20
235.853
 11
20.1791
 21
236.222
  0
LINE
  8
0
 10
20.1791
 20
236.222
 11
19.6289
 21
236.524
  0
LINE
  8
0
 10
19.6289
 20
236.524
 11
19.0451
 21
236.755
  0
LINE
  8
0
 10
19.0451
 20
236.755
 11
18.4369
 21
236.911
  0
LINE
  8
0
 10
18.4369
 20
236.911
 11
17.8139
 21
236.99
  0
LINE
  8
0
 10
17.8139
 20
236.99
 11
-17.8139
 21
236.99
  0
LINE
  8
0
 10
-17.8139
 20
236.99
 11
-18.4369
 21
236.911
  0
LINE
  8
0
 10
-18.4369
 20
236.911
 11
-19.0451
 21
236.755
  0
LINE
  8
0
 10
-19.0451
 20
236.755
 11
-19.6289
 21
236.524
  0
LINE
  8
0
 10
-19.6289
 20
236.524
 11
-20.1791
 21
236.222
  0
LINE
  8
0
 10
-20.1791
 20
236.222
 11
-20.6871
 21
235.853
  0
LINE
  8
0
 10
-20.6871
 20
235.853
 11
-21.1448
 21
235.423
  0
LINE
  8
0
 10
-21.1448
 20
235.423
 11
-21.5451
 21
234.939
  0
LINE
  8
0
 10
-21.5451
 20
234.939
 11
-21.8815
 21
234.409
  0
LINE
  8
0
 10
-21.8815
 20
234.409
 11
-22.1489
 21
233.841
  0
LINE
  8
0
 10
-22.1489
 20
233.841
 11
-22.3429
 21
233.243
  0
LINE
  8
0
 10
-22.3429
 20
233.243
 11
-22.4606
 21
232.627
  0
LINE
  8
0
 10
-22.4606
 20
232.627
 11
-22.5
 21
232
  0
LINE
  8
0
 10
-22.5
 20
232
 11
-22.5
 21
182
  0
LINE
  8
0
 10
-22.5
 20
182
 11
-22.4606
 21
181.373
  0
LINE
  8
0
 10
-22.4606
 20
181.373
 11
-22.3429
 21
180.757
  0
LINE
  8
0
 10
-22.3429
 20
180.757
 11
-22.1489
 21
180.159
  0
LINE
  8
0
 10
-22.1489
 20
180.159
 11
-21.8815
 21
179.591
  0
LINE
  8
0
 10
-21.8815
 20
179.591
 11
-21.5451
 21
179.061
  0
LINE
  8
0
 10
-21.5451
 20
179.061
 11
-21.1448
 21
178.577
  0
LINE
  8
0
 10
-21.1448
 20
178.577
 11
-20.6871
 21
178.147
  0
LINE
  8
0
 10
-20.6871
 20
178.147
 11
-20.1791
 21
177.778
  0
LINE
  8
0
 10
-20.1791
 20
177.778
 11
-19.6289
 21
177.476
  0
LINE
  8
0
 10
-19.6289
 20
177.476
 11
-19.0451
 21
177.245
  0
LINE
  8
0
 10
-19.0451
 20
177.245
 11
-18.4369
 21
177.089
  0
LINE
  8
0
 10
-18.4369
 20
177.089
 11
-17.8139
 21
177.01
  0
LINE
  8
0
 10
-17.8139
 20
177.01
 11
17.8139
 21
177.01
  0
LINE
  8
0
 10
17.8139
 20
177.01
 11
18.4369
 21
177.089
  0
LINE
  8
0
 10
14.8659
 20
227.369
 11
14.5999
 21
227.403
  0
LINE
  8
0
 10
14.5999
 20
227.403
 11
14.3401
 21
227.469
  0
LINE
  8
0
 10
14.3401
 20
227.469
 11
14.0908
 21
227.568
  0
LINE
  8
0
 10
14.0908
 20
227.568
 11
13.8559
 21
227.697
  0
LINE
  8
0
 10
13.8559
 20
227.697
 11
13.6389
 21
227.855
  0
LINE
  8
0
 10
13.6389
 20
227.855
 11
13.4434
 21
228.038
  0
LINE
  8
0
 10
13.4434
 20
228.038
 11
13.2725
 21
228.245
  0
LINE
  8
0
 10
13.2725
 20
228.245
 11
13.1288
 21
228.471
  0
LINE
  8
0
 10
13.1288
 20
228.471
 11
13.0146
 21
228.714
  0
LINE
  8
0
 10
13.0146
 20
228.714
 11
12.9318
 21
228.969
  0
LINE
  8
0
 10
12.9318
 20
228.969
 11
12.8815
 21
229.232
  0
LINE
  8
0
 10
12.8815
 20
229.232
 11
12.8647
 21
229.5
  0
LINE
  8
0
 10
12.8647
 20
229.5
 11
12.8815
 21
229.768
  0
LINE
  8
0
 10
12.8815
 20
229.768
 11
12.9318
 21
230.031
  0
LINE
  8
0
 10
12.9318
 20
230.031
 11
13.0146
 21
230.286
  0
LINE
  8
0
 10
13.0146
 20
230.286
 11
13.1288
 21
230.529
  0
LINE
  8
0
 10
13.1288
 20
230.529
 11
13.2725
 21
230.755
  0
LINE
  8
0
 10
13.2725
 20
230.755
 11
13.4434
 21
230.962
  0
LINE
  8
0
 10
13.4434
 20
230.962
 11
13.6389
 21
231.145
  0
LINE
  8
0
 10
13.6389
 20
231.145
 11
13.8559
 21
231.303
  0
LINE
  8
0
 10
13.8559
 20
231.303
 11
14.0908
 21
231.432
  0
LINE
  8
0
 10
14.0908
 20
231.432
 11
14.3401
 21
231.531
  0
LINE
  8
0
 10
14.3401
 20
231.531
 11
14.5999
 21
231.597
  0
LINE
  8
0
 10
14.5999
 20
231.597
 11
14.8659
 21
231.631
  0
LINE
  8
0
 10
14.8659
 20
231.631
 11
15.1341
 21
231.631
  0
LINE
  8
0
 10
15.1341
 20
231.631
 11
15.4001
 21
231.597
  0
LINE
  8
0
 10
15.4001
 20
231.597
 11
15.6598
 21
231.531
  0
LINE
  8
0
 10
15.6598
 20
231.531
 11
15.9091
 21
231.432
  0
LINE
  8
0
 10
15.9091
 20
231.432
 11
16.1441
 21
231.303
  0
LINE
  8
0
 10
16.1441
 20
231.303
 11
16.3611
 21
231.145
  0
LINE
  8
0
 10
16.3611
 20
231.145
 11
16.5565
 21
230.962
  0
LINE
  8
0
 10
16.5565
 20
230.962
 11
16.7275
 21
230.755
  0
LINE
  8
0
 10
16.7275
 20
230.755
 11
16.8712
 21
230.529
  0
LINE
  8
0
 10
16.8712
 20
230.529
 11
16.9853
 21
230.286
  0
LINE
  8
0
 10
16.9853
 20
230.286
 11
17.0682
 21
230.031
  0
LINE
  8
0
 10
17.0682
 20
230.031
 11
17.1185
 21
229.768
  0
LINE
  8
0
 10
17.1185
 20
229.768
 11
17.1353
 21
229.5
  0
LINE
  8
0
 10
17.1353
 20
229.5
 11
17.1185
 21
229.232
  0
LINE
  8
0
 10
17.1185
 20
229.232
 11
17.0682
 21
228.969
  0
LINE
  8
0
 10
17.0682
 20
228.969
 11
16.9853
 21
228.714
  0
LINE
  8
0
 10
16.9853
 20
228.714
 11
16.8712
 21
228.471
  0
LINE
  8
0
 10
16.8712
 20
228.471
 11
16.7275
 21
228.245
  0
LINE
  8
0
 10
16.7275
 20
228.245
 11
16.5565
 21
228.038
  0
LINE
  8
0
 10
16.5565
 20
228.038
 11
16.3611
 21
227.855
  0
LINE
  8
0
 10
16.3611
 20
227.855
 11
16.1441
 21
227.697
  0
LINE
  8
0
 10
16.1441
 20
227.697
 11
15.9091
 21
227.568
  0
LINE
  8
0
 10
15.9091
 20
227.568
 11
15.6598
 21
227.469
  0
LINE
  8
0
 10
15.6598
 20
227.469
 11
15.4001
 21
227.403
  0
LINE
  8
0
 10
15.4001
 20
227.403
 11
15.1341
 21
227.369
  0
LINE
  8
0
 10
15.1341
 20
227.369
 11
14.8659
 21
227.369
  0
LINE
  8
0
 10
-15.1341
 20
227.369
 11
-15.4001
 21
227.403
  0
LINE
  8
0
 10
-15.4001
 20
227.403
 11
-15.6598
 21
227.469
  0
LINE
  8
0
 10
-15.6598
 20
227.469
 11
-15.9091
 21
227.568
  0
LINE
  8
0
 10
-15.9091
 20
227.568
 11
-16.1441
 21
227.697
  0
LINE
  8
0
 10
-16.1441
 20
227.697
 11
-16.3611
 21
227.855
  0
LINE
  8
0
 10
-16.3611
 20
227.855
 11
-16.5565
 21
228.038
  0
LINE
  8
0
 10
-16.5565
 20
228.038
 11
-16.7275
 21
228.245
  0
LINE
  8
0
 10
-16.7275
 20
228.245
 11
-16.8712
 21
228.471
  0
LINE
  8
0
 10
-16.8712
 20
228.471
 11
-16.9853
 21
228.714
  0
LINE
  8
0
 10
-16.9853
 20
228.714
 11
-17.0682
 21
228.969
  0
LINE
  8
0
 10
-17.0682
 20
228.969
 11
-17.1185
 21
229.232
  0
LINE
  8
0
 10
-17.1185
 20
229.232
 11
-17.1353
 21
229.5
  0
LINE
  8
0
 10
-17.1353
 20
229.5
 11
-17.1185
 21
229.768
  0
LINE
  8
0
 10
-17.1185
 20
229.768
 11
-17.0682
 21
230.031
  0
LINE
  8
0
 10
-17.0682
 20
230.031
 11
-16.9853
 21
230.286
  0
LINE
  8
0
 10
-16.9853
 20
230.286
 11
-16.8712
 21
230.529
  0
LINE
  8
0
 10
-16.8712
 20
230.529
 11
-16.7275
 21
230.755
  0
LINE
  8
0
 10
-16.7275
 20
230.755
 11
-16.5565
 21
230.962
  0
LINE
  8
0
 10
-16.5565
 20
230.962
 11
-16.3611
 21
231.145
  0
LINE
  8
0
 10
-16.3611
 20
231.145
 11
-16.1441
 21
231.303
  0
LINE
  8
0
 10
-16.1441
 20
231.303
 11
-15.9091
 21
231.432
  0
LINE
  8
0
 10
-15.9091
 20
231.432
 11
-15.6598
 21
231.531
  0
LINE
  8
0
 10
-15.6598
 20
231.531
 11
-15.4001
 21
231.597
  0
LINE
  8
0
 10
-15.4001
 20
231.597
 11
-15.1341
 21
231.631
  0
LINE
  8
0
 10
-15.1341
 20
231.631
 11
-14.8659
 21
231.631
  0
LINE
  8
0
 10
-14.8659
 20
231.631
 11
-14.5999
 21
231.597
  0
LINE
  8
0
 10
-14.5999
 20
231.597
 11
-14.3401
 21
231.531
  0
LINE
  8
0
 10
-14.3401
 20
231.531
 11
-14.0908
 21
231.432
  0
LINE
  8
0
 10
-14.0908
 20
231.432
 11
-13.8559
 21
231.303
  0
LINE
  8
0
 10
-13.8559
 20
231.303
 11
-13.6389
 21
231.145
  0
LINE
  8
0
 10
-13.6389
 20
231.145
 11
-13.4434
 21
230.962
  0
LINE
  8
0
 10
-13.4434
 20
230.962
 11
-13.2725
 21
230.755
  0
LINE
  8
0
 10
-13.2725
 20
230.755
 11
-13.1288
 21
230.529
  0
LINE
  8
0
 10
-13.1288
 20
230.529
 11
-13.0146
 21
230.286
  0
LINE
  8
0
 10
-13.0146
 20
230.286
 11
-12.9318
 21
230.031
  0
LINE
  8
0
 10
-12.9318
 20
230.031
 11
-12.8815
 21
229.768
  0
LINE
  8
0
 10
-12.8815
 20
229.768
 11
-12.8647
 21
229.5
  0
LINE
  8
0
 10
-12.8647
 20
229.5
 11
-12.8815
 21
229.232
  0
LINE
  8
0
 10
-12.8815
 20
229.232
 11
-12.9318
 21
228.969
  0
LINE
  8
0
 10
-12.9318
 20
228.969
 11
-13.0146
 21
228.714
  0
LINE
  8
0
 10
-13.0146
 20
228.714
 11
-13.1288
 21
228.471
  0
LINE
  8
0
 10
-13.1288
 20
228.471
 11
-13.2725
 21
228.245
  0
LINE
  8
0
 10
-13.2725
 20
228.245
 11
-13.4434
 21
228.038
  0
LINE
  8
0
 10
-13.4434
 20
228.038
 11
-13.6389
 21
227.855
  0
LINE
  8
0
 10
-13.6389
 20
227.855
 11
-13.8559
 21
227.697
  0
LINE
  8
0
 10
-13.8559
 20
227.697
 11
-14.0908
 21
227.568
  0
LINE
  8
0
 10
-14.0908
 20
227.568
 11
-14.3401
 21
227.469
  0
LINE
  8
0
 10
-14.3401
 20
227.469
 11
-14.5999
 21
227.403
  0
LINE
  8
0
 10
-14.5999
 20
227.403
 11
-14.8659
 21
227.369
  0
LINE
  8
0
 10
-14.8659
 20
227.369
 11
-15.1341
 21
227.369
  0
LINE
  8
0
 10
14.8659
 20
182.369
 11
14.5999
 21
182.403
  0
LINE
  8
0
 10
14.5999
 20
182.403
 11
14.3401
 21
182.469
  0
LINE
  8
0
 10
14.3401
 20
182.469
 11
14.0908
 21
182.568
  0
LINE
  8
0
 10
14.0908
 20
182.568
 11
13.8559
 21
182.697
  0
LINE
  8
0
 10
13.8559
 20
182.697
 11
13.6389
 21
182.855
  0
LINE
  8
0
 10
13.6389
 20
182.855
 11
13.4434
 21
183.038
  0
LINE
  8
0
 10
13.4434
 20
183.038
 11
13.2725
 21
183.245
  0
LINE
  8
0
 10
13.2725
 20
183.245
 11
13.1288
 21
183.471
  0
LINE
  8
0
 10
13.1288
 20
183.471
 11
13.0146
 21
183.714
  0
LINE
  8
0
 10
13.0146
 20
183.714
 11
12.9318
 21
183.969
  0
LINE
  8
0
 10
12.9318
 20
183.969
 11
12.8815
 21
184.232
  0
LINE
  8
0
 10
12.8815
 20
184.232
 11
12.8647
 21
184.5
  0
LINE
  8
0
 10
12.8647
 20
184.5
 11
12.8815
 21
184.768
  0
LINE
  8
0
 10
12.8815
 20
184.768
 11
12.9318
 21
185.031
  0
LINE
  8
0
 10
12.9318
 20
185.031
 11
13.0146
 21
185.286
  0
LINE
  8
0
 10
13.0146
 20
185.286
 11
13.1288
 21
185.529
  0
LINE
  8
0
 10
13.1288
 20
185.529
 11
13.2725
 21
185.755
  0
LINE
  8
0
 10
13.2725
 20
185.755
 11
13.4434
 21
185.962
  0
LINE
  8
0
 10
13.4434
 20
185.962
 11
13.6389
 21
186.145
  0
LINE
  8
0
 10
13.6389
 20
186.145
 11
13.8559
 21
186.303
  0
LINE
  8
0
 10
13.8559
 20
186.303
 11
14.0908
 21
186.432
  0
LINE
  8
0
 10
14.0908
 20
186.432
 11
14.3401
 21
186.531
  0
LINE
  8
0
 10
14.3401
 20
186.531
 11
14.5999
 21
186.597
  0
LINE
  8
0
 10
14.5999
 20
186.597
 11
14.8659
 21
186.631
  0
LINE
  8
0
 10
14.8659
 20
186.631
 11
15.1341
 21
186.631
  0
LINE
  8
0
 10
15.1341
 20
186.631
 11
15.4001
 21
186.597
  0
LINE
  8
0
 10
15.4001
 20
186.597
 11
15.6598
 21
186.531
  0
LINE
  8
0
 10
15.6598
 20
186.531
 11
15.9091
 21
186.432
  0
LINE
  8
0
 10
15.9091
 20
186.432
 11
16.1441
 21
186.303
  0
LINE
  8
0
 10
16.1441
 20
186.303
 11
16.3611
 21
186.145
  0
LINE
  8
0
 10
16.3611
 20
186.145
 11
16.5565
 21
185.962
  0
LINE
  8
0
 10
16.5565
 20
185.962
 11
16.7275
 21
185.755
  0
LINE
  8
0
 10
16.7275
 20
185.755
 11
16.8712
 21
185.529
  0
LINE
  8
0
 10
16.8712
 20
185.529
 11
16.9853
 21
185.286
  0
LINE
  8
0
 10
16.9853
 20
185.286
 11
17.0682
 21
185.031
  0
LINE
  8
0
 10
17.0682
 20
185.031
 11
17.1185
 21
184.768
  0
LINE
  8
0
 10
17.1185
 20
184.768
 11
17.1353
 21
184.5
  0
LINE
  8
0
 10
17.1353
 20
184.5
 11
17.1185
 21
184.232
  0
LINE
  8
0
 10
17.1185
 20
184.232
 11
17.0682
 21
183.969
  0
LINE
  8
0
 10
17.0682
 20
183.969
 11
16.9853
 21
183.714
  0
LINE
  8
0
 10
16.9853
 20
183.714
 11
16.8712
 21
183.471
  0
LINE
  8
0
 10
16.8712
 20
183.471
 11
16.7275
 21
183.245
  0
LINE
  8
0
 10
16.7275
 20
183.245
 11
16.5565
 21
183.038
  0
LINE
  8
0
 10
16.5565
 20
183.038
 11
16.3611
 21
182.855
  0
LINE
  8
0
 10
16.3611
 20
182.855
 11
16.1441
 21
182.697
  0
LINE
  8
0
 10
16.1441
 20
182.697
 11
15.9091
 21
182.568
  0
LINE
  8
0
 10
15.9091
 20
182.568
 11
15.6598
 21
182.469
  0
LINE
  8
0
 10
15.6598
 20
182.469
 11
15.4001
 21
182.403
  0
LINE
  8
0
 10
15.4001
 20
182.403
 11
15.1341
 21
182.369
  0
LINE
  8
0
 10
15.1341
 20
182.369
 11
14.8659
 21
182.369
  0
LINE
  8
0
 10
-15.1341
 20
182.369
 11
-15.4001
 21
182.403
  0
LINE
  8
0
 10
-15.4001
 20
182.403
 11
-15.6598
 21
182.469
  0
LINE
  8
0
 10
-15.6598
 20
182.469
 11
-15.9091
 21
182.568
  0
LINE
  8
0
 10
-15.9091
 20
182.568
 11
-16.1441
 21
182.697
  0
LINE
  8
0
 10
-16.1441
 20
182.697
 11
-16.3611
 21
182.855
  0
LINE
  8
0
 10
-16.3611
 20
182.855
 11
-16.5565
 21
183.038
  0
LINE
  8
0
 10
-16.5565
 20
183.038
 11
-16.7275
 21
183.245
  0
LINE
  8
0
 10
-16.7275
 20
183.245
 11
-16.8712
 21
183.471
  0
LINE
  8
0
 10
-16.8712
 20
183.471
 11
-16.9853
 21
183.714
  0
LINE
  8
0
 10
-16.9853
 20
183.714
 11
-17.0682
 21
183.969
  0
LINE
  8
0
 10
-17.0682
 20
183.969
 11
-17.1185
 21
184.232
  0
LINE
  8
0
 10
-17.1185
 20
184.232
 11
-17.1353
 21
184.5
  0
LINE
  8
0
 10
-17.1353
 20
184.5
 11
-17.1185
 21
184.768
  0
LINE
  8
0
 10
-17.1185
 20
184.768
 11
-17.0682
 21
185.031
  0
LINE
  8
0
 10
-17.0682
 20
185.031
 11
-16.9853
 21
185.286
  0
LINE
  8
0
 10
-16.9853
 20
185.286
 11
-16.8712
 21
185.529
  0
LINE
  8
0
 10
-16.8712
 20
185.529
 11
-16.7275
 21
185.755
  0
LINE
  8
0
 10
-16.7275
 20
185.755
 11
-16.5565
 21
185.962
  0
LINE
  8
0
 10
-16.5565
 20
185.962
 11
-16.3611
 21
186.145
  0
LINE
  8
0
 10
-16.3611
 20
186.145
 11
-16.1441
 21
186.303
  0
LINE
  8
0
 10
-16.1441
 20
186.303
 11
-15.9091
 21
186.432
  0
LINE
  8
0
 10
-15.9091
 20
186.432
 11
-15.6598
 21
186.531
  0
LINE
  8
0
 10
-15.6598
 20
186.531
 11
-15.4001
 21
186.597
  0
LINE
  8
0
 10
-15.4001
 20
186.597
 11
-15.1341
 21
186.631
  0
LINE
  8
0
 10
-15.1341
 20
186.631
 11
-14.8659
 21
186.631
  0
LINE
  8
0
 10
-14.8659
 20
186.631
 11
-14.5999
 21
186.597
  0
LINE
  8
0
 10
-14.5999
 20
186.597
 11
-14.3401
 21
186.531
  0
LINE
  8
0
 10
-14.3401
 20
186.531
 11
-14.0908
 21
186.432
  0
LINE
  8
0
 10
-14.0908
 20
186.432
 11
-13.8559
 21
186.303
  0
LINE
  8
0
 10
-13.8559
 20
186.303
 11
-13.6389
 21
186.145
  0
LINE
  8
0
 10
-13.6389
 20
186.145
 11
-13.4434
 21
185.962
  0
LINE
  8
0
 10
-13.4434
 20
185.962
 11
-13.2725
 21
185.755
  0
LINE
  8
0
 10
-13.2725
 20
185.755
 11
-13.1288
 21
185.529
  0
LINE
  8
0
 10
-13.1288
 20
185.529
 11
-13.0146
 21
185.286
  0
LINE
  8
0
 10
-13.0146
 20
185.286
 11
-12.9318
 21
185.031
  0
LINE
  8
0
 10
-12.9318
 20
185.031
 11
-12.8815
 21
184.768
  0
LINE
  8
0
 10
-12.8815
 20
184.768
 11
-12.8647
 21
184.5
  0
LINE
  8
0
 10
-12.8647
 20
184.5
 11
-12.8815
 21
184.232
  0
LINE
  8
0
 10
-12.8815
 20
184.232
 11
-12.9318
 21
183.969
  0
LINE
  8
0
 10
-12.9318
 20
183.969
 11
-13.0146
 21
183.714
  0
LINE
  8
0
 10
-13.0146
 20
183.714
 11
-13.1288
 21
183.471
  0
LINE
  8
0
 10
-13.1288
 20
183.471
 11
-13.2725
 21
183.245
  0
LINE
  8
0
 10
-13.2725
 20
183.245
 11
-13.4434
 21
183.038
  0
LINE
  8
0
 10
-13.4434
 20
183.038
 11
-13.6389
 21
182.855
  0
LINE
  8
0
 10
-13.6389
 20
182.855
 11
-13.8559
 21
182.697
  0
LINE
  8
0
 10
-13.8559
 20
182.697
 11
-14.0908
 21
182.568
  0
LINE
  8
0
 10
-14.0908
 20
182.568
 11
-14.3401
 21
182.469
  0
LINE
  8
0
 10
-14.3401
 20
182.469
 11
-14.5999
 21
182.403
  0
LINE
  8
0
 10
-14.5999
 20
182.403
 11
-14.8659
 21
182.369
  0
LINE
  8
0
 10
-14.8659
 20
182.369
 11
-15.1341
 21
182.369
  0
ENDSEC
  0
SECTION
  2
OBJECTS
  0
DICTIONARY
  0
ENDSEC
  0
EOF
