<?xml version="1.0" standalone="no"?>
<!DOCTYPE svg PUBLIC "-//W3C//DTD SVG 1.1//EN" "http://www.w3.org/Graphics/SVG/1.1/DTD/svg11.dtd">
<svg width="16mm" height="112mm" viewBox="-8 -224 16 112" xmlns="http://www.w3.org/2000/svg" version="1.1">
<title>OpenSCAD Model</title>
<path d="
M 3.4369,-208.589 L 4.04507,-208.745 L 4.62889,-208.976 L 5.17912,-209.278 L 5.68712,-209.647 L 6.14484,-210.077
 L 6.54507,-210.561 L 6.88153,-211.091 L 7.14888,-211.659 L 7.34291,-212.257 L 7.46057,-212.873 L 7.5,-213.5
 L 7.5,-218.5 L 7.46057,-219.127 L 7.34291,-219.743 L 7.14888,-220.341 L 6.88153,-220.909 L 6.54507,-221.439
 L 6.14484,-221.923 L 5.68712,-222.353 L 5.17912,-222.722 L 4.62889,-223.024 L 4.04507,-223.255 L 3.4369,-223.411
 L 2.81395,-223.49 L -2.81395,-223.49 L -3.4369,-223.411 L -4.04507,-223.255 L -4.62889,-223.024 L -5.17912,-222.722
 L -5.68712,-222.353 L -6.14484,-221.923 L -6.54507,-221.439 L -6.88153,-220.909 L -7.14888,-220.341 L -7.34291,-219.743
 L -7.46057,-219.127 L -7.5,-218.5 L -7.5,-213.5 L -7.46057,-212.873 L -7.34291,-212.257 L -7.14888,-211.659
 L -6.88153,-211.091 L -6.54507,-210.561 L -6.14484,-210.077 L -5.68712,-209.647 L -5.17912,-209.278 L -4.62889,-208.976
 L -4.04507,-208.745 L -3.4369,-208.589 L -2.81395,-208.51 L 2.81395,-208.51 z
M -2.54825,-209.009 L -3.14006,-209.084 L -3.71782,-209.232 L -4.27245,-209.452 L -4.79517,-209.739 L -5.27776,-210.09
 L -5.7126,-210.498 L -6.09282,-210.958 L -6.41245,-211.462 L -6.66643,-212.001 L -6.85077,-212.569 L -6.96254,-213.155
 L -7,-213.75 L -7,-218.25 L -6.96254,-218.845 L -6.85077,-219.431 L -6.66643,-219.999 L -6.41245,-220.538
 L -6.09282,-221.042 L -5.7126,-221.502 L -5.27776,-221.91 L -4.79517,-222.261 L -4.27245,-222.548 L -3.71782,-222.768
 L -3.14006,-222.916 L -2.54825,-222.991 L 2.54825,-222.991 L 3.14006,-222.916 L 3.71782,-222.768 L 4.27245,-222.548
 L 4.79517,-222.261 L 5.27776,-221.91 L 5.7126,-221.502 L 6.09282,-221.042 L 6.41245,-220.538 L 6.66643,-219.999
 L 6.85077,-219.431 L 6.96254,-218.845 L 7,-218.25 L 7,-213.75 L 6.96254,-213.155 L 6.85077,-212.569
 L 6.66643,-212.001 L 6.41245,-211.462 L 6.09282,-210.958 L 5.7126,-210.498 L 5.27776,-210.09 L 4.79517,-209.739
 L 4.27245,-209.452 L 3.71782,-209.232 L 3.14006,-209.084 L 2.54825,-209.009 z
M 3.4369,-184.589 L 4.04507,-184.745 L 4.62889,-184.976 L 5.17912,-185.278 L 5.68712,-185.647 L 6.14484,-186.077
 L 6.54507,-186.561 L 6.88153,-187.091 L 7.14888,-187.659 L 7.34291,-188.257 L 7.46057,-188.873 L 7.5,-189.5
 L 7.5,-194.5 L 7.46057,-195.127 L 7.34291,-195.743 L 7.14888,-196.341 L 6.88153,-196.909 L 6.54507,-197.439
 L 6.14484,-197.923 L 5.68712,-198.353 L 5.17912,-198.722 L 4.62889,-199.024 L 4.04507,-199.255 L 3.4369,-199.411
 L 2.81395,-199.49 L -2.81395,-199.49 L -3.4369,-199.411 L -4.04507,-199.255 L -4.62889,-199.024 L -5.17912,-198.722
 L -5.68712,-198.353 L -6.14484,-197.923 L -6.54507,-197.439 L -6.88153,-196.909 L -7.14888,-196.341 L -7.34291,-195.743
 L -7.46057,-195.127 L -7.5,-194.5 L -7.5,-189.5 L -7.46057,-188.873 L -7.34291,-188.257 L -7.14888,-187.659
 L -6.88153,-187.091 L -6.54507,-186.561 L -6.14484,-186.077 L -5.68712,-185.647 L -5.17912,-185.278 L -4.62889,-184.976
 L -4.04507,-184.745 L -3.4369,-184.589 L -2.81395,-184.51 L 2.81395,-184.51 z
M -2.54825,-185.009 L -3.14006,-185.084 L -3.71782,-185.232 L -4.27245,-185.452 L -4.79517,-185.739 L -5.27776,-186.09
 L -5.7126,-186.498 L -6.09282,-186.958 L -6.41245,-187.462 L -6.66643,-188.001 L -6.85077,-188.569 L -6.96254,-189.155
 L -7,-189.75 L -7,-194.25 L -6.96254,-194.845 L -6.85077,-195.431 L -6.66643,-195.999 L -6.41245,-196.538
 L -6.09282,-197.042 L -5.7126,-197.502 L -5.27776,-197.91 L -4.79517,-198.261 L -4.27245,-198.548 L -3.71782,-198.768
 L -3.14006,-198.916 L -2.54825,-198.991 L 2.54825,-198.991 L 3.14006,-198.916 L 3.71782,-198.768 L 4.27245,-198.548
 L 4.79517,-198.261 L 5.27776,-197.91 L 5.7126,-197.502 L 6.09282,-197.042 L 6.41245,-196.538 L 6.66643,-195.999
 L 6.85077,-195.431 L 6.96254,-194.845 L 7,-194.25 L 7,-189.75 L 6.96254,-189.155 L 6.85077,-188.569
 L 6.66643,-188.001 L 6.41245,-187.462 L 6.09282,-186.958 L 5.7126,-186.498 L 5.27776,-186.09 L 4.79517,-185.739
 L 4.27245,-185.452 L 3.71782,-185.232 L 3.14006,-185.084 L 2.54825,-185.009 z
M 3.4369,-160.589 L 4.04507,-160.745 L 4.62889,-160.976 L 5.17912,-161.278 L 5.68712,-161.647 L 6.14484,-162.077
 L 6.54507,-162.561 L 6.88153,-163.091 L 7.14888,-163.659 L 7.34291,-164.257 L 7.46057,-164.873 L 7.5,-165.5
 L 7.5,-170.5 L 7.46057,-171.127 L 7.34291,-171.743 L 7.14888,-172.341 L 6.88153,-172.909 L 6.54507,-173.439
 L 6.14484,-173.923 L 5.68712,-174.353 L 5.17912,-174.722 L 4.62889,-175.024 L 4.04507,-175.255 L 3.4369,-175.411
 L 2.81395,-175.49 L -2.81395,-175.49 L -3.4369,-175.411 L -4.04507,-175.255 L -4.62889,-175.024 L -5.17912,-174.722
 L -5.68712,-174.353 L -6.14484,-173.923 L -6.54507,-173.439 L -6.88153,-172.909 L -7.14888,-172.341 L -7.34291,-171.743
 L -7.46057,-171.127 L -7.5,-170.5 L -7.5,-165.5 L -7.46057,-164.873 L -7.34291,-164.257 L -7.14888,-163.659
 L -6.88153,-163.091 L -6.54507,-162.561 L -6.14484,-162.077 L -5.68712,-161.647 L -5.17912,-161.278 L -4.62889,-160.976
 L -4.04507,-160.745 L -3.4369,-160.589 L -2.81395,-160.51 L 2.81395,-160.51 z
M -2.54825,-161.009 L -3.14006,-161.084 L -3.71782,-161.232 L -4.27245,-161.452 L -4.79517,-161.739 L -5.27776,-162.09
 L -5.7126,-162.498 L -6.09282,-162.958 L -6.41245,-163.462 L -6.66643,-164.001 L -6.85077,-164.569 L -6.96254,-165.155
 L -7,-165.75 L -7,-170.25 L -6.96254,-170.845 L -6.85077,-171.431 L -6.66643,-171.999 L -6.41245,-172.538
 L -6.09282,-173.042 L -5.7126,-173.502 L -5.27776,-173.91 L -4.79517,-174.261 L -4.27245,-174.548 L -3.71782,-174.768
 L -3.14006,-174.916 L -2.54825,-174.991 L 2.54825,-174.991 L 3.14006,-174.916 L 3.71782,-174.768 L 4.27245,-174.548
 L 4.79517,-174.261 L 5.27776,-173.91 L 5.7126,-173.502 L 6.09282,-173.042 L 6.41245,-172.538 L 6.66643,-171.999
 L 6.85077,-171.431 L 6.96254,-170.845 L 7,-170.25 L 7,-165.75 L 6.96254,-165.155 L 6.85077,-164.569
 L 6.66643,-164.001 L 6.41245,-163.462 L 6.09282,-162.958 L 5.7126,-162.498 L 5.27776,-162.09 L 4.79517,-161.739
 L 4.27245,-161.452 L 3.71782,-161.232 L 3.14006,-161.084 L 2.54825,-161.009 z
M 3.4369,-136.589 L 4.04507,-136.745 L 4.62889,-136.976 L 5.17912,-137.278 L 5.68712,-137.647 L 6.14484,-138.077
 L 6.54507,-138.561 L 6.88153,-139.091 L 7.14888,-139.659 L 7.34291,-140.257 L 7.46057,-140.873 L 7.5,-141.5
 L 7.5,-146.5 L 7.46057,-147.127 L 7.34291,-147.743 L 7.14888,-148.341 L 6.88153,-148.909 L 6.54507,-149.439
 L 6.14484,-149.923 L 5.68712,-150.353 L 5.17912,-150.722 L 4.62889,-151.024 L 4.04507,-151.255 L 3.4369,-151.411
 L 2.81395,-151.49 L -2.81395,-151.49 L -3.4369,-151.411 L -4.04507,-151.255 L -4.62889,-151.024 L -5.17912,-150.722
 L -5.68712,-150.353 L -6.14484,-149.923 L -6.54507,-149.439 L -6.88153,-148.909 L -7.14888,-148.341 L -7.34291,-147.743
 L -7.46057,-147.127 L -7.5,-146.5 L -7.5,-141.5 L -7.46057,-140.873 L -7.34291,-140.257 L -7.14888,-139.659
 L -6.88153,-139.091 L -6.54507,-138.561 L -6.14484,-138.077 L -5.68712,-137.647 L -5.17912,-137.278 L -4.62889,-136.976
 L -4.04507,-136.745 L -3.4369,-136.589 L -2.81395,-136.51 L 2.81395,-136.51 z
M -2.53748,-137.181 L -3.10791,-137.253 L -3.66481,-137.396 L -4.1994,-137.607 L -4.70325,-137.884 L -5.1684,-138.222
 L -5.58754,-138.616 L -5.95403,-139.059 L -6.26212,-139.544 L -6.50691,-140.065 L -6.68459,-140.611 L -6.79233,-141.176
 L -6.82843,-141.75 L -6.82843,-146.25 L -6.79233,-146.824 L -6.68459,-147.389 L -6.50691,-147.935 L -6.26212,-148.456
 L -5.95403,-148.941 L -5.58754,-149.384 L -5.1684,-149.778 L -4.70325,-150.116 L -4.1994,-150.393 L -3.66481,-150.604
 L -3.10791,-150.747 L -2.53748,-150.819 L 2.53748,-150.819 L 3.10791,-150.747 L 3.66481,-150.604 L 4.1994,-150.393
 L 4.70325,-150.116 L 5.1684,-149.778 L 5.58754,-149.384 L 5.95403,-148.941 L 6.26212,-148.456 L 6.50691,-147.935
 L 6.68459,-147.389 L 6.79233,-146.824 L 6.82843,-146.25 L 6.82843,-141.75 L 6.79233,-141.176 L 6.68459,-140.611
 L 6.50691,-140.065 L 6.26212,-139.544 L 5.95403,-139.059 L 5.58754,-138.616 L 5.1684,-138.222 L 4.70325,-137.884
 L 4.1994,-137.607 L 3.66481,-137.396 L 3.10791,-137.253 L 2.53748,-137.181 z
M 3.4369,-112.589 L 4.04507,-112.745 L 4.62889,-112.976 L 5.17912,-113.278 L 5.68712,-113.647 L 6.14484,-114.077
 L 6.54507,-114.561 L 6.88153,-115.091 L 7.14888,-115.659 L 7.34291,-116.257 L 7.46057,-116.873 L 7.5,-117.5
 L 7.5,-122.5 L 7.46057,-123.127 L 7.34291,-123.743 L 7.14888,-124.341 L 6.88153,-124.909 L 6.54507,-125.439
 L 6.14484,-125.923 L 5.68712,-126.353 L 5.17912,-126.722 L 4.62889,-127.024 L 4.04507,-127.255 L 3.4369,-127.411
 L 2.81395,-127.49 L -2.81395,-127.49 L -3.4369,-127.411 L -4.04507,-127.255 L -4.62889,-127.024 L -5.17912,-126.722
 L -5.68712,-126.353 L -6.14484,-125.923 L -6.54507,-125.439 L -6.88153,-124.909 L -7.14888,-124.341 L -7.34291,-123.743
 L -7.46057,-123.127 L -7.5,-122.5 L -7.5,-117.5 L -7.46057,-116.873 L -7.34291,-116.257 L -7.14888,-115.659
 L -6.88153,-115.091 L -6.54507,-114.561 L -6.14484,-114.077 L -5.68712,-113.647 L -5.17912,-113.278 L -4.62889,-112.976
 L -4.04507,-112.745 L -3.4369,-112.589 L -2.81395,-112.51 L 2.81395,-112.51 z
M -2.38246,-115.645 L -2.64529,-115.678 L -2.9019,-115.744 L -3.14822,-115.841 L -3.38039,-115.969 L -3.59473,-116.125
 L -3.78784,-116.306 L -3.95673,-116.51 L -4.09868,-116.734 L -4.21149,-116.973 L -4.29335,-117.225 L -4.34299,-117.486
 L -4.35962,-117.75 L -4.35962,-122.25 L -4.34299,-122.514 L -4.29335,-122.775 L -4.21149,-123.027 L -4.09868,-123.266
 L -3.95673,-123.49 L -3.78784,-123.694 L -3.59473,-123.875 L -3.38039,-124.031 L -3.14822,-124.159 L -2.9019,-124.256
 L -2.64529,-124.322 L -2.38246,-124.355 L 2.38246,-124.355 L 2.64529,-124.322 L 2.9019,-124.256 L 3.14822,-124.159
 L 3.38039,-124.031 L 3.59473,-123.875 L 3.78784,-123.694 L 3.95673,-123.49 L 4.09868,-123.266 L 4.21149,-123.027
 L 4.29335,-122.775 L 4.34299,-122.514 L 4.35962,-122.25 L 4.35962,-117.75 L 4.34299,-117.486 L 4.29335,-117.225
 L 4.21149,-116.973 L 4.09868,-116.734 L 3.95673,-116.51 L 3.78784,-116.306 L 3.59473,-116.125 L 3.38039,-115.969
 L 3.14822,-115.841 L 2.9019,-115.744 L 2.64529,-115.678 L 2.38246,-115.645 z
" stroke="black" fill="lightgray" stroke-width="0.5"/>
</svg>
