<?xml version="1.0" standalone="no"?>
<!DOCTYPE svg PUBLIC "-//W3C//DTD SVG 1.1//EN" "http://www.w3.org/Graphics/SVG/1.1/DTD/svg11.dtd">
<svg width="136mm" height="100mm" viewBox="-68 -185 136 100" xmlns="http://www.w3.org/2000/svg" version="1.1">
<title>OpenSCAD Model</title>
<path d="
M 63.4369,-139.589 L 64.0451,-139.745 L 64.6289,-139.976 L 65.1791,-140.278 L 65.6871,-140.647 L 66.1448,-141.077
 L 66.5451,-141.561 L 66.8815,-142.091 L 67.1489,-142.659 L 67.3429,-143.257 L 67.4606,-143.873 L 67.5,-144.5
 L 67.5,-179.5 L 67.4606,-180.127 L 67.3429,-180.743 L 67.1489,-181.341 L 66.8815,-181.909 L 66.5451,-182.439
 L 66.1448,-182.923 L 65.6871,-183.353 L 65.1791,-183.722 L 64.6289,-184.024 L 64.0451,-184.255 L 63.4369,-184.411
 L 62.8139,-184.49 L -62.8139,-184.49 L -63.4369,-184.411 L -64.0451,-184.255 L -64.6289,-184.024 L -65.1791,-183.722
 L -65.6871,-183.353 L -66.1448,-182.923 L -66.5451,-182.439 L -66.8815,-181.909 L -67.1489,-181.341 L -67.3429,-180.743
 L -67.4606,-180.127 L -67.5,-179.5 L -67.5,-144.5 L -67.4606,-143.873 L -67.3429,-143.257 L -67.1489,-142.659
 L -66.8815,-142.091 L -66.5451,-141.561 L -66.1448,-141.077 L -65.6871,-140.647 L -65.1791,-140.278 L -64.6289,-139.976
 L -64.0451,-139.745 L -63.4369,-139.589 L -62.8139,-139.51 L 62.8139,-139.51 z
M -62.5375,-140.181 L -63.1079,-140.253 L -63.6648,-140.396 L -64.1994,-140.607 L -64.7032,-140.884 L -65.1684,-141.222
 L -65.5875,-141.616 L -65.954,-142.059 L -66.2621,-142.544 L -66.5069,-143.065 L -66.6846,-143.611 L -66.7923,-144.176
 L -66.8284,-144.75 L -66.8284,-179.25 L -66.7923,-179.824 L -66.6846,-180.389 L -66.5069,-180.935 L -66.2621,-181.456
 L -65.954,-181.941 L -65.5875,-182.384 L -65.1684,-182.778 L -64.7032,-183.116 L -64.1994,-183.393 L -63.6648,-183.604
 L -63.1079,-183.747 L -62.5375,-183.819 L 62.5375,-183.819 L 63.1079,-183.747 L 63.6648,-183.604 L 64.1994,-183.393
 L 64.7032,-183.116 L 65.1684,-182.778 L 65.5875,-182.384 L 65.954,-181.941 L 66.2621,-181.456 L 66.5069,-180.935
 L 66.6846,-180.389 L 66.7923,-179.824 L 66.8284,-179.25 L 66.8284,-144.75 L 66.7923,-144.176 L 66.6846,-143.611
 L 66.5069,-143.065 L 66.2621,-142.544 L 65.954,-142.059 L 65.5875,-141.616 L 65.1684,-141.222 L 64.7032,-140.884
 L 64.1994,-140.607 L 63.6648,-140.396 L 63.1079,-140.253 L 62.5375,-140.181 z
M 63.4369,-85.5886 L 64.0451,-85.7447 L 64.6289,-85.9759 L 65.1791,-86.2784 L 65.6871,-86.6474 L 66.1448,-87.0773
 L 66.5451,-87.5611 L 66.8815,-88.0912 L 67.1489,-88.6594 L 67.3429,-89.2566 L 67.4606,-89.8733 L 67.5,-90.5
 L 67.5,-125.5 L 67.4606,-126.127 L 67.3429,-126.743 L 67.1489,-127.341 L 66.8815,-127.909 L 66.5451,-128.439
 L 66.1448,-128.923 L 65.6871,-129.353 L 65.1791,-129.722 L 64.6289,-130.024 L 64.0451,-130.255 L 63.4369,-130.411
 L 62.8139,-130.49 L -62.8139,-130.49 L -63.4369,-130.411 L -64.0451,-130.255 L -64.6289,-130.024 L -65.1791,-129.722
 L -65.6871,-129.353 L -66.1448,-128.923 L -66.5451,-128.439 L -66.8815,-127.909 L -67.1489,-127.341 L -67.3429,-126.743
 L -67.4606,-126.127 L -67.5,-125.5 L -67.5,-90.5 L -67.4606,-89.8733 L -67.3429,-89.2566 L -67.1489,-88.6594
 L -66.8815,-88.0912 L -66.5451,-87.5611 L -66.1448,-87.0773 L -65.6871,-86.6474 L -65.1791,-86.2784 L -64.6289,-85.9759
 L -64.0451,-85.7447 L -63.4369,-85.5886 L -62.8139,-85.5099 L 62.8139,-85.5099 z
M -62.3825,-88.6445 L -62.6453,-88.6777 L -62.9019,-88.7436 L -63.1482,-88.8412 L -63.3804,-88.9688 L -63.5947,-89.1245
 L -63.7879,-89.3059 L -63.9567,-89.51 L -64.0987,-89.7337 L -64.2115,-89.9734 L -64.2934,-90.2254 L -64.343,-90.4856
 L -64.3596,-90.75 L -64.3596,-125.25 L -64.343,-125.514 L -64.2934,-125.775 L -64.2115,-126.027 L -64.0987,-126.266
 L -63.9567,-126.49 L -63.7879,-126.694 L -63.5947,-126.875 L -63.3804,-127.031 L -63.1482,-127.159 L -62.9019,-127.256
 L -62.6453,-127.322 L -62.3825,-127.355 L 62.3825,-127.355 L 62.6453,-127.322 L 62.9019,-127.256 L 63.1482,-127.159
 L 63.3804,-127.031 L 63.5947,-126.875 L 63.7879,-126.694 L 63.9567,-126.49 L 64.0987,-126.266 L 64.2115,-126.027
 L 64.2934,-125.775 L 64.343,-125.514 L 64.3596,-125.25 L 64.3596,-90.75 L 64.343,-90.4856 L 64.2934,-90.2254
 L 64.2115,-89.9734 L 64.0987,-89.7337 L 63.9567,-89.51 L 63.7879,-89.3059 L 63.5947,-89.1245 L 63.3804,-88.9688
 L 63.1482,-88.8412 L 62.9019,-88.7436 L 62.6453,-88.6777 L 62.3825,-88.6445 z
" stroke="black" fill="lightgray" stroke-width="0.5"/>
</svg>
