<?xml version="1.0" standalone="no"?>
<!DOCTYPE svg PUBLIC "-//W3C//DTD SVG 1.1//EN" "http://www.w3.org/Graphics/SVG/1.1/DTD/svg11.dtd">
<svg width="30mm" height="369mm" viewBox="-15 -468 30 369" xmlns="http://www.w3.org/2000/svg" version="1.1">
<title>OpenSCAD Model</title>
<path d="
M 10.9369,-288.089 L 11.5451,-288.245 L 12.1289,-288.476 L 12.6791,-288.778 L 13.1871,-289.147 L 13.6448,-289.577
 L 14.0451,-290.061 L 14.3815,-290.591 L 14.6489,-291.159 L 14.8429,-291.757 L 14.9606,-292.373 L 15,-293
 L 15,-463 L 14.9606,-463.627 L 14.8429,-464.243 L 14.6489,-464.841 L 14.3815,-465.409 L 14.0451,-465.939
 L 13.6448,-466.423 L 13.1871,-466.853 L 12.6791,-467.222 L 12.1289,-467.524 L 11.5451,-467.755 L 10.9369,-467.911
 L 10.3139,-467.99 L -10.3139,-467.99 L -10.9369,-467.911 L -11.5451,-467.755 L -12.1289,-467.524 L -12.6791,-467.222
 L -13.1871,-466.853 L -13.6448,-466.423 L -14.0451,-465.939 L -14.3815,-465.409 L -14.6489,-464.841 L -14.8429,-464.243
 L -14.9606,-463.627 L -15,-463 L -15,-293 L -14.9606,-292.373 L -14.8429,-291.757 L -14.6489,-291.159
 L -14.3815,-290.591 L -14.0451,-290.061 L -13.6448,-289.577 L -13.1871,-289.147 L -12.6791,-288.778 L -12.1289,-288.476
 L -11.5451,-288.245 L -10.9369,-288.089 L -10.3139,-288.01 L 10.3139,-288.01 z
M 10.9369,-99.0886 L 11.5451,-99.2447 L 12.1289,-99.4759 L 12.6791,-99.7784 L 13.1871,-100.147 L 13.6448,-100.577
 L 14.0451,-101.061 L 14.3815,-101.591 L 14.6489,-102.159 L 14.8429,-102.757 L 14.9606,-103.373 L 15,-104
 L 15,-274 L 14.9606,-274.627 L 14.8429,-275.243 L 14.6489,-275.841 L 14.3815,-276.409 L 14.0451,-276.939
 L 13.6448,-277.423 L 13.1871,-277.853 L 12.6791,-278.222 L 12.1289,-278.524 L 11.5451,-278.755 L 10.9369,-278.911
 L 10.3139,-278.99 L -10.3139,-278.99 L -10.9369,-278.911 L -11.5451,-278.755 L -12.1289,-278.524 L -12.6791,-278.222
 L -13.1871,-277.853 L -13.6448,-277.423 L -14.0451,-276.939 L -14.3815,-276.409 L -14.6489,-275.841 L -14.8429,-275.243
 L -14.9606,-274.627 L -15,-274 L -15,-104 L -14.9606,-103.373 L -14.8429,-102.757 L -14.6489,-102.159
 L -14.3815,-101.591 L -14.0451,-101.061 L -13.6448,-100.577 L -13.1871,-100.147 L -12.6791,-99.7784 L -12.1289,-99.4759
 L -11.5451,-99.2447 L -10.9369,-99.0886 L -10.3139,-99.0099 L 10.3139,-99.0099 z
M 7.38696,-269.704 L 7.1627,-269.732 L 6.94376,-269.788 L 6.7336,-269.871 L 6.53551,-269.98 L 6.35263,-270.113
 L 6.18785,-270.268 L 6.04376,-270.442 L 5.92264,-270.633 L 5.8264,-270.837 L 5.75655,-271.052 L 5.71419,-271.274
 L 5.7,-271.5 L 5.71419,-271.726 L 5.75655,-271.948 L 5.8264,-272.163 L 5.92264,-272.367 L 6.04376,-272.558
 L 6.18785,-272.732 L 6.35263,-272.887 L 6.53551,-273.02 L 6.7336,-273.129 L 6.94376,-273.212 L 7.1627,-273.268
 L 7.38696,-273.296 L 7.61302,-273.296 L 7.83728,-273.268 L 8.05623,-273.212 L 8.26639,-273.129 L 8.46448,-273.02
 L 8.64735,-272.887 L 8.81213,-272.732 L 8.95622,-272.558 L 9.07735,-272.367 L 9.17358,-272.163 L 9.24344,-271.948
 L 9.2858,-271.726 L 9.29999,-271.5 L 9.2858,-271.274 L 9.24344,-271.052 L 9.17358,-270.837 L 9.07735,-270.633
 L 8.95622,-270.442 L 8.81213,-270.268 L 8.64735,-270.113 L 8.46448,-269.98 L 8.26639,-269.871 L 8.05623,-269.788
 L 7.83728,-269.732 L 7.61302,-269.704 z
M -7.61302,-269.704 L -7.83728,-269.732 L -8.05623,-269.788 L -8.26639,-269.871 L -8.46448,-269.98 L -8.64735,-270.113
 L -8.81213,-270.268 L -8.95622,-270.442 L -9.07735,-270.633 L -9.17358,-270.837 L -9.24344,-271.052 L -9.2858,-271.274
 L -9.29999,-271.5 L -9.2858,-271.726 L -9.24344,-271.948 L -9.17358,-272.163 L -9.07735,-272.367 L -8.95622,-272.558
 L -8.81213,-272.732 L -8.64735,-272.887 L -8.46448,-273.02 L -8.26639,-273.129 L -8.05623,-273.212 L -7.83728,-273.268
 L -7.61302,-273.296 L -7.38696,-273.296 L -7.1627,-273.268 L -6.94376,-273.212 L -6.7336,-273.129 L -6.53551,-273.02
 L -6.35263,-272.887 L -6.18785,-272.732 L -6.04376,-272.558 L -5.92264,-272.367 L -5.8264,-272.163 L -5.75655,-271.948
 L -5.71419,-271.726 L -5.7,-271.5 L -5.71419,-271.274 L -5.75655,-271.052 L -5.8264,-270.837 L -5.92264,-270.633
 L -6.04376,-270.442 L -6.18785,-270.268 L -6.35263,-270.113 L -6.53551,-269.98 L -6.7336,-269.871 L -6.94376,-269.788
 L -7.1627,-269.732 L -7.38696,-269.704 z
M -7.61302,-104.704 L -7.83728,-104.732 L -8.05623,-104.788 L -8.26639,-104.871 L -8.46448,-104.98 L -8.64735,-105.113
 L -8.81213,-105.268 L -8.95622,-105.442 L -9.07735,-105.633 L -9.17358,-105.837 L -9.24344,-106.052 L -9.2858,-106.274
 L -9.29999,-106.5 L -9.2858,-106.726 L -9.24344,-106.948 L -9.17358,-107.163 L -9.07735,-107.367 L -8.95622,-107.558
 L -8.81213,-107.732 L -8.64735,-107.887 L -8.46448,-108.02 L -8.26639,-108.129 L -8.05623,-108.212 L -7.83728,-108.268
 L -7.61302,-108.296 L -7.38696,-108.296 L -7.1627,-108.268 L -6.94376,-108.212 L -6.7336,-108.129 L -6.53551,-108.02
 L -6.35263,-107.887 L -6.18785,-107.732 L -6.04376,-107.558 L -5.92264,-107.367 L -5.8264,-107.163 L -5.75655,-106.948
 L -5.71419,-106.726 L -5.7,-106.5 L -5.71419,-106.274 L -5.75655,-106.052 L -5.8264,-105.837 L -5.92264,-105.633
 L -6.04376,-105.442 L -6.18785,-105.268 L -6.35263,-105.113 L -6.53551,-104.98 L -6.7336,-104.871 L -6.94376,-104.788
 L -7.1627,-104.732 L -7.38696,-104.704 z
M 7.38696,-104.704 L 7.1627,-104.732 L 6.94376,-104.788 L 6.7336,-104.871 L 6.53551,-104.98 L 6.35263,-105.113
 L 6.18785,-105.268 L 6.04376,-105.442 L 5.92264,-105.633 L 5.8264,-105.837 L 5.75655,-106.052 L 5.71419,-106.274
 L 5.7,-106.5 L 5.71419,-106.726 L 5.75655,-106.948 L 5.8264,-107.163 L 5.92264,-107.367 L 6.04376,-107.558
 L 6.18785,-107.732 L 6.35263,-107.887 L 6.53551,-108.02 L 6.7336,-108.129 L 6.94376,-108.212 L 7.1627,-108.268
 L 7.38696,-108.296 L 7.61302,-108.296 L 7.83728,-108.268 L 8.05623,-108.212 L 8.26639,-108.129 L 8.46448,-108.02
 L 8.64735,-107.887 L 8.81213,-107.732 L 8.95622,-107.558 L 9.07735,-107.367 L 9.17358,-107.163 L 9.24344,-106.948
 L 9.2858,-106.726 L 9.29999,-106.5 L 9.2858,-106.274 L 9.24344,-106.052 L 9.17358,-105.837 L 9.07735,-105.633
 L 8.95622,-105.442 L 8.81213,-105.268 L 8.64735,-105.113 L 8.46448,-104.98 L 8.26639,-104.871 L 8.05623,-104.788
 L 7.83728,-104.732 L 7.61302,-104.704 z
" stroke="black" fill="lightgray" stroke-width="0.5"/>
</svg>
