<?xml version="1.0" standalone="no"?>
<!DOCTYPE svg PUBLIC "-//W3C//DTD SVG 1.1//EN" "http://www.w3.org/Graphics/SVG/1.1/DTD/svg11.dtd">
<svg width="104mm" height="104mm" viewBox="-52 -280 104 104" xmlns="http://www.w3.org/2000/svg" version="1.1">
<title>OpenSCAD Model</title>
<path d="
M 39,-279.99 L 16.4645,-279.99 L 19.4547,-277 L 39,-277 z
M 47.9369,-176.089 L 48.5451,-176.245 L 49.1289,-176.476 L 49.6791,-176.778 L 50.1871,-177.147 L 50.6448,-177.577
 L 51.0451,-178.061 L 51.3815,-178.591 L 51.6489,-179.159 L 51.8429,-179.757 L 51.9606,-180.373 L 52,-181
 L 52,-275 L 51.9685,-275.5 L 18.9399,-275.5 L 18.8866,-275.447 L 18.8333,-275.5 L 16.9398,-275.5
 L 21.5018,-273.694 L 27.0592,-270.639 L 32.1899,-266.911 L 36.8129,-262.57 L 40.8553,-257.683 L 44.2535,-252.329
 L 46.9537,-246.59 L 48.9134,-240.559 L 50.1018,-234.329 L 50.5,-228 L 50.1018,-221.671 L 48.9134,-215.441
 L 46.9537,-209.41 L 44.2535,-203.671 L 40.8553,-198.317 L 36.8129,-193.43 L 32.1899,-189.089 L 27.0592,-185.361
 L 21.5018,-182.306 L 15.6053,-179.972 L 9.46275,-178.395 L 3.17091,-177.6 L -3.17091,-177.6 L -9.46275,-178.395
 L -15.6053,-179.972 L -21.5018,-182.306 L -27.0592,-185.361 L -32.1899,-189.089 L -36.8129,-193.43 L -40.8553,-198.317
 L -44.2535,-203.671 L -46.9537,-209.41 L -48.9134,-215.441 L -50.1018,-221.671 L -50.5,-228 L -50.1018,-234.329
 L -48.9134,-240.559 L -46.9537,-246.59 L -44.2535,-252.329 L -40.8553,-257.683 L -36.8129,-262.57 L -32.1899,-266.911
 L -27.0592,-270.639 L -21.5018,-273.694 L -15.6053,-276.028 L -9.46275,-277.605 L -3.17091,-278.4 L 3.17091,-278.4
 L 9.46275,-277.605 L 11.821,-277 L 17.3333,-277 L 14.3432,-279.99 L -47.3139,-279.99 L -47.9369,-279.911
 L -48.5451,-279.755 L -49.1289,-279.524 L -49.6791,-279.222 L -50.1871,-278.853 L -50.6448,-278.423 L -51.0451,-277.939
 L -51.3815,-277.409 L -51.6489,-276.841 L -51.8429,-276.243 L -51.8905,-275.994 L -44.8116,-275.994 L -44.4379,-275.947
 L -44.0729,-275.853 L -43.7227,-275.714 L -43.3925,-275.533 L -43.0877,-275.312 L -42.8131,-275.054 L -42.5729,-274.763
 L -42.3711,-274.445 L -42.2107,-274.104 L -42.0942,-273.746 L -42.0237,-273.376 L -42,-273 L -42.0237,-272.624
 L -42.0942,-272.254 L -42.2107,-271.896 L -42.3711,-271.555 L -42.5729,-271.237 L -42.8131,-270.946 L -43.0877,-270.688
 L -43.3925,-270.467 L -43.7227,-270.286 L -44.0729,-270.147 L -44.4379,-270.053 L -44.8116,-270.006 L -52,-270.006
 L -52,-185.994 L -44.8116,-185.994 L -44.4379,-185.947 L -44.0729,-185.853 L -43.7227,-185.714 L -43.3925,-185.533
 L -43.0877,-185.312 L -42.8131,-185.054 L -42.5729,-184.763 L -42.3711,-184.445 L -42.2107,-184.104 L -42.0942,-183.746
 L -42.0237,-183.376 L -42,-183 L -42.0237,-182.624 L -42.0942,-182.254 L -42.2107,-181.896 L -42.3711,-181.555
 L -42.5729,-181.237 L -42.8131,-180.946 L -43.0877,-180.688 L -43.3925,-180.467 L -43.7227,-180.286 L -44.0729,-180.147
 L -44.4379,-180.053 L -44.8116,-180.006 L -51.8905,-180.006 L -51.8429,-179.757 L -51.6489,-179.159 L -51.3815,-178.591
 L -51.0451,-178.061 L -50.6448,-177.577 L -50.1871,-177.147 L -49.6791,-176.778 L -49.1289,-176.476 L -48.5451,-176.245
 L -47.9369,-176.089 L -47.3139,-176.01 L 47.3139,-176.01 z
M 44.8116,-180.006 L 44.4379,-180.053 L 44.0729,-180.147 L 43.7227,-180.286 L 43.3925,-180.467 L 43.0877,-180.688
 L 42.8131,-180.946 L 42.5729,-181.237 L 42.3711,-181.555 L 42.2107,-181.896 L 42.0942,-182.254 L 42.0237,-182.624
 L 42,-183 L 42.0237,-183.376 L 42.0942,-183.746 L 42.2107,-184.104 L 42.3711,-184.445 L 42.5729,-184.763
 L 42.8131,-185.054 L 43.0877,-185.312 L 43.3925,-185.533 L 43.7227,-185.714 L 44.0729,-185.853 L 44.4379,-185.947
 L 44.8116,-185.994 L 45.1884,-185.994 L 45.5621,-185.947 L 45.927,-185.853 L 46.2773,-185.714 L 46.6075,-185.533
 L 46.9123,-185.312 L 47.1869,-185.054 L 47.427,-184.763 L 47.6289,-184.445 L 47.7893,-184.104 L 47.9057,-183.746
 L 47.9763,-183.376 L 48,-183 L 47.9763,-182.624 L 47.9057,-182.254 L 47.7893,-181.896 L 47.6289,-181.555
 L 47.427,-181.237 L 47.1869,-180.946 L 46.9123,-180.688 L 46.6075,-180.467 L 46.2773,-180.286 L 45.927,-180.147
 L 45.5621,-180.053 L 45.1884,-180.006 z
" stroke="black" fill="lightgray" stroke-width="0.5"/>
</svg>
