<?xml version="1.0" standalone="no"?>
<!DOCTYPE svg PUBLIC "-//W3C//DTD SVG 1.1//EN" "http://www.w3.org/Graphics/SVG/1.1/DTD/svg11.dtd">
<svg width="32mm" height="69mm" viewBox="-17 -132 32 69" xmlns="http://www.w3.org/2000/svg" version="1.1">
<title>OpenSCAD Model</title>
<path d="
M 10.9369,-102.089 L 11.5451,-102.245 L 12.1289,-102.476 L 12.6791,-102.778 L 13.1871,-103.147 L 13.6448,-103.577
 L 14.0451,-104.061 L 14.3815,-104.591 L 14.6489,-105.159 L 14.8429,-105.757 L 14.9606,-106.373 L 15,-107
 L 15,-127 L 14.9606,-127.627 L 14.8429,-128.243 L 14.6489,-128.841 L 14.3815,-129.409 L 14.0451,-129.939
 L 13.6448,-130.423 L 13.1871,-130.853 L 12.6791,-131.222 L 12.1289,-131.524 L 11.5451,-131.755 L 10.9369,-131.911
 L 10.3139,-131.99 L -10.3139,-131.99 L -10.9369,-131.911 L -11.5451,-131.755 L -12.1289,-131.524 L -12.6791,-131.222
 L -13.1871,-130.853 L -13.5,-130.559 L -13.5,-131.979 L -16.5,-131.979 L -16.5,-102.021 L -13.5,-102.021
 L -13.5,-103.441 L -13.1871,-103.147 L -12.6791,-102.778 L -12.1289,-102.476 L -11.5451,-102.245 L -10.9369,-102.089
 L -10.3139,-102.01 L 10.3139,-102.01 z
M -9.69545,-104.393 L -10.0833,-104.442 L -10.4619,-104.539 L -10.8254,-104.683 L -11.168,-104.872 L -11.4842,-105.101
 L -11.7692,-105.369 L -12.0184,-105.67 L -12.2279,-106 L -12.3943,-106.354 L -12.5151,-106.726 L -12.5884,-107.11
 L -12.6129,-107.5 L -12.6129,-126.5 L -12.5884,-126.89 L -12.5151,-127.274 L -12.3943,-127.646 L -12.2279,-128
 L -12.0184,-128.33 L -11.7692,-128.631 L -11.4842,-128.899 L -11.168,-129.128 L -10.8254,-129.317 L -10.4619,-129.461
 L -10.0833,-129.558 L -9.69545,-129.607 L 9.69545,-129.607 L 10.0833,-129.558 L 10.4619,-129.461 L 10.8254,-129.317
 L 11.168,-129.128 L 11.4842,-128.899 L 11.7692,-128.631 L 12.0184,-128.33 L 12.2279,-128 L 12.3943,-127.646
 L 12.5151,-127.274 L 12.5884,-126.89 L 12.6129,-126.5 L 12.6129,-107.5 L 12.5884,-107.11 L 12.5151,-106.726
 L 12.3943,-106.354 L 12.2279,-106 L 12.0184,-105.67 L 11.7692,-105.369 L 11.4842,-105.101 L 11.168,-104.872
 L 10.8254,-104.683 L 10.4619,-104.539 L 10.0833,-104.442 L 9.69545,-104.393 z
M 10.9369,-63.0886 L 11.5451,-63.2447 L 12.1289,-63.4759 L 12.6791,-63.7784 L 13.1871,-64.1474 L 13.6448,-64.5773
 L 14.0451,-65.0611 L 14.3815,-65.5912 L 14.6489,-66.1594 L 14.8429,-66.7566 L 14.9606,-67.3733 L 15,-68
 L 15,-88 L 14.9606,-88.6267 L 14.8429,-89.2434 L 14.6489,-89.8406 L 14.3815,-90.4088 L 14.0451,-90.9389
 L 13.6448,-91.4227 L 13.1871,-91.8526 L 12.6791,-92.2216 L 12.1289,-92.5241 L 11.5451,-92.7553 L 10.9369,-92.9114
 L 10.3139,-92.9901 L -10.3139,-92.9901 L -10.9369,-92.9114 L -11.5451,-92.7553 L -12.1289,-92.5241 L -12.6791,-92.2216
 L -13.1871,-91.8526 L -13.5,-91.5587 L -13.5,-91.6526 L -16.5,-91.6526 L -16.5,-64.3474 L -13.5,-64.3474
 L -13.5,-64.4413 L -13.1871,-64.1474 L -12.6791,-63.7784 L -12.1289,-63.4759 L -11.5451,-63.2447 L -10.9369,-63.0886
 L -10.3139,-63.0099 L 10.3139,-63.0099 z
M 7.36592,-83.3689 L 7.09988,-83.4025 L 6.84015,-83.4692 L 6.59084,-83.5679 L 6.35585,-83.6971 L 6.1389,-83.8547
 L 5.94344,-84.0383 L 5.77251,-84.2449 L 5.62881,-84.4713 L 5.51465,-84.7139 L 5.43178,-84.969 L 5.38153,-85.2324
 L 5.3647,-85.5 L 5.38153,-85.7676 L 5.43178,-86.031 L 5.51465,-86.286 L 5.62881,-86.5287 L 5.77251,-86.7551
 L 5.94344,-86.9617 L 6.1389,-87.1453 L 6.35585,-87.3029 L 6.59084,-87.4321 L 6.84015,-87.5308 L 7.09988,-87.5975
 L 7.36592,-87.6311 L 7.63406,-87.6311 L 7.9001,-87.5975 L 8.15984,-87.5308 L 8.40915,-87.4321 L 8.64413,-87.3029
 L 8.86108,-87.1453 L 9.05655,-86.9617 L 9.22748,-86.7551 L 9.37117,-86.5287 L 9.48534,-86.286 L 9.56821,-86.031
 L 9.61845,-85.7676 L 9.63528,-85.5 L 9.61845,-85.2324 L 9.56821,-84.969 L 9.48534,-84.7139 L 9.37117,-84.4713
 L 9.22748,-84.2449 L 9.05655,-84.0383 L 8.86108,-83.8547 L 8.64413,-83.6971 L 8.40915,-83.5679 L 8.15984,-83.4692
 L 7.9001,-83.4025 L 7.63406,-83.3689 z
M -7.63406,-83.3689 L -7.9001,-83.4025 L -8.15984,-83.4692 L -8.40915,-83.5679 L -8.64413,-83.6971 L -8.86108,-83.8547
 L -9.05655,-84.0383 L -9.22748,-84.2449 L -9.37117,-84.4713 L -9.48534,-84.7139 L -9.56821,-84.969 L -9.61845,-85.2324
 L -9.63528,-85.5 L -9.61845,-85.7676 L -9.56821,-86.031 L -9.48534,-86.286 L -9.37117,-86.5287 L -9.22748,-86.7551
 L -9.05655,-86.9617 L -8.86108,-87.1453 L -8.64413,-87.3029 L -8.40915,-87.4321 L -8.15984,-87.5308 L -7.9001,-87.5975
 L -7.63406,-87.6311 L -7.36592,-87.6311 L -7.09988,-87.5975 L -6.84015,-87.5308 L -6.59084,-87.4321 L -6.35585,-87.3029
 L -6.1389,-87.1453 L -5.94344,-86.9617 L -5.77251,-86.7551 L -5.62881,-86.5287 L -5.51465,-86.286 L -5.43178,-86.031
 L -5.38153,-85.7676 L -5.3647,-85.5 L -5.38153,-85.2324 L -5.43178,-84.969 L -5.51465,-84.7139 L -5.62881,-84.4713
 L -5.77251,-84.2449 L -5.94344,-84.0383 L -6.1389,-83.8547 L -6.35585,-83.6971 L -6.59084,-83.5679 L -6.84015,-83.4692
 L -7.09988,-83.4025 L -7.36592,-83.3689 z
M 7.36592,-68.3689 L 7.09988,-68.4025 L 6.84015,-68.4692 L 6.59084,-68.5679 L 6.35585,-68.6971 L 6.1389,-68.8547
 L 5.94344,-69.0383 L 5.77251,-69.2449 L 5.62881,-69.4713 L 5.51465,-69.714 L 5.43178,-69.969 L 5.38153,-70.2324
 L 5.3647,-70.5 L 5.38153,-70.7676 L 5.43178,-71.031 L 5.51465,-71.2861 L 5.62881,-71.5287 L 5.77251,-71.7551
 L 5.94344,-71.9617 L 6.1389,-72.1453 L 6.35585,-72.3029 L 6.59084,-72.4321 L 6.84015,-72.5308 L 7.09988,-72.5975
 L 7.36592,-72.6311 L 7.63406,-72.6311 L 7.9001,-72.5975 L 8.15984,-72.5308 L 8.40915,-72.4321 L 8.64413,-72.3029
 L 8.86108,-72.1453 L 9.05655,-71.9617 L 9.22748,-71.7551 L 9.37117,-71.5287 L 9.48534,-71.2861 L 9.56821,-71.031
 L 9.61845,-70.7676 L 9.63528,-70.5 L 9.61845,-70.2324 L 9.56821,-69.969 L 9.48534,-69.714 L 9.37117,-69.4713
 L 9.22748,-69.2449 L 9.05655,-69.0383 L 8.86108,-68.8547 L 8.64413,-68.6971 L 8.40915,-68.5679 L 8.15984,-68.4692
 L 7.9001,-68.4025 L 7.63406,-68.3689 z
M -7.63406,-68.3689 L -7.9001,-68.4025 L -8.15984,-68.4692 L -8.40915,-68.5679 L -8.64413,-68.6971 L -8.86108,-68.8547
 L -9.05655,-69.0383 L -9.22748,-69.2449 L -9.37117,-69.4713 L -9.48534,-69.714 L -9.56821,-69.969 L -9.61845,-70.2324
 L -9.63528,-70.5 L -9.61845,-70.7676 L -9.56821,-71.031 L -9.48534,-71.2861 L -9.37117,-71.5287 L -9.22748,-71.7551
 L -9.05655,-71.9617 L -8.86108,-72.1453 L -8.64413,-72.3029 L -8.40915,-72.4321 L -8.15984,-72.5308 L -7.9001,-72.5975
 L -7.63406,-72.6311 L -7.36592,-72.6311 L -7.09988,-72.5975 L -6.84015,-72.5308 L -6.59084,-72.4321 L -6.35585,-72.3029
 L -6.1389,-72.1453 L -5.94344,-71.9617 L -5.77251,-71.7551 L -5.62881,-71.5287 L -5.51465,-71.2861 L -5.43178,-71.031
 L -5.38153,-70.7676 L -5.3647,-70.5 L -5.38153,-70.2324 L -5.43178,-69.969 L -5.51465,-69.714 L -5.62881,-69.4713
 L -5.77251,-69.2449 L -5.94344,-69.0383 L -6.1389,-68.8547 L -6.35585,-68.6971 L -6.59084,-68.5679 L -6.84015,-68.4692
 L -7.09988,-68.4025 L -7.36592,-68.3689 z
" stroke="black" fill="lightgray" stroke-width="0.5"/>
</svg>
