<?xml version="1.0" standalone="no"?>
<!DOCTYPE svg PUBLIC "-//W3C//DTD SVG 1.1//EN" "http://www.w3.org/Graphics/SVG/1.1/DTD/svg11.dtd">
<svg width="90mm" height="40mm" viewBox="-45 -80 90 40" xmlns="http://www.w3.org/2000/svg" version="1.1">
<title>OpenSCAD Model</title>
<path d="
M 40.9369,-64.5886 L 41.5451,-64.7447 L 42.1289,-64.9759 L 42.6791,-65.2784 L 43.1871,-65.6474 L 43.6448,-66.0773
 L 44.0451,-66.5611 L 44.3815,-67.0912 L 44.6489,-67.6594 L 44.8429,-68.2566 L 44.9606,-68.8733 L 45,-69.5
 L 45,-74.5 L 44.9606,-75.1267 L 44.8429,-75.7434 L 44.6489,-76.3406 L 44.3815,-76.9088 L 44.0451,-77.4389
 L 43.6448,-77.9227 L 43.1871,-78.3526 L 42.6791,-78.7216 L 42.1289,-79.0241 L 41.5451,-79.2553 L 40.9369,-79.4114
 L 40.3139,-79.4901 L -40.3139,-79.4901 L -40.9369,-79.4114 L -41.5451,-79.2553 L -42.1289,-79.0241 L -42.6791,-78.7216
 L -43.1871,-78.3526 L -43.6448,-77.9227 L -44.0451,-77.4389 L -44.3815,-76.9088 L -44.6489,-76.3406 L -44.8429,-75.7434
 L -44.9606,-75.1267 L -45,-74.5 L -45,-69.5 L -44.9606,-68.8733 L -44.8429,-68.2566 L -44.6489,-67.6594
 L -44.3815,-67.0912 L -44.0451,-66.5611 L -43.6448,-66.0773 L -43.1871,-65.6474 L -42.6791,-65.2784 L -42.1289,-64.9759
 L -41.5451,-64.7447 L -40.9369,-64.5886 L -40.3139,-64.5099 L 40.3139,-64.5099 z
M -40.0375,-65.1806 L -40.6079,-65.2527 L -41.1648,-65.3956 L -41.6994,-65.6073 L -42.2032,-65.8843 L -42.6684,-66.2223
 L -43.0875,-66.6158 L -43.454,-67.0589 L -43.7621,-67.5443 L -44.0069,-68.0646 L -44.1846,-68.6114 L -44.2923,-69.1762
 L -44.3284,-69.75 L -44.3284,-74.25 L -44.2923,-74.8238 L -44.1846,-75.3886 L -44.0069,-75.9354 L -43.7621,-76.4557
 L -43.454,-76.9411 L -43.0875,-77.3842 L -42.6684,-77.7777 L -42.2032,-78.1157 L -41.6994,-78.3927 L -41.1648,-78.6044
 L -40.6079,-78.7473 L -40.0375,-78.8194 L 40.0375,-78.8194 L 40.6079,-78.7473 L 41.1648,-78.6044 L 41.6994,-78.3927
 L 42.2032,-78.1157 L 42.6684,-77.7777 L 43.0875,-77.3842 L 43.454,-76.9411 L 43.7621,-76.4557 L 44.0069,-75.9354
 L 44.1846,-75.3886 L 44.2923,-74.8238 L 44.3284,-74.25 L 44.3284,-69.75 L 44.2923,-69.1762 L 44.1846,-68.6114
 L 44.0069,-68.0646 L 43.7621,-67.5443 L 43.454,-67.0589 L 43.0875,-66.6158 L 42.6684,-66.2223 L 42.2032,-65.8843
 L 41.6994,-65.6073 L 41.1648,-65.3956 L 40.6079,-65.2527 L 40.0375,-65.1806 z
M 40.9369,-40.5886 L 41.5451,-40.7447 L 42.1289,-40.9759 L 42.6791,-41.2784 L 43.1871,-41.6474 L 43.6448,-42.0773
 L 44.0451,-42.5611 L 44.3815,-43.0912 L 44.6489,-43.6594 L 44.8429,-44.2566 L 44.9606,-44.8733 L 45,-45.5
 L 45,-50.5 L 44.9606,-51.1267 L 44.8429,-51.7434 L 44.6489,-52.3406 L 44.3815,-52.9088 L 44.0451,-53.4389
 L 43.6448,-53.9227 L 43.1871,-54.3526 L 42.6791,-54.7216 L 42.1289,-55.0241 L 41.5451,-55.2553 L 40.9369,-55.4114
 L 40.3139,-55.4901 L -40.3139,-55.4901 L -40.9369,-55.4114 L -41.5451,-55.2553 L -42.1289,-55.0241 L -42.6791,-54.7216
 L -43.1871,-54.3526 L -43.6448,-53.9227 L -44.0451,-53.4389 L -44.3815,-52.9088 L -44.6489,-52.3406 L -44.8429,-51.7434
 L -44.9606,-51.1267 L -45,-50.5 L -45,-45.5 L -44.9606,-44.8733 L -44.8429,-44.2566 L -44.6489,-43.6594
 L -44.3815,-43.0912 L -44.0451,-42.5611 L -43.6448,-42.0773 L -43.1871,-41.6474 L -42.6791,-41.2784 L -42.1289,-40.9759
 L -41.5451,-40.7447 L -40.9369,-40.5886 L -40.3139,-40.5099 L 40.3139,-40.5099 z
M -39.8825,-43.6445 L -40.1453,-43.6777 L -40.4019,-43.7436 L -40.6482,-43.8412 L -40.8804,-43.9688 L -41.0947,-44.1245
 L -41.2879,-44.3059 L -41.4567,-44.51 L -41.5987,-44.7337 L -41.7115,-44.9734 L -41.7934,-45.2254 L -41.843,-45.4856
 L -41.8596,-45.75 L -41.8596,-50.25 L -41.843,-50.5144 L -41.7934,-50.7746 L -41.7115,-51.0266 L -41.5987,-51.2663
 L -41.4567,-51.49 L -41.2879,-51.6941 L -41.0947,-51.8755 L -40.8804,-52.0312 L -40.6482,-52.1588 L -40.4019,-52.2564
 L -40.1453,-52.3223 L -39.8825,-52.3555 L 39.8825,-52.3555 L 40.1453,-52.3223 L 40.4019,-52.2564 L 40.6482,-52.1588
 L 40.8804,-52.0312 L 41.0947,-51.8755 L 41.2879,-51.6941 L 41.4567,-51.49 L 41.5987,-51.2663 L 41.7115,-51.0266
 L 41.7934,-50.7746 L 41.843,-50.5144 L 41.8596,-50.25 L 41.8596,-45.75 L 41.843,-45.4856 L 41.7934,-45.2254
 L 41.7115,-44.9734 L 41.5987,-44.7337 L 41.4567,-44.51 L 41.2879,-44.3059 L 41.0947,-44.1245 L 40.8804,-43.9688
 L 40.6482,-43.8412 L 40.4019,-43.7436 L 40.1453,-43.6777 L 39.8825,-43.6445 z
" stroke="black" fill="lightgray" stroke-width="0.5"/>
</svg>
