<?xml version="1.0" standalone="no"?>
<!DOCTYPE svg PUBLIC "-//W3C//DTD SVG 1.1//EN" "http://www.w3.org/Graphics/SVG/1.1/DTD/svg11.dtd">
<svg width="90mm" height="336mm" viewBox="-45 -651 90 336" xmlns="http://www.w3.org/2000/svg" version="1.1">
<title>OpenSCAD Model</title>
<path d="
M 40.9369,-591.089 L 41.5451,-591.245 L 42.1289,-591.476 L 42.6791,-591.778 L 43.1871,-592.147 L 43.6448,-592.577
 L 44.0451,-593.061 L 44.3815,-593.591 L 44.6489,-594.159 L 44.8429,-594.757 L 44.9606,-595.373 L 45,-596
 L 45,-646 L 44.9606,-646.627 L 44.8429,-647.243 L 44.6489,-647.841 L 44.3815,-648.409 L 44.0451,-648.939
 L 43.6448,-649.423 L 43.1871,-649.853 L 42.6791,-650.222 L 42.1289,-650.524 L 41.5451,-650.755 L 40.9369,-650.911
 L 40.3139,-650.99 L -40.3139,-650.99 L -40.9369,-650.911 L -41.5451,-650.755 L -42.1289,-650.524 L -42.6791,-650.222
 L -43.1871,-649.853 L -43.6448,-649.423 L -44.0451,-648.939 L -44.3815,-648.409 L -44.6489,-647.841 L -44.8429,-647.243
 L -44.9606,-646.627 L -45,-646 L -45,-596 L -44.9606,-595.373 L -44.8429,-594.757 L -44.6489,-594.159
 L -44.3815,-593.591 L -44.0451,-593.061 L -43.6448,-592.577 L -43.1871,-592.147 L -42.6791,-591.778 L -42.1289,-591.476
 L -41.5451,-591.245 L -40.9369,-591.089 L -40.3139,-591.01 L 40.3139,-591.01 z
M -40.0482,-591.509 L -40.6401,-591.584 L -41.2178,-591.732 L -41.7724,-591.952 L -42.2952,-592.239 L -42.7778,-592.59
 L -43.2126,-592.998 L -43.5928,-593.458 L -43.9124,-593.962 L -44.1664,-594.501 L -44.3508,-595.069 L -44.4625,-595.655
 L -44.5,-596.25 L -44.5,-645.75 L -44.4625,-646.345 L -44.3508,-646.931 L -44.1664,-647.499 L -43.9124,-648.038
 L -43.5928,-648.542 L -43.2126,-649.002 L -42.7778,-649.41 L -42.2952,-649.761 L -41.7724,-650.048 L -41.2178,-650.268
 L -40.6401,-650.416 L -40.0482,-650.491 L 40.0482,-650.491 L 40.6401,-650.416 L 41.2178,-650.268 L 41.7724,-650.048
 L 42.2952,-649.761 L 42.7778,-649.41 L 43.2126,-649.002 L 43.5928,-648.542 L 43.9124,-648.038 L 44.1664,-647.499
 L 44.3508,-646.931 L 44.4625,-646.345 L 44.5,-645.75 L 44.5,-596.25 L 44.4625,-595.655 L 44.3508,-595.069
 L 44.1664,-594.501 L 43.9124,-593.962 L 43.5928,-593.458 L 43.2126,-592.998 L 42.7778,-592.59 L 42.2952,-592.239
 L 41.7724,-591.952 L 41.2178,-591.732 L 40.6401,-591.584 L 40.0482,-591.509 z
M 40.9369,-522.089 L 41.5451,-522.245 L 42.1289,-522.476 L 42.6791,-522.778 L 43.1871,-523.147 L 43.6448,-523.577
 L 44.0451,-524.061 L 44.3815,-524.591 L 44.6489,-525.159 L 44.8429,-525.757 L 44.9606,-526.373 L 45,-527
 L 45,-577 L 44.9606,-577.627 L 44.8429,-578.243 L 44.6489,-578.841 L 44.3815,-579.409 L 44.0451,-579.939
 L 43.6448,-580.423 L 43.1871,-580.853 L 42.6791,-581.222 L 42.1289,-581.524 L 41.5451,-581.755 L 40.9369,-581.911
 L 40.3139,-581.99 L -40.3139,-581.99 L -40.9369,-581.911 L -41.5451,-581.755 L -42.1289,-581.524 L -42.6791,-581.222
 L -43.1871,-580.853 L -43.6448,-580.423 L -44.0451,-579.939 L -44.3815,-579.409 L -44.6489,-578.841 L -44.8429,-578.243
 L -44.9606,-577.627 L -45,-577 L -45,-527 L -44.9606,-526.373 L -44.8429,-525.757 L -44.6489,-525.159
 L -44.3815,-524.591 L -44.0451,-524.061 L -43.6448,-523.577 L -43.1871,-523.147 L -42.6791,-522.778 L -42.1289,-522.476
 L -41.5451,-522.245 L -40.9369,-522.089 L -40.3139,-522.01 L 40.3139,-522.01 z
M -40.0482,-522.509 L -40.6401,-522.584 L -41.2178,-522.732 L -41.7724,-522.952 L -42.2952,-523.239 L -42.7778,-523.59
 L -43.2126,-523.998 L -43.5928,-524.458 L -43.9124,-524.962 L -44.1664,-525.501 L -44.3508,-526.069 L -44.4625,-526.655
 L -44.5,-527.25 L -44.5,-576.75 L -44.4625,-577.345 L -44.3508,-577.931 L -44.1664,-578.499 L -43.9124,-579.038
 L -43.5928,-579.542 L -43.2126,-580.002 L -42.7778,-580.41 L -42.2952,-580.761 L -41.7724,-581.048 L -41.2178,-581.268
 L -40.6401,-581.416 L -40.0482,-581.491 L 40.0482,-581.491 L 40.6401,-581.416 L 41.2178,-581.268 L 41.7724,-581.048
 L 42.2952,-580.761 L 42.7778,-580.41 L 43.2126,-580.002 L 43.5928,-579.542 L 43.9124,-579.038 L 44.1664,-578.499
 L 44.3508,-577.931 L 44.4625,-577.345 L 44.5,-576.75 L 44.5,-527.25 L 44.4625,-526.655 L 44.3508,-526.069
 L 44.1664,-525.501 L 43.9124,-524.962 L 43.5928,-524.458 L 43.2126,-523.998 L 42.7778,-523.59 L 42.2952,-523.239
 L 41.7724,-522.952 L 41.2178,-522.732 L 40.6401,-522.584 L 40.0482,-522.509 z
M 40.9369,-453.089 L 41.5451,-453.245 L 42.1289,-453.476 L 42.6791,-453.778 L 43.1871,-454.147 L 43.6448,-454.577
 L 44.0451,-455.061 L 44.3815,-455.591 L 44.6489,-456.159 L 44.8429,-456.757 L 44.9606,-457.373 L 45,-458
 L 45,-508 L 44.9606,-508.627 L 44.8429,-509.243 L 44.6489,-509.841 L 44.3815,-510.409 L 44.0451,-510.939
 L 43.6448,-511.423 L 43.1871,-511.853 L 42.6791,-512.222 L 42.1289,-512.524 L 41.5451,-512.755 L 40.9369,-512.911
 L 40.3139,-512.99 L -40.3139,-512.99 L -40.9369,-512.911 L -41.5451,-512.755 L -42.1289,-512.524 L -42.6791,-512.222
 L -43.1871,-511.853 L -43.6448,-511.423 L -44.0451,-510.939 L -44.3815,-510.409 L -44.6489,-509.841 L -44.8429,-509.243
 L -44.9606,-508.627 L -45,-508 L -45,-458 L -44.9606,-457.373 L -44.8429,-456.757 L -44.6489,-456.159
 L -44.3815,-455.591 L -44.0451,-455.061 L -43.6448,-454.577 L -43.1871,-454.147 L -42.6791,-453.778 L -42.1289,-453.476
 L -41.5451,-453.245 L -40.9369,-453.089 L -40.3139,-453.01 L 40.3139,-453.01 z
M -40.0482,-453.509 L -40.6401,-453.584 L -41.2178,-453.732 L -41.7724,-453.952 L -42.2952,-454.239 L -42.7778,-454.59
 L -43.2126,-454.998 L -43.5928,-455.458 L -43.9124,-455.962 L -44.1664,-456.501 L -44.3508,-457.069 L -44.4625,-457.655
 L -44.5,-458.25 L -44.5,-507.75 L -44.4625,-508.345 L -44.3508,-508.931 L -44.1664,-509.499 L -43.9124,-510.038
 L -43.5928,-510.542 L -43.2126,-511.002 L -42.7778,-511.41 L -42.2952,-511.761 L -41.7724,-512.048 L -41.2178,-512.268
 L -40.6401,-512.416 L -40.0482,-512.491 L 40.0482,-512.491 L 40.6401,-512.416 L 41.2178,-512.268 L 41.7724,-512.048
 L 42.2952,-511.761 L 42.7778,-511.41 L 43.2126,-511.002 L 43.5928,-510.542 L 43.9124,-510.038 L 44.1664,-509.499
 L 44.3508,-508.931 L 44.4625,-508.345 L 44.5,-507.75 L 44.5,-458.25 L 44.4625,-457.655 L 44.3508,-457.069
 L 44.1664,-456.501 L 43.9124,-455.962 L 43.5928,-455.458 L 43.2126,-454.998 L 42.7778,-454.59 L 42.2952,-454.239
 L 41.7724,-453.952 L 41.2178,-453.732 L 40.6401,-453.584 L 40.0482,-453.509 z
M 40.9369,-384.089 L 41.5451,-384.245 L 42.1289,-384.476 L 42.6791,-384.778 L 43.1871,-385.147 L 43.6448,-385.577
 L 44.0451,-386.061 L 44.3815,-386.591 L 44.6489,-387.159 L 44.8429,-387.757 L 44.9606,-388.373 L 45,-389
 L 45,-439 L 44.9606,-439.627 L 44.8429,-440.243 L 44.6489,-440.841 L 44.3815,-441.409 L 44.0451,-441.939
 L 43.6448,-442.423 L 43.1871,-442.853 L 42.6791,-443.222 L 42.1289,-443.524 L 41.5451,-443.755 L 40.9369,-443.911
 L 40.3139,-443.99 L -40.3139,-443.99 L -40.9369,-443.911 L -41.5451,-443.755 L -42.1289,-443.524 L -42.6791,-443.222
 L -43.1871,-442.853 L -43.6448,-442.423 L -44.0451,-441.939 L -44.3815,-441.409 L -44.6489,-440.841 L -44.8429,-440.243
 L -44.9606,-439.627 L -45,-439 L -45,-389 L -44.9606,-388.373 L -44.8429,-387.757 L -44.6489,-387.159
 L -44.3815,-386.591 L -44.0451,-386.061 L -43.6448,-385.577 L -43.1871,-385.147 L -42.6791,-384.778 L -42.1289,-384.476
 L -41.5451,-384.245 L -40.9369,-384.089 L -40.3139,-384.01 L 40.3139,-384.01 z
M -40.0375,-384.681 L -40.6079,-384.753 L -41.1648,-384.896 L -41.6994,-385.107 L -42.2032,-385.384 L -42.6684,-385.722
 L -43.0875,-386.116 L -43.454,-386.559 L -43.7621,-387.044 L -44.0069,-387.565 L -44.1846,-388.111 L -44.2923,-388.676
 L -44.3284,-389.25 L -44.3284,-438.75 L -44.2923,-439.324 L -44.1846,-439.889 L -44.0069,-440.435 L -43.7621,-440.956
 L -43.454,-441.441 L -43.0875,-441.884 L -42.6684,-442.278 L -42.2032,-442.616 L -41.6994,-442.893 L -41.1648,-443.104
 L -40.6079,-443.247 L -40.0375,-443.319 L 40.0375,-443.319 L 40.6079,-443.247 L 41.1648,-443.104 L 41.6994,-442.893
 L 42.2032,-442.616 L 42.6684,-442.278 L 43.0875,-441.884 L 43.454,-441.441 L 43.7621,-440.956 L 44.0069,-440.435
 L 44.1846,-439.889 L 44.2923,-439.324 L 44.3284,-438.75 L 44.3284,-389.25 L 44.2923,-388.676 L 44.1846,-388.111
 L 44.0069,-387.565 L 43.7621,-387.044 L 43.454,-386.559 L 43.0875,-386.116 L 42.6684,-385.722 L 42.2032,-385.384
 L 41.6994,-385.107 L 41.1648,-384.896 L 40.6079,-384.753 L 40.0375,-384.681 z
M 40.9369,-315.089 L 41.5451,-315.245 L 42.1289,-315.476 L 42.6791,-315.778 L 43.1871,-316.147 L 43.6448,-316.577
 L 44.0451,-317.061 L 44.3815,-317.591 L 44.6489,-318.159 L 44.8429,-318.757 L 44.9606,-319.373 L 45,-320
 L 45,-370 L 44.9606,-370.627 L 44.8429,-371.243 L 44.6489,-371.841 L 44.3815,-372.409 L 44.0451,-372.939
 L 43.6448,-373.423 L 43.1871,-373.853 L 42.6791,-374.222 L 42.1289,-374.524 L 41.5451,-374.755 L 40.9369,-374.911
 L 40.3139,-374.99 L -40.3139,-374.99 L -40.9369,-374.911 L -41.5451,-374.755 L -42.1289,-374.524 L -42.6791,-374.222
 L -43.1871,-373.853 L -43.6448,-373.423 L -44.0451,-372.939 L -44.3815,-372.409 L -44.6489,-371.841 L -44.8429,-371.243
 L -44.9606,-370.627 L -45,-370 L -45,-320 L -44.9606,-319.373 L -44.8429,-318.757 L -44.6489,-318.159
 L -44.3815,-317.591 L -44.0451,-317.061 L -43.6448,-316.577 L -43.1871,-316.147 L -42.6791,-315.778 L -42.1289,-315.476
 L -41.5451,-315.245 L -40.9369,-315.089 L -40.3139,-315.01 L 40.3139,-315.01 z
M -39.8825,-318.145 L -40.1453,-318.178 L -40.4019,-318.244 L -40.6482,-318.341 L -40.8804,-318.469 L -41.0947,-318.625
 L -41.2879,-318.806 L -41.4567,-319.01 L -41.5987,-319.234 L -41.7115,-319.473 L -41.7934,-319.725 L -41.843,-319.986
 L -41.8596,-320.25 L -41.8596,-369.75 L -41.843,-370.014 L -41.7934,-370.275 L -41.7115,-370.527 L -41.5987,-370.766
 L -41.4567,-370.99 L -41.2879,-371.194 L -41.0947,-371.375 L -40.8804,-371.531 L -40.6482,-371.659 L -40.4019,-371.756
 L -40.1453,-371.822 L -39.8825,-371.855 L 39.8825,-371.855 L 40.1453,-371.822 L 40.4019,-371.756 L 40.6482,-371.659
 L 40.8804,-371.531 L 41.0947,-371.375 L 41.2879,-371.194 L 41.4567,-370.99 L 41.5987,-370.766 L 41.7115,-370.527
 L 41.7934,-370.275 L 41.843,-370.014 L 41.8596,-369.75 L 41.8596,-320.25 L 41.843,-319.986 L 41.7934,-319.725
 L 41.7115,-319.473 L 41.5987,-319.234 L 41.4567,-319.01 L 41.2879,-318.806 L 41.0947,-318.625 L 40.8804,-318.469
 L 40.6482,-318.341 L 40.4019,-318.244 L 40.1453,-318.178 L 39.8825,-318.145 z
" stroke="black" fill="lightgray" stroke-width="0.5"/>
</svg>
