<?xml version="1.0" standalone="no"?>
<!DOCTYPE svg PUBLIC "-//W3C//DTD SVG 1.1//EN" "http://www.w3.org/Graphics/SVG/1.1/DTD/svg11.dtd">
<svg width="16mm" height="486mm" viewBox="-8 -936 16 486" xmlns="http://www.w3.org/2000/svg" version="1.1">
<title>OpenSCAD Model</title>
<path d="
M 3.4369,-846.089 L 4.04507,-846.245 L 4.62889,-846.476 L 5.17912,-846.778 L 5.68712,-847.147 L 6.14484,-847.577
 L 6.54507,-848.061 L 6.88153,-848.591 L 7.14888,-849.159 L 7.34291,-849.757 L 7.46057,-850.373 L 7.5,-851
 L 7.5,-931 L 7.46057,-931.627 L 7.34291,-932.243 L 7.14888,-932.841 L 6.88153,-933.409 L 6.54507,-933.939
 L 6.14484,-934.423 L 5.68712,-934.853 L 5.17912,-935.222 L 4.62889,-935.524 L 4.04507,-935.755 L 3.4369,-935.911
 L 2.81395,-935.99 L -2.81395,-935.99 L -3.4369,-935.911 L -4.04507,-935.755 L -4.62889,-935.524 L -5.17912,-935.222
 L -5.68712,-934.853 L -6.14484,-934.423 L -6.54507,-933.939 L -6.88153,-933.409 L -7.14888,-932.841 L -7.34291,-932.243
 L -7.46057,-931.627 L -7.5,-931 L -7.5,-851 L -7.46057,-850.373 L -7.34291,-849.757 L -7.14888,-849.159
 L -6.88153,-848.591 L -6.54507,-848.061 L -6.14484,-847.577 L -5.68712,-847.147 L -5.17912,-846.778 L -4.62889,-846.476
 L -4.04507,-846.245 L -3.4369,-846.089 L -2.81395,-846.01 L 2.81395,-846.01 z
M -2.25116,-847.508 L -2.74951,-847.571 L -3.23605,-847.696 L -3.70311,-847.881 L -4.1433,-848.123 L -4.54968,-848.418
 L -4.91586,-848.762 L -5.23605,-849.149 L -5.50522,-849.573 L -5.7191,-850.028 L -5.87433,-850.505 L -5.96844,-850.999
 L -6,-851.5 L -6,-930.5 L -5.96844,-931.001 L -5.87433,-931.495 L -5.7191,-931.972 L -5.50522,-932.427
 L -5.23605,-932.851 L -4.91586,-933.238 L -4.54968,-933.582 L -4.1433,-933.877 L -3.70311,-934.119 L -3.23605,-934.304
 L -2.74951,-934.429 L -2.25116,-934.492 L 2.25116,-934.492 L 2.74951,-934.429 L 3.23605,-934.304 L 3.70311,-934.119
 L 4.1433,-933.877 L 4.54968,-933.582 L 4.91586,-933.238 L 5.23605,-932.851 L 5.50522,-932.427 L 5.7191,-931.972
 L 5.87433,-931.495 L 5.96844,-931.001 L 6,-930.5 L 6,-851.5 L 5.96844,-850.999 L 5.87433,-850.505
 L 5.7191,-850.028 L 5.50522,-849.573 L 5.23605,-849.149 L 4.91586,-848.762 L 4.54968,-848.418 L 4.1433,-848.123
 L 3.70311,-847.881 L 3.23605,-847.696 L 2.74951,-847.571 L 2.25116,-847.508 z
M 3.4369,-747.089 L 4.04507,-747.245 L 4.62889,-747.476 L 5.17912,-747.778 L 5.68712,-748.147 L 6.14484,-748.577
 L 6.54507,-749.061 L 6.88153,-749.591 L 7.14888,-750.159 L 7.34291,-750.757 L 7.46057,-751.373 L 7.5,-752
 L 7.5,-832 L 7.46057,-832.627 L 7.34291,-833.243 L 7.14888,-833.841 L 6.88153,-834.409 L 6.54507,-834.939
 L 6.14484,-835.423 L 5.68712,-835.853 L 5.17912,-836.222 L 4.62889,-836.524 L 4.04507,-836.755 L 3.4369,-836.911
 L 2.81395,-836.99 L -2.81395,-836.99 L -3.4369,-836.911 L -4.04507,-836.755 L -4.62889,-836.524 L -5.17912,-836.222
 L -5.68712,-835.853 L -6.14484,-835.423 L -6.54507,-834.939 L -6.88153,-834.409 L -7.14888,-833.841 L -7.34291,-833.243
 L -7.46057,-832.627 L -7.5,-832 L -7.5,-752 L -7.46057,-751.373 L -7.34291,-750.757 L -7.14888,-750.159
 L -6.88153,-749.591 L -6.54507,-749.061 L -6.14484,-748.577 L -5.68712,-748.147 L -5.17912,-747.778 L -4.62889,-747.476
 L -4.04507,-747.245 L -3.4369,-747.089 L -2.81395,-747.01 L 2.81395,-747.01 z
M -2.25116,-748.508 L -2.74951,-748.571 L -3.23605,-748.696 L -3.70311,-748.881 L -4.1433,-749.123 L -4.54968,-749.418
 L -4.91586,-749.762 L -5.23605,-750.149 L -5.50522,-750.573 L -5.7191,-751.028 L -5.87433,-751.505 L -5.96844,-751.999
 L -6,-752.5 L -6,-831.5 L -5.96844,-832.001 L -5.87433,-832.495 L -5.7191,-832.972 L -5.50522,-833.427
 L -5.23605,-833.851 L -4.91586,-834.238 L -4.54968,-834.582 L -4.1433,-834.877 L -3.70311,-835.119 L -3.23605,-835.304
 L -2.74951,-835.429 L -2.25116,-835.492 L 2.25116,-835.492 L 2.74951,-835.429 L 3.23605,-835.304 L 3.70311,-835.119
 L 4.1433,-834.877 L 4.54968,-834.582 L 4.91586,-834.238 L 5.23605,-833.851 L 5.50522,-833.427 L 5.7191,-832.972
 L 5.87433,-832.495 L 5.96844,-832.001 L 6,-831.5 L 6,-752.5 L 5.96844,-751.999 L 5.87433,-751.505
 L 5.7191,-751.028 L 5.50522,-750.573 L 5.23605,-750.149 L 4.91586,-749.762 L 4.54968,-749.418 L 4.1433,-749.123
 L 3.70311,-748.881 L 3.23605,-748.696 L 2.74951,-748.571 L 2.25116,-748.508 z
M 3.4369,-648.089 L 4.04507,-648.245 L 4.62889,-648.476 L 5.17912,-648.778 L 5.68712,-649.147 L 6.14484,-649.577
 L 6.54507,-650.061 L 6.88153,-650.591 L 7.14888,-651.159 L 7.34291,-651.757 L 7.46057,-652.373 L 7.5,-653
 L 7.5,-733 L 7.46057,-733.627 L 7.34291,-734.243 L 7.14888,-734.841 L 6.88153,-735.409 L 6.54507,-735.939
 L 6.14484,-736.423 L 5.68712,-736.853 L 5.17912,-737.222 L 4.62889,-737.524 L 4.04507,-737.755 L 3.4369,-737.911
 L 2.81395,-737.99 L -2.81395,-737.99 L -3.4369,-737.911 L -4.04507,-737.755 L -4.62889,-737.524 L -5.17912,-737.222
 L -5.68712,-736.853 L -6.14484,-736.423 L -6.54507,-735.939 L -6.88153,-735.409 L -7.14888,-734.841 L -7.34291,-734.243
 L -7.46057,-733.627 L -7.5,-733 L -7.5,-653 L -7.46057,-652.373 L -7.34291,-651.757 L -7.14888,-651.159
 L -6.88153,-650.591 L -6.54507,-650.061 L -6.14484,-649.577 L -5.68712,-649.147 L -5.17912,-648.778 L -4.62889,-648.476
 L -4.04507,-648.245 L -3.4369,-648.089 L -2.81395,-648.01 L 2.81395,-648.01 z
M -2.25116,-649.508 L -2.74951,-649.571 L -3.23605,-649.696 L -3.70311,-649.881 L -4.1433,-650.123 L -4.54968,-650.418
 L -4.91586,-650.762 L -5.23605,-651.149 L -5.50522,-651.573 L -5.7191,-652.028 L -5.87433,-652.505 L -5.96844,-652.999
 L -6,-653.5 L -6,-732.5 L -5.96844,-733.001 L -5.87433,-733.495 L -5.7191,-733.972 L -5.50522,-734.427
 L -5.23605,-734.851 L -4.91586,-735.238 L -4.54968,-735.582 L -4.1433,-735.877 L -3.70311,-736.119 L -3.23605,-736.304
 L -2.74951,-736.429 L -2.25116,-736.492 L 2.25116,-736.492 L 2.74951,-736.429 L 3.23605,-736.304 L 3.70311,-736.119
 L 4.1433,-735.877 L 4.54968,-735.582 L 4.91586,-735.238 L 5.23605,-734.851 L 5.50522,-734.427 L 5.7191,-733.972
 L 5.87433,-733.495 L 5.96844,-733.001 L 6,-732.5 L 6,-653.5 L 5.96844,-652.999 L 5.87433,-652.505
 L 5.7191,-652.028 L 5.50522,-651.573 L 5.23605,-651.149 L 4.91586,-650.762 L 4.54968,-650.418 L 4.1433,-650.123
 L 3.70311,-649.881 L 3.23605,-649.696 L 2.74951,-649.571 L 2.25116,-649.508 z
M 3.4369,-549.089 L 4.04507,-549.245 L 4.62889,-549.476 L 5.17912,-549.778 L 5.68712,-550.147 L 6.14484,-550.577
 L 6.54507,-551.061 L 6.88153,-551.591 L 7.14888,-552.159 L 7.34291,-552.757 L 7.46057,-553.373 L 7.5,-554
 L 7.5,-634 L 7.46057,-634.627 L 7.34291,-635.243 L 7.14888,-635.841 L 6.88153,-636.409 L 6.54507,-636.939
 L 6.14484,-637.423 L 5.68712,-637.853 L 5.17912,-638.222 L 4.62889,-638.524 L 4.04507,-638.755 L 3.4369,-638.911
 L 2.81395,-638.99 L -2.81395,-638.99 L -3.4369,-638.911 L -4.04507,-638.755 L -4.62889,-638.524 L -5.17912,-638.222
 L -5.68712,-637.853 L -6.14484,-637.423 L -6.54507,-636.939 L -6.88153,-636.409 L -7.14888,-635.841 L -7.34291,-635.243
 L -7.46057,-634.627 L -7.5,-634 L -7.5,-554 L -7.46057,-553.373 L -7.34291,-552.757 L -7.14888,-552.159
 L -6.88153,-551.591 L -6.54507,-551.061 L -6.14484,-550.577 L -5.68712,-550.147 L -5.17912,-549.778 L -4.62889,-549.476
 L -4.04507,-549.245 L -3.4369,-549.089 L -2.81395,-549.01 L 2.81395,-549.01 z
M -2.19545,-551.393 L -2.5833,-551.442 L -2.96194,-551.539 L -3.32541,-551.683 L -3.66798,-551.872 L -3.98424,-552.101
 L -4.26921,-552.369 L -4.5184,-552.67 L -4.72786,-553 L -4.89432,-553.354 L -5.01512,-553.726 L -5.08836,-554.11
 L -5.11292,-554.5 L -5.11292,-633.5 L -5.08836,-633.89 L -5.01512,-634.274 L -4.89432,-634.646 L -4.72786,-635
 L -4.5184,-635.33 L -4.26921,-635.631 L -3.98424,-635.899 L -3.66798,-636.128 L -3.32541,-636.317 L -2.96194,-636.461
 L -2.5833,-636.558 L -2.19545,-636.607 L 2.19545,-636.607 L 2.5833,-636.558 L 2.96194,-636.461 L 3.32541,-636.317
 L 3.66798,-636.128 L 3.98424,-635.899 L 4.26921,-635.631 L 4.5184,-635.33 L 4.72786,-635 L 4.89432,-634.646
 L 5.01512,-634.274 L 5.08836,-633.89 L 5.11292,-633.5 L 5.11292,-554.5 L 5.08836,-554.11 L 5.01512,-553.726
 L 4.89432,-553.354 L 4.72786,-553 L 4.5184,-552.67 L 4.26921,-552.369 L 3.98424,-552.101 L 3.66798,-551.872
 L 3.32541,-551.683 L 2.96194,-551.539 L 2.5833,-551.442 L 2.19545,-551.393 z
M 3.4369,-450.089 L 4.04507,-450.245 L 4.62889,-450.476 L 5.17912,-450.778 L 5.68712,-451.147 L 6.14484,-451.577
 L 6.54507,-452.061 L 6.88153,-452.591 L 7.14888,-453.159 L 7.34291,-453.757 L 7.46057,-454.373 L 7.5,-455
 L 7.5,-535 L 7.46057,-535.627 L 7.34291,-536.243 L 7.14888,-536.841 L 6.88153,-537.409 L 6.54507,-537.939
 L 6.14484,-538.423 L 5.68712,-538.853 L 5.17912,-539.222 L 4.62889,-539.524 L 4.04507,-539.755 L 3.4369,-539.911
 L 2.81395,-539.99 L -2.81395,-539.99 L -3.4369,-539.911 L -4.04507,-539.755 L -4.62889,-539.524 L -5.17912,-539.222
 L -5.68712,-538.853 L -6.14484,-538.423 L -6.54507,-537.939 L -6.88153,-537.409 L -7.14888,-536.841 L -7.34291,-536.243
 L -7.46057,-535.627 L -7.5,-535 L -7.5,-455 L -7.46057,-454.373 L -7.34291,-453.757 L -7.14888,-453.159
 L -6.88153,-452.591 L -6.54507,-452.061 L -6.14484,-451.577 L -5.68712,-451.147 L -5.17912,-450.778 L -4.62889,-450.476
 L -4.04507,-450.245 L -3.4369,-450.089 L -2.81395,-450.01 L 2.81395,-450.01 z
M -0.134064,-530.369 L -0.400101,-530.403 L -0.659836,-530.469 L -0.909149,-530.568 L -1.14413,-530.697 L -1.36108,-530.855
 L -1.55655,-531.038 L -1.72748,-531.245 L -1.87117,-531.471 L -1.98534,-531.714 L -2.06821,-531.969 L -2.11845,-532.232
 L -2.13528,-532.5 L -2.11845,-532.768 L -2.06821,-533.031 L -1.98534,-533.286 L -1.87117,-533.529 L -1.72748,-533.755
 L -1.55655,-533.962 L -1.36108,-534.145 L -1.14413,-534.303 L -0.909149,-534.432 L -0.659836,-534.531 L -0.400101,-534.597
 L -0.134064,-534.631 L 0.134064,-534.631 L 0.400101,-534.597 L 0.659836,-534.531 L 0.909149,-534.432 L 1.14413,-534.303
 L 1.36108,-534.145 L 1.55655,-533.962 L 1.72748,-533.755 L 1.87117,-533.529 L 1.98534,-533.286 L 2.06821,-533.031
 L 2.11845,-532.768 L 2.13528,-532.5 L 2.11845,-532.232 L 2.06821,-531.969 L 1.98534,-531.714 L 1.87117,-531.471
 L 1.72748,-531.245 L 1.55655,-531.038 L 1.36108,-530.855 L 1.14413,-530.697 L 0.909149,-530.568 L 0.659836,-530.469
 L 0.400101,-530.403 L 0.134064,-530.369 z
M -0.134064,-455.369 L -0.400101,-455.403 L -0.659836,-455.469 L -0.909149,-455.568 L -1.14413,-455.697 L -1.36108,-455.855
 L -1.55655,-456.038 L -1.72748,-456.245 L -1.87117,-456.471 L -1.98534,-456.714 L -2.06821,-456.969 L -2.11845,-457.232
 L -2.13528,-457.5 L -2.11845,-457.768 L -2.06821,-458.031 L -1.98534,-458.286 L -1.87117,-458.529 L -1.72748,-458.755
 L -1.55655,-458.962 L -1.36108,-459.145 L -1.14413,-459.303 L -0.909149,-459.432 L -0.659836,-459.531 L -0.400101,-459.597
 L -0.134064,-459.631 L 0.134064,-459.631 L 0.400101,-459.597 L 0.659836,-459.531 L 0.909149,-459.432 L 1.14413,-459.303
 L 1.36108,-459.145 L 1.55655,-458.962 L 1.72748,-458.755 L 1.87117,-458.529 L 1.98534,-458.286 L 2.06821,-458.031
 L 2.11845,-457.768 L 2.13528,-457.5 L 2.11845,-457.232 L 2.06821,-456.969 L 1.98534,-456.714 L 1.87117,-456.471
 L 1.72748,-456.245 L 1.55655,-456.038 L 1.36108,-455.855 L 1.14413,-455.697 L 0.909149,-455.568 L 0.659836,-455.469
 L 0.400101,-455.403 L 0.134064,-455.369 z
" stroke="black" fill="lightgray" stroke-width="0.5"/>
</svg>
