  0
SECTION
  2
BLOCKS
  0
ENDSEC
  0
SECTION
  2
ENTITIES
  0
LINE
  8
0
 10
25.9369
 20
180.089
 11
26.5451
 21
180.245
  0
LINE
  8
0
 10
26.5451
 20
180.245
 11
27.1289
 21
180.476
  0
LINE
  8
0
 10
27.1289
 20
180.476
 11
27.6791
 21
180.778
  0
LINE
  8
0
 10
27.6791
 20
180.778
 11
28.1871
 21
181.147
  0
LINE
  8
0
 10
28.1871
 20
181.147
 11
28.6448
 21
181.577
  0
LINE
  8
0
 10
28.6448
 20
181.577
 11
29.0451
 21
182.061
  0
LINE
  8
0
 10
29.0451
 20
182.061
 11
29.3815
 21
182.591
  0
LINE
  8
0
 10
29.3815
 20
182.591
 11
29.6489
 21
183.159
  0
LINE
  8
0
 10
29.6489
 20
183.159
 11
29.8429
 21
183.757
  0
LINE
  8
0
 10
29.8429
 20
183.757
 11
29.9606
 21
184.373
  0
LINE
  8
0
 10
29.9606
 20
184.373
 11
30
 21
185
  0
LINE
  8
0
 10
30
 20
185
 11
30
 21
205
  0
LINE
  8
0
 10
30
 20
205
 11
29.9606
 21
205.627
  0
LINE
  8
0
 10
29.9606
 20
205.627
 11
29.8429
 21
206.243
  0
LINE
  8
0
 10
29.8429
 20
206.243
 11
29.6489
 21
206.841
  0
LINE
  8
0
 10
29.6489
 20
206.841
 11
29.3815
 21
207.409
  0
LINE
  8
0
 10
29.3815
 20
207.409
 11
29.0451
 21
207.939
  0
LINE
  8
0
 10
29.0451
 20
207.939
 11
28.6448
 21
208.423
  0
LINE
  8
0
 10
28.6448
 20
208.423
 11
28.1871
 21
208.853
  0
LINE
  8
0
 10
28.1871
 20
208.853
 11
27.6791
 21
209.222
  0
LINE
  8
0
 10
27.6791
 20
209.222
 11
27.1289
 21
209.524
  0
LINE
  8
0
 10
27.1289
 20
209.524
 11
26.5451
 21
209.755
  0
LINE
  8
0
 10
26.5451
 20
209.755
 11
25.9369
 21
209.911
  0
LINE
  8
0
 10
25.9369
 20
209.911
 11
25.3139
 21
209.99
  0
LINE
  8
0
 10
25.3139
 20
209.99
 11
-25.3139
 21
209.99
  0
LINE
  8
0
 10
-25.3139
 20
209.99
 11
-25.9369
 21
209.911
  0
LINE
  8
0
 10
-25.9369
 20
209.911
 11
-26.5451
 21
209.755
  0
LINE
  8
0
 10
-26.5451
 20
209.755
 11
-27.1289
 21
209.524
  0
LINE
  8
0
 10
-27.1289
 20
209.524
 11
-27.6791
 21
209.222
  0
LINE
  8
0
 10
-27.6791
 20
209.222
 11
-28.1871
 21
208.853
  0
LINE
  8
0
 10
-28.1871
 20
208.853
 11
-28.6448
 21
208.423
  0
LINE
  8
0
 10
-28.6448
 20
208.423
 11
-29.0451
 21
207.939
  0
LINE
  8
0
 10
-29.0451
 20
207.939
 11
-29.3815
 21
207.409
  0
LINE
  8
0
 10
-29.3815
 20
207.409
 11
-29.6489
 21
206.841
  0
LINE
  8
0
 10
-29.6489
 20
206.841
 11
-29.8429
 21
206.243
  0
LINE
  8
0
 10
-29.8429
 20
206.243
 11
-29.9606
 21
205.627
  0
LINE
  8
0
 10
-29.9606
 20
205.627
 11
-30
 21
205
  0
LINE
  8
0
 10
-30
 20
205
 11
-30
 21
185
  0
LINE
  8
0
 10
-30
 20
185
 11
-29.9606
 21
184.373
  0
LINE
  8
0
 10
-29.9606
 20
184.373
 11
-29.8429
 21
183.757
  0
LINE
  8
0
 10
-29.8429
 20
183.757
 11
-29.6489
 21
183.159
  0
LINE
  8
0
 10
-29.6489
 20
183.159
 11
-29.3815
 21
182.591
  0
LINE
  8
0
 10
-29.3815
 20
182.591
 11
-29.0451
 21
182.061
  0
LINE
  8
0
 10
-29.0451
 20
182.061
 11
-28.6448
 21
181.577
  0
LINE
  8
0
 10
-28.6448
 20
181.577
 11
-28.1871
 21
181.147
  0
LINE
  8
0
 10
-28.1871
 20
181.147
 11
-27.6791
 21
180.778
  0
LINE
  8
0
 10
-27.6791
 20
180.778
 11
-27.1289
 21
180.476
  0
LINE
  8
0
 10
-27.1289
 20
180.476
 11
-26.5451
 21
180.245
  0
LINE
  8
0
 10
-26.5451
 20
180.245
 11
-25.9369
 21
180.089
  0
LINE
  8
0
 10
-25.9369
 20
180.089
 11
-25.3139
 21
180.01
  0
LINE
  8
0
 10
-25.3139
 20
180.01
 11
25.3139
 21
180.01
  0
LINE
  8
0
 10
25.3139
 20
180.01
 11
25.9369
 21
180.089
  0
LINE
  8
0
 10
-25.0482
 20
180.509
 11
-25.6401
 21
180.584
  0
LINE
  8
0
 10
-25.6401
 20
180.584
 11
-26.2178
 21
180.732
  0
LINE
  8
0
 10
-26.2178
 20
180.732
 11
-26.7724
 21
180.952
  0
LINE
  8
0
 10
-26.7724
 20
180.952
 11
-27.2952
 21
181.239
  0
LINE
  8
0
 10
-27.2952
 20
181.239
 11
-27.7778
 21
181.59
  0
LINE
  8
0
 10
-27.7778
 20
181.59
 11
-28.2126
 21
181.998
  0
LINE
  8
0
 10
-28.2126
 20
181.998
 11
-28.5928
 21
182.458
  0
LINE
  8
0
 10
-28.5928
 20
182.458
 11
-28.9124
 21
182.962
  0
LINE
  8
0
 10
-28.9124
 20
182.962
 11
-29.1664
 21
183.501
  0
LINE
  8
0
 10
-29.1664
 20
183.501
 11
-29.3508
 21
184.069
  0
LINE
  8
0
 10
-29.3508
 20
184.069
 11
-29.4625
 21
184.655
  0
LINE
  8
0
 10
-29.4625
 20
184.655
 11
-29.5
 21
185.25
  0
LINE
  8
0
 10
-29.5
 20
185.25
 11
-29.5
 21
204.75
  0
LINE
  8
0
 10
-29.5
 20
204.75
 11
-29.4625
 21
205.345
  0
LINE
  8
0
 10
-29.4625
 20
205.345
 11
-29.3508
 21
205.931
  0
LINE
  8
0
 10
-29.3508
 20
205.931
 11
-29.1664
 21
206.499
  0
LINE
  8
0
 10
-29.1664
 20
206.499
 11
-28.9124
 21
207.038
  0
LINE
  8
0
 10
-28.9124
 20
207.038
 11
-28.5928
 21
207.542
  0
LINE
  8
0
 10
-28.5928
 20
207.542
 11
-28.2126
 21
208.002
  0
LINE
  8
0
 10
-28.2126
 20
208.002
 11
-27.7778
 21
208.41
  0
LINE
  8
0
 10
-27.7778
 20
208.41
 11
-27.2952
 21
208.761
  0
LINE
  8
0
 10
-27.2952
 20
208.761
 11
-26.7724
 21
209.048
  0
LINE
  8
0
 10
-26.7724
 20
209.048
 11
-26.2178
 21
209.268
  0
LINE
  8
0
 10
-26.2178
 20
209.268
 11
-25.6401
 21
209.416
  0
LINE
  8
0
 10
-25.6401
 20
209.416
 11
-25.0482
 21
209.491
  0
LINE
  8
0
 10
-25.0482
 20
209.491
 11
25.0482
 21
209.491
  0
LINE
  8
0
 10
25.0482
 20
209.491
 11
25.6401
 21
209.416
  0
LINE
  8
0
 10
25.6401
 20
209.416
 11
26.2178
 21
209.268
  0
LINE
  8
0
 10
26.2178
 20
209.268
 11
26.7724
 21
209.048
  0
LINE
  8
0
 10
26.7724
 20
209.048
 11
27.2952
 21
208.761
  0
LINE
  8
0
 10
27.2952
 20
208.761
 11
27.7778
 21
208.41
  0
LINE
  8
0
 10
27.7778
 20
208.41
 11
28.2126
 21
208.002
  0
LINE
  8
0
 10
28.2126
 20
208.002
 11
28.5928
 21
207.542
  0
LINE
  8
0
 10
28.5928
 20
207.542
 11
28.9124
 21
207.038
  0
LINE
  8
0
 10
28.9124
 20
207.038
 11
29.1664
 21
206.499
  0
LINE
  8
0
 10
29.1664
 20
206.499
 11
29.3508
 21
205.931
  0
LINE
  8
0
 10
29.3508
 20
205.931
 11
29.4625
 21
205.345
  0
LINE
  8
0
 10
29.4625
 20
205.345
 11
29.5
 21
204.75
  0
LINE
  8
0
 10
29.5
 20
204.75
 11
29.5
 21
185.25
  0
LINE
  8
0
 10
29.5
 20
185.25
 11
29.4625
 21
184.655
  0
LINE
  8
0
 10
29.4625
 20
184.655
 11
29.3508
 21
184.069
  0
LINE
  8
0
 10
29.3508
 20
184.069
 11
29.1664
 21
183.501
  0
LINE
  8
0
 10
29.1664
 20
183.501
 11
28.9124
 21
182.962
  0
LINE
  8
0
 10
28.9124
 20
182.962
 11
28.5928
 21
182.458
  0
LINE
  8
0
 10
28.5928
 20
182.458
 11
28.2126
 21
181.998
  0
LINE
  8
0
 10
28.2126
 20
181.998
 11
27.7778
 21
181.59
  0
LINE
  8
0
 10
27.7778
 20
181.59
 11
27.2952
 21
181.239
  0
LINE
  8
0
 10
27.2952
 20
181.239
 11
26.7724
 21
180.952
  0
LINE
  8
0
 10
26.7724
 20
180.952
 11
26.2178
 21
180.732
  0
LINE
  8
0
 10
26.2178
 20
180.732
 11
25.6401
 21
180.584
  0
LINE
  8
0
 10
25.6401
 20
180.584
 11
25.0482
 21
180.509
  0
LINE
  8
0
 10
25.0482
 20
180.509
 11
-25.0482
 21
180.509
  0
LINE
  8
0
 10
25.9369
 20
141.089
 11
26.5451
 21
141.245
  0
LINE
  8
0
 10
26.5451
 20
141.245
 11
27.1289
 21
141.476
  0
LINE
  8
0
 10
27.1289
 20
141.476
 11
27.6791
 21
141.778
  0
LINE
  8
0
 10
27.6791
 20
141.778
 11
28.1871
 21
142.147
  0
LINE
  8
0
 10
28.1871
 20
142.147
 11
28.6448
 21
142.577
  0
LINE
  8
0
 10
28.6448
 20
142.577
 11
29.0451
 21
143.061
  0
LINE
  8
0
 10
29.0451
 20
143.061
 11
29.3815
 21
143.591
  0
LINE
  8
0
 10
29.3815
 20
143.591
 11
29.6489
 21
144.159
  0
LINE
  8
0
 10
29.6489
 20
144.159
 11
29.8429
 21
144.757
  0
LINE
  8
0
 10
29.8429
 20
144.757
 11
29.9606
 21
145.373
  0
LINE
  8
0
 10
29.9606
 20
145.373
 11
30
 21
146
  0
LINE
  8
0
 10
30
 20
146
 11
30
 21
166
  0
LINE
  8
0
 10
30
 20
166
 11
29.9606
 21
166.627
  0
LINE
  8
0
 10
29.9606
 20
166.627
 11
29.8429
 21
167.243
  0
LINE
  8
0
 10
29.8429
 20
167.243
 11
29.6489
 21
167.841
  0
LINE
  8
0
 10
29.6489
 20
167.841
 11
29.3815
 21
168.409
  0
LINE
  8
0
 10
29.3815
 20
168.409
 11
29.0451
 21
168.939
  0
LINE
  8
0
 10
29.0451
 20
168.939
 11
28.6448
 21
169.423
  0
LINE
  8
0
 10
28.6448
 20
169.423
 11
28.1871
 21
169.853
  0
LINE
  8
0
 10
28.1871
 20
169.853
 11
27.6791
 21
170.222
  0
LINE
  8
0
 10
27.6791
 20
170.222
 11
27.1289
 21
170.524
  0
LINE
  8
0
 10
27.1289
 20
170.524
 11
26.5451
 21
170.755
  0
LINE
  8
0
 10
26.5451
 20
170.755
 11
25.9369
 21
170.911
  0
LINE
  8
0
 10
25.9369
 20
170.911
 11
25.3139
 21
170.99
  0
LINE
  8
0
 10
25.3139
 20
170.99
 11
-25.3139
 21
170.99
  0
LINE
  8
0
 10
-25.3139
 20
170.99
 11
-25.9369
 21
170.911
  0
LINE
  8
0
 10
-25.9369
 20
170.911
 11
-26.5451
 21
170.755
  0
LINE
  8
0
 10
-26.5451
 20
170.755
 11
-27.1289
 21
170.524
  0
LINE
  8
0
 10
-27.1289
 20
170.524
 11
-27.6791
 21
170.222
  0
LINE
  8
0
 10
-27.6791
 20
170.222
 11
-28.1871
 21
169.853
  0
LINE
  8
0
 10
-28.1871
 20
169.853
 11
-28.6448
 21
169.423
  0
LINE
  8
0
 10
-28.6448
 20
169.423
 11
-29.0451
 21
168.939
  0
LINE
  8
0
 10
-29.0451
 20
168.939
 11
-29.3815
 21
168.409
  0
LINE
  8
0
 10
-29.3815
 20
168.409
 11
-29.6489
 21
167.841
  0
LINE
  8
0
 10
-29.6489
 20
167.841
 11
-29.8429
 21
167.243
  0
LINE
  8
0
 10
-29.8429
 20
167.243
 11
-29.9606
 21
166.627
  0
LINE
  8
0
 10
-29.9606
 20
166.627
 11
-30
 21
166
  0
LINE
  8
0
 10
-30
 20
166
 11
-30
 21
146
  0
LINE
  8
0
 10
-30
 20
146
 11
-29.9606
 21
145.373
  0
LINE
  8
0
 10
-29.9606
 20
145.373
 11
-29.8429
 21
144.757
  0
LINE
  8
0
 10
-29.8429
 20
144.757
 11
-29.6489
 21
144.159
  0
LINE
  8
0
 10
-29.6489
 20
144.159
 11
-29.3815
 21
143.591
  0
LINE
  8
0
 10
-29.3815
 20
143.591
 11
-29.0451
 21
143.061
  0
LINE
  8
0
 10
-29.0451
 20
143.061
 11
-28.6448
 21
142.577
  0
LINE
  8
0
 10
-28.6448
 20
142.577
 11
-28.1871
 21
142.147
  0
LINE
  8
0
 10
-28.1871
 20
142.147
 11
-27.6791
 21
141.778
  0
LINE
  8
0
 10
-27.6791
 20
141.778
 11
-27.1289
 21
141.476
  0
LINE
  8
0
 10
-27.1289
 20
141.476
 11
-26.5451
 21
141.245
  0
LINE
  8
0
 10
-26.5451
 20
141.245
 11
-25.9369
 21
141.089
  0
LINE
  8
0
 10
-25.9369
 20
141.089
 11
-25.3139
 21
141.01
  0
LINE
  8
0
 10
-25.3139
 20
141.01
 11
25.3139
 21
141.01
  0
LINE
  8
0
 10
25.3139
 20
141.01
 11
25.9369
 21
141.089
  0
LINE
  8
0
 10
-25.0375
 20
141.681
 11
-25.6079
 21
141.753
  0
LINE
  8
0
 10
-25.6079
 20
141.753
 11
-26.1648
 21
141.896
  0
LINE
  8
0
 10
-26.1648
 20
141.896
 11
-26.6994
 21
142.107
  0
LINE
  8
0
 10
-26.6994
 20
142.107
 11
-27.2032
 21
142.384
  0
LINE
  8
0
 10
-27.2032
 20
142.384
 11
-27.6684
 21
142.722
  0
LINE
  8
0
 10
-27.6684
 20
142.722
 11
-28.0875
 21
143.116
  0
LINE
  8
0
 10
-28.0875
 20
143.116
 11
-28.454
 21
143.559
  0
LINE
  8
0
 10
-28.454
 20
143.559
 11
-28.7621
 21
144.044
  0
LINE
  8
0
 10
-28.7621
 20
144.044
 11
-29.0069
 21
144.565
  0
LINE
  8
0
 10
-29.0069
 20
144.565
 11
-29.1846
 21
145.111
  0
LINE
  8
0
 10
-29.1846
 20
145.111
 11
-29.2923
 21
145.676
  0
LINE
  8
0
 10
-29.2923
 20
145.676
 11
-29.3284
 21
146.25
  0
LINE
  8
0
 10
-29.3284
 20
146.25
 11
-29.3284
 21
165.75
  0
LINE
  8
0
 10
-29.3284
 20
165.75
 11
-29.2923
 21
166.324
  0
LINE
  8
0
 10
-29.2923
 20
166.324
 11
-29.1846
 21
166.889
  0
LINE
  8
0
 10
-29.1846
 20
166.889
 11
-29.0069
 21
167.435
  0
LINE
  8
0
 10
-29.0069
 20
167.435
 11
-28.7621
 21
167.956
  0
LINE
  8
0
 10
-28.7621
 20
167.956
 11
-28.454
 21
168.441
  0
LINE
  8
0
 10
-28.454
 20
168.441
 11
-28.0875
 21
168.884
  0
LINE
  8
0
 10
-28.0875
 20
168.884
 11
-27.6684
 21
169.278
  0
LINE
  8
0
 10
-27.6684
 20
169.278
 11
-27.2032
 21
169.616
  0
LINE
  8
0
 10
-27.2032
 20
169.616
 11
-26.6994
 21
169.893
  0
LINE
  8
0
 10
-26.6994
 20
169.893
 11
-26.1648
 21
170.104
  0
LINE
  8
0
 10
-26.1648
 20
170.104
 11
-25.6079
 21
170.247
  0
LINE
  8
0
 10
-25.6079
 20
170.247
 11
-25.0375
 21
170.319
  0
LINE
  8
0
 10
-25.0375
 20
170.319
 11
25.0375
 21
170.319
  0
LINE
  8
0
 10
25.0375
 20
170.319
 11
25.6079
 21
170.247
  0
LINE
  8
0
 10
25.6079
 20
170.247
 11
26.1648
 21
170.104
  0
LINE
  8
0
 10
26.1648
 20
170.104
 11
26.6994
 21
169.893
  0
LINE
  8
0
 10
26.6994
 20
169.893
 11
27.2032
 21
169.616
  0
LINE
  8
0
 10
27.2032
 20
169.616
 11
27.6684
 21
169.278
  0
LINE
  8
0
 10
27.6684
 20
169.278
 11
28.0875
 21
168.884
  0
LINE
  8
0
 10
28.0875
 20
168.884
 11
28.454
 21
168.441
  0
LINE
  8
0
 10
28.454
 20
168.441
 11
28.7621
 21
167.956
  0
LINE
  8
0
 10
28.7621
 20
167.956
 11
29.0069
 21
167.435
  0
LINE
  8
0
 10
29.0069
 20
167.435
 11
29.1846
 21
166.889
  0
LINE
  8
0
 10
29.1846
 20
166.889
 11
29.2923
 21
166.324
  0
LINE
  8
0
 10
29.2923
 20
166.324
 11
29.3284
 21
165.75
  0
LINE
  8
0
 10
29.3284
 20
165.75
 11
29.3284
 21
146.25
  0
LINE
  8
0
 10
29.3284
 20
146.25
 11
29.2923
 21
145.676
  0
LINE
  8
0
 10
29.2923
 20
145.676
 11
29.1846
 21
145.111
  0
LINE
  8
0
 10
29.1846
 20
145.111
 11
29.0069
 21
144.565
  0
LINE
  8
0
 10
29.0069
 20
144.565
 11
28.7621
 21
144.044
  0
LINE
  8
0
 10
28.7621
 20
144.044
 11
28.454
 21
143.559
  0
LINE
  8
0
 10
28.454
 20
143.559
 11
28.0875
 21
143.116
  0
LINE
  8
0
 10
28.0875
 20
143.116
 11
27.6684
 21
142.722
  0
LINE
  8
0
 10
27.6684
 20
142.722
 11
27.2032
 21
142.384
  0
LINE
  8
0
 10
27.2032
 20
142.384
 11
26.6994
 21
142.107
  0
LINE
  8
0
 10
26.6994
 20
142.107
 11
26.1648
 21
141.896
  0
LINE
  8
0
 10
26.1648
 20
141.896
 11
25.6079
 21
141.753
  0
LINE
  8
0
 10
25.6079
 20
141.753
 11
25.0375
 21
141.681
  0
LINE
  8
0
 10
25.0375
 20
141.681
 11
-25.0375
 21
141.681
  0
LINE
  8
0
 10
25.9369
 20
102.089
 11
26.5451
 21
102.245
  0
LINE
  8
0
 10
26.5451
 20
102.245
 11
27.1289
 21
102.476
  0
LINE
  8
0
 10
27.1289
 20
102.476
 11
27.6791
 21
102.778
  0
LINE
  8
0
 10
27.6791
 20
102.778
 11
28.1871
 21
103.147
  0
LINE
  8
0
 10
28.1871
 20
103.147
 11
28.6448
 21
103.577
  0
LINE
  8
0
 10
28.6448
 20
103.577
 11
29.0451
 21
104.061
  0
LINE
  8
0
 10
29.0451
 20
104.061
 11
29.3815
 21
104.591
  0
LINE
  8
0
 10
29.3815
 20
104.591
 11
29.6489
 21
105.159
  0
LINE
  8
0
 10
29.6489
 20
105.159
 11
29.8429
 21
105.757
  0
LINE
  8
0
 10
29.8429
 20
105.757
 11
29.9606
 21
106.373
  0
LINE
  8
0
 10
29.9606
 20
106.373
 11
30
 21
107
  0
LINE
  8
0
 10
30
 20
107
 11
30
 21
127
  0
LINE
  8
0
 10
30
 20
127
 11
29.9606
 21
127.627
  0
LINE
  8
0
 10
29.9606
 20
127.627
 11
29.8429
 21
128.243
  0
LINE
  8
0
 10
29.8429
 20
128.243
 11
29.6489
 21
128.841
  0
LINE
  8
0
 10
29.6489
 20
128.841
 11
29.3815
 21
129.409
  0
LINE
  8
0
 10
29.3815
 20
129.409
 11
29.0451
 21
129.939
  0
LINE
  8
0
 10
29.0451
 20
129.939
 11
28.6448
 21
130.423
  0
LINE
  8
0
 10
28.6448
 20
130.423
 11
28.1871
 21
130.853
  0
LINE
  8
0
 10
28.1871
 20
130.853
 11
27.6791
 21
131.222
  0
LINE
  8
0
 10
27.6791
 20
131.222
 11
27.1289
 21
131.524
  0
LINE
  8
0
 10
27.1289
 20
131.524
 11
26.5451
 21
131.755
  0
LINE
  8
0
 10
26.5451
 20
131.755
 11
25.9369
 21
131.911
  0
LINE
  8
0
 10
25.9369
 20
131.911
 11
25.3139
 21
131.99
  0
LINE
  8
0
 10
25.3139
 20
131.99
 11
-25.3139
 21
131.99
  0
LINE
  8
0
 10
-25.3139
 20
131.99
 11
-25.9369
 21
131.911
  0
LINE
  8
0
 10
-25.9369
 20
131.911
 11
-26.5451
 21
131.755
  0
LINE
  8
0
 10
-26.5451
 20
131.755
 11
-27.1289
 21
131.524
  0
LINE
  8
0
 10
-27.1289
 20
131.524
 11
-27.6791
 21
131.222
  0
LINE
  8
0
 10
-27.6791
 20
131.222
 11
-28.1871
 21
130.853
  0
LINE
  8
0
 10
-28.1871
 20
130.853
 11
-28.6448
 21
130.423
  0
LINE
  8
0
 10
-28.6448
 20
130.423
 11
-29.0451
 21
129.939
  0
LINE
  8
0
 10
-29.0451
 20
129.939
 11
-29.3815
 21
129.409
  0
LINE
  8
0
 10
-29.3815
 20
129.409
 11
-29.6489
 21
128.841
  0
LINE
  8
0
 10
-29.6489
 20
128.841
 11
-29.8429
 21
128.243
  0
LINE
  8
0
 10
-29.8429
 20
128.243
 11
-29.9606
 21
127.627
  0
LINE
  8
0
 10
-29.9606
 20
127.627
 11
-30
 21
127
  0
LINE
  8
0
 10
-30
 20
127
 11
-30
 21
107
  0
LINE
  8
0
 10
-30
 20
107
 11
-29.9606
 21
106.373
  0
LINE
  8
0
 10
-29.9606
 20
106.373
 11
-29.8429
 21
105.757
  0
LINE
  8
0
 10
-29.8429
 20
105.757
 11
-29.6489
 21
105.159
  0
LINE
  8
0
 10
-29.6489
 20
105.159
 11
-29.3815
 21
104.591
  0
LINE
  8
0
 10
-29.3815
 20
104.591
 11
-29.0451
 21
104.061
  0
LINE
  8
0
 10
-29.0451
 20
104.061
 11
-28.6448
 21
103.577
  0
LINE
  8
0
 10
-28.6448
 20
103.577
 11
-28.1871
 21
103.147
  0
LINE
  8
0
 10
-28.1871
 20
103.147
 11
-27.6791
 21
102.778
  0
LINE
  8
0
 10
-27.6791
 20
102.778
 11
-27.1289
 21
102.476
  0
LINE
  8
0
 10
-27.1289
 20
102.476
 11
-26.5451
 21
102.245
  0
LINE
  8
0
 10
-26.5451
 20
102.245
 11
-25.9369
 21
102.089
  0
LINE
  8
0
 10
-25.9369
 20
102.089
 11
-25.3139
 21
102.01
  0
LINE
  8
0
 10
-25.3139
 20
102.01
 11
25.3139
 21
102.01
  0
LINE
  8
0
 10
25.3139
 20
102.01
 11
25.9369
 21
102.089
  0
LINE
  8
0
 10
-24.8825
 20
105.145
 11
-25.1453
 21
105.178
  0
LINE
  8
0
 10
-25.1453
 20
105.178
 11
-25.4019
 21
105.244
  0
LINE
  8
0
 10
-25.4019
 20
105.244
 11
-25.6482
 21
105.341
  0
LINE
  8
0
 10
-25.6482
 20
105.341
 11
-25.8804
 21
105.469
  0
LINE
  8
0
 10
-25.8804
 20
105.469
 11
-26.0947
 21
105.625
  0
LINE
  8
0
 10
-26.0947
 20
105.625
 11
-26.2879
 21
105.806
  0
LINE
  8
0
 10
-26.2879
 20
105.806
 11
-26.4567
 21
106.01
  0
LINE
  8
0
 10
-26.4567
 20
106.01
 11
-26.5987
 21
106.234
  0
LINE
  8
0
 10
-26.5987
 20
106.234
 11
-26.7115
 21
106.473
  0
LINE
  8
0
 10
-26.7115
 20
106.473
 11
-26.7934
 21
106.725
  0
LINE
  8
0
 10
-26.7934
 20
106.725
 11
-26.843
 21
106.986
  0
LINE
  8
0
 10
-26.843
 20
106.986
 11
-26.8596
 21
107.25
  0
LINE
  8
0
 10
-26.8596
 20
107.25
 11
-26.8596
 21
126.75
  0
LINE
  8
0
 10
-26.8596
 20
126.75
 11
-26.843
 21
127.014
  0
LINE
  8
0
 10
-26.843
 20
127.014
 11
-26.7934
 21
127.275
  0
LINE
  8
0
 10
-26.7934
 20
127.275
 11
-26.7115
 21
127.527
  0
LINE
  8
0
 10
-26.7115
 20
127.527
 11
-26.5987
 21
127.766
  0
LINE
  8
0
 10
-26.5987
 20
127.766
 11
-26.4567
 21
127.99
  0
LINE
  8
0
 10
-26.4567
 20
127.99
 11
-26.2879
 21
128.194
  0
LINE
  8
0
 10
-26.2879
 20
128.194
 11
-26.0947
 21
128.375
  0
LINE
  8
0
 10
-26.0947
 20
128.375
 11
-25.8804
 21
128.531
  0
LINE
  8
0
 10
-25.8804
 20
128.531
 11
-25.6482
 21
128.659
  0
LINE
  8
0
 10
-25.6482
 20
128.659
 11
-25.4019
 21
128.756
  0
LINE
  8
0
 10
-25.4019
 20
128.756
 11
-25.1453
 21
128.822
  0
LINE
  8
0
 10
-25.1453
 20
128.822
 11
-24.8825
 21
128.855
  0
LINE
  8
0
 10
-24.8825
 20
128.855
 11
24.8825
 21
128.855
  0
LINE
  8
0
 10
24.8825
 20
128.855
 11
25.1453
 21
128.822
  0
LINE
  8
0
 10
25.1453
 20
128.822
 11
25.4019
 21
128.756
  0
LINE
  8
0
 10
25.4019
 20
128.756
 11
25.6482
 21
128.659
  0
LINE
  8
0
 10
25.6482
 20
128.659
 11
25.8804
 21
128.531
  0
LINE
  8
0
 10
25.8804
 20
128.531
 11
26.0947
 21
128.375
  0
LINE
  8
0
 10
26.0947
 20
128.375
 11
26.2879
 21
128.194
  0
LINE
  8
0
 10
26.2879
 20
128.194
 11
26.4567
 21
127.99
  0
LINE
  8
0
 10
26.4567
 20
127.99
 11
26.5987
 21
127.766
  0
LINE
  8
0
 10
26.5987
 20
127.766
 11
26.7115
 21
127.527
  0
LINE
  8
0
 10
26.7115
 20
127.527
 11
26.7934
 21
127.275
  0
LINE
  8
0
 10
26.7934
 20
127.275
 11
26.843
 21
127.014
  0
LINE
  8
0
 10
26.843
 20
127.014
 11
26.8596
 21
126.75
  0
LINE
  8
0
 10
26.8596
 20
126.75
 11
26.8596
 21
107.25
  0
LINE
  8
0
 10
26.8596
 20
107.25
 11
26.843
 21
106.986
  0
LINE
  8
0
 10
26.843
 20
106.986
 11
26.7934
 21
106.725
  0
LINE
  8
0
 10
26.7934
 20
106.725
 11
26.7115
 21
106.473
  0
LINE
  8
0
 10
26.7115
 20
106.473
 11
26.5987
 21
106.234
  0
LINE
  8
0
 10
26.5987
 20
106.234
 11
26.4567
 21
106.01
  0
LINE
  8
0
 10
26.4567
 20
106.01
 11
26.2879
 21
105.806
  0
LINE
  8
0
 10
26.2879
 20
105.806
 11
26.0947
 21
105.625
  0
LINE
  8
0
 10
26.0947
 20
105.625
 11
25.8804
 21
105.469
  0
LINE
  8
0
 10
25.8804
 20
105.469
 11
25.6482
 21
105.341
  0
LINE
  8
0
 10
25.6482
 20
105.341
 11
25.4019
 21
105.244
  0
LINE
  8
0
 10
25.4019
 20
105.244
 11
25.1453
 21
105.178
  0
LINE
  8
0
 10
25.1453
 20
105.178
 11
24.8825
 21
105.145
  0
LINE
  8
0
 10
24.8825
 20
105.145
 11
-24.8825
 21
105.145
  0
ENDSEC
  0
SECTION
  2
OBJECTS
  0
DICTIONARY
  0
ENDSEC
  0
EOF
