<?xml version="1.0" standalone="no"?>
<!DOCTYPE svg PUBLIC "-//W3C//DTD SVG 1.1//EN" "http://www.w3.org/Graphics/SVG/1.1/DTD/svg11.dtd">
<svg width="32mm" height="64mm" viewBox="-17 -104 32 64" xmlns="http://www.w3.org/2000/svg" version="1.1">
<title>OpenSCAD Model</title>
<path d="
M -13.5,-89.9413 L -13.1871,-89.6474 L -12.6791,-89.2784 L -12.1289,-88.9759 L -11.5451,-88.7447 L -10.9369,-88.5886
 L -10.3139,-88.5099 L 10.3139,-88.5099 L 10.9369,-88.5886 L 11.5451,-88.7447 L 12.1289,-88.9759 L 12.6791,-89.2784
 L 13.1871,-89.6474 L 13.6448,-90.0773 L 14.0451,-90.5611 L 14.3815,-91.0912 L 14.6489,-91.6594 L 14.8429,-92.2566
 L 14.9606,-92.8733 L 15,-93.5 L 15,-98.5 L 14.9606,-99.1267 L 14.8429,-99.7434 L 14.6489,-100.341
 L 14.3815,-100.909 L 14.0451,-101.439 L 13.6448,-101.923 L 13.1871,-102.353 L 12.6791,-102.722 L 12.1289,-103.024
 L 11.5451,-103.255 L 10.9369,-103.411 L 10.3139,-103.49 L -10.3139,-103.49 L -10.9369,-103.411 L -11.5451,-103.255
 L -12.1289,-103.024 L -12.6791,-102.722 L -13.1871,-102.353 L -13.5,-102.059 L -13.5,-103.49 L -16.5,-103.49
 L -16.5,-88.5099 L -13.5,-88.5099 z
M -9.74316,-90.135 L -10.2256,-90.196 L -10.6967,-90.3169 L -11.1489,-90.4959 L -11.5751,-90.7302 L -11.9685,-91.0161
 L -12.323,-91.349 L -12.633,-91.7237 L -12.8936,-92.1344 L -13.1007,-92.5744 L -13.251,-93.0369 L -13.3421,-93.5146
 L -13.3726,-94 L -13.3726,-98 L -13.3421,-98.4854 L -13.251,-98.9631 L -13.1007,-99.4256 L -12.8936,-99.8656
 L -12.633,-100.276 L -12.323,-100.651 L -11.9685,-100.984 L -11.5751,-101.27 L -11.1489,-101.504 L -10.6967,-101.683
 L -10.2256,-101.804 L -9.74316,-101.865 L 9.74316,-101.865 L 10.2256,-101.804 L 10.6967,-101.683 L 11.1489,-101.504
 L 11.5751,-101.27 L 11.9685,-100.984 L 12.323,-100.651 L 12.633,-100.276 L 12.8936,-99.8656 L 13.1007,-99.4256
 L 13.251,-98.9631 L 13.3421,-98.4854 L 13.3726,-98 L 13.3726,-94 L 13.3421,-93.5146 L 13.251,-93.0369
 L 13.1007,-92.5744 L 12.8936,-92.1344 L 12.633,-91.7237 L 12.323,-91.349 L 11.9685,-91.0161 L 11.5751,-90.7302
 L 11.1489,-90.4959 L 10.6967,-90.3169 L 10.2256,-90.196 L 9.74316,-90.135 z
M 10.9369,-64.5886 L 11.5451,-64.7447 L 12.1289,-64.9759 L 12.6791,-65.2784 L 13.1871,-65.6474 L 13.6448,-66.0773
 L 14.0451,-66.5611 L 14.3815,-67.0912 L 14.6489,-67.6594 L 14.8429,-68.2566 L 14.9606,-68.8733 L 15,-69.5
 L 15,-74.5 L 14.9606,-75.1267 L 14.8429,-75.7434 L 14.6489,-76.3406 L 14.3815,-76.9088 L 14.0451,-77.4389
 L 13.6448,-77.9227 L 13.1871,-78.3526 L 12.6791,-78.7216 L 12.1289,-79.0241 L 11.5451,-79.2553 L 10.9369,-79.4114
 L 10.3139,-79.4901 L -10.3139,-79.4901 L -10.9369,-79.4114 L -11.5451,-79.2553 L -12.1289,-79.0241 L -12.6791,-78.7216
 L -13.1871,-78.3526 L -13.5,-78.0587 L -13.5,-79.1148 L -16.5,-79.1148 L -16.5,-64.8852 L -13.5,-64.8852
 L -13.5,-65.9413 L -13.1871,-65.6474 L -12.6791,-65.2784 L -12.1289,-64.9759 L -11.5451,-64.7447 L -10.9369,-64.5886
 L -10.3139,-64.5099 L 10.3139,-64.5099 z
M 10.9369,-40.5886 L 11.5451,-40.7447 L 12.1289,-40.9759 L 12.6791,-41.2784 L 13.1871,-41.6474 L 13.6448,-42.0773
 L 14.0451,-42.5611 L 14.3815,-43.0912 L 14.6489,-43.6594 L 14.8429,-44.2566 L 14.9606,-44.8733 L 15,-45.5
 L 15,-50.5 L 14.9606,-51.1267 L 14.8429,-51.7434 L 14.6489,-52.3406 L 14.3815,-52.9088 L 14.0451,-53.4389
 L 13.6448,-53.9227 L 13.1871,-54.3526 L 12.6791,-54.7216 L 12.1289,-55.0241 L 11.5451,-55.2553 L 10.9369,-55.4114
 L 10.3139,-55.4901 L -10.3139,-55.4901 L -10.9369,-55.4114 L -11.5451,-55.2553 L -12.1289,-55.0241 L -12.6791,-54.7216
 L -13.1871,-54.3526 L -13.6448,-53.9227 L -14.0451,-53.4389 L -14.3815,-52.9088 L -14.6489,-52.3406 L -14.8429,-51.7434
 L -14.9,-51.4442 L -16.5,-51.4442 L -16.5,-44.5558 L -14.9,-44.5558 L -14.8429,-44.2566 L -14.6489,-43.6594
 L -14.3815,-43.0912 L -14.0451,-42.5611 L -13.6448,-42.0773 L -13.1871,-41.6474 L -12.6791,-41.2784 L -12.1289,-40.9759
 L -11.5451,-40.7447 L -10.9369,-40.5886 L -10.3139,-40.5099 L 10.3139,-40.5099 z
M 7.38696,-46.2036 L 7.1627,-46.2319 L 6.94376,-46.2881 L 6.7336,-46.3713 L 6.53551,-46.4802 L 6.35263,-46.6131
 L 6.18785,-46.7678 L 6.04376,-46.942 L 5.92264,-47.1329 L 5.8264,-47.3374 L 5.75655,-47.5524 L 5.71419,-47.7744
 L 5.7,-48 L 5.71419,-48.2256 L 5.75655,-48.4476 L 5.8264,-48.6626 L 5.92264,-48.8671 L 6.04376,-49.058
 L 6.18785,-49.2322 L 6.35263,-49.3869 L 6.53551,-49.5198 L 6.7336,-49.6287 L 6.94376,-49.7119 L 7.1627,-49.7681
 L 7.38696,-49.7964 L 7.61302,-49.7964 L 7.83728,-49.7681 L 8.05623,-49.7119 L 8.26639,-49.6287 L 8.46448,-49.5198
 L 8.64735,-49.3869 L 8.81213,-49.2322 L 8.95622,-49.058 L 9.07735,-48.8671 L 9.17358,-48.6626 L 9.24344,-48.4476
 L 9.2858,-48.2256 L 9.29999,-48 L 9.2858,-47.7744 L 9.24344,-47.5524 L 9.17358,-47.3374 L 9.07735,-47.1329
 L 8.95622,-46.942 L 8.81213,-46.7678 L 8.64735,-46.6131 L 8.46448,-46.4802 L 8.26639,-46.3713 L 8.05623,-46.2881
 L 7.83728,-46.2319 L 7.61302,-46.2036 z
M -7.61302,-46.2036 L -7.83728,-46.2319 L -8.05623,-46.2881 L -8.26639,-46.3713 L -8.46448,-46.4802 L -8.64735,-46.6131
 L -8.81213,-46.7678 L -8.95622,-46.942 L -9.07735,-47.1329 L -9.17358,-47.3374 L -9.24344,-47.5524 L -9.2858,-47.7744
 L -9.29999,-48 L -9.2858,-48.2256 L -9.24344,-48.4476 L -9.17358,-48.6626 L -9.07735,-48.8671 L -8.95622,-49.058
 L -8.81213,-49.2322 L -8.64735,-49.3869 L -8.46448,-49.5198 L -8.26639,-49.6287 L -8.05623,-49.7119 L -7.83728,-49.7681
 L -7.61302,-49.7964 L -7.38696,-49.7964 L -7.1627,-49.7681 L -6.94376,-49.7119 L -6.7336,-49.6287 L -6.53551,-49.5198
 L -6.35263,-49.3869 L -6.18785,-49.2322 L -6.04376,-49.058 L -5.92264,-48.8671 L -5.8264,-48.6626 L -5.75655,-48.4476
 L -5.71419,-48.2256 L -5.7,-48 L -5.71419,-47.7744 L -5.75655,-47.5524 L -5.8264,-47.3374 L -5.92264,-47.1329
 L -6.04376,-46.942 L -6.18785,-46.7678 L -6.35263,-46.6131 L -6.53551,-46.4802 L -6.7336,-46.3713 L -6.94376,-46.2881
 L -7.1627,-46.2319 L -7.38696,-46.2036 z
" stroke="black" fill="lightgray" stroke-width="0.5"/>
</svg>
