<?xml version="1.0" standalone="no"?>
<!DOCTYPE svg PUBLIC "-//W3C//DTD SVG 1.1//EN" "http://www.w3.org/Graphics/SVG/1.1/DTD/svg11.dtd">
<svg width="77mm" height="186mm" viewBox="-39 -366 77 186" xmlns="http://www.w3.org/2000/svg" version="1.1">
<title>OpenSCAD Model</title>
<path d="
M -36,-337.441 L -35.6871,-337.147 L -35.1791,-336.778 L -34.6289,-336.476 L -34.0451,-336.245 L -33.4369,-336.089
 L -32.8139,-336.01 L 32.8139,-336.01 L 33.4369,-336.089 L 34.0451,-336.245 L 34.6289,-336.476 L 35.1791,-336.778
 L 35.6871,-337.147 L 36.1448,-337.577 L 36.5451,-338.061 L 36.8815,-338.591 L 37.1489,-339.159 L 37.3429,-339.757
 L 37.4606,-340.373 L 37.5,-341 L 37.5,-361 L 37.4606,-361.627 L 37.3429,-362.243 L 37.1489,-362.841
 L 36.8815,-363.409 L 36.5451,-363.939 L 36.1448,-364.423 L 35.6871,-364.853 L 35.1791,-365.222 L 34.6289,-365.524
 L 34.0451,-365.755 L 33.4369,-365.911 L 32.8139,-365.99 L -32.8139,-365.99 L -33.4369,-365.911 L -34.0451,-365.755
 L -34.6289,-365.524 L -35.1791,-365.222 L -35.6871,-364.853 L -36,-364.559 L -36,-365.99 L -39,-365.99
 L -39,-336.01 L -36,-336.01 z
M -32.2512,-337.508 L -32.7495,-337.571 L -33.2361,-337.696 L -33.7031,-337.881 L -34.1433,-338.123 L -34.5497,-338.418
 L -34.9159,-338.762 L -35.2361,-339.149 L -35.5052,-339.573 L -35.7191,-340.028 L -35.8743,-340.505 L -35.9685,-340.999
 L -36,-341.5 L -36,-360.5 L -35.9685,-361.001 L -35.8743,-361.495 L -35.7191,-361.972 L -35.5052,-362.427
 L -35.2361,-362.851 L -34.9159,-363.238 L -34.5497,-363.582 L -34.1433,-363.877 L -33.7031,-364.119 L -33.2361,-364.304
 L -32.7495,-364.429 L -32.2512,-364.492 L 32.2512,-364.492 L 32.7495,-364.429 L 33.2361,-364.304 L 33.7031,-364.119
 L 34.1433,-363.877 L 34.5497,-363.582 L 34.9159,-363.238 L 35.2361,-362.851 L 35.5052,-362.427 L 35.7191,-361.972
 L 35.8743,-361.495 L 35.9685,-361.001 L 36,-360.5 L 36,-341.5 L 35.9685,-340.999 L 35.8743,-340.505
 L 35.7191,-340.028 L 35.5052,-339.573 L 35.2361,-339.149 L 34.9159,-338.762 L 34.5497,-338.418 L 34.1433,-338.123
 L 33.7031,-337.881 L 33.2361,-337.696 L 32.7495,-337.571 L 32.2512,-337.508 z
M -36,-298.441 L -35.6871,-298.147 L -35.1791,-297.778 L -34.6289,-297.476 L -34.0451,-297.245 L -33.4369,-297.089
 L -32.8139,-297.01 L 32.8139,-297.01 L 33.4369,-297.089 L 34.0451,-297.245 L 34.6289,-297.476 L 35.1791,-297.778
 L 35.6871,-298.147 L 36.1448,-298.577 L 36.5451,-299.061 L 36.8815,-299.591 L 37.1489,-300.159 L 37.3429,-300.757
 L 37.4606,-301.373 L 37.5,-302 L 37.5,-322 L 37.4606,-322.627 L 37.3429,-323.243 L 37.1489,-323.841
 L 36.8815,-324.409 L 36.5451,-324.939 L 36.1448,-325.423 L 35.6871,-325.853 L 35.1791,-326.222 L 34.6289,-326.524
 L 34.0451,-326.755 L 33.4369,-326.911 L 32.8139,-326.99 L -32.8139,-326.99 L -33.4369,-326.911 L -34.0451,-326.755
 L -34.6289,-326.524 L -35.1791,-326.222 L -35.6871,-325.853 L -36,-325.559 L -36,-326.99 L -39,-326.99
 L -39,-297.01 L -36,-297.01 z
M -32.2512,-298.508 L -32.7495,-298.571 L -33.2361,-298.696 L -33.7031,-298.881 L -34.1433,-299.123 L -34.5497,-299.418
 L -34.9159,-299.762 L -35.2361,-300.149 L -35.5052,-300.573 L -35.7191,-301.028 L -35.8743,-301.505 L -35.9685,-301.999
 L -36,-302.5 L -36,-321.5 L -35.9685,-322.001 L -35.8743,-322.495 L -35.7191,-322.972 L -35.5052,-323.427
 L -35.2361,-323.851 L -34.9159,-324.238 L -34.5497,-324.582 L -34.1433,-324.877 L -33.7031,-325.119 L -33.2361,-325.304
 L -32.7495,-325.429 L -32.2512,-325.492 L 32.2512,-325.492 L 32.7495,-325.429 L 33.2361,-325.304 L 33.7031,-325.119
 L 34.1433,-324.877 L 34.5497,-324.582 L 34.9159,-324.238 L 35.2361,-323.851 L 35.5052,-323.427 L 35.7191,-322.972
 L 35.8743,-322.495 L 35.9685,-322.001 L 36,-321.5 L 36,-302.5 L 35.9685,-301.999 L 35.8743,-301.505
 L 35.7191,-301.028 L 35.5052,-300.573 L 35.2361,-300.149 L 34.9159,-299.762 L 34.5497,-299.418 L 34.1433,-299.123
 L 33.7031,-298.881 L 33.2361,-298.696 L 32.7495,-298.571 L 32.2512,-298.508 z
M -36,-259.441 L -35.6871,-259.147 L -35.1791,-258.778 L -34.6289,-258.476 L -34.0451,-258.245 L -33.4369,-258.089
 L -32.8139,-258.01 L 32.8139,-258.01 L 33.4369,-258.089 L 34.0451,-258.245 L 34.6289,-258.476 L 35.1791,-258.778
 L 35.6871,-259.147 L 36.1448,-259.577 L 36.5451,-260.061 L 36.8815,-260.591 L 37.1489,-261.159 L 37.3429,-261.757
 L 37.4606,-262.373 L 37.5,-263 L 37.5,-283 L 37.4606,-283.627 L 37.3429,-284.243 L 37.1489,-284.841
 L 36.8815,-285.409 L 36.5451,-285.939 L 36.1448,-286.423 L 35.6871,-286.853 L 35.1791,-287.222 L 34.6289,-287.524
 L 34.0451,-287.755 L 33.4369,-287.911 L 32.8139,-287.99 L -32.8139,-287.99 L -33.4369,-287.911 L -34.0451,-287.755
 L -34.6289,-287.524 L -35.1791,-287.222 L -35.6871,-286.853 L -36,-286.559 L -36,-287.99 L -39,-287.99
 L -39,-258.01 L -36,-258.01 z
M -32.2512,-259.508 L -32.7495,-259.571 L -33.2361,-259.696 L -33.7031,-259.881 L -34.1433,-260.123 L -34.5497,-260.418
 L -34.9159,-260.762 L -35.2361,-261.149 L -35.5052,-261.573 L -35.7191,-262.028 L -35.8743,-262.505 L -35.9685,-262.999
 L -36,-263.5 L -36,-282.5 L -35.9685,-283.001 L -35.8743,-283.495 L -35.7191,-283.972 L -35.5052,-284.427
 L -35.2361,-284.851 L -34.9159,-285.238 L -34.5497,-285.582 L -34.1433,-285.877 L -33.7031,-286.119 L -33.2361,-286.304
 L -32.7495,-286.429 L -32.2512,-286.492 L 32.2512,-286.492 L 32.7495,-286.429 L 33.2361,-286.304 L 33.7031,-286.119
 L 34.1433,-285.877 L 34.5497,-285.582 L 34.9159,-285.238 L 35.2361,-284.851 L 35.5052,-284.427 L 35.7191,-283.972
 L 35.8743,-283.495 L 35.9685,-283.001 L 36,-282.5 L 36,-263.5 L 35.9685,-262.999 L 35.8743,-262.505
 L 35.7191,-262.028 L 35.5052,-261.573 L 35.2361,-261.149 L 34.9159,-260.762 L 34.5497,-260.418 L 34.1433,-260.123
 L 33.7031,-259.881 L 33.2361,-259.696 L 32.7495,-259.571 L 32.2512,-259.508 z
M 33.4369,-219.089 L 34.0451,-219.245 L 34.6289,-219.476 L 35.1791,-219.778 L 35.6871,-220.147 L 36.1448,-220.577
 L 36.5451,-221.061 L 36.8815,-221.591 L 37.1489,-222.159 L 37.3429,-222.757 L 37.4606,-223.373 L 37.5,-224
 L 37.5,-244 L 37.4606,-244.627 L 37.3429,-245.243 L 37.1489,-245.841 L 36.8815,-246.409 L 36.5451,-246.939
 L 36.1448,-247.423 L 35.6871,-247.853 L 35.1791,-248.222 L 34.6289,-248.524 L 34.0451,-248.755 L 33.4369,-248.911
 L 32.8139,-248.99 L -32.8139,-248.99 L -33.4369,-248.911 L -34.0451,-248.755 L -34.6289,-248.524 L -35.1791,-248.222
 L -35.6871,-247.853 L -36,-247.559 L -36,-248.979 L -39,-248.979 L -39,-219.021 L -36,-219.021
 L -36,-220.441 L -35.6871,-220.147 L -35.1791,-219.778 L -34.6289,-219.476 L -34.0451,-219.245 L -33.4369,-219.089
 L -32.8139,-219.01 L 32.8139,-219.01 z
M -32.1954,-221.393 L -32.5833,-221.442 L -32.9619,-221.539 L -33.3254,-221.683 L -33.668,-221.872 L -33.9842,-222.101
 L -34.2692,-222.369 L -34.5184,-222.67 L -34.7279,-223 L -34.8943,-223.354 L -35.0151,-223.726 L -35.0884,-224.11
 L -35.1129,-224.5 L -35.1129,-243.5 L -35.0884,-243.89 L -35.0151,-244.274 L -34.8943,-244.646 L -34.7279,-245
 L -34.5184,-245.33 L -34.2692,-245.631 L -33.9842,-245.899 L -33.668,-246.128 L -33.3254,-246.317 L -32.9619,-246.461
 L -32.5833,-246.558 L -32.1954,-246.607 L 32.1954,-246.607 L 32.5833,-246.558 L 32.9619,-246.461 L 33.3254,-246.317
 L 33.668,-246.128 L 33.9842,-245.899 L 34.2692,-245.631 L 34.5184,-245.33 L 34.7279,-245 L 34.8943,-244.646
 L 35.0151,-244.274 L 35.0884,-243.89 L 35.1129,-243.5 L 35.1129,-224.5 L 35.0884,-224.11 L 35.0151,-223.726
 L 34.8943,-223.354 L 34.7279,-223 L 34.5184,-222.67 L 34.2692,-222.369 L 33.9842,-222.101 L 33.668,-221.872
 L 33.3254,-221.683 L 32.9619,-221.539 L 32.5833,-221.442 L 32.1954,-221.393 z
M 33.4369,-180.089 L 34.0451,-180.245 L 34.6289,-180.476 L 35.1791,-180.778 L 35.6871,-181.147 L 36.1448,-181.577
 L 36.5451,-182.061 L 36.8815,-182.591 L 37.1489,-183.159 L 37.3429,-183.757 L 37.4606,-184.373 L 37.5,-185
 L 37.5,-205 L 37.4606,-205.627 L 37.3429,-206.243 L 37.1489,-206.841 L 36.8815,-207.409 L 36.5451,-207.939
 L 36.1448,-208.423 L 35.6871,-208.853 L 35.1791,-209.222 L 34.6289,-209.524 L 34.0451,-209.755 L 33.4369,-209.911
 L 32.8139,-209.99 L -32.8139,-209.99 L -33.4369,-209.911 L -34.0451,-209.755 L -34.6289,-209.524 L -35.1791,-209.222
 L -35.6871,-208.853 L -36,-208.559 L -36,-208.653 L -39,-208.653 L -39,-181.347 L -36,-181.347
 L -36,-181.441 L -35.6871,-181.147 L -35.1791,-180.778 L -34.6289,-180.476 L -34.0451,-180.245 L -33.4369,-180.089
 L -32.8139,-180.01 L 32.8139,-180.01 z
M -30.1341,-200.369 L -30.4001,-200.403 L -30.6598,-200.469 L -30.9091,-200.568 L -31.1441,-200.697 L -31.3611,-200.855
 L -31.5565,-201.038 L -31.7275,-201.245 L -31.8712,-201.471 L -31.9853,-201.714 L -32.0682,-201.969 L -32.1185,-202.232
 L -32.1353,-202.5 L -32.1185,-202.768 L -32.0682,-203.031 L -31.9853,-203.286 L -31.8712,-203.529 L -31.7275,-203.755
 L -31.5565,-203.962 L -31.3611,-204.145 L -31.1441,-204.303 L -30.9091,-204.432 L -30.6598,-204.531 L -30.4001,-204.597
 L -30.1341,-204.631 L -29.8659,-204.631 L -29.5999,-204.597 L -29.3401,-204.531 L -29.0908,-204.432 L -28.8559,-204.303
 L -28.6389,-204.145 L -28.4434,-203.962 L -28.2725,-203.755 L -28.1288,-203.529 L -28.0146,-203.286 L -27.9318,-203.031
 L -27.8815,-202.768 L -27.8647,-202.5 L -27.8815,-202.232 L -27.9318,-201.969 L -28.0146,-201.714 L -28.1288,-201.471
 L -28.2725,-201.245 L -28.4434,-201.038 L -28.6389,-200.855 L -28.8559,-200.697 L -29.0908,-200.568 L -29.3401,-200.469
 L -29.5999,-200.403 L -29.8659,-200.369 z
M 29.8659,-200.369 L 29.5999,-200.403 L 29.3401,-200.469 L 29.0908,-200.568 L 28.8559,-200.697 L 28.6389,-200.855
 L 28.4434,-201.038 L 28.2725,-201.245 L 28.1288,-201.471 L 28.0146,-201.714 L 27.9318,-201.969 L 27.8815,-202.232
 L 27.8647,-202.5 L 27.8815,-202.768 L 27.9318,-203.031 L 28.0146,-203.286 L 28.1288,-203.529 L 28.2725,-203.755
 L 28.4434,-203.962 L 28.6389,-204.145 L 28.8559,-204.303 L 29.0908,-204.432 L 29.3401,-204.531 L 29.5999,-204.597
 L 29.8659,-204.631 L 30.1341,-204.631 L 30.4001,-204.597 L 30.6598,-204.531 L 30.9091,-204.432 L 31.1441,-204.303
 L 31.3611,-204.145 L 31.5565,-203.962 L 31.7275,-203.755 L 31.8712,-203.529 L 31.9853,-203.286 L 32.0682,-203.031
 L 32.1185,-202.768 L 32.1353,-202.5 L 32.1185,-202.232 L 32.0682,-201.969 L 31.9853,-201.714 L 31.8712,-201.471
 L 31.7275,-201.245 L 31.5565,-201.038 L 31.3611,-200.855 L 31.1441,-200.697 L 30.9091,-200.568 L 30.6598,-200.469
 L 30.4001,-200.403 L 30.1341,-200.369 z
M -30.1341,-185.369 L -30.4001,-185.403 L -30.6598,-185.469 L -30.9091,-185.568 L -31.1441,-185.697 L -31.3611,-185.855
 L -31.5565,-186.038 L -31.7275,-186.245 L -31.8712,-186.471 L -31.9853,-186.714 L -32.0682,-186.969 L -32.1185,-187.232
 L -32.1353,-187.5 L -32.1185,-187.768 L -32.0682,-188.031 L -31.9853,-188.286 L -31.8712,-188.529 L -31.7275,-188.755
 L -31.5565,-188.962 L -31.3611,-189.145 L -31.1441,-189.303 L -30.9091,-189.432 L -30.6598,-189.531 L -30.4001,-189.597
 L -30.1341,-189.631 L -29.8659,-189.631 L -29.5999,-189.597 L -29.3401,-189.531 L -29.0908,-189.432 L -28.8559,-189.303
 L -28.6389,-189.145 L -28.4434,-188.962 L -28.2725,-188.755 L -28.1288,-188.529 L -28.0146,-188.286 L -27.9318,-188.031
 L -27.8815,-187.768 L -27.8647,-187.5 L -27.8815,-187.232 L -27.9318,-186.969 L -28.0146,-186.714 L -28.1288,-186.471
 L -28.2725,-186.245 L -28.4434,-186.038 L -28.6389,-185.855 L -28.8559,-185.697 L -29.0908,-185.568 L -29.3401,-185.469
 L -29.5999,-185.403 L -29.8659,-185.369 z
M 29.8659,-185.369 L 29.5999,-185.403 L 29.3401,-185.469 L 29.0908,-185.568 L 28.8559,-185.697 L 28.6389,-185.855
 L 28.4434,-186.038 L 28.2725,-186.245 L 28.1288,-186.471 L 28.0146,-186.714 L 27.9318,-186.969 L 27.8815,-187.232
 L 27.8647,-187.5 L 27.8815,-187.768 L 27.9318,-188.031 L 28.0146,-188.286 L 28.1288,-188.529 L 28.2725,-188.755
 L 28.4434,-188.962 L 28.6389,-189.145 L 28.8559,-189.303 L 29.0908,-189.432 L 29.3401,-189.531 L 29.5999,-189.597
 L 29.8659,-189.631 L 30.1341,-189.631 L 30.4001,-189.597 L 30.6598,-189.531 L 30.9091,-189.432 L 31.1441,-189.303
 L 31.3611,-189.145 L 31.5565,-188.962 L 31.7275,-188.755 L 31.8712,-188.529 L 31.9853,-188.286 L 32.0682,-188.031
 L 32.1185,-187.768 L 32.1353,-187.5 L 32.1185,-187.232 L 32.0682,-186.969 L 31.9853,-186.714 L 31.8712,-186.471
 L 31.7275,-186.245 L 31.5565,-186.038 L 31.3611,-185.855 L 31.1441,-185.697 L 30.9091,-185.568 L 30.6598,-185.469
 L 30.4001,-185.403 L 30.1341,-185.369 z
" stroke="black" fill="lightgray" stroke-width="0.5"/>
</svg>
