<?xml version="1.0" standalone="no"?>
<!DOCTYPE svg PUBLIC "-//W3C//DTD SVG 1.1//EN" "http://www.w3.org/Graphics/SVG/1.1/DTD/svg11.dtd">
<svg width="16mm" height="40mm" viewBox="-8 -56 16 40" xmlns="http://www.w3.org/2000/svg" version="1.1">
<title>OpenSCAD Model</title>
<path d="
M 3.4369,-40.5886 L 4.04507,-40.7447 L 4.62889,-40.9759 L 5.17912,-41.2784 L 5.68712,-41.6474 L 6.14484,-42.0773
 L 6.54507,-42.5611 L 6.88153,-43.0912 L 7.14888,-43.6594 L 7.34291,-44.2566 L 7.46057,-44.8733 L 7.5,-45.5
 L 7.5,-50.5 L 7.46057,-51.1267 L 7.34291,-51.7434 L 7.14888,-52.3406 L 6.88153,-52.9088 L 6.54507,-53.4389
 L 6.14484,-53.9227 L 5.68712,-54.3526 L 5.17912,-54.7216 L 4.62889,-55.0241 L 4.04507,-55.2553 L 3.4369,-55.4114
 L 2.81395,-55.4901 L -2.81395,-55.4901 L -3.4369,-55.4114 L -4.04507,-55.2553 L -4.62889,-55.0241 L -5.17912,-54.7216
 L -5.68712,-54.3526 L -6.14484,-53.9227 L -6.54507,-53.4389 L -6.88153,-52.9088 L -7.14888,-52.3406 L -7.34291,-51.7434
 L -7.46057,-51.1267 L -7.5,-50.5 L -7.5,-45.5 L -7.46057,-44.8733 L -7.34291,-44.2566 L -7.14888,-43.6594
 L -6.88153,-43.0912 L -6.54507,-42.5611 L -6.14484,-42.0773 L -5.68712,-41.6474 L -5.17912,-41.2784 L -4.62889,-40.9759
 L -4.04507,-40.7447 L -3.4369,-40.5886 L -2.81395,-40.5099 L 2.81395,-40.5099 z
M -2.49297,-41.8882 L -2.97505,-41.9491 L -3.44572,-42.0699 L -3.89754,-42.2488 L -4.32336,-42.4829 L -4.71649,-42.7685
 L -5.07071,-43.1012 L -5.38046,-43.4756 L -5.64084,-43.8859 L -5.84773,-44.3256 L -5.99789,-44.7877 L -6.08896,-45.265
 L -6.11946,-45.75 L -6.11946,-50.25 L -6.08896,-50.735 L -5.99789,-51.2123 L -5.84773,-51.6744 L -5.64084,-52.1141
 L -5.38046,-52.5244 L -5.07071,-52.8988 L -4.71649,-53.2315 L -4.32336,-53.5171 L -3.89754,-53.7512 L -3.44572,-53.9301
 L -2.97505,-54.0509 L -2.49297,-54.1118 L 2.49297,-54.1118 L 2.97505,-54.0509 L 3.44572,-53.9301 L 3.89754,-53.7512
 L 4.32336,-53.5171 L 4.71649,-53.2315 L 5.07071,-52.8988 L 5.38046,-52.5244 L 5.64084,-52.1141 L 5.84773,-51.6744
 L 5.99789,-51.2123 L 6.08896,-50.735 L 6.11946,-50.25 L 6.11946,-45.75 L 6.08896,-45.265 L 5.99789,-44.7877
 L 5.84773,-44.3256 L 5.64084,-43.8859 L 5.38046,-43.4756 L 5.07071,-43.1012 L 4.71649,-42.7685 L 4.32336,-42.4829
 L 3.89754,-42.2488 L 3.44572,-42.0699 L 2.97505,-41.9491 L 2.49297,-41.8882 z
M 3.4369,-16.5886 L 4.04507,-16.7447 L 4.62889,-16.9759 L 5.17912,-17.2784 L 5.68712,-17.6474 L 6.14484,-18.0773
 L 6.54507,-18.5611 L 6.88153,-19.0912 L 7.14888,-19.6594 L 7.34291,-20.2566 L 7.46057,-20.8733 L 7.5,-21.5
 L 7.5,-26.5 L 7.46057,-27.1267 L 7.34291,-27.7434 L 7.14888,-28.3406 L 6.88153,-28.9088 L 6.54507,-29.4389
 L 6.14484,-29.9227 L 5.68712,-30.3526 L 5.17912,-30.7216 L 4.62889,-31.0241 L 4.04507,-31.2553 L 3.4369,-31.4114
 L 2.81395,-31.4901 L -2.81395,-31.4901 L -3.4369,-31.4114 L -4.04507,-31.2553 L -4.62889,-31.0241 L -5.17912,-30.7216
 L -5.68712,-30.3526 L -6.14484,-29.9227 L -6.54507,-29.4389 L -6.88153,-28.9088 L -7.14888,-28.3406 L -7.34291,-27.7434
 L -7.46057,-27.1267 L -7.5,-26.5 L -7.5,-21.5 L -7.46057,-20.8733 L -7.34291,-20.2566 L -7.14888,-19.6594
 L -6.88153,-19.0912 L -6.54507,-18.5611 L -6.14484,-18.0773 L -5.68712,-17.6474 L -5.17912,-17.2784 L -4.62889,-16.9759
 L -4.04507,-16.7447 L -3.4369,-16.5886 L -2.81395,-16.5099 L 2.81395,-16.5099 z
M -0.113022,-22.2036 L -0.33728,-22.2319 L -0.556229,-22.2881 L -0.766388,-22.3713 L -0.964478,-22.4802 L -1.14735,-22.6131
 L -1.31213,-22.7678 L -1.45622,-22.942 L -1.57735,-23.1329 L -1.67358,-23.3374 L -1.74344,-23.5524 L -1.7858,-23.7744
 L -1.79999,-24 L -1.7858,-24.2256 L -1.74344,-24.4476 L -1.67358,-24.6626 L -1.57735,-24.8671 L -1.45622,-25.058
 L -1.31213,-25.2322 L -1.14735,-25.3869 L -0.964478,-25.5198 L -0.766388,-25.6287 L -0.556229,-25.7119 L -0.33728,-25.7681
 L -0.113022,-25.7964 L 0.113022,-25.7964 L 0.33728,-25.7681 L 0.556229,-25.7119 L 0.766388,-25.6287 L 0.964478,-25.5198
 L 1.14735,-25.3869 L 1.31213,-25.2322 L 1.45622,-25.058 L 1.57735,-24.8671 L 1.67358,-24.6626 L 1.74344,-24.4476
 L 1.7858,-24.2256 L 1.79999,-24 L 1.7858,-23.7744 L 1.74344,-23.5524 L 1.67358,-23.3374 L 1.57735,-23.1329
 L 1.45622,-22.942 L 1.31213,-22.7678 L 1.14735,-22.6131 L 0.964478,-22.4802 L 0.766388,-22.3713 L 0.556229,-22.2881
 L 0.33728,-22.2319 L 0.113022,-22.2036 z
" stroke="black" fill="lightgray" stroke-width="0.5"/>
</svg>
