  0
SECTION
  2
BLOCKS
  0
ENDSEC
  0
SECTION
  2
ENTITIES
  0
LINE
  8
0
 10
-51
 20
337.441
 11
-50.6871
 21
337.147
  0
LINE
  8
0
 10
-50.6871
 20
337.147
 11
-50.1791
 21
336.778
  0
LINE
  8
0
 10
-50.1791
 20
336.778
 11
-49.6289
 21
336.476
  0
LINE
  8
0
 10
-49.6289
 20
336.476
 11
-49.0451
 21
336.245
  0
LINE
  8
0
 10
-49.0451
 20
336.245
 11
-48.4369
 21
336.089
  0
LINE
  8
0
 10
-48.4369
 20
336.089
 11
-47.8139
 21
336.01
  0
LINE
  8
0
 10
-47.8139
 20
336.01
 11
47.8139
 21
336.01
  0
LINE
  8
0
 10
47.8139
 20
336.01
 11
48.4369
 21
336.089
  0
LINE
  8
0
 10
48.4369
 20
336.089
 11
49.0451
 21
336.245
  0
LINE
  8
0
 10
49.0451
 20
336.245
 11
49.6289
 21
336.476
  0
LINE
  8
0
 10
49.6289
 20
336.476
 11
50.1791
 21
336.778
  0
LINE
  8
0
 10
50.1791
 20
336.778
 11
50.6871
 21
337.147
  0
LINE
  8
0
 10
50.6871
 20
337.147
 11
51.1448
 21
337.577
  0
LINE
  8
0
 10
51.1448
 20
337.577
 11
51.5451
 21
338.061
  0
LINE
  8
0
 10
51.5451
 20
338.061
 11
51.8815
 21
338.591
  0
LINE
  8
0
 10
51.8815
 20
338.591
 11
52.1489
 21
339.159
  0
LINE
  8
0
 10
52.1489
 20
339.159
 11
52.3429
 21
339.757
  0
LINE
  8
0
 10
52.3429
 20
339.757
 11
52.4606
 21
340.373
  0
LINE
  8
0
 10
52.4606
 20
340.373
 11
52.5
 21
341
  0
LINE
  8
0
 10
52.5
 20
341
 11
52.5
 21
361
  0
LINE
  8
0
 10
52.5
 20
361
 11
52.4606
 21
361.627
  0
LINE
  8
0
 10
52.4606
 20
361.627
 11
52.3429
 21
362.243
  0
LINE
  8
0
 10
52.3429
 20
362.243
 11
52.1489
 21
362.841
  0
LINE
  8
0
 10
52.1489
 20
362.841
 11
51.8815
 21
363.409
  0
LINE
  8
0
 10
51.8815
 20
363.409
 11
51.5451
 21
363.939
  0
LINE
  8
0
 10
51.5451
 20
363.939
 11
51.1448
 21
364.423
  0
LINE
  8
0
 10
51.1448
 20
364.423
 11
50.6871
 21
364.853
  0
LINE
  8
0
 10
50.6871
 20
364.853
 11
50.1791
 21
365.222
  0
LINE
  8
0
 10
50.1791
 20
365.222
 11
49.6289
 21
365.524
  0
LINE
  8
0
 10
49.6289
 20
365.524
 11
49.0451
 21
365.755
  0
LINE
  8
0
 10
49.0451
 20
365.755
 11
48.4369
 21
365.911
  0
LINE
  8
0
 10
48.4369
 20
365.911
 11
47.8139
 21
365.99
  0
LINE
  8
0
 10
47.8139
 20
365.99
 11
-47.8139
 21
365.99
  0
LINE
  8
0
 10
-47.8139
 20
365.99
 11
-48.4369
 21
365.911
  0
LINE
  8
0
 10
-48.4369
 20
365.911
 11
-49.0451
 21
365.755
  0
LINE
  8
0
 10
-49.0451
 20
365.755
 11
-49.6289
 21
365.524
  0
LINE
  8
0
 10
-49.6289
 20
365.524
 11
-50.1791
 21
365.222
  0
LINE
  8
0
 10
-50.1791
 20
365.222
 11
-50.6871
 21
364.853
  0
LINE
  8
0
 10
-50.6871
 20
364.853
 11
-51
 21
364.559
  0
LINE
  8
0
 10
-51
 20
364.559
 11
-51
 21
365.99
  0
LINE
  8
0
 10
-51
 20
365.99
 11
-54
 21
365.99
  0
LINE
  8
0
 10
-54
 20
365.99
 11
-54
 21
336.01
  0
LINE
  8
0
 10
-54
 20
336.01
 11
-51
 21
336.01
  0
LINE
  8
0
 10
-51
 20
336.01
 11
-51
 21
337.441
  0
LINE
  8
0
 10
-47.2512
 20
337.508
 11
-47.7495
 21
337.571
  0
LINE
  8
0
 10
-47.7495
 20
337.571
 11
-48.2361
 21
337.696
  0
LINE
  8
0
 10
-48.2361
 20
337.696
 11
-48.7031
 21
337.881
  0
LINE
  8
0
 10
-48.7031
 20
337.881
 11
-49.1433
 21
338.123
  0
LINE
  8
0
 10
-49.1433
 20
338.123
 11
-49.5497
 21
338.418
  0
LINE
  8
0
 10
-49.5497
 20
338.418
 11
-49.9159
 21
338.762
  0
LINE
  8
0
 10
-49.9159
 20
338.762
 11
-50.2361
 21
339.149
  0
LINE
  8
0
 10
-50.2361
 20
339.149
 11
-50.5052
 21
339.573
  0
LINE
  8
0
 10
-50.5052
 20
339.573
 11
-50.7191
 21
340.028
  0
LINE
  8
0
 10
-50.7191
 20
340.028
 11
-50.8743
 21
340.505
  0
LINE
  8
0
 10
-50.8743
 20
340.505
 11
-50.9685
 21
340.999
  0
LINE
  8
0
 10
-50.9685
 20
340.999
 11
-51
 21
341.5
  0
LINE
  8
0
 10
-51
 20
341.5
 11
-51
 21
360.5
  0
LINE
  8
0
 10
-51
 20
360.5
 11
-50.9685
 21
361.001
  0
LINE
  8
0
 10
-50.9685
 20
361.001
 11
-50.8743
 21
361.495
  0
LINE
  8
0
 10
-50.8743
 20
361.495
 11
-50.7191
 21
361.972
  0
LINE
  8
0
 10
-50.7191
 20
361.972
 11
-50.5052
 21
362.427
  0
LINE
  8
0
 10
-50.5052
 20
362.427
 11
-50.2361
 21
362.851
  0
LINE
  8
0
 10
-50.2361
 20
362.851
 11
-49.9159
 21
363.238
  0
LINE
  8
0
 10
-49.9159
 20
363.238
 11
-49.5497
 21
363.582
  0
LINE
  8
0
 10
-49.5497
 20
363.582
 11
-49.1433
 21
363.877
  0
LINE
  8
0
 10
-49.1433
 20
363.877
 11
-48.7031
 21
364.119
  0
LINE
  8
0
 10
-48.7031
 20
364.119
 11
-48.2361
 21
364.304
  0
LINE
  8
0
 10
-48.2361
 20
364.304
 11
-47.7495
 21
364.429
  0
LINE
  8
0
 10
-47.7495
 20
364.429
 11
-47.2512
 21
364.492
  0
LINE
  8
0
 10
-47.2512
 20
364.492
 11
47.2512
 21
364.492
  0
LINE
  8
0
 10
47.2512
 20
364.492
 11
47.7495
 21
364.429
  0
LINE
  8
0
 10
47.7495
 20
364.429
 11
48.2361
 21
364.304
  0
LINE
  8
0
 10
48.2361
 20
364.304
 11
48.7031
 21
364.119
  0
LINE
  8
0
 10
48.7031
 20
364.119
 11
49.1433
 21
363.877
  0
LINE
  8
0
 10
49.1433
 20
363.877
 11
49.5497
 21
363.582
  0
LINE
  8
0
 10
49.5497
 20
363.582
 11
49.9159
 21
363.238
  0
LINE
  8
0
 10
49.9159
 20
363.238
 11
50.2361
 21
362.851
  0
LINE
  8
0
 10
50.2361
 20
362.851
 11
50.5052
 21
362.427
  0
LINE
  8
0
 10
50.5052
 20
362.427
 11
50.7191
 21
361.972
  0
LINE
  8
0
 10
50.7191
 20
361.972
 11
50.8743
 21
361.495
  0
LINE
  8
0
 10
50.8743
 20
361.495
 11
50.9685
 21
361.001
  0
LINE
  8
0
 10
50.9685
 20
361.001
 11
51
 21
360.5
  0
LINE
  8
0
 10
51
 20
360.5
 11
51
 21
341.5
  0
LINE
  8
0
 10
51
 20
341.5
 11
50.9685
 21
340.999
  0
LINE
  8
0
 10
50.9685
 20
340.999
 11
50.8743
 21
340.505
  0
LINE
  8
0
 10
50.8743
 20
340.505
 11
50.7191
 21
340.028
  0
LINE
  8
0
 10
50.7191
 20
340.028
 11
50.5052
 21
339.573
  0
LINE
  8
0
 10
50.5052
 20
339.573
 11
50.2361
 21
339.149
  0
LINE
  8
0
 10
50.2361
 20
339.149
 11
49.9159
 21
338.762
  0
LINE
  8
0
 10
49.9159
 20
338.762
 11
49.5497
 21
338.418
  0
LINE
  8
0
 10
49.5497
 20
338.418
 11
49.1433
 21
338.123
  0
LINE
  8
0
 10
49.1433
 20
338.123
 11
48.7031
 21
337.881
  0
LINE
  8
0
 10
48.7031
 20
337.881
 11
48.2361
 21
337.696
  0
LINE
  8
0
 10
48.2361
 20
337.696
 11
47.7495
 21
337.571
  0
LINE
  8
0
 10
47.7495
 20
337.571
 11
47.2512
 21
337.508
  0
LINE
  8
0
 10
47.2512
 20
337.508
 11
-47.2512
 21
337.508
  0
LINE
  8
0
 10
-51
 20
298.441
 11
-50.6871
 21
298.147
  0
LINE
  8
0
 10
-50.6871
 20
298.147
 11
-50.1791
 21
297.778
  0
LINE
  8
0
 10
-50.1791
 20
297.778
 11
-49.6289
 21
297.476
  0
LINE
  8
0
 10
-49.6289
 20
297.476
 11
-49.0451
 21
297.245
  0
LINE
  8
0
 10
-49.0451
 20
297.245
 11
-48.4369
 21
297.089
  0
LINE
  8
0
 10
-48.4369
 20
297.089
 11
-47.8139
 21
297.01
  0
LINE
  8
0
 10
-47.8139
 20
297.01
 11
47.8139
 21
297.01
  0
LINE
  8
0
 10
47.8139
 20
297.01
 11
48.4369
 21
297.089
  0
LINE
  8
0
 10
48.4369
 20
297.089
 11
49.0451
 21
297.245
  0
LINE
  8
0
 10
49.0451
 20
297.245
 11
49.6289
 21
297.476
  0
LINE
  8
0
 10
49.6289
 20
297.476
 11
50.1791
 21
297.778
  0
LINE
  8
0
 10
50.1791
 20
297.778
 11
50.6871
 21
298.147
  0
LINE
  8
0
 10
50.6871
 20
298.147
 11
51.1448
 21
298.577
  0
LINE
  8
0
 10
51.1448
 20
298.577
 11
51.5451
 21
299.061
  0
LINE
  8
0
 10
51.5451
 20
299.061
 11
51.8815
 21
299.591
  0
LINE
  8
0
 10
51.8815
 20
299.591
 11
52.1489
 21
300.159
  0
LINE
  8
0
 10
52.1489
 20
300.159
 11
52.3429
 21
300.757
  0
LINE
  8
0
 10
52.3429
 20
300.757
 11
52.4606
 21
301.373
  0
LINE
  8
0
 10
52.4606
 20
301.373
 11
52.5
 21
302
  0
LINE
  8
0
 10
52.5
 20
302
 11
52.5
 21
322
  0
LINE
  8
0
 10
52.5
 20
322
 11
52.4606
 21
322.627
  0
LINE
  8
0
 10
52.4606
 20
322.627
 11
52.3429
 21
323.243
  0
LINE
  8
0
 10
52.3429
 20
323.243
 11
52.1489
 21
323.841
  0
LINE
  8
0
 10
52.1489
 20
323.841
 11
51.8815
 21
324.409
  0
LINE
  8
0
 10
51.8815
 20
324.409
 11
51.5451
 21
324.939
  0
LINE
  8
0
 10
51.5451
 20
324.939
 11
51.1448
 21
325.423
  0
LINE
  8
0
 10
51.1448
 20
325.423
 11
50.6871
 21
325.853
  0
LINE
  8
0
 10
50.6871
 20
325.853
 11
50.1791
 21
326.222
  0
LINE
  8
0
 10
50.1791
 20
326.222
 11
49.6289
 21
326.524
  0
LINE
  8
0
 10
49.6289
 20
326.524
 11
49.0451
 21
326.755
  0
LINE
  8
0
 10
49.0451
 20
326.755
 11
48.4369
 21
326.911
  0
LINE
  8
0
 10
48.4369
 20
326.911
 11
47.8139
 21
326.99
  0
LINE
  8
0
 10
47.8139
 20
326.99
 11
-47.8139
 21
326.99
  0
LINE
  8
0
 10
-47.8139
 20
326.99
 11
-48.4369
 21
326.911
  0
LINE
  8
0
 10
-48.4369
 20
326.911
 11
-49.0451
 21
326.755
  0
LINE
  8
0
 10
-49.0451
 20
326.755
 11
-49.6289
 21
326.524
  0
LINE
  8
0
 10
-49.6289
 20
326.524
 11
-50.1791
 21
326.222
  0
LINE
  8
0
 10
-50.1791
 20
326.222
 11
-50.6871
 21
325.853
  0
LINE
  8
0
 10
-50.6871
 20
325.853
 11
-51
 21
325.559
  0
LINE
  8
0
 10
-51
 20
325.559
 11
-51
 21
326.99
  0
LINE
  8
0
 10
-51
 20
326.99
 11
-54
 21
326.99
  0
LINE
  8
0
 10
-54
 20
326.99
 11
-54
 21
297.01
  0
LINE
  8
0
 10
-54
 20
297.01
 11
-51
 21
297.01
  0
LINE
  8
0
 10
-51
 20
297.01
 11
-51
 21
298.441
  0
LINE
  8
0
 10
-47.2512
 20
298.508
 11
-47.7495
 21
298.571
  0
LINE
  8
0
 10
-47.7495
 20
298.571
 11
-48.2361
 21
298.696
  0
LINE
  8
0
 10
-48.2361
 20
298.696
 11
-48.7031
 21
298.881
  0
LINE
  8
0
 10
-48.7031
 20
298.881
 11
-49.1433
 21
299.123
  0
LINE
  8
0
 10
-49.1433
 20
299.123
 11
-49.5497
 21
299.418
  0
LINE
  8
0
 10
-49.5497
 20
299.418
 11
-49.9159
 21
299.762
  0
LINE
  8
0
 10
-49.9159
 20
299.762
 11
-50.2361
 21
300.149
  0
LINE
  8
0
 10
-50.2361
 20
300.149
 11
-50.5052
 21
300.573
  0
LINE
  8
0
 10
-50.5052
 20
300.573
 11
-50.7191
 21
301.028
  0
LINE
  8
0
 10
-50.7191
 20
301.028
 11
-50.8743
 21
301.505
  0
LINE
  8
0
 10
-50.8743
 20
301.505
 11
-50.9685
 21
301.999
  0
LINE
  8
0
 10
-50.9685
 20
301.999
 11
-51
 21
302.5
  0
LINE
  8
0
 10
-51
 20
302.5
 11
-51
 21
321.5
  0
LINE
  8
0
 10
-51
 20
321.5
 11
-50.9685
 21
322.001
  0
LINE
  8
0
 10
-50.9685
 20
322.001
 11
-50.8743
 21
322.495
  0
LINE
  8
0
 10
-50.8743
 20
322.495
 11
-50.7191
 21
322.972
  0
LINE
  8
0
 10
-50.7191
 20
322.972
 11
-50.5052
 21
323.427
  0
LINE
  8
0
 10
-50.5052
 20
323.427
 11
-50.2361
 21
323.851
  0
LINE
  8
0
 10
-50.2361
 20
323.851
 11
-49.9159
 21
324.238
  0
LINE
  8
0
 10
-49.9159
 20
324.238
 11
-49.5497
 21
324.582
  0
LINE
  8
0
 10
-49.5497
 20
324.582
 11
-49.1433
 21
324.877
  0
LINE
  8
0
 10
-49.1433
 20
324.877
 11
-48.7031
 21
325.119
  0
LINE
  8
0
 10
-48.7031
 20
325.119
 11
-48.2361
 21
325.304
  0
LINE
  8
0
 10
-48.2361
 20
325.304
 11
-47.7495
 21
325.429
  0
LINE
  8
0
 10
-47.7495
 20
325.429
 11
-47.2512
 21
325.492
  0
LINE
  8
0
 10
-47.2512
 20
325.492
 11
47.2512
 21
325.492
  0
LINE
  8
0
 10
47.2512
 20
325.492
 11
47.7495
 21
325.429
  0
LINE
  8
0
 10
47.7495
 20
325.429
 11
48.2361
 21
325.304
  0
LINE
  8
0
 10
48.2361
 20
325.304
 11
48.7031
 21
325.119
  0
LINE
  8
0
 10
48.7031
 20
325.119
 11
49.1433
 21
324.877
  0
LINE
  8
0
 10
49.1433
 20
324.877
 11
49.5497
 21
324.582
  0
LINE
  8
0
 10
49.5497
 20
324.582
 11
49.9159
 21
324.238
  0
LINE
  8
0
 10
49.9159
 20
324.238
 11
50.2361
 21
323.851
  0
LINE
  8
0
 10
50.2361
 20
323.851
 11
50.5052
 21
323.427
  0
LINE
  8
0
 10
50.5052
 20
323.427
 11
50.7191
 21
322.972
  0
LINE
  8
0
 10
50.7191
 20
322.972
 11
50.8743
 21
322.495
  0
LINE
  8
0
 10
50.8743
 20
322.495
 11
50.9685
 21
322.001
  0
LINE
  8
0
 10
50.9685
 20
322.001
 11
51
 21
321.5
  0
LINE
  8
0
 10
51
 20
321.5
 11
51
 21
302.5
  0
LINE
  8
0
 10
51
 20
302.5
 11
50.9685
 21
301.999
  0
LINE
  8
0
 10
50.9685
 20
301.999
 11
50.8743
 21
301.505
  0
LINE
  8
0
 10
50.8743
 20
301.505
 11
50.7191
 21
301.028
  0
LINE
  8
0
 10
50.7191
 20
301.028
 11
50.5052
 21
300.573
  0
LINE
  8
0
 10
50.5052
 20
300.573
 11
50.2361
 21
300.149
  0
LINE
  8
0
 10
50.2361
 20
300.149
 11
49.9159
 21
299.762
  0
LINE
  8
0
 10
49.9159
 20
299.762
 11
49.5497
 21
299.418
  0
LINE
  8
0
 10
49.5497
 20
299.418
 11
49.1433
 21
299.123
  0
LINE
  8
0
 10
49.1433
 20
299.123
 11
48.7031
 21
298.881
  0
LINE
  8
0
 10
48.7031
 20
298.881
 11
48.2361
 21
298.696
  0
LINE
  8
0
 10
48.2361
 20
298.696
 11
47.7495
 21
298.571
  0
LINE
  8
0
 10
47.7495
 20
298.571
 11
47.2512
 21
298.508
  0
LINE
  8
0
 10
47.2512
 20
298.508
 11
-47.2512
 21
298.508
  0
LINE
  8
0
 10
-51
 20
259.441
 11
-50.6871
 21
259.147
  0
LINE
  8
0
 10
-50.6871
 20
259.147
 11
-50.1791
 21
258.778
  0
LINE
  8
0
 10
-50.1791
 20
258.778
 11
-49.6289
 21
258.476
  0
LINE
  8
0
 10
-49.6289
 20
258.476
 11
-49.0451
 21
258.245
  0
LINE
  8
0
 10
-49.0451
 20
258.245
 11
-48.4369
 21
258.089
  0
LINE
  8
0
 10
-48.4369
 20
258.089
 11
-47.8139
 21
258.01
  0
LINE
  8
0
 10
-47.8139
 20
258.01
 11
47.8139
 21
258.01
  0
LINE
  8
0
 10
47.8139
 20
258.01
 11
48.4369
 21
258.089
  0
LINE
  8
0
 10
48.4369
 20
258.089
 11
49.0451
 21
258.245
  0
LINE
  8
0
 10
49.0451
 20
258.245
 11
49.6289
 21
258.476
  0
LINE
  8
0
 10
49.6289
 20
258.476
 11
50.1791
 21
258.778
  0
LINE
  8
0
 10
50.1791
 20
258.778
 11
50.6871
 21
259.147
  0
LINE
  8
0
 10
50.6871
 20
259.147
 11
51.1448
 21
259.577
  0
LINE
  8
0
 10
51.1448
 20
259.577
 11
51.5451
 21
260.061
  0
LINE
  8
0
 10
51.5451
 20
260.061
 11
51.8815
 21
260.591
  0
LINE
  8
0
 10
51.8815
 20
260.591
 11
52.1489
 21
261.159
  0
LINE
  8
0
 10
52.1489
 20
261.159
 11
52.3429
 21
261.757
  0
LINE
  8
0
 10
52.3429
 20
261.757
 11
52.4606
 21
262.373
  0
LINE
  8
0
 10
52.4606
 20
262.373
 11
52.5
 21
263
  0
LINE
  8
0
 10
52.5
 20
263
 11
52.5
 21
283
  0
LINE
  8
0
 10
52.5
 20
283
 11
52.4606
 21
283.627
  0
LINE
  8
0
 10
52.4606
 20
283.627
 11
52.3429
 21
284.243
  0
LINE
  8
0
 10
52.3429
 20
284.243
 11
52.1489
 21
284.841
  0
LINE
  8
0
 10
52.1489
 20
284.841
 11
51.8815
 21
285.409
  0
LINE
  8
0
 10
51.8815
 20
285.409
 11
51.5451
 21
285.939
  0
LINE
  8
0
 10
51.5451
 20
285.939
 11
51.1448
 21
286.423
  0
LINE
  8
0
 10
51.1448
 20
286.423
 11
50.6871
 21
286.853
  0
LINE
  8
0
 10
50.6871
 20
286.853
 11
50.1791
 21
287.222
  0
LINE
  8
0
 10
50.1791
 20
287.222
 11
49.6289
 21
287.524
  0
LINE
  8
0
 10
49.6289
 20
287.524
 11
49.0451
 21
287.755
  0
LINE
  8
0
 10
49.0451
 20
287.755
 11
48.4369
 21
287.911
  0
LINE
  8
0
 10
48.4369
 20
287.911
 11
47.8139
 21
287.99
  0
LINE
  8
0
 10
47.8139
 20
287.99
 11
-47.8139
 21
287.99
  0
LINE
  8
0
 10
-47.8139
 20
287.99
 11
-48.4369
 21
287.911
  0
LINE
  8
0
 10
-48.4369
 20
287.911
 11
-49.0451
 21
287.755
  0
LINE
  8
0
 10
-49.0451
 20
287.755
 11
-49.6289
 21
287.524
  0
LINE
  8
0
 10
-49.6289
 20
287.524
 11
-50.1791
 21
287.222
  0
LINE
  8
0
 10
-50.1791
 20
287.222
 11
-50.6871
 21
286.853
  0
LINE
  8
0
 10
-50.6871
 20
286.853
 11
-51
 21
286.559
  0
LINE
  8
0
 10
-51
 20
286.559
 11
-51
 21
287.99
  0
LINE
  8
0
 10
-51
 20
287.99
 11
-54
 21
287.99
  0
LINE
  8
0
 10
-54
 20
287.99
 11
-54
 21
258.01
  0
LINE
  8
0
 10
-54
 20
258.01
 11
-51
 21
258.01
  0
LINE
  8
0
 10
-51
 20
258.01
 11
-51
 21
259.441
  0
LINE
  8
0
 10
-47.2512
 20
259.508
 11
-47.7495
 21
259.571
  0
LINE
  8
0
 10
-47.7495
 20
259.571
 11
-48.2361
 21
259.696
  0
LINE
  8
0
 10
-48.2361
 20
259.696
 11
-48.7031
 21
259.881
  0
LINE
  8
0
 10
-48.7031
 20
259.881
 11
-49.1433
 21
260.123
  0
LINE
  8
0
 10
-49.1433
 20
260.123
 11
-49.5497
 21
260.418
  0
LINE
  8
0
 10
-49.5497
 20
260.418
 11
-49.9159
 21
260.762
  0
LINE
  8
0
 10
-49.9159
 20
260.762
 11
-50.2361
 21
261.149
  0
LINE
  8
0
 10
-50.2361
 20
261.149
 11
-50.5052
 21
261.573
  0
LINE
  8
0
 10
-50.5052
 20
261.573
 11
-50.7191
 21
262.028
  0
LINE
  8
0
 10
-50.7191
 20
262.028
 11
-50.8743
 21
262.505
  0
LINE
  8
0
 10
-50.8743
 20
262.505
 11
-50.9685
 21
262.999
  0
LINE
  8
0
 10
-50.9685
 20
262.999
 11
-51
 21
263.5
  0
LINE
  8
0
 10
-51
 20
263.5
 11
-51
 21
282.5
  0
LINE
  8
0
 10
-51
 20
282.5
 11
-50.9685
 21
283.001
  0
LINE
  8
0
 10
-50.9685
 20
283.001
 11
-50.8743
 21
283.495
  0
LINE
  8
0
 10
-50.8743
 20
283.495
 11
-50.7191
 21
283.972
  0
LINE
  8
0
 10
-50.7191
 20
283.972
 11
-50.5052
 21
284.427
  0
LINE
  8
0
 10
-50.5052
 20
284.427
 11
-50.2361
 21
284.851
  0
LINE
  8
0
 10
-50.2361
 20
284.851
 11
-49.9159
 21
285.238
  0
LINE
  8
0
 10
-49.9159
 20
285.238
 11
-49.5497
 21
285.582
  0
LINE
  8
0
 10
-49.5497
 20
285.582
 11
-49.1433
 21
285.877
  0
LINE
  8
0
 10
-49.1433
 20
285.877
 11
-48.7031
 21
286.119
  0
LINE
  8
0
 10
-48.7031
 20
286.119
 11
-48.2361
 21
286.304
  0
LINE
  8
0
 10
-48.2361
 20
286.304
 11
-47.7495
 21
286.429
  0
LINE
  8
0
 10
-47.7495
 20
286.429
 11
-47.2512
 21
286.492
  0
LINE
  8
0
 10
-47.2512
 20
286.492
 11
47.2512
 21
286.492
  0
LINE
  8
0
 10
47.2512
 20
286.492
 11
47.7495
 21
286.429
  0
LINE
  8
0
 10
47.7495
 20
286.429
 11
48.2361
 21
286.304
  0
LINE
  8
0
 10
48.2361
 20
286.304
 11
48.7031
 21
286.119
  0
LINE
  8
0
 10
48.7031
 20
286.119
 11
49.1433
 21
285.877
  0
LINE
  8
0
 10
49.1433
 20
285.877
 11
49.5497
 21
285.582
  0
LINE
  8
0
 10
49.5497
 20
285.582
 11
49.9159
 21
285.238
  0
LINE
  8
0
 10
49.9159
 20
285.238
 11
50.2361
 21
284.851
  0
LINE
  8
0
 10
50.2361
 20
284.851
 11
50.5052
 21
284.427
  0
LINE
  8
0
 10
50.5052
 20
284.427
 11
50.7191
 21
283.972
  0
LINE
  8
0
 10
50.7191
 20
283.972
 11
50.8743
 21
283.495
  0
LINE
  8
0
 10
50.8743
 20
283.495
 11
50.9685
 21
283.001
  0
LINE
  8
0
 10
50.9685
 20
283.001
 11
51
 21
282.5
  0
LINE
  8
0
 10
51
 20
282.5
 11
51
 21
263.5
  0
LINE
  8
0
 10
51
 20
263.5
 11
50.9685
 21
262.999
  0
LINE
  8
0
 10
50.9685
 20
262.999
 11
50.8743
 21
262.505
  0
LINE
  8
0
 10
50.8743
 20
262.505
 11
50.7191
 21
262.028
  0
LINE
  8
0
 10
50.7191
 20
262.028
 11
50.5052
 21
261.573
  0
LINE
  8
0
 10
50.5052
 20
261.573
 11
50.2361
 21
261.149
  0
LINE
  8
0
 10
50.2361
 20
261.149
 11
49.9159
 21
260.762
  0
LINE
  8
0
 10
49.9159
 20
260.762
 11
49.5497
 21
260.418
  0
LINE
  8
0
 10
49.5497
 20
260.418
 11
49.1433
 21
260.123
  0
LINE
  8
0
 10
49.1433
 20
260.123
 11
48.7031
 21
259.881
  0
LINE
  8
0
 10
48.7031
 20
259.881
 11
48.2361
 21
259.696
  0
LINE
  8
0
 10
48.2361
 20
259.696
 11
47.7495
 21
259.571
  0
LINE
  8
0
 10
47.7495
 20
259.571
 11
47.2512
 21
259.508
  0
LINE
  8
0
 10
47.2512
 20
259.508
 11
-47.2512
 21
259.508
  0
LINE
  8
0
 10
48.4369
 20
219.089
 11
49.0451
 21
219.245
  0
LINE
  8
0
 10
49.0451
 20
219.245
 11
49.6289
 21
219.476
  0
LINE
  8
0
 10
49.6289
 20
219.476
 11
50.1791
 21
219.778
  0
LINE
  8
0
 10
50.1791
 20
219.778
 11
50.6871
 21
220.147
  0
LINE
  8
0
 10
50.6871
 20
220.147
 11
51.1448
 21
220.577
  0
LINE
  8
0
 10
51.1448
 20
220.577
 11
51.5451
 21
221.061
  0
LINE
  8
0
 10
51.5451
 20
221.061
 11
51.8815
 21
221.591
  0
LINE
  8
0
 10
51.8815
 20
221.591
 11
52.1489
 21
222.159
  0
LINE
  8
0
 10
52.1489
 20
222.159
 11
52.3429
 21
222.757
  0
LINE
  8
0
 10
52.3429
 20
222.757
 11
52.4606
 21
223.373
  0
LINE
  8
0
 10
52.4606
 20
223.373
 11
52.5
 21
224
  0
LINE
  8
0
 10
52.5
 20
224
 11
52.5
 21
244
  0
LINE
  8
0
 10
52.5
 20
244
 11
52.4606
 21
244.627
  0
LINE
  8
0
 10
52.4606
 20
244.627
 11
52.3429
 21
245.243
  0
LINE
  8
0
 10
52.3429
 20
245.243
 11
52.1489
 21
245.841
  0
LINE
  8
0
 10
52.1489
 20
245.841
 11
51.8815
 21
246.409
  0
LINE
  8
0
 10
51.8815
 20
246.409
 11
51.5451
 21
246.939
  0
LINE
  8
0
 10
51.5451
 20
246.939
 11
51.1448
 21
247.423
  0
LINE
  8
0
 10
51.1448
 20
247.423
 11
50.6871
 21
247.853
  0
LINE
  8
0
 10
50.6871
 20
247.853
 11
50.1791
 21
248.222
  0
LINE
  8
0
 10
50.1791
 20
248.222
 11
49.6289
 21
248.524
  0
LINE
  8
0
 10
49.6289
 20
248.524
 11
49.0451
 21
248.755
  0
LINE
  8
0
 10
49.0451
 20
248.755
 11
48.4369
 21
248.911
  0
LINE
  8
0
 10
48.4369
 20
248.911
 11
47.8139
 21
248.99
  0
LINE
  8
0
 10
47.8139
 20
248.99
 11
-47.8139
 21
248.99
  0
LINE
  8
0
 10
-47.8139
 20
248.99
 11
-48.4369
 21
248.911
  0
LINE
  8
0
 10
-48.4369
 20
248.911
 11
-49.0451
 21
248.755
  0
LINE
  8
0
 10
-49.0451
 20
248.755
 11
-49.6289
 21
248.524
  0
LINE
  8
0
 10
-49.6289
 20
248.524
 11
-50.1791
 21
248.222
  0
LINE
  8
0
 10
-50.1791
 20
248.222
 11
-50.6871
 21
247.853
  0
LINE
  8
0
 10
-50.6871
 20
247.853
 11
-51
 21
247.559
  0
LINE
  8
0
 10
-51
 20
247.559
 11
-51
 21
248.979
  0
LINE
  8
0
 10
-51
 20
248.979
 11
-54
 21
248.979
  0
LINE
  8
0
 10
-54
 20
248.979
 11
-54
 21
219.021
  0
LINE
  8
0
 10
-54
 20
219.021
 11
-51
 21
219.021
  0
LINE
  8
0
 10
-51
 20
219.021
 11
-51
 21
220.441
  0
LINE
  8
0
 10
-51
 20
220.441
 11
-50.6871
 21
220.147
  0
LINE
  8
0
 10
-50.6871
 20
220.147
 11
-50.1791
 21
219.778
  0
LINE
  8
0
 10
-50.1791
 20
219.778
 11
-49.6289
 21
219.476
  0
LINE
  8
0
 10
-49.6289
 20
219.476
 11
-49.0451
 21
219.245
  0
LINE
  8
0
 10
-49.0451
 20
219.245
 11
-48.4369
 21
219.089
  0
LINE
  8
0
 10
-48.4369
 20
219.089
 11
-47.8139
 21
219.01
  0
LINE
  8
0
 10
-47.8139
 20
219.01
 11
47.8139
 21
219.01
  0
LINE
  8
0
 10
47.8139
 20
219.01
 11
48.4369
 21
219.089
  0
LINE
  8
0
 10
-47.1954
 20
221.393
 11
-47.5833
 21
221.442
  0
LINE
  8
0
 10
-47.5833
 20
221.442
 11
-47.9619
 21
221.539
  0
LINE
  8
0
 10
-47.9619
 20
221.539
 11
-48.3254
 21
221.683
  0
LINE
  8
0
 10
-48.3254
 20
221.683
 11
-48.668
 21
221.872
  0
LINE
  8
0
 10
-48.668
 20
221.872
 11
-48.9842
 21
222.101
  0
LINE
  8
0
 10
-48.9842
 20
222.101
 11
-49.2692
 21
222.369
  0
LINE
  8
0
 10
-49.2692
 20
222.369
 11
-49.5184
 21
222.67
  0
LINE
  8
0
 10
-49.5184
 20
222.67
 11
-49.7279
 21
223
  0
LINE
  8
0
 10
-49.7279
 20
223
 11
-49.8943
 21
223.354
  0
LINE
  8
0
 10
-49.8943
 20
223.354
 11
-50.0151
 21
223.726
  0
LINE
  8
0
 10
-50.0151
 20
223.726
 11
-50.0884
 21
224.11
  0
LINE
  8
0
 10
-50.0884
 20
224.11
 11
-50.1129
 21
224.5
  0
LINE
  8
0
 10
-50.1129
 20
224.5
 11
-50.1129
 21
243.5
  0
LINE
  8
0
 10
-50.1129
 20
243.5
 11
-50.0884
 21
243.89
  0
LINE
  8
0
 10
-50.0884
 20
243.89
 11
-50.0151
 21
244.274
  0
LINE
  8
0
 10
-50.0151
 20
244.274
 11
-49.8943
 21
244.646
  0
LINE
  8
0
 10
-49.8943
 20
244.646
 11
-49.7279
 21
245
  0
LINE
  8
0
 10
-49.7279
 20
245
 11
-49.5184
 21
245.33
  0
LINE
  8
0
 10
-49.5184
 20
245.33
 11
-49.2692
 21
245.631
  0
LINE
  8
0
 10
-49.2692
 20
245.631
 11
-48.9842
 21
245.899
  0
LINE
  8
0
 10
-48.9842
 20
245.899
 11
-48.668
 21
246.128
  0
LINE
  8
0
 10
-48.668
 20
246.128
 11
-48.3254
 21
246.317
  0
LINE
  8
0
 10
-48.3254
 20
246.317
 11
-47.9619
 21
246.461
  0
LINE
  8
0
 10
-47.9619
 20
246.461
 11
-47.5833
 21
246.558
  0
LINE
  8
0
 10
-47.5833
 20
246.558
 11
-47.1954
 21
246.607
  0
LINE
  8
0
 10
-47.1954
 20
246.607
 11
47.1954
 21
246.607
  0
LINE
  8
0
 10
47.1954
 20
246.607
 11
47.5833
 21
246.558
  0
LINE
  8
0
 10
47.5833
 20
246.558
 11
47.9619
 21
246.461
  0
LINE
  8
0
 10
47.9619
 20
246.461
 11
48.3254
 21
246.317
  0
LINE
  8
0
 10
48.3254
 20
246.317
 11
48.668
 21
246.128
  0
LINE
  8
0
 10
48.668
 20
246.128
 11
48.9842
 21
245.899
  0
LINE
  8
0
 10
48.9842
 20
245.899
 11
49.2692
 21
245.631
  0
LINE
  8
0
 10
49.2692
 20
245.631
 11
49.5184
 21
245.33
  0
LINE
  8
0
 10
49.5184
 20
245.33
 11
49.7279
 21
245
  0
LINE
  8
0
 10
49.7279
 20
245
 11
49.8943
 21
244.646
  0
LINE
  8
0
 10
49.8943
 20
244.646
 11
50.0151
 21
244.274
  0
LINE
  8
0
 10
50.0151
 20
244.274
 11
50.0884
 21
243.89
  0
LINE
  8
0
 10
50.0884
 20
243.89
 11
50.1129
 21
243.5
  0
LINE
  8
0
 10
50.1129
 20
243.5
 11
50.1129
 21
224.5
  0
LINE
  8
0
 10
50.1129
 20
224.5
 11
50.0884
 21
224.11
  0
LINE
  8
0
 10
50.0884
 20
224.11
 11
50.0151
 21
223.726
  0
LINE
  8
0
 10
50.0151
 20
223.726
 11
49.8943
 21
223.354
  0
LINE
  8
0
 10
49.8943
 20
223.354
 11
49.7279
 21
223
  0
LINE
  8
0
 10
49.7279
 20
223
 11
49.5184
 21
222.67
  0
LINE
  8
0
 10
49.5184
 20
222.67
 11
49.2692
 21
222.369
  0
LINE
  8
0
 10
49.2692
 20
222.369
 11
48.9842
 21
222.101
  0
LINE
  8
0
 10
48.9842
 20
222.101
 11
48.668
 21
221.872
  0
LINE
  8
0
 10
48.668
 20
221.872
 11
48.3254
 21
221.683
  0
LINE
  8
0
 10
48.3254
 20
221.683
 11
47.9619
 21
221.539
  0
LINE
  8
0
 10
47.9619
 20
221.539
 11
47.5833
 21
221.442
  0
LINE
  8
0
 10
47.5833
 20
221.442
 11
47.1954
 21
221.393
  0
LINE
  8
0
 10
47.1954
 20
221.393
 11
-47.1954
 21
221.393
  0
LINE
  8
0
 10
48.4369
 20
180.089
 11
49.0451
 21
180.245
  0
LINE
  8
0
 10
49.0451
 20
180.245
 11
49.6289
 21
180.476
  0
LINE
  8
0
 10
49.6289
 20
180.476
 11
50.1791
 21
180.778
  0
LINE
  8
0
 10
50.1791
 20
180.778
 11
50.6871
 21
181.147
  0
LINE
  8
0
 10
50.6871
 20
181.147
 11
51.1448
 21
181.577
  0
LINE
  8
0
 10
51.1448
 20
181.577
 11
51.5451
 21
182.061
  0
LINE
  8
0
 10
51.5451
 20
182.061
 11
51.8815
 21
182.591
  0
LINE
  8
0
 10
51.8815
 20
182.591
 11
52.1489
 21
183.159
  0
LINE
  8
0
 10
52.1489
 20
183.159
 11
52.3429
 21
183.757
  0
LINE
  8
0
 10
52.3429
 20
183.757
 11
52.4606
 21
184.373
  0
LINE
  8
0
 10
52.4606
 20
184.373
 11
52.5
 21
185
  0
LINE
  8
0
 10
52.5
 20
185
 11
52.5
 21
205
  0
LINE
  8
0
 10
52.5
 20
205
 11
52.4606
 21
205.627
  0
LINE
  8
0
 10
52.4606
 20
205.627
 11
52.3429
 21
206.243
  0
LINE
  8
0
 10
52.3429
 20
206.243
 11
52.1489
 21
206.841
  0
LINE
  8
0
 10
52.1489
 20
206.841
 11
51.8815
 21
207.409
  0
LINE
  8
0
 10
51.8815
 20
207.409
 11
51.5451
 21
207.939
  0
LINE
  8
0
 10
51.5451
 20
207.939
 11
51.1448
 21
208.423
  0
LINE
  8
0
 10
51.1448
 20
208.423
 11
50.6871
 21
208.853
  0
LINE
  8
0
 10
50.6871
 20
208.853
 11
50.1791
 21
209.222
  0
LINE
  8
0
 10
50.1791
 20
209.222
 11
49.6289
 21
209.524
  0
LINE
  8
0
 10
49.6289
 20
209.524
 11
49.0451
 21
209.755
  0
LINE
  8
0
 10
49.0451
 20
209.755
 11
48.4369
 21
209.911
  0
LINE
  8
0
 10
48.4369
 20
209.911
 11
47.8139
 21
209.99
  0
LINE
  8
0
 10
47.8139
 20
209.99
 11
-47.8139
 21
209.99
  0
LINE
  8
0
 10
-47.8139
 20
209.99
 11
-48.4369
 21
209.911
  0
LINE
  8
0
 10
-48.4369
 20
209.911
 11
-49.0451
 21
209.755
  0
LINE
  8
0
 10
-49.0451
 20
209.755
 11
-49.6289
 21
209.524
  0
LINE
  8
0
 10
-49.6289
 20
209.524
 11
-50.1791
 21
209.222
  0
LINE
  8
0
 10
-50.1791
 20
209.222
 11
-50.6871
 21
208.853
  0
LINE
  8
0
 10
-50.6871
 20
208.853
 11
-51
 21
208.559
  0
LINE
  8
0
 10
-51
 20
208.559
 11
-51
 21
208.653
  0
LINE
  8
0
 10
-51
 20
208.653
 11
-54
 21
208.653
  0
LINE
  8
0
 10
-54
 20
208.653
 11
-54
 21
181.347
  0
LINE
  8
0
 10
-54
 20
181.347
 11
-51
 21
181.347
  0
LINE
  8
0
 10
-51
 20
181.347
 11
-51
 21
181.441
  0
LINE
  8
0
 10
-51
 20
181.441
 11
-50.6871
 21
181.147
  0
LINE
  8
0
 10
-50.6871
 20
181.147
 11
-50.1791
 21
180.778
  0
LINE
  8
0
 10
-50.1791
 20
180.778
 11
-49.6289
 21
180.476
  0
LINE
  8
0
 10
-49.6289
 20
180.476
 11
-49.0451
 21
180.245
  0
LINE
  8
0
 10
-49.0451
 20
180.245
 11
-48.4369
 21
180.089
  0
LINE
  8
0
 10
-48.4369
 20
180.089
 11
-47.8139
 21
180.01
  0
LINE
  8
0
 10
-47.8139
 20
180.01
 11
47.8139
 21
180.01
  0
LINE
  8
0
 10
47.8139
 20
180.01
 11
48.4369
 21
180.089
  0
LINE
  8
0
 10
-45.1341
 20
200.369
 11
-45.4001
 21
200.403
  0
LINE
  8
0
 10
-45.4001
 20
200.403
 11
-45.6598
 21
200.469
  0
LINE
  8
0
 10
-45.6598
 20
200.469
 11
-45.9092
 21
200.568
  0
LINE
  8
0
 10
-45.9092
 20
200.568
 11
-46.1441
 21
200.697
  0
LINE
  8
0
 10
-46.1441
 20
200.697
 11
-46.3611
 21
200.855
  0
LINE
  8
0
 10
-46.3611
 20
200.855
 11
-46.5565
 21
201.038
  0
LINE
  8
0
 10
-46.5565
 20
201.038
 11
-46.7275
 21
201.245
  0
LINE
  8
0
 10
-46.7275
 20
201.245
 11
-46.8712
 21
201.471
  0
LINE
  8
0
 10
-46.8712
 20
201.471
 11
-46.9853
 21
201.714
  0
LINE
  8
0
 10
-46.9853
 20
201.714
 11
-47.0682
 21
201.969
  0
LINE
  8
0
 10
-47.0682
 20
201.969
 11
-47.1185
 21
202.232
  0
LINE
  8
0
 10
-47.1185
 20
202.232
 11
-47.1353
 21
202.5
  0
LINE
  8
0
 10
-47.1353
 20
202.5
 11
-47.1185
 21
202.768
  0
LINE
  8
0
 10
-47.1185
 20
202.768
 11
-47.0682
 21
203.031
  0
LINE
  8
0
 10
-47.0682
 20
203.031
 11
-46.9853
 21
203.286
  0
LINE
  8
0
 10
-46.9853
 20
203.286
 11
-46.8712
 21
203.529
  0
LINE
  8
0
 10
-46.8712
 20
203.529
 11
-46.7275
 21
203.755
  0
LINE
  8
0
 10
-46.7275
 20
203.755
 11
-46.5565
 21
203.962
  0
LINE
  8
0
 10
-46.5565
 20
203.962
 11
-46.3611
 21
204.145
  0
LINE
  8
0
 10
-46.3611
 20
204.145
 11
-46.1441
 21
204.303
  0
LINE
  8
0
 10
-46.1441
 20
204.303
 11
-45.9092
 21
204.432
  0
LINE
  8
0
 10
-45.9092
 20
204.432
 11
-45.6598
 21
204.531
  0
LINE
  8
0
 10
-45.6598
 20
204.531
 11
-45.4001
 21
204.597
  0
LINE
  8
0
 10
-45.4001
 20
204.597
 11
-45.1341
 21
204.631
  0
LINE
  8
0
 10
-45.1341
 20
204.631
 11
-44.8659
 21
204.631
  0
LINE
  8
0
 10
-44.8659
 20
204.631
 11
-44.5999
 21
204.597
  0
LINE
  8
0
 10
-44.5999
 20
204.597
 11
-44.3401
 21
204.531
  0
LINE
  8
0
 10
-44.3401
 20
204.531
 11
-44.0908
 21
204.432
  0
LINE
  8
0
 10
-44.0908
 20
204.432
 11
-43.8559
 21
204.303
  0
LINE
  8
0
 10
-43.8559
 20
204.303
 11
-43.6389
 21
204.145
  0
LINE
  8
0
 10
-43.6389
 20
204.145
 11
-43.4434
 21
203.962
  0
LINE
  8
0
 10
-43.4434
 20
203.962
 11
-43.2725
 21
203.755
  0
LINE
  8
0
 10
-43.2725
 20
203.755
 11
-43.1288
 21
203.529
  0
LINE
  8
0
 10
-43.1288
 20
203.529
 11
-43.0146
 21
203.286
  0
LINE
  8
0
 10
-43.0146
 20
203.286
 11
-42.9318
 21
203.031
  0
LINE
  8
0
 10
-42.9318
 20
203.031
 11
-42.8815
 21
202.768
  0
LINE
  8
0
 10
-42.8815
 20
202.768
 11
-42.8647
 21
202.5
  0
LINE
  8
0
 10
-42.8647
 20
202.5
 11
-42.8815
 21
202.232
  0
LINE
  8
0
 10
-42.8815
 20
202.232
 11
-42.9318
 21
201.969
  0
LINE
  8
0
 10
-42.9318
 20
201.969
 11
-43.0146
 21
201.714
  0
LINE
  8
0
 10
-43.0146
 20
201.714
 11
-43.1288
 21
201.471
  0
LINE
  8
0
 10
-43.1288
 20
201.471
 11
-43.2725
 21
201.245
  0
LINE
  8
0
 10
-43.2725
 20
201.245
 11
-43.4434
 21
201.038
  0
LINE
  8
0
 10
-43.4434
 20
201.038
 11
-43.6389
 21
200.855
  0
LINE
  8
0
 10
-43.6389
 20
200.855
 11
-43.8559
 21
200.697
  0
LINE
  8
0
 10
-43.8559
 20
200.697
 11
-44.0908
 21
200.568
  0
LINE
  8
0
 10
-44.0908
 20
200.568
 11
-44.3401
 21
200.469
  0
LINE
  8
0
 10
-44.3401
 20
200.469
 11
-44.5999
 21
200.403
  0
LINE
  8
0
 10
-44.5999
 20
200.403
 11
-44.8659
 21
200.369
  0
LINE
  8
0
 10
-44.8659
 20
200.369
 11
-45.1341
 21
200.369
  0
LINE
  8
0
 10
44.8659
 20
200.369
 11
44.5999
 21
200.403
  0
LINE
  8
0
 10
44.5999
 20
200.403
 11
44.3401
 21
200.469
  0
LINE
  8
0
 10
44.3401
 20
200.469
 11
44.0908
 21
200.568
  0
LINE
  8
0
 10
44.0908
 20
200.568
 11
43.8559
 21
200.697
  0
LINE
  8
0
 10
43.8559
 20
200.697
 11
43.6389
 21
200.855
  0
LINE
  8
0
 10
43.6389
 20
200.855
 11
43.4434
 21
201.038
  0
LINE
  8
0
 10
43.4434
 20
201.038
 11
43.2725
 21
201.245
  0
LINE
  8
0
 10
43.2725
 20
201.245
 11
43.1288
 21
201.471
  0
LINE
  8
0
 10
43.1288
 20
201.471
 11
43.0146
 21
201.714
  0
LINE
  8
0
 10
43.0146
 20
201.714
 11
42.9318
 21
201.969
  0
LINE
  8
0
 10
42.9318
 20
201.969
 11
42.8815
 21
202.232
  0
LINE
  8
0
 10
42.8815
 20
202.232
 11
42.8647
 21
202.5
  0
LINE
  8
0
 10
42.8647
 20
202.5
 11
42.8815
 21
202.768
  0
LINE
  8
0
 10
42.8815
 20
202.768
 11
42.9318
 21
203.031
  0
LINE
  8
0
 10
42.9318
 20
203.031
 11
43.0146
 21
203.286
  0
LINE
  8
0
 10
43.0146
 20
203.286
 11
43.1288
 21
203.529
  0
LINE
  8
0
 10
43.1288
 20
203.529
 11
43.2725
 21
203.755
  0
LINE
  8
0
 10
43.2725
 20
203.755
 11
43.4434
 21
203.962
  0
LINE
  8
0
 10
43.4434
 20
203.962
 11
43.6389
 21
204.145
  0
LINE
  8
0
 10
43.6389
 20
204.145
 11
43.8559
 21
204.303
  0
LINE
  8
0
 10
43.8559
 20
204.303
 11
44.0908
 21
204.432
  0
LINE
  8
0
 10
44.0908
 20
204.432
 11
44.3401
 21
204.531
  0
LINE
  8
0
 10
44.3401
 20
204.531
 11
44.5999
 21
204.597
  0
LINE
  8
0
 10
44.5999
 20
204.597
 11
44.8659
 21
204.631
  0
LINE
  8
0
 10
44.8659
 20
204.631
 11
45.1341
 21
204.631
  0
LINE
  8
0
 10
45.1341
 20
204.631
 11
45.4001
 21
204.597
  0
LINE
  8
0
 10
45.4001
 20
204.597
 11
45.6598
 21
204.531
  0
LINE
  8
0
 10
45.6598
 20
204.531
 11
45.9092
 21
204.432
  0
LINE
  8
0
 10
45.9092
 20
204.432
 11
46.1441
 21
204.303
  0
LINE
  8
0
 10
46.1441
 20
204.303
 11
46.3611
 21
204.145
  0
LINE
  8
0
 10
46.3611
 20
204.145
 11
46.5565
 21
203.962
  0
LINE
  8
0
 10
46.5565
 20
203.962
 11
46.7275
 21
203.755
  0
LINE
  8
0
 10
46.7275
 20
203.755
 11
46.8712
 21
203.529
  0
LINE
  8
0
 10
46.8712
 20
203.529
 11
46.9853
 21
203.286
  0
LINE
  8
0
 10
46.9853
 20
203.286
 11
47.0682
 21
203.031
  0
LINE
  8
0
 10
47.0682
 20
203.031
 11
47.1185
 21
202.768
  0
LINE
  8
0
 10
47.1185
 20
202.768
 11
47.1353
 21
202.5
  0
LINE
  8
0
 10
47.1353
 20
202.5
 11
47.1185
 21
202.232
  0
LINE
  8
0
 10
47.1185
 20
202.232
 11
47.0682
 21
201.969
  0
LINE
  8
0
 10
47.0682
 20
201.969
 11
46.9853
 21
201.714
  0
LINE
  8
0
 10
46.9853
 20
201.714
 11
46.8712
 21
201.471
  0
LINE
  8
0
 10
46.8712
 20
201.471
 11
46.7275
 21
201.245
  0
LINE
  8
0
 10
46.7275
 20
201.245
 11
46.5565
 21
201.038
  0
LINE
  8
0
 10
46.5565
 20
201.038
 11
46.3611
 21
200.855
  0
LINE
  8
0
 10
46.3611
 20
200.855
 11
46.1441
 21
200.697
  0
LINE
  8
0
 10
46.1441
 20
200.697
 11
45.9092
 21
200.568
  0
LINE
  8
0
 10
45.9092
 20
200.568
 11
45.6598
 21
200.469
  0
LINE
  8
0
 10
45.6598
 20
200.469
 11
45.4001
 21
200.403
  0
LINE
  8
0
 10
45.4001
 20
200.403
 11
45.1341
 21
200.369
  0
LINE
  8
0
 10
45.1341
 20
200.369
 11
44.8659
 21
200.369
  0
LINE
  8
0
 10
-45.1341
 20
185.369
 11
-45.4001
 21
185.403
  0
LINE
  8
0
 10
-45.4001
 20
185.403
 11
-45.6598
 21
185.469
  0
LINE
  8
0
 10
-45.6598
 20
185.469
 11
-45.9092
 21
185.568
  0
LINE
  8
0
 10
-45.9092
 20
185.568
 11
-46.1441
 21
185.697
  0
LINE
  8
0
 10
-46.1441
 20
185.697
 11
-46.3611
 21
185.855
  0
LINE
  8
0
 10
-46.3611
 20
185.855
 11
-46.5565
 21
186.038
  0
LINE
  8
0
 10
-46.5565
 20
186.038
 11
-46.7275
 21
186.245
  0
LINE
  8
0
 10
-46.7275
 20
186.245
 11
-46.8712
 21
186.471
  0
LINE
  8
0
 10
-46.8712
 20
186.471
 11
-46.9853
 21
186.714
  0
LINE
  8
0
 10
-46.9853
 20
186.714
 11
-47.0682
 21
186.969
  0
LINE
  8
0
 10
-47.0682
 20
186.969
 11
-47.1185
 21
187.232
  0
LINE
  8
0
 10
-47.1185
 20
187.232
 11
-47.1353
 21
187.5
  0
LINE
  8
0
 10
-47.1353
 20
187.5
 11
-47.1185
 21
187.768
  0
LINE
  8
0
 10
-47.1185
 20
187.768
 11
-47.0682
 21
188.031
  0
LINE
  8
0
 10
-47.0682
 20
188.031
 11
-46.9853
 21
188.286
  0
LINE
  8
0
 10
-46.9853
 20
188.286
 11
-46.8712
 21
188.529
  0
LINE
  8
0
 10
-46.8712
 20
188.529
 11
-46.7275
 21
188.755
  0
LINE
  8
0
 10
-46.7275
 20
188.755
 11
-46.5565
 21
188.962
  0
LINE
  8
0
 10
-46.5565
 20
188.962
 11
-46.3611
 21
189.145
  0
LINE
  8
0
 10
-46.3611
 20
189.145
 11
-46.1441
 21
189.303
  0
LINE
  8
0
 10
-46.1441
 20
189.303
 11
-45.9092
 21
189.432
  0
LINE
  8
0
 10
-45.9092
 20
189.432
 11
-45.6598
 21
189.531
  0
LINE
  8
0
 10
-45.6598
 20
189.531
 11
-45.4001
 21
189.597
  0
LINE
  8
0
 10
-45.4001
 20
189.597
 11
-45.1341
 21
189.631
  0
LINE
  8
0
 10
-45.1341
 20
189.631
 11
-44.8659
 21
189.631
  0
LINE
  8
0
 10
-44.8659
 20
189.631
 11
-44.5999
 21
189.597
  0
LINE
  8
0
 10
-44.5999
 20
189.597
 11
-44.3401
 21
189.531
  0
LINE
  8
0
 10
-44.3401
 20
189.531
 11
-44.0908
 21
189.432
  0
LINE
  8
0
 10
-44.0908
 20
189.432
 11
-43.8559
 21
189.303
  0
LINE
  8
0
 10
-43.8559
 20
189.303
 11
-43.6389
 21
189.145
  0
LINE
  8
0
 10
-43.6389
 20
189.145
 11
-43.4434
 21
188.962
  0
LINE
  8
0
 10
-43.4434
 20
188.962
 11
-43.2725
 21
188.755
  0
LINE
  8
0
 10
-43.2725
 20
188.755
 11
-43.1288
 21
188.529
  0
LINE
  8
0
 10
-43.1288
 20
188.529
 11
-43.0146
 21
188.286
  0
LINE
  8
0
 10
-43.0146
 20
188.286
 11
-42.9318
 21
188.031
  0
LINE
  8
0
 10
-42.9318
 20
188.031
 11
-42.8815
 21
187.768
  0
LINE
  8
0
 10
-42.8815
 20
187.768
 11
-42.8647
 21
187.5
  0
LINE
  8
0
 10
-42.8647
 20
187.5
 11
-42.8815
 21
187.232
  0
LINE
  8
0
 10
-42.8815
 20
187.232
 11
-42.9318
 21
186.969
  0
LINE
  8
0
 10
-42.9318
 20
186.969
 11
-43.0146
 21
186.714
  0
LINE
  8
0
 10
-43.0146
 20
186.714
 11
-43.1288
 21
186.471
  0
LINE
  8
0
 10
-43.1288
 20
186.471
 11
-43.2725
 21
186.245
  0
LINE
  8
0
 10
-43.2725
 20
186.245
 11
-43.4434
 21
186.038
  0
LINE
  8
0
 10
-43.4434
 20
186.038
 11
-43.6389
 21
185.855
  0
LINE
  8
0
 10
-43.6389
 20
185.855
 11
-43.8559
 21
185.697
  0
LINE
  8
0
 10
-43.8559
 20
185.697
 11
-44.0908
 21
185.568
  0
LINE
  8
0
 10
-44.0908
 20
185.568
 11
-44.3401
 21
185.469
  0
LINE
  8
0
 10
-44.3401
 20
185.469
 11
-44.5999
 21
185.403
  0
LINE
  8
0
 10
-44.5999
 20
185.403
 11
-44.8659
 21
185.369
  0
LINE
  8
0
 10
-44.8659
 20
185.369
 11
-45.1341
 21
185.369
  0
LINE
  8
0
 10
44.8659
 20
185.369
 11
44.5999
 21
185.403
  0
LINE
  8
0
 10
44.5999
 20
185.403
 11
44.3401
 21
185.469
  0
LINE
  8
0
 10
44.3401
 20
185.469
 11
44.0908
 21
185.568
  0
LINE
  8
0
 10
44.0908
 20
185.568
 11
43.8559
 21
185.697
  0
LINE
  8
0
 10
43.8559
 20
185.697
 11
43.6389
 21
185.855
  0
LINE
  8
0
 10
43.6389
 20
185.855
 11
43.4434
 21
186.038
  0
LINE
  8
0
 10
43.4434
 20
186.038
 11
43.2725
 21
186.245
  0
LINE
  8
0
 10
43.2725
 20
186.245
 11
43.1288
 21
186.471
  0
LINE
  8
0
 10
43.1288
 20
186.471
 11
43.0146
 21
186.714
  0
LINE
  8
0
 10
43.0146
 20
186.714
 11
42.9318
 21
186.969
  0
LINE
  8
0
 10
42.9318
 20
186.969
 11
42.8815
 21
187.232
  0
LINE
  8
0
 10
42.8815
 20
187.232
 11
42.8647
 21
187.5
  0
LINE
  8
0
 10
42.8647
 20
187.5
 11
42.8815
 21
187.768
  0
LINE
  8
0
 10
42.8815
 20
187.768
 11
42.9318
 21
188.031
  0
LINE
  8
0
 10
42.9318
 20
188.031
 11
43.0146
 21
188.286
  0
LINE
  8
0
 10
43.0146
 20
188.286
 11
43.1288
 21
188.529
  0
LINE
  8
0
 10
43.1288
 20
188.529
 11
43.2725
 21
188.755
  0
LINE
  8
0
 10
43.2725
 20
188.755
 11
43.4434
 21
188.962
  0
LINE
  8
0
 10
43.4434
 20
188.962
 11
43.6389
 21
189.145
  0
LINE
  8
0
 10
43.6389
 20
189.145
 11
43.8559
 21
189.303
  0
LINE
  8
0
 10
43.8559
 20
189.303
 11
44.0908
 21
189.432
  0
LINE
  8
0
 10
44.0908
 20
189.432
 11
44.3401
 21
189.531
  0
LINE
  8
0
 10
44.3401
 20
189.531
 11
44.5999
 21
189.597
  0
LINE
  8
0
 10
44.5999
 20
189.597
 11
44.8659
 21
189.631
  0
LINE
  8
0
 10
44.8659
 20
189.631
 11
45.1341
 21
189.631
  0
LINE
  8
0
 10
45.1341
 20
189.631
 11
45.4001
 21
189.597
  0
LINE
  8
0
 10
45.4001
 20
189.597
 11
45.6598
 21
189.531
  0
LINE
  8
0
 10
45.6598
 20
189.531
 11
45.9092
 21
189.432
  0
LINE
  8
0
 10
45.9092
 20
189.432
 11
46.1441
 21
189.303
  0
LINE
  8
0
 10
46.1441
 20
189.303
 11
46.3611
 21
189.145
  0
LINE
  8
0
 10
46.3611
 20
189.145
 11
46.5565
 21
188.962
  0
LINE
  8
0
 10
46.5565
 20
188.962
 11
46.7275
 21
188.755
  0
LINE
  8
0
 10
46.7275
 20
188.755
 11
46.8712
 21
188.529
  0
LINE
  8
0
 10
46.8712
 20
188.529
 11
46.9853
 21
188.286
  0
LINE
  8
0
 10
46.9853
 20
188.286
 11
47.0682
 21
188.031
  0
LINE
  8
0
 10
47.0682
 20
188.031
 11
47.1185
 21
187.768
  0
LINE
  8
0
 10
47.1185
 20
187.768
 11
47.1353
 21
187.5
  0
LINE
  8
0
 10
47.1353
 20
187.5
 11
47.1185
 21
187.232
  0
LINE
  8
0
 10
47.1185
 20
187.232
 11
47.0682
 21
186.969
  0
LINE
  8
0
 10
47.0682
 20
186.969
 11
46.9853
 21
186.714
  0
LINE
  8
0
 10
46.9853
 20
186.714
 11
46.8712
 21
186.471
  0
LINE
  8
0
 10
46.8712
 20
186.471
 11
46.7275
 21
186.245
  0
LINE
  8
0
 10
46.7275
 20
186.245
 11
46.5565
 21
186.038
  0
LINE
  8
0
 10
46.5565
 20
186.038
 11
46.3611
 21
185.855
  0
LINE
  8
0
 10
46.3611
 20
185.855
 11
46.1441
 21
185.697
  0
LINE
  8
0
 10
46.1441
 20
185.697
 11
45.9092
 21
185.568
  0
LINE
  8
0
 10
45.9092
 20
185.568
 11
45.6598
 21
185.469
  0
LINE
  8
0
 10
45.6598
 20
185.469
 11
45.4001
 21
185.403
  0
LINE
  8
0
 10
45.4001
 20
185.403
 11
45.1341
 21
185.369
  0
LINE
  8
0
 10
45.1341
 20
185.369
 11
44.8659
 21
185.369
  0
ENDSEC
  0
SECTION
  2
OBJECTS
  0
DICTIONARY
  0
ENDSEC
  0
EOF
