  0
SECTION
  2
BLOCKS
  0
ENDSEC
  0
SECTION
  2
ENTITIES
  0
LINE
  8
0
 10
18.4369
 20
298.589
 11
19.0451
 21
298.745
  0
LINE
  8
0
 10
19.0451
 20
298.745
 11
19.6289
 21
298.976
  0
LINE
  8
0
 10
19.6289
 20
298.976
 11
20.1791
 21
299.278
  0
LINE
  8
0
 10
20.1791
 20
299.278
 11
20.6871
 21
299.647
  0
LINE
  8
0
 10
20.6871
 20
299.647
 11
21.1448
 21
300.077
  0
LINE
  8
0
 10
21.1448
 20
300.077
 11
21.5451
 21
300.561
  0
LINE
  8
0
 10
21.5451
 20
300.561
 11
21.8815
 21
301.091
  0
LINE
  8
0
 10
21.8815
 20
301.091
 11
22.1489
 21
301.659
  0
LINE
  8
0
 10
22.1489
 20
301.659
 11
22.3429
 21
302.257
  0
LINE
  8
0
 10
22.3429
 20
302.257
 11
22.4606
 21
302.873
  0
LINE
  8
0
 10
22.4606
 20
302.873
 11
22.5
 21
303.5
  0
LINE
  8
0
 10
22.5
 20
303.5
 11
22.5
 21
368.5
  0
LINE
  8
0
 10
22.5
 20
368.5
 11
22.4606
 21
369.127
  0
LINE
  8
0
 10
22.4606
 20
369.127
 11
22.3429
 21
369.743
  0
LINE
  8
0
 10
22.3429
 20
369.743
 11
22.1489
 21
370.341
  0
LINE
  8
0
 10
22.1489
 20
370.341
 11
21.8815
 21
370.909
  0
LINE
  8
0
 10
21.8815
 20
370.909
 11
21.5451
 21
371.439
  0
LINE
  8
0
 10
21.5451
 20
371.439
 11
21.1448
 21
371.923
  0
LINE
  8
0
 10
21.1448
 20
371.923
 11
20.6871
 21
372.353
  0
LINE
  8
0
 10
20.6871
 20
372.353
 11
20.1791
 21
372.722
  0
LINE
  8
0
 10
20.1791
 20
372.722
 11
19.6289
 21
373.024
  0
LINE
  8
0
 10
19.6289
 20
373.024
 11
19.0451
 21
373.255
  0
LINE
  8
0
 10
19.0451
 20
373.255
 11
18.4369
 21
373.411
  0
LINE
  8
0
 10
18.4369
 20
373.411
 11
17.8139
 21
373.49
  0
LINE
  8
0
 10
17.8139
 20
373.49
 11
-17.8139
 21
373.49
  0
LINE
  8
0
 10
-17.8139
 20
373.49
 11
-18.4369
 21
373.411
  0
LINE
  8
0
 10
-18.4369
 20
373.411
 11
-19.0451
 21
373.255
  0
LINE
  8
0
 10
-19.0451
 20
373.255
 11
-19.6289
 21
373.024
  0
LINE
  8
0
 10
-19.6289
 20
373.024
 11
-20.1791
 21
372.722
  0
LINE
  8
0
 10
-20.1791
 20
372.722
 11
-20.6871
 21
372.353
  0
LINE
  8
0
 10
-20.6871
 20
372.353
 11
-21.1448
 21
371.923
  0
LINE
  8
0
 10
-21.1448
 20
371.923
 11
-21.5451
 21
371.439
  0
LINE
  8
0
 10
-21.5451
 20
371.439
 11
-21.8815
 21
370.909
  0
LINE
  8
0
 10
-21.8815
 20
370.909
 11
-22.1489
 21
370.341
  0
LINE
  8
0
 10
-22.1489
 20
370.341
 11
-22.3429
 21
369.743
  0
LINE
  8
0
 10
-22.3429
 20
369.743
 11
-22.4606
 21
369.127
  0
LINE
  8
0
 10
-22.4606
 20
369.127
 11
-22.5
 21
368.5
  0
LINE
  8
0
 10
-22.5
 20
368.5
 11
-22.5
 21
303.5
  0
LINE
  8
0
 10
-22.5
 20
303.5
 11
-22.4606
 21
302.873
  0
LINE
  8
0
 10
-22.4606
 20
302.873
 11
-22.3429
 21
302.257
  0
LINE
  8
0
 10
-22.3429
 20
302.257
 11
-22.1489
 21
301.659
  0
LINE
  8
0
 10
-22.1489
 20
301.659
 11
-21.8815
 21
301.091
  0
LINE
  8
0
 10
-21.8815
 20
301.091
 11
-21.5451
 21
300.561
  0
LINE
  8
0
 10
-21.5451
 20
300.561
 11
-21.1448
 21
300.077
  0
LINE
  8
0
 10
-21.1448
 20
300.077
 11
-20.6871
 21
299.647
  0
LINE
  8
0
 10
-20.6871
 20
299.647
 11
-20.1791
 21
299.278
  0
LINE
  8
0
 10
-20.1791
 20
299.278
 11
-19.6289
 21
298.976
  0
LINE
  8
0
 10
-19.6289
 20
298.976
 11
-19.0451
 21
298.745
  0
LINE
  8
0
 10
-19.0451
 20
298.745
 11
-18.4369
 21
298.589
  0
LINE
  8
0
 10
-18.4369
 20
298.589
 11
-17.8139
 21
298.51
  0
LINE
  8
0
 10
-17.8139
 20
298.51
 11
17.8139
 21
298.51
  0
LINE
  8
0
 10
17.8139
 20
298.51
 11
18.4369
 21
298.589
  0
LINE
  8
0
 10
-17.2432
 20
300.135
 11
-17.7256
 21
300.196
  0
LINE
  8
0
 10
-17.7256
 20
300.196
 11
-18.1967
 21
300.317
  0
LINE
  8
0
 10
-18.1967
 20
300.317
 11
-18.6489
 21
300.496
  0
LINE
  8
0
 10
-18.6489
 20
300.496
 11
-19.0751
 21
300.73
  0
LINE
  8
0
 10
-19.0751
 20
300.73
 11
-19.4685
 21
301.016
  0
LINE
  8
0
 10
-19.4685
 20
301.016
 11
-19.823
 21
301.349
  0
LINE
  8
0
 10
-19.823
 20
301.349
 11
-20.133
 21
301.724
  0
LINE
  8
0
 10
-20.133
 20
301.724
 11
-20.3936
 21
302.134
  0
LINE
  8
0
 10
-20.3936
 20
302.134
 11
-20.6007
 21
302.574
  0
LINE
  8
0
 10
-20.6007
 20
302.574
 11
-20.751
 21
303.037
  0
LINE
  8
0
 10
-20.751
 20
303.037
 11
-20.8421
 21
303.515
  0
LINE
  8
0
 10
-20.8421
 20
303.515
 11
-20.8726
 21
304
  0
LINE
  8
0
 10
-20.8726
 20
304
 11
-20.8726
 21
368
  0
LINE
  8
0
 10
-20.8726
 20
368
 11
-20.8421
 21
368.485
  0
LINE
  8
0
 10
-20.8421
 20
368.485
 11
-20.751
 21
368.963
  0
LINE
  8
0
 10
-20.751
 20
368.963
 11
-20.6007
 21
369.426
  0
LINE
  8
0
 10
-20.6007
 20
369.426
 11
-20.3936
 21
369.866
  0
LINE
  8
0
 10
-20.3936
 20
369.866
 11
-20.133
 21
370.276
  0
LINE
  8
0
 10
-20.133
 20
370.276
 11
-19.823
 21
370.651
  0
LINE
  8
0
 10
-19.823
 20
370.651
 11
-19.4685
 21
370.984
  0
LINE
  8
0
 10
-19.4685
 20
370.984
 11
-19.0751
 21
371.27
  0
LINE
  8
0
 10
-19.0751
 20
371.27
 11
-18.6489
 21
371.504
  0
LINE
  8
0
 10
-18.6489
 20
371.504
 11
-18.1967
 21
371.683
  0
LINE
  8
0
 10
-18.1967
 20
371.683
 11
-17.7256
 21
371.804
  0
LINE
  8
0
 10
-17.7256
 20
371.804
 11
-17.2432
 21
371.865
  0
LINE
  8
0
 10
-17.2432
 20
371.865
 11
17.2432
 21
371.865
  0
LINE
  8
0
 10
17.2432
 20
371.865
 11
17.7256
 21
371.804
  0
LINE
  8
0
 10
17.7256
 20
371.804
 11
18.1967
 21
371.683
  0
LINE
  8
0
 10
18.1967
 20
371.683
 11
18.6489
 21
371.504
  0
LINE
  8
0
 10
18.6489
 20
371.504
 11
19.0751
 21
371.27
  0
LINE
  8
0
 10
19.0751
 20
371.27
 11
19.4685
 21
370.984
  0
LINE
  8
0
 10
19.4685
 20
370.984
 11
19.823
 21
370.651
  0
LINE
  8
0
 10
19.823
 20
370.651
 11
20.133
 21
370.276
  0
LINE
  8
0
 10
20.133
 20
370.276
 11
20.3936
 21
369.866
  0
LINE
  8
0
 10
20.3936
 20
369.866
 11
20.6007
 21
369.426
  0
LINE
  8
0
 10
20.6007
 20
369.426
 11
20.751
 21
368.963
  0
LINE
  8
0
 10
20.751
 20
368.963
 11
20.8421
 21
368.485
  0
LINE
  8
0
 10
20.8421
 20
368.485
 11
20.8726
 21
368
  0
LINE
  8
0
 10
20.8726
 20
368
 11
20.8726
 21
304
  0
LINE
  8
0
 10
20.8726
 20
304
 11
20.8421
 21
303.515
  0
LINE
  8
0
 10
20.8421
 20
303.515
 11
20.751
 21
303.037
  0
LINE
  8
0
 10
20.751
 20
303.037
 11
20.6007
 21
302.574
  0
LINE
  8
0
 10
20.6007
 20
302.574
 11
20.3936
 21
302.134
  0
LINE
  8
0
 10
20.3936
 20
302.134
 11
20.133
 21
301.724
  0
LINE
  8
0
 10
20.133
 20
301.724
 11
19.823
 21
301.349
  0
LINE
  8
0
 10
19.823
 20
301.349
 11
19.4685
 21
301.016
  0
LINE
  8
0
 10
19.4685
 20
301.016
 11
19.0751
 21
300.73
  0
LINE
  8
0
 10
19.0751
 20
300.73
 11
18.6489
 21
300.496
  0
LINE
  8
0
 10
18.6489
 20
300.496
 11
18.1967
 21
300.317
  0
LINE
  8
0
 10
18.1967
 20
300.317
 11
17.7256
 21
300.196
  0
LINE
  8
0
 10
17.7256
 20
300.196
 11
17.2432
 21
300.135
  0
LINE
  8
0
 10
17.2432
 20
300.135
 11
-17.2432
 21
300.135
  0
LINE
  8
0
 10
18.4369
 20
214.589
 11
19.0451
 21
214.745
  0
LINE
  8
0
 10
19.0451
 20
214.745
 11
19.6289
 21
214.976
  0
LINE
  8
0
 10
19.6289
 20
214.976
 11
20.1791
 21
215.278
  0
LINE
  8
0
 10
20.1791
 20
215.278
 11
20.6871
 21
215.647
  0
LINE
  8
0
 10
20.6871
 20
215.647
 11
21.1448
 21
216.077
  0
LINE
  8
0
 10
21.1448
 20
216.077
 11
21.5451
 21
216.561
  0
LINE
  8
0
 10
21.5451
 20
216.561
 11
21.8815
 21
217.091
  0
LINE
  8
0
 10
21.8815
 20
217.091
 11
22.1489
 21
217.659
  0
LINE
  8
0
 10
22.1489
 20
217.659
 11
22.3429
 21
218.257
  0
LINE
  8
0
 10
22.3429
 20
218.257
 11
22.4606
 21
218.873
  0
LINE
  8
0
 10
22.4606
 20
218.873
 11
22.5
 21
219.5
  0
LINE
  8
0
 10
22.5
 20
219.5
 11
22.5
 21
284.5
  0
LINE
  8
0
 10
22.5
 20
284.5
 11
22.4606
 21
285.127
  0
LINE
  8
0
 10
22.4606
 20
285.127
 11
22.3429
 21
285.743
  0
LINE
  8
0
 10
22.3429
 20
285.743
 11
22.1489
 21
286.341
  0
LINE
  8
0
 10
22.1489
 20
286.341
 11
21.8815
 21
286.909
  0
LINE
  8
0
 10
21.8815
 20
286.909
 11
21.5451
 21
287.439
  0
LINE
  8
0
 10
21.5451
 20
287.439
 11
21.1448
 21
287.923
  0
LINE
  8
0
 10
21.1448
 20
287.923
 11
20.6871
 21
288.353
  0
LINE
  8
0
 10
20.6871
 20
288.353
 11
20.1791
 21
288.722
  0
LINE
  8
0
 10
20.1791
 20
288.722
 11
19.6289
 21
289.024
  0
LINE
  8
0
 10
19.6289
 20
289.024
 11
19.0451
 21
289.255
  0
LINE
  8
0
 10
19.0451
 20
289.255
 11
18.4369
 21
289.411
  0
LINE
  8
0
 10
18.4369
 20
289.411
 11
17.8139
 21
289.49
  0
LINE
  8
0
 10
17.8139
 20
289.49
 11
-17.8139
 21
289.49
  0
LINE
  8
0
 10
-17.8139
 20
289.49
 11
-18.4369
 21
289.411
  0
LINE
  8
0
 10
-18.4369
 20
289.411
 11
-19.0451
 21
289.255
  0
LINE
  8
0
 10
-19.0451
 20
289.255
 11
-19.6289
 21
289.024
  0
LINE
  8
0
 10
-19.6289
 20
289.024
 11
-20.1791
 21
288.722
  0
LINE
  8
0
 10
-20.1791
 20
288.722
 11
-20.6871
 21
288.353
  0
LINE
  8
0
 10
-20.6871
 20
288.353
 11
-21.1448
 21
287.923
  0
LINE
  8
0
 10
-21.1448
 20
287.923
 11
-21.5451
 21
287.439
  0
LINE
  8
0
 10
-21.5451
 20
287.439
 11
-21.8815
 21
286.909
  0
LINE
  8
0
 10
-21.8815
 20
286.909
 11
-22.1489
 21
286.341
  0
LINE
  8
0
 10
-22.1489
 20
286.341
 11
-22.3429
 21
285.743
  0
LINE
  8
0
 10
-22.3429
 20
285.743
 11
-22.4606
 21
285.127
  0
LINE
  8
0
 10
-22.4606
 20
285.127
 11
-22.5
 21
284.5
  0
LINE
  8
0
 10
-22.5
 20
284.5
 11
-22.5
 21
219.5
  0
LINE
  8
0
 10
-22.5
 20
219.5
 11
-22.4606
 21
218.873
  0
LINE
  8
0
 10
-22.4606
 20
218.873
 11
-22.3429
 21
218.257
  0
LINE
  8
0
 10
-22.3429
 20
218.257
 11
-22.1489
 21
217.659
  0
LINE
  8
0
 10
-22.1489
 20
217.659
 11
-21.8815
 21
217.091
  0
LINE
  8
0
 10
-21.8815
 20
217.091
 11
-21.5451
 21
216.561
  0
LINE
  8
0
 10
-21.5451
 20
216.561
 11
-21.1448
 21
216.077
  0
LINE
  8
0
 10
-21.1448
 20
216.077
 11
-20.6871
 21
215.647
  0
LINE
  8
0
 10
-20.6871
 20
215.647
 11
-20.1791
 21
215.278
  0
LINE
  8
0
 10
-20.1791
 20
215.278
 11
-19.6289
 21
214.976
  0
LINE
  8
0
 10
-19.6289
 20
214.976
 11
-19.0451
 21
214.745
  0
LINE
  8
0
 10
-19.0451
 20
214.745
 11
-18.4369
 21
214.589
  0
LINE
  8
0
 10
-18.4369
 20
214.589
 11
-17.8139
 21
214.51
  0
LINE
  8
0
 10
-17.8139
 20
214.51
 11
17.8139
 21
214.51
  0
LINE
  8
0
 10
17.8139
 20
214.51
 11
18.4369
 21
214.589
  0
LINE
  8
0
 10
18.4369
 20
130.589
 11
19.0451
 21
130.745
  0
LINE
  8
0
 10
19.0451
 20
130.745
 11
19.6289
 21
130.976
  0
LINE
  8
0
 10
19.6289
 20
130.976
 11
20.1791
 21
131.278
  0
LINE
  8
0
 10
20.1791
 20
131.278
 11
20.6871
 21
131.647
  0
LINE
  8
0
 10
20.6871
 20
131.647
 11
21.1448
 21
132.077
  0
LINE
  8
0
 10
21.1448
 20
132.077
 11
21.5451
 21
132.561
  0
LINE
  8
0
 10
21.5451
 20
132.561
 11
21.8815
 21
133.091
  0
LINE
  8
0
 10
21.8815
 20
133.091
 11
22.1489
 21
133.659
  0
LINE
  8
0
 10
22.1489
 20
133.659
 11
22.3429
 21
134.257
  0
LINE
  8
0
 10
22.3429
 20
134.257
 11
22.4606
 21
134.873
  0
LINE
  8
0
 10
22.4606
 20
134.873
 11
22.5
 21
135.5
  0
LINE
  8
0
 10
22.5
 20
135.5
 11
22.5
 21
200.5
  0
LINE
  8
0
 10
22.5
 20
200.5
 11
22.4606
 21
201.127
  0
LINE
  8
0
 10
22.4606
 20
201.127
 11
22.3429
 21
201.743
  0
LINE
  8
0
 10
22.3429
 20
201.743
 11
22.1489
 21
202.341
  0
LINE
  8
0
 10
22.1489
 20
202.341
 11
21.8815
 21
202.909
  0
LINE
  8
0
 10
21.8815
 20
202.909
 11
21.5451
 21
203.439
  0
LINE
  8
0
 10
21.5451
 20
203.439
 11
21.1448
 21
203.923
  0
LINE
  8
0
 10
21.1448
 20
203.923
 11
20.6871
 21
204.353
  0
LINE
  8
0
 10
20.6871
 20
204.353
 11
20.1791
 21
204.722
  0
LINE
  8
0
 10
20.1791
 20
204.722
 11
19.6289
 21
205.024
  0
LINE
  8
0
 10
19.6289
 20
205.024
 11
19.0451
 21
205.255
  0
LINE
  8
0
 10
19.0451
 20
205.255
 11
18.4369
 21
205.411
  0
LINE
  8
0
 10
18.4369
 20
205.411
 11
17.8139
 21
205.49
  0
LINE
  8
0
 10
17.8139
 20
205.49
 11
-17.8139
 21
205.49
  0
LINE
  8
0
 10
-17.8139
 20
205.49
 11
-18.4369
 21
205.411
  0
LINE
  8
0
 10
-18.4369
 20
205.411
 11
-19.0451
 21
205.255
  0
LINE
  8
0
 10
-19.0451
 20
205.255
 11
-19.6289
 21
205.024
  0
LINE
  8
0
 10
-19.6289
 20
205.024
 11
-20.1791
 21
204.722
  0
LINE
  8
0
 10
-20.1791
 20
204.722
 11
-20.6871
 21
204.353
  0
LINE
  8
0
 10
-20.6871
 20
204.353
 11
-21.1448
 21
203.923
  0
LINE
  8
0
 10
-21.1448
 20
203.923
 11
-21.5451
 21
203.439
  0
LINE
  8
0
 10
-21.5451
 20
203.439
 11
-21.8815
 21
202.909
  0
LINE
  8
0
 10
-21.8815
 20
202.909
 11
-22.1489
 21
202.341
  0
LINE
  8
0
 10
-22.1489
 20
202.341
 11
-22.3429
 21
201.743
  0
LINE
  8
0
 10
-22.3429
 20
201.743
 11
-22.4606
 21
201.127
  0
LINE
  8
0
 10
-22.4606
 20
201.127
 11
-22.5
 21
200.5
  0
LINE
  8
0
 10
-22.5
 20
200.5
 11
-22.5
 21
135.5
  0
LINE
  8
0
 10
-22.5
 20
135.5
 11
-22.4606
 21
134.873
  0
LINE
  8
0
 10
-22.4606
 20
134.873
 11
-22.3429
 21
134.257
  0
LINE
  8
0
 10
-22.3429
 20
134.257
 11
-22.1489
 21
133.659
  0
LINE
  8
0
 10
-22.1489
 20
133.659
 11
-21.8815
 21
133.091
  0
LINE
  8
0
 10
-21.8815
 20
133.091
 11
-21.5451
 21
132.561
  0
LINE
  8
0
 10
-21.5451
 20
132.561
 11
-21.1448
 21
132.077
  0
LINE
  8
0
 10
-21.1448
 20
132.077
 11
-20.6871
 21
131.647
  0
LINE
  8
0
 10
-20.6871
 20
131.647
 11
-20.1791
 21
131.278
  0
LINE
  8
0
 10
-20.1791
 20
131.278
 11
-19.6289
 21
130.976
  0
LINE
  8
0
 10
-19.6289
 20
130.976
 11
-19.0451
 21
130.745
  0
LINE
  8
0
 10
-19.0451
 20
130.745
 11
-18.4369
 21
130.589
  0
LINE
  8
0
 10
-18.4369
 20
130.589
 11
-17.8139
 21
130.51
  0
LINE
  8
0
 10
-17.8139
 20
130.51
 11
17.8139
 21
130.51
  0
LINE
  8
0
 10
17.8139
 20
130.51
 11
18.4369
 21
130.589
  0
LINE
  8
0
 10
14.887
 20
196.204
 11
14.6627
 21
196.232
  0
LINE
  8
0
 10
14.6627
 20
196.232
 11
14.4438
 21
196.288
  0
LINE
  8
0
 10
14.4438
 20
196.288
 11
14.2336
 21
196.371
  0
LINE
  8
0
 10
14.2336
 20
196.371
 11
14.0355
 21
196.48
  0
LINE
  8
0
 10
14.0355
 20
196.48
 11
13.8526
 21
196.613
  0
LINE
  8
0
 10
13.8526
 20
196.613
 11
13.6879
 21
196.768
  0
LINE
  8
0
 10
13.6879
 20
196.768
 11
13.5438
 21
196.942
  0
LINE
  8
0
 10
13.5438
 20
196.942
 11
13.4226
 21
197.133
  0
LINE
  8
0
 10
13.4226
 20
197.133
 11
13.3264
 21
197.337
  0
LINE
  8
0
 10
13.3264
 20
197.337
 11
13.2565
 21
197.552
  0
LINE
  8
0
 10
13.2565
 20
197.552
 11
13.2142
 21
197.774
  0
LINE
  8
0
 10
13.2142
 20
197.774
 11
13.2
 21
198
  0
LINE
  8
0
 10
13.2
 20
198
 11
13.2142
 21
198.226
  0
LINE
  8
0
 10
13.2142
 20
198.226
 11
13.2565
 21
198.448
  0
LINE
  8
0
 10
13.2565
 20
198.448
 11
13.3264
 21
198.663
  0
LINE
  8
0
 10
13.3264
 20
198.663
 11
13.4226
 21
198.867
  0
LINE
  8
0
 10
13.4226
 20
198.867
 11
13.5438
 21
199.058
  0
LINE
  8
0
 10
13.5438
 20
199.058
 11
13.6879
 21
199.232
  0
LINE
  8
0
 10
13.6879
 20
199.232
 11
13.8526
 21
199.387
  0
LINE
  8
0
 10
13.8526
 20
199.387
 11
14.0355
 21
199.52
  0
LINE
  8
0
 10
14.0355
 20
199.52
 11
14.2336
 21
199.629
  0
LINE
  8
0
 10
14.2336
 20
199.629
 11
14.4438
 21
199.712
  0
LINE
  8
0
 10
14.4438
 20
199.712
 11
14.6627
 21
199.768
  0
LINE
  8
0
 10
14.6627
 20
199.768
 11
14.887
 21
199.796
  0
LINE
  8
0
 10
14.887
 20
199.796
 11
15.113
 21
199.796
  0
LINE
  8
0
 10
15.113
 20
199.796
 11
15.3373
 21
199.768
  0
LINE
  8
0
 10
15.3373
 20
199.768
 11
15.5562
 21
199.712
  0
LINE
  8
0
 10
15.5562
 20
199.712
 11
15.7664
 21
199.629
  0
LINE
  8
0
 10
15.7664
 20
199.629
 11
15.9645
 21
199.52
  0
LINE
  8
0
 10
15.9645
 20
199.52
 11
16.1474
 21
199.387
  0
LINE
  8
0
 10
16.1474
 20
199.387
 11
16.3121
 21
199.232
  0
LINE
  8
0
 10
16.3121
 20
199.232
 11
16.4562
 21
199.058
  0
LINE
  8
0
 10
16.4562
 20
199.058
 11
16.5773
 21
198.867
  0
LINE
  8
0
 10
16.5773
 20
198.867
 11
16.6736
 21
198.663
  0
LINE
  8
0
 10
16.6736
 20
198.663
 11
16.7434
 21
198.448
  0
LINE
  8
0
 10
16.7434
 20
198.448
 11
16.7858
 21
198.226
  0
LINE
  8
0
 10
16.7858
 20
198.226
 11
16.8
 21
198
  0
LINE
  8
0
 10
16.8
 20
198
 11
16.7858
 21
197.774
  0
LINE
  8
0
 10
16.7858
 20
197.774
 11
16.7434
 21
197.552
  0
LINE
  8
0
 10
16.7434
 20
197.552
 11
16.6736
 21
197.337
  0
LINE
  8
0
 10
16.6736
 20
197.337
 11
16.5773
 21
197.133
  0
LINE
  8
0
 10
16.5773
 20
197.133
 11
16.4562
 21
196.942
  0
LINE
  8
0
 10
16.4562
 20
196.942
 11
16.3121
 21
196.768
  0
LINE
  8
0
 10
16.3121
 20
196.768
 11
16.1474
 21
196.613
  0
LINE
  8
0
 10
16.1474
 20
196.613
 11
15.9645
 21
196.48
  0
LINE
  8
0
 10
15.9645
 20
196.48
 11
15.7664
 21
196.371
  0
LINE
  8
0
 10
15.7664
 20
196.371
 11
15.5562
 21
196.288
  0
LINE
  8
0
 10
15.5562
 20
196.288
 11
15.3373
 21
196.232
  0
LINE
  8
0
 10
15.3373
 20
196.232
 11
15.113
 21
196.204
  0
LINE
  8
0
 10
15.113
 20
196.204
 11
14.887
 21
196.204
  0
LINE
  8
0
 10
-15.113
 20
196.204
 11
-15.3373
 21
196.232
  0
LINE
  8
0
 10
-15.3373
 20
196.232
 11
-15.5562
 21
196.288
  0
LINE
  8
0
 10
-15.5562
 20
196.288
 11
-15.7664
 21
196.371
  0
LINE
  8
0
 10
-15.7664
 20
196.371
 11
-15.9645
 21
196.48
  0
LINE
  8
0
 10
-15.9645
 20
196.48
 11
-16.1474
 21
196.613
  0
LINE
  8
0
 10
-16.1474
 20
196.613
 11
-16.3121
 21
196.768
  0
LINE
  8
0
 10
-16.3121
 20
196.768
 11
-16.4562
 21
196.942
  0
LINE
  8
0
 10
-16.4562
 20
196.942
 11
-16.5773
 21
197.133
  0
LINE
  8
0
 10
-16.5773
 20
197.133
 11
-16.6736
 21
197.337
  0
LINE
  8
0
 10
-16.6736
 20
197.337
 11
-16.7434
 21
197.552
  0
LINE
  8
0
 10
-16.7434
 20
197.552
 11
-16.7858
 21
197.774
  0
LINE
  8
0
 10
-16.7858
 20
197.774
 11
-16.8
 21
198
  0
LINE
  8
0
 10
-16.8
 20
198
 11
-16.7858
 21
198.226
  0
LINE
  8
0
 10
-16.7858
 20
198.226
 11
-16.7434
 21
198.448
  0
LINE
  8
0
 10
-16.7434
 20
198.448
 11
-16.6736
 21
198.663
  0
LINE
  8
0
 10
-16.6736
 20
198.663
 11
-16.5773
 21
198.867
  0
LINE
  8
0
 10
-16.5773
 20
198.867
 11
-16.4562
 21
199.058
  0
LINE
  8
0
 10
-16.4562
 20
199.058
 11
-16.3121
 21
199.232
  0
LINE
  8
0
 10
-16.3121
 20
199.232
 11
-16.1474
 21
199.387
  0
LINE
  8
0
 10
-16.1474
 20
199.387
 11
-15.9645
 21
199.52
  0
LINE
  8
0
 10
-15.9645
 20
199.52
 11
-15.7664
 21
199.629
  0
LINE
  8
0
 10
-15.7664
 20
199.629
 11
-15.5562
 21
199.712
  0
LINE
  8
0
 10
-15.5562
 20
199.712
 11
-15.3373
 21
199.768
  0
LINE
  8
0
 10
-15.3373
 20
199.768
 11
-15.113
 21
199.796
  0
LINE
  8
0
 10
-15.113
 20
199.796
 11
-14.887
 21
199.796
  0
LINE
  8
0
 10
-14.887
 20
199.796
 11
-14.6627
 21
199.768
  0
LINE
  8
0
 10
-14.6627
 20
199.768
 11
-14.4438
 21
199.712
  0
LINE
  8
0
 10
-14.4438
 20
199.712
 11
-14.2336
 21
199.629
  0
LINE
  8
0
 10
-14.2336
 20
199.629
 11
-14.0355
 21
199.52
  0
LINE
  8
0
 10
-14.0355
 20
199.52
 11
-13.8526
 21
199.387
  0
LINE
  8
0
 10
-13.8526
 20
199.387
 11
-13.6879
 21
199.232
  0
LINE
  8
0
 10
-13.6879
 20
199.232
 11
-13.5438
 21
199.058
  0
LINE
  8
0
 10
-13.5438
 20
199.058
 11
-13.4226
 21
198.867
  0
LINE
  8
0
 10
-13.4226
 20
198.867
 11
-13.3264
 21
198.663
  0
LINE
  8
0
 10
-13.3264
 20
198.663
 11
-13.2565
 21
198.448
  0
LINE
  8
0
 10
-13.2565
 20
198.448
 11
-13.2142
 21
198.226
  0
LINE
  8
0
 10
-13.2142
 20
198.226
 11
-13.2
 21
198
  0
LINE
  8
0
 10
-13.2
 20
198
 11
-13.2142
 21
197.774
  0
LINE
  8
0
 10
-13.2142
 20
197.774
 11
-13.2565
 21
197.552
  0
LINE
  8
0
 10
-13.2565
 20
197.552
 11
-13.3264
 21
197.337
  0
LINE
  8
0
 10
-13.3264
 20
197.337
 11
-13.4226
 21
197.133
  0
LINE
  8
0
 10
-13.4226
 20
197.133
 11
-13.5438
 21
196.942
  0
LINE
  8
0
 10
-13.5438
 20
196.942
 11
-13.6879
 21
196.768
  0
LINE
  8
0
 10
-13.6879
 20
196.768
 11
-13.8526
 21
196.613
  0
LINE
  8
0
 10
-13.8526
 20
196.613
 11
-14.0355
 21
196.48
  0
LINE
  8
0
 10
-14.0355
 20
196.48
 11
-14.2336
 21
196.371
  0
LINE
  8
0
 10
-14.2336
 20
196.371
 11
-14.4438
 21
196.288
  0
LINE
  8
0
 10
-14.4438
 20
196.288
 11
-14.6627
 21
196.232
  0
LINE
  8
0
 10
-14.6627
 20
196.232
 11
-14.887
 21
196.204
  0
LINE
  8
0
 10
-14.887
 20
196.204
 11
-15.113
 21
196.204
  0
LINE
  8
0
 10
14.887
 20
136.204
 11
14.6627
 21
136.232
  0
LINE
  8
0
 10
14.6627
 20
136.232
 11
14.4438
 21
136.288
  0
LINE
  8
0
 10
14.4438
 20
136.288
 11
14.2336
 21
136.371
  0
LINE
  8
0
 10
14.2336
 20
136.371
 11
14.0355
 21
136.48
  0
LINE
  8
0
 10
14.0355
 20
136.48
 11
13.8526
 21
136.613
  0
LINE
  8
0
 10
13.8526
 20
136.613
 11
13.6879
 21
136.768
  0
LINE
  8
0
 10
13.6879
 20
136.768
 11
13.5438
 21
136.942
  0
LINE
  8
0
 10
13.5438
 20
136.942
 11
13.4226
 21
137.133
  0
LINE
  8
0
 10
13.4226
 20
137.133
 11
13.3264
 21
137.337
  0
LINE
  8
0
 10
13.3264
 20
137.337
 11
13.2565
 21
137.552
  0
LINE
  8
0
 10
13.2565
 20
137.552
 11
13.2142
 21
137.774
  0
LINE
  8
0
 10
13.2142
 20
137.774
 11
13.2
 21
138
  0
LINE
  8
0
 10
13.2
 20
138
 11
13.2142
 21
138.226
  0
LINE
  8
0
 10
13.2142
 20
138.226
 11
13.2565
 21
138.448
  0
LINE
  8
0
 10
13.2565
 20
138.448
 11
13.3264
 21
138.663
  0
LINE
  8
0
 10
13.3264
 20
138.663
 11
13.4226
 21
138.867
  0
LINE
  8
0
 10
13.4226
 20
138.867
 11
13.5438
 21
139.058
  0
LINE
  8
0
 10
13.5438
 20
139.058
 11
13.6879
 21
139.232
  0
LINE
  8
0
 10
13.6879
 20
139.232
 11
13.8526
 21
139.387
  0
LINE
  8
0
 10
13.8526
 20
139.387
 11
14.0355
 21
139.52
  0
LINE
  8
0
 10
14.0355
 20
139.52
 11
14.2336
 21
139.629
  0
LINE
  8
0
 10
14.2336
 20
139.629
 11
14.4438
 21
139.712
  0
LINE
  8
0
 10
14.4438
 20
139.712
 11
14.6627
 21
139.768
  0
LINE
  8
0
 10
14.6627
 20
139.768
 11
14.887
 21
139.796
  0
LINE
  8
0
 10
14.887
 20
139.796
 11
15.113
 21
139.796
  0
LINE
  8
0
 10
15.113
 20
139.796
 11
15.3373
 21
139.768
  0
LINE
  8
0
 10
15.3373
 20
139.768
 11
15.5562
 21
139.712
  0
LINE
  8
0
 10
15.5562
 20
139.712
 11
15.7664
 21
139.629
  0
LINE
  8
0
 10
15.7664
 20
139.629
 11
15.9645
 21
139.52
  0
LINE
  8
0
 10
15.9645
 20
139.52
 11
16.1474
 21
139.387
  0
LINE
  8
0
 10
16.1474
 20
139.387
 11
16.3121
 21
139.232
  0
LINE
  8
0
 10
16.3121
 20
139.232
 11
16.4562
 21
139.058
  0
LINE
  8
0
 10
16.4562
 20
139.058
 11
16.5773
 21
138.867
  0
LINE
  8
0
 10
16.5773
 20
138.867
 11
16.6736
 21
138.663
  0
LINE
  8
0
 10
16.6736
 20
138.663
 11
16.7434
 21
138.448
  0
LINE
  8
0
 10
16.7434
 20
138.448
 11
16.7858
 21
138.226
  0
LINE
  8
0
 10
16.7858
 20
138.226
 11
16.8
 21
138
  0
LINE
  8
0
 10
16.8
 20
138
 11
16.7858
 21
137.774
  0
LINE
  8
0
 10
16.7858
 20
137.774
 11
16.7434
 21
137.552
  0
LINE
  8
0
 10
16.7434
 20
137.552
 11
16.6736
 21
137.337
  0
LINE
  8
0
 10
16.6736
 20
137.337
 11
16.5773
 21
137.133
  0
LINE
  8
0
 10
16.5773
 20
137.133
 11
16.4562
 21
136.942
  0
LINE
  8
0
 10
16.4562
 20
136.942
 11
16.3121
 21
136.768
  0
LINE
  8
0
 10
16.3121
 20
136.768
 11
16.1474
 21
136.613
  0
LINE
  8
0
 10
16.1474
 20
136.613
 11
15.9645
 21
136.48
  0
LINE
  8
0
 10
15.9645
 20
136.48
 11
15.7664
 21
136.371
  0
LINE
  8
0
 10
15.7664
 20
136.371
 11
15.5562
 21
136.288
  0
LINE
  8
0
 10
15.5562
 20
136.288
 11
15.3373
 21
136.232
  0
LINE
  8
0
 10
15.3373
 20
136.232
 11
15.113
 21
136.204
  0
LINE
  8
0
 10
15.113
 20
136.204
 11
14.887
 21
136.204
  0
LINE
  8
0
 10
-15.113
 20
136.204
 11
-15.3373
 21
136.232
  0
LINE
  8
0
 10
-15.3373
 20
136.232
 11
-15.5562
 21
136.288
  0
LINE
  8
0
 10
-15.5562
 20
136.288
 11
-15.7664
 21
136.371
  0
LINE
  8
0
 10
-15.7664
 20
136.371
 11
-15.9645
 21
136.48
  0
LINE
  8
0
 10
-15.9645
 20
136.48
 11
-16.1474
 21
136.613
  0
LINE
  8
0
 10
-16.1474
 20
136.613
 11
-16.3121
 21
136.768
  0
LINE
  8
0
 10
-16.3121
 20
136.768
 11
-16.4562
 21
136.942
  0
LINE
  8
0
 10
-16.4562
 20
136.942
 11
-16.5773
 21
137.133
  0
LINE
  8
0
 10
-16.5773
 20
137.133
 11
-16.6736
 21
137.337
  0
LINE
  8
0
 10
-16.6736
 20
137.337
 11
-16.7434
 21
137.552
  0
LINE
  8
0
 10
-16.7434
 20
137.552
 11
-16.7858
 21
137.774
  0
LINE
  8
0
 10
-16.7858
 20
137.774
 11
-16.8
 21
138
  0
LINE
  8
0
 10
-16.8
 20
138
 11
-16.7858
 21
138.226
  0
LINE
  8
0
 10
-16.7858
 20
138.226
 11
-16.7434
 21
138.448
  0
LINE
  8
0
 10
-16.7434
 20
138.448
 11
-16.6736
 21
138.663
  0
LINE
  8
0
 10
-16.6736
 20
138.663
 11
-16.5773
 21
138.867
  0
LINE
  8
0
 10
-16.5773
 20
138.867
 11
-16.4562
 21
139.058
  0
LINE
  8
0
 10
-16.4562
 20
139.058
 11
-16.3121
 21
139.232
  0
LINE
  8
0
 10
-16.3121
 20
139.232
 11
-16.1474
 21
139.387
  0
LINE
  8
0
 10
-16.1474
 20
139.387
 11
-15.9645
 21
139.52
  0
LINE
  8
0
 10
-15.9645
 20
139.52
 11
-15.7664
 21
139.629
  0
LINE
  8
0
 10
-15.7664
 20
139.629
 11
-15.5562
 21
139.712
  0
LINE
  8
0
 10
-15.5562
 20
139.712
 11
-15.3373
 21
139.768
  0
LINE
  8
0
 10
-15.3373
 20
139.768
 11
-15.113
 21
139.796
  0
LINE
  8
0
 10
-15.113
 20
139.796
 11
-14.887
 21
139.796
  0
LINE
  8
0
 10
-14.887
 20
139.796
 11
-14.6627
 21
139.768
  0
LINE
  8
0
 10
-14.6627
 20
139.768
 11
-14.4438
 21
139.712
  0
LINE
  8
0
 10
-14.4438
 20
139.712
 11
-14.2336
 21
139.629
  0
LINE
  8
0
 10
-14.2336
 20
139.629
 11
-14.0355
 21
139.52
  0
LINE
  8
0
 10
-14.0355
 20
139.52
 11
-13.8526
 21
139.387
  0
LINE
  8
0
 10
-13.8526
 20
139.387
 11
-13.6879
 21
139.232
  0
LINE
  8
0
 10
-13.6879
 20
139.232
 11
-13.5438
 21
139.058
  0
LINE
  8
0
 10
-13.5438
 20
139.058
 11
-13.4226
 21
138.867
  0
LINE
  8
0
 10
-13.4226
 20
138.867
 11
-13.3264
 21
138.663
  0
LINE
  8
0
 10
-13.3264
 20
138.663
 11
-13.2565
 21
138.448
  0
LINE
  8
0
 10
-13.2565
 20
138.448
 11
-13.2142
 21
138.226
  0
LINE
  8
0
 10
-13.2142
 20
138.226
 11
-13.2
 21
138
  0
LINE
  8
0
 10
-13.2
 20
138
 11
-13.2142
 21
137.774
  0
LINE
  8
0
 10
-13.2142
 20
137.774
 11
-13.2565
 21
137.552
  0
LINE
  8
0
 10
-13.2565
 20
137.552
 11
-13.3264
 21
137.337
  0
LINE
  8
0
 10
-13.3264
 20
137.337
 11
-13.4226
 21
137.133
  0
LINE
  8
0
 10
-13.4226
 20
137.133
 11
-13.5438
 21
136.942
  0
LINE
  8
0
 10
-13.5438
 20
136.942
 11
-13.6879
 21
136.768
  0
LINE
  8
0
 10
-13.6879
 20
136.768
 11
-13.8526
 21
136.613
  0
LINE
  8
0
 10
-13.8526
 20
136.613
 11
-14.0355
 21
136.48
  0
LINE
  8
0
 10
-14.0355
 20
136.48
 11
-14.2336
 21
136.371
  0
LINE
  8
0
 10
-14.2336
 20
136.371
 11
-14.4438
 21
136.288
  0
LINE
  8
0
 10
-14.4438
 20
136.288
 11
-14.6627
 21
136.232
  0
LINE
  8
0
 10
-14.6627
 20
136.232
 11
-14.887
 21
136.204
  0
LINE
  8
0
 10
-14.887
 20
136.204
 11
-15.113
 21
136.204
  0
ENDSEC
  0
SECTION
  2
OBJECTS
  0
DICTIONARY
  0
ENDSEC
  0
EOF
