  0
SECTION
  2
BLOCKS
  0
ENDSEC
  0
SECTION
  2
ENTITIES
  0
LINE
  8
0
 10
3.4369
 20
1483.59
 11
4.04507
 21
1483.74
  0
LINE
  8
0
 10
4.04507
 20
1483.74
 11
4.62889
 21
1483.98
  0
LINE
  8
0
 10
4.62889
 20
1483.98
 11
5.17912
 21
1484.28
  0
LINE
  8
0
 10
5.17912
 20
1484.28
 11
5.68712
 21
1484.65
  0
LINE
  8
0
 10
5.68712
 20
1484.65
 11
6.14484
 21
1485.08
  0
LINE
  8
0
 10
6.14484
 20
1485.08
 11
6.54507
 21
1485.56
  0
LINE
  8
0
 10
6.54507
 20
1485.56
 11
6.88153
 21
1486.09
  0
LINE
  8
0
 10
6.88153
 20
1486.09
 11
7.14888
 21
1486.66
  0
LINE
  8
0
 10
7.14888
 20
1486.66
 11
7.34291
 21
1487.26
  0
LINE
  8
0
 10
7.34291
 20
1487.26
 11
7.46057
 21
1487.87
  0
LINE
  8
0
 10
7.46057
 20
1487.87
 11
7.5
 21
1488.5
  0
LINE
  8
0
 10
7.5
 20
1488.5
 11
7.5
 21
1643.5
  0
LINE
  8
0
 10
7.5
 20
1643.5
 11
7.46057
 21
1644.13
  0
LINE
  8
0
 10
7.46057
 20
1644.13
 11
7.34291
 21
1644.74
  0
LINE
  8
0
 10
7.34291
 20
1644.74
 11
7.14888
 21
1645.34
  0
LINE
  8
0
 10
7.14888
 20
1645.34
 11
6.88153
 21
1645.91
  0
LINE
  8
0
 10
6.88153
 20
1645.91
 11
6.54507
 21
1646.44
  0
LINE
  8
0
 10
6.54507
 20
1646.44
 11
6.14484
 21
1646.92
  0
LINE
  8
0
 10
6.14484
 20
1646.92
 11
5.68712
 21
1647.35
  0
LINE
  8
0
 10
5.68712
 20
1647.35
 11
5.17912
 21
1647.72
  0
LINE
  8
0
 10
5.17912
 20
1647.72
 11
4.62889
 21
1648.02
  0
LINE
  8
0
 10
4.62889
 20
1648.02
 11
4.04507
 21
1648.26
  0
LINE
  8
0
 10
4.04507
 20
1648.26
 11
3.4369
 21
1648.41
  0
LINE
  8
0
 10
3.4369
 20
1648.41
 11
2.81395
 21
1648.49
  0
LINE
  8
0
 10
2.81395
 20
1648.49
 11
-2.81395
 21
1648.49
  0
LINE
  8
0
 10
-2.81395
 20
1648.49
 11
-3.4369
 21
1648.41
  0
LINE
  8
0
 10
-3.4369
 20
1648.41
 11
-4.04507
 21
1648.26
  0
LINE
  8
0
 10
-4.04507
 20
1648.26
 11
-4.62889
 21
1648.02
  0
LINE
  8
0
 10
-4.62889
 20
1648.02
 11
-5.17912
 21
1647.72
  0
LINE
  8
0
 10
-5.17912
 20
1647.72
 11
-5.68712
 21
1647.35
  0
LINE
  8
0
 10
-5.68712
 20
1647.35
 11
-6.14484
 21
1646.92
  0
LINE
  8
0
 10
-6.14484
 20
1646.92
 11
-6.54507
 21
1646.44
  0
LINE
  8
0
 10
-6.54507
 20
1646.44
 11
-6.88153
 21
1645.91
  0
LINE
  8
0
 10
-6.88153
 20
1645.91
 11
-7.14888
 21
1645.34
  0
LINE
  8
0
 10
-7.14888
 20
1645.34
 11
-7.34291
 21
1644.74
  0
LINE
  8
0
 10
-7.34291
 20
1644.74
 11
-7.46057
 21
1644.13
  0
LINE
  8
0
 10
-7.46057
 20
1644.13
 11
-7.5
 21
1643.5
  0
LINE
  8
0
 10
-7.5
 20
1643.5
 11
-7.5
 21
1488.5
  0
LINE
  8
0
 10
-7.5
 20
1488.5
 11
-7.46057
 21
1487.87
  0
LINE
  8
0
 10
-7.46057
 20
1487.87
 11
-7.34291
 21
1487.26
  0
LINE
  8
0
 10
-7.34291
 20
1487.26
 11
-7.14888
 21
1486.66
  0
LINE
  8
0
 10
-7.14888
 20
1486.66
 11
-6.88153
 21
1486.09
  0
LINE
  8
0
 10
-6.88153
 20
1486.09
 11
-6.54507
 21
1485.56
  0
LINE
  8
0
 10
-6.54507
 20
1485.56
 11
-6.14484
 21
1485.08
  0
LINE
  8
0
 10
-6.14484
 20
1485.08
 11
-5.68712
 21
1484.65
  0
LINE
  8
0
 10
-5.68712
 20
1484.65
 11
-5.17912
 21
1484.28
  0
LINE
  8
0
 10
-5.17912
 20
1484.28
 11
-4.62889
 21
1483.98
  0
LINE
  8
0
 10
-4.62889
 20
1483.98
 11
-4.04507
 21
1483.74
  0
LINE
  8
0
 10
-4.04507
 20
1483.74
 11
-3.4369
 21
1483.59
  0
LINE
  8
0
 10
-3.4369
 20
1483.59
 11
-2.81395
 21
1483.51
  0
LINE
  8
0
 10
-2.81395
 20
1483.51
 11
2.81395
 21
1483.51
  0
LINE
  8
0
 10
2.81395
 20
1483.51
 11
3.4369
 21
1483.59
  0
LINE
  8
0
 10
-2.25116
 20
1485.01
 11
-2.74951
 21
1485.07
  0
LINE
  8
0
 10
-2.74951
 20
1485.07
 11
-3.23605
 21
1485.2
  0
LINE
  8
0
 10
-3.23605
 20
1485.2
 11
-3.70311
 21
1485.38
  0
LINE
  8
0
 10
-3.70311
 20
1485.38
 11
-4.1433
 21
1485.62
  0
LINE
  8
0
 10
-4.1433
 20
1485.62
 11
-4.54968
 21
1485.92
  0
LINE
  8
0
 10
-4.54968
 20
1485.92
 11
-4.91586
 21
1486.26
  0
LINE
  8
0
 10
-4.91586
 20
1486.26
 11
-5.23605
 21
1486.65
  0
LINE
  8
0
 10
-5.23605
 20
1486.65
 11
-5.50522
 21
1487.07
  0
LINE
  8
0
 10
-5.50522
 20
1487.07
 11
-5.7191
 21
1487.53
  0
LINE
  8
0
 10
-5.7191
 20
1487.53
 11
-5.87433
 21
1488.01
  0
LINE
  8
0
 10
-5.87433
 20
1488.01
 11
-5.96844
 21
1488.5
  0
LINE
  8
0
 10
-5.96844
 20
1488.5
 11
-6
 21
1489
  0
LINE
  8
0
 10
-6
 20
1489
 11
-6
 21
1643
  0
LINE
  8
0
 10
-6
 20
1643
 11
-5.96844
 21
1643.5
  0
LINE
  8
0
 10
-5.96844
 20
1643.5
 11
-5.87433
 21
1643.99
  0
LINE
  8
0
 10
-5.87433
 20
1643.99
 11
-5.7191
 21
1644.47
  0
LINE
  8
0
 10
-5.7191
 20
1644.47
 11
-5.50522
 21
1644.93
  0
LINE
  8
0
 10
-5.50522
 20
1644.93
 11
-5.23605
 21
1645.35
  0
LINE
  8
0
 10
-5.23605
 20
1645.35
 11
-4.91586
 21
1645.74
  0
LINE
  8
0
 10
-4.91586
 20
1645.74
 11
-4.54968
 21
1646.08
  0
LINE
  8
0
 10
-4.54968
 20
1646.08
 11
-4.1433
 21
1646.38
  0
LINE
  8
0
 10
-4.1433
 20
1646.38
 11
-3.70311
 21
1646.62
  0
LINE
  8
0
 10
-3.70311
 20
1646.62
 11
-3.23605
 21
1646.8
  0
LINE
  8
0
 10
-3.23605
 20
1646.8
 11
-2.74951
 21
1646.93
  0
LINE
  8
0
 10
-2.74951
 20
1646.93
 11
-2.25116
 21
1646.99
  0
LINE
  8
0
 10
-2.25116
 20
1646.99
 11
2.25116
 21
1646.99
  0
LINE
  8
0
 10
2.25116
 20
1646.99
 11
2.74951
 21
1646.93
  0
LINE
  8
0
 10
2.74951
 20
1646.93
 11
3.23605
 21
1646.8
  0
LINE
  8
0
 10
3.23605
 20
1646.8
 11
3.70311
 21
1646.62
  0
LINE
  8
0
 10
3.70311
 20
1646.62
 11
4.1433
 21
1646.38
  0
LINE
  8
0
 10
4.1433
 20
1646.38
 11
4.54968
 21
1646.08
  0
LINE
  8
0
 10
4.54968
 20
1646.08
 11
4.91586
 21
1645.74
  0
LINE
  8
0
 10
4.91586
 20
1645.74
 11
5.23605
 21
1645.35
  0
LINE
  8
0
 10
5.23605
 20
1645.35
 11
5.50522
 21
1644.93
  0
LINE
  8
0
 10
5.50522
 20
1644.93
 11
5.7191
 21
1644.47
  0
LINE
  8
0
 10
5.7191
 20
1644.47
 11
5.87433
 21
1643.99
  0
LINE
  8
0
 10
5.87433
 20
1643.99
 11
5.96844
 21
1643.5
  0
LINE
  8
0
 10
5.96844
 20
1643.5
 11
6
 21
1643
  0
LINE
  8
0
 10
6
 20
1643
 11
6
 21
1489
  0
LINE
  8
0
 10
6
 20
1489
 11
5.96844
 21
1488.5
  0
LINE
  8
0
 10
5.96844
 20
1488.5
 11
5.87433
 21
1488.01
  0
LINE
  8
0
 10
5.87433
 20
1488.01
 11
5.7191
 21
1487.53
  0
LINE
  8
0
 10
5.7191
 20
1487.53
 11
5.50522
 21
1487.07
  0
LINE
  8
0
 10
5.50522
 20
1487.07
 11
5.23605
 21
1486.65
  0
LINE
  8
0
 10
5.23605
 20
1486.65
 11
4.91586
 21
1486.26
  0
LINE
  8
0
 10
4.91586
 20
1486.26
 11
4.54968
 21
1485.92
  0
LINE
  8
0
 10
4.54968
 20
1485.92
 11
4.1433
 21
1485.62
  0
LINE
  8
0
 10
4.1433
 20
1485.62
 11
3.70311
 21
1485.38
  0
LINE
  8
0
 10
3.70311
 20
1485.38
 11
3.23605
 21
1485.2
  0
LINE
  8
0
 10
3.23605
 20
1485.2
 11
2.74951
 21
1485.07
  0
LINE
  8
0
 10
2.74951
 20
1485.07
 11
2.25116
 21
1485.01
  0
LINE
  8
0
 10
2.25116
 20
1485.01
 11
-2.25116
 21
1485.01
  0
LINE
  8
0
 10
3.4369
 20
1309.59
 11
4.04507
 21
1309.74
  0
LINE
  8
0
 10
4.04507
 20
1309.74
 11
4.62889
 21
1309.98
  0
LINE
  8
0
 10
4.62889
 20
1309.98
 11
5.17912
 21
1310.28
  0
LINE
  8
0
 10
5.17912
 20
1310.28
 11
5.68712
 21
1310.65
  0
LINE
  8
0
 10
5.68712
 20
1310.65
 11
6.14484
 21
1311.08
  0
LINE
  8
0
 10
6.14484
 20
1311.08
 11
6.54507
 21
1311.56
  0
LINE
  8
0
 10
6.54507
 20
1311.56
 11
6.88153
 21
1312.09
  0
LINE
  8
0
 10
6.88153
 20
1312.09
 11
7.14888
 21
1312.66
  0
LINE
  8
0
 10
7.14888
 20
1312.66
 11
7.34291
 21
1313.26
  0
LINE
  8
0
 10
7.34291
 20
1313.26
 11
7.46057
 21
1313.87
  0
LINE
  8
0
 10
7.46057
 20
1313.87
 11
7.5
 21
1314.5
  0
LINE
  8
0
 10
7.5
 20
1314.5
 11
7.5
 21
1469.5
  0
LINE
  8
0
 10
7.5
 20
1469.5
 11
7.46057
 21
1470.13
  0
LINE
  8
0
 10
7.46057
 20
1470.13
 11
7.34291
 21
1470.74
  0
LINE
  8
0
 10
7.34291
 20
1470.74
 11
7.14888
 21
1471.34
  0
LINE
  8
0
 10
7.14888
 20
1471.34
 11
6.88153
 21
1471.91
  0
LINE
  8
0
 10
6.88153
 20
1471.91
 11
6.54507
 21
1472.44
  0
LINE
  8
0
 10
6.54507
 20
1472.44
 11
6.14484
 21
1472.92
  0
LINE
  8
0
 10
6.14484
 20
1472.92
 11
5.68712
 21
1473.35
  0
LINE
  8
0
 10
5.68712
 20
1473.35
 11
5.17912
 21
1473.72
  0
LINE
  8
0
 10
5.17912
 20
1473.72
 11
4.62889
 21
1474.02
  0
LINE
  8
0
 10
4.62889
 20
1474.02
 11
4.04507
 21
1474.26
  0
LINE
  8
0
 10
4.04507
 20
1474.26
 11
3.4369
 21
1474.41
  0
LINE
  8
0
 10
3.4369
 20
1474.41
 11
2.81395
 21
1474.49
  0
LINE
  8
0
 10
2.81395
 20
1474.49
 11
-2.81395
 21
1474.49
  0
LINE
  8
0
 10
-2.81395
 20
1474.49
 11
-3.4369
 21
1474.41
  0
LINE
  8
0
 10
-3.4369
 20
1474.41
 11
-4.04507
 21
1474.26
  0
LINE
  8
0
 10
-4.04507
 20
1474.26
 11
-4.62889
 21
1474.02
  0
LINE
  8
0
 10
-4.62889
 20
1474.02
 11
-5.17912
 21
1473.72
  0
LINE
  8
0
 10
-5.17912
 20
1473.72
 11
-5.68712
 21
1473.35
  0
LINE
  8
0
 10
-5.68712
 20
1473.35
 11
-6.14484
 21
1472.92
  0
LINE
  8
0
 10
-6.14484
 20
1472.92
 11
-6.54507
 21
1472.44
  0
LINE
  8
0
 10
-6.54507
 20
1472.44
 11
-6.88153
 21
1471.91
  0
LINE
  8
0
 10
-6.88153
 20
1471.91
 11
-7.14888
 21
1471.34
  0
LINE
  8
0
 10
-7.14888
 20
1471.34
 11
-7.34291
 21
1470.74
  0
LINE
  8
0
 10
-7.34291
 20
1470.74
 11
-7.46057
 21
1470.13
  0
LINE
  8
0
 10
-7.46057
 20
1470.13
 11
-7.5
 21
1469.5
  0
LINE
  8
0
 10
-7.5
 20
1469.5
 11
-7.5
 21
1314.5
  0
LINE
  8
0
 10
-7.5
 20
1314.5
 11
-7.46057
 21
1313.87
  0
LINE
  8
0
 10
-7.46057
 20
1313.87
 11
-7.34291
 21
1313.26
  0
LINE
  8
0
 10
-7.34291
 20
1313.26
 11
-7.14888
 21
1312.66
  0
LINE
  8
0
 10
-7.14888
 20
1312.66
 11
-6.88153
 21
1312.09
  0
LINE
  8
0
 10
-6.88153
 20
1312.09
 11
-6.54507
 21
1311.56
  0
LINE
  8
0
 10
-6.54507
 20
1311.56
 11
-6.14484
 21
1311.08
  0
LINE
  8
0
 10
-6.14484
 20
1311.08
 11
-5.68712
 21
1310.65
  0
LINE
  8
0
 10
-5.68712
 20
1310.65
 11
-5.17912
 21
1310.28
  0
LINE
  8
0
 10
-5.17912
 20
1310.28
 11
-4.62889
 21
1309.98
  0
LINE
  8
0
 10
-4.62889
 20
1309.98
 11
-4.04507
 21
1309.74
  0
LINE
  8
0
 10
-4.04507
 20
1309.74
 11
-3.4369
 21
1309.59
  0
LINE
  8
0
 10
-3.4369
 20
1309.59
 11
-2.81395
 21
1309.51
  0
LINE
  8
0
 10
-2.81395
 20
1309.51
 11
2.81395
 21
1309.51
  0
LINE
  8
0
 10
2.81395
 20
1309.51
 11
3.4369
 21
1309.59
  0
LINE
  8
0
 10
-2.25116
 20
1311.01
 11
-2.74951
 21
1311.07
  0
LINE
  8
0
 10
-2.74951
 20
1311.07
 11
-3.23605
 21
1311.2
  0
LINE
  8
0
 10
-3.23605
 20
1311.2
 11
-3.70311
 21
1311.38
  0
LINE
  8
0
 10
-3.70311
 20
1311.38
 11
-4.1433
 21
1311.62
  0
LINE
  8
0
 10
-4.1433
 20
1311.62
 11
-4.54968
 21
1311.92
  0
LINE
  8
0
 10
-4.54968
 20
1311.92
 11
-4.91586
 21
1312.26
  0
LINE
  8
0
 10
-4.91586
 20
1312.26
 11
-5.23605
 21
1312.65
  0
LINE
  8
0
 10
-5.23605
 20
1312.65
 11
-5.50522
 21
1313.07
  0
LINE
  8
0
 10
-5.50522
 20
1313.07
 11
-5.7191
 21
1313.53
  0
LINE
  8
0
 10
-5.7191
 20
1313.53
 11
-5.87433
 21
1314.01
  0
LINE
  8
0
 10
-5.87433
 20
1314.01
 11
-5.96844
 21
1314.5
  0
LINE
  8
0
 10
-5.96844
 20
1314.5
 11
-6
 21
1315
  0
LINE
  8
0
 10
-6
 20
1315
 11
-6
 21
1469
  0
LINE
  8
0
 10
-6
 20
1469
 11
-5.96844
 21
1469.5
  0
LINE
  8
0
 10
-5.96844
 20
1469.5
 11
-5.87433
 21
1469.99
  0
LINE
  8
0
 10
-5.87433
 20
1469.99
 11
-5.7191
 21
1470.47
  0
LINE
  8
0
 10
-5.7191
 20
1470.47
 11
-5.50522
 21
1470.93
  0
LINE
  8
0
 10
-5.50522
 20
1470.93
 11
-5.23605
 21
1471.35
  0
LINE
  8
0
 10
-5.23605
 20
1471.35
 11
-4.91586
 21
1471.74
  0
LINE
  8
0
 10
-4.91586
 20
1471.74
 11
-4.54968
 21
1472.08
  0
LINE
  8
0
 10
-4.54968
 20
1472.08
 11
-4.1433
 21
1472.38
  0
LINE
  8
0
 10
-4.1433
 20
1472.38
 11
-3.70311
 21
1472.62
  0
LINE
  8
0
 10
-3.70311
 20
1472.62
 11
-3.23605
 21
1472.8
  0
LINE
  8
0
 10
-3.23605
 20
1472.8
 11
-2.74951
 21
1472.93
  0
LINE
  8
0
 10
-2.74951
 20
1472.93
 11
-2.25116
 21
1472.99
  0
LINE
  8
0
 10
-2.25116
 20
1472.99
 11
2.25116
 21
1472.99
  0
LINE
  8
0
 10
2.25116
 20
1472.99
 11
2.74951
 21
1472.93
  0
LINE
  8
0
 10
2.74951
 20
1472.93
 11
3.23605
 21
1472.8
  0
LINE
  8
0
 10
3.23605
 20
1472.8
 11
3.70311
 21
1472.62
  0
LINE
  8
0
 10
3.70311
 20
1472.62
 11
4.1433
 21
1472.38
  0
LINE
  8
0
 10
4.1433
 20
1472.38
 11
4.54968
 21
1472.08
  0
LINE
  8
0
 10
4.54968
 20
1472.08
 11
4.91586
 21
1471.74
  0
LINE
  8
0
 10
4.91586
 20
1471.74
 11
5.23605
 21
1471.35
  0
LINE
  8
0
 10
5.23605
 20
1471.35
 11
5.50522
 21
1470.93
  0
LINE
  8
0
 10
5.50522
 20
1470.93
 11
5.7191
 21
1470.47
  0
LINE
  8
0
 10
5.7191
 20
1470.47
 11
5.87433
 21
1469.99
  0
LINE
  8
0
 10
5.87433
 20
1469.99
 11
5.96844
 21
1469.5
  0
LINE
  8
0
 10
5.96844
 20
1469.5
 11
6
 21
1469
  0
LINE
  8
0
 10
6
 20
1469
 11
6
 21
1315
  0
LINE
  8
0
 10
6
 20
1315
 11
5.96844
 21
1314.5
  0
LINE
  8
0
 10
5.96844
 20
1314.5
 11
5.87433
 21
1314.01
  0
LINE
  8
0
 10
5.87433
 20
1314.01
 11
5.7191
 21
1313.53
  0
LINE
  8
0
 10
5.7191
 20
1313.53
 11
5.50522
 21
1313.07
  0
LINE
  8
0
 10
5.50522
 20
1313.07
 11
5.23605
 21
1312.65
  0
LINE
  8
0
 10
5.23605
 20
1312.65
 11
4.91586
 21
1312.26
  0
LINE
  8
0
 10
4.91586
 20
1312.26
 11
4.54968
 21
1311.92
  0
LINE
  8
0
 10
4.54968
 20
1311.92
 11
4.1433
 21
1311.62
  0
LINE
  8
0
 10
4.1433
 20
1311.62
 11
3.70311
 21
1311.38
  0
LINE
  8
0
 10
3.70311
 20
1311.38
 11
3.23605
 21
1311.2
  0
LINE
  8
0
 10
3.23605
 20
1311.2
 11
2.74951
 21
1311.07
  0
LINE
  8
0
 10
2.74951
 20
1311.07
 11
2.25116
 21
1311.01
  0
LINE
  8
0
 10
2.25116
 20
1311.01
 11
-2.25116
 21
1311.01
  0
LINE
  8
0
 10
3.4369
 20
1135.59
 11
4.04507
 21
1135.74
  0
LINE
  8
0
 10
4.04507
 20
1135.74
 11
4.62889
 21
1135.98
  0
LINE
  8
0
 10
4.62889
 20
1135.98
 11
5.17912
 21
1136.28
  0
LINE
  8
0
 10
5.17912
 20
1136.28
 11
5.68712
 21
1136.65
  0
LINE
  8
0
 10
5.68712
 20
1136.65
 11
6.14484
 21
1137.08
  0
LINE
  8
0
 10
6.14484
 20
1137.08
 11
6.54507
 21
1137.56
  0
LINE
  8
0
 10
6.54507
 20
1137.56
 11
6.88153
 21
1138.09
  0
LINE
  8
0
 10
6.88153
 20
1138.09
 11
7.14888
 21
1138.66
  0
LINE
  8
0
 10
7.14888
 20
1138.66
 11
7.34291
 21
1139.26
  0
LINE
  8
0
 10
7.34291
 20
1139.26
 11
7.46057
 21
1139.87
  0
LINE
  8
0
 10
7.46057
 20
1139.87
 11
7.5
 21
1140.5
  0
LINE
  8
0
 10
7.5
 20
1140.5
 11
7.5
 21
1295.5
  0
LINE
  8
0
 10
7.5
 20
1295.5
 11
7.46057
 21
1296.13
  0
LINE
  8
0
 10
7.46057
 20
1296.13
 11
7.34291
 21
1296.74
  0
LINE
  8
0
 10
7.34291
 20
1296.74
 11
7.14888
 21
1297.34
  0
LINE
  8
0
 10
7.14888
 20
1297.34
 11
6.88153
 21
1297.91
  0
LINE
  8
0
 10
6.88153
 20
1297.91
 11
6.54507
 21
1298.44
  0
LINE
  8
0
 10
6.54507
 20
1298.44
 11
6.14484
 21
1298.92
  0
LINE
  8
0
 10
6.14484
 20
1298.92
 11
5.68712
 21
1299.35
  0
LINE
  8
0
 10
5.68712
 20
1299.35
 11
5.17912
 21
1299.72
  0
LINE
  8
0
 10
5.17912
 20
1299.72
 11
4.62889
 21
1300.02
  0
LINE
  8
0
 10
4.62889
 20
1300.02
 11
4.04507
 21
1300.26
  0
LINE
  8
0
 10
4.04507
 20
1300.26
 11
3.4369
 21
1300.41
  0
LINE
  8
0
 10
3.4369
 20
1300.41
 11
2.81395
 21
1300.49
  0
LINE
  8
0
 10
2.81395
 20
1300.49
 11
-2.81395
 21
1300.49
  0
LINE
  8
0
 10
-2.81395
 20
1300.49
 11
-3.4369
 21
1300.41
  0
LINE
  8
0
 10
-3.4369
 20
1300.41
 11
-4.04507
 21
1300.26
  0
LINE
  8
0
 10
-4.04507
 20
1300.26
 11
-4.62889
 21
1300.02
  0
LINE
  8
0
 10
-4.62889
 20
1300.02
 11
-5.17912
 21
1299.72
  0
LINE
  8
0
 10
-5.17912
 20
1299.72
 11
-5.68712
 21
1299.35
  0
LINE
  8
0
 10
-5.68712
 20
1299.35
 11
-6.14484
 21
1298.92
  0
LINE
  8
0
 10
-6.14484
 20
1298.92
 11
-6.54507
 21
1298.44
  0
LINE
  8
0
 10
-6.54507
 20
1298.44
 11
-6.88153
 21
1297.91
  0
LINE
  8
0
 10
-6.88153
 20
1297.91
 11
-7.14888
 21
1297.34
  0
LINE
  8
0
 10
-7.14888
 20
1297.34
 11
-7.34291
 21
1296.74
  0
LINE
  8
0
 10
-7.34291
 20
1296.74
 11
-7.46057
 21
1296.13
  0
LINE
  8
0
 10
-7.46057
 20
1296.13
 11
-7.5
 21
1295.5
  0
LINE
  8
0
 10
-7.5
 20
1295.5
 11
-7.5
 21
1140.5
  0
LINE
  8
0
 10
-7.5
 20
1140.5
 11
-7.46057
 21
1139.87
  0
LINE
  8
0
 10
-7.46057
 20
1139.87
 11
-7.34291
 21
1139.26
  0
LINE
  8
0
 10
-7.34291
 20
1139.26
 11
-7.14888
 21
1138.66
  0
LINE
  8
0
 10
-7.14888
 20
1138.66
 11
-6.88153
 21
1138.09
  0
LINE
  8
0
 10
-6.88153
 20
1138.09
 11
-6.54507
 21
1137.56
  0
LINE
  8
0
 10
-6.54507
 20
1137.56
 11
-6.14484
 21
1137.08
  0
LINE
  8
0
 10
-6.14484
 20
1137.08
 11
-5.68712
 21
1136.65
  0
LINE
  8
0
 10
-5.68712
 20
1136.65
 11
-5.17912
 21
1136.28
  0
LINE
  8
0
 10
-5.17912
 20
1136.28
 11
-4.62889
 21
1135.98
  0
LINE
  8
0
 10
-4.62889
 20
1135.98
 11
-4.04507
 21
1135.74
  0
LINE
  8
0
 10
-4.04507
 20
1135.74
 11
-3.4369
 21
1135.59
  0
LINE
  8
0
 10
-3.4369
 20
1135.59
 11
-2.81395
 21
1135.51
  0
LINE
  8
0
 10
-2.81395
 20
1135.51
 11
2.81395
 21
1135.51
  0
LINE
  8
0
 10
2.81395
 20
1135.51
 11
3.4369
 21
1135.59
  0
LINE
  8
0
 10
-2.25116
 20
1137.01
 11
-2.74951
 21
1137.07
  0
LINE
  8
0
 10
-2.74951
 20
1137.07
 11
-3.23605
 21
1137.2
  0
LINE
  8
0
 10
-3.23605
 20
1137.2
 11
-3.70311
 21
1137.38
  0
LINE
  8
0
 10
-3.70311
 20
1137.38
 11
-4.1433
 21
1137.62
  0
LINE
  8
0
 10
-4.1433
 20
1137.62
 11
-4.54968
 21
1137.92
  0
LINE
  8
0
 10
-4.54968
 20
1137.92
 11
-4.91586
 21
1138.26
  0
LINE
  8
0
 10
-4.91586
 20
1138.26
 11
-5.23605
 21
1138.65
  0
LINE
  8
0
 10
-5.23605
 20
1138.65
 11
-5.50522
 21
1139.07
  0
LINE
  8
0
 10
-5.50522
 20
1139.07
 11
-5.7191
 21
1139.53
  0
LINE
  8
0
 10
-5.7191
 20
1139.53
 11
-5.87433
 21
1140.01
  0
LINE
  8
0
 10
-5.87433
 20
1140.01
 11
-5.96844
 21
1140.5
  0
LINE
  8
0
 10
-5.96844
 20
1140.5
 11
-6
 21
1141
  0
LINE
  8
0
 10
-6
 20
1141
 11
-6
 21
1295
  0
LINE
  8
0
 10
-6
 20
1295
 11
-5.96844
 21
1295.5
  0
LINE
  8
0
 10
-5.96844
 20
1295.5
 11
-5.87433
 21
1295.99
  0
LINE
  8
0
 10
-5.87433
 20
1295.99
 11
-5.7191
 21
1296.47
  0
LINE
  8
0
 10
-5.7191
 20
1296.47
 11
-5.50522
 21
1296.93
  0
LINE
  8
0
 10
-5.50522
 20
1296.93
 11
-5.23605
 21
1297.35
  0
LINE
  8
0
 10
-5.23605
 20
1297.35
 11
-4.91586
 21
1297.74
  0
LINE
  8
0
 10
-4.91586
 20
1297.74
 11
-4.54968
 21
1298.08
  0
LINE
  8
0
 10
-4.54968
 20
1298.08
 11
-4.1433
 21
1298.38
  0
LINE
  8
0
 10
-4.1433
 20
1298.38
 11
-3.70311
 21
1298.62
  0
LINE
  8
0
 10
-3.70311
 20
1298.62
 11
-3.23605
 21
1298.8
  0
LINE
  8
0
 10
-3.23605
 20
1298.8
 11
-2.74951
 21
1298.93
  0
LINE
  8
0
 10
-2.74951
 20
1298.93
 11
-2.25116
 21
1298.99
  0
LINE
  8
0
 10
-2.25116
 20
1298.99
 11
2.25116
 21
1298.99
  0
LINE
  8
0
 10
2.25116
 20
1298.99
 11
2.74951
 21
1298.93
  0
LINE
  8
0
 10
2.74951
 20
1298.93
 11
3.23605
 21
1298.8
  0
LINE
  8
0
 10
3.23605
 20
1298.8
 11
3.70311
 21
1298.62
  0
LINE
  8
0
 10
3.70311
 20
1298.62
 11
4.1433
 21
1298.38
  0
LINE
  8
0
 10
4.1433
 20
1298.38
 11
4.54968
 21
1298.08
  0
LINE
  8
0
 10
4.54968
 20
1298.08
 11
4.91586
 21
1297.74
  0
LINE
  8
0
 10
4.91586
 20
1297.74
 11
5.23605
 21
1297.35
  0
LINE
  8
0
 10
5.23605
 20
1297.35
 11
5.50522
 21
1296.93
  0
LINE
  8
0
 10
5.50522
 20
1296.93
 11
5.7191
 21
1296.47
  0
LINE
  8
0
 10
5.7191
 20
1296.47
 11
5.87433
 21
1295.99
  0
LINE
  8
0
 10
5.87433
 20
1295.99
 11
5.96844
 21
1295.5
  0
LINE
  8
0
 10
5.96844
 20
1295.5
 11
6
 21
1295
  0
LINE
  8
0
 10
6
 20
1295
 11
6
 21
1141
  0
LINE
  8
0
 10
6
 20
1141
 11
5.96844
 21
1140.5
  0
LINE
  8
0
 10
5.96844
 20
1140.5
 11
5.87433
 21
1140.01
  0
LINE
  8
0
 10
5.87433
 20
1140.01
 11
5.7191
 21
1139.53
  0
LINE
  8
0
 10
5.7191
 20
1139.53
 11
5.50522
 21
1139.07
  0
LINE
  8
0
 10
5.50522
 20
1139.07
 11
5.23605
 21
1138.65
  0
LINE
  8
0
 10
5.23605
 20
1138.65
 11
4.91586
 21
1138.26
  0
LINE
  8
0
 10
4.91586
 20
1138.26
 11
4.54968
 21
1137.92
  0
LINE
  8
0
 10
4.54968
 20
1137.92
 11
4.1433
 21
1137.62
  0
LINE
  8
0
 10
4.1433
 20
1137.62
 11
3.70311
 21
1137.38
  0
LINE
  8
0
 10
3.70311
 20
1137.38
 11
3.23605
 21
1137.2
  0
LINE
  8
0
 10
3.23605
 20
1137.2
 11
2.74951
 21
1137.07
  0
LINE
  8
0
 10
2.74951
 20
1137.07
 11
2.25116
 21
1137.01
  0
LINE
  8
0
 10
2.25116
 20
1137.01
 11
-2.25116
 21
1137.01
  0
LINE
  8
0
 10
3.4369
 20
961.589
 11
4.04507
 21
961.745
  0
LINE
  8
0
 10
4.04507
 20
961.745
 11
4.62889
 21
961.976
  0
LINE
  8
0
 10
4.62889
 20
961.976
 11
5.17912
 21
962.278
  0
LINE
  8
0
 10
5.17912
 20
962.278
 11
5.68712
 21
962.647
  0
LINE
  8
0
 10
5.68712
 20
962.647
 11
6.14484
 21
963.077
  0
LINE
  8
0
 10
6.14484
 20
963.077
 11
6.54507
 21
963.561
  0
LINE
  8
0
 10
6.54507
 20
963.561
 11
6.88153
 21
964.091
  0
LINE
  8
0
 10
6.88153
 20
964.091
 11
7.14888
 21
964.659
  0
LINE
  8
0
 10
7.14888
 20
964.659
 11
7.34291
 21
965.257
  0
LINE
  8
0
 10
7.34291
 20
965.257
 11
7.46057
 21
965.873
  0
LINE
  8
0
 10
7.46057
 20
965.873
 11
7.5
 21
966.5
  0
LINE
  8
0
 10
7.5
 20
966.5
 11
7.5
 21
1121.5
  0
LINE
  8
0
 10
7.5
 20
1121.5
 11
7.46057
 21
1122.13
  0
LINE
  8
0
 10
7.46057
 20
1122.13
 11
7.34291
 21
1122.74
  0
LINE
  8
0
 10
7.34291
 20
1122.74
 11
7.14888
 21
1123.34
  0
LINE
  8
0
 10
7.14888
 20
1123.34
 11
6.88153
 21
1123.91
  0
LINE
  8
0
 10
6.88153
 20
1123.91
 11
6.54507
 21
1124.44
  0
LINE
  8
0
 10
6.54507
 20
1124.44
 11
6.14484
 21
1124.92
  0
LINE
  8
0
 10
6.14484
 20
1124.92
 11
5.68712
 21
1125.35
  0
LINE
  8
0
 10
5.68712
 20
1125.35
 11
5.17912
 21
1125.72
  0
LINE
  8
0
 10
5.17912
 20
1125.72
 11
4.62889
 21
1126.02
  0
LINE
  8
0
 10
4.62889
 20
1126.02
 11
4.04507
 21
1126.26
  0
LINE
  8
0
 10
4.04507
 20
1126.26
 11
3.4369
 21
1126.41
  0
LINE
  8
0
 10
3.4369
 20
1126.41
 11
2.81395
 21
1126.49
  0
LINE
  8
0
 10
2.81395
 20
1126.49
 11
-2.81395
 21
1126.49
  0
LINE
  8
0
 10
-2.81395
 20
1126.49
 11
-3.4369
 21
1126.41
  0
LINE
  8
0
 10
-3.4369
 20
1126.41
 11
-4.04507
 21
1126.26
  0
LINE
  8
0
 10
-4.04507
 20
1126.26
 11
-4.62889
 21
1126.02
  0
LINE
  8
0
 10
-4.62889
 20
1126.02
 11
-5.17912
 21
1125.72
  0
LINE
  8
0
 10
-5.17912
 20
1125.72
 11
-5.68712
 21
1125.35
  0
LINE
  8
0
 10
-5.68712
 20
1125.35
 11
-6.14484
 21
1124.92
  0
LINE
  8
0
 10
-6.14484
 20
1124.92
 11
-6.54507
 21
1124.44
  0
LINE
  8
0
 10
-6.54507
 20
1124.44
 11
-6.88153
 21
1123.91
  0
LINE
  8
0
 10
-6.88153
 20
1123.91
 11
-7.14888
 21
1123.34
  0
LINE
  8
0
 10
-7.14888
 20
1123.34
 11
-7.34291
 21
1122.74
  0
LINE
  8
0
 10
-7.34291
 20
1122.74
 11
-7.46057
 21
1122.13
  0
LINE
  8
0
 10
-7.46057
 20
1122.13
 11
-7.5
 21
1121.5
  0
LINE
  8
0
 10
-7.5
 20
1121.5
 11
-7.5
 21
966.5
  0
LINE
  8
0
 10
-7.5
 20
966.5
 11
-7.46057
 21
965.873
  0
LINE
  8
0
 10
-7.46057
 20
965.873
 11
-7.34291
 21
965.257
  0
LINE
  8
0
 10
-7.34291
 20
965.257
 11
-7.14888
 21
964.659
  0
LINE
  8
0
 10
-7.14888
 20
964.659
 11
-6.88153
 21
964.091
  0
LINE
  8
0
 10
-6.88153
 20
964.091
 11
-6.54507
 21
963.561
  0
LINE
  8
0
 10
-6.54507
 20
963.561
 11
-6.14484
 21
963.077
  0
LINE
  8
0
 10
-6.14484
 20
963.077
 11
-5.68712
 21
962.647
  0
LINE
  8
0
 10
-5.68712
 20
962.647
 11
-5.17912
 21
962.278
  0
LINE
  8
0
 10
-5.17912
 20
962.278
 11
-4.62889
 21
961.976
  0
LINE
  8
0
 10
-4.62889
 20
961.976
 11
-4.04507
 21
961.745
  0
LINE
  8
0
 10
-4.04507
 20
961.745
 11
-3.4369
 21
961.589
  0
LINE
  8
0
 10
-3.4369
 20
961.589
 11
-2.81395
 21
961.51
  0
LINE
  8
0
 10
-2.81395
 20
961.51
 11
2.81395
 21
961.51
  0
LINE
  8
0
 10
2.81395
 20
961.51
 11
3.4369
 21
961.589
  0
LINE
  8
0
 10
-2.19545
 20
963.893
 11
-2.5833
 21
963.942
  0
LINE
  8
0
 10
-2.5833
 20
963.942
 11
-2.96194
 21
964.039
  0
LINE
  8
0
 10
-2.96194
 20
964.039
 11
-3.32541
 21
964.183
  0
LINE
  8
0
 10
-3.32541
 20
964.183
 11
-3.66798
 21
964.372
  0
LINE
  8
0
 10
-3.66798
 20
964.372
 11
-3.98424
 21
964.601
  0
LINE
  8
0
 10
-3.98424
 20
964.601
 11
-4.26921
 21
964.869
  0
LINE
  8
0
 10
-4.26921
 20
964.869
 11
-4.5184
 21
965.17
  0
LINE
  8
0
 10
-4.5184
 20
965.17
 11
-4.72786
 21
965.5
  0
LINE
  8
0
 10
-4.72786
 20
965.5
 11
-4.89432
 21
965.854
  0
LINE
  8
0
 10
-4.89432
 20
965.854
 11
-5.01512
 21
966.226
  0
LINE
  8
0
 10
-5.01512
 20
966.226
 11
-5.08836
 21
966.61
  0
LINE
  8
0
 10
-5.08836
 20
966.61
 11
-5.11292
 21
967
  0
LINE
  8
0
 10
-5.11292
 20
967
 11
-5.11292
 21
1121
  0
LINE
  8
0
 10
-5.11292
 20
1121
 11
-5.08836
 21
1121.39
  0
LINE
  8
0
 10
-5.08836
 20
1121.39
 11
-5.01512
 21
1121.77
  0
LINE
  8
0
 10
-5.01512
 20
1121.77
 11
-4.89432
 21
1122.15
  0
LINE
  8
0
 10
-4.89432
 20
1122.15
 11
-4.72786
 21
1122.5
  0
LINE
  8
0
 10
-4.72786
 20
1122.5
 11
-4.5184
 21
1122.83
  0
LINE
  8
0
 10
-4.5184
 20
1122.83
 11
-4.26921
 21
1123.13
  0
LINE
  8
0
 10
-4.26921
 20
1123.13
 11
-3.98424
 21
1123.4
  0
LINE
  8
0
 10
-3.98424
 20
1123.4
 11
-3.66798
 21
1123.63
  0
LINE
  8
0
 10
-3.66798
 20
1123.63
 11
-3.32541
 21
1123.82
  0
LINE
  8
0
 10
-3.32541
 20
1123.82
 11
-2.96194
 21
1123.96
  0
LINE
  8
0
 10
-2.96194
 20
1123.96
 11
-2.5833
 21
1124.06
  0
LINE
  8
0
 10
-2.5833
 20
1124.06
 11
-2.19545
 21
1124.11
  0
LINE
  8
0
 10
-2.19545
 20
1124.11
 11
2.19545
 21
1124.11
  0
LINE
  8
0
 10
2.19545
 20
1124.11
 11
2.5833
 21
1124.06
  0
LINE
  8
0
 10
2.5833
 20
1124.06
 11
2.96194
 21
1123.96
  0
LINE
  8
0
 10
2.96194
 20
1123.96
 11
3.32541
 21
1123.82
  0
LINE
  8
0
 10
3.32541
 20
1123.82
 11
3.66798
 21
1123.63
  0
LINE
  8
0
 10
3.66798
 20
1123.63
 11
3.98424
 21
1123.4
  0
LINE
  8
0
 10
3.98424
 20
1123.4
 11
4.26921
 21
1123.13
  0
LINE
  8
0
 10
4.26921
 20
1123.13
 11
4.5184
 21
1122.83
  0
LINE
  8
0
 10
4.5184
 20
1122.83
 11
4.72786
 21
1122.5
  0
LINE
  8
0
 10
4.72786
 20
1122.5
 11
4.89432
 21
1122.15
  0
LINE
  8
0
 10
4.89432
 20
1122.15
 11
5.01512
 21
1121.77
  0
LINE
  8
0
 10
5.01512
 20
1121.77
 11
5.08836
 21
1121.39
  0
LINE
  8
0
 10
5.08836
 20
1121.39
 11
5.11292
 21
1121
  0
LINE
  8
0
 10
5.11292
 20
1121
 11
5.11292
 21
967
  0
LINE
  8
0
 10
5.11292
 20
967
 11
5.08836
 21
966.61
  0
LINE
  8
0
 10
5.08836
 20
966.61
 11
5.01512
 21
966.226
  0
LINE
  8
0
 10
5.01512
 20
966.226
 11
4.89432
 21
965.854
  0
LINE
  8
0
 10
4.89432
 20
965.854
 11
4.72786
 21
965.5
  0
LINE
  8
0
 10
4.72786
 20
965.5
 11
4.5184
 21
965.17
  0
LINE
  8
0
 10
4.5184
 20
965.17
 11
4.26921
 21
964.869
  0
LINE
  8
0
 10
4.26921
 20
964.869
 11
3.98424
 21
964.601
  0
LINE
  8
0
 10
3.98424
 20
964.601
 11
3.66798
 21
964.372
  0
LINE
  8
0
 10
3.66798
 20
964.372
 11
3.32541
 21
964.183
  0
LINE
  8
0
 10
3.32541
 20
964.183
 11
2.96194
 21
964.039
  0
LINE
  8
0
 10
2.96194
 20
964.039
 11
2.5833
 21
963.942
  0
LINE
  8
0
 10
2.5833
 20
963.942
 11
2.19545
 21
963.893
  0
LINE
  8
0
 10
2.19545
 20
963.893
 11
-2.19545
 21
963.893
  0
LINE
  8
0
 10
3.4369
 20
787.589
 11
4.04507
 21
787.745
  0
LINE
  8
0
 10
4.04507
 20
787.745
 11
4.62889
 21
787.976
  0
LINE
  8
0
 10
4.62889
 20
787.976
 11
5.17912
 21
788.278
  0
LINE
  8
0
 10
5.17912
 20
788.278
 11
5.68712
 21
788.647
  0
LINE
  8
0
 10
5.68712
 20
788.647
 11
6.14484
 21
789.077
  0
LINE
  8
0
 10
6.14484
 20
789.077
 11
6.54507
 21
789.561
  0
LINE
  8
0
 10
6.54507
 20
789.561
 11
6.88153
 21
790.091
  0
LINE
  8
0
 10
6.88153
 20
790.091
 11
7.14888
 21
790.659
  0
LINE
  8
0
 10
7.14888
 20
790.659
 11
7.34291
 21
791.257
  0
LINE
  8
0
 10
7.34291
 20
791.257
 11
7.46057
 21
791.873
  0
LINE
  8
0
 10
7.46057
 20
791.873
 11
7.5
 21
792.5
  0
LINE
  8
0
 10
7.5
 20
792.5
 11
7.5
 21
947.5
  0
LINE
  8
0
 10
7.5
 20
947.5
 11
7.46057
 21
948.127
  0
LINE
  8
0
 10
7.46057
 20
948.127
 11
7.34291
 21
948.743
  0
LINE
  8
0
 10
7.34291
 20
948.743
 11
7.14888
 21
949.341
  0
LINE
  8
0
 10
7.14888
 20
949.341
 11
6.88153
 21
949.909
  0
LINE
  8
0
 10
6.88153
 20
949.909
 11
6.54507
 21
950.439
  0
LINE
  8
0
 10
6.54507
 20
950.439
 11
6.14484
 21
950.923
  0
LINE
  8
0
 10
6.14484
 20
950.923
 11
5.68712
 21
951.353
  0
LINE
  8
0
 10
5.68712
 20
951.353
 11
5.17912
 21
951.722
  0
LINE
  8
0
 10
5.17912
 20
951.722
 11
4.62889
 21
952.024
  0
LINE
  8
0
 10
4.62889
 20
952.024
 11
4.04507
 21
952.255
  0
LINE
  8
0
 10
4.04507
 20
952.255
 11
3.4369
 21
952.411
  0
LINE
  8
0
 10
3.4369
 20
952.411
 11
2.81395
 21
952.49
  0
LINE
  8
0
 10
2.81395
 20
952.49
 11
-2.81395
 21
952.49
  0
LINE
  8
0
 10
-2.81395
 20
952.49
 11
-3.4369
 21
952.411
  0
LINE
  8
0
 10
-3.4369
 20
952.411
 11
-4.04507
 21
952.255
  0
LINE
  8
0
 10
-4.04507
 20
952.255
 11
-4.62889
 21
952.024
  0
LINE
  8
0
 10
-4.62889
 20
952.024
 11
-5.17912
 21
951.722
  0
LINE
  8
0
 10
-5.17912
 20
951.722
 11
-5.68712
 21
951.353
  0
LINE
  8
0
 10
-5.68712
 20
951.353
 11
-6.14484
 21
950.923
  0
LINE
  8
0
 10
-6.14484
 20
950.923
 11
-6.54507
 21
950.439
  0
LINE
  8
0
 10
-6.54507
 20
950.439
 11
-6.88153
 21
949.909
  0
LINE
  8
0
 10
-6.88153
 20
949.909
 11
-7.14888
 21
949.341
  0
LINE
  8
0
 10
-7.14888
 20
949.341
 11
-7.34291
 21
948.743
  0
LINE
  8
0
 10
-7.34291
 20
948.743
 11
-7.46057
 21
948.127
  0
LINE
  8
0
 10
-7.46057
 20
948.127
 11
-7.5
 21
947.5
  0
LINE
  8
0
 10
-7.5
 20
947.5
 11
-7.5
 21
792.5
  0
LINE
  8
0
 10
-7.5
 20
792.5
 11
-7.46057
 21
791.873
  0
LINE
  8
0
 10
-7.46057
 20
791.873
 11
-7.34291
 21
791.257
  0
LINE
  8
0
 10
-7.34291
 20
791.257
 11
-7.14888
 21
790.659
  0
LINE
  8
0
 10
-7.14888
 20
790.659
 11
-6.88153
 21
790.091
  0
LINE
  8
0
 10
-6.88153
 20
790.091
 11
-6.54507
 21
789.561
  0
LINE
  8
0
 10
-6.54507
 20
789.561
 11
-6.14484
 21
789.077
  0
LINE
  8
0
 10
-6.14484
 20
789.077
 11
-5.68712
 21
788.647
  0
LINE
  8
0
 10
-5.68712
 20
788.647
 11
-5.17912
 21
788.278
  0
LINE
  8
0
 10
-5.17912
 20
788.278
 11
-4.62889
 21
787.976
  0
LINE
  8
0
 10
-4.62889
 20
787.976
 11
-4.04507
 21
787.745
  0
LINE
  8
0
 10
-4.04507
 20
787.745
 11
-3.4369
 21
787.589
  0
LINE
  8
0
 10
-3.4369
 20
787.589
 11
-2.81395
 21
787.51
  0
LINE
  8
0
 10
-2.81395
 20
787.51
 11
2.81395
 21
787.51
  0
LINE
  8
0
 10
2.81395
 20
787.51
 11
3.4369
 21
787.589
  0
LINE
  8
0
 10
-0.134064
 20
942.869
 11
-0.400101
 21
942.903
  0
LINE
  8
0
 10
-0.400101
 20
942.903
 11
-0.659836
 21
942.969
  0
LINE
  8
0
 10
-0.659836
 20
942.969
 11
-0.909149
 21
943.068
  0
LINE
  8
0
 10
-0.909149
 20
943.068
 11
-1.14413
 21
943.197
  0
LINE
  8
0
 10
-1.14413
 20
943.197
 11
-1.36108
 21
943.355
  0
LINE
  8
0
 10
-1.36108
 20
943.355
 11
-1.55655
 21
943.538
  0
LINE
  8
0
 10
-1.55655
 20
943.538
 11
-1.72748
 21
943.745
  0
LINE
  8
0
 10
-1.72748
 20
943.745
 11
-1.87117
 21
943.971
  0
LINE
  8
0
 10
-1.87117
 20
943.971
 11
-1.98534
 21
944.214
  0
LINE
  8
0
 10
-1.98534
 20
944.214
 11
-2.06821
 21
944.469
  0
LINE
  8
0
 10
-2.06821
 20
944.469
 11
-2.11845
 21
944.732
  0
LINE
  8
0
 10
-2.11845
 20
944.732
 11
-2.13528
 21
945
  0
LINE
  8
0
 10
-2.13528
 20
945
 11
-2.11845
 21
945.268
  0
LINE
  8
0
 10
-2.11845
 20
945.268
 11
-2.06821
 21
945.531
  0
LINE
  8
0
 10
-2.06821
 20
945.531
 11
-1.98534
 21
945.786
  0
LINE
  8
0
 10
-1.98534
 20
945.786
 11
-1.87117
 21
946.029
  0
LINE
  8
0
 10
-1.87117
 20
946.029
 11
-1.72748
 21
946.255
  0
LINE
  8
0
 10
-1.72748
 20
946.255
 11
-1.55655
 21
946.462
  0
LINE
  8
0
 10
-1.55655
 20
946.462
 11
-1.36108
 21
946.645
  0
LINE
  8
0
 10
-1.36108
 20
946.645
 11
-1.14413
 21
946.803
  0
LINE
  8
0
 10
-1.14413
 20
946.803
 11
-0.909149
 21
946.932
  0
LINE
  8
0
 10
-0.909149
 20
946.932
 11
-0.659836
 21
947.031
  0
LINE
  8
0
 10
-0.659836
 20
947.031
 11
-0.400101
 21
947.097
  0
LINE
  8
0
 10
-0.400101
 20
947.097
 11
-0.134064
 21
947.131
  0
LINE
  8
0
 10
-0.134064
 20
947.131
 11
0.134064
 21
947.131
  0
LINE
  8
0
 10
0.134064
 20
947.131
 11
0.400101
 21
947.097
  0
LINE
  8
0
 10
0.400101
 20
947.097
 11
0.659836
 21
947.031
  0
LINE
  8
0
 10
0.659836
 20
947.031
 11
0.909149
 21
946.932
  0
LINE
  8
0
 10
0.909149
 20
946.932
 11
1.14413
 21
946.803
  0
LINE
  8
0
 10
1.14413
 20
946.803
 11
1.36108
 21
946.645
  0
LINE
  8
0
 10
1.36108
 20
946.645
 11
1.55655
 21
946.462
  0
LINE
  8
0
 10
1.55655
 20
946.462
 11
1.72748
 21
946.255
  0
LINE
  8
0
 10
1.72748
 20
946.255
 11
1.87117
 21
946.029
  0
LINE
  8
0
 10
1.87117
 20
946.029
 11
1.98534
 21
945.786
  0
LINE
  8
0
 10
1.98534
 20
945.786
 11
2.06821
 21
945.531
  0
LINE
  8
0
 10
2.06821
 20
945.531
 11
2.11845
 21
945.268
  0
LINE
  8
0
 10
2.11845
 20
945.268
 11
2.13528
 21
945
  0
LINE
  8
0
 10
2.13528
 20
945
 11
2.11845
 21
944.732
  0
LINE
  8
0
 10
2.11845
 20
944.732
 11
2.06821
 21
944.469
  0
LINE
  8
0
 10
2.06821
 20
944.469
 11
1.98534
 21
944.214
  0
LINE
  8
0
 10
1.98534
 20
944.214
 11
1.87117
 21
943.971
  0
LINE
  8
0
 10
1.87117
 20
943.971
 11
1.72748
 21
943.745
  0
LINE
  8
0
 10
1.72748
 20
943.745
 11
1.55655
 21
943.538
  0
LINE
  8
0
 10
1.55655
 20
943.538
 11
1.36108
 21
943.355
  0
LINE
  8
0
 10
1.36108
 20
943.355
 11
1.14413
 21
943.197
  0
LINE
  8
0
 10
1.14413
 20
943.197
 11
0.909149
 21
943.068
  0
LINE
  8
0
 10
0.909149
 20
943.068
 11
0.659836
 21
942.969
  0
LINE
  8
0
 10
0.659836
 20
942.969
 11
0.400101
 21
942.903
  0
LINE
  8
0
 10
0.400101
 20
942.903
 11
0.134064
 21
942.869
  0
LINE
  8
0
 10
0.134064
 20
942.869
 11
-0.134064
 21
942.869
  0
LINE
  8
0
 10
-0.134064
 20
792.869
 11
-0.400101
 21
792.903
  0
LINE
  8
0
 10
-0.400101
 20
792.903
 11
-0.659836
 21
792.969
  0
LINE
  8
0
 10
-0.659836
 20
792.969
 11
-0.909149
 21
793.068
  0
LINE
  8
0
 10
-0.909149
 20
793.068
 11
-1.14413
 21
793.197
  0
LINE
  8
0
 10
-1.14413
 20
793.197
 11
-1.36108
 21
793.355
  0
LINE
  8
0
 10
-1.36108
 20
793.355
 11
-1.55655
 21
793.538
  0
LINE
  8
0
 10
-1.55655
 20
793.538
 11
-1.72748
 21
793.745
  0
LINE
  8
0
 10
-1.72748
 20
793.745
 11
-1.87117
 21
793.971
  0
LINE
  8
0
 10
-1.87117
 20
793.971
 11
-1.98534
 21
794.214
  0
LINE
  8
0
 10
-1.98534
 20
794.214
 11
-2.06821
 21
794.469
  0
LINE
  8
0
 10
-2.06821
 20
794.469
 11
-2.11845
 21
794.732
  0
LINE
  8
0
 10
-2.11845
 20
794.732
 11
-2.13528
 21
795
  0
LINE
  8
0
 10
-2.13528
 20
795
 11
-2.11845
 21
795.268
  0
LINE
  8
0
 10
-2.11845
 20
795.268
 11
-2.06821
 21
795.531
  0
LINE
  8
0
 10
-2.06821
 20
795.531
 11
-1.98534
 21
795.786
  0
LINE
  8
0
 10
-1.98534
 20
795.786
 11
-1.87117
 21
796.029
  0
LINE
  8
0
 10
-1.87117
 20
796.029
 11
-1.72748
 21
796.255
  0
LINE
  8
0
 10
-1.72748
 20
796.255
 11
-1.55655
 21
796.462
  0
LINE
  8
0
 10
-1.55655
 20
796.462
 11
-1.36108
 21
796.645
  0
LINE
  8
0
 10
-1.36108
 20
796.645
 11
-1.14413
 21
796.803
  0
LINE
  8
0
 10
-1.14413
 20
796.803
 11
-0.909149
 21
796.932
  0
LINE
  8
0
 10
-0.909149
 20
796.932
 11
-0.659836
 21
797.031
  0
LINE
  8
0
 10
-0.659836
 20
797.031
 11
-0.400101
 21
797.097
  0
LINE
  8
0
 10
-0.400101
 20
797.097
 11
-0.134064
 21
797.131
  0
LINE
  8
0
 10
-0.134064
 20
797.131
 11
0.134064
 21
797.131
  0
LINE
  8
0
 10
0.134064
 20
797.131
 11
0.400101
 21
797.097
  0
LINE
  8
0
 10
0.400101
 20
797.097
 11
0.659836
 21
797.031
  0
LINE
  8
0
 10
0.659836
 20
797.031
 11
0.909149
 21
796.932
  0
LINE
  8
0
 10
0.909149
 20
796.932
 11
1.14413
 21
796.803
  0
LINE
  8
0
 10
1.14413
 20
796.803
 11
1.36108
 21
796.645
  0
LINE
  8
0
 10
1.36108
 20
796.645
 11
1.55655
 21
796.462
  0
LINE
  8
0
 10
1.55655
 20
796.462
 11
1.72748
 21
796.255
  0
LINE
  8
0
 10
1.72748
 20
796.255
 11
1.87117
 21
796.029
  0
LINE
  8
0
 10
1.87117
 20
796.029
 11
1.98534
 21
795.786
  0
LINE
  8
0
 10
1.98534
 20
795.786
 11
2.06821
 21
795.531
  0
LINE
  8
0
 10
2.06821
 20
795.531
 11
2.11845
 21
795.268
  0
LINE
  8
0
 10
2.11845
 20
795.268
 11
2.13528
 21
795
  0
LINE
  8
0
 10
2.13528
 20
795
 11
2.11845
 21
794.732
  0
LINE
  8
0
 10
2.11845
 20
794.732
 11
2.06821
 21
794.469
  0
LINE
  8
0
 10
2.06821
 20
794.469
 11
1.98534
 21
794.214
  0
LINE
  8
0
 10
1.98534
 20
794.214
 11
1.87117
 21
793.971
  0
LINE
  8
0
 10
1.87117
 20
793.971
 11
1.72748
 21
793.745
  0
LINE
  8
0
 10
1.72748
 20
793.745
 11
1.55655
 21
793.538
  0
LINE
  8
0
 10
1.55655
 20
793.538
 11
1.36108
 21
793.355
  0
LINE
  8
0
 10
1.36108
 20
793.355
 11
1.14413
 21
793.197
  0
LINE
  8
0
 10
1.14413
 20
793.197
 11
0.909149
 21
793.068
  0
LINE
  8
0
 10
0.909149
 20
793.068
 11
0.659836
 21
792.969
  0
LINE
  8
0
 10
0.659836
 20
792.969
 11
0.400101
 21
792.903
  0
LINE
  8
0
 10
0.400101
 20
792.903
 11
0.134064
 21
792.869
  0
LINE
  8
0
 10
0.134064
 20
792.869
 11
-0.134064
 21
792.869
  0
ENDSEC
  0
SECTION
  2
OBJECTS
  0
DICTIONARY
  0
ENDSEC
  0
EOF
