  0
SECTION
  2
BLOCKS
  0
ENDSEC
  0
SECTION
  2
ENTITIES
  0
LINE
  8
0
 10
-51
 20
181.441
 11
-50.6871
 21
181.147
  0
LINE
  8
0
 10
-50.6871
 20
181.147
 11
-50.1791
 21
180.778
  0
LINE
  8
0
 10
-50.1791
 20
180.778
 11
-49.6289
 21
180.476
  0
LINE
  8
0
 10
-49.6289
 20
180.476
 11
-49.0451
 21
180.245
  0
LINE
  8
0
 10
-49.0451
 20
180.245
 11
-48.4369
 21
180.089
  0
LINE
  8
0
 10
-48.4369
 20
180.089
 11
-47.8139
 21
180.01
  0
LINE
  8
0
 10
-47.8139
 20
180.01
 11
47.8139
 21
180.01
  0
LINE
  8
0
 10
47.8139
 20
180.01
 11
48.4369
 21
180.089
  0
LINE
  8
0
 10
48.4369
 20
180.089
 11
49.0451
 21
180.245
  0
LINE
  8
0
 10
49.0451
 20
180.245
 11
49.6289
 21
180.476
  0
LINE
  8
0
 10
49.6289
 20
180.476
 11
50.1791
 21
180.778
  0
LINE
  8
0
 10
50.1791
 20
180.778
 11
50.6871
 21
181.147
  0
LINE
  8
0
 10
50.6871
 20
181.147
 11
51.1448
 21
181.577
  0
LINE
  8
0
 10
51.1448
 20
181.577
 11
51.5451
 21
182.061
  0
LINE
  8
0
 10
51.5451
 20
182.061
 11
51.8815
 21
182.591
  0
LINE
  8
0
 10
51.8815
 20
182.591
 11
52.1489
 21
183.159
  0
LINE
  8
0
 10
52.1489
 20
183.159
 11
52.3429
 21
183.757
  0
LINE
  8
0
 10
52.3429
 20
183.757
 11
52.4606
 21
184.373
  0
LINE
  8
0
 10
52.4606
 20
184.373
 11
52.5
 21
185
  0
LINE
  8
0
 10
52.5
 20
185
 11
52.5
 21
205
  0
LINE
  8
0
 10
52.5
 20
205
 11
52.4606
 21
205.627
  0
LINE
  8
0
 10
52.4606
 20
205.627
 11
52.3429
 21
206.243
  0
LINE
  8
0
 10
52.3429
 20
206.243
 11
52.1489
 21
206.841
  0
LINE
  8
0
 10
52.1489
 20
206.841
 11
51.8815
 21
207.409
  0
LINE
  8
0
 10
51.8815
 20
207.409
 11
51.5451
 21
207.939
  0
LINE
  8
0
 10
51.5451
 20
207.939
 11
51.1448
 21
208.423
  0
LINE
  8
0
 10
51.1448
 20
208.423
 11
50.6871
 21
208.853
  0
LINE
  8
0
 10
50.6871
 20
208.853
 11
50.1791
 21
209.222
  0
LINE
  8
0
 10
50.1791
 20
209.222
 11
49.6289
 21
209.524
  0
LINE
  8
0
 10
49.6289
 20
209.524
 11
49.0451
 21
209.755
  0
LINE
  8
0
 10
49.0451
 20
209.755
 11
48.4369
 21
209.911
  0
LINE
  8
0
 10
48.4369
 20
209.911
 11
47.8139
 21
209.99
  0
LINE
  8
0
 10
47.8139
 20
209.99
 11
-47.8139
 21
209.99
  0
LINE
  8
0
 10
-47.8139
 20
209.99
 11
-48.4369
 21
209.911
  0
LINE
  8
0
 10
-48.4369
 20
209.911
 11
-49.0451
 21
209.755
  0
LINE
  8
0
 10
-49.0451
 20
209.755
 11
-49.6289
 21
209.524
  0
LINE
  8
0
 10
-49.6289
 20
209.524
 11
-50.1791
 21
209.222
  0
LINE
  8
0
 10
-50.1791
 20
209.222
 11
-50.6871
 21
208.853
  0
LINE
  8
0
 10
-50.6871
 20
208.853
 11
-51
 21
208.559
  0
LINE
  8
0
 10
-51
 20
208.559
 11
-51
 21
209.99
  0
LINE
  8
0
 10
-51
 20
209.99
 11
-54
 21
209.99
  0
LINE
  8
0
 10
-54
 20
209.99
 11
-54
 21
180.01
  0
LINE
  8
0
 10
-54
 20
180.01
 11
-51
 21
180.01
  0
LINE
  8
0
 10
-51
 20
180.01
 11
-51
 21
181.441
  0
LINE
  8
0
 10
-47.2512
 20
181.508
 11
-47.7495
 21
181.571
  0
LINE
  8
0
 10
-47.7495
 20
181.571
 11
-48.2361
 21
181.696
  0
LINE
  8
0
 10
-48.2361
 20
181.696
 11
-48.7031
 21
181.881
  0
LINE
  8
0
 10
-48.7031
 20
181.881
 11
-49.1433
 21
182.123
  0
LINE
  8
0
 10
-49.1433
 20
182.123
 11
-49.5497
 21
182.418
  0
LINE
  8
0
 10
-49.5497
 20
182.418
 11
-49.9159
 21
182.762
  0
LINE
  8
0
 10
-49.9159
 20
182.762
 11
-50.2361
 21
183.149
  0
LINE
  8
0
 10
-50.2361
 20
183.149
 11
-50.5052
 21
183.573
  0
LINE
  8
0
 10
-50.5052
 20
183.573
 11
-50.7191
 21
184.028
  0
LINE
  8
0
 10
-50.7191
 20
184.028
 11
-50.8743
 21
184.505
  0
LINE
  8
0
 10
-50.8743
 20
184.505
 11
-50.9685
 21
184.999
  0
LINE
  8
0
 10
-50.9685
 20
184.999
 11
-51
 21
185.5
  0
LINE
  8
0
 10
-51
 20
185.5
 11
-51
 21
204.5
  0
LINE
  8
0
 10
-51
 20
204.5
 11
-50.9685
 21
205.001
  0
LINE
  8
0
 10
-50.9685
 20
205.001
 11
-50.8743
 21
205.495
  0
LINE
  8
0
 10
-50.8743
 20
205.495
 11
-50.7191
 21
205.972
  0
LINE
  8
0
 10
-50.7191
 20
205.972
 11
-50.5052
 21
206.427
  0
LINE
  8
0
 10
-50.5052
 20
206.427
 11
-50.2361
 21
206.851
  0
LINE
  8
0
 10
-50.2361
 20
206.851
 11
-49.9159
 21
207.238
  0
LINE
  8
0
 10
-49.9159
 20
207.238
 11
-49.5497
 21
207.582
  0
LINE
  8
0
 10
-49.5497
 20
207.582
 11
-49.1433
 21
207.877
  0
LINE
  8
0
 10
-49.1433
 20
207.877
 11
-48.7031
 21
208.119
  0
LINE
  8
0
 10
-48.7031
 20
208.119
 11
-48.2361
 21
208.304
  0
LINE
  8
0
 10
-48.2361
 20
208.304
 11
-47.7495
 21
208.429
  0
LINE
  8
0
 10
-47.7495
 20
208.429
 11
-47.2512
 21
208.492
  0
LINE
  8
0
 10
-47.2512
 20
208.492
 11
47.2512
 21
208.492
  0
LINE
  8
0
 10
47.2512
 20
208.492
 11
47.7495
 21
208.429
  0
LINE
  8
0
 10
47.7495
 20
208.429
 11
48.2361
 21
208.304
  0
LINE
  8
0
 10
48.2361
 20
208.304
 11
48.7031
 21
208.119
  0
LINE
  8
0
 10
48.7031
 20
208.119
 11
49.1433
 21
207.877
  0
LINE
  8
0
 10
49.1433
 20
207.877
 11
49.5497
 21
207.582
  0
LINE
  8
0
 10
49.5497
 20
207.582
 11
49.9159
 21
207.238
  0
LINE
  8
0
 10
49.9159
 20
207.238
 11
50.2361
 21
206.851
  0
LINE
  8
0
 10
50.2361
 20
206.851
 11
50.5052
 21
206.427
  0
LINE
  8
0
 10
50.5052
 20
206.427
 11
50.7191
 21
205.972
  0
LINE
  8
0
 10
50.7191
 20
205.972
 11
50.8743
 21
205.495
  0
LINE
  8
0
 10
50.8743
 20
205.495
 11
50.9685
 21
205.001
  0
LINE
  8
0
 10
50.9685
 20
205.001
 11
51
 21
204.5
  0
LINE
  8
0
 10
51
 20
204.5
 11
51
 21
185.5
  0
LINE
  8
0
 10
51
 20
185.5
 11
50.9685
 21
184.999
  0
LINE
  8
0
 10
50.9685
 20
184.999
 11
50.8743
 21
184.505
  0
LINE
  8
0
 10
50.8743
 20
184.505
 11
50.7191
 21
184.028
  0
LINE
  8
0
 10
50.7191
 20
184.028
 11
50.5052
 21
183.573
  0
LINE
  8
0
 10
50.5052
 20
183.573
 11
50.2361
 21
183.149
  0
LINE
  8
0
 10
50.2361
 20
183.149
 11
49.9159
 21
182.762
  0
LINE
  8
0
 10
49.9159
 20
182.762
 11
49.5497
 21
182.418
  0
LINE
  8
0
 10
49.5497
 20
182.418
 11
49.1433
 21
182.123
  0
LINE
  8
0
 10
49.1433
 20
182.123
 11
48.7031
 21
181.881
  0
LINE
  8
0
 10
48.7031
 20
181.881
 11
48.2361
 21
181.696
  0
LINE
  8
0
 10
48.2361
 20
181.696
 11
47.7495
 21
181.571
  0
LINE
  8
0
 10
47.7495
 20
181.571
 11
47.2512
 21
181.508
  0
LINE
  8
0
 10
47.2512
 20
181.508
 11
-47.2512
 21
181.508
  0
LINE
  8
0
 10
48.4369
 20
141.089
 11
49.0451
 21
141.245
  0
LINE
  8
0
 10
49.0451
 20
141.245
 11
49.6289
 21
141.476
  0
LINE
  8
0
 10
49.6289
 20
141.476
 11
50.1791
 21
141.778
  0
LINE
  8
0
 10
50.1791
 20
141.778
 11
50.6871
 21
142.147
  0
LINE
  8
0
 10
50.6871
 20
142.147
 11
51.1448
 21
142.577
  0
LINE
  8
0
 10
51.1448
 20
142.577
 11
51.5451
 21
143.061
  0
LINE
  8
0
 10
51.5451
 20
143.061
 11
51.8815
 21
143.591
  0
LINE
  8
0
 10
51.8815
 20
143.591
 11
52.1489
 21
144.159
  0
LINE
  8
0
 10
52.1489
 20
144.159
 11
52.3429
 21
144.757
  0
LINE
  8
0
 10
52.3429
 20
144.757
 11
52.4606
 21
145.373
  0
LINE
  8
0
 10
52.4606
 20
145.373
 11
52.5
 21
146
  0
LINE
  8
0
 10
52.5
 20
146
 11
52.5
 21
166
  0
LINE
  8
0
 10
52.5
 20
166
 11
52.4606
 21
166.627
  0
LINE
  8
0
 10
52.4606
 20
166.627
 11
52.3429
 21
167.243
  0
LINE
  8
0
 10
52.3429
 20
167.243
 11
52.1489
 21
167.841
  0
LINE
  8
0
 10
52.1489
 20
167.841
 11
51.8815
 21
168.409
  0
LINE
  8
0
 10
51.8815
 20
168.409
 11
51.5451
 21
168.939
  0
LINE
  8
0
 10
51.5451
 20
168.939
 11
51.1448
 21
169.423
  0
LINE
  8
0
 10
51.1448
 20
169.423
 11
50.6871
 21
169.853
  0
LINE
  8
0
 10
50.6871
 20
169.853
 11
50.1791
 21
170.222
  0
LINE
  8
0
 10
50.1791
 20
170.222
 11
49.6289
 21
170.524
  0
LINE
  8
0
 10
49.6289
 20
170.524
 11
49.0451
 21
170.755
  0
LINE
  8
0
 10
49.0451
 20
170.755
 11
48.4369
 21
170.911
  0
LINE
  8
0
 10
48.4369
 20
170.911
 11
47.8139
 21
170.99
  0
LINE
  8
0
 10
47.8139
 20
170.99
 11
-47.8139
 21
170.99
  0
LINE
  8
0
 10
-47.8139
 20
170.99
 11
-48.4369
 21
170.911
  0
LINE
  8
0
 10
-48.4369
 20
170.911
 11
-49.0451
 21
170.755
  0
LINE
  8
0
 10
-49.0451
 20
170.755
 11
-49.6289
 21
170.524
  0
LINE
  8
0
 10
-49.6289
 20
170.524
 11
-50.1791
 21
170.222
  0
LINE
  8
0
 10
-50.1791
 20
170.222
 11
-50.6871
 21
169.853
  0
LINE
  8
0
 10
-50.6871
 20
169.853
 11
-51
 21
169.559
  0
LINE
  8
0
 10
-51
 20
169.559
 11
-51
 21
170.979
  0
LINE
  8
0
 10
-51
 20
170.979
 11
-54
 21
170.979
  0
LINE
  8
0
 10
-54
 20
170.979
 11
-54
 21
141.021
  0
LINE
  8
0
 10
-54
 20
141.021
 11
-51
 21
141.021
  0
LINE
  8
0
 10
-51
 20
141.021
 11
-51
 21
142.441
  0
LINE
  8
0
 10
-51
 20
142.441
 11
-50.6871
 21
142.147
  0
LINE
  8
0
 10
-50.6871
 20
142.147
 11
-50.1791
 21
141.778
  0
LINE
  8
0
 10
-50.1791
 20
141.778
 11
-49.6289
 21
141.476
  0
LINE
  8
0
 10
-49.6289
 20
141.476
 11
-49.0451
 21
141.245
  0
LINE
  8
0
 10
-49.0451
 20
141.245
 11
-48.4369
 21
141.089
  0
LINE
  8
0
 10
-48.4369
 20
141.089
 11
-47.8139
 21
141.01
  0
LINE
  8
0
 10
-47.8139
 20
141.01
 11
47.8139
 21
141.01
  0
LINE
  8
0
 10
47.8139
 20
141.01
 11
48.4369
 21
141.089
  0
LINE
  8
0
 10
-47.1954
 20
143.393
 11
-47.5833
 21
143.442
  0
LINE
  8
0
 10
-47.5833
 20
143.442
 11
-47.9619
 21
143.539
  0
LINE
  8
0
 10
-47.9619
 20
143.539
 11
-48.3254
 21
143.683
  0
LINE
  8
0
 10
-48.3254
 20
143.683
 11
-48.668
 21
143.872
  0
LINE
  8
0
 10
-48.668
 20
143.872
 11
-48.9842
 21
144.101
  0
LINE
  8
0
 10
-48.9842
 20
144.101
 11
-49.2692
 21
144.369
  0
LINE
  8
0
 10
-49.2692
 20
144.369
 11
-49.5184
 21
144.67
  0
LINE
  8
0
 10
-49.5184
 20
144.67
 11
-49.7279
 21
145
  0
LINE
  8
0
 10
-49.7279
 20
145
 11
-49.8943
 21
145.354
  0
LINE
  8
0
 10
-49.8943
 20
145.354
 11
-50.0151
 21
145.726
  0
LINE
  8
0
 10
-50.0151
 20
145.726
 11
-50.0884
 21
146.11
  0
LINE
  8
0
 10
-50.0884
 20
146.11
 11
-50.1129
 21
146.5
  0
LINE
  8
0
 10
-50.1129
 20
146.5
 11
-50.1129
 21
165.5
  0
LINE
  8
0
 10
-50.1129
 20
165.5
 11
-50.0884
 21
165.89
  0
LINE
  8
0
 10
-50.0884
 20
165.89
 11
-50.0151
 21
166.274
  0
LINE
  8
0
 10
-50.0151
 20
166.274
 11
-49.8943
 21
166.646
  0
LINE
  8
0
 10
-49.8943
 20
166.646
 11
-49.7279
 21
167
  0
LINE
  8
0
 10
-49.7279
 20
167
 11
-49.5184
 21
167.33
  0
LINE
  8
0
 10
-49.5184
 20
167.33
 11
-49.2692
 21
167.631
  0
LINE
  8
0
 10
-49.2692
 20
167.631
 11
-48.9842
 21
167.899
  0
LINE
  8
0
 10
-48.9842
 20
167.899
 11
-48.668
 21
168.128
  0
LINE
  8
0
 10
-48.668
 20
168.128
 11
-48.3254
 21
168.317
  0
LINE
  8
0
 10
-48.3254
 20
168.317
 11
-47.9619
 21
168.461
  0
LINE
  8
0
 10
-47.9619
 20
168.461
 11
-47.5833
 21
168.558
  0
LINE
  8
0
 10
-47.5833
 20
168.558
 11
-47.1954
 21
168.607
  0
LINE
  8
0
 10
-47.1954
 20
168.607
 11
47.1954
 21
168.607
  0
LINE
  8
0
 10
47.1954
 20
168.607
 11
47.5833
 21
168.558
  0
LINE
  8
0
 10
47.5833
 20
168.558
 11
47.9619
 21
168.461
  0
LINE
  8
0
 10
47.9619
 20
168.461
 11
48.3254
 21
168.317
  0
LINE
  8
0
 10
48.3254
 20
168.317
 11
48.668
 21
168.128
  0
LINE
  8
0
 10
48.668
 20
168.128
 11
48.9842
 21
167.899
  0
LINE
  8
0
 10
48.9842
 20
167.899
 11
49.2692
 21
167.631
  0
LINE
  8
0
 10
49.2692
 20
167.631
 11
49.5184
 21
167.33
  0
LINE
  8
0
 10
49.5184
 20
167.33
 11
49.7279
 21
167
  0
LINE
  8
0
 10
49.7279
 20
167
 11
49.8943
 21
166.646
  0
LINE
  8
0
 10
49.8943
 20
166.646
 11
50.0151
 21
166.274
  0
LINE
  8
0
 10
50.0151
 20
166.274
 11
50.0884
 21
165.89
  0
LINE
  8
0
 10
50.0884
 20
165.89
 11
50.1129
 21
165.5
  0
LINE
  8
0
 10
50.1129
 20
165.5
 11
50.1129
 21
146.5
  0
LINE
  8
0
 10
50.1129
 20
146.5
 11
50.0884
 21
146.11
  0
LINE
  8
0
 10
50.0884
 20
146.11
 11
50.0151
 21
145.726
  0
LINE
  8
0
 10
50.0151
 20
145.726
 11
49.8943
 21
145.354
  0
LINE
  8
0
 10
49.8943
 20
145.354
 11
49.7279
 21
145
  0
LINE
  8
0
 10
49.7279
 20
145
 11
49.5184
 21
144.67
  0
LINE
  8
0
 10
49.5184
 20
144.67
 11
49.2692
 21
144.369
  0
LINE
  8
0
 10
49.2692
 20
144.369
 11
48.9842
 21
144.101
  0
LINE
  8
0
 10
48.9842
 20
144.101
 11
48.668
 21
143.872
  0
LINE
  8
0
 10
48.668
 20
143.872
 11
48.3254
 21
143.683
  0
LINE
  8
0
 10
48.3254
 20
143.683
 11
47.9619
 21
143.539
  0
LINE
  8
0
 10
47.9619
 20
143.539
 11
47.5833
 21
143.442
  0
LINE
  8
0
 10
47.5833
 20
143.442
 11
47.1954
 21
143.393
  0
LINE
  8
0
 10
47.1954
 20
143.393
 11
-47.1954
 21
143.393
  0
LINE
  8
0
 10
48.4369
 20
102.089
 11
49.0451
 21
102.245
  0
LINE
  8
0
 10
49.0451
 20
102.245
 11
49.6289
 21
102.476
  0
LINE
  8
0
 10
49.6289
 20
102.476
 11
50.1791
 21
102.778
  0
LINE
  8
0
 10
50.1791
 20
102.778
 11
50.6871
 21
103.147
  0
LINE
  8
0
 10
50.6871
 20
103.147
 11
51.1448
 21
103.577
  0
LINE
  8
0
 10
51.1448
 20
103.577
 11
51.5451
 21
104.061
  0
LINE
  8
0
 10
51.5451
 20
104.061
 11
51.8815
 21
104.591
  0
LINE
  8
0
 10
51.8815
 20
104.591
 11
52.1489
 21
105.159
  0
LINE
  8
0
 10
52.1489
 20
105.159
 11
52.3429
 21
105.757
  0
LINE
  8
0
 10
52.3429
 20
105.757
 11
52.4606
 21
106.373
  0
LINE
  8
0
 10
52.4606
 20
106.373
 11
52.5
 21
107
  0
LINE
  8
0
 10
52.5
 20
107
 11
52.5
 21
127
  0
LINE
  8
0
 10
52.5
 20
127
 11
52.4606
 21
127.627
  0
LINE
  8
0
 10
52.4606
 20
127.627
 11
52.3429
 21
128.243
  0
LINE
  8
0
 10
52.3429
 20
128.243
 11
52.1489
 21
128.841
  0
LINE
  8
0
 10
52.1489
 20
128.841
 11
51.8815
 21
129.409
  0
LINE
  8
0
 10
51.8815
 20
129.409
 11
51.5451
 21
129.939
  0
LINE
  8
0
 10
51.5451
 20
129.939
 11
51.1448
 21
130.423
  0
LINE
  8
0
 10
51.1448
 20
130.423
 11
50.6871
 21
130.853
  0
LINE
  8
0
 10
50.6871
 20
130.853
 11
50.1791
 21
131.222
  0
LINE
  8
0
 10
50.1791
 20
131.222
 11
49.6289
 21
131.524
  0
LINE
  8
0
 10
49.6289
 20
131.524
 11
49.0451
 21
131.755
  0
LINE
  8
0
 10
49.0451
 20
131.755
 11
48.4369
 21
131.911
  0
LINE
  8
0
 10
48.4369
 20
131.911
 11
47.8139
 21
131.99
  0
LINE
  8
0
 10
47.8139
 20
131.99
 11
-47.8139
 21
131.99
  0
LINE
  8
0
 10
-47.8139
 20
131.99
 11
-48.4369
 21
131.911
  0
LINE
  8
0
 10
-48.4369
 20
131.911
 11
-49.0451
 21
131.755
  0
LINE
  8
0
 10
-49.0451
 20
131.755
 11
-49.6289
 21
131.524
  0
LINE
  8
0
 10
-49.6289
 20
131.524
 11
-50.1791
 21
131.222
  0
LINE
  8
0
 10
-50.1791
 20
131.222
 11
-50.6871
 21
130.853
  0
LINE
  8
0
 10
-50.6871
 20
130.853
 11
-51
 21
130.559
  0
LINE
  8
0
 10
-51
 20
130.559
 11
-51
 21
130.653
  0
LINE
  8
0
 10
-51
 20
130.653
 11
-54
 21
130.653
  0
LINE
  8
0
 10
-54
 20
130.653
 11
-54
 21
103.347
  0
LINE
  8
0
 10
-54
 20
103.347
 11
-51
 21
103.347
  0
LINE
  8
0
 10
-51
 20
103.347
 11
-51
 21
103.441
  0
LINE
  8
0
 10
-51
 20
103.441
 11
-50.6871
 21
103.147
  0
LINE
  8
0
 10
-50.6871
 20
103.147
 11
-50.1791
 21
102.778
  0
LINE
  8
0
 10
-50.1791
 20
102.778
 11
-49.6289
 21
102.476
  0
LINE
  8
0
 10
-49.6289
 20
102.476
 11
-49.0451
 21
102.245
  0
LINE
  8
0
 10
-49.0451
 20
102.245
 11
-48.4369
 21
102.089
  0
LINE
  8
0
 10
-48.4369
 20
102.089
 11
-47.8139
 21
102.01
  0
LINE
  8
0
 10
-47.8139
 20
102.01
 11
47.8139
 21
102.01
  0
LINE
  8
0
 10
47.8139
 20
102.01
 11
48.4369
 21
102.089
  0
LINE
  8
0
 10
44.8659
 20
122.369
 11
44.5999
 21
122.403
  0
LINE
  8
0
 10
44.5999
 20
122.403
 11
44.3401
 21
122.469
  0
LINE
  8
0
 10
44.3401
 20
122.469
 11
44.0908
 21
122.568
  0
LINE
  8
0
 10
44.0908
 20
122.568
 11
43.8559
 21
122.697
  0
LINE
  8
0
 10
43.8559
 20
122.697
 11
43.6389
 21
122.855
  0
LINE
  8
0
 10
43.6389
 20
122.855
 11
43.4434
 21
123.038
  0
LINE
  8
0
 10
43.4434
 20
123.038
 11
43.2725
 21
123.245
  0
LINE
  8
0
 10
43.2725
 20
123.245
 11
43.1288
 21
123.471
  0
LINE
  8
0
 10
43.1288
 20
123.471
 11
43.0146
 21
123.714
  0
LINE
  8
0
 10
43.0146
 20
123.714
 11
42.9318
 21
123.969
  0
LINE
  8
0
 10
42.9318
 20
123.969
 11
42.8815
 21
124.232
  0
LINE
  8
0
 10
42.8815
 20
124.232
 11
42.8647
 21
124.5
  0
LINE
  8
0
 10
42.8647
 20
124.5
 11
42.8815
 21
124.768
  0
LINE
  8
0
 10
42.8815
 20
124.768
 11
42.9318
 21
125.031
  0
LINE
  8
0
 10
42.9318
 20
125.031
 11
43.0146
 21
125.286
  0
LINE
  8
0
 10
43.0146
 20
125.286
 11
43.1288
 21
125.529
  0
LINE
  8
0
 10
43.1288
 20
125.529
 11
43.2725
 21
125.755
  0
LINE
  8
0
 10
43.2725
 20
125.755
 11
43.4434
 21
125.962
  0
LINE
  8
0
 10
43.4434
 20
125.962
 11
43.6389
 21
126.145
  0
LINE
  8
0
 10
43.6389
 20
126.145
 11
43.8559
 21
126.303
  0
LINE
  8
0
 10
43.8559
 20
126.303
 11
44.0908
 21
126.432
  0
LINE
  8
0
 10
44.0908
 20
126.432
 11
44.3401
 21
126.531
  0
LINE
  8
0
 10
44.3401
 20
126.531
 11
44.5999
 21
126.597
  0
LINE
  8
0
 10
44.5999
 20
126.597
 11
44.8659
 21
126.631
  0
LINE
  8
0
 10
44.8659
 20
126.631
 11
45.1341
 21
126.631
  0
LINE
  8
0
 10
45.1341
 20
126.631
 11
45.4001
 21
126.597
  0
LINE
  8
0
 10
45.4001
 20
126.597
 11
45.6598
 21
126.531
  0
LINE
  8
0
 10
45.6598
 20
126.531
 11
45.9092
 21
126.432
  0
LINE
  8
0
 10
45.9092
 20
126.432
 11
46.1441
 21
126.303
  0
LINE
  8
0
 10
46.1441
 20
126.303
 11
46.3611
 21
126.145
  0
LINE
  8
0
 10
46.3611
 20
126.145
 11
46.5565
 21
125.962
  0
LINE
  8
0
 10
46.5565
 20
125.962
 11
46.7275
 21
125.755
  0
LINE
  8
0
 10
46.7275
 20
125.755
 11
46.8712
 21
125.529
  0
LINE
  8
0
 10
46.8712
 20
125.529
 11
46.9853
 21
125.286
  0
LINE
  8
0
 10
46.9853
 20
125.286
 11
47.0682
 21
125.031
  0
LINE
  8
0
 10
47.0682
 20
125.031
 11
47.1185
 21
124.768
  0
LINE
  8
0
 10
47.1185
 20
124.768
 11
47.1353
 21
124.5
  0
LINE
  8
0
 10
47.1353
 20
124.5
 11
47.1185
 21
124.232
  0
LINE
  8
0
 10
47.1185
 20
124.232
 11
47.0682
 21
123.969
  0
LINE
  8
0
 10
47.0682
 20
123.969
 11
46.9853
 21
123.714
  0
LINE
  8
0
 10
46.9853
 20
123.714
 11
46.8712
 21
123.471
  0
LINE
  8
0
 10
46.8712
 20
123.471
 11
46.7275
 21
123.245
  0
LINE
  8
0
 10
46.7275
 20
123.245
 11
46.5565
 21
123.038
  0
LINE
  8
0
 10
46.5565
 20
123.038
 11
46.3611
 21
122.855
  0
LINE
  8
0
 10
46.3611
 20
122.855
 11
46.1441
 21
122.697
  0
LINE
  8
0
 10
46.1441
 20
122.697
 11
45.9092
 21
122.568
  0
LINE
  8
0
 10
45.9092
 20
122.568
 11
45.6598
 21
122.469
  0
LINE
  8
0
 10
45.6598
 20
122.469
 11
45.4001
 21
122.403
  0
LINE
  8
0
 10
45.4001
 20
122.403
 11
45.1341
 21
122.369
  0
LINE
  8
0
 10
45.1341
 20
122.369
 11
44.8659
 21
122.369
  0
LINE
  8
0
 10
-45.1341
 20
122.369
 11
-45.4001
 21
122.403
  0
LINE
  8
0
 10
-45.4001
 20
122.403
 11
-45.6598
 21
122.469
  0
LINE
  8
0
 10
-45.6598
 20
122.469
 11
-45.9092
 21
122.568
  0
LINE
  8
0
 10
-45.9092
 20
122.568
 11
-46.1441
 21
122.697
  0
LINE
  8
0
 10
-46.1441
 20
122.697
 11
-46.3611
 21
122.855
  0
LINE
  8
0
 10
-46.3611
 20
122.855
 11
-46.5565
 21
123.038
  0
LINE
  8
0
 10
-46.5565
 20
123.038
 11
-46.7275
 21
123.245
  0
LINE
  8
0
 10
-46.7275
 20
123.245
 11
-46.8712
 21
123.471
  0
LINE
  8
0
 10
-46.8712
 20
123.471
 11
-46.9853
 21
123.714
  0
LINE
  8
0
 10
-46.9853
 20
123.714
 11
-47.0682
 21
123.969
  0
LINE
  8
0
 10
-47.0682
 20
123.969
 11
-47.1185
 21
124.232
  0
LINE
  8
0
 10
-47.1185
 20
124.232
 11
-47.1353
 21
124.5
  0
LINE
  8
0
 10
-47.1353
 20
124.5
 11
-47.1185
 21
124.768
  0
LINE
  8
0
 10
-47.1185
 20
124.768
 11
-47.0682
 21
125.031
  0
LINE
  8
0
 10
-47.0682
 20
125.031
 11
-46.9853
 21
125.286
  0
LINE
  8
0
 10
-46.9853
 20
125.286
 11
-46.8712
 21
125.529
  0
LINE
  8
0
 10
-46.8712
 20
125.529
 11
-46.7275
 21
125.755
  0
LINE
  8
0
 10
-46.7275
 20
125.755
 11
-46.5565
 21
125.962
  0
LINE
  8
0
 10
-46.5565
 20
125.962
 11
-46.3611
 21
126.145
  0
LINE
  8
0
 10
-46.3611
 20
126.145
 11
-46.1441
 21
126.303
  0
LINE
  8
0
 10
-46.1441
 20
126.303
 11
-45.9092
 21
126.432
  0
LINE
  8
0
 10
-45.9092
 20
126.432
 11
-45.6598
 21
126.531
  0
LINE
  8
0
 10
-45.6598
 20
126.531
 11
-45.4001
 21
126.597
  0
LINE
  8
0
 10
-45.4001
 20
126.597
 11
-45.1341
 21
126.631
  0
LINE
  8
0
 10
-45.1341
 20
126.631
 11
-44.8659
 21
126.631
  0
LINE
  8
0
 10
-44.8659
 20
126.631
 11
-44.5999
 21
126.597
  0
LINE
  8
0
 10
-44.5999
 20
126.597
 11
-44.3401
 21
126.531
  0
LINE
  8
0
 10
-44.3401
 20
126.531
 11
-44.0908
 21
126.432
  0
LINE
  8
0
 10
-44.0908
 20
126.432
 11
-43.8559
 21
126.303
  0
LINE
  8
0
 10
-43.8559
 20
126.303
 11
-43.6389
 21
126.145
  0
LINE
  8
0
 10
-43.6389
 20
126.145
 11
-43.4434
 21
125.962
  0
LINE
  8
0
 10
-43.4434
 20
125.962
 11
-43.2725
 21
125.755
  0
LINE
  8
0
 10
-43.2725
 20
125.755
 11
-43.1288
 21
125.529
  0
LINE
  8
0
 10
-43.1288
 20
125.529
 11
-43.0146
 21
125.286
  0
LINE
  8
0
 10
-43.0146
 20
125.286
 11
-42.9318
 21
125.031
  0
LINE
  8
0
 10
-42.9318
 20
125.031
 11
-42.8815
 21
124.768
  0
LINE
  8
0
 10
-42.8815
 20
124.768
 11
-42.8647
 21
124.5
  0
LINE
  8
0
 10
-42.8647
 20
124.5
 11
-42.8815
 21
124.232
  0
LINE
  8
0
 10
-42.8815
 20
124.232
 11
-42.9318
 21
123.969
  0
LINE
  8
0
 10
-42.9318
 20
123.969
 11
-43.0146
 21
123.714
  0
LINE
  8
0
 10
-43.0146
 20
123.714
 11
-43.1288
 21
123.471
  0
LINE
  8
0
 10
-43.1288
 20
123.471
 11
-43.2725
 21
123.245
  0
LINE
  8
0
 10
-43.2725
 20
123.245
 11
-43.4434
 21
123.038
  0
LINE
  8
0
 10
-43.4434
 20
123.038
 11
-43.6389
 21
122.855
  0
LINE
  8
0
 10
-43.6389
 20
122.855
 11
-43.8559
 21
122.697
  0
LINE
  8
0
 10
-43.8559
 20
122.697
 11
-44.0908
 21
122.568
  0
LINE
  8
0
 10
-44.0908
 20
122.568
 11
-44.3401
 21
122.469
  0
LINE
  8
0
 10
-44.3401
 20
122.469
 11
-44.5999
 21
122.403
  0
LINE
  8
0
 10
-44.5999
 20
122.403
 11
-44.8659
 21
122.369
  0
LINE
  8
0
 10
-44.8659
 20
122.369
 11
-45.1341
 21
122.369
  0
LINE
  8
0
 10
44.8659
 20
107.369
 11
44.5999
 21
107.403
  0
LINE
  8
0
 10
44.5999
 20
107.403
 11
44.3401
 21
107.469
  0
LINE
  8
0
 10
44.3401
 20
107.469
 11
44.0908
 21
107.568
  0
LINE
  8
0
 10
44.0908
 20
107.568
 11
43.8559
 21
107.697
  0
LINE
  8
0
 10
43.8559
 20
107.697
 11
43.6389
 21
107.855
  0
LINE
  8
0
 10
43.6389
 20
107.855
 11
43.4434
 21
108.038
  0
LINE
  8
0
 10
43.4434
 20
108.038
 11
43.2725
 21
108.245
  0
LINE
  8
0
 10
43.2725
 20
108.245
 11
43.1288
 21
108.471
  0
LINE
  8
0
 10
43.1288
 20
108.471
 11
43.0146
 21
108.714
  0
LINE
  8
0
 10
43.0146
 20
108.714
 11
42.9318
 21
108.969
  0
LINE
  8
0
 10
42.9318
 20
108.969
 11
42.8815
 21
109.232
  0
LINE
  8
0
 10
42.8815
 20
109.232
 11
42.8647
 21
109.5
  0
LINE
  8
0
 10
42.8647
 20
109.5
 11
42.8815
 21
109.768
  0
LINE
  8
0
 10
42.8815
 20
109.768
 11
42.9318
 21
110.031
  0
LINE
  8
0
 10
42.9318
 20
110.031
 11
43.0146
 21
110.286
  0
LINE
  8
0
 10
43.0146
 20
110.286
 11
43.1288
 21
110.529
  0
LINE
  8
0
 10
43.1288
 20
110.529
 11
43.2725
 21
110.755
  0
LINE
  8
0
 10
43.2725
 20
110.755
 11
43.4434
 21
110.962
  0
LINE
  8
0
 10
43.4434
 20
110.962
 11
43.6389
 21
111.145
  0
LINE
  8
0
 10
43.6389
 20
111.145
 11
43.8559
 21
111.303
  0
LINE
  8
0
 10
43.8559
 20
111.303
 11
44.0908
 21
111.432
  0
LINE
  8
0
 10
44.0908
 20
111.432
 11
44.3401
 21
111.531
  0
LINE
  8
0
 10
44.3401
 20
111.531
 11
44.5999
 21
111.597
  0
LINE
  8
0
 10
44.5999
 20
111.597
 11
44.8659
 21
111.631
  0
LINE
  8
0
 10
44.8659
 20
111.631
 11
45.1341
 21
111.631
  0
LINE
  8
0
 10
45.1341
 20
111.631
 11
45.4001
 21
111.597
  0
LINE
  8
0
 10
45.4001
 20
111.597
 11
45.6598
 21
111.531
  0
LINE
  8
0
 10
45.6598
 20
111.531
 11
45.9092
 21
111.432
  0
LINE
  8
0
 10
45.9092
 20
111.432
 11
46.1441
 21
111.303
  0
LINE
  8
0
 10
46.1441
 20
111.303
 11
46.3611
 21
111.145
  0
LINE
  8
0
 10
46.3611
 20
111.145
 11
46.5565
 21
110.962
  0
LINE
  8
0
 10
46.5565
 20
110.962
 11
46.7275
 21
110.755
  0
LINE
  8
0
 10
46.7275
 20
110.755
 11
46.8712
 21
110.529
  0
LINE
  8
0
 10
46.8712
 20
110.529
 11
46.9853
 21
110.286
  0
LINE
  8
0
 10
46.9853
 20
110.286
 11
47.0682
 21
110.031
  0
LINE
  8
0
 10
47.0682
 20
110.031
 11
47.1185
 21
109.768
  0
LINE
  8
0
 10
47.1185
 20
109.768
 11
47.1353
 21
109.5
  0
LINE
  8
0
 10
47.1353
 20
109.5
 11
47.1185
 21
109.232
  0
LINE
  8
0
 10
47.1185
 20
109.232
 11
47.0682
 21
108.969
  0
LINE
  8
0
 10
47.0682
 20
108.969
 11
46.9853
 21
108.714
  0
LINE
  8
0
 10
46.9853
 20
108.714
 11
46.8712
 21
108.471
  0
LINE
  8
0
 10
46.8712
 20
108.471
 11
46.7275
 21
108.245
  0
LINE
  8
0
 10
46.7275
 20
108.245
 11
46.5565
 21
108.038
  0
LINE
  8
0
 10
46.5565
 20
108.038
 11
46.3611
 21
107.855
  0
LINE
  8
0
 10
46.3611
 20
107.855
 11
46.1441
 21
107.697
  0
LINE
  8
0
 10
46.1441
 20
107.697
 11
45.9092
 21
107.568
  0
LINE
  8
0
 10
45.9092
 20
107.568
 11
45.6598
 21
107.469
  0
LINE
  8
0
 10
45.6598
 20
107.469
 11
45.4001
 21
107.403
  0
LINE
  8
0
 10
45.4001
 20
107.403
 11
45.1341
 21
107.369
  0
LINE
  8
0
 10
45.1341
 20
107.369
 11
44.8659
 21
107.369
  0
LINE
  8
0
 10
-45.1341
 20
107.369
 11
-45.4001
 21
107.403
  0
LINE
  8
0
 10
-45.4001
 20
107.403
 11
-45.6598
 21
107.469
  0
LINE
  8
0
 10
-45.6598
 20
107.469
 11
-45.9092
 21
107.568
  0
LINE
  8
0
 10
-45.9092
 20
107.568
 11
-46.1441
 21
107.697
  0
LINE
  8
0
 10
-46.1441
 20
107.697
 11
-46.3611
 21
107.855
  0
LINE
  8
0
 10
-46.3611
 20
107.855
 11
-46.5565
 21
108.038
  0
LINE
  8
0
 10
-46.5565
 20
108.038
 11
-46.7275
 21
108.245
  0
LINE
  8
0
 10
-46.7275
 20
108.245
 11
-46.8712
 21
108.471
  0
LINE
  8
0
 10
-46.8712
 20
108.471
 11
-46.9853
 21
108.714
  0
LINE
  8
0
 10
-46.9853
 20
108.714
 11
-47.0682
 21
108.969
  0
LINE
  8
0
 10
-47.0682
 20
108.969
 11
-47.1185
 21
109.232
  0
LINE
  8
0
 10
-47.1185
 20
109.232
 11
-47.1353
 21
109.5
  0
LINE
  8
0
 10
-47.1353
 20
109.5
 11
-47.1185
 21
109.768
  0
LINE
  8
0
 10
-47.1185
 20
109.768
 11
-47.0682
 21
110.031
  0
LINE
  8
0
 10
-47.0682
 20
110.031
 11
-46.9853
 21
110.286
  0
LINE
  8
0
 10
-46.9853
 20
110.286
 11
-46.8712
 21
110.529
  0
LINE
  8
0
 10
-46.8712
 20
110.529
 11
-46.7275
 21
110.755
  0
LINE
  8
0
 10
-46.7275
 20
110.755
 11
-46.5565
 21
110.962
  0
LINE
  8
0
 10
-46.5565
 20
110.962
 11
-46.3611
 21
111.145
  0
LINE
  8
0
 10
-46.3611
 20
111.145
 11
-46.1441
 21
111.303
  0
LINE
  8
0
 10
-46.1441
 20
111.303
 11
-45.9092
 21
111.432
  0
LINE
  8
0
 10
-45.9092
 20
111.432
 11
-45.6598
 21
111.531
  0
LINE
  8
0
 10
-45.6598
 20
111.531
 11
-45.4001
 21
111.597
  0
LINE
  8
0
 10
-45.4001
 20
111.597
 11
-45.1341
 21
111.631
  0
LINE
  8
0
 10
-45.1341
 20
111.631
 11
-44.8659
 21
111.631
  0
LINE
  8
0
 10
-44.8659
 20
111.631
 11
-44.5999
 21
111.597
  0
LINE
  8
0
 10
-44.5999
 20
111.597
 11
-44.3401
 21
111.531
  0
LINE
  8
0
 10
-44.3401
 20
111.531
 11
-44.0908
 21
111.432
  0
LINE
  8
0
 10
-44.0908
 20
111.432
 11
-43.8559
 21
111.303
  0
LINE
  8
0
 10
-43.8559
 20
111.303
 11
-43.6389
 21
111.145
  0
LINE
  8
0
 10
-43.6389
 20
111.145
 11
-43.4434
 21
110.962
  0
LINE
  8
0
 10
-43.4434
 20
110.962
 11
-43.2725
 21
110.755
  0
LINE
  8
0
 10
-43.2725
 20
110.755
 11
-43.1288
 21
110.529
  0
LINE
  8
0
 10
-43.1288
 20
110.529
 11
-43.0146
 21
110.286
  0
LINE
  8
0
 10
-43.0146
 20
110.286
 11
-42.9318
 21
110.031
  0
LINE
  8
0
 10
-42.9318
 20
110.031
 11
-42.8815
 21
109.768
  0
LINE
  8
0
 10
-42.8815
 20
109.768
 11
-42.8647
 21
109.5
  0
LINE
  8
0
 10
-42.8647
 20
109.5
 11
-42.8815
 21
109.232
  0
LINE
  8
0
 10
-42.8815
 20
109.232
 11
-42.9318
 21
108.969
  0
LINE
  8
0
 10
-42.9318
 20
108.969
 11
-43.0146
 21
108.714
  0
LINE
  8
0
 10
-43.0146
 20
108.714
 11
-43.1288
 21
108.471
  0
LINE
  8
0
 10
-43.1288
 20
108.471
 11
-43.2725
 21
108.245
  0
LINE
  8
0
 10
-43.2725
 20
108.245
 11
-43.4434
 21
108.038
  0
LINE
  8
0
 10
-43.4434
 20
108.038
 11
-43.6389
 21
107.855
  0
LINE
  8
0
 10
-43.6389
 20
107.855
 11
-43.8559
 21
107.697
  0
LINE
  8
0
 10
-43.8559
 20
107.697
 11
-44.0908
 21
107.568
  0
LINE
  8
0
 10
-44.0908
 20
107.568
 11
-44.3401
 21
107.469
  0
LINE
  8
0
 10
-44.3401
 20
107.469
 11
-44.5999
 21
107.403
  0
LINE
  8
0
 10
-44.5999
 20
107.403
 11
-44.8659
 21
107.369
  0
LINE
  8
0
 10
-44.8659
 20
107.369
 11
-45.1341
 21
107.369
  0
ENDSEC
  0
SECTION
  2
OBJECTS
  0
DICTIONARY
  0
ENDSEC
  0
EOF
