<?xml version="1.0" standalone="no"?>
<!DOCTYPE svg PUBLIC "-//W3C//DTD SVG 1.1//EN" "http://www.w3.org/Graphics/SVG/1.1/DTD/svg11.dtd">
<svg width="16mm" height="100mm" viewBox="-8 -185 16 100" xmlns="http://www.w3.org/2000/svg" version="1.1">
<title>OpenSCAD Model</title>
<path d="
M 3.4369,-139.589 L 4.04507,-139.745 L 4.62889,-139.976 L 5.17912,-140.278 L 5.68712,-140.647 L 6.14484,-141.077
 L 6.54507,-141.561 L 6.88153,-142.091 L 7.14888,-142.659 L 7.34291,-143.257 L 7.46057,-143.873 L 7.5,-144.5
 L 7.5,-179.5 L 7.46057,-180.127 L 7.34291,-180.743 L 7.14888,-181.341 L 6.88153,-181.909 L 6.54507,-182.439
 L 6.14484,-182.923 L 5.68712,-183.353 L 5.17912,-183.722 L 4.62889,-184.024 L 4.04507,-184.255 L 3.4369,-184.411
 L 2.81395,-184.49 L -2.81395,-184.49 L -3.4369,-184.411 L -4.04507,-184.255 L -4.62889,-184.024 L -5.17912,-183.722
 L -5.68712,-183.353 L -6.14484,-182.923 L -6.54507,-182.439 L -6.88153,-181.909 L -7.14888,-181.341 L -7.34291,-180.743
 L -7.46057,-180.127 L -7.5,-179.5 L -7.5,-144.5 L -7.46057,-143.873 L -7.34291,-143.257 L -7.14888,-142.659
 L -6.88153,-142.091 L -6.54507,-141.561 L -6.14484,-141.077 L -5.68712,-140.647 L -5.17912,-140.278 L -4.62889,-139.976
 L -4.04507,-139.745 L -3.4369,-139.589 L -2.81395,-139.51 L 2.81395,-139.51 z
M -2.19545,-141.893 L -2.5833,-141.942 L -2.96194,-142.039 L -3.32541,-142.183 L -3.66798,-142.372 L -3.98424,-142.601
 L -4.26921,-142.869 L -4.5184,-143.17 L -4.72786,-143.5 L -4.89432,-143.854 L -5.01512,-144.226 L -5.08836,-144.61
 L -5.11292,-145 L -5.11292,-179 L -5.08836,-179.39 L -5.01512,-179.774 L -4.89432,-180.146 L -4.72786,-180.5
 L -4.5184,-180.83 L -4.26921,-181.131 L -3.98424,-181.399 L -3.66798,-181.628 L -3.32541,-181.817 L -2.96194,-181.961
 L -2.5833,-182.058 L -2.19545,-182.107 L 2.19545,-182.107 L 2.5833,-182.058 L 2.96194,-181.961 L 3.32541,-181.817
 L 3.66798,-181.628 L 3.98424,-181.399 L 4.26921,-181.131 L 4.5184,-180.83 L 4.72786,-180.5 L 4.89432,-180.146
 L 5.01512,-179.774 L 5.08836,-179.39 L 5.11292,-179 L 5.11292,-145 L 5.08836,-144.61 L 5.01512,-144.226
 L 4.89432,-143.854 L 4.72786,-143.5 L 4.5184,-143.17 L 4.26921,-142.869 L 3.98424,-142.601 L 3.66798,-142.372
 L 3.32541,-142.183 L 2.96194,-142.039 L 2.5833,-141.942 L 2.19545,-141.893 z
M 3.4369,-85.5886 L 4.04507,-85.7447 L 4.62889,-85.9759 L 5.17912,-86.2784 L 5.68712,-86.6474 L 6.14484,-87.0773
 L 6.54507,-87.5611 L 6.88153,-88.0912 L 7.14888,-88.6594 L 7.34291,-89.2566 L 7.46057,-89.8733 L 7.5,-90.5
 L 7.5,-125.5 L 7.46057,-126.127 L 7.34291,-126.743 L 7.14888,-127.341 L 6.88153,-127.909 L 6.54507,-128.439
 L 6.14484,-128.923 L 5.68712,-129.353 L 5.17912,-129.722 L 4.62889,-130.024 L 4.04507,-130.255 L 3.4369,-130.411
 L 2.81395,-130.49 L -2.81395,-130.49 L -3.4369,-130.411 L -4.04507,-130.255 L -4.62889,-130.024 L -5.17912,-129.722
 L -5.68712,-129.353 L -6.14484,-128.923 L -6.54507,-128.439 L -6.88153,-127.909 L -7.14888,-127.341 L -7.34291,-126.743
 L -7.46057,-126.127 L -7.5,-125.5 L -7.5,-90.5 L -7.46057,-89.8733 L -7.34291,-89.2566 L -7.14888,-88.6594
 L -6.88153,-88.0912 L -6.54507,-87.5611 L -6.14484,-87.0773 L -5.68712,-86.6474 L -5.17912,-86.2784 L -4.62889,-85.9759
 L -4.04507,-85.7447 L -3.4369,-85.5886 L -2.81395,-85.5099 L 2.81395,-85.5099 z
M -0.134064,-120.869 L -0.400101,-120.903 L -0.659836,-120.969 L -0.909149,-121.068 L -1.14413,-121.197 L -1.36108,-121.355
 L -1.55655,-121.538 L -1.72748,-121.745 L -1.87117,-121.971 L -1.98534,-122.214 L -2.06821,-122.469 L -2.11845,-122.732
 L -2.13528,-123 L -2.11845,-123.268 L -2.06821,-123.531 L -1.98534,-123.786 L -1.87117,-124.029 L -1.72748,-124.255
 L -1.55655,-124.462 L -1.36108,-124.645 L -1.14413,-124.803 L -0.909149,-124.932 L -0.659836,-125.031 L -0.400101,-125.097
 L -0.134064,-125.131 L 0.134064,-125.131 L 0.400101,-125.097 L 0.659836,-125.031 L 0.909149,-124.932 L 1.14413,-124.803
 L 1.36108,-124.645 L 1.55655,-124.462 L 1.72748,-124.255 L 1.87117,-124.029 L 1.98534,-123.786 L 2.06821,-123.531
 L 2.11845,-123.268 L 2.13528,-123 L 2.11845,-122.732 L 2.06821,-122.469 L 1.98534,-122.214 L 1.87117,-121.971
 L 1.72748,-121.745 L 1.55655,-121.538 L 1.36108,-121.355 L 1.14413,-121.197 L 0.909149,-121.068 L 0.659836,-120.969
 L 0.400101,-120.903 L 0.134064,-120.869 z
M -0.134064,-90.8689 L -0.400101,-90.9025 L -0.659836,-90.9692 L -0.909149,-91.0679 L -1.14413,-91.1971 L -1.36108,-91.3547
 L -1.55655,-91.5383 L -1.72748,-91.7449 L -1.87117,-91.9713 L -1.98534,-92.214 L -2.06821,-92.469 L -2.11845,-92.7324
 L -2.13528,-93 L -2.11845,-93.2676 L -2.06821,-93.531 L -1.98534,-93.7861 L -1.87117,-94.0287 L -1.72748,-94.2551
 L -1.55655,-94.4617 L -1.36108,-94.6453 L -1.14413,-94.8029 L -0.909149,-94.9321 L -0.659836,-95.0308 L -0.400101,-95.0975
 L -0.134064,-95.1311 L 0.134064,-95.1311 L 0.400101,-95.0975 L 0.659836,-95.0308 L 0.909149,-94.9321 L 1.14413,-94.8029
 L 1.36108,-94.6453 L 1.55655,-94.4617 L 1.72748,-94.2551 L 1.87117,-94.0287 L 1.98534,-93.7861 L 2.06821,-93.531
 L 2.11845,-93.2676 L 2.13528,-93 L 2.11845,-92.7324 L 2.06821,-92.469 L 1.98534,-92.214 L 1.87117,-91.9713
 L 1.72748,-91.7449 L 1.55655,-91.5383 L 1.36108,-91.3547 L 1.14413,-91.1971 L 0.909149,-91.0679 L 0.659836,-90.9692
 L 0.400101,-90.9025 L 0.134064,-90.8689 z
" stroke="black" fill="lightgray" stroke-width="0.5"/>
</svg>
