  0
SECTION
  2
BLOCKS
  0
ENDSEC
  0
SECTION
  2
ENTITIES
  0
LINE
  8
0
 10
48.4369
 20
177.089
 11
49.0451
 21
177.245
  0
LINE
  8
0
 10
49.0451
 20
177.245
 11
49.6289
 21
177.476
  0
LINE
  8
0
 10
49.6289
 20
177.476
 11
50.1791
 21
177.778
  0
LINE
  8
0
 10
50.1791
 20
177.778
 11
50.6871
 21
178.147
  0
LINE
  8
0
 10
50.6871
 20
178.147
 11
51.1448
 21
178.577
  0
LINE
  8
0
 10
51.1448
 20
178.577
 11
51.5451
 21
179.061
  0
LINE
  8
0
 10
51.5451
 20
179.061
 11
51.8815
 21
179.591
  0
LINE
  8
0
 10
51.8815
 20
179.591
 11
52.1489
 21
180.159
  0
LINE
  8
0
 10
52.1489
 20
180.159
 11
52.3429
 21
180.757
  0
LINE
  8
0
 10
52.3429
 20
180.757
 11
52.4606
 21
181.373
  0
LINE
  8
0
 10
52.4606
 20
181.373
 11
52.5
 21
182
  0
LINE
  8
0
 10
52.5
 20
182
 11
52.5
 21
232
  0
LINE
  8
0
 10
52.5
 20
232
 11
52.4606
 21
232.627
  0
LINE
  8
0
 10
52.4606
 20
232.627
 11
52.3429
 21
233.243
  0
LINE
  8
0
 10
52.3429
 20
233.243
 11
52.1489
 21
233.841
  0
LINE
  8
0
 10
52.1489
 20
233.841
 11
51.8815
 21
234.409
  0
LINE
  8
0
 10
51.8815
 20
234.409
 11
51.5451
 21
234.939
  0
LINE
  8
0
 10
51.5451
 20
234.939
 11
51.1448
 21
235.423
  0
LINE
  8
0
 10
51.1448
 20
235.423
 11
50.6871
 21
235.853
  0
LINE
  8
0
 10
50.6871
 20
235.853
 11
50.1791
 21
236.222
  0
LINE
  8
0
 10
50.1791
 20
236.222
 11
49.6289
 21
236.524
  0
LINE
  8
0
 10
49.6289
 20
236.524
 11
49.0451
 21
236.755
  0
LINE
  8
0
 10
49.0451
 20
236.755
 11
48.4369
 21
236.911
  0
LINE
  8
0
 10
48.4369
 20
236.911
 11
47.8139
 21
236.99
  0
LINE
  8
0
 10
47.8139
 20
236.99
 11
-47.8139
 21
236.99
  0
LINE
  8
0
 10
-47.8139
 20
236.99
 11
-48.4369
 21
236.911
  0
LINE
  8
0
 10
-48.4369
 20
236.911
 11
-49.0451
 21
236.755
  0
LINE
  8
0
 10
-49.0451
 20
236.755
 11
-49.6289
 21
236.524
  0
LINE
  8
0
 10
-49.6289
 20
236.524
 11
-50.1791
 21
236.222
  0
LINE
  8
0
 10
-50.1791
 20
236.222
 11
-50.6871
 21
235.853
  0
LINE
  8
0
 10
-50.6871
 20
235.853
 11
-51.1448
 21
235.423
  0
LINE
  8
0
 10
-51.1448
 20
235.423
 11
-51.5451
 21
234.939
  0
LINE
  8
0
 10
-51.5451
 20
234.939
 11
-51.8815
 21
234.409
  0
LINE
  8
0
 10
-51.8815
 20
234.409
 11
-52.1489
 21
233.841
  0
LINE
  8
0
 10
-52.1489
 20
233.841
 11
-52.3429
 21
233.243
  0
LINE
  8
0
 10
-52.3429
 20
233.243
 11
-52.4606
 21
232.627
  0
LINE
  8
0
 10
-52.4606
 20
232.627
 11
-52.5
 21
232
  0
LINE
  8
0
 10
-52.5
 20
232
 11
-52.5
 21
182
  0
LINE
  8
0
 10
-52.5
 20
182
 11
-52.4606
 21
181.373
  0
LINE
  8
0
 10
-52.4606
 20
181.373
 11
-52.3429
 21
180.757
  0
LINE
  8
0
 10
-52.3429
 20
180.757
 11
-52.1489
 21
180.159
  0
LINE
  8
0
 10
-52.1489
 20
180.159
 11
-51.8815
 21
179.591
  0
LINE
  8
0
 10
-51.8815
 20
179.591
 11
-51.5451
 21
179.061
  0
LINE
  8
0
 10
-51.5451
 20
179.061
 11
-51.1448
 21
178.577
  0
LINE
  8
0
 10
-51.1448
 20
178.577
 11
-50.6871
 21
178.147
  0
LINE
  8
0
 10
-50.6871
 20
178.147
 11
-50.1791
 21
177.778
  0
LINE
  8
0
 10
-50.1791
 20
177.778
 11
-49.6289
 21
177.476
  0
LINE
  8
0
 10
-49.6289
 20
177.476
 11
-49.0451
 21
177.245
  0
LINE
  8
0
 10
-49.0451
 20
177.245
 11
-48.4369
 21
177.089
  0
LINE
  8
0
 10
-48.4369
 20
177.089
 11
-47.8139
 21
177.01
  0
LINE
  8
0
 10
-47.8139
 20
177.01
 11
47.8139
 21
177.01
  0
LINE
  8
0
 10
47.8139
 20
177.01
 11
48.4369
 21
177.089
  0
LINE
  8
0
 10
-47.5375
 20
177.681
 11
-48.1079
 21
177.753
  0
LINE
  8
0
 10
-48.1079
 20
177.753
 11
-48.6648
 21
177.896
  0
LINE
  8
0
 10
-48.6648
 20
177.896
 11
-49.1994
 21
178.107
  0
LINE
  8
0
 10
-49.1994
 20
178.107
 11
-49.7032
 21
178.384
  0
LINE
  8
0
 10
-49.7032
 20
178.384
 11
-50.1684
 21
178.722
  0
LINE
  8
0
 10
-50.1684
 20
178.722
 11
-50.5875
 21
179.116
  0
LINE
  8
0
 10
-50.5875
 20
179.116
 11
-50.954
 21
179.559
  0
LINE
  8
0
 10
-50.954
 20
179.559
 11
-51.2621
 21
180.044
  0
LINE
  8
0
 10
-51.2621
 20
180.044
 11
-51.5069
 21
180.565
  0
LINE
  8
0
 10
-51.5069
 20
180.565
 11
-51.6846
 21
181.111
  0
LINE
  8
0
 10
-51.6846
 20
181.111
 11
-51.7923
 21
181.676
  0
LINE
  8
0
 10
-51.7923
 20
181.676
 11
-51.8284
 21
182.25
  0
LINE
  8
0
 10
-51.8284
 20
182.25
 11
-51.8284
 21
231.75
  0
LINE
  8
0
 10
-51.8284
 20
231.75
 11
-51.7923
 21
232.324
  0
LINE
  8
0
 10
-51.7923
 20
232.324
 11
-51.6846
 21
232.889
  0
LINE
  8
0
 10
-51.6846
 20
232.889
 11
-51.5069
 21
233.435
  0
LINE
  8
0
 10
-51.5069
 20
233.435
 11
-51.2621
 21
233.956
  0
LINE
  8
0
 10
-51.2621
 20
233.956
 11
-50.954
 21
234.441
  0
LINE
  8
0
 10
-50.954
 20
234.441
 11
-50.5875
 21
234.884
  0
LINE
  8
0
 10
-50.5875
 20
234.884
 11
-50.1684
 21
235.278
  0
LINE
  8
0
 10
-50.1684
 20
235.278
 11
-49.7032
 21
235.616
  0
LINE
  8
0
 10
-49.7032
 20
235.616
 11
-49.1994
 21
235.893
  0
LINE
  8
0
 10
-49.1994
 20
235.893
 11
-48.6648
 21
236.104
  0
LINE
  8
0
 10
-48.6648
 20
236.104
 11
-48.1079
 21
236.247
  0
LINE
  8
0
 10
-48.1079
 20
236.247
 11
-47.5375
 21
236.319
  0
LINE
  8
0
 10
-47.5375
 20
236.319
 11
47.5375
 21
236.319
  0
LINE
  8
0
 10
47.5375
 20
236.319
 11
48.1079
 21
236.247
  0
LINE
  8
0
 10
48.1079
 20
236.247
 11
48.6648
 21
236.104
  0
LINE
  8
0
 10
48.6648
 20
236.104
 11
49.1994
 21
235.893
  0
LINE
  8
0
 10
49.1994
 20
235.893
 11
49.7032
 21
235.616
  0
LINE
  8
0
 10
49.7032
 20
235.616
 11
50.1684
 21
235.278
  0
LINE
  8
0
 10
50.1684
 20
235.278
 11
50.5875
 21
234.884
  0
LINE
  8
0
 10
50.5875
 20
234.884
 11
50.954
 21
234.441
  0
LINE
  8
0
 10
50.954
 20
234.441
 11
51.2621
 21
233.956
  0
LINE
  8
0
 10
51.2621
 20
233.956
 11
51.5069
 21
233.435
  0
LINE
  8
0
 10
51.5069
 20
233.435
 11
51.6846
 21
232.889
  0
LINE
  8
0
 10
51.6846
 20
232.889
 11
51.7923
 21
232.324
  0
LINE
  8
0
 10
51.7923
 20
232.324
 11
51.8284
 21
231.75
  0
LINE
  8
0
 10
51.8284
 20
231.75
 11
51.8284
 21
182.25
  0
LINE
  8
0
 10
51.8284
 20
182.25
 11
51.7923
 21
181.676
  0
LINE
  8
0
 10
51.7923
 20
181.676
 11
51.6846
 21
181.111
  0
LINE
  8
0
 10
51.6846
 20
181.111
 11
51.5069
 21
180.565
  0
LINE
  8
0
 10
51.5069
 20
180.565
 11
51.2621
 21
180.044
  0
LINE
  8
0
 10
51.2621
 20
180.044
 11
50.954
 21
179.559
  0
LINE
  8
0
 10
50.954
 20
179.559
 11
50.5875
 21
179.116
  0
LINE
  8
0
 10
50.5875
 20
179.116
 11
50.1684
 21
178.722
  0
LINE
  8
0
 10
50.1684
 20
178.722
 11
49.7032
 21
178.384
  0
LINE
  8
0
 10
49.7032
 20
178.384
 11
49.1994
 21
178.107
  0
LINE
  8
0
 10
49.1994
 20
178.107
 11
48.6648
 21
177.896
  0
LINE
  8
0
 10
48.6648
 20
177.896
 11
48.1079
 21
177.753
  0
LINE
  8
0
 10
48.1079
 20
177.753
 11
47.5375
 21
177.681
  0
LINE
  8
0
 10
47.5375
 20
177.681
 11
-47.5375
 21
177.681
  0
LINE
  8
0
 10
48.4369
 20
108.089
 11
49.0451
 21
108.245
  0
LINE
  8
0
 10
49.0451
 20
108.245
 11
49.6289
 21
108.476
  0
LINE
  8
0
 10
49.6289
 20
108.476
 11
50.1791
 21
108.778
  0
LINE
  8
0
 10
50.1791
 20
108.778
 11
50.6871
 21
109.147
  0
LINE
  8
0
 10
50.6871
 20
109.147
 11
51.1448
 21
109.577
  0
LINE
  8
0
 10
51.1448
 20
109.577
 11
51.5451
 21
110.061
  0
LINE
  8
0
 10
51.5451
 20
110.061
 11
51.8815
 21
110.591
  0
LINE
  8
0
 10
51.8815
 20
110.591
 11
52.1489
 21
111.159
  0
LINE
  8
0
 10
52.1489
 20
111.159
 11
52.3429
 21
111.757
  0
LINE
  8
0
 10
52.3429
 20
111.757
 11
52.4606
 21
112.373
  0
LINE
  8
0
 10
52.4606
 20
112.373
 11
52.5
 21
113
  0
LINE
  8
0
 10
52.5
 20
113
 11
52.5
 21
163
  0
LINE
  8
0
 10
52.5
 20
163
 11
52.4606
 21
163.627
  0
LINE
  8
0
 10
52.4606
 20
163.627
 11
52.3429
 21
164.243
  0
LINE
  8
0
 10
52.3429
 20
164.243
 11
52.1489
 21
164.841
  0
LINE
  8
0
 10
52.1489
 20
164.841
 11
51.8815
 21
165.409
  0
LINE
  8
0
 10
51.8815
 20
165.409
 11
51.5451
 21
165.939
  0
LINE
  8
0
 10
51.5451
 20
165.939
 11
51.1448
 21
166.423
  0
LINE
  8
0
 10
51.1448
 20
166.423
 11
50.6871
 21
166.853
  0
LINE
  8
0
 10
50.6871
 20
166.853
 11
50.1791
 21
167.222
  0
LINE
  8
0
 10
50.1791
 20
167.222
 11
49.6289
 21
167.524
  0
LINE
  8
0
 10
49.6289
 20
167.524
 11
49.0451
 21
167.755
  0
LINE
  8
0
 10
49.0451
 20
167.755
 11
48.4369
 21
167.911
  0
LINE
  8
0
 10
48.4369
 20
167.911
 11
47.8139
 21
167.99
  0
LINE
  8
0
 10
47.8139
 20
167.99
 11
-47.8139
 21
167.99
  0
LINE
  8
0
 10
-47.8139
 20
167.99
 11
-48.4369
 21
167.911
  0
LINE
  8
0
 10
-48.4369
 20
167.911
 11
-49.0451
 21
167.755
  0
LINE
  8
0
 10
-49.0451
 20
167.755
 11
-49.6289
 21
167.524
  0
LINE
  8
0
 10
-49.6289
 20
167.524
 11
-50.1791
 21
167.222
  0
LINE
  8
0
 10
-50.1791
 20
167.222
 11
-50.6871
 21
166.853
  0
LINE
  8
0
 10
-50.6871
 20
166.853
 11
-51.1448
 21
166.423
  0
LINE
  8
0
 10
-51.1448
 20
166.423
 11
-51.5451
 21
165.939
  0
LINE
  8
0
 10
-51.5451
 20
165.939
 11
-51.8815
 21
165.409
  0
LINE
  8
0
 10
-51.8815
 20
165.409
 11
-52.1489
 21
164.841
  0
LINE
  8
0
 10
-52.1489
 20
164.841
 11
-52.3429
 21
164.243
  0
LINE
  8
0
 10
-52.3429
 20
164.243
 11
-52.4606
 21
163.627
  0
LINE
  8
0
 10
-52.4606
 20
163.627
 11
-52.5
 21
163
  0
LINE
  8
0
 10
-52.5
 20
163
 11
-52.5
 21
113
  0
LINE
  8
0
 10
-52.5
 20
113
 11
-52.4606
 21
112.373
  0
LINE
  8
0
 10
-52.4606
 20
112.373
 11
-52.3429
 21
111.757
  0
LINE
  8
0
 10
-52.3429
 20
111.757
 11
-52.1489
 21
111.159
  0
LINE
  8
0
 10
-52.1489
 20
111.159
 11
-51.8815
 21
110.591
  0
LINE
  8
0
 10
-51.8815
 20
110.591
 11
-51.5451
 21
110.061
  0
LINE
  8
0
 10
-51.5451
 20
110.061
 11
-51.1448
 21
109.577
  0
LINE
  8
0
 10
-51.1448
 20
109.577
 11
-50.6871
 21
109.147
  0
LINE
  8
0
 10
-50.6871
 20
109.147
 11
-50.1791
 21
108.778
  0
LINE
  8
0
 10
-50.1791
 20
108.778
 11
-49.6289
 21
108.476
  0
LINE
  8
0
 10
-49.6289
 20
108.476
 11
-49.0451
 21
108.245
  0
LINE
  8
0
 10
-49.0451
 20
108.245
 11
-48.4369
 21
108.089
  0
LINE
  8
0
 10
-48.4369
 20
108.089
 11
-47.8139
 21
108.01
  0
LINE
  8
0
 10
-47.8139
 20
108.01
 11
47.8139
 21
108.01
  0
LINE
  8
0
 10
47.8139
 20
108.01
 11
48.4369
 21
108.089
  0
LINE
  8
0
 10
-47.3825
 20
111.145
 11
-47.6453
 21
111.178
  0
LINE
  8
0
 10
-47.6453
 20
111.178
 11
-47.9019
 21
111.244
  0
LINE
  8
0
 10
-47.9019
 20
111.244
 11
-48.1482
 21
111.341
  0
LINE
  8
0
 10
-48.1482
 20
111.341
 11
-48.3804
 21
111.469
  0
LINE
  8
0
 10
-48.3804
 20
111.469
 11
-48.5947
 21
111.625
  0
LINE
  8
0
 10
-48.5947
 20
111.625
 11
-48.7879
 21
111.806
  0
LINE
  8
0
 10
-48.7879
 20
111.806
 11
-48.9567
 21
112.01
  0
LINE
  8
0
 10
-48.9567
 20
112.01
 11
-49.0987
 21
112.234
  0
LINE
  8
0
 10
-49.0987
 20
112.234
 11
-49.2115
 21
112.473
  0
LINE
  8
0
 10
-49.2115
 20
112.473
 11
-49.2934
 21
112.725
  0
LINE
  8
0
 10
-49.2934
 20
112.725
 11
-49.343
 21
112.986
  0
LINE
  8
0
 10
-49.343
 20
112.986
 11
-49.3596
 21
113.25
  0
LINE
  8
0
 10
-49.3596
 20
113.25
 11
-49.3596
 21
162.75
  0
LINE
  8
0
 10
-49.3596
 20
162.75
 11
-49.343
 21
163.014
  0
LINE
  8
0
 10
-49.343
 20
163.014
 11
-49.2934
 21
163.275
  0
LINE
  8
0
 10
-49.2934
 20
163.275
 11
-49.2115
 21
163.527
  0
LINE
  8
0
 10
-49.2115
 20
163.527
 11
-49.0987
 21
163.766
  0
LINE
  8
0
 10
-49.0987
 20
163.766
 11
-48.9567
 21
163.99
  0
LINE
  8
0
 10
-48.9567
 20
163.99
 11
-48.7879
 21
164.194
  0
LINE
  8
0
 10
-48.7879
 20
164.194
 11
-48.5947
 21
164.375
  0
LINE
  8
0
 10
-48.5947
 20
164.375
 11
-48.3804
 21
164.531
  0
LINE
  8
0
 10
-48.3804
 20
164.531
 11
-48.1482
 21
164.659
  0
LINE
  8
0
 10
-48.1482
 20
164.659
 11
-47.9019
 21
164.756
  0
LINE
  8
0
 10
-47.9019
 20
164.756
 11
-47.6453
 21
164.822
  0
LINE
  8
0
 10
-47.6453
 20
164.822
 11
-47.3825
 21
164.855
  0
LINE
  8
0
 10
-47.3825
 20
164.855
 11
47.3825
 21
164.855
  0
LINE
  8
0
 10
47.3825
 20
164.855
 11
47.6453
 21
164.822
  0
LINE
  8
0
 10
47.6453
 20
164.822
 11
47.9019
 21
164.756
  0
LINE
  8
0
 10
47.9019
 20
164.756
 11
48.1482
 21
164.659
  0
LINE
  8
0
 10
48.1482
 20
164.659
 11
48.3804
 21
164.531
  0
LINE
  8
0
 10
48.3804
 20
164.531
 11
48.5947
 21
164.375
  0
LINE
  8
0
 10
48.5947
 20
164.375
 11
48.7879
 21
164.194
  0
LINE
  8
0
 10
48.7879
 20
164.194
 11
48.9567
 21
163.99
  0
LINE
  8
0
 10
48.9567
 20
163.99
 11
49.0987
 21
163.766
  0
LINE
  8
0
 10
49.0987
 20
163.766
 11
49.2115
 21
163.527
  0
LINE
  8
0
 10
49.2115
 20
163.527
 11
49.2934
 21
163.275
  0
LINE
  8
0
 10
49.2934
 20
163.275
 11
49.343
 21
163.014
  0
LINE
  8
0
 10
49.343
 20
163.014
 11
49.3596
 21
162.75
  0
LINE
  8
0
 10
49.3596
 20
162.75
 11
49.3596
 21
113.25
  0
LINE
  8
0
 10
49.3596
 20
113.25
 11
49.343
 21
112.986
  0
LINE
  8
0
 10
49.343
 20
112.986
 11
49.2934
 21
112.725
  0
LINE
  8
0
 10
49.2934
 20
112.725
 11
49.2115
 21
112.473
  0
LINE
  8
0
 10
49.2115
 20
112.473
 11
49.0987
 21
112.234
  0
LINE
  8
0
 10
49.0987
 20
112.234
 11
48.9567
 21
112.01
  0
LINE
  8
0
 10
48.9567
 20
112.01
 11
48.7879
 21
111.806
  0
LINE
  8
0
 10
48.7879
 20
111.806
 11
48.5947
 21
111.625
  0
LINE
  8
0
 10
48.5947
 20
111.625
 11
48.3804
 21
111.469
  0
LINE
  8
0
 10
48.3804
 20
111.469
 11
48.1482
 21
111.341
  0
LINE
  8
0
 10
48.1482
 20
111.341
 11
47.9019
 21
111.244
  0
LINE
  8
0
 10
47.9019
 20
111.244
 11
47.6453
 21
111.178
  0
LINE
  8
0
 10
47.6453
 20
111.178
 11
47.3825
 21
111.145
  0
LINE
  8
0
 10
47.3825
 20
111.145
 11
-47.3825
 21
111.145
  0
ENDSEC
  0
SECTION
  2
OBJECTS
  0
DICTIONARY
  0
ENDSEC
  0
EOF
