  0
SECTION
  2
BLOCKS
  0
ENDSEC
  0
SECTION
  2
ENTITIES
  0
LINE
  8
0
 10
40.9369
 20
102.089
 11
41.5451
 21
102.245
  0
LINE
  8
0
 10
41.5451
 20
102.245
 11
42.1289
 21
102.476
  0
LINE
  8
0
 10
42.1289
 20
102.476
 11
42.6791
 21
102.778
  0
LINE
  8
0
 10
42.6791
 20
102.778
 11
43.1871
 21
103.147
  0
LINE
  8
0
 10
43.1871
 20
103.147
 11
43.6448
 21
103.577
  0
LINE
  8
0
 10
43.6448
 20
103.577
 11
44.0451
 21
104.061
  0
LINE
  8
0
 10
44.0451
 20
104.061
 11
44.3815
 21
104.591
  0
LINE
  8
0
 10
44.3815
 20
104.591
 11
44.6489
 21
105.159
  0
LINE
  8
0
 10
44.6489
 20
105.159
 11
44.8429
 21
105.757
  0
LINE
  8
0
 10
44.8429
 20
105.757
 11
44.9606
 21
106.373
  0
LINE
  8
0
 10
44.9606
 20
106.373
 11
45
 21
107
  0
LINE
  8
0
 10
45
 20
107
 11
45
 21
127
  0
LINE
  8
0
 10
45
 20
127
 11
44.9606
 21
127.627
  0
LINE
  8
0
 10
44.9606
 20
127.627
 11
44.8429
 21
128.243
  0
LINE
  8
0
 10
44.8429
 20
128.243
 11
44.6489
 21
128.841
  0
LINE
  8
0
 10
44.6489
 20
128.841
 11
44.3815
 21
129.409
  0
LINE
  8
0
 10
44.3815
 20
129.409
 11
44.0451
 21
129.939
  0
LINE
  8
0
 10
44.0451
 20
129.939
 11
43.6448
 21
130.423
  0
LINE
  8
0
 10
43.6448
 20
130.423
 11
43.1871
 21
130.853
  0
LINE
  8
0
 10
43.1871
 20
130.853
 11
42.6791
 21
131.222
  0
LINE
  8
0
 10
42.6791
 20
131.222
 11
42.1289
 21
131.524
  0
LINE
  8
0
 10
42.1289
 20
131.524
 11
41.5451
 21
131.755
  0
LINE
  8
0
 10
41.5451
 20
131.755
 11
40.9369
 21
131.911
  0
LINE
  8
0
 10
40.9369
 20
131.911
 11
40.3139
 21
131.99
  0
LINE
  8
0
 10
40.3139
 20
131.99
 11
-40.3139
 21
131.99
  0
LINE
  8
0
 10
-40.3139
 20
131.99
 11
-40.9369
 21
131.911
  0
LINE
  8
0
 10
-40.9369
 20
131.911
 11
-41.5451
 21
131.755
  0
LINE
  8
0
 10
-41.5451
 20
131.755
 11
-42.1289
 21
131.524
  0
LINE
  8
0
 10
-42.1289
 20
131.524
 11
-42.6791
 21
131.222
  0
LINE
  8
0
 10
-42.6791
 20
131.222
 11
-43.1871
 21
130.853
  0
LINE
  8
0
 10
-43.1871
 20
130.853
 11
-43.5
 21
130.559
  0
LINE
  8
0
 10
-43.5
 20
130.559
 11
-43.5
 21
131.979
  0
LINE
  8
0
 10
-43.5
 20
131.979
 11
-46.5
 21
131.979
  0
LINE
  8
0
 10
-46.5
 20
131.979
 11
-46.5
 21
102.021
  0
LINE
  8
0
 10
-46.5
 20
102.021
 11
-43.5
 21
102.021
  0
LINE
  8
0
 10
-43.5
 20
102.021
 11
-43.5
 21
103.441
  0
LINE
  8
0
 10
-43.5
 20
103.441
 11
-43.1871
 21
103.147
  0
LINE
  8
0
 10
-43.1871
 20
103.147
 11
-42.6791
 21
102.778
  0
LINE
  8
0
 10
-42.6791
 20
102.778
 11
-42.1289
 21
102.476
  0
LINE
  8
0
 10
-42.1289
 20
102.476
 11
-41.5451
 21
102.245
  0
LINE
  8
0
 10
-41.5451
 20
102.245
 11
-40.9369
 21
102.089
  0
LINE
  8
0
 10
-40.9369
 20
102.089
 11
-40.3139
 21
102.01
  0
LINE
  8
0
 10
-40.3139
 20
102.01
 11
40.3139
 21
102.01
  0
LINE
  8
0
 10
40.3139
 20
102.01
 11
40.9369
 21
102.089
  0
LINE
  8
0
 10
-39.6954
 20
104.393
 11
-40.0833
 21
104.442
  0
LINE
  8
0
 10
-40.0833
 20
104.442
 11
-40.4619
 21
104.539
  0
LINE
  8
0
 10
-40.4619
 20
104.539
 11
-40.8254
 21
104.683
  0
LINE
  8
0
 10
-40.8254
 20
104.683
 11
-41.168
 21
104.872
  0
LINE
  8
0
 10
-41.168
 20
104.872
 11
-41.4842
 21
105.101
  0
LINE
  8
0
 10
-41.4842
 20
105.101
 11
-41.7692
 21
105.369
  0
LINE
  8
0
 10
-41.7692
 20
105.369
 11
-42.0184
 21
105.67
  0
LINE
  8
0
 10
-42.0184
 20
105.67
 11
-42.2279
 21
106
  0
LINE
  8
0
 10
-42.2279
 20
106
 11
-42.3943
 21
106.354
  0
LINE
  8
0
 10
-42.3943
 20
106.354
 11
-42.5151
 21
106.726
  0
LINE
  8
0
 10
-42.5151
 20
106.726
 11
-42.5884
 21
107.11
  0
LINE
  8
0
 10
-42.5884
 20
107.11
 11
-42.6129
 21
107.5
  0
LINE
  8
0
 10
-42.6129
 20
107.5
 11
-42.6129
 21
126.5
  0
LINE
  8
0
 10
-42.6129
 20
126.5
 11
-42.5884
 21
126.89
  0
LINE
  8
0
 10
-42.5884
 20
126.89
 11
-42.5151
 21
127.274
  0
LINE
  8
0
 10
-42.5151
 20
127.274
 11
-42.3943
 21
127.646
  0
LINE
  8
0
 10
-42.3943
 20
127.646
 11
-42.2279
 21
128
  0
LINE
  8
0
 10
-42.2279
 20
128
 11
-42.0184
 21
128.33
  0
LINE
  8
0
 10
-42.0184
 20
128.33
 11
-41.7692
 21
128.631
  0
LINE
  8
0
 10
-41.7692
 20
128.631
 11
-41.4842
 21
128.899
  0
LINE
  8
0
 10
-41.4842
 20
128.899
 11
-41.168
 21
129.128
  0
LINE
  8
0
 10
-41.168
 20
129.128
 11
-40.8254
 21
129.317
  0
LINE
  8
0
 10
-40.8254
 20
129.317
 11
-40.4619
 21
129.461
  0
LINE
  8
0
 10
-40.4619
 20
129.461
 11
-40.0833
 21
129.558
  0
LINE
  8
0
 10
-40.0833
 20
129.558
 11
-39.6954
 21
129.607
  0
LINE
  8
0
 10
-39.6954
 20
129.607
 11
39.6954
 21
129.607
  0
LINE
  8
0
 10
39.6954
 20
129.607
 11
40.0833
 21
129.558
  0
LINE
  8
0
 10
40.0833
 20
129.558
 11
40.4619
 21
129.461
  0
LINE
  8
0
 10
40.4619
 20
129.461
 11
40.8254
 21
129.317
  0
LINE
  8
0
 10
40.8254
 20
129.317
 11
41.168
 21
129.128
  0
LINE
  8
0
 10
41.168
 20
129.128
 11
41.4842
 21
128.899
  0
LINE
  8
0
 10
41.4842
 20
128.899
 11
41.7692
 21
128.631
  0
LINE
  8
0
 10
41.7692
 20
128.631
 11
42.0184
 21
128.33
  0
LINE
  8
0
 10
42.0184
 20
128.33
 11
42.2279
 21
128
  0
LINE
  8
0
 10
42.2279
 20
128
 11
42.3943
 21
127.646
  0
LINE
  8
0
 10
42.3943
 20
127.646
 11
42.5151
 21
127.274
  0
LINE
  8
0
 10
42.5151
 20
127.274
 11
42.5884
 21
126.89
  0
LINE
  8
0
 10
42.5884
 20
126.89
 11
42.6129
 21
126.5
  0
LINE
  8
0
 10
42.6129
 20
126.5
 11
42.6129
 21
107.5
  0
LINE
  8
0
 10
42.6129
 20
107.5
 11
42.5884
 21
107.11
  0
LINE
  8
0
 10
42.5884
 20
107.11
 11
42.5151
 21
106.726
  0
LINE
  8
0
 10
42.5151
 20
106.726
 11
42.3943
 21
106.354
  0
LINE
  8
0
 10
42.3943
 20
106.354
 11
42.2279
 21
106
  0
LINE
  8
0
 10
42.2279
 20
106
 11
42.0184
 21
105.67
  0
LINE
  8
0
 10
42.0184
 20
105.67
 11
41.7692
 21
105.369
  0
LINE
  8
0
 10
41.7692
 20
105.369
 11
41.4842
 21
105.101
  0
LINE
  8
0
 10
41.4842
 20
105.101
 11
41.168
 21
104.872
  0
LINE
  8
0
 10
41.168
 20
104.872
 11
40.8254
 21
104.683
  0
LINE
  8
0
 10
40.8254
 20
104.683
 11
40.4619
 21
104.539
  0
LINE
  8
0
 10
40.4619
 20
104.539
 11
40.0833
 21
104.442
  0
LINE
  8
0
 10
40.0833
 20
104.442
 11
39.6954
 21
104.393
  0
LINE
  8
0
 10
39.6954
 20
104.393
 11
-39.6954
 21
104.393
  0
LINE
  8
0
 10
40.9369
 20
63.0886
 11
41.5451
 21
63.2447
  0
LINE
  8
0
 10
41.5451
 20
63.2447
 11
42.1289
 21
63.4759
  0
LINE
  8
0
 10
42.1289
 20
63.4759
 11
42.6791
 21
63.7784
  0
LINE
  8
0
 10
42.6791
 20
63.7784
 11
43.1871
 21
64.1474
  0
LINE
  8
0
 10
43.1871
 20
64.1474
 11
43.6448
 21
64.5773
  0
LINE
  8
0
 10
43.6448
 20
64.5773
 11
44.0451
 21
65.0611
  0
LINE
  8
0
 10
44.0451
 20
65.0611
 11
44.3815
 21
65.5912
  0
LINE
  8
0
 10
44.3815
 20
65.5912
 11
44.6489
 21
66.1594
  0
LINE
  8
0
 10
44.6489
 20
66.1594
 11
44.8429
 21
66.7566
  0
LINE
  8
0
 10
44.8429
 20
66.7566
 11
44.9606
 21
67.3733
  0
LINE
  8
0
 10
44.9606
 20
67.3733
 11
45
 21
68
  0
LINE
  8
0
 10
45
 20
68
 11
45
 21
88
  0
LINE
  8
0
 10
45
 20
88
 11
44.9606
 21
88.6267
  0
LINE
  8
0
 10
44.9606
 20
88.6267
 11
44.8429
 21
89.2434
  0
LINE
  8
0
 10
44.8429
 20
89.2434
 11
44.6489
 21
89.8406
  0
LINE
  8
0
 10
44.6489
 20
89.8406
 11
44.3815
 21
90.4088
  0
LINE
  8
0
 10
44.3815
 20
90.4088
 11
44.0451
 21
90.9389
  0
LINE
  8
0
 10
44.0451
 20
90.9389
 11
43.6448
 21
91.4227
  0
LINE
  8
0
 10
43.6448
 20
91.4227
 11
43.1871
 21
91.8526
  0
LINE
  8
0
 10
43.1871
 20
91.8526
 11
42.6791
 21
92.2216
  0
LINE
  8
0
 10
42.6791
 20
92.2216
 11
42.1289
 21
92.5241
  0
LINE
  8
0
 10
42.1289
 20
92.5241
 11
41.5451
 21
92.7553
  0
LINE
  8
0
 10
41.5451
 20
92.7553
 11
40.9369
 21
92.9114
  0
LINE
  8
0
 10
40.9369
 20
92.9114
 11
40.3139
 21
92.9901
  0
LINE
  8
0
 10
40.3139
 20
92.9901
 11
-40.3139
 21
92.9901
  0
LINE
  8
0
 10
-40.3139
 20
92.9901
 11
-40.9369
 21
92.9114
  0
LINE
  8
0
 10
-40.9369
 20
92.9114
 11
-41.5451
 21
92.7553
  0
LINE
  8
0
 10
-41.5451
 20
92.7553
 11
-42.1289
 21
92.5241
  0
LINE
  8
0
 10
-42.1289
 20
92.5241
 11
-42.6791
 21
92.2216
  0
LINE
  8
0
 10
-42.6791
 20
92.2216
 11
-43.1871
 21
91.8526
  0
LINE
  8
0
 10
-43.1871
 20
91.8526
 11
-43.5
 21
91.5587
  0
LINE
  8
0
 10
-43.5
 20
91.5587
 11
-43.5
 21
91.6526
  0
LINE
  8
0
 10
-43.5
 20
91.6526
 11
-46.5
 21
91.6526
  0
LINE
  8
0
 10
-46.5
 20
91.6526
 11
-46.5
 21
64.3474
  0
LINE
  8
0
 10
-46.5
 20
64.3474
 11
-43.5
 21
64.3474
  0
LINE
  8
0
 10
-43.5
 20
64.3474
 11
-43.5
 21
64.4413
  0
LINE
  8
0
 10
-43.5
 20
64.4413
 11
-43.1871
 21
64.1474
  0
LINE
  8
0
 10
-43.1871
 20
64.1474
 11
-42.6791
 21
63.7784
  0
LINE
  8
0
 10
-42.6791
 20
63.7784
 11
-42.1289
 21
63.4759
  0
LINE
  8
0
 10
-42.1289
 20
63.4759
 11
-41.5451
 21
63.2447
  0
LINE
  8
0
 10
-41.5451
 20
63.2447
 11
-40.9369
 21
63.0886
  0
LINE
  8
0
 10
-40.9369
 20
63.0886
 11
-40.3139
 21
63.0099
  0
LINE
  8
0
 10
-40.3139
 20
63.0099
 11
40.3139
 21
63.0099
  0
LINE
  8
0
 10
40.3139
 20
63.0099
 11
40.9369
 21
63.0886
  0
LINE
  8
0
 10
37.3659
 20
83.3689
 11
37.0999
 21
83.4025
  0
LINE
  8
0
 10
37.0999
 20
83.4025
 11
36.8401
 21
83.4692
  0
LINE
  8
0
 10
36.8401
 20
83.4692
 11
36.5908
 21
83.5679
  0
LINE
  8
0
 10
36.5908
 20
83.5679
 11
36.3559
 21
83.6971
  0
LINE
  8
0
 10
36.3559
 20
83.6971
 11
36.1389
 21
83.8547
  0
LINE
  8
0
 10
36.1389
 20
83.8547
 11
35.9434
 21
84.0383
  0
LINE
  8
0
 10
35.9434
 20
84.0383
 11
35.7725
 21
84.2449
  0
LINE
  8
0
 10
35.7725
 20
84.2449
 11
35.6288
 21
84.4713
  0
LINE
  8
0
 10
35.6288
 20
84.4713
 11
35.5146
 21
84.7139
  0
LINE
  8
0
 10
35.5146
 20
84.7139
 11
35.4318
 21
84.969
  0
LINE
  8
0
 10
35.4318
 20
84.969
 11
35.3815
 21
85.2324
  0
LINE
  8
0
 10
35.3815
 20
85.2324
 11
35.3647
 21
85.5
  0
LINE
  8
0
 10
35.3647
 20
85.5
 11
35.3815
 21
85.7676
  0
LINE
  8
0
 10
35.3815
 20
85.7676
 11
35.4318
 21
86.031
  0
LINE
  8
0
 10
35.4318
 20
86.031
 11
35.5146
 21
86.286
  0
LINE
  8
0
 10
35.5146
 20
86.286
 11
35.6288
 21
86.5287
  0
LINE
  8
0
 10
35.6288
 20
86.5287
 11
35.7725
 21
86.7551
  0
LINE
  8
0
 10
35.7725
 20
86.7551
 11
35.9434
 21
86.9617
  0
LINE
  8
0
 10
35.9434
 20
86.9617
 11
36.1389
 21
87.1453
  0
LINE
  8
0
 10
36.1389
 20
87.1453
 11
36.3559
 21
87.3029
  0
LINE
  8
0
 10
36.3559
 20
87.3029
 11
36.5908
 21
87.4321
  0
LINE
  8
0
 10
36.5908
 20
87.4321
 11
36.8401
 21
87.5308
  0
LINE
  8
0
 10
36.8401
 20
87.5308
 11
37.0999
 21
87.5975
  0
LINE
  8
0
 10
37.0999
 20
87.5975
 11
37.3659
 21
87.6311
  0
LINE
  8
0
 10
37.3659
 20
87.6311
 11
37.6341
 21
87.6311
  0
LINE
  8
0
 10
37.6341
 20
87.6311
 11
37.9001
 21
87.5975
  0
LINE
  8
0
 10
37.9001
 20
87.5975
 11
38.1598
 21
87.5308
  0
LINE
  8
0
 10
38.1598
 20
87.5308
 11
38.4092
 21
87.4321
  0
LINE
  8
0
 10
38.4092
 20
87.4321
 11
38.6441
 21
87.3029
  0
LINE
  8
0
 10
38.6441
 20
87.3029
 11
38.8611
 21
87.1453
  0
LINE
  8
0
 10
38.8611
 20
87.1453
 11
39.0565
 21
86.9617
  0
LINE
  8
0
 10
39.0565
 20
86.9617
 11
39.2275
 21
86.7551
  0
LINE
  8
0
 10
39.2275
 20
86.7551
 11
39.3712
 21
86.5287
  0
LINE
  8
0
 10
39.3712
 20
86.5287
 11
39.4853
 21
86.286
  0
LINE
  8
0
 10
39.4853
 20
86.286
 11
39.5682
 21
86.031
  0
LINE
  8
0
 10
39.5682
 20
86.031
 11
39.6185
 21
85.7676
  0
LINE
  8
0
 10
39.6185
 20
85.7676
 11
39.6353
 21
85.5
  0
LINE
  8
0
 10
39.6353
 20
85.5
 11
39.6185
 21
85.2324
  0
LINE
  8
0
 10
39.6185
 20
85.2324
 11
39.5682
 21
84.969
  0
LINE
  8
0
 10
39.5682
 20
84.969
 11
39.4853
 21
84.7139
  0
LINE
  8
0
 10
39.4853
 20
84.7139
 11
39.3712
 21
84.4713
  0
LINE
  8
0
 10
39.3712
 20
84.4713
 11
39.2275
 21
84.2449
  0
LINE
  8
0
 10
39.2275
 20
84.2449
 11
39.0565
 21
84.0383
  0
LINE
  8
0
 10
39.0565
 20
84.0383
 11
38.8611
 21
83.8547
  0
LINE
  8
0
 10
38.8611
 20
83.8547
 11
38.6441
 21
83.6971
  0
LINE
  8
0
 10
38.6441
 20
83.6971
 11
38.4092
 21
83.5679
  0
LINE
  8
0
 10
38.4092
 20
83.5679
 11
38.1598
 21
83.4692
  0
LINE
  8
0
 10
38.1598
 20
83.4692
 11
37.9001
 21
83.4025
  0
LINE
  8
0
 10
37.9001
 20
83.4025
 11
37.6341
 21
83.3689
  0
LINE
  8
0
 10
37.6341
 20
83.3689
 11
37.3659
 21
83.3689
  0
LINE
  8
0
 10
-37.6341
 20
83.3689
 11
-37.9001
 21
83.4025
  0
LINE
  8
0
 10
-37.9001
 20
83.4025
 11
-38.1598
 21
83.4692
  0
LINE
  8
0
 10
-38.1598
 20
83.4692
 11
-38.4092
 21
83.5679
  0
LINE
  8
0
 10
-38.4092
 20
83.5679
 11
-38.6441
 21
83.6971
  0
LINE
  8
0
 10
-38.6441
 20
83.6971
 11
-38.8611
 21
83.8547
  0
LINE
  8
0
 10
-38.8611
 20
83.8547
 11
-39.0565
 21
84.0383
  0
LINE
  8
0
 10
-39.0565
 20
84.0383
 11
-39.2275
 21
84.2449
  0
LINE
  8
0
 10
-39.2275
 20
84.2449
 11
-39.3712
 21
84.4713
  0
LINE
  8
0
 10
-39.3712
 20
84.4713
 11
-39.4853
 21
84.7139
  0
LINE
  8
0
 10
-39.4853
 20
84.7139
 11
-39.5682
 21
84.969
  0
LINE
  8
0
 10
-39.5682
 20
84.969
 11
-39.6185
 21
85.2324
  0
LINE
  8
0
 10
-39.6185
 20
85.2324
 11
-39.6353
 21
85.5
  0
LINE
  8
0
 10
-39.6353
 20
85.5
 11
-39.6185
 21
85.7676
  0
LINE
  8
0
 10
-39.6185
 20
85.7676
 11
-39.5682
 21
86.031
  0
LINE
  8
0
 10
-39.5682
 20
86.031
 11
-39.4853
 21
86.286
  0
LINE
  8
0
 10
-39.4853
 20
86.286
 11
-39.3712
 21
86.5287
  0
LINE
  8
0
 10
-39.3712
 20
86.5287
 11
-39.2275
 21
86.7551
  0
LINE
  8
0
 10
-39.2275
 20
86.7551
 11
-39.0565
 21
86.9617
  0
LINE
  8
0
 10
-39.0565
 20
86.9617
 11
-38.8611
 21
87.1453
  0
LINE
  8
0
 10
-38.8611
 20
87.1453
 11
-38.6441
 21
87.3029
  0
LINE
  8
0
 10
-38.6441
 20
87.3029
 11
-38.4092
 21
87.4321
  0
LINE
  8
0
 10
-38.4092
 20
87.4321
 11
-38.1598
 21
87.5308
  0
LINE
  8
0
 10
-38.1598
 20
87.5308
 11
-37.9001
 21
87.5975
  0
LINE
  8
0
 10
-37.9001
 20
87.5975
 11
-37.6341
 21
87.6311
  0
LINE
  8
0
 10
-37.6341
 20
87.6311
 11
-37.3659
 21
87.6311
  0
LINE
  8
0
 10
-37.3659
 20
87.6311
 11
-37.0999
 21
87.5975
  0
LINE
  8
0
 10
-37.0999
 20
87.5975
 11
-36.8401
 21
87.5308
  0
LINE
  8
0
 10
-36.8401
 20
87.5308
 11
-36.5908
 21
87.4321
  0
LINE
  8
0
 10
-36.5908
 20
87.4321
 11
-36.3559
 21
87.3029
  0
LINE
  8
0
 10
-36.3559
 20
87.3029
 11
-36.1389
 21
87.1453
  0
LINE
  8
0
 10
-36.1389
 20
87.1453
 11
-35.9434
 21
86.9617
  0
LINE
  8
0
 10
-35.9434
 20
86.9617
 11
-35.7725
 21
86.7551
  0
LINE
  8
0
 10
-35.7725
 20
86.7551
 11
-35.6288
 21
86.5287
  0
LINE
  8
0
 10
-35.6288
 20
86.5287
 11
-35.5146
 21
86.286
  0
LINE
  8
0
 10
-35.5146
 20
86.286
 11
-35.4318
 21
86.031
  0
LINE
  8
0
 10
-35.4318
 20
86.031
 11
-35.3815
 21
85.7676
  0
LINE
  8
0
 10
-35.3815
 20
85.7676
 11
-35.3647
 21
85.5
  0
LINE
  8
0
 10
-35.3647
 20
85.5
 11
-35.3815
 21
85.2324
  0
LINE
  8
0
 10
-35.3815
 20
85.2324
 11
-35.4318
 21
84.969
  0
LINE
  8
0
 10
-35.4318
 20
84.969
 11
-35.5146
 21
84.7139
  0
LINE
  8
0
 10
-35.5146
 20
84.7139
 11
-35.6288
 21
84.4713
  0
LINE
  8
0
 10
-35.6288
 20
84.4713
 11
-35.7725
 21
84.2449
  0
LINE
  8
0
 10
-35.7725
 20
84.2449
 11
-35.9434
 21
84.0383
  0
LINE
  8
0
 10
-35.9434
 20
84.0383
 11
-36.1389
 21
83.8547
  0
LINE
  8
0
 10
-36.1389
 20
83.8547
 11
-36.3559
 21
83.6971
  0
LINE
  8
0
 10
-36.3559
 20
83.6971
 11
-36.5908
 21
83.5679
  0
LINE
  8
0
 10
-36.5908
 20
83.5679
 11
-36.8401
 21
83.4692
  0
LINE
  8
0
 10
-36.8401
 20
83.4692
 11
-37.0999
 21
83.4025
  0
LINE
  8
0
 10
-37.0999
 20
83.4025
 11
-37.3659
 21
83.3689
  0
LINE
  8
0
 10
-37.3659
 20
83.3689
 11
-37.6341
 21
83.3689
  0
LINE
  8
0
 10
37.3659
 20
68.3689
 11
37.0999
 21
68.4025
  0
LINE
  8
0
 10
37.0999
 20
68.4025
 11
36.8401
 21
68.4692
  0
LINE
  8
0
 10
36.8401
 20
68.4692
 11
36.5908
 21
68.5679
  0
LINE
  8
0
 10
36.5908
 20
68.5679
 11
36.3559
 21
68.6971
  0
LINE
  8
0
 10
36.3559
 20
68.6971
 11
36.1389
 21
68.8547
  0
LINE
  8
0
 10
36.1389
 20
68.8547
 11
35.9434
 21
69.0383
  0
LINE
  8
0
 10
35.9434
 20
69.0383
 11
35.7725
 21
69.2449
  0
LINE
  8
0
 10
35.7725
 20
69.2449
 11
35.6288
 21
69.4713
  0
LINE
  8
0
 10
35.6288
 20
69.4713
 11
35.5146
 21
69.714
  0
LINE
  8
0
 10
35.5146
 20
69.714
 11
35.4318
 21
69.969
  0
LINE
  8
0
 10
35.4318
 20
69.969
 11
35.3815
 21
70.2324
  0
LINE
  8
0
 10
35.3815
 20
70.2324
 11
35.3647
 21
70.5
  0
LINE
  8
0
 10
35.3647
 20
70.5
 11
35.3815
 21
70.7676
  0
LINE
  8
0
 10
35.3815
 20
70.7676
 11
35.4318
 21
71.031
  0
LINE
  8
0
 10
35.4318
 20
71.031
 11
35.5146
 21
71.2861
  0
LINE
  8
0
 10
35.5146
 20
71.2861
 11
35.6288
 21
71.5287
  0
LINE
  8
0
 10
35.6288
 20
71.5287
 11
35.7725
 21
71.7551
  0
LINE
  8
0
 10
35.7725
 20
71.7551
 11
35.9434
 21
71.9617
  0
LINE
  8
0
 10
35.9434
 20
71.9617
 11
36.1389
 21
72.1453
  0
LINE
  8
0
 10
36.1389
 20
72.1453
 11
36.3559
 21
72.3029
  0
LINE
  8
0
 10
36.3559
 20
72.3029
 11
36.5908
 21
72.4321
  0
LINE
  8
0
 10
36.5908
 20
72.4321
 11
36.8401
 21
72.5308
  0
LINE
  8
0
 10
36.8401
 20
72.5308
 11
37.0999
 21
72.5975
  0
LINE
  8
0
 10
37.0999
 20
72.5975
 11
37.3659
 21
72.6311
  0
LINE
  8
0
 10
37.3659
 20
72.6311
 11
37.6341
 21
72.6311
  0
LINE
  8
0
 10
37.6341
 20
72.6311
 11
37.9001
 21
72.5975
  0
LINE
  8
0
 10
37.9001
 20
72.5975
 11
38.1598
 21
72.5308
  0
LINE
  8
0
 10
38.1598
 20
72.5308
 11
38.4092
 21
72.4321
  0
LINE
  8
0
 10
38.4092
 20
72.4321
 11
38.6441
 21
72.3029
  0
LINE
  8
0
 10
38.6441
 20
72.3029
 11
38.8611
 21
72.1453
  0
LINE
  8
0
 10
38.8611
 20
72.1453
 11
39.0565
 21
71.9617
  0
LINE
  8
0
 10
39.0565
 20
71.9617
 11
39.2275
 21
71.7551
  0
LINE
  8
0
 10
39.2275
 20
71.7551
 11
39.3712
 21
71.5287
  0
LINE
  8
0
 10
39.3712
 20
71.5287
 11
39.4853
 21
71.2861
  0
LINE
  8
0
 10
39.4853
 20
71.2861
 11
39.5682
 21
71.031
  0
LINE
  8
0
 10
39.5682
 20
71.031
 11
39.6185
 21
70.7676
  0
LINE
  8
0
 10
39.6185
 20
70.7676
 11
39.6353
 21
70.5
  0
LINE
  8
0
 10
39.6353
 20
70.5
 11
39.6185
 21
70.2324
  0
LINE
  8
0
 10
39.6185
 20
70.2324
 11
39.5682
 21
69.969
  0
LINE
  8
0
 10
39.5682
 20
69.969
 11
39.4853
 21
69.714
  0
LINE
  8
0
 10
39.4853
 20
69.714
 11
39.3712
 21
69.4713
  0
LINE
  8
0
 10
39.3712
 20
69.4713
 11
39.2275
 21
69.2449
  0
LINE
  8
0
 10
39.2275
 20
69.2449
 11
39.0565
 21
69.0383
  0
LINE
  8
0
 10
39.0565
 20
69.0383
 11
38.8611
 21
68.8547
  0
LINE
  8
0
 10
38.8611
 20
68.8547
 11
38.6441
 21
68.6971
  0
LINE
  8
0
 10
38.6441
 20
68.6971
 11
38.4092
 21
68.5679
  0
LINE
  8
0
 10
38.4092
 20
68.5679
 11
38.1598
 21
68.4692
  0
LINE
  8
0
 10
38.1598
 20
68.4692
 11
37.9001
 21
68.4025
  0
LINE
  8
0
 10
37.9001
 20
68.4025
 11
37.6341
 21
68.3689
  0
LINE
  8
0
 10
37.6341
 20
68.3689
 11
37.3659
 21
68.3689
  0
LINE
  8
0
 10
-37.6341
 20
68.3689
 11
-37.9001
 21
68.4025
  0
LINE
  8
0
 10
-37.9001
 20
68.4025
 11
-38.1598
 21
68.4692
  0
LINE
  8
0
 10
-38.1598
 20
68.4692
 11
-38.4092
 21
68.5679
  0
LINE
  8
0
 10
-38.4092
 20
68.5679
 11
-38.6441
 21
68.6971
  0
LINE
  8
0
 10
-38.6441
 20
68.6971
 11
-38.8611
 21
68.8547
  0
LINE
  8
0
 10
-38.8611
 20
68.8547
 11
-39.0565
 21
69.0383
  0
LINE
  8
0
 10
-39.0565
 20
69.0383
 11
-39.2275
 21
69.2449
  0
LINE
  8
0
 10
-39.2275
 20
69.2449
 11
-39.3712
 21
69.4713
  0
LINE
  8
0
 10
-39.3712
 20
69.4713
 11
-39.4853
 21
69.714
  0
LINE
  8
0
 10
-39.4853
 20
69.714
 11
-39.5682
 21
69.969
  0
LINE
  8
0
 10
-39.5682
 20
69.969
 11
-39.6185
 21
70.2324
  0
LINE
  8
0
 10
-39.6185
 20
70.2324
 11
-39.6353
 21
70.5
  0
LINE
  8
0
 10
-39.6353
 20
70.5
 11
-39.6185
 21
70.7676
  0
LINE
  8
0
 10
-39.6185
 20
70.7676
 11
-39.5682
 21
71.031
  0
LINE
  8
0
 10
-39.5682
 20
71.031
 11
-39.4853
 21
71.2861
  0
LINE
  8
0
 10
-39.4853
 20
71.2861
 11
-39.3712
 21
71.5287
  0
LINE
  8
0
 10
-39.3712
 20
71.5287
 11
-39.2275
 21
71.7551
  0
LINE
  8
0
 10
-39.2275
 20
71.7551
 11
-39.0565
 21
71.9617
  0
LINE
  8
0
 10
-39.0565
 20
71.9617
 11
-38.8611
 21
72.1453
  0
LINE
  8
0
 10
-38.8611
 20
72.1453
 11
-38.6441
 21
72.3029
  0
LINE
  8
0
 10
-38.6441
 20
72.3029
 11
-38.4092
 21
72.4321
  0
LINE
  8
0
 10
-38.4092
 20
72.4321
 11
-38.1598
 21
72.5308
  0
LINE
  8
0
 10
-38.1598
 20
72.5308
 11
-37.9001
 21
72.5975
  0
LINE
  8
0
 10
-37.9001
 20
72.5975
 11
-37.6341
 21
72.6311
  0
LINE
  8
0
 10
-37.6341
 20
72.6311
 11
-37.3659
 21
72.6311
  0
LINE
  8
0
 10
-37.3659
 20
72.6311
 11
-37.0999
 21
72.5975
  0
LINE
  8
0
 10
-37.0999
 20
72.5975
 11
-36.8401
 21
72.5308
  0
LINE
  8
0
 10
-36.8401
 20
72.5308
 11
-36.5908
 21
72.4321
  0
LINE
  8
0
 10
-36.5908
 20
72.4321
 11
-36.3559
 21
72.3029
  0
LINE
  8
0
 10
-36.3559
 20
72.3029
 11
-36.1389
 21
72.1453
  0
LINE
  8
0
 10
-36.1389
 20
72.1453
 11
-35.9434
 21
71.9617
  0
LINE
  8
0
 10
-35.9434
 20
71.9617
 11
-35.7725
 21
71.7551
  0
LINE
  8
0
 10
-35.7725
 20
71.7551
 11
-35.6288
 21
71.5287
  0
LINE
  8
0
 10
-35.6288
 20
71.5287
 11
-35.5146
 21
71.2861
  0
LINE
  8
0
 10
-35.5146
 20
71.2861
 11
-35.4318
 21
71.031
  0
LINE
  8
0
 10
-35.4318
 20
71.031
 11
-35.3815
 21
70.7676
  0
LINE
  8
0
 10
-35.3815
 20
70.7676
 11
-35.3647
 21
70.5
  0
LINE
  8
0
 10
-35.3647
 20
70.5
 11
-35.3815
 21
70.2324
  0
LINE
  8
0
 10
-35.3815
 20
70.2324
 11
-35.4318
 21
69.969
  0
LINE
  8
0
 10
-35.4318
 20
69.969
 11
-35.5146
 21
69.714
  0
LINE
  8
0
 10
-35.5146
 20
69.714
 11
-35.6288
 21
69.4713
  0
LINE
  8
0
 10
-35.6288
 20
69.4713
 11
-35.7725
 21
69.2449
  0
LINE
  8
0
 10
-35.7725
 20
69.2449
 11
-35.9434
 21
69.0383
  0
LINE
  8
0
 10
-35.9434
 20
69.0383
 11
-36.1389
 21
68.8547
  0
LINE
  8
0
 10
-36.1389
 20
68.8547
 11
-36.3559
 21
68.6971
  0
LINE
  8
0
 10
-36.3559
 20
68.6971
 11
-36.5908
 21
68.5679
  0
LINE
  8
0
 10
-36.5908
 20
68.5679
 11
-36.8401
 21
68.4692
  0
LINE
  8
0
 10
-36.8401
 20
68.4692
 11
-37.0999
 21
68.4025
  0
LINE
  8
0
 10
-37.0999
 20
68.4025
 11
-37.3659
 21
68.3689
  0
LINE
  8
0
 10
-37.3659
 20
68.3689
 11
-37.6341
 21
68.3689
  0
ENDSEC
  0
SECTION
  2
OBJECTS
  0
DICTIONARY
  0
ENDSEC
  0
EOF
