<?xml version="1.0" standalone="no"?>
<!DOCTYPE svg PUBLIC "-//W3C//DTD SVG 1.1//EN" "http://www.w3.org/Graphics/SVG/1.1/DTD/svg11.dtd">
<svg width="30mm" height="154mm" viewBox="-15 -239 30 154" xmlns="http://www.w3.org/2000/svg" version="1.1">
<title>OpenSCAD Model</title>
<path d="
M 10.9369,-193.589 L 11.5451,-193.745 L 12.1289,-193.976 L 12.6791,-194.278 L 13.1871,-194.647 L 13.6448,-195.077
 L 14.0451,-195.561 L 14.3815,-196.091 L 14.6489,-196.659 L 14.8429,-197.257 L 14.9606,-197.873 L 15,-198.5
 L 15,-233.5 L 14.9606,-234.127 L 14.8429,-234.743 L 14.6489,-235.341 L 14.3815,-235.909 L 14.0451,-236.439
 L 13.6448,-236.923 L 13.1871,-237.353 L 12.6791,-237.722 L 12.1289,-238.024 L 11.5451,-238.255 L 10.9369,-238.411
 L 10.3139,-238.49 L -10.3139,-238.49 L -10.9369,-238.411 L -11.5451,-238.255 L -12.1289,-238.024 L -12.6791,-237.722
 L -13.1871,-237.353 L -13.6448,-236.923 L -14.0451,-236.439 L -14.3815,-235.909 L -14.6489,-235.341 L -14.8429,-234.743
 L -14.9606,-234.127 L -15,-233.5 L -15,-198.5 L -14.9606,-197.873 L -14.8429,-197.257 L -14.6489,-196.659
 L -14.3815,-196.091 L -14.0451,-195.561 L -13.6448,-195.077 L -13.1871,-194.647 L -12.6791,-194.278 L -12.1289,-193.976
 L -11.5451,-193.745 L -10.9369,-193.589 L -10.3139,-193.51 L 10.3139,-193.51 z
M -9.74316,-195.135 L -10.2256,-195.196 L -10.6967,-195.317 L -11.1489,-195.496 L -11.5751,-195.73 L -11.9685,-196.016
 L -12.323,-196.349 L -12.633,-196.724 L -12.8936,-197.134 L -13.1007,-197.574 L -13.251,-198.037 L -13.3421,-198.515
 L -13.3726,-199 L -13.3726,-233 L -13.3421,-233.485 L -13.251,-233.963 L -13.1007,-234.426 L -12.8936,-234.866
 L -12.633,-235.276 L -12.323,-235.651 L -11.9685,-235.984 L -11.5751,-236.27 L -11.1489,-236.504 L -10.6967,-236.683
 L -10.2256,-236.804 L -9.74316,-236.865 L 9.74316,-236.865 L 10.2256,-236.804 L 10.6967,-236.683 L 11.1489,-236.504
 L 11.5751,-236.27 L 11.9685,-235.984 L 12.323,-235.651 L 12.633,-235.276 L 12.8936,-234.866 L 13.1007,-234.426
 L 13.251,-233.963 L 13.3421,-233.485 L 13.3726,-233 L 13.3726,-199 L 13.3421,-198.515 L 13.251,-198.037
 L 13.1007,-197.574 L 12.8936,-197.134 L 12.633,-196.724 L 12.323,-196.349 L 11.9685,-196.016 L 11.5751,-195.73
 L 11.1489,-195.496 L 10.6967,-195.317 L 10.2256,-195.196 L 9.74316,-195.135 z
M 10.9369,-139.589 L 11.5451,-139.745 L 12.1289,-139.976 L 12.6791,-140.278 L 13.1871,-140.647 L 13.6448,-141.077
 L 14.0451,-141.561 L 14.3815,-142.091 L 14.6489,-142.659 L 14.8429,-143.257 L 14.9606,-143.873 L 15,-144.5
 L 15,-179.5 L 14.9606,-180.127 L 14.8429,-180.743 L 14.6489,-181.341 L 14.3815,-181.909 L 14.0451,-182.439
 L 13.6448,-182.923 L 13.1871,-183.353 L 12.6791,-183.722 L 12.1289,-184.024 L 11.5451,-184.255 L 10.9369,-184.411
 L 10.3139,-184.49 L -10.3139,-184.49 L -10.9369,-184.411 L -11.5451,-184.255 L -12.1289,-184.024 L -12.6791,-183.722
 L -13.1871,-183.353 L -13.6448,-182.923 L -14.0451,-182.439 L -14.3815,-181.909 L -14.6489,-181.341 L -14.8429,-180.743
 L -14.9606,-180.127 L -15,-179.5 L -15,-144.5 L -14.9606,-143.873 L -14.8429,-143.257 L -14.6489,-142.659
 L -14.3815,-142.091 L -14.0451,-141.561 L -13.6448,-141.077 L -13.1871,-140.647 L -12.6791,-140.278 L -12.1289,-139.976
 L -11.5451,-139.745 L -10.9369,-139.589 L -10.3139,-139.51 L 10.3139,-139.51 z
M 10.9369,-85.5886 L 11.5451,-85.7447 L 12.1289,-85.9759 L 12.6791,-86.2784 L 13.1871,-86.6474 L 13.6448,-87.0773
 L 14.0451,-87.5611 L 14.3815,-88.0912 L 14.6489,-88.6594 L 14.8429,-89.2566 L 14.9606,-89.8733 L 15,-90.5
 L 15,-125.5 L 14.9606,-126.127 L 14.8429,-126.743 L 14.6489,-127.341 L 14.3815,-127.909 L 14.0451,-128.439
 L 13.6448,-128.923 L 13.1871,-129.353 L 12.6791,-129.722 L 12.1289,-130.024 L 11.5451,-130.255 L 10.9369,-130.411
 L 10.3139,-130.49 L -10.3139,-130.49 L -10.9369,-130.411 L -11.5451,-130.255 L -12.1289,-130.024 L -12.6791,-129.722
 L -13.1871,-129.353 L -13.6448,-128.923 L -14.0451,-128.439 L -14.3815,-127.909 L -14.6489,-127.341 L -14.8429,-126.743
 L -14.9606,-126.127 L -15,-125.5 L -15,-90.5 L -14.9606,-89.8733 L -14.8429,-89.2566 L -14.6489,-88.6594
 L -14.3815,-88.0912 L -14.0451,-87.5611 L -13.6448,-87.0773 L -13.1871,-86.6474 L -12.6791,-86.2784 L -12.1289,-85.9759
 L -11.5451,-85.7447 L -10.9369,-85.5886 L -10.3139,-85.5099 L 10.3139,-85.5099 z
M 7.38696,-121.204 L 7.1627,-121.232 L 6.94376,-121.288 L 6.7336,-121.371 L 6.53551,-121.48 L 6.35263,-121.613
 L 6.18785,-121.768 L 6.04376,-121.942 L 5.92264,-122.133 L 5.8264,-122.337 L 5.75655,-122.552 L 5.71419,-122.774
 L 5.7,-123 L 5.71419,-123.226 L 5.75655,-123.448 L 5.8264,-123.663 L 5.92264,-123.867 L 6.04376,-124.058
 L 6.18785,-124.232 L 6.35263,-124.387 L 6.53551,-124.52 L 6.7336,-124.629 L 6.94376,-124.712 L 7.1627,-124.768
 L 7.38696,-124.796 L 7.61302,-124.796 L 7.83728,-124.768 L 8.05623,-124.712 L 8.26639,-124.629 L 8.46448,-124.52
 L 8.64735,-124.387 L 8.81213,-124.232 L 8.95622,-124.058 L 9.07735,-123.867 L 9.17358,-123.663 L 9.24344,-123.448
 L 9.2858,-123.226 L 9.29999,-123 L 9.2858,-122.774 L 9.24344,-122.552 L 9.17358,-122.337 L 9.07735,-122.133
 L 8.95622,-121.942 L 8.81213,-121.768 L 8.64735,-121.613 L 8.46448,-121.48 L 8.26639,-121.371 L 8.05623,-121.288
 L 7.83728,-121.232 L 7.61302,-121.204 z
M -7.61302,-121.204 L -7.83728,-121.232 L -8.05623,-121.288 L -8.26639,-121.371 L -8.46448,-121.48 L -8.64735,-121.613
 L -8.81213,-121.768 L -8.95622,-121.942 L -9.07735,-122.133 L -9.17358,-122.337 L -9.24344,-122.552 L -9.2858,-122.774
 L -9.29999,-123 L -9.2858,-123.226 L -9.24344,-123.448 L -9.17358,-123.663 L -9.07735,-123.867 L -8.95622,-124.058
 L -8.81213,-124.232 L -8.64735,-124.387 L -8.46448,-124.52 L -8.26639,-124.629 L -8.05623,-124.712 L -7.83728,-124.768
 L -7.61302,-124.796 L -7.38696,-124.796 L -7.1627,-124.768 L -6.94376,-124.712 L -6.7336,-124.629 L -6.53551,-124.52
 L -6.35263,-124.387 L -6.18785,-124.232 L -6.04376,-124.058 L -5.92264,-123.867 L -5.8264,-123.663 L -5.75655,-123.448
 L -5.71419,-123.226 L -5.7,-123 L -5.71419,-122.774 L -5.75655,-122.552 L -5.8264,-122.337 L -5.92264,-122.133
 L -6.04376,-121.942 L -6.18785,-121.768 L -6.35263,-121.613 L -6.53551,-121.48 L -6.7336,-121.371 L -6.94376,-121.288
 L -7.1627,-121.232 L -7.38696,-121.204 z
M -7.61302,-91.2036 L -7.83728,-91.2319 L -8.05623,-91.2881 L -8.26639,-91.3713 L -8.46448,-91.4802 L -8.64735,-91.6131
 L -8.81213,-91.7678 L -8.95622,-91.942 L -9.07735,-92.1329 L -9.17358,-92.3374 L -9.24344,-92.5524 L -9.2858,-92.7744
 L -9.29999,-93 L -9.2858,-93.2256 L -9.24344,-93.4476 L -9.17358,-93.6626 L -9.07735,-93.8672 L -8.95622,-94.058
 L -8.81213,-94.2322 L -8.64735,-94.3869 L -8.46448,-94.5198 L -8.26639,-94.6287 L -8.05623,-94.7119 L -7.83728,-94.7681
 L -7.61302,-94.7964 L -7.38696,-94.7964 L -7.1627,-94.7681 L -6.94376,-94.7119 L -6.7336,-94.6287 L -6.53551,-94.5198
 L -6.35263,-94.3869 L -6.18785,-94.2322 L -6.04376,-94.058 L -5.92264,-93.8672 L -5.8264,-93.6626 L -5.75655,-93.4476
 L -5.71419,-93.2256 L -5.7,-93 L -5.71419,-92.7744 L -5.75655,-92.5524 L -5.8264,-92.3374 L -5.92264,-92.1329
 L -6.04376,-91.942 L -6.18785,-91.7678 L -6.35263,-91.6131 L -6.53551,-91.4802 L -6.7336,-91.3713 L -6.94376,-91.2881
 L -7.1627,-91.2319 L -7.38696,-91.2036 z
M 7.38696,-91.2036 L 7.1627,-91.2319 L 6.94376,-91.2881 L 6.7336,-91.3713 L 6.53551,-91.4802 L 6.35263,-91.6131
 L 6.18785,-91.7678 L 6.04376,-91.942 L 5.92264,-92.1329 L 5.8264,-92.3374 L 5.75655,-92.5524 L 5.71419,-92.7744
 L 5.7,-93 L 5.71419,-93.2256 L 5.75655,-93.4476 L 5.8264,-93.6626 L 5.92264,-93.8672 L 6.04376,-94.058
 L 6.18785,-94.2322 L 6.35263,-94.3869 L 6.53551,-94.5198 L 6.7336,-94.6287 L 6.94376,-94.7119 L 7.1627,-94.7681
 L 7.38696,-94.7964 L 7.61302,-94.7964 L 7.83728,-94.7681 L 8.05623,-94.7119 L 8.26639,-94.6287 L 8.46448,-94.5198
 L 8.64735,-94.3869 L 8.81213,-94.2322 L 8.95622,-94.058 L 9.07735,-93.8672 L 9.17358,-93.6626 L 9.24344,-93.4476
 L 9.2858,-93.2256 L 9.29999,-93 L 9.2858,-92.7744 L 9.24344,-92.5524 L 9.17358,-92.3374 L 9.07735,-92.1329
 L 8.95622,-91.942 L 8.81213,-91.7678 L 8.64735,-91.6131 L 8.46448,-91.4802 L 8.26639,-91.3713 L 8.05623,-91.2881
 L 7.83728,-91.2319 L 7.61302,-91.2036 z
" stroke="black" fill="lightgray" stroke-width="0.5"/>
</svg>
