<?xml version="1.0" standalone="no"?>
<!DOCTYPE svg PUBLIC "-//W3C//DTD SVG 1.1//EN" "http://www.w3.org/Graphics/SVG/1.1/DTD/svg11.dtd">
<svg width="46mm" height="112mm" viewBox="-23 -224 46 112" xmlns="http://www.w3.org/2000/svg" version="1.1">
<title>OpenSCAD Model</title>
<path d="
M 18.4369,-208.589 L 19.0451,-208.745 L 19.6289,-208.976 L 20.1791,-209.278 L 20.6871,-209.647 L 21.1448,-210.077
 L 21.5451,-210.561 L 21.8815,-211.091 L 22.1489,-211.659 L 22.3429,-212.257 L 22.4606,-212.873 L 22.5,-213.5
 L 22.5,-218.5 L 22.4606,-219.127 L 22.3429,-219.743 L 22.1489,-220.341 L 21.8815,-220.909 L 21.5451,-221.439
 L 21.1448,-221.923 L 20.6871,-222.353 L 20.1791,-222.722 L 19.6289,-223.024 L 19.0451,-223.255 L 18.4369,-223.411
 L 17.8139,-223.49 L -17.8139,-223.49 L -18.4369,-223.411 L -19.0451,-223.255 L -19.6289,-223.024 L -20.1791,-222.722
 L -20.6871,-222.353 L -21.1448,-221.923 L -21.5451,-221.439 L -21.8815,-220.909 L -22.1489,-220.341 L -22.3429,-219.743
 L -22.4606,-219.127 L -22.5,-218.5 L -22.5,-213.5 L -22.4606,-212.873 L -22.3429,-212.257 L -22.1489,-211.659
 L -21.8815,-211.091 L -21.5451,-210.561 L -21.1448,-210.077 L -20.6871,-209.647 L -20.1791,-209.278 L -19.6289,-208.976
 L -19.0451,-208.745 L -18.4369,-208.589 L -17.8139,-208.51 L 17.8139,-208.51 z
M -17.5482,-209.009 L -18.1401,-209.084 L -18.7178,-209.232 L -19.2724,-209.452 L -19.7952,-209.739 L -20.2778,-210.09
 L -20.7126,-210.498 L -21.0928,-210.958 L -21.4124,-211.462 L -21.6664,-212.001 L -21.8508,-212.569 L -21.9625,-213.155
 L -22,-213.75 L -22,-218.25 L -21.9625,-218.845 L -21.8508,-219.431 L -21.6664,-219.999 L -21.4124,-220.538
 L -21.0928,-221.042 L -20.7126,-221.502 L -20.2778,-221.91 L -19.7952,-222.261 L -19.2724,-222.548 L -18.7178,-222.768
 L -18.1401,-222.916 L -17.5482,-222.991 L 17.5482,-222.991 L 18.1401,-222.916 L 18.7178,-222.768 L 19.2724,-222.548
 L 19.7952,-222.261 L 20.2778,-221.91 L 20.7126,-221.502 L 21.0928,-221.042 L 21.4124,-220.538 L 21.6664,-219.999
 L 21.8508,-219.431 L 21.9625,-218.845 L 22,-218.25 L 22,-213.75 L 21.9625,-213.155 L 21.8508,-212.569
 L 21.6664,-212.001 L 21.4124,-211.462 L 21.0928,-210.958 L 20.7126,-210.498 L 20.2778,-210.09 L 19.7952,-209.739
 L 19.2724,-209.452 L 18.7178,-209.232 L 18.1401,-209.084 L 17.5482,-209.009 z
M 18.4369,-184.589 L 19.0451,-184.745 L 19.6289,-184.976 L 20.1791,-185.278 L 20.6871,-185.647 L 21.1448,-186.077
 L 21.5451,-186.561 L 21.8815,-187.091 L 22.1489,-187.659 L 22.3429,-188.257 L 22.4606,-188.873 L 22.5,-189.5
 L 22.5,-194.5 L 22.4606,-195.127 L 22.3429,-195.743 L 22.1489,-196.341 L 21.8815,-196.909 L 21.5451,-197.439
 L 21.1448,-197.923 L 20.6871,-198.353 L 20.1791,-198.722 L 19.6289,-199.024 L 19.0451,-199.255 L 18.4369,-199.411
 L 17.8139,-199.49 L -17.8139,-199.49 L -18.4369,-199.411 L -19.0451,-199.255 L -19.6289,-199.024 L -20.1791,-198.722
 L -20.6871,-198.353 L -21.1448,-197.923 L -21.5451,-197.439 L -21.8815,-196.909 L -22.1489,-196.341 L -22.3429,-195.743
 L -22.4606,-195.127 L -22.5,-194.5 L -22.5,-189.5 L -22.4606,-188.873 L -22.3429,-188.257 L -22.1489,-187.659
 L -21.8815,-187.091 L -21.5451,-186.561 L -21.1448,-186.077 L -20.6871,-185.647 L -20.1791,-185.278 L -19.6289,-184.976
 L -19.0451,-184.745 L -18.4369,-184.589 L -17.8139,-184.51 L 17.8139,-184.51 z
M -17.5482,-185.009 L -18.1401,-185.084 L -18.7178,-185.232 L -19.2724,-185.452 L -19.7952,-185.739 L -20.2778,-186.09
 L -20.7126,-186.498 L -21.0928,-186.958 L -21.4124,-187.462 L -21.6664,-188.001 L -21.8508,-188.569 L -21.9625,-189.155
 L -22,-189.75 L -22,-194.25 L -21.9625,-194.845 L -21.8508,-195.431 L -21.6664,-195.999 L -21.4124,-196.538
 L -21.0928,-197.042 L -20.7126,-197.502 L -20.2778,-197.91 L -19.7952,-198.261 L -19.2724,-198.548 L -18.7178,-198.768
 L -18.1401,-198.916 L -17.5482,-198.991 L 17.5482,-198.991 L 18.1401,-198.916 L 18.7178,-198.768 L 19.2724,-198.548
 L 19.7952,-198.261 L 20.2778,-197.91 L 20.7126,-197.502 L 21.0928,-197.042 L 21.4124,-196.538 L 21.6664,-195.999
 L 21.8508,-195.431 L 21.9625,-194.845 L 22,-194.25 L 22,-189.75 L 21.9625,-189.155 L 21.8508,-188.569
 L 21.6664,-188.001 L 21.4124,-187.462 L 21.0928,-186.958 L 20.7126,-186.498 L 20.2778,-186.09 L 19.7952,-185.739
 L 19.2724,-185.452 L 18.7178,-185.232 L 18.1401,-185.084 L 17.5482,-185.009 z
M 18.4369,-160.589 L 19.0451,-160.745 L 19.6289,-160.976 L 20.1791,-161.278 L 20.6871,-161.647 L 21.1448,-162.077
 L 21.5451,-162.561 L 21.8815,-163.091 L 22.1489,-163.659 L 22.3429,-164.257 L 22.4606,-164.873 L 22.5,-165.5
 L 22.5,-170.5 L 22.4606,-171.127 L 22.3429,-171.743 L 22.1489,-172.341 L 21.8815,-172.909 L 21.5451,-173.439
 L 21.1448,-173.923 L 20.6871,-174.353 L 20.1791,-174.722 L 19.6289,-175.024 L 19.0451,-175.255 L 18.4369,-175.411
 L 17.8139,-175.49 L -17.8139,-175.49 L -18.4369,-175.411 L -19.0451,-175.255 L -19.6289,-175.024 L -20.1791,-174.722
 L -20.6871,-174.353 L -21.1448,-173.923 L -21.5451,-173.439 L -21.8815,-172.909 L -22.1489,-172.341 L -22.3429,-171.743
 L -22.4606,-171.127 L -22.5,-170.5 L -22.5,-165.5 L -22.4606,-164.873 L -22.3429,-164.257 L -22.1489,-163.659
 L -21.8815,-163.091 L -21.5451,-162.561 L -21.1448,-162.077 L -20.6871,-161.647 L -20.1791,-161.278 L -19.6289,-160.976
 L -19.0451,-160.745 L -18.4369,-160.589 L -17.8139,-160.51 L 17.8139,-160.51 z
M -17.5482,-161.009 L -18.1401,-161.084 L -18.7178,-161.232 L -19.2724,-161.452 L -19.7952,-161.739 L -20.2778,-162.09
 L -20.7126,-162.498 L -21.0928,-162.958 L -21.4124,-163.462 L -21.6664,-164.001 L -21.8508,-164.569 L -21.9625,-165.155
 L -22,-165.75 L -22,-170.25 L -21.9625,-170.845 L -21.8508,-171.431 L -21.6664,-171.999 L -21.4124,-172.538
 L -21.0928,-173.042 L -20.7126,-173.502 L -20.2778,-173.91 L -19.7952,-174.261 L -19.2724,-174.548 L -18.7178,-174.768
 L -18.1401,-174.916 L -17.5482,-174.991 L 17.5482,-174.991 L 18.1401,-174.916 L 18.7178,-174.768 L 19.2724,-174.548
 L 19.7952,-174.261 L 20.2778,-173.91 L 20.7126,-173.502 L 21.0928,-173.042 L 21.4124,-172.538 L 21.6664,-171.999
 L 21.8508,-171.431 L 21.9625,-170.845 L 22,-170.25 L 22,-165.75 L 21.9625,-165.155 L 21.8508,-164.569
 L 21.6664,-164.001 L 21.4124,-163.462 L 21.0928,-162.958 L 20.7126,-162.498 L 20.2778,-162.09 L 19.7952,-161.739
 L 19.2724,-161.452 L 18.7178,-161.232 L 18.1401,-161.084 L 17.5482,-161.009 z
M 18.4369,-136.589 L 19.0451,-136.745 L 19.6289,-136.976 L 20.1791,-137.278 L 20.6871,-137.647 L 21.1448,-138.077
 L 21.5451,-138.561 L 21.8815,-139.091 L 22.1489,-139.659 L 22.3429,-140.257 L 22.4606,-140.873 L 22.5,-141.5
 L 22.5,-146.5 L 22.4606,-147.127 L 22.3429,-147.743 L 22.1489,-148.341 L 21.8815,-148.909 L 21.5451,-149.439
 L 21.1448,-149.923 L 20.6871,-150.353 L 20.1791,-150.722 L 19.6289,-151.024 L 19.0451,-151.255 L 18.4369,-151.411
 L 17.8139,-151.49 L -17.8139,-151.49 L -18.4369,-151.411 L -19.0451,-151.255 L -19.6289,-151.024 L -20.1791,-150.722
 L -20.6871,-150.353 L -21.1448,-149.923 L -21.5451,-149.439 L -21.8815,-148.909 L -22.1489,-148.341 L -22.3429,-147.743
 L -22.4606,-147.127 L -22.5,-146.5 L -22.5,-141.5 L -22.4606,-140.873 L -22.3429,-140.257 L -22.1489,-139.659
 L -21.8815,-139.091 L -21.5451,-138.561 L -21.1448,-138.077 L -20.6871,-137.647 L -20.1791,-137.278 L -19.6289,-136.976
 L -19.0451,-136.745 L -18.4369,-136.589 L -17.8139,-136.51 L 17.8139,-136.51 z
M -17.5375,-137.181 L -18.1079,-137.253 L -18.6648,-137.396 L -19.1994,-137.607 L -19.7032,-137.884 L -20.1684,-138.222
 L -20.5875,-138.616 L -20.954,-139.059 L -21.2621,-139.544 L -21.5069,-140.065 L -21.6846,-140.611 L -21.7923,-141.176
 L -21.8284,-141.75 L -21.8284,-146.25 L -21.7923,-146.824 L -21.6846,-147.389 L -21.5069,-147.935 L -21.2621,-148.456
 L -20.954,-148.941 L -20.5875,-149.384 L -20.1684,-149.778 L -19.7032,-150.116 L -19.1994,-150.393 L -18.6648,-150.604
 L -18.1079,-150.747 L -17.5375,-150.819 L 17.5375,-150.819 L 18.1079,-150.747 L 18.6648,-150.604 L 19.1994,-150.393
 L 19.7032,-150.116 L 20.1684,-149.778 L 20.5875,-149.384 L 20.954,-148.941 L 21.2621,-148.456 L 21.5069,-147.935
 L 21.6846,-147.389 L 21.7923,-146.824 L 21.8284,-146.25 L 21.8284,-141.75 L 21.7923,-141.176 L 21.6846,-140.611
 L 21.5069,-140.065 L 21.2621,-139.544 L 20.954,-139.059 L 20.5875,-138.616 L 20.1684,-138.222 L 19.7032,-137.884
 L 19.1994,-137.607 L 18.6648,-137.396 L 18.1079,-137.253 L 17.5375,-137.181 z
M 18.4369,-112.589 L 19.0451,-112.745 L 19.6289,-112.976 L 20.1791,-113.278 L 20.6871,-113.647 L 21.1448,-114.077
 L 21.5451,-114.561 L 21.8815,-115.091 L 22.1489,-115.659 L 22.3429,-116.257 L 22.4606,-116.873 L 22.5,-117.5
 L 22.5,-122.5 L 22.4606,-123.127 L 22.3429,-123.743 L 22.1489,-124.341 L 21.8815,-124.909 L 21.5451,-125.439
 L 21.1448,-125.923 L 20.6871,-126.353 L 20.1791,-126.722 L 19.6289,-127.024 L 19.0451,-127.255 L 18.4369,-127.411
 L 17.8139,-127.49 L -17.8139,-127.49 L -18.4369,-127.411 L -19.0451,-127.255 L -19.6289,-127.024 L -20.1791,-126.722
 L -20.6871,-126.353 L -21.1448,-125.923 L -21.5451,-125.439 L -21.8815,-124.909 L -22.1489,-124.341 L -22.3429,-123.743
 L -22.4606,-123.127 L -22.5,-122.5 L -22.5,-117.5 L -22.4606,-116.873 L -22.3429,-116.257 L -22.1489,-115.659
 L -21.8815,-115.091 L -21.5451,-114.561 L -21.1448,-114.077 L -20.6871,-113.647 L -20.1791,-113.278 L -19.6289,-112.976
 L -19.0451,-112.745 L -18.4369,-112.589 L -17.8139,-112.51 L 17.8139,-112.51 z
M -17.3825,-115.645 L -17.6453,-115.678 L -17.9019,-115.744 L -18.1482,-115.841 L -18.3804,-115.969 L -18.5947,-116.125
 L -18.7879,-116.306 L -18.9567,-116.51 L -19.0987,-116.734 L -19.2115,-116.973 L -19.2934,-117.225 L -19.343,-117.486
 L -19.3596,-117.75 L -19.3596,-122.25 L -19.343,-122.514 L -19.2934,-122.775 L -19.2115,-123.027 L -19.0987,-123.266
 L -18.9567,-123.49 L -18.7879,-123.694 L -18.5947,-123.875 L -18.3804,-124.031 L -18.1482,-124.159 L -17.9019,-124.256
 L -17.6453,-124.322 L -17.3825,-124.355 L 17.3825,-124.355 L 17.6453,-124.322 L 17.9019,-124.256 L 18.1482,-124.159
 L 18.3804,-124.031 L 18.5947,-123.875 L 18.7879,-123.694 L 18.9567,-123.49 L 19.0987,-123.266 L 19.2115,-123.027
 L 19.2934,-122.775 L 19.343,-122.514 L 19.3596,-122.25 L 19.3596,-117.75 L 19.343,-117.486 L 19.2934,-117.225
 L 19.2115,-116.973 L 19.0987,-116.734 L 18.9567,-116.51 L 18.7879,-116.306 L 18.5947,-116.125 L 18.3804,-115.969
 L 18.1482,-115.841 L 17.9019,-115.744 L 17.6453,-115.678 L 17.3825,-115.645 z
" stroke="black" fill="lightgray" stroke-width="0.5"/>
</svg>
