<?xml version="1.0" standalone="no"?>
<!DOCTYPE svg PUBLIC "-//W3C//DTD SVG 1.1//EN" "http://www.w3.org/Graphics/SVG/1.1/DTD/svg11.dtd">
<svg width="30mm" height="64mm" viewBox="-15 -128 30 64" xmlns="http://www.w3.org/2000/svg" version="1.1">
<title>OpenSCAD Model</title>
<path d="
M 10.9369,-112.589 L 11.5451,-112.745 L 12.1289,-112.976 L 12.6791,-113.278 L 13.1871,-113.647 L 13.6448,-114.077
 L 14.0451,-114.561 L 14.3815,-115.091 L 14.6489,-115.659 L 14.8429,-116.257 L 14.9606,-116.873 L 15,-117.5
 L 15,-122.5 L 14.9606,-123.127 L 14.8429,-123.743 L 14.6489,-124.341 L 14.3815,-124.909 L 14.0451,-125.439
 L 13.6448,-125.923 L 13.1871,-126.353 L 12.6791,-126.722 L 12.1289,-127.024 L 11.5451,-127.255 L 10.9369,-127.411
 L 10.3139,-127.49 L -10.3139,-127.49 L -10.9369,-127.411 L -11.5451,-127.255 L -12.1289,-127.024 L -12.6791,-126.722
 L -13.1871,-126.353 L -13.6448,-125.923 L -14.0451,-125.439 L -14.3815,-124.909 L -14.6489,-124.341 L -14.8429,-123.743
 L -14.9606,-123.127 L -15,-122.5 L -15,-117.5 L -14.9606,-116.873 L -14.8429,-116.257 L -14.6489,-115.659
 L -14.3815,-115.091 L -14.0451,-114.561 L -13.6448,-114.077 L -13.1871,-113.647 L -12.6791,-113.278 L -12.1289,-112.976
 L -11.5451,-112.745 L -10.9369,-112.589 L -10.3139,-112.51 L 10.3139,-112.51 z
M -10.0482,-113.009 L -10.6401,-113.084 L -11.2178,-113.232 L -11.7724,-113.452 L -12.2952,-113.739 L -12.7778,-114.09
 L -13.2126,-114.498 L -13.5928,-114.958 L -13.9124,-115.462 L -14.1664,-116.001 L -14.3508,-116.569 L -14.4625,-117.155
 L -14.5,-117.75 L -14.5,-122.25 L -14.4625,-122.845 L -14.3508,-123.431 L -14.1664,-123.999 L -13.9124,-124.538
 L -13.5928,-125.042 L -13.2126,-125.502 L -12.7778,-125.91 L -12.2952,-126.261 L -11.7724,-126.548 L -11.2178,-126.768
 L -10.6401,-126.916 L -10.0482,-126.991 L 10.0482,-126.991 L 10.6401,-126.916 L 11.2178,-126.768 L 11.7724,-126.548
 L 12.2952,-126.261 L 12.7778,-125.91 L 13.2126,-125.502 L 13.5928,-125.042 L 13.9124,-124.538 L 14.1664,-123.999
 L 14.3508,-123.431 L 14.4625,-122.845 L 14.5,-122.25 L 14.5,-117.75 L 14.4625,-117.155 L 14.3508,-116.569
 L 14.1664,-116.001 L 13.9124,-115.462 L 13.5928,-114.958 L 13.2126,-114.498 L 12.7778,-114.09 L 12.2952,-113.739
 L 11.7724,-113.452 L 11.2178,-113.232 L 10.6401,-113.084 L 10.0482,-113.009 z
M 10.9369,-88.5886 L 11.5451,-88.7447 L 12.1289,-88.9759 L 12.6791,-89.2784 L 13.1871,-89.6474 L 13.6448,-90.0773
 L 14.0451,-90.5611 L 14.3815,-91.0912 L 14.6489,-91.6594 L 14.8429,-92.2566 L 14.9606,-92.8733 L 15,-93.5
 L 15,-98.5 L 14.9606,-99.1267 L 14.8429,-99.7434 L 14.6489,-100.341 L 14.3815,-100.909 L 14.0451,-101.439
 L 13.6448,-101.923 L 13.1871,-102.353 L 12.6791,-102.722 L 12.1289,-103.024 L 11.5451,-103.255 L 10.9369,-103.411
 L 10.3139,-103.49 L -10.3139,-103.49 L -10.9369,-103.411 L -11.5451,-103.255 L -12.1289,-103.024 L -12.6791,-102.722
 L -13.1871,-102.353 L -13.6448,-101.923 L -14.0451,-101.439 L -14.3815,-100.909 L -14.6489,-100.341 L -14.8429,-99.7434
 L -14.9606,-99.1267 L -15,-98.5 L -15,-93.5 L -14.9606,-92.8733 L -14.8429,-92.2566 L -14.6489,-91.6594
 L -14.3815,-91.0912 L -14.0451,-90.5611 L -13.6448,-90.0773 L -13.1871,-89.6474 L -12.6791,-89.2784 L -12.1289,-88.9759
 L -11.5451,-88.7447 L -10.9369,-88.5886 L -10.3139,-88.5099 L 10.3139,-88.5099 z
M -10.0375,-89.1806 L -10.6079,-89.2527 L -11.1648,-89.3956 L -11.6994,-89.6073 L -12.2032,-89.8843 L -12.6684,-90.2223
 L -13.0875,-90.6158 L -13.454,-91.0589 L -13.7621,-91.5443 L -14.0069,-92.0646 L -14.1846,-92.6114 L -14.2923,-93.1762
 L -14.3284,-93.75 L -14.3284,-98.25 L -14.2923,-98.8238 L -14.1846,-99.3886 L -14.0069,-99.9354 L -13.7621,-100.456
 L -13.454,-100.941 L -13.0875,-101.384 L -12.6684,-101.778 L -12.2032,-102.116 L -11.6994,-102.393 L -11.1648,-102.604
 L -10.6079,-102.747 L -10.0375,-102.819 L 10.0375,-102.819 L 10.6079,-102.747 L 11.1648,-102.604 L 11.6994,-102.393
 L 12.2032,-102.116 L 12.6684,-101.778 L 13.0875,-101.384 L 13.454,-100.941 L 13.7621,-100.456 L 14.0069,-99.9354
 L 14.1846,-99.3886 L 14.2923,-98.8238 L 14.3284,-98.25 L 14.3284,-93.75 L 14.2923,-93.1762 L 14.1846,-92.6114
 L 14.0069,-92.0646 L 13.7621,-91.5443 L 13.454,-91.0589 L 13.0875,-90.6158 L 12.6684,-90.2223 L 12.2032,-89.8843
 L 11.6994,-89.6073 L 11.1648,-89.3956 L 10.6079,-89.2527 L 10.0375,-89.1806 z
M 10.9369,-64.5886 L 11.5451,-64.7447 L 12.1289,-64.9759 L 12.6791,-65.2784 L 13.1871,-65.6474 L 13.6448,-66.0773
 L 14.0451,-66.5611 L 14.3815,-67.0912 L 14.6489,-67.6594 L 14.8429,-68.2566 L 14.9606,-68.8733 L 15,-69.5
 L 15,-74.5 L 14.9606,-75.1267 L 14.8429,-75.7434 L 14.6489,-76.3406 L 14.3815,-76.9088 L 14.0451,-77.4389
 L 13.6448,-77.9227 L 13.1871,-78.3526 L 12.6791,-78.7216 L 12.1289,-79.0241 L 11.5451,-79.2553 L 10.9369,-79.4114
 L 10.3139,-79.4901 L -10.3139,-79.4901 L -10.9369,-79.4114 L -11.5451,-79.2553 L -12.1289,-79.0241 L -12.6791,-78.7216
 L -13.1871,-78.3526 L -13.6448,-77.9227 L -14.0451,-77.4389 L -14.3815,-76.9088 L -14.6489,-76.3406 L -14.8429,-75.7434
 L -14.9606,-75.1267 L -15,-74.5 L -15,-69.5 L -14.9606,-68.8733 L -14.8429,-68.2566 L -14.6489,-67.6594
 L -14.3815,-67.0912 L -14.0451,-66.5611 L -13.6448,-66.0773 L -13.1871,-65.6474 L -12.6791,-65.2784 L -12.1289,-64.9759
 L -11.5451,-64.7447 L -10.9369,-64.5886 L -10.3139,-64.5099 L 10.3139,-64.5099 z
M -9.88246,-67.6445 L -10.1453,-67.6777 L -10.4019,-67.7436 L -10.6482,-67.8412 L -10.8804,-67.9688 L -11.0947,-68.1245
 L -11.2878,-68.3059 L -11.4567,-68.51 L -11.5987,-68.7337 L -11.7115,-68.9734 L -11.7934,-69.2254 L -11.843,-69.4856
 L -11.8596,-69.75 L -11.8596,-74.25 L -11.843,-74.5144 L -11.7934,-74.7746 L -11.7115,-75.0266 L -11.5987,-75.2663
 L -11.4567,-75.49 L -11.2878,-75.6941 L -11.0947,-75.8755 L -10.8804,-76.0312 L -10.6482,-76.1588 L -10.4019,-76.2564
 L -10.1453,-76.3223 L -9.88246,-76.3555 L 9.88246,-76.3555 L 10.1453,-76.3223 L 10.4019,-76.2564 L 10.6482,-76.1588
 L 10.8804,-76.0312 L 11.0947,-75.8755 L 11.2878,-75.6941 L 11.4567,-75.49 L 11.5987,-75.2663 L 11.7115,-75.0266
 L 11.7934,-74.7746 L 11.843,-74.5144 L 11.8596,-74.25 L 11.8596,-69.75 L 11.843,-69.4856 L 11.7934,-69.2254
 L 11.7115,-68.9734 L 11.5987,-68.7337 L 11.4567,-68.51 L 11.2878,-68.3059 L 11.0947,-68.1245 L 10.8804,-67.9688
 L 10.6482,-67.8412 L 10.4019,-67.7436 L 10.1453,-67.6777 L 9.88246,-67.6445 z
" stroke="black" fill="lightgray" stroke-width="0.5"/>
</svg>
