<?xml version="1.0" standalone="no"?>
<!DOCTYPE svg PUBLIC "-//W3C//DTD SVG 1.1//EN" "http://www.w3.org/Graphics/SVG/1.1/DTD/svg11.dtd">
<svg width="46mm" height="69mm" viewBox="-23 -132 46 69" xmlns="http://www.w3.org/2000/svg" version="1.1">
<title>OpenSCAD Model</title>
<path d="
M 18.4369,-102.089 L 19.0451,-102.245 L 19.6289,-102.476 L 20.1791,-102.778 L 20.6871,-103.147 L 21.1448,-103.577
 L 21.5451,-104.061 L 21.8815,-104.591 L 22.1489,-105.159 L 22.3429,-105.757 L 22.4606,-106.373 L 22.5,-107
 L 22.5,-127 L 22.4606,-127.627 L 22.3429,-128.243 L 22.1489,-128.841 L 21.8815,-129.409 L 21.5451,-129.939
 L 21.1448,-130.423 L 20.6871,-130.853 L 20.1791,-131.222 L 19.6289,-131.524 L 19.0451,-131.755 L 18.4369,-131.911
 L 17.8139,-131.99 L -17.8139,-131.99 L -18.4369,-131.911 L -19.0451,-131.755 L -19.6289,-131.524 L -20.1791,-131.222
 L -20.6871,-130.853 L -21.1448,-130.423 L -21.5451,-129.939 L -21.8815,-129.409 L -22.1489,-128.841 L -22.3429,-128.243
 L -22.4606,-127.627 L -22.5,-127 L -22.5,-107 L -22.4606,-106.373 L -22.3429,-105.757 L -22.1489,-105.159
 L -21.8815,-104.591 L -21.5451,-104.061 L -21.1448,-103.577 L -20.6871,-103.147 L -20.1791,-102.778 L -19.6289,-102.476
 L -19.0451,-102.245 L -18.4369,-102.089 L -17.8139,-102.01 L 17.8139,-102.01 z
M -17.5375,-102.681 L -18.1079,-102.753 L -18.6648,-102.896 L -19.1994,-103.107 L -19.7032,-103.384 L -20.1684,-103.722
 L -20.5875,-104.116 L -20.954,-104.559 L -21.2621,-105.044 L -21.5069,-105.565 L -21.6846,-106.111 L -21.7923,-106.676
 L -21.8284,-107.25 L -21.8284,-126.75 L -21.7923,-127.324 L -21.6846,-127.889 L -21.5069,-128.435 L -21.2621,-128.956
 L -20.954,-129.441 L -20.5875,-129.884 L -20.1684,-130.278 L -19.7032,-130.616 L -19.1994,-130.893 L -18.6648,-131.104
 L -18.1079,-131.247 L -17.5375,-131.319 L 17.5375,-131.319 L 18.1079,-131.247 L 18.6648,-131.104 L 19.1994,-130.893
 L 19.7032,-130.616 L 20.1684,-130.278 L 20.5875,-129.884 L 20.954,-129.441 L 21.2621,-128.956 L 21.5069,-128.435
 L 21.6846,-127.889 L 21.7923,-127.324 L 21.8284,-126.75 L 21.8284,-107.25 L 21.7923,-106.676 L 21.6846,-106.111
 L 21.5069,-105.565 L 21.2621,-105.044 L 20.954,-104.559 L 20.5875,-104.116 L 20.1684,-103.722 L 19.7032,-103.384
 L 19.1994,-103.107 L 18.6648,-102.896 L 18.1079,-102.753 L 17.5375,-102.681 z
M 18.4369,-63.0886 L 19.0451,-63.2447 L 19.6289,-63.4759 L 20.1791,-63.7784 L 20.6871,-64.1474 L 21.1448,-64.5773
 L 21.5451,-65.0611 L 21.8815,-65.5912 L 22.1489,-66.1594 L 22.3429,-66.7566 L 22.4606,-67.3733 L 22.5,-68
 L 22.5,-88 L 22.4606,-88.6267 L 22.3429,-89.2434 L 22.1489,-89.8406 L 21.8815,-90.4088 L 21.5451,-90.9389
 L 21.1448,-91.4227 L 20.6871,-91.8526 L 20.1791,-92.2216 L 19.6289,-92.5241 L 19.0451,-92.7553 L 18.4369,-92.9114
 L 17.8139,-92.9901 L -17.8139,-92.9901 L -18.4369,-92.9114 L -19.0451,-92.7553 L -19.6289,-92.5241 L -20.1791,-92.2216
 L -20.6871,-91.8526 L -21.1448,-91.4227 L -21.5451,-90.9389 L -21.8815,-90.4088 L -22.1489,-89.8406 L -22.3429,-89.2434
 L -22.4606,-88.6267 L -22.5,-88 L -22.5,-68 L -22.4606,-67.3733 L -22.3429,-66.7566 L -22.1489,-66.1594
 L -21.8815,-65.5912 L -21.5451,-65.0611 L -21.1448,-64.5773 L -20.6871,-64.1474 L -20.1791,-63.7784 L -19.6289,-63.4759
 L -19.0451,-63.2447 L -18.4369,-63.0886 L -17.8139,-63.0099 L 17.8139,-63.0099 z
M -17.3825,-66.1445 L -17.6453,-66.1777 L -17.9019,-66.2436 L -18.1482,-66.3412 L -18.3804,-66.4688 L -18.5947,-66.6245
 L -18.7879,-66.8059 L -18.9567,-67.01 L -19.0987,-67.2337 L -19.2115,-67.4734 L -19.2934,-67.7254 L -19.343,-67.9856
 L -19.3596,-68.25 L -19.3596,-87.75 L -19.343,-88.0144 L -19.2934,-88.2746 L -19.2115,-88.5266 L -19.0987,-88.7663
 L -18.9567,-88.99 L -18.7879,-89.1941 L -18.5947,-89.3755 L -18.3804,-89.5312 L -18.1482,-89.6588 L -17.9019,-89.7564
 L -17.6453,-89.8223 L -17.3825,-89.8555 L 17.3825,-89.8555 L 17.6453,-89.8223 L 17.9019,-89.7564 L 18.1482,-89.6588
 L 18.3804,-89.5312 L 18.5947,-89.3755 L 18.7879,-89.1941 L 18.9567,-88.99 L 19.0987,-88.7663 L 19.2115,-88.5266
 L 19.2934,-88.2746 L 19.343,-88.0144 L 19.3596,-87.75 L 19.3596,-68.25 L 19.343,-67.9856 L 19.2934,-67.7254
 L 19.2115,-67.4734 L 19.0987,-67.2337 L 18.9567,-67.01 L 18.7879,-66.8059 L 18.5947,-66.6245 L 18.3804,-66.4688
 L 18.1482,-66.3412 L 17.9019,-66.2436 L 17.6453,-66.1777 L 17.3825,-66.1445 z
" stroke="black" fill="lightgray" stroke-width="0.5"/>
</svg>
