<?xml version="1.0" standalone="no"?>
<!DOCTYPE svg PUBLIC "-//W3C//DTD SVG 1.1//EN" "http://www.w3.org/Graphics/SVG/1.1/DTD/svg11.dtd">
<svg width="46mm" height="309mm" viewBox="-23 -393 46 309" xmlns="http://www.w3.org/2000/svg" version="1.1">
<title>OpenSCAD Model</title>
<path d="
M 18.4369,-243.089 L 19.0451,-243.245 L 19.6289,-243.476 L 20.1791,-243.778 L 20.6871,-244.147 L 21.1448,-244.577
 L 21.5451,-245.061 L 21.8815,-245.591 L 22.1489,-246.159 L 22.3429,-246.757 L 22.4606,-247.373 L 22.5,-248
 L 22.5,-388 L 22.4606,-388.627 L 22.3429,-389.243 L 22.1489,-389.841 L 21.8815,-390.409 L 21.5451,-390.939
 L 21.1448,-391.423 L 20.6871,-391.853 L 20.1791,-392.222 L 19.6289,-392.524 L 19.0451,-392.755 L 18.4369,-392.911
 L 17.8139,-392.99 L -17.8139,-392.99 L -18.4369,-392.911 L -19.0451,-392.755 L -19.6289,-392.524 L -20.1791,-392.222
 L -20.6871,-391.853 L -21.1448,-391.423 L -21.5451,-390.939 L -21.8815,-390.409 L -22.1489,-389.841 L -22.3429,-389.243
 L -22.4606,-388.627 L -22.5,-388 L -22.5,-248 L -22.4606,-247.373 L -22.3429,-246.757 L -22.1489,-246.159
 L -21.8815,-245.591 L -21.5451,-245.061 L -21.1448,-244.577 L -20.6871,-244.147 L -20.1791,-243.778 L -19.6289,-243.476
 L -19.0451,-243.245 L -18.4369,-243.089 L -17.8139,-243.01 L 17.8139,-243.01 z
M 18.4369,-84.0886 L 19.0451,-84.2447 L 19.6289,-84.4759 L 20.1791,-84.7784 L 20.6871,-85.1474 L 21.1448,-85.5773
 L 21.5451,-86.0611 L 21.8815,-86.5912 L 22.1489,-87.1594 L 22.3429,-87.7566 L 22.4606,-88.3733 L 22.5,-89
 L 22.5,-229 L 22.4606,-229.627 L 22.3429,-230.243 L 22.1489,-230.841 L 21.8815,-231.409 L 21.5451,-231.939
 L 21.1448,-232.423 L 20.6871,-232.853 L 20.1791,-233.222 L 19.6289,-233.524 L 19.0451,-233.755 L 18.4369,-233.911
 L 17.8139,-233.99 L -17.8139,-233.99 L -18.4369,-233.911 L -19.0451,-233.755 L -19.6289,-233.524 L -20.1791,-233.222
 L -20.6871,-232.853 L -21.1448,-232.423 L -21.5451,-231.939 L -21.8815,-231.409 L -22.1489,-230.841 L -22.3429,-230.243
 L -22.4606,-229.627 L -22.5,-229 L -22.5,-89 L -22.4606,-88.3733 L -22.3429,-87.7566 L -22.1489,-87.1594
 L -21.8815,-86.5912 L -21.5451,-86.0611 L -21.1448,-85.5773 L -20.6871,-85.1474 L -20.1791,-84.7784 L -19.6289,-84.4759
 L -19.0451,-84.2447 L -18.4369,-84.0886 L -17.8139,-84.0099 L 17.8139,-84.0099 z
M 14.887,-224.704 L 14.6627,-224.732 L 14.4438,-224.788 L 14.2336,-224.871 L 14.0355,-224.98 L 13.8526,-225.113
 L 13.6879,-225.268 L 13.5438,-225.442 L 13.4226,-225.633 L 13.3264,-225.837 L 13.2565,-226.052 L 13.2142,-226.274
 L 13.2,-226.5 L 13.2142,-226.726 L 13.2565,-226.948 L 13.3264,-227.163 L 13.4226,-227.367 L 13.5438,-227.558
 L 13.6879,-227.732 L 13.8526,-227.887 L 14.0355,-228.02 L 14.2336,-228.129 L 14.4438,-228.212 L 14.6627,-228.268
 L 14.887,-228.296 L 15.113,-228.296 L 15.3373,-228.268 L 15.5562,-228.212 L 15.7664,-228.129 L 15.9645,-228.02
 L 16.1474,-227.887 L 16.3121,-227.732 L 16.4562,-227.558 L 16.5773,-227.367 L 16.6736,-227.163 L 16.7434,-226.948
 L 16.7858,-226.726 L 16.8,-226.5 L 16.7858,-226.274 L 16.7434,-226.052 L 16.6736,-225.837 L 16.5773,-225.633
 L 16.4562,-225.442 L 16.3121,-225.268 L 16.1474,-225.113 L 15.9645,-224.98 L 15.7664,-224.871 L 15.5562,-224.788
 L 15.3373,-224.732 L 15.113,-224.704 z
M -15.113,-224.704 L -15.3373,-224.732 L -15.5562,-224.788 L -15.7664,-224.871 L -15.9645,-224.98 L -16.1474,-225.113
 L -16.3121,-225.268 L -16.4562,-225.442 L -16.5773,-225.633 L -16.6736,-225.837 L -16.7434,-226.052 L -16.7858,-226.274
 L -16.8,-226.5 L -16.7858,-226.726 L -16.7434,-226.948 L -16.6736,-227.163 L -16.5773,-227.367 L -16.4562,-227.558
 L -16.3121,-227.732 L -16.1474,-227.887 L -15.9645,-228.02 L -15.7664,-228.129 L -15.5562,-228.212 L -15.3373,-228.268
 L -15.113,-228.296 L -14.887,-228.296 L -14.6627,-228.268 L -14.4438,-228.212 L -14.2336,-228.129 L -14.0355,-228.02
 L -13.8526,-227.887 L -13.6879,-227.732 L -13.5438,-227.558 L -13.4226,-227.367 L -13.3264,-227.163 L -13.2565,-226.948
 L -13.2142,-226.726 L -13.2,-226.5 L -13.2142,-226.274 L -13.2565,-226.052 L -13.3264,-225.837 L -13.4226,-225.633
 L -13.5438,-225.442 L -13.6879,-225.268 L -13.8526,-225.113 L -14.0355,-224.98 L -14.2336,-224.871 L -14.4438,-224.788
 L -14.6627,-224.732 L -14.887,-224.704 z
M -15.113,-89.7036 L -15.3373,-89.7319 L -15.5562,-89.7881 L -15.7664,-89.8713 L -15.9645,-89.9802 L -16.1474,-90.1131
 L -16.3121,-90.2678 L -16.4562,-90.442 L -16.5773,-90.6328 L -16.6736,-90.8374 L -16.7434,-91.0524 L -16.7858,-91.2744
 L -16.8,-91.5 L -16.7858,-91.7256 L -16.7434,-91.9476 L -16.6736,-92.1626 L -16.5773,-92.3672 L -16.4562,-92.558
 L -16.3121,-92.7322 L -16.1474,-92.8869 L -15.9645,-93.0198 L -15.7664,-93.1287 L -15.5562,-93.2119 L -15.3373,-93.2681
 L -15.113,-93.2964 L -14.887,-93.2964 L -14.6627,-93.2681 L -14.4438,-93.2119 L -14.2336,-93.1287 L -14.0355,-93.0198
 L -13.8526,-92.8869 L -13.6879,-92.7322 L -13.5438,-92.558 L -13.4226,-92.3672 L -13.3264,-92.1626 L -13.2565,-91.9476
 L -13.2142,-91.7256 L -13.2,-91.5 L -13.2142,-91.2744 L -13.2565,-91.0524 L -13.3264,-90.8374 L -13.4226,-90.6328
 L -13.5438,-90.442 L -13.6879,-90.2678 L -13.8526,-90.1131 L -14.0355,-89.9802 L -14.2336,-89.8713 L -14.4438,-89.7881
 L -14.6627,-89.7319 L -14.887,-89.7036 z
M 14.887,-89.7036 L 14.6627,-89.7319 L 14.4438,-89.7881 L 14.2336,-89.8713 L 14.0355,-89.9802 L 13.8526,-90.1131
 L 13.6879,-90.2678 L 13.5438,-90.442 L 13.4226,-90.6328 L 13.3264,-90.8374 L 13.2565,-91.0524 L 13.2142,-91.2744
 L 13.2,-91.5 L 13.2142,-91.7256 L 13.2565,-91.9476 L 13.3264,-92.1626 L 13.4226,-92.3672 L 13.5438,-92.558
 L 13.6879,-92.7322 L 13.8526,-92.8869 L 14.0355,-93.0198 L 14.2336,-93.1287 L 14.4438,-93.2119 L 14.6627,-93.2681
 L 14.887,-93.2964 L 15.113,-93.2964 L 15.3373,-93.2681 L 15.5562,-93.2119 L 15.7664,-93.1287 L 15.9645,-93.0198
 L 16.1474,-92.8869 L 16.3121,-92.7322 L 16.4562,-92.558 L 16.5773,-92.3672 L 16.6736,-92.1626 L 16.7434,-91.9476
 L 16.7858,-91.7256 L 16.8,-91.5 L 16.7858,-91.2744 L 16.7434,-91.0524 L 16.6736,-90.8374 L 16.5773,-90.6328
 L 16.4562,-90.442 L 16.3121,-90.2678 L 16.1474,-90.1131 L 15.9645,-89.9802 L 15.7664,-89.8713 L 15.5562,-89.7881
 L 15.3373,-89.7319 L 15.113,-89.7036 z
" stroke="black" fill="lightgray" stroke-width="0.5"/>
</svg>
