  0
SECTION
  2
BLOCKS
  0
ENDSEC
  0
SECTION
  2
ENTITIES
  0
LINE
  8
0
 10
47.9369
 20
518.089
 11
48.5451
 21
518.245
  0
LINE
  8
0
 10
48.5451
 20
518.245
 11
49.1289
 21
518.476
  0
LINE
  8
0
 10
49.1289
 20
518.476
 11
49.6791
 21
518.778
  0
LINE
  8
0
 10
49.6791
 20
518.778
 11
50.1871
 21
519.147
  0
LINE
  8
0
 10
50.1871
 20
519.147
 11
50.6448
 21
519.577
  0
LINE
  8
0
 10
50.6448
 20
519.577
 11
51.0451
 21
520.061
  0
LINE
  8
0
 10
51.0451
 20
520.061
 11
51.3815
 21
520.591
  0
LINE
  8
0
 10
51.3815
 20
520.591
 11
51.6489
 21
521.159
  0
LINE
  8
0
 10
51.6489
 20
521.159
 11
51.8429
 21
521.757
  0
LINE
  8
0
 10
51.8429
 20
521.757
 11
51.9606
 21
522.373
  0
LINE
  8
0
 10
51.9606
 20
522.373
 11
52
 21
523
  0
LINE
  8
0
 10
52
 20
523
 11
52
 21
615
  0
LINE
  8
0
 10
52
 20
615
 11
19.1874
 21
615
  0
LINE
  8
0
 10
19.1874
 20
615
 11
19.1924
 21
614.998
  0
LINE
  8
0
 10
19.1924
 20
614.998
 11
17.7482
 21
614.998
  0
LINE
  8
0
 10
17.7482
 20
614.998
 11
17.6236
 21
614.982
  0
LINE
  8
0
 10
17.6236
 20
614.982
 11
17.502
 21
614.951
  0
LINE
  8
0
 10
17.502
 20
614.951
 11
17.3852
 21
614.905
  0
LINE
  8
0
 10
17.3852
 20
614.905
 11
17.2752
 21
614.844
  0
LINE
  8
0
 10
17.2752
 20
614.844
 11
17.1736
 21
614.771
  0
LINE
  8
0
 10
17.1736
 20
614.771
 11
17.082
 21
614.685
  0
LINE
  8
0
 10
17.082
 20
614.685
 11
17.002
 21
614.588
  0
LINE
  8
0
 10
17.002
 20
614.588
 11
16.9347
 21
614.482
  0
LINE
  8
0
 10
16.9347
 20
614.482
 11
16.8812
 21
614.368
  0
LINE
  8
0
 10
16.8812
 20
614.368
 11
16.8424
 21
614.249
  0
LINE
  8
0
 10
16.8424
 20
614.249
 11
16.8189
 21
614.125
  0
LINE
  8
0
 10
16.8189
 20
614.125
 11
16.811
 21
614
  0
LINE
  8
0
 10
16.811
 20
614
 11
16.8189
 21
613.875
  0
LINE
  8
0
 10
16.8189
 20
613.875
 11
16.8424
 21
613.751
  0
LINE
  8
0
 10
16.8424
 20
613.751
 11
16.8812
 21
613.632
  0
LINE
  8
0
 10
16.8812
 20
613.632
 11
16.9347
 21
613.518
  0
LINE
  8
0
 10
16.9347
 20
613.518
 11
17.002
 21
613.412
  0
LINE
  8
0
 10
17.002
 20
613.412
 11
17.082
 21
613.315
  0
LINE
  8
0
 10
17.082
 20
613.315
 11
17.1736
 21
613.229
  0
LINE
  8
0
 10
17.1736
 20
613.229
 11
17.2752
 21
613.156
  0
LINE
  8
0
 10
17.2752
 20
613.156
 11
17.3852
 21
613.095
  0
LINE
  8
0
 10
17.3852
 20
613.095
 11
17.502
 21
613.049
  0
LINE
  8
0
 10
17.502
 20
613.049
 11
17.6236
 21
613.018
  0
LINE
  8
0
 10
17.6236
 20
613.018
 11
17.7482
 21
613.002
  0
LINE
  8
0
 10
17.7482
 20
613.002
 11
22.8738
 21
613.002
  0
LINE
  8
0
 10
22.8738
 20
613.002
 11
22.9984
 21
613.018
  0
LINE
  8
0
 10
22.9984
 20
613.018
 11
23.12
 21
613.049
  0
LINE
  8
0
 10
23.12
 20
613.049
 11
23.1696
 21
613.069
  0
LINE
  8
0
 10
23.1696
 20
613.069
 11
26.2555
 21
611.372
  0
LINE
  8
0
 10
26.2555
 20
611.372
 11
31.2338
 21
607.755
  0
LINE
  8
0
 10
31.2338
 20
607.755
 11
35.7195
 21
603.543
  0
LINE
  8
0
 10
35.7195
 20
603.543
 11
39.6418
 21
598.801
  0
LINE
  8
0
 10
39.6418
 20
598.801
 11
42.939
 21
593.606
  0
LINE
  8
0
 10
42.939
 20
593.606
 11
45.559
 21
588.038
  0
LINE
  8
0
 10
45.559
 20
588.038
 11
47.4606
 21
582.186
  0
LINE
  8
0
 10
47.4606
 20
582.186
 11
48.6136
 21
576.141
  0
LINE
  8
0
 10
48.6136
 20
576.141
 11
49
 21
570
  0
LINE
  8
0
 10
49
 20
570
 11
48.6136
 21
563.859
  0
LINE
  8
0
 10
48.6136
 20
563.859
 11
47.4606
 21
557.814
  0
LINE
  8
0
 10
47.4606
 20
557.814
 11
45.559
 21
551.962
  0
LINE
  8
0
 10
45.559
 20
551.962
 11
42.939
 21
546.394
  0
LINE
  8
0
 10
42.939
 20
546.394
 11
39.6418
 21
541.199
  0
LINE
  8
0
 10
39.6418
 20
541.199
 11
35.7195
 21
536.457
  0
LINE
  8
0
 10
35.7195
 20
536.457
 11
31.2338
 21
532.245
  0
LINE
  8
0
 10
31.2338
 20
532.245
 11
26.2555
 21
528.628
  0
LINE
  8
0
 10
26.2555
 20
528.628
 11
20.8632
 21
525.663
  0
LINE
  8
0
 10
20.8632
 20
525.663
 11
15.1418
 21
523.398
  0
LINE
  8
0
 10
15.1418
 20
523.398
 11
9.18167
 21
521.868
  0
LINE
  8
0
 10
9.18167
 20
521.868
 11
3.07672
 21
521.097
  0
LINE
  8
0
 10
3.07672
 20
521.097
 11
-3.07672
 21
521.097
  0
LINE
  8
0
 10
-3.07672
 20
521.097
 11
-9.18167
 21
521.868
  0
LINE
  8
0
 10
-9.18167
 20
521.868
 11
-15.1418
 21
523.398
  0
LINE
  8
0
 10
-15.1418
 20
523.398
 11
-20.8632
 21
525.663
  0
LINE
  8
0
 10
-20.8632
 20
525.663
 11
-26.2555
 21
528.628
  0
LINE
  8
0
 10
-26.2555
 20
528.628
 11
-31.2338
 21
532.245
  0
LINE
  8
0
 10
-31.2338
 20
532.245
 11
-35.7195
 21
536.457
  0
LINE
  8
0
 10
-35.7195
 20
536.457
 11
-39.6418
 21
541.199
  0
LINE
  8
0
 10
-39.6418
 20
541.199
 11
-42.939
 21
546.394
  0
LINE
  8
0
 10
-42.939
 20
546.394
 11
-45.559
 21
551.962
  0
LINE
  8
0
 10
-45.559
 20
551.962
 11
-47.4606
 21
557.814
  0
LINE
  8
0
 10
-47.4606
 20
557.814
 11
-48.6136
 21
563.859
  0
LINE
  8
0
 10
-48.6136
 20
563.859
 11
-49
 21
570
  0
LINE
  8
0
 10
-49
 20
570
 11
-48.6136
 21
576.141
  0
LINE
  8
0
 10
-48.6136
 20
576.141
 11
-47.4606
 21
582.186
  0
LINE
  8
0
 10
-47.4606
 20
582.186
 11
-45.559
 21
588.038
  0
LINE
  8
0
 10
-45.559
 20
588.038
 11
-42.939
 21
593.606
  0
LINE
  8
0
 10
-42.939
 20
593.606
 11
-39.6418
 21
598.801
  0
LINE
  8
0
 10
-39.6418
 20
598.801
 11
-35.7195
 21
603.543
  0
LINE
  8
0
 10
-35.7195
 20
603.543
 11
-31.2338
 21
607.755
  0
LINE
  8
0
 10
-31.2338
 20
607.755
 11
-26.2555
 21
611.372
  0
LINE
  8
0
 10
-26.2555
 20
611.372
 11
-20.8632
 21
614.337
  0
LINE
  8
0
 10
-20.8632
 20
614.337
 11
-15.1418
 21
616.602
  0
LINE
  8
0
 10
-15.1418
 20
616.602
 11
-9.18167
 21
618.132
  0
LINE
  8
0
 10
-9.18167
 20
618.132
 11
-3.07672
 21
618.903
  0
LINE
  8
0
 10
-3.07672
 20
618.903
 11
0
 21
618.903
  0
LINE
  8
0
 10
0
 20
618.903
 11
0
 21
619
  0
LINE
  8
0
 10
0
 20
619
 11
32
 21
619
  0
LINE
  8
0
 10
32
 20
619
 11
29.0099
 21
621.99
  0
LINE
  8
0
 10
29.0099
 20
621.99
 11
-19
 21
621.99
  0
LINE
  8
0
 10
-19
 20
621.99
 11
-19
 21
621
  0
LINE
  8
0
 10
-19
 20
621
 11
-51
 21
621
  0
LINE
  8
0
 10
-51
 20
621
 11
-51
 21
622
  0
LINE
  8
0
 10
-51
 20
622
 11
-52
 21
622
  0
LINE
  8
0
 10
-52
 20
622
 11
-52
 21
617.994
  0
LINE
  8
0
 10
-52
 20
617.994
 11
-44.8116
 21
617.994
  0
LINE
  8
0
 10
-44.8116
 20
617.994
 11
-44.4379
 21
617.947
  0
LINE
  8
0
 10
-44.4379
 20
617.947
 11
-44.0729
 21
617.853
  0
LINE
  8
0
 10
-44.0729
 20
617.853
 11
-43.7227
 21
617.714
  0
LINE
  8
0
 10
-43.7227
 20
617.714
 11
-43.3925
 21
617.533
  0
LINE
  8
0
 10
-43.3925
 20
617.533
 11
-43.0877
 21
617.312
  0
LINE
  8
0
 10
-43.0877
 20
617.312
 11
-42.8131
 21
617.054
  0
LINE
  8
0
 10
-42.8131
 20
617.054
 11
-42.5729
 21
616.763
  0
LINE
  8
0
 10
-42.5729
 20
616.763
 11
-42.3711
 21
616.445
  0
LINE
  8
0
 10
-42.3711
 20
616.445
 11
-42.2107
 21
616.104
  0
LINE
  8
0
 10
-42.2107
 20
616.104
 11
-42.0942
 21
615.746
  0
LINE
  8
0
 10
-42.0942
 20
615.746
 11
-42.0237
 21
615.376
  0
LINE
  8
0
 10
-42.0237
 20
615.376
 11
-42
 21
615
  0
LINE
  8
0
 10
-42
 20
615
 11
-42.0237
 21
614.624
  0
LINE
  8
0
 10
-42.0237
 20
614.624
 11
-42.0942
 21
614.254
  0
LINE
  8
0
 10
-42.0942
 20
614.254
 11
-42.2107
 21
613.896
  0
LINE
  8
0
 10
-42.2107
 20
613.896
 11
-42.3711
 21
613.555
  0
LINE
  8
0
 10
-42.3711
 20
613.555
 11
-42.5729
 21
613.237
  0
LINE
  8
0
 10
-42.5729
 20
613.237
 11
-42.8131
 21
612.946
  0
LINE
  8
0
 10
-42.8131
 20
612.946
 11
-43.0877
 21
612.688
  0
LINE
  8
0
 10
-43.0877
 20
612.688
 11
-43.3925
 21
612.467
  0
LINE
  8
0
 10
-43.3925
 20
612.467
 11
-43.7227
 21
612.286
  0
LINE
  8
0
 10
-43.7227
 20
612.286
 11
-44.0729
 21
612.147
  0
LINE
  8
0
 10
-44.0729
 20
612.147
 11
-44.4379
 21
612.053
  0
LINE
  8
0
 10
-44.4379
 20
612.053
 11
-44.8116
 21
612.006
  0
LINE
  8
0
 10
-44.8116
 20
612.006
 11
-52
 21
612.006
  0
LINE
  8
0
 10
-52
 20
612.006
 11
-52
 21
527.994
  0
LINE
  8
0
 10
-52
 20
527.994
 11
-44.8116
 21
527.994
  0
LINE
  8
0
 10
-44.8116
 20
527.994
 11
-44.4379
 21
527.947
  0
LINE
  8
0
 10
-44.4379
 20
527.947
 11
-44.0729
 21
527.853
  0
LINE
  8
0
 10
-44.0729
 20
527.853
 11
-43.7227
 21
527.714
  0
LINE
  8
0
 10
-43.7227
 20
527.714
 11
-43.3925
 21
527.533
  0
LINE
  8
0
 10
-43.3925
 20
527.533
 11
-43.0877
 21
527.312
  0
LINE
  8
0
 10
-43.0877
 20
527.312
 11
-42.8131
 21
527.054
  0
LINE
  8
0
 10
-42.8131
 20
527.054
 11
-42.5729
 21
526.763
  0
LINE
  8
0
 10
-42.5729
 20
526.763
 11
-42.3711
 21
526.445
  0
LINE
  8
0
 10
-42.3711
 20
526.445
 11
-42.2107
 21
526.104
  0
LINE
  8
0
 10
-42.2107
 20
526.104
 11
-42.0942
 21
525.746
  0
LINE
  8
0
 10
-42.0942
 20
525.746
 11
-42.0237
 21
525.376
  0
LINE
  8
0
 10
-42.0237
 20
525.376
 11
-42
 21
525
  0
LINE
  8
0
 10
-42
 20
525
 11
-42.0237
 21
524.624
  0
LINE
  8
0
 10
-42.0237
 20
524.624
 11
-42.0942
 21
524.254
  0
LINE
  8
0
 10
-42.0942
 20
524.254
 11
-42.2107
 21
523.896
  0
LINE
  8
0
 10
-42.2107
 20
523.896
 11
-42.3711
 21
523.555
  0
LINE
  8
0
 10
-42.3711
 20
523.555
 11
-42.5729
 21
523.237
  0
LINE
  8
0
 10
-42.5729
 20
523.237
 11
-42.8131
 21
522.946
  0
LINE
  8
0
 10
-42.8131
 20
522.946
 11
-43.0877
 21
522.688
  0
LINE
  8
0
 10
-43.0877
 20
522.688
 11
-43.3925
 21
522.467
  0
LINE
  8
0
 10
-43.3925
 20
522.467
 11
-43.7227
 21
522.286
  0
LINE
  8
0
 10
-43.7227
 20
522.286
 11
-44.0729
 21
522.147
  0
LINE
  8
0
 10
-44.0729
 20
522.147
 11
-44.4379
 21
522.053
  0
LINE
  8
0
 10
-44.4379
 20
522.053
 11
-44.8116
 21
522.006
  0
LINE
  8
0
 10
-44.8116
 20
522.006
 11
-51.8905
 21
522.006
  0
LINE
  8
0
 10
-51.8905
 20
522.006
 11
-51.8429
 21
521.757
  0
LINE
  8
0
 10
-51.8429
 20
521.757
 11
-51.6489
 21
521.159
  0
LINE
  8
0
 10
-51.6489
 20
521.159
 11
-51.3815
 21
520.591
  0
LINE
  8
0
 10
-51.3815
 20
520.591
 11
-51.0451
 21
520.061
  0
LINE
  8
0
 10
-51.0451
 20
520.061
 11
-50.6448
 21
519.577
  0
LINE
  8
0
 10
-50.6448
 20
519.577
 11
-50.1871
 21
519.147
  0
LINE
  8
0
 10
-50.1871
 20
519.147
 11
-49.6791
 21
518.778
  0
LINE
  8
0
 10
-49.6791
 20
518.778
 11
-49.1289
 21
518.476
  0
LINE
  8
0
 10
-49.1289
 20
518.476
 11
-48.5451
 21
518.245
  0
LINE
  8
0
 10
-48.5451
 20
518.245
 11
-47.9369
 21
518.089
  0
LINE
  8
0
 10
-47.9369
 20
518.089
 11
-47.3139
 21
518.01
  0
LINE
  8
0
 10
-47.3139
 20
518.01
 11
47.3139
 21
518.01
  0
LINE
  8
0
 10
47.3139
 20
518.01
 11
47.9369
 21
518.089
  0
LINE
  8
0
 10
44.8116
 20
522.006
 11
44.4379
 21
522.053
  0
LINE
  8
0
 10
44.4379
 20
522.053
 11
44.0729
 21
522.147
  0
LINE
  8
0
 10
44.0729
 20
522.147
 11
43.7227
 21
522.286
  0
LINE
  8
0
 10
43.7227
 20
522.286
 11
43.3925
 21
522.467
  0
LINE
  8
0
 10
43.3925
 20
522.467
 11
43.0877
 21
522.688
  0
LINE
  8
0
 10
43.0877
 20
522.688
 11
42.8131
 21
522.946
  0
LINE
  8
0
 10
42.8131
 20
522.946
 11
42.5729
 21
523.237
  0
LINE
  8
0
 10
42.5729
 20
523.237
 11
42.3711
 21
523.555
  0
LINE
  8
0
 10
42.3711
 20
523.555
 11
42.2107
 21
523.896
  0
LINE
  8
0
 10
42.2107
 20
523.896
 11
42.0942
 21
524.254
  0
LINE
  8
0
 10
42.0942
 20
524.254
 11
42.0237
 21
524.624
  0
LINE
  8
0
 10
42.0237
 20
524.624
 11
42
 21
525
  0
LINE
  8
0
 10
42
 20
525
 11
42.0237
 21
525.376
  0
LINE
  8
0
 10
42.0237
 20
525.376
 11
42.0942
 21
525.746
  0
LINE
  8
0
 10
42.0942
 20
525.746
 11
42.2107
 21
526.104
  0
LINE
  8
0
 10
42.2107
 20
526.104
 11
42.3711
 21
526.445
  0
LINE
  8
0
 10
42.3711
 20
526.445
 11
42.5729
 21
526.763
  0
LINE
  8
0
 10
42.5729
 20
526.763
 11
42.8131
 21
527.054
  0
LINE
  8
0
 10
42.8131
 20
527.054
 11
43.0877
 21
527.312
  0
LINE
  8
0
 10
43.0877
 20
527.312
 11
43.3925
 21
527.533
  0
LINE
  8
0
 10
43.3925
 20
527.533
 11
43.7227
 21
527.714
  0
LINE
  8
0
 10
43.7227
 20
527.714
 11
44.0729
 21
527.853
  0
LINE
  8
0
 10
44.0729
 20
527.853
 11
44.4379
 21
527.947
  0
LINE
  8
0
 10
44.4379
 20
527.947
 11
44.8116
 21
527.994
  0
LINE
  8
0
 10
44.8116
 20
527.994
 11
45.1884
 21
527.994
  0
LINE
  8
0
 10
45.1884
 20
527.994
 11
45.5621
 21
527.947
  0
LINE
  8
0
 10
45.5621
 20
527.947
 11
45.927
 21
527.853
  0
LINE
  8
0
 10
45.927
 20
527.853
 11
46.2773
 21
527.714
  0
LINE
  8
0
 10
46.2773
 20
527.714
 11
46.6075
 21
527.533
  0
LINE
  8
0
 10
46.6075
 20
527.533
 11
46.9123
 21
527.312
  0
LINE
  8
0
 10
46.9123
 20
527.312
 11
47.1869
 21
527.054
  0
LINE
  8
0
 10
47.1869
 20
527.054
 11
47.427
 21
526.763
  0
LINE
  8
0
 10
47.427
 20
526.763
 11
47.6289
 21
526.445
  0
LINE
  8
0
 10
47.6289
 20
526.445
 11
47.7893
 21
526.104
  0
LINE
  8
0
 10
47.7893
 20
526.104
 11
47.9057
 21
525.746
  0
LINE
  8
0
 10
47.9057
 20
525.746
 11
47.9763
 21
525.376
  0
LINE
  8
0
 10
47.9763
 20
525.376
 11
48
 21
525
  0
LINE
  8
0
 10
48
 20
525
 11
47.9763
 21
524.624
  0
LINE
  8
0
 10
47.9763
 20
524.624
 11
47.9057
 21
524.254
  0
LINE
  8
0
 10
47.9057
 20
524.254
 11
47.7893
 21
523.896
  0
LINE
  8
0
 10
47.7893
 20
523.896
 11
47.6289
 21
523.555
  0
LINE
  8
0
 10
47.6289
 20
523.555
 11
47.427
 21
523.237
  0
LINE
  8
0
 10
47.427
 20
523.237
 11
47.1869
 21
522.946
  0
LINE
  8
0
 10
47.1869
 20
522.946
 11
46.9123
 21
522.688
  0
LINE
  8
0
 10
46.9123
 20
522.688
 11
46.6075
 21
522.467
  0
LINE
  8
0
 10
46.6075
 20
522.467
 11
46.2773
 21
522.286
  0
LINE
  8
0
 10
46.2773
 20
522.286
 11
45.927
 21
522.147
  0
LINE
  8
0
 10
45.927
 20
522.147
 11
45.5621
 21
522.053
  0
LINE
  8
0
 10
45.5621
 20
522.053
 11
45.1884
 21
522.006
  0
LINE
  8
0
 10
45.1884
 20
522.006
 11
44.8116
 21
522.006
  0
LINE
  8
0
 10
42
 20
621.99
 11
31.1312
 21
621.99
  0
LINE
  8
0
 10
31.1312
 20
621.99
 11
34.1213
 21
619
  0
LINE
  8
0
 10
34.1213
 20
619
 11
42
 21
619
  0
LINE
  8
0
 10
42
 20
619
 11
42
 21
621.99
  0
LINE
  8
0
 10
47.9369
 20
404.089
 11
48.5451
 21
404.245
  0
LINE
  8
0
 10
48.5451
 20
404.245
 11
49.1289
 21
404.476
  0
LINE
  8
0
 10
49.1289
 20
404.476
 11
49.6791
 21
404.778
  0
LINE
  8
0
 10
49.6791
 20
404.778
 11
50.1871
 21
405.147
  0
LINE
  8
0
 10
50.1871
 20
405.147
 11
50.6448
 21
405.577
  0
LINE
  8
0
 10
50.6448
 20
405.577
 11
51.0451
 21
406.061
  0
LINE
  8
0
 10
51.0451
 20
406.061
 11
51.3815
 21
406.591
  0
LINE
  8
0
 10
51.3815
 20
406.591
 11
51.6489
 21
407.159
  0
LINE
  8
0
 10
51.6489
 20
407.159
 11
51.8429
 21
407.757
  0
LINE
  8
0
 10
51.8429
 20
407.757
 11
51.9606
 21
408.373
  0
LINE
  8
0
 10
51.9606
 20
408.373
 11
52
 21
409
  0
LINE
  8
0
 10
52
 20
409
 11
52
 21
501
  0
LINE
  8
0
 10
52
 20
501
 11
19.1874
 21
501
  0
LINE
  8
0
 10
19.1874
 20
501
 11
19.1924
 21
500.998
  0
LINE
  8
0
 10
19.1924
 20
500.998
 11
17.7482
 21
500.998
  0
LINE
  8
0
 10
17.7482
 20
500.998
 11
17.6236
 21
500.982
  0
LINE
  8
0
 10
17.6236
 20
500.982
 11
17.502
 21
500.951
  0
LINE
  8
0
 10
17.502
 20
500.951
 11
17.3852
 21
500.905
  0
LINE
  8
0
 10
17.3852
 20
500.905
 11
17.2752
 21
500.844
  0
LINE
  8
0
 10
17.2752
 20
500.844
 11
17.1736
 21
500.771
  0
LINE
  8
0
 10
17.1736
 20
500.771
 11
17.082
 21
500.685
  0
LINE
  8
0
 10
17.082
 20
500.685
 11
17.002
 21
500.588
  0
LINE
  8
0
 10
17.002
 20
500.588
 11
16.9347
 21
500.482
  0
LINE
  8
0
 10
16.9347
 20
500.482
 11
16.8812
 21
500.368
  0
LINE
  8
0
 10
16.8812
 20
500.368
 11
16.8424
 21
500.249
  0
LINE
  8
0
 10
16.8424
 20
500.249
 11
16.8189
 21
500.125
  0
LINE
  8
0
 10
16.8189
 20
500.125
 11
16.811
 21
500
  0
LINE
  8
0
 10
16.811
 20
500
 11
16.8189
 21
499.875
  0
LINE
  8
0
 10
16.8189
 20
499.875
 11
16.8424
 21
499.751
  0
LINE
  8
0
 10
16.8424
 20
499.751
 11
16.8812
 21
499.632
  0
LINE
  8
0
 10
16.8812
 20
499.632
 11
16.9347
 21
499.518
  0
LINE
  8
0
 10
16.9347
 20
499.518
 11
17.002
 21
499.412
  0
LINE
  8
0
 10
17.002
 20
499.412
 11
17.082
 21
499.315
  0
LINE
  8
0
 10
17.082
 20
499.315
 11
17.1736
 21
499.229
  0
LINE
  8
0
 10
17.1736
 20
499.229
 11
17.2752
 21
499.156
  0
LINE
  8
0
 10
17.2752
 20
499.156
 11
17.3852
 21
499.095
  0
LINE
  8
0
 10
17.3852
 20
499.095
 11
17.502
 21
499.049
  0
LINE
  8
0
 10
17.502
 20
499.049
 11
17.6236
 21
499.018
  0
LINE
  8
0
 10
17.6236
 20
499.018
 11
17.7482
 21
499.002
  0
LINE
  8
0
 10
17.7482
 20
499.002
 11
22.8738
 21
499.002
  0
LINE
  8
0
 10
22.8738
 20
499.002
 11
22.9984
 21
499.018
  0
LINE
  8
0
 10
22.9984
 20
499.018
 11
23.12
 21
499.049
  0
LINE
  8
0
 10
23.12
 20
499.049
 11
23.1696
 21
499.069
  0
LINE
  8
0
 10
23.1696
 20
499.069
 11
26.2555
 21
497.372
  0
LINE
  8
0
 10
26.2555
 20
497.372
 11
31.2338
 21
493.755
  0
LINE
  8
0
 10
31.2338
 20
493.755
 11
35.7195
 21
489.543
  0
LINE
  8
0
 10
35.7195
 20
489.543
 11
39.6418
 21
484.801
  0
LINE
  8
0
 10
39.6418
 20
484.801
 11
42.939
 21
479.606
  0
LINE
  8
0
 10
42.939
 20
479.606
 11
45.559
 21
474.038
  0
LINE
  8
0
 10
45.559
 20
474.038
 11
47.4606
 21
468.186
  0
LINE
  8
0
 10
47.4606
 20
468.186
 11
48.6136
 21
462.141
  0
LINE
  8
0
 10
48.6136
 20
462.141
 11
49
 21
456
  0
LINE
  8
0
 10
49
 20
456
 11
48.6136
 21
449.859
  0
LINE
  8
0
 10
48.6136
 20
449.859
 11
47.4606
 21
443.814
  0
LINE
  8
0
 10
47.4606
 20
443.814
 11
45.559
 21
437.962
  0
LINE
  8
0
 10
45.559
 20
437.962
 11
42.939
 21
432.394
  0
LINE
  8
0
 10
42.939
 20
432.394
 11
39.6418
 21
427.199
  0
LINE
  8
0
 10
39.6418
 20
427.199
 11
35.7195
 21
422.457
  0
LINE
  8
0
 10
35.7195
 20
422.457
 11
31.2338
 21
418.245
  0
LINE
  8
0
 10
31.2338
 20
418.245
 11
26.2555
 21
414.628
  0
LINE
  8
0
 10
26.2555
 20
414.628
 11
20.8632
 21
411.663
  0
LINE
  8
0
 10
20.8632
 20
411.663
 11
15.1418
 21
409.398
  0
LINE
  8
0
 10
15.1418
 20
409.398
 11
9.18167
 21
407.868
  0
LINE
  8
0
 10
9.18167
 20
407.868
 11
3.07672
 21
407.097
  0
LINE
  8
0
 10
3.07672
 20
407.097
 11
-3.07672
 21
407.097
  0
LINE
  8
0
 10
-3.07672
 20
407.097
 11
-9.18167
 21
407.868
  0
LINE
  8
0
 10
-9.18167
 20
407.868
 11
-15.1418
 21
409.398
  0
LINE
  8
0
 10
-15.1418
 20
409.398
 11
-20.8632
 21
411.663
  0
LINE
  8
0
 10
-20.8632
 20
411.663
 11
-26.2555
 21
414.628
  0
LINE
  8
0
 10
-26.2555
 20
414.628
 11
-31.2338
 21
418.245
  0
LINE
  8
0
 10
-31.2338
 20
418.245
 11
-35.7195
 21
422.457
  0
LINE
  8
0
 10
-35.7195
 20
422.457
 11
-39.6418
 21
427.199
  0
LINE
  8
0
 10
-39.6418
 20
427.199
 11
-42.939
 21
432.394
  0
LINE
  8
0
 10
-42.939
 20
432.394
 11
-45.559
 21
437.962
  0
LINE
  8
0
 10
-45.559
 20
437.962
 11
-47.4606
 21
443.814
  0
LINE
  8
0
 10
-47.4606
 20
443.814
 11
-48.6136
 21
449.859
  0
LINE
  8
0
 10
-48.6136
 20
449.859
 11
-49
 21
456
  0
LINE
  8
0
 10
-49
 20
456
 11
-48.6136
 21
462.141
  0
LINE
  8
0
 10
-48.6136
 20
462.141
 11
-47.4606
 21
468.186
  0
LINE
  8
0
 10
-47.4606
 20
468.186
 11
-45.559
 21
474.038
  0
LINE
  8
0
 10
-45.559
 20
474.038
 11
-42.939
 21
479.606
  0
LINE
  8
0
 10
-42.939
 20
479.606
 11
-39.6418
 21
484.801
  0
LINE
  8
0
 10
-39.6418
 20
484.801
 11
-35.7195
 21
489.543
  0
LINE
  8
0
 10
-35.7195
 20
489.543
 11
-31.2338
 21
493.755
  0
LINE
  8
0
 10
-31.2338
 20
493.755
 11
-26.2555
 21
497.372
  0
LINE
  8
0
 10
-26.2555
 20
497.372
 11
-20.8632
 21
500.337
  0
LINE
  8
0
 10
-20.8632
 20
500.337
 11
-15.1418
 21
502.602
  0
LINE
  8
0
 10
-15.1418
 20
502.602
 11
-9.18167
 21
504.132
  0
LINE
  8
0
 10
-9.18167
 20
504.132
 11
-3.07672
 21
504.903
  0
LINE
  8
0
 10
-3.07672
 20
504.903
 11
0
 21
504.903
  0
LINE
  8
0
 10
0
 20
504.903
 11
0
 21
505
  0
LINE
  8
0
 10
0
 20
505
 11
32
 21
505
  0
LINE
  8
0
 10
32
 20
505
 11
29.0099
 21
507.99
  0
LINE
  8
0
 10
29.0099
 20
507.99
 11
-19
 21
507.99
  0
LINE
  8
0
 10
-19
 20
507.99
 11
-19
 21
507
  0
LINE
  8
0
 10
-19
 20
507
 11
-51
 21
507
  0
LINE
  8
0
 10
-51
 20
507
 11
-51
 21
508
  0
LINE
  8
0
 10
-51
 20
508
 11
-52
 21
508
  0
LINE
  8
0
 10
-52
 20
508
 11
-52
 21
503.994
  0
LINE
  8
0
 10
-52
 20
503.994
 11
-44.8116
 21
503.994
  0
LINE
  8
0
 10
-44.8116
 20
503.994
 11
-44.4379
 21
503.947
  0
LINE
  8
0
 10
-44.4379
 20
503.947
 11
-44.0729
 21
503.853
  0
LINE
  8
0
 10
-44.0729
 20
503.853
 11
-43.7227
 21
503.714
  0
LINE
  8
0
 10
-43.7227
 20
503.714
 11
-43.3925
 21
503.533
  0
LINE
  8
0
 10
-43.3925
 20
503.533
 11
-43.0877
 21
503.312
  0
LINE
  8
0
 10
-43.0877
 20
503.312
 11
-42.8131
 21
503.054
  0
LINE
  8
0
 10
-42.8131
 20
503.054
 11
-42.5729
 21
502.763
  0
LINE
  8
0
 10
-42.5729
 20
502.763
 11
-42.3711
 21
502.445
  0
LINE
  8
0
 10
-42.3711
 20
502.445
 11
-42.2107
 21
502.104
  0
LINE
  8
0
 10
-42.2107
 20
502.104
 11
-42.0942
 21
501.746
  0
LINE
  8
0
 10
-42.0942
 20
501.746
 11
-42.0237
 21
501.376
  0
LINE
  8
0
 10
-42.0237
 20
501.376
 11
-42
 21
501
  0
LINE
  8
0
 10
-42
 20
501
 11
-42.0237
 21
500.624
  0
LINE
  8
0
 10
-42.0237
 20
500.624
 11
-42.0942
 21
500.254
  0
LINE
  8
0
 10
-42.0942
 20
500.254
 11
-42.2107
 21
499.896
  0
LINE
  8
0
 10
-42.2107
 20
499.896
 11
-42.3711
 21
499.555
  0
LINE
  8
0
 10
-42.3711
 20
499.555
 11
-42.5729
 21
499.237
  0
LINE
  8
0
 10
-42.5729
 20
499.237
 11
-42.8131
 21
498.946
  0
LINE
  8
0
 10
-42.8131
 20
498.946
 11
-43.0877
 21
498.688
  0
LINE
  8
0
 10
-43.0877
 20
498.688
 11
-43.3925
 21
498.467
  0
LINE
  8
0
 10
-43.3925
 20
498.467
 11
-43.7227
 21
498.286
  0
LINE
  8
0
 10
-43.7227
 20
498.286
 11
-44.0729
 21
498.147
  0
LINE
  8
0
 10
-44.0729
 20
498.147
 11
-44.4379
 21
498.053
  0
LINE
  8
0
 10
-44.4379
 20
498.053
 11
-44.8116
 21
498.006
  0
LINE
  8
0
 10
-44.8116
 20
498.006
 11
-52
 21
498.006
  0
LINE
  8
0
 10
-52
 20
498.006
 11
-52
 21
413.994
  0
LINE
  8
0
 10
-52
 20
413.994
 11
-44.8116
 21
413.994
  0
LINE
  8
0
 10
-44.8116
 20
413.994
 11
-44.4379
 21
413.947
  0
LINE
  8
0
 10
-44.4379
 20
413.947
 11
-44.0729
 21
413.853
  0
LINE
  8
0
 10
-44.0729
 20
413.853
 11
-43.7227
 21
413.714
  0
LINE
  8
0
 10
-43.7227
 20
413.714
 11
-43.3925
 21
413.533
  0
LINE
  8
0
 10
-43.3925
 20
413.533
 11
-43.0877
 21
413.312
  0
LINE
  8
0
 10
-43.0877
 20
413.312
 11
-42.8131
 21
413.054
  0
LINE
  8
0
 10
-42.8131
 20
413.054
 11
-42.5729
 21
412.763
  0
LINE
  8
0
 10
-42.5729
 20
412.763
 11
-42.3711
 21
412.445
  0
LINE
  8
0
 10
-42.3711
 20
412.445
 11
-42.2107
 21
412.104
  0
LINE
  8
0
 10
-42.2107
 20
412.104
 11
-42.0942
 21
411.746
  0
LINE
  8
0
 10
-42.0942
 20
411.746
 11
-42.0237
 21
411.376
  0
LINE
  8
0
 10
-42.0237
 20
411.376
 11
-42
 21
411
  0
LINE
  8
0
 10
-42
 20
411
 11
-42.0237
 21
410.624
  0
LINE
  8
0
 10
-42.0237
 20
410.624
 11
-42.0942
 21
410.254
  0
LINE
  8
0
 10
-42.0942
 20
410.254
 11
-42.2107
 21
409.896
  0
LINE
  8
0
 10
-42.2107
 20
409.896
 11
-42.3711
 21
409.555
  0
LINE
  8
0
 10
-42.3711
 20
409.555
 11
-42.5729
 21
409.237
  0
LINE
  8
0
 10
-42.5729
 20
409.237
 11
-42.8131
 21
408.946
  0
LINE
  8
0
 10
-42.8131
 20
408.946
 11
-43.0877
 21
408.688
  0
LINE
  8
0
 10
-43.0877
 20
408.688
 11
-43.3925
 21
408.467
  0
LINE
  8
0
 10
-43.3925
 20
408.467
 11
-43.7227
 21
408.286
  0
LINE
  8
0
 10
-43.7227
 20
408.286
 11
-44.0729
 21
408.147
  0
LINE
  8
0
 10
-44.0729
 20
408.147
 11
-44.4379
 21
408.053
  0
LINE
  8
0
 10
-44.4379
 20
408.053
 11
-44.8116
 21
408.006
  0
LINE
  8
0
 10
-44.8116
 20
408.006
 11
-51.8905
 21
408.006
  0
LINE
  8
0
 10
-51.8905
 20
408.006
 11
-51.8429
 21
407.757
  0
LINE
  8
0
 10
-51.8429
 20
407.757
 11
-51.6489
 21
407.159
  0
LINE
  8
0
 10
-51.6489
 20
407.159
 11
-51.3815
 21
406.591
  0
LINE
  8
0
 10
-51.3815
 20
406.591
 11
-51.0451
 21
406.061
  0
LINE
  8
0
 10
-51.0451
 20
406.061
 11
-50.6448
 21
405.577
  0
LINE
  8
0
 10
-50.6448
 20
405.577
 11
-50.1871
 21
405.147
  0
LINE
  8
0
 10
-50.1871
 20
405.147
 11
-49.6791
 21
404.778
  0
LINE
  8
0
 10
-49.6791
 20
404.778
 11
-49.1289
 21
404.476
  0
LINE
  8
0
 10
-49.1289
 20
404.476
 11
-48.5451
 21
404.245
  0
LINE
  8
0
 10
-48.5451
 20
404.245
 11
-47.9369
 21
404.089
  0
LINE
  8
0
 10
-47.9369
 20
404.089
 11
-47.3139
 21
404.01
  0
LINE
  8
0
 10
-47.3139
 20
404.01
 11
47.3139
 21
404.01
  0
LINE
  8
0
 10
47.3139
 20
404.01
 11
47.9369
 21
404.089
  0
LINE
  8
0
 10
44.8116
 20
408.006
 11
44.4379
 21
408.053
  0
LINE
  8
0
 10
44.4379
 20
408.053
 11
44.0729
 21
408.147
  0
LINE
  8
0
 10
44.0729
 20
408.147
 11
43.7227
 21
408.286
  0
LINE
  8
0
 10
43.7227
 20
408.286
 11
43.3925
 21
408.467
  0
LINE
  8
0
 10
43.3925
 20
408.467
 11
43.0877
 21
408.688
  0
LINE
  8
0
 10
43.0877
 20
408.688
 11
42.8131
 21
408.946
  0
LINE
  8
0
 10
42.8131
 20
408.946
 11
42.5729
 21
409.237
  0
LINE
  8
0
 10
42.5729
 20
409.237
 11
42.3711
 21
409.555
  0
LINE
  8
0
 10
42.3711
 20
409.555
 11
42.2107
 21
409.896
  0
LINE
  8
0
 10
42.2107
 20
409.896
 11
42.0942
 21
410.254
  0
LINE
  8
0
 10
42.0942
 20
410.254
 11
42.0237
 21
410.624
  0
LINE
  8
0
 10
42.0237
 20
410.624
 11
42
 21
411
  0
LINE
  8
0
 10
42
 20
411
 11
42.0237
 21
411.376
  0
LINE
  8
0
 10
42.0237
 20
411.376
 11
42.0942
 21
411.746
  0
LINE
  8
0
 10
42.0942
 20
411.746
 11
42.2107
 21
412.104
  0
LINE
  8
0
 10
42.2107
 20
412.104
 11
42.3711
 21
412.445
  0
LINE
  8
0
 10
42.3711
 20
412.445
 11
42.5729
 21
412.763
  0
LINE
  8
0
 10
42.5729
 20
412.763
 11
42.8131
 21
413.054
  0
LINE
  8
0
 10
42.8131
 20
413.054
 11
43.0877
 21
413.312
  0
LINE
  8
0
 10
43.0877
 20
413.312
 11
43.3925
 21
413.533
  0
LINE
  8
0
 10
43.3925
 20
413.533
 11
43.7227
 21
413.714
  0
LINE
  8
0
 10
43.7227
 20
413.714
 11
44.0729
 21
413.853
  0
LINE
  8
0
 10
44.0729
 20
413.853
 11
44.4379
 21
413.947
  0
LINE
  8
0
 10
44.4379
 20
413.947
 11
44.8116
 21
413.994
  0
LINE
  8
0
 10
44.8116
 20
413.994
 11
45.1884
 21
413.994
  0
LINE
  8
0
 10
45.1884
 20
413.994
 11
45.5621
 21
413.947
  0
LINE
  8
0
 10
45.5621
 20
413.947
 11
45.927
 21
413.853
  0
LINE
  8
0
 10
45.927
 20
413.853
 11
46.2773
 21
413.714
  0
LINE
  8
0
 10
46.2773
 20
413.714
 11
46.6075
 21
413.533
  0
LINE
  8
0
 10
46.6075
 20
413.533
 11
46.9123
 21
413.312
  0
LINE
  8
0
 10
46.9123
 20
413.312
 11
47.1869
 21
413.054
  0
LINE
  8
0
 10
47.1869
 20
413.054
 11
47.427
 21
412.763
  0
LINE
  8
0
 10
47.427
 20
412.763
 11
47.6289
 21
412.445
  0
LINE
  8
0
 10
47.6289
 20
412.445
 11
47.7893
 21
412.104
  0
LINE
  8
0
 10
47.7893
 20
412.104
 11
47.9057
 21
411.746
  0
LINE
  8
0
 10
47.9057
 20
411.746
 11
47.9763
 21
411.376
  0
LINE
  8
0
 10
47.9763
 20
411.376
 11
48
 21
411
  0
LINE
  8
0
 10
48
 20
411
 11
47.9763
 21
410.624
  0
LINE
  8
0
 10
47.9763
 20
410.624
 11
47.9057
 21
410.254
  0
LINE
  8
0
 10
47.9057
 20
410.254
 11
47.7893
 21
409.896
  0
LINE
  8
0
 10
47.7893
 20
409.896
 11
47.6289
 21
409.555
  0
LINE
  8
0
 10
47.6289
 20
409.555
 11
47.427
 21
409.237
  0
LINE
  8
0
 10
47.427
 20
409.237
 11
47.1869
 21
408.946
  0
LINE
  8
0
 10
47.1869
 20
408.946
 11
46.9123
 21
408.688
  0
LINE
  8
0
 10
46.9123
 20
408.688
 11
46.6075
 21
408.467
  0
LINE
  8
0
 10
46.6075
 20
408.467
 11
46.2773
 21
408.286
  0
LINE
  8
0
 10
46.2773
 20
408.286
 11
45.927
 21
408.147
  0
LINE
  8
0
 10
45.927
 20
408.147
 11
45.5621
 21
408.053
  0
LINE
  8
0
 10
45.5621
 20
408.053
 11
45.1884
 21
408.006
  0
LINE
  8
0
 10
45.1884
 20
408.006
 11
44.8116
 21
408.006
  0
LINE
  8
0
 10
42
 20
507.99
 11
31.1312
 21
507.99
  0
LINE
  8
0
 10
31.1312
 20
507.99
 11
34.1213
 21
505
  0
LINE
  8
0
 10
34.1213
 20
505
 11
42
 21
505
  0
LINE
  8
0
 10
42
 20
505
 11
42
 21
507.99
  0
LINE
  8
0
 10
47.9369
 20
290.089
 11
48.5451
 21
290.245
  0
LINE
  8
0
 10
48.5451
 20
290.245
 11
49.1289
 21
290.476
  0
LINE
  8
0
 10
49.1289
 20
290.476
 11
49.6791
 21
290.778
  0
LINE
  8
0
 10
49.6791
 20
290.778
 11
50.1871
 21
291.147
  0
LINE
  8
0
 10
50.1871
 20
291.147
 11
50.6448
 21
291.577
  0
LINE
  8
0
 10
50.6448
 20
291.577
 11
51.0451
 21
292.061
  0
LINE
  8
0
 10
51.0451
 20
292.061
 11
51.3815
 21
292.591
  0
LINE
  8
0
 10
51.3815
 20
292.591
 11
51.6489
 21
293.159
  0
LINE
  8
0
 10
51.6489
 20
293.159
 11
51.8429
 21
293.757
  0
LINE
  8
0
 10
51.8429
 20
293.757
 11
51.9606
 21
294.373
  0
LINE
  8
0
 10
51.9606
 20
294.373
 11
52
 21
295
  0
LINE
  8
0
 10
52
 20
295
 11
52
 21
387
  0
LINE
  8
0
 10
52
 20
387
 11
19.1874
 21
387
  0
LINE
  8
0
 10
19.1874
 20
387
 11
19.1924
 21
386.998
  0
LINE
  8
0
 10
19.1924
 20
386.998
 11
17.7482
 21
386.998
  0
LINE
  8
0
 10
17.7482
 20
386.998
 11
17.6236
 21
386.982
  0
LINE
  8
0
 10
17.6236
 20
386.982
 11
17.502
 21
386.951
  0
LINE
  8
0
 10
17.502
 20
386.951
 11
17.3852
 21
386.905
  0
LINE
  8
0
 10
17.3852
 20
386.905
 11
17.2752
 21
386.844
  0
LINE
  8
0
 10
17.2752
 20
386.844
 11
17.1736
 21
386.771
  0
LINE
  8
0
 10
17.1736
 20
386.771
 11
17.082
 21
386.685
  0
LINE
  8
0
 10
17.082
 20
386.685
 11
17.002
 21
386.588
  0
LINE
  8
0
 10
17.002
 20
386.588
 11
16.9347
 21
386.482
  0
LINE
  8
0
 10
16.9347
 20
386.482
 11
16.8812
 21
386.368
  0
LINE
  8
0
 10
16.8812
 20
386.368
 11
16.8424
 21
386.249
  0
LINE
  8
0
 10
16.8424
 20
386.249
 11
16.8189
 21
386.125
  0
LINE
  8
0
 10
16.8189
 20
386.125
 11
16.811
 21
386
  0
LINE
  8
0
 10
16.811
 20
386
 11
16.8189
 21
385.875
  0
LINE
  8
0
 10
16.8189
 20
385.875
 11
16.8424
 21
385.751
  0
LINE
  8
0
 10
16.8424
 20
385.751
 11
16.8812
 21
385.632
  0
LINE
  8
0
 10
16.8812
 20
385.632
 11
16.9347
 21
385.518
  0
LINE
  8
0
 10
16.9347
 20
385.518
 11
17.002
 21
385.412
  0
LINE
  8
0
 10
17.002
 20
385.412
 11
17.082
 21
385.315
  0
LINE
  8
0
 10
17.082
 20
385.315
 11
17.1736
 21
385.229
  0
LINE
  8
0
 10
17.1736
 20
385.229
 11
17.2752
 21
385.156
  0
LINE
  8
0
 10
17.2752
 20
385.156
 11
17.3852
 21
385.095
  0
LINE
  8
0
 10
17.3852
 20
385.095
 11
17.502
 21
385.049
  0
LINE
  8
0
 10
17.502
 20
385.049
 11
17.6236
 21
385.018
  0
LINE
  8
0
 10
17.6236
 20
385.018
 11
17.7482
 21
385.002
  0
LINE
  8
0
 10
17.7482
 20
385.002
 11
22.8738
 21
385.002
  0
LINE
  8
0
 10
22.8738
 20
385.002
 11
22.9984
 21
385.018
  0
LINE
  8
0
 10
22.9984
 20
385.018
 11
23.12
 21
385.049
  0
LINE
  8
0
 10
23.12
 20
385.049
 11
23.1696
 21
385.069
  0
LINE
  8
0
 10
23.1696
 20
385.069
 11
26.2555
 21
383.372
  0
LINE
  8
0
 10
26.2555
 20
383.372
 11
31.2338
 21
379.755
  0
LINE
  8
0
 10
31.2338
 20
379.755
 11
35.7195
 21
375.543
  0
LINE
  8
0
 10
35.7195
 20
375.543
 11
39.6418
 21
370.801
  0
LINE
  8
0
 10
39.6418
 20
370.801
 11
42.939
 21
365.606
  0
LINE
  8
0
 10
42.939
 20
365.606
 11
45.559
 21
360.038
  0
LINE
  8
0
 10
45.559
 20
360.038
 11
47.4606
 21
354.186
  0
LINE
  8
0
 10
47.4606
 20
354.186
 11
48.6136
 21
348.141
  0
LINE
  8
0
 10
48.6136
 20
348.141
 11
49
 21
342
  0
LINE
  8
0
 10
49
 20
342
 11
48.6136
 21
335.859
  0
LINE
  8
0
 10
48.6136
 20
335.859
 11
47.4606
 21
329.814
  0
LINE
  8
0
 10
47.4606
 20
329.814
 11
45.559
 21
323.962
  0
LINE
  8
0
 10
45.559
 20
323.962
 11
42.939
 21
318.394
  0
LINE
  8
0
 10
42.939
 20
318.394
 11
39.6418
 21
313.199
  0
LINE
  8
0
 10
39.6418
 20
313.199
 11
35.7195
 21
308.457
  0
LINE
  8
0
 10
35.7195
 20
308.457
 11
31.2338
 21
304.245
  0
LINE
  8
0
 10
31.2338
 20
304.245
 11
26.2555
 21
300.628
  0
LINE
  8
0
 10
26.2555
 20
300.628
 11
20.8632
 21
297.663
  0
LINE
  8
0
 10
20.8632
 20
297.663
 11
15.1418
 21
295.398
  0
LINE
  8
0
 10
15.1418
 20
295.398
 11
9.18167
 21
293.868
  0
LINE
  8
0
 10
9.18167
 20
293.868
 11
3.07672
 21
293.097
  0
LINE
  8
0
 10
3.07672
 20
293.097
 11
-3.07672
 21
293.097
  0
LINE
  8
0
 10
-3.07672
 20
293.097
 11
-9.18167
 21
293.868
  0
LINE
  8
0
 10
-9.18167
 20
293.868
 11
-15.1418
 21
295.398
  0
LINE
  8
0
 10
-15.1418
 20
295.398
 11
-20.8632
 21
297.663
  0
LINE
  8
0
 10
-20.8632
 20
297.663
 11
-26.2555
 21
300.628
  0
LINE
  8
0
 10
-26.2555
 20
300.628
 11
-31.2338
 21
304.245
  0
LINE
  8
0
 10
-31.2338
 20
304.245
 11
-35.7195
 21
308.457
  0
LINE
  8
0
 10
-35.7195
 20
308.457
 11
-39.6418
 21
313.199
  0
LINE
  8
0
 10
-39.6418
 20
313.199
 11
-42.939
 21
318.394
  0
LINE
  8
0
 10
-42.939
 20
318.394
 11
-45.559
 21
323.962
  0
LINE
  8
0
 10
-45.559
 20
323.962
 11
-47.4606
 21
329.814
  0
LINE
  8
0
 10
-47.4606
 20
329.814
 11
-48.6136
 21
335.859
  0
LINE
  8
0
 10
-48.6136
 20
335.859
 11
-49
 21
342
  0
LINE
  8
0
 10
-49
 20
342
 11
-48.6136
 21
348.141
  0
LINE
  8
0
 10
-48.6136
 20
348.141
 11
-47.4606
 21
354.186
  0
LINE
  8
0
 10
-47.4606
 20
354.186
 11
-45.559
 21
360.038
  0
LINE
  8
0
 10
-45.559
 20
360.038
 11
-42.939
 21
365.606
  0
LINE
  8
0
 10
-42.939
 20
365.606
 11
-39.6418
 21
370.801
  0
LINE
  8
0
 10
-39.6418
 20
370.801
 11
-35.7195
 21
375.543
  0
LINE
  8
0
 10
-35.7195
 20
375.543
 11
-31.2338
 21
379.755
  0
LINE
  8
0
 10
-31.2338
 20
379.755
 11
-26.2555
 21
383.372
  0
LINE
  8
0
 10
-26.2555
 20
383.372
 11
-20.8632
 21
386.337
  0
LINE
  8
0
 10
-20.8632
 20
386.337
 11
-15.1418
 21
388.602
  0
LINE
  8
0
 10
-15.1418
 20
388.602
 11
-9.18167
 21
390.132
  0
LINE
  8
0
 10
-9.18167
 20
390.132
 11
-3.07672
 21
390.903
  0
LINE
  8
0
 10
-3.07672
 20
390.903
 11
0
 21
390.903
  0
LINE
  8
0
 10
0
 20
390.903
 11
0
 21
391
  0
LINE
  8
0
 10
0
 20
391
 11
32
 21
391
  0
LINE
  8
0
 10
32
 20
391
 11
29.0099
 21
393.99
  0
LINE
  8
0
 10
29.0099
 20
393.99
 11
-19
 21
393.99
  0
LINE
  8
0
 10
-19
 20
393.99
 11
-19
 21
393
  0
LINE
  8
0
 10
-19
 20
393
 11
-51
 21
393
  0
LINE
  8
0
 10
-51
 20
393
 11
-51
 21
394
  0
LINE
  8
0
 10
-51
 20
394
 11
-52
 21
394
  0
LINE
  8
0
 10
-52
 20
394
 11
-52
 21
389.994
  0
LINE
  8
0
 10
-52
 20
389.994
 11
-44.8116
 21
389.994
  0
LINE
  8
0
 10
-44.8116
 20
389.994
 11
-44.4379
 21
389.947
  0
LINE
  8
0
 10
-44.4379
 20
389.947
 11
-44.0729
 21
389.853
  0
LINE
  8
0
 10
-44.0729
 20
389.853
 11
-43.7227
 21
389.714
  0
LINE
  8
0
 10
-43.7227
 20
389.714
 11
-43.3925
 21
389.533
  0
LINE
  8
0
 10
-43.3925
 20
389.533
 11
-43.0877
 21
389.312
  0
LINE
  8
0
 10
-43.0877
 20
389.312
 11
-42.8131
 21
389.054
  0
LINE
  8
0
 10
-42.8131
 20
389.054
 11
-42.5729
 21
388.763
  0
LINE
  8
0
 10
-42.5729
 20
388.763
 11
-42.3711
 21
388.445
  0
LINE
  8
0
 10
-42.3711
 20
388.445
 11
-42.2107
 21
388.104
  0
LINE
  8
0
 10
-42.2107
 20
388.104
 11
-42.0942
 21
387.746
  0
LINE
  8
0
 10
-42.0942
 20
387.746
 11
-42.0237
 21
387.376
  0
LINE
  8
0
 10
-42.0237
 20
387.376
 11
-42
 21
387
  0
LINE
  8
0
 10
-42
 20
387
 11
-42.0237
 21
386.624
  0
LINE
  8
0
 10
-42.0237
 20
386.624
 11
-42.0942
 21
386.254
  0
LINE
  8
0
 10
-42.0942
 20
386.254
 11
-42.2107
 21
385.896
  0
LINE
  8
0
 10
-42.2107
 20
385.896
 11
-42.3711
 21
385.555
  0
LINE
  8
0
 10
-42.3711
 20
385.555
 11
-42.5729
 21
385.237
  0
LINE
  8
0
 10
-42.5729
 20
385.237
 11
-42.8131
 21
384.946
  0
LINE
  8
0
 10
-42.8131
 20
384.946
 11
-43.0877
 21
384.688
  0
LINE
  8
0
 10
-43.0877
 20
384.688
 11
-43.3925
 21
384.467
  0
LINE
  8
0
 10
-43.3925
 20
384.467
 11
-43.7227
 21
384.286
  0
LINE
  8
0
 10
-43.7227
 20
384.286
 11
-44.0729
 21
384.147
  0
LINE
  8
0
 10
-44.0729
 20
384.147
 11
-44.4379
 21
384.053
  0
LINE
  8
0
 10
-44.4379
 20
384.053
 11
-44.8116
 21
384.006
  0
LINE
  8
0
 10
-44.8116
 20
384.006
 11
-52
 21
384.006
  0
LINE
  8
0
 10
-52
 20
384.006
 11
-52
 21
299.994
  0
LINE
  8
0
 10
-52
 20
299.994
 11
-44.8116
 21
299.994
  0
LINE
  8
0
 10
-44.8116
 20
299.994
 11
-44.4379
 21
299.947
  0
LINE
  8
0
 10
-44.4379
 20
299.947
 11
-44.0729
 21
299.853
  0
LINE
  8
0
 10
-44.0729
 20
299.853
 11
-43.7227
 21
299.714
  0
LINE
  8
0
 10
-43.7227
 20
299.714
 11
-43.3925
 21
299.533
  0
LINE
  8
0
 10
-43.3925
 20
299.533
 11
-43.0877
 21
299.312
  0
LINE
  8
0
 10
-43.0877
 20
299.312
 11
-42.8131
 21
299.054
  0
LINE
  8
0
 10
-42.8131
 20
299.054
 11
-42.5729
 21
298.763
  0
LINE
  8
0
 10
-42.5729
 20
298.763
 11
-42.3711
 21
298.445
  0
LINE
  8
0
 10
-42.3711
 20
298.445
 11
-42.2107
 21
298.104
  0
LINE
  8
0
 10
-42.2107
 20
298.104
 11
-42.0942
 21
297.746
  0
LINE
  8
0
 10
-42.0942
 20
297.746
 11
-42.0237
 21
297.376
  0
LINE
  8
0
 10
-42.0237
 20
297.376
 11
-42
 21
297
  0
LINE
  8
0
 10
-42
 20
297
 11
-42.0237
 21
296.624
  0
LINE
  8
0
 10
-42.0237
 20
296.624
 11
-42.0942
 21
296.254
  0
LINE
  8
0
 10
-42.0942
 20
296.254
 11
-42.2107
 21
295.896
  0
LINE
  8
0
 10
-42.2107
 20
295.896
 11
-42.3711
 21
295.555
  0
LINE
  8
0
 10
-42.3711
 20
295.555
 11
-42.5729
 21
295.237
  0
LINE
  8
0
 10
-42.5729
 20
295.237
 11
-42.8131
 21
294.946
  0
LINE
  8
0
 10
-42.8131
 20
294.946
 11
-43.0877
 21
294.688
  0
LINE
  8
0
 10
-43.0877
 20
294.688
 11
-43.3925
 21
294.467
  0
LINE
  8
0
 10
-43.3925
 20
294.467
 11
-43.7227
 21
294.286
  0
LINE
  8
0
 10
-43.7227
 20
294.286
 11
-44.0729
 21
294.147
  0
LINE
  8
0
 10
-44.0729
 20
294.147
 11
-44.4379
 21
294.053
  0
LINE
  8
0
 10
-44.4379
 20
294.053
 11
-44.8116
 21
294.006
  0
LINE
  8
0
 10
-44.8116
 20
294.006
 11
-51.8905
 21
294.006
  0
LINE
  8
0
 10
-51.8905
 20
294.006
 11
-51.8429
 21
293.757
  0
LINE
  8
0
 10
-51.8429
 20
293.757
 11
-51.6489
 21
293.159
  0
LINE
  8
0
 10
-51.6489
 20
293.159
 11
-51.3815
 21
292.591
  0
LINE
  8
0
 10
-51.3815
 20
292.591
 11
-51.0451
 21
292.061
  0
LINE
  8
0
 10
-51.0451
 20
292.061
 11
-50.6448
 21
291.577
  0
LINE
  8
0
 10
-50.6448
 20
291.577
 11
-50.1871
 21
291.147
  0
LINE
  8
0
 10
-50.1871
 20
291.147
 11
-49.6791
 21
290.778
  0
LINE
  8
0
 10
-49.6791
 20
290.778
 11
-49.1289
 21
290.476
  0
LINE
  8
0
 10
-49.1289
 20
290.476
 11
-48.5451
 21
290.245
  0
LINE
  8
0
 10
-48.5451
 20
290.245
 11
-47.9369
 21
290.089
  0
LINE
  8
0
 10
-47.9369
 20
290.089
 11
-47.3139
 21
290.01
  0
LINE
  8
0
 10
-47.3139
 20
290.01
 11
47.3139
 21
290.01
  0
LINE
  8
0
 10
47.3139
 20
290.01
 11
47.9369
 21
290.089
  0
LINE
  8
0
 10
44.8116
 20
294.006
 11
44.4379
 21
294.053
  0
LINE
  8
0
 10
44.4379
 20
294.053
 11
44.0729
 21
294.147
  0
LINE
  8
0
 10
44.0729
 20
294.147
 11
43.7227
 21
294.286
  0
LINE
  8
0
 10
43.7227
 20
294.286
 11
43.3925
 21
294.467
  0
LINE
  8
0
 10
43.3925
 20
294.467
 11
43.0877
 21
294.688
  0
LINE
  8
0
 10
43.0877
 20
294.688
 11
42.8131
 21
294.946
  0
LINE
  8
0
 10
42.8131
 20
294.946
 11
42.5729
 21
295.237
  0
LINE
  8
0
 10
42.5729
 20
295.237
 11
42.3711
 21
295.555
  0
LINE
  8
0
 10
42.3711
 20
295.555
 11
42.2107
 21
295.896
  0
LINE
  8
0
 10
42.2107
 20
295.896
 11
42.0942
 21
296.254
  0
LINE
  8
0
 10
42.0942
 20
296.254
 11
42.0237
 21
296.624
  0
LINE
  8
0
 10
42.0237
 20
296.624
 11
42
 21
297
  0
LINE
  8
0
 10
42
 20
297
 11
42.0237
 21
297.376
  0
LINE
  8
0
 10
42.0237
 20
297.376
 11
42.0942
 21
297.746
  0
LINE
  8
0
 10
42.0942
 20
297.746
 11
42.2107
 21
298.104
  0
LINE
  8
0
 10
42.2107
 20
298.104
 11
42.3711
 21
298.445
  0
LINE
  8
0
 10
42.3711
 20
298.445
 11
42.5729
 21
298.763
  0
LINE
  8
0
 10
42.5729
 20
298.763
 11
42.8131
 21
299.054
  0
LINE
  8
0
 10
42.8131
 20
299.054
 11
43.0877
 21
299.312
  0
LINE
  8
0
 10
43.0877
 20
299.312
 11
43.3925
 21
299.533
  0
LINE
  8
0
 10
43.3925
 20
299.533
 11
43.7227
 21
299.714
  0
LINE
  8
0
 10
43.7227
 20
299.714
 11
44.0729
 21
299.853
  0
LINE
  8
0
 10
44.0729
 20
299.853
 11
44.4379
 21
299.947
  0
LINE
  8
0
 10
44.4379
 20
299.947
 11
44.8116
 21
299.994
  0
LINE
  8
0
 10
44.8116
 20
299.994
 11
45.1884
 21
299.994
  0
LINE
  8
0
 10
45.1884
 20
299.994
 11
45.5621
 21
299.947
  0
LINE
  8
0
 10
45.5621
 20
299.947
 11
45.927
 21
299.853
  0
LINE
  8
0
 10
45.927
 20
299.853
 11
46.2773
 21
299.714
  0
LINE
  8
0
 10
46.2773
 20
299.714
 11
46.6075
 21
299.533
  0
LINE
  8
0
 10
46.6075
 20
299.533
 11
46.9123
 21
299.312
  0
LINE
  8
0
 10
46.9123
 20
299.312
 11
47.1869
 21
299.054
  0
LINE
  8
0
 10
47.1869
 20
299.054
 11
47.427
 21
298.763
  0
LINE
  8
0
 10
47.427
 20
298.763
 11
47.6289
 21
298.445
  0
LINE
  8
0
 10
47.6289
 20
298.445
 11
47.7893
 21
298.104
  0
LINE
  8
0
 10
47.7893
 20
298.104
 11
47.9057
 21
297.746
  0
LINE
  8
0
 10
47.9057
 20
297.746
 11
47.9763
 21
297.376
  0
LINE
  8
0
 10
47.9763
 20
297.376
 11
48
 21
297
  0
LINE
  8
0
 10
48
 20
297
 11
47.9763
 21
296.624
  0
LINE
  8
0
 10
47.9763
 20
296.624
 11
47.9057
 21
296.254
  0
LINE
  8
0
 10
47.9057
 20
296.254
 11
47.7893
 21
295.896
  0
LINE
  8
0
 10
47.7893
 20
295.896
 11
47.6289
 21
295.555
  0
LINE
  8
0
 10
47.6289
 20
295.555
 11
47.427
 21
295.237
  0
LINE
  8
0
 10
47.427
 20
295.237
 11
47.1869
 21
294.946
  0
LINE
  8
0
 10
47.1869
 20
294.946
 11
46.9123
 21
294.688
  0
LINE
  8
0
 10
46.9123
 20
294.688
 11
46.6075
 21
294.467
  0
LINE
  8
0
 10
46.6075
 20
294.467
 11
46.2773
 21
294.286
  0
LINE
  8
0
 10
46.2773
 20
294.286
 11
45.927
 21
294.147
  0
LINE
  8
0
 10
45.927
 20
294.147
 11
45.5621
 21
294.053
  0
LINE
  8
0
 10
45.5621
 20
294.053
 11
45.1884
 21
294.006
  0
LINE
  8
0
 10
45.1884
 20
294.006
 11
44.8116
 21
294.006
  0
LINE
  8
0
 10
42
 20
393.99
 11
31.1312
 21
393.99
  0
LINE
  8
0
 10
31.1312
 20
393.99
 11
34.1213
 21
391
  0
LINE
  8
0
 10
34.1213
 20
391
 11
42
 21
391
  0
LINE
  8
0
 10
42
 20
391
 11
42
 21
393.99
  0
ENDSEC
  0
SECTION
  2
OBJECTS
  0
DICTIONARY
  0
ENDSEC
  0
EOF
