<?xml version="1.0" standalone="no"?>
<!DOCTYPE svg PUBLIC "-//W3C//DTD SVG 1.1//EN" "http://www.w3.org/Graphics/SVG/1.1/DTD/svg11.dtd">
<svg width="16mm" height="340mm" viewBox="-8 -605 16 340" xmlns="http://www.w3.org/2000/svg" version="1.1">
<title>OpenSCAD Model</title>
<path d="
M 3.4369,-439.589 L 4.04507,-439.745 L 4.62889,-439.976 L 5.17912,-440.278 L 5.68712,-440.647 L 6.14484,-441.077
 L 6.54507,-441.561 L 6.88153,-442.091 L 7.14888,-442.659 L 7.34291,-443.257 L 7.46057,-443.873 L 7.5,-444.5
 L 7.5,-599.5 L 7.46057,-600.127 L 7.34291,-600.743 L 7.14888,-601.341 L 6.88153,-601.909 L 6.54507,-602.439
 L 6.14484,-602.923 L 5.68712,-603.353 L 5.17912,-603.722 L 4.62889,-604.024 L 4.04507,-604.255 L 3.4369,-604.411
 L 2.81395,-604.49 L -2.81395,-604.49 L -3.4369,-604.411 L -4.04507,-604.255 L -4.62889,-604.024 L -5.17912,-603.722
 L -5.68712,-603.353 L -6.14484,-602.923 L -6.54507,-602.439 L -6.88153,-601.909 L -7.14888,-601.341 L -7.34291,-600.743
 L -7.46057,-600.127 L -7.5,-599.5 L -7.5,-444.5 L -7.46057,-443.873 L -7.34291,-443.257 L -7.14888,-442.659
 L -6.88153,-442.091 L -6.54507,-441.561 L -6.14484,-441.077 L -5.68712,-440.647 L -5.17912,-440.278 L -4.62889,-439.976
 L -4.04507,-439.745 L -3.4369,-439.589 L -2.81395,-439.51 L 2.81395,-439.51 z
M -2.19545,-441.893 L -2.5833,-441.942 L -2.96194,-442.039 L -3.32541,-442.183 L -3.66798,-442.372 L -3.98424,-442.601
 L -4.26921,-442.869 L -4.5184,-443.17 L -4.72786,-443.5 L -4.89432,-443.854 L -5.01512,-444.226 L -5.08836,-444.61
 L -5.11292,-445 L -5.11292,-599 L -5.08836,-599.39 L -5.01512,-599.774 L -4.89432,-600.146 L -4.72786,-600.5
 L -4.5184,-600.83 L -4.26921,-601.131 L -3.98424,-601.399 L -3.66798,-601.628 L -3.32541,-601.817 L -2.96194,-601.961
 L -2.5833,-602.058 L -2.19545,-602.107 L 2.19545,-602.107 L 2.5833,-602.058 L 2.96194,-601.961 L 3.32541,-601.817
 L 3.66798,-601.628 L 3.98424,-601.399 L 4.26921,-601.131 L 4.5184,-600.83 L 4.72786,-600.5 L 4.89432,-600.146
 L 5.01512,-599.774 L 5.08836,-599.39 L 5.11292,-599 L 5.11292,-445 L 5.08836,-444.61 L 5.01512,-444.226
 L 4.89432,-443.854 L 4.72786,-443.5 L 4.5184,-443.17 L 4.26921,-442.869 L 3.98424,-442.601 L 3.66798,-442.372
 L 3.32541,-442.183 L 2.96194,-442.039 L 2.5833,-441.942 L 2.19545,-441.893 z
M 3.4369,-265.589 L 4.04507,-265.745 L 4.62889,-265.976 L 5.17912,-266.278 L 5.68712,-266.647 L 6.14484,-267.077
 L 6.54507,-267.561 L 6.88153,-268.091 L 7.14888,-268.659 L 7.34291,-269.257 L 7.46057,-269.873 L 7.5,-270.5
 L 7.5,-425.5 L 7.46057,-426.127 L 7.34291,-426.743 L 7.14888,-427.341 L 6.88153,-427.909 L 6.54507,-428.439
 L 6.14484,-428.923 L 5.68712,-429.353 L 5.17912,-429.722 L 4.62889,-430.024 L 4.04507,-430.255 L 3.4369,-430.411
 L 2.81395,-430.49 L -2.81395,-430.49 L -3.4369,-430.411 L -4.04507,-430.255 L -4.62889,-430.024 L -5.17912,-429.722
 L -5.68712,-429.353 L -6.14484,-428.923 L -6.54507,-428.439 L -6.88153,-427.909 L -7.14888,-427.341 L -7.34291,-426.743
 L -7.46057,-426.127 L -7.5,-425.5 L -7.5,-270.5 L -7.46057,-269.873 L -7.34291,-269.257 L -7.14888,-268.659
 L -6.88153,-268.091 L -6.54507,-267.561 L -6.14484,-267.077 L -5.68712,-266.647 L -5.17912,-266.278 L -4.62889,-265.976
 L -4.04507,-265.745 L -3.4369,-265.589 L -2.81395,-265.51 L 2.81395,-265.51 z
M -0.134064,-420.869 L -0.400101,-420.903 L -0.659836,-420.969 L -0.909149,-421.068 L -1.14413,-421.197 L -1.36108,-421.355
 L -1.55655,-421.538 L -1.72748,-421.745 L -1.87117,-421.971 L -1.98534,-422.214 L -2.06821,-422.469 L -2.11845,-422.732
 L -2.13528,-423 L -2.11845,-423.268 L -2.06821,-423.531 L -1.98534,-423.786 L -1.87117,-424.029 L -1.72748,-424.255
 L -1.55655,-424.462 L -1.36108,-424.645 L -1.14413,-424.803 L -0.909149,-424.932 L -0.659836,-425.031 L -0.400101,-425.097
 L -0.134064,-425.131 L 0.134064,-425.131 L 0.400101,-425.097 L 0.659836,-425.031 L 0.909149,-424.932 L 1.14413,-424.803
 L 1.36108,-424.645 L 1.55655,-424.462 L 1.72748,-424.255 L 1.87117,-424.029 L 1.98534,-423.786 L 2.06821,-423.531
 L 2.11845,-423.268 L 2.13528,-423 L 2.11845,-422.732 L 2.06821,-422.469 L 1.98534,-422.214 L 1.87117,-421.971
 L 1.72748,-421.745 L 1.55655,-421.538 L 1.36108,-421.355 L 1.14413,-421.197 L 0.909149,-421.068 L 0.659836,-420.969
 L 0.400101,-420.903 L 0.134064,-420.869 z
M -0.134064,-270.869 L -0.400101,-270.903 L -0.659836,-270.969 L -0.909149,-271.068 L -1.14413,-271.197 L -1.36108,-271.355
 L -1.55655,-271.538 L -1.72748,-271.745 L -1.87117,-271.971 L -1.98534,-272.214 L -2.06821,-272.469 L -2.11845,-272.732
 L -2.13528,-273 L -2.11845,-273.268 L -2.06821,-273.531 L -1.98534,-273.786 L -1.87117,-274.029 L -1.72748,-274.255
 L -1.55655,-274.462 L -1.36108,-274.645 L -1.14413,-274.803 L -0.909149,-274.932 L -0.659836,-275.031 L -0.400101,-275.097
 L -0.134064,-275.131 L 0.134064,-275.131 L 0.400101,-275.097 L 0.659836,-275.031 L 0.909149,-274.932 L 1.14413,-274.803
 L 1.36108,-274.645 L 1.55655,-274.462 L 1.72748,-274.255 L 1.87117,-274.029 L 1.98534,-273.786 L 2.06821,-273.531
 L 2.11845,-273.268 L 2.13528,-273 L 2.11845,-272.732 L 2.06821,-272.469 L 1.98534,-272.214 L 1.87117,-271.971
 L 1.72748,-271.745 L 1.55655,-271.538 L 1.36108,-271.355 L 1.14413,-271.197 L 0.909149,-271.068 L 0.659836,-270.969
 L 0.400101,-270.903 L 0.134064,-270.869 z
" stroke="black" fill="lightgray" stroke-width="0.5"/>
</svg>
