<?xml version="1.0" standalone="no"?>
<!DOCTYPE svg PUBLIC "-//W3C//DTD SVG 1.1//EN" "http://www.w3.org/Graphics/SVG/1.1/DTD/svg11.dtd">
<svg width="74mm" height="74mm" viewBox="-37 -205 74 74" xmlns="http://www.w3.org/2000/svg" version="1.1">
<title>OpenSCAD Model</title>
<path d="
M 32.9369,-131.089 L 33.5451,-131.245 L 34.1289,-131.476 L 34.6791,-131.778 L 35.1871,-132.147 L 35.6448,-132.577
 L 36.0451,-133.061 L 36.3815,-133.591 L 36.6489,-134.159 L 36.8429,-134.757 L 36.9606,-135.373 L 37,-136
 L 37,-198 L 15.8664,-198 L 15.87,-197.998 L 13.7482,-197.998 L 13.6236,-197.982 L 13.502,-197.951
 L 13.3852,-197.905 L 13.2752,-197.844 L 13.1736,-197.771 L 13.082,-197.685 L 13.002,-197.588 L 12.9347,-197.482
 L 12.8812,-197.368 L 12.8424,-197.249 L 12.8189,-197.125 L 12.811,-197 L 12.8189,-196.875 L 12.8424,-196.751
 L 12.8812,-196.632 L 12.9347,-196.518 L 13.002,-196.412 L 13.082,-196.315 L 13.1736,-196.229 L 13.2752,-196.156
 L 13.3852,-196.095 L 13.502,-196.049 L 13.6236,-196.018 L 13.7482,-196.002 L 18.8738,-196.002 L 18.9984,-196.018
 L 19.12,-196.049 L 19.1226,-196.05 L 21.6724,-194.197 L 24.7849,-191.275 L 27.5066,-187.985 L 29.7944,-184.38
 L 31.6124,-180.516 L 32.9318,-176.455 L 33.7319,-172.261 L 34,-168 L 33.7319,-163.739 L 32.9318,-159.545
 L 31.6124,-155.484 L 29.7944,-151.62 L 27.5066,-148.015 L 24.7849,-144.725 L 21.6724,-141.803 L 18.2181,-139.293
 L 14.4765,-137.236 L 10.5066,-135.664 L 6.37096,-134.602 L 2.13487,-134.067 L -2.13487,-134.067 L -6.37096,-134.602
 L -10.5066,-135.664 L -14.4765,-137.236 L -18.2181,-139.293 L -21.6724,-141.803 L -24.7849,-144.725 L -27.5066,-148.015
 L -29.7944,-151.62 L -31.6124,-155.484 L -32.9318,-159.545 L -33.7319,-163.739 L -34,-168 L -33.7319,-172.261
 L -32.9318,-176.455 L -31.6124,-180.516 L -29.7944,-184.38 L -27.5066,-187.985 L -24.7849,-191.275 L -21.6724,-194.197
 L -18.2181,-196.707 L -14.4765,-198.764 L -10.5066,-200.336 L -6.37096,-201.398 L -2.13487,-201.933 L 0,-201.933
 L 0,-202 L 17,-202 L 14.0099,-204.99 L -4.5,-204.99 L -4.5,-204 L -36.5,-204
 L -36.5,-205 L -37,-205 L -37,-200.994 L -29.8116,-200.994 L -29.4379,-200.947 L -29.0729,-200.853
 L -28.7227,-200.714 L -28.3925,-200.533 L -28.0877,-200.312 L -27.8131,-200.054 L -27.5729,-199.763 L -27.3711,-199.445
 L -27.2107,-199.104 L -27.0942,-198.746 L -27.0237,-198.376 L -27,-198 L -27.0237,-197.624 L -27.0942,-197.254
 L -27.2107,-196.896 L -27.3711,-196.555 L -27.5729,-196.237 L -27.8131,-195.946 L -28.0877,-195.688 L -28.3925,-195.467
 L -28.7227,-195.286 L -29.0729,-195.147 L -29.4379,-195.053 L -29.8116,-195.006 L -37,-195.006 L -37,-140.994
 L -29.8116,-140.994 L -29.4379,-140.947 L -29.0729,-140.853 L -28.7227,-140.714 L -28.3925,-140.533 L -28.0877,-140.312
 L -27.8131,-140.054 L -27.5729,-139.763 L -27.3711,-139.445 L -27.2107,-139.104 L -27.0942,-138.746 L -27.0237,-138.376
 L -27,-138 L -27.0237,-137.624 L -27.0942,-137.254 L -27.2107,-136.896 L -27.3711,-136.555 L -27.5729,-136.237
 L -27.8131,-135.946 L -28.0877,-135.688 L -28.3925,-135.467 L -28.7227,-135.286 L -29.0729,-135.147 L -29.4379,-135.053
 L -29.8116,-135.006 L -36.8905,-135.006 L -36.8429,-134.757 L -36.6489,-134.159 L -36.3815,-133.591 L -36.0451,-133.061
 L -35.6448,-132.577 L -35.1871,-132.147 L -34.6791,-131.778 L -34.1289,-131.476 L -33.5451,-131.245 L -32.9369,-131.089
 L -32.3139,-131.01 L 32.3139,-131.01 z
M 29.8116,-135.006 L 29.4379,-135.053 L 29.0729,-135.147 L 28.7227,-135.286 L 28.3925,-135.467 L 28.0877,-135.688
 L 27.8131,-135.946 L 27.5729,-136.237 L 27.3711,-136.555 L 27.2107,-136.896 L 27.0942,-137.254 L 27.0237,-137.624
 L 27,-138 L 27.0237,-138.376 L 27.0942,-138.746 L 27.2107,-139.104 L 27.3711,-139.445 L 27.5729,-139.763
 L 27.8131,-140.054 L 28.0877,-140.312 L 28.3925,-140.533 L 28.7227,-140.714 L 29.0729,-140.853 L 29.4379,-140.947
 L 29.8116,-140.994 L 30.1884,-140.994 L 30.5621,-140.947 L 30.927,-140.853 L 31.2773,-140.714 L 31.6075,-140.533
 L 31.9123,-140.312 L 32.1869,-140.054 L 32.427,-139.763 L 32.6289,-139.445 L 32.7893,-139.104 L 32.9057,-138.746
 L 32.9763,-138.376 L 33,-138 L 32.9763,-137.624 L 32.9057,-137.254 L 32.7893,-136.896 L 32.6289,-136.555
 L 32.427,-136.237 L 32.1869,-135.946 L 31.9123,-135.688 L 31.6075,-135.467 L 31.2773,-135.286 L 30.927,-135.147
 L 30.5621,-135.053 L 30.1884,-135.006 z
M 27,-204.99 L 16.1312,-204.99 L 19.1213,-202 L 27,-202 z
" stroke="black" fill="lightgray" stroke-width="0.5"/>
</svg>
