<?xml version="1.0" standalone="no"?>
<!DOCTYPE svg PUBLIC "-//W3C//DTD SVG 1.1//EN" "http://www.w3.org/Graphics/SVG/1.1/DTD/svg11.dtd">
<svg width="92mm" height="69mm" viewBox="-47 -93 92 69" xmlns="http://www.w3.org/2000/svg" version="1.1">
<title>OpenSCAD Model</title>
<path d="
M 40.9369,-63.0886 L 41.5451,-63.2447 L 42.1289,-63.4759 L 42.6791,-63.7784 L 43.1871,-64.1474 L 43.6448,-64.5773
 L 44.0451,-65.0611 L 44.3815,-65.5912 L 44.6489,-66.1594 L 44.8429,-66.7566 L 44.9606,-67.3733 L 45,-68
 L 45,-88 L 44.9606,-88.6267 L 44.8429,-89.2434 L 44.6489,-89.8406 L 44.3815,-90.4088 L 44.0451,-90.9389
 L 43.6448,-91.4227 L 43.1871,-91.8526 L 42.6791,-92.2216 L 42.1289,-92.5241 L 41.5451,-92.7553 L 40.9369,-92.9114
 L 40.3139,-92.9901 L -40.3139,-92.9901 L -40.9369,-92.9114 L -41.5451,-92.7553 L -42.1289,-92.5241 L -42.6791,-92.2216
 L -43.1871,-91.8526 L -43.5,-91.5587 L -43.5,-92.6148 L -46.5,-92.6148 L -46.5,-63.3852 L -43.5,-63.3852
 L -43.5,-64.4413 L -43.1871,-64.1474 L -42.6791,-63.7784 L -42.1289,-63.4759 L -41.5451,-63.2447 L -40.9369,-63.0886
 L -40.3139,-63.0099 L 40.3139,-63.0099 z
M 40.9369,-24.0886 L 41.5451,-24.2447 L 42.1289,-24.4759 L 42.6791,-24.7784 L 43.1871,-25.1474 L 43.6448,-25.5773
 L 44.0451,-26.0611 L 44.3815,-26.5912 L 44.6489,-27.1594 L 44.8429,-27.7566 L 44.9606,-28.3733 L 45,-29
 L 45,-49 L 44.9606,-49.6267 L 44.8429,-50.2434 L 44.6489,-50.8406 L 44.3815,-51.4088 L 44.0451,-51.9389
 L 43.6448,-52.4227 L 43.1871,-52.8526 L 42.6791,-53.2216 L 42.1289,-53.5241 L 41.5451,-53.7553 L 40.9369,-53.9114
 L 40.3139,-53.9901 L -40.3139,-53.9901 L -40.9369,-53.9114 L -41.5451,-53.7553 L -42.1289,-53.5241 L -42.6791,-53.2216
 L -43.1871,-52.8526 L -43.6448,-52.4227 L -44.0451,-51.9389 L -44.3815,-51.4088 L -44.6489,-50.8406 L -44.8429,-50.2434
 L -44.9,-49.9442 L -46.5,-49.9442 L -46.5,-28.0558 L -44.9,-28.0558 L -44.8429,-27.7566 L -44.6489,-27.1594
 L -44.3815,-26.5912 L -44.0451,-26.0611 L -43.6448,-25.5773 L -43.1871,-25.1474 L -42.6791,-24.7784 L -42.1289,-24.4759
 L -41.5451,-24.2447 L -40.9369,-24.0886 L -40.3139,-24.0099 L 40.3139,-24.0099 z
M -37.613,-44.7036 L -37.8373,-44.7319 L -38.0562,-44.7881 L -38.2664,-44.8713 L -38.4645,-44.9802 L -38.6474,-45.1131
 L -38.8121,-45.2678 L -38.9562,-45.442 L -39.0773,-45.6328 L -39.1736,-45.8374 L -39.2434,-46.0524 L -39.2858,-46.2744
 L -39.3,-46.5 L -39.2858,-46.7256 L -39.2434,-46.9476 L -39.1736,-47.1626 L -39.0773,-47.3671 L -38.9562,-47.558
 L -38.8121,-47.7322 L -38.6474,-47.8869 L -38.4645,-48.0198 L -38.2664,-48.1287 L -38.0562,-48.2119 L -37.8373,-48.2681
 L -37.613,-48.2964 L -37.387,-48.2964 L -37.1627,-48.2681 L -36.9438,-48.2119 L -36.7336,-48.1287 L -36.5355,-48.0198
 L -36.3526,-47.8869 L -36.1879,-47.7322 L -36.0438,-47.558 L -35.9226,-47.3671 L -35.8264,-47.1626 L -35.7565,-46.9476
 L -35.7142,-46.7256 L -35.7,-46.5 L -35.7142,-46.2744 L -35.7565,-46.0524 L -35.8264,-45.8374 L -35.9226,-45.6328
 L -36.0438,-45.442 L -36.1879,-45.2678 L -36.3526,-45.1131 L -36.5355,-44.9802 L -36.7336,-44.8713 L -36.9438,-44.7881
 L -37.1627,-44.7319 L -37.387,-44.7036 z
M 37.387,-44.7036 L 37.1627,-44.7319 L 36.9438,-44.7881 L 36.7336,-44.8713 L 36.5355,-44.9802 L 36.3526,-45.1131
 L 36.1879,-45.2678 L 36.0438,-45.442 L 35.9226,-45.6328 L 35.8264,-45.8374 L 35.7565,-46.0524 L 35.7142,-46.2744
 L 35.7,-46.5 L 35.7142,-46.7256 L 35.7565,-46.9476 L 35.8264,-47.1626 L 35.9226,-47.3671 L 36.0438,-47.558
 L 36.1879,-47.7322 L 36.3526,-47.8869 L 36.5355,-48.0198 L 36.7336,-48.1287 L 36.9438,-48.2119 L 37.1627,-48.2681
 L 37.387,-48.2964 L 37.613,-48.2964 L 37.8373,-48.2681 L 38.0562,-48.2119 L 38.2664,-48.1287 L 38.4645,-48.0198
 L 38.6474,-47.8869 L 38.8121,-47.7322 L 38.9562,-47.558 L 39.0773,-47.3671 L 39.1736,-47.1626 L 39.2434,-46.9476
 L 39.2858,-46.7256 L 39.3,-46.5 L 39.2858,-46.2744 L 39.2434,-46.0524 L 39.1736,-45.8374 L 39.0773,-45.6328
 L 38.9562,-45.442 L 38.8121,-45.2678 L 38.6474,-45.1131 L 38.4645,-44.9802 L 38.2664,-44.8713 L 38.0562,-44.7881
 L 37.8373,-44.7319 L 37.613,-44.7036 z
M -37.613,-29.7036 L -37.8373,-29.7319 L -38.0562,-29.7881 L -38.2664,-29.8713 L -38.4645,-29.9802 L -38.6474,-30.1131
 L -38.8121,-30.2678 L -38.9562,-30.442 L -39.0773,-30.6329 L -39.1736,-30.8374 L -39.2434,-31.0524 L -39.2858,-31.2744
 L -39.3,-31.5 L -39.2858,-31.7256 L -39.2434,-31.9476 L -39.1736,-32.1626 L -39.0773,-32.3672 L -38.9562,-32.558
 L -38.8121,-32.7322 L -38.6474,-32.8869 L -38.4645,-33.0198 L -38.2664,-33.1287 L -38.0562,-33.2119 L -37.8373,-33.2681
 L -37.613,-33.2964 L -37.387,-33.2964 L -37.1627,-33.2681 L -36.9438,-33.2119 L -36.7336,-33.1287 L -36.5355,-33.0198
 L -36.3526,-32.8869 L -36.1879,-32.7322 L -36.0438,-32.558 L -35.9226,-32.3672 L -35.8264,-32.1626 L -35.7565,-31.9476
 L -35.7142,-31.7256 L -35.7,-31.5 L -35.7142,-31.2744 L -35.7565,-31.0524 L -35.8264,-30.8374 L -35.9226,-30.6329
 L -36.0438,-30.442 L -36.1879,-30.2678 L -36.3526,-30.1131 L -36.5355,-29.9802 L -36.7336,-29.8713 L -36.9438,-29.7881
 L -37.1627,-29.7319 L -37.387,-29.7036 z
M 37.387,-29.7036 L 37.1627,-29.7319 L 36.9438,-29.7881 L 36.7336,-29.8713 L 36.5355,-29.9802 L 36.3526,-30.1131
 L 36.1879,-30.2678 L 36.0438,-30.442 L 35.9226,-30.6329 L 35.8264,-30.8374 L 35.7565,-31.0524 L 35.7142,-31.2744
 L 35.7,-31.5 L 35.7142,-31.7256 L 35.7565,-31.9476 L 35.8264,-32.1626 L 35.9226,-32.3672 L 36.0438,-32.558
 L 36.1879,-32.7322 L 36.3526,-32.8869 L 36.5355,-33.0198 L 36.7336,-33.1287 L 36.9438,-33.2119 L 37.1627,-33.2681
 L 37.387,-33.2964 L 37.613,-33.2964 L 37.8373,-33.2681 L 38.0562,-33.2119 L 38.2664,-33.1287 L 38.4645,-33.0198
 L 38.6474,-32.8869 L 38.8121,-32.7322 L 38.9562,-32.558 L 39.0773,-32.3672 L 39.1736,-32.1626 L 39.2434,-31.9476
 L 39.2858,-31.7256 L 39.3,-31.5 L 39.2858,-31.2744 L 39.2434,-31.0524 L 39.1736,-30.8374 L 39.0773,-30.6329
 L 38.9562,-30.442 L 38.8121,-30.2678 L 38.6474,-30.1131 L 38.4645,-29.9802 L 38.2664,-29.8713 L 38.0562,-29.7881
 L 37.8373,-29.7319 L 37.613,-29.7036 z
" stroke="black" fill="lightgray" stroke-width="0.5"/>
</svg>
