<?xml version="1.0" standalone="no"?>
<!DOCTYPE svg PUBLIC "-//W3C//DTD SVG 1.1//EN" "http://www.w3.org/Graphics/SVG/1.1/DTD/svg11.dtd">
<svg width="30mm" height="424mm" viewBox="-15 -788 30 424" xmlns="http://www.w3.org/2000/svg" version="1.1">
<title>OpenSCAD Model</title>
<path d="
M 10.9369,-652.589 L 11.5451,-652.745 L 12.1289,-652.976 L 12.6791,-653.278 L 13.1871,-653.647 L 13.6448,-654.077
 L 14.0451,-654.561 L 14.3815,-655.091 L 14.6489,-655.659 L 14.8429,-656.257 L 14.9606,-656.873 L 15,-657.5
 L 15,-782.5 L 14.9606,-783.127 L 14.8429,-783.743 L 14.6489,-784.341 L 14.3815,-784.909 L 14.0451,-785.439
 L 13.6448,-785.923 L 13.1871,-786.353 L 12.6791,-786.722 L 12.1289,-787.024 L 11.5451,-787.255 L 10.9369,-787.411
 L 10.3139,-787.49 L -10.3139,-787.49 L -10.9369,-787.411 L -11.5451,-787.255 L -12.1289,-787.024 L -12.6791,-786.722
 L -13.1871,-786.353 L -13.6448,-785.923 L -14.0451,-785.439 L -14.3815,-784.909 L -14.6489,-784.341 L -14.8429,-783.743
 L -14.9606,-783.127 L -15,-782.5 L -15,-657.5 L -14.9606,-656.873 L -14.8429,-656.257 L -14.6489,-655.659
 L -14.3815,-655.091 L -14.0451,-654.561 L -13.6448,-654.077 L -13.1871,-653.647 L -12.6791,-653.278 L -12.1289,-652.976
 L -11.5451,-652.745 L -10.9369,-652.589 L -10.3139,-652.51 L 10.3139,-652.51 z
M -9.75116,-654.008 L -10.2495,-654.071 L -10.7361,-654.196 L -11.2031,-654.381 L -11.6433,-654.623 L -12.0497,-654.918
 L -12.4159,-655.262 L -12.7361,-655.649 L -13.0052,-656.073 L -13.2191,-656.528 L -13.3743,-657.005 L -13.4684,-657.499
 L -13.5,-658 L -13.5,-782 L -13.4684,-782.501 L -13.3743,-782.995 L -13.2191,-783.472 L -13.0052,-783.927
 L -12.7361,-784.351 L -12.4159,-784.738 L -12.0497,-785.082 L -11.6433,-785.377 L -11.2031,-785.619 L -10.7361,-785.804
 L -10.2495,-785.929 L -9.75116,-785.992 L 9.75116,-785.992 L 10.2495,-785.929 L 10.7361,-785.804 L 11.2031,-785.619
 L 11.6433,-785.377 L 12.0497,-785.082 L 12.4159,-784.738 L 12.7361,-784.351 L 13.0052,-783.927 L 13.2191,-783.472
 L 13.3743,-782.995 L 13.4684,-782.501 L 13.5,-782 L 13.5,-658 L 13.4684,-657.499 L 13.3743,-657.005
 L 13.2191,-656.528 L 13.0052,-656.073 L 12.7361,-655.649 L 12.4159,-655.262 L 12.0497,-654.918 L 11.6433,-654.623
 L 11.2031,-654.381 L 10.7361,-654.196 L 10.2495,-654.071 L 9.75116,-654.008 z
M 10.9369,-508.589 L 11.5451,-508.745 L 12.1289,-508.976 L 12.6791,-509.278 L 13.1871,-509.647 L 13.6448,-510.077
 L 14.0451,-510.561 L 14.3815,-511.091 L 14.6489,-511.659 L 14.8429,-512.257 L 14.9606,-512.873 L 15,-513.5
 L 15,-638.5 L 14.9606,-639.127 L 14.8429,-639.743 L 14.6489,-640.341 L 14.3815,-640.909 L 14.0451,-641.439
 L 13.6448,-641.923 L 13.1871,-642.353 L 12.6791,-642.722 L 12.1289,-643.024 L 11.5451,-643.255 L 10.9369,-643.411
 L 10.3139,-643.49 L -10.3139,-643.49 L -10.9369,-643.411 L -11.5451,-643.255 L -12.1289,-643.024 L -12.6791,-642.722
 L -13.1871,-642.353 L -13.6448,-641.923 L -14.0451,-641.439 L -14.3815,-640.909 L -14.6489,-640.341 L -14.8429,-639.743
 L -14.9606,-639.127 L -15,-638.5 L -15,-513.5 L -14.9606,-512.873 L -14.8429,-512.257 L -14.6489,-511.659
 L -14.3815,-511.091 L -14.0451,-510.561 L -13.6448,-510.077 L -13.1871,-509.647 L -12.6791,-509.278 L -12.1289,-508.976
 L -11.5451,-508.745 L -10.9369,-508.589 L -10.3139,-508.51 L 10.3139,-508.51 z
M -9.69545,-510.893 L -10.0833,-510.942 L -10.4619,-511.039 L -10.8254,-511.183 L -11.168,-511.372 L -11.4842,-511.601
 L -11.7692,-511.869 L -12.0184,-512.17 L -12.2279,-512.5 L -12.3943,-512.854 L -12.5151,-513.226 L -12.5884,-513.61
 L -12.6129,-514 L -12.6129,-638 L -12.5884,-638.39 L -12.5151,-638.774 L -12.3943,-639.146 L -12.2279,-639.5
 L -12.0184,-639.83 L -11.7692,-640.131 L -11.4842,-640.399 L -11.168,-640.628 L -10.8254,-640.817 L -10.4619,-640.961
 L -10.0833,-641.058 L -9.69545,-641.107 L 9.69545,-641.107 L 10.0833,-641.058 L 10.4619,-640.961 L 10.8254,-640.817
 L 11.168,-640.628 L 11.4842,-640.399 L 11.7692,-640.131 L 12.0184,-639.83 L 12.2279,-639.5 L 12.3943,-639.146
 L 12.5151,-638.774 L 12.5884,-638.39 L 12.6129,-638 L 12.6129,-514 L 12.5884,-513.61 L 12.5151,-513.226
 L 12.3943,-512.854 L 12.2279,-512.5 L 12.0184,-512.17 L 11.7692,-511.869 L 11.4842,-511.601 L 11.168,-511.372
 L 10.8254,-511.183 L 10.4619,-511.039 L 10.0833,-510.942 L 9.69545,-510.893 z
M 10.9369,-364.589 L 11.5451,-364.745 L 12.1289,-364.976 L 12.6791,-365.278 L 13.1871,-365.647 L 13.6448,-366.077
 L 14.0451,-366.561 L 14.3815,-367.091 L 14.6489,-367.659 L 14.8429,-368.257 L 14.9606,-368.873 L 15,-369.5
 L 15,-494.5 L 14.9606,-495.127 L 14.8429,-495.743 L 14.6489,-496.341 L 14.3815,-496.909 L 14.0451,-497.439
 L 13.6448,-497.923 L 13.1871,-498.353 L 12.6791,-498.722 L 12.1289,-499.024 L 11.5451,-499.255 L 10.9369,-499.411
 L 10.3139,-499.49 L -10.3139,-499.49 L -10.9369,-499.411 L -11.5451,-499.255 L -12.1289,-499.024 L -12.6791,-498.722
 L -13.1871,-498.353 L -13.6448,-497.923 L -14.0451,-497.439 L -14.3815,-496.909 L -14.6489,-496.341 L -14.8429,-495.743
 L -14.9606,-495.127 L -15,-494.5 L -15,-369.5 L -14.9606,-368.873 L -14.8429,-368.257 L -14.6489,-367.659
 L -14.3815,-367.091 L -14.0451,-366.561 L -13.6448,-366.077 L -13.1871,-365.647 L -12.6791,-365.278 L -12.1289,-364.976
 L -11.5451,-364.745 L -10.9369,-364.589 L -10.3139,-364.51 L 10.3139,-364.51 z
M 7.36592,-489.869 L 7.09988,-489.903 L 6.84015,-489.969 L 6.59084,-490.068 L 6.35585,-490.197 L 6.1389,-490.355
 L 5.94344,-490.538 L 5.77251,-490.745 L 5.62881,-490.971 L 5.51465,-491.214 L 5.43178,-491.469 L 5.38153,-491.732
 L 5.3647,-492 L 5.38153,-492.268 L 5.43178,-492.531 L 5.51465,-492.786 L 5.62881,-493.029 L 5.77251,-493.255
 L 5.94344,-493.462 L 6.1389,-493.645 L 6.35585,-493.803 L 6.59084,-493.932 L 6.84015,-494.031 L 7.09988,-494.097
 L 7.36592,-494.131 L 7.63406,-494.131 L 7.9001,-494.097 L 8.15984,-494.031 L 8.40915,-493.932 L 8.64413,-493.803
 L 8.86108,-493.645 L 9.05655,-493.462 L 9.22748,-493.255 L 9.37117,-493.029 L 9.48534,-492.786 L 9.56821,-492.531
 L 9.61845,-492.268 L 9.63528,-492 L 9.61845,-491.732 L 9.56821,-491.469 L 9.48534,-491.214 L 9.37117,-490.971
 L 9.22748,-490.745 L 9.05655,-490.538 L 8.86108,-490.355 L 8.64413,-490.197 L 8.40915,-490.068 L 8.15984,-489.969
 L 7.9001,-489.903 L 7.63406,-489.869 z
M -7.63406,-489.869 L -7.9001,-489.903 L -8.15984,-489.969 L -8.40915,-490.068 L -8.64413,-490.197 L -8.86108,-490.355
 L -9.05655,-490.538 L -9.22748,-490.745 L -9.37117,-490.971 L -9.48534,-491.214 L -9.56821,-491.469 L -9.61845,-491.732
 L -9.63528,-492 L -9.61845,-492.268 L -9.56821,-492.531 L -9.48534,-492.786 L -9.37117,-493.029 L -9.22748,-493.255
 L -9.05655,-493.462 L -8.86108,-493.645 L -8.64413,-493.803 L -8.40915,-493.932 L -8.15984,-494.031 L -7.9001,-494.097
 L -7.63406,-494.131 L -7.36592,-494.131 L -7.09988,-494.097 L -6.84015,-494.031 L -6.59084,-493.932 L -6.35585,-493.803
 L -6.1389,-493.645 L -5.94344,-493.462 L -5.77251,-493.255 L -5.62881,-493.029 L -5.51465,-492.786 L -5.43178,-492.531
 L -5.38153,-492.268 L -5.3647,-492 L -5.38153,-491.732 L -5.43178,-491.469 L -5.51465,-491.214 L -5.62881,-490.971
 L -5.77251,-490.745 L -5.94344,-490.538 L -6.1389,-490.355 L -6.35585,-490.197 L -6.59084,-490.068 L -6.84015,-489.969
 L -7.09988,-489.903 L -7.36592,-489.869 z
M 7.36592,-369.869 L 7.09988,-369.903 L 6.84015,-369.969 L 6.59084,-370.068 L 6.35585,-370.197 L 6.1389,-370.355
 L 5.94344,-370.538 L 5.77251,-370.745 L 5.62881,-370.971 L 5.51465,-371.214 L 5.43178,-371.469 L 5.38153,-371.732
 L 5.3647,-372 L 5.38153,-372.268 L 5.43178,-372.531 L 5.51465,-372.786 L 5.62881,-373.029 L 5.77251,-373.255
 L 5.94344,-373.462 L 6.1389,-373.645 L 6.35585,-373.803 L 6.59084,-373.932 L 6.84015,-374.031 L 7.09988,-374.097
 L 7.36592,-374.131 L 7.63406,-374.131 L 7.9001,-374.097 L 8.15984,-374.031 L 8.40915,-373.932 L 8.64413,-373.803
 L 8.86108,-373.645 L 9.05655,-373.462 L 9.22748,-373.255 L 9.37117,-373.029 L 9.48534,-372.786 L 9.56821,-372.531
 L 9.61845,-372.268 L 9.63528,-372 L 9.61845,-371.732 L 9.56821,-371.469 L 9.48534,-371.214 L 9.37117,-370.971
 L 9.22748,-370.745 L 9.05655,-370.538 L 8.86108,-370.355 L 8.64413,-370.197 L 8.40915,-370.068 L 8.15984,-369.969
 L 7.9001,-369.903 L 7.63406,-369.869 z
M -7.63406,-369.869 L -7.9001,-369.903 L -8.15984,-369.969 L -8.40915,-370.068 L -8.64413,-370.197 L -8.86108,-370.355
 L -9.05655,-370.538 L -9.22748,-370.745 L -9.37117,-370.971 L -9.48534,-371.214 L -9.56821,-371.469 L -9.61845,-371.732
 L -9.63528,-372 L -9.61845,-372.268 L -9.56821,-372.531 L -9.48534,-372.786 L -9.37117,-373.029 L -9.22748,-373.255
 L -9.05655,-373.462 L -8.86108,-373.645 L -8.64413,-373.803 L -8.40915,-373.932 L -8.15984,-374.031 L -7.9001,-374.097
 L -7.63406,-374.131 L -7.36592,-374.131 L -7.09988,-374.097 L -6.84015,-374.031 L -6.59084,-373.932 L -6.35585,-373.803
 L -6.1389,-373.645 L -5.94344,-373.462 L -5.77251,-373.255 L -5.62881,-373.029 L -5.51465,-372.786 L -5.43178,-372.531
 L -5.38153,-372.268 L -5.3647,-372 L -5.38153,-371.732 L -5.43178,-371.469 L -5.51465,-371.214 L -5.62881,-370.971
 L -5.77251,-370.745 L -5.94344,-370.538 L -6.1389,-370.355 L -6.35585,-370.197 L -6.59084,-370.068 L -6.84015,-369.969
 L -7.09988,-369.903 L -7.36592,-369.869 z
" stroke="black" fill="lightgray" stroke-width="0.5"/>
</svg>
