<?xml version="1.0" standalone="no"?>
<!DOCTYPE svg PUBLIC "-//W3C//DTD SVG 1.1//EN" "http://www.w3.org/Graphics/SVG/1.1/DTD/svg11.dtd">
<svg width="46mm" height="198mm" viewBox="-23 -375 46 198" xmlns="http://www.w3.org/2000/svg" version="1.1">
<title>OpenSCAD Model</title>
<path d="
M 18.4369,-315.089 L 19.0451,-315.245 L 19.6289,-315.476 L 20.1791,-315.778 L 20.6871,-316.147 L 21.1448,-316.577
 L 21.5451,-317.061 L 21.8815,-317.591 L 22.1489,-318.159 L 22.3429,-318.757 L 22.4606,-319.373 L 22.5,-320
 L 22.5,-370 L 22.4606,-370.627 L 22.3429,-371.243 L 22.1489,-371.841 L 21.8815,-372.409 L 21.5451,-372.939
 L 21.1448,-373.423 L 20.6871,-373.853 L 20.1791,-374.222 L 19.6289,-374.524 L 19.0451,-374.755 L 18.4369,-374.911
 L 17.8139,-374.99 L -17.8139,-374.99 L -18.4369,-374.911 L -19.0451,-374.755 L -19.6289,-374.524 L -20.1791,-374.222
 L -20.6871,-373.853 L -21.1448,-373.423 L -21.5451,-372.939 L -21.8815,-372.409 L -22.1489,-371.841 L -22.3429,-371.243
 L -22.4606,-370.627 L -22.5,-370 L -22.5,-320 L -22.4606,-319.373 L -22.3429,-318.757 L -22.1489,-318.159
 L -21.8815,-317.591 L -21.5451,-317.061 L -21.1448,-316.577 L -20.6871,-316.147 L -20.1791,-315.778 L -19.6289,-315.476
 L -19.0451,-315.245 L -18.4369,-315.089 L -17.8139,-315.01 L 17.8139,-315.01 z
M -17.2512,-316.508 L -17.7495,-316.571 L -18.2361,-316.696 L -18.7031,-316.881 L -19.1433,-317.123 L -19.5497,-317.418
 L -19.9159,-317.762 L -20.2361,-318.149 L -20.5052,-318.573 L -20.7191,-319.028 L -20.8743,-319.505 L -20.9684,-319.999
 L -21,-320.5 L -21,-369.5 L -20.9684,-370.001 L -20.8743,-370.495 L -20.7191,-370.972 L -20.5052,-371.427
 L -20.2361,-371.851 L -19.9159,-372.238 L -19.5497,-372.582 L -19.1433,-372.877 L -18.7031,-373.119 L -18.2361,-373.304
 L -17.7495,-373.429 L -17.2512,-373.492 L 17.2512,-373.492 L 17.7495,-373.429 L 18.2361,-373.304 L 18.7031,-373.119
 L 19.1433,-372.877 L 19.5497,-372.582 L 19.9159,-372.238 L 20.2361,-371.851 L 20.5052,-371.427 L 20.7191,-370.972
 L 20.8743,-370.495 L 20.9684,-370.001 L 21,-369.5 L 21,-320.5 L 20.9684,-319.999 L 20.8743,-319.505
 L 20.7191,-319.028 L 20.5052,-318.573 L 20.2361,-318.149 L 19.9159,-317.762 L 19.5497,-317.418 L 19.1433,-317.123
 L 18.7031,-316.881 L 18.2361,-316.696 L 17.7495,-316.571 L 17.2512,-316.508 z
M 18.4369,-246.089 L 19.0451,-246.245 L 19.6289,-246.476 L 20.1791,-246.778 L 20.6871,-247.147 L 21.1448,-247.577
 L 21.5451,-248.061 L 21.8815,-248.591 L 22.1489,-249.159 L 22.3429,-249.757 L 22.4606,-250.373 L 22.5,-251
 L 22.5,-301 L 22.4606,-301.627 L 22.3429,-302.243 L 22.1489,-302.841 L 21.8815,-303.409 L 21.5451,-303.939
 L 21.1448,-304.423 L 20.6871,-304.853 L 20.1791,-305.222 L 19.6289,-305.524 L 19.0451,-305.755 L 18.4369,-305.911
 L 17.8139,-305.99 L -17.8139,-305.99 L -18.4369,-305.911 L -19.0451,-305.755 L -19.6289,-305.524 L -20.1791,-305.222
 L -20.6871,-304.853 L -21.1448,-304.423 L -21.5451,-303.939 L -21.8815,-303.409 L -22.1489,-302.841 L -22.3429,-302.243
 L -22.4606,-301.627 L -22.5,-301 L -22.5,-251 L -22.4606,-250.373 L -22.3429,-249.757 L -22.1489,-249.159
 L -21.8815,-248.591 L -21.5451,-248.061 L -21.1448,-247.577 L -20.6871,-247.147 L -20.1791,-246.778 L -19.6289,-246.476
 L -19.0451,-246.245 L -18.4369,-246.089 L -17.8139,-246.01 L 17.8139,-246.01 z
M -17.1954,-248.393 L -17.5833,-248.442 L -17.9619,-248.539 L -18.3254,-248.683 L -18.668,-248.872 L -18.9842,-249.101
 L -19.2692,-249.369 L -19.5184,-249.67 L -19.7279,-250 L -19.8943,-250.354 L -20.0151,-250.726 L -20.0884,-251.11
 L -20.1129,-251.5 L -20.1129,-300.5 L -20.0884,-300.89 L -20.0151,-301.274 L -19.8943,-301.646 L -19.7279,-302
 L -19.5184,-302.33 L -19.2692,-302.631 L -18.9842,-302.899 L -18.668,-303.128 L -18.3254,-303.317 L -17.9619,-303.461
 L -17.5833,-303.558 L -17.1954,-303.607 L 17.1954,-303.607 L 17.5833,-303.558 L 17.9619,-303.461 L 18.3254,-303.317
 L 18.668,-303.128 L 18.9842,-302.899 L 19.2692,-302.631 L 19.5184,-302.33 L 19.7279,-302 L 19.8943,-301.646
 L 20.0151,-301.274 L 20.0884,-300.89 L 20.1129,-300.5 L 20.1129,-251.5 L 20.0884,-251.11 L 20.0151,-250.726
 L 19.8943,-250.354 L 19.7279,-250 L 19.5184,-249.67 L 19.2692,-249.369 L 18.9842,-249.101 L 18.668,-248.872
 L 18.3254,-248.683 L 17.9619,-248.539 L 17.5833,-248.442 L 17.1954,-248.393 z
M 18.4369,-177.089 L 19.0451,-177.245 L 19.6289,-177.476 L 20.1791,-177.778 L 20.6871,-178.147 L 21.1448,-178.577
 L 21.5451,-179.061 L 21.8815,-179.591 L 22.1489,-180.159 L 22.3429,-180.757 L 22.4606,-181.373 L 22.5,-182
 L 22.5,-232 L 22.4606,-232.627 L 22.3429,-233.243 L 22.1489,-233.841 L 21.8815,-234.409 L 21.5451,-234.939
 L 21.1448,-235.423 L 20.6871,-235.853 L 20.1791,-236.222 L 19.6289,-236.524 L 19.0451,-236.755 L 18.4369,-236.911
 L 17.8139,-236.99 L -17.8139,-236.99 L -18.4369,-236.911 L -19.0451,-236.755 L -19.6289,-236.524 L -20.1791,-236.222
 L -20.6871,-235.853 L -21.1448,-235.423 L -21.5451,-234.939 L -21.8815,-234.409 L -22.1489,-233.841 L -22.3429,-233.243
 L -22.4606,-232.627 L -22.5,-232 L -22.5,-182 L -22.4606,-181.373 L -22.3429,-180.757 L -22.1489,-180.159
 L -21.8815,-179.591 L -21.5451,-179.061 L -21.1448,-178.577 L -20.6871,-178.147 L -20.1791,-177.778 L -19.6289,-177.476
 L -19.0451,-177.245 L -18.4369,-177.089 L -17.8139,-177.01 L 17.8139,-177.01 z
M 14.8659,-227.369 L 14.5999,-227.403 L 14.3401,-227.469 L 14.0908,-227.568 L 13.8559,-227.697 L 13.6389,-227.855
 L 13.4434,-228.038 L 13.2725,-228.245 L 13.1288,-228.471 L 13.0146,-228.714 L 12.9318,-228.969 L 12.8815,-229.232
 L 12.8647,-229.5 L 12.8815,-229.768 L 12.9318,-230.031 L 13.0146,-230.286 L 13.1288,-230.529 L 13.2725,-230.755
 L 13.4434,-230.962 L 13.6389,-231.145 L 13.8559,-231.303 L 14.0908,-231.432 L 14.3401,-231.531 L 14.5999,-231.597
 L 14.8659,-231.631 L 15.1341,-231.631 L 15.4001,-231.597 L 15.6598,-231.531 L 15.9091,-231.432 L 16.1441,-231.303
 L 16.3611,-231.145 L 16.5565,-230.962 L 16.7275,-230.755 L 16.8712,-230.529 L 16.9853,-230.286 L 17.0682,-230.031
 L 17.1185,-229.768 L 17.1353,-229.5 L 17.1185,-229.232 L 17.0682,-228.969 L 16.9853,-228.714 L 16.8712,-228.471
 L 16.7275,-228.245 L 16.5565,-228.038 L 16.3611,-227.855 L 16.1441,-227.697 L 15.9091,-227.568 L 15.6598,-227.469
 L 15.4001,-227.403 L 15.1341,-227.369 z
M -15.1341,-227.369 L -15.4001,-227.403 L -15.6598,-227.469 L -15.9091,-227.568 L -16.1441,-227.697 L -16.3611,-227.855
 L -16.5565,-228.038 L -16.7275,-228.245 L -16.8712,-228.471 L -16.9853,-228.714 L -17.0682,-228.969 L -17.1185,-229.232
 L -17.1353,-229.5 L -17.1185,-229.768 L -17.0682,-230.031 L -16.9853,-230.286 L -16.8712,-230.529 L -16.7275,-230.755
 L -16.5565,-230.962 L -16.3611,-231.145 L -16.1441,-231.303 L -15.9091,-231.432 L -15.6598,-231.531 L -15.4001,-231.597
 L -15.1341,-231.631 L -14.8659,-231.631 L -14.5999,-231.597 L -14.3401,-231.531 L -14.0908,-231.432 L -13.8559,-231.303
 L -13.6389,-231.145 L -13.4434,-230.962 L -13.2725,-230.755 L -13.1288,-230.529 L -13.0146,-230.286 L -12.9318,-230.031
 L -12.8815,-229.768 L -12.8647,-229.5 L -12.8815,-229.232 L -12.9318,-228.969 L -13.0146,-228.714 L -13.1288,-228.471
 L -13.2725,-228.245 L -13.4434,-228.038 L -13.6389,-227.855 L -13.8559,-227.697 L -14.0908,-227.568 L -14.3401,-227.469
 L -14.5999,-227.403 L -14.8659,-227.369 z
M 14.8659,-182.369 L 14.5999,-182.403 L 14.3401,-182.469 L 14.0908,-182.568 L 13.8559,-182.697 L 13.6389,-182.855
 L 13.4434,-183.038 L 13.2725,-183.245 L 13.1288,-183.471 L 13.0146,-183.714 L 12.9318,-183.969 L 12.8815,-184.232
 L 12.8647,-184.5 L 12.8815,-184.768 L 12.9318,-185.031 L 13.0146,-185.286 L 13.1288,-185.529 L 13.2725,-185.755
 L 13.4434,-185.962 L 13.6389,-186.145 L 13.8559,-186.303 L 14.0908,-186.432 L 14.3401,-186.531 L 14.5999,-186.597
 L 14.8659,-186.631 L 15.1341,-186.631 L 15.4001,-186.597 L 15.6598,-186.531 L 15.9091,-186.432 L 16.1441,-186.303
 L 16.3611,-186.145 L 16.5565,-185.962 L 16.7275,-185.755 L 16.8712,-185.529 L 16.9853,-185.286 L 17.0682,-185.031
 L 17.1185,-184.768 L 17.1353,-184.5 L 17.1185,-184.232 L 17.0682,-183.969 L 16.9853,-183.714 L 16.8712,-183.471
 L 16.7275,-183.245 L 16.5565,-183.038 L 16.3611,-182.855 L 16.1441,-182.697 L 15.9091,-182.568 L 15.6598,-182.469
 L 15.4001,-182.403 L 15.1341,-182.369 z
M -15.1341,-182.369 L -15.4001,-182.403 L -15.6598,-182.469 L -15.9091,-182.568 L -16.1441,-182.697 L -16.3611,-182.855
 L -16.5565,-183.038 L -16.7275,-183.245 L -16.8712,-183.471 L -16.9853,-183.714 L -17.0682,-183.969 L -17.1185,-184.232
 L -17.1353,-184.5 L -17.1185,-184.768 L -17.0682,-185.031 L -16.9853,-185.286 L -16.8712,-185.529 L -16.7275,-185.755
 L -16.5565,-185.962 L -16.3611,-186.145 L -16.1441,-186.303 L -15.9091,-186.432 L -15.6598,-186.531 L -15.4001,-186.597
 L -15.1341,-186.631 L -14.8659,-186.631 L -14.5999,-186.597 L -14.3401,-186.531 L -14.0908,-186.432 L -13.8559,-186.303
 L -13.6389,-186.145 L -13.4434,-185.962 L -13.2725,-185.755 L -13.1288,-185.529 L -13.0146,-185.286 L -12.9318,-185.031
 L -12.8815,-184.768 L -12.8647,-184.5 L -12.8815,-184.232 L -12.9318,-183.969 L -13.0146,-183.714 L -13.1288,-183.471
 L -13.2725,-183.245 L -13.4434,-183.038 L -13.6389,-182.855 L -13.8559,-182.697 L -14.0908,-182.568 L -14.3401,-182.469
 L -14.5999,-182.403 L -14.8659,-182.369 z
" stroke="black" fill="lightgray" stroke-width="0.5"/>
</svg>
