<?xml version="1.0" standalone="no"?>
<!DOCTYPE svg PUBLIC "-//W3C//DTD SVG 1.1//EN" "http://www.w3.org/Graphics/SVG/1.1/DTD/svg11.dtd">
<svg width="60mm" height="486mm" viewBox="-30 -936 60 486" xmlns="http://www.w3.org/2000/svg" version="1.1">
<title>OpenSCAD Model</title>
<path d="
M 25.9369,-846.089 L 26.5451,-846.245 L 27.1289,-846.476 L 27.6791,-846.778 L 28.1871,-847.147 L 28.6448,-847.577
 L 29.0451,-848.061 L 29.3815,-848.591 L 29.6489,-849.159 L 29.8429,-849.757 L 29.9606,-850.373 L 30,-851
 L 30,-931 L 29.9606,-931.627 L 29.8429,-932.243 L 29.6489,-932.841 L 29.3815,-933.409 L 29.0451,-933.939
 L 28.6448,-934.423 L 28.1871,-934.853 L 27.6791,-935.222 L 27.1289,-935.524 L 26.5451,-935.755 L 25.9369,-935.911
 L 25.3139,-935.99 L -25.3139,-935.99 L -25.9369,-935.911 L -26.5451,-935.755 L -27.1289,-935.524 L -27.6791,-935.222
 L -28.1871,-934.853 L -28.6448,-934.423 L -29.0451,-933.939 L -29.3815,-933.409 L -29.6489,-932.841 L -29.8429,-932.243
 L -29.9606,-931.627 L -30,-931 L -30,-851 L -29.9606,-850.373 L -29.8429,-849.757 L -29.6489,-849.159
 L -29.3815,-848.591 L -29.0451,-848.061 L -28.6448,-847.577 L -28.1871,-847.147 L -27.6791,-846.778 L -27.1289,-846.476
 L -26.5451,-846.245 L -25.9369,-846.089 L -25.3139,-846.01 L 25.3139,-846.01 z
M -24.7512,-847.508 L -25.2495,-847.571 L -25.7361,-847.696 L -26.2031,-847.881 L -26.6433,-848.123 L -27.0497,-848.418
 L -27.4159,-848.762 L -27.7361,-849.149 L -28.0052,-849.573 L -28.2191,-850.028 L -28.3743,-850.505 L -28.4684,-850.999
 L -28.5,-851.5 L -28.5,-930.5 L -28.4684,-931.001 L -28.3743,-931.495 L -28.2191,-931.972 L -28.0052,-932.427
 L -27.7361,-932.851 L -27.4159,-933.238 L -27.0497,-933.582 L -26.6433,-933.877 L -26.2031,-934.119 L -25.7361,-934.304
 L -25.2495,-934.429 L -24.7512,-934.492 L 24.7512,-934.492 L 25.2495,-934.429 L 25.7361,-934.304 L 26.2031,-934.119
 L 26.6433,-933.877 L 27.0497,-933.582 L 27.4159,-933.238 L 27.7361,-932.851 L 28.0052,-932.427 L 28.2191,-931.972
 L 28.3743,-931.495 L 28.4684,-931.001 L 28.5,-930.5 L 28.5,-851.5 L 28.4684,-850.999 L 28.3743,-850.505
 L 28.2191,-850.028 L 28.0052,-849.573 L 27.7361,-849.149 L 27.4159,-848.762 L 27.0497,-848.418 L 26.6433,-848.123
 L 26.2031,-847.881 L 25.7361,-847.696 L 25.2495,-847.571 L 24.7512,-847.508 z
M 25.9369,-747.089 L 26.5451,-747.245 L 27.1289,-747.476 L 27.6791,-747.778 L 28.1871,-748.147 L 28.6448,-748.577
 L 29.0451,-749.061 L 29.3815,-749.591 L 29.6489,-750.159 L 29.8429,-750.757 L 29.9606,-751.373 L 30,-752
 L 30,-832 L 29.9606,-832.627 L 29.8429,-833.243 L 29.6489,-833.841 L 29.3815,-834.409 L 29.0451,-834.939
 L 28.6448,-835.423 L 28.1871,-835.853 L 27.6791,-836.222 L 27.1289,-836.524 L 26.5451,-836.755 L 25.9369,-836.911
 L 25.3139,-836.99 L -25.3139,-836.99 L -25.9369,-836.911 L -26.5451,-836.755 L -27.1289,-836.524 L -27.6791,-836.222
 L -28.1871,-835.853 L -28.6448,-835.423 L -29.0451,-834.939 L -29.3815,-834.409 L -29.6489,-833.841 L -29.8429,-833.243
 L -29.9606,-832.627 L -30,-832 L -30,-752 L -29.9606,-751.373 L -29.8429,-750.757 L -29.6489,-750.159
 L -29.3815,-749.591 L -29.0451,-749.061 L -28.6448,-748.577 L -28.1871,-748.147 L -27.6791,-747.778 L -27.1289,-747.476
 L -26.5451,-747.245 L -25.9369,-747.089 L -25.3139,-747.01 L 25.3139,-747.01 z
M -24.7512,-748.508 L -25.2495,-748.571 L -25.7361,-748.696 L -26.2031,-748.881 L -26.6433,-749.123 L -27.0497,-749.418
 L -27.4159,-749.762 L -27.7361,-750.149 L -28.0052,-750.573 L -28.2191,-751.028 L -28.3743,-751.505 L -28.4684,-751.999
 L -28.5,-752.5 L -28.5,-831.5 L -28.4684,-832.001 L -28.3743,-832.495 L -28.2191,-832.972 L -28.0052,-833.427
 L -27.7361,-833.851 L -27.4159,-834.238 L -27.0497,-834.582 L -26.6433,-834.877 L -26.2031,-835.119 L -25.7361,-835.304
 L -25.2495,-835.429 L -24.7512,-835.492 L 24.7512,-835.492 L 25.2495,-835.429 L 25.7361,-835.304 L 26.2031,-835.119
 L 26.6433,-834.877 L 27.0497,-834.582 L 27.4159,-834.238 L 27.7361,-833.851 L 28.0052,-833.427 L 28.2191,-832.972
 L 28.3743,-832.495 L 28.4684,-832.001 L 28.5,-831.5 L 28.5,-752.5 L 28.4684,-751.999 L 28.3743,-751.505
 L 28.2191,-751.028 L 28.0052,-750.573 L 27.7361,-750.149 L 27.4159,-749.762 L 27.0497,-749.418 L 26.6433,-749.123
 L 26.2031,-748.881 L 25.7361,-748.696 L 25.2495,-748.571 L 24.7512,-748.508 z
M 25.9369,-648.089 L 26.5451,-648.245 L 27.1289,-648.476 L 27.6791,-648.778 L 28.1871,-649.147 L 28.6448,-649.577
 L 29.0451,-650.061 L 29.3815,-650.591 L 29.6489,-651.159 L 29.8429,-651.757 L 29.9606,-652.373 L 30,-653
 L 30,-733 L 29.9606,-733.627 L 29.8429,-734.243 L 29.6489,-734.841 L 29.3815,-735.409 L 29.0451,-735.939
 L 28.6448,-736.423 L 28.1871,-736.853 L 27.6791,-737.222 L 27.1289,-737.524 L 26.5451,-737.755 L 25.9369,-737.911
 L 25.3139,-737.99 L -25.3139,-737.99 L -25.9369,-737.911 L -26.5451,-737.755 L -27.1289,-737.524 L -27.6791,-737.222
 L -28.1871,-736.853 L -28.6448,-736.423 L -29.0451,-735.939 L -29.3815,-735.409 L -29.6489,-734.841 L -29.8429,-734.243
 L -29.9606,-733.627 L -30,-733 L -30,-653 L -29.9606,-652.373 L -29.8429,-651.757 L -29.6489,-651.159
 L -29.3815,-650.591 L -29.0451,-650.061 L -28.6448,-649.577 L -28.1871,-649.147 L -27.6791,-648.778 L -27.1289,-648.476
 L -26.5451,-648.245 L -25.9369,-648.089 L -25.3139,-648.01 L 25.3139,-648.01 z
M -24.7512,-649.508 L -25.2495,-649.571 L -25.7361,-649.696 L -26.2031,-649.881 L -26.6433,-650.123 L -27.0497,-650.418
 L -27.4159,-650.762 L -27.7361,-651.149 L -28.0052,-651.573 L -28.2191,-652.028 L -28.3743,-652.505 L -28.4684,-652.999
 L -28.5,-653.5 L -28.5,-732.5 L -28.4684,-733.001 L -28.3743,-733.495 L -28.2191,-733.972 L -28.0052,-734.427
 L -27.7361,-734.851 L -27.4159,-735.238 L -27.0497,-735.582 L -26.6433,-735.877 L -26.2031,-736.119 L -25.7361,-736.304
 L -25.2495,-736.429 L -24.7512,-736.492 L 24.7512,-736.492 L 25.2495,-736.429 L 25.7361,-736.304 L 26.2031,-736.119
 L 26.6433,-735.877 L 27.0497,-735.582 L 27.4159,-735.238 L 27.7361,-734.851 L 28.0052,-734.427 L 28.2191,-733.972
 L 28.3743,-733.495 L 28.4684,-733.001 L 28.5,-732.5 L 28.5,-653.5 L 28.4684,-652.999 L 28.3743,-652.505
 L 28.2191,-652.028 L 28.0052,-651.573 L 27.7361,-651.149 L 27.4159,-650.762 L 27.0497,-650.418 L 26.6433,-650.123
 L 26.2031,-649.881 L 25.7361,-649.696 L 25.2495,-649.571 L 24.7512,-649.508 z
M 25.9369,-549.089 L 26.5451,-549.245 L 27.1289,-549.476 L 27.6791,-549.778 L 28.1871,-550.147 L 28.6448,-550.577
 L 29.0451,-551.061 L 29.3815,-551.591 L 29.6489,-552.159 L 29.8429,-552.757 L 29.9606,-553.373 L 30,-554
 L 30,-634 L 29.9606,-634.627 L 29.8429,-635.243 L 29.6489,-635.841 L 29.3815,-636.409 L 29.0451,-636.939
 L 28.6448,-637.423 L 28.1871,-637.853 L 27.6791,-638.222 L 27.1289,-638.524 L 26.5451,-638.755 L 25.9369,-638.911
 L 25.3139,-638.99 L -25.3139,-638.99 L -25.9369,-638.911 L -26.5451,-638.755 L -27.1289,-638.524 L -27.6791,-638.222
 L -28.1871,-637.853 L -28.6448,-637.423 L -29.0451,-636.939 L -29.3815,-636.409 L -29.6489,-635.841 L -29.8429,-635.243
 L -29.9606,-634.627 L -30,-634 L -30,-554 L -29.9606,-553.373 L -29.8429,-552.757 L -29.6489,-552.159
 L -29.3815,-551.591 L -29.0451,-551.061 L -28.6448,-550.577 L -28.1871,-550.147 L -27.6791,-549.778 L -27.1289,-549.476
 L -26.5451,-549.245 L -25.9369,-549.089 L -25.3139,-549.01 L 25.3139,-549.01 z
M -24.6954,-551.393 L -25.0833,-551.442 L -25.4619,-551.539 L -25.8254,-551.683 L -26.168,-551.872 L -26.4842,-552.101
 L -26.7692,-552.369 L -27.0184,-552.67 L -27.2279,-553 L -27.3943,-553.354 L -27.5151,-553.726 L -27.5884,-554.11
 L -27.6129,-554.5 L -27.6129,-633.5 L -27.5884,-633.89 L -27.5151,-634.274 L -27.3943,-634.646 L -27.2279,-635
 L -27.0184,-635.33 L -26.7692,-635.631 L -26.4842,-635.899 L -26.168,-636.128 L -25.8254,-636.317 L -25.4619,-636.461
 L -25.0833,-636.558 L -24.6954,-636.607 L 24.6954,-636.607 L 25.0833,-636.558 L 25.4619,-636.461 L 25.8254,-636.317
 L 26.168,-636.128 L 26.4842,-635.899 L 26.7692,-635.631 L 27.0184,-635.33 L 27.2279,-635 L 27.3943,-634.646
 L 27.5151,-634.274 L 27.5884,-633.89 L 27.6129,-633.5 L 27.6129,-554.5 L 27.5884,-554.11 L 27.5151,-553.726
 L 27.3943,-553.354 L 27.2279,-553 L 27.0184,-552.67 L 26.7692,-552.369 L 26.4842,-552.101 L 26.168,-551.872
 L 25.8254,-551.683 L 25.4619,-551.539 L 25.0833,-551.442 L 24.6954,-551.393 z
M 25.9369,-450.089 L 26.5451,-450.245 L 27.1289,-450.476 L 27.6791,-450.778 L 28.1871,-451.147 L 28.6448,-451.577
 L 29.0451,-452.061 L 29.3815,-452.591 L 29.6489,-453.159 L 29.8429,-453.757 L 29.9606,-454.373 L 30,-455
 L 30,-535 L 29.9606,-535.627 L 29.8429,-536.243 L 29.6489,-536.841 L 29.3815,-537.409 L 29.0451,-537.939
 L 28.6448,-538.423 L 28.1871,-538.853 L 27.6791,-539.222 L 27.1289,-539.524 L 26.5451,-539.755 L 25.9369,-539.911
 L 25.3139,-539.99 L -25.3139,-539.99 L -25.9369,-539.911 L -26.5451,-539.755 L -27.1289,-539.524 L -27.6791,-539.222
 L -28.1871,-538.853 L -28.6448,-538.423 L -29.0451,-537.939 L -29.3815,-537.409 L -29.6489,-536.841 L -29.8429,-536.243
 L -29.9606,-535.627 L -30,-535 L -30,-455 L -29.9606,-454.373 L -29.8429,-453.757 L -29.6489,-453.159
 L -29.3815,-452.591 L -29.0451,-452.061 L -28.6448,-451.577 L -28.1871,-451.147 L -27.6791,-450.778 L -27.1289,-450.476
 L -26.5451,-450.245 L -25.9369,-450.089 L -25.3139,-450.01 L 25.3139,-450.01 z
M 22.3659,-530.369 L 22.0999,-530.403 L 21.8401,-530.469 L 21.5908,-530.568 L 21.3559,-530.697 L 21.1389,-530.855
 L 20.9434,-531.038 L 20.7725,-531.245 L 20.6288,-531.471 L 20.5146,-531.714 L 20.4318,-531.969 L 20.3815,-532.232
 L 20.3647,-532.5 L 20.3815,-532.768 L 20.4318,-533.031 L 20.5146,-533.286 L 20.6288,-533.529 L 20.7725,-533.755
 L 20.9434,-533.962 L 21.1389,-534.145 L 21.3559,-534.303 L 21.5908,-534.432 L 21.8401,-534.531 L 22.0999,-534.597
 L 22.3659,-534.631 L 22.6341,-534.631 L 22.9001,-534.597 L 23.1598,-534.531 L 23.4091,-534.432 L 23.6441,-534.303
 L 23.8611,-534.145 L 24.0565,-533.962 L 24.2275,-533.755 L 24.3712,-533.529 L 24.4853,-533.286 L 24.5682,-533.031
 L 24.6185,-532.768 L 24.6353,-532.5 L 24.6185,-532.232 L 24.5682,-531.969 L 24.4853,-531.714 L 24.3712,-531.471
 L 24.2275,-531.245 L 24.0565,-531.038 L 23.8611,-530.855 L 23.6441,-530.697 L 23.4091,-530.568 L 23.1598,-530.469
 L 22.9001,-530.403 L 22.6341,-530.369 z
M -22.6341,-530.369 L -22.9001,-530.403 L -23.1598,-530.469 L -23.4091,-530.568 L -23.6441,-530.697 L -23.8611,-530.855
 L -24.0565,-531.038 L -24.2275,-531.245 L -24.3712,-531.471 L -24.4853,-531.714 L -24.5682,-531.969 L -24.6185,-532.232
 L -24.6353,-532.5 L -24.6185,-532.768 L -24.5682,-533.031 L -24.4853,-533.286 L -24.3712,-533.529 L -24.2275,-533.755
 L -24.0565,-533.962 L -23.8611,-534.145 L -23.6441,-534.303 L -23.4091,-534.432 L -23.1598,-534.531 L -22.9001,-534.597
 L -22.6341,-534.631 L -22.3659,-534.631 L -22.0999,-534.597 L -21.8401,-534.531 L -21.5908,-534.432 L -21.3559,-534.303
 L -21.1389,-534.145 L -20.9434,-533.962 L -20.7725,-533.755 L -20.6288,-533.529 L -20.5146,-533.286 L -20.4318,-533.031
 L -20.3815,-532.768 L -20.3647,-532.5 L -20.3815,-532.232 L -20.4318,-531.969 L -20.5146,-531.714 L -20.6288,-531.471
 L -20.7725,-531.245 L -20.9434,-531.038 L -21.1389,-530.855 L -21.3559,-530.697 L -21.5908,-530.568 L -21.8401,-530.469
 L -22.0999,-530.403 L -22.3659,-530.369 z
M 22.3659,-455.369 L 22.0999,-455.403 L 21.8401,-455.469 L 21.5908,-455.568 L 21.3559,-455.697 L 21.1389,-455.855
 L 20.9434,-456.038 L 20.7725,-456.245 L 20.6288,-456.471 L 20.5146,-456.714 L 20.4318,-456.969 L 20.3815,-457.232
 L 20.3647,-457.5 L 20.3815,-457.768 L 20.4318,-458.031 L 20.5146,-458.286 L 20.6288,-458.529 L 20.7725,-458.755
 L 20.9434,-458.962 L 21.1389,-459.145 L 21.3559,-459.303 L 21.5908,-459.432 L 21.8401,-459.531 L 22.0999,-459.597
 L 22.3659,-459.631 L 22.6341,-459.631 L 22.9001,-459.597 L 23.1598,-459.531 L 23.4091,-459.432 L 23.6441,-459.303
 L 23.8611,-459.145 L 24.0565,-458.962 L 24.2275,-458.755 L 24.3712,-458.529 L 24.4853,-458.286 L 24.5682,-458.031
 L 24.6185,-457.768 L 24.6353,-457.5 L 24.6185,-457.232 L 24.5682,-456.969 L 24.4853,-456.714 L 24.3712,-456.471
 L 24.2275,-456.245 L 24.0565,-456.038 L 23.8611,-455.855 L 23.6441,-455.697 L 23.4091,-455.568 L 23.1598,-455.469
 L 22.9001,-455.403 L 22.6341,-455.369 z
M -22.6341,-455.369 L -22.9001,-455.403 L -23.1598,-455.469 L -23.4091,-455.568 L -23.6441,-455.697 L -23.8611,-455.855
 L -24.0565,-456.038 L -24.2275,-456.245 L -24.3712,-456.471 L -24.4853,-456.714 L -24.5682,-456.969 L -24.6185,-457.232
 L -24.6353,-457.5 L -24.6185,-457.768 L -24.5682,-458.031 L -24.4853,-458.286 L -24.3712,-458.529 L -24.2275,-458.755
 L -24.0565,-458.962 L -23.8611,-459.145 L -23.6441,-459.303 L -23.4091,-459.432 L -23.1598,-459.531 L -22.9001,-459.597
 L -22.6341,-459.631 L -22.3659,-459.631 L -22.0999,-459.597 L -21.8401,-459.531 L -21.5908,-459.432 L -21.3559,-459.303
 L -21.1389,-459.145 L -20.9434,-458.962 L -20.7725,-458.755 L -20.6288,-458.529 L -20.5146,-458.286 L -20.4318,-458.031
 L -20.3815,-457.768 L -20.3647,-457.5 L -20.3815,-457.232 L -20.4318,-456.969 L -20.5146,-456.714 L -20.6288,-456.471
 L -20.7725,-456.245 L -20.9434,-456.038 L -21.1389,-455.855 L -21.3559,-455.697 L -21.5908,-455.568 L -21.8401,-455.469
 L -22.0999,-455.403 L -22.3659,-455.369 z
" stroke="black" fill="lightgray" stroke-width="0.5"/>
</svg>
