  0
SECTION
  2
BLOCKS
  0
ENDSEC
  0
SECTION
  2
ENTITIES
  0
LINE
  8
0
 10
10.9369
 20
382.589
 11
11.5451
 21
382.745
  0
LINE
  8
0
 10
11.5451
 20
382.745
 11
12.1289
 21
382.976
  0
LINE
  8
0
 10
12.1289
 20
382.976
 11
12.6791
 21
383.278
  0
LINE
  8
0
 10
12.6791
 20
383.278
 11
13.1871
 21
383.647
  0
LINE
  8
0
 10
13.1871
 20
383.647
 11
13.6448
 21
384.077
  0
LINE
  8
0
 10
13.6448
 20
384.077
 11
14.0451
 21
384.561
  0
LINE
  8
0
 10
14.0451
 20
384.561
 11
14.3815
 21
385.091
  0
LINE
  8
0
 10
14.3815
 20
385.091
 11
14.6489
 21
385.659
  0
LINE
  8
0
 10
14.6489
 20
385.659
 11
14.8429
 21
386.257
  0
LINE
  8
0
 10
14.8429
 20
386.257
 11
14.9606
 21
386.873
  0
LINE
  8
0
 10
14.9606
 20
386.873
 11
15
 21
387.5
  0
LINE
  8
0
 10
15
 20
387.5
 11
15
 21
452.5
  0
LINE
  8
0
 10
15
 20
452.5
 11
14.9606
 21
453.127
  0
LINE
  8
0
 10
14.9606
 20
453.127
 11
14.8429
 21
453.743
  0
LINE
  8
0
 10
14.8429
 20
453.743
 11
14.6489
 21
454.341
  0
LINE
  8
0
 10
14.6489
 20
454.341
 11
14.3815
 21
454.909
  0
LINE
  8
0
 10
14.3815
 20
454.909
 11
14.0451
 21
455.439
  0
LINE
  8
0
 10
14.0451
 20
455.439
 11
13.6448
 21
455.923
  0
LINE
  8
0
 10
13.6448
 20
455.923
 11
13.1871
 21
456.353
  0
LINE
  8
0
 10
13.1871
 20
456.353
 11
12.6791
 21
456.722
  0
LINE
  8
0
 10
12.6791
 20
456.722
 11
12.1289
 21
457.024
  0
LINE
  8
0
 10
12.1289
 20
457.024
 11
11.5451
 21
457.255
  0
LINE
  8
0
 10
11.5451
 20
457.255
 11
10.9369
 21
457.411
  0
LINE
  8
0
 10
10.9369
 20
457.411
 11
10.3139
 21
457.49
  0
LINE
  8
0
 10
10.3139
 20
457.49
 11
-10.3139
 21
457.49
  0
LINE
  8
0
 10
-10.3139
 20
457.49
 11
-10.9369
 21
457.411
  0
LINE
  8
0
 10
-10.9369
 20
457.411
 11
-11.5451
 21
457.255
  0
LINE
  8
0
 10
-11.5451
 20
457.255
 11
-12.1289
 21
457.024
  0
LINE
  8
0
 10
-12.1289
 20
457.024
 11
-12.6791
 21
456.722
  0
LINE
  8
0
 10
-12.6791
 20
456.722
 11
-13.1871
 21
456.353
  0
LINE
  8
0
 10
-13.1871
 20
456.353
 11
-13.6448
 21
455.923
  0
LINE
  8
0
 10
-13.6448
 20
455.923
 11
-14.0451
 21
455.439
  0
LINE
  8
0
 10
-14.0451
 20
455.439
 11
-14.3815
 21
454.909
  0
LINE
  8
0
 10
-14.3815
 20
454.909
 11
-14.6489
 21
454.341
  0
LINE
  8
0
 10
-14.6489
 20
454.341
 11
-14.8429
 21
453.743
  0
LINE
  8
0
 10
-14.8429
 20
453.743
 11
-14.9606
 21
453.127
  0
LINE
  8
0
 10
-14.9606
 20
453.127
 11
-15
 21
452.5
  0
LINE
  8
0
 10
-15
 20
452.5
 11
-15
 21
387.5
  0
LINE
  8
0
 10
-15
 20
387.5
 11
-14.9606
 21
386.873
  0
LINE
  8
0
 10
-14.9606
 20
386.873
 11
-14.8429
 21
386.257
  0
LINE
  8
0
 10
-14.8429
 20
386.257
 11
-14.6489
 21
385.659
  0
LINE
  8
0
 10
-14.6489
 20
385.659
 11
-14.3815
 21
385.091
  0
LINE
  8
0
 10
-14.3815
 20
385.091
 11
-14.0451
 21
384.561
  0
LINE
  8
0
 10
-14.0451
 20
384.561
 11
-13.6448
 21
384.077
  0
LINE
  8
0
 10
-13.6448
 20
384.077
 11
-13.1871
 21
383.647
  0
LINE
  8
0
 10
-13.1871
 20
383.647
 11
-12.6791
 21
383.278
  0
LINE
  8
0
 10
-12.6791
 20
383.278
 11
-12.1289
 21
382.976
  0
LINE
  8
0
 10
-12.1289
 20
382.976
 11
-11.5451
 21
382.745
  0
LINE
  8
0
 10
-11.5451
 20
382.745
 11
-10.9369
 21
382.589
  0
LINE
  8
0
 10
-10.9369
 20
382.589
 11
-10.3139
 21
382.51
  0
LINE
  8
0
 10
-10.3139
 20
382.51
 11
10.3139
 21
382.51
  0
LINE
  8
0
 10
10.3139
 20
382.51
 11
10.9369
 21
382.589
  0
LINE
  8
0
 10
-9.75116
 20
384.008
 11
-10.2495
 21
384.071
  0
LINE
  8
0
 10
-10.2495
 20
384.071
 11
-10.7361
 21
384.196
  0
LINE
  8
0
 10
-10.7361
 20
384.196
 11
-11.2031
 21
384.381
  0
LINE
  8
0
 10
-11.2031
 20
384.381
 11
-11.6433
 21
384.623
  0
LINE
  8
0
 10
-11.6433
 20
384.623
 11
-12.0497
 21
384.918
  0
LINE
  8
0
 10
-12.0497
 20
384.918
 11
-12.4159
 21
385.262
  0
LINE
  8
0
 10
-12.4159
 20
385.262
 11
-12.7361
 21
385.649
  0
LINE
  8
0
 10
-12.7361
 20
385.649
 11
-13.0052
 21
386.073
  0
LINE
  8
0
 10
-13.0052
 20
386.073
 11
-13.2191
 21
386.528
  0
LINE
  8
0
 10
-13.2191
 20
386.528
 11
-13.3743
 21
387.005
  0
LINE
  8
0
 10
-13.3743
 20
387.005
 11
-13.4684
 21
387.499
  0
LINE
  8
0
 10
-13.4684
 20
387.499
 11
-13.5
 21
388
  0
LINE
  8
0
 10
-13.5
 20
388
 11
-13.5
 21
452
  0
LINE
  8
0
 10
-13.5
 20
452
 11
-13.4684
 21
452.501
  0
LINE
  8
0
 10
-13.4684
 20
452.501
 11
-13.3743
 21
452.995
  0
LINE
  8
0
 10
-13.3743
 20
452.995
 11
-13.2191
 21
453.472
  0
LINE
  8
0
 10
-13.2191
 20
453.472
 11
-13.0052
 21
453.927
  0
LINE
  8
0
 10
-13.0052
 20
453.927
 11
-12.7361
 21
454.351
  0
LINE
  8
0
 10
-12.7361
 20
454.351
 11
-12.4159
 21
454.738
  0
LINE
  8
0
 10
-12.4159
 20
454.738
 11
-12.0497
 21
455.082
  0
LINE
  8
0
 10
-12.0497
 20
455.082
 11
-11.6433
 21
455.377
  0
LINE
  8
0
 10
-11.6433
 20
455.377
 11
-11.2031
 21
455.619
  0
LINE
  8
0
 10
-11.2031
 20
455.619
 11
-10.7361
 21
455.804
  0
LINE
  8
0
 10
-10.7361
 20
455.804
 11
-10.2495
 21
455.929
  0
LINE
  8
0
 10
-10.2495
 20
455.929
 11
-9.75116
 21
455.992
  0
LINE
  8
0
 10
-9.75116
 20
455.992
 11
9.75116
 21
455.992
  0
LINE
  8
0
 10
9.75116
 20
455.992
 11
10.2495
 21
455.929
  0
LINE
  8
0
 10
10.2495
 20
455.929
 11
10.7361
 21
455.804
  0
LINE
  8
0
 10
10.7361
 20
455.804
 11
11.2031
 21
455.619
  0
LINE
  8
0
 10
11.2031
 20
455.619
 11
11.6433
 21
455.377
  0
LINE
  8
0
 10
11.6433
 20
455.377
 11
12.0497
 21
455.082
  0
LINE
  8
0
 10
12.0497
 20
455.082
 11
12.4159
 21
454.738
  0
LINE
  8
0
 10
12.4159
 20
454.738
 11
12.7361
 21
454.351
  0
LINE
  8
0
 10
12.7361
 20
454.351
 11
13.0052
 21
453.927
  0
LINE
  8
0
 10
13.0052
 20
453.927
 11
13.2191
 21
453.472
  0
LINE
  8
0
 10
13.2191
 20
453.472
 11
13.3743
 21
452.995
  0
LINE
  8
0
 10
13.3743
 20
452.995
 11
13.4684
 21
452.501
  0
LINE
  8
0
 10
13.4684
 20
452.501
 11
13.5
 21
452
  0
LINE
  8
0
 10
13.5
 20
452
 11
13.5
 21
388
  0
LINE
  8
0
 10
13.5
 20
388
 11
13.4684
 21
387.499
  0
LINE
  8
0
 10
13.4684
 20
387.499
 11
13.3743
 21
387.005
  0
LINE
  8
0
 10
13.3743
 20
387.005
 11
13.2191
 21
386.528
  0
LINE
  8
0
 10
13.2191
 20
386.528
 11
13.0052
 21
386.073
  0
LINE
  8
0
 10
13.0052
 20
386.073
 11
12.7361
 21
385.649
  0
LINE
  8
0
 10
12.7361
 20
385.649
 11
12.4159
 21
385.262
  0
LINE
  8
0
 10
12.4159
 20
385.262
 11
12.0497
 21
384.918
  0
LINE
  8
0
 10
12.0497
 20
384.918
 11
11.6433
 21
384.623
  0
LINE
  8
0
 10
11.6433
 20
384.623
 11
11.2031
 21
384.381
  0
LINE
  8
0
 10
11.2031
 20
384.381
 11
10.7361
 21
384.196
  0
LINE
  8
0
 10
10.7361
 20
384.196
 11
10.2495
 21
384.071
  0
LINE
  8
0
 10
10.2495
 20
384.071
 11
9.75116
 21
384.008
  0
LINE
  8
0
 10
9.75116
 20
384.008
 11
-9.75116
 21
384.008
  0
LINE
  8
0
 10
10.9369
 20
298.589
 11
11.5451
 21
298.745
  0
LINE
  8
0
 10
11.5451
 20
298.745
 11
12.1289
 21
298.976
  0
LINE
  8
0
 10
12.1289
 20
298.976
 11
12.6791
 21
299.278
  0
LINE
  8
0
 10
12.6791
 20
299.278
 11
13.1871
 21
299.647
  0
LINE
  8
0
 10
13.1871
 20
299.647
 11
13.6448
 21
300.077
  0
LINE
  8
0
 10
13.6448
 20
300.077
 11
14.0451
 21
300.561
  0
LINE
  8
0
 10
14.0451
 20
300.561
 11
14.3815
 21
301.091
  0
LINE
  8
0
 10
14.3815
 20
301.091
 11
14.6489
 21
301.659
  0
LINE
  8
0
 10
14.6489
 20
301.659
 11
14.8429
 21
302.257
  0
LINE
  8
0
 10
14.8429
 20
302.257
 11
14.9606
 21
302.873
  0
LINE
  8
0
 10
14.9606
 20
302.873
 11
15
 21
303.5
  0
LINE
  8
0
 10
15
 20
303.5
 11
15
 21
368.5
  0
LINE
  8
0
 10
15
 20
368.5
 11
14.9606
 21
369.127
  0
LINE
  8
0
 10
14.9606
 20
369.127
 11
14.8429
 21
369.743
  0
LINE
  8
0
 10
14.8429
 20
369.743
 11
14.6489
 21
370.341
  0
LINE
  8
0
 10
14.6489
 20
370.341
 11
14.3815
 21
370.909
  0
LINE
  8
0
 10
14.3815
 20
370.909
 11
14.0451
 21
371.439
  0
LINE
  8
0
 10
14.0451
 20
371.439
 11
13.6448
 21
371.923
  0
LINE
  8
0
 10
13.6448
 20
371.923
 11
13.1871
 21
372.353
  0
LINE
  8
0
 10
13.1871
 20
372.353
 11
12.6791
 21
372.722
  0
LINE
  8
0
 10
12.6791
 20
372.722
 11
12.1289
 21
373.024
  0
LINE
  8
0
 10
12.1289
 20
373.024
 11
11.5451
 21
373.255
  0
LINE
  8
0
 10
11.5451
 20
373.255
 11
10.9369
 21
373.411
  0
LINE
  8
0
 10
10.9369
 20
373.411
 11
10.3139
 21
373.49
  0
LINE
  8
0
 10
10.3139
 20
373.49
 11
-10.3139
 21
373.49
  0
LINE
  8
0
 10
-10.3139
 20
373.49
 11
-10.9369
 21
373.411
  0
LINE
  8
0
 10
-10.9369
 20
373.411
 11
-11.5451
 21
373.255
  0
LINE
  8
0
 10
-11.5451
 20
373.255
 11
-12.1289
 21
373.024
  0
LINE
  8
0
 10
-12.1289
 20
373.024
 11
-12.6791
 21
372.722
  0
LINE
  8
0
 10
-12.6791
 20
372.722
 11
-13.1871
 21
372.353
  0
LINE
  8
0
 10
-13.1871
 20
372.353
 11
-13.6448
 21
371.923
  0
LINE
  8
0
 10
-13.6448
 20
371.923
 11
-14.0451
 21
371.439
  0
LINE
  8
0
 10
-14.0451
 20
371.439
 11
-14.3815
 21
370.909
  0
LINE
  8
0
 10
-14.3815
 20
370.909
 11
-14.6489
 21
370.341
  0
LINE
  8
0
 10
-14.6489
 20
370.341
 11
-14.8429
 21
369.743
  0
LINE
  8
0
 10
-14.8429
 20
369.743
 11
-14.9606
 21
369.127
  0
LINE
  8
0
 10
-14.9606
 20
369.127
 11
-15
 21
368.5
  0
LINE
  8
0
 10
-15
 20
368.5
 11
-15
 21
303.5
  0
LINE
  8
0
 10
-15
 20
303.5
 11
-14.9606
 21
302.873
  0
LINE
  8
0
 10
-14.9606
 20
302.873
 11
-14.8429
 21
302.257
  0
LINE
  8
0
 10
-14.8429
 20
302.257
 11
-14.6489
 21
301.659
  0
LINE
  8
0
 10
-14.6489
 20
301.659
 11
-14.3815
 21
301.091
  0
LINE
  8
0
 10
-14.3815
 20
301.091
 11
-14.0451
 21
300.561
  0
LINE
  8
0
 10
-14.0451
 20
300.561
 11
-13.6448
 21
300.077
  0
LINE
  8
0
 10
-13.6448
 20
300.077
 11
-13.1871
 21
299.647
  0
LINE
  8
0
 10
-13.1871
 20
299.647
 11
-12.6791
 21
299.278
  0
LINE
  8
0
 10
-12.6791
 20
299.278
 11
-12.1289
 21
298.976
  0
LINE
  8
0
 10
-12.1289
 20
298.976
 11
-11.5451
 21
298.745
  0
LINE
  8
0
 10
-11.5451
 20
298.745
 11
-10.9369
 21
298.589
  0
LINE
  8
0
 10
-10.9369
 20
298.589
 11
-10.3139
 21
298.51
  0
LINE
  8
0
 10
-10.3139
 20
298.51
 11
10.3139
 21
298.51
  0
LINE
  8
0
 10
10.3139
 20
298.51
 11
10.9369
 21
298.589
  0
LINE
  8
0
 10
-9.69545
 20
300.893
 11
-10.0833
 21
300.942
  0
LINE
  8
0
 10
-10.0833
 20
300.942
 11
-10.4619
 21
301.039
  0
LINE
  8
0
 10
-10.4619
 20
301.039
 11
-10.8254
 21
301.183
  0
LINE
  8
0
 10
-10.8254
 20
301.183
 11
-11.168
 21
301.372
  0
LINE
  8
0
 10
-11.168
 20
301.372
 11
-11.4842
 21
301.601
  0
LINE
  8
0
 10
-11.4842
 20
301.601
 11
-11.7692
 21
301.869
  0
LINE
  8
0
 10
-11.7692
 20
301.869
 11
-12.0184
 21
302.17
  0
LINE
  8
0
 10
-12.0184
 20
302.17
 11
-12.2279
 21
302.5
  0
LINE
  8
0
 10
-12.2279
 20
302.5
 11
-12.3943
 21
302.854
  0
LINE
  8
0
 10
-12.3943
 20
302.854
 11
-12.5151
 21
303.226
  0
LINE
  8
0
 10
-12.5151
 20
303.226
 11
-12.5884
 21
303.61
  0
LINE
  8
0
 10
-12.5884
 20
303.61
 11
-12.6129
 21
304
  0
LINE
  8
0
 10
-12.6129
 20
304
 11
-12.6129
 21
368
  0
LINE
  8
0
 10
-12.6129
 20
368
 11
-12.5884
 21
368.39
  0
LINE
  8
0
 10
-12.5884
 20
368.39
 11
-12.5151
 21
368.774
  0
LINE
  8
0
 10
-12.5151
 20
368.774
 11
-12.3943
 21
369.146
  0
LINE
  8
0
 10
-12.3943
 20
369.146
 11
-12.2279
 21
369.5
  0
LINE
  8
0
 10
-12.2279
 20
369.5
 11
-12.0184
 21
369.83
  0
LINE
  8
0
 10
-12.0184
 20
369.83
 11
-11.7692
 21
370.131
  0
LINE
  8
0
 10
-11.7692
 20
370.131
 11
-11.4842
 21
370.399
  0
LINE
  8
0
 10
-11.4842
 20
370.399
 11
-11.168
 21
370.628
  0
LINE
  8
0
 10
-11.168
 20
370.628
 11
-10.8254
 21
370.817
  0
LINE
  8
0
 10
-10.8254
 20
370.817
 11
-10.4619
 21
370.961
  0
LINE
  8
0
 10
-10.4619
 20
370.961
 11
-10.0833
 21
371.058
  0
LINE
  8
0
 10
-10.0833
 20
371.058
 11
-9.69545
 21
371.107
  0
LINE
  8
0
 10
-9.69545
 20
371.107
 11
9.69545
 21
371.107
  0
LINE
  8
0
 10
9.69545
 20
371.107
 11
10.0833
 21
371.058
  0
LINE
  8
0
 10
10.0833
 20
371.058
 11
10.4619
 21
370.961
  0
LINE
  8
0
 10
10.4619
 20
370.961
 11
10.8254
 21
370.817
  0
LINE
  8
0
 10
10.8254
 20
370.817
 11
11.168
 21
370.628
  0
LINE
  8
0
 10
11.168
 20
370.628
 11
11.4842
 21
370.399
  0
LINE
  8
0
 10
11.4842
 20
370.399
 11
11.7692
 21
370.131
  0
LINE
  8
0
 10
11.7692
 20
370.131
 11
12.0184
 21
369.83
  0
LINE
  8
0
 10
12.0184
 20
369.83
 11
12.2279
 21
369.5
  0
LINE
  8
0
 10
12.2279
 20
369.5
 11
12.3943
 21
369.146
  0
LINE
  8
0
 10
12.3943
 20
369.146
 11
12.5151
 21
368.774
  0
LINE
  8
0
 10
12.5151
 20
368.774
 11
12.5884
 21
368.39
  0
LINE
  8
0
 10
12.5884
 20
368.39
 11
12.6129
 21
368
  0
LINE
  8
0
 10
12.6129
 20
368
 11
12.6129
 21
304
  0
LINE
  8
0
 10
12.6129
 20
304
 11
12.5884
 21
303.61
  0
LINE
  8
0
 10
12.5884
 20
303.61
 11
12.5151
 21
303.226
  0
LINE
  8
0
 10
12.5151
 20
303.226
 11
12.3943
 21
302.854
  0
LINE
  8
0
 10
12.3943
 20
302.854
 11
12.2279
 21
302.5
  0
LINE
  8
0
 10
12.2279
 20
302.5
 11
12.0184
 21
302.17
  0
LINE
  8
0
 10
12.0184
 20
302.17
 11
11.7692
 21
301.869
  0
LINE
  8
0
 10
11.7692
 20
301.869
 11
11.4842
 21
301.601
  0
LINE
  8
0
 10
11.4842
 20
301.601
 11
11.168
 21
301.372
  0
LINE
  8
0
 10
11.168
 20
301.372
 11
10.8254
 21
301.183
  0
LINE
  8
0
 10
10.8254
 20
301.183
 11
10.4619
 21
301.039
  0
LINE
  8
0
 10
10.4619
 20
301.039
 11
10.0833
 21
300.942
  0
LINE
  8
0
 10
10.0833
 20
300.942
 11
9.69545
 21
300.893
  0
LINE
  8
0
 10
9.69545
 20
300.893
 11
-9.69545
 21
300.893
  0
LINE
  8
0
 10
10.9369
 20
214.589
 11
11.5451
 21
214.745
  0
LINE
  8
0
 10
11.5451
 20
214.745
 11
12.1289
 21
214.976
  0
LINE
  8
0
 10
12.1289
 20
214.976
 11
12.6791
 21
215.278
  0
LINE
  8
0
 10
12.6791
 20
215.278
 11
13.1871
 21
215.647
  0
LINE
  8
0
 10
13.1871
 20
215.647
 11
13.6448
 21
216.077
  0
LINE
  8
0
 10
13.6448
 20
216.077
 11
14.0451
 21
216.561
  0
LINE
  8
0
 10
14.0451
 20
216.561
 11
14.3815
 21
217.091
  0
LINE
  8
0
 10
14.3815
 20
217.091
 11
14.6489
 21
217.659
  0
LINE
  8
0
 10
14.6489
 20
217.659
 11
14.8429
 21
218.257
  0
LINE
  8
0
 10
14.8429
 20
218.257
 11
14.9606
 21
218.873
  0
LINE
  8
0
 10
14.9606
 20
218.873
 11
15
 21
219.5
  0
LINE
  8
0
 10
15
 20
219.5
 11
15
 21
284.5
  0
LINE
  8
0
 10
15
 20
284.5
 11
14.9606
 21
285.127
  0
LINE
  8
0
 10
14.9606
 20
285.127
 11
14.8429
 21
285.743
  0
LINE
  8
0
 10
14.8429
 20
285.743
 11
14.6489
 21
286.341
  0
LINE
  8
0
 10
14.6489
 20
286.341
 11
14.3815
 21
286.909
  0
LINE
  8
0
 10
14.3815
 20
286.909
 11
14.0451
 21
287.439
  0
LINE
  8
0
 10
14.0451
 20
287.439
 11
13.6448
 21
287.923
  0
LINE
  8
0
 10
13.6448
 20
287.923
 11
13.1871
 21
288.353
  0
LINE
  8
0
 10
13.1871
 20
288.353
 11
12.6791
 21
288.722
  0
LINE
  8
0
 10
12.6791
 20
288.722
 11
12.1289
 21
289.024
  0
LINE
  8
0
 10
12.1289
 20
289.024
 11
11.5451
 21
289.255
  0
LINE
  8
0
 10
11.5451
 20
289.255
 11
10.9369
 21
289.411
  0
LINE
  8
0
 10
10.9369
 20
289.411
 11
10.3139
 21
289.49
  0
LINE
  8
0
 10
10.3139
 20
289.49
 11
-10.3139
 21
289.49
  0
LINE
  8
0
 10
-10.3139
 20
289.49
 11
-10.9369
 21
289.411
  0
LINE
  8
0
 10
-10.9369
 20
289.411
 11
-11.5451
 21
289.255
  0
LINE
  8
0
 10
-11.5451
 20
289.255
 11
-12.1289
 21
289.024
  0
LINE
  8
0
 10
-12.1289
 20
289.024
 11
-12.6791
 21
288.722
  0
LINE
  8
0
 10
-12.6791
 20
288.722
 11
-13.1871
 21
288.353
  0
LINE
  8
0
 10
-13.1871
 20
288.353
 11
-13.6448
 21
287.923
  0
LINE
  8
0
 10
-13.6448
 20
287.923
 11
-14.0451
 21
287.439
  0
LINE
  8
0
 10
-14.0451
 20
287.439
 11
-14.3815
 21
286.909
  0
LINE
  8
0
 10
-14.3815
 20
286.909
 11
-14.6489
 21
286.341
  0
LINE
  8
0
 10
-14.6489
 20
286.341
 11
-14.8429
 21
285.743
  0
LINE
  8
0
 10
-14.8429
 20
285.743
 11
-14.9606
 21
285.127
  0
LINE
  8
0
 10
-14.9606
 20
285.127
 11
-15
 21
284.5
  0
LINE
  8
0
 10
-15
 20
284.5
 11
-15
 21
219.5
  0
LINE
  8
0
 10
-15
 20
219.5
 11
-14.9606
 21
218.873
  0
LINE
  8
0
 10
-14.9606
 20
218.873
 11
-14.8429
 21
218.257
  0
LINE
  8
0
 10
-14.8429
 20
218.257
 11
-14.6489
 21
217.659
  0
LINE
  8
0
 10
-14.6489
 20
217.659
 11
-14.3815
 21
217.091
  0
LINE
  8
0
 10
-14.3815
 20
217.091
 11
-14.0451
 21
216.561
  0
LINE
  8
0
 10
-14.0451
 20
216.561
 11
-13.6448
 21
216.077
  0
LINE
  8
0
 10
-13.6448
 20
216.077
 11
-13.1871
 21
215.647
  0
LINE
  8
0
 10
-13.1871
 20
215.647
 11
-12.6791
 21
215.278
  0
LINE
  8
0
 10
-12.6791
 20
215.278
 11
-12.1289
 21
214.976
  0
LINE
  8
0
 10
-12.1289
 20
214.976
 11
-11.5451
 21
214.745
  0
LINE
  8
0
 10
-11.5451
 20
214.745
 11
-10.9369
 21
214.589
  0
LINE
  8
0
 10
-10.9369
 20
214.589
 11
-10.3139
 21
214.51
  0
LINE
  8
0
 10
-10.3139
 20
214.51
 11
10.3139
 21
214.51
  0
LINE
  8
0
 10
10.3139
 20
214.51
 11
10.9369
 21
214.589
  0
LINE
  8
0
 10
7.36592
 20
279.869
 11
7.09988
 21
279.903
  0
LINE
  8
0
 10
7.09988
 20
279.903
 11
6.84015
 21
279.969
  0
LINE
  8
0
 10
6.84015
 20
279.969
 11
6.59084
 21
280.068
  0
LINE
  8
0
 10
6.59084
 20
280.068
 11
6.35585
 21
280.197
  0
LINE
  8
0
 10
6.35585
 20
280.197
 11
6.1389
 21
280.355
  0
LINE
  8
0
 10
6.1389
 20
280.355
 11
5.94344
 21
280.538
  0
LINE
  8
0
 10
5.94344
 20
280.538
 11
5.77251
 21
280.745
  0
LINE
  8
0
 10
5.77251
 20
280.745
 11
5.62881
 21
280.971
  0
LINE
  8
0
 10
5.62881
 20
280.971
 11
5.51465
 21
281.214
  0
LINE
  8
0
 10
5.51465
 20
281.214
 11
5.43178
 21
281.469
  0
LINE
  8
0
 10
5.43178
 20
281.469
 11
5.38153
 21
281.732
  0
LINE
  8
0
 10
5.38153
 20
281.732
 11
5.3647
 21
282
  0
LINE
  8
0
 10
5.3647
 20
282
 11
5.38153
 21
282.268
  0
LINE
  8
0
 10
5.38153
 20
282.268
 11
5.43178
 21
282.531
  0
LINE
  8
0
 10
5.43178
 20
282.531
 11
5.51465
 21
282.786
  0
LINE
  8
0
 10
5.51465
 20
282.786
 11
5.62881
 21
283.029
  0
LINE
  8
0
 10
5.62881
 20
283.029
 11
5.77251
 21
283.255
  0
LINE
  8
0
 10
5.77251
 20
283.255
 11
5.94344
 21
283.462
  0
LINE
  8
0
 10
5.94344
 20
283.462
 11
6.1389
 21
283.645
  0
LINE
  8
0
 10
6.1389
 20
283.645
 11
6.35585
 21
283.803
  0
LINE
  8
0
 10
6.35585
 20
283.803
 11
6.59084
 21
283.932
  0
LINE
  8
0
 10
6.59084
 20
283.932
 11
6.84015
 21
284.031
  0
LINE
  8
0
 10
6.84015
 20
284.031
 11
7.09988
 21
284.097
  0
LINE
  8
0
 10
7.09988
 20
284.097
 11
7.36592
 21
284.131
  0
LINE
  8
0
 10
7.36592
 20
284.131
 11
7.63406
 21
284.131
  0
LINE
  8
0
 10
7.63406
 20
284.131
 11
7.9001
 21
284.097
  0
LINE
  8
0
 10
7.9001
 20
284.097
 11
8.15984
 21
284.031
  0
LINE
  8
0
 10
8.15984
 20
284.031
 11
8.40915
 21
283.932
  0
LINE
  8
0
 10
8.40915
 20
283.932
 11
8.64413
 21
283.803
  0
LINE
  8
0
 10
8.64413
 20
283.803
 11
8.86108
 21
283.645
  0
LINE
  8
0
 10
8.86108
 20
283.645
 11
9.05655
 21
283.462
  0
LINE
  8
0
 10
9.05655
 20
283.462
 11
9.22748
 21
283.255
  0
LINE
  8
0
 10
9.22748
 20
283.255
 11
9.37117
 21
283.029
  0
LINE
  8
0
 10
9.37117
 20
283.029
 11
9.48534
 21
282.786
  0
LINE
  8
0
 10
9.48534
 20
282.786
 11
9.56821
 21
282.531
  0
LINE
  8
0
 10
9.56821
 20
282.531
 11
9.61845
 21
282.268
  0
LINE
  8
0
 10
9.61845
 20
282.268
 11
9.63528
 21
282
  0
LINE
  8
0
 10
9.63528
 20
282
 11
9.61845
 21
281.732
  0
LINE
  8
0
 10
9.61845
 20
281.732
 11
9.56821
 21
281.469
  0
LINE
  8
0
 10
9.56821
 20
281.469
 11
9.48534
 21
281.214
  0
LINE
  8
0
 10
9.48534
 20
281.214
 11
9.37117
 21
280.971
  0
LINE
  8
0
 10
9.37117
 20
280.971
 11
9.22748
 21
280.745
  0
LINE
  8
0
 10
9.22748
 20
280.745
 11
9.05655
 21
280.538
  0
LINE
  8
0
 10
9.05655
 20
280.538
 11
8.86108
 21
280.355
  0
LINE
  8
0
 10
8.86108
 20
280.355
 11
8.64413
 21
280.197
  0
LINE
  8
0
 10
8.64413
 20
280.197
 11
8.40915
 21
280.068
  0
LINE
  8
0
 10
8.40915
 20
280.068
 11
8.15984
 21
279.969
  0
LINE
  8
0
 10
8.15984
 20
279.969
 11
7.9001
 21
279.903
  0
LINE
  8
0
 10
7.9001
 20
279.903
 11
7.63406
 21
279.869
  0
LINE
  8
0
 10
7.63406
 20
279.869
 11
7.36592
 21
279.869
  0
LINE
  8
0
 10
-7.63406
 20
279.869
 11
-7.9001
 21
279.903
  0
LINE
  8
0
 10
-7.9001
 20
279.903
 11
-8.15984
 21
279.969
  0
LINE
  8
0
 10
-8.15984
 20
279.969
 11
-8.40915
 21
280.068
  0
LINE
  8
0
 10
-8.40915
 20
280.068
 11
-8.64413
 21
280.197
  0
LINE
  8
0
 10
-8.64413
 20
280.197
 11
-8.86108
 21
280.355
  0
LINE
  8
0
 10
-8.86108
 20
280.355
 11
-9.05655
 21
280.538
  0
LINE
  8
0
 10
-9.05655
 20
280.538
 11
-9.22748
 21
280.745
  0
LINE
  8
0
 10
-9.22748
 20
280.745
 11
-9.37117
 21
280.971
  0
LINE
  8
0
 10
-9.37117
 20
280.971
 11
-9.48534
 21
281.214
  0
LINE
  8
0
 10
-9.48534
 20
281.214
 11
-9.56821
 21
281.469
  0
LINE
  8
0
 10
-9.56821
 20
281.469
 11
-9.61845
 21
281.732
  0
LINE
  8
0
 10
-9.61845
 20
281.732
 11
-9.63528
 21
282
  0
LINE
  8
0
 10
-9.63528
 20
282
 11
-9.61845
 21
282.268
  0
LINE
  8
0
 10
-9.61845
 20
282.268
 11
-9.56821
 21
282.531
  0
LINE
  8
0
 10
-9.56821
 20
282.531
 11
-9.48534
 21
282.786
  0
LINE
  8
0
 10
-9.48534
 20
282.786
 11
-9.37117
 21
283.029
  0
LINE
  8
0
 10
-9.37117
 20
283.029
 11
-9.22748
 21
283.255
  0
LINE
  8
0
 10
-9.22748
 20
283.255
 11
-9.05655
 21
283.462
  0
LINE
  8
0
 10
-9.05655
 20
283.462
 11
-8.86108
 21
283.645
  0
LINE
  8
0
 10
-8.86108
 20
283.645
 11
-8.64413
 21
283.803
  0
LINE
  8
0
 10
-8.64413
 20
283.803
 11
-8.40915
 21
283.932
  0
LINE
  8
0
 10
-8.40915
 20
283.932
 11
-8.15984
 21
284.031
  0
LINE
  8
0
 10
-8.15984
 20
284.031
 11
-7.9001
 21
284.097
  0
LINE
  8
0
 10
-7.9001
 20
284.097
 11
-7.63406
 21
284.131
  0
LINE
  8
0
 10
-7.63406
 20
284.131
 11
-7.36592
 21
284.131
  0
LINE
  8
0
 10
-7.36592
 20
284.131
 11
-7.09988
 21
284.097
  0
LINE
  8
0
 10
-7.09988
 20
284.097
 11
-6.84015
 21
284.031
  0
LINE
  8
0
 10
-6.84015
 20
284.031
 11
-6.59084
 21
283.932
  0
LINE
  8
0
 10
-6.59084
 20
283.932
 11
-6.35585
 21
283.803
  0
LINE
  8
0
 10
-6.35585
 20
283.803
 11
-6.1389
 21
283.645
  0
LINE
  8
0
 10
-6.1389
 20
283.645
 11
-5.94344
 21
283.462
  0
LINE
  8
0
 10
-5.94344
 20
283.462
 11
-5.77251
 21
283.255
  0
LINE
  8
0
 10
-5.77251
 20
283.255
 11
-5.62881
 21
283.029
  0
LINE
  8
0
 10
-5.62881
 20
283.029
 11
-5.51465
 21
282.786
  0
LINE
  8
0
 10
-5.51465
 20
282.786
 11
-5.43178
 21
282.531
  0
LINE
  8
0
 10
-5.43178
 20
282.531
 11
-5.38153
 21
282.268
  0
LINE
  8
0
 10
-5.38153
 20
282.268
 11
-5.3647
 21
282
  0
LINE
  8
0
 10
-5.3647
 20
282
 11
-5.38153
 21
281.732
  0
LINE
  8
0
 10
-5.38153
 20
281.732
 11
-5.43178
 21
281.469
  0
LINE
  8
0
 10
-5.43178
 20
281.469
 11
-5.51465
 21
281.214
  0
LINE
  8
0
 10
-5.51465
 20
281.214
 11
-5.62881
 21
280.971
  0
LINE
  8
0
 10
-5.62881
 20
280.971
 11
-5.77251
 21
280.745
  0
LINE
  8
0
 10
-5.77251
 20
280.745
 11
-5.94344
 21
280.538
  0
LINE
  8
0
 10
-5.94344
 20
280.538
 11
-6.1389
 21
280.355
  0
LINE
  8
0
 10
-6.1389
 20
280.355
 11
-6.35585
 21
280.197
  0
LINE
  8
0
 10
-6.35585
 20
280.197
 11
-6.59084
 21
280.068
  0
LINE
  8
0
 10
-6.59084
 20
280.068
 11
-6.84015
 21
279.969
  0
LINE
  8
0
 10
-6.84015
 20
279.969
 11
-7.09988
 21
279.903
  0
LINE
  8
0
 10
-7.09988
 20
279.903
 11
-7.36592
 21
279.869
  0
LINE
  8
0
 10
-7.36592
 20
279.869
 11
-7.63406
 21
279.869
  0
LINE
  8
0
 10
7.36592
 20
219.869
 11
7.09988
 21
219.903
  0
LINE
  8
0
 10
7.09988
 20
219.903
 11
6.84015
 21
219.969
  0
LINE
  8
0
 10
6.84015
 20
219.969
 11
6.59084
 21
220.068
  0
LINE
  8
0
 10
6.59084
 20
220.068
 11
6.35585
 21
220.197
  0
LINE
  8
0
 10
6.35585
 20
220.197
 11
6.1389
 21
220.355
  0
LINE
  8
0
 10
6.1389
 20
220.355
 11
5.94344
 21
220.538
  0
LINE
  8
0
 10
5.94344
 20
220.538
 11
5.77251
 21
220.745
  0
LINE
  8
0
 10
5.77251
 20
220.745
 11
5.62881
 21
220.971
  0
LINE
  8
0
 10
5.62881
 20
220.971
 11
5.51465
 21
221.214
  0
LINE
  8
0
 10
5.51465
 20
221.214
 11
5.43178
 21
221.469
  0
LINE
  8
0
 10
5.43178
 20
221.469
 11
5.38153
 21
221.732
  0
LINE
  8
0
 10
5.38153
 20
221.732
 11
5.3647
 21
222
  0
LINE
  8
0
 10
5.3647
 20
222
 11
5.38153
 21
222.268
  0
LINE
  8
0
 10
5.38153
 20
222.268
 11
5.43178
 21
222.531
  0
LINE
  8
0
 10
5.43178
 20
222.531
 11
5.51465
 21
222.786
  0
LINE
  8
0
 10
5.51465
 20
222.786
 11
5.62881
 21
223.029
  0
LINE
  8
0
 10
5.62881
 20
223.029
 11
5.77251
 21
223.255
  0
LINE
  8
0
 10
5.77251
 20
223.255
 11
5.94344
 21
223.462
  0
LINE
  8
0
 10
5.94344
 20
223.462
 11
6.1389
 21
223.645
  0
LINE
  8
0
 10
6.1389
 20
223.645
 11
6.35585
 21
223.803
  0
LINE
  8
0
 10
6.35585
 20
223.803
 11
6.59084
 21
223.932
  0
LINE
  8
0
 10
6.59084
 20
223.932
 11
6.84015
 21
224.031
  0
LINE
  8
0
 10
6.84015
 20
224.031
 11
7.09988
 21
224.097
  0
LINE
  8
0
 10
7.09988
 20
224.097
 11
7.36592
 21
224.131
  0
LINE
  8
0
 10
7.36592
 20
224.131
 11
7.63406
 21
224.131
  0
LINE
  8
0
 10
7.63406
 20
224.131
 11
7.9001
 21
224.097
  0
LINE
  8
0
 10
7.9001
 20
224.097
 11
8.15984
 21
224.031
  0
LINE
  8
0
 10
8.15984
 20
224.031
 11
8.40915
 21
223.932
  0
LINE
  8
0
 10
8.40915
 20
223.932
 11
8.64413
 21
223.803
  0
LINE
  8
0
 10
8.64413
 20
223.803
 11
8.86108
 21
223.645
  0
LINE
  8
0
 10
8.86108
 20
223.645
 11
9.05655
 21
223.462
  0
LINE
  8
0
 10
9.05655
 20
223.462
 11
9.22748
 21
223.255
  0
LINE
  8
0
 10
9.22748
 20
223.255
 11
9.37117
 21
223.029
  0
LINE
  8
0
 10
9.37117
 20
223.029
 11
9.48534
 21
222.786
  0
LINE
  8
0
 10
9.48534
 20
222.786
 11
9.56821
 21
222.531
  0
LINE
  8
0
 10
9.56821
 20
222.531
 11
9.61845
 21
222.268
  0
LINE
  8
0
 10
9.61845
 20
222.268
 11
9.63528
 21
222
  0
LINE
  8
0
 10
9.63528
 20
222
 11
9.61845
 21
221.732
  0
LINE
  8
0
 10
9.61845
 20
221.732
 11
9.56821
 21
221.469
  0
LINE
  8
0
 10
9.56821
 20
221.469
 11
9.48534
 21
221.214
  0
LINE
  8
0
 10
9.48534
 20
221.214
 11
9.37117
 21
220.971
  0
LINE
  8
0
 10
9.37117
 20
220.971
 11
9.22748
 21
220.745
  0
LINE
  8
0
 10
9.22748
 20
220.745
 11
9.05655
 21
220.538
  0
LINE
  8
0
 10
9.05655
 20
220.538
 11
8.86108
 21
220.355
  0
LINE
  8
0
 10
8.86108
 20
220.355
 11
8.64413
 21
220.197
  0
LINE
  8
0
 10
8.64413
 20
220.197
 11
8.40915
 21
220.068
  0
LINE
  8
0
 10
8.40915
 20
220.068
 11
8.15984
 21
219.969
  0
LINE
  8
0
 10
8.15984
 20
219.969
 11
7.9001
 21
219.903
  0
LINE
  8
0
 10
7.9001
 20
219.903
 11
7.63406
 21
219.869
  0
LINE
  8
0
 10
7.63406
 20
219.869
 11
7.36592
 21
219.869
  0
LINE
  8
0
 10
-7.63406
 20
219.869
 11
-7.9001
 21
219.903
  0
LINE
  8
0
 10
-7.9001
 20
219.903
 11
-8.15984
 21
219.969
  0
LINE
  8
0
 10
-8.15984
 20
219.969
 11
-8.40915
 21
220.068
  0
LINE
  8
0
 10
-8.40915
 20
220.068
 11
-8.64413
 21
220.197
  0
LINE
  8
0
 10
-8.64413
 20
220.197
 11
-8.86108
 21
220.355
  0
LINE
  8
0
 10
-8.86108
 20
220.355
 11
-9.05655
 21
220.538
  0
LINE
  8
0
 10
-9.05655
 20
220.538
 11
-9.22748
 21
220.745
  0
LINE
  8
0
 10
-9.22748
 20
220.745
 11
-9.37117
 21
220.971
  0
LINE
  8
0
 10
-9.37117
 20
220.971
 11
-9.48534
 21
221.214
  0
LINE
  8
0
 10
-9.48534
 20
221.214
 11
-9.56821
 21
221.469
  0
LINE
  8
0
 10
-9.56821
 20
221.469
 11
-9.61845
 21
221.732
  0
LINE
  8
0
 10
-9.61845
 20
221.732
 11
-9.63528
 21
222
  0
LINE
  8
0
 10
-9.63528
 20
222
 11
-9.61845
 21
222.268
  0
LINE
  8
0
 10
-9.61845
 20
222.268
 11
-9.56821
 21
222.531
  0
LINE
  8
0
 10
-9.56821
 20
222.531
 11
-9.48534
 21
222.786
  0
LINE
  8
0
 10
-9.48534
 20
222.786
 11
-9.37117
 21
223.029
  0
LINE
  8
0
 10
-9.37117
 20
223.029
 11
-9.22748
 21
223.255
  0
LINE
  8
0
 10
-9.22748
 20
223.255
 11
-9.05655
 21
223.462
  0
LINE
  8
0
 10
-9.05655
 20
223.462
 11
-8.86108
 21
223.645
  0
LINE
  8
0
 10
-8.86108
 20
223.645
 11
-8.64413
 21
223.803
  0
LINE
  8
0
 10
-8.64413
 20
223.803
 11
-8.40915
 21
223.932
  0
LINE
  8
0
 10
-8.40915
 20
223.932
 11
-8.15984
 21
224.031
  0
LINE
  8
0
 10
-8.15984
 20
224.031
 11
-7.9001
 21
224.097
  0
LINE
  8
0
 10
-7.9001
 20
224.097
 11
-7.63406
 21
224.131
  0
LINE
  8
0
 10
-7.63406
 20
224.131
 11
-7.36592
 21
224.131
  0
LINE
  8
0
 10
-7.36592
 20
224.131
 11
-7.09988
 21
224.097
  0
LINE
  8
0
 10
-7.09988
 20
224.097
 11
-6.84015
 21
224.031
  0
LINE
  8
0
 10
-6.84015
 20
224.031
 11
-6.59084
 21
223.932
  0
LINE
  8
0
 10
-6.59084
 20
223.932
 11
-6.35585
 21
223.803
  0
LINE
  8
0
 10
-6.35585
 20
223.803
 11
-6.1389
 21
223.645
  0
LINE
  8
0
 10
-6.1389
 20
223.645
 11
-5.94344
 21
223.462
  0
LINE
  8
0
 10
-5.94344
 20
223.462
 11
-5.77251
 21
223.255
  0
LINE
  8
0
 10
-5.77251
 20
223.255
 11
-5.62881
 21
223.029
  0
LINE
  8
0
 10
-5.62881
 20
223.029
 11
-5.51465
 21
222.786
  0
LINE
  8
0
 10
-5.51465
 20
222.786
 11
-5.43178
 21
222.531
  0
LINE
  8
0
 10
-5.43178
 20
222.531
 11
-5.38153
 21
222.268
  0
LINE
  8
0
 10
-5.38153
 20
222.268
 11
-5.3647
 21
222
  0
LINE
  8
0
 10
-5.3647
 20
222
 11
-5.38153
 21
221.732
  0
LINE
  8
0
 10
-5.38153
 20
221.732
 11
-5.43178
 21
221.469
  0
LINE
  8
0
 10
-5.43178
 20
221.469
 11
-5.51465
 21
221.214
  0
LINE
  8
0
 10
-5.51465
 20
221.214
 11
-5.62881
 21
220.971
  0
LINE
  8
0
 10
-5.62881
 20
220.971
 11
-5.77251
 21
220.745
  0
LINE
  8
0
 10
-5.77251
 20
220.745
 11
-5.94344
 21
220.538
  0
LINE
  8
0
 10
-5.94344
 20
220.538
 11
-6.1389
 21
220.355
  0
LINE
  8
0
 10
-6.1389
 20
220.355
 11
-6.35585
 21
220.197
  0
LINE
  8
0
 10
-6.35585
 20
220.197
 11
-6.59084
 21
220.068
  0
LINE
  8
0
 10
-6.59084
 20
220.068
 11
-6.84015
 21
219.969
  0
LINE
  8
0
 10
-6.84015
 20
219.969
 11
-7.09988
 21
219.903
  0
LINE
  8
0
 10
-7.09988
 20
219.903
 11
-7.36592
 21
219.869
  0
LINE
  8
0
 10
-7.36592
 20
219.869
 11
-7.63406
 21
219.869
  0
ENDSEC
  0
SECTION
  2
OBJECTS
  0
DICTIONARY
  0
ENDSEC
  0
EOF
