<?xml version="1.0" standalone="no"?>
<!DOCTYPE svg PUBLIC "-//W3C//DTD SVG 1.1//EN" "http://www.w3.org/Graphics/SVG/1.1/DTD/svg11.dtd">
<svg width="16mm" height="309mm" viewBox="-8 -393 16 309" xmlns="http://www.w3.org/2000/svg" version="1.1">
<title>OpenSCAD Model</title>
<path d="
M 3.4369,-243.089 L 4.04507,-243.245 L 4.62889,-243.476 L 5.17912,-243.778 L 5.68712,-244.147 L 6.14484,-244.577
 L 6.54507,-245.061 L 6.88153,-245.591 L 7.14888,-246.159 L 7.34291,-246.757 L 7.46057,-247.373 L 7.5,-248
 L 7.5,-388 L 7.46057,-388.627 L 7.34291,-389.243 L 7.14888,-389.841 L 6.88153,-390.409 L 6.54507,-390.939
 L 6.14484,-391.423 L 5.68712,-391.853 L 5.17912,-392.222 L 4.62889,-392.524 L 4.04507,-392.755 L 3.4369,-392.911
 L 2.81395,-392.99 L -2.81395,-392.99 L -3.4369,-392.911 L -4.04507,-392.755 L -4.62889,-392.524 L -5.17912,-392.222
 L -5.68712,-391.853 L -6.14484,-391.423 L -6.54507,-390.939 L -6.88153,-390.409 L -7.14888,-389.841 L -7.34291,-389.243
 L -7.46057,-388.627 L -7.5,-388 L -7.5,-248 L -7.46057,-247.373 L -7.34291,-246.757 L -7.14888,-246.159
 L -6.88153,-245.591 L -6.54507,-245.061 L -6.14484,-244.577 L -5.68712,-244.147 L -5.17912,-243.778 L -4.62889,-243.476
 L -4.04507,-243.245 L -3.4369,-243.089 L -2.81395,-243.01 L 2.81395,-243.01 z
M 3.4369,-84.0886 L 4.04507,-84.2447 L 4.62889,-84.4759 L 5.17912,-84.7784 L 5.68712,-85.1474 L 6.14484,-85.5773
 L 6.54507,-86.0611 L 6.88153,-86.5912 L 7.14888,-87.1594 L 7.34291,-87.7566 L 7.46057,-88.3733 L 7.5,-89
 L 7.5,-229 L 7.46057,-229.627 L 7.34291,-230.243 L 7.14888,-230.841 L 6.88153,-231.409 L 6.54507,-231.939
 L 6.14484,-232.423 L 5.68712,-232.853 L 5.17912,-233.222 L 4.62889,-233.524 L 4.04507,-233.755 L 3.4369,-233.911
 L 2.81395,-233.99 L -2.81395,-233.99 L -3.4369,-233.911 L -4.04507,-233.755 L -4.62889,-233.524 L -5.17912,-233.222
 L -5.68712,-232.853 L -6.14484,-232.423 L -6.54507,-231.939 L -6.88153,-231.409 L -7.14888,-230.841 L -7.34291,-230.243
 L -7.46057,-229.627 L -7.5,-229 L -7.5,-89 L -7.46057,-88.3733 L -7.34291,-87.7566 L -7.14888,-87.1594
 L -6.88153,-86.5912 L -6.54507,-86.0611 L -6.14484,-85.5773 L -5.68712,-85.1474 L -5.17912,-84.7784 L -4.62889,-84.4759
 L -4.04507,-84.2447 L -3.4369,-84.0886 L -2.81395,-84.0099 L 2.81395,-84.0099 z
M -0.113022,-224.704 L -0.33728,-224.732 L -0.556229,-224.788 L -0.766388,-224.871 L -0.964478,-224.98 L -1.14735,-225.113
 L -1.31213,-225.268 L -1.45622,-225.442 L -1.57735,-225.633 L -1.67358,-225.837 L -1.74344,-226.052 L -1.7858,-226.274
 L -1.79999,-226.5 L -1.7858,-226.726 L -1.74344,-226.948 L -1.67358,-227.163 L -1.57735,-227.367 L -1.45622,-227.558
 L -1.31213,-227.732 L -1.14735,-227.887 L -0.964478,-228.02 L -0.766388,-228.129 L -0.556229,-228.212 L -0.33728,-228.268
 L -0.113022,-228.296 L 0.113022,-228.296 L 0.33728,-228.268 L 0.556229,-228.212 L 0.766388,-228.129 L 0.964478,-228.02
 L 1.14735,-227.887 L 1.31213,-227.732 L 1.45622,-227.558 L 1.57735,-227.367 L 1.67358,-227.163 L 1.74344,-226.948
 L 1.7858,-226.726 L 1.79999,-226.5 L 1.7858,-226.274 L 1.74344,-226.052 L 1.67358,-225.837 L 1.57735,-225.633
 L 1.45622,-225.442 L 1.31213,-225.268 L 1.14735,-225.113 L 0.964478,-224.98 L 0.766388,-224.871 L 0.556229,-224.788
 L 0.33728,-224.732 L 0.113022,-224.704 z
M -0.113022,-89.7036 L -0.33728,-89.7319 L -0.556229,-89.7881 L -0.766388,-89.8713 L -0.964478,-89.9802 L -1.14735,-90.1131
 L -1.31213,-90.2678 L -1.45622,-90.442 L -1.57735,-90.6328 L -1.67358,-90.8374 L -1.74344,-91.0524 L -1.7858,-91.2744
 L -1.79999,-91.5 L -1.7858,-91.7256 L -1.74344,-91.9476 L -1.67358,-92.1626 L -1.57735,-92.3672 L -1.45622,-92.558
 L -1.31213,-92.7322 L -1.14735,-92.8869 L -0.964478,-93.0198 L -0.766388,-93.1287 L -0.556229,-93.2119 L -0.33728,-93.2681
 L -0.113022,-93.2964 L 0.113022,-93.2964 L 0.33728,-93.2681 L 0.556229,-93.2119 L 0.766388,-93.1287 L 0.964478,-93.0198
 L 1.14735,-92.8869 L 1.31213,-92.7322 L 1.45622,-92.558 L 1.57735,-92.3672 L 1.67358,-92.1626 L 1.74344,-91.9476
 L 1.7858,-91.7256 L 1.79999,-91.5 L 1.7858,-91.2744 L 1.74344,-91.0524 L 1.67358,-90.8374 L 1.57735,-90.6328
 L 1.45622,-90.442 L 1.31213,-90.2678 L 1.14735,-90.1131 L 0.964478,-89.9802 L 0.766388,-89.8713 L 0.556229,-89.7881
 L 0.33728,-89.7319 L 0.113022,-89.7036 z
" stroke="black" fill="lightgray" stroke-width="0.5"/>
</svg>
