  0
SECTION
  2
BLOCKS
  0
ENDSEC
  0
SECTION
  2
ENTITIES
  0
LINE
  8
0
 10
48.4369
 20
64.5886
 11
49.0451
 21
64.7447
  0
LINE
  8
0
 10
49.0451
 20
64.7447
 11
49.6289
 21
64.9759
  0
LINE
  8
0
 10
49.6289
 20
64.9759
 11
50.1791
 21
65.2784
  0
LINE
  8
0
 10
50.1791
 20
65.2784
 11
50.6871
 21
65.6474
  0
LINE
  8
0
 10
50.6871
 20
65.6474
 11
51.1448
 21
66.0773
  0
LINE
  8
0
 10
51.1448
 20
66.0773
 11
51.5451
 21
66.5611
  0
LINE
  8
0
 10
51.5451
 20
66.5611
 11
51.8815
 21
67.0912
  0
LINE
  8
0
 10
51.8815
 20
67.0912
 11
52.1489
 21
67.6594
  0
LINE
  8
0
 10
52.1489
 20
67.6594
 11
52.3429
 21
68.2566
  0
LINE
  8
0
 10
52.3429
 20
68.2566
 11
52.4606
 21
68.8733
  0
LINE
  8
0
 10
52.4606
 20
68.8733
 11
52.5
 21
69.5
  0
LINE
  8
0
 10
52.5
 20
69.5
 11
52.5
 21
74.5
  0
LINE
  8
0
 10
52.5
 20
74.5
 11
52.4606
 21
75.1267
  0
LINE
  8
0
 10
52.4606
 20
75.1267
 11
52.3429
 21
75.7434
  0
LINE
  8
0
 10
52.3429
 20
75.7434
 11
52.1489
 21
76.3406
  0
LINE
  8
0
 10
52.1489
 20
76.3406
 11
51.8815
 21
76.9088
  0
LINE
  8
0
 10
51.8815
 20
76.9088
 11
51.5451
 21
77.4389
  0
LINE
  8
0
 10
51.5451
 20
77.4389
 11
51.1448
 21
77.9227
  0
LINE
  8
0
 10
51.1448
 20
77.9227
 11
50.6871
 21
78.3526
  0
LINE
  8
0
 10
50.6871
 20
78.3526
 11
50.1791
 21
78.7216
  0
LINE
  8
0
 10
50.1791
 20
78.7216
 11
49.6289
 21
79.0241
  0
LINE
  8
0
 10
49.6289
 20
79.0241
 11
49.0451
 21
79.2553
  0
LINE
  8
0
 10
49.0451
 20
79.2553
 11
48.4369
 21
79.4114
  0
LINE
  8
0
 10
48.4369
 20
79.4114
 11
47.8139
 21
79.4901
  0
LINE
  8
0
 10
47.8139
 20
79.4901
 11
-47.8139
 21
79.4901
  0
LINE
  8
0
 10
-47.8139
 20
79.4901
 11
-48.4369
 21
79.4114
  0
LINE
  8
0
 10
-48.4369
 20
79.4114
 11
-49.0451
 21
79.2553
  0
LINE
  8
0
 10
-49.0451
 20
79.2553
 11
-49.6289
 21
79.0241
  0
LINE
  8
0
 10
-49.6289
 20
79.0241
 11
-50.1791
 21
78.7216
  0
LINE
  8
0
 10
-50.1791
 20
78.7216
 11
-50.6871
 21
78.3526
  0
LINE
  8
0
 10
-50.6871
 20
78.3526
 11
-51.1448
 21
77.9227
  0
LINE
  8
0
 10
-51.1448
 20
77.9227
 11
-51.5451
 21
77.4389
  0
LINE
  8
0
 10
-51.5451
 20
77.4389
 11
-51.8815
 21
76.9088
  0
LINE
  8
0
 10
-51.8815
 20
76.9088
 11
-52.1489
 21
76.3406
  0
LINE
  8
0
 10
-52.1489
 20
76.3406
 11
-52.3429
 21
75.7434
  0
LINE
  8
0
 10
-52.3429
 20
75.7434
 11
-52.4606
 21
75.1267
  0
LINE
  8
0
 10
-52.4606
 20
75.1267
 11
-52.5
 21
74.5
  0
LINE
  8
0
 10
-52.5
 20
74.5
 11
-52.5
 21
69.5
  0
LINE
  8
0
 10
-52.5
 20
69.5
 11
-52.4606
 21
68.8733
  0
LINE
  8
0
 10
-52.4606
 20
68.8733
 11
-52.3429
 21
68.2566
  0
LINE
  8
0
 10
-52.3429
 20
68.2566
 11
-52.1489
 21
67.6594
  0
LINE
  8
0
 10
-52.1489
 20
67.6594
 11
-51.8815
 21
67.0912
  0
LINE
  8
0
 10
-51.8815
 20
67.0912
 11
-51.5451
 21
66.5611
  0
LINE
  8
0
 10
-51.5451
 20
66.5611
 11
-51.1448
 21
66.0773
  0
LINE
  8
0
 10
-51.1448
 20
66.0773
 11
-50.6871
 21
65.6474
  0
LINE
  8
0
 10
-50.6871
 20
65.6474
 11
-50.1791
 21
65.2784
  0
LINE
  8
0
 10
-50.1791
 20
65.2784
 11
-49.6289
 21
64.9759
  0
LINE
  8
0
 10
-49.6289
 20
64.9759
 11
-49.0451
 21
64.7447
  0
LINE
  8
0
 10
-49.0451
 20
64.7447
 11
-48.4369
 21
64.5886
  0
LINE
  8
0
 10
-48.4369
 20
64.5886
 11
-47.8139
 21
64.5099
  0
LINE
  8
0
 10
-47.8139
 20
64.5099
 11
47.8139
 21
64.5099
  0
LINE
  8
0
 10
47.8139
 20
64.5099
 11
48.4369
 21
64.5886
  0
LINE
  8
0
 10
-47.5375
 20
65.1806
 11
-48.1079
 21
65.2527
  0
LINE
  8
0
 10
-48.1079
 20
65.2527
 11
-48.6648
 21
65.3956
  0
LINE
  8
0
 10
-48.6648
 20
65.3956
 11
-49.1994
 21
65.6073
  0
LINE
  8
0
 10
-49.1994
 20
65.6073
 11
-49.7032
 21
65.8843
  0
LINE
  8
0
 10
-49.7032
 20
65.8843
 11
-50.1684
 21
66.2223
  0
LINE
  8
0
 10
-50.1684
 20
66.2223
 11
-50.5875
 21
66.6158
  0
LINE
  8
0
 10
-50.5875
 20
66.6158
 11
-50.954
 21
67.0589
  0
LINE
  8
0
 10
-50.954
 20
67.0589
 11
-51.2621
 21
67.5443
  0
LINE
  8
0
 10
-51.2621
 20
67.5443
 11
-51.5069
 21
68.0646
  0
LINE
  8
0
 10
-51.5069
 20
68.0646
 11
-51.6846
 21
68.6114
  0
LINE
  8
0
 10
-51.6846
 20
68.6114
 11
-51.7923
 21
69.1762
  0
LINE
  8
0
 10
-51.7923
 20
69.1762
 11
-51.8284
 21
69.75
  0
LINE
  8
0
 10
-51.8284
 20
69.75
 11
-51.8284
 21
74.25
  0
LINE
  8
0
 10
-51.8284
 20
74.25
 11
-51.7923
 21
74.8238
  0
LINE
  8
0
 10
-51.7923
 20
74.8238
 11
-51.6846
 21
75.3886
  0
LINE
  8
0
 10
-51.6846
 20
75.3886
 11
-51.5069
 21
75.9354
  0
LINE
  8
0
 10
-51.5069
 20
75.9354
 11
-51.2621
 21
76.4557
  0
LINE
  8
0
 10
-51.2621
 20
76.4557
 11
-50.954
 21
76.9411
  0
LINE
  8
0
 10
-50.954
 20
76.9411
 11
-50.5875
 21
77.3842
  0
LINE
  8
0
 10
-50.5875
 20
77.3842
 11
-50.1684
 21
77.7777
  0
LINE
  8
0
 10
-50.1684
 20
77.7777
 11
-49.7032
 21
78.1157
  0
LINE
  8
0
 10
-49.7032
 20
78.1157
 11
-49.1994
 21
78.3927
  0
LINE
  8
0
 10
-49.1994
 20
78.3927
 11
-48.6648
 21
78.6044
  0
LINE
  8
0
 10
-48.6648
 20
78.6044
 11
-48.1079
 21
78.7473
  0
LINE
  8
0
 10
-48.1079
 20
78.7473
 11
-47.5375
 21
78.8194
  0
LINE
  8
0
 10
-47.5375
 20
78.8194
 11
47.5375
 21
78.8194
  0
LINE
  8
0
 10
47.5375
 20
78.8194
 11
48.1079
 21
78.7473
  0
LINE
  8
0
 10
48.1079
 20
78.7473
 11
48.6648
 21
78.6044
  0
LINE
  8
0
 10
48.6648
 20
78.6044
 11
49.1994
 21
78.3927
  0
LINE
  8
0
 10
49.1994
 20
78.3927
 11
49.7032
 21
78.1157
  0
LINE
  8
0
 10
49.7032
 20
78.1157
 11
50.1684
 21
77.7777
  0
LINE
  8
0
 10
50.1684
 20
77.7777
 11
50.5875
 21
77.3842
  0
LINE
  8
0
 10
50.5875
 20
77.3842
 11
50.954
 21
76.9411
  0
LINE
  8
0
 10
50.954
 20
76.9411
 11
51.2621
 21
76.4557
  0
LINE
  8
0
 10
51.2621
 20
76.4557
 11
51.5069
 21
75.9354
  0
LINE
  8
0
 10
51.5069
 20
75.9354
 11
51.6846
 21
75.3886
  0
LINE
  8
0
 10
51.6846
 20
75.3886
 11
51.7923
 21
74.8238
  0
LINE
  8
0
 10
51.7923
 20
74.8238
 11
51.8284
 21
74.25
  0
LINE
  8
0
 10
51.8284
 20
74.25
 11
51.8284
 21
69.75
  0
LINE
  8
0
 10
51.8284
 20
69.75
 11
51.7923
 21
69.1762
  0
LINE
  8
0
 10
51.7923
 20
69.1762
 11
51.6846
 21
68.6114
  0
LINE
  8
0
 10
51.6846
 20
68.6114
 11
51.5069
 21
68.0646
  0
LINE
  8
0
 10
51.5069
 20
68.0646
 11
51.2621
 21
67.5443
  0
LINE
  8
0
 10
51.2621
 20
67.5443
 11
50.954
 21
67.0589
  0
LINE
  8
0
 10
50.954
 20
67.0589
 11
50.5875
 21
66.6158
  0
LINE
  8
0
 10
50.5875
 20
66.6158
 11
50.1684
 21
66.2223
  0
LINE
  8
0
 10
50.1684
 20
66.2223
 11
49.7032
 21
65.8843
  0
LINE
  8
0
 10
49.7032
 20
65.8843
 11
49.1994
 21
65.6073
  0
LINE
  8
0
 10
49.1994
 20
65.6073
 11
48.6648
 21
65.3956
  0
LINE
  8
0
 10
48.6648
 20
65.3956
 11
48.1079
 21
65.2527
  0
LINE
  8
0
 10
48.1079
 20
65.2527
 11
47.5375
 21
65.1806
  0
LINE
  8
0
 10
47.5375
 20
65.1806
 11
-47.5375
 21
65.1806
  0
LINE
  8
0
 10
48.4369
 20
40.5886
 11
49.0451
 21
40.7447
  0
LINE
  8
0
 10
49.0451
 20
40.7447
 11
49.6289
 21
40.9759
  0
LINE
  8
0
 10
49.6289
 20
40.9759
 11
50.1791
 21
41.2784
  0
LINE
  8
0
 10
50.1791
 20
41.2784
 11
50.6871
 21
41.6474
  0
LINE
  8
0
 10
50.6871
 20
41.6474
 11
51.1448
 21
42.0773
  0
LINE
  8
0
 10
51.1448
 20
42.0773
 11
51.5451
 21
42.5611
  0
LINE
  8
0
 10
51.5451
 20
42.5611
 11
51.8815
 21
43.0912
  0
LINE
  8
0
 10
51.8815
 20
43.0912
 11
52.1489
 21
43.6594
  0
LINE
  8
0
 10
52.1489
 20
43.6594
 11
52.3429
 21
44.2566
  0
LINE
  8
0
 10
52.3429
 20
44.2566
 11
52.4606
 21
44.8733
  0
LINE
  8
0
 10
52.4606
 20
44.8733
 11
52.5
 21
45.5
  0
LINE
  8
0
 10
52.5
 20
45.5
 11
52.5
 21
50.5
  0
LINE
  8
0
 10
52.5
 20
50.5
 11
52.4606
 21
51.1267
  0
LINE
  8
0
 10
52.4606
 20
51.1267
 11
52.3429
 21
51.7434
  0
LINE
  8
0
 10
52.3429
 20
51.7434
 11
52.1489
 21
52.3406
  0
LINE
  8
0
 10
52.1489
 20
52.3406
 11
51.8815
 21
52.9088
  0
LINE
  8
0
 10
51.8815
 20
52.9088
 11
51.5451
 21
53.4389
  0
LINE
  8
0
 10
51.5451
 20
53.4389
 11
51.1448
 21
53.9227
  0
LINE
  8
0
 10
51.1448
 20
53.9227
 11
50.6871
 21
54.3526
  0
LINE
  8
0
 10
50.6871
 20
54.3526
 11
50.1791
 21
54.7216
  0
LINE
  8
0
 10
50.1791
 20
54.7216
 11
49.6289
 21
55.0241
  0
LINE
  8
0
 10
49.6289
 20
55.0241
 11
49.0451
 21
55.2553
  0
LINE
  8
0
 10
49.0451
 20
55.2553
 11
48.4369
 21
55.4114
  0
LINE
  8
0
 10
48.4369
 20
55.4114
 11
47.8139
 21
55.4901
  0
LINE
  8
0
 10
47.8139
 20
55.4901
 11
-47.8139
 21
55.4901
  0
LINE
  8
0
 10
-47.8139
 20
55.4901
 11
-48.4369
 21
55.4114
  0
LINE
  8
0
 10
-48.4369
 20
55.4114
 11
-49.0451
 21
55.2553
  0
LINE
  8
0
 10
-49.0451
 20
55.2553
 11
-49.6289
 21
55.0241
  0
LINE
  8
0
 10
-49.6289
 20
55.0241
 11
-50.1791
 21
54.7216
  0
LINE
  8
0
 10
-50.1791
 20
54.7216
 11
-50.6871
 21
54.3526
  0
LINE
  8
0
 10
-50.6871
 20
54.3526
 11
-51.1448
 21
53.9227
  0
LINE
  8
0
 10
-51.1448
 20
53.9227
 11
-51.5451
 21
53.4389
  0
LINE
  8
0
 10
-51.5451
 20
53.4389
 11
-51.8815
 21
52.9088
  0
LINE
  8
0
 10
-51.8815
 20
52.9088
 11
-52.1489
 21
52.3406
  0
LINE
  8
0
 10
-52.1489
 20
52.3406
 11
-52.3429
 21
51.7434
  0
LINE
  8
0
 10
-52.3429
 20
51.7434
 11
-52.4606
 21
51.1267
  0
LINE
  8
0
 10
-52.4606
 20
51.1267
 11
-52.5
 21
50.5
  0
LINE
  8
0
 10
-52.5
 20
50.5
 11
-52.5
 21
45.5
  0
LINE
  8
0
 10
-52.5
 20
45.5
 11
-52.4606
 21
44.8733
  0
LINE
  8
0
 10
-52.4606
 20
44.8733
 11
-52.3429
 21
44.2566
  0
LINE
  8
0
 10
-52.3429
 20
44.2566
 11
-52.1489
 21
43.6594
  0
LINE
  8
0
 10
-52.1489
 20
43.6594
 11
-51.8815
 21
43.0912
  0
LINE
  8
0
 10
-51.8815
 20
43.0912
 11
-51.5451
 21
42.5611
  0
LINE
  8
0
 10
-51.5451
 20
42.5611
 11
-51.1448
 21
42.0773
  0
LINE
  8
0
 10
-51.1448
 20
42.0773
 11
-50.6871
 21
41.6474
  0
LINE
  8
0
 10
-50.6871
 20
41.6474
 11
-50.1791
 21
41.2784
  0
LINE
  8
0
 10
-50.1791
 20
41.2784
 11
-49.6289
 21
40.9759
  0
LINE
  8
0
 10
-49.6289
 20
40.9759
 11
-49.0451
 21
40.7447
  0
LINE
  8
0
 10
-49.0451
 20
40.7447
 11
-48.4369
 21
40.5886
  0
LINE
  8
0
 10
-48.4369
 20
40.5886
 11
-47.8139
 21
40.5099
  0
LINE
  8
0
 10
-47.8139
 20
40.5099
 11
47.8139
 21
40.5099
  0
LINE
  8
0
 10
47.8139
 20
40.5099
 11
48.4369
 21
40.5886
  0
LINE
  8
0
 10
-47.3825
 20
43.6445
 11
-47.6453
 21
43.6777
  0
LINE
  8
0
 10
-47.6453
 20
43.6777
 11
-47.9019
 21
43.7436
  0
LINE
  8
0
 10
-47.9019
 20
43.7436
 11
-48.1482
 21
43.8412
  0
LINE
  8
0
 10
-48.1482
 20
43.8412
 11
-48.3804
 21
43.9688
  0
LINE
  8
0
 10
-48.3804
 20
43.9688
 11
-48.5947
 21
44.1245
  0
LINE
  8
0
 10
-48.5947
 20
44.1245
 11
-48.7879
 21
44.3059
  0
LINE
  8
0
 10
-48.7879
 20
44.3059
 11
-48.9567
 21
44.51
  0
LINE
  8
0
 10
-48.9567
 20
44.51
 11
-49.0987
 21
44.7337
  0
LINE
  8
0
 10
-49.0987
 20
44.7337
 11
-49.2115
 21
44.9734
  0
LINE
  8
0
 10
-49.2115
 20
44.9734
 11
-49.2934
 21
45.2254
  0
LINE
  8
0
 10
-49.2934
 20
45.2254
 11
-49.343
 21
45.4856
  0
LINE
  8
0
 10
-49.343
 20
45.4856
 11
-49.3596
 21
45.75
  0
LINE
  8
0
 10
-49.3596
 20
45.75
 11
-49.3596
 21
50.25
  0
LINE
  8
0
 10
-49.3596
 20
50.25
 11
-49.343
 21
50.5144
  0
LINE
  8
0
 10
-49.343
 20
50.5144
 11
-49.2934
 21
50.7746
  0
LINE
  8
0
 10
-49.2934
 20
50.7746
 11
-49.2115
 21
51.0266
  0
LINE
  8
0
 10
-49.2115
 20
51.0266
 11
-49.0987
 21
51.2663
  0
LINE
  8
0
 10
-49.0987
 20
51.2663
 11
-48.9567
 21
51.49
  0
LINE
  8
0
 10
-48.9567
 20
51.49
 11
-48.7879
 21
51.6941
  0
LINE
  8
0
 10
-48.7879
 20
51.6941
 11
-48.5947
 21
51.8755
  0
LINE
  8
0
 10
-48.5947
 20
51.8755
 11
-48.3804
 21
52.0312
  0
LINE
  8
0
 10
-48.3804
 20
52.0312
 11
-48.1482
 21
52.1588
  0
LINE
  8
0
 10
-48.1482
 20
52.1588
 11
-47.9019
 21
52.2564
  0
LINE
  8
0
 10
-47.9019
 20
52.2564
 11
-47.6453
 21
52.3223
  0
LINE
  8
0
 10
-47.6453
 20
52.3223
 11
-47.3825
 21
52.3555
  0
LINE
  8
0
 10
-47.3825
 20
52.3555
 11
47.3825
 21
52.3555
  0
LINE
  8
0
 10
47.3825
 20
52.3555
 11
47.6453
 21
52.3223
  0
LINE
  8
0
 10
47.6453
 20
52.3223
 11
47.9019
 21
52.2564
  0
LINE
  8
0
 10
47.9019
 20
52.2564
 11
48.1482
 21
52.1588
  0
LINE
  8
0
 10
48.1482
 20
52.1588
 11
48.3804
 21
52.0312
  0
LINE
  8
0
 10
48.3804
 20
52.0312
 11
48.5947
 21
51.8755
  0
LINE
  8
0
 10
48.5947
 20
51.8755
 11
48.7879
 21
51.6941
  0
LINE
  8
0
 10
48.7879
 20
51.6941
 11
48.9567
 21
51.49
  0
LINE
  8
0
 10
48.9567
 20
51.49
 11
49.0987
 21
51.2663
  0
LINE
  8
0
 10
49.0987
 20
51.2663
 11
49.2115
 21
51.0266
  0
LINE
  8
0
 10
49.2115
 20
51.0266
 11
49.2934
 21
50.7746
  0
LINE
  8
0
 10
49.2934
 20
50.7746
 11
49.343
 21
50.5144
  0
LINE
  8
0
 10
49.343
 20
50.5144
 11
49.3596
 21
50.25
  0
LINE
  8
0
 10
49.3596
 20
50.25
 11
49.3596
 21
45.75
  0
LINE
  8
0
 10
49.3596
 20
45.75
 11
49.343
 21
45.4856
  0
LINE
  8
0
 10
49.343
 20
45.4856
 11
49.2934
 21
45.2254
  0
LINE
  8
0
 10
49.2934
 20
45.2254
 11
49.2115
 21
44.9734
  0
LINE
  8
0
 10
49.2115
 20
44.9734
 11
49.0987
 21
44.7337
  0
LINE
  8
0
 10
49.0987
 20
44.7337
 11
48.9567
 21
44.51
  0
LINE
  8
0
 10
48.9567
 20
44.51
 11
48.7879
 21
44.3059
  0
LINE
  8
0
 10
48.7879
 20
44.3059
 11
48.5947
 21
44.1245
  0
LINE
  8
0
 10
48.5947
 20
44.1245
 11
48.3804
 21
43.9688
  0
LINE
  8
0
 10
48.3804
 20
43.9688
 11
48.1482
 21
43.8412
  0
LINE
  8
0
 10
48.1482
 20
43.8412
 11
47.9019
 21
43.7436
  0
LINE
  8
0
 10
47.9019
 20
43.7436
 11
47.6453
 21
43.6777
  0
LINE
  8
0
 10
47.6453
 20
43.6777
 11
47.3825
 21
43.6445
  0
LINE
  8
0
 10
47.3825
 20
43.6445
 11
-47.3825
 21
43.6445
  0
ENDSEC
  0
SECTION
  2
OBJECTS
  0
DICTIONARY
  0
ENDSEC
  0
EOF
