<?xml version="1.0" standalone="no"?>
<!DOCTYPE svg PUBLIC "-//W3C//DTD SVG 1.1//EN" "http://www.w3.org/Graphics/SVG/1.1/DTD/svg11.dtd">
<svg width="16mm" height="336mm" viewBox="-8 -651 16 336" xmlns="http://www.w3.org/2000/svg" version="1.1">
<title>OpenSCAD Model</title>
<path d="
M 3.4369,-591.089 L 4.04507,-591.245 L 4.62889,-591.476 L 5.17912,-591.778 L 5.68712,-592.147 L 6.14484,-592.577
 L 6.54507,-593.061 L 6.88153,-593.591 L 7.14888,-594.159 L 7.34291,-594.757 L 7.46057,-595.373 L 7.5,-596
 L 7.5,-646 L 7.46057,-646.627 L 7.34291,-647.243 L 7.14888,-647.841 L 6.88153,-648.409 L 6.54507,-648.939
 L 6.14484,-649.423 L 5.68712,-649.853 L 5.17912,-650.222 L 4.62889,-650.524 L 4.04507,-650.755 L 3.4369,-650.911
 L 2.81395,-650.99 L -2.81395,-650.99 L -3.4369,-650.911 L -4.04507,-650.755 L -4.62889,-650.524 L -5.17912,-650.222
 L -5.68712,-649.853 L -6.14484,-649.423 L -6.54507,-648.939 L -6.88153,-648.409 L -7.14888,-647.841 L -7.34291,-647.243
 L -7.46057,-646.627 L -7.5,-646 L -7.5,-596 L -7.46057,-595.373 L -7.34291,-594.757 L -7.14888,-594.159
 L -6.88153,-593.591 L -6.54507,-593.061 L -6.14484,-592.577 L -5.68712,-592.147 L -5.17912,-591.778 L -4.62889,-591.476
 L -4.04507,-591.245 L -3.4369,-591.089 L -2.81395,-591.01 L 2.81395,-591.01 z
M -2.25116,-592.508 L -2.74951,-592.571 L -3.23605,-592.696 L -3.70311,-592.881 L -4.1433,-593.123 L -4.54968,-593.418
 L -4.91586,-593.762 L -5.23605,-594.149 L -5.50522,-594.573 L -5.7191,-595.028 L -5.87433,-595.505 L -5.96844,-595.999
 L -6,-596.5 L -6,-645.5 L -5.96844,-646.001 L -5.87433,-646.495 L -5.7191,-646.972 L -5.50522,-647.427
 L -5.23605,-647.851 L -4.91586,-648.238 L -4.54968,-648.582 L -4.1433,-648.877 L -3.70311,-649.119 L -3.23605,-649.304
 L -2.74951,-649.429 L -2.25116,-649.492 L 2.25116,-649.492 L 2.74951,-649.429 L 3.23605,-649.304 L 3.70311,-649.119
 L 4.1433,-648.877 L 4.54968,-648.582 L 4.91586,-648.238 L 5.23605,-647.851 L 5.50522,-647.427 L 5.7191,-646.972
 L 5.87433,-646.495 L 5.96844,-646.001 L 6,-645.5 L 6,-596.5 L 5.96844,-595.999 L 5.87433,-595.505
 L 5.7191,-595.028 L 5.50522,-594.573 L 5.23605,-594.149 L 4.91586,-593.762 L 4.54968,-593.418 L 4.1433,-593.123
 L 3.70311,-592.881 L 3.23605,-592.696 L 2.74951,-592.571 L 2.25116,-592.508 z
M 3.4369,-522.089 L 4.04507,-522.245 L 4.62889,-522.476 L 5.17912,-522.778 L 5.68712,-523.147 L 6.14484,-523.577
 L 6.54507,-524.061 L 6.88153,-524.591 L 7.14888,-525.159 L 7.34291,-525.757 L 7.46057,-526.373 L 7.5,-527
 L 7.5,-577 L 7.46057,-577.627 L 7.34291,-578.243 L 7.14888,-578.841 L 6.88153,-579.409 L 6.54507,-579.939
 L 6.14484,-580.423 L 5.68712,-580.853 L 5.17912,-581.222 L 4.62889,-581.524 L 4.04507,-581.755 L 3.4369,-581.911
 L 2.81395,-581.99 L -2.81395,-581.99 L -3.4369,-581.911 L -4.04507,-581.755 L -4.62889,-581.524 L -5.17912,-581.222
 L -5.68712,-580.853 L -6.14484,-580.423 L -6.54507,-579.939 L -6.88153,-579.409 L -7.14888,-578.841 L -7.34291,-578.243
 L -7.46057,-577.627 L -7.5,-577 L -7.5,-527 L -7.46057,-526.373 L -7.34291,-525.757 L -7.14888,-525.159
 L -6.88153,-524.591 L -6.54507,-524.061 L -6.14484,-523.577 L -5.68712,-523.147 L -5.17912,-522.778 L -4.62889,-522.476
 L -4.04507,-522.245 L -3.4369,-522.089 L -2.81395,-522.01 L 2.81395,-522.01 z
M -2.25116,-523.508 L -2.74951,-523.571 L -3.23605,-523.696 L -3.70311,-523.881 L -4.1433,-524.123 L -4.54968,-524.418
 L -4.91586,-524.762 L -5.23605,-525.149 L -5.50522,-525.573 L -5.7191,-526.028 L -5.87433,-526.505 L -5.96844,-526.999
 L -6,-527.5 L -6,-576.5 L -5.96844,-577.001 L -5.87433,-577.495 L -5.7191,-577.972 L -5.50522,-578.427
 L -5.23605,-578.851 L -4.91586,-579.238 L -4.54968,-579.582 L -4.1433,-579.877 L -3.70311,-580.119 L -3.23605,-580.304
 L -2.74951,-580.429 L -2.25116,-580.492 L 2.25116,-580.492 L 2.74951,-580.429 L 3.23605,-580.304 L 3.70311,-580.119
 L 4.1433,-579.877 L 4.54968,-579.582 L 4.91586,-579.238 L 5.23605,-578.851 L 5.50522,-578.427 L 5.7191,-577.972
 L 5.87433,-577.495 L 5.96844,-577.001 L 6,-576.5 L 6,-527.5 L 5.96844,-526.999 L 5.87433,-526.505
 L 5.7191,-526.028 L 5.50522,-525.573 L 5.23605,-525.149 L 4.91586,-524.762 L 4.54968,-524.418 L 4.1433,-524.123
 L 3.70311,-523.881 L 3.23605,-523.696 L 2.74951,-523.571 L 2.25116,-523.508 z
M 3.4369,-453.089 L 4.04507,-453.245 L 4.62889,-453.476 L 5.17912,-453.778 L 5.68712,-454.147 L 6.14484,-454.577
 L 6.54507,-455.061 L 6.88153,-455.591 L 7.14888,-456.159 L 7.34291,-456.757 L 7.46057,-457.373 L 7.5,-458
 L 7.5,-508 L 7.46057,-508.627 L 7.34291,-509.243 L 7.14888,-509.841 L 6.88153,-510.409 L 6.54507,-510.939
 L 6.14484,-511.423 L 5.68712,-511.853 L 5.17912,-512.222 L 4.62889,-512.524 L 4.04507,-512.755 L 3.4369,-512.911
 L 2.81395,-512.99 L -2.81395,-512.99 L -3.4369,-512.911 L -4.04507,-512.755 L -4.62889,-512.524 L -5.17912,-512.222
 L -5.68712,-511.853 L -6.14484,-511.423 L -6.54507,-510.939 L -6.88153,-510.409 L -7.14888,-509.841 L -7.34291,-509.243
 L -7.46057,-508.627 L -7.5,-508 L -7.5,-458 L -7.46057,-457.373 L -7.34291,-456.757 L -7.14888,-456.159
 L -6.88153,-455.591 L -6.54507,-455.061 L -6.14484,-454.577 L -5.68712,-454.147 L -5.17912,-453.778 L -4.62889,-453.476
 L -4.04507,-453.245 L -3.4369,-453.089 L -2.81395,-453.01 L 2.81395,-453.01 z
M -2.25116,-454.508 L -2.74951,-454.571 L -3.23605,-454.696 L -3.70311,-454.881 L -4.1433,-455.123 L -4.54968,-455.418
 L -4.91586,-455.762 L -5.23605,-456.149 L -5.50522,-456.573 L -5.7191,-457.028 L -5.87433,-457.505 L -5.96844,-457.999
 L -6,-458.5 L -6,-507.5 L -5.96844,-508.001 L -5.87433,-508.495 L -5.7191,-508.972 L -5.50522,-509.427
 L -5.23605,-509.851 L -4.91586,-510.238 L -4.54968,-510.582 L -4.1433,-510.877 L -3.70311,-511.119 L -3.23605,-511.304
 L -2.74951,-511.429 L -2.25116,-511.492 L 2.25116,-511.492 L 2.74951,-511.429 L 3.23605,-511.304 L 3.70311,-511.119
 L 4.1433,-510.877 L 4.54968,-510.582 L 4.91586,-510.238 L 5.23605,-509.851 L 5.50522,-509.427 L 5.7191,-508.972
 L 5.87433,-508.495 L 5.96844,-508.001 L 6,-507.5 L 6,-458.5 L 5.96844,-457.999 L 5.87433,-457.505
 L 5.7191,-457.028 L 5.50522,-456.573 L 5.23605,-456.149 L 4.91586,-455.762 L 4.54968,-455.418 L 4.1433,-455.123
 L 3.70311,-454.881 L 3.23605,-454.696 L 2.74951,-454.571 L 2.25116,-454.508 z
M 3.4369,-384.089 L 4.04507,-384.245 L 4.62889,-384.476 L 5.17912,-384.778 L 5.68712,-385.147 L 6.14484,-385.577
 L 6.54507,-386.061 L 6.88153,-386.591 L 7.14888,-387.159 L 7.34291,-387.757 L 7.46057,-388.373 L 7.5,-389
 L 7.5,-439 L 7.46057,-439.627 L 7.34291,-440.243 L 7.14888,-440.841 L 6.88153,-441.409 L 6.54507,-441.939
 L 6.14484,-442.423 L 5.68712,-442.853 L 5.17912,-443.222 L 4.62889,-443.524 L 4.04507,-443.755 L 3.4369,-443.911
 L 2.81395,-443.99 L -2.81395,-443.99 L -3.4369,-443.911 L -4.04507,-443.755 L -4.62889,-443.524 L -5.17912,-443.222
 L -5.68712,-442.853 L -6.14484,-442.423 L -6.54507,-441.939 L -6.88153,-441.409 L -7.14888,-440.841 L -7.34291,-440.243
 L -7.46057,-439.627 L -7.5,-439 L -7.5,-389 L -7.46057,-388.373 L -7.34291,-387.757 L -7.14888,-387.159
 L -6.88153,-386.591 L -6.54507,-386.061 L -6.14484,-385.577 L -5.68712,-385.147 L -5.17912,-384.778 L -4.62889,-384.476
 L -4.04507,-384.245 L -3.4369,-384.089 L -2.81395,-384.01 L 2.81395,-384.01 z
M -2.19545,-386.393 L -2.5833,-386.442 L -2.96194,-386.539 L -3.32541,-386.683 L -3.66798,-386.872 L -3.98424,-387.101
 L -4.26921,-387.369 L -4.5184,-387.67 L -4.72786,-388 L -4.89432,-388.354 L -5.01512,-388.726 L -5.08836,-389.11
 L -5.11292,-389.5 L -5.11292,-438.5 L -5.08836,-438.89 L -5.01512,-439.274 L -4.89432,-439.646 L -4.72786,-440
 L -4.5184,-440.33 L -4.26921,-440.631 L -3.98424,-440.899 L -3.66798,-441.128 L -3.32541,-441.317 L -2.96194,-441.461
 L -2.5833,-441.558 L -2.19545,-441.607 L 2.19545,-441.607 L 2.5833,-441.558 L 2.96194,-441.461 L 3.32541,-441.317
 L 3.66798,-441.128 L 3.98424,-440.899 L 4.26921,-440.631 L 4.5184,-440.33 L 4.72786,-440 L 4.89432,-439.646
 L 5.01512,-439.274 L 5.08836,-438.89 L 5.11292,-438.5 L 5.11292,-389.5 L 5.08836,-389.11 L 5.01512,-388.726
 L 4.89432,-388.354 L 4.72786,-388 L 4.5184,-387.67 L 4.26921,-387.369 L 3.98424,-387.101 L 3.66798,-386.872
 L 3.32541,-386.683 L 2.96194,-386.539 L 2.5833,-386.442 L 2.19545,-386.393 z
M 3.4369,-315.089 L 4.04507,-315.245 L 4.62889,-315.476 L 5.17912,-315.778 L 5.68712,-316.147 L 6.14484,-316.577
 L 6.54507,-317.061 L 6.88153,-317.591 L 7.14888,-318.159 L 7.34291,-318.757 L 7.46057,-319.373 L 7.5,-320
 L 7.5,-370 L 7.46057,-370.627 L 7.34291,-371.243 L 7.14888,-371.841 L 6.88153,-372.409 L 6.54507,-372.939
 L 6.14484,-373.423 L 5.68712,-373.853 L 5.17912,-374.222 L 4.62889,-374.524 L 4.04507,-374.755 L 3.4369,-374.911
 L 2.81395,-374.99 L -2.81395,-374.99 L -3.4369,-374.911 L -4.04507,-374.755 L -4.62889,-374.524 L -5.17912,-374.222
 L -5.68712,-373.853 L -6.14484,-373.423 L -6.54507,-372.939 L -6.88153,-372.409 L -7.14888,-371.841 L -7.34291,-371.243
 L -7.46057,-370.627 L -7.5,-370 L -7.5,-320 L -7.46057,-319.373 L -7.34291,-318.757 L -7.14888,-318.159
 L -6.88153,-317.591 L -6.54507,-317.061 L -6.14484,-316.577 L -5.68712,-316.147 L -5.17912,-315.778 L -4.62889,-315.476
 L -4.04507,-315.245 L -3.4369,-315.089 L -2.81395,-315.01 L 2.81395,-315.01 z
M -0.134064,-365.369 L -0.400101,-365.403 L -0.659836,-365.469 L -0.909149,-365.568 L -1.14413,-365.697 L -1.36108,-365.855
 L -1.55655,-366.038 L -1.72748,-366.245 L -1.87117,-366.471 L -1.98534,-366.714 L -2.06821,-366.969 L -2.11845,-367.232
 L -2.13528,-367.5 L -2.11845,-367.768 L -2.06821,-368.031 L -1.98534,-368.286 L -1.87117,-368.529 L -1.72748,-368.755
 L -1.55655,-368.962 L -1.36108,-369.145 L -1.14413,-369.303 L -0.909149,-369.432 L -0.659836,-369.531 L -0.400101,-369.597
 L -0.134064,-369.631 L 0.134064,-369.631 L 0.400101,-369.597 L 0.659836,-369.531 L 0.909149,-369.432 L 1.14413,-369.303
 L 1.36108,-369.145 L 1.55655,-368.962 L 1.72748,-368.755 L 1.87117,-368.529 L 1.98534,-368.286 L 2.06821,-368.031
 L 2.11845,-367.768 L 2.13528,-367.5 L 2.11845,-367.232 L 2.06821,-366.969 L 1.98534,-366.714 L 1.87117,-366.471
 L 1.72748,-366.245 L 1.55655,-366.038 L 1.36108,-365.855 L 1.14413,-365.697 L 0.909149,-365.568 L 0.659836,-365.469
 L 0.400101,-365.403 L 0.134064,-365.369 z
M -0.134064,-320.369 L -0.400101,-320.403 L -0.659836,-320.469 L -0.909149,-320.568 L -1.14413,-320.697 L -1.36108,-320.855
 L -1.55655,-321.038 L -1.72748,-321.245 L -1.87117,-321.471 L -1.98534,-321.714 L -2.06821,-321.969 L -2.11845,-322.232
 L -2.13528,-322.5 L -2.11845,-322.768 L -2.06821,-323.031 L -1.98534,-323.286 L -1.87117,-323.529 L -1.72748,-323.755
 L -1.55655,-323.962 L -1.36108,-324.145 L -1.14413,-324.303 L -0.909149,-324.432 L -0.659836,-324.531 L -0.400101,-324.597
 L -0.134064,-324.631 L 0.134064,-324.631 L 0.400101,-324.597 L 0.659836,-324.531 L 0.909149,-324.432 L 1.14413,-324.303
 L 1.36108,-324.145 L 1.55655,-323.962 L 1.72748,-323.755 L 1.87117,-323.529 L 1.98534,-323.286 L 2.06821,-323.031
 L 2.11845,-322.768 L 2.13528,-322.5 L 2.11845,-322.232 L 2.06821,-321.969 L 1.98534,-321.714 L 1.87117,-321.471
 L 1.72748,-321.245 L 1.55655,-321.038 L 1.36108,-320.855 L 1.14413,-320.697 L 0.909149,-320.568 L 0.659836,-320.469
 L 0.400101,-320.403 L 0.134064,-320.369 z
" stroke="black" fill="lightgray" stroke-width="0.5"/>
</svg>
