<?xml version="1.0" standalone="no"?>
<!DOCTYPE svg PUBLIC "-//W3C//DTD SVG 1.1//EN" "http://www.w3.org/Graphics/SVG/1.1/DTD/svg11.dtd">
<svg width="62mm" height="129mm" viewBox="-32 -237 62 129" xmlns="http://www.w3.org/2000/svg" version="1.1">
<title>OpenSCAD Model</title>
<path d="
M 25.9369,-177.089 L 26.5451,-177.245 L 27.1289,-177.476 L 27.6791,-177.778 L 28.1871,-178.147 L 28.6448,-178.577
 L 29.0451,-179.061 L 29.3815,-179.591 L 29.6489,-180.159 L 29.8429,-180.757 L 29.9606,-181.373 L 30,-182
 L 30,-232 L 29.9606,-232.627 L 29.8429,-233.243 L 29.6489,-233.841 L 29.3815,-234.409 L 29.0451,-234.939
 L 28.6448,-235.423 L 28.1871,-235.853 L 27.6791,-236.222 L 27.1289,-236.524 L 26.5451,-236.755 L 25.9369,-236.911
 L 25.3139,-236.99 L -25.3139,-236.99 L -25.9369,-236.911 L -26.5451,-236.755 L -27.1289,-236.524 L -27.6791,-236.222
 L -28.1871,-235.853 L -28.5,-235.559 L -28.5,-236.979 L -31.5,-236.979 L -31.5,-177.021 L -28.5,-177.021
 L -28.5,-178.441 L -28.1871,-178.147 L -27.6791,-177.778 L -27.1289,-177.476 L -26.5451,-177.245 L -25.9369,-177.089
 L -25.3139,-177.01 L 25.3139,-177.01 z
M -24.6954,-179.393 L -25.0833,-179.442 L -25.4619,-179.539 L -25.8254,-179.683 L -26.168,-179.872 L -26.4842,-180.101
 L -26.7692,-180.369 L -27.0184,-180.67 L -27.2279,-181 L -27.3943,-181.354 L -27.5151,-181.726 L -27.5884,-182.11
 L -27.6129,-182.5 L -27.6129,-231.5 L -27.5884,-231.89 L -27.5151,-232.274 L -27.3943,-232.646 L -27.2279,-233
 L -27.0184,-233.33 L -26.7692,-233.631 L -26.4842,-233.899 L -26.168,-234.128 L -25.8254,-234.317 L -25.4619,-234.461
 L -25.0833,-234.558 L -24.6954,-234.607 L 24.6954,-234.607 L 25.0833,-234.558 L 25.4619,-234.461 L 25.8254,-234.317
 L 26.168,-234.128 L 26.4842,-233.899 L 26.7692,-233.631 L 27.0184,-233.33 L 27.2279,-233 L 27.3943,-232.646
 L 27.5151,-232.274 L 27.5884,-231.89 L 27.6129,-231.5 L 27.6129,-182.5 L 27.5884,-182.11 L 27.5151,-181.726
 L 27.3943,-181.354 L 27.2279,-181 L 27.0184,-180.67 L 26.7692,-180.369 L 26.4842,-180.101 L 26.168,-179.872
 L 25.8254,-179.683 L 25.4619,-179.539 L 25.0833,-179.442 L 24.6954,-179.393 z
M 25.9369,-108.089 L 26.5451,-108.245 L 27.1289,-108.476 L 27.6791,-108.778 L 28.1871,-109.147 L 28.6448,-109.577
 L 29.0451,-110.061 L 29.3815,-110.591 L 29.6489,-111.159 L 29.8429,-111.757 L 29.9606,-112.373 L 30,-113
 L 30,-163 L 29.9606,-163.627 L 29.8429,-164.243 L 29.6489,-164.841 L 29.3815,-165.409 L 29.0451,-165.939
 L 28.6448,-166.423 L 28.1871,-166.853 L 27.6791,-167.222 L 27.1289,-167.524 L 26.5451,-167.755 L 25.9369,-167.911
 L 25.3139,-167.99 L -25.3139,-167.99 L -25.9369,-167.911 L -26.5451,-167.755 L -27.1289,-167.524 L -27.6791,-167.222
 L -28.1871,-166.853 L -28.5,-166.559 L -28.5,-166.653 L -31.5,-166.653 L -31.5,-109.347 L -28.5,-109.347
 L -28.5,-109.441 L -28.1871,-109.147 L -27.6791,-108.778 L -27.1289,-108.476 L -26.5451,-108.245 L -25.9369,-108.089
 L -25.3139,-108.01 L 25.3139,-108.01 z
M 22.3659,-158.369 L 22.0999,-158.403 L 21.8401,-158.469 L 21.5908,-158.568 L 21.3559,-158.697 L 21.1389,-158.855
 L 20.9434,-159.038 L 20.7725,-159.245 L 20.6288,-159.471 L 20.5146,-159.714 L 20.4318,-159.969 L 20.3815,-160.232
 L 20.3647,-160.5 L 20.3815,-160.768 L 20.4318,-161.031 L 20.5146,-161.286 L 20.6288,-161.529 L 20.7725,-161.755
 L 20.9434,-161.962 L 21.1389,-162.145 L 21.3559,-162.303 L 21.5908,-162.432 L 21.8401,-162.531 L 22.0999,-162.597
 L 22.3659,-162.631 L 22.6341,-162.631 L 22.9001,-162.597 L 23.1598,-162.531 L 23.4091,-162.432 L 23.6441,-162.303
 L 23.8611,-162.145 L 24.0565,-161.962 L 24.2275,-161.755 L 24.3712,-161.529 L 24.4853,-161.286 L 24.5682,-161.031
 L 24.6185,-160.768 L 24.6353,-160.5 L 24.6185,-160.232 L 24.5682,-159.969 L 24.4853,-159.714 L 24.3712,-159.471
 L 24.2275,-159.245 L 24.0565,-159.038 L 23.8611,-158.855 L 23.6441,-158.697 L 23.4091,-158.568 L 23.1598,-158.469
 L 22.9001,-158.403 L 22.6341,-158.369 z
M -22.6341,-158.369 L -22.9001,-158.403 L -23.1598,-158.469 L -23.4091,-158.568 L -23.6441,-158.697 L -23.8611,-158.855
 L -24.0565,-159.038 L -24.2275,-159.245 L -24.3712,-159.471 L -24.4853,-159.714 L -24.5682,-159.969 L -24.6185,-160.232
 L -24.6353,-160.5 L -24.6185,-160.768 L -24.5682,-161.031 L -24.4853,-161.286 L -24.3712,-161.529 L -24.2275,-161.755
 L -24.0565,-161.962 L -23.8611,-162.145 L -23.6441,-162.303 L -23.4091,-162.432 L -23.1598,-162.531 L -22.9001,-162.597
 L -22.6341,-162.631 L -22.3659,-162.631 L -22.0999,-162.597 L -21.8401,-162.531 L -21.5908,-162.432 L -21.3559,-162.303
 L -21.1389,-162.145 L -20.9434,-161.962 L -20.7725,-161.755 L -20.6288,-161.529 L -20.5146,-161.286 L -20.4318,-161.031
 L -20.3815,-160.768 L -20.3647,-160.5 L -20.3815,-160.232 L -20.4318,-159.969 L -20.5146,-159.714 L -20.6288,-159.471
 L -20.7725,-159.245 L -20.9434,-159.038 L -21.1389,-158.855 L -21.3559,-158.697 L -21.5908,-158.568 L -21.8401,-158.469
 L -22.0999,-158.403 L -22.3659,-158.369 z
M 22.3659,-113.369 L 22.0999,-113.403 L 21.8401,-113.469 L 21.5908,-113.568 L 21.3559,-113.697 L 21.1389,-113.855
 L 20.9434,-114.038 L 20.7725,-114.245 L 20.6288,-114.471 L 20.5146,-114.714 L 20.4318,-114.969 L 20.3815,-115.232
 L 20.3647,-115.5 L 20.3815,-115.768 L 20.4318,-116.031 L 20.5146,-116.286 L 20.6288,-116.529 L 20.7725,-116.755
 L 20.9434,-116.962 L 21.1389,-117.145 L 21.3559,-117.303 L 21.5908,-117.432 L 21.8401,-117.531 L 22.0999,-117.597
 L 22.3659,-117.631 L 22.6341,-117.631 L 22.9001,-117.597 L 23.1598,-117.531 L 23.4091,-117.432 L 23.6441,-117.303
 L 23.8611,-117.145 L 24.0565,-116.962 L 24.2275,-116.755 L 24.3712,-116.529 L 24.4853,-116.286 L 24.5682,-116.031
 L 24.6185,-115.768 L 24.6353,-115.5 L 24.6185,-115.232 L 24.5682,-114.969 L 24.4853,-114.714 L 24.3712,-114.471
 L 24.2275,-114.245 L 24.0565,-114.038 L 23.8611,-113.855 L 23.6441,-113.697 L 23.4091,-113.568 L 23.1598,-113.469
 L 22.9001,-113.403 L 22.6341,-113.369 z
M -22.6341,-113.369 L -22.9001,-113.403 L -23.1598,-113.469 L -23.4091,-113.568 L -23.6441,-113.697 L -23.8611,-113.855
 L -24.0565,-114.038 L -24.2275,-114.245 L -24.3712,-114.471 L -24.4853,-114.714 L -24.5682,-114.969 L -24.6185,-115.232
 L -24.6353,-115.5 L -24.6185,-115.768 L -24.5682,-116.031 L -24.4853,-116.286 L -24.3712,-116.529 L -24.2275,-116.755
 L -24.0565,-116.962 L -23.8611,-117.145 L -23.6441,-117.303 L -23.4091,-117.432 L -23.1598,-117.531 L -22.9001,-117.597
 L -22.6341,-117.631 L -22.3659,-117.631 L -22.0999,-117.597 L -21.8401,-117.531 L -21.5908,-117.432 L -21.3559,-117.303
 L -21.1389,-117.145 L -20.9434,-116.962 L -20.7725,-116.755 L -20.6288,-116.529 L -20.5146,-116.286 L -20.4318,-116.031
 L -20.3815,-115.768 L -20.3647,-115.5 L -20.3815,-115.232 L -20.4318,-114.969 L -20.5146,-114.714 L -20.6288,-114.471
 L -20.7725,-114.245 L -20.9434,-114.038 L -21.1389,-113.855 L -21.3559,-113.697 L -21.5908,-113.568 L -21.8401,-113.469
 L -22.0999,-113.403 L -22.3659,-113.369 z
" stroke="black" fill="lightgray" stroke-width="0.5"/>
</svg>
