<?xml version="1.0" standalone="no"?>
<!DOCTYPE svg PUBLIC "-//W3C//DTD SVG 1.1//EN" "http://www.w3.org/Graphics/SVG/1.1/DTD/svg11.dtd">
<svg width="90mm" height="186mm" viewBox="-45 -366 90 186" xmlns="http://www.w3.org/2000/svg" version="1.1">
<title>OpenSCAD Model</title>
<path d="
M 40.9369,-336.089 L 41.5451,-336.245 L 42.1289,-336.476 L 42.6791,-336.778 L 43.1871,-337.147 L 43.6448,-337.577
 L 44.0451,-338.061 L 44.3815,-338.591 L 44.6489,-339.159 L 44.8429,-339.757 L 44.9606,-340.373 L 45,-341
 L 45,-361 L 44.9606,-361.627 L 44.8429,-362.243 L 44.6489,-362.841 L 44.3815,-363.409 L 44.0451,-363.939
 L 43.6448,-364.423 L 43.1871,-364.853 L 42.6791,-365.222 L 42.1289,-365.524 L 41.5451,-365.755 L 40.9369,-365.911
 L 40.3139,-365.99 L -40.3139,-365.99 L -40.9369,-365.911 L -41.5451,-365.755 L -42.1289,-365.524 L -42.6791,-365.222
 L -43.1871,-364.853 L -43.6448,-364.423 L -44.0451,-363.939 L -44.3815,-363.409 L -44.6489,-362.841 L -44.8429,-362.243
 L -44.9606,-361.627 L -45,-361 L -45,-341 L -44.9606,-340.373 L -44.8429,-339.757 L -44.6489,-339.159
 L -44.3815,-338.591 L -44.0451,-338.061 L -43.6448,-337.577 L -43.1871,-337.147 L -42.6791,-336.778 L -42.1289,-336.476
 L -41.5451,-336.245 L -40.9369,-336.089 L -40.3139,-336.01 L 40.3139,-336.01 z
M -40.0482,-336.509 L -40.6401,-336.584 L -41.2178,-336.732 L -41.7724,-336.952 L -42.2952,-337.239 L -42.7778,-337.59
 L -43.2126,-337.998 L -43.5928,-338.458 L -43.9124,-338.962 L -44.1664,-339.501 L -44.3508,-340.069 L -44.4625,-340.655
 L -44.5,-341.25 L -44.5,-360.75 L -44.4625,-361.345 L -44.3508,-361.931 L -44.1664,-362.499 L -43.9124,-363.038
 L -43.5928,-363.542 L -43.2126,-364.002 L -42.7778,-364.41 L -42.2952,-364.761 L -41.7724,-365.048 L -41.2178,-365.268
 L -40.6401,-365.416 L -40.0482,-365.491 L 40.0482,-365.491 L 40.6401,-365.416 L 41.2178,-365.268 L 41.7724,-365.048
 L 42.2952,-364.761 L 42.7778,-364.41 L 43.2126,-364.002 L 43.5928,-363.542 L 43.9124,-363.038 L 44.1664,-362.499
 L 44.3508,-361.931 L 44.4625,-361.345 L 44.5,-360.75 L 44.5,-341.25 L 44.4625,-340.655 L 44.3508,-340.069
 L 44.1664,-339.501 L 43.9124,-338.962 L 43.5928,-338.458 L 43.2126,-337.998 L 42.7778,-337.59 L 42.2952,-337.239
 L 41.7724,-336.952 L 41.2178,-336.732 L 40.6401,-336.584 L 40.0482,-336.509 z
M 40.9369,-297.089 L 41.5451,-297.245 L 42.1289,-297.476 L 42.6791,-297.778 L 43.1871,-298.147 L 43.6448,-298.577
 L 44.0451,-299.061 L 44.3815,-299.591 L 44.6489,-300.159 L 44.8429,-300.757 L 44.9606,-301.373 L 45,-302
 L 45,-322 L 44.9606,-322.627 L 44.8429,-323.243 L 44.6489,-323.841 L 44.3815,-324.409 L 44.0451,-324.939
 L 43.6448,-325.423 L 43.1871,-325.853 L 42.6791,-326.222 L 42.1289,-326.524 L 41.5451,-326.755 L 40.9369,-326.911
 L 40.3139,-326.99 L -40.3139,-326.99 L -40.9369,-326.911 L -41.5451,-326.755 L -42.1289,-326.524 L -42.6791,-326.222
 L -43.1871,-325.853 L -43.6448,-325.423 L -44.0451,-324.939 L -44.3815,-324.409 L -44.6489,-323.841 L -44.8429,-323.243
 L -44.9606,-322.627 L -45,-322 L -45,-302 L -44.9606,-301.373 L -44.8429,-300.757 L -44.6489,-300.159
 L -44.3815,-299.591 L -44.0451,-299.061 L -43.6448,-298.577 L -43.1871,-298.147 L -42.6791,-297.778 L -42.1289,-297.476
 L -41.5451,-297.245 L -40.9369,-297.089 L -40.3139,-297.01 L 40.3139,-297.01 z
M -40.0482,-297.509 L -40.6401,-297.584 L -41.2178,-297.732 L -41.7724,-297.952 L -42.2952,-298.239 L -42.7778,-298.59
 L -43.2126,-298.998 L -43.5928,-299.458 L -43.9124,-299.962 L -44.1664,-300.501 L -44.3508,-301.069 L -44.4625,-301.655
 L -44.5,-302.25 L -44.5,-321.75 L -44.4625,-322.345 L -44.3508,-322.931 L -44.1664,-323.499 L -43.9124,-324.038
 L -43.5928,-324.542 L -43.2126,-325.002 L -42.7778,-325.41 L -42.2952,-325.761 L -41.7724,-326.048 L -41.2178,-326.268
 L -40.6401,-326.416 L -40.0482,-326.491 L 40.0482,-326.491 L 40.6401,-326.416 L 41.2178,-326.268 L 41.7724,-326.048
 L 42.2952,-325.761 L 42.7778,-325.41 L 43.2126,-325.002 L 43.5928,-324.542 L 43.9124,-324.038 L 44.1664,-323.499
 L 44.3508,-322.931 L 44.4625,-322.345 L 44.5,-321.75 L 44.5,-302.25 L 44.4625,-301.655 L 44.3508,-301.069
 L 44.1664,-300.501 L 43.9124,-299.962 L 43.5928,-299.458 L 43.2126,-298.998 L 42.7778,-298.59 L 42.2952,-298.239
 L 41.7724,-297.952 L 41.2178,-297.732 L 40.6401,-297.584 L 40.0482,-297.509 z
M 40.9369,-258.089 L 41.5451,-258.245 L 42.1289,-258.476 L 42.6791,-258.778 L 43.1871,-259.147 L 43.6448,-259.577
 L 44.0451,-260.061 L 44.3815,-260.591 L 44.6489,-261.159 L 44.8429,-261.757 L 44.9606,-262.373 L 45,-263
 L 45,-283 L 44.9606,-283.627 L 44.8429,-284.243 L 44.6489,-284.841 L 44.3815,-285.409 L 44.0451,-285.939
 L 43.6448,-286.423 L 43.1871,-286.853 L 42.6791,-287.222 L 42.1289,-287.524 L 41.5451,-287.755 L 40.9369,-287.911
 L 40.3139,-287.99 L -40.3139,-287.99 L -40.9369,-287.911 L -41.5451,-287.755 L -42.1289,-287.524 L -42.6791,-287.222
 L -43.1871,-286.853 L -43.6448,-286.423 L -44.0451,-285.939 L -44.3815,-285.409 L -44.6489,-284.841 L -44.8429,-284.243
 L -44.9606,-283.627 L -45,-283 L -45,-263 L -44.9606,-262.373 L -44.8429,-261.757 L -44.6489,-261.159
 L -44.3815,-260.591 L -44.0451,-260.061 L -43.6448,-259.577 L -43.1871,-259.147 L -42.6791,-258.778 L -42.1289,-258.476
 L -41.5451,-258.245 L -40.9369,-258.089 L -40.3139,-258.01 L 40.3139,-258.01 z
M -40.0482,-258.509 L -40.6401,-258.584 L -41.2178,-258.732 L -41.7724,-258.952 L -42.2952,-259.239 L -42.7778,-259.59
 L -43.2126,-259.998 L -43.5928,-260.458 L -43.9124,-260.962 L -44.1664,-261.501 L -44.3508,-262.069 L -44.4625,-262.655
 L -44.5,-263.25 L -44.5,-282.75 L -44.4625,-283.345 L -44.3508,-283.931 L -44.1664,-284.499 L -43.9124,-285.038
 L -43.5928,-285.542 L -43.2126,-286.002 L -42.7778,-286.41 L -42.2952,-286.761 L -41.7724,-287.048 L -41.2178,-287.268
 L -40.6401,-287.416 L -40.0482,-287.491 L 40.0482,-287.491 L 40.6401,-287.416 L 41.2178,-287.268 L 41.7724,-287.048
 L 42.2952,-286.761 L 42.7778,-286.41 L 43.2126,-286.002 L 43.5928,-285.542 L 43.9124,-285.038 L 44.1664,-284.499
 L 44.3508,-283.931 L 44.4625,-283.345 L 44.5,-282.75 L 44.5,-263.25 L 44.4625,-262.655 L 44.3508,-262.069
 L 44.1664,-261.501 L 43.9124,-260.962 L 43.5928,-260.458 L 43.2126,-259.998 L 42.7778,-259.59 L 42.2952,-259.239
 L 41.7724,-258.952 L 41.2178,-258.732 L 40.6401,-258.584 L 40.0482,-258.509 z
M 40.9369,-219.089 L 41.5451,-219.245 L 42.1289,-219.476 L 42.6791,-219.778 L 43.1871,-220.147 L 43.6448,-220.577
 L 44.0451,-221.061 L 44.3815,-221.591 L 44.6489,-222.159 L 44.8429,-222.757 L 44.9606,-223.373 L 45,-224
 L 45,-244 L 44.9606,-244.627 L 44.8429,-245.243 L 44.6489,-245.841 L 44.3815,-246.409 L 44.0451,-246.939
 L 43.6448,-247.423 L 43.1871,-247.853 L 42.6791,-248.222 L 42.1289,-248.524 L 41.5451,-248.755 L 40.9369,-248.911
 L 40.3139,-248.99 L -40.3139,-248.99 L -40.9369,-248.911 L -41.5451,-248.755 L -42.1289,-248.524 L -42.6791,-248.222
 L -43.1871,-247.853 L -43.6448,-247.423 L -44.0451,-246.939 L -44.3815,-246.409 L -44.6489,-245.841 L -44.8429,-245.243
 L -44.9606,-244.627 L -45,-244 L -45,-224 L -44.9606,-223.373 L -44.8429,-222.757 L -44.6489,-222.159
 L -44.3815,-221.591 L -44.0451,-221.061 L -43.6448,-220.577 L -43.1871,-220.147 L -42.6791,-219.778 L -42.1289,-219.476
 L -41.5451,-219.245 L -40.9369,-219.089 L -40.3139,-219.01 L 40.3139,-219.01 z
M -40.0375,-219.681 L -40.6079,-219.753 L -41.1648,-219.896 L -41.6994,-220.107 L -42.2032,-220.384 L -42.6684,-220.722
 L -43.0875,-221.116 L -43.454,-221.559 L -43.7621,-222.044 L -44.0069,-222.565 L -44.1846,-223.111 L -44.2923,-223.676
 L -44.3284,-224.25 L -44.3284,-243.75 L -44.2923,-244.324 L -44.1846,-244.889 L -44.0069,-245.435 L -43.7621,-245.956
 L -43.454,-246.441 L -43.0875,-246.884 L -42.6684,-247.278 L -42.2032,-247.616 L -41.6994,-247.893 L -41.1648,-248.104
 L -40.6079,-248.247 L -40.0375,-248.319 L 40.0375,-248.319 L 40.6079,-248.247 L 41.1648,-248.104 L 41.6994,-247.893
 L 42.2032,-247.616 L 42.6684,-247.278 L 43.0875,-246.884 L 43.454,-246.441 L 43.7621,-245.956 L 44.0069,-245.435
 L 44.1846,-244.889 L 44.2923,-244.324 L 44.3284,-243.75 L 44.3284,-224.25 L 44.2923,-223.676 L 44.1846,-223.111
 L 44.0069,-222.565 L 43.7621,-222.044 L 43.454,-221.559 L 43.0875,-221.116 L 42.6684,-220.722 L 42.2032,-220.384
 L 41.6994,-220.107 L 41.1648,-219.896 L 40.6079,-219.753 L 40.0375,-219.681 z
M 40.9369,-180.089 L 41.5451,-180.245 L 42.1289,-180.476 L 42.6791,-180.778 L 43.1871,-181.147 L 43.6448,-181.577
 L 44.0451,-182.061 L 44.3815,-182.591 L 44.6489,-183.159 L 44.8429,-183.757 L 44.9606,-184.373 L 45,-185
 L 45,-205 L 44.9606,-205.627 L 44.8429,-206.243 L 44.6489,-206.841 L 44.3815,-207.409 L 44.0451,-207.939
 L 43.6448,-208.423 L 43.1871,-208.853 L 42.6791,-209.222 L 42.1289,-209.524 L 41.5451,-209.755 L 40.9369,-209.911
 L 40.3139,-209.99 L -40.3139,-209.99 L -40.9369,-209.911 L -41.5451,-209.755 L -42.1289,-209.524 L -42.6791,-209.222
 L -43.1871,-208.853 L -43.6448,-208.423 L -44.0451,-207.939 L -44.3815,-207.409 L -44.6489,-206.841 L -44.8429,-206.243
 L -44.9606,-205.627 L -45,-205 L -45,-185 L -44.9606,-184.373 L -44.8429,-183.757 L -44.6489,-183.159
 L -44.3815,-182.591 L -44.0451,-182.061 L -43.6448,-181.577 L -43.1871,-181.147 L -42.6791,-180.778 L -42.1289,-180.476
 L -41.5451,-180.245 L -40.9369,-180.089 L -40.3139,-180.01 L 40.3139,-180.01 z
M -39.8825,-183.145 L -40.1453,-183.178 L -40.4019,-183.244 L -40.6482,-183.341 L -40.8804,-183.469 L -41.0947,-183.625
 L -41.2879,-183.806 L -41.4567,-184.01 L -41.5987,-184.234 L -41.7115,-184.473 L -41.7934,-184.725 L -41.843,-184.986
 L -41.8596,-185.25 L -41.8596,-204.75 L -41.843,-205.014 L -41.7934,-205.275 L -41.7115,-205.527 L -41.5987,-205.766
 L -41.4567,-205.99 L -41.2879,-206.194 L -41.0947,-206.375 L -40.8804,-206.531 L -40.6482,-206.659 L -40.4019,-206.756
 L -40.1453,-206.822 L -39.8825,-206.855 L 39.8825,-206.855 L 40.1453,-206.822 L 40.4019,-206.756 L 40.6482,-206.659
 L 40.8804,-206.531 L 41.0947,-206.375 L 41.2879,-206.194 L 41.4567,-205.99 L 41.5987,-205.766 L 41.7115,-205.527
 L 41.7934,-205.275 L 41.843,-205.014 L 41.8596,-204.75 L 41.8596,-185.25 L 41.843,-184.986 L 41.7934,-184.725
 L 41.7115,-184.473 L 41.5987,-184.234 L 41.4567,-184.01 L 41.2879,-183.806 L 41.0947,-183.625 L 40.8804,-183.469
 L 40.6482,-183.341 L 40.4019,-183.244 L 40.1453,-183.178 L 39.8825,-183.145 z
" stroke="black" fill="lightgray" stroke-width="0.5"/>
</svg>
