<?xml version="1.0" standalone="no"?>
<!DOCTYPE svg PUBLIC "-//W3C//DTD SVG 1.1//EN" "http://www.w3.org/Graphics/SVG/1.1/DTD/svg11.dtd">
<svg width="16mm" height="288mm" viewBox="-8 -540 16 288" xmlns="http://www.w3.org/2000/svg" version="1.1">
<title>OpenSCAD Model</title>
<path d="
M 3.4369,-450.089 L 4.04507,-450.245 L 4.62889,-450.476 L 5.17912,-450.778 L 5.68712,-451.147 L 6.14484,-451.577
 L 6.54507,-452.061 L 6.88153,-452.591 L 7.14888,-453.159 L 7.34291,-453.757 L 7.46057,-454.373 L 7.5,-455
 L 7.5,-535 L 7.46057,-535.627 L 7.34291,-536.243 L 7.14888,-536.841 L 6.88153,-537.409 L 6.54507,-537.939
 L 6.14484,-538.423 L 5.68712,-538.853 L 5.17912,-539.222 L 4.62889,-539.524 L 4.04507,-539.755 L 3.4369,-539.911
 L 2.81395,-539.99 L -2.81395,-539.99 L -3.4369,-539.911 L -4.04507,-539.755 L -4.62889,-539.524 L -5.17912,-539.222
 L -5.68712,-538.853 L -6.14484,-538.423 L -6.54507,-537.939 L -6.88153,-537.409 L -7.14888,-536.841 L -7.34291,-536.243
 L -7.46057,-535.627 L -7.5,-535 L -7.5,-455 L -7.46057,-454.373 L -7.34291,-453.757 L -7.14888,-453.159
 L -6.88153,-452.591 L -6.54507,-452.061 L -6.14484,-451.577 L -5.68712,-451.147 L -5.17912,-450.778 L -4.62889,-450.476
 L -4.04507,-450.245 L -3.4369,-450.089 L -2.81395,-450.01 L 2.81395,-450.01 z
M -2.25116,-451.508 L -2.74951,-451.571 L -3.23605,-451.696 L -3.70311,-451.881 L -4.1433,-452.123 L -4.54968,-452.418
 L -4.91586,-452.762 L -5.23605,-453.149 L -5.50522,-453.573 L -5.7191,-454.028 L -5.87433,-454.505 L -5.96844,-454.999
 L -6,-455.5 L -6,-534.5 L -5.96844,-535.001 L -5.87433,-535.495 L -5.7191,-535.972 L -5.50522,-536.427
 L -5.23605,-536.851 L -4.91586,-537.238 L -4.54968,-537.582 L -4.1433,-537.877 L -3.70311,-538.119 L -3.23605,-538.304
 L -2.74951,-538.429 L -2.25116,-538.492 L 2.25116,-538.492 L 2.74951,-538.429 L 3.23605,-538.304 L 3.70311,-538.119
 L 4.1433,-537.877 L 4.54968,-537.582 L 4.91586,-537.238 L 5.23605,-536.851 L 5.50522,-536.427 L 5.7191,-535.972
 L 5.87433,-535.495 L 5.96844,-535.001 L 6,-534.5 L 6,-455.5 L 5.96844,-454.999 L 5.87433,-454.505
 L 5.7191,-454.028 L 5.50522,-453.573 L 5.23605,-453.149 L 4.91586,-452.762 L 4.54968,-452.418 L 4.1433,-452.123
 L 3.70311,-451.881 L 3.23605,-451.696 L 2.74951,-451.571 L 2.25116,-451.508 z
M 3.4369,-351.089 L 4.04507,-351.245 L 4.62889,-351.476 L 5.17912,-351.778 L 5.68712,-352.147 L 6.14484,-352.577
 L 6.54507,-353.061 L 6.88153,-353.591 L 7.14888,-354.159 L 7.34291,-354.757 L 7.46057,-355.373 L 7.5,-356
 L 7.5,-436 L 7.46057,-436.627 L 7.34291,-437.243 L 7.14888,-437.841 L 6.88153,-438.409 L 6.54507,-438.939
 L 6.14484,-439.423 L 5.68712,-439.853 L 5.17912,-440.222 L 4.62889,-440.524 L 4.04507,-440.755 L 3.4369,-440.911
 L 2.81395,-440.99 L -2.81395,-440.99 L -3.4369,-440.911 L -4.04507,-440.755 L -4.62889,-440.524 L -5.17912,-440.222
 L -5.68712,-439.853 L -6.14484,-439.423 L -6.54507,-438.939 L -6.88153,-438.409 L -7.14888,-437.841 L -7.34291,-437.243
 L -7.46057,-436.627 L -7.5,-436 L -7.5,-356 L -7.46057,-355.373 L -7.34291,-354.757 L -7.14888,-354.159
 L -6.88153,-353.591 L -6.54507,-353.061 L -6.14484,-352.577 L -5.68712,-352.147 L -5.17912,-351.778 L -4.62889,-351.476
 L -4.04507,-351.245 L -3.4369,-351.089 L -2.81395,-351.01 L 2.81395,-351.01 z
M -2.19545,-353.393 L -2.5833,-353.442 L -2.96194,-353.539 L -3.32541,-353.683 L -3.66798,-353.872 L -3.98424,-354.101
 L -4.26921,-354.369 L -4.5184,-354.67 L -4.72786,-355 L -4.89432,-355.354 L -5.01512,-355.726 L -5.08836,-356.11
 L -5.11292,-356.5 L -5.11292,-435.5 L -5.08836,-435.89 L -5.01512,-436.274 L -4.89432,-436.646 L -4.72786,-437
 L -4.5184,-437.33 L -4.26921,-437.631 L -3.98424,-437.899 L -3.66798,-438.128 L -3.32541,-438.317 L -2.96194,-438.461
 L -2.5833,-438.558 L -2.19545,-438.607 L 2.19545,-438.607 L 2.5833,-438.558 L 2.96194,-438.461 L 3.32541,-438.317
 L 3.66798,-438.128 L 3.98424,-437.899 L 4.26921,-437.631 L 4.5184,-437.33 L 4.72786,-437 L 4.89432,-436.646
 L 5.01512,-436.274 L 5.08836,-435.89 L 5.11292,-435.5 L 5.11292,-356.5 L 5.08836,-356.11 L 5.01512,-355.726
 L 4.89432,-355.354 L 4.72786,-355 L 4.5184,-354.67 L 4.26921,-354.369 L 3.98424,-354.101 L 3.66798,-353.872
 L 3.32541,-353.683 L 2.96194,-353.539 L 2.5833,-353.442 L 2.19545,-353.393 z
M 3.4369,-252.089 L 4.04507,-252.245 L 4.62889,-252.476 L 5.17912,-252.778 L 5.68712,-253.147 L 6.14484,-253.577
 L 6.54507,-254.061 L 6.88153,-254.591 L 7.14888,-255.159 L 7.34291,-255.757 L 7.46057,-256.373 L 7.5,-257
 L 7.5,-337 L 7.46057,-337.627 L 7.34291,-338.243 L 7.14888,-338.841 L 6.88153,-339.409 L 6.54507,-339.939
 L 6.14484,-340.423 L 5.68712,-340.853 L 5.17912,-341.222 L 4.62889,-341.524 L 4.04507,-341.755 L 3.4369,-341.911
 L 2.81395,-341.99 L -2.81395,-341.99 L -3.4369,-341.911 L -4.04507,-341.755 L -4.62889,-341.524 L -5.17912,-341.222
 L -5.68712,-340.853 L -6.14484,-340.423 L -6.54507,-339.939 L -6.88153,-339.409 L -7.14888,-338.841 L -7.34291,-338.243
 L -7.46057,-337.627 L -7.5,-337 L -7.5,-257 L -7.46057,-256.373 L -7.34291,-255.757 L -7.14888,-255.159
 L -6.88153,-254.591 L -6.54507,-254.061 L -6.14484,-253.577 L -5.68712,-253.147 L -5.17912,-252.778 L -4.62889,-252.476
 L -4.04507,-252.245 L -3.4369,-252.089 L -2.81395,-252.01 L 2.81395,-252.01 z
M -0.134064,-332.369 L -0.400101,-332.403 L -0.659836,-332.469 L -0.909149,-332.568 L -1.14413,-332.697 L -1.36108,-332.855
 L -1.55655,-333.038 L -1.72748,-333.245 L -1.87117,-333.471 L -1.98534,-333.714 L -2.06821,-333.969 L -2.11845,-334.232
 L -2.13528,-334.5 L -2.11845,-334.768 L -2.06821,-335.031 L -1.98534,-335.286 L -1.87117,-335.529 L -1.72748,-335.755
 L -1.55655,-335.962 L -1.36108,-336.145 L -1.14413,-336.303 L -0.909149,-336.432 L -0.659836,-336.531 L -0.400101,-336.597
 L -0.134064,-336.631 L 0.134064,-336.631 L 0.400101,-336.597 L 0.659836,-336.531 L 0.909149,-336.432 L 1.14413,-336.303
 L 1.36108,-336.145 L 1.55655,-335.962 L 1.72748,-335.755 L 1.87117,-335.529 L 1.98534,-335.286 L 2.06821,-335.031
 L 2.11845,-334.768 L 2.13528,-334.5 L 2.11845,-334.232 L 2.06821,-333.969 L 1.98534,-333.714 L 1.87117,-333.471
 L 1.72748,-333.245 L 1.55655,-333.038 L 1.36108,-332.855 L 1.14413,-332.697 L 0.909149,-332.568 L 0.659836,-332.469
 L 0.400101,-332.403 L 0.134064,-332.369 z
M -0.134064,-257.369 L -0.400101,-257.403 L -0.659836,-257.469 L -0.909149,-257.568 L -1.14413,-257.697 L -1.36108,-257.855
 L -1.55655,-258.038 L -1.72748,-258.245 L -1.87117,-258.471 L -1.98534,-258.714 L -2.06821,-258.969 L -2.11845,-259.232
 L -2.13528,-259.5 L -2.11845,-259.768 L -2.06821,-260.031 L -1.98534,-260.286 L -1.87117,-260.529 L -1.72748,-260.755
 L -1.55655,-260.962 L -1.36108,-261.145 L -1.14413,-261.303 L -0.909149,-261.432 L -0.659836,-261.531 L -0.400101,-261.597
 L -0.134064,-261.631 L 0.134064,-261.631 L 0.400101,-261.597 L 0.659836,-261.531 L 0.909149,-261.432 L 1.14413,-261.303
 L 1.36108,-261.145 L 1.55655,-260.962 L 1.72748,-260.755 L 1.87117,-260.529 L 1.98534,-260.286 L 2.06821,-260.031
 L 2.11845,-259.768 L 2.13528,-259.5 L 2.11845,-259.232 L 2.06821,-258.969 L 1.98534,-258.714 L 1.87117,-258.471
 L 1.72748,-258.245 L 1.55655,-258.038 L 1.36108,-257.855 L 1.14413,-257.697 L 0.909149,-257.568 L 0.659836,-257.469
 L 0.400101,-257.403 L 0.134064,-257.369 z
" stroke="black" fill="lightgray" stroke-width="0.5"/>
</svg>
