<?xml version="1.0" standalone="no"?>
<!DOCTYPE svg PUBLIC "-//W3C//DTD SVG 1.1//EN" "http://www.w3.org/Graphics/SVG/1.1/DTD/svg11.dtd">
<svg width="74mm" height="242mm" viewBox="-37 -457 74 242" xmlns="http://www.w3.org/2000/svg" version="1.1">
<title>OpenSCAD Model</title>
<path d="
M 32.9369,-383.089 L 33.5451,-383.245 L 34.1289,-383.476 L 34.6791,-383.778 L 35.1871,-384.147 L 35.6448,-384.577
 L 36.0451,-385.061 L 36.3815,-385.591 L 36.6489,-386.159 L 36.8429,-386.757 L 36.9606,-387.373 L 37,-388
 L 37,-452 L 36.9685,-452.5 L 18.6066,-452.5 L 18.6046,-452.498 L 18.502,-452.498 L 18.5,-452.5
 L 14.561,-452.5 L 14.561,-452.498 L 13.7482,-452.498 L 13.6236,-452.482 L 13.502,-452.451 L 13.3852,-452.405
 L 13.2752,-452.344 L 13.1736,-452.271 L 13.082,-452.185 L 13.002,-452.088 L 12.9347,-451.982 L 12.8812,-451.868
 L 12.8424,-451.749 L 12.8189,-451.625 L 12.811,-451.5 L 12.8189,-451.375 L 12.8424,-451.251 L 12.8812,-451.132
 L 12.9347,-451.018 L 13.002,-450.912 L 13.082,-450.815 L 13.1736,-450.729 L 13.2752,-450.656 L 13.3852,-450.595
 L 13.502,-450.549 L 13.6236,-450.518 L 13.7482,-450.502 L 14.9533,-450.502 L 18.2181,-448.707 L 21.6724,-446.197
 L 24.7849,-443.275 L 27.5066,-439.985 L 29.7944,-436.38 L 31.6124,-432.516 L 32.9318,-428.455 L 33.7319,-424.261
 L 34,-420 L 33.7319,-415.739 L 32.9318,-411.545 L 31.6124,-407.484 L 29.7944,-403.62 L 27.5066,-400.015
 L 24.7849,-396.725 L 21.6724,-393.803 L 18.2181,-391.293 L 14.4765,-389.236 L 10.5066,-387.664 L 6.37096,-386.602
 L 2.13487,-386.067 L -2.13487,-386.067 L -6.37096,-386.602 L -10.5066,-387.664 L -14.4765,-389.236 L -18.2181,-391.293
 L -21.6724,-393.803 L -24.7849,-396.725 L -27.5066,-400.015 L -29.7944,-403.62 L -31.6124,-407.484 L -32.9318,-411.545
 L -33.7319,-415.739 L -34,-420 L -33.7319,-424.261 L -32.9318,-428.455 L -31.6124,-432.516 L -29.7944,-436.38
 L -27.5066,-439.985 L -24.7849,-443.275 L -21.6724,-446.197 L -18.2181,-448.707 L -14.4765,-450.764 L -10.5066,-452.336
 L -6.37096,-453.398 L -2.13487,-453.933 L 0,-453.933 L 0,-454 L 17,-454 L 14.0099,-456.99
 L -4,-456.99 L -4,-456 L -36,-456 L -36,-457 L -37,-457 L -37,-452.994
 L -29.8116,-452.994 L -29.4379,-452.947 L -29.0729,-452.853 L -28.7227,-452.714 L -28.3925,-452.533 L -28.0877,-452.312
 L -27.8131,-452.054 L -27.5729,-451.763 L -27.3711,-451.445 L -27.2107,-451.104 L -27.0942,-450.746 L -27.0237,-450.376
 L -27,-450 L -27.0237,-449.624 L -27.0942,-449.254 L -27.2107,-448.896 L -27.3711,-448.555 L -27.5729,-448.237
 L -27.8131,-447.946 L -28.0877,-447.688 L -28.3925,-447.467 L -28.7227,-447.286 L -29.0729,-447.147 L -29.4379,-447.053
 L -29.8116,-447.006 L -37,-447.006 L -37,-392.994 L -29.8116,-392.994 L -29.4379,-392.947 L -29.0729,-392.853
 L -28.7227,-392.714 L -28.3925,-392.533 L -28.0877,-392.312 L -27.8131,-392.054 L -27.5729,-391.763 L -27.3711,-391.445
 L -27.2107,-391.104 L -27.0942,-390.746 L -27.0237,-390.376 L -27,-390 L -27.0237,-389.624 L -27.0942,-389.254
 L -27.2107,-388.896 L -27.3711,-388.555 L -27.5729,-388.237 L -27.8131,-387.946 L -28.0877,-387.688 L -28.3925,-387.467
 L -28.7227,-387.286 L -29.0729,-387.147 L -29.4379,-387.053 L -29.8116,-387.006 L -36.8905,-387.006 L -36.8429,-386.757
 L -36.6489,-386.159 L -36.3815,-385.591 L -36.0451,-385.061 L -35.6448,-384.577 L -35.1871,-384.147 L -34.6791,-383.778
 L -34.1289,-383.476 L -33.5451,-383.245 L -32.9369,-383.089 L -32.3139,-383.01 L 32.3139,-383.01 z
M 29.8116,-387.006 L 29.4379,-387.053 L 29.0729,-387.147 L 28.7227,-387.286 L 28.3925,-387.467 L 28.0877,-387.688
 L 27.8131,-387.946 L 27.5729,-388.237 L 27.3711,-388.555 L 27.2107,-388.896 L 27.0942,-389.254 L 27.0237,-389.624
 L 27,-390 L 27.0237,-390.376 L 27.0942,-390.746 L 27.2107,-391.104 L 27.3711,-391.445 L 27.5729,-391.763
 L 27.8131,-392.054 L 28.0877,-392.312 L 28.3925,-392.533 L 28.7227,-392.714 L 29.0729,-392.853 L 29.4379,-392.947
 L 29.8116,-392.994 L 30.1884,-392.994 L 30.5621,-392.947 L 30.927,-392.853 L 31.2773,-392.714 L 31.6075,-392.533
 L 31.9123,-392.312 L 32.1869,-392.054 L 32.427,-391.763 L 32.6289,-391.445 L 32.7893,-391.104 L 32.9057,-390.746
 L 32.9763,-390.376 L 33,-390 L 32.9763,-389.624 L 32.9057,-389.254 L 32.7893,-388.896 L 32.6289,-388.555
 L 32.427,-388.237 L 32.1869,-387.946 L 31.9123,-387.688 L 31.6075,-387.467 L 31.2773,-387.286 L 30.927,-387.147
 L 30.5621,-387.053 L 30.1884,-387.006 z
M 27,-456.99 L 16.1312,-456.99 L 19.1213,-454 L 27,-454 z
M 32.9369,-299.089 L 33.5451,-299.245 L 34.1289,-299.476 L 34.6791,-299.778 L 35.1871,-300.147 L 35.6448,-300.577
 L 36.0451,-301.061 L 36.3815,-301.591 L 36.6489,-302.159 L 36.8429,-302.757 L 36.9606,-303.373 L 37,-304
 L 37,-368 L 36.9685,-368.5 L 18.6066,-368.5 L 18.6046,-368.498 L 18.502,-368.498 L 18.5,-368.5
 L 14.561,-368.5 L 14.561,-368.498 L 13.7482,-368.498 L 13.6236,-368.482 L 13.502,-368.451 L 13.3852,-368.405
 L 13.2752,-368.344 L 13.1736,-368.271 L 13.082,-368.185 L 13.002,-368.088 L 12.9347,-367.982 L 12.8812,-367.868
 L 12.8424,-367.749 L 12.8189,-367.625 L 12.811,-367.5 L 12.8189,-367.375 L 12.8424,-367.251 L 12.8812,-367.132
 L 12.9347,-367.018 L 13.002,-366.912 L 13.082,-366.815 L 13.1736,-366.729 L 13.2752,-366.656 L 13.3852,-366.595
 L 13.502,-366.549 L 13.6236,-366.518 L 13.7482,-366.502 L 14.9533,-366.502 L 18.2181,-364.707 L 21.6724,-362.197
 L 24.7849,-359.275 L 27.5066,-355.985 L 29.7944,-352.38 L 31.6124,-348.516 L 32.9318,-344.455 L 33.7319,-340.261
 L 34,-336 L 33.7319,-331.739 L 32.9318,-327.545 L 31.6124,-323.484 L 29.7944,-319.62 L 27.5066,-316.015
 L 24.7849,-312.725 L 21.6724,-309.803 L 18.2181,-307.293 L 14.4765,-305.236 L 10.5066,-303.664 L 6.37096,-302.602
 L 2.13487,-302.067 L -2.13487,-302.067 L -6.37096,-302.602 L -10.5066,-303.664 L -14.4765,-305.236 L -18.2181,-307.293
 L -21.6724,-309.803 L -24.7849,-312.725 L -27.5066,-316.015 L -29.7944,-319.62 L -31.6124,-323.484 L -32.9318,-327.545
 L -33.7319,-331.739 L -34,-336 L -33.7319,-340.261 L -32.9318,-344.455 L -31.6124,-348.516 L -29.7944,-352.38
 L -27.5066,-355.985 L -24.7849,-359.275 L -21.6724,-362.197 L -18.2181,-364.707 L -14.4765,-366.764 L -10.5066,-368.336
 L -6.37096,-369.398 L -2.13487,-369.933 L 0,-369.933 L 0,-370 L 17,-370 L 14.0099,-372.99
 L -4,-372.99 L -4,-372 L -36,-372 L -36,-373 L -37,-373 L -37,-368.994
 L -29.8116,-368.994 L -29.4379,-368.947 L -29.0729,-368.853 L -28.7227,-368.714 L -28.3925,-368.533 L -28.0877,-368.312
 L -27.8131,-368.054 L -27.5729,-367.763 L -27.3711,-367.445 L -27.2107,-367.104 L -27.0942,-366.746 L -27.0237,-366.376
 L -27,-366 L -27.0237,-365.624 L -27.0942,-365.254 L -27.2107,-364.896 L -27.3711,-364.555 L -27.5729,-364.237
 L -27.8131,-363.946 L -28.0877,-363.688 L -28.3925,-363.467 L -28.7227,-363.286 L -29.0729,-363.147 L -29.4379,-363.053
 L -29.8116,-363.006 L -37,-363.006 L -37,-308.994 L -29.8116,-308.994 L -29.4379,-308.947 L -29.0729,-308.853
 L -28.7227,-308.714 L -28.3925,-308.533 L -28.0877,-308.312 L -27.8131,-308.054 L -27.5729,-307.763 L -27.3711,-307.445
 L -27.2107,-307.104 L -27.0942,-306.746 L -27.0237,-306.376 L -27,-306 L -27.0237,-305.624 L -27.0942,-305.254
 L -27.2107,-304.896 L -27.3711,-304.555 L -27.5729,-304.237 L -27.8131,-303.946 L -28.0877,-303.688 L -28.3925,-303.467
 L -28.7227,-303.286 L -29.0729,-303.147 L -29.4379,-303.053 L -29.8116,-303.006 L -36.8905,-303.006 L -36.8429,-302.757
 L -36.6489,-302.159 L -36.3815,-301.591 L -36.0451,-301.061 L -35.6448,-300.577 L -35.1871,-300.147 L -34.6791,-299.778
 L -34.1289,-299.476 L -33.5451,-299.245 L -32.9369,-299.089 L -32.3139,-299.01 L 32.3139,-299.01 z
M 29.8116,-303.006 L 29.4379,-303.053 L 29.0729,-303.147 L 28.7227,-303.286 L 28.3925,-303.467 L 28.0877,-303.688
 L 27.8131,-303.946 L 27.5729,-304.237 L 27.3711,-304.555 L 27.2107,-304.896 L 27.0942,-305.254 L 27.0237,-305.624
 L 27,-306 L 27.0237,-306.376 L 27.0942,-306.746 L 27.2107,-307.104 L 27.3711,-307.445 L 27.5729,-307.763
 L 27.8131,-308.054 L 28.0877,-308.312 L 28.3925,-308.533 L 28.7227,-308.714 L 29.0729,-308.853 L 29.4379,-308.947
 L 29.8116,-308.994 L 30.1884,-308.994 L 30.5621,-308.947 L 30.927,-308.853 L 31.2773,-308.714 L 31.6075,-308.533
 L 31.9123,-308.312 L 32.1869,-308.054 L 32.427,-307.763 L 32.6289,-307.445 L 32.7893,-307.104 L 32.9057,-306.746
 L 32.9763,-306.376 L 33,-306 L 32.9763,-305.624 L 32.9057,-305.254 L 32.7893,-304.896 L 32.6289,-304.555
 L 32.427,-304.237 L 32.1869,-303.946 L 31.9123,-303.688 L 31.6075,-303.467 L 31.2773,-303.286 L 30.927,-303.147
 L 30.5621,-303.053 L 30.1884,-303.006 z
M 27,-372.99 L 16.1312,-372.99 L 19.1213,-370 L 27,-370 z
M 32.9369,-215.089 L 33.5451,-215.245 L 34.1289,-215.476 L 34.6791,-215.778 L 35.1871,-216.147 L 35.6448,-216.577
 L 36.0451,-217.061 L 36.3815,-217.591 L 36.6489,-218.159 L 36.8429,-218.757 L 36.9606,-219.373 L 37,-220
 L 37,-284 L 36.9685,-284.5 L 18.6066,-284.5 L 18.6046,-284.498 L 18.502,-284.498 L 18.5,-284.5
 L 14.561,-284.5 L 14.561,-284.498 L 13.7482,-284.498 L 13.6236,-284.482 L 13.502,-284.451 L 13.3852,-284.405
 L 13.2752,-284.344 L 13.1736,-284.271 L 13.082,-284.185 L 13.002,-284.088 L 12.9347,-283.982 L 12.8812,-283.868
 L 12.8424,-283.749 L 12.8189,-283.625 L 12.811,-283.5 L 12.8189,-283.375 L 12.8424,-283.251 L 12.8812,-283.132
 L 12.9347,-283.018 L 13.002,-282.912 L 13.082,-282.815 L 13.1736,-282.729 L 13.2752,-282.656 L 13.3852,-282.595
 L 13.502,-282.549 L 13.6236,-282.518 L 13.7482,-282.502 L 14.9533,-282.502 L 18.2181,-280.707 L 21.6724,-278.197
 L 24.7849,-275.275 L 27.5066,-271.985 L 29.7944,-268.38 L 31.6124,-264.516 L 32.9318,-260.455 L 33.7319,-256.261
 L 34,-252 L 33.7319,-247.739 L 32.9318,-243.545 L 31.6124,-239.484 L 29.7944,-235.62 L 27.5066,-232.015
 L 24.7849,-228.725 L 21.6724,-225.803 L 18.2181,-223.293 L 14.4765,-221.236 L 10.5066,-219.664 L 6.37096,-218.602
 L 2.13487,-218.067 L -2.13487,-218.067 L -6.37096,-218.602 L -10.5066,-219.664 L -14.4765,-221.236 L -18.2181,-223.293
 L -21.6724,-225.803 L -24.7849,-228.725 L -27.5066,-232.015 L -29.7944,-235.62 L -31.6124,-239.484 L -32.9318,-243.545
 L -33.7319,-247.739 L -34,-252 L -33.7319,-256.261 L -32.9318,-260.455 L -31.6124,-264.516 L -29.7944,-268.38
 L -27.5066,-271.985 L -24.7849,-275.275 L -21.6724,-278.197 L -18.2181,-280.707 L -14.4765,-282.764 L -10.5066,-284.336
 L -6.37096,-285.398 L -2.13487,-285.933 L 0,-285.933 L 0,-286 L 17,-286 L 14.0099,-288.99
 L -4,-288.99 L -4,-288 L -36,-288 L -36,-289 L -37,-289 L -37,-284.994
 L -29.8116,-284.994 L -29.4379,-284.947 L -29.0729,-284.853 L -28.7227,-284.714 L -28.3925,-284.533 L -28.0877,-284.312
 L -27.8131,-284.054 L -27.5729,-283.763 L -27.3711,-283.445 L -27.2107,-283.104 L -27.0942,-282.746 L -27.0237,-282.376
 L -27,-282 L -27.0237,-281.624 L -27.0942,-281.254 L -27.2107,-280.896 L -27.3711,-280.555 L -27.5729,-280.237
 L -27.8131,-279.946 L -28.0877,-279.688 L -28.3925,-279.467 L -28.7227,-279.286 L -29.0729,-279.147 L -29.4379,-279.053
 L -29.8116,-279.006 L -37,-279.006 L -37,-224.994 L -29.8116,-224.994 L -29.4379,-224.947 L -29.0729,-224.853
 L -28.7227,-224.714 L -28.3925,-224.533 L -28.0877,-224.312 L -27.8131,-224.054 L -27.5729,-223.763 L -27.3711,-223.445
 L -27.2107,-223.104 L -27.0942,-222.746 L -27.0237,-222.376 L -27,-222 L -27.0237,-221.624 L -27.0942,-221.254
 L -27.2107,-220.896 L -27.3711,-220.555 L -27.5729,-220.237 L -27.8131,-219.946 L -28.0877,-219.688 L -28.3925,-219.467
 L -28.7227,-219.286 L -29.0729,-219.147 L -29.4379,-219.053 L -29.8116,-219.006 L -36.8905,-219.006 L -36.8429,-218.757
 L -36.6489,-218.159 L -36.3815,-217.591 L -36.0451,-217.061 L -35.6448,-216.577 L -35.1871,-216.147 L -34.6791,-215.778
 L -34.1289,-215.476 L -33.5451,-215.245 L -32.9369,-215.089 L -32.3139,-215.01 L 32.3139,-215.01 z
M 29.8116,-219.006 L 29.4379,-219.053 L 29.0729,-219.147 L 28.7227,-219.286 L 28.3925,-219.467 L 28.0877,-219.688
 L 27.8131,-219.946 L 27.5729,-220.237 L 27.3711,-220.555 L 27.2107,-220.896 L 27.0942,-221.254 L 27.0237,-221.624
 L 27,-222 L 27.0237,-222.376 L 27.0942,-222.746 L 27.2107,-223.104 L 27.3711,-223.445 L 27.5729,-223.763
 L 27.8131,-224.054 L 28.0877,-224.312 L 28.3925,-224.533 L 28.7227,-224.714 L 29.0729,-224.853 L 29.4379,-224.947
 L 29.8116,-224.994 L 30.1884,-224.994 L 30.5621,-224.947 L 30.927,-224.853 L 31.2773,-224.714 L 31.6075,-224.533
 L 31.9123,-224.312 L 32.1869,-224.054 L 32.427,-223.763 L 32.6289,-223.445 L 32.7893,-223.104 L 32.9057,-222.746
 L 32.9763,-222.376 L 33,-222 L 32.9763,-221.624 L 32.9057,-221.254 L 32.7893,-220.896 L 32.6289,-220.555
 L 32.427,-220.237 L 32.1869,-219.946 L 31.9123,-219.688 L 31.6075,-219.467 L 31.2773,-219.286 L 30.927,-219.147
 L 30.5621,-219.053 L 30.1884,-219.006 z
M 27,-288.99 L 16.1312,-288.99 L 19.1213,-286 L 27,-286 z
" stroke="black" fill="lightgray" stroke-width="0.5"/>
</svg>
