<?xml version="1.0" standalone="no"?>
<!DOCTYPE svg PUBLIC "-//W3C//DTD SVG 1.1//EN" "http://www.w3.org/Graphics/SVG/1.1/DTD/svg11.dtd">
<svg width="16mm" height="154mm" viewBox="-8 -293 16 154" xmlns="http://www.w3.org/2000/svg" version="1.1">
<title>OpenSCAD Model</title>
<path d="
M 3.4369,-247.589 L 4.04507,-247.745 L 4.62889,-247.976 L 5.17912,-248.278 L 5.68712,-248.647 L 6.14484,-249.077
 L 6.54507,-249.561 L 6.88153,-250.091 L 7.14888,-250.659 L 7.34291,-251.257 L 7.46057,-251.873 L 7.5,-252.5
 L 7.5,-287.5 L 7.46057,-288.127 L 7.34291,-288.743 L 7.14888,-289.341 L 6.88153,-289.909 L 6.54507,-290.439
 L 6.14484,-290.923 L 5.68712,-291.353 L 5.17912,-291.722 L 4.62889,-292.024 L 4.04507,-292.255 L 3.4369,-292.411
 L 2.81395,-292.49 L -2.81395,-292.49 L -3.4369,-292.411 L -4.04507,-292.255 L -4.62889,-292.024 L -5.17912,-291.722
 L -5.68712,-291.353 L -6.14484,-290.923 L -6.54507,-290.439 L -6.88153,-289.909 L -7.14888,-289.341 L -7.34291,-288.743
 L -7.46057,-288.127 L -7.5,-287.5 L -7.5,-252.5 L -7.46057,-251.873 L -7.34291,-251.257 L -7.14888,-250.659
 L -6.88153,-250.091 L -6.54507,-249.561 L -6.14484,-249.077 L -5.68712,-248.647 L -5.17912,-248.278 L -4.62889,-247.976
 L -4.04507,-247.745 L -3.4369,-247.589 L -2.81395,-247.51 L 2.81395,-247.51 z
M -2.25116,-249.008 L -2.74951,-249.071 L -3.23605,-249.196 L -3.70311,-249.381 L -4.1433,-249.623 L -4.54968,-249.918
 L -4.91586,-250.262 L -5.23605,-250.649 L -5.50522,-251.073 L -5.7191,-251.528 L -5.87433,-252.005 L -5.96844,-252.499
 L -6,-253 L -6,-287 L -5.96844,-287.501 L -5.87433,-287.995 L -5.7191,-288.472 L -5.50522,-288.927
 L -5.23605,-289.351 L -4.91586,-289.738 L -4.54968,-290.082 L -4.1433,-290.377 L -3.70311,-290.619 L -3.23605,-290.804
 L -2.74951,-290.929 L -2.25116,-290.992 L 2.25116,-290.992 L 2.74951,-290.929 L 3.23605,-290.804 L 3.70311,-290.619
 L 4.1433,-290.377 L 4.54968,-290.082 L 4.91586,-289.738 L 5.23605,-289.351 L 5.50522,-288.927 L 5.7191,-288.472
 L 5.87433,-287.995 L 5.96844,-287.501 L 6,-287 L 6,-253 L 5.96844,-252.499 L 5.87433,-252.005
 L 5.7191,-251.528 L 5.50522,-251.073 L 5.23605,-250.649 L 4.91586,-250.262 L 4.54968,-249.918 L 4.1433,-249.623
 L 3.70311,-249.381 L 3.23605,-249.196 L 2.74951,-249.071 L 2.25116,-249.008 z
M 3.4369,-193.589 L 4.04507,-193.745 L 4.62889,-193.976 L 5.17912,-194.278 L 5.68712,-194.647 L 6.14484,-195.077
 L 6.54507,-195.561 L 6.88153,-196.091 L 7.14888,-196.659 L 7.34291,-197.257 L 7.46057,-197.873 L 7.5,-198.5
 L 7.5,-233.5 L 7.46057,-234.127 L 7.34291,-234.743 L 7.14888,-235.341 L 6.88153,-235.909 L 6.54507,-236.439
 L 6.14484,-236.923 L 5.68712,-237.353 L 5.17912,-237.722 L 4.62889,-238.024 L 4.04507,-238.255 L 3.4369,-238.411
 L 2.81395,-238.49 L -2.81395,-238.49 L -3.4369,-238.411 L -4.04507,-238.255 L -4.62889,-238.024 L -5.17912,-237.722
 L -5.68712,-237.353 L -6.14484,-236.923 L -6.54507,-236.439 L -6.88153,-235.909 L -7.14888,-235.341 L -7.34291,-234.743
 L -7.46057,-234.127 L -7.5,-233.5 L -7.5,-198.5 L -7.46057,-197.873 L -7.34291,-197.257 L -7.14888,-196.659
 L -6.88153,-196.091 L -6.54507,-195.561 L -6.14484,-195.077 L -5.68712,-194.647 L -5.17912,-194.278 L -4.62889,-193.976
 L -4.04507,-193.745 L -3.4369,-193.589 L -2.81395,-193.51 L 2.81395,-193.51 z
M -2.19545,-195.893 L -2.5833,-195.942 L -2.96194,-196.039 L -3.32541,-196.183 L -3.66798,-196.372 L -3.98424,-196.601
 L -4.26921,-196.869 L -4.5184,-197.17 L -4.72786,-197.5 L -4.89432,-197.854 L -5.01512,-198.226 L -5.08836,-198.61
 L -5.11292,-199 L -5.11292,-233 L -5.08836,-233.39 L -5.01512,-233.774 L -4.89432,-234.146 L -4.72786,-234.5
 L -4.5184,-234.83 L -4.26921,-235.131 L -3.98424,-235.399 L -3.66798,-235.628 L -3.32541,-235.817 L -2.96194,-235.961
 L -2.5833,-236.058 L -2.19545,-236.107 L 2.19545,-236.107 L 2.5833,-236.058 L 2.96194,-235.961 L 3.32541,-235.817
 L 3.66798,-235.628 L 3.98424,-235.399 L 4.26921,-235.131 L 4.5184,-234.83 L 4.72786,-234.5 L 4.89432,-234.146
 L 5.01512,-233.774 L 5.08836,-233.39 L 5.11292,-233 L 5.11292,-199 L 5.08836,-198.61 L 5.01512,-198.226
 L 4.89432,-197.854 L 4.72786,-197.5 L 4.5184,-197.17 L 4.26921,-196.869 L 3.98424,-196.601 L 3.66798,-196.372
 L 3.32541,-196.183 L 2.96194,-196.039 L 2.5833,-195.942 L 2.19545,-195.893 z
M 3.4369,-139.589 L 4.04507,-139.745 L 4.62889,-139.976 L 5.17912,-140.278 L 5.68712,-140.647 L 6.14484,-141.077
 L 6.54507,-141.561 L 6.88153,-142.091 L 7.14888,-142.659 L 7.34291,-143.257 L 7.46057,-143.873 L 7.5,-144.5
 L 7.5,-179.5 L 7.46057,-180.127 L 7.34291,-180.743 L 7.14888,-181.341 L 6.88153,-181.909 L 6.54507,-182.439
 L 6.14484,-182.923 L 5.68712,-183.353 L 5.17912,-183.722 L 4.62889,-184.024 L 4.04507,-184.255 L 3.4369,-184.411
 L 2.81395,-184.49 L -2.81395,-184.49 L -3.4369,-184.411 L -4.04507,-184.255 L -4.62889,-184.024 L -5.17912,-183.722
 L -5.68712,-183.353 L -6.14484,-182.923 L -6.54507,-182.439 L -6.88153,-181.909 L -7.14888,-181.341 L -7.34291,-180.743
 L -7.46057,-180.127 L -7.5,-179.5 L -7.5,-144.5 L -7.46057,-143.873 L -7.34291,-143.257 L -7.14888,-142.659
 L -6.88153,-142.091 L -6.54507,-141.561 L -6.14484,-141.077 L -5.68712,-140.647 L -5.17912,-140.278 L -4.62889,-139.976
 L -4.04507,-139.745 L -3.4369,-139.589 L -2.81395,-139.51 L 2.81395,-139.51 z
M -0.134064,-174.869 L -0.400101,-174.903 L -0.659836,-174.969 L -0.909149,-175.068 L -1.14413,-175.197 L -1.36108,-175.355
 L -1.55655,-175.538 L -1.72748,-175.745 L -1.87117,-175.971 L -1.98534,-176.214 L -2.06821,-176.469 L -2.11845,-176.732
 L -2.13528,-177 L -2.11845,-177.268 L -2.06821,-177.531 L -1.98534,-177.786 L -1.87117,-178.029 L -1.72748,-178.255
 L -1.55655,-178.462 L -1.36108,-178.645 L -1.14413,-178.803 L -0.909149,-178.932 L -0.659836,-179.031 L -0.400101,-179.097
 L -0.134064,-179.131 L 0.134064,-179.131 L 0.400101,-179.097 L 0.659836,-179.031 L 0.909149,-178.932 L 1.14413,-178.803
 L 1.36108,-178.645 L 1.55655,-178.462 L 1.72748,-178.255 L 1.87117,-178.029 L 1.98534,-177.786 L 2.06821,-177.531
 L 2.11845,-177.268 L 2.13528,-177 L 2.11845,-176.732 L 2.06821,-176.469 L 1.98534,-176.214 L 1.87117,-175.971
 L 1.72748,-175.745 L 1.55655,-175.538 L 1.36108,-175.355 L 1.14413,-175.197 L 0.909149,-175.068 L 0.659836,-174.969
 L 0.400101,-174.903 L 0.134064,-174.869 z
M -0.134064,-144.869 L -0.400101,-144.903 L -0.659836,-144.969 L -0.909149,-145.068 L -1.14413,-145.197 L -1.36108,-145.355
 L -1.55655,-145.538 L -1.72748,-145.745 L -1.87117,-145.971 L -1.98534,-146.214 L -2.06821,-146.469 L -2.11845,-146.732
 L -2.13528,-147 L -2.11845,-147.268 L -2.06821,-147.531 L -1.98534,-147.786 L -1.87117,-148.029 L -1.72748,-148.255
 L -1.55655,-148.462 L -1.36108,-148.645 L -1.14413,-148.803 L -0.909149,-148.932 L -0.659836,-149.031 L -0.400101,-149.097
 L -0.134064,-149.131 L 0.134064,-149.131 L 0.400101,-149.097 L 0.659836,-149.031 L 0.909149,-148.932 L 1.14413,-148.803
 L 1.36108,-148.645 L 1.55655,-148.462 L 1.72748,-148.255 L 1.87117,-148.029 L 1.98534,-147.786 L 2.06821,-147.531
 L 2.11845,-147.268 L 2.13528,-147 L 2.11845,-146.732 L 2.06821,-146.469 L 1.98534,-146.214 L 1.87117,-145.971
 L 1.72748,-145.745 L 1.55655,-145.538 L 1.36108,-145.355 L 1.14413,-145.197 L 0.909149,-145.068 L 0.659836,-144.969
 L 0.400101,-144.903 L 0.134064,-144.869 z
" stroke="black" fill="lightgray" stroke-width="0.5"/>
</svg>
