<?xml version="1.0" standalone="no"?>
<!DOCTYPE svg PUBLIC "-//W3C//DTD SVG 1.1//EN" "http://www.w3.org/Graphics/SVG/1.1/DTD/svg11.dtd">
<svg width="60mm" height="40mm" viewBox="-30 -56 60 40" xmlns="http://www.w3.org/2000/svg" version="1.1">
<title>OpenSCAD Model</title>
<path d="
M 25.9369,-40.5886 L 26.5451,-40.7447 L 27.1289,-40.9759 L 27.6791,-41.2784 L 28.1871,-41.6474 L 28.6448,-42.0773
 L 29.0451,-42.5611 L 29.3815,-43.0912 L 29.6489,-43.6594 L 29.8429,-44.2566 L 29.9606,-44.8733 L 30,-45.5
 L 30,-50.5 L 29.9606,-51.1267 L 29.8429,-51.7434 L 29.6489,-52.3406 L 29.3815,-52.9088 L 29.0451,-53.4389
 L 28.6448,-53.9227 L 28.1871,-54.3526 L 27.6791,-54.7216 L 27.1289,-55.0241 L 26.5451,-55.2553 L 25.9369,-55.4114
 L 25.3139,-55.4901 L -25.3139,-55.4901 L -25.9369,-55.4114 L -26.5451,-55.2553 L -27.1289,-55.0241 L -27.6791,-54.7216
 L -28.1871,-54.3526 L -28.6448,-53.9227 L -29.0451,-53.4389 L -29.3815,-52.9088 L -29.6489,-52.3406 L -29.8429,-51.7434
 L -29.9606,-51.1267 L -30,-50.5 L -30,-45.5 L -29.9606,-44.8733 L -29.8429,-44.2566 L -29.6489,-43.6594
 L -29.3815,-43.0912 L -29.0451,-42.5611 L -28.6448,-42.0773 L -28.1871,-41.6474 L -27.6791,-41.2784 L -27.1289,-40.9759
 L -26.5451,-40.7447 L -25.9369,-40.5886 L -25.3139,-40.5099 L 25.3139,-40.5099 z
M -24.993,-41.8882 L -25.4751,-41.9491 L -25.9457,-42.0699 L -26.3975,-42.2488 L -26.8234,-42.4829 L -27.2165,-42.7685
 L -27.5707,-43.1012 L -27.8805,-43.4756 L -28.1408,-43.8859 L -28.3477,-44.3256 L -28.4979,-44.7877 L -28.589,-45.265
 L -28.6195,-45.75 L -28.6195,-50.25 L -28.589,-50.735 L -28.4979,-51.2123 L -28.3477,-51.6744 L -28.1408,-52.1141
 L -27.8805,-52.5244 L -27.5707,-52.8988 L -27.2165,-53.2315 L -26.8234,-53.5171 L -26.3975,-53.7512 L -25.9457,-53.9301
 L -25.4751,-54.0509 L -24.993,-54.1118 L 24.993,-54.1118 L 25.4751,-54.0509 L 25.9457,-53.9301 L 26.3975,-53.7512
 L 26.8234,-53.5171 L 27.2165,-53.2315 L 27.5707,-52.8988 L 27.8805,-52.5244 L 28.1408,-52.1141 L 28.3477,-51.6744
 L 28.4979,-51.2123 L 28.589,-50.735 L 28.6195,-50.25 L 28.6195,-45.75 L 28.589,-45.265 L 28.4979,-44.7877
 L 28.3477,-44.3256 L 28.1408,-43.8859 L 27.8805,-43.4756 L 27.5707,-43.1012 L 27.2165,-42.7685 L 26.8234,-42.4829
 L 26.3975,-42.2488 L 25.9457,-42.0699 L 25.4751,-41.9491 L 24.993,-41.8882 z
M 25.9369,-16.5886 L 26.5451,-16.7447 L 27.1289,-16.9759 L 27.6791,-17.2784 L 28.1871,-17.6474 L 28.6448,-18.0773
 L 29.0451,-18.5611 L 29.3815,-19.0912 L 29.6489,-19.6594 L 29.8429,-20.2566 L 29.9606,-20.8733 L 30,-21.5
 L 30,-26.5 L 29.9606,-27.1267 L 29.8429,-27.7434 L 29.6489,-28.3406 L 29.3815,-28.9088 L 29.0451,-29.4389
 L 28.6448,-29.9227 L 28.1871,-30.3526 L 27.6791,-30.7216 L 27.1289,-31.0241 L 26.5451,-31.2553 L 25.9369,-31.4114
 L 25.3139,-31.4901 L -25.3139,-31.4901 L -25.9369,-31.4114 L -26.5451,-31.2553 L -27.1289,-31.0241 L -27.6791,-30.7216
 L -28.1871,-30.3526 L -28.6448,-29.9227 L -29.0451,-29.4389 L -29.3815,-28.9088 L -29.6489,-28.3406 L -29.8429,-27.7434
 L -29.9606,-27.1267 L -30,-26.5 L -30,-21.5 L -29.9606,-20.8733 L -29.8429,-20.2566 L -29.6489,-19.6594
 L -29.3815,-19.0912 L -29.0451,-18.5611 L -28.6448,-18.0773 L -28.1871,-17.6474 L -27.6791,-17.2784 L -27.1289,-16.9759
 L -26.5451,-16.7447 L -25.9369,-16.5886 L -25.3139,-16.5099 L 25.3139,-16.5099 z
M -22.613,-22.2036 L -22.8373,-22.2319 L -23.0562,-22.2881 L -23.2664,-22.3713 L -23.4645,-22.4802 L -23.6474,-22.6131
 L -23.8121,-22.7678 L -23.9562,-22.942 L -24.0773,-23.1329 L -24.1736,-23.3374 L -24.2434,-23.5524 L -24.2858,-23.7744
 L -24.3,-24 L -24.2858,-24.2256 L -24.2434,-24.4476 L -24.1736,-24.6626 L -24.0773,-24.8671 L -23.9562,-25.058
 L -23.8121,-25.2322 L -23.6474,-25.3869 L -23.4645,-25.5198 L -23.2664,-25.6287 L -23.0562,-25.7119 L -22.8373,-25.7681
 L -22.613,-25.7964 L -22.387,-25.7964 L -22.1627,-25.7681 L -21.9438,-25.7119 L -21.7336,-25.6287 L -21.5355,-25.5198
 L -21.3526,-25.3869 L -21.1879,-25.2322 L -21.0438,-25.058 L -20.9226,-24.8671 L -20.8264,-24.6626 L -20.7565,-24.4476
 L -20.7142,-24.2256 L -20.7,-24 L -20.7142,-23.7744 L -20.7565,-23.5524 L -20.8264,-23.3374 L -20.9226,-23.1329
 L -21.0438,-22.942 L -21.1879,-22.7678 L -21.3526,-22.6131 L -21.5355,-22.4802 L -21.7336,-22.3713 L -21.9438,-22.2881
 L -22.1627,-22.2319 L -22.387,-22.2036 z
M 22.387,-22.2036 L 22.1627,-22.2319 L 21.9438,-22.2881 L 21.7336,-22.3713 L 21.5355,-22.4802 L 21.3526,-22.6131
 L 21.1879,-22.7678 L 21.0438,-22.942 L 20.9226,-23.1329 L 20.8264,-23.3374 L 20.7565,-23.5524 L 20.7142,-23.7744
 L 20.7,-24 L 20.7142,-24.2256 L 20.7565,-24.4476 L 20.8264,-24.6626 L 20.9226,-24.8671 L 21.0438,-25.058
 L 21.1879,-25.2322 L 21.3526,-25.3869 L 21.5355,-25.5198 L 21.7336,-25.6287 L 21.9438,-25.7119 L 22.1627,-25.7681
 L 22.387,-25.7964 L 22.613,-25.7964 L 22.8373,-25.7681 L 23.0562,-25.7119 L 23.2664,-25.6287 L 23.4645,-25.5198
 L 23.6474,-25.3869 L 23.8121,-25.2322 L 23.9562,-25.058 L 24.0773,-24.8671 L 24.1736,-24.6626 L 24.2434,-24.4476
 L 24.2858,-24.2256 L 24.3,-24 L 24.2858,-23.7744 L 24.2434,-23.5524 L 24.1736,-23.3374 L 24.0773,-23.1329
 L 23.9562,-22.942 L 23.8121,-22.7678 L 23.6474,-22.6131 L 23.4645,-22.4802 L 23.2664,-22.3713 L 23.0562,-22.2881
 L 22.8373,-22.2319 L 22.613,-22.2036 z
" stroke="black" fill="lightgray" stroke-width="0.5"/>
</svg>
