<?xml version="1.0" standalone="no"?>
<!DOCTYPE svg PUBLIC "-//W3C//DTD SVG 1.1//EN" "http://www.w3.org/Graphics/SVG/1.1/DTD/svg11.dtd">
<svg width="16mm" height="108mm" viewBox="-8 -210 16 108" xmlns="http://www.w3.org/2000/svg" version="1.1">
<title>OpenSCAD Model</title>
<path d="
M 3.4369,-180.089 L 4.04507,-180.245 L 4.62889,-180.476 L 5.17912,-180.778 L 5.68712,-181.147 L 6.14484,-181.577
 L 6.54507,-182.061 L 6.88153,-182.591 L 7.14888,-183.159 L 7.34291,-183.757 L 7.46057,-184.373 L 7.5,-185
 L 7.5,-205 L 7.46057,-205.627 L 7.34291,-206.243 L 7.14888,-206.841 L 6.88153,-207.409 L 6.54507,-207.939
 L 6.14484,-208.423 L 5.68712,-208.853 L 5.17912,-209.222 L 4.62889,-209.524 L 4.04507,-209.755 L 3.4369,-209.911
 L 2.81395,-209.99 L -2.81395,-209.99 L -3.4369,-209.911 L -4.04507,-209.755 L -4.62889,-209.524 L -5.17912,-209.222
 L -5.68712,-208.853 L -6.14484,-208.423 L -6.54507,-207.939 L -6.88153,-207.409 L -7.14888,-206.841 L -7.34291,-206.243
 L -7.46057,-205.627 L -7.5,-205 L -7.5,-185 L -7.46057,-184.373 L -7.34291,-183.757 L -7.14888,-183.159
 L -6.88153,-182.591 L -6.54507,-182.061 L -6.14484,-181.577 L -5.68712,-181.147 L -5.17912,-180.778 L -4.62889,-180.476
 L -4.04507,-180.245 L -3.4369,-180.089 L -2.81395,-180.01 L 2.81395,-180.01 z
M -2.25116,-181.508 L -2.74951,-181.571 L -3.23605,-181.696 L -3.70311,-181.881 L -4.1433,-182.123 L -4.54968,-182.418
 L -4.91586,-182.762 L -5.23605,-183.149 L -5.50522,-183.573 L -5.7191,-184.028 L -5.87433,-184.505 L -5.96844,-184.999
 L -6,-185.5 L -6,-204.5 L -5.96844,-205.001 L -5.87433,-205.495 L -5.7191,-205.972 L -5.50522,-206.427
 L -5.23605,-206.851 L -4.91586,-207.238 L -4.54968,-207.582 L -4.1433,-207.877 L -3.70311,-208.119 L -3.23605,-208.304
 L -2.74951,-208.429 L -2.25116,-208.492 L 2.25116,-208.492 L 2.74951,-208.429 L 3.23605,-208.304 L 3.70311,-208.119
 L 4.1433,-207.877 L 4.54968,-207.582 L 4.91586,-207.238 L 5.23605,-206.851 L 5.50522,-206.427 L 5.7191,-205.972
 L 5.87433,-205.495 L 5.96844,-205.001 L 6,-204.5 L 6,-185.5 L 5.96844,-184.999 L 5.87433,-184.505
 L 5.7191,-184.028 L 5.50522,-183.573 L 5.23605,-183.149 L 4.91586,-182.762 L 4.54968,-182.418 L 4.1433,-182.123
 L 3.70311,-181.881 L 3.23605,-181.696 L 2.74951,-181.571 L 2.25116,-181.508 z
M 3.4369,-141.089 L 4.04507,-141.245 L 4.62889,-141.476 L 5.17912,-141.778 L 5.68712,-142.147 L 6.14484,-142.577
 L 6.54507,-143.061 L 6.88153,-143.591 L 7.14888,-144.159 L 7.34291,-144.757 L 7.46057,-145.373 L 7.5,-146
 L 7.5,-166 L 7.46057,-166.627 L 7.34291,-167.243 L 7.14888,-167.841 L 6.88153,-168.409 L 6.54507,-168.939
 L 6.14484,-169.423 L 5.68712,-169.853 L 5.17912,-170.222 L 4.62889,-170.524 L 4.04507,-170.755 L 3.4369,-170.911
 L 2.81395,-170.99 L -2.81395,-170.99 L -3.4369,-170.911 L -4.04507,-170.755 L -4.62889,-170.524 L -5.17912,-170.222
 L -5.68712,-169.853 L -6.14484,-169.423 L -6.54507,-168.939 L -6.88153,-168.409 L -7.14888,-167.841 L -7.34291,-167.243
 L -7.46057,-166.627 L -7.5,-166 L -7.5,-146 L -7.46057,-145.373 L -7.34291,-144.757 L -7.14888,-144.159
 L -6.88153,-143.591 L -6.54507,-143.061 L -6.14484,-142.577 L -5.68712,-142.147 L -5.17912,-141.778 L -4.62889,-141.476
 L -4.04507,-141.245 L -3.4369,-141.089 L -2.81395,-141.01 L 2.81395,-141.01 z
M -2.19545,-143.393 L -2.5833,-143.442 L -2.96194,-143.539 L -3.32541,-143.683 L -3.66798,-143.872 L -3.98424,-144.101
 L -4.26921,-144.369 L -4.5184,-144.67 L -4.72786,-145 L -4.89432,-145.354 L -5.01512,-145.726 L -5.08836,-146.11
 L -5.11292,-146.5 L -5.11292,-165.5 L -5.08836,-165.89 L -5.01512,-166.274 L -4.89432,-166.646 L -4.72786,-167
 L -4.5184,-167.33 L -4.26921,-167.631 L -3.98424,-167.899 L -3.66798,-168.128 L -3.32541,-168.317 L -2.96194,-168.461
 L -2.5833,-168.558 L -2.19545,-168.607 L 2.19545,-168.607 L 2.5833,-168.558 L 2.96194,-168.461 L 3.32541,-168.317
 L 3.66798,-168.128 L 3.98424,-167.899 L 4.26921,-167.631 L 4.5184,-167.33 L 4.72786,-167 L 4.89432,-166.646
 L 5.01512,-166.274 L 5.08836,-165.89 L 5.11292,-165.5 L 5.11292,-146.5 L 5.08836,-146.11 L 5.01512,-145.726
 L 4.89432,-145.354 L 4.72786,-145 L 4.5184,-144.67 L 4.26921,-144.369 L 3.98424,-144.101 L 3.66798,-143.872
 L 3.32541,-143.683 L 2.96194,-143.539 L 2.5833,-143.442 L 2.19545,-143.393 z
M 3.4369,-102.089 L 4.04507,-102.245 L 4.62889,-102.476 L 5.17912,-102.778 L 5.68712,-103.147 L 6.14484,-103.577
 L 6.54507,-104.061 L 6.88153,-104.591 L 7.14888,-105.159 L 7.34291,-105.757 L 7.46057,-106.373 L 7.5,-107
 L 7.5,-127 L 7.46057,-127.627 L 7.34291,-128.243 L 7.14888,-128.841 L 6.88153,-129.409 L 6.54507,-129.939
 L 6.14484,-130.423 L 5.68712,-130.853 L 5.17912,-131.222 L 4.62889,-131.524 L 4.04507,-131.755 L 3.4369,-131.911
 L 2.81395,-131.99 L -2.81395,-131.99 L -3.4369,-131.911 L -4.04507,-131.755 L -4.62889,-131.524 L -5.17912,-131.222
 L -5.68712,-130.853 L -6.14484,-130.423 L -6.54507,-129.939 L -6.88153,-129.409 L -7.14888,-128.841 L -7.34291,-128.243
 L -7.46057,-127.627 L -7.5,-127 L -7.5,-107 L -7.46057,-106.373 L -7.34291,-105.757 L -7.14888,-105.159
 L -6.88153,-104.591 L -6.54507,-104.061 L -6.14484,-103.577 L -5.68712,-103.147 L -5.17912,-102.778 L -4.62889,-102.476
 L -4.04507,-102.245 L -3.4369,-102.089 L -2.81395,-102.01 L 2.81395,-102.01 z
M -0.134064,-122.369 L -0.400101,-122.403 L -0.659836,-122.469 L -0.909149,-122.568 L -1.14413,-122.697 L -1.36108,-122.855
 L -1.55655,-123.038 L -1.72748,-123.245 L -1.87117,-123.471 L -1.98534,-123.714 L -2.06821,-123.969 L -2.11845,-124.232
 L -2.13528,-124.5 L -2.11845,-124.768 L -2.06821,-125.031 L -1.98534,-125.286 L -1.87117,-125.529 L -1.72748,-125.755
 L -1.55655,-125.962 L -1.36108,-126.145 L -1.14413,-126.303 L -0.909149,-126.432 L -0.659836,-126.531 L -0.400101,-126.597
 L -0.134064,-126.631 L 0.134064,-126.631 L 0.400101,-126.597 L 0.659836,-126.531 L 0.909149,-126.432 L 1.14413,-126.303
 L 1.36108,-126.145 L 1.55655,-125.962 L 1.72748,-125.755 L 1.87117,-125.529 L 1.98534,-125.286 L 2.06821,-125.031
 L 2.11845,-124.768 L 2.13528,-124.5 L 2.11845,-124.232 L 2.06821,-123.969 L 1.98534,-123.714 L 1.87117,-123.471
 L 1.72748,-123.245 L 1.55655,-123.038 L 1.36108,-122.855 L 1.14413,-122.697 L 0.909149,-122.568 L 0.659836,-122.469
 L 0.400101,-122.403 L 0.134064,-122.369 z
M -0.134064,-107.369 L -0.400101,-107.403 L -0.659836,-107.469 L -0.909149,-107.568 L -1.14413,-107.697 L -1.36108,-107.855
 L -1.55655,-108.038 L -1.72748,-108.245 L -1.87117,-108.471 L -1.98534,-108.714 L -2.06821,-108.969 L -2.11845,-109.232
 L -2.13528,-109.5 L -2.11845,-109.768 L -2.06821,-110.031 L -1.98534,-110.286 L -1.87117,-110.529 L -1.72748,-110.755
 L -1.55655,-110.962 L -1.36108,-111.145 L -1.14413,-111.303 L -0.909149,-111.432 L -0.659836,-111.531 L -0.400101,-111.597
 L -0.134064,-111.631 L 0.134064,-111.631 L 0.400101,-111.597 L 0.659836,-111.531 L 0.909149,-111.432 L 1.14413,-111.303
 L 1.36108,-111.145 L 1.55655,-110.962 L 1.72748,-110.755 L 1.87117,-110.529 L 1.98534,-110.286 L 2.06821,-110.031
 L 2.11845,-109.768 L 2.13528,-109.5 L 2.11845,-109.232 L 2.06821,-108.969 L 1.98534,-108.714 L 1.87117,-108.471
 L 1.72748,-108.245 L 1.55655,-108.038 L 1.36108,-107.855 L 1.14413,-107.697 L 0.909149,-107.568 L 0.659836,-107.469
 L 0.400101,-107.403 L 0.134064,-107.369 z
" stroke="black" fill="lightgray" stroke-width="0.5"/>
</svg>
