  0
SECTION
  2
BLOCKS
  0
ENDSEC
  0
SECTION
  2
ENTITIES
  0
LINE
  8
0
 10
10.9369
 20
243.089
 11
11.5451
 21
243.245
  0
LINE
  8
0
 10
11.5451
 20
243.245
 11
12.1289
 21
243.476
  0
LINE
  8
0
 10
12.1289
 20
243.476
 11
12.6791
 21
243.778
  0
LINE
  8
0
 10
12.6791
 20
243.778
 11
13.1871
 21
244.147
  0
LINE
  8
0
 10
13.1871
 20
244.147
 11
13.6448
 21
244.577
  0
LINE
  8
0
 10
13.6448
 20
244.577
 11
14.0451
 21
245.061
  0
LINE
  8
0
 10
14.0451
 20
245.061
 11
14.3815
 21
245.591
  0
LINE
  8
0
 10
14.3815
 20
245.591
 11
14.6489
 21
246.159
  0
LINE
  8
0
 10
14.6489
 20
246.159
 11
14.8429
 21
246.757
  0
LINE
  8
0
 10
14.8429
 20
246.757
 11
14.9606
 21
247.373
  0
LINE
  8
0
 10
14.9606
 20
247.373
 11
15
 21
248
  0
LINE
  8
0
 10
15
 20
248
 11
15
 21
388
  0
LINE
  8
0
 10
15
 20
388
 11
14.9606
 21
388.627
  0
LINE
  8
0
 10
14.9606
 20
388.627
 11
14.8429
 21
389.243
  0
LINE
  8
0
 10
14.8429
 20
389.243
 11
14.6489
 21
389.841
  0
LINE
  8
0
 10
14.6489
 20
389.841
 11
14.3815
 21
390.409
  0
LINE
  8
0
 10
14.3815
 20
390.409
 11
14.0451
 21
390.939
  0
LINE
  8
0
 10
14.0451
 20
390.939
 11
13.6448
 21
391.423
  0
LINE
  8
0
 10
13.6448
 20
391.423
 11
13.1871
 21
391.853
  0
LINE
  8
0
 10
13.1871
 20
391.853
 11
12.6791
 21
392.222
  0
LINE
  8
0
 10
12.6791
 20
392.222
 11
12.1289
 21
392.524
  0
LINE
  8
0
 10
12.1289
 20
392.524
 11
11.5451
 21
392.755
  0
LINE
  8
0
 10
11.5451
 20
392.755
 11
10.9369
 21
392.911
  0
LINE
  8
0
 10
10.9369
 20
392.911
 11
10.3139
 21
392.99
  0
LINE
  8
0
 10
10.3139
 20
392.99
 11
-10.3139
 21
392.99
  0
LINE
  8
0
 10
-10.3139
 20
392.99
 11
-10.9369
 21
392.911
  0
LINE
  8
0
 10
-10.9369
 20
392.911
 11
-11.5451
 21
392.755
  0
LINE
  8
0
 10
-11.5451
 20
392.755
 11
-12.1289
 21
392.524
  0
LINE
  8
0
 10
-12.1289
 20
392.524
 11
-12.6791
 21
392.222
  0
LINE
  8
0
 10
-12.6791
 20
392.222
 11
-13.1871
 21
391.853
  0
LINE
  8
0
 10
-13.1871
 20
391.853
 11
-13.6448
 21
391.423
  0
LINE
  8
0
 10
-13.6448
 20
391.423
 11
-14.0451
 21
390.939
  0
LINE
  8
0
 10
-14.0451
 20
390.939
 11
-14.3815
 21
390.409
  0
LINE
  8
0
 10
-14.3815
 20
390.409
 11
-14.6489
 21
389.841
  0
LINE
  8
0
 10
-14.6489
 20
389.841
 11
-14.8429
 21
389.243
  0
LINE
  8
0
 10
-14.8429
 20
389.243
 11
-14.9606
 21
388.627
  0
LINE
  8
0
 10
-14.9606
 20
388.627
 11
-15
 21
388
  0
LINE
  8
0
 10
-15
 20
388
 11
-15
 21
248
  0
LINE
  8
0
 10
-15
 20
248
 11
-14.9606
 21
247.373
  0
LINE
  8
0
 10
-14.9606
 20
247.373
 11
-14.8429
 21
246.757
  0
LINE
  8
0
 10
-14.8429
 20
246.757
 11
-14.6489
 21
246.159
  0
LINE
  8
0
 10
-14.6489
 20
246.159
 11
-14.3815
 21
245.591
  0
LINE
  8
0
 10
-14.3815
 20
245.591
 11
-14.0451
 21
245.061
  0
LINE
  8
0
 10
-14.0451
 20
245.061
 11
-13.6448
 21
244.577
  0
LINE
  8
0
 10
-13.6448
 20
244.577
 11
-13.1871
 21
244.147
  0
LINE
  8
0
 10
-13.1871
 20
244.147
 11
-12.6791
 21
243.778
  0
LINE
  8
0
 10
-12.6791
 20
243.778
 11
-12.1289
 21
243.476
  0
LINE
  8
0
 10
-12.1289
 20
243.476
 11
-11.5451
 21
243.245
  0
LINE
  8
0
 10
-11.5451
 20
243.245
 11
-10.9369
 21
243.089
  0
LINE
  8
0
 10
-10.9369
 20
243.089
 11
-10.3139
 21
243.01
  0
LINE
  8
0
 10
-10.3139
 20
243.01
 11
10.3139
 21
243.01
  0
LINE
  8
0
 10
10.3139
 20
243.01
 11
10.9369
 21
243.089
  0
LINE
  8
0
 10
10.9369
 20
84.0886
 11
11.5451
 21
84.2447
  0
LINE
  8
0
 10
11.5451
 20
84.2447
 11
12.1289
 21
84.4759
  0
LINE
  8
0
 10
12.1289
 20
84.4759
 11
12.6791
 21
84.7784
  0
LINE
  8
0
 10
12.6791
 20
84.7784
 11
13.1871
 21
85.1474
  0
LINE
  8
0
 10
13.1871
 20
85.1474
 11
13.6448
 21
85.5773
  0
LINE
  8
0
 10
13.6448
 20
85.5773
 11
14.0451
 21
86.0611
  0
LINE
  8
0
 10
14.0451
 20
86.0611
 11
14.3815
 21
86.5912
  0
LINE
  8
0
 10
14.3815
 20
86.5912
 11
14.6489
 21
87.1594
  0
LINE
  8
0
 10
14.6489
 20
87.1594
 11
14.8429
 21
87.7566
  0
LINE
  8
0
 10
14.8429
 20
87.7566
 11
14.9606
 21
88.3733
  0
LINE
  8
0
 10
14.9606
 20
88.3733
 11
15
 21
89
  0
LINE
  8
0
 10
15
 20
89
 11
15
 21
229
  0
LINE
  8
0
 10
15
 20
229
 11
14.9606
 21
229.627
  0
LINE
  8
0
 10
14.9606
 20
229.627
 11
14.8429
 21
230.243
  0
LINE
  8
0
 10
14.8429
 20
230.243
 11
14.6489
 21
230.841
  0
LINE
  8
0
 10
14.6489
 20
230.841
 11
14.3815
 21
231.409
  0
LINE
  8
0
 10
14.3815
 20
231.409
 11
14.0451
 21
231.939
  0
LINE
  8
0
 10
14.0451
 20
231.939
 11
13.6448
 21
232.423
  0
LINE
  8
0
 10
13.6448
 20
232.423
 11
13.1871
 21
232.853
  0
LINE
  8
0
 10
13.1871
 20
232.853
 11
12.6791
 21
233.222
  0
LINE
  8
0
 10
12.6791
 20
233.222
 11
12.1289
 21
233.524
  0
LINE
  8
0
 10
12.1289
 20
233.524
 11
11.5451
 21
233.755
  0
LINE
  8
0
 10
11.5451
 20
233.755
 11
10.9369
 21
233.911
  0
LINE
  8
0
 10
10.9369
 20
233.911
 11
10.3139
 21
233.99
  0
LINE
  8
0
 10
10.3139
 20
233.99
 11
-10.3139
 21
233.99
  0
LINE
  8
0
 10
-10.3139
 20
233.99
 11
-10.9369
 21
233.911
  0
LINE
  8
0
 10
-10.9369
 20
233.911
 11
-11.5451
 21
233.755
  0
LINE
  8
0
 10
-11.5451
 20
233.755
 11
-12.1289
 21
233.524
  0
LINE
  8
0
 10
-12.1289
 20
233.524
 11
-12.6791
 21
233.222
  0
LINE
  8
0
 10
-12.6791
 20
233.222
 11
-13.1871
 21
232.853
  0
LINE
  8
0
 10
-13.1871
 20
232.853
 11
-13.6448
 21
232.423
  0
LINE
  8
0
 10
-13.6448
 20
232.423
 11
-14.0451
 21
231.939
  0
LINE
  8
0
 10
-14.0451
 20
231.939
 11
-14.3815
 21
231.409
  0
LINE
  8
0
 10
-14.3815
 20
231.409
 11
-14.6489
 21
230.841
  0
LINE
  8
0
 10
-14.6489
 20
230.841
 11
-14.8429
 21
230.243
  0
LINE
  8
0
 10
-14.8429
 20
230.243
 11
-14.9606
 21
229.627
  0
LINE
  8
0
 10
-14.9606
 20
229.627
 11
-15
 21
229
  0
LINE
  8
0
 10
-15
 20
229
 11
-15
 21
89
  0
LINE
  8
0
 10
-15
 20
89
 11
-14.9606
 21
88.3733
  0
LINE
  8
0
 10
-14.9606
 20
88.3733
 11
-14.8429
 21
87.7566
  0
LINE
  8
0
 10
-14.8429
 20
87.7566
 11
-14.6489
 21
87.1594
  0
LINE
  8
0
 10
-14.6489
 20
87.1594
 11
-14.3815
 21
86.5912
  0
LINE
  8
0
 10
-14.3815
 20
86.5912
 11
-14.0451
 21
86.0611
  0
LINE
  8
0
 10
-14.0451
 20
86.0611
 11
-13.6448
 21
85.5773
  0
LINE
  8
0
 10
-13.6448
 20
85.5773
 11
-13.1871
 21
85.1474
  0
LINE
  8
0
 10
-13.1871
 20
85.1474
 11
-12.6791
 21
84.7784
  0
LINE
  8
0
 10
-12.6791
 20
84.7784
 11
-12.1289
 21
84.4759
  0
LINE
  8
0
 10
-12.1289
 20
84.4759
 11
-11.5451
 21
84.2447
  0
LINE
  8
0
 10
-11.5451
 20
84.2447
 11
-10.9369
 21
84.0886
  0
LINE
  8
0
 10
-10.9369
 20
84.0886
 11
-10.3139
 21
84.0099
  0
LINE
  8
0
 10
-10.3139
 20
84.0099
 11
10.3139
 21
84.0099
  0
LINE
  8
0
 10
10.3139
 20
84.0099
 11
10.9369
 21
84.0886
  0
LINE
  8
0
 10
7.38696
 20
224.704
 11
7.1627
 21
224.732
  0
LINE
  8
0
 10
7.1627
 20
224.732
 11
6.94376
 21
224.788
  0
LINE
  8
0
 10
6.94376
 20
224.788
 11
6.7336
 21
224.871
  0
LINE
  8
0
 10
6.7336
 20
224.871
 11
6.53551
 21
224.98
  0
LINE
  8
0
 10
6.53551
 20
224.98
 11
6.35263
 21
225.113
  0
LINE
  8
0
 10
6.35263
 20
225.113
 11
6.18785
 21
225.268
  0
LINE
  8
0
 10
6.18785
 20
225.268
 11
6.04376
 21
225.442
  0
LINE
  8
0
 10
6.04376
 20
225.442
 11
5.92264
 21
225.633
  0
LINE
  8
0
 10
5.92264
 20
225.633
 11
5.8264
 21
225.837
  0
LINE
  8
0
 10
5.8264
 20
225.837
 11
5.75655
 21
226.052
  0
LINE
  8
0
 10
5.75655
 20
226.052
 11
5.71419
 21
226.274
  0
LINE
  8
0
 10
5.71419
 20
226.274
 11
5.7
 21
226.5
  0
LINE
  8
0
 10
5.7
 20
226.5
 11
5.71419
 21
226.726
  0
LINE
  8
0
 10
5.71419
 20
226.726
 11
5.75655
 21
226.948
  0
LINE
  8
0
 10
5.75655
 20
226.948
 11
5.8264
 21
227.163
  0
LINE
  8
0
 10
5.8264
 20
227.163
 11
5.92264
 21
227.367
  0
LINE
  8
0
 10
5.92264
 20
227.367
 11
6.04376
 21
227.558
  0
LINE
  8
0
 10
6.04376
 20
227.558
 11
6.18785
 21
227.732
  0
LINE
  8
0
 10
6.18785
 20
227.732
 11
6.35263
 21
227.887
  0
LINE
  8
0
 10
6.35263
 20
227.887
 11
6.53551
 21
228.02
  0
LINE
  8
0
 10
6.53551
 20
228.02
 11
6.7336
 21
228.129
  0
LINE
  8
0
 10
6.7336
 20
228.129
 11
6.94376
 21
228.212
  0
LINE
  8
0
 10
6.94376
 20
228.212
 11
7.1627
 21
228.268
  0
LINE
  8
0
 10
7.1627
 20
228.268
 11
7.38696
 21
228.296
  0
LINE
  8
0
 10
7.38696
 20
228.296
 11
7.61302
 21
228.296
  0
LINE
  8
0
 10
7.61302
 20
228.296
 11
7.83728
 21
228.268
  0
LINE
  8
0
 10
7.83728
 20
228.268
 11
8.05623
 21
228.212
  0
LINE
  8
0
 10
8.05623
 20
228.212
 11
8.26639
 21
228.129
  0
LINE
  8
0
 10
8.26639
 20
228.129
 11
8.46448
 21
228.02
  0
LINE
  8
0
 10
8.46448
 20
228.02
 11
8.64735
 21
227.887
  0
LINE
  8
0
 10
8.64735
 20
227.887
 11
8.81213
 21
227.732
  0
LINE
  8
0
 10
8.81213
 20
227.732
 11
8.95622
 21
227.558
  0
LINE
  8
0
 10
8.95622
 20
227.558
 11
9.07735
 21
227.367
  0
LINE
  8
0
 10
9.07735
 20
227.367
 11
9.17358
 21
227.163
  0
LINE
  8
0
 10
9.17358
 20
227.163
 11
9.24344
 21
226.948
  0
LINE
  8
0
 10
9.24344
 20
226.948
 11
9.2858
 21
226.726
  0
LINE
  8
0
 10
9.2858
 20
226.726
 11
9.29999
 21
226.5
  0
LINE
  8
0
 10
9.29999
 20
226.5
 11
9.2858
 21
226.274
  0
LINE
  8
0
 10
9.2858
 20
226.274
 11
9.24344
 21
226.052
  0
LINE
  8
0
 10
9.24344
 20
226.052
 11
9.17358
 21
225.837
  0
LINE
  8
0
 10
9.17358
 20
225.837
 11
9.07735
 21
225.633
  0
LINE
  8
0
 10
9.07735
 20
225.633
 11
8.95622
 21
225.442
  0
LINE
  8
0
 10
8.95622
 20
225.442
 11
8.81213
 21
225.268
  0
LINE
  8
0
 10
8.81213
 20
225.268
 11
8.64735
 21
225.113
  0
LINE
  8
0
 10
8.64735
 20
225.113
 11
8.46448
 21
224.98
  0
LINE
  8
0
 10
8.46448
 20
224.98
 11
8.26639
 21
224.871
  0
LINE
  8
0
 10
8.26639
 20
224.871
 11
8.05623
 21
224.788
  0
LINE
  8
0
 10
8.05623
 20
224.788
 11
7.83728
 21
224.732
  0
LINE
  8
0
 10
7.83728
 20
224.732
 11
7.61302
 21
224.704
  0
LINE
  8
0
 10
7.61302
 20
224.704
 11
7.38696
 21
224.704
  0
LINE
  8
0
 10
-7.61302
 20
224.704
 11
-7.83728
 21
224.732
  0
LINE
  8
0
 10
-7.83728
 20
224.732
 11
-8.05623
 21
224.788
  0
LINE
  8
0
 10
-8.05623
 20
224.788
 11
-8.26639
 21
224.871
  0
LINE
  8
0
 10
-8.26639
 20
224.871
 11
-8.46448
 21
224.98
  0
LINE
  8
0
 10
-8.46448
 20
224.98
 11
-8.64735
 21
225.113
  0
LINE
  8
0
 10
-8.64735
 20
225.113
 11
-8.81213
 21
225.268
  0
LINE
  8
0
 10
-8.81213
 20
225.268
 11
-8.95622
 21
225.442
  0
LINE
  8
0
 10
-8.95622
 20
225.442
 11
-9.07735
 21
225.633
  0
LINE
  8
0
 10
-9.07735
 20
225.633
 11
-9.17358
 21
225.837
  0
LINE
  8
0
 10
-9.17358
 20
225.837
 11
-9.24344
 21
226.052
  0
LINE
  8
0
 10
-9.24344
 20
226.052
 11
-9.2858
 21
226.274
  0
LINE
  8
0
 10
-9.2858
 20
226.274
 11
-9.29999
 21
226.5
  0
LINE
  8
0
 10
-9.29999
 20
226.5
 11
-9.2858
 21
226.726
  0
LINE
  8
0
 10
-9.2858
 20
226.726
 11
-9.24344
 21
226.948
  0
LINE
  8
0
 10
-9.24344
 20
226.948
 11
-9.17358
 21
227.163
  0
LINE
  8
0
 10
-9.17358
 20
227.163
 11
-9.07735
 21
227.367
  0
LINE
  8
0
 10
-9.07735
 20
227.367
 11
-8.95622
 21
227.558
  0
LINE
  8
0
 10
-8.95622
 20
227.558
 11
-8.81213
 21
227.732
  0
LINE
  8
0
 10
-8.81213
 20
227.732
 11
-8.64735
 21
227.887
  0
LINE
  8
0
 10
-8.64735
 20
227.887
 11
-8.46448
 21
228.02
  0
LINE
  8
0
 10
-8.46448
 20
228.02
 11
-8.26639
 21
228.129
  0
LINE
  8
0
 10
-8.26639
 20
228.129
 11
-8.05623
 21
228.212
  0
LINE
  8
0
 10
-8.05623
 20
228.212
 11
-7.83728
 21
228.268
  0
LINE
  8
0
 10
-7.83728
 20
228.268
 11
-7.61302
 21
228.296
  0
LINE
  8
0
 10
-7.61302
 20
228.296
 11
-7.38696
 21
228.296
  0
LINE
  8
0
 10
-7.38696
 20
228.296
 11
-7.1627
 21
228.268
  0
LINE
  8
0
 10
-7.1627
 20
228.268
 11
-6.94376
 21
228.212
  0
LINE
  8
0
 10
-6.94376
 20
228.212
 11
-6.7336
 21
228.129
  0
LINE
  8
0
 10
-6.7336
 20
228.129
 11
-6.53551
 21
228.02
  0
LINE
  8
0
 10
-6.53551
 20
228.02
 11
-6.35263
 21
227.887
  0
LINE
  8
0
 10
-6.35263
 20
227.887
 11
-6.18785
 21
227.732
  0
LINE
  8
0
 10
-6.18785
 20
227.732
 11
-6.04376
 21
227.558
  0
LINE
  8
0
 10
-6.04376
 20
227.558
 11
-5.92264
 21
227.367
  0
LINE
  8
0
 10
-5.92264
 20
227.367
 11
-5.8264
 21
227.163
  0
LINE
  8
0
 10
-5.8264
 20
227.163
 11
-5.75655
 21
226.948
  0
LINE
  8
0
 10
-5.75655
 20
226.948
 11
-5.71419
 21
226.726
  0
LINE
  8
0
 10
-5.71419
 20
226.726
 11
-5.7
 21
226.5
  0
LINE
  8
0
 10
-5.7
 20
226.5
 11
-5.71419
 21
226.274
  0
LINE
  8
0
 10
-5.71419
 20
226.274
 11
-5.75655
 21
226.052
  0
LINE
  8
0
 10
-5.75655
 20
226.052
 11
-5.8264
 21
225.837
  0
LINE
  8
0
 10
-5.8264
 20
225.837
 11
-5.92264
 21
225.633
  0
LINE
  8
0
 10
-5.92264
 20
225.633
 11
-6.04376
 21
225.442
  0
LINE
  8
0
 10
-6.04376
 20
225.442
 11
-6.18785
 21
225.268
  0
LINE
  8
0
 10
-6.18785
 20
225.268
 11
-6.35263
 21
225.113
  0
LINE
  8
0
 10
-6.35263
 20
225.113
 11
-6.53551
 21
224.98
  0
LINE
  8
0
 10
-6.53551
 20
224.98
 11
-6.7336
 21
224.871
  0
LINE
  8
0
 10
-6.7336
 20
224.871
 11
-6.94376
 21
224.788
  0
LINE
  8
0
 10
-6.94376
 20
224.788
 11
-7.1627
 21
224.732
  0
LINE
  8
0
 10
-7.1627
 20
224.732
 11
-7.38696
 21
224.704
  0
LINE
  8
0
 10
-7.38696
 20
224.704
 11
-7.61302
 21
224.704
  0
LINE
  8
0
 10
-7.61302
 20
89.7036
 11
-7.83728
 21
89.7319
  0
LINE
  8
0
 10
-7.83728
 20
89.7319
 11
-8.05623
 21
89.7881
  0
LINE
  8
0
 10
-8.05623
 20
89.7881
 11
-8.26639
 21
89.8713
  0
LINE
  8
0
 10
-8.26639
 20
89.8713
 11
-8.46448
 21
89.9802
  0
LINE
  8
0
 10
-8.46448
 20
89.9802
 11
-8.64735
 21
90.1131
  0
LINE
  8
0
 10
-8.64735
 20
90.1131
 11
-8.81213
 21
90.2678
  0
LINE
  8
0
 10
-8.81213
 20
90.2678
 11
-8.95622
 21
90.442
  0
LINE
  8
0
 10
-8.95622
 20
90.442
 11
-9.07735
 21
90.6328
  0
LINE
  8
0
 10
-9.07735
 20
90.6328
 11
-9.17358
 21
90.8374
  0
LINE
  8
0
 10
-9.17358
 20
90.8374
 11
-9.24344
 21
91.0524
  0
LINE
  8
0
 10
-9.24344
 20
91.0524
 11
-9.2858
 21
91.2744
  0
LINE
  8
0
 10
-9.2858
 20
91.2744
 11
-9.29999
 21
91.5
  0
LINE
  8
0
 10
-9.29999
 20
91.5
 11
-9.2858
 21
91.7256
  0
LINE
  8
0
 10
-9.2858
 20
91.7256
 11
-9.24344
 21
91.9476
  0
LINE
  8
0
 10
-9.24344
 20
91.9476
 11
-9.17358
 21
92.1626
  0
LINE
  8
0
 10
-9.17358
 20
92.1626
 11
-9.07735
 21
92.3672
  0
LINE
  8
0
 10
-9.07735
 20
92.3672
 11
-8.95622
 21
92.558
  0
LINE
  8
0
 10
-8.95622
 20
92.558
 11
-8.81213
 21
92.7322
  0
LINE
  8
0
 10
-8.81213
 20
92.7322
 11
-8.64735
 21
92.8869
  0
LINE
  8
0
 10
-8.64735
 20
92.8869
 11
-8.46448
 21
93.0198
  0
LINE
  8
0
 10
-8.46448
 20
93.0198
 11
-8.26639
 21
93.1287
  0
LINE
  8
0
 10
-8.26639
 20
93.1287
 11
-8.05623
 21
93.2119
  0
LINE
  8
0
 10
-8.05623
 20
93.2119
 11
-7.83728
 21
93.2681
  0
LINE
  8
0
 10
-7.83728
 20
93.2681
 11
-7.61302
 21
93.2964
  0
LINE
  8
0
 10
-7.61302
 20
93.2964
 11
-7.38696
 21
93.2964
  0
LINE
  8
0
 10
-7.38696
 20
93.2964
 11
-7.1627
 21
93.2681
  0
LINE
  8
0
 10
-7.1627
 20
93.2681
 11
-6.94376
 21
93.2119
  0
LINE
  8
0
 10
-6.94376
 20
93.2119
 11
-6.7336
 21
93.1287
  0
LINE
  8
0
 10
-6.7336
 20
93.1287
 11
-6.53551
 21
93.0198
  0
LINE
  8
0
 10
-6.53551
 20
93.0198
 11
-6.35263
 21
92.8869
  0
LINE
  8
0
 10
-6.35263
 20
92.8869
 11
-6.18785
 21
92.7322
  0
LINE
  8
0
 10
-6.18785
 20
92.7322
 11
-6.04376
 21
92.558
  0
LINE
  8
0
 10
-6.04376
 20
92.558
 11
-5.92264
 21
92.3672
  0
LINE
  8
0
 10
-5.92264
 20
92.3672
 11
-5.8264
 21
92.1626
  0
LINE
  8
0
 10
-5.8264
 20
92.1626
 11
-5.75655
 21
91.9476
  0
LINE
  8
0
 10
-5.75655
 20
91.9476
 11
-5.71419
 21
91.7256
  0
LINE
  8
0
 10
-5.71419
 20
91.7256
 11
-5.7
 21
91.5
  0
LINE
  8
0
 10
-5.7
 20
91.5
 11
-5.71419
 21
91.2744
  0
LINE
  8
0
 10
-5.71419
 20
91.2744
 11
-5.75655
 21
91.0524
  0
LINE
  8
0
 10
-5.75655
 20
91.0524
 11
-5.8264
 21
90.8374
  0
LINE
  8
0
 10
-5.8264
 20
90.8374
 11
-5.92264
 21
90.6328
  0
LINE
  8
0
 10
-5.92264
 20
90.6328
 11
-6.04376
 21
90.442
  0
LINE
  8
0
 10
-6.04376
 20
90.442
 11
-6.18785
 21
90.2678
  0
LINE
  8
0
 10
-6.18785
 20
90.2678
 11
-6.35263
 21
90.1131
  0
LINE
  8
0
 10
-6.35263
 20
90.1131
 11
-6.53551
 21
89.9802
  0
LINE
  8
0
 10
-6.53551
 20
89.9802
 11
-6.7336
 21
89.8713
  0
LINE
  8
0
 10
-6.7336
 20
89.8713
 11
-6.94376
 21
89.7881
  0
LINE
  8
0
 10
-6.94376
 20
89.7881
 11
-7.1627
 21
89.7319
  0
LINE
  8
0
 10
-7.1627
 20
89.7319
 11
-7.38696
 21
89.7036
  0
LINE
  8
0
 10
-7.38696
 20
89.7036
 11
-7.61302
 21
89.7036
  0
LINE
  8
0
 10
7.38696
 20
89.7036
 11
7.1627
 21
89.7319
  0
LINE
  8
0
 10
7.1627
 20
89.7319
 11
6.94376
 21
89.7881
  0
LINE
  8
0
 10
6.94376
 20
89.7881
 11
6.7336
 21
89.8713
  0
LINE
  8
0
 10
6.7336
 20
89.8713
 11
6.53551
 21
89.9802
  0
LINE
  8
0
 10
6.53551
 20
89.9802
 11
6.35263
 21
90.1131
  0
LINE
  8
0
 10
6.35263
 20
90.1131
 11
6.18785
 21
90.2678
  0
LINE
  8
0
 10
6.18785
 20
90.2678
 11
6.04376
 21
90.442
  0
LINE
  8
0
 10
6.04376
 20
90.442
 11
5.92264
 21
90.6328
  0
LINE
  8
0
 10
5.92264
 20
90.6328
 11
5.8264
 21
90.8374
  0
LINE
  8
0
 10
5.8264
 20
90.8374
 11
5.75655
 21
91.0524
  0
LINE
  8
0
 10
5.75655
 20
91.0524
 11
5.71419
 21
91.2744
  0
LINE
  8
0
 10
5.71419
 20
91.2744
 11
5.7
 21
91.5
  0
LINE
  8
0
 10
5.7
 20
91.5
 11
5.71419
 21
91.7256
  0
LINE
  8
0
 10
5.71419
 20
91.7256
 11
5.75655
 21
91.9476
  0
LINE
  8
0
 10
5.75655
 20
91.9476
 11
5.8264
 21
92.1626
  0
LINE
  8
0
 10
5.8264
 20
92.1626
 11
5.92264
 21
92.3672
  0
LINE
  8
0
 10
5.92264
 20
92.3672
 11
6.04376
 21
92.558
  0
LINE
  8
0
 10
6.04376
 20
92.558
 11
6.18785
 21
92.7322
  0
LINE
  8
0
 10
6.18785
 20
92.7322
 11
6.35263
 21
92.8869
  0
LINE
  8
0
 10
6.35263
 20
92.8869
 11
6.53551
 21
93.0198
  0
LINE
  8
0
 10
6.53551
 20
93.0198
 11
6.7336
 21
93.1287
  0
LINE
  8
0
 10
6.7336
 20
93.1287
 11
6.94376
 21
93.2119
  0
LINE
  8
0
 10
6.94376
 20
93.2119
 11
7.1627
 21
93.2681
  0
LINE
  8
0
 10
7.1627
 20
93.2681
 11
7.38696
 21
93.2964
  0
LINE
  8
0
 10
7.38696
 20
93.2964
 11
7.61302
 21
93.2964
  0
LINE
  8
0
 10
7.61302
 20
93.2964
 11
7.83728
 21
93.2681
  0
LINE
  8
0
 10
7.83728
 20
93.2681
 11
8.05623
 21
93.2119
  0
LINE
  8
0
 10
8.05623
 20
93.2119
 11
8.26639
 21
93.1287
  0
LINE
  8
0
 10
8.26639
 20
93.1287
 11
8.46448
 21
93.0198
  0
LINE
  8
0
 10
8.46448
 20
93.0198
 11
8.64735
 21
92.8869
  0
LINE
  8
0
 10
8.64735
 20
92.8869
 11
8.81213
 21
92.7322
  0
LINE
  8
0
 10
8.81213
 20
92.7322
 11
8.95622
 21
92.558
  0
LINE
  8
0
 10
8.95622
 20
92.558
 11
9.07735
 21
92.3672
  0
LINE
  8
0
 10
9.07735
 20
92.3672
 11
9.17358
 21
92.1626
  0
LINE
  8
0
 10
9.17358
 20
92.1626
 11
9.24344
 21
91.9476
  0
LINE
  8
0
 10
9.24344
 20
91.9476
 11
9.2858
 21
91.7256
  0
LINE
  8
0
 10
9.2858
 20
91.7256
 11
9.29999
 21
91.5
  0
LINE
  8
0
 10
9.29999
 20
91.5
 11
9.2858
 21
91.2744
  0
LINE
  8
0
 10
9.2858
 20
91.2744
 11
9.24344
 21
91.0524
  0
LINE
  8
0
 10
9.24344
 20
91.0524
 11
9.17358
 21
90.8374
  0
LINE
  8
0
 10
9.17358
 20
90.8374
 11
9.07735
 21
90.6328
  0
LINE
  8
0
 10
9.07735
 20
90.6328
 11
8.95622
 21
90.442
  0
LINE
  8
0
 10
8.95622
 20
90.442
 11
8.81213
 21
90.2678
  0
LINE
  8
0
 10
8.81213
 20
90.2678
 11
8.64735
 21
90.1131
  0
LINE
  8
0
 10
8.64735
 20
90.1131
 11
8.46448
 21
89.9802
  0
LINE
  8
0
 10
8.46448
 20
89.9802
 11
8.26639
 21
89.8713
  0
LINE
  8
0
 10
8.26639
 20
89.8713
 11
8.05623
 21
89.7881
  0
LINE
  8
0
 10
8.05623
 20
89.7881
 11
7.83728
 21
89.7319
  0
LINE
  8
0
 10
7.83728
 20
89.7319
 11
7.61302
 21
89.7036
  0
LINE
  8
0
 10
7.61302
 20
89.7036
 11
7.38696
 21
89.7036
  0
ENDSEC
  0
SECTION
  2
OBJECTS
  0
DICTIONARY
  0
ENDSEC
  0
EOF
