<?xml version="1.0" standalone="no"?>
<!DOCTYPE svg PUBLIC "-//W3C//DTD SVG 1.1//EN" "http://www.w3.org/Graphics/SVG/1.1/DTD/svg11.dtd">
<svg width="16mm" height="369mm" viewBox="-8 -657 16 369" xmlns="http://www.w3.org/2000/svg" version="1.1">
<title>OpenSCAD Model</title>
<path d="
M 3.4369,-477.089 L 4.04507,-477.245 L 4.62889,-477.476 L 5.17912,-477.778 L 5.68712,-478.147 L 6.14484,-478.577
 L 6.54507,-479.061 L 6.88153,-479.591 L 7.14888,-480.159 L 7.34291,-480.757 L 7.46057,-481.373 L 7.5,-482
 L 7.5,-652 L 7.46057,-652.627 L 7.34291,-653.243 L 7.14888,-653.841 L 6.88153,-654.409 L 6.54507,-654.939
 L 6.14484,-655.423 L 5.68712,-655.853 L 5.17912,-656.222 L 4.62889,-656.524 L 4.04507,-656.755 L 3.4369,-656.911
 L 2.81395,-656.99 L -2.81395,-656.99 L -3.4369,-656.911 L -4.04507,-656.755 L -4.62889,-656.524 L -5.17912,-656.222
 L -5.68712,-655.853 L -6.14484,-655.423 L -6.54507,-654.939 L -6.88153,-654.409 L -7.14888,-653.841 L -7.34291,-653.243
 L -7.46057,-652.627 L -7.5,-652 L -7.5,-482 L -7.46057,-481.373 L -7.34291,-480.757 L -7.14888,-480.159
 L -6.88153,-479.591 L -6.54507,-479.061 L -6.14484,-478.577 L -5.68712,-478.147 L -5.17912,-477.778 L -4.62889,-477.476
 L -4.04507,-477.245 L -3.4369,-477.089 L -2.81395,-477.01 L 2.81395,-477.01 z
M -2.19545,-479.393 L -2.5833,-479.442 L -2.96194,-479.539 L -3.32541,-479.683 L -3.66798,-479.872 L -3.98424,-480.101
 L -4.26921,-480.369 L -4.5184,-480.67 L -4.72786,-481 L -4.89432,-481.354 L -5.01512,-481.726 L -5.08836,-482.11
 L -5.11292,-482.5 L -5.11292,-651.5 L -5.08836,-651.89 L -5.01512,-652.274 L -4.89432,-652.646 L -4.72786,-653
 L -4.5184,-653.33 L -4.26921,-653.631 L -3.98424,-653.899 L -3.66798,-654.128 L -3.32541,-654.317 L -2.96194,-654.461
 L -2.5833,-654.558 L -2.19545,-654.607 L 2.19545,-654.607 L 2.5833,-654.558 L 2.96194,-654.461 L 3.32541,-654.317
 L 3.66798,-654.128 L 3.98424,-653.899 L 4.26921,-653.631 L 4.5184,-653.33 L 4.72786,-653 L 4.89432,-652.646
 L 5.01512,-652.274 L 5.08836,-651.89 L 5.11292,-651.5 L 5.11292,-482.5 L 5.08836,-482.11 L 5.01512,-481.726
 L 4.89432,-481.354 L 4.72786,-481 L 4.5184,-480.67 L 4.26921,-480.369 L 3.98424,-480.101 L 3.66798,-479.872
 L 3.32541,-479.683 L 2.96194,-479.539 L 2.5833,-479.442 L 2.19545,-479.393 z
M 3.4369,-288.089 L 4.04507,-288.245 L 4.62889,-288.476 L 5.17912,-288.778 L 5.68712,-289.147 L 6.14484,-289.577
 L 6.54507,-290.061 L 6.88153,-290.591 L 7.14888,-291.159 L 7.34291,-291.757 L 7.46057,-292.373 L 7.5,-293
 L 7.5,-463 L 7.46057,-463.627 L 7.34291,-464.243 L 7.14888,-464.841 L 6.88153,-465.409 L 6.54507,-465.939
 L 6.14484,-466.423 L 5.68712,-466.853 L 5.17912,-467.222 L 4.62889,-467.524 L 4.04507,-467.755 L 3.4369,-467.911
 L 2.81395,-467.99 L -2.81395,-467.99 L -3.4369,-467.911 L -4.04507,-467.755 L -4.62889,-467.524 L -5.17912,-467.222
 L -5.68712,-466.853 L -6.14484,-466.423 L -6.54507,-465.939 L -6.88153,-465.409 L -7.14888,-464.841 L -7.34291,-464.243
 L -7.46057,-463.627 L -7.5,-463 L -7.5,-293 L -7.46057,-292.373 L -7.34291,-291.757 L -7.14888,-291.159
 L -6.88153,-290.591 L -6.54507,-290.061 L -6.14484,-289.577 L -5.68712,-289.147 L -5.17912,-288.778 L -4.62889,-288.476
 L -4.04507,-288.245 L -3.4369,-288.089 L -2.81395,-288.01 L 2.81395,-288.01 z
M -0.134064,-458.369 L -0.400101,-458.403 L -0.659836,-458.469 L -0.909149,-458.568 L -1.14413,-458.697 L -1.36108,-458.855
 L -1.55655,-459.038 L -1.72748,-459.245 L -1.87117,-459.471 L -1.98534,-459.714 L -2.06821,-459.969 L -2.11845,-460.232
 L -2.13528,-460.5 L -2.11845,-460.768 L -2.06821,-461.031 L -1.98534,-461.286 L -1.87117,-461.529 L -1.72748,-461.755
 L -1.55655,-461.962 L -1.36108,-462.145 L -1.14413,-462.303 L -0.909149,-462.432 L -0.659836,-462.531 L -0.400101,-462.597
 L -0.134064,-462.631 L 0.134064,-462.631 L 0.400101,-462.597 L 0.659836,-462.531 L 0.909149,-462.432 L 1.14413,-462.303
 L 1.36108,-462.145 L 1.55655,-461.962 L 1.72748,-461.755 L 1.87117,-461.529 L 1.98534,-461.286 L 2.06821,-461.031
 L 2.11845,-460.768 L 2.13528,-460.5 L 2.11845,-460.232 L 2.06821,-459.969 L 1.98534,-459.714 L 1.87117,-459.471
 L 1.72748,-459.245 L 1.55655,-459.038 L 1.36108,-458.855 L 1.14413,-458.697 L 0.909149,-458.568 L 0.659836,-458.469
 L 0.400101,-458.403 L 0.134064,-458.369 z
M -0.134064,-293.369 L -0.400101,-293.403 L -0.659836,-293.469 L -0.909149,-293.568 L -1.14413,-293.697 L -1.36108,-293.855
 L -1.55655,-294.038 L -1.72748,-294.245 L -1.87117,-294.471 L -1.98534,-294.714 L -2.06821,-294.969 L -2.11845,-295.232
 L -2.13528,-295.5 L -2.11845,-295.768 L -2.06821,-296.031 L -1.98534,-296.286 L -1.87117,-296.529 L -1.72748,-296.755
 L -1.55655,-296.962 L -1.36108,-297.145 L -1.14413,-297.303 L -0.909149,-297.432 L -0.659836,-297.531 L -0.400101,-297.597
 L -0.134064,-297.631 L 0.134064,-297.631 L 0.400101,-297.597 L 0.659836,-297.531 L 0.909149,-297.432 L 1.14413,-297.303
 L 1.36108,-297.145 L 1.55655,-296.962 L 1.72748,-296.755 L 1.87117,-296.529 L 1.98534,-296.286 L 2.06821,-296.031
 L 2.11845,-295.768 L 2.13528,-295.5 L 2.11845,-295.232 L 2.06821,-294.969 L 1.98534,-294.714 L 1.87117,-294.471
 L 1.72748,-294.245 L 1.55655,-294.038 L 1.36108,-293.855 L 1.14413,-293.697 L 0.909149,-293.568 L 0.659836,-293.469
 L 0.400101,-293.403 L 0.134064,-293.369 z
" stroke="black" fill="lightgray" stroke-width="0.5"/>
</svg>
