<?xml version="1.0" standalone="no"?>
<!DOCTYPE svg PUBLIC "-//W3C//DTD SVG 1.1//EN" "http://www.w3.org/Graphics/SVG/1.1/DTD/svg11.dtd">
<svg width="92mm" height="64mm" viewBox="-47 -128 92 64" xmlns="http://www.w3.org/2000/svg" version="1.1">
<title>OpenSCAD Model</title>
<path d="
M -43.5,-113.941 L -43.1871,-113.647 L -42.6791,-113.278 L -42.1289,-112.976 L -41.5451,-112.745 L -40.9369,-112.589
 L -40.3139,-112.51 L 40.3139,-112.51 L 40.9369,-112.589 L 41.5451,-112.745 L 42.1289,-112.976 L 42.6791,-113.278
 L 43.1871,-113.647 L 43.6448,-114.077 L 44.0451,-114.561 L 44.3815,-115.091 L 44.6489,-115.659 L 44.8429,-116.257
 L 44.9606,-116.873 L 45,-117.5 L 45,-122.5 L 44.9606,-123.127 L 44.8429,-123.743 L 44.6489,-124.341
 L 44.3815,-124.909 L 44.0451,-125.439 L 43.6448,-125.923 L 43.1871,-126.353 L 42.6791,-126.722 L 42.1289,-127.024
 L 41.5451,-127.255 L 40.9369,-127.411 L 40.3139,-127.49 L -40.3139,-127.49 L -40.9369,-127.411 L -41.5451,-127.255
 L -42.1289,-127.024 L -42.6791,-126.722 L -43.1871,-126.353 L -43.5,-126.059 L -43.5,-127.49 L -46.5,-127.49
 L -46.5,-112.51 L -43.5,-112.51 z
M -39.7512,-114.008 L -40.2495,-114.071 L -40.7361,-114.196 L -41.2031,-114.381 L -41.6433,-114.623 L -42.0497,-114.918
 L -42.4159,-115.262 L -42.7361,-115.649 L -43.0052,-116.073 L -43.2191,-116.528 L -43.3743,-117.005 L -43.4685,-117.499
 L -43.5,-118 L -43.5,-122 L -43.4685,-122.501 L -43.3743,-122.995 L -43.2191,-123.472 L -43.0052,-123.927
 L -42.7361,-124.351 L -42.4159,-124.738 L -42.0497,-125.082 L -41.6433,-125.377 L -41.2031,-125.619 L -40.7361,-125.804
 L -40.2495,-125.929 L -39.7512,-125.992 L 39.7512,-125.992 L 40.2495,-125.929 L 40.7361,-125.804 L 41.2031,-125.619
 L 41.6433,-125.377 L 42.0497,-125.082 L 42.4159,-124.738 L 42.7361,-124.351 L 43.0052,-123.927 L 43.2191,-123.472
 L 43.3743,-122.995 L 43.4685,-122.501 L 43.5,-122 L 43.5,-118 L 43.4685,-117.499 L 43.3743,-117.005
 L 43.2191,-116.528 L 43.0052,-116.073 L 42.7361,-115.649 L 42.4159,-115.262 L 42.0497,-114.918 L 41.6433,-114.623
 L 41.2031,-114.381 L 40.7361,-114.196 L 40.2495,-114.071 L 39.7512,-114.008 z
M 40.9369,-88.5886 L 41.5451,-88.7447 L 42.1289,-88.9759 L 42.6791,-89.2784 L 43.1871,-89.6474 L 43.6448,-90.0773
 L 44.0451,-90.5611 L 44.3815,-91.0912 L 44.6489,-91.6594 L 44.8429,-92.2566 L 44.9606,-92.8733 L 45,-93.5
 L 45,-98.5 L 44.9606,-99.1267 L 44.8429,-99.7434 L 44.6489,-100.341 L 44.3815,-100.909 L 44.0451,-101.439
 L 43.6448,-101.923 L 43.1871,-102.353 L 42.6791,-102.722 L 42.1289,-103.024 L 41.5451,-103.255 L 40.9369,-103.411
 L 40.3139,-103.49 L -40.3139,-103.49 L -40.9369,-103.411 L -41.5451,-103.255 L -42.1289,-103.024 L -42.6791,-102.722
 L -43.1871,-102.353 L -43.5,-102.059 L -43.5,-103.479 L -46.5,-103.479 L -46.5,-88.5208 L -43.5,-88.5208
 L -43.5,-89.9413 L -43.1871,-89.6474 L -42.6791,-89.2784 L -42.1289,-88.9759 L -41.5451,-88.7447 L -40.9369,-88.5886
 L -40.3139,-88.5099 L 40.3139,-88.5099 z
M -39.6954,-90.8932 L -40.0833,-90.9422 L -40.4619,-91.0394 L -40.8254,-91.1833 L -41.168,-91.3717 L -41.4842,-91.6015
 L -41.7692,-91.8691 L -42.0184,-92.1703 L -42.2279,-92.5004 L -42.3943,-92.8541 L -42.5151,-93.2259 L -42.5884,-93.6098
 L -42.6129,-94 L -42.6129,-98 L -42.5884,-98.3902 L -42.5151,-98.7741 L -42.3943,-99.1459 L -42.2279,-99.4996
 L -42.0184,-99.8297 L -41.7692,-100.131 L -41.4842,-100.399 L -41.168,-100.628 L -40.8254,-100.817 L -40.4619,-100.961
 L -40.0833,-101.058 L -39.6954,-101.107 L 39.6954,-101.107 L 40.0833,-101.058 L 40.4619,-100.961 L 40.8254,-100.817
 L 41.168,-100.628 L 41.4842,-100.399 L 41.7692,-100.131 L 42.0184,-99.8297 L 42.2279,-99.4996 L 42.3943,-99.1459
 L 42.5151,-98.7741 L 42.5884,-98.3902 L 42.6129,-98 L 42.6129,-94 L 42.5884,-93.6098 L 42.5151,-93.2259
 L 42.3943,-92.8541 L 42.2279,-92.5004 L 42.0184,-92.1703 L 41.7692,-91.8691 L 41.4842,-91.6015 L 41.168,-91.3717
 L 40.8254,-91.1833 L 40.4619,-91.0394 L 40.0833,-90.9422 L 39.6954,-90.8932 z
M 40.9369,-64.5886 L 41.5451,-64.7447 L 42.1289,-64.9759 L 42.6791,-65.2784 L 43.1871,-65.6474 L 43.6448,-66.0773
 L 44.0451,-66.5611 L 44.3815,-67.0912 L 44.6489,-67.6594 L 44.8429,-68.2566 L 44.9606,-68.8733 L 45,-69.5
 L 45,-74.5 L 44.9606,-75.1267 L 44.8429,-75.7434 L 44.6489,-76.3406 L 44.3815,-76.9088 L 44.0451,-77.4389
 L 43.6448,-77.9227 L 43.1871,-78.3526 L 42.6791,-78.7216 L 42.1289,-79.0241 L 41.5451,-79.2553 L 40.9369,-79.4114
 L 40.3139,-79.4901 L -40.3139,-79.4901 L -40.9369,-79.4114 L -41.5451,-79.2553 L -42.1289,-79.0241 L -42.6791,-78.7216
 L -43.1871,-78.3526 L -43.5,-78.0587 L -43.5,-78.1526 L -46.5,-78.1526 L -46.5,-65.8474 L -43.5,-65.8474
 L -43.5,-65.9413 L -43.1871,-65.6474 L -42.6791,-65.2784 L -42.1289,-64.9759 L -41.5451,-64.7447 L -40.9369,-64.5886
 L -40.3139,-64.5099 L 40.3139,-64.5099 z
M 37.3659,-69.8689 L 37.0999,-69.9025 L 36.8401,-69.9692 L 36.5908,-70.0679 L 36.3559,-70.1971 L 36.1389,-70.3547
 L 35.9434,-70.5383 L 35.7725,-70.7449 L 35.6288,-70.9713 L 35.5146,-71.214 L 35.4318,-71.469 L 35.3815,-71.7324
 L 35.3647,-72 L 35.3815,-72.2676 L 35.4318,-72.531 L 35.5146,-72.786 L 35.6288,-73.0287 L 35.7725,-73.2551
 L 35.9434,-73.4617 L 36.1389,-73.6453 L 36.3559,-73.8029 L 36.5908,-73.9321 L 36.8401,-74.0308 L 37.0999,-74.0975
 L 37.3659,-74.1311 L 37.6341,-74.1311 L 37.9001,-74.0975 L 38.1598,-74.0308 L 38.4092,-73.9321 L 38.6441,-73.8029
 L 38.8611,-73.6453 L 39.0565,-73.4617 L 39.2275,-73.2551 L 39.3712,-73.0287 L 39.4853,-72.786 L 39.5682,-72.531
 L 39.6185,-72.2676 L 39.6353,-72 L 39.6185,-71.7324 L 39.5682,-71.469 L 39.4853,-71.214 L 39.3712,-70.9713
 L 39.2275,-70.7449 L 39.0565,-70.5383 L 38.8611,-70.3547 L 38.6441,-70.1971 L 38.4092,-70.0679 L 38.1598,-69.9692
 L 37.9001,-69.9025 L 37.6341,-69.8689 z
M -37.6341,-69.8689 L -37.9001,-69.9025 L -38.1598,-69.9692 L -38.4092,-70.0679 L -38.6441,-70.1971 L -38.8611,-70.3547
 L -39.0565,-70.5383 L -39.2275,-70.7449 L -39.3712,-70.9713 L -39.4853,-71.214 L -39.5682,-71.469 L -39.6185,-71.7324
 L -39.6353,-72 L -39.6185,-72.2676 L -39.5682,-72.531 L -39.4853,-72.786 L -39.3712,-73.0287 L -39.2275,-73.2551
 L -39.0565,-73.4617 L -38.8611,-73.6453 L -38.6441,-73.8029 L -38.4092,-73.9321 L -38.1598,-74.0308 L -37.9001,-74.0975
 L -37.6341,-74.1311 L -37.3659,-74.1311 L -37.0999,-74.0975 L -36.8401,-74.0308 L -36.5908,-73.9321 L -36.3559,-73.8029
 L -36.1389,-73.6453 L -35.9434,-73.4617 L -35.7725,-73.2551 L -35.6288,-73.0287 L -35.5146,-72.786 L -35.4318,-72.531
 L -35.3815,-72.2676 L -35.3647,-72 L -35.3815,-71.7324 L -35.4318,-71.469 L -35.5146,-71.214 L -35.6288,-70.9713
 L -35.7725,-70.7449 L -35.9434,-70.5383 L -36.1389,-70.3547 L -36.3559,-70.1971 L -36.5908,-70.0679 L -36.8401,-69.9692
 L -37.0999,-69.9025 L -37.3659,-69.8689 z
" stroke="black" fill="lightgray" stroke-width="0.5"/>
</svg>
