<?xml version="1.0" standalone="no"?>
<!DOCTYPE svg PUBLIC "-//W3C//DTD SVG 1.1//EN" "http://www.w3.org/Graphics/SVG/1.1/DTD/svg11.dtd">
<svg width="16mm" height="40mm" viewBox="-8 -80 16 40" xmlns="http://www.w3.org/2000/svg" version="1.1">
<title>OpenSCAD Model</title>
<path d="
M 1.40535,-64.6329 L 2.31763,-64.8671 L 3.19334,-65.2138 L 4.01869,-65.6675 L 4.78067,-66.2212 L 5.46725,-66.8659
 L 6.06763,-67.5916 L 6.5723,-68.3869 L 6.97331,-69.2391 L 7.26436,-70.1348 L 7.44086,-71.06 L 7.5,-72
 L 7.44086,-72.94 L 7.26436,-73.8652 L 6.97331,-74.7609 L 6.5723,-75.6131 L 6.06763,-76.4084 L 5.46725,-77.1341
 L 4.78067,-77.7788 L 4.01869,-78.3325 L 3.19334,-78.7862 L 2.31763,-79.1329 L 1.40535,-79.3671 L 0.470917,-79.4852
 L -0.470917,-79.4852 L -1.40535,-79.3671 L -2.31763,-79.1329 L -3.19334,-78.7862 L -4.01869,-78.3325 L -4.78067,-77.7788
 L -5.46725,-77.1341 L -6.06763,-76.4084 L -6.5723,-75.6131 L -6.97331,-74.7609 L -7.26436,-73.8652 L -7.44086,-72.94
 L -7.5,-72 L -7.44086,-71.06 L -7.26436,-70.1348 L -6.97331,-69.2391 L -6.5723,-68.3869 L -6.06763,-67.5916
 L -5.46725,-66.8659 L -4.78067,-66.2212 L -4.01869,-65.6675 L -3.19334,-65.2138 L -2.31763,-64.8671 L -1.40535,-64.6329
 L -0.470917,-64.5148 L 0.470917,-64.5148 z
M -2.19545,-66.8932 L -2.5833,-66.9422 L -2.96194,-67.0394 L -3.32541,-67.1833 L -3.66798,-67.3717 L -3.98424,-67.6015
 L -4.26921,-67.8691 L -4.5184,-68.1703 L -4.72786,-68.5004 L -4.89432,-68.8541 L -5.01512,-69.2259 L -5.08836,-69.6098
 L -5.11292,-70 L -5.11292,-74 L -5.08836,-74.3902 L -5.01512,-74.7741 L -4.89432,-75.1459 L -4.72786,-75.4996
 L -4.5184,-75.8297 L -4.26921,-76.1309 L -3.98424,-76.3985 L -3.66798,-76.6283 L -3.32541,-76.8167 L -2.96194,-76.9606
 L -2.5833,-77.0578 L -2.19545,-77.1068 L 2.19545,-77.1068 L 2.5833,-77.0578 L 2.96194,-76.9606 L 3.32541,-76.8167
 L 3.66798,-76.6283 L 3.98424,-76.3985 L 4.26921,-76.1309 L 4.5184,-75.8297 L 4.72786,-75.4996 L 4.89432,-75.1459
 L 5.01512,-74.7741 L 5.08836,-74.3902 L 5.11292,-74 L 5.11292,-70 L 5.08836,-69.6098 L 5.01512,-69.2259
 L 4.89432,-68.8541 L 4.72786,-68.5004 L 4.5184,-68.1703 L 4.26921,-67.8691 L 3.98424,-67.6015 L 3.66798,-67.3717
 L 3.32541,-67.1833 L 2.96194,-67.0394 L 2.5833,-66.9422 L 2.19545,-66.8932 z
M 1.40535,-40.6329 L 2.31763,-40.8671 L 3.19334,-41.2138 L 4.01869,-41.6675 L 4.78067,-42.2212 L 5.46725,-42.8659
 L 6.06763,-43.5916 L 6.5723,-44.3869 L 6.97331,-45.2391 L 7.26436,-46.1348 L 7.44086,-47.06 L 7.5,-48
 L 7.44086,-48.94 L 7.26436,-49.8652 L 6.97331,-50.7609 L 6.5723,-51.6131 L 6.06763,-52.4084 L 5.46725,-53.1341
 L 4.78067,-53.7788 L 4.01869,-54.3325 L 3.19334,-54.7862 L 2.31763,-55.1329 L 1.40535,-55.3671 L 0.470917,-55.4852
 L -0.470917,-55.4852 L -1.40535,-55.3671 L -2.31763,-55.1329 L -3.19334,-54.7862 L -4.01869,-54.3325 L -4.78067,-53.7788
 L -5.46725,-53.1341 L -6.06763,-52.4084 L -6.5723,-51.6131 L -6.97331,-50.7609 L -7.26436,-49.8652 L -7.44086,-48.94
 L -7.5,-48 L -7.44086,-47.06 L -7.26436,-46.1348 L -6.97331,-45.2391 L -6.5723,-44.3869 L -6.06763,-43.5916
 L -5.46725,-42.8659 L -4.78067,-42.2212 L -4.01869,-41.6675 L -3.19334,-41.2138 L -2.31763,-40.8671 L -1.40535,-40.6329
 L -0.470917,-40.5148 L 0.470917,-40.5148 z
M -0.134064,-45.8689 L -0.400101,-45.9025 L -0.659836,-45.9692 L -0.909149,-46.0679 L -1.14413,-46.1971 L -1.36108,-46.3547
 L -1.55655,-46.5383 L -1.72748,-46.7449 L -1.87117,-46.9713 L -1.98534,-47.214 L -2.06821,-47.469 L -2.11845,-47.7324
 L -2.13528,-48 L -2.11845,-48.2676 L -2.06821,-48.531 L -1.98534,-48.786 L -1.87117,-49.0287 L -1.72748,-49.2551
 L -1.55655,-49.4617 L -1.36108,-49.6453 L -1.14413,-49.8029 L -0.909149,-49.9321 L -0.659836,-50.0308 L -0.400101,-50.0975
 L -0.134064,-50.1311 L 0.134064,-50.1311 L 0.400101,-50.0975 L 0.659836,-50.0308 L 0.909149,-49.9321 L 1.14413,-49.8029
 L 1.36108,-49.6453 L 1.55655,-49.4617 L 1.72748,-49.2551 L 1.87117,-49.0287 L 1.98534,-48.786 L 2.06821,-48.531
 L 2.11845,-48.2676 L 2.13528,-48 L 2.11845,-47.7324 L 2.06821,-47.469 L 1.98534,-47.214 L 1.87117,-46.9713
 L 1.72748,-46.7449 L 1.55655,-46.5383 L 1.36108,-46.3547 L 1.14413,-46.1971 L 0.909149,-46.0679 L 0.659836,-45.9692
 L 0.400101,-45.9025 L 0.134064,-45.8689 z
" stroke="black" fill="lightgray" stroke-width="0.5"/>
</svg>
