  0
SECTION
  2
BLOCKS
  0
ENDSEC
  0
SECTION
  2
ENTITIES
  0
LINE
  8
0
 10
10.9369
 20
402.089
 11
11.5451
 21
402.245
  0
LINE
  8
0
 10
11.5451
 20
402.245
 11
12.1289
 21
402.476
  0
LINE
  8
0
 10
12.1289
 20
402.476
 11
12.6791
 21
402.778
  0
LINE
  8
0
 10
12.6791
 20
402.778
 11
13.1871
 21
403.147
  0
LINE
  8
0
 10
13.1871
 20
403.147
 11
13.6448
 21
403.577
  0
LINE
  8
0
 10
13.6448
 20
403.577
 11
14.0451
 21
404.061
  0
LINE
  8
0
 10
14.0451
 20
404.061
 11
14.3815
 21
404.591
  0
LINE
  8
0
 10
14.3815
 20
404.591
 11
14.6489
 21
405.159
  0
LINE
  8
0
 10
14.6489
 20
405.159
 11
14.8429
 21
405.757
  0
LINE
  8
0
 10
14.8429
 20
405.757
 11
14.9606
 21
406.373
  0
LINE
  8
0
 10
14.9606
 20
406.373
 11
15
 21
407
  0
LINE
  8
0
 10
15
 20
407
 11
15
 21
547
  0
LINE
  8
0
 10
15
 20
547
 11
14.9606
 21
547.627
  0
LINE
  8
0
 10
14.9606
 20
547.627
 11
14.8429
 21
548.243
  0
LINE
  8
0
 10
14.8429
 20
548.243
 11
14.6489
 21
548.841
  0
LINE
  8
0
 10
14.6489
 20
548.841
 11
14.3815
 21
549.409
  0
LINE
  8
0
 10
14.3815
 20
549.409
 11
14.0451
 21
549.939
  0
LINE
  8
0
 10
14.0451
 20
549.939
 11
13.6448
 21
550.423
  0
LINE
  8
0
 10
13.6448
 20
550.423
 11
13.1871
 21
550.853
  0
LINE
  8
0
 10
13.1871
 20
550.853
 11
12.6791
 21
551.222
  0
LINE
  8
0
 10
12.6791
 20
551.222
 11
12.1289
 21
551.524
  0
LINE
  8
0
 10
12.1289
 20
551.524
 11
11.5451
 21
551.755
  0
LINE
  8
0
 10
11.5451
 20
551.755
 11
10.9369
 21
551.911
  0
LINE
  8
0
 10
10.9369
 20
551.911
 11
10.3139
 21
551.99
  0
LINE
  8
0
 10
10.3139
 20
551.99
 11
-10.3139
 21
551.99
  0
LINE
  8
0
 10
-10.3139
 20
551.99
 11
-10.9369
 21
551.911
  0
LINE
  8
0
 10
-10.9369
 20
551.911
 11
-11.5451
 21
551.755
  0
LINE
  8
0
 10
-11.5451
 20
551.755
 11
-12.1289
 21
551.524
  0
LINE
  8
0
 10
-12.1289
 20
551.524
 11
-12.6791
 21
551.222
  0
LINE
  8
0
 10
-12.6791
 20
551.222
 11
-13.1871
 21
550.853
  0
LINE
  8
0
 10
-13.1871
 20
550.853
 11
-13.6448
 21
550.423
  0
LINE
  8
0
 10
-13.6448
 20
550.423
 11
-14.0451
 21
549.939
  0
LINE
  8
0
 10
-14.0451
 20
549.939
 11
-14.3815
 21
549.409
  0
LINE
  8
0
 10
-14.3815
 20
549.409
 11
-14.6489
 21
548.841
  0
LINE
  8
0
 10
-14.6489
 20
548.841
 11
-14.8429
 21
548.243
  0
LINE
  8
0
 10
-14.8429
 20
548.243
 11
-14.9606
 21
547.627
  0
LINE
  8
0
 10
-14.9606
 20
547.627
 11
-15
 21
547
  0
LINE
  8
0
 10
-15
 20
547
 11
-15
 21
407
  0
LINE
  8
0
 10
-15
 20
407
 11
-14.9606
 21
406.373
  0
LINE
  8
0
 10
-14.9606
 20
406.373
 11
-14.8429
 21
405.757
  0
LINE
  8
0
 10
-14.8429
 20
405.757
 11
-14.6489
 21
405.159
  0
LINE
  8
0
 10
-14.6489
 20
405.159
 11
-14.3815
 21
404.591
  0
LINE
  8
0
 10
-14.3815
 20
404.591
 11
-14.0451
 21
404.061
  0
LINE
  8
0
 10
-14.0451
 20
404.061
 11
-13.6448
 21
403.577
  0
LINE
  8
0
 10
-13.6448
 20
403.577
 11
-13.1871
 21
403.147
  0
LINE
  8
0
 10
-13.1871
 20
403.147
 11
-12.6791
 21
402.778
  0
LINE
  8
0
 10
-12.6791
 20
402.778
 11
-12.1289
 21
402.476
  0
LINE
  8
0
 10
-12.1289
 20
402.476
 11
-11.5451
 21
402.245
  0
LINE
  8
0
 10
-11.5451
 20
402.245
 11
-10.9369
 21
402.089
  0
LINE
  8
0
 10
-10.9369
 20
402.089
 11
-10.3139
 21
402.01
  0
LINE
  8
0
 10
-10.3139
 20
402.01
 11
10.3139
 21
402.01
  0
LINE
  8
0
 10
10.3139
 20
402.01
 11
10.9369
 21
402.089
  0
LINE
  8
0
 10
-9.69545
 20
404.393
 11
-10.0833
 21
404.442
  0
LINE
  8
0
 10
-10.0833
 20
404.442
 11
-10.4619
 21
404.539
  0
LINE
  8
0
 10
-10.4619
 20
404.539
 11
-10.8254
 21
404.683
  0
LINE
  8
0
 10
-10.8254
 20
404.683
 11
-11.168
 21
404.872
  0
LINE
  8
0
 10
-11.168
 20
404.872
 11
-11.4842
 21
405.101
  0
LINE
  8
0
 10
-11.4842
 20
405.101
 11
-11.7692
 21
405.369
  0
LINE
  8
0
 10
-11.7692
 20
405.369
 11
-12.0184
 21
405.67
  0
LINE
  8
0
 10
-12.0184
 20
405.67
 11
-12.2279
 21
406
  0
LINE
  8
0
 10
-12.2279
 20
406
 11
-12.3943
 21
406.354
  0
LINE
  8
0
 10
-12.3943
 20
406.354
 11
-12.5151
 21
406.726
  0
LINE
  8
0
 10
-12.5151
 20
406.726
 11
-12.5884
 21
407.11
  0
LINE
  8
0
 10
-12.5884
 20
407.11
 11
-12.6129
 21
407.5
  0
LINE
  8
0
 10
-12.6129
 20
407.5
 11
-12.6129
 21
546.5
  0
LINE
  8
0
 10
-12.6129
 20
546.5
 11
-12.5884
 21
546.89
  0
LINE
  8
0
 10
-12.5884
 20
546.89
 11
-12.5151
 21
547.274
  0
LINE
  8
0
 10
-12.5151
 20
547.274
 11
-12.3943
 21
547.646
  0
LINE
  8
0
 10
-12.3943
 20
547.646
 11
-12.2279
 21
548
  0
LINE
  8
0
 10
-12.2279
 20
548
 11
-12.0184
 21
548.33
  0
LINE
  8
0
 10
-12.0184
 20
548.33
 11
-11.7692
 21
548.631
  0
LINE
  8
0
 10
-11.7692
 20
548.631
 11
-11.4842
 21
548.899
  0
LINE
  8
0
 10
-11.4842
 20
548.899
 11
-11.168
 21
549.128
  0
LINE
  8
0
 10
-11.168
 20
549.128
 11
-10.8254
 21
549.317
  0
LINE
  8
0
 10
-10.8254
 20
549.317
 11
-10.4619
 21
549.461
  0
LINE
  8
0
 10
-10.4619
 20
549.461
 11
-10.0833
 21
549.558
  0
LINE
  8
0
 10
-10.0833
 20
549.558
 11
-9.69545
 21
549.607
  0
LINE
  8
0
 10
-9.69545
 20
549.607
 11
9.69545
 21
549.607
  0
LINE
  8
0
 10
9.69545
 20
549.607
 11
10.0833
 21
549.558
  0
LINE
  8
0
 10
10.0833
 20
549.558
 11
10.4619
 21
549.461
  0
LINE
  8
0
 10
10.4619
 20
549.461
 11
10.8254
 21
549.317
  0
LINE
  8
0
 10
10.8254
 20
549.317
 11
11.168
 21
549.128
  0
LINE
  8
0
 10
11.168
 20
549.128
 11
11.4842
 21
548.899
  0
LINE
  8
0
 10
11.4842
 20
548.899
 11
11.7692
 21
548.631
  0
LINE
  8
0
 10
11.7692
 20
548.631
 11
12.0184
 21
548.33
  0
LINE
  8
0
 10
12.0184
 20
548.33
 11
12.2279
 21
548
  0
LINE
  8
0
 10
12.2279
 20
548
 11
12.3943
 21
547.646
  0
LINE
  8
0
 10
12.3943
 20
547.646
 11
12.5151
 21
547.274
  0
LINE
  8
0
 10
12.5151
 20
547.274
 11
12.5884
 21
546.89
  0
LINE
  8
0
 10
12.5884
 20
546.89
 11
12.6129
 21
546.5
  0
LINE
  8
0
 10
12.6129
 20
546.5
 11
12.6129
 21
407.5
  0
LINE
  8
0
 10
12.6129
 20
407.5
 11
12.5884
 21
407.11
  0
LINE
  8
0
 10
12.5884
 20
407.11
 11
12.5151
 21
406.726
  0
LINE
  8
0
 10
12.5151
 20
406.726
 11
12.3943
 21
406.354
  0
LINE
  8
0
 10
12.3943
 20
406.354
 11
12.2279
 21
406
  0
LINE
  8
0
 10
12.2279
 20
406
 11
12.0184
 21
405.67
  0
LINE
  8
0
 10
12.0184
 20
405.67
 11
11.7692
 21
405.369
  0
LINE
  8
0
 10
11.7692
 20
405.369
 11
11.4842
 21
405.101
  0
LINE
  8
0
 10
11.4842
 20
405.101
 11
11.168
 21
404.872
  0
LINE
  8
0
 10
11.168
 20
404.872
 11
10.8254
 21
404.683
  0
LINE
  8
0
 10
10.8254
 20
404.683
 11
10.4619
 21
404.539
  0
LINE
  8
0
 10
10.4619
 20
404.539
 11
10.0833
 21
404.442
  0
LINE
  8
0
 10
10.0833
 20
404.442
 11
9.69545
 21
404.393
  0
LINE
  8
0
 10
9.69545
 20
404.393
 11
-9.69545
 21
404.393
  0
LINE
  8
0
 10
10.9369
 20
243.089
 11
11.5451
 21
243.245
  0
LINE
  8
0
 10
11.5451
 20
243.245
 11
12.1289
 21
243.476
  0
LINE
  8
0
 10
12.1289
 20
243.476
 11
12.6791
 21
243.778
  0
LINE
  8
0
 10
12.6791
 20
243.778
 11
13.1871
 21
244.147
  0
LINE
  8
0
 10
13.1871
 20
244.147
 11
13.6448
 21
244.577
  0
LINE
  8
0
 10
13.6448
 20
244.577
 11
14.0451
 21
245.061
  0
LINE
  8
0
 10
14.0451
 20
245.061
 11
14.3815
 21
245.591
  0
LINE
  8
0
 10
14.3815
 20
245.591
 11
14.6489
 21
246.159
  0
LINE
  8
0
 10
14.6489
 20
246.159
 11
14.8429
 21
246.757
  0
LINE
  8
0
 10
14.8429
 20
246.757
 11
14.9606
 21
247.373
  0
LINE
  8
0
 10
14.9606
 20
247.373
 11
15
 21
248
  0
LINE
  8
0
 10
15
 20
248
 11
15
 21
388
  0
LINE
  8
0
 10
15
 20
388
 11
14.9606
 21
388.627
  0
LINE
  8
0
 10
14.9606
 20
388.627
 11
14.8429
 21
389.243
  0
LINE
  8
0
 10
14.8429
 20
389.243
 11
14.6489
 21
389.841
  0
LINE
  8
0
 10
14.6489
 20
389.841
 11
14.3815
 21
390.409
  0
LINE
  8
0
 10
14.3815
 20
390.409
 11
14.0451
 21
390.939
  0
LINE
  8
0
 10
14.0451
 20
390.939
 11
13.6448
 21
391.423
  0
LINE
  8
0
 10
13.6448
 20
391.423
 11
13.1871
 21
391.853
  0
LINE
  8
0
 10
13.1871
 20
391.853
 11
12.6791
 21
392.222
  0
LINE
  8
0
 10
12.6791
 20
392.222
 11
12.1289
 21
392.524
  0
LINE
  8
0
 10
12.1289
 20
392.524
 11
11.5451
 21
392.755
  0
LINE
  8
0
 10
11.5451
 20
392.755
 11
10.9369
 21
392.911
  0
LINE
  8
0
 10
10.9369
 20
392.911
 11
10.3139
 21
392.99
  0
LINE
  8
0
 10
10.3139
 20
392.99
 11
-10.3139
 21
392.99
  0
LINE
  8
0
 10
-10.3139
 20
392.99
 11
-10.9369
 21
392.911
  0
LINE
  8
0
 10
-10.9369
 20
392.911
 11
-11.5451
 21
392.755
  0
LINE
  8
0
 10
-11.5451
 20
392.755
 11
-12.1289
 21
392.524
  0
LINE
  8
0
 10
-12.1289
 20
392.524
 11
-12.6791
 21
392.222
  0
LINE
  8
0
 10
-12.6791
 20
392.222
 11
-13.1871
 21
391.853
  0
LINE
  8
0
 10
-13.1871
 20
391.853
 11
-13.6448
 21
391.423
  0
LINE
  8
0
 10
-13.6448
 20
391.423
 11
-14.0451
 21
390.939
  0
LINE
  8
0
 10
-14.0451
 20
390.939
 11
-14.3815
 21
390.409
  0
LINE
  8
0
 10
-14.3815
 20
390.409
 11
-14.6489
 21
389.841
  0
LINE
  8
0
 10
-14.6489
 20
389.841
 11
-14.8429
 21
389.243
  0
LINE
  8
0
 10
-14.8429
 20
389.243
 11
-14.9606
 21
388.627
  0
LINE
  8
0
 10
-14.9606
 20
388.627
 11
-15
 21
388
  0
LINE
  8
0
 10
-15
 20
388
 11
-15
 21
248
  0
LINE
  8
0
 10
-15
 20
248
 11
-14.9606
 21
247.373
  0
LINE
  8
0
 10
-14.9606
 20
247.373
 11
-14.8429
 21
246.757
  0
LINE
  8
0
 10
-14.8429
 20
246.757
 11
-14.6489
 21
246.159
  0
LINE
  8
0
 10
-14.6489
 20
246.159
 11
-14.3815
 21
245.591
  0
LINE
  8
0
 10
-14.3815
 20
245.591
 11
-14.0451
 21
245.061
  0
LINE
  8
0
 10
-14.0451
 20
245.061
 11
-13.6448
 21
244.577
  0
LINE
  8
0
 10
-13.6448
 20
244.577
 11
-13.1871
 21
244.147
  0
LINE
  8
0
 10
-13.1871
 20
244.147
 11
-12.6791
 21
243.778
  0
LINE
  8
0
 10
-12.6791
 20
243.778
 11
-12.1289
 21
243.476
  0
LINE
  8
0
 10
-12.1289
 20
243.476
 11
-11.5451
 21
243.245
  0
LINE
  8
0
 10
-11.5451
 20
243.245
 11
-10.9369
 21
243.089
  0
LINE
  8
0
 10
-10.9369
 20
243.089
 11
-10.3139
 21
243.01
  0
LINE
  8
0
 10
-10.3139
 20
243.01
 11
10.3139
 21
243.01
  0
LINE
  8
0
 10
10.3139
 20
243.01
 11
10.9369
 21
243.089
  0
LINE
  8
0
 10
7.36592
 20
383.369
 11
7.09988
 21
383.403
  0
LINE
  8
0
 10
7.09988
 20
383.403
 11
6.84015
 21
383.469
  0
LINE
  8
0
 10
6.84015
 20
383.469
 11
6.59084
 21
383.568
  0
LINE
  8
0
 10
6.59084
 20
383.568
 11
6.35585
 21
383.697
  0
LINE
  8
0
 10
6.35585
 20
383.697
 11
6.1389
 21
383.855
  0
LINE
  8
0
 10
6.1389
 20
383.855
 11
5.94344
 21
384.038
  0
LINE
  8
0
 10
5.94344
 20
384.038
 11
5.77251
 21
384.245
  0
LINE
  8
0
 10
5.77251
 20
384.245
 11
5.62881
 21
384.471
  0
LINE
  8
0
 10
5.62881
 20
384.471
 11
5.51465
 21
384.714
  0
LINE
  8
0
 10
5.51465
 20
384.714
 11
5.43178
 21
384.969
  0
LINE
  8
0
 10
5.43178
 20
384.969
 11
5.38153
 21
385.232
  0
LINE
  8
0
 10
5.38153
 20
385.232
 11
5.3647
 21
385.5
  0
LINE
  8
0
 10
5.3647
 20
385.5
 11
5.38153
 21
385.768
  0
LINE
  8
0
 10
5.38153
 20
385.768
 11
5.43178
 21
386.031
  0
LINE
  8
0
 10
5.43178
 20
386.031
 11
5.51465
 21
386.286
  0
LINE
  8
0
 10
5.51465
 20
386.286
 11
5.62881
 21
386.529
  0
LINE
  8
0
 10
5.62881
 20
386.529
 11
5.77251
 21
386.755
  0
LINE
  8
0
 10
5.77251
 20
386.755
 11
5.94344
 21
386.962
  0
LINE
  8
0
 10
5.94344
 20
386.962
 11
6.1389
 21
387.145
  0
LINE
  8
0
 10
6.1389
 20
387.145
 11
6.35585
 21
387.303
  0
LINE
  8
0
 10
6.35585
 20
387.303
 11
6.59084
 21
387.432
  0
LINE
  8
0
 10
6.59084
 20
387.432
 11
6.84015
 21
387.531
  0
LINE
  8
0
 10
6.84015
 20
387.531
 11
7.09988
 21
387.597
  0
LINE
  8
0
 10
7.09988
 20
387.597
 11
7.36592
 21
387.631
  0
LINE
  8
0
 10
7.36592
 20
387.631
 11
7.63406
 21
387.631
  0
LINE
  8
0
 10
7.63406
 20
387.631
 11
7.9001
 21
387.597
  0
LINE
  8
0
 10
7.9001
 20
387.597
 11
8.15984
 21
387.531
  0
LINE
  8
0
 10
8.15984
 20
387.531
 11
8.40915
 21
387.432
  0
LINE
  8
0
 10
8.40915
 20
387.432
 11
8.64413
 21
387.303
  0
LINE
  8
0
 10
8.64413
 20
387.303
 11
8.86108
 21
387.145
  0
LINE
  8
0
 10
8.86108
 20
387.145
 11
9.05655
 21
386.962
  0
LINE
  8
0
 10
9.05655
 20
386.962
 11
9.22748
 21
386.755
  0
LINE
  8
0
 10
9.22748
 20
386.755
 11
9.37117
 21
386.529
  0
LINE
  8
0
 10
9.37117
 20
386.529
 11
9.48534
 21
386.286
  0
LINE
  8
0
 10
9.48534
 20
386.286
 11
9.56821
 21
386.031
  0
LINE
  8
0
 10
9.56821
 20
386.031
 11
9.61845
 21
385.768
  0
LINE
  8
0
 10
9.61845
 20
385.768
 11
9.63528
 21
385.5
  0
LINE
  8
0
 10
9.63528
 20
385.5
 11
9.61845
 21
385.232
  0
LINE
  8
0
 10
9.61845
 20
385.232
 11
9.56821
 21
384.969
  0
LINE
  8
0
 10
9.56821
 20
384.969
 11
9.48534
 21
384.714
  0
LINE
  8
0
 10
9.48534
 20
384.714
 11
9.37117
 21
384.471
  0
LINE
  8
0
 10
9.37117
 20
384.471
 11
9.22748
 21
384.245
  0
LINE
  8
0
 10
9.22748
 20
384.245
 11
9.05655
 21
384.038
  0
LINE
  8
0
 10
9.05655
 20
384.038
 11
8.86108
 21
383.855
  0
LINE
  8
0
 10
8.86108
 20
383.855
 11
8.64413
 21
383.697
  0
LINE
  8
0
 10
8.64413
 20
383.697
 11
8.40915
 21
383.568
  0
LINE
  8
0
 10
8.40915
 20
383.568
 11
8.15984
 21
383.469
  0
LINE
  8
0
 10
8.15984
 20
383.469
 11
7.9001
 21
383.403
  0
LINE
  8
0
 10
7.9001
 20
383.403
 11
7.63406
 21
383.369
  0
LINE
  8
0
 10
7.63406
 20
383.369
 11
7.36592
 21
383.369
  0
LINE
  8
0
 10
-7.63406
 20
383.369
 11
-7.9001
 21
383.403
  0
LINE
  8
0
 10
-7.9001
 20
383.403
 11
-8.15984
 21
383.469
  0
LINE
  8
0
 10
-8.15984
 20
383.469
 11
-8.40915
 21
383.568
  0
LINE
  8
0
 10
-8.40915
 20
383.568
 11
-8.64413
 21
383.697
  0
LINE
  8
0
 10
-8.64413
 20
383.697
 11
-8.86108
 21
383.855
  0
LINE
  8
0
 10
-8.86108
 20
383.855
 11
-9.05655
 21
384.038
  0
LINE
  8
0
 10
-9.05655
 20
384.038
 11
-9.22748
 21
384.245
  0
LINE
  8
0
 10
-9.22748
 20
384.245
 11
-9.37117
 21
384.471
  0
LINE
  8
0
 10
-9.37117
 20
384.471
 11
-9.48534
 21
384.714
  0
LINE
  8
0
 10
-9.48534
 20
384.714
 11
-9.56821
 21
384.969
  0
LINE
  8
0
 10
-9.56821
 20
384.969
 11
-9.61845
 21
385.232
  0
LINE
  8
0
 10
-9.61845
 20
385.232
 11
-9.63528
 21
385.5
  0
LINE
  8
0
 10
-9.63528
 20
385.5
 11
-9.61845
 21
385.768
  0
LINE
  8
0
 10
-9.61845
 20
385.768
 11
-9.56821
 21
386.031
  0
LINE
  8
0
 10
-9.56821
 20
386.031
 11
-9.48534
 21
386.286
  0
LINE
  8
0
 10
-9.48534
 20
386.286
 11
-9.37117
 21
386.529
  0
LINE
  8
0
 10
-9.37117
 20
386.529
 11
-9.22748
 21
386.755
  0
LINE
  8
0
 10
-9.22748
 20
386.755
 11
-9.05655
 21
386.962
  0
LINE
  8
0
 10
-9.05655
 20
386.962
 11
-8.86108
 21
387.145
  0
LINE
  8
0
 10
-8.86108
 20
387.145
 11
-8.64413
 21
387.303
  0
LINE
  8
0
 10
-8.64413
 20
387.303
 11
-8.40915
 21
387.432
  0
LINE
  8
0
 10
-8.40915
 20
387.432
 11
-8.15984
 21
387.531
  0
LINE
  8
0
 10
-8.15984
 20
387.531
 11
-7.9001
 21
387.597
  0
LINE
  8
0
 10
-7.9001
 20
387.597
 11
-7.63406
 21
387.631
  0
LINE
  8
0
 10
-7.63406
 20
387.631
 11
-7.36592
 21
387.631
  0
LINE
  8
0
 10
-7.36592
 20
387.631
 11
-7.09988
 21
387.597
  0
LINE
  8
0
 10
-7.09988
 20
387.597
 11
-6.84015
 21
387.531
  0
LINE
  8
0
 10
-6.84015
 20
387.531
 11
-6.59084
 21
387.432
  0
LINE
  8
0
 10
-6.59084
 20
387.432
 11
-6.35585
 21
387.303
  0
LINE
  8
0
 10
-6.35585
 20
387.303
 11
-6.1389
 21
387.145
  0
LINE
  8
0
 10
-6.1389
 20
387.145
 11
-5.94344
 21
386.962
  0
LINE
  8
0
 10
-5.94344
 20
386.962
 11
-5.77251
 21
386.755
  0
LINE
  8
0
 10
-5.77251
 20
386.755
 11
-5.62881
 21
386.529
  0
LINE
  8
0
 10
-5.62881
 20
386.529
 11
-5.51465
 21
386.286
  0
LINE
  8
0
 10
-5.51465
 20
386.286
 11
-5.43178
 21
386.031
  0
LINE
  8
0
 10
-5.43178
 20
386.031
 11
-5.38153
 21
385.768
  0
LINE
  8
0
 10
-5.38153
 20
385.768
 11
-5.3647
 21
385.5
  0
LINE
  8
0
 10
-5.3647
 20
385.5
 11
-5.38153
 21
385.232
  0
LINE
  8
0
 10
-5.38153
 20
385.232
 11
-5.43178
 21
384.969
  0
LINE
  8
0
 10
-5.43178
 20
384.969
 11
-5.51465
 21
384.714
  0
LINE
  8
0
 10
-5.51465
 20
384.714
 11
-5.62881
 21
384.471
  0
LINE
  8
0
 10
-5.62881
 20
384.471
 11
-5.77251
 21
384.245
  0
LINE
  8
0
 10
-5.77251
 20
384.245
 11
-5.94344
 21
384.038
  0
LINE
  8
0
 10
-5.94344
 20
384.038
 11
-6.1389
 21
383.855
  0
LINE
  8
0
 10
-6.1389
 20
383.855
 11
-6.35585
 21
383.697
  0
LINE
  8
0
 10
-6.35585
 20
383.697
 11
-6.59084
 21
383.568
  0
LINE
  8
0
 10
-6.59084
 20
383.568
 11
-6.84015
 21
383.469
  0
LINE
  8
0
 10
-6.84015
 20
383.469
 11
-7.09988
 21
383.403
  0
LINE
  8
0
 10
-7.09988
 20
383.403
 11
-7.36592
 21
383.369
  0
LINE
  8
0
 10
-7.36592
 20
383.369
 11
-7.63406
 21
383.369
  0
LINE
  8
0
 10
7.36592
 20
248.369
 11
7.09988
 21
248.403
  0
LINE
  8
0
 10
7.09988
 20
248.403
 11
6.84015
 21
248.469
  0
LINE
  8
0
 10
6.84015
 20
248.469
 11
6.59084
 21
248.568
  0
LINE
  8
0
 10
6.59084
 20
248.568
 11
6.35585
 21
248.697
  0
LINE
  8
0
 10
6.35585
 20
248.697
 11
6.1389
 21
248.855
  0
LINE
  8
0
 10
6.1389
 20
248.855
 11
5.94344
 21
249.038
  0
LINE
  8
0
 10
5.94344
 20
249.038
 11
5.77251
 21
249.245
  0
LINE
  8
0
 10
5.77251
 20
249.245
 11
5.62881
 21
249.471
  0
LINE
  8
0
 10
5.62881
 20
249.471
 11
5.51465
 21
249.714
  0
LINE
  8
0
 10
5.51465
 20
249.714
 11
5.43178
 21
249.969
  0
LINE
  8
0
 10
5.43178
 20
249.969
 11
5.38153
 21
250.232
  0
LINE
  8
0
 10
5.38153
 20
250.232
 11
5.3647
 21
250.5
  0
LINE
  8
0
 10
5.3647
 20
250.5
 11
5.38153
 21
250.768
  0
LINE
  8
0
 10
5.38153
 20
250.768
 11
5.43178
 21
251.031
  0
LINE
  8
0
 10
5.43178
 20
251.031
 11
5.51465
 21
251.286
  0
LINE
  8
0
 10
5.51465
 20
251.286
 11
5.62881
 21
251.529
  0
LINE
  8
0
 10
5.62881
 20
251.529
 11
5.77251
 21
251.755
  0
LINE
  8
0
 10
5.77251
 20
251.755
 11
5.94344
 21
251.962
  0
LINE
  8
0
 10
5.94344
 20
251.962
 11
6.1389
 21
252.145
  0
LINE
  8
0
 10
6.1389
 20
252.145
 11
6.35585
 21
252.303
  0
LINE
  8
0
 10
6.35585
 20
252.303
 11
6.59084
 21
252.432
  0
LINE
  8
0
 10
6.59084
 20
252.432
 11
6.84015
 21
252.531
  0
LINE
  8
0
 10
6.84015
 20
252.531
 11
7.09988
 21
252.597
  0
LINE
  8
0
 10
7.09988
 20
252.597
 11
7.36592
 21
252.631
  0
LINE
  8
0
 10
7.36592
 20
252.631
 11
7.63406
 21
252.631
  0
LINE
  8
0
 10
7.63406
 20
252.631
 11
7.9001
 21
252.597
  0
LINE
  8
0
 10
7.9001
 20
252.597
 11
8.15984
 21
252.531
  0
LINE
  8
0
 10
8.15984
 20
252.531
 11
8.40915
 21
252.432
  0
LINE
  8
0
 10
8.40915
 20
252.432
 11
8.64413
 21
252.303
  0
LINE
  8
0
 10
8.64413
 20
252.303
 11
8.86108
 21
252.145
  0
LINE
  8
0
 10
8.86108
 20
252.145
 11
9.05655
 21
251.962
  0
LINE
  8
0
 10
9.05655
 20
251.962
 11
9.22748
 21
251.755
  0
LINE
  8
0
 10
9.22748
 20
251.755
 11
9.37117
 21
251.529
  0
LINE
  8
0
 10
9.37117
 20
251.529
 11
9.48534
 21
251.286
  0
LINE
  8
0
 10
9.48534
 20
251.286
 11
9.56821
 21
251.031
  0
LINE
  8
0
 10
9.56821
 20
251.031
 11
9.61845
 21
250.768
  0
LINE
  8
0
 10
9.61845
 20
250.768
 11
9.63528
 21
250.5
  0
LINE
  8
0
 10
9.63528
 20
250.5
 11
9.61845
 21
250.232
  0
LINE
  8
0
 10
9.61845
 20
250.232
 11
9.56821
 21
249.969
  0
LINE
  8
0
 10
9.56821
 20
249.969
 11
9.48534
 21
249.714
  0
LINE
  8
0
 10
9.48534
 20
249.714
 11
9.37117
 21
249.471
  0
LINE
  8
0
 10
9.37117
 20
249.471
 11
9.22748
 21
249.245
  0
LINE
  8
0
 10
9.22748
 20
249.245
 11
9.05655
 21
249.038
  0
LINE
  8
0
 10
9.05655
 20
249.038
 11
8.86108
 21
248.855
  0
LINE
  8
0
 10
8.86108
 20
248.855
 11
8.64413
 21
248.697
  0
LINE
  8
0
 10
8.64413
 20
248.697
 11
8.40915
 21
248.568
  0
LINE
  8
0
 10
8.40915
 20
248.568
 11
8.15984
 21
248.469
  0
LINE
  8
0
 10
8.15984
 20
248.469
 11
7.9001
 21
248.403
  0
LINE
  8
0
 10
7.9001
 20
248.403
 11
7.63406
 21
248.369
  0
LINE
  8
0
 10
7.63406
 20
248.369
 11
7.36592
 21
248.369
  0
LINE
  8
0
 10
-7.63406
 20
248.369
 11
-7.9001
 21
248.403
  0
LINE
  8
0
 10
-7.9001
 20
248.403
 11
-8.15984
 21
248.469
  0
LINE
  8
0
 10
-8.15984
 20
248.469
 11
-8.40915
 21
248.568
  0
LINE
  8
0
 10
-8.40915
 20
248.568
 11
-8.64413
 21
248.697
  0
LINE
  8
0
 10
-8.64413
 20
248.697
 11
-8.86108
 21
248.855
  0
LINE
  8
0
 10
-8.86108
 20
248.855
 11
-9.05655
 21
249.038
  0
LINE
  8
0
 10
-9.05655
 20
249.038
 11
-9.22748
 21
249.245
  0
LINE
  8
0
 10
-9.22748
 20
249.245
 11
-9.37117
 21
249.471
  0
LINE
  8
0
 10
-9.37117
 20
249.471
 11
-9.48534
 21
249.714
  0
LINE
  8
0
 10
-9.48534
 20
249.714
 11
-9.56821
 21
249.969
  0
LINE
  8
0
 10
-9.56821
 20
249.969
 11
-9.61845
 21
250.232
  0
LINE
  8
0
 10
-9.61845
 20
250.232
 11
-9.63528
 21
250.5
  0
LINE
  8
0
 10
-9.63528
 20
250.5
 11
-9.61845
 21
250.768
  0
LINE
  8
0
 10
-9.61845
 20
250.768
 11
-9.56821
 21
251.031
  0
LINE
  8
0
 10
-9.56821
 20
251.031
 11
-9.48534
 21
251.286
  0
LINE
  8
0
 10
-9.48534
 20
251.286
 11
-9.37117
 21
251.529
  0
LINE
  8
0
 10
-9.37117
 20
251.529
 11
-9.22748
 21
251.755
  0
LINE
  8
0
 10
-9.22748
 20
251.755
 11
-9.05655
 21
251.962
  0
LINE
  8
0
 10
-9.05655
 20
251.962
 11
-8.86108
 21
252.145
  0
LINE
  8
0
 10
-8.86108
 20
252.145
 11
-8.64413
 21
252.303
  0
LINE
  8
0
 10
-8.64413
 20
252.303
 11
-8.40915
 21
252.432
  0
LINE
  8
0
 10
-8.40915
 20
252.432
 11
-8.15984
 21
252.531
  0
LINE
  8
0
 10
-8.15984
 20
252.531
 11
-7.9001
 21
252.597
  0
LINE
  8
0
 10
-7.9001
 20
252.597
 11
-7.63406
 21
252.631
  0
LINE
  8
0
 10
-7.63406
 20
252.631
 11
-7.36592
 21
252.631
  0
LINE
  8
0
 10
-7.36592
 20
252.631
 11
-7.09988
 21
252.597
  0
LINE
  8
0
 10
-7.09988
 20
252.597
 11
-6.84015
 21
252.531
  0
LINE
  8
0
 10
-6.84015
 20
252.531
 11
-6.59084
 21
252.432
  0
LINE
  8
0
 10
-6.59084
 20
252.432
 11
-6.35585
 21
252.303
  0
LINE
  8
0
 10
-6.35585
 20
252.303
 11
-6.1389
 21
252.145
  0
LINE
  8
0
 10
-6.1389
 20
252.145
 11
-5.94344
 21
251.962
  0
LINE
  8
0
 10
-5.94344
 20
251.962
 11
-5.77251
 21
251.755
  0
LINE
  8
0
 10
-5.77251
 20
251.755
 11
-5.62881
 21
251.529
  0
LINE
  8
0
 10
-5.62881
 20
251.529
 11
-5.51465
 21
251.286
  0
LINE
  8
0
 10
-5.51465
 20
251.286
 11
-5.43178
 21
251.031
  0
LINE
  8
0
 10
-5.43178
 20
251.031
 11
-5.38153
 21
250.768
  0
LINE
  8
0
 10
-5.38153
 20
250.768
 11
-5.3647
 21
250.5
  0
LINE
  8
0
 10
-5.3647
 20
250.5
 11
-5.38153
 21
250.232
  0
LINE
  8
0
 10
-5.38153
 20
250.232
 11
-5.43178
 21
249.969
  0
LINE
  8
0
 10
-5.43178
 20
249.969
 11
-5.51465
 21
249.714
  0
LINE
  8
0
 10
-5.51465
 20
249.714
 11
-5.62881
 21
249.471
  0
LINE
  8
0
 10
-5.62881
 20
249.471
 11
-5.77251
 21
249.245
  0
LINE
  8
0
 10
-5.77251
 20
249.245
 11
-5.94344
 21
249.038
  0
LINE
  8
0
 10
-5.94344
 20
249.038
 11
-6.1389
 21
248.855
  0
LINE
  8
0
 10
-6.1389
 20
248.855
 11
-6.35585
 21
248.697
  0
LINE
  8
0
 10
-6.35585
 20
248.697
 11
-6.59084
 21
248.568
  0
LINE
  8
0
 10
-6.59084
 20
248.568
 11
-6.84015
 21
248.469
  0
LINE
  8
0
 10
-6.84015
 20
248.469
 11
-7.09988
 21
248.403
  0
LINE
  8
0
 10
-7.09988
 20
248.403
 11
-7.36592
 21
248.369
  0
LINE
  8
0
 10
-7.36592
 20
248.369
 11
-7.63406
 21
248.369
  0
ENDSEC
  0
SECTION
  2
OBJECTS
  0
DICTIONARY
  0
ENDSEC
  0
EOF
