<?xml version="1.0" standalone="no"?>
<!DOCTYPE svg PUBLIC "-//W3C//DTD SVG 1.1//EN" "http://www.w3.org/Graphics/SVG/1.1/DTD/svg11.dtd">
<svg width="46mm" height="309mm" viewBox="-23 -552 46 309" xmlns="http://www.w3.org/2000/svg" version="1.1">
<title>OpenSCAD Model</title>
<path d="
M 18.4369,-402.089 L 19.0451,-402.245 L 19.6289,-402.476 L 20.1791,-402.778 L 20.6871,-403.147 L 21.1448,-403.577
 L 21.5451,-404.061 L 21.8815,-404.591 L 22.1489,-405.159 L 22.3429,-405.757 L 22.4606,-406.373 L 22.5,-407
 L 22.5,-547 L 22.4606,-547.627 L 22.3429,-548.243 L 22.1489,-548.841 L 21.8815,-549.409 L 21.5451,-549.939
 L 21.1448,-550.423 L 20.6871,-550.853 L 20.1791,-551.222 L 19.6289,-551.524 L 19.0451,-551.755 L 18.4369,-551.911
 L 17.8139,-551.99 L -17.8139,-551.99 L -18.4369,-551.911 L -19.0451,-551.755 L -19.6289,-551.524 L -20.1791,-551.222
 L -20.6871,-550.853 L -21.1448,-550.423 L -21.5451,-549.939 L -21.8815,-549.409 L -22.1489,-548.841 L -22.3429,-548.243
 L -22.4606,-547.627 L -22.5,-547 L -22.5,-407 L -22.4606,-406.373 L -22.3429,-405.757 L -22.1489,-405.159
 L -21.8815,-404.591 L -21.5451,-404.061 L -21.1448,-403.577 L -20.6871,-403.147 L -20.1791,-402.778 L -19.6289,-402.476
 L -19.0451,-402.245 L -18.4369,-402.089 L -17.8139,-402.01 L 17.8139,-402.01 z
M -17.1954,-404.393 L -17.5833,-404.442 L -17.9619,-404.539 L -18.3254,-404.683 L -18.668,-404.872 L -18.9842,-405.101
 L -19.2692,-405.369 L -19.5184,-405.67 L -19.7279,-406 L -19.8943,-406.354 L -20.0151,-406.726 L -20.0884,-407.11
 L -20.1129,-407.5 L -20.1129,-546.5 L -20.0884,-546.89 L -20.0151,-547.274 L -19.8943,-547.646 L -19.7279,-548
 L -19.5184,-548.33 L -19.2692,-548.631 L -18.9842,-548.899 L -18.668,-549.128 L -18.3254,-549.317 L -17.9619,-549.461
 L -17.5833,-549.558 L -17.1954,-549.607 L 17.1954,-549.607 L 17.5833,-549.558 L 17.9619,-549.461 L 18.3254,-549.317
 L 18.668,-549.128 L 18.9842,-548.899 L 19.2692,-548.631 L 19.5184,-548.33 L 19.7279,-548 L 19.8943,-547.646
 L 20.0151,-547.274 L 20.0884,-546.89 L 20.1129,-546.5 L 20.1129,-407.5 L 20.0884,-407.11 L 20.0151,-406.726
 L 19.8943,-406.354 L 19.7279,-406 L 19.5184,-405.67 L 19.2692,-405.369 L 18.9842,-405.101 L 18.668,-404.872
 L 18.3254,-404.683 L 17.9619,-404.539 L 17.5833,-404.442 L 17.1954,-404.393 z
M 18.4369,-243.089 L 19.0451,-243.245 L 19.6289,-243.476 L 20.1791,-243.778 L 20.6871,-244.147 L 21.1448,-244.577
 L 21.5451,-245.061 L 21.8815,-245.591 L 22.1489,-246.159 L 22.3429,-246.757 L 22.4606,-247.373 L 22.5,-248
 L 22.5,-388 L 22.4606,-388.627 L 22.3429,-389.243 L 22.1489,-389.841 L 21.8815,-390.409 L 21.5451,-390.939
 L 21.1448,-391.423 L 20.6871,-391.853 L 20.1791,-392.222 L 19.6289,-392.524 L 19.0451,-392.755 L 18.4369,-392.911
 L 17.8139,-392.99 L -17.8139,-392.99 L -18.4369,-392.911 L -19.0451,-392.755 L -19.6289,-392.524 L -20.1791,-392.222
 L -20.6871,-391.853 L -21.1448,-391.423 L -21.5451,-390.939 L -21.8815,-390.409 L -22.1489,-389.841 L -22.3429,-389.243
 L -22.4606,-388.627 L -22.5,-388 L -22.5,-248 L -22.4606,-247.373 L -22.3429,-246.757 L -22.1489,-246.159
 L -21.8815,-245.591 L -21.5451,-245.061 L -21.1448,-244.577 L -20.6871,-244.147 L -20.1791,-243.778 L -19.6289,-243.476
 L -19.0451,-243.245 L -18.4369,-243.089 L -17.8139,-243.01 L 17.8139,-243.01 z
M 14.8659,-383.369 L 14.5999,-383.403 L 14.3401,-383.469 L 14.0908,-383.568 L 13.8559,-383.697 L 13.6389,-383.855
 L 13.4434,-384.038 L 13.2725,-384.245 L 13.1288,-384.471 L 13.0146,-384.714 L 12.9318,-384.969 L 12.8815,-385.232
 L 12.8647,-385.5 L 12.8815,-385.768 L 12.9318,-386.031 L 13.0146,-386.286 L 13.1288,-386.529 L 13.2725,-386.755
 L 13.4434,-386.962 L 13.6389,-387.145 L 13.8559,-387.303 L 14.0908,-387.432 L 14.3401,-387.531 L 14.5999,-387.597
 L 14.8659,-387.631 L 15.1341,-387.631 L 15.4001,-387.597 L 15.6598,-387.531 L 15.9091,-387.432 L 16.1441,-387.303
 L 16.3611,-387.145 L 16.5565,-386.962 L 16.7275,-386.755 L 16.8712,-386.529 L 16.9853,-386.286 L 17.0682,-386.031
 L 17.1185,-385.768 L 17.1353,-385.5 L 17.1185,-385.232 L 17.0682,-384.969 L 16.9853,-384.714 L 16.8712,-384.471
 L 16.7275,-384.245 L 16.5565,-384.038 L 16.3611,-383.855 L 16.1441,-383.697 L 15.9091,-383.568 L 15.6598,-383.469
 L 15.4001,-383.403 L 15.1341,-383.369 z
M -15.1341,-383.369 L -15.4001,-383.403 L -15.6598,-383.469 L -15.9091,-383.568 L -16.1441,-383.697 L -16.3611,-383.855
 L -16.5565,-384.038 L -16.7275,-384.245 L -16.8712,-384.471 L -16.9853,-384.714 L -17.0682,-384.969 L -17.1185,-385.232
 L -17.1353,-385.5 L -17.1185,-385.768 L -17.0682,-386.031 L -16.9853,-386.286 L -16.8712,-386.529 L -16.7275,-386.755
 L -16.5565,-386.962 L -16.3611,-387.145 L -16.1441,-387.303 L -15.9091,-387.432 L -15.6598,-387.531 L -15.4001,-387.597
 L -15.1341,-387.631 L -14.8659,-387.631 L -14.5999,-387.597 L -14.3401,-387.531 L -14.0908,-387.432 L -13.8559,-387.303
 L -13.6389,-387.145 L -13.4434,-386.962 L -13.2725,-386.755 L -13.1288,-386.529 L -13.0146,-386.286 L -12.9318,-386.031
 L -12.8815,-385.768 L -12.8647,-385.5 L -12.8815,-385.232 L -12.9318,-384.969 L -13.0146,-384.714 L -13.1288,-384.471
 L -13.2725,-384.245 L -13.4434,-384.038 L -13.6389,-383.855 L -13.8559,-383.697 L -14.0908,-383.568 L -14.3401,-383.469
 L -14.5999,-383.403 L -14.8659,-383.369 z
M 14.8659,-248.369 L 14.5999,-248.403 L 14.3401,-248.469 L 14.0908,-248.568 L 13.8559,-248.697 L 13.6389,-248.855
 L 13.4434,-249.038 L 13.2725,-249.245 L 13.1288,-249.471 L 13.0146,-249.714 L 12.9318,-249.969 L 12.8815,-250.232
 L 12.8647,-250.5 L 12.8815,-250.768 L 12.9318,-251.031 L 13.0146,-251.286 L 13.1288,-251.529 L 13.2725,-251.755
 L 13.4434,-251.962 L 13.6389,-252.145 L 13.8559,-252.303 L 14.0908,-252.432 L 14.3401,-252.531 L 14.5999,-252.597
 L 14.8659,-252.631 L 15.1341,-252.631 L 15.4001,-252.597 L 15.6598,-252.531 L 15.9091,-252.432 L 16.1441,-252.303
 L 16.3611,-252.145 L 16.5565,-251.962 L 16.7275,-251.755 L 16.8712,-251.529 L 16.9853,-251.286 L 17.0682,-251.031
 L 17.1185,-250.768 L 17.1353,-250.5 L 17.1185,-250.232 L 17.0682,-249.969 L 16.9853,-249.714 L 16.8712,-249.471
 L 16.7275,-249.245 L 16.5565,-249.038 L 16.3611,-248.855 L 16.1441,-248.697 L 15.9091,-248.568 L 15.6598,-248.469
 L 15.4001,-248.403 L 15.1341,-248.369 z
M -15.1341,-248.369 L -15.4001,-248.403 L -15.6598,-248.469 L -15.9091,-248.568 L -16.1441,-248.697 L -16.3611,-248.855
 L -16.5565,-249.038 L -16.7275,-249.245 L -16.8712,-249.471 L -16.9853,-249.714 L -17.0682,-249.969 L -17.1185,-250.232
 L -17.1353,-250.5 L -17.1185,-250.768 L -17.0682,-251.031 L -16.9853,-251.286 L -16.8712,-251.529 L -16.7275,-251.755
 L -16.5565,-251.962 L -16.3611,-252.145 L -16.1441,-252.303 L -15.9091,-252.432 L -15.6598,-252.531 L -15.4001,-252.597
 L -15.1341,-252.631 L -14.8659,-252.631 L -14.5999,-252.597 L -14.3401,-252.531 L -14.0908,-252.432 L -13.8559,-252.303
 L -13.6389,-252.145 L -13.4434,-251.962 L -13.2725,-251.755 L -13.1288,-251.529 L -13.0146,-251.286 L -12.9318,-251.031
 L -12.8815,-250.768 L -12.8647,-250.5 L -12.8815,-250.232 L -12.9318,-249.969 L -13.0146,-249.714 L -13.1288,-249.471
 L -13.2725,-249.245 L -13.4434,-249.038 L -13.6389,-248.855 L -13.8559,-248.697 L -14.0908,-248.568 L -14.3401,-248.469
 L -14.5999,-248.403 L -14.8659,-248.369 z
" stroke="black" fill="lightgray" stroke-width="0.5"/>
</svg>
