  0
SECTION
  2
BLOCKS
  0
ENDSEC
  0
SECTION
  2
ENTITIES
  0
LINE
  8
0
 10
1.40535
 20
64.6329
 11
2.31763
 21
64.8671
  0
LINE
  8
0
 10
2.31763
 20
64.8671
 11
3.19334
 21
65.2138
  0
LINE
  8
0
 10
3.19334
 20
65.2138
 11
4.01869
 21
65.6675
  0
LINE
  8
0
 10
4.01869
 20
65.6675
 11
4.78067
 21
66.2212
  0
LINE
  8
0
 10
4.78067
 20
66.2212
 11
5.46725
 21
66.8659
  0
LINE
  8
0
 10
5.46725
 20
66.8659
 11
6.06763
 21
67.5916
  0
LINE
  8
0
 10
6.06763
 20
67.5916
 11
6.5723
 21
68.3869
  0
LINE
  8
0
 10
6.5723
 20
68.3869
 11
6.97331
 21
69.2391
  0
LINE
  8
0
 10
6.97331
 20
69.2391
 11
7.26436
 21
70.1348
  0
LINE
  8
0
 10
7.26436
 20
70.1348
 11
7.44086
 21
71.06
  0
LINE
  8
0
 10
7.44086
 20
71.06
 11
7.5
 21
72
  0
LINE
  8
0
 10
7.5
 20
72
 11
7.44086
 21
72.94
  0
LINE
  8
0
 10
7.44086
 20
72.94
 11
7.26436
 21
73.8652
  0
LINE
  8
0
 10
7.26436
 20
73.8652
 11
6.97331
 21
74.7609
  0
LINE
  8
0
 10
6.97331
 20
74.7609
 11
6.5723
 21
75.6131
  0
LINE
  8
0
 10
6.5723
 20
75.6131
 11
6.06763
 21
76.4084
  0
LINE
  8
0
 10
6.06763
 20
76.4084
 11
5.46725
 21
77.1341
  0
LINE
  8
0
 10
5.46725
 20
77.1341
 11
4.78067
 21
77.7788
  0
LINE
  8
0
 10
4.78067
 20
77.7788
 11
4.01869
 21
78.3325
  0
LINE
  8
0
 10
4.01869
 20
78.3325
 11
3.19334
 21
78.7862
  0
LINE
  8
0
 10
3.19334
 20
78.7862
 11
2.31763
 21
79.1329
  0
LINE
  8
0
 10
2.31763
 20
79.1329
 11
1.40535
 21
79.3671
  0
LINE
  8
0
 10
1.40535
 20
79.3671
 11
0.470917
 21
79.4852
  0
LINE
  8
0
 10
0.470917
 20
79.4852
 11
-0.470917
 21
79.4852
  0
LINE
  8
0
 10
-0.470917
 20
79.4852
 11
-1.40535
 21
79.3671
  0
LINE
  8
0
 10
-1.40535
 20
79.3671
 11
-2.31763
 21
79.1329
  0
LINE
  8
0
 10
-2.31763
 20
79.1329
 11
-3.19334
 21
78.7862
  0
LINE
  8
0
 10
-3.19334
 20
78.7862
 11
-4.01869
 21
78.3325
  0
LINE
  8
0
 10
-4.01869
 20
78.3325
 11
-4.78067
 21
77.7788
  0
LINE
  8
0
 10
-4.78067
 20
77.7788
 11
-5.46725
 21
77.1341
  0
LINE
  8
0
 10
-5.46725
 20
77.1341
 11
-6
 21
76.4901
  0
LINE
  8
0
 10
-6
 20
76.4901
 11
-6
 21
79.4792
  0
LINE
  8
0
 10
-6
 20
79.4792
 11
-9
 21
79.4792
  0
LINE
  8
0
 10
-9
 20
79.4792
 11
-9
 21
64.5208
  0
LINE
  8
0
 10
-9
 20
64.5208
 11
-6
 21
64.5208
  0
LINE
  8
0
 10
-6
 20
64.5208
 11
-6
 21
67.5099
  0
LINE
  8
0
 10
-6
 20
67.5099
 11
-5.46725
 21
66.8659
  0
LINE
  8
0
 10
-5.46725
 20
66.8659
 11
-4.78067
 21
66.2212
  0
LINE
  8
0
 10
-4.78067
 20
66.2212
 11
-4.01869
 21
65.6675
  0
LINE
  8
0
 10
-4.01869
 20
65.6675
 11
-3.19334
 21
65.2138
  0
LINE
  8
0
 10
-3.19334
 20
65.2138
 11
-2.31763
 21
64.8671
  0
LINE
  8
0
 10
-2.31763
 20
64.8671
 11
-1.40535
 21
64.6329
  0
LINE
  8
0
 10
-1.40535
 20
64.6329
 11
-0.470917
 21
64.5148
  0
LINE
  8
0
 10
-0.470917
 20
64.5148
 11
0.470917
 21
64.5148
  0
LINE
  8
0
 10
0.470917
 20
64.5148
 11
1.40535
 21
64.6329
  0
LINE
  8
0
 10
-2.19545
 20
66.8932
 11
-2.5833
 21
66.9422
  0
LINE
  8
0
 10
-2.5833
 20
66.9422
 11
-2.96194
 21
67.0394
  0
LINE
  8
0
 10
-2.96194
 20
67.0394
 11
-3.32541
 21
67.1833
  0
LINE
  8
0
 10
-3.32541
 20
67.1833
 11
-3.66798
 21
67.3717
  0
LINE
  8
0
 10
-3.66798
 20
67.3717
 11
-3.98424
 21
67.6015
  0
LINE
  8
0
 10
-3.98424
 20
67.6015
 11
-4.26921
 21
67.8691
  0
LINE
  8
0
 10
-4.26921
 20
67.8691
 11
-4.5184
 21
68.1703
  0
LINE
  8
0
 10
-4.5184
 20
68.1703
 11
-4.72786
 21
68.5004
  0
LINE
  8
0
 10
-4.72786
 20
68.5004
 11
-4.89432
 21
68.8541
  0
LINE
  8
0
 10
-4.89432
 20
68.8541
 11
-5.01512
 21
69.2259
  0
LINE
  8
0
 10
-5.01512
 20
69.2259
 11
-5.08836
 21
69.6098
  0
LINE
  8
0
 10
-5.08836
 20
69.6098
 11
-5.11292
 21
70
  0
LINE
  8
0
 10
-5.11292
 20
70
 11
-5.11292
 21
74
  0
LINE
  8
0
 10
-5.11292
 20
74
 11
-5.08836
 21
74.3902
  0
LINE
  8
0
 10
-5.08836
 20
74.3902
 11
-5.01512
 21
74.7741
  0
LINE
  8
0
 10
-5.01512
 20
74.7741
 11
-4.89432
 21
75.1459
  0
LINE
  8
0
 10
-4.89432
 20
75.1459
 11
-4.72786
 21
75.4996
  0
LINE
  8
0
 10
-4.72786
 20
75.4996
 11
-4.5184
 21
75.8297
  0
LINE
  8
0
 10
-4.5184
 20
75.8297
 11
-4.26921
 21
76.1309
  0
LINE
  8
0
 10
-4.26921
 20
76.1309
 11
-3.98424
 21
76.3985
  0
LINE
  8
0
 10
-3.98424
 20
76.3985
 11
-3.66798
 21
76.6283
  0
LINE
  8
0
 10
-3.66798
 20
76.6283
 11
-3.32541
 21
76.8167
  0
LINE
  8
0
 10
-3.32541
 20
76.8167
 11
-2.96194
 21
76.9606
  0
LINE
  8
0
 10
-2.96194
 20
76.9606
 11
-2.5833
 21
77.0578
  0
LINE
  8
0
 10
-2.5833
 20
77.0578
 11
-2.19545
 21
77.1068
  0
LINE
  8
0
 10
-2.19545
 20
77.1068
 11
2.19545
 21
77.1068
  0
LINE
  8
0
 10
2.19545
 20
77.1068
 11
2.5833
 21
77.0578
  0
LINE
  8
0
 10
2.5833
 20
77.0578
 11
2.96194
 21
76.9606
  0
LINE
  8
0
 10
2.96194
 20
76.9606
 11
3.32541
 21
76.8167
  0
LINE
  8
0
 10
3.32541
 20
76.8167
 11
3.66798
 21
76.6283
  0
LINE
  8
0
 10
3.66798
 20
76.6283
 11
3.98424
 21
76.3985
  0
LINE
  8
0
 10
3.98424
 20
76.3985
 11
4.26921
 21
76.1309
  0
LINE
  8
0
 10
4.26921
 20
76.1309
 11
4.5184
 21
75.8297
  0
LINE
  8
0
 10
4.5184
 20
75.8297
 11
4.72786
 21
75.4996
  0
LINE
  8
0
 10
4.72786
 20
75.4996
 11
4.89432
 21
75.1459
  0
LINE
  8
0
 10
4.89432
 20
75.1459
 11
5.01512
 21
74.7741
  0
LINE
  8
0
 10
5.01512
 20
74.7741
 11
5.08836
 21
74.3902
  0
LINE
  8
0
 10
5.08836
 20
74.3902
 11
5.11292
 21
74
  0
LINE
  8
0
 10
5.11292
 20
74
 11
5.11292
 21
70
  0
LINE
  8
0
 10
5.11292
 20
70
 11
5.08836
 21
69.6098
  0
LINE
  8
0
 10
5.08836
 20
69.6098
 11
5.01512
 21
69.2259
  0
LINE
  8
0
 10
5.01512
 20
69.2259
 11
4.89432
 21
68.8541
  0
LINE
  8
0
 10
4.89432
 20
68.8541
 11
4.72786
 21
68.5004
  0
LINE
  8
0
 10
4.72786
 20
68.5004
 11
4.5184
 21
68.1703
  0
LINE
  8
0
 10
4.5184
 20
68.1703
 11
4.26921
 21
67.8691
  0
LINE
  8
0
 10
4.26921
 20
67.8691
 11
3.98424
 21
67.6015
  0
LINE
  8
0
 10
3.98424
 20
67.6015
 11
3.66798
 21
67.3717
  0
LINE
  8
0
 10
3.66798
 20
67.3717
 11
3.32541
 21
67.1833
  0
LINE
  8
0
 10
3.32541
 20
67.1833
 11
2.96194
 21
67.0394
  0
LINE
  8
0
 10
2.96194
 20
67.0394
 11
2.5833
 21
66.9422
  0
LINE
  8
0
 10
2.5833
 20
66.9422
 11
2.19545
 21
66.8932
  0
LINE
  8
0
 10
2.19545
 20
66.8932
 11
-2.19545
 21
66.8932
  0
LINE
  8
0
 10
1.40535
 20
40.6329
 11
2.31763
 21
40.8671
  0
LINE
  8
0
 10
2.31763
 20
40.8671
 11
3.19334
 21
41.2138
  0
LINE
  8
0
 10
3.19334
 20
41.2138
 11
4.01869
 21
41.6675
  0
LINE
  8
0
 10
4.01869
 20
41.6675
 11
4.78067
 21
42.2212
  0
LINE
  8
0
 10
4.78067
 20
42.2212
 11
5.46725
 21
42.8659
  0
LINE
  8
0
 10
5.46725
 20
42.8659
 11
6.06763
 21
43.5916
  0
LINE
  8
0
 10
6.06763
 20
43.5916
 11
6.5723
 21
44.3869
  0
LINE
  8
0
 10
6.5723
 20
44.3869
 11
6.97331
 21
45.2391
  0
LINE
  8
0
 10
6.97331
 20
45.2391
 11
7.26436
 21
46.1348
  0
LINE
  8
0
 10
7.26436
 20
46.1348
 11
7.44086
 21
47.06
  0
LINE
  8
0
 10
7.44086
 20
47.06
 11
7.5
 21
48
  0
LINE
  8
0
 10
7.5
 20
48
 11
7.44086
 21
48.94
  0
LINE
  8
0
 10
7.44086
 20
48.94
 11
7.26436
 21
49.8652
  0
LINE
  8
0
 10
7.26436
 20
49.8652
 11
6.97331
 21
50.7609
  0
LINE
  8
0
 10
6.97331
 20
50.7609
 11
6.5723
 21
51.6131
  0
LINE
  8
0
 10
6.5723
 20
51.6131
 11
6.06763
 21
52.4084
  0
LINE
  8
0
 10
6.06763
 20
52.4084
 11
5.46725
 21
53.1341
  0
LINE
  8
0
 10
5.46725
 20
53.1341
 11
4.78067
 21
53.7788
  0
LINE
  8
0
 10
4.78067
 20
53.7788
 11
4.01869
 21
54.3325
  0
LINE
  8
0
 10
4.01869
 20
54.3325
 11
3.19334
 21
54.7862
  0
LINE
  8
0
 10
3.19334
 20
54.7862
 11
2.31763
 21
55.1329
  0
LINE
  8
0
 10
2.31763
 20
55.1329
 11
1.40535
 21
55.3671
  0
LINE
  8
0
 10
1.40535
 20
55.3671
 11
0.470917
 21
55.4852
  0
LINE
  8
0
 10
0.470917
 20
55.4852
 11
-0.470917
 21
55.4852
  0
LINE
  8
0
 10
-0.470917
 20
55.4852
 11
-1.40535
 21
55.3671
  0
LINE
  8
0
 10
-1.40535
 20
55.3671
 11
-2.31763
 21
55.1329
  0
LINE
  8
0
 10
-2.31763
 20
55.1329
 11
-3.19334
 21
54.7862
  0
LINE
  8
0
 10
-3.19334
 20
54.7862
 11
-4.01869
 21
54.3325
  0
LINE
  8
0
 10
-4.01869
 20
54.3325
 11
-4.78067
 21
53.7788
  0
LINE
  8
0
 10
-4.78067
 20
53.7788
 11
-5.46725
 21
53.1341
  0
LINE
  8
0
 10
-5.46725
 20
53.1341
 11
-6
 21
52.4901
  0
LINE
  8
0
 10
-6
 20
52.4901
 11
-6
 21
54.1526
  0
LINE
  8
0
 10
-6
 20
54.1526
 11
-9
 21
54.1526
  0
LINE
  8
0
 10
-9
 20
54.1526
 11
-9
 21
41.8474
  0
LINE
  8
0
 10
-9
 20
41.8474
 11
-6
 21
41.8474
  0
LINE
  8
0
 10
-6
 20
41.8474
 11
-6
 21
43.5099
  0
LINE
  8
0
 10
-6
 20
43.5099
 11
-5.46725
 21
42.8659
  0
LINE
  8
0
 10
-5.46725
 20
42.8659
 11
-4.78067
 21
42.2212
  0
LINE
  8
0
 10
-4.78067
 20
42.2212
 11
-4.01869
 21
41.6675
  0
LINE
  8
0
 10
-4.01869
 20
41.6675
 11
-3.19334
 21
41.2138
  0
LINE
  8
0
 10
-3.19334
 20
41.2138
 11
-2.31763
 21
40.8671
  0
LINE
  8
0
 10
-2.31763
 20
40.8671
 11
-1.40535
 21
40.6329
  0
LINE
  8
0
 10
-1.40535
 20
40.6329
 11
-0.470917
 21
40.5148
  0
LINE
  8
0
 10
-0.470917
 20
40.5148
 11
0.470917
 21
40.5148
  0
LINE
  8
0
 10
0.470917
 20
40.5148
 11
1.40535
 21
40.6329
  0
LINE
  8
0
 10
-0.134064
 20
45.8689
 11
-0.400101
 21
45.9025
  0
LINE
  8
0
 10
-0.400101
 20
45.9025
 11
-0.659836
 21
45.9692
  0
LINE
  8
0
 10
-0.659836
 20
45.9692
 11
-0.909149
 21
46.0679
  0
LINE
  8
0
 10
-0.909149
 20
46.0679
 11
-1.14413
 21
46.1971
  0
LINE
  8
0
 10
-1.14413
 20
46.1971
 11
-1.36108
 21
46.3547
  0
LINE
  8
0
 10
-1.36108
 20
46.3547
 11
-1.55655
 21
46.5383
  0
LINE
  8
0
 10
-1.55655
 20
46.5383
 11
-1.72748
 21
46.7449
  0
LINE
  8
0
 10
-1.72748
 20
46.7449
 11
-1.87117
 21
46.9713
  0
LINE
  8
0
 10
-1.87117
 20
46.9713
 11
-1.98534
 21
47.214
  0
LINE
  8
0
 10
-1.98534
 20
47.214
 11
-2.06821
 21
47.469
  0
LINE
  8
0
 10
-2.06821
 20
47.469
 11
-2.11845
 21
47.7324
  0
LINE
  8
0
 10
-2.11845
 20
47.7324
 11
-2.13528
 21
48
  0
LINE
  8
0
 10
-2.13528
 20
48
 11
-2.11845
 21
48.2676
  0
LINE
  8
0
 10
-2.11845
 20
48.2676
 11
-2.06821
 21
48.531
  0
LINE
  8
0
 10
-2.06821
 20
48.531
 11
-1.98534
 21
48.786
  0
LINE
  8
0
 10
-1.98534
 20
48.786
 11
-1.87117
 21
49.0287
  0
LINE
  8
0
 10
-1.87117
 20
49.0287
 11
-1.72748
 21
49.2551
  0
LINE
  8
0
 10
-1.72748
 20
49.2551
 11
-1.55655
 21
49.4617
  0
LINE
  8
0
 10
-1.55655
 20
49.4617
 11
-1.36108
 21
49.6453
  0
LINE
  8
0
 10
-1.36108
 20
49.6453
 11
-1.14413
 21
49.8029
  0
LINE
  8
0
 10
-1.14413
 20
49.8029
 11
-0.909149
 21
49.9321
  0
LINE
  8
0
 10
-0.909149
 20
49.9321
 11
-0.659836
 21
50.0308
  0
LINE
  8
0
 10
-0.659836
 20
50.0308
 11
-0.400101
 21
50.0975
  0
LINE
  8
0
 10
-0.400101
 20
50.0975
 11
-0.134064
 21
50.1311
  0
LINE
  8
0
 10
-0.134064
 20
50.1311
 11
0.134064
 21
50.1311
  0
LINE
  8
0
 10
0.134064
 20
50.1311
 11
0.400101
 21
50.0975
  0
LINE
  8
0
 10
0.400101
 20
50.0975
 11
0.659836
 21
50.0308
  0
LINE
  8
0
 10
0.659836
 20
50.0308
 11
0.909149
 21
49.9321
  0
LINE
  8
0
 10
0.909149
 20
49.9321
 11
1.14413
 21
49.8029
  0
LINE
  8
0
 10
1.14413
 20
49.8029
 11
1.36108
 21
49.6453
  0
LINE
  8
0
 10
1.36108
 20
49.6453
 11
1.55655
 21
49.4617
  0
LINE
  8
0
 10
1.55655
 20
49.4617
 11
1.72748
 21
49.2551
  0
LINE
  8
0
 10
1.72748
 20
49.2551
 11
1.87117
 21
49.0287
  0
LINE
  8
0
 10
1.87117
 20
49.0287
 11
1.98534
 21
48.786
  0
LINE
  8
0
 10
1.98534
 20
48.786
 11
2.06821
 21
48.531
  0
LINE
  8
0
 10
2.06821
 20
48.531
 11
2.11845
 21
48.2676
  0
LINE
  8
0
 10
2.11845
 20
48.2676
 11
2.13528
 21
48
  0
LINE
  8
0
 10
2.13528
 20
48
 11
2.11845
 21
47.7324
  0
LINE
  8
0
 10
2.11845
 20
47.7324
 11
2.06821
 21
47.469
  0
LINE
  8
0
 10
2.06821
 20
47.469
 11
1.98534
 21
47.214
  0
LINE
  8
0
 10
1.98534
 20
47.214
 11
1.87117
 21
46.9713
  0
LINE
  8
0
 10
1.87117
 20
46.9713
 11
1.72748
 21
46.7449
  0
LINE
  8
0
 10
1.72748
 20
46.7449
 11
1.55655
 21
46.5383
  0
LINE
  8
0
 10
1.55655
 20
46.5383
 11
1.36108
 21
46.3547
  0
LINE
  8
0
 10
1.36108
 20
46.3547
 11
1.14413
 21
46.1971
  0
LINE
  8
0
 10
1.14413
 20
46.1971
 11
0.909149
 21
46.0679
  0
LINE
  8
0
 10
0.909149
 20
46.0679
 11
0.659836
 21
45.9692
  0
LINE
  8
0
 10
0.659836
 20
45.9692
 11
0.400101
 21
45.9025
  0
LINE
  8
0
 10
0.400101
 20
45.9025
 11
0.134064
 21
45.8689
  0
LINE
  8
0
 10
0.134064
 20
45.8689
 11
-0.134064
 21
45.8689
  0
ENDSEC
  0
SECTION
  2
OBJECTS
  0
DICTIONARY
  0
ENDSEC
  0
EOF
