<?xml version="1.0" standalone="no"?>
<!DOCTYPE svg PUBLIC "-//W3C//DTD SVG 1.1//EN" "http://www.w3.org/Graphics/SVG/1.1/DTD/svg11.dtd">
<svg width="107mm" height="69mm" viewBox="-54 -132 107 69" xmlns="http://www.w3.org/2000/svg" version="1.1">
<title>OpenSCAD Model</title>
<path d="
M 48.4369,-102.089 L 49.0451,-102.245 L 49.6289,-102.476 L 50.1791,-102.778 L 50.6871,-103.147 L 51.1448,-103.577
 L 51.5451,-104.061 L 51.8815,-104.591 L 52.1489,-105.159 L 52.3429,-105.757 L 52.4606,-106.373 L 52.5,-107
 L 52.5,-127 L 52.4606,-127.627 L 52.3429,-128.243 L 52.1489,-128.841 L 51.8815,-129.409 L 51.5451,-129.939
 L 51.1448,-130.423 L 50.6871,-130.853 L 50.1791,-131.222 L 49.6289,-131.524 L 49.0451,-131.755 L 48.4369,-131.911
 L 47.8139,-131.99 L -47.8139,-131.99 L -48.4369,-131.911 L -49.0451,-131.755 L -49.6289,-131.524 L -50.1791,-131.222
 L -50.6871,-130.853 L -51,-130.559 L -51,-131.979 L -54,-131.979 L -54,-102.021 L -51,-102.021
 L -51,-103.441 L -50.6871,-103.147 L -50.1791,-102.778 L -49.6289,-102.476 L -49.0451,-102.245 L -48.4369,-102.089
 L -47.8139,-102.01 L 47.8139,-102.01 z
M -47.1954,-104.393 L -47.5833,-104.442 L -47.9619,-104.539 L -48.3254,-104.683 L -48.668,-104.872 L -48.9842,-105.101
 L -49.2692,-105.369 L -49.5184,-105.67 L -49.7279,-106 L -49.8943,-106.354 L -50.0151,-106.726 L -50.0884,-107.11
 L -50.1129,-107.5 L -50.1129,-126.5 L -50.0884,-126.89 L -50.0151,-127.274 L -49.8943,-127.646 L -49.7279,-128
 L -49.5184,-128.33 L -49.2692,-128.631 L -48.9842,-128.899 L -48.668,-129.128 L -48.3254,-129.317 L -47.9619,-129.461
 L -47.5833,-129.558 L -47.1954,-129.607 L 47.1954,-129.607 L 47.5833,-129.558 L 47.9619,-129.461 L 48.3254,-129.317
 L 48.668,-129.128 L 48.9842,-128.899 L 49.2692,-128.631 L 49.5184,-128.33 L 49.7279,-128 L 49.8943,-127.646
 L 50.0151,-127.274 L 50.0884,-126.89 L 50.1129,-126.5 L 50.1129,-107.5 L 50.0884,-107.11 L 50.0151,-106.726
 L 49.8943,-106.354 L 49.7279,-106 L 49.5184,-105.67 L 49.2692,-105.369 L 48.9842,-105.101 L 48.668,-104.872
 L 48.3254,-104.683 L 47.9619,-104.539 L 47.5833,-104.442 L 47.1954,-104.393 z
M 48.4369,-63.0886 L 49.0451,-63.2447 L 49.6289,-63.4759 L 50.1791,-63.7784 L 50.6871,-64.1474 L 51.1448,-64.5773
 L 51.5451,-65.0611 L 51.8815,-65.5912 L 52.1489,-66.1594 L 52.3429,-66.7566 L 52.4606,-67.3733 L 52.5,-68
 L 52.5,-88 L 52.4606,-88.6267 L 52.3429,-89.2434 L 52.1489,-89.8406 L 51.8815,-90.4088 L 51.5451,-90.9389
 L 51.1448,-91.4227 L 50.6871,-91.8526 L 50.1791,-92.2216 L 49.6289,-92.5241 L 49.0451,-92.7553 L 48.4369,-92.9114
 L 47.8139,-92.9901 L -47.8139,-92.9901 L -48.4369,-92.9114 L -49.0451,-92.7553 L -49.6289,-92.5241 L -50.1791,-92.2216
 L -50.6871,-91.8526 L -51,-91.5587 L -51,-91.6526 L -54,-91.6526 L -54,-64.3474 L -51,-64.3474
 L -51,-64.4413 L -50.6871,-64.1474 L -50.1791,-63.7784 L -49.6289,-63.4759 L -49.0451,-63.2447 L -48.4369,-63.0886
 L -47.8139,-63.0099 L 47.8139,-63.0099 z
M 44.8659,-83.3689 L 44.5999,-83.4025 L 44.3401,-83.4692 L 44.0908,-83.5679 L 43.8559,-83.6971 L 43.6389,-83.8547
 L 43.4434,-84.0383 L 43.2725,-84.2449 L 43.1288,-84.4713 L 43.0146,-84.7139 L 42.9318,-84.969 L 42.8815,-85.2324
 L 42.8647,-85.5 L 42.8815,-85.7676 L 42.9318,-86.031 L 43.0146,-86.286 L 43.1288,-86.5287 L 43.2725,-86.7551
 L 43.4434,-86.9617 L 43.6389,-87.1453 L 43.8559,-87.3029 L 44.0908,-87.4321 L 44.3401,-87.5308 L 44.5999,-87.5975
 L 44.8659,-87.6311 L 45.1341,-87.6311 L 45.4001,-87.5975 L 45.6598,-87.5308 L 45.9092,-87.4321 L 46.1441,-87.3029
 L 46.3611,-87.1453 L 46.5565,-86.9617 L 46.7275,-86.7551 L 46.8712,-86.5287 L 46.9853,-86.286 L 47.0682,-86.031
 L 47.1185,-85.7676 L 47.1353,-85.5 L 47.1185,-85.2324 L 47.0682,-84.969 L 46.9853,-84.7139 L 46.8712,-84.4713
 L 46.7275,-84.2449 L 46.5565,-84.0383 L 46.3611,-83.8547 L 46.1441,-83.6971 L 45.9092,-83.5679 L 45.6598,-83.4692
 L 45.4001,-83.4025 L 45.1341,-83.3689 z
M -45.1341,-83.3689 L -45.4001,-83.4025 L -45.6598,-83.4692 L -45.9092,-83.5679 L -46.1441,-83.6971 L -46.3611,-83.8547
 L -46.5565,-84.0383 L -46.7275,-84.2449 L -46.8712,-84.4713 L -46.9853,-84.7139 L -47.0682,-84.969 L -47.1185,-85.2324
 L -47.1353,-85.5 L -47.1185,-85.7676 L -47.0682,-86.031 L -46.9853,-86.286 L -46.8712,-86.5287 L -46.7275,-86.7551
 L -46.5565,-86.9617 L -46.3611,-87.1453 L -46.1441,-87.3029 L -45.9092,-87.4321 L -45.6598,-87.5308 L -45.4001,-87.5975
 L -45.1341,-87.6311 L -44.8659,-87.6311 L -44.5999,-87.5975 L -44.3401,-87.5308 L -44.0908,-87.4321 L -43.8559,-87.3029
 L -43.6389,-87.1453 L -43.4434,-86.9617 L -43.2725,-86.7551 L -43.1288,-86.5287 L -43.0146,-86.286 L -42.9318,-86.031
 L -42.8815,-85.7676 L -42.8647,-85.5 L -42.8815,-85.2324 L -42.9318,-84.969 L -43.0146,-84.7139 L -43.1288,-84.4713
 L -43.2725,-84.2449 L -43.4434,-84.0383 L -43.6389,-83.8547 L -43.8559,-83.6971 L -44.0908,-83.5679 L -44.3401,-83.4692
 L -44.5999,-83.4025 L -44.8659,-83.3689 z
M 44.8659,-68.3689 L 44.5999,-68.4025 L 44.3401,-68.4692 L 44.0908,-68.5679 L 43.8559,-68.6971 L 43.6389,-68.8547
 L 43.4434,-69.0383 L 43.2725,-69.2449 L 43.1288,-69.4713 L 43.0146,-69.714 L 42.9318,-69.969 L 42.8815,-70.2324
 L 42.8647,-70.5 L 42.8815,-70.7676 L 42.9318,-71.031 L 43.0146,-71.2861 L 43.1288,-71.5287 L 43.2725,-71.7551
 L 43.4434,-71.9617 L 43.6389,-72.1453 L 43.8559,-72.3029 L 44.0908,-72.4321 L 44.3401,-72.5308 L 44.5999,-72.5975
 L 44.8659,-72.6311 L 45.1341,-72.6311 L 45.4001,-72.5975 L 45.6598,-72.5308 L 45.9092,-72.4321 L 46.1441,-72.3029
 L 46.3611,-72.1453 L 46.5565,-71.9617 L 46.7275,-71.7551 L 46.8712,-71.5287 L 46.9853,-71.2861 L 47.0682,-71.031
 L 47.1185,-70.7676 L 47.1353,-70.5 L 47.1185,-70.2324 L 47.0682,-69.969 L 46.9853,-69.714 L 46.8712,-69.4713
 L 46.7275,-69.2449 L 46.5565,-69.0383 L 46.3611,-68.8547 L 46.1441,-68.6971 L 45.9092,-68.5679 L 45.6598,-68.4692
 L 45.4001,-68.4025 L 45.1341,-68.3689 z
M -45.1341,-68.3689 L -45.4001,-68.4025 L -45.6598,-68.4692 L -45.9092,-68.5679 L -46.1441,-68.6971 L -46.3611,-68.8547
 L -46.5565,-69.0383 L -46.7275,-69.2449 L -46.8712,-69.4713 L -46.9853,-69.714 L -47.0682,-69.969 L -47.1185,-70.2324
 L -47.1353,-70.5 L -47.1185,-70.7676 L -47.0682,-71.031 L -46.9853,-71.2861 L -46.8712,-71.5287 L -46.7275,-71.7551
 L -46.5565,-71.9617 L -46.3611,-72.1453 L -46.1441,-72.3029 L -45.9092,-72.4321 L -45.6598,-72.5308 L -45.4001,-72.5975
 L -45.1341,-72.6311 L -44.8659,-72.6311 L -44.5999,-72.5975 L -44.3401,-72.5308 L -44.0908,-72.4321 L -43.8559,-72.3029
 L -43.6389,-72.1453 L -43.4434,-71.9617 L -43.2725,-71.7551 L -43.1288,-71.5287 L -43.0146,-71.2861 L -42.9318,-71.031
 L -42.8815,-70.7676 L -42.8647,-70.5 L -42.8815,-70.2324 L -42.9318,-69.969 L -43.0146,-69.714 L -43.1288,-69.4713
 L -43.2725,-69.2449 L -43.4434,-69.0383 L -43.6389,-68.8547 L -43.8559,-68.6971 L -44.0908,-68.5679 L -44.3401,-68.4692
 L -44.5999,-68.4025 L -44.8659,-68.3689 z
" stroke="black" fill="lightgray" stroke-width="0.5"/>
</svg>
