<?xml version="1.0" standalone="no"?>
<!DOCTYPE svg PUBLIC "-//W3C//DTD SVG 1.1//EN" "http://www.w3.org/Graphics/SVG/1.1/DTD/svg11.dtd">
<svg width="30mm" height="862mm" viewBox="-15 -1649 30 862" xmlns="http://www.w3.org/2000/svg" version="1.1">
<title>OpenSCAD Model</title>
<path d="
M 10.9369,-1483.59 L 11.5451,-1483.74 L 12.1289,-1483.98 L 12.6791,-1484.28 L 13.1871,-1484.65 L 13.6448,-1485.08
 L 14.0451,-1485.56 L 14.3815,-1486.09 L 14.6489,-1486.66 L 14.8429,-1487.26 L 14.9606,-1487.87 L 15,-1488.5
 L 15,-1643.5 L 14.9606,-1644.13 L 14.8429,-1644.74 L 14.6489,-1645.34 L 14.3815,-1645.91 L 14.0451,-1646.44
 L 13.6448,-1646.92 L 13.1871,-1647.35 L 12.6791,-1647.72 L 12.1289,-1648.02 L 11.5451,-1648.26 L 10.9369,-1648.41
 L 10.3139,-1648.49 L -10.3139,-1648.49 L -10.9369,-1648.41 L -11.5451,-1648.26 L -12.1289,-1648.02 L -12.6791,-1647.72
 L -13.1871,-1647.35 L -13.6448,-1646.92 L -14.0451,-1646.44 L -14.3815,-1645.91 L -14.6489,-1645.34 L -14.8429,-1644.74
 L -14.9606,-1644.13 L -15,-1643.5 L -15,-1488.5 L -14.9606,-1487.87 L -14.8429,-1487.26 L -14.6489,-1486.66
 L -14.3815,-1486.09 L -14.0451,-1485.56 L -13.6448,-1485.08 L -13.1871,-1484.65 L -12.6791,-1484.28 L -12.1289,-1483.98
 L -11.5451,-1483.74 L -10.9369,-1483.59 L -10.3139,-1483.51 L 10.3139,-1483.51 z
M -9.75116,-1485.01 L -10.2495,-1485.07 L -10.7361,-1485.2 L -11.2031,-1485.38 L -11.6433,-1485.62 L -12.0497,-1485.92
 L -12.4159,-1486.26 L -12.7361,-1486.65 L -13.0052,-1487.07 L -13.2191,-1487.53 L -13.3743,-1488.01 L -13.4684,-1488.5
 L -13.5,-1489 L -13.5,-1643 L -13.4684,-1643.5 L -13.3743,-1643.99 L -13.2191,-1644.47 L -13.0052,-1644.93
 L -12.7361,-1645.35 L -12.4159,-1645.74 L -12.0497,-1646.08 L -11.6433,-1646.38 L -11.2031,-1646.62 L -10.7361,-1646.8
 L -10.2495,-1646.93 L -9.75116,-1646.99 L 9.75116,-1646.99 L 10.2495,-1646.93 L 10.7361,-1646.8 L 11.2031,-1646.62
 L 11.6433,-1646.38 L 12.0497,-1646.08 L 12.4159,-1645.74 L 12.7361,-1645.35 L 13.0052,-1644.93 L 13.2191,-1644.47
 L 13.3743,-1643.99 L 13.4684,-1643.5 L 13.5,-1643 L 13.5,-1489 L 13.4684,-1488.5 L 13.3743,-1488.01
 L 13.2191,-1487.53 L 13.0052,-1487.07 L 12.7361,-1486.65 L 12.4159,-1486.26 L 12.0497,-1485.92 L 11.6433,-1485.62
 L 11.2031,-1485.38 L 10.7361,-1485.2 L 10.2495,-1485.07 L 9.75116,-1485.01 z
M 10.9369,-1309.59 L 11.5451,-1309.74 L 12.1289,-1309.98 L 12.6791,-1310.28 L 13.1871,-1310.65 L 13.6448,-1311.08
 L 14.0451,-1311.56 L 14.3815,-1312.09 L 14.6489,-1312.66 L 14.8429,-1313.26 L 14.9606,-1313.87 L 15,-1314.5
 L 15,-1469.5 L 14.9606,-1470.13 L 14.8429,-1470.74 L 14.6489,-1471.34 L 14.3815,-1471.91 L 14.0451,-1472.44
 L 13.6448,-1472.92 L 13.1871,-1473.35 L 12.6791,-1473.72 L 12.1289,-1474.02 L 11.5451,-1474.26 L 10.9369,-1474.41
 L 10.3139,-1474.49 L -10.3139,-1474.49 L -10.9369,-1474.41 L -11.5451,-1474.26 L -12.1289,-1474.02 L -12.6791,-1473.72
 L -13.1871,-1473.35 L -13.6448,-1472.92 L -14.0451,-1472.44 L -14.3815,-1471.91 L -14.6489,-1471.34 L -14.8429,-1470.74
 L -14.9606,-1470.13 L -15,-1469.5 L -15,-1314.5 L -14.9606,-1313.87 L -14.8429,-1313.26 L -14.6489,-1312.66
 L -14.3815,-1312.09 L -14.0451,-1311.56 L -13.6448,-1311.08 L -13.1871,-1310.65 L -12.6791,-1310.28 L -12.1289,-1309.98
 L -11.5451,-1309.74 L -10.9369,-1309.59 L -10.3139,-1309.51 L 10.3139,-1309.51 z
M -9.75116,-1311.01 L -10.2495,-1311.07 L -10.7361,-1311.2 L -11.2031,-1311.38 L -11.6433,-1311.62 L -12.0497,-1311.92
 L -12.4159,-1312.26 L -12.7361,-1312.65 L -13.0052,-1313.07 L -13.2191,-1313.53 L -13.3743,-1314.01 L -13.4684,-1314.5
 L -13.5,-1315 L -13.5,-1469 L -13.4684,-1469.5 L -13.3743,-1469.99 L -13.2191,-1470.47 L -13.0052,-1470.93
 L -12.7361,-1471.35 L -12.4159,-1471.74 L -12.0497,-1472.08 L -11.6433,-1472.38 L -11.2031,-1472.62 L -10.7361,-1472.8
 L -10.2495,-1472.93 L -9.75116,-1472.99 L 9.75116,-1472.99 L 10.2495,-1472.93 L 10.7361,-1472.8 L 11.2031,-1472.62
 L 11.6433,-1472.38 L 12.0497,-1472.08 L 12.4159,-1471.74 L 12.7361,-1471.35 L 13.0052,-1470.93 L 13.2191,-1470.47
 L 13.3743,-1469.99 L 13.4684,-1469.5 L 13.5,-1469 L 13.5,-1315 L 13.4684,-1314.5 L 13.3743,-1314.01
 L 13.2191,-1313.53 L 13.0052,-1313.07 L 12.7361,-1312.65 L 12.4159,-1312.26 L 12.0497,-1311.92 L 11.6433,-1311.62
 L 11.2031,-1311.38 L 10.7361,-1311.2 L 10.2495,-1311.07 L 9.75116,-1311.01 z
M 10.9369,-1135.59 L 11.5451,-1135.74 L 12.1289,-1135.98 L 12.6791,-1136.28 L 13.1871,-1136.65 L 13.6448,-1137.08
 L 14.0451,-1137.56 L 14.3815,-1138.09 L 14.6489,-1138.66 L 14.8429,-1139.26 L 14.9606,-1139.87 L 15,-1140.5
 L 15,-1295.5 L 14.9606,-1296.13 L 14.8429,-1296.74 L 14.6489,-1297.34 L 14.3815,-1297.91 L 14.0451,-1298.44
 L 13.6448,-1298.92 L 13.1871,-1299.35 L 12.6791,-1299.72 L 12.1289,-1300.02 L 11.5451,-1300.26 L 10.9369,-1300.41
 L 10.3139,-1300.49 L -10.3139,-1300.49 L -10.9369,-1300.41 L -11.5451,-1300.26 L -12.1289,-1300.02 L -12.6791,-1299.72
 L -13.1871,-1299.35 L -13.6448,-1298.92 L -14.0451,-1298.44 L -14.3815,-1297.91 L -14.6489,-1297.34 L -14.8429,-1296.74
 L -14.9606,-1296.13 L -15,-1295.5 L -15,-1140.5 L -14.9606,-1139.87 L -14.8429,-1139.26 L -14.6489,-1138.66
 L -14.3815,-1138.09 L -14.0451,-1137.56 L -13.6448,-1137.08 L -13.1871,-1136.65 L -12.6791,-1136.28 L -12.1289,-1135.98
 L -11.5451,-1135.74 L -10.9369,-1135.59 L -10.3139,-1135.51 L 10.3139,-1135.51 z
M -9.75116,-1137.01 L -10.2495,-1137.07 L -10.7361,-1137.2 L -11.2031,-1137.38 L -11.6433,-1137.62 L -12.0497,-1137.92
 L -12.4159,-1138.26 L -12.7361,-1138.65 L -13.0052,-1139.07 L -13.2191,-1139.53 L -13.3743,-1140.01 L -13.4684,-1140.5
 L -13.5,-1141 L -13.5,-1295 L -13.4684,-1295.5 L -13.3743,-1295.99 L -13.2191,-1296.47 L -13.0052,-1296.93
 L -12.7361,-1297.35 L -12.4159,-1297.74 L -12.0497,-1298.08 L -11.6433,-1298.38 L -11.2031,-1298.62 L -10.7361,-1298.8
 L -10.2495,-1298.93 L -9.75116,-1298.99 L 9.75116,-1298.99 L 10.2495,-1298.93 L 10.7361,-1298.8 L 11.2031,-1298.62
 L 11.6433,-1298.38 L 12.0497,-1298.08 L 12.4159,-1297.74 L 12.7361,-1297.35 L 13.0052,-1296.93 L 13.2191,-1296.47
 L 13.3743,-1295.99 L 13.4684,-1295.5 L 13.5,-1295 L 13.5,-1141 L 13.4684,-1140.5 L 13.3743,-1140.01
 L 13.2191,-1139.53 L 13.0052,-1139.07 L 12.7361,-1138.65 L 12.4159,-1138.26 L 12.0497,-1137.92 L 11.6433,-1137.62
 L 11.2031,-1137.38 L 10.7361,-1137.2 L 10.2495,-1137.07 L 9.75116,-1137.01 z
M 10.9369,-961.589 L 11.5451,-961.745 L 12.1289,-961.976 L 12.6791,-962.278 L 13.1871,-962.647 L 13.6448,-963.077
 L 14.0451,-963.561 L 14.3815,-964.091 L 14.6489,-964.659 L 14.8429,-965.257 L 14.9606,-965.873 L 15,-966.5
 L 15,-1121.5 L 14.9606,-1122.13 L 14.8429,-1122.74 L 14.6489,-1123.34 L 14.3815,-1123.91 L 14.0451,-1124.44
 L 13.6448,-1124.92 L 13.1871,-1125.35 L 12.6791,-1125.72 L 12.1289,-1126.02 L 11.5451,-1126.26 L 10.9369,-1126.41
 L 10.3139,-1126.49 L -10.3139,-1126.49 L -10.9369,-1126.41 L -11.5451,-1126.26 L -12.1289,-1126.02 L -12.6791,-1125.72
 L -13.1871,-1125.35 L -13.6448,-1124.92 L -14.0451,-1124.44 L -14.3815,-1123.91 L -14.6489,-1123.34 L -14.8429,-1122.74
 L -14.9606,-1122.13 L -15,-1121.5 L -15,-966.5 L -14.9606,-965.873 L -14.8429,-965.257 L -14.6489,-964.659
 L -14.3815,-964.091 L -14.0451,-963.561 L -13.6448,-963.077 L -13.1871,-962.647 L -12.6791,-962.278 L -12.1289,-961.976
 L -11.5451,-961.745 L -10.9369,-961.589 L -10.3139,-961.51 L 10.3139,-961.51 z
M -9.69545,-963.893 L -10.0833,-963.942 L -10.4619,-964.039 L -10.8254,-964.183 L -11.168,-964.372 L -11.4842,-964.601
 L -11.7692,-964.869 L -12.0184,-965.17 L -12.2279,-965.5 L -12.3943,-965.854 L -12.5151,-966.226 L -12.5884,-966.61
 L -12.6129,-967 L -12.6129,-1121 L -12.5884,-1121.39 L -12.5151,-1121.77 L -12.3943,-1122.15 L -12.2279,-1122.5
 L -12.0184,-1122.83 L -11.7692,-1123.13 L -11.4842,-1123.4 L -11.168,-1123.63 L -10.8254,-1123.82 L -10.4619,-1123.96
 L -10.0833,-1124.06 L -9.69545,-1124.11 L 9.69545,-1124.11 L 10.0833,-1124.06 L 10.4619,-1123.96 L 10.8254,-1123.82
 L 11.168,-1123.63 L 11.4842,-1123.4 L 11.7692,-1123.13 L 12.0184,-1122.83 L 12.2279,-1122.5 L 12.3943,-1122.15
 L 12.5151,-1121.77 L 12.5884,-1121.39 L 12.6129,-1121 L 12.6129,-967 L 12.5884,-966.61 L 12.5151,-966.226
 L 12.3943,-965.854 L 12.2279,-965.5 L 12.0184,-965.17 L 11.7692,-964.869 L 11.4842,-964.601 L 11.168,-964.372
 L 10.8254,-964.183 L 10.4619,-964.039 L 10.0833,-963.942 L 9.69545,-963.893 z
M 10.9369,-787.589 L 11.5451,-787.745 L 12.1289,-787.976 L 12.6791,-788.278 L 13.1871,-788.647 L 13.6448,-789.077
 L 14.0451,-789.561 L 14.3815,-790.091 L 14.6489,-790.659 L 14.8429,-791.257 L 14.9606,-791.873 L 15,-792.5
 L 15,-947.5 L 14.9606,-948.127 L 14.8429,-948.743 L 14.6489,-949.341 L 14.3815,-949.909 L 14.0451,-950.439
 L 13.6448,-950.923 L 13.1871,-951.353 L 12.6791,-951.722 L 12.1289,-952.024 L 11.5451,-952.255 L 10.9369,-952.411
 L 10.3139,-952.49 L -10.3139,-952.49 L -10.9369,-952.411 L -11.5451,-952.255 L -12.1289,-952.024 L -12.6791,-951.722
 L -13.1871,-951.353 L -13.6448,-950.923 L -14.0451,-950.439 L -14.3815,-949.909 L -14.6489,-949.341 L -14.8429,-948.743
 L -14.9606,-948.127 L -15,-947.5 L -15,-792.5 L -14.9606,-791.873 L -14.8429,-791.257 L -14.6489,-790.659
 L -14.3815,-790.091 L -14.0451,-789.561 L -13.6448,-789.077 L -13.1871,-788.647 L -12.6791,-788.278 L -12.1289,-787.976
 L -11.5451,-787.745 L -10.9369,-787.589 L -10.3139,-787.51 L 10.3139,-787.51 z
M 7.36592,-942.869 L 7.09988,-942.903 L 6.84015,-942.969 L 6.59084,-943.068 L 6.35585,-943.197 L 6.1389,-943.355
 L 5.94344,-943.538 L 5.77251,-943.745 L 5.62881,-943.971 L 5.51465,-944.214 L 5.43178,-944.469 L 5.38153,-944.732
 L 5.3647,-945 L 5.38153,-945.268 L 5.43178,-945.531 L 5.51465,-945.786 L 5.62881,-946.029 L 5.77251,-946.255
 L 5.94344,-946.462 L 6.1389,-946.645 L 6.35585,-946.803 L 6.59084,-946.932 L 6.84015,-947.031 L 7.09988,-947.097
 L 7.36592,-947.131 L 7.63406,-947.131 L 7.9001,-947.097 L 8.15984,-947.031 L 8.40915,-946.932 L 8.64413,-946.803
 L 8.86108,-946.645 L 9.05655,-946.462 L 9.22748,-946.255 L 9.37117,-946.029 L 9.48534,-945.786 L 9.56821,-945.531
 L 9.61845,-945.268 L 9.63528,-945 L 9.61845,-944.732 L 9.56821,-944.469 L 9.48534,-944.214 L 9.37117,-943.971
 L 9.22748,-943.745 L 9.05655,-943.538 L 8.86108,-943.355 L 8.64413,-943.197 L 8.40915,-943.068 L 8.15984,-942.969
 L 7.9001,-942.903 L 7.63406,-942.869 z
M -7.63406,-942.869 L -7.9001,-942.903 L -8.15984,-942.969 L -8.40915,-943.068 L -8.64413,-943.197 L -8.86108,-943.355
 L -9.05655,-943.538 L -9.22748,-943.745 L -9.37117,-943.971 L -9.48534,-944.214 L -9.56821,-944.469 L -9.61845,-944.732
 L -9.63528,-945 L -9.61845,-945.268 L -9.56821,-945.531 L -9.48534,-945.786 L -9.37117,-946.029 L -9.22748,-946.255
 L -9.05655,-946.462 L -8.86108,-946.645 L -8.64413,-946.803 L -8.40915,-946.932 L -8.15984,-947.031 L -7.9001,-947.097
 L -7.63406,-947.131 L -7.36592,-947.131 L -7.09988,-947.097 L -6.84015,-947.031 L -6.59084,-946.932 L -6.35585,-946.803
 L -6.1389,-946.645 L -5.94344,-946.462 L -5.77251,-946.255 L -5.62881,-946.029 L -5.51465,-945.786 L -5.43178,-945.531
 L -5.38153,-945.268 L -5.3647,-945 L -5.38153,-944.732 L -5.43178,-944.469 L -5.51465,-944.214 L -5.62881,-943.971
 L -5.77251,-943.745 L -5.94344,-943.538 L -6.1389,-943.355 L -6.35585,-943.197 L -6.59084,-943.068 L -6.84015,-942.969
 L -7.09988,-942.903 L -7.36592,-942.869 z
M 7.36592,-792.869 L 7.09988,-792.903 L 6.84015,-792.969 L 6.59084,-793.068 L 6.35585,-793.197 L 6.1389,-793.355
 L 5.94344,-793.538 L 5.77251,-793.745 L 5.62881,-793.971 L 5.51465,-794.214 L 5.43178,-794.469 L 5.38153,-794.732
 L 5.3647,-795 L 5.38153,-795.268 L 5.43178,-795.531 L 5.51465,-795.786 L 5.62881,-796.029 L 5.77251,-796.255
 L 5.94344,-796.462 L 6.1389,-796.645 L 6.35585,-796.803 L 6.59084,-796.932 L 6.84015,-797.031 L 7.09988,-797.097
 L 7.36592,-797.131 L 7.63406,-797.131 L 7.9001,-797.097 L 8.15984,-797.031 L 8.40915,-796.932 L 8.64413,-796.803
 L 8.86108,-796.645 L 9.05655,-796.462 L 9.22748,-796.255 L 9.37117,-796.029 L 9.48534,-795.786 L 9.56821,-795.531
 L 9.61845,-795.268 L 9.63528,-795 L 9.61845,-794.732 L 9.56821,-794.469 L 9.48534,-794.214 L 9.37117,-793.971
 L 9.22748,-793.745 L 9.05655,-793.538 L 8.86108,-793.355 L 8.64413,-793.197 L 8.40915,-793.068 L 8.15984,-792.969
 L 7.9001,-792.903 L 7.63406,-792.869 z
M -7.63406,-792.869 L -7.9001,-792.903 L -8.15984,-792.969 L -8.40915,-793.068 L -8.64413,-793.197 L -8.86108,-793.355
 L -9.05655,-793.538 L -9.22748,-793.745 L -9.37117,-793.971 L -9.48534,-794.214 L -9.56821,-794.469 L -9.61845,-794.732
 L -9.63528,-795 L -9.61845,-795.268 L -9.56821,-795.531 L -9.48534,-795.786 L -9.37117,-796.029 L -9.22748,-796.255
 L -9.05655,-796.462 L -8.86108,-796.645 L -8.64413,-796.803 L -8.40915,-796.932 L -8.15984,-797.031 L -7.9001,-797.097
 L -7.63406,-797.131 L -7.36592,-797.131 L -7.09988,-797.097 L -6.84015,-797.031 L -6.59084,-796.932 L -6.35585,-796.803
 L -6.1389,-796.645 L -5.94344,-796.462 L -5.77251,-796.255 L -5.62881,-796.029 L -5.51465,-795.786 L -5.43178,-795.531
 L -5.38153,-795.268 L -5.3647,-795 L -5.38153,-794.732 L -5.43178,-794.469 L -5.51465,-794.214 L -5.62881,-793.971
 L -5.77251,-793.745 L -5.94344,-793.538 L -6.1389,-793.355 L -6.35585,-793.197 L -6.59084,-793.068 L -6.84015,-792.969
 L -7.09988,-792.903 L -7.36592,-792.869 z
" stroke="black" fill="lightgray" stroke-width="0.5"/>
</svg>
