<?xml version="1.0" standalone="no"?>
<!DOCTYPE svg PUBLIC "-//W3C//DTD SVG 1.1//EN" "http://www.w3.org/Graphics/SVG/1.1/DTD/svg11.dtd">
<svg width="16mm" height="424mm" viewBox="-8 -644 16 424" xmlns="http://www.w3.org/2000/svg" version="1.1">
<title>OpenSCAD Model</title>
<path d="
M 3.4369,-508.589 L 4.04507,-508.745 L 4.62889,-508.976 L 5.17912,-509.278 L 5.68712,-509.647 L 6.14484,-510.077
 L 6.54507,-510.561 L 6.88153,-511.091 L 7.14888,-511.659 L 7.34291,-512.257 L 7.46057,-512.873 L 7.5,-513.5
 L 7.5,-638.5 L 7.46057,-639.127 L 7.34291,-639.743 L 7.14888,-640.341 L 6.88153,-640.909 L 6.54507,-641.439
 L 6.14484,-641.923 L 5.68712,-642.353 L 5.17912,-642.722 L 4.62889,-643.024 L 4.04507,-643.255 L 3.4369,-643.411
 L 2.81395,-643.49 L -2.81395,-643.49 L -3.4369,-643.411 L -4.04507,-643.255 L -4.62889,-643.024 L -5.17912,-642.722
 L -5.68712,-642.353 L -6.14484,-641.923 L -6.54507,-641.439 L -6.88153,-640.909 L -7.14888,-640.341 L -7.34291,-639.743
 L -7.46057,-639.127 L -7.5,-638.5 L -7.5,-513.5 L -7.46057,-512.873 L -7.34291,-512.257 L -7.14888,-511.659
 L -6.88153,-511.091 L -6.54507,-510.561 L -6.14484,-510.077 L -5.68712,-509.647 L -5.17912,-509.278 L -4.62889,-508.976
 L -4.04507,-508.745 L -3.4369,-508.589 L -2.81395,-508.51 L 2.81395,-508.51 z
M -2.24316,-510.135 L -2.72565,-510.196 L -3.1967,-510.317 L -3.64888,-510.496 L -4.07506,-510.73 L -4.46851,-511.016
 L -4.82301,-511.349 L -5.13301,-511.724 L -5.3936,-512.134 L -5.60068,-512.574 L -5.75096,-513.037 L -5.84209,-513.515
 L -5.87262,-514 L -5.87262,-638 L -5.84209,-638.485 L -5.75096,-638.963 L -5.60068,-639.426 L -5.3936,-639.866
 L -5.13301,-640.276 L -4.82301,-640.651 L -4.46851,-640.984 L -4.07506,-641.27 L -3.64888,-641.504 L -3.1967,-641.683
 L -2.72565,-641.804 L -2.24316,-641.865 L 2.24316,-641.865 L 2.72565,-641.804 L 3.1967,-641.683 L 3.64888,-641.504
 L 4.07506,-641.27 L 4.46851,-640.984 L 4.82301,-640.651 L 5.13301,-640.276 L 5.3936,-639.866 L 5.60068,-639.426
 L 5.75096,-638.963 L 5.84209,-638.485 L 5.87262,-638 L 5.87262,-514 L 5.84209,-513.515 L 5.75096,-513.037
 L 5.60068,-512.574 L 5.3936,-512.134 L 5.13301,-511.724 L 4.82301,-511.349 L 4.46851,-511.016 L 4.07506,-510.73
 L 3.64888,-510.496 L 3.1967,-510.317 L 2.72565,-510.196 L 2.24316,-510.135 z
M 3.4369,-364.589 L 4.04507,-364.745 L 4.62889,-364.976 L 5.17912,-365.278 L 5.68712,-365.647 L 6.14484,-366.077
 L 6.54507,-366.561 L 6.88153,-367.091 L 7.14888,-367.659 L 7.34291,-368.257 L 7.46057,-368.873 L 7.5,-369.5
 L 7.5,-494.5 L 7.46057,-495.127 L 7.34291,-495.743 L 7.14888,-496.341 L 6.88153,-496.909 L 6.54507,-497.439
 L 6.14484,-497.923 L 5.68712,-498.353 L 5.17912,-498.722 L 4.62889,-499.024 L 4.04507,-499.255 L 3.4369,-499.411
 L 2.81395,-499.49 L -2.81395,-499.49 L -3.4369,-499.411 L -4.04507,-499.255 L -4.62889,-499.024 L -5.17912,-498.722
 L -5.68712,-498.353 L -6.14484,-497.923 L -6.54507,-497.439 L -6.88153,-496.909 L -7.14888,-496.341 L -7.34291,-495.743
 L -7.46057,-495.127 L -7.5,-494.5 L -7.5,-369.5 L -7.46057,-368.873 L -7.34291,-368.257 L -7.14888,-367.659
 L -6.88153,-367.091 L -6.54507,-366.561 L -6.14484,-366.077 L -5.68712,-365.647 L -5.17912,-365.278 L -4.62889,-364.976
 L -4.04507,-364.745 L -3.4369,-364.589 L -2.81395,-364.51 L 2.81395,-364.51 z
M 3.4369,-220.589 L 4.04507,-220.745 L 4.62889,-220.976 L 5.17912,-221.278 L 5.68712,-221.647 L 6.14484,-222.077
 L 6.54507,-222.561 L 6.88153,-223.091 L 7.14888,-223.659 L 7.34291,-224.257 L 7.46057,-224.873 L 7.5,-225.5
 L 7.5,-350.5 L 7.46057,-351.127 L 7.34291,-351.743 L 7.14888,-352.341 L 6.88153,-352.909 L 6.54507,-353.439
 L 6.14484,-353.923 L 5.68712,-354.353 L 5.17912,-354.722 L 4.62889,-355.024 L 4.04507,-355.255 L 3.4369,-355.411
 L 2.81395,-355.49 L -2.81395,-355.49 L -3.4369,-355.411 L -4.04507,-355.255 L -4.62889,-355.024 L -5.17912,-354.722
 L -5.68712,-354.353 L -6.14484,-353.923 L -6.54507,-353.439 L -6.88153,-352.909 L -7.14888,-352.341 L -7.34291,-351.743
 L -7.46057,-351.127 L -7.5,-350.5 L -7.5,-225.5 L -7.46057,-224.873 L -7.34291,-224.257 L -7.14888,-223.659
 L -6.88153,-223.091 L -6.54507,-222.561 L -6.14484,-222.077 L -5.68712,-221.647 L -5.17912,-221.278 L -4.62889,-220.976
 L -4.04507,-220.745 L -3.4369,-220.589 L -2.81395,-220.51 L 2.81395,-220.51 z
M -0.113022,-346.204 L -0.33728,-346.232 L -0.556229,-346.288 L -0.766388,-346.371 L -0.964478,-346.48 L -1.14735,-346.613
 L -1.31213,-346.768 L -1.45622,-346.942 L -1.57735,-347.133 L -1.67358,-347.337 L -1.74344,-347.552 L -1.7858,-347.774
 L -1.79999,-348 L -1.7858,-348.226 L -1.74344,-348.448 L -1.67358,-348.663 L -1.57735,-348.867 L -1.45622,-349.058
 L -1.31213,-349.232 L -1.14735,-349.387 L -0.964478,-349.52 L -0.766388,-349.629 L -0.556229,-349.712 L -0.33728,-349.768
 L -0.113022,-349.796 L 0.113022,-349.796 L 0.33728,-349.768 L 0.556229,-349.712 L 0.766388,-349.629 L 0.964478,-349.52
 L 1.14735,-349.387 L 1.31213,-349.232 L 1.45622,-349.058 L 1.57735,-348.867 L 1.67358,-348.663 L 1.74344,-348.448
 L 1.7858,-348.226 L 1.79999,-348 L 1.7858,-347.774 L 1.74344,-347.552 L 1.67358,-347.337 L 1.57735,-347.133
 L 1.45622,-346.942 L 1.31213,-346.768 L 1.14735,-346.613 L 0.964478,-346.48 L 0.766388,-346.371 L 0.556229,-346.288
 L 0.33728,-346.232 L 0.113022,-346.204 z
M -0.113022,-226.204 L -0.33728,-226.232 L -0.556229,-226.288 L -0.766388,-226.371 L -0.964478,-226.48 L -1.14735,-226.613
 L -1.31213,-226.768 L -1.45622,-226.942 L -1.57735,-227.133 L -1.67358,-227.337 L -1.74344,-227.552 L -1.7858,-227.774
 L -1.79999,-228 L -1.7858,-228.226 L -1.74344,-228.448 L -1.67358,-228.663 L -1.57735,-228.867 L -1.45622,-229.058
 L -1.31213,-229.232 L -1.14735,-229.387 L -0.964478,-229.52 L -0.766388,-229.629 L -0.556229,-229.712 L -0.33728,-229.768
 L -0.113022,-229.796 L 0.113022,-229.796 L 0.33728,-229.768 L 0.556229,-229.712 L 0.766388,-229.629 L 0.964478,-229.52
 L 1.14735,-229.387 L 1.31213,-229.232 L 1.45622,-229.058 L 1.57735,-228.867 L 1.67358,-228.663 L 1.74344,-228.448
 L 1.7858,-228.226 L 1.79999,-228 L 1.7858,-227.774 L 1.74344,-227.552 L 1.67358,-227.337 L 1.57735,-227.133
 L 1.45622,-226.942 L 1.31213,-226.768 L 1.14735,-226.613 L 0.964478,-226.48 L 0.766388,-226.371 L 0.556229,-226.288
 L 0.33728,-226.232 L 0.113022,-226.204 z
" stroke="black" fill="lightgray" stroke-width="0.5"/>
</svg>
