<?xml version="1.0" standalone="no"?>
<!DOCTYPE svg PUBLIC "-//W3C//DTD SVG 1.1//EN" "http://www.w3.org/Graphics/SVG/1.1/DTD/svg11.dtd">
<svg width="166mm" height="69mm" viewBox="-83 -132 166 69" xmlns="http://www.w3.org/2000/svg" version="1.1">
<title>OpenSCAD Model</title>
<path d="
M 78.4369,-102.089 L 79.0451,-102.245 L 79.6289,-102.476 L 80.1791,-102.778 L 80.6871,-103.147 L 81.1448,-103.577
 L 81.5451,-104.061 L 81.8815,-104.591 L 82.1489,-105.159 L 82.3429,-105.757 L 82.4606,-106.373 L 82.5,-107
 L 82.5,-127 L 82.4606,-127.627 L 82.3429,-128.243 L 82.1489,-128.841 L 81.8815,-129.409 L 81.5451,-129.939
 L 81.1448,-130.423 L 80.6871,-130.853 L 80.1791,-131.222 L 79.6289,-131.524 L 79.0451,-131.755 L 78.4369,-131.911
 L 77.8139,-131.99 L -77.8139,-131.99 L -78.4369,-131.911 L -79.0451,-131.755 L -79.6289,-131.524 L -80.1791,-131.222
 L -80.6871,-130.853 L -81.1448,-130.423 L -81.5451,-129.939 L -81.8815,-129.409 L -82.1489,-128.841 L -82.3429,-128.243
 L -82.4606,-127.627 L -82.5,-127 L -82.5,-107 L -82.4606,-106.373 L -82.3429,-105.757 L -82.1489,-105.159
 L -81.8815,-104.591 L -81.5451,-104.061 L -81.1448,-103.577 L -80.6871,-103.147 L -80.1791,-102.778 L -79.6289,-102.476
 L -79.0451,-102.245 L -78.4369,-102.089 L -77.8139,-102.01 L 77.8139,-102.01 z
M -77.5375,-102.681 L -78.1079,-102.753 L -78.6648,-102.896 L -79.1994,-103.107 L -79.7032,-103.384 L -80.1684,-103.722
 L -80.5875,-104.116 L -80.954,-104.559 L -81.2621,-105.044 L -81.5069,-105.565 L -81.6846,-106.111 L -81.7923,-106.676
 L -81.8284,-107.25 L -81.8284,-126.75 L -81.7923,-127.324 L -81.6846,-127.889 L -81.5069,-128.435 L -81.2621,-128.956
 L -80.954,-129.441 L -80.5875,-129.884 L -80.1684,-130.278 L -79.7032,-130.616 L -79.1994,-130.893 L -78.6648,-131.104
 L -78.1079,-131.247 L -77.5375,-131.319 L 77.5375,-131.319 L 78.1079,-131.247 L 78.6648,-131.104 L 79.1994,-130.893
 L 79.7032,-130.616 L 80.1684,-130.278 L 80.5875,-129.884 L 80.954,-129.441 L 81.2621,-128.956 L 81.5069,-128.435
 L 81.6846,-127.889 L 81.7923,-127.324 L 81.8284,-126.75 L 81.8284,-107.25 L 81.7923,-106.676 L 81.6846,-106.111
 L 81.5069,-105.565 L 81.2621,-105.044 L 80.954,-104.559 L 80.5875,-104.116 L 80.1684,-103.722 L 79.7032,-103.384
 L 79.1994,-103.107 L 78.6648,-102.896 L 78.1079,-102.753 L 77.5375,-102.681 z
M 78.4369,-63.0886 L 79.0451,-63.2447 L 79.6289,-63.4759 L 80.1791,-63.7784 L 80.6871,-64.1474 L 81.1448,-64.5773
 L 81.5451,-65.0611 L 81.8815,-65.5912 L 82.1489,-66.1594 L 82.3429,-66.7566 L 82.4606,-67.3733 L 82.5,-68
 L 82.5,-88 L 82.4606,-88.6267 L 82.3429,-89.2434 L 82.1489,-89.8406 L 81.8815,-90.4088 L 81.5451,-90.9389
 L 81.1448,-91.4227 L 80.6871,-91.8526 L 80.1791,-92.2216 L 79.6289,-92.5241 L 79.0451,-92.7553 L 78.4369,-92.9114
 L 77.8139,-92.9901 L -77.8139,-92.9901 L -78.4369,-92.9114 L -79.0451,-92.7553 L -79.6289,-92.5241 L -80.1791,-92.2216
 L -80.6871,-91.8526 L -81.1448,-91.4227 L -81.5451,-90.9389 L -81.8815,-90.4088 L -82.1489,-89.8406 L -82.3429,-89.2434
 L -82.4606,-88.6267 L -82.5,-88 L -82.5,-68 L -82.4606,-67.3733 L -82.3429,-66.7566 L -82.1489,-66.1594
 L -81.8815,-65.5912 L -81.5451,-65.0611 L -81.1448,-64.5773 L -80.6871,-64.1474 L -80.1791,-63.7784 L -79.6289,-63.4759
 L -79.0451,-63.2447 L -78.4369,-63.0886 L -77.8139,-63.0099 L 77.8139,-63.0099 z
M -77.3825,-66.1445 L -77.6453,-66.1777 L -77.9019,-66.2436 L -78.1482,-66.3412 L -78.3804,-66.4688 L -78.5947,-66.6245
 L -78.7879,-66.8059 L -78.9567,-67.01 L -79.0987,-67.2337 L -79.2115,-67.4734 L -79.2934,-67.7254 L -79.343,-67.9856
 L -79.3596,-68.25 L -79.3596,-87.75 L -79.343,-88.0144 L -79.2934,-88.2746 L -79.2115,-88.5266 L -79.0987,-88.7663
 L -78.9567,-88.99 L -78.7879,-89.1941 L -78.5947,-89.3755 L -78.3804,-89.5312 L -78.1482,-89.6588 L -77.9019,-89.7564
 L -77.6453,-89.8223 L -77.3825,-89.8555 L 77.3825,-89.8555 L 77.6453,-89.8223 L 77.9019,-89.7564 L 78.1482,-89.6588
 L 78.3804,-89.5312 L 78.5947,-89.3755 L 78.7879,-89.1941 L 78.9567,-88.99 L 79.0987,-88.7663 L 79.2115,-88.5266
 L 79.2934,-88.2746 L 79.343,-88.0144 L 79.3596,-87.75 L 79.3596,-68.25 L 79.343,-67.9856 L 79.2934,-67.7254
 L 79.2115,-67.4734 L 79.0987,-67.2337 L 78.9567,-67.01 L 78.7879,-66.8059 L 78.5947,-66.6245 L 78.3804,-66.4688
 L 78.1482,-66.3412 L 77.9019,-66.2436 L 77.6453,-66.1777 L 77.3825,-66.1445 z
" stroke="black" fill="lightgray" stroke-width="0.5"/>
</svg>
