<?xml version="1.0" standalone="no"?>
<!DOCTYPE svg PUBLIC "-//W3C//DTD SVG 1.1//EN" "http://www.w3.org/Graphics/SVG/1.1/DTD/svg11.dtd">
<svg width="46mm" height="64mm" viewBox="-23 -104 46 64" xmlns="http://www.w3.org/2000/svg" version="1.1">
<title>OpenSCAD Model</title>
<path d="
M 18.4369,-88.5886 L 19.0451,-88.7447 L 19.6289,-88.9759 L 20.1791,-89.2784 L 20.6871,-89.6474 L 21.1448,-90.0773
 L 21.5451,-90.5611 L 21.8815,-91.0912 L 22.1489,-91.6594 L 22.3429,-92.2566 L 22.4606,-92.8733 L 22.5,-93.5
 L 22.5,-98.5 L 22.4606,-99.1267 L 22.3429,-99.7434 L 22.1489,-100.341 L 21.8815,-100.909 L 21.5451,-101.439
 L 21.1448,-101.923 L 20.6871,-102.353 L 20.1791,-102.722 L 19.6289,-103.024 L 19.0451,-103.255 L 18.4369,-103.411
 L 17.8139,-103.49 L -17.8139,-103.49 L -18.4369,-103.411 L -19.0451,-103.255 L -19.6289,-103.024 L -20.1791,-102.722
 L -20.6871,-102.353 L -21.1448,-101.923 L -21.5451,-101.439 L -21.8815,-100.909 L -22.1489,-100.341 L -22.3429,-99.7434
 L -22.4606,-99.1267 L -22.5,-98.5 L -22.5,-93.5 L -22.4606,-92.8733 L -22.3429,-92.2566 L -22.1489,-91.6594
 L -21.8815,-91.0912 L -21.5451,-90.5611 L -21.1448,-90.0773 L -20.6871,-89.6474 L -20.1791,-89.2784 L -19.6289,-88.9759
 L -19.0451,-88.7447 L -18.4369,-88.5886 L -17.8139,-88.5099 L 17.8139,-88.5099 z
M -17.5482,-89.0094 L -18.1401,-89.0841 L -18.7178,-89.2325 L -19.2724,-89.4521 L -19.7952,-89.7395 L -20.2778,-90.0901
 L -20.7126,-90.4984 L -21.0928,-90.958 L -21.4124,-91.4617 L -21.6664,-92.0014 L -21.8508,-92.5687 L -21.9625,-93.1547
 L -22,-93.75 L -22,-98.25 L -21.9625,-98.8453 L -21.8508,-99.4313 L -21.6664,-99.9986 L -21.4124,-100.538
 L -21.0928,-101.042 L -20.7126,-101.502 L -20.2778,-101.91 L -19.7952,-102.261 L -19.2724,-102.548 L -18.7178,-102.768
 L -18.1401,-102.916 L -17.5482,-102.991 L 17.5482,-102.991 L 18.1401,-102.916 L 18.7178,-102.768 L 19.2724,-102.548
 L 19.7952,-102.261 L 20.2778,-101.91 L 20.7126,-101.502 L 21.0928,-101.042 L 21.4124,-100.538 L 21.6664,-99.9986
 L 21.8508,-99.4313 L 21.9625,-98.8453 L 22,-98.25 L 22,-93.75 L 21.9625,-93.1547 L 21.8508,-92.5687
 L 21.6664,-92.0014 L 21.4124,-91.4617 L 21.0928,-90.958 L 20.7126,-90.4984 L 20.2778,-90.0901 L 19.7952,-89.7395
 L 19.2724,-89.4521 L 18.7178,-89.2325 L 18.1401,-89.0841 L 17.5482,-89.0094 z
M 18.4369,-64.5886 L 19.0451,-64.7447 L 19.6289,-64.9759 L 20.1791,-65.2784 L 20.6871,-65.6474 L 21.1448,-66.0773
 L 21.5451,-66.5611 L 21.8815,-67.0912 L 22.1489,-67.6594 L 22.3429,-68.2566 L 22.4606,-68.8733 L 22.5,-69.5
 L 22.5,-74.5 L 22.4606,-75.1267 L 22.3429,-75.7434 L 22.1489,-76.3406 L 21.8815,-76.9088 L 21.5451,-77.4389
 L 21.1448,-77.9227 L 20.6871,-78.3526 L 20.1791,-78.7216 L 19.6289,-79.0241 L 19.0451,-79.2553 L 18.4369,-79.4114
 L 17.8139,-79.4901 L -17.8139,-79.4901 L -18.4369,-79.4114 L -19.0451,-79.2553 L -19.6289,-79.0241 L -20.1791,-78.7216
 L -20.6871,-78.3526 L -21.1448,-77.9227 L -21.5451,-77.4389 L -21.8815,-76.9088 L -22.1489,-76.3406 L -22.3429,-75.7434
 L -22.4606,-75.1267 L -22.5,-74.5 L -22.5,-69.5 L -22.4606,-68.8733 L -22.3429,-68.2566 L -22.1489,-67.6594
 L -21.8815,-67.0912 L -21.5451,-66.5611 L -21.1448,-66.0773 L -20.6871,-65.6474 L -20.1791,-65.2784 L -19.6289,-64.9759
 L -19.0451,-64.7447 L -18.4369,-64.5886 L -17.8139,-64.5099 L 17.8139,-64.5099 z
M -17.493,-65.8882 L -17.9751,-65.9491 L -18.4457,-66.0699 L -18.8975,-66.2488 L -19.3234,-66.4829 L -19.7165,-66.7685
 L -20.0707,-67.1012 L -20.3805,-67.4756 L -20.6408,-67.8859 L -20.8477,-68.3256 L -20.9979,-68.7877 L -21.089,-69.265
 L -21.1195,-69.75 L -21.1195,-74.25 L -21.089,-74.735 L -20.9979,-75.2123 L -20.8477,-75.6744 L -20.6408,-76.1141
 L -20.3805,-76.5244 L -20.0707,-76.8988 L -19.7165,-77.2315 L -19.3234,-77.5171 L -18.8975,-77.7512 L -18.4457,-77.9301
 L -17.9751,-78.0509 L -17.493,-78.1118 L 17.493,-78.1118 L 17.9751,-78.0509 L 18.4457,-77.9301 L 18.8975,-77.7512
 L 19.3234,-77.5171 L 19.7165,-77.2315 L 20.0707,-76.8988 L 20.3805,-76.5244 L 20.6408,-76.1141 L 20.8477,-75.6744
 L 20.9979,-75.2123 L 21.089,-74.735 L 21.1195,-74.25 L 21.1195,-69.75 L 21.089,-69.265 L 20.9979,-68.7877
 L 20.8477,-68.3256 L 20.6408,-67.8859 L 20.3805,-67.4756 L 20.0707,-67.1012 L 19.7165,-66.7685 L 19.3234,-66.4829
 L 18.8975,-66.2488 L 18.4457,-66.0699 L 17.9751,-65.9491 L 17.493,-65.8882 z
M 18.4369,-40.5886 L 19.0451,-40.7447 L 19.6289,-40.9759 L 20.1791,-41.2784 L 20.6871,-41.6474 L 21.1448,-42.0773
 L 21.5451,-42.5611 L 21.8815,-43.0912 L 22.1489,-43.6594 L 22.3429,-44.2566 L 22.4606,-44.8733 L 22.5,-45.5
 L 22.5,-50.5 L 22.4606,-51.1267 L 22.3429,-51.7434 L 22.1489,-52.3406 L 21.8815,-52.9088 L 21.5451,-53.4389
 L 21.1448,-53.9227 L 20.6871,-54.3526 L 20.1791,-54.7216 L 19.6289,-55.0241 L 19.0451,-55.2553 L 18.4369,-55.4114
 L 17.8139,-55.4901 L -17.8139,-55.4901 L -18.4369,-55.4114 L -19.0451,-55.2553 L -19.6289,-55.0241 L -20.1791,-54.7216
 L -20.6871,-54.3526 L -21.1448,-53.9227 L -21.5451,-53.4389 L -21.8815,-52.9088 L -22.1489,-52.3406 L -22.3429,-51.7434
 L -22.4606,-51.1267 L -22.5,-50.5 L -22.5,-45.5 L -22.4606,-44.8733 L -22.3429,-44.2566 L -22.1489,-43.6594
 L -21.8815,-43.0912 L -21.5451,-42.5611 L -21.1448,-42.0773 L -20.6871,-41.6474 L -20.1791,-41.2784 L -19.6289,-40.9759
 L -19.0451,-40.7447 L -18.4369,-40.5886 L -17.8139,-40.5099 L 17.8139,-40.5099 z
M -15.113,-46.2036 L -15.3373,-46.2319 L -15.5562,-46.2881 L -15.7664,-46.3713 L -15.9645,-46.4802 L -16.1474,-46.6131
 L -16.3121,-46.7678 L -16.4562,-46.942 L -16.5773,-47.1329 L -16.6736,-47.3374 L -16.7434,-47.5524 L -16.7858,-47.7744
 L -16.8,-48 L -16.7858,-48.2256 L -16.7434,-48.4476 L -16.6736,-48.6626 L -16.5773,-48.8671 L -16.4562,-49.058
 L -16.3121,-49.2322 L -16.1474,-49.3869 L -15.9645,-49.5198 L -15.7664,-49.6287 L -15.5562,-49.7119 L -15.3373,-49.7681
 L -15.113,-49.7964 L -14.887,-49.7964 L -14.6627,-49.7681 L -14.4438,-49.7119 L -14.2336,-49.6287 L -14.0355,-49.5198
 L -13.8526,-49.3869 L -13.6879,-49.2322 L -13.5438,-49.058 L -13.4226,-48.8671 L -13.3264,-48.6626 L -13.2565,-48.4476
 L -13.2142,-48.2256 L -13.2,-48 L -13.2142,-47.7744 L -13.2565,-47.5524 L -13.3264,-47.3374 L -13.4226,-47.1329
 L -13.5438,-46.942 L -13.6879,-46.7678 L -13.8526,-46.6131 L -14.0355,-46.4802 L -14.2336,-46.3713 L -14.4438,-46.2881
 L -14.6627,-46.2319 L -14.887,-46.2036 z
M 14.887,-46.2036 L 14.6627,-46.2319 L 14.4438,-46.2881 L 14.2336,-46.3713 L 14.0355,-46.4802 L 13.8526,-46.6131
 L 13.6879,-46.7678 L 13.5438,-46.942 L 13.4226,-47.1329 L 13.3264,-47.3374 L 13.2565,-47.5524 L 13.2142,-47.7744
 L 13.2,-48 L 13.2142,-48.2256 L 13.2565,-48.4476 L 13.3264,-48.6626 L 13.4226,-48.8671 L 13.5438,-49.058
 L 13.6879,-49.2322 L 13.8526,-49.3869 L 14.0355,-49.5198 L 14.2336,-49.6287 L 14.4438,-49.7119 L 14.6627,-49.7681
 L 14.887,-49.7964 L 15.113,-49.7964 L 15.3373,-49.7681 L 15.5562,-49.7119 L 15.7664,-49.6287 L 15.9645,-49.5198
 L 16.1474,-49.3869 L 16.3121,-49.2322 L 16.4562,-49.058 L 16.5773,-48.8671 L 16.6736,-48.6626 L 16.7434,-48.4476
 L 16.7858,-48.2256 L 16.8,-48 L 16.7858,-47.7744 L 16.7434,-47.5524 L 16.6736,-47.3374 L 16.5773,-47.1329
 L 16.4562,-46.942 L 16.3121,-46.7678 L 16.1474,-46.6131 L 15.9645,-46.4802 L 15.7664,-46.3713 L 15.5562,-46.2881
 L 15.3373,-46.2319 L 15.113,-46.2036 z
" stroke="black" fill="lightgray" stroke-width="0.5"/>
</svg>
