<?xml version="1.0" standalone="no"?>
<!DOCTYPE svg PUBLIC "-//W3C//DTD SVG 1.1//EN" "http://www.w3.org/Graphics/SVG/1.1/DTD/svg11.dtd">
<svg width="16mm" height="412mm" viewBox="-8 -794 16 412" xmlns="http://www.w3.org/2000/svg" version="1.1">
<title>OpenSCAD Model</title>
<path d="
M 3.4369,-718.589 L 4.04507,-718.745 L 4.62889,-718.976 L 5.17912,-719.278 L 5.68712,-719.647 L 6.14484,-720.077
 L 6.54507,-720.561 L 6.88153,-721.091 L 7.14888,-721.659 L 7.34291,-722.257 L 7.46057,-722.873 L 7.5,-723.5
 L 7.5,-788.5 L 7.46057,-789.127 L 7.34291,-789.743 L 7.14888,-790.341 L 6.88153,-790.909 L 6.54507,-791.439
 L 6.14484,-791.923 L 5.68712,-792.353 L 5.17912,-792.722 L 4.62889,-793.024 L 4.04507,-793.255 L 3.4369,-793.411
 L 2.81395,-793.49 L -2.81395,-793.49 L -3.4369,-793.411 L -4.04507,-793.255 L -4.62889,-793.024 L -5.17912,-792.722
 L -5.68712,-792.353 L -6.14484,-791.923 L -6.54507,-791.439 L -6.88153,-790.909 L -7.14888,-790.341 L -7.34291,-789.743
 L -7.46057,-789.127 L -7.5,-788.5 L -7.5,-723.5 L -7.46057,-722.873 L -7.34291,-722.257 L -7.14888,-721.659
 L -6.88153,-721.091 L -6.54507,-720.561 L -6.14484,-720.077 L -5.68712,-719.647 L -5.17912,-719.278 L -4.62889,-718.976
 L -4.04507,-718.745 L -3.4369,-718.589 L -2.81395,-718.51 L 2.81395,-718.51 z
M -2.25116,-720.008 L -2.74951,-720.071 L -3.23605,-720.196 L -3.70311,-720.381 L -4.1433,-720.623 L -4.54968,-720.918
 L -4.91586,-721.262 L -5.23605,-721.649 L -5.50522,-722.073 L -5.7191,-722.528 L -5.87433,-723.005 L -5.96844,-723.499
 L -6,-724 L -6,-788 L -5.96844,-788.501 L -5.87433,-788.995 L -5.7191,-789.472 L -5.50522,-789.927
 L -5.23605,-790.351 L -4.91586,-790.738 L -4.54968,-791.082 L -4.1433,-791.377 L -3.70311,-791.619 L -3.23605,-791.804
 L -2.74951,-791.929 L -2.25116,-791.992 L 2.25116,-791.992 L 2.74951,-791.929 L 3.23605,-791.804 L 3.70311,-791.619
 L 4.1433,-791.377 L 4.54968,-791.082 L 4.91586,-790.738 L 5.23605,-790.351 L 5.50522,-789.927 L 5.7191,-789.472
 L 5.87433,-788.995 L 5.96844,-788.501 L 6,-788 L 6,-724 L 5.96844,-723.499 L 5.87433,-723.005
 L 5.7191,-722.528 L 5.50522,-722.073 L 5.23605,-721.649 L 4.91586,-721.262 L 4.54968,-720.918 L 4.1433,-720.623
 L 3.70311,-720.381 L 3.23605,-720.196 L 2.74951,-720.071 L 2.25116,-720.008 z
M 3.4369,-634.589 L 4.04507,-634.745 L 4.62889,-634.976 L 5.17912,-635.278 L 5.68712,-635.647 L 6.14484,-636.077
 L 6.54507,-636.561 L 6.88153,-637.091 L 7.14888,-637.659 L 7.34291,-638.257 L 7.46057,-638.873 L 7.5,-639.5
 L 7.5,-704.5 L 7.46057,-705.127 L 7.34291,-705.743 L 7.14888,-706.341 L 6.88153,-706.909 L 6.54507,-707.439
 L 6.14484,-707.923 L 5.68712,-708.353 L 5.17912,-708.722 L 4.62889,-709.024 L 4.04507,-709.255 L 3.4369,-709.411
 L 2.81395,-709.49 L -2.81395,-709.49 L -3.4369,-709.411 L -4.04507,-709.255 L -4.62889,-709.024 L -5.17912,-708.722
 L -5.68712,-708.353 L -6.14484,-707.923 L -6.54507,-707.439 L -6.88153,-706.909 L -7.14888,-706.341 L -7.34291,-705.743
 L -7.46057,-705.127 L -7.5,-704.5 L -7.5,-639.5 L -7.46057,-638.873 L -7.34291,-638.257 L -7.14888,-637.659
 L -6.88153,-637.091 L -6.54507,-636.561 L -6.14484,-636.077 L -5.68712,-635.647 L -5.17912,-635.278 L -4.62889,-634.976
 L -4.04507,-634.745 L -3.4369,-634.589 L -2.81395,-634.51 L 2.81395,-634.51 z
M -2.25116,-636.008 L -2.74951,-636.071 L -3.23605,-636.196 L -3.70311,-636.381 L -4.1433,-636.623 L -4.54968,-636.918
 L -4.91586,-637.262 L -5.23605,-637.649 L -5.50522,-638.073 L -5.7191,-638.528 L -5.87433,-639.005 L -5.96844,-639.499
 L -6,-640 L -6,-704 L -5.96844,-704.501 L -5.87433,-704.995 L -5.7191,-705.472 L -5.50522,-705.927
 L -5.23605,-706.351 L -4.91586,-706.738 L -4.54968,-707.082 L -4.1433,-707.377 L -3.70311,-707.619 L -3.23605,-707.804
 L -2.74951,-707.929 L -2.25116,-707.992 L 2.25116,-707.992 L 2.74951,-707.929 L 3.23605,-707.804 L 3.70311,-707.619
 L 4.1433,-707.377 L 4.54968,-707.082 L 4.91586,-706.738 L 5.23605,-706.351 L 5.50522,-705.927 L 5.7191,-705.472
 L 5.87433,-704.995 L 5.96844,-704.501 L 6,-704 L 6,-640 L 5.96844,-639.499 L 5.87433,-639.005
 L 5.7191,-638.528 L 5.50522,-638.073 L 5.23605,-637.649 L 4.91586,-637.262 L 4.54968,-636.918 L 4.1433,-636.623
 L 3.70311,-636.381 L 3.23605,-636.196 L 2.74951,-636.071 L 2.25116,-636.008 z
M 3.4369,-550.589 L 4.04507,-550.745 L 4.62889,-550.976 L 5.17912,-551.278 L 5.68712,-551.647 L 6.14484,-552.077
 L 6.54507,-552.561 L 6.88153,-553.091 L 7.14888,-553.659 L 7.34291,-554.257 L 7.46057,-554.873 L 7.5,-555.5
 L 7.5,-620.5 L 7.46057,-621.127 L 7.34291,-621.743 L 7.14888,-622.341 L 6.88153,-622.909 L 6.54507,-623.439
 L 6.14484,-623.923 L 5.68712,-624.353 L 5.17912,-624.722 L 4.62889,-625.024 L 4.04507,-625.255 L 3.4369,-625.411
 L 2.81395,-625.49 L -2.81395,-625.49 L -3.4369,-625.411 L -4.04507,-625.255 L -4.62889,-625.024 L -5.17912,-624.722
 L -5.68712,-624.353 L -6.14484,-623.923 L -6.54507,-623.439 L -6.88153,-622.909 L -7.14888,-622.341 L -7.34291,-621.743
 L -7.46057,-621.127 L -7.5,-620.5 L -7.5,-555.5 L -7.46057,-554.873 L -7.34291,-554.257 L -7.14888,-553.659
 L -6.88153,-553.091 L -6.54507,-552.561 L -6.14484,-552.077 L -5.68712,-551.647 L -5.17912,-551.278 L -4.62889,-550.976
 L -4.04507,-550.745 L -3.4369,-550.589 L -2.81395,-550.51 L 2.81395,-550.51 z
M -2.25116,-552.008 L -2.74951,-552.071 L -3.23605,-552.196 L -3.70311,-552.381 L -4.1433,-552.623 L -4.54968,-552.918
 L -4.91586,-553.262 L -5.23605,-553.649 L -5.50522,-554.073 L -5.7191,-554.528 L -5.87433,-555.005 L -5.96844,-555.499
 L -6,-556 L -6,-620 L -5.96844,-620.501 L -5.87433,-620.995 L -5.7191,-621.472 L -5.50522,-621.927
 L -5.23605,-622.351 L -4.91586,-622.738 L -4.54968,-623.082 L -4.1433,-623.377 L -3.70311,-623.619 L -3.23605,-623.804
 L -2.74951,-623.929 L -2.25116,-623.992 L 2.25116,-623.992 L 2.74951,-623.929 L 3.23605,-623.804 L 3.70311,-623.619
 L 4.1433,-623.377 L 4.54968,-623.082 L 4.91586,-622.738 L 5.23605,-622.351 L 5.50522,-621.927 L 5.7191,-621.472
 L 5.87433,-620.995 L 5.96844,-620.501 L 6,-620 L 6,-556 L 5.96844,-555.499 L 5.87433,-555.005
 L 5.7191,-554.528 L 5.50522,-554.073 L 5.23605,-553.649 L 4.91586,-553.262 L 4.54968,-552.918 L 4.1433,-552.623
 L 3.70311,-552.381 L 3.23605,-552.196 L 2.74951,-552.071 L 2.25116,-552.008 z
M 3.4369,-466.589 L 4.04507,-466.745 L 4.62889,-466.976 L 5.17912,-467.278 L 5.68712,-467.647 L 6.14484,-468.077
 L 6.54507,-468.561 L 6.88153,-469.091 L 7.14888,-469.659 L 7.34291,-470.257 L 7.46057,-470.873 L 7.5,-471.5
 L 7.5,-536.5 L 7.46057,-537.127 L 7.34291,-537.743 L 7.14888,-538.341 L 6.88153,-538.909 L 6.54507,-539.439
 L 6.14484,-539.923 L 5.68712,-540.353 L 5.17912,-540.722 L 4.62889,-541.024 L 4.04507,-541.255 L 3.4369,-541.411
 L 2.81395,-541.49 L -2.81395,-541.49 L -3.4369,-541.411 L -4.04507,-541.255 L -4.62889,-541.024 L -5.17912,-540.722
 L -5.68712,-540.353 L -6.14484,-539.923 L -6.54507,-539.439 L -6.88153,-538.909 L -7.14888,-538.341 L -7.34291,-537.743
 L -7.46057,-537.127 L -7.5,-536.5 L -7.5,-471.5 L -7.46057,-470.873 L -7.34291,-470.257 L -7.14888,-469.659
 L -6.88153,-469.091 L -6.54507,-468.561 L -6.14484,-468.077 L -5.68712,-467.647 L -5.17912,-467.278 L -4.62889,-466.976
 L -4.04507,-466.745 L -3.4369,-466.589 L -2.81395,-466.51 L 2.81395,-466.51 z
M -2.19545,-468.893 L -2.5833,-468.942 L -2.96194,-469.039 L -3.32541,-469.183 L -3.66798,-469.372 L -3.98424,-469.601
 L -4.26921,-469.869 L -4.5184,-470.17 L -4.72786,-470.5 L -4.89432,-470.854 L -5.01512,-471.226 L -5.08836,-471.61
 L -5.11292,-472 L -5.11292,-536 L -5.08836,-536.39 L -5.01512,-536.774 L -4.89432,-537.146 L -4.72786,-537.5
 L -4.5184,-537.83 L -4.26921,-538.131 L -3.98424,-538.399 L -3.66798,-538.628 L -3.32541,-538.817 L -2.96194,-538.961
 L -2.5833,-539.058 L -2.19545,-539.107 L 2.19545,-539.107 L 2.5833,-539.058 L 2.96194,-538.961 L 3.32541,-538.817
 L 3.66798,-538.628 L 3.98424,-538.399 L 4.26921,-538.131 L 4.5184,-537.83 L 4.72786,-537.5 L 4.89432,-537.146
 L 5.01512,-536.774 L 5.08836,-536.39 L 5.11292,-536 L 5.11292,-472 L 5.08836,-471.61 L 5.01512,-471.226
 L 4.89432,-470.854 L 4.72786,-470.5 L 4.5184,-470.17 L 4.26921,-469.869 L 3.98424,-469.601 L 3.66798,-469.372
 L 3.32541,-469.183 L 2.96194,-469.039 L 2.5833,-468.942 L 2.19545,-468.893 z
M 3.4369,-382.589 L 4.04507,-382.745 L 4.62889,-382.976 L 5.17912,-383.278 L 5.68712,-383.647 L 6.14484,-384.077
 L 6.54507,-384.561 L 6.88153,-385.091 L 7.14888,-385.659 L 7.34291,-386.257 L 7.46057,-386.873 L 7.5,-387.5
 L 7.5,-452.5 L 7.46057,-453.127 L 7.34291,-453.743 L 7.14888,-454.341 L 6.88153,-454.909 L 6.54507,-455.439
 L 6.14484,-455.923 L 5.68712,-456.353 L 5.17912,-456.722 L 4.62889,-457.024 L 4.04507,-457.255 L 3.4369,-457.411
 L 2.81395,-457.49 L -2.81395,-457.49 L -3.4369,-457.411 L -4.04507,-457.255 L -4.62889,-457.024 L -5.17912,-456.722
 L -5.68712,-456.353 L -6.14484,-455.923 L -6.54507,-455.439 L -6.88153,-454.909 L -7.14888,-454.341 L -7.34291,-453.743
 L -7.46057,-453.127 L -7.5,-452.5 L -7.5,-387.5 L -7.46057,-386.873 L -7.34291,-386.257 L -7.14888,-385.659
 L -6.88153,-385.091 L -6.54507,-384.561 L -6.14484,-384.077 L -5.68712,-383.647 L -5.17912,-383.278 L -4.62889,-382.976
 L -4.04507,-382.745 L -3.4369,-382.589 L -2.81395,-382.51 L 2.81395,-382.51 z
M -0.134064,-447.869 L -0.400101,-447.903 L -0.659836,-447.969 L -0.909149,-448.068 L -1.14413,-448.197 L -1.36108,-448.355
 L -1.55655,-448.538 L -1.72748,-448.745 L -1.87117,-448.971 L -1.98534,-449.214 L -2.06821,-449.469 L -2.11845,-449.732
 L -2.13528,-450 L -2.11845,-450.268 L -2.06821,-450.531 L -1.98534,-450.786 L -1.87117,-451.029 L -1.72748,-451.255
 L -1.55655,-451.462 L -1.36108,-451.645 L -1.14413,-451.803 L -0.909149,-451.932 L -0.659836,-452.031 L -0.400101,-452.097
 L -0.134064,-452.131 L 0.134064,-452.131 L 0.400101,-452.097 L 0.659836,-452.031 L 0.909149,-451.932 L 1.14413,-451.803
 L 1.36108,-451.645 L 1.55655,-451.462 L 1.72748,-451.255 L 1.87117,-451.029 L 1.98534,-450.786 L 2.06821,-450.531
 L 2.11845,-450.268 L 2.13528,-450 L 2.11845,-449.732 L 2.06821,-449.469 L 1.98534,-449.214 L 1.87117,-448.971
 L 1.72748,-448.745 L 1.55655,-448.538 L 1.36108,-448.355 L 1.14413,-448.197 L 0.909149,-448.068 L 0.659836,-447.969
 L 0.400101,-447.903 L 0.134064,-447.869 z
M -0.134064,-387.869 L -0.400101,-387.903 L -0.659836,-387.969 L -0.909149,-388.068 L -1.14413,-388.197 L -1.36108,-388.355
 L -1.55655,-388.538 L -1.72748,-388.745 L -1.87117,-388.971 L -1.98534,-389.214 L -2.06821,-389.469 L -2.11845,-389.732
 L -2.13528,-390 L -2.11845,-390.268 L -2.06821,-390.531 L -1.98534,-390.786 L -1.87117,-391.029 L -1.72748,-391.255
 L -1.55655,-391.462 L -1.36108,-391.645 L -1.14413,-391.803 L -0.909149,-391.932 L -0.659836,-392.031 L -0.400101,-392.097
 L -0.134064,-392.131 L 0.134064,-392.131 L 0.400101,-392.097 L 0.659836,-392.031 L 0.909149,-391.932 L 1.14413,-391.803
 L 1.36108,-391.645 L 1.55655,-391.462 L 1.72748,-391.255 L 1.87117,-391.029 L 1.98534,-390.786 L 2.06821,-390.531
 L 2.11845,-390.268 L 2.13528,-390 L 2.11845,-389.732 L 2.06821,-389.469 L 1.98534,-389.214 L 1.87117,-388.971
 L 1.72748,-388.745 L 1.55655,-388.538 L 1.36108,-388.355 L 1.14413,-388.197 L 0.909149,-388.068 L 0.659836,-387.969
 L 0.400101,-387.903 L 0.134064,-387.869 z
" stroke="black" fill="lightgray" stroke-width="0.5"/>
</svg>
