  0
SECTION
  2
BLOCKS
  0
ENDSEC
  0
SECTION
  2
ENTITIES
  0
LINE
  8
0
 10
-21
 20
181.441
 11
-20.6871
 21
181.147
  0
LINE
  8
0
 10
-20.6871
 20
181.147
 11
-20.1791
 21
180.778
  0
LINE
  8
0
 10
-20.1791
 20
180.778
 11
-19.6289
 21
180.476
  0
LINE
  8
0
 10
-19.6289
 20
180.476
 11
-19.0451
 21
180.245
  0
LINE
  8
0
 10
-19.0451
 20
180.245
 11
-18.4369
 21
180.089
  0
LINE
  8
0
 10
-18.4369
 20
180.089
 11
-17.8139
 21
180.01
  0
LINE
  8
0
 10
-17.8139
 20
180.01
 11
17.8139
 21
180.01
  0
LINE
  8
0
 10
17.8139
 20
180.01
 11
18.4369
 21
180.089
  0
LINE
  8
0
 10
18.4369
 20
180.089
 11
19.0451
 21
180.245
  0
LINE
  8
0
 10
19.0451
 20
180.245
 11
19.6289
 21
180.476
  0
LINE
  8
0
 10
19.6289
 20
180.476
 11
20.1791
 21
180.778
  0
LINE
  8
0
 10
20.1791
 20
180.778
 11
20.6871
 21
181.147
  0
LINE
  8
0
 10
20.6871
 20
181.147
 11
21.1448
 21
181.577
  0
LINE
  8
0
 10
21.1448
 20
181.577
 11
21.5451
 21
182.061
  0
LINE
  8
0
 10
21.5451
 20
182.061
 11
21.8815
 21
182.591
  0
LINE
  8
0
 10
21.8815
 20
182.591
 11
22.1489
 21
183.159
  0
LINE
  8
0
 10
22.1489
 20
183.159
 11
22.3429
 21
183.757
  0
LINE
  8
0
 10
22.3429
 20
183.757
 11
22.4606
 21
184.373
  0
LINE
  8
0
 10
22.4606
 20
184.373
 11
22.5
 21
185
  0
LINE
  8
0
 10
22.5
 20
185
 11
22.5
 21
205
  0
LINE
  8
0
 10
22.5
 20
205
 11
22.4606
 21
205.627
  0
LINE
  8
0
 10
22.4606
 20
205.627
 11
22.3429
 21
206.243
  0
LINE
  8
0
 10
22.3429
 20
206.243
 11
22.1489
 21
206.841
  0
LINE
  8
0
 10
22.1489
 20
206.841
 11
21.8815
 21
207.409
  0
LINE
  8
0
 10
21.8815
 20
207.409
 11
21.5451
 21
207.939
  0
LINE
  8
0
 10
21.5451
 20
207.939
 11
21.1448
 21
208.423
  0
LINE
  8
0
 10
21.1448
 20
208.423
 11
20.6871
 21
208.853
  0
LINE
  8
0
 10
20.6871
 20
208.853
 11
20.1791
 21
209.222
  0
LINE
  8
0
 10
20.1791
 20
209.222
 11
19.6289
 21
209.524
  0
LINE
  8
0
 10
19.6289
 20
209.524
 11
19.0451
 21
209.755
  0
LINE
  8
0
 10
19.0451
 20
209.755
 11
18.4369
 21
209.911
  0
LINE
  8
0
 10
18.4369
 20
209.911
 11
17.8139
 21
209.99
  0
LINE
  8
0
 10
17.8139
 20
209.99
 11
-17.8139
 21
209.99
  0
LINE
  8
0
 10
-17.8139
 20
209.99
 11
-18.4369
 21
209.911
  0
LINE
  8
0
 10
-18.4369
 20
209.911
 11
-19.0451
 21
209.755
  0
LINE
  8
0
 10
-19.0451
 20
209.755
 11
-19.6289
 21
209.524
  0
LINE
  8
0
 10
-19.6289
 20
209.524
 11
-20.1791
 21
209.222
  0
LINE
  8
0
 10
-20.1791
 20
209.222
 11
-20.6871
 21
208.853
  0
LINE
  8
0
 10
-20.6871
 20
208.853
 11
-21
 21
208.559
  0
LINE
  8
0
 10
-21
 20
208.559
 11
-21
 21
209.99
  0
LINE
  8
0
 10
-21
 20
209.99
 11
-24
 21
209.99
  0
LINE
  8
0
 10
-24
 20
209.99
 11
-24
 21
180.01
  0
LINE
  8
0
 10
-24
 20
180.01
 11
-21
 21
180.01
  0
LINE
  8
0
 10
-21
 20
180.01
 11
-21
 21
181.441
  0
LINE
  8
0
 10
-17.2512
 20
181.508
 11
-17.7495
 21
181.571
  0
LINE
  8
0
 10
-17.7495
 20
181.571
 11
-18.2361
 21
181.696
  0
LINE
  8
0
 10
-18.2361
 20
181.696
 11
-18.7031
 21
181.881
  0
LINE
  8
0
 10
-18.7031
 20
181.881
 11
-19.1433
 21
182.123
  0
LINE
  8
0
 10
-19.1433
 20
182.123
 11
-19.5497
 21
182.418
  0
LINE
  8
0
 10
-19.5497
 20
182.418
 11
-19.9159
 21
182.762
  0
LINE
  8
0
 10
-19.9159
 20
182.762
 11
-20.2361
 21
183.149
  0
LINE
  8
0
 10
-20.2361
 20
183.149
 11
-20.5052
 21
183.573
  0
LINE
  8
0
 10
-20.5052
 20
183.573
 11
-20.7191
 21
184.028
  0
LINE
  8
0
 10
-20.7191
 20
184.028
 11
-20.8743
 21
184.505
  0
LINE
  8
0
 10
-20.8743
 20
184.505
 11
-20.9684
 21
184.999
  0
LINE
  8
0
 10
-20.9684
 20
184.999
 11
-21
 21
185.5
  0
LINE
  8
0
 10
-21
 20
185.5
 11
-21
 21
204.5
  0
LINE
  8
0
 10
-21
 20
204.5
 11
-20.9684
 21
205.001
  0
LINE
  8
0
 10
-20.9684
 20
205.001
 11
-20.8743
 21
205.495
  0
LINE
  8
0
 10
-20.8743
 20
205.495
 11
-20.7191
 21
205.972
  0
LINE
  8
0
 10
-20.7191
 20
205.972
 11
-20.5052
 21
206.427
  0
LINE
  8
0
 10
-20.5052
 20
206.427
 11
-20.2361
 21
206.851
  0
LINE
  8
0
 10
-20.2361
 20
206.851
 11
-19.9159
 21
207.238
  0
LINE
  8
0
 10
-19.9159
 20
207.238
 11
-19.5497
 21
207.582
  0
LINE
  8
0
 10
-19.5497
 20
207.582
 11
-19.1433
 21
207.877
  0
LINE
  8
0
 10
-19.1433
 20
207.877
 11
-18.7031
 21
208.119
  0
LINE
  8
0
 10
-18.7031
 20
208.119
 11
-18.2361
 21
208.304
  0
LINE
  8
0
 10
-18.2361
 20
208.304
 11
-17.7495
 21
208.429
  0
LINE
  8
0
 10
-17.7495
 20
208.429
 11
-17.2512
 21
208.492
  0
LINE
  8
0
 10
-17.2512
 20
208.492
 11
17.2512
 21
208.492
  0
LINE
  8
0
 10
17.2512
 20
208.492
 11
17.7495
 21
208.429
  0
LINE
  8
0
 10
17.7495
 20
208.429
 11
18.2361
 21
208.304
  0
LINE
  8
0
 10
18.2361
 20
208.304
 11
18.7031
 21
208.119
  0
LINE
  8
0
 10
18.7031
 20
208.119
 11
19.1433
 21
207.877
  0
LINE
  8
0
 10
19.1433
 20
207.877
 11
19.5497
 21
207.582
  0
LINE
  8
0
 10
19.5497
 20
207.582
 11
19.9159
 21
207.238
  0
LINE
  8
0
 10
19.9159
 20
207.238
 11
20.2361
 21
206.851
  0
LINE
  8
0
 10
20.2361
 20
206.851
 11
20.5052
 21
206.427
  0
LINE
  8
0
 10
20.5052
 20
206.427
 11
20.7191
 21
205.972
  0
LINE
  8
0
 10
20.7191
 20
205.972
 11
20.8743
 21
205.495
  0
LINE
  8
0
 10
20.8743
 20
205.495
 11
20.9684
 21
205.001
  0
LINE
  8
0
 10
20.9684
 20
205.001
 11
21
 21
204.5
  0
LINE
  8
0
 10
21
 20
204.5
 11
21
 21
185.5
  0
LINE
  8
0
 10
21
 20
185.5
 11
20.9684
 21
184.999
  0
LINE
  8
0
 10
20.9684
 20
184.999
 11
20.8743
 21
184.505
  0
LINE
  8
0
 10
20.8743
 20
184.505
 11
20.7191
 21
184.028
  0
LINE
  8
0
 10
20.7191
 20
184.028
 11
20.5052
 21
183.573
  0
LINE
  8
0
 10
20.5052
 20
183.573
 11
20.2361
 21
183.149
  0
LINE
  8
0
 10
20.2361
 20
183.149
 11
19.9159
 21
182.762
  0
LINE
  8
0
 10
19.9159
 20
182.762
 11
19.5497
 21
182.418
  0
LINE
  8
0
 10
19.5497
 20
182.418
 11
19.1433
 21
182.123
  0
LINE
  8
0
 10
19.1433
 20
182.123
 11
18.7031
 21
181.881
  0
LINE
  8
0
 10
18.7031
 20
181.881
 11
18.2361
 21
181.696
  0
LINE
  8
0
 10
18.2361
 20
181.696
 11
17.7495
 21
181.571
  0
LINE
  8
0
 10
17.7495
 20
181.571
 11
17.2512
 21
181.508
  0
LINE
  8
0
 10
17.2512
 20
181.508
 11
-17.2512
 21
181.508
  0
LINE
  8
0
 10
18.4369
 20
141.089
 11
19.0451
 21
141.245
  0
LINE
  8
0
 10
19.0451
 20
141.245
 11
19.6289
 21
141.476
  0
LINE
  8
0
 10
19.6289
 20
141.476
 11
20.1791
 21
141.778
  0
LINE
  8
0
 10
20.1791
 20
141.778
 11
20.6871
 21
142.147
  0
LINE
  8
0
 10
20.6871
 20
142.147
 11
21.1448
 21
142.577
  0
LINE
  8
0
 10
21.1448
 20
142.577
 11
21.5451
 21
143.061
  0
LINE
  8
0
 10
21.5451
 20
143.061
 11
21.8815
 21
143.591
  0
LINE
  8
0
 10
21.8815
 20
143.591
 11
22.1489
 21
144.159
  0
LINE
  8
0
 10
22.1489
 20
144.159
 11
22.3429
 21
144.757
  0
LINE
  8
0
 10
22.3429
 20
144.757
 11
22.4606
 21
145.373
  0
LINE
  8
0
 10
22.4606
 20
145.373
 11
22.5
 21
146
  0
LINE
  8
0
 10
22.5
 20
146
 11
22.5
 21
166
  0
LINE
  8
0
 10
22.5
 20
166
 11
22.4606
 21
166.627
  0
LINE
  8
0
 10
22.4606
 20
166.627
 11
22.3429
 21
167.243
  0
LINE
  8
0
 10
22.3429
 20
167.243
 11
22.1489
 21
167.841
  0
LINE
  8
0
 10
22.1489
 20
167.841
 11
21.8815
 21
168.409
  0
LINE
  8
0
 10
21.8815
 20
168.409
 11
21.5451
 21
168.939
  0
LINE
  8
0
 10
21.5451
 20
168.939
 11
21.1448
 21
169.423
  0
LINE
  8
0
 10
21.1448
 20
169.423
 11
20.6871
 21
169.853
  0
LINE
  8
0
 10
20.6871
 20
169.853
 11
20.1791
 21
170.222
  0
LINE
  8
0
 10
20.1791
 20
170.222
 11
19.6289
 21
170.524
  0
LINE
  8
0
 10
19.6289
 20
170.524
 11
19.0451
 21
170.755
  0
LINE
  8
0
 10
19.0451
 20
170.755
 11
18.4369
 21
170.911
  0
LINE
  8
0
 10
18.4369
 20
170.911
 11
17.8139
 21
170.99
  0
LINE
  8
0
 10
17.8139
 20
170.99
 11
-17.8139
 21
170.99
  0
LINE
  8
0
 10
-17.8139
 20
170.99
 11
-18.4369
 21
170.911
  0
LINE
  8
0
 10
-18.4369
 20
170.911
 11
-19.0451
 21
170.755
  0
LINE
  8
0
 10
-19.0451
 20
170.755
 11
-19.6289
 21
170.524
  0
LINE
  8
0
 10
-19.6289
 20
170.524
 11
-20.1791
 21
170.222
  0
LINE
  8
0
 10
-20.1791
 20
170.222
 11
-20.6871
 21
169.853
  0
LINE
  8
0
 10
-20.6871
 20
169.853
 11
-21
 21
169.559
  0
LINE
  8
0
 10
-21
 20
169.559
 11
-21
 21
170.979
  0
LINE
  8
0
 10
-21
 20
170.979
 11
-24
 21
170.979
  0
LINE
  8
0
 10
-24
 20
170.979
 11
-24
 21
141.021
  0
LINE
  8
0
 10
-24
 20
141.021
 11
-21
 21
141.021
  0
LINE
  8
0
 10
-21
 20
141.021
 11
-21
 21
142.441
  0
LINE
  8
0
 10
-21
 20
142.441
 11
-20.6871
 21
142.147
  0
LINE
  8
0
 10
-20.6871
 20
142.147
 11
-20.1791
 21
141.778
  0
LINE
  8
0
 10
-20.1791
 20
141.778
 11
-19.6289
 21
141.476
  0
LINE
  8
0
 10
-19.6289
 20
141.476
 11
-19.0451
 21
141.245
  0
LINE
  8
0
 10
-19.0451
 20
141.245
 11
-18.4369
 21
141.089
  0
LINE
  8
0
 10
-18.4369
 20
141.089
 11
-17.8139
 21
141.01
  0
LINE
  8
0
 10
-17.8139
 20
141.01
 11
17.8139
 21
141.01
  0
LINE
  8
0
 10
17.8139
 20
141.01
 11
18.4369
 21
141.089
  0
LINE
  8
0
 10
-17.1954
 20
143.393
 11
-17.5833
 21
143.442
  0
LINE
  8
0
 10
-17.5833
 20
143.442
 11
-17.9619
 21
143.539
  0
LINE
  8
0
 10
-17.9619
 20
143.539
 11
-18.3254
 21
143.683
  0
LINE
  8
0
 10
-18.3254
 20
143.683
 11
-18.668
 21
143.872
  0
LINE
  8
0
 10
-18.668
 20
143.872
 11
-18.9842
 21
144.101
  0
LINE
  8
0
 10
-18.9842
 20
144.101
 11
-19.2692
 21
144.369
  0
LINE
  8
0
 10
-19.2692
 20
144.369
 11
-19.5184
 21
144.67
  0
LINE
  8
0
 10
-19.5184
 20
144.67
 11
-19.7279
 21
145
  0
LINE
  8
0
 10
-19.7279
 20
145
 11
-19.8943
 21
145.354
  0
LINE
  8
0
 10
-19.8943
 20
145.354
 11
-20.0151
 21
145.726
  0
LINE
  8
0
 10
-20.0151
 20
145.726
 11
-20.0884
 21
146.11
  0
LINE
  8
0
 10
-20.0884
 20
146.11
 11
-20.1129
 21
146.5
  0
LINE
  8
0
 10
-20.1129
 20
146.5
 11
-20.1129
 21
165.5
  0
LINE
  8
0
 10
-20.1129
 20
165.5
 11
-20.0884
 21
165.89
  0
LINE
  8
0
 10
-20.0884
 20
165.89
 11
-20.0151
 21
166.274
  0
LINE
  8
0
 10
-20.0151
 20
166.274
 11
-19.8943
 21
166.646
  0
LINE
  8
0
 10
-19.8943
 20
166.646
 11
-19.7279
 21
167
  0
LINE
  8
0
 10
-19.7279
 20
167
 11
-19.5184
 21
167.33
  0
LINE
  8
0
 10
-19.5184
 20
167.33
 11
-19.2692
 21
167.631
  0
LINE
  8
0
 10
-19.2692
 20
167.631
 11
-18.9842
 21
167.899
  0
LINE
  8
0
 10
-18.9842
 20
167.899
 11
-18.668
 21
168.128
  0
LINE
  8
0
 10
-18.668
 20
168.128
 11
-18.3254
 21
168.317
  0
LINE
  8
0
 10
-18.3254
 20
168.317
 11
-17.9619
 21
168.461
  0
LINE
  8
0
 10
-17.9619
 20
168.461
 11
-17.5833
 21
168.558
  0
LINE
  8
0
 10
-17.5833
 20
168.558
 11
-17.1954
 21
168.607
  0
LINE
  8
0
 10
-17.1954
 20
168.607
 11
17.1954
 21
168.607
  0
LINE
  8
0
 10
17.1954
 20
168.607
 11
17.5833
 21
168.558
  0
LINE
  8
0
 10
17.5833
 20
168.558
 11
17.9619
 21
168.461
  0
LINE
  8
0
 10
17.9619
 20
168.461
 11
18.3254
 21
168.317
  0
LINE
  8
0
 10
18.3254
 20
168.317
 11
18.668
 21
168.128
  0
LINE
  8
0
 10
18.668
 20
168.128
 11
18.9842
 21
167.899
  0
LINE
  8
0
 10
18.9842
 20
167.899
 11
19.2692
 21
167.631
  0
LINE
  8
0
 10
19.2692
 20
167.631
 11
19.5184
 21
167.33
  0
LINE
  8
0
 10
19.5184
 20
167.33
 11
19.7279
 21
167
  0
LINE
  8
0
 10
19.7279
 20
167
 11
19.8943
 21
166.646
  0
LINE
  8
0
 10
19.8943
 20
166.646
 11
20.0151
 21
166.274
  0
LINE
  8
0
 10
20.0151
 20
166.274
 11
20.0884
 21
165.89
  0
LINE
  8
0
 10
20.0884
 20
165.89
 11
20.1129
 21
165.5
  0
LINE
  8
0
 10
20.1129
 20
165.5
 11
20.1129
 21
146.5
  0
LINE
  8
0
 10
20.1129
 20
146.5
 11
20.0884
 21
146.11
  0
LINE
  8
0
 10
20.0884
 20
146.11
 11
20.0151
 21
145.726
  0
LINE
  8
0
 10
20.0151
 20
145.726
 11
19.8943
 21
145.354
  0
LINE
  8
0
 10
19.8943
 20
145.354
 11
19.7279
 21
145
  0
LINE
  8
0
 10
19.7279
 20
145
 11
19.5184
 21
144.67
  0
LINE
  8
0
 10
19.5184
 20
144.67
 11
19.2692
 21
144.369
  0
LINE
  8
0
 10
19.2692
 20
144.369
 11
18.9842
 21
144.101
  0
LINE
  8
0
 10
18.9842
 20
144.101
 11
18.668
 21
143.872
  0
LINE
  8
0
 10
18.668
 20
143.872
 11
18.3254
 21
143.683
  0
LINE
  8
0
 10
18.3254
 20
143.683
 11
17.9619
 21
143.539
  0
LINE
  8
0
 10
17.9619
 20
143.539
 11
17.5833
 21
143.442
  0
LINE
  8
0
 10
17.5833
 20
143.442
 11
17.1954
 21
143.393
  0
LINE
  8
0
 10
17.1954
 20
143.393
 11
-17.1954
 21
143.393
  0
LINE
  8
0
 10
18.4369
 20
102.089
 11
19.0451
 21
102.245
  0
LINE
  8
0
 10
19.0451
 20
102.245
 11
19.6289
 21
102.476
  0
LINE
  8
0
 10
19.6289
 20
102.476
 11
20.1791
 21
102.778
  0
LINE
  8
0
 10
20.1791
 20
102.778
 11
20.6871
 21
103.147
  0
LINE
  8
0
 10
20.6871
 20
103.147
 11
21.1448
 21
103.577
  0
LINE
  8
0
 10
21.1448
 20
103.577
 11
21.5451
 21
104.061
  0
LINE
  8
0
 10
21.5451
 20
104.061
 11
21.8815
 21
104.591
  0
LINE
  8
0
 10
21.8815
 20
104.591
 11
22.1489
 21
105.159
  0
LINE
  8
0
 10
22.1489
 20
105.159
 11
22.3429
 21
105.757
  0
LINE
  8
0
 10
22.3429
 20
105.757
 11
22.4606
 21
106.373
  0
LINE
  8
0
 10
22.4606
 20
106.373
 11
22.5
 21
107
  0
LINE
  8
0
 10
22.5
 20
107
 11
22.5
 21
127
  0
LINE
  8
0
 10
22.5
 20
127
 11
22.4606
 21
127.627
  0
LINE
  8
0
 10
22.4606
 20
127.627
 11
22.3429
 21
128.243
  0
LINE
  8
0
 10
22.3429
 20
128.243
 11
22.1489
 21
128.841
  0
LINE
  8
0
 10
22.1489
 20
128.841
 11
21.8815
 21
129.409
  0
LINE
  8
0
 10
21.8815
 20
129.409
 11
21.5451
 21
129.939
  0
LINE
  8
0
 10
21.5451
 20
129.939
 11
21.1448
 21
130.423
  0
LINE
  8
0
 10
21.1448
 20
130.423
 11
20.6871
 21
130.853
  0
LINE
  8
0
 10
20.6871
 20
130.853
 11
20.1791
 21
131.222
  0
LINE
  8
0
 10
20.1791
 20
131.222
 11
19.6289
 21
131.524
  0
LINE
  8
0
 10
19.6289
 20
131.524
 11
19.0451
 21
131.755
  0
LINE
  8
0
 10
19.0451
 20
131.755
 11
18.4369
 21
131.911
  0
LINE
  8
0
 10
18.4369
 20
131.911
 11
17.8139
 21
131.99
  0
LINE
  8
0
 10
17.8139
 20
131.99
 11
-17.8139
 21
131.99
  0
LINE
  8
0
 10
-17.8139
 20
131.99
 11
-18.4369
 21
131.911
  0
LINE
  8
0
 10
-18.4369
 20
131.911
 11
-19.0451
 21
131.755
  0
LINE
  8
0
 10
-19.0451
 20
131.755
 11
-19.6289
 21
131.524
  0
LINE
  8
0
 10
-19.6289
 20
131.524
 11
-20.1791
 21
131.222
  0
LINE
  8
0
 10
-20.1791
 20
131.222
 11
-20.6871
 21
130.853
  0
LINE
  8
0
 10
-20.6871
 20
130.853
 11
-21
 21
130.559
  0
LINE
  8
0
 10
-21
 20
130.559
 11
-21
 21
130.653
  0
LINE
  8
0
 10
-21
 20
130.653
 11
-24
 21
130.653
  0
LINE
  8
0
 10
-24
 20
130.653
 11
-24
 21
103.347
  0
LINE
  8
0
 10
-24
 20
103.347
 11
-21
 21
103.347
  0
LINE
  8
0
 10
-21
 20
103.347
 11
-21
 21
103.441
  0
LINE
  8
0
 10
-21
 20
103.441
 11
-20.6871
 21
103.147
  0
LINE
  8
0
 10
-20.6871
 20
103.147
 11
-20.1791
 21
102.778
  0
LINE
  8
0
 10
-20.1791
 20
102.778
 11
-19.6289
 21
102.476
  0
LINE
  8
0
 10
-19.6289
 20
102.476
 11
-19.0451
 21
102.245
  0
LINE
  8
0
 10
-19.0451
 20
102.245
 11
-18.4369
 21
102.089
  0
LINE
  8
0
 10
-18.4369
 20
102.089
 11
-17.8139
 21
102.01
  0
LINE
  8
0
 10
-17.8139
 20
102.01
 11
17.8139
 21
102.01
  0
LINE
  8
0
 10
17.8139
 20
102.01
 11
18.4369
 21
102.089
  0
LINE
  8
0
 10
14.8659
 20
122.369
 11
14.5999
 21
122.403
  0
LINE
  8
0
 10
14.5999
 20
122.403
 11
14.3401
 21
122.469
  0
LINE
  8
0
 10
14.3401
 20
122.469
 11
14.0908
 21
122.568
  0
LINE
  8
0
 10
14.0908
 20
122.568
 11
13.8559
 21
122.697
  0
LINE
  8
0
 10
13.8559
 20
122.697
 11
13.6389
 21
122.855
  0
LINE
  8
0
 10
13.6389
 20
122.855
 11
13.4434
 21
123.038
  0
LINE
  8
0
 10
13.4434
 20
123.038
 11
13.2725
 21
123.245
  0
LINE
  8
0
 10
13.2725
 20
123.245
 11
13.1288
 21
123.471
  0
LINE
  8
0
 10
13.1288
 20
123.471
 11
13.0146
 21
123.714
  0
LINE
  8
0
 10
13.0146
 20
123.714
 11
12.9318
 21
123.969
  0
LINE
  8
0
 10
12.9318
 20
123.969
 11
12.8815
 21
124.232
  0
LINE
  8
0
 10
12.8815
 20
124.232
 11
12.8647
 21
124.5
  0
LINE
  8
0
 10
12.8647
 20
124.5
 11
12.8815
 21
124.768
  0
LINE
  8
0
 10
12.8815
 20
124.768
 11
12.9318
 21
125.031
  0
LINE
  8
0
 10
12.9318
 20
125.031
 11
13.0146
 21
125.286
  0
LINE
  8
0
 10
13.0146
 20
125.286
 11
13.1288
 21
125.529
  0
LINE
  8
0
 10
13.1288
 20
125.529
 11
13.2725
 21
125.755
  0
LINE
  8
0
 10
13.2725
 20
125.755
 11
13.4434
 21
125.962
  0
LINE
  8
0
 10
13.4434
 20
125.962
 11
13.6389
 21
126.145
  0
LINE
  8
0
 10
13.6389
 20
126.145
 11
13.8559
 21
126.303
  0
LINE
  8
0
 10
13.8559
 20
126.303
 11
14.0908
 21
126.432
  0
LINE
  8
0
 10
14.0908
 20
126.432
 11
14.3401
 21
126.531
  0
LINE
  8
0
 10
14.3401
 20
126.531
 11
14.5999
 21
126.597
  0
LINE
  8
0
 10
14.5999
 20
126.597
 11
14.8659
 21
126.631
  0
LINE
  8
0
 10
14.8659
 20
126.631
 11
15.1341
 21
126.631
  0
LINE
  8
0
 10
15.1341
 20
126.631
 11
15.4001
 21
126.597
  0
LINE
  8
0
 10
15.4001
 20
126.597
 11
15.6598
 21
126.531
  0
LINE
  8
0
 10
15.6598
 20
126.531
 11
15.9091
 21
126.432
  0
LINE
  8
0
 10
15.9091
 20
126.432
 11
16.1441
 21
126.303
  0
LINE
  8
0
 10
16.1441
 20
126.303
 11
16.3611
 21
126.145
  0
LINE
  8
0
 10
16.3611
 20
126.145
 11
16.5565
 21
125.962
  0
LINE
  8
0
 10
16.5565
 20
125.962
 11
16.7275
 21
125.755
  0
LINE
  8
0
 10
16.7275
 20
125.755
 11
16.8712
 21
125.529
  0
LINE
  8
0
 10
16.8712
 20
125.529
 11
16.9853
 21
125.286
  0
LINE
  8
0
 10
16.9853
 20
125.286
 11
17.0682
 21
125.031
  0
LINE
  8
0
 10
17.0682
 20
125.031
 11
17.1185
 21
124.768
  0
LINE
  8
0
 10
17.1185
 20
124.768
 11
17.1353
 21
124.5
  0
LINE
  8
0
 10
17.1353
 20
124.5
 11
17.1185
 21
124.232
  0
LINE
  8
0
 10
17.1185
 20
124.232
 11
17.0682
 21
123.969
  0
LINE
  8
0
 10
17.0682
 20
123.969
 11
16.9853
 21
123.714
  0
LINE
  8
0
 10
16.9853
 20
123.714
 11
16.8712
 21
123.471
  0
LINE
  8
0
 10
16.8712
 20
123.471
 11
16.7275
 21
123.245
  0
LINE
  8
0
 10
16.7275
 20
123.245
 11
16.5565
 21
123.038
  0
LINE
  8
0
 10
16.5565
 20
123.038
 11
16.3611
 21
122.855
  0
LINE
  8
0
 10
16.3611
 20
122.855
 11
16.1441
 21
122.697
  0
LINE
  8
0
 10
16.1441
 20
122.697
 11
15.9091
 21
122.568
  0
LINE
  8
0
 10
15.9091
 20
122.568
 11
15.6598
 21
122.469
  0
LINE
  8
0
 10
15.6598
 20
122.469
 11
15.4001
 21
122.403
  0
LINE
  8
0
 10
15.4001
 20
122.403
 11
15.1341
 21
122.369
  0
LINE
  8
0
 10
15.1341
 20
122.369
 11
14.8659
 21
122.369
  0
LINE
  8
0
 10
-15.1341
 20
122.369
 11
-15.4001
 21
122.403
  0
LINE
  8
0
 10
-15.4001
 20
122.403
 11
-15.6598
 21
122.469
  0
LINE
  8
0
 10
-15.6598
 20
122.469
 11
-15.9091
 21
122.568
  0
LINE
  8
0
 10
-15.9091
 20
122.568
 11
-16.1441
 21
122.697
  0
LINE
  8
0
 10
-16.1441
 20
122.697
 11
-16.3611
 21
122.855
  0
LINE
  8
0
 10
-16.3611
 20
122.855
 11
-16.5565
 21
123.038
  0
LINE
  8
0
 10
-16.5565
 20
123.038
 11
-16.7275
 21
123.245
  0
LINE
  8
0
 10
-16.7275
 20
123.245
 11
-16.8712
 21
123.471
  0
LINE
  8
0
 10
-16.8712
 20
123.471
 11
-16.9853
 21
123.714
  0
LINE
  8
0
 10
-16.9853
 20
123.714
 11
-17.0682
 21
123.969
  0
LINE
  8
0
 10
-17.0682
 20
123.969
 11
-17.1185
 21
124.232
  0
LINE
  8
0
 10
-17.1185
 20
124.232
 11
-17.1353
 21
124.5
  0
LINE
  8
0
 10
-17.1353
 20
124.5
 11
-17.1185
 21
124.768
  0
LINE
  8
0
 10
-17.1185
 20
124.768
 11
-17.0682
 21
125.031
  0
LINE
  8
0
 10
-17.0682
 20
125.031
 11
-16.9853
 21
125.286
  0
LINE
  8
0
 10
-16.9853
 20
125.286
 11
-16.8712
 21
125.529
  0
LINE
  8
0
 10
-16.8712
 20
125.529
 11
-16.7275
 21
125.755
  0
LINE
  8
0
 10
-16.7275
 20
125.755
 11
-16.5565
 21
125.962
  0
LINE
  8
0
 10
-16.5565
 20
125.962
 11
-16.3611
 21
126.145
  0
LINE
  8
0
 10
-16.3611
 20
126.145
 11
-16.1441
 21
126.303
  0
LINE
  8
0
 10
-16.1441
 20
126.303
 11
-15.9091
 21
126.432
  0
LINE
  8
0
 10
-15.9091
 20
126.432
 11
-15.6598
 21
126.531
  0
LINE
  8
0
 10
-15.6598
 20
126.531
 11
-15.4001
 21
126.597
  0
LINE
  8
0
 10
-15.4001
 20
126.597
 11
-15.1341
 21
126.631
  0
LINE
  8
0
 10
-15.1341
 20
126.631
 11
-14.8659
 21
126.631
  0
LINE
  8
0
 10
-14.8659
 20
126.631
 11
-14.5999
 21
126.597
  0
LINE
  8
0
 10
-14.5999
 20
126.597
 11
-14.3401
 21
126.531
  0
LINE
  8
0
 10
-14.3401
 20
126.531
 11
-14.0908
 21
126.432
  0
LINE
  8
0
 10
-14.0908
 20
126.432
 11
-13.8559
 21
126.303
  0
LINE
  8
0
 10
-13.8559
 20
126.303
 11
-13.6389
 21
126.145
  0
LINE
  8
0
 10
-13.6389
 20
126.145
 11
-13.4434
 21
125.962
  0
LINE
  8
0
 10
-13.4434
 20
125.962
 11
-13.2725
 21
125.755
  0
LINE
  8
0
 10
-13.2725
 20
125.755
 11
-13.1288
 21
125.529
  0
LINE
  8
0
 10
-13.1288
 20
125.529
 11
-13.0146
 21
125.286
  0
LINE
  8
0
 10
-13.0146
 20
125.286
 11
-12.9318
 21
125.031
  0
LINE
  8
0
 10
-12.9318
 20
125.031
 11
-12.8815
 21
124.768
  0
LINE
  8
0
 10
-12.8815
 20
124.768
 11
-12.8647
 21
124.5
  0
LINE
  8
0
 10
-12.8647
 20
124.5
 11
-12.8815
 21
124.232
  0
LINE
  8
0
 10
-12.8815
 20
124.232
 11
-12.9318
 21
123.969
  0
LINE
  8
0
 10
-12.9318
 20
123.969
 11
-13.0146
 21
123.714
  0
LINE
  8
0
 10
-13.0146
 20
123.714
 11
-13.1288
 21
123.471
  0
LINE
  8
0
 10
-13.1288
 20
123.471
 11
-13.2725
 21
123.245
  0
LINE
  8
0
 10
-13.2725
 20
123.245
 11
-13.4434
 21
123.038
  0
LINE
  8
0
 10
-13.4434
 20
123.038
 11
-13.6389
 21
122.855
  0
LINE
  8
0
 10
-13.6389
 20
122.855
 11
-13.8559
 21
122.697
  0
LINE
  8
0
 10
-13.8559
 20
122.697
 11
-14.0908
 21
122.568
  0
LINE
  8
0
 10
-14.0908
 20
122.568
 11
-14.3401
 21
122.469
  0
LINE
  8
0
 10
-14.3401
 20
122.469
 11
-14.5999
 21
122.403
  0
LINE
  8
0
 10
-14.5999
 20
122.403
 11
-14.8659
 21
122.369
  0
LINE
  8
0
 10
-14.8659
 20
122.369
 11
-15.1341
 21
122.369
  0
LINE
  8
0
 10
14.8659
 20
107.369
 11
14.5999
 21
107.403
  0
LINE
  8
0
 10
14.5999
 20
107.403
 11
14.3401
 21
107.469
  0
LINE
  8
0
 10
14.3401
 20
107.469
 11
14.0908
 21
107.568
  0
LINE
  8
0
 10
14.0908
 20
107.568
 11
13.8559
 21
107.697
  0
LINE
  8
0
 10
13.8559
 20
107.697
 11
13.6389
 21
107.855
  0
LINE
  8
0
 10
13.6389
 20
107.855
 11
13.4434
 21
108.038
  0
LINE
  8
0
 10
13.4434
 20
108.038
 11
13.2725
 21
108.245
  0
LINE
  8
0
 10
13.2725
 20
108.245
 11
13.1288
 21
108.471
  0
LINE
  8
0
 10
13.1288
 20
108.471
 11
13.0146
 21
108.714
  0
LINE
  8
0
 10
13.0146
 20
108.714
 11
12.9318
 21
108.969
  0
LINE
  8
0
 10
12.9318
 20
108.969
 11
12.8815
 21
109.232
  0
LINE
  8
0
 10
12.8815
 20
109.232
 11
12.8647
 21
109.5
  0
LINE
  8
0
 10
12.8647
 20
109.5
 11
12.8815
 21
109.768
  0
LINE
  8
0
 10
12.8815
 20
109.768
 11
12.9318
 21
110.031
  0
LINE
  8
0
 10
12.9318
 20
110.031
 11
13.0146
 21
110.286
  0
LINE
  8
0
 10
13.0146
 20
110.286
 11
13.1288
 21
110.529
  0
LINE
  8
0
 10
13.1288
 20
110.529
 11
13.2725
 21
110.755
  0
LINE
  8
0
 10
13.2725
 20
110.755
 11
13.4434
 21
110.962
  0
LINE
  8
0
 10
13.4434
 20
110.962
 11
13.6389
 21
111.145
  0
LINE
  8
0
 10
13.6389
 20
111.145
 11
13.8559
 21
111.303
  0
LINE
  8
0
 10
13.8559
 20
111.303
 11
14.0908
 21
111.432
  0
LINE
  8
0
 10
14.0908
 20
111.432
 11
14.3401
 21
111.531
  0
LINE
  8
0
 10
14.3401
 20
111.531
 11
14.5999
 21
111.597
  0
LINE
  8
0
 10
14.5999
 20
111.597
 11
14.8659
 21
111.631
  0
LINE
  8
0
 10
14.8659
 20
111.631
 11
15.1341
 21
111.631
  0
LINE
  8
0
 10
15.1341
 20
111.631
 11
15.4001
 21
111.597
  0
LINE
  8
0
 10
15.4001
 20
111.597
 11
15.6598
 21
111.531
  0
LINE
  8
0
 10
15.6598
 20
111.531
 11
15.9091
 21
111.432
  0
LINE
  8
0
 10
15.9091
 20
111.432
 11
16.1441
 21
111.303
  0
LINE
  8
0
 10
16.1441
 20
111.303
 11
16.3611
 21
111.145
  0
LINE
  8
0
 10
16.3611
 20
111.145
 11
16.5565
 21
110.962
  0
LINE
  8
0
 10
16.5565
 20
110.962
 11
16.7275
 21
110.755
  0
LINE
  8
0
 10
16.7275
 20
110.755
 11
16.8712
 21
110.529
  0
LINE
  8
0
 10
16.8712
 20
110.529
 11
16.9853
 21
110.286
  0
LINE
  8
0
 10
16.9853
 20
110.286
 11
17.0682
 21
110.031
  0
LINE
  8
0
 10
17.0682
 20
110.031
 11
17.1185
 21
109.768
  0
LINE
  8
0
 10
17.1185
 20
109.768
 11
17.1353
 21
109.5
  0
LINE
  8
0
 10
17.1353
 20
109.5
 11
17.1185
 21
109.232
  0
LINE
  8
0
 10
17.1185
 20
109.232
 11
17.0682
 21
108.969
  0
LINE
  8
0
 10
17.0682
 20
108.969
 11
16.9853
 21
108.714
  0
LINE
  8
0
 10
16.9853
 20
108.714
 11
16.8712
 21
108.471
  0
LINE
  8
0
 10
16.8712
 20
108.471
 11
16.7275
 21
108.245
  0
LINE
  8
0
 10
16.7275
 20
108.245
 11
16.5565
 21
108.038
  0
LINE
  8
0
 10
16.5565
 20
108.038
 11
16.3611
 21
107.855
  0
LINE
  8
0
 10
16.3611
 20
107.855
 11
16.1441
 21
107.697
  0
LINE
  8
0
 10
16.1441
 20
107.697
 11
15.9091
 21
107.568
  0
LINE
  8
0
 10
15.9091
 20
107.568
 11
15.6598
 21
107.469
  0
LINE
  8
0
 10
15.6598
 20
107.469
 11
15.4001
 21
107.403
  0
LINE
  8
0
 10
15.4001
 20
107.403
 11
15.1341
 21
107.369
  0
LINE
  8
0
 10
15.1341
 20
107.369
 11
14.8659
 21
107.369
  0
LINE
  8
0
 10
-15.1341
 20
107.369
 11
-15.4001
 21
107.403
  0
LINE
  8
0
 10
-15.4001
 20
107.403
 11
-15.6598
 21
107.469
  0
LINE
  8
0
 10
-15.6598
 20
107.469
 11
-15.9091
 21
107.568
  0
LINE
  8
0
 10
-15.9091
 20
107.568
 11
-16.1441
 21
107.697
  0
LINE
  8
0
 10
-16.1441
 20
107.697
 11
-16.3611
 21
107.855
  0
LINE
  8
0
 10
-16.3611
 20
107.855
 11
-16.5565
 21
108.038
  0
LINE
  8
0
 10
-16.5565
 20
108.038
 11
-16.7275
 21
108.245
  0
LINE
  8
0
 10
-16.7275
 20
108.245
 11
-16.8712
 21
108.471
  0
LINE
  8
0
 10
-16.8712
 20
108.471
 11
-16.9853
 21
108.714
  0
LINE
  8
0
 10
-16.9853
 20
108.714
 11
-17.0682
 21
108.969
  0
LINE
  8
0
 10
-17.0682
 20
108.969
 11
-17.1185
 21
109.232
  0
LINE
  8
0
 10
-17.1185
 20
109.232
 11
-17.1353
 21
109.5
  0
LINE
  8
0
 10
-17.1353
 20
109.5
 11
-17.1185
 21
109.768
  0
LINE
  8
0
 10
-17.1185
 20
109.768
 11
-17.0682
 21
110.031
  0
LINE
  8
0
 10
-17.0682
 20
110.031
 11
-16.9853
 21
110.286
  0
LINE
  8
0
 10
-16.9853
 20
110.286
 11
-16.8712
 21
110.529
  0
LINE
  8
0
 10
-16.8712
 20
110.529
 11
-16.7275
 21
110.755
  0
LINE
  8
0
 10
-16.7275
 20
110.755
 11
-16.5565
 21
110.962
  0
LINE
  8
0
 10
-16.5565
 20
110.962
 11
-16.3611
 21
111.145
  0
LINE
  8
0
 10
-16.3611
 20
111.145
 11
-16.1441
 21
111.303
  0
LINE
  8
0
 10
-16.1441
 20
111.303
 11
-15.9091
 21
111.432
  0
LINE
  8
0
 10
-15.9091
 20
111.432
 11
-15.6598
 21
111.531
  0
LINE
  8
0
 10
-15.6598
 20
111.531
 11
-15.4001
 21
111.597
  0
LINE
  8
0
 10
-15.4001
 20
111.597
 11
-15.1341
 21
111.631
  0
LINE
  8
0
 10
-15.1341
 20
111.631
 11
-14.8659
 21
111.631
  0
LINE
  8
0
 10
-14.8659
 20
111.631
 11
-14.5999
 21
111.597
  0
LINE
  8
0
 10
-14.5999
 20
111.597
 11
-14.3401
 21
111.531
  0
LINE
  8
0
 10
-14.3401
 20
111.531
 11
-14.0908
 21
111.432
  0
LINE
  8
0
 10
-14.0908
 20
111.432
 11
-13.8559
 21
111.303
  0
LINE
  8
0
 10
-13.8559
 20
111.303
 11
-13.6389
 21
111.145
  0
LINE
  8
0
 10
-13.6389
 20
111.145
 11
-13.4434
 21
110.962
  0
LINE
  8
0
 10
-13.4434
 20
110.962
 11
-13.2725
 21
110.755
  0
LINE
  8
0
 10
-13.2725
 20
110.755
 11
-13.1288
 21
110.529
  0
LINE
  8
0
 10
-13.1288
 20
110.529
 11
-13.0146
 21
110.286
  0
LINE
  8
0
 10
-13.0146
 20
110.286
 11
-12.9318
 21
110.031
  0
LINE
  8
0
 10
-12.9318
 20
110.031
 11
-12.8815
 21
109.768
  0
LINE
  8
0
 10
-12.8815
 20
109.768
 11
-12.8647
 21
109.5
  0
LINE
  8
0
 10
-12.8647
 20
109.5
 11
-12.8815
 21
109.232
  0
LINE
  8
0
 10
-12.8815
 20
109.232
 11
-12.9318
 21
108.969
  0
LINE
  8
0
 10
-12.9318
 20
108.969
 11
-13.0146
 21
108.714
  0
LINE
  8
0
 10
-13.0146
 20
108.714
 11
-13.1288
 21
108.471
  0
LINE
  8
0
 10
-13.1288
 20
108.471
 11
-13.2725
 21
108.245
  0
LINE
  8
0
 10
-13.2725
 20
108.245
 11
-13.4434
 21
108.038
  0
LINE
  8
0
 10
-13.4434
 20
108.038
 11
-13.6389
 21
107.855
  0
LINE
  8
0
 10
-13.6389
 20
107.855
 11
-13.8559
 21
107.697
  0
LINE
  8
0
 10
-13.8559
 20
107.697
 11
-14.0908
 21
107.568
  0
LINE
  8
0
 10
-14.0908
 20
107.568
 11
-14.3401
 21
107.469
  0
LINE
  8
0
 10
-14.3401
 20
107.469
 11
-14.5999
 21
107.403
  0
LINE
  8
0
 10
-14.5999
 20
107.403
 11
-14.8659
 21
107.369
  0
LINE
  8
0
 10
-14.8659
 20
107.369
 11
-15.1341
 21
107.369
  0
ENDSEC
  0
SECTION
  2
OBJECTS
  0
DICTIONARY
  0
ENDSEC
  0
EOF
