  0
SECTION
  2
BLOCKS
  0
ENDSEC
  0
SECTION
  2
ENTITIES
  0
LINE
  8
0
 10
18.4369
 20
463.589
 11
19.0451
 21
463.745
  0
LINE
  8
0
 10
19.0451
 20
463.745
 11
19.6289
 21
463.976
  0
LINE
  8
0
 10
19.6289
 20
463.976
 11
20.1791
 21
464.278
  0
LINE
  8
0
 10
20.1791
 20
464.278
 11
20.6871
 21
464.647
  0
LINE
  8
0
 10
20.6871
 20
464.647
 11
21.1448
 21
465.077
  0
LINE
  8
0
 10
21.1448
 20
465.077
 11
21.5451
 21
465.561
  0
LINE
  8
0
 10
21.5451
 20
465.561
 11
21.8815
 21
466.091
  0
LINE
  8
0
 10
21.8815
 20
466.091
 11
22.1489
 21
466.659
  0
LINE
  8
0
 10
22.1489
 20
466.659
 11
22.3429
 21
467.257
  0
LINE
  8
0
 10
22.3429
 20
467.257
 11
22.4606
 21
467.873
  0
LINE
  8
0
 10
22.4606
 20
467.873
 11
22.5
 21
468.5
  0
LINE
  8
0
 10
22.5
 20
468.5
 11
22.5
 21
503.5
  0
LINE
  8
0
 10
22.5
 20
503.5
 11
22.4606
 21
504.127
  0
LINE
  8
0
 10
22.4606
 20
504.127
 11
22.3429
 21
504.743
  0
LINE
  8
0
 10
22.3429
 20
504.743
 11
22.1489
 21
505.341
  0
LINE
  8
0
 10
22.1489
 20
505.341
 11
21.8815
 21
505.909
  0
LINE
  8
0
 10
21.8815
 20
505.909
 11
21.5451
 21
506.439
  0
LINE
  8
0
 10
21.5451
 20
506.439
 11
21.1448
 21
506.923
  0
LINE
  8
0
 10
21.1448
 20
506.923
 11
20.6871
 21
507.353
  0
LINE
  8
0
 10
20.6871
 20
507.353
 11
20.1791
 21
507.722
  0
LINE
  8
0
 10
20.1791
 20
507.722
 11
19.6289
 21
508.024
  0
LINE
  8
0
 10
19.6289
 20
508.024
 11
19.0451
 21
508.255
  0
LINE
  8
0
 10
19.0451
 20
508.255
 11
18.4369
 21
508.411
  0
LINE
  8
0
 10
18.4369
 20
508.411
 11
17.8139
 21
508.49
  0
LINE
  8
0
 10
17.8139
 20
508.49
 11
-17.8139
 21
508.49
  0
LINE
  8
0
 10
-17.8139
 20
508.49
 11
-18.4369
 21
508.411
  0
LINE
  8
0
 10
-18.4369
 20
508.411
 11
-19.0451
 21
508.255
  0
LINE
  8
0
 10
-19.0451
 20
508.255
 11
-19.6289
 21
508.024
  0
LINE
  8
0
 10
-19.6289
 20
508.024
 11
-20.1791
 21
507.722
  0
LINE
  8
0
 10
-20.1791
 20
507.722
 11
-20.6871
 21
507.353
  0
LINE
  8
0
 10
-20.6871
 20
507.353
 11
-21.1448
 21
506.923
  0
LINE
  8
0
 10
-21.1448
 20
506.923
 11
-21.5451
 21
506.439
  0
LINE
  8
0
 10
-21.5451
 20
506.439
 11
-21.8815
 21
505.909
  0
LINE
  8
0
 10
-21.8815
 20
505.909
 11
-22.1489
 21
505.341
  0
LINE
  8
0
 10
-22.1489
 20
505.341
 11
-22.3429
 21
504.743
  0
LINE
  8
0
 10
-22.3429
 20
504.743
 11
-22.4606
 21
504.127
  0
LINE
  8
0
 10
-22.4606
 20
504.127
 11
-22.5
 21
503.5
  0
LINE
  8
0
 10
-22.5
 20
503.5
 11
-22.5
 21
468.5
  0
LINE
  8
0
 10
-22.5
 20
468.5
 11
-22.4606
 21
467.873
  0
LINE
  8
0
 10
-22.4606
 20
467.873
 11
-22.3429
 21
467.257
  0
LINE
  8
0
 10
-22.3429
 20
467.257
 11
-22.1489
 21
466.659
  0
LINE
  8
0
 10
-22.1489
 20
466.659
 11
-21.8815
 21
466.091
  0
LINE
  8
0
 10
-21.8815
 20
466.091
 11
-21.5451
 21
465.561
  0
LINE
  8
0
 10
-21.5451
 20
465.561
 11
-21.1448
 21
465.077
  0
LINE
  8
0
 10
-21.1448
 20
465.077
 11
-20.6871
 21
464.647
  0
LINE
  8
0
 10
-20.6871
 20
464.647
 11
-20.1791
 21
464.278
  0
LINE
  8
0
 10
-20.1791
 20
464.278
 11
-19.6289
 21
463.976
  0
LINE
  8
0
 10
-19.6289
 20
463.976
 11
-19.0451
 21
463.745
  0
LINE
  8
0
 10
-19.0451
 20
463.745
 11
-18.4369
 21
463.589
  0
LINE
  8
0
 10
-18.4369
 20
463.589
 11
-17.8139
 21
463.51
  0
LINE
  8
0
 10
-17.8139
 20
463.51
 11
17.8139
 21
463.51
  0
LINE
  8
0
 10
17.8139
 20
463.51
 11
18.4369
 21
463.589
  0
LINE
  8
0
 10
-17.5482
 20
464.009
 11
-18.1401
 21
464.084
  0
LINE
  8
0
 10
-18.1401
 20
464.084
 11
-18.7178
 21
464.232
  0
LINE
  8
0
 10
-18.7178
 20
464.232
 11
-19.2724
 21
464.452
  0
LINE
  8
0
 10
-19.2724
 20
464.452
 11
-19.7952
 21
464.739
  0
LINE
  8
0
 10
-19.7952
 20
464.739
 11
-20.2778
 21
465.09
  0
LINE
  8
0
 10
-20.2778
 20
465.09
 11
-20.7126
 21
465.498
  0
LINE
  8
0
 10
-20.7126
 20
465.498
 11
-21.0928
 21
465.958
  0
LINE
  8
0
 10
-21.0928
 20
465.958
 11
-21.4124
 21
466.462
  0
LINE
  8
0
 10
-21.4124
 20
466.462
 11
-21.6664
 21
467.001
  0
LINE
  8
0
 10
-21.6664
 20
467.001
 11
-21.8508
 21
467.569
  0
LINE
  8
0
 10
-21.8508
 20
467.569
 11
-21.9625
 21
468.155
  0
LINE
  8
0
 10
-21.9625
 20
468.155
 11
-22
 21
468.75
  0
LINE
  8
0
 10
-22
 20
468.75
 11
-22
 21
503.25
  0
LINE
  8
0
 10
-22
 20
503.25
 11
-21.9625
 21
503.845
  0
LINE
  8
0
 10
-21.9625
 20
503.845
 11
-21.8508
 21
504.431
  0
LINE
  8
0
 10
-21.8508
 20
504.431
 11
-21.6664
 21
504.999
  0
LINE
  8
0
 10
-21.6664
 20
504.999
 11
-21.4124
 21
505.538
  0
LINE
  8
0
 10
-21.4124
 20
505.538
 11
-21.0928
 21
506.042
  0
LINE
  8
0
 10
-21.0928
 20
506.042
 11
-20.7126
 21
506.502
  0
LINE
  8
0
 10
-20.7126
 20
506.502
 11
-20.2778
 21
506.91
  0
LINE
  8
0
 10
-20.2778
 20
506.91
 11
-19.7952
 21
507.261
  0
LINE
  8
0
 10
-19.7952
 20
507.261
 11
-19.2724
 21
507.548
  0
LINE
  8
0
 10
-19.2724
 20
507.548
 11
-18.7178
 21
507.768
  0
LINE
  8
0
 10
-18.7178
 20
507.768
 11
-18.1401
 21
507.916
  0
LINE
  8
0
 10
-18.1401
 20
507.916
 11
-17.5482
 21
507.991
  0
LINE
  8
0
 10
-17.5482
 20
507.991
 11
17.5482
 21
507.991
  0
LINE
  8
0
 10
17.5482
 20
507.991
 11
18.1401
 21
507.916
  0
LINE
  8
0
 10
18.1401
 20
507.916
 11
18.7178
 21
507.768
  0
LINE
  8
0
 10
18.7178
 20
507.768
 11
19.2724
 21
507.548
  0
LINE
  8
0
 10
19.2724
 20
507.548
 11
19.7952
 21
507.261
  0
LINE
  8
0
 10
19.7952
 20
507.261
 11
20.2778
 21
506.91
  0
LINE
  8
0
 10
20.2778
 20
506.91
 11
20.7126
 21
506.502
  0
LINE
  8
0
 10
20.7126
 20
506.502
 11
21.0928
 21
506.042
  0
LINE
  8
0
 10
21.0928
 20
506.042
 11
21.4124
 21
505.538
  0
LINE
  8
0
 10
21.4124
 20
505.538
 11
21.6664
 21
504.999
  0
LINE
  8
0
 10
21.6664
 20
504.999
 11
21.8508
 21
504.431
  0
LINE
  8
0
 10
21.8508
 20
504.431
 11
21.9625
 21
503.845
  0
LINE
  8
0
 10
21.9625
 20
503.845
 11
22
 21
503.25
  0
LINE
  8
0
 10
22
 20
503.25
 11
22
 21
468.75
  0
LINE
  8
0
 10
22
 20
468.75
 11
21.9625
 21
468.155
  0
LINE
  8
0
 10
21.9625
 20
468.155
 11
21.8508
 21
467.569
  0
LINE
  8
0
 10
21.8508
 20
467.569
 11
21.6664
 21
467.001
  0
LINE
  8
0
 10
21.6664
 20
467.001
 11
21.4124
 21
466.462
  0
LINE
  8
0
 10
21.4124
 20
466.462
 11
21.0928
 21
465.958
  0
LINE
  8
0
 10
21.0928
 20
465.958
 11
20.7126
 21
465.498
  0
LINE
  8
0
 10
20.7126
 20
465.498
 11
20.2778
 21
465.09
  0
LINE
  8
0
 10
20.2778
 20
465.09
 11
19.7952
 21
464.739
  0
LINE
  8
0
 10
19.7952
 20
464.739
 11
19.2724
 21
464.452
  0
LINE
  8
0
 10
19.2724
 20
464.452
 11
18.7178
 21
464.232
  0
LINE
  8
0
 10
18.7178
 20
464.232
 11
18.1401
 21
464.084
  0
LINE
  8
0
 10
18.1401
 20
464.084
 11
17.5482
 21
464.009
  0
LINE
  8
0
 10
17.5482
 20
464.009
 11
-17.5482
 21
464.009
  0
LINE
  8
0
 10
18.4369
 20
409.589
 11
19.0451
 21
409.745
  0
LINE
  8
0
 10
19.0451
 20
409.745
 11
19.6289
 21
409.976
  0
LINE
  8
0
 10
19.6289
 20
409.976
 11
20.1791
 21
410.278
  0
LINE
  8
0
 10
20.1791
 20
410.278
 11
20.6871
 21
410.647
  0
LINE
  8
0
 10
20.6871
 20
410.647
 11
21.1448
 21
411.077
  0
LINE
  8
0
 10
21.1448
 20
411.077
 11
21.5451
 21
411.561
  0
LINE
  8
0
 10
21.5451
 20
411.561
 11
21.8815
 21
412.091
  0
LINE
  8
0
 10
21.8815
 20
412.091
 11
22.1489
 21
412.659
  0
LINE
  8
0
 10
22.1489
 20
412.659
 11
22.3429
 21
413.257
  0
LINE
  8
0
 10
22.3429
 20
413.257
 11
22.4606
 21
413.873
  0
LINE
  8
0
 10
22.4606
 20
413.873
 11
22.5
 21
414.5
  0
LINE
  8
0
 10
22.5
 20
414.5
 11
22.5
 21
449.5
  0
LINE
  8
0
 10
22.5
 20
449.5
 11
22.4606
 21
450.127
  0
LINE
  8
0
 10
22.4606
 20
450.127
 11
22.3429
 21
450.743
  0
LINE
  8
0
 10
22.3429
 20
450.743
 11
22.1489
 21
451.341
  0
LINE
  8
0
 10
22.1489
 20
451.341
 11
21.8815
 21
451.909
  0
LINE
  8
0
 10
21.8815
 20
451.909
 11
21.5451
 21
452.439
  0
LINE
  8
0
 10
21.5451
 20
452.439
 11
21.1448
 21
452.923
  0
LINE
  8
0
 10
21.1448
 20
452.923
 11
20.6871
 21
453.353
  0
LINE
  8
0
 10
20.6871
 20
453.353
 11
20.1791
 21
453.722
  0
LINE
  8
0
 10
20.1791
 20
453.722
 11
19.6289
 21
454.024
  0
LINE
  8
0
 10
19.6289
 20
454.024
 11
19.0451
 21
454.255
  0
LINE
  8
0
 10
19.0451
 20
454.255
 11
18.4369
 21
454.411
  0
LINE
  8
0
 10
18.4369
 20
454.411
 11
17.8139
 21
454.49
  0
LINE
  8
0
 10
17.8139
 20
454.49
 11
-17.8139
 21
454.49
  0
LINE
  8
0
 10
-17.8139
 20
454.49
 11
-18.4369
 21
454.411
  0
LINE
  8
0
 10
-18.4369
 20
454.411
 11
-19.0451
 21
454.255
  0
LINE
  8
0
 10
-19.0451
 20
454.255
 11
-19.6289
 21
454.024
  0
LINE
  8
0
 10
-19.6289
 20
454.024
 11
-20.1791
 21
453.722
  0
LINE
  8
0
 10
-20.1791
 20
453.722
 11
-20.6871
 21
453.353
  0
LINE
  8
0
 10
-20.6871
 20
453.353
 11
-21.1448
 21
452.923
  0
LINE
  8
0
 10
-21.1448
 20
452.923
 11
-21.5451
 21
452.439
  0
LINE
  8
0
 10
-21.5451
 20
452.439
 11
-21.8815
 21
451.909
  0
LINE
  8
0
 10
-21.8815
 20
451.909
 11
-22.1489
 21
451.341
  0
LINE
  8
0
 10
-22.1489
 20
451.341
 11
-22.3429
 21
450.743
  0
LINE
  8
0
 10
-22.3429
 20
450.743
 11
-22.4606
 21
450.127
  0
LINE
  8
0
 10
-22.4606
 20
450.127
 11
-22.5
 21
449.5
  0
LINE
  8
0
 10
-22.5
 20
449.5
 11
-22.5
 21
414.5
  0
LINE
  8
0
 10
-22.5
 20
414.5
 11
-22.4606
 21
413.873
  0
LINE
  8
0
 10
-22.4606
 20
413.873
 11
-22.3429
 21
413.257
  0
LINE
  8
0
 10
-22.3429
 20
413.257
 11
-22.1489
 21
412.659
  0
LINE
  8
0
 10
-22.1489
 20
412.659
 11
-21.8815
 21
412.091
  0
LINE
  8
0
 10
-21.8815
 20
412.091
 11
-21.5451
 21
411.561
  0
LINE
  8
0
 10
-21.5451
 20
411.561
 11
-21.1448
 21
411.077
  0
LINE
  8
0
 10
-21.1448
 20
411.077
 11
-20.6871
 21
410.647
  0
LINE
  8
0
 10
-20.6871
 20
410.647
 11
-20.1791
 21
410.278
  0
LINE
  8
0
 10
-20.1791
 20
410.278
 11
-19.6289
 21
409.976
  0
LINE
  8
0
 10
-19.6289
 20
409.976
 11
-19.0451
 21
409.745
  0
LINE
  8
0
 10
-19.0451
 20
409.745
 11
-18.4369
 21
409.589
  0
LINE
  8
0
 10
-18.4369
 20
409.589
 11
-17.8139
 21
409.51
  0
LINE
  8
0
 10
-17.8139
 20
409.51
 11
17.8139
 21
409.51
  0
LINE
  8
0
 10
17.8139
 20
409.51
 11
18.4369
 21
409.589
  0
LINE
  8
0
 10
-17.5482
 20
410.009
 11
-18.1401
 21
410.084
  0
LINE
  8
0
 10
-18.1401
 20
410.084
 11
-18.7178
 21
410.232
  0
LINE
  8
0
 10
-18.7178
 20
410.232
 11
-19.2724
 21
410.452
  0
LINE
  8
0
 10
-19.2724
 20
410.452
 11
-19.7952
 21
410.739
  0
LINE
  8
0
 10
-19.7952
 20
410.739
 11
-20.2778
 21
411.09
  0
LINE
  8
0
 10
-20.2778
 20
411.09
 11
-20.7126
 21
411.498
  0
LINE
  8
0
 10
-20.7126
 20
411.498
 11
-21.0928
 21
411.958
  0
LINE
  8
0
 10
-21.0928
 20
411.958
 11
-21.4124
 21
412.462
  0
LINE
  8
0
 10
-21.4124
 20
412.462
 11
-21.6664
 21
413.001
  0
LINE
  8
0
 10
-21.6664
 20
413.001
 11
-21.8508
 21
413.569
  0
LINE
  8
0
 10
-21.8508
 20
413.569
 11
-21.9625
 21
414.155
  0
LINE
  8
0
 10
-21.9625
 20
414.155
 11
-22
 21
414.75
  0
LINE
  8
0
 10
-22
 20
414.75
 11
-22
 21
449.25
  0
LINE
  8
0
 10
-22
 20
449.25
 11
-21.9625
 21
449.845
  0
LINE
  8
0
 10
-21.9625
 20
449.845
 11
-21.8508
 21
450.431
  0
LINE
  8
0
 10
-21.8508
 20
450.431
 11
-21.6664
 21
450.999
  0
LINE
  8
0
 10
-21.6664
 20
450.999
 11
-21.4124
 21
451.538
  0
LINE
  8
0
 10
-21.4124
 20
451.538
 11
-21.0928
 21
452.042
  0
LINE
  8
0
 10
-21.0928
 20
452.042
 11
-20.7126
 21
452.502
  0
LINE
  8
0
 10
-20.7126
 20
452.502
 11
-20.2778
 21
452.91
  0
LINE
  8
0
 10
-20.2778
 20
452.91
 11
-19.7952
 21
453.261
  0
LINE
  8
0
 10
-19.7952
 20
453.261
 11
-19.2724
 21
453.548
  0
LINE
  8
0
 10
-19.2724
 20
453.548
 11
-18.7178
 21
453.768
  0
LINE
  8
0
 10
-18.7178
 20
453.768
 11
-18.1401
 21
453.916
  0
LINE
  8
0
 10
-18.1401
 20
453.916
 11
-17.5482
 21
453.991
  0
LINE
  8
0
 10
-17.5482
 20
453.991
 11
17.5482
 21
453.991
  0
LINE
  8
0
 10
17.5482
 20
453.991
 11
18.1401
 21
453.916
  0
LINE
  8
0
 10
18.1401
 20
453.916
 11
18.7178
 21
453.768
  0
LINE
  8
0
 10
18.7178
 20
453.768
 11
19.2724
 21
453.548
  0
LINE
  8
0
 10
19.2724
 20
453.548
 11
19.7952
 21
453.261
  0
LINE
  8
0
 10
19.7952
 20
453.261
 11
20.2778
 21
452.91
  0
LINE
  8
0
 10
20.2778
 20
452.91
 11
20.7126
 21
452.502
  0
LINE
  8
0
 10
20.7126
 20
452.502
 11
21.0928
 21
452.042
  0
LINE
  8
0
 10
21.0928
 20
452.042
 11
21.4124
 21
451.538
  0
LINE
  8
0
 10
21.4124
 20
451.538
 11
21.6664
 21
450.999
  0
LINE
  8
0
 10
21.6664
 20
450.999
 11
21.8508
 21
450.431
  0
LINE
  8
0
 10
21.8508
 20
450.431
 11
21.9625
 21
449.845
  0
LINE
  8
0
 10
21.9625
 20
449.845
 11
22
 21
449.25
  0
LINE
  8
0
 10
22
 20
449.25
 11
22
 21
414.75
  0
LINE
  8
0
 10
22
 20
414.75
 11
21.9625
 21
414.155
  0
LINE
  8
0
 10
21.9625
 20
414.155
 11
21.8508
 21
413.569
  0
LINE
  8
0
 10
21.8508
 20
413.569
 11
21.6664
 21
413.001
  0
LINE
  8
0
 10
21.6664
 20
413.001
 11
21.4124
 21
412.462
  0
LINE
  8
0
 10
21.4124
 20
412.462
 11
21.0928
 21
411.958
  0
LINE
  8
0
 10
21.0928
 20
411.958
 11
20.7126
 21
411.498
  0
LINE
  8
0
 10
20.7126
 20
411.498
 11
20.2778
 21
411.09
  0
LINE
  8
0
 10
20.2778
 20
411.09
 11
19.7952
 21
410.739
  0
LINE
  8
0
 10
19.7952
 20
410.739
 11
19.2724
 21
410.452
  0
LINE
  8
0
 10
19.2724
 20
410.452
 11
18.7178
 21
410.232
  0
LINE
  8
0
 10
18.7178
 20
410.232
 11
18.1401
 21
410.084
  0
LINE
  8
0
 10
18.1401
 20
410.084
 11
17.5482
 21
410.009
  0
LINE
  8
0
 10
17.5482
 20
410.009
 11
-17.5482
 21
410.009
  0
LINE
  8
0
 10
18.4369
 20
355.589
 11
19.0451
 21
355.745
  0
LINE
  8
0
 10
19.0451
 20
355.745
 11
19.6289
 21
355.976
  0
LINE
  8
0
 10
19.6289
 20
355.976
 11
20.1791
 21
356.278
  0
LINE
  8
0
 10
20.1791
 20
356.278
 11
20.6871
 21
356.647
  0
LINE
  8
0
 10
20.6871
 20
356.647
 11
21.1448
 21
357.077
  0
LINE
  8
0
 10
21.1448
 20
357.077
 11
21.5451
 21
357.561
  0
LINE
  8
0
 10
21.5451
 20
357.561
 11
21.8815
 21
358.091
  0
LINE
  8
0
 10
21.8815
 20
358.091
 11
22.1489
 21
358.659
  0
LINE
  8
0
 10
22.1489
 20
358.659
 11
22.3429
 21
359.257
  0
LINE
  8
0
 10
22.3429
 20
359.257
 11
22.4606
 21
359.873
  0
LINE
  8
0
 10
22.4606
 20
359.873
 11
22.5
 21
360.5
  0
LINE
  8
0
 10
22.5
 20
360.5
 11
22.5
 21
395.5
  0
LINE
  8
0
 10
22.5
 20
395.5
 11
22.4606
 21
396.127
  0
LINE
  8
0
 10
22.4606
 20
396.127
 11
22.3429
 21
396.743
  0
LINE
  8
0
 10
22.3429
 20
396.743
 11
22.1489
 21
397.341
  0
LINE
  8
0
 10
22.1489
 20
397.341
 11
21.8815
 21
397.909
  0
LINE
  8
0
 10
21.8815
 20
397.909
 11
21.5451
 21
398.439
  0
LINE
  8
0
 10
21.5451
 20
398.439
 11
21.1448
 21
398.923
  0
LINE
  8
0
 10
21.1448
 20
398.923
 11
20.6871
 21
399.353
  0
LINE
  8
0
 10
20.6871
 20
399.353
 11
20.1791
 21
399.722
  0
LINE
  8
0
 10
20.1791
 20
399.722
 11
19.6289
 21
400.024
  0
LINE
  8
0
 10
19.6289
 20
400.024
 11
19.0451
 21
400.255
  0
LINE
  8
0
 10
19.0451
 20
400.255
 11
18.4369
 21
400.411
  0
LINE
  8
0
 10
18.4369
 20
400.411
 11
17.8139
 21
400.49
  0
LINE
  8
0
 10
17.8139
 20
400.49
 11
-17.8139
 21
400.49
  0
LINE
  8
0
 10
-17.8139
 20
400.49
 11
-18.4369
 21
400.411
  0
LINE
  8
0
 10
-18.4369
 20
400.411
 11
-19.0451
 21
400.255
  0
LINE
  8
0
 10
-19.0451
 20
400.255
 11
-19.6289
 21
400.024
  0
LINE
  8
0
 10
-19.6289
 20
400.024
 11
-20.1791
 21
399.722
  0
LINE
  8
0
 10
-20.1791
 20
399.722
 11
-20.6871
 21
399.353
  0
LINE
  8
0
 10
-20.6871
 20
399.353
 11
-21.1448
 21
398.923
  0
LINE
  8
0
 10
-21.1448
 20
398.923
 11
-21.5451
 21
398.439
  0
LINE
  8
0
 10
-21.5451
 20
398.439
 11
-21.8815
 21
397.909
  0
LINE
  8
0
 10
-21.8815
 20
397.909
 11
-22.1489
 21
397.341
  0
LINE
  8
0
 10
-22.1489
 20
397.341
 11
-22.3429
 21
396.743
  0
LINE
  8
0
 10
-22.3429
 20
396.743
 11
-22.4606
 21
396.127
  0
LINE
  8
0
 10
-22.4606
 20
396.127
 11
-22.5
 21
395.5
  0
LINE
  8
0
 10
-22.5
 20
395.5
 11
-22.5
 21
360.5
  0
LINE
  8
0
 10
-22.5
 20
360.5
 11
-22.4606
 21
359.873
  0
LINE
  8
0
 10
-22.4606
 20
359.873
 11
-22.3429
 21
359.257
  0
LINE
  8
0
 10
-22.3429
 20
359.257
 11
-22.1489
 21
358.659
  0
LINE
  8
0
 10
-22.1489
 20
358.659
 11
-21.8815
 21
358.091
  0
LINE
  8
0
 10
-21.8815
 20
358.091
 11
-21.5451
 21
357.561
  0
LINE
  8
0
 10
-21.5451
 20
357.561
 11
-21.1448
 21
357.077
  0
LINE
  8
0
 10
-21.1448
 20
357.077
 11
-20.6871
 21
356.647
  0
LINE
  8
0
 10
-20.6871
 20
356.647
 11
-20.1791
 21
356.278
  0
LINE
  8
0
 10
-20.1791
 20
356.278
 11
-19.6289
 21
355.976
  0
LINE
  8
0
 10
-19.6289
 20
355.976
 11
-19.0451
 21
355.745
  0
LINE
  8
0
 10
-19.0451
 20
355.745
 11
-18.4369
 21
355.589
  0
LINE
  8
0
 10
-18.4369
 20
355.589
 11
-17.8139
 21
355.51
  0
LINE
  8
0
 10
-17.8139
 20
355.51
 11
17.8139
 21
355.51
  0
LINE
  8
0
 10
17.8139
 20
355.51
 11
18.4369
 21
355.589
  0
LINE
  8
0
 10
-17.5482
 20
356.009
 11
-18.1401
 21
356.084
  0
LINE
  8
0
 10
-18.1401
 20
356.084
 11
-18.7178
 21
356.232
  0
LINE
  8
0
 10
-18.7178
 20
356.232
 11
-19.2724
 21
356.452
  0
LINE
  8
0
 10
-19.2724
 20
356.452
 11
-19.7952
 21
356.739
  0
LINE
  8
0
 10
-19.7952
 20
356.739
 11
-20.2778
 21
357.09
  0
LINE
  8
0
 10
-20.2778
 20
357.09
 11
-20.7126
 21
357.498
  0
LINE
  8
0
 10
-20.7126
 20
357.498
 11
-21.0928
 21
357.958
  0
LINE
  8
0
 10
-21.0928
 20
357.958
 11
-21.4124
 21
358.462
  0
LINE
  8
0
 10
-21.4124
 20
358.462
 11
-21.6664
 21
359.001
  0
LINE
  8
0
 10
-21.6664
 20
359.001
 11
-21.8508
 21
359.569
  0
LINE
  8
0
 10
-21.8508
 20
359.569
 11
-21.9625
 21
360.155
  0
LINE
  8
0
 10
-21.9625
 20
360.155
 11
-22
 21
360.75
  0
LINE
  8
0
 10
-22
 20
360.75
 11
-22
 21
395.25
  0
LINE
  8
0
 10
-22
 20
395.25
 11
-21.9625
 21
395.845
  0
LINE
  8
0
 10
-21.9625
 20
395.845
 11
-21.8508
 21
396.431
  0
LINE
  8
0
 10
-21.8508
 20
396.431
 11
-21.6664
 21
396.999
  0
LINE
  8
0
 10
-21.6664
 20
396.999
 11
-21.4124
 21
397.538
  0
LINE
  8
0
 10
-21.4124
 20
397.538
 11
-21.0928
 21
398.042
  0
LINE
  8
0
 10
-21.0928
 20
398.042
 11
-20.7126
 21
398.502
  0
LINE
  8
0
 10
-20.7126
 20
398.502
 11
-20.2778
 21
398.91
  0
LINE
  8
0
 10
-20.2778
 20
398.91
 11
-19.7952
 21
399.261
  0
LINE
  8
0
 10
-19.7952
 20
399.261
 11
-19.2724
 21
399.548
  0
LINE
  8
0
 10
-19.2724
 20
399.548
 11
-18.7178
 21
399.768
  0
LINE
  8
0
 10
-18.7178
 20
399.768
 11
-18.1401
 21
399.916
  0
LINE
  8
0
 10
-18.1401
 20
399.916
 11
-17.5482
 21
399.991
  0
LINE
  8
0
 10
-17.5482
 20
399.991
 11
17.5482
 21
399.991
  0
LINE
  8
0
 10
17.5482
 20
399.991
 11
18.1401
 21
399.916
  0
LINE
  8
0
 10
18.1401
 20
399.916
 11
18.7178
 21
399.768
  0
LINE
  8
0
 10
18.7178
 20
399.768
 11
19.2724
 21
399.548
  0
LINE
  8
0
 10
19.2724
 20
399.548
 11
19.7952
 21
399.261
  0
LINE
  8
0
 10
19.7952
 20
399.261
 11
20.2778
 21
398.91
  0
LINE
  8
0
 10
20.2778
 20
398.91
 11
20.7126
 21
398.502
  0
LINE
  8
0
 10
20.7126
 20
398.502
 11
21.0928
 21
398.042
  0
LINE
  8
0
 10
21.0928
 20
398.042
 11
21.4124
 21
397.538
  0
LINE
  8
0
 10
21.4124
 20
397.538
 11
21.6664
 21
396.999
  0
LINE
  8
0
 10
21.6664
 20
396.999
 11
21.8508
 21
396.431
  0
LINE
  8
0
 10
21.8508
 20
396.431
 11
21.9625
 21
395.845
  0
LINE
  8
0
 10
21.9625
 20
395.845
 11
22
 21
395.25
  0
LINE
  8
0
 10
22
 20
395.25
 11
22
 21
360.75
  0
LINE
  8
0
 10
22
 20
360.75
 11
21.9625
 21
360.155
  0
LINE
  8
0
 10
21.9625
 20
360.155
 11
21.8508
 21
359.569
  0
LINE
  8
0
 10
21.8508
 20
359.569
 11
21.6664
 21
359.001
  0
LINE
  8
0
 10
21.6664
 20
359.001
 11
21.4124
 21
358.462
  0
LINE
  8
0
 10
21.4124
 20
358.462
 11
21.0928
 21
357.958
  0
LINE
  8
0
 10
21.0928
 20
357.958
 11
20.7126
 21
357.498
  0
LINE
  8
0
 10
20.7126
 20
357.498
 11
20.2778
 21
357.09
  0
LINE
  8
0
 10
20.2778
 20
357.09
 11
19.7952
 21
356.739
  0
LINE
  8
0
 10
19.7952
 20
356.739
 11
19.2724
 21
356.452
  0
LINE
  8
0
 10
19.2724
 20
356.452
 11
18.7178
 21
356.232
  0
LINE
  8
0
 10
18.7178
 20
356.232
 11
18.1401
 21
356.084
  0
LINE
  8
0
 10
18.1401
 20
356.084
 11
17.5482
 21
356.009
  0
LINE
  8
0
 10
17.5482
 20
356.009
 11
-17.5482
 21
356.009
  0
LINE
  8
0
 10
18.4369
 20
301.589
 11
19.0451
 21
301.745
  0
LINE
  8
0
 10
19.0451
 20
301.745
 11
19.6289
 21
301.976
  0
LINE
  8
0
 10
19.6289
 20
301.976
 11
20.1791
 21
302.278
  0
LINE
  8
0
 10
20.1791
 20
302.278
 11
20.6871
 21
302.647
  0
LINE
  8
0
 10
20.6871
 20
302.647
 11
21.1448
 21
303.077
  0
LINE
  8
0
 10
21.1448
 20
303.077
 11
21.5451
 21
303.561
  0
LINE
  8
0
 10
21.5451
 20
303.561
 11
21.8815
 21
304.091
  0
LINE
  8
0
 10
21.8815
 20
304.091
 11
22.1489
 21
304.659
  0
LINE
  8
0
 10
22.1489
 20
304.659
 11
22.3429
 21
305.257
  0
LINE
  8
0
 10
22.3429
 20
305.257
 11
22.4606
 21
305.873
  0
LINE
  8
0
 10
22.4606
 20
305.873
 11
22.5
 21
306.5
  0
LINE
  8
0
 10
22.5
 20
306.5
 11
22.5
 21
341.5
  0
LINE
  8
0
 10
22.5
 20
341.5
 11
22.4606
 21
342.127
  0
LINE
  8
0
 10
22.4606
 20
342.127
 11
22.3429
 21
342.743
  0
LINE
  8
0
 10
22.3429
 20
342.743
 11
22.1489
 21
343.341
  0
LINE
  8
0
 10
22.1489
 20
343.341
 11
21.8815
 21
343.909
  0
LINE
  8
0
 10
21.8815
 20
343.909
 11
21.5451
 21
344.439
  0
LINE
  8
0
 10
21.5451
 20
344.439
 11
21.1448
 21
344.923
  0
LINE
  8
0
 10
21.1448
 20
344.923
 11
20.6871
 21
345.353
  0
LINE
  8
0
 10
20.6871
 20
345.353
 11
20.1791
 21
345.722
  0
LINE
  8
0
 10
20.1791
 20
345.722
 11
19.6289
 21
346.024
  0
LINE
  8
0
 10
19.6289
 20
346.024
 11
19.0451
 21
346.255
  0
LINE
  8
0
 10
19.0451
 20
346.255
 11
18.4369
 21
346.411
  0
LINE
  8
0
 10
18.4369
 20
346.411
 11
17.8139
 21
346.49
  0
LINE
  8
0
 10
17.8139
 20
346.49
 11
-17.8139
 21
346.49
  0
LINE
  8
0
 10
-17.8139
 20
346.49
 11
-18.4369
 21
346.411
  0
LINE
  8
0
 10
-18.4369
 20
346.411
 11
-19.0451
 21
346.255
  0
LINE
  8
0
 10
-19.0451
 20
346.255
 11
-19.6289
 21
346.024
  0
LINE
  8
0
 10
-19.6289
 20
346.024
 11
-20.1791
 21
345.722
  0
LINE
  8
0
 10
-20.1791
 20
345.722
 11
-20.6871
 21
345.353
  0
LINE
  8
0
 10
-20.6871
 20
345.353
 11
-21.1448
 21
344.923
  0
LINE
  8
0
 10
-21.1448
 20
344.923
 11
-21.5451
 21
344.439
  0
LINE
  8
0
 10
-21.5451
 20
344.439
 11
-21.8815
 21
343.909
  0
LINE
  8
0
 10
-21.8815
 20
343.909
 11
-22.1489
 21
343.341
  0
LINE
  8
0
 10
-22.1489
 20
343.341
 11
-22.3429
 21
342.743
  0
LINE
  8
0
 10
-22.3429
 20
342.743
 11
-22.4606
 21
342.127
  0
LINE
  8
0
 10
-22.4606
 20
342.127
 11
-22.5
 21
341.5
  0
LINE
  8
0
 10
-22.5
 20
341.5
 11
-22.5
 21
306.5
  0
LINE
  8
0
 10
-22.5
 20
306.5
 11
-22.4606
 21
305.873
  0
LINE
  8
0
 10
-22.4606
 20
305.873
 11
-22.3429
 21
305.257
  0
LINE
  8
0
 10
-22.3429
 20
305.257
 11
-22.1489
 21
304.659
  0
LINE
  8
0
 10
-22.1489
 20
304.659
 11
-21.8815
 21
304.091
  0
LINE
  8
0
 10
-21.8815
 20
304.091
 11
-21.5451
 21
303.561
  0
LINE
  8
0
 10
-21.5451
 20
303.561
 11
-21.1448
 21
303.077
  0
LINE
  8
0
 10
-21.1448
 20
303.077
 11
-20.6871
 21
302.647
  0
LINE
  8
0
 10
-20.6871
 20
302.647
 11
-20.1791
 21
302.278
  0
LINE
  8
0
 10
-20.1791
 20
302.278
 11
-19.6289
 21
301.976
  0
LINE
  8
0
 10
-19.6289
 20
301.976
 11
-19.0451
 21
301.745
  0
LINE
  8
0
 10
-19.0451
 20
301.745
 11
-18.4369
 21
301.589
  0
LINE
  8
0
 10
-18.4369
 20
301.589
 11
-17.8139
 21
301.51
  0
LINE
  8
0
 10
-17.8139
 20
301.51
 11
17.8139
 21
301.51
  0
LINE
  8
0
 10
17.8139
 20
301.51
 11
18.4369
 21
301.589
  0
LINE
  8
0
 10
-17.5375
 20
302.181
 11
-18.1079
 21
302.253
  0
LINE
  8
0
 10
-18.1079
 20
302.253
 11
-18.6648
 21
302.396
  0
LINE
  8
0
 10
-18.6648
 20
302.396
 11
-19.1994
 21
302.607
  0
LINE
  8
0
 10
-19.1994
 20
302.607
 11
-19.7032
 21
302.884
  0
LINE
  8
0
 10
-19.7032
 20
302.884
 11
-20.1684
 21
303.222
  0
LINE
  8
0
 10
-20.1684
 20
303.222
 11
-20.5875
 21
303.616
  0
LINE
  8
0
 10
-20.5875
 20
303.616
 11
-20.954
 21
304.059
  0
LINE
  8
0
 10
-20.954
 20
304.059
 11
-21.2621
 21
304.544
  0
LINE
  8
0
 10
-21.2621
 20
304.544
 11
-21.5069
 21
305.065
  0
LINE
  8
0
 10
-21.5069
 20
305.065
 11
-21.6846
 21
305.611
  0
LINE
  8
0
 10
-21.6846
 20
305.611
 11
-21.7923
 21
306.176
  0
LINE
  8
0
 10
-21.7923
 20
306.176
 11
-21.8284
 21
306.75
  0
LINE
  8
0
 10
-21.8284
 20
306.75
 11
-21.8284
 21
341.25
  0
LINE
  8
0
 10
-21.8284
 20
341.25
 11
-21.7923
 21
341.824
  0
LINE
  8
0
 10
-21.7923
 20
341.824
 11
-21.6846
 21
342.389
  0
LINE
  8
0
 10
-21.6846
 20
342.389
 11
-21.5069
 21
342.935
  0
LINE
  8
0
 10
-21.5069
 20
342.935
 11
-21.2621
 21
343.456
  0
LINE
  8
0
 10
-21.2621
 20
343.456
 11
-20.954
 21
343.941
  0
LINE
  8
0
 10
-20.954
 20
343.941
 11
-20.5875
 21
344.384
  0
LINE
  8
0
 10
-20.5875
 20
344.384
 11
-20.1684
 21
344.778
  0
LINE
  8
0
 10
-20.1684
 20
344.778
 11
-19.7032
 21
345.116
  0
LINE
  8
0
 10
-19.7032
 20
345.116
 11
-19.1994
 21
345.393
  0
LINE
  8
0
 10
-19.1994
 20
345.393
 11
-18.6648
 21
345.604
  0
LINE
  8
0
 10
-18.6648
 20
345.604
 11
-18.1079
 21
345.747
  0
LINE
  8
0
 10
-18.1079
 20
345.747
 11
-17.5375
 21
345.819
  0
LINE
  8
0
 10
-17.5375
 20
345.819
 11
17.5375
 21
345.819
  0
LINE
  8
0
 10
17.5375
 20
345.819
 11
18.1079
 21
345.747
  0
LINE
  8
0
 10
18.1079
 20
345.747
 11
18.6648
 21
345.604
  0
LINE
  8
0
 10
18.6648
 20
345.604
 11
19.1994
 21
345.393
  0
LINE
  8
0
 10
19.1994
 20
345.393
 11
19.7032
 21
345.116
  0
LINE
  8
0
 10
19.7032
 20
345.116
 11
20.1684
 21
344.778
  0
LINE
  8
0
 10
20.1684
 20
344.778
 11
20.5875
 21
344.384
  0
LINE
  8
0
 10
20.5875
 20
344.384
 11
20.954
 21
343.941
  0
LINE
  8
0
 10
20.954
 20
343.941
 11
21.2621
 21
343.456
  0
LINE
  8
0
 10
21.2621
 20
343.456
 11
21.5069
 21
342.935
  0
LINE
  8
0
 10
21.5069
 20
342.935
 11
21.6846
 21
342.389
  0
LINE
  8
0
 10
21.6846
 20
342.389
 11
21.7923
 21
341.824
  0
LINE
  8
0
 10
21.7923
 20
341.824
 11
21.8284
 21
341.25
  0
LINE
  8
0
 10
21.8284
 20
341.25
 11
21.8284
 21
306.75
  0
LINE
  8
0
 10
21.8284
 20
306.75
 11
21.7923
 21
306.176
  0
LINE
  8
0
 10
21.7923
 20
306.176
 11
21.6846
 21
305.611
  0
LINE
  8
0
 10
21.6846
 20
305.611
 11
21.5069
 21
305.065
  0
LINE
  8
0
 10
21.5069
 20
305.065
 11
21.2621
 21
304.544
  0
LINE
  8
0
 10
21.2621
 20
304.544
 11
20.954
 21
304.059
  0
LINE
  8
0
 10
20.954
 20
304.059
 11
20.5875
 21
303.616
  0
LINE
  8
0
 10
20.5875
 20
303.616
 11
20.1684
 21
303.222
  0
LINE
  8
0
 10
20.1684
 20
303.222
 11
19.7032
 21
302.884
  0
LINE
  8
0
 10
19.7032
 20
302.884
 11
19.1994
 21
302.607
  0
LINE
  8
0
 10
19.1994
 20
302.607
 11
18.6648
 21
302.396
  0
LINE
  8
0
 10
18.6648
 20
302.396
 11
18.1079
 21
302.253
  0
LINE
  8
0
 10
18.1079
 20
302.253
 11
17.5375
 21
302.181
  0
LINE
  8
0
 10
17.5375
 20
302.181
 11
-17.5375
 21
302.181
  0
LINE
  8
0
 10
18.4369
 20
247.589
 11
19.0451
 21
247.745
  0
LINE
  8
0
 10
19.0451
 20
247.745
 11
19.6289
 21
247.976
  0
LINE
  8
0
 10
19.6289
 20
247.976
 11
20.1791
 21
248.278
  0
LINE
  8
0
 10
20.1791
 20
248.278
 11
20.6871
 21
248.647
  0
LINE
  8
0
 10
20.6871
 20
248.647
 11
21.1448
 21
249.077
  0
LINE
  8
0
 10
21.1448
 20
249.077
 11
21.5451
 21
249.561
  0
LINE
  8
0
 10
21.5451
 20
249.561
 11
21.8815
 21
250.091
  0
LINE
  8
0
 10
21.8815
 20
250.091
 11
22.1489
 21
250.659
  0
LINE
  8
0
 10
22.1489
 20
250.659
 11
22.3429
 21
251.257
  0
LINE
  8
0
 10
22.3429
 20
251.257
 11
22.4606
 21
251.873
  0
LINE
  8
0
 10
22.4606
 20
251.873
 11
22.5
 21
252.5
  0
LINE
  8
0
 10
22.5
 20
252.5
 11
22.5
 21
287.5
  0
LINE
  8
0
 10
22.5
 20
287.5
 11
22.4606
 21
288.127
  0
LINE
  8
0
 10
22.4606
 20
288.127
 11
22.3429
 21
288.743
  0
LINE
  8
0
 10
22.3429
 20
288.743
 11
22.1489
 21
289.341
  0
LINE
  8
0
 10
22.1489
 20
289.341
 11
21.8815
 21
289.909
  0
LINE
  8
0
 10
21.8815
 20
289.909
 11
21.5451
 21
290.439
  0
LINE
  8
0
 10
21.5451
 20
290.439
 11
21.1448
 21
290.923
  0
LINE
  8
0
 10
21.1448
 20
290.923
 11
20.6871
 21
291.353
  0
LINE
  8
0
 10
20.6871
 20
291.353
 11
20.1791
 21
291.722
  0
LINE
  8
0
 10
20.1791
 20
291.722
 11
19.6289
 21
292.024
  0
LINE
  8
0
 10
19.6289
 20
292.024
 11
19.0451
 21
292.255
  0
LINE
  8
0
 10
19.0451
 20
292.255
 11
18.4369
 21
292.411
  0
LINE
  8
0
 10
18.4369
 20
292.411
 11
17.8139
 21
292.49
  0
LINE
  8
0
 10
17.8139
 20
292.49
 11
-17.8139
 21
292.49
  0
LINE
  8
0
 10
-17.8139
 20
292.49
 11
-18.4369
 21
292.411
  0
LINE
  8
0
 10
-18.4369
 20
292.411
 11
-19.0451
 21
292.255
  0
LINE
  8
0
 10
-19.0451
 20
292.255
 11
-19.6289
 21
292.024
  0
LINE
  8
0
 10
-19.6289
 20
292.024
 11
-20.1791
 21
291.722
  0
LINE
  8
0
 10
-20.1791
 20
291.722
 11
-20.6871
 21
291.353
  0
LINE
  8
0
 10
-20.6871
 20
291.353
 11
-21.1448
 21
290.923
  0
LINE
  8
0
 10
-21.1448
 20
290.923
 11
-21.5451
 21
290.439
  0
LINE
  8
0
 10
-21.5451
 20
290.439
 11
-21.8815
 21
289.909
  0
LINE
  8
0
 10
-21.8815
 20
289.909
 11
-22.1489
 21
289.341
  0
LINE
  8
0
 10
-22.1489
 20
289.341
 11
-22.3429
 21
288.743
  0
LINE
  8
0
 10
-22.3429
 20
288.743
 11
-22.4606
 21
288.127
  0
LINE
  8
0
 10
-22.4606
 20
288.127
 11
-22.5
 21
287.5
  0
LINE
  8
0
 10
-22.5
 20
287.5
 11
-22.5
 21
252.5
  0
LINE
  8
0
 10
-22.5
 20
252.5
 11
-22.4606
 21
251.873
  0
LINE
  8
0
 10
-22.4606
 20
251.873
 11
-22.3429
 21
251.257
  0
LINE
  8
0
 10
-22.3429
 20
251.257
 11
-22.1489
 21
250.659
  0
LINE
  8
0
 10
-22.1489
 20
250.659
 11
-21.8815
 21
250.091
  0
LINE
  8
0
 10
-21.8815
 20
250.091
 11
-21.5451
 21
249.561
  0
LINE
  8
0
 10
-21.5451
 20
249.561
 11
-21.1448
 21
249.077
  0
LINE
  8
0
 10
-21.1448
 20
249.077
 11
-20.6871
 21
248.647
  0
LINE
  8
0
 10
-20.6871
 20
248.647
 11
-20.1791
 21
248.278
  0
LINE
  8
0
 10
-20.1791
 20
248.278
 11
-19.6289
 21
247.976
  0
LINE
  8
0
 10
-19.6289
 20
247.976
 11
-19.0451
 21
247.745
  0
LINE
  8
0
 10
-19.0451
 20
247.745
 11
-18.4369
 21
247.589
  0
LINE
  8
0
 10
-18.4369
 20
247.589
 11
-17.8139
 21
247.51
  0
LINE
  8
0
 10
-17.8139
 20
247.51
 11
17.8139
 21
247.51
  0
LINE
  8
0
 10
17.8139
 20
247.51
 11
18.4369
 21
247.589
  0
LINE
  8
0
 10
-17.3825
 20
250.645
 11
-17.6453
 21
250.678
  0
LINE
  8
0
 10
-17.6453
 20
250.678
 11
-17.9019
 21
250.744
  0
LINE
  8
0
 10
-17.9019
 20
250.744
 11
-18.1482
 21
250.841
  0
LINE
  8
0
 10
-18.1482
 20
250.841
 11
-18.3804
 21
250.969
  0
LINE
  8
0
 10
-18.3804
 20
250.969
 11
-18.5947
 21
251.125
  0
LINE
  8
0
 10
-18.5947
 20
251.125
 11
-18.7879
 21
251.306
  0
LINE
  8
0
 10
-18.7879
 20
251.306
 11
-18.9567
 21
251.51
  0
LINE
  8
0
 10
-18.9567
 20
251.51
 11
-19.0987
 21
251.734
  0
LINE
  8
0
 10
-19.0987
 20
251.734
 11
-19.2115
 21
251.973
  0
LINE
  8
0
 10
-19.2115
 20
251.973
 11
-19.2934
 21
252.225
  0
LINE
  8
0
 10
-19.2934
 20
252.225
 11
-19.343
 21
252.486
  0
LINE
  8
0
 10
-19.343
 20
252.486
 11
-19.3596
 21
252.75
  0
LINE
  8
0
 10
-19.3596
 20
252.75
 11
-19.3596
 21
287.25
  0
LINE
  8
0
 10
-19.3596
 20
287.25
 11
-19.343
 21
287.514
  0
LINE
  8
0
 10
-19.343
 20
287.514
 11
-19.2934
 21
287.775
  0
LINE
  8
0
 10
-19.2934
 20
287.775
 11
-19.2115
 21
288.027
  0
LINE
  8
0
 10
-19.2115
 20
288.027
 11
-19.0987
 21
288.266
  0
LINE
  8
0
 10
-19.0987
 20
288.266
 11
-18.9567
 21
288.49
  0
LINE
  8
0
 10
-18.9567
 20
288.49
 11
-18.7879
 21
288.694
  0
LINE
  8
0
 10
-18.7879
 20
288.694
 11
-18.5947
 21
288.875
  0
LINE
  8
0
 10
-18.5947
 20
288.875
 11
-18.3804
 21
289.031
  0
LINE
  8
0
 10
-18.3804
 20
289.031
 11
-18.1482
 21
289.159
  0
LINE
  8
0
 10
-18.1482
 20
289.159
 11
-17.9019
 21
289.256
  0
LINE
  8
0
 10
-17.9019
 20
289.256
 11
-17.6453
 21
289.322
  0
LINE
  8
0
 10
-17.6453
 20
289.322
 11
-17.3825
 21
289.355
  0
LINE
  8
0
 10
-17.3825
 20
289.355
 11
17.3825
 21
289.355
  0
LINE
  8
0
 10
17.3825
 20
289.355
 11
17.6453
 21
289.322
  0
LINE
  8
0
 10
17.6453
 20
289.322
 11
17.9019
 21
289.256
  0
LINE
  8
0
 10
17.9019
 20
289.256
 11
18.1482
 21
289.159
  0
LINE
  8
0
 10
18.1482
 20
289.159
 11
18.3804
 21
289.031
  0
LINE
  8
0
 10
18.3804
 20
289.031
 11
18.5947
 21
288.875
  0
LINE
  8
0
 10
18.5947
 20
288.875
 11
18.7879
 21
288.694
  0
LINE
  8
0
 10
18.7879
 20
288.694
 11
18.9567
 21
288.49
  0
LINE
  8
0
 10
18.9567
 20
288.49
 11
19.0987
 21
288.266
  0
LINE
  8
0
 10
19.0987
 20
288.266
 11
19.2115
 21
288.027
  0
LINE
  8
0
 10
19.2115
 20
288.027
 11
19.2934
 21
287.775
  0
LINE
  8
0
 10
19.2934
 20
287.775
 11
19.343
 21
287.514
  0
LINE
  8
0
 10
19.343
 20
287.514
 11
19.3596
 21
287.25
  0
LINE
  8
0
 10
19.3596
 20
287.25
 11
19.3596
 21
252.75
  0
LINE
  8
0
 10
19.3596
 20
252.75
 11
19.343
 21
252.486
  0
LINE
  8
0
 10
19.343
 20
252.486
 11
19.2934
 21
252.225
  0
LINE
  8
0
 10
19.2934
 20
252.225
 11
19.2115
 21
251.973
  0
LINE
  8
0
 10
19.2115
 20
251.973
 11
19.0987
 21
251.734
  0
LINE
  8
0
 10
19.0987
 20
251.734
 11
18.9567
 21
251.51
  0
LINE
  8
0
 10
18.9567
 20
251.51
 11
18.7879
 21
251.306
  0
LINE
  8
0
 10
18.7879
 20
251.306
 11
18.5947
 21
251.125
  0
LINE
  8
0
 10
18.5947
 20
251.125
 11
18.3804
 21
250.969
  0
LINE
  8
0
 10
18.3804
 20
250.969
 11
18.1482
 21
250.841
  0
LINE
  8
0
 10
18.1482
 20
250.841
 11
17.9019
 21
250.744
  0
LINE
  8
0
 10
17.9019
 20
250.744
 11
17.6453
 21
250.678
  0
LINE
  8
0
 10
17.6453
 20
250.678
 11
17.3825
 21
250.645
  0
LINE
  8
0
 10
17.3825
 20
250.645
 11
-17.3825
 21
250.645
  0
ENDSEC
  0
SECTION
  2
OBJECTS
  0
DICTIONARY
  0
ENDSEC
  0
EOF
