  0
SECTION
  2
BLOCKS
  0
ENDSEC
  0
SECTION
  2
ENTITIES
  0
LINE
  8
0
 10
25.9369
 20
252.089
 11
26.5451
 21
252.245
  0
LINE
  8
0
 10
26.5451
 20
252.245
 11
27.1289
 21
252.476
  0
LINE
  8
0
 10
27.1289
 20
252.476
 11
27.6791
 21
252.778
  0
LINE
  8
0
 10
27.6791
 20
252.778
 11
28.1871
 21
253.147
  0
LINE
  8
0
 10
28.1871
 20
253.147
 11
28.6448
 21
253.577
  0
LINE
  8
0
 10
28.6448
 20
253.577
 11
29.0451
 21
254.061
  0
LINE
  8
0
 10
29.0451
 20
254.061
 11
29.3815
 21
254.591
  0
LINE
  8
0
 10
29.3815
 20
254.591
 11
29.6489
 21
255.159
  0
LINE
  8
0
 10
29.6489
 20
255.159
 11
29.8429
 21
255.757
  0
LINE
  8
0
 10
29.8429
 20
255.757
 11
29.9606
 21
256.373
  0
LINE
  8
0
 10
29.9606
 20
256.373
 11
30
 21
257
  0
LINE
  8
0
 10
30
 20
257
 11
30
 21
337
  0
LINE
  8
0
 10
30
 20
337
 11
29.9606
 21
337.627
  0
LINE
  8
0
 10
29.9606
 20
337.627
 11
29.8429
 21
338.243
  0
LINE
  8
0
 10
29.8429
 20
338.243
 11
29.6489
 21
338.841
  0
LINE
  8
0
 10
29.6489
 20
338.841
 11
29.3815
 21
339.409
  0
LINE
  8
0
 10
29.3815
 20
339.409
 11
29.0451
 21
339.939
  0
LINE
  8
0
 10
29.0451
 20
339.939
 11
28.6448
 21
340.423
  0
LINE
  8
0
 10
28.6448
 20
340.423
 11
28.1871
 21
340.853
  0
LINE
  8
0
 10
28.1871
 20
340.853
 11
27.6791
 21
341.222
  0
LINE
  8
0
 10
27.6791
 20
341.222
 11
27.1289
 21
341.524
  0
LINE
  8
0
 10
27.1289
 20
341.524
 11
26.5451
 21
341.755
  0
LINE
  8
0
 10
26.5451
 20
341.755
 11
25.9369
 21
341.911
  0
LINE
  8
0
 10
25.9369
 20
341.911
 11
25.3139
 21
341.99
  0
LINE
  8
0
 10
25.3139
 20
341.99
 11
-25.3139
 21
341.99
  0
LINE
  8
0
 10
-25.3139
 20
341.99
 11
-25.9369
 21
341.911
  0
LINE
  8
0
 10
-25.9369
 20
341.911
 11
-26.5451
 21
341.755
  0
LINE
  8
0
 10
-26.5451
 20
341.755
 11
-27.1289
 21
341.524
  0
LINE
  8
0
 10
-27.1289
 20
341.524
 11
-27.6791
 21
341.222
  0
LINE
  8
0
 10
-27.6791
 20
341.222
 11
-28.1871
 21
340.853
  0
LINE
  8
0
 10
-28.1871
 20
340.853
 11
-28.6448
 21
340.423
  0
LINE
  8
0
 10
-28.6448
 20
340.423
 11
-29.0451
 21
339.939
  0
LINE
  8
0
 10
-29.0451
 20
339.939
 11
-29.3815
 21
339.409
  0
LINE
  8
0
 10
-29.3815
 20
339.409
 11
-29.6489
 21
338.841
  0
LINE
  8
0
 10
-29.6489
 20
338.841
 11
-29.8429
 21
338.243
  0
LINE
  8
0
 10
-29.8429
 20
338.243
 11
-29.9606
 21
337.627
  0
LINE
  8
0
 10
-29.9606
 20
337.627
 11
-30
 21
337
  0
LINE
  8
0
 10
-30
 20
337
 11
-30
 21
257
  0
LINE
  8
0
 10
-30
 20
257
 11
-29.9606
 21
256.373
  0
LINE
  8
0
 10
-29.9606
 20
256.373
 11
-29.8429
 21
255.757
  0
LINE
  8
0
 10
-29.8429
 20
255.757
 11
-29.6489
 21
255.159
  0
LINE
  8
0
 10
-29.6489
 20
255.159
 11
-29.3815
 21
254.591
  0
LINE
  8
0
 10
-29.3815
 20
254.591
 11
-29.0451
 21
254.061
  0
LINE
  8
0
 10
-29.0451
 20
254.061
 11
-28.6448
 21
253.577
  0
LINE
  8
0
 10
-28.6448
 20
253.577
 11
-28.1871
 21
253.147
  0
LINE
  8
0
 10
-28.1871
 20
253.147
 11
-27.6791
 21
252.778
  0
LINE
  8
0
 10
-27.6791
 20
252.778
 11
-27.1289
 21
252.476
  0
LINE
  8
0
 10
-27.1289
 20
252.476
 11
-26.5451
 21
252.245
  0
LINE
  8
0
 10
-26.5451
 20
252.245
 11
-25.9369
 21
252.089
  0
LINE
  8
0
 10
-25.9369
 20
252.089
 11
-25.3139
 21
252.01
  0
LINE
  8
0
 10
-25.3139
 20
252.01
 11
25.3139
 21
252.01
  0
LINE
  8
0
 10
25.3139
 20
252.01
 11
25.9369
 21
252.089
  0
LINE
  8
0
 10
-24.6954
 20
254.393
 11
-25.0833
 21
254.442
  0
LINE
  8
0
 10
-25.0833
 20
254.442
 11
-25.4619
 21
254.539
  0
LINE
  8
0
 10
-25.4619
 20
254.539
 11
-25.8254
 21
254.683
  0
LINE
  8
0
 10
-25.8254
 20
254.683
 11
-26.168
 21
254.872
  0
LINE
  8
0
 10
-26.168
 20
254.872
 11
-26.4842
 21
255.101
  0
LINE
  8
0
 10
-26.4842
 20
255.101
 11
-26.7692
 21
255.369
  0
LINE
  8
0
 10
-26.7692
 20
255.369
 11
-27.0184
 21
255.67
  0
LINE
  8
0
 10
-27.0184
 20
255.67
 11
-27.2279
 21
256
  0
LINE
  8
0
 10
-27.2279
 20
256
 11
-27.3943
 21
256.354
  0
LINE
  8
0
 10
-27.3943
 20
256.354
 11
-27.5151
 21
256.726
  0
LINE
  8
0
 10
-27.5151
 20
256.726
 11
-27.5884
 21
257.11
  0
LINE
  8
0
 10
-27.5884
 20
257.11
 11
-27.6129
 21
257.5
  0
LINE
  8
0
 10
-27.6129
 20
257.5
 11
-27.6129
 21
336.5
  0
LINE
  8
0
 10
-27.6129
 20
336.5
 11
-27.5884
 21
336.89
  0
LINE
  8
0
 10
-27.5884
 20
336.89
 11
-27.5151
 21
337.274
  0
LINE
  8
0
 10
-27.5151
 20
337.274
 11
-27.3943
 21
337.646
  0
LINE
  8
0
 10
-27.3943
 20
337.646
 11
-27.2279
 21
338
  0
LINE
  8
0
 10
-27.2279
 20
338
 11
-27.0184
 21
338.33
  0
LINE
  8
0
 10
-27.0184
 20
338.33
 11
-26.7692
 21
338.631
  0
LINE
  8
0
 10
-26.7692
 20
338.631
 11
-26.4842
 21
338.899
  0
LINE
  8
0
 10
-26.4842
 20
338.899
 11
-26.168
 21
339.128
  0
LINE
  8
0
 10
-26.168
 20
339.128
 11
-25.8254
 21
339.317
  0
LINE
  8
0
 10
-25.8254
 20
339.317
 11
-25.4619
 21
339.461
  0
LINE
  8
0
 10
-25.4619
 20
339.461
 11
-25.0833
 21
339.558
  0
LINE
  8
0
 10
-25.0833
 20
339.558
 11
-24.6954
 21
339.607
  0
LINE
  8
0
 10
-24.6954
 20
339.607
 11
24.6954
 21
339.607
  0
LINE
  8
0
 10
24.6954
 20
339.607
 11
25.0833
 21
339.558
  0
LINE
  8
0
 10
25.0833
 20
339.558
 11
25.4619
 21
339.461
  0
LINE
  8
0
 10
25.4619
 20
339.461
 11
25.8254
 21
339.317
  0
LINE
  8
0
 10
25.8254
 20
339.317
 11
26.168
 21
339.128
  0
LINE
  8
0
 10
26.168
 20
339.128
 11
26.4842
 21
338.899
  0
LINE
  8
0
 10
26.4842
 20
338.899
 11
26.7692
 21
338.631
  0
LINE
  8
0
 10
26.7692
 20
338.631
 11
27.0184
 21
338.33
  0
LINE
  8
0
 10
27.0184
 20
338.33
 11
27.2279
 21
338
  0
LINE
  8
0
 10
27.2279
 20
338
 11
27.3943
 21
337.646
  0
LINE
  8
0
 10
27.3943
 20
337.646
 11
27.5151
 21
337.274
  0
LINE
  8
0
 10
27.5151
 20
337.274
 11
27.5884
 21
336.89
  0
LINE
  8
0
 10
27.5884
 20
336.89
 11
27.6129
 21
336.5
  0
LINE
  8
0
 10
27.6129
 20
336.5
 11
27.6129
 21
257.5
  0
LINE
  8
0
 10
27.6129
 20
257.5
 11
27.5884
 21
257.11
  0
LINE
  8
0
 10
27.5884
 20
257.11
 11
27.5151
 21
256.726
  0
LINE
  8
0
 10
27.5151
 20
256.726
 11
27.3943
 21
256.354
  0
LINE
  8
0
 10
27.3943
 20
256.354
 11
27.2279
 21
256
  0
LINE
  8
0
 10
27.2279
 20
256
 11
27.0184
 21
255.67
  0
LINE
  8
0
 10
27.0184
 20
255.67
 11
26.7692
 21
255.369
  0
LINE
  8
0
 10
26.7692
 20
255.369
 11
26.4842
 21
255.101
  0
LINE
  8
0
 10
26.4842
 20
255.101
 11
26.168
 21
254.872
  0
LINE
  8
0
 10
26.168
 20
254.872
 11
25.8254
 21
254.683
  0
LINE
  8
0
 10
25.8254
 20
254.683
 11
25.4619
 21
254.539
  0
LINE
  8
0
 10
25.4619
 20
254.539
 11
25.0833
 21
254.442
  0
LINE
  8
0
 10
25.0833
 20
254.442
 11
24.6954
 21
254.393
  0
LINE
  8
0
 10
24.6954
 20
254.393
 11
-24.6954
 21
254.393
  0
LINE
  8
0
 10
25.9369
 20
153.089
 11
26.5451
 21
153.245
  0
LINE
  8
0
 10
26.5451
 20
153.245
 11
27.1289
 21
153.476
  0
LINE
  8
0
 10
27.1289
 20
153.476
 11
27.6791
 21
153.778
  0
LINE
  8
0
 10
27.6791
 20
153.778
 11
28.1871
 21
154.147
  0
LINE
  8
0
 10
28.1871
 20
154.147
 11
28.6448
 21
154.577
  0
LINE
  8
0
 10
28.6448
 20
154.577
 11
29.0451
 21
155.061
  0
LINE
  8
0
 10
29.0451
 20
155.061
 11
29.3815
 21
155.591
  0
LINE
  8
0
 10
29.3815
 20
155.591
 11
29.6489
 21
156.159
  0
LINE
  8
0
 10
29.6489
 20
156.159
 11
29.8429
 21
156.757
  0
LINE
  8
0
 10
29.8429
 20
156.757
 11
29.9606
 21
157.373
  0
LINE
  8
0
 10
29.9606
 20
157.373
 11
30
 21
158
  0
LINE
  8
0
 10
30
 20
158
 11
30
 21
238
  0
LINE
  8
0
 10
30
 20
238
 11
29.9606
 21
238.627
  0
LINE
  8
0
 10
29.9606
 20
238.627
 11
29.8429
 21
239.243
  0
LINE
  8
0
 10
29.8429
 20
239.243
 11
29.6489
 21
239.841
  0
LINE
  8
0
 10
29.6489
 20
239.841
 11
29.3815
 21
240.409
  0
LINE
  8
0
 10
29.3815
 20
240.409
 11
29.0451
 21
240.939
  0
LINE
  8
0
 10
29.0451
 20
240.939
 11
28.6448
 21
241.423
  0
LINE
  8
0
 10
28.6448
 20
241.423
 11
28.1871
 21
241.853
  0
LINE
  8
0
 10
28.1871
 20
241.853
 11
27.6791
 21
242.222
  0
LINE
  8
0
 10
27.6791
 20
242.222
 11
27.1289
 21
242.524
  0
LINE
  8
0
 10
27.1289
 20
242.524
 11
26.5451
 21
242.755
  0
LINE
  8
0
 10
26.5451
 20
242.755
 11
25.9369
 21
242.911
  0
LINE
  8
0
 10
25.9369
 20
242.911
 11
25.3139
 21
242.99
  0
LINE
  8
0
 10
25.3139
 20
242.99
 11
-25.3139
 21
242.99
  0
LINE
  8
0
 10
-25.3139
 20
242.99
 11
-25.9369
 21
242.911
  0
LINE
  8
0
 10
-25.9369
 20
242.911
 11
-26.5451
 21
242.755
  0
LINE
  8
0
 10
-26.5451
 20
242.755
 11
-27.1289
 21
242.524
  0
LINE
  8
0
 10
-27.1289
 20
242.524
 11
-27.6791
 21
242.222
  0
LINE
  8
0
 10
-27.6791
 20
242.222
 11
-28.1871
 21
241.853
  0
LINE
  8
0
 10
-28.1871
 20
241.853
 11
-28.6448
 21
241.423
  0
LINE
  8
0
 10
-28.6448
 20
241.423
 11
-29.0451
 21
240.939
  0
LINE
  8
0
 10
-29.0451
 20
240.939
 11
-29.3815
 21
240.409
  0
LINE
  8
0
 10
-29.3815
 20
240.409
 11
-29.6489
 21
239.841
  0
LINE
  8
0
 10
-29.6489
 20
239.841
 11
-29.8429
 21
239.243
  0
LINE
  8
0
 10
-29.8429
 20
239.243
 11
-29.9606
 21
238.627
  0
LINE
  8
0
 10
-29.9606
 20
238.627
 11
-30
 21
238
  0
LINE
  8
0
 10
-30
 20
238
 11
-30
 21
158
  0
LINE
  8
0
 10
-30
 20
158
 11
-29.9606
 21
157.373
  0
LINE
  8
0
 10
-29.9606
 20
157.373
 11
-29.8429
 21
156.757
  0
LINE
  8
0
 10
-29.8429
 20
156.757
 11
-29.6489
 21
156.159
  0
LINE
  8
0
 10
-29.6489
 20
156.159
 11
-29.3815
 21
155.591
  0
LINE
  8
0
 10
-29.3815
 20
155.591
 11
-29.0451
 21
155.061
  0
LINE
  8
0
 10
-29.0451
 20
155.061
 11
-28.6448
 21
154.577
  0
LINE
  8
0
 10
-28.6448
 20
154.577
 11
-28.1871
 21
154.147
  0
LINE
  8
0
 10
-28.1871
 20
154.147
 11
-27.6791
 21
153.778
  0
LINE
  8
0
 10
-27.6791
 20
153.778
 11
-27.1289
 21
153.476
  0
LINE
  8
0
 10
-27.1289
 20
153.476
 11
-26.5451
 21
153.245
  0
LINE
  8
0
 10
-26.5451
 20
153.245
 11
-25.9369
 21
153.089
  0
LINE
  8
0
 10
-25.9369
 20
153.089
 11
-25.3139
 21
153.01
  0
LINE
  8
0
 10
-25.3139
 20
153.01
 11
25.3139
 21
153.01
  0
LINE
  8
0
 10
25.3139
 20
153.01
 11
25.9369
 21
153.089
  0
LINE
  8
0
 10
22.3659
 20
233.369
 11
22.0999
 21
233.403
  0
LINE
  8
0
 10
22.0999
 20
233.403
 11
21.8401
 21
233.469
  0
LINE
  8
0
 10
21.8401
 20
233.469
 11
21.5908
 21
233.568
  0
LINE
  8
0
 10
21.5908
 20
233.568
 11
21.3559
 21
233.697
  0
LINE
  8
0
 10
21.3559
 20
233.697
 11
21.1389
 21
233.855
  0
LINE
  8
0
 10
21.1389
 20
233.855
 11
20.9434
 21
234.038
  0
LINE
  8
0
 10
20.9434
 20
234.038
 11
20.7725
 21
234.245
  0
LINE
  8
0
 10
20.7725
 20
234.245
 11
20.6288
 21
234.471
  0
LINE
  8
0
 10
20.6288
 20
234.471
 11
20.5146
 21
234.714
  0
LINE
  8
0
 10
20.5146
 20
234.714
 11
20.4318
 21
234.969
  0
LINE
  8
0
 10
20.4318
 20
234.969
 11
20.3815
 21
235.232
  0
LINE
  8
0
 10
20.3815
 20
235.232
 11
20.3647
 21
235.5
  0
LINE
  8
0
 10
20.3647
 20
235.5
 11
20.3815
 21
235.768
  0
LINE
  8
0
 10
20.3815
 20
235.768
 11
20.4318
 21
236.031
  0
LINE
  8
0
 10
20.4318
 20
236.031
 11
20.5146
 21
236.286
  0
LINE
  8
0
 10
20.5146
 20
236.286
 11
20.6288
 21
236.529
  0
LINE
  8
0
 10
20.6288
 20
236.529
 11
20.7725
 21
236.755
  0
LINE
  8
0
 10
20.7725
 20
236.755
 11
20.9434
 21
236.962
  0
LINE
  8
0
 10
20.9434
 20
236.962
 11
21.1389
 21
237.145
  0
LINE
  8
0
 10
21.1389
 20
237.145
 11
21.3559
 21
237.303
  0
LINE
  8
0
 10
21.3559
 20
237.303
 11
21.5908
 21
237.432
  0
LINE
  8
0
 10
21.5908
 20
237.432
 11
21.8401
 21
237.531
  0
LINE
  8
0
 10
21.8401
 20
237.531
 11
22.0999
 21
237.597
  0
LINE
  8
0
 10
22.0999
 20
237.597
 11
22.3659
 21
237.631
  0
LINE
  8
0
 10
22.3659
 20
237.631
 11
22.6341
 21
237.631
  0
LINE
  8
0
 10
22.6341
 20
237.631
 11
22.9001
 21
237.597
  0
LINE
  8
0
 10
22.9001
 20
237.597
 11
23.1598
 21
237.531
  0
LINE
  8
0
 10
23.1598
 20
237.531
 11
23.4091
 21
237.432
  0
LINE
  8
0
 10
23.4091
 20
237.432
 11
23.6441
 21
237.303
  0
LINE
  8
0
 10
23.6441
 20
237.303
 11
23.8611
 21
237.145
  0
LINE
  8
0
 10
23.8611
 20
237.145
 11
24.0565
 21
236.962
  0
LINE
  8
0
 10
24.0565
 20
236.962
 11
24.2275
 21
236.755
  0
LINE
  8
0
 10
24.2275
 20
236.755
 11
24.3712
 21
236.529
  0
LINE
  8
0
 10
24.3712
 20
236.529
 11
24.4853
 21
236.286
  0
LINE
  8
0
 10
24.4853
 20
236.286
 11
24.5682
 21
236.031
  0
LINE
  8
0
 10
24.5682
 20
236.031
 11
24.6185
 21
235.768
  0
LINE
  8
0
 10
24.6185
 20
235.768
 11
24.6353
 21
235.5
  0
LINE
  8
0
 10
24.6353
 20
235.5
 11
24.6185
 21
235.232
  0
LINE
  8
0
 10
24.6185
 20
235.232
 11
24.5682
 21
234.969
  0
LINE
  8
0
 10
24.5682
 20
234.969
 11
24.4853
 21
234.714
  0
LINE
  8
0
 10
24.4853
 20
234.714
 11
24.3712
 21
234.471
  0
LINE
  8
0
 10
24.3712
 20
234.471
 11
24.2275
 21
234.245
  0
LINE
  8
0
 10
24.2275
 20
234.245
 11
24.0565
 21
234.038
  0
LINE
  8
0
 10
24.0565
 20
234.038
 11
23.8611
 21
233.855
  0
LINE
  8
0
 10
23.8611
 20
233.855
 11
23.6441
 21
233.697
  0
LINE
  8
0
 10
23.6441
 20
233.697
 11
23.4091
 21
233.568
  0
LINE
  8
0
 10
23.4091
 20
233.568
 11
23.1598
 21
233.469
  0
LINE
  8
0
 10
23.1598
 20
233.469
 11
22.9001
 21
233.403
  0
LINE
  8
0
 10
22.9001
 20
233.403
 11
22.6341
 21
233.369
  0
LINE
  8
0
 10
22.6341
 20
233.369
 11
22.3659
 21
233.369
  0
LINE
  8
0
 10
-22.6341
 20
233.369
 11
-22.9001
 21
233.403
  0
LINE
  8
0
 10
-22.9001
 20
233.403
 11
-23.1598
 21
233.469
  0
LINE
  8
0
 10
-23.1598
 20
233.469
 11
-23.4091
 21
233.568
  0
LINE
  8
0
 10
-23.4091
 20
233.568
 11
-23.6441
 21
233.697
  0
LINE
  8
0
 10
-23.6441
 20
233.697
 11
-23.8611
 21
233.855
  0
LINE
  8
0
 10
-23.8611
 20
233.855
 11
-24.0565
 21
234.038
  0
LINE
  8
0
 10
-24.0565
 20
234.038
 11
-24.2275
 21
234.245
  0
LINE
  8
0
 10
-24.2275
 20
234.245
 11
-24.3712
 21
234.471
  0
LINE
  8
0
 10
-24.3712
 20
234.471
 11
-24.4853
 21
234.714
  0
LINE
  8
0
 10
-24.4853
 20
234.714
 11
-24.5682
 21
234.969
  0
LINE
  8
0
 10
-24.5682
 20
234.969
 11
-24.6185
 21
235.232
  0
LINE
  8
0
 10
-24.6185
 20
235.232
 11
-24.6353
 21
235.5
  0
LINE
  8
0
 10
-24.6353
 20
235.5
 11
-24.6185
 21
235.768
  0
LINE
  8
0
 10
-24.6185
 20
235.768
 11
-24.5682
 21
236.031
  0
LINE
  8
0
 10
-24.5682
 20
236.031
 11
-24.4853
 21
236.286
  0
LINE
  8
0
 10
-24.4853
 20
236.286
 11
-24.3712
 21
236.529
  0
LINE
  8
0
 10
-24.3712
 20
236.529
 11
-24.2275
 21
236.755
  0
LINE
  8
0
 10
-24.2275
 20
236.755
 11
-24.0565
 21
236.962
  0
LINE
  8
0
 10
-24.0565
 20
236.962
 11
-23.8611
 21
237.145
  0
LINE
  8
0
 10
-23.8611
 20
237.145
 11
-23.6441
 21
237.303
  0
LINE
  8
0
 10
-23.6441
 20
237.303
 11
-23.4091
 21
237.432
  0
LINE
  8
0
 10
-23.4091
 20
237.432
 11
-23.1598
 21
237.531
  0
LINE
  8
0
 10
-23.1598
 20
237.531
 11
-22.9001
 21
237.597
  0
LINE
  8
0
 10
-22.9001
 20
237.597
 11
-22.6341
 21
237.631
  0
LINE
  8
0
 10
-22.6341
 20
237.631
 11
-22.3659
 21
237.631
  0
LINE
  8
0
 10
-22.3659
 20
237.631
 11
-22.0999
 21
237.597
  0
LINE
  8
0
 10
-22.0999
 20
237.597
 11
-21.8401
 21
237.531
  0
LINE
  8
0
 10
-21.8401
 20
237.531
 11
-21.5908
 21
237.432
  0
LINE
  8
0
 10
-21.5908
 20
237.432
 11
-21.3559
 21
237.303
  0
LINE
  8
0
 10
-21.3559
 20
237.303
 11
-21.1389
 21
237.145
  0
LINE
  8
0
 10
-21.1389
 20
237.145
 11
-20.9434
 21
236.962
  0
LINE
  8
0
 10
-20.9434
 20
236.962
 11
-20.7725
 21
236.755
  0
LINE
  8
0
 10
-20.7725
 20
236.755
 11
-20.6288
 21
236.529
  0
LINE
  8
0
 10
-20.6288
 20
236.529
 11
-20.5146
 21
236.286
  0
LINE
  8
0
 10
-20.5146
 20
236.286
 11
-20.4318
 21
236.031
  0
LINE
  8
0
 10
-20.4318
 20
236.031
 11
-20.3815
 21
235.768
  0
LINE
  8
0
 10
-20.3815
 20
235.768
 11
-20.3647
 21
235.5
  0
LINE
  8
0
 10
-20.3647
 20
235.5
 11
-20.3815
 21
235.232
  0
LINE
  8
0
 10
-20.3815
 20
235.232
 11
-20.4318
 21
234.969
  0
LINE
  8
0
 10
-20.4318
 20
234.969
 11
-20.5146
 21
234.714
  0
LINE
  8
0
 10
-20.5146
 20
234.714
 11
-20.6288
 21
234.471
  0
LINE
  8
0
 10
-20.6288
 20
234.471
 11
-20.7725
 21
234.245
  0
LINE
  8
0
 10
-20.7725
 20
234.245
 11
-20.9434
 21
234.038
  0
LINE
  8
0
 10
-20.9434
 20
234.038
 11
-21.1389
 21
233.855
  0
LINE
  8
0
 10
-21.1389
 20
233.855
 11
-21.3559
 21
233.697
  0
LINE
  8
0
 10
-21.3559
 20
233.697
 11
-21.5908
 21
233.568
  0
LINE
  8
0
 10
-21.5908
 20
233.568
 11
-21.8401
 21
233.469
  0
LINE
  8
0
 10
-21.8401
 20
233.469
 11
-22.0999
 21
233.403
  0
LINE
  8
0
 10
-22.0999
 20
233.403
 11
-22.3659
 21
233.369
  0
LINE
  8
0
 10
-22.3659
 20
233.369
 11
-22.6341
 21
233.369
  0
LINE
  8
0
 10
22.3659
 20
158.369
 11
22.0999
 21
158.403
  0
LINE
  8
0
 10
22.0999
 20
158.403
 11
21.8401
 21
158.469
  0
LINE
  8
0
 10
21.8401
 20
158.469
 11
21.5908
 21
158.568
  0
LINE
  8
0
 10
21.5908
 20
158.568
 11
21.3559
 21
158.697
  0
LINE
  8
0
 10
21.3559
 20
158.697
 11
21.1389
 21
158.855
  0
LINE
  8
0
 10
21.1389
 20
158.855
 11
20.9434
 21
159.038
  0
LINE
  8
0
 10
20.9434
 20
159.038
 11
20.7725
 21
159.245
  0
LINE
  8
0
 10
20.7725
 20
159.245
 11
20.6288
 21
159.471
  0
LINE
  8
0
 10
20.6288
 20
159.471
 11
20.5146
 21
159.714
  0
LINE
  8
0
 10
20.5146
 20
159.714
 11
20.4318
 21
159.969
  0
LINE
  8
0
 10
20.4318
 20
159.969
 11
20.3815
 21
160.232
  0
LINE
  8
0
 10
20.3815
 20
160.232
 11
20.3647
 21
160.5
  0
LINE
  8
0
 10
20.3647
 20
160.5
 11
20.3815
 21
160.768
  0
LINE
  8
0
 10
20.3815
 20
160.768
 11
20.4318
 21
161.031
  0
LINE
  8
0
 10
20.4318
 20
161.031
 11
20.5146
 21
161.286
  0
LINE
  8
0
 10
20.5146
 20
161.286
 11
20.6288
 21
161.529
  0
LINE
  8
0
 10
20.6288
 20
161.529
 11
20.7725
 21
161.755
  0
LINE
  8
0
 10
20.7725
 20
161.755
 11
20.9434
 21
161.962
  0
LINE
  8
0
 10
20.9434
 20
161.962
 11
21.1389
 21
162.145
  0
LINE
  8
0
 10
21.1389
 20
162.145
 11
21.3559
 21
162.303
  0
LINE
  8
0
 10
21.3559
 20
162.303
 11
21.5908
 21
162.432
  0
LINE
  8
0
 10
21.5908
 20
162.432
 11
21.8401
 21
162.531
  0
LINE
  8
0
 10
21.8401
 20
162.531
 11
22.0999
 21
162.597
  0
LINE
  8
0
 10
22.0999
 20
162.597
 11
22.3659
 21
162.631
  0
LINE
  8
0
 10
22.3659
 20
162.631
 11
22.6341
 21
162.631
  0
LINE
  8
0
 10
22.6341
 20
162.631
 11
22.9001
 21
162.597
  0
LINE
  8
0
 10
22.9001
 20
162.597
 11
23.1598
 21
162.531
  0
LINE
  8
0
 10
23.1598
 20
162.531
 11
23.4091
 21
162.432
  0
LINE
  8
0
 10
23.4091
 20
162.432
 11
23.6441
 21
162.303
  0
LINE
  8
0
 10
23.6441
 20
162.303
 11
23.8611
 21
162.145
  0
LINE
  8
0
 10
23.8611
 20
162.145
 11
24.0565
 21
161.962
  0
LINE
  8
0
 10
24.0565
 20
161.962
 11
24.2275
 21
161.755
  0
LINE
  8
0
 10
24.2275
 20
161.755
 11
24.3712
 21
161.529
  0
LINE
  8
0
 10
24.3712
 20
161.529
 11
24.4853
 21
161.286
  0
LINE
  8
0
 10
24.4853
 20
161.286
 11
24.5682
 21
161.031
  0
LINE
  8
0
 10
24.5682
 20
161.031
 11
24.6185
 21
160.768
  0
LINE
  8
0
 10
24.6185
 20
160.768
 11
24.6353
 21
160.5
  0
LINE
  8
0
 10
24.6353
 20
160.5
 11
24.6185
 21
160.232
  0
LINE
  8
0
 10
24.6185
 20
160.232
 11
24.5682
 21
159.969
  0
LINE
  8
0
 10
24.5682
 20
159.969
 11
24.4853
 21
159.714
  0
LINE
  8
0
 10
24.4853
 20
159.714
 11
24.3712
 21
159.471
  0
LINE
  8
0
 10
24.3712
 20
159.471
 11
24.2275
 21
159.245
  0
LINE
  8
0
 10
24.2275
 20
159.245
 11
24.0565
 21
159.038
  0
LINE
  8
0
 10
24.0565
 20
159.038
 11
23.8611
 21
158.855
  0
LINE
  8
0
 10
23.8611
 20
158.855
 11
23.6441
 21
158.697
  0
LINE
  8
0
 10
23.6441
 20
158.697
 11
23.4091
 21
158.568
  0
LINE
  8
0
 10
23.4091
 20
158.568
 11
23.1598
 21
158.469
  0
LINE
  8
0
 10
23.1598
 20
158.469
 11
22.9001
 21
158.403
  0
LINE
  8
0
 10
22.9001
 20
158.403
 11
22.6341
 21
158.369
  0
LINE
  8
0
 10
22.6341
 20
158.369
 11
22.3659
 21
158.369
  0
LINE
  8
0
 10
-22.6341
 20
158.369
 11
-22.9001
 21
158.403
  0
LINE
  8
0
 10
-22.9001
 20
158.403
 11
-23.1598
 21
158.469
  0
LINE
  8
0
 10
-23.1598
 20
158.469
 11
-23.4091
 21
158.568
  0
LINE
  8
0
 10
-23.4091
 20
158.568
 11
-23.6441
 21
158.697
  0
LINE
  8
0
 10
-23.6441
 20
158.697
 11
-23.8611
 21
158.855
  0
LINE
  8
0
 10
-23.8611
 20
158.855
 11
-24.0565
 21
159.038
  0
LINE
  8
0
 10
-24.0565
 20
159.038
 11
-24.2275
 21
159.245
  0
LINE
  8
0
 10
-24.2275
 20
159.245
 11
-24.3712
 21
159.471
  0
LINE
  8
0
 10
-24.3712
 20
159.471
 11
-24.4853
 21
159.714
  0
LINE
  8
0
 10
-24.4853
 20
159.714
 11
-24.5682
 21
159.969
  0
LINE
  8
0
 10
-24.5682
 20
159.969
 11
-24.6185
 21
160.232
  0
LINE
  8
0
 10
-24.6185
 20
160.232
 11
-24.6353
 21
160.5
  0
LINE
  8
0
 10
-24.6353
 20
160.5
 11
-24.6185
 21
160.768
  0
LINE
  8
0
 10
-24.6185
 20
160.768
 11
-24.5682
 21
161.031
  0
LINE
  8
0
 10
-24.5682
 20
161.031
 11
-24.4853
 21
161.286
  0
LINE
  8
0
 10
-24.4853
 20
161.286
 11
-24.3712
 21
161.529
  0
LINE
  8
0
 10
-24.3712
 20
161.529
 11
-24.2275
 21
161.755
  0
LINE
  8
0
 10
-24.2275
 20
161.755
 11
-24.0565
 21
161.962
  0
LINE
  8
0
 10
-24.0565
 20
161.962
 11
-23.8611
 21
162.145
  0
LINE
  8
0
 10
-23.8611
 20
162.145
 11
-23.6441
 21
162.303
  0
LINE
  8
0
 10
-23.6441
 20
162.303
 11
-23.4091
 21
162.432
  0
LINE
  8
0
 10
-23.4091
 20
162.432
 11
-23.1598
 21
162.531
  0
LINE
  8
0
 10
-23.1598
 20
162.531
 11
-22.9001
 21
162.597
  0
LINE
  8
0
 10
-22.9001
 20
162.597
 11
-22.6341
 21
162.631
  0
LINE
  8
0
 10
-22.6341
 20
162.631
 11
-22.3659
 21
162.631
  0
LINE
  8
0
 10
-22.3659
 20
162.631
 11
-22.0999
 21
162.597
  0
LINE
  8
0
 10
-22.0999
 20
162.597
 11
-21.8401
 21
162.531
  0
LINE
  8
0
 10
-21.8401
 20
162.531
 11
-21.5908
 21
162.432
  0
LINE
  8
0
 10
-21.5908
 20
162.432
 11
-21.3559
 21
162.303
  0
LINE
  8
0
 10
-21.3559
 20
162.303
 11
-21.1389
 21
162.145
  0
LINE
  8
0
 10
-21.1389
 20
162.145
 11
-20.9434
 21
161.962
  0
LINE
  8
0
 10
-20.9434
 20
161.962
 11
-20.7725
 21
161.755
  0
LINE
  8
0
 10
-20.7725
 20
161.755
 11
-20.6288
 21
161.529
  0
LINE
  8
0
 10
-20.6288
 20
161.529
 11
-20.5146
 21
161.286
  0
LINE
  8
0
 10
-20.5146
 20
161.286
 11
-20.4318
 21
161.031
  0
LINE
  8
0
 10
-20.4318
 20
161.031
 11
-20.3815
 21
160.768
  0
LINE
  8
0
 10
-20.3815
 20
160.768
 11
-20.3647
 21
160.5
  0
LINE
  8
0
 10
-20.3647
 20
160.5
 11
-20.3815
 21
160.232
  0
LINE
  8
0
 10
-20.3815
 20
160.232
 11
-20.4318
 21
159.969
  0
LINE
  8
0
 10
-20.4318
 20
159.969
 11
-20.5146
 21
159.714
  0
LINE
  8
0
 10
-20.5146
 20
159.714
 11
-20.6288
 21
159.471
  0
LINE
  8
0
 10
-20.6288
 20
159.471
 11
-20.7725
 21
159.245
  0
LINE
  8
0
 10
-20.7725
 20
159.245
 11
-20.9434
 21
159.038
  0
LINE
  8
0
 10
-20.9434
 20
159.038
 11
-21.1389
 21
158.855
  0
LINE
  8
0
 10
-21.1389
 20
158.855
 11
-21.3559
 21
158.697
  0
LINE
  8
0
 10
-21.3559
 20
158.697
 11
-21.5908
 21
158.568
  0
LINE
  8
0
 10
-21.5908
 20
158.568
 11
-21.8401
 21
158.469
  0
LINE
  8
0
 10
-21.8401
 20
158.469
 11
-22.0999
 21
158.403
  0
LINE
  8
0
 10
-22.0999
 20
158.403
 11
-22.3659
 21
158.369
  0
LINE
  8
0
 10
-22.3659
 20
158.369
 11
-22.6341
 21
158.369
  0
ENDSEC
  0
SECTION
  2
OBJECTS
  0
DICTIONARY
  0
ENDSEC
  0
EOF
