<?xml version="1.0" standalone="no"?>
<!DOCTYPE svg PUBLIC "-//W3C//DTD SVG 1.1//EN" "http://www.w3.org/Graphics/SVG/1.1/DTD/svg11.dtd">
<svg width="16mm" height="160mm" viewBox="-8 -290 16 160" xmlns="http://www.w3.org/2000/svg" version="1.1">
<title>OpenSCAD Model</title>
<path d="
M 3.4369,-214.589 L 4.04507,-214.745 L 4.62889,-214.976 L 5.17912,-215.278 L 5.68712,-215.647 L 6.14484,-216.077
 L 6.54507,-216.561 L 6.88153,-217.091 L 7.14888,-217.659 L 7.34291,-218.257 L 7.46057,-218.873 L 7.5,-219.5
 L 7.5,-284.5 L 7.46057,-285.127 L 7.34291,-285.743 L 7.14888,-286.341 L 6.88153,-286.909 L 6.54507,-287.439
 L 6.14484,-287.923 L 5.68712,-288.353 L 5.17912,-288.722 L 4.62889,-289.024 L 4.04507,-289.255 L 3.4369,-289.411
 L 2.81395,-289.49 L -2.81395,-289.49 L -3.4369,-289.411 L -4.04507,-289.255 L -4.62889,-289.024 L -5.17912,-288.722
 L -5.68712,-288.353 L -6.14484,-287.923 L -6.54507,-287.439 L -6.88153,-286.909 L -7.14888,-286.341 L -7.34291,-285.743
 L -7.46057,-285.127 L -7.5,-284.5 L -7.5,-219.5 L -7.46057,-218.873 L -7.34291,-218.257 L -7.14888,-217.659
 L -6.88153,-217.091 L -6.54507,-216.561 L -6.14484,-216.077 L -5.68712,-215.647 L -5.17912,-215.278 L -4.62889,-214.976
 L -4.04507,-214.745 L -3.4369,-214.589 L -2.81395,-214.51 L 2.81395,-214.51 z
M -2.19545,-216.893 L -2.5833,-216.942 L -2.96194,-217.039 L -3.32541,-217.183 L -3.66798,-217.372 L -3.98424,-217.601
 L -4.26921,-217.869 L -4.5184,-218.17 L -4.72786,-218.5 L -4.89432,-218.854 L -5.01512,-219.226 L -5.08836,-219.61
 L -5.11292,-220 L -5.11292,-284 L -5.08836,-284.39 L -5.01512,-284.774 L -4.89432,-285.146 L -4.72786,-285.5
 L -4.5184,-285.83 L -4.26921,-286.131 L -3.98424,-286.399 L -3.66798,-286.628 L -3.32541,-286.817 L -2.96194,-286.961
 L -2.5833,-287.058 L -2.19545,-287.107 L 2.19545,-287.107 L 2.5833,-287.058 L 2.96194,-286.961 L 3.32541,-286.817
 L 3.66798,-286.628 L 3.98424,-286.399 L 4.26921,-286.131 L 4.5184,-285.83 L 4.72786,-285.5 L 4.89432,-285.146
 L 5.01512,-284.774 L 5.08836,-284.39 L 5.11292,-284 L 5.11292,-220 L 5.08836,-219.61 L 5.01512,-219.226
 L 4.89432,-218.854 L 4.72786,-218.5 L 4.5184,-218.17 L 4.26921,-217.869 L 3.98424,-217.601 L 3.66798,-217.372
 L 3.32541,-217.183 L 2.96194,-217.039 L 2.5833,-216.942 L 2.19545,-216.893 z
M 3.4369,-130.589 L 4.04507,-130.745 L 4.62889,-130.976 L 5.17912,-131.278 L 5.68712,-131.647 L 6.14484,-132.077
 L 6.54507,-132.561 L 6.88153,-133.091 L 7.14888,-133.659 L 7.34291,-134.257 L 7.46057,-134.873 L 7.5,-135.5
 L 7.5,-200.5 L 7.46057,-201.127 L 7.34291,-201.743 L 7.14888,-202.341 L 6.88153,-202.909 L 6.54507,-203.439
 L 6.14484,-203.923 L 5.68712,-204.353 L 5.17912,-204.722 L 4.62889,-205.024 L 4.04507,-205.255 L 3.4369,-205.411
 L 2.81395,-205.49 L -2.81395,-205.49 L -3.4369,-205.411 L -4.04507,-205.255 L -4.62889,-205.024 L -5.17912,-204.722
 L -5.68712,-204.353 L -6.14484,-203.923 L -6.54507,-203.439 L -6.88153,-202.909 L -7.14888,-202.341 L -7.34291,-201.743
 L -7.46057,-201.127 L -7.5,-200.5 L -7.5,-135.5 L -7.46057,-134.873 L -7.34291,-134.257 L -7.14888,-133.659
 L -6.88153,-133.091 L -6.54507,-132.561 L -6.14484,-132.077 L -5.68712,-131.647 L -5.17912,-131.278 L -4.62889,-130.976
 L -4.04507,-130.745 L -3.4369,-130.589 L -2.81395,-130.51 L 2.81395,-130.51 z
M -0.134064,-195.869 L -0.400101,-195.903 L -0.659836,-195.969 L -0.909149,-196.068 L -1.14413,-196.197 L -1.36108,-196.355
 L -1.55655,-196.538 L -1.72748,-196.745 L -1.87117,-196.971 L -1.98534,-197.214 L -2.06821,-197.469 L -2.11845,-197.732
 L -2.13528,-198 L -2.11845,-198.268 L -2.06821,-198.531 L -1.98534,-198.786 L -1.87117,-199.029 L -1.72748,-199.255
 L -1.55655,-199.462 L -1.36108,-199.645 L -1.14413,-199.803 L -0.909149,-199.932 L -0.659836,-200.031 L -0.400101,-200.097
 L -0.134064,-200.131 L 0.134064,-200.131 L 0.400101,-200.097 L 0.659836,-200.031 L 0.909149,-199.932 L 1.14413,-199.803
 L 1.36108,-199.645 L 1.55655,-199.462 L 1.72748,-199.255 L 1.87117,-199.029 L 1.98534,-198.786 L 2.06821,-198.531
 L 2.11845,-198.268 L 2.13528,-198 L 2.11845,-197.732 L 2.06821,-197.469 L 1.98534,-197.214 L 1.87117,-196.971
 L 1.72748,-196.745 L 1.55655,-196.538 L 1.36108,-196.355 L 1.14413,-196.197 L 0.909149,-196.068 L 0.659836,-195.969
 L 0.400101,-195.903 L 0.134064,-195.869 z
M -0.134064,-135.869 L -0.400101,-135.903 L -0.659836,-135.969 L -0.909149,-136.068 L -1.14413,-136.197 L -1.36108,-136.355
 L -1.55655,-136.538 L -1.72748,-136.745 L -1.87117,-136.971 L -1.98534,-137.214 L -2.06821,-137.469 L -2.11845,-137.732
 L -2.13528,-138 L -2.11845,-138.268 L -2.06821,-138.531 L -1.98534,-138.786 L -1.87117,-139.029 L -1.72748,-139.255
 L -1.55655,-139.462 L -1.36108,-139.645 L -1.14413,-139.803 L -0.909149,-139.932 L -0.659836,-140.031 L -0.400101,-140.097
 L -0.134064,-140.131 L 0.134064,-140.131 L 0.400101,-140.097 L 0.659836,-140.031 L 0.909149,-139.932 L 1.14413,-139.803
 L 1.36108,-139.645 L 1.55655,-139.462 L 1.72748,-139.255 L 1.87117,-139.029 L 1.98534,-138.786 L 2.06821,-138.531
 L 2.11845,-138.268 L 2.13528,-138 L 2.11845,-137.732 L 2.06821,-137.469 L 1.98534,-137.214 L 1.87117,-136.971
 L 1.72748,-136.745 L 1.55655,-136.538 L 1.36108,-136.355 L 1.14413,-136.197 L 0.909149,-136.068 L 0.659836,-135.969
 L 0.400101,-135.903 L 0.134064,-135.869 z
" stroke="black" fill="lightgray" stroke-width="0.5"/>
</svg>
