<?xml version="1.0" standalone="no"?>
<!DOCTYPE svg PUBLIC "-//W3C//DTD SVG 1.1//EN" "http://www.w3.org/Graphics/SVG/1.1/DTD/svg11.dtd">
<svg width="106mm" height="129mm" viewBox="-53 -168 106 129" xmlns="http://www.w3.org/2000/svg" version="1.1">
<title>OpenSCAD Model</title>
<path d="
M 48.4369,-108.089 L 49.0451,-108.245 L 49.6289,-108.476 L 50.1791,-108.778 L 50.6871,-109.147 L 51.1448,-109.577
 L 51.5451,-110.061 L 51.8815,-110.591 L 52.1489,-111.159 L 52.3429,-111.757 L 52.4606,-112.373 L 52.5,-113
 L 52.5,-163 L 52.4606,-163.627 L 52.3429,-164.243 L 52.1489,-164.841 L 51.8815,-165.409 L 51.5451,-165.939
 L 51.1448,-166.423 L 50.6871,-166.853 L 50.1791,-167.222 L 49.6289,-167.524 L 49.0451,-167.755 L 48.4369,-167.911
 L 47.8139,-167.99 L -47.8139,-167.99 L -48.4369,-167.911 L -49.0451,-167.755 L -49.6289,-167.524 L -50.1791,-167.222
 L -50.6871,-166.853 L -51.1448,-166.423 L -51.5451,-165.939 L -51.8815,-165.409 L -52.1489,-164.841 L -52.3429,-164.243
 L -52.4606,-163.627 L -52.5,-163 L -52.5,-113 L -52.4606,-112.373 L -52.3429,-111.757 L -52.1489,-111.159
 L -51.8815,-110.591 L -51.5451,-110.061 L -51.1448,-109.577 L -50.6871,-109.147 L -50.1791,-108.778 L -49.6289,-108.476
 L -49.0451,-108.245 L -48.4369,-108.089 L -47.8139,-108.01 L 47.8139,-108.01 z
M -47.493,-109.388 L -47.9751,-109.449 L -48.4457,-109.57 L -48.8975,-109.749 L -49.3234,-109.983 L -49.7165,-110.269
 L -50.0707,-110.601 L -50.3805,-110.976 L -50.6408,-111.386 L -50.8477,-111.826 L -50.9979,-112.288 L -51.089,-112.765
 L -51.1195,-113.25 L -51.1195,-162.75 L -51.089,-163.235 L -50.9979,-163.712 L -50.8477,-164.174 L -50.6408,-164.614
 L -50.3805,-165.024 L -50.0707,-165.399 L -49.7165,-165.731 L -49.3234,-166.017 L -48.8975,-166.251 L -48.4457,-166.43
 L -47.9751,-166.551 L -47.493,-166.612 L 47.493,-166.612 L 47.9751,-166.551 L 48.4457,-166.43 L 48.8975,-166.251
 L 49.3234,-166.017 L 49.7165,-165.731 L 50.0707,-165.399 L 50.3805,-165.024 L 50.6408,-164.614 L 50.8477,-164.174
 L 50.9979,-163.712 L 51.089,-163.235 L 51.1195,-162.75 L 51.1195,-113.25 L 51.089,-112.765 L 50.9979,-112.288
 L 50.8477,-111.826 L 50.6408,-111.386 L 50.3805,-110.976 L 50.0707,-110.601 L 49.7165,-110.269 L 49.3234,-109.983
 L 48.8975,-109.749 L 48.4457,-109.57 L 47.9751,-109.449 L 47.493,-109.388 z
M 48.4369,-39.0886 L 49.0451,-39.2447 L 49.6289,-39.4759 L 50.1791,-39.7784 L 50.6871,-40.1474 L 51.1448,-40.5773
 L 51.5451,-41.0611 L 51.8815,-41.5912 L 52.1489,-42.1594 L 52.3429,-42.7566 L 52.4606,-43.3733 L 52.5,-44
 L 52.5,-94 L 52.4606,-94.6267 L 52.3429,-95.2434 L 52.1489,-95.8406 L 51.8815,-96.4088 L 51.5451,-96.9389
 L 51.1448,-97.4227 L 50.6871,-97.8526 L 50.1791,-98.2216 L 49.6289,-98.5241 L 49.0451,-98.7553 L 48.4369,-98.9114
 L 47.8139,-98.9901 L -47.8139,-98.9901 L -48.4369,-98.9114 L -49.0451,-98.7553 L -49.6289,-98.5241 L -50.1791,-98.2216
 L -50.6871,-97.8526 L -51.1448,-97.4227 L -51.5451,-96.9389 L -51.8815,-96.4088 L -52.1489,-95.8406 L -52.3429,-95.2434
 L -52.4606,-94.6267 L -52.5,-94 L -52.5,-44 L -52.4606,-43.3733 L -52.3429,-42.7566 L -52.1489,-42.1594
 L -51.8815,-41.5912 L -51.5451,-41.0611 L -51.1448,-40.5773 L -50.6871,-40.1474 L -50.1791,-39.7784 L -49.6289,-39.4759
 L -49.0451,-39.2447 L -48.4369,-39.0886 L -47.8139,-39.0099 L 47.8139,-39.0099 z
M 44.887,-89.7036 L 44.6627,-89.7319 L 44.4438,-89.7881 L 44.2336,-89.8713 L 44.0355,-89.9802 L 43.8526,-90.1131
 L 43.6879,-90.2678 L 43.5438,-90.442 L 43.4226,-90.6328 L 43.3264,-90.8374 L 43.2565,-91.0524 L 43.2142,-91.2744
 L 43.2,-91.5 L 43.2142,-91.7256 L 43.2565,-91.9476 L 43.3264,-92.1626 L 43.4226,-92.3672 L 43.5438,-92.558
 L 43.6879,-92.7322 L 43.8526,-92.8869 L 44.0355,-93.0198 L 44.2336,-93.1287 L 44.4438,-93.2119 L 44.6627,-93.2681
 L 44.887,-93.2964 L 45.113,-93.2964 L 45.3373,-93.2681 L 45.5562,-93.2119 L 45.7664,-93.1287 L 45.9645,-93.0198
 L 46.1474,-92.8869 L 46.3121,-92.7322 L 46.4562,-92.558 L 46.5773,-92.3672 L 46.6736,-92.1626 L 46.7434,-91.9476
 L 46.7858,-91.7256 L 46.8,-91.5 L 46.7858,-91.2744 L 46.7434,-91.0524 L 46.6736,-90.8374 L 46.5773,-90.6328
 L 46.4562,-90.442 L 46.3121,-90.2678 L 46.1474,-90.1131 L 45.9645,-89.9802 L 45.7664,-89.8713 L 45.5562,-89.7881
 L 45.3373,-89.7319 L 45.113,-89.7036 z
M -45.113,-89.7036 L -45.3373,-89.7319 L -45.5562,-89.7881 L -45.7664,-89.8713 L -45.9645,-89.9802 L -46.1474,-90.1131
 L -46.3121,-90.2678 L -46.4562,-90.442 L -46.5773,-90.6328 L -46.6736,-90.8374 L -46.7434,-91.0524 L -46.7858,-91.2744
 L -46.8,-91.5 L -46.7858,-91.7256 L -46.7434,-91.9476 L -46.6736,-92.1626 L -46.5773,-92.3672 L -46.4562,-92.558
 L -46.3121,-92.7322 L -46.1474,-92.8869 L -45.9645,-93.0198 L -45.7664,-93.1287 L -45.5562,-93.2119 L -45.3373,-93.2681
 L -45.113,-93.2964 L -44.887,-93.2964 L -44.6627,-93.2681 L -44.4438,-93.2119 L -44.2336,-93.1287 L -44.0355,-93.0198
 L -43.8526,-92.8869 L -43.6879,-92.7322 L -43.5438,-92.558 L -43.4226,-92.3672 L -43.3264,-92.1626 L -43.2565,-91.9476
 L -43.2142,-91.7256 L -43.2,-91.5 L -43.2142,-91.2744 L -43.2565,-91.0524 L -43.3264,-90.8374 L -43.4226,-90.6328
 L -43.5438,-90.442 L -43.6879,-90.2678 L -43.8526,-90.1131 L -44.0355,-89.9802 L -44.2336,-89.8713 L -44.4438,-89.7881
 L -44.6627,-89.7319 L -44.887,-89.7036 z
M -45.113,-44.7036 L -45.3373,-44.7319 L -45.5562,-44.7881 L -45.7664,-44.8713 L -45.9645,-44.9802 L -46.1474,-45.1131
 L -46.3121,-45.2678 L -46.4562,-45.442 L -46.5773,-45.6328 L -46.6736,-45.8374 L -46.7434,-46.0524 L -46.7858,-46.2744
 L -46.8,-46.5 L -46.7858,-46.7256 L -46.7434,-46.9476 L -46.6736,-47.1626 L -46.5773,-47.3672 L -46.4562,-47.558
 L -46.3121,-47.7322 L -46.1474,-47.8869 L -45.9645,-48.0198 L -45.7664,-48.1287 L -45.5562,-48.2119 L -45.3373,-48.2681
 L -45.113,-48.2964 L -44.887,-48.2964 L -44.6627,-48.2681 L -44.4438,-48.2119 L -44.2336,-48.1287 L -44.0355,-48.0198
 L -43.8526,-47.8869 L -43.6879,-47.7322 L -43.5438,-47.558 L -43.4226,-47.3672 L -43.3264,-47.1626 L -43.2565,-46.9476
 L -43.2142,-46.7256 L -43.2,-46.5 L -43.2142,-46.2744 L -43.2565,-46.0524 L -43.3264,-45.8374 L -43.4226,-45.6328
 L -43.5438,-45.442 L -43.6879,-45.2678 L -43.8526,-45.1131 L -44.0355,-44.9802 L -44.2336,-44.8713 L -44.4438,-44.7881
 L -44.6627,-44.7319 L -44.887,-44.7036 z
M 44.887,-44.7036 L 44.6627,-44.7319 L 44.4438,-44.7881 L 44.2336,-44.8713 L 44.0355,-44.9802 L 43.8526,-45.1131
 L 43.6879,-45.2678 L 43.5438,-45.442 L 43.4226,-45.6328 L 43.3264,-45.8374 L 43.2565,-46.0524 L 43.2142,-46.2744
 L 43.2,-46.5 L 43.2142,-46.7256 L 43.2565,-46.9476 L 43.3264,-47.1626 L 43.4226,-47.3672 L 43.5438,-47.558
 L 43.6879,-47.7322 L 43.8526,-47.8869 L 44.0355,-48.0198 L 44.2336,-48.1287 L 44.4438,-48.2119 L 44.6627,-48.2681
 L 44.887,-48.2964 L 45.113,-48.2964 L 45.3373,-48.2681 L 45.5562,-48.2119 L 45.7664,-48.1287 L 45.9645,-48.0198
 L 46.1474,-47.8869 L 46.3121,-47.7322 L 46.4562,-47.558 L 46.5773,-47.3672 L 46.6736,-47.1626 L 46.7434,-46.9476
 L 46.7858,-46.7256 L 46.8,-46.5 L 46.7858,-46.2744 L 46.7434,-46.0524 L 46.6736,-45.8374 L 46.5773,-45.6328
 L 46.4562,-45.442 L 46.3121,-45.2678 L 46.1474,-45.1131 L 45.9645,-44.9802 L 45.7664,-44.8713 L 45.5562,-44.7881
 L 45.3373,-44.7319 L 45.113,-44.7036 z
" stroke="black" fill="lightgray" stroke-width="0.5"/>
</svg>
