<?xml version="1.0" standalone="no"?>
<!DOCTYPE svg PUBLIC "-//W3C//DTD SVG 1.1//EN" "http://www.w3.org/Graphics/SVG/1.1/DTD/svg11.dtd">
<svg width="16mm" height="64mm" viewBox="-8 -104 16 64" xmlns="http://www.w3.org/2000/svg" version="1.1">
<title>OpenSCAD Model</title>
<path d="
M 3.4369,-88.5886 L 4.04507,-88.7447 L 4.62889,-88.9759 L 5.17912,-89.2784 L 5.68712,-89.6474 L 6.14484,-90.0773
 L 6.54507,-90.5611 L 6.88153,-91.0912 L 7.14888,-91.6594 L 7.34291,-92.2566 L 7.46057,-92.8733 L 7.5,-93.5
 L 7.5,-98.5 L 7.46057,-99.1267 L 7.34291,-99.7434 L 7.14888,-100.341 L 6.88153,-100.909 L 6.54507,-101.439
 L 6.14484,-101.923 L 5.68712,-102.353 L 5.17912,-102.722 L 4.62889,-103.024 L 4.04507,-103.255 L 3.4369,-103.411
 L 2.81395,-103.49 L -2.81395,-103.49 L -3.4369,-103.411 L -4.04507,-103.255 L -4.62889,-103.024 L -5.17912,-102.722
 L -5.68712,-102.353 L -6.14484,-101.923 L -6.54507,-101.439 L -6.88153,-100.909 L -7.14888,-100.341 L -7.34291,-99.7434
 L -7.46057,-99.1267 L -7.5,-98.5 L -7.5,-93.5 L -7.46057,-92.8733 L -7.34291,-92.2566 L -7.14888,-91.6594
 L -6.88153,-91.0912 L -6.54507,-90.5611 L -6.14484,-90.0773 L -5.68712,-89.6474 L -5.17912,-89.2784 L -4.62889,-88.9759
 L -4.04507,-88.7447 L -3.4369,-88.5886 L -2.81395,-88.5099 L 2.81395,-88.5099 z
M -2.54825,-89.0094 L -3.14006,-89.0841 L -3.71782,-89.2325 L -4.27245,-89.4521 L -4.79517,-89.7395 L -5.27776,-90.0901
 L -5.7126,-90.4984 L -6.09282,-90.958 L -6.41245,-91.4617 L -6.66643,-92.0014 L -6.85077,-92.5687 L -6.96254,-93.1547
 L -7,-93.75 L -7,-98.25 L -6.96254,-98.8453 L -6.85077,-99.4313 L -6.66643,-99.9986 L -6.41245,-100.538
 L -6.09282,-101.042 L -5.7126,-101.502 L -5.27776,-101.91 L -4.79517,-102.261 L -4.27245,-102.548 L -3.71782,-102.768
 L -3.14006,-102.916 L -2.54825,-102.991 L 2.54825,-102.991 L 3.14006,-102.916 L 3.71782,-102.768 L 4.27245,-102.548
 L 4.79517,-102.261 L 5.27776,-101.91 L 5.7126,-101.502 L 6.09282,-101.042 L 6.41245,-100.538 L 6.66643,-99.9986
 L 6.85077,-99.4313 L 6.96254,-98.8453 L 7,-98.25 L 7,-93.75 L 6.96254,-93.1547 L 6.85077,-92.5687
 L 6.66643,-92.0014 L 6.41245,-91.4617 L 6.09282,-90.958 L 5.7126,-90.4984 L 5.27776,-90.0901 L 4.79517,-89.7395
 L 4.27245,-89.4521 L 3.71782,-89.2325 L 3.14006,-89.0841 L 2.54825,-89.0094 z
M 3.4369,-64.5886 L 4.04507,-64.7447 L 4.62889,-64.9759 L 5.17912,-65.2784 L 5.68712,-65.6474 L 6.14484,-66.0773
 L 6.54507,-66.5611 L 6.88153,-67.0912 L 7.14888,-67.6594 L 7.34291,-68.2566 L 7.46057,-68.8733 L 7.5,-69.5
 L 7.5,-74.5 L 7.46057,-75.1267 L 7.34291,-75.7434 L 7.14888,-76.3406 L 6.88153,-76.9088 L 6.54507,-77.4389
 L 6.14484,-77.9227 L 5.68712,-78.3526 L 5.17912,-78.7216 L 4.62889,-79.0241 L 4.04507,-79.2553 L 3.4369,-79.4114
 L 2.81395,-79.4901 L -2.81395,-79.4901 L -3.4369,-79.4114 L -4.04507,-79.2553 L -4.62889,-79.0241 L -5.17912,-78.7216
 L -5.68712,-78.3526 L -6.14484,-77.9227 L -6.54507,-77.4389 L -6.88153,-76.9088 L -7.14888,-76.3406 L -7.34291,-75.7434
 L -7.46057,-75.1267 L -7.5,-74.5 L -7.5,-69.5 L -7.46057,-68.8733 L -7.34291,-68.2566 L -7.14888,-67.6594
 L -6.88153,-67.0912 L -6.54507,-66.5611 L -6.14484,-66.0773 L -5.68712,-65.6474 L -5.17912,-65.2784 L -4.62889,-64.9759
 L -4.04507,-64.7447 L -3.4369,-64.5886 L -2.81395,-64.5099 L 2.81395,-64.5099 z
M -2.49297,-65.8882 L -2.97505,-65.9491 L -3.44572,-66.0699 L -3.89754,-66.2488 L -4.32336,-66.4829 L -4.71649,-66.7685
 L -5.07071,-67.1012 L -5.38046,-67.4756 L -5.64084,-67.8859 L -5.84773,-68.3256 L -5.99789,-68.7877 L -6.08896,-69.265
 L -6.11946,-69.75 L -6.11946,-74.25 L -6.08896,-74.735 L -5.99789,-75.2123 L -5.84773,-75.6744 L -5.64084,-76.1141
 L -5.38046,-76.5244 L -5.07071,-76.8988 L -4.71649,-77.2315 L -4.32336,-77.5171 L -3.89754,-77.7512 L -3.44572,-77.9301
 L -2.97505,-78.0509 L -2.49297,-78.1118 L 2.49297,-78.1118 L 2.97505,-78.0509 L 3.44572,-77.9301 L 3.89754,-77.7512
 L 4.32336,-77.5171 L 4.71649,-77.2315 L 5.07071,-76.8988 L 5.38046,-76.5244 L 5.64084,-76.1141 L 5.84773,-75.6744
 L 5.99789,-75.2123 L 6.08896,-74.735 L 6.11946,-74.25 L 6.11946,-69.75 L 6.08896,-69.265 L 5.99789,-68.7877
 L 5.84773,-68.3256 L 5.64084,-67.8859 L 5.38046,-67.4756 L 5.07071,-67.1012 L 4.71649,-66.7685 L 4.32336,-66.4829
 L 3.89754,-66.2488 L 3.44572,-66.0699 L 2.97505,-65.9491 L 2.49297,-65.8882 z
M 3.4369,-40.5886 L 4.04507,-40.7447 L 4.62889,-40.9759 L 5.17912,-41.2784 L 5.68712,-41.6474 L 6.14484,-42.0773
 L 6.54507,-42.5611 L 6.88153,-43.0912 L 7.14888,-43.6594 L 7.34291,-44.2566 L 7.46057,-44.8733 L 7.5,-45.5
 L 7.5,-50.5 L 7.46057,-51.1267 L 7.34291,-51.7434 L 7.14888,-52.3406 L 6.88153,-52.9088 L 6.54507,-53.4389
 L 6.14484,-53.9227 L 5.68712,-54.3526 L 5.17912,-54.7216 L 4.62889,-55.0241 L 4.04507,-55.2553 L 3.4369,-55.4114
 L 2.81395,-55.4901 L -2.81395,-55.4901 L -3.4369,-55.4114 L -4.04507,-55.2553 L -4.62889,-55.0241 L -5.17912,-54.7216
 L -5.68712,-54.3526 L -6.14484,-53.9227 L -6.54507,-53.4389 L -6.88153,-52.9088 L -7.14888,-52.3406 L -7.34291,-51.7434
 L -7.46057,-51.1267 L -7.5,-50.5 L -7.5,-45.5 L -7.46057,-44.8733 L -7.34291,-44.2566 L -7.14888,-43.6594
 L -6.88153,-43.0912 L -6.54507,-42.5611 L -6.14484,-42.0773 L -5.68712,-41.6474 L -5.17912,-41.2784 L -4.62889,-40.9759
 L -4.04507,-40.7447 L -3.4369,-40.5886 L -2.81395,-40.5099 L 2.81395,-40.5099 z
M -0.113022,-46.2036 L -0.33728,-46.2319 L -0.556229,-46.2881 L -0.766388,-46.3713 L -0.964478,-46.4802 L -1.14735,-46.6131
 L -1.31213,-46.7678 L -1.45622,-46.942 L -1.57735,-47.1329 L -1.67358,-47.3374 L -1.74344,-47.5524 L -1.7858,-47.7744
 L -1.79999,-48 L -1.7858,-48.2256 L -1.74344,-48.4476 L -1.67358,-48.6626 L -1.57735,-48.8671 L -1.45622,-49.058
 L -1.31213,-49.2322 L -1.14735,-49.3869 L -0.964478,-49.5198 L -0.766388,-49.6287 L -0.556229,-49.7119 L -0.33728,-49.7681
 L -0.113022,-49.7964 L 0.113022,-49.7964 L 0.33728,-49.7681 L 0.556229,-49.7119 L 0.766388,-49.6287 L 0.964478,-49.5198
 L 1.14735,-49.3869 L 1.31213,-49.2322 L 1.45622,-49.058 L 1.57735,-48.8671 L 1.67358,-48.6626 L 1.74344,-48.4476
 L 1.7858,-48.2256 L 1.79999,-48 L 1.7858,-47.7744 L 1.74344,-47.5524 L 1.67358,-47.3374 L 1.57735,-47.1329
 L 1.45622,-46.942 L 1.31213,-46.7678 L 1.14735,-46.6131 L 0.964478,-46.4802 L 0.766388,-46.3713 L 0.556229,-46.2881
 L 0.33728,-46.2319 L 0.113022,-46.2036 z
" stroke="black" fill="lightgray" stroke-width="0.5"/>
</svg>
