<?xml version="1.0" standalone="no"?>
<!DOCTYPE svg PUBLIC "-//W3C//DTD SVG 1.1//EN" "http://www.w3.org/Graphics/SVG/1.1/DTD/svg11.dtd">
<svg width="16mm" height="249mm" viewBox="-8 -318 16 249" xmlns="http://www.w3.org/2000/svg" version="1.1">
<title>OpenSCAD Model</title>
<path d="
M 3.4369,-198.089 L 4.04507,-198.245 L 4.62889,-198.476 L 5.17912,-198.778 L 5.68712,-199.147 L 6.14484,-199.577
 L 6.54507,-200.061 L 6.88153,-200.591 L 7.14888,-201.159 L 7.34291,-201.757 L 7.46057,-202.373 L 7.5,-203
 L 7.5,-313 L 7.46057,-313.627 L 7.34291,-314.243 L 7.14888,-314.841 L 6.88153,-315.409 L 6.54507,-315.939
 L 6.14484,-316.423 L 5.68712,-316.853 L 5.17912,-317.222 L 4.62889,-317.524 L 4.04507,-317.755 L 3.4369,-317.911
 L 2.81395,-317.99 L -2.81395,-317.99 L -3.4369,-317.911 L -4.04507,-317.755 L -4.62889,-317.524 L -5.17912,-317.222
 L -5.68712,-316.853 L -6.14484,-316.423 L -6.54507,-315.939 L -6.88153,-315.409 L -7.14888,-314.841 L -7.34291,-314.243
 L -7.46057,-313.627 L -7.5,-313 L -7.5,-203 L -7.46057,-202.373 L -7.34291,-201.757 L -7.14888,-201.159
 L -6.88153,-200.591 L -6.54507,-200.061 L -6.14484,-199.577 L -5.68712,-199.147 L -5.17912,-198.778 L -4.62889,-198.476
 L -4.04507,-198.245 L -3.4369,-198.089 L -2.81395,-198.01 L 2.81395,-198.01 z
M 3.4369,-69.0886 L 4.04507,-69.2447 L 4.62889,-69.4759 L 5.17912,-69.7784 L 5.68712,-70.1474 L 6.14484,-70.5773
 L 6.54507,-71.0611 L 6.88153,-71.5912 L 7.14888,-72.1594 L 7.34291,-72.7566 L 7.46057,-73.3733 L 7.5,-74
 L 7.5,-184 L 7.46057,-184.627 L 7.34291,-185.243 L 7.14888,-185.841 L 6.88153,-186.409 L 6.54507,-186.939
 L 6.14484,-187.423 L 5.68712,-187.853 L 5.17912,-188.222 L 4.62889,-188.524 L 4.04507,-188.755 L 3.4369,-188.911
 L 2.81395,-188.99 L -2.81395,-188.99 L -3.4369,-188.911 L -4.04507,-188.755 L -4.62889,-188.524 L -5.17912,-188.222
 L -5.68712,-187.853 L -6.14484,-187.423 L -6.54507,-186.939 L -6.88153,-186.409 L -7.14888,-185.841 L -7.34291,-185.243
 L -7.46057,-184.627 L -7.5,-184 L -7.5,-74 L -7.46057,-73.3733 L -7.34291,-72.7566 L -7.14888,-72.1594
 L -6.88153,-71.5912 L -6.54507,-71.0611 L -6.14484,-70.5773 L -5.68712,-70.1474 L -5.17912,-69.7784 L -4.62889,-69.4759
 L -4.04507,-69.2447 L -3.4369,-69.0886 L -2.81395,-69.0099 L 2.81395,-69.0099 z
M -0.113022,-179.704 L -0.33728,-179.732 L -0.556229,-179.788 L -0.766388,-179.871 L -0.964478,-179.98 L -1.14735,-180.113
 L -1.31213,-180.268 L -1.45622,-180.442 L -1.57735,-180.633 L -1.67358,-180.837 L -1.74344,-181.052 L -1.7858,-181.274
 L -1.79999,-181.5 L -1.7858,-181.726 L -1.74344,-181.948 L -1.67358,-182.163 L -1.57735,-182.367 L -1.45622,-182.558
 L -1.31213,-182.732 L -1.14735,-182.887 L -0.964478,-183.02 L -0.766388,-183.129 L -0.556229,-183.212 L -0.33728,-183.268
 L -0.113022,-183.296 L 0.113022,-183.296 L 0.33728,-183.268 L 0.556229,-183.212 L 0.766388,-183.129 L 0.964478,-183.02
 L 1.14735,-182.887 L 1.31213,-182.732 L 1.45622,-182.558 L 1.57735,-182.367 L 1.67358,-182.163 L 1.74344,-181.948
 L 1.7858,-181.726 L 1.79999,-181.5 L 1.7858,-181.274 L 1.74344,-181.052 L 1.67358,-180.837 L 1.57735,-180.633
 L 1.45622,-180.442 L 1.31213,-180.268 L 1.14735,-180.113 L 0.964478,-179.98 L 0.766388,-179.871 L 0.556229,-179.788
 L 0.33728,-179.732 L 0.113022,-179.704 z
M -0.113022,-74.7036 L -0.33728,-74.7319 L -0.556229,-74.7881 L -0.766388,-74.8713 L -0.964478,-74.9802 L -1.14735,-75.1131
 L -1.31213,-75.2678 L -1.45622,-75.442 L -1.57735,-75.6328 L -1.67358,-75.8374 L -1.74344,-76.0524 L -1.7858,-76.2744
 L -1.79999,-76.5 L -1.7858,-76.7256 L -1.74344,-76.9476 L -1.67358,-77.1626 L -1.57735,-77.3672 L -1.45622,-77.558
 L -1.31213,-77.7322 L -1.14735,-77.8869 L -0.964478,-78.0198 L -0.766388,-78.1287 L -0.556229,-78.2119 L -0.33728,-78.2681
 L -0.113022,-78.2964 L 0.113022,-78.2964 L 0.33728,-78.2681 L 0.556229,-78.2119 L 0.766388,-78.1287 L 0.964478,-78.0198
 L 1.14735,-77.8869 L 1.31213,-77.7322 L 1.45622,-77.558 L 1.57735,-77.3672 L 1.67358,-77.1626 L 1.74344,-76.9476
 L 1.7858,-76.7256 L 1.79999,-76.5 L 1.7858,-76.2744 L 1.74344,-76.0524 L 1.67358,-75.8374 L 1.57735,-75.6328
 L 1.45622,-75.442 L 1.31213,-75.2678 L 1.14735,-75.1131 L 0.964478,-74.9802 L 0.766388,-74.8713 L 0.556229,-74.7881
 L 0.33728,-74.7319 L 0.113022,-74.7036 z
" stroke="black" fill="lightgray" stroke-width="0.5"/>
</svg>
