  0
SECTION
  2
BLOCKS
  0
ENDSEC
  0
SECTION
  2
ENTITIES
  0
LINE
  8
0
 10
40.9369
 20
40.5886
 11
41.5451
 21
40.7447
  0
LINE
  8
0
 10
41.5451
 20
40.7447
 11
42.1289
 21
40.9759
  0
LINE
  8
0
 10
42.1289
 20
40.9759
 11
42.6791
 21
41.2784
  0
LINE
  8
0
 10
42.6791
 20
41.2784
 11
43.1871
 21
41.6474
  0
LINE
  8
0
 10
43.1871
 20
41.6474
 11
43.6448
 21
42.0773
  0
LINE
  8
0
 10
43.6448
 20
42.0773
 11
44.0451
 21
42.5611
  0
LINE
  8
0
 10
44.0451
 20
42.5611
 11
44.3815
 21
43.0912
  0
LINE
  8
0
 10
44.3815
 20
43.0912
 11
44.6489
 21
43.6594
  0
LINE
  8
0
 10
44.6489
 20
43.6594
 11
44.8429
 21
44.2566
  0
LINE
  8
0
 10
44.8429
 20
44.2566
 11
44.9606
 21
44.8733
  0
LINE
  8
0
 10
44.9606
 20
44.8733
 11
45
 21
45.5
  0
LINE
  8
0
 10
45
 20
45.5
 11
45
 21
50.5
  0
LINE
  8
0
 10
45
 20
50.5
 11
44.9606
 21
51.1267
  0
LINE
  8
0
 10
44.9606
 20
51.1267
 11
44.8429
 21
51.7434
  0
LINE
  8
0
 10
44.8429
 20
51.7434
 11
44.6489
 21
52.3406
  0
LINE
  8
0
 10
44.6489
 20
52.3406
 11
44.3815
 21
52.9088
  0
LINE
  8
0
 10
44.3815
 20
52.9088
 11
44.0451
 21
53.4389
  0
LINE
  8
0
 10
44.0451
 20
53.4389
 11
43.6448
 21
53.9227
  0
LINE
  8
0
 10
43.6448
 20
53.9227
 11
43.1871
 21
54.3526
  0
LINE
  8
0
 10
43.1871
 20
54.3526
 11
42.6791
 21
54.7216
  0
LINE
  8
0
 10
42.6791
 20
54.7216
 11
42.1289
 21
55.0241
  0
LINE
  8
0
 10
42.1289
 20
55.0241
 11
41.5451
 21
55.2553
  0
LINE
  8
0
 10
41.5451
 20
55.2553
 11
40.9369
 21
55.4114
  0
LINE
  8
0
 10
40.9369
 20
55.4114
 11
40.3139
 21
55.4901
  0
LINE
  8
0
 10
40.3139
 20
55.4901
 11
-40.3139
 21
55.4901
  0
LINE
  8
0
 10
-40.3139
 20
55.4901
 11
-40.9369
 21
55.4114
  0
LINE
  8
0
 10
-40.9369
 20
55.4114
 11
-41.5451
 21
55.2553
  0
LINE
  8
0
 10
-41.5451
 20
55.2553
 11
-42.1289
 21
55.0241
  0
LINE
  8
0
 10
-42.1289
 20
55.0241
 11
-42.6791
 21
54.7216
  0
LINE
  8
0
 10
-42.6791
 20
54.7216
 11
-43.1871
 21
54.3526
  0
LINE
  8
0
 10
-43.1871
 20
54.3526
 11
-43.5
 21
54.0587
  0
LINE
  8
0
 10
-43.5
 20
54.0587
 11
-43.5
 21
55.1148
  0
LINE
  8
0
 10
-43.5
 20
55.1148
 11
-46.5
 21
55.1148
  0
LINE
  8
0
 10
-46.5
 20
55.1148
 11
-46.5
 21
40.8852
  0
LINE
  8
0
 10
-46.5
 20
40.8852
 11
-43.5
 21
40.8852
  0
LINE
  8
0
 10
-43.5
 20
40.8852
 11
-43.5
 21
41.9413
  0
LINE
  8
0
 10
-43.5
 20
41.9413
 11
-43.1871
 21
41.6474
  0
LINE
  8
0
 10
-43.1871
 20
41.6474
 11
-42.6791
 21
41.2784
  0
LINE
  8
0
 10
-42.6791
 20
41.2784
 11
-42.1289
 21
40.9759
  0
LINE
  8
0
 10
-42.1289
 20
40.9759
 11
-41.5451
 21
40.7447
  0
LINE
  8
0
 10
-41.5451
 20
40.7447
 11
-40.9369
 21
40.5886
  0
LINE
  8
0
 10
-40.9369
 20
40.5886
 11
-40.3139
 21
40.5099
  0
LINE
  8
0
 10
-40.3139
 20
40.5099
 11
40.3139
 21
40.5099
  0
LINE
  8
0
 10
40.3139
 20
40.5099
 11
40.9369
 21
40.5886
  0
LINE
  8
0
 10
40.9369
 20
16.5886
 11
41.5451
 21
16.7447
  0
LINE
  8
0
 10
41.5451
 20
16.7447
 11
42.1289
 21
16.9759
  0
LINE
  8
0
 10
42.1289
 20
16.9759
 11
42.6791
 21
17.2784
  0
LINE
  8
0
 10
42.6791
 20
17.2784
 11
43.1871
 21
17.6474
  0
LINE
  8
0
 10
43.1871
 20
17.6474
 11
43.6448
 21
18.0773
  0
LINE
  8
0
 10
43.6448
 20
18.0773
 11
44.0451
 21
18.5611
  0
LINE
  8
0
 10
44.0451
 20
18.5611
 11
44.3815
 21
19.0912
  0
LINE
  8
0
 10
44.3815
 20
19.0912
 11
44.6489
 21
19.6594
  0
LINE
  8
0
 10
44.6489
 20
19.6594
 11
44.8429
 21
20.2566
  0
LINE
  8
0
 10
44.8429
 20
20.2566
 11
44.9606
 21
20.8733
  0
LINE
  8
0
 10
44.9606
 20
20.8733
 11
45
 21
21.5
  0
LINE
  8
0
 10
45
 20
21.5
 11
45
 21
26.5
  0
LINE
  8
0
 10
45
 20
26.5
 11
44.9606
 21
27.1267
  0
LINE
  8
0
 10
44.9606
 20
27.1267
 11
44.8429
 21
27.7434
  0
LINE
  8
0
 10
44.8429
 20
27.7434
 11
44.6489
 21
28.3406
  0
LINE
  8
0
 10
44.6489
 20
28.3406
 11
44.3815
 21
28.9088
  0
LINE
  8
0
 10
44.3815
 20
28.9088
 11
44.0451
 21
29.4389
  0
LINE
  8
0
 10
44.0451
 20
29.4389
 11
43.6448
 21
29.9227
  0
LINE
  8
0
 10
43.6448
 20
29.9227
 11
43.1871
 21
30.3526
  0
LINE
  8
0
 10
43.1871
 20
30.3526
 11
42.6791
 21
30.7216
  0
LINE
  8
0
 10
42.6791
 20
30.7216
 11
42.1289
 21
31.0241
  0
LINE
  8
0
 10
42.1289
 20
31.0241
 11
41.5451
 21
31.2553
  0
LINE
  8
0
 10
41.5451
 20
31.2553
 11
40.9369
 21
31.4114
  0
LINE
  8
0
 10
40.9369
 20
31.4114
 11
40.3139
 21
31.4901
  0
LINE
  8
0
 10
40.3139
 20
31.4901
 11
-40.3139
 21
31.4901
  0
LINE
  8
0
 10
-40.3139
 20
31.4901
 11
-40.9369
 21
31.4114
  0
LINE
  8
0
 10
-40.9369
 20
31.4114
 11
-41.5451
 21
31.2553
  0
LINE
  8
0
 10
-41.5451
 20
31.2553
 11
-42.1289
 21
31.0241
  0
LINE
  8
0
 10
-42.1289
 20
31.0241
 11
-42.6791
 21
30.7216
  0
LINE
  8
0
 10
-42.6791
 20
30.7216
 11
-43.1871
 21
30.3526
  0
LINE
  8
0
 10
-43.1871
 20
30.3526
 11
-43.6448
 21
29.9227
  0
LINE
  8
0
 10
-43.6448
 20
29.9227
 11
-44.0451
 21
29.4389
  0
LINE
  8
0
 10
-44.0451
 20
29.4389
 11
-44.3815
 21
28.9088
  0
LINE
  8
0
 10
-44.3815
 20
28.9088
 11
-44.6489
 21
28.3406
  0
LINE
  8
0
 10
-44.6489
 20
28.3406
 11
-44.8429
 21
27.7434
  0
LINE
  8
0
 10
-44.8429
 20
27.7434
 11
-44.9
 21
27.4442
  0
LINE
  8
0
 10
-44.9
 20
27.4442
 11
-46.5
 21
27.4442
  0
LINE
  8
0
 10
-46.5
 20
27.4442
 11
-46.5
 21
20.5558
  0
LINE
  8
0
 10
-46.5
 20
20.5558
 11
-44.9
 21
20.5558
  0
LINE
  8
0
 10
-44.9
 20
20.5558
 11
-44.8429
 21
20.2566
  0
LINE
  8
0
 10
-44.8429
 20
20.2566
 11
-44.6489
 21
19.6594
  0
LINE
  8
0
 10
-44.6489
 20
19.6594
 11
-44.3815
 21
19.0912
  0
LINE
  8
0
 10
-44.3815
 20
19.0912
 11
-44.0451
 21
18.5611
  0
LINE
  8
0
 10
-44.0451
 20
18.5611
 11
-43.6448
 21
18.0773
  0
LINE
  8
0
 10
-43.6448
 20
18.0773
 11
-43.1871
 21
17.6474
  0
LINE
  8
0
 10
-43.1871
 20
17.6474
 11
-42.6791
 21
17.2784
  0
LINE
  8
0
 10
-42.6791
 20
17.2784
 11
-42.1289
 21
16.9759
  0
LINE
  8
0
 10
-42.1289
 20
16.9759
 11
-41.5451
 21
16.7447
  0
LINE
  8
0
 10
-41.5451
 20
16.7447
 11
-40.9369
 21
16.5886
  0
LINE
  8
0
 10
-40.9369
 20
16.5886
 11
-40.3139
 21
16.5099
  0
LINE
  8
0
 10
-40.3139
 20
16.5099
 11
40.3139
 21
16.5099
  0
LINE
  8
0
 10
40.3139
 20
16.5099
 11
40.9369
 21
16.5886
  0
LINE
  8
0
 10
-37.613
 20
22.2036
 11
-37.8373
 21
22.2319
  0
LINE
  8
0
 10
-37.8373
 20
22.2319
 11
-38.0562
 21
22.2881
  0
LINE
  8
0
 10
-38.0562
 20
22.2881
 11
-38.2664
 21
22.3713
  0
LINE
  8
0
 10
-38.2664
 20
22.3713
 11
-38.4645
 21
22.4802
  0
LINE
  8
0
 10
-38.4645
 20
22.4802
 11
-38.6474
 21
22.6131
  0
LINE
  8
0
 10
-38.6474
 20
22.6131
 11
-38.8121
 21
22.7678
  0
LINE
  8
0
 10
-38.8121
 20
22.7678
 11
-38.9562
 21
22.942
  0
LINE
  8
0
 10
-38.9562
 20
22.942
 11
-39.0773
 21
23.1329
  0
LINE
  8
0
 10
-39.0773
 20
23.1329
 11
-39.1736
 21
23.3374
  0
LINE
  8
0
 10
-39.1736
 20
23.3374
 11
-39.2434
 21
23.5524
  0
LINE
  8
0
 10
-39.2434
 20
23.5524
 11
-39.2858
 21
23.7744
  0
LINE
  8
0
 10
-39.2858
 20
23.7744
 11
-39.3
 21
24
  0
LINE
  8
0
 10
-39.3
 20
24
 11
-39.2858
 21
24.2256
  0
LINE
  8
0
 10
-39.2858
 20
24.2256
 11
-39.2434
 21
24.4476
  0
LINE
  8
0
 10
-39.2434
 20
24.4476
 11
-39.1736
 21
24.6626
  0
LINE
  8
0
 10
-39.1736
 20
24.6626
 11
-39.0773
 21
24.8671
  0
LINE
  8
0
 10
-39.0773
 20
24.8671
 11
-38.9562
 21
25.058
  0
LINE
  8
0
 10
-38.9562
 20
25.058
 11
-38.8121
 21
25.2322
  0
LINE
  8
0
 10
-38.8121
 20
25.2322
 11
-38.6474
 21
25.3869
  0
LINE
  8
0
 10
-38.6474
 20
25.3869
 11
-38.4645
 21
25.5198
  0
LINE
  8
0
 10
-38.4645
 20
25.5198
 11
-38.2664
 21
25.6287
  0
LINE
  8
0
 10
-38.2664
 20
25.6287
 11
-38.0562
 21
25.7119
  0
LINE
  8
0
 10
-38.0562
 20
25.7119
 11
-37.8373
 21
25.7681
  0
LINE
  8
0
 10
-37.8373
 20
25.7681
 11
-37.613
 21
25.7964
  0
LINE
  8
0
 10
-37.613
 20
25.7964
 11
-37.387
 21
25.7964
  0
LINE
  8
0
 10
-37.387
 20
25.7964
 11
-37.1627
 21
25.7681
  0
LINE
  8
0
 10
-37.1627
 20
25.7681
 11
-36.9438
 21
25.7119
  0
LINE
  8
0
 10
-36.9438
 20
25.7119
 11
-36.7336
 21
25.6287
  0
LINE
  8
0
 10
-36.7336
 20
25.6287
 11
-36.5355
 21
25.5198
  0
LINE
  8
0
 10
-36.5355
 20
25.5198
 11
-36.3526
 21
25.3869
  0
LINE
  8
0
 10
-36.3526
 20
25.3869
 11
-36.1879
 21
25.2322
  0
LINE
  8
0
 10
-36.1879
 20
25.2322
 11
-36.0438
 21
25.058
  0
LINE
  8
0
 10
-36.0438
 20
25.058
 11
-35.9226
 21
24.8671
  0
LINE
  8
0
 10
-35.9226
 20
24.8671
 11
-35.8264
 21
24.6626
  0
LINE
  8
0
 10
-35.8264
 20
24.6626
 11
-35.7565
 21
24.4476
  0
LINE
  8
0
 10
-35.7565
 20
24.4476
 11
-35.7142
 21
24.2256
  0
LINE
  8
0
 10
-35.7142
 20
24.2256
 11
-35.7
 21
24
  0
LINE
  8
0
 10
-35.7
 20
24
 11
-35.7142
 21
23.7744
  0
LINE
  8
0
 10
-35.7142
 20
23.7744
 11
-35.7565
 21
23.5524
  0
LINE
  8
0
 10
-35.7565
 20
23.5524
 11
-35.8264
 21
23.3374
  0
LINE
  8
0
 10
-35.8264
 20
23.3374
 11
-35.9226
 21
23.1329
  0
LINE
  8
0
 10
-35.9226
 20
23.1329
 11
-36.0438
 21
22.942
  0
LINE
  8
0
 10
-36.0438
 20
22.942
 11
-36.1879
 21
22.7678
  0
LINE
  8
0
 10
-36.1879
 20
22.7678
 11
-36.3526
 21
22.6131
  0
LINE
  8
0
 10
-36.3526
 20
22.6131
 11
-36.5355
 21
22.4802
  0
LINE
  8
0
 10
-36.5355
 20
22.4802
 11
-36.7336
 21
22.3713
  0
LINE
  8
0
 10
-36.7336
 20
22.3713
 11
-36.9438
 21
22.2881
  0
LINE
  8
0
 10
-36.9438
 20
22.2881
 11
-37.1627
 21
22.2319
  0
LINE
  8
0
 10
-37.1627
 20
22.2319
 11
-37.387
 21
22.2036
  0
LINE
  8
0
 10
-37.387
 20
22.2036
 11
-37.613
 21
22.2036
  0
LINE
  8
0
 10
37.387
 20
22.2036
 11
37.1627
 21
22.2319
  0
LINE
  8
0
 10
37.1627
 20
22.2319
 11
36.9438
 21
22.2881
  0
LINE
  8
0
 10
36.9438
 20
22.2881
 11
36.7336
 21
22.3713
  0
LINE
  8
0
 10
36.7336
 20
22.3713
 11
36.5355
 21
22.4802
  0
LINE
  8
0
 10
36.5355
 20
22.4802
 11
36.3526
 21
22.6131
  0
LINE
  8
0
 10
36.3526
 20
22.6131
 11
36.1879
 21
22.7678
  0
LINE
  8
0
 10
36.1879
 20
22.7678
 11
36.0438
 21
22.942
  0
LINE
  8
0
 10
36.0438
 20
22.942
 11
35.9226
 21
23.1329
  0
LINE
  8
0
 10
35.9226
 20
23.1329
 11
35.8264
 21
23.3374
  0
LINE
  8
0
 10
35.8264
 20
23.3374
 11
35.7565
 21
23.5524
  0
LINE
  8
0
 10
35.7565
 20
23.5524
 11
35.7142
 21
23.7744
  0
LINE
  8
0
 10
35.7142
 20
23.7744
 11
35.7
 21
24
  0
LINE
  8
0
 10
35.7
 20
24
 11
35.7142
 21
24.2256
  0
LINE
  8
0
 10
35.7142
 20
24.2256
 11
35.7565
 21
24.4476
  0
LINE
  8
0
 10
35.7565
 20
24.4476
 11
35.8264
 21
24.6626
  0
LINE
  8
0
 10
35.8264
 20
24.6626
 11
35.9226
 21
24.8671
  0
LINE
  8
0
 10
35.9226
 20
24.8671
 11
36.0438
 21
25.058
  0
LINE
  8
0
 10
36.0438
 20
25.058
 11
36.1879
 21
25.2322
  0
LINE
  8
0
 10
36.1879
 20
25.2322
 11
36.3526
 21
25.3869
  0
LINE
  8
0
 10
36.3526
 20
25.3869
 11
36.5355
 21
25.5198
  0
LINE
  8
0
 10
36.5355
 20
25.5198
 11
36.7336
 21
25.6287
  0
LINE
  8
0
 10
36.7336
 20
25.6287
 11
36.9438
 21
25.7119
  0
LINE
  8
0
 10
36.9438
 20
25.7119
 11
37.1627
 21
25.7681
  0
LINE
  8
0
 10
37.1627
 20
25.7681
 11
37.387
 21
25.7964
  0
LINE
  8
0
 10
37.387
 20
25.7964
 11
37.613
 21
25.7964
  0
LINE
  8
0
 10
37.613
 20
25.7964
 11
37.8373
 21
25.7681
  0
LINE
  8
0
 10
37.8373
 20
25.7681
 11
38.0562
 21
25.7119
  0
LINE
  8
0
 10
38.0562
 20
25.7119
 11
38.2664
 21
25.6287
  0
LINE
  8
0
 10
38.2664
 20
25.6287
 11
38.4645
 21
25.5198
  0
LINE
  8
0
 10
38.4645
 20
25.5198
 11
38.6474
 21
25.3869
  0
LINE
  8
0
 10
38.6474
 20
25.3869
 11
38.8121
 21
25.2322
  0
LINE
  8
0
 10
38.8121
 20
25.2322
 11
38.9562
 21
25.058
  0
LINE
  8
0
 10
38.9562
 20
25.058
 11
39.0773
 21
24.8671
  0
LINE
  8
0
 10
39.0773
 20
24.8671
 11
39.1736
 21
24.6626
  0
LINE
  8
0
 10
39.1736
 20
24.6626
 11
39.2434
 21
24.4476
  0
LINE
  8
0
 10
39.2434
 20
24.4476
 11
39.2858
 21
24.2256
  0
LINE
  8
0
 10
39.2858
 20
24.2256
 11
39.3
 21
24
  0
LINE
  8
0
 10
39.3
 20
24
 11
39.2858
 21
23.7744
  0
LINE
  8
0
 10
39.2858
 20
23.7744
 11
39.2434
 21
23.5524
  0
LINE
  8
0
 10
39.2434
 20
23.5524
 11
39.1736
 21
23.3374
  0
LINE
  8
0
 10
39.1736
 20
23.3374
 11
39.0773
 21
23.1329
  0
LINE
  8
0
 10
39.0773
 20
23.1329
 11
38.9562
 21
22.942
  0
LINE
  8
0
 10
38.9562
 20
22.942
 11
38.8121
 21
22.7678
  0
LINE
  8
0
 10
38.8121
 20
22.7678
 11
38.6474
 21
22.6131
  0
LINE
  8
0
 10
38.6474
 20
22.6131
 11
38.4645
 21
22.4802
  0
LINE
  8
0
 10
38.4645
 20
22.4802
 11
38.2664
 21
22.3713
  0
LINE
  8
0
 10
38.2664
 20
22.3713
 11
38.0562
 21
22.2881
  0
LINE
  8
0
 10
38.0562
 20
22.2881
 11
37.8373
 21
22.2319
  0
LINE
  8
0
 10
37.8373
 20
22.2319
 11
37.613
 21
22.2036
  0
LINE
  8
0
 10
37.613
 20
22.2036
 11
37.387
 21
22.2036
  0
ENDSEC
  0
SECTION
  2
OBJECTS
  0
DICTIONARY
  0
ENDSEC
  0
EOF
