  0
SECTION
  2
BLOCKS
  0
ENDSEC
  0
SECTION
  2
ENTITIES
  0
LINE
  8
0
 10
33.4369
 20
246.089
 11
34.0451
 21
246.245
  0
LINE
  8
0
 10
34.0451
 20
246.245
 11
34.6289
 21
246.476
  0
LINE
  8
0
 10
34.6289
 20
246.476
 11
35.1791
 21
246.778
  0
LINE
  8
0
 10
35.1791
 20
246.778
 11
35.6871
 21
247.147
  0
LINE
  8
0
 10
35.6871
 20
247.147
 11
36.1448
 21
247.577
  0
LINE
  8
0
 10
36.1448
 20
247.577
 11
36.5451
 21
248.061
  0
LINE
  8
0
 10
36.5451
 20
248.061
 11
36.8815
 21
248.591
  0
LINE
  8
0
 10
36.8815
 20
248.591
 11
37.1489
 21
249.159
  0
LINE
  8
0
 10
37.1489
 20
249.159
 11
37.3429
 21
249.757
  0
LINE
  8
0
 10
37.3429
 20
249.757
 11
37.4606
 21
250.373
  0
LINE
  8
0
 10
37.4606
 20
250.373
 11
37.5
 21
251
  0
LINE
  8
0
 10
37.5
 20
251
 11
37.5
 21
301
  0
LINE
  8
0
 10
37.5
 20
301
 11
37.4606
 21
301.627
  0
LINE
  8
0
 10
37.4606
 20
301.627
 11
37.3429
 21
302.243
  0
LINE
  8
0
 10
37.3429
 20
302.243
 11
37.1489
 21
302.841
  0
LINE
  8
0
 10
37.1489
 20
302.841
 11
36.8815
 21
303.409
  0
LINE
  8
0
 10
36.8815
 20
303.409
 11
36.5451
 21
303.939
  0
LINE
  8
0
 10
36.5451
 20
303.939
 11
36.1448
 21
304.423
  0
LINE
  8
0
 10
36.1448
 20
304.423
 11
35.6871
 21
304.853
  0
LINE
  8
0
 10
35.6871
 20
304.853
 11
35.1791
 21
305.222
  0
LINE
  8
0
 10
35.1791
 20
305.222
 11
34.6289
 21
305.524
  0
LINE
  8
0
 10
34.6289
 20
305.524
 11
34.0451
 21
305.755
  0
LINE
  8
0
 10
34.0451
 20
305.755
 11
33.4369
 21
305.911
  0
LINE
  8
0
 10
33.4369
 20
305.911
 11
32.8139
 21
305.99
  0
LINE
  8
0
 10
32.8139
 20
305.99
 11
-32.8139
 21
305.99
  0
LINE
  8
0
 10
-32.8139
 20
305.99
 11
-33.4369
 21
305.911
  0
LINE
  8
0
 10
-33.4369
 20
305.911
 11
-34.0451
 21
305.755
  0
LINE
  8
0
 10
-34.0451
 20
305.755
 11
-34.6289
 21
305.524
  0
LINE
  8
0
 10
-34.6289
 20
305.524
 11
-35.1791
 21
305.222
  0
LINE
  8
0
 10
-35.1791
 20
305.222
 11
-35.6871
 21
304.853
  0
LINE
  8
0
 10
-35.6871
 20
304.853
 11
-36.1448
 21
304.423
  0
LINE
  8
0
 10
-36.1448
 20
304.423
 11
-36.5451
 21
303.939
  0
LINE
  8
0
 10
-36.5451
 20
303.939
 11
-36.8815
 21
303.409
  0
LINE
  8
0
 10
-36.8815
 20
303.409
 11
-37.1489
 21
302.841
  0
LINE
  8
0
 10
-37.1489
 20
302.841
 11
-37.3429
 21
302.243
  0
LINE
  8
0
 10
-37.3429
 20
302.243
 11
-37.4606
 21
301.627
  0
LINE
  8
0
 10
-37.4606
 20
301.627
 11
-37.5
 21
301
  0
LINE
  8
0
 10
-37.5
 20
301
 11
-37.5
 21
251
  0
LINE
  8
0
 10
-37.5
 20
251
 11
-37.4606
 21
250.373
  0
LINE
  8
0
 10
-37.4606
 20
250.373
 11
-37.3429
 21
249.757
  0
LINE
  8
0
 10
-37.3429
 20
249.757
 11
-37.1489
 21
249.159
  0
LINE
  8
0
 10
-37.1489
 20
249.159
 11
-36.8815
 21
248.591
  0
LINE
  8
0
 10
-36.8815
 20
248.591
 11
-36.5451
 21
248.061
  0
LINE
  8
0
 10
-36.5451
 20
248.061
 11
-36.1448
 21
247.577
  0
LINE
  8
0
 10
-36.1448
 20
247.577
 11
-35.6871
 21
247.147
  0
LINE
  8
0
 10
-35.6871
 20
247.147
 11
-35.1791
 21
246.778
  0
LINE
  8
0
 10
-35.1791
 20
246.778
 11
-34.6289
 21
246.476
  0
LINE
  8
0
 10
-34.6289
 20
246.476
 11
-34.0451
 21
246.245
  0
LINE
  8
0
 10
-34.0451
 20
246.245
 11
-33.4369
 21
246.089
  0
LINE
  8
0
 10
-33.4369
 20
246.089
 11
-32.8139
 21
246.01
  0
LINE
  8
0
 10
-32.8139
 20
246.01
 11
32.8139
 21
246.01
  0
LINE
  8
0
 10
32.8139
 20
246.01
 11
33.4369
 21
246.089
  0
LINE
  8
0
 10
-32.5482
 20
246.509
 11
-33.1401
 21
246.584
  0
LINE
  8
0
 10
-33.1401
 20
246.584
 11
-33.7178
 21
246.732
  0
LINE
  8
0
 10
-33.7178
 20
246.732
 11
-34.2724
 21
246.952
  0
LINE
  8
0
 10
-34.2724
 20
246.952
 11
-34.7952
 21
247.239
  0
LINE
  8
0
 10
-34.7952
 20
247.239
 11
-35.2778
 21
247.59
  0
LINE
  8
0
 10
-35.2778
 20
247.59
 11
-35.7126
 21
247.998
  0
LINE
  8
0
 10
-35.7126
 20
247.998
 11
-36.0928
 21
248.458
  0
LINE
  8
0
 10
-36.0928
 20
248.458
 11
-36.4124
 21
248.962
  0
LINE
  8
0
 10
-36.4124
 20
248.962
 11
-36.6664
 21
249.501
  0
LINE
  8
0
 10
-36.6664
 20
249.501
 11
-36.8508
 21
250.069
  0
LINE
  8
0
 10
-36.8508
 20
250.069
 11
-36.9625
 21
250.655
  0
LINE
  8
0
 10
-36.9625
 20
250.655
 11
-37
 21
251.25
  0
LINE
  8
0
 10
-37
 20
251.25
 11
-37
 21
300.75
  0
LINE
  8
0
 10
-37
 20
300.75
 11
-36.9625
 21
301.345
  0
LINE
  8
0
 10
-36.9625
 20
301.345
 11
-36.8508
 21
301.931
  0
LINE
  8
0
 10
-36.8508
 20
301.931
 11
-36.6664
 21
302.499
  0
LINE
  8
0
 10
-36.6664
 20
302.499
 11
-36.4124
 21
303.038
  0
LINE
  8
0
 10
-36.4124
 20
303.038
 11
-36.0928
 21
303.542
  0
LINE
  8
0
 10
-36.0928
 20
303.542
 11
-35.7126
 21
304.002
  0
LINE
  8
0
 10
-35.7126
 20
304.002
 11
-35.2778
 21
304.41
  0
LINE
  8
0
 10
-35.2778
 20
304.41
 11
-34.7952
 21
304.761
  0
LINE
  8
0
 10
-34.7952
 20
304.761
 11
-34.2724
 21
305.048
  0
LINE
  8
0
 10
-34.2724
 20
305.048
 11
-33.7178
 21
305.268
  0
LINE
  8
0
 10
-33.7178
 20
305.268
 11
-33.1401
 21
305.416
  0
LINE
  8
0
 10
-33.1401
 20
305.416
 11
-32.5482
 21
305.491
  0
LINE
  8
0
 10
-32.5482
 20
305.491
 11
32.5482
 21
305.491
  0
LINE
  8
0
 10
32.5482
 20
305.491
 11
33.1401
 21
305.416
  0
LINE
  8
0
 10
33.1401
 20
305.416
 11
33.7178
 21
305.268
  0
LINE
  8
0
 10
33.7178
 20
305.268
 11
34.2724
 21
305.048
  0
LINE
  8
0
 10
34.2724
 20
305.048
 11
34.7952
 21
304.761
  0
LINE
  8
0
 10
34.7952
 20
304.761
 11
35.2778
 21
304.41
  0
LINE
  8
0
 10
35.2778
 20
304.41
 11
35.7126
 21
304.002
  0
LINE
  8
0
 10
35.7126
 20
304.002
 11
36.0928
 21
303.542
  0
LINE
  8
0
 10
36.0928
 20
303.542
 11
36.4124
 21
303.038
  0
LINE
  8
0
 10
36.4124
 20
303.038
 11
36.6664
 21
302.499
  0
LINE
  8
0
 10
36.6664
 20
302.499
 11
36.8508
 21
301.931
  0
LINE
  8
0
 10
36.8508
 20
301.931
 11
36.9625
 21
301.345
  0
LINE
  8
0
 10
36.9625
 20
301.345
 11
37
 21
300.75
  0
LINE
  8
0
 10
37
 20
300.75
 11
37
 21
251.25
  0
LINE
  8
0
 10
37
 20
251.25
 11
36.9625
 21
250.655
  0
LINE
  8
0
 10
36.9625
 20
250.655
 11
36.8508
 21
250.069
  0
LINE
  8
0
 10
36.8508
 20
250.069
 11
36.6664
 21
249.501
  0
LINE
  8
0
 10
36.6664
 20
249.501
 11
36.4124
 21
248.962
  0
LINE
  8
0
 10
36.4124
 20
248.962
 11
36.0928
 21
248.458
  0
LINE
  8
0
 10
36.0928
 20
248.458
 11
35.7126
 21
247.998
  0
LINE
  8
0
 10
35.7126
 20
247.998
 11
35.2778
 21
247.59
  0
LINE
  8
0
 10
35.2778
 20
247.59
 11
34.7952
 21
247.239
  0
LINE
  8
0
 10
34.7952
 20
247.239
 11
34.2724
 21
246.952
  0
LINE
  8
0
 10
34.2724
 20
246.952
 11
33.7178
 21
246.732
  0
LINE
  8
0
 10
33.7178
 20
246.732
 11
33.1401
 21
246.584
  0
LINE
  8
0
 10
33.1401
 20
246.584
 11
32.5482
 21
246.509
  0
LINE
  8
0
 10
32.5482
 20
246.509
 11
-32.5482
 21
246.509
  0
LINE
  8
0
 10
33.4369
 20
177.089
 11
34.0451
 21
177.245
  0
LINE
  8
0
 10
34.0451
 20
177.245
 11
34.6289
 21
177.476
  0
LINE
  8
0
 10
34.6289
 20
177.476
 11
35.1791
 21
177.778
  0
LINE
  8
0
 10
35.1791
 20
177.778
 11
35.6871
 21
178.147
  0
LINE
  8
0
 10
35.6871
 20
178.147
 11
36.1448
 21
178.577
  0
LINE
  8
0
 10
36.1448
 20
178.577
 11
36.5451
 21
179.061
  0
LINE
  8
0
 10
36.5451
 20
179.061
 11
36.8815
 21
179.591
  0
LINE
  8
0
 10
36.8815
 20
179.591
 11
37.1489
 21
180.159
  0
LINE
  8
0
 10
37.1489
 20
180.159
 11
37.3429
 21
180.757
  0
LINE
  8
0
 10
37.3429
 20
180.757
 11
37.4606
 21
181.373
  0
LINE
  8
0
 10
37.4606
 20
181.373
 11
37.5
 21
182
  0
LINE
  8
0
 10
37.5
 20
182
 11
37.5
 21
232
  0
LINE
  8
0
 10
37.5
 20
232
 11
37.4606
 21
232.627
  0
LINE
  8
0
 10
37.4606
 20
232.627
 11
37.3429
 21
233.243
  0
LINE
  8
0
 10
37.3429
 20
233.243
 11
37.1489
 21
233.841
  0
LINE
  8
0
 10
37.1489
 20
233.841
 11
36.8815
 21
234.409
  0
LINE
  8
0
 10
36.8815
 20
234.409
 11
36.5451
 21
234.939
  0
LINE
  8
0
 10
36.5451
 20
234.939
 11
36.1448
 21
235.423
  0
LINE
  8
0
 10
36.1448
 20
235.423
 11
35.6871
 21
235.853
  0
LINE
  8
0
 10
35.6871
 20
235.853
 11
35.1791
 21
236.222
  0
LINE
  8
0
 10
35.1791
 20
236.222
 11
34.6289
 21
236.524
  0
LINE
  8
0
 10
34.6289
 20
236.524
 11
34.0451
 21
236.755
  0
LINE
  8
0
 10
34.0451
 20
236.755
 11
33.4369
 21
236.911
  0
LINE
  8
0
 10
33.4369
 20
236.911
 11
32.8139
 21
236.99
  0
LINE
  8
0
 10
32.8139
 20
236.99
 11
-32.8139
 21
236.99
  0
LINE
  8
0
 10
-32.8139
 20
236.99
 11
-33.4369
 21
236.911
  0
LINE
  8
0
 10
-33.4369
 20
236.911
 11
-34.0451
 21
236.755
  0
LINE
  8
0
 10
-34.0451
 20
236.755
 11
-34.6289
 21
236.524
  0
LINE
  8
0
 10
-34.6289
 20
236.524
 11
-35.1791
 21
236.222
  0
LINE
  8
0
 10
-35.1791
 20
236.222
 11
-35.6871
 21
235.853
  0
LINE
  8
0
 10
-35.6871
 20
235.853
 11
-36.1448
 21
235.423
  0
LINE
  8
0
 10
-36.1448
 20
235.423
 11
-36.5451
 21
234.939
  0
LINE
  8
0
 10
-36.5451
 20
234.939
 11
-36.8815
 21
234.409
  0
LINE
  8
0
 10
-36.8815
 20
234.409
 11
-37.1489
 21
233.841
  0
LINE
  8
0
 10
-37.1489
 20
233.841
 11
-37.3429
 21
233.243
  0
LINE
  8
0
 10
-37.3429
 20
233.243
 11
-37.4606
 21
232.627
  0
LINE
  8
0
 10
-37.4606
 20
232.627
 11
-37.5
 21
232
  0
LINE
  8
0
 10
-37.5
 20
232
 11
-37.5
 21
182
  0
LINE
  8
0
 10
-37.5
 20
182
 11
-37.4606
 21
181.373
  0
LINE
  8
0
 10
-37.4606
 20
181.373
 11
-37.3429
 21
180.757
  0
LINE
  8
0
 10
-37.3429
 20
180.757
 11
-37.1489
 21
180.159
  0
LINE
  8
0
 10
-37.1489
 20
180.159
 11
-36.8815
 21
179.591
  0
LINE
  8
0
 10
-36.8815
 20
179.591
 11
-36.5451
 21
179.061
  0
LINE
  8
0
 10
-36.5451
 20
179.061
 11
-36.1448
 21
178.577
  0
LINE
  8
0
 10
-36.1448
 20
178.577
 11
-35.6871
 21
178.147
  0
LINE
  8
0
 10
-35.6871
 20
178.147
 11
-35.1791
 21
177.778
  0
LINE
  8
0
 10
-35.1791
 20
177.778
 11
-34.6289
 21
177.476
  0
LINE
  8
0
 10
-34.6289
 20
177.476
 11
-34.0451
 21
177.245
  0
LINE
  8
0
 10
-34.0451
 20
177.245
 11
-33.4369
 21
177.089
  0
LINE
  8
0
 10
-33.4369
 20
177.089
 11
-32.8139
 21
177.01
  0
LINE
  8
0
 10
-32.8139
 20
177.01
 11
32.8139
 21
177.01
  0
LINE
  8
0
 10
32.8139
 20
177.01
 11
33.4369
 21
177.089
  0
LINE
  8
0
 10
-32.493
 20
178.388
 11
-32.9751
 21
178.449
  0
LINE
  8
0
 10
-32.9751
 20
178.449
 11
-33.4457
 21
178.57
  0
LINE
  8
0
 10
-33.4457
 20
178.57
 11
-33.8975
 21
178.749
  0
LINE
  8
0
 10
-33.8975
 20
178.749
 11
-34.3234
 21
178.983
  0
LINE
  8
0
 10
-34.3234
 20
178.983
 11
-34.7165
 21
179.269
  0
LINE
  8
0
 10
-34.7165
 20
179.269
 11
-35.0707
 21
179.601
  0
LINE
  8
0
 10
-35.0707
 20
179.601
 11
-35.3805
 21
179.976
  0
LINE
  8
0
 10
-35.3805
 20
179.976
 11
-35.6408
 21
180.386
  0
LINE
  8
0
 10
-35.6408
 20
180.386
 11
-35.8477
 21
180.826
  0
LINE
  8
0
 10
-35.8477
 20
180.826
 11
-35.9979
 21
181.288
  0
LINE
  8
0
 10
-35.9979
 20
181.288
 11
-36.089
 21
181.765
  0
LINE
  8
0
 10
-36.089
 20
181.765
 11
-36.1195
 21
182.25
  0
LINE
  8
0
 10
-36.1195
 20
182.25
 11
-36.1195
 21
231.75
  0
LINE
  8
0
 10
-36.1195
 20
231.75
 11
-36.089
 21
232.235
  0
LINE
  8
0
 10
-36.089
 20
232.235
 11
-35.9979
 21
232.712
  0
LINE
  8
0
 10
-35.9979
 20
232.712
 11
-35.8477
 21
233.174
  0
LINE
  8
0
 10
-35.8477
 20
233.174
 11
-35.6408
 21
233.614
  0
LINE
  8
0
 10
-35.6408
 20
233.614
 11
-35.3805
 21
234.024
  0
LINE
  8
0
 10
-35.3805
 20
234.024
 11
-35.0707
 21
234.399
  0
LINE
  8
0
 10
-35.0707
 20
234.399
 11
-34.7165
 21
234.731
  0
LINE
  8
0
 10
-34.7165
 20
234.731
 11
-34.3234
 21
235.017
  0
LINE
  8
0
 10
-34.3234
 20
235.017
 11
-33.8975
 21
235.251
  0
LINE
  8
0
 10
-33.8975
 20
235.251
 11
-33.4457
 21
235.43
  0
LINE
  8
0
 10
-33.4457
 20
235.43
 11
-32.9751
 21
235.551
  0
LINE
  8
0
 10
-32.9751
 20
235.551
 11
-32.493
 21
235.612
  0
LINE
  8
0
 10
-32.493
 20
235.612
 11
32.493
 21
235.612
  0
LINE
  8
0
 10
32.493
 20
235.612
 11
32.9751
 21
235.551
  0
LINE
  8
0
 10
32.9751
 20
235.551
 11
33.4457
 21
235.43
  0
LINE
  8
0
 10
33.4457
 20
235.43
 11
33.8975
 21
235.251
  0
LINE
  8
0
 10
33.8975
 20
235.251
 11
34.3234
 21
235.017
  0
LINE
  8
0
 10
34.3234
 20
235.017
 11
34.7165
 21
234.731
  0
LINE
  8
0
 10
34.7165
 20
234.731
 11
35.0707
 21
234.399
  0
LINE
  8
0
 10
35.0707
 20
234.399
 11
35.3805
 21
234.024
  0
LINE
  8
0
 10
35.3805
 20
234.024
 11
35.6408
 21
233.614
  0
LINE
  8
0
 10
35.6408
 20
233.614
 11
35.8477
 21
233.174
  0
LINE
  8
0
 10
35.8477
 20
233.174
 11
35.9979
 21
232.712
  0
LINE
  8
0
 10
35.9979
 20
232.712
 11
36.089
 21
232.235
  0
LINE
  8
0
 10
36.089
 20
232.235
 11
36.1195
 21
231.75
  0
LINE
  8
0
 10
36.1195
 20
231.75
 11
36.1195
 21
182.25
  0
LINE
  8
0
 10
36.1195
 20
182.25
 11
36.089
 21
181.765
  0
LINE
  8
0
 10
36.089
 20
181.765
 11
35.9979
 21
181.288
  0
LINE
  8
0
 10
35.9979
 20
181.288
 11
35.8477
 21
180.826
  0
LINE
  8
0
 10
35.8477
 20
180.826
 11
35.6408
 21
180.386
  0
LINE
  8
0
 10
35.6408
 20
180.386
 11
35.3805
 21
179.976
  0
LINE
  8
0
 10
35.3805
 20
179.976
 11
35.0707
 21
179.601
  0
LINE
  8
0
 10
35.0707
 20
179.601
 11
34.7165
 21
179.269
  0
LINE
  8
0
 10
34.7165
 20
179.269
 11
34.3234
 21
178.983
  0
LINE
  8
0
 10
34.3234
 20
178.983
 11
33.8975
 21
178.749
  0
LINE
  8
0
 10
33.8975
 20
178.749
 11
33.4457
 21
178.57
  0
LINE
  8
0
 10
33.4457
 20
178.57
 11
32.9751
 21
178.449
  0
LINE
  8
0
 10
32.9751
 20
178.449
 11
32.493
 21
178.388
  0
LINE
  8
0
 10
32.493
 20
178.388
 11
-32.493
 21
178.388
  0
LINE
  8
0
 10
33.4369
 20
108.089
 11
34.0451
 21
108.245
  0
LINE
  8
0
 10
34.0451
 20
108.245
 11
34.6289
 21
108.476
  0
LINE
  8
0
 10
34.6289
 20
108.476
 11
35.1791
 21
108.778
  0
LINE
  8
0
 10
35.1791
 20
108.778
 11
35.6871
 21
109.147
  0
LINE
  8
0
 10
35.6871
 20
109.147
 11
36.1448
 21
109.577
  0
LINE
  8
0
 10
36.1448
 20
109.577
 11
36.5451
 21
110.061
  0
LINE
  8
0
 10
36.5451
 20
110.061
 11
36.8815
 21
110.591
  0
LINE
  8
0
 10
36.8815
 20
110.591
 11
37.1489
 21
111.159
  0
LINE
  8
0
 10
37.1489
 20
111.159
 11
37.3429
 21
111.757
  0
LINE
  8
0
 10
37.3429
 20
111.757
 11
37.4606
 21
112.373
  0
LINE
  8
0
 10
37.4606
 20
112.373
 11
37.5
 21
113
  0
LINE
  8
0
 10
37.5
 20
113
 11
37.5
 21
163
  0
LINE
  8
0
 10
37.5
 20
163
 11
37.4606
 21
163.627
  0
LINE
  8
0
 10
37.4606
 20
163.627
 11
37.3429
 21
164.243
  0
LINE
  8
0
 10
37.3429
 20
164.243
 11
37.1489
 21
164.841
  0
LINE
  8
0
 10
37.1489
 20
164.841
 11
36.8815
 21
165.409
  0
LINE
  8
0
 10
36.8815
 20
165.409
 11
36.5451
 21
165.939
  0
LINE
  8
0
 10
36.5451
 20
165.939
 11
36.1448
 21
166.423
  0
LINE
  8
0
 10
36.1448
 20
166.423
 11
35.6871
 21
166.853
  0
LINE
  8
0
 10
35.6871
 20
166.853
 11
35.1791
 21
167.222
  0
LINE
  8
0
 10
35.1791
 20
167.222
 11
34.6289
 21
167.524
  0
LINE
  8
0
 10
34.6289
 20
167.524
 11
34.0451
 21
167.755
  0
LINE
  8
0
 10
34.0451
 20
167.755
 11
33.4369
 21
167.911
  0
LINE
  8
0
 10
33.4369
 20
167.911
 11
32.8139
 21
167.99
  0
LINE
  8
0
 10
32.8139
 20
167.99
 11
-32.8139
 21
167.99
  0
LINE
  8
0
 10
-32.8139
 20
167.99
 11
-33.4369
 21
167.911
  0
LINE
  8
0
 10
-33.4369
 20
167.911
 11
-34.0451
 21
167.755
  0
LINE
  8
0
 10
-34.0451
 20
167.755
 11
-34.6289
 21
167.524
  0
LINE
  8
0
 10
-34.6289
 20
167.524
 11
-35.1791
 21
167.222
  0
LINE
  8
0
 10
-35.1791
 20
167.222
 11
-35.6871
 21
166.853
  0
LINE
  8
0
 10
-35.6871
 20
166.853
 11
-36.1448
 21
166.423
  0
LINE
  8
0
 10
-36.1448
 20
166.423
 11
-36.5451
 21
165.939
  0
LINE
  8
0
 10
-36.5451
 20
165.939
 11
-36.8815
 21
165.409
  0
LINE
  8
0
 10
-36.8815
 20
165.409
 11
-37.1489
 21
164.841
  0
LINE
  8
0
 10
-37.1489
 20
164.841
 11
-37.3429
 21
164.243
  0
LINE
  8
0
 10
-37.3429
 20
164.243
 11
-37.4606
 21
163.627
  0
LINE
  8
0
 10
-37.4606
 20
163.627
 11
-37.5
 21
163
  0
LINE
  8
0
 10
-37.5
 20
163
 11
-37.5
 21
113
  0
LINE
  8
0
 10
-37.5
 20
113
 11
-37.4606
 21
112.373
  0
LINE
  8
0
 10
-37.4606
 20
112.373
 11
-37.3429
 21
111.757
  0
LINE
  8
0
 10
-37.3429
 20
111.757
 11
-37.1489
 21
111.159
  0
LINE
  8
0
 10
-37.1489
 20
111.159
 11
-36.8815
 21
110.591
  0
LINE
  8
0
 10
-36.8815
 20
110.591
 11
-36.5451
 21
110.061
  0
LINE
  8
0
 10
-36.5451
 20
110.061
 11
-36.1448
 21
109.577
  0
LINE
  8
0
 10
-36.1448
 20
109.577
 11
-35.6871
 21
109.147
  0
LINE
  8
0
 10
-35.6871
 20
109.147
 11
-35.1791
 21
108.778
  0
LINE
  8
0
 10
-35.1791
 20
108.778
 11
-34.6289
 21
108.476
  0
LINE
  8
0
 10
-34.6289
 20
108.476
 11
-34.0451
 21
108.245
  0
LINE
  8
0
 10
-34.0451
 20
108.245
 11
-33.4369
 21
108.089
  0
LINE
  8
0
 10
-33.4369
 20
108.089
 11
-32.8139
 21
108.01
  0
LINE
  8
0
 10
-32.8139
 20
108.01
 11
32.8139
 21
108.01
  0
LINE
  8
0
 10
32.8139
 20
108.01
 11
33.4369
 21
108.089
  0
LINE
  8
0
 10
29.887
 20
158.704
 11
29.6627
 21
158.732
  0
LINE
  8
0
 10
29.6627
 20
158.732
 11
29.4438
 21
158.788
  0
LINE
  8
0
 10
29.4438
 20
158.788
 11
29.2336
 21
158.871
  0
LINE
  8
0
 10
29.2336
 20
158.871
 11
29.0355
 21
158.98
  0
LINE
  8
0
 10
29.0355
 20
158.98
 11
28.8526
 21
159.113
  0
LINE
  8
0
 10
28.8526
 20
159.113
 11
28.6879
 21
159.268
  0
LINE
  8
0
 10
28.6879
 20
159.268
 11
28.5438
 21
159.442
  0
LINE
  8
0
 10
28.5438
 20
159.442
 11
28.4226
 21
159.633
  0
LINE
  8
0
 10
28.4226
 20
159.633
 11
28.3264
 21
159.837
  0
LINE
  8
0
 10
28.3264
 20
159.837
 11
28.2565
 21
160.052
  0
LINE
  8
0
 10
28.2565
 20
160.052
 11
28.2142
 21
160.274
  0
LINE
  8
0
 10
28.2142
 20
160.274
 11
28.2
 21
160.5
  0
LINE
  8
0
 10
28.2
 20
160.5
 11
28.2142
 21
160.726
  0
LINE
  8
0
 10
28.2142
 20
160.726
 11
28.2565
 21
160.948
  0
LINE
  8
0
 10
28.2565
 20
160.948
 11
28.3264
 21
161.163
  0
LINE
  8
0
 10
28.3264
 20
161.163
 11
28.4226
 21
161.367
  0
LINE
  8
0
 10
28.4226
 20
161.367
 11
28.5438
 21
161.558
  0
LINE
  8
0
 10
28.5438
 20
161.558
 11
28.6879
 21
161.732
  0
LINE
  8
0
 10
28.6879
 20
161.732
 11
28.8526
 21
161.887
  0
LINE
  8
0
 10
28.8526
 20
161.887
 11
29.0355
 21
162.02
  0
LINE
  8
0
 10
29.0355
 20
162.02
 11
29.2336
 21
162.129
  0
LINE
  8
0
 10
29.2336
 20
162.129
 11
29.4438
 21
162.212
  0
LINE
  8
0
 10
29.4438
 20
162.212
 11
29.6627
 21
162.268
  0
LINE
  8
0
 10
29.6627
 20
162.268
 11
29.887
 21
162.296
  0
LINE
  8
0
 10
29.887
 20
162.296
 11
30.113
 21
162.296
  0
LINE
  8
0
 10
30.113
 20
162.296
 11
30.3373
 21
162.268
  0
LINE
  8
0
 10
30.3373
 20
162.268
 11
30.5562
 21
162.212
  0
LINE
  8
0
 10
30.5562
 20
162.212
 11
30.7664
 21
162.129
  0
LINE
  8
0
 10
30.7664
 20
162.129
 11
30.9645
 21
162.02
  0
LINE
  8
0
 10
30.9645
 20
162.02
 11
31.1474
 21
161.887
  0
LINE
  8
0
 10
31.1474
 20
161.887
 11
31.3121
 21
161.732
  0
LINE
  8
0
 10
31.3121
 20
161.732
 11
31.4562
 21
161.558
  0
LINE
  8
0
 10
31.4562
 20
161.558
 11
31.5773
 21
161.367
  0
LINE
  8
0
 10
31.5773
 20
161.367
 11
31.6736
 21
161.163
  0
LINE
  8
0
 10
31.6736
 20
161.163
 11
31.7434
 21
160.948
  0
LINE
  8
0
 10
31.7434
 20
160.948
 11
31.7858
 21
160.726
  0
LINE
  8
0
 10
31.7858
 20
160.726
 11
31.8
 21
160.5
  0
LINE
  8
0
 10
31.8
 20
160.5
 11
31.7858
 21
160.274
  0
LINE
  8
0
 10
31.7858
 20
160.274
 11
31.7434
 21
160.052
  0
LINE
  8
0
 10
31.7434
 20
160.052
 11
31.6736
 21
159.837
  0
LINE
  8
0
 10
31.6736
 20
159.837
 11
31.5773
 21
159.633
  0
LINE
  8
0
 10
31.5773
 20
159.633
 11
31.4562
 21
159.442
  0
LINE
  8
0
 10
31.4562
 20
159.442
 11
31.3121
 21
159.268
  0
LINE
  8
0
 10
31.3121
 20
159.268
 11
31.1474
 21
159.113
  0
LINE
  8
0
 10
31.1474
 20
159.113
 11
30.9645
 21
158.98
  0
LINE
  8
0
 10
30.9645
 20
158.98
 11
30.7664
 21
158.871
  0
LINE
  8
0
 10
30.7664
 20
158.871
 11
30.5562
 21
158.788
  0
LINE
  8
0
 10
30.5562
 20
158.788
 11
30.3373
 21
158.732
  0
LINE
  8
0
 10
30.3373
 20
158.732
 11
30.113
 21
158.704
  0
LINE
  8
0
 10
30.113
 20
158.704
 11
29.887
 21
158.704
  0
LINE
  8
0
 10
-30.113
 20
158.704
 11
-30.3373
 21
158.732
  0
LINE
  8
0
 10
-30.3373
 20
158.732
 11
-30.5562
 21
158.788
  0
LINE
  8
0
 10
-30.5562
 20
158.788
 11
-30.7664
 21
158.871
  0
LINE
  8
0
 10
-30.7664
 20
158.871
 11
-30.9645
 21
158.98
  0
LINE
  8
0
 10
-30.9645
 20
158.98
 11
-31.1474
 21
159.113
  0
LINE
  8
0
 10
-31.1474
 20
159.113
 11
-31.3121
 21
159.268
  0
LINE
  8
0
 10
-31.3121
 20
159.268
 11
-31.4562
 21
159.442
  0
LINE
  8
0
 10
-31.4562
 20
159.442
 11
-31.5773
 21
159.633
  0
LINE
  8
0
 10
-31.5773
 20
159.633
 11
-31.6736
 21
159.837
  0
LINE
  8
0
 10
-31.6736
 20
159.837
 11
-31.7434
 21
160.052
  0
LINE
  8
0
 10
-31.7434
 20
160.052
 11
-31.7858
 21
160.274
  0
LINE
  8
0
 10
-31.7858
 20
160.274
 11
-31.8
 21
160.5
  0
LINE
  8
0
 10
-31.8
 20
160.5
 11
-31.7858
 21
160.726
  0
LINE
  8
0
 10
-31.7858
 20
160.726
 11
-31.7434
 21
160.948
  0
LINE
  8
0
 10
-31.7434
 20
160.948
 11
-31.6736
 21
161.163
  0
LINE
  8
0
 10
-31.6736
 20
161.163
 11
-31.5773
 21
161.367
  0
LINE
  8
0
 10
-31.5773
 20
161.367
 11
-31.4562
 21
161.558
  0
LINE
  8
0
 10
-31.4562
 20
161.558
 11
-31.3121
 21
161.732
  0
LINE
  8
0
 10
-31.3121
 20
161.732
 11
-31.1474
 21
161.887
  0
LINE
  8
0
 10
-31.1474
 20
161.887
 11
-30.9645
 21
162.02
  0
LINE
  8
0
 10
-30.9645
 20
162.02
 11
-30.7664
 21
162.129
  0
LINE
  8
0
 10
-30.7664
 20
162.129
 11
-30.5562
 21
162.212
  0
LINE
  8
0
 10
-30.5562
 20
162.212
 11
-30.3373
 21
162.268
  0
LINE
  8
0
 10
-30.3373
 20
162.268
 11
-30.113
 21
162.296
  0
LINE
  8
0
 10
-30.113
 20
162.296
 11
-29.887
 21
162.296
  0
LINE
  8
0
 10
-29.887
 20
162.296
 11
-29.6627
 21
162.268
  0
LINE
  8
0
 10
-29.6627
 20
162.268
 11
-29.4438
 21
162.212
  0
LINE
  8
0
 10
-29.4438
 20
162.212
 11
-29.2336
 21
162.129
  0
LINE
  8
0
 10
-29.2336
 20
162.129
 11
-29.0355
 21
162.02
  0
LINE
  8
0
 10
-29.0355
 20
162.02
 11
-28.8526
 21
161.887
  0
LINE
  8
0
 10
-28.8526
 20
161.887
 11
-28.6879
 21
161.732
  0
LINE
  8
0
 10
-28.6879
 20
161.732
 11
-28.5438
 21
161.558
  0
LINE
  8
0
 10
-28.5438
 20
161.558
 11
-28.4226
 21
161.367
  0
LINE
  8
0
 10
-28.4226
 20
161.367
 11
-28.3264
 21
161.163
  0
LINE
  8
0
 10
-28.3264
 20
161.163
 11
-28.2565
 21
160.948
  0
LINE
  8
0
 10
-28.2565
 20
160.948
 11
-28.2142
 21
160.726
  0
LINE
  8
0
 10
-28.2142
 20
160.726
 11
-28.2
 21
160.5
  0
LINE
  8
0
 10
-28.2
 20
160.5
 11
-28.2142
 21
160.274
  0
LINE
  8
0
 10
-28.2142
 20
160.274
 11
-28.2565
 21
160.052
  0
LINE
  8
0
 10
-28.2565
 20
160.052
 11
-28.3264
 21
159.837
  0
LINE
  8
0
 10
-28.3264
 20
159.837
 11
-28.4226
 21
159.633
  0
LINE
  8
0
 10
-28.4226
 20
159.633
 11
-28.5438
 21
159.442
  0
LINE
  8
0
 10
-28.5438
 20
159.442
 11
-28.6879
 21
159.268
  0
LINE
  8
0
 10
-28.6879
 20
159.268
 11
-28.8526
 21
159.113
  0
LINE
  8
0
 10
-28.8526
 20
159.113
 11
-29.0355
 21
158.98
  0
LINE
  8
0
 10
-29.0355
 20
158.98
 11
-29.2336
 21
158.871
  0
LINE
  8
0
 10
-29.2336
 20
158.871
 11
-29.4438
 21
158.788
  0
LINE
  8
0
 10
-29.4438
 20
158.788
 11
-29.6627
 21
158.732
  0
LINE
  8
0
 10
-29.6627
 20
158.732
 11
-29.887
 21
158.704
  0
LINE
  8
0
 10
-29.887
 20
158.704
 11
-30.113
 21
158.704
  0
LINE
  8
0
 10
-30.113
 20
113.704
 11
-30.3373
 21
113.732
  0
LINE
  8
0
 10
-30.3373
 20
113.732
 11
-30.5562
 21
113.788
  0
LINE
  8
0
 10
-30.5562
 20
113.788
 11
-30.7664
 21
113.871
  0
LINE
  8
0
 10
-30.7664
 20
113.871
 11
-30.9645
 21
113.98
  0
LINE
  8
0
 10
-30.9645
 20
113.98
 11
-31.1474
 21
114.113
  0
LINE
  8
0
 10
-31.1474
 20
114.113
 11
-31.3121
 21
114.268
  0
LINE
  8
0
 10
-31.3121
 20
114.268
 11
-31.4562
 21
114.442
  0
LINE
  8
0
 10
-31.4562
 20
114.442
 11
-31.5773
 21
114.633
  0
LINE
  8
0
 10
-31.5773
 20
114.633
 11
-31.6736
 21
114.837
  0
LINE
  8
0
 10
-31.6736
 20
114.837
 11
-31.7434
 21
115.052
  0
LINE
  8
0
 10
-31.7434
 20
115.052
 11
-31.7858
 21
115.274
  0
LINE
  8
0
 10
-31.7858
 20
115.274
 11
-31.8
 21
115.5
  0
LINE
  8
0
 10
-31.8
 20
115.5
 11
-31.7858
 21
115.726
  0
LINE
  8
0
 10
-31.7858
 20
115.726
 11
-31.7434
 21
115.948
  0
LINE
  8
0
 10
-31.7434
 20
115.948
 11
-31.6736
 21
116.163
  0
LINE
  8
0
 10
-31.6736
 20
116.163
 11
-31.5773
 21
116.367
  0
LINE
  8
0
 10
-31.5773
 20
116.367
 11
-31.4562
 21
116.558
  0
LINE
  8
0
 10
-31.4562
 20
116.558
 11
-31.3121
 21
116.732
  0
LINE
  8
0
 10
-31.3121
 20
116.732
 11
-31.1474
 21
116.887
  0
LINE
  8
0
 10
-31.1474
 20
116.887
 11
-30.9645
 21
117.02
  0
LINE
  8
0
 10
-30.9645
 20
117.02
 11
-30.7664
 21
117.129
  0
LINE
  8
0
 10
-30.7664
 20
117.129
 11
-30.5562
 21
117.212
  0
LINE
  8
0
 10
-30.5562
 20
117.212
 11
-30.3373
 21
117.268
  0
LINE
  8
0
 10
-30.3373
 20
117.268
 11
-30.113
 21
117.296
  0
LINE
  8
0
 10
-30.113
 20
117.296
 11
-29.887
 21
117.296
  0
LINE
  8
0
 10
-29.887
 20
117.296
 11
-29.6627
 21
117.268
  0
LINE
  8
0
 10
-29.6627
 20
117.268
 11
-29.4438
 21
117.212
  0
LINE
  8
0
 10
-29.4438
 20
117.212
 11
-29.2336
 21
117.129
  0
LINE
  8
0
 10
-29.2336
 20
117.129
 11
-29.0355
 21
117.02
  0
LINE
  8
0
 10
-29.0355
 20
117.02
 11
-28.8526
 21
116.887
  0
LINE
  8
0
 10
-28.8526
 20
116.887
 11
-28.6879
 21
116.732
  0
LINE
  8
0
 10
-28.6879
 20
116.732
 11
-28.5438
 21
116.558
  0
LINE
  8
0
 10
-28.5438
 20
116.558
 11
-28.4226
 21
116.367
  0
LINE
  8
0
 10
-28.4226
 20
116.367
 11
-28.3264
 21
116.163
  0
LINE
  8
0
 10
-28.3264
 20
116.163
 11
-28.2565
 21
115.948
  0
LINE
  8
0
 10
-28.2565
 20
115.948
 11
-28.2142
 21
115.726
  0
LINE
  8
0
 10
-28.2142
 20
115.726
 11
-28.2
 21
115.5
  0
LINE
  8
0
 10
-28.2
 20
115.5
 11
-28.2142
 21
115.274
  0
LINE
  8
0
 10
-28.2142
 20
115.274
 11
-28.2565
 21
115.052
  0
LINE
  8
0
 10
-28.2565
 20
115.052
 11
-28.3264
 21
114.837
  0
LINE
  8
0
 10
-28.3264
 20
114.837
 11
-28.4226
 21
114.633
  0
LINE
  8
0
 10
-28.4226
 20
114.633
 11
-28.5438
 21
114.442
  0
LINE
  8
0
 10
-28.5438
 20
114.442
 11
-28.6879
 21
114.268
  0
LINE
  8
0
 10
-28.6879
 20
114.268
 11
-28.8526
 21
114.113
  0
LINE
  8
0
 10
-28.8526
 20
114.113
 11
-29.0355
 21
113.98
  0
LINE
  8
0
 10
-29.0355
 20
113.98
 11
-29.2336
 21
113.871
  0
LINE
  8
0
 10
-29.2336
 20
113.871
 11
-29.4438
 21
113.788
  0
LINE
  8
0
 10
-29.4438
 20
113.788
 11
-29.6627
 21
113.732
  0
LINE
  8
0
 10
-29.6627
 20
113.732
 11
-29.887
 21
113.704
  0
LINE
  8
0
 10
-29.887
 20
113.704
 11
-30.113
 21
113.704
  0
LINE
  8
0
 10
29.887
 20
113.704
 11
29.6627
 21
113.732
  0
LINE
  8
0
 10
29.6627
 20
113.732
 11
29.4438
 21
113.788
  0
LINE
  8
0
 10
29.4438
 20
113.788
 11
29.2336
 21
113.871
  0
LINE
  8
0
 10
29.2336
 20
113.871
 11
29.0355
 21
113.98
  0
LINE
  8
0
 10
29.0355
 20
113.98
 11
28.8526
 21
114.113
  0
LINE
  8
0
 10
28.8526
 20
114.113
 11
28.6879
 21
114.268
  0
LINE
  8
0
 10
28.6879
 20
114.268
 11
28.5438
 21
114.442
  0
LINE
  8
0
 10
28.5438
 20
114.442
 11
28.4226
 21
114.633
  0
LINE
  8
0
 10
28.4226
 20
114.633
 11
28.3264
 21
114.837
  0
LINE
  8
0
 10
28.3264
 20
114.837
 11
28.2565
 21
115.052
  0
LINE
  8
0
 10
28.2565
 20
115.052
 11
28.2142
 21
115.274
  0
LINE
  8
0
 10
28.2142
 20
115.274
 11
28.2
 21
115.5
  0
LINE
  8
0
 10
28.2
 20
115.5
 11
28.2142
 21
115.726
  0
LINE
  8
0
 10
28.2142
 20
115.726
 11
28.2565
 21
115.948
  0
LINE
  8
0
 10
28.2565
 20
115.948
 11
28.3264
 21
116.163
  0
LINE
  8
0
 10
28.3264
 20
116.163
 11
28.4226
 21
116.367
  0
LINE
  8
0
 10
28.4226
 20
116.367
 11
28.5438
 21
116.558
  0
LINE
  8
0
 10
28.5438
 20
116.558
 11
28.6879
 21
116.732
  0
LINE
  8
0
 10
28.6879
 20
116.732
 11
28.8526
 21
116.887
  0
LINE
  8
0
 10
28.8526
 20
116.887
 11
29.0355
 21
117.02
  0
LINE
  8
0
 10
29.0355
 20
117.02
 11
29.2336
 21
117.129
  0
LINE
  8
0
 10
29.2336
 20
117.129
 11
29.4438
 21
117.212
  0
LINE
  8
0
 10
29.4438
 20
117.212
 11
29.6627
 21
117.268
  0
LINE
  8
0
 10
29.6627
 20
117.268
 11
29.887
 21
117.296
  0
LINE
  8
0
 10
29.887
 20
117.296
 11
30.113
 21
117.296
  0
LINE
  8
0
 10
30.113
 20
117.296
 11
30.3373
 21
117.268
  0
LINE
  8
0
 10
30.3373
 20
117.268
 11
30.5562
 21
117.212
  0
LINE
  8
0
 10
30.5562
 20
117.212
 11
30.7664
 21
117.129
  0
LINE
  8
0
 10
30.7664
 20
117.129
 11
30.9645
 21
117.02
  0
LINE
  8
0
 10
30.9645
 20
117.02
 11
31.1474
 21
116.887
  0
LINE
  8
0
 10
31.1474
 20
116.887
 11
31.3121
 21
116.732
  0
LINE
  8
0
 10
31.3121
 20
116.732
 11
31.4562
 21
116.558
  0
LINE
  8
0
 10
31.4562
 20
116.558
 11
31.5773
 21
116.367
  0
LINE
  8
0
 10
31.5773
 20
116.367
 11
31.6736
 21
116.163
  0
LINE
  8
0
 10
31.6736
 20
116.163
 11
31.7434
 21
115.948
  0
LINE
  8
0
 10
31.7434
 20
115.948
 11
31.7858
 21
115.726
  0
LINE
  8
0
 10
31.7858
 20
115.726
 11
31.8
 21
115.5
  0
LINE
  8
0
 10
31.8
 20
115.5
 11
31.7858
 21
115.274
  0
LINE
  8
0
 10
31.7858
 20
115.274
 11
31.7434
 21
115.052
  0
LINE
  8
0
 10
31.7434
 20
115.052
 11
31.6736
 21
114.837
  0
LINE
  8
0
 10
31.6736
 20
114.837
 11
31.5773
 21
114.633
  0
LINE
  8
0
 10
31.5773
 20
114.633
 11
31.4562
 21
114.442
  0
LINE
  8
0
 10
31.4562
 20
114.442
 11
31.3121
 21
114.268
  0
LINE
  8
0
 10
31.3121
 20
114.268
 11
31.1474
 21
114.113
  0
LINE
  8
0
 10
31.1474
 20
114.113
 11
30.9645
 21
113.98
  0
LINE
  8
0
 10
30.9645
 20
113.98
 11
30.7664
 21
113.871
  0
LINE
  8
0
 10
30.7664
 20
113.871
 11
30.5562
 21
113.788
  0
LINE
  8
0
 10
30.5562
 20
113.788
 11
30.3373
 21
113.732
  0
LINE
  8
0
 10
30.3373
 20
113.732
 11
30.113
 21
113.704
  0
LINE
  8
0
 10
30.113
 20
113.704
 11
29.887
 21
113.704
  0
ENDSEC
  0
SECTION
  2
OBJECTS
  0
DICTIONARY
  0
ENDSEC
  0
EOF
