<?xml version="1.0" standalone="no"?>
<!DOCTYPE svg PUBLIC "-//W3C//DTD SVG 1.1//EN" "http://www.w3.org/Graphics/SVG/1.1/DTD/svg11.dtd">
<svg width="30mm" height="100mm" viewBox="-15 -185 30 100" xmlns="http://www.w3.org/2000/svg" version="1.1">
<title>OpenSCAD Model</title>
<path d="
M 10.9369,-139.589 L 11.5451,-139.745 L 12.1289,-139.976 L 12.6791,-140.278 L 13.1871,-140.647 L 13.6448,-141.077
 L 14.0451,-141.561 L 14.3815,-142.091 L 14.6489,-142.659 L 14.8429,-143.257 L 14.9606,-143.873 L 15,-144.5
 L 15,-179.5 L 14.9606,-180.127 L 14.8429,-180.743 L 14.6489,-181.341 L 14.3815,-181.909 L 14.0451,-182.439
 L 13.6448,-182.923 L 13.1871,-183.353 L 12.6791,-183.722 L 12.1289,-184.024 L 11.5451,-184.255 L 10.9369,-184.411
 L 10.3139,-184.49 L -10.3139,-184.49 L -10.9369,-184.411 L -11.5451,-184.255 L -12.1289,-184.024 L -12.6791,-183.722
 L -13.1871,-183.353 L -13.6448,-182.923 L -14.0451,-182.439 L -14.3815,-181.909 L -14.6489,-181.341 L -14.8429,-180.743
 L -14.9606,-180.127 L -15,-179.5 L -15,-144.5 L -14.9606,-143.873 L -14.8429,-143.257 L -14.6489,-142.659
 L -14.3815,-142.091 L -14.0451,-141.561 L -13.6448,-141.077 L -13.1871,-140.647 L -12.6791,-140.278 L -12.1289,-139.976
 L -11.5451,-139.745 L -10.9369,-139.589 L -10.3139,-139.51 L 10.3139,-139.51 z
M -9.69545,-141.893 L -10.0833,-141.942 L -10.4619,-142.039 L -10.8254,-142.183 L -11.168,-142.372 L -11.4842,-142.601
 L -11.7692,-142.869 L -12.0184,-143.17 L -12.2279,-143.5 L -12.3943,-143.854 L -12.5151,-144.226 L -12.5884,-144.61
 L -12.6129,-145 L -12.6129,-179 L -12.5884,-179.39 L -12.5151,-179.774 L -12.3943,-180.146 L -12.2279,-180.5
 L -12.0184,-180.83 L -11.7692,-181.131 L -11.4842,-181.399 L -11.168,-181.628 L -10.8254,-181.817 L -10.4619,-181.961
 L -10.0833,-182.058 L -9.69545,-182.107 L 9.69545,-182.107 L 10.0833,-182.058 L 10.4619,-181.961 L 10.8254,-181.817
 L 11.168,-181.628 L 11.4842,-181.399 L 11.7692,-181.131 L 12.0184,-180.83 L 12.2279,-180.5 L 12.3943,-180.146
 L 12.5151,-179.774 L 12.5884,-179.39 L 12.6129,-179 L 12.6129,-145 L 12.5884,-144.61 L 12.5151,-144.226
 L 12.3943,-143.854 L 12.2279,-143.5 L 12.0184,-143.17 L 11.7692,-142.869 L 11.4842,-142.601 L 11.168,-142.372
 L 10.8254,-142.183 L 10.4619,-142.039 L 10.0833,-141.942 L 9.69545,-141.893 z
M 10.9369,-85.5886 L 11.5451,-85.7447 L 12.1289,-85.9759 L 12.6791,-86.2784 L 13.1871,-86.6474 L 13.6448,-87.0773
 L 14.0451,-87.5611 L 14.3815,-88.0912 L 14.6489,-88.6594 L 14.8429,-89.2566 L 14.9606,-89.8733 L 15,-90.5
 L 15,-125.5 L 14.9606,-126.127 L 14.8429,-126.743 L 14.6489,-127.341 L 14.3815,-127.909 L 14.0451,-128.439
 L 13.6448,-128.923 L 13.1871,-129.353 L 12.6791,-129.722 L 12.1289,-130.024 L 11.5451,-130.255 L 10.9369,-130.411
 L 10.3139,-130.49 L -10.3139,-130.49 L -10.9369,-130.411 L -11.5451,-130.255 L -12.1289,-130.024 L -12.6791,-129.722
 L -13.1871,-129.353 L -13.6448,-128.923 L -14.0451,-128.439 L -14.3815,-127.909 L -14.6489,-127.341 L -14.8429,-126.743
 L -14.9606,-126.127 L -15,-125.5 L -15,-90.5 L -14.9606,-89.8733 L -14.8429,-89.2566 L -14.6489,-88.6594
 L -14.3815,-88.0912 L -14.0451,-87.5611 L -13.6448,-87.0773 L -13.1871,-86.6474 L -12.6791,-86.2784 L -12.1289,-85.9759
 L -11.5451,-85.7447 L -10.9369,-85.5886 L -10.3139,-85.5099 L 10.3139,-85.5099 z
M 7.36592,-120.869 L 7.09988,-120.903 L 6.84015,-120.969 L 6.59084,-121.068 L 6.35585,-121.197 L 6.1389,-121.355
 L 5.94344,-121.538 L 5.77251,-121.745 L 5.62881,-121.971 L 5.51465,-122.214 L 5.43178,-122.469 L 5.38153,-122.732
 L 5.3647,-123 L 5.38153,-123.268 L 5.43178,-123.531 L 5.51465,-123.786 L 5.62881,-124.029 L 5.77251,-124.255
 L 5.94344,-124.462 L 6.1389,-124.645 L 6.35585,-124.803 L 6.59084,-124.932 L 6.84015,-125.031 L 7.09988,-125.097
 L 7.36592,-125.131 L 7.63406,-125.131 L 7.9001,-125.097 L 8.15984,-125.031 L 8.40915,-124.932 L 8.64413,-124.803
 L 8.86108,-124.645 L 9.05655,-124.462 L 9.22748,-124.255 L 9.37117,-124.029 L 9.48534,-123.786 L 9.56821,-123.531
 L 9.61845,-123.268 L 9.63528,-123 L 9.61845,-122.732 L 9.56821,-122.469 L 9.48534,-122.214 L 9.37117,-121.971
 L 9.22748,-121.745 L 9.05655,-121.538 L 8.86108,-121.355 L 8.64413,-121.197 L 8.40915,-121.068 L 8.15984,-120.969
 L 7.9001,-120.903 L 7.63406,-120.869 z
M -7.63406,-120.869 L -7.9001,-120.903 L -8.15984,-120.969 L -8.40915,-121.068 L -8.64413,-121.197 L -8.86108,-121.355
 L -9.05655,-121.538 L -9.22748,-121.745 L -9.37117,-121.971 L -9.48534,-122.214 L -9.56821,-122.469 L -9.61845,-122.732
 L -9.63528,-123 L -9.61845,-123.268 L -9.56821,-123.531 L -9.48534,-123.786 L -9.37117,-124.029 L -9.22748,-124.255
 L -9.05655,-124.462 L -8.86108,-124.645 L -8.64413,-124.803 L -8.40915,-124.932 L -8.15984,-125.031 L -7.9001,-125.097
 L -7.63406,-125.131 L -7.36592,-125.131 L -7.09988,-125.097 L -6.84015,-125.031 L -6.59084,-124.932 L -6.35585,-124.803
 L -6.1389,-124.645 L -5.94344,-124.462 L -5.77251,-124.255 L -5.62881,-124.029 L -5.51465,-123.786 L -5.43178,-123.531
 L -5.38153,-123.268 L -5.3647,-123 L -5.38153,-122.732 L -5.43178,-122.469 L -5.51465,-122.214 L -5.62881,-121.971
 L -5.77251,-121.745 L -5.94344,-121.538 L -6.1389,-121.355 L -6.35585,-121.197 L -6.59084,-121.068 L -6.84015,-120.969
 L -7.09988,-120.903 L -7.36592,-120.869 z
M 7.36592,-90.8689 L 7.09988,-90.9025 L 6.84015,-90.9692 L 6.59084,-91.0679 L 6.35585,-91.1971 L 6.1389,-91.3547
 L 5.94344,-91.5383 L 5.77251,-91.7449 L 5.62881,-91.9713 L 5.51465,-92.214 L 5.43178,-92.469 L 5.38153,-92.7324
 L 5.3647,-93 L 5.38153,-93.2676 L 5.43178,-93.531 L 5.51465,-93.7861 L 5.62881,-94.0287 L 5.77251,-94.2551
 L 5.94344,-94.4617 L 6.1389,-94.6453 L 6.35585,-94.8029 L 6.59084,-94.9321 L 6.84015,-95.0308 L 7.09988,-95.0975
 L 7.36592,-95.1311 L 7.63406,-95.1311 L 7.9001,-95.0975 L 8.15984,-95.0308 L 8.40915,-94.9321 L 8.64413,-94.8029
 L 8.86108,-94.6453 L 9.05655,-94.4617 L 9.22748,-94.2551 L 9.37117,-94.0287 L 9.48534,-93.7861 L 9.56821,-93.531
 L 9.61845,-93.2676 L 9.63528,-93 L 9.61845,-92.7324 L 9.56821,-92.469 L 9.48534,-92.214 L 9.37117,-91.9713
 L 9.22748,-91.7449 L 9.05655,-91.5383 L 8.86108,-91.3547 L 8.64413,-91.1971 L 8.40915,-91.0679 L 8.15984,-90.9692
 L 7.9001,-90.9025 L 7.63406,-90.8689 z
M -7.63406,-90.8689 L -7.9001,-90.9025 L -8.15984,-90.9692 L -8.40915,-91.0679 L -8.64413,-91.1971 L -8.86108,-91.3547
 L -9.05655,-91.5383 L -9.22748,-91.7449 L -9.37117,-91.9713 L -9.48534,-92.214 L -9.56821,-92.469 L -9.61845,-92.7324
 L -9.63528,-93 L -9.61845,-93.2676 L -9.56821,-93.531 L -9.48534,-93.7861 L -9.37117,-94.0287 L -9.22748,-94.2551
 L -9.05655,-94.4617 L -8.86108,-94.6453 L -8.64413,-94.8029 L -8.40915,-94.9321 L -8.15984,-95.0308 L -7.9001,-95.0975
 L -7.63406,-95.1311 L -7.36592,-95.1311 L -7.09988,-95.0975 L -6.84015,-95.0308 L -6.59084,-94.9321 L -6.35585,-94.8029
 L -6.1389,-94.6453 L -5.94344,-94.4617 L -5.77251,-94.2551 L -5.62881,-94.0287 L -5.51465,-93.7861 L -5.43178,-93.531
 L -5.38153,-93.2676 L -5.3647,-93 L -5.38153,-92.7324 L -5.43178,-92.469 L -5.51465,-92.214 L -5.62881,-91.9713
 L -5.77251,-91.7449 L -5.94344,-91.5383 L -6.1389,-91.3547 L -6.35585,-91.1971 L -6.59084,-91.0679 L -6.84015,-90.9692
 L -7.09988,-90.9025 L -7.36592,-90.8689 z
" stroke="black" fill="lightgray" stroke-width="0.5"/>
</svg>
