<?xml version="1.0" standalone="no"?>
<!DOCTYPE svg PUBLIC "-//W3C//DTD SVG 1.1//EN" "http://www.w3.org/Graphics/SVG/1.1/DTD/svg11.dtd">
<svg width="60mm" height="108mm" viewBox="-30 -210 60 108" xmlns="http://www.w3.org/2000/svg" version="1.1">
<title>OpenSCAD Model</title>
<path d="
M 25.9369,-180.089 L 26.5451,-180.245 L 27.1289,-180.476 L 27.6791,-180.778 L 28.1871,-181.147 L 28.6448,-181.577
 L 29.0451,-182.061 L 29.3815,-182.591 L 29.6489,-183.159 L 29.8429,-183.757 L 29.9606,-184.373 L 30,-185
 L 30,-205 L 29.9606,-205.627 L 29.8429,-206.243 L 29.6489,-206.841 L 29.3815,-207.409 L 29.0451,-207.939
 L 28.6448,-208.423 L 28.1871,-208.853 L 27.6791,-209.222 L 27.1289,-209.524 L 26.5451,-209.755 L 25.9369,-209.911
 L 25.3139,-209.99 L -25.3139,-209.99 L -25.9369,-209.911 L -26.5451,-209.755 L -27.1289,-209.524 L -27.6791,-209.222
 L -28.1871,-208.853 L -28.6448,-208.423 L -29.0451,-207.939 L -29.3815,-207.409 L -29.6489,-206.841 L -29.8429,-206.243
 L -29.9606,-205.627 L -30,-205 L -30,-185 L -29.9606,-184.373 L -29.8429,-183.757 L -29.6489,-183.159
 L -29.3815,-182.591 L -29.0451,-182.061 L -28.6448,-181.577 L -28.1871,-181.147 L -27.6791,-180.778 L -27.1289,-180.476
 L -26.5451,-180.245 L -25.9369,-180.089 L -25.3139,-180.01 L 25.3139,-180.01 z
M -25.0482,-180.509 L -25.6401,-180.584 L -26.2178,-180.732 L -26.7724,-180.952 L -27.2952,-181.239 L -27.7778,-181.59
 L -28.2126,-181.998 L -28.5928,-182.458 L -28.9124,-182.962 L -29.1664,-183.501 L -29.3508,-184.069 L -29.4625,-184.655
 L -29.5,-185.25 L -29.5,-204.75 L -29.4625,-205.345 L -29.3508,-205.931 L -29.1664,-206.499 L -28.9124,-207.038
 L -28.5928,-207.542 L -28.2126,-208.002 L -27.7778,-208.41 L -27.2952,-208.761 L -26.7724,-209.048 L -26.2178,-209.268
 L -25.6401,-209.416 L -25.0482,-209.491 L 25.0482,-209.491 L 25.6401,-209.416 L 26.2178,-209.268 L 26.7724,-209.048
 L 27.2952,-208.761 L 27.7778,-208.41 L 28.2126,-208.002 L 28.5928,-207.542 L 28.9124,-207.038 L 29.1664,-206.499
 L 29.3508,-205.931 L 29.4625,-205.345 L 29.5,-204.75 L 29.5,-185.25 L 29.4625,-184.655 L 29.3508,-184.069
 L 29.1664,-183.501 L 28.9124,-182.962 L 28.5928,-182.458 L 28.2126,-181.998 L 27.7778,-181.59 L 27.2952,-181.239
 L 26.7724,-180.952 L 26.2178,-180.732 L 25.6401,-180.584 L 25.0482,-180.509 z
M 25.9369,-141.089 L 26.5451,-141.245 L 27.1289,-141.476 L 27.6791,-141.778 L 28.1871,-142.147 L 28.6448,-142.577
 L 29.0451,-143.061 L 29.3815,-143.591 L 29.6489,-144.159 L 29.8429,-144.757 L 29.9606,-145.373 L 30,-146
 L 30,-166 L 29.9606,-166.627 L 29.8429,-167.243 L 29.6489,-167.841 L 29.3815,-168.409 L 29.0451,-168.939
 L 28.6448,-169.423 L 28.1871,-169.853 L 27.6791,-170.222 L 27.1289,-170.524 L 26.5451,-170.755 L 25.9369,-170.911
 L 25.3139,-170.99 L -25.3139,-170.99 L -25.9369,-170.911 L -26.5451,-170.755 L -27.1289,-170.524 L -27.6791,-170.222
 L -28.1871,-169.853 L -28.6448,-169.423 L -29.0451,-168.939 L -29.3815,-168.409 L -29.6489,-167.841 L -29.8429,-167.243
 L -29.9606,-166.627 L -30,-166 L -30,-146 L -29.9606,-145.373 L -29.8429,-144.757 L -29.6489,-144.159
 L -29.3815,-143.591 L -29.0451,-143.061 L -28.6448,-142.577 L -28.1871,-142.147 L -27.6791,-141.778 L -27.1289,-141.476
 L -26.5451,-141.245 L -25.9369,-141.089 L -25.3139,-141.01 L 25.3139,-141.01 z
M -25.0375,-141.681 L -25.6079,-141.753 L -26.1648,-141.896 L -26.6994,-142.107 L -27.2032,-142.384 L -27.6684,-142.722
 L -28.0875,-143.116 L -28.454,-143.559 L -28.7621,-144.044 L -29.0069,-144.565 L -29.1846,-145.111 L -29.2923,-145.676
 L -29.3284,-146.25 L -29.3284,-165.75 L -29.2923,-166.324 L -29.1846,-166.889 L -29.0069,-167.435 L -28.7621,-167.956
 L -28.454,-168.441 L -28.0875,-168.884 L -27.6684,-169.278 L -27.2032,-169.616 L -26.6994,-169.893 L -26.1648,-170.104
 L -25.6079,-170.247 L -25.0375,-170.319 L 25.0375,-170.319 L 25.6079,-170.247 L 26.1648,-170.104 L 26.6994,-169.893
 L 27.2032,-169.616 L 27.6684,-169.278 L 28.0875,-168.884 L 28.454,-168.441 L 28.7621,-167.956 L 29.0069,-167.435
 L 29.1846,-166.889 L 29.2923,-166.324 L 29.3284,-165.75 L 29.3284,-146.25 L 29.2923,-145.676 L 29.1846,-145.111
 L 29.0069,-144.565 L 28.7621,-144.044 L 28.454,-143.559 L 28.0875,-143.116 L 27.6684,-142.722 L 27.2032,-142.384
 L 26.6994,-142.107 L 26.1648,-141.896 L 25.6079,-141.753 L 25.0375,-141.681 z
M 25.9369,-102.089 L 26.5451,-102.245 L 27.1289,-102.476 L 27.6791,-102.778 L 28.1871,-103.147 L 28.6448,-103.577
 L 29.0451,-104.061 L 29.3815,-104.591 L 29.6489,-105.159 L 29.8429,-105.757 L 29.9606,-106.373 L 30,-107
 L 30,-127 L 29.9606,-127.627 L 29.8429,-128.243 L 29.6489,-128.841 L 29.3815,-129.409 L 29.0451,-129.939
 L 28.6448,-130.423 L 28.1871,-130.853 L 27.6791,-131.222 L 27.1289,-131.524 L 26.5451,-131.755 L 25.9369,-131.911
 L 25.3139,-131.99 L -25.3139,-131.99 L -25.9369,-131.911 L -26.5451,-131.755 L -27.1289,-131.524 L -27.6791,-131.222
 L -28.1871,-130.853 L -28.6448,-130.423 L -29.0451,-129.939 L -29.3815,-129.409 L -29.6489,-128.841 L -29.8429,-128.243
 L -29.9606,-127.627 L -30,-127 L -30,-107 L -29.9606,-106.373 L -29.8429,-105.757 L -29.6489,-105.159
 L -29.3815,-104.591 L -29.0451,-104.061 L -28.6448,-103.577 L -28.1871,-103.147 L -27.6791,-102.778 L -27.1289,-102.476
 L -26.5451,-102.245 L -25.9369,-102.089 L -25.3139,-102.01 L 25.3139,-102.01 z
M -24.8825,-105.145 L -25.1453,-105.178 L -25.4019,-105.244 L -25.6482,-105.341 L -25.8804,-105.469 L -26.0947,-105.625
 L -26.2879,-105.806 L -26.4567,-106.01 L -26.5987,-106.234 L -26.7115,-106.473 L -26.7934,-106.725 L -26.843,-106.986
 L -26.8596,-107.25 L -26.8596,-126.75 L -26.843,-127.014 L -26.7934,-127.275 L -26.7115,-127.527 L -26.5987,-127.766
 L -26.4567,-127.99 L -26.2879,-128.194 L -26.0947,-128.375 L -25.8804,-128.531 L -25.6482,-128.659 L -25.4019,-128.756
 L -25.1453,-128.822 L -24.8825,-128.855 L 24.8825,-128.855 L 25.1453,-128.822 L 25.4019,-128.756 L 25.6482,-128.659
 L 25.8804,-128.531 L 26.0947,-128.375 L 26.2879,-128.194 L 26.4567,-127.99 L 26.5987,-127.766 L 26.7115,-127.527
 L 26.7934,-127.275 L 26.843,-127.014 L 26.8596,-126.75 L 26.8596,-107.25 L 26.843,-106.986 L 26.7934,-106.725
 L 26.7115,-106.473 L 26.5987,-106.234 L 26.4567,-106.01 L 26.2879,-105.806 L 26.0947,-105.625 L 25.8804,-105.469
 L 25.6482,-105.341 L 25.4019,-105.244 L 25.1453,-105.178 L 24.8825,-105.145 z
" stroke="black" fill="lightgray" stroke-width="0.5"/>
</svg>
