<?xml version="1.0" standalone="no"?>
<!DOCTYPE svg PUBLIC "-//W3C//DTD SVG 1.1//EN" "http://www.w3.org/Graphics/SVG/1.1/DTD/svg11.dtd">
<svg width="16mm" height="198mm" viewBox="-8 -306 16 198" xmlns="http://www.w3.org/2000/svg" version="1.1">
<title>OpenSCAD Model</title>
<path d="
M 3.4369,-246.089 L 4.04507,-246.245 L 4.62889,-246.476 L 5.17912,-246.778 L 5.68712,-247.147 L 6.14484,-247.577
 L 6.54507,-248.061 L 6.88153,-248.591 L 7.14888,-249.159 L 7.34291,-249.757 L 7.46057,-250.373 L 7.5,-251
 L 7.5,-301 L 7.46057,-301.627 L 7.34291,-302.243 L 7.14888,-302.841 L 6.88153,-303.409 L 6.54507,-303.939
 L 6.14484,-304.423 L 5.68712,-304.853 L 5.17912,-305.222 L 4.62889,-305.524 L 4.04507,-305.755 L 3.4369,-305.911
 L 2.81395,-305.99 L -2.81395,-305.99 L -3.4369,-305.911 L -4.04507,-305.755 L -4.62889,-305.524 L -5.17912,-305.222
 L -5.68712,-304.853 L -6.14484,-304.423 L -6.54507,-303.939 L -6.88153,-303.409 L -7.14888,-302.841 L -7.34291,-302.243
 L -7.46057,-301.627 L -7.5,-301 L -7.5,-251 L -7.46057,-250.373 L -7.34291,-249.757 L -7.14888,-249.159
 L -6.88153,-248.591 L -6.54507,-248.061 L -6.14484,-247.577 L -5.68712,-247.147 L -5.17912,-246.778 L -4.62889,-246.476
 L -4.04507,-246.245 L -3.4369,-246.089 L -2.81395,-246.01 L 2.81395,-246.01 z
M -2.24316,-247.635 L -2.72565,-247.696 L -3.1967,-247.817 L -3.64888,-247.996 L -4.07506,-248.23 L -4.46851,-248.516
 L -4.82301,-248.849 L -5.13301,-249.224 L -5.3936,-249.634 L -5.60068,-250.074 L -5.75096,-250.537 L -5.84209,-251.015
 L -5.87262,-251.5 L -5.87262,-300.5 L -5.84209,-300.985 L -5.75096,-301.463 L -5.60068,-301.926 L -5.3936,-302.366
 L -5.13301,-302.776 L -4.82301,-303.151 L -4.46851,-303.484 L -4.07506,-303.77 L -3.64888,-304.004 L -3.1967,-304.183
 L -2.72565,-304.304 L -2.24316,-304.365 L 2.24316,-304.365 L 2.72565,-304.304 L 3.1967,-304.183 L 3.64888,-304.004
 L 4.07506,-303.77 L 4.46851,-303.484 L 4.82301,-303.151 L 5.13301,-302.776 L 5.3936,-302.366 L 5.60068,-301.926
 L 5.75096,-301.463 L 5.84209,-300.985 L 5.87262,-300.5 L 5.87262,-251.5 L 5.84209,-251.015 L 5.75096,-250.537
 L 5.60068,-250.074 L 5.3936,-249.634 L 5.13301,-249.224 L 4.82301,-248.849 L 4.46851,-248.516 L 4.07506,-248.23
 L 3.64888,-247.996 L 3.1967,-247.817 L 2.72565,-247.696 L 2.24316,-247.635 z
M 3.4369,-177.089 L 4.04507,-177.245 L 4.62889,-177.476 L 5.17912,-177.778 L 5.68712,-178.147 L 6.14484,-178.577
 L 6.54507,-179.061 L 6.88153,-179.591 L 7.14888,-180.159 L 7.34291,-180.757 L 7.46057,-181.373 L 7.5,-182
 L 7.5,-232 L 7.46057,-232.627 L 7.34291,-233.243 L 7.14888,-233.841 L 6.88153,-234.409 L 6.54507,-234.939
 L 6.14484,-235.423 L 5.68712,-235.853 L 5.17912,-236.222 L 4.62889,-236.524 L 4.04507,-236.755 L 3.4369,-236.911
 L 2.81395,-236.99 L -2.81395,-236.99 L -3.4369,-236.911 L -4.04507,-236.755 L -4.62889,-236.524 L -5.17912,-236.222
 L -5.68712,-235.853 L -6.14484,-235.423 L -6.54507,-234.939 L -6.88153,-234.409 L -7.14888,-233.841 L -7.34291,-233.243
 L -7.46057,-232.627 L -7.5,-232 L -7.5,-182 L -7.46057,-181.373 L -7.34291,-180.757 L -7.14888,-180.159
 L -6.88153,-179.591 L -6.54507,-179.061 L -6.14484,-178.577 L -5.68712,-178.147 L -5.17912,-177.778 L -4.62889,-177.476
 L -4.04507,-177.245 L -3.4369,-177.089 L -2.81395,-177.01 L 2.81395,-177.01 z
M 3.4369,-108.089 L 4.04507,-108.245 L 4.62889,-108.476 L 5.17912,-108.778 L 5.68712,-109.147 L 6.14484,-109.577
 L 6.54507,-110.061 L 6.88153,-110.591 L 7.14888,-111.159 L 7.34291,-111.757 L 7.46057,-112.373 L 7.5,-113
 L 7.5,-163 L 7.46057,-163.627 L 7.34291,-164.243 L 7.14888,-164.841 L 6.88153,-165.409 L 6.54507,-165.939
 L 6.14484,-166.423 L 5.68712,-166.853 L 5.17912,-167.222 L 4.62889,-167.524 L 4.04507,-167.755 L 3.4369,-167.911
 L 2.81395,-167.99 L -2.81395,-167.99 L -3.4369,-167.911 L -4.04507,-167.755 L -4.62889,-167.524 L -5.17912,-167.222
 L -5.68712,-166.853 L -6.14484,-166.423 L -6.54507,-165.939 L -6.88153,-165.409 L -7.14888,-164.841 L -7.34291,-164.243
 L -7.46057,-163.627 L -7.5,-163 L -7.5,-113 L -7.46057,-112.373 L -7.34291,-111.757 L -7.14888,-111.159
 L -6.88153,-110.591 L -6.54507,-110.061 L -6.14484,-109.577 L -5.68712,-109.147 L -5.17912,-108.778 L -4.62889,-108.476
 L -4.04507,-108.245 L -3.4369,-108.089 L -2.81395,-108.01 L 2.81395,-108.01 z
M -0.113022,-158.704 L -0.33728,-158.732 L -0.556229,-158.788 L -0.766388,-158.871 L -0.964478,-158.98 L -1.14735,-159.113
 L -1.31213,-159.268 L -1.45622,-159.442 L -1.57735,-159.633 L -1.67358,-159.837 L -1.74344,-160.052 L -1.7858,-160.274
 L -1.79999,-160.5 L -1.7858,-160.726 L -1.74344,-160.948 L -1.67358,-161.163 L -1.57735,-161.367 L -1.45622,-161.558
 L -1.31213,-161.732 L -1.14735,-161.887 L -0.964478,-162.02 L -0.766388,-162.129 L -0.556229,-162.212 L -0.33728,-162.268
 L -0.113022,-162.296 L 0.113022,-162.296 L 0.33728,-162.268 L 0.556229,-162.212 L 0.766388,-162.129 L 0.964478,-162.02
 L 1.14735,-161.887 L 1.31213,-161.732 L 1.45622,-161.558 L 1.57735,-161.367 L 1.67358,-161.163 L 1.74344,-160.948
 L 1.7858,-160.726 L 1.79999,-160.5 L 1.7858,-160.274 L 1.74344,-160.052 L 1.67358,-159.837 L 1.57735,-159.633
 L 1.45622,-159.442 L 1.31213,-159.268 L 1.14735,-159.113 L 0.964478,-158.98 L 0.766388,-158.871 L 0.556229,-158.788
 L 0.33728,-158.732 L 0.113022,-158.704 z
M -0.113022,-113.704 L -0.33728,-113.732 L -0.556229,-113.788 L -0.766388,-113.871 L -0.964478,-113.98 L -1.14735,-114.113
 L -1.31213,-114.268 L -1.45622,-114.442 L -1.57735,-114.633 L -1.67358,-114.837 L -1.74344,-115.052 L -1.7858,-115.274
 L -1.79999,-115.5 L -1.7858,-115.726 L -1.74344,-115.948 L -1.67358,-116.163 L -1.57735,-116.367 L -1.45622,-116.558
 L -1.31213,-116.732 L -1.14735,-116.887 L -0.964478,-117.02 L -0.766388,-117.129 L -0.556229,-117.212 L -0.33728,-117.268
 L -0.113022,-117.296 L 0.113022,-117.296 L 0.33728,-117.268 L 0.556229,-117.212 L 0.766388,-117.129 L 0.964478,-117.02
 L 1.14735,-116.887 L 1.31213,-116.732 L 1.45622,-116.558 L 1.57735,-116.367 L 1.67358,-116.163 L 1.74344,-115.948
 L 1.7858,-115.726 L 1.79999,-115.5 L 1.7858,-115.274 L 1.74344,-115.052 L 1.67358,-114.837 L 1.57735,-114.633
 L 1.45622,-114.442 L 1.31213,-114.268 L 1.14735,-114.113 L 0.964478,-113.98 L 0.766388,-113.871 L 0.556229,-113.788
 L 0.33728,-113.732 L 0.113022,-113.704 z
" stroke="black" fill="lightgray" stroke-width="0.5"/>
</svg>
