<?xml version="1.0" standalone="no"?>
<!DOCTYPE svg PUBLIC "-//W3C//DTD SVG 1.1//EN" "http://www.w3.org/Graphics/SVG/1.1/DTD/svg11.dtd">
<svg width="167mm" height="100mm" viewBox="-84 -131 167 100" xmlns="http://www.w3.org/2000/svg" version="1.1">
<title>OpenSCAD Model</title>
<path d="
M 78.4369,-85.5886 L 79.0451,-85.7447 L 79.6289,-85.9759 L 80.1791,-86.2784 L 80.6871,-86.6474 L 81.1448,-87.0773
 L 81.5451,-87.5611 L 81.8815,-88.0912 L 82.1489,-88.6594 L 82.3429,-89.2566 L 82.4606,-89.8733 L 82.5,-90.5
 L 82.5,-125.5 L 82.4606,-126.127 L 82.3429,-126.743 L 82.1489,-127.341 L 81.8815,-127.909 L 81.5451,-128.439
 L 81.1448,-128.923 L 80.6871,-129.353 L 80.1791,-129.722 L 79.6289,-130.024 L 79.0451,-130.255 L 78.4369,-130.411
 L 77.8139,-130.49 L -77.8139,-130.49 L -78.4369,-130.411 L -79.0451,-130.255 L -79.6289,-130.024 L -80.1791,-129.722
 L -80.6871,-129.353 L -81,-129.059 L -81,-130.115 L -84,-130.115 L -84,-85.8852 L -81,-85.8852
 L -81,-86.9413 L -80.6871,-86.6474 L -80.1791,-86.2784 L -79.6289,-85.9759 L -79.0451,-85.7447 L -78.4369,-85.5886
 L -77.8139,-85.5099 L 77.8139,-85.5099 z
M 78.4369,-31.5886 L 79.0451,-31.7447 L 79.6289,-31.9759 L 80.1791,-32.2784 L 80.6871,-32.6474 L 81.1448,-33.0773
 L 81.5451,-33.5611 L 81.8815,-34.0912 L 82.1489,-34.6594 L 82.3429,-35.2566 L 82.4606,-35.8733 L 82.5,-36.5
 L 82.5,-71.5 L 82.4606,-72.1267 L 82.3429,-72.7434 L 82.1489,-73.3406 L 81.8815,-73.9088 L 81.5451,-74.4389
 L 81.1448,-74.9227 L 80.6871,-75.3526 L 80.1791,-75.7216 L 79.6289,-76.0241 L 79.0451,-76.2553 L 78.4369,-76.4114
 L 77.8139,-76.4901 L -77.8139,-76.4901 L -78.4369,-76.4114 L -79.0451,-76.2553 L -79.6289,-76.0241 L -80.1791,-75.7216
 L -80.6871,-75.3526 L -81.1448,-74.9227 L -81.5451,-74.4389 L -81.8815,-73.9088 L -82.1489,-73.3406 L -82.3429,-72.7434
 L -82.4,-72.4442 L -84,-72.4442 L -84,-35.5558 L -82.4,-35.5558 L -82.3429,-35.2566 L -82.1489,-34.6594
 L -81.8815,-34.0912 L -81.5451,-33.5611 L -81.1448,-33.0773 L -80.6871,-32.6474 L -80.1791,-32.2784 L -79.6289,-31.9759
 L -79.0451,-31.7447 L -78.4369,-31.5886 L -77.8139,-31.5099 L 77.8139,-31.5099 z
M 74.887,-67.2036 L 74.6627,-67.2319 L 74.4438,-67.2881 L 74.2336,-67.3713 L 74.0355,-67.4802 L 73.8526,-67.6131
 L 73.6879,-67.7678 L 73.5438,-67.942 L 73.4226,-68.1328 L 73.3264,-68.3374 L 73.2565,-68.5524 L 73.2142,-68.7744
 L 73.2,-69 L 73.2142,-69.2256 L 73.2565,-69.4476 L 73.3264,-69.6626 L 73.4226,-69.8671 L 73.5438,-70.058
 L 73.6879,-70.2322 L 73.8526,-70.3869 L 74.0355,-70.5198 L 74.2336,-70.6287 L 74.4438,-70.7119 L 74.6627,-70.7681
 L 74.887,-70.7964 L 75.113,-70.7964 L 75.3373,-70.7681 L 75.5562,-70.7119 L 75.7664,-70.6287 L 75.9645,-70.5198
 L 76.1474,-70.3869 L 76.3121,-70.2322 L 76.4562,-70.058 L 76.5773,-69.8671 L 76.6736,-69.6626 L 76.7434,-69.4476
 L 76.7858,-69.2256 L 76.8,-69 L 76.7858,-68.7744 L 76.7434,-68.5524 L 76.6736,-68.3374 L 76.5773,-68.1328
 L 76.4562,-67.942 L 76.3121,-67.7678 L 76.1474,-67.6131 L 75.9645,-67.4802 L 75.7664,-67.3713 L 75.5562,-67.2881
 L 75.3373,-67.2319 L 75.113,-67.2036 z
M -75.113,-67.2036 L -75.3373,-67.2319 L -75.5562,-67.2881 L -75.7664,-67.3713 L -75.9645,-67.4802 L -76.1474,-67.6131
 L -76.3121,-67.7678 L -76.4562,-67.942 L -76.5773,-68.1328 L -76.6736,-68.3374 L -76.7434,-68.5524 L -76.7858,-68.7744
 L -76.8,-69 L -76.7858,-69.2256 L -76.7434,-69.4476 L -76.6736,-69.6626 L -76.5773,-69.8671 L -76.4562,-70.058
 L -76.3121,-70.2322 L -76.1474,-70.3869 L -75.9645,-70.5198 L -75.7664,-70.6287 L -75.5562,-70.7119 L -75.3373,-70.7681
 L -75.113,-70.7964 L -74.887,-70.7964 L -74.6627,-70.7681 L -74.4438,-70.7119 L -74.2336,-70.6287 L -74.0355,-70.5198
 L -73.8526,-70.3869 L -73.6879,-70.2322 L -73.5438,-70.058 L -73.4226,-69.8671 L -73.3264,-69.6626 L -73.2565,-69.4476
 L -73.2142,-69.2256 L -73.2,-69 L -73.2142,-68.7744 L -73.2565,-68.5524 L -73.3264,-68.3374 L -73.4226,-68.1328
 L -73.5438,-67.942 L -73.6879,-67.7678 L -73.8526,-67.6131 L -74.0355,-67.4802 L -74.2336,-67.3713 L -74.4438,-67.2881
 L -74.6627,-67.2319 L -74.887,-67.2036 z
M -75.113,-37.2036 L -75.3373,-37.2319 L -75.5562,-37.2881 L -75.7664,-37.3713 L -75.9645,-37.4802 L -76.1474,-37.6131
 L -76.3121,-37.7678 L -76.4562,-37.942 L -76.5773,-38.1329 L -76.6736,-38.3374 L -76.7434,-38.5524 L -76.7858,-38.7744
 L -76.8,-39 L -76.7858,-39.2256 L -76.7434,-39.4476 L -76.6736,-39.6626 L -76.5773,-39.8672 L -76.4562,-40.058
 L -76.3121,-40.2322 L -76.1474,-40.3869 L -75.9645,-40.5198 L -75.7664,-40.6287 L -75.5562,-40.7119 L -75.3373,-40.7681
 L -75.113,-40.7964 L -74.887,-40.7964 L -74.6627,-40.7681 L -74.4438,-40.7119 L -74.2336,-40.6287 L -74.0355,-40.5198
 L -73.8526,-40.3869 L -73.6879,-40.2322 L -73.5438,-40.058 L -73.4226,-39.8672 L -73.3264,-39.6626 L -73.2565,-39.4476
 L -73.2142,-39.2256 L -73.2,-39 L -73.2142,-38.7744 L -73.2565,-38.5524 L -73.3264,-38.3374 L -73.4226,-38.1329
 L -73.5438,-37.942 L -73.6879,-37.7678 L -73.8526,-37.6131 L -74.0355,-37.4802 L -74.2336,-37.3713 L -74.4438,-37.2881
 L -74.6627,-37.2319 L -74.887,-37.2036 z
M 74.887,-37.2036 L 74.6627,-37.2319 L 74.4438,-37.2881 L 74.2336,-37.3713 L 74.0355,-37.4802 L 73.8526,-37.6131
 L 73.6879,-37.7678 L 73.5438,-37.942 L 73.4226,-38.1329 L 73.3264,-38.3374 L 73.2565,-38.5524 L 73.2142,-38.7744
 L 73.2,-39 L 73.2142,-39.2256 L 73.2565,-39.4476 L 73.3264,-39.6626 L 73.4226,-39.8672 L 73.5438,-40.058
 L 73.6879,-40.2322 L 73.8526,-40.3869 L 74.0355,-40.5198 L 74.2336,-40.6287 L 74.4438,-40.7119 L 74.6627,-40.7681
 L 74.887,-40.7964 L 75.113,-40.7964 L 75.3373,-40.7681 L 75.5562,-40.7119 L 75.7664,-40.6287 L 75.9645,-40.5198
 L 76.1474,-40.3869 L 76.3121,-40.2322 L 76.4562,-40.058 L 76.5773,-39.8672 L 76.6736,-39.6626 L 76.7434,-39.4476
 L 76.7858,-39.2256 L 76.8,-39 L 76.7858,-38.7744 L 76.7434,-38.5524 L 76.6736,-38.3374 L 76.5773,-38.1329
 L 76.4562,-37.942 L 76.3121,-37.7678 L 76.1474,-37.6131 L 75.9645,-37.4802 L 75.7664,-37.3713 L 75.5562,-37.2881
 L 75.3373,-37.2319 L 75.113,-37.2036 z
" stroke="black" fill="lightgray" stroke-width="0.5"/>
</svg>
