  0
SECTION
  2
BLOCKS
  0
ENDSEC
  0
SECTION
  2
ENTITIES
  0
LINE
  8
0
 10
18.4369
 20
439.589
 11
19.0451
 21
439.745
  0
LINE
  8
0
 10
19.0451
 20
439.745
 11
19.6289
 21
439.976
  0
LINE
  8
0
 10
19.6289
 20
439.976
 11
20.1791
 21
440.278
  0
LINE
  8
0
 10
20.1791
 20
440.278
 11
20.6871
 21
440.647
  0
LINE
  8
0
 10
20.6871
 20
440.647
 11
21.1448
 21
441.077
  0
LINE
  8
0
 10
21.1448
 20
441.077
 11
21.5451
 21
441.561
  0
LINE
  8
0
 10
21.5451
 20
441.561
 11
21.8815
 21
442.091
  0
LINE
  8
0
 10
21.8815
 20
442.091
 11
22.1489
 21
442.659
  0
LINE
  8
0
 10
22.1489
 20
442.659
 11
22.3429
 21
443.257
  0
LINE
  8
0
 10
22.3429
 20
443.257
 11
22.4606
 21
443.873
  0
LINE
  8
0
 10
22.4606
 20
443.873
 11
22.5
 21
444.5
  0
LINE
  8
0
 10
22.5
 20
444.5
 11
22.5
 21
599.5
  0
LINE
  8
0
 10
22.5
 20
599.5
 11
22.4606
 21
600.127
  0
LINE
  8
0
 10
22.4606
 20
600.127
 11
22.3429
 21
600.743
  0
LINE
  8
0
 10
22.3429
 20
600.743
 11
22.1489
 21
601.341
  0
LINE
  8
0
 10
22.1489
 20
601.341
 11
21.8815
 21
601.909
  0
LINE
  8
0
 10
21.8815
 20
601.909
 11
21.5451
 21
602.439
  0
LINE
  8
0
 10
21.5451
 20
602.439
 11
21.1448
 21
602.923
  0
LINE
  8
0
 10
21.1448
 20
602.923
 11
20.6871
 21
603.353
  0
LINE
  8
0
 10
20.6871
 20
603.353
 11
20.1791
 21
603.722
  0
LINE
  8
0
 10
20.1791
 20
603.722
 11
19.6289
 21
604.024
  0
LINE
  8
0
 10
19.6289
 20
604.024
 11
19.0451
 21
604.255
  0
LINE
  8
0
 10
19.0451
 20
604.255
 11
18.4369
 21
604.411
  0
LINE
  8
0
 10
18.4369
 20
604.411
 11
17.8139
 21
604.49
  0
LINE
  8
0
 10
17.8139
 20
604.49
 11
-17.8139
 21
604.49
  0
LINE
  8
0
 10
-17.8139
 20
604.49
 11
-18.4369
 21
604.411
  0
LINE
  8
0
 10
-18.4369
 20
604.411
 11
-19.0451
 21
604.255
  0
LINE
  8
0
 10
-19.0451
 20
604.255
 11
-19.6289
 21
604.024
  0
LINE
  8
0
 10
-19.6289
 20
604.024
 11
-20.1791
 21
603.722
  0
LINE
  8
0
 10
-20.1791
 20
603.722
 11
-20.6871
 21
603.353
  0
LINE
  8
0
 10
-20.6871
 20
603.353
 11
-21.1448
 21
602.923
  0
LINE
  8
0
 10
-21.1448
 20
602.923
 11
-21.5451
 21
602.439
  0
LINE
  8
0
 10
-21.5451
 20
602.439
 11
-21.8815
 21
601.909
  0
LINE
  8
0
 10
-21.8815
 20
601.909
 11
-22.1489
 21
601.341
  0
LINE
  8
0
 10
-22.1489
 20
601.341
 11
-22.3429
 21
600.743
  0
LINE
  8
0
 10
-22.3429
 20
600.743
 11
-22.4606
 21
600.127
  0
LINE
  8
0
 10
-22.4606
 20
600.127
 11
-22.5
 21
599.5
  0
LINE
  8
0
 10
-22.5
 20
599.5
 11
-22.5
 21
444.5
  0
LINE
  8
0
 10
-22.5
 20
444.5
 11
-22.4606
 21
443.873
  0
LINE
  8
0
 10
-22.4606
 20
443.873
 11
-22.3429
 21
443.257
  0
LINE
  8
0
 10
-22.3429
 20
443.257
 11
-22.1489
 21
442.659
  0
LINE
  8
0
 10
-22.1489
 20
442.659
 11
-21.8815
 21
442.091
  0
LINE
  8
0
 10
-21.8815
 20
442.091
 11
-21.5451
 21
441.561
  0
LINE
  8
0
 10
-21.5451
 20
441.561
 11
-21.1448
 21
441.077
  0
LINE
  8
0
 10
-21.1448
 20
441.077
 11
-20.6871
 21
440.647
  0
LINE
  8
0
 10
-20.6871
 20
440.647
 11
-20.1791
 21
440.278
  0
LINE
  8
0
 10
-20.1791
 20
440.278
 11
-19.6289
 21
439.976
  0
LINE
  8
0
 10
-19.6289
 20
439.976
 11
-19.0451
 21
439.745
  0
LINE
  8
0
 10
-19.0451
 20
439.745
 11
-18.4369
 21
439.589
  0
LINE
  8
0
 10
-18.4369
 20
439.589
 11
-17.8139
 21
439.51
  0
LINE
  8
0
 10
-17.8139
 20
439.51
 11
17.8139
 21
439.51
  0
LINE
  8
0
 10
17.8139
 20
439.51
 11
18.4369
 21
439.589
  0
LINE
  8
0
 10
-17.1954
 20
441.893
 11
-17.5833
 21
441.942
  0
LINE
  8
0
 10
-17.5833
 20
441.942
 11
-17.9619
 21
442.039
  0
LINE
  8
0
 10
-17.9619
 20
442.039
 11
-18.3254
 21
442.183
  0
LINE
  8
0
 10
-18.3254
 20
442.183
 11
-18.668
 21
442.372
  0
LINE
  8
0
 10
-18.668
 20
442.372
 11
-18.9842
 21
442.601
  0
LINE
  8
0
 10
-18.9842
 20
442.601
 11
-19.2692
 21
442.869
  0
LINE
  8
0
 10
-19.2692
 20
442.869
 11
-19.5184
 21
443.17
  0
LINE
  8
0
 10
-19.5184
 20
443.17
 11
-19.7279
 21
443.5
  0
LINE
  8
0
 10
-19.7279
 20
443.5
 11
-19.8943
 21
443.854
  0
LINE
  8
0
 10
-19.8943
 20
443.854
 11
-20.0151
 21
444.226
  0
LINE
  8
0
 10
-20.0151
 20
444.226
 11
-20.0884
 21
444.61
  0
LINE
  8
0
 10
-20.0884
 20
444.61
 11
-20.1129
 21
445
  0
LINE
  8
0
 10
-20.1129
 20
445
 11
-20.1129
 21
599
  0
LINE
  8
0
 10
-20.1129
 20
599
 11
-20.0884
 21
599.39
  0
LINE
  8
0
 10
-20.0884
 20
599.39
 11
-20.0151
 21
599.774
  0
LINE
  8
0
 10
-20.0151
 20
599.774
 11
-19.8943
 21
600.146
  0
LINE
  8
0
 10
-19.8943
 20
600.146
 11
-19.7279
 21
600.5
  0
LINE
  8
0
 10
-19.7279
 20
600.5
 11
-19.5184
 21
600.83
  0
LINE
  8
0
 10
-19.5184
 20
600.83
 11
-19.2692
 21
601.131
  0
LINE
  8
0
 10
-19.2692
 20
601.131
 11
-18.9842
 21
601.399
  0
LINE
  8
0
 10
-18.9842
 20
601.399
 11
-18.668
 21
601.628
  0
LINE
  8
0
 10
-18.668
 20
601.628
 11
-18.3254
 21
601.817
  0
LINE
  8
0
 10
-18.3254
 20
601.817
 11
-17.9619
 21
601.961
  0
LINE
  8
0
 10
-17.9619
 20
601.961
 11
-17.5833
 21
602.058
  0
LINE
  8
0
 10
-17.5833
 20
602.058
 11
-17.1954
 21
602.107
  0
LINE
  8
0
 10
-17.1954
 20
602.107
 11
17.1954
 21
602.107
  0
LINE
  8
0
 10
17.1954
 20
602.107
 11
17.5833
 21
602.058
  0
LINE
  8
0
 10
17.5833
 20
602.058
 11
17.9619
 21
601.961
  0
LINE
  8
0
 10
17.9619
 20
601.961
 11
18.3254
 21
601.817
  0
LINE
  8
0
 10
18.3254
 20
601.817
 11
18.668
 21
601.628
  0
LINE
  8
0
 10
18.668
 20
601.628
 11
18.9842
 21
601.399
  0
LINE
  8
0
 10
18.9842
 20
601.399
 11
19.2692
 21
601.131
  0
LINE
  8
0
 10
19.2692
 20
601.131
 11
19.5184
 21
600.83
  0
LINE
  8
0
 10
19.5184
 20
600.83
 11
19.7279
 21
600.5
  0
LINE
  8
0
 10
19.7279
 20
600.5
 11
19.8943
 21
600.146
  0
LINE
  8
0
 10
19.8943
 20
600.146
 11
20.0151
 21
599.774
  0
LINE
  8
0
 10
20.0151
 20
599.774
 11
20.0884
 21
599.39
  0
LINE
  8
0
 10
20.0884
 20
599.39
 11
20.1129
 21
599
  0
LINE
  8
0
 10
20.1129
 20
599
 11
20.1129
 21
445
  0
LINE
  8
0
 10
20.1129
 20
445
 11
20.0884
 21
444.61
  0
LINE
  8
0
 10
20.0884
 20
444.61
 11
20.0151
 21
444.226
  0
LINE
  8
0
 10
20.0151
 20
444.226
 11
19.8943
 21
443.854
  0
LINE
  8
0
 10
19.8943
 20
443.854
 11
19.7279
 21
443.5
  0
LINE
  8
0
 10
19.7279
 20
443.5
 11
19.5184
 21
443.17
  0
LINE
  8
0
 10
19.5184
 20
443.17
 11
19.2692
 21
442.869
  0
LINE
  8
0
 10
19.2692
 20
442.869
 11
18.9842
 21
442.601
  0
LINE
  8
0
 10
18.9842
 20
442.601
 11
18.668
 21
442.372
  0
LINE
  8
0
 10
18.668
 20
442.372
 11
18.3254
 21
442.183
  0
LINE
  8
0
 10
18.3254
 20
442.183
 11
17.9619
 21
442.039
  0
LINE
  8
0
 10
17.9619
 20
442.039
 11
17.5833
 21
441.942
  0
LINE
  8
0
 10
17.5833
 20
441.942
 11
17.1954
 21
441.893
  0
LINE
  8
0
 10
17.1954
 20
441.893
 11
-17.1954
 21
441.893
  0
LINE
  8
0
 10
18.4369
 20
265.589
 11
19.0451
 21
265.745
  0
LINE
  8
0
 10
19.0451
 20
265.745
 11
19.6289
 21
265.976
  0
LINE
  8
0
 10
19.6289
 20
265.976
 11
20.1791
 21
266.278
  0
LINE
  8
0
 10
20.1791
 20
266.278
 11
20.6871
 21
266.647
  0
LINE
  8
0
 10
20.6871
 20
266.647
 11
21.1448
 21
267.077
  0
LINE
  8
0
 10
21.1448
 20
267.077
 11
21.5451
 21
267.561
  0
LINE
  8
0
 10
21.5451
 20
267.561
 11
21.8815
 21
268.091
  0
LINE
  8
0
 10
21.8815
 20
268.091
 11
22.1489
 21
268.659
  0
LINE
  8
0
 10
22.1489
 20
268.659
 11
22.3429
 21
269.257
  0
LINE
  8
0
 10
22.3429
 20
269.257
 11
22.4606
 21
269.873
  0
LINE
  8
0
 10
22.4606
 20
269.873
 11
22.5
 21
270.5
  0
LINE
  8
0
 10
22.5
 20
270.5
 11
22.5
 21
425.5
  0
LINE
  8
0
 10
22.5
 20
425.5
 11
22.4606
 21
426.127
  0
LINE
  8
0
 10
22.4606
 20
426.127
 11
22.3429
 21
426.743
  0
LINE
  8
0
 10
22.3429
 20
426.743
 11
22.1489
 21
427.341
  0
LINE
  8
0
 10
22.1489
 20
427.341
 11
21.8815
 21
427.909
  0
LINE
  8
0
 10
21.8815
 20
427.909
 11
21.5451
 21
428.439
  0
LINE
  8
0
 10
21.5451
 20
428.439
 11
21.1448
 21
428.923
  0
LINE
  8
0
 10
21.1448
 20
428.923
 11
20.6871
 21
429.353
  0
LINE
  8
0
 10
20.6871
 20
429.353
 11
20.1791
 21
429.722
  0
LINE
  8
0
 10
20.1791
 20
429.722
 11
19.6289
 21
430.024
  0
LINE
  8
0
 10
19.6289
 20
430.024
 11
19.0451
 21
430.255
  0
LINE
  8
0
 10
19.0451
 20
430.255
 11
18.4369
 21
430.411
  0
LINE
  8
0
 10
18.4369
 20
430.411
 11
17.8139
 21
430.49
  0
LINE
  8
0
 10
17.8139
 20
430.49
 11
-17.8139
 21
430.49
  0
LINE
  8
0
 10
-17.8139
 20
430.49
 11
-18.4369
 21
430.411
  0
LINE
  8
0
 10
-18.4369
 20
430.411
 11
-19.0451
 21
430.255
  0
LINE
  8
0
 10
-19.0451
 20
430.255
 11
-19.6289
 21
430.024
  0
LINE
  8
0
 10
-19.6289
 20
430.024
 11
-20.1791
 21
429.722
  0
LINE
  8
0
 10
-20.1791
 20
429.722
 11
-20.6871
 21
429.353
  0
LINE
  8
0
 10
-20.6871
 20
429.353
 11
-21.1448
 21
428.923
  0
LINE
  8
0
 10
-21.1448
 20
428.923
 11
-21.5451
 21
428.439
  0
LINE
  8
0
 10
-21.5451
 20
428.439
 11
-21.8815
 21
427.909
  0
LINE
  8
0
 10
-21.8815
 20
427.909
 11
-22.1489
 21
427.341
  0
LINE
  8
0
 10
-22.1489
 20
427.341
 11
-22.3429
 21
426.743
  0
LINE
  8
0
 10
-22.3429
 20
426.743
 11
-22.4606
 21
426.127
  0
LINE
  8
0
 10
-22.4606
 20
426.127
 11
-22.5
 21
425.5
  0
LINE
  8
0
 10
-22.5
 20
425.5
 11
-22.5
 21
270.5
  0
LINE
  8
0
 10
-22.5
 20
270.5
 11
-22.4606
 21
269.873
  0
LINE
  8
0
 10
-22.4606
 20
269.873
 11
-22.3429
 21
269.257
  0
LINE
  8
0
 10
-22.3429
 20
269.257
 11
-22.1489
 21
268.659
  0
LINE
  8
0
 10
-22.1489
 20
268.659
 11
-21.8815
 21
268.091
  0
LINE
  8
0
 10
-21.8815
 20
268.091
 11
-21.5451
 21
267.561
  0
LINE
  8
0
 10
-21.5451
 20
267.561
 11
-21.1448
 21
267.077
  0
LINE
  8
0
 10
-21.1448
 20
267.077
 11
-20.6871
 21
266.647
  0
LINE
  8
0
 10
-20.6871
 20
266.647
 11
-20.1791
 21
266.278
  0
LINE
  8
0
 10
-20.1791
 20
266.278
 11
-19.6289
 21
265.976
  0
LINE
  8
0
 10
-19.6289
 20
265.976
 11
-19.0451
 21
265.745
  0
LINE
  8
0
 10
-19.0451
 20
265.745
 11
-18.4369
 21
265.589
  0
LINE
  8
0
 10
-18.4369
 20
265.589
 11
-17.8139
 21
265.51
  0
LINE
  8
0
 10
-17.8139
 20
265.51
 11
17.8139
 21
265.51
  0
LINE
  8
0
 10
17.8139
 20
265.51
 11
18.4369
 21
265.589
  0
LINE
  8
0
 10
14.8659
 20
420.869
 11
14.5999
 21
420.903
  0
LINE
  8
0
 10
14.5999
 20
420.903
 11
14.3401
 21
420.969
  0
LINE
  8
0
 10
14.3401
 20
420.969
 11
14.0908
 21
421.068
  0
LINE
  8
0
 10
14.0908
 20
421.068
 11
13.8559
 21
421.197
  0
LINE
  8
0
 10
13.8559
 20
421.197
 11
13.6389
 21
421.355
  0
LINE
  8
0
 10
13.6389
 20
421.355
 11
13.4434
 21
421.538
  0
LINE
  8
0
 10
13.4434
 20
421.538
 11
13.2725
 21
421.745
  0
LINE
  8
0
 10
13.2725
 20
421.745
 11
13.1288
 21
421.971
  0
LINE
  8
0
 10
13.1288
 20
421.971
 11
13.0146
 21
422.214
  0
LINE
  8
0
 10
13.0146
 20
422.214
 11
12.9318
 21
422.469
  0
LINE
  8
0
 10
12.9318
 20
422.469
 11
12.8815
 21
422.732
  0
LINE
  8
0
 10
12.8815
 20
422.732
 11
12.8647
 21
423
  0
LINE
  8
0
 10
12.8647
 20
423
 11
12.8815
 21
423.268
  0
LINE
  8
0
 10
12.8815
 20
423.268
 11
12.9318
 21
423.531
  0
LINE
  8
0
 10
12.9318
 20
423.531
 11
13.0146
 21
423.786
  0
LINE
  8
0
 10
13.0146
 20
423.786
 11
13.1288
 21
424.029
  0
LINE
  8
0
 10
13.1288
 20
424.029
 11
13.2725
 21
424.255
  0
LINE
  8
0
 10
13.2725
 20
424.255
 11
13.4434
 21
424.462
  0
LINE
  8
0
 10
13.4434
 20
424.462
 11
13.6389
 21
424.645
  0
LINE
  8
0
 10
13.6389
 20
424.645
 11
13.8559
 21
424.803
  0
LINE
  8
0
 10
13.8559
 20
424.803
 11
14.0908
 21
424.932
  0
LINE
  8
0
 10
14.0908
 20
424.932
 11
14.3401
 21
425.031
  0
LINE
  8
0
 10
14.3401
 20
425.031
 11
14.5999
 21
425.097
  0
LINE
  8
0
 10
14.5999
 20
425.097
 11
14.8659
 21
425.131
  0
LINE
  8
0
 10
14.8659
 20
425.131
 11
15.1341
 21
425.131
  0
LINE
  8
0
 10
15.1341
 20
425.131
 11
15.4001
 21
425.097
  0
LINE
  8
0
 10
15.4001
 20
425.097
 11
15.6598
 21
425.031
  0
LINE
  8
0
 10
15.6598
 20
425.031
 11
15.9091
 21
424.932
  0
LINE
  8
0
 10
15.9091
 20
424.932
 11
16.1441
 21
424.803
  0
LINE
  8
0
 10
16.1441
 20
424.803
 11
16.3611
 21
424.645
  0
LINE
  8
0
 10
16.3611
 20
424.645
 11
16.5565
 21
424.462
  0
LINE
  8
0
 10
16.5565
 20
424.462
 11
16.7275
 21
424.255
  0
LINE
  8
0
 10
16.7275
 20
424.255
 11
16.8712
 21
424.029
  0
LINE
  8
0
 10
16.8712
 20
424.029
 11
16.9853
 21
423.786
  0
LINE
  8
0
 10
16.9853
 20
423.786
 11
17.0682
 21
423.531
  0
LINE
  8
0
 10
17.0682
 20
423.531
 11
17.1185
 21
423.268
  0
LINE
  8
0
 10
17.1185
 20
423.268
 11
17.1353
 21
423
  0
LINE
  8
0
 10
17.1353
 20
423
 11
17.1185
 21
422.732
  0
LINE
  8
0
 10
17.1185
 20
422.732
 11
17.0682
 21
422.469
  0
LINE
  8
0
 10
17.0682
 20
422.469
 11
16.9853
 21
422.214
  0
LINE
  8
0
 10
16.9853
 20
422.214
 11
16.8712
 21
421.971
  0
LINE
  8
0
 10
16.8712
 20
421.971
 11
16.7275
 21
421.745
  0
LINE
  8
0
 10
16.7275
 20
421.745
 11
16.5565
 21
421.538
  0
LINE
  8
0
 10
16.5565
 20
421.538
 11
16.3611
 21
421.355
  0
LINE
  8
0
 10
16.3611
 20
421.355
 11
16.1441
 21
421.197
  0
LINE
  8
0
 10
16.1441
 20
421.197
 11
15.9091
 21
421.068
  0
LINE
  8
0
 10
15.9091
 20
421.068
 11
15.6598
 21
420.969
  0
LINE
  8
0
 10
15.6598
 20
420.969
 11
15.4001
 21
420.903
  0
LINE
  8
0
 10
15.4001
 20
420.903
 11
15.1341
 21
420.869
  0
LINE
  8
0
 10
15.1341
 20
420.869
 11
14.8659
 21
420.869
  0
LINE
  8
0
 10
-15.1341
 20
420.869
 11
-15.4001
 21
420.903
  0
LINE
  8
0
 10
-15.4001
 20
420.903
 11
-15.6598
 21
420.969
  0
LINE
  8
0
 10
-15.6598
 20
420.969
 11
-15.9091
 21
421.068
  0
LINE
  8
0
 10
-15.9091
 20
421.068
 11
-16.1441
 21
421.197
  0
LINE
  8
0
 10
-16.1441
 20
421.197
 11
-16.3611
 21
421.355
  0
LINE
  8
0
 10
-16.3611
 20
421.355
 11
-16.5565
 21
421.538
  0
LINE
  8
0
 10
-16.5565
 20
421.538
 11
-16.7275
 21
421.745
  0
LINE
  8
0
 10
-16.7275
 20
421.745
 11
-16.8712
 21
421.971
  0
LINE
  8
0
 10
-16.8712
 20
421.971
 11
-16.9853
 21
422.214
  0
LINE
  8
0
 10
-16.9853
 20
422.214
 11
-17.0682
 21
422.469
  0
LINE
  8
0
 10
-17.0682
 20
422.469
 11
-17.1185
 21
422.732
  0
LINE
  8
0
 10
-17.1185
 20
422.732
 11
-17.1353
 21
423
  0
LINE
  8
0
 10
-17.1353
 20
423
 11
-17.1185
 21
423.268
  0
LINE
  8
0
 10
-17.1185
 20
423.268
 11
-17.0682
 21
423.531
  0
LINE
  8
0
 10
-17.0682
 20
423.531
 11
-16.9853
 21
423.786
  0
LINE
  8
0
 10
-16.9853
 20
423.786
 11
-16.8712
 21
424.029
  0
LINE
  8
0
 10
-16.8712
 20
424.029
 11
-16.7275
 21
424.255
  0
LINE
  8
0
 10
-16.7275
 20
424.255
 11
-16.5565
 21
424.462
  0
LINE
  8
0
 10
-16.5565
 20
424.462
 11
-16.3611
 21
424.645
  0
LINE
  8
0
 10
-16.3611
 20
424.645
 11
-16.1441
 21
424.803
  0
LINE
  8
0
 10
-16.1441
 20
424.803
 11
-15.9091
 21
424.932
  0
LINE
  8
0
 10
-15.9091
 20
424.932
 11
-15.6598
 21
425.031
  0
LINE
  8
0
 10
-15.6598
 20
425.031
 11
-15.4001
 21
425.097
  0
LINE
  8
0
 10
-15.4001
 20
425.097
 11
-15.1341
 21
425.131
  0
LINE
  8
0
 10
-15.1341
 20
425.131
 11
-14.8659
 21
425.131
  0
LINE
  8
0
 10
-14.8659
 20
425.131
 11
-14.5999
 21
425.097
  0
LINE
  8
0
 10
-14.5999
 20
425.097
 11
-14.3401
 21
425.031
  0
LINE
  8
0
 10
-14.3401
 20
425.031
 11
-14.0908
 21
424.932
  0
LINE
  8
0
 10
-14.0908
 20
424.932
 11
-13.8559
 21
424.803
  0
LINE
  8
0
 10
-13.8559
 20
424.803
 11
-13.6389
 21
424.645
  0
LINE
  8
0
 10
-13.6389
 20
424.645
 11
-13.4434
 21
424.462
  0
LINE
  8
0
 10
-13.4434
 20
424.462
 11
-13.2725
 21
424.255
  0
LINE
  8
0
 10
-13.2725
 20
424.255
 11
-13.1288
 21
424.029
  0
LINE
  8
0
 10
-13.1288
 20
424.029
 11
-13.0146
 21
423.786
  0
LINE
  8
0
 10
-13.0146
 20
423.786
 11
-12.9318
 21
423.531
  0
LINE
  8
0
 10
-12.9318
 20
423.531
 11
-12.8815
 21
423.268
  0
LINE
  8
0
 10
-12.8815
 20
423.268
 11
-12.8647
 21
423
  0
LINE
  8
0
 10
-12.8647
 20
423
 11
-12.8815
 21
422.732
  0
LINE
  8
0
 10
-12.8815
 20
422.732
 11
-12.9318
 21
422.469
  0
LINE
  8
0
 10
-12.9318
 20
422.469
 11
-13.0146
 21
422.214
  0
LINE
  8
0
 10
-13.0146
 20
422.214
 11
-13.1288
 21
421.971
  0
LINE
  8
0
 10
-13.1288
 20
421.971
 11
-13.2725
 21
421.745
  0
LINE
  8
0
 10
-13.2725
 20
421.745
 11
-13.4434
 21
421.538
  0
LINE
  8
0
 10
-13.4434
 20
421.538
 11
-13.6389
 21
421.355
  0
LINE
  8
0
 10
-13.6389
 20
421.355
 11
-13.8559
 21
421.197
  0
LINE
  8
0
 10
-13.8559
 20
421.197
 11
-14.0908
 21
421.068
  0
LINE
  8
0
 10
-14.0908
 20
421.068
 11
-14.3401
 21
420.969
  0
LINE
  8
0
 10
-14.3401
 20
420.969
 11
-14.5999
 21
420.903
  0
LINE
  8
0
 10
-14.5999
 20
420.903
 11
-14.8659
 21
420.869
  0
LINE
  8
0
 10
-14.8659
 20
420.869
 11
-15.1341
 21
420.869
  0
LINE
  8
0
 10
14.8659
 20
270.869
 11
14.5999
 21
270.903
  0
LINE
  8
0
 10
14.5999
 20
270.903
 11
14.3401
 21
270.969
  0
LINE
  8
0
 10
14.3401
 20
270.969
 11
14.0908
 21
271.068
  0
LINE
  8
0
 10
14.0908
 20
271.068
 11
13.8559
 21
271.197
  0
LINE
  8
0
 10
13.8559
 20
271.197
 11
13.6389
 21
271.355
  0
LINE
  8
0
 10
13.6389
 20
271.355
 11
13.4434
 21
271.538
  0
LINE
  8
0
 10
13.4434
 20
271.538
 11
13.2725
 21
271.745
  0
LINE
  8
0
 10
13.2725
 20
271.745
 11
13.1288
 21
271.971
  0
LINE
  8
0
 10
13.1288
 20
271.971
 11
13.0146
 21
272.214
  0
LINE
  8
0
 10
13.0146
 20
272.214
 11
12.9318
 21
272.469
  0
LINE
  8
0
 10
12.9318
 20
272.469
 11
12.8815
 21
272.732
  0
LINE
  8
0
 10
12.8815
 20
272.732
 11
12.8647
 21
273
  0
LINE
  8
0
 10
12.8647
 20
273
 11
12.8815
 21
273.268
  0
LINE
  8
0
 10
12.8815
 20
273.268
 11
12.9318
 21
273.531
  0
LINE
  8
0
 10
12.9318
 20
273.531
 11
13.0146
 21
273.786
  0
LINE
  8
0
 10
13.0146
 20
273.786
 11
13.1288
 21
274.029
  0
LINE
  8
0
 10
13.1288
 20
274.029
 11
13.2725
 21
274.255
  0
LINE
  8
0
 10
13.2725
 20
274.255
 11
13.4434
 21
274.462
  0
LINE
  8
0
 10
13.4434
 20
274.462
 11
13.6389
 21
274.645
  0
LINE
  8
0
 10
13.6389
 20
274.645
 11
13.8559
 21
274.803
  0
LINE
  8
0
 10
13.8559
 20
274.803
 11
14.0908
 21
274.932
  0
LINE
  8
0
 10
14.0908
 20
274.932
 11
14.3401
 21
275.031
  0
LINE
  8
0
 10
14.3401
 20
275.031
 11
14.5999
 21
275.097
  0
LINE
  8
0
 10
14.5999
 20
275.097
 11
14.8659
 21
275.131
  0
LINE
  8
0
 10
14.8659
 20
275.131
 11
15.1341
 21
275.131
  0
LINE
  8
0
 10
15.1341
 20
275.131
 11
15.4001
 21
275.097
  0
LINE
  8
0
 10
15.4001
 20
275.097
 11
15.6598
 21
275.031
  0
LINE
  8
0
 10
15.6598
 20
275.031
 11
15.9091
 21
274.932
  0
LINE
  8
0
 10
15.9091
 20
274.932
 11
16.1441
 21
274.803
  0
LINE
  8
0
 10
16.1441
 20
274.803
 11
16.3611
 21
274.645
  0
LINE
  8
0
 10
16.3611
 20
274.645
 11
16.5565
 21
274.462
  0
LINE
  8
0
 10
16.5565
 20
274.462
 11
16.7275
 21
274.255
  0
LINE
  8
0
 10
16.7275
 20
274.255
 11
16.8712
 21
274.029
  0
LINE
  8
0
 10
16.8712
 20
274.029
 11
16.9853
 21
273.786
  0
LINE
  8
0
 10
16.9853
 20
273.786
 11
17.0682
 21
273.531
  0
LINE
  8
0
 10
17.0682
 20
273.531
 11
17.1185
 21
273.268
  0
LINE
  8
0
 10
17.1185
 20
273.268
 11
17.1353
 21
273
  0
LINE
  8
0
 10
17.1353
 20
273
 11
17.1185
 21
272.732
  0
LINE
  8
0
 10
17.1185
 20
272.732
 11
17.0682
 21
272.469
  0
LINE
  8
0
 10
17.0682
 20
272.469
 11
16.9853
 21
272.214
  0
LINE
  8
0
 10
16.9853
 20
272.214
 11
16.8712
 21
271.971
  0
LINE
  8
0
 10
16.8712
 20
271.971
 11
16.7275
 21
271.745
  0
LINE
  8
0
 10
16.7275
 20
271.745
 11
16.5565
 21
271.538
  0
LINE
  8
0
 10
16.5565
 20
271.538
 11
16.3611
 21
271.355
  0
LINE
  8
0
 10
16.3611
 20
271.355
 11
16.1441
 21
271.197
  0
LINE
  8
0
 10
16.1441
 20
271.197
 11
15.9091
 21
271.068
  0
LINE
  8
0
 10
15.9091
 20
271.068
 11
15.6598
 21
270.969
  0
LINE
  8
0
 10
15.6598
 20
270.969
 11
15.4001
 21
270.903
  0
LINE
  8
0
 10
15.4001
 20
270.903
 11
15.1341
 21
270.869
  0
LINE
  8
0
 10
15.1341
 20
270.869
 11
14.8659
 21
270.869
  0
LINE
  8
0
 10
-15.1341
 20
270.869
 11
-15.4001
 21
270.903
  0
LINE
  8
0
 10
-15.4001
 20
270.903
 11
-15.6598
 21
270.969
  0
LINE
  8
0
 10
-15.6598
 20
270.969
 11
-15.9091
 21
271.068
  0
LINE
  8
0
 10
-15.9091
 20
271.068
 11
-16.1441
 21
271.197
  0
LINE
  8
0
 10
-16.1441
 20
271.197
 11
-16.3611
 21
271.355
  0
LINE
  8
0
 10
-16.3611
 20
271.355
 11
-16.5565
 21
271.538
  0
LINE
  8
0
 10
-16.5565
 20
271.538
 11
-16.7275
 21
271.745
  0
LINE
  8
0
 10
-16.7275
 20
271.745
 11
-16.8712
 21
271.971
  0
LINE
  8
0
 10
-16.8712
 20
271.971
 11
-16.9853
 21
272.214
  0
LINE
  8
0
 10
-16.9853
 20
272.214
 11
-17.0682
 21
272.469
  0
LINE
  8
0
 10
-17.0682
 20
272.469
 11
-17.1185
 21
272.732
  0
LINE
  8
0
 10
-17.1185
 20
272.732
 11
-17.1353
 21
273
  0
LINE
  8
0
 10
-17.1353
 20
273
 11
-17.1185
 21
273.268
  0
LINE
  8
0
 10
-17.1185
 20
273.268
 11
-17.0682
 21
273.531
  0
LINE
  8
0
 10
-17.0682
 20
273.531
 11
-16.9853
 21
273.786
  0
LINE
  8
0
 10
-16.9853
 20
273.786
 11
-16.8712
 21
274.029
  0
LINE
  8
0
 10
-16.8712
 20
274.029
 11
-16.7275
 21
274.255
  0
LINE
  8
0
 10
-16.7275
 20
274.255
 11
-16.5565
 21
274.462
  0
LINE
  8
0
 10
-16.5565
 20
274.462
 11
-16.3611
 21
274.645
  0
LINE
  8
0
 10
-16.3611
 20
274.645
 11
-16.1441
 21
274.803
  0
LINE
  8
0
 10
-16.1441
 20
274.803
 11
-15.9091
 21
274.932
  0
LINE
  8
0
 10
-15.9091
 20
274.932
 11
-15.6598
 21
275.031
  0
LINE
  8
0
 10
-15.6598
 20
275.031
 11
-15.4001
 21
275.097
  0
LINE
  8
0
 10
-15.4001
 20
275.097
 11
-15.1341
 21
275.131
  0
LINE
  8
0
 10
-15.1341
 20
275.131
 11
-14.8659
 21
275.131
  0
LINE
  8
0
 10
-14.8659
 20
275.131
 11
-14.5999
 21
275.097
  0
LINE
  8
0
 10
-14.5999
 20
275.097
 11
-14.3401
 21
275.031
  0
LINE
  8
0
 10
-14.3401
 20
275.031
 11
-14.0908
 21
274.932
  0
LINE
  8
0
 10
-14.0908
 20
274.932
 11
-13.8559
 21
274.803
  0
LINE
  8
0
 10
-13.8559
 20
274.803
 11
-13.6389
 21
274.645
  0
LINE
  8
0
 10
-13.6389
 20
274.645
 11
-13.4434
 21
274.462
  0
LINE
  8
0
 10
-13.4434
 20
274.462
 11
-13.2725
 21
274.255
  0
LINE
  8
0
 10
-13.2725
 20
274.255
 11
-13.1288
 21
274.029
  0
LINE
  8
0
 10
-13.1288
 20
274.029
 11
-13.0146
 21
273.786
  0
LINE
  8
0
 10
-13.0146
 20
273.786
 11
-12.9318
 21
273.531
  0
LINE
  8
0
 10
-12.9318
 20
273.531
 11
-12.8815
 21
273.268
  0
LINE
  8
0
 10
-12.8815
 20
273.268
 11
-12.8647
 21
273
  0
LINE
  8
0
 10
-12.8647
 20
273
 11
-12.8815
 21
272.732
  0
LINE
  8
0
 10
-12.8815
 20
272.732
 11
-12.9318
 21
272.469
  0
LINE
  8
0
 10
-12.9318
 20
272.469
 11
-13.0146
 21
272.214
  0
LINE
  8
0
 10
-13.0146
 20
272.214
 11
-13.1288
 21
271.971
  0
LINE
  8
0
 10
-13.1288
 20
271.971
 11
-13.2725
 21
271.745
  0
LINE
  8
0
 10
-13.2725
 20
271.745
 11
-13.4434
 21
271.538
  0
LINE
  8
0
 10
-13.4434
 20
271.538
 11
-13.6389
 21
271.355
  0
LINE
  8
0
 10
-13.6389
 20
271.355
 11
-13.8559
 21
271.197
  0
LINE
  8
0
 10
-13.8559
 20
271.197
 11
-14.0908
 21
271.068
  0
LINE
  8
0
 10
-14.0908
 20
271.068
 11
-14.3401
 21
270.969
  0
LINE
  8
0
 10
-14.3401
 20
270.969
 11
-14.5999
 21
270.903
  0
LINE
  8
0
 10
-14.5999
 20
270.903
 11
-14.8659
 21
270.869
  0
LINE
  8
0
 10
-14.8659
 20
270.869
 11
-15.1341
 21
270.869
  0
ENDSEC
  0
SECTION
  2
OBJECTS
  0
DICTIONARY
  0
ENDSEC
  0
EOF
