<?xml version="1.0" standalone="no"?>
<!DOCTYPE svg PUBLIC "-//W3C//DTD SVG 1.1//EN" "http://www.w3.org/Graphics/SVG/1.1/DTD/svg11.dtd">
<svg width="32mm" height="112mm" viewBox="-17 -224 32 112" xmlns="http://www.w3.org/2000/svg" version="1.1">
<title>OpenSCAD Model</title>
<path d="
M -13.5,-209.941 L -13.1871,-209.647 L -12.6791,-209.278 L -12.1289,-208.976 L -11.5451,-208.745 L -10.9369,-208.589
 L -10.3139,-208.51 L 10.3139,-208.51 L 10.9369,-208.589 L 11.5451,-208.745 L 12.1289,-208.976 L 12.6791,-209.278
 L 13.1871,-209.647 L 13.6448,-210.077 L 14.0451,-210.561 L 14.3815,-211.091 L 14.6489,-211.659 L 14.8429,-212.257
 L 14.9606,-212.873 L 15,-213.5 L 15,-218.5 L 14.9606,-219.127 L 14.8429,-219.743 L 14.6489,-220.341
 L 14.3815,-220.909 L 14.0451,-221.439 L 13.6448,-221.923 L 13.1871,-222.353 L 12.6791,-222.722 L 12.1289,-223.024
 L 11.5451,-223.255 L 10.9369,-223.411 L 10.3139,-223.49 L -10.3139,-223.49 L -10.9369,-223.411 L -11.5451,-223.255
 L -12.1289,-223.024 L -12.6791,-222.722 L -13.1871,-222.353 L -13.5,-222.059 L -13.5,-223.49 L -16.5,-223.49
 L -16.5,-208.51 L -13.5,-208.51 z
M -9.75116,-210.008 L -10.2495,-210.071 L -10.7361,-210.196 L -11.2031,-210.381 L -11.6433,-210.623 L -12.0497,-210.918
 L -12.4159,-211.262 L -12.7361,-211.649 L -13.0052,-212.073 L -13.2191,-212.528 L -13.3743,-213.005 L -13.4684,-213.499
 L -13.5,-214 L -13.5,-218 L -13.4684,-218.501 L -13.3743,-218.995 L -13.2191,-219.472 L -13.0052,-219.927
 L -12.7361,-220.351 L -12.4159,-220.738 L -12.0497,-221.082 L -11.6433,-221.377 L -11.2031,-221.619 L -10.7361,-221.804
 L -10.2495,-221.929 L -9.75116,-221.992 L 9.75116,-221.992 L 10.2495,-221.929 L 10.7361,-221.804 L 11.2031,-221.619
 L 11.6433,-221.377 L 12.0497,-221.082 L 12.4159,-220.738 L 12.7361,-220.351 L 13.0052,-219.927 L 13.2191,-219.472
 L 13.3743,-218.995 L 13.4684,-218.501 L 13.5,-218 L 13.5,-214 L 13.4684,-213.499 L 13.3743,-213.005
 L 13.2191,-212.528 L 13.0052,-212.073 L 12.7361,-211.649 L 12.4159,-211.262 L 12.0497,-210.918 L 11.6433,-210.623
 L 11.2031,-210.381 L 10.7361,-210.196 L 10.2495,-210.071 L 9.75116,-210.008 z
M -13.5,-185.941 L -13.1871,-185.647 L -12.6791,-185.278 L -12.1289,-184.976 L -11.5451,-184.745 L -10.9369,-184.589
 L -10.3139,-184.51 L 10.3139,-184.51 L 10.9369,-184.589 L 11.5451,-184.745 L 12.1289,-184.976 L 12.6791,-185.278
 L 13.1871,-185.647 L 13.6448,-186.077 L 14.0451,-186.561 L 14.3815,-187.091 L 14.6489,-187.659 L 14.8429,-188.257
 L 14.9606,-188.873 L 15,-189.5 L 15,-194.5 L 14.9606,-195.127 L 14.8429,-195.743 L 14.6489,-196.341
 L 14.3815,-196.909 L 14.0451,-197.439 L 13.6448,-197.923 L 13.1871,-198.353 L 12.6791,-198.722 L 12.1289,-199.024
 L 11.5451,-199.255 L 10.9369,-199.411 L 10.3139,-199.49 L -10.3139,-199.49 L -10.9369,-199.411 L -11.5451,-199.255
 L -12.1289,-199.024 L -12.6791,-198.722 L -13.1871,-198.353 L -13.5,-198.059 L -13.5,-199.49 L -16.5,-199.49
 L -16.5,-184.51 L -13.5,-184.51 z
M -9.75116,-186.008 L -10.2495,-186.071 L -10.7361,-186.196 L -11.2031,-186.381 L -11.6433,-186.623 L -12.0497,-186.918
 L -12.4159,-187.262 L -12.7361,-187.649 L -13.0052,-188.073 L -13.2191,-188.528 L -13.3743,-189.005 L -13.4684,-189.499
 L -13.5,-190 L -13.5,-194 L -13.4684,-194.501 L -13.3743,-194.995 L -13.2191,-195.472 L -13.0052,-195.927
 L -12.7361,-196.351 L -12.4159,-196.738 L -12.0497,-197.082 L -11.6433,-197.377 L -11.2031,-197.619 L -10.7361,-197.804
 L -10.2495,-197.929 L -9.75116,-197.992 L 9.75116,-197.992 L 10.2495,-197.929 L 10.7361,-197.804 L 11.2031,-197.619
 L 11.6433,-197.377 L 12.0497,-197.082 L 12.4159,-196.738 L 12.7361,-196.351 L 13.0052,-195.927 L 13.2191,-195.472
 L 13.3743,-194.995 L 13.4684,-194.501 L 13.5,-194 L 13.5,-190 L 13.4684,-189.499 L 13.3743,-189.005
 L 13.2191,-188.528 L 13.0052,-188.073 L 12.7361,-187.649 L 12.4159,-187.262 L 12.0497,-186.918 L 11.6433,-186.623
 L 11.2031,-186.381 L 10.7361,-186.196 L 10.2495,-186.071 L 9.75116,-186.008 z
M -13.5,-161.941 L -13.1871,-161.647 L -12.6791,-161.278 L -12.1289,-160.976 L -11.5451,-160.745 L -10.9369,-160.589
 L -10.3139,-160.51 L 10.3139,-160.51 L 10.9369,-160.589 L 11.5451,-160.745 L 12.1289,-160.976 L 12.6791,-161.278
 L 13.1871,-161.647 L 13.6448,-162.077 L 14.0451,-162.561 L 14.3815,-163.091 L 14.6489,-163.659 L 14.8429,-164.257
 L 14.9606,-164.873 L 15,-165.5 L 15,-170.5 L 14.9606,-171.127 L 14.8429,-171.743 L 14.6489,-172.341
 L 14.3815,-172.909 L 14.0451,-173.439 L 13.6448,-173.923 L 13.1871,-174.353 L 12.6791,-174.722 L 12.1289,-175.024
 L 11.5451,-175.255 L 10.9369,-175.411 L 10.3139,-175.49 L -10.3139,-175.49 L -10.9369,-175.411 L -11.5451,-175.255
 L -12.1289,-175.024 L -12.6791,-174.722 L -13.1871,-174.353 L -13.5,-174.059 L -13.5,-175.49 L -16.5,-175.49
 L -16.5,-160.51 L -13.5,-160.51 z
M -9.75116,-162.008 L -10.2495,-162.071 L -10.7361,-162.196 L -11.2031,-162.381 L -11.6433,-162.623 L -12.0497,-162.918
 L -12.4159,-163.262 L -12.7361,-163.649 L -13.0052,-164.073 L -13.2191,-164.528 L -13.3743,-165.005 L -13.4684,-165.499
 L -13.5,-166 L -13.5,-170 L -13.4684,-170.501 L -13.3743,-170.995 L -13.2191,-171.472 L -13.0052,-171.927
 L -12.7361,-172.351 L -12.4159,-172.738 L -12.0497,-173.082 L -11.6433,-173.377 L -11.2031,-173.619 L -10.7361,-173.804
 L -10.2495,-173.929 L -9.75116,-173.992 L 9.75116,-173.992 L 10.2495,-173.929 L 10.7361,-173.804 L 11.2031,-173.619
 L 11.6433,-173.377 L 12.0497,-173.082 L 12.4159,-172.738 L 12.7361,-172.351 L 13.0052,-171.927 L 13.2191,-171.472
 L 13.3743,-170.995 L 13.4684,-170.501 L 13.5,-170 L 13.5,-166 L 13.4684,-165.499 L 13.3743,-165.005
 L 13.2191,-164.528 L 13.0052,-164.073 L 12.7361,-163.649 L 12.4159,-163.262 L 12.0497,-162.918 L 11.6433,-162.623
 L 11.2031,-162.381 L 10.7361,-162.196 L 10.2495,-162.071 L 9.75116,-162.008 z
M 10.9369,-136.589 L 11.5451,-136.745 L 12.1289,-136.976 L 12.6791,-137.278 L 13.1871,-137.647 L 13.6448,-138.077
 L 14.0451,-138.561 L 14.3815,-139.091 L 14.6489,-139.659 L 14.8429,-140.257 L 14.9606,-140.873 L 15,-141.5
 L 15,-146.5 L 14.9606,-147.127 L 14.8429,-147.743 L 14.6489,-148.341 L 14.3815,-148.909 L 14.0451,-149.439
 L 13.6448,-149.923 L 13.1871,-150.353 L 12.6791,-150.722 L 12.1289,-151.024 L 11.5451,-151.255 L 10.9369,-151.411
 L 10.3139,-151.49 L -10.3139,-151.49 L -10.9369,-151.411 L -11.5451,-151.255 L -12.1289,-151.024 L -12.6791,-150.722
 L -13.1871,-150.353 L -13.5,-150.059 L -13.5,-151.479 L -16.5,-151.479 L -16.5,-136.521 L -13.5,-136.521
 L -13.5,-137.941 L -13.1871,-137.647 L -12.6791,-137.278 L -12.1289,-136.976 L -11.5451,-136.745 L -10.9369,-136.589
 L -10.3139,-136.51 L 10.3139,-136.51 z
M -9.69545,-138.893 L -10.0833,-138.942 L -10.4619,-139.039 L -10.8254,-139.183 L -11.168,-139.372 L -11.4842,-139.601
 L -11.7692,-139.869 L -12.0184,-140.17 L -12.2279,-140.5 L -12.3943,-140.854 L -12.5151,-141.226 L -12.5884,-141.61
 L -12.6129,-142 L -12.6129,-146 L -12.5884,-146.39 L -12.5151,-146.774 L -12.3943,-147.146 L -12.2279,-147.5
 L -12.0184,-147.83 L -11.7692,-148.131 L -11.4842,-148.399 L -11.168,-148.628 L -10.8254,-148.817 L -10.4619,-148.961
 L -10.0833,-149.058 L -9.69545,-149.107 L 9.69545,-149.107 L 10.0833,-149.058 L 10.4619,-148.961 L 10.8254,-148.817
 L 11.168,-148.628 L 11.4842,-148.399 L 11.7692,-148.131 L 12.0184,-147.83 L 12.2279,-147.5 L 12.3943,-147.146
 L 12.5151,-146.774 L 12.5884,-146.39 L 12.6129,-146 L 12.6129,-142 L 12.5884,-141.61 L 12.5151,-141.226
 L 12.3943,-140.854 L 12.2279,-140.5 L 12.0184,-140.17 L 11.7692,-139.869 L 11.4842,-139.601 L 11.168,-139.372
 L 10.8254,-139.183 L 10.4619,-139.039 L 10.0833,-138.942 L 9.69545,-138.893 z
M 10.9369,-112.589 L 11.5451,-112.745 L 12.1289,-112.976 L 12.6791,-113.278 L 13.1871,-113.647 L 13.6448,-114.077
 L 14.0451,-114.561 L 14.3815,-115.091 L 14.6489,-115.659 L 14.8429,-116.257 L 14.9606,-116.873 L 15,-117.5
 L 15,-122.5 L 14.9606,-123.127 L 14.8429,-123.743 L 14.6489,-124.341 L 14.3815,-124.909 L 14.0451,-125.439
 L 13.6448,-125.923 L 13.1871,-126.353 L 12.6791,-126.722 L 12.1289,-127.024 L 11.5451,-127.255 L 10.9369,-127.411
 L 10.3139,-127.49 L -10.3139,-127.49 L -10.9369,-127.411 L -11.5451,-127.255 L -12.1289,-127.024 L -12.6791,-126.722
 L -13.1871,-126.353 L -13.5,-126.059 L -13.5,-126.153 L -16.5,-126.153 L -16.5,-113.847 L -13.5,-113.847
 L -13.5,-113.941 L -13.1871,-113.647 L -12.6791,-113.278 L -12.1289,-112.976 L -11.5451,-112.745 L -10.9369,-112.589
 L -10.3139,-112.51 L 10.3139,-112.51 z
M -7.63406,-117.869 L -7.9001,-117.903 L -8.15984,-117.969 L -8.40915,-118.068 L -8.64413,-118.197 L -8.86108,-118.355
 L -9.05655,-118.538 L -9.22748,-118.745 L -9.37117,-118.971 L -9.48534,-119.214 L -9.56821,-119.469 L -9.61845,-119.732
 L -9.63528,-120 L -9.61845,-120.268 L -9.56821,-120.531 L -9.48534,-120.786 L -9.37117,-121.029 L -9.22748,-121.255
 L -9.05655,-121.462 L -8.86108,-121.645 L -8.64413,-121.803 L -8.40915,-121.932 L -8.15984,-122.031 L -7.9001,-122.097
 L -7.63406,-122.131 L -7.36592,-122.131 L -7.09988,-122.097 L -6.84015,-122.031 L -6.59084,-121.932 L -6.35585,-121.803
 L -6.1389,-121.645 L -5.94344,-121.462 L -5.77251,-121.255 L -5.62881,-121.029 L -5.51465,-120.786 L -5.43178,-120.531
 L -5.38153,-120.268 L -5.3647,-120 L -5.38153,-119.732 L -5.43178,-119.469 L -5.51465,-119.214 L -5.62881,-118.971
 L -5.77251,-118.745 L -5.94344,-118.538 L -6.1389,-118.355 L -6.35585,-118.197 L -6.59084,-118.068 L -6.84015,-117.969
 L -7.09988,-117.903 L -7.36592,-117.869 z
M 7.36592,-117.869 L 7.09988,-117.903 L 6.84015,-117.969 L 6.59084,-118.068 L 6.35585,-118.197 L 6.1389,-118.355
 L 5.94344,-118.538 L 5.77251,-118.745 L 5.62881,-118.971 L 5.51465,-119.214 L 5.43178,-119.469 L 5.38153,-119.732
 L 5.3647,-120 L 5.38153,-120.268 L 5.43178,-120.531 L 5.51465,-120.786 L 5.62881,-121.029 L 5.77251,-121.255
 L 5.94344,-121.462 L 6.1389,-121.645 L 6.35585,-121.803 L 6.59084,-121.932 L 6.84015,-122.031 L 7.09988,-122.097
 L 7.36592,-122.131 L 7.63406,-122.131 L 7.9001,-122.097 L 8.15984,-122.031 L 8.40915,-121.932 L 8.64413,-121.803
 L 8.86108,-121.645 L 9.05655,-121.462 L 9.22748,-121.255 L 9.37117,-121.029 L 9.48534,-120.786 L 9.56821,-120.531
 L 9.61845,-120.268 L 9.63528,-120 L 9.61845,-119.732 L 9.56821,-119.469 L 9.48534,-119.214 L 9.37117,-118.971
 L 9.22748,-118.745 L 9.05655,-118.538 L 8.86108,-118.355 L 8.64413,-118.197 L 8.40915,-118.068 L 8.15984,-117.969
 L 7.9001,-117.903 L 7.63406,-117.869 z
" stroke="black" fill="lightgray" stroke-width="0.5"/>
</svg>
