<?xml version="1.0" standalone="no"?>
<!DOCTYPE svg PUBLIC "-//W3C//DTD SVG 1.1//EN" "http://www.w3.org/Graphics/SVG/1.1/DTD/svg11.dtd">
<svg width="46mm" height="189mm" viewBox="-23 -243 46 189" xmlns="http://www.w3.org/2000/svg" version="1.1">
<title>OpenSCAD Model</title>
<path d="
M 18.4369,-153.089 L 19.0451,-153.245 L 19.6289,-153.476 L 20.1791,-153.778 L 20.6871,-154.147 L 21.1448,-154.577
 L 21.5451,-155.061 L 21.8815,-155.591 L 22.1489,-156.159 L 22.3429,-156.757 L 22.4606,-157.373 L 22.5,-158
 L 22.5,-238 L 22.4606,-238.627 L 22.3429,-239.243 L 22.1489,-239.841 L 21.8815,-240.409 L 21.5451,-240.939
 L 21.1448,-241.423 L 20.6871,-241.853 L 20.1791,-242.222 L 19.6289,-242.524 L 19.0451,-242.755 L 18.4369,-242.911
 L 17.8139,-242.99 L -17.8139,-242.99 L -18.4369,-242.911 L -19.0451,-242.755 L -19.6289,-242.524 L -20.1791,-242.222
 L -20.6871,-241.853 L -21.1448,-241.423 L -21.5451,-240.939 L -21.8815,-240.409 L -22.1489,-239.841 L -22.3429,-239.243
 L -22.4606,-238.627 L -22.5,-238 L -22.5,-158 L -22.4606,-157.373 L -22.3429,-156.757 L -22.1489,-156.159
 L -21.8815,-155.591 L -21.5451,-155.061 L -21.1448,-154.577 L -20.6871,-154.147 L -20.1791,-153.778 L -19.6289,-153.476
 L -19.0451,-153.245 L -18.4369,-153.089 L -17.8139,-153.01 L 17.8139,-153.01 z
M 18.4369,-54.0886 L 19.0451,-54.2447 L 19.6289,-54.4759 L 20.1791,-54.7784 L 20.6871,-55.1474 L 21.1448,-55.5773
 L 21.5451,-56.0611 L 21.8815,-56.5912 L 22.1489,-57.1594 L 22.3429,-57.7566 L 22.4606,-58.3733 L 22.5,-59
 L 22.5,-139 L 22.4606,-139.627 L 22.3429,-140.243 L 22.1489,-140.841 L 21.8815,-141.409 L 21.5451,-141.939
 L 21.1448,-142.423 L 20.6871,-142.853 L 20.1791,-143.222 L 19.6289,-143.524 L 19.0451,-143.755 L 18.4369,-143.911
 L 17.8139,-143.99 L -17.8139,-143.99 L -18.4369,-143.911 L -19.0451,-143.755 L -19.6289,-143.524 L -20.1791,-143.222
 L -20.6871,-142.853 L -21.1448,-142.423 L -21.5451,-141.939 L -21.8815,-141.409 L -22.1489,-140.841 L -22.3429,-140.243
 L -22.4606,-139.627 L -22.5,-139 L -22.5,-59 L -22.4606,-58.3733 L -22.3429,-57.7566 L -22.1489,-57.1594
 L -21.8815,-56.5912 L -21.5451,-56.0611 L -21.1448,-55.5773 L -20.6871,-55.1474 L -20.1791,-54.7784 L -19.6289,-54.4759
 L -19.0451,-54.2447 L -18.4369,-54.0886 L -17.8139,-54.0099 L 17.8139,-54.0099 z
M 14.887,-134.704 L 14.6627,-134.732 L 14.4438,-134.788 L 14.2336,-134.871 L 14.0355,-134.98 L 13.8526,-135.113
 L 13.6879,-135.268 L 13.5438,-135.442 L 13.4226,-135.633 L 13.3264,-135.837 L 13.2565,-136.052 L 13.2142,-136.274
 L 13.2,-136.5 L 13.2142,-136.726 L 13.2565,-136.948 L 13.3264,-137.163 L 13.4226,-137.367 L 13.5438,-137.558
 L 13.6879,-137.732 L 13.8526,-137.887 L 14.0355,-138.02 L 14.2336,-138.129 L 14.4438,-138.212 L 14.6627,-138.268
 L 14.887,-138.296 L 15.113,-138.296 L 15.3373,-138.268 L 15.5562,-138.212 L 15.7664,-138.129 L 15.9645,-138.02
 L 16.1474,-137.887 L 16.3121,-137.732 L 16.4562,-137.558 L 16.5773,-137.367 L 16.6736,-137.163 L 16.7434,-136.948
 L 16.7858,-136.726 L 16.8,-136.5 L 16.7858,-136.274 L 16.7434,-136.052 L 16.6736,-135.837 L 16.5773,-135.633
 L 16.4562,-135.442 L 16.3121,-135.268 L 16.1474,-135.113 L 15.9645,-134.98 L 15.7664,-134.871 L 15.5562,-134.788
 L 15.3373,-134.732 L 15.113,-134.704 z
M -15.113,-134.704 L -15.3373,-134.732 L -15.5562,-134.788 L -15.7664,-134.871 L -15.9645,-134.98 L -16.1474,-135.113
 L -16.3121,-135.268 L -16.4562,-135.442 L -16.5773,-135.633 L -16.6736,-135.837 L -16.7434,-136.052 L -16.7858,-136.274
 L -16.8,-136.5 L -16.7858,-136.726 L -16.7434,-136.948 L -16.6736,-137.163 L -16.5773,-137.367 L -16.4562,-137.558
 L -16.3121,-137.732 L -16.1474,-137.887 L -15.9645,-138.02 L -15.7664,-138.129 L -15.5562,-138.212 L -15.3373,-138.268
 L -15.113,-138.296 L -14.887,-138.296 L -14.6627,-138.268 L -14.4438,-138.212 L -14.2336,-138.129 L -14.0355,-138.02
 L -13.8526,-137.887 L -13.6879,-137.732 L -13.5438,-137.558 L -13.4226,-137.367 L -13.3264,-137.163 L -13.2565,-136.948
 L -13.2142,-136.726 L -13.2,-136.5 L -13.2142,-136.274 L -13.2565,-136.052 L -13.3264,-135.837 L -13.4226,-135.633
 L -13.5438,-135.442 L -13.6879,-135.268 L -13.8526,-135.113 L -14.0355,-134.98 L -14.2336,-134.871 L -14.4438,-134.788
 L -14.6627,-134.732 L -14.887,-134.704 z
M 14.887,-59.7036 L 14.6627,-59.7319 L 14.4438,-59.7881 L 14.2336,-59.8713 L 14.0355,-59.9802 L 13.8526,-60.1131
 L 13.6879,-60.2678 L 13.5438,-60.442 L 13.4226,-60.6328 L 13.3264,-60.8374 L 13.2565,-61.0524 L 13.2142,-61.2744
 L 13.2,-61.5 L 13.2142,-61.7256 L 13.2565,-61.9476 L 13.3264,-62.1626 L 13.4226,-62.3672 L 13.5438,-62.558
 L 13.6879,-62.7322 L 13.8526,-62.8869 L 14.0355,-63.0198 L 14.2336,-63.1287 L 14.4438,-63.2119 L 14.6627,-63.2681
 L 14.887,-63.2964 L 15.113,-63.2964 L 15.3373,-63.2681 L 15.5562,-63.2119 L 15.7664,-63.1287 L 15.9645,-63.0198
 L 16.1474,-62.8869 L 16.3121,-62.7322 L 16.4562,-62.558 L 16.5773,-62.3672 L 16.6736,-62.1626 L 16.7434,-61.9476
 L 16.7858,-61.7256 L 16.8,-61.5 L 16.7858,-61.2744 L 16.7434,-61.0524 L 16.6736,-60.8374 L 16.5773,-60.6328
 L 16.4562,-60.442 L 16.3121,-60.2678 L 16.1474,-60.1131 L 15.9645,-59.9802 L 15.7664,-59.8713 L 15.5562,-59.7881
 L 15.3373,-59.7319 L 15.113,-59.7036 z
M -15.113,-59.7036 L -15.3373,-59.7319 L -15.5562,-59.7881 L -15.7664,-59.8713 L -15.9645,-59.9802 L -16.1474,-60.1131
 L -16.3121,-60.2678 L -16.4562,-60.442 L -16.5773,-60.6328 L -16.6736,-60.8374 L -16.7434,-61.0524 L -16.7858,-61.2744
 L -16.8,-61.5 L -16.7858,-61.7256 L -16.7434,-61.9476 L -16.6736,-62.1626 L -16.5773,-62.3672 L -16.4562,-62.558
 L -16.3121,-62.7322 L -16.1474,-62.8869 L -15.9645,-63.0198 L -15.7664,-63.1287 L -15.5562,-63.2119 L -15.3373,-63.2681
 L -15.113,-63.2964 L -14.887,-63.2964 L -14.6627,-63.2681 L -14.4438,-63.2119 L -14.2336,-63.1287 L -14.0355,-63.0198
 L -13.8526,-62.8869 L -13.6879,-62.7322 L -13.5438,-62.558 L -13.4226,-62.3672 L -13.3264,-62.1626 L -13.2565,-61.9476
 L -13.2142,-61.7256 L -13.2,-61.5 L -13.2142,-61.2744 L -13.2565,-61.0524 L -13.3264,-60.8374 L -13.4226,-60.6328
 L -13.5438,-60.442 L -13.6879,-60.2678 L -13.8526,-60.1131 L -14.0355,-59.9802 L -14.2336,-59.8713 L -14.4438,-59.7881
 L -14.6627,-59.7319 L -14.887,-59.7036 z
" stroke="black" fill="lightgray" stroke-width="0.5"/>
</svg>
