<?xml version="1.0" standalone="no"?>
<!DOCTYPE svg PUBLIC "-//W3C//DTD SVG 1.1//EN" "http://www.w3.org/Graphics/SVG/1.1/DTD/svg11.dtd">
<svg width="16mm" height="280mm" viewBox="-8 -356 16 280" xmlns="http://www.w3.org/2000/svg" version="1.1">
<title>OpenSCAD Model</title>
<path d="
M 3.4369,-220.589 L 4.04507,-220.745 L 4.62889,-220.976 L 5.17912,-221.278 L 5.68712,-221.647 L 6.14484,-222.077
 L 6.54507,-222.561 L 6.88153,-223.091 L 7.14888,-223.659 L 7.34291,-224.257 L 7.46057,-224.873 L 7.5,-225.5
 L 7.5,-350.5 L 7.46057,-351.127 L 7.34291,-351.743 L 7.14888,-352.341 L 6.88153,-352.909 L 6.54507,-353.439
 L 6.14484,-353.923 L 5.68712,-354.353 L 5.17912,-354.722 L 4.62889,-355.024 L 4.04507,-355.255 L 3.4369,-355.411
 L 2.81395,-355.49 L -2.81395,-355.49 L -3.4369,-355.411 L -4.04507,-355.255 L -4.62889,-355.024 L -5.17912,-354.722
 L -5.68712,-354.353 L -6.14484,-353.923 L -6.54507,-353.439 L -6.88153,-352.909 L -7.14888,-352.341 L -7.34291,-351.743
 L -7.46057,-351.127 L -7.5,-350.5 L -7.5,-225.5 L -7.46057,-224.873 L -7.34291,-224.257 L -7.14888,-223.659
 L -6.88153,-223.091 L -6.54507,-222.561 L -6.14484,-222.077 L -5.68712,-221.647 L -5.17912,-221.278 L -4.62889,-220.976
 L -4.04507,-220.745 L -3.4369,-220.589 L -2.81395,-220.51 L 2.81395,-220.51 z
M 3.4369,-76.5886 L 4.04507,-76.7447 L 4.62889,-76.9759 L 5.17912,-77.2784 L 5.68712,-77.6474 L 6.14484,-78.0773
 L 6.54507,-78.5611 L 6.88153,-79.0912 L 7.14888,-79.6594 L 7.34291,-80.2566 L 7.46057,-80.8733 L 7.5,-81.5
 L 7.5,-206.5 L 7.46057,-207.127 L 7.34291,-207.743 L 7.14888,-208.341 L 6.88153,-208.909 L 6.54507,-209.439
 L 6.14484,-209.923 L 5.68712,-210.353 L 5.17912,-210.722 L 4.62889,-211.024 L 4.04507,-211.255 L 3.4369,-211.411
 L 2.81395,-211.49 L -2.81395,-211.49 L -3.4369,-211.411 L -4.04507,-211.255 L -4.62889,-211.024 L -5.17912,-210.722
 L -5.68712,-210.353 L -6.14484,-209.923 L -6.54507,-209.439 L -6.88153,-208.909 L -7.14888,-208.341 L -7.34291,-207.743
 L -7.46057,-207.127 L -7.5,-206.5 L -7.5,-81.5 L -7.46057,-80.8733 L -7.34291,-80.2566 L -7.14888,-79.6594
 L -6.88153,-79.0912 L -6.54507,-78.5611 L -6.14484,-78.0773 L -5.68712,-77.6474 L -5.17912,-77.2784 L -4.62889,-76.9759
 L -4.04507,-76.7447 L -3.4369,-76.5886 L -2.81395,-76.5099 L 2.81395,-76.5099 z
M -0.113022,-202.204 L -0.33728,-202.232 L -0.556229,-202.288 L -0.766388,-202.371 L -0.964478,-202.48 L -1.14735,-202.613
 L -1.31213,-202.768 L -1.45622,-202.942 L -1.57735,-203.133 L -1.67358,-203.337 L -1.74344,-203.552 L -1.7858,-203.774
 L -1.79999,-204 L -1.7858,-204.226 L -1.74344,-204.448 L -1.67358,-204.663 L -1.57735,-204.867 L -1.45622,-205.058
 L -1.31213,-205.232 L -1.14735,-205.387 L -0.964478,-205.52 L -0.766388,-205.629 L -0.556229,-205.712 L -0.33728,-205.768
 L -0.113022,-205.796 L 0.113022,-205.796 L 0.33728,-205.768 L 0.556229,-205.712 L 0.766388,-205.629 L 0.964478,-205.52
 L 1.14735,-205.387 L 1.31213,-205.232 L 1.45622,-205.058 L 1.57735,-204.867 L 1.67358,-204.663 L 1.74344,-204.448
 L 1.7858,-204.226 L 1.79999,-204 L 1.7858,-203.774 L 1.74344,-203.552 L 1.67358,-203.337 L 1.57735,-203.133
 L 1.45622,-202.942 L 1.31213,-202.768 L 1.14735,-202.613 L 0.964478,-202.48 L 0.766388,-202.371 L 0.556229,-202.288
 L 0.33728,-202.232 L 0.113022,-202.204 z
M -0.113022,-82.2036 L -0.33728,-82.2319 L -0.556229,-82.2881 L -0.766388,-82.3713 L -0.964478,-82.4802 L -1.14735,-82.6131
 L -1.31213,-82.7678 L -1.45622,-82.942 L -1.57735,-83.1328 L -1.67358,-83.3374 L -1.74344,-83.5524 L -1.7858,-83.7744
 L -1.79999,-84 L -1.7858,-84.2256 L -1.74344,-84.4476 L -1.67358,-84.6626 L -1.57735,-84.8672 L -1.45622,-85.058
 L -1.31213,-85.2322 L -1.14735,-85.3869 L -0.964478,-85.5198 L -0.766388,-85.6287 L -0.556229,-85.7119 L -0.33728,-85.7681
 L -0.113022,-85.7964 L 0.113022,-85.7964 L 0.33728,-85.7681 L 0.556229,-85.7119 L 0.766388,-85.6287 L 0.964478,-85.5198
 L 1.14735,-85.3869 L 1.31213,-85.2322 L 1.45622,-85.058 L 1.57735,-84.8672 L 1.67358,-84.6626 L 1.74344,-84.4476
 L 1.7858,-84.2256 L 1.79999,-84 L 1.7858,-83.7744 L 1.74344,-83.5524 L 1.67358,-83.3374 L 1.57735,-83.1328
 L 1.45622,-82.942 L 1.31213,-82.7678 L 1.14735,-82.6131 L 0.964478,-82.4802 L 0.766388,-82.3713 L 0.556229,-82.2881
 L 0.33728,-82.2319 L 0.113022,-82.2036 z
" stroke="black" fill="lightgray" stroke-width="0.5"/>
</svg>
