<?xml version="1.0" standalone="no"?>
<!DOCTYPE svg PUBLIC "-//W3C//DTD SVG 1.1//EN" "http://www.w3.org/Graphics/SVG/1.1/DTD/svg11.dtd">
<svg width="30mm" height="186mm" viewBox="-15 -366 30 186" xmlns="http://www.w3.org/2000/svg" version="1.1">
<title>OpenSCAD Model</title>
<path d="
M 10.9369,-336.089 L 11.5451,-336.245 L 12.1289,-336.476 L 12.6791,-336.778 L 13.1871,-337.147 L 13.6448,-337.577
 L 14.0451,-338.061 L 14.3815,-338.591 L 14.6489,-339.159 L 14.8429,-339.757 L 14.9606,-340.373 L 15,-341
 L 15,-361 L 14.9606,-361.627 L 14.8429,-362.243 L 14.6489,-362.841 L 14.3815,-363.409 L 14.0451,-363.939
 L 13.6448,-364.423 L 13.1871,-364.853 L 12.6791,-365.222 L 12.1289,-365.524 L 11.5451,-365.755 L 10.9369,-365.911
 L 10.3139,-365.99 L -10.3139,-365.99 L -10.9369,-365.911 L -11.5451,-365.755 L -12.1289,-365.524 L -12.6791,-365.222
 L -13.1871,-364.853 L -13.6448,-364.423 L -14.0451,-363.939 L -14.3815,-363.409 L -14.6489,-362.841 L -14.8429,-362.243
 L -14.9606,-361.627 L -15,-361 L -15,-341 L -14.9606,-340.373 L -14.8429,-339.757 L -14.6489,-339.159
 L -14.3815,-338.591 L -14.0451,-338.061 L -13.6448,-337.577 L -13.1871,-337.147 L -12.6791,-336.778 L -12.1289,-336.476
 L -11.5451,-336.245 L -10.9369,-336.089 L -10.3139,-336.01 L 10.3139,-336.01 z
M -9.75116,-337.508 L -10.2495,-337.571 L -10.7361,-337.696 L -11.2031,-337.881 L -11.6433,-338.123 L -12.0497,-338.418
 L -12.4159,-338.762 L -12.7361,-339.149 L -13.0052,-339.573 L -13.2191,-340.028 L -13.3743,-340.505 L -13.4684,-340.999
 L -13.5,-341.5 L -13.5,-360.5 L -13.4684,-361.001 L -13.3743,-361.495 L -13.2191,-361.972 L -13.0052,-362.427
 L -12.7361,-362.851 L -12.4159,-363.238 L -12.0497,-363.582 L -11.6433,-363.877 L -11.2031,-364.119 L -10.7361,-364.304
 L -10.2495,-364.429 L -9.75116,-364.492 L 9.75116,-364.492 L 10.2495,-364.429 L 10.7361,-364.304 L 11.2031,-364.119
 L 11.6433,-363.877 L 12.0497,-363.582 L 12.4159,-363.238 L 12.7361,-362.851 L 13.0052,-362.427 L 13.2191,-361.972
 L 13.3743,-361.495 L 13.4684,-361.001 L 13.5,-360.5 L 13.5,-341.5 L 13.4684,-340.999 L 13.3743,-340.505
 L 13.2191,-340.028 L 13.0052,-339.573 L 12.7361,-339.149 L 12.4159,-338.762 L 12.0497,-338.418 L 11.6433,-338.123
 L 11.2031,-337.881 L 10.7361,-337.696 L 10.2495,-337.571 L 9.75116,-337.508 z
M 10.9369,-297.089 L 11.5451,-297.245 L 12.1289,-297.476 L 12.6791,-297.778 L 13.1871,-298.147 L 13.6448,-298.577
 L 14.0451,-299.061 L 14.3815,-299.591 L 14.6489,-300.159 L 14.8429,-300.757 L 14.9606,-301.373 L 15,-302
 L 15,-322 L 14.9606,-322.627 L 14.8429,-323.243 L 14.6489,-323.841 L 14.3815,-324.409 L 14.0451,-324.939
 L 13.6448,-325.423 L 13.1871,-325.853 L 12.6791,-326.222 L 12.1289,-326.524 L 11.5451,-326.755 L 10.9369,-326.911
 L 10.3139,-326.99 L -10.3139,-326.99 L -10.9369,-326.911 L -11.5451,-326.755 L -12.1289,-326.524 L -12.6791,-326.222
 L -13.1871,-325.853 L -13.6448,-325.423 L -14.0451,-324.939 L -14.3815,-324.409 L -14.6489,-323.841 L -14.8429,-323.243
 L -14.9606,-322.627 L -15,-322 L -15,-302 L -14.9606,-301.373 L -14.8429,-300.757 L -14.6489,-300.159
 L -14.3815,-299.591 L -14.0451,-299.061 L -13.6448,-298.577 L -13.1871,-298.147 L -12.6791,-297.778 L -12.1289,-297.476
 L -11.5451,-297.245 L -10.9369,-297.089 L -10.3139,-297.01 L 10.3139,-297.01 z
M -9.75116,-298.508 L -10.2495,-298.571 L -10.7361,-298.696 L -11.2031,-298.881 L -11.6433,-299.123 L -12.0497,-299.418
 L -12.4159,-299.762 L -12.7361,-300.149 L -13.0052,-300.573 L -13.2191,-301.028 L -13.3743,-301.505 L -13.4684,-301.999
 L -13.5,-302.5 L -13.5,-321.5 L -13.4684,-322.001 L -13.3743,-322.495 L -13.2191,-322.972 L -13.0052,-323.427
 L -12.7361,-323.851 L -12.4159,-324.238 L -12.0497,-324.582 L -11.6433,-324.877 L -11.2031,-325.119 L -10.7361,-325.304
 L -10.2495,-325.429 L -9.75116,-325.492 L 9.75116,-325.492 L 10.2495,-325.429 L 10.7361,-325.304 L 11.2031,-325.119
 L 11.6433,-324.877 L 12.0497,-324.582 L 12.4159,-324.238 L 12.7361,-323.851 L 13.0052,-323.427 L 13.2191,-322.972
 L 13.3743,-322.495 L 13.4684,-322.001 L 13.5,-321.5 L 13.5,-302.5 L 13.4684,-301.999 L 13.3743,-301.505
 L 13.2191,-301.028 L 13.0052,-300.573 L 12.7361,-300.149 L 12.4159,-299.762 L 12.0497,-299.418 L 11.6433,-299.123
 L 11.2031,-298.881 L 10.7361,-298.696 L 10.2495,-298.571 L 9.75116,-298.508 z
M 10.9369,-258.089 L 11.5451,-258.245 L 12.1289,-258.476 L 12.6791,-258.778 L 13.1871,-259.147 L 13.6448,-259.577
 L 14.0451,-260.061 L 14.3815,-260.591 L 14.6489,-261.159 L 14.8429,-261.757 L 14.9606,-262.373 L 15,-263
 L 15,-283 L 14.9606,-283.627 L 14.8429,-284.243 L 14.6489,-284.841 L 14.3815,-285.409 L 14.0451,-285.939
 L 13.6448,-286.423 L 13.1871,-286.853 L 12.6791,-287.222 L 12.1289,-287.524 L 11.5451,-287.755 L 10.9369,-287.911
 L 10.3139,-287.99 L -10.3139,-287.99 L -10.9369,-287.911 L -11.5451,-287.755 L -12.1289,-287.524 L -12.6791,-287.222
 L -13.1871,-286.853 L -13.6448,-286.423 L -14.0451,-285.939 L -14.3815,-285.409 L -14.6489,-284.841 L -14.8429,-284.243
 L -14.9606,-283.627 L -15,-283 L -15,-263 L -14.9606,-262.373 L -14.8429,-261.757 L -14.6489,-261.159
 L -14.3815,-260.591 L -14.0451,-260.061 L -13.6448,-259.577 L -13.1871,-259.147 L -12.6791,-258.778 L -12.1289,-258.476
 L -11.5451,-258.245 L -10.9369,-258.089 L -10.3139,-258.01 L 10.3139,-258.01 z
M -9.75116,-259.508 L -10.2495,-259.571 L -10.7361,-259.696 L -11.2031,-259.881 L -11.6433,-260.123 L -12.0497,-260.418
 L -12.4159,-260.762 L -12.7361,-261.149 L -13.0052,-261.573 L -13.2191,-262.028 L -13.3743,-262.505 L -13.4684,-262.999
 L -13.5,-263.5 L -13.5,-282.5 L -13.4684,-283.001 L -13.3743,-283.495 L -13.2191,-283.972 L -13.0052,-284.427
 L -12.7361,-284.851 L -12.4159,-285.238 L -12.0497,-285.582 L -11.6433,-285.877 L -11.2031,-286.119 L -10.7361,-286.304
 L -10.2495,-286.429 L -9.75116,-286.492 L 9.75116,-286.492 L 10.2495,-286.429 L 10.7361,-286.304 L 11.2031,-286.119
 L 11.6433,-285.877 L 12.0497,-285.582 L 12.4159,-285.238 L 12.7361,-284.851 L 13.0052,-284.427 L 13.2191,-283.972
 L 13.3743,-283.495 L 13.4684,-283.001 L 13.5,-282.5 L 13.5,-263.5 L 13.4684,-262.999 L 13.3743,-262.505
 L 13.2191,-262.028 L 13.0052,-261.573 L 12.7361,-261.149 L 12.4159,-260.762 L 12.0497,-260.418 L 11.6433,-260.123
 L 11.2031,-259.881 L 10.7361,-259.696 L 10.2495,-259.571 L 9.75116,-259.508 z
M 10.9369,-219.089 L 11.5451,-219.245 L 12.1289,-219.476 L 12.6791,-219.778 L 13.1871,-220.147 L 13.6448,-220.577
 L 14.0451,-221.061 L 14.3815,-221.591 L 14.6489,-222.159 L 14.8429,-222.757 L 14.9606,-223.373 L 15,-224
 L 15,-244 L 14.9606,-244.627 L 14.8429,-245.243 L 14.6489,-245.841 L 14.3815,-246.409 L 14.0451,-246.939
 L 13.6448,-247.423 L 13.1871,-247.853 L 12.6791,-248.222 L 12.1289,-248.524 L 11.5451,-248.755 L 10.9369,-248.911
 L 10.3139,-248.99 L -10.3139,-248.99 L -10.9369,-248.911 L -11.5451,-248.755 L -12.1289,-248.524 L -12.6791,-248.222
 L -13.1871,-247.853 L -13.6448,-247.423 L -14.0451,-246.939 L -14.3815,-246.409 L -14.6489,-245.841 L -14.8429,-245.243
 L -14.9606,-244.627 L -15,-244 L -15,-224 L -14.9606,-223.373 L -14.8429,-222.757 L -14.6489,-222.159
 L -14.3815,-221.591 L -14.0451,-221.061 L -13.6448,-220.577 L -13.1871,-220.147 L -12.6791,-219.778 L -12.1289,-219.476
 L -11.5451,-219.245 L -10.9369,-219.089 L -10.3139,-219.01 L 10.3139,-219.01 z
M -9.69545,-221.393 L -10.0833,-221.442 L -10.4619,-221.539 L -10.8254,-221.683 L -11.168,-221.872 L -11.4842,-222.101
 L -11.7692,-222.369 L -12.0184,-222.67 L -12.2279,-223 L -12.3943,-223.354 L -12.5151,-223.726 L -12.5884,-224.11
 L -12.6129,-224.5 L -12.6129,-243.5 L -12.5884,-243.89 L -12.5151,-244.274 L -12.3943,-244.646 L -12.2279,-245
 L -12.0184,-245.33 L -11.7692,-245.631 L -11.4842,-245.899 L -11.168,-246.128 L -10.8254,-246.317 L -10.4619,-246.461
 L -10.0833,-246.558 L -9.69545,-246.607 L 9.69545,-246.607 L 10.0833,-246.558 L 10.4619,-246.461 L 10.8254,-246.317
 L 11.168,-246.128 L 11.4842,-245.899 L 11.7692,-245.631 L 12.0184,-245.33 L 12.2279,-245 L 12.3943,-244.646
 L 12.5151,-244.274 L 12.5884,-243.89 L 12.6129,-243.5 L 12.6129,-224.5 L 12.5884,-224.11 L 12.5151,-223.726
 L 12.3943,-223.354 L 12.2279,-223 L 12.0184,-222.67 L 11.7692,-222.369 L 11.4842,-222.101 L 11.168,-221.872
 L 10.8254,-221.683 L 10.4619,-221.539 L 10.0833,-221.442 L 9.69545,-221.393 z
M 10.9369,-180.089 L 11.5451,-180.245 L 12.1289,-180.476 L 12.6791,-180.778 L 13.1871,-181.147 L 13.6448,-181.577
 L 14.0451,-182.061 L 14.3815,-182.591 L 14.6489,-183.159 L 14.8429,-183.757 L 14.9606,-184.373 L 15,-185
 L 15,-205 L 14.9606,-205.627 L 14.8429,-206.243 L 14.6489,-206.841 L 14.3815,-207.409 L 14.0451,-207.939
 L 13.6448,-208.423 L 13.1871,-208.853 L 12.6791,-209.222 L 12.1289,-209.524 L 11.5451,-209.755 L 10.9369,-209.911
 L 10.3139,-209.99 L -10.3139,-209.99 L -10.9369,-209.911 L -11.5451,-209.755 L -12.1289,-209.524 L -12.6791,-209.222
 L -13.1871,-208.853 L -13.6448,-208.423 L -14.0451,-207.939 L -14.3815,-207.409 L -14.6489,-206.841 L -14.8429,-206.243
 L -14.9606,-205.627 L -15,-205 L -15,-185 L -14.9606,-184.373 L -14.8429,-183.757 L -14.6489,-183.159
 L -14.3815,-182.591 L -14.0451,-182.061 L -13.6448,-181.577 L -13.1871,-181.147 L -12.6791,-180.778 L -12.1289,-180.476
 L -11.5451,-180.245 L -10.9369,-180.089 L -10.3139,-180.01 L 10.3139,-180.01 z
M 7.36592,-200.369 L 7.09988,-200.403 L 6.84015,-200.469 L 6.59084,-200.568 L 6.35585,-200.697 L 6.1389,-200.855
 L 5.94344,-201.038 L 5.77251,-201.245 L 5.62881,-201.471 L 5.51465,-201.714 L 5.43178,-201.969 L 5.38153,-202.232
 L 5.3647,-202.5 L 5.38153,-202.768 L 5.43178,-203.031 L 5.51465,-203.286 L 5.62881,-203.529 L 5.77251,-203.755
 L 5.94344,-203.962 L 6.1389,-204.145 L 6.35585,-204.303 L 6.59084,-204.432 L 6.84015,-204.531 L 7.09988,-204.597
 L 7.36592,-204.631 L 7.63406,-204.631 L 7.9001,-204.597 L 8.15984,-204.531 L 8.40915,-204.432 L 8.64413,-204.303
 L 8.86108,-204.145 L 9.05655,-203.962 L 9.22748,-203.755 L 9.37117,-203.529 L 9.48534,-203.286 L 9.56821,-203.031
 L 9.61845,-202.768 L 9.63528,-202.5 L 9.61845,-202.232 L 9.56821,-201.969 L 9.48534,-201.714 L 9.37117,-201.471
 L 9.22748,-201.245 L 9.05655,-201.038 L 8.86108,-200.855 L 8.64413,-200.697 L 8.40915,-200.568 L 8.15984,-200.469
 L 7.9001,-200.403 L 7.63406,-200.369 z
M -7.63406,-200.369 L -7.9001,-200.403 L -8.15984,-200.469 L -8.40915,-200.568 L -8.64413,-200.697 L -8.86108,-200.855
 L -9.05655,-201.038 L -9.22748,-201.245 L -9.37117,-201.471 L -9.48534,-201.714 L -9.56821,-201.969 L -9.61845,-202.232
 L -9.63528,-202.5 L -9.61845,-202.768 L -9.56821,-203.031 L -9.48534,-203.286 L -9.37117,-203.529 L -9.22748,-203.755
 L -9.05655,-203.962 L -8.86108,-204.145 L -8.64413,-204.303 L -8.40915,-204.432 L -8.15984,-204.531 L -7.9001,-204.597
 L -7.63406,-204.631 L -7.36592,-204.631 L -7.09988,-204.597 L -6.84015,-204.531 L -6.59084,-204.432 L -6.35585,-204.303
 L -6.1389,-204.145 L -5.94344,-203.962 L -5.77251,-203.755 L -5.62881,-203.529 L -5.51465,-203.286 L -5.43178,-203.031
 L -5.38153,-202.768 L -5.3647,-202.5 L -5.38153,-202.232 L -5.43178,-201.969 L -5.51465,-201.714 L -5.62881,-201.471
 L -5.77251,-201.245 L -5.94344,-201.038 L -6.1389,-200.855 L -6.35585,-200.697 L -6.59084,-200.568 L -6.84015,-200.469
 L -7.09988,-200.403 L -7.36592,-200.369 z
M 7.36592,-185.369 L 7.09988,-185.403 L 6.84015,-185.469 L 6.59084,-185.568 L 6.35585,-185.697 L 6.1389,-185.855
 L 5.94344,-186.038 L 5.77251,-186.245 L 5.62881,-186.471 L 5.51465,-186.714 L 5.43178,-186.969 L 5.38153,-187.232
 L 5.3647,-187.5 L 5.38153,-187.768 L 5.43178,-188.031 L 5.51465,-188.286 L 5.62881,-188.529 L 5.77251,-188.755
 L 5.94344,-188.962 L 6.1389,-189.145 L 6.35585,-189.303 L 6.59084,-189.432 L 6.84015,-189.531 L 7.09988,-189.597
 L 7.36592,-189.631 L 7.63406,-189.631 L 7.9001,-189.597 L 8.15984,-189.531 L 8.40915,-189.432 L 8.64413,-189.303
 L 8.86108,-189.145 L 9.05655,-188.962 L 9.22748,-188.755 L 9.37117,-188.529 L 9.48534,-188.286 L 9.56821,-188.031
 L 9.61845,-187.768 L 9.63528,-187.5 L 9.61845,-187.232 L 9.56821,-186.969 L 9.48534,-186.714 L 9.37117,-186.471
 L 9.22748,-186.245 L 9.05655,-186.038 L 8.86108,-185.855 L 8.64413,-185.697 L 8.40915,-185.568 L 8.15984,-185.469
 L 7.9001,-185.403 L 7.63406,-185.369 z
M -7.63406,-185.369 L -7.9001,-185.403 L -8.15984,-185.469 L -8.40915,-185.568 L -8.64413,-185.697 L -8.86108,-185.855
 L -9.05655,-186.038 L -9.22748,-186.245 L -9.37117,-186.471 L -9.48534,-186.714 L -9.56821,-186.969 L -9.61845,-187.232
 L -9.63528,-187.5 L -9.61845,-187.768 L -9.56821,-188.031 L -9.48534,-188.286 L -9.37117,-188.529 L -9.22748,-188.755
 L -9.05655,-188.962 L -8.86108,-189.145 L -8.64413,-189.303 L -8.40915,-189.432 L -8.15984,-189.531 L -7.9001,-189.597
 L -7.63406,-189.631 L -7.36592,-189.631 L -7.09988,-189.597 L -6.84015,-189.531 L -6.59084,-189.432 L -6.35585,-189.303
 L -6.1389,-189.145 L -5.94344,-188.962 L -5.77251,-188.755 L -5.62881,-188.529 L -5.51465,-188.286 L -5.43178,-188.031
 L -5.38153,-187.768 L -5.3647,-187.5 L -5.38153,-187.232 L -5.43178,-186.969 L -5.51465,-186.714 L -5.62881,-186.471
 L -5.77251,-186.245 L -5.94344,-186.038 L -6.1389,-185.855 L -6.35585,-185.697 L -6.59084,-185.568 L -6.84015,-185.469
 L -7.09988,-185.403 L -7.36592,-185.369 z
" stroke="black" fill="lightgray" stroke-width="0.5"/>
</svg>
