<?xml version="1.0" standalone="no"?>
<!DOCTYPE svg PUBLIC "-//W3C//DTD SVG 1.1//EN" "http://www.w3.org/Graphics/SVG/1.1/DTD/svg11.dtd">
<svg width="16mm" height="64mm" viewBox="-8 -128 16 64" xmlns="http://www.w3.org/2000/svg" version="1.1">
<title>OpenSCAD Model</title>
<path d="
M 1.40535,-112.633 L 2.31763,-112.867 L 3.19334,-113.214 L 4.01869,-113.668 L 4.78067,-114.221 L 5.46725,-114.866
 L 6.06763,-115.592 L 6.5723,-116.387 L 6.97331,-117.239 L 7.26436,-118.135 L 7.44086,-119.06 L 7.5,-120
 L 7.44086,-120.94 L 7.26436,-121.865 L 6.97331,-122.761 L 6.5723,-123.613 L 6.06763,-124.408 L 5.46725,-125.134
 L 4.78067,-125.779 L 4.01869,-126.332 L 3.19334,-126.786 L 2.31763,-127.133 L 1.40535,-127.367 L 0.470917,-127.485
 L -0.470917,-127.485 L -1.40535,-127.367 L -2.31763,-127.133 L -3.19334,-126.786 L -4.01869,-126.332 L -4.78067,-125.779
 L -5.46725,-125.134 L -6.06763,-124.408 L -6.5723,-123.613 L -6.97331,-122.761 L -7.26436,-121.865 L -7.44086,-120.94
 L -7.5,-120 L -7.44086,-119.06 L -7.26436,-118.135 L -6.97331,-117.239 L -6.5723,-116.387 L -6.06763,-115.592
 L -5.46725,-114.866 L -4.78067,-114.221 L -4.01869,-113.668 L -3.19334,-113.214 L -2.31763,-112.867 L -1.40535,-112.633
 L -0.470917,-112.515 L 0.470917,-112.515 z
M -2.25116,-114.008 L -2.74951,-114.071 L -3.23605,-114.196 L -3.70311,-114.381 L -4.1433,-114.623 L -4.54968,-114.918
 L -4.91586,-115.262 L -5.23605,-115.649 L -5.50522,-116.073 L -5.7191,-116.528 L -5.87433,-117.005 L -5.96844,-117.499
 L -6,-118 L -6,-122 L -5.96844,-122.501 L -5.87433,-122.995 L -5.7191,-123.472 L -5.50522,-123.927
 L -5.23605,-124.351 L -4.91586,-124.738 L -4.54968,-125.082 L -4.1433,-125.377 L -3.70311,-125.619 L -3.23605,-125.804
 L -2.74951,-125.929 L -2.25116,-125.992 L 2.25116,-125.992 L 2.74951,-125.929 L 3.23605,-125.804 L 3.70311,-125.619
 L 4.1433,-125.377 L 4.54968,-125.082 L 4.91586,-124.738 L 5.23605,-124.351 L 5.50522,-123.927 L 5.7191,-123.472
 L 5.87433,-122.995 L 5.96844,-122.501 L 6,-122 L 6,-118 L 5.96844,-117.499 L 5.87433,-117.005
 L 5.7191,-116.528 L 5.50522,-116.073 L 5.23605,-115.649 L 4.91586,-115.262 L 4.54968,-114.918 L 4.1433,-114.623
 L 3.70311,-114.381 L 3.23605,-114.196 L 2.74951,-114.071 L 2.25116,-114.008 z
M 1.40535,-88.6329 L 2.31763,-88.8671 L 3.19334,-89.2138 L 4.01869,-89.6675 L 4.78067,-90.2212 L 5.46725,-90.8659
 L 6.06763,-91.5916 L 6.5723,-92.3869 L 6.97331,-93.2391 L 7.26436,-94.1348 L 7.44086,-95.06 L 7.5,-96
 L 7.44086,-96.94 L 7.26436,-97.8652 L 6.97331,-98.7609 L 6.5723,-99.6131 L 6.06763,-100.408 L 5.46725,-101.134
 L 4.78067,-101.779 L 4.01869,-102.332 L 3.19334,-102.786 L 2.31763,-103.133 L 1.40535,-103.367 L 0.470917,-103.485
 L -0.470917,-103.485 L -1.40535,-103.367 L -2.31763,-103.133 L -3.19334,-102.786 L -4.01869,-102.332 L -4.78067,-101.779
 L -5.46725,-101.134 L -6.06763,-100.408 L -6.5723,-99.6131 L -6.97331,-98.7609 L -7.26436,-97.8652 L -7.44086,-96.94
 L -7.5,-96 L -7.44086,-95.06 L -7.26436,-94.1348 L -6.97331,-93.2391 L -6.5723,-92.3869 L -6.06763,-91.5916
 L -5.46725,-90.8659 L -4.78067,-90.2212 L -4.01869,-89.6675 L -3.19334,-89.2138 L -2.31763,-88.8671 L -1.40535,-88.6329
 L -0.470917,-88.5148 L 0.470917,-88.5148 z
M -2.19545,-90.8932 L -2.5833,-90.9422 L -2.96194,-91.0394 L -3.32541,-91.1833 L -3.66798,-91.3717 L -3.98424,-91.6015
 L -4.26921,-91.8691 L -4.5184,-92.1703 L -4.72786,-92.5004 L -4.89432,-92.8541 L -5.01512,-93.2259 L -5.08836,-93.6098
 L -5.11292,-94 L -5.11292,-98 L -5.08836,-98.3902 L -5.01512,-98.7741 L -4.89432,-99.1459 L -4.72786,-99.4996
 L -4.5184,-99.8297 L -4.26921,-100.131 L -3.98424,-100.399 L -3.66798,-100.628 L -3.32541,-100.817 L -2.96194,-100.961
 L -2.5833,-101.058 L -2.19545,-101.107 L 2.19545,-101.107 L 2.5833,-101.058 L 2.96194,-100.961 L 3.32541,-100.817
 L 3.66798,-100.628 L 3.98424,-100.399 L 4.26921,-100.131 L 4.5184,-99.8297 L 4.72786,-99.4996 L 4.89432,-99.1459
 L 5.01512,-98.7741 L 5.08836,-98.3902 L 5.11292,-98 L 5.11292,-94 L 5.08836,-93.6098 L 5.01512,-93.2259
 L 4.89432,-92.8541 L 4.72786,-92.5004 L 4.5184,-92.1703 L 4.26921,-91.8691 L 3.98424,-91.6015 L 3.66798,-91.3717
 L 3.32541,-91.1833 L 2.96194,-91.0394 L 2.5833,-90.9422 L 2.19545,-90.8932 z
M 1.40535,-64.6329 L 2.31763,-64.8671 L 3.19334,-65.2138 L 4.01869,-65.6675 L 4.78067,-66.2212 L 5.46725,-66.8659
 L 6.06763,-67.5916 L 6.5723,-68.3869 L 6.97331,-69.2391 L 7.26436,-70.1348 L 7.44086,-71.06 L 7.5,-72
 L 7.44086,-72.94 L 7.26436,-73.8652 L 6.97331,-74.7609 L 6.5723,-75.6131 L 6.06763,-76.4084 L 5.46725,-77.1341
 L 4.78067,-77.7788 L 4.01869,-78.3325 L 3.19334,-78.7862 L 2.31763,-79.1329 L 1.40535,-79.3671 L 0.470917,-79.4852
 L -0.470917,-79.4852 L -1.40535,-79.3671 L -2.31763,-79.1329 L -3.19334,-78.7862 L -4.01869,-78.3325 L -4.78067,-77.7788
 L -5.46725,-77.1341 L -6.06763,-76.4084 L -6.5723,-75.6131 L -6.97331,-74.7609 L -7.26436,-73.8652 L -7.44086,-72.94
 L -7.5,-72 L -7.44086,-71.06 L -7.26436,-70.1348 L -6.97331,-69.2391 L -6.5723,-68.3869 L -6.06763,-67.5916
 L -5.46725,-66.8659 L -4.78067,-66.2212 L -4.01869,-65.6675 L -3.19334,-65.2138 L -2.31763,-64.8671 L -1.40535,-64.6329
 L -0.470917,-64.5148 L 0.470917,-64.5148 z
M -0.134064,-69.8689 L -0.400101,-69.9025 L -0.659836,-69.9692 L -0.909149,-70.0679 L -1.14413,-70.1971 L -1.36108,-70.3547
 L -1.55655,-70.5383 L -1.72748,-70.7449 L -1.87117,-70.9713 L -1.98534,-71.214 L -2.06821,-71.469 L -2.11845,-71.7324
 L -2.13528,-72 L -2.11845,-72.2676 L -2.06821,-72.531 L -1.98534,-72.786 L -1.87117,-73.0287 L -1.72748,-73.2551
 L -1.55655,-73.4617 L -1.36108,-73.6453 L -1.14413,-73.8029 L -0.909149,-73.9321 L -0.659836,-74.0308 L -0.400101,-74.0975
 L -0.134064,-74.1311 L 0.134064,-74.1311 L 0.400101,-74.0975 L 0.659836,-74.0308 L 0.909149,-73.9321 L 1.14413,-73.8029
 L 1.36108,-73.6453 L 1.55655,-73.4617 L 1.72748,-73.2551 L 1.87117,-73.0287 L 1.98534,-72.786 L 2.06821,-72.531
 L 2.11845,-72.2676 L 2.13528,-72 L 2.11845,-71.7324 L 2.06821,-71.469 L 1.98534,-71.214 L 1.87117,-70.9713
 L 1.72748,-70.7449 L 1.55655,-70.5383 L 1.36108,-70.3547 L 1.14413,-70.1971 L 0.909149,-70.0679 L 0.659836,-69.9692
 L 0.400101,-69.9025 L 0.134064,-69.8689 z
" stroke="black" fill="lightgray" stroke-width="0.5"/>
</svg>
