<?xml version="1.0" standalone="no"?>
<!DOCTYPE svg PUBLIC "-//W3C//DTD SVG 1.1//EN" "http://www.w3.org/Graphics/SVG/1.1/DTD/svg11.dtd">
<svg width="136mm" height="64mm" viewBox="-68 -128 136 64" xmlns="http://www.w3.org/2000/svg" version="1.1">
<title>OpenSCAD Model</title>
<path d="
M 63.4369,-112.589 L 64.0451,-112.745 L 64.6289,-112.976 L 65.1791,-113.278 L 65.6871,-113.647 L 66.1448,-114.077
 L 66.5451,-114.561 L 66.8815,-115.091 L 67.1489,-115.659 L 67.3429,-116.257 L 67.4606,-116.873 L 67.5,-117.5
 L 67.5,-122.5 L 67.4606,-123.127 L 67.3429,-123.743 L 67.1489,-124.341 L 66.8815,-124.909 L 66.5451,-125.439
 L 66.1448,-125.923 L 65.6871,-126.353 L 65.1791,-126.722 L 64.6289,-127.024 L 64.0451,-127.255 L 63.4369,-127.411
 L 62.8139,-127.49 L -62.8139,-127.49 L -63.4369,-127.411 L -64.0451,-127.255 L -64.6289,-127.024 L -65.1791,-126.722
 L -65.6871,-126.353 L -66.1448,-125.923 L -66.5451,-125.439 L -66.8815,-124.909 L -67.1489,-124.341 L -67.3429,-123.743
 L -67.4606,-123.127 L -67.5,-122.5 L -67.5,-117.5 L -67.4606,-116.873 L -67.3429,-116.257 L -67.1489,-115.659
 L -66.8815,-115.091 L -66.5451,-114.561 L -66.1448,-114.077 L -65.6871,-113.647 L -65.1791,-113.278 L -64.6289,-112.976
 L -64.0451,-112.745 L -63.4369,-112.589 L -62.8139,-112.51 L 62.8139,-112.51 z
M -62.5482,-113.009 L -63.1401,-113.084 L -63.7178,-113.232 L -64.2724,-113.452 L -64.7952,-113.739 L -65.2778,-114.09
 L -65.7126,-114.498 L -66.0928,-114.958 L -66.4125,-115.462 L -66.6664,-116.001 L -66.8508,-116.569 L -66.9625,-117.155
 L -67,-117.75 L -67,-122.25 L -66.9625,-122.845 L -66.8508,-123.431 L -66.6664,-123.999 L -66.4125,-124.538
 L -66.0928,-125.042 L -65.7126,-125.502 L -65.2778,-125.91 L -64.7952,-126.261 L -64.2724,-126.548 L -63.7178,-126.768
 L -63.1401,-126.916 L -62.5482,-126.991 L 62.5482,-126.991 L 63.1401,-126.916 L 63.7178,-126.768 L 64.2724,-126.548
 L 64.7952,-126.261 L 65.2778,-125.91 L 65.7126,-125.502 L 66.0928,-125.042 L 66.4125,-124.538 L 66.6664,-123.999
 L 66.8508,-123.431 L 66.9625,-122.845 L 67,-122.25 L 67,-117.75 L 66.9625,-117.155 L 66.8508,-116.569
 L 66.6664,-116.001 L 66.4125,-115.462 L 66.0928,-114.958 L 65.7126,-114.498 L 65.2778,-114.09 L 64.7952,-113.739
 L 64.2724,-113.452 L 63.7178,-113.232 L 63.1401,-113.084 L 62.5482,-113.009 z
M 63.4369,-88.5886 L 64.0451,-88.7447 L 64.6289,-88.9759 L 65.1791,-89.2784 L 65.6871,-89.6474 L 66.1448,-90.0773
 L 66.5451,-90.5611 L 66.8815,-91.0912 L 67.1489,-91.6594 L 67.3429,-92.2566 L 67.4606,-92.8733 L 67.5,-93.5
 L 67.5,-98.5 L 67.4606,-99.1267 L 67.3429,-99.7434 L 67.1489,-100.341 L 66.8815,-100.909 L 66.5451,-101.439
 L 66.1448,-101.923 L 65.6871,-102.353 L 65.1791,-102.722 L 64.6289,-103.024 L 64.0451,-103.255 L 63.4369,-103.411
 L 62.8139,-103.49 L -62.8139,-103.49 L -63.4369,-103.411 L -64.0451,-103.255 L -64.6289,-103.024 L -65.1791,-102.722
 L -65.6871,-102.353 L -66.1448,-101.923 L -66.5451,-101.439 L -66.8815,-100.909 L -67.1489,-100.341 L -67.3429,-99.7434
 L -67.4606,-99.1267 L -67.5,-98.5 L -67.5,-93.5 L -67.4606,-92.8733 L -67.3429,-92.2566 L -67.1489,-91.6594
 L -66.8815,-91.0912 L -66.5451,-90.5611 L -66.1448,-90.0773 L -65.6871,-89.6474 L -65.1791,-89.2784 L -64.6289,-88.9759
 L -64.0451,-88.7447 L -63.4369,-88.5886 L -62.8139,-88.5099 L 62.8139,-88.5099 z
M -62.5375,-89.1806 L -63.1079,-89.2527 L -63.6648,-89.3956 L -64.1994,-89.6073 L -64.7032,-89.8843 L -65.1684,-90.2223
 L -65.5875,-90.6158 L -65.954,-91.0589 L -66.2621,-91.5443 L -66.5069,-92.0646 L -66.6846,-92.6114 L -66.7923,-93.1762
 L -66.8284,-93.75 L -66.8284,-98.25 L -66.7923,-98.8238 L -66.6846,-99.3886 L -66.5069,-99.9354 L -66.2621,-100.456
 L -65.954,-100.941 L -65.5875,-101.384 L -65.1684,-101.778 L -64.7032,-102.116 L -64.1994,-102.393 L -63.6648,-102.604
 L -63.1079,-102.747 L -62.5375,-102.819 L 62.5375,-102.819 L 63.1079,-102.747 L 63.6648,-102.604 L 64.1994,-102.393
 L 64.7032,-102.116 L 65.1684,-101.778 L 65.5875,-101.384 L 65.954,-100.941 L 66.2621,-100.456 L 66.5069,-99.9354
 L 66.6846,-99.3886 L 66.7923,-98.8238 L 66.8284,-98.25 L 66.8284,-93.75 L 66.7923,-93.1762 L 66.6846,-92.6114
 L 66.5069,-92.0646 L 66.2621,-91.5443 L 65.954,-91.0589 L 65.5875,-90.6158 L 65.1684,-90.2223 L 64.7032,-89.8843
 L 64.1994,-89.6073 L 63.6648,-89.3956 L 63.1079,-89.2527 L 62.5375,-89.1806 z
M 63.4369,-64.5886 L 64.0451,-64.7447 L 64.6289,-64.9759 L 65.1791,-65.2784 L 65.6871,-65.6474 L 66.1448,-66.0773
 L 66.5451,-66.5611 L 66.8815,-67.0912 L 67.1489,-67.6594 L 67.3429,-68.2566 L 67.4606,-68.8733 L 67.5,-69.5
 L 67.5,-74.5 L 67.4606,-75.1267 L 67.3429,-75.7434 L 67.1489,-76.3406 L 66.8815,-76.9088 L 66.5451,-77.4389
 L 66.1448,-77.9227 L 65.6871,-78.3526 L 65.1791,-78.7216 L 64.6289,-79.0241 L 64.0451,-79.2553 L 63.4369,-79.4114
 L 62.8139,-79.4901 L -62.8139,-79.4901 L -63.4369,-79.4114 L -64.0451,-79.2553 L -64.6289,-79.0241 L -65.1791,-78.7216
 L -65.6871,-78.3526 L -66.1448,-77.9227 L -66.5451,-77.4389 L -66.8815,-76.9088 L -67.1489,-76.3406 L -67.3429,-75.7434
 L -67.4606,-75.1267 L -67.5,-74.5 L -67.5,-69.5 L -67.4606,-68.8733 L -67.3429,-68.2566 L -67.1489,-67.6594
 L -66.8815,-67.0912 L -66.5451,-66.5611 L -66.1448,-66.0773 L -65.6871,-65.6474 L -65.1791,-65.2784 L -64.6289,-64.9759
 L -64.0451,-64.7447 L -63.4369,-64.5886 L -62.8139,-64.5099 L 62.8139,-64.5099 z
M -62.3825,-67.6445 L -62.6453,-67.6777 L -62.9019,-67.7436 L -63.1482,-67.8412 L -63.3804,-67.9688 L -63.5947,-68.1245
 L -63.7879,-68.3059 L -63.9567,-68.51 L -64.0987,-68.7337 L -64.2115,-68.9734 L -64.2934,-69.2254 L -64.343,-69.4856
 L -64.3596,-69.75 L -64.3596,-74.25 L -64.343,-74.5144 L -64.2934,-74.7746 L -64.2115,-75.0266 L -64.0987,-75.2663
 L -63.9567,-75.49 L -63.7879,-75.6941 L -63.5947,-75.8755 L -63.3804,-76.0312 L -63.1482,-76.1588 L -62.9019,-76.2564
 L -62.6453,-76.3223 L -62.3825,-76.3555 L 62.3825,-76.3555 L 62.6453,-76.3223 L 62.9019,-76.2564 L 63.1482,-76.1588
 L 63.3804,-76.0312 L 63.5947,-75.8755 L 63.7879,-75.6941 L 63.9567,-75.49 L 64.0987,-75.2663 L 64.2115,-75.0266
 L 64.2934,-74.7746 L 64.343,-74.5144 L 64.3596,-74.25 L 64.3596,-69.75 L 64.343,-69.4856 L 64.2934,-69.2254
 L 64.2115,-68.9734 L 64.0987,-68.7337 L 63.9567,-68.51 L 63.7879,-68.3059 L 63.5947,-68.1245 L 63.3804,-67.9688
 L 63.1482,-67.8412 L 62.9019,-67.7436 L 62.6453,-67.6777 L 62.3825,-67.6445 z
" stroke="black" fill="lightgray" stroke-width="0.5"/>
</svg>
