<?xml version="1.0" standalone="no"?>
<!DOCTYPE svg PUBLIC "-//W3C//DTD SVG 1.1//EN" "http://www.w3.org/Graphics/SVG/1.1/DTD/svg11.dtd">
<svg width="194mm" height="398mm" viewBox="-97 -709 194 398" xmlns="http://www.w3.org/2000/svg" version="1.1">
<title>OpenSCAD Model</title>
<path d="
M 87,-708.99 L 76.1312,-708.99 L 79.1213,-706 L 87,-706 z
M 92.9369,-515.089 L 93.5451,-515.245 L 94.1289,-515.476 L 94.6791,-515.778 L 95.1871,-516.147 L 95.6448,-516.577
 L 96.0451,-517.061 L 96.3815,-517.591 L 96.6489,-518.159 L 96.8429,-518.757 L 96.9606,-519.373 L 97,-520
 L 97,-704 L 96.9685,-704.5 L 78.6066,-704.5 L 78.5533,-704.447 L 78.5,-704.5 L 23.561,-704.5
 L 23.561,-704.498 L 22.7482,-704.498 L 22.6236,-704.482 L 22.502,-704.451 L 22.3852,-704.405 L 22.2752,-704.344
 L 22.1736,-704.271 L 22.082,-704.185 L 22.002,-704.088 L 21.9347,-703.982 L 21.8812,-703.868 L 21.8424,-703.749
 L 21.8189,-703.625 L 21.811,-703.5 L 21.8189,-703.375 L 21.8424,-703.251 L 21.8812,-703.132 L 21.9347,-703.018
 L 22.002,-702.912 L 22.082,-702.815 L 22.1736,-702.729 L 22.2752,-702.656 L 22.3852,-702.595 L 22.502,-702.549
 L 22.6236,-702.518 L 22.7482,-702.502 L 24.753,-702.502 L 29.0476,-701.399 L 40.0233,-697.054 L 50.3677,-691.367
 L 59.9178,-684.428 L 68.523,-676.347 L 76.0476,-667.252 L 82.3728,-657.285 L 87.399,-646.604 L 91.0468,-635.377
 L 93.2588,-623.781 L 94,-612 L 93.2588,-600.219 L 91.0468,-588.623 L 87.399,-577.396 L 82.3728,-566.715
 L 76.0476,-556.748 L 68.523,-547.653 L 59.9178,-539.572 L 50.3677,-532.633 L 40.0233,-526.946 L 29.0476,-522.601
 L 17.6138,-519.665 L 5.9023,-518.185 L -5.9023,-518.185 L -17.6138,-519.665 L -29.0476,-522.601 L -40.0233,-526.946
 L -50.3677,-532.633 L -59.9178,-539.572 L -68.523,-547.653 L -76.0476,-556.748 L -82.3728,-566.715 L -87.399,-577.396
 L -91.0468,-588.623 L -93.2588,-600.219 L -94,-612 L -93.2588,-623.781 L -91.0468,-635.377 L -87.399,-646.604
 L -82.3728,-657.285 L -76.0476,-667.252 L -68.523,-676.347 L -59.9178,-684.428 L -50.3677,-691.367 L -40.0233,-697.054
 L -29.0476,-701.399 L -17.6138,-704.335 L -5.9023,-705.815 L 0,-705.815 L 0,-706 L 77,-706
 L 74.0099,-708.99 L -92.3139,-708.99 L -92.9369,-708.911 L -93.5451,-708.755 L -94.1289,-708.524 L -94.6791,-708.222
 L -95.1871,-707.853 L -95.6448,-707.423 L -96.0451,-706.939 L -96.3815,-706.409 L -96.6489,-705.841 L -96.8429,-705.243
 L -96.9606,-704.627 L -97,-704 L -97,-524.994 L -89.8116,-524.994 L -89.4379,-524.947 L -89.073,-524.853
 L -88.7227,-524.714 L -88.3925,-524.533 L -88.0877,-524.312 L -87.8131,-524.054 L -87.573,-523.763 L -87.3711,-523.445
 L -87.2107,-523.104 L -87.0943,-522.746 L -87.0237,-522.376 L -87,-522 L -87.0237,-521.624 L -87.0943,-521.254
 L -87.2107,-520.896 L -87.3711,-520.555 L -87.573,-520.237 L -87.8131,-519.946 L -88.0877,-519.688 L -88.3925,-519.467
 L -88.7227,-519.286 L -89.073,-519.147 L -89.4379,-519.053 L -89.8116,-519.006 L -96.8905,-519.006 L -96.8429,-518.757
 L -96.6489,-518.159 L -96.3815,-517.591 L -96.0451,-517.061 L -95.6448,-516.577 L -95.1871,-516.147 L -94.6791,-515.778
 L -94.1289,-515.476 L -93.5451,-515.245 L -92.9369,-515.089 L -92.3139,-515.01 L 92.3139,-515.01 z
M -91,-699 L -91,-705 L -88,-705 L -88,-699 z
M -60.1884,-699.006 L -60.5621,-699.053 L -60.927,-699.147 L -61.2773,-699.286 L -61.6075,-699.467 L -61.9123,-699.688
 L -62.1869,-699.946 L -62.427,-700.237 L -62.6289,-700.555 L -62.7893,-700.896 L -62.9057,-701.254 L -62.9763,-701.624
 L -63,-702 L -62.9763,-702.376 L -62.9057,-702.746 L -62.7893,-703.104 L -62.6289,-703.445 L -62.427,-703.763
 L -62.1869,-704.054 L -61.9123,-704.312 L -61.6075,-704.533 L -61.2773,-704.714 L -60.927,-704.853 L -60.5621,-704.947
 L -60.1884,-704.994 L -59.8116,-704.994 L -59.4379,-704.947 L -59.0729,-704.853 L -58.7227,-704.714 L -58.3925,-704.533
 L -58.0877,-704.312 L -57.8131,-704.054 L -57.5729,-703.763 L -57.3711,-703.445 L -57.2107,-703.104 L -57.0942,-702.746
 L -57.0237,-702.376 L -57,-702 L -57.0237,-701.624 L -57.0942,-701.254 L -57.2107,-700.896 L -57.3711,-700.555
 L -57.5729,-700.237 L -57.8131,-699.946 L -58.0877,-699.688 L -58.3925,-699.467 L -58.7227,-699.286 L -59.0729,-699.147
 L -59.4379,-699.053 L -59.8116,-699.006 z
M -75.1884,-699.006 L -75.5621,-699.053 L -75.927,-699.147 L -76.2773,-699.286 L -76.6075,-699.467 L -76.9123,-699.688
 L -77.1869,-699.946 L -77.427,-700.237 L -77.6289,-700.555 L -77.7893,-700.896 L -77.9057,-701.254 L -77.9763,-701.624
 L -78,-702 L -77.9763,-702.376 L -77.9057,-702.746 L -77.7893,-703.104 L -77.6289,-703.445 L -77.427,-703.763
 L -77.1869,-704.054 L -76.9123,-704.312 L -76.6075,-704.533 L -76.2773,-704.714 L -75.927,-704.853 L -75.5621,-704.947
 L -75.1884,-704.994 L -74.8116,-704.994 L -74.4379,-704.947 L -74.073,-704.853 L -73.7227,-704.714 L -73.3925,-704.533
 L -73.0877,-704.312 L -72.8131,-704.054 L -72.573,-703.763 L -72.3711,-703.445 L -72.2107,-703.104 L -72.0943,-702.746
 L -72.0237,-702.376 L -72,-702 L -72.0237,-701.624 L -72.0943,-701.254 L -72.2107,-700.896 L -72.3711,-700.555
 L -72.573,-700.237 L -72.8131,-699.946 L -73.0877,-699.688 L -73.3925,-699.467 L -73.7227,-699.286 L -74.073,-699.147
 L -74.4379,-699.053 L -74.8116,-699.006 z
M 89.8116,-684.006 L 89.4379,-684.053 L 89.073,-684.147 L 88.7227,-684.286 L 88.3925,-684.467 L 88.0877,-684.688
 L 87.8131,-684.946 L 87.573,-685.237 L 87.3711,-685.555 L 87.2107,-685.896 L 87.0943,-686.254 L 87.0237,-686.624
 L 87,-687 L 87.0237,-687.376 L 87.0943,-687.746 L 87.2107,-688.104 L 87.3711,-688.445 L 87.573,-688.763
 L 87.8131,-689.054 L 88.0877,-689.312 L 88.3925,-689.533 L 88.7227,-689.714 L 89.073,-689.853 L 89.4379,-689.947
 L 89.8116,-689.994 L 90.1884,-689.994 L 90.5621,-689.947 L 90.927,-689.853 L 91.2773,-689.714 L 91.6075,-689.533
 L 91.9123,-689.312 L 92.1869,-689.054 L 92.427,-688.763 L 92.6289,-688.445 L 92.7893,-688.104 L 92.9057,-687.746
 L 92.9763,-687.376 L 93,-687 L 92.9763,-686.624 L 92.9057,-686.254 L 92.7893,-685.896 L 92.6289,-685.555
 L 92.427,-685.237 L 92.1869,-684.946 L 91.9123,-684.688 L 91.6075,-684.467 L 91.2773,-684.286 L 90.927,-684.147
 L 90.5621,-684.053 L 90.1884,-684.006 z
M -90.1884,-684.006 L -90.5621,-684.053 L -90.927,-684.147 L -91.2773,-684.286 L -91.6075,-684.467 L -91.9123,-684.688
 L -92.1869,-684.946 L -92.427,-685.237 L -92.6289,-685.555 L -92.7893,-685.896 L -92.9057,-686.254 L -92.9763,-686.624
 L -93,-687 L -92.9763,-687.376 L -92.9057,-687.746 L -92.7893,-688.104 L -92.6289,-688.445 L -92.427,-688.763
 L -92.1869,-689.054 L -91.9123,-689.312 L -91.6075,-689.533 L -91.2773,-689.714 L -90.927,-689.853 L -90.5621,-689.947
 L -90.1884,-689.994 L -89.8116,-689.994 L -89.4379,-689.947 L -89.073,-689.853 L -88.7227,-689.714 L -88.3925,-689.533
 L -88.0877,-689.312 L -87.8131,-689.054 L -87.573,-688.763 L -87.3711,-688.445 L -87.2107,-688.104 L -87.0943,-687.746
 L -87.0237,-687.376 L -87,-687 L -87.0237,-686.624 L -87.0943,-686.254 L -87.2107,-685.896 L -87.3711,-685.555
 L -87.573,-685.237 L -87.8131,-684.946 L -88.0877,-684.688 L -88.3925,-684.467 L -88.7227,-684.286 L -89.073,-684.147
 L -89.4379,-684.053 L -89.8116,-684.006 z
M 89.8116,-669.006 L 89.4379,-669.053 L 89.073,-669.147 L 88.7227,-669.286 L 88.3925,-669.467 L 88.0877,-669.688
 L 87.8131,-669.946 L 87.573,-670.237 L 87.3711,-670.555 L 87.2107,-670.896 L 87.0943,-671.254 L 87.0237,-671.624
 L 87,-672 L 87.0237,-672.376 L 87.0943,-672.746 L 87.2107,-673.104 L 87.3711,-673.445 L 87.573,-673.763
 L 87.8131,-674.054 L 88.0877,-674.312 L 88.3925,-674.533 L 88.7227,-674.714 L 89.073,-674.853 L 89.4379,-674.947
 L 89.8116,-674.994 L 90.1884,-674.994 L 90.5621,-674.947 L 90.927,-674.853 L 91.2773,-674.714 L 91.6075,-674.533
 L 91.9123,-674.312 L 92.1869,-674.054 L 92.427,-673.763 L 92.6289,-673.445 L 92.7893,-673.104 L 92.9057,-672.746
 L 92.9763,-672.376 L 93,-672 L 92.9763,-671.624 L 92.9057,-671.254 L 92.7893,-670.896 L 92.6289,-670.555
 L 92.427,-670.237 L 92.1869,-669.946 L 91.9123,-669.688 L 91.6075,-669.467 L 91.2773,-669.286 L 90.927,-669.147
 L 90.5621,-669.053 L 90.1884,-669.006 z
M -90.1884,-669.006 L -90.5621,-669.053 L -90.927,-669.147 L -91.2773,-669.286 L -91.6075,-669.467 L -91.9123,-669.688
 L -92.1869,-669.946 L -92.427,-670.237 L -92.6289,-670.555 L -92.7893,-670.896 L -92.9057,-671.254 L -92.9763,-671.624
 L -93,-672 L -92.9763,-672.376 L -92.9057,-672.746 L -92.7893,-673.104 L -92.6289,-673.445 L -92.427,-673.763
 L -92.1869,-674.054 L -91.9123,-674.312 L -91.6075,-674.533 L -91.2773,-674.714 L -90.927,-674.853 L -90.5621,-674.947
 L -90.1884,-674.994 L -89.8116,-674.994 L -89.4379,-674.947 L -89.073,-674.853 L -88.7227,-674.714 L -88.3925,-674.533
 L -88.0877,-674.312 L -87.8131,-674.054 L -87.573,-673.763 L -87.3711,-673.445 L -87.2107,-673.104 L -87.0943,-672.746
 L -87.0237,-672.376 L -87,-672 L -87.0237,-671.624 L -87.0943,-671.254 L -87.2107,-670.896 L -87.3711,-670.555
 L -87.573,-670.237 L -87.8131,-669.946 L -88.0877,-669.688 L -88.3925,-669.467 L -88.7227,-669.286 L -89.073,-669.147
 L -89.4379,-669.053 L -89.8116,-669.006 z
M 89.8116,-549.006 L 89.4379,-549.053 L 89.073,-549.147 L 88.7227,-549.286 L 88.3925,-549.467 L 88.0877,-549.688
 L 87.8131,-549.946 L 87.573,-550.237 L 87.3711,-550.555 L 87.2107,-550.896 L 87.0943,-551.254 L 87.0237,-551.624
 L 87,-552 L 87.0237,-552.376 L 87.0943,-552.746 L 87.2107,-553.104 L 87.3711,-553.445 L 87.573,-553.763
 L 87.8131,-554.054 L 88.0877,-554.312 L 88.3925,-554.533 L 88.7227,-554.714 L 89.073,-554.853 L 89.4379,-554.947
 L 89.8116,-554.994 L 90.1884,-554.994 L 90.5621,-554.947 L 90.927,-554.853 L 91.2773,-554.714 L 91.6075,-554.533
 L 91.9123,-554.312 L 92.1869,-554.054 L 92.427,-553.763 L 92.6289,-553.445 L 92.7893,-553.104 L 92.9057,-552.746
 L 92.9763,-552.376 L 93,-552 L 92.9763,-551.624 L 92.9057,-551.254 L 92.7893,-550.896 L 92.6289,-550.555
 L 92.427,-550.237 L 92.1869,-549.946 L 91.9123,-549.688 L 91.6075,-549.467 L 91.2773,-549.286 L 90.927,-549.147
 L 90.5621,-549.053 L 90.1884,-549.006 z
M -90.1884,-549.006 L -90.5621,-549.053 L -90.927,-549.147 L -91.2773,-549.286 L -91.6075,-549.467 L -91.9123,-549.688
 L -92.1869,-549.946 L -92.427,-550.237 L -92.6289,-550.555 L -92.7893,-550.896 L -92.9057,-551.254 L -92.9763,-551.624
 L -93,-552 L -92.9763,-552.376 L -92.9057,-552.746 L -92.7893,-553.104 L -92.6289,-553.445 L -92.427,-553.763
 L -92.1869,-554.054 L -91.9123,-554.312 L -91.6075,-554.533 L -91.2773,-554.714 L -90.927,-554.853 L -90.5621,-554.947
 L -90.1884,-554.994 L -89.8116,-554.994 L -89.4379,-554.947 L -89.073,-554.853 L -88.7227,-554.714 L -88.3925,-554.533
 L -88.0877,-554.312 L -87.8131,-554.054 L -87.573,-553.763 L -87.3711,-553.445 L -87.2107,-553.104 L -87.0943,-552.746
 L -87.0237,-552.376 L -87,-552 L -87.0237,-551.624 L -87.0943,-551.254 L -87.2107,-550.896 L -87.3711,-550.555
 L -87.573,-550.237 L -87.8131,-549.946 L -88.0877,-549.688 L -88.3925,-549.467 L -88.7227,-549.286 L -89.073,-549.147
 L -89.4379,-549.053 L -89.8116,-549.006 z
M -90.1884,-534.006 L -90.5621,-534.053 L -90.927,-534.147 L -91.2773,-534.286 L -91.6075,-534.467 L -91.9123,-534.688
 L -92.1869,-534.946 L -92.427,-535.237 L -92.6289,-535.555 L -92.7893,-535.896 L -92.9057,-536.254 L -92.9763,-536.624
 L -93,-537 L -92.9763,-537.376 L -92.9057,-537.746 L -92.7893,-538.104 L -92.6289,-538.445 L -92.427,-538.763
 L -92.1869,-539.054 L -91.9123,-539.312 L -91.6075,-539.533 L -91.2773,-539.714 L -90.927,-539.853 L -90.5621,-539.947
 L -90.1884,-539.994 L -89.8116,-539.994 L -89.4379,-539.947 L -89.073,-539.853 L -88.7227,-539.714 L -88.3925,-539.533
 L -88.0877,-539.312 L -87.8131,-539.054 L -87.573,-538.763 L -87.3711,-538.445 L -87.2107,-538.104 L -87.0943,-537.746
 L -87.0237,-537.376 L -87,-537 L -87.0237,-536.624 L -87.0943,-536.254 L -87.2107,-535.896 L -87.3711,-535.555
 L -87.573,-535.237 L -87.8131,-534.946 L -88.0877,-534.688 L -88.3925,-534.467 L -88.7227,-534.286 L -89.073,-534.147
 L -89.4379,-534.053 L -89.8116,-534.006 z
M 89.8116,-534.006 L 89.4379,-534.053 L 89.073,-534.147 L 88.7227,-534.286 L 88.3925,-534.467 L 88.0877,-534.688
 L 87.8131,-534.946 L 87.573,-535.237 L 87.3711,-535.555 L 87.2107,-535.896 L 87.0943,-536.254 L 87.0237,-536.624
 L 87,-537 L 87.0237,-537.376 L 87.0943,-537.746 L 87.2107,-538.104 L 87.3711,-538.445 L 87.573,-538.763
 L 87.8131,-539.054 L 88.0877,-539.312 L 88.3925,-539.533 L 88.7227,-539.714 L 89.073,-539.853 L 89.4379,-539.947
 L 89.8116,-539.994 L 90.1884,-539.994 L 90.5621,-539.947 L 90.927,-539.853 L 91.2773,-539.714 L 91.6075,-539.533
 L 91.9123,-539.312 L 92.1869,-539.054 L 92.427,-538.763 L 92.6289,-538.445 L 92.7893,-538.104 L 92.9057,-537.746
 L 92.9763,-537.376 L 93,-537 L 92.9763,-536.624 L 92.9057,-536.254 L 92.7893,-535.896 L 92.6289,-535.555
 L 92.427,-535.237 L 92.1869,-534.946 L 91.9123,-534.688 L 91.6075,-534.467 L 91.2773,-534.286 L 90.927,-534.147
 L 90.5621,-534.053 L 90.1884,-534.006 z
M 59.8116,-519.006 L 59.4379,-519.053 L 59.0729,-519.147 L 58.7227,-519.286 L 58.3925,-519.467 L 58.0877,-519.688
 L 57.8131,-519.946 L 57.5729,-520.237 L 57.3711,-520.555 L 57.2107,-520.896 L 57.0942,-521.254 L 57.0237,-521.624
 L 57,-522 L 57.0237,-522.376 L 57.0942,-522.746 L 57.2107,-523.104 L 57.3711,-523.445 L 57.5729,-523.763
 L 57.8131,-524.054 L 58.0877,-524.312 L 58.3925,-524.533 L 58.7227,-524.714 L 59.0729,-524.853 L 59.4379,-524.947
 L 59.8116,-524.994 L 60.1884,-524.994 L 60.5621,-524.947 L 60.927,-524.853 L 61.2773,-524.714 L 61.6075,-524.533
 L 61.9123,-524.312 L 62.1869,-524.054 L 62.427,-523.763 L 62.6289,-523.445 L 62.7893,-523.104 L 62.9057,-522.746
 L 62.9763,-522.376 L 63,-522 L 62.9763,-521.624 L 62.9057,-521.254 L 62.7893,-520.896 L 62.6289,-520.555
 L 62.427,-520.237 L 62.1869,-519.946 L 61.9123,-519.688 L 61.6075,-519.467 L 61.2773,-519.286 L 60.927,-519.147
 L 60.5621,-519.053 L 60.1884,-519.006 z
M -60.1884,-519.006 L -60.5621,-519.053 L -60.927,-519.147 L -61.2773,-519.286 L -61.6075,-519.467 L -61.9123,-519.688
 L -62.1869,-519.946 L -62.427,-520.237 L -62.6289,-520.555 L -62.7893,-520.896 L -62.9057,-521.254 L -62.9763,-521.624
 L -63,-522 L -62.9763,-522.376 L -62.9057,-522.746 L -62.7893,-523.104 L -62.6289,-523.445 L -62.427,-523.763
 L -62.1869,-524.054 L -61.9123,-524.312 L -61.6075,-524.533 L -61.2773,-524.714 L -60.927,-524.853 L -60.5621,-524.947
 L -60.1884,-524.994 L -59.8116,-524.994 L -59.4379,-524.947 L -59.0729,-524.853 L -58.7227,-524.714 L -58.3925,-524.533
 L -58.0877,-524.312 L -57.8131,-524.054 L -57.5729,-523.763 L -57.3711,-523.445 L -57.2107,-523.104 L -57.0942,-522.746
 L -57.0237,-522.376 L -57,-522 L -57.0237,-521.624 L -57.0942,-521.254 L -57.2107,-520.896 L -57.3711,-520.555
 L -57.5729,-520.237 L -57.8131,-519.946 L -58.0877,-519.688 L -58.3925,-519.467 L -58.7227,-519.286 L -59.0729,-519.147
 L -59.4379,-519.053 L -59.8116,-519.006 z
M 74.8116,-519.006 L 74.4379,-519.053 L 74.073,-519.147 L 73.7227,-519.286 L 73.3925,-519.467 L 73.0877,-519.688
 L 72.8131,-519.946 L 72.573,-520.237 L 72.3711,-520.555 L 72.2107,-520.896 L 72.0943,-521.254 L 72.0237,-521.624
 L 72,-522 L 72.0237,-522.376 L 72.0943,-522.746 L 72.2107,-523.104 L 72.3711,-523.445 L 72.573,-523.763
 L 72.8131,-524.054 L 73.0877,-524.312 L 73.3925,-524.533 L 73.7227,-524.714 L 74.073,-524.853 L 74.4379,-524.947
 L 74.8116,-524.994 L 75.1884,-524.994 L 75.5621,-524.947 L 75.927,-524.853 L 76.2773,-524.714 L 76.6075,-524.533
 L 76.9123,-524.312 L 77.1869,-524.054 L 77.427,-523.763 L 77.6289,-523.445 L 77.7893,-523.104 L 77.9057,-522.746
 L 77.9763,-522.376 L 78,-522 L 77.9763,-521.624 L 77.9057,-521.254 L 77.7893,-520.896 L 77.6289,-520.555
 L 77.427,-520.237 L 77.1869,-519.946 L 76.9123,-519.688 L 76.6075,-519.467 L 76.2773,-519.286 L 75.927,-519.147
 L 75.5621,-519.053 L 75.1884,-519.006 z
M -75.1884,-519.006 L -75.5621,-519.053 L -75.927,-519.147 L -76.2773,-519.286 L -76.6075,-519.467 L -76.9123,-519.688
 L -77.1869,-519.946 L -77.427,-520.237 L -77.6289,-520.555 L -77.7893,-520.896 L -77.9057,-521.254 L -77.9763,-521.624
 L -78,-522 L -77.9763,-522.376 L -77.9057,-522.746 L -77.7893,-523.104 L -77.6289,-523.445 L -77.427,-523.763
 L -77.1869,-524.054 L -76.9123,-524.312 L -76.6075,-524.533 L -76.2773,-524.714 L -75.927,-524.853 L -75.5621,-524.947
 L -75.1884,-524.994 L -74.8116,-524.994 L -74.4379,-524.947 L -74.073,-524.853 L -73.7227,-524.714 L -73.3925,-524.533
 L -73.0877,-524.312 L -72.8131,-524.054 L -72.573,-523.763 L -72.3711,-523.445 L -72.2107,-523.104 L -72.0943,-522.746
 L -72.0237,-522.376 L -72,-522 L -72.0237,-521.624 L -72.0943,-521.254 L -72.2107,-520.896 L -72.3711,-520.555
 L -72.573,-520.237 L -72.8131,-519.946 L -73.0877,-519.688 L -73.3925,-519.467 L -73.7227,-519.286 L -74.073,-519.147
 L -74.4379,-519.053 L -74.8116,-519.006 z
M 89.8116,-519.006 L 89.4379,-519.053 L 89.073,-519.147 L 88.7227,-519.286 L 88.3925,-519.467 L 88.0877,-519.688
 L 87.8131,-519.946 L 87.573,-520.237 L 87.3711,-520.555 L 87.2107,-520.896 L 87.0943,-521.254 L 87.0237,-521.624
 L 87,-522 L 87.0237,-522.376 L 87.0943,-522.746 L 87.2107,-523.104 L 87.3711,-523.445 L 87.573,-523.763
 L 87.8131,-524.054 L 88.0877,-524.312 L 88.3925,-524.533 L 88.7227,-524.714 L 89.073,-524.853 L 89.4379,-524.947
 L 89.8116,-524.994 L 90.1884,-524.994 L 90.5621,-524.947 L 90.927,-524.853 L 91.2773,-524.714 L 91.6075,-524.533
 L 91.9123,-524.312 L 92.1869,-524.054 L 92.427,-523.763 L 92.6289,-523.445 L 92.7893,-523.104 L 92.9057,-522.746
 L 92.9763,-522.376 L 93,-522 L 92.9763,-521.624 L 92.9057,-521.254 L 92.7893,-520.896 L 92.6289,-520.555
 L 92.427,-520.237 L 92.1869,-519.946 L 91.9123,-519.688 L 91.6075,-519.467 L 91.2773,-519.286 L 90.927,-519.147
 L 90.5621,-519.053 L 90.1884,-519.006 z
M 92.9369,-311.089 L 93.5451,-311.245 L 94.1289,-311.476 L 94.6791,-311.778 L 95.1871,-312.147 L 95.6448,-312.577
 L 96.0451,-313.061 L 96.3815,-313.591 L 96.6489,-314.159 L 96.8429,-314.757 L 96.9606,-315.373 L 97,-316
 L 97,-500 L 96.9606,-500.627 L 96.8429,-501.243 L 96.6489,-501.841 L 96.3815,-502.409 L 96.0451,-502.939
 L 95.6448,-503.423 L 95.1871,-503.853 L 94.6791,-504.222 L 94.1289,-504.524 L 93.5451,-504.755 L 92.9369,-504.911
 L 92.3139,-504.99 L -92.3139,-504.99 L -92.9369,-504.911 L -93.5451,-504.755 L -94.1289,-504.524 L -94.6791,-504.222
 L -95.1871,-503.853 L -95.6448,-503.423 L -96.0451,-502.939 L -96.3815,-502.409 L -96.6489,-501.841 L -96.8429,-501.243
 L -96.9606,-500.627 L -97,-500 L -97,-320.994 L -89.8116,-320.994 L -89.4379,-320.947 L -89.073,-320.853
 L -88.7227,-320.714 L -88.3925,-320.533 L -88.0877,-320.312 L -87.8131,-320.054 L -87.573,-319.763 L -87.3711,-319.445
 L -87.2107,-319.104 L -87.0943,-318.746 L -87.0237,-318.376 L -87,-318 L -87.0237,-317.624 L -87.0943,-317.254
 L -87.2107,-316.896 L -87.3711,-316.555 L -87.573,-316.237 L -87.8131,-315.946 L -88.0877,-315.688 L -88.3925,-315.467
 L -88.7227,-315.286 L -89.073,-315.147 L -89.4379,-315.053 L -89.8116,-315.006 L -96.8905,-315.006 L -96.8429,-314.757
 L -96.6489,-314.159 L -96.3815,-313.591 L -96.0451,-313.061 L -95.6448,-312.577 L -95.1871,-312.147 L -94.6791,-311.778
 L -94.1289,-311.476 L -93.5451,-311.245 L -92.9369,-311.089 L -92.3139,-311.01 L 92.3139,-311.01 z
M -75.1884,-495.006 L -75.5621,-495.053 L -75.927,-495.147 L -76.2773,-495.286 L -76.6075,-495.467 L -76.9123,-495.688
 L -77.1869,-495.946 L -77.427,-496.237 L -77.6289,-496.555 L -77.7893,-496.896 L -77.9057,-497.254 L -77.9763,-497.624
 L -78,-498 L -77.9763,-498.376 L -77.9057,-498.746 L -77.7893,-499.104 L -77.6289,-499.445 L -77.427,-499.763
 L -77.1869,-500.054 L -76.9123,-500.312 L -76.6075,-500.533 L -76.2773,-500.714 L -75.927,-500.853 L -75.5621,-500.947
 L -75.1884,-500.994 L -74.8116,-500.994 L -74.4379,-500.947 L -74.073,-500.853 L -73.7227,-500.714 L -73.3925,-500.533
 L -73.0877,-500.312 L -72.8131,-500.054 L -72.573,-499.763 L -72.3711,-499.445 L -72.2107,-499.104 L -72.0943,-498.746
 L -72.0237,-498.376 L -72,-498 L -72.0237,-497.624 L -72.0943,-497.254 L -72.2107,-496.896 L -72.3711,-496.555
 L -72.573,-496.237 L -72.8131,-495.946 L -73.0877,-495.688 L -73.3925,-495.467 L -73.7227,-495.286 L -74.073,-495.147
 L -74.4379,-495.053 L -74.8116,-495.006 z
M -60.1884,-495.006 L -60.5621,-495.053 L -60.927,-495.147 L -61.2773,-495.286 L -61.6075,-495.467 L -61.9123,-495.688
 L -62.1869,-495.946 L -62.427,-496.237 L -62.6289,-496.555 L -62.7893,-496.896 L -62.9057,-497.254 L -62.9763,-497.624
 L -63,-498 L -62.9763,-498.376 L -62.9057,-498.746 L -62.7893,-499.104 L -62.6289,-499.445 L -62.427,-499.763
 L -62.1869,-500.054 L -61.9123,-500.312 L -61.6075,-500.533 L -61.2773,-500.714 L -60.927,-500.853 L -60.5621,-500.947
 L -60.1884,-500.994 L -59.8116,-500.994 L -59.4379,-500.947 L -59.0729,-500.853 L -58.7227,-500.714 L -58.3925,-500.533
 L -58.0877,-500.312 L -57.8131,-500.054 L -57.5729,-499.763 L -57.3711,-499.445 L -57.2107,-499.104 L -57.0942,-498.746
 L -57.0237,-498.376 L -57,-498 L -57.0237,-497.624 L -57.0942,-497.254 L -57.2107,-496.896 L -57.3711,-496.555
 L -57.5729,-496.237 L -57.8131,-495.946 L -58.0877,-495.688 L -58.3925,-495.467 L -58.7227,-495.286 L -59.0729,-495.147
 L -59.4379,-495.053 L -59.8116,-495.006 z
M 89.8116,-480.006 L 89.4379,-480.053 L 89.073,-480.147 L 88.7227,-480.286 L 88.3925,-480.467 L 88.0877,-480.688
 L 87.8131,-480.946 L 87.573,-481.237 L 87.3711,-481.555 L 87.2107,-481.896 L 87.0943,-482.254 L 87.0237,-482.624
 L 87,-483 L 87.0237,-483.376 L 87.0943,-483.746 L 87.2107,-484.104 L 87.3711,-484.445 L 87.573,-484.763
 L 87.8131,-485.054 L 88.0877,-485.312 L 88.3925,-485.533 L 88.7227,-485.714 L 89.073,-485.853 L 89.4379,-485.947
 L 89.8116,-485.994 L 90.1884,-485.994 L 90.5621,-485.947 L 90.927,-485.853 L 91.2773,-485.714 L 91.6075,-485.533
 L 91.9123,-485.312 L 92.1869,-485.054 L 92.427,-484.763 L 92.6289,-484.445 L 92.7893,-484.104 L 92.9057,-483.746
 L 92.9763,-483.376 L 93,-483 L 92.9763,-482.624 L 92.9057,-482.254 L 92.7893,-481.896 L 92.6289,-481.555
 L 92.427,-481.237 L 92.1869,-480.946 L 91.9123,-480.688 L 91.6075,-480.467 L 91.2773,-480.286 L 90.927,-480.147
 L 90.5621,-480.053 L 90.1884,-480.006 z
M -90.1884,-480.006 L -90.5621,-480.053 L -90.927,-480.147 L -91.2773,-480.286 L -91.6075,-480.467 L -91.9123,-480.688
 L -92.1869,-480.946 L -92.427,-481.237 L -92.6289,-481.555 L -92.7893,-481.896 L -92.9057,-482.254 L -92.9763,-482.624
 L -93,-483 L -92.9763,-483.376 L -92.9057,-483.746 L -92.7893,-484.104 L -92.6289,-484.445 L -92.427,-484.763
 L -92.1869,-485.054 L -91.9123,-485.312 L -91.6075,-485.533 L -91.2773,-485.714 L -90.927,-485.853 L -90.5621,-485.947
 L -90.1884,-485.994 L -89.8116,-485.994 L -89.4379,-485.947 L -89.073,-485.853 L -88.7227,-485.714 L -88.3925,-485.533
 L -88.0877,-485.312 L -87.8131,-485.054 L -87.573,-484.763 L -87.3711,-484.445 L -87.2107,-484.104 L -87.0943,-483.746
 L -87.0237,-483.376 L -87,-483 L -87.0237,-482.624 L -87.0943,-482.254 L -87.2107,-481.896 L -87.3711,-481.555
 L -87.573,-481.237 L -87.8131,-480.946 L -88.0877,-480.688 L -88.3925,-480.467 L -88.7227,-480.286 L -89.073,-480.147
 L -89.4379,-480.053 L -89.8116,-480.006 z
M 89.8116,-465.006 L 89.4379,-465.053 L 89.073,-465.147 L 88.7227,-465.286 L 88.3925,-465.467 L 88.0877,-465.688
 L 87.8131,-465.946 L 87.573,-466.237 L 87.3711,-466.555 L 87.2107,-466.896 L 87.0943,-467.254 L 87.0237,-467.624
 L 87,-468 L 87.0237,-468.376 L 87.0943,-468.746 L 87.2107,-469.104 L 87.3711,-469.445 L 87.573,-469.763
 L 87.8131,-470.054 L 88.0877,-470.312 L 88.3925,-470.533 L 88.7227,-470.714 L 89.073,-470.853 L 89.4379,-470.947
 L 89.8116,-470.994 L 90.1884,-470.994 L 90.5621,-470.947 L 90.927,-470.853 L 91.2773,-470.714 L 91.6075,-470.533
 L 91.9123,-470.312 L 92.1869,-470.054 L 92.427,-469.763 L 92.6289,-469.445 L 92.7893,-469.104 L 92.9057,-468.746
 L 92.9763,-468.376 L 93,-468 L 92.9763,-467.624 L 92.9057,-467.254 L 92.7893,-466.896 L 92.6289,-466.555
 L 92.427,-466.237 L 92.1869,-465.946 L 91.9123,-465.688 L 91.6075,-465.467 L 91.2773,-465.286 L 90.927,-465.147
 L 90.5621,-465.053 L 90.1884,-465.006 z
M -90.1884,-465.006 L -90.5621,-465.053 L -90.927,-465.147 L -91.2773,-465.286 L -91.6075,-465.467 L -91.9123,-465.688
 L -92.1869,-465.946 L -92.427,-466.237 L -92.6289,-466.555 L -92.7893,-466.896 L -92.9057,-467.254 L -92.9763,-467.624
 L -93,-468 L -92.9763,-468.376 L -92.9057,-468.746 L -92.7893,-469.104 L -92.6289,-469.445 L -92.427,-469.763
 L -92.1869,-470.054 L -91.9123,-470.312 L -91.6075,-470.533 L -91.2773,-470.714 L -90.927,-470.853 L -90.5621,-470.947
 L -90.1884,-470.994 L -89.8116,-470.994 L -89.4379,-470.947 L -89.073,-470.853 L -88.7227,-470.714 L -88.3925,-470.533
 L -88.0877,-470.312 L -87.8131,-470.054 L -87.573,-469.763 L -87.3711,-469.445 L -87.2107,-469.104 L -87.0943,-468.746
 L -87.0237,-468.376 L -87,-468 L -87.0237,-467.624 L -87.0943,-467.254 L -87.2107,-466.896 L -87.3711,-466.555
 L -87.573,-466.237 L -87.8131,-465.946 L -88.0877,-465.688 L -88.3925,-465.467 L -88.7227,-465.286 L -89.073,-465.147
 L -89.4379,-465.053 L -89.8116,-465.006 z
M -0.408127,-401.513 L -1.21797,-401.615 L -2.00861,-401.818 L -2.76756,-402.119 L -3.48286,-402.512 L -4.14325,-402.992
 L -4.73828,-403.55 L -5.25861,-404.179 L -5.69598,-404.869 L -6.04353,-405.607 L -6.29578,-406.384 L -6.44873,-407.185
 L -6.5,-408 L -6.44873,-408.815 L -6.29578,-409.616 L -6.04353,-410.393 L -5.69598,-411.131 L -5.25861,-411.821
 L -4.73828,-412.45 L -4.14325,-413.008 L -3.48286,-413.488 L -2.76756,-413.881 L -2.00861,-414.182 L -1.21797,-414.385
 L -0.408127,-414.487 L 0.408127,-414.487 L 1.21797,-414.385 L 2.00861,-414.182 L 2.76756,-413.881 L 3.48286,-413.488
 L 4.14325,-413.008 L 4.73828,-412.45 L 5.25861,-411.821 L 5.69598,-411.131 L 6.04353,-410.393 L 6.29578,-409.616
 L 6.44873,-408.815 L 6.5,-408 L 6.44873,-407.185 L 6.29578,-406.384 L 6.04353,-405.607 L 5.69598,-404.869
 L 5.25861,-404.179 L 4.73828,-403.55 L 4.14325,-402.992 L 3.48286,-402.512 L 2.76756,-402.119 L 2.00861,-401.818
 L 1.21797,-401.615 L 0.408127,-401.513 z
M 89.8116,-345.006 L 89.4379,-345.053 L 89.073,-345.147 L 88.7227,-345.286 L 88.3925,-345.467 L 88.0877,-345.688
 L 87.8131,-345.946 L 87.573,-346.237 L 87.3711,-346.555 L 87.2107,-346.896 L 87.0943,-347.254 L 87.0237,-347.624
 L 87,-348 L 87.0237,-348.376 L 87.0943,-348.746 L 87.2107,-349.104 L 87.3711,-349.445 L 87.573,-349.763
 L 87.8131,-350.054 L 88.0877,-350.312 L 88.3925,-350.533 L 88.7227,-350.714 L 89.073,-350.853 L 89.4379,-350.947
 L 89.8116,-350.994 L 90.1884,-350.994 L 90.5621,-350.947 L 90.927,-350.853 L 91.2773,-350.714 L 91.6075,-350.533
 L 91.9123,-350.312 L 92.1869,-350.054 L 92.427,-349.763 L 92.6289,-349.445 L 92.7893,-349.104 L 92.9057,-348.746
 L 92.9763,-348.376 L 93,-348 L 92.9763,-347.624 L 92.9057,-347.254 L 92.7893,-346.896 L 92.6289,-346.555
 L 92.427,-346.237 L 92.1869,-345.946 L 91.9123,-345.688 L 91.6075,-345.467 L 91.2773,-345.286 L 90.927,-345.147
 L 90.5621,-345.053 L 90.1884,-345.006 z
M -90.1884,-345.006 L -90.5621,-345.053 L -90.927,-345.147 L -91.2773,-345.286 L -91.6075,-345.467 L -91.9123,-345.688
 L -92.1869,-345.946 L -92.427,-346.237 L -92.6289,-346.555 L -92.7893,-346.896 L -92.9057,-347.254 L -92.9763,-347.624
 L -93,-348 L -92.9763,-348.376 L -92.9057,-348.746 L -92.7893,-349.104 L -92.6289,-349.445 L -92.427,-349.763
 L -92.1869,-350.054 L -91.9123,-350.312 L -91.6075,-350.533 L -91.2773,-350.714 L -90.927,-350.853 L -90.5621,-350.947
 L -90.1884,-350.994 L -89.8116,-350.994 L -89.4379,-350.947 L -89.073,-350.853 L -88.7227,-350.714 L -88.3925,-350.533
 L -88.0877,-350.312 L -87.8131,-350.054 L -87.573,-349.763 L -87.3711,-349.445 L -87.2107,-349.104 L -87.0943,-348.746
 L -87.0237,-348.376 L -87,-348 L -87.0237,-347.624 L -87.0943,-347.254 L -87.2107,-346.896 L -87.3711,-346.555
 L -87.573,-346.237 L -87.8131,-345.946 L -88.0877,-345.688 L -88.3925,-345.467 L -88.7227,-345.286 L -89.073,-345.147
 L -89.4379,-345.053 L -89.8116,-345.006 z
M 89.8116,-330.006 L 89.4379,-330.053 L 89.073,-330.147 L 88.7227,-330.286 L 88.3925,-330.467 L 88.0877,-330.688
 L 87.8131,-330.946 L 87.573,-331.237 L 87.3711,-331.555 L 87.2107,-331.896 L 87.0943,-332.254 L 87.0237,-332.624
 L 87,-333 L 87.0237,-333.376 L 87.0943,-333.746 L 87.2107,-334.104 L 87.3711,-334.445 L 87.573,-334.763
 L 87.8131,-335.054 L 88.0877,-335.312 L 88.3925,-335.533 L 88.7227,-335.714 L 89.073,-335.853 L 89.4379,-335.947
 L 89.8116,-335.994 L 90.1884,-335.994 L 90.5621,-335.947 L 90.927,-335.853 L 91.2773,-335.714 L 91.6075,-335.533
 L 91.9123,-335.312 L 92.1869,-335.054 L 92.427,-334.763 L 92.6289,-334.445 L 92.7893,-334.104 L 92.9057,-333.746
 L 92.9763,-333.376 L 93,-333 L 92.9763,-332.624 L 92.9057,-332.254 L 92.7893,-331.896 L 92.6289,-331.555
 L 92.427,-331.237 L 92.1869,-330.946 L 91.9123,-330.688 L 91.6075,-330.467 L 91.2773,-330.286 L 90.927,-330.147
 L 90.5621,-330.053 L 90.1884,-330.006 z
M -90.1884,-330.006 L -90.5621,-330.053 L -90.927,-330.147 L -91.2773,-330.286 L -91.6075,-330.467 L -91.9123,-330.688
 L -92.1869,-330.946 L -92.427,-331.237 L -92.6289,-331.555 L -92.7893,-331.896 L -92.9057,-332.254 L -92.9763,-332.624
 L -93,-333 L -92.9763,-333.376 L -92.9057,-333.746 L -92.7893,-334.104 L -92.6289,-334.445 L -92.427,-334.763
 L -92.1869,-335.054 L -91.9123,-335.312 L -91.6075,-335.533 L -91.2773,-335.714 L -90.927,-335.853 L -90.5621,-335.947
 L -90.1884,-335.994 L -89.8116,-335.994 L -89.4379,-335.947 L -89.073,-335.853 L -88.7227,-335.714 L -88.3925,-335.533
 L -88.0877,-335.312 L -87.8131,-335.054 L -87.573,-334.763 L -87.3711,-334.445 L -87.2107,-334.104 L -87.0943,-333.746
 L -87.0237,-333.376 L -87,-333 L -87.0237,-332.624 L -87.0943,-332.254 L -87.2107,-331.896 L -87.3711,-331.555
 L -87.573,-331.237 L -87.8131,-330.946 L -88.0877,-330.688 L -88.3925,-330.467 L -88.7227,-330.286 L -89.073,-330.147
 L -89.4379,-330.053 L -89.8116,-330.006 z
M 89.8116,-315.006 L 89.4379,-315.053 L 89.073,-315.147 L 88.7227,-315.286 L 88.3925,-315.467 L 88.0877,-315.688
 L 87.8131,-315.946 L 87.573,-316.237 L 87.3711,-316.555 L 87.2107,-316.896 L 87.0943,-317.254 L 87.0237,-317.624
 L 87,-318 L 87.0237,-318.376 L 87.0943,-318.746 L 87.2107,-319.104 L 87.3711,-319.445 L 87.573,-319.763
 L 87.8131,-320.054 L 88.0877,-320.312 L 88.3925,-320.533 L 88.7227,-320.714 L 89.073,-320.853 L 89.4379,-320.947
 L 89.8116,-320.994 L 90.1884,-320.994 L 90.5621,-320.947 L 90.927,-320.853 L 91.2773,-320.714 L 91.6075,-320.533
 L 91.9123,-320.312 L 92.1869,-320.054 L 92.427,-319.763 L 92.6289,-319.445 L 92.7893,-319.104 L 92.9057,-318.746
 L 92.9763,-318.376 L 93,-318 L 92.9763,-317.624 L 92.9057,-317.254 L 92.7893,-316.896 L 92.6289,-316.555
 L 92.427,-316.237 L 92.1869,-315.946 L 91.9123,-315.688 L 91.6075,-315.467 L 91.2773,-315.286 L 90.927,-315.147
 L 90.5621,-315.053 L 90.1884,-315.006 z
M -60.1884,-315.006 L -60.5621,-315.053 L -60.927,-315.147 L -61.2773,-315.286 L -61.6075,-315.467 L -61.9123,-315.688
 L -62.1869,-315.946 L -62.427,-316.237 L -62.6289,-316.555 L -62.7893,-316.896 L -62.9057,-317.254 L -62.9763,-317.624
 L -63,-318 L -62.9763,-318.376 L -62.9057,-318.746 L -62.7893,-319.104 L -62.6289,-319.445 L -62.427,-319.763
 L -62.1869,-320.054 L -61.9123,-320.312 L -61.6075,-320.533 L -61.2773,-320.714 L -60.927,-320.853 L -60.5621,-320.947
 L -60.1884,-320.994 L -59.8116,-320.994 L -59.4379,-320.947 L -59.0729,-320.853 L -58.7227,-320.714 L -58.3925,-320.533
 L -58.0877,-320.312 L -57.8131,-320.054 L -57.5729,-319.763 L -57.3711,-319.445 L -57.2107,-319.104 L -57.0942,-318.746
 L -57.0237,-318.376 L -57,-318 L -57.0237,-317.624 L -57.0942,-317.254 L -57.2107,-316.896 L -57.3711,-316.555
 L -57.5729,-316.237 L -57.8131,-315.946 L -58.0877,-315.688 L -58.3925,-315.467 L -58.7227,-315.286 L -59.0729,-315.147
 L -59.4379,-315.053 L -59.8116,-315.006 z
M 74.8116,-315.006 L 74.4379,-315.053 L 74.073,-315.147 L 73.7227,-315.286 L 73.3925,-315.467 L 73.0877,-315.688
 L 72.8131,-315.946 L 72.573,-316.237 L 72.3711,-316.555 L 72.2107,-316.896 L 72.0943,-317.254 L 72.0237,-317.624
 L 72,-318 L 72.0237,-318.376 L 72.0943,-318.746 L 72.2107,-319.104 L 72.3711,-319.445 L 72.573,-319.763
 L 72.8131,-320.054 L 73.0877,-320.312 L 73.3925,-320.533 L 73.7227,-320.714 L 74.073,-320.853 L 74.4379,-320.947
 L 74.8116,-320.994 L 75.1884,-320.994 L 75.5621,-320.947 L 75.927,-320.853 L 76.2773,-320.714 L 76.6075,-320.533
 L 76.9123,-320.312 L 77.1869,-320.054 L 77.427,-319.763 L 77.6289,-319.445 L 77.7893,-319.104 L 77.9057,-318.746
 L 77.9763,-318.376 L 78,-318 L 77.9763,-317.624 L 77.9057,-317.254 L 77.7893,-316.896 L 77.6289,-316.555
 L 77.427,-316.237 L 77.1869,-315.946 L 76.9123,-315.688 L 76.6075,-315.467 L 76.2773,-315.286 L 75.927,-315.147
 L 75.5621,-315.053 L 75.1884,-315.006 z
M 59.8116,-315.006 L 59.4379,-315.053 L 59.0729,-315.147 L 58.7227,-315.286 L 58.3925,-315.467 L 58.0877,-315.688
 L 57.8131,-315.946 L 57.5729,-316.237 L 57.3711,-316.555 L 57.2107,-316.896 L 57.0942,-317.254 L 57.0237,-317.624
 L 57,-318 L 57.0237,-318.376 L 57.0942,-318.746 L 57.2107,-319.104 L 57.3711,-319.445 L 57.5729,-319.763
 L 57.8131,-320.054 L 58.0877,-320.312 L 58.3925,-320.533 L 58.7227,-320.714 L 59.0729,-320.853 L 59.4379,-320.947
 L 59.8116,-320.994 L 60.1884,-320.994 L 60.5621,-320.947 L 60.927,-320.853 L 61.2773,-320.714 L 61.6075,-320.533
 L 61.9123,-320.312 L 62.1869,-320.054 L 62.427,-319.763 L 62.6289,-319.445 L 62.7893,-319.104 L 62.9057,-318.746
 L 62.9763,-318.376 L 63,-318 L 62.9763,-317.624 L 62.9057,-317.254 L 62.7893,-316.896 L 62.6289,-316.555
 L 62.427,-316.237 L 62.1869,-315.946 L 61.9123,-315.688 L 61.6075,-315.467 L 61.2773,-315.286 L 60.927,-315.147
 L 60.5621,-315.053 L 60.1884,-315.006 z
M -75.1884,-315.006 L -75.5621,-315.053 L -75.927,-315.147 L -76.2773,-315.286 L -76.6075,-315.467 L -76.9123,-315.688
 L -77.1869,-315.946 L -77.427,-316.237 L -77.6289,-316.555 L -77.7893,-316.896 L -77.9057,-317.254 L -77.9763,-317.624
 L -78,-318 L -77.9763,-318.376 L -77.9057,-318.746 L -77.7893,-319.104 L -77.6289,-319.445 L -77.427,-319.763
 L -77.1869,-320.054 L -76.9123,-320.312 L -76.6075,-320.533 L -76.2773,-320.714 L -75.927,-320.853 L -75.5621,-320.947
 L -75.1884,-320.994 L -74.8116,-320.994 L -74.4379,-320.947 L -74.073,-320.853 L -73.7227,-320.714 L -73.3925,-320.533
 L -73.0877,-320.312 L -72.8131,-320.054 L -72.573,-319.763 L -72.3711,-319.445 L -72.2107,-319.104 L -72.0943,-318.746
 L -72.0237,-318.376 L -72,-318 L -72.0237,-317.624 L -72.0943,-317.254 L -72.2107,-316.896 L -72.3711,-316.555
 L -72.573,-316.237 L -72.8131,-315.946 L -73.0877,-315.688 L -73.3925,-315.467 L -73.7227,-315.286 L -74.073,-315.147
 L -74.4379,-315.053 L -74.8116,-315.006 z
" stroke="black" fill="lightgray" stroke-width="0.5"/>
</svg>
