<?xml version="1.0" standalone="no"?>
<!DOCTYPE svg PUBLIC "-//W3C//DTD SVG 1.1//EN" "http://www.w3.org/Graphics/SVG/1.1/DTD/svg11.dtd">
<svg width="30mm" height="486mm" viewBox="-15 -936 30 486" xmlns="http://www.w3.org/2000/svg" version="1.1">
<title>OpenSCAD Model</title>
<path d="
M 10.9369,-846.089 L 11.5451,-846.245 L 12.1289,-846.476 L 12.6791,-846.778 L 13.1871,-847.147 L 13.6448,-847.577
 L 14.0451,-848.061 L 14.3815,-848.591 L 14.6489,-849.159 L 14.8429,-849.757 L 14.9606,-850.373 L 15,-851
 L 15,-931 L 14.9606,-931.627 L 14.8429,-932.243 L 14.6489,-932.841 L 14.3815,-933.409 L 14.0451,-933.939
 L 13.6448,-934.423 L 13.1871,-934.853 L 12.6791,-935.222 L 12.1289,-935.524 L 11.5451,-935.755 L 10.9369,-935.911
 L 10.3139,-935.99 L -10.3139,-935.99 L -10.9369,-935.911 L -11.5451,-935.755 L -12.1289,-935.524 L -12.6791,-935.222
 L -13.1871,-934.853 L -13.6448,-934.423 L -14.0451,-933.939 L -14.3815,-933.409 L -14.6489,-932.841 L -14.8429,-932.243
 L -14.9606,-931.627 L -15,-931 L -15,-851 L -14.9606,-850.373 L -14.8429,-849.757 L -14.6489,-849.159
 L -14.3815,-848.591 L -14.0451,-848.061 L -13.6448,-847.577 L -13.1871,-847.147 L -12.6791,-846.778 L -12.1289,-846.476
 L -11.5451,-846.245 L -10.9369,-846.089 L -10.3139,-846.01 L 10.3139,-846.01 z
M -9.75116,-847.508 L -10.2495,-847.571 L -10.7361,-847.696 L -11.2031,-847.881 L -11.6433,-848.123 L -12.0497,-848.418
 L -12.4159,-848.762 L -12.7361,-849.149 L -13.0052,-849.573 L -13.2191,-850.028 L -13.3743,-850.505 L -13.4684,-850.999
 L -13.5,-851.5 L -13.5,-930.5 L -13.4684,-931.001 L -13.3743,-931.495 L -13.2191,-931.972 L -13.0052,-932.427
 L -12.7361,-932.851 L -12.4159,-933.238 L -12.0497,-933.582 L -11.6433,-933.877 L -11.2031,-934.119 L -10.7361,-934.304
 L -10.2495,-934.429 L -9.75116,-934.492 L 9.75116,-934.492 L 10.2495,-934.429 L 10.7361,-934.304 L 11.2031,-934.119
 L 11.6433,-933.877 L 12.0497,-933.582 L 12.4159,-933.238 L 12.7361,-932.851 L 13.0052,-932.427 L 13.2191,-931.972
 L 13.3743,-931.495 L 13.4684,-931.001 L 13.5,-930.5 L 13.5,-851.5 L 13.4684,-850.999 L 13.3743,-850.505
 L 13.2191,-850.028 L 13.0052,-849.573 L 12.7361,-849.149 L 12.4159,-848.762 L 12.0497,-848.418 L 11.6433,-848.123
 L 11.2031,-847.881 L 10.7361,-847.696 L 10.2495,-847.571 L 9.75116,-847.508 z
M 10.9369,-747.089 L 11.5451,-747.245 L 12.1289,-747.476 L 12.6791,-747.778 L 13.1871,-748.147 L 13.6448,-748.577
 L 14.0451,-749.061 L 14.3815,-749.591 L 14.6489,-750.159 L 14.8429,-750.757 L 14.9606,-751.373 L 15,-752
 L 15,-832 L 14.9606,-832.627 L 14.8429,-833.243 L 14.6489,-833.841 L 14.3815,-834.409 L 14.0451,-834.939
 L 13.6448,-835.423 L 13.1871,-835.853 L 12.6791,-836.222 L 12.1289,-836.524 L 11.5451,-836.755 L 10.9369,-836.911
 L 10.3139,-836.99 L -10.3139,-836.99 L -10.9369,-836.911 L -11.5451,-836.755 L -12.1289,-836.524 L -12.6791,-836.222
 L -13.1871,-835.853 L -13.6448,-835.423 L -14.0451,-834.939 L -14.3815,-834.409 L -14.6489,-833.841 L -14.8429,-833.243
 L -14.9606,-832.627 L -15,-832 L -15,-752 L -14.9606,-751.373 L -14.8429,-750.757 L -14.6489,-750.159
 L -14.3815,-749.591 L -14.0451,-749.061 L -13.6448,-748.577 L -13.1871,-748.147 L -12.6791,-747.778 L -12.1289,-747.476
 L -11.5451,-747.245 L -10.9369,-747.089 L -10.3139,-747.01 L 10.3139,-747.01 z
M -9.75116,-748.508 L -10.2495,-748.571 L -10.7361,-748.696 L -11.2031,-748.881 L -11.6433,-749.123 L -12.0497,-749.418
 L -12.4159,-749.762 L -12.7361,-750.149 L -13.0052,-750.573 L -13.2191,-751.028 L -13.3743,-751.505 L -13.4684,-751.999
 L -13.5,-752.5 L -13.5,-831.5 L -13.4684,-832.001 L -13.3743,-832.495 L -13.2191,-832.972 L -13.0052,-833.427
 L -12.7361,-833.851 L -12.4159,-834.238 L -12.0497,-834.582 L -11.6433,-834.877 L -11.2031,-835.119 L -10.7361,-835.304
 L -10.2495,-835.429 L -9.75116,-835.492 L 9.75116,-835.492 L 10.2495,-835.429 L 10.7361,-835.304 L 11.2031,-835.119
 L 11.6433,-834.877 L 12.0497,-834.582 L 12.4159,-834.238 L 12.7361,-833.851 L 13.0052,-833.427 L 13.2191,-832.972
 L 13.3743,-832.495 L 13.4684,-832.001 L 13.5,-831.5 L 13.5,-752.5 L 13.4684,-751.999 L 13.3743,-751.505
 L 13.2191,-751.028 L 13.0052,-750.573 L 12.7361,-750.149 L 12.4159,-749.762 L 12.0497,-749.418 L 11.6433,-749.123
 L 11.2031,-748.881 L 10.7361,-748.696 L 10.2495,-748.571 L 9.75116,-748.508 z
M 10.9369,-648.089 L 11.5451,-648.245 L 12.1289,-648.476 L 12.6791,-648.778 L 13.1871,-649.147 L 13.6448,-649.577
 L 14.0451,-650.061 L 14.3815,-650.591 L 14.6489,-651.159 L 14.8429,-651.757 L 14.9606,-652.373 L 15,-653
 L 15,-733 L 14.9606,-733.627 L 14.8429,-734.243 L 14.6489,-734.841 L 14.3815,-735.409 L 14.0451,-735.939
 L 13.6448,-736.423 L 13.1871,-736.853 L 12.6791,-737.222 L 12.1289,-737.524 L 11.5451,-737.755 L 10.9369,-737.911
 L 10.3139,-737.99 L -10.3139,-737.99 L -10.9369,-737.911 L -11.5451,-737.755 L -12.1289,-737.524 L -12.6791,-737.222
 L -13.1871,-736.853 L -13.6448,-736.423 L -14.0451,-735.939 L -14.3815,-735.409 L -14.6489,-734.841 L -14.8429,-734.243
 L -14.9606,-733.627 L -15,-733 L -15,-653 L -14.9606,-652.373 L -14.8429,-651.757 L -14.6489,-651.159
 L -14.3815,-650.591 L -14.0451,-650.061 L -13.6448,-649.577 L -13.1871,-649.147 L -12.6791,-648.778 L -12.1289,-648.476
 L -11.5451,-648.245 L -10.9369,-648.089 L -10.3139,-648.01 L 10.3139,-648.01 z
M -9.75116,-649.508 L -10.2495,-649.571 L -10.7361,-649.696 L -11.2031,-649.881 L -11.6433,-650.123 L -12.0497,-650.418
 L -12.4159,-650.762 L -12.7361,-651.149 L -13.0052,-651.573 L -13.2191,-652.028 L -13.3743,-652.505 L -13.4684,-652.999
 L -13.5,-653.5 L -13.5,-732.5 L -13.4684,-733.001 L -13.3743,-733.495 L -13.2191,-733.972 L -13.0052,-734.427
 L -12.7361,-734.851 L -12.4159,-735.238 L -12.0497,-735.582 L -11.6433,-735.877 L -11.2031,-736.119 L -10.7361,-736.304
 L -10.2495,-736.429 L -9.75116,-736.492 L 9.75116,-736.492 L 10.2495,-736.429 L 10.7361,-736.304 L 11.2031,-736.119
 L 11.6433,-735.877 L 12.0497,-735.582 L 12.4159,-735.238 L 12.7361,-734.851 L 13.0052,-734.427 L 13.2191,-733.972
 L 13.3743,-733.495 L 13.4684,-733.001 L 13.5,-732.5 L 13.5,-653.5 L 13.4684,-652.999 L 13.3743,-652.505
 L 13.2191,-652.028 L 13.0052,-651.573 L 12.7361,-651.149 L 12.4159,-650.762 L 12.0497,-650.418 L 11.6433,-650.123
 L 11.2031,-649.881 L 10.7361,-649.696 L 10.2495,-649.571 L 9.75116,-649.508 z
M 10.9369,-549.089 L 11.5451,-549.245 L 12.1289,-549.476 L 12.6791,-549.778 L 13.1871,-550.147 L 13.6448,-550.577
 L 14.0451,-551.061 L 14.3815,-551.591 L 14.6489,-552.159 L 14.8429,-552.757 L 14.9606,-553.373 L 15,-554
 L 15,-634 L 14.9606,-634.627 L 14.8429,-635.243 L 14.6489,-635.841 L 14.3815,-636.409 L 14.0451,-636.939
 L 13.6448,-637.423 L 13.1871,-637.853 L 12.6791,-638.222 L 12.1289,-638.524 L 11.5451,-638.755 L 10.9369,-638.911
 L 10.3139,-638.99 L -10.3139,-638.99 L -10.9369,-638.911 L -11.5451,-638.755 L -12.1289,-638.524 L -12.6791,-638.222
 L -13.1871,-637.853 L -13.6448,-637.423 L -14.0451,-636.939 L -14.3815,-636.409 L -14.6489,-635.841 L -14.8429,-635.243
 L -14.9606,-634.627 L -15,-634 L -15,-554 L -14.9606,-553.373 L -14.8429,-552.757 L -14.6489,-552.159
 L -14.3815,-551.591 L -14.0451,-551.061 L -13.6448,-550.577 L -13.1871,-550.147 L -12.6791,-549.778 L -12.1289,-549.476
 L -11.5451,-549.245 L -10.9369,-549.089 L -10.3139,-549.01 L 10.3139,-549.01 z
M -9.69545,-551.393 L -10.0833,-551.442 L -10.4619,-551.539 L -10.8254,-551.683 L -11.168,-551.872 L -11.4842,-552.101
 L -11.7692,-552.369 L -12.0184,-552.67 L -12.2279,-553 L -12.3943,-553.354 L -12.5151,-553.726 L -12.5884,-554.11
 L -12.6129,-554.5 L -12.6129,-633.5 L -12.5884,-633.89 L -12.5151,-634.274 L -12.3943,-634.646 L -12.2279,-635
 L -12.0184,-635.33 L -11.7692,-635.631 L -11.4842,-635.899 L -11.168,-636.128 L -10.8254,-636.317 L -10.4619,-636.461
 L -10.0833,-636.558 L -9.69545,-636.607 L 9.69545,-636.607 L 10.0833,-636.558 L 10.4619,-636.461 L 10.8254,-636.317
 L 11.168,-636.128 L 11.4842,-635.899 L 11.7692,-635.631 L 12.0184,-635.33 L 12.2279,-635 L 12.3943,-634.646
 L 12.5151,-634.274 L 12.5884,-633.89 L 12.6129,-633.5 L 12.6129,-554.5 L 12.5884,-554.11 L 12.5151,-553.726
 L 12.3943,-553.354 L 12.2279,-553 L 12.0184,-552.67 L 11.7692,-552.369 L 11.4842,-552.101 L 11.168,-551.872
 L 10.8254,-551.683 L 10.4619,-551.539 L 10.0833,-551.442 L 9.69545,-551.393 z
M 10.9369,-450.089 L 11.5451,-450.245 L 12.1289,-450.476 L 12.6791,-450.778 L 13.1871,-451.147 L 13.6448,-451.577
 L 14.0451,-452.061 L 14.3815,-452.591 L 14.6489,-453.159 L 14.8429,-453.757 L 14.9606,-454.373 L 15,-455
 L 15,-535 L 14.9606,-535.627 L 14.8429,-536.243 L 14.6489,-536.841 L 14.3815,-537.409 L 14.0451,-537.939
 L 13.6448,-538.423 L 13.1871,-538.853 L 12.6791,-539.222 L 12.1289,-539.524 L 11.5451,-539.755 L 10.9369,-539.911
 L 10.3139,-539.99 L -10.3139,-539.99 L -10.9369,-539.911 L -11.5451,-539.755 L -12.1289,-539.524 L -12.6791,-539.222
 L -13.1871,-538.853 L -13.6448,-538.423 L -14.0451,-537.939 L -14.3815,-537.409 L -14.6489,-536.841 L -14.8429,-536.243
 L -14.9606,-535.627 L -15,-535 L -15,-455 L -14.9606,-454.373 L -14.8429,-453.757 L -14.6489,-453.159
 L -14.3815,-452.591 L -14.0451,-452.061 L -13.6448,-451.577 L -13.1871,-451.147 L -12.6791,-450.778 L -12.1289,-450.476
 L -11.5451,-450.245 L -10.9369,-450.089 L -10.3139,-450.01 L 10.3139,-450.01 z
M 7.36592,-530.369 L 7.09988,-530.403 L 6.84015,-530.469 L 6.59084,-530.568 L 6.35585,-530.697 L 6.1389,-530.855
 L 5.94344,-531.038 L 5.77251,-531.245 L 5.62881,-531.471 L 5.51465,-531.714 L 5.43178,-531.969 L 5.38153,-532.232
 L 5.3647,-532.5 L 5.38153,-532.768 L 5.43178,-533.031 L 5.51465,-533.286 L 5.62881,-533.529 L 5.77251,-533.755
 L 5.94344,-533.962 L 6.1389,-534.145 L 6.35585,-534.303 L 6.59084,-534.432 L 6.84015,-534.531 L 7.09988,-534.597
 L 7.36592,-534.631 L 7.63406,-534.631 L 7.9001,-534.597 L 8.15984,-534.531 L 8.40915,-534.432 L 8.64413,-534.303
 L 8.86108,-534.145 L 9.05655,-533.962 L 9.22748,-533.755 L 9.37117,-533.529 L 9.48534,-533.286 L 9.56821,-533.031
 L 9.61845,-532.768 L 9.63528,-532.5 L 9.61845,-532.232 L 9.56821,-531.969 L 9.48534,-531.714 L 9.37117,-531.471
 L 9.22748,-531.245 L 9.05655,-531.038 L 8.86108,-530.855 L 8.64413,-530.697 L 8.40915,-530.568 L 8.15984,-530.469
 L 7.9001,-530.403 L 7.63406,-530.369 z
M -7.63406,-530.369 L -7.9001,-530.403 L -8.15984,-530.469 L -8.40915,-530.568 L -8.64413,-530.697 L -8.86108,-530.855
 L -9.05655,-531.038 L -9.22748,-531.245 L -9.37117,-531.471 L -9.48534,-531.714 L -9.56821,-531.969 L -9.61845,-532.232
 L -9.63528,-532.5 L -9.61845,-532.768 L -9.56821,-533.031 L -9.48534,-533.286 L -9.37117,-533.529 L -9.22748,-533.755
 L -9.05655,-533.962 L -8.86108,-534.145 L -8.64413,-534.303 L -8.40915,-534.432 L -8.15984,-534.531 L -7.9001,-534.597
 L -7.63406,-534.631 L -7.36592,-534.631 L -7.09988,-534.597 L -6.84015,-534.531 L -6.59084,-534.432 L -6.35585,-534.303
 L -6.1389,-534.145 L -5.94344,-533.962 L -5.77251,-533.755 L -5.62881,-533.529 L -5.51465,-533.286 L -5.43178,-533.031
 L -5.38153,-532.768 L -5.3647,-532.5 L -5.38153,-532.232 L -5.43178,-531.969 L -5.51465,-531.714 L -5.62881,-531.471
 L -5.77251,-531.245 L -5.94344,-531.038 L -6.1389,-530.855 L -6.35585,-530.697 L -6.59084,-530.568 L -6.84015,-530.469
 L -7.09988,-530.403 L -7.36592,-530.369 z
M 7.36592,-455.369 L 7.09988,-455.403 L 6.84015,-455.469 L 6.59084,-455.568 L 6.35585,-455.697 L 6.1389,-455.855
 L 5.94344,-456.038 L 5.77251,-456.245 L 5.62881,-456.471 L 5.51465,-456.714 L 5.43178,-456.969 L 5.38153,-457.232
 L 5.3647,-457.5 L 5.38153,-457.768 L 5.43178,-458.031 L 5.51465,-458.286 L 5.62881,-458.529 L 5.77251,-458.755
 L 5.94344,-458.962 L 6.1389,-459.145 L 6.35585,-459.303 L 6.59084,-459.432 L 6.84015,-459.531 L 7.09988,-459.597
 L 7.36592,-459.631 L 7.63406,-459.631 L 7.9001,-459.597 L 8.15984,-459.531 L 8.40915,-459.432 L 8.64413,-459.303
 L 8.86108,-459.145 L 9.05655,-458.962 L 9.22748,-458.755 L 9.37117,-458.529 L 9.48534,-458.286 L 9.56821,-458.031
 L 9.61845,-457.768 L 9.63528,-457.5 L 9.61845,-457.232 L 9.56821,-456.969 L 9.48534,-456.714 L 9.37117,-456.471
 L 9.22748,-456.245 L 9.05655,-456.038 L 8.86108,-455.855 L 8.64413,-455.697 L 8.40915,-455.568 L 8.15984,-455.469
 L 7.9001,-455.403 L 7.63406,-455.369 z
M -7.63406,-455.369 L -7.9001,-455.403 L -8.15984,-455.469 L -8.40915,-455.568 L -8.64413,-455.697 L -8.86108,-455.855
 L -9.05655,-456.038 L -9.22748,-456.245 L -9.37117,-456.471 L -9.48534,-456.714 L -9.56821,-456.969 L -9.61845,-457.232
 L -9.63528,-457.5 L -9.61845,-457.768 L -9.56821,-458.031 L -9.48534,-458.286 L -9.37117,-458.529 L -9.22748,-458.755
 L -9.05655,-458.962 L -8.86108,-459.145 L -8.64413,-459.303 L -8.40915,-459.432 L -8.15984,-459.531 L -7.9001,-459.597
 L -7.63406,-459.631 L -7.36592,-459.631 L -7.09988,-459.597 L -6.84015,-459.531 L -6.59084,-459.432 L -6.35585,-459.303
 L -6.1389,-459.145 L -5.94344,-458.962 L -5.77251,-458.755 L -5.62881,-458.529 L -5.51465,-458.286 L -5.43178,-458.031
 L -5.38153,-457.768 L -5.3647,-457.5 L -5.38153,-457.232 L -5.43178,-456.969 L -5.51465,-456.714 L -5.62881,-456.471
 L -5.77251,-456.245 L -5.94344,-456.038 L -6.1389,-455.855 L -6.35585,-455.697 L -6.59084,-455.568 L -6.84015,-455.469
 L -7.09988,-455.403 L -7.36592,-455.369 z
" stroke="black" fill="lightgray" stroke-width="0.5"/>
</svg>
