<?xml version="1.0" standalone="no"?>
<!DOCTYPE svg PUBLIC "-//W3C//DTD SVG 1.1//EN" "http://www.w3.org/Graphics/SVG/1.1/DTD/svg11.dtd">
<svg width="150mm" height="64mm" viewBox="-75 -104 150 64" xmlns="http://www.w3.org/2000/svg" version="1.1">
<title>OpenSCAD Model</title>
<path d="
M 70.9369,-88.5886 L 71.5451,-88.7447 L 72.1289,-88.9759 L 72.6791,-89.2784 L 73.1871,-89.6474 L 73.6448,-90.0773
 L 74.0451,-90.5611 L 74.3815,-91.0912 L 74.6489,-91.6594 L 74.8429,-92.2566 L 74.9606,-92.8733 L 75,-93.5
 L 75,-98.5 L 74.9606,-99.1267 L 74.8429,-99.7434 L 74.6489,-100.341 L 74.3815,-100.909 L 74.0451,-101.439
 L 73.6448,-101.923 L 73.1871,-102.353 L 72.6791,-102.722 L 72.1289,-103.024 L 71.5451,-103.255 L 70.9369,-103.411
 L 70.3139,-103.49 L -70.3139,-103.49 L -70.9369,-103.411 L -71.5451,-103.255 L -72.1289,-103.024 L -72.6791,-102.722
 L -73.1871,-102.353 L -73.6448,-101.923 L -74.0451,-101.439 L -74.3815,-100.909 L -74.6489,-100.341 L -74.8429,-99.7434
 L -74.9606,-99.1267 L -75,-98.5 L -75,-93.5 L -74.9606,-92.8733 L -74.8429,-92.2566 L -74.6489,-91.6594
 L -74.3815,-91.0912 L -74.0451,-90.5611 L -73.6448,-90.0773 L -73.1871,-89.6474 L -72.6791,-89.2784 L -72.1289,-88.9759
 L -71.5451,-88.7447 L -70.9369,-88.5886 L -70.3139,-88.5099 L 70.3139,-88.5099 z
M -70.0482,-89.0094 L -70.6401,-89.0841 L -71.2178,-89.2325 L -71.7724,-89.4521 L -72.2952,-89.7395 L -72.7778,-90.0901
 L -73.2126,-90.4984 L -73.5928,-90.958 L -73.9125,-91.4617 L -74.1664,-92.0014 L -74.3508,-92.5687 L -74.4625,-93.1547
 L -74.5,-93.75 L -74.5,-98.25 L -74.4625,-98.8453 L -74.3508,-99.4313 L -74.1664,-99.9986 L -73.9125,-100.538
 L -73.5928,-101.042 L -73.2126,-101.502 L -72.7778,-101.91 L -72.2952,-102.261 L -71.7724,-102.548 L -71.2178,-102.768
 L -70.6401,-102.916 L -70.0482,-102.991 L 70.0482,-102.991 L 70.6401,-102.916 L 71.2178,-102.768 L 71.7724,-102.548
 L 72.2952,-102.261 L 72.7778,-101.91 L 73.2126,-101.502 L 73.5928,-101.042 L 73.9125,-100.538 L 74.1664,-99.9986
 L 74.3508,-99.4313 L 74.4625,-98.8453 L 74.5,-98.25 L 74.5,-93.75 L 74.4625,-93.1547 L 74.3508,-92.5687
 L 74.1664,-92.0014 L 73.9125,-91.4617 L 73.5928,-90.958 L 73.2126,-90.4984 L 72.7778,-90.0901 L 72.2952,-89.7395
 L 71.7724,-89.4521 L 71.2178,-89.2325 L 70.6401,-89.0841 L 70.0482,-89.0094 z
M 70.9369,-64.5886 L 71.5451,-64.7447 L 72.1289,-64.9759 L 72.6791,-65.2784 L 73.1871,-65.6474 L 73.6448,-66.0773
 L 74.0451,-66.5611 L 74.3815,-67.0912 L 74.6489,-67.6594 L 74.8429,-68.2566 L 74.9606,-68.8733 L 75,-69.5
 L 75,-74.5 L 74.9606,-75.1267 L 74.8429,-75.7434 L 74.6489,-76.3406 L 74.3815,-76.9088 L 74.0451,-77.4389
 L 73.6448,-77.9227 L 73.1871,-78.3526 L 72.6791,-78.7216 L 72.1289,-79.0241 L 71.5451,-79.2553 L 70.9369,-79.4114
 L 70.3139,-79.4901 L -70.3139,-79.4901 L -70.9369,-79.4114 L -71.5451,-79.2553 L -72.1289,-79.0241 L -72.6791,-78.7216
 L -73.1871,-78.3526 L -73.6448,-77.9227 L -74.0451,-77.4389 L -74.3815,-76.9088 L -74.6489,-76.3406 L -74.8429,-75.7434
 L -74.9606,-75.1267 L -75,-74.5 L -75,-69.5 L -74.9606,-68.8733 L -74.8429,-68.2566 L -74.6489,-67.6594
 L -74.3815,-67.0912 L -74.0451,-66.5611 L -73.6448,-66.0773 L -73.1871,-65.6474 L -72.6791,-65.2784 L -72.1289,-64.9759
 L -71.5451,-64.7447 L -70.9369,-64.5886 L -70.3139,-64.5099 L 70.3139,-64.5099 z
M -69.993,-65.8882 L -70.4751,-65.9491 L -70.9457,-66.0699 L -71.3975,-66.2488 L -71.8234,-66.4829 L -72.2165,-66.7685
 L -72.5707,-67.1012 L -72.8805,-67.4756 L -73.1408,-67.8859 L -73.3477,-68.3256 L -73.4979,-68.7877 L -73.589,-69.265
 L -73.6195,-69.75 L -73.6195,-74.25 L -73.589,-74.735 L -73.4979,-75.2123 L -73.3477,-75.6744 L -73.1408,-76.1141
 L -72.8805,-76.5244 L -72.5707,-76.8988 L -72.2165,-77.2315 L -71.8234,-77.5171 L -71.3975,-77.7512 L -70.9457,-77.9301
 L -70.4751,-78.0509 L -69.993,-78.1118 L 69.993,-78.1118 L 70.4751,-78.0509 L 70.9457,-77.9301 L 71.3975,-77.7512
 L 71.8234,-77.5171 L 72.2165,-77.2315 L 72.5707,-76.8988 L 72.8805,-76.5244 L 73.1408,-76.1141 L 73.3477,-75.6744
 L 73.4979,-75.2123 L 73.589,-74.735 L 73.6195,-74.25 L 73.6195,-69.75 L 73.589,-69.265 L 73.4979,-68.7877
 L 73.3477,-68.3256 L 73.1408,-67.8859 L 72.8805,-67.4756 L 72.5707,-67.1012 L 72.2165,-66.7685 L 71.8234,-66.4829
 L 71.3975,-66.2488 L 70.9457,-66.0699 L 70.4751,-65.9491 L 69.993,-65.8882 z
M 70.9369,-40.5886 L 71.5451,-40.7447 L 72.1289,-40.9759 L 72.6791,-41.2784 L 73.1871,-41.6474 L 73.6448,-42.0773
 L 74.0451,-42.5611 L 74.3815,-43.0912 L 74.6489,-43.6594 L 74.8429,-44.2566 L 74.9606,-44.8733 L 75,-45.5
 L 75,-50.5 L 74.9606,-51.1267 L 74.8429,-51.7434 L 74.6489,-52.3406 L 74.3815,-52.9088 L 74.0451,-53.4389
 L 73.6448,-53.9227 L 73.1871,-54.3526 L 72.6791,-54.7216 L 72.1289,-55.0241 L 71.5451,-55.2553 L 70.9369,-55.4114
 L 70.3139,-55.4901 L -70.3139,-55.4901 L -70.9369,-55.4114 L -71.5451,-55.2553 L -72.1289,-55.0241 L -72.6791,-54.7216
 L -73.1871,-54.3526 L -73.6448,-53.9227 L -74.0451,-53.4389 L -74.3815,-52.9088 L -74.6489,-52.3406 L -74.8429,-51.7434
 L -74.9606,-51.1267 L -75,-50.5 L -75,-45.5 L -74.9606,-44.8733 L -74.8429,-44.2566 L -74.6489,-43.6594
 L -74.3815,-43.0912 L -74.0451,-42.5611 L -73.6448,-42.0773 L -73.1871,-41.6474 L -72.6791,-41.2784 L -72.1289,-40.9759
 L -71.5451,-40.7447 L -70.9369,-40.5886 L -70.3139,-40.5099 L 70.3139,-40.5099 z
M -67.613,-46.2036 L -67.8373,-46.2319 L -68.0562,-46.2881 L -68.2664,-46.3713 L -68.4645,-46.4802 L -68.6474,-46.6131
 L -68.8121,-46.7678 L -68.9562,-46.942 L -69.0773,-47.1329 L -69.1736,-47.3374 L -69.2434,-47.5524 L -69.2858,-47.7744
 L -69.3,-48 L -69.2858,-48.2256 L -69.2434,-48.4476 L -69.1736,-48.6626 L -69.0773,-48.8671 L -68.9562,-49.058
 L -68.8121,-49.2322 L -68.6474,-49.3869 L -68.4645,-49.5198 L -68.2664,-49.6287 L -68.0562,-49.7119 L -67.8373,-49.7681
 L -67.613,-49.7964 L -67.387,-49.7964 L -67.1627,-49.7681 L -66.9438,-49.7119 L -66.7336,-49.6287 L -66.5355,-49.5198
 L -66.3526,-49.3869 L -66.1879,-49.2322 L -66.0438,-49.058 L -65.9226,-48.8671 L -65.8264,-48.6626 L -65.7565,-48.4476
 L -65.7142,-48.2256 L -65.7,-48 L -65.7142,-47.7744 L -65.7565,-47.5524 L -65.8264,-47.3374 L -65.9226,-47.1329
 L -66.0438,-46.942 L -66.1879,-46.7678 L -66.3526,-46.6131 L -66.5355,-46.4802 L -66.7336,-46.3713 L -66.9438,-46.2881
 L -67.1627,-46.2319 L -67.387,-46.2036 z
M 67.387,-46.2036 L 67.1627,-46.2319 L 66.9438,-46.2881 L 66.7336,-46.3713 L 66.5355,-46.4802 L 66.3526,-46.6131
 L 66.1879,-46.7678 L 66.0438,-46.942 L 65.9226,-47.1329 L 65.8264,-47.3374 L 65.7565,-47.5524 L 65.7142,-47.7744
 L 65.7,-48 L 65.7142,-48.2256 L 65.7565,-48.4476 L 65.8264,-48.6626 L 65.9226,-48.8671 L 66.0438,-49.058
 L 66.1879,-49.2322 L 66.3526,-49.3869 L 66.5355,-49.5198 L 66.7336,-49.6287 L 66.9438,-49.7119 L 67.1627,-49.7681
 L 67.387,-49.7964 L 67.613,-49.7964 L 67.8373,-49.7681 L 68.0562,-49.7119 L 68.2664,-49.6287 L 68.4645,-49.5198
 L 68.6474,-49.3869 L 68.8121,-49.2322 L 68.9562,-49.058 L 69.0773,-48.8671 L 69.1736,-48.6626 L 69.2434,-48.4476
 L 69.2858,-48.2256 L 69.3,-48 L 69.2858,-47.7744 L 69.2434,-47.5524 L 69.1736,-47.3374 L 69.0773,-47.1329
 L 68.9562,-46.942 L 68.8121,-46.7678 L 68.6474,-46.6131 L 68.4645,-46.4802 L 68.2664,-46.3713 L 68.0562,-46.2881
 L 67.8373,-46.2319 L 67.613,-46.2036 z
" stroke="black" fill="lightgray" stroke-width="0.5"/>
</svg>
