<?xml version="1.0" standalone="no"?>
<!DOCTYPE svg PUBLIC "-//W3C//DTD SVG 1.1//EN" "http://www.w3.org/Graphics/SVG/1.1/DTD/svg11.dtd">
<svg width="46mm" height="249mm" viewBox="-23 -447 46 249" xmlns="http://www.w3.org/2000/svg" version="1.1">
<title>OpenSCAD Model</title>
<path d="
M 18.4369,-327.089 L 19.0451,-327.245 L 19.6289,-327.476 L 20.1791,-327.778 L 20.6871,-328.147 L 21.1448,-328.577
 L 21.5451,-329.061 L 21.8815,-329.591 L 22.1489,-330.159 L 22.3429,-330.757 L 22.4606,-331.373 L 22.5,-332
 L 22.5,-442 L 22.4606,-442.627 L 22.3429,-443.243 L 22.1489,-443.841 L 21.8815,-444.409 L 21.5451,-444.939
 L 21.1448,-445.423 L 20.6871,-445.853 L 20.1791,-446.222 L 19.6289,-446.524 L 19.0451,-446.755 L 18.4369,-446.911
 L 17.8139,-446.99 L -17.8139,-446.99 L -18.4369,-446.911 L -19.0451,-446.755 L -19.6289,-446.524 L -20.1791,-446.222
 L -20.6871,-445.853 L -21.1448,-445.423 L -21.5451,-444.939 L -21.8815,-444.409 L -22.1489,-443.841 L -22.3429,-443.243
 L -22.4606,-442.627 L -22.5,-442 L -22.5,-332 L -22.4606,-331.373 L -22.3429,-330.757 L -22.1489,-330.159
 L -21.8815,-329.591 L -21.5451,-329.061 L -21.1448,-328.577 L -20.6871,-328.147 L -20.1791,-327.778 L -19.6289,-327.476
 L -19.0451,-327.245 L -18.4369,-327.089 L -17.8139,-327.01 L 17.8139,-327.01 z
M -17.1954,-329.393 L -17.5833,-329.442 L -17.9619,-329.539 L -18.3254,-329.683 L -18.668,-329.872 L -18.9842,-330.101
 L -19.2692,-330.369 L -19.5184,-330.67 L -19.7279,-331 L -19.8943,-331.354 L -20.0151,-331.726 L -20.0884,-332.11
 L -20.1129,-332.5 L -20.1129,-441.5 L -20.0884,-441.89 L -20.0151,-442.274 L -19.8943,-442.646 L -19.7279,-443
 L -19.5184,-443.33 L -19.2692,-443.631 L -18.9842,-443.899 L -18.668,-444.128 L -18.3254,-444.317 L -17.9619,-444.461
 L -17.5833,-444.558 L -17.1954,-444.607 L 17.1954,-444.607 L 17.5833,-444.558 L 17.9619,-444.461 L 18.3254,-444.317
 L 18.668,-444.128 L 18.9842,-443.899 L 19.2692,-443.631 L 19.5184,-443.33 L 19.7279,-443 L 19.8943,-442.646
 L 20.0151,-442.274 L 20.0884,-441.89 L 20.1129,-441.5 L 20.1129,-332.5 L 20.0884,-332.11 L 20.0151,-331.726
 L 19.8943,-331.354 L 19.7279,-331 L 19.5184,-330.67 L 19.2692,-330.369 L 18.9842,-330.101 L 18.668,-329.872
 L 18.3254,-329.683 L 17.9619,-329.539 L 17.5833,-329.442 L 17.1954,-329.393 z
M 18.4369,-198.089 L 19.0451,-198.245 L 19.6289,-198.476 L 20.1791,-198.778 L 20.6871,-199.147 L 21.1448,-199.577
 L 21.5451,-200.061 L 21.8815,-200.591 L 22.1489,-201.159 L 22.3429,-201.757 L 22.4606,-202.373 L 22.5,-203
 L 22.5,-313 L 22.4606,-313.627 L 22.3429,-314.243 L 22.1489,-314.841 L 21.8815,-315.409 L 21.5451,-315.939
 L 21.1448,-316.423 L 20.6871,-316.853 L 20.1791,-317.222 L 19.6289,-317.524 L 19.0451,-317.755 L 18.4369,-317.911
 L 17.8139,-317.99 L -17.8139,-317.99 L -18.4369,-317.911 L -19.0451,-317.755 L -19.6289,-317.524 L -20.1791,-317.222
 L -20.6871,-316.853 L -21.1448,-316.423 L -21.5451,-315.939 L -21.8815,-315.409 L -22.1489,-314.841 L -22.3429,-314.243
 L -22.4606,-313.627 L -22.5,-313 L -22.5,-203 L -22.4606,-202.373 L -22.3429,-201.757 L -22.1489,-201.159
 L -21.8815,-200.591 L -21.5451,-200.061 L -21.1448,-199.577 L -20.6871,-199.147 L -20.1791,-198.778 L -19.6289,-198.476
 L -19.0451,-198.245 L -18.4369,-198.089 L -17.8139,-198.01 L 17.8139,-198.01 z
M 14.8659,-308.369 L 14.5999,-308.403 L 14.3401,-308.469 L 14.0908,-308.568 L 13.8559,-308.697 L 13.6389,-308.855
 L 13.4434,-309.038 L 13.2725,-309.245 L 13.1288,-309.471 L 13.0146,-309.714 L 12.9318,-309.969 L 12.8815,-310.232
 L 12.8647,-310.5 L 12.8815,-310.768 L 12.9318,-311.031 L 13.0146,-311.286 L 13.1288,-311.529 L 13.2725,-311.755
 L 13.4434,-311.962 L 13.6389,-312.145 L 13.8559,-312.303 L 14.0908,-312.432 L 14.3401,-312.531 L 14.5999,-312.597
 L 14.8659,-312.631 L 15.1341,-312.631 L 15.4001,-312.597 L 15.6598,-312.531 L 15.9091,-312.432 L 16.1441,-312.303
 L 16.3611,-312.145 L 16.5565,-311.962 L 16.7275,-311.755 L 16.8712,-311.529 L 16.9853,-311.286 L 17.0682,-311.031
 L 17.1185,-310.768 L 17.1353,-310.5 L 17.1185,-310.232 L 17.0682,-309.969 L 16.9853,-309.714 L 16.8712,-309.471
 L 16.7275,-309.245 L 16.5565,-309.038 L 16.3611,-308.855 L 16.1441,-308.697 L 15.9091,-308.568 L 15.6598,-308.469
 L 15.4001,-308.403 L 15.1341,-308.369 z
M -15.1341,-308.369 L -15.4001,-308.403 L -15.6598,-308.469 L -15.9091,-308.568 L -16.1441,-308.697 L -16.3611,-308.855
 L -16.5565,-309.038 L -16.7275,-309.245 L -16.8712,-309.471 L -16.9853,-309.714 L -17.0682,-309.969 L -17.1185,-310.232
 L -17.1353,-310.5 L -17.1185,-310.768 L -17.0682,-311.031 L -16.9853,-311.286 L -16.8712,-311.529 L -16.7275,-311.755
 L -16.5565,-311.962 L -16.3611,-312.145 L -16.1441,-312.303 L -15.9091,-312.432 L -15.6598,-312.531 L -15.4001,-312.597
 L -15.1341,-312.631 L -14.8659,-312.631 L -14.5999,-312.597 L -14.3401,-312.531 L -14.0908,-312.432 L -13.8559,-312.303
 L -13.6389,-312.145 L -13.4434,-311.962 L -13.2725,-311.755 L -13.1288,-311.529 L -13.0146,-311.286 L -12.9318,-311.031
 L -12.8815,-310.768 L -12.8647,-310.5 L -12.8815,-310.232 L -12.9318,-309.969 L -13.0146,-309.714 L -13.1288,-309.471
 L -13.2725,-309.245 L -13.4434,-309.038 L -13.6389,-308.855 L -13.8559,-308.697 L -14.0908,-308.568 L -14.3401,-308.469
 L -14.5999,-308.403 L -14.8659,-308.369 z
M 14.8659,-203.369 L 14.5999,-203.403 L 14.3401,-203.469 L 14.0908,-203.568 L 13.8559,-203.697 L 13.6389,-203.855
 L 13.4434,-204.038 L 13.2725,-204.245 L 13.1288,-204.471 L 13.0146,-204.714 L 12.9318,-204.969 L 12.8815,-205.232
 L 12.8647,-205.5 L 12.8815,-205.768 L 12.9318,-206.031 L 13.0146,-206.286 L 13.1288,-206.529 L 13.2725,-206.755
 L 13.4434,-206.962 L 13.6389,-207.145 L 13.8559,-207.303 L 14.0908,-207.432 L 14.3401,-207.531 L 14.5999,-207.597
 L 14.8659,-207.631 L 15.1341,-207.631 L 15.4001,-207.597 L 15.6598,-207.531 L 15.9091,-207.432 L 16.1441,-207.303
 L 16.3611,-207.145 L 16.5565,-206.962 L 16.7275,-206.755 L 16.8712,-206.529 L 16.9853,-206.286 L 17.0682,-206.031
 L 17.1185,-205.768 L 17.1353,-205.5 L 17.1185,-205.232 L 17.0682,-204.969 L 16.9853,-204.714 L 16.8712,-204.471
 L 16.7275,-204.245 L 16.5565,-204.038 L 16.3611,-203.855 L 16.1441,-203.697 L 15.9091,-203.568 L 15.6598,-203.469
 L 15.4001,-203.403 L 15.1341,-203.369 z
M -15.1341,-203.369 L -15.4001,-203.403 L -15.6598,-203.469 L -15.9091,-203.568 L -16.1441,-203.697 L -16.3611,-203.855
 L -16.5565,-204.038 L -16.7275,-204.245 L -16.8712,-204.471 L -16.9853,-204.714 L -17.0682,-204.969 L -17.1185,-205.232
 L -17.1353,-205.5 L -17.1185,-205.768 L -17.0682,-206.031 L -16.9853,-206.286 L -16.8712,-206.529 L -16.7275,-206.755
 L -16.5565,-206.962 L -16.3611,-207.145 L -16.1441,-207.303 L -15.9091,-207.432 L -15.6598,-207.531 L -15.4001,-207.597
 L -15.1341,-207.631 L -14.8659,-207.631 L -14.5999,-207.597 L -14.3401,-207.531 L -14.0908,-207.432 L -13.8559,-207.303
 L -13.6389,-207.145 L -13.4434,-206.962 L -13.2725,-206.755 L -13.1288,-206.529 L -13.0146,-206.286 L -12.9318,-206.031
 L -12.8815,-205.768 L -12.8647,-205.5 L -12.8815,-205.232 L -12.9318,-204.969 L -13.0146,-204.714 L -13.1288,-204.471
 L -13.2725,-204.245 L -13.4434,-204.038 L -13.6389,-203.855 L -13.8559,-203.697 L -14.0908,-203.568 L -14.3401,-203.469
 L -14.5999,-203.403 L -14.8659,-203.369 z
" stroke="black" fill="lightgray" stroke-width="0.5"/>
</svg>
