<?xml version="1.0" standalone="no"?>
<!DOCTYPE svg PUBLIC "-//W3C//DTD SVG 1.1//EN" "http://www.w3.org/Graphics/SVG/1.1/DTD/svg11.dtd">
<svg width="30mm" height="129mm" viewBox="-15 -237 30 129" xmlns="http://www.w3.org/2000/svg" version="1.1">
<title>OpenSCAD Model</title>
<path d="
M 10.9369,-177.089 L 11.5451,-177.245 L 12.1289,-177.476 L 12.6791,-177.778 L 13.1871,-178.147 L 13.6448,-178.577
 L 14.0451,-179.061 L 14.3815,-179.591 L 14.6489,-180.159 L 14.8429,-180.757 L 14.9606,-181.373 L 15,-182
 L 15,-232 L 14.9606,-232.627 L 14.8429,-233.243 L 14.6489,-233.841 L 14.3815,-234.409 L 14.0451,-234.939
 L 13.6448,-235.423 L 13.1871,-235.853 L 12.6791,-236.222 L 12.1289,-236.524 L 11.5451,-236.755 L 10.9369,-236.911
 L 10.3139,-236.99 L -10.3139,-236.99 L -10.9369,-236.911 L -11.5451,-236.755 L -12.1289,-236.524 L -12.6791,-236.222
 L -13.1871,-235.853 L -13.6448,-235.423 L -14.0451,-234.939 L -14.3815,-234.409 L -14.6489,-233.841 L -14.8429,-233.243
 L -14.9606,-232.627 L -15,-232 L -15,-182 L -14.9606,-181.373 L -14.8429,-180.757 L -14.6489,-180.159
 L -14.3815,-179.591 L -14.0451,-179.061 L -13.6448,-178.577 L -13.1871,-178.147 L -12.6791,-177.778 L -12.1289,-177.476
 L -11.5451,-177.245 L -10.9369,-177.089 L -10.3139,-177.01 L 10.3139,-177.01 z
M -9.69545,-179.393 L -10.0833,-179.442 L -10.4619,-179.539 L -10.8254,-179.683 L -11.168,-179.872 L -11.4842,-180.101
 L -11.7692,-180.369 L -12.0184,-180.67 L -12.2279,-181 L -12.3943,-181.354 L -12.5151,-181.726 L -12.5884,-182.11
 L -12.6129,-182.5 L -12.6129,-231.5 L -12.5884,-231.89 L -12.5151,-232.274 L -12.3943,-232.646 L -12.2279,-233
 L -12.0184,-233.33 L -11.7692,-233.631 L -11.4842,-233.899 L -11.168,-234.128 L -10.8254,-234.317 L -10.4619,-234.461
 L -10.0833,-234.558 L -9.69545,-234.607 L 9.69545,-234.607 L 10.0833,-234.558 L 10.4619,-234.461 L 10.8254,-234.317
 L 11.168,-234.128 L 11.4842,-233.899 L 11.7692,-233.631 L 12.0184,-233.33 L 12.2279,-233 L 12.3943,-232.646
 L 12.5151,-232.274 L 12.5884,-231.89 L 12.6129,-231.5 L 12.6129,-182.5 L 12.5884,-182.11 L 12.5151,-181.726
 L 12.3943,-181.354 L 12.2279,-181 L 12.0184,-180.67 L 11.7692,-180.369 L 11.4842,-180.101 L 11.168,-179.872
 L 10.8254,-179.683 L 10.4619,-179.539 L 10.0833,-179.442 L 9.69545,-179.393 z
M 10.9369,-108.089 L 11.5451,-108.245 L 12.1289,-108.476 L 12.6791,-108.778 L 13.1871,-109.147 L 13.6448,-109.577
 L 14.0451,-110.061 L 14.3815,-110.591 L 14.6489,-111.159 L 14.8429,-111.757 L 14.9606,-112.373 L 15,-113
 L 15,-163 L 14.9606,-163.627 L 14.8429,-164.243 L 14.6489,-164.841 L 14.3815,-165.409 L 14.0451,-165.939
 L 13.6448,-166.423 L 13.1871,-166.853 L 12.6791,-167.222 L 12.1289,-167.524 L 11.5451,-167.755 L 10.9369,-167.911
 L 10.3139,-167.99 L -10.3139,-167.99 L -10.9369,-167.911 L -11.5451,-167.755 L -12.1289,-167.524 L -12.6791,-167.222
 L -13.1871,-166.853 L -13.6448,-166.423 L -14.0451,-165.939 L -14.3815,-165.409 L -14.6489,-164.841 L -14.8429,-164.243
 L -14.9606,-163.627 L -15,-163 L -15,-113 L -14.9606,-112.373 L -14.8429,-111.757 L -14.6489,-111.159
 L -14.3815,-110.591 L -14.0451,-110.061 L -13.6448,-109.577 L -13.1871,-109.147 L -12.6791,-108.778 L -12.1289,-108.476
 L -11.5451,-108.245 L -10.9369,-108.089 L -10.3139,-108.01 L 10.3139,-108.01 z
M 7.36592,-158.369 L 7.09988,-158.403 L 6.84015,-158.469 L 6.59084,-158.568 L 6.35585,-158.697 L 6.1389,-158.855
 L 5.94344,-159.038 L 5.77251,-159.245 L 5.62881,-159.471 L 5.51465,-159.714 L 5.43178,-159.969 L 5.38153,-160.232
 L 5.3647,-160.5 L 5.38153,-160.768 L 5.43178,-161.031 L 5.51465,-161.286 L 5.62881,-161.529 L 5.77251,-161.755
 L 5.94344,-161.962 L 6.1389,-162.145 L 6.35585,-162.303 L 6.59084,-162.432 L 6.84015,-162.531 L 7.09988,-162.597
 L 7.36592,-162.631 L 7.63406,-162.631 L 7.9001,-162.597 L 8.15984,-162.531 L 8.40915,-162.432 L 8.64413,-162.303
 L 8.86108,-162.145 L 9.05655,-161.962 L 9.22748,-161.755 L 9.37117,-161.529 L 9.48534,-161.286 L 9.56821,-161.031
 L 9.61845,-160.768 L 9.63528,-160.5 L 9.61845,-160.232 L 9.56821,-159.969 L 9.48534,-159.714 L 9.37117,-159.471
 L 9.22748,-159.245 L 9.05655,-159.038 L 8.86108,-158.855 L 8.64413,-158.697 L 8.40915,-158.568 L 8.15984,-158.469
 L 7.9001,-158.403 L 7.63406,-158.369 z
M -7.63406,-158.369 L -7.9001,-158.403 L -8.15984,-158.469 L -8.40915,-158.568 L -8.64413,-158.697 L -8.86108,-158.855
 L -9.05655,-159.038 L -9.22748,-159.245 L -9.37117,-159.471 L -9.48534,-159.714 L -9.56821,-159.969 L -9.61845,-160.232
 L -9.63528,-160.5 L -9.61845,-160.768 L -9.56821,-161.031 L -9.48534,-161.286 L -9.37117,-161.529 L -9.22748,-161.755
 L -9.05655,-161.962 L -8.86108,-162.145 L -8.64413,-162.303 L -8.40915,-162.432 L -8.15984,-162.531 L -7.9001,-162.597
 L -7.63406,-162.631 L -7.36592,-162.631 L -7.09988,-162.597 L -6.84015,-162.531 L -6.59084,-162.432 L -6.35585,-162.303
 L -6.1389,-162.145 L -5.94344,-161.962 L -5.77251,-161.755 L -5.62881,-161.529 L -5.51465,-161.286 L -5.43178,-161.031
 L -5.38153,-160.768 L -5.3647,-160.5 L -5.38153,-160.232 L -5.43178,-159.969 L -5.51465,-159.714 L -5.62881,-159.471
 L -5.77251,-159.245 L -5.94344,-159.038 L -6.1389,-158.855 L -6.35585,-158.697 L -6.59084,-158.568 L -6.84015,-158.469
 L -7.09988,-158.403 L -7.36592,-158.369 z
M 7.36592,-113.369 L 7.09988,-113.403 L 6.84015,-113.469 L 6.59084,-113.568 L 6.35585,-113.697 L 6.1389,-113.855
 L 5.94344,-114.038 L 5.77251,-114.245 L 5.62881,-114.471 L 5.51465,-114.714 L 5.43178,-114.969 L 5.38153,-115.232
 L 5.3647,-115.5 L 5.38153,-115.768 L 5.43178,-116.031 L 5.51465,-116.286 L 5.62881,-116.529 L 5.77251,-116.755
 L 5.94344,-116.962 L 6.1389,-117.145 L 6.35585,-117.303 L 6.59084,-117.432 L 6.84015,-117.531 L 7.09988,-117.597
 L 7.36592,-117.631 L 7.63406,-117.631 L 7.9001,-117.597 L 8.15984,-117.531 L 8.40915,-117.432 L 8.64413,-117.303
 L 8.86108,-117.145 L 9.05655,-116.962 L 9.22748,-116.755 L 9.37117,-116.529 L 9.48534,-116.286 L 9.56821,-116.031
 L 9.61845,-115.768 L 9.63528,-115.5 L 9.61845,-115.232 L 9.56821,-114.969 L 9.48534,-114.714 L 9.37117,-114.471
 L 9.22748,-114.245 L 9.05655,-114.038 L 8.86108,-113.855 L 8.64413,-113.697 L 8.40915,-113.568 L 8.15984,-113.469
 L 7.9001,-113.403 L 7.63406,-113.369 z
M -7.63406,-113.369 L -7.9001,-113.403 L -8.15984,-113.469 L -8.40915,-113.568 L -8.64413,-113.697 L -8.86108,-113.855
 L -9.05655,-114.038 L -9.22748,-114.245 L -9.37117,-114.471 L -9.48534,-114.714 L -9.56821,-114.969 L -9.61845,-115.232
 L -9.63528,-115.5 L -9.61845,-115.768 L -9.56821,-116.031 L -9.48534,-116.286 L -9.37117,-116.529 L -9.22748,-116.755
 L -9.05655,-116.962 L -8.86108,-117.145 L -8.64413,-117.303 L -8.40915,-117.432 L -8.15984,-117.531 L -7.9001,-117.597
 L -7.63406,-117.631 L -7.36592,-117.631 L -7.09988,-117.597 L -6.84015,-117.531 L -6.59084,-117.432 L -6.35585,-117.303
 L -6.1389,-117.145 L -5.94344,-116.962 L -5.77251,-116.755 L -5.62881,-116.529 L -5.51465,-116.286 L -5.43178,-116.031
 L -5.38153,-115.768 L -5.3647,-115.5 L -5.38153,-115.232 L -5.43178,-114.969 L -5.51465,-114.714 L -5.62881,-114.471
 L -5.77251,-114.245 L -5.94344,-114.038 L -6.1389,-113.855 L -6.35585,-113.697 L -6.59084,-113.568 L -6.84015,-113.469
 L -7.09988,-113.403 L -7.36592,-113.369 z
" stroke="black" fill="lightgray" stroke-width="0.5"/>
</svg>
