<?xml version="1.0" standalone="no"?>
<!DOCTYPE svg PUBLIC "-//W3C//DTD SVG 1.1//EN" "http://www.w3.org/Graphics/SVG/1.1/DTD/svg11.dtd">
<svg width="16mm" height="340mm" viewBox="-8 -431 16 340" xmlns="http://www.w3.org/2000/svg" version="1.1">
<title>OpenSCAD Model</title>
<path d="
M 3.4369,-265.589 L 4.04507,-265.745 L 4.62889,-265.976 L 5.17912,-266.278 L 5.68712,-266.647 L 6.14484,-267.077
 L 6.54507,-267.561 L 6.88153,-268.091 L 7.14888,-268.659 L 7.34291,-269.257 L 7.46057,-269.873 L 7.5,-270.5
 L 7.5,-425.5 L 7.46057,-426.127 L 7.34291,-426.743 L 7.14888,-427.341 L 6.88153,-427.909 L 6.54507,-428.439
 L 6.14484,-428.923 L 5.68712,-429.353 L 5.17912,-429.722 L 4.62889,-430.024 L 4.04507,-430.255 L 3.4369,-430.411
 L 2.81395,-430.49 L -2.81395,-430.49 L -3.4369,-430.411 L -4.04507,-430.255 L -4.62889,-430.024 L -5.17912,-429.722
 L -5.68712,-429.353 L -6.14484,-428.923 L -6.54507,-428.439 L -6.88153,-427.909 L -7.14888,-427.341 L -7.34291,-426.743
 L -7.46057,-426.127 L -7.5,-425.5 L -7.5,-270.5 L -7.46057,-269.873 L -7.34291,-269.257 L -7.14888,-268.659
 L -6.88153,-268.091 L -6.54507,-267.561 L -6.14484,-267.077 L -5.68712,-266.647 L -5.17912,-266.278 L -4.62889,-265.976
 L -4.04507,-265.745 L -3.4369,-265.589 L -2.81395,-265.51 L 2.81395,-265.51 z
M 3.4369,-91.5886 L 4.04507,-91.7447 L 4.62889,-91.9759 L 5.17912,-92.2784 L 5.68712,-92.6474 L 6.14484,-93.0773
 L 6.54507,-93.5611 L 6.88153,-94.0912 L 7.14888,-94.6594 L 7.34291,-95.2566 L 7.46057,-95.8733 L 7.5,-96.5
 L 7.5,-251.5 L 7.46057,-252.127 L 7.34291,-252.743 L 7.14888,-253.341 L 6.88153,-253.909 L 6.54507,-254.439
 L 6.14484,-254.923 L 5.68712,-255.353 L 5.17912,-255.722 L 4.62889,-256.024 L 4.04507,-256.255 L 3.4369,-256.411
 L 2.81395,-256.49 L -2.81395,-256.49 L -3.4369,-256.411 L -4.04507,-256.255 L -4.62889,-256.024 L -5.17912,-255.722
 L -5.68712,-255.353 L -6.14484,-254.923 L -6.54507,-254.439 L -6.88153,-253.909 L -7.14888,-253.341 L -7.34291,-252.743
 L -7.46057,-252.127 L -7.5,-251.5 L -7.5,-96.5 L -7.46057,-95.8733 L -7.34291,-95.2566 L -7.14888,-94.6594
 L -6.88153,-94.0912 L -6.54507,-93.5611 L -6.14484,-93.0773 L -5.68712,-92.6474 L -5.17912,-92.2784 L -4.62889,-91.9759
 L -4.04507,-91.7447 L -3.4369,-91.5886 L -2.81395,-91.5099 L 2.81395,-91.5099 z
M -0.113022,-247.204 L -0.33728,-247.232 L -0.556229,-247.288 L -0.766388,-247.371 L -0.964478,-247.48 L -1.14735,-247.613
 L -1.31213,-247.768 L -1.45622,-247.942 L -1.57735,-248.133 L -1.67358,-248.337 L -1.74344,-248.552 L -1.7858,-248.774
 L -1.79999,-249 L -1.7858,-249.226 L -1.74344,-249.448 L -1.67358,-249.663 L -1.57735,-249.867 L -1.45622,-250.058
 L -1.31213,-250.232 L -1.14735,-250.387 L -0.964478,-250.52 L -0.766388,-250.629 L -0.556229,-250.712 L -0.33728,-250.768
 L -0.113022,-250.796 L 0.113022,-250.796 L 0.33728,-250.768 L 0.556229,-250.712 L 0.766388,-250.629 L 0.964478,-250.52
 L 1.14735,-250.387 L 1.31213,-250.232 L 1.45622,-250.058 L 1.57735,-249.867 L 1.67358,-249.663 L 1.74344,-249.448
 L 1.7858,-249.226 L 1.79999,-249 L 1.7858,-248.774 L 1.74344,-248.552 L 1.67358,-248.337 L 1.57735,-248.133
 L 1.45622,-247.942 L 1.31213,-247.768 L 1.14735,-247.613 L 0.964478,-247.48 L 0.766388,-247.371 L 0.556229,-247.288
 L 0.33728,-247.232 L 0.113022,-247.204 z
M -0.113022,-97.2036 L -0.33728,-97.2319 L -0.556229,-97.2881 L -0.766388,-97.3713 L -0.964478,-97.4802 L -1.14735,-97.6131
 L -1.31213,-97.7678 L -1.45622,-97.942 L -1.57735,-98.1328 L -1.67358,-98.3374 L -1.74344,-98.5524 L -1.7858,-98.7744
 L -1.79999,-99 L -1.7858,-99.2256 L -1.74344,-99.4476 L -1.67358,-99.6626 L -1.57735,-99.8672 L -1.45622,-100.058
 L -1.31213,-100.232 L -1.14735,-100.387 L -0.964478,-100.52 L -0.766388,-100.629 L -0.556229,-100.712 L -0.33728,-100.768
 L -0.113022,-100.796 L 0.113022,-100.796 L 0.33728,-100.768 L 0.556229,-100.712 L 0.766388,-100.629 L 0.964478,-100.52
 L 1.14735,-100.387 L 1.31213,-100.232 L 1.45622,-100.058 L 1.57735,-99.8672 L 1.67358,-99.6626 L 1.74344,-99.4476
 L 1.7858,-99.2256 L 1.79999,-99 L 1.7858,-98.7744 L 1.74344,-98.5524 L 1.67358,-98.3374 L 1.57735,-98.1328
 L 1.45622,-97.942 L 1.31213,-97.7678 L 1.14735,-97.6131 L 0.964478,-97.4802 L 0.766388,-97.3713 L 0.556229,-97.2881
 L 0.33728,-97.2319 L 0.113022,-97.2036 z
" stroke="black" fill="lightgray" stroke-width="0.5"/>
</svg>
