<?xml version="1.0" standalone="no"?>
<!DOCTYPE svg PUBLIC "-//W3C//DTD SVG 1.1//EN" "http://www.w3.org/Graphics/SVG/1.1/DTD/svg11.dtd">
<svg width="46mm" height="220mm" viewBox="-23 -395 46 220" xmlns="http://www.w3.org/2000/svg" version="1.1">
<title>OpenSCAD Model</title>
<path d="
M 18.4369,-289.589 L 19.0451,-289.745 L 19.6289,-289.976 L 20.1791,-290.278 L 20.6871,-290.647 L 21.1448,-291.077
 L 21.5451,-291.561 L 21.8815,-292.091 L 22.1489,-292.659 L 22.3429,-293.257 L 22.4606,-293.873 L 22.5,-294.5
 L 22.5,-389.5 L 22.4606,-390.127 L 22.3429,-390.743 L 22.1489,-391.341 L 21.8815,-391.909 L 21.5451,-392.439
 L 21.1448,-392.923 L 20.6871,-393.353 L 20.1791,-393.722 L 19.6289,-394.024 L 19.0451,-394.255 L 18.4369,-394.411
 L 17.8139,-394.49 L -17.8139,-394.49 L -18.4369,-394.411 L -19.0451,-394.255 L -19.6289,-394.024 L -20.1791,-393.722
 L -20.6871,-393.353 L -21.1448,-392.923 L -21.5451,-392.439 L -21.8815,-391.909 L -22.1489,-391.341 L -22.3429,-390.743
 L -22.4606,-390.127 L -22.5,-389.5 L -22.5,-294.5 L -22.4606,-293.873 L -22.3429,-293.257 L -22.1489,-292.659
 L -21.8815,-292.091 L -21.5451,-291.561 L -21.1448,-291.077 L -20.6871,-290.647 L -20.1791,-290.278 L -19.6289,-289.976
 L -19.0451,-289.745 L -18.4369,-289.589 L -17.8139,-289.51 L 17.8139,-289.51 z
M -17.1954,-291.893 L -17.5833,-291.942 L -17.9619,-292.039 L -18.3254,-292.183 L -18.668,-292.372 L -18.9842,-292.601
 L -19.2692,-292.869 L -19.5184,-293.17 L -19.7279,-293.5 L -19.8943,-293.854 L -20.0151,-294.226 L -20.0884,-294.61
 L -20.1129,-295 L -20.1129,-389 L -20.0884,-389.39 L -20.0151,-389.774 L -19.8943,-390.146 L -19.7279,-390.5
 L -19.5184,-390.83 L -19.2692,-391.131 L -18.9842,-391.399 L -18.668,-391.628 L -18.3254,-391.817 L -17.9619,-391.961
 L -17.5833,-392.058 L -17.1954,-392.107 L 17.1954,-392.107 L 17.5833,-392.058 L 17.9619,-391.961 L 18.3254,-391.817
 L 18.668,-391.628 L 18.9842,-391.399 L 19.2692,-391.131 L 19.5184,-390.83 L 19.7279,-390.5 L 19.8943,-390.146
 L 20.0151,-389.774 L 20.0884,-389.39 L 20.1129,-389 L 20.1129,-295 L 20.0884,-294.61 L 20.0151,-294.226
 L 19.8943,-293.854 L 19.7279,-293.5 L 19.5184,-293.17 L 19.2692,-292.869 L 18.9842,-292.601 L 18.668,-292.372
 L 18.3254,-292.183 L 17.9619,-292.039 L 17.5833,-291.942 L 17.1954,-291.893 z
M 18.4369,-175.589 L 19.0451,-175.745 L 19.6289,-175.976 L 20.1791,-176.278 L 20.6871,-176.647 L 21.1448,-177.077
 L 21.5451,-177.561 L 21.8815,-178.091 L 22.1489,-178.659 L 22.3429,-179.257 L 22.4606,-179.873 L 22.5,-180.5
 L 22.5,-275.5 L 22.4606,-276.127 L 22.3429,-276.743 L 22.1489,-277.341 L 21.8815,-277.909 L 21.5451,-278.439
 L 21.1448,-278.923 L 20.6871,-279.353 L 20.1791,-279.722 L 19.6289,-280.024 L 19.0451,-280.255 L 18.4369,-280.411
 L 17.8139,-280.49 L -17.8139,-280.49 L -18.4369,-280.411 L -19.0451,-280.255 L -19.6289,-280.024 L -20.1791,-279.722
 L -20.6871,-279.353 L -21.1448,-278.923 L -21.5451,-278.439 L -21.8815,-277.909 L -22.1489,-277.341 L -22.3429,-276.743
 L -22.4606,-276.127 L -22.5,-275.5 L -22.5,-180.5 L -22.4606,-179.873 L -22.3429,-179.257 L -22.1489,-178.659
 L -21.8815,-178.091 L -21.5451,-177.561 L -21.1448,-177.077 L -20.6871,-176.647 L -20.1791,-176.278 L -19.6289,-175.976
 L -19.0451,-175.745 L -18.4369,-175.589 L -17.8139,-175.51 L 17.8139,-175.51 z
M 14.8659,-270.869 L 14.5999,-270.903 L 14.3401,-270.969 L 14.0908,-271.068 L 13.8559,-271.197 L 13.6389,-271.355
 L 13.4434,-271.538 L 13.2725,-271.745 L 13.1288,-271.971 L 13.0146,-272.214 L 12.9318,-272.469 L 12.8815,-272.732
 L 12.8647,-273 L 12.8815,-273.268 L 12.9318,-273.531 L 13.0146,-273.786 L 13.1288,-274.029 L 13.2725,-274.255
 L 13.4434,-274.462 L 13.6389,-274.645 L 13.8559,-274.803 L 14.0908,-274.932 L 14.3401,-275.031 L 14.5999,-275.097
 L 14.8659,-275.131 L 15.1341,-275.131 L 15.4001,-275.097 L 15.6598,-275.031 L 15.9091,-274.932 L 16.1441,-274.803
 L 16.3611,-274.645 L 16.5565,-274.462 L 16.7275,-274.255 L 16.8712,-274.029 L 16.9853,-273.786 L 17.0682,-273.531
 L 17.1185,-273.268 L 17.1353,-273 L 17.1185,-272.732 L 17.0682,-272.469 L 16.9853,-272.214 L 16.8712,-271.971
 L 16.7275,-271.745 L 16.5565,-271.538 L 16.3611,-271.355 L 16.1441,-271.197 L 15.9091,-271.068 L 15.6598,-270.969
 L 15.4001,-270.903 L 15.1341,-270.869 z
M -15.1341,-270.869 L -15.4001,-270.903 L -15.6598,-270.969 L -15.9091,-271.068 L -16.1441,-271.197 L -16.3611,-271.355
 L -16.5565,-271.538 L -16.7275,-271.745 L -16.8712,-271.971 L -16.9853,-272.214 L -17.0682,-272.469 L -17.1185,-272.732
 L -17.1353,-273 L -17.1185,-273.268 L -17.0682,-273.531 L -16.9853,-273.786 L -16.8712,-274.029 L -16.7275,-274.255
 L -16.5565,-274.462 L -16.3611,-274.645 L -16.1441,-274.803 L -15.9091,-274.932 L -15.6598,-275.031 L -15.4001,-275.097
 L -15.1341,-275.131 L -14.8659,-275.131 L -14.5999,-275.097 L -14.3401,-275.031 L -14.0908,-274.932 L -13.8559,-274.803
 L -13.6389,-274.645 L -13.4434,-274.462 L -13.2725,-274.255 L -13.1288,-274.029 L -13.0146,-273.786 L -12.9318,-273.531
 L -12.8815,-273.268 L -12.8647,-273 L -12.8815,-272.732 L -12.9318,-272.469 L -13.0146,-272.214 L -13.1288,-271.971
 L -13.2725,-271.745 L -13.4434,-271.538 L -13.6389,-271.355 L -13.8559,-271.197 L -14.0908,-271.068 L -14.3401,-270.969
 L -14.5999,-270.903 L -14.8659,-270.869 z
M 14.8659,-180.869 L 14.5999,-180.903 L 14.3401,-180.969 L 14.0908,-181.068 L 13.8559,-181.197 L 13.6389,-181.355
 L 13.4434,-181.538 L 13.2725,-181.745 L 13.1288,-181.971 L 13.0146,-182.214 L 12.9318,-182.469 L 12.8815,-182.732
 L 12.8647,-183 L 12.8815,-183.268 L 12.9318,-183.531 L 13.0146,-183.786 L 13.1288,-184.029 L 13.2725,-184.255
 L 13.4434,-184.462 L 13.6389,-184.645 L 13.8559,-184.803 L 14.0908,-184.932 L 14.3401,-185.031 L 14.5999,-185.097
 L 14.8659,-185.131 L 15.1341,-185.131 L 15.4001,-185.097 L 15.6598,-185.031 L 15.9091,-184.932 L 16.1441,-184.803
 L 16.3611,-184.645 L 16.5565,-184.462 L 16.7275,-184.255 L 16.8712,-184.029 L 16.9853,-183.786 L 17.0682,-183.531
 L 17.1185,-183.268 L 17.1353,-183 L 17.1185,-182.732 L 17.0682,-182.469 L 16.9853,-182.214 L 16.8712,-181.971
 L 16.7275,-181.745 L 16.5565,-181.538 L 16.3611,-181.355 L 16.1441,-181.197 L 15.9091,-181.068 L 15.6598,-180.969
 L 15.4001,-180.903 L 15.1341,-180.869 z
M -15.1341,-180.869 L -15.4001,-180.903 L -15.6598,-180.969 L -15.9091,-181.068 L -16.1441,-181.197 L -16.3611,-181.355
 L -16.5565,-181.538 L -16.7275,-181.745 L -16.8712,-181.971 L -16.9853,-182.214 L -17.0682,-182.469 L -17.1185,-182.732
 L -17.1353,-183 L -17.1185,-183.268 L -17.0682,-183.531 L -16.9853,-183.786 L -16.8712,-184.029 L -16.7275,-184.255
 L -16.5565,-184.462 L -16.3611,-184.645 L -16.1441,-184.803 L -15.9091,-184.932 L -15.6598,-185.031 L -15.4001,-185.097
 L -15.1341,-185.131 L -14.8659,-185.131 L -14.5999,-185.097 L -14.3401,-185.031 L -14.0908,-184.932 L -13.8559,-184.803
 L -13.6389,-184.645 L -13.4434,-184.462 L -13.2725,-184.255 L -13.1288,-184.029 L -13.0146,-183.786 L -12.9318,-183.531
 L -12.8815,-183.268 L -12.8647,-183 L -12.8815,-182.732 L -12.9318,-182.469 L -13.0146,-182.214 L -13.1288,-181.971
 L -13.2725,-181.745 L -13.4434,-181.538 L -13.6389,-181.355 L -13.8559,-181.197 L -14.0908,-181.068 L -14.3401,-180.969
 L -14.5999,-180.903 L -14.8659,-180.869 z
" stroke="black" fill="lightgray" stroke-width="0.5"/>
</svg>
