<?xml version="1.0" standalone="no"?>
<!DOCTYPE svg PUBLIC "-//W3C//DTD SVG 1.1//EN" "http://www.w3.org/Graphics/SVG/1.1/DTD/svg11.dtd">
<svg width="16mm" height="129mm" viewBox="-8 -237 16 129" xmlns="http://www.w3.org/2000/svg" version="1.1">
<title>OpenSCAD Model</title>
<path d="
M 3.4369,-177.089 L 4.04507,-177.245 L 4.62889,-177.476 L 5.17912,-177.778 L 5.68712,-178.147 L 6.14484,-178.577
 L 6.54507,-179.061 L 6.88153,-179.591 L 7.14888,-180.159 L 7.34291,-180.757 L 7.46057,-181.373 L 7.5,-182
 L 7.5,-232 L 7.46057,-232.627 L 7.34291,-233.243 L 7.14888,-233.841 L 6.88153,-234.409 L 6.54507,-234.939
 L 6.14484,-235.423 L 5.68712,-235.853 L 5.17912,-236.222 L 4.62889,-236.524 L 4.04507,-236.755 L 3.4369,-236.911
 L 2.81395,-236.99 L -2.81395,-236.99 L -3.4369,-236.911 L -4.04507,-236.755 L -4.62889,-236.524 L -5.17912,-236.222
 L -5.68712,-235.853 L -6.14484,-235.423 L -6.54507,-234.939 L -6.88153,-234.409 L -7.14888,-233.841 L -7.34291,-233.243
 L -7.46057,-232.627 L -7.5,-232 L -7.5,-182 L -7.46057,-181.373 L -7.34291,-180.757 L -7.14888,-180.159
 L -6.88153,-179.591 L -6.54507,-179.061 L -6.14484,-178.577 L -5.68712,-178.147 L -5.17912,-177.778 L -4.62889,-177.476
 L -4.04507,-177.245 L -3.4369,-177.089 L -2.81395,-177.01 L 2.81395,-177.01 z
M -2.19545,-179.393 L -2.5833,-179.442 L -2.96194,-179.539 L -3.32541,-179.683 L -3.66798,-179.872 L -3.98424,-180.101
 L -4.26921,-180.369 L -4.5184,-180.67 L -4.72786,-181 L -4.89432,-181.354 L -5.01512,-181.726 L -5.08836,-182.11
 L -5.11292,-182.5 L -5.11292,-231.5 L -5.08836,-231.89 L -5.01512,-232.274 L -4.89432,-232.646 L -4.72786,-233
 L -4.5184,-233.33 L -4.26921,-233.631 L -3.98424,-233.899 L -3.66798,-234.128 L -3.32541,-234.317 L -2.96194,-234.461
 L -2.5833,-234.558 L -2.19545,-234.607 L 2.19545,-234.607 L 2.5833,-234.558 L 2.96194,-234.461 L 3.32541,-234.317
 L 3.66798,-234.128 L 3.98424,-233.899 L 4.26921,-233.631 L 4.5184,-233.33 L 4.72786,-233 L 4.89432,-232.646
 L 5.01512,-232.274 L 5.08836,-231.89 L 5.11292,-231.5 L 5.11292,-182.5 L 5.08836,-182.11 L 5.01512,-181.726
 L 4.89432,-181.354 L 4.72786,-181 L 4.5184,-180.67 L 4.26921,-180.369 L 3.98424,-180.101 L 3.66798,-179.872
 L 3.32541,-179.683 L 2.96194,-179.539 L 2.5833,-179.442 L 2.19545,-179.393 z
M 3.4369,-108.089 L 4.04507,-108.245 L 4.62889,-108.476 L 5.17912,-108.778 L 5.68712,-109.147 L 6.14484,-109.577
 L 6.54507,-110.061 L 6.88153,-110.591 L 7.14888,-111.159 L 7.34291,-111.757 L 7.46057,-112.373 L 7.5,-113
 L 7.5,-163 L 7.46057,-163.627 L 7.34291,-164.243 L 7.14888,-164.841 L 6.88153,-165.409 L 6.54507,-165.939
 L 6.14484,-166.423 L 5.68712,-166.853 L 5.17912,-167.222 L 4.62889,-167.524 L 4.04507,-167.755 L 3.4369,-167.911
 L 2.81395,-167.99 L -2.81395,-167.99 L -3.4369,-167.911 L -4.04507,-167.755 L -4.62889,-167.524 L -5.17912,-167.222
 L -5.68712,-166.853 L -6.14484,-166.423 L -6.54507,-165.939 L -6.88153,-165.409 L -7.14888,-164.841 L -7.34291,-164.243
 L -7.46057,-163.627 L -7.5,-163 L -7.5,-113 L -7.46057,-112.373 L -7.34291,-111.757 L -7.14888,-111.159
 L -6.88153,-110.591 L -6.54507,-110.061 L -6.14484,-109.577 L -5.68712,-109.147 L -5.17912,-108.778 L -4.62889,-108.476
 L -4.04507,-108.245 L -3.4369,-108.089 L -2.81395,-108.01 L 2.81395,-108.01 z
M -0.134064,-158.369 L -0.400101,-158.403 L -0.659836,-158.469 L -0.909149,-158.568 L -1.14413,-158.697 L -1.36108,-158.855
 L -1.55655,-159.038 L -1.72748,-159.245 L -1.87117,-159.471 L -1.98534,-159.714 L -2.06821,-159.969 L -2.11845,-160.232
 L -2.13528,-160.5 L -2.11845,-160.768 L -2.06821,-161.031 L -1.98534,-161.286 L -1.87117,-161.529 L -1.72748,-161.755
 L -1.55655,-161.962 L -1.36108,-162.145 L -1.14413,-162.303 L -0.909149,-162.432 L -0.659836,-162.531 L -0.400101,-162.597
 L -0.134064,-162.631 L 0.134064,-162.631 L 0.400101,-162.597 L 0.659836,-162.531 L 0.909149,-162.432 L 1.14413,-162.303
 L 1.36108,-162.145 L 1.55655,-161.962 L 1.72748,-161.755 L 1.87117,-161.529 L 1.98534,-161.286 L 2.06821,-161.031
 L 2.11845,-160.768 L 2.13528,-160.5 L 2.11845,-160.232 L 2.06821,-159.969 L 1.98534,-159.714 L 1.87117,-159.471
 L 1.72748,-159.245 L 1.55655,-159.038 L 1.36108,-158.855 L 1.14413,-158.697 L 0.909149,-158.568 L 0.659836,-158.469
 L 0.400101,-158.403 L 0.134064,-158.369 z
M -0.134064,-113.369 L -0.400101,-113.403 L -0.659836,-113.469 L -0.909149,-113.568 L -1.14413,-113.697 L -1.36108,-113.855
 L -1.55655,-114.038 L -1.72748,-114.245 L -1.87117,-114.471 L -1.98534,-114.714 L -2.06821,-114.969 L -2.11845,-115.232
 L -2.13528,-115.5 L -2.11845,-115.768 L -2.06821,-116.031 L -1.98534,-116.286 L -1.87117,-116.529 L -1.72748,-116.755
 L -1.55655,-116.962 L -1.36108,-117.145 L -1.14413,-117.303 L -0.909149,-117.432 L -0.659836,-117.531 L -0.400101,-117.597
 L -0.134064,-117.631 L 0.134064,-117.631 L 0.400101,-117.597 L 0.659836,-117.531 L 0.909149,-117.432 L 1.14413,-117.303
 L 1.36108,-117.145 L 1.55655,-116.962 L 1.72748,-116.755 L 1.87117,-116.529 L 1.98534,-116.286 L 2.06821,-116.031
 L 2.11845,-115.768 L 2.13528,-115.5 L 2.11845,-115.232 L 2.06821,-114.969 L 1.98534,-114.714 L 1.87117,-114.471
 L 1.72748,-114.245 L 1.55655,-114.038 L 1.36108,-113.855 L 1.14413,-113.697 L 0.909149,-113.568 L 0.659836,-113.469
 L 0.400101,-113.403 L 0.134064,-113.369 z
" stroke="black" fill="lightgray" stroke-width="0.5"/>
</svg>
