<?xml version="1.0" standalone="no"?>
<!DOCTYPE svg PUBLIC "-//W3C//DTD SVG 1.1//EN" "http://www.w3.org/Graphics/SVG/1.1/DTD/svg11.dtd">
<svg width="60mm" height="160mm" viewBox="-30 -206 60 160" xmlns="http://www.w3.org/2000/svg" version="1.1">
<title>OpenSCAD Model</title>
<path d="
M 25.9369,-130.589 L 26.5451,-130.745 L 27.1289,-130.976 L 27.6791,-131.278 L 28.1871,-131.647 L 28.6448,-132.077
 L 29.0451,-132.561 L 29.3815,-133.091 L 29.6489,-133.659 L 29.8429,-134.257 L 29.9606,-134.873 L 30,-135.5
 L 30,-200.5 L 29.9606,-201.127 L 29.8429,-201.743 L 29.6489,-202.341 L 29.3815,-202.909 L 29.0451,-203.439
 L 28.6448,-203.923 L 28.1871,-204.353 L 27.6791,-204.722 L 27.1289,-205.024 L 26.5451,-205.255 L 25.9369,-205.411
 L 25.3139,-205.49 L -25.3139,-205.49 L -25.9369,-205.411 L -26.5451,-205.255 L -27.1289,-205.024 L -27.6791,-204.722
 L -28.1871,-204.353 L -28.6448,-203.923 L -29.0451,-203.439 L -29.3815,-202.909 L -29.6489,-202.341 L -29.8429,-201.743
 L -29.9606,-201.127 L -30,-200.5 L -30,-135.5 L -29.9606,-134.873 L -29.8429,-134.257 L -29.6489,-133.659
 L -29.3815,-133.091 L -29.0451,-132.561 L -28.6448,-132.077 L -28.1871,-131.647 L -27.6791,-131.278 L -27.1289,-130.976
 L -26.5451,-130.745 L -25.9369,-130.589 L -25.3139,-130.51 L 25.3139,-130.51 z
M 25.9369,-46.5886 L 26.5451,-46.7447 L 27.1289,-46.9759 L 27.6791,-47.2784 L 28.1871,-47.6474 L 28.6448,-48.0773
 L 29.0451,-48.5611 L 29.3815,-49.0912 L 29.6489,-49.6594 L 29.8429,-50.2566 L 29.9606,-50.8733 L 30,-51.5
 L 30,-116.5 L 29.9606,-117.127 L 29.8429,-117.743 L 29.6489,-118.341 L 29.3815,-118.909 L 29.0451,-119.439
 L 28.6448,-119.923 L 28.1871,-120.353 L 27.6791,-120.722 L 27.1289,-121.024 L 26.5451,-121.255 L 25.9369,-121.411
 L 25.3139,-121.49 L -25.3139,-121.49 L -25.9369,-121.411 L -26.5451,-121.255 L -27.1289,-121.024 L -27.6791,-120.722
 L -28.1871,-120.353 L -28.6448,-119.923 L -29.0451,-119.439 L -29.3815,-118.909 L -29.6489,-118.341 L -29.8429,-117.743
 L -29.9606,-117.127 L -30,-116.5 L -30,-51.5 L -29.9606,-50.8733 L -29.8429,-50.2566 L -29.6489,-49.6594
 L -29.3815,-49.0912 L -29.0451,-48.5611 L -28.6448,-48.0773 L -28.1871,-47.6474 L -27.6791,-47.2784 L -27.1289,-46.9759
 L -26.5451,-46.7447 L -25.9369,-46.5886 L -25.3139,-46.5099 L 25.3139,-46.5099 z
M 22.387,-112.204 L 22.1627,-112.232 L 21.9438,-112.288 L 21.7336,-112.371 L 21.5355,-112.48 L 21.3526,-112.613
 L 21.1879,-112.768 L 21.0438,-112.942 L 20.9226,-113.133 L 20.8264,-113.337 L 20.7565,-113.552 L 20.7142,-113.774
 L 20.7,-114 L 20.7142,-114.226 L 20.7565,-114.448 L 20.8264,-114.663 L 20.9226,-114.867 L 21.0438,-115.058
 L 21.1879,-115.232 L 21.3526,-115.387 L 21.5355,-115.52 L 21.7336,-115.629 L 21.9438,-115.712 L 22.1627,-115.768
 L 22.387,-115.796 L 22.613,-115.796 L 22.8373,-115.768 L 23.0562,-115.712 L 23.2664,-115.629 L 23.4645,-115.52
 L 23.6474,-115.387 L 23.8121,-115.232 L 23.9562,-115.058 L 24.0773,-114.867 L 24.1736,-114.663 L 24.2434,-114.448
 L 24.2858,-114.226 L 24.3,-114 L 24.2858,-113.774 L 24.2434,-113.552 L 24.1736,-113.337 L 24.0773,-113.133
 L 23.9562,-112.942 L 23.8121,-112.768 L 23.6474,-112.613 L 23.4645,-112.48 L 23.2664,-112.371 L 23.0562,-112.288
 L 22.8373,-112.232 L 22.613,-112.204 z
M -22.613,-112.204 L -22.8373,-112.232 L -23.0562,-112.288 L -23.2664,-112.371 L -23.4645,-112.48 L -23.6474,-112.613
 L -23.8121,-112.768 L -23.9562,-112.942 L -24.0773,-113.133 L -24.1736,-113.337 L -24.2434,-113.552 L -24.2858,-113.774
 L -24.3,-114 L -24.2858,-114.226 L -24.2434,-114.448 L -24.1736,-114.663 L -24.0773,-114.867 L -23.9562,-115.058
 L -23.8121,-115.232 L -23.6474,-115.387 L -23.4645,-115.52 L -23.2664,-115.629 L -23.0562,-115.712 L -22.8373,-115.768
 L -22.613,-115.796 L -22.387,-115.796 L -22.1627,-115.768 L -21.9438,-115.712 L -21.7336,-115.629 L -21.5355,-115.52
 L -21.3526,-115.387 L -21.1879,-115.232 L -21.0438,-115.058 L -20.9226,-114.867 L -20.8264,-114.663 L -20.7565,-114.448
 L -20.7142,-114.226 L -20.7,-114 L -20.7142,-113.774 L -20.7565,-113.552 L -20.8264,-113.337 L -20.9226,-113.133
 L -21.0438,-112.942 L -21.1879,-112.768 L -21.3526,-112.613 L -21.5355,-112.48 L -21.7336,-112.371 L -21.9438,-112.288
 L -22.1627,-112.232 L -22.387,-112.204 z
M -22.613,-52.2036 L -22.8373,-52.2319 L -23.0562,-52.2881 L -23.2664,-52.3713 L -23.4645,-52.4802 L -23.6474,-52.6131
 L -23.8121,-52.7678 L -23.9562,-52.942 L -24.0773,-53.1328 L -24.1736,-53.3374 L -24.2434,-53.5524 L -24.2858,-53.7744
 L -24.3,-54 L -24.2858,-54.2256 L -24.2434,-54.4476 L -24.1736,-54.6626 L -24.0773,-54.8672 L -23.9562,-55.058
 L -23.8121,-55.2322 L -23.6474,-55.3869 L -23.4645,-55.5198 L -23.2664,-55.6287 L -23.0562,-55.7119 L -22.8373,-55.7681
 L -22.613,-55.7964 L -22.387,-55.7964 L -22.1627,-55.7681 L -21.9438,-55.7119 L -21.7336,-55.6287 L -21.5355,-55.5198
 L -21.3526,-55.3869 L -21.1879,-55.2322 L -21.0438,-55.058 L -20.9226,-54.8672 L -20.8264,-54.6626 L -20.7565,-54.4476
 L -20.7142,-54.2256 L -20.7,-54 L -20.7142,-53.7744 L -20.7565,-53.5524 L -20.8264,-53.3374 L -20.9226,-53.1328
 L -21.0438,-52.942 L -21.1879,-52.7678 L -21.3526,-52.6131 L -21.5355,-52.4802 L -21.7336,-52.3713 L -21.9438,-52.2881
 L -22.1627,-52.2319 L -22.387,-52.2036 z
M 22.387,-52.2036 L 22.1627,-52.2319 L 21.9438,-52.2881 L 21.7336,-52.3713 L 21.5355,-52.4802 L 21.3526,-52.6131
 L 21.1879,-52.7678 L 21.0438,-52.942 L 20.9226,-53.1328 L 20.8264,-53.3374 L 20.7565,-53.5524 L 20.7142,-53.7744
 L 20.7,-54 L 20.7142,-54.2256 L 20.7565,-54.4476 L 20.8264,-54.6626 L 20.9226,-54.8672 L 21.0438,-55.058
 L 21.1879,-55.2322 L 21.3526,-55.3869 L 21.5355,-55.5198 L 21.7336,-55.6287 L 21.9438,-55.7119 L 22.1627,-55.7681
 L 22.387,-55.7964 L 22.613,-55.7964 L 22.8373,-55.7681 L 23.0562,-55.7119 L 23.2664,-55.6287 L 23.4645,-55.5198
 L 23.6474,-55.3869 L 23.8121,-55.2322 L 23.9562,-55.058 L 24.0773,-54.8672 L 24.1736,-54.6626 L 24.2434,-54.4476
 L 24.2858,-54.2256 L 24.3,-54 L 24.2858,-53.7744 L 24.2434,-53.5524 L 24.1736,-53.3374 L 24.0773,-53.1328
 L 23.9562,-52.942 L 23.8121,-52.7678 L 23.6474,-52.6131 L 23.4645,-52.4802 L 23.2664,-52.3713 L 23.0562,-52.2881
 L 22.8373,-52.2319 L 22.613,-52.2036 z
" stroke="black" fill="lightgray" stroke-width="0.5"/>
</svg>
