  0
SECTION
  2
BLOCKS
  0
ENDSEC
  0
SECTION
  2
ENTITIES
  0
LINE
  8
0
 10
25.9369
 20
130.589
 11
26.5451
 21
130.745
  0
LINE
  8
0
 10
26.5451
 20
130.745
 11
27.1289
 21
130.976
  0
LINE
  8
0
 10
27.1289
 20
130.976
 11
27.6791
 21
131.278
  0
LINE
  8
0
 10
27.6791
 20
131.278
 11
28.1871
 21
131.647
  0
LINE
  8
0
 10
28.1871
 20
131.647
 11
28.6448
 21
132.077
  0
LINE
  8
0
 10
28.6448
 20
132.077
 11
29.0451
 21
132.561
  0
LINE
  8
0
 10
29.0451
 20
132.561
 11
29.3815
 21
133.091
  0
LINE
  8
0
 10
29.3815
 20
133.091
 11
29.6489
 21
133.659
  0
LINE
  8
0
 10
29.6489
 20
133.659
 11
29.8429
 21
134.257
  0
LINE
  8
0
 10
29.8429
 20
134.257
 11
29.9606
 21
134.873
  0
LINE
  8
0
 10
29.9606
 20
134.873
 11
30
 21
135.5
  0
LINE
  8
0
 10
30
 20
135.5
 11
30
 21
200.5
  0
LINE
  8
0
 10
30
 20
200.5
 11
29.9606
 21
201.127
  0
LINE
  8
0
 10
29.9606
 20
201.127
 11
29.8429
 21
201.743
  0
LINE
  8
0
 10
29.8429
 20
201.743
 11
29.6489
 21
202.341
  0
LINE
  8
0
 10
29.6489
 20
202.341
 11
29.3815
 21
202.909
  0
LINE
  8
0
 10
29.3815
 20
202.909
 11
29.0451
 21
203.439
  0
LINE
  8
0
 10
29.0451
 20
203.439
 11
28.6448
 21
203.923
  0
LINE
  8
0
 10
28.6448
 20
203.923
 11
28.1871
 21
204.353
  0
LINE
  8
0
 10
28.1871
 20
204.353
 11
27.6791
 21
204.722
  0
LINE
  8
0
 10
27.6791
 20
204.722
 11
27.1289
 21
205.024
  0
LINE
  8
0
 10
27.1289
 20
205.024
 11
26.5451
 21
205.255
  0
LINE
  8
0
 10
26.5451
 20
205.255
 11
25.9369
 21
205.411
  0
LINE
  8
0
 10
25.9369
 20
205.411
 11
25.3139
 21
205.49
  0
LINE
  8
0
 10
25.3139
 20
205.49
 11
-25.3139
 21
205.49
  0
LINE
  8
0
 10
-25.3139
 20
205.49
 11
-25.9369
 21
205.411
  0
LINE
  8
0
 10
-25.9369
 20
205.411
 11
-26.5451
 21
205.255
  0
LINE
  8
0
 10
-26.5451
 20
205.255
 11
-27.1289
 21
205.024
  0
LINE
  8
0
 10
-27.1289
 20
205.024
 11
-27.6791
 21
204.722
  0
LINE
  8
0
 10
-27.6791
 20
204.722
 11
-28.1871
 21
204.353
  0
LINE
  8
0
 10
-28.1871
 20
204.353
 11
-28.6448
 21
203.923
  0
LINE
  8
0
 10
-28.6448
 20
203.923
 11
-29.0451
 21
203.439
  0
LINE
  8
0
 10
-29.0451
 20
203.439
 11
-29.3815
 21
202.909
  0
LINE
  8
0
 10
-29.3815
 20
202.909
 11
-29.6489
 21
202.341
  0
LINE
  8
0
 10
-29.6489
 20
202.341
 11
-29.8429
 21
201.743
  0
LINE
  8
0
 10
-29.8429
 20
201.743
 11
-29.9606
 21
201.127
  0
LINE
  8
0
 10
-29.9606
 20
201.127
 11
-30
 21
200.5
  0
LINE
  8
0
 10
-30
 20
200.5
 11
-30
 21
135.5
  0
LINE
  8
0
 10
-30
 20
135.5
 11
-29.9606
 21
134.873
  0
LINE
  8
0
 10
-29.9606
 20
134.873
 11
-29.8429
 21
134.257
  0
LINE
  8
0
 10
-29.8429
 20
134.257
 11
-29.6489
 21
133.659
  0
LINE
  8
0
 10
-29.6489
 20
133.659
 11
-29.3815
 21
133.091
  0
LINE
  8
0
 10
-29.3815
 20
133.091
 11
-29.0451
 21
132.561
  0
LINE
  8
0
 10
-29.0451
 20
132.561
 11
-28.6448
 21
132.077
  0
LINE
  8
0
 10
-28.6448
 20
132.077
 11
-28.1871
 21
131.647
  0
LINE
  8
0
 10
-28.1871
 20
131.647
 11
-27.6791
 21
131.278
  0
LINE
  8
0
 10
-27.6791
 20
131.278
 11
-27.1289
 21
130.976
  0
LINE
  8
0
 10
-27.1289
 20
130.976
 11
-26.5451
 21
130.745
  0
LINE
  8
0
 10
-26.5451
 20
130.745
 11
-25.9369
 21
130.589
  0
LINE
  8
0
 10
-25.9369
 20
130.589
 11
-25.3139
 21
130.51
  0
LINE
  8
0
 10
-25.3139
 20
130.51
 11
25.3139
 21
130.51
  0
LINE
  8
0
 10
25.3139
 20
130.51
 11
25.9369
 21
130.589
  0
LINE
  8
0
 10
25.9369
 20
46.5886
 11
26.5451
 21
46.7447
  0
LINE
  8
0
 10
26.5451
 20
46.7447
 11
27.1289
 21
46.9759
  0
LINE
  8
0
 10
27.1289
 20
46.9759
 11
27.6791
 21
47.2784
  0
LINE
  8
0
 10
27.6791
 20
47.2784
 11
28.1871
 21
47.6474
  0
LINE
  8
0
 10
28.1871
 20
47.6474
 11
28.6448
 21
48.0773
  0
LINE
  8
0
 10
28.6448
 20
48.0773
 11
29.0451
 21
48.5611
  0
LINE
  8
0
 10
29.0451
 20
48.5611
 11
29.3815
 21
49.0912
  0
LINE
  8
0
 10
29.3815
 20
49.0912
 11
29.6489
 21
49.6594
  0
LINE
  8
0
 10
29.6489
 20
49.6594
 11
29.8429
 21
50.2566
  0
LINE
  8
0
 10
29.8429
 20
50.2566
 11
29.9606
 21
50.8733
  0
LINE
  8
0
 10
29.9606
 20
50.8733
 11
30
 21
51.5
  0
LINE
  8
0
 10
30
 20
51.5
 11
30
 21
116.5
  0
LINE
  8
0
 10
30
 20
116.5
 11
29.9606
 21
117.127
  0
LINE
  8
0
 10
29.9606
 20
117.127
 11
29.8429
 21
117.743
  0
LINE
  8
0
 10
29.8429
 20
117.743
 11
29.6489
 21
118.341
  0
LINE
  8
0
 10
29.6489
 20
118.341
 11
29.3815
 21
118.909
  0
LINE
  8
0
 10
29.3815
 20
118.909
 11
29.0451
 21
119.439
  0
LINE
  8
0
 10
29.0451
 20
119.439
 11
28.6448
 21
119.923
  0
LINE
  8
0
 10
28.6448
 20
119.923
 11
28.1871
 21
120.353
  0
LINE
  8
0
 10
28.1871
 20
120.353
 11
27.6791
 21
120.722
  0
LINE
  8
0
 10
27.6791
 20
120.722
 11
27.1289
 21
121.024
  0
LINE
  8
0
 10
27.1289
 20
121.024
 11
26.5451
 21
121.255
  0
LINE
  8
0
 10
26.5451
 20
121.255
 11
25.9369
 21
121.411
  0
LINE
  8
0
 10
25.9369
 20
121.411
 11
25.3139
 21
121.49
  0
LINE
  8
0
 10
25.3139
 20
121.49
 11
-25.3139
 21
121.49
  0
LINE
  8
0
 10
-25.3139
 20
121.49
 11
-25.9369
 21
121.411
  0
LINE
  8
0
 10
-25.9369
 20
121.411
 11
-26.5451
 21
121.255
  0
LINE
  8
0
 10
-26.5451
 20
121.255
 11
-27.1289
 21
121.024
  0
LINE
  8
0
 10
-27.1289
 20
121.024
 11
-27.6791
 21
120.722
  0
LINE
  8
0
 10
-27.6791
 20
120.722
 11
-28.1871
 21
120.353
  0
LINE
  8
0
 10
-28.1871
 20
120.353
 11
-28.6448
 21
119.923
  0
LINE
  8
0
 10
-28.6448
 20
119.923
 11
-29.0451
 21
119.439
  0
LINE
  8
0
 10
-29.0451
 20
119.439
 11
-29.3815
 21
118.909
  0
LINE
  8
0
 10
-29.3815
 20
118.909
 11
-29.6489
 21
118.341
  0
LINE
  8
0
 10
-29.6489
 20
118.341
 11
-29.8429
 21
117.743
  0
LINE
  8
0
 10
-29.8429
 20
117.743
 11
-29.9606
 21
117.127
  0
LINE
  8
0
 10
-29.9606
 20
117.127
 11
-30
 21
116.5
  0
LINE
  8
0
 10
-30
 20
116.5
 11
-30
 21
51.5
  0
LINE
  8
0
 10
-30
 20
51.5
 11
-29.9606
 21
50.8733
  0
LINE
  8
0
 10
-29.9606
 20
50.8733
 11
-29.8429
 21
50.2566
  0
LINE
  8
0
 10
-29.8429
 20
50.2566
 11
-29.6489
 21
49.6594
  0
LINE
  8
0
 10
-29.6489
 20
49.6594
 11
-29.3815
 21
49.0912
  0
LINE
  8
0
 10
-29.3815
 20
49.0912
 11
-29.0451
 21
48.5611
  0
LINE
  8
0
 10
-29.0451
 20
48.5611
 11
-28.6448
 21
48.0773
  0
LINE
  8
0
 10
-28.6448
 20
48.0773
 11
-28.1871
 21
47.6474
  0
LINE
  8
0
 10
-28.1871
 20
47.6474
 11
-27.6791
 21
47.2784
  0
LINE
  8
0
 10
-27.6791
 20
47.2784
 11
-27.1289
 21
46.9759
  0
LINE
  8
0
 10
-27.1289
 20
46.9759
 11
-26.5451
 21
46.7447
  0
LINE
  8
0
 10
-26.5451
 20
46.7447
 11
-25.9369
 21
46.5886
  0
LINE
  8
0
 10
-25.9369
 20
46.5886
 11
-25.3139
 21
46.5099
  0
LINE
  8
0
 10
-25.3139
 20
46.5099
 11
25.3139
 21
46.5099
  0
LINE
  8
0
 10
25.3139
 20
46.5099
 11
25.9369
 21
46.5886
  0
LINE
  8
0
 10
22.387
 20
112.204
 11
22.1627
 21
112.232
  0
LINE
  8
0
 10
22.1627
 20
112.232
 11
21.9438
 21
112.288
  0
LINE
  8
0
 10
21.9438
 20
112.288
 11
21.7336
 21
112.371
  0
LINE
  8
0
 10
21.7336
 20
112.371
 11
21.5355
 21
112.48
  0
LINE
  8
0
 10
21.5355
 20
112.48
 11
21.3526
 21
112.613
  0
LINE
  8
0
 10
21.3526
 20
112.613
 11
21.1879
 21
112.768
  0
LINE
  8
0
 10
21.1879
 20
112.768
 11
21.0438
 21
112.942
  0
LINE
  8
0
 10
21.0438
 20
112.942
 11
20.9226
 21
113.133
  0
LINE
  8
0
 10
20.9226
 20
113.133
 11
20.8264
 21
113.337
  0
LINE
  8
0
 10
20.8264
 20
113.337
 11
20.7565
 21
113.552
  0
LINE
  8
0
 10
20.7565
 20
113.552
 11
20.7142
 21
113.774
  0
LINE
  8
0
 10
20.7142
 20
113.774
 11
20.7
 21
114
  0
LINE
  8
0
 10
20.7
 20
114
 11
20.7142
 21
114.226
  0
LINE
  8
0
 10
20.7142
 20
114.226
 11
20.7565
 21
114.448
  0
LINE
  8
0
 10
20.7565
 20
114.448
 11
20.8264
 21
114.663
  0
LINE
  8
0
 10
20.8264
 20
114.663
 11
20.9226
 21
114.867
  0
LINE
  8
0
 10
20.9226
 20
114.867
 11
21.0438
 21
115.058
  0
LINE
  8
0
 10
21.0438
 20
115.058
 11
21.1879
 21
115.232
  0
LINE
  8
0
 10
21.1879
 20
115.232
 11
21.3526
 21
115.387
  0
LINE
  8
0
 10
21.3526
 20
115.387
 11
21.5355
 21
115.52
  0
LINE
  8
0
 10
21.5355
 20
115.52
 11
21.7336
 21
115.629
  0
LINE
  8
0
 10
21.7336
 20
115.629
 11
21.9438
 21
115.712
  0
LINE
  8
0
 10
21.9438
 20
115.712
 11
22.1627
 21
115.768
  0
LINE
  8
0
 10
22.1627
 20
115.768
 11
22.387
 21
115.796
  0
LINE
  8
0
 10
22.387
 20
115.796
 11
22.613
 21
115.796
  0
LINE
  8
0
 10
22.613
 20
115.796
 11
22.8373
 21
115.768
  0
LINE
  8
0
 10
22.8373
 20
115.768
 11
23.0562
 21
115.712
  0
LINE
  8
0
 10
23.0562
 20
115.712
 11
23.2664
 21
115.629
  0
LINE
  8
0
 10
23.2664
 20
115.629
 11
23.4645
 21
115.52
  0
LINE
  8
0
 10
23.4645
 20
115.52
 11
23.6474
 21
115.387
  0
LINE
  8
0
 10
23.6474
 20
115.387
 11
23.8121
 21
115.232
  0
LINE
  8
0
 10
23.8121
 20
115.232
 11
23.9562
 21
115.058
  0
LINE
  8
0
 10
23.9562
 20
115.058
 11
24.0773
 21
114.867
  0
LINE
  8
0
 10
24.0773
 20
114.867
 11
24.1736
 21
114.663
  0
LINE
  8
0
 10
24.1736
 20
114.663
 11
24.2434
 21
114.448
  0
LINE
  8
0
 10
24.2434
 20
114.448
 11
24.2858
 21
114.226
  0
LINE
  8
0
 10
24.2858
 20
114.226
 11
24.3
 21
114
  0
LINE
  8
0
 10
24.3
 20
114
 11
24.2858
 21
113.774
  0
LINE
  8
0
 10
24.2858
 20
113.774
 11
24.2434
 21
113.552
  0
LINE
  8
0
 10
24.2434
 20
113.552
 11
24.1736
 21
113.337
  0
LINE
  8
0
 10
24.1736
 20
113.337
 11
24.0773
 21
113.133
  0
LINE
  8
0
 10
24.0773
 20
113.133
 11
23.9562
 21
112.942
  0
LINE
  8
0
 10
23.9562
 20
112.942
 11
23.8121
 21
112.768
  0
LINE
  8
0
 10
23.8121
 20
112.768
 11
23.6474
 21
112.613
  0
LINE
  8
0
 10
23.6474
 20
112.613
 11
23.4645
 21
112.48
  0
LINE
  8
0
 10
23.4645
 20
112.48
 11
23.2664
 21
112.371
  0
LINE
  8
0
 10
23.2664
 20
112.371
 11
23.0562
 21
112.288
  0
LINE
  8
0
 10
23.0562
 20
112.288
 11
22.8373
 21
112.232
  0
LINE
  8
0
 10
22.8373
 20
112.232
 11
22.613
 21
112.204
  0
LINE
  8
0
 10
22.613
 20
112.204
 11
22.387
 21
112.204
  0
LINE
  8
0
 10
-22.613
 20
112.204
 11
-22.8373
 21
112.232
  0
LINE
  8
0
 10
-22.8373
 20
112.232
 11
-23.0562
 21
112.288
  0
LINE
  8
0
 10
-23.0562
 20
112.288
 11
-23.2664
 21
112.371
  0
LINE
  8
0
 10
-23.2664
 20
112.371
 11
-23.4645
 21
112.48
  0
LINE
  8
0
 10
-23.4645
 20
112.48
 11
-23.6474
 21
112.613
  0
LINE
  8
0
 10
-23.6474
 20
112.613
 11
-23.8121
 21
112.768
  0
LINE
  8
0
 10
-23.8121
 20
112.768
 11
-23.9562
 21
112.942
  0
LINE
  8
0
 10
-23.9562
 20
112.942
 11
-24.0773
 21
113.133
  0
LINE
  8
0
 10
-24.0773
 20
113.133
 11
-24.1736
 21
113.337
  0
LINE
  8
0
 10
-24.1736
 20
113.337
 11
-24.2434
 21
113.552
  0
LINE
  8
0
 10
-24.2434
 20
113.552
 11
-24.2858
 21
113.774
  0
LINE
  8
0
 10
-24.2858
 20
113.774
 11
-24.3
 21
114
  0
LINE
  8
0
 10
-24.3
 20
114
 11
-24.2858
 21
114.226
  0
LINE
  8
0
 10
-24.2858
 20
114.226
 11
-24.2434
 21
114.448
  0
LINE
  8
0
 10
-24.2434
 20
114.448
 11
-24.1736
 21
114.663
  0
LINE
  8
0
 10
-24.1736
 20
114.663
 11
-24.0773
 21
114.867
  0
LINE
  8
0
 10
-24.0773
 20
114.867
 11
-23.9562
 21
115.058
  0
LINE
  8
0
 10
-23.9562
 20
115.058
 11
-23.8121
 21
115.232
  0
LINE
  8
0
 10
-23.8121
 20
115.232
 11
-23.6474
 21
115.387
  0
LINE
  8
0
 10
-23.6474
 20
115.387
 11
-23.4645
 21
115.52
  0
LINE
  8
0
 10
-23.4645
 20
115.52
 11
-23.2664
 21
115.629
  0
LINE
  8
0
 10
-23.2664
 20
115.629
 11
-23.0562
 21
115.712
  0
LINE
  8
0
 10
-23.0562
 20
115.712
 11
-22.8373
 21
115.768
  0
LINE
  8
0
 10
-22.8373
 20
115.768
 11
-22.613
 21
115.796
  0
LINE
  8
0
 10
-22.613
 20
115.796
 11
-22.387
 21
115.796
  0
LINE
  8
0
 10
-22.387
 20
115.796
 11
-22.1627
 21
115.768
  0
LINE
  8
0
 10
-22.1627
 20
115.768
 11
-21.9438
 21
115.712
  0
LINE
  8
0
 10
-21.9438
 20
115.712
 11
-21.7336
 21
115.629
  0
LINE
  8
0
 10
-21.7336
 20
115.629
 11
-21.5355
 21
115.52
  0
LINE
  8
0
 10
-21.5355
 20
115.52
 11
-21.3526
 21
115.387
  0
LINE
  8
0
 10
-21.3526
 20
115.387
 11
-21.1879
 21
115.232
  0
LINE
  8
0
 10
-21.1879
 20
115.232
 11
-21.0438
 21
115.058
  0
LINE
  8
0
 10
-21.0438
 20
115.058
 11
-20.9226
 21
114.867
  0
LINE
  8
0
 10
-20.9226
 20
114.867
 11
-20.8264
 21
114.663
  0
LINE
  8
0
 10
-20.8264
 20
114.663
 11
-20.7565
 21
114.448
  0
LINE
  8
0
 10
-20.7565
 20
114.448
 11
-20.7142
 21
114.226
  0
LINE
  8
0
 10
-20.7142
 20
114.226
 11
-20.7
 21
114
  0
LINE
  8
0
 10
-20.7
 20
114
 11
-20.7142
 21
113.774
  0
LINE
  8
0
 10
-20.7142
 20
113.774
 11
-20.7565
 21
113.552
  0
LINE
  8
0
 10
-20.7565
 20
113.552
 11
-20.8264
 21
113.337
  0
LINE
  8
0
 10
-20.8264
 20
113.337
 11
-20.9226
 21
113.133
  0
LINE
  8
0
 10
-20.9226
 20
113.133
 11
-21.0438
 21
112.942
  0
LINE
  8
0
 10
-21.0438
 20
112.942
 11
-21.1879
 21
112.768
  0
LINE
  8
0
 10
-21.1879
 20
112.768
 11
-21.3526
 21
112.613
  0
LINE
  8
0
 10
-21.3526
 20
112.613
 11
-21.5355
 21
112.48
  0
LINE
  8
0
 10
-21.5355
 20
112.48
 11
-21.7336
 21
112.371
  0
LINE
  8
0
 10
-21.7336
 20
112.371
 11
-21.9438
 21
112.288
  0
LINE
  8
0
 10
-21.9438
 20
112.288
 11
-22.1627
 21
112.232
  0
LINE
  8
0
 10
-22.1627
 20
112.232
 11
-22.387
 21
112.204
  0
LINE
  8
0
 10
-22.387
 20
112.204
 11
-22.613
 21
112.204
  0
LINE
  8
0
 10
-22.613
 20
52.2036
 11
-22.8373
 21
52.2319
  0
LINE
  8
0
 10
-22.8373
 20
52.2319
 11
-23.0562
 21
52.2881
  0
LINE
  8
0
 10
-23.0562
 20
52.2881
 11
-23.2664
 21
52.3713
  0
LINE
  8
0
 10
-23.2664
 20
52.3713
 11
-23.4645
 21
52.4802
  0
LINE
  8
0
 10
-23.4645
 20
52.4802
 11
-23.6474
 21
52.6131
  0
LINE
  8
0
 10
-23.6474
 20
52.6131
 11
-23.8121
 21
52.7678
  0
LINE
  8
0
 10
-23.8121
 20
52.7678
 11
-23.9562
 21
52.942
  0
LINE
  8
0
 10
-23.9562
 20
52.942
 11
-24.0773
 21
53.1328
  0
LINE
  8
0
 10
-24.0773
 20
53.1328
 11
-24.1736
 21
53.3374
  0
LINE
  8
0
 10
-24.1736
 20
53.3374
 11
-24.2434
 21
53.5524
  0
LINE
  8
0
 10
-24.2434
 20
53.5524
 11
-24.2858
 21
53.7744
  0
LINE
  8
0
 10
-24.2858
 20
53.7744
 11
-24.3
 21
54
  0
LINE
  8
0
 10
-24.3
 20
54
 11
-24.2858
 21
54.2256
  0
LINE
  8
0
 10
-24.2858
 20
54.2256
 11
-24.2434
 21
54.4476
  0
LINE
  8
0
 10
-24.2434
 20
54.4476
 11
-24.1736
 21
54.6626
  0
LINE
  8
0
 10
-24.1736
 20
54.6626
 11
-24.0773
 21
54.8672
  0
LINE
  8
0
 10
-24.0773
 20
54.8672
 11
-23.9562
 21
55.058
  0
LINE
  8
0
 10
-23.9562
 20
55.058
 11
-23.8121
 21
55.2322
  0
LINE
  8
0
 10
-23.8121
 20
55.2322
 11
-23.6474
 21
55.3869
  0
LINE
  8
0
 10
-23.6474
 20
55.3869
 11
-23.4645
 21
55.5198
  0
LINE
  8
0
 10
-23.4645
 20
55.5198
 11
-23.2664
 21
55.6287
  0
LINE
  8
0
 10
-23.2664
 20
55.6287
 11
-23.0562
 21
55.7119
  0
LINE
  8
0
 10
-23.0562
 20
55.7119
 11
-22.8373
 21
55.7681
  0
LINE
  8
0
 10
-22.8373
 20
55.7681
 11
-22.613
 21
55.7964
  0
LINE
  8
0
 10
-22.613
 20
55.7964
 11
-22.387
 21
55.7964
  0
LINE
  8
0
 10
-22.387
 20
55.7964
 11
-22.1627
 21
55.7681
  0
LINE
  8
0
 10
-22.1627
 20
55.7681
 11
-21.9438
 21
55.7119
  0
LINE
  8
0
 10
-21.9438
 20
55.7119
 11
-21.7336
 21
55.6287
  0
LINE
  8
0
 10
-21.7336
 20
55.6287
 11
-21.5355
 21
55.5198
  0
LINE
  8
0
 10
-21.5355
 20
55.5198
 11
-21.3526
 21
55.3869
  0
LINE
  8
0
 10
-21.3526
 20
55.3869
 11
-21.1879
 21
55.2322
  0
LINE
  8
0
 10
-21.1879
 20
55.2322
 11
-21.0438
 21
55.058
  0
LINE
  8
0
 10
-21.0438
 20
55.058
 11
-20.9226
 21
54.8672
  0
LINE
  8
0
 10
-20.9226
 20
54.8672
 11
-20.8264
 21
54.6626
  0
LINE
  8
0
 10
-20.8264
 20
54.6626
 11
-20.7565
 21
54.4476
  0
LINE
  8
0
 10
-20.7565
 20
54.4476
 11
-20.7142
 21
54.2256
  0
LINE
  8
0
 10
-20.7142
 20
54.2256
 11
-20.7
 21
54
  0
LINE
  8
0
 10
-20.7
 20
54
 11
-20.7142
 21
53.7744
  0
LINE
  8
0
 10
-20.7142
 20
53.7744
 11
-20.7565
 21
53.5524
  0
LINE
  8
0
 10
-20.7565
 20
53.5524
 11
-20.8264
 21
53.3374
  0
LINE
  8
0
 10
-20.8264
 20
53.3374
 11
-20.9226
 21
53.1328
  0
LINE
  8
0
 10
-20.9226
 20
53.1328
 11
-21.0438
 21
52.942
  0
LINE
  8
0
 10
-21.0438
 20
52.942
 11
-21.1879
 21
52.7678
  0
LINE
  8
0
 10
-21.1879
 20
52.7678
 11
-21.3526
 21
52.6131
  0
LINE
  8
0
 10
-21.3526
 20
52.6131
 11
-21.5355
 21
52.4802
  0
LINE
  8
0
 10
-21.5355
 20
52.4802
 11
-21.7336
 21
52.3713
  0
LINE
  8
0
 10
-21.7336
 20
52.3713
 11
-21.9438
 21
52.2881
  0
LINE
  8
0
 10
-21.9438
 20
52.2881
 11
-22.1627
 21
52.2319
  0
LINE
  8
0
 10
-22.1627
 20
52.2319
 11
-22.387
 21
52.2036
  0
LINE
  8
0
 10
-22.387
 20
52.2036
 11
-22.613
 21
52.2036
  0
LINE
  8
0
 10
22.387
 20
52.2036
 11
22.1627
 21
52.2319
  0
LINE
  8
0
 10
22.1627
 20
52.2319
 11
21.9438
 21
52.2881
  0
LINE
  8
0
 10
21.9438
 20
52.2881
 11
21.7336
 21
52.3713
  0
LINE
  8
0
 10
21.7336
 20
52.3713
 11
21.5355
 21
52.4802
  0
LINE
  8
0
 10
21.5355
 20
52.4802
 11
21.3526
 21
52.6131
  0
LINE
  8
0
 10
21.3526
 20
52.6131
 11
21.1879
 21
52.7678
  0
LINE
  8
0
 10
21.1879
 20
52.7678
 11
21.0438
 21
52.942
  0
LINE
  8
0
 10
21.0438
 20
52.942
 11
20.9226
 21
53.1328
  0
LINE
  8
0
 10
20.9226
 20
53.1328
 11
20.8264
 21
53.3374
  0
LINE
  8
0
 10
20.8264
 20
53.3374
 11
20.7565
 21
53.5524
  0
LINE
  8
0
 10
20.7565
 20
53.5524
 11
20.7142
 21
53.7744
  0
LINE
  8
0
 10
20.7142
 20
53.7744
 11
20.7
 21
54
  0
LINE
  8
0
 10
20.7
 20
54
 11
20.7142
 21
54.2256
  0
LINE
  8
0
 10
20.7142
 20
54.2256
 11
20.7565
 21
54.4476
  0
LINE
  8
0
 10
20.7565
 20
54.4476
 11
20.8264
 21
54.6626
  0
LINE
  8
0
 10
20.8264
 20
54.6626
 11
20.9226
 21
54.8672
  0
LINE
  8
0
 10
20.9226
 20
54.8672
 11
21.0438
 21
55.058
  0
LINE
  8
0
 10
21.0438
 20
55.058
 11
21.1879
 21
55.2322
  0
LINE
  8
0
 10
21.1879
 20
55.2322
 11
21.3526
 21
55.3869
  0
LINE
  8
0
 10
21.3526
 20
55.3869
 11
21.5355
 21
55.5198
  0
LINE
  8
0
 10
21.5355
 20
55.5198
 11
21.7336
 21
55.6287
  0
LINE
  8
0
 10
21.7336
 20
55.6287
 11
21.9438
 21
55.7119
  0
LINE
  8
0
 10
21.9438
 20
55.7119
 11
22.1627
 21
55.7681
  0
LINE
  8
0
 10
22.1627
 20
55.7681
 11
22.387
 21
55.7964
  0
LINE
  8
0
 10
22.387
 20
55.7964
 11
22.613
 21
55.7964
  0
LINE
  8
0
 10
22.613
 20
55.7964
 11
22.8373
 21
55.7681
  0
LINE
  8
0
 10
22.8373
 20
55.7681
 11
23.0562
 21
55.7119
  0
LINE
  8
0
 10
23.0562
 20
55.7119
 11
23.2664
 21
55.6287
  0
LINE
  8
0
 10
23.2664
 20
55.6287
 11
23.4645
 21
55.5198
  0
LINE
  8
0
 10
23.4645
 20
55.5198
 11
23.6474
 21
55.3869
  0
LINE
  8
0
 10
23.6474
 20
55.3869
 11
23.8121
 21
55.2322
  0
LINE
  8
0
 10
23.8121
 20
55.2322
 11
23.9562
 21
55.058
  0
LINE
  8
0
 10
23.9562
 20
55.058
 11
24.0773
 21
54.8672
  0
LINE
  8
0
 10
24.0773
 20
54.8672
 11
24.1736
 21
54.6626
  0
LINE
  8
0
 10
24.1736
 20
54.6626
 11
24.2434
 21
54.4476
  0
LINE
  8
0
 10
24.2434
 20
54.4476
 11
24.2858
 21
54.2256
  0
LINE
  8
0
 10
24.2858
 20
54.2256
 11
24.3
 21
54
  0
LINE
  8
0
 10
24.3
 20
54
 11
24.2858
 21
53.7744
  0
LINE
  8
0
 10
24.2858
 20
53.7744
 11
24.2434
 21
53.5524
  0
LINE
  8
0
 10
24.2434
 20
53.5524
 11
24.1736
 21
53.3374
  0
LINE
  8
0
 10
24.1736
 20
53.3374
 11
24.0773
 21
53.1328
  0
LINE
  8
0
 10
24.0773
 20
53.1328
 11
23.9562
 21
52.942
  0
LINE
  8
0
 10
23.9562
 20
52.942
 11
23.8121
 21
52.7678
  0
LINE
  8
0
 10
23.8121
 20
52.7678
 11
23.6474
 21
52.6131
  0
LINE
  8
0
 10
23.6474
 20
52.6131
 11
23.4645
 21
52.4802
  0
LINE
  8
0
 10
23.4645
 20
52.4802
 11
23.2664
 21
52.3713
  0
LINE
  8
0
 10
23.2664
 20
52.3713
 11
23.0562
 21
52.2881
  0
LINE
  8
0
 10
23.0562
 20
52.2881
 11
22.8373
 21
52.2319
  0
LINE
  8
0
 10
22.8373
 20
52.2319
 11
22.613
 21
52.2036
  0
LINE
  8
0
 10
22.613
 20
52.2036
 11
22.387
 21
52.2036
  0
ENDSEC
  0
SECTION
  2
OBJECTS
  0
DICTIONARY
  0
ENDSEC
  0
EOF
