<?xml version="1.0" standalone="no"?>
<!DOCTYPE svg PUBLIC "-//W3C//DTD SVG 1.1//EN" "http://www.w3.org/Graphics/SVG/1.1/DTD/svg11.dtd">
<svg width="60mm" height="288mm" viewBox="-30 -441 60 288" xmlns="http://www.w3.org/2000/svg" version="1.1">
<title>OpenSCAD Model</title>
<path d="
M 25.9369,-351.089 L 26.5451,-351.245 L 27.1289,-351.476 L 27.6791,-351.778 L 28.1871,-352.147 L 28.6448,-352.577
 L 29.0451,-353.061 L 29.3815,-353.591 L 29.6489,-354.159 L 29.8429,-354.757 L 29.9606,-355.373 L 30,-356
 L 30,-436 L 29.9606,-436.627 L 29.8429,-437.243 L 29.6489,-437.841 L 29.3815,-438.409 L 29.0451,-438.939
 L 28.6448,-439.423 L 28.1871,-439.853 L 27.6791,-440.222 L 27.1289,-440.524 L 26.5451,-440.755 L 25.9369,-440.911
 L 25.3139,-440.99 L -25.3139,-440.99 L -25.9369,-440.911 L -26.5451,-440.755 L -27.1289,-440.524 L -27.6791,-440.222
 L -28.1871,-439.853 L -28.6448,-439.423 L -29.0451,-438.939 L -29.3815,-438.409 L -29.6489,-437.841 L -29.8429,-437.243
 L -29.9606,-436.627 L -30,-436 L -30,-356 L -29.9606,-355.373 L -29.8429,-354.757 L -29.6489,-354.159
 L -29.3815,-353.591 L -29.0451,-353.061 L -28.6448,-352.577 L -28.1871,-352.147 L -27.6791,-351.778 L -27.1289,-351.476
 L -26.5451,-351.245 L -25.9369,-351.089 L -25.3139,-351.01 L 25.3139,-351.01 z
M -24.7432,-352.635 L -25.2256,-352.696 L -25.6967,-352.817 L -26.1489,-352.996 L -26.5751,-353.23 L -26.9685,-353.516
 L -27.323,-353.849 L -27.633,-354.224 L -27.8936,-354.634 L -28.1007,-355.074 L -28.251,-355.537 L -28.3421,-356.015
 L -28.3726,-356.5 L -28.3726,-435.5 L -28.3421,-435.985 L -28.251,-436.463 L -28.1007,-436.926 L -27.8936,-437.366
 L -27.633,-437.776 L -27.323,-438.151 L -26.9685,-438.484 L -26.5751,-438.77 L -26.1489,-439.004 L -25.6967,-439.183
 L -25.2256,-439.304 L -24.7432,-439.365 L 24.7432,-439.365 L 25.2256,-439.304 L 25.6967,-439.183 L 26.1489,-439.004
 L 26.5751,-438.77 L 26.9685,-438.484 L 27.323,-438.151 L 27.633,-437.776 L 27.8936,-437.366 L 28.1007,-436.926
 L 28.251,-436.463 L 28.3421,-435.985 L 28.3726,-435.5 L 28.3726,-356.5 L 28.3421,-356.015 L 28.251,-355.537
 L 28.1007,-355.074 L 27.8936,-354.634 L 27.633,-354.224 L 27.323,-353.849 L 26.9685,-353.516 L 26.5751,-353.23
 L 26.1489,-352.996 L 25.6967,-352.817 L 25.2256,-352.696 L 24.7432,-352.635 z
M 25.9369,-252.089 L 26.5451,-252.245 L 27.1289,-252.476 L 27.6791,-252.778 L 28.1871,-253.147 L 28.6448,-253.577
 L 29.0451,-254.061 L 29.3815,-254.591 L 29.6489,-255.159 L 29.8429,-255.757 L 29.9606,-256.373 L 30,-257
 L 30,-337 L 29.9606,-337.627 L 29.8429,-338.243 L 29.6489,-338.841 L 29.3815,-339.409 L 29.0451,-339.939
 L 28.6448,-340.423 L 28.1871,-340.853 L 27.6791,-341.222 L 27.1289,-341.524 L 26.5451,-341.755 L 25.9369,-341.911
 L 25.3139,-341.99 L -25.3139,-341.99 L -25.9369,-341.911 L -26.5451,-341.755 L -27.1289,-341.524 L -27.6791,-341.222
 L -28.1871,-340.853 L -28.6448,-340.423 L -29.0451,-339.939 L -29.3815,-339.409 L -29.6489,-338.841 L -29.8429,-338.243
 L -29.9606,-337.627 L -30,-337 L -30,-257 L -29.9606,-256.373 L -29.8429,-255.757 L -29.6489,-255.159
 L -29.3815,-254.591 L -29.0451,-254.061 L -28.6448,-253.577 L -28.1871,-253.147 L -27.6791,-252.778 L -27.1289,-252.476
 L -26.5451,-252.245 L -25.9369,-252.089 L -25.3139,-252.01 L 25.3139,-252.01 z
M 25.9369,-153.089 L 26.5451,-153.245 L 27.1289,-153.476 L 27.6791,-153.778 L 28.1871,-154.147 L 28.6448,-154.577
 L 29.0451,-155.061 L 29.3815,-155.591 L 29.6489,-156.159 L 29.8429,-156.757 L 29.9606,-157.373 L 30,-158
 L 30,-238 L 29.9606,-238.627 L 29.8429,-239.243 L 29.6489,-239.841 L 29.3815,-240.409 L 29.0451,-240.939
 L 28.6448,-241.423 L 28.1871,-241.853 L 27.6791,-242.222 L 27.1289,-242.524 L 26.5451,-242.755 L 25.9369,-242.911
 L 25.3139,-242.99 L -25.3139,-242.99 L -25.9369,-242.911 L -26.5451,-242.755 L -27.1289,-242.524 L -27.6791,-242.222
 L -28.1871,-241.853 L -28.6448,-241.423 L -29.0451,-240.939 L -29.3815,-240.409 L -29.6489,-239.841 L -29.8429,-239.243
 L -29.9606,-238.627 L -30,-238 L -30,-158 L -29.9606,-157.373 L -29.8429,-156.757 L -29.6489,-156.159
 L -29.3815,-155.591 L -29.0451,-155.061 L -28.6448,-154.577 L -28.1871,-154.147 L -27.6791,-153.778 L -27.1289,-153.476
 L -26.5451,-153.245 L -25.9369,-153.089 L -25.3139,-153.01 L 25.3139,-153.01 z
M 22.387,-233.704 L 22.1627,-233.732 L 21.9438,-233.788 L 21.7336,-233.871 L 21.5355,-233.98 L 21.3526,-234.113
 L 21.1879,-234.268 L 21.0438,-234.442 L 20.9226,-234.633 L 20.8264,-234.837 L 20.7565,-235.052 L 20.7142,-235.274
 L 20.7,-235.5 L 20.7142,-235.726 L 20.7565,-235.948 L 20.8264,-236.163 L 20.9226,-236.367 L 21.0438,-236.558
 L 21.1879,-236.732 L 21.3526,-236.887 L 21.5355,-237.02 L 21.7336,-237.129 L 21.9438,-237.212 L 22.1627,-237.268
 L 22.387,-237.296 L 22.613,-237.296 L 22.8373,-237.268 L 23.0562,-237.212 L 23.2664,-237.129 L 23.4645,-237.02
 L 23.6474,-236.887 L 23.8121,-236.732 L 23.9562,-236.558 L 24.0773,-236.367 L 24.1736,-236.163 L 24.2434,-235.948
 L 24.2858,-235.726 L 24.3,-235.5 L 24.2858,-235.274 L 24.2434,-235.052 L 24.1736,-234.837 L 24.0773,-234.633
 L 23.9562,-234.442 L 23.8121,-234.268 L 23.6474,-234.113 L 23.4645,-233.98 L 23.2664,-233.871 L 23.0562,-233.788
 L 22.8373,-233.732 L 22.613,-233.704 z
M -22.613,-233.704 L -22.8373,-233.732 L -23.0562,-233.788 L -23.2664,-233.871 L -23.4645,-233.98 L -23.6474,-234.113
 L -23.8121,-234.268 L -23.9562,-234.442 L -24.0773,-234.633 L -24.1736,-234.837 L -24.2434,-235.052 L -24.2858,-235.274
 L -24.3,-235.5 L -24.2858,-235.726 L -24.2434,-235.948 L -24.1736,-236.163 L -24.0773,-236.367 L -23.9562,-236.558
 L -23.8121,-236.732 L -23.6474,-236.887 L -23.4645,-237.02 L -23.2664,-237.129 L -23.0562,-237.212 L -22.8373,-237.268
 L -22.613,-237.296 L -22.387,-237.296 L -22.1627,-237.268 L -21.9438,-237.212 L -21.7336,-237.129 L -21.5355,-237.02
 L -21.3526,-236.887 L -21.1879,-236.732 L -21.0438,-236.558 L -20.9226,-236.367 L -20.8264,-236.163 L -20.7565,-235.948
 L -20.7142,-235.726 L -20.7,-235.5 L -20.7142,-235.274 L -20.7565,-235.052 L -20.8264,-234.837 L -20.9226,-234.633
 L -21.0438,-234.442 L -21.1879,-234.268 L -21.3526,-234.113 L -21.5355,-233.98 L -21.7336,-233.871 L -21.9438,-233.788
 L -22.1627,-233.732 L -22.387,-233.704 z
M -22.613,-158.704 L -22.8373,-158.732 L -23.0562,-158.788 L -23.2664,-158.871 L -23.4645,-158.98 L -23.6474,-159.113
 L -23.8121,-159.268 L -23.9562,-159.442 L -24.0773,-159.633 L -24.1736,-159.837 L -24.2434,-160.052 L -24.2858,-160.274
 L -24.3,-160.5 L -24.2858,-160.726 L -24.2434,-160.948 L -24.1736,-161.163 L -24.0773,-161.367 L -23.9562,-161.558
 L -23.8121,-161.732 L -23.6474,-161.887 L -23.4645,-162.02 L -23.2664,-162.129 L -23.0562,-162.212 L -22.8373,-162.268
 L -22.613,-162.296 L -22.387,-162.296 L -22.1627,-162.268 L -21.9438,-162.212 L -21.7336,-162.129 L -21.5355,-162.02
 L -21.3526,-161.887 L -21.1879,-161.732 L -21.0438,-161.558 L -20.9226,-161.367 L -20.8264,-161.163 L -20.7565,-160.948
 L -20.7142,-160.726 L -20.7,-160.5 L -20.7142,-160.274 L -20.7565,-160.052 L -20.8264,-159.837 L -20.9226,-159.633
 L -21.0438,-159.442 L -21.1879,-159.268 L -21.3526,-159.113 L -21.5355,-158.98 L -21.7336,-158.871 L -21.9438,-158.788
 L -22.1627,-158.732 L -22.387,-158.704 z
M 22.387,-158.704 L 22.1627,-158.732 L 21.9438,-158.788 L 21.7336,-158.871 L 21.5355,-158.98 L 21.3526,-159.113
 L 21.1879,-159.268 L 21.0438,-159.442 L 20.9226,-159.633 L 20.8264,-159.837 L 20.7565,-160.052 L 20.7142,-160.274
 L 20.7,-160.5 L 20.7142,-160.726 L 20.7565,-160.948 L 20.8264,-161.163 L 20.9226,-161.367 L 21.0438,-161.558
 L 21.1879,-161.732 L 21.3526,-161.887 L 21.5355,-162.02 L 21.7336,-162.129 L 21.9438,-162.212 L 22.1627,-162.268
 L 22.387,-162.296 L 22.613,-162.296 L 22.8373,-162.268 L 23.0562,-162.212 L 23.2664,-162.129 L 23.4645,-162.02
 L 23.6474,-161.887 L 23.8121,-161.732 L 23.9562,-161.558 L 24.0773,-161.367 L 24.1736,-161.163 L 24.2434,-160.948
 L 24.2858,-160.726 L 24.3,-160.5 L 24.2858,-160.274 L 24.2434,-160.052 L 24.1736,-159.837 L 24.0773,-159.633
 L 23.9562,-159.442 L 23.8121,-159.268 L 23.6474,-159.113 L 23.4645,-158.98 L 23.2664,-158.871 L 23.0562,-158.788
 L 22.8373,-158.732 L 22.613,-158.704 z
" stroke="black" fill="lightgray" stroke-width="0.5"/>
</svg>
