  0
SECTION
  2
BLOCKS
  0
ENDSEC
  0
SECTION
  2
ENTITIES
  0
LINE
  8
0
 10
63.4369
 20
40.5886
 11
64.0451
 21
40.7447
  0
LINE
  8
0
 10
64.0451
 20
40.7447
 11
64.6289
 21
40.9759
  0
LINE
  8
0
 10
64.6289
 20
40.9759
 11
65.1791
 21
41.2784
  0
LINE
  8
0
 10
65.1791
 20
41.2784
 11
65.6871
 21
41.6474
  0
LINE
  8
0
 10
65.6871
 20
41.6474
 11
66.1448
 21
42.0773
  0
LINE
  8
0
 10
66.1448
 20
42.0773
 11
66.5451
 21
42.5611
  0
LINE
  8
0
 10
66.5451
 20
42.5611
 11
66.8815
 21
43.0912
  0
LINE
  8
0
 10
66.8815
 20
43.0912
 11
67.1489
 21
43.6594
  0
LINE
  8
0
 10
67.1489
 20
43.6594
 11
67.3429
 21
44.2566
  0
LINE
  8
0
 10
67.3429
 20
44.2566
 11
67.4606
 21
44.8733
  0
LINE
  8
0
 10
67.4606
 20
44.8733
 11
67.5
 21
45.5
  0
LINE
  8
0
 10
67.5
 20
45.5
 11
67.5
 21
50.5
  0
LINE
  8
0
 10
67.5
 20
50.5
 11
67.4606
 21
51.1267
  0
LINE
  8
0
 10
67.4606
 20
51.1267
 11
67.3429
 21
51.7434
  0
LINE
  8
0
 10
67.3429
 20
51.7434
 11
67.1489
 21
52.3406
  0
LINE
  8
0
 10
67.1489
 20
52.3406
 11
66.8815
 21
52.9088
  0
LINE
  8
0
 10
66.8815
 20
52.9088
 11
66.5451
 21
53.4389
  0
LINE
  8
0
 10
66.5451
 20
53.4389
 11
66.1448
 21
53.9227
  0
LINE
  8
0
 10
66.1448
 20
53.9227
 11
65.6871
 21
54.3526
  0
LINE
  8
0
 10
65.6871
 20
54.3526
 11
65.1791
 21
54.7216
  0
LINE
  8
0
 10
65.1791
 20
54.7216
 11
64.6289
 21
55.0241
  0
LINE
  8
0
 10
64.6289
 20
55.0241
 11
64.0451
 21
55.2553
  0
LINE
  8
0
 10
64.0451
 20
55.2553
 11
63.4369
 21
55.4114
  0
LINE
  8
0
 10
63.4369
 20
55.4114
 11
62.8139
 21
55.4901
  0
LINE
  8
0
 10
62.8139
 20
55.4901
 11
-62.8139
 21
55.4901
  0
LINE
  8
0
 10
-62.8139
 20
55.4901
 11
-63.4369
 21
55.4114
  0
LINE
  8
0
 10
-63.4369
 20
55.4114
 11
-64.0451
 21
55.2553
  0
LINE
  8
0
 10
-64.0451
 20
55.2553
 11
-64.6289
 21
55.0241
  0
LINE
  8
0
 10
-64.6289
 20
55.0241
 11
-65.1791
 21
54.7216
  0
LINE
  8
0
 10
-65.1791
 20
54.7216
 11
-65.6871
 21
54.3526
  0
LINE
  8
0
 10
-65.6871
 20
54.3526
 11
-66
 21
54.0587
  0
LINE
  8
0
 10
-66
 20
54.0587
 11
-66
 21
55.1148
  0
LINE
  8
0
 10
-66
 20
55.1148
 11
-69
 21
55.1148
  0
LINE
  8
0
 10
-69
 20
55.1148
 11
-69
 21
40.8852
  0
LINE
  8
0
 10
-69
 20
40.8852
 11
-66
 21
40.8852
  0
LINE
  8
0
 10
-66
 20
40.8852
 11
-66
 21
41.9413
  0
LINE
  8
0
 10
-66
 20
41.9413
 11
-65.6871
 21
41.6474
  0
LINE
  8
0
 10
-65.6871
 20
41.6474
 11
-65.1791
 21
41.2784
  0
LINE
  8
0
 10
-65.1791
 20
41.2784
 11
-64.6289
 21
40.9759
  0
LINE
  8
0
 10
-64.6289
 20
40.9759
 11
-64.0451
 21
40.7447
  0
LINE
  8
0
 10
-64.0451
 20
40.7447
 11
-63.4369
 21
40.5886
  0
LINE
  8
0
 10
-63.4369
 20
40.5886
 11
-62.8139
 21
40.5099
  0
LINE
  8
0
 10
-62.8139
 20
40.5099
 11
62.8139
 21
40.5099
  0
LINE
  8
0
 10
62.8139
 20
40.5099
 11
63.4369
 21
40.5886
  0
LINE
  8
0
 10
63.4369
 20
16.5886
 11
64.0451
 21
16.7447
  0
LINE
  8
0
 10
64.0451
 20
16.7447
 11
64.6289
 21
16.9759
  0
LINE
  8
0
 10
64.6289
 20
16.9759
 11
65.1791
 21
17.2784
  0
LINE
  8
0
 10
65.1791
 20
17.2784
 11
65.6871
 21
17.6474
  0
LINE
  8
0
 10
65.6871
 20
17.6474
 11
66.1448
 21
18.0773
  0
LINE
  8
0
 10
66.1448
 20
18.0773
 11
66.5451
 21
18.5611
  0
LINE
  8
0
 10
66.5451
 20
18.5611
 11
66.8815
 21
19.0912
  0
LINE
  8
0
 10
66.8815
 20
19.0912
 11
67.1489
 21
19.6594
  0
LINE
  8
0
 10
67.1489
 20
19.6594
 11
67.3429
 21
20.2566
  0
LINE
  8
0
 10
67.3429
 20
20.2566
 11
67.4606
 21
20.8733
  0
LINE
  8
0
 10
67.4606
 20
20.8733
 11
67.5
 21
21.5
  0
LINE
  8
0
 10
67.5
 20
21.5
 11
67.5
 21
26.5
  0
LINE
  8
0
 10
67.5
 20
26.5
 11
67.4606
 21
27.1267
  0
LINE
  8
0
 10
67.4606
 20
27.1267
 11
67.3429
 21
27.7434
  0
LINE
  8
0
 10
67.3429
 20
27.7434
 11
67.1489
 21
28.3406
  0
LINE
  8
0
 10
67.1489
 20
28.3406
 11
66.8815
 21
28.9088
  0
LINE
  8
0
 10
66.8815
 20
28.9088
 11
66.5451
 21
29.4389
  0
LINE
  8
0
 10
66.5451
 20
29.4389
 11
66.1448
 21
29.9227
  0
LINE
  8
0
 10
66.1448
 20
29.9227
 11
65.6871
 21
30.3526
  0
LINE
  8
0
 10
65.6871
 20
30.3526
 11
65.1791
 21
30.7216
  0
LINE
  8
0
 10
65.1791
 20
30.7216
 11
64.6289
 21
31.0241
  0
LINE
  8
0
 10
64.6289
 20
31.0241
 11
64.0451
 21
31.2553
  0
LINE
  8
0
 10
64.0451
 20
31.2553
 11
63.4369
 21
31.4114
  0
LINE
  8
0
 10
63.4369
 20
31.4114
 11
62.8139
 21
31.4901
  0
LINE
  8
0
 10
62.8139
 20
31.4901
 11
-62.8139
 21
31.4901
  0
LINE
  8
0
 10
-62.8139
 20
31.4901
 11
-63.4369
 21
31.4114
  0
LINE
  8
0
 10
-63.4369
 20
31.4114
 11
-64.0451
 21
31.2553
  0
LINE
  8
0
 10
-64.0451
 20
31.2553
 11
-64.6289
 21
31.0241
  0
LINE
  8
0
 10
-64.6289
 20
31.0241
 11
-65.1791
 21
30.7216
  0
LINE
  8
0
 10
-65.1791
 20
30.7216
 11
-65.6871
 21
30.3526
  0
LINE
  8
0
 10
-65.6871
 20
30.3526
 11
-66.1448
 21
29.9227
  0
LINE
  8
0
 10
-66.1448
 20
29.9227
 11
-66.5451
 21
29.4389
  0
LINE
  8
0
 10
-66.5451
 20
29.4389
 11
-66.8815
 21
28.9088
  0
LINE
  8
0
 10
-66.8815
 20
28.9088
 11
-67.1489
 21
28.3406
  0
LINE
  8
0
 10
-67.1489
 20
28.3406
 11
-67.3429
 21
27.7434
  0
LINE
  8
0
 10
-67.3429
 20
27.7434
 11
-67.4
 21
27.4442
  0
LINE
  8
0
 10
-67.4
 20
27.4442
 11
-69
 21
27.4442
  0
LINE
  8
0
 10
-69
 20
27.4442
 11
-69
 21
20.5558
  0
LINE
  8
0
 10
-69
 20
20.5558
 11
-67.4
 21
20.5558
  0
LINE
  8
0
 10
-67.4
 20
20.5558
 11
-67.3429
 21
20.2566
  0
LINE
  8
0
 10
-67.3429
 20
20.2566
 11
-67.1489
 21
19.6594
  0
LINE
  8
0
 10
-67.1489
 20
19.6594
 11
-66.8815
 21
19.0912
  0
LINE
  8
0
 10
-66.8815
 20
19.0912
 11
-66.5451
 21
18.5611
  0
LINE
  8
0
 10
-66.5451
 20
18.5611
 11
-66.1448
 21
18.0773
  0
LINE
  8
0
 10
-66.1448
 20
18.0773
 11
-65.6871
 21
17.6474
  0
LINE
  8
0
 10
-65.6871
 20
17.6474
 11
-65.1791
 21
17.2784
  0
LINE
  8
0
 10
-65.1791
 20
17.2784
 11
-64.6289
 21
16.9759
  0
LINE
  8
0
 10
-64.6289
 20
16.9759
 11
-64.0451
 21
16.7447
  0
LINE
  8
0
 10
-64.0451
 20
16.7447
 11
-63.4369
 21
16.5886
  0
LINE
  8
0
 10
-63.4369
 20
16.5886
 11
-62.8139
 21
16.5099
  0
LINE
  8
0
 10
-62.8139
 20
16.5099
 11
62.8139
 21
16.5099
  0
LINE
  8
0
 10
62.8139
 20
16.5099
 11
63.4369
 21
16.5886
  0
LINE
  8
0
 10
-60.113
 20
22.2036
 11
-60.3373
 21
22.2319
  0
LINE
  8
0
 10
-60.3373
 20
22.2319
 11
-60.5562
 21
22.2881
  0
LINE
  8
0
 10
-60.5562
 20
22.2881
 11
-60.7664
 21
22.3713
  0
LINE
  8
0
 10
-60.7664
 20
22.3713
 11
-60.9645
 21
22.4802
  0
LINE
  8
0
 10
-60.9645
 20
22.4802
 11
-61.1474
 21
22.6131
  0
LINE
  8
0
 10
-61.1474
 20
22.6131
 11
-61.3121
 21
22.7678
  0
LINE
  8
0
 10
-61.3121
 20
22.7678
 11
-61.4562
 21
22.942
  0
LINE
  8
0
 10
-61.4562
 20
22.942
 11
-61.5773
 21
23.1329
  0
LINE
  8
0
 10
-61.5773
 20
23.1329
 11
-61.6736
 21
23.3374
  0
LINE
  8
0
 10
-61.6736
 20
23.3374
 11
-61.7434
 21
23.5524
  0
LINE
  8
0
 10
-61.7434
 20
23.5524
 11
-61.7858
 21
23.7744
  0
LINE
  8
0
 10
-61.7858
 20
23.7744
 11
-61.8
 21
24
  0
LINE
  8
0
 10
-61.8
 20
24
 11
-61.7858
 21
24.2256
  0
LINE
  8
0
 10
-61.7858
 20
24.2256
 11
-61.7434
 21
24.4476
  0
LINE
  8
0
 10
-61.7434
 20
24.4476
 11
-61.6736
 21
24.6626
  0
LINE
  8
0
 10
-61.6736
 20
24.6626
 11
-61.5773
 21
24.8671
  0
LINE
  8
0
 10
-61.5773
 20
24.8671
 11
-61.4562
 21
25.058
  0
LINE
  8
0
 10
-61.4562
 20
25.058
 11
-61.3121
 21
25.2322
  0
LINE
  8
0
 10
-61.3121
 20
25.2322
 11
-61.1474
 21
25.3869
  0
LINE
  8
0
 10
-61.1474
 20
25.3869
 11
-60.9645
 21
25.5198
  0
LINE
  8
0
 10
-60.9645
 20
25.5198
 11
-60.7664
 21
25.6287
  0
LINE
  8
0
 10
-60.7664
 20
25.6287
 11
-60.5562
 21
25.7119
  0
LINE
  8
0
 10
-60.5562
 20
25.7119
 11
-60.3373
 21
25.7681
  0
LINE
  8
0
 10
-60.3373
 20
25.7681
 11
-60.113
 21
25.7964
  0
LINE
  8
0
 10
-60.113
 20
25.7964
 11
-59.887
 21
25.7964
  0
LINE
  8
0
 10
-59.887
 20
25.7964
 11
-59.6627
 21
25.7681
  0
LINE
  8
0
 10
-59.6627
 20
25.7681
 11
-59.4438
 21
25.7119
  0
LINE
  8
0
 10
-59.4438
 20
25.7119
 11
-59.2336
 21
25.6287
  0
LINE
  8
0
 10
-59.2336
 20
25.6287
 11
-59.0355
 21
25.5198
  0
LINE
  8
0
 10
-59.0355
 20
25.5198
 11
-58.8526
 21
25.3869
  0
LINE
  8
0
 10
-58.8526
 20
25.3869
 11
-58.6879
 21
25.2322
  0
LINE
  8
0
 10
-58.6879
 20
25.2322
 11
-58.5438
 21
25.058
  0
LINE
  8
0
 10
-58.5438
 20
25.058
 11
-58.4226
 21
24.8671
  0
LINE
  8
0
 10
-58.4226
 20
24.8671
 11
-58.3264
 21
24.6626
  0
LINE
  8
0
 10
-58.3264
 20
24.6626
 11
-58.2565
 21
24.4476
  0
LINE
  8
0
 10
-58.2565
 20
24.4476
 11
-58.2142
 21
24.2256
  0
LINE
  8
0
 10
-58.2142
 20
24.2256
 11
-58.2
 21
24
  0
LINE
  8
0
 10
-58.2
 20
24
 11
-58.2142
 21
23.7744
  0
LINE
  8
0
 10
-58.2142
 20
23.7744
 11
-58.2565
 21
23.5524
  0
LINE
  8
0
 10
-58.2565
 20
23.5524
 11
-58.3264
 21
23.3374
  0
LINE
  8
0
 10
-58.3264
 20
23.3374
 11
-58.4226
 21
23.1329
  0
LINE
  8
0
 10
-58.4226
 20
23.1329
 11
-58.5438
 21
22.942
  0
LINE
  8
0
 10
-58.5438
 20
22.942
 11
-58.6879
 21
22.7678
  0
LINE
  8
0
 10
-58.6879
 20
22.7678
 11
-58.8526
 21
22.6131
  0
LINE
  8
0
 10
-58.8526
 20
22.6131
 11
-59.0355
 21
22.4802
  0
LINE
  8
0
 10
-59.0355
 20
22.4802
 11
-59.2336
 21
22.3713
  0
LINE
  8
0
 10
-59.2336
 20
22.3713
 11
-59.4438
 21
22.2881
  0
LINE
  8
0
 10
-59.4438
 20
22.2881
 11
-59.6627
 21
22.2319
  0
LINE
  8
0
 10
-59.6627
 20
22.2319
 11
-59.887
 21
22.2036
  0
LINE
  8
0
 10
-59.887
 20
22.2036
 11
-60.113
 21
22.2036
  0
LINE
  8
0
 10
59.887
 20
22.2036
 11
59.6627
 21
22.2319
  0
LINE
  8
0
 10
59.6627
 20
22.2319
 11
59.4438
 21
22.2881
  0
LINE
  8
0
 10
59.4438
 20
22.2881
 11
59.2336
 21
22.3713
  0
LINE
  8
0
 10
59.2336
 20
22.3713
 11
59.0355
 21
22.4802
  0
LINE
  8
0
 10
59.0355
 20
22.4802
 11
58.8526
 21
22.6131
  0
LINE
  8
0
 10
58.8526
 20
22.6131
 11
58.6879
 21
22.7678
  0
LINE
  8
0
 10
58.6879
 20
22.7678
 11
58.5438
 21
22.942
  0
LINE
  8
0
 10
58.5438
 20
22.942
 11
58.4226
 21
23.1329
  0
LINE
  8
0
 10
58.4226
 20
23.1329
 11
58.3264
 21
23.3374
  0
LINE
  8
0
 10
58.3264
 20
23.3374
 11
58.2565
 21
23.5524
  0
LINE
  8
0
 10
58.2565
 20
23.5524
 11
58.2142
 21
23.7744
  0
LINE
  8
0
 10
58.2142
 20
23.7744
 11
58.2
 21
24
  0
LINE
  8
0
 10
58.2
 20
24
 11
58.2142
 21
24.2256
  0
LINE
  8
0
 10
58.2142
 20
24.2256
 11
58.2565
 21
24.4476
  0
LINE
  8
0
 10
58.2565
 20
24.4476
 11
58.3264
 21
24.6626
  0
LINE
  8
0
 10
58.3264
 20
24.6626
 11
58.4226
 21
24.8671
  0
LINE
  8
0
 10
58.4226
 20
24.8671
 11
58.5438
 21
25.058
  0
LINE
  8
0
 10
58.5438
 20
25.058
 11
58.6879
 21
25.2322
  0
LINE
  8
0
 10
58.6879
 20
25.2322
 11
58.8526
 21
25.3869
  0
LINE
  8
0
 10
58.8526
 20
25.3869
 11
59.0355
 21
25.5198
  0
LINE
  8
0
 10
59.0355
 20
25.5198
 11
59.2336
 21
25.6287
  0
LINE
  8
0
 10
59.2336
 20
25.6287
 11
59.4438
 21
25.7119
  0
LINE
  8
0
 10
59.4438
 20
25.7119
 11
59.6627
 21
25.7681
  0
LINE
  8
0
 10
59.6627
 20
25.7681
 11
59.887
 21
25.7964
  0
LINE
  8
0
 10
59.887
 20
25.7964
 11
60.113
 21
25.7964
  0
LINE
  8
0
 10
60.113
 20
25.7964
 11
60.3373
 21
25.7681
  0
LINE
  8
0
 10
60.3373
 20
25.7681
 11
60.5562
 21
25.7119
  0
LINE
  8
0
 10
60.5562
 20
25.7119
 11
60.7664
 21
25.6287
  0
LINE
  8
0
 10
60.7664
 20
25.6287
 11
60.9645
 21
25.5198
  0
LINE
  8
0
 10
60.9645
 20
25.5198
 11
61.1474
 21
25.3869
  0
LINE
  8
0
 10
61.1474
 20
25.3869
 11
61.3121
 21
25.2322
  0
LINE
  8
0
 10
61.3121
 20
25.2322
 11
61.4562
 21
25.058
  0
LINE
  8
0
 10
61.4562
 20
25.058
 11
61.5773
 21
24.8671
  0
LINE
  8
0
 10
61.5773
 20
24.8671
 11
61.6736
 21
24.6626
  0
LINE
  8
0
 10
61.6736
 20
24.6626
 11
61.7434
 21
24.4476
  0
LINE
  8
0
 10
61.7434
 20
24.4476
 11
61.7858
 21
24.2256
  0
LINE
  8
0
 10
61.7858
 20
24.2256
 11
61.8
 21
24
  0
LINE
  8
0
 10
61.8
 20
24
 11
61.7858
 21
23.7744
  0
LINE
  8
0
 10
61.7858
 20
23.7744
 11
61.7434
 21
23.5524
  0
LINE
  8
0
 10
61.7434
 20
23.5524
 11
61.6736
 21
23.3374
  0
LINE
  8
0
 10
61.6736
 20
23.3374
 11
61.5773
 21
23.1329
  0
LINE
  8
0
 10
61.5773
 20
23.1329
 11
61.4562
 21
22.942
  0
LINE
  8
0
 10
61.4562
 20
22.942
 11
61.3121
 21
22.7678
  0
LINE
  8
0
 10
61.3121
 20
22.7678
 11
61.1474
 21
22.6131
  0
LINE
  8
0
 10
61.1474
 20
22.6131
 11
60.9645
 21
22.4802
  0
LINE
  8
0
 10
60.9645
 20
22.4802
 11
60.7664
 21
22.3713
  0
LINE
  8
0
 10
60.7664
 20
22.3713
 11
60.5562
 21
22.2881
  0
LINE
  8
0
 10
60.5562
 20
22.2881
 11
60.3373
 21
22.2319
  0
LINE
  8
0
 10
60.3373
 20
22.2319
 11
60.113
 21
22.2036
  0
LINE
  8
0
 10
60.113
 20
22.2036
 11
59.887
 21
22.2036
  0
ENDSEC
  0
SECTION
  2
OBJECTS
  0
DICTIONARY
  0
ENDSEC
  0
EOF
