<?xml version="1.0" standalone="no"?>
<!DOCTYPE svg PUBLIC "-//W3C//DTD SVG 1.1//EN" "http://www.w3.org/Graphics/SVG/1.1/DTD/svg11.dtd">
<svg width="137mm" height="40mm" viewBox="-69 -56 137 40" xmlns="http://www.w3.org/2000/svg" version="1.1">
<title>OpenSCAD Model</title>
<path d="
M 63.4369,-40.5886 L 64.0451,-40.7447 L 64.6289,-40.9759 L 65.1791,-41.2784 L 65.6871,-41.6474 L 66.1448,-42.0773
 L 66.5451,-42.5611 L 66.8815,-43.0912 L 67.1489,-43.6594 L 67.3429,-44.2566 L 67.4606,-44.8733 L 67.5,-45.5
 L 67.5,-50.5 L 67.4606,-51.1267 L 67.3429,-51.7434 L 67.1489,-52.3406 L 66.8815,-52.9088 L 66.5451,-53.4389
 L 66.1448,-53.9227 L 65.6871,-54.3526 L 65.1791,-54.7216 L 64.6289,-55.0241 L 64.0451,-55.2553 L 63.4369,-55.4114
 L 62.8139,-55.4901 L -62.8139,-55.4901 L -63.4369,-55.4114 L -64.0451,-55.2553 L -64.6289,-55.0241 L -65.1791,-54.7216
 L -65.6871,-54.3526 L -66,-54.0587 L -66,-55.1148 L -69,-55.1148 L -69,-40.8852 L -66,-40.8852
 L -66,-41.9413 L -65.6871,-41.6474 L -65.1791,-41.2784 L -64.6289,-40.9759 L -64.0451,-40.7447 L -63.4369,-40.5886
 L -62.8139,-40.5099 L 62.8139,-40.5099 z
M 63.4369,-16.5886 L 64.0451,-16.7447 L 64.6289,-16.9759 L 65.1791,-17.2784 L 65.6871,-17.6474 L 66.1448,-18.0773
 L 66.5451,-18.5611 L 66.8815,-19.0912 L 67.1489,-19.6594 L 67.3429,-20.2566 L 67.4606,-20.8733 L 67.5,-21.5
 L 67.5,-26.5 L 67.4606,-27.1267 L 67.3429,-27.7434 L 67.1489,-28.3406 L 66.8815,-28.9088 L 66.5451,-29.4389
 L 66.1448,-29.9227 L 65.6871,-30.3526 L 65.1791,-30.7216 L 64.6289,-31.0241 L 64.0451,-31.2553 L 63.4369,-31.4114
 L 62.8139,-31.4901 L -62.8139,-31.4901 L -63.4369,-31.4114 L -64.0451,-31.2553 L -64.6289,-31.0241 L -65.1791,-30.7216
 L -65.6871,-30.3526 L -66.1448,-29.9227 L -66.5451,-29.4389 L -66.8815,-28.9088 L -67.1489,-28.3406 L -67.3429,-27.7434
 L -67.4,-27.4442 L -69,-27.4442 L -69,-20.5558 L -67.4,-20.5558 L -67.3429,-20.2566 L -67.1489,-19.6594
 L -66.8815,-19.0912 L -66.5451,-18.5611 L -66.1448,-18.0773 L -65.6871,-17.6474 L -65.1791,-17.2784 L -64.6289,-16.9759
 L -64.0451,-16.7447 L -63.4369,-16.5886 L -62.8139,-16.5099 L 62.8139,-16.5099 z
M -60.113,-22.2036 L -60.3373,-22.2319 L -60.5562,-22.2881 L -60.7664,-22.3713 L -60.9645,-22.4802 L -61.1474,-22.6131
 L -61.3121,-22.7678 L -61.4562,-22.942 L -61.5773,-23.1329 L -61.6736,-23.3374 L -61.7434,-23.5524 L -61.7858,-23.7744
 L -61.8,-24 L -61.7858,-24.2256 L -61.7434,-24.4476 L -61.6736,-24.6626 L -61.5773,-24.8671 L -61.4562,-25.058
 L -61.3121,-25.2322 L -61.1474,-25.3869 L -60.9645,-25.5198 L -60.7664,-25.6287 L -60.5562,-25.7119 L -60.3373,-25.7681
 L -60.113,-25.7964 L -59.887,-25.7964 L -59.6627,-25.7681 L -59.4438,-25.7119 L -59.2336,-25.6287 L -59.0355,-25.5198
 L -58.8526,-25.3869 L -58.6879,-25.2322 L -58.5438,-25.058 L -58.4226,-24.8671 L -58.3264,-24.6626 L -58.2565,-24.4476
 L -58.2142,-24.2256 L -58.2,-24 L -58.2142,-23.7744 L -58.2565,-23.5524 L -58.3264,-23.3374 L -58.4226,-23.1329
 L -58.5438,-22.942 L -58.6879,-22.7678 L -58.8526,-22.6131 L -59.0355,-22.4802 L -59.2336,-22.3713 L -59.4438,-22.2881
 L -59.6627,-22.2319 L -59.887,-22.2036 z
M 59.887,-22.2036 L 59.6627,-22.2319 L 59.4438,-22.2881 L 59.2336,-22.3713 L 59.0355,-22.4802 L 58.8526,-22.6131
 L 58.6879,-22.7678 L 58.5438,-22.942 L 58.4226,-23.1329 L 58.3264,-23.3374 L 58.2565,-23.5524 L 58.2142,-23.7744
 L 58.2,-24 L 58.2142,-24.2256 L 58.2565,-24.4476 L 58.3264,-24.6626 L 58.4226,-24.8671 L 58.5438,-25.058
 L 58.6879,-25.2322 L 58.8526,-25.3869 L 59.0355,-25.5198 L 59.2336,-25.6287 L 59.4438,-25.7119 L 59.6627,-25.7681
 L 59.887,-25.7964 L 60.113,-25.7964 L 60.3373,-25.7681 L 60.5562,-25.7119 L 60.7664,-25.6287 L 60.9645,-25.5198
 L 61.1474,-25.3869 L 61.3121,-25.2322 L 61.4562,-25.058 L 61.5773,-24.8671 L 61.6736,-24.6626 L 61.7434,-24.4476
 L 61.7858,-24.2256 L 61.8,-24 L 61.7858,-23.7744 L 61.7434,-23.5524 L 61.6736,-23.3374 L 61.5773,-23.1329
 L 61.4562,-22.942 L 61.3121,-22.7678 L 61.1474,-22.6131 L 60.9645,-22.4802 L 60.7664,-22.3713 L 60.5562,-22.2881
 L 60.3373,-22.2319 L 60.113,-22.2036 z
" stroke="black" fill="lightgray" stroke-width="0.5"/>
</svg>
