<?xml version="1.0" standalone="no"?>
<!DOCTYPE svg PUBLIC "-//W3C//DTD SVG 1.1//EN" "http://www.w3.org/Graphics/SVG/1.1/DTD/svg11.dtd">
<svg width="107mm" height="64mm" viewBox="-54 -104 107 64" xmlns="http://www.w3.org/2000/svg" version="1.1">
<title>OpenSCAD Model</title>
<path d="
M -51,-89.9413 L -50.6871,-89.6474 L -50.1791,-89.2784 L -49.6289,-88.9759 L -49.0451,-88.7447 L -48.4369,-88.5886
 L -47.8139,-88.5099 L 47.8139,-88.5099 L 48.4369,-88.5886 L 49.0451,-88.7447 L 49.6289,-88.9759 L 50.1791,-89.2784
 L 50.6871,-89.6474 L 51.1448,-90.0773 L 51.5451,-90.5611 L 51.8815,-91.0912 L 52.1489,-91.6594 L 52.3429,-92.2566
 L 52.4606,-92.8733 L 52.5,-93.5 L 52.5,-98.5 L 52.4606,-99.1267 L 52.3429,-99.7434 L 52.1489,-100.341
 L 51.8815,-100.909 L 51.5451,-101.439 L 51.1448,-101.923 L 50.6871,-102.353 L 50.1791,-102.722 L 49.6289,-103.024
 L 49.0451,-103.255 L 48.4369,-103.411 L 47.8139,-103.49 L -47.8139,-103.49 L -48.4369,-103.411 L -49.0451,-103.255
 L -49.6289,-103.024 L -50.1791,-102.722 L -50.6871,-102.353 L -51,-102.059 L -51,-103.49 L -54,-103.49
 L -54,-88.5099 L -51,-88.5099 z
M -47.2432,-90.135 L -47.7256,-90.196 L -48.1967,-90.3169 L -48.6489,-90.4959 L -49.0751,-90.7302 L -49.4685,-91.0161
 L -49.823,-91.349 L -50.133,-91.7237 L -50.3936,-92.1344 L -50.6007,-92.5744 L -50.751,-93.0369 L -50.8421,-93.5146
 L -50.8726,-94 L -50.8726,-98 L -50.8421,-98.4854 L -50.751,-98.9631 L -50.6007,-99.4256 L -50.3936,-99.8656
 L -50.133,-100.276 L -49.823,-100.651 L -49.4685,-100.984 L -49.0751,-101.27 L -48.6489,-101.504 L -48.1967,-101.683
 L -47.7256,-101.804 L -47.2432,-101.865 L 47.2432,-101.865 L 47.7256,-101.804 L 48.1967,-101.683 L 48.6489,-101.504
 L 49.0751,-101.27 L 49.4685,-100.984 L 49.823,-100.651 L 50.133,-100.276 L 50.3936,-99.8656 L 50.6007,-99.4256
 L 50.751,-98.9631 L 50.8421,-98.4854 L 50.8726,-98 L 50.8726,-94 L 50.8421,-93.5146 L 50.751,-93.0369
 L 50.6007,-92.5744 L 50.3936,-92.1344 L 50.133,-91.7237 L 49.823,-91.349 L 49.4685,-91.0161 L 49.0751,-90.7302
 L 48.6489,-90.4959 L 48.1967,-90.3169 L 47.7256,-90.196 L 47.2432,-90.135 z
M 48.4369,-64.5886 L 49.0451,-64.7447 L 49.6289,-64.9759 L 50.1791,-65.2784 L 50.6871,-65.6474 L 51.1448,-66.0773
 L 51.5451,-66.5611 L 51.8815,-67.0912 L 52.1489,-67.6594 L 52.3429,-68.2566 L 52.4606,-68.8733 L 52.5,-69.5
 L 52.5,-74.5 L 52.4606,-75.1267 L 52.3429,-75.7434 L 52.1489,-76.3406 L 51.8815,-76.9088 L 51.5451,-77.4389
 L 51.1448,-77.9227 L 50.6871,-78.3526 L 50.1791,-78.7216 L 49.6289,-79.0241 L 49.0451,-79.2553 L 48.4369,-79.4114
 L 47.8139,-79.4901 L -47.8139,-79.4901 L -48.4369,-79.4114 L -49.0451,-79.2553 L -49.6289,-79.0241 L -50.1791,-78.7216
 L -50.6871,-78.3526 L -51,-78.0587 L -51,-79.1148 L -54,-79.1148 L -54,-64.8852 L -51,-64.8852
 L -51,-65.9413 L -50.6871,-65.6474 L -50.1791,-65.2784 L -49.6289,-64.9759 L -49.0451,-64.7447 L -48.4369,-64.5886
 L -47.8139,-64.5099 L 47.8139,-64.5099 z
M 48.4369,-40.5886 L 49.0451,-40.7447 L 49.6289,-40.9759 L 50.1791,-41.2784 L 50.6871,-41.6474 L 51.1448,-42.0773
 L 51.5451,-42.5611 L 51.8815,-43.0912 L 52.1489,-43.6594 L 52.3429,-44.2566 L 52.4606,-44.8733 L 52.5,-45.5
 L 52.5,-50.5 L 52.4606,-51.1267 L 52.3429,-51.7434 L 52.1489,-52.3406 L 51.8815,-52.9088 L 51.5451,-53.4389
 L 51.1448,-53.9227 L 50.6871,-54.3526 L 50.1791,-54.7216 L 49.6289,-55.0241 L 49.0451,-55.2553 L 48.4369,-55.4114
 L 47.8139,-55.4901 L -47.8139,-55.4901 L -48.4369,-55.4114 L -49.0451,-55.2553 L -49.6289,-55.0241 L -50.1791,-54.7216
 L -50.6871,-54.3526 L -51.1448,-53.9227 L -51.5451,-53.4389 L -51.8815,-52.9088 L -52.1489,-52.3406 L -52.3429,-51.7434
 L -52.4,-51.4442 L -54,-51.4442 L -54,-44.5558 L -52.4,-44.5558 L -52.3429,-44.2566 L -52.1489,-43.6594
 L -51.8815,-43.0912 L -51.5451,-42.5611 L -51.1448,-42.0773 L -50.6871,-41.6474 L -50.1791,-41.2784 L -49.6289,-40.9759
 L -49.0451,-40.7447 L -48.4369,-40.5886 L -47.8139,-40.5099 L 47.8139,-40.5099 z
M -45.113,-46.2036 L -45.3373,-46.2319 L -45.5562,-46.2881 L -45.7664,-46.3713 L -45.9645,-46.4802 L -46.1474,-46.6131
 L -46.3121,-46.7678 L -46.4562,-46.942 L -46.5773,-47.1329 L -46.6736,-47.3374 L -46.7434,-47.5524 L -46.7858,-47.7744
 L -46.8,-48 L -46.7858,-48.2256 L -46.7434,-48.4476 L -46.6736,-48.6626 L -46.5773,-48.8671 L -46.4562,-49.058
 L -46.3121,-49.2322 L -46.1474,-49.3869 L -45.9645,-49.5198 L -45.7664,-49.6287 L -45.5562,-49.7119 L -45.3373,-49.7681
 L -45.113,-49.7964 L -44.887,-49.7964 L -44.6627,-49.7681 L -44.4438,-49.7119 L -44.2336,-49.6287 L -44.0355,-49.5198
 L -43.8526,-49.3869 L -43.6879,-49.2322 L -43.5438,-49.058 L -43.4226,-48.8671 L -43.3264,-48.6626 L -43.2565,-48.4476
 L -43.2142,-48.2256 L -43.2,-48 L -43.2142,-47.7744 L -43.2565,-47.5524 L -43.3264,-47.3374 L -43.4226,-47.1329
 L -43.5438,-46.942 L -43.6879,-46.7678 L -43.8526,-46.6131 L -44.0355,-46.4802 L -44.2336,-46.3713 L -44.4438,-46.2881
 L -44.6627,-46.2319 L -44.887,-46.2036 z
M 44.887,-46.2036 L 44.6627,-46.2319 L 44.4438,-46.2881 L 44.2336,-46.3713 L 44.0355,-46.4802 L 43.8526,-46.6131
 L 43.6879,-46.7678 L 43.5438,-46.942 L 43.4226,-47.1329 L 43.3264,-47.3374 L 43.2565,-47.5524 L 43.2142,-47.7744
 L 43.2,-48 L 43.2142,-48.2256 L 43.2565,-48.4476 L 43.3264,-48.6626 L 43.4226,-48.8671 L 43.5438,-49.058
 L 43.6879,-49.2322 L 43.8526,-49.3869 L 44.0355,-49.5198 L 44.2336,-49.6287 L 44.4438,-49.7119 L 44.6627,-49.7681
 L 44.887,-49.7964 L 45.113,-49.7964 L 45.3373,-49.7681 L 45.5562,-49.7119 L 45.7664,-49.6287 L 45.9645,-49.5198
 L 46.1474,-49.3869 L 46.3121,-49.2322 L 46.4562,-49.058 L 46.5773,-48.8671 L 46.6736,-48.6626 L 46.7434,-48.4476
 L 46.7858,-48.2256 L 46.8,-48 L 46.7858,-47.7744 L 46.7434,-47.5524 L 46.6736,-47.3374 L 46.5773,-47.1329
 L 46.4562,-46.942 L 46.3121,-46.7678 L 46.1474,-46.6131 L 45.9645,-46.4802 L 45.7664,-46.3713 L 45.5562,-46.2881
 L 45.3373,-46.2319 L 45.113,-46.2036 z
" stroke="black" fill="lightgray" stroke-width="0.5"/>
</svg>
