<?xml version="1.0" standalone="no"?>
<!DOCTYPE svg PUBLIC "-//W3C//DTD SVG 1.1//EN" "http://www.w3.org/Graphics/SVG/1.1/DTD/svg11.dtd">
<svg width="46mm" height="712mm" viewBox="-23 -1364 46 712" xmlns="http://www.w3.org/2000/svg" version="1.1">
<title>OpenSCAD Model</title>
<path d="
M 18.4369,-1228.59 L 19.0451,-1228.74 L 19.6289,-1228.98 L 20.1791,-1229.28 L 20.6871,-1229.65 L 21.1448,-1230.08
 L 21.5451,-1230.56 L 21.8815,-1231.09 L 22.1489,-1231.66 L 22.3429,-1232.26 L 22.4606,-1232.87 L 22.5,-1233.5
 L 22.5,-1358.5 L 22.4606,-1359.13 L 22.3429,-1359.74 L 22.1489,-1360.34 L 21.8815,-1360.91 L 21.5451,-1361.44
 L 21.1448,-1361.92 L 20.6871,-1362.35 L 20.1791,-1362.72 L 19.6289,-1363.02 L 19.0451,-1363.26 L 18.4369,-1363.41
 L 17.8139,-1363.49 L -17.8139,-1363.49 L -18.4369,-1363.41 L -19.0451,-1363.26 L -19.6289,-1363.02 L -20.1791,-1362.72
 L -20.6871,-1362.35 L -21.1448,-1361.92 L -21.5451,-1361.44 L -21.8815,-1360.91 L -22.1489,-1360.34 L -22.3429,-1359.74
 L -22.4606,-1359.13 L -22.5,-1358.5 L -22.5,-1233.5 L -22.4606,-1232.87 L -22.3429,-1232.26 L -22.1489,-1231.66
 L -21.8815,-1231.09 L -21.5451,-1230.56 L -21.1448,-1230.08 L -20.6871,-1229.65 L -20.1791,-1229.28 L -19.6289,-1228.98
 L -19.0451,-1228.74 L -18.4369,-1228.59 L -17.8139,-1228.51 L 17.8139,-1228.51 z
M -17.2512,-1230.01 L -17.7495,-1230.07 L -18.2361,-1230.2 L -18.7031,-1230.38 L -19.1433,-1230.62 L -19.5497,-1230.92
 L -19.9159,-1231.26 L -20.2361,-1231.65 L -20.5052,-1232.07 L -20.7191,-1232.53 L -20.8743,-1233.01 L -20.9684,-1233.5
 L -21,-1234 L -21,-1358 L -20.9684,-1358.5 L -20.8743,-1358.99 L -20.7191,-1359.47 L -20.5052,-1359.93
 L -20.2361,-1360.35 L -19.9159,-1360.74 L -19.5497,-1361.08 L -19.1433,-1361.38 L -18.7031,-1361.62 L -18.2361,-1361.8
 L -17.7495,-1361.93 L -17.2512,-1361.99 L 17.2512,-1361.99 L 17.7495,-1361.93 L 18.2361,-1361.8 L 18.7031,-1361.62
 L 19.1433,-1361.38 L 19.5497,-1361.08 L 19.9159,-1360.74 L 20.2361,-1360.35 L 20.5052,-1359.93 L 20.7191,-1359.47
 L 20.8743,-1358.99 L 20.9684,-1358.5 L 21,-1358 L 21,-1234 L 20.9684,-1233.5 L 20.8743,-1233.01
 L 20.7191,-1232.53 L 20.5052,-1232.07 L 20.2361,-1231.65 L 19.9159,-1231.26 L 19.5497,-1230.92 L 19.1433,-1230.62
 L 18.7031,-1230.38 L 18.2361,-1230.2 L 17.7495,-1230.07 L 17.2512,-1230.01 z
M 18.4369,-1084.59 L 19.0451,-1084.74 L 19.6289,-1084.98 L 20.1791,-1085.28 L 20.6871,-1085.65 L 21.1448,-1086.08
 L 21.5451,-1086.56 L 21.8815,-1087.09 L 22.1489,-1087.66 L 22.3429,-1088.26 L 22.4606,-1088.87 L 22.5,-1089.5
 L 22.5,-1214.5 L 22.4606,-1215.13 L 22.3429,-1215.74 L 22.1489,-1216.34 L 21.8815,-1216.91 L 21.5451,-1217.44
 L 21.1448,-1217.92 L 20.6871,-1218.35 L 20.1791,-1218.72 L 19.6289,-1219.02 L 19.0451,-1219.26 L 18.4369,-1219.41
 L 17.8139,-1219.49 L -17.8139,-1219.49 L -18.4369,-1219.41 L -19.0451,-1219.26 L -19.6289,-1219.02 L -20.1791,-1218.72
 L -20.6871,-1218.35 L -21.1448,-1217.92 L -21.5451,-1217.44 L -21.8815,-1216.91 L -22.1489,-1216.34 L -22.3429,-1215.74
 L -22.4606,-1215.13 L -22.5,-1214.5 L -22.5,-1089.5 L -22.4606,-1088.87 L -22.3429,-1088.26 L -22.1489,-1087.66
 L -21.8815,-1087.09 L -21.5451,-1086.56 L -21.1448,-1086.08 L -20.6871,-1085.65 L -20.1791,-1085.28 L -19.6289,-1084.98
 L -19.0451,-1084.74 L -18.4369,-1084.59 L -17.8139,-1084.51 L 17.8139,-1084.51 z
M -17.2512,-1086.01 L -17.7495,-1086.07 L -18.2361,-1086.2 L -18.7031,-1086.38 L -19.1433,-1086.62 L -19.5497,-1086.92
 L -19.9159,-1087.26 L -20.2361,-1087.65 L -20.5052,-1088.07 L -20.7191,-1088.53 L -20.8743,-1089.01 L -20.9684,-1089.5
 L -21,-1090 L -21,-1214 L -20.9684,-1214.5 L -20.8743,-1214.99 L -20.7191,-1215.47 L -20.5052,-1215.93
 L -20.2361,-1216.35 L -19.9159,-1216.74 L -19.5497,-1217.08 L -19.1433,-1217.38 L -18.7031,-1217.62 L -18.2361,-1217.8
 L -17.7495,-1217.93 L -17.2512,-1217.99 L 17.2512,-1217.99 L 17.7495,-1217.93 L 18.2361,-1217.8 L 18.7031,-1217.62
 L 19.1433,-1217.38 L 19.5497,-1217.08 L 19.9159,-1216.74 L 20.2361,-1216.35 L 20.5052,-1215.93 L 20.7191,-1215.47
 L 20.8743,-1214.99 L 20.9684,-1214.5 L 21,-1214 L 21,-1090 L 20.9684,-1089.5 L 20.8743,-1089.01
 L 20.7191,-1088.53 L 20.5052,-1088.07 L 20.2361,-1087.65 L 19.9159,-1087.26 L 19.5497,-1086.92 L 19.1433,-1086.62
 L 18.7031,-1086.38 L 18.2361,-1086.2 L 17.7495,-1086.07 L 17.2512,-1086.01 z
M 18.4369,-940.589 L 19.0451,-940.745 L 19.6289,-940.976 L 20.1791,-941.278 L 20.6871,-941.647 L 21.1448,-942.077
 L 21.5451,-942.561 L 21.8815,-943.091 L 22.1489,-943.659 L 22.3429,-944.257 L 22.4606,-944.873 L 22.5,-945.5
 L 22.5,-1070.5 L 22.4606,-1071.13 L 22.3429,-1071.74 L 22.1489,-1072.34 L 21.8815,-1072.91 L 21.5451,-1073.44
 L 21.1448,-1073.92 L 20.6871,-1074.35 L 20.1791,-1074.72 L 19.6289,-1075.02 L 19.0451,-1075.26 L 18.4369,-1075.41
 L 17.8139,-1075.49 L -17.8139,-1075.49 L -18.4369,-1075.41 L -19.0451,-1075.26 L -19.6289,-1075.02 L -20.1791,-1074.72
 L -20.6871,-1074.35 L -21.1448,-1073.92 L -21.5451,-1073.44 L -21.8815,-1072.91 L -22.1489,-1072.34 L -22.3429,-1071.74
 L -22.4606,-1071.13 L -22.5,-1070.5 L -22.5,-945.5 L -22.4606,-944.873 L -22.3429,-944.257 L -22.1489,-943.659
 L -21.8815,-943.091 L -21.5451,-942.561 L -21.1448,-942.077 L -20.6871,-941.647 L -20.1791,-941.278 L -19.6289,-940.976
 L -19.0451,-940.745 L -18.4369,-940.589 L -17.8139,-940.51 L 17.8139,-940.51 z
M -17.2512,-942.008 L -17.7495,-942.071 L -18.2361,-942.196 L -18.7031,-942.381 L -19.1433,-942.623 L -19.5497,-942.918
 L -19.9159,-943.262 L -20.2361,-943.649 L -20.5052,-944.073 L -20.7191,-944.528 L -20.8743,-945.005 L -20.9684,-945.499
 L -21,-946 L -21,-1070 L -20.9684,-1070.5 L -20.8743,-1070.99 L -20.7191,-1071.47 L -20.5052,-1071.93
 L -20.2361,-1072.35 L -19.9159,-1072.74 L -19.5497,-1073.08 L -19.1433,-1073.38 L -18.7031,-1073.62 L -18.2361,-1073.8
 L -17.7495,-1073.93 L -17.2512,-1073.99 L 17.2512,-1073.99 L 17.7495,-1073.93 L 18.2361,-1073.8 L 18.7031,-1073.62
 L 19.1433,-1073.38 L 19.5497,-1073.08 L 19.9159,-1072.74 L 20.2361,-1072.35 L 20.5052,-1071.93 L 20.7191,-1071.47
 L 20.8743,-1070.99 L 20.9684,-1070.5 L 21,-1070 L 21,-946 L 20.9684,-945.499 L 20.8743,-945.005
 L 20.7191,-944.528 L 20.5052,-944.073 L 20.2361,-943.649 L 19.9159,-943.262 L 19.5497,-942.918 L 19.1433,-942.623
 L 18.7031,-942.381 L 18.2361,-942.196 L 17.7495,-942.071 L 17.2512,-942.008 z
M 18.4369,-796.589 L 19.0451,-796.745 L 19.6289,-796.976 L 20.1791,-797.278 L 20.6871,-797.647 L 21.1448,-798.077
 L 21.5451,-798.561 L 21.8815,-799.091 L 22.1489,-799.659 L 22.3429,-800.257 L 22.4606,-800.873 L 22.5,-801.5
 L 22.5,-926.5 L 22.4606,-927.127 L 22.3429,-927.743 L 22.1489,-928.341 L 21.8815,-928.909 L 21.5451,-929.439
 L 21.1448,-929.923 L 20.6871,-930.353 L 20.1791,-930.722 L 19.6289,-931.024 L 19.0451,-931.255 L 18.4369,-931.411
 L 17.8139,-931.49 L -17.8139,-931.49 L -18.4369,-931.411 L -19.0451,-931.255 L -19.6289,-931.024 L -20.1791,-930.722
 L -20.6871,-930.353 L -21.1448,-929.923 L -21.5451,-929.439 L -21.8815,-928.909 L -22.1489,-928.341 L -22.3429,-927.743
 L -22.4606,-927.127 L -22.5,-926.5 L -22.5,-801.5 L -22.4606,-800.873 L -22.3429,-800.257 L -22.1489,-799.659
 L -21.8815,-799.091 L -21.5451,-798.561 L -21.1448,-798.077 L -20.6871,-797.647 L -20.1791,-797.278 L -19.6289,-796.976
 L -19.0451,-796.745 L -18.4369,-796.589 L -17.8139,-796.51 L 17.8139,-796.51 z
M -17.1954,-798.893 L -17.5833,-798.942 L -17.9619,-799.039 L -18.3254,-799.183 L -18.668,-799.372 L -18.9842,-799.601
 L -19.2692,-799.869 L -19.5184,-800.17 L -19.7279,-800.5 L -19.8943,-800.854 L -20.0151,-801.226 L -20.0884,-801.61
 L -20.1129,-802 L -20.1129,-926 L -20.0884,-926.39 L -20.0151,-926.774 L -19.8943,-927.146 L -19.7279,-927.5
 L -19.5184,-927.83 L -19.2692,-928.131 L -18.9842,-928.399 L -18.668,-928.628 L -18.3254,-928.817 L -17.9619,-928.961
 L -17.5833,-929.058 L -17.1954,-929.107 L 17.1954,-929.107 L 17.5833,-929.058 L 17.9619,-928.961 L 18.3254,-928.817
 L 18.668,-928.628 L 18.9842,-928.399 L 19.2692,-928.131 L 19.5184,-927.83 L 19.7279,-927.5 L 19.8943,-927.146
 L 20.0151,-926.774 L 20.0884,-926.39 L 20.1129,-926 L 20.1129,-802 L 20.0884,-801.61 L 20.0151,-801.226
 L 19.8943,-800.854 L 19.7279,-800.5 L 19.5184,-800.17 L 19.2692,-799.869 L 18.9842,-799.601 L 18.668,-799.372
 L 18.3254,-799.183 L 17.9619,-799.039 L 17.5833,-798.942 L 17.1954,-798.893 z
M 18.4369,-652.589 L 19.0451,-652.745 L 19.6289,-652.976 L 20.1791,-653.278 L 20.6871,-653.647 L 21.1448,-654.077
 L 21.5451,-654.561 L 21.8815,-655.091 L 22.1489,-655.659 L 22.3429,-656.257 L 22.4606,-656.873 L 22.5,-657.5
 L 22.5,-782.5 L 22.4606,-783.127 L 22.3429,-783.743 L 22.1489,-784.341 L 21.8815,-784.909 L 21.5451,-785.439
 L 21.1448,-785.923 L 20.6871,-786.353 L 20.1791,-786.722 L 19.6289,-787.024 L 19.0451,-787.255 L 18.4369,-787.411
 L 17.8139,-787.49 L -17.8139,-787.49 L -18.4369,-787.411 L -19.0451,-787.255 L -19.6289,-787.024 L -20.1791,-786.722
 L -20.6871,-786.353 L -21.1448,-785.923 L -21.5451,-785.439 L -21.8815,-784.909 L -22.1489,-784.341 L -22.3429,-783.743
 L -22.4606,-783.127 L -22.5,-782.5 L -22.5,-657.5 L -22.4606,-656.873 L -22.3429,-656.257 L -22.1489,-655.659
 L -21.8815,-655.091 L -21.5451,-654.561 L -21.1448,-654.077 L -20.6871,-653.647 L -20.1791,-653.278 L -19.6289,-652.976
 L -19.0451,-652.745 L -18.4369,-652.589 L -17.8139,-652.51 L 17.8139,-652.51 z
M 14.8659,-777.869 L 14.5999,-777.903 L 14.3401,-777.969 L 14.0908,-778.068 L 13.8559,-778.197 L 13.6389,-778.355
 L 13.4434,-778.538 L 13.2725,-778.745 L 13.1288,-778.971 L 13.0146,-779.214 L 12.9318,-779.469 L 12.8815,-779.732
 L 12.8647,-780 L 12.8815,-780.268 L 12.9318,-780.531 L 13.0146,-780.786 L 13.1288,-781.029 L 13.2725,-781.255
 L 13.4434,-781.462 L 13.6389,-781.645 L 13.8559,-781.803 L 14.0908,-781.932 L 14.3401,-782.031 L 14.5999,-782.097
 L 14.8659,-782.131 L 15.1341,-782.131 L 15.4001,-782.097 L 15.6598,-782.031 L 15.9091,-781.932 L 16.1441,-781.803
 L 16.3611,-781.645 L 16.5565,-781.462 L 16.7275,-781.255 L 16.8712,-781.029 L 16.9853,-780.786 L 17.0682,-780.531
 L 17.1185,-780.268 L 17.1353,-780 L 17.1185,-779.732 L 17.0682,-779.469 L 16.9853,-779.214 L 16.8712,-778.971
 L 16.7275,-778.745 L 16.5565,-778.538 L 16.3611,-778.355 L 16.1441,-778.197 L 15.9091,-778.068 L 15.6598,-777.969
 L 15.4001,-777.903 L 15.1341,-777.869 z
M -15.1341,-777.869 L -15.4001,-777.903 L -15.6598,-777.969 L -15.9091,-778.068 L -16.1441,-778.197 L -16.3611,-778.355
 L -16.5565,-778.538 L -16.7275,-778.745 L -16.8712,-778.971 L -16.9853,-779.214 L -17.0682,-779.469 L -17.1185,-779.732
 L -17.1353,-780 L -17.1185,-780.268 L -17.0682,-780.531 L -16.9853,-780.786 L -16.8712,-781.029 L -16.7275,-781.255
 L -16.5565,-781.462 L -16.3611,-781.645 L -16.1441,-781.803 L -15.9091,-781.932 L -15.6598,-782.031 L -15.4001,-782.097
 L -15.1341,-782.131 L -14.8659,-782.131 L -14.5999,-782.097 L -14.3401,-782.031 L -14.0908,-781.932 L -13.8559,-781.803
 L -13.6389,-781.645 L -13.4434,-781.462 L -13.2725,-781.255 L -13.1288,-781.029 L -13.0146,-780.786 L -12.9318,-780.531
 L -12.8815,-780.268 L -12.8647,-780 L -12.8815,-779.732 L -12.9318,-779.469 L -13.0146,-779.214 L -13.1288,-778.971
 L -13.2725,-778.745 L -13.4434,-778.538 L -13.6389,-778.355 L -13.8559,-778.197 L -14.0908,-778.068 L -14.3401,-777.969
 L -14.5999,-777.903 L -14.8659,-777.869 z
M 14.8659,-657.869 L 14.5999,-657.903 L 14.3401,-657.969 L 14.0908,-658.068 L 13.8559,-658.197 L 13.6389,-658.355
 L 13.4434,-658.538 L 13.2725,-658.745 L 13.1288,-658.971 L 13.0146,-659.214 L 12.9318,-659.469 L 12.8815,-659.732
 L 12.8647,-660 L 12.8815,-660.268 L 12.9318,-660.531 L 13.0146,-660.786 L 13.1288,-661.029 L 13.2725,-661.255
 L 13.4434,-661.462 L 13.6389,-661.645 L 13.8559,-661.803 L 14.0908,-661.932 L 14.3401,-662.031 L 14.5999,-662.097
 L 14.8659,-662.131 L 15.1341,-662.131 L 15.4001,-662.097 L 15.6598,-662.031 L 15.9091,-661.932 L 16.1441,-661.803
 L 16.3611,-661.645 L 16.5565,-661.462 L 16.7275,-661.255 L 16.8712,-661.029 L 16.9853,-660.786 L 17.0682,-660.531
 L 17.1185,-660.268 L 17.1353,-660 L 17.1185,-659.732 L 17.0682,-659.469 L 16.9853,-659.214 L 16.8712,-658.971
 L 16.7275,-658.745 L 16.5565,-658.538 L 16.3611,-658.355 L 16.1441,-658.197 L 15.9091,-658.068 L 15.6598,-657.969
 L 15.4001,-657.903 L 15.1341,-657.869 z
M -15.1341,-657.869 L -15.4001,-657.903 L -15.6598,-657.969 L -15.9091,-658.068 L -16.1441,-658.197 L -16.3611,-658.355
 L -16.5565,-658.538 L -16.7275,-658.745 L -16.8712,-658.971 L -16.9853,-659.214 L -17.0682,-659.469 L -17.1185,-659.732
 L -17.1353,-660 L -17.1185,-660.268 L -17.0682,-660.531 L -16.9853,-660.786 L -16.8712,-661.029 L -16.7275,-661.255
 L -16.5565,-661.462 L -16.3611,-661.645 L -16.1441,-661.803 L -15.9091,-661.932 L -15.6598,-662.031 L -15.4001,-662.097
 L -15.1341,-662.131 L -14.8659,-662.131 L -14.5999,-662.097 L -14.3401,-662.031 L -14.0908,-661.932 L -13.8559,-661.803
 L -13.6389,-661.645 L -13.4434,-661.462 L -13.2725,-661.255 L -13.1288,-661.029 L -13.0146,-660.786 L -12.9318,-660.531
 L -12.8815,-660.268 L -12.8647,-660 L -12.8815,-659.732 L -12.9318,-659.469 L -13.0146,-659.214 L -13.1288,-658.971
 L -13.2725,-658.745 L -13.4434,-658.538 L -13.6389,-658.355 L -13.8559,-658.197 L -14.0908,-658.068 L -14.3401,-657.969
 L -14.5999,-657.903 L -14.8659,-657.869 z
" stroke="black" fill="lightgray" stroke-width="0.5"/>
</svg>
