<?xml version="1.0" standalone="no"?>
<!DOCTYPE svg PUBLIC "-//W3C//DTD SVG 1.1//EN" "http://www.w3.org/Graphics/SVG/1.1/DTD/svg11.dtd">
<svg width="60mm" height="100mm" viewBox="-30 -185 60 100" xmlns="http://www.w3.org/2000/svg" version="1.1">
<title>OpenSCAD Model</title>
<path d="
M 25.9369,-139.589 L 26.5451,-139.745 L 27.1289,-139.976 L 27.6791,-140.278 L 28.1871,-140.647 L 28.6448,-141.077
 L 29.0451,-141.561 L 29.3815,-142.091 L 29.6489,-142.659 L 29.8429,-143.257 L 29.9606,-143.873 L 30,-144.5
 L 30,-179.5 L 29.9606,-180.127 L 29.8429,-180.743 L 29.6489,-181.341 L 29.3815,-181.909 L 29.0451,-182.439
 L 28.6448,-182.923 L 28.1871,-183.353 L 27.6791,-183.722 L 27.1289,-184.024 L 26.5451,-184.255 L 25.9369,-184.411
 L 25.3139,-184.49 L -25.3139,-184.49 L -25.9369,-184.411 L -26.5451,-184.255 L -27.1289,-184.024 L -27.6791,-183.722
 L -28.1871,-183.353 L -28.6448,-182.923 L -29.0451,-182.439 L -29.3815,-181.909 L -29.6489,-181.341 L -29.8429,-180.743
 L -29.9606,-180.127 L -30,-179.5 L -30,-144.5 L -29.9606,-143.873 L -29.8429,-143.257 L -29.6489,-142.659
 L -29.3815,-142.091 L -29.0451,-141.561 L -28.6448,-141.077 L -28.1871,-140.647 L -27.6791,-140.278 L -27.1289,-139.976
 L -26.5451,-139.745 L -25.9369,-139.589 L -25.3139,-139.51 L 25.3139,-139.51 z
M -25.0375,-140.181 L -25.6079,-140.253 L -26.1648,-140.396 L -26.6994,-140.607 L -27.2032,-140.884 L -27.6684,-141.222
 L -28.0875,-141.616 L -28.454,-142.059 L -28.7621,-142.544 L -29.0069,-143.065 L -29.1846,-143.611 L -29.2923,-144.176
 L -29.3284,-144.75 L -29.3284,-179.25 L -29.2923,-179.824 L -29.1846,-180.389 L -29.0069,-180.935 L -28.7621,-181.456
 L -28.454,-181.941 L -28.0875,-182.384 L -27.6684,-182.778 L -27.2032,-183.116 L -26.6994,-183.393 L -26.1648,-183.604
 L -25.6079,-183.747 L -25.0375,-183.819 L 25.0375,-183.819 L 25.6079,-183.747 L 26.1648,-183.604 L 26.6994,-183.393
 L 27.2032,-183.116 L 27.6684,-182.778 L 28.0875,-182.384 L 28.454,-181.941 L 28.7621,-181.456 L 29.0069,-180.935
 L 29.1846,-180.389 L 29.2923,-179.824 L 29.3284,-179.25 L 29.3284,-144.75 L 29.2923,-144.176 L 29.1846,-143.611
 L 29.0069,-143.065 L 28.7621,-142.544 L 28.454,-142.059 L 28.0875,-141.616 L 27.6684,-141.222 L 27.2032,-140.884
 L 26.6994,-140.607 L 26.1648,-140.396 L 25.6079,-140.253 L 25.0375,-140.181 z
M 25.9369,-85.5886 L 26.5451,-85.7447 L 27.1289,-85.9759 L 27.6791,-86.2784 L 28.1871,-86.6474 L 28.6448,-87.0773
 L 29.0451,-87.5611 L 29.3815,-88.0912 L 29.6489,-88.6594 L 29.8429,-89.2566 L 29.9606,-89.8733 L 30,-90.5
 L 30,-125.5 L 29.9606,-126.127 L 29.8429,-126.743 L 29.6489,-127.341 L 29.3815,-127.909 L 29.0451,-128.439
 L 28.6448,-128.923 L 28.1871,-129.353 L 27.6791,-129.722 L 27.1289,-130.024 L 26.5451,-130.255 L 25.9369,-130.411
 L 25.3139,-130.49 L -25.3139,-130.49 L -25.9369,-130.411 L -26.5451,-130.255 L -27.1289,-130.024 L -27.6791,-129.722
 L -28.1871,-129.353 L -28.6448,-128.923 L -29.0451,-128.439 L -29.3815,-127.909 L -29.6489,-127.341 L -29.8429,-126.743
 L -29.9606,-126.127 L -30,-125.5 L -30,-90.5 L -29.9606,-89.8733 L -29.8429,-89.2566 L -29.6489,-88.6594
 L -29.3815,-88.0912 L -29.0451,-87.5611 L -28.6448,-87.0773 L -28.1871,-86.6474 L -27.6791,-86.2784 L -27.1289,-85.9759
 L -26.5451,-85.7447 L -25.9369,-85.5886 L -25.3139,-85.5099 L 25.3139,-85.5099 z
M -24.8825,-88.6445 L -25.1453,-88.6777 L -25.4019,-88.7436 L -25.6482,-88.8412 L -25.8804,-88.9688 L -26.0947,-89.1245
 L -26.2879,-89.3059 L -26.4567,-89.51 L -26.5987,-89.7337 L -26.7115,-89.9734 L -26.7934,-90.2254 L -26.843,-90.4856
 L -26.8596,-90.75 L -26.8596,-125.25 L -26.843,-125.514 L -26.7934,-125.775 L -26.7115,-126.027 L -26.5987,-126.266
 L -26.4567,-126.49 L -26.2879,-126.694 L -26.0947,-126.875 L -25.8804,-127.031 L -25.6482,-127.159 L -25.4019,-127.256
 L -25.1453,-127.322 L -24.8825,-127.355 L 24.8825,-127.355 L 25.1453,-127.322 L 25.4019,-127.256 L 25.6482,-127.159
 L 25.8804,-127.031 L 26.0947,-126.875 L 26.2879,-126.694 L 26.4567,-126.49 L 26.5987,-126.266 L 26.7115,-126.027
 L 26.7934,-125.775 L 26.843,-125.514 L 26.8596,-125.25 L 26.8596,-90.75 L 26.843,-90.4856 L 26.7934,-90.2254
 L 26.7115,-89.9734 L 26.5987,-89.7337 L 26.4567,-89.51 L 26.2879,-89.3059 L 26.0947,-89.1245 L 25.8804,-88.9688
 L 25.6482,-88.8412 L 25.4019,-88.7436 L 25.1453,-88.6777 L 24.8825,-88.6445 z
" stroke="black" fill="lightgray" stroke-width="0.5"/>
</svg>
