<?xml version="1.0" standalone="no"?>
<!DOCTYPE svg PUBLIC "-//W3C//DTD SVG 1.1//EN" "http://www.w3.org/Graphics/SVG/1.1/DTD/svg11.dtd">
<svg width="46mm" height="558mm" viewBox="-23 -1035 46 558" xmlns="http://www.w3.org/2000/svg" version="1.1">
<title>OpenSCAD Model</title>
<path d="
M 18.4369,-855.089 L 19.0451,-855.245 L 19.6289,-855.476 L 20.1791,-855.778 L 20.6871,-856.147 L 21.1448,-856.577
 L 21.5451,-857.061 L 21.8815,-857.591 L 22.1489,-858.159 L 22.3429,-858.757 L 22.4606,-859.373 L 22.5,-860
 L 22.5,-1030 L 22.4606,-1030.63 L 22.3429,-1031.24 L 22.1489,-1031.84 L 21.8815,-1032.41 L 21.5451,-1032.94
 L 21.1448,-1033.42 L 20.6871,-1033.85 L 20.1791,-1034.22 L 19.6289,-1034.52 L 19.0451,-1034.76 L 18.4369,-1034.91
 L 17.8139,-1034.99 L -17.8139,-1034.99 L -18.4369,-1034.91 L -19.0451,-1034.76 L -19.6289,-1034.52 L -20.1791,-1034.22
 L -20.6871,-1033.85 L -21.1448,-1033.42 L -21.5451,-1032.94 L -21.8815,-1032.41 L -22.1489,-1031.84 L -22.3429,-1031.24
 L -22.4606,-1030.63 L -22.5,-1030 L -22.5,-860 L -22.4606,-859.373 L -22.3429,-858.757 L -22.1489,-858.159
 L -21.8815,-857.591 L -21.5451,-857.061 L -21.1448,-856.577 L -20.6871,-856.147 L -20.1791,-855.778 L -19.6289,-855.476
 L -19.0451,-855.245 L -18.4369,-855.089 L -17.8139,-855.01 L 17.8139,-855.01 z
M -17.2512,-856.508 L -17.7495,-856.571 L -18.2361,-856.696 L -18.7031,-856.881 L -19.1433,-857.123 L -19.5497,-857.418
 L -19.9159,-857.762 L -20.2361,-858.149 L -20.5052,-858.573 L -20.7191,-859.028 L -20.8743,-859.505 L -20.9684,-859.999
 L -21,-860.5 L -21,-1029.5 L -20.9684,-1030 L -20.8743,-1030.49 L -20.7191,-1030.97 L -20.5052,-1031.43
 L -20.2361,-1031.85 L -19.9159,-1032.24 L -19.5497,-1032.58 L -19.1433,-1032.88 L -18.7031,-1033.12 L -18.2361,-1033.3
 L -17.7495,-1033.43 L -17.2512,-1033.49 L 17.2512,-1033.49 L 17.7495,-1033.43 L 18.2361,-1033.3 L 18.7031,-1033.12
 L 19.1433,-1032.88 L 19.5497,-1032.58 L 19.9159,-1032.24 L 20.2361,-1031.85 L 20.5052,-1031.43 L 20.7191,-1030.97
 L 20.8743,-1030.49 L 20.9684,-1030 L 21,-1029.5 L 21,-860.5 L 20.9684,-859.999 L 20.8743,-859.505
 L 20.7191,-859.028 L 20.5052,-858.573 L 20.2361,-858.149 L 19.9159,-857.762 L 19.5497,-857.418 L 19.1433,-857.123
 L 18.7031,-856.881 L 18.2361,-856.696 L 17.7495,-856.571 L 17.2512,-856.508 z
M 18.4369,-666.089 L 19.0451,-666.245 L 19.6289,-666.476 L 20.1791,-666.778 L 20.6871,-667.147 L 21.1448,-667.577
 L 21.5451,-668.061 L 21.8815,-668.591 L 22.1489,-669.159 L 22.3429,-669.757 L 22.4606,-670.373 L 22.5,-671
 L 22.5,-841 L 22.4606,-841.627 L 22.3429,-842.243 L 22.1489,-842.841 L 21.8815,-843.409 L 21.5451,-843.939
 L 21.1448,-844.423 L 20.6871,-844.853 L 20.1791,-845.222 L 19.6289,-845.524 L 19.0451,-845.755 L 18.4369,-845.911
 L 17.8139,-845.99 L -17.8139,-845.99 L -18.4369,-845.911 L -19.0451,-845.755 L -19.6289,-845.524 L -20.1791,-845.222
 L -20.6871,-844.853 L -21.1448,-844.423 L -21.5451,-843.939 L -21.8815,-843.409 L -22.1489,-842.841 L -22.3429,-842.243
 L -22.4606,-841.627 L -22.5,-841 L -22.5,-671 L -22.4606,-670.373 L -22.3429,-669.757 L -22.1489,-669.159
 L -21.8815,-668.591 L -21.5451,-668.061 L -21.1448,-667.577 L -20.6871,-667.147 L -20.1791,-666.778 L -19.6289,-666.476
 L -19.0451,-666.245 L -18.4369,-666.089 L -17.8139,-666.01 L 17.8139,-666.01 z
M -17.1954,-668.393 L -17.5833,-668.442 L -17.9619,-668.539 L -18.3254,-668.683 L -18.668,-668.872 L -18.9842,-669.101
 L -19.2692,-669.369 L -19.5184,-669.67 L -19.7279,-670 L -19.8943,-670.354 L -20.0151,-670.726 L -20.0884,-671.11
 L -20.1129,-671.5 L -20.1129,-840.5 L -20.0884,-840.89 L -20.0151,-841.274 L -19.8943,-841.646 L -19.7279,-842
 L -19.5184,-842.33 L -19.2692,-842.631 L -18.9842,-842.899 L -18.668,-843.128 L -18.3254,-843.317 L -17.9619,-843.461
 L -17.5833,-843.558 L -17.1954,-843.607 L 17.1954,-843.607 L 17.5833,-843.558 L 17.9619,-843.461 L 18.3254,-843.317
 L 18.668,-843.128 L 18.9842,-842.899 L 19.2692,-842.631 L 19.5184,-842.33 L 19.7279,-842 L 19.8943,-841.646
 L 20.0151,-841.274 L 20.0884,-840.89 L 20.1129,-840.5 L 20.1129,-671.5 L 20.0884,-671.11 L 20.0151,-670.726
 L 19.8943,-670.354 L 19.7279,-670 L 19.5184,-669.67 L 19.2692,-669.369 L 18.9842,-669.101 L 18.668,-668.872
 L 18.3254,-668.683 L 17.9619,-668.539 L 17.5833,-668.442 L 17.1954,-668.393 z
M 18.4369,-477.089 L 19.0451,-477.245 L 19.6289,-477.476 L 20.1791,-477.778 L 20.6871,-478.147 L 21.1448,-478.577
 L 21.5451,-479.061 L 21.8815,-479.591 L 22.1489,-480.159 L 22.3429,-480.757 L 22.4606,-481.373 L 22.5,-482
 L 22.5,-652 L 22.4606,-652.627 L 22.3429,-653.243 L 22.1489,-653.841 L 21.8815,-654.409 L 21.5451,-654.939
 L 21.1448,-655.423 L 20.6871,-655.853 L 20.1791,-656.222 L 19.6289,-656.524 L 19.0451,-656.755 L 18.4369,-656.911
 L 17.8139,-656.99 L -17.8139,-656.99 L -18.4369,-656.911 L -19.0451,-656.755 L -19.6289,-656.524 L -20.1791,-656.222
 L -20.6871,-655.853 L -21.1448,-655.423 L -21.5451,-654.939 L -21.8815,-654.409 L -22.1489,-653.841 L -22.3429,-653.243
 L -22.4606,-652.627 L -22.5,-652 L -22.5,-482 L -22.4606,-481.373 L -22.3429,-480.757 L -22.1489,-480.159
 L -21.8815,-479.591 L -21.5451,-479.061 L -21.1448,-478.577 L -20.6871,-478.147 L -20.1791,-477.778 L -19.6289,-477.476
 L -19.0451,-477.245 L -18.4369,-477.089 L -17.8139,-477.01 L 17.8139,-477.01 z
M 14.8659,-647.369 L 14.5999,-647.403 L 14.3401,-647.469 L 14.0908,-647.568 L 13.8559,-647.697 L 13.6389,-647.855
 L 13.4434,-648.038 L 13.2725,-648.245 L 13.1288,-648.471 L 13.0146,-648.714 L 12.9318,-648.969 L 12.8815,-649.232
 L 12.8647,-649.5 L 12.8815,-649.768 L 12.9318,-650.031 L 13.0146,-650.286 L 13.1288,-650.529 L 13.2725,-650.755
 L 13.4434,-650.962 L 13.6389,-651.145 L 13.8559,-651.303 L 14.0908,-651.432 L 14.3401,-651.531 L 14.5999,-651.597
 L 14.8659,-651.631 L 15.1341,-651.631 L 15.4001,-651.597 L 15.6598,-651.531 L 15.9091,-651.432 L 16.1441,-651.303
 L 16.3611,-651.145 L 16.5565,-650.962 L 16.7275,-650.755 L 16.8712,-650.529 L 16.9853,-650.286 L 17.0682,-650.031
 L 17.1185,-649.768 L 17.1353,-649.5 L 17.1185,-649.232 L 17.0682,-648.969 L 16.9853,-648.714 L 16.8712,-648.471
 L 16.7275,-648.245 L 16.5565,-648.038 L 16.3611,-647.855 L 16.1441,-647.697 L 15.9091,-647.568 L 15.6598,-647.469
 L 15.4001,-647.403 L 15.1341,-647.369 z
M -15.1341,-647.369 L -15.4001,-647.403 L -15.6598,-647.469 L -15.9091,-647.568 L -16.1441,-647.697 L -16.3611,-647.855
 L -16.5565,-648.038 L -16.7275,-648.245 L -16.8712,-648.471 L -16.9853,-648.714 L -17.0682,-648.969 L -17.1185,-649.232
 L -17.1353,-649.5 L -17.1185,-649.768 L -17.0682,-650.031 L -16.9853,-650.286 L -16.8712,-650.529 L -16.7275,-650.755
 L -16.5565,-650.962 L -16.3611,-651.145 L -16.1441,-651.303 L -15.9091,-651.432 L -15.6598,-651.531 L -15.4001,-651.597
 L -15.1341,-651.631 L -14.8659,-651.631 L -14.5999,-651.597 L -14.3401,-651.531 L -14.0908,-651.432 L -13.8559,-651.303
 L -13.6389,-651.145 L -13.4434,-650.962 L -13.2725,-650.755 L -13.1288,-650.529 L -13.0146,-650.286 L -12.9318,-650.031
 L -12.8815,-649.768 L -12.8647,-649.5 L -12.8815,-649.232 L -12.9318,-648.969 L -13.0146,-648.714 L -13.1288,-648.471
 L -13.2725,-648.245 L -13.4434,-648.038 L -13.6389,-647.855 L -13.8559,-647.697 L -14.0908,-647.568 L -14.3401,-647.469
 L -14.5999,-647.403 L -14.8659,-647.369 z
M 14.8659,-482.369 L 14.5999,-482.403 L 14.3401,-482.469 L 14.0908,-482.568 L 13.8559,-482.697 L 13.6389,-482.855
 L 13.4434,-483.038 L 13.2725,-483.245 L 13.1288,-483.471 L 13.0146,-483.714 L 12.9318,-483.969 L 12.8815,-484.232
 L 12.8647,-484.5 L 12.8815,-484.768 L 12.9318,-485.031 L 13.0146,-485.286 L 13.1288,-485.529 L 13.2725,-485.755
 L 13.4434,-485.962 L 13.6389,-486.145 L 13.8559,-486.303 L 14.0908,-486.432 L 14.3401,-486.531 L 14.5999,-486.597
 L 14.8659,-486.631 L 15.1341,-486.631 L 15.4001,-486.597 L 15.6598,-486.531 L 15.9091,-486.432 L 16.1441,-486.303
 L 16.3611,-486.145 L 16.5565,-485.962 L 16.7275,-485.755 L 16.8712,-485.529 L 16.9853,-485.286 L 17.0682,-485.031
 L 17.1185,-484.768 L 17.1353,-484.5 L 17.1185,-484.232 L 17.0682,-483.969 L 16.9853,-483.714 L 16.8712,-483.471
 L 16.7275,-483.245 L 16.5565,-483.038 L 16.3611,-482.855 L 16.1441,-482.697 L 15.9091,-482.568 L 15.6598,-482.469
 L 15.4001,-482.403 L 15.1341,-482.369 z
M -15.1341,-482.369 L -15.4001,-482.403 L -15.6598,-482.469 L -15.9091,-482.568 L -16.1441,-482.697 L -16.3611,-482.855
 L -16.5565,-483.038 L -16.7275,-483.245 L -16.8712,-483.471 L -16.9853,-483.714 L -17.0682,-483.969 L -17.1185,-484.232
 L -17.1353,-484.5 L -17.1185,-484.768 L -17.0682,-485.031 L -16.9853,-485.286 L -16.8712,-485.529 L -16.7275,-485.755
 L -16.5565,-485.962 L -16.3611,-486.145 L -16.1441,-486.303 L -15.9091,-486.432 L -15.6598,-486.531 L -15.4001,-486.597
 L -15.1341,-486.631 L -14.8659,-486.631 L -14.5999,-486.597 L -14.3401,-486.531 L -14.0908,-486.432 L -13.8559,-486.303
 L -13.6389,-486.145 L -13.4434,-485.962 L -13.2725,-485.755 L -13.1288,-485.529 L -13.0146,-485.286 L -12.9318,-485.031
 L -12.8815,-484.768 L -12.8647,-484.5 L -12.8815,-484.232 L -12.9318,-483.969 L -13.0146,-483.714 L -13.1288,-483.471
 L -13.2725,-483.245 L -13.4434,-483.038 L -13.6389,-482.855 L -13.8559,-482.697 L -14.0908,-482.568 L -14.3401,-482.469
 L -14.5999,-482.403 L -14.8659,-482.369 z
" stroke="black" fill="lightgray" stroke-width="0.5"/>
</svg>
