<?xml version="1.0" standalone="no"?>
<!DOCTYPE svg PUBLIC "-//W3C//DTD SVG 1.1//EN" "http://www.w3.org/Graphics/SVG/1.1/DTD/svg11.dtd">
<svg width="77mm" height="198mm" viewBox="-39 -306 77 198" xmlns="http://www.w3.org/2000/svg" version="1.1">
<title>OpenSCAD Model</title>
<path d="
M -36,-247.441 L -35.6871,-247.147 L -35.1791,-246.778 L -34.6289,-246.476 L -34.0451,-246.245 L -33.4369,-246.089
 L -32.8139,-246.01 L 32.8139,-246.01 L 33.4369,-246.089 L 34.0451,-246.245 L 34.6289,-246.476 L 35.1791,-246.778
 L 35.6871,-247.147 L 36.1448,-247.577 L 36.5451,-248.061 L 36.8815,-248.591 L 37.1489,-249.159 L 37.3429,-249.757
 L 37.4606,-250.373 L 37.5,-251 L 37.5,-301 L 37.4606,-301.627 L 37.3429,-302.243 L 37.1489,-302.841
 L 36.8815,-303.409 L 36.5451,-303.939 L 36.1448,-304.423 L 35.6871,-304.853 L 35.1791,-305.222 L 34.6289,-305.524
 L 34.0451,-305.755 L 33.4369,-305.911 L 32.8139,-305.99 L -32.8139,-305.99 L -33.4369,-305.911 L -34.0451,-305.755
 L -34.6289,-305.524 L -35.1791,-305.222 L -35.6871,-304.853 L -36,-304.559 L -36,-305.99 L -39,-305.99
 L -39,-246.01 L -36,-246.01 z
M -32.2432,-247.635 L -32.7256,-247.696 L -33.1967,-247.817 L -33.6489,-247.996 L -34.0751,-248.23 L -34.4685,-248.516
 L -34.823,-248.849 L -35.133,-249.224 L -35.3936,-249.634 L -35.6007,-250.074 L -35.751,-250.537 L -35.8421,-251.015
 L -35.8726,-251.5 L -35.8726,-300.5 L -35.8421,-300.985 L -35.751,-301.463 L -35.6007,-301.926 L -35.3936,-302.366
 L -35.133,-302.776 L -34.823,-303.151 L -34.4685,-303.484 L -34.0751,-303.77 L -33.6489,-304.004 L -33.1967,-304.183
 L -32.7256,-304.304 L -32.2432,-304.365 L 32.2432,-304.365 L 32.7256,-304.304 L 33.1967,-304.183 L 33.6489,-304.004
 L 34.0751,-303.77 L 34.4685,-303.484 L 34.823,-303.151 L 35.133,-302.776 L 35.3936,-302.366 L 35.6007,-301.926
 L 35.751,-301.463 L 35.8421,-300.985 L 35.8726,-300.5 L 35.8726,-251.5 L 35.8421,-251.015 L 35.751,-250.537
 L 35.6007,-250.074 L 35.3936,-249.634 L 35.133,-249.224 L 34.823,-248.849 L 34.4685,-248.516 L 34.0751,-248.23
 L 33.6489,-247.996 L 33.1967,-247.817 L 32.7256,-247.696 L 32.2432,-247.635 z
M 33.4369,-177.089 L 34.0451,-177.245 L 34.6289,-177.476 L 35.1791,-177.778 L 35.6871,-178.147 L 36.1448,-178.577
 L 36.5451,-179.061 L 36.8815,-179.591 L 37.1489,-180.159 L 37.3429,-180.757 L 37.4606,-181.373 L 37.5,-182
 L 37.5,-232 L 37.4606,-232.627 L 37.3429,-233.243 L 37.1489,-233.841 L 36.8815,-234.409 L 36.5451,-234.939
 L 36.1448,-235.423 L 35.6871,-235.853 L 35.1791,-236.222 L 34.6289,-236.524 L 34.0451,-236.755 L 33.4369,-236.911
 L 32.8139,-236.99 L -32.8139,-236.99 L -33.4369,-236.911 L -34.0451,-236.755 L -34.6289,-236.524 L -35.1791,-236.222
 L -35.6871,-235.853 L -36,-235.559 L -36,-236.615 L -39,-236.615 L -39,-177.385 L -36,-177.385
 L -36,-178.441 L -35.6871,-178.147 L -35.1791,-177.778 L -34.6289,-177.476 L -34.0451,-177.245 L -33.4369,-177.089
 L -32.8139,-177.01 L 32.8139,-177.01 z
M 33.4369,-108.089 L 34.0451,-108.245 L 34.6289,-108.476 L 35.1791,-108.778 L 35.6871,-109.147 L 36.1448,-109.577
 L 36.5451,-110.061 L 36.8815,-110.591 L 37.1489,-111.159 L 37.3429,-111.757 L 37.4606,-112.373 L 37.5,-113
 L 37.5,-163 L 37.4606,-163.627 L 37.3429,-164.243 L 37.1489,-164.841 L 36.8815,-165.409 L 36.5451,-165.939
 L 36.1448,-166.423 L 35.6871,-166.853 L 35.1791,-167.222 L 34.6289,-167.524 L 34.0451,-167.755 L 33.4369,-167.911
 L 32.8139,-167.99 L -32.8139,-167.99 L -33.4369,-167.911 L -34.0451,-167.755 L -34.6289,-167.524 L -35.1791,-167.222
 L -35.6871,-166.853 L -36.1448,-166.423 L -36.5451,-165.939 L -36.8815,-165.409 L -37.1489,-164.841 L -37.3429,-164.243
 L -37.4,-163.944 L -39,-163.944 L -39,-112.056 L -37.4,-112.056 L -37.3429,-111.757 L -37.1489,-111.159
 L -36.8815,-110.591 L -36.5451,-110.061 L -36.1448,-109.577 L -35.6871,-109.147 L -35.1791,-108.778 L -34.6289,-108.476
 L -34.0451,-108.245 L -33.4369,-108.089 L -32.8139,-108.01 L 32.8139,-108.01 z
M 29.887,-158.704 L 29.6627,-158.732 L 29.4438,-158.788 L 29.2336,-158.871 L 29.0355,-158.98 L 28.8526,-159.113
 L 28.6879,-159.268 L 28.5438,-159.442 L 28.4226,-159.633 L 28.3264,-159.837 L 28.2565,-160.052 L 28.2142,-160.274
 L 28.2,-160.5 L 28.2142,-160.726 L 28.2565,-160.948 L 28.3264,-161.163 L 28.4226,-161.367 L 28.5438,-161.558
 L 28.6879,-161.732 L 28.8526,-161.887 L 29.0355,-162.02 L 29.2336,-162.129 L 29.4438,-162.212 L 29.6627,-162.268
 L 29.887,-162.296 L 30.113,-162.296 L 30.3373,-162.268 L 30.5562,-162.212 L 30.7664,-162.129 L 30.9645,-162.02
 L 31.1474,-161.887 L 31.3121,-161.732 L 31.4562,-161.558 L 31.5773,-161.367 L 31.6736,-161.163 L 31.7434,-160.948
 L 31.7858,-160.726 L 31.8,-160.5 L 31.7858,-160.274 L 31.7434,-160.052 L 31.6736,-159.837 L 31.5773,-159.633
 L 31.4562,-159.442 L 31.3121,-159.268 L 31.1474,-159.113 L 30.9645,-158.98 L 30.7664,-158.871 L 30.5562,-158.788
 L 30.3373,-158.732 L 30.113,-158.704 z
M -30.113,-158.704 L -30.3373,-158.732 L -30.5562,-158.788 L -30.7664,-158.871 L -30.9645,-158.98 L -31.1474,-159.113
 L -31.3121,-159.268 L -31.4562,-159.442 L -31.5773,-159.633 L -31.6736,-159.837 L -31.7434,-160.052 L -31.7858,-160.274
 L -31.8,-160.5 L -31.7858,-160.726 L -31.7434,-160.948 L -31.6736,-161.163 L -31.5773,-161.367 L -31.4562,-161.558
 L -31.3121,-161.732 L -31.1474,-161.887 L -30.9645,-162.02 L -30.7664,-162.129 L -30.5562,-162.212 L -30.3373,-162.268
 L -30.113,-162.296 L -29.887,-162.296 L -29.6627,-162.268 L -29.4438,-162.212 L -29.2336,-162.129 L -29.0355,-162.02
 L -28.8526,-161.887 L -28.6879,-161.732 L -28.5438,-161.558 L -28.4226,-161.367 L -28.3264,-161.163 L -28.2565,-160.948
 L -28.2142,-160.726 L -28.2,-160.5 L -28.2142,-160.274 L -28.2565,-160.052 L -28.3264,-159.837 L -28.4226,-159.633
 L -28.5438,-159.442 L -28.6879,-159.268 L -28.8526,-159.113 L -29.0355,-158.98 L -29.2336,-158.871 L -29.4438,-158.788
 L -29.6627,-158.732 L -29.887,-158.704 z
M 29.887,-113.704 L 29.6627,-113.732 L 29.4438,-113.788 L 29.2336,-113.871 L 29.0355,-113.98 L 28.8526,-114.113
 L 28.6879,-114.268 L 28.5438,-114.442 L 28.4226,-114.633 L 28.3264,-114.837 L 28.2565,-115.052 L 28.2142,-115.274
 L 28.2,-115.5 L 28.2142,-115.726 L 28.2565,-115.948 L 28.3264,-116.163 L 28.4226,-116.367 L 28.5438,-116.558
 L 28.6879,-116.732 L 28.8526,-116.887 L 29.0355,-117.02 L 29.2336,-117.129 L 29.4438,-117.212 L 29.6627,-117.268
 L 29.887,-117.296 L 30.113,-117.296 L 30.3373,-117.268 L 30.5562,-117.212 L 30.7664,-117.129 L 30.9645,-117.02
 L 31.1474,-116.887 L 31.3121,-116.732 L 31.4562,-116.558 L 31.5773,-116.367 L 31.6736,-116.163 L 31.7434,-115.948
 L 31.7858,-115.726 L 31.8,-115.5 L 31.7858,-115.274 L 31.7434,-115.052 L 31.6736,-114.837 L 31.5773,-114.633
 L 31.4562,-114.442 L 31.3121,-114.268 L 31.1474,-114.113 L 30.9645,-113.98 L 30.7664,-113.871 L 30.5562,-113.788
 L 30.3373,-113.732 L 30.113,-113.704 z
M -30.113,-113.704 L -30.3373,-113.732 L -30.5562,-113.788 L -30.7664,-113.871 L -30.9645,-113.98 L -31.1474,-114.113
 L -31.3121,-114.268 L -31.4562,-114.442 L -31.5773,-114.633 L -31.6736,-114.837 L -31.7434,-115.052 L -31.7858,-115.274
 L -31.8,-115.5 L -31.7858,-115.726 L -31.7434,-115.948 L -31.6736,-116.163 L -31.5773,-116.367 L -31.4562,-116.558
 L -31.3121,-116.732 L -31.1474,-116.887 L -30.9645,-117.02 L -30.7664,-117.129 L -30.5562,-117.212 L -30.3373,-117.268
 L -30.113,-117.296 L -29.887,-117.296 L -29.6627,-117.268 L -29.4438,-117.212 L -29.2336,-117.129 L -29.0355,-117.02
 L -28.8526,-116.887 L -28.6879,-116.732 L -28.5438,-116.558 L -28.4226,-116.367 L -28.3264,-116.163 L -28.2565,-115.948
 L -28.2142,-115.726 L -28.2,-115.5 L -28.2142,-115.274 L -28.2565,-115.052 L -28.3264,-114.837 L -28.4226,-114.633
 L -28.5438,-114.442 L -28.6879,-114.268 L -28.8526,-114.113 L -29.0355,-113.98 L -29.2336,-113.871 L -29.4438,-113.788
 L -29.6627,-113.732 L -29.887,-113.704 z
" stroke="black" fill="lightgray" stroke-width="0.5"/>
</svg>
