  0
SECTION
  2
BLOCKS
  0
ENDSEC
  0
SECTION
  2
ENTITIES
  0
LINE
  8
0
 10
3.4369
 20
666.089
 11
4.04507
 21
666.245
  0
LINE
  8
0
 10
4.04507
 20
666.245
 11
4.62889
 21
666.476
  0
LINE
  8
0
 10
4.62889
 20
666.476
 11
5.17912
 21
666.778
  0
LINE
  8
0
 10
5.17912
 20
666.778
 11
5.68712
 21
667.147
  0
LINE
  8
0
 10
5.68712
 20
667.147
 11
6.14484
 21
667.577
  0
LINE
  8
0
 10
6.14484
 20
667.577
 11
6.54507
 21
668.061
  0
LINE
  8
0
 10
6.54507
 20
668.061
 11
6.88153
 21
668.591
  0
LINE
  8
0
 10
6.88153
 20
668.591
 11
7.14888
 21
669.159
  0
LINE
  8
0
 10
7.14888
 20
669.159
 11
7.34291
 21
669.757
  0
LINE
  8
0
 10
7.34291
 20
669.757
 11
7.46057
 21
670.373
  0
LINE
  8
0
 10
7.46057
 20
670.373
 11
7.5
 21
671
  0
LINE
  8
0
 10
7.5
 20
671
 11
7.5
 21
841
  0
LINE
  8
0
 10
7.5
 20
841
 11
7.46057
 21
841.627
  0
LINE
  8
0
 10
7.46057
 20
841.627
 11
7.34291
 21
842.243
  0
LINE
  8
0
 10
7.34291
 20
842.243
 11
7.14888
 21
842.841
  0
LINE
  8
0
 10
7.14888
 20
842.841
 11
6.88153
 21
843.409
  0
LINE
  8
0
 10
6.88153
 20
843.409
 11
6.54507
 21
843.939
  0
LINE
  8
0
 10
6.54507
 20
843.939
 11
6.14484
 21
844.423
  0
LINE
  8
0
 10
6.14484
 20
844.423
 11
5.68712
 21
844.853
  0
LINE
  8
0
 10
5.68712
 20
844.853
 11
5.17912
 21
845.222
  0
LINE
  8
0
 10
5.17912
 20
845.222
 11
4.62889
 21
845.524
  0
LINE
  8
0
 10
4.62889
 20
845.524
 11
4.04507
 21
845.755
  0
LINE
  8
0
 10
4.04507
 20
845.755
 11
3.4369
 21
845.911
  0
LINE
  8
0
 10
3.4369
 20
845.911
 11
2.81395
 21
845.99
  0
LINE
  8
0
 10
2.81395
 20
845.99
 11
-2.81395
 21
845.99
  0
LINE
  8
0
 10
-2.81395
 20
845.99
 11
-3.4369
 21
845.911
  0
LINE
  8
0
 10
-3.4369
 20
845.911
 11
-4.04507
 21
845.755
  0
LINE
  8
0
 10
-4.04507
 20
845.755
 11
-4.62889
 21
845.524
  0
LINE
  8
0
 10
-4.62889
 20
845.524
 11
-5.17912
 21
845.222
  0
LINE
  8
0
 10
-5.17912
 20
845.222
 11
-5.68712
 21
844.853
  0
LINE
  8
0
 10
-5.68712
 20
844.853
 11
-6.14484
 21
844.423
  0
LINE
  8
0
 10
-6.14484
 20
844.423
 11
-6.54507
 21
843.939
  0
LINE
  8
0
 10
-6.54507
 20
843.939
 11
-6.88153
 21
843.409
  0
LINE
  8
0
 10
-6.88153
 20
843.409
 11
-7.14888
 21
842.841
  0
LINE
  8
0
 10
-7.14888
 20
842.841
 11
-7.34291
 21
842.243
  0
LINE
  8
0
 10
-7.34291
 20
842.243
 11
-7.46057
 21
841.627
  0
LINE
  8
0
 10
-7.46057
 20
841.627
 11
-7.5
 21
841
  0
LINE
  8
0
 10
-7.5
 20
841
 11
-7.5
 21
671
  0
LINE
  8
0
 10
-7.5
 20
671
 11
-7.46057
 21
670.373
  0
LINE
  8
0
 10
-7.46057
 20
670.373
 11
-7.34291
 21
669.757
  0
LINE
  8
0
 10
-7.34291
 20
669.757
 11
-7.14888
 21
669.159
  0
LINE
  8
0
 10
-7.14888
 20
669.159
 11
-6.88153
 21
668.591
  0
LINE
  8
0
 10
-6.88153
 20
668.591
 11
-6.54507
 21
668.061
  0
LINE
  8
0
 10
-6.54507
 20
668.061
 11
-6.14484
 21
667.577
  0
LINE
  8
0
 10
-6.14484
 20
667.577
 11
-5.68712
 21
667.147
  0
LINE
  8
0
 10
-5.68712
 20
667.147
 11
-5.17912
 21
666.778
  0
LINE
  8
0
 10
-5.17912
 20
666.778
 11
-4.62889
 21
666.476
  0
LINE
  8
0
 10
-4.62889
 20
666.476
 11
-4.04507
 21
666.245
  0
LINE
  8
0
 10
-4.04507
 20
666.245
 11
-3.4369
 21
666.089
  0
LINE
  8
0
 10
-3.4369
 20
666.089
 11
-2.81395
 21
666.01
  0
LINE
  8
0
 10
-2.81395
 20
666.01
 11
2.81395
 21
666.01
  0
LINE
  8
0
 10
2.81395
 20
666.01
 11
3.4369
 21
666.089
  0
LINE
  8
0
 10
-2.24316
 20
667.635
 11
-2.72565
 21
667.696
  0
LINE
  8
0
 10
-2.72565
 20
667.696
 11
-3.1967
 21
667.817
  0
LINE
  8
0
 10
-3.1967
 20
667.817
 11
-3.64888
 21
667.996
  0
LINE
  8
0
 10
-3.64888
 20
667.996
 11
-4.07506
 21
668.23
  0
LINE
  8
0
 10
-4.07506
 20
668.23
 11
-4.46851
 21
668.516
  0
LINE
  8
0
 10
-4.46851
 20
668.516
 11
-4.82301
 21
668.849
  0
LINE
  8
0
 10
-4.82301
 20
668.849
 11
-5.13301
 21
669.224
  0
LINE
  8
0
 10
-5.13301
 20
669.224
 11
-5.3936
 21
669.634
  0
LINE
  8
0
 10
-5.3936
 20
669.634
 11
-5.60068
 21
670.074
  0
LINE
  8
0
 10
-5.60068
 20
670.074
 11
-5.75096
 21
670.537
  0
LINE
  8
0
 10
-5.75096
 20
670.537
 11
-5.84209
 21
671.015
  0
LINE
  8
0
 10
-5.84209
 20
671.015
 11
-5.87262
 21
671.5
  0
LINE
  8
0
 10
-5.87262
 20
671.5
 11
-5.87262
 21
840.5
  0
LINE
  8
0
 10
-5.87262
 20
840.5
 11
-5.84209
 21
840.985
  0
LINE
  8
0
 10
-5.84209
 20
840.985
 11
-5.75096
 21
841.463
  0
LINE
  8
0
 10
-5.75096
 20
841.463
 11
-5.60068
 21
841.926
  0
LINE
  8
0
 10
-5.60068
 20
841.926
 11
-5.3936
 21
842.366
  0
LINE
  8
0
 10
-5.3936
 20
842.366
 11
-5.13301
 21
842.776
  0
LINE
  8
0
 10
-5.13301
 20
842.776
 11
-4.82301
 21
843.151
  0
LINE
  8
0
 10
-4.82301
 20
843.151
 11
-4.46851
 21
843.484
  0
LINE
  8
0
 10
-4.46851
 20
843.484
 11
-4.07506
 21
843.77
  0
LINE
  8
0
 10
-4.07506
 20
843.77
 11
-3.64888
 21
844.004
  0
LINE
  8
0
 10
-3.64888
 20
844.004
 11
-3.1967
 21
844.183
  0
LINE
  8
0
 10
-3.1967
 20
844.183
 11
-2.72565
 21
844.304
  0
LINE
  8
0
 10
-2.72565
 20
844.304
 11
-2.24316
 21
844.365
  0
LINE
  8
0
 10
-2.24316
 20
844.365
 11
2.24316
 21
844.365
  0
LINE
  8
0
 10
2.24316
 20
844.365
 11
2.72565
 21
844.304
  0
LINE
  8
0
 10
2.72565
 20
844.304
 11
3.1967
 21
844.183
  0
LINE
  8
0
 10
3.1967
 20
844.183
 11
3.64888
 21
844.004
  0
LINE
  8
0
 10
3.64888
 20
844.004
 11
4.07506
 21
843.77
  0
LINE
  8
0
 10
4.07506
 20
843.77
 11
4.46851
 21
843.484
  0
LINE
  8
0
 10
4.46851
 20
843.484
 11
4.82301
 21
843.151
  0
LINE
  8
0
 10
4.82301
 20
843.151
 11
5.13301
 21
842.776
  0
LINE
  8
0
 10
5.13301
 20
842.776
 11
5.3936
 21
842.366
  0
LINE
  8
0
 10
5.3936
 20
842.366
 11
5.60068
 21
841.926
  0
LINE
  8
0
 10
5.60068
 20
841.926
 11
5.75096
 21
841.463
  0
LINE
  8
0
 10
5.75096
 20
841.463
 11
5.84209
 21
840.985
  0
LINE
  8
0
 10
5.84209
 20
840.985
 11
5.87262
 21
840.5
  0
LINE
  8
0
 10
5.87262
 20
840.5
 11
5.87262
 21
671.5
  0
LINE
  8
0
 10
5.87262
 20
671.5
 11
5.84209
 21
671.015
  0
LINE
  8
0
 10
5.84209
 20
671.015
 11
5.75096
 21
670.537
  0
LINE
  8
0
 10
5.75096
 20
670.537
 11
5.60068
 21
670.074
  0
LINE
  8
0
 10
5.60068
 20
670.074
 11
5.3936
 21
669.634
  0
LINE
  8
0
 10
5.3936
 20
669.634
 11
5.13301
 21
669.224
  0
LINE
  8
0
 10
5.13301
 20
669.224
 11
4.82301
 21
668.849
  0
LINE
  8
0
 10
4.82301
 20
668.849
 11
4.46851
 21
668.516
  0
LINE
  8
0
 10
4.46851
 20
668.516
 11
4.07506
 21
668.23
  0
LINE
  8
0
 10
4.07506
 20
668.23
 11
3.64888
 21
667.996
  0
LINE
  8
0
 10
3.64888
 20
667.996
 11
3.1967
 21
667.817
  0
LINE
  8
0
 10
3.1967
 20
667.817
 11
2.72565
 21
667.696
  0
LINE
  8
0
 10
2.72565
 20
667.696
 11
2.24316
 21
667.635
  0
LINE
  8
0
 10
2.24316
 20
667.635
 11
-2.24316
 21
667.635
  0
LINE
  8
0
 10
3.4369
 20
477.089
 11
4.04507
 21
477.245
  0
LINE
  8
0
 10
4.04507
 20
477.245
 11
4.62889
 21
477.476
  0
LINE
  8
0
 10
4.62889
 20
477.476
 11
5.17912
 21
477.778
  0
LINE
  8
0
 10
5.17912
 20
477.778
 11
5.68712
 21
478.147
  0
LINE
  8
0
 10
5.68712
 20
478.147
 11
6.14484
 21
478.577
  0
LINE
  8
0
 10
6.14484
 20
478.577
 11
6.54507
 21
479.061
  0
LINE
  8
0
 10
6.54507
 20
479.061
 11
6.88153
 21
479.591
  0
LINE
  8
0
 10
6.88153
 20
479.591
 11
7.14888
 21
480.159
  0
LINE
  8
0
 10
7.14888
 20
480.159
 11
7.34291
 21
480.757
  0
LINE
  8
0
 10
7.34291
 20
480.757
 11
7.46057
 21
481.373
  0
LINE
  8
0
 10
7.46057
 20
481.373
 11
7.5
 21
482
  0
LINE
  8
0
 10
7.5
 20
482
 11
7.5
 21
652
  0
LINE
  8
0
 10
7.5
 20
652
 11
7.46057
 21
652.627
  0
LINE
  8
0
 10
7.46057
 20
652.627
 11
7.34291
 21
653.243
  0
LINE
  8
0
 10
7.34291
 20
653.243
 11
7.14888
 21
653.841
  0
LINE
  8
0
 10
7.14888
 20
653.841
 11
6.88153
 21
654.409
  0
LINE
  8
0
 10
6.88153
 20
654.409
 11
6.54507
 21
654.939
  0
LINE
  8
0
 10
6.54507
 20
654.939
 11
6.14484
 21
655.423
  0
LINE
  8
0
 10
6.14484
 20
655.423
 11
5.68712
 21
655.853
  0
LINE
  8
0
 10
5.68712
 20
655.853
 11
5.17912
 21
656.222
  0
LINE
  8
0
 10
5.17912
 20
656.222
 11
4.62889
 21
656.524
  0
LINE
  8
0
 10
4.62889
 20
656.524
 11
4.04507
 21
656.755
  0
LINE
  8
0
 10
4.04507
 20
656.755
 11
3.4369
 21
656.911
  0
LINE
  8
0
 10
3.4369
 20
656.911
 11
2.81395
 21
656.99
  0
LINE
  8
0
 10
2.81395
 20
656.99
 11
-2.81395
 21
656.99
  0
LINE
  8
0
 10
-2.81395
 20
656.99
 11
-3.4369
 21
656.911
  0
LINE
  8
0
 10
-3.4369
 20
656.911
 11
-4.04507
 21
656.755
  0
LINE
  8
0
 10
-4.04507
 20
656.755
 11
-4.62889
 21
656.524
  0
LINE
  8
0
 10
-4.62889
 20
656.524
 11
-5.17912
 21
656.222
  0
LINE
  8
0
 10
-5.17912
 20
656.222
 11
-5.68712
 21
655.853
  0
LINE
  8
0
 10
-5.68712
 20
655.853
 11
-6.14484
 21
655.423
  0
LINE
  8
0
 10
-6.14484
 20
655.423
 11
-6.54507
 21
654.939
  0
LINE
  8
0
 10
-6.54507
 20
654.939
 11
-6.88153
 21
654.409
  0
LINE
  8
0
 10
-6.88153
 20
654.409
 11
-7.14888
 21
653.841
  0
LINE
  8
0
 10
-7.14888
 20
653.841
 11
-7.34291
 21
653.243
  0
LINE
  8
0
 10
-7.34291
 20
653.243
 11
-7.46057
 21
652.627
  0
LINE
  8
0
 10
-7.46057
 20
652.627
 11
-7.5
 21
652
  0
LINE
  8
0
 10
-7.5
 20
652
 11
-7.5
 21
482
  0
LINE
  8
0
 10
-7.5
 20
482
 11
-7.46057
 21
481.373
  0
LINE
  8
0
 10
-7.46057
 20
481.373
 11
-7.34291
 21
480.757
  0
LINE
  8
0
 10
-7.34291
 20
480.757
 11
-7.14888
 21
480.159
  0
LINE
  8
0
 10
-7.14888
 20
480.159
 11
-6.88153
 21
479.591
  0
LINE
  8
0
 10
-6.88153
 20
479.591
 11
-6.54507
 21
479.061
  0
LINE
  8
0
 10
-6.54507
 20
479.061
 11
-6.14484
 21
478.577
  0
LINE
  8
0
 10
-6.14484
 20
478.577
 11
-5.68712
 21
478.147
  0
LINE
  8
0
 10
-5.68712
 20
478.147
 11
-5.17912
 21
477.778
  0
LINE
  8
0
 10
-5.17912
 20
477.778
 11
-4.62889
 21
477.476
  0
LINE
  8
0
 10
-4.62889
 20
477.476
 11
-4.04507
 21
477.245
  0
LINE
  8
0
 10
-4.04507
 20
477.245
 11
-3.4369
 21
477.089
  0
LINE
  8
0
 10
-3.4369
 20
477.089
 11
-2.81395
 21
477.01
  0
LINE
  8
0
 10
-2.81395
 20
477.01
 11
2.81395
 21
477.01
  0
LINE
  8
0
 10
2.81395
 20
477.01
 11
3.4369
 21
477.089
  0
LINE
  8
0
 10
3.4369
 20
288.089
 11
4.04507
 21
288.245
  0
LINE
  8
0
 10
4.04507
 20
288.245
 11
4.62889
 21
288.476
  0
LINE
  8
0
 10
4.62889
 20
288.476
 11
5.17912
 21
288.778
  0
LINE
  8
0
 10
5.17912
 20
288.778
 11
5.68712
 21
289.147
  0
LINE
  8
0
 10
5.68712
 20
289.147
 11
6.14484
 21
289.577
  0
LINE
  8
0
 10
6.14484
 20
289.577
 11
6.54507
 21
290.061
  0
LINE
  8
0
 10
6.54507
 20
290.061
 11
6.88153
 21
290.591
  0
LINE
  8
0
 10
6.88153
 20
290.591
 11
7.14888
 21
291.159
  0
LINE
  8
0
 10
7.14888
 20
291.159
 11
7.34291
 21
291.757
  0
LINE
  8
0
 10
7.34291
 20
291.757
 11
7.46057
 21
292.373
  0
LINE
  8
0
 10
7.46057
 20
292.373
 11
7.5
 21
293
  0
LINE
  8
0
 10
7.5
 20
293
 11
7.5
 21
463
  0
LINE
  8
0
 10
7.5
 20
463
 11
7.46057
 21
463.627
  0
LINE
  8
0
 10
7.46057
 20
463.627
 11
7.34291
 21
464.243
  0
LINE
  8
0
 10
7.34291
 20
464.243
 11
7.14888
 21
464.841
  0
LINE
  8
0
 10
7.14888
 20
464.841
 11
6.88153
 21
465.409
  0
LINE
  8
0
 10
6.88153
 20
465.409
 11
6.54507
 21
465.939
  0
LINE
  8
0
 10
6.54507
 20
465.939
 11
6.14484
 21
466.423
  0
LINE
  8
0
 10
6.14484
 20
466.423
 11
5.68712
 21
466.853
  0
LINE
  8
0
 10
5.68712
 20
466.853
 11
5.17912
 21
467.222
  0
LINE
  8
0
 10
5.17912
 20
467.222
 11
4.62889
 21
467.524
  0
LINE
  8
0
 10
4.62889
 20
467.524
 11
4.04507
 21
467.755
  0
LINE
  8
0
 10
4.04507
 20
467.755
 11
3.4369
 21
467.911
  0
LINE
  8
0
 10
3.4369
 20
467.911
 11
2.81395
 21
467.99
  0
LINE
  8
0
 10
2.81395
 20
467.99
 11
-2.81395
 21
467.99
  0
LINE
  8
0
 10
-2.81395
 20
467.99
 11
-3.4369
 21
467.911
  0
LINE
  8
0
 10
-3.4369
 20
467.911
 11
-4.04507
 21
467.755
  0
LINE
  8
0
 10
-4.04507
 20
467.755
 11
-4.62889
 21
467.524
  0
LINE
  8
0
 10
-4.62889
 20
467.524
 11
-5.17912
 21
467.222
  0
LINE
  8
0
 10
-5.17912
 20
467.222
 11
-5.68712
 21
466.853
  0
LINE
  8
0
 10
-5.68712
 20
466.853
 11
-6.14484
 21
466.423
  0
LINE
  8
0
 10
-6.14484
 20
466.423
 11
-6.54507
 21
465.939
  0
LINE
  8
0
 10
-6.54507
 20
465.939
 11
-6.88153
 21
465.409
  0
LINE
  8
0
 10
-6.88153
 20
465.409
 11
-7.14888
 21
464.841
  0
LINE
  8
0
 10
-7.14888
 20
464.841
 11
-7.34291
 21
464.243
  0
LINE
  8
0
 10
-7.34291
 20
464.243
 11
-7.46057
 21
463.627
  0
LINE
  8
0
 10
-7.46057
 20
463.627
 11
-7.5
 21
463
  0
LINE
  8
0
 10
-7.5
 20
463
 11
-7.5
 21
293
  0
LINE
  8
0
 10
-7.5
 20
293
 11
-7.46057
 21
292.373
  0
LINE
  8
0
 10
-7.46057
 20
292.373
 11
-7.34291
 21
291.757
  0
LINE
  8
0
 10
-7.34291
 20
291.757
 11
-7.14888
 21
291.159
  0
LINE
  8
0
 10
-7.14888
 20
291.159
 11
-6.88153
 21
290.591
  0
LINE
  8
0
 10
-6.88153
 20
290.591
 11
-6.54507
 21
290.061
  0
LINE
  8
0
 10
-6.54507
 20
290.061
 11
-6.14484
 21
289.577
  0
LINE
  8
0
 10
-6.14484
 20
289.577
 11
-5.68712
 21
289.147
  0
LINE
  8
0
 10
-5.68712
 20
289.147
 11
-5.17912
 21
288.778
  0
LINE
  8
0
 10
-5.17912
 20
288.778
 11
-4.62889
 21
288.476
  0
LINE
  8
0
 10
-4.62889
 20
288.476
 11
-4.04507
 21
288.245
  0
LINE
  8
0
 10
-4.04507
 20
288.245
 11
-3.4369
 21
288.089
  0
LINE
  8
0
 10
-3.4369
 20
288.089
 11
-2.81395
 21
288.01
  0
LINE
  8
0
 10
-2.81395
 20
288.01
 11
2.81395
 21
288.01
  0
LINE
  8
0
 10
2.81395
 20
288.01
 11
3.4369
 21
288.089
  0
LINE
  8
0
 10
-0.113022
 20
458.704
 11
-0.33728
 21
458.732
  0
LINE
  8
0
 10
-0.33728
 20
458.732
 11
-0.556229
 21
458.788
  0
LINE
  8
0
 10
-0.556229
 20
458.788
 11
-0.766388
 21
458.871
  0
LINE
  8
0
 10
-0.766388
 20
458.871
 11
-0.964478
 21
458.98
  0
LINE
  8
0
 10
-0.964478
 20
458.98
 11
-1.14735
 21
459.113
  0
LINE
  8
0
 10
-1.14735
 20
459.113
 11
-1.31213
 21
459.268
  0
LINE
  8
0
 10
-1.31213
 20
459.268
 11
-1.45622
 21
459.442
  0
LINE
  8
0
 10
-1.45622
 20
459.442
 11
-1.57735
 21
459.633
  0
LINE
  8
0
 10
-1.57735
 20
459.633
 11
-1.67358
 21
459.837
  0
LINE
  8
0
 10
-1.67358
 20
459.837
 11
-1.74344
 21
460.052
  0
LINE
  8
0
 10
-1.74344
 20
460.052
 11
-1.7858
 21
460.274
  0
LINE
  8
0
 10
-1.7858
 20
460.274
 11
-1.79999
 21
460.5
  0
LINE
  8
0
 10
-1.79999
 20
460.5
 11
-1.7858
 21
460.726
  0
LINE
  8
0
 10
-1.7858
 20
460.726
 11
-1.74344
 21
460.948
  0
LINE
  8
0
 10
-1.74344
 20
460.948
 11
-1.67358
 21
461.163
  0
LINE
  8
0
 10
-1.67358
 20
461.163
 11
-1.57735
 21
461.367
  0
LINE
  8
0
 10
-1.57735
 20
461.367
 11
-1.45622
 21
461.558
  0
LINE
  8
0
 10
-1.45622
 20
461.558
 11
-1.31213
 21
461.732
  0
LINE
  8
0
 10
-1.31213
 20
461.732
 11
-1.14735
 21
461.887
  0
LINE
  8
0
 10
-1.14735
 20
461.887
 11
-0.964478
 21
462.02
  0
LINE
  8
0
 10
-0.964478
 20
462.02
 11
-0.766388
 21
462.129
  0
LINE
  8
0
 10
-0.766388
 20
462.129
 11
-0.556229
 21
462.212
  0
LINE
  8
0
 10
-0.556229
 20
462.212
 11
-0.33728
 21
462.268
  0
LINE
  8
0
 10
-0.33728
 20
462.268
 11
-0.113022
 21
462.296
  0
LINE
  8
0
 10
-0.113022
 20
462.296
 11
0.113022
 21
462.296
  0
LINE
  8
0
 10
0.113022
 20
462.296
 11
0.33728
 21
462.268
  0
LINE
  8
0
 10
0.33728
 20
462.268
 11
0.556229
 21
462.212
  0
LINE
  8
0
 10
0.556229
 20
462.212
 11
0.766388
 21
462.129
  0
LINE
  8
0
 10
0.766388
 20
462.129
 11
0.964478
 21
462.02
  0
LINE
  8
0
 10
0.964478
 20
462.02
 11
1.14735
 21
461.887
  0
LINE
  8
0
 10
1.14735
 20
461.887
 11
1.31213
 21
461.732
  0
LINE
  8
0
 10
1.31213
 20
461.732
 11
1.45622
 21
461.558
  0
LINE
  8
0
 10
1.45622
 20
461.558
 11
1.57735
 21
461.367
  0
LINE
  8
0
 10
1.57735
 20
461.367
 11
1.67358
 21
461.163
  0
LINE
  8
0
 10
1.67358
 20
461.163
 11
1.74344
 21
460.948
  0
LINE
  8
0
 10
1.74344
 20
460.948
 11
1.7858
 21
460.726
  0
LINE
  8
0
 10
1.7858
 20
460.726
 11
1.79999
 21
460.5
  0
LINE
  8
0
 10
1.79999
 20
460.5
 11
1.7858
 21
460.274
  0
LINE
  8
0
 10
1.7858
 20
460.274
 11
1.74344
 21
460.052
  0
LINE
  8
0
 10
1.74344
 20
460.052
 11
1.67358
 21
459.837
  0
LINE
  8
0
 10
1.67358
 20
459.837
 11
1.57735
 21
459.633
  0
LINE
  8
0
 10
1.57735
 20
459.633
 11
1.45622
 21
459.442
  0
LINE
  8
0
 10
1.45622
 20
459.442
 11
1.31213
 21
459.268
  0
LINE
  8
0
 10
1.31213
 20
459.268
 11
1.14735
 21
459.113
  0
LINE
  8
0
 10
1.14735
 20
459.113
 11
0.964478
 21
458.98
  0
LINE
  8
0
 10
0.964478
 20
458.98
 11
0.766388
 21
458.871
  0
LINE
  8
0
 10
0.766388
 20
458.871
 11
0.556229
 21
458.788
  0
LINE
  8
0
 10
0.556229
 20
458.788
 11
0.33728
 21
458.732
  0
LINE
  8
0
 10
0.33728
 20
458.732
 11
0.113022
 21
458.704
  0
LINE
  8
0
 10
0.113022
 20
458.704
 11
-0.113022
 21
458.704
  0
LINE
  8
0
 10
-0.113022
 20
293.704
 11
-0.33728
 21
293.732
  0
LINE
  8
0
 10
-0.33728
 20
293.732
 11
-0.556229
 21
293.788
  0
LINE
  8
0
 10
-0.556229
 20
293.788
 11
-0.766388
 21
293.871
  0
LINE
  8
0
 10
-0.766388
 20
293.871
 11
-0.964478
 21
293.98
  0
LINE
  8
0
 10
-0.964478
 20
293.98
 11
-1.14735
 21
294.113
  0
LINE
  8
0
 10
-1.14735
 20
294.113
 11
-1.31213
 21
294.268
  0
LINE
  8
0
 10
-1.31213
 20
294.268
 11
-1.45622
 21
294.442
  0
LINE
  8
0
 10
-1.45622
 20
294.442
 11
-1.57735
 21
294.633
  0
LINE
  8
0
 10
-1.57735
 20
294.633
 11
-1.67358
 21
294.837
  0
LINE
  8
0
 10
-1.67358
 20
294.837
 11
-1.74344
 21
295.052
  0
LINE
  8
0
 10
-1.74344
 20
295.052
 11
-1.7858
 21
295.274
  0
LINE
  8
0
 10
-1.7858
 20
295.274
 11
-1.79999
 21
295.5
  0
LINE
  8
0
 10
-1.79999
 20
295.5
 11
-1.7858
 21
295.726
  0
LINE
  8
0
 10
-1.7858
 20
295.726
 11
-1.74344
 21
295.948
  0
LINE
  8
0
 10
-1.74344
 20
295.948
 11
-1.67358
 21
296.163
  0
LINE
  8
0
 10
-1.67358
 20
296.163
 11
-1.57735
 21
296.367
  0
LINE
  8
0
 10
-1.57735
 20
296.367
 11
-1.45622
 21
296.558
  0
LINE
  8
0
 10
-1.45622
 20
296.558
 11
-1.31213
 21
296.732
  0
LINE
  8
0
 10
-1.31213
 20
296.732
 11
-1.14735
 21
296.887
  0
LINE
  8
0
 10
-1.14735
 20
296.887
 11
-0.964478
 21
297.02
  0
LINE
  8
0
 10
-0.964478
 20
297.02
 11
-0.766388
 21
297.129
  0
LINE
  8
0
 10
-0.766388
 20
297.129
 11
-0.556229
 21
297.212
  0
LINE
  8
0
 10
-0.556229
 20
297.212
 11
-0.33728
 21
297.268
  0
LINE
  8
0
 10
-0.33728
 20
297.268
 11
-0.113022
 21
297.296
  0
LINE
  8
0
 10
-0.113022
 20
297.296
 11
0.113022
 21
297.296
  0
LINE
  8
0
 10
0.113022
 20
297.296
 11
0.33728
 21
297.268
  0
LINE
  8
0
 10
0.33728
 20
297.268
 11
0.556229
 21
297.212
  0
LINE
  8
0
 10
0.556229
 20
297.212
 11
0.766388
 21
297.129
  0
LINE
  8
0
 10
0.766388
 20
297.129
 11
0.964478
 21
297.02
  0
LINE
  8
0
 10
0.964478
 20
297.02
 11
1.14735
 21
296.887
  0
LINE
  8
0
 10
1.14735
 20
296.887
 11
1.31213
 21
296.732
  0
LINE
  8
0
 10
1.31213
 20
296.732
 11
1.45622
 21
296.558
  0
LINE
  8
0
 10
1.45622
 20
296.558
 11
1.57735
 21
296.367
  0
LINE
  8
0
 10
1.57735
 20
296.367
 11
1.67358
 21
296.163
  0
LINE
  8
0
 10
1.67358
 20
296.163
 11
1.74344
 21
295.948
  0
LINE
  8
0
 10
1.74344
 20
295.948
 11
1.7858
 21
295.726
  0
LINE
  8
0
 10
1.7858
 20
295.726
 11
1.79999
 21
295.5
  0
LINE
  8
0
 10
1.79999
 20
295.5
 11
1.7858
 21
295.274
  0
LINE
  8
0
 10
1.7858
 20
295.274
 11
1.74344
 21
295.052
  0
LINE
  8
0
 10
1.74344
 20
295.052
 11
1.67358
 21
294.837
  0
LINE
  8
0
 10
1.67358
 20
294.837
 11
1.57735
 21
294.633
  0
LINE
  8
0
 10
1.57735
 20
294.633
 11
1.45622
 21
294.442
  0
LINE
  8
0
 10
1.45622
 20
294.442
 11
1.31213
 21
294.268
  0
LINE
  8
0
 10
1.31213
 20
294.268
 11
1.14735
 21
294.113
  0
LINE
  8
0
 10
1.14735
 20
294.113
 11
0.964478
 21
293.98
  0
LINE
  8
0
 10
0.964478
 20
293.98
 11
0.766388
 21
293.871
  0
LINE
  8
0
 10
0.766388
 20
293.871
 11
0.556229
 21
293.788
  0
LINE
  8
0
 10
0.556229
 20
293.788
 11
0.33728
 21
293.732
  0
LINE
  8
0
 10
0.33728
 20
293.732
 11
0.113022
 21
293.704
  0
LINE
  8
0
 10
0.113022
 20
293.704
 11
-0.113022
 21
293.704
  0
ENDSEC
  0
SECTION
  2
OBJECTS
  0
DICTIONARY
  0
ENDSEC
  0
EOF
