<?xml version="1.0" standalone="no"?>
<!DOCTYPE svg PUBLIC "-//W3C//DTD SVG 1.1//EN" "http://www.w3.org/Graphics/SVG/1.1/DTD/svg11.dtd">
<svg width="16mm" height="558mm" viewBox="-8 -846 16 558" xmlns="http://www.w3.org/2000/svg" version="1.1">
<title>OpenSCAD Model</title>
<path d="
M 3.4369,-666.089 L 4.04507,-666.245 L 4.62889,-666.476 L 5.17912,-666.778 L 5.68712,-667.147 L 6.14484,-667.577
 L 6.54507,-668.061 L 6.88153,-668.591 L 7.14888,-669.159 L 7.34291,-669.757 L 7.46057,-670.373 L 7.5,-671
 L 7.5,-841 L 7.46057,-841.627 L 7.34291,-842.243 L 7.14888,-842.841 L 6.88153,-843.409 L 6.54507,-843.939
 L 6.14484,-844.423 L 5.68712,-844.853 L 5.17912,-845.222 L 4.62889,-845.524 L 4.04507,-845.755 L 3.4369,-845.911
 L 2.81395,-845.99 L -2.81395,-845.99 L -3.4369,-845.911 L -4.04507,-845.755 L -4.62889,-845.524 L -5.17912,-845.222
 L -5.68712,-844.853 L -6.14484,-844.423 L -6.54507,-843.939 L -6.88153,-843.409 L -7.14888,-842.841 L -7.34291,-842.243
 L -7.46057,-841.627 L -7.5,-841 L -7.5,-671 L -7.46057,-670.373 L -7.34291,-669.757 L -7.14888,-669.159
 L -6.88153,-668.591 L -6.54507,-668.061 L -6.14484,-667.577 L -5.68712,-667.147 L -5.17912,-666.778 L -4.62889,-666.476
 L -4.04507,-666.245 L -3.4369,-666.089 L -2.81395,-666.01 L 2.81395,-666.01 z
M -2.24316,-667.635 L -2.72565,-667.696 L -3.1967,-667.817 L -3.64888,-667.996 L -4.07506,-668.23 L -4.46851,-668.516
 L -4.82301,-668.849 L -5.13301,-669.224 L -5.3936,-669.634 L -5.60068,-670.074 L -5.75096,-670.537 L -5.84209,-671.015
 L -5.87262,-671.5 L -5.87262,-840.5 L -5.84209,-840.985 L -5.75096,-841.463 L -5.60068,-841.926 L -5.3936,-842.366
 L -5.13301,-842.776 L -4.82301,-843.151 L -4.46851,-843.484 L -4.07506,-843.77 L -3.64888,-844.004 L -3.1967,-844.183
 L -2.72565,-844.304 L -2.24316,-844.365 L 2.24316,-844.365 L 2.72565,-844.304 L 3.1967,-844.183 L 3.64888,-844.004
 L 4.07506,-843.77 L 4.46851,-843.484 L 4.82301,-843.151 L 5.13301,-842.776 L 5.3936,-842.366 L 5.60068,-841.926
 L 5.75096,-841.463 L 5.84209,-840.985 L 5.87262,-840.5 L 5.87262,-671.5 L 5.84209,-671.015 L 5.75096,-670.537
 L 5.60068,-670.074 L 5.3936,-669.634 L 5.13301,-669.224 L 4.82301,-668.849 L 4.46851,-668.516 L 4.07506,-668.23
 L 3.64888,-667.996 L 3.1967,-667.817 L 2.72565,-667.696 L 2.24316,-667.635 z
M 3.4369,-477.089 L 4.04507,-477.245 L 4.62889,-477.476 L 5.17912,-477.778 L 5.68712,-478.147 L 6.14484,-478.577
 L 6.54507,-479.061 L 6.88153,-479.591 L 7.14888,-480.159 L 7.34291,-480.757 L 7.46057,-481.373 L 7.5,-482
 L 7.5,-652 L 7.46057,-652.627 L 7.34291,-653.243 L 7.14888,-653.841 L 6.88153,-654.409 L 6.54507,-654.939
 L 6.14484,-655.423 L 5.68712,-655.853 L 5.17912,-656.222 L 4.62889,-656.524 L 4.04507,-656.755 L 3.4369,-656.911
 L 2.81395,-656.99 L -2.81395,-656.99 L -3.4369,-656.911 L -4.04507,-656.755 L -4.62889,-656.524 L -5.17912,-656.222
 L -5.68712,-655.853 L -6.14484,-655.423 L -6.54507,-654.939 L -6.88153,-654.409 L -7.14888,-653.841 L -7.34291,-653.243
 L -7.46057,-652.627 L -7.5,-652 L -7.5,-482 L -7.46057,-481.373 L -7.34291,-480.757 L -7.14888,-480.159
 L -6.88153,-479.591 L -6.54507,-479.061 L -6.14484,-478.577 L -5.68712,-478.147 L -5.17912,-477.778 L -4.62889,-477.476
 L -4.04507,-477.245 L -3.4369,-477.089 L -2.81395,-477.01 L 2.81395,-477.01 z
M 3.4369,-288.089 L 4.04507,-288.245 L 4.62889,-288.476 L 5.17912,-288.778 L 5.68712,-289.147 L 6.14484,-289.577
 L 6.54507,-290.061 L 6.88153,-290.591 L 7.14888,-291.159 L 7.34291,-291.757 L 7.46057,-292.373 L 7.5,-293
 L 7.5,-463 L 7.46057,-463.627 L 7.34291,-464.243 L 7.14888,-464.841 L 6.88153,-465.409 L 6.54507,-465.939
 L 6.14484,-466.423 L 5.68712,-466.853 L 5.17912,-467.222 L 4.62889,-467.524 L 4.04507,-467.755 L 3.4369,-467.911
 L 2.81395,-467.99 L -2.81395,-467.99 L -3.4369,-467.911 L -4.04507,-467.755 L -4.62889,-467.524 L -5.17912,-467.222
 L -5.68712,-466.853 L -6.14484,-466.423 L -6.54507,-465.939 L -6.88153,-465.409 L -7.14888,-464.841 L -7.34291,-464.243
 L -7.46057,-463.627 L -7.5,-463 L -7.5,-293 L -7.46057,-292.373 L -7.34291,-291.757 L -7.14888,-291.159
 L -6.88153,-290.591 L -6.54507,-290.061 L -6.14484,-289.577 L -5.68712,-289.147 L -5.17912,-288.778 L -4.62889,-288.476
 L -4.04507,-288.245 L -3.4369,-288.089 L -2.81395,-288.01 L 2.81395,-288.01 z
M -0.113022,-458.704 L -0.33728,-458.732 L -0.556229,-458.788 L -0.766388,-458.871 L -0.964478,-458.98 L -1.14735,-459.113
 L -1.31213,-459.268 L -1.45622,-459.442 L -1.57735,-459.633 L -1.67358,-459.837 L -1.74344,-460.052 L -1.7858,-460.274
 L -1.79999,-460.5 L -1.7858,-460.726 L -1.74344,-460.948 L -1.67358,-461.163 L -1.57735,-461.367 L -1.45622,-461.558
 L -1.31213,-461.732 L -1.14735,-461.887 L -0.964478,-462.02 L -0.766388,-462.129 L -0.556229,-462.212 L -0.33728,-462.268
 L -0.113022,-462.296 L 0.113022,-462.296 L 0.33728,-462.268 L 0.556229,-462.212 L 0.766388,-462.129 L 0.964478,-462.02
 L 1.14735,-461.887 L 1.31213,-461.732 L 1.45622,-461.558 L 1.57735,-461.367 L 1.67358,-461.163 L 1.74344,-460.948
 L 1.7858,-460.726 L 1.79999,-460.5 L 1.7858,-460.274 L 1.74344,-460.052 L 1.67358,-459.837 L 1.57735,-459.633
 L 1.45622,-459.442 L 1.31213,-459.268 L 1.14735,-459.113 L 0.964478,-458.98 L 0.766388,-458.871 L 0.556229,-458.788
 L 0.33728,-458.732 L 0.113022,-458.704 z
M -0.113022,-293.704 L -0.33728,-293.732 L -0.556229,-293.788 L -0.766388,-293.871 L -0.964478,-293.98 L -1.14735,-294.113
 L -1.31213,-294.268 L -1.45622,-294.442 L -1.57735,-294.633 L -1.67358,-294.837 L -1.74344,-295.052 L -1.7858,-295.274
 L -1.79999,-295.5 L -1.7858,-295.726 L -1.74344,-295.948 L -1.67358,-296.163 L -1.57735,-296.367 L -1.45622,-296.558
 L -1.31213,-296.732 L -1.14735,-296.887 L -0.964478,-297.02 L -0.766388,-297.129 L -0.556229,-297.212 L -0.33728,-297.268
 L -0.113022,-297.296 L 0.113022,-297.296 L 0.33728,-297.268 L 0.556229,-297.212 L 0.766388,-297.129 L 0.964478,-297.02
 L 1.14735,-296.887 L 1.31213,-296.732 L 1.45622,-296.558 L 1.57735,-296.367 L 1.67358,-296.163 L 1.74344,-295.948
 L 1.7858,-295.726 L 1.79999,-295.5 L 1.7858,-295.274 L 1.74344,-295.052 L 1.67358,-294.837 L 1.57735,-294.633
 L 1.45622,-294.442 L 1.31213,-294.268 L 1.14735,-294.113 L 0.964478,-293.98 L 0.766388,-293.871 L 0.556229,-293.788
 L 0.33728,-293.732 L 0.113022,-293.704 z
" stroke="black" fill="lightgray" stroke-width="0.5"/>
</svg>
