<?xml version="1.0" standalone="no"?>
<!DOCTYPE svg PUBLIC "-//W3C//DTD SVG 1.1//EN" "http://www.w3.org/Graphics/SVG/1.1/DTD/svg11.dtd">
<svg width="92mm" height="198mm" viewBox="-47 -375 92 198" xmlns="http://www.w3.org/2000/svg" version="1.1">
<title>OpenSCAD Model</title>
<path d="
M -43.5,-316.441 L -43.1871,-316.147 L -42.6791,-315.778 L -42.1289,-315.476 L -41.5451,-315.245 L -40.9369,-315.089
 L -40.3139,-315.01 L 40.3139,-315.01 L 40.9369,-315.089 L 41.5451,-315.245 L 42.1289,-315.476 L 42.6791,-315.778
 L 43.1871,-316.147 L 43.6448,-316.577 L 44.0451,-317.061 L 44.3815,-317.591 L 44.6489,-318.159 L 44.8429,-318.757
 L 44.9606,-319.373 L 45,-320 L 45,-370 L 44.9606,-370.627 L 44.8429,-371.243 L 44.6489,-371.841
 L 44.3815,-372.409 L 44.0451,-372.939 L 43.6448,-373.423 L 43.1871,-373.853 L 42.6791,-374.222 L 42.1289,-374.524
 L 41.5451,-374.755 L 40.9369,-374.911 L 40.3139,-374.99 L -40.3139,-374.99 L -40.9369,-374.911 L -41.5451,-374.755
 L -42.1289,-374.524 L -42.6791,-374.222 L -43.1871,-373.853 L -43.5,-373.559 L -43.5,-374.99 L -46.5,-374.99
 L -46.5,-315.01 L -43.5,-315.01 z
M -39.7512,-316.508 L -40.2495,-316.571 L -40.7361,-316.696 L -41.2031,-316.881 L -41.6433,-317.123 L -42.0497,-317.418
 L -42.4159,-317.762 L -42.7361,-318.149 L -43.0052,-318.573 L -43.2191,-319.028 L -43.3743,-319.505 L -43.4685,-319.999
 L -43.5,-320.5 L -43.5,-369.5 L -43.4685,-370.001 L -43.3743,-370.495 L -43.2191,-370.972 L -43.0052,-371.427
 L -42.7361,-371.851 L -42.4159,-372.238 L -42.0497,-372.582 L -41.6433,-372.877 L -41.2031,-373.119 L -40.7361,-373.304
 L -40.2495,-373.429 L -39.7512,-373.492 L 39.7512,-373.492 L 40.2495,-373.429 L 40.7361,-373.304 L 41.2031,-373.119
 L 41.6433,-372.877 L 42.0497,-372.582 L 42.4159,-372.238 L 42.7361,-371.851 L 43.0052,-371.427 L 43.2191,-370.972
 L 43.3743,-370.495 L 43.4685,-370.001 L 43.5,-369.5 L 43.5,-320.5 L 43.4685,-319.999 L 43.3743,-319.505
 L 43.2191,-319.028 L 43.0052,-318.573 L 42.7361,-318.149 L 42.4159,-317.762 L 42.0497,-317.418 L 41.6433,-317.123
 L 41.2031,-316.881 L 40.7361,-316.696 L 40.2495,-316.571 L 39.7512,-316.508 z
M 40.9369,-246.089 L 41.5451,-246.245 L 42.1289,-246.476 L 42.6791,-246.778 L 43.1871,-247.147 L 43.6448,-247.577
 L 44.0451,-248.061 L 44.3815,-248.591 L 44.6489,-249.159 L 44.8429,-249.757 L 44.9606,-250.373 L 45,-251
 L 45,-301 L 44.9606,-301.627 L 44.8429,-302.243 L 44.6489,-302.841 L 44.3815,-303.409 L 44.0451,-303.939
 L 43.6448,-304.423 L 43.1871,-304.853 L 42.6791,-305.222 L 42.1289,-305.524 L 41.5451,-305.755 L 40.9369,-305.911
 L 40.3139,-305.99 L -40.3139,-305.99 L -40.9369,-305.911 L -41.5451,-305.755 L -42.1289,-305.524 L -42.6791,-305.222
 L -43.1871,-304.853 L -43.5,-304.559 L -43.5,-305.979 L -46.5,-305.979 L -46.5,-246.021 L -43.5,-246.021
 L -43.5,-247.441 L -43.1871,-247.147 L -42.6791,-246.778 L -42.1289,-246.476 L -41.5451,-246.245 L -40.9369,-246.089
 L -40.3139,-246.01 L 40.3139,-246.01 z
M -39.6954,-248.393 L -40.0833,-248.442 L -40.4619,-248.539 L -40.8254,-248.683 L -41.168,-248.872 L -41.4842,-249.101
 L -41.7692,-249.369 L -42.0184,-249.67 L -42.2279,-250 L -42.3943,-250.354 L -42.5151,-250.726 L -42.5884,-251.11
 L -42.6129,-251.5 L -42.6129,-300.5 L -42.5884,-300.89 L -42.5151,-301.274 L -42.3943,-301.646 L -42.2279,-302
 L -42.0184,-302.33 L -41.7692,-302.631 L -41.4842,-302.899 L -41.168,-303.128 L -40.8254,-303.317 L -40.4619,-303.461
 L -40.0833,-303.558 L -39.6954,-303.607 L 39.6954,-303.607 L 40.0833,-303.558 L 40.4619,-303.461 L 40.8254,-303.317
 L 41.168,-303.128 L 41.4842,-302.899 L 41.7692,-302.631 L 42.0184,-302.33 L 42.2279,-302 L 42.3943,-301.646
 L 42.5151,-301.274 L 42.5884,-300.89 L 42.6129,-300.5 L 42.6129,-251.5 L 42.5884,-251.11 L 42.5151,-250.726
 L 42.3943,-250.354 L 42.2279,-250 L 42.0184,-249.67 L 41.7692,-249.369 L 41.4842,-249.101 L 41.168,-248.872
 L 40.8254,-248.683 L 40.4619,-248.539 L 40.0833,-248.442 L 39.6954,-248.393 z
M 40.9369,-177.089 L 41.5451,-177.245 L 42.1289,-177.476 L 42.6791,-177.778 L 43.1871,-178.147 L 43.6448,-178.577
 L 44.0451,-179.061 L 44.3815,-179.591 L 44.6489,-180.159 L 44.8429,-180.757 L 44.9606,-181.373 L 45,-182
 L 45,-232 L 44.9606,-232.627 L 44.8429,-233.243 L 44.6489,-233.841 L 44.3815,-234.409 L 44.0451,-234.939
 L 43.6448,-235.423 L 43.1871,-235.853 L 42.6791,-236.222 L 42.1289,-236.524 L 41.5451,-236.755 L 40.9369,-236.911
 L 40.3139,-236.99 L -40.3139,-236.99 L -40.9369,-236.911 L -41.5451,-236.755 L -42.1289,-236.524 L -42.6791,-236.222
 L -43.1871,-235.853 L -43.5,-235.559 L -43.5,-235.653 L -46.5,-235.653 L -46.5,-178.347 L -43.5,-178.347
 L -43.5,-178.441 L -43.1871,-178.147 L -42.6791,-177.778 L -42.1289,-177.476 L -41.5451,-177.245 L -40.9369,-177.089
 L -40.3139,-177.01 L 40.3139,-177.01 z
M 37.3659,-227.369 L 37.0999,-227.403 L 36.8401,-227.469 L 36.5908,-227.568 L 36.3559,-227.697 L 36.1389,-227.855
 L 35.9434,-228.038 L 35.7725,-228.245 L 35.6288,-228.471 L 35.5146,-228.714 L 35.4318,-228.969 L 35.3815,-229.232
 L 35.3647,-229.5 L 35.3815,-229.768 L 35.4318,-230.031 L 35.5146,-230.286 L 35.6288,-230.529 L 35.7725,-230.755
 L 35.9434,-230.962 L 36.1389,-231.145 L 36.3559,-231.303 L 36.5908,-231.432 L 36.8401,-231.531 L 37.0999,-231.597
 L 37.3659,-231.631 L 37.6341,-231.631 L 37.9001,-231.597 L 38.1598,-231.531 L 38.4092,-231.432 L 38.6441,-231.303
 L 38.8611,-231.145 L 39.0565,-230.962 L 39.2275,-230.755 L 39.3712,-230.529 L 39.4853,-230.286 L 39.5682,-230.031
 L 39.6185,-229.768 L 39.6353,-229.5 L 39.6185,-229.232 L 39.5682,-228.969 L 39.4853,-228.714 L 39.3712,-228.471
 L 39.2275,-228.245 L 39.0565,-228.038 L 38.8611,-227.855 L 38.6441,-227.697 L 38.4092,-227.568 L 38.1598,-227.469
 L 37.9001,-227.403 L 37.6341,-227.369 z
M -37.6341,-227.369 L -37.9001,-227.403 L -38.1598,-227.469 L -38.4092,-227.568 L -38.6441,-227.697 L -38.8611,-227.855
 L -39.0565,-228.038 L -39.2275,-228.245 L -39.3712,-228.471 L -39.4853,-228.714 L -39.5682,-228.969 L -39.6185,-229.232
 L -39.6353,-229.5 L -39.6185,-229.768 L -39.5682,-230.031 L -39.4853,-230.286 L -39.3712,-230.529 L -39.2275,-230.755
 L -39.0565,-230.962 L -38.8611,-231.145 L -38.6441,-231.303 L -38.4092,-231.432 L -38.1598,-231.531 L -37.9001,-231.597
 L -37.6341,-231.631 L -37.3659,-231.631 L -37.0999,-231.597 L -36.8401,-231.531 L -36.5908,-231.432 L -36.3559,-231.303
 L -36.1389,-231.145 L -35.9434,-230.962 L -35.7725,-230.755 L -35.6288,-230.529 L -35.5146,-230.286 L -35.4318,-230.031
 L -35.3815,-229.768 L -35.3647,-229.5 L -35.3815,-229.232 L -35.4318,-228.969 L -35.5146,-228.714 L -35.6288,-228.471
 L -35.7725,-228.245 L -35.9434,-228.038 L -36.1389,-227.855 L -36.3559,-227.697 L -36.5908,-227.568 L -36.8401,-227.469
 L -37.0999,-227.403 L -37.3659,-227.369 z
M 37.3659,-182.369 L 37.0999,-182.403 L 36.8401,-182.469 L 36.5908,-182.568 L 36.3559,-182.697 L 36.1389,-182.855
 L 35.9434,-183.038 L 35.7725,-183.245 L 35.6288,-183.471 L 35.5146,-183.714 L 35.4318,-183.969 L 35.3815,-184.232
 L 35.3647,-184.5 L 35.3815,-184.768 L 35.4318,-185.031 L 35.5146,-185.286 L 35.6288,-185.529 L 35.7725,-185.755
 L 35.9434,-185.962 L 36.1389,-186.145 L 36.3559,-186.303 L 36.5908,-186.432 L 36.8401,-186.531 L 37.0999,-186.597
 L 37.3659,-186.631 L 37.6341,-186.631 L 37.9001,-186.597 L 38.1598,-186.531 L 38.4092,-186.432 L 38.6441,-186.303
 L 38.8611,-186.145 L 39.0565,-185.962 L 39.2275,-185.755 L 39.3712,-185.529 L 39.4853,-185.286 L 39.5682,-185.031
 L 39.6185,-184.768 L 39.6353,-184.5 L 39.6185,-184.232 L 39.5682,-183.969 L 39.4853,-183.714 L 39.3712,-183.471
 L 39.2275,-183.245 L 39.0565,-183.038 L 38.8611,-182.855 L 38.6441,-182.697 L 38.4092,-182.568 L 38.1598,-182.469
 L 37.9001,-182.403 L 37.6341,-182.369 z
M -37.6341,-182.369 L -37.9001,-182.403 L -38.1598,-182.469 L -38.4092,-182.568 L -38.6441,-182.697 L -38.8611,-182.855
 L -39.0565,-183.038 L -39.2275,-183.245 L -39.3712,-183.471 L -39.4853,-183.714 L -39.5682,-183.969 L -39.6185,-184.232
 L -39.6353,-184.5 L -39.6185,-184.768 L -39.5682,-185.031 L -39.4853,-185.286 L -39.3712,-185.529 L -39.2275,-185.755
 L -39.0565,-185.962 L -38.8611,-186.145 L -38.6441,-186.303 L -38.4092,-186.432 L -38.1598,-186.531 L -37.9001,-186.597
 L -37.6341,-186.631 L -37.3659,-186.631 L -37.0999,-186.597 L -36.8401,-186.531 L -36.5908,-186.432 L -36.3559,-186.303
 L -36.1389,-186.145 L -35.9434,-185.962 L -35.7725,-185.755 L -35.6288,-185.529 L -35.5146,-185.286 L -35.4318,-185.031
 L -35.3815,-184.768 L -35.3647,-184.5 L -35.3815,-184.232 L -35.4318,-183.969 L -35.5146,-183.714 L -35.6288,-183.471
 L -35.7725,-183.245 L -35.9434,-183.038 L -36.1389,-182.855 L -36.3559,-182.697 L -36.5908,-182.568 L -36.8401,-182.469
 L -37.0999,-182.403 L -37.3659,-182.369 z
" stroke="black" fill="lightgray" stroke-width="0.5"/>
</svg>
