<?xml version="1.0" standalone="no"?>
<!DOCTYPE svg PUBLIC "-//W3C//DTD SVG 1.1//EN" "http://www.w3.org/Graphics/SVG/1.1/DTD/svg11.dtd">
<svg width="32mm" height="64mm" viewBox="-17 -128 32 64" xmlns="http://www.w3.org/2000/svg" version="1.1">
<title>OpenSCAD Model</title>
<path d="
M -13.5,-113.941 L -13.1871,-113.647 L -12.6791,-113.278 L -12.1289,-112.976 L -11.5451,-112.745 L -10.9369,-112.589
 L -10.3139,-112.51 L 10.3139,-112.51 L 10.9369,-112.589 L 11.5451,-112.745 L 12.1289,-112.976 L 12.6791,-113.278
 L 13.1871,-113.647 L 13.6448,-114.077 L 14.0451,-114.561 L 14.3815,-115.091 L 14.6489,-115.659 L 14.8429,-116.257
 L 14.9606,-116.873 L 15,-117.5 L 15,-122.5 L 14.9606,-123.127 L 14.8429,-123.743 L 14.6489,-124.341
 L 14.3815,-124.909 L 14.0451,-125.439 L 13.6448,-125.923 L 13.1871,-126.353 L 12.6791,-126.722 L 12.1289,-127.024
 L 11.5451,-127.255 L 10.9369,-127.411 L 10.3139,-127.49 L -10.3139,-127.49 L -10.9369,-127.411 L -11.5451,-127.255
 L -12.1289,-127.024 L -12.6791,-126.722 L -13.1871,-126.353 L -13.5,-126.059 L -13.5,-127.49 L -16.5,-127.49
 L -16.5,-112.51 L -13.5,-112.51 z
M -9.75116,-114.008 L -10.2495,-114.071 L -10.7361,-114.196 L -11.2031,-114.381 L -11.6433,-114.623 L -12.0497,-114.918
 L -12.4159,-115.262 L -12.7361,-115.649 L -13.0052,-116.073 L -13.2191,-116.528 L -13.3743,-117.005 L -13.4684,-117.499
 L -13.5,-118 L -13.5,-122 L -13.4684,-122.501 L -13.3743,-122.995 L -13.2191,-123.472 L -13.0052,-123.927
 L -12.7361,-124.351 L -12.4159,-124.738 L -12.0497,-125.082 L -11.6433,-125.377 L -11.2031,-125.619 L -10.7361,-125.804
 L -10.2495,-125.929 L -9.75116,-125.992 L 9.75116,-125.992 L 10.2495,-125.929 L 10.7361,-125.804 L 11.2031,-125.619
 L 11.6433,-125.377 L 12.0497,-125.082 L 12.4159,-124.738 L 12.7361,-124.351 L 13.0052,-123.927 L 13.2191,-123.472
 L 13.3743,-122.995 L 13.4684,-122.501 L 13.5,-122 L 13.5,-118 L 13.4684,-117.499 L 13.3743,-117.005
 L 13.2191,-116.528 L 13.0052,-116.073 L 12.7361,-115.649 L 12.4159,-115.262 L 12.0497,-114.918 L 11.6433,-114.623
 L 11.2031,-114.381 L 10.7361,-114.196 L 10.2495,-114.071 L 9.75116,-114.008 z
M 10.9369,-88.5886 L 11.5451,-88.7447 L 12.1289,-88.9759 L 12.6791,-89.2784 L 13.1871,-89.6474 L 13.6448,-90.0773
 L 14.0451,-90.5611 L 14.3815,-91.0912 L 14.6489,-91.6594 L 14.8429,-92.2566 L 14.9606,-92.8733 L 15,-93.5
 L 15,-98.5 L 14.9606,-99.1267 L 14.8429,-99.7434 L 14.6489,-100.341 L 14.3815,-100.909 L 14.0451,-101.439
 L 13.6448,-101.923 L 13.1871,-102.353 L 12.6791,-102.722 L 12.1289,-103.024 L 11.5451,-103.255 L 10.9369,-103.411
 L 10.3139,-103.49 L -10.3139,-103.49 L -10.9369,-103.411 L -11.5451,-103.255 L -12.1289,-103.024 L -12.6791,-102.722
 L -13.1871,-102.353 L -13.5,-102.059 L -13.5,-103.479 L -16.5,-103.479 L -16.5,-88.5208 L -13.5,-88.5208
 L -13.5,-89.9413 L -13.1871,-89.6474 L -12.6791,-89.2784 L -12.1289,-88.9759 L -11.5451,-88.7447 L -10.9369,-88.5886
 L -10.3139,-88.5099 L 10.3139,-88.5099 z
M -9.69545,-90.8932 L -10.0833,-90.9422 L -10.4619,-91.0394 L -10.8254,-91.1833 L -11.168,-91.3717 L -11.4842,-91.6015
 L -11.7692,-91.8691 L -12.0184,-92.1703 L -12.2279,-92.5004 L -12.3943,-92.8541 L -12.5151,-93.2259 L -12.5884,-93.6098
 L -12.6129,-94 L -12.6129,-98 L -12.5884,-98.3902 L -12.5151,-98.7741 L -12.3943,-99.1459 L -12.2279,-99.4996
 L -12.0184,-99.8297 L -11.7692,-100.131 L -11.4842,-100.399 L -11.168,-100.628 L -10.8254,-100.817 L -10.4619,-100.961
 L -10.0833,-101.058 L -9.69545,-101.107 L 9.69545,-101.107 L 10.0833,-101.058 L 10.4619,-100.961 L 10.8254,-100.817
 L 11.168,-100.628 L 11.4842,-100.399 L 11.7692,-100.131 L 12.0184,-99.8297 L 12.2279,-99.4996 L 12.3943,-99.1459
 L 12.5151,-98.7741 L 12.5884,-98.3902 L 12.6129,-98 L 12.6129,-94 L 12.5884,-93.6098 L 12.5151,-93.2259
 L 12.3943,-92.8541 L 12.2279,-92.5004 L 12.0184,-92.1703 L 11.7692,-91.8691 L 11.4842,-91.6015 L 11.168,-91.3717
 L 10.8254,-91.1833 L 10.4619,-91.0394 L 10.0833,-90.9422 L 9.69545,-90.8932 z
M 10.9369,-64.5886 L 11.5451,-64.7447 L 12.1289,-64.9759 L 12.6791,-65.2784 L 13.1871,-65.6474 L 13.6448,-66.0773
 L 14.0451,-66.5611 L 14.3815,-67.0912 L 14.6489,-67.6594 L 14.8429,-68.2566 L 14.9606,-68.8733 L 15,-69.5
 L 15,-74.5 L 14.9606,-75.1267 L 14.8429,-75.7434 L 14.6489,-76.3406 L 14.3815,-76.9088 L 14.0451,-77.4389
 L 13.6448,-77.9227 L 13.1871,-78.3526 L 12.6791,-78.7216 L 12.1289,-79.0241 L 11.5451,-79.2553 L 10.9369,-79.4114
 L 10.3139,-79.4901 L -10.3139,-79.4901 L -10.9369,-79.4114 L -11.5451,-79.2553 L -12.1289,-79.0241 L -12.6791,-78.7216
 L -13.1871,-78.3526 L -13.5,-78.0587 L -13.5,-78.1526 L -16.5,-78.1526 L -16.5,-65.8474 L -13.5,-65.8474
 L -13.5,-65.9413 L -13.1871,-65.6474 L -12.6791,-65.2784 L -12.1289,-64.9759 L -11.5451,-64.7447 L -10.9369,-64.5886
 L -10.3139,-64.5099 L 10.3139,-64.5099 z
M 7.36592,-69.8689 L 7.09988,-69.9025 L 6.84015,-69.9692 L 6.59084,-70.0679 L 6.35585,-70.1971 L 6.1389,-70.3547
 L 5.94344,-70.5383 L 5.77251,-70.7449 L 5.62881,-70.9713 L 5.51465,-71.214 L 5.43178,-71.469 L 5.38153,-71.7324
 L 5.3647,-72 L 5.38153,-72.2676 L 5.43178,-72.531 L 5.51465,-72.786 L 5.62881,-73.0287 L 5.77251,-73.2551
 L 5.94344,-73.4617 L 6.1389,-73.6453 L 6.35585,-73.8029 L 6.59084,-73.9321 L 6.84015,-74.0308 L 7.09988,-74.0975
 L 7.36592,-74.1311 L 7.63406,-74.1311 L 7.9001,-74.0975 L 8.15984,-74.0308 L 8.40915,-73.9321 L 8.64413,-73.8029
 L 8.86108,-73.6453 L 9.05655,-73.4617 L 9.22748,-73.2551 L 9.37117,-73.0287 L 9.48534,-72.786 L 9.56821,-72.531
 L 9.61845,-72.2676 L 9.63528,-72 L 9.61845,-71.7324 L 9.56821,-71.469 L 9.48534,-71.214 L 9.37117,-70.9713
 L 9.22748,-70.7449 L 9.05655,-70.5383 L 8.86108,-70.3547 L 8.64413,-70.1971 L 8.40915,-70.0679 L 8.15984,-69.9692
 L 7.9001,-69.9025 L 7.63406,-69.8689 z
M -7.63406,-69.8689 L -7.9001,-69.9025 L -8.15984,-69.9692 L -8.40915,-70.0679 L -8.64413,-70.1971 L -8.86108,-70.3547
 L -9.05655,-70.5383 L -9.22748,-70.7449 L -9.37117,-70.9713 L -9.48534,-71.214 L -9.56821,-71.469 L -9.61845,-71.7324
 L -9.63528,-72 L -9.61845,-72.2676 L -9.56821,-72.531 L -9.48534,-72.786 L -9.37117,-73.0287 L -9.22748,-73.2551
 L -9.05655,-73.4617 L -8.86108,-73.6453 L -8.64413,-73.8029 L -8.40915,-73.9321 L -8.15984,-74.0308 L -7.9001,-74.0975
 L -7.63406,-74.1311 L -7.36592,-74.1311 L -7.09988,-74.0975 L -6.84015,-74.0308 L -6.59084,-73.9321 L -6.35585,-73.8029
 L -6.1389,-73.6453 L -5.94344,-73.4617 L -5.77251,-73.2551 L -5.62881,-73.0287 L -5.51465,-72.786 L -5.43178,-72.531
 L -5.38153,-72.2676 L -5.3647,-72 L -5.38153,-71.7324 L -5.43178,-71.469 L -5.51465,-71.214 L -5.62881,-70.9713
 L -5.77251,-70.7449 L -5.94344,-70.5383 L -6.1389,-70.3547 L -6.35585,-70.1971 L -6.59084,-70.0679 L -6.84015,-69.9692
 L -7.09988,-69.9025 L -7.36592,-69.8689 z
" stroke="black" fill="lightgray" stroke-width="0.5"/>
</svg>
