  0
SECTION
  2
BLOCKS
  0
ENDSEC
  0
SECTION
  2
ENTITIES
  0
LINE
  8
0
 10
10.9369
 20
130.589
 11
11.5451
 21
130.745
  0
LINE
  8
0
 10
11.5451
 20
130.745
 11
12.1289
 21
130.976
  0
LINE
  8
0
 10
12.1289
 20
130.976
 11
12.6791
 21
131.278
  0
LINE
  8
0
 10
12.6791
 20
131.278
 11
13.1871
 21
131.647
  0
LINE
  8
0
 10
13.1871
 20
131.647
 11
13.6448
 21
132.077
  0
LINE
  8
0
 10
13.6448
 20
132.077
 11
14.0451
 21
132.561
  0
LINE
  8
0
 10
14.0451
 20
132.561
 11
14.3815
 21
133.091
  0
LINE
  8
0
 10
14.3815
 20
133.091
 11
14.6489
 21
133.659
  0
LINE
  8
0
 10
14.6489
 20
133.659
 11
14.8429
 21
134.257
  0
LINE
  8
0
 10
14.8429
 20
134.257
 11
14.9606
 21
134.873
  0
LINE
  8
0
 10
14.9606
 20
134.873
 11
15
 21
135.5
  0
LINE
  8
0
 10
15
 20
135.5
 11
15
 21
200.5
  0
LINE
  8
0
 10
15
 20
200.5
 11
14.9606
 21
201.127
  0
LINE
  8
0
 10
14.9606
 20
201.127
 11
14.8429
 21
201.743
  0
LINE
  8
0
 10
14.8429
 20
201.743
 11
14.6489
 21
202.341
  0
LINE
  8
0
 10
14.6489
 20
202.341
 11
14.3815
 21
202.909
  0
LINE
  8
0
 10
14.3815
 20
202.909
 11
14.0451
 21
203.439
  0
LINE
  8
0
 10
14.0451
 20
203.439
 11
13.6448
 21
203.923
  0
LINE
  8
0
 10
13.6448
 20
203.923
 11
13.1871
 21
204.353
  0
LINE
  8
0
 10
13.1871
 20
204.353
 11
12.6791
 21
204.722
  0
LINE
  8
0
 10
12.6791
 20
204.722
 11
12.1289
 21
205.024
  0
LINE
  8
0
 10
12.1289
 20
205.024
 11
11.5451
 21
205.255
  0
LINE
  8
0
 10
11.5451
 20
205.255
 11
10.9369
 21
205.411
  0
LINE
  8
0
 10
10.9369
 20
205.411
 11
10.3139
 21
205.49
  0
LINE
  8
0
 10
10.3139
 20
205.49
 11
-10.3139
 21
205.49
  0
LINE
  8
0
 10
-10.3139
 20
205.49
 11
-10.9369
 21
205.411
  0
LINE
  8
0
 10
-10.9369
 20
205.411
 11
-11.5451
 21
205.255
  0
LINE
  8
0
 10
-11.5451
 20
205.255
 11
-12.1289
 21
205.024
  0
LINE
  8
0
 10
-12.1289
 20
205.024
 11
-12.6791
 21
204.722
  0
LINE
  8
0
 10
-12.6791
 20
204.722
 11
-13.1871
 21
204.353
  0
LINE
  8
0
 10
-13.1871
 20
204.353
 11
-13.6448
 21
203.923
  0
LINE
  8
0
 10
-13.6448
 20
203.923
 11
-14.0451
 21
203.439
  0
LINE
  8
0
 10
-14.0451
 20
203.439
 11
-14.3815
 21
202.909
  0
LINE
  8
0
 10
-14.3815
 20
202.909
 11
-14.6489
 21
202.341
  0
LINE
  8
0
 10
-14.6489
 20
202.341
 11
-14.8429
 21
201.743
  0
LINE
  8
0
 10
-14.8429
 20
201.743
 11
-14.9606
 21
201.127
  0
LINE
  8
0
 10
-14.9606
 20
201.127
 11
-15
 21
200.5
  0
LINE
  8
0
 10
-15
 20
200.5
 11
-15
 21
135.5
  0
LINE
  8
0
 10
-15
 20
135.5
 11
-14.9606
 21
134.873
  0
LINE
  8
0
 10
-14.9606
 20
134.873
 11
-14.8429
 21
134.257
  0
LINE
  8
0
 10
-14.8429
 20
134.257
 11
-14.6489
 21
133.659
  0
LINE
  8
0
 10
-14.6489
 20
133.659
 11
-14.3815
 21
133.091
  0
LINE
  8
0
 10
-14.3815
 20
133.091
 11
-14.0451
 21
132.561
  0
LINE
  8
0
 10
-14.0451
 20
132.561
 11
-13.6448
 21
132.077
  0
LINE
  8
0
 10
-13.6448
 20
132.077
 11
-13.1871
 21
131.647
  0
LINE
  8
0
 10
-13.1871
 20
131.647
 11
-12.6791
 21
131.278
  0
LINE
  8
0
 10
-12.6791
 20
131.278
 11
-12.1289
 21
130.976
  0
LINE
  8
0
 10
-12.1289
 20
130.976
 11
-11.5451
 21
130.745
  0
LINE
  8
0
 10
-11.5451
 20
130.745
 11
-10.9369
 21
130.589
  0
LINE
  8
0
 10
-10.9369
 20
130.589
 11
-10.3139
 21
130.51
  0
LINE
  8
0
 10
-10.3139
 20
130.51
 11
10.3139
 21
130.51
  0
LINE
  8
0
 10
10.3139
 20
130.51
 11
10.9369
 21
130.589
  0
LINE
  8
0
 10
10.9369
 20
46.5886
 11
11.5451
 21
46.7447
  0
LINE
  8
0
 10
11.5451
 20
46.7447
 11
12.1289
 21
46.9759
  0
LINE
  8
0
 10
12.1289
 20
46.9759
 11
12.6791
 21
47.2784
  0
LINE
  8
0
 10
12.6791
 20
47.2784
 11
13.1871
 21
47.6474
  0
LINE
  8
0
 10
13.1871
 20
47.6474
 11
13.6448
 21
48.0773
  0
LINE
  8
0
 10
13.6448
 20
48.0773
 11
14.0451
 21
48.5611
  0
LINE
  8
0
 10
14.0451
 20
48.5611
 11
14.3815
 21
49.0912
  0
LINE
  8
0
 10
14.3815
 20
49.0912
 11
14.6489
 21
49.6594
  0
LINE
  8
0
 10
14.6489
 20
49.6594
 11
14.8429
 21
50.2566
  0
LINE
  8
0
 10
14.8429
 20
50.2566
 11
14.9606
 21
50.8733
  0
LINE
  8
0
 10
14.9606
 20
50.8733
 11
15
 21
51.5
  0
LINE
  8
0
 10
15
 20
51.5
 11
15
 21
116.5
  0
LINE
  8
0
 10
15
 20
116.5
 11
14.9606
 21
117.127
  0
LINE
  8
0
 10
14.9606
 20
117.127
 11
14.8429
 21
117.743
  0
LINE
  8
0
 10
14.8429
 20
117.743
 11
14.6489
 21
118.341
  0
LINE
  8
0
 10
14.6489
 20
118.341
 11
14.3815
 21
118.909
  0
LINE
  8
0
 10
14.3815
 20
118.909
 11
14.0451
 21
119.439
  0
LINE
  8
0
 10
14.0451
 20
119.439
 11
13.6448
 21
119.923
  0
LINE
  8
0
 10
13.6448
 20
119.923
 11
13.1871
 21
120.353
  0
LINE
  8
0
 10
13.1871
 20
120.353
 11
12.6791
 21
120.722
  0
LINE
  8
0
 10
12.6791
 20
120.722
 11
12.1289
 21
121.024
  0
LINE
  8
0
 10
12.1289
 20
121.024
 11
11.5451
 21
121.255
  0
LINE
  8
0
 10
11.5451
 20
121.255
 11
10.9369
 21
121.411
  0
LINE
  8
0
 10
10.9369
 20
121.411
 11
10.3139
 21
121.49
  0
LINE
  8
0
 10
10.3139
 20
121.49
 11
-10.3139
 21
121.49
  0
LINE
  8
0
 10
-10.3139
 20
121.49
 11
-10.9369
 21
121.411
  0
LINE
  8
0
 10
-10.9369
 20
121.411
 11
-11.5451
 21
121.255
  0
LINE
  8
0
 10
-11.5451
 20
121.255
 11
-12.1289
 21
121.024
  0
LINE
  8
0
 10
-12.1289
 20
121.024
 11
-12.6791
 21
120.722
  0
LINE
  8
0
 10
-12.6791
 20
120.722
 11
-13.1871
 21
120.353
  0
LINE
  8
0
 10
-13.1871
 20
120.353
 11
-13.6448
 21
119.923
  0
LINE
  8
0
 10
-13.6448
 20
119.923
 11
-14.0451
 21
119.439
  0
LINE
  8
0
 10
-14.0451
 20
119.439
 11
-14.3815
 21
118.909
  0
LINE
  8
0
 10
-14.3815
 20
118.909
 11
-14.6489
 21
118.341
  0
LINE
  8
0
 10
-14.6489
 20
118.341
 11
-14.8429
 21
117.743
  0
LINE
  8
0
 10
-14.8429
 20
117.743
 11
-14.9606
 21
117.127
  0
LINE
  8
0
 10
-14.9606
 20
117.127
 11
-15
 21
116.5
  0
LINE
  8
0
 10
-15
 20
116.5
 11
-15
 21
51.5
  0
LINE
  8
0
 10
-15
 20
51.5
 11
-14.9606
 21
50.8733
  0
LINE
  8
0
 10
-14.9606
 20
50.8733
 11
-14.8429
 21
50.2566
  0
LINE
  8
0
 10
-14.8429
 20
50.2566
 11
-14.6489
 21
49.6594
  0
LINE
  8
0
 10
-14.6489
 20
49.6594
 11
-14.3815
 21
49.0912
  0
LINE
  8
0
 10
-14.3815
 20
49.0912
 11
-14.0451
 21
48.5611
  0
LINE
  8
0
 10
-14.0451
 20
48.5611
 11
-13.6448
 21
48.0773
  0
LINE
  8
0
 10
-13.6448
 20
48.0773
 11
-13.1871
 21
47.6474
  0
LINE
  8
0
 10
-13.1871
 20
47.6474
 11
-12.6791
 21
47.2784
  0
LINE
  8
0
 10
-12.6791
 20
47.2784
 11
-12.1289
 21
46.9759
  0
LINE
  8
0
 10
-12.1289
 20
46.9759
 11
-11.5451
 21
46.7447
  0
LINE
  8
0
 10
-11.5451
 20
46.7447
 11
-10.9369
 21
46.5886
  0
LINE
  8
0
 10
-10.9369
 20
46.5886
 11
-10.3139
 21
46.5099
  0
LINE
  8
0
 10
-10.3139
 20
46.5099
 11
10.3139
 21
46.5099
  0
LINE
  8
0
 10
10.3139
 20
46.5099
 11
10.9369
 21
46.5886
  0
LINE
  8
0
 10
7.38696
 20
112.204
 11
7.1627
 21
112.232
  0
LINE
  8
0
 10
7.1627
 20
112.232
 11
6.94376
 21
112.288
  0
LINE
  8
0
 10
6.94376
 20
112.288
 11
6.7336
 21
112.371
  0
LINE
  8
0
 10
6.7336
 20
112.371
 11
6.53551
 21
112.48
  0
LINE
  8
0
 10
6.53551
 20
112.48
 11
6.35263
 21
112.613
  0
LINE
  8
0
 10
6.35263
 20
112.613
 11
6.18785
 21
112.768
  0
LINE
  8
0
 10
6.18785
 20
112.768
 11
6.04376
 21
112.942
  0
LINE
  8
0
 10
6.04376
 20
112.942
 11
5.92264
 21
113.133
  0
LINE
  8
0
 10
5.92264
 20
113.133
 11
5.8264
 21
113.337
  0
LINE
  8
0
 10
5.8264
 20
113.337
 11
5.75655
 21
113.552
  0
LINE
  8
0
 10
5.75655
 20
113.552
 11
5.71419
 21
113.774
  0
LINE
  8
0
 10
5.71419
 20
113.774
 11
5.7
 21
114
  0
LINE
  8
0
 10
5.7
 20
114
 11
5.71419
 21
114.226
  0
LINE
  8
0
 10
5.71419
 20
114.226
 11
5.75655
 21
114.448
  0
LINE
  8
0
 10
5.75655
 20
114.448
 11
5.8264
 21
114.663
  0
LINE
  8
0
 10
5.8264
 20
114.663
 11
5.92264
 21
114.867
  0
LINE
  8
0
 10
5.92264
 20
114.867
 11
6.04376
 21
115.058
  0
LINE
  8
0
 10
6.04376
 20
115.058
 11
6.18785
 21
115.232
  0
LINE
  8
0
 10
6.18785
 20
115.232
 11
6.35263
 21
115.387
  0
LINE
  8
0
 10
6.35263
 20
115.387
 11
6.53551
 21
115.52
  0
LINE
  8
0
 10
6.53551
 20
115.52
 11
6.7336
 21
115.629
  0
LINE
  8
0
 10
6.7336
 20
115.629
 11
6.94376
 21
115.712
  0
LINE
  8
0
 10
6.94376
 20
115.712
 11
7.1627
 21
115.768
  0
LINE
  8
0
 10
7.1627
 20
115.768
 11
7.38696
 21
115.796
  0
LINE
  8
0
 10
7.38696
 20
115.796
 11
7.61302
 21
115.796
  0
LINE
  8
0
 10
7.61302
 20
115.796
 11
7.83728
 21
115.768
  0
LINE
  8
0
 10
7.83728
 20
115.768
 11
8.05623
 21
115.712
  0
LINE
  8
0
 10
8.05623
 20
115.712
 11
8.26639
 21
115.629
  0
LINE
  8
0
 10
8.26639
 20
115.629
 11
8.46448
 21
115.52
  0
LINE
  8
0
 10
8.46448
 20
115.52
 11
8.64735
 21
115.387
  0
LINE
  8
0
 10
8.64735
 20
115.387
 11
8.81213
 21
115.232
  0
LINE
  8
0
 10
8.81213
 20
115.232
 11
8.95622
 21
115.058
  0
LINE
  8
0
 10
8.95622
 20
115.058
 11
9.07735
 21
114.867
  0
LINE
  8
0
 10
9.07735
 20
114.867
 11
9.17358
 21
114.663
  0
LINE
  8
0
 10
9.17358
 20
114.663
 11
9.24344
 21
114.448
  0
LINE
  8
0
 10
9.24344
 20
114.448
 11
9.2858
 21
114.226
  0
LINE
  8
0
 10
9.2858
 20
114.226
 11
9.29999
 21
114
  0
LINE
  8
0
 10
9.29999
 20
114
 11
9.2858
 21
113.774
  0
LINE
  8
0
 10
9.2858
 20
113.774
 11
9.24344
 21
113.552
  0
LINE
  8
0
 10
9.24344
 20
113.552
 11
9.17358
 21
113.337
  0
LINE
  8
0
 10
9.17358
 20
113.337
 11
9.07735
 21
113.133
  0
LINE
  8
0
 10
9.07735
 20
113.133
 11
8.95622
 21
112.942
  0
LINE
  8
0
 10
8.95622
 20
112.942
 11
8.81213
 21
112.768
  0
LINE
  8
0
 10
8.81213
 20
112.768
 11
8.64735
 21
112.613
  0
LINE
  8
0
 10
8.64735
 20
112.613
 11
8.46448
 21
112.48
  0
LINE
  8
0
 10
8.46448
 20
112.48
 11
8.26639
 21
112.371
  0
LINE
  8
0
 10
8.26639
 20
112.371
 11
8.05623
 21
112.288
  0
LINE
  8
0
 10
8.05623
 20
112.288
 11
7.83728
 21
112.232
  0
LINE
  8
0
 10
7.83728
 20
112.232
 11
7.61302
 21
112.204
  0
LINE
  8
0
 10
7.61302
 20
112.204
 11
7.38696
 21
112.204
  0
LINE
  8
0
 10
-7.61302
 20
112.204
 11
-7.83728
 21
112.232
  0
LINE
  8
0
 10
-7.83728
 20
112.232
 11
-8.05623
 21
112.288
  0
LINE
  8
0
 10
-8.05623
 20
112.288
 11
-8.26639
 21
112.371
  0
LINE
  8
0
 10
-8.26639
 20
112.371
 11
-8.46448
 21
112.48
  0
LINE
  8
0
 10
-8.46448
 20
112.48
 11
-8.64735
 21
112.613
  0
LINE
  8
0
 10
-8.64735
 20
112.613
 11
-8.81213
 21
112.768
  0
LINE
  8
0
 10
-8.81213
 20
112.768
 11
-8.95622
 21
112.942
  0
LINE
  8
0
 10
-8.95622
 20
112.942
 11
-9.07735
 21
113.133
  0
LINE
  8
0
 10
-9.07735
 20
113.133
 11
-9.17358
 21
113.337
  0
LINE
  8
0
 10
-9.17358
 20
113.337
 11
-9.24344
 21
113.552
  0
LINE
  8
0
 10
-9.24344
 20
113.552
 11
-9.2858
 21
113.774
  0
LINE
  8
0
 10
-9.2858
 20
113.774
 11
-9.29999
 21
114
  0
LINE
  8
0
 10
-9.29999
 20
114
 11
-9.2858
 21
114.226
  0
LINE
  8
0
 10
-9.2858
 20
114.226
 11
-9.24344
 21
114.448
  0
LINE
  8
0
 10
-9.24344
 20
114.448
 11
-9.17358
 21
114.663
  0
LINE
  8
0
 10
-9.17358
 20
114.663
 11
-9.07735
 21
114.867
  0
LINE
  8
0
 10
-9.07735
 20
114.867
 11
-8.95622
 21
115.058
  0
LINE
  8
0
 10
-8.95622
 20
115.058
 11
-8.81213
 21
115.232
  0
LINE
  8
0
 10
-8.81213
 20
115.232
 11
-8.64735
 21
115.387
  0
LINE
  8
0
 10
-8.64735
 20
115.387
 11
-8.46448
 21
115.52
  0
LINE
  8
0
 10
-8.46448
 20
115.52
 11
-8.26639
 21
115.629
  0
LINE
  8
0
 10
-8.26639
 20
115.629
 11
-8.05623
 21
115.712
  0
LINE
  8
0
 10
-8.05623
 20
115.712
 11
-7.83728
 21
115.768
  0
LINE
  8
0
 10
-7.83728
 20
115.768
 11
-7.61302
 21
115.796
  0
LINE
  8
0
 10
-7.61302
 20
115.796
 11
-7.38696
 21
115.796
  0
LINE
  8
0
 10
-7.38696
 20
115.796
 11
-7.1627
 21
115.768
  0
LINE
  8
0
 10
-7.1627
 20
115.768
 11
-6.94376
 21
115.712
  0
LINE
  8
0
 10
-6.94376
 20
115.712
 11
-6.7336
 21
115.629
  0
LINE
  8
0
 10
-6.7336
 20
115.629
 11
-6.53551
 21
115.52
  0
LINE
  8
0
 10
-6.53551
 20
115.52
 11
-6.35263
 21
115.387
  0
LINE
  8
0
 10
-6.35263
 20
115.387
 11
-6.18785
 21
115.232
  0
LINE
  8
0
 10
-6.18785
 20
115.232
 11
-6.04376
 21
115.058
  0
LINE
  8
0
 10
-6.04376
 20
115.058
 11
-5.92264
 21
114.867
  0
LINE
  8
0
 10
-5.92264
 20
114.867
 11
-5.8264
 21
114.663
  0
LINE
  8
0
 10
-5.8264
 20
114.663
 11
-5.75655
 21
114.448
  0
LINE
  8
0
 10
-5.75655
 20
114.448
 11
-5.71419
 21
114.226
  0
LINE
  8
0
 10
-5.71419
 20
114.226
 11
-5.7
 21
114
  0
LINE
  8
0
 10
-5.7
 20
114
 11
-5.71419
 21
113.774
  0
LINE
  8
0
 10
-5.71419
 20
113.774
 11
-5.75655
 21
113.552
  0
LINE
  8
0
 10
-5.75655
 20
113.552
 11
-5.8264
 21
113.337
  0
LINE
  8
0
 10
-5.8264
 20
113.337
 11
-5.92264
 21
113.133
  0
LINE
  8
0
 10
-5.92264
 20
113.133
 11
-6.04376
 21
112.942
  0
LINE
  8
0
 10
-6.04376
 20
112.942
 11
-6.18785
 21
112.768
  0
LINE
  8
0
 10
-6.18785
 20
112.768
 11
-6.35263
 21
112.613
  0
LINE
  8
0
 10
-6.35263
 20
112.613
 11
-6.53551
 21
112.48
  0
LINE
  8
0
 10
-6.53551
 20
112.48
 11
-6.7336
 21
112.371
  0
LINE
  8
0
 10
-6.7336
 20
112.371
 11
-6.94376
 21
112.288
  0
LINE
  8
0
 10
-6.94376
 20
112.288
 11
-7.1627
 21
112.232
  0
LINE
  8
0
 10
-7.1627
 20
112.232
 11
-7.38696
 21
112.204
  0
LINE
  8
0
 10
-7.38696
 20
112.204
 11
-7.61302
 21
112.204
  0
LINE
  8
0
 10
-7.61302
 20
52.2036
 11
-7.83728
 21
52.2319
  0
LINE
  8
0
 10
-7.83728
 20
52.2319
 11
-8.05623
 21
52.2881
  0
LINE
  8
0
 10
-8.05623
 20
52.2881
 11
-8.26639
 21
52.3713
  0
LINE
  8
0
 10
-8.26639
 20
52.3713
 11
-8.46448
 21
52.4802
  0
LINE
  8
0
 10
-8.46448
 20
52.4802
 11
-8.64735
 21
52.6131
  0
LINE
  8
0
 10
-8.64735
 20
52.6131
 11
-8.81213
 21
52.7678
  0
LINE
  8
0
 10
-8.81213
 20
52.7678
 11
-8.95622
 21
52.942
  0
LINE
  8
0
 10
-8.95622
 20
52.942
 11
-9.07735
 21
53.1328
  0
LINE
  8
0
 10
-9.07735
 20
53.1328
 11
-9.17358
 21
53.3374
  0
LINE
  8
0
 10
-9.17358
 20
53.3374
 11
-9.24344
 21
53.5524
  0
LINE
  8
0
 10
-9.24344
 20
53.5524
 11
-9.2858
 21
53.7744
  0
LINE
  8
0
 10
-9.2858
 20
53.7744
 11
-9.29999
 21
54
  0
LINE
  8
0
 10
-9.29999
 20
54
 11
-9.2858
 21
54.2256
  0
LINE
  8
0
 10
-9.2858
 20
54.2256
 11
-9.24344
 21
54.4476
  0
LINE
  8
0
 10
-9.24344
 20
54.4476
 11
-9.17358
 21
54.6626
  0
LINE
  8
0
 10
-9.17358
 20
54.6626
 11
-9.07735
 21
54.8672
  0
LINE
  8
0
 10
-9.07735
 20
54.8672
 11
-8.95622
 21
55.058
  0
LINE
  8
0
 10
-8.95622
 20
55.058
 11
-8.81213
 21
55.2322
  0
LINE
  8
0
 10
-8.81213
 20
55.2322
 11
-8.64735
 21
55.3869
  0
LINE
  8
0
 10
-8.64735
 20
55.3869
 11
-8.46448
 21
55.5198
  0
LINE
  8
0
 10
-8.46448
 20
55.5198
 11
-8.26639
 21
55.6287
  0
LINE
  8
0
 10
-8.26639
 20
55.6287
 11
-8.05623
 21
55.7119
  0
LINE
  8
0
 10
-8.05623
 20
55.7119
 11
-7.83728
 21
55.7681
  0
LINE
  8
0
 10
-7.83728
 20
55.7681
 11
-7.61302
 21
55.7964
  0
LINE
  8
0
 10
-7.61302
 20
55.7964
 11
-7.38696
 21
55.7964
  0
LINE
  8
0
 10
-7.38696
 20
55.7964
 11
-7.1627
 21
55.7681
  0
LINE
  8
0
 10
-7.1627
 20
55.7681
 11
-6.94376
 21
55.7119
  0
LINE
  8
0
 10
-6.94376
 20
55.7119
 11
-6.7336
 21
55.6287
  0
LINE
  8
0
 10
-6.7336
 20
55.6287
 11
-6.53551
 21
55.5198
  0
LINE
  8
0
 10
-6.53551
 20
55.5198
 11
-6.35263
 21
55.3869
  0
LINE
  8
0
 10
-6.35263
 20
55.3869
 11
-6.18785
 21
55.2322
  0
LINE
  8
0
 10
-6.18785
 20
55.2322
 11
-6.04376
 21
55.058
  0
LINE
  8
0
 10
-6.04376
 20
55.058
 11
-5.92264
 21
54.8672
  0
LINE
  8
0
 10
-5.92264
 20
54.8672
 11
-5.8264
 21
54.6626
  0
LINE
  8
0
 10
-5.8264
 20
54.6626
 11
-5.75655
 21
54.4476
  0
LINE
  8
0
 10
-5.75655
 20
54.4476
 11
-5.71419
 21
54.2256
  0
LINE
  8
0
 10
-5.71419
 20
54.2256
 11
-5.7
 21
54
  0
LINE
  8
0
 10
-5.7
 20
54
 11
-5.71419
 21
53.7744
  0
LINE
  8
0
 10
-5.71419
 20
53.7744
 11
-5.75655
 21
53.5524
  0
LINE
  8
0
 10
-5.75655
 20
53.5524
 11
-5.8264
 21
53.3374
  0
LINE
  8
0
 10
-5.8264
 20
53.3374
 11
-5.92264
 21
53.1328
  0
LINE
  8
0
 10
-5.92264
 20
53.1328
 11
-6.04376
 21
52.942
  0
LINE
  8
0
 10
-6.04376
 20
52.942
 11
-6.18785
 21
52.7678
  0
LINE
  8
0
 10
-6.18785
 20
52.7678
 11
-6.35263
 21
52.6131
  0
LINE
  8
0
 10
-6.35263
 20
52.6131
 11
-6.53551
 21
52.4802
  0
LINE
  8
0
 10
-6.53551
 20
52.4802
 11
-6.7336
 21
52.3713
  0
LINE
  8
0
 10
-6.7336
 20
52.3713
 11
-6.94376
 21
52.2881
  0
LINE
  8
0
 10
-6.94376
 20
52.2881
 11
-7.1627
 21
52.2319
  0
LINE
  8
0
 10
-7.1627
 20
52.2319
 11
-7.38696
 21
52.2036
  0
LINE
  8
0
 10
-7.38696
 20
52.2036
 11
-7.61302
 21
52.2036
  0
LINE
  8
0
 10
7.38696
 20
52.2036
 11
7.1627
 21
52.2319
  0
LINE
  8
0
 10
7.1627
 20
52.2319
 11
6.94376
 21
52.2881
  0
LINE
  8
0
 10
6.94376
 20
52.2881
 11
6.7336
 21
52.3713
  0
LINE
  8
0
 10
6.7336
 20
52.3713
 11
6.53551
 21
52.4802
  0
LINE
  8
0
 10
6.53551
 20
52.4802
 11
6.35263
 21
52.6131
  0
LINE
  8
0
 10
6.35263
 20
52.6131
 11
6.18785
 21
52.7678
  0
LINE
  8
0
 10
6.18785
 20
52.7678
 11
6.04376
 21
52.942
  0
LINE
  8
0
 10
6.04376
 20
52.942
 11
5.92264
 21
53.1328
  0
LINE
  8
0
 10
5.92264
 20
53.1328
 11
5.8264
 21
53.3374
  0
LINE
  8
0
 10
5.8264
 20
53.3374
 11
5.75655
 21
53.5524
  0
LINE
  8
0
 10
5.75655
 20
53.5524
 11
5.71419
 21
53.7744
  0
LINE
  8
0
 10
5.71419
 20
53.7744
 11
5.7
 21
54
  0
LINE
  8
0
 10
5.7
 20
54
 11
5.71419
 21
54.2256
  0
LINE
  8
0
 10
5.71419
 20
54.2256
 11
5.75655
 21
54.4476
  0
LINE
  8
0
 10
5.75655
 20
54.4476
 11
5.8264
 21
54.6626
  0
LINE
  8
0
 10
5.8264
 20
54.6626
 11
5.92264
 21
54.8672
  0
LINE
  8
0
 10
5.92264
 20
54.8672
 11
6.04376
 21
55.058
  0
LINE
  8
0
 10
6.04376
 20
55.058
 11
6.18785
 21
55.2322
  0
LINE
  8
0
 10
6.18785
 20
55.2322
 11
6.35263
 21
55.3869
  0
LINE
  8
0
 10
6.35263
 20
55.3869
 11
6.53551
 21
55.5198
  0
LINE
  8
0
 10
6.53551
 20
55.5198
 11
6.7336
 21
55.6287
  0
LINE
  8
0
 10
6.7336
 20
55.6287
 11
6.94376
 21
55.7119
  0
LINE
  8
0
 10
6.94376
 20
55.7119
 11
7.1627
 21
55.7681
  0
LINE
  8
0
 10
7.1627
 20
55.7681
 11
7.38696
 21
55.7964
  0
LINE
  8
0
 10
7.38696
 20
55.7964
 11
7.61302
 21
55.7964
  0
LINE
  8
0
 10
7.61302
 20
55.7964
 11
7.83728
 21
55.7681
  0
LINE
  8
0
 10
7.83728
 20
55.7681
 11
8.05623
 21
55.7119
  0
LINE
  8
0
 10
8.05623
 20
55.7119
 11
8.26639
 21
55.6287
  0
LINE
  8
0
 10
8.26639
 20
55.6287
 11
8.46448
 21
55.5198
  0
LINE
  8
0
 10
8.46448
 20
55.5198
 11
8.64735
 21
55.3869
  0
LINE
  8
0
 10
8.64735
 20
55.3869
 11
8.81213
 21
55.2322
  0
LINE
  8
0
 10
8.81213
 20
55.2322
 11
8.95622
 21
55.058
  0
LINE
  8
0
 10
8.95622
 20
55.058
 11
9.07735
 21
54.8672
  0
LINE
  8
0
 10
9.07735
 20
54.8672
 11
9.17358
 21
54.6626
  0
LINE
  8
0
 10
9.17358
 20
54.6626
 11
9.24344
 21
54.4476
  0
LINE
  8
0
 10
9.24344
 20
54.4476
 11
9.2858
 21
54.2256
  0
LINE
  8
0
 10
9.2858
 20
54.2256
 11
9.29999
 21
54
  0
LINE
  8
0
 10
9.29999
 20
54
 11
9.2858
 21
53.7744
  0
LINE
  8
0
 10
9.2858
 20
53.7744
 11
9.24344
 21
53.5524
  0
LINE
  8
0
 10
9.24344
 20
53.5524
 11
9.17358
 21
53.3374
  0
LINE
  8
0
 10
9.17358
 20
53.3374
 11
9.07735
 21
53.1328
  0
LINE
  8
0
 10
9.07735
 20
53.1328
 11
8.95622
 21
52.942
  0
LINE
  8
0
 10
8.95622
 20
52.942
 11
8.81213
 21
52.7678
  0
LINE
  8
0
 10
8.81213
 20
52.7678
 11
8.64735
 21
52.6131
  0
LINE
  8
0
 10
8.64735
 20
52.6131
 11
8.46448
 21
52.4802
  0
LINE
  8
0
 10
8.46448
 20
52.4802
 11
8.26639
 21
52.3713
  0
LINE
  8
0
 10
8.26639
 20
52.3713
 11
8.05623
 21
52.2881
  0
LINE
  8
0
 10
8.05623
 20
52.2881
 11
7.83728
 21
52.2319
  0
LINE
  8
0
 10
7.83728
 20
52.2319
 11
7.61302
 21
52.2036
  0
LINE
  8
0
 10
7.61302
 20
52.2036
 11
7.38696
 21
52.2036
  0
ENDSEC
  0
SECTION
  2
OBJECTS
  0
DICTIONARY
  0
ENDSEC
  0
EOF
