  0
SECTION
  2
BLOCKS
  0
ENDSEC
  0
SECTION
  2
ENTITIES
  0
LINE
  8
0
 10
10.9369
 20
1356.09
 11
11.5451
 21
1356.24
  0
LINE
  8
0
 10
11.5451
 20
1356.24
 11
12.1289
 21
1356.48
  0
LINE
  8
0
 10
12.1289
 20
1356.48
 11
12.6791
 21
1356.78
  0
LINE
  8
0
 10
12.6791
 20
1356.78
 11
13.1871
 21
1357.15
  0
LINE
  8
0
 10
13.1871
 20
1357.15
 11
13.6448
 21
1357.58
  0
LINE
  8
0
 10
13.6448
 20
1357.58
 11
14.0451
 21
1358.06
  0
LINE
  8
0
 10
14.0451
 20
1358.06
 11
14.3815
 21
1358.59
  0
LINE
  8
0
 10
14.3815
 20
1358.59
 11
14.6489
 21
1359.16
  0
LINE
  8
0
 10
14.6489
 20
1359.16
 11
14.8429
 21
1359.76
  0
LINE
  8
0
 10
14.8429
 20
1359.76
 11
14.9606
 21
1360.37
  0
LINE
  8
0
 10
14.9606
 20
1360.37
 11
15
 21
1361
  0
LINE
  8
0
 10
15
 20
1361
 11
15
 21
1501
  0
LINE
  8
0
 10
15
 20
1501
 11
14.9606
 21
1501.63
  0
LINE
  8
0
 10
14.9606
 20
1501.63
 11
14.8429
 21
1502.24
  0
LINE
  8
0
 10
14.8429
 20
1502.24
 11
14.6489
 21
1502.84
  0
LINE
  8
0
 10
14.6489
 20
1502.84
 11
14.3815
 21
1503.41
  0
LINE
  8
0
 10
14.3815
 20
1503.41
 11
14.0451
 21
1503.94
  0
LINE
  8
0
 10
14.0451
 20
1503.94
 11
13.6448
 21
1504.42
  0
LINE
  8
0
 10
13.6448
 20
1504.42
 11
13.1871
 21
1504.85
  0
LINE
  8
0
 10
13.1871
 20
1504.85
 11
12.6791
 21
1505.22
  0
LINE
  8
0
 10
12.6791
 20
1505.22
 11
12.1289
 21
1505.52
  0
LINE
  8
0
 10
12.1289
 20
1505.52
 11
11.5451
 21
1505.76
  0
LINE
  8
0
 10
11.5451
 20
1505.76
 11
10.9369
 21
1505.91
  0
LINE
  8
0
 10
10.9369
 20
1505.91
 11
10.3139
 21
1505.99
  0
LINE
  8
0
 10
10.3139
 20
1505.99
 11
-10.3139
 21
1505.99
  0
LINE
  8
0
 10
-10.3139
 20
1505.99
 11
-10.9369
 21
1505.91
  0
LINE
  8
0
 10
-10.9369
 20
1505.91
 11
-11.5451
 21
1505.76
  0
LINE
  8
0
 10
-11.5451
 20
1505.76
 11
-12.1289
 21
1505.52
  0
LINE
  8
0
 10
-12.1289
 20
1505.52
 11
-12.6791
 21
1505.22
  0
LINE
  8
0
 10
-12.6791
 20
1505.22
 11
-13.1871
 21
1504.85
  0
LINE
  8
0
 10
-13.1871
 20
1504.85
 11
-13.6448
 21
1504.42
  0
LINE
  8
0
 10
-13.6448
 20
1504.42
 11
-14.0451
 21
1503.94
  0
LINE
  8
0
 10
-14.0451
 20
1503.94
 11
-14.3815
 21
1503.41
  0
LINE
  8
0
 10
-14.3815
 20
1503.41
 11
-14.6489
 21
1502.84
  0
LINE
  8
0
 10
-14.6489
 20
1502.84
 11
-14.8429
 21
1502.24
  0
LINE
  8
0
 10
-14.8429
 20
1502.24
 11
-14.9606
 21
1501.63
  0
LINE
  8
0
 10
-14.9606
 20
1501.63
 11
-15
 21
1501
  0
LINE
  8
0
 10
-15
 20
1501
 11
-15
 21
1361
  0
LINE
  8
0
 10
-15
 20
1361
 11
-14.9606
 21
1360.37
  0
LINE
  8
0
 10
-14.9606
 20
1360.37
 11
-14.8429
 21
1359.76
  0
LINE
  8
0
 10
-14.8429
 20
1359.76
 11
-14.6489
 21
1359.16
  0
LINE
  8
0
 10
-14.6489
 20
1359.16
 11
-14.3815
 21
1358.59
  0
LINE
  8
0
 10
-14.3815
 20
1358.59
 11
-14.0451
 21
1358.06
  0
LINE
  8
0
 10
-14.0451
 20
1358.06
 11
-13.6448
 21
1357.58
  0
LINE
  8
0
 10
-13.6448
 20
1357.58
 11
-13.1871
 21
1357.15
  0
LINE
  8
0
 10
-13.1871
 20
1357.15
 11
-12.6791
 21
1356.78
  0
LINE
  8
0
 10
-12.6791
 20
1356.78
 11
-12.1289
 21
1356.48
  0
LINE
  8
0
 10
-12.1289
 20
1356.48
 11
-11.5451
 21
1356.24
  0
LINE
  8
0
 10
-11.5451
 20
1356.24
 11
-10.9369
 21
1356.09
  0
LINE
  8
0
 10
-10.9369
 20
1356.09
 11
-10.3139
 21
1356.01
  0
LINE
  8
0
 10
-10.3139
 20
1356.01
 11
10.3139
 21
1356.01
  0
LINE
  8
0
 10
10.3139
 20
1356.01
 11
10.9369
 21
1356.09
  0
LINE
  8
0
 10
-9.75116
 20
1357.51
 11
-10.2495
 21
1357.57
  0
LINE
  8
0
 10
-10.2495
 20
1357.57
 11
-10.7361
 21
1357.7
  0
LINE
  8
0
 10
-10.7361
 20
1357.7
 11
-11.2031
 21
1357.88
  0
LINE
  8
0
 10
-11.2031
 20
1357.88
 11
-11.6433
 21
1358.12
  0
LINE
  8
0
 10
-11.6433
 20
1358.12
 11
-12.0497
 21
1358.42
  0
LINE
  8
0
 10
-12.0497
 20
1358.42
 11
-12.4159
 21
1358.76
  0
LINE
  8
0
 10
-12.4159
 20
1358.76
 11
-12.7361
 21
1359.15
  0
LINE
  8
0
 10
-12.7361
 20
1359.15
 11
-13.0052
 21
1359.57
  0
LINE
  8
0
 10
-13.0052
 20
1359.57
 11
-13.2191
 21
1360.03
  0
LINE
  8
0
 10
-13.2191
 20
1360.03
 11
-13.3743
 21
1360.51
  0
LINE
  8
0
 10
-13.3743
 20
1360.51
 11
-13.4684
 21
1361
  0
LINE
  8
0
 10
-13.4684
 20
1361
 11
-13.5
 21
1361.5
  0
LINE
  8
0
 10
-13.5
 20
1361.5
 11
-13.5
 21
1500.5
  0
LINE
  8
0
 10
-13.5
 20
1500.5
 11
-13.4684
 21
1501
  0
LINE
  8
0
 10
-13.4684
 20
1501
 11
-13.3743
 21
1501.49
  0
LINE
  8
0
 10
-13.3743
 20
1501.49
 11
-13.2191
 21
1501.97
  0
LINE
  8
0
 10
-13.2191
 20
1501.97
 11
-13.0052
 21
1502.43
  0
LINE
  8
0
 10
-13.0052
 20
1502.43
 11
-12.7361
 21
1502.85
  0
LINE
  8
0
 10
-12.7361
 20
1502.85
 11
-12.4159
 21
1503.24
  0
LINE
  8
0
 10
-12.4159
 20
1503.24
 11
-12.0497
 21
1503.58
  0
LINE
  8
0
 10
-12.0497
 20
1503.58
 11
-11.6433
 21
1503.88
  0
LINE
  8
0
 10
-11.6433
 20
1503.88
 11
-11.2031
 21
1504.12
  0
LINE
  8
0
 10
-11.2031
 20
1504.12
 11
-10.7361
 21
1504.3
  0
LINE
  8
0
 10
-10.7361
 20
1504.3
 11
-10.2495
 21
1504.43
  0
LINE
  8
0
 10
-10.2495
 20
1504.43
 11
-9.75116
 21
1504.49
  0
LINE
  8
0
 10
-9.75116
 20
1504.49
 11
9.75116
 21
1504.49
  0
LINE
  8
0
 10
9.75116
 20
1504.49
 11
10.2495
 21
1504.43
  0
LINE
  8
0
 10
10.2495
 20
1504.43
 11
10.7361
 21
1504.3
  0
LINE
  8
0
 10
10.7361
 20
1504.3
 11
11.2031
 21
1504.12
  0
LINE
  8
0
 10
11.2031
 20
1504.12
 11
11.6433
 21
1503.88
  0
LINE
  8
0
 10
11.6433
 20
1503.88
 11
12.0497
 21
1503.58
  0
LINE
  8
0
 10
12.0497
 20
1503.58
 11
12.4159
 21
1503.24
  0
LINE
  8
0
 10
12.4159
 20
1503.24
 11
12.7361
 21
1502.85
  0
LINE
  8
0
 10
12.7361
 20
1502.85
 11
13.0052
 21
1502.43
  0
LINE
  8
0
 10
13.0052
 20
1502.43
 11
13.2191
 21
1501.97
  0
LINE
  8
0
 10
13.2191
 20
1501.97
 11
13.3743
 21
1501.49
  0
LINE
  8
0
 10
13.3743
 20
1501.49
 11
13.4684
 21
1501
  0
LINE
  8
0
 10
13.4684
 20
1501
 11
13.5
 21
1500.5
  0
LINE
  8
0
 10
13.5
 20
1500.5
 11
13.5
 21
1361.5
  0
LINE
  8
0
 10
13.5
 20
1361.5
 11
13.4684
 21
1361
  0
LINE
  8
0
 10
13.4684
 20
1361
 11
13.3743
 21
1360.51
  0
LINE
  8
0
 10
13.3743
 20
1360.51
 11
13.2191
 21
1360.03
  0
LINE
  8
0
 10
13.2191
 20
1360.03
 11
13.0052
 21
1359.57
  0
LINE
  8
0
 10
13.0052
 20
1359.57
 11
12.7361
 21
1359.15
  0
LINE
  8
0
 10
12.7361
 20
1359.15
 11
12.4159
 21
1358.76
  0
LINE
  8
0
 10
12.4159
 20
1358.76
 11
12.0497
 21
1358.42
  0
LINE
  8
0
 10
12.0497
 20
1358.42
 11
11.6433
 21
1358.12
  0
LINE
  8
0
 10
11.6433
 20
1358.12
 11
11.2031
 21
1357.88
  0
LINE
  8
0
 10
11.2031
 20
1357.88
 11
10.7361
 21
1357.7
  0
LINE
  8
0
 10
10.7361
 20
1357.7
 11
10.2495
 21
1357.57
  0
LINE
  8
0
 10
10.2495
 20
1357.57
 11
9.75116
 21
1357.51
  0
LINE
  8
0
 10
9.75116
 20
1357.51
 11
-9.75116
 21
1357.51
  0
LINE
  8
0
 10
10.9369
 20
1197.09
 11
11.5451
 21
1197.24
  0
LINE
  8
0
 10
11.5451
 20
1197.24
 11
12.1289
 21
1197.48
  0
LINE
  8
0
 10
12.1289
 20
1197.48
 11
12.6791
 21
1197.78
  0
LINE
  8
0
 10
12.6791
 20
1197.78
 11
13.1871
 21
1198.15
  0
LINE
  8
0
 10
13.1871
 20
1198.15
 11
13.6448
 21
1198.58
  0
LINE
  8
0
 10
13.6448
 20
1198.58
 11
14.0451
 21
1199.06
  0
LINE
  8
0
 10
14.0451
 20
1199.06
 11
14.3815
 21
1199.59
  0
LINE
  8
0
 10
14.3815
 20
1199.59
 11
14.6489
 21
1200.16
  0
LINE
  8
0
 10
14.6489
 20
1200.16
 11
14.8429
 21
1200.76
  0
LINE
  8
0
 10
14.8429
 20
1200.76
 11
14.9606
 21
1201.37
  0
LINE
  8
0
 10
14.9606
 20
1201.37
 11
15
 21
1202
  0
LINE
  8
0
 10
15
 20
1202
 11
15
 21
1342
  0
LINE
  8
0
 10
15
 20
1342
 11
14.9606
 21
1342.63
  0
LINE
  8
0
 10
14.9606
 20
1342.63
 11
14.8429
 21
1343.24
  0
LINE
  8
0
 10
14.8429
 20
1343.24
 11
14.6489
 21
1343.84
  0
LINE
  8
0
 10
14.6489
 20
1343.84
 11
14.3815
 21
1344.41
  0
LINE
  8
0
 10
14.3815
 20
1344.41
 11
14.0451
 21
1344.94
  0
LINE
  8
0
 10
14.0451
 20
1344.94
 11
13.6448
 21
1345.42
  0
LINE
  8
0
 10
13.6448
 20
1345.42
 11
13.1871
 21
1345.85
  0
LINE
  8
0
 10
13.1871
 20
1345.85
 11
12.6791
 21
1346.22
  0
LINE
  8
0
 10
12.6791
 20
1346.22
 11
12.1289
 21
1346.52
  0
LINE
  8
0
 10
12.1289
 20
1346.52
 11
11.5451
 21
1346.76
  0
LINE
  8
0
 10
11.5451
 20
1346.76
 11
10.9369
 21
1346.91
  0
LINE
  8
0
 10
10.9369
 20
1346.91
 11
10.3139
 21
1346.99
  0
LINE
  8
0
 10
10.3139
 20
1346.99
 11
-10.3139
 21
1346.99
  0
LINE
  8
0
 10
-10.3139
 20
1346.99
 11
-10.9369
 21
1346.91
  0
LINE
  8
0
 10
-10.9369
 20
1346.91
 11
-11.5451
 21
1346.76
  0
LINE
  8
0
 10
-11.5451
 20
1346.76
 11
-12.1289
 21
1346.52
  0
LINE
  8
0
 10
-12.1289
 20
1346.52
 11
-12.6791
 21
1346.22
  0
LINE
  8
0
 10
-12.6791
 20
1346.22
 11
-13.1871
 21
1345.85
  0
LINE
  8
0
 10
-13.1871
 20
1345.85
 11
-13.6448
 21
1345.42
  0
LINE
  8
0
 10
-13.6448
 20
1345.42
 11
-14.0451
 21
1344.94
  0
LINE
  8
0
 10
-14.0451
 20
1344.94
 11
-14.3815
 21
1344.41
  0
LINE
  8
0
 10
-14.3815
 20
1344.41
 11
-14.6489
 21
1343.84
  0
LINE
  8
0
 10
-14.6489
 20
1343.84
 11
-14.8429
 21
1343.24
  0
LINE
  8
0
 10
-14.8429
 20
1343.24
 11
-14.9606
 21
1342.63
  0
LINE
  8
0
 10
-14.9606
 20
1342.63
 11
-15
 21
1342
  0
LINE
  8
0
 10
-15
 20
1342
 11
-15
 21
1202
  0
LINE
  8
0
 10
-15
 20
1202
 11
-14.9606
 21
1201.37
  0
LINE
  8
0
 10
-14.9606
 20
1201.37
 11
-14.8429
 21
1200.76
  0
LINE
  8
0
 10
-14.8429
 20
1200.76
 11
-14.6489
 21
1200.16
  0
LINE
  8
0
 10
-14.6489
 20
1200.16
 11
-14.3815
 21
1199.59
  0
LINE
  8
0
 10
-14.3815
 20
1199.59
 11
-14.0451
 21
1199.06
  0
LINE
  8
0
 10
-14.0451
 20
1199.06
 11
-13.6448
 21
1198.58
  0
LINE
  8
0
 10
-13.6448
 20
1198.58
 11
-13.1871
 21
1198.15
  0
LINE
  8
0
 10
-13.1871
 20
1198.15
 11
-12.6791
 21
1197.78
  0
LINE
  8
0
 10
-12.6791
 20
1197.78
 11
-12.1289
 21
1197.48
  0
LINE
  8
0
 10
-12.1289
 20
1197.48
 11
-11.5451
 21
1197.24
  0
LINE
  8
0
 10
-11.5451
 20
1197.24
 11
-10.9369
 21
1197.09
  0
LINE
  8
0
 10
-10.9369
 20
1197.09
 11
-10.3139
 21
1197.01
  0
LINE
  8
0
 10
-10.3139
 20
1197.01
 11
10.3139
 21
1197.01
  0
LINE
  8
0
 10
10.3139
 20
1197.01
 11
10.9369
 21
1197.09
  0
LINE
  8
0
 10
-9.75116
 20
1198.51
 11
-10.2495
 21
1198.57
  0
LINE
  8
0
 10
-10.2495
 20
1198.57
 11
-10.7361
 21
1198.7
  0
LINE
  8
0
 10
-10.7361
 20
1198.7
 11
-11.2031
 21
1198.88
  0
LINE
  8
0
 10
-11.2031
 20
1198.88
 11
-11.6433
 21
1199.12
  0
LINE
  8
0
 10
-11.6433
 20
1199.12
 11
-12.0497
 21
1199.42
  0
LINE
  8
0
 10
-12.0497
 20
1199.42
 11
-12.4159
 21
1199.76
  0
LINE
  8
0
 10
-12.4159
 20
1199.76
 11
-12.7361
 21
1200.15
  0
LINE
  8
0
 10
-12.7361
 20
1200.15
 11
-13.0052
 21
1200.57
  0
LINE
  8
0
 10
-13.0052
 20
1200.57
 11
-13.2191
 21
1201.03
  0
LINE
  8
0
 10
-13.2191
 20
1201.03
 11
-13.3743
 21
1201.51
  0
LINE
  8
0
 10
-13.3743
 20
1201.51
 11
-13.4684
 21
1202
  0
LINE
  8
0
 10
-13.4684
 20
1202
 11
-13.5
 21
1202.5
  0
LINE
  8
0
 10
-13.5
 20
1202.5
 11
-13.5
 21
1341.5
  0
LINE
  8
0
 10
-13.5
 20
1341.5
 11
-13.4684
 21
1342
  0
LINE
  8
0
 10
-13.4684
 20
1342
 11
-13.3743
 21
1342.49
  0
LINE
  8
0
 10
-13.3743
 20
1342.49
 11
-13.2191
 21
1342.97
  0
LINE
  8
0
 10
-13.2191
 20
1342.97
 11
-13.0052
 21
1343.43
  0
LINE
  8
0
 10
-13.0052
 20
1343.43
 11
-12.7361
 21
1343.85
  0
LINE
  8
0
 10
-12.7361
 20
1343.85
 11
-12.4159
 21
1344.24
  0
LINE
  8
0
 10
-12.4159
 20
1344.24
 11
-12.0497
 21
1344.58
  0
LINE
  8
0
 10
-12.0497
 20
1344.58
 11
-11.6433
 21
1344.88
  0
LINE
  8
0
 10
-11.6433
 20
1344.88
 11
-11.2031
 21
1345.12
  0
LINE
  8
0
 10
-11.2031
 20
1345.12
 11
-10.7361
 21
1345.3
  0
LINE
  8
0
 10
-10.7361
 20
1345.3
 11
-10.2495
 21
1345.43
  0
LINE
  8
0
 10
-10.2495
 20
1345.43
 11
-9.75116
 21
1345.49
  0
LINE
  8
0
 10
-9.75116
 20
1345.49
 11
9.75116
 21
1345.49
  0
LINE
  8
0
 10
9.75116
 20
1345.49
 11
10.2495
 21
1345.43
  0
LINE
  8
0
 10
10.2495
 20
1345.43
 11
10.7361
 21
1345.3
  0
LINE
  8
0
 10
10.7361
 20
1345.3
 11
11.2031
 21
1345.12
  0
LINE
  8
0
 10
11.2031
 20
1345.12
 11
11.6433
 21
1344.88
  0
LINE
  8
0
 10
11.6433
 20
1344.88
 11
12.0497
 21
1344.58
  0
LINE
  8
0
 10
12.0497
 20
1344.58
 11
12.4159
 21
1344.24
  0
LINE
  8
0
 10
12.4159
 20
1344.24
 11
12.7361
 21
1343.85
  0
LINE
  8
0
 10
12.7361
 20
1343.85
 11
13.0052
 21
1343.43
  0
LINE
  8
0
 10
13.0052
 20
1343.43
 11
13.2191
 21
1342.97
  0
LINE
  8
0
 10
13.2191
 20
1342.97
 11
13.3743
 21
1342.49
  0
LINE
  8
0
 10
13.3743
 20
1342.49
 11
13.4684
 21
1342
  0
LINE
  8
0
 10
13.4684
 20
1342
 11
13.5
 21
1341.5
  0
LINE
  8
0
 10
13.5
 20
1341.5
 11
13.5
 21
1202.5
  0
LINE
  8
0
 10
13.5
 20
1202.5
 11
13.4684
 21
1202
  0
LINE
  8
0
 10
13.4684
 20
1202
 11
13.3743
 21
1201.51
  0
LINE
  8
0
 10
13.3743
 20
1201.51
 11
13.2191
 21
1201.03
  0
LINE
  8
0
 10
13.2191
 20
1201.03
 11
13.0052
 21
1200.57
  0
LINE
  8
0
 10
13.0052
 20
1200.57
 11
12.7361
 21
1200.15
  0
LINE
  8
0
 10
12.7361
 20
1200.15
 11
12.4159
 21
1199.76
  0
LINE
  8
0
 10
12.4159
 20
1199.76
 11
12.0497
 21
1199.42
  0
LINE
  8
0
 10
12.0497
 20
1199.42
 11
11.6433
 21
1199.12
  0
LINE
  8
0
 10
11.6433
 20
1199.12
 11
11.2031
 21
1198.88
  0
LINE
  8
0
 10
11.2031
 20
1198.88
 11
10.7361
 21
1198.7
  0
LINE
  8
0
 10
10.7361
 20
1198.7
 11
10.2495
 21
1198.57
  0
LINE
  8
0
 10
10.2495
 20
1198.57
 11
9.75116
 21
1198.51
  0
LINE
  8
0
 10
9.75116
 20
1198.51
 11
-9.75116
 21
1198.51
  0
LINE
  8
0
 10
10.9369
 20
1038.09
 11
11.5451
 21
1038.24
  0
LINE
  8
0
 10
11.5451
 20
1038.24
 11
12.1289
 21
1038.48
  0
LINE
  8
0
 10
12.1289
 20
1038.48
 11
12.6791
 21
1038.78
  0
LINE
  8
0
 10
12.6791
 20
1038.78
 11
13.1871
 21
1039.15
  0
LINE
  8
0
 10
13.1871
 20
1039.15
 11
13.6448
 21
1039.58
  0
LINE
  8
0
 10
13.6448
 20
1039.58
 11
14.0451
 21
1040.06
  0
LINE
  8
0
 10
14.0451
 20
1040.06
 11
14.3815
 21
1040.59
  0
LINE
  8
0
 10
14.3815
 20
1040.59
 11
14.6489
 21
1041.16
  0
LINE
  8
0
 10
14.6489
 20
1041.16
 11
14.8429
 21
1041.76
  0
LINE
  8
0
 10
14.8429
 20
1041.76
 11
14.9606
 21
1042.37
  0
LINE
  8
0
 10
14.9606
 20
1042.37
 11
15
 21
1043
  0
LINE
  8
0
 10
15
 20
1043
 11
15
 21
1183
  0
LINE
  8
0
 10
15
 20
1183
 11
14.9606
 21
1183.63
  0
LINE
  8
0
 10
14.9606
 20
1183.63
 11
14.8429
 21
1184.24
  0
LINE
  8
0
 10
14.8429
 20
1184.24
 11
14.6489
 21
1184.84
  0
LINE
  8
0
 10
14.6489
 20
1184.84
 11
14.3815
 21
1185.41
  0
LINE
  8
0
 10
14.3815
 20
1185.41
 11
14.0451
 21
1185.94
  0
LINE
  8
0
 10
14.0451
 20
1185.94
 11
13.6448
 21
1186.42
  0
LINE
  8
0
 10
13.6448
 20
1186.42
 11
13.1871
 21
1186.85
  0
LINE
  8
0
 10
13.1871
 20
1186.85
 11
12.6791
 21
1187.22
  0
LINE
  8
0
 10
12.6791
 20
1187.22
 11
12.1289
 21
1187.52
  0
LINE
  8
0
 10
12.1289
 20
1187.52
 11
11.5451
 21
1187.76
  0
LINE
  8
0
 10
11.5451
 20
1187.76
 11
10.9369
 21
1187.91
  0
LINE
  8
0
 10
10.9369
 20
1187.91
 11
10.3139
 21
1187.99
  0
LINE
  8
0
 10
10.3139
 20
1187.99
 11
-10.3139
 21
1187.99
  0
LINE
  8
0
 10
-10.3139
 20
1187.99
 11
-10.9369
 21
1187.91
  0
LINE
  8
0
 10
-10.9369
 20
1187.91
 11
-11.5451
 21
1187.76
  0
LINE
  8
0
 10
-11.5451
 20
1187.76
 11
-12.1289
 21
1187.52
  0
LINE
  8
0
 10
-12.1289
 20
1187.52
 11
-12.6791
 21
1187.22
  0
LINE
  8
0
 10
-12.6791
 20
1187.22
 11
-13.1871
 21
1186.85
  0
LINE
  8
0
 10
-13.1871
 20
1186.85
 11
-13.6448
 21
1186.42
  0
LINE
  8
0
 10
-13.6448
 20
1186.42
 11
-14.0451
 21
1185.94
  0
LINE
  8
0
 10
-14.0451
 20
1185.94
 11
-14.3815
 21
1185.41
  0
LINE
  8
0
 10
-14.3815
 20
1185.41
 11
-14.6489
 21
1184.84
  0
LINE
  8
0
 10
-14.6489
 20
1184.84
 11
-14.8429
 21
1184.24
  0
LINE
  8
0
 10
-14.8429
 20
1184.24
 11
-14.9606
 21
1183.63
  0
LINE
  8
0
 10
-14.9606
 20
1183.63
 11
-15
 21
1183
  0
LINE
  8
0
 10
-15
 20
1183
 11
-15
 21
1043
  0
LINE
  8
0
 10
-15
 20
1043
 11
-14.9606
 21
1042.37
  0
LINE
  8
0
 10
-14.9606
 20
1042.37
 11
-14.8429
 21
1041.76
  0
LINE
  8
0
 10
-14.8429
 20
1041.76
 11
-14.6489
 21
1041.16
  0
LINE
  8
0
 10
-14.6489
 20
1041.16
 11
-14.3815
 21
1040.59
  0
LINE
  8
0
 10
-14.3815
 20
1040.59
 11
-14.0451
 21
1040.06
  0
LINE
  8
0
 10
-14.0451
 20
1040.06
 11
-13.6448
 21
1039.58
  0
LINE
  8
0
 10
-13.6448
 20
1039.58
 11
-13.1871
 21
1039.15
  0
LINE
  8
0
 10
-13.1871
 20
1039.15
 11
-12.6791
 21
1038.78
  0
LINE
  8
0
 10
-12.6791
 20
1038.78
 11
-12.1289
 21
1038.48
  0
LINE
  8
0
 10
-12.1289
 20
1038.48
 11
-11.5451
 21
1038.24
  0
LINE
  8
0
 10
-11.5451
 20
1038.24
 11
-10.9369
 21
1038.09
  0
LINE
  8
0
 10
-10.9369
 20
1038.09
 11
-10.3139
 21
1038.01
  0
LINE
  8
0
 10
-10.3139
 20
1038.01
 11
10.3139
 21
1038.01
  0
LINE
  8
0
 10
10.3139
 20
1038.01
 11
10.9369
 21
1038.09
  0
LINE
  8
0
 10
-9.75116
 20
1039.51
 11
-10.2495
 21
1039.57
  0
LINE
  8
0
 10
-10.2495
 20
1039.57
 11
-10.7361
 21
1039.7
  0
LINE
  8
0
 10
-10.7361
 20
1039.7
 11
-11.2031
 21
1039.88
  0
LINE
  8
0
 10
-11.2031
 20
1039.88
 11
-11.6433
 21
1040.12
  0
LINE
  8
0
 10
-11.6433
 20
1040.12
 11
-12.0497
 21
1040.42
  0
LINE
  8
0
 10
-12.0497
 20
1040.42
 11
-12.4159
 21
1040.76
  0
LINE
  8
0
 10
-12.4159
 20
1040.76
 11
-12.7361
 21
1041.15
  0
LINE
  8
0
 10
-12.7361
 20
1041.15
 11
-13.0052
 21
1041.57
  0
LINE
  8
0
 10
-13.0052
 20
1041.57
 11
-13.2191
 21
1042.03
  0
LINE
  8
0
 10
-13.2191
 20
1042.03
 11
-13.3743
 21
1042.51
  0
LINE
  8
0
 10
-13.3743
 20
1042.51
 11
-13.4684
 21
1043
  0
LINE
  8
0
 10
-13.4684
 20
1043
 11
-13.5
 21
1043.5
  0
LINE
  8
0
 10
-13.5
 20
1043.5
 11
-13.5
 21
1182.5
  0
LINE
  8
0
 10
-13.5
 20
1182.5
 11
-13.4684
 21
1183
  0
LINE
  8
0
 10
-13.4684
 20
1183
 11
-13.3743
 21
1183.49
  0
LINE
  8
0
 10
-13.3743
 20
1183.49
 11
-13.2191
 21
1183.97
  0
LINE
  8
0
 10
-13.2191
 20
1183.97
 11
-13.0052
 21
1184.43
  0
LINE
  8
0
 10
-13.0052
 20
1184.43
 11
-12.7361
 21
1184.85
  0
LINE
  8
0
 10
-12.7361
 20
1184.85
 11
-12.4159
 21
1185.24
  0
LINE
  8
0
 10
-12.4159
 20
1185.24
 11
-12.0497
 21
1185.58
  0
LINE
  8
0
 10
-12.0497
 20
1185.58
 11
-11.6433
 21
1185.88
  0
LINE
  8
0
 10
-11.6433
 20
1185.88
 11
-11.2031
 21
1186.12
  0
LINE
  8
0
 10
-11.2031
 20
1186.12
 11
-10.7361
 21
1186.3
  0
LINE
  8
0
 10
-10.7361
 20
1186.3
 11
-10.2495
 21
1186.43
  0
LINE
  8
0
 10
-10.2495
 20
1186.43
 11
-9.75116
 21
1186.49
  0
LINE
  8
0
 10
-9.75116
 20
1186.49
 11
9.75116
 21
1186.49
  0
LINE
  8
0
 10
9.75116
 20
1186.49
 11
10.2495
 21
1186.43
  0
LINE
  8
0
 10
10.2495
 20
1186.43
 11
10.7361
 21
1186.3
  0
LINE
  8
0
 10
10.7361
 20
1186.3
 11
11.2031
 21
1186.12
  0
LINE
  8
0
 10
11.2031
 20
1186.12
 11
11.6433
 21
1185.88
  0
LINE
  8
0
 10
11.6433
 20
1185.88
 11
12.0497
 21
1185.58
  0
LINE
  8
0
 10
12.0497
 20
1185.58
 11
12.4159
 21
1185.24
  0
LINE
  8
0
 10
12.4159
 20
1185.24
 11
12.7361
 21
1184.85
  0
LINE
  8
0
 10
12.7361
 20
1184.85
 11
13.0052
 21
1184.43
  0
LINE
  8
0
 10
13.0052
 20
1184.43
 11
13.2191
 21
1183.97
  0
LINE
  8
0
 10
13.2191
 20
1183.97
 11
13.3743
 21
1183.49
  0
LINE
  8
0
 10
13.3743
 20
1183.49
 11
13.4684
 21
1183
  0
LINE
  8
0
 10
13.4684
 20
1183
 11
13.5
 21
1182.5
  0
LINE
  8
0
 10
13.5
 20
1182.5
 11
13.5
 21
1043.5
  0
LINE
  8
0
 10
13.5
 20
1043.5
 11
13.4684
 21
1043
  0
LINE
  8
0
 10
13.4684
 20
1043
 11
13.3743
 21
1042.51
  0
LINE
  8
0
 10
13.3743
 20
1042.51
 11
13.2191
 21
1042.03
  0
LINE
  8
0
 10
13.2191
 20
1042.03
 11
13.0052
 21
1041.57
  0
LINE
  8
0
 10
13.0052
 20
1041.57
 11
12.7361
 21
1041.15
  0
LINE
  8
0
 10
12.7361
 20
1041.15
 11
12.4159
 21
1040.76
  0
LINE
  8
0
 10
12.4159
 20
1040.76
 11
12.0497
 21
1040.42
  0
LINE
  8
0
 10
12.0497
 20
1040.42
 11
11.6433
 21
1040.12
  0
LINE
  8
0
 10
11.6433
 20
1040.12
 11
11.2031
 21
1039.88
  0
LINE
  8
0
 10
11.2031
 20
1039.88
 11
10.7361
 21
1039.7
  0
LINE
  8
0
 10
10.7361
 20
1039.7
 11
10.2495
 21
1039.57
  0
LINE
  8
0
 10
10.2495
 20
1039.57
 11
9.75116
 21
1039.51
  0
LINE
  8
0
 10
9.75116
 20
1039.51
 11
-9.75116
 21
1039.51
  0
LINE
  8
0
 10
10.9369
 20
879.089
 11
11.5451
 21
879.245
  0
LINE
  8
0
 10
11.5451
 20
879.245
 11
12.1289
 21
879.476
  0
LINE
  8
0
 10
12.1289
 20
879.476
 11
12.6791
 21
879.778
  0
LINE
  8
0
 10
12.6791
 20
879.778
 11
13.1871
 21
880.147
  0
LINE
  8
0
 10
13.1871
 20
880.147
 11
13.6448
 21
880.577
  0
LINE
  8
0
 10
13.6448
 20
880.577
 11
14.0451
 21
881.061
  0
LINE
  8
0
 10
14.0451
 20
881.061
 11
14.3815
 21
881.591
  0
LINE
  8
0
 10
14.3815
 20
881.591
 11
14.6489
 21
882.159
  0
LINE
  8
0
 10
14.6489
 20
882.159
 11
14.8429
 21
882.757
  0
LINE
  8
0
 10
14.8429
 20
882.757
 11
14.9606
 21
883.373
  0
LINE
  8
0
 10
14.9606
 20
883.373
 11
15
 21
884
  0
LINE
  8
0
 10
15
 20
884
 11
15
 21
1024
  0
LINE
  8
0
 10
15
 20
1024
 11
14.9606
 21
1024.63
  0
LINE
  8
0
 10
14.9606
 20
1024.63
 11
14.8429
 21
1025.24
  0
LINE
  8
0
 10
14.8429
 20
1025.24
 11
14.6489
 21
1025.84
  0
LINE
  8
0
 10
14.6489
 20
1025.84
 11
14.3815
 21
1026.41
  0
LINE
  8
0
 10
14.3815
 20
1026.41
 11
14.0451
 21
1026.94
  0
LINE
  8
0
 10
14.0451
 20
1026.94
 11
13.6448
 21
1027.42
  0
LINE
  8
0
 10
13.6448
 20
1027.42
 11
13.1871
 21
1027.85
  0
LINE
  8
0
 10
13.1871
 20
1027.85
 11
12.6791
 21
1028.22
  0
LINE
  8
0
 10
12.6791
 20
1028.22
 11
12.1289
 21
1028.52
  0
LINE
  8
0
 10
12.1289
 20
1028.52
 11
11.5451
 21
1028.76
  0
LINE
  8
0
 10
11.5451
 20
1028.76
 11
10.9369
 21
1028.91
  0
LINE
  8
0
 10
10.9369
 20
1028.91
 11
10.3139
 21
1028.99
  0
LINE
  8
0
 10
10.3139
 20
1028.99
 11
-10.3139
 21
1028.99
  0
LINE
  8
0
 10
-10.3139
 20
1028.99
 11
-10.9369
 21
1028.91
  0
LINE
  8
0
 10
-10.9369
 20
1028.91
 11
-11.5451
 21
1028.76
  0
LINE
  8
0
 10
-11.5451
 20
1028.76
 11
-12.1289
 21
1028.52
  0
LINE
  8
0
 10
-12.1289
 20
1028.52
 11
-12.6791
 21
1028.22
  0
LINE
  8
0
 10
-12.6791
 20
1028.22
 11
-13.1871
 21
1027.85
  0
LINE
  8
0
 10
-13.1871
 20
1027.85
 11
-13.6448
 21
1027.42
  0
LINE
  8
0
 10
-13.6448
 20
1027.42
 11
-14.0451
 21
1026.94
  0
LINE
  8
0
 10
-14.0451
 20
1026.94
 11
-14.3815
 21
1026.41
  0
LINE
  8
0
 10
-14.3815
 20
1026.41
 11
-14.6489
 21
1025.84
  0
LINE
  8
0
 10
-14.6489
 20
1025.84
 11
-14.8429
 21
1025.24
  0
LINE
  8
0
 10
-14.8429
 20
1025.24
 11
-14.9606
 21
1024.63
  0
LINE
  8
0
 10
-14.9606
 20
1024.63
 11
-15
 21
1024
  0
LINE
  8
0
 10
-15
 20
1024
 11
-15
 21
884
  0
LINE
  8
0
 10
-15
 20
884
 11
-14.9606
 21
883.373
  0
LINE
  8
0
 10
-14.9606
 20
883.373
 11
-14.8429
 21
882.757
  0
LINE
  8
0
 10
-14.8429
 20
882.757
 11
-14.6489
 21
882.159
  0
LINE
  8
0
 10
-14.6489
 20
882.159
 11
-14.3815
 21
881.591
  0
LINE
  8
0
 10
-14.3815
 20
881.591
 11
-14.0451
 21
881.061
  0
LINE
  8
0
 10
-14.0451
 20
881.061
 11
-13.6448
 21
880.577
  0
LINE
  8
0
 10
-13.6448
 20
880.577
 11
-13.1871
 21
880.147
  0
LINE
  8
0
 10
-13.1871
 20
880.147
 11
-12.6791
 21
879.778
  0
LINE
  8
0
 10
-12.6791
 20
879.778
 11
-12.1289
 21
879.476
  0
LINE
  8
0
 10
-12.1289
 20
879.476
 11
-11.5451
 21
879.245
  0
LINE
  8
0
 10
-11.5451
 20
879.245
 11
-10.9369
 21
879.089
  0
LINE
  8
0
 10
-10.9369
 20
879.089
 11
-10.3139
 21
879.01
  0
LINE
  8
0
 10
-10.3139
 20
879.01
 11
10.3139
 21
879.01
  0
LINE
  8
0
 10
10.3139
 20
879.01
 11
10.9369
 21
879.089
  0
LINE
  8
0
 10
-9.69545
 20
881.393
 11
-10.0833
 21
881.442
  0
LINE
  8
0
 10
-10.0833
 20
881.442
 11
-10.4619
 21
881.539
  0
LINE
  8
0
 10
-10.4619
 20
881.539
 11
-10.8254
 21
881.683
  0
LINE
  8
0
 10
-10.8254
 20
881.683
 11
-11.168
 21
881.872
  0
LINE
  8
0
 10
-11.168
 20
881.872
 11
-11.4842
 21
882.101
  0
LINE
  8
0
 10
-11.4842
 20
882.101
 11
-11.7692
 21
882.369
  0
LINE
  8
0
 10
-11.7692
 20
882.369
 11
-12.0184
 21
882.67
  0
LINE
  8
0
 10
-12.0184
 20
882.67
 11
-12.2279
 21
883
  0
LINE
  8
0
 10
-12.2279
 20
883
 11
-12.3943
 21
883.354
  0
LINE
  8
0
 10
-12.3943
 20
883.354
 11
-12.5151
 21
883.726
  0
LINE
  8
0
 10
-12.5151
 20
883.726
 11
-12.5884
 21
884.11
  0
LINE
  8
0
 10
-12.5884
 20
884.11
 11
-12.6129
 21
884.5
  0
LINE
  8
0
 10
-12.6129
 20
884.5
 11
-12.6129
 21
1023.5
  0
LINE
  8
0
 10
-12.6129
 20
1023.5
 11
-12.5884
 21
1023.89
  0
LINE
  8
0
 10
-12.5884
 20
1023.89
 11
-12.5151
 21
1024.27
  0
LINE
  8
0
 10
-12.5151
 20
1024.27
 11
-12.3943
 21
1024.65
  0
LINE
  8
0
 10
-12.3943
 20
1024.65
 11
-12.2279
 21
1025
  0
LINE
  8
0
 10
-12.2279
 20
1025
 11
-12.0184
 21
1025.33
  0
LINE
  8
0
 10
-12.0184
 20
1025.33
 11
-11.7692
 21
1025.63
  0
LINE
  8
0
 10
-11.7692
 20
1025.63
 11
-11.4842
 21
1025.9
  0
LINE
  8
0
 10
-11.4842
 20
1025.9
 11
-11.168
 21
1026.13
  0
LINE
  8
0
 10
-11.168
 20
1026.13
 11
-10.8254
 21
1026.32
  0
LINE
  8
0
 10
-10.8254
 20
1026.32
 11
-10.4619
 21
1026.46
  0
LINE
  8
0
 10
-10.4619
 20
1026.46
 11
-10.0833
 21
1026.56
  0
LINE
  8
0
 10
-10.0833
 20
1026.56
 11
-9.69545
 21
1026.61
  0
LINE
  8
0
 10
-9.69545
 20
1026.61
 11
9.69545
 21
1026.61
  0
LINE
  8
0
 10
9.69545
 20
1026.61
 11
10.0833
 21
1026.56
  0
LINE
  8
0
 10
10.0833
 20
1026.56
 11
10.4619
 21
1026.46
  0
LINE
  8
0
 10
10.4619
 20
1026.46
 11
10.8254
 21
1026.32
  0
LINE
  8
0
 10
10.8254
 20
1026.32
 11
11.168
 21
1026.13
  0
LINE
  8
0
 10
11.168
 20
1026.13
 11
11.4842
 21
1025.9
  0
LINE
  8
0
 10
11.4842
 20
1025.9
 11
11.7692
 21
1025.63
  0
LINE
  8
0
 10
11.7692
 20
1025.63
 11
12.0184
 21
1025.33
  0
LINE
  8
0
 10
12.0184
 20
1025.33
 11
12.2279
 21
1025
  0
LINE
  8
0
 10
12.2279
 20
1025
 11
12.3943
 21
1024.65
  0
LINE
  8
0
 10
12.3943
 20
1024.65
 11
12.5151
 21
1024.27
  0
LINE
  8
0
 10
12.5151
 20
1024.27
 11
12.5884
 21
1023.89
  0
LINE
  8
0
 10
12.5884
 20
1023.89
 11
12.6129
 21
1023.5
  0
LINE
  8
0
 10
12.6129
 20
1023.5
 11
12.6129
 21
884.5
  0
LINE
  8
0
 10
12.6129
 20
884.5
 11
12.5884
 21
884.11
  0
LINE
  8
0
 10
12.5884
 20
884.11
 11
12.5151
 21
883.726
  0
LINE
  8
0
 10
12.5151
 20
883.726
 11
12.3943
 21
883.354
  0
LINE
  8
0
 10
12.3943
 20
883.354
 11
12.2279
 21
883
  0
LINE
  8
0
 10
12.2279
 20
883
 11
12.0184
 21
882.67
  0
LINE
  8
0
 10
12.0184
 20
882.67
 11
11.7692
 21
882.369
  0
LINE
  8
0
 10
11.7692
 20
882.369
 11
11.4842
 21
882.101
  0
LINE
  8
0
 10
11.4842
 20
882.101
 11
11.168
 21
881.872
  0
LINE
  8
0
 10
11.168
 20
881.872
 11
10.8254
 21
881.683
  0
LINE
  8
0
 10
10.8254
 20
881.683
 11
10.4619
 21
881.539
  0
LINE
  8
0
 10
10.4619
 20
881.539
 11
10.0833
 21
881.442
  0
LINE
  8
0
 10
10.0833
 20
881.442
 11
9.69545
 21
881.393
  0
LINE
  8
0
 10
9.69545
 20
881.393
 11
-9.69545
 21
881.393
  0
LINE
  8
0
 10
10.9369
 20
720.089
 11
11.5451
 21
720.245
  0
LINE
  8
0
 10
11.5451
 20
720.245
 11
12.1289
 21
720.476
  0
LINE
  8
0
 10
12.1289
 20
720.476
 11
12.6791
 21
720.778
  0
LINE
  8
0
 10
12.6791
 20
720.778
 11
13.1871
 21
721.147
  0
LINE
  8
0
 10
13.1871
 20
721.147
 11
13.6448
 21
721.577
  0
LINE
  8
0
 10
13.6448
 20
721.577
 11
14.0451
 21
722.061
  0
LINE
  8
0
 10
14.0451
 20
722.061
 11
14.3815
 21
722.591
  0
LINE
  8
0
 10
14.3815
 20
722.591
 11
14.6489
 21
723.159
  0
LINE
  8
0
 10
14.6489
 20
723.159
 11
14.8429
 21
723.757
  0
LINE
  8
0
 10
14.8429
 20
723.757
 11
14.9606
 21
724.373
  0
LINE
  8
0
 10
14.9606
 20
724.373
 11
15
 21
725
  0
LINE
  8
0
 10
15
 20
725
 11
15
 21
865
  0
LINE
  8
0
 10
15
 20
865
 11
14.9606
 21
865.627
  0
LINE
  8
0
 10
14.9606
 20
865.627
 11
14.8429
 21
866.243
  0
LINE
  8
0
 10
14.8429
 20
866.243
 11
14.6489
 21
866.841
  0
LINE
  8
0
 10
14.6489
 20
866.841
 11
14.3815
 21
867.409
  0
LINE
  8
0
 10
14.3815
 20
867.409
 11
14.0451
 21
867.939
  0
LINE
  8
0
 10
14.0451
 20
867.939
 11
13.6448
 21
868.423
  0
LINE
  8
0
 10
13.6448
 20
868.423
 11
13.1871
 21
868.853
  0
LINE
  8
0
 10
13.1871
 20
868.853
 11
12.6791
 21
869.222
  0
LINE
  8
0
 10
12.6791
 20
869.222
 11
12.1289
 21
869.524
  0
LINE
  8
0
 10
12.1289
 20
869.524
 11
11.5451
 21
869.755
  0
LINE
  8
0
 10
11.5451
 20
869.755
 11
10.9369
 21
869.911
  0
LINE
  8
0
 10
10.9369
 20
869.911
 11
10.3139
 21
869.99
  0
LINE
  8
0
 10
10.3139
 20
869.99
 11
-10.3139
 21
869.99
  0
LINE
  8
0
 10
-10.3139
 20
869.99
 11
-10.9369
 21
869.911
  0
LINE
  8
0
 10
-10.9369
 20
869.911
 11
-11.5451
 21
869.755
  0
LINE
  8
0
 10
-11.5451
 20
869.755
 11
-12.1289
 21
869.524
  0
LINE
  8
0
 10
-12.1289
 20
869.524
 11
-12.6791
 21
869.222
  0
LINE
  8
0
 10
-12.6791
 20
869.222
 11
-13.1871
 21
868.853
  0
LINE
  8
0
 10
-13.1871
 20
868.853
 11
-13.6448
 21
868.423
  0
LINE
  8
0
 10
-13.6448
 20
868.423
 11
-14.0451
 21
867.939
  0
LINE
  8
0
 10
-14.0451
 20
867.939
 11
-14.3815
 21
867.409
  0
LINE
  8
0
 10
-14.3815
 20
867.409
 11
-14.6489
 21
866.841
  0
LINE
  8
0
 10
-14.6489
 20
866.841
 11
-14.8429
 21
866.243
  0
LINE
  8
0
 10
-14.8429
 20
866.243
 11
-14.9606
 21
865.627
  0
LINE
  8
0
 10
-14.9606
 20
865.627
 11
-15
 21
865
  0
LINE
  8
0
 10
-15
 20
865
 11
-15
 21
725
  0
LINE
  8
0
 10
-15
 20
725
 11
-14.9606
 21
724.373
  0
LINE
  8
0
 10
-14.9606
 20
724.373
 11
-14.8429
 21
723.757
  0
LINE
  8
0
 10
-14.8429
 20
723.757
 11
-14.6489
 21
723.159
  0
LINE
  8
0
 10
-14.6489
 20
723.159
 11
-14.3815
 21
722.591
  0
LINE
  8
0
 10
-14.3815
 20
722.591
 11
-14.0451
 21
722.061
  0
LINE
  8
0
 10
-14.0451
 20
722.061
 11
-13.6448
 21
721.577
  0
LINE
  8
0
 10
-13.6448
 20
721.577
 11
-13.1871
 21
721.147
  0
LINE
  8
0
 10
-13.1871
 20
721.147
 11
-12.6791
 21
720.778
  0
LINE
  8
0
 10
-12.6791
 20
720.778
 11
-12.1289
 21
720.476
  0
LINE
  8
0
 10
-12.1289
 20
720.476
 11
-11.5451
 21
720.245
  0
LINE
  8
0
 10
-11.5451
 20
720.245
 11
-10.9369
 21
720.089
  0
LINE
  8
0
 10
-10.9369
 20
720.089
 11
-10.3139
 21
720.01
  0
LINE
  8
0
 10
-10.3139
 20
720.01
 11
10.3139
 21
720.01
  0
LINE
  8
0
 10
10.3139
 20
720.01
 11
10.9369
 21
720.089
  0
LINE
  8
0
 10
7.36592
 20
860.369
 11
7.09988
 21
860.403
  0
LINE
  8
0
 10
7.09988
 20
860.403
 11
6.84015
 21
860.469
  0
LINE
  8
0
 10
6.84015
 20
860.469
 11
6.59084
 21
860.568
  0
LINE
  8
0
 10
6.59084
 20
860.568
 11
6.35585
 21
860.697
  0
LINE
  8
0
 10
6.35585
 20
860.697
 11
6.1389
 21
860.855
  0
LINE
  8
0
 10
6.1389
 20
860.855
 11
5.94344
 21
861.038
  0
LINE
  8
0
 10
5.94344
 20
861.038
 11
5.77251
 21
861.245
  0
LINE
  8
0
 10
5.77251
 20
861.245
 11
5.62881
 21
861.471
  0
LINE
  8
0
 10
5.62881
 20
861.471
 11
5.51465
 21
861.714
  0
LINE
  8
0
 10
5.51465
 20
861.714
 11
5.43178
 21
861.969
  0
LINE
  8
0
 10
5.43178
 20
861.969
 11
5.38153
 21
862.232
  0
LINE
  8
0
 10
5.38153
 20
862.232
 11
5.3647
 21
862.5
  0
LINE
  8
0
 10
5.3647
 20
862.5
 11
5.38153
 21
862.768
  0
LINE
  8
0
 10
5.38153
 20
862.768
 11
5.43178
 21
863.031
  0
LINE
  8
0
 10
5.43178
 20
863.031
 11
5.51465
 21
863.286
  0
LINE
  8
0
 10
5.51465
 20
863.286
 11
5.62881
 21
863.529
  0
LINE
  8
0
 10
5.62881
 20
863.529
 11
5.77251
 21
863.755
  0
LINE
  8
0
 10
5.77251
 20
863.755
 11
5.94344
 21
863.962
  0
LINE
  8
0
 10
5.94344
 20
863.962
 11
6.1389
 21
864.145
  0
LINE
  8
0
 10
6.1389
 20
864.145
 11
6.35585
 21
864.303
  0
LINE
  8
0
 10
6.35585
 20
864.303
 11
6.59084
 21
864.432
  0
LINE
  8
0
 10
6.59084
 20
864.432
 11
6.84015
 21
864.531
  0
LINE
  8
0
 10
6.84015
 20
864.531
 11
7.09988
 21
864.597
  0
LINE
  8
0
 10
7.09988
 20
864.597
 11
7.36592
 21
864.631
  0
LINE
  8
0
 10
7.36592
 20
864.631
 11
7.63406
 21
864.631
  0
LINE
  8
0
 10
7.63406
 20
864.631
 11
7.9001
 21
864.597
  0
LINE
  8
0
 10
7.9001
 20
864.597
 11
8.15984
 21
864.531
  0
LINE
  8
0
 10
8.15984
 20
864.531
 11
8.40915
 21
864.432
  0
LINE
  8
0
 10
8.40915
 20
864.432
 11
8.64413
 21
864.303
  0
LINE
  8
0
 10
8.64413
 20
864.303
 11
8.86108
 21
864.145
  0
LINE
  8
0
 10
8.86108
 20
864.145
 11
9.05655
 21
863.962
  0
LINE
  8
0
 10
9.05655
 20
863.962
 11
9.22748
 21
863.755
  0
LINE
  8
0
 10
9.22748
 20
863.755
 11
9.37117
 21
863.529
  0
LINE
  8
0
 10
9.37117
 20
863.529
 11
9.48534
 21
863.286
  0
LINE
  8
0
 10
9.48534
 20
863.286
 11
9.56821
 21
863.031
  0
LINE
  8
0
 10
9.56821
 20
863.031
 11
9.61845
 21
862.768
  0
LINE
  8
0
 10
9.61845
 20
862.768
 11
9.63528
 21
862.5
  0
LINE
  8
0
 10
9.63528
 20
862.5
 11
9.61845
 21
862.232
  0
LINE
  8
0
 10
9.61845
 20
862.232
 11
9.56821
 21
861.969
  0
LINE
  8
0
 10
9.56821
 20
861.969
 11
9.48534
 21
861.714
  0
LINE
  8
0
 10
9.48534
 20
861.714
 11
9.37117
 21
861.471
  0
LINE
  8
0
 10
9.37117
 20
861.471
 11
9.22748
 21
861.245
  0
LINE
  8
0
 10
9.22748
 20
861.245
 11
9.05655
 21
861.038
  0
LINE
  8
0
 10
9.05655
 20
861.038
 11
8.86108
 21
860.855
  0
LINE
  8
0
 10
8.86108
 20
860.855
 11
8.64413
 21
860.697
  0
LINE
  8
0
 10
8.64413
 20
860.697
 11
8.40915
 21
860.568
  0
LINE
  8
0
 10
8.40915
 20
860.568
 11
8.15984
 21
860.469
  0
LINE
  8
0
 10
8.15984
 20
860.469
 11
7.9001
 21
860.403
  0
LINE
  8
0
 10
7.9001
 20
860.403
 11
7.63406
 21
860.369
  0
LINE
  8
0
 10
7.63406
 20
860.369
 11
7.36592
 21
860.369
  0
LINE
  8
0
 10
-7.63406
 20
860.369
 11
-7.9001
 21
860.403
  0
LINE
  8
0
 10
-7.9001
 20
860.403
 11
-8.15984
 21
860.469
  0
LINE
  8
0
 10
-8.15984
 20
860.469
 11
-8.40915
 21
860.568
  0
LINE
  8
0
 10
-8.40915
 20
860.568
 11
-8.64413
 21
860.697
  0
LINE
  8
0
 10
-8.64413
 20
860.697
 11
-8.86108
 21
860.855
  0
LINE
  8
0
 10
-8.86108
 20
860.855
 11
-9.05655
 21
861.038
  0
LINE
  8
0
 10
-9.05655
 20
861.038
 11
-9.22748
 21
861.245
  0
LINE
  8
0
 10
-9.22748
 20
861.245
 11
-9.37117
 21
861.471
  0
LINE
  8
0
 10
-9.37117
 20
861.471
 11
-9.48534
 21
861.714
  0
LINE
  8
0
 10
-9.48534
 20
861.714
 11
-9.56821
 21
861.969
  0
LINE
  8
0
 10
-9.56821
 20
861.969
 11
-9.61845
 21
862.232
  0
LINE
  8
0
 10
-9.61845
 20
862.232
 11
-9.63528
 21
862.5
  0
LINE
  8
0
 10
-9.63528
 20
862.5
 11
-9.61845
 21
862.768
  0
LINE
  8
0
 10
-9.61845
 20
862.768
 11
-9.56821
 21
863.031
  0
LINE
  8
0
 10
-9.56821
 20
863.031
 11
-9.48534
 21
863.286
  0
LINE
  8
0
 10
-9.48534
 20
863.286
 11
-9.37117
 21
863.529
  0
LINE
  8
0
 10
-9.37117
 20
863.529
 11
-9.22748
 21
863.755
  0
LINE
  8
0
 10
-9.22748
 20
863.755
 11
-9.05655
 21
863.962
  0
LINE
  8
0
 10
-9.05655
 20
863.962
 11
-8.86108
 21
864.145
  0
LINE
  8
0
 10
-8.86108
 20
864.145
 11
-8.64413
 21
864.303
  0
LINE
  8
0
 10
-8.64413
 20
864.303
 11
-8.40915
 21
864.432
  0
LINE
  8
0
 10
-8.40915
 20
864.432
 11
-8.15984
 21
864.531
  0
LINE
  8
0
 10
-8.15984
 20
864.531
 11
-7.9001
 21
864.597
  0
LINE
  8
0
 10
-7.9001
 20
864.597
 11
-7.63406
 21
864.631
  0
LINE
  8
0
 10
-7.63406
 20
864.631
 11
-7.36592
 21
864.631
  0
LINE
  8
0
 10
-7.36592
 20
864.631
 11
-7.09988
 21
864.597
  0
LINE
  8
0
 10
-7.09988
 20
864.597
 11
-6.84015
 21
864.531
  0
LINE
  8
0
 10
-6.84015
 20
864.531
 11
-6.59084
 21
864.432
  0
LINE
  8
0
 10
-6.59084
 20
864.432
 11
-6.35585
 21
864.303
  0
LINE
  8
0
 10
-6.35585
 20
864.303
 11
-6.1389
 21
864.145
  0
LINE
  8
0
 10
-6.1389
 20
864.145
 11
-5.94344
 21
863.962
  0
LINE
  8
0
 10
-5.94344
 20
863.962
 11
-5.77251
 21
863.755
  0
LINE
  8
0
 10
-5.77251
 20
863.755
 11
-5.62881
 21
863.529
  0
LINE
  8
0
 10
-5.62881
 20
863.529
 11
-5.51465
 21
863.286
  0
LINE
  8
0
 10
-5.51465
 20
863.286
 11
-5.43178
 21
863.031
  0
LINE
  8
0
 10
-5.43178
 20
863.031
 11
-5.38153
 21
862.768
  0
LINE
  8
0
 10
-5.38153
 20
862.768
 11
-5.3647
 21
862.5
  0
LINE
  8
0
 10
-5.3647
 20
862.5
 11
-5.38153
 21
862.232
  0
LINE
  8
0
 10
-5.38153
 20
862.232
 11
-5.43178
 21
861.969
  0
LINE
  8
0
 10
-5.43178
 20
861.969
 11
-5.51465
 21
861.714
  0
LINE
  8
0
 10
-5.51465
 20
861.714
 11
-5.62881
 21
861.471
  0
LINE
  8
0
 10
-5.62881
 20
861.471
 11
-5.77251
 21
861.245
  0
LINE
  8
0
 10
-5.77251
 20
861.245
 11
-5.94344
 21
861.038
  0
LINE
  8
0
 10
-5.94344
 20
861.038
 11
-6.1389
 21
860.855
  0
LINE
  8
0
 10
-6.1389
 20
860.855
 11
-6.35585
 21
860.697
  0
LINE
  8
0
 10
-6.35585
 20
860.697
 11
-6.59084
 21
860.568
  0
LINE
  8
0
 10
-6.59084
 20
860.568
 11
-6.84015
 21
860.469
  0
LINE
  8
0
 10
-6.84015
 20
860.469
 11
-7.09988
 21
860.403
  0
LINE
  8
0
 10
-7.09988
 20
860.403
 11
-7.36592
 21
860.369
  0
LINE
  8
0
 10
-7.36592
 20
860.369
 11
-7.63406
 21
860.369
  0
LINE
  8
0
 10
7.36592
 20
725.369
 11
7.09988
 21
725.403
  0
LINE
  8
0
 10
7.09988
 20
725.403
 11
6.84015
 21
725.469
  0
LINE
  8
0
 10
6.84015
 20
725.469
 11
6.59084
 21
725.568
  0
LINE
  8
0
 10
6.59084
 20
725.568
 11
6.35585
 21
725.697
  0
LINE
  8
0
 10
6.35585
 20
725.697
 11
6.1389
 21
725.855
  0
LINE
  8
0
 10
6.1389
 20
725.855
 11
5.94344
 21
726.038
  0
LINE
  8
0
 10
5.94344
 20
726.038
 11
5.77251
 21
726.245
  0
LINE
  8
0
 10
5.77251
 20
726.245
 11
5.62881
 21
726.471
  0
LINE
  8
0
 10
5.62881
 20
726.471
 11
5.51465
 21
726.714
  0
LINE
  8
0
 10
5.51465
 20
726.714
 11
5.43178
 21
726.969
  0
LINE
  8
0
 10
5.43178
 20
726.969
 11
5.38153
 21
727.232
  0
LINE
  8
0
 10
5.38153
 20
727.232
 11
5.3647
 21
727.5
  0
LINE
  8
0
 10
5.3647
 20
727.5
 11
5.38153
 21
727.768
  0
LINE
  8
0
 10
5.38153
 20
727.768
 11
5.43178
 21
728.031
  0
LINE
  8
0
 10
5.43178
 20
728.031
 11
5.51465
 21
728.286
  0
LINE
  8
0
 10
5.51465
 20
728.286
 11
5.62881
 21
728.529
  0
LINE
  8
0
 10
5.62881
 20
728.529
 11
5.77251
 21
728.755
  0
LINE
  8
0
 10
5.77251
 20
728.755
 11
5.94344
 21
728.962
  0
LINE
  8
0
 10
5.94344
 20
728.962
 11
6.1389
 21
729.145
  0
LINE
  8
0
 10
6.1389
 20
729.145
 11
6.35585
 21
729.303
  0
LINE
  8
0
 10
6.35585
 20
729.303
 11
6.59084
 21
729.432
  0
LINE
  8
0
 10
6.59084
 20
729.432
 11
6.84015
 21
729.531
  0
LINE
  8
0
 10
6.84015
 20
729.531
 11
7.09988
 21
729.597
  0
LINE
  8
0
 10
7.09988
 20
729.597
 11
7.36592
 21
729.631
  0
LINE
  8
0
 10
7.36592
 20
729.631
 11
7.63406
 21
729.631
  0
LINE
  8
0
 10
7.63406
 20
729.631
 11
7.9001
 21
729.597
  0
LINE
  8
0
 10
7.9001
 20
729.597
 11
8.15984
 21
729.531
  0
LINE
  8
0
 10
8.15984
 20
729.531
 11
8.40915
 21
729.432
  0
LINE
  8
0
 10
8.40915
 20
729.432
 11
8.64413
 21
729.303
  0
LINE
  8
0
 10
8.64413
 20
729.303
 11
8.86108
 21
729.145
  0
LINE
  8
0
 10
8.86108
 20
729.145
 11
9.05655
 21
728.962
  0
LINE
  8
0
 10
9.05655
 20
728.962
 11
9.22748
 21
728.755
  0
LINE
  8
0
 10
9.22748
 20
728.755
 11
9.37117
 21
728.529
  0
LINE
  8
0
 10
9.37117
 20
728.529
 11
9.48534
 21
728.286
  0
LINE
  8
0
 10
9.48534
 20
728.286
 11
9.56821
 21
728.031
  0
LINE
  8
0
 10
9.56821
 20
728.031
 11
9.61845
 21
727.768
  0
LINE
  8
0
 10
9.61845
 20
727.768
 11
9.63528
 21
727.5
  0
LINE
  8
0
 10
9.63528
 20
727.5
 11
9.61845
 21
727.232
  0
LINE
  8
0
 10
9.61845
 20
727.232
 11
9.56821
 21
726.969
  0
LINE
  8
0
 10
9.56821
 20
726.969
 11
9.48534
 21
726.714
  0
LINE
  8
0
 10
9.48534
 20
726.714
 11
9.37117
 21
726.471
  0
LINE
  8
0
 10
9.37117
 20
726.471
 11
9.22748
 21
726.245
  0
LINE
  8
0
 10
9.22748
 20
726.245
 11
9.05655
 21
726.038
  0
LINE
  8
0
 10
9.05655
 20
726.038
 11
8.86108
 21
725.855
  0
LINE
  8
0
 10
8.86108
 20
725.855
 11
8.64413
 21
725.697
  0
LINE
  8
0
 10
8.64413
 20
725.697
 11
8.40915
 21
725.568
  0
LINE
  8
0
 10
8.40915
 20
725.568
 11
8.15984
 21
725.469
  0
LINE
  8
0
 10
8.15984
 20
725.469
 11
7.9001
 21
725.403
  0
LINE
  8
0
 10
7.9001
 20
725.403
 11
7.63406
 21
725.369
  0
LINE
  8
0
 10
7.63406
 20
725.369
 11
7.36592
 21
725.369
  0
LINE
  8
0
 10
-7.63406
 20
725.369
 11
-7.9001
 21
725.403
  0
LINE
  8
0
 10
-7.9001
 20
725.403
 11
-8.15984
 21
725.469
  0
LINE
  8
0
 10
-8.15984
 20
725.469
 11
-8.40915
 21
725.568
  0
LINE
  8
0
 10
-8.40915
 20
725.568
 11
-8.64413
 21
725.697
  0
LINE
  8
0
 10
-8.64413
 20
725.697
 11
-8.86108
 21
725.855
  0
LINE
  8
0
 10
-8.86108
 20
725.855
 11
-9.05655
 21
726.038
  0
LINE
  8
0
 10
-9.05655
 20
726.038
 11
-9.22748
 21
726.245
  0
LINE
  8
0
 10
-9.22748
 20
726.245
 11
-9.37117
 21
726.471
  0
LINE
  8
0
 10
-9.37117
 20
726.471
 11
-9.48534
 21
726.714
  0
LINE
  8
0
 10
-9.48534
 20
726.714
 11
-9.56821
 21
726.969
  0
LINE
  8
0
 10
-9.56821
 20
726.969
 11
-9.61845
 21
727.232
  0
LINE
  8
0
 10
-9.61845
 20
727.232
 11
-9.63528
 21
727.5
  0
LINE
  8
0
 10
-9.63528
 20
727.5
 11
-9.61845
 21
727.768
  0
LINE
  8
0
 10
-9.61845
 20
727.768
 11
-9.56821
 21
728.031
  0
LINE
  8
0
 10
-9.56821
 20
728.031
 11
-9.48534
 21
728.286
  0
LINE
  8
0
 10
-9.48534
 20
728.286
 11
-9.37117
 21
728.529
  0
LINE
  8
0
 10
-9.37117
 20
728.529
 11
-9.22748
 21
728.755
  0
LINE
  8
0
 10
-9.22748
 20
728.755
 11
-9.05655
 21
728.962
  0
LINE
  8
0
 10
-9.05655
 20
728.962
 11
-8.86108
 21
729.145
  0
LINE
  8
0
 10
-8.86108
 20
729.145
 11
-8.64413
 21
729.303
  0
LINE
  8
0
 10
-8.64413
 20
729.303
 11
-8.40915
 21
729.432
  0
LINE
  8
0
 10
-8.40915
 20
729.432
 11
-8.15984
 21
729.531
  0
LINE
  8
0
 10
-8.15984
 20
729.531
 11
-7.9001
 21
729.597
  0
LINE
  8
0
 10
-7.9001
 20
729.597
 11
-7.63406
 21
729.631
  0
LINE
  8
0
 10
-7.63406
 20
729.631
 11
-7.36592
 21
729.631
  0
LINE
  8
0
 10
-7.36592
 20
729.631
 11
-7.09988
 21
729.597
  0
LINE
  8
0
 10
-7.09988
 20
729.597
 11
-6.84015
 21
729.531
  0
LINE
  8
0
 10
-6.84015
 20
729.531
 11
-6.59084
 21
729.432
  0
LINE
  8
0
 10
-6.59084
 20
729.432
 11
-6.35585
 21
729.303
  0
LINE
  8
0
 10
-6.35585
 20
729.303
 11
-6.1389
 21
729.145
  0
LINE
  8
0
 10
-6.1389
 20
729.145
 11
-5.94344
 21
728.962
  0
LINE
  8
0
 10
-5.94344
 20
728.962
 11
-5.77251
 21
728.755
  0
LINE
  8
0
 10
-5.77251
 20
728.755
 11
-5.62881
 21
728.529
  0
LINE
  8
0
 10
-5.62881
 20
728.529
 11
-5.51465
 21
728.286
  0
LINE
  8
0
 10
-5.51465
 20
728.286
 11
-5.43178
 21
728.031
  0
LINE
  8
0
 10
-5.43178
 20
728.031
 11
-5.38153
 21
727.768
  0
LINE
  8
0
 10
-5.38153
 20
727.768
 11
-5.3647
 21
727.5
  0
LINE
  8
0
 10
-5.3647
 20
727.5
 11
-5.38153
 21
727.232
  0
LINE
  8
0
 10
-5.38153
 20
727.232
 11
-5.43178
 21
726.969
  0
LINE
  8
0
 10
-5.43178
 20
726.969
 11
-5.51465
 21
726.714
  0
LINE
  8
0
 10
-5.51465
 20
726.714
 11
-5.62881
 21
726.471
  0
LINE
  8
0
 10
-5.62881
 20
726.471
 11
-5.77251
 21
726.245
  0
LINE
  8
0
 10
-5.77251
 20
726.245
 11
-5.94344
 21
726.038
  0
LINE
  8
0
 10
-5.94344
 20
726.038
 11
-6.1389
 21
725.855
  0
LINE
  8
0
 10
-6.1389
 20
725.855
 11
-6.35585
 21
725.697
  0
LINE
  8
0
 10
-6.35585
 20
725.697
 11
-6.59084
 21
725.568
  0
LINE
  8
0
 10
-6.59084
 20
725.568
 11
-6.84015
 21
725.469
  0
LINE
  8
0
 10
-6.84015
 20
725.469
 11
-7.09988
 21
725.403
  0
LINE
  8
0
 10
-7.09988
 20
725.403
 11
-7.36592
 21
725.369
  0
LINE
  8
0
 10
-7.36592
 20
725.369
 11
-7.63406
 21
725.369
  0
ENDSEC
  0
SECTION
  2
OBJECTS
  0
DICTIONARY
  0
ENDSEC
  0
EOF
