  0
SECTION
  2
BLOCKS
  0
ENDSEC
  0
SECTION
  2
ENTITIES
  0
LINE
  8
0
 10
18.4369
 20
456.089
 11
19.0451
 21
456.245
  0
LINE
  8
0
 10
19.0451
 20
456.245
 11
19.6289
 21
456.476
  0
LINE
  8
0
 10
19.6289
 20
456.476
 11
20.1791
 21
456.778
  0
LINE
  8
0
 10
20.1791
 20
456.778
 11
20.6871
 21
457.147
  0
LINE
  8
0
 10
20.6871
 20
457.147
 11
21.1448
 21
457.577
  0
LINE
  8
0
 10
21.1448
 20
457.577
 11
21.5451
 21
458.061
  0
LINE
  8
0
 10
21.5451
 20
458.061
 11
21.8815
 21
458.591
  0
LINE
  8
0
 10
21.8815
 20
458.591
 11
22.1489
 21
459.159
  0
LINE
  8
0
 10
22.1489
 20
459.159
 11
22.3429
 21
459.757
  0
LINE
  8
0
 10
22.3429
 20
459.757
 11
22.4606
 21
460.373
  0
LINE
  8
0
 10
22.4606
 20
460.373
 11
22.5
 21
461
  0
LINE
  8
0
 10
22.5
 20
461
 11
22.5
 21
571
  0
LINE
  8
0
 10
22.5
 20
571
 11
22.4606
 21
571.627
  0
LINE
  8
0
 10
22.4606
 20
571.627
 11
22.3429
 21
572.243
  0
LINE
  8
0
 10
22.3429
 20
572.243
 11
22.1489
 21
572.841
  0
LINE
  8
0
 10
22.1489
 20
572.841
 11
21.8815
 21
573.409
  0
LINE
  8
0
 10
21.8815
 20
573.409
 11
21.5451
 21
573.939
  0
LINE
  8
0
 10
21.5451
 20
573.939
 11
21.1448
 21
574.423
  0
LINE
  8
0
 10
21.1448
 20
574.423
 11
20.6871
 21
574.853
  0
LINE
  8
0
 10
20.6871
 20
574.853
 11
20.1791
 21
575.222
  0
LINE
  8
0
 10
20.1791
 20
575.222
 11
19.6289
 21
575.524
  0
LINE
  8
0
 10
19.6289
 20
575.524
 11
19.0451
 21
575.755
  0
LINE
  8
0
 10
19.0451
 20
575.755
 11
18.4369
 21
575.911
  0
LINE
  8
0
 10
18.4369
 20
575.911
 11
17.8139
 21
575.99
  0
LINE
  8
0
 10
17.8139
 20
575.99
 11
-17.8139
 21
575.99
  0
LINE
  8
0
 10
-17.8139
 20
575.99
 11
-18.4369
 21
575.911
  0
LINE
  8
0
 10
-18.4369
 20
575.911
 11
-19.0451
 21
575.755
  0
LINE
  8
0
 10
-19.0451
 20
575.755
 11
-19.6289
 21
575.524
  0
LINE
  8
0
 10
-19.6289
 20
575.524
 11
-20.1791
 21
575.222
  0
LINE
  8
0
 10
-20.1791
 20
575.222
 11
-20.6871
 21
574.853
  0
LINE
  8
0
 10
-20.6871
 20
574.853
 11
-21.1448
 21
574.423
  0
LINE
  8
0
 10
-21.1448
 20
574.423
 11
-21.5451
 21
573.939
  0
LINE
  8
0
 10
-21.5451
 20
573.939
 11
-21.8815
 21
573.409
  0
LINE
  8
0
 10
-21.8815
 20
573.409
 11
-22.1489
 21
572.841
  0
LINE
  8
0
 10
-22.1489
 20
572.841
 11
-22.3429
 21
572.243
  0
LINE
  8
0
 10
-22.3429
 20
572.243
 11
-22.4606
 21
571.627
  0
LINE
  8
0
 10
-22.4606
 20
571.627
 11
-22.5
 21
571
  0
LINE
  8
0
 10
-22.5
 20
571
 11
-22.5
 21
461
  0
LINE
  8
0
 10
-22.5
 20
461
 11
-22.4606
 21
460.373
  0
LINE
  8
0
 10
-22.4606
 20
460.373
 11
-22.3429
 21
459.757
  0
LINE
  8
0
 10
-22.3429
 20
459.757
 11
-22.1489
 21
459.159
  0
LINE
  8
0
 10
-22.1489
 20
459.159
 11
-21.8815
 21
458.591
  0
LINE
  8
0
 10
-21.8815
 20
458.591
 11
-21.5451
 21
458.061
  0
LINE
  8
0
 10
-21.5451
 20
458.061
 11
-21.1448
 21
457.577
  0
LINE
  8
0
 10
-21.1448
 20
457.577
 11
-20.6871
 21
457.147
  0
LINE
  8
0
 10
-20.6871
 20
457.147
 11
-20.1791
 21
456.778
  0
LINE
  8
0
 10
-20.1791
 20
456.778
 11
-19.6289
 21
456.476
  0
LINE
  8
0
 10
-19.6289
 20
456.476
 11
-19.0451
 21
456.245
  0
LINE
  8
0
 10
-19.0451
 20
456.245
 11
-18.4369
 21
456.089
  0
LINE
  8
0
 10
-18.4369
 20
456.089
 11
-17.8139
 21
456.01
  0
LINE
  8
0
 10
-17.8139
 20
456.01
 11
17.8139
 21
456.01
  0
LINE
  8
0
 10
17.8139
 20
456.01
 11
18.4369
 21
456.089
  0
LINE
  8
0
 10
-17.2432
 20
457.635
 11
-17.7256
 21
457.696
  0
LINE
  8
0
 10
-17.7256
 20
457.696
 11
-18.1967
 21
457.817
  0
LINE
  8
0
 10
-18.1967
 20
457.817
 11
-18.6489
 21
457.996
  0
LINE
  8
0
 10
-18.6489
 20
457.996
 11
-19.0751
 21
458.23
  0
LINE
  8
0
 10
-19.0751
 20
458.23
 11
-19.4685
 21
458.516
  0
LINE
  8
0
 10
-19.4685
 20
458.516
 11
-19.823
 21
458.849
  0
LINE
  8
0
 10
-19.823
 20
458.849
 11
-20.133
 21
459.224
  0
LINE
  8
0
 10
-20.133
 20
459.224
 11
-20.3936
 21
459.634
  0
LINE
  8
0
 10
-20.3936
 20
459.634
 11
-20.6007
 21
460.074
  0
LINE
  8
0
 10
-20.6007
 20
460.074
 11
-20.751
 21
460.537
  0
LINE
  8
0
 10
-20.751
 20
460.537
 11
-20.8421
 21
461.015
  0
LINE
  8
0
 10
-20.8421
 20
461.015
 11
-20.8726
 21
461.5
  0
LINE
  8
0
 10
-20.8726
 20
461.5
 11
-20.8726
 21
570.5
  0
LINE
  8
0
 10
-20.8726
 20
570.5
 11
-20.8421
 21
570.985
  0
LINE
  8
0
 10
-20.8421
 20
570.985
 11
-20.751
 21
571.463
  0
LINE
  8
0
 10
-20.751
 20
571.463
 11
-20.6007
 21
571.926
  0
LINE
  8
0
 10
-20.6007
 20
571.926
 11
-20.3936
 21
572.366
  0
LINE
  8
0
 10
-20.3936
 20
572.366
 11
-20.133
 21
572.776
  0
LINE
  8
0
 10
-20.133
 20
572.776
 11
-19.823
 21
573.151
  0
LINE
  8
0
 10
-19.823
 20
573.151
 11
-19.4685
 21
573.484
  0
LINE
  8
0
 10
-19.4685
 20
573.484
 11
-19.0751
 21
573.77
  0
LINE
  8
0
 10
-19.0751
 20
573.77
 11
-18.6489
 21
574.004
  0
LINE
  8
0
 10
-18.6489
 20
574.004
 11
-18.1967
 21
574.183
  0
LINE
  8
0
 10
-18.1967
 20
574.183
 11
-17.7256
 21
574.304
  0
LINE
  8
0
 10
-17.7256
 20
574.304
 11
-17.2432
 21
574.365
  0
LINE
  8
0
 10
-17.2432
 20
574.365
 11
17.2432
 21
574.365
  0
LINE
  8
0
 10
17.2432
 20
574.365
 11
17.7256
 21
574.304
  0
LINE
  8
0
 10
17.7256
 20
574.304
 11
18.1967
 21
574.183
  0
LINE
  8
0
 10
18.1967
 20
574.183
 11
18.6489
 21
574.004
  0
LINE
  8
0
 10
18.6489
 20
574.004
 11
19.0751
 21
573.77
  0
LINE
  8
0
 10
19.0751
 20
573.77
 11
19.4685
 21
573.484
  0
LINE
  8
0
 10
19.4685
 20
573.484
 11
19.823
 21
573.151
  0
LINE
  8
0
 10
19.823
 20
573.151
 11
20.133
 21
572.776
  0
LINE
  8
0
 10
20.133
 20
572.776
 11
20.3936
 21
572.366
  0
LINE
  8
0
 10
20.3936
 20
572.366
 11
20.6007
 21
571.926
  0
LINE
  8
0
 10
20.6007
 20
571.926
 11
20.751
 21
571.463
  0
LINE
  8
0
 10
20.751
 20
571.463
 11
20.8421
 21
570.985
  0
LINE
  8
0
 10
20.8421
 20
570.985
 11
20.8726
 21
570.5
  0
LINE
  8
0
 10
20.8726
 20
570.5
 11
20.8726
 21
461.5
  0
LINE
  8
0
 10
20.8726
 20
461.5
 11
20.8421
 21
461.015
  0
LINE
  8
0
 10
20.8421
 20
461.015
 11
20.751
 21
460.537
  0
LINE
  8
0
 10
20.751
 20
460.537
 11
20.6007
 21
460.074
  0
LINE
  8
0
 10
20.6007
 20
460.074
 11
20.3936
 21
459.634
  0
LINE
  8
0
 10
20.3936
 20
459.634
 11
20.133
 21
459.224
  0
LINE
  8
0
 10
20.133
 20
459.224
 11
19.823
 21
458.849
  0
LINE
  8
0
 10
19.823
 20
458.849
 11
19.4685
 21
458.516
  0
LINE
  8
0
 10
19.4685
 20
458.516
 11
19.0751
 21
458.23
  0
LINE
  8
0
 10
19.0751
 20
458.23
 11
18.6489
 21
457.996
  0
LINE
  8
0
 10
18.6489
 20
457.996
 11
18.1967
 21
457.817
  0
LINE
  8
0
 10
18.1967
 20
457.817
 11
17.7256
 21
457.696
  0
LINE
  8
0
 10
17.7256
 20
457.696
 11
17.2432
 21
457.635
  0
LINE
  8
0
 10
17.2432
 20
457.635
 11
-17.2432
 21
457.635
  0
LINE
  8
0
 10
18.4369
 20
327.089
 11
19.0451
 21
327.245
  0
LINE
  8
0
 10
19.0451
 20
327.245
 11
19.6289
 21
327.476
  0
LINE
  8
0
 10
19.6289
 20
327.476
 11
20.1791
 21
327.778
  0
LINE
  8
0
 10
20.1791
 20
327.778
 11
20.6871
 21
328.147
  0
LINE
  8
0
 10
20.6871
 20
328.147
 11
21.1448
 21
328.577
  0
LINE
  8
0
 10
21.1448
 20
328.577
 11
21.5451
 21
329.061
  0
LINE
  8
0
 10
21.5451
 20
329.061
 11
21.8815
 21
329.591
  0
LINE
  8
0
 10
21.8815
 20
329.591
 11
22.1489
 21
330.159
  0
LINE
  8
0
 10
22.1489
 20
330.159
 11
22.3429
 21
330.757
  0
LINE
  8
0
 10
22.3429
 20
330.757
 11
22.4606
 21
331.373
  0
LINE
  8
0
 10
22.4606
 20
331.373
 11
22.5
 21
332
  0
LINE
  8
0
 10
22.5
 20
332
 11
22.5
 21
442
  0
LINE
  8
0
 10
22.5
 20
442
 11
22.4606
 21
442.627
  0
LINE
  8
0
 10
22.4606
 20
442.627
 11
22.3429
 21
443.243
  0
LINE
  8
0
 10
22.3429
 20
443.243
 11
22.1489
 21
443.841
  0
LINE
  8
0
 10
22.1489
 20
443.841
 11
21.8815
 21
444.409
  0
LINE
  8
0
 10
21.8815
 20
444.409
 11
21.5451
 21
444.939
  0
LINE
  8
0
 10
21.5451
 20
444.939
 11
21.1448
 21
445.423
  0
LINE
  8
0
 10
21.1448
 20
445.423
 11
20.6871
 21
445.853
  0
LINE
  8
0
 10
20.6871
 20
445.853
 11
20.1791
 21
446.222
  0
LINE
  8
0
 10
20.1791
 20
446.222
 11
19.6289
 21
446.524
  0
LINE
  8
0
 10
19.6289
 20
446.524
 11
19.0451
 21
446.755
  0
LINE
  8
0
 10
19.0451
 20
446.755
 11
18.4369
 21
446.911
  0
LINE
  8
0
 10
18.4369
 20
446.911
 11
17.8139
 21
446.99
  0
LINE
  8
0
 10
17.8139
 20
446.99
 11
-17.8139
 21
446.99
  0
LINE
  8
0
 10
-17.8139
 20
446.99
 11
-18.4369
 21
446.911
  0
LINE
  8
0
 10
-18.4369
 20
446.911
 11
-19.0451
 21
446.755
  0
LINE
  8
0
 10
-19.0451
 20
446.755
 11
-19.6289
 21
446.524
  0
LINE
  8
0
 10
-19.6289
 20
446.524
 11
-20.1791
 21
446.222
  0
LINE
  8
0
 10
-20.1791
 20
446.222
 11
-20.6871
 21
445.853
  0
LINE
  8
0
 10
-20.6871
 20
445.853
 11
-21.1448
 21
445.423
  0
LINE
  8
0
 10
-21.1448
 20
445.423
 11
-21.5451
 21
444.939
  0
LINE
  8
0
 10
-21.5451
 20
444.939
 11
-21.8815
 21
444.409
  0
LINE
  8
0
 10
-21.8815
 20
444.409
 11
-22.1489
 21
443.841
  0
LINE
  8
0
 10
-22.1489
 20
443.841
 11
-22.3429
 21
443.243
  0
LINE
  8
0
 10
-22.3429
 20
443.243
 11
-22.4606
 21
442.627
  0
LINE
  8
0
 10
-22.4606
 20
442.627
 11
-22.5
 21
442
  0
LINE
  8
0
 10
-22.5
 20
442
 11
-22.5
 21
332
  0
LINE
  8
0
 10
-22.5
 20
332
 11
-22.4606
 21
331.373
  0
LINE
  8
0
 10
-22.4606
 20
331.373
 11
-22.3429
 21
330.757
  0
LINE
  8
0
 10
-22.3429
 20
330.757
 11
-22.1489
 21
330.159
  0
LINE
  8
0
 10
-22.1489
 20
330.159
 11
-21.8815
 21
329.591
  0
LINE
  8
0
 10
-21.8815
 20
329.591
 11
-21.5451
 21
329.061
  0
LINE
  8
0
 10
-21.5451
 20
329.061
 11
-21.1448
 21
328.577
  0
LINE
  8
0
 10
-21.1448
 20
328.577
 11
-20.6871
 21
328.147
  0
LINE
  8
0
 10
-20.6871
 20
328.147
 11
-20.1791
 21
327.778
  0
LINE
  8
0
 10
-20.1791
 20
327.778
 11
-19.6289
 21
327.476
  0
LINE
  8
0
 10
-19.6289
 20
327.476
 11
-19.0451
 21
327.245
  0
LINE
  8
0
 10
-19.0451
 20
327.245
 11
-18.4369
 21
327.089
  0
LINE
  8
0
 10
-18.4369
 20
327.089
 11
-17.8139
 21
327.01
  0
LINE
  8
0
 10
-17.8139
 20
327.01
 11
17.8139
 21
327.01
  0
LINE
  8
0
 10
17.8139
 20
327.01
 11
18.4369
 21
327.089
  0
LINE
  8
0
 10
18.4369
 20
198.089
 11
19.0451
 21
198.245
  0
LINE
  8
0
 10
19.0451
 20
198.245
 11
19.6289
 21
198.476
  0
LINE
  8
0
 10
19.6289
 20
198.476
 11
20.1791
 21
198.778
  0
LINE
  8
0
 10
20.1791
 20
198.778
 11
20.6871
 21
199.147
  0
LINE
  8
0
 10
20.6871
 20
199.147
 11
21.1448
 21
199.577
  0
LINE
  8
0
 10
21.1448
 20
199.577
 11
21.5451
 21
200.061
  0
LINE
  8
0
 10
21.5451
 20
200.061
 11
21.8815
 21
200.591
  0
LINE
  8
0
 10
21.8815
 20
200.591
 11
22.1489
 21
201.159
  0
LINE
  8
0
 10
22.1489
 20
201.159
 11
22.3429
 21
201.757
  0
LINE
  8
0
 10
22.3429
 20
201.757
 11
22.4606
 21
202.373
  0
LINE
  8
0
 10
22.4606
 20
202.373
 11
22.5
 21
203
  0
LINE
  8
0
 10
22.5
 20
203
 11
22.5
 21
313
  0
LINE
  8
0
 10
22.5
 20
313
 11
22.4606
 21
313.627
  0
LINE
  8
0
 10
22.4606
 20
313.627
 11
22.3429
 21
314.243
  0
LINE
  8
0
 10
22.3429
 20
314.243
 11
22.1489
 21
314.841
  0
LINE
  8
0
 10
22.1489
 20
314.841
 11
21.8815
 21
315.409
  0
LINE
  8
0
 10
21.8815
 20
315.409
 11
21.5451
 21
315.939
  0
LINE
  8
0
 10
21.5451
 20
315.939
 11
21.1448
 21
316.423
  0
LINE
  8
0
 10
21.1448
 20
316.423
 11
20.6871
 21
316.853
  0
LINE
  8
0
 10
20.6871
 20
316.853
 11
20.1791
 21
317.222
  0
LINE
  8
0
 10
20.1791
 20
317.222
 11
19.6289
 21
317.524
  0
LINE
  8
0
 10
19.6289
 20
317.524
 11
19.0451
 21
317.755
  0
LINE
  8
0
 10
19.0451
 20
317.755
 11
18.4369
 21
317.911
  0
LINE
  8
0
 10
18.4369
 20
317.911
 11
17.8139
 21
317.99
  0
LINE
  8
0
 10
17.8139
 20
317.99
 11
-17.8139
 21
317.99
  0
LINE
  8
0
 10
-17.8139
 20
317.99
 11
-18.4369
 21
317.911
  0
LINE
  8
0
 10
-18.4369
 20
317.911
 11
-19.0451
 21
317.755
  0
LINE
  8
0
 10
-19.0451
 20
317.755
 11
-19.6289
 21
317.524
  0
LINE
  8
0
 10
-19.6289
 20
317.524
 11
-20.1791
 21
317.222
  0
LINE
  8
0
 10
-20.1791
 20
317.222
 11
-20.6871
 21
316.853
  0
LINE
  8
0
 10
-20.6871
 20
316.853
 11
-21.1448
 21
316.423
  0
LINE
  8
0
 10
-21.1448
 20
316.423
 11
-21.5451
 21
315.939
  0
LINE
  8
0
 10
-21.5451
 20
315.939
 11
-21.8815
 21
315.409
  0
LINE
  8
0
 10
-21.8815
 20
315.409
 11
-22.1489
 21
314.841
  0
LINE
  8
0
 10
-22.1489
 20
314.841
 11
-22.3429
 21
314.243
  0
LINE
  8
0
 10
-22.3429
 20
314.243
 11
-22.4606
 21
313.627
  0
LINE
  8
0
 10
-22.4606
 20
313.627
 11
-22.5
 21
313
  0
LINE
  8
0
 10
-22.5
 20
313
 11
-22.5
 21
203
  0
LINE
  8
0
 10
-22.5
 20
203
 11
-22.4606
 21
202.373
  0
LINE
  8
0
 10
-22.4606
 20
202.373
 11
-22.3429
 21
201.757
  0
LINE
  8
0
 10
-22.3429
 20
201.757
 11
-22.1489
 21
201.159
  0
LINE
  8
0
 10
-22.1489
 20
201.159
 11
-21.8815
 21
200.591
  0
LINE
  8
0
 10
-21.8815
 20
200.591
 11
-21.5451
 21
200.061
  0
LINE
  8
0
 10
-21.5451
 20
200.061
 11
-21.1448
 21
199.577
  0
LINE
  8
0
 10
-21.1448
 20
199.577
 11
-20.6871
 21
199.147
  0
LINE
  8
0
 10
-20.6871
 20
199.147
 11
-20.1791
 21
198.778
  0
LINE
  8
0
 10
-20.1791
 20
198.778
 11
-19.6289
 21
198.476
  0
LINE
  8
0
 10
-19.6289
 20
198.476
 11
-19.0451
 21
198.245
  0
LINE
  8
0
 10
-19.0451
 20
198.245
 11
-18.4369
 21
198.089
  0
LINE
  8
0
 10
-18.4369
 20
198.089
 11
-17.8139
 21
198.01
  0
LINE
  8
0
 10
-17.8139
 20
198.01
 11
17.8139
 21
198.01
  0
LINE
  8
0
 10
17.8139
 20
198.01
 11
18.4369
 21
198.089
  0
LINE
  8
0
 10
14.887
 20
308.704
 11
14.6627
 21
308.732
  0
LINE
  8
0
 10
14.6627
 20
308.732
 11
14.4438
 21
308.788
  0
LINE
  8
0
 10
14.4438
 20
308.788
 11
14.2336
 21
308.871
  0
LINE
  8
0
 10
14.2336
 20
308.871
 11
14.0355
 21
308.98
  0
LINE
  8
0
 10
14.0355
 20
308.98
 11
13.8526
 21
309.113
  0
LINE
  8
0
 10
13.8526
 20
309.113
 11
13.6879
 21
309.268
  0
LINE
  8
0
 10
13.6879
 20
309.268
 11
13.5438
 21
309.442
  0
LINE
  8
0
 10
13.5438
 20
309.442
 11
13.4226
 21
309.633
  0
LINE
  8
0
 10
13.4226
 20
309.633
 11
13.3264
 21
309.837
  0
LINE
  8
0
 10
13.3264
 20
309.837
 11
13.2565
 21
310.052
  0
LINE
  8
0
 10
13.2565
 20
310.052
 11
13.2142
 21
310.274
  0
LINE
  8
0
 10
13.2142
 20
310.274
 11
13.2
 21
310.5
  0
LINE
  8
0
 10
13.2
 20
310.5
 11
13.2142
 21
310.726
  0
LINE
  8
0
 10
13.2142
 20
310.726
 11
13.2565
 21
310.948
  0
LINE
  8
0
 10
13.2565
 20
310.948
 11
13.3264
 21
311.163
  0
LINE
  8
0
 10
13.3264
 20
311.163
 11
13.4226
 21
311.367
  0
LINE
  8
0
 10
13.4226
 20
311.367
 11
13.5438
 21
311.558
  0
LINE
  8
0
 10
13.5438
 20
311.558
 11
13.6879
 21
311.732
  0
LINE
  8
0
 10
13.6879
 20
311.732
 11
13.8526
 21
311.887
  0
LINE
  8
0
 10
13.8526
 20
311.887
 11
14.0355
 21
312.02
  0
LINE
  8
0
 10
14.0355
 20
312.02
 11
14.2336
 21
312.129
  0
LINE
  8
0
 10
14.2336
 20
312.129
 11
14.4438
 21
312.212
  0
LINE
  8
0
 10
14.4438
 20
312.212
 11
14.6627
 21
312.268
  0
LINE
  8
0
 10
14.6627
 20
312.268
 11
14.887
 21
312.296
  0
LINE
  8
0
 10
14.887
 20
312.296
 11
15.113
 21
312.296
  0
LINE
  8
0
 10
15.113
 20
312.296
 11
15.3373
 21
312.268
  0
LINE
  8
0
 10
15.3373
 20
312.268
 11
15.5562
 21
312.212
  0
LINE
  8
0
 10
15.5562
 20
312.212
 11
15.7664
 21
312.129
  0
LINE
  8
0
 10
15.7664
 20
312.129
 11
15.9645
 21
312.02
  0
LINE
  8
0
 10
15.9645
 20
312.02
 11
16.1474
 21
311.887
  0
LINE
  8
0
 10
16.1474
 20
311.887
 11
16.3121
 21
311.732
  0
LINE
  8
0
 10
16.3121
 20
311.732
 11
16.4562
 21
311.558
  0
LINE
  8
0
 10
16.4562
 20
311.558
 11
16.5773
 21
311.367
  0
LINE
  8
0
 10
16.5773
 20
311.367
 11
16.6736
 21
311.163
  0
LINE
  8
0
 10
16.6736
 20
311.163
 11
16.7434
 21
310.948
  0
LINE
  8
0
 10
16.7434
 20
310.948
 11
16.7858
 21
310.726
  0
LINE
  8
0
 10
16.7858
 20
310.726
 11
16.8
 21
310.5
  0
LINE
  8
0
 10
16.8
 20
310.5
 11
16.7858
 21
310.274
  0
LINE
  8
0
 10
16.7858
 20
310.274
 11
16.7434
 21
310.052
  0
LINE
  8
0
 10
16.7434
 20
310.052
 11
16.6736
 21
309.837
  0
LINE
  8
0
 10
16.6736
 20
309.837
 11
16.5773
 21
309.633
  0
LINE
  8
0
 10
16.5773
 20
309.633
 11
16.4562
 21
309.442
  0
LINE
  8
0
 10
16.4562
 20
309.442
 11
16.3121
 21
309.268
  0
LINE
  8
0
 10
16.3121
 20
309.268
 11
16.1474
 21
309.113
  0
LINE
  8
0
 10
16.1474
 20
309.113
 11
15.9645
 21
308.98
  0
LINE
  8
0
 10
15.9645
 20
308.98
 11
15.7664
 21
308.871
  0
LINE
  8
0
 10
15.7664
 20
308.871
 11
15.5562
 21
308.788
  0
LINE
  8
0
 10
15.5562
 20
308.788
 11
15.3373
 21
308.732
  0
LINE
  8
0
 10
15.3373
 20
308.732
 11
15.113
 21
308.704
  0
LINE
  8
0
 10
15.113
 20
308.704
 11
14.887
 21
308.704
  0
LINE
  8
0
 10
-15.113
 20
308.704
 11
-15.3373
 21
308.732
  0
LINE
  8
0
 10
-15.3373
 20
308.732
 11
-15.5562
 21
308.788
  0
LINE
  8
0
 10
-15.5562
 20
308.788
 11
-15.7664
 21
308.871
  0
LINE
  8
0
 10
-15.7664
 20
308.871
 11
-15.9645
 21
308.98
  0
LINE
  8
0
 10
-15.9645
 20
308.98
 11
-16.1474
 21
309.113
  0
LINE
  8
0
 10
-16.1474
 20
309.113
 11
-16.3121
 21
309.268
  0
LINE
  8
0
 10
-16.3121
 20
309.268
 11
-16.4562
 21
309.442
  0
LINE
  8
0
 10
-16.4562
 20
309.442
 11
-16.5773
 21
309.633
  0
LINE
  8
0
 10
-16.5773
 20
309.633
 11
-16.6736
 21
309.837
  0
LINE
  8
0
 10
-16.6736
 20
309.837
 11
-16.7434
 21
310.052
  0
LINE
  8
0
 10
-16.7434
 20
310.052
 11
-16.7858
 21
310.274
  0
LINE
  8
0
 10
-16.7858
 20
310.274
 11
-16.8
 21
310.5
  0
LINE
  8
0
 10
-16.8
 20
310.5
 11
-16.7858
 21
310.726
  0
LINE
  8
0
 10
-16.7858
 20
310.726
 11
-16.7434
 21
310.948
  0
LINE
  8
0
 10
-16.7434
 20
310.948
 11
-16.6736
 21
311.163
  0
LINE
  8
0
 10
-16.6736
 20
311.163
 11
-16.5773
 21
311.367
  0
LINE
  8
0
 10
-16.5773
 20
311.367
 11
-16.4562
 21
311.558
  0
LINE
  8
0
 10
-16.4562
 20
311.558
 11
-16.3121
 21
311.732
  0
LINE
  8
0
 10
-16.3121
 20
311.732
 11
-16.1474
 21
311.887
  0
LINE
  8
0
 10
-16.1474
 20
311.887
 11
-15.9645
 21
312.02
  0
LINE
  8
0
 10
-15.9645
 20
312.02
 11
-15.7664
 21
312.129
  0
LINE
  8
0
 10
-15.7664
 20
312.129
 11
-15.5562
 21
312.212
  0
LINE
  8
0
 10
-15.5562
 20
312.212
 11
-15.3373
 21
312.268
  0
LINE
  8
0
 10
-15.3373
 20
312.268
 11
-15.113
 21
312.296
  0
LINE
  8
0
 10
-15.113
 20
312.296
 11
-14.887
 21
312.296
  0
LINE
  8
0
 10
-14.887
 20
312.296
 11
-14.6627
 21
312.268
  0
LINE
  8
0
 10
-14.6627
 20
312.268
 11
-14.4438
 21
312.212
  0
LINE
  8
0
 10
-14.4438
 20
312.212
 11
-14.2336
 21
312.129
  0
LINE
  8
0
 10
-14.2336
 20
312.129
 11
-14.0355
 21
312.02
  0
LINE
  8
0
 10
-14.0355
 20
312.02
 11
-13.8526
 21
311.887
  0
LINE
  8
0
 10
-13.8526
 20
311.887
 11
-13.6879
 21
311.732
  0
LINE
  8
0
 10
-13.6879
 20
311.732
 11
-13.5438
 21
311.558
  0
LINE
  8
0
 10
-13.5438
 20
311.558
 11
-13.4226
 21
311.367
  0
LINE
  8
0
 10
-13.4226
 20
311.367
 11
-13.3264
 21
311.163
  0
LINE
  8
0
 10
-13.3264
 20
311.163
 11
-13.2565
 21
310.948
  0
LINE
  8
0
 10
-13.2565
 20
310.948
 11
-13.2142
 21
310.726
  0
LINE
  8
0
 10
-13.2142
 20
310.726
 11
-13.2
 21
310.5
  0
LINE
  8
0
 10
-13.2
 20
310.5
 11
-13.2142
 21
310.274
  0
LINE
  8
0
 10
-13.2142
 20
310.274
 11
-13.2565
 21
310.052
  0
LINE
  8
0
 10
-13.2565
 20
310.052
 11
-13.3264
 21
309.837
  0
LINE
  8
0
 10
-13.3264
 20
309.837
 11
-13.4226
 21
309.633
  0
LINE
  8
0
 10
-13.4226
 20
309.633
 11
-13.5438
 21
309.442
  0
LINE
  8
0
 10
-13.5438
 20
309.442
 11
-13.6879
 21
309.268
  0
LINE
  8
0
 10
-13.6879
 20
309.268
 11
-13.8526
 21
309.113
  0
LINE
  8
0
 10
-13.8526
 20
309.113
 11
-14.0355
 21
308.98
  0
LINE
  8
0
 10
-14.0355
 20
308.98
 11
-14.2336
 21
308.871
  0
LINE
  8
0
 10
-14.2336
 20
308.871
 11
-14.4438
 21
308.788
  0
LINE
  8
0
 10
-14.4438
 20
308.788
 11
-14.6627
 21
308.732
  0
LINE
  8
0
 10
-14.6627
 20
308.732
 11
-14.887
 21
308.704
  0
LINE
  8
0
 10
-14.887
 20
308.704
 11
-15.113
 21
308.704
  0
LINE
  8
0
 10
-15.113
 20
203.704
 11
-15.3373
 21
203.732
  0
LINE
  8
0
 10
-15.3373
 20
203.732
 11
-15.5562
 21
203.788
  0
LINE
  8
0
 10
-15.5562
 20
203.788
 11
-15.7664
 21
203.871
  0
LINE
  8
0
 10
-15.7664
 20
203.871
 11
-15.9645
 21
203.98
  0
LINE
  8
0
 10
-15.9645
 20
203.98
 11
-16.1474
 21
204.113
  0
LINE
  8
0
 10
-16.1474
 20
204.113
 11
-16.3121
 21
204.268
  0
LINE
  8
0
 10
-16.3121
 20
204.268
 11
-16.4562
 21
204.442
  0
LINE
  8
0
 10
-16.4562
 20
204.442
 11
-16.5773
 21
204.633
  0
LINE
  8
0
 10
-16.5773
 20
204.633
 11
-16.6736
 21
204.837
  0
LINE
  8
0
 10
-16.6736
 20
204.837
 11
-16.7434
 21
205.052
  0
LINE
  8
0
 10
-16.7434
 20
205.052
 11
-16.7858
 21
205.274
  0
LINE
  8
0
 10
-16.7858
 20
205.274
 11
-16.8
 21
205.5
  0
LINE
  8
0
 10
-16.8
 20
205.5
 11
-16.7858
 21
205.726
  0
LINE
  8
0
 10
-16.7858
 20
205.726
 11
-16.7434
 21
205.948
  0
LINE
  8
0
 10
-16.7434
 20
205.948
 11
-16.6736
 21
206.163
  0
LINE
  8
0
 10
-16.6736
 20
206.163
 11
-16.5773
 21
206.367
  0
LINE
  8
0
 10
-16.5773
 20
206.367
 11
-16.4562
 21
206.558
  0
LINE
  8
0
 10
-16.4562
 20
206.558
 11
-16.3121
 21
206.732
  0
LINE
  8
0
 10
-16.3121
 20
206.732
 11
-16.1474
 21
206.887
  0
LINE
  8
0
 10
-16.1474
 20
206.887
 11
-15.9645
 21
207.02
  0
LINE
  8
0
 10
-15.9645
 20
207.02
 11
-15.7664
 21
207.129
  0
LINE
  8
0
 10
-15.7664
 20
207.129
 11
-15.5562
 21
207.212
  0
LINE
  8
0
 10
-15.5562
 20
207.212
 11
-15.3373
 21
207.268
  0
LINE
  8
0
 10
-15.3373
 20
207.268
 11
-15.113
 21
207.296
  0
LINE
  8
0
 10
-15.113
 20
207.296
 11
-14.887
 21
207.296
  0
LINE
  8
0
 10
-14.887
 20
207.296
 11
-14.6627
 21
207.268
  0
LINE
  8
0
 10
-14.6627
 20
207.268
 11
-14.4438
 21
207.212
  0
LINE
  8
0
 10
-14.4438
 20
207.212
 11
-14.2336
 21
207.129
  0
LINE
  8
0
 10
-14.2336
 20
207.129
 11
-14.0355
 21
207.02
  0
LINE
  8
0
 10
-14.0355
 20
207.02
 11
-13.8526
 21
206.887
  0
LINE
  8
0
 10
-13.8526
 20
206.887
 11
-13.6879
 21
206.732
  0
LINE
  8
0
 10
-13.6879
 20
206.732
 11
-13.5438
 21
206.558
  0
LINE
  8
0
 10
-13.5438
 20
206.558
 11
-13.4226
 21
206.367
  0
LINE
  8
0
 10
-13.4226
 20
206.367
 11
-13.3264
 21
206.163
  0
LINE
  8
0
 10
-13.3264
 20
206.163
 11
-13.2565
 21
205.948
  0
LINE
  8
0
 10
-13.2565
 20
205.948
 11
-13.2142
 21
205.726
  0
LINE
  8
0
 10
-13.2142
 20
205.726
 11
-13.2
 21
205.5
  0
LINE
  8
0
 10
-13.2
 20
205.5
 11
-13.2142
 21
205.274
  0
LINE
  8
0
 10
-13.2142
 20
205.274
 11
-13.2565
 21
205.052
  0
LINE
  8
0
 10
-13.2565
 20
205.052
 11
-13.3264
 21
204.837
  0
LINE
  8
0
 10
-13.3264
 20
204.837
 11
-13.4226
 21
204.633
  0
LINE
  8
0
 10
-13.4226
 20
204.633
 11
-13.5438
 21
204.442
  0
LINE
  8
0
 10
-13.5438
 20
204.442
 11
-13.6879
 21
204.268
  0
LINE
  8
0
 10
-13.6879
 20
204.268
 11
-13.8526
 21
204.113
  0
LINE
  8
0
 10
-13.8526
 20
204.113
 11
-14.0355
 21
203.98
  0
LINE
  8
0
 10
-14.0355
 20
203.98
 11
-14.2336
 21
203.871
  0
LINE
  8
0
 10
-14.2336
 20
203.871
 11
-14.4438
 21
203.788
  0
LINE
  8
0
 10
-14.4438
 20
203.788
 11
-14.6627
 21
203.732
  0
LINE
  8
0
 10
-14.6627
 20
203.732
 11
-14.887
 21
203.704
  0
LINE
  8
0
 10
-14.887
 20
203.704
 11
-15.113
 21
203.704
  0
LINE
  8
0
 10
14.887
 20
203.704
 11
14.6627
 21
203.732
  0
LINE
  8
0
 10
14.6627
 20
203.732
 11
14.4438
 21
203.788
  0
LINE
  8
0
 10
14.4438
 20
203.788
 11
14.2336
 21
203.871
  0
LINE
  8
0
 10
14.2336
 20
203.871
 11
14.0355
 21
203.98
  0
LINE
  8
0
 10
14.0355
 20
203.98
 11
13.8526
 21
204.113
  0
LINE
  8
0
 10
13.8526
 20
204.113
 11
13.6879
 21
204.268
  0
LINE
  8
0
 10
13.6879
 20
204.268
 11
13.5438
 21
204.442
  0
LINE
  8
0
 10
13.5438
 20
204.442
 11
13.4226
 21
204.633
  0
LINE
  8
0
 10
13.4226
 20
204.633
 11
13.3264
 21
204.837
  0
LINE
  8
0
 10
13.3264
 20
204.837
 11
13.2565
 21
205.052
  0
LINE
  8
0
 10
13.2565
 20
205.052
 11
13.2142
 21
205.274
  0
LINE
  8
0
 10
13.2142
 20
205.274
 11
13.2
 21
205.5
  0
LINE
  8
0
 10
13.2
 20
205.5
 11
13.2142
 21
205.726
  0
LINE
  8
0
 10
13.2142
 20
205.726
 11
13.2565
 21
205.948
  0
LINE
  8
0
 10
13.2565
 20
205.948
 11
13.3264
 21
206.163
  0
LINE
  8
0
 10
13.3264
 20
206.163
 11
13.4226
 21
206.367
  0
LINE
  8
0
 10
13.4226
 20
206.367
 11
13.5438
 21
206.558
  0
LINE
  8
0
 10
13.5438
 20
206.558
 11
13.6879
 21
206.732
  0
LINE
  8
0
 10
13.6879
 20
206.732
 11
13.8526
 21
206.887
  0
LINE
  8
0
 10
13.8526
 20
206.887
 11
14.0355
 21
207.02
  0
LINE
  8
0
 10
14.0355
 20
207.02
 11
14.2336
 21
207.129
  0
LINE
  8
0
 10
14.2336
 20
207.129
 11
14.4438
 21
207.212
  0
LINE
  8
0
 10
14.4438
 20
207.212
 11
14.6627
 21
207.268
  0
LINE
  8
0
 10
14.6627
 20
207.268
 11
14.887
 21
207.296
  0
LINE
  8
0
 10
14.887
 20
207.296
 11
15.113
 21
207.296
  0
LINE
  8
0
 10
15.113
 20
207.296
 11
15.3373
 21
207.268
  0
LINE
  8
0
 10
15.3373
 20
207.268
 11
15.5562
 21
207.212
  0
LINE
  8
0
 10
15.5562
 20
207.212
 11
15.7664
 21
207.129
  0
LINE
  8
0
 10
15.7664
 20
207.129
 11
15.9645
 21
207.02
  0
LINE
  8
0
 10
15.9645
 20
207.02
 11
16.1474
 21
206.887
  0
LINE
  8
0
 10
16.1474
 20
206.887
 11
16.3121
 21
206.732
  0
LINE
  8
0
 10
16.3121
 20
206.732
 11
16.4562
 21
206.558
  0
LINE
  8
0
 10
16.4562
 20
206.558
 11
16.5773
 21
206.367
  0
LINE
  8
0
 10
16.5773
 20
206.367
 11
16.6736
 21
206.163
  0
LINE
  8
0
 10
16.6736
 20
206.163
 11
16.7434
 21
205.948
  0
LINE
  8
0
 10
16.7434
 20
205.948
 11
16.7858
 21
205.726
  0
LINE
  8
0
 10
16.7858
 20
205.726
 11
16.8
 21
205.5
  0
LINE
  8
0
 10
16.8
 20
205.5
 11
16.7858
 21
205.274
  0
LINE
  8
0
 10
16.7858
 20
205.274
 11
16.7434
 21
205.052
  0
LINE
  8
0
 10
16.7434
 20
205.052
 11
16.6736
 21
204.837
  0
LINE
  8
0
 10
16.6736
 20
204.837
 11
16.5773
 21
204.633
  0
LINE
  8
0
 10
16.5773
 20
204.633
 11
16.4562
 21
204.442
  0
LINE
  8
0
 10
16.4562
 20
204.442
 11
16.3121
 21
204.268
  0
LINE
  8
0
 10
16.3121
 20
204.268
 11
16.1474
 21
204.113
  0
LINE
  8
0
 10
16.1474
 20
204.113
 11
15.9645
 21
203.98
  0
LINE
  8
0
 10
15.9645
 20
203.98
 11
15.7664
 21
203.871
  0
LINE
  8
0
 10
15.7664
 20
203.871
 11
15.5562
 21
203.788
  0
LINE
  8
0
 10
15.5562
 20
203.788
 11
15.3373
 21
203.732
  0
LINE
  8
0
 10
15.3373
 20
203.732
 11
15.113
 21
203.704
  0
LINE
  8
0
 10
15.113
 20
203.704
 11
14.887
 21
203.704
  0
ENDSEC
  0
SECTION
  2
OBJECTS
  0
DICTIONARY
  0
ENDSEC
  0
EOF
