<?xml version="1.0" standalone="no"?>
<!DOCTYPE svg PUBLIC "-//W3C//DTD SVG 1.1//EN" "http://www.w3.org/Graphics/SVG/1.1/DTD/svg11.dtd">
<svg width="46mm" height="936mm" viewBox="-23 -1791 46 936" xmlns="http://www.w3.org/2000/svg" version="1.1">
<title>OpenSCAD Model</title>
<path d="
M 18.4369,-1611.09 L 19.0451,-1611.24 L 19.6289,-1611.48 L 20.1791,-1611.78 L 20.6871,-1612.15 L 21.1448,-1612.58
 L 21.5451,-1613.06 L 21.8815,-1613.59 L 22.1489,-1614.16 L 22.3429,-1614.76 L 22.4606,-1615.37 L 22.5,-1616
 L 22.5,-1786 L 22.4606,-1786.63 L 22.3429,-1787.24 L 22.1489,-1787.84 L 21.8815,-1788.41 L 21.5451,-1788.94
 L 21.1448,-1789.42 L 20.6871,-1789.85 L 20.1791,-1790.22 L 19.6289,-1790.52 L 19.0451,-1790.76 L 18.4369,-1790.91
 L 17.8139,-1790.99 L -17.8139,-1790.99 L -18.4369,-1790.91 L -19.0451,-1790.76 L -19.6289,-1790.52 L -20.1791,-1790.22
 L -20.6871,-1789.85 L -21.1448,-1789.42 L -21.5451,-1788.94 L -21.8815,-1788.41 L -22.1489,-1787.84 L -22.3429,-1787.24
 L -22.4606,-1786.63 L -22.5,-1786 L -22.5,-1616 L -22.4606,-1615.37 L -22.3429,-1614.76 L -22.1489,-1614.16
 L -21.8815,-1613.59 L -21.5451,-1613.06 L -21.1448,-1612.58 L -20.6871,-1612.15 L -20.1791,-1611.78 L -19.6289,-1611.48
 L -19.0451,-1611.24 L -18.4369,-1611.09 L -17.8139,-1611.01 L 17.8139,-1611.01 z
M -17.2512,-1612.51 L -17.7495,-1612.57 L -18.2361,-1612.7 L -18.7031,-1612.88 L -19.1433,-1613.12 L -19.5497,-1613.42
 L -19.9159,-1613.76 L -20.2361,-1614.15 L -20.5052,-1614.57 L -20.7191,-1615.03 L -20.8743,-1615.51 L -20.9684,-1616
 L -21,-1616.5 L -21,-1785.5 L -20.9684,-1786 L -20.8743,-1786.49 L -20.7191,-1786.97 L -20.5052,-1787.43
 L -20.2361,-1787.85 L -19.9159,-1788.24 L -19.5497,-1788.58 L -19.1433,-1788.88 L -18.7031,-1789.12 L -18.2361,-1789.3
 L -17.7495,-1789.43 L -17.2512,-1789.49 L 17.2512,-1789.49 L 17.7495,-1789.43 L 18.2361,-1789.3 L 18.7031,-1789.12
 L 19.1433,-1788.88 L 19.5497,-1788.58 L 19.9159,-1788.24 L 20.2361,-1787.85 L 20.5052,-1787.43 L 20.7191,-1786.97
 L 20.8743,-1786.49 L 20.9684,-1786 L 21,-1785.5 L 21,-1616.5 L 20.9684,-1616 L 20.8743,-1615.51
 L 20.7191,-1615.03 L 20.5052,-1614.57 L 20.2361,-1614.15 L 19.9159,-1613.76 L 19.5497,-1613.42 L 19.1433,-1613.12
 L 18.7031,-1612.88 L 18.2361,-1612.7 L 17.7495,-1612.57 L 17.2512,-1612.51 z
M 18.4369,-1422.09 L 19.0451,-1422.24 L 19.6289,-1422.48 L 20.1791,-1422.78 L 20.6871,-1423.15 L 21.1448,-1423.58
 L 21.5451,-1424.06 L 21.8815,-1424.59 L 22.1489,-1425.16 L 22.3429,-1425.76 L 22.4606,-1426.37 L 22.5,-1427
 L 22.5,-1597 L 22.4606,-1597.63 L 22.3429,-1598.24 L 22.1489,-1598.84 L 21.8815,-1599.41 L 21.5451,-1599.94
 L 21.1448,-1600.42 L 20.6871,-1600.85 L 20.1791,-1601.22 L 19.6289,-1601.52 L 19.0451,-1601.76 L 18.4369,-1601.91
 L 17.8139,-1601.99 L -17.8139,-1601.99 L -18.4369,-1601.91 L -19.0451,-1601.76 L -19.6289,-1601.52 L -20.1791,-1601.22
 L -20.6871,-1600.85 L -21.1448,-1600.42 L -21.5451,-1599.94 L -21.8815,-1599.41 L -22.1489,-1598.84 L -22.3429,-1598.24
 L -22.4606,-1597.63 L -22.5,-1597 L -22.5,-1427 L -22.4606,-1426.37 L -22.3429,-1425.76 L -22.1489,-1425.16
 L -21.8815,-1424.59 L -21.5451,-1424.06 L -21.1448,-1423.58 L -20.6871,-1423.15 L -20.1791,-1422.78 L -19.6289,-1422.48
 L -19.0451,-1422.24 L -18.4369,-1422.09 L -17.8139,-1422.01 L 17.8139,-1422.01 z
M -17.2512,-1423.51 L -17.7495,-1423.57 L -18.2361,-1423.7 L -18.7031,-1423.88 L -19.1433,-1424.12 L -19.5497,-1424.42
 L -19.9159,-1424.76 L -20.2361,-1425.15 L -20.5052,-1425.57 L -20.7191,-1426.03 L -20.8743,-1426.51 L -20.9684,-1427
 L -21,-1427.5 L -21,-1596.5 L -20.9684,-1597 L -20.8743,-1597.49 L -20.7191,-1597.97 L -20.5052,-1598.43
 L -20.2361,-1598.85 L -19.9159,-1599.24 L -19.5497,-1599.58 L -19.1433,-1599.88 L -18.7031,-1600.12 L -18.2361,-1600.3
 L -17.7495,-1600.43 L -17.2512,-1600.49 L 17.2512,-1600.49 L 17.7495,-1600.43 L 18.2361,-1600.3 L 18.7031,-1600.12
 L 19.1433,-1599.88 L 19.5497,-1599.58 L 19.9159,-1599.24 L 20.2361,-1598.85 L 20.5052,-1598.43 L 20.7191,-1597.97
 L 20.8743,-1597.49 L 20.9684,-1597 L 21,-1596.5 L 21,-1427.5 L 20.9684,-1427 L 20.8743,-1426.51
 L 20.7191,-1426.03 L 20.5052,-1425.57 L 20.2361,-1425.15 L 19.9159,-1424.76 L 19.5497,-1424.42 L 19.1433,-1424.12
 L 18.7031,-1423.88 L 18.2361,-1423.7 L 17.7495,-1423.57 L 17.2512,-1423.51 z
M 18.4369,-1233.09 L 19.0451,-1233.24 L 19.6289,-1233.48 L 20.1791,-1233.78 L 20.6871,-1234.15 L 21.1448,-1234.58
 L 21.5451,-1235.06 L 21.8815,-1235.59 L 22.1489,-1236.16 L 22.3429,-1236.76 L 22.4606,-1237.37 L 22.5,-1238
 L 22.5,-1408 L 22.4606,-1408.63 L 22.3429,-1409.24 L 22.1489,-1409.84 L 21.8815,-1410.41 L 21.5451,-1410.94
 L 21.1448,-1411.42 L 20.6871,-1411.85 L 20.1791,-1412.22 L 19.6289,-1412.52 L 19.0451,-1412.76 L 18.4369,-1412.91
 L 17.8139,-1412.99 L -17.8139,-1412.99 L -18.4369,-1412.91 L -19.0451,-1412.76 L -19.6289,-1412.52 L -20.1791,-1412.22
 L -20.6871,-1411.85 L -21.1448,-1411.42 L -21.5451,-1410.94 L -21.8815,-1410.41 L -22.1489,-1409.84 L -22.3429,-1409.24
 L -22.4606,-1408.63 L -22.5,-1408 L -22.5,-1238 L -22.4606,-1237.37 L -22.3429,-1236.76 L -22.1489,-1236.16
 L -21.8815,-1235.59 L -21.5451,-1235.06 L -21.1448,-1234.58 L -20.6871,-1234.15 L -20.1791,-1233.78 L -19.6289,-1233.48
 L -19.0451,-1233.24 L -18.4369,-1233.09 L -17.8139,-1233.01 L 17.8139,-1233.01 z
M -17.2512,-1234.51 L -17.7495,-1234.57 L -18.2361,-1234.7 L -18.7031,-1234.88 L -19.1433,-1235.12 L -19.5497,-1235.42
 L -19.9159,-1235.76 L -20.2361,-1236.15 L -20.5052,-1236.57 L -20.7191,-1237.03 L -20.8743,-1237.51 L -20.9684,-1238
 L -21,-1238.5 L -21,-1407.5 L -20.9684,-1408 L -20.8743,-1408.49 L -20.7191,-1408.97 L -20.5052,-1409.43
 L -20.2361,-1409.85 L -19.9159,-1410.24 L -19.5497,-1410.58 L -19.1433,-1410.88 L -18.7031,-1411.12 L -18.2361,-1411.3
 L -17.7495,-1411.43 L -17.2512,-1411.49 L 17.2512,-1411.49 L 17.7495,-1411.43 L 18.2361,-1411.3 L 18.7031,-1411.12
 L 19.1433,-1410.88 L 19.5497,-1410.58 L 19.9159,-1410.24 L 20.2361,-1409.85 L 20.5052,-1409.43 L 20.7191,-1408.97
 L 20.8743,-1408.49 L 20.9684,-1408 L 21,-1407.5 L 21,-1238.5 L 20.9684,-1238 L 20.8743,-1237.51
 L 20.7191,-1237.03 L 20.5052,-1236.57 L 20.2361,-1236.15 L 19.9159,-1235.76 L 19.5497,-1235.42 L 19.1433,-1235.12
 L 18.7031,-1234.88 L 18.2361,-1234.7 L 17.7495,-1234.57 L 17.2512,-1234.51 z
M 18.4369,-1044.09 L 19.0451,-1044.24 L 19.6289,-1044.48 L 20.1791,-1044.78 L 20.6871,-1045.15 L 21.1448,-1045.58
 L 21.5451,-1046.06 L 21.8815,-1046.59 L 22.1489,-1047.16 L 22.3429,-1047.76 L 22.4606,-1048.37 L 22.5,-1049
 L 22.5,-1219 L 22.4606,-1219.63 L 22.3429,-1220.24 L 22.1489,-1220.84 L 21.8815,-1221.41 L 21.5451,-1221.94
 L 21.1448,-1222.42 L 20.6871,-1222.85 L 20.1791,-1223.22 L 19.6289,-1223.52 L 19.0451,-1223.76 L 18.4369,-1223.91
 L 17.8139,-1223.99 L -17.8139,-1223.99 L -18.4369,-1223.91 L -19.0451,-1223.76 L -19.6289,-1223.52 L -20.1791,-1223.22
 L -20.6871,-1222.85 L -21.1448,-1222.42 L -21.5451,-1221.94 L -21.8815,-1221.41 L -22.1489,-1220.84 L -22.3429,-1220.24
 L -22.4606,-1219.63 L -22.5,-1219 L -22.5,-1049 L -22.4606,-1048.37 L -22.3429,-1047.76 L -22.1489,-1047.16
 L -21.8815,-1046.59 L -21.5451,-1046.06 L -21.1448,-1045.58 L -20.6871,-1045.15 L -20.1791,-1044.78 L -19.6289,-1044.48
 L -19.0451,-1044.24 L -18.4369,-1044.09 L -17.8139,-1044.01 L 17.8139,-1044.01 z
M -17.1954,-1046.39 L -17.5833,-1046.44 L -17.9619,-1046.54 L -18.3254,-1046.68 L -18.668,-1046.87 L -18.9842,-1047.1
 L -19.2692,-1047.37 L -19.5184,-1047.67 L -19.7279,-1048 L -19.8943,-1048.35 L -20.0151,-1048.73 L -20.0884,-1049.11
 L -20.1129,-1049.5 L -20.1129,-1218.5 L -20.0884,-1218.89 L -20.0151,-1219.27 L -19.8943,-1219.65 L -19.7279,-1220
 L -19.5184,-1220.33 L -19.2692,-1220.63 L -18.9842,-1220.9 L -18.668,-1221.13 L -18.3254,-1221.32 L -17.9619,-1221.46
 L -17.5833,-1221.56 L -17.1954,-1221.61 L 17.1954,-1221.61 L 17.5833,-1221.56 L 17.9619,-1221.46 L 18.3254,-1221.32
 L 18.668,-1221.13 L 18.9842,-1220.9 L 19.2692,-1220.63 L 19.5184,-1220.33 L 19.7279,-1220 L 19.8943,-1219.65
 L 20.0151,-1219.27 L 20.0884,-1218.89 L 20.1129,-1218.5 L 20.1129,-1049.5 L 20.0884,-1049.11 L 20.0151,-1048.73
 L 19.8943,-1048.35 L 19.7279,-1048 L 19.5184,-1047.67 L 19.2692,-1047.37 L 18.9842,-1047.1 L 18.668,-1046.87
 L 18.3254,-1046.68 L 17.9619,-1046.54 L 17.5833,-1046.44 L 17.1954,-1046.39 z
M 18.4369,-855.089 L 19.0451,-855.245 L 19.6289,-855.476 L 20.1791,-855.778 L 20.6871,-856.147 L 21.1448,-856.577
 L 21.5451,-857.061 L 21.8815,-857.591 L 22.1489,-858.159 L 22.3429,-858.757 L 22.4606,-859.373 L 22.5,-860
 L 22.5,-1030 L 22.4606,-1030.63 L 22.3429,-1031.24 L 22.1489,-1031.84 L 21.8815,-1032.41 L 21.5451,-1032.94
 L 21.1448,-1033.42 L 20.6871,-1033.85 L 20.1791,-1034.22 L 19.6289,-1034.52 L 19.0451,-1034.76 L 18.4369,-1034.91
 L 17.8139,-1034.99 L -17.8139,-1034.99 L -18.4369,-1034.91 L -19.0451,-1034.76 L -19.6289,-1034.52 L -20.1791,-1034.22
 L -20.6871,-1033.85 L -21.1448,-1033.42 L -21.5451,-1032.94 L -21.8815,-1032.41 L -22.1489,-1031.84 L -22.3429,-1031.24
 L -22.4606,-1030.63 L -22.5,-1030 L -22.5,-860 L -22.4606,-859.373 L -22.3429,-858.757 L -22.1489,-858.159
 L -21.8815,-857.591 L -21.5451,-857.061 L -21.1448,-856.577 L -20.6871,-856.147 L -20.1791,-855.778 L -19.6289,-855.476
 L -19.0451,-855.245 L -18.4369,-855.089 L -17.8139,-855.01 L 17.8139,-855.01 z
M 14.8659,-1025.37 L 14.5999,-1025.4 L 14.3401,-1025.47 L 14.0908,-1025.57 L 13.8559,-1025.7 L 13.6389,-1025.85
 L 13.4434,-1026.04 L 13.2725,-1026.24 L 13.1288,-1026.47 L 13.0146,-1026.71 L 12.9318,-1026.97 L 12.8815,-1027.23
 L 12.8647,-1027.5 L 12.8815,-1027.77 L 12.9318,-1028.03 L 13.0146,-1028.29 L 13.1288,-1028.53 L 13.2725,-1028.76
 L 13.4434,-1028.96 L 13.6389,-1029.15 L 13.8559,-1029.3 L 14.0908,-1029.43 L 14.3401,-1029.53 L 14.5999,-1029.6
 L 14.8659,-1029.63 L 15.1341,-1029.63 L 15.4001,-1029.6 L 15.6598,-1029.53 L 15.9091,-1029.43 L 16.1441,-1029.3
 L 16.3611,-1029.15 L 16.5565,-1028.96 L 16.7275,-1028.76 L 16.8712,-1028.53 L 16.9853,-1028.29 L 17.0682,-1028.03
 L 17.1185,-1027.77 L 17.1353,-1027.5 L 17.1185,-1027.23 L 17.0682,-1026.97 L 16.9853,-1026.71 L 16.8712,-1026.47
 L 16.7275,-1026.24 L 16.5565,-1026.04 L 16.3611,-1025.85 L 16.1441,-1025.7 L 15.9091,-1025.57 L 15.6598,-1025.47
 L 15.4001,-1025.4 L 15.1341,-1025.37 z
M -15.1341,-1025.37 L -15.4001,-1025.4 L -15.6598,-1025.47 L -15.9091,-1025.57 L -16.1441,-1025.7 L -16.3611,-1025.85
 L -16.5565,-1026.04 L -16.7275,-1026.24 L -16.8712,-1026.47 L -16.9853,-1026.71 L -17.0682,-1026.97 L -17.1185,-1027.23
 L -17.1353,-1027.5 L -17.1185,-1027.77 L -17.0682,-1028.03 L -16.9853,-1028.29 L -16.8712,-1028.53 L -16.7275,-1028.76
 L -16.5565,-1028.96 L -16.3611,-1029.15 L -16.1441,-1029.3 L -15.9091,-1029.43 L -15.6598,-1029.53 L -15.4001,-1029.6
 L -15.1341,-1029.63 L -14.8659,-1029.63 L -14.5999,-1029.6 L -14.3401,-1029.53 L -14.0908,-1029.43 L -13.8559,-1029.3
 L -13.6389,-1029.15 L -13.4434,-1028.96 L -13.2725,-1028.76 L -13.1288,-1028.53 L -13.0146,-1028.29 L -12.9318,-1028.03
 L -12.8815,-1027.77 L -12.8647,-1027.5 L -12.8815,-1027.23 L -12.9318,-1026.97 L -13.0146,-1026.71 L -13.1288,-1026.47
 L -13.2725,-1026.24 L -13.4434,-1026.04 L -13.6389,-1025.85 L -13.8559,-1025.7 L -14.0908,-1025.57 L -14.3401,-1025.47
 L -14.5999,-1025.4 L -14.8659,-1025.37 z
M 14.8659,-860.369 L 14.5999,-860.403 L 14.3401,-860.469 L 14.0908,-860.568 L 13.8559,-860.697 L 13.6389,-860.855
 L 13.4434,-861.038 L 13.2725,-861.245 L 13.1288,-861.471 L 13.0146,-861.714 L 12.9318,-861.969 L 12.8815,-862.232
 L 12.8647,-862.5 L 12.8815,-862.768 L 12.9318,-863.031 L 13.0146,-863.286 L 13.1288,-863.529 L 13.2725,-863.755
 L 13.4434,-863.962 L 13.6389,-864.145 L 13.8559,-864.303 L 14.0908,-864.432 L 14.3401,-864.531 L 14.5999,-864.597
 L 14.8659,-864.631 L 15.1341,-864.631 L 15.4001,-864.597 L 15.6598,-864.531 L 15.9091,-864.432 L 16.1441,-864.303
 L 16.3611,-864.145 L 16.5565,-863.962 L 16.7275,-863.755 L 16.8712,-863.529 L 16.9853,-863.286 L 17.0682,-863.031
 L 17.1185,-862.768 L 17.1353,-862.5 L 17.1185,-862.232 L 17.0682,-861.969 L 16.9853,-861.714 L 16.8712,-861.471
 L 16.7275,-861.245 L 16.5565,-861.038 L 16.3611,-860.855 L 16.1441,-860.697 L 15.9091,-860.568 L 15.6598,-860.469
 L 15.4001,-860.403 L 15.1341,-860.369 z
M -15.1341,-860.369 L -15.4001,-860.403 L -15.6598,-860.469 L -15.9091,-860.568 L -16.1441,-860.697 L -16.3611,-860.855
 L -16.5565,-861.038 L -16.7275,-861.245 L -16.8712,-861.471 L -16.9853,-861.714 L -17.0682,-861.969 L -17.1185,-862.232
 L -17.1353,-862.5 L -17.1185,-862.768 L -17.0682,-863.031 L -16.9853,-863.286 L -16.8712,-863.529 L -16.7275,-863.755
 L -16.5565,-863.962 L -16.3611,-864.145 L -16.1441,-864.303 L -15.9091,-864.432 L -15.6598,-864.531 L -15.4001,-864.597
 L -15.1341,-864.631 L -14.8659,-864.631 L -14.5999,-864.597 L -14.3401,-864.531 L -14.0908,-864.432 L -13.8559,-864.303
 L -13.6389,-864.145 L -13.4434,-863.962 L -13.2725,-863.755 L -13.1288,-863.529 L -13.0146,-863.286 L -12.9318,-863.031
 L -12.8815,-862.768 L -12.8647,-862.5 L -12.8815,-862.232 L -12.9318,-861.969 L -13.0146,-861.714 L -13.1288,-861.471
 L -13.2725,-861.245 L -13.4434,-861.038 L -13.6389,-860.855 L -13.8559,-860.697 L -14.0908,-860.568 L -14.3401,-860.469
 L -14.5999,-860.403 L -14.8659,-860.369 z
" stroke="black" fill="lightgray" stroke-width="0.5"/>
</svg>
