  0
SECTION
  2
BLOCKS
  0
ENDSEC
  0
SECTION
  2
ENTITIES
  0
LINE
  8
0
 10
25.9369
 20
88.5886
 11
26.5451
 21
88.7447
  0
LINE
  8
0
 10
26.5451
 20
88.7447
 11
27.1289
 21
88.9759
  0
LINE
  8
0
 10
27.1289
 20
88.9759
 11
27.6791
 21
89.2784
  0
LINE
  8
0
 10
27.6791
 20
89.2784
 11
28.1871
 21
89.6474
  0
LINE
  8
0
 10
28.1871
 20
89.6474
 11
28.6448
 21
90.0773
  0
LINE
  8
0
 10
28.6448
 20
90.0773
 11
29.0451
 21
90.5611
  0
LINE
  8
0
 10
29.0451
 20
90.5611
 11
29.3815
 21
91.0912
  0
LINE
  8
0
 10
29.3815
 20
91.0912
 11
29.6489
 21
91.6594
  0
LINE
  8
0
 10
29.6489
 20
91.6594
 11
29.8429
 21
92.2566
  0
LINE
  8
0
 10
29.8429
 20
92.2566
 11
29.9606
 21
92.8733
  0
LINE
  8
0
 10
29.9606
 20
92.8733
 11
30
 21
93.5
  0
LINE
  8
0
 10
30
 20
93.5
 11
30
 21
98.5
  0
LINE
  8
0
 10
30
 20
98.5
 11
29.9606
 21
99.1267
  0
LINE
  8
0
 10
29.9606
 20
99.1267
 11
29.8429
 21
99.7434
  0
LINE
  8
0
 10
29.8429
 20
99.7434
 11
29.6489
 21
100.341
  0
LINE
  8
0
 10
29.6489
 20
100.341
 11
29.3815
 21
100.909
  0
LINE
  8
0
 10
29.3815
 20
100.909
 11
29.0451
 21
101.439
  0
LINE
  8
0
 10
29.0451
 20
101.439
 11
28.6448
 21
101.923
  0
LINE
  8
0
 10
28.6448
 20
101.923
 11
28.1871
 21
102.353
  0
LINE
  8
0
 10
28.1871
 20
102.353
 11
27.6791
 21
102.722
  0
LINE
  8
0
 10
27.6791
 20
102.722
 11
27.1289
 21
103.024
  0
LINE
  8
0
 10
27.1289
 20
103.024
 11
26.5451
 21
103.255
  0
LINE
  8
0
 10
26.5451
 20
103.255
 11
25.9369
 21
103.411
  0
LINE
  8
0
 10
25.9369
 20
103.411
 11
25.3139
 21
103.49
  0
LINE
  8
0
 10
25.3139
 20
103.49
 11
-25.3139
 21
103.49
  0
LINE
  8
0
 10
-25.3139
 20
103.49
 11
-25.9369
 21
103.411
  0
LINE
  8
0
 10
-25.9369
 20
103.411
 11
-26.5451
 21
103.255
  0
LINE
  8
0
 10
-26.5451
 20
103.255
 11
-27.1289
 21
103.024
  0
LINE
  8
0
 10
-27.1289
 20
103.024
 11
-27.6791
 21
102.722
  0
LINE
  8
0
 10
-27.6791
 20
102.722
 11
-28.1871
 21
102.353
  0
LINE
  8
0
 10
-28.1871
 20
102.353
 11
-28.6448
 21
101.923
  0
LINE
  8
0
 10
-28.6448
 20
101.923
 11
-29.0451
 21
101.439
  0
LINE
  8
0
 10
-29.0451
 20
101.439
 11
-29.3815
 21
100.909
  0
LINE
  8
0
 10
-29.3815
 20
100.909
 11
-29.6489
 21
100.341
  0
LINE
  8
0
 10
-29.6489
 20
100.341
 11
-29.8429
 21
99.7434
  0
LINE
  8
0
 10
-29.8429
 20
99.7434
 11
-29.9606
 21
99.1267
  0
LINE
  8
0
 10
-29.9606
 20
99.1267
 11
-30
 21
98.5
  0
LINE
  8
0
 10
-30
 20
98.5
 11
-30
 21
93.5
  0
LINE
  8
0
 10
-30
 20
93.5
 11
-29.9606
 21
92.8733
  0
LINE
  8
0
 10
-29.9606
 20
92.8733
 11
-29.8429
 21
92.2566
  0
LINE
  8
0
 10
-29.8429
 20
92.2566
 11
-29.6489
 21
91.6594
  0
LINE
  8
0
 10
-29.6489
 20
91.6594
 11
-29.3815
 21
91.0912
  0
LINE
  8
0
 10
-29.3815
 20
91.0912
 11
-29.0451
 21
90.5611
  0
LINE
  8
0
 10
-29.0451
 20
90.5611
 11
-28.6448
 21
90.0773
  0
LINE
  8
0
 10
-28.6448
 20
90.0773
 11
-28.1871
 21
89.6474
  0
LINE
  8
0
 10
-28.1871
 20
89.6474
 11
-27.6791
 21
89.2784
  0
LINE
  8
0
 10
-27.6791
 20
89.2784
 11
-27.1289
 21
88.9759
  0
LINE
  8
0
 10
-27.1289
 20
88.9759
 11
-26.5451
 21
88.7447
  0
LINE
  8
0
 10
-26.5451
 20
88.7447
 11
-25.9369
 21
88.5886
  0
LINE
  8
0
 10
-25.9369
 20
88.5886
 11
-25.3139
 21
88.5099
  0
LINE
  8
0
 10
-25.3139
 20
88.5099
 11
25.3139
 21
88.5099
  0
LINE
  8
0
 10
25.3139
 20
88.5099
 11
25.9369
 21
88.5886
  0
LINE
  8
0
 10
-25.0482
 20
89.0094
 11
-25.6401
 21
89.0841
  0
LINE
  8
0
 10
-25.6401
 20
89.0841
 11
-26.2178
 21
89.2325
  0
LINE
  8
0
 10
-26.2178
 20
89.2325
 11
-26.7724
 21
89.4521
  0
LINE
  8
0
 10
-26.7724
 20
89.4521
 11
-27.2952
 21
89.7395
  0
LINE
  8
0
 10
-27.2952
 20
89.7395
 11
-27.7778
 21
90.0901
  0
LINE
  8
0
 10
-27.7778
 20
90.0901
 11
-28.2126
 21
90.4984
  0
LINE
  8
0
 10
-28.2126
 20
90.4984
 11
-28.5928
 21
90.958
  0
LINE
  8
0
 10
-28.5928
 20
90.958
 11
-28.9124
 21
91.4617
  0
LINE
  8
0
 10
-28.9124
 20
91.4617
 11
-29.1664
 21
92.0014
  0
LINE
  8
0
 10
-29.1664
 20
92.0014
 11
-29.3508
 21
92.5687
  0
LINE
  8
0
 10
-29.3508
 20
92.5687
 11
-29.4625
 21
93.1547
  0
LINE
  8
0
 10
-29.4625
 20
93.1547
 11
-29.5
 21
93.75
  0
LINE
  8
0
 10
-29.5
 20
93.75
 11
-29.5
 21
98.25
  0
LINE
  8
0
 10
-29.5
 20
98.25
 11
-29.4625
 21
98.8453
  0
LINE
  8
0
 10
-29.4625
 20
98.8453
 11
-29.3508
 21
99.4313
  0
LINE
  8
0
 10
-29.3508
 20
99.4313
 11
-29.1664
 21
99.9986
  0
LINE
  8
0
 10
-29.1664
 20
99.9986
 11
-28.9124
 21
100.538
  0
LINE
  8
0
 10
-28.9124
 20
100.538
 11
-28.5928
 21
101.042
  0
LINE
  8
0
 10
-28.5928
 20
101.042
 11
-28.2126
 21
101.502
  0
LINE
  8
0
 10
-28.2126
 20
101.502
 11
-27.7778
 21
101.91
  0
LINE
  8
0
 10
-27.7778
 20
101.91
 11
-27.2952
 21
102.261
  0
LINE
  8
0
 10
-27.2952
 20
102.261
 11
-26.7724
 21
102.548
  0
LINE
  8
0
 10
-26.7724
 20
102.548
 11
-26.2178
 21
102.768
  0
LINE
  8
0
 10
-26.2178
 20
102.768
 11
-25.6401
 21
102.916
  0
LINE
  8
0
 10
-25.6401
 20
102.916
 11
-25.0482
 21
102.991
  0
LINE
  8
0
 10
-25.0482
 20
102.991
 11
25.0482
 21
102.991
  0
LINE
  8
0
 10
25.0482
 20
102.991
 11
25.6401
 21
102.916
  0
LINE
  8
0
 10
25.6401
 20
102.916
 11
26.2178
 21
102.768
  0
LINE
  8
0
 10
26.2178
 20
102.768
 11
26.7724
 21
102.548
  0
LINE
  8
0
 10
26.7724
 20
102.548
 11
27.2952
 21
102.261
  0
LINE
  8
0
 10
27.2952
 20
102.261
 11
27.7778
 21
101.91
  0
LINE
  8
0
 10
27.7778
 20
101.91
 11
28.2126
 21
101.502
  0
LINE
  8
0
 10
28.2126
 20
101.502
 11
28.5928
 21
101.042
  0
LINE
  8
0
 10
28.5928
 20
101.042
 11
28.9124
 21
100.538
  0
LINE
  8
0
 10
28.9124
 20
100.538
 11
29.1664
 21
99.9986
  0
LINE
  8
0
 10
29.1664
 20
99.9986
 11
29.3508
 21
99.4313
  0
LINE
  8
0
 10
29.3508
 20
99.4313
 11
29.4625
 21
98.8453
  0
LINE
  8
0
 10
29.4625
 20
98.8453
 11
29.5
 21
98.25
  0
LINE
  8
0
 10
29.5
 20
98.25
 11
29.5
 21
93.75
  0
LINE
  8
0
 10
29.5
 20
93.75
 11
29.4625
 21
93.1547
  0
LINE
  8
0
 10
29.4625
 20
93.1547
 11
29.3508
 21
92.5687
  0
LINE
  8
0
 10
29.3508
 20
92.5687
 11
29.1664
 21
92.0014
  0
LINE
  8
0
 10
29.1664
 20
92.0014
 11
28.9124
 21
91.4617
  0
LINE
  8
0
 10
28.9124
 20
91.4617
 11
28.5928
 21
90.958
  0
LINE
  8
0
 10
28.5928
 20
90.958
 11
28.2126
 21
90.4984
  0
LINE
  8
0
 10
28.2126
 20
90.4984
 11
27.7778
 21
90.0901
  0
LINE
  8
0
 10
27.7778
 20
90.0901
 11
27.2952
 21
89.7395
  0
LINE
  8
0
 10
27.2952
 20
89.7395
 11
26.7724
 21
89.4521
  0
LINE
  8
0
 10
26.7724
 20
89.4521
 11
26.2178
 21
89.2325
  0
LINE
  8
0
 10
26.2178
 20
89.2325
 11
25.6401
 21
89.0841
  0
LINE
  8
0
 10
25.6401
 20
89.0841
 11
25.0482
 21
89.0094
  0
LINE
  8
0
 10
25.0482
 20
89.0094
 11
-25.0482
 21
89.0094
  0
LINE
  8
0
 10
25.9369
 20
64.5886
 11
26.5451
 21
64.7447
  0
LINE
  8
0
 10
26.5451
 20
64.7447
 11
27.1289
 21
64.9759
  0
LINE
  8
0
 10
27.1289
 20
64.9759
 11
27.6791
 21
65.2784
  0
LINE
  8
0
 10
27.6791
 20
65.2784
 11
28.1871
 21
65.6474
  0
LINE
  8
0
 10
28.1871
 20
65.6474
 11
28.6448
 21
66.0773
  0
LINE
  8
0
 10
28.6448
 20
66.0773
 11
29.0451
 21
66.5611
  0
LINE
  8
0
 10
29.0451
 20
66.5611
 11
29.3815
 21
67.0912
  0
LINE
  8
0
 10
29.3815
 20
67.0912
 11
29.6489
 21
67.6594
  0
LINE
  8
0
 10
29.6489
 20
67.6594
 11
29.8429
 21
68.2566
  0
LINE
  8
0
 10
29.8429
 20
68.2566
 11
29.9606
 21
68.8733
  0
LINE
  8
0
 10
29.9606
 20
68.8733
 11
30
 21
69.5
  0
LINE
  8
0
 10
30
 20
69.5
 11
30
 21
74.5
  0
LINE
  8
0
 10
30
 20
74.5
 11
29.9606
 21
75.1267
  0
LINE
  8
0
 10
29.9606
 20
75.1267
 11
29.8429
 21
75.7434
  0
LINE
  8
0
 10
29.8429
 20
75.7434
 11
29.6489
 21
76.3406
  0
LINE
  8
0
 10
29.6489
 20
76.3406
 11
29.3815
 21
76.9088
  0
LINE
  8
0
 10
29.3815
 20
76.9088
 11
29.0451
 21
77.4389
  0
LINE
  8
0
 10
29.0451
 20
77.4389
 11
28.6448
 21
77.9227
  0
LINE
  8
0
 10
28.6448
 20
77.9227
 11
28.1871
 21
78.3526
  0
LINE
  8
0
 10
28.1871
 20
78.3526
 11
27.6791
 21
78.7216
  0
LINE
  8
0
 10
27.6791
 20
78.7216
 11
27.1289
 21
79.0241
  0
LINE
  8
0
 10
27.1289
 20
79.0241
 11
26.5451
 21
79.2553
  0
LINE
  8
0
 10
26.5451
 20
79.2553
 11
25.9369
 21
79.4114
  0
LINE
  8
0
 10
25.9369
 20
79.4114
 11
25.3139
 21
79.4901
  0
LINE
  8
0
 10
25.3139
 20
79.4901
 11
-25.3139
 21
79.4901
  0
LINE
  8
0
 10
-25.3139
 20
79.4901
 11
-25.9369
 21
79.4114
  0
LINE
  8
0
 10
-25.9369
 20
79.4114
 11
-26.5451
 21
79.2553
  0
LINE
  8
0
 10
-26.5451
 20
79.2553
 11
-27.1289
 21
79.0241
  0
LINE
  8
0
 10
-27.1289
 20
79.0241
 11
-27.6791
 21
78.7216
  0
LINE
  8
0
 10
-27.6791
 20
78.7216
 11
-28.1871
 21
78.3526
  0
LINE
  8
0
 10
-28.1871
 20
78.3526
 11
-28.6448
 21
77.9227
  0
LINE
  8
0
 10
-28.6448
 20
77.9227
 11
-29.0451
 21
77.4389
  0
LINE
  8
0
 10
-29.0451
 20
77.4389
 11
-29.3815
 21
76.9088
  0
LINE
  8
0
 10
-29.3815
 20
76.9088
 11
-29.6489
 21
76.3406
  0
LINE
  8
0
 10
-29.6489
 20
76.3406
 11
-29.8429
 21
75.7434
  0
LINE
  8
0
 10
-29.8429
 20
75.7434
 11
-29.9606
 21
75.1267
  0
LINE
  8
0
 10
-29.9606
 20
75.1267
 11
-30
 21
74.5
  0
LINE
  8
0
 10
-30
 20
74.5
 11
-30
 21
69.5
  0
LINE
  8
0
 10
-30
 20
69.5
 11
-29.9606
 21
68.8733
  0
LINE
  8
0
 10
-29.9606
 20
68.8733
 11
-29.8429
 21
68.2566
  0
LINE
  8
0
 10
-29.8429
 20
68.2566
 11
-29.6489
 21
67.6594
  0
LINE
  8
0
 10
-29.6489
 20
67.6594
 11
-29.3815
 21
67.0912
  0
LINE
  8
0
 10
-29.3815
 20
67.0912
 11
-29.0451
 21
66.5611
  0
LINE
  8
0
 10
-29.0451
 20
66.5611
 11
-28.6448
 21
66.0773
  0
LINE
  8
0
 10
-28.6448
 20
66.0773
 11
-28.1871
 21
65.6474
  0
LINE
  8
0
 10
-28.1871
 20
65.6474
 11
-27.6791
 21
65.2784
  0
LINE
  8
0
 10
-27.6791
 20
65.2784
 11
-27.1289
 21
64.9759
  0
LINE
  8
0
 10
-27.1289
 20
64.9759
 11
-26.5451
 21
64.7447
  0
LINE
  8
0
 10
-26.5451
 20
64.7447
 11
-25.9369
 21
64.5886
  0
LINE
  8
0
 10
-25.9369
 20
64.5886
 11
-25.3139
 21
64.5099
  0
LINE
  8
0
 10
-25.3139
 20
64.5099
 11
25.3139
 21
64.5099
  0
LINE
  8
0
 10
25.3139
 20
64.5099
 11
25.9369
 21
64.5886
  0
LINE
  8
0
 10
-24.993
 20
65.8882
 11
-25.4751
 21
65.9491
  0
LINE
  8
0
 10
-25.4751
 20
65.9491
 11
-25.9457
 21
66.0699
  0
LINE
  8
0
 10
-25.9457
 20
66.0699
 11
-26.3975
 21
66.2488
  0
LINE
  8
0
 10
-26.3975
 20
66.2488
 11
-26.8234
 21
66.4829
  0
LINE
  8
0
 10
-26.8234
 20
66.4829
 11
-27.2165
 21
66.7685
  0
LINE
  8
0
 10
-27.2165
 20
66.7685
 11
-27.5707
 21
67.1012
  0
LINE
  8
0
 10
-27.5707
 20
67.1012
 11
-27.8805
 21
67.4756
  0
LINE
  8
0
 10
-27.8805
 20
67.4756
 11
-28.1408
 21
67.8859
  0
LINE
  8
0
 10
-28.1408
 20
67.8859
 11
-28.3477
 21
68.3256
  0
LINE
  8
0
 10
-28.3477
 20
68.3256
 11
-28.4979
 21
68.7877
  0
LINE
  8
0
 10
-28.4979
 20
68.7877
 11
-28.589
 21
69.265
  0
LINE
  8
0
 10
-28.589
 20
69.265
 11
-28.6195
 21
69.75
  0
LINE
  8
0
 10
-28.6195
 20
69.75
 11
-28.6195
 21
74.25
  0
LINE
  8
0
 10
-28.6195
 20
74.25
 11
-28.589
 21
74.735
  0
LINE
  8
0
 10
-28.589
 20
74.735
 11
-28.4979
 21
75.2123
  0
LINE
  8
0
 10
-28.4979
 20
75.2123
 11
-28.3477
 21
75.6744
  0
LINE
  8
0
 10
-28.3477
 20
75.6744
 11
-28.1408
 21
76.1141
  0
LINE
  8
0
 10
-28.1408
 20
76.1141
 11
-27.8805
 21
76.5244
  0
LINE
  8
0
 10
-27.8805
 20
76.5244
 11
-27.5707
 21
76.8988
  0
LINE
  8
0
 10
-27.5707
 20
76.8988
 11
-27.2165
 21
77.2315
  0
LINE
  8
0
 10
-27.2165
 20
77.2315
 11
-26.8234
 21
77.5171
  0
LINE
  8
0
 10
-26.8234
 20
77.5171
 11
-26.3975
 21
77.7512
  0
LINE
  8
0
 10
-26.3975
 20
77.7512
 11
-25.9457
 21
77.9301
  0
LINE
  8
0
 10
-25.9457
 20
77.9301
 11
-25.4751
 21
78.0509
  0
LINE
  8
0
 10
-25.4751
 20
78.0509
 11
-24.993
 21
78.1118
  0
LINE
  8
0
 10
-24.993
 20
78.1118
 11
24.993
 21
78.1118
  0
LINE
  8
0
 10
24.993
 20
78.1118
 11
25.4751
 21
78.0509
  0
LINE
  8
0
 10
25.4751
 20
78.0509
 11
25.9457
 21
77.9301
  0
LINE
  8
0
 10
25.9457
 20
77.9301
 11
26.3975
 21
77.7512
  0
LINE
  8
0
 10
26.3975
 20
77.7512
 11
26.8234
 21
77.5171
  0
LINE
  8
0
 10
26.8234
 20
77.5171
 11
27.2165
 21
77.2315
  0
LINE
  8
0
 10
27.2165
 20
77.2315
 11
27.5707
 21
76.8988
  0
LINE
  8
0
 10
27.5707
 20
76.8988
 11
27.8805
 21
76.5244
  0
LINE
  8
0
 10
27.8805
 20
76.5244
 11
28.1408
 21
76.1141
  0
LINE
  8
0
 10
28.1408
 20
76.1141
 11
28.3477
 21
75.6744
  0
LINE
  8
0
 10
28.3477
 20
75.6744
 11
28.4979
 21
75.2123
  0
LINE
  8
0
 10
28.4979
 20
75.2123
 11
28.589
 21
74.735
  0
LINE
  8
0
 10
28.589
 20
74.735
 11
28.6195
 21
74.25
  0
LINE
  8
0
 10
28.6195
 20
74.25
 11
28.6195
 21
69.75
  0
LINE
  8
0
 10
28.6195
 20
69.75
 11
28.589
 21
69.265
  0
LINE
  8
0
 10
28.589
 20
69.265
 11
28.4979
 21
68.7877
  0
LINE
  8
0
 10
28.4979
 20
68.7877
 11
28.3477
 21
68.3256
  0
LINE
  8
0
 10
28.3477
 20
68.3256
 11
28.1408
 21
67.8859
  0
LINE
  8
0
 10
28.1408
 20
67.8859
 11
27.8805
 21
67.4756
  0
LINE
  8
0
 10
27.8805
 20
67.4756
 11
27.5707
 21
67.1012
  0
LINE
  8
0
 10
27.5707
 20
67.1012
 11
27.2165
 21
66.7685
  0
LINE
  8
0
 10
27.2165
 20
66.7685
 11
26.8234
 21
66.4829
  0
LINE
  8
0
 10
26.8234
 20
66.4829
 11
26.3975
 21
66.2488
  0
LINE
  8
0
 10
26.3975
 20
66.2488
 11
25.9457
 21
66.0699
  0
LINE
  8
0
 10
25.9457
 20
66.0699
 11
25.4751
 21
65.9491
  0
LINE
  8
0
 10
25.4751
 20
65.9491
 11
24.993
 21
65.8882
  0
LINE
  8
0
 10
24.993
 20
65.8882
 11
-24.993
 21
65.8882
  0
LINE
  8
0
 10
25.9369
 20
40.5886
 11
26.5451
 21
40.7447
  0
LINE
  8
0
 10
26.5451
 20
40.7447
 11
27.1289
 21
40.9759
  0
LINE
  8
0
 10
27.1289
 20
40.9759
 11
27.6791
 21
41.2784
  0
LINE
  8
0
 10
27.6791
 20
41.2784
 11
28.1871
 21
41.6474
  0
LINE
  8
0
 10
28.1871
 20
41.6474
 11
28.6448
 21
42.0773
  0
LINE
  8
0
 10
28.6448
 20
42.0773
 11
29.0451
 21
42.5611
  0
LINE
  8
0
 10
29.0451
 20
42.5611
 11
29.3815
 21
43.0912
  0
LINE
  8
0
 10
29.3815
 20
43.0912
 11
29.6489
 21
43.6594
  0
LINE
  8
0
 10
29.6489
 20
43.6594
 11
29.8429
 21
44.2566
  0
LINE
  8
0
 10
29.8429
 20
44.2566
 11
29.9606
 21
44.8733
  0
LINE
  8
0
 10
29.9606
 20
44.8733
 11
30
 21
45.5
  0
LINE
  8
0
 10
30
 20
45.5
 11
30
 21
50.5
  0
LINE
  8
0
 10
30
 20
50.5
 11
29.9606
 21
51.1267
  0
LINE
  8
0
 10
29.9606
 20
51.1267
 11
29.8429
 21
51.7434
  0
LINE
  8
0
 10
29.8429
 20
51.7434
 11
29.6489
 21
52.3406
  0
LINE
  8
0
 10
29.6489
 20
52.3406
 11
29.3815
 21
52.9088
  0
LINE
  8
0
 10
29.3815
 20
52.9088
 11
29.0451
 21
53.4389
  0
LINE
  8
0
 10
29.0451
 20
53.4389
 11
28.6448
 21
53.9227
  0
LINE
  8
0
 10
28.6448
 20
53.9227
 11
28.1871
 21
54.3526
  0
LINE
  8
0
 10
28.1871
 20
54.3526
 11
27.6791
 21
54.7216
  0
LINE
  8
0
 10
27.6791
 20
54.7216
 11
27.1289
 21
55.0241
  0
LINE
  8
0
 10
27.1289
 20
55.0241
 11
26.5451
 21
55.2553
  0
LINE
  8
0
 10
26.5451
 20
55.2553
 11
25.9369
 21
55.4114
  0
LINE
  8
0
 10
25.9369
 20
55.4114
 11
25.3139
 21
55.4901
  0
LINE
  8
0
 10
25.3139
 20
55.4901
 11
-25.3139
 21
55.4901
  0
LINE
  8
0
 10
-25.3139
 20
55.4901
 11
-25.9369
 21
55.4114
  0
LINE
  8
0
 10
-25.9369
 20
55.4114
 11
-26.5451
 21
55.2553
  0
LINE
  8
0
 10
-26.5451
 20
55.2553
 11
-27.1289
 21
55.0241
  0
LINE
  8
0
 10
-27.1289
 20
55.0241
 11
-27.6791
 21
54.7216
  0
LINE
  8
0
 10
-27.6791
 20
54.7216
 11
-28.1871
 21
54.3526
  0
LINE
  8
0
 10
-28.1871
 20
54.3526
 11
-28.6448
 21
53.9227
  0
LINE
  8
0
 10
-28.6448
 20
53.9227
 11
-29.0451
 21
53.4389
  0
LINE
  8
0
 10
-29.0451
 20
53.4389
 11
-29.3815
 21
52.9088
  0
LINE
  8
0
 10
-29.3815
 20
52.9088
 11
-29.6489
 21
52.3406
  0
LINE
  8
0
 10
-29.6489
 20
52.3406
 11
-29.8429
 21
51.7434
  0
LINE
  8
0
 10
-29.8429
 20
51.7434
 11
-29.9606
 21
51.1267
  0
LINE
  8
0
 10
-29.9606
 20
51.1267
 11
-30
 21
50.5
  0
LINE
  8
0
 10
-30
 20
50.5
 11
-30
 21
45.5
  0
LINE
  8
0
 10
-30
 20
45.5
 11
-29.9606
 21
44.8733
  0
LINE
  8
0
 10
-29.9606
 20
44.8733
 11
-29.8429
 21
44.2566
  0
LINE
  8
0
 10
-29.8429
 20
44.2566
 11
-29.6489
 21
43.6594
  0
LINE
  8
0
 10
-29.6489
 20
43.6594
 11
-29.3815
 21
43.0912
  0
LINE
  8
0
 10
-29.3815
 20
43.0912
 11
-29.0451
 21
42.5611
  0
LINE
  8
0
 10
-29.0451
 20
42.5611
 11
-28.6448
 21
42.0773
  0
LINE
  8
0
 10
-28.6448
 20
42.0773
 11
-28.1871
 21
41.6474
  0
LINE
  8
0
 10
-28.1871
 20
41.6474
 11
-27.6791
 21
41.2784
  0
LINE
  8
0
 10
-27.6791
 20
41.2784
 11
-27.1289
 21
40.9759
  0
LINE
  8
0
 10
-27.1289
 20
40.9759
 11
-26.5451
 21
40.7447
  0
LINE
  8
0
 10
-26.5451
 20
40.7447
 11
-25.9369
 21
40.5886
  0
LINE
  8
0
 10
-25.9369
 20
40.5886
 11
-25.3139
 21
40.5099
  0
LINE
  8
0
 10
-25.3139
 20
40.5099
 11
25.3139
 21
40.5099
  0
LINE
  8
0
 10
25.3139
 20
40.5099
 11
25.9369
 21
40.5886
  0
LINE
  8
0
 10
-22.613
 20
46.2036
 11
-22.8373
 21
46.2319
  0
LINE
  8
0
 10
-22.8373
 20
46.2319
 11
-23.0562
 21
46.2881
  0
LINE
  8
0
 10
-23.0562
 20
46.2881
 11
-23.2664
 21
46.3713
  0
LINE
  8
0
 10
-23.2664
 20
46.3713
 11
-23.4645
 21
46.4802
  0
LINE
  8
0
 10
-23.4645
 20
46.4802
 11
-23.6474
 21
46.6131
  0
LINE
  8
0
 10
-23.6474
 20
46.6131
 11
-23.8121
 21
46.7678
  0
LINE
  8
0
 10
-23.8121
 20
46.7678
 11
-23.9562
 21
46.942
  0
LINE
  8
0
 10
-23.9562
 20
46.942
 11
-24.0773
 21
47.1329
  0
LINE
  8
0
 10
-24.0773
 20
47.1329
 11
-24.1736
 21
47.3374
  0
LINE
  8
0
 10
-24.1736
 20
47.3374
 11
-24.2434
 21
47.5524
  0
LINE
  8
0
 10
-24.2434
 20
47.5524
 11
-24.2858
 21
47.7744
  0
LINE
  8
0
 10
-24.2858
 20
47.7744
 11
-24.3
 21
48
  0
LINE
  8
0
 10
-24.3
 20
48
 11
-24.2858
 21
48.2256
  0
LINE
  8
0
 10
-24.2858
 20
48.2256
 11
-24.2434
 21
48.4476
  0
LINE
  8
0
 10
-24.2434
 20
48.4476
 11
-24.1736
 21
48.6626
  0
LINE
  8
0
 10
-24.1736
 20
48.6626
 11
-24.0773
 21
48.8671
  0
LINE
  8
0
 10
-24.0773
 20
48.8671
 11
-23.9562
 21
49.058
  0
LINE
  8
0
 10
-23.9562
 20
49.058
 11
-23.8121
 21
49.2322
  0
LINE
  8
0
 10
-23.8121
 20
49.2322
 11
-23.6474
 21
49.3869
  0
LINE
  8
0
 10
-23.6474
 20
49.3869
 11
-23.4645
 21
49.5198
  0
LINE
  8
0
 10
-23.4645
 20
49.5198
 11
-23.2664
 21
49.6287
  0
LINE
  8
0
 10
-23.2664
 20
49.6287
 11
-23.0562
 21
49.7119
  0
LINE
  8
0
 10
-23.0562
 20
49.7119
 11
-22.8373
 21
49.7681
  0
LINE
  8
0
 10
-22.8373
 20
49.7681
 11
-22.613
 21
49.7964
  0
LINE
  8
0
 10
-22.613
 20
49.7964
 11
-22.387
 21
49.7964
  0
LINE
  8
0
 10
-22.387
 20
49.7964
 11
-22.1627
 21
49.7681
  0
LINE
  8
0
 10
-22.1627
 20
49.7681
 11
-21.9438
 21
49.7119
  0
LINE
  8
0
 10
-21.9438
 20
49.7119
 11
-21.7336
 21
49.6287
  0
LINE
  8
0
 10
-21.7336
 20
49.6287
 11
-21.5355
 21
49.5198
  0
LINE
  8
0
 10
-21.5355
 20
49.5198
 11
-21.3526
 21
49.3869
  0
LINE
  8
0
 10
-21.3526
 20
49.3869
 11
-21.1879
 21
49.2322
  0
LINE
  8
0
 10
-21.1879
 20
49.2322
 11
-21.0438
 21
49.058
  0
LINE
  8
0
 10
-21.0438
 20
49.058
 11
-20.9226
 21
48.8671
  0
LINE
  8
0
 10
-20.9226
 20
48.8671
 11
-20.8264
 21
48.6626
  0
LINE
  8
0
 10
-20.8264
 20
48.6626
 11
-20.7565
 21
48.4476
  0
LINE
  8
0
 10
-20.7565
 20
48.4476
 11
-20.7142
 21
48.2256
  0
LINE
  8
0
 10
-20.7142
 20
48.2256
 11
-20.7
 21
48
  0
LINE
  8
0
 10
-20.7
 20
48
 11
-20.7142
 21
47.7744
  0
LINE
  8
0
 10
-20.7142
 20
47.7744
 11
-20.7565
 21
47.5524
  0
LINE
  8
0
 10
-20.7565
 20
47.5524
 11
-20.8264
 21
47.3374
  0
LINE
  8
0
 10
-20.8264
 20
47.3374
 11
-20.9226
 21
47.1329
  0
LINE
  8
0
 10
-20.9226
 20
47.1329
 11
-21.0438
 21
46.942
  0
LINE
  8
0
 10
-21.0438
 20
46.942
 11
-21.1879
 21
46.7678
  0
LINE
  8
0
 10
-21.1879
 20
46.7678
 11
-21.3526
 21
46.6131
  0
LINE
  8
0
 10
-21.3526
 20
46.6131
 11
-21.5355
 21
46.4802
  0
LINE
  8
0
 10
-21.5355
 20
46.4802
 11
-21.7336
 21
46.3713
  0
LINE
  8
0
 10
-21.7336
 20
46.3713
 11
-21.9438
 21
46.2881
  0
LINE
  8
0
 10
-21.9438
 20
46.2881
 11
-22.1627
 21
46.2319
  0
LINE
  8
0
 10
-22.1627
 20
46.2319
 11
-22.387
 21
46.2036
  0
LINE
  8
0
 10
-22.387
 20
46.2036
 11
-22.613
 21
46.2036
  0
LINE
  8
0
 10
22.387
 20
46.2036
 11
22.1627
 21
46.2319
  0
LINE
  8
0
 10
22.1627
 20
46.2319
 11
21.9438
 21
46.2881
  0
LINE
  8
0
 10
21.9438
 20
46.2881
 11
21.7336
 21
46.3713
  0
LINE
  8
0
 10
21.7336
 20
46.3713
 11
21.5355
 21
46.4802
  0
LINE
  8
0
 10
21.5355
 20
46.4802
 11
21.3526
 21
46.6131
  0
LINE
  8
0
 10
21.3526
 20
46.6131
 11
21.1879
 21
46.7678
  0
LINE
  8
0
 10
21.1879
 20
46.7678
 11
21.0438
 21
46.942
  0
LINE
  8
0
 10
21.0438
 20
46.942
 11
20.9226
 21
47.1329
  0
LINE
  8
0
 10
20.9226
 20
47.1329
 11
20.8264
 21
47.3374
  0
LINE
  8
0
 10
20.8264
 20
47.3374
 11
20.7565
 21
47.5524
  0
LINE
  8
0
 10
20.7565
 20
47.5524
 11
20.7142
 21
47.7744
  0
LINE
  8
0
 10
20.7142
 20
47.7744
 11
20.7
 21
48
  0
LINE
  8
0
 10
20.7
 20
48
 11
20.7142
 21
48.2256
  0
LINE
  8
0
 10
20.7142
 20
48.2256
 11
20.7565
 21
48.4476
  0
LINE
  8
0
 10
20.7565
 20
48.4476
 11
20.8264
 21
48.6626
  0
LINE
  8
0
 10
20.8264
 20
48.6626
 11
20.9226
 21
48.8671
  0
LINE
  8
0
 10
20.9226
 20
48.8671
 11
21.0438
 21
49.058
  0
LINE
  8
0
 10
21.0438
 20
49.058
 11
21.1879
 21
49.2322
  0
LINE
  8
0
 10
21.1879
 20
49.2322
 11
21.3526
 21
49.3869
  0
LINE
  8
0
 10
21.3526
 20
49.3869
 11
21.5355
 21
49.5198
  0
LINE
  8
0
 10
21.5355
 20
49.5198
 11
21.7336
 21
49.6287
  0
LINE
  8
0
 10
21.7336
 20
49.6287
 11
21.9438
 21
49.7119
  0
LINE
  8
0
 10
21.9438
 20
49.7119
 11
22.1627
 21
49.7681
  0
LINE
  8
0
 10
22.1627
 20
49.7681
 11
22.387
 21
49.7964
  0
LINE
  8
0
 10
22.387
 20
49.7964
 11
22.613
 21
49.7964
  0
LINE
  8
0
 10
22.613
 20
49.7964
 11
22.8373
 21
49.7681
  0
LINE
  8
0
 10
22.8373
 20
49.7681
 11
23.0562
 21
49.7119
  0
LINE
  8
0
 10
23.0562
 20
49.7119
 11
23.2664
 21
49.6287
  0
LINE
  8
0
 10
23.2664
 20
49.6287
 11
23.4645
 21
49.5198
  0
LINE
  8
0
 10
23.4645
 20
49.5198
 11
23.6474
 21
49.3869
  0
LINE
  8
0
 10
23.6474
 20
49.3869
 11
23.8121
 21
49.2322
  0
LINE
  8
0
 10
23.8121
 20
49.2322
 11
23.9562
 21
49.058
  0
LINE
  8
0
 10
23.9562
 20
49.058
 11
24.0773
 21
48.8671
  0
LINE
  8
0
 10
24.0773
 20
48.8671
 11
24.1736
 21
48.6626
  0
LINE
  8
0
 10
24.1736
 20
48.6626
 11
24.2434
 21
48.4476
  0
LINE
  8
0
 10
24.2434
 20
48.4476
 11
24.2858
 21
48.2256
  0
LINE
  8
0
 10
24.2858
 20
48.2256
 11
24.3
 21
48
  0
LINE
  8
0
 10
24.3
 20
48
 11
24.2858
 21
47.7744
  0
LINE
  8
0
 10
24.2858
 20
47.7744
 11
24.2434
 21
47.5524
  0
LINE
  8
0
 10
24.2434
 20
47.5524
 11
24.1736
 21
47.3374
  0
LINE
  8
0
 10
24.1736
 20
47.3374
 11
24.0773
 21
47.1329
  0
LINE
  8
0
 10
24.0773
 20
47.1329
 11
23.9562
 21
46.942
  0
LINE
  8
0
 10
23.9562
 20
46.942
 11
23.8121
 21
46.7678
  0
LINE
  8
0
 10
23.8121
 20
46.7678
 11
23.6474
 21
46.6131
  0
LINE
  8
0
 10
23.6474
 20
46.6131
 11
23.4645
 21
46.4802
  0
LINE
  8
0
 10
23.4645
 20
46.4802
 11
23.2664
 21
46.3713
  0
LINE
  8
0
 10
23.2664
 20
46.3713
 11
23.0562
 21
46.2881
  0
LINE
  8
0
 10
23.0562
 20
46.2881
 11
22.8373
 21
46.2319
  0
LINE
  8
0
 10
22.8373
 20
46.2319
 11
22.613
 21
46.2036
  0
LINE
  8
0
 10
22.613
 20
46.2036
 11
22.387
 21
46.2036
  0
ENDSEC
  0
SECTION
  2
OBJECTS
  0
DICTIONARY
  0
ENDSEC
  0
EOF
