<?xml version="1.0" standalone="no"?>
<!DOCTYPE svg PUBLIC "-//W3C//DTD SVG 1.1//EN" "http://www.w3.org/Graphics/SVG/1.1/DTD/svg11.dtd">
<svg width="46mm" height="424mm" viewBox="-23 -644 46 424" xmlns="http://www.w3.org/2000/svg" version="1.1">
<title>OpenSCAD Model</title>
<path d="
M 18.4369,-508.589 L 19.0451,-508.745 L 19.6289,-508.976 L 20.1791,-509.278 L 20.6871,-509.647 L 21.1448,-510.077
 L 21.5451,-510.561 L 21.8815,-511.091 L 22.1489,-511.659 L 22.3429,-512.257 L 22.4606,-512.873 L 22.5,-513.5
 L 22.5,-638.5 L 22.4606,-639.127 L 22.3429,-639.743 L 22.1489,-640.341 L 21.8815,-640.909 L 21.5451,-641.439
 L 21.1448,-641.923 L 20.6871,-642.353 L 20.1791,-642.722 L 19.6289,-643.024 L 19.0451,-643.255 L 18.4369,-643.411
 L 17.8139,-643.49 L -17.8139,-643.49 L -18.4369,-643.411 L -19.0451,-643.255 L -19.6289,-643.024 L -20.1791,-642.722
 L -20.6871,-642.353 L -21.1448,-641.923 L -21.5451,-641.439 L -21.8815,-640.909 L -22.1489,-640.341 L -22.3429,-639.743
 L -22.4606,-639.127 L -22.5,-638.5 L -22.5,-513.5 L -22.4606,-512.873 L -22.3429,-512.257 L -22.1489,-511.659
 L -21.8815,-511.091 L -21.5451,-510.561 L -21.1448,-510.077 L -20.6871,-509.647 L -20.1791,-509.278 L -19.6289,-508.976
 L -19.0451,-508.745 L -18.4369,-508.589 L -17.8139,-508.51 L 17.8139,-508.51 z
M -17.2432,-510.135 L -17.7256,-510.196 L -18.1967,-510.317 L -18.6489,-510.496 L -19.0751,-510.73 L -19.4685,-511.016
 L -19.823,-511.349 L -20.133,-511.724 L -20.3936,-512.134 L -20.6007,-512.574 L -20.751,-513.037 L -20.8421,-513.515
 L -20.8726,-514 L -20.8726,-638 L -20.8421,-638.485 L -20.751,-638.963 L -20.6007,-639.426 L -20.3936,-639.866
 L -20.133,-640.276 L -19.823,-640.651 L -19.4685,-640.984 L -19.0751,-641.27 L -18.6489,-641.504 L -18.1967,-641.683
 L -17.7256,-641.804 L -17.2432,-641.865 L 17.2432,-641.865 L 17.7256,-641.804 L 18.1967,-641.683 L 18.6489,-641.504
 L 19.0751,-641.27 L 19.4685,-640.984 L 19.823,-640.651 L 20.133,-640.276 L 20.3936,-639.866 L 20.6007,-639.426
 L 20.751,-638.963 L 20.8421,-638.485 L 20.8726,-638 L 20.8726,-514 L 20.8421,-513.515 L 20.751,-513.037
 L 20.6007,-512.574 L 20.3936,-512.134 L 20.133,-511.724 L 19.823,-511.349 L 19.4685,-511.016 L 19.0751,-510.73
 L 18.6489,-510.496 L 18.1967,-510.317 L 17.7256,-510.196 L 17.2432,-510.135 z
M 18.4369,-364.589 L 19.0451,-364.745 L 19.6289,-364.976 L 20.1791,-365.278 L 20.6871,-365.647 L 21.1448,-366.077
 L 21.5451,-366.561 L 21.8815,-367.091 L 22.1489,-367.659 L 22.3429,-368.257 L 22.4606,-368.873 L 22.5,-369.5
 L 22.5,-494.5 L 22.4606,-495.127 L 22.3429,-495.743 L 22.1489,-496.341 L 21.8815,-496.909 L 21.5451,-497.439
 L 21.1448,-497.923 L 20.6871,-498.353 L 20.1791,-498.722 L 19.6289,-499.024 L 19.0451,-499.255 L 18.4369,-499.411
 L 17.8139,-499.49 L -17.8139,-499.49 L -18.4369,-499.411 L -19.0451,-499.255 L -19.6289,-499.024 L -20.1791,-498.722
 L -20.6871,-498.353 L -21.1448,-497.923 L -21.5451,-497.439 L -21.8815,-496.909 L -22.1489,-496.341 L -22.3429,-495.743
 L -22.4606,-495.127 L -22.5,-494.5 L -22.5,-369.5 L -22.4606,-368.873 L -22.3429,-368.257 L -22.1489,-367.659
 L -21.8815,-367.091 L -21.5451,-366.561 L -21.1448,-366.077 L -20.6871,-365.647 L -20.1791,-365.278 L -19.6289,-364.976
 L -19.0451,-364.745 L -18.4369,-364.589 L -17.8139,-364.51 L 17.8139,-364.51 z
M 18.4369,-220.589 L 19.0451,-220.745 L 19.6289,-220.976 L 20.1791,-221.278 L 20.6871,-221.647 L 21.1448,-222.077
 L 21.5451,-222.561 L 21.8815,-223.091 L 22.1489,-223.659 L 22.3429,-224.257 L 22.4606,-224.873 L 22.5,-225.5
 L 22.5,-350.5 L 22.4606,-351.127 L 22.3429,-351.743 L 22.1489,-352.341 L 21.8815,-352.909 L 21.5451,-353.439
 L 21.1448,-353.923 L 20.6871,-354.353 L 20.1791,-354.722 L 19.6289,-355.024 L 19.0451,-355.255 L 18.4369,-355.411
 L 17.8139,-355.49 L -17.8139,-355.49 L -18.4369,-355.411 L -19.0451,-355.255 L -19.6289,-355.024 L -20.1791,-354.722
 L -20.6871,-354.353 L -21.1448,-353.923 L -21.5451,-353.439 L -21.8815,-352.909 L -22.1489,-352.341 L -22.3429,-351.743
 L -22.4606,-351.127 L -22.5,-350.5 L -22.5,-225.5 L -22.4606,-224.873 L -22.3429,-224.257 L -22.1489,-223.659
 L -21.8815,-223.091 L -21.5451,-222.561 L -21.1448,-222.077 L -20.6871,-221.647 L -20.1791,-221.278 L -19.6289,-220.976
 L -19.0451,-220.745 L -18.4369,-220.589 L -17.8139,-220.51 L 17.8139,-220.51 z
M 14.887,-346.204 L 14.6627,-346.232 L 14.4438,-346.288 L 14.2336,-346.371 L 14.0355,-346.48 L 13.8526,-346.613
 L 13.6879,-346.768 L 13.5438,-346.942 L 13.4226,-347.133 L 13.3264,-347.337 L 13.2565,-347.552 L 13.2142,-347.774
 L 13.2,-348 L 13.2142,-348.226 L 13.2565,-348.448 L 13.3264,-348.663 L 13.4226,-348.867 L 13.5438,-349.058
 L 13.6879,-349.232 L 13.8526,-349.387 L 14.0355,-349.52 L 14.2336,-349.629 L 14.4438,-349.712 L 14.6627,-349.768
 L 14.887,-349.796 L 15.113,-349.796 L 15.3373,-349.768 L 15.5562,-349.712 L 15.7664,-349.629 L 15.9645,-349.52
 L 16.1474,-349.387 L 16.3121,-349.232 L 16.4562,-349.058 L 16.5773,-348.867 L 16.6736,-348.663 L 16.7434,-348.448
 L 16.7858,-348.226 L 16.8,-348 L 16.7858,-347.774 L 16.7434,-347.552 L 16.6736,-347.337 L 16.5773,-347.133
 L 16.4562,-346.942 L 16.3121,-346.768 L 16.1474,-346.613 L 15.9645,-346.48 L 15.7664,-346.371 L 15.5562,-346.288
 L 15.3373,-346.232 L 15.113,-346.204 z
M -15.113,-346.204 L -15.3373,-346.232 L -15.5562,-346.288 L -15.7664,-346.371 L -15.9645,-346.48 L -16.1474,-346.613
 L -16.3121,-346.768 L -16.4562,-346.942 L -16.5773,-347.133 L -16.6736,-347.337 L -16.7434,-347.552 L -16.7858,-347.774
 L -16.8,-348 L -16.7858,-348.226 L -16.7434,-348.448 L -16.6736,-348.663 L -16.5773,-348.867 L -16.4562,-349.058
 L -16.3121,-349.232 L -16.1474,-349.387 L -15.9645,-349.52 L -15.7664,-349.629 L -15.5562,-349.712 L -15.3373,-349.768
 L -15.113,-349.796 L -14.887,-349.796 L -14.6627,-349.768 L -14.4438,-349.712 L -14.2336,-349.629 L -14.0355,-349.52
 L -13.8526,-349.387 L -13.6879,-349.232 L -13.5438,-349.058 L -13.4226,-348.867 L -13.3264,-348.663 L -13.2565,-348.448
 L -13.2142,-348.226 L -13.2,-348 L -13.2142,-347.774 L -13.2565,-347.552 L -13.3264,-347.337 L -13.4226,-347.133
 L -13.5438,-346.942 L -13.6879,-346.768 L -13.8526,-346.613 L -14.0355,-346.48 L -14.2336,-346.371 L -14.4438,-346.288
 L -14.6627,-346.232 L -14.887,-346.204 z
M -15.113,-226.204 L -15.3373,-226.232 L -15.5562,-226.288 L -15.7664,-226.371 L -15.9645,-226.48 L -16.1474,-226.613
 L -16.3121,-226.768 L -16.4562,-226.942 L -16.5773,-227.133 L -16.6736,-227.337 L -16.7434,-227.552 L -16.7858,-227.774
 L -16.8,-228 L -16.7858,-228.226 L -16.7434,-228.448 L -16.6736,-228.663 L -16.5773,-228.867 L -16.4562,-229.058
 L -16.3121,-229.232 L -16.1474,-229.387 L -15.9645,-229.52 L -15.7664,-229.629 L -15.5562,-229.712 L -15.3373,-229.768
 L -15.113,-229.796 L -14.887,-229.796 L -14.6627,-229.768 L -14.4438,-229.712 L -14.2336,-229.629 L -14.0355,-229.52
 L -13.8526,-229.387 L -13.6879,-229.232 L -13.5438,-229.058 L -13.4226,-228.867 L -13.3264,-228.663 L -13.2565,-228.448
 L -13.2142,-228.226 L -13.2,-228 L -13.2142,-227.774 L -13.2565,-227.552 L -13.3264,-227.337 L -13.4226,-227.133
 L -13.5438,-226.942 L -13.6879,-226.768 L -13.8526,-226.613 L -14.0355,-226.48 L -14.2336,-226.371 L -14.4438,-226.288
 L -14.6627,-226.232 L -14.887,-226.204 z
M 14.887,-226.204 L 14.6627,-226.232 L 14.4438,-226.288 L 14.2336,-226.371 L 14.0355,-226.48 L 13.8526,-226.613
 L 13.6879,-226.768 L 13.5438,-226.942 L 13.4226,-227.133 L 13.3264,-227.337 L 13.2565,-227.552 L 13.2142,-227.774
 L 13.2,-228 L 13.2142,-228.226 L 13.2565,-228.448 L 13.3264,-228.663 L 13.4226,-228.867 L 13.5438,-229.058
 L 13.6879,-229.232 L 13.8526,-229.387 L 14.0355,-229.52 L 14.2336,-229.629 L 14.4438,-229.712 L 14.6627,-229.768
 L 14.887,-229.796 L 15.113,-229.796 L 15.3373,-229.768 L 15.5562,-229.712 L 15.7664,-229.629 L 15.9645,-229.52
 L 16.1474,-229.387 L 16.3121,-229.232 L 16.4562,-229.058 L 16.5773,-228.867 L 16.6736,-228.663 L 16.7434,-228.448
 L 16.7858,-228.226 L 16.8,-228 L 16.7858,-227.774 L 16.7434,-227.552 L 16.6736,-227.337 L 16.5773,-227.133
 L 16.4562,-226.942 L 16.3121,-226.768 L 16.1474,-226.613 L 15.9645,-226.48 L 15.7664,-226.371 L 15.5562,-226.288
 L 15.3373,-226.232 L 15.113,-226.204 z
" stroke="black" fill="lightgray" stroke-width="0.5"/>
</svg>
