<?xml version="1.0" standalone="no"?>
<!DOCTYPE svg PUBLIC "-//W3C//DTD SVG 1.1//EN" "http://www.w3.org/Graphics/SVG/1.1/DTD/svg11.dtd">
<svg width="16mm" height="189mm" viewBox="-8 -243 16 189" xmlns="http://www.w3.org/2000/svg" version="1.1">
<title>OpenSCAD Model</title>
<path d="
M 3.4369,-153.089 L 4.04507,-153.245 L 4.62889,-153.476 L 5.17912,-153.778 L 5.68712,-154.147 L 6.14484,-154.577
 L 6.54507,-155.061 L 6.88153,-155.591 L 7.14888,-156.159 L 7.34291,-156.757 L 7.46057,-157.373 L 7.5,-158
 L 7.5,-238 L 7.46057,-238.627 L 7.34291,-239.243 L 7.14888,-239.841 L 6.88153,-240.409 L 6.54507,-240.939
 L 6.14484,-241.423 L 5.68712,-241.853 L 5.17912,-242.222 L 4.62889,-242.524 L 4.04507,-242.755 L 3.4369,-242.911
 L 2.81395,-242.99 L -2.81395,-242.99 L -3.4369,-242.911 L -4.04507,-242.755 L -4.62889,-242.524 L -5.17912,-242.222
 L -5.68712,-241.853 L -6.14484,-241.423 L -6.54507,-240.939 L -6.88153,-240.409 L -7.14888,-239.841 L -7.34291,-239.243
 L -7.46057,-238.627 L -7.5,-238 L -7.5,-158 L -7.46057,-157.373 L -7.34291,-156.757 L -7.14888,-156.159
 L -6.88153,-155.591 L -6.54507,-155.061 L -6.14484,-154.577 L -5.68712,-154.147 L -5.17912,-153.778 L -4.62889,-153.476
 L -4.04507,-153.245 L -3.4369,-153.089 L -2.81395,-153.01 L 2.81395,-153.01 z
M 3.4369,-54.0886 L 4.04507,-54.2447 L 4.62889,-54.4759 L 5.17912,-54.7784 L 5.68712,-55.1474 L 6.14484,-55.5773
 L 6.54507,-56.0611 L 6.88153,-56.5912 L 7.14888,-57.1594 L 7.34291,-57.7566 L 7.46057,-58.3733 L 7.5,-59
 L 7.5,-139 L 7.46057,-139.627 L 7.34291,-140.243 L 7.14888,-140.841 L 6.88153,-141.409 L 6.54507,-141.939
 L 6.14484,-142.423 L 5.68712,-142.853 L 5.17912,-143.222 L 4.62889,-143.524 L 4.04507,-143.755 L 3.4369,-143.911
 L 2.81395,-143.99 L -2.81395,-143.99 L -3.4369,-143.911 L -4.04507,-143.755 L -4.62889,-143.524 L -5.17912,-143.222
 L -5.68712,-142.853 L -6.14484,-142.423 L -6.54507,-141.939 L -6.88153,-141.409 L -7.14888,-140.841 L -7.34291,-140.243
 L -7.46057,-139.627 L -7.5,-139 L -7.5,-59 L -7.46057,-58.3733 L -7.34291,-57.7566 L -7.14888,-57.1594
 L -6.88153,-56.5912 L -6.54507,-56.0611 L -6.14484,-55.5773 L -5.68712,-55.1474 L -5.17912,-54.7784 L -4.62889,-54.4759
 L -4.04507,-54.2447 L -3.4369,-54.0886 L -2.81395,-54.0099 L 2.81395,-54.0099 z
M -0.113022,-134.704 L -0.33728,-134.732 L -0.556229,-134.788 L -0.766388,-134.871 L -0.964478,-134.98 L -1.14735,-135.113
 L -1.31213,-135.268 L -1.45622,-135.442 L -1.57735,-135.633 L -1.67358,-135.837 L -1.74344,-136.052 L -1.7858,-136.274
 L -1.79999,-136.5 L -1.7858,-136.726 L -1.74344,-136.948 L -1.67358,-137.163 L -1.57735,-137.367 L -1.45622,-137.558
 L -1.31213,-137.732 L -1.14735,-137.887 L -0.964478,-138.02 L -0.766388,-138.129 L -0.556229,-138.212 L -0.33728,-138.268
 L -0.113022,-138.296 L 0.113022,-138.296 L 0.33728,-138.268 L 0.556229,-138.212 L 0.766388,-138.129 L 0.964478,-138.02
 L 1.14735,-137.887 L 1.31213,-137.732 L 1.45622,-137.558 L 1.57735,-137.367 L 1.67358,-137.163 L 1.74344,-136.948
 L 1.7858,-136.726 L 1.79999,-136.5 L 1.7858,-136.274 L 1.74344,-136.052 L 1.67358,-135.837 L 1.57735,-135.633
 L 1.45622,-135.442 L 1.31213,-135.268 L 1.14735,-135.113 L 0.964478,-134.98 L 0.766388,-134.871 L 0.556229,-134.788
 L 0.33728,-134.732 L 0.113022,-134.704 z
M -0.113022,-59.7036 L -0.33728,-59.7319 L -0.556229,-59.7881 L -0.766388,-59.8713 L -0.964478,-59.9802 L -1.14735,-60.1131
 L -1.31213,-60.2678 L -1.45622,-60.442 L -1.57735,-60.6328 L -1.67358,-60.8374 L -1.74344,-61.0524 L -1.7858,-61.2744
 L -1.79999,-61.5 L -1.7858,-61.7256 L -1.74344,-61.9476 L -1.67358,-62.1626 L -1.57735,-62.3672 L -1.45622,-62.558
 L -1.31213,-62.7322 L -1.14735,-62.8869 L -0.964478,-63.0198 L -0.766388,-63.1287 L -0.556229,-63.2119 L -0.33728,-63.2681
 L -0.113022,-63.2964 L 0.113022,-63.2964 L 0.33728,-63.2681 L 0.556229,-63.2119 L 0.766388,-63.1287 L 0.964478,-63.0198
 L 1.14735,-62.8869 L 1.31213,-62.7322 L 1.45622,-62.558 L 1.57735,-62.3672 L 1.67358,-62.1626 L 1.74344,-61.9476
 L 1.7858,-61.7256 L 1.79999,-61.5 L 1.7858,-61.2744 L 1.74344,-61.0524 L 1.67358,-60.8374 L 1.57735,-60.6328
 L 1.45622,-60.442 L 1.31213,-60.2678 L 1.14735,-60.1131 L 0.964478,-59.9802 L 0.766388,-59.8713 L 0.556229,-59.7881
 L 0.33728,-59.7319 L 0.113022,-59.7036 z
" stroke="black" fill="lightgray" stroke-width="0.5"/>
</svg>
