<?xml version="1.0" standalone="no"?>
<!DOCTYPE svg PUBLIC "-//W3C//DTD SVG 1.1//EN" "http://www.w3.org/Graphics/SVG/1.1/DTD/svg11.dtd">
<svg width="16mm" height="636mm" viewBox="-8 -1221 16 636" xmlns="http://www.w3.org/2000/svg" version="1.1">
<title>OpenSCAD Model</title>
<path d="
M 3.4369,-1101.09 L 4.04507,-1101.24 L 4.62889,-1101.48 L 5.17912,-1101.78 L 5.68712,-1102.15 L 6.14484,-1102.58
 L 6.54507,-1103.06 L 6.88153,-1103.59 L 7.14888,-1104.16 L 7.34291,-1104.76 L 7.46057,-1105.37 L 7.5,-1106
 L 7.5,-1216 L 7.46057,-1216.63 L 7.34291,-1217.24 L 7.14888,-1217.84 L 6.88153,-1218.41 L 6.54507,-1218.94
 L 6.14484,-1219.42 L 5.68712,-1219.85 L 5.17912,-1220.22 L 4.62889,-1220.52 L 4.04507,-1220.76 L 3.4369,-1220.91
 L 2.81395,-1220.99 L -2.81395,-1220.99 L -3.4369,-1220.91 L -4.04507,-1220.76 L -4.62889,-1220.52 L -5.17912,-1220.22
 L -5.68712,-1219.85 L -6.14484,-1219.42 L -6.54507,-1218.94 L -6.88153,-1218.41 L -7.14888,-1217.84 L -7.34291,-1217.24
 L -7.46057,-1216.63 L -7.5,-1216 L -7.5,-1106 L -7.46057,-1105.37 L -7.34291,-1104.76 L -7.14888,-1104.16
 L -6.88153,-1103.59 L -6.54507,-1103.06 L -6.14484,-1102.58 L -5.68712,-1102.15 L -5.17912,-1101.78 L -4.62889,-1101.48
 L -4.04507,-1101.24 L -3.4369,-1101.09 L -2.81395,-1101.01 L 2.81395,-1101.01 z
M -2.25116,-1102.51 L -2.74951,-1102.57 L -3.23605,-1102.7 L -3.70311,-1102.88 L -4.1433,-1103.12 L -4.54968,-1103.42
 L -4.91586,-1103.76 L -5.23605,-1104.15 L -5.50522,-1104.57 L -5.7191,-1105.03 L -5.87433,-1105.51 L -5.96844,-1106
 L -6,-1106.5 L -6,-1215.5 L -5.96844,-1216 L -5.87433,-1216.49 L -5.7191,-1216.97 L -5.50522,-1217.43
 L -5.23605,-1217.85 L -4.91586,-1218.24 L -4.54968,-1218.58 L -4.1433,-1218.88 L -3.70311,-1219.12 L -3.23605,-1219.3
 L -2.74951,-1219.43 L -2.25116,-1219.49 L 2.25116,-1219.49 L 2.74951,-1219.43 L 3.23605,-1219.3 L 3.70311,-1219.12
 L 4.1433,-1218.88 L 4.54968,-1218.58 L 4.91586,-1218.24 L 5.23605,-1217.85 L 5.50522,-1217.43 L 5.7191,-1216.97
 L 5.87433,-1216.49 L 5.96844,-1216 L 6,-1215.5 L 6,-1106.5 L 5.96844,-1106 L 5.87433,-1105.51
 L 5.7191,-1105.03 L 5.50522,-1104.57 L 5.23605,-1104.15 L 4.91586,-1103.76 L 4.54968,-1103.42 L 4.1433,-1103.12
 L 3.70311,-1102.88 L 3.23605,-1102.7 L 2.74951,-1102.57 L 2.25116,-1102.51 z
M 3.4369,-972.089 L 4.04507,-972.245 L 4.62889,-972.476 L 5.17912,-972.778 L 5.68712,-973.147 L 6.14484,-973.577
 L 6.54507,-974.061 L 6.88153,-974.591 L 7.14888,-975.159 L 7.34291,-975.757 L 7.46057,-976.373 L 7.5,-977
 L 7.5,-1087 L 7.46057,-1087.63 L 7.34291,-1088.24 L 7.14888,-1088.84 L 6.88153,-1089.41 L 6.54507,-1089.94
 L 6.14484,-1090.42 L 5.68712,-1090.85 L 5.17912,-1091.22 L 4.62889,-1091.52 L 4.04507,-1091.76 L 3.4369,-1091.91
 L 2.81395,-1091.99 L -2.81395,-1091.99 L -3.4369,-1091.91 L -4.04507,-1091.76 L -4.62889,-1091.52 L -5.17912,-1091.22
 L -5.68712,-1090.85 L -6.14484,-1090.42 L -6.54507,-1089.94 L -6.88153,-1089.41 L -7.14888,-1088.84 L -7.34291,-1088.24
 L -7.46057,-1087.63 L -7.5,-1087 L -7.5,-977 L -7.46057,-976.373 L -7.34291,-975.757 L -7.14888,-975.159
 L -6.88153,-974.591 L -6.54507,-974.061 L -6.14484,-973.577 L -5.68712,-973.147 L -5.17912,-972.778 L -4.62889,-972.476
 L -4.04507,-972.245 L -3.4369,-972.089 L -2.81395,-972.01 L 2.81395,-972.01 z
M -2.25116,-973.508 L -2.74951,-973.571 L -3.23605,-973.696 L -3.70311,-973.881 L -4.1433,-974.123 L -4.54968,-974.418
 L -4.91586,-974.762 L -5.23605,-975.149 L -5.50522,-975.573 L -5.7191,-976.028 L -5.87433,-976.505 L -5.96844,-976.999
 L -6,-977.5 L -6,-1086.5 L -5.96844,-1087 L -5.87433,-1087.49 L -5.7191,-1087.97 L -5.50522,-1088.43
 L -5.23605,-1088.85 L -4.91586,-1089.24 L -4.54968,-1089.58 L -4.1433,-1089.88 L -3.70311,-1090.12 L -3.23605,-1090.3
 L -2.74951,-1090.43 L -2.25116,-1090.49 L 2.25116,-1090.49 L 2.74951,-1090.43 L 3.23605,-1090.3 L 3.70311,-1090.12
 L 4.1433,-1089.88 L 4.54968,-1089.58 L 4.91586,-1089.24 L 5.23605,-1088.85 L 5.50522,-1088.43 L 5.7191,-1087.97
 L 5.87433,-1087.49 L 5.96844,-1087 L 6,-1086.5 L 6,-977.5 L 5.96844,-976.999 L 5.87433,-976.505
 L 5.7191,-976.028 L 5.50522,-975.573 L 5.23605,-975.149 L 4.91586,-974.762 L 4.54968,-974.418 L 4.1433,-974.123
 L 3.70311,-973.881 L 3.23605,-973.696 L 2.74951,-973.571 L 2.25116,-973.508 z
M 3.4369,-843.089 L 4.04507,-843.245 L 4.62889,-843.476 L 5.17912,-843.778 L 5.68712,-844.147 L 6.14484,-844.577
 L 6.54507,-845.061 L 6.88153,-845.591 L 7.14888,-846.159 L 7.34291,-846.757 L 7.46057,-847.373 L 7.5,-848
 L 7.5,-958 L 7.46057,-958.627 L 7.34291,-959.243 L 7.14888,-959.841 L 6.88153,-960.409 L 6.54507,-960.939
 L 6.14484,-961.423 L 5.68712,-961.853 L 5.17912,-962.222 L 4.62889,-962.524 L 4.04507,-962.755 L 3.4369,-962.911
 L 2.81395,-962.99 L -2.81395,-962.99 L -3.4369,-962.911 L -4.04507,-962.755 L -4.62889,-962.524 L -5.17912,-962.222
 L -5.68712,-961.853 L -6.14484,-961.423 L -6.54507,-960.939 L -6.88153,-960.409 L -7.14888,-959.841 L -7.34291,-959.243
 L -7.46057,-958.627 L -7.5,-958 L -7.5,-848 L -7.46057,-847.373 L -7.34291,-846.757 L -7.14888,-846.159
 L -6.88153,-845.591 L -6.54507,-845.061 L -6.14484,-844.577 L -5.68712,-844.147 L -5.17912,-843.778 L -4.62889,-843.476
 L -4.04507,-843.245 L -3.4369,-843.089 L -2.81395,-843.01 L 2.81395,-843.01 z
M -2.25116,-844.508 L -2.74951,-844.571 L -3.23605,-844.696 L -3.70311,-844.881 L -4.1433,-845.123 L -4.54968,-845.418
 L -4.91586,-845.762 L -5.23605,-846.149 L -5.50522,-846.573 L -5.7191,-847.028 L -5.87433,-847.505 L -5.96844,-847.999
 L -6,-848.5 L -6,-957.5 L -5.96844,-958.001 L -5.87433,-958.495 L -5.7191,-958.972 L -5.50522,-959.427
 L -5.23605,-959.851 L -4.91586,-960.238 L -4.54968,-960.582 L -4.1433,-960.877 L -3.70311,-961.119 L -3.23605,-961.304
 L -2.74951,-961.429 L -2.25116,-961.492 L 2.25116,-961.492 L 2.74951,-961.429 L 3.23605,-961.304 L 3.70311,-961.119
 L 4.1433,-960.877 L 4.54968,-960.582 L 4.91586,-960.238 L 5.23605,-959.851 L 5.50522,-959.427 L 5.7191,-958.972
 L 5.87433,-958.495 L 5.96844,-958.001 L 6,-957.5 L 6,-848.5 L 5.96844,-847.999 L 5.87433,-847.505
 L 5.7191,-847.028 L 5.50522,-846.573 L 5.23605,-846.149 L 4.91586,-845.762 L 4.54968,-845.418 L 4.1433,-845.123
 L 3.70311,-844.881 L 3.23605,-844.696 L 2.74951,-844.571 L 2.25116,-844.508 z
M 3.4369,-714.089 L 4.04507,-714.245 L 4.62889,-714.476 L 5.17912,-714.778 L 5.68712,-715.147 L 6.14484,-715.577
 L 6.54507,-716.061 L 6.88153,-716.591 L 7.14888,-717.159 L 7.34291,-717.757 L 7.46057,-718.373 L 7.5,-719
 L 7.5,-829 L 7.46057,-829.627 L 7.34291,-830.243 L 7.14888,-830.841 L 6.88153,-831.409 L 6.54507,-831.939
 L 6.14484,-832.423 L 5.68712,-832.853 L 5.17912,-833.222 L 4.62889,-833.524 L 4.04507,-833.755 L 3.4369,-833.911
 L 2.81395,-833.99 L -2.81395,-833.99 L -3.4369,-833.911 L -4.04507,-833.755 L -4.62889,-833.524 L -5.17912,-833.222
 L -5.68712,-832.853 L -6.14484,-832.423 L -6.54507,-831.939 L -6.88153,-831.409 L -7.14888,-830.841 L -7.34291,-830.243
 L -7.46057,-829.627 L -7.5,-829 L -7.5,-719 L -7.46057,-718.373 L -7.34291,-717.757 L -7.14888,-717.159
 L -6.88153,-716.591 L -6.54507,-716.061 L -6.14484,-715.577 L -5.68712,-715.147 L -5.17912,-714.778 L -4.62889,-714.476
 L -4.04507,-714.245 L -3.4369,-714.089 L -2.81395,-714.01 L 2.81395,-714.01 z
M -2.19545,-716.393 L -2.5833,-716.442 L -2.96194,-716.539 L -3.32541,-716.683 L -3.66798,-716.872 L -3.98424,-717.101
 L -4.26921,-717.369 L -4.5184,-717.67 L -4.72786,-718 L -4.89432,-718.354 L -5.01512,-718.726 L -5.08836,-719.11
 L -5.11292,-719.5 L -5.11292,-828.5 L -5.08836,-828.89 L -5.01512,-829.274 L -4.89432,-829.646 L -4.72786,-830
 L -4.5184,-830.33 L -4.26921,-830.631 L -3.98424,-830.899 L -3.66798,-831.128 L -3.32541,-831.317 L -2.96194,-831.461
 L -2.5833,-831.558 L -2.19545,-831.607 L 2.19545,-831.607 L 2.5833,-831.558 L 2.96194,-831.461 L 3.32541,-831.317
 L 3.66798,-831.128 L 3.98424,-830.899 L 4.26921,-830.631 L 4.5184,-830.33 L 4.72786,-830 L 4.89432,-829.646
 L 5.01512,-829.274 L 5.08836,-828.89 L 5.11292,-828.5 L 5.11292,-719.5 L 5.08836,-719.11 L 5.01512,-718.726
 L 4.89432,-718.354 L 4.72786,-718 L 4.5184,-717.67 L 4.26921,-717.369 L 3.98424,-717.101 L 3.66798,-716.872
 L 3.32541,-716.683 L 2.96194,-716.539 L 2.5833,-716.442 L 2.19545,-716.393 z
M 3.4369,-585.089 L 4.04507,-585.245 L 4.62889,-585.476 L 5.17912,-585.778 L 5.68712,-586.147 L 6.14484,-586.577
 L 6.54507,-587.061 L 6.88153,-587.591 L 7.14888,-588.159 L 7.34291,-588.757 L 7.46057,-589.373 L 7.5,-590
 L 7.5,-700 L 7.46057,-700.627 L 7.34291,-701.243 L 7.14888,-701.841 L 6.88153,-702.409 L 6.54507,-702.939
 L 6.14484,-703.423 L 5.68712,-703.853 L 5.17912,-704.222 L 4.62889,-704.524 L 4.04507,-704.755 L 3.4369,-704.911
 L 2.81395,-704.99 L -2.81395,-704.99 L -3.4369,-704.911 L -4.04507,-704.755 L -4.62889,-704.524 L -5.17912,-704.222
 L -5.68712,-703.853 L -6.14484,-703.423 L -6.54507,-702.939 L -6.88153,-702.409 L -7.14888,-701.841 L -7.34291,-701.243
 L -7.46057,-700.627 L -7.5,-700 L -7.5,-590 L -7.46057,-589.373 L -7.34291,-588.757 L -7.14888,-588.159
 L -6.88153,-587.591 L -6.54507,-587.061 L -6.14484,-586.577 L -5.68712,-586.147 L -5.17912,-585.778 L -4.62889,-585.476
 L -4.04507,-585.245 L -3.4369,-585.089 L -2.81395,-585.01 L 2.81395,-585.01 z
M -0.134064,-695.369 L -0.400101,-695.403 L -0.659836,-695.469 L -0.909149,-695.568 L -1.14413,-695.697 L -1.36108,-695.855
 L -1.55655,-696.038 L -1.72748,-696.245 L -1.87117,-696.471 L -1.98534,-696.714 L -2.06821,-696.969 L -2.11845,-697.232
 L -2.13528,-697.5 L -2.11845,-697.768 L -2.06821,-698.031 L -1.98534,-698.286 L -1.87117,-698.529 L -1.72748,-698.755
 L -1.55655,-698.962 L -1.36108,-699.145 L -1.14413,-699.303 L -0.909149,-699.432 L -0.659836,-699.531 L -0.400101,-699.597
 L -0.134064,-699.631 L 0.134064,-699.631 L 0.400101,-699.597 L 0.659836,-699.531 L 0.909149,-699.432 L 1.14413,-699.303
 L 1.36108,-699.145 L 1.55655,-698.962 L 1.72748,-698.755 L 1.87117,-698.529 L 1.98534,-698.286 L 2.06821,-698.031
 L 2.11845,-697.768 L 2.13528,-697.5 L 2.11845,-697.232 L 2.06821,-696.969 L 1.98534,-696.714 L 1.87117,-696.471
 L 1.72748,-696.245 L 1.55655,-696.038 L 1.36108,-695.855 L 1.14413,-695.697 L 0.909149,-695.568 L 0.659836,-695.469
 L 0.400101,-695.403 L 0.134064,-695.369 z
M -0.134064,-590.369 L -0.400101,-590.403 L -0.659836,-590.469 L -0.909149,-590.568 L -1.14413,-590.697 L -1.36108,-590.855
 L -1.55655,-591.038 L -1.72748,-591.245 L -1.87117,-591.471 L -1.98534,-591.714 L -2.06821,-591.969 L -2.11845,-592.232
 L -2.13528,-592.5 L -2.11845,-592.768 L -2.06821,-593.031 L -1.98534,-593.286 L -1.87117,-593.529 L -1.72748,-593.755
 L -1.55655,-593.962 L -1.36108,-594.145 L -1.14413,-594.303 L -0.909149,-594.432 L -0.659836,-594.531 L -0.400101,-594.597
 L -0.134064,-594.631 L 0.134064,-594.631 L 0.400101,-594.597 L 0.659836,-594.531 L 0.909149,-594.432 L 1.14413,-594.303
 L 1.36108,-594.145 L 1.55655,-593.962 L 1.72748,-593.755 L 1.87117,-593.529 L 1.98534,-593.286 L 2.06821,-593.031
 L 2.11845,-592.768 L 2.13528,-592.5 L 2.11845,-592.232 L 2.06821,-591.969 L 1.98534,-591.714 L 1.87117,-591.471
 L 1.72748,-591.245 L 1.55655,-591.038 L 1.36108,-590.855 L 1.14413,-590.697 L 0.909149,-590.568 L 0.659836,-590.469
 L 0.400101,-590.403 L 0.134064,-590.369 z
" stroke="black" fill="lightgray" stroke-width="0.5"/>
</svg>
