<?xml version="1.0" standalone="no"?>
<!DOCTYPE svg PUBLIC "-//W3C//DTD SVG 1.1//EN" "http://www.w3.org/Graphics/SVG/1.1/DTD/svg11.dtd">
<svg width="104mm" height="104mm" viewBox="-52 -280 104 104" xmlns="http://www.w3.org/2000/svg" version="1.1">
<title>OpenSCAD Model</title>
<path d="
M 47.9369,-176.089 L 48.5451,-176.245 L 49.1289,-176.476 L 49.6791,-176.778 L 50.1871,-177.147 L 50.6448,-177.577
 L 51.0451,-178.061 L 51.3815,-178.591 L 51.6489,-179.159 L 51.8429,-179.757 L 51.9606,-180.373 L 52,-181
 L 52,-273 L 19.1874,-273 L 19.1924,-272.998 L 17.7482,-272.998 L 17.6236,-272.982 L 17.502,-272.951
 L 17.3852,-272.905 L 17.2752,-272.844 L 17.1736,-272.771 L 17.082,-272.685 L 17.002,-272.588 L 16.9347,-272.482
 L 16.8812,-272.368 L 16.8424,-272.249 L 16.8189,-272.125 L 16.811,-272 L 16.8189,-271.875 L 16.8424,-271.751
 L 16.8812,-271.632 L 16.9347,-271.518 L 17.002,-271.412 L 17.082,-271.315 L 17.1736,-271.229 L 17.2752,-271.156
 L 17.3852,-271.095 L 17.502,-271.049 L 17.6236,-271.018 L 17.7482,-271.002 L 22.8738,-271.002 L 22.9984,-271.018
 L 23.12,-271.049 L 23.1696,-271.069 L 26.2555,-269.372 L 31.2338,-265.755 L 35.7195,-261.543 L 39.6418,-256.801
 L 42.939,-251.606 L 45.559,-246.038 L 47.4606,-240.186 L 48.6136,-234.141 L 49,-228 L 48.6136,-221.859
 L 47.4606,-215.814 L 45.559,-209.962 L 42.939,-204.394 L 39.6418,-199.199 L 35.7195,-194.457 L 31.2338,-190.245
 L 26.2555,-186.628 L 20.8632,-183.663 L 15.1418,-181.398 L 9.18167,-179.868 L 3.07672,-179.097 L -3.07672,-179.097
 L -9.18167,-179.868 L -15.1418,-181.398 L -20.8632,-183.663 L -26.2555,-186.628 L -31.2338,-190.245 L -35.7195,-194.457
 L -39.6418,-199.199 L -42.939,-204.394 L -45.559,-209.962 L -47.4606,-215.814 L -48.6136,-221.859 L -49,-228
 L -48.6136,-234.141 L -47.4606,-240.186 L -45.559,-246.038 L -42.939,-251.606 L -39.6418,-256.801 L -35.7195,-261.543
 L -31.2338,-265.755 L -26.2555,-269.372 L -20.8632,-272.337 L -15.1418,-274.602 L -9.18167,-276.132 L -3.07672,-276.903
 L 0,-276.903 L 0,-277 L 32,-277 L 29.0099,-279.99 L -19.5,-279.99 L -19.5,-279
 L -51.5,-279 L -51.5,-280 L -52,-280 L -52,-275.994 L -44.8116,-275.994 L -44.4379,-275.947
 L -44.0729,-275.853 L -43.7227,-275.714 L -43.3925,-275.533 L -43.0877,-275.312 L -42.8131,-275.054 L -42.5729,-274.763
 L -42.3711,-274.445 L -42.2107,-274.104 L -42.0942,-273.746 L -42.0237,-273.376 L -42,-273 L -42.0237,-272.624
 L -42.0942,-272.254 L -42.2107,-271.896 L -42.3711,-271.555 L -42.5729,-271.237 L -42.8131,-270.946 L -43.0877,-270.688
 L -43.3925,-270.467 L -43.7227,-270.286 L -44.0729,-270.147 L -44.4379,-270.053 L -44.8116,-270.006 L -52,-270.006
 L -52,-185.994 L -44.8116,-185.994 L -44.4379,-185.947 L -44.0729,-185.853 L -43.7227,-185.714 L -43.3925,-185.533
 L -43.0877,-185.312 L -42.8131,-185.054 L -42.5729,-184.763 L -42.3711,-184.445 L -42.2107,-184.104 L -42.0942,-183.746
 L -42.0237,-183.376 L -42,-183 L -42.0237,-182.624 L -42.0942,-182.254 L -42.2107,-181.896 L -42.3711,-181.555
 L -42.5729,-181.237 L -42.8131,-180.946 L -43.0877,-180.688 L -43.3925,-180.467 L -43.7227,-180.286 L -44.0729,-180.147
 L -44.4379,-180.053 L -44.8116,-180.006 L -51.8905,-180.006 L -51.8429,-179.757 L -51.6489,-179.159 L -51.3815,-178.591
 L -51.0451,-178.061 L -50.6448,-177.577 L -50.1871,-177.147 L -49.6791,-176.778 L -49.1289,-176.476 L -48.5451,-176.245
 L -47.9369,-176.089 L -47.3139,-176.01 L 47.3139,-176.01 z
M 44.8116,-180.006 L 44.4379,-180.053 L 44.0729,-180.147 L 43.7227,-180.286 L 43.3925,-180.467 L 43.0877,-180.688
 L 42.8131,-180.946 L 42.5729,-181.237 L 42.3711,-181.555 L 42.2107,-181.896 L 42.0942,-182.254 L 42.0237,-182.624
 L 42,-183 L 42.0237,-183.376 L 42.0942,-183.746 L 42.2107,-184.104 L 42.3711,-184.445 L 42.5729,-184.763
 L 42.8131,-185.054 L 43.0877,-185.312 L 43.3925,-185.533 L 43.7227,-185.714 L 44.0729,-185.853 L 44.4379,-185.947
 L 44.8116,-185.994 L 45.1884,-185.994 L 45.5621,-185.947 L 45.927,-185.853 L 46.2773,-185.714 L 46.6075,-185.533
 L 46.9123,-185.312 L 47.1869,-185.054 L 47.427,-184.763 L 47.6289,-184.445 L 47.7893,-184.104 L 47.9057,-183.746
 L 47.9763,-183.376 L 48,-183 L 47.9763,-182.624 L 47.9057,-182.254 L 47.7893,-181.896 L 47.6289,-181.555
 L 47.427,-181.237 L 47.1869,-180.946 L 46.9123,-180.688 L 46.6075,-180.467 L 46.2773,-180.286 L 45.927,-180.147
 L 45.5621,-180.053 L 45.1884,-180.006 z
M 42,-279.99 L 31.1312,-279.99 L 34.1213,-277 L 42,-277 z
" stroke="black" fill="lightgray" stroke-width="0.5"/>
</svg>
