  0
SECTION
  2
BLOCKS
  0
ENDSEC
  0
SECTION
  2
ENTITIES
  0
LINE
  8
0
 10
47.9369
 20
176.089
 11
48.5451
 21
176.245
  0
LINE
  8
0
 10
48.5451
 20
176.245
 11
49.1289
 21
176.476
  0
LINE
  8
0
 10
49.1289
 20
176.476
 11
49.6791
 21
176.778
  0
LINE
  8
0
 10
49.6791
 20
176.778
 11
50.1871
 21
177.147
  0
LINE
  8
0
 10
50.1871
 20
177.147
 11
50.6448
 21
177.577
  0
LINE
  8
0
 10
50.6448
 20
177.577
 11
51.0451
 21
178.061
  0
LINE
  8
0
 10
51.0451
 20
178.061
 11
51.3815
 21
178.591
  0
LINE
  8
0
 10
51.3815
 20
178.591
 11
51.6489
 21
179.159
  0
LINE
  8
0
 10
51.6489
 20
179.159
 11
51.8429
 21
179.757
  0
LINE
  8
0
 10
51.8429
 20
179.757
 11
51.9606
 21
180.373
  0
LINE
  8
0
 10
51.9606
 20
180.373
 11
52
 21
181
  0
LINE
  8
0
 10
52
 20
181
 11
52
 21
273
  0
LINE
  8
0
 10
52
 20
273
 11
19.1874
 21
273
  0
LINE
  8
0
 10
19.1874
 20
273
 11
19.1924
 21
272.998
  0
LINE
  8
0
 10
19.1924
 20
272.998
 11
17.7482
 21
272.998
  0
LINE
  8
0
 10
17.7482
 20
272.998
 11
17.6236
 21
272.982
  0
LINE
  8
0
 10
17.6236
 20
272.982
 11
17.502
 21
272.951
  0
LINE
  8
0
 10
17.502
 20
272.951
 11
17.3852
 21
272.905
  0
LINE
  8
0
 10
17.3852
 20
272.905
 11
17.2752
 21
272.844
  0
LINE
  8
0
 10
17.2752
 20
272.844
 11
17.1736
 21
272.771
  0
LINE
  8
0
 10
17.1736
 20
272.771
 11
17.082
 21
272.685
  0
LINE
  8
0
 10
17.082
 20
272.685
 11
17.002
 21
272.588
  0
LINE
  8
0
 10
17.002
 20
272.588
 11
16.9347
 21
272.482
  0
LINE
  8
0
 10
16.9347
 20
272.482
 11
16.8812
 21
272.368
  0
LINE
  8
0
 10
16.8812
 20
272.368
 11
16.8424
 21
272.249
  0
LINE
  8
0
 10
16.8424
 20
272.249
 11
16.8189
 21
272.125
  0
LINE
  8
0
 10
16.8189
 20
272.125
 11
16.811
 21
272
  0
LINE
  8
0
 10
16.811
 20
272
 11
16.8189
 21
271.875
  0
LINE
  8
0
 10
16.8189
 20
271.875
 11
16.8424
 21
271.751
  0
LINE
  8
0
 10
16.8424
 20
271.751
 11
16.8812
 21
271.632
  0
LINE
  8
0
 10
16.8812
 20
271.632
 11
16.9347
 21
271.518
  0
LINE
  8
0
 10
16.9347
 20
271.518
 11
17.002
 21
271.412
  0
LINE
  8
0
 10
17.002
 20
271.412
 11
17.082
 21
271.315
  0
LINE
  8
0
 10
17.082
 20
271.315
 11
17.1736
 21
271.229
  0
LINE
  8
0
 10
17.1736
 20
271.229
 11
17.2752
 21
271.156
  0
LINE
  8
0
 10
17.2752
 20
271.156
 11
17.3852
 21
271.095
  0
LINE
  8
0
 10
17.3852
 20
271.095
 11
17.502
 21
271.049
  0
LINE
  8
0
 10
17.502
 20
271.049
 11
17.6236
 21
271.018
  0
LINE
  8
0
 10
17.6236
 20
271.018
 11
17.7482
 21
271.002
  0
LINE
  8
0
 10
17.7482
 20
271.002
 11
22.8738
 21
271.002
  0
LINE
  8
0
 10
22.8738
 20
271.002
 11
22.9984
 21
271.018
  0
LINE
  8
0
 10
22.9984
 20
271.018
 11
23.12
 21
271.049
  0
LINE
  8
0
 10
23.12
 20
271.049
 11
23.1696
 21
271.069
  0
LINE
  8
0
 10
23.1696
 20
271.069
 11
26.2555
 21
269.372
  0
LINE
  8
0
 10
26.2555
 20
269.372
 11
31.2338
 21
265.755
  0
LINE
  8
0
 10
31.2338
 20
265.755
 11
35.7195
 21
261.543
  0
LINE
  8
0
 10
35.7195
 20
261.543
 11
39.6418
 21
256.801
  0
LINE
  8
0
 10
39.6418
 20
256.801
 11
42.939
 21
251.606
  0
LINE
  8
0
 10
42.939
 20
251.606
 11
45.559
 21
246.038
  0
LINE
  8
0
 10
45.559
 20
246.038
 11
47.4606
 21
240.186
  0
LINE
  8
0
 10
47.4606
 20
240.186
 11
48.6136
 21
234.141
  0
LINE
  8
0
 10
48.6136
 20
234.141
 11
49
 21
228
  0
LINE
  8
0
 10
49
 20
228
 11
48.6136
 21
221.859
  0
LINE
  8
0
 10
48.6136
 20
221.859
 11
47.4606
 21
215.814
  0
LINE
  8
0
 10
47.4606
 20
215.814
 11
45.559
 21
209.962
  0
LINE
  8
0
 10
45.559
 20
209.962
 11
42.939
 21
204.394
  0
LINE
  8
0
 10
42.939
 20
204.394
 11
39.6418
 21
199.199
  0
LINE
  8
0
 10
39.6418
 20
199.199
 11
35.7195
 21
194.457
  0
LINE
  8
0
 10
35.7195
 20
194.457
 11
31.2338
 21
190.245
  0
LINE
  8
0
 10
31.2338
 20
190.245
 11
26.2555
 21
186.628
  0
LINE
  8
0
 10
26.2555
 20
186.628
 11
20.8632
 21
183.663
  0
LINE
  8
0
 10
20.8632
 20
183.663
 11
15.1418
 21
181.398
  0
LINE
  8
0
 10
15.1418
 20
181.398
 11
9.18167
 21
179.868
  0
LINE
  8
0
 10
9.18167
 20
179.868
 11
3.07672
 21
179.097
  0
LINE
  8
0
 10
3.07672
 20
179.097
 11
-3.07672
 21
179.097
  0
LINE
  8
0
 10
-3.07672
 20
179.097
 11
-9.18167
 21
179.868
  0
LINE
  8
0
 10
-9.18167
 20
179.868
 11
-15.1418
 21
181.398
  0
LINE
  8
0
 10
-15.1418
 20
181.398
 11
-20.8632
 21
183.663
  0
LINE
  8
0
 10
-20.8632
 20
183.663
 11
-26.2555
 21
186.628
  0
LINE
  8
0
 10
-26.2555
 20
186.628
 11
-31.2338
 21
190.245
  0
LINE
  8
0
 10
-31.2338
 20
190.245
 11
-35.7195
 21
194.457
  0
LINE
  8
0
 10
-35.7195
 20
194.457
 11
-39.6418
 21
199.199
  0
LINE
  8
0
 10
-39.6418
 20
199.199
 11
-42.939
 21
204.394
  0
LINE
  8
0
 10
-42.939
 20
204.394
 11
-45.559
 21
209.962
  0
LINE
  8
0
 10
-45.559
 20
209.962
 11
-47.4606
 21
215.814
  0
LINE
  8
0
 10
-47.4606
 20
215.814
 11
-48.6136
 21
221.859
  0
LINE
  8
0
 10
-48.6136
 20
221.859
 11
-49
 21
228
  0
LINE
  8
0
 10
-49
 20
228
 11
-48.6136
 21
234.141
  0
LINE
  8
0
 10
-48.6136
 20
234.141
 11
-47.4606
 21
240.186
  0
LINE
  8
0
 10
-47.4606
 20
240.186
 11
-45.559
 21
246.038
  0
LINE
  8
0
 10
-45.559
 20
246.038
 11
-42.939
 21
251.606
  0
LINE
  8
0
 10
-42.939
 20
251.606
 11
-39.6418
 21
256.801
  0
LINE
  8
0
 10
-39.6418
 20
256.801
 11
-35.7195
 21
261.543
  0
LINE
  8
0
 10
-35.7195
 20
261.543
 11
-31.2338
 21
265.755
  0
LINE
  8
0
 10
-31.2338
 20
265.755
 11
-26.2555
 21
269.372
  0
LINE
  8
0
 10
-26.2555
 20
269.372
 11
-20.8632
 21
272.337
  0
LINE
  8
0
 10
-20.8632
 20
272.337
 11
-15.1418
 21
274.602
  0
LINE
  8
0
 10
-15.1418
 20
274.602
 11
-9.18167
 21
276.132
  0
LINE
  8
0
 10
-9.18167
 20
276.132
 11
-3.07672
 21
276.903
  0
LINE
  8
0
 10
-3.07672
 20
276.903
 11
0
 21
276.903
  0
LINE
  8
0
 10
0
 20
276.903
 11
0
 21
277
  0
LINE
  8
0
 10
0
 20
277
 11
32
 21
277
  0
LINE
  8
0
 10
32
 20
277
 11
29.0099
 21
279.99
  0
LINE
  8
0
 10
29.0099
 20
279.99
 11
-19.5
 21
279.99
  0
LINE
  8
0
 10
-19.5
 20
279.99
 11
-19.5
 21
279
  0
LINE
  8
0
 10
-19.5
 20
279
 11
-51.5
 21
279
  0
LINE
  8
0
 10
-51.5
 20
279
 11
-51.5
 21
280
  0
LINE
  8
0
 10
-51.5
 20
280
 11
-52
 21
280
  0
LINE
  8
0
 10
-52
 20
280
 11
-52
 21
275.994
  0
LINE
  8
0
 10
-52
 20
275.994
 11
-44.8116
 21
275.994
  0
LINE
  8
0
 10
-44.8116
 20
275.994
 11
-44.4379
 21
275.947
  0
LINE
  8
0
 10
-44.4379
 20
275.947
 11
-44.0729
 21
275.853
  0
LINE
  8
0
 10
-44.0729
 20
275.853
 11
-43.7227
 21
275.714
  0
LINE
  8
0
 10
-43.7227
 20
275.714
 11
-43.3925
 21
275.533
  0
LINE
  8
0
 10
-43.3925
 20
275.533
 11
-43.0877
 21
275.312
  0
LINE
  8
0
 10
-43.0877
 20
275.312
 11
-42.8131
 21
275.054
  0
LINE
  8
0
 10
-42.8131
 20
275.054
 11
-42.5729
 21
274.763
  0
LINE
  8
0
 10
-42.5729
 20
274.763
 11
-42.3711
 21
274.445
  0
LINE
  8
0
 10
-42.3711
 20
274.445
 11
-42.2107
 21
274.104
  0
LINE
  8
0
 10
-42.2107
 20
274.104
 11
-42.0942
 21
273.746
  0
LINE
  8
0
 10
-42.0942
 20
273.746
 11
-42.0237
 21
273.376
  0
LINE
  8
0
 10
-42.0237
 20
273.376
 11
-42
 21
273
  0
LINE
  8
0
 10
-42
 20
273
 11
-42.0237
 21
272.624
  0
LINE
  8
0
 10
-42.0237
 20
272.624
 11
-42.0942
 21
272.254
  0
LINE
  8
0
 10
-42.0942
 20
272.254
 11
-42.2107
 21
271.896
  0
LINE
  8
0
 10
-42.2107
 20
271.896
 11
-42.3711
 21
271.555
  0
LINE
  8
0
 10
-42.3711
 20
271.555
 11
-42.5729
 21
271.237
  0
LINE
  8
0
 10
-42.5729
 20
271.237
 11
-42.8131
 21
270.946
  0
LINE
  8
0
 10
-42.8131
 20
270.946
 11
-43.0877
 21
270.688
  0
LINE
  8
0
 10
-43.0877
 20
270.688
 11
-43.3925
 21
270.467
  0
LINE
  8
0
 10
-43.3925
 20
270.467
 11
-43.7227
 21
270.286
  0
LINE
  8
0
 10
-43.7227
 20
270.286
 11
-44.0729
 21
270.147
  0
LINE
  8
0
 10
-44.0729
 20
270.147
 11
-44.4379
 21
270.053
  0
LINE
  8
0
 10
-44.4379
 20
270.053
 11
-44.8116
 21
270.006
  0
LINE
  8
0
 10
-44.8116
 20
270.006
 11
-52
 21
270.006
  0
LINE
  8
0
 10
-52
 20
270.006
 11
-52
 21
185.994
  0
LINE
  8
0
 10
-52
 20
185.994
 11
-44.8116
 21
185.994
  0
LINE
  8
0
 10
-44.8116
 20
185.994
 11
-44.4379
 21
185.947
  0
LINE
  8
0
 10
-44.4379
 20
185.947
 11
-44.0729
 21
185.853
  0
LINE
  8
0
 10
-44.0729
 20
185.853
 11
-43.7227
 21
185.714
  0
LINE
  8
0
 10
-43.7227
 20
185.714
 11
-43.3925
 21
185.533
  0
LINE
  8
0
 10
-43.3925
 20
185.533
 11
-43.0877
 21
185.312
  0
LINE
  8
0
 10
-43.0877
 20
185.312
 11
-42.8131
 21
185.054
  0
LINE
  8
0
 10
-42.8131
 20
185.054
 11
-42.5729
 21
184.763
  0
LINE
  8
0
 10
-42.5729
 20
184.763
 11
-42.3711
 21
184.445
  0
LINE
  8
0
 10
-42.3711
 20
184.445
 11
-42.2107
 21
184.104
  0
LINE
  8
0
 10
-42.2107
 20
184.104
 11
-42.0942
 21
183.746
  0
LINE
  8
0
 10
-42.0942
 20
183.746
 11
-42.0237
 21
183.376
  0
LINE
  8
0
 10
-42.0237
 20
183.376
 11
-42
 21
183
  0
LINE
  8
0
 10
-42
 20
183
 11
-42.0237
 21
182.624
  0
LINE
  8
0
 10
-42.0237
 20
182.624
 11
-42.0942
 21
182.254
  0
LINE
  8
0
 10
-42.0942
 20
182.254
 11
-42.2107
 21
181.896
  0
LINE
  8
0
 10
-42.2107
 20
181.896
 11
-42.3711
 21
181.555
  0
LINE
  8
0
 10
-42.3711
 20
181.555
 11
-42.5729
 21
181.237
  0
LINE
  8
0
 10
-42.5729
 20
181.237
 11
-42.8131
 21
180.946
  0
LINE
  8
0
 10
-42.8131
 20
180.946
 11
-43.0877
 21
180.688
  0
LINE
  8
0
 10
-43.0877
 20
180.688
 11
-43.3925
 21
180.467
  0
LINE
  8
0
 10
-43.3925
 20
180.467
 11
-43.7227
 21
180.286
  0
LINE
  8
0
 10
-43.7227
 20
180.286
 11
-44.0729
 21
180.147
  0
LINE
  8
0
 10
-44.0729
 20
180.147
 11
-44.4379
 21
180.053
  0
LINE
  8
0
 10
-44.4379
 20
180.053
 11
-44.8116
 21
180.006
  0
LINE
  8
0
 10
-44.8116
 20
180.006
 11
-51.8905
 21
180.006
  0
LINE
  8
0
 10
-51.8905
 20
180.006
 11
-51.8429
 21
179.757
  0
LINE
  8
0
 10
-51.8429
 20
179.757
 11
-51.6489
 21
179.159
  0
LINE
  8
0
 10
-51.6489
 20
179.159
 11
-51.3815
 21
178.591
  0
LINE
  8
0
 10
-51.3815
 20
178.591
 11
-51.0451
 21
178.061
  0
LINE
  8
0
 10
-51.0451
 20
178.061
 11
-50.6448
 21
177.577
  0
LINE
  8
0
 10
-50.6448
 20
177.577
 11
-50.1871
 21
177.147
  0
LINE
  8
0
 10
-50.1871
 20
177.147
 11
-49.6791
 21
176.778
  0
LINE
  8
0
 10
-49.6791
 20
176.778
 11
-49.1289
 21
176.476
  0
LINE
  8
0
 10
-49.1289
 20
176.476
 11
-48.5451
 21
176.245
  0
LINE
  8
0
 10
-48.5451
 20
176.245
 11
-47.9369
 21
176.089
  0
LINE
  8
0
 10
-47.9369
 20
176.089
 11
-47.3139
 21
176.01
  0
LINE
  8
0
 10
-47.3139
 20
176.01
 11
47.3139
 21
176.01
  0
LINE
  8
0
 10
47.3139
 20
176.01
 11
47.9369
 21
176.089
  0
LINE
  8
0
 10
44.8116
 20
180.006
 11
44.4379
 21
180.053
  0
LINE
  8
0
 10
44.4379
 20
180.053
 11
44.0729
 21
180.147
  0
LINE
  8
0
 10
44.0729
 20
180.147
 11
43.7227
 21
180.286
  0
LINE
  8
0
 10
43.7227
 20
180.286
 11
43.3925
 21
180.467
  0
LINE
  8
0
 10
43.3925
 20
180.467
 11
43.0877
 21
180.688
  0
LINE
  8
0
 10
43.0877
 20
180.688
 11
42.8131
 21
180.946
  0
LINE
  8
0
 10
42.8131
 20
180.946
 11
42.5729
 21
181.237
  0
LINE
  8
0
 10
42.5729
 20
181.237
 11
42.3711
 21
181.555
  0
LINE
  8
0
 10
42.3711
 20
181.555
 11
42.2107
 21
181.896
  0
LINE
  8
0
 10
42.2107
 20
181.896
 11
42.0942
 21
182.254
  0
LINE
  8
0
 10
42.0942
 20
182.254
 11
42.0237
 21
182.624
  0
LINE
  8
0
 10
42.0237
 20
182.624
 11
42
 21
183
  0
LINE
  8
0
 10
42
 20
183
 11
42.0237
 21
183.376
  0
LINE
  8
0
 10
42.0237
 20
183.376
 11
42.0942
 21
183.746
  0
LINE
  8
0
 10
42.0942
 20
183.746
 11
42.2107
 21
184.104
  0
LINE
  8
0
 10
42.2107
 20
184.104
 11
42.3711
 21
184.445
  0
LINE
  8
0
 10
42.3711
 20
184.445
 11
42.5729
 21
184.763
  0
LINE
  8
0
 10
42.5729
 20
184.763
 11
42.8131
 21
185.054
  0
LINE
  8
0
 10
42.8131
 20
185.054
 11
43.0877
 21
185.312
  0
LINE
  8
0
 10
43.0877
 20
185.312
 11
43.3925
 21
185.533
  0
LINE
  8
0
 10
43.3925
 20
185.533
 11
43.7227
 21
185.714
  0
LINE
  8
0
 10
43.7227
 20
185.714
 11
44.0729
 21
185.853
  0
LINE
  8
0
 10
44.0729
 20
185.853
 11
44.4379
 21
185.947
  0
LINE
  8
0
 10
44.4379
 20
185.947
 11
44.8116
 21
185.994
  0
LINE
  8
0
 10
44.8116
 20
185.994
 11
45.1884
 21
185.994
  0
LINE
  8
0
 10
45.1884
 20
185.994
 11
45.5621
 21
185.947
  0
LINE
  8
0
 10
45.5621
 20
185.947
 11
45.927
 21
185.853
  0
LINE
  8
0
 10
45.927
 20
185.853
 11
46.2773
 21
185.714
  0
LINE
  8
0
 10
46.2773
 20
185.714
 11
46.6075
 21
185.533
  0
LINE
  8
0
 10
46.6075
 20
185.533
 11
46.9123
 21
185.312
  0
LINE
  8
0
 10
46.9123
 20
185.312
 11
47.1869
 21
185.054
  0
LINE
  8
0
 10
47.1869
 20
185.054
 11
47.427
 21
184.763
  0
LINE
  8
0
 10
47.427
 20
184.763
 11
47.6289
 21
184.445
  0
LINE
  8
0
 10
47.6289
 20
184.445
 11
47.7893
 21
184.104
  0
LINE
  8
0
 10
47.7893
 20
184.104
 11
47.9057
 21
183.746
  0
LINE
  8
0
 10
47.9057
 20
183.746
 11
47.9763
 21
183.376
  0
LINE
  8
0
 10
47.9763
 20
183.376
 11
48
 21
183
  0
LINE
  8
0
 10
48
 20
183
 11
47.9763
 21
182.624
  0
LINE
  8
0
 10
47.9763
 20
182.624
 11
47.9057
 21
182.254
  0
LINE
  8
0
 10
47.9057
 20
182.254
 11
47.7893
 21
181.896
  0
LINE
  8
0
 10
47.7893
 20
181.896
 11
47.6289
 21
181.555
  0
LINE
  8
0
 10
47.6289
 20
181.555
 11
47.427
 21
181.237
  0
LINE
  8
0
 10
47.427
 20
181.237
 11
47.1869
 21
180.946
  0
LINE
  8
0
 10
47.1869
 20
180.946
 11
46.9123
 21
180.688
  0
LINE
  8
0
 10
46.9123
 20
180.688
 11
46.6075
 21
180.467
  0
LINE
  8
0
 10
46.6075
 20
180.467
 11
46.2773
 21
180.286
  0
LINE
  8
0
 10
46.2773
 20
180.286
 11
45.927
 21
180.147
  0
LINE
  8
0
 10
45.927
 20
180.147
 11
45.5621
 21
180.053
  0
LINE
  8
0
 10
45.5621
 20
180.053
 11
45.1884
 21
180.006
  0
LINE
  8
0
 10
45.1884
 20
180.006
 11
44.8116
 21
180.006
  0
LINE
  8
0
 10
42
 20
279.99
 11
31.1312
 21
279.99
  0
LINE
  8
0
 10
31.1312
 20
279.99
 11
34.1213
 21
277
  0
LINE
  8
0
 10
34.1213
 20
277
 11
42
 21
277
  0
LINE
  8
0
 10
42
 20
277
 11
42
 21
279.99
  0
ENDSEC
  0
SECTION
  2
OBJECTS
  0
DICTIONARY
  0
ENDSEC
  0
EOF
