  0
SECTION
  2
BLOCKS
  0
ENDSEC
  0
SECTION
  2
ENTITIES
  0
LINE
  8
0
 10
70.9369
 20
102.089
 11
71.5451
 21
102.245
  0
LINE
  8
0
 10
71.5451
 20
102.245
 11
72.1289
 21
102.476
  0
LINE
  8
0
 10
72.1289
 20
102.476
 11
72.6791
 21
102.778
  0
LINE
  8
0
 10
72.6791
 20
102.778
 11
73.1871
 21
103.147
  0
LINE
  8
0
 10
73.1871
 20
103.147
 11
73.6448
 21
103.577
  0
LINE
  8
0
 10
73.6448
 20
103.577
 11
74.0451
 21
104.061
  0
LINE
  8
0
 10
74.0451
 20
104.061
 11
74.3815
 21
104.591
  0
LINE
  8
0
 10
74.3815
 20
104.591
 11
74.6489
 21
105.159
  0
LINE
  8
0
 10
74.6489
 20
105.159
 11
74.8429
 21
105.757
  0
LINE
  8
0
 10
74.8429
 20
105.757
 11
74.9606
 21
106.373
  0
LINE
  8
0
 10
74.9606
 20
106.373
 11
75
 21
107
  0
LINE
  8
0
 10
75
 20
107
 11
75
 21
127
  0
LINE
  8
0
 10
75
 20
127
 11
74.9606
 21
127.627
  0
LINE
  8
0
 10
74.9606
 20
127.627
 11
74.8429
 21
128.243
  0
LINE
  8
0
 10
74.8429
 20
128.243
 11
74.6489
 21
128.841
  0
LINE
  8
0
 10
74.6489
 20
128.841
 11
74.3815
 21
129.409
  0
LINE
  8
0
 10
74.3815
 20
129.409
 11
74.0451
 21
129.939
  0
LINE
  8
0
 10
74.0451
 20
129.939
 11
73.6448
 21
130.423
  0
LINE
  8
0
 10
73.6448
 20
130.423
 11
73.1871
 21
130.853
  0
LINE
  8
0
 10
73.1871
 20
130.853
 11
72.6791
 21
131.222
  0
LINE
  8
0
 10
72.6791
 20
131.222
 11
72.1289
 21
131.524
  0
LINE
  8
0
 10
72.1289
 20
131.524
 11
71.5451
 21
131.755
  0
LINE
  8
0
 10
71.5451
 20
131.755
 11
70.9369
 21
131.911
  0
LINE
  8
0
 10
70.9369
 20
131.911
 11
70.3139
 21
131.99
  0
LINE
  8
0
 10
70.3139
 20
131.99
 11
-70.3139
 21
131.99
  0
LINE
  8
0
 10
-70.3139
 20
131.99
 11
-70.9369
 21
131.911
  0
LINE
  8
0
 10
-70.9369
 20
131.911
 11
-71.5451
 21
131.755
  0
LINE
  8
0
 10
-71.5451
 20
131.755
 11
-72.1289
 21
131.524
  0
LINE
  8
0
 10
-72.1289
 20
131.524
 11
-72.6791
 21
131.222
  0
LINE
  8
0
 10
-72.6791
 20
131.222
 11
-73.1871
 21
130.853
  0
LINE
  8
0
 10
-73.1871
 20
130.853
 11
-73.6448
 21
130.423
  0
LINE
  8
0
 10
-73.6448
 20
130.423
 11
-74.0451
 21
129.939
  0
LINE
  8
0
 10
-74.0451
 20
129.939
 11
-74.3815
 21
129.409
  0
LINE
  8
0
 10
-74.3815
 20
129.409
 11
-74.6489
 21
128.841
  0
LINE
  8
0
 10
-74.6489
 20
128.841
 11
-74.8429
 21
128.243
  0
LINE
  8
0
 10
-74.8429
 20
128.243
 11
-74.9606
 21
127.627
  0
LINE
  8
0
 10
-74.9606
 20
127.627
 11
-75
 21
127
  0
LINE
  8
0
 10
-75
 20
127
 11
-75
 21
107
  0
LINE
  8
0
 10
-75
 20
107
 11
-74.9606
 21
106.373
  0
LINE
  8
0
 10
-74.9606
 20
106.373
 11
-74.8429
 21
105.757
  0
LINE
  8
0
 10
-74.8429
 20
105.757
 11
-74.6489
 21
105.159
  0
LINE
  8
0
 10
-74.6489
 20
105.159
 11
-74.3815
 21
104.591
  0
LINE
  8
0
 10
-74.3815
 20
104.591
 11
-74.0451
 21
104.061
  0
LINE
  8
0
 10
-74.0451
 20
104.061
 11
-73.6448
 21
103.577
  0
LINE
  8
0
 10
-73.6448
 20
103.577
 11
-73.1871
 21
103.147
  0
LINE
  8
0
 10
-73.1871
 20
103.147
 11
-72.6791
 21
102.778
  0
LINE
  8
0
 10
-72.6791
 20
102.778
 11
-72.1289
 21
102.476
  0
LINE
  8
0
 10
-72.1289
 20
102.476
 11
-71.5451
 21
102.245
  0
LINE
  8
0
 10
-71.5451
 20
102.245
 11
-70.9369
 21
102.089
  0
LINE
  8
0
 10
-70.9369
 20
102.089
 11
-70.3139
 21
102.01
  0
LINE
  8
0
 10
-70.3139
 20
102.01
 11
70.3139
 21
102.01
  0
LINE
  8
0
 10
70.3139
 20
102.01
 11
70.9369
 21
102.089
  0
LINE
  8
0
 10
-70.0375
 20
102.681
 11
-70.6079
 21
102.753
  0
LINE
  8
0
 10
-70.6079
 20
102.753
 11
-71.1648
 21
102.896
  0
LINE
  8
0
 10
-71.1648
 20
102.896
 11
-71.6994
 21
103.107
  0
LINE
  8
0
 10
-71.6994
 20
103.107
 11
-72.2032
 21
103.384
  0
LINE
  8
0
 10
-72.2032
 20
103.384
 11
-72.6684
 21
103.722
  0
LINE
  8
0
 10
-72.6684
 20
103.722
 11
-73.0875
 21
104.116
  0
LINE
  8
0
 10
-73.0875
 20
104.116
 11
-73.454
 21
104.559
  0
LINE
  8
0
 10
-73.454
 20
104.559
 11
-73.7621
 21
105.044
  0
LINE
  8
0
 10
-73.7621
 20
105.044
 11
-74.0069
 21
105.565
  0
LINE
  8
0
 10
-74.0069
 20
105.565
 11
-74.1846
 21
106.111
  0
LINE
  8
0
 10
-74.1846
 20
106.111
 11
-74.2923
 21
106.676
  0
LINE
  8
0
 10
-74.2923
 20
106.676
 11
-74.3284
 21
107.25
  0
LINE
  8
0
 10
-74.3284
 20
107.25
 11
-74.3284
 21
126.75
  0
LINE
  8
0
 10
-74.3284
 20
126.75
 11
-74.2923
 21
127.324
  0
LINE
  8
0
 10
-74.2923
 20
127.324
 11
-74.1846
 21
127.889
  0
LINE
  8
0
 10
-74.1846
 20
127.889
 11
-74.0069
 21
128.435
  0
LINE
  8
0
 10
-74.0069
 20
128.435
 11
-73.7621
 21
128.956
  0
LINE
  8
0
 10
-73.7621
 20
128.956
 11
-73.454
 21
129.441
  0
LINE
  8
0
 10
-73.454
 20
129.441
 11
-73.0875
 21
129.884
  0
LINE
  8
0
 10
-73.0875
 20
129.884
 11
-72.6684
 21
130.278
  0
LINE
  8
0
 10
-72.6684
 20
130.278
 11
-72.2032
 21
130.616
  0
LINE
  8
0
 10
-72.2032
 20
130.616
 11
-71.6994
 21
130.893
  0
LINE
  8
0
 10
-71.6994
 20
130.893
 11
-71.1648
 21
131.104
  0
LINE
  8
0
 10
-71.1648
 20
131.104
 11
-70.6079
 21
131.247
  0
LINE
  8
0
 10
-70.6079
 20
131.247
 11
-70.0375
 21
131.319
  0
LINE
  8
0
 10
-70.0375
 20
131.319
 11
70.0375
 21
131.319
  0
LINE
  8
0
 10
70.0375
 20
131.319
 11
70.6079
 21
131.247
  0
LINE
  8
0
 10
70.6079
 20
131.247
 11
71.1648
 21
131.104
  0
LINE
  8
0
 10
71.1648
 20
131.104
 11
71.6994
 21
130.893
  0
LINE
  8
0
 10
71.6994
 20
130.893
 11
72.2032
 21
130.616
  0
LINE
  8
0
 10
72.2032
 20
130.616
 11
72.6684
 21
130.278
  0
LINE
  8
0
 10
72.6684
 20
130.278
 11
73.0875
 21
129.884
  0
LINE
  8
0
 10
73.0875
 20
129.884
 11
73.454
 21
129.441
  0
LINE
  8
0
 10
73.454
 20
129.441
 11
73.7621
 21
128.956
  0
LINE
  8
0
 10
73.7621
 20
128.956
 11
74.0069
 21
128.435
  0
LINE
  8
0
 10
74.0069
 20
128.435
 11
74.1846
 21
127.889
  0
LINE
  8
0
 10
74.1846
 20
127.889
 11
74.2923
 21
127.324
  0
LINE
  8
0
 10
74.2923
 20
127.324
 11
74.3284
 21
126.75
  0
LINE
  8
0
 10
74.3284
 20
126.75
 11
74.3284
 21
107.25
  0
LINE
  8
0
 10
74.3284
 20
107.25
 11
74.2923
 21
106.676
  0
LINE
  8
0
 10
74.2923
 20
106.676
 11
74.1846
 21
106.111
  0
LINE
  8
0
 10
74.1846
 20
106.111
 11
74.0069
 21
105.565
  0
LINE
  8
0
 10
74.0069
 20
105.565
 11
73.7621
 21
105.044
  0
LINE
  8
0
 10
73.7621
 20
105.044
 11
73.454
 21
104.559
  0
LINE
  8
0
 10
73.454
 20
104.559
 11
73.0875
 21
104.116
  0
LINE
  8
0
 10
73.0875
 20
104.116
 11
72.6684
 21
103.722
  0
LINE
  8
0
 10
72.6684
 20
103.722
 11
72.2032
 21
103.384
  0
LINE
  8
0
 10
72.2032
 20
103.384
 11
71.6994
 21
103.107
  0
LINE
  8
0
 10
71.6994
 20
103.107
 11
71.1648
 21
102.896
  0
LINE
  8
0
 10
71.1648
 20
102.896
 11
70.6079
 21
102.753
  0
LINE
  8
0
 10
70.6079
 20
102.753
 11
70.0375
 21
102.681
  0
LINE
  8
0
 10
70.0375
 20
102.681
 11
-70.0375
 21
102.681
  0
LINE
  8
0
 10
70.9369
 20
63.0886
 11
71.5451
 21
63.2447
  0
LINE
  8
0
 10
71.5451
 20
63.2447
 11
72.1289
 21
63.4759
  0
LINE
  8
0
 10
72.1289
 20
63.4759
 11
72.6791
 21
63.7784
  0
LINE
  8
0
 10
72.6791
 20
63.7784
 11
73.1871
 21
64.1474
  0
LINE
  8
0
 10
73.1871
 20
64.1474
 11
73.6448
 21
64.5773
  0
LINE
  8
0
 10
73.6448
 20
64.5773
 11
74.0451
 21
65.0611
  0
LINE
  8
0
 10
74.0451
 20
65.0611
 11
74.3815
 21
65.5912
  0
LINE
  8
0
 10
74.3815
 20
65.5912
 11
74.6489
 21
66.1594
  0
LINE
  8
0
 10
74.6489
 20
66.1594
 11
74.8429
 21
66.7566
  0
LINE
  8
0
 10
74.8429
 20
66.7566
 11
74.9606
 21
67.3733
  0
LINE
  8
0
 10
74.9606
 20
67.3733
 11
75
 21
68
  0
LINE
  8
0
 10
75
 20
68
 11
75
 21
88
  0
LINE
  8
0
 10
75
 20
88
 11
74.9606
 21
88.6267
  0
LINE
  8
0
 10
74.9606
 20
88.6267
 11
74.8429
 21
89.2434
  0
LINE
  8
0
 10
74.8429
 20
89.2434
 11
74.6489
 21
89.8406
  0
LINE
  8
0
 10
74.6489
 20
89.8406
 11
74.3815
 21
90.4088
  0
LINE
  8
0
 10
74.3815
 20
90.4088
 11
74.0451
 21
90.9389
  0
LINE
  8
0
 10
74.0451
 20
90.9389
 11
73.6448
 21
91.4227
  0
LINE
  8
0
 10
73.6448
 20
91.4227
 11
73.1871
 21
91.8526
  0
LINE
  8
0
 10
73.1871
 20
91.8526
 11
72.6791
 21
92.2216
  0
LINE
  8
0
 10
72.6791
 20
92.2216
 11
72.1289
 21
92.5241
  0
LINE
  8
0
 10
72.1289
 20
92.5241
 11
71.5451
 21
92.7553
  0
LINE
  8
0
 10
71.5451
 20
92.7553
 11
70.9369
 21
92.9114
  0
LINE
  8
0
 10
70.9369
 20
92.9114
 11
70.3139
 21
92.9901
  0
LINE
  8
0
 10
70.3139
 20
92.9901
 11
-70.3139
 21
92.9901
  0
LINE
  8
0
 10
-70.3139
 20
92.9901
 11
-70.9369
 21
92.9114
  0
LINE
  8
0
 10
-70.9369
 20
92.9114
 11
-71.5451
 21
92.7553
  0
LINE
  8
0
 10
-71.5451
 20
92.7553
 11
-72.1289
 21
92.5241
  0
LINE
  8
0
 10
-72.1289
 20
92.5241
 11
-72.6791
 21
92.2216
  0
LINE
  8
0
 10
-72.6791
 20
92.2216
 11
-73.1871
 21
91.8526
  0
LINE
  8
0
 10
-73.1871
 20
91.8526
 11
-73.6448
 21
91.4227
  0
LINE
  8
0
 10
-73.6448
 20
91.4227
 11
-74.0451
 21
90.9389
  0
LINE
  8
0
 10
-74.0451
 20
90.9389
 11
-74.3815
 21
90.4088
  0
LINE
  8
0
 10
-74.3815
 20
90.4088
 11
-74.6489
 21
89.8406
  0
LINE
  8
0
 10
-74.6489
 20
89.8406
 11
-74.8429
 21
89.2434
  0
LINE
  8
0
 10
-74.8429
 20
89.2434
 11
-74.9606
 21
88.6267
  0
LINE
  8
0
 10
-74.9606
 20
88.6267
 11
-75
 21
88
  0
LINE
  8
0
 10
-75
 20
88
 11
-75
 21
68
  0
LINE
  8
0
 10
-75
 20
68
 11
-74.9606
 21
67.3733
  0
LINE
  8
0
 10
-74.9606
 20
67.3733
 11
-74.8429
 21
66.7566
  0
LINE
  8
0
 10
-74.8429
 20
66.7566
 11
-74.6489
 21
66.1594
  0
LINE
  8
0
 10
-74.6489
 20
66.1594
 11
-74.3815
 21
65.5912
  0
LINE
  8
0
 10
-74.3815
 20
65.5912
 11
-74.0451
 21
65.0611
  0
LINE
  8
0
 10
-74.0451
 20
65.0611
 11
-73.6448
 21
64.5773
  0
LINE
  8
0
 10
-73.6448
 20
64.5773
 11
-73.1871
 21
64.1474
  0
LINE
  8
0
 10
-73.1871
 20
64.1474
 11
-72.6791
 21
63.7784
  0
LINE
  8
0
 10
-72.6791
 20
63.7784
 11
-72.1289
 21
63.4759
  0
LINE
  8
0
 10
-72.1289
 20
63.4759
 11
-71.5451
 21
63.2447
  0
LINE
  8
0
 10
-71.5451
 20
63.2447
 11
-70.9369
 21
63.0886
  0
LINE
  8
0
 10
-70.9369
 20
63.0886
 11
-70.3139
 21
63.0099
  0
LINE
  8
0
 10
-70.3139
 20
63.0099
 11
70.3139
 21
63.0099
  0
LINE
  8
0
 10
70.3139
 20
63.0099
 11
70.9369
 21
63.0886
  0
LINE
  8
0
 10
-69.8825
 20
66.1445
 11
-70.1453
 21
66.1777
  0
LINE
  8
0
 10
-70.1453
 20
66.1777
 11
-70.4019
 21
66.2436
  0
LINE
  8
0
 10
-70.4019
 20
66.2436
 11
-70.6482
 21
66.3412
  0
LINE
  8
0
 10
-70.6482
 20
66.3412
 11
-70.8804
 21
66.4688
  0
LINE
  8
0
 10
-70.8804
 20
66.4688
 11
-71.0947
 21
66.6245
  0
LINE
  8
0
 10
-71.0947
 20
66.6245
 11
-71.2879
 21
66.8059
  0
LINE
  8
0
 10
-71.2879
 20
66.8059
 11
-71.4567
 21
67.01
  0
LINE
  8
0
 10
-71.4567
 20
67.01
 11
-71.5987
 21
67.2337
  0
LINE
  8
0
 10
-71.5987
 20
67.2337
 11
-71.7115
 21
67.4734
  0
LINE
  8
0
 10
-71.7115
 20
67.4734
 11
-71.7934
 21
67.7254
  0
LINE
  8
0
 10
-71.7934
 20
67.7254
 11
-71.843
 21
67.9856
  0
LINE
  8
0
 10
-71.843
 20
67.9856
 11
-71.8596
 21
68.25
  0
LINE
  8
0
 10
-71.8596
 20
68.25
 11
-71.8596
 21
87.75
  0
LINE
  8
0
 10
-71.8596
 20
87.75
 11
-71.843
 21
88.0144
  0
LINE
  8
0
 10
-71.843
 20
88.0144
 11
-71.7934
 21
88.2746
  0
LINE
  8
0
 10
-71.7934
 20
88.2746
 11
-71.7115
 21
88.5266
  0
LINE
  8
0
 10
-71.7115
 20
88.5266
 11
-71.5987
 21
88.7663
  0
LINE
  8
0
 10
-71.5987
 20
88.7663
 11
-71.4567
 21
88.99
  0
LINE
  8
0
 10
-71.4567
 20
88.99
 11
-71.2879
 21
89.1941
  0
LINE
  8
0
 10
-71.2879
 20
89.1941
 11
-71.0947
 21
89.3755
  0
LINE
  8
0
 10
-71.0947
 20
89.3755
 11
-70.8804
 21
89.5312
  0
LINE
  8
0
 10
-70.8804
 20
89.5312
 11
-70.6482
 21
89.6588
  0
LINE
  8
0
 10
-70.6482
 20
89.6588
 11
-70.4019
 21
89.7564
  0
LINE
  8
0
 10
-70.4019
 20
89.7564
 11
-70.1453
 21
89.8223
  0
LINE
  8
0
 10
-70.1453
 20
89.8223
 11
-69.8825
 21
89.8555
  0
LINE
  8
0
 10
-69.8825
 20
89.8555
 11
69.8825
 21
89.8555
  0
LINE
  8
0
 10
69.8825
 20
89.8555
 11
70.1453
 21
89.8223
  0
LINE
  8
0
 10
70.1453
 20
89.8223
 11
70.4019
 21
89.7564
  0
LINE
  8
0
 10
70.4019
 20
89.7564
 11
70.6482
 21
89.6588
  0
LINE
  8
0
 10
70.6482
 20
89.6588
 11
70.8804
 21
89.5312
  0
LINE
  8
0
 10
70.8804
 20
89.5312
 11
71.0947
 21
89.3755
  0
LINE
  8
0
 10
71.0947
 20
89.3755
 11
71.2879
 21
89.1941
  0
LINE
  8
0
 10
71.2879
 20
89.1941
 11
71.4567
 21
88.99
  0
LINE
  8
0
 10
71.4567
 20
88.99
 11
71.5987
 21
88.7663
  0
LINE
  8
0
 10
71.5987
 20
88.7663
 11
71.7115
 21
88.5266
  0
LINE
  8
0
 10
71.7115
 20
88.5266
 11
71.7934
 21
88.2746
  0
LINE
  8
0
 10
71.7934
 20
88.2746
 11
71.843
 21
88.0144
  0
LINE
  8
0
 10
71.843
 20
88.0144
 11
71.8596
 21
87.75
  0
LINE
  8
0
 10
71.8596
 20
87.75
 11
71.8596
 21
68.25
  0
LINE
  8
0
 10
71.8596
 20
68.25
 11
71.843
 21
67.9856
  0
LINE
  8
0
 10
71.843
 20
67.9856
 11
71.7934
 21
67.7254
  0
LINE
  8
0
 10
71.7934
 20
67.7254
 11
71.7115
 21
67.4734
  0
LINE
  8
0
 10
71.7115
 20
67.4734
 11
71.5987
 21
67.2337
  0
LINE
  8
0
 10
71.5987
 20
67.2337
 11
71.4567
 21
67.01
  0
LINE
  8
0
 10
71.4567
 20
67.01
 11
71.2879
 21
66.8059
  0
LINE
  8
0
 10
71.2879
 20
66.8059
 11
71.0947
 21
66.6245
  0
LINE
  8
0
 10
71.0947
 20
66.6245
 11
70.8804
 21
66.4688
  0
LINE
  8
0
 10
70.8804
 20
66.4688
 11
70.6482
 21
66.3412
  0
LINE
  8
0
 10
70.6482
 20
66.3412
 11
70.4019
 21
66.2436
  0
LINE
  8
0
 10
70.4019
 20
66.2436
 11
70.1453
 21
66.1777
  0
LINE
  8
0
 10
70.1453
 20
66.1777
 11
69.8825
 21
66.1445
  0
LINE
  8
0
 10
69.8825
 20
66.1445
 11
-69.8825
 21
66.1445
  0
ENDSEC
  0
SECTION
  2
OBJECTS
  0
DICTIONARY
  0
ENDSEC
  0
EOF
