<?xml version="1.0" standalone="no"?>
<!DOCTYPE svg PUBLIC "-//W3C//DTD SVG 1.1//EN" "http://www.w3.org/Graphics/SVG/1.1/DTD/svg11.dtd">
<svg width="182mm" height="40mm" viewBox="-92 -56 182 40" xmlns="http://www.w3.org/2000/svg" version="1.1">
<title>OpenSCAD Model</title>
<path d="
M 85.9369,-40.5886 L 86.5451,-40.7447 L 87.1289,-40.9759 L 87.6791,-41.2784 L 88.1871,-41.6474 L 88.6448,-42.0773
 L 89.0451,-42.5611 L 89.3815,-43.0912 L 89.6489,-43.6594 L 89.8429,-44.2566 L 89.9606,-44.8733 L 90,-45.5
 L 90,-50.5 L 89.9606,-51.1267 L 89.8429,-51.7434 L 89.6489,-52.3406 L 89.3815,-52.9088 L 89.0451,-53.4389
 L 88.6448,-53.9227 L 88.1871,-54.3526 L 87.6791,-54.7216 L 87.1289,-55.0241 L 86.5451,-55.2553 L 85.9369,-55.4114
 L 85.3139,-55.4901 L -85.3139,-55.4901 L -85.9369,-55.4114 L -86.5451,-55.2553 L -87.1289,-55.0241 L -87.6791,-54.7216
 L -88.1871,-54.3526 L -88.5,-54.0587 L -88.5,-55.1148 L -91.5,-55.1148 L -91.5,-40.8852 L -88.5,-40.8852
 L -88.5,-41.9413 L -88.1871,-41.6474 L -87.6791,-41.2784 L -87.1289,-40.9759 L -86.5451,-40.7447 L -85.9369,-40.5886
 L -85.3139,-40.5099 L 85.3139,-40.5099 z
M 85.9369,-16.5886 L 86.5451,-16.7447 L 87.1289,-16.9759 L 87.6791,-17.2784 L 88.1871,-17.6474 L 88.6448,-18.0773
 L 89.0451,-18.5611 L 89.3815,-19.0912 L 89.6489,-19.6594 L 89.8429,-20.2566 L 89.9606,-20.8733 L 90,-21.5
 L 90,-26.5 L 89.9606,-27.1267 L 89.8429,-27.7434 L 89.6489,-28.3406 L 89.3815,-28.9088 L 89.0451,-29.4389
 L 88.6448,-29.9227 L 88.1871,-30.3526 L 87.6791,-30.7216 L 87.1289,-31.0241 L 86.5451,-31.2553 L 85.9369,-31.4114
 L 85.3139,-31.4901 L -85.3139,-31.4901 L -85.9369,-31.4114 L -86.5451,-31.2553 L -87.1289,-31.0241 L -87.6791,-30.7216
 L -88.1871,-30.3526 L -88.6448,-29.9227 L -89.0451,-29.4389 L -89.3815,-28.9088 L -89.6489,-28.3406 L -89.8429,-27.7434
 L -89.9,-27.4442 L -91.5,-27.4442 L -91.5,-20.5558 L -89.9,-20.5558 L -89.8429,-20.2566 L -89.6489,-19.6594
 L -89.3815,-19.0912 L -89.0451,-18.5611 L -88.6448,-18.0773 L -88.1871,-17.6474 L -87.6791,-17.2784 L -87.1289,-16.9759
 L -86.5451,-16.7447 L -85.9369,-16.5886 L -85.3139,-16.5099 L 85.3139,-16.5099 z
M -82.613,-22.2036 L -82.8373,-22.2319 L -83.0562,-22.2881 L -83.2664,-22.3713 L -83.4645,-22.4802 L -83.6474,-22.6131
 L -83.8121,-22.7678 L -83.9562,-22.942 L -84.0773,-23.1329 L -84.1736,-23.3374 L -84.2434,-23.5524 L -84.2858,-23.7744
 L -84.3,-24 L -84.2858,-24.2256 L -84.2434,-24.4476 L -84.1736,-24.6626 L -84.0773,-24.8671 L -83.9562,-25.058
 L -83.8121,-25.2322 L -83.6474,-25.3869 L -83.4645,-25.5198 L -83.2664,-25.6287 L -83.0562,-25.7119 L -82.8373,-25.7681
 L -82.613,-25.7964 L -82.387,-25.7964 L -82.1627,-25.7681 L -81.9438,-25.7119 L -81.7336,-25.6287 L -81.5355,-25.5198
 L -81.3526,-25.3869 L -81.1879,-25.2322 L -81.0438,-25.058 L -80.9226,-24.8671 L -80.8264,-24.6626 L -80.7565,-24.4476
 L -80.7142,-24.2256 L -80.7,-24 L -80.7142,-23.7744 L -80.7565,-23.5524 L -80.8264,-23.3374 L -80.9226,-23.1329
 L -81.0438,-22.942 L -81.1879,-22.7678 L -81.3526,-22.6131 L -81.5355,-22.4802 L -81.7336,-22.3713 L -81.9438,-22.2881
 L -82.1627,-22.2319 L -82.387,-22.2036 z
M 82.387,-22.2036 L 82.1627,-22.2319 L 81.9438,-22.2881 L 81.7336,-22.3713 L 81.5355,-22.4802 L 81.3526,-22.6131
 L 81.1879,-22.7678 L 81.0438,-22.942 L 80.9226,-23.1329 L 80.8264,-23.3374 L 80.7565,-23.5524 L 80.7142,-23.7744
 L 80.7,-24 L 80.7142,-24.2256 L 80.7565,-24.4476 L 80.8264,-24.6626 L 80.9226,-24.8671 L 81.0438,-25.058
 L 81.1879,-25.2322 L 81.3526,-25.3869 L 81.5355,-25.5198 L 81.7336,-25.6287 L 81.9438,-25.7119 L 82.1627,-25.7681
 L 82.387,-25.7964 L 82.613,-25.7964 L 82.8373,-25.7681 L 83.0562,-25.7119 L 83.2664,-25.6287 L 83.4645,-25.5198
 L 83.6474,-25.3869 L 83.8121,-25.2322 L 83.9562,-25.058 L 84.0773,-24.8671 L 84.1736,-24.6626 L 84.2434,-24.4476
 L 84.2858,-24.2256 L 84.3,-24 L 84.2858,-23.7744 L 84.2434,-23.5524 L 84.1736,-23.3374 L 84.0773,-23.1329
 L 83.9562,-22.942 L 83.8121,-22.7678 L 83.6474,-22.6131 L 83.4645,-22.4802 L 83.2664,-22.3713 L 83.0562,-22.2881
 L 82.8373,-22.2319 L 82.613,-22.2036 z
" stroke="black" fill="lightgray" stroke-width="0.5"/>
</svg>
