  0
SECTION
  2
BLOCKS
  0
ENDSEC
  0
SECTION
  2
ENTITIES
  0
LINE
  8
0
 10
40.9369
 20
63.0886
 11
41.5451
 21
63.2447
  0
LINE
  8
0
 10
41.5451
 20
63.2447
 11
42.1289
 21
63.4759
  0
LINE
  8
0
 10
42.1289
 20
63.4759
 11
42.6791
 21
63.7784
  0
LINE
  8
0
 10
42.6791
 20
63.7784
 11
43.1871
 21
64.1474
  0
LINE
  8
0
 10
43.1871
 20
64.1474
 11
43.6448
 21
64.5773
  0
LINE
  8
0
 10
43.6448
 20
64.5773
 11
44.0451
 21
65.0611
  0
LINE
  8
0
 10
44.0451
 20
65.0611
 11
44.3815
 21
65.5912
  0
LINE
  8
0
 10
44.3815
 20
65.5912
 11
44.6489
 21
66.1594
  0
LINE
  8
0
 10
44.6489
 20
66.1594
 11
44.8429
 21
66.7566
  0
LINE
  8
0
 10
44.8429
 20
66.7566
 11
44.9606
 21
67.3733
  0
LINE
  8
0
 10
44.9606
 20
67.3733
 11
45
 21
68
  0
LINE
  8
0
 10
45
 20
68
 11
45
 21
88
  0
LINE
  8
0
 10
45
 20
88
 11
44.9606
 21
88.6267
  0
LINE
  8
0
 10
44.9606
 20
88.6267
 11
44.8429
 21
89.2434
  0
LINE
  8
0
 10
44.8429
 20
89.2434
 11
44.6489
 21
89.8406
  0
LINE
  8
0
 10
44.6489
 20
89.8406
 11
44.3815
 21
90.4088
  0
LINE
  8
0
 10
44.3815
 20
90.4088
 11
44.0451
 21
90.9389
  0
LINE
  8
0
 10
44.0451
 20
90.9389
 11
43.6448
 21
91.4227
  0
LINE
  8
0
 10
43.6448
 20
91.4227
 11
43.1871
 21
91.8526
  0
LINE
  8
0
 10
43.1871
 20
91.8526
 11
42.6791
 21
92.2216
  0
LINE
  8
0
 10
42.6791
 20
92.2216
 11
42.1289
 21
92.5241
  0
LINE
  8
0
 10
42.1289
 20
92.5241
 11
41.5451
 21
92.7553
  0
LINE
  8
0
 10
41.5451
 20
92.7553
 11
40.9369
 21
92.9114
  0
LINE
  8
0
 10
40.9369
 20
92.9114
 11
40.3139
 21
92.9901
  0
LINE
  8
0
 10
40.3139
 20
92.9901
 11
-40.3139
 21
92.9901
  0
LINE
  8
0
 10
-40.3139
 20
92.9901
 11
-40.9369
 21
92.9114
  0
LINE
  8
0
 10
-40.9369
 20
92.9114
 11
-41.5451
 21
92.7553
  0
LINE
  8
0
 10
-41.5451
 20
92.7553
 11
-42.1289
 21
92.5241
  0
LINE
  8
0
 10
-42.1289
 20
92.5241
 11
-42.6791
 21
92.2216
  0
LINE
  8
0
 10
-42.6791
 20
92.2216
 11
-43.1871
 21
91.8526
  0
LINE
  8
0
 10
-43.1871
 20
91.8526
 11
-43.6448
 21
91.4227
  0
LINE
  8
0
 10
-43.6448
 20
91.4227
 11
-44.0451
 21
90.9389
  0
LINE
  8
0
 10
-44.0451
 20
90.9389
 11
-44.3815
 21
90.4088
  0
LINE
  8
0
 10
-44.3815
 20
90.4088
 11
-44.6489
 21
89.8406
  0
LINE
  8
0
 10
-44.6489
 20
89.8406
 11
-44.8429
 21
89.2434
  0
LINE
  8
0
 10
-44.8429
 20
89.2434
 11
-44.9606
 21
88.6267
  0
LINE
  8
0
 10
-44.9606
 20
88.6267
 11
-45
 21
88
  0
LINE
  8
0
 10
-45
 20
88
 11
-45
 21
68
  0
LINE
  8
0
 10
-45
 20
68
 11
-44.9606
 21
67.3733
  0
LINE
  8
0
 10
-44.9606
 20
67.3733
 11
-44.8429
 21
66.7566
  0
LINE
  8
0
 10
-44.8429
 20
66.7566
 11
-44.6489
 21
66.1594
  0
LINE
  8
0
 10
-44.6489
 20
66.1594
 11
-44.3815
 21
65.5912
  0
LINE
  8
0
 10
-44.3815
 20
65.5912
 11
-44.0451
 21
65.0611
  0
LINE
  8
0
 10
-44.0451
 20
65.0611
 11
-43.6448
 21
64.5773
  0
LINE
  8
0
 10
-43.6448
 20
64.5773
 11
-43.1871
 21
64.1474
  0
LINE
  8
0
 10
-43.1871
 20
64.1474
 11
-42.6791
 21
63.7784
  0
LINE
  8
0
 10
-42.6791
 20
63.7784
 11
-42.1289
 21
63.4759
  0
LINE
  8
0
 10
-42.1289
 20
63.4759
 11
-41.5451
 21
63.2447
  0
LINE
  8
0
 10
-41.5451
 20
63.2447
 11
-40.9369
 21
63.0886
  0
LINE
  8
0
 10
-40.9369
 20
63.0886
 11
-40.3139
 21
63.0099
  0
LINE
  8
0
 10
-40.3139
 20
63.0099
 11
40.3139
 21
63.0099
  0
LINE
  8
0
 10
40.3139
 20
63.0099
 11
40.9369
 21
63.0886
  0
LINE
  8
0
 10
-39.993
 20
64.3882
 11
-40.4751
 21
64.4491
  0
LINE
  8
0
 10
-40.4751
 20
64.4491
 11
-40.9457
 21
64.5699
  0
LINE
  8
0
 10
-40.9457
 20
64.5699
 11
-41.3975
 21
64.7488
  0
LINE
  8
0
 10
-41.3975
 20
64.7488
 11
-41.8234
 21
64.9829
  0
LINE
  8
0
 10
-41.8234
 20
64.9829
 11
-42.2165
 21
65.2685
  0
LINE
  8
0
 10
-42.2165
 20
65.2685
 11
-42.5707
 21
65.6012
  0
LINE
  8
0
 10
-42.5707
 20
65.6012
 11
-42.8805
 21
65.9756
  0
LINE
  8
0
 10
-42.8805
 20
65.9756
 11
-43.1408
 21
66.3859
  0
LINE
  8
0
 10
-43.1408
 20
66.3859
 11
-43.3477
 21
66.8256
  0
LINE
  8
0
 10
-43.3477
 20
66.8256
 11
-43.4979
 21
67.2877
  0
LINE
  8
0
 10
-43.4979
 20
67.2877
 11
-43.589
 21
67.765
  0
LINE
  8
0
 10
-43.589
 20
67.765
 11
-43.6195
 21
68.25
  0
LINE
  8
0
 10
-43.6195
 20
68.25
 11
-43.6195
 21
87.75
  0
LINE
  8
0
 10
-43.6195
 20
87.75
 11
-43.589
 21
88.235
  0
LINE
  8
0
 10
-43.589
 20
88.235
 11
-43.4979
 21
88.7123
  0
LINE
  8
0
 10
-43.4979
 20
88.7123
 11
-43.3477
 21
89.1744
  0
LINE
  8
0
 10
-43.3477
 20
89.1744
 11
-43.1408
 21
89.6141
  0
LINE
  8
0
 10
-43.1408
 20
89.6141
 11
-42.8805
 21
90.0244
  0
LINE
  8
0
 10
-42.8805
 20
90.0244
 11
-42.5707
 21
90.3988
  0
LINE
  8
0
 10
-42.5707
 20
90.3988
 11
-42.2165
 21
90.7315
  0
LINE
  8
0
 10
-42.2165
 20
90.7315
 11
-41.8234
 21
91.0171
  0
LINE
  8
0
 10
-41.8234
 20
91.0171
 11
-41.3975
 21
91.2512
  0
LINE
  8
0
 10
-41.3975
 20
91.2512
 11
-40.9457
 21
91.4301
  0
LINE
  8
0
 10
-40.9457
 20
91.4301
 11
-40.4751
 21
91.5509
  0
LINE
  8
0
 10
-40.4751
 20
91.5509
 11
-39.993
 21
91.6118
  0
LINE
  8
0
 10
-39.993
 20
91.6118
 11
39.993
 21
91.6118
  0
LINE
  8
0
 10
39.993
 20
91.6118
 11
40.4751
 21
91.5509
  0
LINE
  8
0
 10
40.4751
 20
91.5509
 11
40.9457
 21
91.4301
  0
LINE
  8
0
 10
40.9457
 20
91.4301
 11
41.3975
 21
91.2512
  0
LINE
  8
0
 10
41.3975
 20
91.2512
 11
41.8234
 21
91.0171
  0
LINE
  8
0
 10
41.8234
 20
91.0171
 11
42.2165
 21
90.7315
  0
LINE
  8
0
 10
42.2165
 20
90.7315
 11
42.5707
 21
90.3988
  0
LINE
  8
0
 10
42.5707
 20
90.3988
 11
42.8805
 21
90.0244
  0
LINE
  8
0
 10
42.8805
 20
90.0244
 11
43.1408
 21
89.6141
  0
LINE
  8
0
 10
43.1408
 20
89.6141
 11
43.3477
 21
89.1744
  0
LINE
  8
0
 10
43.3477
 20
89.1744
 11
43.4979
 21
88.7123
  0
LINE
  8
0
 10
43.4979
 20
88.7123
 11
43.589
 21
88.235
  0
LINE
  8
0
 10
43.589
 20
88.235
 11
43.6195
 21
87.75
  0
LINE
  8
0
 10
43.6195
 20
87.75
 11
43.6195
 21
68.25
  0
LINE
  8
0
 10
43.6195
 20
68.25
 11
43.589
 21
67.765
  0
LINE
  8
0
 10
43.589
 20
67.765
 11
43.4979
 21
67.2877
  0
LINE
  8
0
 10
43.4979
 20
67.2877
 11
43.3477
 21
66.8256
  0
LINE
  8
0
 10
43.3477
 20
66.8256
 11
43.1408
 21
66.3859
  0
LINE
  8
0
 10
43.1408
 20
66.3859
 11
42.8805
 21
65.9756
  0
LINE
  8
0
 10
42.8805
 20
65.9756
 11
42.5707
 21
65.6012
  0
LINE
  8
0
 10
42.5707
 20
65.6012
 11
42.2165
 21
65.2685
  0
LINE
  8
0
 10
42.2165
 20
65.2685
 11
41.8234
 21
64.9829
  0
LINE
  8
0
 10
41.8234
 20
64.9829
 11
41.3975
 21
64.7488
  0
LINE
  8
0
 10
41.3975
 20
64.7488
 11
40.9457
 21
64.5699
  0
LINE
  8
0
 10
40.9457
 20
64.5699
 11
40.4751
 21
64.4491
  0
LINE
  8
0
 10
40.4751
 20
64.4491
 11
39.993
 21
64.3882
  0
LINE
  8
0
 10
39.993
 20
64.3882
 11
-39.993
 21
64.3882
  0
LINE
  8
0
 10
40.9369
 20
24.0886
 11
41.5451
 21
24.2447
  0
LINE
  8
0
 10
41.5451
 20
24.2447
 11
42.1289
 21
24.4759
  0
LINE
  8
0
 10
42.1289
 20
24.4759
 11
42.6791
 21
24.7784
  0
LINE
  8
0
 10
42.6791
 20
24.7784
 11
43.1871
 21
25.1474
  0
LINE
  8
0
 10
43.1871
 20
25.1474
 11
43.6448
 21
25.5773
  0
LINE
  8
0
 10
43.6448
 20
25.5773
 11
44.0451
 21
26.0611
  0
LINE
  8
0
 10
44.0451
 20
26.0611
 11
44.3815
 21
26.5912
  0
LINE
  8
0
 10
44.3815
 20
26.5912
 11
44.6489
 21
27.1594
  0
LINE
  8
0
 10
44.6489
 20
27.1594
 11
44.8429
 21
27.7566
  0
LINE
  8
0
 10
44.8429
 20
27.7566
 11
44.9606
 21
28.3733
  0
LINE
  8
0
 10
44.9606
 20
28.3733
 11
45
 21
29
  0
LINE
  8
0
 10
45
 20
29
 11
45
 21
49
  0
LINE
  8
0
 10
45
 20
49
 11
44.9606
 21
49.6267
  0
LINE
  8
0
 10
44.9606
 20
49.6267
 11
44.8429
 21
50.2434
  0
LINE
  8
0
 10
44.8429
 20
50.2434
 11
44.6489
 21
50.8406
  0
LINE
  8
0
 10
44.6489
 20
50.8406
 11
44.3815
 21
51.4088
  0
LINE
  8
0
 10
44.3815
 20
51.4088
 11
44.0451
 21
51.9389
  0
LINE
  8
0
 10
44.0451
 20
51.9389
 11
43.6448
 21
52.4227
  0
LINE
  8
0
 10
43.6448
 20
52.4227
 11
43.1871
 21
52.8526
  0
LINE
  8
0
 10
43.1871
 20
52.8526
 11
42.6791
 21
53.2216
  0
LINE
  8
0
 10
42.6791
 20
53.2216
 11
42.1289
 21
53.5241
  0
LINE
  8
0
 10
42.1289
 20
53.5241
 11
41.5451
 21
53.7553
  0
LINE
  8
0
 10
41.5451
 20
53.7553
 11
40.9369
 21
53.9114
  0
LINE
  8
0
 10
40.9369
 20
53.9114
 11
40.3139
 21
53.9901
  0
LINE
  8
0
 10
40.3139
 20
53.9901
 11
-40.3139
 21
53.9901
  0
LINE
  8
0
 10
-40.3139
 20
53.9901
 11
-40.9369
 21
53.9114
  0
LINE
  8
0
 10
-40.9369
 20
53.9114
 11
-41.5451
 21
53.7553
  0
LINE
  8
0
 10
-41.5451
 20
53.7553
 11
-42.1289
 21
53.5241
  0
LINE
  8
0
 10
-42.1289
 20
53.5241
 11
-42.6791
 21
53.2216
  0
LINE
  8
0
 10
-42.6791
 20
53.2216
 11
-43.1871
 21
52.8526
  0
LINE
  8
0
 10
-43.1871
 20
52.8526
 11
-43.6448
 21
52.4227
  0
LINE
  8
0
 10
-43.6448
 20
52.4227
 11
-44.0451
 21
51.9389
  0
LINE
  8
0
 10
-44.0451
 20
51.9389
 11
-44.3815
 21
51.4088
  0
LINE
  8
0
 10
-44.3815
 20
51.4088
 11
-44.6489
 21
50.8406
  0
LINE
  8
0
 10
-44.6489
 20
50.8406
 11
-44.8429
 21
50.2434
  0
LINE
  8
0
 10
-44.8429
 20
50.2434
 11
-44.9606
 21
49.6267
  0
LINE
  8
0
 10
-44.9606
 20
49.6267
 11
-45
 21
49
  0
LINE
  8
0
 10
-45
 20
49
 11
-45
 21
29
  0
LINE
  8
0
 10
-45
 20
29
 11
-44.9606
 21
28.3733
  0
LINE
  8
0
 10
-44.9606
 20
28.3733
 11
-44.8429
 21
27.7566
  0
LINE
  8
0
 10
-44.8429
 20
27.7566
 11
-44.6489
 21
27.1594
  0
LINE
  8
0
 10
-44.6489
 20
27.1594
 11
-44.3815
 21
26.5912
  0
LINE
  8
0
 10
-44.3815
 20
26.5912
 11
-44.0451
 21
26.0611
  0
LINE
  8
0
 10
-44.0451
 20
26.0611
 11
-43.6448
 21
25.5773
  0
LINE
  8
0
 10
-43.6448
 20
25.5773
 11
-43.1871
 21
25.1474
  0
LINE
  8
0
 10
-43.1871
 20
25.1474
 11
-42.6791
 21
24.7784
  0
LINE
  8
0
 10
-42.6791
 20
24.7784
 11
-42.1289
 21
24.4759
  0
LINE
  8
0
 10
-42.1289
 20
24.4759
 11
-41.5451
 21
24.2447
  0
LINE
  8
0
 10
-41.5451
 20
24.2447
 11
-40.9369
 21
24.0886
  0
LINE
  8
0
 10
-40.9369
 20
24.0886
 11
-40.3139
 21
24.0099
  0
LINE
  8
0
 10
-40.3139
 20
24.0099
 11
40.3139
 21
24.0099
  0
LINE
  8
0
 10
40.3139
 20
24.0099
 11
40.9369
 21
24.0886
  0
LINE
  8
0
 10
37.387
 20
44.7036
 11
37.1627
 21
44.7319
  0
LINE
  8
0
 10
37.1627
 20
44.7319
 11
36.9438
 21
44.7881
  0
LINE
  8
0
 10
36.9438
 20
44.7881
 11
36.7336
 21
44.8713
  0
LINE
  8
0
 10
36.7336
 20
44.8713
 11
36.5355
 21
44.9802
  0
LINE
  8
0
 10
36.5355
 20
44.9802
 11
36.3526
 21
45.1131
  0
LINE
  8
0
 10
36.3526
 20
45.1131
 11
36.1879
 21
45.2678
  0
LINE
  8
0
 10
36.1879
 20
45.2678
 11
36.0438
 21
45.442
  0
LINE
  8
0
 10
36.0438
 20
45.442
 11
35.9226
 21
45.6328
  0
LINE
  8
0
 10
35.9226
 20
45.6328
 11
35.8264
 21
45.8374
  0
LINE
  8
0
 10
35.8264
 20
45.8374
 11
35.7565
 21
46.0524
  0
LINE
  8
0
 10
35.7565
 20
46.0524
 11
35.7142
 21
46.2744
  0
LINE
  8
0
 10
35.7142
 20
46.2744
 11
35.7
 21
46.5
  0
LINE
  8
0
 10
35.7
 20
46.5
 11
35.7142
 21
46.7256
  0
LINE
  8
0
 10
35.7142
 20
46.7256
 11
35.7565
 21
46.9476
  0
LINE
  8
0
 10
35.7565
 20
46.9476
 11
35.8264
 21
47.1626
  0
LINE
  8
0
 10
35.8264
 20
47.1626
 11
35.9226
 21
47.3671
  0
LINE
  8
0
 10
35.9226
 20
47.3671
 11
36.0438
 21
47.558
  0
LINE
  8
0
 10
36.0438
 20
47.558
 11
36.1879
 21
47.7322
  0
LINE
  8
0
 10
36.1879
 20
47.7322
 11
36.3526
 21
47.8869
  0
LINE
  8
0
 10
36.3526
 20
47.8869
 11
36.5355
 21
48.0198
  0
LINE
  8
0
 10
36.5355
 20
48.0198
 11
36.7336
 21
48.1287
  0
LINE
  8
0
 10
36.7336
 20
48.1287
 11
36.9438
 21
48.2119
  0
LINE
  8
0
 10
36.9438
 20
48.2119
 11
37.1627
 21
48.2681
  0
LINE
  8
0
 10
37.1627
 20
48.2681
 11
37.387
 21
48.2964
  0
LINE
  8
0
 10
37.387
 20
48.2964
 11
37.613
 21
48.2964
  0
LINE
  8
0
 10
37.613
 20
48.2964
 11
37.8373
 21
48.2681
  0
LINE
  8
0
 10
37.8373
 20
48.2681
 11
38.0562
 21
48.2119
  0
LINE
  8
0
 10
38.0562
 20
48.2119
 11
38.2664
 21
48.1287
  0
LINE
  8
0
 10
38.2664
 20
48.1287
 11
38.4645
 21
48.0198
  0
LINE
  8
0
 10
38.4645
 20
48.0198
 11
38.6474
 21
47.8869
  0
LINE
  8
0
 10
38.6474
 20
47.8869
 11
38.8121
 21
47.7322
  0
LINE
  8
0
 10
38.8121
 20
47.7322
 11
38.9562
 21
47.558
  0
LINE
  8
0
 10
38.9562
 20
47.558
 11
39.0773
 21
47.3671
  0
LINE
  8
0
 10
39.0773
 20
47.3671
 11
39.1736
 21
47.1626
  0
LINE
  8
0
 10
39.1736
 20
47.1626
 11
39.2434
 21
46.9476
  0
LINE
  8
0
 10
39.2434
 20
46.9476
 11
39.2858
 21
46.7256
  0
LINE
  8
0
 10
39.2858
 20
46.7256
 11
39.3
 21
46.5
  0
LINE
  8
0
 10
39.3
 20
46.5
 11
39.2858
 21
46.2744
  0
LINE
  8
0
 10
39.2858
 20
46.2744
 11
39.2434
 21
46.0524
  0
LINE
  8
0
 10
39.2434
 20
46.0524
 11
39.1736
 21
45.8374
  0
LINE
  8
0
 10
39.1736
 20
45.8374
 11
39.0773
 21
45.6328
  0
LINE
  8
0
 10
39.0773
 20
45.6328
 11
38.9562
 21
45.442
  0
LINE
  8
0
 10
38.9562
 20
45.442
 11
38.8121
 21
45.2678
  0
LINE
  8
0
 10
38.8121
 20
45.2678
 11
38.6474
 21
45.1131
  0
LINE
  8
0
 10
38.6474
 20
45.1131
 11
38.4645
 21
44.9802
  0
LINE
  8
0
 10
38.4645
 20
44.9802
 11
38.2664
 21
44.8713
  0
LINE
  8
0
 10
38.2664
 20
44.8713
 11
38.0562
 21
44.7881
  0
LINE
  8
0
 10
38.0562
 20
44.7881
 11
37.8373
 21
44.7319
  0
LINE
  8
0
 10
37.8373
 20
44.7319
 11
37.613
 21
44.7036
  0
LINE
  8
0
 10
37.613
 20
44.7036
 11
37.387
 21
44.7036
  0
LINE
  8
0
 10
-37.613
 20
44.7036
 11
-37.8373
 21
44.7319
  0
LINE
  8
0
 10
-37.8373
 20
44.7319
 11
-38.0562
 21
44.7881
  0
LINE
  8
0
 10
-38.0562
 20
44.7881
 11
-38.2664
 21
44.8713
  0
LINE
  8
0
 10
-38.2664
 20
44.8713
 11
-38.4645
 21
44.9802
  0
LINE
  8
0
 10
-38.4645
 20
44.9802
 11
-38.6474
 21
45.1131
  0
LINE
  8
0
 10
-38.6474
 20
45.1131
 11
-38.8121
 21
45.2678
  0
LINE
  8
0
 10
-38.8121
 20
45.2678
 11
-38.9562
 21
45.442
  0
LINE
  8
0
 10
-38.9562
 20
45.442
 11
-39.0773
 21
45.6328
  0
LINE
  8
0
 10
-39.0773
 20
45.6328
 11
-39.1736
 21
45.8374
  0
LINE
  8
0
 10
-39.1736
 20
45.8374
 11
-39.2434
 21
46.0524
  0
LINE
  8
0
 10
-39.2434
 20
46.0524
 11
-39.2858
 21
46.2744
  0
LINE
  8
0
 10
-39.2858
 20
46.2744
 11
-39.3
 21
46.5
  0
LINE
  8
0
 10
-39.3
 20
46.5
 11
-39.2858
 21
46.7256
  0
LINE
  8
0
 10
-39.2858
 20
46.7256
 11
-39.2434
 21
46.9476
  0
LINE
  8
0
 10
-39.2434
 20
46.9476
 11
-39.1736
 21
47.1626
  0
LINE
  8
0
 10
-39.1736
 20
47.1626
 11
-39.0773
 21
47.3671
  0
LINE
  8
0
 10
-39.0773
 20
47.3671
 11
-38.9562
 21
47.558
  0
LINE
  8
0
 10
-38.9562
 20
47.558
 11
-38.8121
 21
47.7322
  0
LINE
  8
0
 10
-38.8121
 20
47.7322
 11
-38.6474
 21
47.8869
  0
LINE
  8
0
 10
-38.6474
 20
47.8869
 11
-38.4645
 21
48.0198
  0
LINE
  8
0
 10
-38.4645
 20
48.0198
 11
-38.2664
 21
48.1287
  0
LINE
  8
0
 10
-38.2664
 20
48.1287
 11
-38.0562
 21
48.2119
  0
LINE
  8
0
 10
-38.0562
 20
48.2119
 11
-37.8373
 21
48.2681
  0
LINE
  8
0
 10
-37.8373
 20
48.2681
 11
-37.613
 21
48.2964
  0
LINE
  8
0
 10
-37.613
 20
48.2964
 11
-37.387
 21
48.2964
  0
LINE
  8
0
 10
-37.387
 20
48.2964
 11
-37.1627
 21
48.2681
  0
LINE
  8
0
 10
-37.1627
 20
48.2681
 11
-36.9438
 21
48.2119
  0
LINE
  8
0
 10
-36.9438
 20
48.2119
 11
-36.7336
 21
48.1287
  0
LINE
  8
0
 10
-36.7336
 20
48.1287
 11
-36.5355
 21
48.0198
  0
LINE
  8
0
 10
-36.5355
 20
48.0198
 11
-36.3526
 21
47.8869
  0
LINE
  8
0
 10
-36.3526
 20
47.8869
 11
-36.1879
 21
47.7322
  0
LINE
  8
0
 10
-36.1879
 20
47.7322
 11
-36.0438
 21
47.558
  0
LINE
  8
0
 10
-36.0438
 20
47.558
 11
-35.9226
 21
47.3671
  0
LINE
  8
0
 10
-35.9226
 20
47.3671
 11
-35.8264
 21
47.1626
  0
LINE
  8
0
 10
-35.8264
 20
47.1626
 11
-35.7565
 21
46.9476
  0
LINE
  8
0
 10
-35.7565
 20
46.9476
 11
-35.7142
 21
46.7256
  0
LINE
  8
0
 10
-35.7142
 20
46.7256
 11
-35.7
 21
46.5
  0
LINE
  8
0
 10
-35.7
 20
46.5
 11
-35.7142
 21
46.2744
  0
LINE
  8
0
 10
-35.7142
 20
46.2744
 11
-35.7565
 21
46.0524
  0
LINE
  8
0
 10
-35.7565
 20
46.0524
 11
-35.8264
 21
45.8374
  0
LINE
  8
0
 10
-35.8264
 20
45.8374
 11
-35.9226
 21
45.6328
  0
LINE
  8
0
 10
-35.9226
 20
45.6328
 11
-36.0438
 21
45.442
  0
LINE
  8
0
 10
-36.0438
 20
45.442
 11
-36.1879
 21
45.2678
  0
LINE
  8
0
 10
-36.1879
 20
45.2678
 11
-36.3526
 21
45.1131
  0
LINE
  8
0
 10
-36.3526
 20
45.1131
 11
-36.5355
 21
44.9802
  0
LINE
  8
0
 10
-36.5355
 20
44.9802
 11
-36.7336
 21
44.8713
  0
LINE
  8
0
 10
-36.7336
 20
44.8713
 11
-36.9438
 21
44.7881
  0
LINE
  8
0
 10
-36.9438
 20
44.7881
 11
-37.1627
 21
44.7319
  0
LINE
  8
0
 10
-37.1627
 20
44.7319
 11
-37.387
 21
44.7036
  0
LINE
  8
0
 10
-37.387
 20
44.7036
 11
-37.613
 21
44.7036
  0
LINE
  8
0
 10
37.387
 20
29.7036
 11
37.1627
 21
29.7319
  0
LINE
  8
0
 10
37.1627
 20
29.7319
 11
36.9438
 21
29.7881
  0
LINE
  8
0
 10
36.9438
 20
29.7881
 11
36.7336
 21
29.8713
  0
LINE
  8
0
 10
36.7336
 20
29.8713
 11
36.5355
 21
29.9802
  0
LINE
  8
0
 10
36.5355
 20
29.9802
 11
36.3526
 21
30.1131
  0
LINE
  8
0
 10
36.3526
 20
30.1131
 11
36.1879
 21
30.2678
  0
LINE
  8
0
 10
36.1879
 20
30.2678
 11
36.0438
 21
30.442
  0
LINE
  8
0
 10
36.0438
 20
30.442
 11
35.9226
 21
30.6329
  0
LINE
  8
0
 10
35.9226
 20
30.6329
 11
35.8264
 21
30.8374
  0
LINE
  8
0
 10
35.8264
 20
30.8374
 11
35.7565
 21
31.0524
  0
LINE
  8
0
 10
35.7565
 20
31.0524
 11
35.7142
 21
31.2744
  0
LINE
  8
0
 10
35.7142
 20
31.2744
 11
35.7
 21
31.5
  0
LINE
  8
0
 10
35.7
 20
31.5
 11
35.7142
 21
31.7256
  0
LINE
  8
0
 10
35.7142
 20
31.7256
 11
35.7565
 21
31.9476
  0
LINE
  8
0
 10
35.7565
 20
31.9476
 11
35.8264
 21
32.1626
  0
LINE
  8
0
 10
35.8264
 20
32.1626
 11
35.9226
 21
32.3672
  0
LINE
  8
0
 10
35.9226
 20
32.3672
 11
36.0438
 21
32.558
  0
LINE
  8
0
 10
36.0438
 20
32.558
 11
36.1879
 21
32.7322
  0
LINE
  8
0
 10
36.1879
 20
32.7322
 11
36.3526
 21
32.8869
  0
LINE
  8
0
 10
36.3526
 20
32.8869
 11
36.5355
 21
33.0198
  0
LINE
  8
0
 10
36.5355
 20
33.0198
 11
36.7336
 21
33.1287
  0
LINE
  8
0
 10
36.7336
 20
33.1287
 11
36.9438
 21
33.2119
  0
LINE
  8
0
 10
36.9438
 20
33.2119
 11
37.1627
 21
33.2681
  0
LINE
  8
0
 10
37.1627
 20
33.2681
 11
37.387
 21
33.2964
  0
LINE
  8
0
 10
37.387
 20
33.2964
 11
37.613
 21
33.2964
  0
LINE
  8
0
 10
37.613
 20
33.2964
 11
37.8373
 21
33.2681
  0
LINE
  8
0
 10
37.8373
 20
33.2681
 11
38.0562
 21
33.2119
  0
LINE
  8
0
 10
38.0562
 20
33.2119
 11
38.2664
 21
33.1287
  0
LINE
  8
0
 10
38.2664
 20
33.1287
 11
38.4645
 21
33.0198
  0
LINE
  8
0
 10
38.4645
 20
33.0198
 11
38.6474
 21
32.8869
  0
LINE
  8
0
 10
38.6474
 20
32.8869
 11
38.8121
 21
32.7322
  0
LINE
  8
0
 10
38.8121
 20
32.7322
 11
38.9562
 21
32.558
  0
LINE
  8
0
 10
38.9562
 20
32.558
 11
39.0773
 21
32.3672
  0
LINE
  8
0
 10
39.0773
 20
32.3672
 11
39.1736
 21
32.1626
  0
LINE
  8
0
 10
39.1736
 20
32.1626
 11
39.2434
 21
31.9476
  0
LINE
  8
0
 10
39.2434
 20
31.9476
 11
39.2858
 21
31.7256
  0
LINE
  8
0
 10
39.2858
 20
31.7256
 11
39.3
 21
31.5
  0
LINE
  8
0
 10
39.3
 20
31.5
 11
39.2858
 21
31.2744
  0
LINE
  8
0
 10
39.2858
 20
31.2744
 11
39.2434
 21
31.0524
  0
LINE
  8
0
 10
39.2434
 20
31.0524
 11
39.1736
 21
30.8374
  0
LINE
  8
0
 10
39.1736
 20
30.8374
 11
39.0773
 21
30.6329
  0
LINE
  8
0
 10
39.0773
 20
30.6329
 11
38.9562
 21
30.442
  0
LINE
  8
0
 10
38.9562
 20
30.442
 11
38.8121
 21
30.2678
  0
LINE
  8
0
 10
38.8121
 20
30.2678
 11
38.6474
 21
30.1131
  0
LINE
  8
0
 10
38.6474
 20
30.1131
 11
38.4645
 21
29.9802
  0
LINE
  8
0
 10
38.4645
 20
29.9802
 11
38.2664
 21
29.8713
  0
LINE
  8
0
 10
38.2664
 20
29.8713
 11
38.0562
 21
29.7881
  0
LINE
  8
0
 10
38.0562
 20
29.7881
 11
37.8373
 21
29.7319
  0
LINE
  8
0
 10
37.8373
 20
29.7319
 11
37.613
 21
29.7036
  0
LINE
  8
0
 10
37.613
 20
29.7036
 11
37.387
 21
29.7036
  0
LINE
  8
0
 10
-37.613
 20
29.7036
 11
-37.8373
 21
29.7319
  0
LINE
  8
0
 10
-37.8373
 20
29.7319
 11
-38.0562
 21
29.7881
  0
LINE
  8
0
 10
-38.0562
 20
29.7881
 11
-38.2664
 21
29.8713
  0
LINE
  8
0
 10
-38.2664
 20
29.8713
 11
-38.4645
 21
29.9802
  0
LINE
  8
0
 10
-38.4645
 20
29.9802
 11
-38.6474
 21
30.1131
  0
LINE
  8
0
 10
-38.6474
 20
30.1131
 11
-38.8121
 21
30.2678
  0
LINE
  8
0
 10
-38.8121
 20
30.2678
 11
-38.9562
 21
30.442
  0
LINE
  8
0
 10
-38.9562
 20
30.442
 11
-39.0773
 21
30.6329
  0
LINE
  8
0
 10
-39.0773
 20
30.6329
 11
-39.1736
 21
30.8374
  0
LINE
  8
0
 10
-39.1736
 20
30.8374
 11
-39.2434
 21
31.0524
  0
LINE
  8
0
 10
-39.2434
 20
31.0524
 11
-39.2858
 21
31.2744
  0
LINE
  8
0
 10
-39.2858
 20
31.2744
 11
-39.3
 21
31.5
  0
LINE
  8
0
 10
-39.3
 20
31.5
 11
-39.2858
 21
31.7256
  0
LINE
  8
0
 10
-39.2858
 20
31.7256
 11
-39.2434
 21
31.9476
  0
LINE
  8
0
 10
-39.2434
 20
31.9476
 11
-39.1736
 21
32.1626
  0
LINE
  8
0
 10
-39.1736
 20
32.1626
 11
-39.0773
 21
32.3672
  0
LINE
  8
0
 10
-39.0773
 20
32.3672
 11
-38.9562
 21
32.558
  0
LINE
  8
0
 10
-38.9562
 20
32.558
 11
-38.8121
 21
32.7322
  0
LINE
  8
0
 10
-38.8121
 20
32.7322
 11
-38.6474
 21
32.8869
  0
LINE
  8
0
 10
-38.6474
 20
32.8869
 11
-38.4645
 21
33.0198
  0
LINE
  8
0
 10
-38.4645
 20
33.0198
 11
-38.2664
 21
33.1287
  0
LINE
  8
0
 10
-38.2664
 20
33.1287
 11
-38.0562
 21
33.2119
  0
LINE
  8
0
 10
-38.0562
 20
33.2119
 11
-37.8373
 21
33.2681
  0
LINE
  8
0
 10
-37.8373
 20
33.2681
 11
-37.613
 21
33.2964
  0
LINE
  8
0
 10
-37.613
 20
33.2964
 11
-37.387
 21
33.2964
  0
LINE
  8
0
 10
-37.387
 20
33.2964
 11
-37.1627
 21
33.2681
  0
LINE
  8
0
 10
-37.1627
 20
33.2681
 11
-36.9438
 21
33.2119
  0
LINE
  8
0
 10
-36.9438
 20
33.2119
 11
-36.7336
 21
33.1287
  0
LINE
  8
0
 10
-36.7336
 20
33.1287
 11
-36.5355
 21
33.0198
  0
LINE
  8
0
 10
-36.5355
 20
33.0198
 11
-36.3526
 21
32.8869
  0
LINE
  8
0
 10
-36.3526
 20
32.8869
 11
-36.1879
 21
32.7322
  0
LINE
  8
0
 10
-36.1879
 20
32.7322
 11
-36.0438
 21
32.558
  0
LINE
  8
0
 10
-36.0438
 20
32.558
 11
-35.9226
 21
32.3672
  0
LINE
  8
0
 10
-35.9226
 20
32.3672
 11
-35.8264
 21
32.1626
  0
LINE
  8
0
 10
-35.8264
 20
32.1626
 11
-35.7565
 21
31.9476
  0
LINE
  8
0
 10
-35.7565
 20
31.9476
 11
-35.7142
 21
31.7256
  0
LINE
  8
0
 10
-35.7142
 20
31.7256
 11
-35.7
 21
31.5
  0
LINE
  8
0
 10
-35.7
 20
31.5
 11
-35.7142
 21
31.2744
  0
LINE
  8
0
 10
-35.7142
 20
31.2744
 11
-35.7565
 21
31.0524
  0
LINE
  8
0
 10
-35.7565
 20
31.0524
 11
-35.8264
 21
30.8374
  0
LINE
  8
0
 10
-35.8264
 20
30.8374
 11
-35.9226
 21
30.6329
  0
LINE
  8
0
 10
-35.9226
 20
30.6329
 11
-36.0438
 21
30.442
  0
LINE
  8
0
 10
-36.0438
 20
30.442
 11
-36.1879
 21
30.2678
  0
LINE
  8
0
 10
-36.1879
 20
30.2678
 11
-36.3526
 21
30.1131
  0
LINE
  8
0
 10
-36.3526
 20
30.1131
 11
-36.5355
 21
29.9802
  0
LINE
  8
0
 10
-36.5355
 20
29.9802
 11
-36.7336
 21
29.8713
  0
LINE
  8
0
 10
-36.7336
 20
29.8713
 11
-36.9438
 21
29.7881
  0
LINE
  8
0
 10
-36.9438
 20
29.7881
 11
-37.1627
 21
29.7319
  0
LINE
  8
0
 10
-37.1627
 20
29.7319
 11
-37.387
 21
29.7036
  0
LINE
  8
0
 10
-37.387
 20
29.7036
 11
-37.613
 21
29.7036
  0
ENDSEC
  0
SECTION
  2
OBJECTS
  0
DICTIONARY
  0
ENDSEC
  0
EOF
