<?xml version="1.0" standalone="no"?>
<!DOCTYPE svg PUBLIC "-//W3C//DTD SVG 1.1//EN" "http://www.w3.org/Graphics/SVG/1.1/DTD/svg11.dtd">
<svg width="30mm" height="100mm" viewBox="-15 -131 30 100" xmlns="http://www.w3.org/2000/svg" version="1.1">
<title>OpenSCAD Model</title>
<path d="
M 10.9369,-85.5886 L 11.5451,-85.7447 L 12.1289,-85.9759 L 12.6791,-86.2784 L 13.1871,-86.6474 L 13.6448,-87.0773
 L 14.0451,-87.5611 L 14.3815,-88.0912 L 14.6489,-88.6594 L 14.8429,-89.2566 L 14.9606,-89.8733 L 15,-90.5
 L 15,-125.5 L 14.9606,-126.127 L 14.8429,-126.743 L 14.6489,-127.341 L 14.3815,-127.909 L 14.0451,-128.439
 L 13.6448,-128.923 L 13.1871,-129.353 L 12.6791,-129.722 L 12.1289,-130.024 L 11.5451,-130.255 L 10.9369,-130.411
 L 10.3139,-130.49 L -10.3139,-130.49 L -10.9369,-130.411 L -11.5451,-130.255 L -12.1289,-130.024 L -12.6791,-129.722
 L -13.1871,-129.353 L -13.6448,-128.923 L -14.0451,-128.439 L -14.3815,-127.909 L -14.6489,-127.341 L -14.8429,-126.743
 L -14.9606,-126.127 L -15,-125.5 L -15,-90.5 L -14.9606,-89.8733 L -14.8429,-89.2566 L -14.6489,-88.6594
 L -14.3815,-88.0912 L -14.0451,-87.5611 L -13.6448,-87.0773 L -13.1871,-86.6474 L -12.6791,-86.2784 L -12.1289,-85.9759
 L -11.5451,-85.7447 L -10.9369,-85.5886 L -10.3139,-85.5099 L 10.3139,-85.5099 z
M 10.9369,-31.5886 L 11.5451,-31.7447 L 12.1289,-31.9759 L 12.6791,-32.2784 L 13.1871,-32.6474 L 13.6448,-33.0773
 L 14.0451,-33.5611 L 14.3815,-34.0912 L 14.6489,-34.6594 L 14.8429,-35.2566 L 14.9606,-35.8733 L 15,-36.5
 L 15,-71.5 L 14.9606,-72.1267 L 14.8429,-72.7434 L 14.6489,-73.3406 L 14.3815,-73.9088 L 14.0451,-74.4389
 L 13.6448,-74.9227 L 13.1871,-75.3526 L 12.6791,-75.7216 L 12.1289,-76.0241 L 11.5451,-76.2553 L 10.9369,-76.4114
 L 10.3139,-76.4901 L -10.3139,-76.4901 L -10.9369,-76.4114 L -11.5451,-76.2553 L -12.1289,-76.0241 L -12.6791,-75.7216
 L -13.1871,-75.3526 L -13.6448,-74.9227 L -14.0451,-74.4389 L -14.3815,-73.9088 L -14.6489,-73.3406 L -14.8429,-72.7434
 L -14.9606,-72.1267 L -15,-71.5 L -15,-36.5 L -14.9606,-35.8733 L -14.8429,-35.2566 L -14.6489,-34.6594
 L -14.3815,-34.0912 L -14.0451,-33.5611 L -13.6448,-33.0773 L -13.1871,-32.6474 L -12.6791,-32.2784 L -12.1289,-31.9759
 L -11.5451,-31.7447 L -10.9369,-31.5886 L -10.3139,-31.5099 L 10.3139,-31.5099 z
M 7.38696,-67.2036 L 7.1627,-67.2319 L 6.94376,-67.2881 L 6.7336,-67.3713 L 6.53551,-67.4802 L 6.35263,-67.6131
 L 6.18785,-67.7678 L 6.04376,-67.942 L 5.92264,-68.1328 L 5.8264,-68.3374 L 5.75655,-68.5524 L 5.71419,-68.7744
 L 5.7,-69 L 5.71419,-69.2256 L 5.75655,-69.4476 L 5.8264,-69.6626 L 5.92264,-69.8671 L 6.04376,-70.058
 L 6.18785,-70.2322 L 6.35263,-70.3869 L 6.53551,-70.5198 L 6.7336,-70.6287 L 6.94376,-70.7119 L 7.1627,-70.7681
 L 7.38696,-70.7964 L 7.61302,-70.7964 L 7.83728,-70.7681 L 8.05623,-70.7119 L 8.26639,-70.6287 L 8.46448,-70.5198
 L 8.64735,-70.3869 L 8.81213,-70.2322 L 8.95622,-70.058 L 9.07735,-69.8671 L 9.17358,-69.6626 L 9.24344,-69.4476
 L 9.2858,-69.2256 L 9.29999,-69 L 9.2858,-68.7744 L 9.24344,-68.5524 L 9.17358,-68.3374 L 9.07735,-68.1328
 L 8.95622,-67.942 L 8.81213,-67.7678 L 8.64735,-67.6131 L 8.46448,-67.4802 L 8.26639,-67.3713 L 8.05623,-67.2881
 L 7.83728,-67.2319 L 7.61302,-67.2036 z
M -7.61302,-67.2036 L -7.83728,-67.2319 L -8.05623,-67.2881 L -8.26639,-67.3713 L -8.46448,-67.4802 L -8.64735,-67.6131
 L -8.81213,-67.7678 L -8.95622,-67.942 L -9.07735,-68.1328 L -9.17358,-68.3374 L -9.24344,-68.5524 L -9.2858,-68.7744
 L -9.29999,-69 L -9.2858,-69.2256 L -9.24344,-69.4476 L -9.17358,-69.6626 L -9.07735,-69.8671 L -8.95622,-70.058
 L -8.81213,-70.2322 L -8.64735,-70.3869 L -8.46448,-70.5198 L -8.26639,-70.6287 L -8.05623,-70.7119 L -7.83728,-70.7681
 L -7.61302,-70.7964 L -7.38696,-70.7964 L -7.1627,-70.7681 L -6.94376,-70.7119 L -6.7336,-70.6287 L -6.53551,-70.5198
 L -6.35263,-70.3869 L -6.18785,-70.2322 L -6.04376,-70.058 L -5.92264,-69.8671 L -5.8264,-69.6626 L -5.75655,-69.4476
 L -5.71419,-69.2256 L -5.7,-69 L -5.71419,-68.7744 L -5.75655,-68.5524 L -5.8264,-68.3374 L -5.92264,-68.1328
 L -6.04376,-67.942 L -6.18785,-67.7678 L -6.35263,-67.6131 L -6.53551,-67.4802 L -6.7336,-67.3713 L -6.94376,-67.2881
 L -7.1627,-67.2319 L -7.38696,-67.2036 z
M -7.61302,-37.2036 L -7.83728,-37.2319 L -8.05623,-37.2881 L -8.26639,-37.3713 L -8.46448,-37.4802 L -8.64735,-37.6131
 L -8.81213,-37.7678 L -8.95622,-37.942 L -9.07735,-38.1329 L -9.17358,-38.3374 L -9.24344,-38.5524 L -9.2858,-38.7744
 L -9.29999,-39 L -9.2858,-39.2256 L -9.24344,-39.4476 L -9.17358,-39.6626 L -9.07735,-39.8672 L -8.95622,-40.058
 L -8.81213,-40.2322 L -8.64735,-40.3869 L -8.46448,-40.5198 L -8.26639,-40.6287 L -8.05623,-40.7119 L -7.83728,-40.7681
 L -7.61302,-40.7964 L -7.38696,-40.7964 L -7.1627,-40.7681 L -6.94376,-40.7119 L -6.7336,-40.6287 L -6.53551,-40.5198
 L -6.35263,-40.3869 L -6.18785,-40.2322 L -6.04376,-40.058 L -5.92264,-39.8672 L -5.8264,-39.6626 L -5.75655,-39.4476
 L -5.71419,-39.2256 L -5.7,-39 L -5.71419,-38.7744 L -5.75655,-38.5524 L -5.8264,-38.3374 L -5.92264,-38.1329
 L -6.04376,-37.942 L -6.18785,-37.7678 L -6.35263,-37.6131 L -6.53551,-37.4802 L -6.7336,-37.3713 L -6.94376,-37.2881
 L -7.1627,-37.2319 L -7.38696,-37.2036 z
M 7.38696,-37.2036 L 7.1627,-37.2319 L 6.94376,-37.2881 L 6.7336,-37.3713 L 6.53551,-37.4802 L 6.35263,-37.6131
 L 6.18785,-37.7678 L 6.04376,-37.942 L 5.92264,-38.1329 L 5.8264,-38.3374 L 5.75655,-38.5524 L 5.71419,-38.7744
 L 5.7,-39 L 5.71419,-39.2256 L 5.75655,-39.4476 L 5.8264,-39.6626 L 5.92264,-39.8672 L 6.04376,-40.058
 L 6.18785,-40.2322 L 6.35263,-40.3869 L 6.53551,-40.5198 L 6.7336,-40.6287 L 6.94376,-40.7119 L 7.1627,-40.7681
 L 7.38696,-40.7964 L 7.61302,-40.7964 L 7.83728,-40.7681 L 8.05623,-40.7119 L 8.26639,-40.6287 L 8.46448,-40.5198
 L 8.64735,-40.3869 L 8.81213,-40.2322 L 8.95622,-40.058 L 9.07735,-39.8672 L 9.17358,-39.6626 L 9.24344,-39.4476
 L 9.2858,-39.2256 L 9.29999,-39 L 9.2858,-38.7744 L 9.24344,-38.5524 L 9.17358,-38.3374 L 9.07735,-38.1329
 L 8.95622,-37.942 L 8.81213,-37.7678 L 8.64735,-37.6131 L 8.46448,-37.4802 L 8.26639,-37.3713 L 8.05623,-37.2881
 L 7.83728,-37.2319 L 7.61302,-37.2036 z
" stroke="black" fill="lightgray" stroke-width="0.5"/>
</svg>
