<?xml version="1.0" standalone="no"?>
<!DOCTYPE svg PUBLIC "-//W3C//DTD SVG 1.1//EN" "http://www.w3.org/Graphics/SVG/1.1/DTD/svg11.dtd">
<svg width="150mm" height="154mm" viewBox="-75 -239 150 154" xmlns="http://www.w3.org/2000/svg" version="1.1">
<title>OpenSCAD Model</title>
<path d="
M 70.9369,-193.589 L 71.5451,-193.745 L 72.1289,-193.976 L 72.6791,-194.278 L 73.1871,-194.647 L 73.6448,-195.077
 L 74.0451,-195.561 L 74.3815,-196.091 L 74.6489,-196.659 L 74.8429,-197.257 L 74.9606,-197.873 L 75,-198.5
 L 75,-233.5 L 74.9606,-234.127 L 74.8429,-234.743 L 74.6489,-235.341 L 74.3815,-235.909 L 74.0451,-236.439
 L 73.6448,-236.923 L 73.1871,-237.353 L 72.6791,-237.722 L 72.1289,-238.024 L 71.5451,-238.255 L 70.9369,-238.411
 L 70.3139,-238.49 L -70.3139,-238.49 L -70.9369,-238.411 L -71.5451,-238.255 L -72.1289,-238.024 L -72.6791,-237.722
 L -73.1871,-237.353 L -73.6448,-236.923 L -74.0451,-236.439 L -74.3815,-235.909 L -74.6489,-235.341 L -74.8429,-234.743
 L -74.9606,-234.127 L -75,-233.5 L -75,-198.5 L -74.9606,-197.873 L -74.8429,-197.257 L -74.6489,-196.659
 L -74.3815,-196.091 L -74.0451,-195.561 L -73.6448,-195.077 L -73.1871,-194.647 L -72.6791,-194.278 L -72.1289,-193.976
 L -71.5451,-193.745 L -70.9369,-193.589 L -70.3139,-193.51 L 70.3139,-193.51 z
M -70.0482,-194.009 L -70.6401,-194.084 L -71.2178,-194.232 L -71.7724,-194.452 L -72.2952,-194.739 L -72.7778,-195.09
 L -73.2126,-195.498 L -73.5928,-195.958 L -73.9125,-196.462 L -74.1664,-197.001 L -74.3508,-197.569 L -74.4625,-198.155
 L -74.5,-198.75 L -74.5,-233.25 L -74.4625,-233.845 L -74.3508,-234.431 L -74.1664,-234.999 L -73.9125,-235.538
 L -73.5928,-236.042 L -73.2126,-236.502 L -72.7778,-236.91 L -72.2952,-237.261 L -71.7724,-237.548 L -71.2178,-237.768
 L -70.6401,-237.916 L -70.0482,-237.991 L 70.0482,-237.991 L 70.6401,-237.916 L 71.2178,-237.768 L 71.7724,-237.548
 L 72.2952,-237.261 L 72.7778,-236.91 L 73.2126,-236.502 L 73.5928,-236.042 L 73.9125,-235.538 L 74.1664,-234.999
 L 74.3508,-234.431 L 74.4625,-233.845 L 74.5,-233.25 L 74.5,-198.75 L 74.4625,-198.155 L 74.3508,-197.569
 L 74.1664,-197.001 L 73.9125,-196.462 L 73.5928,-195.958 L 73.2126,-195.498 L 72.7778,-195.09 L 72.2952,-194.739
 L 71.7724,-194.452 L 71.2178,-194.232 L 70.6401,-194.084 L 70.0482,-194.009 z
M 70.9369,-139.589 L 71.5451,-139.745 L 72.1289,-139.976 L 72.6791,-140.278 L 73.1871,-140.647 L 73.6448,-141.077
 L 74.0451,-141.561 L 74.3815,-142.091 L 74.6489,-142.659 L 74.8429,-143.257 L 74.9606,-143.873 L 75,-144.5
 L 75,-179.5 L 74.9606,-180.127 L 74.8429,-180.743 L 74.6489,-181.341 L 74.3815,-181.909 L 74.0451,-182.439
 L 73.6448,-182.923 L 73.1871,-183.353 L 72.6791,-183.722 L 72.1289,-184.024 L 71.5451,-184.255 L 70.9369,-184.411
 L 70.3139,-184.49 L -70.3139,-184.49 L -70.9369,-184.411 L -71.5451,-184.255 L -72.1289,-184.024 L -72.6791,-183.722
 L -73.1871,-183.353 L -73.6448,-182.923 L -74.0451,-182.439 L -74.3815,-181.909 L -74.6489,-181.341 L -74.8429,-180.743
 L -74.9606,-180.127 L -75,-179.5 L -75,-144.5 L -74.9606,-143.873 L -74.8429,-143.257 L -74.6489,-142.659
 L -74.3815,-142.091 L -74.0451,-141.561 L -73.6448,-141.077 L -73.1871,-140.647 L -72.6791,-140.278 L -72.1289,-139.976
 L -71.5451,-139.745 L -70.9369,-139.589 L -70.3139,-139.51 L 70.3139,-139.51 z
M -69.993,-140.888 L -70.4751,-140.949 L -70.9457,-141.07 L -71.3975,-141.249 L -71.8234,-141.483 L -72.2165,-141.769
 L -72.5707,-142.101 L -72.8805,-142.476 L -73.1408,-142.886 L -73.3477,-143.326 L -73.4979,-143.788 L -73.589,-144.265
 L -73.6195,-144.75 L -73.6195,-179.25 L -73.589,-179.735 L -73.4979,-180.212 L -73.3477,-180.674 L -73.1408,-181.114
 L -72.8805,-181.524 L -72.5707,-181.899 L -72.2165,-182.231 L -71.8234,-182.517 L -71.3975,-182.751 L -70.9457,-182.93
 L -70.4751,-183.051 L -69.993,-183.112 L 69.993,-183.112 L 70.4751,-183.051 L 70.9457,-182.93 L 71.3975,-182.751
 L 71.8234,-182.517 L 72.2165,-182.231 L 72.5707,-181.899 L 72.8805,-181.524 L 73.1408,-181.114 L 73.3477,-180.674
 L 73.4979,-180.212 L 73.589,-179.735 L 73.6195,-179.25 L 73.6195,-144.75 L 73.589,-144.265 L 73.4979,-143.788
 L 73.3477,-143.326 L 73.1408,-142.886 L 72.8805,-142.476 L 72.5707,-142.101 L 72.2165,-141.769 L 71.8234,-141.483
 L 71.3975,-141.249 L 70.9457,-141.07 L 70.4751,-140.949 L 69.993,-140.888 z
M 70.9369,-85.5886 L 71.5451,-85.7447 L 72.1289,-85.9759 L 72.6791,-86.2784 L 73.1871,-86.6474 L 73.6448,-87.0773
 L 74.0451,-87.5611 L 74.3815,-88.0912 L 74.6489,-88.6594 L 74.8429,-89.2566 L 74.9606,-89.8733 L 75,-90.5
 L 75,-125.5 L 74.9606,-126.127 L 74.8429,-126.743 L 74.6489,-127.341 L 74.3815,-127.909 L 74.0451,-128.439
 L 73.6448,-128.923 L 73.1871,-129.353 L 72.6791,-129.722 L 72.1289,-130.024 L 71.5451,-130.255 L 70.9369,-130.411
 L 70.3139,-130.49 L -70.3139,-130.49 L -70.9369,-130.411 L -71.5451,-130.255 L -72.1289,-130.024 L -72.6791,-129.722
 L -73.1871,-129.353 L -73.6448,-128.923 L -74.0451,-128.439 L -74.3815,-127.909 L -74.6489,-127.341 L -74.8429,-126.743
 L -74.9606,-126.127 L -75,-125.5 L -75,-90.5 L -74.9606,-89.8733 L -74.8429,-89.2566 L -74.6489,-88.6594
 L -74.3815,-88.0912 L -74.0451,-87.5611 L -73.6448,-87.0773 L -73.1871,-86.6474 L -72.6791,-86.2784 L -72.1289,-85.9759
 L -71.5451,-85.7447 L -70.9369,-85.5886 L -70.3139,-85.5099 L 70.3139,-85.5099 z
M -67.613,-121.204 L -67.8373,-121.232 L -68.0562,-121.288 L -68.2664,-121.371 L -68.4645,-121.48 L -68.6474,-121.613
 L -68.8121,-121.768 L -68.9562,-121.942 L -69.0773,-122.133 L -69.1736,-122.337 L -69.2434,-122.552 L -69.2858,-122.774
 L -69.3,-123 L -69.2858,-123.226 L -69.2434,-123.448 L -69.1736,-123.663 L -69.0773,-123.867 L -68.9562,-124.058
 L -68.8121,-124.232 L -68.6474,-124.387 L -68.4645,-124.52 L -68.2664,-124.629 L -68.0562,-124.712 L -67.8373,-124.768
 L -67.613,-124.796 L -67.387,-124.796 L -67.1627,-124.768 L -66.9438,-124.712 L -66.7336,-124.629 L -66.5355,-124.52
 L -66.3526,-124.387 L -66.1879,-124.232 L -66.0438,-124.058 L -65.9226,-123.867 L -65.8264,-123.663 L -65.7565,-123.448
 L -65.7142,-123.226 L -65.7,-123 L -65.7142,-122.774 L -65.7565,-122.552 L -65.8264,-122.337 L -65.9226,-122.133
 L -66.0438,-121.942 L -66.1879,-121.768 L -66.3526,-121.613 L -66.5355,-121.48 L -66.7336,-121.371 L -66.9438,-121.288
 L -67.1627,-121.232 L -67.387,-121.204 z
M 67.387,-121.204 L 67.1627,-121.232 L 66.9438,-121.288 L 66.7336,-121.371 L 66.5355,-121.48 L 66.3526,-121.613
 L 66.1879,-121.768 L 66.0438,-121.942 L 65.9226,-122.133 L 65.8264,-122.337 L 65.7565,-122.552 L 65.7142,-122.774
 L 65.7,-123 L 65.7142,-123.226 L 65.7565,-123.448 L 65.8264,-123.663 L 65.9226,-123.867 L 66.0438,-124.058
 L 66.1879,-124.232 L 66.3526,-124.387 L 66.5355,-124.52 L 66.7336,-124.629 L 66.9438,-124.712 L 67.1627,-124.768
 L 67.387,-124.796 L 67.613,-124.796 L 67.8373,-124.768 L 68.0562,-124.712 L 68.2664,-124.629 L 68.4645,-124.52
 L 68.6474,-124.387 L 68.8121,-124.232 L 68.9562,-124.058 L 69.0773,-123.867 L 69.1736,-123.663 L 69.2434,-123.448
 L 69.2858,-123.226 L 69.3,-123 L 69.2858,-122.774 L 69.2434,-122.552 L 69.1736,-122.337 L 69.0773,-122.133
 L 68.9562,-121.942 L 68.8121,-121.768 L 68.6474,-121.613 L 68.4645,-121.48 L 68.2664,-121.371 L 68.0562,-121.288
 L 67.8373,-121.232 L 67.613,-121.204 z
M 67.387,-91.2036 L 67.1627,-91.2319 L 66.9438,-91.2881 L 66.7336,-91.3713 L 66.5355,-91.4802 L 66.3526,-91.6131
 L 66.1879,-91.7678 L 66.0438,-91.942 L 65.9226,-92.1329 L 65.8264,-92.3374 L 65.7565,-92.5524 L 65.7142,-92.7744
 L 65.7,-93 L 65.7142,-93.2256 L 65.7565,-93.4476 L 65.8264,-93.6626 L 65.9226,-93.8672 L 66.0438,-94.058
 L 66.1879,-94.2322 L 66.3526,-94.3869 L 66.5355,-94.5198 L 66.7336,-94.6287 L 66.9438,-94.7119 L 67.1627,-94.7681
 L 67.387,-94.7964 L 67.613,-94.7964 L 67.8373,-94.7681 L 68.0562,-94.7119 L 68.2664,-94.6287 L 68.4645,-94.5198
 L 68.6474,-94.3869 L 68.8121,-94.2322 L 68.9562,-94.058 L 69.0773,-93.8672 L 69.1736,-93.6626 L 69.2434,-93.4476
 L 69.2858,-93.2256 L 69.3,-93 L 69.2858,-92.7744 L 69.2434,-92.5524 L 69.1736,-92.3374 L 69.0773,-92.1329
 L 68.9562,-91.942 L 68.8121,-91.7678 L 68.6474,-91.6131 L 68.4645,-91.4802 L 68.2664,-91.3713 L 68.0562,-91.2881
 L 67.8373,-91.2319 L 67.613,-91.2036 z
M -67.613,-91.2036 L -67.8373,-91.2319 L -68.0562,-91.2881 L -68.2664,-91.3713 L -68.4645,-91.4802 L -68.6474,-91.6131
 L -68.8121,-91.7678 L -68.9562,-91.942 L -69.0773,-92.1329 L -69.1736,-92.3374 L -69.2434,-92.5524 L -69.2858,-92.7744
 L -69.3,-93 L -69.2858,-93.2256 L -69.2434,-93.4476 L -69.1736,-93.6626 L -69.0773,-93.8672 L -68.9562,-94.058
 L -68.8121,-94.2322 L -68.6474,-94.3869 L -68.4645,-94.5198 L -68.2664,-94.6287 L -68.0562,-94.7119 L -67.8373,-94.7681
 L -67.613,-94.7964 L -67.387,-94.7964 L -67.1627,-94.7681 L -66.9438,-94.7119 L -66.7336,-94.6287 L -66.5355,-94.5198
 L -66.3526,-94.3869 L -66.1879,-94.2322 L -66.0438,-94.058 L -65.9226,-93.8672 L -65.8264,-93.6626 L -65.7565,-93.4476
 L -65.7142,-93.2256 L -65.7,-93 L -65.7142,-92.7744 L -65.7565,-92.5524 L -65.8264,-92.3374 L -65.9226,-92.1329
 L -66.0438,-91.942 L -66.1879,-91.7678 L -66.3526,-91.6131 L -66.5355,-91.4802 L -66.7336,-91.3713 L -66.9438,-91.2881
 L -67.1627,-91.2319 L -67.387,-91.2036 z
" stroke="black" fill="lightgray" stroke-width="0.5"/>
</svg>
