  0
SECTION
  2
BLOCKS
  0
ENDSEC
  0
SECTION
  2
ENTITIES
  0
LINE
  8
0
 10
-21
 20
113.941
 11
-20.6871
 21
113.647
  0
LINE
  8
0
 10
-20.6871
 20
113.647
 11
-20.1791
 21
113.278
  0
LINE
  8
0
 10
-20.1791
 20
113.278
 11
-19.6289
 21
112.976
  0
LINE
  8
0
 10
-19.6289
 20
112.976
 11
-19.0451
 21
112.745
  0
LINE
  8
0
 10
-19.0451
 20
112.745
 11
-18.4369
 21
112.589
  0
LINE
  8
0
 10
-18.4369
 20
112.589
 11
-17.8139
 21
112.51
  0
LINE
  8
0
 10
-17.8139
 20
112.51
 11
17.8139
 21
112.51
  0
LINE
  8
0
 10
17.8139
 20
112.51
 11
18.4369
 21
112.589
  0
LINE
  8
0
 10
18.4369
 20
112.589
 11
19.0451
 21
112.745
  0
LINE
  8
0
 10
19.0451
 20
112.745
 11
19.6289
 21
112.976
  0
LINE
  8
0
 10
19.6289
 20
112.976
 11
20.1791
 21
113.278
  0
LINE
  8
0
 10
20.1791
 20
113.278
 11
20.6871
 21
113.647
  0
LINE
  8
0
 10
20.6871
 20
113.647
 11
21.1448
 21
114.077
  0
LINE
  8
0
 10
21.1448
 20
114.077
 11
21.5451
 21
114.561
  0
LINE
  8
0
 10
21.5451
 20
114.561
 11
21.8815
 21
115.091
  0
LINE
  8
0
 10
21.8815
 20
115.091
 11
22.1489
 21
115.659
  0
LINE
  8
0
 10
22.1489
 20
115.659
 11
22.3429
 21
116.257
  0
LINE
  8
0
 10
22.3429
 20
116.257
 11
22.4606
 21
116.873
  0
LINE
  8
0
 10
22.4606
 20
116.873
 11
22.5
 21
117.5
  0
LINE
  8
0
 10
22.5
 20
117.5
 11
22.5
 21
122.5
  0
LINE
  8
0
 10
22.5
 20
122.5
 11
22.4606
 21
123.127
  0
LINE
  8
0
 10
22.4606
 20
123.127
 11
22.3429
 21
123.743
  0
LINE
  8
0
 10
22.3429
 20
123.743
 11
22.1489
 21
124.341
  0
LINE
  8
0
 10
22.1489
 20
124.341
 11
21.8815
 21
124.909
  0
LINE
  8
0
 10
21.8815
 20
124.909
 11
21.5451
 21
125.439
  0
LINE
  8
0
 10
21.5451
 20
125.439
 11
21.1448
 21
125.923
  0
LINE
  8
0
 10
21.1448
 20
125.923
 11
20.6871
 21
126.353
  0
LINE
  8
0
 10
20.6871
 20
126.353
 11
20.1791
 21
126.722
  0
LINE
  8
0
 10
20.1791
 20
126.722
 11
19.6289
 21
127.024
  0
LINE
  8
0
 10
19.6289
 20
127.024
 11
19.0451
 21
127.255
  0
LINE
  8
0
 10
19.0451
 20
127.255
 11
18.4369
 21
127.411
  0
LINE
  8
0
 10
18.4369
 20
127.411
 11
17.8139
 21
127.49
  0
LINE
  8
0
 10
17.8139
 20
127.49
 11
-17.8139
 21
127.49
  0
LINE
  8
0
 10
-17.8139
 20
127.49
 11
-18.4369
 21
127.411
  0
LINE
  8
0
 10
-18.4369
 20
127.411
 11
-19.0451
 21
127.255
  0
LINE
  8
0
 10
-19.0451
 20
127.255
 11
-19.6289
 21
127.024
  0
LINE
  8
0
 10
-19.6289
 20
127.024
 11
-20.1791
 21
126.722
  0
LINE
  8
0
 10
-20.1791
 20
126.722
 11
-20.6871
 21
126.353
  0
LINE
  8
0
 10
-20.6871
 20
126.353
 11
-21
 21
126.059
  0
LINE
  8
0
 10
-21
 20
126.059
 11
-21
 21
127.49
  0
LINE
  8
0
 10
-21
 20
127.49
 11
-24
 21
127.49
  0
LINE
  8
0
 10
-24
 20
127.49
 11
-24
 21
112.51
  0
LINE
  8
0
 10
-24
 20
112.51
 11
-21
 21
112.51
  0
LINE
  8
0
 10
-21
 20
112.51
 11
-21
 21
113.941
  0
LINE
  8
0
 10
-17.2512
 20
114.008
 11
-17.7495
 21
114.071
  0
LINE
  8
0
 10
-17.7495
 20
114.071
 11
-18.2361
 21
114.196
  0
LINE
  8
0
 10
-18.2361
 20
114.196
 11
-18.7031
 21
114.381
  0
LINE
  8
0
 10
-18.7031
 20
114.381
 11
-19.1433
 21
114.623
  0
LINE
  8
0
 10
-19.1433
 20
114.623
 11
-19.5497
 21
114.918
  0
LINE
  8
0
 10
-19.5497
 20
114.918
 11
-19.9159
 21
115.262
  0
LINE
  8
0
 10
-19.9159
 20
115.262
 11
-20.2361
 21
115.649
  0
LINE
  8
0
 10
-20.2361
 20
115.649
 11
-20.5052
 21
116.073
  0
LINE
  8
0
 10
-20.5052
 20
116.073
 11
-20.7191
 21
116.528
  0
LINE
  8
0
 10
-20.7191
 20
116.528
 11
-20.8743
 21
117.005
  0
LINE
  8
0
 10
-20.8743
 20
117.005
 11
-20.9684
 21
117.499
  0
LINE
  8
0
 10
-20.9684
 20
117.499
 11
-21
 21
118
  0
LINE
  8
0
 10
-21
 20
118
 11
-21
 21
122
  0
LINE
  8
0
 10
-21
 20
122
 11
-20.9684
 21
122.501
  0
LINE
  8
0
 10
-20.9684
 20
122.501
 11
-20.8743
 21
122.995
  0
LINE
  8
0
 10
-20.8743
 20
122.995
 11
-20.7191
 21
123.472
  0
LINE
  8
0
 10
-20.7191
 20
123.472
 11
-20.5052
 21
123.927
  0
LINE
  8
0
 10
-20.5052
 20
123.927
 11
-20.2361
 21
124.351
  0
LINE
  8
0
 10
-20.2361
 20
124.351
 11
-19.9159
 21
124.738
  0
LINE
  8
0
 10
-19.9159
 20
124.738
 11
-19.5497
 21
125.082
  0
LINE
  8
0
 10
-19.5497
 20
125.082
 11
-19.1433
 21
125.377
  0
LINE
  8
0
 10
-19.1433
 20
125.377
 11
-18.7031
 21
125.619
  0
LINE
  8
0
 10
-18.7031
 20
125.619
 11
-18.2361
 21
125.804
  0
LINE
  8
0
 10
-18.2361
 20
125.804
 11
-17.7495
 21
125.929
  0
LINE
  8
0
 10
-17.7495
 20
125.929
 11
-17.2512
 21
125.992
  0
LINE
  8
0
 10
-17.2512
 20
125.992
 11
17.2512
 21
125.992
  0
LINE
  8
0
 10
17.2512
 20
125.992
 11
17.7495
 21
125.929
  0
LINE
  8
0
 10
17.7495
 20
125.929
 11
18.2361
 21
125.804
  0
LINE
  8
0
 10
18.2361
 20
125.804
 11
18.7031
 21
125.619
  0
LINE
  8
0
 10
18.7031
 20
125.619
 11
19.1433
 21
125.377
  0
LINE
  8
0
 10
19.1433
 20
125.377
 11
19.5497
 21
125.082
  0
LINE
  8
0
 10
19.5497
 20
125.082
 11
19.9159
 21
124.738
  0
LINE
  8
0
 10
19.9159
 20
124.738
 11
20.2361
 21
124.351
  0
LINE
  8
0
 10
20.2361
 20
124.351
 11
20.5052
 21
123.927
  0
LINE
  8
0
 10
20.5052
 20
123.927
 11
20.7191
 21
123.472
  0
LINE
  8
0
 10
20.7191
 20
123.472
 11
20.8743
 21
122.995
  0
LINE
  8
0
 10
20.8743
 20
122.995
 11
20.9684
 21
122.501
  0
LINE
  8
0
 10
20.9684
 20
122.501
 11
21
 21
122
  0
LINE
  8
0
 10
21
 20
122
 11
21
 21
118
  0
LINE
  8
0
 10
21
 20
118
 11
20.9684
 21
117.499
  0
LINE
  8
0
 10
20.9684
 20
117.499
 11
20.8743
 21
117.005
  0
LINE
  8
0
 10
20.8743
 20
117.005
 11
20.7191
 21
116.528
  0
LINE
  8
0
 10
20.7191
 20
116.528
 11
20.5052
 21
116.073
  0
LINE
  8
0
 10
20.5052
 20
116.073
 11
20.2361
 21
115.649
  0
LINE
  8
0
 10
20.2361
 20
115.649
 11
19.9159
 21
115.262
  0
LINE
  8
0
 10
19.9159
 20
115.262
 11
19.5497
 21
114.918
  0
LINE
  8
0
 10
19.5497
 20
114.918
 11
19.1433
 21
114.623
  0
LINE
  8
0
 10
19.1433
 20
114.623
 11
18.7031
 21
114.381
  0
LINE
  8
0
 10
18.7031
 20
114.381
 11
18.2361
 21
114.196
  0
LINE
  8
0
 10
18.2361
 20
114.196
 11
17.7495
 21
114.071
  0
LINE
  8
0
 10
17.7495
 20
114.071
 11
17.2512
 21
114.008
  0
LINE
  8
0
 10
17.2512
 20
114.008
 11
-17.2512
 21
114.008
  0
LINE
  8
0
 10
18.4369
 20
88.5886
 11
19.0451
 21
88.7447
  0
LINE
  8
0
 10
19.0451
 20
88.7447
 11
19.6289
 21
88.9759
  0
LINE
  8
0
 10
19.6289
 20
88.9759
 11
20.1791
 21
89.2784
  0
LINE
  8
0
 10
20.1791
 20
89.2784
 11
20.6871
 21
89.6474
  0
LINE
  8
0
 10
20.6871
 20
89.6474
 11
21.1448
 21
90.0773
  0
LINE
  8
0
 10
21.1448
 20
90.0773
 11
21.5451
 21
90.5611
  0
LINE
  8
0
 10
21.5451
 20
90.5611
 11
21.8815
 21
91.0912
  0
LINE
  8
0
 10
21.8815
 20
91.0912
 11
22.1489
 21
91.6594
  0
LINE
  8
0
 10
22.1489
 20
91.6594
 11
22.3429
 21
92.2566
  0
LINE
  8
0
 10
22.3429
 20
92.2566
 11
22.4606
 21
92.8733
  0
LINE
  8
0
 10
22.4606
 20
92.8733
 11
22.5
 21
93.5
  0
LINE
  8
0
 10
22.5
 20
93.5
 11
22.5
 21
98.5
  0
LINE
  8
0
 10
22.5
 20
98.5
 11
22.4606
 21
99.1267
  0
LINE
  8
0
 10
22.4606
 20
99.1267
 11
22.3429
 21
99.7434
  0
LINE
  8
0
 10
22.3429
 20
99.7434
 11
22.1489
 21
100.341
  0
LINE
  8
0
 10
22.1489
 20
100.341
 11
21.8815
 21
100.909
  0
LINE
  8
0
 10
21.8815
 20
100.909
 11
21.5451
 21
101.439
  0
LINE
  8
0
 10
21.5451
 20
101.439
 11
21.1448
 21
101.923
  0
LINE
  8
0
 10
21.1448
 20
101.923
 11
20.6871
 21
102.353
  0
LINE
  8
0
 10
20.6871
 20
102.353
 11
20.1791
 21
102.722
  0
LINE
  8
0
 10
20.1791
 20
102.722
 11
19.6289
 21
103.024
  0
LINE
  8
0
 10
19.6289
 20
103.024
 11
19.0451
 21
103.255
  0
LINE
  8
0
 10
19.0451
 20
103.255
 11
18.4369
 21
103.411
  0
LINE
  8
0
 10
18.4369
 20
103.411
 11
17.8139
 21
103.49
  0
LINE
  8
0
 10
17.8139
 20
103.49
 11
-17.8139
 21
103.49
  0
LINE
  8
0
 10
-17.8139
 20
103.49
 11
-18.4369
 21
103.411
  0
LINE
  8
0
 10
-18.4369
 20
103.411
 11
-19.0451
 21
103.255
  0
LINE
  8
0
 10
-19.0451
 20
103.255
 11
-19.6289
 21
103.024
  0
LINE
  8
0
 10
-19.6289
 20
103.024
 11
-20.1791
 21
102.722
  0
LINE
  8
0
 10
-20.1791
 20
102.722
 11
-20.6871
 21
102.353
  0
LINE
  8
0
 10
-20.6871
 20
102.353
 11
-21
 21
102.059
  0
LINE
  8
0
 10
-21
 20
102.059
 11
-21
 21
103.479
  0
LINE
  8
0
 10
-21
 20
103.479
 11
-24
 21
103.479
  0
LINE
  8
0
 10
-24
 20
103.479
 11
-24
 21
88.5208
  0
LINE
  8
0
 10
-24
 20
88.5208
 11
-21
 21
88.5208
  0
LINE
  8
0
 10
-21
 20
88.5208
 11
-21
 21
89.9413
  0
LINE
  8
0
 10
-21
 20
89.9413
 11
-20.6871
 21
89.6474
  0
LINE
  8
0
 10
-20.6871
 20
89.6474
 11
-20.1791
 21
89.2784
  0
LINE
  8
0
 10
-20.1791
 20
89.2784
 11
-19.6289
 21
88.9759
  0
LINE
  8
0
 10
-19.6289
 20
88.9759
 11
-19.0451
 21
88.7447
  0
LINE
  8
0
 10
-19.0451
 20
88.7447
 11
-18.4369
 21
88.5886
  0
LINE
  8
0
 10
-18.4369
 20
88.5886
 11
-17.8139
 21
88.5099
  0
LINE
  8
0
 10
-17.8139
 20
88.5099
 11
17.8139
 21
88.5099
  0
LINE
  8
0
 10
17.8139
 20
88.5099
 11
18.4369
 21
88.5886
  0
LINE
  8
0
 10
-17.1954
 20
90.8932
 11
-17.5833
 21
90.9422
  0
LINE
  8
0
 10
-17.5833
 20
90.9422
 11
-17.9619
 21
91.0394
  0
LINE
  8
0
 10
-17.9619
 20
91.0394
 11
-18.3254
 21
91.1833
  0
LINE
  8
0
 10
-18.3254
 20
91.1833
 11
-18.668
 21
91.3717
  0
LINE
  8
0
 10
-18.668
 20
91.3717
 11
-18.9842
 21
91.6015
  0
LINE
  8
0
 10
-18.9842
 20
91.6015
 11
-19.2692
 21
91.8691
  0
LINE
  8
0
 10
-19.2692
 20
91.8691
 11
-19.5184
 21
92.1703
  0
LINE
  8
0
 10
-19.5184
 20
92.1703
 11
-19.7279
 21
92.5004
  0
LINE
  8
0
 10
-19.7279
 20
92.5004
 11
-19.8943
 21
92.8541
  0
LINE
  8
0
 10
-19.8943
 20
92.8541
 11
-20.0151
 21
93.2259
  0
LINE
  8
0
 10
-20.0151
 20
93.2259
 11
-20.0884
 21
93.6098
  0
LINE
  8
0
 10
-20.0884
 20
93.6098
 11
-20.1129
 21
94
  0
LINE
  8
0
 10
-20.1129
 20
94
 11
-20.1129
 21
98
  0
LINE
  8
0
 10
-20.1129
 20
98
 11
-20.0884
 21
98.3902
  0
LINE
  8
0
 10
-20.0884
 20
98.3902
 11
-20.0151
 21
98.7741
  0
LINE
  8
0
 10
-20.0151
 20
98.7741
 11
-19.8943
 21
99.1459
  0
LINE
  8
0
 10
-19.8943
 20
99.1459
 11
-19.7279
 21
99.4996
  0
LINE
  8
0
 10
-19.7279
 20
99.4996
 11
-19.5184
 21
99.8297
  0
LINE
  8
0
 10
-19.5184
 20
99.8297
 11
-19.2692
 21
100.131
  0
LINE
  8
0
 10
-19.2692
 20
100.131
 11
-18.9842
 21
100.399
  0
LINE
  8
0
 10
-18.9842
 20
100.399
 11
-18.668
 21
100.628
  0
LINE
  8
0
 10
-18.668
 20
100.628
 11
-18.3254
 21
100.817
  0
LINE
  8
0
 10
-18.3254
 20
100.817
 11
-17.9619
 21
100.961
  0
LINE
  8
0
 10
-17.9619
 20
100.961
 11
-17.5833
 21
101.058
  0
LINE
  8
0
 10
-17.5833
 20
101.058
 11
-17.1954
 21
101.107
  0
LINE
  8
0
 10
-17.1954
 20
101.107
 11
17.1954
 21
101.107
  0
LINE
  8
0
 10
17.1954
 20
101.107
 11
17.5833
 21
101.058
  0
LINE
  8
0
 10
17.5833
 20
101.058
 11
17.9619
 21
100.961
  0
LINE
  8
0
 10
17.9619
 20
100.961
 11
18.3254
 21
100.817
  0
LINE
  8
0
 10
18.3254
 20
100.817
 11
18.668
 21
100.628
  0
LINE
  8
0
 10
18.668
 20
100.628
 11
18.9842
 21
100.399
  0
LINE
  8
0
 10
18.9842
 20
100.399
 11
19.2692
 21
100.131
  0
LINE
  8
0
 10
19.2692
 20
100.131
 11
19.5184
 21
99.8297
  0
LINE
  8
0
 10
19.5184
 20
99.8297
 11
19.7279
 21
99.4996
  0
LINE
  8
0
 10
19.7279
 20
99.4996
 11
19.8943
 21
99.1459
  0
LINE
  8
0
 10
19.8943
 20
99.1459
 11
20.0151
 21
98.7741
  0
LINE
  8
0
 10
20.0151
 20
98.7741
 11
20.0884
 21
98.3902
  0
LINE
  8
0
 10
20.0884
 20
98.3902
 11
20.1129
 21
98
  0
LINE
  8
0
 10
20.1129
 20
98
 11
20.1129
 21
94
  0
LINE
  8
0
 10
20.1129
 20
94
 11
20.0884
 21
93.6098
  0
LINE
  8
0
 10
20.0884
 20
93.6098
 11
20.0151
 21
93.2259
  0
LINE
  8
0
 10
20.0151
 20
93.2259
 11
19.8943
 21
92.8541
  0
LINE
  8
0
 10
19.8943
 20
92.8541
 11
19.7279
 21
92.5004
  0
LINE
  8
0
 10
19.7279
 20
92.5004
 11
19.5184
 21
92.1703
  0
LINE
  8
0
 10
19.5184
 20
92.1703
 11
19.2692
 21
91.8691
  0
LINE
  8
0
 10
19.2692
 20
91.8691
 11
18.9842
 21
91.6015
  0
LINE
  8
0
 10
18.9842
 20
91.6015
 11
18.668
 21
91.3717
  0
LINE
  8
0
 10
18.668
 20
91.3717
 11
18.3254
 21
91.1833
  0
LINE
  8
0
 10
18.3254
 20
91.1833
 11
17.9619
 21
91.0394
  0
LINE
  8
0
 10
17.9619
 20
91.0394
 11
17.5833
 21
90.9422
  0
LINE
  8
0
 10
17.5833
 20
90.9422
 11
17.1954
 21
90.8932
  0
LINE
  8
0
 10
17.1954
 20
90.8932
 11
-17.1954
 21
90.8932
  0
LINE
  8
0
 10
18.4369
 20
64.5886
 11
19.0451
 21
64.7447
  0
LINE
  8
0
 10
19.0451
 20
64.7447
 11
19.6289
 21
64.9759
  0
LINE
  8
0
 10
19.6289
 20
64.9759
 11
20.1791
 21
65.2784
  0
LINE
  8
0
 10
20.1791
 20
65.2784
 11
20.6871
 21
65.6474
  0
LINE
  8
0
 10
20.6871
 20
65.6474
 11
21.1448
 21
66.0773
  0
LINE
  8
0
 10
21.1448
 20
66.0773
 11
21.5451
 21
66.5611
  0
LINE
  8
0
 10
21.5451
 20
66.5611
 11
21.8815
 21
67.0912
  0
LINE
  8
0
 10
21.8815
 20
67.0912
 11
22.1489
 21
67.6594
  0
LINE
  8
0
 10
22.1489
 20
67.6594
 11
22.3429
 21
68.2566
  0
LINE
  8
0
 10
22.3429
 20
68.2566
 11
22.4606
 21
68.8733
  0
LINE
  8
0
 10
22.4606
 20
68.8733
 11
22.5
 21
69.5
  0
LINE
  8
0
 10
22.5
 20
69.5
 11
22.5
 21
74.5
  0
LINE
  8
0
 10
22.5
 20
74.5
 11
22.4606
 21
75.1267
  0
LINE
  8
0
 10
22.4606
 20
75.1267
 11
22.3429
 21
75.7434
  0
LINE
  8
0
 10
22.3429
 20
75.7434
 11
22.1489
 21
76.3406
  0
LINE
  8
0
 10
22.1489
 20
76.3406
 11
21.8815
 21
76.9088
  0
LINE
  8
0
 10
21.8815
 20
76.9088
 11
21.5451
 21
77.4389
  0
LINE
  8
0
 10
21.5451
 20
77.4389
 11
21.1448
 21
77.9227
  0
LINE
  8
0
 10
21.1448
 20
77.9227
 11
20.6871
 21
78.3526
  0
LINE
  8
0
 10
20.6871
 20
78.3526
 11
20.1791
 21
78.7216
  0
LINE
  8
0
 10
20.1791
 20
78.7216
 11
19.6289
 21
79.0241
  0
LINE
  8
0
 10
19.6289
 20
79.0241
 11
19.0451
 21
79.2553
  0
LINE
  8
0
 10
19.0451
 20
79.2553
 11
18.4369
 21
79.4114
  0
LINE
  8
0
 10
18.4369
 20
79.4114
 11
17.8139
 21
79.4901
  0
LINE
  8
0
 10
17.8139
 20
79.4901
 11
-17.8139
 21
79.4901
  0
LINE
  8
0
 10
-17.8139
 20
79.4901
 11
-18.4369
 21
79.4114
  0
LINE
  8
0
 10
-18.4369
 20
79.4114
 11
-19.0451
 21
79.2553
  0
LINE
  8
0
 10
-19.0451
 20
79.2553
 11
-19.6289
 21
79.0241
  0
LINE
  8
0
 10
-19.6289
 20
79.0241
 11
-20.1791
 21
78.7216
  0
LINE
  8
0
 10
-20.1791
 20
78.7216
 11
-20.6871
 21
78.3526
  0
LINE
  8
0
 10
-20.6871
 20
78.3526
 11
-21
 21
78.0587
  0
LINE
  8
0
 10
-21
 20
78.0587
 11
-21
 21
78.1526
  0
LINE
  8
0
 10
-21
 20
78.1526
 11
-24
 21
78.1526
  0
LINE
  8
0
 10
-24
 20
78.1526
 11
-24
 21
65.8474
  0
LINE
  8
0
 10
-24
 20
65.8474
 11
-21
 21
65.8474
  0
LINE
  8
0
 10
-21
 20
65.8474
 11
-21
 21
65.9413
  0
LINE
  8
0
 10
-21
 20
65.9413
 11
-20.6871
 21
65.6474
  0
LINE
  8
0
 10
-20.6871
 20
65.6474
 11
-20.1791
 21
65.2784
  0
LINE
  8
0
 10
-20.1791
 20
65.2784
 11
-19.6289
 21
64.9759
  0
LINE
  8
0
 10
-19.6289
 20
64.9759
 11
-19.0451
 21
64.7447
  0
LINE
  8
0
 10
-19.0451
 20
64.7447
 11
-18.4369
 21
64.5886
  0
LINE
  8
0
 10
-18.4369
 20
64.5886
 11
-17.8139
 21
64.5099
  0
LINE
  8
0
 10
-17.8139
 20
64.5099
 11
17.8139
 21
64.5099
  0
LINE
  8
0
 10
17.8139
 20
64.5099
 11
18.4369
 21
64.5886
  0
LINE
  8
0
 10
14.8659
 20
69.8689
 11
14.5999
 21
69.9025
  0
LINE
  8
0
 10
14.5999
 20
69.9025
 11
14.3401
 21
69.9692
  0
LINE
  8
0
 10
14.3401
 20
69.9692
 11
14.0908
 21
70.0679
  0
LINE
  8
0
 10
14.0908
 20
70.0679
 11
13.8559
 21
70.1971
  0
LINE
  8
0
 10
13.8559
 20
70.1971
 11
13.6389
 21
70.3547
  0
LINE
  8
0
 10
13.6389
 20
70.3547
 11
13.4434
 21
70.5383
  0
LINE
  8
0
 10
13.4434
 20
70.5383
 11
13.2725
 21
70.7449
  0
LINE
  8
0
 10
13.2725
 20
70.7449
 11
13.1288
 21
70.9713
  0
LINE
  8
0
 10
13.1288
 20
70.9713
 11
13.0146
 21
71.214
  0
LINE
  8
0
 10
13.0146
 20
71.214
 11
12.9318
 21
71.469
  0
LINE
  8
0
 10
12.9318
 20
71.469
 11
12.8815
 21
71.7324
  0
LINE
  8
0
 10
12.8815
 20
71.7324
 11
12.8647
 21
72
  0
LINE
  8
0
 10
12.8647
 20
72
 11
12.8815
 21
72.2676
  0
LINE
  8
0
 10
12.8815
 20
72.2676
 11
12.9318
 21
72.531
  0
LINE
  8
0
 10
12.9318
 20
72.531
 11
13.0146
 21
72.786
  0
LINE
  8
0
 10
13.0146
 20
72.786
 11
13.1288
 21
73.0287
  0
LINE
  8
0
 10
13.1288
 20
73.0287
 11
13.2725
 21
73.2551
  0
LINE
  8
0
 10
13.2725
 20
73.2551
 11
13.4434
 21
73.4617
  0
LINE
  8
0
 10
13.4434
 20
73.4617
 11
13.6389
 21
73.6453
  0
LINE
  8
0
 10
13.6389
 20
73.6453
 11
13.8559
 21
73.8029
  0
LINE
  8
0
 10
13.8559
 20
73.8029
 11
14.0908
 21
73.9321
  0
LINE
  8
0
 10
14.0908
 20
73.9321
 11
14.3401
 21
74.0308
  0
LINE
  8
0
 10
14.3401
 20
74.0308
 11
14.5999
 21
74.0975
  0
LINE
  8
0
 10
14.5999
 20
74.0975
 11
14.8659
 21
74.1311
  0
LINE
  8
0
 10
14.8659
 20
74.1311
 11
15.1341
 21
74.1311
  0
LINE
  8
0
 10
15.1341
 20
74.1311
 11
15.4001
 21
74.0975
  0
LINE
  8
0
 10
15.4001
 20
74.0975
 11
15.6598
 21
74.0308
  0
LINE
  8
0
 10
15.6598
 20
74.0308
 11
15.9091
 21
73.9321
  0
LINE
  8
0
 10
15.9091
 20
73.9321
 11
16.1441
 21
73.8029
  0
LINE
  8
0
 10
16.1441
 20
73.8029
 11
16.3611
 21
73.6453
  0
LINE
  8
0
 10
16.3611
 20
73.6453
 11
16.5565
 21
73.4617
  0
LINE
  8
0
 10
16.5565
 20
73.4617
 11
16.7275
 21
73.2551
  0
LINE
  8
0
 10
16.7275
 20
73.2551
 11
16.8712
 21
73.0287
  0
LINE
  8
0
 10
16.8712
 20
73.0287
 11
16.9853
 21
72.786
  0
LINE
  8
0
 10
16.9853
 20
72.786
 11
17.0682
 21
72.531
  0
LINE
  8
0
 10
17.0682
 20
72.531
 11
17.1185
 21
72.2676
  0
LINE
  8
0
 10
17.1185
 20
72.2676
 11
17.1353
 21
72
  0
LINE
  8
0
 10
17.1353
 20
72
 11
17.1185
 21
71.7324
  0
LINE
  8
0
 10
17.1185
 20
71.7324
 11
17.0682
 21
71.469
  0
LINE
  8
0
 10
17.0682
 20
71.469
 11
16.9853
 21
71.214
  0
LINE
  8
0
 10
16.9853
 20
71.214
 11
16.8712
 21
70.9713
  0
LINE
  8
0
 10
16.8712
 20
70.9713
 11
16.7275
 21
70.7449
  0
LINE
  8
0
 10
16.7275
 20
70.7449
 11
16.5565
 21
70.5383
  0
LINE
  8
0
 10
16.5565
 20
70.5383
 11
16.3611
 21
70.3547
  0
LINE
  8
0
 10
16.3611
 20
70.3547
 11
16.1441
 21
70.1971
  0
LINE
  8
0
 10
16.1441
 20
70.1971
 11
15.9091
 21
70.0679
  0
LINE
  8
0
 10
15.9091
 20
70.0679
 11
15.6598
 21
69.9692
  0
LINE
  8
0
 10
15.6598
 20
69.9692
 11
15.4001
 21
69.9025
  0
LINE
  8
0
 10
15.4001
 20
69.9025
 11
15.1341
 21
69.8689
  0
LINE
  8
0
 10
15.1341
 20
69.8689
 11
14.8659
 21
69.8689
  0
LINE
  8
0
 10
-15.1341
 20
69.8689
 11
-15.4001
 21
69.9025
  0
LINE
  8
0
 10
-15.4001
 20
69.9025
 11
-15.6598
 21
69.9692
  0
LINE
  8
0
 10
-15.6598
 20
69.9692
 11
-15.9091
 21
70.0679
  0
LINE
  8
0
 10
-15.9091
 20
70.0679
 11
-16.1441
 21
70.1971
  0
LINE
  8
0
 10
-16.1441
 20
70.1971
 11
-16.3611
 21
70.3547
  0
LINE
  8
0
 10
-16.3611
 20
70.3547
 11
-16.5565
 21
70.5383
  0
LINE
  8
0
 10
-16.5565
 20
70.5383
 11
-16.7275
 21
70.7449
  0
LINE
  8
0
 10
-16.7275
 20
70.7449
 11
-16.8712
 21
70.9713
  0
LINE
  8
0
 10
-16.8712
 20
70.9713
 11
-16.9853
 21
71.214
  0
LINE
  8
0
 10
-16.9853
 20
71.214
 11
-17.0682
 21
71.469
  0
LINE
  8
0
 10
-17.0682
 20
71.469
 11
-17.1185
 21
71.7324
  0
LINE
  8
0
 10
-17.1185
 20
71.7324
 11
-17.1353
 21
72
  0
LINE
  8
0
 10
-17.1353
 20
72
 11
-17.1185
 21
72.2676
  0
LINE
  8
0
 10
-17.1185
 20
72.2676
 11
-17.0682
 21
72.531
  0
LINE
  8
0
 10
-17.0682
 20
72.531
 11
-16.9853
 21
72.786
  0
LINE
  8
0
 10
-16.9853
 20
72.786
 11
-16.8712
 21
73.0287
  0
LINE
  8
0
 10
-16.8712
 20
73.0287
 11
-16.7275
 21
73.2551
  0
LINE
  8
0
 10
-16.7275
 20
73.2551
 11
-16.5565
 21
73.4617
  0
LINE
  8
0
 10
-16.5565
 20
73.4617
 11
-16.3611
 21
73.6453
  0
LINE
  8
0
 10
-16.3611
 20
73.6453
 11
-16.1441
 21
73.8029
  0
LINE
  8
0
 10
-16.1441
 20
73.8029
 11
-15.9091
 21
73.9321
  0
LINE
  8
0
 10
-15.9091
 20
73.9321
 11
-15.6598
 21
74.0308
  0
LINE
  8
0
 10
-15.6598
 20
74.0308
 11
-15.4001
 21
74.0975
  0
LINE
  8
0
 10
-15.4001
 20
74.0975
 11
-15.1341
 21
74.1311
  0
LINE
  8
0
 10
-15.1341
 20
74.1311
 11
-14.8659
 21
74.1311
  0
LINE
  8
0
 10
-14.8659
 20
74.1311
 11
-14.5999
 21
74.0975
  0
LINE
  8
0
 10
-14.5999
 20
74.0975
 11
-14.3401
 21
74.0308
  0
LINE
  8
0
 10
-14.3401
 20
74.0308
 11
-14.0908
 21
73.9321
  0
LINE
  8
0
 10
-14.0908
 20
73.9321
 11
-13.8559
 21
73.8029
  0
LINE
  8
0
 10
-13.8559
 20
73.8029
 11
-13.6389
 21
73.6453
  0
LINE
  8
0
 10
-13.6389
 20
73.6453
 11
-13.4434
 21
73.4617
  0
LINE
  8
0
 10
-13.4434
 20
73.4617
 11
-13.2725
 21
73.2551
  0
LINE
  8
0
 10
-13.2725
 20
73.2551
 11
-13.1288
 21
73.0287
  0
LINE
  8
0
 10
-13.1288
 20
73.0287
 11
-13.0146
 21
72.786
  0
LINE
  8
0
 10
-13.0146
 20
72.786
 11
-12.9318
 21
72.531
  0
LINE
  8
0
 10
-12.9318
 20
72.531
 11
-12.8815
 21
72.2676
  0
LINE
  8
0
 10
-12.8815
 20
72.2676
 11
-12.8647
 21
72
  0
LINE
  8
0
 10
-12.8647
 20
72
 11
-12.8815
 21
71.7324
  0
LINE
  8
0
 10
-12.8815
 20
71.7324
 11
-12.9318
 21
71.469
  0
LINE
  8
0
 10
-12.9318
 20
71.469
 11
-13.0146
 21
71.214
  0
LINE
  8
0
 10
-13.0146
 20
71.214
 11
-13.1288
 21
70.9713
  0
LINE
  8
0
 10
-13.1288
 20
70.9713
 11
-13.2725
 21
70.7449
  0
LINE
  8
0
 10
-13.2725
 20
70.7449
 11
-13.4434
 21
70.5383
  0
LINE
  8
0
 10
-13.4434
 20
70.5383
 11
-13.6389
 21
70.3547
  0
LINE
  8
0
 10
-13.6389
 20
70.3547
 11
-13.8559
 21
70.1971
  0
LINE
  8
0
 10
-13.8559
 20
70.1971
 11
-14.0908
 21
70.0679
  0
LINE
  8
0
 10
-14.0908
 20
70.0679
 11
-14.3401
 21
69.9692
  0
LINE
  8
0
 10
-14.3401
 20
69.9692
 11
-14.5999
 21
69.9025
  0
LINE
  8
0
 10
-14.5999
 20
69.9025
 11
-14.8659
 21
69.8689
  0
LINE
  8
0
 10
-14.8659
 20
69.8689
 11
-15.1341
 21
69.8689
  0
ENDSEC
  0
SECTION
  2
OBJECTS
  0
DICTIONARY
  0
ENDSEC
  0
EOF
