<?xml version="1.0" standalone="no"?>
<!DOCTYPE svg PUBLIC "-//W3C//DTD SVG 1.1//EN" "http://www.w3.org/Graphics/SVG/1.1/DTD/svg11.dtd">
<svg width="30mm" height="280mm" viewBox="-15 -500 30 280" xmlns="http://www.w3.org/2000/svg" version="1.1">
<title>OpenSCAD Model</title>
<path d="
M 10.9369,-364.589 L 11.5451,-364.745 L 12.1289,-364.976 L 12.6791,-365.278 L 13.1871,-365.647 L 13.6448,-366.077
 L 14.0451,-366.561 L 14.3815,-367.091 L 14.6489,-367.659 L 14.8429,-368.257 L 14.9606,-368.873 L 15,-369.5
 L 15,-494.5 L 14.9606,-495.127 L 14.8429,-495.743 L 14.6489,-496.341 L 14.3815,-496.909 L 14.0451,-497.439
 L 13.6448,-497.923 L 13.1871,-498.353 L 12.6791,-498.722 L 12.1289,-499.024 L 11.5451,-499.255 L 10.9369,-499.411
 L 10.3139,-499.49 L -10.3139,-499.49 L -10.9369,-499.411 L -11.5451,-499.255 L -12.1289,-499.024 L -12.6791,-498.722
 L -13.1871,-498.353 L -13.6448,-497.923 L -14.0451,-497.439 L -14.3815,-496.909 L -14.6489,-496.341 L -14.8429,-495.743
 L -14.9606,-495.127 L -15,-494.5 L -15,-369.5 L -14.9606,-368.873 L -14.8429,-368.257 L -14.6489,-367.659
 L -14.3815,-367.091 L -14.0451,-366.561 L -13.6448,-366.077 L -13.1871,-365.647 L -12.6791,-365.278 L -12.1289,-364.976
 L -11.5451,-364.745 L -10.9369,-364.589 L -10.3139,-364.51 L 10.3139,-364.51 z
M -9.69545,-366.893 L -10.0833,-366.942 L -10.4619,-367.039 L -10.8254,-367.183 L -11.168,-367.372 L -11.4842,-367.601
 L -11.7692,-367.869 L -12.0184,-368.17 L -12.2279,-368.5 L -12.3943,-368.854 L -12.5151,-369.226 L -12.5884,-369.61
 L -12.6129,-370 L -12.6129,-494 L -12.5884,-494.39 L -12.5151,-494.774 L -12.3943,-495.146 L -12.2279,-495.5
 L -12.0184,-495.83 L -11.7692,-496.131 L -11.4842,-496.399 L -11.168,-496.628 L -10.8254,-496.817 L -10.4619,-496.961
 L -10.0833,-497.058 L -9.69545,-497.107 L 9.69545,-497.107 L 10.0833,-497.058 L 10.4619,-496.961 L 10.8254,-496.817
 L 11.168,-496.628 L 11.4842,-496.399 L 11.7692,-496.131 L 12.0184,-495.83 L 12.2279,-495.5 L 12.3943,-495.146
 L 12.5151,-494.774 L 12.5884,-494.39 L 12.6129,-494 L 12.6129,-370 L 12.5884,-369.61 L 12.5151,-369.226
 L 12.3943,-368.854 L 12.2279,-368.5 L 12.0184,-368.17 L 11.7692,-367.869 L 11.4842,-367.601 L 11.168,-367.372
 L 10.8254,-367.183 L 10.4619,-367.039 L 10.0833,-366.942 L 9.69545,-366.893 z
M 10.9369,-220.589 L 11.5451,-220.745 L 12.1289,-220.976 L 12.6791,-221.278 L 13.1871,-221.647 L 13.6448,-222.077
 L 14.0451,-222.561 L 14.3815,-223.091 L 14.6489,-223.659 L 14.8429,-224.257 L 14.9606,-224.873 L 15,-225.5
 L 15,-350.5 L 14.9606,-351.127 L 14.8429,-351.743 L 14.6489,-352.341 L 14.3815,-352.909 L 14.0451,-353.439
 L 13.6448,-353.923 L 13.1871,-354.353 L 12.6791,-354.722 L 12.1289,-355.024 L 11.5451,-355.255 L 10.9369,-355.411
 L 10.3139,-355.49 L -10.3139,-355.49 L -10.9369,-355.411 L -11.5451,-355.255 L -12.1289,-355.024 L -12.6791,-354.722
 L -13.1871,-354.353 L -13.6448,-353.923 L -14.0451,-353.439 L -14.3815,-352.909 L -14.6489,-352.341 L -14.8429,-351.743
 L -14.9606,-351.127 L -15,-350.5 L -15,-225.5 L -14.9606,-224.873 L -14.8429,-224.257 L -14.6489,-223.659
 L -14.3815,-223.091 L -14.0451,-222.561 L -13.6448,-222.077 L -13.1871,-221.647 L -12.6791,-221.278 L -12.1289,-220.976
 L -11.5451,-220.745 L -10.9369,-220.589 L -10.3139,-220.51 L 10.3139,-220.51 z
M 7.36592,-345.869 L 7.09988,-345.903 L 6.84015,-345.969 L 6.59084,-346.068 L 6.35585,-346.197 L 6.1389,-346.355
 L 5.94344,-346.538 L 5.77251,-346.745 L 5.62881,-346.971 L 5.51465,-347.214 L 5.43178,-347.469 L 5.38153,-347.732
 L 5.3647,-348 L 5.38153,-348.268 L 5.43178,-348.531 L 5.51465,-348.786 L 5.62881,-349.029 L 5.77251,-349.255
 L 5.94344,-349.462 L 6.1389,-349.645 L 6.35585,-349.803 L 6.59084,-349.932 L 6.84015,-350.031 L 7.09988,-350.097
 L 7.36592,-350.131 L 7.63406,-350.131 L 7.9001,-350.097 L 8.15984,-350.031 L 8.40915,-349.932 L 8.64413,-349.803
 L 8.86108,-349.645 L 9.05655,-349.462 L 9.22748,-349.255 L 9.37117,-349.029 L 9.48534,-348.786 L 9.56821,-348.531
 L 9.61845,-348.268 L 9.63528,-348 L 9.61845,-347.732 L 9.56821,-347.469 L 9.48534,-347.214 L 9.37117,-346.971
 L 9.22748,-346.745 L 9.05655,-346.538 L 8.86108,-346.355 L 8.64413,-346.197 L 8.40915,-346.068 L 8.15984,-345.969
 L 7.9001,-345.903 L 7.63406,-345.869 z
M -7.63406,-345.869 L -7.9001,-345.903 L -8.15984,-345.969 L -8.40915,-346.068 L -8.64413,-346.197 L -8.86108,-346.355
 L -9.05655,-346.538 L -9.22748,-346.745 L -9.37117,-346.971 L -9.48534,-347.214 L -9.56821,-347.469 L -9.61845,-347.732
 L -9.63528,-348 L -9.61845,-348.268 L -9.56821,-348.531 L -9.48534,-348.786 L -9.37117,-349.029 L -9.22748,-349.255
 L -9.05655,-349.462 L -8.86108,-349.645 L -8.64413,-349.803 L -8.40915,-349.932 L -8.15984,-350.031 L -7.9001,-350.097
 L -7.63406,-350.131 L -7.36592,-350.131 L -7.09988,-350.097 L -6.84015,-350.031 L -6.59084,-349.932 L -6.35585,-349.803
 L -6.1389,-349.645 L -5.94344,-349.462 L -5.77251,-349.255 L -5.62881,-349.029 L -5.51465,-348.786 L -5.43178,-348.531
 L -5.38153,-348.268 L -5.3647,-348 L -5.38153,-347.732 L -5.43178,-347.469 L -5.51465,-347.214 L -5.62881,-346.971
 L -5.77251,-346.745 L -5.94344,-346.538 L -6.1389,-346.355 L -6.35585,-346.197 L -6.59084,-346.068 L -6.84015,-345.969
 L -7.09988,-345.903 L -7.36592,-345.869 z
M 7.36592,-225.869 L 7.09988,-225.903 L 6.84015,-225.969 L 6.59084,-226.068 L 6.35585,-226.197 L 6.1389,-226.355
 L 5.94344,-226.538 L 5.77251,-226.745 L 5.62881,-226.971 L 5.51465,-227.214 L 5.43178,-227.469 L 5.38153,-227.732
 L 5.3647,-228 L 5.38153,-228.268 L 5.43178,-228.531 L 5.51465,-228.786 L 5.62881,-229.029 L 5.77251,-229.255
 L 5.94344,-229.462 L 6.1389,-229.645 L 6.35585,-229.803 L 6.59084,-229.932 L 6.84015,-230.031 L 7.09988,-230.097
 L 7.36592,-230.131 L 7.63406,-230.131 L 7.9001,-230.097 L 8.15984,-230.031 L 8.40915,-229.932 L 8.64413,-229.803
 L 8.86108,-229.645 L 9.05655,-229.462 L 9.22748,-229.255 L 9.37117,-229.029 L 9.48534,-228.786 L 9.56821,-228.531
 L 9.61845,-228.268 L 9.63528,-228 L 9.61845,-227.732 L 9.56821,-227.469 L 9.48534,-227.214 L 9.37117,-226.971
 L 9.22748,-226.745 L 9.05655,-226.538 L 8.86108,-226.355 L 8.64413,-226.197 L 8.40915,-226.068 L 8.15984,-225.969
 L 7.9001,-225.903 L 7.63406,-225.869 z
M -7.63406,-225.869 L -7.9001,-225.903 L -8.15984,-225.969 L -8.40915,-226.068 L -8.64413,-226.197 L -8.86108,-226.355
 L -9.05655,-226.538 L -9.22748,-226.745 L -9.37117,-226.971 L -9.48534,-227.214 L -9.56821,-227.469 L -9.61845,-227.732
 L -9.63528,-228 L -9.61845,-228.268 L -9.56821,-228.531 L -9.48534,-228.786 L -9.37117,-229.029 L -9.22748,-229.255
 L -9.05655,-229.462 L -8.86108,-229.645 L -8.64413,-229.803 L -8.40915,-229.932 L -8.15984,-230.031 L -7.9001,-230.097
 L -7.63406,-230.131 L -7.36592,-230.131 L -7.09988,-230.097 L -6.84015,-230.031 L -6.59084,-229.932 L -6.35585,-229.803
 L -6.1389,-229.645 L -5.94344,-229.462 L -5.77251,-229.255 L -5.62881,-229.029 L -5.51465,-228.786 L -5.43178,-228.531
 L -5.38153,-228.268 L -5.3647,-228 L -5.38153,-227.732 L -5.43178,-227.469 L -5.51465,-227.214 L -5.62881,-226.971
 L -5.77251,-226.745 L -5.94344,-226.538 L -6.1389,-226.355 L -6.35585,-226.197 L -6.59084,-226.068 L -6.84015,-225.969
 L -7.09988,-225.903 L -7.36592,-225.869 z
" stroke="black" fill="lightgray" stroke-width="0.5"/>
</svg>
