<?xml version="1.0" standalone="no"?>
<!DOCTYPE svg PUBLIC "-//W3C//DTD SVG 1.1//EN" "http://www.w3.org/Graphics/SVG/1.1/DTD/svg11.dtd">
<svg width="76mm" height="198mm" viewBox="-38 -306 76 198" xmlns="http://www.w3.org/2000/svg" version="1.1">
<title>OpenSCAD Model</title>
<path d="
M 33.4369,-246.089 L 34.0451,-246.245 L 34.6289,-246.476 L 35.1791,-246.778 L 35.6871,-247.147 L 36.1448,-247.577
 L 36.5451,-248.061 L 36.8815,-248.591 L 37.1489,-249.159 L 37.3429,-249.757 L 37.4606,-250.373 L 37.5,-251
 L 37.5,-301 L 37.4606,-301.627 L 37.3429,-302.243 L 37.1489,-302.841 L 36.8815,-303.409 L 36.5451,-303.939
 L 36.1448,-304.423 L 35.6871,-304.853 L 35.1791,-305.222 L 34.6289,-305.524 L 34.0451,-305.755 L 33.4369,-305.911
 L 32.8139,-305.99 L -32.8139,-305.99 L -33.4369,-305.911 L -34.0451,-305.755 L -34.6289,-305.524 L -35.1791,-305.222
 L -35.6871,-304.853 L -36.1448,-304.423 L -36.5451,-303.939 L -36.8815,-303.409 L -37.1489,-302.841 L -37.3429,-302.243
 L -37.4606,-301.627 L -37.5,-301 L -37.5,-251 L -37.4606,-250.373 L -37.3429,-249.757 L -37.1489,-249.159
 L -36.8815,-248.591 L -36.5451,-248.061 L -36.1448,-247.577 L -35.6871,-247.147 L -35.1791,-246.778 L -34.6289,-246.476
 L -34.0451,-246.245 L -33.4369,-246.089 L -32.8139,-246.01 L 32.8139,-246.01 z
M -32.5482,-246.509 L -33.1401,-246.584 L -33.7178,-246.732 L -34.2724,-246.952 L -34.7952,-247.239 L -35.2778,-247.59
 L -35.7126,-247.998 L -36.0928,-248.458 L -36.4124,-248.962 L -36.6664,-249.501 L -36.8508,-250.069 L -36.9625,-250.655
 L -37,-251.25 L -37,-300.75 L -36.9625,-301.345 L -36.8508,-301.931 L -36.6664,-302.499 L -36.4124,-303.038
 L -36.0928,-303.542 L -35.7126,-304.002 L -35.2778,-304.41 L -34.7952,-304.761 L -34.2724,-305.048 L -33.7178,-305.268
 L -33.1401,-305.416 L -32.5482,-305.491 L 32.5482,-305.491 L 33.1401,-305.416 L 33.7178,-305.268 L 34.2724,-305.048
 L 34.7952,-304.761 L 35.2778,-304.41 L 35.7126,-304.002 L 36.0928,-303.542 L 36.4124,-303.038 L 36.6664,-302.499
 L 36.8508,-301.931 L 36.9625,-301.345 L 37,-300.75 L 37,-251.25 L 36.9625,-250.655 L 36.8508,-250.069
 L 36.6664,-249.501 L 36.4124,-248.962 L 36.0928,-248.458 L 35.7126,-247.998 L 35.2778,-247.59 L 34.7952,-247.239
 L 34.2724,-246.952 L 33.7178,-246.732 L 33.1401,-246.584 L 32.5482,-246.509 z
M 33.4369,-177.089 L 34.0451,-177.245 L 34.6289,-177.476 L 35.1791,-177.778 L 35.6871,-178.147 L 36.1448,-178.577
 L 36.5451,-179.061 L 36.8815,-179.591 L 37.1489,-180.159 L 37.3429,-180.757 L 37.4606,-181.373 L 37.5,-182
 L 37.5,-232 L 37.4606,-232.627 L 37.3429,-233.243 L 37.1489,-233.841 L 36.8815,-234.409 L 36.5451,-234.939
 L 36.1448,-235.423 L 35.6871,-235.853 L 35.1791,-236.222 L 34.6289,-236.524 L 34.0451,-236.755 L 33.4369,-236.911
 L 32.8139,-236.99 L -32.8139,-236.99 L -33.4369,-236.911 L -34.0451,-236.755 L -34.6289,-236.524 L -35.1791,-236.222
 L -35.6871,-235.853 L -36.1448,-235.423 L -36.5451,-234.939 L -36.8815,-234.409 L -37.1489,-233.841 L -37.3429,-233.243
 L -37.4606,-232.627 L -37.5,-232 L -37.5,-182 L -37.4606,-181.373 L -37.3429,-180.757 L -37.1489,-180.159
 L -36.8815,-179.591 L -36.5451,-179.061 L -36.1448,-178.577 L -35.6871,-178.147 L -35.1791,-177.778 L -34.6289,-177.476
 L -34.0451,-177.245 L -33.4369,-177.089 L -32.8139,-177.01 L 32.8139,-177.01 z
M -32.493,-178.388 L -32.9751,-178.449 L -33.4457,-178.57 L -33.8975,-178.749 L -34.3234,-178.983 L -34.7165,-179.269
 L -35.0707,-179.601 L -35.3805,-179.976 L -35.6408,-180.386 L -35.8477,-180.826 L -35.9979,-181.288 L -36.089,-181.765
 L -36.1195,-182.25 L -36.1195,-231.75 L -36.089,-232.235 L -35.9979,-232.712 L -35.8477,-233.174 L -35.6408,-233.614
 L -35.3805,-234.024 L -35.0707,-234.399 L -34.7165,-234.731 L -34.3234,-235.017 L -33.8975,-235.251 L -33.4457,-235.43
 L -32.9751,-235.551 L -32.493,-235.612 L 32.493,-235.612 L 32.9751,-235.551 L 33.4457,-235.43 L 33.8975,-235.251
 L 34.3234,-235.017 L 34.7165,-234.731 L 35.0707,-234.399 L 35.3805,-234.024 L 35.6408,-233.614 L 35.8477,-233.174
 L 35.9979,-232.712 L 36.089,-232.235 L 36.1195,-231.75 L 36.1195,-182.25 L 36.089,-181.765 L 35.9979,-181.288
 L 35.8477,-180.826 L 35.6408,-180.386 L 35.3805,-179.976 L 35.0707,-179.601 L 34.7165,-179.269 L 34.3234,-178.983
 L 33.8975,-178.749 L 33.4457,-178.57 L 32.9751,-178.449 L 32.493,-178.388 z
M 33.4369,-108.089 L 34.0451,-108.245 L 34.6289,-108.476 L 35.1791,-108.778 L 35.6871,-109.147 L 36.1448,-109.577
 L 36.5451,-110.061 L 36.8815,-110.591 L 37.1489,-111.159 L 37.3429,-111.757 L 37.4606,-112.373 L 37.5,-113
 L 37.5,-163 L 37.4606,-163.627 L 37.3429,-164.243 L 37.1489,-164.841 L 36.8815,-165.409 L 36.5451,-165.939
 L 36.1448,-166.423 L 35.6871,-166.853 L 35.1791,-167.222 L 34.6289,-167.524 L 34.0451,-167.755 L 33.4369,-167.911
 L 32.8139,-167.99 L -32.8139,-167.99 L -33.4369,-167.911 L -34.0451,-167.755 L -34.6289,-167.524 L -35.1791,-167.222
 L -35.6871,-166.853 L -36.1448,-166.423 L -36.5451,-165.939 L -36.8815,-165.409 L -37.1489,-164.841 L -37.3429,-164.243
 L -37.4606,-163.627 L -37.5,-163 L -37.5,-113 L -37.4606,-112.373 L -37.3429,-111.757 L -37.1489,-111.159
 L -36.8815,-110.591 L -36.5451,-110.061 L -36.1448,-109.577 L -35.6871,-109.147 L -35.1791,-108.778 L -34.6289,-108.476
 L -34.0451,-108.245 L -33.4369,-108.089 L -32.8139,-108.01 L 32.8139,-108.01 z
M 29.887,-158.704 L 29.6627,-158.732 L 29.4438,-158.788 L 29.2336,-158.871 L 29.0355,-158.98 L 28.8526,-159.113
 L 28.6879,-159.268 L 28.5438,-159.442 L 28.4226,-159.633 L 28.3264,-159.837 L 28.2565,-160.052 L 28.2142,-160.274
 L 28.2,-160.5 L 28.2142,-160.726 L 28.2565,-160.948 L 28.3264,-161.163 L 28.4226,-161.367 L 28.5438,-161.558
 L 28.6879,-161.732 L 28.8526,-161.887 L 29.0355,-162.02 L 29.2336,-162.129 L 29.4438,-162.212 L 29.6627,-162.268
 L 29.887,-162.296 L 30.113,-162.296 L 30.3373,-162.268 L 30.5562,-162.212 L 30.7664,-162.129 L 30.9645,-162.02
 L 31.1474,-161.887 L 31.3121,-161.732 L 31.4562,-161.558 L 31.5773,-161.367 L 31.6736,-161.163 L 31.7434,-160.948
 L 31.7858,-160.726 L 31.8,-160.5 L 31.7858,-160.274 L 31.7434,-160.052 L 31.6736,-159.837 L 31.5773,-159.633
 L 31.4562,-159.442 L 31.3121,-159.268 L 31.1474,-159.113 L 30.9645,-158.98 L 30.7664,-158.871 L 30.5562,-158.788
 L 30.3373,-158.732 L 30.113,-158.704 z
M -30.113,-158.704 L -30.3373,-158.732 L -30.5562,-158.788 L -30.7664,-158.871 L -30.9645,-158.98 L -31.1474,-159.113
 L -31.3121,-159.268 L -31.4562,-159.442 L -31.5773,-159.633 L -31.6736,-159.837 L -31.7434,-160.052 L -31.7858,-160.274
 L -31.8,-160.5 L -31.7858,-160.726 L -31.7434,-160.948 L -31.6736,-161.163 L -31.5773,-161.367 L -31.4562,-161.558
 L -31.3121,-161.732 L -31.1474,-161.887 L -30.9645,-162.02 L -30.7664,-162.129 L -30.5562,-162.212 L -30.3373,-162.268
 L -30.113,-162.296 L -29.887,-162.296 L -29.6627,-162.268 L -29.4438,-162.212 L -29.2336,-162.129 L -29.0355,-162.02
 L -28.8526,-161.887 L -28.6879,-161.732 L -28.5438,-161.558 L -28.4226,-161.367 L -28.3264,-161.163 L -28.2565,-160.948
 L -28.2142,-160.726 L -28.2,-160.5 L -28.2142,-160.274 L -28.2565,-160.052 L -28.3264,-159.837 L -28.4226,-159.633
 L -28.5438,-159.442 L -28.6879,-159.268 L -28.8526,-159.113 L -29.0355,-158.98 L -29.2336,-158.871 L -29.4438,-158.788
 L -29.6627,-158.732 L -29.887,-158.704 z
M -30.113,-113.704 L -30.3373,-113.732 L -30.5562,-113.788 L -30.7664,-113.871 L -30.9645,-113.98 L -31.1474,-114.113
 L -31.3121,-114.268 L -31.4562,-114.442 L -31.5773,-114.633 L -31.6736,-114.837 L -31.7434,-115.052 L -31.7858,-115.274
 L -31.8,-115.5 L -31.7858,-115.726 L -31.7434,-115.948 L -31.6736,-116.163 L -31.5773,-116.367 L -31.4562,-116.558
 L -31.3121,-116.732 L -31.1474,-116.887 L -30.9645,-117.02 L -30.7664,-117.129 L -30.5562,-117.212 L -30.3373,-117.268
 L -30.113,-117.296 L -29.887,-117.296 L -29.6627,-117.268 L -29.4438,-117.212 L -29.2336,-117.129 L -29.0355,-117.02
 L -28.8526,-116.887 L -28.6879,-116.732 L -28.5438,-116.558 L -28.4226,-116.367 L -28.3264,-116.163 L -28.2565,-115.948
 L -28.2142,-115.726 L -28.2,-115.5 L -28.2142,-115.274 L -28.2565,-115.052 L -28.3264,-114.837 L -28.4226,-114.633
 L -28.5438,-114.442 L -28.6879,-114.268 L -28.8526,-114.113 L -29.0355,-113.98 L -29.2336,-113.871 L -29.4438,-113.788
 L -29.6627,-113.732 L -29.887,-113.704 z
M 29.887,-113.704 L 29.6627,-113.732 L 29.4438,-113.788 L 29.2336,-113.871 L 29.0355,-113.98 L 28.8526,-114.113
 L 28.6879,-114.268 L 28.5438,-114.442 L 28.4226,-114.633 L 28.3264,-114.837 L 28.2565,-115.052 L 28.2142,-115.274
 L 28.2,-115.5 L 28.2142,-115.726 L 28.2565,-115.948 L 28.3264,-116.163 L 28.4226,-116.367 L 28.5438,-116.558
 L 28.6879,-116.732 L 28.8526,-116.887 L 29.0355,-117.02 L 29.2336,-117.129 L 29.4438,-117.212 L 29.6627,-117.268
 L 29.887,-117.296 L 30.113,-117.296 L 30.3373,-117.268 L 30.5562,-117.212 L 30.7664,-117.129 L 30.9645,-117.02
 L 31.1474,-116.887 L 31.3121,-116.732 L 31.4562,-116.558 L 31.5773,-116.367 L 31.6736,-116.163 L 31.7434,-115.948
 L 31.7858,-115.726 L 31.8,-115.5 L 31.7858,-115.274 L 31.7434,-115.052 L 31.6736,-114.837 L 31.5773,-114.633
 L 31.4562,-114.442 L 31.3121,-114.268 L 31.1474,-114.113 L 30.9645,-113.98 L 30.7664,-113.871 L 30.5562,-113.788
 L 30.3373,-113.732 L 30.113,-113.704 z
" stroke="black" fill="lightgray" stroke-width="0.5"/>
</svg>
