  0
SECTION
  2
BLOCKS
  0
ENDSEC
  0
SECTION
  2
ENTITIES
  0
LINE
  8
0
 10
10.9369
 20
108.089
 11
11.5451
 21
108.245
  0
LINE
  8
0
 10
11.5451
 20
108.245
 11
12.1289
 21
108.476
  0
LINE
  8
0
 10
12.1289
 20
108.476
 11
12.6791
 21
108.778
  0
LINE
  8
0
 10
12.6791
 20
108.778
 11
13.1871
 21
109.147
  0
LINE
  8
0
 10
13.1871
 20
109.147
 11
13.6448
 21
109.577
  0
LINE
  8
0
 10
13.6448
 20
109.577
 11
14.0451
 21
110.061
  0
LINE
  8
0
 10
14.0451
 20
110.061
 11
14.3815
 21
110.591
  0
LINE
  8
0
 10
14.3815
 20
110.591
 11
14.6489
 21
111.159
  0
LINE
  8
0
 10
14.6489
 20
111.159
 11
14.8429
 21
111.757
  0
LINE
  8
0
 10
14.8429
 20
111.757
 11
14.9606
 21
112.373
  0
LINE
  8
0
 10
14.9606
 20
112.373
 11
15
 21
113
  0
LINE
  8
0
 10
15
 20
113
 11
15
 21
163
  0
LINE
  8
0
 10
15
 20
163
 11
14.9606
 21
163.627
  0
LINE
  8
0
 10
14.9606
 20
163.627
 11
14.8429
 21
164.243
  0
LINE
  8
0
 10
14.8429
 20
164.243
 11
14.6489
 21
164.841
  0
LINE
  8
0
 10
14.6489
 20
164.841
 11
14.3815
 21
165.409
  0
LINE
  8
0
 10
14.3815
 20
165.409
 11
14.0451
 21
165.939
  0
LINE
  8
0
 10
14.0451
 20
165.939
 11
13.6448
 21
166.423
  0
LINE
  8
0
 10
13.6448
 20
166.423
 11
13.1871
 21
166.853
  0
LINE
  8
0
 10
13.1871
 20
166.853
 11
12.6791
 21
167.222
  0
LINE
  8
0
 10
12.6791
 20
167.222
 11
12.1289
 21
167.524
  0
LINE
  8
0
 10
12.1289
 20
167.524
 11
11.5451
 21
167.755
  0
LINE
  8
0
 10
11.5451
 20
167.755
 11
10.9369
 21
167.911
  0
LINE
  8
0
 10
10.9369
 20
167.911
 11
10.3139
 21
167.99
  0
LINE
  8
0
 10
10.3139
 20
167.99
 11
-10.3139
 21
167.99
  0
LINE
  8
0
 10
-10.3139
 20
167.99
 11
-10.9369
 21
167.911
  0
LINE
  8
0
 10
-10.9369
 20
167.911
 11
-11.5451
 21
167.755
  0
LINE
  8
0
 10
-11.5451
 20
167.755
 11
-12.1289
 21
167.524
  0
LINE
  8
0
 10
-12.1289
 20
167.524
 11
-12.6791
 21
167.222
  0
LINE
  8
0
 10
-12.6791
 20
167.222
 11
-13.1871
 21
166.853
  0
LINE
  8
0
 10
-13.1871
 20
166.853
 11
-13.6448
 21
166.423
  0
LINE
  8
0
 10
-13.6448
 20
166.423
 11
-14.0451
 21
165.939
  0
LINE
  8
0
 10
-14.0451
 20
165.939
 11
-14.3815
 21
165.409
  0
LINE
  8
0
 10
-14.3815
 20
165.409
 11
-14.6489
 21
164.841
  0
LINE
  8
0
 10
-14.6489
 20
164.841
 11
-14.8429
 21
164.243
  0
LINE
  8
0
 10
-14.8429
 20
164.243
 11
-14.9606
 21
163.627
  0
LINE
  8
0
 10
-14.9606
 20
163.627
 11
-15
 21
163
  0
LINE
  8
0
 10
-15
 20
163
 11
-15
 21
113
  0
LINE
  8
0
 10
-15
 20
113
 11
-14.9606
 21
112.373
  0
LINE
  8
0
 10
-14.9606
 20
112.373
 11
-14.8429
 21
111.757
  0
LINE
  8
0
 10
-14.8429
 20
111.757
 11
-14.6489
 21
111.159
  0
LINE
  8
0
 10
-14.6489
 20
111.159
 11
-14.3815
 21
110.591
  0
LINE
  8
0
 10
-14.3815
 20
110.591
 11
-14.0451
 21
110.061
  0
LINE
  8
0
 10
-14.0451
 20
110.061
 11
-13.6448
 21
109.577
  0
LINE
  8
0
 10
-13.6448
 20
109.577
 11
-13.1871
 21
109.147
  0
LINE
  8
0
 10
-13.1871
 20
109.147
 11
-12.6791
 21
108.778
  0
LINE
  8
0
 10
-12.6791
 20
108.778
 11
-12.1289
 21
108.476
  0
LINE
  8
0
 10
-12.1289
 20
108.476
 11
-11.5451
 21
108.245
  0
LINE
  8
0
 10
-11.5451
 20
108.245
 11
-10.9369
 21
108.089
  0
LINE
  8
0
 10
-10.9369
 20
108.089
 11
-10.3139
 21
108.01
  0
LINE
  8
0
 10
-10.3139
 20
108.01
 11
10.3139
 21
108.01
  0
LINE
  8
0
 10
10.3139
 20
108.01
 11
10.9369
 21
108.089
  0
LINE
  8
0
 10
10.9369
 20
39.0886
 11
11.5451
 21
39.2447
  0
LINE
  8
0
 10
11.5451
 20
39.2447
 11
12.1289
 21
39.4759
  0
LINE
  8
0
 10
12.1289
 20
39.4759
 11
12.6791
 21
39.7784
  0
LINE
  8
0
 10
12.6791
 20
39.7784
 11
13.1871
 21
40.1474
  0
LINE
  8
0
 10
13.1871
 20
40.1474
 11
13.6448
 21
40.5773
  0
LINE
  8
0
 10
13.6448
 20
40.5773
 11
14.0451
 21
41.0611
  0
LINE
  8
0
 10
14.0451
 20
41.0611
 11
14.3815
 21
41.5912
  0
LINE
  8
0
 10
14.3815
 20
41.5912
 11
14.6489
 21
42.1594
  0
LINE
  8
0
 10
14.6489
 20
42.1594
 11
14.8429
 21
42.7566
  0
LINE
  8
0
 10
14.8429
 20
42.7566
 11
14.9606
 21
43.3733
  0
LINE
  8
0
 10
14.9606
 20
43.3733
 11
15
 21
44
  0
LINE
  8
0
 10
15
 20
44
 11
15
 21
94
  0
LINE
  8
0
 10
15
 20
94
 11
14.9606
 21
94.6267
  0
LINE
  8
0
 10
14.9606
 20
94.6267
 11
14.8429
 21
95.2434
  0
LINE
  8
0
 10
14.8429
 20
95.2434
 11
14.6489
 21
95.8406
  0
LINE
  8
0
 10
14.6489
 20
95.8406
 11
14.3815
 21
96.4088
  0
LINE
  8
0
 10
14.3815
 20
96.4088
 11
14.0451
 21
96.9389
  0
LINE
  8
0
 10
14.0451
 20
96.9389
 11
13.6448
 21
97.4227
  0
LINE
  8
0
 10
13.6448
 20
97.4227
 11
13.1871
 21
97.8526
  0
LINE
  8
0
 10
13.1871
 20
97.8526
 11
12.6791
 21
98.2216
  0
LINE
  8
0
 10
12.6791
 20
98.2216
 11
12.1289
 21
98.5241
  0
LINE
  8
0
 10
12.1289
 20
98.5241
 11
11.5451
 21
98.7553
  0
LINE
  8
0
 10
11.5451
 20
98.7553
 11
10.9369
 21
98.9114
  0
LINE
  8
0
 10
10.9369
 20
98.9114
 11
10.3139
 21
98.9901
  0
LINE
  8
0
 10
10.3139
 20
98.9901
 11
-10.3139
 21
98.9901
  0
LINE
  8
0
 10
-10.3139
 20
98.9901
 11
-10.9369
 21
98.9114
  0
LINE
  8
0
 10
-10.9369
 20
98.9114
 11
-11.5451
 21
98.7553
  0
LINE
  8
0
 10
-11.5451
 20
98.7553
 11
-12.1289
 21
98.5241
  0
LINE
  8
0
 10
-12.1289
 20
98.5241
 11
-12.6791
 21
98.2216
  0
LINE
  8
0
 10
-12.6791
 20
98.2216
 11
-13.1871
 21
97.8526
  0
LINE
  8
0
 10
-13.1871
 20
97.8526
 11
-13.6448
 21
97.4227
  0
LINE
  8
0
 10
-13.6448
 20
97.4227
 11
-14.0451
 21
96.9389
  0
LINE
  8
0
 10
-14.0451
 20
96.9389
 11
-14.3815
 21
96.4088
  0
LINE
  8
0
 10
-14.3815
 20
96.4088
 11
-14.6489
 21
95.8406
  0
LINE
  8
0
 10
-14.6489
 20
95.8406
 11
-14.8429
 21
95.2434
  0
LINE
  8
0
 10
-14.8429
 20
95.2434
 11
-14.9606
 21
94.6267
  0
LINE
  8
0
 10
-14.9606
 20
94.6267
 11
-15
 21
94
  0
LINE
  8
0
 10
-15
 20
94
 11
-15
 21
44
  0
LINE
  8
0
 10
-15
 20
44
 11
-14.9606
 21
43.3733
  0
LINE
  8
0
 10
-14.9606
 20
43.3733
 11
-14.8429
 21
42.7566
  0
LINE
  8
0
 10
-14.8429
 20
42.7566
 11
-14.6489
 21
42.1594
  0
LINE
  8
0
 10
-14.6489
 20
42.1594
 11
-14.3815
 21
41.5912
  0
LINE
  8
0
 10
-14.3815
 20
41.5912
 11
-14.0451
 21
41.0611
  0
LINE
  8
0
 10
-14.0451
 20
41.0611
 11
-13.6448
 21
40.5773
  0
LINE
  8
0
 10
-13.6448
 20
40.5773
 11
-13.1871
 21
40.1474
  0
LINE
  8
0
 10
-13.1871
 20
40.1474
 11
-12.6791
 21
39.7784
  0
LINE
  8
0
 10
-12.6791
 20
39.7784
 11
-12.1289
 21
39.4759
  0
LINE
  8
0
 10
-12.1289
 20
39.4759
 11
-11.5451
 21
39.2447
  0
LINE
  8
0
 10
-11.5451
 20
39.2447
 11
-10.9369
 21
39.0886
  0
LINE
  8
0
 10
-10.9369
 20
39.0886
 11
-10.3139
 21
39.0099
  0
LINE
  8
0
 10
-10.3139
 20
39.0099
 11
10.3139
 21
39.0099
  0
LINE
  8
0
 10
10.3139
 20
39.0099
 11
10.9369
 21
39.0886
  0
LINE
  8
0
 10
-7.61302
 20
89.7036
 11
-7.83728
 21
89.7319
  0
LINE
  8
0
 10
-7.83728
 20
89.7319
 11
-8.05623
 21
89.7881
  0
LINE
  8
0
 10
-8.05623
 20
89.7881
 11
-8.26639
 21
89.8713
  0
LINE
  8
0
 10
-8.26639
 20
89.8713
 11
-8.46448
 21
89.9802
  0
LINE
  8
0
 10
-8.46448
 20
89.9802
 11
-8.64735
 21
90.1131
  0
LINE
  8
0
 10
-8.64735
 20
90.1131
 11
-8.81213
 21
90.2678
  0
LINE
  8
0
 10
-8.81213
 20
90.2678
 11
-8.95622
 21
90.442
  0
LINE
  8
0
 10
-8.95622
 20
90.442
 11
-9.07735
 21
90.6328
  0
LINE
  8
0
 10
-9.07735
 20
90.6328
 11
-9.17358
 21
90.8374
  0
LINE
  8
0
 10
-9.17358
 20
90.8374
 11
-9.24344
 21
91.0524
  0
LINE
  8
0
 10
-9.24344
 20
91.0524
 11
-9.2858
 21
91.2744
  0
LINE
  8
0
 10
-9.2858
 20
91.2744
 11
-9.29999
 21
91.5
  0
LINE
  8
0
 10
-9.29999
 20
91.5
 11
-9.2858
 21
91.7256
  0
LINE
  8
0
 10
-9.2858
 20
91.7256
 11
-9.24344
 21
91.9476
  0
LINE
  8
0
 10
-9.24344
 20
91.9476
 11
-9.17358
 21
92.1626
  0
LINE
  8
0
 10
-9.17358
 20
92.1626
 11
-9.07735
 21
92.3672
  0
LINE
  8
0
 10
-9.07735
 20
92.3672
 11
-8.95622
 21
92.558
  0
LINE
  8
0
 10
-8.95622
 20
92.558
 11
-8.81213
 21
92.7322
  0
LINE
  8
0
 10
-8.81213
 20
92.7322
 11
-8.64735
 21
92.8869
  0
LINE
  8
0
 10
-8.64735
 20
92.8869
 11
-8.46448
 21
93.0198
  0
LINE
  8
0
 10
-8.46448
 20
93.0198
 11
-8.26639
 21
93.1287
  0
LINE
  8
0
 10
-8.26639
 20
93.1287
 11
-8.05623
 21
93.2119
  0
LINE
  8
0
 10
-8.05623
 20
93.2119
 11
-7.83728
 21
93.2681
  0
LINE
  8
0
 10
-7.83728
 20
93.2681
 11
-7.61302
 21
93.2964
  0
LINE
  8
0
 10
-7.61302
 20
93.2964
 11
-7.38696
 21
93.2964
  0
LINE
  8
0
 10
-7.38696
 20
93.2964
 11
-7.1627
 21
93.2681
  0
LINE
  8
0
 10
-7.1627
 20
93.2681
 11
-6.94376
 21
93.2119
  0
LINE
  8
0
 10
-6.94376
 20
93.2119
 11
-6.7336
 21
93.1287
  0
LINE
  8
0
 10
-6.7336
 20
93.1287
 11
-6.53551
 21
93.0198
  0
LINE
  8
0
 10
-6.53551
 20
93.0198
 11
-6.35263
 21
92.8869
  0
LINE
  8
0
 10
-6.35263
 20
92.8869
 11
-6.18785
 21
92.7322
  0
LINE
  8
0
 10
-6.18785
 20
92.7322
 11
-6.04376
 21
92.558
  0
LINE
  8
0
 10
-6.04376
 20
92.558
 11
-5.92264
 21
92.3672
  0
LINE
  8
0
 10
-5.92264
 20
92.3672
 11
-5.8264
 21
92.1626
  0
LINE
  8
0
 10
-5.8264
 20
92.1626
 11
-5.75655
 21
91.9476
  0
LINE
  8
0
 10
-5.75655
 20
91.9476
 11
-5.71419
 21
91.7256
  0
LINE
  8
0
 10
-5.71419
 20
91.7256
 11
-5.7
 21
91.5
  0
LINE
  8
0
 10
-5.7
 20
91.5
 11
-5.71419
 21
91.2744
  0
LINE
  8
0
 10
-5.71419
 20
91.2744
 11
-5.75655
 21
91.0524
  0
LINE
  8
0
 10
-5.75655
 20
91.0524
 11
-5.8264
 21
90.8374
  0
LINE
  8
0
 10
-5.8264
 20
90.8374
 11
-5.92264
 21
90.6328
  0
LINE
  8
0
 10
-5.92264
 20
90.6328
 11
-6.04376
 21
90.442
  0
LINE
  8
0
 10
-6.04376
 20
90.442
 11
-6.18785
 21
90.2678
  0
LINE
  8
0
 10
-6.18785
 20
90.2678
 11
-6.35263
 21
90.1131
  0
LINE
  8
0
 10
-6.35263
 20
90.1131
 11
-6.53551
 21
89.9802
  0
LINE
  8
0
 10
-6.53551
 20
89.9802
 11
-6.7336
 21
89.8713
  0
LINE
  8
0
 10
-6.7336
 20
89.8713
 11
-6.94376
 21
89.7881
  0
LINE
  8
0
 10
-6.94376
 20
89.7881
 11
-7.1627
 21
89.7319
  0
LINE
  8
0
 10
-7.1627
 20
89.7319
 11
-7.38696
 21
89.7036
  0
LINE
  8
0
 10
-7.38696
 20
89.7036
 11
-7.61302
 21
89.7036
  0
LINE
  8
0
 10
7.38696
 20
89.7036
 11
7.1627
 21
89.7319
  0
LINE
  8
0
 10
7.1627
 20
89.7319
 11
6.94376
 21
89.7881
  0
LINE
  8
0
 10
6.94376
 20
89.7881
 11
6.7336
 21
89.8713
  0
LINE
  8
0
 10
6.7336
 20
89.8713
 11
6.53551
 21
89.9802
  0
LINE
  8
0
 10
6.53551
 20
89.9802
 11
6.35263
 21
90.1131
  0
LINE
  8
0
 10
6.35263
 20
90.1131
 11
6.18785
 21
90.2678
  0
LINE
  8
0
 10
6.18785
 20
90.2678
 11
6.04376
 21
90.442
  0
LINE
  8
0
 10
6.04376
 20
90.442
 11
5.92264
 21
90.6328
  0
LINE
  8
0
 10
5.92264
 20
90.6328
 11
5.8264
 21
90.8374
  0
LINE
  8
0
 10
5.8264
 20
90.8374
 11
5.75655
 21
91.0524
  0
LINE
  8
0
 10
5.75655
 20
91.0524
 11
5.71419
 21
91.2744
  0
LINE
  8
0
 10
5.71419
 20
91.2744
 11
5.7
 21
91.5
  0
LINE
  8
0
 10
5.7
 20
91.5
 11
5.71419
 21
91.7256
  0
LINE
  8
0
 10
5.71419
 20
91.7256
 11
5.75655
 21
91.9476
  0
LINE
  8
0
 10
5.75655
 20
91.9476
 11
5.8264
 21
92.1626
  0
LINE
  8
0
 10
5.8264
 20
92.1626
 11
5.92264
 21
92.3672
  0
LINE
  8
0
 10
5.92264
 20
92.3672
 11
6.04376
 21
92.558
  0
LINE
  8
0
 10
6.04376
 20
92.558
 11
6.18785
 21
92.7322
  0
LINE
  8
0
 10
6.18785
 20
92.7322
 11
6.35263
 21
92.8869
  0
LINE
  8
0
 10
6.35263
 20
92.8869
 11
6.53551
 21
93.0198
  0
LINE
  8
0
 10
6.53551
 20
93.0198
 11
6.7336
 21
93.1287
  0
LINE
  8
0
 10
6.7336
 20
93.1287
 11
6.94376
 21
93.2119
  0
LINE
  8
0
 10
6.94376
 20
93.2119
 11
7.1627
 21
93.2681
  0
LINE
  8
0
 10
7.1627
 20
93.2681
 11
7.38696
 21
93.2964
  0
LINE
  8
0
 10
7.38696
 20
93.2964
 11
7.61302
 21
93.2964
  0
LINE
  8
0
 10
7.61302
 20
93.2964
 11
7.83728
 21
93.2681
  0
LINE
  8
0
 10
7.83728
 20
93.2681
 11
8.05623
 21
93.2119
  0
LINE
  8
0
 10
8.05623
 20
93.2119
 11
8.26639
 21
93.1287
  0
LINE
  8
0
 10
8.26639
 20
93.1287
 11
8.46448
 21
93.0198
  0
LINE
  8
0
 10
8.46448
 20
93.0198
 11
8.64735
 21
92.8869
  0
LINE
  8
0
 10
8.64735
 20
92.8869
 11
8.81213
 21
92.7322
  0
LINE
  8
0
 10
8.81213
 20
92.7322
 11
8.95622
 21
92.558
  0
LINE
  8
0
 10
8.95622
 20
92.558
 11
9.07735
 21
92.3672
  0
LINE
  8
0
 10
9.07735
 20
92.3672
 11
9.17358
 21
92.1626
  0
LINE
  8
0
 10
9.17358
 20
92.1626
 11
9.24344
 21
91.9476
  0
LINE
  8
0
 10
9.24344
 20
91.9476
 11
9.2858
 21
91.7256
  0
LINE
  8
0
 10
9.2858
 20
91.7256
 11
9.29999
 21
91.5
  0
LINE
  8
0
 10
9.29999
 20
91.5
 11
9.2858
 21
91.2744
  0
LINE
  8
0
 10
9.2858
 20
91.2744
 11
9.24344
 21
91.0524
  0
LINE
  8
0
 10
9.24344
 20
91.0524
 11
9.17358
 21
90.8374
  0
LINE
  8
0
 10
9.17358
 20
90.8374
 11
9.07735
 21
90.6328
  0
LINE
  8
0
 10
9.07735
 20
90.6328
 11
8.95622
 21
90.442
  0
LINE
  8
0
 10
8.95622
 20
90.442
 11
8.81213
 21
90.2678
  0
LINE
  8
0
 10
8.81213
 20
90.2678
 11
8.64735
 21
90.1131
  0
LINE
  8
0
 10
8.64735
 20
90.1131
 11
8.46448
 21
89.9802
  0
LINE
  8
0
 10
8.46448
 20
89.9802
 11
8.26639
 21
89.8713
  0
LINE
  8
0
 10
8.26639
 20
89.8713
 11
8.05623
 21
89.7881
  0
LINE
  8
0
 10
8.05623
 20
89.7881
 11
7.83728
 21
89.7319
  0
LINE
  8
0
 10
7.83728
 20
89.7319
 11
7.61302
 21
89.7036
  0
LINE
  8
0
 10
7.61302
 20
89.7036
 11
7.38696
 21
89.7036
  0
LINE
  8
0
 10
-7.61302
 20
44.7036
 11
-7.83728
 21
44.7319
  0
LINE
  8
0
 10
-7.83728
 20
44.7319
 11
-8.05623
 21
44.7881
  0
LINE
  8
0
 10
-8.05623
 20
44.7881
 11
-8.26639
 21
44.8713
  0
LINE
  8
0
 10
-8.26639
 20
44.8713
 11
-8.46448
 21
44.9802
  0
LINE
  8
0
 10
-8.46448
 20
44.9802
 11
-8.64735
 21
45.1131
  0
LINE
  8
0
 10
-8.64735
 20
45.1131
 11
-8.81213
 21
45.2678
  0
LINE
  8
0
 10
-8.81213
 20
45.2678
 11
-8.95622
 21
45.442
  0
LINE
  8
0
 10
-8.95622
 20
45.442
 11
-9.07735
 21
45.6328
  0
LINE
  8
0
 10
-9.07735
 20
45.6328
 11
-9.17358
 21
45.8374
  0
LINE
  8
0
 10
-9.17358
 20
45.8374
 11
-9.24344
 21
46.0524
  0
LINE
  8
0
 10
-9.24344
 20
46.0524
 11
-9.2858
 21
46.2744
  0
LINE
  8
0
 10
-9.2858
 20
46.2744
 11
-9.29999
 21
46.5
  0
LINE
  8
0
 10
-9.29999
 20
46.5
 11
-9.2858
 21
46.7256
  0
LINE
  8
0
 10
-9.2858
 20
46.7256
 11
-9.24344
 21
46.9476
  0
LINE
  8
0
 10
-9.24344
 20
46.9476
 11
-9.17358
 21
47.1626
  0
LINE
  8
0
 10
-9.17358
 20
47.1626
 11
-9.07735
 21
47.3672
  0
LINE
  8
0
 10
-9.07735
 20
47.3672
 11
-8.95622
 21
47.558
  0
LINE
  8
0
 10
-8.95622
 20
47.558
 11
-8.81213
 21
47.7322
  0
LINE
  8
0
 10
-8.81213
 20
47.7322
 11
-8.64735
 21
47.8869
  0
LINE
  8
0
 10
-8.64735
 20
47.8869
 11
-8.46448
 21
48.0198
  0
LINE
  8
0
 10
-8.46448
 20
48.0198
 11
-8.26639
 21
48.1287
  0
LINE
  8
0
 10
-8.26639
 20
48.1287
 11
-8.05623
 21
48.2119
  0
LINE
  8
0
 10
-8.05623
 20
48.2119
 11
-7.83728
 21
48.2681
  0
LINE
  8
0
 10
-7.83728
 20
48.2681
 11
-7.61302
 21
48.2964
  0
LINE
  8
0
 10
-7.61302
 20
48.2964
 11
-7.38696
 21
48.2964
  0
LINE
  8
0
 10
-7.38696
 20
48.2964
 11
-7.1627
 21
48.2681
  0
LINE
  8
0
 10
-7.1627
 20
48.2681
 11
-6.94376
 21
48.2119
  0
LINE
  8
0
 10
-6.94376
 20
48.2119
 11
-6.7336
 21
48.1287
  0
LINE
  8
0
 10
-6.7336
 20
48.1287
 11
-6.53551
 21
48.0198
  0
LINE
  8
0
 10
-6.53551
 20
48.0198
 11
-6.35263
 21
47.8869
  0
LINE
  8
0
 10
-6.35263
 20
47.8869
 11
-6.18785
 21
47.7322
  0
LINE
  8
0
 10
-6.18785
 20
47.7322
 11
-6.04376
 21
47.558
  0
LINE
  8
0
 10
-6.04376
 20
47.558
 11
-5.92264
 21
47.3672
  0
LINE
  8
0
 10
-5.92264
 20
47.3672
 11
-5.8264
 21
47.1626
  0
LINE
  8
0
 10
-5.8264
 20
47.1626
 11
-5.75655
 21
46.9476
  0
LINE
  8
0
 10
-5.75655
 20
46.9476
 11
-5.71419
 21
46.7256
  0
LINE
  8
0
 10
-5.71419
 20
46.7256
 11
-5.7
 21
46.5
  0
LINE
  8
0
 10
-5.7
 20
46.5
 11
-5.71419
 21
46.2744
  0
LINE
  8
0
 10
-5.71419
 20
46.2744
 11
-5.75655
 21
46.0524
  0
LINE
  8
0
 10
-5.75655
 20
46.0524
 11
-5.8264
 21
45.8374
  0
LINE
  8
0
 10
-5.8264
 20
45.8374
 11
-5.92264
 21
45.6328
  0
LINE
  8
0
 10
-5.92264
 20
45.6328
 11
-6.04376
 21
45.442
  0
LINE
  8
0
 10
-6.04376
 20
45.442
 11
-6.18785
 21
45.2678
  0
LINE
  8
0
 10
-6.18785
 20
45.2678
 11
-6.35263
 21
45.1131
  0
LINE
  8
0
 10
-6.35263
 20
45.1131
 11
-6.53551
 21
44.9802
  0
LINE
  8
0
 10
-6.53551
 20
44.9802
 11
-6.7336
 21
44.8713
  0
LINE
  8
0
 10
-6.7336
 20
44.8713
 11
-6.94376
 21
44.7881
  0
LINE
  8
0
 10
-6.94376
 20
44.7881
 11
-7.1627
 21
44.7319
  0
LINE
  8
0
 10
-7.1627
 20
44.7319
 11
-7.38696
 21
44.7036
  0
LINE
  8
0
 10
-7.38696
 20
44.7036
 11
-7.61302
 21
44.7036
  0
LINE
  8
0
 10
7.38696
 20
44.7036
 11
7.1627
 21
44.7319
  0
LINE
  8
0
 10
7.1627
 20
44.7319
 11
6.94376
 21
44.7881
  0
LINE
  8
0
 10
6.94376
 20
44.7881
 11
6.7336
 21
44.8713
  0
LINE
  8
0
 10
6.7336
 20
44.8713
 11
6.53551
 21
44.9802
  0
LINE
  8
0
 10
6.53551
 20
44.9802
 11
6.35263
 21
45.1131
  0
LINE
  8
0
 10
6.35263
 20
45.1131
 11
6.18785
 21
45.2678
  0
LINE
  8
0
 10
6.18785
 20
45.2678
 11
6.04376
 21
45.442
  0
LINE
  8
0
 10
6.04376
 20
45.442
 11
5.92264
 21
45.6328
  0
LINE
  8
0
 10
5.92264
 20
45.6328
 11
5.8264
 21
45.8374
  0
LINE
  8
0
 10
5.8264
 20
45.8374
 11
5.75655
 21
46.0524
  0
LINE
  8
0
 10
5.75655
 20
46.0524
 11
5.71419
 21
46.2744
  0
LINE
  8
0
 10
5.71419
 20
46.2744
 11
5.7
 21
46.5
  0
LINE
  8
0
 10
5.7
 20
46.5
 11
5.71419
 21
46.7256
  0
LINE
  8
0
 10
5.71419
 20
46.7256
 11
5.75655
 21
46.9476
  0
LINE
  8
0
 10
5.75655
 20
46.9476
 11
5.8264
 21
47.1626
  0
LINE
  8
0
 10
5.8264
 20
47.1626
 11
5.92264
 21
47.3672
  0
LINE
  8
0
 10
5.92264
 20
47.3672
 11
6.04376
 21
47.558
  0
LINE
  8
0
 10
6.04376
 20
47.558
 11
6.18785
 21
47.7322
  0
LINE
  8
0
 10
6.18785
 20
47.7322
 11
6.35263
 21
47.8869
  0
LINE
  8
0
 10
6.35263
 20
47.8869
 11
6.53551
 21
48.0198
  0
LINE
  8
0
 10
6.53551
 20
48.0198
 11
6.7336
 21
48.1287
  0
LINE
  8
0
 10
6.7336
 20
48.1287
 11
6.94376
 21
48.2119
  0
LINE
  8
0
 10
6.94376
 20
48.2119
 11
7.1627
 21
48.2681
  0
LINE
  8
0
 10
7.1627
 20
48.2681
 11
7.38696
 21
48.2964
  0
LINE
  8
0
 10
7.38696
 20
48.2964
 11
7.61302
 21
48.2964
  0
LINE
  8
0
 10
7.61302
 20
48.2964
 11
7.83728
 21
48.2681
  0
LINE
  8
0
 10
7.83728
 20
48.2681
 11
8.05623
 21
48.2119
  0
LINE
  8
0
 10
8.05623
 20
48.2119
 11
8.26639
 21
48.1287
  0
LINE
  8
0
 10
8.26639
 20
48.1287
 11
8.46448
 21
48.0198
  0
LINE
  8
0
 10
8.46448
 20
48.0198
 11
8.64735
 21
47.8869
  0
LINE
  8
0
 10
8.64735
 20
47.8869
 11
8.81213
 21
47.7322
  0
LINE
  8
0
 10
8.81213
 20
47.7322
 11
8.95622
 21
47.558
  0
LINE
  8
0
 10
8.95622
 20
47.558
 11
9.07735
 21
47.3672
  0
LINE
  8
0
 10
9.07735
 20
47.3672
 11
9.17358
 21
47.1626
  0
LINE
  8
0
 10
9.17358
 20
47.1626
 11
9.24344
 21
46.9476
  0
LINE
  8
0
 10
9.24344
 20
46.9476
 11
9.2858
 21
46.7256
  0
LINE
  8
0
 10
9.2858
 20
46.7256
 11
9.29999
 21
46.5
  0
LINE
  8
0
 10
9.29999
 20
46.5
 11
9.2858
 21
46.2744
  0
LINE
  8
0
 10
9.2858
 20
46.2744
 11
9.24344
 21
46.0524
  0
LINE
  8
0
 10
9.24344
 20
46.0524
 11
9.17358
 21
45.8374
  0
LINE
  8
0
 10
9.17358
 20
45.8374
 11
9.07735
 21
45.6328
  0
LINE
  8
0
 10
9.07735
 20
45.6328
 11
8.95622
 21
45.442
  0
LINE
  8
0
 10
8.95622
 20
45.442
 11
8.81213
 21
45.2678
  0
LINE
  8
0
 10
8.81213
 20
45.2678
 11
8.64735
 21
45.1131
  0
LINE
  8
0
 10
8.64735
 20
45.1131
 11
8.46448
 21
44.9802
  0
LINE
  8
0
 10
8.46448
 20
44.9802
 11
8.26639
 21
44.8713
  0
LINE
  8
0
 10
8.26639
 20
44.8713
 11
8.05623
 21
44.7881
  0
LINE
  8
0
 10
8.05623
 20
44.7881
 11
7.83728
 21
44.7319
  0
LINE
  8
0
 10
7.83728
 20
44.7319
 11
7.61302
 21
44.7036
  0
LINE
  8
0
 10
7.61302
 20
44.7036
 11
7.38696
 21
44.7036
  0
ENDSEC
  0
SECTION
  2
OBJECTS
  0
DICTIONARY
  0
ENDSEC
  0
EOF
