<?xml version="1.0" standalone="no"?>
<!DOCTYPE svg PUBLIC "-//W3C//DTD SVG 1.1//EN" "http://www.w3.org/Graphics/SVG/1.1/DTD/svg11.dtd">
<svg width="30mm" height="129mm" viewBox="-15 -168 30 129" xmlns="http://www.w3.org/2000/svg" version="1.1">
<title>OpenSCAD Model</title>
<path d="
M 10.9369,-108.089 L 11.5451,-108.245 L 12.1289,-108.476 L 12.6791,-108.778 L 13.1871,-109.147 L 13.6448,-109.577
 L 14.0451,-110.061 L 14.3815,-110.591 L 14.6489,-111.159 L 14.8429,-111.757 L 14.9606,-112.373 L 15,-113
 L 15,-163 L 14.9606,-163.627 L 14.8429,-164.243 L 14.6489,-164.841 L 14.3815,-165.409 L 14.0451,-165.939
 L 13.6448,-166.423 L 13.1871,-166.853 L 12.6791,-167.222 L 12.1289,-167.524 L 11.5451,-167.755 L 10.9369,-167.911
 L 10.3139,-167.99 L -10.3139,-167.99 L -10.9369,-167.911 L -11.5451,-167.755 L -12.1289,-167.524 L -12.6791,-167.222
 L -13.1871,-166.853 L -13.6448,-166.423 L -14.0451,-165.939 L -14.3815,-165.409 L -14.6489,-164.841 L -14.8429,-164.243
 L -14.9606,-163.627 L -15,-163 L -15,-113 L -14.9606,-112.373 L -14.8429,-111.757 L -14.6489,-111.159
 L -14.3815,-110.591 L -14.0451,-110.061 L -13.6448,-109.577 L -13.1871,-109.147 L -12.6791,-108.778 L -12.1289,-108.476
 L -11.5451,-108.245 L -10.9369,-108.089 L -10.3139,-108.01 L 10.3139,-108.01 z
M 10.9369,-39.0886 L 11.5451,-39.2447 L 12.1289,-39.4759 L 12.6791,-39.7784 L 13.1871,-40.1474 L 13.6448,-40.5773
 L 14.0451,-41.0611 L 14.3815,-41.5912 L 14.6489,-42.1594 L 14.8429,-42.7566 L 14.9606,-43.3733 L 15,-44
 L 15,-94 L 14.9606,-94.6267 L 14.8429,-95.2434 L 14.6489,-95.8406 L 14.3815,-96.4088 L 14.0451,-96.9389
 L 13.6448,-97.4227 L 13.1871,-97.8526 L 12.6791,-98.2216 L 12.1289,-98.5241 L 11.5451,-98.7553 L 10.9369,-98.9114
 L 10.3139,-98.9901 L -10.3139,-98.9901 L -10.9369,-98.9114 L -11.5451,-98.7553 L -12.1289,-98.5241 L -12.6791,-98.2216
 L -13.1871,-97.8526 L -13.6448,-97.4227 L -14.0451,-96.9389 L -14.3815,-96.4088 L -14.6489,-95.8406 L -14.8429,-95.2434
 L -14.9606,-94.6267 L -15,-94 L -15,-44 L -14.9606,-43.3733 L -14.8429,-42.7566 L -14.6489,-42.1594
 L -14.3815,-41.5912 L -14.0451,-41.0611 L -13.6448,-40.5773 L -13.1871,-40.1474 L -12.6791,-39.7784 L -12.1289,-39.4759
 L -11.5451,-39.2447 L -10.9369,-39.0886 L -10.3139,-39.0099 L 10.3139,-39.0099 z
M -7.61302,-89.7036 L -7.83728,-89.7319 L -8.05623,-89.7881 L -8.26639,-89.8713 L -8.46448,-89.9802 L -8.64735,-90.1131
 L -8.81213,-90.2678 L -8.95622,-90.442 L -9.07735,-90.6328 L -9.17358,-90.8374 L -9.24344,-91.0524 L -9.2858,-91.2744
 L -9.29999,-91.5 L -9.2858,-91.7256 L -9.24344,-91.9476 L -9.17358,-92.1626 L -9.07735,-92.3672 L -8.95622,-92.558
 L -8.81213,-92.7322 L -8.64735,-92.8869 L -8.46448,-93.0198 L -8.26639,-93.1287 L -8.05623,-93.2119 L -7.83728,-93.2681
 L -7.61302,-93.2964 L -7.38696,-93.2964 L -7.1627,-93.2681 L -6.94376,-93.2119 L -6.7336,-93.1287 L -6.53551,-93.0198
 L -6.35263,-92.8869 L -6.18785,-92.7322 L -6.04376,-92.558 L -5.92264,-92.3672 L -5.8264,-92.1626 L -5.75655,-91.9476
 L -5.71419,-91.7256 L -5.7,-91.5 L -5.71419,-91.2744 L -5.75655,-91.0524 L -5.8264,-90.8374 L -5.92264,-90.6328
 L -6.04376,-90.442 L -6.18785,-90.2678 L -6.35263,-90.1131 L -6.53551,-89.9802 L -6.7336,-89.8713 L -6.94376,-89.7881
 L -7.1627,-89.7319 L -7.38696,-89.7036 z
M 7.38696,-89.7036 L 7.1627,-89.7319 L 6.94376,-89.7881 L 6.7336,-89.8713 L 6.53551,-89.9802 L 6.35263,-90.1131
 L 6.18785,-90.2678 L 6.04376,-90.442 L 5.92264,-90.6328 L 5.8264,-90.8374 L 5.75655,-91.0524 L 5.71419,-91.2744
 L 5.7,-91.5 L 5.71419,-91.7256 L 5.75655,-91.9476 L 5.8264,-92.1626 L 5.92264,-92.3672 L 6.04376,-92.558
 L 6.18785,-92.7322 L 6.35263,-92.8869 L 6.53551,-93.0198 L 6.7336,-93.1287 L 6.94376,-93.2119 L 7.1627,-93.2681
 L 7.38696,-93.2964 L 7.61302,-93.2964 L 7.83728,-93.2681 L 8.05623,-93.2119 L 8.26639,-93.1287 L 8.46448,-93.0198
 L 8.64735,-92.8869 L 8.81213,-92.7322 L 8.95622,-92.558 L 9.07735,-92.3672 L 9.17358,-92.1626 L 9.24344,-91.9476
 L 9.2858,-91.7256 L 9.29999,-91.5 L 9.2858,-91.2744 L 9.24344,-91.0524 L 9.17358,-90.8374 L 9.07735,-90.6328
 L 8.95622,-90.442 L 8.81213,-90.2678 L 8.64735,-90.1131 L 8.46448,-89.9802 L 8.26639,-89.8713 L 8.05623,-89.7881
 L 7.83728,-89.7319 L 7.61302,-89.7036 z
M -7.61302,-44.7036 L -7.83728,-44.7319 L -8.05623,-44.7881 L -8.26639,-44.8713 L -8.46448,-44.9802 L -8.64735,-45.1131
 L -8.81213,-45.2678 L -8.95622,-45.442 L -9.07735,-45.6328 L -9.17358,-45.8374 L -9.24344,-46.0524 L -9.2858,-46.2744
 L -9.29999,-46.5 L -9.2858,-46.7256 L -9.24344,-46.9476 L -9.17358,-47.1626 L -9.07735,-47.3672 L -8.95622,-47.558
 L -8.81213,-47.7322 L -8.64735,-47.8869 L -8.46448,-48.0198 L -8.26639,-48.1287 L -8.05623,-48.2119 L -7.83728,-48.2681
 L -7.61302,-48.2964 L -7.38696,-48.2964 L -7.1627,-48.2681 L -6.94376,-48.2119 L -6.7336,-48.1287 L -6.53551,-48.0198
 L -6.35263,-47.8869 L -6.18785,-47.7322 L -6.04376,-47.558 L -5.92264,-47.3672 L -5.8264,-47.1626 L -5.75655,-46.9476
 L -5.71419,-46.7256 L -5.7,-46.5 L -5.71419,-46.2744 L -5.75655,-46.0524 L -5.8264,-45.8374 L -5.92264,-45.6328
 L -6.04376,-45.442 L -6.18785,-45.2678 L -6.35263,-45.1131 L -6.53551,-44.9802 L -6.7336,-44.8713 L -6.94376,-44.7881
 L -7.1627,-44.7319 L -7.38696,-44.7036 z
M 7.38696,-44.7036 L 7.1627,-44.7319 L 6.94376,-44.7881 L 6.7336,-44.8713 L 6.53551,-44.9802 L 6.35263,-45.1131
 L 6.18785,-45.2678 L 6.04376,-45.442 L 5.92264,-45.6328 L 5.8264,-45.8374 L 5.75655,-46.0524 L 5.71419,-46.2744
 L 5.7,-46.5 L 5.71419,-46.7256 L 5.75655,-46.9476 L 5.8264,-47.1626 L 5.92264,-47.3672 L 6.04376,-47.558
 L 6.18785,-47.7322 L 6.35263,-47.8869 L 6.53551,-48.0198 L 6.7336,-48.1287 L 6.94376,-48.2119 L 7.1627,-48.2681
 L 7.38696,-48.2964 L 7.61302,-48.2964 L 7.83728,-48.2681 L 8.05623,-48.2119 L 8.26639,-48.1287 L 8.46448,-48.0198
 L 8.64735,-47.8869 L 8.81213,-47.7322 L 8.95622,-47.558 L 9.07735,-47.3672 L 9.17358,-47.1626 L 9.24344,-46.9476
 L 9.2858,-46.7256 L 9.29999,-46.5 L 9.2858,-46.2744 L 9.24344,-46.0524 L 9.17358,-45.8374 L 9.07735,-45.6328
 L 8.95622,-45.442 L 8.81213,-45.2678 L 8.64735,-45.1131 L 8.46448,-44.9802 L 8.26639,-44.8713 L 8.05623,-44.7881
 L 7.83728,-44.7319 L 7.61302,-44.7036 z
" stroke="black" fill="lightgray" stroke-width="0.5"/>
</svg>
