<?xml version="1.0" standalone="no"?>
<!DOCTYPE svg PUBLIC "-//W3C//DTD SVG 1.1//EN" "http://www.w3.org/Graphics/SVG/1.1/DTD/svg11.dtd">
<svg width="16mm" height="288mm" viewBox="-8 -441 16 288" xmlns="http://www.w3.org/2000/svg" version="1.1">
<title>OpenSCAD Model</title>
<path d="
M 3.4369,-351.089 L 4.04507,-351.245 L 4.62889,-351.476 L 5.17912,-351.778 L 5.68712,-352.147 L 6.14484,-352.577
 L 6.54507,-353.061 L 6.88153,-353.591 L 7.14888,-354.159 L 7.34291,-354.757 L 7.46057,-355.373 L 7.5,-356
 L 7.5,-436 L 7.46057,-436.627 L 7.34291,-437.243 L 7.14888,-437.841 L 6.88153,-438.409 L 6.54507,-438.939
 L 6.14484,-439.423 L 5.68712,-439.853 L 5.17912,-440.222 L 4.62889,-440.524 L 4.04507,-440.755 L 3.4369,-440.911
 L 2.81395,-440.99 L -2.81395,-440.99 L -3.4369,-440.911 L -4.04507,-440.755 L -4.62889,-440.524 L -5.17912,-440.222
 L -5.68712,-439.853 L -6.14484,-439.423 L -6.54507,-438.939 L -6.88153,-438.409 L -7.14888,-437.841 L -7.34291,-437.243
 L -7.46057,-436.627 L -7.5,-436 L -7.5,-356 L -7.46057,-355.373 L -7.34291,-354.757 L -7.14888,-354.159
 L -6.88153,-353.591 L -6.54507,-353.061 L -6.14484,-352.577 L -5.68712,-352.147 L -5.17912,-351.778 L -4.62889,-351.476
 L -4.04507,-351.245 L -3.4369,-351.089 L -2.81395,-351.01 L 2.81395,-351.01 z
M -2.24316,-352.635 L -2.72565,-352.696 L -3.1967,-352.817 L -3.64888,-352.996 L -4.07506,-353.23 L -4.46851,-353.516
 L -4.82301,-353.849 L -5.13301,-354.224 L -5.3936,-354.634 L -5.60068,-355.074 L -5.75096,-355.537 L -5.84209,-356.015
 L -5.87262,-356.5 L -5.87262,-435.5 L -5.84209,-435.985 L -5.75096,-436.463 L -5.60068,-436.926 L -5.3936,-437.366
 L -5.13301,-437.776 L -4.82301,-438.151 L -4.46851,-438.484 L -4.07506,-438.77 L -3.64888,-439.004 L -3.1967,-439.183
 L -2.72565,-439.304 L -2.24316,-439.365 L 2.24316,-439.365 L 2.72565,-439.304 L 3.1967,-439.183 L 3.64888,-439.004
 L 4.07506,-438.77 L 4.46851,-438.484 L 4.82301,-438.151 L 5.13301,-437.776 L 5.3936,-437.366 L 5.60068,-436.926
 L 5.75096,-436.463 L 5.84209,-435.985 L 5.87262,-435.5 L 5.87262,-356.5 L 5.84209,-356.015 L 5.75096,-355.537
 L 5.60068,-355.074 L 5.3936,-354.634 L 5.13301,-354.224 L 4.82301,-353.849 L 4.46851,-353.516 L 4.07506,-353.23
 L 3.64888,-352.996 L 3.1967,-352.817 L 2.72565,-352.696 L 2.24316,-352.635 z
M 3.4369,-252.089 L 4.04507,-252.245 L 4.62889,-252.476 L 5.17912,-252.778 L 5.68712,-253.147 L 6.14484,-253.577
 L 6.54507,-254.061 L 6.88153,-254.591 L 7.14888,-255.159 L 7.34291,-255.757 L 7.46057,-256.373 L 7.5,-257
 L 7.5,-337 L 7.46057,-337.627 L 7.34291,-338.243 L 7.14888,-338.841 L 6.88153,-339.409 L 6.54507,-339.939
 L 6.14484,-340.423 L 5.68712,-340.853 L 5.17912,-341.222 L 4.62889,-341.524 L 4.04507,-341.755 L 3.4369,-341.911
 L 2.81395,-341.99 L -2.81395,-341.99 L -3.4369,-341.911 L -4.04507,-341.755 L -4.62889,-341.524 L -5.17912,-341.222
 L -5.68712,-340.853 L -6.14484,-340.423 L -6.54507,-339.939 L -6.88153,-339.409 L -7.14888,-338.841 L -7.34291,-338.243
 L -7.46057,-337.627 L -7.5,-337 L -7.5,-257 L -7.46057,-256.373 L -7.34291,-255.757 L -7.14888,-255.159
 L -6.88153,-254.591 L -6.54507,-254.061 L -6.14484,-253.577 L -5.68712,-253.147 L -5.17912,-252.778 L -4.62889,-252.476
 L -4.04507,-252.245 L -3.4369,-252.089 L -2.81395,-252.01 L 2.81395,-252.01 z
M 3.4369,-153.089 L 4.04507,-153.245 L 4.62889,-153.476 L 5.17912,-153.778 L 5.68712,-154.147 L 6.14484,-154.577
 L 6.54507,-155.061 L 6.88153,-155.591 L 7.14888,-156.159 L 7.34291,-156.757 L 7.46057,-157.373 L 7.5,-158
 L 7.5,-238 L 7.46057,-238.627 L 7.34291,-239.243 L 7.14888,-239.841 L 6.88153,-240.409 L 6.54507,-240.939
 L 6.14484,-241.423 L 5.68712,-241.853 L 5.17912,-242.222 L 4.62889,-242.524 L 4.04507,-242.755 L 3.4369,-242.911
 L 2.81395,-242.99 L -2.81395,-242.99 L -3.4369,-242.911 L -4.04507,-242.755 L -4.62889,-242.524 L -5.17912,-242.222
 L -5.68712,-241.853 L -6.14484,-241.423 L -6.54507,-240.939 L -6.88153,-240.409 L -7.14888,-239.841 L -7.34291,-239.243
 L -7.46057,-238.627 L -7.5,-238 L -7.5,-158 L -7.46057,-157.373 L -7.34291,-156.757 L -7.14888,-156.159
 L -6.88153,-155.591 L -6.54507,-155.061 L -6.14484,-154.577 L -5.68712,-154.147 L -5.17912,-153.778 L -4.62889,-153.476
 L -4.04507,-153.245 L -3.4369,-153.089 L -2.81395,-153.01 L 2.81395,-153.01 z
M -0.113022,-233.704 L -0.33728,-233.732 L -0.556229,-233.788 L -0.766388,-233.871 L -0.964478,-233.98 L -1.14735,-234.113
 L -1.31213,-234.268 L -1.45622,-234.442 L -1.57735,-234.633 L -1.67358,-234.837 L -1.74344,-235.052 L -1.7858,-235.274
 L -1.79999,-235.5 L -1.7858,-235.726 L -1.74344,-235.948 L -1.67358,-236.163 L -1.57735,-236.367 L -1.45622,-236.558
 L -1.31213,-236.732 L -1.14735,-236.887 L -0.964478,-237.02 L -0.766388,-237.129 L -0.556229,-237.212 L -0.33728,-237.268
 L -0.113022,-237.296 L 0.113022,-237.296 L 0.33728,-237.268 L 0.556229,-237.212 L 0.766388,-237.129 L 0.964478,-237.02
 L 1.14735,-236.887 L 1.31213,-236.732 L 1.45622,-236.558 L 1.57735,-236.367 L 1.67358,-236.163 L 1.74344,-235.948
 L 1.7858,-235.726 L 1.79999,-235.5 L 1.7858,-235.274 L 1.74344,-235.052 L 1.67358,-234.837 L 1.57735,-234.633
 L 1.45622,-234.442 L 1.31213,-234.268 L 1.14735,-234.113 L 0.964478,-233.98 L 0.766388,-233.871 L 0.556229,-233.788
 L 0.33728,-233.732 L 0.113022,-233.704 z
M -0.113022,-158.704 L -0.33728,-158.732 L -0.556229,-158.788 L -0.766388,-158.871 L -0.964478,-158.98 L -1.14735,-159.113
 L -1.31213,-159.268 L -1.45622,-159.442 L -1.57735,-159.633 L -1.67358,-159.837 L -1.74344,-160.052 L -1.7858,-160.274
 L -1.79999,-160.5 L -1.7858,-160.726 L -1.74344,-160.948 L -1.67358,-161.163 L -1.57735,-161.367 L -1.45622,-161.558
 L -1.31213,-161.732 L -1.14735,-161.887 L -0.964478,-162.02 L -0.766388,-162.129 L -0.556229,-162.212 L -0.33728,-162.268
 L -0.113022,-162.296 L 0.113022,-162.296 L 0.33728,-162.268 L 0.556229,-162.212 L 0.766388,-162.129 L 0.964478,-162.02
 L 1.14735,-161.887 L 1.31213,-161.732 L 1.45622,-161.558 L 1.57735,-161.367 L 1.67358,-161.163 L 1.74344,-160.948
 L 1.7858,-160.726 L 1.79999,-160.5 L 1.7858,-160.274 L 1.74344,-160.052 L 1.67358,-159.837 L 1.57735,-159.633
 L 1.45622,-159.442 L 1.31213,-159.268 L 1.14735,-159.113 L 0.964478,-158.98 L 0.766388,-158.871 L 0.556229,-158.788
 L 0.33728,-158.732 L 0.113022,-158.704 z
" stroke="black" fill="lightgray" stroke-width="0.5"/>
</svg>
