  0
SECTION
  2
BLOCKS
  0
ENDSEC
  0
SECTION
  2
ENTITIES
  0
LINE
  8
0
 10
3.4369
 20
585.089
 11
4.04507
 21
585.245
  0
LINE
  8
0
 10
4.04507
 20
585.245
 11
4.62889
 21
585.476
  0
LINE
  8
0
 10
4.62889
 20
585.476
 11
5.17912
 21
585.778
  0
LINE
  8
0
 10
5.17912
 20
585.778
 11
5.68712
 21
586.147
  0
LINE
  8
0
 10
5.68712
 20
586.147
 11
6.14484
 21
586.577
  0
LINE
  8
0
 10
6.14484
 20
586.577
 11
6.54507
 21
587.061
  0
LINE
  8
0
 10
6.54507
 20
587.061
 11
6.88153
 21
587.591
  0
LINE
  8
0
 10
6.88153
 20
587.591
 11
7.14888
 21
588.159
  0
LINE
  8
0
 10
7.14888
 20
588.159
 11
7.34291
 21
588.757
  0
LINE
  8
0
 10
7.34291
 20
588.757
 11
7.46057
 21
589.373
  0
LINE
  8
0
 10
7.46057
 20
589.373
 11
7.5
 21
590
  0
LINE
  8
0
 10
7.5
 20
590
 11
7.5
 21
700
  0
LINE
  8
0
 10
7.5
 20
700
 11
7.46057
 21
700.627
  0
LINE
  8
0
 10
7.46057
 20
700.627
 11
7.34291
 21
701.243
  0
LINE
  8
0
 10
7.34291
 20
701.243
 11
7.14888
 21
701.841
  0
LINE
  8
0
 10
7.14888
 20
701.841
 11
6.88153
 21
702.409
  0
LINE
  8
0
 10
6.88153
 20
702.409
 11
6.54507
 21
702.939
  0
LINE
  8
0
 10
6.54507
 20
702.939
 11
6.14484
 21
703.423
  0
LINE
  8
0
 10
6.14484
 20
703.423
 11
5.68712
 21
703.853
  0
LINE
  8
0
 10
5.68712
 20
703.853
 11
5.17912
 21
704.222
  0
LINE
  8
0
 10
5.17912
 20
704.222
 11
4.62889
 21
704.524
  0
LINE
  8
0
 10
4.62889
 20
704.524
 11
4.04507
 21
704.755
  0
LINE
  8
0
 10
4.04507
 20
704.755
 11
3.4369
 21
704.911
  0
LINE
  8
0
 10
3.4369
 20
704.911
 11
2.81395
 21
704.99
  0
LINE
  8
0
 10
2.81395
 20
704.99
 11
-2.81395
 21
704.99
  0
LINE
  8
0
 10
-2.81395
 20
704.99
 11
-3.4369
 21
704.911
  0
LINE
  8
0
 10
-3.4369
 20
704.911
 11
-4.04507
 21
704.755
  0
LINE
  8
0
 10
-4.04507
 20
704.755
 11
-4.62889
 21
704.524
  0
LINE
  8
0
 10
-4.62889
 20
704.524
 11
-5.17912
 21
704.222
  0
LINE
  8
0
 10
-5.17912
 20
704.222
 11
-5.68712
 21
703.853
  0
LINE
  8
0
 10
-5.68712
 20
703.853
 11
-6.14484
 21
703.423
  0
LINE
  8
0
 10
-6.14484
 20
703.423
 11
-6.54507
 21
702.939
  0
LINE
  8
0
 10
-6.54507
 20
702.939
 11
-6.88153
 21
702.409
  0
LINE
  8
0
 10
-6.88153
 20
702.409
 11
-7.14888
 21
701.841
  0
LINE
  8
0
 10
-7.14888
 20
701.841
 11
-7.34291
 21
701.243
  0
LINE
  8
0
 10
-7.34291
 20
701.243
 11
-7.46057
 21
700.627
  0
LINE
  8
0
 10
-7.46057
 20
700.627
 11
-7.5
 21
700
  0
LINE
  8
0
 10
-7.5
 20
700
 11
-7.5
 21
590
  0
LINE
  8
0
 10
-7.5
 20
590
 11
-7.46057
 21
589.373
  0
LINE
  8
0
 10
-7.46057
 20
589.373
 11
-7.34291
 21
588.757
  0
LINE
  8
0
 10
-7.34291
 20
588.757
 11
-7.14888
 21
588.159
  0
LINE
  8
0
 10
-7.14888
 20
588.159
 11
-6.88153
 21
587.591
  0
LINE
  8
0
 10
-6.88153
 20
587.591
 11
-6.54507
 21
587.061
  0
LINE
  8
0
 10
-6.54507
 20
587.061
 11
-6.14484
 21
586.577
  0
LINE
  8
0
 10
-6.14484
 20
586.577
 11
-5.68712
 21
586.147
  0
LINE
  8
0
 10
-5.68712
 20
586.147
 11
-5.17912
 21
585.778
  0
LINE
  8
0
 10
-5.17912
 20
585.778
 11
-4.62889
 21
585.476
  0
LINE
  8
0
 10
-4.62889
 20
585.476
 11
-4.04507
 21
585.245
  0
LINE
  8
0
 10
-4.04507
 20
585.245
 11
-3.4369
 21
585.089
  0
LINE
  8
0
 10
-3.4369
 20
585.089
 11
-2.81395
 21
585.01
  0
LINE
  8
0
 10
-2.81395
 20
585.01
 11
2.81395
 21
585.01
  0
LINE
  8
0
 10
2.81395
 20
585.01
 11
3.4369
 21
585.089
  0
LINE
  8
0
 10
-2.25116
 20
586.508
 11
-2.74951
 21
586.571
  0
LINE
  8
0
 10
-2.74951
 20
586.571
 11
-3.23605
 21
586.696
  0
LINE
  8
0
 10
-3.23605
 20
586.696
 11
-3.70311
 21
586.881
  0
LINE
  8
0
 10
-3.70311
 20
586.881
 11
-4.1433
 21
587.123
  0
LINE
  8
0
 10
-4.1433
 20
587.123
 11
-4.54968
 21
587.418
  0
LINE
  8
0
 10
-4.54968
 20
587.418
 11
-4.91586
 21
587.762
  0
LINE
  8
0
 10
-4.91586
 20
587.762
 11
-5.23605
 21
588.149
  0
LINE
  8
0
 10
-5.23605
 20
588.149
 11
-5.50522
 21
588.573
  0
LINE
  8
0
 10
-5.50522
 20
588.573
 11
-5.7191
 21
589.028
  0
LINE
  8
0
 10
-5.7191
 20
589.028
 11
-5.87433
 21
589.505
  0
LINE
  8
0
 10
-5.87433
 20
589.505
 11
-5.96844
 21
589.999
  0
LINE
  8
0
 10
-5.96844
 20
589.999
 11
-6
 21
590.5
  0
LINE
  8
0
 10
-6
 20
590.5
 11
-6
 21
699.5
  0
LINE
  8
0
 10
-6
 20
699.5
 11
-5.96844
 21
700.001
  0
LINE
  8
0
 10
-5.96844
 20
700.001
 11
-5.87433
 21
700.495
  0
LINE
  8
0
 10
-5.87433
 20
700.495
 11
-5.7191
 21
700.972
  0
LINE
  8
0
 10
-5.7191
 20
700.972
 11
-5.50522
 21
701.427
  0
LINE
  8
0
 10
-5.50522
 20
701.427
 11
-5.23605
 21
701.851
  0
LINE
  8
0
 10
-5.23605
 20
701.851
 11
-4.91586
 21
702.238
  0
LINE
  8
0
 10
-4.91586
 20
702.238
 11
-4.54968
 21
702.582
  0
LINE
  8
0
 10
-4.54968
 20
702.582
 11
-4.1433
 21
702.877
  0
LINE
  8
0
 10
-4.1433
 20
702.877
 11
-3.70311
 21
703.119
  0
LINE
  8
0
 10
-3.70311
 20
703.119
 11
-3.23605
 21
703.304
  0
LINE
  8
0
 10
-3.23605
 20
703.304
 11
-2.74951
 21
703.429
  0
LINE
  8
0
 10
-2.74951
 20
703.429
 11
-2.25116
 21
703.492
  0
LINE
  8
0
 10
-2.25116
 20
703.492
 11
2.25116
 21
703.492
  0
LINE
  8
0
 10
2.25116
 20
703.492
 11
2.74951
 21
703.429
  0
LINE
  8
0
 10
2.74951
 20
703.429
 11
3.23605
 21
703.304
  0
LINE
  8
0
 10
3.23605
 20
703.304
 11
3.70311
 21
703.119
  0
LINE
  8
0
 10
3.70311
 20
703.119
 11
4.1433
 21
702.877
  0
LINE
  8
0
 10
4.1433
 20
702.877
 11
4.54968
 21
702.582
  0
LINE
  8
0
 10
4.54968
 20
702.582
 11
4.91586
 21
702.238
  0
LINE
  8
0
 10
4.91586
 20
702.238
 11
5.23605
 21
701.851
  0
LINE
  8
0
 10
5.23605
 20
701.851
 11
5.50522
 21
701.427
  0
LINE
  8
0
 10
5.50522
 20
701.427
 11
5.7191
 21
700.972
  0
LINE
  8
0
 10
5.7191
 20
700.972
 11
5.87433
 21
700.495
  0
LINE
  8
0
 10
5.87433
 20
700.495
 11
5.96844
 21
700.001
  0
LINE
  8
0
 10
5.96844
 20
700.001
 11
6
 21
699.5
  0
LINE
  8
0
 10
6
 20
699.5
 11
6
 21
590.5
  0
LINE
  8
0
 10
6
 20
590.5
 11
5.96844
 21
589.999
  0
LINE
  8
0
 10
5.96844
 20
589.999
 11
5.87433
 21
589.505
  0
LINE
  8
0
 10
5.87433
 20
589.505
 11
5.7191
 21
589.028
  0
LINE
  8
0
 10
5.7191
 20
589.028
 11
5.50522
 21
588.573
  0
LINE
  8
0
 10
5.50522
 20
588.573
 11
5.23605
 21
588.149
  0
LINE
  8
0
 10
5.23605
 20
588.149
 11
4.91586
 21
587.762
  0
LINE
  8
0
 10
4.91586
 20
587.762
 11
4.54968
 21
587.418
  0
LINE
  8
0
 10
4.54968
 20
587.418
 11
4.1433
 21
587.123
  0
LINE
  8
0
 10
4.1433
 20
587.123
 11
3.70311
 21
586.881
  0
LINE
  8
0
 10
3.70311
 20
586.881
 11
3.23605
 21
586.696
  0
LINE
  8
0
 10
3.23605
 20
586.696
 11
2.74951
 21
586.571
  0
LINE
  8
0
 10
2.74951
 20
586.571
 11
2.25116
 21
586.508
  0
LINE
  8
0
 10
2.25116
 20
586.508
 11
-2.25116
 21
586.508
  0
LINE
  8
0
 10
3.4369
 20
456.089
 11
4.04507
 21
456.245
  0
LINE
  8
0
 10
4.04507
 20
456.245
 11
4.62889
 21
456.476
  0
LINE
  8
0
 10
4.62889
 20
456.476
 11
5.17912
 21
456.778
  0
LINE
  8
0
 10
5.17912
 20
456.778
 11
5.68712
 21
457.147
  0
LINE
  8
0
 10
5.68712
 20
457.147
 11
6.14484
 21
457.577
  0
LINE
  8
0
 10
6.14484
 20
457.577
 11
6.54507
 21
458.061
  0
LINE
  8
0
 10
6.54507
 20
458.061
 11
6.88153
 21
458.591
  0
LINE
  8
0
 10
6.88153
 20
458.591
 11
7.14888
 21
459.159
  0
LINE
  8
0
 10
7.14888
 20
459.159
 11
7.34291
 21
459.757
  0
LINE
  8
0
 10
7.34291
 20
459.757
 11
7.46057
 21
460.373
  0
LINE
  8
0
 10
7.46057
 20
460.373
 11
7.5
 21
461
  0
LINE
  8
0
 10
7.5
 20
461
 11
7.5
 21
571
  0
LINE
  8
0
 10
7.5
 20
571
 11
7.46057
 21
571.627
  0
LINE
  8
0
 10
7.46057
 20
571.627
 11
7.34291
 21
572.243
  0
LINE
  8
0
 10
7.34291
 20
572.243
 11
7.14888
 21
572.841
  0
LINE
  8
0
 10
7.14888
 20
572.841
 11
6.88153
 21
573.409
  0
LINE
  8
0
 10
6.88153
 20
573.409
 11
6.54507
 21
573.939
  0
LINE
  8
0
 10
6.54507
 20
573.939
 11
6.14484
 21
574.423
  0
LINE
  8
0
 10
6.14484
 20
574.423
 11
5.68712
 21
574.853
  0
LINE
  8
0
 10
5.68712
 20
574.853
 11
5.17912
 21
575.222
  0
LINE
  8
0
 10
5.17912
 20
575.222
 11
4.62889
 21
575.524
  0
LINE
  8
0
 10
4.62889
 20
575.524
 11
4.04507
 21
575.755
  0
LINE
  8
0
 10
4.04507
 20
575.755
 11
3.4369
 21
575.911
  0
LINE
  8
0
 10
3.4369
 20
575.911
 11
2.81395
 21
575.99
  0
LINE
  8
0
 10
2.81395
 20
575.99
 11
-2.81395
 21
575.99
  0
LINE
  8
0
 10
-2.81395
 20
575.99
 11
-3.4369
 21
575.911
  0
LINE
  8
0
 10
-3.4369
 20
575.911
 11
-4.04507
 21
575.755
  0
LINE
  8
0
 10
-4.04507
 20
575.755
 11
-4.62889
 21
575.524
  0
LINE
  8
0
 10
-4.62889
 20
575.524
 11
-5.17912
 21
575.222
  0
LINE
  8
0
 10
-5.17912
 20
575.222
 11
-5.68712
 21
574.853
  0
LINE
  8
0
 10
-5.68712
 20
574.853
 11
-6.14484
 21
574.423
  0
LINE
  8
0
 10
-6.14484
 20
574.423
 11
-6.54507
 21
573.939
  0
LINE
  8
0
 10
-6.54507
 20
573.939
 11
-6.88153
 21
573.409
  0
LINE
  8
0
 10
-6.88153
 20
573.409
 11
-7.14888
 21
572.841
  0
LINE
  8
0
 10
-7.14888
 20
572.841
 11
-7.34291
 21
572.243
  0
LINE
  8
0
 10
-7.34291
 20
572.243
 11
-7.46057
 21
571.627
  0
LINE
  8
0
 10
-7.46057
 20
571.627
 11
-7.5
 21
571
  0
LINE
  8
0
 10
-7.5
 20
571
 11
-7.5
 21
461
  0
LINE
  8
0
 10
-7.5
 20
461
 11
-7.46057
 21
460.373
  0
LINE
  8
0
 10
-7.46057
 20
460.373
 11
-7.34291
 21
459.757
  0
LINE
  8
0
 10
-7.34291
 20
459.757
 11
-7.14888
 21
459.159
  0
LINE
  8
0
 10
-7.14888
 20
459.159
 11
-6.88153
 21
458.591
  0
LINE
  8
0
 10
-6.88153
 20
458.591
 11
-6.54507
 21
458.061
  0
LINE
  8
0
 10
-6.54507
 20
458.061
 11
-6.14484
 21
457.577
  0
LINE
  8
0
 10
-6.14484
 20
457.577
 11
-5.68712
 21
457.147
  0
LINE
  8
0
 10
-5.68712
 20
457.147
 11
-5.17912
 21
456.778
  0
LINE
  8
0
 10
-5.17912
 20
456.778
 11
-4.62889
 21
456.476
  0
LINE
  8
0
 10
-4.62889
 20
456.476
 11
-4.04507
 21
456.245
  0
LINE
  8
0
 10
-4.04507
 20
456.245
 11
-3.4369
 21
456.089
  0
LINE
  8
0
 10
-3.4369
 20
456.089
 11
-2.81395
 21
456.01
  0
LINE
  8
0
 10
-2.81395
 20
456.01
 11
2.81395
 21
456.01
  0
LINE
  8
0
 10
2.81395
 20
456.01
 11
3.4369
 21
456.089
  0
LINE
  8
0
 10
-2.19545
 20
458.393
 11
-2.5833
 21
458.442
  0
LINE
  8
0
 10
-2.5833
 20
458.442
 11
-2.96194
 21
458.539
  0
LINE
  8
0
 10
-2.96194
 20
458.539
 11
-3.32541
 21
458.683
  0
LINE
  8
0
 10
-3.32541
 20
458.683
 11
-3.66798
 21
458.872
  0
LINE
  8
0
 10
-3.66798
 20
458.872
 11
-3.98424
 21
459.101
  0
LINE
  8
0
 10
-3.98424
 20
459.101
 11
-4.26921
 21
459.369
  0
LINE
  8
0
 10
-4.26921
 20
459.369
 11
-4.5184
 21
459.67
  0
LINE
  8
0
 10
-4.5184
 20
459.67
 11
-4.72786
 21
460
  0
LINE
  8
0
 10
-4.72786
 20
460
 11
-4.89432
 21
460.354
  0
LINE
  8
0
 10
-4.89432
 20
460.354
 11
-5.01512
 21
460.726
  0
LINE
  8
0
 10
-5.01512
 20
460.726
 11
-5.08836
 21
461.11
  0
LINE
  8
0
 10
-5.08836
 20
461.11
 11
-5.11292
 21
461.5
  0
LINE
  8
0
 10
-5.11292
 20
461.5
 11
-5.11292
 21
570.5
  0
LINE
  8
0
 10
-5.11292
 20
570.5
 11
-5.08836
 21
570.89
  0
LINE
  8
0
 10
-5.08836
 20
570.89
 11
-5.01512
 21
571.274
  0
LINE
  8
0
 10
-5.01512
 20
571.274
 11
-4.89432
 21
571.646
  0
LINE
  8
0
 10
-4.89432
 20
571.646
 11
-4.72786
 21
572
  0
LINE
  8
0
 10
-4.72786
 20
572
 11
-4.5184
 21
572.33
  0
LINE
  8
0
 10
-4.5184
 20
572.33
 11
-4.26921
 21
572.631
  0
LINE
  8
0
 10
-4.26921
 20
572.631
 11
-3.98424
 21
572.899
  0
LINE
  8
0
 10
-3.98424
 20
572.899
 11
-3.66798
 21
573.128
  0
LINE
  8
0
 10
-3.66798
 20
573.128
 11
-3.32541
 21
573.317
  0
LINE
  8
0
 10
-3.32541
 20
573.317
 11
-2.96194
 21
573.461
  0
LINE
  8
0
 10
-2.96194
 20
573.461
 11
-2.5833
 21
573.558
  0
LINE
  8
0
 10
-2.5833
 20
573.558
 11
-2.19545
 21
573.607
  0
LINE
  8
0
 10
-2.19545
 20
573.607
 11
2.19545
 21
573.607
  0
LINE
  8
0
 10
2.19545
 20
573.607
 11
2.5833
 21
573.558
  0
LINE
  8
0
 10
2.5833
 20
573.558
 11
2.96194
 21
573.461
  0
LINE
  8
0
 10
2.96194
 20
573.461
 11
3.32541
 21
573.317
  0
LINE
  8
0
 10
3.32541
 20
573.317
 11
3.66798
 21
573.128
  0
LINE
  8
0
 10
3.66798
 20
573.128
 11
3.98424
 21
572.899
  0
LINE
  8
0
 10
3.98424
 20
572.899
 11
4.26921
 21
572.631
  0
LINE
  8
0
 10
4.26921
 20
572.631
 11
4.5184
 21
572.33
  0
LINE
  8
0
 10
4.5184
 20
572.33
 11
4.72786
 21
572
  0
LINE
  8
0
 10
4.72786
 20
572
 11
4.89432
 21
571.646
  0
LINE
  8
0
 10
4.89432
 20
571.646
 11
5.01512
 21
571.274
  0
LINE
  8
0
 10
5.01512
 20
571.274
 11
5.08836
 21
570.89
  0
LINE
  8
0
 10
5.08836
 20
570.89
 11
5.11292
 21
570.5
  0
LINE
  8
0
 10
5.11292
 20
570.5
 11
5.11292
 21
461.5
  0
LINE
  8
0
 10
5.11292
 20
461.5
 11
5.08836
 21
461.11
  0
LINE
  8
0
 10
5.08836
 20
461.11
 11
5.01512
 21
460.726
  0
LINE
  8
0
 10
5.01512
 20
460.726
 11
4.89432
 21
460.354
  0
LINE
  8
0
 10
4.89432
 20
460.354
 11
4.72786
 21
460
  0
LINE
  8
0
 10
4.72786
 20
460
 11
4.5184
 21
459.67
  0
LINE
  8
0
 10
4.5184
 20
459.67
 11
4.26921
 21
459.369
  0
LINE
  8
0
 10
4.26921
 20
459.369
 11
3.98424
 21
459.101
  0
LINE
  8
0
 10
3.98424
 20
459.101
 11
3.66798
 21
458.872
  0
LINE
  8
0
 10
3.66798
 20
458.872
 11
3.32541
 21
458.683
  0
LINE
  8
0
 10
3.32541
 20
458.683
 11
2.96194
 21
458.539
  0
LINE
  8
0
 10
2.96194
 20
458.539
 11
2.5833
 21
458.442
  0
LINE
  8
0
 10
2.5833
 20
458.442
 11
2.19545
 21
458.393
  0
LINE
  8
0
 10
2.19545
 20
458.393
 11
-2.19545
 21
458.393
  0
LINE
  8
0
 10
3.4369
 20
327.089
 11
4.04507
 21
327.245
  0
LINE
  8
0
 10
4.04507
 20
327.245
 11
4.62889
 21
327.476
  0
LINE
  8
0
 10
4.62889
 20
327.476
 11
5.17912
 21
327.778
  0
LINE
  8
0
 10
5.17912
 20
327.778
 11
5.68712
 21
328.147
  0
LINE
  8
0
 10
5.68712
 20
328.147
 11
6.14484
 21
328.577
  0
LINE
  8
0
 10
6.14484
 20
328.577
 11
6.54507
 21
329.061
  0
LINE
  8
0
 10
6.54507
 20
329.061
 11
6.88153
 21
329.591
  0
LINE
  8
0
 10
6.88153
 20
329.591
 11
7.14888
 21
330.159
  0
LINE
  8
0
 10
7.14888
 20
330.159
 11
7.34291
 21
330.757
  0
LINE
  8
0
 10
7.34291
 20
330.757
 11
7.46057
 21
331.373
  0
LINE
  8
0
 10
7.46057
 20
331.373
 11
7.5
 21
332
  0
LINE
  8
0
 10
7.5
 20
332
 11
7.5
 21
442
  0
LINE
  8
0
 10
7.5
 20
442
 11
7.46057
 21
442.627
  0
LINE
  8
0
 10
7.46057
 20
442.627
 11
7.34291
 21
443.243
  0
LINE
  8
0
 10
7.34291
 20
443.243
 11
7.14888
 21
443.841
  0
LINE
  8
0
 10
7.14888
 20
443.841
 11
6.88153
 21
444.409
  0
LINE
  8
0
 10
6.88153
 20
444.409
 11
6.54507
 21
444.939
  0
LINE
  8
0
 10
6.54507
 20
444.939
 11
6.14484
 21
445.423
  0
LINE
  8
0
 10
6.14484
 20
445.423
 11
5.68712
 21
445.853
  0
LINE
  8
0
 10
5.68712
 20
445.853
 11
5.17912
 21
446.222
  0
LINE
  8
0
 10
5.17912
 20
446.222
 11
4.62889
 21
446.524
  0
LINE
  8
0
 10
4.62889
 20
446.524
 11
4.04507
 21
446.755
  0
LINE
  8
0
 10
4.04507
 20
446.755
 11
3.4369
 21
446.911
  0
LINE
  8
0
 10
3.4369
 20
446.911
 11
2.81395
 21
446.99
  0
LINE
  8
0
 10
2.81395
 20
446.99
 11
-2.81395
 21
446.99
  0
LINE
  8
0
 10
-2.81395
 20
446.99
 11
-3.4369
 21
446.911
  0
LINE
  8
0
 10
-3.4369
 20
446.911
 11
-4.04507
 21
446.755
  0
LINE
  8
0
 10
-4.04507
 20
446.755
 11
-4.62889
 21
446.524
  0
LINE
  8
0
 10
-4.62889
 20
446.524
 11
-5.17912
 21
446.222
  0
LINE
  8
0
 10
-5.17912
 20
446.222
 11
-5.68712
 21
445.853
  0
LINE
  8
0
 10
-5.68712
 20
445.853
 11
-6.14484
 21
445.423
  0
LINE
  8
0
 10
-6.14484
 20
445.423
 11
-6.54507
 21
444.939
  0
LINE
  8
0
 10
-6.54507
 20
444.939
 11
-6.88153
 21
444.409
  0
LINE
  8
0
 10
-6.88153
 20
444.409
 11
-7.14888
 21
443.841
  0
LINE
  8
0
 10
-7.14888
 20
443.841
 11
-7.34291
 21
443.243
  0
LINE
  8
0
 10
-7.34291
 20
443.243
 11
-7.46057
 21
442.627
  0
LINE
  8
0
 10
-7.46057
 20
442.627
 11
-7.5
 21
442
  0
LINE
  8
0
 10
-7.5
 20
442
 11
-7.5
 21
332
  0
LINE
  8
0
 10
-7.5
 20
332
 11
-7.46057
 21
331.373
  0
LINE
  8
0
 10
-7.46057
 20
331.373
 11
-7.34291
 21
330.757
  0
LINE
  8
0
 10
-7.34291
 20
330.757
 11
-7.14888
 21
330.159
  0
LINE
  8
0
 10
-7.14888
 20
330.159
 11
-6.88153
 21
329.591
  0
LINE
  8
0
 10
-6.88153
 20
329.591
 11
-6.54507
 21
329.061
  0
LINE
  8
0
 10
-6.54507
 20
329.061
 11
-6.14484
 21
328.577
  0
LINE
  8
0
 10
-6.14484
 20
328.577
 11
-5.68712
 21
328.147
  0
LINE
  8
0
 10
-5.68712
 20
328.147
 11
-5.17912
 21
327.778
  0
LINE
  8
0
 10
-5.17912
 20
327.778
 11
-4.62889
 21
327.476
  0
LINE
  8
0
 10
-4.62889
 20
327.476
 11
-4.04507
 21
327.245
  0
LINE
  8
0
 10
-4.04507
 20
327.245
 11
-3.4369
 21
327.089
  0
LINE
  8
0
 10
-3.4369
 20
327.089
 11
-2.81395
 21
327.01
  0
LINE
  8
0
 10
-2.81395
 20
327.01
 11
2.81395
 21
327.01
  0
LINE
  8
0
 10
2.81395
 20
327.01
 11
3.4369
 21
327.089
  0
LINE
  8
0
 10
-0.134064
 20
437.369
 11
-0.400101
 21
437.403
  0
LINE
  8
0
 10
-0.400101
 20
437.403
 11
-0.659836
 21
437.469
  0
LINE
  8
0
 10
-0.659836
 20
437.469
 11
-0.909149
 21
437.568
  0
LINE
  8
0
 10
-0.909149
 20
437.568
 11
-1.14413
 21
437.697
  0
LINE
  8
0
 10
-1.14413
 20
437.697
 11
-1.36108
 21
437.855
  0
LINE
  8
0
 10
-1.36108
 20
437.855
 11
-1.55655
 21
438.038
  0
LINE
  8
0
 10
-1.55655
 20
438.038
 11
-1.72748
 21
438.245
  0
LINE
  8
0
 10
-1.72748
 20
438.245
 11
-1.87117
 21
438.471
  0
LINE
  8
0
 10
-1.87117
 20
438.471
 11
-1.98534
 21
438.714
  0
LINE
  8
0
 10
-1.98534
 20
438.714
 11
-2.06821
 21
438.969
  0
LINE
  8
0
 10
-2.06821
 20
438.969
 11
-2.11845
 21
439.232
  0
LINE
  8
0
 10
-2.11845
 20
439.232
 11
-2.13528
 21
439.5
  0
LINE
  8
0
 10
-2.13528
 20
439.5
 11
-2.11845
 21
439.768
  0
LINE
  8
0
 10
-2.11845
 20
439.768
 11
-2.06821
 21
440.031
  0
LINE
  8
0
 10
-2.06821
 20
440.031
 11
-1.98534
 21
440.286
  0
LINE
  8
0
 10
-1.98534
 20
440.286
 11
-1.87117
 21
440.529
  0
LINE
  8
0
 10
-1.87117
 20
440.529
 11
-1.72748
 21
440.755
  0
LINE
  8
0
 10
-1.72748
 20
440.755
 11
-1.55655
 21
440.962
  0
LINE
  8
0
 10
-1.55655
 20
440.962
 11
-1.36108
 21
441.145
  0
LINE
  8
0
 10
-1.36108
 20
441.145
 11
-1.14413
 21
441.303
  0
LINE
  8
0
 10
-1.14413
 20
441.303
 11
-0.909149
 21
441.432
  0
LINE
  8
0
 10
-0.909149
 20
441.432
 11
-0.659836
 21
441.531
  0
LINE
  8
0
 10
-0.659836
 20
441.531
 11
-0.400101
 21
441.597
  0
LINE
  8
0
 10
-0.400101
 20
441.597
 11
-0.134064
 21
441.631
  0
LINE
  8
0
 10
-0.134064
 20
441.631
 11
0.134064
 21
441.631
  0
LINE
  8
0
 10
0.134064
 20
441.631
 11
0.400101
 21
441.597
  0
LINE
  8
0
 10
0.400101
 20
441.597
 11
0.659836
 21
441.531
  0
LINE
  8
0
 10
0.659836
 20
441.531
 11
0.909149
 21
441.432
  0
LINE
  8
0
 10
0.909149
 20
441.432
 11
1.14413
 21
441.303
  0
LINE
  8
0
 10
1.14413
 20
441.303
 11
1.36108
 21
441.145
  0
LINE
  8
0
 10
1.36108
 20
441.145
 11
1.55655
 21
440.962
  0
LINE
  8
0
 10
1.55655
 20
440.962
 11
1.72748
 21
440.755
  0
LINE
  8
0
 10
1.72748
 20
440.755
 11
1.87117
 21
440.529
  0
LINE
  8
0
 10
1.87117
 20
440.529
 11
1.98534
 21
440.286
  0
LINE
  8
0
 10
1.98534
 20
440.286
 11
2.06821
 21
440.031
  0
LINE
  8
0
 10
2.06821
 20
440.031
 11
2.11845
 21
439.768
  0
LINE
  8
0
 10
2.11845
 20
439.768
 11
2.13528
 21
439.5
  0
LINE
  8
0
 10
2.13528
 20
439.5
 11
2.11845
 21
439.232
  0
LINE
  8
0
 10
2.11845
 20
439.232
 11
2.06821
 21
438.969
  0
LINE
  8
0
 10
2.06821
 20
438.969
 11
1.98534
 21
438.714
  0
LINE
  8
0
 10
1.98534
 20
438.714
 11
1.87117
 21
438.471
  0
LINE
  8
0
 10
1.87117
 20
438.471
 11
1.72748
 21
438.245
  0
LINE
  8
0
 10
1.72748
 20
438.245
 11
1.55655
 21
438.038
  0
LINE
  8
0
 10
1.55655
 20
438.038
 11
1.36108
 21
437.855
  0
LINE
  8
0
 10
1.36108
 20
437.855
 11
1.14413
 21
437.697
  0
LINE
  8
0
 10
1.14413
 20
437.697
 11
0.909149
 21
437.568
  0
LINE
  8
0
 10
0.909149
 20
437.568
 11
0.659836
 21
437.469
  0
LINE
  8
0
 10
0.659836
 20
437.469
 11
0.400101
 21
437.403
  0
LINE
  8
0
 10
0.400101
 20
437.403
 11
0.134064
 21
437.369
  0
LINE
  8
0
 10
0.134064
 20
437.369
 11
-0.134064
 21
437.369
  0
LINE
  8
0
 10
-0.134064
 20
332.369
 11
-0.400101
 21
332.403
  0
LINE
  8
0
 10
-0.400101
 20
332.403
 11
-0.659836
 21
332.469
  0
LINE
  8
0
 10
-0.659836
 20
332.469
 11
-0.909149
 21
332.568
  0
LINE
  8
0
 10
-0.909149
 20
332.568
 11
-1.14413
 21
332.697
  0
LINE
  8
0
 10
-1.14413
 20
332.697
 11
-1.36108
 21
332.855
  0
LINE
  8
0
 10
-1.36108
 20
332.855
 11
-1.55655
 21
333.038
  0
LINE
  8
0
 10
-1.55655
 20
333.038
 11
-1.72748
 21
333.245
  0
LINE
  8
0
 10
-1.72748
 20
333.245
 11
-1.87117
 21
333.471
  0
LINE
  8
0
 10
-1.87117
 20
333.471
 11
-1.98534
 21
333.714
  0
LINE
  8
0
 10
-1.98534
 20
333.714
 11
-2.06821
 21
333.969
  0
LINE
  8
0
 10
-2.06821
 20
333.969
 11
-2.11845
 21
334.232
  0
LINE
  8
0
 10
-2.11845
 20
334.232
 11
-2.13528
 21
334.5
  0
LINE
  8
0
 10
-2.13528
 20
334.5
 11
-2.11845
 21
334.768
  0
LINE
  8
0
 10
-2.11845
 20
334.768
 11
-2.06821
 21
335.031
  0
LINE
  8
0
 10
-2.06821
 20
335.031
 11
-1.98534
 21
335.286
  0
LINE
  8
0
 10
-1.98534
 20
335.286
 11
-1.87117
 21
335.529
  0
LINE
  8
0
 10
-1.87117
 20
335.529
 11
-1.72748
 21
335.755
  0
LINE
  8
0
 10
-1.72748
 20
335.755
 11
-1.55655
 21
335.962
  0
LINE
  8
0
 10
-1.55655
 20
335.962
 11
-1.36108
 21
336.145
  0
LINE
  8
0
 10
-1.36108
 20
336.145
 11
-1.14413
 21
336.303
  0
LINE
  8
0
 10
-1.14413
 20
336.303
 11
-0.909149
 21
336.432
  0
LINE
  8
0
 10
-0.909149
 20
336.432
 11
-0.659836
 21
336.531
  0
LINE
  8
0
 10
-0.659836
 20
336.531
 11
-0.400101
 21
336.597
  0
LINE
  8
0
 10
-0.400101
 20
336.597
 11
-0.134064
 21
336.631
  0
LINE
  8
0
 10
-0.134064
 20
336.631
 11
0.134064
 21
336.631
  0
LINE
  8
0
 10
0.134064
 20
336.631
 11
0.400101
 21
336.597
  0
LINE
  8
0
 10
0.400101
 20
336.597
 11
0.659836
 21
336.531
  0
LINE
  8
0
 10
0.659836
 20
336.531
 11
0.909149
 21
336.432
  0
LINE
  8
0
 10
0.909149
 20
336.432
 11
1.14413
 21
336.303
  0
LINE
  8
0
 10
1.14413
 20
336.303
 11
1.36108
 21
336.145
  0
LINE
  8
0
 10
1.36108
 20
336.145
 11
1.55655
 21
335.962
  0
LINE
  8
0
 10
1.55655
 20
335.962
 11
1.72748
 21
335.755
  0
LINE
  8
0
 10
1.72748
 20
335.755
 11
1.87117
 21
335.529
  0
LINE
  8
0
 10
1.87117
 20
335.529
 11
1.98534
 21
335.286
  0
LINE
  8
0
 10
1.98534
 20
335.286
 11
2.06821
 21
335.031
  0
LINE
  8
0
 10
2.06821
 20
335.031
 11
2.11845
 21
334.768
  0
LINE
  8
0
 10
2.11845
 20
334.768
 11
2.13528
 21
334.5
  0
LINE
  8
0
 10
2.13528
 20
334.5
 11
2.11845
 21
334.232
  0
LINE
  8
0
 10
2.11845
 20
334.232
 11
2.06821
 21
333.969
  0
LINE
  8
0
 10
2.06821
 20
333.969
 11
1.98534
 21
333.714
  0
LINE
  8
0
 10
1.98534
 20
333.714
 11
1.87117
 21
333.471
  0
LINE
  8
0
 10
1.87117
 20
333.471
 11
1.72748
 21
333.245
  0
LINE
  8
0
 10
1.72748
 20
333.245
 11
1.55655
 21
333.038
  0
LINE
  8
0
 10
1.55655
 20
333.038
 11
1.36108
 21
332.855
  0
LINE
  8
0
 10
1.36108
 20
332.855
 11
1.14413
 21
332.697
  0
LINE
  8
0
 10
1.14413
 20
332.697
 11
0.909149
 21
332.568
  0
LINE
  8
0
 10
0.909149
 20
332.568
 11
0.659836
 21
332.469
  0
LINE
  8
0
 10
0.659836
 20
332.469
 11
0.400101
 21
332.403
  0
LINE
  8
0
 10
0.400101
 20
332.403
 11
0.134064
 21
332.369
  0
LINE
  8
0
 10
0.134064
 20
332.369
 11
-0.134064
 21
332.369
  0
ENDSEC
  0
SECTION
  2
OBJECTS
  0
DICTIONARY
  0
ENDSEC
  0
EOF
