  0
SECTION
  2
BLOCKS
  0
ENDSEC
  0
SECTION
  2
ENTITIES
  0
LINE
  8
0
 10
48.4369
 20
112.589
 11
49.0451
 21
112.745
  0
LINE
  8
0
 10
49.0451
 20
112.745
 11
49.6289
 21
112.976
  0
LINE
  8
0
 10
49.6289
 20
112.976
 11
50.1791
 21
113.278
  0
LINE
  8
0
 10
50.1791
 20
113.278
 11
50.6871
 21
113.647
  0
LINE
  8
0
 10
50.6871
 20
113.647
 11
51.1448
 21
114.077
  0
LINE
  8
0
 10
51.1448
 20
114.077
 11
51.5451
 21
114.561
  0
LINE
  8
0
 10
51.5451
 20
114.561
 11
51.8815
 21
115.091
  0
LINE
  8
0
 10
51.8815
 20
115.091
 11
52.1489
 21
115.659
  0
LINE
  8
0
 10
52.1489
 20
115.659
 11
52.3429
 21
116.257
  0
LINE
  8
0
 10
52.3429
 20
116.257
 11
52.4606
 21
116.873
  0
LINE
  8
0
 10
52.4606
 20
116.873
 11
52.5
 21
117.5
  0
LINE
  8
0
 10
52.5
 20
117.5
 11
52.5
 21
122.5
  0
LINE
  8
0
 10
52.5
 20
122.5
 11
52.4606
 21
123.127
  0
LINE
  8
0
 10
52.4606
 20
123.127
 11
52.3429
 21
123.743
  0
LINE
  8
0
 10
52.3429
 20
123.743
 11
52.1489
 21
124.341
  0
LINE
  8
0
 10
52.1489
 20
124.341
 11
51.8815
 21
124.909
  0
LINE
  8
0
 10
51.8815
 20
124.909
 11
51.5451
 21
125.439
  0
LINE
  8
0
 10
51.5451
 20
125.439
 11
51.1448
 21
125.923
  0
LINE
  8
0
 10
51.1448
 20
125.923
 11
50.6871
 21
126.353
  0
LINE
  8
0
 10
50.6871
 20
126.353
 11
50.1791
 21
126.722
  0
LINE
  8
0
 10
50.1791
 20
126.722
 11
49.6289
 21
127.024
  0
LINE
  8
0
 10
49.6289
 20
127.024
 11
49.0451
 21
127.255
  0
LINE
  8
0
 10
49.0451
 20
127.255
 11
48.4369
 21
127.411
  0
LINE
  8
0
 10
48.4369
 20
127.411
 11
47.8139
 21
127.49
  0
LINE
  8
0
 10
47.8139
 20
127.49
 11
-47.8139
 21
127.49
  0
LINE
  8
0
 10
-47.8139
 20
127.49
 11
-48.4369
 21
127.411
  0
LINE
  8
0
 10
-48.4369
 20
127.411
 11
-49.0451
 21
127.255
  0
LINE
  8
0
 10
-49.0451
 20
127.255
 11
-49.6289
 21
127.024
  0
LINE
  8
0
 10
-49.6289
 20
127.024
 11
-50.1791
 21
126.722
  0
LINE
  8
0
 10
-50.1791
 20
126.722
 11
-50.6871
 21
126.353
  0
LINE
  8
0
 10
-50.6871
 20
126.353
 11
-51.1448
 21
125.923
  0
LINE
  8
0
 10
-51.1448
 20
125.923
 11
-51.5451
 21
125.439
  0
LINE
  8
0
 10
-51.5451
 20
125.439
 11
-51.8815
 21
124.909
  0
LINE
  8
0
 10
-51.8815
 20
124.909
 11
-52.1489
 21
124.341
  0
LINE
  8
0
 10
-52.1489
 20
124.341
 11
-52.3429
 21
123.743
  0
LINE
  8
0
 10
-52.3429
 20
123.743
 11
-52.4606
 21
123.127
  0
LINE
  8
0
 10
-52.4606
 20
123.127
 11
-52.5
 21
122.5
  0
LINE
  8
0
 10
-52.5
 20
122.5
 11
-52.5
 21
117.5
  0
LINE
  8
0
 10
-52.5
 20
117.5
 11
-52.4606
 21
116.873
  0
LINE
  8
0
 10
-52.4606
 20
116.873
 11
-52.3429
 21
116.257
  0
LINE
  8
0
 10
-52.3429
 20
116.257
 11
-52.1489
 21
115.659
  0
LINE
  8
0
 10
-52.1489
 20
115.659
 11
-51.8815
 21
115.091
  0
LINE
  8
0
 10
-51.8815
 20
115.091
 11
-51.5451
 21
114.561
  0
LINE
  8
0
 10
-51.5451
 20
114.561
 11
-51.1448
 21
114.077
  0
LINE
  8
0
 10
-51.1448
 20
114.077
 11
-50.6871
 21
113.647
  0
LINE
  8
0
 10
-50.6871
 20
113.647
 11
-50.1791
 21
113.278
  0
LINE
  8
0
 10
-50.1791
 20
113.278
 11
-49.6289
 21
112.976
  0
LINE
  8
0
 10
-49.6289
 20
112.976
 11
-49.0451
 21
112.745
  0
LINE
  8
0
 10
-49.0451
 20
112.745
 11
-48.4369
 21
112.589
  0
LINE
  8
0
 10
-48.4369
 20
112.589
 11
-47.8139
 21
112.51
  0
LINE
  8
0
 10
-47.8139
 20
112.51
 11
47.8139
 21
112.51
  0
LINE
  8
0
 10
47.8139
 20
112.51
 11
48.4369
 21
112.589
  0
LINE
  8
0
 10
-47.5482
 20
113.009
 11
-48.1401
 21
113.084
  0
LINE
  8
0
 10
-48.1401
 20
113.084
 11
-48.7178
 21
113.232
  0
LINE
  8
0
 10
-48.7178
 20
113.232
 11
-49.2724
 21
113.452
  0
LINE
  8
0
 10
-49.2724
 20
113.452
 11
-49.7952
 21
113.739
  0
LINE
  8
0
 10
-49.7952
 20
113.739
 11
-50.2778
 21
114.09
  0
LINE
  8
0
 10
-50.2778
 20
114.09
 11
-50.7126
 21
114.498
  0
LINE
  8
0
 10
-50.7126
 20
114.498
 11
-51.0928
 21
114.958
  0
LINE
  8
0
 10
-51.0928
 20
114.958
 11
-51.4124
 21
115.462
  0
LINE
  8
0
 10
-51.4124
 20
115.462
 11
-51.6664
 21
116.001
  0
LINE
  8
0
 10
-51.6664
 20
116.001
 11
-51.8508
 21
116.569
  0
LINE
  8
0
 10
-51.8508
 20
116.569
 11
-51.9625
 21
117.155
  0
LINE
  8
0
 10
-51.9625
 20
117.155
 11
-52
 21
117.75
  0
LINE
  8
0
 10
-52
 20
117.75
 11
-52
 21
122.25
  0
LINE
  8
0
 10
-52
 20
122.25
 11
-51.9625
 21
122.845
  0
LINE
  8
0
 10
-51.9625
 20
122.845
 11
-51.8508
 21
123.431
  0
LINE
  8
0
 10
-51.8508
 20
123.431
 11
-51.6664
 21
123.999
  0
LINE
  8
0
 10
-51.6664
 20
123.999
 11
-51.4124
 21
124.538
  0
LINE
  8
0
 10
-51.4124
 20
124.538
 11
-51.0928
 21
125.042
  0
LINE
  8
0
 10
-51.0928
 20
125.042
 11
-50.7126
 21
125.502
  0
LINE
  8
0
 10
-50.7126
 20
125.502
 11
-50.2778
 21
125.91
  0
LINE
  8
0
 10
-50.2778
 20
125.91
 11
-49.7952
 21
126.261
  0
LINE
  8
0
 10
-49.7952
 20
126.261
 11
-49.2724
 21
126.548
  0
LINE
  8
0
 10
-49.2724
 20
126.548
 11
-48.7178
 21
126.768
  0
LINE
  8
0
 10
-48.7178
 20
126.768
 11
-48.1401
 21
126.916
  0
LINE
  8
0
 10
-48.1401
 20
126.916
 11
-47.5482
 21
126.991
  0
LINE
  8
0
 10
-47.5482
 20
126.991
 11
47.5482
 21
126.991
  0
LINE
  8
0
 10
47.5482
 20
126.991
 11
48.1401
 21
126.916
  0
LINE
  8
0
 10
48.1401
 20
126.916
 11
48.7178
 21
126.768
  0
LINE
  8
0
 10
48.7178
 20
126.768
 11
49.2724
 21
126.548
  0
LINE
  8
0
 10
49.2724
 20
126.548
 11
49.7952
 21
126.261
  0
LINE
  8
0
 10
49.7952
 20
126.261
 11
50.2778
 21
125.91
  0
LINE
  8
0
 10
50.2778
 20
125.91
 11
50.7126
 21
125.502
  0
LINE
  8
0
 10
50.7126
 20
125.502
 11
51.0928
 21
125.042
  0
LINE
  8
0
 10
51.0928
 20
125.042
 11
51.4124
 21
124.538
  0
LINE
  8
0
 10
51.4124
 20
124.538
 11
51.6664
 21
123.999
  0
LINE
  8
0
 10
51.6664
 20
123.999
 11
51.8508
 21
123.431
  0
LINE
  8
0
 10
51.8508
 20
123.431
 11
51.9625
 21
122.845
  0
LINE
  8
0
 10
51.9625
 20
122.845
 11
52
 21
122.25
  0
LINE
  8
0
 10
52
 20
122.25
 11
52
 21
117.75
  0
LINE
  8
0
 10
52
 20
117.75
 11
51.9625
 21
117.155
  0
LINE
  8
0
 10
51.9625
 20
117.155
 11
51.8508
 21
116.569
  0
LINE
  8
0
 10
51.8508
 20
116.569
 11
51.6664
 21
116.001
  0
LINE
  8
0
 10
51.6664
 20
116.001
 11
51.4124
 21
115.462
  0
LINE
  8
0
 10
51.4124
 20
115.462
 11
51.0928
 21
114.958
  0
LINE
  8
0
 10
51.0928
 20
114.958
 11
50.7126
 21
114.498
  0
LINE
  8
0
 10
50.7126
 20
114.498
 11
50.2778
 21
114.09
  0
LINE
  8
0
 10
50.2778
 20
114.09
 11
49.7952
 21
113.739
  0
LINE
  8
0
 10
49.7952
 20
113.739
 11
49.2724
 21
113.452
  0
LINE
  8
0
 10
49.2724
 20
113.452
 11
48.7178
 21
113.232
  0
LINE
  8
0
 10
48.7178
 20
113.232
 11
48.1401
 21
113.084
  0
LINE
  8
0
 10
48.1401
 20
113.084
 11
47.5482
 21
113.009
  0
LINE
  8
0
 10
47.5482
 20
113.009
 11
-47.5482
 21
113.009
  0
LINE
  8
0
 10
48.4369
 20
88.5886
 11
49.0451
 21
88.7447
  0
LINE
  8
0
 10
49.0451
 20
88.7447
 11
49.6289
 21
88.9759
  0
LINE
  8
0
 10
49.6289
 20
88.9759
 11
50.1791
 21
89.2784
  0
LINE
  8
0
 10
50.1791
 20
89.2784
 11
50.6871
 21
89.6474
  0
LINE
  8
0
 10
50.6871
 20
89.6474
 11
51.1448
 21
90.0773
  0
LINE
  8
0
 10
51.1448
 20
90.0773
 11
51.5451
 21
90.5611
  0
LINE
  8
0
 10
51.5451
 20
90.5611
 11
51.8815
 21
91.0912
  0
LINE
  8
0
 10
51.8815
 20
91.0912
 11
52.1489
 21
91.6594
  0
LINE
  8
0
 10
52.1489
 20
91.6594
 11
52.3429
 21
92.2566
  0
LINE
  8
0
 10
52.3429
 20
92.2566
 11
52.4606
 21
92.8733
  0
LINE
  8
0
 10
52.4606
 20
92.8733
 11
52.5
 21
93.5
  0
LINE
  8
0
 10
52.5
 20
93.5
 11
52.5
 21
98.5
  0
LINE
  8
0
 10
52.5
 20
98.5
 11
52.4606
 21
99.1267
  0
LINE
  8
0
 10
52.4606
 20
99.1267
 11
52.3429
 21
99.7434
  0
LINE
  8
0
 10
52.3429
 20
99.7434
 11
52.1489
 21
100.341
  0
LINE
  8
0
 10
52.1489
 20
100.341
 11
51.8815
 21
100.909
  0
LINE
  8
0
 10
51.8815
 20
100.909
 11
51.5451
 21
101.439
  0
LINE
  8
0
 10
51.5451
 20
101.439
 11
51.1448
 21
101.923
  0
LINE
  8
0
 10
51.1448
 20
101.923
 11
50.6871
 21
102.353
  0
LINE
  8
0
 10
50.6871
 20
102.353
 11
50.1791
 21
102.722
  0
LINE
  8
0
 10
50.1791
 20
102.722
 11
49.6289
 21
103.024
  0
LINE
  8
0
 10
49.6289
 20
103.024
 11
49.0451
 21
103.255
  0
LINE
  8
0
 10
49.0451
 20
103.255
 11
48.4369
 21
103.411
  0
LINE
  8
0
 10
48.4369
 20
103.411
 11
47.8139
 21
103.49
  0
LINE
  8
0
 10
47.8139
 20
103.49
 11
-47.8139
 21
103.49
  0
LINE
  8
0
 10
-47.8139
 20
103.49
 11
-48.4369
 21
103.411
  0
LINE
  8
0
 10
-48.4369
 20
103.411
 11
-49.0451
 21
103.255
  0
LINE
  8
0
 10
-49.0451
 20
103.255
 11
-49.6289
 21
103.024
  0
LINE
  8
0
 10
-49.6289
 20
103.024
 11
-50.1791
 21
102.722
  0
LINE
  8
0
 10
-50.1791
 20
102.722
 11
-50.6871
 21
102.353
  0
LINE
  8
0
 10
-50.6871
 20
102.353
 11
-51.1448
 21
101.923
  0
LINE
  8
0
 10
-51.1448
 20
101.923
 11
-51.5451
 21
101.439
  0
LINE
  8
0
 10
-51.5451
 20
101.439
 11
-51.8815
 21
100.909
  0
LINE
  8
0
 10
-51.8815
 20
100.909
 11
-52.1489
 21
100.341
  0
LINE
  8
0
 10
-52.1489
 20
100.341
 11
-52.3429
 21
99.7434
  0
LINE
  8
0
 10
-52.3429
 20
99.7434
 11
-52.4606
 21
99.1267
  0
LINE
  8
0
 10
-52.4606
 20
99.1267
 11
-52.5
 21
98.5
  0
LINE
  8
0
 10
-52.5
 20
98.5
 11
-52.5
 21
93.5
  0
LINE
  8
0
 10
-52.5
 20
93.5
 11
-52.4606
 21
92.8733
  0
LINE
  8
0
 10
-52.4606
 20
92.8733
 11
-52.3429
 21
92.2566
  0
LINE
  8
0
 10
-52.3429
 20
92.2566
 11
-52.1489
 21
91.6594
  0
LINE
  8
0
 10
-52.1489
 20
91.6594
 11
-51.8815
 21
91.0912
  0
LINE
  8
0
 10
-51.8815
 20
91.0912
 11
-51.5451
 21
90.5611
  0
LINE
  8
0
 10
-51.5451
 20
90.5611
 11
-51.1448
 21
90.0773
  0
LINE
  8
0
 10
-51.1448
 20
90.0773
 11
-50.6871
 21
89.6474
  0
LINE
  8
0
 10
-50.6871
 20
89.6474
 11
-50.1791
 21
89.2784
  0
LINE
  8
0
 10
-50.1791
 20
89.2784
 11
-49.6289
 21
88.9759
  0
LINE
  8
0
 10
-49.6289
 20
88.9759
 11
-49.0451
 21
88.7447
  0
LINE
  8
0
 10
-49.0451
 20
88.7447
 11
-48.4369
 21
88.5886
  0
LINE
  8
0
 10
-48.4369
 20
88.5886
 11
-47.8139
 21
88.5099
  0
LINE
  8
0
 10
-47.8139
 20
88.5099
 11
47.8139
 21
88.5099
  0
LINE
  8
0
 10
47.8139
 20
88.5099
 11
48.4369
 21
88.5886
  0
LINE
  8
0
 10
-47.5375
 20
89.1806
 11
-48.1079
 21
89.2527
  0
LINE
  8
0
 10
-48.1079
 20
89.2527
 11
-48.6648
 21
89.3956
  0
LINE
  8
0
 10
-48.6648
 20
89.3956
 11
-49.1994
 21
89.6073
  0
LINE
  8
0
 10
-49.1994
 20
89.6073
 11
-49.7032
 21
89.8843
  0
LINE
  8
0
 10
-49.7032
 20
89.8843
 11
-50.1684
 21
90.2223
  0
LINE
  8
0
 10
-50.1684
 20
90.2223
 11
-50.5875
 21
90.6158
  0
LINE
  8
0
 10
-50.5875
 20
90.6158
 11
-50.954
 21
91.0589
  0
LINE
  8
0
 10
-50.954
 20
91.0589
 11
-51.2621
 21
91.5443
  0
LINE
  8
0
 10
-51.2621
 20
91.5443
 11
-51.5069
 21
92.0646
  0
LINE
  8
0
 10
-51.5069
 20
92.0646
 11
-51.6846
 21
92.6114
  0
LINE
  8
0
 10
-51.6846
 20
92.6114
 11
-51.7923
 21
93.1762
  0
LINE
  8
0
 10
-51.7923
 20
93.1762
 11
-51.8284
 21
93.75
  0
LINE
  8
0
 10
-51.8284
 20
93.75
 11
-51.8284
 21
98.25
  0
LINE
  8
0
 10
-51.8284
 20
98.25
 11
-51.7923
 21
98.8238
  0
LINE
  8
0
 10
-51.7923
 20
98.8238
 11
-51.6846
 21
99.3886
  0
LINE
  8
0
 10
-51.6846
 20
99.3886
 11
-51.5069
 21
99.9354
  0
LINE
  8
0
 10
-51.5069
 20
99.9354
 11
-51.2621
 21
100.456
  0
LINE
  8
0
 10
-51.2621
 20
100.456
 11
-50.954
 21
100.941
  0
LINE
  8
0
 10
-50.954
 20
100.941
 11
-50.5875
 21
101.384
  0
LINE
  8
0
 10
-50.5875
 20
101.384
 11
-50.1684
 21
101.778
  0
LINE
  8
0
 10
-50.1684
 20
101.778
 11
-49.7032
 21
102.116
  0
LINE
  8
0
 10
-49.7032
 20
102.116
 11
-49.1994
 21
102.393
  0
LINE
  8
0
 10
-49.1994
 20
102.393
 11
-48.6648
 21
102.604
  0
LINE
  8
0
 10
-48.6648
 20
102.604
 11
-48.1079
 21
102.747
  0
LINE
  8
0
 10
-48.1079
 20
102.747
 11
-47.5375
 21
102.819
  0
LINE
  8
0
 10
-47.5375
 20
102.819
 11
47.5375
 21
102.819
  0
LINE
  8
0
 10
47.5375
 20
102.819
 11
48.1079
 21
102.747
  0
LINE
  8
0
 10
48.1079
 20
102.747
 11
48.6648
 21
102.604
  0
LINE
  8
0
 10
48.6648
 20
102.604
 11
49.1994
 21
102.393
  0
LINE
  8
0
 10
49.1994
 20
102.393
 11
49.7032
 21
102.116
  0
LINE
  8
0
 10
49.7032
 20
102.116
 11
50.1684
 21
101.778
  0
LINE
  8
0
 10
50.1684
 20
101.778
 11
50.5875
 21
101.384
  0
LINE
  8
0
 10
50.5875
 20
101.384
 11
50.954
 21
100.941
  0
LINE
  8
0
 10
50.954
 20
100.941
 11
51.2621
 21
100.456
  0
LINE
  8
0
 10
51.2621
 20
100.456
 11
51.5069
 21
99.9354
  0
LINE
  8
0
 10
51.5069
 20
99.9354
 11
51.6846
 21
99.3886
  0
LINE
  8
0
 10
51.6846
 20
99.3886
 11
51.7923
 21
98.8238
  0
LINE
  8
0
 10
51.7923
 20
98.8238
 11
51.8284
 21
98.25
  0
LINE
  8
0
 10
51.8284
 20
98.25
 11
51.8284
 21
93.75
  0
LINE
  8
0
 10
51.8284
 20
93.75
 11
51.7923
 21
93.1762
  0
LINE
  8
0
 10
51.7923
 20
93.1762
 11
51.6846
 21
92.6114
  0
LINE
  8
0
 10
51.6846
 20
92.6114
 11
51.5069
 21
92.0646
  0
LINE
  8
0
 10
51.5069
 20
92.0646
 11
51.2621
 21
91.5443
  0
LINE
  8
0
 10
51.2621
 20
91.5443
 11
50.954
 21
91.0589
  0
LINE
  8
0
 10
50.954
 20
91.0589
 11
50.5875
 21
90.6158
  0
LINE
  8
0
 10
50.5875
 20
90.6158
 11
50.1684
 21
90.2223
  0
LINE
  8
0
 10
50.1684
 20
90.2223
 11
49.7032
 21
89.8843
  0
LINE
  8
0
 10
49.7032
 20
89.8843
 11
49.1994
 21
89.6073
  0
LINE
  8
0
 10
49.1994
 20
89.6073
 11
48.6648
 21
89.3956
  0
LINE
  8
0
 10
48.6648
 20
89.3956
 11
48.1079
 21
89.2527
  0
LINE
  8
0
 10
48.1079
 20
89.2527
 11
47.5375
 21
89.1806
  0
LINE
  8
0
 10
47.5375
 20
89.1806
 11
-47.5375
 21
89.1806
  0
LINE
  8
0
 10
48.4369
 20
64.5886
 11
49.0451
 21
64.7447
  0
LINE
  8
0
 10
49.0451
 20
64.7447
 11
49.6289
 21
64.9759
  0
LINE
  8
0
 10
49.6289
 20
64.9759
 11
50.1791
 21
65.2784
  0
LINE
  8
0
 10
50.1791
 20
65.2784
 11
50.6871
 21
65.6474
  0
LINE
  8
0
 10
50.6871
 20
65.6474
 11
51.1448
 21
66.0773
  0
LINE
  8
0
 10
51.1448
 20
66.0773
 11
51.5451
 21
66.5611
  0
LINE
  8
0
 10
51.5451
 20
66.5611
 11
51.8815
 21
67.0912
  0
LINE
  8
0
 10
51.8815
 20
67.0912
 11
52.1489
 21
67.6594
  0
LINE
  8
0
 10
52.1489
 20
67.6594
 11
52.3429
 21
68.2566
  0
LINE
  8
0
 10
52.3429
 20
68.2566
 11
52.4606
 21
68.8733
  0
LINE
  8
0
 10
52.4606
 20
68.8733
 11
52.5
 21
69.5
  0
LINE
  8
0
 10
52.5
 20
69.5
 11
52.5
 21
74.5
  0
LINE
  8
0
 10
52.5
 20
74.5
 11
52.4606
 21
75.1267
  0
LINE
  8
0
 10
52.4606
 20
75.1267
 11
52.3429
 21
75.7434
  0
LINE
  8
0
 10
52.3429
 20
75.7434
 11
52.1489
 21
76.3406
  0
LINE
  8
0
 10
52.1489
 20
76.3406
 11
51.8815
 21
76.9088
  0
LINE
  8
0
 10
51.8815
 20
76.9088
 11
51.5451
 21
77.4389
  0
LINE
  8
0
 10
51.5451
 20
77.4389
 11
51.1448
 21
77.9227
  0
LINE
  8
0
 10
51.1448
 20
77.9227
 11
50.6871
 21
78.3526
  0
LINE
  8
0
 10
50.6871
 20
78.3526
 11
50.1791
 21
78.7216
  0
LINE
  8
0
 10
50.1791
 20
78.7216
 11
49.6289
 21
79.0241
  0
LINE
  8
0
 10
49.6289
 20
79.0241
 11
49.0451
 21
79.2553
  0
LINE
  8
0
 10
49.0451
 20
79.2553
 11
48.4369
 21
79.4114
  0
LINE
  8
0
 10
48.4369
 20
79.4114
 11
47.8139
 21
79.4901
  0
LINE
  8
0
 10
47.8139
 20
79.4901
 11
-47.8139
 21
79.4901
  0
LINE
  8
0
 10
-47.8139
 20
79.4901
 11
-48.4369
 21
79.4114
  0
LINE
  8
0
 10
-48.4369
 20
79.4114
 11
-49.0451
 21
79.2553
  0
LINE
  8
0
 10
-49.0451
 20
79.2553
 11
-49.6289
 21
79.0241
  0
LINE
  8
0
 10
-49.6289
 20
79.0241
 11
-50.1791
 21
78.7216
  0
LINE
  8
0
 10
-50.1791
 20
78.7216
 11
-50.6871
 21
78.3526
  0
LINE
  8
0
 10
-50.6871
 20
78.3526
 11
-51.1448
 21
77.9227
  0
LINE
  8
0
 10
-51.1448
 20
77.9227
 11
-51.5451
 21
77.4389
  0
LINE
  8
0
 10
-51.5451
 20
77.4389
 11
-51.8815
 21
76.9088
  0
LINE
  8
0
 10
-51.8815
 20
76.9088
 11
-52.1489
 21
76.3406
  0
LINE
  8
0
 10
-52.1489
 20
76.3406
 11
-52.3429
 21
75.7434
  0
LINE
  8
0
 10
-52.3429
 20
75.7434
 11
-52.4606
 21
75.1267
  0
LINE
  8
0
 10
-52.4606
 20
75.1267
 11
-52.5
 21
74.5
  0
LINE
  8
0
 10
-52.5
 20
74.5
 11
-52.5
 21
69.5
  0
LINE
  8
0
 10
-52.5
 20
69.5
 11
-52.4606
 21
68.8733
  0
LINE
  8
0
 10
-52.4606
 20
68.8733
 11
-52.3429
 21
68.2566
  0
LINE
  8
0
 10
-52.3429
 20
68.2566
 11
-52.1489
 21
67.6594
  0
LINE
  8
0
 10
-52.1489
 20
67.6594
 11
-51.8815
 21
67.0912
  0
LINE
  8
0
 10
-51.8815
 20
67.0912
 11
-51.5451
 21
66.5611
  0
LINE
  8
0
 10
-51.5451
 20
66.5611
 11
-51.1448
 21
66.0773
  0
LINE
  8
0
 10
-51.1448
 20
66.0773
 11
-50.6871
 21
65.6474
  0
LINE
  8
0
 10
-50.6871
 20
65.6474
 11
-50.1791
 21
65.2784
  0
LINE
  8
0
 10
-50.1791
 20
65.2784
 11
-49.6289
 21
64.9759
  0
LINE
  8
0
 10
-49.6289
 20
64.9759
 11
-49.0451
 21
64.7447
  0
LINE
  8
0
 10
-49.0451
 20
64.7447
 11
-48.4369
 21
64.5886
  0
LINE
  8
0
 10
-48.4369
 20
64.5886
 11
-47.8139
 21
64.5099
  0
LINE
  8
0
 10
-47.8139
 20
64.5099
 11
47.8139
 21
64.5099
  0
LINE
  8
0
 10
47.8139
 20
64.5099
 11
48.4369
 21
64.5886
  0
LINE
  8
0
 10
-47.3825
 20
67.6445
 11
-47.6453
 21
67.6777
  0
LINE
  8
0
 10
-47.6453
 20
67.6777
 11
-47.9019
 21
67.7436
  0
LINE
  8
0
 10
-47.9019
 20
67.7436
 11
-48.1482
 21
67.8412
  0
LINE
  8
0
 10
-48.1482
 20
67.8412
 11
-48.3804
 21
67.9688
  0
LINE
  8
0
 10
-48.3804
 20
67.9688
 11
-48.5947
 21
68.1245
  0
LINE
  8
0
 10
-48.5947
 20
68.1245
 11
-48.7879
 21
68.3059
  0
LINE
  8
0
 10
-48.7879
 20
68.3059
 11
-48.9567
 21
68.51
  0
LINE
  8
0
 10
-48.9567
 20
68.51
 11
-49.0987
 21
68.7337
  0
LINE
  8
0
 10
-49.0987
 20
68.7337
 11
-49.2115
 21
68.9734
  0
LINE
  8
0
 10
-49.2115
 20
68.9734
 11
-49.2934
 21
69.2254
  0
LINE
  8
0
 10
-49.2934
 20
69.2254
 11
-49.343
 21
69.4856
  0
LINE
  8
0
 10
-49.343
 20
69.4856
 11
-49.3596
 21
69.75
  0
LINE
  8
0
 10
-49.3596
 20
69.75
 11
-49.3596
 21
74.25
  0
LINE
  8
0
 10
-49.3596
 20
74.25
 11
-49.343
 21
74.5144
  0
LINE
  8
0
 10
-49.343
 20
74.5144
 11
-49.2934
 21
74.7746
  0
LINE
  8
0
 10
-49.2934
 20
74.7746
 11
-49.2115
 21
75.0266
  0
LINE
  8
0
 10
-49.2115
 20
75.0266
 11
-49.0987
 21
75.2663
  0
LINE
  8
0
 10
-49.0987
 20
75.2663
 11
-48.9567
 21
75.49
  0
LINE
  8
0
 10
-48.9567
 20
75.49
 11
-48.7879
 21
75.6941
  0
LINE
  8
0
 10
-48.7879
 20
75.6941
 11
-48.5947
 21
75.8755
  0
LINE
  8
0
 10
-48.5947
 20
75.8755
 11
-48.3804
 21
76.0312
  0
LINE
  8
0
 10
-48.3804
 20
76.0312
 11
-48.1482
 21
76.1588
  0
LINE
  8
0
 10
-48.1482
 20
76.1588
 11
-47.9019
 21
76.2564
  0
LINE
  8
0
 10
-47.9019
 20
76.2564
 11
-47.6453
 21
76.3223
  0
LINE
  8
0
 10
-47.6453
 20
76.3223
 11
-47.3825
 21
76.3555
  0
LINE
  8
0
 10
-47.3825
 20
76.3555
 11
47.3825
 21
76.3555
  0
LINE
  8
0
 10
47.3825
 20
76.3555
 11
47.6453
 21
76.3223
  0
LINE
  8
0
 10
47.6453
 20
76.3223
 11
47.9019
 21
76.2564
  0
LINE
  8
0
 10
47.9019
 20
76.2564
 11
48.1482
 21
76.1588
  0
LINE
  8
0
 10
48.1482
 20
76.1588
 11
48.3804
 21
76.0312
  0
LINE
  8
0
 10
48.3804
 20
76.0312
 11
48.5947
 21
75.8755
  0
LINE
  8
0
 10
48.5947
 20
75.8755
 11
48.7879
 21
75.6941
  0
LINE
  8
0
 10
48.7879
 20
75.6941
 11
48.9567
 21
75.49
  0
LINE
  8
0
 10
48.9567
 20
75.49
 11
49.0987
 21
75.2663
  0
LINE
  8
0
 10
49.0987
 20
75.2663
 11
49.2115
 21
75.0266
  0
LINE
  8
0
 10
49.2115
 20
75.0266
 11
49.2934
 21
74.7746
  0
LINE
  8
0
 10
49.2934
 20
74.7746
 11
49.343
 21
74.5144
  0
LINE
  8
0
 10
49.343
 20
74.5144
 11
49.3596
 21
74.25
  0
LINE
  8
0
 10
49.3596
 20
74.25
 11
49.3596
 21
69.75
  0
LINE
  8
0
 10
49.3596
 20
69.75
 11
49.343
 21
69.4856
  0
LINE
  8
0
 10
49.343
 20
69.4856
 11
49.2934
 21
69.2254
  0
LINE
  8
0
 10
49.2934
 20
69.2254
 11
49.2115
 21
68.9734
  0
LINE
  8
0
 10
49.2115
 20
68.9734
 11
49.0987
 21
68.7337
  0
LINE
  8
0
 10
49.0987
 20
68.7337
 11
48.9567
 21
68.51
  0
LINE
  8
0
 10
48.9567
 20
68.51
 11
48.7879
 21
68.3059
  0
LINE
  8
0
 10
48.7879
 20
68.3059
 11
48.5947
 21
68.1245
  0
LINE
  8
0
 10
48.5947
 20
68.1245
 11
48.3804
 21
67.9688
  0
LINE
  8
0
 10
48.3804
 20
67.9688
 11
48.1482
 21
67.8412
  0
LINE
  8
0
 10
48.1482
 20
67.8412
 11
47.9019
 21
67.7436
  0
LINE
  8
0
 10
47.9019
 20
67.7436
 11
47.6453
 21
67.6777
  0
LINE
  8
0
 10
47.6453
 20
67.6777
 11
47.3825
 21
67.6445
  0
LINE
  8
0
 10
47.3825
 20
67.6445
 11
-47.3825
 21
67.6445
  0
ENDSEC
  0
SECTION
  2
OBJECTS
  0
DICTIONARY
  0
ENDSEC
  0
EOF
