  0
SECTION
  2
BLOCKS
  0
ENDSEC
  0
SECTION
  2
ENTITIES
  0
LINE
  8
0
 10
70.9369
 20
64.5886
 11
71.5451
 21
64.7447
  0
LINE
  8
0
 10
71.5451
 20
64.7447
 11
72.1289
 21
64.9759
  0
LINE
  8
0
 10
72.1289
 20
64.9759
 11
72.6791
 21
65.2784
  0
LINE
  8
0
 10
72.6791
 20
65.2784
 11
73.1871
 21
65.6474
  0
LINE
  8
0
 10
73.1871
 20
65.6474
 11
73.6448
 21
66.0773
  0
LINE
  8
0
 10
73.6448
 20
66.0773
 11
74.0451
 21
66.5611
  0
LINE
  8
0
 10
74.0451
 20
66.5611
 11
74.3815
 21
67.0912
  0
LINE
  8
0
 10
74.3815
 20
67.0912
 11
74.6489
 21
67.6594
  0
LINE
  8
0
 10
74.6489
 20
67.6594
 11
74.8429
 21
68.2566
  0
LINE
  8
0
 10
74.8429
 20
68.2566
 11
74.9606
 21
68.8733
  0
LINE
  8
0
 10
74.9606
 20
68.8733
 11
75
 21
69.5
  0
LINE
  8
0
 10
75
 20
69.5
 11
75
 21
74.5
  0
LINE
  8
0
 10
75
 20
74.5
 11
74.9606
 21
75.1267
  0
LINE
  8
0
 10
74.9606
 20
75.1267
 11
74.8429
 21
75.7434
  0
LINE
  8
0
 10
74.8429
 20
75.7434
 11
74.6489
 21
76.3406
  0
LINE
  8
0
 10
74.6489
 20
76.3406
 11
74.3815
 21
76.9088
  0
LINE
  8
0
 10
74.3815
 20
76.9088
 11
74.0451
 21
77.4389
  0
LINE
  8
0
 10
74.0451
 20
77.4389
 11
73.6448
 21
77.9227
  0
LINE
  8
0
 10
73.6448
 20
77.9227
 11
73.1871
 21
78.3526
  0
LINE
  8
0
 10
73.1871
 20
78.3526
 11
72.6791
 21
78.7216
  0
LINE
  8
0
 10
72.6791
 20
78.7216
 11
72.1289
 21
79.0241
  0
LINE
  8
0
 10
72.1289
 20
79.0241
 11
71.5451
 21
79.2553
  0
LINE
  8
0
 10
71.5451
 20
79.2553
 11
70.9369
 21
79.4114
  0
LINE
  8
0
 10
70.9369
 20
79.4114
 11
70.3139
 21
79.4901
  0
LINE
  8
0
 10
70.3139
 20
79.4901
 11
-70.3139
 21
79.4901
  0
LINE
  8
0
 10
-70.3139
 20
79.4901
 11
-70.9369
 21
79.4114
  0
LINE
  8
0
 10
-70.9369
 20
79.4114
 11
-71.5451
 21
79.2553
  0
LINE
  8
0
 10
-71.5451
 20
79.2553
 11
-72.1289
 21
79.0241
  0
LINE
  8
0
 10
-72.1289
 20
79.0241
 11
-72.6791
 21
78.7216
  0
LINE
  8
0
 10
-72.6791
 20
78.7216
 11
-73.1871
 21
78.3526
  0
LINE
  8
0
 10
-73.1871
 20
78.3526
 11
-73.5
 21
78.0587
  0
LINE
  8
0
 10
-73.5
 20
78.0587
 11
-73.5
 21
79.4792
  0
LINE
  8
0
 10
-73.5
 20
79.4792
 11
-76.5
 21
79.4792
  0
LINE
  8
0
 10
-76.5
 20
79.4792
 11
-76.5
 21
64.5208
  0
LINE
  8
0
 10
-76.5
 20
64.5208
 11
-73.5
 21
64.5208
  0
LINE
  8
0
 10
-73.5
 20
64.5208
 11
-73.5
 21
65.9413
  0
LINE
  8
0
 10
-73.5
 20
65.9413
 11
-73.1871
 21
65.6474
  0
LINE
  8
0
 10
-73.1871
 20
65.6474
 11
-72.6791
 21
65.2784
  0
LINE
  8
0
 10
-72.6791
 20
65.2784
 11
-72.1289
 21
64.9759
  0
LINE
  8
0
 10
-72.1289
 20
64.9759
 11
-71.5451
 21
64.7447
  0
LINE
  8
0
 10
-71.5451
 20
64.7447
 11
-70.9369
 21
64.5886
  0
LINE
  8
0
 10
-70.9369
 20
64.5886
 11
-70.3139
 21
64.5099
  0
LINE
  8
0
 10
-70.3139
 20
64.5099
 11
70.3139
 21
64.5099
  0
LINE
  8
0
 10
70.3139
 20
64.5099
 11
70.9369
 21
64.5886
  0
LINE
  8
0
 10
-69.6955
 20
66.8932
 11
-70.0833
 21
66.9422
  0
LINE
  8
0
 10
-70.0833
 20
66.9422
 11
-70.4619
 21
67.0394
  0
LINE
  8
0
 10
-70.4619
 20
67.0394
 11
-70.8254
 21
67.1833
  0
LINE
  8
0
 10
-70.8254
 20
67.1833
 11
-71.168
 21
67.3717
  0
LINE
  8
0
 10
-71.168
 20
67.3717
 11
-71.4843
 21
67.6015
  0
LINE
  8
0
 10
-71.4843
 20
67.6015
 11
-71.7692
 21
67.8691
  0
LINE
  8
0
 10
-71.7692
 20
67.8691
 11
-72.0184
 21
68.1703
  0
LINE
  8
0
 10
-72.0184
 20
68.1703
 11
-72.2279
 21
68.5004
  0
LINE
  8
0
 10
-72.2279
 20
68.5004
 11
-72.3943
 21
68.8541
  0
LINE
  8
0
 10
-72.3943
 20
68.8541
 11
-72.5151
 21
69.2259
  0
LINE
  8
0
 10
-72.5151
 20
69.2259
 11
-72.5884
 21
69.6098
  0
LINE
  8
0
 10
-72.5884
 20
69.6098
 11
-72.6129
 21
70
  0
LINE
  8
0
 10
-72.6129
 20
70
 11
-72.6129
 21
74
  0
LINE
  8
0
 10
-72.6129
 20
74
 11
-72.5884
 21
74.3902
  0
LINE
  8
0
 10
-72.5884
 20
74.3902
 11
-72.5151
 21
74.7741
  0
LINE
  8
0
 10
-72.5151
 20
74.7741
 11
-72.3943
 21
75.1459
  0
LINE
  8
0
 10
-72.3943
 20
75.1459
 11
-72.2279
 21
75.4996
  0
LINE
  8
0
 10
-72.2279
 20
75.4996
 11
-72.0184
 21
75.8297
  0
LINE
  8
0
 10
-72.0184
 20
75.8297
 11
-71.7692
 21
76.1309
  0
LINE
  8
0
 10
-71.7692
 20
76.1309
 11
-71.4843
 21
76.3985
  0
LINE
  8
0
 10
-71.4843
 20
76.3985
 11
-71.168
 21
76.6283
  0
LINE
  8
0
 10
-71.168
 20
76.6283
 11
-70.8254
 21
76.8167
  0
LINE
  8
0
 10
-70.8254
 20
76.8167
 11
-70.4619
 21
76.9606
  0
LINE
  8
0
 10
-70.4619
 20
76.9606
 11
-70.0833
 21
77.0578
  0
LINE
  8
0
 10
-70.0833
 20
77.0578
 11
-69.6955
 21
77.1068
  0
LINE
  8
0
 10
-69.6955
 20
77.1068
 11
69.6955
 21
77.1068
  0
LINE
  8
0
 10
69.6955
 20
77.1068
 11
70.0833
 21
77.0578
  0
LINE
  8
0
 10
70.0833
 20
77.0578
 11
70.4619
 21
76.9606
  0
LINE
  8
0
 10
70.4619
 20
76.9606
 11
70.8254
 21
76.8167
  0
LINE
  8
0
 10
70.8254
 20
76.8167
 11
71.168
 21
76.6283
  0
LINE
  8
0
 10
71.168
 20
76.6283
 11
71.4843
 21
76.3985
  0
LINE
  8
0
 10
71.4843
 20
76.3985
 11
71.7692
 21
76.1309
  0
LINE
  8
0
 10
71.7692
 20
76.1309
 11
72.0184
 21
75.8297
  0
LINE
  8
0
 10
72.0184
 20
75.8297
 11
72.2279
 21
75.4996
  0
LINE
  8
0
 10
72.2279
 20
75.4996
 11
72.3943
 21
75.1459
  0
LINE
  8
0
 10
72.3943
 20
75.1459
 11
72.5151
 21
74.7741
  0
LINE
  8
0
 10
72.5151
 20
74.7741
 11
72.5884
 21
74.3902
  0
LINE
  8
0
 10
72.5884
 20
74.3902
 11
72.6129
 21
74
  0
LINE
  8
0
 10
72.6129
 20
74
 11
72.6129
 21
70
  0
LINE
  8
0
 10
72.6129
 20
70
 11
72.5884
 21
69.6098
  0
LINE
  8
0
 10
72.5884
 20
69.6098
 11
72.5151
 21
69.2259
  0
LINE
  8
0
 10
72.5151
 20
69.2259
 11
72.3943
 21
68.8541
  0
LINE
  8
0
 10
72.3943
 20
68.8541
 11
72.2279
 21
68.5004
  0
LINE
  8
0
 10
72.2279
 20
68.5004
 11
72.0184
 21
68.1703
  0
LINE
  8
0
 10
72.0184
 20
68.1703
 11
71.7692
 21
67.8691
  0
LINE
  8
0
 10
71.7692
 20
67.8691
 11
71.4843
 21
67.6015
  0
LINE
  8
0
 10
71.4843
 20
67.6015
 11
71.168
 21
67.3717
  0
LINE
  8
0
 10
71.168
 20
67.3717
 11
70.8254
 21
67.1833
  0
LINE
  8
0
 10
70.8254
 20
67.1833
 11
70.4619
 21
67.0394
  0
LINE
  8
0
 10
70.4619
 20
67.0394
 11
70.0833
 21
66.9422
  0
LINE
  8
0
 10
70.0833
 20
66.9422
 11
69.6955
 21
66.8932
  0
LINE
  8
0
 10
69.6955
 20
66.8932
 11
-69.6955
 21
66.8932
  0
LINE
  8
0
 10
70.9369
 20
40.5886
 11
71.5451
 21
40.7447
  0
LINE
  8
0
 10
71.5451
 20
40.7447
 11
72.1289
 21
40.9759
  0
LINE
  8
0
 10
72.1289
 20
40.9759
 11
72.6791
 21
41.2784
  0
LINE
  8
0
 10
72.6791
 20
41.2784
 11
73.1871
 21
41.6474
  0
LINE
  8
0
 10
73.1871
 20
41.6474
 11
73.6448
 21
42.0773
  0
LINE
  8
0
 10
73.6448
 20
42.0773
 11
74.0451
 21
42.5611
  0
LINE
  8
0
 10
74.0451
 20
42.5611
 11
74.3815
 21
43.0912
  0
LINE
  8
0
 10
74.3815
 20
43.0912
 11
74.6489
 21
43.6594
  0
LINE
  8
0
 10
74.6489
 20
43.6594
 11
74.8429
 21
44.2566
  0
LINE
  8
0
 10
74.8429
 20
44.2566
 11
74.9606
 21
44.8733
  0
LINE
  8
0
 10
74.9606
 20
44.8733
 11
75
 21
45.5
  0
LINE
  8
0
 10
75
 20
45.5
 11
75
 21
50.5
  0
LINE
  8
0
 10
75
 20
50.5
 11
74.9606
 21
51.1267
  0
LINE
  8
0
 10
74.9606
 20
51.1267
 11
74.8429
 21
51.7434
  0
LINE
  8
0
 10
74.8429
 20
51.7434
 11
74.6489
 21
52.3406
  0
LINE
  8
0
 10
74.6489
 20
52.3406
 11
74.3815
 21
52.9088
  0
LINE
  8
0
 10
74.3815
 20
52.9088
 11
74.0451
 21
53.4389
  0
LINE
  8
0
 10
74.0451
 20
53.4389
 11
73.6448
 21
53.9227
  0
LINE
  8
0
 10
73.6448
 20
53.9227
 11
73.1871
 21
54.3526
  0
LINE
  8
0
 10
73.1871
 20
54.3526
 11
72.6791
 21
54.7216
  0
LINE
  8
0
 10
72.6791
 20
54.7216
 11
72.1289
 21
55.0241
  0
LINE
  8
0
 10
72.1289
 20
55.0241
 11
71.5451
 21
55.2553
  0
LINE
  8
0
 10
71.5451
 20
55.2553
 11
70.9369
 21
55.4114
  0
LINE
  8
0
 10
70.9369
 20
55.4114
 11
70.3139
 21
55.4901
  0
LINE
  8
0
 10
70.3139
 20
55.4901
 11
-70.3139
 21
55.4901
  0
LINE
  8
0
 10
-70.3139
 20
55.4901
 11
-70.9369
 21
55.4114
  0
LINE
  8
0
 10
-70.9369
 20
55.4114
 11
-71.5451
 21
55.2553
  0
LINE
  8
0
 10
-71.5451
 20
55.2553
 11
-72.1289
 21
55.0241
  0
LINE
  8
0
 10
-72.1289
 20
55.0241
 11
-72.6791
 21
54.7216
  0
LINE
  8
0
 10
-72.6791
 20
54.7216
 11
-73.1871
 21
54.3526
  0
LINE
  8
0
 10
-73.1871
 20
54.3526
 11
-73.5
 21
54.0587
  0
LINE
  8
0
 10
-73.5
 20
54.0587
 11
-73.5
 21
54.1526
  0
LINE
  8
0
 10
-73.5
 20
54.1526
 11
-76.5
 21
54.1526
  0
LINE
  8
0
 10
-76.5
 20
54.1526
 11
-76.5
 21
41.8474
  0
LINE
  8
0
 10
-76.5
 20
41.8474
 11
-73.5
 21
41.8474
  0
LINE
  8
0
 10
-73.5
 20
41.8474
 11
-73.5
 21
41.9413
  0
LINE
  8
0
 10
-73.5
 20
41.9413
 11
-73.1871
 21
41.6474
  0
LINE
  8
0
 10
-73.1871
 20
41.6474
 11
-72.6791
 21
41.2784
  0
LINE
  8
0
 10
-72.6791
 20
41.2784
 11
-72.1289
 21
40.9759
  0
LINE
  8
0
 10
-72.1289
 20
40.9759
 11
-71.5451
 21
40.7447
  0
LINE
  8
0
 10
-71.5451
 20
40.7447
 11
-70.9369
 21
40.5886
  0
LINE
  8
0
 10
-70.9369
 20
40.5886
 11
-70.3139
 21
40.5099
  0
LINE
  8
0
 10
-70.3139
 20
40.5099
 11
70.3139
 21
40.5099
  0
LINE
  8
0
 10
70.3139
 20
40.5099
 11
70.9369
 21
40.5886
  0
LINE
  8
0
 10
67.3659
 20
45.8689
 11
67.0999
 21
45.9025
  0
LINE
  8
0
 10
67.0999
 20
45.9025
 11
66.8401
 21
45.9692
  0
LINE
  8
0
 10
66.8401
 20
45.9692
 11
66.5908
 21
46.0679
  0
LINE
  8
0
 10
66.5908
 20
46.0679
 11
66.3559
 21
46.1971
  0
LINE
  8
0
 10
66.3559
 20
46.1971
 11
66.1389
 21
46.3547
  0
LINE
  8
0
 10
66.1389
 20
46.3547
 11
65.9434
 21
46.5383
  0
LINE
  8
0
 10
65.9434
 20
46.5383
 11
65.7725
 21
46.7449
  0
LINE
  8
0
 10
65.7725
 20
46.7449
 11
65.6288
 21
46.9713
  0
LINE
  8
0
 10
65.6288
 20
46.9713
 11
65.5146
 21
47.214
  0
LINE
  8
0
 10
65.5146
 20
47.214
 11
65.4318
 21
47.469
  0
LINE
  8
0
 10
65.4318
 20
47.469
 11
65.3815
 21
47.7324
  0
LINE
  8
0
 10
65.3815
 20
47.7324
 11
65.3647
 21
48
  0
LINE
  8
0
 10
65.3647
 20
48
 11
65.3815
 21
48.2676
  0
LINE
  8
0
 10
65.3815
 20
48.2676
 11
65.4318
 21
48.531
  0
LINE
  8
0
 10
65.4318
 20
48.531
 11
65.5146
 21
48.786
  0
LINE
  8
0
 10
65.5146
 20
48.786
 11
65.6288
 21
49.0287
  0
LINE
  8
0
 10
65.6288
 20
49.0287
 11
65.7725
 21
49.2551
  0
LINE
  8
0
 10
65.7725
 20
49.2551
 11
65.9434
 21
49.4617
  0
LINE
  8
0
 10
65.9434
 20
49.4617
 11
66.1389
 21
49.6453
  0
LINE
  8
0
 10
66.1389
 20
49.6453
 11
66.3559
 21
49.8029
  0
LINE
  8
0
 10
66.3559
 20
49.8029
 11
66.5908
 21
49.9321
  0
LINE
  8
0
 10
66.5908
 20
49.9321
 11
66.8401
 21
50.0308
  0
LINE
  8
0
 10
66.8401
 20
50.0308
 11
67.0999
 21
50.0975
  0
LINE
  8
0
 10
67.0999
 20
50.0975
 11
67.3659
 21
50.1311
  0
LINE
  8
0
 10
67.3659
 20
50.1311
 11
67.6341
 21
50.1311
  0
LINE
  8
0
 10
67.6341
 20
50.1311
 11
67.9001
 21
50.0975
  0
LINE
  8
0
 10
67.9001
 20
50.0975
 11
68.1598
 21
50.0308
  0
LINE
  8
0
 10
68.1598
 20
50.0308
 11
68.4092
 21
49.9321
  0
LINE
  8
0
 10
68.4092
 20
49.9321
 11
68.6441
 21
49.8029
  0
LINE
  8
0
 10
68.6441
 20
49.8029
 11
68.8611
 21
49.6453
  0
LINE
  8
0
 10
68.8611
 20
49.6453
 11
69.0566
 21
49.4617
  0
LINE
  8
0
 10
69.0566
 20
49.4617
 11
69.2275
 21
49.2551
  0
LINE
  8
0
 10
69.2275
 20
49.2551
 11
69.3712
 21
49.0287
  0
LINE
  8
0
 10
69.3712
 20
49.0287
 11
69.4853
 21
48.786
  0
LINE
  8
0
 10
69.4853
 20
48.786
 11
69.5682
 21
48.531
  0
LINE
  8
0
 10
69.5682
 20
48.531
 11
69.6185
 21
48.2676
  0
LINE
  8
0
 10
69.6185
 20
48.2676
 11
69.6353
 21
48
  0
LINE
  8
0
 10
69.6353
 20
48
 11
69.6185
 21
47.7324
  0
LINE
  8
0
 10
69.6185
 20
47.7324
 11
69.5682
 21
47.469
  0
LINE
  8
0
 10
69.5682
 20
47.469
 11
69.4853
 21
47.214
  0
LINE
  8
0
 10
69.4853
 20
47.214
 11
69.3712
 21
46.9713
  0
LINE
  8
0
 10
69.3712
 20
46.9713
 11
69.2275
 21
46.7449
  0
LINE
  8
0
 10
69.2275
 20
46.7449
 11
69.0566
 21
46.5383
  0
LINE
  8
0
 10
69.0566
 20
46.5383
 11
68.8611
 21
46.3547
  0
LINE
  8
0
 10
68.8611
 20
46.3547
 11
68.6441
 21
46.1971
  0
LINE
  8
0
 10
68.6441
 20
46.1971
 11
68.4092
 21
46.0679
  0
LINE
  8
0
 10
68.4092
 20
46.0679
 11
68.1598
 21
45.9692
  0
LINE
  8
0
 10
68.1598
 20
45.9692
 11
67.9001
 21
45.9025
  0
LINE
  8
0
 10
67.9001
 20
45.9025
 11
67.6341
 21
45.8689
  0
LINE
  8
0
 10
67.6341
 20
45.8689
 11
67.3659
 21
45.8689
  0
LINE
  8
0
 10
-67.6341
 20
45.8689
 11
-67.9001
 21
45.9025
  0
LINE
  8
0
 10
-67.9001
 20
45.9025
 11
-68.1598
 21
45.9692
  0
LINE
  8
0
 10
-68.1598
 20
45.9692
 11
-68.4092
 21
46.0679
  0
LINE
  8
0
 10
-68.4092
 20
46.0679
 11
-68.6441
 21
46.1971
  0
LINE
  8
0
 10
-68.6441
 20
46.1971
 11
-68.8611
 21
46.3547
  0
LINE
  8
0
 10
-68.8611
 20
46.3547
 11
-69.0566
 21
46.5383
  0
LINE
  8
0
 10
-69.0566
 20
46.5383
 11
-69.2275
 21
46.7449
  0
LINE
  8
0
 10
-69.2275
 20
46.7449
 11
-69.3712
 21
46.9713
  0
LINE
  8
0
 10
-69.3712
 20
46.9713
 11
-69.4853
 21
47.214
  0
LINE
  8
0
 10
-69.4853
 20
47.214
 11
-69.5682
 21
47.469
  0
LINE
  8
0
 10
-69.5682
 20
47.469
 11
-69.6185
 21
47.7324
  0
LINE
  8
0
 10
-69.6185
 20
47.7324
 11
-69.6353
 21
48
  0
LINE
  8
0
 10
-69.6353
 20
48
 11
-69.6185
 21
48.2676
  0
LINE
  8
0
 10
-69.6185
 20
48.2676
 11
-69.5682
 21
48.531
  0
LINE
  8
0
 10
-69.5682
 20
48.531
 11
-69.4853
 21
48.786
  0
LINE
  8
0
 10
-69.4853
 20
48.786
 11
-69.3712
 21
49.0287
  0
LINE
  8
0
 10
-69.3712
 20
49.0287
 11
-69.2275
 21
49.2551
  0
LINE
  8
0
 10
-69.2275
 20
49.2551
 11
-69.0566
 21
49.4617
  0
LINE
  8
0
 10
-69.0566
 20
49.4617
 11
-68.8611
 21
49.6453
  0
LINE
  8
0
 10
-68.8611
 20
49.6453
 11
-68.6441
 21
49.8029
  0
LINE
  8
0
 10
-68.6441
 20
49.8029
 11
-68.4092
 21
49.9321
  0
LINE
  8
0
 10
-68.4092
 20
49.9321
 11
-68.1598
 21
50.0308
  0
LINE
  8
0
 10
-68.1598
 20
50.0308
 11
-67.9001
 21
50.0975
  0
LINE
  8
0
 10
-67.9001
 20
50.0975
 11
-67.6341
 21
50.1311
  0
LINE
  8
0
 10
-67.6341
 20
50.1311
 11
-67.3659
 21
50.1311
  0
LINE
  8
0
 10
-67.3659
 20
50.1311
 11
-67.0999
 21
50.0975
  0
LINE
  8
0
 10
-67.0999
 20
50.0975
 11
-66.8401
 21
50.0308
  0
LINE
  8
0
 10
-66.8401
 20
50.0308
 11
-66.5908
 21
49.9321
  0
LINE
  8
0
 10
-66.5908
 20
49.9321
 11
-66.3559
 21
49.8029
  0
LINE
  8
0
 10
-66.3559
 20
49.8029
 11
-66.1389
 21
49.6453
  0
LINE
  8
0
 10
-66.1389
 20
49.6453
 11
-65.9434
 21
49.4617
  0
LINE
  8
0
 10
-65.9434
 20
49.4617
 11
-65.7725
 21
49.2551
  0
LINE
  8
0
 10
-65.7725
 20
49.2551
 11
-65.6288
 21
49.0287
  0
LINE
  8
0
 10
-65.6288
 20
49.0287
 11
-65.5146
 21
48.786
  0
LINE
  8
0
 10
-65.5146
 20
48.786
 11
-65.4318
 21
48.531
  0
LINE
  8
0
 10
-65.4318
 20
48.531
 11
-65.3815
 21
48.2676
  0
LINE
  8
0
 10
-65.3815
 20
48.2676
 11
-65.3647
 21
48
  0
LINE
  8
0
 10
-65.3647
 20
48
 11
-65.3815
 21
47.7324
  0
LINE
  8
0
 10
-65.3815
 20
47.7324
 11
-65.4318
 21
47.469
  0
LINE
  8
0
 10
-65.4318
 20
47.469
 11
-65.5146
 21
47.214
  0
LINE
  8
0
 10
-65.5146
 20
47.214
 11
-65.6288
 21
46.9713
  0
LINE
  8
0
 10
-65.6288
 20
46.9713
 11
-65.7725
 21
46.7449
  0
LINE
  8
0
 10
-65.7725
 20
46.7449
 11
-65.9434
 21
46.5383
  0
LINE
  8
0
 10
-65.9434
 20
46.5383
 11
-66.1389
 21
46.3547
  0
LINE
  8
0
 10
-66.1389
 20
46.3547
 11
-66.3559
 21
46.1971
  0
LINE
  8
0
 10
-66.3559
 20
46.1971
 11
-66.5908
 21
46.0679
  0
LINE
  8
0
 10
-66.5908
 20
46.0679
 11
-66.8401
 21
45.9692
  0
LINE
  8
0
 10
-66.8401
 20
45.9692
 11
-67.0999
 21
45.9025
  0
LINE
  8
0
 10
-67.0999
 20
45.9025
 11
-67.3659
 21
45.8689
  0
LINE
  8
0
 10
-67.3659
 20
45.8689
 11
-67.6341
 21
45.8689
  0
ENDSEC
  0
SECTION
  2
OBJECTS
  0
DICTIONARY
  0
ENDSEC
  0
EOF
