<?xml version="1.0" standalone="no"?>
<!DOCTYPE svg PUBLIC "-//W3C//DTD SVG 1.1//EN" "http://www.w3.org/Graphics/SVG/1.1/DTD/svg11.dtd">
<svg width="152mm" height="40mm" viewBox="-77 -80 152 40" xmlns="http://www.w3.org/2000/svg" version="1.1">
<title>OpenSCAD Model</title>
<path d="
M 70.9369,-64.5886 L 71.5451,-64.7447 L 72.1289,-64.9759 L 72.6791,-65.2784 L 73.1871,-65.6474 L 73.6448,-66.0773
 L 74.0451,-66.5611 L 74.3815,-67.0912 L 74.6489,-67.6594 L 74.8429,-68.2566 L 74.9606,-68.8733 L 75,-69.5
 L 75,-74.5 L 74.9606,-75.1267 L 74.8429,-75.7434 L 74.6489,-76.3406 L 74.3815,-76.9088 L 74.0451,-77.4389
 L 73.6448,-77.9227 L 73.1871,-78.3526 L 72.6791,-78.7216 L 72.1289,-79.0241 L 71.5451,-79.2553 L 70.9369,-79.4114
 L 70.3139,-79.4901 L -70.3139,-79.4901 L -70.9369,-79.4114 L -71.5451,-79.2553 L -72.1289,-79.0241 L -72.6791,-78.7216
 L -73.1871,-78.3526 L -73.5,-78.0587 L -73.5,-79.4792 L -76.5,-79.4792 L -76.5,-64.5208 L -73.5,-64.5208
 L -73.5,-65.9413 L -73.1871,-65.6474 L -72.6791,-65.2784 L -72.1289,-64.9759 L -71.5451,-64.7447 L -70.9369,-64.5886
 L -70.3139,-64.5099 L 70.3139,-64.5099 z
M -69.6955,-66.8932 L -70.0833,-66.9422 L -70.4619,-67.0394 L -70.8254,-67.1833 L -71.168,-67.3717 L -71.4843,-67.6015
 L -71.7692,-67.8691 L -72.0184,-68.1703 L -72.2279,-68.5004 L -72.3943,-68.8541 L -72.5151,-69.2259 L -72.5884,-69.6098
 L -72.6129,-70 L -72.6129,-74 L -72.5884,-74.3902 L -72.5151,-74.7741 L -72.3943,-75.1459 L -72.2279,-75.4996
 L -72.0184,-75.8297 L -71.7692,-76.1309 L -71.4843,-76.3985 L -71.168,-76.6283 L -70.8254,-76.8167 L -70.4619,-76.9606
 L -70.0833,-77.0578 L -69.6955,-77.1068 L 69.6955,-77.1068 L 70.0833,-77.0578 L 70.4619,-76.9606 L 70.8254,-76.8167
 L 71.168,-76.6283 L 71.4843,-76.3985 L 71.7692,-76.1309 L 72.0184,-75.8297 L 72.2279,-75.4996 L 72.3943,-75.1459
 L 72.5151,-74.7741 L 72.5884,-74.3902 L 72.6129,-74 L 72.6129,-70 L 72.5884,-69.6098 L 72.5151,-69.2259
 L 72.3943,-68.8541 L 72.2279,-68.5004 L 72.0184,-68.1703 L 71.7692,-67.8691 L 71.4843,-67.6015 L 71.168,-67.3717
 L 70.8254,-67.1833 L 70.4619,-67.0394 L 70.0833,-66.9422 L 69.6955,-66.8932 z
M 70.9369,-40.5886 L 71.5451,-40.7447 L 72.1289,-40.9759 L 72.6791,-41.2784 L 73.1871,-41.6474 L 73.6448,-42.0773
 L 74.0451,-42.5611 L 74.3815,-43.0912 L 74.6489,-43.6594 L 74.8429,-44.2566 L 74.9606,-44.8733 L 75,-45.5
 L 75,-50.5 L 74.9606,-51.1267 L 74.8429,-51.7434 L 74.6489,-52.3406 L 74.3815,-52.9088 L 74.0451,-53.4389
 L 73.6448,-53.9227 L 73.1871,-54.3526 L 72.6791,-54.7216 L 72.1289,-55.0241 L 71.5451,-55.2553 L 70.9369,-55.4114
 L 70.3139,-55.4901 L -70.3139,-55.4901 L -70.9369,-55.4114 L -71.5451,-55.2553 L -72.1289,-55.0241 L -72.6791,-54.7216
 L -73.1871,-54.3526 L -73.5,-54.0587 L -73.5,-54.1526 L -76.5,-54.1526 L -76.5,-41.8474 L -73.5,-41.8474
 L -73.5,-41.9413 L -73.1871,-41.6474 L -72.6791,-41.2784 L -72.1289,-40.9759 L -71.5451,-40.7447 L -70.9369,-40.5886
 L -70.3139,-40.5099 L 70.3139,-40.5099 z
M 67.3659,-45.8689 L 67.0999,-45.9025 L 66.8401,-45.9692 L 66.5908,-46.0679 L 66.3559,-46.1971 L 66.1389,-46.3547
 L 65.9434,-46.5383 L 65.7725,-46.7449 L 65.6288,-46.9713 L 65.5146,-47.214 L 65.4318,-47.469 L 65.3815,-47.7324
 L 65.3647,-48 L 65.3815,-48.2676 L 65.4318,-48.531 L 65.5146,-48.786 L 65.6288,-49.0287 L 65.7725,-49.2551
 L 65.9434,-49.4617 L 66.1389,-49.6453 L 66.3559,-49.8029 L 66.5908,-49.9321 L 66.8401,-50.0308 L 67.0999,-50.0975
 L 67.3659,-50.1311 L 67.6341,-50.1311 L 67.9001,-50.0975 L 68.1598,-50.0308 L 68.4092,-49.9321 L 68.6441,-49.8029
 L 68.8611,-49.6453 L 69.0566,-49.4617 L 69.2275,-49.2551 L 69.3712,-49.0287 L 69.4853,-48.786 L 69.5682,-48.531
 L 69.6185,-48.2676 L 69.6353,-48 L 69.6185,-47.7324 L 69.5682,-47.469 L 69.4853,-47.214 L 69.3712,-46.9713
 L 69.2275,-46.7449 L 69.0566,-46.5383 L 68.8611,-46.3547 L 68.6441,-46.1971 L 68.4092,-46.0679 L 68.1598,-45.9692
 L 67.9001,-45.9025 L 67.6341,-45.8689 z
M -67.6341,-45.8689 L -67.9001,-45.9025 L -68.1598,-45.9692 L -68.4092,-46.0679 L -68.6441,-46.1971 L -68.8611,-46.3547
 L -69.0566,-46.5383 L -69.2275,-46.7449 L -69.3712,-46.9713 L -69.4853,-47.214 L -69.5682,-47.469 L -69.6185,-47.7324
 L -69.6353,-48 L -69.6185,-48.2676 L -69.5682,-48.531 L -69.4853,-48.786 L -69.3712,-49.0287 L -69.2275,-49.2551
 L -69.0566,-49.4617 L -68.8611,-49.6453 L -68.6441,-49.8029 L -68.4092,-49.9321 L -68.1598,-50.0308 L -67.9001,-50.0975
 L -67.6341,-50.1311 L -67.3659,-50.1311 L -67.0999,-50.0975 L -66.8401,-50.0308 L -66.5908,-49.9321 L -66.3559,-49.8029
 L -66.1389,-49.6453 L -65.9434,-49.4617 L -65.7725,-49.2551 L -65.6288,-49.0287 L -65.5146,-48.786 L -65.4318,-48.531
 L -65.3815,-48.2676 L -65.3647,-48 L -65.3815,-47.7324 L -65.4318,-47.469 L -65.5146,-47.214 L -65.6288,-46.9713
 L -65.7725,-46.7449 L -65.9434,-46.5383 L -66.1389,-46.3547 L -66.3559,-46.1971 L -66.5908,-46.0679 L -66.8401,-45.9692
 L -67.0999,-45.9025 L -67.3659,-45.8689 z
" stroke="black" fill="lightgray" stroke-width="0.5"/>
</svg>
