<?xml version="1.0" standalone="no"?>
<!DOCTYPE svg PUBLIC "-//W3C//DTD SVG 1.1//EN" "http://www.w3.org/Graphics/SVG/1.1/DTD/svg11.dtd">
<svg width="16mm" height="936mm" viewBox="-8 -1791 16 936" xmlns="http://www.w3.org/2000/svg" version="1.1">
<title>OpenSCAD Model</title>
<path d="
M 3.4369,-1611.09 L 4.04507,-1611.24 L 4.62889,-1611.48 L 5.17912,-1611.78 L 5.68712,-1612.15 L 6.14484,-1612.58
 L 6.54507,-1613.06 L 6.88153,-1613.59 L 7.14888,-1614.16 L 7.34291,-1614.76 L 7.46057,-1615.37 L 7.5,-1616
 L 7.5,-1786 L 7.46057,-1786.63 L 7.34291,-1787.24 L 7.14888,-1787.84 L 6.88153,-1788.41 L 6.54507,-1788.94
 L 6.14484,-1789.42 L 5.68712,-1789.85 L 5.17912,-1790.22 L 4.62889,-1790.52 L 4.04507,-1790.76 L 3.4369,-1790.91
 L 2.81395,-1790.99 L -2.81395,-1790.99 L -3.4369,-1790.91 L -4.04507,-1790.76 L -4.62889,-1790.52 L -5.17912,-1790.22
 L -5.68712,-1789.85 L -6.14484,-1789.42 L -6.54507,-1788.94 L -6.88153,-1788.41 L -7.14888,-1787.84 L -7.34291,-1787.24
 L -7.46057,-1786.63 L -7.5,-1786 L -7.5,-1616 L -7.46057,-1615.37 L -7.34291,-1614.76 L -7.14888,-1614.16
 L -6.88153,-1613.59 L -6.54507,-1613.06 L -6.14484,-1612.58 L -5.68712,-1612.15 L -5.17912,-1611.78 L -4.62889,-1611.48
 L -4.04507,-1611.24 L -3.4369,-1611.09 L -2.81395,-1611.01 L 2.81395,-1611.01 z
M -2.25116,-1612.51 L -2.74951,-1612.57 L -3.23605,-1612.7 L -3.70311,-1612.88 L -4.1433,-1613.12 L -4.54968,-1613.42
 L -4.91586,-1613.76 L -5.23605,-1614.15 L -5.50522,-1614.57 L -5.7191,-1615.03 L -5.87433,-1615.51 L -5.96844,-1616
 L -6,-1616.5 L -6,-1785.5 L -5.96844,-1786 L -5.87433,-1786.49 L -5.7191,-1786.97 L -5.50522,-1787.43
 L -5.23605,-1787.85 L -4.91586,-1788.24 L -4.54968,-1788.58 L -4.1433,-1788.88 L -3.70311,-1789.12 L -3.23605,-1789.3
 L -2.74951,-1789.43 L -2.25116,-1789.49 L 2.25116,-1789.49 L 2.74951,-1789.43 L 3.23605,-1789.3 L 3.70311,-1789.12
 L 4.1433,-1788.88 L 4.54968,-1788.58 L 4.91586,-1788.24 L 5.23605,-1787.85 L 5.50522,-1787.43 L 5.7191,-1786.97
 L 5.87433,-1786.49 L 5.96844,-1786 L 6,-1785.5 L 6,-1616.5 L 5.96844,-1616 L 5.87433,-1615.51
 L 5.7191,-1615.03 L 5.50522,-1614.57 L 5.23605,-1614.15 L 4.91586,-1613.76 L 4.54968,-1613.42 L 4.1433,-1613.12
 L 3.70311,-1612.88 L 3.23605,-1612.7 L 2.74951,-1612.57 L 2.25116,-1612.51 z
M 3.4369,-1422.09 L 4.04507,-1422.24 L 4.62889,-1422.48 L 5.17912,-1422.78 L 5.68712,-1423.15 L 6.14484,-1423.58
 L 6.54507,-1424.06 L 6.88153,-1424.59 L 7.14888,-1425.16 L 7.34291,-1425.76 L 7.46057,-1426.37 L 7.5,-1427
 L 7.5,-1597 L 7.46057,-1597.63 L 7.34291,-1598.24 L 7.14888,-1598.84 L 6.88153,-1599.41 L 6.54507,-1599.94
 L 6.14484,-1600.42 L 5.68712,-1600.85 L 5.17912,-1601.22 L 4.62889,-1601.52 L 4.04507,-1601.76 L 3.4369,-1601.91
 L 2.81395,-1601.99 L -2.81395,-1601.99 L -3.4369,-1601.91 L -4.04507,-1601.76 L -4.62889,-1601.52 L -5.17912,-1601.22
 L -5.68712,-1600.85 L -6.14484,-1600.42 L -6.54507,-1599.94 L -6.88153,-1599.41 L -7.14888,-1598.84 L -7.34291,-1598.24
 L -7.46057,-1597.63 L -7.5,-1597 L -7.5,-1427 L -7.46057,-1426.37 L -7.34291,-1425.76 L -7.14888,-1425.16
 L -6.88153,-1424.59 L -6.54507,-1424.06 L -6.14484,-1423.58 L -5.68712,-1423.15 L -5.17912,-1422.78 L -4.62889,-1422.48
 L -4.04507,-1422.24 L -3.4369,-1422.09 L -2.81395,-1422.01 L 2.81395,-1422.01 z
M -2.25116,-1423.51 L -2.74951,-1423.57 L -3.23605,-1423.7 L -3.70311,-1423.88 L -4.1433,-1424.12 L -4.54968,-1424.42
 L -4.91586,-1424.76 L -5.23605,-1425.15 L -5.50522,-1425.57 L -5.7191,-1426.03 L -5.87433,-1426.51 L -5.96844,-1427
 L -6,-1427.5 L -6,-1596.5 L -5.96844,-1597 L -5.87433,-1597.49 L -5.7191,-1597.97 L -5.50522,-1598.43
 L -5.23605,-1598.85 L -4.91586,-1599.24 L -4.54968,-1599.58 L -4.1433,-1599.88 L -3.70311,-1600.12 L -3.23605,-1600.3
 L -2.74951,-1600.43 L -2.25116,-1600.49 L 2.25116,-1600.49 L 2.74951,-1600.43 L 3.23605,-1600.3 L 3.70311,-1600.12
 L 4.1433,-1599.88 L 4.54968,-1599.58 L 4.91586,-1599.24 L 5.23605,-1598.85 L 5.50522,-1598.43 L 5.7191,-1597.97
 L 5.87433,-1597.49 L 5.96844,-1597 L 6,-1596.5 L 6,-1427.5 L 5.96844,-1427 L 5.87433,-1426.51
 L 5.7191,-1426.03 L 5.50522,-1425.57 L 5.23605,-1425.15 L 4.91586,-1424.76 L 4.54968,-1424.42 L 4.1433,-1424.12
 L 3.70311,-1423.88 L 3.23605,-1423.7 L 2.74951,-1423.57 L 2.25116,-1423.51 z
M 3.4369,-1233.09 L 4.04507,-1233.24 L 4.62889,-1233.48 L 5.17912,-1233.78 L 5.68712,-1234.15 L 6.14484,-1234.58
 L 6.54507,-1235.06 L 6.88153,-1235.59 L 7.14888,-1236.16 L 7.34291,-1236.76 L 7.46057,-1237.37 L 7.5,-1238
 L 7.5,-1408 L 7.46057,-1408.63 L 7.34291,-1409.24 L 7.14888,-1409.84 L 6.88153,-1410.41 L 6.54507,-1410.94
 L 6.14484,-1411.42 L 5.68712,-1411.85 L 5.17912,-1412.22 L 4.62889,-1412.52 L 4.04507,-1412.76 L 3.4369,-1412.91
 L 2.81395,-1412.99 L -2.81395,-1412.99 L -3.4369,-1412.91 L -4.04507,-1412.76 L -4.62889,-1412.52 L -5.17912,-1412.22
 L -5.68712,-1411.85 L -6.14484,-1411.42 L -6.54507,-1410.94 L -6.88153,-1410.41 L -7.14888,-1409.84 L -7.34291,-1409.24
 L -7.46057,-1408.63 L -7.5,-1408 L -7.5,-1238 L -7.46057,-1237.37 L -7.34291,-1236.76 L -7.14888,-1236.16
 L -6.88153,-1235.59 L -6.54507,-1235.06 L -6.14484,-1234.58 L -5.68712,-1234.15 L -5.17912,-1233.78 L -4.62889,-1233.48
 L -4.04507,-1233.24 L -3.4369,-1233.09 L -2.81395,-1233.01 L 2.81395,-1233.01 z
M -2.25116,-1234.51 L -2.74951,-1234.57 L -3.23605,-1234.7 L -3.70311,-1234.88 L -4.1433,-1235.12 L -4.54968,-1235.42
 L -4.91586,-1235.76 L -5.23605,-1236.15 L -5.50522,-1236.57 L -5.7191,-1237.03 L -5.87433,-1237.51 L -5.96844,-1238
 L -6,-1238.5 L -6,-1407.5 L -5.96844,-1408 L -5.87433,-1408.49 L -5.7191,-1408.97 L -5.50522,-1409.43
 L -5.23605,-1409.85 L -4.91586,-1410.24 L -4.54968,-1410.58 L -4.1433,-1410.88 L -3.70311,-1411.12 L -3.23605,-1411.3
 L -2.74951,-1411.43 L -2.25116,-1411.49 L 2.25116,-1411.49 L 2.74951,-1411.43 L 3.23605,-1411.3 L 3.70311,-1411.12
 L 4.1433,-1410.88 L 4.54968,-1410.58 L 4.91586,-1410.24 L 5.23605,-1409.85 L 5.50522,-1409.43 L 5.7191,-1408.97
 L 5.87433,-1408.49 L 5.96844,-1408 L 6,-1407.5 L 6,-1238.5 L 5.96844,-1238 L 5.87433,-1237.51
 L 5.7191,-1237.03 L 5.50522,-1236.57 L 5.23605,-1236.15 L 4.91586,-1235.76 L 4.54968,-1235.42 L 4.1433,-1235.12
 L 3.70311,-1234.88 L 3.23605,-1234.7 L 2.74951,-1234.57 L 2.25116,-1234.51 z
M 3.4369,-1044.09 L 4.04507,-1044.24 L 4.62889,-1044.48 L 5.17912,-1044.78 L 5.68712,-1045.15 L 6.14484,-1045.58
 L 6.54507,-1046.06 L 6.88153,-1046.59 L 7.14888,-1047.16 L 7.34291,-1047.76 L 7.46057,-1048.37 L 7.5,-1049
 L 7.5,-1219 L 7.46057,-1219.63 L 7.34291,-1220.24 L 7.14888,-1220.84 L 6.88153,-1221.41 L 6.54507,-1221.94
 L 6.14484,-1222.42 L 5.68712,-1222.85 L 5.17912,-1223.22 L 4.62889,-1223.52 L 4.04507,-1223.76 L 3.4369,-1223.91
 L 2.81395,-1223.99 L -2.81395,-1223.99 L -3.4369,-1223.91 L -4.04507,-1223.76 L -4.62889,-1223.52 L -5.17912,-1223.22
 L -5.68712,-1222.85 L -6.14484,-1222.42 L -6.54507,-1221.94 L -6.88153,-1221.41 L -7.14888,-1220.84 L -7.34291,-1220.24
 L -7.46057,-1219.63 L -7.5,-1219 L -7.5,-1049 L -7.46057,-1048.37 L -7.34291,-1047.76 L -7.14888,-1047.16
 L -6.88153,-1046.59 L -6.54507,-1046.06 L -6.14484,-1045.58 L -5.68712,-1045.15 L -5.17912,-1044.78 L -4.62889,-1044.48
 L -4.04507,-1044.24 L -3.4369,-1044.09 L -2.81395,-1044.01 L 2.81395,-1044.01 z
M -2.19545,-1046.39 L -2.5833,-1046.44 L -2.96194,-1046.54 L -3.32541,-1046.68 L -3.66798,-1046.87 L -3.98424,-1047.1
 L -4.26921,-1047.37 L -4.5184,-1047.67 L -4.72786,-1048 L -4.89432,-1048.35 L -5.01512,-1048.73 L -5.08836,-1049.11
 L -5.11292,-1049.5 L -5.11292,-1218.5 L -5.08836,-1218.89 L -5.01512,-1219.27 L -4.89432,-1219.65 L -4.72786,-1220
 L -4.5184,-1220.33 L -4.26921,-1220.63 L -3.98424,-1220.9 L -3.66798,-1221.13 L -3.32541,-1221.32 L -2.96194,-1221.46
 L -2.5833,-1221.56 L -2.19545,-1221.61 L 2.19545,-1221.61 L 2.5833,-1221.56 L 2.96194,-1221.46 L 3.32541,-1221.32
 L 3.66798,-1221.13 L 3.98424,-1220.9 L 4.26921,-1220.63 L 4.5184,-1220.33 L 4.72786,-1220 L 4.89432,-1219.65
 L 5.01512,-1219.27 L 5.08836,-1218.89 L 5.11292,-1218.5 L 5.11292,-1049.5 L 5.08836,-1049.11 L 5.01512,-1048.73
 L 4.89432,-1048.35 L 4.72786,-1048 L 4.5184,-1047.67 L 4.26921,-1047.37 L 3.98424,-1047.1 L 3.66798,-1046.87
 L 3.32541,-1046.68 L 2.96194,-1046.54 L 2.5833,-1046.44 L 2.19545,-1046.39 z
M 3.4369,-855.089 L 4.04507,-855.245 L 4.62889,-855.476 L 5.17912,-855.778 L 5.68712,-856.147 L 6.14484,-856.577
 L 6.54507,-857.061 L 6.88153,-857.591 L 7.14888,-858.159 L 7.34291,-858.757 L 7.46057,-859.373 L 7.5,-860
 L 7.5,-1030 L 7.46057,-1030.63 L 7.34291,-1031.24 L 7.14888,-1031.84 L 6.88153,-1032.41 L 6.54507,-1032.94
 L 6.14484,-1033.42 L 5.68712,-1033.85 L 5.17912,-1034.22 L 4.62889,-1034.52 L 4.04507,-1034.76 L 3.4369,-1034.91
 L 2.81395,-1034.99 L -2.81395,-1034.99 L -3.4369,-1034.91 L -4.04507,-1034.76 L -4.62889,-1034.52 L -5.17912,-1034.22
 L -5.68712,-1033.85 L -6.14484,-1033.42 L -6.54507,-1032.94 L -6.88153,-1032.41 L -7.14888,-1031.84 L -7.34291,-1031.24
 L -7.46057,-1030.63 L -7.5,-1030 L -7.5,-860 L -7.46057,-859.373 L -7.34291,-858.757 L -7.14888,-858.159
 L -6.88153,-857.591 L -6.54507,-857.061 L -6.14484,-856.577 L -5.68712,-856.147 L -5.17912,-855.778 L -4.62889,-855.476
 L -4.04507,-855.245 L -3.4369,-855.089 L -2.81395,-855.01 L 2.81395,-855.01 z
M -0.134064,-1025.37 L -0.400101,-1025.4 L -0.659836,-1025.47 L -0.909149,-1025.57 L -1.14413,-1025.7 L -1.36108,-1025.85
 L -1.55655,-1026.04 L -1.72748,-1026.24 L -1.87117,-1026.47 L -1.98534,-1026.71 L -2.06821,-1026.97 L -2.11845,-1027.23
 L -2.13528,-1027.5 L -2.11845,-1027.77 L -2.06821,-1028.03 L -1.98534,-1028.29 L -1.87117,-1028.53 L -1.72748,-1028.76
 L -1.55655,-1028.96 L -1.36108,-1029.15 L -1.14413,-1029.3 L -0.909149,-1029.43 L -0.659836,-1029.53 L -0.400101,-1029.6
 L -0.134064,-1029.63 L 0.134064,-1029.63 L 0.400101,-1029.6 L 0.659836,-1029.53 L 0.909149,-1029.43 L 1.14413,-1029.3
 L 1.36108,-1029.15 L 1.55655,-1028.96 L 1.72748,-1028.76 L 1.87117,-1028.53 L 1.98534,-1028.29 L 2.06821,-1028.03
 L 2.11845,-1027.77 L 2.13528,-1027.5 L 2.11845,-1027.23 L 2.06821,-1026.97 L 1.98534,-1026.71 L 1.87117,-1026.47
 L 1.72748,-1026.24 L 1.55655,-1026.04 L 1.36108,-1025.85 L 1.14413,-1025.7 L 0.909149,-1025.57 L 0.659836,-1025.47
 L 0.400101,-1025.4 L 0.134064,-1025.37 z
M -0.134064,-860.369 L -0.400101,-860.403 L -0.659836,-860.469 L -0.909149,-860.568 L -1.14413,-860.697 L -1.36108,-860.855
 L -1.55655,-861.038 L -1.72748,-861.245 L -1.87117,-861.471 L -1.98534,-861.714 L -2.06821,-861.969 L -2.11845,-862.232
 L -2.13528,-862.5 L -2.11845,-862.768 L -2.06821,-863.031 L -1.98534,-863.286 L -1.87117,-863.529 L -1.72748,-863.755
 L -1.55655,-863.962 L -1.36108,-864.145 L -1.14413,-864.303 L -0.909149,-864.432 L -0.659836,-864.531 L -0.400101,-864.597
 L -0.134064,-864.631 L 0.134064,-864.631 L 0.400101,-864.597 L 0.659836,-864.531 L 0.909149,-864.432 L 1.14413,-864.303
 L 1.36108,-864.145 L 1.55655,-863.962 L 1.72748,-863.755 L 1.87117,-863.529 L 1.98534,-863.286 L 2.06821,-863.031
 L 2.11845,-862.768 L 2.13528,-862.5 L 2.11845,-862.232 L 2.06821,-861.969 L 1.98534,-861.714 L 1.87117,-861.471
 L 1.72748,-861.245 L 1.55655,-861.038 L 1.36108,-860.855 L 1.14413,-860.697 L 0.909149,-860.568 L 0.659836,-860.469
 L 0.400101,-860.403 L 0.134064,-860.369 z
" stroke="black" fill="lightgray" stroke-width="0.5"/>
</svg>
