<?xml version="1.0" standalone="no"?>
<!DOCTYPE svg PUBLIC "-//W3C//DTD SVG 1.1//EN" "http://www.w3.org/Graphics/SVG/1.1/DTD/svg11.dtd">
<svg width="62mm" height="64mm" viewBox="-32 -128 62 64" xmlns="http://www.w3.org/2000/svg" version="1.1">
<title>OpenSCAD Model</title>
<path d="
M -28.5,-113.941 L -28.1871,-113.647 L -27.6791,-113.278 L -27.1289,-112.976 L -26.5451,-112.745 L -25.9369,-112.589
 L -25.3139,-112.51 L 25.3139,-112.51 L 25.9369,-112.589 L 26.5451,-112.745 L 27.1289,-112.976 L 27.6791,-113.278
 L 28.1871,-113.647 L 28.6448,-114.077 L 29.0451,-114.561 L 29.3815,-115.091 L 29.6489,-115.659 L 29.8429,-116.257
 L 29.9606,-116.873 L 30,-117.5 L 30,-122.5 L 29.9606,-123.127 L 29.8429,-123.743 L 29.6489,-124.341
 L 29.3815,-124.909 L 29.0451,-125.439 L 28.6448,-125.923 L 28.1871,-126.353 L 27.6791,-126.722 L 27.1289,-127.024
 L 26.5451,-127.255 L 25.9369,-127.411 L 25.3139,-127.49 L -25.3139,-127.49 L -25.9369,-127.411 L -26.5451,-127.255
 L -27.1289,-127.024 L -27.6791,-126.722 L -28.1871,-126.353 L -28.5,-126.059 L -28.5,-127.49 L -31.5,-127.49
 L -31.5,-112.51 L -28.5,-112.51 z
M -24.7512,-114.008 L -25.2495,-114.071 L -25.7361,-114.196 L -26.2031,-114.381 L -26.6433,-114.623 L -27.0497,-114.918
 L -27.4159,-115.262 L -27.7361,-115.649 L -28.0052,-116.073 L -28.2191,-116.528 L -28.3743,-117.005 L -28.4684,-117.499
 L -28.5,-118 L -28.5,-122 L -28.4684,-122.501 L -28.3743,-122.995 L -28.2191,-123.472 L -28.0052,-123.927
 L -27.7361,-124.351 L -27.4159,-124.738 L -27.0497,-125.082 L -26.6433,-125.377 L -26.2031,-125.619 L -25.7361,-125.804
 L -25.2495,-125.929 L -24.7512,-125.992 L 24.7512,-125.992 L 25.2495,-125.929 L 25.7361,-125.804 L 26.2031,-125.619
 L 26.6433,-125.377 L 27.0497,-125.082 L 27.4159,-124.738 L 27.7361,-124.351 L 28.0052,-123.927 L 28.2191,-123.472
 L 28.3743,-122.995 L 28.4684,-122.501 L 28.5,-122 L 28.5,-118 L 28.4684,-117.499 L 28.3743,-117.005
 L 28.2191,-116.528 L 28.0052,-116.073 L 27.7361,-115.649 L 27.4159,-115.262 L 27.0497,-114.918 L 26.6433,-114.623
 L 26.2031,-114.381 L 25.7361,-114.196 L 25.2495,-114.071 L 24.7512,-114.008 z
M 25.9369,-88.5886 L 26.5451,-88.7447 L 27.1289,-88.9759 L 27.6791,-89.2784 L 28.1871,-89.6474 L 28.6448,-90.0773
 L 29.0451,-90.5611 L 29.3815,-91.0912 L 29.6489,-91.6594 L 29.8429,-92.2566 L 29.9606,-92.8733 L 30,-93.5
 L 30,-98.5 L 29.9606,-99.1267 L 29.8429,-99.7434 L 29.6489,-100.341 L 29.3815,-100.909 L 29.0451,-101.439
 L 28.6448,-101.923 L 28.1871,-102.353 L 27.6791,-102.722 L 27.1289,-103.024 L 26.5451,-103.255 L 25.9369,-103.411
 L 25.3139,-103.49 L -25.3139,-103.49 L -25.9369,-103.411 L -26.5451,-103.255 L -27.1289,-103.024 L -27.6791,-102.722
 L -28.1871,-102.353 L -28.5,-102.059 L -28.5,-103.479 L -31.5,-103.479 L -31.5,-88.5208 L -28.5,-88.5208
 L -28.5,-89.9413 L -28.1871,-89.6474 L -27.6791,-89.2784 L -27.1289,-88.9759 L -26.5451,-88.7447 L -25.9369,-88.5886
 L -25.3139,-88.5099 L 25.3139,-88.5099 z
M -24.6954,-90.8932 L -25.0833,-90.9422 L -25.4619,-91.0394 L -25.8254,-91.1833 L -26.168,-91.3717 L -26.4842,-91.6015
 L -26.7692,-91.8691 L -27.0184,-92.1703 L -27.2279,-92.5004 L -27.3943,-92.8541 L -27.5151,-93.2259 L -27.5884,-93.6098
 L -27.6129,-94 L -27.6129,-98 L -27.5884,-98.3902 L -27.5151,-98.7741 L -27.3943,-99.1459 L -27.2279,-99.4996
 L -27.0184,-99.8297 L -26.7692,-100.131 L -26.4842,-100.399 L -26.168,-100.628 L -25.8254,-100.817 L -25.4619,-100.961
 L -25.0833,-101.058 L -24.6954,-101.107 L 24.6954,-101.107 L 25.0833,-101.058 L 25.4619,-100.961 L 25.8254,-100.817
 L 26.168,-100.628 L 26.4842,-100.399 L 26.7692,-100.131 L 27.0184,-99.8297 L 27.2279,-99.4996 L 27.3943,-99.1459
 L 27.5151,-98.7741 L 27.5884,-98.3902 L 27.6129,-98 L 27.6129,-94 L 27.5884,-93.6098 L 27.5151,-93.2259
 L 27.3943,-92.8541 L 27.2279,-92.5004 L 27.0184,-92.1703 L 26.7692,-91.8691 L 26.4842,-91.6015 L 26.168,-91.3717
 L 25.8254,-91.1833 L 25.4619,-91.0394 L 25.0833,-90.9422 L 24.6954,-90.8932 z
M 25.9369,-64.5886 L 26.5451,-64.7447 L 27.1289,-64.9759 L 27.6791,-65.2784 L 28.1871,-65.6474 L 28.6448,-66.0773
 L 29.0451,-66.5611 L 29.3815,-67.0912 L 29.6489,-67.6594 L 29.8429,-68.2566 L 29.9606,-68.8733 L 30,-69.5
 L 30,-74.5 L 29.9606,-75.1267 L 29.8429,-75.7434 L 29.6489,-76.3406 L 29.3815,-76.9088 L 29.0451,-77.4389
 L 28.6448,-77.9227 L 28.1871,-78.3526 L 27.6791,-78.7216 L 27.1289,-79.0241 L 26.5451,-79.2553 L 25.9369,-79.4114
 L 25.3139,-79.4901 L -25.3139,-79.4901 L -25.9369,-79.4114 L -26.5451,-79.2553 L -27.1289,-79.0241 L -27.6791,-78.7216
 L -28.1871,-78.3526 L -28.5,-78.0587 L -28.5,-78.1526 L -31.5,-78.1526 L -31.5,-65.8474 L -28.5,-65.8474
 L -28.5,-65.9413 L -28.1871,-65.6474 L -27.6791,-65.2784 L -27.1289,-64.9759 L -26.5451,-64.7447 L -25.9369,-64.5886
 L -25.3139,-64.5099 L 25.3139,-64.5099 z
M 22.3659,-69.8689 L 22.0999,-69.9025 L 21.8401,-69.9692 L 21.5908,-70.0679 L 21.3559,-70.1971 L 21.1389,-70.3547
 L 20.9434,-70.5383 L 20.7725,-70.7449 L 20.6288,-70.9713 L 20.5146,-71.214 L 20.4318,-71.469 L 20.3815,-71.7324
 L 20.3647,-72 L 20.3815,-72.2676 L 20.4318,-72.531 L 20.5146,-72.786 L 20.6288,-73.0287 L 20.7725,-73.2551
 L 20.9434,-73.4617 L 21.1389,-73.6453 L 21.3559,-73.8029 L 21.5908,-73.9321 L 21.8401,-74.0308 L 22.0999,-74.0975
 L 22.3659,-74.1311 L 22.6341,-74.1311 L 22.9001,-74.0975 L 23.1598,-74.0308 L 23.4091,-73.9321 L 23.6441,-73.8029
 L 23.8611,-73.6453 L 24.0565,-73.4617 L 24.2275,-73.2551 L 24.3712,-73.0287 L 24.4853,-72.786 L 24.5682,-72.531
 L 24.6185,-72.2676 L 24.6353,-72 L 24.6185,-71.7324 L 24.5682,-71.469 L 24.4853,-71.214 L 24.3712,-70.9713
 L 24.2275,-70.7449 L 24.0565,-70.5383 L 23.8611,-70.3547 L 23.6441,-70.1971 L 23.4091,-70.0679 L 23.1598,-69.9692
 L 22.9001,-69.9025 L 22.6341,-69.8689 z
M -22.6341,-69.8689 L -22.9001,-69.9025 L -23.1598,-69.9692 L -23.4091,-70.0679 L -23.6441,-70.1971 L -23.8611,-70.3547
 L -24.0565,-70.5383 L -24.2275,-70.7449 L -24.3712,-70.9713 L -24.4853,-71.214 L -24.5682,-71.469 L -24.6185,-71.7324
 L -24.6353,-72 L -24.6185,-72.2676 L -24.5682,-72.531 L -24.4853,-72.786 L -24.3712,-73.0287 L -24.2275,-73.2551
 L -24.0565,-73.4617 L -23.8611,-73.6453 L -23.6441,-73.8029 L -23.4091,-73.9321 L -23.1598,-74.0308 L -22.9001,-74.0975
 L -22.6341,-74.1311 L -22.3659,-74.1311 L -22.0999,-74.0975 L -21.8401,-74.0308 L -21.5908,-73.9321 L -21.3559,-73.8029
 L -21.1389,-73.6453 L -20.9434,-73.4617 L -20.7725,-73.2551 L -20.6288,-73.0287 L -20.5146,-72.786 L -20.4318,-72.531
 L -20.3815,-72.2676 L -20.3647,-72 L -20.3815,-71.7324 L -20.4318,-71.469 L -20.5146,-71.214 L -20.6288,-70.9713
 L -20.7725,-70.7449 L -20.9434,-70.5383 L -21.1389,-70.3547 L -21.3559,-70.1971 L -21.5908,-70.0679 L -21.8401,-69.9692
 L -22.0999,-69.9025 L -22.3659,-69.8689 z
" stroke="black" fill="lightgray" stroke-width="0.5"/>
</svg>
