<?xml version="1.0" standalone="no"?>
<!DOCTYPE svg PUBLIC "-//W3C//DTD SVG 1.1//EN" "http://www.w3.org/Graphics/SVG/1.1/DTD/svg11.dtd">
<svg width="90mm" height="100mm" viewBox="-45 -131 90 100" xmlns="http://www.w3.org/2000/svg" version="1.1">
<title>OpenSCAD Model</title>
<path d="
M 40.9369,-85.5886 L 41.5451,-85.7447 L 42.1289,-85.9759 L 42.6791,-86.2784 L 43.1871,-86.6474 L 43.6448,-87.0773
 L 44.0451,-87.5611 L 44.3815,-88.0912 L 44.6489,-88.6594 L 44.8429,-89.2566 L 44.9606,-89.8733 L 45,-90.5
 L 45,-125.5 L 44.9606,-126.127 L 44.8429,-126.743 L 44.6489,-127.341 L 44.3815,-127.909 L 44.0451,-128.439
 L 43.6448,-128.923 L 43.1871,-129.353 L 42.6791,-129.722 L 42.1289,-130.024 L 41.5451,-130.255 L 40.9369,-130.411
 L 40.3139,-130.49 L -40.3139,-130.49 L -40.9369,-130.411 L -41.5451,-130.255 L -42.1289,-130.024 L -42.6791,-129.722
 L -43.1871,-129.353 L -43.6448,-128.923 L -44.0451,-128.439 L -44.3815,-127.909 L -44.6489,-127.341 L -44.8429,-126.743
 L -44.9606,-126.127 L -45,-125.5 L -45,-90.5 L -44.9606,-89.8733 L -44.8429,-89.2566 L -44.6489,-88.6594
 L -44.3815,-88.0912 L -44.0451,-87.5611 L -43.6448,-87.0773 L -43.1871,-86.6474 L -42.6791,-86.2784 L -42.1289,-85.9759
 L -41.5451,-85.7447 L -40.9369,-85.5886 L -40.3139,-85.5099 L 40.3139,-85.5099 z
M -39.993,-86.8882 L -40.4751,-86.9491 L -40.9457,-87.0699 L -41.3975,-87.2488 L -41.8234,-87.4829 L -42.2165,-87.7685
 L -42.5707,-88.1012 L -42.8805,-88.4756 L -43.1408,-88.8859 L -43.3477,-89.3256 L -43.4979,-89.7877 L -43.589,-90.265
 L -43.6195,-90.75 L -43.6195,-125.25 L -43.589,-125.735 L -43.4979,-126.212 L -43.3477,-126.674 L -43.1408,-127.114
 L -42.8805,-127.524 L -42.5707,-127.899 L -42.2165,-128.231 L -41.8234,-128.517 L -41.3975,-128.751 L -40.9457,-128.93
 L -40.4751,-129.051 L -39.993,-129.112 L 39.993,-129.112 L 40.4751,-129.051 L 40.9457,-128.93 L 41.3975,-128.751
 L 41.8234,-128.517 L 42.2165,-128.231 L 42.5707,-127.899 L 42.8805,-127.524 L 43.1408,-127.114 L 43.3477,-126.674
 L 43.4979,-126.212 L 43.589,-125.735 L 43.6195,-125.25 L 43.6195,-90.75 L 43.589,-90.265 L 43.4979,-89.7877
 L 43.3477,-89.3256 L 43.1408,-88.8859 L 42.8805,-88.4756 L 42.5707,-88.1012 L 42.2165,-87.7685 L 41.8234,-87.4829
 L 41.3975,-87.2488 L 40.9457,-87.0699 L 40.4751,-86.9491 L 39.993,-86.8882 z
M 40.9369,-31.5886 L 41.5451,-31.7447 L 42.1289,-31.9759 L 42.6791,-32.2784 L 43.1871,-32.6474 L 43.6448,-33.0773
 L 44.0451,-33.5611 L 44.3815,-34.0912 L 44.6489,-34.6594 L 44.8429,-35.2566 L 44.9606,-35.8733 L 45,-36.5
 L 45,-71.5 L 44.9606,-72.1267 L 44.8429,-72.7434 L 44.6489,-73.3406 L 44.3815,-73.9088 L 44.0451,-74.4389
 L 43.6448,-74.9227 L 43.1871,-75.3526 L 42.6791,-75.7216 L 42.1289,-76.0241 L 41.5451,-76.2553 L 40.9369,-76.4114
 L 40.3139,-76.4901 L -40.3139,-76.4901 L -40.9369,-76.4114 L -41.5451,-76.2553 L -42.1289,-76.0241 L -42.6791,-75.7216
 L -43.1871,-75.3526 L -43.6448,-74.9227 L -44.0451,-74.4389 L -44.3815,-73.9088 L -44.6489,-73.3406 L -44.8429,-72.7434
 L -44.9606,-72.1267 L -45,-71.5 L -45,-36.5 L -44.9606,-35.8733 L -44.8429,-35.2566 L -44.6489,-34.6594
 L -44.3815,-34.0912 L -44.0451,-33.5611 L -43.6448,-33.0773 L -43.1871,-32.6474 L -42.6791,-32.2784 L -42.1289,-31.9759
 L -41.5451,-31.7447 L -40.9369,-31.5886 L -40.3139,-31.5099 L 40.3139,-31.5099 z
M 37.387,-67.2036 L 37.1627,-67.2319 L 36.9438,-67.2881 L 36.7336,-67.3713 L 36.5355,-67.4802 L 36.3526,-67.6131
 L 36.1879,-67.7678 L 36.0438,-67.942 L 35.9226,-68.1328 L 35.8264,-68.3374 L 35.7565,-68.5524 L 35.7142,-68.7744
 L 35.7,-69 L 35.7142,-69.2256 L 35.7565,-69.4476 L 35.8264,-69.6626 L 35.9226,-69.8671 L 36.0438,-70.058
 L 36.1879,-70.2322 L 36.3526,-70.3869 L 36.5355,-70.5198 L 36.7336,-70.6287 L 36.9438,-70.7119 L 37.1627,-70.7681
 L 37.387,-70.7964 L 37.613,-70.7964 L 37.8373,-70.7681 L 38.0562,-70.7119 L 38.2664,-70.6287 L 38.4645,-70.5198
 L 38.6474,-70.3869 L 38.8121,-70.2322 L 38.9562,-70.058 L 39.0773,-69.8671 L 39.1736,-69.6626 L 39.2434,-69.4476
 L 39.2858,-69.2256 L 39.3,-69 L 39.2858,-68.7744 L 39.2434,-68.5524 L 39.1736,-68.3374 L 39.0773,-68.1328
 L 38.9562,-67.942 L 38.8121,-67.7678 L 38.6474,-67.6131 L 38.4645,-67.4802 L 38.2664,-67.3713 L 38.0562,-67.2881
 L 37.8373,-67.2319 L 37.613,-67.2036 z
M -37.613,-67.2036 L -37.8373,-67.2319 L -38.0562,-67.2881 L -38.2664,-67.3713 L -38.4645,-67.4802 L -38.6474,-67.6131
 L -38.8121,-67.7678 L -38.9562,-67.942 L -39.0773,-68.1328 L -39.1736,-68.3374 L -39.2434,-68.5524 L -39.2858,-68.7744
 L -39.3,-69 L -39.2858,-69.2256 L -39.2434,-69.4476 L -39.1736,-69.6626 L -39.0773,-69.8671 L -38.9562,-70.058
 L -38.8121,-70.2322 L -38.6474,-70.3869 L -38.4645,-70.5198 L -38.2664,-70.6287 L -38.0562,-70.7119 L -37.8373,-70.7681
 L -37.613,-70.7964 L -37.387,-70.7964 L -37.1627,-70.7681 L -36.9438,-70.7119 L -36.7336,-70.6287 L -36.5355,-70.5198
 L -36.3526,-70.3869 L -36.1879,-70.2322 L -36.0438,-70.058 L -35.9226,-69.8671 L -35.8264,-69.6626 L -35.7565,-69.4476
 L -35.7142,-69.2256 L -35.7,-69 L -35.7142,-68.7744 L -35.7565,-68.5524 L -35.8264,-68.3374 L -35.9226,-68.1328
 L -36.0438,-67.942 L -36.1879,-67.7678 L -36.3526,-67.6131 L -36.5355,-67.4802 L -36.7336,-67.3713 L -36.9438,-67.2881
 L -37.1627,-67.2319 L -37.387,-67.2036 z
M 37.387,-37.2036 L 37.1627,-37.2319 L 36.9438,-37.2881 L 36.7336,-37.3713 L 36.5355,-37.4802 L 36.3526,-37.6131
 L 36.1879,-37.7678 L 36.0438,-37.942 L 35.9226,-38.1329 L 35.8264,-38.3374 L 35.7565,-38.5524 L 35.7142,-38.7744
 L 35.7,-39 L 35.7142,-39.2256 L 35.7565,-39.4476 L 35.8264,-39.6626 L 35.9226,-39.8672 L 36.0438,-40.058
 L 36.1879,-40.2322 L 36.3526,-40.3869 L 36.5355,-40.5198 L 36.7336,-40.6287 L 36.9438,-40.7119 L 37.1627,-40.7681
 L 37.387,-40.7964 L 37.613,-40.7964 L 37.8373,-40.7681 L 38.0562,-40.7119 L 38.2664,-40.6287 L 38.4645,-40.5198
 L 38.6474,-40.3869 L 38.8121,-40.2322 L 38.9562,-40.058 L 39.0773,-39.8672 L 39.1736,-39.6626 L 39.2434,-39.4476
 L 39.2858,-39.2256 L 39.3,-39 L 39.2858,-38.7744 L 39.2434,-38.5524 L 39.1736,-38.3374 L 39.0773,-38.1329
 L 38.9562,-37.942 L 38.8121,-37.7678 L 38.6474,-37.6131 L 38.4645,-37.4802 L 38.2664,-37.3713 L 38.0562,-37.2881
 L 37.8373,-37.2319 L 37.613,-37.2036 z
M -37.613,-37.2036 L -37.8373,-37.2319 L -38.0562,-37.2881 L -38.2664,-37.3713 L -38.4645,-37.4802 L -38.6474,-37.6131
 L -38.8121,-37.7678 L -38.9562,-37.942 L -39.0773,-38.1329 L -39.1736,-38.3374 L -39.2434,-38.5524 L -39.2858,-38.7744
 L -39.3,-39 L -39.2858,-39.2256 L -39.2434,-39.4476 L -39.1736,-39.6626 L -39.0773,-39.8672 L -38.9562,-40.058
 L -38.8121,-40.2322 L -38.6474,-40.3869 L -38.4645,-40.5198 L -38.2664,-40.6287 L -38.0562,-40.7119 L -37.8373,-40.7681
 L -37.613,-40.7964 L -37.387,-40.7964 L -37.1627,-40.7681 L -36.9438,-40.7119 L -36.7336,-40.6287 L -36.5355,-40.5198
 L -36.3526,-40.3869 L -36.1879,-40.2322 L -36.0438,-40.058 L -35.9226,-39.8672 L -35.8264,-39.6626 L -35.7565,-39.4476
 L -35.7142,-39.2256 L -35.7,-39 L -35.7142,-38.7744 L -35.7565,-38.5524 L -35.8264,-38.3374 L -35.9226,-38.1329
 L -36.0438,-37.942 L -36.1879,-37.7678 L -36.3526,-37.6131 L -36.5355,-37.4802 L -36.7336,-37.3713 L -36.9438,-37.2881
 L -37.1627,-37.2319 L -37.387,-37.2036 z
" stroke="black" fill="lightgray" stroke-width="0.5"/>
</svg>
