<?xml version="1.0" standalone="no"?>
<!DOCTYPE svg PUBLIC "-//W3C//DTD SVG 1.1//EN" "http://www.w3.org/Graphics/SVG/1.1/DTD/svg11.dtd">
<svg width="167mm" height="64mm" viewBox="-84 -128 167 64" xmlns="http://www.w3.org/2000/svg" version="1.1">
<title>OpenSCAD Model</title>
<path d="
M -81,-113.941 L -80.6871,-113.647 L -80.1791,-113.278 L -79.6289,-112.976 L -79.0451,-112.745 L -78.4369,-112.589
 L -77.8139,-112.51 L 77.8139,-112.51 L 78.4369,-112.589 L 79.0451,-112.745 L 79.6289,-112.976 L 80.1791,-113.278
 L 80.6871,-113.647 L 81.1448,-114.077 L 81.5451,-114.561 L 81.8815,-115.091 L 82.1489,-115.659 L 82.3429,-116.257
 L 82.4606,-116.873 L 82.5,-117.5 L 82.5,-122.5 L 82.4606,-123.127 L 82.3429,-123.743 L 82.1489,-124.341
 L 81.8815,-124.909 L 81.5451,-125.439 L 81.1448,-125.923 L 80.6871,-126.353 L 80.1791,-126.722 L 79.6289,-127.024
 L 79.0451,-127.255 L 78.4369,-127.411 L 77.8139,-127.49 L -77.8139,-127.49 L -78.4369,-127.411 L -79.0451,-127.255
 L -79.6289,-127.024 L -80.1791,-126.722 L -80.6871,-126.353 L -81,-126.059 L -81,-127.49 L -84,-127.49
 L -84,-112.51 L -81,-112.51 z
M -77.2512,-114.008 L -77.7495,-114.071 L -78.2361,-114.196 L -78.7031,-114.381 L -79.1433,-114.623 L -79.5497,-114.918
 L -79.9159,-115.262 L -80.2361,-115.649 L -80.5052,-116.073 L -80.7191,-116.528 L -80.8743,-117.005 L -80.9685,-117.499
 L -81,-118 L -81,-122 L -80.9685,-122.501 L -80.8743,-122.995 L -80.7191,-123.472 L -80.5052,-123.927
 L -80.2361,-124.351 L -79.9159,-124.738 L -79.5497,-125.082 L -79.1433,-125.377 L -78.7031,-125.619 L -78.2361,-125.804
 L -77.7495,-125.929 L -77.2512,-125.992 L 77.2512,-125.992 L 77.7495,-125.929 L 78.2361,-125.804 L 78.7031,-125.619
 L 79.1433,-125.377 L 79.5497,-125.082 L 79.9159,-124.738 L 80.2361,-124.351 L 80.5052,-123.927 L 80.7191,-123.472
 L 80.8743,-122.995 L 80.9685,-122.501 L 81,-122 L 81,-118 L 80.9685,-117.499 L 80.8743,-117.005
 L 80.7191,-116.528 L 80.5052,-116.073 L 80.2361,-115.649 L 79.9159,-115.262 L 79.5497,-114.918 L 79.1433,-114.623
 L 78.7031,-114.381 L 78.2361,-114.196 L 77.7495,-114.071 L 77.2512,-114.008 z
M 78.4369,-88.5886 L 79.0451,-88.7447 L 79.6289,-88.9759 L 80.1791,-89.2784 L 80.6871,-89.6474 L 81.1448,-90.0773
 L 81.5451,-90.5611 L 81.8815,-91.0912 L 82.1489,-91.6594 L 82.3429,-92.2566 L 82.4606,-92.8733 L 82.5,-93.5
 L 82.5,-98.5 L 82.4606,-99.1267 L 82.3429,-99.7434 L 82.1489,-100.341 L 81.8815,-100.909 L 81.5451,-101.439
 L 81.1448,-101.923 L 80.6871,-102.353 L 80.1791,-102.722 L 79.6289,-103.024 L 79.0451,-103.255 L 78.4369,-103.411
 L 77.8139,-103.49 L -77.8139,-103.49 L -78.4369,-103.411 L -79.0451,-103.255 L -79.6289,-103.024 L -80.1791,-102.722
 L -80.6871,-102.353 L -81,-102.059 L -81,-103.479 L -84,-103.479 L -84,-88.5208 L -81,-88.5208
 L -81,-89.9413 L -80.6871,-89.6474 L -80.1791,-89.2784 L -79.6289,-88.9759 L -79.0451,-88.7447 L -78.4369,-88.5886
 L -77.8139,-88.5099 L 77.8139,-88.5099 z
M -77.1955,-90.8932 L -77.5833,-90.9422 L -77.9619,-91.0394 L -78.3254,-91.1833 L -78.668,-91.3717 L -78.9843,-91.6015
 L -79.2692,-91.8691 L -79.5184,-92.1703 L -79.7279,-92.5004 L -79.8943,-92.8541 L -80.0151,-93.2259 L -80.0884,-93.6098
 L -80.1129,-94 L -80.1129,-98 L -80.0884,-98.3902 L -80.0151,-98.7741 L -79.8943,-99.1459 L -79.7279,-99.4996
 L -79.5184,-99.8297 L -79.2692,-100.131 L -78.9843,-100.399 L -78.668,-100.628 L -78.3254,-100.817 L -77.9619,-100.961
 L -77.5833,-101.058 L -77.1955,-101.107 L 77.1955,-101.107 L 77.5833,-101.058 L 77.9619,-100.961 L 78.3254,-100.817
 L 78.668,-100.628 L 78.9843,-100.399 L 79.2692,-100.131 L 79.5184,-99.8297 L 79.7279,-99.4996 L 79.8943,-99.1459
 L 80.0151,-98.7741 L 80.0884,-98.3902 L 80.1129,-98 L 80.1129,-94 L 80.0884,-93.6098 L 80.0151,-93.2259
 L 79.8943,-92.8541 L 79.7279,-92.5004 L 79.5184,-92.1703 L 79.2692,-91.8691 L 78.9843,-91.6015 L 78.668,-91.3717
 L 78.3254,-91.1833 L 77.9619,-91.0394 L 77.5833,-90.9422 L 77.1955,-90.8932 z
M 78.4369,-64.5886 L 79.0451,-64.7447 L 79.6289,-64.9759 L 80.1791,-65.2784 L 80.6871,-65.6474 L 81.1448,-66.0773
 L 81.5451,-66.5611 L 81.8815,-67.0912 L 82.1489,-67.6594 L 82.3429,-68.2566 L 82.4606,-68.8733 L 82.5,-69.5
 L 82.5,-74.5 L 82.4606,-75.1267 L 82.3429,-75.7434 L 82.1489,-76.3406 L 81.8815,-76.9088 L 81.5451,-77.4389
 L 81.1448,-77.9227 L 80.6871,-78.3526 L 80.1791,-78.7216 L 79.6289,-79.0241 L 79.0451,-79.2553 L 78.4369,-79.4114
 L 77.8139,-79.4901 L -77.8139,-79.4901 L -78.4369,-79.4114 L -79.0451,-79.2553 L -79.6289,-79.0241 L -80.1791,-78.7216
 L -80.6871,-78.3526 L -81,-78.0587 L -81,-78.1526 L -84,-78.1526 L -84,-65.8474 L -81,-65.8474
 L -81,-65.9413 L -80.6871,-65.6474 L -80.1791,-65.2784 L -79.6289,-64.9759 L -79.0451,-64.7447 L -78.4369,-64.5886
 L -77.8139,-64.5099 L 77.8139,-64.5099 z
M 74.8659,-69.8689 L 74.5999,-69.9025 L 74.3401,-69.9692 L 74.0908,-70.0679 L 73.8559,-70.1971 L 73.6389,-70.3547
 L 73.4434,-70.5383 L 73.2725,-70.7449 L 73.1288,-70.9713 L 73.0146,-71.214 L 72.9318,-71.469 L 72.8815,-71.7324
 L 72.8647,-72 L 72.8815,-72.2676 L 72.9318,-72.531 L 73.0146,-72.786 L 73.1288,-73.0287 L 73.2725,-73.2551
 L 73.4434,-73.4617 L 73.6389,-73.6453 L 73.8559,-73.8029 L 74.0908,-73.9321 L 74.3401,-74.0308 L 74.5999,-74.0975
 L 74.8659,-74.1311 L 75.1341,-74.1311 L 75.4001,-74.0975 L 75.6598,-74.0308 L 75.9092,-73.9321 L 76.1441,-73.8029
 L 76.3611,-73.6453 L 76.5566,-73.4617 L 76.7275,-73.2551 L 76.8712,-73.0287 L 76.9853,-72.786 L 77.0682,-72.531
 L 77.1185,-72.2676 L 77.1353,-72 L 77.1185,-71.7324 L 77.0682,-71.469 L 76.9853,-71.214 L 76.8712,-70.9713
 L 76.7275,-70.7449 L 76.5566,-70.5383 L 76.3611,-70.3547 L 76.1441,-70.1971 L 75.9092,-70.0679 L 75.6598,-69.9692
 L 75.4001,-69.9025 L 75.1341,-69.8689 z
M -75.1341,-69.8689 L -75.4001,-69.9025 L -75.6598,-69.9692 L -75.9092,-70.0679 L -76.1441,-70.1971 L -76.3611,-70.3547
 L -76.5566,-70.5383 L -76.7275,-70.7449 L -76.8712,-70.9713 L -76.9853,-71.214 L -77.0682,-71.469 L -77.1185,-71.7324
 L -77.1353,-72 L -77.1185,-72.2676 L -77.0682,-72.531 L -76.9853,-72.786 L -76.8712,-73.0287 L -76.7275,-73.2551
 L -76.5566,-73.4617 L -76.3611,-73.6453 L -76.1441,-73.8029 L -75.9092,-73.9321 L -75.6598,-74.0308 L -75.4001,-74.0975
 L -75.1341,-74.1311 L -74.8659,-74.1311 L -74.5999,-74.0975 L -74.3401,-74.0308 L -74.0908,-73.9321 L -73.8559,-73.8029
 L -73.6389,-73.6453 L -73.4434,-73.4617 L -73.2725,-73.2551 L -73.1288,-73.0287 L -73.0146,-72.786 L -72.9318,-72.531
 L -72.8815,-72.2676 L -72.8647,-72 L -72.8815,-71.7324 L -72.9318,-71.469 L -73.0146,-71.214 L -73.1288,-70.9713
 L -73.2725,-70.7449 L -73.4434,-70.5383 L -73.6389,-70.3547 L -73.8559,-70.1971 L -74.0908,-70.0679 L -74.3401,-69.9692
 L -74.5999,-69.9025 L -74.8659,-69.8689 z
" stroke="black" fill="lightgray" stroke-width="0.5"/>
</svg>
