  0
SECTION
  2
BLOCKS
  0
ENDSEC
  0
SECTION
  2
ENTITIES
  0
LINE
  8
0
 10
-36
 20
89.9413
 11
-35.6871
 21
89.6474
  0
LINE
  8
0
 10
-35.6871
 20
89.6474
 11
-35.1791
 21
89.2784
  0
LINE
  8
0
 10
-35.1791
 20
89.2784
 11
-34.6289
 21
88.9759
  0
LINE
  8
0
 10
-34.6289
 20
88.9759
 11
-34.0451
 21
88.7447
  0
LINE
  8
0
 10
-34.0451
 20
88.7447
 11
-33.4369
 21
88.5886
  0
LINE
  8
0
 10
-33.4369
 20
88.5886
 11
-32.8139
 21
88.5099
  0
LINE
  8
0
 10
-32.8139
 20
88.5099
 11
32.8139
 21
88.5099
  0
LINE
  8
0
 10
32.8139
 20
88.5099
 11
33.4369
 21
88.5886
  0
LINE
  8
0
 10
33.4369
 20
88.5886
 11
34.0451
 21
88.7447
  0
LINE
  8
0
 10
34.0451
 20
88.7447
 11
34.6289
 21
88.9759
  0
LINE
  8
0
 10
34.6289
 20
88.9759
 11
35.1791
 21
89.2784
  0
LINE
  8
0
 10
35.1791
 20
89.2784
 11
35.6871
 21
89.6474
  0
LINE
  8
0
 10
35.6871
 20
89.6474
 11
36.1448
 21
90.0773
  0
LINE
  8
0
 10
36.1448
 20
90.0773
 11
36.5451
 21
90.5611
  0
LINE
  8
0
 10
36.5451
 20
90.5611
 11
36.8815
 21
91.0912
  0
LINE
  8
0
 10
36.8815
 20
91.0912
 11
37.1489
 21
91.6594
  0
LINE
  8
0
 10
37.1489
 20
91.6594
 11
37.3429
 21
92.2566
  0
LINE
  8
0
 10
37.3429
 20
92.2566
 11
37.4606
 21
92.8733
  0
LINE
  8
0
 10
37.4606
 20
92.8733
 11
37.5
 21
93.5
  0
LINE
  8
0
 10
37.5
 20
93.5
 11
37.5
 21
98.5
  0
LINE
  8
0
 10
37.5
 20
98.5
 11
37.4606
 21
99.1267
  0
LINE
  8
0
 10
37.4606
 20
99.1267
 11
37.3429
 21
99.7434
  0
LINE
  8
0
 10
37.3429
 20
99.7434
 11
37.1489
 21
100.341
  0
LINE
  8
0
 10
37.1489
 20
100.341
 11
36.8815
 21
100.909
  0
LINE
  8
0
 10
36.8815
 20
100.909
 11
36.5451
 21
101.439
  0
LINE
  8
0
 10
36.5451
 20
101.439
 11
36.1448
 21
101.923
  0
LINE
  8
0
 10
36.1448
 20
101.923
 11
35.6871
 21
102.353
  0
LINE
  8
0
 10
35.6871
 20
102.353
 11
35.1791
 21
102.722
  0
LINE
  8
0
 10
35.1791
 20
102.722
 11
34.6289
 21
103.024
  0
LINE
  8
0
 10
34.6289
 20
103.024
 11
34.0451
 21
103.255
  0
LINE
  8
0
 10
34.0451
 20
103.255
 11
33.4369
 21
103.411
  0
LINE
  8
0
 10
33.4369
 20
103.411
 11
32.8139
 21
103.49
  0
LINE
  8
0
 10
32.8139
 20
103.49
 11
-32.8139
 21
103.49
  0
LINE
  8
0
 10
-32.8139
 20
103.49
 11
-33.4369
 21
103.411
  0
LINE
  8
0
 10
-33.4369
 20
103.411
 11
-34.0451
 21
103.255
  0
LINE
  8
0
 10
-34.0451
 20
103.255
 11
-34.6289
 21
103.024
  0
LINE
  8
0
 10
-34.6289
 20
103.024
 11
-35.1791
 21
102.722
  0
LINE
  8
0
 10
-35.1791
 20
102.722
 11
-35.6871
 21
102.353
  0
LINE
  8
0
 10
-35.6871
 20
102.353
 11
-36
 21
102.059
  0
LINE
  8
0
 10
-36
 20
102.059
 11
-36
 21
103.49
  0
LINE
  8
0
 10
-36
 20
103.49
 11
-39
 21
103.49
  0
LINE
  8
0
 10
-39
 20
103.49
 11
-39
 21
88.5099
  0
LINE
  8
0
 10
-39
 20
88.5099
 11
-36
 21
88.5099
  0
LINE
  8
0
 10
-36
 20
88.5099
 11
-36
 21
89.9413
  0
LINE
  8
0
 10
-32.2432
 20
90.135
 11
-32.7256
 21
90.196
  0
LINE
  8
0
 10
-32.7256
 20
90.196
 11
-33.1967
 21
90.3169
  0
LINE
  8
0
 10
-33.1967
 20
90.3169
 11
-33.6489
 21
90.4959
  0
LINE
  8
0
 10
-33.6489
 20
90.4959
 11
-34.0751
 21
90.7302
  0
LINE
  8
0
 10
-34.0751
 20
90.7302
 11
-34.4685
 21
91.0161
  0
LINE
  8
0
 10
-34.4685
 20
91.0161
 11
-34.823
 21
91.349
  0
LINE
  8
0
 10
-34.823
 20
91.349
 11
-35.133
 21
91.7237
  0
LINE
  8
0
 10
-35.133
 20
91.7237
 11
-35.3936
 21
92.1344
  0
LINE
  8
0
 10
-35.3936
 20
92.1344
 11
-35.6007
 21
92.5744
  0
LINE
  8
0
 10
-35.6007
 20
92.5744
 11
-35.751
 21
93.0369
  0
LINE
  8
0
 10
-35.751
 20
93.0369
 11
-35.8421
 21
93.5146
  0
LINE
  8
0
 10
-35.8421
 20
93.5146
 11
-35.8726
 21
94
  0
LINE
  8
0
 10
-35.8726
 20
94
 11
-35.8726
 21
98
  0
LINE
  8
0
 10
-35.8726
 20
98
 11
-35.8421
 21
98.4854
  0
LINE
  8
0
 10
-35.8421
 20
98.4854
 11
-35.751
 21
98.9631
  0
LINE
  8
0
 10
-35.751
 20
98.9631
 11
-35.6007
 21
99.4256
  0
LINE
  8
0
 10
-35.6007
 20
99.4256
 11
-35.3936
 21
99.8656
  0
LINE
  8
0
 10
-35.3936
 20
99.8656
 11
-35.133
 21
100.276
  0
LINE
  8
0
 10
-35.133
 20
100.276
 11
-34.823
 21
100.651
  0
LINE
  8
0
 10
-34.823
 20
100.651
 11
-34.4685
 21
100.984
  0
LINE
  8
0
 10
-34.4685
 20
100.984
 11
-34.0751
 21
101.27
  0
LINE
  8
0
 10
-34.0751
 20
101.27
 11
-33.6489
 21
101.504
  0
LINE
  8
0
 10
-33.6489
 20
101.504
 11
-33.1967
 21
101.683
  0
LINE
  8
0
 10
-33.1967
 20
101.683
 11
-32.7256
 21
101.804
  0
LINE
  8
0
 10
-32.7256
 20
101.804
 11
-32.2432
 21
101.865
  0
LINE
  8
0
 10
-32.2432
 20
101.865
 11
32.2432
 21
101.865
  0
LINE
  8
0
 10
32.2432
 20
101.865
 11
32.7256
 21
101.804
  0
LINE
  8
0
 10
32.7256
 20
101.804
 11
33.1967
 21
101.683
  0
LINE
  8
0
 10
33.1967
 20
101.683
 11
33.6489
 21
101.504
  0
LINE
  8
0
 10
33.6489
 20
101.504
 11
34.0751
 21
101.27
  0
LINE
  8
0
 10
34.0751
 20
101.27
 11
34.4685
 21
100.984
  0
LINE
  8
0
 10
34.4685
 20
100.984
 11
34.823
 21
100.651
  0
LINE
  8
0
 10
34.823
 20
100.651
 11
35.133
 21
100.276
  0
LINE
  8
0
 10
35.133
 20
100.276
 11
35.3936
 21
99.8656
  0
LINE
  8
0
 10
35.3936
 20
99.8656
 11
35.6007
 21
99.4256
  0
LINE
  8
0
 10
35.6007
 20
99.4256
 11
35.751
 21
98.9631
  0
LINE
  8
0
 10
35.751
 20
98.9631
 11
35.8421
 21
98.4854
  0
LINE
  8
0
 10
35.8421
 20
98.4854
 11
35.8726
 21
98
  0
LINE
  8
0
 10
35.8726
 20
98
 11
35.8726
 21
94
  0
LINE
  8
0
 10
35.8726
 20
94
 11
35.8421
 21
93.5146
  0
LINE
  8
0
 10
35.8421
 20
93.5146
 11
35.751
 21
93.0369
  0
LINE
  8
0
 10
35.751
 20
93.0369
 11
35.6007
 21
92.5744
  0
LINE
  8
0
 10
35.6007
 20
92.5744
 11
35.3936
 21
92.1344
  0
LINE
  8
0
 10
35.3936
 20
92.1344
 11
35.133
 21
91.7237
  0
LINE
  8
0
 10
35.133
 20
91.7237
 11
34.823
 21
91.349
  0
LINE
  8
0
 10
34.823
 20
91.349
 11
34.4685
 21
91.0161
  0
LINE
  8
0
 10
34.4685
 20
91.0161
 11
34.0751
 21
90.7302
  0
LINE
  8
0
 10
34.0751
 20
90.7302
 11
33.6489
 21
90.4959
  0
LINE
  8
0
 10
33.6489
 20
90.4959
 11
33.1967
 21
90.3169
  0
LINE
  8
0
 10
33.1967
 20
90.3169
 11
32.7256
 21
90.196
  0
LINE
  8
0
 10
32.7256
 20
90.196
 11
32.2432
 21
90.135
  0
LINE
  8
0
 10
32.2432
 20
90.135
 11
-32.2432
 21
90.135
  0
LINE
  8
0
 10
33.4369
 20
64.5886
 11
34.0451
 21
64.7447
  0
LINE
  8
0
 10
34.0451
 20
64.7447
 11
34.6289
 21
64.9759
  0
LINE
  8
0
 10
34.6289
 20
64.9759
 11
35.1791
 21
65.2784
  0
LINE
  8
0
 10
35.1791
 20
65.2784
 11
35.6871
 21
65.6474
  0
LINE
  8
0
 10
35.6871
 20
65.6474
 11
36.1448
 21
66.0773
  0
LINE
  8
0
 10
36.1448
 20
66.0773
 11
36.5451
 21
66.5611
  0
LINE
  8
0
 10
36.5451
 20
66.5611
 11
36.8815
 21
67.0912
  0
LINE
  8
0
 10
36.8815
 20
67.0912
 11
37.1489
 21
67.6594
  0
LINE
  8
0
 10
37.1489
 20
67.6594
 11
37.3429
 21
68.2566
  0
LINE
  8
0
 10
37.3429
 20
68.2566
 11
37.4606
 21
68.8733
  0
LINE
  8
0
 10
37.4606
 20
68.8733
 11
37.5
 21
69.5
  0
LINE
  8
0
 10
37.5
 20
69.5
 11
37.5
 21
74.5
  0
LINE
  8
0
 10
37.5
 20
74.5
 11
37.4606
 21
75.1267
  0
LINE
  8
0
 10
37.4606
 20
75.1267
 11
37.3429
 21
75.7434
  0
LINE
  8
0
 10
37.3429
 20
75.7434
 11
37.1489
 21
76.3406
  0
LINE
  8
0
 10
37.1489
 20
76.3406
 11
36.8815
 21
76.9088
  0
LINE
  8
0
 10
36.8815
 20
76.9088
 11
36.5451
 21
77.4389
  0
LINE
  8
0
 10
36.5451
 20
77.4389
 11
36.1448
 21
77.9227
  0
LINE
  8
0
 10
36.1448
 20
77.9227
 11
35.6871
 21
78.3526
  0
LINE
  8
0
 10
35.6871
 20
78.3526
 11
35.1791
 21
78.7216
  0
LINE
  8
0
 10
35.1791
 20
78.7216
 11
34.6289
 21
79.0241
  0
LINE
  8
0
 10
34.6289
 20
79.0241
 11
34.0451
 21
79.2553
  0
LINE
  8
0
 10
34.0451
 20
79.2553
 11
33.4369
 21
79.4114
  0
LINE
  8
0
 10
33.4369
 20
79.4114
 11
32.8139
 21
79.4901
  0
LINE
  8
0
 10
32.8139
 20
79.4901
 11
-32.8139
 21
79.4901
  0
LINE
  8
0
 10
-32.8139
 20
79.4901
 11
-33.4369
 21
79.4114
  0
LINE
  8
0
 10
-33.4369
 20
79.4114
 11
-34.0451
 21
79.2553
  0
LINE
  8
0
 10
-34.0451
 20
79.2553
 11
-34.6289
 21
79.0241
  0
LINE
  8
0
 10
-34.6289
 20
79.0241
 11
-35.1791
 21
78.7216
  0
LINE
  8
0
 10
-35.1791
 20
78.7216
 11
-35.6871
 21
78.3526
  0
LINE
  8
0
 10
-35.6871
 20
78.3526
 11
-36
 21
78.0587
  0
LINE
  8
0
 10
-36
 20
78.0587
 11
-36
 21
79.1148
  0
LINE
  8
0
 10
-36
 20
79.1148
 11
-39
 21
79.1148
  0
LINE
  8
0
 10
-39
 20
79.1148
 11
-39
 21
64.8852
  0
LINE
  8
0
 10
-39
 20
64.8852
 11
-36
 21
64.8852
  0
LINE
  8
0
 10
-36
 20
64.8852
 11
-36
 21
65.9413
  0
LINE
  8
0
 10
-36
 20
65.9413
 11
-35.6871
 21
65.6474
  0
LINE
  8
0
 10
-35.6871
 20
65.6474
 11
-35.1791
 21
65.2784
  0
LINE
  8
0
 10
-35.1791
 20
65.2784
 11
-34.6289
 21
64.9759
  0
LINE
  8
0
 10
-34.6289
 20
64.9759
 11
-34.0451
 21
64.7447
  0
LINE
  8
0
 10
-34.0451
 20
64.7447
 11
-33.4369
 21
64.5886
  0
LINE
  8
0
 10
-33.4369
 20
64.5886
 11
-32.8139
 21
64.5099
  0
LINE
  8
0
 10
-32.8139
 20
64.5099
 11
32.8139
 21
64.5099
  0
LINE
  8
0
 10
32.8139
 20
64.5099
 11
33.4369
 21
64.5886
  0
LINE
  8
0
 10
33.4369
 20
40.5886
 11
34.0451
 21
40.7447
  0
LINE
  8
0
 10
34.0451
 20
40.7447
 11
34.6289
 21
40.9759
  0
LINE
  8
0
 10
34.6289
 20
40.9759
 11
35.1791
 21
41.2784
  0
LINE
  8
0
 10
35.1791
 20
41.2784
 11
35.6871
 21
41.6474
  0
LINE
  8
0
 10
35.6871
 20
41.6474
 11
36.1448
 21
42.0773
  0
LINE
  8
0
 10
36.1448
 20
42.0773
 11
36.5451
 21
42.5611
  0
LINE
  8
0
 10
36.5451
 20
42.5611
 11
36.8815
 21
43.0912
  0
LINE
  8
0
 10
36.8815
 20
43.0912
 11
37.1489
 21
43.6594
  0
LINE
  8
0
 10
37.1489
 20
43.6594
 11
37.3429
 21
44.2566
  0
LINE
  8
0
 10
37.3429
 20
44.2566
 11
37.4606
 21
44.8733
  0
LINE
  8
0
 10
37.4606
 20
44.8733
 11
37.5
 21
45.5
  0
LINE
  8
0
 10
37.5
 20
45.5
 11
37.5
 21
50.5
  0
LINE
  8
0
 10
37.5
 20
50.5
 11
37.4606
 21
51.1267
  0
LINE
  8
0
 10
37.4606
 20
51.1267
 11
37.3429
 21
51.7434
  0
LINE
  8
0
 10
37.3429
 20
51.7434
 11
37.1489
 21
52.3406
  0
LINE
  8
0
 10
37.1489
 20
52.3406
 11
36.8815
 21
52.9088
  0
LINE
  8
0
 10
36.8815
 20
52.9088
 11
36.5451
 21
53.4389
  0
LINE
  8
0
 10
36.5451
 20
53.4389
 11
36.1448
 21
53.9227
  0
LINE
  8
0
 10
36.1448
 20
53.9227
 11
35.6871
 21
54.3526
  0
LINE
  8
0
 10
35.6871
 20
54.3526
 11
35.1791
 21
54.7216
  0
LINE
  8
0
 10
35.1791
 20
54.7216
 11
34.6289
 21
55.0241
  0
LINE
  8
0
 10
34.6289
 20
55.0241
 11
34.0451
 21
55.2553
  0
LINE
  8
0
 10
34.0451
 20
55.2553
 11
33.4369
 21
55.4114
  0
LINE
  8
0
 10
33.4369
 20
55.4114
 11
32.8139
 21
55.4901
  0
LINE
  8
0
 10
32.8139
 20
55.4901
 11
-32.8139
 21
55.4901
  0
LINE
  8
0
 10
-32.8139
 20
55.4901
 11
-33.4369
 21
55.4114
  0
LINE
  8
0
 10
-33.4369
 20
55.4114
 11
-34.0451
 21
55.2553
  0
LINE
  8
0
 10
-34.0451
 20
55.2553
 11
-34.6289
 21
55.0241
  0
LINE
  8
0
 10
-34.6289
 20
55.0241
 11
-35.1791
 21
54.7216
  0
LINE
  8
0
 10
-35.1791
 20
54.7216
 11
-35.6871
 21
54.3526
  0
LINE
  8
0
 10
-35.6871
 20
54.3526
 11
-36.1448
 21
53.9227
  0
LINE
  8
0
 10
-36.1448
 20
53.9227
 11
-36.5451
 21
53.4389
  0
LINE
  8
0
 10
-36.5451
 20
53.4389
 11
-36.8815
 21
52.9088
  0
LINE
  8
0
 10
-36.8815
 20
52.9088
 11
-37.1489
 21
52.3406
  0
LINE
  8
0
 10
-37.1489
 20
52.3406
 11
-37.3429
 21
51.7434
  0
LINE
  8
0
 10
-37.3429
 20
51.7434
 11
-37.4
 21
51.4442
  0
LINE
  8
0
 10
-37.4
 20
51.4442
 11
-39
 21
51.4442
  0
LINE
  8
0
 10
-39
 20
51.4442
 11
-39
 21
44.5558
  0
LINE
  8
0
 10
-39
 20
44.5558
 11
-37.4
 21
44.5558
  0
LINE
  8
0
 10
-37.4
 20
44.5558
 11
-37.3429
 21
44.2566
  0
LINE
  8
0
 10
-37.3429
 20
44.2566
 11
-37.1489
 21
43.6594
  0
LINE
  8
0
 10
-37.1489
 20
43.6594
 11
-36.8815
 21
43.0912
  0
LINE
  8
0
 10
-36.8815
 20
43.0912
 11
-36.5451
 21
42.5611
  0
LINE
  8
0
 10
-36.5451
 20
42.5611
 11
-36.1448
 21
42.0773
  0
LINE
  8
0
 10
-36.1448
 20
42.0773
 11
-35.6871
 21
41.6474
  0
LINE
  8
0
 10
-35.6871
 20
41.6474
 11
-35.1791
 21
41.2784
  0
LINE
  8
0
 10
-35.1791
 20
41.2784
 11
-34.6289
 21
40.9759
  0
LINE
  8
0
 10
-34.6289
 20
40.9759
 11
-34.0451
 21
40.7447
  0
LINE
  8
0
 10
-34.0451
 20
40.7447
 11
-33.4369
 21
40.5886
  0
LINE
  8
0
 10
-33.4369
 20
40.5886
 11
-32.8139
 21
40.5099
  0
LINE
  8
0
 10
-32.8139
 20
40.5099
 11
32.8139
 21
40.5099
  0
LINE
  8
0
 10
32.8139
 20
40.5099
 11
33.4369
 21
40.5886
  0
LINE
  8
0
 10
-30.113
 20
46.2036
 11
-30.3373
 21
46.2319
  0
LINE
  8
0
 10
-30.3373
 20
46.2319
 11
-30.5562
 21
46.2881
  0
LINE
  8
0
 10
-30.5562
 20
46.2881
 11
-30.7664
 21
46.3713
  0
LINE
  8
0
 10
-30.7664
 20
46.3713
 11
-30.9645
 21
46.4802
  0
LINE
  8
0
 10
-30.9645
 20
46.4802
 11
-31.1474
 21
46.6131
  0
LINE
  8
0
 10
-31.1474
 20
46.6131
 11
-31.3121
 21
46.7678
  0
LINE
  8
0
 10
-31.3121
 20
46.7678
 11
-31.4562
 21
46.942
  0
LINE
  8
0
 10
-31.4562
 20
46.942
 11
-31.5773
 21
47.1329
  0
LINE
  8
0
 10
-31.5773
 20
47.1329
 11
-31.6736
 21
47.3374
  0
LINE
  8
0
 10
-31.6736
 20
47.3374
 11
-31.7434
 21
47.5524
  0
LINE
  8
0
 10
-31.7434
 20
47.5524
 11
-31.7858
 21
47.7744
  0
LINE
  8
0
 10
-31.7858
 20
47.7744
 11
-31.8
 21
48
  0
LINE
  8
0
 10
-31.8
 20
48
 11
-31.7858
 21
48.2256
  0
LINE
  8
0
 10
-31.7858
 20
48.2256
 11
-31.7434
 21
48.4476
  0
LINE
  8
0
 10
-31.7434
 20
48.4476
 11
-31.6736
 21
48.6626
  0
LINE
  8
0
 10
-31.6736
 20
48.6626
 11
-31.5773
 21
48.8671
  0
LINE
  8
0
 10
-31.5773
 20
48.8671
 11
-31.4562
 21
49.058
  0
LINE
  8
0
 10
-31.4562
 20
49.058
 11
-31.3121
 21
49.2322
  0
LINE
  8
0
 10
-31.3121
 20
49.2322
 11
-31.1474
 21
49.3869
  0
LINE
  8
0
 10
-31.1474
 20
49.3869
 11
-30.9645
 21
49.5198
  0
LINE
  8
0
 10
-30.9645
 20
49.5198
 11
-30.7664
 21
49.6287
  0
LINE
  8
0
 10
-30.7664
 20
49.6287
 11
-30.5562
 21
49.7119
  0
LINE
  8
0
 10
-30.5562
 20
49.7119
 11
-30.3373
 21
49.7681
  0
LINE
  8
0
 10
-30.3373
 20
49.7681
 11
-30.113
 21
49.7964
  0
LINE
  8
0
 10
-30.113
 20
49.7964
 11
-29.887
 21
49.7964
  0
LINE
  8
0
 10
-29.887
 20
49.7964
 11
-29.6627
 21
49.7681
  0
LINE
  8
0
 10
-29.6627
 20
49.7681
 11
-29.4438
 21
49.7119
  0
LINE
  8
0
 10
-29.4438
 20
49.7119
 11
-29.2336
 21
49.6287
  0
LINE
  8
0
 10
-29.2336
 20
49.6287
 11
-29.0355
 21
49.5198
  0
LINE
  8
0
 10
-29.0355
 20
49.5198
 11
-28.8526
 21
49.3869
  0
LINE
  8
0
 10
-28.8526
 20
49.3869
 11
-28.6879
 21
49.2322
  0
LINE
  8
0
 10
-28.6879
 20
49.2322
 11
-28.5438
 21
49.058
  0
LINE
  8
0
 10
-28.5438
 20
49.058
 11
-28.4226
 21
48.8671
  0
LINE
  8
0
 10
-28.4226
 20
48.8671
 11
-28.3264
 21
48.6626
  0
LINE
  8
0
 10
-28.3264
 20
48.6626
 11
-28.2565
 21
48.4476
  0
LINE
  8
0
 10
-28.2565
 20
48.4476
 11
-28.2142
 21
48.2256
  0
LINE
  8
0
 10
-28.2142
 20
48.2256
 11
-28.2
 21
48
  0
LINE
  8
0
 10
-28.2
 20
48
 11
-28.2142
 21
47.7744
  0
LINE
  8
0
 10
-28.2142
 20
47.7744
 11
-28.2565
 21
47.5524
  0
LINE
  8
0
 10
-28.2565
 20
47.5524
 11
-28.3264
 21
47.3374
  0
LINE
  8
0
 10
-28.3264
 20
47.3374
 11
-28.4226
 21
47.1329
  0
LINE
  8
0
 10
-28.4226
 20
47.1329
 11
-28.5438
 21
46.942
  0
LINE
  8
0
 10
-28.5438
 20
46.942
 11
-28.6879
 21
46.7678
  0
LINE
  8
0
 10
-28.6879
 20
46.7678
 11
-28.8526
 21
46.6131
  0
LINE
  8
0
 10
-28.8526
 20
46.6131
 11
-29.0355
 21
46.4802
  0
LINE
  8
0
 10
-29.0355
 20
46.4802
 11
-29.2336
 21
46.3713
  0
LINE
  8
0
 10
-29.2336
 20
46.3713
 11
-29.4438
 21
46.2881
  0
LINE
  8
0
 10
-29.4438
 20
46.2881
 11
-29.6627
 21
46.2319
  0
LINE
  8
0
 10
-29.6627
 20
46.2319
 11
-29.887
 21
46.2036
  0
LINE
  8
0
 10
-29.887
 20
46.2036
 11
-30.113
 21
46.2036
  0
LINE
  8
0
 10
29.887
 20
46.2036
 11
29.6627
 21
46.2319
  0
LINE
  8
0
 10
29.6627
 20
46.2319
 11
29.4438
 21
46.2881
  0
LINE
  8
0
 10
29.4438
 20
46.2881
 11
29.2336
 21
46.3713
  0
LINE
  8
0
 10
29.2336
 20
46.3713
 11
29.0355
 21
46.4802
  0
LINE
  8
0
 10
29.0355
 20
46.4802
 11
28.8526
 21
46.6131
  0
LINE
  8
0
 10
28.8526
 20
46.6131
 11
28.6879
 21
46.7678
  0
LINE
  8
0
 10
28.6879
 20
46.7678
 11
28.5438
 21
46.942
  0
LINE
  8
0
 10
28.5438
 20
46.942
 11
28.4226
 21
47.1329
  0
LINE
  8
0
 10
28.4226
 20
47.1329
 11
28.3264
 21
47.3374
  0
LINE
  8
0
 10
28.3264
 20
47.3374
 11
28.2565
 21
47.5524
  0
LINE
  8
0
 10
28.2565
 20
47.5524
 11
28.2142
 21
47.7744
  0
LINE
  8
0
 10
28.2142
 20
47.7744
 11
28.2
 21
48
  0
LINE
  8
0
 10
28.2
 20
48
 11
28.2142
 21
48.2256
  0
LINE
  8
0
 10
28.2142
 20
48.2256
 11
28.2565
 21
48.4476
  0
LINE
  8
0
 10
28.2565
 20
48.4476
 11
28.3264
 21
48.6626
  0
LINE
  8
0
 10
28.3264
 20
48.6626
 11
28.4226
 21
48.8671
  0
LINE
  8
0
 10
28.4226
 20
48.8671
 11
28.5438
 21
49.058
  0
LINE
  8
0
 10
28.5438
 20
49.058
 11
28.6879
 21
49.2322
  0
LINE
  8
0
 10
28.6879
 20
49.2322
 11
28.8526
 21
49.3869
  0
LINE
  8
0
 10
28.8526
 20
49.3869
 11
29.0355
 21
49.5198
  0
LINE
  8
0
 10
29.0355
 20
49.5198
 11
29.2336
 21
49.6287
  0
LINE
  8
0
 10
29.2336
 20
49.6287
 11
29.4438
 21
49.7119
  0
LINE
  8
0
 10
29.4438
 20
49.7119
 11
29.6627
 21
49.7681
  0
LINE
  8
0
 10
29.6627
 20
49.7681
 11
29.887
 21
49.7964
  0
LINE
  8
0
 10
29.887
 20
49.7964
 11
30.113
 21
49.7964
  0
LINE
  8
0
 10
30.113
 20
49.7964
 11
30.3373
 21
49.7681
  0
LINE
  8
0
 10
30.3373
 20
49.7681
 11
30.5562
 21
49.7119
  0
LINE
  8
0
 10
30.5562
 20
49.7119
 11
30.7664
 21
49.6287
  0
LINE
  8
0
 10
30.7664
 20
49.6287
 11
30.9645
 21
49.5198
  0
LINE
  8
0
 10
30.9645
 20
49.5198
 11
31.1474
 21
49.3869
  0
LINE
  8
0
 10
31.1474
 20
49.3869
 11
31.3121
 21
49.2322
  0
LINE
  8
0
 10
31.3121
 20
49.2322
 11
31.4562
 21
49.058
  0
LINE
  8
0
 10
31.4562
 20
49.058
 11
31.5773
 21
48.8671
  0
LINE
  8
0
 10
31.5773
 20
48.8671
 11
31.6736
 21
48.6626
  0
LINE
  8
0
 10
31.6736
 20
48.6626
 11
31.7434
 21
48.4476
  0
LINE
  8
0
 10
31.7434
 20
48.4476
 11
31.7858
 21
48.2256
  0
LINE
  8
0
 10
31.7858
 20
48.2256
 11
31.8
 21
48
  0
LINE
  8
0
 10
31.8
 20
48
 11
31.7858
 21
47.7744
  0
LINE
  8
0
 10
31.7858
 20
47.7744
 11
31.7434
 21
47.5524
  0
LINE
  8
0
 10
31.7434
 20
47.5524
 11
31.6736
 21
47.3374
  0
LINE
  8
0
 10
31.6736
 20
47.3374
 11
31.5773
 21
47.1329
  0
LINE
  8
0
 10
31.5773
 20
47.1329
 11
31.4562
 21
46.942
  0
LINE
  8
0
 10
31.4562
 20
46.942
 11
31.3121
 21
46.7678
  0
LINE
  8
0
 10
31.3121
 20
46.7678
 11
31.1474
 21
46.6131
  0
LINE
  8
0
 10
31.1474
 20
46.6131
 11
30.9645
 21
46.4802
  0
LINE
  8
0
 10
30.9645
 20
46.4802
 11
30.7664
 21
46.3713
  0
LINE
  8
0
 10
30.7664
 20
46.3713
 11
30.5562
 21
46.2881
  0
LINE
  8
0
 10
30.5562
 20
46.2881
 11
30.3373
 21
46.2319
  0
LINE
  8
0
 10
30.3373
 20
46.2319
 11
30.113
 21
46.2036
  0
LINE
  8
0
 10
30.113
 20
46.2036
 11
29.887
 21
46.2036
  0
ENDSEC
  0
SECTION
  2
OBJECTS
  0
DICTIONARY
  0
ENDSEC
  0
EOF
