<?xml version="1.0" standalone="no"?>
<!DOCTYPE svg PUBLIC "-//W3C//DTD SVG 1.1//EN" "http://www.w3.org/Graphics/SVG/1.1/DTD/svg11.dtd">
<svg width="46mm" height="514mm" viewBox="-23 -779 46 514" xmlns="http://www.w3.org/2000/svg" version="1.1">
<title>OpenSCAD Model</title>
<path d="
M 18.4369,-613.589 L 19.0451,-613.745 L 19.6289,-613.976 L 20.1791,-614.278 L 20.6871,-614.647 L 21.1448,-615.077
 L 21.5451,-615.561 L 21.8815,-616.091 L 22.1489,-616.659 L 22.3429,-617.257 L 22.4606,-617.873 L 22.5,-618.5
 L 22.5,-773.5 L 22.4606,-774.127 L 22.3429,-774.743 L 22.1489,-775.341 L 21.8815,-775.909 L 21.5451,-776.439
 L 21.1448,-776.923 L 20.6871,-777.353 L 20.1791,-777.722 L 19.6289,-778.024 L 19.0451,-778.255 L 18.4369,-778.411
 L 17.8139,-778.49 L -17.8139,-778.49 L -18.4369,-778.411 L -19.0451,-778.255 L -19.6289,-778.024 L -20.1791,-777.722
 L -20.6871,-777.353 L -21.1448,-776.923 L -21.5451,-776.439 L -21.8815,-775.909 L -22.1489,-775.341 L -22.3429,-774.743
 L -22.4606,-774.127 L -22.5,-773.5 L -22.5,-618.5 L -22.4606,-617.873 L -22.3429,-617.257 L -22.1489,-616.659
 L -21.8815,-616.091 L -21.5451,-615.561 L -21.1448,-615.077 L -20.6871,-614.647 L -20.1791,-614.278 L -19.6289,-613.976
 L -19.0451,-613.745 L -18.4369,-613.589 L -17.8139,-613.51 L 17.8139,-613.51 z
M -17.2432,-615.135 L -17.7256,-615.196 L -18.1967,-615.317 L -18.6489,-615.496 L -19.0751,-615.73 L -19.4685,-616.016
 L -19.823,-616.349 L -20.133,-616.724 L -20.3936,-617.134 L -20.6007,-617.574 L -20.751,-618.037 L -20.8421,-618.515
 L -20.8726,-619 L -20.8726,-773 L -20.8421,-773.485 L -20.751,-773.963 L -20.6007,-774.426 L -20.3936,-774.866
 L -20.133,-775.276 L -19.823,-775.651 L -19.4685,-775.984 L -19.0751,-776.27 L -18.6489,-776.504 L -18.1967,-776.683
 L -17.7256,-776.804 L -17.2432,-776.865 L 17.2432,-776.865 L 17.7256,-776.804 L 18.1967,-776.683 L 18.6489,-776.504
 L 19.0751,-776.27 L 19.4685,-775.984 L 19.823,-775.651 L 20.133,-775.276 L 20.3936,-774.866 L 20.6007,-774.426
 L 20.751,-773.963 L 20.8421,-773.485 L 20.8726,-773 L 20.8726,-619 L 20.8421,-618.515 L 20.751,-618.037
 L 20.6007,-617.574 L 20.3936,-617.134 L 20.133,-616.724 L 19.823,-616.349 L 19.4685,-616.016 L 19.0751,-615.73
 L 18.6489,-615.496 L 18.1967,-615.317 L 17.7256,-615.196 L 17.2432,-615.135 z
M 18.4369,-439.589 L 19.0451,-439.745 L 19.6289,-439.976 L 20.1791,-440.278 L 20.6871,-440.647 L 21.1448,-441.077
 L 21.5451,-441.561 L 21.8815,-442.091 L 22.1489,-442.659 L 22.3429,-443.257 L 22.4606,-443.873 L 22.5,-444.5
 L 22.5,-599.5 L 22.4606,-600.127 L 22.3429,-600.743 L 22.1489,-601.341 L 21.8815,-601.909 L 21.5451,-602.439
 L 21.1448,-602.923 L 20.6871,-603.353 L 20.1791,-603.722 L 19.6289,-604.024 L 19.0451,-604.255 L 18.4369,-604.411
 L 17.8139,-604.49 L -17.8139,-604.49 L -18.4369,-604.411 L -19.0451,-604.255 L -19.6289,-604.024 L -20.1791,-603.722
 L -20.6871,-603.353 L -21.1448,-602.923 L -21.5451,-602.439 L -21.8815,-601.909 L -22.1489,-601.341 L -22.3429,-600.743
 L -22.4606,-600.127 L -22.5,-599.5 L -22.5,-444.5 L -22.4606,-443.873 L -22.3429,-443.257 L -22.1489,-442.659
 L -21.8815,-442.091 L -21.5451,-441.561 L -21.1448,-441.077 L -20.6871,-440.647 L -20.1791,-440.278 L -19.6289,-439.976
 L -19.0451,-439.745 L -18.4369,-439.589 L -17.8139,-439.51 L 17.8139,-439.51 z
M 18.4369,-265.589 L 19.0451,-265.745 L 19.6289,-265.976 L 20.1791,-266.278 L 20.6871,-266.647 L 21.1448,-267.077
 L 21.5451,-267.561 L 21.8815,-268.091 L 22.1489,-268.659 L 22.3429,-269.257 L 22.4606,-269.873 L 22.5,-270.5
 L 22.5,-425.5 L 22.4606,-426.127 L 22.3429,-426.743 L 22.1489,-427.341 L 21.8815,-427.909 L 21.5451,-428.439
 L 21.1448,-428.923 L 20.6871,-429.353 L 20.1791,-429.722 L 19.6289,-430.024 L 19.0451,-430.255 L 18.4369,-430.411
 L 17.8139,-430.49 L -17.8139,-430.49 L -18.4369,-430.411 L -19.0451,-430.255 L -19.6289,-430.024 L -20.1791,-429.722
 L -20.6871,-429.353 L -21.1448,-428.923 L -21.5451,-428.439 L -21.8815,-427.909 L -22.1489,-427.341 L -22.3429,-426.743
 L -22.4606,-426.127 L -22.5,-425.5 L -22.5,-270.5 L -22.4606,-269.873 L -22.3429,-269.257 L -22.1489,-268.659
 L -21.8815,-268.091 L -21.5451,-267.561 L -21.1448,-267.077 L -20.6871,-266.647 L -20.1791,-266.278 L -19.6289,-265.976
 L -19.0451,-265.745 L -18.4369,-265.589 L -17.8139,-265.51 L 17.8139,-265.51 z
M 14.887,-421.204 L 14.6627,-421.232 L 14.4438,-421.288 L 14.2336,-421.371 L 14.0355,-421.48 L 13.8526,-421.613
 L 13.6879,-421.768 L 13.5438,-421.942 L 13.4226,-422.133 L 13.3264,-422.337 L 13.2565,-422.552 L 13.2142,-422.774
 L 13.2,-423 L 13.2142,-423.226 L 13.2565,-423.448 L 13.3264,-423.663 L 13.4226,-423.867 L 13.5438,-424.058
 L 13.6879,-424.232 L 13.8526,-424.387 L 14.0355,-424.52 L 14.2336,-424.629 L 14.4438,-424.712 L 14.6627,-424.768
 L 14.887,-424.796 L 15.113,-424.796 L 15.3373,-424.768 L 15.5562,-424.712 L 15.7664,-424.629 L 15.9645,-424.52
 L 16.1474,-424.387 L 16.3121,-424.232 L 16.4562,-424.058 L 16.5773,-423.867 L 16.6736,-423.663 L 16.7434,-423.448
 L 16.7858,-423.226 L 16.8,-423 L 16.7858,-422.774 L 16.7434,-422.552 L 16.6736,-422.337 L 16.5773,-422.133
 L 16.4562,-421.942 L 16.3121,-421.768 L 16.1474,-421.613 L 15.9645,-421.48 L 15.7664,-421.371 L 15.5562,-421.288
 L 15.3373,-421.232 L 15.113,-421.204 z
M -15.113,-421.204 L -15.3373,-421.232 L -15.5562,-421.288 L -15.7664,-421.371 L -15.9645,-421.48 L -16.1474,-421.613
 L -16.3121,-421.768 L -16.4562,-421.942 L -16.5773,-422.133 L -16.6736,-422.337 L -16.7434,-422.552 L -16.7858,-422.774
 L -16.8,-423 L -16.7858,-423.226 L -16.7434,-423.448 L -16.6736,-423.663 L -16.5773,-423.867 L -16.4562,-424.058
 L -16.3121,-424.232 L -16.1474,-424.387 L -15.9645,-424.52 L -15.7664,-424.629 L -15.5562,-424.712 L -15.3373,-424.768
 L -15.113,-424.796 L -14.887,-424.796 L -14.6627,-424.768 L -14.4438,-424.712 L -14.2336,-424.629 L -14.0355,-424.52
 L -13.8526,-424.387 L -13.6879,-424.232 L -13.5438,-424.058 L -13.4226,-423.867 L -13.3264,-423.663 L -13.2565,-423.448
 L -13.2142,-423.226 L -13.2,-423 L -13.2142,-422.774 L -13.2565,-422.552 L -13.3264,-422.337 L -13.4226,-422.133
 L -13.5438,-421.942 L -13.6879,-421.768 L -13.8526,-421.613 L -14.0355,-421.48 L -14.2336,-421.371 L -14.4438,-421.288
 L -14.6627,-421.232 L -14.887,-421.204 z
M -15.113,-271.204 L -15.3373,-271.232 L -15.5562,-271.288 L -15.7664,-271.371 L -15.9645,-271.48 L -16.1474,-271.613
 L -16.3121,-271.768 L -16.4562,-271.942 L -16.5773,-272.133 L -16.6736,-272.337 L -16.7434,-272.552 L -16.7858,-272.774
 L -16.8,-273 L -16.7858,-273.226 L -16.7434,-273.448 L -16.6736,-273.663 L -16.5773,-273.867 L -16.4562,-274.058
 L -16.3121,-274.232 L -16.1474,-274.387 L -15.9645,-274.52 L -15.7664,-274.629 L -15.5562,-274.712 L -15.3373,-274.768
 L -15.113,-274.796 L -14.887,-274.796 L -14.6627,-274.768 L -14.4438,-274.712 L -14.2336,-274.629 L -14.0355,-274.52
 L -13.8526,-274.387 L -13.6879,-274.232 L -13.5438,-274.058 L -13.4226,-273.867 L -13.3264,-273.663 L -13.2565,-273.448
 L -13.2142,-273.226 L -13.2,-273 L -13.2142,-272.774 L -13.2565,-272.552 L -13.3264,-272.337 L -13.4226,-272.133
 L -13.5438,-271.942 L -13.6879,-271.768 L -13.8526,-271.613 L -14.0355,-271.48 L -14.2336,-271.371 L -14.4438,-271.288
 L -14.6627,-271.232 L -14.887,-271.204 z
M 14.887,-271.204 L 14.6627,-271.232 L 14.4438,-271.288 L 14.2336,-271.371 L 14.0355,-271.48 L 13.8526,-271.613
 L 13.6879,-271.768 L 13.5438,-271.942 L 13.4226,-272.133 L 13.3264,-272.337 L 13.2565,-272.552 L 13.2142,-272.774
 L 13.2,-273 L 13.2142,-273.226 L 13.2565,-273.448 L 13.3264,-273.663 L 13.4226,-273.867 L 13.5438,-274.058
 L 13.6879,-274.232 L 13.8526,-274.387 L 14.0355,-274.52 L 14.2336,-274.629 L 14.4438,-274.712 L 14.6627,-274.768
 L 14.887,-274.796 L 15.113,-274.796 L 15.3373,-274.768 L 15.5562,-274.712 L 15.7664,-274.629 L 15.9645,-274.52
 L 16.1474,-274.387 L 16.3121,-274.232 L 16.4562,-274.058 L 16.5773,-273.867 L 16.6736,-273.663 L 16.7434,-273.448
 L 16.7858,-273.226 L 16.8,-273 L 16.7858,-272.774 L 16.7434,-272.552 L 16.6736,-272.337 L 16.5773,-272.133
 L 16.4562,-271.942 L 16.3121,-271.768 L 16.1474,-271.613 L 15.9645,-271.48 L 15.7664,-271.371 L 15.5562,-271.288
 L 15.3373,-271.232 L 15.113,-271.204 z
" stroke="black" fill="lightgray" stroke-width="0.5"/>
</svg>
