<?xml version="1.0" standalone="no"?>
<!DOCTYPE svg PUBLIC "-//W3C//DTD SVG 1.1//EN" "http://www.w3.org/Graphics/SVG/1.1/DTD/svg11.dtd">
<svg width="92mm" height="186mm" viewBox="-47 -366 92 186" xmlns="http://www.w3.org/2000/svg" version="1.1">
<title>OpenSCAD Model</title>
<path d="
M -43.5,-337.441 L -43.1871,-337.147 L -42.6791,-336.778 L -42.1289,-336.476 L -41.5451,-336.245 L -40.9369,-336.089
 L -40.3139,-336.01 L 40.3139,-336.01 L 40.9369,-336.089 L 41.5451,-336.245 L 42.1289,-336.476 L 42.6791,-336.778
 L 43.1871,-337.147 L 43.6448,-337.577 L 44.0451,-338.061 L 44.3815,-338.591 L 44.6489,-339.159 L 44.8429,-339.757
 L 44.9606,-340.373 L 45,-341 L 45,-361 L 44.9606,-361.627 L 44.8429,-362.243 L 44.6489,-362.841
 L 44.3815,-363.409 L 44.0451,-363.939 L 43.6448,-364.423 L 43.1871,-364.853 L 42.6791,-365.222 L 42.1289,-365.524
 L 41.5451,-365.755 L 40.9369,-365.911 L 40.3139,-365.99 L -40.3139,-365.99 L -40.9369,-365.911 L -41.5451,-365.755
 L -42.1289,-365.524 L -42.6791,-365.222 L -43.1871,-364.853 L -43.5,-364.559 L -43.5,-365.99 L -46.5,-365.99
 L -46.5,-336.01 L -43.5,-336.01 z
M -39.7512,-337.508 L -40.2495,-337.571 L -40.7361,-337.696 L -41.2031,-337.881 L -41.6433,-338.123 L -42.0497,-338.418
 L -42.4159,-338.762 L -42.7361,-339.149 L -43.0052,-339.573 L -43.2191,-340.028 L -43.3743,-340.505 L -43.4685,-340.999
 L -43.5,-341.5 L -43.5,-360.5 L -43.4685,-361.001 L -43.3743,-361.495 L -43.2191,-361.972 L -43.0052,-362.427
 L -42.7361,-362.851 L -42.4159,-363.238 L -42.0497,-363.582 L -41.6433,-363.877 L -41.2031,-364.119 L -40.7361,-364.304
 L -40.2495,-364.429 L -39.7512,-364.492 L 39.7512,-364.492 L 40.2495,-364.429 L 40.7361,-364.304 L 41.2031,-364.119
 L 41.6433,-363.877 L 42.0497,-363.582 L 42.4159,-363.238 L 42.7361,-362.851 L 43.0052,-362.427 L 43.2191,-361.972
 L 43.3743,-361.495 L 43.4685,-361.001 L 43.5,-360.5 L 43.5,-341.5 L 43.4685,-340.999 L 43.3743,-340.505
 L 43.2191,-340.028 L 43.0052,-339.573 L 42.7361,-339.149 L 42.4159,-338.762 L 42.0497,-338.418 L 41.6433,-338.123
 L 41.2031,-337.881 L 40.7361,-337.696 L 40.2495,-337.571 L 39.7512,-337.508 z
M -43.5,-298.441 L -43.1871,-298.147 L -42.6791,-297.778 L -42.1289,-297.476 L -41.5451,-297.245 L -40.9369,-297.089
 L -40.3139,-297.01 L 40.3139,-297.01 L 40.9369,-297.089 L 41.5451,-297.245 L 42.1289,-297.476 L 42.6791,-297.778
 L 43.1871,-298.147 L 43.6448,-298.577 L 44.0451,-299.061 L 44.3815,-299.591 L 44.6489,-300.159 L 44.8429,-300.757
 L 44.9606,-301.373 L 45,-302 L 45,-322 L 44.9606,-322.627 L 44.8429,-323.243 L 44.6489,-323.841
 L 44.3815,-324.409 L 44.0451,-324.939 L 43.6448,-325.423 L 43.1871,-325.853 L 42.6791,-326.222 L 42.1289,-326.524
 L 41.5451,-326.755 L 40.9369,-326.911 L 40.3139,-326.99 L -40.3139,-326.99 L -40.9369,-326.911 L -41.5451,-326.755
 L -42.1289,-326.524 L -42.6791,-326.222 L -43.1871,-325.853 L -43.5,-325.559 L -43.5,-326.99 L -46.5,-326.99
 L -46.5,-297.01 L -43.5,-297.01 z
M -39.7512,-298.508 L -40.2495,-298.571 L -40.7361,-298.696 L -41.2031,-298.881 L -41.6433,-299.123 L -42.0497,-299.418
 L -42.4159,-299.762 L -42.7361,-300.149 L -43.0052,-300.573 L -43.2191,-301.028 L -43.3743,-301.505 L -43.4685,-301.999
 L -43.5,-302.5 L -43.5,-321.5 L -43.4685,-322.001 L -43.3743,-322.495 L -43.2191,-322.972 L -43.0052,-323.427
 L -42.7361,-323.851 L -42.4159,-324.238 L -42.0497,-324.582 L -41.6433,-324.877 L -41.2031,-325.119 L -40.7361,-325.304
 L -40.2495,-325.429 L -39.7512,-325.492 L 39.7512,-325.492 L 40.2495,-325.429 L 40.7361,-325.304 L 41.2031,-325.119
 L 41.6433,-324.877 L 42.0497,-324.582 L 42.4159,-324.238 L 42.7361,-323.851 L 43.0052,-323.427 L 43.2191,-322.972
 L 43.3743,-322.495 L 43.4685,-322.001 L 43.5,-321.5 L 43.5,-302.5 L 43.4685,-301.999 L 43.3743,-301.505
 L 43.2191,-301.028 L 43.0052,-300.573 L 42.7361,-300.149 L 42.4159,-299.762 L 42.0497,-299.418 L 41.6433,-299.123
 L 41.2031,-298.881 L 40.7361,-298.696 L 40.2495,-298.571 L 39.7512,-298.508 z
M -43.5,-259.441 L -43.1871,-259.147 L -42.6791,-258.778 L -42.1289,-258.476 L -41.5451,-258.245 L -40.9369,-258.089
 L -40.3139,-258.01 L 40.3139,-258.01 L 40.9369,-258.089 L 41.5451,-258.245 L 42.1289,-258.476 L 42.6791,-258.778
 L 43.1871,-259.147 L 43.6448,-259.577 L 44.0451,-260.061 L 44.3815,-260.591 L 44.6489,-261.159 L 44.8429,-261.757
 L 44.9606,-262.373 L 45,-263 L 45,-283 L 44.9606,-283.627 L 44.8429,-284.243 L 44.6489,-284.841
 L 44.3815,-285.409 L 44.0451,-285.939 L 43.6448,-286.423 L 43.1871,-286.853 L 42.6791,-287.222 L 42.1289,-287.524
 L 41.5451,-287.755 L 40.9369,-287.911 L 40.3139,-287.99 L -40.3139,-287.99 L -40.9369,-287.911 L -41.5451,-287.755
 L -42.1289,-287.524 L -42.6791,-287.222 L -43.1871,-286.853 L -43.5,-286.559 L -43.5,-287.99 L -46.5,-287.99
 L -46.5,-258.01 L -43.5,-258.01 z
M -39.7512,-259.508 L -40.2495,-259.571 L -40.7361,-259.696 L -41.2031,-259.881 L -41.6433,-260.123 L -42.0497,-260.418
 L -42.4159,-260.762 L -42.7361,-261.149 L -43.0052,-261.573 L -43.2191,-262.028 L -43.3743,-262.505 L -43.4685,-262.999
 L -43.5,-263.5 L -43.5,-282.5 L -43.4685,-283.001 L -43.3743,-283.495 L -43.2191,-283.972 L -43.0052,-284.427
 L -42.7361,-284.851 L -42.4159,-285.238 L -42.0497,-285.582 L -41.6433,-285.877 L -41.2031,-286.119 L -40.7361,-286.304
 L -40.2495,-286.429 L -39.7512,-286.492 L 39.7512,-286.492 L 40.2495,-286.429 L 40.7361,-286.304 L 41.2031,-286.119
 L 41.6433,-285.877 L 42.0497,-285.582 L 42.4159,-285.238 L 42.7361,-284.851 L 43.0052,-284.427 L 43.2191,-283.972
 L 43.3743,-283.495 L 43.4685,-283.001 L 43.5,-282.5 L 43.5,-263.5 L 43.4685,-262.999 L 43.3743,-262.505
 L 43.2191,-262.028 L 43.0052,-261.573 L 42.7361,-261.149 L 42.4159,-260.762 L 42.0497,-260.418 L 41.6433,-260.123
 L 41.2031,-259.881 L 40.7361,-259.696 L 40.2495,-259.571 L 39.7512,-259.508 z
M 40.9369,-219.089 L 41.5451,-219.245 L 42.1289,-219.476 L 42.6791,-219.778 L 43.1871,-220.147 L 43.6448,-220.577
 L 44.0451,-221.061 L 44.3815,-221.591 L 44.6489,-222.159 L 44.8429,-222.757 L 44.9606,-223.373 L 45,-224
 L 45,-244 L 44.9606,-244.627 L 44.8429,-245.243 L 44.6489,-245.841 L 44.3815,-246.409 L 44.0451,-246.939
 L 43.6448,-247.423 L 43.1871,-247.853 L 42.6791,-248.222 L 42.1289,-248.524 L 41.5451,-248.755 L 40.9369,-248.911
 L 40.3139,-248.99 L -40.3139,-248.99 L -40.9369,-248.911 L -41.5451,-248.755 L -42.1289,-248.524 L -42.6791,-248.222
 L -43.1871,-247.853 L -43.5,-247.559 L -43.5,-248.979 L -46.5,-248.979 L -46.5,-219.021 L -43.5,-219.021
 L -43.5,-220.441 L -43.1871,-220.147 L -42.6791,-219.778 L -42.1289,-219.476 L -41.5451,-219.245 L -40.9369,-219.089
 L -40.3139,-219.01 L 40.3139,-219.01 z
M -39.6954,-221.393 L -40.0833,-221.442 L -40.4619,-221.539 L -40.8254,-221.683 L -41.168,-221.872 L -41.4842,-222.101
 L -41.7692,-222.369 L -42.0184,-222.67 L -42.2279,-223 L -42.3943,-223.354 L -42.5151,-223.726 L -42.5884,-224.11
 L -42.6129,-224.5 L -42.6129,-243.5 L -42.5884,-243.89 L -42.5151,-244.274 L -42.3943,-244.646 L -42.2279,-245
 L -42.0184,-245.33 L -41.7692,-245.631 L -41.4842,-245.899 L -41.168,-246.128 L -40.8254,-246.317 L -40.4619,-246.461
 L -40.0833,-246.558 L -39.6954,-246.607 L 39.6954,-246.607 L 40.0833,-246.558 L 40.4619,-246.461 L 40.8254,-246.317
 L 41.168,-246.128 L 41.4842,-245.899 L 41.7692,-245.631 L 42.0184,-245.33 L 42.2279,-245 L 42.3943,-244.646
 L 42.5151,-244.274 L 42.5884,-243.89 L 42.6129,-243.5 L 42.6129,-224.5 L 42.5884,-224.11 L 42.5151,-223.726
 L 42.3943,-223.354 L 42.2279,-223 L 42.0184,-222.67 L 41.7692,-222.369 L 41.4842,-222.101 L 41.168,-221.872
 L 40.8254,-221.683 L 40.4619,-221.539 L 40.0833,-221.442 L 39.6954,-221.393 z
M 40.9369,-180.089 L 41.5451,-180.245 L 42.1289,-180.476 L 42.6791,-180.778 L 43.1871,-181.147 L 43.6448,-181.577
 L 44.0451,-182.061 L 44.3815,-182.591 L 44.6489,-183.159 L 44.8429,-183.757 L 44.9606,-184.373 L 45,-185
 L 45,-205 L 44.9606,-205.627 L 44.8429,-206.243 L 44.6489,-206.841 L 44.3815,-207.409 L 44.0451,-207.939
 L 43.6448,-208.423 L 43.1871,-208.853 L 42.6791,-209.222 L 42.1289,-209.524 L 41.5451,-209.755 L 40.9369,-209.911
 L 40.3139,-209.99 L -40.3139,-209.99 L -40.9369,-209.911 L -41.5451,-209.755 L -42.1289,-209.524 L -42.6791,-209.222
 L -43.1871,-208.853 L -43.5,-208.559 L -43.5,-208.653 L -46.5,-208.653 L -46.5,-181.347 L -43.5,-181.347
 L -43.5,-181.441 L -43.1871,-181.147 L -42.6791,-180.778 L -42.1289,-180.476 L -41.5451,-180.245 L -40.9369,-180.089
 L -40.3139,-180.01 L 40.3139,-180.01 z
M -37.6341,-200.369 L -37.9001,-200.403 L -38.1598,-200.469 L -38.4092,-200.568 L -38.6441,-200.697 L -38.8611,-200.855
 L -39.0565,-201.038 L -39.2275,-201.245 L -39.3712,-201.471 L -39.4853,-201.714 L -39.5682,-201.969 L -39.6185,-202.232
 L -39.6353,-202.5 L -39.6185,-202.768 L -39.5682,-203.031 L -39.4853,-203.286 L -39.3712,-203.529 L -39.2275,-203.755
 L -39.0565,-203.962 L -38.8611,-204.145 L -38.6441,-204.303 L -38.4092,-204.432 L -38.1598,-204.531 L -37.9001,-204.597
 L -37.6341,-204.631 L -37.3659,-204.631 L -37.0999,-204.597 L -36.8401,-204.531 L -36.5908,-204.432 L -36.3559,-204.303
 L -36.1389,-204.145 L -35.9434,-203.962 L -35.7725,-203.755 L -35.6288,-203.529 L -35.5146,-203.286 L -35.4318,-203.031
 L -35.3815,-202.768 L -35.3647,-202.5 L -35.3815,-202.232 L -35.4318,-201.969 L -35.5146,-201.714 L -35.6288,-201.471
 L -35.7725,-201.245 L -35.9434,-201.038 L -36.1389,-200.855 L -36.3559,-200.697 L -36.5908,-200.568 L -36.8401,-200.469
 L -37.0999,-200.403 L -37.3659,-200.369 z
M 37.3659,-200.369 L 37.0999,-200.403 L 36.8401,-200.469 L 36.5908,-200.568 L 36.3559,-200.697 L 36.1389,-200.855
 L 35.9434,-201.038 L 35.7725,-201.245 L 35.6288,-201.471 L 35.5146,-201.714 L 35.4318,-201.969 L 35.3815,-202.232
 L 35.3647,-202.5 L 35.3815,-202.768 L 35.4318,-203.031 L 35.5146,-203.286 L 35.6288,-203.529 L 35.7725,-203.755
 L 35.9434,-203.962 L 36.1389,-204.145 L 36.3559,-204.303 L 36.5908,-204.432 L 36.8401,-204.531 L 37.0999,-204.597
 L 37.3659,-204.631 L 37.6341,-204.631 L 37.9001,-204.597 L 38.1598,-204.531 L 38.4092,-204.432 L 38.6441,-204.303
 L 38.8611,-204.145 L 39.0565,-203.962 L 39.2275,-203.755 L 39.3712,-203.529 L 39.4853,-203.286 L 39.5682,-203.031
 L 39.6185,-202.768 L 39.6353,-202.5 L 39.6185,-202.232 L 39.5682,-201.969 L 39.4853,-201.714 L 39.3712,-201.471
 L 39.2275,-201.245 L 39.0565,-201.038 L 38.8611,-200.855 L 38.6441,-200.697 L 38.4092,-200.568 L 38.1598,-200.469
 L 37.9001,-200.403 L 37.6341,-200.369 z
M -37.6341,-185.369 L -37.9001,-185.403 L -38.1598,-185.469 L -38.4092,-185.568 L -38.6441,-185.697 L -38.8611,-185.855
 L -39.0565,-186.038 L -39.2275,-186.245 L -39.3712,-186.471 L -39.4853,-186.714 L -39.5682,-186.969 L -39.6185,-187.232
 L -39.6353,-187.5 L -39.6185,-187.768 L -39.5682,-188.031 L -39.4853,-188.286 L -39.3712,-188.529 L -39.2275,-188.755
 L -39.0565,-188.962 L -38.8611,-189.145 L -38.6441,-189.303 L -38.4092,-189.432 L -38.1598,-189.531 L -37.9001,-189.597
 L -37.6341,-189.631 L -37.3659,-189.631 L -37.0999,-189.597 L -36.8401,-189.531 L -36.5908,-189.432 L -36.3559,-189.303
 L -36.1389,-189.145 L -35.9434,-188.962 L -35.7725,-188.755 L -35.6288,-188.529 L -35.5146,-188.286 L -35.4318,-188.031
 L -35.3815,-187.768 L -35.3647,-187.5 L -35.3815,-187.232 L -35.4318,-186.969 L -35.5146,-186.714 L -35.6288,-186.471
 L -35.7725,-186.245 L -35.9434,-186.038 L -36.1389,-185.855 L -36.3559,-185.697 L -36.5908,-185.568 L -36.8401,-185.469
 L -37.0999,-185.403 L -37.3659,-185.369 z
M 37.3659,-185.369 L 37.0999,-185.403 L 36.8401,-185.469 L 36.5908,-185.568 L 36.3559,-185.697 L 36.1389,-185.855
 L 35.9434,-186.038 L 35.7725,-186.245 L 35.6288,-186.471 L 35.5146,-186.714 L 35.4318,-186.969 L 35.3815,-187.232
 L 35.3647,-187.5 L 35.3815,-187.768 L 35.4318,-188.031 L 35.5146,-188.286 L 35.6288,-188.529 L 35.7725,-188.755
 L 35.9434,-188.962 L 36.1389,-189.145 L 36.3559,-189.303 L 36.5908,-189.432 L 36.8401,-189.531 L 37.0999,-189.597
 L 37.3659,-189.631 L 37.6341,-189.631 L 37.9001,-189.597 L 38.1598,-189.531 L 38.4092,-189.432 L 38.6441,-189.303
 L 38.8611,-189.145 L 39.0565,-188.962 L 39.2275,-188.755 L 39.3712,-188.529 L 39.4853,-188.286 L 39.5682,-188.031
 L 39.6185,-187.768 L 39.6353,-187.5 L 39.6185,-187.232 L 39.5682,-186.969 L 39.4853,-186.714 L 39.3712,-186.471
 L 39.2275,-186.245 L 39.0565,-186.038 L 38.8611,-185.855 L 38.6441,-185.697 L 38.4092,-185.568 L 38.1598,-185.469
 L 37.9001,-185.403 L 37.6341,-185.369 z
" stroke="black" fill="lightgray" stroke-width="0.5"/>
</svg>
