  0
SECTION
  2
BLOCKS
  0
ENDSEC
  0
SECTION
  2
ENTITIES
  0
LINE
  8
0
 10
-51
 20
209.941
 11
-50.6871
 21
209.647
  0
LINE
  8
0
 10
-50.6871
 20
209.647
 11
-50.1791
 21
209.278
  0
LINE
  8
0
 10
-50.1791
 20
209.278
 11
-49.6289
 21
208.976
  0
LINE
  8
0
 10
-49.6289
 20
208.976
 11
-49.0451
 21
208.745
  0
LINE
  8
0
 10
-49.0451
 20
208.745
 11
-48.4369
 21
208.589
  0
LINE
  8
0
 10
-48.4369
 20
208.589
 11
-47.8139
 21
208.51
  0
LINE
  8
0
 10
-47.8139
 20
208.51
 11
47.8139
 21
208.51
  0
LINE
  8
0
 10
47.8139
 20
208.51
 11
48.4369
 21
208.589
  0
LINE
  8
0
 10
48.4369
 20
208.589
 11
49.0451
 21
208.745
  0
LINE
  8
0
 10
49.0451
 20
208.745
 11
49.6289
 21
208.976
  0
LINE
  8
0
 10
49.6289
 20
208.976
 11
50.1791
 21
209.278
  0
LINE
  8
0
 10
50.1791
 20
209.278
 11
50.6871
 21
209.647
  0
LINE
  8
0
 10
50.6871
 20
209.647
 11
51.1448
 21
210.077
  0
LINE
  8
0
 10
51.1448
 20
210.077
 11
51.5451
 21
210.561
  0
LINE
  8
0
 10
51.5451
 20
210.561
 11
51.8815
 21
211.091
  0
LINE
  8
0
 10
51.8815
 20
211.091
 11
52.1489
 21
211.659
  0
LINE
  8
0
 10
52.1489
 20
211.659
 11
52.3429
 21
212.257
  0
LINE
  8
0
 10
52.3429
 20
212.257
 11
52.4606
 21
212.873
  0
LINE
  8
0
 10
52.4606
 20
212.873
 11
52.5
 21
213.5
  0
LINE
  8
0
 10
52.5
 20
213.5
 11
52.5
 21
218.5
  0
LINE
  8
0
 10
52.5
 20
218.5
 11
52.4606
 21
219.127
  0
LINE
  8
0
 10
52.4606
 20
219.127
 11
52.3429
 21
219.743
  0
LINE
  8
0
 10
52.3429
 20
219.743
 11
52.1489
 21
220.341
  0
LINE
  8
0
 10
52.1489
 20
220.341
 11
51.8815
 21
220.909
  0
LINE
  8
0
 10
51.8815
 20
220.909
 11
51.5451
 21
221.439
  0
LINE
  8
0
 10
51.5451
 20
221.439
 11
51.1448
 21
221.923
  0
LINE
  8
0
 10
51.1448
 20
221.923
 11
50.6871
 21
222.353
  0
LINE
  8
0
 10
50.6871
 20
222.353
 11
50.1791
 21
222.722
  0
LINE
  8
0
 10
50.1791
 20
222.722
 11
49.6289
 21
223.024
  0
LINE
  8
0
 10
49.6289
 20
223.024
 11
49.0451
 21
223.255
  0
LINE
  8
0
 10
49.0451
 20
223.255
 11
48.4369
 21
223.411
  0
LINE
  8
0
 10
48.4369
 20
223.411
 11
47.8139
 21
223.49
  0
LINE
  8
0
 10
47.8139
 20
223.49
 11
-47.8139
 21
223.49
  0
LINE
  8
0
 10
-47.8139
 20
223.49
 11
-48.4369
 21
223.411
  0
LINE
  8
0
 10
-48.4369
 20
223.411
 11
-49.0451
 21
223.255
  0
LINE
  8
0
 10
-49.0451
 20
223.255
 11
-49.6289
 21
223.024
  0
LINE
  8
0
 10
-49.6289
 20
223.024
 11
-50.1791
 21
222.722
  0
LINE
  8
0
 10
-50.1791
 20
222.722
 11
-50.6871
 21
222.353
  0
LINE
  8
0
 10
-50.6871
 20
222.353
 11
-51
 21
222.059
  0
LINE
  8
0
 10
-51
 20
222.059
 11
-51
 21
223.49
  0
LINE
  8
0
 10
-51
 20
223.49
 11
-54
 21
223.49
  0
LINE
  8
0
 10
-54
 20
223.49
 11
-54
 21
208.51
  0
LINE
  8
0
 10
-54
 20
208.51
 11
-51
 21
208.51
  0
LINE
  8
0
 10
-51
 20
208.51
 11
-51
 21
209.941
  0
LINE
  8
0
 10
-47.2512
 20
210.008
 11
-47.7495
 21
210.071
  0
LINE
  8
0
 10
-47.7495
 20
210.071
 11
-48.2361
 21
210.196
  0
LINE
  8
0
 10
-48.2361
 20
210.196
 11
-48.7031
 21
210.381
  0
LINE
  8
0
 10
-48.7031
 20
210.381
 11
-49.1433
 21
210.623
  0
LINE
  8
0
 10
-49.1433
 20
210.623
 11
-49.5497
 21
210.918
  0
LINE
  8
0
 10
-49.5497
 20
210.918
 11
-49.9159
 21
211.262
  0
LINE
  8
0
 10
-49.9159
 20
211.262
 11
-50.2361
 21
211.649
  0
LINE
  8
0
 10
-50.2361
 20
211.649
 11
-50.5052
 21
212.073
  0
LINE
  8
0
 10
-50.5052
 20
212.073
 11
-50.7191
 21
212.528
  0
LINE
  8
0
 10
-50.7191
 20
212.528
 11
-50.8743
 21
213.005
  0
LINE
  8
0
 10
-50.8743
 20
213.005
 11
-50.9685
 21
213.499
  0
LINE
  8
0
 10
-50.9685
 20
213.499
 11
-51
 21
214
  0
LINE
  8
0
 10
-51
 20
214
 11
-51
 21
218
  0
LINE
  8
0
 10
-51
 20
218
 11
-50.9685
 21
218.501
  0
LINE
  8
0
 10
-50.9685
 20
218.501
 11
-50.8743
 21
218.995
  0
LINE
  8
0
 10
-50.8743
 20
218.995
 11
-50.7191
 21
219.472
  0
LINE
  8
0
 10
-50.7191
 20
219.472
 11
-50.5052
 21
219.927
  0
LINE
  8
0
 10
-50.5052
 20
219.927
 11
-50.2361
 21
220.351
  0
LINE
  8
0
 10
-50.2361
 20
220.351
 11
-49.9159
 21
220.738
  0
LINE
  8
0
 10
-49.9159
 20
220.738
 11
-49.5497
 21
221.082
  0
LINE
  8
0
 10
-49.5497
 20
221.082
 11
-49.1433
 21
221.377
  0
LINE
  8
0
 10
-49.1433
 20
221.377
 11
-48.7031
 21
221.619
  0
LINE
  8
0
 10
-48.7031
 20
221.619
 11
-48.2361
 21
221.804
  0
LINE
  8
0
 10
-48.2361
 20
221.804
 11
-47.7495
 21
221.929
  0
LINE
  8
0
 10
-47.7495
 20
221.929
 11
-47.2512
 21
221.992
  0
LINE
  8
0
 10
-47.2512
 20
221.992
 11
47.2512
 21
221.992
  0
LINE
  8
0
 10
47.2512
 20
221.992
 11
47.7495
 21
221.929
  0
LINE
  8
0
 10
47.7495
 20
221.929
 11
48.2361
 21
221.804
  0
LINE
  8
0
 10
48.2361
 20
221.804
 11
48.7031
 21
221.619
  0
LINE
  8
0
 10
48.7031
 20
221.619
 11
49.1433
 21
221.377
  0
LINE
  8
0
 10
49.1433
 20
221.377
 11
49.5497
 21
221.082
  0
LINE
  8
0
 10
49.5497
 20
221.082
 11
49.9159
 21
220.738
  0
LINE
  8
0
 10
49.9159
 20
220.738
 11
50.2361
 21
220.351
  0
LINE
  8
0
 10
50.2361
 20
220.351
 11
50.5052
 21
219.927
  0
LINE
  8
0
 10
50.5052
 20
219.927
 11
50.7191
 21
219.472
  0
LINE
  8
0
 10
50.7191
 20
219.472
 11
50.8743
 21
218.995
  0
LINE
  8
0
 10
50.8743
 20
218.995
 11
50.9685
 21
218.501
  0
LINE
  8
0
 10
50.9685
 20
218.501
 11
51
 21
218
  0
LINE
  8
0
 10
51
 20
218
 11
51
 21
214
  0
LINE
  8
0
 10
51
 20
214
 11
50.9685
 21
213.499
  0
LINE
  8
0
 10
50.9685
 20
213.499
 11
50.8743
 21
213.005
  0
LINE
  8
0
 10
50.8743
 20
213.005
 11
50.7191
 21
212.528
  0
LINE
  8
0
 10
50.7191
 20
212.528
 11
50.5052
 21
212.073
  0
LINE
  8
0
 10
50.5052
 20
212.073
 11
50.2361
 21
211.649
  0
LINE
  8
0
 10
50.2361
 20
211.649
 11
49.9159
 21
211.262
  0
LINE
  8
0
 10
49.9159
 20
211.262
 11
49.5497
 21
210.918
  0
LINE
  8
0
 10
49.5497
 20
210.918
 11
49.1433
 21
210.623
  0
LINE
  8
0
 10
49.1433
 20
210.623
 11
48.7031
 21
210.381
  0
LINE
  8
0
 10
48.7031
 20
210.381
 11
48.2361
 21
210.196
  0
LINE
  8
0
 10
48.2361
 20
210.196
 11
47.7495
 21
210.071
  0
LINE
  8
0
 10
47.7495
 20
210.071
 11
47.2512
 21
210.008
  0
LINE
  8
0
 10
47.2512
 20
210.008
 11
-47.2512
 21
210.008
  0
LINE
  8
0
 10
-51
 20
185.941
 11
-50.6871
 21
185.647
  0
LINE
  8
0
 10
-50.6871
 20
185.647
 11
-50.1791
 21
185.278
  0
LINE
  8
0
 10
-50.1791
 20
185.278
 11
-49.6289
 21
184.976
  0
LINE
  8
0
 10
-49.6289
 20
184.976
 11
-49.0451
 21
184.745
  0
LINE
  8
0
 10
-49.0451
 20
184.745
 11
-48.4369
 21
184.589
  0
LINE
  8
0
 10
-48.4369
 20
184.589
 11
-47.8139
 21
184.51
  0
LINE
  8
0
 10
-47.8139
 20
184.51
 11
47.8139
 21
184.51
  0
LINE
  8
0
 10
47.8139
 20
184.51
 11
48.4369
 21
184.589
  0
LINE
  8
0
 10
48.4369
 20
184.589
 11
49.0451
 21
184.745
  0
LINE
  8
0
 10
49.0451
 20
184.745
 11
49.6289
 21
184.976
  0
LINE
  8
0
 10
49.6289
 20
184.976
 11
50.1791
 21
185.278
  0
LINE
  8
0
 10
50.1791
 20
185.278
 11
50.6871
 21
185.647
  0
LINE
  8
0
 10
50.6871
 20
185.647
 11
51.1448
 21
186.077
  0
LINE
  8
0
 10
51.1448
 20
186.077
 11
51.5451
 21
186.561
  0
LINE
  8
0
 10
51.5451
 20
186.561
 11
51.8815
 21
187.091
  0
LINE
  8
0
 10
51.8815
 20
187.091
 11
52.1489
 21
187.659
  0
LINE
  8
0
 10
52.1489
 20
187.659
 11
52.3429
 21
188.257
  0
LINE
  8
0
 10
52.3429
 20
188.257
 11
52.4606
 21
188.873
  0
LINE
  8
0
 10
52.4606
 20
188.873
 11
52.5
 21
189.5
  0
LINE
  8
0
 10
52.5
 20
189.5
 11
52.5
 21
194.5
  0
LINE
  8
0
 10
52.5
 20
194.5
 11
52.4606
 21
195.127
  0
LINE
  8
0
 10
52.4606
 20
195.127
 11
52.3429
 21
195.743
  0
LINE
  8
0
 10
52.3429
 20
195.743
 11
52.1489
 21
196.341
  0
LINE
  8
0
 10
52.1489
 20
196.341
 11
51.8815
 21
196.909
  0
LINE
  8
0
 10
51.8815
 20
196.909
 11
51.5451
 21
197.439
  0
LINE
  8
0
 10
51.5451
 20
197.439
 11
51.1448
 21
197.923
  0
LINE
  8
0
 10
51.1448
 20
197.923
 11
50.6871
 21
198.353
  0
LINE
  8
0
 10
50.6871
 20
198.353
 11
50.1791
 21
198.722
  0
LINE
  8
0
 10
50.1791
 20
198.722
 11
49.6289
 21
199.024
  0
LINE
  8
0
 10
49.6289
 20
199.024
 11
49.0451
 21
199.255
  0
LINE
  8
0
 10
49.0451
 20
199.255
 11
48.4369
 21
199.411
  0
LINE
  8
0
 10
48.4369
 20
199.411
 11
47.8139
 21
199.49
  0
LINE
  8
0
 10
47.8139
 20
199.49
 11
-47.8139
 21
199.49
  0
LINE
  8
0
 10
-47.8139
 20
199.49
 11
-48.4369
 21
199.411
  0
LINE
  8
0
 10
-48.4369
 20
199.411
 11
-49.0451
 21
199.255
  0
LINE
  8
0
 10
-49.0451
 20
199.255
 11
-49.6289
 21
199.024
  0
LINE
  8
0
 10
-49.6289
 20
199.024
 11
-50.1791
 21
198.722
  0
LINE
  8
0
 10
-50.1791
 20
198.722
 11
-50.6871
 21
198.353
  0
LINE
  8
0
 10
-50.6871
 20
198.353
 11
-51
 21
198.059
  0
LINE
  8
0
 10
-51
 20
198.059
 11
-51
 21
199.49
  0
LINE
  8
0
 10
-51
 20
199.49
 11
-54
 21
199.49
  0
LINE
  8
0
 10
-54
 20
199.49
 11
-54
 21
184.51
  0
LINE
  8
0
 10
-54
 20
184.51
 11
-51
 21
184.51
  0
LINE
  8
0
 10
-51
 20
184.51
 11
-51
 21
185.941
  0
LINE
  8
0
 10
-47.2512
 20
186.008
 11
-47.7495
 21
186.071
  0
LINE
  8
0
 10
-47.7495
 20
186.071
 11
-48.2361
 21
186.196
  0
LINE
  8
0
 10
-48.2361
 20
186.196
 11
-48.7031
 21
186.381
  0
LINE
  8
0
 10
-48.7031
 20
186.381
 11
-49.1433
 21
186.623
  0
LINE
  8
0
 10
-49.1433
 20
186.623
 11
-49.5497
 21
186.918
  0
LINE
  8
0
 10
-49.5497
 20
186.918
 11
-49.9159
 21
187.262
  0
LINE
  8
0
 10
-49.9159
 20
187.262
 11
-50.2361
 21
187.649
  0
LINE
  8
0
 10
-50.2361
 20
187.649
 11
-50.5052
 21
188.073
  0
LINE
  8
0
 10
-50.5052
 20
188.073
 11
-50.7191
 21
188.528
  0
LINE
  8
0
 10
-50.7191
 20
188.528
 11
-50.8743
 21
189.005
  0
LINE
  8
0
 10
-50.8743
 20
189.005
 11
-50.9685
 21
189.499
  0
LINE
  8
0
 10
-50.9685
 20
189.499
 11
-51
 21
190
  0
LINE
  8
0
 10
-51
 20
190
 11
-51
 21
194
  0
LINE
  8
0
 10
-51
 20
194
 11
-50.9685
 21
194.501
  0
LINE
  8
0
 10
-50.9685
 20
194.501
 11
-50.8743
 21
194.995
  0
LINE
  8
0
 10
-50.8743
 20
194.995
 11
-50.7191
 21
195.472
  0
LINE
  8
0
 10
-50.7191
 20
195.472
 11
-50.5052
 21
195.927
  0
LINE
  8
0
 10
-50.5052
 20
195.927
 11
-50.2361
 21
196.351
  0
LINE
  8
0
 10
-50.2361
 20
196.351
 11
-49.9159
 21
196.738
  0
LINE
  8
0
 10
-49.9159
 20
196.738
 11
-49.5497
 21
197.082
  0
LINE
  8
0
 10
-49.5497
 20
197.082
 11
-49.1433
 21
197.377
  0
LINE
  8
0
 10
-49.1433
 20
197.377
 11
-48.7031
 21
197.619
  0
LINE
  8
0
 10
-48.7031
 20
197.619
 11
-48.2361
 21
197.804
  0
LINE
  8
0
 10
-48.2361
 20
197.804
 11
-47.7495
 21
197.929
  0
LINE
  8
0
 10
-47.7495
 20
197.929
 11
-47.2512
 21
197.992
  0
LINE
  8
0
 10
-47.2512
 20
197.992
 11
47.2512
 21
197.992
  0
LINE
  8
0
 10
47.2512
 20
197.992
 11
47.7495
 21
197.929
  0
LINE
  8
0
 10
47.7495
 20
197.929
 11
48.2361
 21
197.804
  0
LINE
  8
0
 10
48.2361
 20
197.804
 11
48.7031
 21
197.619
  0
LINE
  8
0
 10
48.7031
 20
197.619
 11
49.1433
 21
197.377
  0
LINE
  8
0
 10
49.1433
 20
197.377
 11
49.5497
 21
197.082
  0
LINE
  8
0
 10
49.5497
 20
197.082
 11
49.9159
 21
196.738
  0
LINE
  8
0
 10
49.9159
 20
196.738
 11
50.2361
 21
196.351
  0
LINE
  8
0
 10
50.2361
 20
196.351
 11
50.5052
 21
195.927
  0
LINE
  8
0
 10
50.5052
 20
195.927
 11
50.7191
 21
195.472
  0
LINE
  8
0
 10
50.7191
 20
195.472
 11
50.8743
 21
194.995
  0
LINE
  8
0
 10
50.8743
 20
194.995
 11
50.9685
 21
194.501
  0
LINE
  8
0
 10
50.9685
 20
194.501
 11
51
 21
194
  0
LINE
  8
0
 10
51
 20
194
 11
51
 21
190
  0
LINE
  8
0
 10
51
 20
190
 11
50.9685
 21
189.499
  0
LINE
  8
0
 10
50.9685
 20
189.499
 11
50.8743
 21
189.005
  0
LINE
  8
0
 10
50.8743
 20
189.005
 11
50.7191
 21
188.528
  0
LINE
  8
0
 10
50.7191
 20
188.528
 11
50.5052
 21
188.073
  0
LINE
  8
0
 10
50.5052
 20
188.073
 11
50.2361
 21
187.649
  0
LINE
  8
0
 10
50.2361
 20
187.649
 11
49.9159
 21
187.262
  0
LINE
  8
0
 10
49.9159
 20
187.262
 11
49.5497
 21
186.918
  0
LINE
  8
0
 10
49.5497
 20
186.918
 11
49.1433
 21
186.623
  0
LINE
  8
0
 10
49.1433
 20
186.623
 11
48.7031
 21
186.381
  0
LINE
  8
0
 10
48.7031
 20
186.381
 11
48.2361
 21
186.196
  0
LINE
  8
0
 10
48.2361
 20
186.196
 11
47.7495
 21
186.071
  0
LINE
  8
0
 10
47.7495
 20
186.071
 11
47.2512
 21
186.008
  0
LINE
  8
0
 10
47.2512
 20
186.008
 11
-47.2512
 21
186.008
  0
LINE
  8
0
 10
-51
 20
161.941
 11
-50.6871
 21
161.647
  0
LINE
  8
0
 10
-50.6871
 20
161.647
 11
-50.1791
 21
161.278
  0
LINE
  8
0
 10
-50.1791
 20
161.278
 11
-49.6289
 21
160.976
  0
LINE
  8
0
 10
-49.6289
 20
160.976
 11
-49.0451
 21
160.745
  0
LINE
  8
0
 10
-49.0451
 20
160.745
 11
-48.4369
 21
160.589
  0
LINE
  8
0
 10
-48.4369
 20
160.589
 11
-47.8139
 21
160.51
  0
LINE
  8
0
 10
-47.8139
 20
160.51
 11
47.8139
 21
160.51
  0
LINE
  8
0
 10
47.8139
 20
160.51
 11
48.4369
 21
160.589
  0
LINE
  8
0
 10
48.4369
 20
160.589
 11
49.0451
 21
160.745
  0
LINE
  8
0
 10
49.0451
 20
160.745
 11
49.6289
 21
160.976
  0
LINE
  8
0
 10
49.6289
 20
160.976
 11
50.1791
 21
161.278
  0
LINE
  8
0
 10
50.1791
 20
161.278
 11
50.6871
 21
161.647
  0
LINE
  8
0
 10
50.6871
 20
161.647
 11
51.1448
 21
162.077
  0
LINE
  8
0
 10
51.1448
 20
162.077
 11
51.5451
 21
162.561
  0
LINE
  8
0
 10
51.5451
 20
162.561
 11
51.8815
 21
163.091
  0
LINE
  8
0
 10
51.8815
 20
163.091
 11
52.1489
 21
163.659
  0
LINE
  8
0
 10
52.1489
 20
163.659
 11
52.3429
 21
164.257
  0
LINE
  8
0
 10
52.3429
 20
164.257
 11
52.4606
 21
164.873
  0
LINE
  8
0
 10
52.4606
 20
164.873
 11
52.5
 21
165.5
  0
LINE
  8
0
 10
52.5
 20
165.5
 11
52.5
 21
170.5
  0
LINE
  8
0
 10
52.5
 20
170.5
 11
52.4606
 21
171.127
  0
LINE
  8
0
 10
52.4606
 20
171.127
 11
52.3429
 21
171.743
  0
LINE
  8
0
 10
52.3429
 20
171.743
 11
52.1489
 21
172.341
  0
LINE
  8
0
 10
52.1489
 20
172.341
 11
51.8815
 21
172.909
  0
LINE
  8
0
 10
51.8815
 20
172.909
 11
51.5451
 21
173.439
  0
LINE
  8
0
 10
51.5451
 20
173.439
 11
51.1448
 21
173.923
  0
LINE
  8
0
 10
51.1448
 20
173.923
 11
50.6871
 21
174.353
  0
LINE
  8
0
 10
50.6871
 20
174.353
 11
50.1791
 21
174.722
  0
LINE
  8
0
 10
50.1791
 20
174.722
 11
49.6289
 21
175.024
  0
LINE
  8
0
 10
49.6289
 20
175.024
 11
49.0451
 21
175.255
  0
LINE
  8
0
 10
49.0451
 20
175.255
 11
48.4369
 21
175.411
  0
LINE
  8
0
 10
48.4369
 20
175.411
 11
47.8139
 21
175.49
  0
LINE
  8
0
 10
47.8139
 20
175.49
 11
-47.8139
 21
175.49
  0
LINE
  8
0
 10
-47.8139
 20
175.49
 11
-48.4369
 21
175.411
  0
LINE
  8
0
 10
-48.4369
 20
175.411
 11
-49.0451
 21
175.255
  0
LINE
  8
0
 10
-49.0451
 20
175.255
 11
-49.6289
 21
175.024
  0
LINE
  8
0
 10
-49.6289
 20
175.024
 11
-50.1791
 21
174.722
  0
LINE
  8
0
 10
-50.1791
 20
174.722
 11
-50.6871
 21
174.353
  0
LINE
  8
0
 10
-50.6871
 20
174.353
 11
-51
 21
174.059
  0
LINE
  8
0
 10
-51
 20
174.059
 11
-51
 21
175.49
  0
LINE
  8
0
 10
-51
 20
175.49
 11
-54
 21
175.49
  0
LINE
  8
0
 10
-54
 20
175.49
 11
-54
 21
160.51
  0
LINE
  8
0
 10
-54
 20
160.51
 11
-51
 21
160.51
  0
LINE
  8
0
 10
-51
 20
160.51
 11
-51
 21
161.941
  0
LINE
  8
0
 10
-47.2512
 20
162.008
 11
-47.7495
 21
162.071
  0
LINE
  8
0
 10
-47.7495
 20
162.071
 11
-48.2361
 21
162.196
  0
LINE
  8
0
 10
-48.2361
 20
162.196
 11
-48.7031
 21
162.381
  0
LINE
  8
0
 10
-48.7031
 20
162.381
 11
-49.1433
 21
162.623
  0
LINE
  8
0
 10
-49.1433
 20
162.623
 11
-49.5497
 21
162.918
  0
LINE
  8
0
 10
-49.5497
 20
162.918
 11
-49.9159
 21
163.262
  0
LINE
  8
0
 10
-49.9159
 20
163.262
 11
-50.2361
 21
163.649
  0
LINE
  8
0
 10
-50.2361
 20
163.649
 11
-50.5052
 21
164.073
  0
LINE
  8
0
 10
-50.5052
 20
164.073
 11
-50.7191
 21
164.528
  0
LINE
  8
0
 10
-50.7191
 20
164.528
 11
-50.8743
 21
165.005
  0
LINE
  8
0
 10
-50.8743
 20
165.005
 11
-50.9685
 21
165.499
  0
LINE
  8
0
 10
-50.9685
 20
165.499
 11
-51
 21
166
  0
LINE
  8
0
 10
-51
 20
166
 11
-51
 21
170
  0
LINE
  8
0
 10
-51
 20
170
 11
-50.9685
 21
170.501
  0
LINE
  8
0
 10
-50.9685
 20
170.501
 11
-50.8743
 21
170.995
  0
LINE
  8
0
 10
-50.8743
 20
170.995
 11
-50.7191
 21
171.472
  0
LINE
  8
0
 10
-50.7191
 20
171.472
 11
-50.5052
 21
171.927
  0
LINE
  8
0
 10
-50.5052
 20
171.927
 11
-50.2361
 21
172.351
  0
LINE
  8
0
 10
-50.2361
 20
172.351
 11
-49.9159
 21
172.738
  0
LINE
  8
0
 10
-49.9159
 20
172.738
 11
-49.5497
 21
173.082
  0
LINE
  8
0
 10
-49.5497
 20
173.082
 11
-49.1433
 21
173.377
  0
LINE
  8
0
 10
-49.1433
 20
173.377
 11
-48.7031
 21
173.619
  0
LINE
  8
0
 10
-48.7031
 20
173.619
 11
-48.2361
 21
173.804
  0
LINE
  8
0
 10
-48.2361
 20
173.804
 11
-47.7495
 21
173.929
  0
LINE
  8
0
 10
-47.7495
 20
173.929
 11
-47.2512
 21
173.992
  0
LINE
  8
0
 10
-47.2512
 20
173.992
 11
47.2512
 21
173.992
  0
LINE
  8
0
 10
47.2512
 20
173.992
 11
47.7495
 21
173.929
  0
LINE
  8
0
 10
47.7495
 20
173.929
 11
48.2361
 21
173.804
  0
LINE
  8
0
 10
48.2361
 20
173.804
 11
48.7031
 21
173.619
  0
LINE
  8
0
 10
48.7031
 20
173.619
 11
49.1433
 21
173.377
  0
LINE
  8
0
 10
49.1433
 20
173.377
 11
49.5497
 21
173.082
  0
LINE
  8
0
 10
49.5497
 20
173.082
 11
49.9159
 21
172.738
  0
LINE
  8
0
 10
49.9159
 20
172.738
 11
50.2361
 21
172.351
  0
LINE
  8
0
 10
50.2361
 20
172.351
 11
50.5052
 21
171.927
  0
LINE
  8
0
 10
50.5052
 20
171.927
 11
50.7191
 21
171.472
  0
LINE
  8
0
 10
50.7191
 20
171.472
 11
50.8743
 21
170.995
  0
LINE
  8
0
 10
50.8743
 20
170.995
 11
50.9685
 21
170.501
  0
LINE
  8
0
 10
50.9685
 20
170.501
 11
51
 21
170
  0
LINE
  8
0
 10
51
 20
170
 11
51
 21
166
  0
LINE
  8
0
 10
51
 20
166
 11
50.9685
 21
165.499
  0
LINE
  8
0
 10
50.9685
 20
165.499
 11
50.8743
 21
165.005
  0
LINE
  8
0
 10
50.8743
 20
165.005
 11
50.7191
 21
164.528
  0
LINE
  8
0
 10
50.7191
 20
164.528
 11
50.5052
 21
164.073
  0
LINE
  8
0
 10
50.5052
 20
164.073
 11
50.2361
 21
163.649
  0
LINE
  8
0
 10
50.2361
 20
163.649
 11
49.9159
 21
163.262
  0
LINE
  8
0
 10
49.9159
 20
163.262
 11
49.5497
 21
162.918
  0
LINE
  8
0
 10
49.5497
 20
162.918
 11
49.1433
 21
162.623
  0
LINE
  8
0
 10
49.1433
 20
162.623
 11
48.7031
 21
162.381
  0
LINE
  8
0
 10
48.7031
 20
162.381
 11
48.2361
 21
162.196
  0
LINE
  8
0
 10
48.2361
 20
162.196
 11
47.7495
 21
162.071
  0
LINE
  8
0
 10
47.7495
 20
162.071
 11
47.2512
 21
162.008
  0
LINE
  8
0
 10
47.2512
 20
162.008
 11
-47.2512
 21
162.008
  0
LINE
  8
0
 10
48.4369
 20
136.589
 11
49.0451
 21
136.745
  0
LINE
  8
0
 10
49.0451
 20
136.745
 11
49.6289
 21
136.976
  0
LINE
  8
0
 10
49.6289
 20
136.976
 11
50.1791
 21
137.278
  0
LINE
  8
0
 10
50.1791
 20
137.278
 11
50.6871
 21
137.647
  0
LINE
  8
0
 10
50.6871
 20
137.647
 11
51.1448
 21
138.077
  0
LINE
  8
0
 10
51.1448
 20
138.077
 11
51.5451
 21
138.561
  0
LINE
  8
0
 10
51.5451
 20
138.561
 11
51.8815
 21
139.091
  0
LINE
  8
0
 10
51.8815
 20
139.091
 11
52.1489
 21
139.659
  0
LINE
  8
0
 10
52.1489
 20
139.659
 11
52.3429
 21
140.257
  0
LINE
  8
0
 10
52.3429
 20
140.257
 11
52.4606
 21
140.873
  0
LINE
  8
0
 10
52.4606
 20
140.873
 11
52.5
 21
141.5
  0
LINE
  8
0
 10
52.5
 20
141.5
 11
52.5
 21
146.5
  0
LINE
  8
0
 10
52.5
 20
146.5
 11
52.4606
 21
147.127
  0
LINE
  8
0
 10
52.4606
 20
147.127
 11
52.3429
 21
147.743
  0
LINE
  8
0
 10
52.3429
 20
147.743
 11
52.1489
 21
148.341
  0
LINE
  8
0
 10
52.1489
 20
148.341
 11
51.8815
 21
148.909
  0
LINE
  8
0
 10
51.8815
 20
148.909
 11
51.5451
 21
149.439
  0
LINE
  8
0
 10
51.5451
 20
149.439
 11
51.1448
 21
149.923
  0
LINE
  8
0
 10
51.1448
 20
149.923
 11
50.6871
 21
150.353
  0
LINE
  8
0
 10
50.6871
 20
150.353
 11
50.1791
 21
150.722
  0
LINE
  8
0
 10
50.1791
 20
150.722
 11
49.6289
 21
151.024
  0
LINE
  8
0
 10
49.6289
 20
151.024
 11
49.0451
 21
151.255
  0
LINE
  8
0
 10
49.0451
 20
151.255
 11
48.4369
 21
151.411
  0
LINE
  8
0
 10
48.4369
 20
151.411
 11
47.8139
 21
151.49
  0
LINE
  8
0
 10
47.8139
 20
151.49
 11
-47.8139
 21
151.49
  0
LINE
  8
0
 10
-47.8139
 20
151.49
 11
-48.4369
 21
151.411
  0
LINE
  8
0
 10
-48.4369
 20
151.411
 11
-49.0451
 21
151.255
  0
LINE
  8
0
 10
-49.0451
 20
151.255
 11
-49.6289
 21
151.024
  0
LINE
  8
0
 10
-49.6289
 20
151.024
 11
-50.1791
 21
150.722
  0
LINE
  8
0
 10
-50.1791
 20
150.722
 11
-50.6871
 21
150.353
  0
LINE
  8
0
 10
-50.6871
 20
150.353
 11
-51
 21
150.059
  0
LINE
  8
0
 10
-51
 20
150.059
 11
-51
 21
151.479
  0
LINE
  8
0
 10
-51
 20
151.479
 11
-54
 21
151.479
  0
LINE
  8
0
 10
-54
 20
151.479
 11
-54
 21
136.521
  0
LINE
  8
0
 10
-54
 20
136.521
 11
-51
 21
136.521
  0
LINE
  8
0
 10
-51
 20
136.521
 11
-51
 21
137.941
  0
LINE
  8
0
 10
-51
 20
137.941
 11
-50.6871
 21
137.647
  0
LINE
  8
0
 10
-50.6871
 20
137.647
 11
-50.1791
 21
137.278
  0
LINE
  8
0
 10
-50.1791
 20
137.278
 11
-49.6289
 21
136.976
  0
LINE
  8
0
 10
-49.6289
 20
136.976
 11
-49.0451
 21
136.745
  0
LINE
  8
0
 10
-49.0451
 20
136.745
 11
-48.4369
 21
136.589
  0
LINE
  8
0
 10
-48.4369
 20
136.589
 11
-47.8139
 21
136.51
  0
LINE
  8
0
 10
-47.8139
 20
136.51
 11
47.8139
 21
136.51
  0
LINE
  8
0
 10
47.8139
 20
136.51
 11
48.4369
 21
136.589
  0
LINE
  8
0
 10
-47.1954
 20
138.893
 11
-47.5833
 21
138.942
  0
LINE
  8
0
 10
-47.5833
 20
138.942
 11
-47.9619
 21
139.039
  0
LINE
  8
0
 10
-47.9619
 20
139.039
 11
-48.3254
 21
139.183
  0
LINE
  8
0
 10
-48.3254
 20
139.183
 11
-48.668
 21
139.372
  0
LINE
  8
0
 10
-48.668
 20
139.372
 11
-48.9842
 21
139.601
  0
LINE
  8
0
 10
-48.9842
 20
139.601
 11
-49.2692
 21
139.869
  0
LINE
  8
0
 10
-49.2692
 20
139.869
 11
-49.5184
 21
140.17
  0
LINE
  8
0
 10
-49.5184
 20
140.17
 11
-49.7279
 21
140.5
  0
LINE
  8
0
 10
-49.7279
 20
140.5
 11
-49.8943
 21
140.854
  0
LINE
  8
0
 10
-49.8943
 20
140.854
 11
-50.0151
 21
141.226
  0
LINE
  8
0
 10
-50.0151
 20
141.226
 11
-50.0884
 21
141.61
  0
LINE
  8
0
 10
-50.0884
 20
141.61
 11
-50.1129
 21
142
  0
LINE
  8
0
 10
-50.1129
 20
142
 11
-50.1129
 21
146
  0
LINE
  8
0
 10
-50.1129
 20
146
 11
-50.0884
 21
146.39
  0
LINE
  8
0
 10
-50.0884
 20
146.39
 11
-50.0151
 21
146.774
  0
LINE
  8
0
 10
-50.0151
 20
146.774
 11
-49.8943
 21
147.146
  0
LINE
  8
0
 10
-49.8943
 20
147.146
 11
-49.7279
 21
147.5
  0
LINE
  8
0
 10
-49.7279
 20
147.5
 11
-49.5184
 21
147.83
  0
LINE
  8
0
 10
-49.5184
 20
147.83
 11
-49.2692
 21
148.131
  0
LINE
  8
0
 10
-49.2692
 20
148.131
 11
-48.9842
 21
148.399
  0
LINE
  8
0
 10
-48.9842
 20
148.399
 11
-48.668
 21
148.628
  0
LINE
  8
0
 10
-48.668
 20
148.628
 11
-48.3254
 21
148.817
  0
LINE
  8
0
 10
-48.3254
 20
148.817
 11
-47.9619
 21
148.961
  0
LINE
  8
0
 10
-47.9619
 20
148.961
 11
-47.5833
 21
149.058
  0
LINE
  8
0
 10
-47.5833
 20
149.058
 11
-47.1954
 21
149.107
  0
LINE
  8
0
 10
-47.1954
 20
149.107
 11
47.1954
 21
149.107
  0
LINE
  8
0
 10
47.1954
 20
149.107
 11
47.5833
 21
149.058
  0
LINE
  8
0
 10
47.5833
 20
149.058
 11
47.9619
 21
148.961
  0
LINE
  8
0
 10
47.9619
 20
148.961
 11
48.3254
 21
148.817
  0
LINE
  8
0
 10
48.3254
 20
148.817
 11
48.668
 21
148.628
  0
LINE
  8
0
 10
48.668
 20
148.628
 11
48.9842
 21
148.399
  0
LINE
  8
0
 10
48.9842
 20
148.399
 11
49.2692
 21
148.131
  0
LINE
  8
0
 10
49.2692
 20
148.131
 11
49.5184
 21
147.83
  0
LINE
  8
0
 10
49.5184
 20
147.83
 11
49.7279
 21
147.5
  0
LINE
  8
0
 10
49.7279
 20
147.5
 11
49.8943
 21
147.146
  0
LINE
  8
0
 10
49.8943
 20
147.146
 11
50.0151
 21
146.774
  0
LINE
  8
0
 10
50.0151
 20
146.774
 11
50.0884
 21
146.39
  0
LINE
  8
0
 10
50.0884
 20
146.39
 11
50.1129
 21
146
  0
LINE
  8
0
 10
50.1129
 20
146
 11
50.1129
 21
142
  0
LINE
  8
0
 10
50.1129
 20
142
 11
50.0884
 21
141.61
  0
LINE
  8
0
 10
50.0884
 20
141.61
 11
50.0151
 21
141.226
  0
LINE
  8
0
 10
50.0151
 20
141.226
 11
49.8943
 21
140.854
  0
LINE
  8
0
 10
49.8943
 20
140.854
 11
49.7279
 21
140.5
  0
LINE
  8
0
 10
49.7279
 20
140.5
 11
49.5184
 21
140.17
  0
LINE
  8
0
 10
49.5184
 20
140.17
 11
49.2692
 21
139.869
  0
LINE
  8
0
 10
49.2692
 20
139.869
 11
48.9842
 21
139.601
  0
LINE
  8
0
 10
48.9842
 20
139.601
 11
48.668
 21
139.372
  0
LINE
  8
0
 10
48.668
 20
139.372
 11
48.3254
 21
139.183
  0
LINE
  8
0
 10
48.3254
 20
139.183
 11
47.9619
 21
139.039
  0
LINE
  8
0
 10
47.9619
 20
139.039
 11
47.5833
 21
138.942
  0
LINE
  8
0
 10
47.5833
 20
138.942
 11
47.1954
 21
138.893
  0
LINE
  8
0
 10
47.1954
 20
138.893
 11
-47.1954
 21
138.893
  0
LINE
  8
0
 10
48.4369
 20
112.589
 11
49.0451
 21
112.745
  0
LINE
  8
0
 10
49.0451
 20
112.745
 11
49.6289
 21
112.976
  0
LINE
  8
0
 10
49.6289
 20
112.976
 11
50.1791
 21
113.278
  0
LINE
  8
0
 10
50.1791
 20
113.278
 11
50.6871
 21
113.647
  0
LINE
  8
0
 10
50.6871
 20
113.647
 11
51.1448
 21
114.077
  0
LINE
  8
0
 10
51.1448
 20
114.077
 11
51.5451
 21
114.561
  0
LINE
  8
0
 10
51.5451
 20
114.561
 11
51.8815
 21
115.091
  0
LINE
  8
0
 10
51.8815
 20
115.091
 11
52.1489
 21
115.659
  0
LINE
  8
0
 10
52.1489
 20
115.659
 11
52.3429
 21
116.257
  0
LINE
  8
0
 10
52.3429
 20
116.257
 11
52.4606
 21
116.873
  0
LINE
  8
0
 10
52.4606
 20
116.873
 11
52.5
 21
117.5
  0
LINE
  8
0
 10
52.5
 20
117.5
 11
52.5
 21
122.5
  0
LINE
  8
0
 10
52.5
 20
122.5
 11
52.4606
 21
123.127
  0
LINE
  8
0
 10
52.4606
 20
123.127
 11
52.3429
 21
123.743
  0
LINE
  8
0
 10
52.3429
 20
123.743
 11
52.1489
 21
124.341
  0
LINE
  8
0
 10
52.1489
 20
124.341
 11
51.8815
 21
124.909
  0
LINE
  8
0
 10
51.8815
 20
124.909
 11
51.5451
 21
125.439
  0
LINE
  8
0
 10
51.5451
 20
125.439
 11
51.1448
 21
125.923
  0
LINE
  8
0
 10
51.1448
 20
125.923
 11
50.6871
 21
126.353
  0
LINE
  8
0
 10
50.6871
 20
126.353
 11
50.1791
 21
126.722
  0
LINE
  8
0
 10
50.1791
 20
126.722
 11
49.6289
 21
127.024
  0
LINE
  8
0
 10
49.6289
 20
127.024
 11
49.0451
 21
127.255
  0
LINE
  8
0
 10
49.0451
 20
127.255
 11
48.4369
 21
127.411
  0
LINE
  8
0
 10
48.4369
 20
127.411
 11
47.8139
 21
127.49
  0
LINE
  8
0
 10
47.8139
 20
127.49
 11
-47.8139
 21
127.49
  0
LINE
  8
0
 10
-47.8139
 20
127.49
 11
-48.4369
 21
127.411
  0
LINE
  8
0
 10
-48.4369
 20
127.411
 11
-49.0451
 21
127.255
  0
LINE
  8
0
 10
-49.0451
 20
127.255
 11
-49.6289
 21
127.024
  0
LINE
  8
0
 10
-49.6289
 20
127.024
 11
-50.1791
 21
126.722
  0
LINE
  8
0
 10
-50.1791
 20
126.722
 11
-50.6871
 21
126.353
  0
LINE
  8
0
 10
-50.6871
 20
126.353
 11
-51
 21
126.059
  0
LINE
  8
0
 10
-51
 20
126.059
 11
-51
 21
126.153
  0
LINE
  8
0
 10
-51
 20
126.153
 11
-54
 21
126.153
  0
LINE
  8
0
 10
-54
 20
126.153
 11
-54
 21
113.847
  0
LINE
  8
0
 10
-54
 20
113.847
 11
-51
 21
113.847
  0
LINE
  8
0
 10
-51
 20
113.847
 11
-51
 21
113.941
  0
LINE
  8
0
 10
-51
 20
113.941
 11
-50.6871
 21
113.647
  0
LINE
  8
0
 10
-50.6871
 20
113.647
 11
-50.1791
 21
113.278
  0
LINE
  8
0
 10
-50.1791
 20
113.278
 11
-49.6289
 21
112.976
  0
LINE
  8
0
 10
-49.6289
 20
112.976
 11
-49.0451
 21
112.745
  0
LINE
  8
0
 10
-49.0451
 20
112.745
 11
-48.4369
 21
112.589
  0
LINE
  8
0
 10
-48.4369
 20
112.589
 11
-47.8139
 21
112.51
  0
LINE
  8
0
 10
-47.8139
 20
112.51
 11
47.8139
 21
112.51
  0
LINE
  8
0
 10
47.8139
 20
112.51
 11
48.4369
 21
112.589
  0
LINE
  8
0
 10
-45.1341
 20
117.869
 11
-45.4001
 21
117.903
  0
LINE
  8
0
 10
-45.4001
 20
117.903
 11
-45.6598
 21
117.969
  0
LINE
  8
0
 10
-45.6598
 20
117.969
 11
-45.9092
 21
118.068
  0
LINE
  8
0
 10
-45.9092
 20
118.068
 11
-46.1441
 21
118.197
  0
LINE
  8
0
 10
-46.1441
 20
118.197
 11
-46.3611
 21
118.355
  0
LINE
  8
0
 10
-46.3611
 20
118.355
 11
-46.5565
 21
118.538
  0
LINE
  8
0
 10
-46.5565
 20
118.538
 11
-46.7275
 21
118.745
  0
LINE
  8
0
 10
-46.7275
 20
118.745
 11
-46.8712
 21
118.971
  0
LINE
  8
0
 10
-46.8712
 20
118.971
 11
-46.9853
 21
119.214
  0
LINE
  8
0
 10
-46.9853
 20
119.214
 11
-47.0682
 21
119.469
  0
LINE
  8
0
 10
-47.0682
 20
119.469
 11
-47.1185
 21
119.732
  0
LINE
  8
0
 10
-47.1185
 20
119.732
 11
-47.1353
 21
120
  0
LINE
  8
0
 10
-47.1353
 20
120
 11
-47.1185
 21
120.268
  0
LINE
  8
0
 10
-47.1185
 20
120.268
 11
-47.0682
 21
120.531
  0
LINE
  8
0
 10
-47.0682
 20
120.531
 11
-46.9853
 21
120.786
  0
LINE
  8
0
 10
-46.9853
 20
120.786
 11
-46.8712
 21
121.029
  0
LINE
  8
0
 10
-46.8712
 20
121.029
 11
-46.7275
 21
121.255
  0
LINE
  8
0
 10
-46.7275
 20
121.255
 11
-46.5565
 21
121.462
  0
LINE
  8
0
 10
-46.5565
 20
121.462
 11
-46.3611
 21
121.645
  0
LINE
  8
0
 10
-46.3611
 20
121.645
 11
-46.1441
 21
121.803
  0
LINE
  8
0
 10
-46.1441
 20
121.803
 11
-45.9092
 21
121.932
  0
LINE
  8
0
 10
-45.9092
 20
121.932
 11
-45.6598
 21
122.031
  0
LINE
  8
0
 10
-45.6598
 20
122.031
 11
-45.4001
 21
122.097
  0
LINE
  8
0
 10
-45.4001
 20
122.097
 11
-45.1341
 21
122.131
  0
LINE
  8
0
 10
-45.1341
 20
122.131
 11
-44.8659
 21
122.131
  0
LINE
  8
0
 10
-44.8659
 20
122.131
 11
-44.5999
 21
122.097
  0
LINE
  8
0
 10
-44.5999
 20
122.097
 11
-44.3401
 21
122.031
  0
LINE
  8
0
 10
-44.3401
 20
122.031
 11
-44.0908
 21
121.932
  0
LINE
  8
0
 10
-44.0908
 20
121.932
 11
-43.8559
 21
121.803
  0
LINE
  8
0
 10
-43.8559
 20
121.803
 11
-43.6389
 21
121.645
  0
LINE
  8
0
 10
-43.6389
 20
121.645
 11
-43.4434
 21
121.462
  0
LINE
  8
0
 10
-43.4434
 20
121.462
 11
-43.2725
 21
121.255
  0
LINE
  8
0
 10
-43.2725
 20
121.255
 11
-43.1288
 21
121.029
  0
LINE
  8
0
 10
-43.1288
 20
121.029
 11
-43.0146
 21
120.786
  0
LINE
  8
0
 10
-43.0146
 20
120.786
 11
-42.9318
 21
120.531
  0
LINE
  8
0
 10
-42.9318
 20
120.531
 11
-42.8815
 21
120.268
  0
LINE
  8
0
 10
-42.8815
 20
120.268
 11
-42.8647
 21
120
  0
LINE
  8
0
 10
-42.8647
 20
120
 11
-42.8815
 21
119.732
  0
LINE
  8
0
 10
-42.8815
 20
119.732
 11
-42.9318
 21
119.469
  0
LINE
  8
0
 10
-42.9318
 20
119.469
 11
-43.0146
 21
119.214
  0
LINE
  8
0
 10
-43.0146
 20
119.214
 11
-43.1288
 21
118.971
  0
LINE
  8
0
 10
-43.1288
 20
118.971
 11
-43.2725
 21
118.745
  0
LINE
  8
0
 10
-43.2725
 20
118.745
 11
-43.4434
 21
118.538
  0
LINE
  8
0
 10
-43.4434
 20
118.538
 11
-43.6389
 21
118.355
  0
LINE
  8
0
 10
-43.6389
 20
118.355
 11
-43.8559
 21
118.197
  0
LINE
  8
0
 10
-43.8559
 20
118.197
 11
-44.0908
 21
118.068
  0
LINE
  8
0
 10
-44.0908
 20
118.068
 11
-44.3401
 21
117.969
  0
LINE
  8
0
 10
-44.3401
 20
117.969
 11
-44.5999
 21
117.903
  0
LINE
  8
0
 10
-44.5999
 20
117.903
 11
-44.8659
 21
117.869
  0
LINE
  8
0
 10
-44.8659
 20
117.869
 11
-45.1341
 21
117.869
  0
LINE
  8
0
 10
44.8659
 20
117.869
 11
44.5999
 21
117.903
  0
LINE
  8
0
 10
44.5999
 20
117.903
 11
44.3401
 21
117.969
  0
LINE
  8
0
 10
44.3401
 20
117.969
 11
44.0908
 21
118.068
  0
LINE
  8
0
 10
44.0908
 20
118.068
 11
43.8559
 21
118.197
  0
LINE
  8
0
 10
43.8559
 20
118.197
 11
43.6389
 21
118.355
  0
LINE
  8
0
 10
43.6389
 20
118.355
 11
43.4434
 21
118.538
  0
LINE
  8
0
 10
43.4434
 20
118.538
 11
43.2725
 21
118.745
  0
LINE
  8
0
 10
43.2725
 20
118.745
 11
43.1288
 21
118.971
  0
LINE
  8
0
 10
43.1288
 20
118.971
 11
43.0146
 21
119.214
  0
LINE
  8
0
 10
43.0146
 20
119.214
 11
42.9318
 21
119.469
  0
LINE
  8
0
 10
42.9318
 20
119.469
 11
42.8815
 21
119.732
  0
LINE
  8
0
 10
42.8815
 20
119.732
 11
42.8647
 21
120
  0
LINE
  8
0
 10
42.8647
 20
120
 11
42.8815
 21
120.268
  0
LINE
  8
0
 10
42.8815
 20
120.268
 11
42.9318
 21
120.531
  0
LINE
  8
0
 10
42.9318
 20
120.531
 11
43.0146
 21
120.786
  0
LINE
  8
0
 10
43.0146
 20
120.786
 11
43.1288
 21
121.029
  0
LINE
  8
0
 10
43.1288
 20
121.029
 11
43.2725
 21
121.255
  0
LINE
  8
0
 10
43.2725
 20
121.255
 11
43.4434
 21
121.462
  0
LINE
  8
0
 10
43.4434
 20
121.462
 11
43.6389
 21
121.645
  0
LINE
  8
0
 10
43.6389
 20
121.645
 11
43.8559
 21
121.803
  0
LINE
  8
0
 10
43.8559
 20
121.803
 11
44.0908
 21
121.932
  0
LINE
  8
0
 10
44.0908
 20
121.932
 11
44.3401
 21
122.031
  0
LINE
  8
0
 10
44.3401
 20
122.031
 11
44.5999
 21
122.097
  0
LINE
  8
0
 10
44.5999
 20
122.097
 11
44.8659
 21
122.131
  0
LINE
  8
0
 10
44.8659
 20
122.131
 11
45.1341
 21
122.131
  0
LINE
  8
0
 10
45.1341
 20
122.131
 11
45.4001
 21
122.097
  0
LINE
  8
0
 10
45.4001
 20
122.097
 11
45.6598
 21
122.031
  0
LINE
  8
0
 10
45.6598
 20
122.031
 11
45.9092
 21
121.932
  0
LINE
  8
0
 10
45.9092
 20
121.932
 11
46.1441
 21
121.803
  0
LINE
  8
0
 10
46.1441
 20
121.803
 11
46.3611
 21
121.645
  0
LINE
  8
0
 10
46.3611
 20
121.645
 11
46.5565
 21
121.462
  0
LINE
  8
0
 10
46.5565
 20
121.462
 11
46.7275
 21
121.255
  0
LINE
  8
0
 10
46.7275
 20
121.255
 11
46.8712
 21
121.029
  0
LINE
  8
0
 10
46.8712
 20
121.029
 11
46.9853
 21
120.786
  0
LINE
  8
0
 10
46.9853
 20
120.786
 11
47.0682
 21
120.531
  0
LINE
  8
0
 10
47.0682
 20
120.531
 11
47.1185
 21
120.268
  0
LINE
  8
0
 10
47.1185
 20
120.268
 11
47.1353
 21
120
  0
LINE
  8
0
 10
47.1353
 20
120
 11
47.1185
 21
119.732
  0
LINE
  8
0
 10
47.1185
 20
119.732
 11
47.0682
 21
119.469
  0
LINE
  8
0
 10
47.0682
 20
119.469
 11
46.9853
 21
119.214
  0
LINE
  8
0
 10
46.9853
 20
119.214
 11
46.8712
 21
118.971
  0
LINE
  8
0
 10
46.8712
 20
118.971
 11
46.7275
 21
118.745
  0
LINE
  8
0
 10
46.7275
 20
118.745
 11
46.5565
 21
118.538
  0
LINE
  8
0
 10
46.5565
 20
118.538
 11
46.3611
 21
118.355
  0
LINE
  8
0
 10
46.3611
 20
118.355
 11
46.1441
 21
118.197
  0
LINE
  8
0
 10
46.1441
 20
118.197
 11
45.9092
 21
118.068
  0
LINE
  8
0
 10
45.9092
 20
118.068
 11
45.6598
 21
117.969
  0
LINE
  8
0
 10
45.6598
 20
117.969
 11
45.4001
 21
117.903
  0
LINE
  8
0
 10
45.4001
 20
117.903
 11
45.1341
 21
117.869
  0
LINE
  8
0
 10
45.1341
 20
117.869
 11
44.8659
 21
117.869
  0
ENDSEC
  0
SECTION
  2
OBJECTS
  0
DICTIONARY
  0
ENDSEC
  0
EOF
