  0
SECTION
  2
BLOCKS
  0
ENDSEC
  0
SECTION
  2
ENTITIES
  0
LINE
  8
0
 10
25.9369
 20
289.589
 11
26.5451
 21
289.745
  0
LINE
  8
0
 10
26.5451
 20
289.745
 11
27.1289
 21
289.976
  0
LINE
  8
0
 10
27.1289
 20
289.976
 11
27.6791
 21
290.278
  0
LINE
  8
0
 10
27.6791
 20
290.278
 11
28.1871
 21
290.647
  0
LINE
  8
0
 10
28.1871
 20
290.647
 11
28.6448
 21
291.077
  0
LINE
  8
0
 10
28.6448
 20
291.077
 11
29.0451
 21
291.561
  0
LINE
  8
0
 10
29.0451
 20
291.561
 11
29.3815
 21
292.091
  0
LINE
  8
0
 10
29.3815
 20
292.091
 11
29.6489
 21
292.659
  0
LINE
  8
0
 10
29.6489
 20
292.659
 11
29.8429
 21
293.257
  0
LINE
  8
0
 10
29.8429
 20
293.257
 11
29.9606
 21
293.873
  0
LINE
  8
0
 10
29.9606
 20
293.873
 11
30
 21
294.5
  0
LINE
  8
0
 10
30
 20
294.5
 11
30
 21
389.5
  0
LINE
  8
0
 10
30
 20
389.5
 11
29.9606
 21
390.127
  0
LINE
  8
0
 10
29.9606
 20
390.127
 11
29.8429
 21
390.743
  0
LINE
  8
0
 10
29.8429
 20
390.743
 11
29.6489
 21
391.341
  0
LINE
  8
0
 10
29.6489
 20
391.341
 11
29.3815
 21
391.909
  0
LINE
  8
0
 10
29.3815
 20
391.909
 11
29.0451
 21
392.439
  0
LINE
  8
0
 10
29.0451
 20
392.439
 11
28.6448
 21
392.923
  0
LINE
  8
0
 10
28.6448
 20
392.923
 11
28.1871
 21
393.353
  0
LINE
  8
0
 10
28.1871
 20
393.353
 11
27.6791
 21
393.722
  0
LINE
  8
0
 10
27.6791
 20
393.722
 11
27.1289
 21
394.024
  0
LINE
  8
0
 10
27.1289
 20
394.024
 11
26.5451
 21
394.255
  0
LINE
  8
0
 10
26.5451
 20
394.255
 11
25.9369
 21
394.411
  0
LINE
  8
0
 10
25.9369
 20
394.411
 11
25.3139
 21
394.49
  0
LINE
  8
0
 10
25.3139
 20
394.49
 11
-25.3139
 21
394.49
  0
LINE
  8
0
 10
-25.3139
 20
394.49
 11
-25.9369
 21
394.411
  0
LINE
  8
0
 10
-25.9369
 20
394.411
 11
-26.5451
 21
394.255
  0
LINE
  8
0
 10
-26.5451
 20
394.255
 11
-27.1289
 21
394.024
  0
LINE
  8
0
 10
-27.1289
 20
394.024
 11
-27.6791
 21
393.722
  0
LINE
  8
0
 10
-27.6791
 20
393.722
 11
-28.1871
 21
393.353
  0
LINE
  8
0
 10
-28.1871
 20
393.353
 11
-28.6448
 21
392.923
  0
LINE
  8
0
 10
-28.6448
 20
392.923
 11
-29.0451
 21
392.439
  0
LINE
  8
0
 10
-29.0451
 20
392.439
 11
-29.3815
 21
391.909
  0
LINE
  8
0
 10
-29.3815
 20
391.909
 11
-29.6489
 21
391.341
  0
LINE
  8
0
 10
-29.6489
 20
391.341
 11
-29.8429
 21
390.743
  0
LINE
  8
0
 10
-29.8429
 20
390.743
 11
-29.9606
 21
390.127
  0
LINE
  8
0
 10
-29.9606
 20
390.127
 11
-30
 21
389.5
  0
LINE
  8
0
 10
-30
 20
389.5
 11
-30
 21
294.5
  0
LINE
  8
0
 10
-30
 20
294.5
 11
-29.9606
 21
293.873
  0
LINE
  8
0
 10
-29.9606
 20
293.873
 11
-29.8429
 21
293.257
  0
LINE
  8
0
 10
-29.8429
 20
293.257
 11
-29.6489
 21
292.659
  0
LINE
  8
0
 10
-29.6489
 20
292.659
 11
-29.3815
 21
292.091
  0
LINE
  8
0
 10
-29.3815
 20
292.091
 11
-29.0451
 21
291.561
  0
LINE
  8
0
 10
-29.0451
 20
291.561
 11
-28.6448
 21
291.077
  0
LINE
  8
0
 10
-28.6448
 20
291.077
 11
-28.1871
 21
290.647
  0
LINE
  8
0
 10
-28.1871
 20
290.647
 11
-27.6791
 21
290.278
  0
LINE
  8
0
 10
-27.6791
 20
290.278
 11
-27.1289
 21
289.976
  0
LINE
  8
0
 10
-27.1289
 20
289.976
 11
-26.5451
 21
289.745
  0
LINE
  8
0
 10
-26.5451
 20
289.745
 11
-25.9369
 21
289.589
  0
LINE
  8
0
 10
-25.9369
 20
289.589
 11
-25.3139
 21
289.51
  0
LINE
  8
0
 10
-25.3139
 20
289.51
 11
25.3139
 21
289.51
  0
LINE
  8
0
 10
25.3139
 20
289.51
 11
25.9369
 21
289.589
  0
LINE
  8
0
 10
-24.6954
 20
291.893
 11
-25.0833
 21
291.942
  0
LINE
  8
0
 10
-25.0833
 20
291.942
 11
-25.4619
 21
292.039
  0
LINE
  8
0
 10
-25.4619
 20
292.039
 11
-25.8254
 21
292.183
  0
LINE
  8
0
 10
-25.8254
 20
292.183
 11
-26.168
 21
292.372
  0
LINE
  8
0
 10
-26.168
 20
292.372
 11
-26.4842
 21
292.601
  0
LINE
  8
0
 10
-26.4842
 20
292.601
 11
-26.7692
 21
292.869
  0
LINE
  8
0
 10
-26.7692
 20
292.869
 11
-27.0184
 21
293.17
  0
LINE
  8
0
 10
-27.0184
 20
293.17
 11
-27.2279
 21
293.5
  0
LINE
  8
0
 10
-27.2279
 20
293.5
 11
-27.3943
 21
293.854
  0
LINE
  8
0
 10
-27.3943
 20
293.854
 11
-27.5151
 21
294.226
  0
LINE
  8
0
 10
-27.5151
 20
294.226
 11
-27.5884
 21
294.61
  0
LINE
  8
0
 10
-27.5884
 20
294.61
 11
-27.6129
 21
295
  0
LINE
  8
0
 10
-27.6129
 20
295
 11
-27.6129
 21
389
  0
LINE
  8
0
 10
-27.6129
 20
389
 11
-27.5884
 21
389.39
  0
LINE
  8
0
 10
-27.5884
 20
389.39
 11
-27.5151
 21
389.774
  0
LINE
  8
0
 10
-27.5151
 20
389.774
 11
-27.3943
 21
390.146
  0
LINE
  8
0
 10
-27.3943
 20
390.146
 11
-27.2279
 21
390.5
  0
LINE
  8
0
 10
-27.2279
 20
390.5
 11
-27.0184
 21
390.83
  0
LINE
  8
0
 10
-27.0184
 20
390.83
 11
-26.7692
 21
391.131
  0
LINE
  8
0
 10
-26.7692
 20
391.131
 11
-26.4842
 21
391.399
  0
LINE
  8
0
 10
-26.4842
 20
391.399
 11
-26.168
 21
391.628
  0
LINE
  8
0
 10
-26.168
 20
391.628
 11
-25.8254
 21
391.817
  0
LINE
  8
0
 10
-25.8254
 20
391.817
 11
-25.4619
 21
391.961
  0
LINE
  8
0
 10
-25.4619
 20
391.961
 11
-25.0833
 21
392.058
  0
LINE
  8
0
 10
-25.0833
 20
392.058
 11
-24.6954
 21
392.107
  0
LINE
  8
0
 10
-24.6954
 20
392.107
 11
24.6954
 21
392.107
  0
LINE
  8
0
 10
24.6954
 20
392.107
 11
25.0833
 21
392.058
  0
LINE
  8
0
 10
25.0833
 20
392.058
 11
25.4619
 21
391.961
  0
LINE
  8
0
 10
25.4619
 20
391.961
 11
25.8254
 21
391.817
  0
LINE
  8
0
 10
25.8254
 20
391.817
 11
26.168
 21
391.628
  0
LINE
  8
0
 10
26.168
 20
391.628
 11
26.4842
 21
391.399
  0
LINE
  8
0
 10
26.4842
 20
391.399
 11
26.7692
 21
391.131
  0
LINE
  8
0
 10
26.7692
 20
391.131
 11
27.0184
 21
390.83
  0
LINE
  8
0
 10
27.0184
 20
390.83
 11
27.2279
 21
390.5
  0
LINE
  8
0
 10
27.2279
 20
390.5
 11
27.3943
 21
390.146
  0
LINE
  8
0
 10
27.3943
 20
390.146
 11
27.5151
 21
389.774
  0
LINE
  8
0
 10
27.5151
 20
389.774
 11
27.5884
 21
389.39
  0
LINE
  8
0
 10
27.5884
 20
389.39
 11
27.6129
 21
389
  0
LINE
  8
0
 10
27.6129
 20
389
 11
27.6129
 21
295
  0
LINE
  8
0
 10
27.6129
 20
295
 11
27.5884
 21
294.61
  0
LINE
  8
0
 10
27.5884
 20
294.61
 11
27.5151
 21
294.226
  0
LINE
  8
0
 10
27.5151
 20
294.226
 11
27.3943
 21
293.854
  0
LINE
  8
0
 10
27.3943
 20
293.854
 11
27.2279
 21
293.5
  0
LINE
  8
0
 10
27.2279
 20
293.5
 11
27.0184
 21
293.17
  0
LINE
  8
0
 10
27.0184
 20
293.17
 11
26.7692
 21
292.869
  0
LINE
  8
0
 10
26.7692
 20
292.869
 11
26.4842
 21
292.601
  0
LINE
  8
0
 10
26.4842
 20
292.601
 11
26.168
 21
292.372
  0
LINE
  8
0
 10
26.168
 20
292.372
 11
25.8254
 21
292.183
  0
LINE
  8
0
 10
25.8254
 20
292.183
 11
25.4619
 21
292.039
  0
LINE
  8
0
 10
25.4619
 20
292.039
 11
25.0833
 21
291.942
  0
LINE
  8
0
 10
25.0833
 20
291.942
 11
24.6954
 21
291.893
  0
LINE
  8
0
 10
24.6954
 20
291.893
 11
-24.6954
 21
291.893
  0
LINE
  8
0
 10
25.9369
 20
175.589
 11
26.5451
 21
175.745
  0
LINE
  8
0
 10
26.5451
 20
175.745
 11
27.1289
 21
175.976
  0
LINE
  8
0
 10
27.1289
 20
175.976
 11
27.6791
 21
176.278
  0
LINE
  8
0
 10
27.6791
 20
176.278
 11
28.1871
 21
176.647
  0
LINE
  8
0
 10
28.1871
 20
176.647
 11
28.6448
 21
177.077
  0
LINE
  8
0
 10
28.6448
 20
177.077
 11
29.0451
 21
177.561
  0
LINE
  8
0
 10
29.0451
 20
177.561
 11
29.3815
 21
178.091
  0
LINE
  8
0
 10
29.3815
 20
178.091
 11
29.6489
 21
178.659
  0
LINE
  8
0
 10
29.6489
 20
178.659
 11
29.8429
 21
179.257
  0
LINE
  8
0
 10
29.8429
 20
179.257
 11
29.9606
 21
179.873
  0
LINE
  8
0
 10
29.9606
 20
179.873
 11
30
 21
180.5
  0
LINE
  8
0
 10
30
 20
180.5
 11
30
 21
275.5
  0
LINE
  8
0
 10
30
 20
275.5
 11
29.9606
 21
276.127
  0
LINE
  8
0
 10
29.9606
 20
276.127
 11
29.8429
 21
276.743
  0
LINE
  8
0
 10
29.8429
 20
276.743
 11
29.6489
 21
277.341
  0
LINE
  8
0
 10
29.6489
 20
277.341
 11
29.3815
 21
277.909
  0
LINE
  8
0
 10
29.3815
 20
277.909
 11
29.0451
 21
278.439
  0
LINE
  8
0
 10
29.0451
 20
278.439
 11
28.6448
 21
278.923
  0
LINE
  8
0
 10
28.6448
 20
278.923
 11
28.1871
 21
279.353
  0
LINE
  8
0
 10
28.1871
 20
279.353
 11
27.6791
 21
279.722
  0
LINE
  8
0
 10
27.6791
 20
279.722
 11
27.1289
 21
280.024
  0
LINE
  8
0
 10
27.1289
 20
280.024
 11
26.5451
 21
280.255
  0
LINE
  8
0
 10
26.5451
 20
280.255
 11
25.9369
 21
280.411
  0
LINE
  8
0
 10
25.9369
 20
280.411
 11
25.3139
 21
280.49
  0
LINE
  8
0
 10
25.3139
 20
280.49
 11
-25.3139
 21
280.49
  0
LINE
  8
0
 10
-25.3139
 20
280.49
 11
-25.9369
 21
280.411
  0
LINE
  8
0
 10
-25.9369
 20
280.411
 11
-26.5451
 21
280.255
  0
LINE
  8
0
 10
-26.5451
 20
280.255
 11
-27.1289
 21
280.024
  0
LINE
  8
0
 10
-27.1289
 20
280.024
 11
-27.6791
 21
279.722
  0
LINE
  8
0
 10
-27.6791
 20
279.722
 11
-28.1871
 21
279.353
  0
LINE
  8
0
 10
-28.1871
 20
279.353
 11
-28.6448
 21
278.923
  0
LINE
  8
0
 10
-28.6448
 20
278.923
 11
-29.0451
 21
278.439
  0
LINE
  8
0
 10
-29.0451
 20
278.439
 11
-29.3815
 21
277.909
  0
LINE
  8
0
 10
-29.3815
 20
277.909
 11
-29.6489
 21
277.341
  0
LINE
  8
0
 10
-29.6489
 20
277.341
 11
-29.8429
 21
276.743
  0
LINE
  8
0
 10
-29.8429
 20
276.743
 11
-29.9606
 21
276.127
  0
LINE
  8
0
 10
-29.9606
 20
276.127
 11
-30
 21
275.5
  0
LINE
  8
0
 10
-30
 20
275.5
 11
-30
 21
180.5
  0
LINE
  8
0
 10
-30
 20
180.5
 11
-29.9606
 21
179.873
  0
LINE
  8
0
 10
-29.9606
 20
179.873
 11
-29.8429
 21
179.257
  0
LINE
  8
0
 10
-29.8429
 20
179.257
 11
-29.6489
 21
178.659
  0
LINE
  8
0
 10
-29.6489
 20
178.659
 11
-29.3815
 21
178.091
  0
LINE
  8
0
 10
-29.3815
 20
178.091
 11
-29.0451
 21
177.561
  0
LINE
  8
0
 10
-29.0451
 20
177.561
 11
-28.6448
 21
177.077
  0
LINE
  8
0
 10
-28.6448
 20
177.077
 11
-28.1871
 21
176.647
  0
LINE
  8
0
 10
-28.1871
 20
176.647
 11
-27.6791
 21
176.278
  0
LINE
  8
0
 10
-27.6791
 20
176.278
 11
-27.1289
 21
175.976
  0
LINE
  8
0
 10
-27.1289
 20
175.976
 11
-26.5451
 21
175.745
  0
LINE
  8
0
 10
-26.5451
 20
175.745
 11
-25.9369
 21
175.589
  0
LINE
  8
0
 10
-25.9369
 20
175.589
 11
-25.3139
 21
175.51
  0
LINE
  8
0
 10
-25.3139
 20
175.51
 11
25.3139
 21
175.51
  0
LINE
  8
0
 10
25.3139
 20
175.51
 11
25.9369
 21
175.589
  0
LINE
  8
0
 10
22.3659
 20
270.869
 11
22.0999
 21
270.903
  0
LINE
  8
0
 10
22.0999
 20
270.903
 11
21.8401
 21
270.969
  0
LINE
  8
0
 10
21.8401
 20
270.969
 11
21.5908
 21
271.068
  0
LINE
  8
0
 10
21.5908
 20
271.068
 11
21.3559
 21
271.197
  0
LINE
  8
0
 10
21.3559
 20
271.197
 11
21.1389
 21
271.355
  0
LINE
  8
0
 10
21.1389
 20
271.355
 11
20.9434
 21
271.538
  0
LINE
  8
0
 10
20.9434
 20
271.538
 11
20.7725
 21
271.745
  0
LINE
  8
0
 10
20.7725
 20
271.745
 11
20.6288
 21
271.971
  0
LINE
  8
0
 10
20.6288
 20
271.971
 11
20.5146
 21
272.214
  0
LINE
  8
0
 10
20.5146
 20
272.214
 11
20.4318
 21
272.469
  0
LINE
  8
0
 10
20.4318
 20
272.469
 11
20.3815
 21
272.732
  0
LINE
  8
0
 10
20.3815
 20
272.732
 11
20.3647
 21
273
  0
LINE
  8
0
 10
20.3647
 20
273
 11
20.3815
 21
273.268
  0
LINE
  8
0
 10
20.3815
 20
273.268
 11
20.4318
 21
273.531
  0
LINE
  8
0
 10
20.4318
 20
273.531
 11
20.5146
 21
273.786
  0
LINE
  8
0
 10
20.5146
 20
273.786
 11
20.6288
 21
274.029
  0
LINE
  8
0
 10
20.6288
 20
274.029
 11
20.7725
 21
274.255
  0
LINE
  8
0
 10
20.7725
 20
274.255
 11
20.9434
 21
274.462
  0
LINE
  8
0
 10
20.9434
 20
274.462
 11
21.1389
 21
274.645
  0
LINE
  8
0
 10
21.1389
 20
274.645
 11
21.3559
 21
274.803
  0
LINE
  8
0
 10
21.3559
 20
274.803
 11
21.5908
 21
274.932
  0
LINE
  8
0
 10
21.5908
 20
274.932
 11
21.8401
 21
275.031
  0
LINE
  8
0
 10
21.8401
 20
275.031
 11
22.0999
 21
275.097
  0
LINE
  8
0
 10
22.0999
 20
275.097
 11
22.3659
 21
275.131
  0
LINE
  8
0
 10
22.3659
 20
275.131
 11
22.6341
 21
275.131
  0
LINE
  8
0
 10
22.6341
 20
275.131
 11
22.9001
 21
275.097
  0
LINE
  8
0
 10
22.9001
 20
275.097
 11
23.1598
 21
275.031
  0
LINE
  8
0
 10
23.1598
 20
275.031
 11
23.4091
 21
274.932
  0
LINE
  8
0
 10
23.4091
 20
274.932
 11
23.6441
 21
274.803
  0
LINE
  8
0
 10
23.6441
 20
274.803
 11
23.8611
 21
274.645
  0
LINE
  8
0
 10
23.8611
 20
274.645
 11
24.0565
 21
274.462
  0
LINE
  8
0
 10
24.0565
 20
274.462
 11
24.2275
 21
274.255
  0
LINE
  8
0
 10
24.2275
 20
274.255
 11
24.3712
 21
274.029
  0
LINE
  8
0
 10
24.3712
 20
274.029
 11
24.4853
 21
273.786
  0
LINE
  8
0
 10
24.4853
 20
273.786
 11
24.5682
 21
273.531
  0
LINE
  8
0
 10
24.5682
 20
273.531
 11
24.6185
 21
273.268
  0
LINE
  8
0
 10
24.6185
 20
273.268
 11
24.6353
 21
273
  0
LINE
  8
0
 10
24.6353
 20
273
 11
24.6185
 21
272.732
  0
LINE
  8
0
 10
24.6185
 20
272.732
 11
24.5682
 21
272.469
  0
LINE
  8
0
 10
24.5682
 20
272.469
 11
24.4853
 21
272.214
  0
LINE
  8
0
 10
24.4853
 20
272.214
 11
24.3712
 21
271.971
  0
LINE
  8
0
 10
24.3712
 20
271.971
 11
24.2275
 21
271.745
  0
LINE
  8
0
 10
24.2275
 20
271.745
 11
24.0565
 21
271.538
  0
LINE
  8
0
 10
24.0565
 20
271.538
 11
23.8611
 21
271.355
  0
LINE
  8
0
 10
23.8611
 20
271.355
 11
23.6441
 21
271.197
  0
LINE
  8
0
 10
23.6441
 20
271.197
 11
23.4091
 21
271.068
  0
LINE
  8
0
 10
23.4091
 20
271.068
 11
23.1598
 21
270.969
  0
LINE
  8
0
 10
23.1598
 20
270.969
 11
22.9001
 21
270.903
  0
LINE
  8
0
 10
22.9001
 20
270.903
 11
22.6341
 21
270.869
  0
LINE
  8
0
 10
22.6341
 20
270.869
 11
22.3659
 21
270.869
  0
LINE
  8
0
 10
-22.6341
 20
270.869
 11
-22.9001
 21
270.903
  0
LINE
  8
0
 10
-22.9001
 20
270.903
 11
-23.1598
 21
270.969
  0
LINE
  8
0
 10
-23.1598
 20
270.969
 11
-23.4091
 21
271.068
  0
LINE
  8
0
 10
-23.4091
 20
271.068
 11
-23.6441
 21
271.197
  0
LINE
  8
0
 10
-23.6441
 20
271.197
 11
-23.8611
 21
271.355
  0
LINE
  8
0
 10
-23.8611
 20
271.355
 11
-24.0565
 21
271.538
  0
LINE
  8
0
 10
-24.0565
 20
271.538
 11
-24.2275
 21
271.745
  0
LINE
  8
0
 10
-24.2275
 20
271.745
 11
-24.3712
 21
271.971
  0
LINE
  8
0
 10
-24.3712
 20
271.971
 11
-24.4853
 21
272.214
  0
LINE
  8
0
 10
-24.4853
 20
272.214
 11
-24.5682
 21
272.469
  0
LINE
  8
0
 10
-24.5682
 20
272.469
 11
-24.6185
 21
272.732
  0
LINE
  8
0
 10
-24.6185
 20
272.732
 11
-24.6353
 21
273
  0
LINE
  8
0
 10
-24.6353
 20
273
 11
-24.6185
 21
273.268
  0
LINE
  8
0
 10
-24.6185
 20
273.268
 11
-24.5682
 21
273.531
  0
LINE
  8
0
 10
-24.5682
 20
273.531
 11
-24.4853
 21
273.786
  0
LINE
  8
0
 10
-24.4853
 20
273.786
 11
-24.3712
 21
274.029
  0
LINE
  8
0
 10
-24.3712
 20
274.029
 11
-24.2275
 21
274.255
  0
LINE
  8
0
 10
-24.2275
 20
274.255
 11
-24.0565
 21
274.462
  0
LINE
  8
0
 10
-24.0565
 20
274.462
 11
-23.8611
 21
274.645
  0
LINE
  8
0
 10
-23.8611
 20
274.645
 11
-23.6441
 21
274.803
  0
LINE
  8
0
 10
-23.6441
 20
274.803
 11
-23.4091
 21
274.932
  0
LINE
  8
0
 10
-23.4091
 20
274.932
 11
-23.1598
 21
275.031
  0
LINE
  8
0
 10
-23.1598
 20
275.031
 11
-22.9001
 21
275.097
  0
LINE
  8
0
 10
-22.9001
 20
275.097
 11
-22.6341
 21
275.131
  0
LINE
  8
0
 10
-22.6341
 20
275.131
 11
-22.3659
 21
275.131
  0
LINE
  8
0
 10
-22.3659
 20
275.131
 11
-22.0999
 21
275.097
  0
LINE
  8
0
 10
-22.0999
 20
275.097
 11
-21.8401
 21
275.031
  0
LINE
  8
0
 10
-21.8401
 20
275.031
 11
-21.5908
 21
274.932
  0
LINE
  8
0
 10
-21.5908
 20
274.932
 11
-21.3559
 21
274.803
  0
LINE
  8
0
 10
-21.3559
 20
274.803
 11
-21.1389
 21
274.645
  0
LINE
  8
0
 10
-21.1389
 20
274.645
 11
-20.9434
 21
274.462
  0
LINE
  8
0
 10
-20.9434
 20
274.462
 11
-20.7725
 21
274.255
  0
LINE
  8
0
 10
-20.7725
 20
274.255
 11
-20.6288
 21
274.029
  0
LINE
  8
0
 10
-20.6288
 20
274.029
 11
-20.5146
 21
273.786
  0
LINE
  8
0
 10
-20.5146
 20
273.786
 11
-20.4318
 21
273.531
  0
LINE
  8
0
 10
-20.4318
 20
273.531
 11
-20.3815
 21
273.268
  0
LINE
  8
0
 10
-20.3815
 20
273.268
 11
-20.3647
 21
273
  0
LINE
  8
0
 10
-20.3647
 20
273
 11
-20.3815
 21
272.732
  0
LINE
  8
0
 10
-20.3815
 20
272.732
 11
-20.4318
 21
272.469
  0
LINE
  8
0
 10
-20.4318
 20
272.469
 11
-20.5146
 21
272.214
  0
LINE
  8
0
 10
-20.5146
 20
272.214
 11
-20.6288
 21
271.971
  0
LINE
  8
0
 10
-20.6288
 20
271.971
 11
-20.7725
 21
271.745
  0
LINE
  8
0
 10
-20.7725
 20
271.745
 11
-20.9434
 21
271.538
  0
LINE
  8
0
 10
-20.9434
 20
271.538
 11
-21.1389
 21
271.355
  0
LINE
  8
0
 10
-21.1389
 20
271.355
 11
-21.3559
 21
271.197
  0
LINE
  8
0
 10
-21.3559
 20
271.197
 11
-21.5908
 21
271.068
  0
LINE
  8
0
 10
-21.5908
 20
271.068
 11
-21.8401
 21
270.969
  0
LINE
  8
0
 10
-21.8401
 20
270.969
 11
-22.0999
 21
270.903
  0
LINE
  8
0
 10
-22.0999
 20
270.903
 11
-22.3659
 21
270.869
  0
LINE
  8
0
 10
-22.3659
 20
270.869
 11
-22.6341
 21
270.869
  0
LINE
  8
0
 10
22.3659
 20
180.869
 11
22.0999
 21
180.903
  0
LINE
  8
0
 10
22.0999
 20
180.903
 11
21.8401
 21
180.969
  0
LINE
  8
0
 10
21.8401
 20
180.969
 11
21.5908
 21
181.068
  0
LINE
  8
0
 10
21.5908
 20
181.068
 11
21.3559
 21
181.197
  0
LINE
  8
0
 10
21.3559
 20
181.197
 11
21.1389
 21
181.355
  0
LINE
  8
0
 10
21.1389
 20
181.355
 11
20.9434
 21
181.538
  0
LINE
  8
0
 10
20.9434
 20
181.538
 11
20.7725
 21
181.745
  0
LINE
  8
0
 10
20.7725
 20
181.745
 11
20.6288
 21
181.971
  0
LINE
  8
0
 10
20.6288
 20
181.971
 11
20.5146
 21
182.214
  0
LINE
  8
0
 10
20.5146
 20
182.214
 11
20.4318
 21
182.469
  0
LINE
  8
0
 10
20.4318
 20
182.469
 11
20.3815
 21
182.732
  0
LINE
  8
0
 10
20.3815
 20
182.732
 11
20.3647
 21
183
  0
LINE
  8
0
 10
20.3647
 20
183
 11
20.3815
 21
183.268
  0
LINE
  8
0
 10
20.3815
 20
183.268
 11
20.4318
 21
183.531
  0
LINE
  8
0
 10
20.4318
 20
183.531
 11
20.5146
 21
183.786
  0
LINE
  8
0
 10
20.5146
 20
183.786
 11
20.6288
 21
184.029
  0
LINE
  8
0
 10
20.6288
 20
184.029
 11
20.7725
 21
184.255
  0
LINE
  8
0
 10
20.7725
 20
184.255
 11
20.9434
 21
184.462
  0
LINE
  8
0
 10
20.9434
 20
184.462
 11
21.1389
 21
184.645
  0
LINE
  8
0
 10
21.1389
 20
184.645
 11
21.3559
 21
184.803
  0
LINE
  8
0
 10
21.3559
 20
184.803
 11
21.5908
 21
184.932
  0
LINE
  8
0
 10
21.5908
 20
184.932
 11
21.8401
 21
185.031
  0
LINE
  8
0
 10
21.8401
 20
185.031
 11
22.0999
 21
185.097
  0
LINE
  8
0
 10
22.0999
 20
185.097
 11
22.3659
 21
185.131
  0
LINE
  8
0
 10
22.3659
 20
185.131
 11
22.6341
 21
185.131
  0
LINE
  8
0
 10
22.6341
 20
185.131
 11
22.9001
 21
185.097
  0
LINE
  8
0
 10
22.9001
 20
185.097
 11
23.1598
 21
185.031
  0
LINE
  8
0
 10
23.1598
 20
185.031
 11
23.4091
 21
184.932
  0
LINE
  8
0
 10
23.4091
 20
184.932
 11
23.6441
 21
184.803
  0
LINE
  8
0
 10
23.6441
 20
184.803
 11
23.8611
 21
184.645
  0
LINE
  8
0
 10
23.8611
 20
184.645
 11
24.0565
 21
184.462
  0
LINE
  8
0
 10
24.0565
 20
184.462
 11
24.2275
 21
184.255
  0
LINE
  8
0
 10
24.2275
 20
184.255
 11
24.3712
 21
184.029
  0
LINE
  8
0
 10
24.3712
 20
184.029
 11
24.4853
 21
183.786
  0
LINE
  8
0
 10
24.4853
 20
183.786
 11
24.5682
 21
183.531
  0
LINE
  8
0
 10
24.5682
 20
183.531
 11
24.6185
 21
183.268
  0
LINE
  8
0
 10
24.6185
 20
183.268
 11
24.6353
 21
183
  0
LINE
  8
0
 10
24.6353
 20
183
 11
24.6185
 21
182.732
  0
LINE
  8
0
 10
24.6185
 20
182.732
 11
24.5682
 21
182.469
  0
LINE
  8
0
 10
24.5682
 20
182.469
 11
24.4853
 21
182.214
  0
LINE
  8
0
 10
24.4853
 20
182.214
 11
24.3712
 21
181.971
  0
LINE
  8
0
 10
24.3712
 20
181.971
 11
24.2275
 21
181.745
  0
LINE
  8
0
 10
24.2275
 20
181.745
 11
24.0565
 21
181.538
  0
LINE
  8
0
 10
24.0565
 20
181.538
 11
23.8611
 21
181.355
  0
LINE
  8
0
 10
23.8611
 20
181.355
 11
23.6441
 21
181.197
  0
LINE
  8
0
 10
23.6441
 20
181.197
 11
23.4091
 21
181.068
  0
LINE
  8
0
 10
23.4091
 20
181.068
 11
23.1598
 21
180.969
  0
LINE
  8
0
 10
23.1598
 20
180.969
 11
22.9001
 21
180.903
  0
LINE
  8
0
 10
22.9001
 20
180.903
 11
22.6341
 21
180.869
  0
LINE
  8
0
 10
22.6341
 20
180.869
 11
22.3659
 21
180.869
  0
LINE
  8
0
 10
-22.6341
 20
180.869
 11
-22.9001
 21
180.903
  0
LINE
  8
0
 10
-22.9001
 20
180.903
 11
-23.1598
 21
180.969
  0
LINE
  8
0
 10
-23.1598
 20
180.969
 11
-23.4091
 21
181.068
  0
LINE
  8
0
 10
-23.4091
 20
181.068
 11
-23.6441
 21
181.197
  0
LINE
  8
0
 10
-23.6441
 20
181.197
 11
-23.8611
 21
181.355
  0
LINE
  8
0
 10
-23.8611
 20
181.355
 11
-24.0565
 21
181.538
  0
LINE
  8
0
 10
-24.0565
 20
181.538
 11
-24.2275
 21
181.745
  0
LINE
  8
0
 10
-24.2275
 20
181.745
 11
-24.3712
 21
181.971
  0
LINE
  8
0
 10
-24.3712
 20
181.971
 11
-24.4853
 21
182.214
  0
LINE
  8
0
 10
-24.4853
 20
182.214
 11
-24.5682
 21
182.469
  0
LINE
  8
0
 10
-24.5682
 20
182.469
 11
-24.6185
 21
182.732
  0
LINE
  8
0
 10
-24.6185
 20
182.732
 11
-24.6353
 21
183
  0
LINE
  8
0
 10
-24.6353
 20
183
 11
-24.6185
 21
183.268
  0
LINE
  8
0
 10
-24.6185
 20
183.268
 11
-24.5682
 21
183.531
  0
LINE
  8
0
 10
-24.5682
 20
183.531
 11
-24.4853
 21
183.786
  0
LINE
  8
0
 10
-24.4853
 20
183.786
 11
-24.3712
 21
184.029
  0
LINE
  8
0
 10
-24.3712
 20
184.029
 11
-24.2275
 21
184.255
  0
LINE
  8
0
 10
-24.2275
 20
184.255
 11
-24.0565
 21
184.462
  0
LINE
  8
0
 10
-24.0565
 20
184.462
 11
-23.8611
 21
184.645
  0
LINE
  8
0
 10
-23.8611
 20
184.645
 11
-23.6441
 21
184.803
  0
LINE
  8
0
 10
-23.6441
 20
184.803
 11
-23.4091
 21
184.932
  0
LINE
  8
0
 10
-23.4091
 20
184.932
 11
-23.1598
 21
185.031
  0
LINE
  8
0
 10
-23.1598
 20
185.031
 11
-22.9001
 21
185.097
  0
LINE
  8
0
 10
-22.9001
 20
185.097
 11
-22.6341
 21
185.131
  0
LINE
  8
0
 10
-22.6341
 20
185.131
 11
-22.3659
 21
185.131
  0
LINE
  8
0
 10
-22.3659
 20
185.131
 11
-22.0999
 21
185.097
  0
LINE
  8
0
 10
-22.0999
 20
185.097
 11
-21.8401
 21
185.031
  0
LINE
  8
0
 10
-21.8401
 20
185.031
 11
-21.5908
 21
184.932
  0
LINE
  8
0
 10
-21.5908
 20
184.932
 11
-21.3559
 21
184.803
  0
LINE
  8
0
 10
-21.3559
 20
184.803
 11
-21.1389
 21
184.645
  0
LINE
  8
0
 10
-21.1389
 20
184.645
 11
-20.9434
 21
184.462
  0
LINE
  8
0
 10
-20.9434
 20
184.462
 11
-20.7725
 21
184.255
  0
LINE
  8
0
 10
-20.7725
 20
184.255
 11
-20.6288
 21
184.029
  0
LINE
  8
0
 10
-20.6288
 20
184.029
 11
-20.5146
 21
183.786
  0
LINE
  8
0
 10
-20.5146
 20
183.786
 11
-20.4318
 21
183.531
  0
LINE
  8
0
 10
-20.4318
 20
183.531
 11
-20.3815
 21
183.268
  0
LINE
  8
0
 10
-20.3815
 20
183.268
 11
-20.3647
 21
183
  0
LINE
  8
0
 10
-20.3647
 20
183
 11
-20.3815
 21
182.732
  0
LINE
  8
0
 10
-20.3815
 20
182.732
 11
-20.4318
 21
182.469
  0
LINE
  8
0
 10
-20.4318
 20
182.469
 11
-20.5146
 21
182.214
  0
LINE
  8
0
 10
-20.5146
 20
182.214
 11
-20.6288
 21
181.971
  0
LINE
  8
0
 10
-20.6288
 20
181.971
 11
-20.7725
 21
181.745
  0
LINE
  8
0
 10
-20.7725
 20
181.745
 11
-20.9434
 21
181.538
  0
LINE
  8
0
 10
-20.9434
 20
181.538
 11
-21.1389
 21
181.355
  0
LINE
  8
0
 10
-21.1389
 20
181.355
 11
-21.3559
 21
181.197
  0
LINE
  8
0
 10
-21.3559
 20
181.197
 11
-21.5908
 21
181.068
  0
LINE
  8
0
 10
-21.5908
 20
181.068
 11
-21.8401
 21
180.969
  0
LINE
  8
0
 10
-21.8401
 20
180.969
 11
-22.0999
 21
180.903
  0
LINE
  8
0
 10
-22.0999
 20
180.903
 11
-22.3659
 21
180.869
  0
LINE
  8
0
 10
-22.3659
 20
180.869
 11
-22.6341
 21
180.869
  0
ENDSEC
  0
SECTION
  2
OBJECTS
  0
DICTIONARY
  0
ENDSEC
  0
EOF
