<?xml version="1.0" standalone="no"?>
<!DOCTYPE svg PUBLIC "-//W3C//DTD SVG 1.1//EN" "http://www.w3.org/Graphics/SVG/1.1/DTD/svg11.dtd">
<svg width="76mm" height="198mm" viewBox="-38 -375 76 198" xmlns="http://www.w3.org/2000/svg" version="1.1">
<title>OpenSCAD Model</title>
<path d="
M 33.4369,-315.089 L 34.0451,-315.245 L 34.6289,-315.476 L 35.1791,-315.778 L 35.6871,-316.147 L 36.1448,-316.577
 L 36.5451,-317.061 L 36.8815,-317.591 L 37.1489,-318.159 L 37.3429,-318.757 L 37.4606,-319.373 L 37.5,-320
 L 37.5,-370 L 37.4606,-370.627 L 37.3429,-371.243 L 37.1489,-371.841 L 36.8815,-372.409 L 36.5451,-372.939
 L 36.1448,-373.423 L 35.6871,-373.853 L 35.1791,-374.222 L 34.6289,-374.524 L 34.0451,-374.755 L 33.4369,-374.911
 L 32.8139,-374.99 L -32.8139,-374.99 L -33.4369,-374.911 L -34.0451,-374.755 L -34.6289,-374.524 L -35.1791,-374.222
 L -35.6871,-373.853 L -36.1448,-373.423 L -36.5451,-372.939 L -36.8815,-372.409 L -37.1489,-371.841 L -37.3429,-371.243
 L -37.4606,-370.627 L -37.5,-370 L -37.5,-320 L -37.4606,-319.373 L -37.3429,-318.757 L -37.1489,-318.159
 L -36.8815,-317.591 L -36.5451,-317.061 L -36.1448,-316.577 L -35.6871,-316.147 L -35.1791,-315.778 L -34.6289,-315.476
 L -34.0451,-315.245 L -33.4369,-315.089 L -32.8139,-315.01 L 32.8139,-315.01 z
M -32.5482,-315.509 L -33.1401,-315.584 L -33.7178,-315.732 L -34.2724,-315.952 L -34.7952,-316.239 L -35.2778,-316.59
 L -35.7126,-316.998 L -36.0928,-317.458 L -36.4124,-317.962 L -36.6664,-318.501 L -36.8508,-319.069 L -36.9625,-319.655
 L -37,-320.25 L -37,-369.75 L -36.9625,-370.345 L -36.8508,-370.931 L -36.6664,-371.499 L -36.4124,-372.038
 L -36.0928,-372.542 L -35.7126,-373.002 L -35.2778,-373.41 L -34.7952,-373.761 L -34.2724,-374.048 L -33.7178,-374.268
 L -33.1401,-374.416 L -32.5482,-374.491 L 32.5482,-374.491 L 33.1401,-374.416 L 33.7178,-374.268 L 34.2724,-374.048
 L 34.7952,-373.761 L 35.2778,-373.41 L 35.7126,-373.002 L 36.0928,-372.542 L 36.4124,-372.038 L 36.6664,-371.499
 L 36.8508,-370.931 L 36.9625,-370.345 L 37,-369.75 L 37,-320.25 L 36.9625,-319.655 L 36.8508,-319.069
 L 36.6664,-318.501 L 36.4124,-317.962 L 36.0928,-317.458 L 35.7126,-316.998 L 35.2778,-316.59 L 34.7952,-316.239
 L 34.2724,-315.952 L 33.7178,-315.732 L 33.1401,-315.584 L 32.5482,-315.509 z
M 33.4369,-246.089 L 34.0451,-246.245 L 34.6289,-246.476 L 35.1791,-246.778 L 35.6871,-247.147 L 36.1448,-247.577
 L 36.5451,-248.061 L 36.8815,-248.591 L 37.1489,-249.159 L 37.3429,-249.757 L 37.4606,-250.373 L 37.5,-251
 L 37.5,-301 L 37.4606,-301.627 L 37.3429,-302.243 L 37.1489,-302.841 L 36.8815,-303.409 L 36.5451,-303.939
 L 36.1448,-304.423 L 35.6871,-304.853 L 35.1791,-305.222 L 34.6289,-305.524 L 34.0451,-305.755 L 33.4369,-305.911
 L 32.8139,-305.99 L -32.8139,-305.99 L -33.4369,-305.911 L -34.0451,-305.755 L -34.6289,-305.524 L -35.1791,-305.222
 L -35.6871,-304.853 L -36.1448,-304.423 L -36.5451,-303.939 L -36.8815,-303.409 L -37.1489,-302.841 L -37.3429,-302.243
 L -37.4606,-301.627 L -37.5,-301 L -37.5,-251 L -37.4606,-250.373 L -37.3429,-249.757 L -37.1489,-249.159
 L -36.8815,-248.591 L -36.5451,-248.061 L -36.1448,-247.577 L -35.6871,-247.147 L -35.1791,-246.778 L -34.6289,-246.476
 L -34.0451,-246.245 L -33.4369,-246.089 L -32.8139,-246.01 L 32.8139,-246.01 z
M -32.5375,-246.681 L -33.1079,-246.753 L -33.6648,-246.896 L -34.1994,-247.107 L -34.7032,-247.384 L -35.1684,-247.722
 L -35.5875,-248.116 L -35.954,-248.559 L -36.2621,-249.044 L -36.5069,-249.565 L -36.6846,-250.111 L -36.7923,-250.676
 L -36.8284,-251.25 L -36.8284,-300.75 L -36.7923,-301.324 L -36.6846,-301.889 L -36.5069,-302.435 L -36.2621,-302.956
 L -35.954,-303.441 L -35.5875,-303.884 L -35.1684,-304.278 L -34.7032,-304.616 L -34.1994,-304.893 L -33.6648,-305.104
 L -33.1079,-305.247 L -32.5375,-305.319 L 32.5375,-305.319 L 33.1079,-305.247 L 33.6648,-305.104 L 34.1994,-304.893
 L 34.7032,-304.616 L 35.1684,-304.278 L 35.5875,-303.884 L 35.954,-303.441 L 36.2621,-302.956 L 36.5069,-302.435
 L 36.6846,-301.889 L 36.7923,-301.324 L 36.8284,-300.75 L 36.8284,-251.25 L 36.7923,-250.676 L 36.6846,-250.111
 L 36.5069,-249.565 L 36.2621,-249.044 L 35.954,-248.559 L 35.5875,-248.116 L 35.1684,-247.722 L 34.7032,-247.384
 L 34.1994,-247.107 L 33.6648,-246.896 L 33.1079,-246.753 L 32.5375,-246.681 z
M 33.4369,-177.089 L 34.0451,-177.245 L 34.6289,-177.476 L 35.1791,-177.778 L 35.6871,-178.147 L 36.1448,-178.577
 L 36.5451,-179.061 L 36.8815,-179.591 L 37.1489,-180.159 L 37.3429,-180.757 L 37.4606,-181.373 L 37.5,-182
 L 37.5,-232 L 37.4606,-232.627 L 37.3429,-233.243 L 37.1489,-233.841 L 36.8815,-234.409 L 36.5451,-234.939
 L 36.1448,-235.423 L 35.6871,-235.853 L 35.1791,-236.222 L 34.6289,-236.524 L 34.0451,-236.755 L 33.4369,-236.911
 L 32.8139,-236.99 L -32.8139,-236.99 L -33.4369,-236.911 L -34.0451,-236.755 L -34.6289,-236.524 L -35.1791,-236.222
 L -35.6871,-235.853 L -36.1448,-235.423 L -36.5451,-234.939 L -36.8815,-234.409 L -37.1489,-233.841 L -37.3429,-233.243
 L -37.4606,-232.627 L -37.5,-232 L -37.5,-182 L -37.4606,-181.373 L -37.3429,-180.757 L -37.1489,-180.159
 L -36.8815,-179.591 L -36.5451,-179.061 L -36.1448,-178.577 L -35.6871,-178.147 L -35.1791,-177.778 L -34.6289,-177.476
 L -34.0451,-177.245 L -33.4369,-177.089 L -32.8139,-177.01 L 32.8139,-177.01 z
M -32.3825,-180.145 L -32.6453,-180.178 L -32.9019,-180.244 L -33.1482,-180.341 L -33.3804,-180.469 L -33.5947,-180.625
 L -33.7879,-180.806 L -33.9567,-181.01 L -34.0987,-181.234 L -34.2115,-181.473 L -34.2934,-181.725 L -34.343,-181.986
 L -34.3596,-182.25 L -34.3596,-231.75 L -34.343,-232.014 L -34.2934,-232.275 L -34.2115,-232.527 L -34.0987,-232.766
 L -33.9567,-232.99 L -33.7879,-233.194 L -33.5947,-233.375 L -33.3804,-233.531 L -33.1482,-233.659 L -32.9019,-233.756
 L -32.6453,-233.822 L -32.3825,-233.855 L 32.3825,-233.855 L 32.6453,-233.822 L 32.9019,-233.756 L 33.1482,-233.659
 L 33.3804,-233.531 L 33.5947,-233.375 L 33.7879,-233.194 L 33.9567,-232.99 L 34.0987,-232.766 L 34.2115,-232.527
 L 34.2934,-232.275 L 34.343,-232.014 L 34.3596,-231.75 L 34.3596,-182.25 L 34.343,-181.986 L 34.2934,-181.725
 L 34.2115,-181.473 L 34.0987,-181.234 L 33.9567,-181.01 L 33.7879,-180.806 L 33.5947,-180.625 L 33.3804,-180.469
 L 33.1482,-180.341 L 32.9019,-180.244 L 32.6453,-180.178 L 32.3825,-180.145 z
" stroke="black" fill="lightgray" stroke-width="0.5"/>
</svg>
