  0
SECTION
  2
BLOCKS
  0
ENDSEC
  0
SECTION
  2
ENTITIES
  0
LINE
  8
0
 10
33.4369
 20
315.089
 11
34.0451
 21
315.245
  0
LINE
  8
0
 10
34.0451
 20
315.245
 11
34.6289
 21
315.476
  0
LINE
  8
0
 10
34.6289
 20
315.476
 11
35.1791
 21
315.778
  0
LINE
  8
0
 10
35.1791
 20
315.778
 11
35.6871
 21
316.147
  0
LINE
  8
0
 10
35.6871
 20
316.147
 11
36.1448
 21
316.577
  0
LINE
  8
0
 10
36.1448
 20
316.577
 11
36.5451
 21
317.061
  0
LINE
  8
0
 10
36.5451
 20
317.061
 11
36.8815
 21
317.591
  0
LINE
  8
0
 10
36.8815
 20
317.591
 11
37.1489
 21
318.159
  0
LINE
  8
0
 10
37.1489
 20
318.159
 11
37.3429
 21
318.757
  0
LINE
  8
0
 10
37.3429
 20
318.757
 11
37.4606
 21
319.373
  0
LINE
  8
0
 10
37.4606
 20
319.373
 11
37.5
 21
320
  0
LINE
  8
0
 10
37.5
 20
320
 11
37.5
 21
370
  0
LINE
  8
0
 10
37.5
 20
370
 11
37.4606
 21
370.627
  0
LINE
  8
0
 10
37.4606
 20
370.627
 11
37.3429
 21
371.243
  0
LINE
  8
0
 10
37.3429
 20
371.243
 11
37.1489
 21
371.841
  0
LINE
  8
0
 10
37.1489
 20
371.841
 11
36.8815
 21
372.409
  0
LINE
  8
0
 10
36.8815
 20
372.409
 11
36.5451
 21
372.939
  0
LINE
  8
0
 10
36.5451
 20
372.939
 11
36.1448
 21
373.423
  0
LINE
  8
0
 10
36.1448
 20
373.423
 11
35.6871
 21
373.853
  0
LINE
  8
0
 10
35.6871
 20
373.853
 11
35.1791
 21
374.222
  0
LINE
  8
0
 10
35.1791
 20
374.222
 11
34.6289
 21
374.524
  0
LINE
  8
0
 10
34.6289
 20
374.524
 11
34.0451
 21
374.755
  0
LINE
  8
0
 10
34.0451
 20
374.755
 11
33.4369
 21
374.911
  0
LINE
  8
0
 10
33.4369
 20
374.911
 11
32.8139
 21
374.99
  0
LINE
  8
0
 10
32.8139
 20
374.99
 11
-32.8139
 21
374.99
  0
LINE
  8
0
 10
-32.8139
 20
374.99
 11
-33.4369
 21
374.911
  0
LINE
  8
0
 10
-33.4369
 20
374.911
 11
-34.0451
 21
374.755
  0
LINE
  8
0
 10
-34.0451
 20
374.755
 11
-34.6289
 21
374.524
  0
LINE
  8
0
 10
-34.6289
 20
374.524
 11
-35.1791
 21
374.222
  0
LINE
  8
0
 10
-35.1791
 20
374.222
 11
-35.6871
 21
373.853
  0
LINE
  8
0
 10
-35.6871
 20
373.853
 11
-36.1448
 21
373.423
  0
LINE
  8
0
 10
-36.1448
 20
373.423
 11
-36.5451
 21
372.939
  0
LINE
  8
0
 10
-36.5451
 20
372.939
 11
-36.8815
 21
372.409
  0
LINE
  8
0
 10
-36.8815
 20
372.409
 11
-37.1489
 21
371.841
  0
LINE
  8
0
 10
-37.1489
 20
371.841
 11
-37.3429
 21
371.243
  0
LINE
  8
0
 10
-37.3429
 20
371.243
 11
-37.4606
 21
370.627
  0
LINE
  8
0
 10
-37.4606
 20
370.627
 11
-37.5
 21
370
  0
LINE
  8
0
 10
-37.5
 20
370
 11
-37.5
 21
320
  0
LINE
  8
0
 10
-37.5
 20
320
 11
-37.4606
 21
319.373
  0
LINE
  8
0
 10
-37.4606
 20
319.373
 11
-37.3429
 21
318.757
  0
LINE
  8
0
 10
-37.3429
 20
318.757
 11
-37.1489
 21
318.159
  0
LINE
  8
0
 10
-37.1489
 20
318.159
 11
-36.8815
 21
317.591
  0
LINE
  8
0
 10
-36.8815
 20
317.591
 11
-36.5451
 21
317.061
  0
LINE
  8
0
 10
-36.5451
 20
317.061
 11
-36.1448
 21
316.577
  0
LINE
  8
0
 10
-36.1448
 20
316.577
 11
-35.6871
 21
316.147
  0
LINE
  8
0
 10
-35.6871
 20
316.147
 11
-35.1791
 21
315.778
  0
LINE
  8
0
 10
-35.1791
 20
315.778
 11
-34.6289
 21
315.476
  0
LINE
  8
0
 10
-34.6289
 20
315.476
 11
-34.0451
 21
315.245
  0
LINE
  8
0
 10
-34.0451
 20
315.245
 11
-33.4369
 21
315.089
  0
LINE
  8
0
 10
-33.4369
 20
315.089
 11
-32.8139
 21
315.01
  0
LINE
  8
0
 10
-32.8139
 20
315.01
 11
32.8139
 21
315.01
  0
LINE
  8
0
 10
32.8139
 20
315.01
 11
33.4369
 21
315.089
  0
LINE
  8
0
 10
-32.5482
 20
315.509
 11
-33.1401
 21
315.584
  0
LINE
  8
0
 10
-33.1401
 20
315.584
 11
-33.7178
 21
315.732
  0
LINE
  8
0
 10
-33.7178
 20
315.732
 11
-34.2724
 21
315.952
  0
LINE
  8
0
 10
-34.2724
 20
315.952
 11
-34.7952
 21
316.239
  0
LINE
  8
0
 10
-34.7952
 20
316.239
 11
-35.2778
 21
316.59
  0
LINE
  8
0
 10
-35.2778
 20
316.59
 11
-35.7126
 21
316.998
  0
LINE
  8
0
 10
-35.7126
 20
316.998
 11
-36.0928
 21
317.458
  0
LINE
  8
0
 10
-36.0928
 20
317.458
 11
-36.4124
 21
317.962
  0
LINE
  8
0
 10
-36.4124
 20
317.962
 11
-36.6664
 21
318.501
  0
LINE
  8
0
 10
-36.6664
 20
318.501
 11
-36.8508
 21
319.069
  0
LINE
  8
0
 10
-36.8508
 20
319.069
 11
-36.9625
 21
319.655
  0
LINE
  8
0
 10
-36.9625
 20
319.655
 11
-37
 21
320.25
  0
LINE
  8
0
 10
-37
 20
320.25
 11
-37
 21
369.75
  0
LINE
  8
0
 10
-37
 20
369.75
 11
-36.9625
 21
370.345
  0
LINE
  8
0
 10
-36.9625
 20
370.345
 11
-36.8508
 21
370.931
  0
LINE
  8
0
 10
-36.8508
 20
370.931
 11
-36.6664
 21
371.499
  0
LINE
  8
0
 10
-36.6664
 20
371.499
 11
-36.4124
 21
372.038
  0
LINE
  8
0
 10
-36.4124
 20
372.038
 11
-36.0928
 21
372.542
  0
LINE
  8
0
 10
-36.0928
 20
372.542
 11
-35.7126
 21
373.002
  0
LINE
  8
0
 10
-35.7126
 20
373.002
 11
-35.2778
 21
373.41
  0
LINE
  8
0
 10
-35.2778
 20
373.41
 11
-34.7952
 21
373.761
  0
LINE
  8
0
 10
-34.7952
 20
373.761
 11
-34.2724
 21
374.048
  0
LINE
  8
0
 10
-34.2724
 20
374.048
 11
-33.7178
 21
374.268
  0
LINE
  8
0
 10
-33.7178
 20
374.268
 11
-33.1401
 21
374.416
  0
LINE
  8
0
 10
-33.1401
 20
374.416
 11
-32.5482
 21
374.491
  0
LINE
  8
0
 10
-32.5482
 20
374.491
 11
32.5482
 21
374.491
  0
LINE
  8
0
 10
32.5482
 20
374.491
 11
33.1401
 21
374.416
  0
LINE
  8
0
 10
33.1401
 20
374.416
 11
33.7178
 21
374.268
  0
LINE
  8
0
 10
33.7178
 20
374.268
 11
34.2724
 21
374.048
  0
LINE
  8
0
 10
34.2724
 20
374.048
 11
34.7952
 21
373.761
  0
LINE
  8
0
 10
34.7952
 20
373.761
 11
35.2778
 21
373.41
  0
LINE
  8
0
 10
35.2778
 20
373.41
 11
35.7126
 21
373.002
  0
LINE
  8
0
 10
35.7126
 20
373.002
 11
36.0928
 21
372.542
  0
LINE
  8
0
 10
36.0928
 20
372.542
 11
36.4124
 21
372.038
  0
LINE
  8
0
 10
36.4124
 20
372.038
 11
36.6664
 21
371.499
  0
LINE
  8
0
 10
36.6664
 20
371.499
 11
36.8508
 21
370.931
  0
LINE
  8
0
 10
36.8508
 20
370.931
 11
36.9625
 21
370.345
  0
LINE
  8
0
 10
36.9625
 20
370.345
 11
37
 21
369.75
  0
LINE
  8
0
 10
37
 20
369.75
 11
37
 21
320.25
  0
LINE
  8
0
 10
37
 20
320.25
 11
36.9625
 21
319.655
  0
LINE
  8
0
 10
36.9625
 20
319.655
 11
36.8508
 21
319.069
  0
LINE
  8
0
 10
36.8508
 20
319.069
 11
36.6664
 21
318.501
  0
LINE
  8
0
 10
36.6664
 20
318.501
 11
36.4124
 21
317.962
  0
LINE
  8
0
 10
36.4124
 20
317.962
 11
36.0928
 21
317.458
  0
LINE
  8
0
 10
36.0928
 20
317.458
 11
35.7126
 21
316.998
  0
LINE
  8
0
 10
35.7126
 20
316.998
 11
35.2778
 21
316.59
  0
LINE
  8
0
 10
35.2778
 20
316.59
 11
34.7952
 21
316.239
  0
LINE
  8
0
 10
34.7952
 20
316.239
 11
34.2724
 21
315.952
  0
LINE
  8
0
 10
34.2724
 20
315.952
 11
33.7178
 21
315.732
  0
LINE
  8
0
 10
33.7178
 20
315.732
 11
33.1401
 21
315.584
  0
LINE
  8
0
 10
33.1401
 20
315.584
 11
32.5482
 21
315.509
  0
LINE
  8
0
 10
32.5482
 20
315.509
 11
-32.5482
 21
315.509
  0
LINE
  8
0
 10
33.4369
 20
246.089
 11
34.0451
 21
246.245
  0
LINE
  8
0
 10
34.0451
 20
246.245
 11
34.6289
 21
246.476
  0
LINE
  8
0
 10
34.6289
 20
246.476
 11
35.1791
 21
246.778
  0
LINE
  8
0
 10
35.1791
 20
246.778
 11
35.6871
 21
247.147
  0
LINE
  8
0
 10
35.6871
 20
247.147
 11
36.1448
 21
247.577
  0
LINE
  8
0
 10
36.1448
 20
247.577
 11
36.5451
 21
248.061
  0
LINE
  8
0
 10
36.5451
 20
248.061
 11
36.8815
 21
248.591
  0
LINE
  8
0
 10
36.8815
 20
248.591
 11
37.1489
 21
249.159
  0
LINE
  8
0
 10
37.1489
 20
249.159
 11
37.3429
 21
249.757
  0
LINE
  8
0
 10
37.3429
 20
249.757
 11
37.4606
 21
250.373
  0
LINE
  8
0
 10
37.4606
 20
250.373
 11
37.5
 21
251
  0
LINE
  8
0
 10
37.5
 20
251
 11
37.5
 21
301
  0
LINE
  8
0
 10
37.5
 20
301
 11
37.4606
 21
301.627
  0
LINE
  8
0
 10
37.4606
 20
301.627
 11
37.3429
 21
302.243
  0
LINE
  8
0
 10
37.3429
 20
302.243
 11
37.1489
 21
302.841
  0
LINE
  8
0
 10
37.1489
 20
302.841
 11
36.8815
 21
303.409
  0
LINE
  8
0
 10
36.8815
 20
303.409
 11
36.5451
 21
303.939
  0
LINE
  8
0
 10
36.5451
 20
303.939
 11
36.1448
 21
304.423
  0
LINE
  8
0
 10
36.1448
 20
304.423
 11
35.6871
 21
304.853
  0
LINE
  8
0
 10
35.6871
 20
304.853
 11
35.1791
 21
305.222
  0
LINE
  8
0
 10
35.1791
 20
305.222
 11
34.6289
 21
305.524
  0
LINE
  8
0
 10
34.6289
 20
305.524
 11
34.0451
 21
305.755
  0
LINE
  8
0
 10
34.0451
 20
305.755
 11
33.4369
 21
305.911
  0
LINE
  8
0
 10
33.4369
 20
305.911
 11
32.8139
 21
305.99
  0
LINE
  8
0
 10
32.8139
 20
305.99
 11
-32.8139
 21
305.99
  0
LINE
  8
0
 10
-32.8139
 20
305.99
 11
-33.4369
 21
305.911
  0
LINE
  8
0
 10
-33.4369
 20
305.911
 11
-34.0451
 21
305.755
  0
LINE
  8
0
 10
-34.0451
 20
305.755
 11
-34.6289
 21
305.524
  0
LINE
  8
0
 10
-34.6289
 20
305.524
 11
-35.1791
 21
305.222
  0
LINE
  8
0
 10
-35.1791
 20
305.222
 11
-35.6871
 21
304.853
  0
LINE
  8
0
 10
-35.6871
 20
304.853
 11
-36.1448
 21
304.423
  0
LINE
  8
0
 10
-36.1448
 20
304.423
 11
-36.5451
 21
303.939
  0
LINE
  8
0
 10
-36.5451
 20
303.939
 11
-36.8815
 21
303.409
  0
LINE
  8
0
 10
-36.8815
 20
303.409
 11
-37.1489
 21
302.841
  0
LINE
  8
0
 10
-37.1489
 20
302.841
 11
-37.3429
 21
302.243
  0
LINE
  8
0
 10
-37.3429
 20
302.243
 11
-37.4606
 21
301.627
  0
LINE
  8
0
 10
-37.4606
 20
301.627
 11
-37.5
 21
301
  0
LINE
  8
0
 10
-37.5
 20
301
 11
-37.5
 21
251
  0
LINE
  8
0
 10
-37.5
 20
251
 11
-37.4606
 21
250.373
  0
LINE
  8
0
 10
-37.4606
 20
250.373
 11
-37.3429
 21
249.757
  0
LINE
  8
0
 10
-37.3429
 20
249.757
 11
-37.1489
 21
249.159
  0
LINE
  8
0
 10
-37.1489
 20
249.159
 11
-36.8815
 21
248.591
  0
LINE
  8
0
 10
-36.8815
 20
248.591
 11
-36.5451
 21
248.061
  0
LINE
  8
0
 10
-36.5451
 20
248.061
 11
-36.1448
 21
247.577
  0
LINE
  8
0
 10
-36.1448
 20
247.577
 11
-35.6871
 21
247.147
  0
LINE
  8
0
 10
-35.6871
 20
247.147
 11
-35.1791
 21
246.778
  0
LINE
  8
0
 10
-35.1791
 20
246.778
 11
-34.6289
 21
246.476
  0
LINE
  8
0
 10
-34.6289
 20
246.476
 11
-34.0451
 21
246.245
  0
LINE
  8
0
 10
-34.0451
 20
246.245
 11
-33.4369
 21
246.089
  0
LINE
  8
0
 10
-33.4369
 20
246.089
 11
-32.8139
 21
246.01
  0
LINE
  8
0
 10
-32.8139
 20
246.01
 11
32.8139
 21
246.01
  0
LINE
  8
0
 10
32.8139
 20
246.01
 11
33.4369
 21
246.089
  0
LINE
  8
0
 10
-32.5375
 20
246.681
 11
-33.1079
 21
246.753
  0
LINE
  8
0
 10
-33.1079
 20
246.753
 11
-33.6648
 21
246.896
  0
LINE
  8
0
 10
-33.6648
 20
246.896
 11
-34.1994
 21
247.107
  0
LINE
  8
0
 10
-34.1994
 20
247.107
 11
-34.7032
 21
247.384
  0
LINE
  8
0
 10
-34.7032
 20
247.384
 11
-35.1684
 21
247.722
  0
LINE
  8
0
 10
-35.1684
 20
247.722
 11
-35.5875
 21
248.116
  0
LINE
  8
0
 10
-35.5875
 20
248.116
 11
-35.954
 21
248.559
  0
LINE
  8
0
 10
-35.954
 20
248.559
 11
-36.2621
 21
249.044
  0
LINE
  8
0
 10
-36.2621
 20
249.044
 11
-36.5069
 21
249.565
  0
LINE
  8
0
 10
-36.5069
 20
249.565
 11
-36.6846
 21
250.111
  0
LINE
  8
0
 10
-36.6846
 20
250.111
 11
-36.7923
 21
250.676
  0
LINE
  8
0
 10
-36.7923
 20
250.676
 11
-36.8284
 21
251.25
  0
LINE
  8
0
 10
-36.8284
 20
251.25
 11
-36.8284
 21
300.75
  0
LINE
  8
0
 10
-36.8284
 20
300.75
 11
-36.7923
 21
301.324
  0
LINE
  8
0
 10
-36.7923
 20
301.324
 11
-36.6846
 21
301.889
  0
LINE
  8
0
 10
-36.6846
 20
301.889
 11
-36.5069
 21
302.435
  0
LINE
  8
0
 10
-36.5069
 20
302.435
 11
-36.2621
 21
302.956
  0
LINE
  8
0
 10
-36.2621
 20
302.956
 11
-35.954
 21
303.441
  0
LINE
  8
0
 10
-35.954
 20
303.441
 11
-35.5875
 21
303.884
  0
LINE
  8
0
 10
-35.5875
 20
303.884
 11
-35.1684
 21
304.278
  0
LINE
  8
0
 10
-35.1684
 20
304.278
 11
-34.7032
 21
304.616
  0
LINE
  8
0
 10
-34.7032
 20
304.616
 11
-34.1994
 21
304.893
  0
LINE
  8
0
 10
-34.1994
 20
304.893
 11
-33.6648
 21
305.104
  0
LINE
  8
0
 10
-33.6648
 20
305.104
 11
-33.1079
 21
305.247
  0
LINE
  8
0
 10
-33.1079
 20
305.247
 11
-32.5375
 21
305.319
  0
LINE
  8
0
 10
-32.5375
 20
305.319
 11
32.5375
 21
305.319
  0
LINE
  8
0
 10
32.5375
 20
305.319
 11
33.1079
 21
305.247
  0
LINE
  8
0
 10
33.1079
 20
305.247
 11
33.6648
 21
305.104
  0
LINE
  8
0
 10
33.6648
 20
305.104
 11
34.1994
 21
304.893
  0
LINE
  8
0
 10
34.1994
 20
304.893
 11
34.7032
 21
304.616
  0
LINE
  8
0
 10
34.7032
 20
304.616
 11
35.1684
 21
304.278
  0
LINE
  8
0
 10
35.1684
 20
304.278
 11
35.5875
 21
303.884
  0
LINE
  8
0
 10
35.5875
 20
303.884
 11
35.954
 21
303.441
  0
LINE
  8
0
 10
35.954
 20
303.441
 11
36.2621
 21
302.956
  0
LINE
  8
0
 10
36.2621
 20
302.956
 11
36.5069
 21
302.435
  0
LINE
  8
0
 10
36.5069
 20
302.435
 11
36.6846
 21
301.889
  0
LINE
  8
0
 10
36.6846
 20
301.889
 11
36.7923
 21
301.324
  0
LINE
  8
0
 10
36.7923
 20
301.324
 11
36.8284
 21
300.75
  0
LINE
  8
0
 10
36.8284
 20
300.75
 11
36.8284
 21
251.25
  0
LINE
  8
0
 10
36.8284
 20
251.25
 11
36.7923
 21
250.676
  0
LINE
  8
0
 10
36.7923
 20
250.676
 11
36.6846
 21
250.111
  0
LINE
  8
0
 10
36.6846
 20
250.111
 11
36.5069
 21
249.565
  0
LINE
  8
0
 10
36.5069
 20
249.565
 11
36.2621
 21
249.044
  0
LINE
  8
0
 10
36.2621
 20
249.044
 11
35.954
 21
248.559
  0
LINE
  8
0
 10
35.954
 20
248.559
 11
35.5875
 21
248.116
  0
LINE
  8
0
 10
35.5875
 20
248.116
 11
35.1684
 21
247.722
  0
LINE
  8
0
 10
35.1684
 20
247.722
 11
34.7032
 21
247.384
  0
LINE
  8
0
 10
34.7032
 20
247.384
 11
34.1994
 21
247.107
  0
LINE
  8
0
 10
34.1994
 20
247.107
 11
33.6648
 21
246.896
  0
LINE
  8
0
 10
33.6648
 20
246.896
 11
33.1079
 21
246.753
  0
LINE
  8
0
 10
33.1079
 20
246.753
 11
32.5375
 21
246.681
  0
LINE
  8
0
 10
32.5375
 20
246.681
 11
-32.5375
 21
246.681
  0
LINE
  8
0
 10
33.4369
 20
177.089
 11
34.0451
 21
177.245
  0
LINE
  8
0
 10
34.0451
 20
177.245
 11
34.6289
 21
177.476
  0
LINE
  8
0
 10
34.6289
 20
177.476
 11
35.1791
 21
177.778
  0
LINE
  8
0
 10
35.1791
 20
177.778
 11
35.6871
 21
178.147
  0
LINE
  8
0
 10
35.6871
 20
178.147
 11
36.1448
 21
178.577
  0
LINE
  8
0
 10
36.1448
 20
178.577
 11
36.5451
 21
179.061
  0
LINE
  8
0
 10
36.5451
 20
179.061
 11
36.8815
 21
179.591
  0
LINE
  8
0
 10
36.8815
 20
179.591
 11
37.1489
 21
180.159
  0
LINE
  8
0
 10
37.1489
 20
180.159
 11
37.3429
 21
180.757
  0
LINE
  8
0
 10
37.3429
 20
180.757
 11
37.4606
 21
181.373
  0
LINE
  8
0
 10
37.4606
 20
181.373
 11
37.5
 21
182
  0
LINE
  8
0
 10
37.5
 20
182
 11
37.5
 21
232
  0
LINE
  8
0
 10
37.5
 20
232
 11
37.4606
 21
232.627
  0
LINE
  8
0
 10
37.4606
 20
232.627
 11
37.3429
 21
233.243
  0
LINE
  8
0
 10
37.3429
 20
233.243
 11
37.1489
 21
233.841
  0
LINE
  8
0
 10
37.1489
 20
233.841
 11
36.8815
 21
234.409
  0
LINE
  8
0
 10
36.8815
 20
234.409
 11
36.5451
 21
234.939
  0
LINE
  8
0
 10
36.5451
 20
234.939
 11
36.1448
 21
235.423
  0
LINE
  8
0
 10
36.1448
 20
235.423
 11
35.6871
 21
235.853
  0
LINE
  8
0
 10
35.6871
 20
235.853
 11
35.1791
 21
236.222
  0
LINE
  8
0
 10
35.1791
 20
236.222
 11
34.6289
 21
236.524
  0
LINE
  8
0
 10
34.6289
 20
236.524
 11
34.0451
 21
236.755
  0
LINE
  8
0
 10
34.0451
 20
236.755
 11
33.4369
 21
236.911
  0
LINE
  8
0
 10
33.4369
 20
236.911
 11
32.8139
 21
236.99
  0
LINE
  8
0
 10
32.8139
 20
236.99
 11
-32.8139
 21
236.99
  0
LINE
  8
0
 10
-32.8139
 20
236.99
 11
-33.4369
 21
236.911
  0
LINE
  8
0
 10
-33.4369
 20
236.911
 11
-34.0451
 21
236.755
  0
LINE
  8
0
 10
-34.0451
 20
236.755
 11
-34.6289
 21
236.524
  0
LINE
  8
0
 10
-34.6289
 20
236.524
 11
-35.1791
 21
236.222
  0
LINE
  8
0
 10
-35.1791
 20
236.222
 11
-35.6871
 21
235.853
  0
LINE
  8
0
 10
-35.6871
 20
235.853
 11
-36.1448
 21
235.423
  0
LINE
  8
0
 10
-36.1448
 20
235.423
 11
-36.5451
 21
234.939
  0
LINE
  8
0
 10
-36.5451
 20
234.939
 11
-36.8815
 21
234.409
  0
LINE
  8
0
 10
-36.8815
 20
234.409
 11
-37.1489
 21
233.841
  0
LINE
  8
0
 10
-37.1489
 20
233.841
 11
-37.3429
 21
233.243
  0
LINE
  8
0
 10
-37.3429
 20
233.243
 11
-37.4606
 21
232.627
  0
LINE
  8
0
 10
-37.4606
 20
232.627
 11
-37.5
 21
232
  0
LINE
  8
0
 10
-37.5
 20
232
 11
-37.5
 21
182
  0
LINE
  8
0
 10
-37.5
 20
182
 11
-37.4606
 21
181.373
  0
LINE
  8
0
 10
-37.4606
 20
181.373
 11
-37.3429
 21
180.757
  0
LINE
  8
0
 10
-37.3429
 20
180.757
 11
-37.1489
 21
180.159
  0
LINE
  8
0
 10
-37.1489
 20
180.159
 11
-36.8815
 21
179.591
  0
LINE
  8
0
 10
-36.8815
 20
179.591
 11
-36.5451
 21
179.061
  0
LINE
  8
0
 10
-36.5451
 20
179.061
 11
-36.1448
 21
178.577
  0
LINE
  8
0
 10
-36.1448
 20
178.577
 11
-35.6871
 21
178.147
  0
LINE
  8
0
 10
-35.6871
 20
178.147
 11
-35.1791
 21
177.778
  0
LINE
  8
0
 10
-35.1791
 20
177.778
 11
-34.6289
 21
177.476
  0
LINE
  8
0
 10
-34.6289
 20
177.476
 11
-34.0451
 21
177.245
  0
LINE
  8
0
 10
-34.0451
 20
177.245
 11
-33.4369
 21
177.089
  0
LINE
  8
0
 10
-33.4369
 20
177.089
 11
-32.8139
 21
177.01
  0
LINE
  8
0
 10
-32.8139
 20
177.01
 11
32.8139
 21
177.01
  0
LINE
  8
0
 10
32.8139
 20
177.01
 11
33.4369
 21
177.089
  0
LINE
  8
0
 10
-32.3825
 20
180.145
 11
-32.6453
 21
180.178
  0
LINE
  8
0
 10
-32.6453
 20
180.178
 11
-32.9019
 21
180.244
  0
LINE
  8
0
 10
-32.9019
 20
180.244
 11
-33.1482
 21
180.341
  0
LINE
  8
0
 10
-33.1482
 20
180.341
 11
-33.3804
 21
180.469
  0
LINE
  8
0
 10
-33.3804
 20
180.469
 11
-33.5947
 21
180.625
  0
LINE
  8
0
 10
-33.5947
 20
180.625
 11
-33.7879
 21
180.806
  0
LINE
  8
0
 10
-33.7879
 20
180.806
 11
-33.9567
 21
181.01
  0
LINE
  8
0
 10
-33.9567
 20
181.01
 11
-34.0987
 21
181.234
  0
LINE
  8
0
 10
-34.0987
 20
181.234
 11
-34.2115
 21
181.473
  0
LINE
  8
0
 10
-34.2115
 20
181.473
 11
-34.2934
 21
181.725
  0
LINE
  8
0
 10
-34.2934
 20
181.725
 11
-34.343
 21
181.986
  0
LINE
  8
0
 10
-34.343
 20
181.986
 11
-34.3596
 21
182.25
  0
LINE
  8
0
 10
-34.3596
 20
182.25
 11
-34.3596
 21
231.75
  0
LINE
  8
0
 10
-34.3596
 20
231.75
 11
-34.343
 21
232.014
  0
LINE
  8
0
 10
-34.343
 20
232.014
 11
-34.2934
 21
232.275
  0
LINE
  8
0
 10
-34.2934
 20
232.275
 11
-34.2115
 21
232.527
  0
LINE
  8
0
 10
-34.2115
 20
232.527
 11
-34.0987
 21
232.766
  0
LINE
  8
0
 10
-34.0987
 20
232.766
 11
-33.9567
 21
232.99
  0
LINE
  8
0
 10
-33.9567
 20
232.99
 11
-33.7879
 21
233.194
  0
LINE
  8
0
 10
-33.7879
 20
233.194
 11
-33.5947
 21
233.375
  0
LINE
  8
0
 10
-33.5947
 20
233.375
 11
-33.3804
 21
233.531
  0
LINE
  8
0
 10
-33.3804
 20
233.531
 11
-33.1482
 21
233.659
  0
LINE
  8
0
 10
-33.1482
 20
233.659
 11
-32.9019
 21
233.756
  0
LINE
  8
0
 10
-32.9019
 20
233.756
 11
-32.6453
 21
233.822
  0
LINE
  8
0
 10
-32.6453
 20
233.822
 11
-32.3825
 21
233.855
  0
LINE
  8
0
 10
-32.3825
 20
233.855
 11
32.3825
 21
233.855
  0
LINE
  8
0
 10
32.3825
 20
233.855
 11
32.6453
 21
233.822
  0
LINE
  8
0
 10
32.6453
 20
233.822
 11
32.9019
 21
233.756
  0
LINE
  8
0
 10
32.9019
 20
233.756
 11
33.1482
 21
233.659
  0
LINE
  8
0
 10
33.1482
 20
233.659
 11
33.3804
 21
233.531
  0
LINE
  8
0
 10
33.3804
 20
233.531
 11
33.5947
 21
233.375
  0
LINE
  8
0
 10
33.5947
 20
233.375
 11
33.7879
 21
233.194
  0
LINE
  8
0
 10
33.7879
 20
233.194
 11
33.9567
 21
232.99
  0
LINE
  8
0
 10
33.9567
 20
232.99
 11
34.0987
 21
232.766
  0
LINE
  8
0
 10
34.0987
 20
232.766
 11
34.2115
 21
232.527
  0
LINE
  8
0
 10
34.2115
 20
232.527
 11
34.2934
 21
232.275
  0
LINE
  8
0
 10
34.2934
 20
232.275
 11
34.343
 21
232.014
  0
LINE
  8
0
 10
34.343
 20
232.014
 11
34.3596
 21
231.75
  0
LINE
  8
0
 10
34.3596
 20
231.75
 11
34.3596
 21
182.25
  0
LINE
  8
0
 10
34.3596
 20
182.25
 11
34.343
 21
181.986
  0
LINE
  8
0
 10
34.343
 20
181.986
 11
34.2934
 21
181.725
  0
LINE
  8
0
 10
34.2934
 20
181.725
 11
34.2115
 21
181.473
  0
LINE
  8
0
 10
34.2115
 20
181.473
 11
34.0987
 21
181.234
  0
LINE
  8
0
 10
34.0987
 20
181.234
 11
33.9567
 21
181.01
  0
LINE
  8
0
 10
33.9567
 20
181.01
 11
33.7879
 21
180.806
  0
LINE
  8
0
 10
33.7879
 20
180.806
 11
33.5947
 21
180.625
  0
LINE
  8
0
 10
33.5947
 20
180.625
 11
33.3804
 21
180.469
  0
LINE
  8
0
 10
33.3804
 20
180.469
 11
33.1482
 21
180.341
  0
LINE
  8
0
 10
33.1482
 20
180.341
 11
32.9019
 21
180.244
  0
LINE
  8
0
 10
32.9019
 20
180.244
 11
32.6453
 21
180.178
  0
LINE
  8
0
 10
32.6453
 20
180.178
 11
32.3825
 21
180.145
  0
LINE
  8
0
 10
32.3825
 20
180.145
 11
-32.3825
 21
180.145
  0
ENDSEC
  0
SECTION
  2
OBJECTS
  0
DICTIONARY
  0
ENDSEC
  0
EOF
