  0
SECTION
  2
BLOCKS
  0
ENDSEC
  0
SECTION
  2
ENTITIES
  0
LINE
  8
0
 10
70.9369
 20
63.0886
 11
71.5451
 21
63.2447
  0
LINE
  8
0
 10
71.5451
 20
63.2447
 11
72.1289
 21
63.4759
  0
LINE
  8
0
 10
72.1289
 20
63.4759
 11
72.6791
 21
63.7784
  0
LINE
  8
0
 10
72.6791
 20
63.7784
 11
73.1871
 21
64.1474
  0
LINE
  8
0
 10
73.1871
 20
64.1474
 11
73.6448
 21
64.5773
  0
LINE
  8
0
 10
73.6448
 20
64.5773
 11
74.0451
 21
65.0611
  0
LINE
  8
0
 10
74.0451
 20
65.0611
 11
74.3815
 21
65.5912
  0
LINE
  8
0
 10
74.3815
 20
65.5912
 11
74.6489
 21
66.1594
  0
LINE
  8
0
 10
74.6489
 20
66.1594
 11
74.8429
 21
66.7566
  0
LINE
  8
0
 10
74.8429
 20
66.7566
 11
74.9606
 21
67.3733
  0
LINE
  8
0
 10
74.9606
 20
67.3733
 11
75
 21
68
  0
LINE
  8
0
 10
75
 20
68
 11
75
 21
88
  0
LINE
  8
0
 10
75
 20
88
 11
74.9606
 21
88.6267
  0
LINE
  8
0
 10
74.9606
 20
88.6267
 11
74.8429
 21
89.2434
  0
LINE
  8
0
 10
74.8429
 20
89.2434
 11
74.6489
 21
89.8406
  0
LINE
  8
0
 10
74.6489
 20
89.8406
 11
74.3815
 21
90.4088
  0
LINE
  8
0
 10
74.3815
 20
90.4088
 11
74.0451
 21
90.9389
  0
LINE
  8
0
 10
74.0451
 20
90.9389
 11
73.6448
 21
91.4227
  0
LINE
  8
0
 10
73.6448
 20
91.4227
 11
73.1871
 21
91.8526
  0
LINE
  8
0
 10
73.1871
 20
91.8526
 11
72.6791
 21
92.2216
  0
LINE
  8
0
 10
72.6791
 20
92.2216
 11
72.1289
 21
92.5241
  0
LINE
  8
0
 10
72.1289
 20
92.5241
 11
71.5451
 21
92.7553
  0
LINE
  8
0
 10
71.5451
 20
92.7553
 11
70.9369
 21
92.9114
  0
LINE
  8
0
 10
70.9369
 20
92.9114
 11
70.3139
 21
92.9901
  0
LINE
  8
0
 10
70.3139
 20
92.9901
 11
-70.3139
 21
92.9901
  0
LINE
  8
0
 10
-70.3139
 20
92.9901
 11
-70.9369
 21
92.9114
  0
LINE
  8
0
 10
-70.9369
 20
92.9114
 11
-71.5451
 21
92.7553
  0
LINE
  8
0
 10
-71.5451
 20
92.7553
 11
-72.1289
 21
92.5241
  0
LINE
  8
0
 10
-72.1289
 20
92.5241
 11
-72.6791
 21
92.2216
  0
LINE
  8
0
 10
-72.6791
 20
92.2216
 11
-73.1871
 21
91.8526
  0
LINE
  8
0
 10
-73.1871
 20
91.8526
 11
-73.6448
 21
91.4227
  0
LINE
  8
0
 10
-73.6448
 20
91.4227
 11
-74.0451
 21
90.9389
  0
LINE
  8
0
 10
-74.0451
 20
90.9389
 11
-74.3815
 21
90.4088
  0
LINE
  8
0
 10
-74.3815
 20
90.4088
 11
-74.6489
 21
89.8406
  0
LINE
  8
0
 10
-74.6489
 20
89.8406
 11
-74.8429
 21
89.2434
  0
LINE
  8
0
 10
-74.8429
 20
89.2434
 11
-74.9606
 21
88.6267
  0
LINE
  8
0
 10
-74.9606
 20
88.6267
 11
-75
 21
88
  0
LINE
  8
0
 10
-75
 20
88
 11
-75
 21
68
  0
LINE
  8
0
 10
-75
 20
68
 11
-74.9606
 21
67.3733
  0
LINE
  8
0
 10
-74.9606
 20
67.3733
 11
-74.8429
 21
66.7566
  0
LINE
  8
0
 10
-74.8429
 20
66.7566
 11
-74.6489
 21
66.1594
  0
LINE
  8
0
 10
-74.6489
 20
66.1594
 11
-74.3815
 21
65.5912
  0
LINE
  8
0
 10
-74.3815
 20
65.5912
 11
-74.0451
 21
65.0611
  0
LINE
  8
0
 10
-74.0451
 20
65.0611
 11
-73.6448
 21
64.5773
  0
LINE
  8
0
 10
-73.6448
 20
64.5773
 11
-73.1871
 21
64.1474
  0
LINE
  8
0
 10
-73.1871
 20
64.1474
 11
-72.6791
 21
63.7784
  0
LINE
  8
0
 10
-72.6791
 20
63.7784
 11
-72.1289
 21
63.4759
  0
LINE
  8
0
 10
-72.1289
 20
63.4759
 11
-71.5451
 21
63.2447
  0
LINE
  8
0
 10
-71.5451
 20
63.2447
 11
-70.9369
 21
63.0886
  0
LINE
  8
0
 10
-70.9369
 20
63.0886
 11
-70.3139
 21
63.0099
  0
LINE
  8
0
 10
-70.3139
 20
63.0099
 11
70.3139
 21
63.0099
  0
LINE
  8
0
 10
70.3139
 20
63.0099
 11
70.9369
 21
63.0886
  0
LINE
  8
0
 10
-69.993
 20
64.3882
 11
-70.4751
 21
64.4491
  0
LINE
  8
0
 10
-70.4751
 20
64.4491
 11
-70.9457
 21
64.5699
  0
LINE
  8
0
 10
-70.9457
 20
64.5699
 11
-71.3975
 21
64.7488
  0
LINE
  8
0
 10
-71.3975
 20
64.7488
 11
-71.8234
 21
64.9829
  0
LINE
  8
0
 10
-71.8234
 20
64.9829
 11
-72.2165
 21
65.2685
  0
LINE
  8
0
 10
-72.2165
 20
65.2685
 11
-72.5707
 21
65.6012
  0
LINE
  8
0
 10
-72.5707
 20
65.6012
 11
-72.8805
 21
65.9756
  0
LINE
  8
0
 10
-72.8805
 20
65.9756
 11
-73.1408
 21
66.3859
  0
LINE
  8
0
 10
-73.1408
 20
66.3859
 11
-73.3477
 21
66.8256
  0
LINE
  8
0
 10
-73.3477
 20
66.8256
 11
-73.4979
 21
67.2877
  0
LINE
  8
0
 10
-73.4979
 20
67.2877
 11
-73.589
 21
67.765
  0
LINE
  8
0
 10
-73.589
 20
67.765
 11
-73.6195
 21
68.25
  0
LINE
  8
0
 10
-73.6195
 20
68.25
 11
-73.6195
 21
87.75
  0
LINE
  8
0
 10
-73.6195
 20
87.75
 11
-73.589
 21
88.235
  0
LINE
  8
0
 10
-73.589
 20
88.235
 11
-73.4979
 21
88.7123
  0
LINE
  8
0
 10
-73.4979
 20
88.7123
 11
-73.3477
 21
89.1744
  0
LINE
  8
0
 10
-73.3477
 20
89.1744
 11
-73.1408
 21
89.6141
  0
LINE
  8
0
 10
-73.1408
 20
89.6141
 11
-72.8805
 21
90.0244
  0
LINE
  8
0
 10
-72.8805
 20
90.0244
 11
-72.5707
 21
90.3988
  0
LINE
  8
0
 10
-72.5707
 20
90.3988
 11
-72.2165
 21
90.7315
  0
LINE
  8
0
 10
-72.2165
 20
90.7315
 11
-71.8234
 21
91.0171
  0
LINE
  8
0
 10
-71.8234
 20
91.0171
 11
-71.3975
 21
91.2512
  0
LINE
  8
0
 10
-71.3975
 20
91.2512
 11
-70.9457
 21
91.4301
  0
LINE
  8
0
 10
-70.9457
 20
91.4301
 11
-70.4751
 21
91.5509
  0
LINE
  8
0
 10
-70.4751
 20
91.5509
 11
-69.993
 21
91.6118
  0
LINE
  8
0
 10
-69.993
 20
91.6118
 11
69.993
 21
91.6118
  0
LINE
  8
0
 10
69.993
 20
91.6118
 11
70.4751
 21
91.5509
  0
LINE
  8
0
 10
70.4751
 20
91.5509
 11
70.9457
 21
91.4301
  0
LINE
  8
0
 10
70.9457
 20
91.4301
 11
71.3975
 21
91.2512
  0
LINE
  8
0
 10
71.3975
 20
91.2512
 11
71.8234
 21
91.0171
  0
LINE
  8
0
 10
71.8234
 20
91.0171
 11
72.2165
 21
90.7315
  0
LINE
  8
0
 10
72.2165
 20
90.7315
 11
72.5707
 21
90.3988
  0
LINE
  8
0
 10
72.5707
 20
90.3988
 11
72.8805
 21
90.0244
  0
LINE
  8
0
 10
72.8805
 20
90.0244
 11
73.1408
 21
89.6141
  0
LINE
  8
0
 10
73.1408
 20
89.6141
 11
73.3477
 21
89.1744
  0
LINE
  8
0
 10
73.3477
 20
89.1744
 11
73.4979
 21
88.7123
  0
LINE
  8
0
 10
73.4979
 20
88.7123
 11
73.589
 21
88.235
  0
LINE
  8
0
 10
73.589
 20
88.235
 11
73.6195
 21
87.75
  0
LINE
  8
0
 10
73.6195
 20
87.75
 11
73.6195
 21
68.25
  0
LINE
  8
0
 10
73.6195
 20
68.25
 11
73.589
 21
67.765
  0
LINE
  8
0
 10
73.589
 20
67.765
 11
73.4979
 21
67.2877
  0
LINE
  8
0
 10
73.4979
 20
67.2877
 11
73.3477
 21
66.8256
  0
LINE
  8
0
 10
73.3477
 20
66.8256
 11
73.1408
 21
66.3859
  0
LINE
  8
0
 10
73.1408
 20
66.3859
 11
72.8805
 21
65.9756
  0
LINE
  8
0
 10
72.8805
 20
65.9756
 11
72.5707
 21
65.6012
  0
LINE
  8
0
 10
72.5707
 20
65.6012
 11
72.2165
 21
65.2685
  0
LINE
  8
0
 10
72.2165
 20
65.2685
 11
71.8234
 21
64.9829
  0
LINE
  8
0
 10
71.8234
 20
64.9829
 11
71.3975
 21
64.7488
  0
LINE
  8
0
 10
71.3975
 20
64.7488
 11
70.9457
 21
64.5699
  0
LINE
  8
0
 10
70.9457
 20
64.5699
 11
70.4751
 21
64.4491
  0
LINE
  8
0
 10
70.4751
 20
64.4491
 11
69.993
 21
64.3882
  0
LINE
  8
0
 10
69.993
 20
64.3882
 11
-69.993
 21
64.3882
  0
LINE
  8
0
 10
70.9369
 20
24.0886
 11
71.5451
 21
24.2447
  0
LINE
  8
0
 10
71.5451
 20
24.2447
 11
72.1289
 21
24.4759
  0
LINE
  8
0
 10
72.1289
 20
24.4759
 11
72.6791
 21
24.7784
  0
LINE
  8
0
 10
72.6791
 20
24.7784
 11
73.1871
 21
25.1474
  0
LINE
  8
0
 10
73.1871
 20
25.1474
 11
73.6448
 21
25.5773
  0
LINE
  8
0
 10
73.6448
 20
25.5773
 11
74.0451
 21
26.0611
  0
LINE
  8
0
 10
74.0451
 20
26.0611
 11
74.3815
 21
26.5912
  0
LINE
  8
0
 10
74.3815
 20
26.5912
 11
74.6489
 21
27.1594
  0
LINE
  8
0
 10
74.6489
 20
27.1594
 11
74.8429
 21
27.7566
  0
LINE
  8
0
 10
74.8429
 20
27.7566
 11
74.9606
 21
28.3733
  0
LINE
  8
0
 10
74.9606
 20
28.3733
 11
75
 21
29
  0
LINE
  8
0
 10
75
 20
29
 11
75
 21
49
  0
LINE
  8
0
 10
75
 20
49
 11
74.9606
 21
49.6267
  0
LINE
  8
0
 10
74.9606
 20
49.6267
 11
74.8429
 21
50.2434
  0
LINE
  8
0
 10
74.8429
 20
50.2434
 11
74.6489
 21
50.8406
  0
LINE
  8
0
 10
74.6489
 20
50.8406
 11
74.3815
 21
51.4088
  0
LINE
  8
0
 10
74.3815
 20
51.4088
 11
74.0451
 21
51.9389
  0
LINE
  8
0
 10
74.0451
 20
51.9389
 11
73.6448
 21
52.4227
  0
LINE
  8
0
 10
73.6448
 20
52.4227
 11
73.1871
 21
52.8526
  0
LINE
  8
0
 10
73.1871
 20
52.8526
 11
72.6791
 21
53.2216
  0
LINE
  8
0
 10
72.6791
 20
53.2216
 11
72.1289
 21
53.5241
  0
LINE
  8
0
 10
72.1289
 20
53.5241
 11
71.5451
 21
53.7553
  0
LINE
  8
0
 10
71.5451
 20
53.7553
 11
70.9369
 21
53.9114
  0
LINE
  8
0
 10
70.9369
 20
53.9114
 11
70.3139
 21
53.9901
  0
LINE
  8
0
 10
70.3139
 20
53.9901
 11
-70.3139
 21
53.9901
  0
LINE
  8
0
 10
-70.3139
 20
53.9901
 11
-70.9369
 21
53.9114
  0
LINE
  8
0
 10
-70.9369
 20
53.9114
 11
-71.5451
 21
53.7553
  0
LINE
  8
0
 10
-71.5451
 20
53.7553
 11
-72.1289
 21
53.5241
  0
LINE
  8
0
 10
-72.1289
 20
53.5241
 11
-72.6791
 21
53.2216
  0
LINE
  8
0
 10
-72.6791
 20
53.2216
 11
-73.1871
 21
52.8526
  0
LINE
  8
0
 10
-73.1871
 20
52.8526
 11
-73.6448
 21
52.4227
  0
LINE
  8
0
 10
-73.6448
 20
52.4227
 11
-74.0451
 21
51.9389
  0
LINE
  8
0
 10
-74.0451
 20
51.9389
 11
-74.3815
 21
51.4088
  0
LINE
  8
0
 10
-74.3815
 20
51.4088
 11
-74.6489
 21
50.8406
  0
LINE
  8
0
 10
-74.6489
 20
50.8406
 11
-74.8429
 21
50.2434
  0
LINE
  8
0
 10
-74.8429
 20
50.2434
 11
-74.9606
 21
49.6267
  0
LINE
  8
0
 10
-74.9606
 20
49.6267
 11
-75
 21
49
  0
LINE
  8
0
 10
-75
 20
49
 11
-75
 21
29
  0
LINE
  8
0
 10
-75
 20
29
 11
-74.9606
 21
28.3733
  0
LINE
  8
0
 10
-74.9606
 20
28.3733
 11
-74.8429
 21
27.7566
  0
LINE
  8
0
 10
-74.8429
 20
27.7566
 11
-74.6489
 21
27.1594
  0
LINE
  8
0
 10
-74.6489
 20
27.1594
 11
-74.3815
 21
26.5912
  0
LINE
  8
0
 10
-74.3815
 20
26.5912
 11
-74.0451
 21
26.0611
  0
LINE
  8
0
 10
-74.0451
 20
26.0611
 11
-73.6448
 21
25.5773
  0
LINE
  8
0
 10
-73.6448
 20
25.5773
 11
-73.1871
 21
25.1474
  0
LINE
  8
0
 10
-73.1871
 20
25.1474
 11
-72.6791
 21
24.7784
  0
LINE
  8
0
 10
-72.6791
 20
24.7784
 11
-72.1289
 21
24.4759
  0
LINE
  8
0
 10
-72.1289
 20
24.4759
 11
-71.5451
 21
24.2447
  0
LINE
  8
0
 10
-71.5451
 20
24.2447
 11
-70.9369
 21
24.0886
  0
LINE
  8
0
 10
-70.9369
 20
24.0886
 11
-70.3139
 21
24.0099
  0
LINE
  8
0
 10
-70.3139
 20
24.0099
 11
70.3139
 21
24.0099
  0
LINE
  8
0
 10
70.3139
 20
24.0099
 11
70.9369
 21
24.0886
  0
LINE
  8
0
 10
67.387
 20
44.7036
 11
67.1627
 21
44.7319
  0
LINE
  8
0
 10
67.1627
 20
44.7319
 11
66.9438
 21
44.7881
  0
LINE
  8
0
 10
66.9438
 20
44.7881
 11
66.7336
 21
44.8713
  0
LINE
  8
0
 10
66.7336
 20
44.8713
 11
66.5355
 21
44.9802
  0
LINE
  8
0
 10
66.5355
 20
44.9802
 11
66.3526
 21
45.1131
  0
LINE
  8
0
 10
66.3526
 20
45.1131
 11
66.1879
 21
45.2678
  0
LINE
  8
0
 10
66.1879
 20
45.2678
 11
66.0438
 21
45.442
  0
LINE
  8
0
 10
66.0438
 20
45.442
 11
65.9226
 21
45.6328
  0
LINE
  8
0
 10
65.9226
 20
45.6328
 11
65.8264
 21
45.8374
  0
LINE
  8
0
 10
65.8264
 20
45.8374
 11
65.7565
 21
46.0524
  0
LINE
  8
0
 10
65.7565
 20
46.0524
 11
65.7142
 21
46.2744
  0
LINE
  8
0
 10
65.7142
 20
46.2744
 11
65.7
 21
46.5
  0
LINE
  8
0
 10
65.7
 20
46.5
 11
65.7142
 21
46.7256
  0
LINE
  8
0
 10
65.7142
 20
46.7256
 11
65.7565
 21
46.9476
  0
LINE
  8
0
 10
65.7565
 20
46.9476
 11
65.8264
 21
47.1626
  0
LINE
  8
0
 10
65.8264
 20
47.1626
 11
65.9226
 21
47.3671
  0
LINE
  8
0
 10
65.9226
 20
47.3671
 11
66.0438
 21
47.558
  0
LINE
  8
0
 10
66.0438
 20
47.558
 11
66.1879
 21
47.7322
  0
LINE
  8
0
 10
66.1879
 20
47.7322
 11
66.3526
 21
47.8869
  0
LINE
  8
0
 10
66.3526
 20
47.8869
 11
66.5355
 21
48.0198
  0
LINE
  8
0
 10
66.5355
 20
48.0198
 11
66.7336
 21
48.1287
  0
LINE
  8
0
 10
66.7336
 20
48.1287
 11
66.9438
 21
48.2119
  0
LINE
  8
0
 10
66.9438
 20
48.2119
 11
67.1627
 21
48.2681
  0
LINE
  8
0
 10
67.1627
 20
48.2681
 11
67.387
 21
48.2964
  0
LINE
  8
0
 10
67.387
 20
48.2964
 11
67.613
 21
48.2964
  0
LINE
  8
0
 10
67.613
 20
48.2964
 11
67.8373
 21
48.2681
  0
LINE
  8
0
 10
67.8373
 20
48.2681
 11
68.0562
 21
48.2119
  0
LINE
  8
0
 10
68.0562
 20
48.2119
 11
68.2664
 21
48.1287
  0
LINE
  8
0
 10
68.2664
 20
48.1287
 11
68.4645
 21
48.0198
  0
LINE
  8
0
 10
68.4645
 20
48.0198
 11
68.6474
 21
47.8869
  0
LINE
  8
0
 10
68.6474
 20
47.8869
 11
68.8121
 21
47.7322
  0
LINE
  8
0
 10
68.8121
 20
47.7322
 11
68.9562
 21
47.558
  0
LINE
  8
0
 10
68.9562
 20
47.558
 11
69.0773
 21
47.3671
  0
LINE
  8
0
 10
69.0773
 20
47.3671
 11
69.1736
 21
47.1626
  0
LINE
  8
0
 10
69.1736
 20
47.1626
 11
69.2434
 21
46.9476
  0
LINE
  8
0
 10
69.2434
 20
46.9476
 11
69.2858
 21
46.7256
  0
LINE
  8
0
 10
69.2858
 20
46.7256
 11
69.3
 21
46.5
  0
LINE
  8
0
 10
69.3
 20
46.5
 11
69.2858
 21
46.2744
  0
LINE
  8
0
 10
69.2858
 20
46.2744
 11
69.2434
 21
46.0524
  0
LINE
  8
0
 10
69.2434
 20
46.0524
 11
69.1736
 21
45.8374
  0
LINE
  8
0
 10
69.1736
 20
45.8374
 11
69.0773
 21
45.6328
  0
LINE
  8
0
 10
69.0773
 20
45.6328
 11
68.9562
 21
45.442
  0
LINE
  8
0
 10
68.9562
 20
45.442
 11
68.8121
 21
45.2678
  0
LINE
  8
0
 10
68.8121
 20
45.2678
 11
68.6474
 21
45.1131
  0
LINE
  8
0
 10
68.6474
 20
45.1131
 11
68.4645
 21
44.9802
  0
LINE
  8
0
 10
68.4645
 20
44.9802
 11
68.2664
 21
44.8713
  0
LINE
  8
0
 10
68.2664
 20
44.8713
 11
68.0562
 21
44.7881
  0
LINE
  8
0
 10
68.0562
 20
44.7881
 11
67.8373
 21
44.7319
  0
LINE
  8
0
 10
67.8373
 20
44.7319
 11
67.613
 21
44.7036
  0
LINE
  8
0
 10
67.613
 20
44.7036
 11
67.387
 21
44.7036
  0
LINE
  8
0
 10
-67.613
 20
44.7036
 11
-67.8373
 21
44.7319
  0
LINE
  8
0
 10
-67.8373
 20
44.7319
 11
-68.0562
 21
44.7881
  0
LINE
  8
0
 10
-68.0562
 20
44.7881
 11
-68.2664
 21
44.8713
  0
LINE
  8
0
 10
-68.2664
 20
44.8713
 11
-68.4645
 21
44.9802
  0
LINE
  8
0
 10
-68.4645
 20
44.9802
 11
-68.6474
 21
45.1131
  0
LINE
  8
0
 10
-68.6474
 20
45.1131
 11
-68.8121
 21
45.2678
  0
LINE
  8
0
 10
-68.8121
 20
45.2678
 11
-68.9562
 21
45.442
  0
LINE
  8
0
 10
-68.9562
 20
45.442
 11
-69.0773
 21
45.6328
  0
LINE
  8
0
 10
-69.0773
 20
45.6328
 11
-69.1736
 21
45.8374
  0
LINE
  8
0
 10
-69.1736
 20
45.8374
 11
-69.2434
 21
46.0524
  0
LINE
  8
0
 10
-69.2434
 20
46.0524
 11
-69.2858
 21
46.2744
  0
LINE
  8
0
 10
-69.2858
 20
46.2744
 11
-69.3
 21
46.5
  0
LINE
  8
0
 10
-69.3
 20
46.5
 11
-69.2858
 21
46.7256
  0
LINE
  8
0
 10
-69.2858
 20
46.7256
 11
-69.2434
 21
46.9476
  0
LINE
  8
0
 10
-69.2434
 20
46.9476
 11
-69.1736
 21
47.1626
  0
LINE
  8
0
 10
-69.1736
 20
47.1626
 11
-69.0773
 21
47.3671
  0
LINE
  8
0
 10
-69.0773
 20
47.3671
 11
-68.9562
 21
47.558
  0
LINE
  8
0
 10
-68.9562
 20
47.558
 11
-68.8121
 21
47.7322
  0
LINE
  8
0
 10
-68.8121
 20
47.7322
 11
-68.6474
 21
47.8869
  0
LINE
  8
0
 10
-68.6474
 20
47.8869
 11
-68.4645
 21
48.0198
  0
LINE
  8
0
 10
-68.4645
 20
48.0198
 11
-68.2664
 21
48.1287
  0
LINE
  8
0
 10
-68.2664
 20
48.1287
 11
-68.0562
 21
48.2119
  0
LINE
  8
0
 10
-68.0562
 20
48.2119
 11
-67.8373
 21
48.2681
  0
LINE
  8
0
 10
-67.8373
 20
48.2681
 11
-67.613
 21
48.2964
  0
LINE
  8
0
 10
-67.613
 20
48.2964
 11
-67.387
 21
48.2964
  0
LINE
  8
0
 10
-67.387
 20
48.2964
 11
-67.1627
 21
48.2681
  0
LINE
  8
0
 10
-67.1627
 20
48.2681
 11
-66.9438
 21
48.2119
  0
LINE
  8
0
 10
-66.9438
 20
48.2119
 11
-66.7336
 21
48.1287
  0
LINE
  8
0
 10
-66.7336
 20
48.1287
 11
-66.5355
 21
48.0198
  0
LINE
  8
0
 10
-66.5355
 20
48.0198
 11
-66.3526
 21
47.8869
  0
LINE
  8
0
 10
-66.3526
 20
47.8869
 11
-66.1879
 21
47.7322
  0
LINE
  8
0
 10
-66.1879
 20
47.7322
 11
-66.0438
 21
47.558
  0
LINE
  8
0
 10
-66.0438
 20
47.558
 11
-65.9226
 21
47.3671
  0
LINE
  8
0
 10
-65.9226
 20
47.3671
 11
-65.8264
 21
47.1626
  0
LINE
  8
0
 10
-65.8264
 20
47.1626
 11
-65.7565
 21
46.9476
  0
LINE
  8
0
 10
-65.7565
 20
46.9476
 11
-65.7142
 21
46.7256
  0
LINE
  8
0
 10
-65.7142
 20
46.7256
 11
-65.7
 21
46.5
  0
LINE
  8
0
 10
-65.7
 20
46.5
 11
-65.7142
 21
46.2744
  0
LINE
  8
0
 10
-65.7142
 20
46.2744
 11
-65.7565
 21
46.0524
  0
LINE
  8
0
 10
-65.7565
 20
46.0524
 11
-65.8264
 21
45.8374
  0
LINE
  8
0
 10
-65.8264
 20
45.8374
 11
-65.9226
 21
45.6328
  0
LINE
  8
0
 10
-65.9226
 20
45.6328
 11
-66.0438
 21
45.442
  0
LINE
  8
0
 10
-66.0438
 20
45.442
 11
-66.1879
 21
45.2678
  0
LINE
  8
0
 10
-66.1879
 20
45.2678
 11
-66.3526
 21
45.1131
  0
LINE
  8
0
 10
-66.3526
 20
45.1131
 11
-66.5355
 21
44.9802
  0
LINE
  8
0
 10
-66.5355
 20
44.9802
 11
-66.7336
 21
44.8713
  0
LINE
  8
0
 10
-66.7336
 20
44.8713
 11
-66.9438
 21
44.7881
  0
LINE
  8
0
 10
-66.9438
 20
44.7881
 11
-67.1627
 21
44.7319
  0
LINE
  8
0
 10
-67.1627
 20
44.7319
 11
-67.387
 21
44.7036
  0
LINE
  8
0
 10
-67.387
 20
44.7036
 11
-67.613
 21
44.7036
  0
LINE
  8
0
 10
67.387
 20
29.7036
 11
67.1627
 21
29.7319
  0
LINE
  8
0
 10
67.1627
 20
29.7319
 11
66.9438
 21
29.7881
  0
LINE
  8
0
 10
66.9438
 20
29.7881
 11
66.7336
 21
29.8713
  0
LINE
  8
0
 10
66.7336
 20
29.8713
 11
66.5355
 21
29.9802
  0
LINE
  8
0
 10
66.5355
 20
29.9802
 11
66.3526
 21
30.1131
  0
LINE
  8
0
 10
66.3526
 20
30.1131
 11
66.1879
 21
30.2678
  0
LINE
  8
0
 10
66.1879
 20
30.2678
 11
66.0438
 21
30.442
  0
LINE
  8
0
 10
66.0438
 20
30.442
 11
65.9226
 21
30.6329
  0
LINE
  8
0
 10
65.9226
 20
30.6329
 11
65.8264
 21
30.8374
  0
LINE
  8
0
 10
65.8264
 20
30.8374
 11
65.7565
 21
31.0524
  0
LINE
  8
0
 10
65.7565
 20
31.0524
 11
65.7142
 21
31.2744
  0
LINE
  8
0
 10
65.7142
 20
31.2744
 11
65.7
 21
31.5
  0
LINE
  8
0
 10
65.7
 20
31.5
 11
65.7142
 21
31.7256
  0
LINE
  8
0
 10
65.7142
 20
31.7256
 11
65.7565
 21
31.9476
  0
LINE
  8
0
 10
65.7565
 20
31.9476
 11
65.8264
 21
32.1626
  0
LINE
  8
0
 10
65.8264
 20
32.1626
 11
65.9226
 21
32.3672
  0
LINE
  8
0
 10
65.9226
 20
32.3672
 11
66.0438
 21
32.558
  0
LINE
  8
0
 10
66.0438
 20
32.558
 11
66.1879
 21
32.7322
  0
LINE
  8
0
 10
66.1879
 20
32.7322
 11
66.3526
 21
32.8869
  0
LINE
  8
0
 10
66.3526
 20
32.8869
 11
66.5355
 21
33.0198
  0
LINE
  8
0
 10
66.5355
 20
33.0198
 11
66.7336
 21
33.1287
  0
LINE
  8
0
 10
66.7336
 20
33.1287
 11
66.9438
 21
33.2119
  0
LINE
  8
0
 10
66.9438
 20
33.2119
 11
67.1627
 21
33.2681
  0
LINE
  8
0
 10
67.1627
 20
33.2681
 11
67.387
 21
33.2964
  0
LINE
  8
0
 10
67.387
 20
33.2964
 11
67.613
 21
33.2964
  0
LINE
  8
0
 10
67.613
 20
33.2964
 11
67.8373
 21
33.2681
  0
LINE
  8
0
 10
67.8373
 20
33.2681
 11
68.0562
 21
33.2119
  0
LINE
  8
0
 10
68.0562
 20
33.2119
 11
68.2664
 21
33.1287
  0
LINE
  8
0
 10
68.2664
 20
33.1287
 11
68.4645
 21
33.0198
  0
LINE
  8
0
 10
68.4645
 20
33.0198
 11
68.6474
 21
32.8869
  0
LINE
  8
0
 10
68.6474
 20
32.8869
 11
68.8121
 21
32.7322
  0
LINE
  8
0
 10
68.8121
 20
32.7322
 11
68.9562
 21
32.558
  0
LINE
  8
0
 10
68.9562
 20
32.558
 11
69.0773
 21
32.3672
  0
LINE
  8
0
 10
69.0773
 20
32.3672
 11
69.1736
 21
32.1626
  0
LINE
  8
0
 10
69.1736
 20
32.1626
 11
69.2434
 21
31.9476
  0
LINE
  8
0
 10
69.2434
 20
31.9476
 11
69.2858
 21
31.7256
  0
LINE
  8
0
 10
69.2858
 20
31.7256
 11
69.3
 21
31.5
  0
LINE
  8
0
 10
69.3
 20
31.5
 11
69.2858
 21
31.2744
  0
LINE
  8
0
 10
69.2858
 20
31.2744
 11
69.2434
 21
31.0524
  0
LINE
  8
0
 10
69.2434
 20
31.0524
 11
69.1736
 21
30.8374
  0
LINE
  8
0
 10
69.1736
 20
30.8374
 11
69.0773
 21
30.6329
  0
LINE
  8
0
 10
69.0773
 20
30.6329
 11
68.9562
 21
30.442
  0
LINE
  8
0
 10
68.9562
 20
30.442
 11
68.8121
 21
30.2678
  0
LINE
  8
0
 10
68.8121
 20
30.2678
 11
68.6474
 21
30.1131
  0
LINE
  8
0
 10
68.6474
 20
30.1131
 11
68.4645
 21
29.9802
  0
LINE
  8
0
 10
68.4645
 20
29.9802
 11
68.2664
 21
29.8713
  0
LINE
  8
0
 10
68.2664
 20
29.8713
 11
68.0562
 21
29.7881
  0
LINE
  8
0
 10
68.0562
 20
29.7881
 11
67.8373
 21
29.7319
  0
LINE
  8
0
 10
67.8373
 20
29.7319
 11
67.613
 21
29.7036
  0
LINE
  8
0
 10
67.613
 20
29.7036
 11
67.387
 21
29.7036
  0
LINE
  8
0
 10
-67.613
 20
29.7036
 11
-67.8373
 21
29.7319
  0
LINE
  8
0
 10
-67.8373
 20
29.7319
 11
-68.0562
 21
29.7881
  0
LINE
  8
0
 10
-68.0562
 20
29.7881
 11
-68.2664
 21
29.8713
  0
LINE
  8
0
 10
-68.2664
 20
29.8713
 11
-68.4645
 21
29.9802
  0
LINE
  8
0
 10
-68.4645
 20
29.9802
 11
-68.6474
 21
30.1131
  0
LINE
  8
0
 10
-68.6474
 20
30.1131
 11
-68.8121
 21
30.2678
  0
LINE
  8
0
 10
-68.8121
 20
30.2678
 11
-68.9562
 21
30.442
  0
LINE
  8
0
 10
-68.9562
 20
30.442
 11
-69.0773
 21
30.6329
  0
LINE
  8
0
 10
-69.0773
 20
30.6329
 11
-69.1736
 21
30.8374
  0
LINE
  8
0
 10
-69.1736
 20
30.8374
 11
-69.2434
 21
31.0524
  0
LINE
  8
0
 10
-69.2434
 20
31.0524
 11
-69.2858
 21
31.2744
  0
LINE
  8
0
 10
-69.2858
 20
31.2744
 11
-69.3
 21
31.5
  0
LINE
  8
0
 10
-69.3
 20
31.5
 11
-69.2858
 21
31.7256
  0
LINE
  8
0
 10
-69.2858
 20
31.7256
 11
-69.2434
 21
31.9476
  0
LINE
  8
0
 10
-69.2434
 20
31.9476
 11
-69.1736
 21
32.1626
  0
LINE
  8
0
 10
-69.1736
 20
32.1626
 11
-69.0773
 21
32.3672
  0
LINE
  8
0
 10
-69.0773
 20
32.3672
 11
-68.9562
 21
32.558
  0
LINE
  8
0
 10
-68.9562
 20
32.558
 11
-68.8121
 21
32.7322
  0
LINE
  8
0
 10
-68.8121
 20
32.7322
 11
-68.6474
 21
32.8869
  0
LINE
  8
0
 10
-68.6474
 20
32.8869
 11
-68.4645
 21
33.0198
  0
LINE
  8
0
 10
-68.4645
 20
33.0198
 11
-68.2664
 21
33.1287
  0
LINE
  8
0
 10
-68.2664
 20
33.1287
 11
-68.0562
 21
33.2119
  0
LINE
  8
0
 10
-68.0562
 20
33.2119
 11
-67.8373
 21
33.2681
  0
LINE
  8
0
 10
-67.8373
 20
33.2681
 11
-67.613
 21
33.2964
  0
LINE
  8
0
 10
-67.613
 20
33.2964
 11
-67.387
 21
33.2964
  0
LINE
  8
0
 10
-67.387
 20
33.2964
 11
-67.1627
 21
33.2681
  0
LINE
  8
0
 10
-67.1627
 20
33.2681
 11
-66.9438
 21
33.2119
  0
LINE
  8
0
 10
-66.9438
 20
33.2119
 11
-66.7336
 21
33.1287
  0
LINE
  8
0
 10
-66.7336
 20
33.1287
 11
-66.5355
 21
33.0198
  0
LINE
  8
0
 10
-66.5355
 20
33.0198
 11
-66.3526
 21
32.8869
  0
LINE
  8
0
 10
-66.3526
 20
32.8869
 11
-66.1879
 21
32.7322
  0
LINE
  8
0
 10
-66.1879
 20
32.7322
 11
-66.0438
 21
32.558
  0
LINE
  8
0
 10
-66.0438
 20
32.558
 11
-65.9226
 21
32.3672
  0
LINE
  8
0
 10
-65.9226
 20
32.3672
 11
-65.8264
 21
32.1626
  0
LINE
  8
0
 10
-65.8264
 20
32.1626
 11
-65.7565
 21
31.9476
  0
LINE
  8
0
 10
-65.7565
 20
31.9476
 11
-65.7142
 21
31.7256
  0
LINE
  8
0
 10
-65.7142
 20
31.7256
 11
-65.7
 21
31.5
  0
LINE
  8
0
 10
-65.7
 20
31.5
 11
-65.7142
 21
31.2744
  0
LINE
  8
0
 10
-65.7142
 20
31.2744
 11
-65.7565
 21
31.0524
  0
LINE
  8
0
 10
-65.7565
 20
31.0524
 11
-65.8264
 21
30.8374
  0
LINE
  8
0
 10
-65.8264
 20
30.8374
 11
-65.9226
 21
30.6329
  0
LINE
  8
0
 10
-65.9226
 20
30.6329
 11
-66.0438
 21
30.442
  0
LINE
  8
0
 10
-66.0438
 20
30.442
 11
-66.1879
 21
30.2678
  0
LINE
  8
0
 10
-66.1879
 20
30.2678
 11
-66.3526
 21
30.1131
  0
LINE
  8
0
 10
-66.3526
 20
30.1131
 11
-66.5355
 21
29.9802
  0
LINE
  8
0
 10
-66.5355
 20
29.9802
 11
-66.7336
 21
29.8713
  0
LINE
  8
0
 10
-66.7336
 20
29.8713
 11
-66.9438
 21
29.7881
  0
LINE
  8
0
 10
-66.9438
 20
29.7881
 11
-67.1627
 21
29.7319
  0
LINE
  8
0
 10
-67.1627
 20
29.7319
 11
-67.387
 21
29.7036
  0
LINE
  8
0
 10
-67.387
 20
29.7036
 11
-67.613
 21
29.7036
  0
ENDSEC
  0
SECTION
  2
OBJECTS
  0
DICTIONARY
  0
ENDSEC
  0
EOF
