<?xml version="1.0" standalone="no"?>
<!DOCTYPE svg PUBLIC "-//W3C//DTD SVG 1.1//EN" "http://www.w3.org/Graphics/SVG/1.1/DTD/svg11.dtd">
<svg width="46mm" height="280mm" viewBox="-23 -500 46 280" xmlns="http://www.w3.org/2000/svg" version="1.1">
<title>OpenSCAD Model</title>
<path d="
M 18.4369,-364.589 L 19.0451,-364.745 L 19.6289,-364.976 L 20.1791,-365.278 L 20.6871,-365.647 L 21.1448,-366.077
 L 21.5451,-366.561 L 21.8815,-367.091 L 22.1489,-367.659 L 22.3429,-368.257 L 22.4606,-368.873 L 22.5,-369.5
 L 22.5,-494.5 L 22.4606,-495.127 L 22.3429,-495.743 L 22.1489,-496.341 L 21.8815,-496.909 L 21.5451,-497.439
 L 21.1448,-497.923 L 20.6871,-498.353 L 20.1791,-498.722 L 19.6289,-499.024 L 19.0451,-499.255 L 18.4369,-499.411
 L 17.8139,-499.49 L -17.8139,-499.49 L -18.4369,-499.411 L -19.0451,-499.255 L -19.6289,-499.024 L -20.1791,-498.722
 L -20.6871,-498.353 L -21.1448,-497.923 L -21.5451,-497.439 L -21.8815,-496.909 L -22.1489,-496.341 L -22.3429,-495.743
 L -22.4606,-495.127 L -22.5,-494.5 L -22.5,-369.5 L -22.4606,-368.873 L -22.3429,-368.257 L -22.1489,-367.659
 L -21.8815,-367.091 L -21.5451,-366.561 L -21.1448,-366.077 L -20.6871,-365.647 L -20.1791,-365.278 L -19.6289,-364.976
 L -19.0451,-364.745 L -18.4369,-364.589 L -17.8139,-364.51 L 17.8139,-364.51 z
M -17.1954,-366.893 L -17.5833,-366.942 L -17.9619,-367.039 L -18.3254,-367.183 L -18.668,-367.372 L -18.9842,-367.601
 L -19.2692,-367.869 L -19.5184,-368.17 L -19.7279,-368.5 L -19.8943,-368.854 L -20.0151,-369.226 L -20.0884,-369.61
 L -20.1129,-370 L -20.1129,-494 L -20.0884,-494.39 L -20.0151,-494.774 L -19.8943,-495.146 L -19.7279,-495.5
 L -19.5184,-495.83 L -19.2692,-496.131 L -18.9842,-496.399 L -18.668,-496.628 L -18.3254,-496.817 L -17.9619,-496.961
 L -17.5833,-497.058 L -17.1954,-497.107 L 17.1954,-497.107 L 17.5833,-497.058 L 17.9619,-496.961 L 18.3254,-496.817
 L 18.668,-496.628 L 18.9842,-496.399 L 19.2692,-496.131 L 19.5184,-495.83 L 19.7279,-495.5 L 19.8943,-495.146
 L 20.0151,-494.774 L 20.0884,-494.39 L 20.1129,-494 L 20.1129,-370 L 20.0884,-369.61 L 20.0151,-369.226
 L 19.8943,-368.854 L 19.7279,-368.5 L 19.5184,-368.17 L 19.2692,-367.869 L 18.9842,-367.601 L 18.668,-367.372
 L 18.3254,-367.183 L 17.9619,-367.039 L 17.5833,-366.942 L 17.1954,-366.893 z
M 18.4369,-220.589 L 19.0451,-220.745 L 19.6289,-220.976 L 20.1791,-221.278 L 20.6871,-221.647 L 21.1448,-222.077
 L 21.5451,-222.561 L 21.8815,-223.091 L 22.1489,-223.659 L 22.3429,-224.257 L 22.4606,-224.873 L 22.5,-225.5
 L 22.5,-350.5 L 22.4606,-351.127 L 22.3429,-351.743 L 22.1489,-352.341 L 21.8815,-352.909 L 21.5451,-353.439
 L 21.1448,-353.923 L 20.6871,-354.353 L 20.1791,-354.722 L 19.6289,-355.024 L 19.0451,-355.255 L 18.4369,-355.411
 L 17.8139,-355.49 L -17.8139,-355.49 L -18.4369,-355.411 L -19.0451,-355.255 L -19.6289,-355.024 L -20.1791,-354.722
 L -20.6871,-354.353 L -21.1448,-353.923 L -21.5451,-353.439 L -21.8815,-352.909 L -22.1489,-352.341 L -22.3429,-351.743
 L -22.4606,-351.127 L -22.5,-350.5 L -22.5,-225.5 L -22.4606,-224.873 L -22.3429,-224.257 L -22.1489,-223.659
 L -21.8815,-223.091 L -21.5451,-222.561 L -21.1448,-222.077 L -20.6871,-221.647 L -20.1791,-221.278 L -19.6289,-220.976
 L -19.0451,-220.745 L -18.4369,-220.589 L -17.8139,-220.51 L 17.8139,-220.51 z
M 14.8659,-345.869 L 14.5999,-345.903 L 14.3401,-345.969 L 14.0908,-346.068 L 13.8559,-346.197 L 13.6389,-346.355
 L 13.4434,-346.538 L 13.2725,-346.745 L 13.1288,-346.971 L 13.0146,-347.214 L 12.9318,-347.469 L 12.8815,-347.732
 L 12.8647,-348 L 12.8815,-348.268 L 12.9318,-348.531 L 13.0146,-348.786 L 13.1288,-349.029 L 13.2725,-349.255
 L 13.4434,-349.462 L 13.6389,-349.645 L 13.8559,-349.803 L 14.0908,-349.932 L 14.3401,-350.031 L 14.5999,-350.097
 L 14.8659,-350.131 L 15.1341,-350.131 L 15.4001,-350.097 L 15.6598,-350.031 L 15.9091,-349.932 L 16.1441,-349.803
 L 16.3611,-349.645 L 16.5565,-349.462 L 16.7275,-349.255 L 16.8712,-349.029 L 16.9853,-348.786 L 17.0682,-348.531
 L 17.1185,-348.268 L 17.1353,-348 L 17.1185,-347.732 L 17.0682,-347.469 L 16.9853,-347.214 L 16.8712,-346.971
 L 16.7275,-346.745 L 16.5565,-346.538 L 16.3611,-346.355 L 16.1441,-346.197 L 15.9091,-346.068 L 15.6598,-345.969
 L 15.4001,-345.903 L 15.1341,-345.869 z
M -15.1341,-345.869 L -15.4001,-345.903 L -15.6598,-345.969 L -15.9091,-346.068 L -16.1441,-346.197 L -16.3611,-346.355
 L -16.5565,-346.538 L -16.7275,-346.745 L -16.8712,-346.971 L -16.9853,-347.214 L -17.0682,-347.469 L -17.1185,-347.732
 L -17.1353,-348 L -17.1185,-348.268 L -17.0682,-348.531 L -16.9853,-348.786 L -16.8712,-349.029 L -16.7275,-349.255
 L -16.5565,-349.462 L -16.3611,-349.645 L -16.1441,-349.803 L -15.9091,-349.932 L -15.6598,-350.031 L -15.4001,-350.097
 L -15.1341,-350.131 L -14.8659,-350.131 L -14.5999,-350.097 L -14.3401,-350.031 L -14.0908,-349.932 L -13.8559,-349.803
 L -13.6389,-349.645 L -13.4434,-349.462 L -13.2725,-349.255 L -13.1288,-349.029 L -13.0146,-348.786 L -12.9318,-348.531
 L -12.8815,-348.268 L -12.8647,-348 L -12.8815,-347.732 L -12.9318,-347.469 L -13.0146,-347.214 L -13.1288,-346.971
 L -13.2725,-346.745 L -13.4434,-346.538 L -13.6389,-346.355 L -13.8559,-346.197 L -14.0908,-346.068 L -14.3401,-345.969
 L -14.5999,-345.903 L -14.8659,-345.869 z
M 14.8659,-225.869 L 14.5999,-225.903 L 14.3401,-225.969 L 14.0908,-226.068 L 13.8559,-226.197 L 13.6389,-226.355
 L 13.4434,-226.538 L 13.2725,-226.745 L 13.1288,-226.971 L 13.0146,-227.214 L 12.9318,-227.469 L 12.8815,-227.732
 L 12.8647,-228 L 12.8815,-228.268 L 12.9318,-228.531 L 13.0146,-228.786 L 13.1288,-229.029 L 13.2725,-229.255
 L 13.4434,-229.462 L 13.6389,-229.645 L 13.8559,-229.803 L 14.0908,-229.932 L 14.3401,-230.031 L 14.5999,-230.097
 L 14.8659,-230.131 L 15.1341,-230.131 L 15.4001,-230.097 L 15.6598,-230.031 L 15.9091,-229.932 L 16.1441,-229.803
 L 16.3611,-229.645 L 16.5565,-229.462 L 16.7275,-229.255 L 16.8712,-229.029 L 16.9853,-228.786 L 17.0682,-228.531
 L 17.1185,-228.268 L 17.1353,-228 L 17.1185,-227.732 L 17.0682,-227.469 L 16.9853,-227.214 L 16.8712,-226.971
 L 16.7275,-226.745 L 16.5565,-226.538 L 16.3611,-226.355 L 16.1441,-226.197 L 15.9091,-226.068 L 15.6598,-225.969
 L 15.4001,-225.903 L 15.1341,-225.869 z
M -15.1341,-225.869 L -15.4001,-225.903 L -15.6598,-225.969 L -15.9091,-226.068 L -16.1441,-226.197 L -16.3611,-226.355
 L -16.5565,-226.538 L -16.7275,-226.745 L -16.8712,-226.971 L -16.9853,-227.214 L -17.0682,-227.469 L -17.1185,-227.732
 L -17.1353,-228 L -17.1185,-228.268 L -17.0682,-228.531 L -16.9853,-228.786 L -16.8712,-229.029 L -16.7275,-229.255
 L -16.5565,-229.462 L -16.3611,-229.645 L -16.1441,-229.803 L -15.9091,-229.932 L -15.6598,-230.031 L -15.4001,-230.097
 L -15.1341,-230.131 L -14.8659,-230.131 L -14.5999,-230.097 L -14.3401,-230.031 L -14.0908,-229.932 L -13.8559,-229.803
 L -13.6389,-229.645 L -13.4434,-229.462 L -13.2725,-229.255 L -13.1288,-229.029 L -13.0146,-228.786 L -12.9318,-228.531
 L -12.8815,-228.268 L -12.8647,-228 L -12.8815,-227.732 L -12.9318,-227.469 L -13.0146,-227.214 L -13.1288,-226.971
 L -13.2725,-226.745 L -13.4434,-226.538 L -13.6389,-226.355 L -13.8559,-226.197 L -14.0908,-226.068 L -14.3401,-225.969
 L -14.5999,-225.903 L -14.8659,-225.869 z
" stroke="black" fill="lightgray" stroke-width="0.5"/>
</svg>
