<?xml version="1.0" standalone="no"?>
<!DOCTYPE svg PUBLIC "-//W3C//DTD SVG 1.1//EN" "http://www.w3.org/Graphics/SVG/1.1/DTD/svg11.dtd">
<svg width="30mm" height="262mm" viewBox="-15 -509 30 262" xmlns="http://www.w3.org/2000/svg" version="1.1">
<title>OpenSCAD Model</title>
<path d="
M 10.9369,-463.589 L 11.5451,-463.745 L 12.1289,-463.976 L 12.6791,-464.278 L 13.1871,-464.647 L 13.6448,-465.077
 L 14.0451,-465.561 L 14.3815,-466.091 L 14.6489,-466.659 L 14.8429,-467.257 L 14.9606,-467.873 L 15,-468.5
 L 15,-503.5 L 14.9606,-504.127 L 14.8429,-504.743 L 14.6489,-505.341 L 14.3815,-505.909 L 14.0451,-506.439
 L 13.6448,-506.923 L 13.1871,-507.353 L 12.6791,-507.722 L 12.1289,-508.024 L 11.5451,-508.255 L 10.9369,-508.411
 L 10.3139,-508.49 L -10.3139,-508.49 L -10.9369,-508.411 L -11.5451,-508.255 L -12.1289,-508.024 L -12.6791,-507.722
 L -13.1871,-507.353 L -13.6448,-506.923 L -14.0451,-506.439 L -14.3815,-505.909 L -14.6489,-505.341 L -14.8429,-504.743
 L -14.9606,-504.127 L -15,-503.5 L -15,-468.5 L -14.9606,-467.873 L -14.8429,-467.257 L -14.6489,-466.659
 L -14.3815,-466.091 L -14.0451,-465.561 L -13.6448,-465.077 L -13.1871,-464.647 L -12.6791,-464.278 L -12.1289,-463.976
 L -11.5451,-463.745 L -10.9369,-463.589 L -10.3139,-463.51 L 10.3139,-463.51 z
M -9.75116,-465.008 L -10.2495,-465.071 L -10.7361,-465.196 L -11.2031,-465.381 L -11.6433,-465.623 L -12.0497,-465.918
 L -12.4159,-466.262 L -12.7361,-466.649 L -13.0052,-467.073 L -13.2191,-467.528 L -13.3743,-468.005 L -13.4684,-468.499
 L -13.5,-469 L -13.5,-503 L -13.4684,-503.501 L -13.3743,-503.995 L -13.2191,-504.472 L -13.0052,-504.927
 L -12.7361,-505.351 L -12.4159,-505.738 L -12.0497,-506.082 L -11.6433,-506.377 L -11.2031,-506.619 L -10.7361,-506.804
 L -10.2495,-506.929 L -9.75116,-506.992 L 9.75116,-506.992 L 10.2495,-506.929 L 10.7361,-506.804 L 11.2031,-506.619
 L 11.6433,-506.377 L 12.0497,-506.082 L 12.4159,-505.738 L 12.7361,-505.351 L 13.0052,-504.927 L 13.2191,-504.472
 L 13.3743,-503.995 L 13.4684,-503.501 L 13.5,-503 L 13.5,-469 L 13.4684,-468.499 L 13.3743,-468.005
 L 13.2191,-467.528 L 13.0052,-467.073 L 12.7361,-466.649 L 12.4159,-466.262 L 12.0497,-465.918 L 11.6433,-465.623
 L 11.2031,-465.381 L 10.7361,-465.196 L 10.2495,-465.071 L 9.75116,-465.008 z
M 10.9369,-409.589 L 11.5451,-409.745 L 12.1289,-409.976 L 12.6791,-410.278 L 13.1871,-410.647 L 13.6448,-411.077
 L 14.0451,-411.561 L 14.3815,-412.091 L 14.6489,-412.659 L 14.8429,-413.257 L 14.9606,-413.873 L 15,-414.5
 L 15,-449.5 L 14.9606,-450.127 L 14.8429,-450.743 L 14.6489,-451.341 L 14.3815,-451.909 L 14.0451,-452.439
 L 13.6448,-452.923 L 13.1871,-453.353 L 12.6791,-453.722 L 12.1289,-454.024 L 11.5451,-454.255 L 10.9369,-454.411
 L 10.3139,-454.49 L -10.3139,-454.49 L -10.9369,-454.411 L -11.5451,-454.255 L -12.1289,-454.024 L -12.6791,-453.722
 L -13.1871,-453.353 L -13.6448,-452.923 L -14.0451,-452.439 L -14.3815,-451.909 L -14.6489,-451.341 L -14.8429,-450.743
 L -14.9606,-450.127 L -15,-449.5 L -15,-414.5 L -14.9606,-413.873 L -14.8429,-413.257 L -14.6489,-412.659
 L -14.3815,-412.091 L -14.0451,-411.561 L -13.6448,-411.077 L -13.1871,-410.647 L -12.6791,-410.278 L -12.1289,-409.976
 L -11.5451,-409.745 L -10.9369,-409.589 L -10.3139,-409.51 L 10.3139,-409.51 z
M -9.75116,-411.008 L -10.2495,-411.071 L -10.7361,-411.196 L -11.2031,-411.381 L -11.6433,-411.623 L -12.0497,-411.918
 L -12.4159,-412.262 L -12.7361,-412.649 L -13.0052,-413.073 L -13.2191,-413.528 L -13.3743,-414.005 L -13.4684,-414.499
 L -13.5,-415 L -13.5,-449 L -13.4684,-449.501 L -13.3743,-449.995 L -13.2191,-450.472 L -13.0052,-450.927
 L -12.7361,-451.351 L -12.4159,-451.738 L -12.0497,-452.082 L -11.6433,-452.377 L -11.2031,-452.619 L -10.7361,-452.804
 L -10.2495,-452.929 L -9.75116,-452.992 L 9.75116,-452.992 L 10.2495,-452.929 L 10.7361,-452.804 L 11.2031,-452.619
 L 11.6433,-452.377 L 12.0497,-452.082 L 12.4159,-451.738 L 12.7361,-451.351 L 13.0052,-450.927 L 13.2191,-450.472
 L 13.3743,-449.995 L 13.4684,-449.501 L 13.5,-449 L 13.5,-415 L 13.4684,-414.499 L 13.3743,-414.005
 L 13.2191,-413.528 L 13.0052,-413.073 L 12.7361,-412.649 L 12.4159,-412.262 L 12.0497,-411.918 L 11.6433,-411.623
 L 11.2031,-411.381 L 10.7361,-411.196 L 10.2495,-411.071 L 9.75116,-411.008 z
M 10.9369,-355.589 L 11.5451,-355.745 L 12.1289,-355.976 L 12.6791,-356.278 L 13.1871,-356.647 L 13.6448,-357.077
 L 14.0451,-357.561 L 14.3815,-358.091 L 14.6489,-358.659 L 14.8429,-359.257 L 14.9606,-359.873 L 15,-360.5
 L 15,-395.5 L 14.9606,-396.127 L 14.8429,-396.743 L 14.6489,-397.341 L 14.3815,-397.909 L 14.0451,-398.439
 L 13.6448,-398.923 L 13.1871,-399.353 L 12.6791,-399.722 L 12.1289,-400.024 L 11.5451,-400.255 L 10.9369,-400.411
 L 10.3139,-400.49 L -10.3139,-400.49 L -10.9369,-400.411 L -11.5451,-400.255 L -12.1289,-400.024 L -12.6791,-399.722
 L -13.1871,-399.353 L -13.6448,-398.923 L -14.0451,-398.439 L -14.3815,-397.909 L -14.6489,-397.341 L -14.8429,-396.743
 L -14.9606,-396.127 L -15,-395.5 L -15,-360.5 L -14.9606,-359.873 L -14.8429,-359.257 L -14.6489,-358.659
 L -14.3815,-358.091 L -14.0451,-357.561 L -13.6448,-357.077 L -13.1871,-356.647 L -12.6791,-356.278 L -12.1289,-355.976
 L -11.5451,-355.745 L -10.9369,-355.589 L -10.3139,-355.51 L 10.3139,-355.51 z
M -9.75116,-357.008 L -10.2495,-357.071 L -10.7361,-357.196 L -11.2031,-357.381 L -11.6433,-357.623 L -12.0497,-357.918
 L -12.4159,-358.262 L -12.7361,-358.649 L -13.0052,-359.073 L -13.2191,-359.528 L -13.3743,-360.005 L -13.4684,-360.499
 L -13.5,-361 L -13.5,-395 L -13.4684,-395.501 L -13.3743,-395.995 L -13.2191,-396.472 L -13.0052,-396.927
 L -12.7361,-397.351 L -12.4159,-397.738 L -12.0497,-398.082 L -11.6433,-398.377 L -11.2031,-398.619 L -10.7361,-398.804
 L -10.2495,-398.929 L -9.75116,-398.992 L 9.75116,-398.992 L 10.2495,-398.929 L 10.7361,-398.804 L 11.2031,-398.619
 L 11.6433,-398.377 L 12.0497,-398.082 L 12.4159,-397.738 L 12.7361,-397.351 L 13.0052,-396.927 L 13.2191,-396.472
 L 13.3743,-395.995 L 13.4684,-395.501 L 13.5,-395 L 13.5,-361 L 13.4684,-360.499 L 13.3743,-360.005
 L 13.2191,-359.528 L 13.0052,-359.073 L 12.7361,-358.649 L 12.4159,-358.262 L 12.0497,-357.918 L 11.6433,-357.623
 L 11.2031,-357.381 L 10.7361,-357.196 L 10.2495,-357.071 L 9.75116,-357.008 z
M 10.9369,-301.589 L 11.5451,-301.745 L 12.1289,-301.976 L 12.6791,-302.278 L 13.1871,-302.647 L 13.6448,-303.077
 L 14.0451,-303.561 L 14.3815,-304.091 L 14.6489,-304.659 L 14.8429,-305.257 L 14.9606,-305.873 L 15,-306.5
 L 15,-341.5 L 14.9606,-342.127 L 14.8429,-342.743 L 14.6489,-343.341 L 14.3815,-343.909 L 14.0451,-344.439
 L 13.6448,-344.923 L 13.1871,-345.353 L 12.6791,-345.722 L 12.1289,-346.024 L 11.5451,-346.255 L 10.9369,-346.411
 L 10.3139,-346.49 L -10.3139,-346.49 L -10.9369,-346.411 L -11.5451,-346.255 L -12.1289,-346.024 L -12.6791,-345.722
 L -13.1871,-345.353 L -13.6448,-344.923 L -14.0451,-344.439 L -14.3815,-343.909 L -14.6489,-343.341 L -14.8429,-342.743
 L -14.9606,-342.127 L -15,-341.5 L -15,-306.5 L -14.9606,-305.873 L -14.8429,-305.257 L -14.6489,-304.659
 L -14.3815,-304.091 L -14.0451,-303.561 L -13.6448,-303.077 L -13.1871,-302.647 L -12.6791,-302.278 L -12.1289,-301.976
 L -11.5451,-301.745 L -10.9369,-301.589 L -10.3139,-301.51 L 10.3139,-301.51 z
M -9.69545,-303.893 L -10.0833,-303.942 L -10.4619,-304.039 L -10.8254,-304.183 L -11.168,-304.372 L -11.4842,-304.601
 L -11.7692,-304.869 L -12.0184,-305.17 L -12.2279,-305.5 L -12.3943,-305.854 L -12.5151,-306.226 L -12.5884,-306.61
 L -12.6129,-307 L -12.6129,-341 L -12.5884,-341.39 L -12.5151,-341.774 L -12.3943,-342.146 L -12.2279,-342.5
 L -12.0184,-342.83 L -11.7692,-343.131 L -11.4842,-343.399 L -11.168,-343.628 L -10.8254,-343.817 L -10.4619,-343.961
 L -10.0833,-344.058 L -9.69545,-344.107 L 9.69545,-344.107 L 10.0833,-344.058 L 10.4619,-343.961 L 10.8254,-343.817
 L 11.168,-343.628 L 11.4842,-343.399 L 11.7692,-343.131 L 12.0184,-342.83 L 12.2279,-342.5 L 12.3943,-342.146
 L 12.5151,-341.774 L 12.5884,-341.39 L 12.6129,-341 L 12.6129,-307 L 12.5884,-306.61 L 12.5151,-306.226
 L 12.3943,-305.854 L 12.2279,-305.5 L 12.0184,-305.17 L 11.7692,-304.869 L 11.4842,-304.601 L 11.168,-304.372
 L 10.8254,-304.183 L 10.4619,-304.039 L 10.0833,-303.942 L 9.69545,-303.893 z
M 10.9369,-247.589 L 11.5451,-247.745 L 12.1289,-247.976 L 12.6791,-248.278 L 13.1871,-248.647 L 13.6448,-249.077
 L 14.0451,-249.561 L 14.3815,-250.091 L 14.6489,-250.659 L 14.8429,-251.257 L 14.9606,-251.873 L 15,-252.5
 L 15,-287.5 L 14.9606,-288.127 L 14.8429,-288.743 L 14.6489,-289.341 L 14.3815,-289.909 L 14.0451,-290.439
 L 13.6448,-290.923 L 13.1871,-291.353 L 12.6791,-291.722 L 12.1289,-292.024 L 11.5451,-292.255 L 10.9369,-292.411
 L 10.3139,-292.49 L -10.3139,-292.49 L -10.9369,-292.411 L -11.5451,-292.255 L -12.1289,-292.024 L -12.6791,-291.722
 L -13.1871,-291.353 L -13.6448,-290.923 L -14.0451,-290.439 L -14.3815,-289.909 L -14.6489,-289.341 L -14.8429,-288.743
 L -14.9606,-288.127 L -15,-287.5 L -15,-252.5 L -14.9606,-251.873 L -14.8429,-251.257 L -14.6489,-250.659
 L -14.3815,-250.091 L -14.0451,-249.561 L -13.6448,-249.077 L -13.1871,-248.647 L -12.6791,-248.278 L -12.1289,-247.976
 L -11.5451,-247.745 L -10.9369,-247.589 L -10.3139,-247.51 L 10.3139,-247.51 z
M 7.36592,-282.869 L 7.09988,-282.903 L 6.84015,-282.969 L 6.59084,-283.068 L 6.35585,-283.197 L 6.1389,-283.355
 L 5.94344,-283.538 L 5.77251,-283.745 L 5.62881,-283.971 L 5.51465,-284.214 L 5.43178,-284.469 L 5.38153,-284.732
 L 5.3647,-285 L 5.38153,-285.268 L 5.43178,-285.531 L 5.51465,-285.786 L 5.62881,-286.029 L 5.77251,-286.255
 L 5.94344,-286.462 L 6.1389,-286.645 L 6.35585,-286.803 L 6.59084,-286.932 L 6.84015,-287.031 L 7.09988,-287.097
 L 7.36592,-287.131 L 7.63406,-287.131 L 7.9001,-287.097 L 8.15984,-287.031 L 8.40915,-286.932 L 8.64413,-286.803
 L 8.86108,-286.645 L 9.05655,-286.462 L 9.22748,-286.255 L 9.37117,-286.029 L 9.48534,-285.786 L 9.56821,-285.531
 L 9.61845,-285.268 L 9.63528,-285 L 9.61845,-284.732 L 9.56821,-284.469 L 9.48534,-284.214 L 9.37117,-283.971
 L 9.22748,-283.745 L 9.05655,-283.538 L 8.86108,-283.355 L 8.64413,-283.197 L 8.40915,-283.068 L 8.15984,-282.969
 L 7.9001,-282.903 L 7.63406,-282.869 z
M -7.63406,-282.869 L -7.9001,-282.903 L -8.15984,-282.969 L -8.40915,-283.068 L -8.64413,-283.197 L -8.86108,-283.355
 L -9.05655,-283.538 L -9.22748,-283.745 L -9.37117,-283.971 L -9.48534,-284.214 L -9.56821,-284.469 L -9.61845,-284.732
 L -9.63528,-285 L -9.61845,-285.268 L -9.56821,-285.531 L -9.48534,-285.786 L -9.37117,-286.029 L -9.22748,-286.255
 L -9.05655,-286.462 L -8.86108,-286.645 L -8.64413,-286.803 L -8.40915,-286.932 L -8.15984,-287.031 L -7.9001,-287.097
 L -7.63406,-287.131 L -7.36592,-287.131 L -7.09988,-287.097 L -6.84015,-287.031 L -6.59084,-286.932 L -6.35585,-286.803
 L -6.1389,-286.645 L -5.94344,-286.462 L -5.77251,-286.255 L -5.62881,-286.029 L -5.51465,-285.786 L -5.43178,-285.531
 L -5.38153,-285.268 L -5.3647,-285 L -5.38153,-284.732 L -5.43178,-284.469 L -5.51465,-284.214 L -5.62881,-283.971
 L -5.77251,-283.745 L -5.94344,-283.538 L -6.1389,-283.355 L -6.35585,-283.197 L -6.59084,-283.068 L -6.84015,-282.969
 L -7.09988,-282.903 L -7.36592,-282.869 z
M 7.36592,-252.869 L 7.09988,-252.903 L 6.84015,-252.969 L 6.59084,-253.068 L 6.35585,-253.197 L 6.1389,-253.355
 L 5.94344,-253.538 L 5.77251,-253.745 L 5.62881,-253.971 L 5.51465,-254.214 L 5.43178,-254.469 L 5.38153,-254.732
 L 5.3647,-255 L 5.38153,-255.268 L 5.43178,-255.531 L 5.51465,-255.786 L 5.62881,-256.029 L 5.77251,-256.255
 L 5.94344,-256.462 L 6.1389,-256.645 L 6.35585,-256.803 L 6.59084,-256.932 L 6.84015,-257.031 L 7.09988,-257.097
 L 7.36592,-257.131 L 7.63406,-257.131 L 7.9001,-257.097 L 8.15984,-257.031 L 8.40915,-256.932 L 8.64413,-256.803
 L 8.86108,-256.645 L 9.05655,-256.462 L 9.22748,-256.255 L 9.37117,-256.029 L 9.48534,-255.786 L 9.56821,-255.531
 L 9.61845,-255.268 L 9.63528,-255 L 9.61845,-254.732 L 9.56821,-254.469 L 9.48534,-254.214 L 9.37117,-253.971
 L 9.22748,-253.745 L 9.05655,-253.538 L 8.86108,-253.355 L 8.64413,-253.197 L 8.40915,-253.068 L 8.15984,-252.969
 L 7.9001,-252.903 L 7.63406,-252.869 z
M -7.63406,-252.869 L -7.9001,-252.903 L -8.15984,-252.969 L -8.40915,-253.068 L -8.64413,-253.197 L -8.86108,-253.355
 L -9.05655,-253.538 L -9.22748,-253.745 L -9.37117,-253.971 L -9.48534,-254.214 L -9.56821,-254.469 L -9.61845,-254.732
 L -9.63528,-255 L -9.61845,-255.268 L -9.56821,-255.531 L -9.48534,-255.786 L -9.37117,-256.029 L -9.22748,-256.255
 L -9.05655,-256.462 L -8.86108,-256.645 L -8.64413,-256.803 L -8.40915,-256.932 L -8.15984,-257.031 L -7.9001,-257.097
 L -7.63406,-257.131 L -7.36592,-257.131 L -7.09988,-257.097 L -6.84015,-257.031 L -6.59084,-256.932 L -6.35585,-256.803
 L -6.1389,-256.645 L -5.94344,-256.462 L -5.77251,-256.255 L -5.62881,-256.029 L -5.51465,-255.786 L -5.43178,-255.531
 L -5.38153,-255.268 L -5.3647,-255 L -5.38153,-254.732 L -5.43178,-254.469 L -5.51465,-254.214 L -5.62881,-253.971
 L -5.77251,-253.745 L -5.94344,-253.538 L -6.1389,-253.355 L -6.35585,-253.197 L -6.59084,-253.068 L -6.84015,-252.969
 L -7.09988,-252.903 L -7.36592,-252.869 z
" stroke="black" fill="lightgray" stroke-width="0.5"/>
</svg>
