<?xml version="1.0" standalone="no"?>
<!DOCTYPE svg PUBLIC "-//W3C//DTD SVG 1.1//EN" "http://www.w3.org/Graphics/SVG/1.1/DTD/svg11.dtd">
<svg width="47mm" height="64mm" viewBox="-24 -104 47 64" xmlns="http://www.w3.org/2000/svg" version="1.1">
<title>OpenSCAD Model</title>
<path d="
M -21,-89.9413 L -20.6871,-89.6474 L -20.1791,-89.2784 L -19.6289,-88.9759 L -19.0451,-88.7447 L -18.4369,-88.5886
 L -17.8139,-88.5099 L 17.8139,-88.5099 L 18.4369,-88.5886 L 19.0451,-88.7447 L 19.6289,-88.9759 L 20.1791,-89.2784
 L 20.6871,-89.6474 L 21.1448,-90.0773 L 21.5451,-90.5611 L 21.8815,-91.0912 L 22.1489,-91.6594 L 22.3429,-92.2566
 L 22.4606,-92.8733 L 22.5,-93.5 L 22.5,-98.5 L 22.4606,-99.1267 L 22.3429,-99.7434 L 22.1489,-100.341
 L 21.8815,-100.909 L 21.5451,-101.439 L 21.1448,-101.923 L 20.6871,-102.353 L 20.1791,-102.722 L 19.6289,-103.024
 L 19.0451,-103.255 L 18.4369,-103.411 L 17.8139,-103.49 L -17.8139,-103.49 L -18.4369,-103.411 L -19.0451,-103.255
 L -19.6289,-103.024 L -20.1791,-102.722 L -20.6871,-102.353 L -21,-102.059 L -21,-103.49 L -24,-103.49
 L -24,-88.5099 L -21,-88.5099 z
M -17.2432,-90.135 L -17.7256,-90.196 L -18.1967,-90.3169 L -18.6489,-90.4959 L -19.0751,-90.7302 L -19.4685,-91.0161
 L -19.823,-91.349 L -20.133,-91.7237 L -20.3936,-92.1344 L -20.6007,-92.5744 L -20.751,-93.0369 L -20.8421,-93.5146
 L -20.8726,-94 L -20.8726,-98 L -20.8421,-98.4854 L -20.751,-98.9631 L -20.6007,-99.4256 L -20.3936,-99.8656
 L -20.133,-100.276 L -19.823,-100.651 L -19.4685,-100.984 L -19.0751,-101.27 L -18.6489,-101.504 L -18.1967,-101.683
 L -17.7256,-101.804 L -17.2432,-101.865 L 17.2432,-101.865 L 17.7256,-101.804 L 18.1967,-101.683 L 18.6489,-101.504
 L 19.0751,-101.27 L 19.4685,-100.984 L 19.823,-100.651 L 20.133,-100.276 L 20.3936,-99.8656 L 20.6007,-99.4256
 L 20.751,-98.9631 L 20.8421,-98.4854 L 20.8726,-98 L 20.8726,-94 L 20.8421,-93.5146 L 20.751,-93.0369
 L 20.6007,-92.5744 L 20.3936,-92.1344 L 20.133,-91.7237 L 19.823,-91.349 L 19.4685,-91.0161 L 19.0751,-90.7302
 L 18.6489,-90.4959 L 18.1967,-90.3169 L 17.7256,-90.196 L 17.2432,-90.135 z
M 18.4369,-64.5886 L 19.0451,-64.7447 L 19.6289,-64.9759 L 20.1791,-65.2784 L 20.6871,-65.6474 L 21.1448,-66.0773
 L 21.5451,-66.5611 L 21.8815,-67.0912 L 22.1489,-67.6594 L 22.3429,-68.2566 L 22.4606,-68.8733 L 22.5,-69.5
 L 22.5,-74.5 L 22.4606,-75.1267 L 22.3429,-75.7434 L 22.1489,-76.3406 L 21.8815,-76.9088 L 21.5451,-77.4389
 L 21.1448,-77.9227 L 20.6871,-78.3526 L 20.1791,-78.7216 L 19.6289,-79.0241 L 19.0451,-79.2553 L 18.4369,-79.4114
 L 17.8139,-79.4901 L -17.8139,-79.4901 L -18.4369,-79.4114 L -19.0451,-79.2553 L -19.6289,-79.0241 L -20.1791,-78.7216
 L -20.6871,-78.3526 L -21,-78.0587 L -21,-79.1148 L -24,-79.1148 L -24,-64.8852 L -21,-64.8852
 L -21,-65.9413 L -20.6871,-65.6474 L -20.1791,-65.2784 L -19.6289,-64.9759 L -19.0451,-64.7447 L -18.4369,-64.5886
 L -17.8139,-64.5099 L 17.8139,-64.5099 z
M 18.4369,-40.5886 L 19.0451,-40.7447 L 19.6289,-40.9759 L 20.1791,-41.2784 L 20.6871,-41.6474 L 21.1448,-42.0773
 L 21.5451,-42.5611 L 21.8815,-43.0912 L 22.1489,-43.6594 L 22.3429,-44.2566 L 22.4606,-44.8733 L 22.5,-45.5
 L 22.5,-50.5 L 22.4606,-51.1267 L 22.3429,-51.7434 L 22.1489,-52.3406 L 21.8815,-52.9088 L 21.5451,-53.4389
 L 21.1448,-53.9227 L 20.6871,-54.3526 L 20.1791,-54.7216 L 19.6289,-55.0241 L 19.0451,-55.2553 L 18.4369,-55.4114
 L 17.8139,-55.4901 L -17.8139,-55.4901 L -18.4369,-55.4114 L -19.0451,-55.2553 L -19.6289,-55.0241 L -20.1791,-54.7216
 L -20.6871,-54.3526 L -21.1448,-53.9227 L -21.5451,-53.4389 L -21.8815,-52.9088 L -22.1489,-52.3406 L -22.3429,-51.7434
 L -22.4,-51.4442 L -24,-51.4442 L -24,-44.5558 L -22.4,-44.5558 L -22.3429,-44.2566 L -22.1489,-43.6594
 L -21.8815,-43.0912 L -21.5451,-42.5611 L -21.1448,-42.0773 L -20.6871,-41.6474 L -20.1791,-41.2784 L -19.6289,-40.9759
 L -19.0451,-40.7447 L -18.4369,-40.5886 L -17.8139,-40.5099 L 17.8139,-40.5099 z
M -15.113,-46.2036 L -15.3373,-46.2319 L -15.5562,-46.2881 L -15.7664,-46.3713 L -15.9645,-46.4802 L -16.1474,-46.6131
 L -16.3121,-46.7678 L -16.4562,-46.942 L -16.5773,-47.1329 L -16.6736,-47.3374 L -16.7434,-47.5524 L -16.7858,-47.7744
 L -16.8,-48 L -16.7858,-48.2256 L -16.7434,-48.4476 L -16.6736,-48.6626 L -16.5773,-48.8671 L -16.4562,-49.058
 L -16.3121,-49.2322 L -16.1474,-49.3869 L -15.9645,-49.5198 L -15.7664,-49.6287 L -15.5562,-49.7119 L -15.3373,-49.7681
 L -15.113,-49.7964 L -14.887,-49.7964 L -14.6627,-49.7681 L -14.4438,-49.7119 L -14.2336,-49.6287 L -14.0355,-49.5198
 L -13.8526,-49.3869 L -13.6879,-49.2322 L -13.5438,-49.058 L -13.4226,-48.8671 L -13.3264,-48.6626 L -13.2565,-48.4476
 L -13.2142,-48.2256 L -13.2,-48 L -13.2142,-47.7744 L -13.2565,-47.5524 L -13.3264,-47.3374 L -13.4226,-47.1329
 L -13.5438,-46.942 L -13.6879,-46.7678 L -13.8526,-46.6131 L -14.0355,-46.4802 L -14.2336,-46.3713 L -14.4438,-46.2881
 L -14.6627,-46.2319 L -14.887,-46.2036 z
M 14.887,-46.2036 L 14.6627,-46.2319 L 14.4438,-46.2881 L 14.2336,-46.3713 L 14.0355,-46.4802 L 13.8526,-46.6131
 L 13.6879,-46.7678 L 13.5438,-46.942 L 13.4226,-47.1329 L 13.3264,-47.3374 L 13.2565,-47.5524 L 13.2142,-47.7744
 L 13.2,-48 L 13.2142,-48.2256 L 13.2565,-48.4476 L 13.3264,-48.6626 L 13.4226,-48.8671 L 13.5438,-49.058
 L 13.6879,-49.2322 L 13.8526,-49.3869 L 14.0355,-49.5198 L 14.2336,-49.6287 L 14.4438,-49.7119 L 14.6627,-49.7681
 L 14.887,-49.7964 L 15.113,-49.7964 L 15.3373,-49.7681 L 15.5562,-49.7119 L 15.7664,-49.6287 L 15.9645,-49.5198
 L 16.1474,-49.3869 L 16.3121,-49.2322 L 16.4562,-49.058 L 16.5773,-48.8671 L 16.6736,-48.6626 L 16.7434,-48.4476
 L 16.7858,-48.2256 L 16.8,-48 L 16.7858,-47.7744 L 16.7434,-47.5524 L 16.6736,-47.3374 L 16.5773,-47.1329
 L 16.4562,-46.942 L 16.3121,-46.7678 L 16.1474,-46.6131 L 15.9645,-46.4802 L 15.7664,-46.3713 L 15.5562,-46.2881
 L 15.3373,-46.2319 L 15.113,-46.2036 z
" stroke="black" fill="lightgray" stroke-width="0.5"/>
</svg>
