<?xml version="1.0" standalone="no"?>
<!DOCTYPE svg PUBLIC "-//W3C//DTD SVG 1.1//EN" "http://www.w3.org/Graphics/SVG/1.1/DTD/svg11.dtd">
<svg width="46mm" height="562mm" viewBox="-23 -1079 46 562" xmlns="http://www.w3.org/2000/svg" version="1.1">
<title>OpenSCAD Model</title>
<path d="
M 18.4369,-973.589 L 19.0451,-973.745 L 19.6289,-973.976 L 20.1791,-974.278 L 20.6871,-974.647 L 21.1448,-975.077
 L 21.5451,-975.561 L 21.8815,-976.091 L 22.1489,-976.659 L 22.3429,-977.257 L 22.4606,-977.873 L 22.5,-978.5
 L 22.5,-1073.5 L 22.4606,-1074.13 L 22.3429,-1074.74 L 22.1489,-1075.34 L 21.8815,-1075.91 L 21.5451,-1076.44
 L 21.1448,-1076.92 L 20.6871,-1077.35 L 20.1791,-1077.72 L 19.6289,-1078.02 L 19.0451,-1078.26 L 18.4369,-1078.41
 L 17.8139,-1078.49 L -17.8139,-1078.49 L -18.4369,-1078.41 L -19.0451,-1078.26 L -19.6289,-1078.02 L -20.1791,-1077.72
 L -20.6871,-1077.35 L -21.1448,-1076.92 L -21.5451,-1076.44 L -21.8815,-1075.91 L -22.1489,-1075.34 L -22.3429,-1074.74
 L -22.4606,-1074.13 L -22.5,-1073.5 L -22.5,-978.5 L -22.4606,-977.873 L -22.3429,-977.257 L -22.1489,-976.659
 L -21.8815,-976.091 L -21.5451,-975.561 L -21.1448,-975.077 L -20.6871,-974.647 L -20.1791,-974.278 L -19.6289,-973.976
 L -19.0451,-973.745 L -18.4369,-973.589 L -17.8139,-973.51 L 17.8139,-973.51 z
M -17.2512,-975.008 L -17.7495,-975.071 L -18.2361,-975.196 L -18.7031,-975.381 L -19.1433,-975.623 L -19.5497,-975.918
 L -19.9159,-976.262 L -20.2361,-976.649 L -20.5052,-977.073 L -20.7191,-977.528 L -20.8743,-978.005 L -20.9684,-978.499
 L -21,-979 L -21,-1073 L -20.9684,-1073.5 L -20.8743,-1073.99 L -20.7191,-1074.47 L -20.5052,-1074.93
 L -20.2361,-1075.35 L -19.9159,-1075.74 L -19.5497,-1076.08 L -19.1433,-1076.38 L -18.7031,-1076.62 L -18.2361,-1076.8
 L -17.7495,-1076.93 L -17.2512,-1076.99 L 17.2512,-1076.99 L 17.7495,-1076.93 L 18.2361,-1076.8 L 18.7031,-1076.62
 L 19.1433,-1076.38 L 19.5497,-1076.08 L 19.9159,-1075.74 L 20.2361,-1075.35 L 20.5052,-1074.93 L 20.7191,-1074.47
 L 20.8743,-1073.99 L 20.9684,-1073.5 L 21,-1073 L 21,-979 L 20.9684,-978.499 L 20.8743,-978.005
 L 20.7191,-977.528 L 20.5052,-977.073 L 20.2361,-976.649 L 19.9159,-976.262 L 19.5497,-975.918 L 19.1433,-975.623
 L 18.7031,-975.381 L 18.2361,-975.196 L 17.7495,-975.071 L 17.2512,-975.008 z
M 18.4369,-859.589 L 19.0451,-859.745 L 19.6289,-859.976 L 20.1791,-860.278 L 20.6871,-860.647 L 21.1448,-861.077
 L 21.5451,-861.561 L 21.8815,-862.091 L 22.1489,-862.659 L 22.3429,-863.257 L 22.4606,-863.873 L 22.5,-864.5
 L 22.5,-959.5 L 22.4606,-960.127 L 22.3429,-960.743 L 22.1489,-961.341 L 21.8815,-961.909 L 21.5451,-962.439
 L 21.1448,-962.923 L 20.6871,-963.353 L 20.1791,-963.722 L 19.6289,-964.024 L 19.0451,-964.255 L 18.4369,-964.411
 L 17.8139,-964.49 L -17.8139,-964.49 L -18.4369,-964.411 L -19.0451,-964.255 L -19.6289,-964.024 L -20.1791,-963.722
 L -20.6871,-963.353 L -21.1448,-962.923 L -21.5451,-962.439 L -21.8815,-961.909 L -22.1489,-961.341 L -22.3429,-960.743
 L -22.4606,-960.127 L -22.5,-959.5 L -22.5,-864.5 L -22.4606,-863.873 L -22.3429,-863.257 L -22.1489,-862.659
 L -21.8815,-862.091 L -21.5451,-861.561 L -21.1448,-861.077 L -20.6871,-860.647 L -20.1791,-860.278 L -19.6289,-859.976
 L -19.0451,-859.745 L -18.4369,-859.589 L -17.8139,-859.51 L 17.8139,-859.51 z
M -17.2512,-861.008 L -17.7495,-861.071 L -18.2361,-861.196 L -18.7031,-861.381 L -19.1433,-861.623 L -19.5497,-861.918
 L -19.9159,-862.262 L -20.2361,-862.649 L -20.5052,-863.073 L -20.7191,-863.528 L -20.8743,-864.005 L -20.9684,-864.499
 L -21,-865 L -21,-959 L -20.9684,-959.501 L -20.8743,-959.995 L -20.7191,-960.472 L -20.5052,-960.927
 L -20.2361,-961.351 L -19.9159,-961.738 L -19.5497,-962.082 L -19.1433,-962.377 L -18.7031,-962.619 L -18.2361,-962.804
 L -17.7495,-962.929 L -17.2512,-962.992 L 17.2512,-962.992 L 17.7495,-962.929 L 18.2361,-962.804 L 18.7031,-962.619
 L 19.1433,-962.377 L 19.5497,-962.082 L 19.9159,-961.738 L 20.2361,-961.351 L 20.5052,-960.927 L 20.7191,-960.472
 L 20.8743,-959.995 L 20.9684,-959.501 L 21,-959 L 21,-865 L 20.9684,-864.499 L 20.8743,-864.005
 L 20.7191,-863.528 L 20.5052,-863.073 L 20.2361,-862.649 L 19.9159,-862.262 L 19.5497,-861.918 L 19.1433,-861.623
 L 18.7031,-861.381 L 18.2361,-861.196 L 17.7495,-861.071 L 17.2512,-861.008 z
M 18.4369,-745.589 L 19.0451,-745.745 L 19.6289,-745.976 L 20.1791,-746.278 L 20.6871,-746.647 L 21.1448,-747.077
 L 21.5451,-747.561 L 21.8815,-748.091 L 22.1489,-748.659 L 22.3429,-749.257 L 22.4606,-749.873 L 22.5,-750.5
 L 22.5,-845.5 L 22.4606,-846.127 L 22.3429,-846.743 L 22.1489,-847.341 L 21.8815,-847.909 L 21.5451,-848.439
 L 21.1448,-848.923 L 20.6871,-849.353 L 20.1791,-849.722 L 19.6289,-850.024 L 19.0451,-850.255 L 18.4369,-850.411
 L 17.8139,-850.49 L -17.8139,-850.49 L -18.4369,-850.411 L -19.0451,-850.255 L -19.6289,-850.024 L -20.1791,-849.722
 L -20.6871,-849.353 L -21.1448,-848.923 L -21.5451,-848.439 L -21.8815,-847.909 L -22.1489,-847.341 L -22.3429,-846.743
 L -22.4606,-846.127 L -22.5,-845.5 L -22.5,-750.5 L -22.4606,-749.873 L -22.3429,-749.257 L -22.1489,-748.659
 L -21.8815,-748.091 L -21.5451,-747.561 L -21.1448,-747.077 L -20.6871,-746.647 L -20.1791,-746.278 L -19.6289,-745.976
 L -19.0451,-745.745 L -18.4369,-745.589 L -17.8139,-745.51 L 17.8139,-745.51 z
M -17.2512,-747.008 L -17.7495,-747.071 L -18.2361,-747.196 L -18.7031,-747.381 L -19.1433,-747.623 L -19.5497,-747.918
 L -19.9159,-748.262 L -20.2361,-748.649 L -20.5052,-749.073 L -20.7191,-749.528 L -20.8743,-750.005 L -20.9684,-750.499
 L -21,-751 L -21,-845 L -20.9684,-845.501 L -20.8743,-845.995 L -20.7191,-846.472 L -20.5052,-846.927
 L -20.2361,-847.351 L -19.9159,-847.738 L -19.5497,-848.082 L -19.1433,-848.377 L -18.7031,-848.619 L -18.2361,-848.804
 L -17.7495,-848.929 L -17.2512,-848.992 L 17.2512,-848.992 L 17.7495,-848.929 L 18.2361,-848.804 L 18.7031,-848.619
 L 19.1433,-848.377 L 19.5497,-848.082 L 19.9159,-847.738 L 20.2361,-847.351 L 20.5052,-846.927 L 20.7191,-846.472
 L 20.8743,-845.995 L 20.9684,-845.501 L 21,-845 L 21,-751 L 20.9684,-750.499 L 20.8743,-750.005
 L 20.7191,-749.528 L 20.5052,-749.073 L 20.2361,-748.649 L 19.9159,-748.262 L 19.5497,-747.918 L 19.1433,-747.623
 L 18.7031,-747.381 L 18.2361,-747.196 L 17.7495,-747.071 L 17.2512,-747.008 z
M 18.4369,-631.589 L 19.0451,-631.745 L 19.6289,-631.976 L 20.1791,-632.278 L 20.6871,-632.647 L 21.1448,-633.077
 L 21.5451,-633.561 L 21.8815,-634.091 L 22.1489,-634.659 L 22.3429,-635.257 L 22.4606,-635.873 L 22.5,-636.5
 L 22.5,-731.5 L 22.4606,-732.127 L 22.3429,-732.743 L 22.1489,-733.341 L 21.8815,-733.909 L 21.5451,-734.439
 L 21.1448,-734.923 L 20.6871,-735.353 L 20.1791,-735.722 L 19.6289,-736.024 L 19.0451,-736.255 L 18.4369,-736.411
 L 17.8139,-736.49 L -17.8139,-736.49 L -18.4369,-736.411 L -19.0451,-736.255 L -19.6289,-736.024 L -20.1791,-735.722
 L -20.6871,-735.353 L -21.1448,-734.923 L -21.5451,-734.439 L -21.8815,-733.909 L -22.1489,-733.341 L -22.3429,-732.743
 L -22.4606,-732.127 L -22.5,-731.5 L -22.5,-636.5 L -22.4606,-635.873 L -22.3429,-635.257 L -22.1489,-634.659
 L -21.8815,-634.091 L -21.5451,-633.561 L -21.1448,-633.077 L -20.6871,-632.647 L -20.1791,-632.278 L -19.6289,-631.976
 L -19.0451,-631.745 L -18.4369,-631.589 L -17.8139,-631.51 L 17.8139,-631.51 z
M -17.1954,-633.893 L -17.5833,-633.942 L -17.9619,-634.039 L -18.3254,-634.183 L -18.668,-634.372 L -18.9842,-634.601
 L -19.2692,-634.869 L -19.5184,-635.17 L -19.7279,-635.5 L -19.8943,-635.854 L -20.0151,-636.226 L -20.0884,-636.61
 L -20.1129,-637 L -20.1129,-731 L -20.0884,-731.39 L -20.0151,-731.774 L -19.8943,-732.146 L -19.7279,-732.5
 L -19.5184,-732.83 L -19.2692,-733.131 L -18.9842,-733.399 L -18.668,-733.628 L -18.3254,-733.817 L -17.9619,-733.961
 L -17.5833,-734.058 L -17.1954,-734.107 L 17.1954,-734.107 L 17.5833,-734.058 L 17.9619,-733.961 L 18.3254,-733.817
 L 18.668,-733.628 L 18.9842,-733.399 L 19.2692,-733.131 L 19.5184,-732.83 L 19.7279,-732.5 L 19.8943,-732.146
 L 20.0151,-731.774 L 20.0884,-731.39 L 20.1129,-731 L 20.1129,-637 L 20.0884,-636.61 L 20.0151,-636.226
 L 19.8943,-635.854 L 19.7279,-635.5 L 19.5184,-635.17 L 19.2692,-634.869 L 18.9842,-634.601 L 18.668,-634.372
 L 18.3254,-634.183 L 17.9619,-634.039 L 17.5833,-633.942 L 17.1954,-633.893 z
M 18.4369,-517.589 L 19.0451,-517.745 L 19.6289,-517.976 L 20.1791,-518.278 L 20.6871,-518.647 L 21.1448,-519.077
 L 21.5451,-519.561 L 21.8815,-520.091 L 22.1489,-520.659 L 22.3429,-521.257 L 22.4606,-521.873 L 22.5,-522.5
 L 22.5,-617.5 L 22.4606,-618.127 L 22.3429,-618.743 L 22.1489,-619.341 L 21.8815,-619.909 L 21.5451,-620.439
 L 21.1448,-620.923 L 20.6871,-621.353 L 20.1791,-621.722 L 19.6289,-622.024 L 19.0451,-622.255 L 18.4369,-622.411
 L 17.8139,-622.49 L -17.8139,-622.49 L -18.4369,-622.411 L -19.0451,-622.255 L -19.6289,-622.024 L -20.1791,-621.722
 L -20.6871,-621.353 L -21.1448,-620.923 L -21.5451,-620.439 L -21.8815,-619.909 L -22.1489,-619.341 L -22.3429,-618.743
 L -22.4606,-618.127 L -22.5,-617.5 L -22.5,-522.5 L -22.4606,-521.873 L -22.3429,-521.257 L -22.1489,-520.659
 L -21.8815,-520.091 L -21.5451,-519.561 L -21.1448,-519.077 L -20.6871,-518.647 L -20.1791,-518.278 L -19.6289,-517.976
 L -19.0451,-517.745 L -18.4369,-517.589 L -17.8139,-517.51 L 17.8139,-517.51 z
M 14.8659,-612.869 L 14.5999,-612.903 L 14.3401,-612.969 L 14.0908,-613.068 L 13.8559,-613.197 L 13.6389,-613.355
 L 13.4434,-613.538 L 13.2725,-613.745 L 13.1288,-613.971 L 13.0146,-614.214 L 12.9318,-614.469 L 12.8815,-614.732
 L 12.8647,-615 L 12.8815,-615.268 L 12.9318,-615.531 L 13.0146,-615.786 L 13.1288,-616.029 L 13.2725,-616.255
 L 13.4434,-616.462 L 13.6389,-616.645 L 13.8559,-616.803 L 14.0908,-616.932 L 14.3401,-617.031 L 14.5999,-617.097
 L 14.8659,-617.131 L 15.1341,-617.131 L 15.4001,-617.097 L 15.6598,-617.031 L 15.9091,-616.932 L 16.1441,-616.803
 L 16.3611,-616.645 L 16.5565,-616.462 L 16.7275,-616.255 L 16.8712,-616.029 L 16.9853,-615.786 L 17.0682,-615.531
 L 17.1185,-615.268 L 17.1353,-615 L 17.1185,-614.732 L 17.0682,-614.469 L 16.9853,-614.214 L 16.8712,-613.971
 L 16.7275,-613.745 L 16.5565,-613.538 L 16.3611,-613.355 L 16.1441,-613.197 L 15.9091,-613.068 L 15.6598,-612.969
 L 15.4001,-612.903 L 15.1341,-612.869 z
M -15.1341,-612.869 L -15.4001,-612.903 L -15.6598,-612.969 L -15.9091,-613.068 L -16.1441,-613.197 L -16.3611,-613.355
 L -16.5565,-613.538 L -16.7275,-613.745 L -16.8712,-613.971 L -16.9853,-614.214 L -17.0682,-614.469 L -17.1185,-614.732
 L -17.1353,-615 L -17.1185,-615.268 L -17.0682,-615.531 L -16.9853,-615.786 L -16.8712,-616.029 L -16.7275,-616.255
 L -16.5565,-616.462 L -16.3611,-616.645 L -16.1441,-616.803 L -15.9091,-616.932 L -15.6598,-617.031 L -15.4001,-617.097
 L -15.1341,-617.131 L -14.8659,-617.131 L -14.5999,-617.097 L -14.3401,-617.031 L -14.0908,-616.932 L -13.8559,-616.803
 L -13.6389,-616.645 L -13.4434,-616.462 L -13.2725,-616.255 L -13.1288,-616.029 L -13.0146,-615.786 L -12.9318,-615.531
 L -12.8815,-615.268 L -12.8647,-615 L -12.8815,-614.732 L -12.9318,-614.469 L -13.0146,-614.214 L -13.1288,-613.971
 L -13.2725,-613.745 L -13.4434,-613.538 L -13.6389,-613.355 L -13.8559,-613.197 L -14.0908,-613.068 L -14.3401,-612.969
 L -14.5999,-612.903 L -14.8659,-612.869 z
M 14.8659,-522.869 L 14.5999,-522.903 L 14.3401,-522.969 L 14.0908,-523.068 L 13.8559,-523.197 L 13.6389,-523.355
 L 13.4434,-523.538 L 13.2725,-523.745 L 13.1288,-523.971 L 13.0146,-524.214 L 12.9318,-524.469 L 12.8815,-524.732
 L 12.8647,-525 L 12.8815,-525.268 L 12.9318,-525.531 L 13.0146,-525.786 L 13.1288,-526.029 L 13.2725,-526.255
 L 13.4434,-526.462 L 13.6389,-526.645 L 13.8559,-526.803 L 14.0908,-526.932 L 14.3401,-527.031 L 14.5999,-527.097
 L 14.8659,-527.131 L 15.1341,-527.131 L 15.4001,-527.097 L 15.6598,-527.031 L 15.9091,-526.932 L 16.1441,-526.803
 L 16.3611,-526.645 L 16.5565,-526.462 L 16.7275,-526.255 L 16.8712,-526.029 L 16.9853,-525.786 L 17.0682,-525.531
 L 17.1185,-525.268 L 17.1353,-525 L 17.1185,-524.732 L 17.0682,-524.469 L 16.9853,-524.214 L 16.8712,-523.971
 L 16.7275,-523.745 L 16.5565,-523.538 L 16.3611,-523.355 L 16.1441,-523.197 L 15.9091,-523.068 L 15.6598,-522.969
 L 15.4001,-522.903 L 15.1341,-522.869 z
M -15.1341,-522.869 L -15.4001,-522.903 L -15.6598,-522.969 L -15.9091,-523.068 L -16.1441,-523.197 L -16.3611,-523.355
 L -16.5565,-523.538 L -16.7275,-523.745 L -16.8712,-523.971 L -16.9853,-524.214 L -17.0682,-524.469 L -17.1185,-524.732
 L -17.1353,-525 L -17.1185,-525.268 L -17.0682,-525.531 L -16.9853,-525.786 L -16.8712,-526.029 L -16.7275,-526.255
 L -16.5565,-526.462 L -16.3611,-526.645 L -16.1441,-526.803 L -15.9091,-526.932 L -15.6598,-527.031 L -15.4001,-527.097
 L -15.1341,-527.131 L -14.8659,-527.131 L -14.5999,-527.097 L -14.3401,-527.031 L -14.0908,-526.932 L -13.8559,-526.803
 L -13.6389,-526.645 L -13.4434,-526.462 L -13.2725,-526.255 L -13.1288,-526.029 L -13.0146,-525.786 L -12.9318,-525.531
 L -12.8815,-525.268 L -12.8647,-525 L -12.8815,-524.732 L -12.9318,-524.469 L -13.0146,-524.214 L -13.1288,-523.971
 L -13.2725,-523.745 L -13.4434,-523.538 L -13.6389,-523.355 L -13.8559,-523.197 L -14.0908,-523.068 L -14.3401,-522.969
 L -14.5999,-522.903 L -14.8659,-522.869 z
" stroke="black" fill="lightgray" stroke-width="0.5"/>
</svg>
