<?xml version="1.0" standalone="no"?>
<!DOCTYPE svg PUBLIC "-//W3C//DTD SVG 1.1//EN" "http://www.w3.org/Graphics/SVG/1.1/DTD/svg11.dtd">
<svg width="30mm" height="558mm" viewBox="-15 -846 30 558" xmlns="http://www.w3.org/2000/svg" version="1.1">
<title>OpenSCAD Model</title>
<path d="
M 10.9369,-666.089 L 11.5451,-666.245 L 12.1289,-666.476 L 12.6791,-666.778 L 13.1871,-667.147 L 13.6448,-667.577
 L 14.0451,-668.061 L 14.3815,-668.591 L 14.6489,-669.159 L 14.8429,-669.757 L 14.9606,-670.373 L 15,-671
 L 15,-841 L 14.9606,-841.627 L 14.8429,-842.243 L 14.6489,-842.841 L 14.3815,-843.409 L 14.0451,-843.939
 L 13.6448,-844.423 L 13.1871,-844.853 L 12.6791,-845.222 L 12.1289,-845.524 L 11.5451,-845.755 L 10.9369,-845.911
 L 10.3139,-845.99 L -10.3139,-845.99 L -10.9369,-845.911 L -11.5451,-845.755 L -12.1289,-845.524 L -12.6791,-845.222
 L -13.1871,-844.853 L -13.6448,-844.423 L -14.0451,-843.939 L -14.3815,-843.409 L -14.6489,-842.841 L -14.8429,-842.243
 L -14.9606,-841.627 L -15,-841 L -15,-671 L -14.9606,-670.373 L -14.8429,-669.757 L -14.6489,-669.159
 L -14.3815,-668.591 L -14.0451,-668.061 L -13.6448,-667.577 L -13.1871,-667.147 L -12.6791,-666.778 L -12.1289,-666.476
 L -11.5451,-666.245 L -10.9369,-666.089 L -10.3139,-666.01 L 10.3139,-666.01 z
M -9.74316,-667.635 L -10.2256,-667.696 L -10.6967,-667.817 L -11.1489,-667.996 L -11.5751,-668.23 L -11.9685,-668.516
 L -12.323,-668.849 L -12.633,-669.224 L -12.8936,-669.634 L -13.1007,-670.074 L -13.251,-670.537 L -13.3421,-671.015
 L -13.3726,-671.5 L -13.3726,-840.5 L -13.3421,-840.985 L -13.251,-841.463 L -13.1007,-841.926 L -12.8936,-842.366
 L -12.633,-842.776 L -12.323,-843.151 L -11.9685,-843.484 L -11.5751,-843.77 L -11.1489,-844.004 L -10.6967,-844.183
 L -10.2256,-844.304 L -9.74316,-844.365 L 9.74316,-844.365 L 10.2256,-844.304 L 10.6967,-844.183 L 11.1489,-844.004
 L 11.5751,-843.77 L 11.9685,-843.484 L 12.323,-843.151 L 12.633,-842.776 L 12.8936,-842.366 L 13.1007,-841.926
 L 13.251,-841.463 L 13.3421,-840.985 L 13.3726,-840.5 L 13.3726,-671.5 L 13.3421,-671.015 L 13.251,-670.537
 L 13.1007,-670.074 L 12.8936,-669.634 L 12.633,-669.224 L 12.323,-668.849 L 11.9685,-668.516 L 11.5751,-668.23
 L 11.1489,-667.996 L 10.6967,-667.817 L 10.2256,-667.696 L 9.74316,-667.635 z
M 10.9369,-477.089 L 11.5451,-477.245 L 12.1289,-477.476 L 12.6791,-477.778 L 13.1871,-478.147 L 13.6448,-478.577
 L 14.0451,-479.061 L 14.3815,-479.591 L 14.6489,-480.159 L 14.8429,-480.757 L 14.9606,-481.373 L 15,-482
 L 15,-652 L 14.9606,-652.627 L 14.8429,-653.243 L 14.6489,-653.841 L 14.3815,-654.409 L 14.0451,-654.939
 L 13.6448,-655.423 L 13.1871,-655.853 L 12.6791,-656.222 L 12.1289,-656.524 L 11.5451,-656.755 L 10.9369,-656.911
 L 10.3139,-656.99 L -10.3139,-656.99 L -10.9369,-656.911 L -11.5451,-656.755 L -12.1289,-656.524 L -12.6791,-656.222
 L -13.1871,-655.853 L -13.6448,-655.423 L -14.0451,-654.939 L -14.3815,-654.409 L -14.6489,-653.841 L -14.8429,-653.243
 L -14.9606,-652.627 L -15,-652 L -15,-482 L -14.9606,-481.373 L -14.8429,-480.757 L -14.6489,-480.159
 L -14.3815,-479.591 L -14.0451,-479.061 L -13.6448,-478.577 L -13.1871,-478.147 L -12.6791,-477.778 L -12.1289,-477.476
 L -11.5451,-477.245 L -10.9369,-477.089 L -10.3139,-477.01 L 10.3139,-477.01 z
M 10.9369,-288.089 L 11.5451,-288.245 L 12.1289,-288.476 L 12.6791,-288.778 L 13.1871,-289.147 L 13.6448,-289.577
 L 14.0451,-290.061 L 14.3815,-290.591 L 14.6489,-291.159 L 14.8429,-291.757 L 14.9606,-292.373 L 15,-293
 L 15,-463 L 14.9606,-463.627 L 14.8429,-464.243 L 14.6489,-464.841 L 14.3815,-465.409 L 14.0451,-465.939
 L 13.6448,-466.423 L 13.1871,-466.853 L 12.6791,-467.222 L 12.1289,-467.524 L 11.5451,-467.755 L 10.9369,-467.911
 L 10.3139,-467.99 L -10.3139,-467.99 L -10.9369,-467.911 L -11.5451,-467.755 L -12.1289,-467.524 L -12.6791,-467.222
 L -13.1871,-466.853 L -13.6448,-466.423 L -14.0451,-465.939 L -14.3815,-465.409 L -14.6489,-464.841 L -14.8429,-464.243
 L -14.9606,-463.627 L -15,-463 L -15,-293 L -14.9606,-292.373 L -14.8429,-291.757 L -14.6489,-291.159
 L -14.3815,-290.591 L -14.0451,-290.061 L -13.6448,-289.577 L -13.1871,-289.147 L -12.6791,-288.778 L -12.1289,-288.476
 L -11.5451,-288.245 L -10.9369,-288.089 L -10.3139,-288.01 L 10.3139,-288.01 z
M 7.38696,-458.704 L 7.1627,-458.732 L 6.94376,-458.788 L 6.7336,-458.871 L 6.53551,-458.98 L 6.35263,-459.113
 L 6.18785,-459.268 L 6.04376,-459.442 L 5.92264,-459.633 L 5.8264,-459.837 L 5.75655,-460.052 L 5.71419,-460.274
 L 5.7,-460.5 L 5.71419,-460.726 L 5.75655,-460.948 L 5.8264,-461.163 L 5.92264,-461.367 L 6.04376,-461.558
 L 6.18785,-461.732 L 6.35263,-461.887 L 6.53551,-462.02 L 6.7336,-462.129 L 6.94376,-462.212 L 7.1627,-462.268
 L 7.38696,-462.296 L 7.61302,-462.296 L 7.83728,-462.268 L 8.05623,-462.212 L 8.26639,-462.129 L 8.46448,-462.02
 L 8.64735,-461.887 L 8.81213,-461.732 L 8.95622,-461.558 L 9.07735,-461.367 L 9.17358,-461.163 L 9.24344,-460.948
 L 9.2858,-460.726 L 9.29999,-460.5 L 9.2858,-460.274 L 9.24344,-460.052 L 9.17358,-459.837 L 9.07735,-459.633
 L 8.95622,-459.442 L 8.81213,-459.268 L 8.64735,-459.113 L 8.46448,-458.98 L 8.26639,-458.871 L 8.05623,-458.788
 L 7.83728,-458.732 L 7.61302,-458.704 z
M -7.61302,-458.704 L -7.83728,-458.732 L -8.05623,-458.788 L -8.26639,-458.871 L -8.46448,-458.98 L -8.64735,-459.113
 L -8.81213,-459.268 L -8.95622,-459.442 L -9.07735,-459.633 L -9.17358,-459.837 L -9.24344,-460.052 L -9.2858,-460.274
 L -9.29999,-460.5 L -9.2858,-460.726 L -9.24344,-460.948 L -9.17358,-461.163 L -9.07735,-461.367 L -8.95622,-461.558
 L -8.81213,-461.732 L -8.64735,-461.887 L -8.46448,-462.02 L -8.26639,-462.129 L -8.05623,-462.212 L -7.83728,-462.268
 L -7.61302,-462.296 L -7.38696,-462.296 L -7.1627,-462.268 L -6.94376,-462.212 L -6.7336,-462.129 L -6.53551,-462.02
 L -6.35263,-461.887 L -6.18785,-461.732 L -6.04376,-461.558 L -5.92264,-461.367 L -5.8264,-461.163 L -5.75655,-460.948
 L -5.71419,-460.726 L -5.7,-460.5 L -5.71419,-460.274 L -5.75655,-460.052 L -5.8264,-459.837 L -5.92264,-459.633
 L -6.04376,-459.442 L -6.18785,-459.268 L -6.35263,-459.113 L -6.53551,-458.98 L -6.7336,-458.871 L -6.94376,-458.788
 L -7.1627,-458.732 L -7.38696,-458.704 z
M -7.61302,-293.704 L -7.83728,-293.732 L -8.05623,-293.788 L -8.26639,-293.871 L -8.46448,-293.98 L -8.64735,-294.113
 L -8.81213,-294.268 L -8.95622,-294.442 L -9.07735,-294.633 L -9.17358,-294.837 L -9.24344,-295.052 L -9.2858,-295.274
 L -9.29999,-295.5 L -9.2858,-295.726 L -9.24344,-295.948 L -9.17358,-296.163 L -9.07735,-296.367 L -8.95622,-296.558
 L -8.81213,-296.732 L -8.64735,-296.887 L -8.46448,-297.02 L -8.26639,-297.129 L -8.05623,-297.212 L -7.83728,-297.268
 L -7.61302,-297.296 L -7.38696,-297.296 L -7.1627,-297.268 L -6.94376,-297.212 L -6.7336,-297.129 L -6.53551,-297.02
 L -6.35263,-296.887 L -6.18785,-296.732 L -6.04376,-296.558 L -5.92264,-296.367 L -5.8264,-296.163 L -5.75655,-295.948
 L -5.71419,-295.726 L -5.7,-295.5 L -5.71419,-295.274 L -5.75655,-295.052 L -5.8264,-294.837 L -5.92264,-294.633
 L -6.04376,-294.442 L -6.18785,-294.268 L -6.35263,-294.113 L -6.53551,-293.98 L -6.7336,-293.871 L -6.94376,-293.788
 L -7.1627,-293.732 L -7.38696,-293.704 z
M 7.38696,-293.704 L 7.1627,-293.732 L 6.94376,-293.788 L 6.7336,-293.871 L 6.53551,-293.98 L 6.35263,-294.113
 L 6.18785,-294.268 L 6.04376,-294.442 L 5.92264,-294.633 L 5.8264,-294.837 L 5.75655,-295.052 L 5.71419,-295.274
 L 5.7,-295.5 L 5.71419,-295.726 L 5.75655,-295.948 L 5.8264,-296.163 L 5.92264,-296.367 L 6.04376,-296.558
 L 6.18785,-296.732 L 6.35263,-296.887 L 6.53551,-297.02 L 6.7336,-297.129 L 6.94376,-297.212 L 7.1627,-297.268
 L 7.38696,-297.296 L 7.61302,-297.296 L 7.83728,-297.268 L 8.05623,-297.212 L 8.26639,-297.129 L 8.46448,-297.02
 L 8.64735,-296.887 L 8.81213,-296.732 L 8.95622,-296.558 L 9.07735,-296.367 L 9.17358,-296.163 L 9.24344,-295.948
 L 9.2858,-295.726 L 9.29999,-295.5 L 9.2858,-295.274 L 9.24344,-295.052 L 9.17358,-294.837 L 9.07735,-294.633
 L 8.95622,-294.442 L 8.81213,-294.268 L 8.64735,-294.113 L 8.46448,-293.98 L 8.26639,-293.871 L 8.05623,-293.788
 L 7.83728,-293.732 L 7.61302,-293.704 z
" stroke="black" fill="lightgray" stroke-width="0.5"/>
</svg>
