  0
SECTION
  2
BLOCKS
  0
ENDSEC
  0
SECTION
  2
ENTITIES
  0
LINE
  8
0
 10
32.9369
 20
383.089
 11
33.5451
 21
383.245
  0
LINE
  8
0
 10
33.5451
 20
383.245
 11
34.1289
 21
383.476
  0
LINE
  8
0
 10
34.1289
 20
383.476
 11
34.6791
 21
383.778
  0
LINE
  8
0
 10
34.6791
 20
383.778
 11
35.1871
 21
384.147
  0
LINE
  8
0
 10
35.1871
 20
384.147
 11
35.6448
 21
384.577
  0
LINE
  8
0
 10
35.6448
 20
384.577
 11
36.0451
 21
385.061
  0
LINE
  8
0
 10
36.0451
 20
385.061
 11
36.3815
 21
385.591
  0
LINE
  8
0
 10
36.3815
 20
385.591
 11
36.6489
 21
386.159
  0
LINE
  8
0
 10
36.6489
 20
386.159
 11
36.8429
 21
386.757
  0
LINE
  8
0
 10
36.8429
 20
386.757
 11
36.9606
 21
387.373
  0
LINE
  8
0
 10
36.9606
 20
387.373
 11
37
 21
388
  0
LINE
  8
0
 10
37
 20
388
 11
37
 21
450
  0
LINE
  8
0
 10
37
 20
450
 11
15.8664
 21
450
  0
LINE
  8
0
 10
15.8664
 20
450
 11
15.87
 21
449.998
  0
LINE
  8
0
 10
15.87
 20
449.998
 11
13.7482
 21
449.998
  0
LINE
  8
0
 10
13.7482
 20
449.998
 11
13.6236
 21
449.982
  0
LINE
  8
0
 10
13.6236
 20
449.982
 11
13.502
 21
449.951
  0
LINE
  8
0
 10
13.502
 20
449.951
 11
13.3852
 21
449.905
  0
LINE
  8
0
 10
13.3852
 20
449.905
 11
13.2752
 21
449.844
  0
LINE
  8
0
 10
13.2752
 20
449.844
 11
13.1736
 21
449.771
  0
LINE
  8
0
 10
13.1736
 20
449.771
 11
13.082
 21
449.685
  0
LINE
  8
0
 10
13.082
 20
449.685
 11
13.002
 21
449.588
  0
LINE
  8
0
 10
13.002
 20
449.588
 11
12.9347
 21
449.482
  0
LINE
  8
0
 10
12.9347
 20
449.482
 11
12.8812
 21
449.368
  0
LINE
  8
0
 10
12.8812
 20
449.368
 11
12.8424
 21
449.249
  0
LINE
  8
0
 10
12.8424
 20
449.249
 11
12.8189
 21
449.125
  0
LINE
  8
0
 10
12.8189
 20
449.125
 11
12.811
 21
449
  0
LINE
  8
0
 10
12.811
 20
449
 11
12.8189
 21
448.875
  0
LINE
  8
0
 10
12.8189
 20
448.875
 11
12.8424
 21
448.751
  0
LINE
  8
0
 10
12.8424
 20
448.751
 11
12.8812
 21
448.632
  0
LINE
  8
0
 10
12.8812
 20
448.632
 11
12.9347
 21
448.518
  0
LINE
  8
0
 10
12.9347
 20
448.518
 11
13.002
 21
448.412
  0
LINE
  8
0
 10
13.002
 20
448.412
 11
13.082
 21
448.315
  0
LINE
  8
0
 10
13.082
 20
448.315
 11
13.1736
 21
448.229
  0
LINE
  8
0
 10
13.1736
 20
448.229
 11
13.2752
 21
448.156
  0
LINE
  8
0
 10
13.2752
 20
448.156
 11
13.3852
 21
448.095
  0
LINE
  8
0
 10
13.3852
 20
448.095
 11
13.502
 21
448.049
  0
LINE
  8
0
 10
13.502
 20
448.049
 11
13.6236
 21
448.018
  0
LINE
  8
0
 10
13.6236
 20
448.018
 11
13.7482
 21
448.002
  0
LINE
  8
0
 10
13.7482
 20
448.002
 11
18.8738
 21
448.002
  0
LINE
  8
0
 10
18.8738
 20
448.002
 11
18.9984
 21
448.018
  0
LINE
  8
0
 10
18.9984
 20
448.018
 11
19.12
 21
448.049
  0
LINE
  8
0
 10
19.12
 20
448.049
 11
19.1226
 21
448.05
  0
LINE
  8
0
 10
19.1226
 20
448.05
 11
21.6724
 21
446.197
  0
LINE
  8
0
 10
21.6724
 20
446.197
 11
24.7849
 21
443.275
  0
LINE
  8
0
 10
24.7849
 20
443.275
 11
27.5066
 21
439.985
  0
LINE
  8
0
 10
27.5066
 20
439.985
 11
29.7944
 21
436.38
  0
LINE
  8
0
 10
29.7944
 20
436.38
 11
31.6124
 21
432.516
  0
LINE
  8
0
 10
31.6124
 20
432.516
 11
32.9318
 21
428.455
  0
LINE
  8
0
 10
32.9318
 20
428.455
 11
33.7319
 21
424.261
  0
LINE
  8
0
 10
33.7319
 20
424.261
 11
34
 21
420
  0
LINE
  8
0
 10
34
 20
420
 11
33.7319
 21
415.739
  0
LINE
  8
0
 10
33.7319
 20
415.739
 11
32.9318
 21
411.545
  0
LINE
  8
0
 10
32.9318
 20
411.545
 11
31.6124
 21
407.484
  0
LINE
  8
0
 10
31.6124
 20
407.484
 11
29.7944
 21
403.62
  0
LINE
  8
0
 10
29.7944
 20
403.62
 11
27.5066
 21
400.015
  0
LINE
  8
0
 10
27.5066
 20
400.015
 11
24.7849
 21
396.725
  0
LINE
  8
0
 10
24.7849
 20
396.725
 11
21.6724
 21
393.803
  0
LINE
  8
0
 10
21.6724
 20
393.803
 11
18.2181
 21
391.293
  0
LINE
  8
0
 10
18.2181
 20
391.293
 11
14.4765
 21
389.236
  0
LINE
  8
0
 10
14.4765
 20
389.236
 11
10.5066
 21
387.664
  0
LINE
  8
0
 10
10.5066
 20
387.664
 11
6.37096
 21
386.602
  0
LINE
  8
0
 10
6.37096
 20
386.602
 11
2.13487
 21
386.067
  0
LINE
  8
0
 10
2.13487
 20
386.067
 11
-2.13487
 21
386.067
  0
LINE
  8
0
 10
-2.13487
 20
386.067
 11
-6.37096
 21
386.602
  0
LINE
  8
0
 10
-6.37096
 20
386.602
 11
-10.5066
 21
387.664
  0
LINE
  8
0
 10
-10.5066
 20
387.664
 11
-14.4765
 21
389.236
  0
LINE
  8
0
 10
-14.4765
 20
389.236
 11
-18.2181
 21
391.293
  0
LINE
  8
0
 10
-18.2181
 20
391.293
 11
-21.6724
 21
393.803
  0
LINE
  8
0
 10
-21.6724
 20
393.803
 11
-24.7849
 21
396.725
  0
LINE
  8
0
 10
-24.7849
 20
396.725
 11
-27.5066
 21
400.015
  0
LINE
  8
0
 10
-27.5066
 20
400.015
 11
-29.7944
 21
403.62
  0
LINE
  8
0
 10
-29.7944
 20
403.62
 11
-31.6124
 21
407.484
  0
LINE
  8
0
 10
-31.6124
 20
407.484
 11
-32.9318
 21
411.545
  0
LINE
  8
0
 10
-32.9318
 20
411.545
 11
-33.7319
 21
415.739
  0
LINE
  8
0
 10
-33.7319
 20
415.739
 11
-34
 21
420
  0
LINE
  8
0
 10
-34
 20
420
 11
-33.7319
 21
424.261
  0
LINE
  8
0
 10
-33.7319
 20
424.261
 11
-32.9318
 21
428.455
  0
LINE
  8
0
 10
-32.9318
 20
428.455
 11
-31.6124
 21
432.516
  0
LINE
  8
0
 10
-31.6124
 20
432.516
 11
-29.7944
 21
436.38
  0
LINE
  8
0
 10
-29.7944
 20
436.38
 11
-27.5066
 21
439.985
  0
LINE
  8
0
 10
-27.5066
 20
439.985
 11
-24.7849
 21
443.275
  0
LINE
  8
0
 10
-24.7849
 20
443.275
 11
-21.6724
 21
446.197
  0
LINE
  8
0
 10
-21.6724
 20
446.197
 11
-18.2181
 21
448.707
  0
LINE
  8
0
 10
-18.2181
 20
448.707
 11
-14.4765
 21
450.764
  0
LINE
  8
0
 10
-14.4765
 20
450.764
 11
-10.5066
 21
452.336
  0
LINE
  8
0
 10
-10.5066
 20
452.336
 11
-6.37096
 21
453.398
  0
LINE
  8
0
 10
-6.37096
 20
453.398
 11
-2.13487
 21
453.933
  0
LINE
  8
0
 10
-2.13487
 20
453.933
 11
0
 21
453.933
  0
LINE
  8
0
 10
0
 20
453.933
 11
0
 21
454
  0
LINE
  8
0
 10
0
 20
454
 11
17
 21
454
  0
LINE
  8
0
 10
17
 20
454
 11
14.0099
 21
456.99
  0
LINE
  8
0
 10
14.0099
 20
456.99
 11
-4
 21
456.99
  0
LINE
  8
0
 10
-4
 20
456.99
 11
-4
 21
456
  0
LINE
  8
0
 10
-4
 20
456
 11
-36
 21
456
  0
LINE
  8
0
 10
-36
 20
456
 11
-36
 21
457
  0
LINE
  8
0
 10
-36
 20
457
 11
-37
 21
457
  0
LINE
  8
0
 10
-37
 20
457
 11
-37
 21
452.994
  0
LINE
  8
0
 10
-37
 20
452.994
 11
-29.8116
 21
452.994
  0
LINE
  8
0
 10
-29.8116
 20
452.994
 11
-29.4379
 21
452.947
  0
LINE
  8
0
 10
-29.4379
 20
452.947
 11
-29.0729
 21
452.853
  0
LINE
  8
0
 10
-29.0729
 20
452.853
 11
-28.7227
 21
452.714
  0
LINE
  8
0
 10
-28.7227
 20
452.714
 11
-28.3925
 21
452.533
  0
LINE
  8
0
 10
-28.3925
 20
452.533
 11
-28.0877
 21
452.312
  0
LINE
  8
0
 10
-28.0877
 20
452.312
 11
-27.8131
 21
452.054
  0
LINE
  8
0
 10
-27.8131
 20
452.054
 11
-27.5729
 21
451.763
  0
LINE
  8
0
 10
-27.5729
 20
451.763
 11
-27.3711
 21
451.445
  0
LINE
  8
0
 10
-27.3711
 20
451.445
 11
-27.2107
 21
451.104
  0
LINE
  8
0
 10
-27.2107
 20
451.104
 11
-27.0942
 21
450.746
  0
LINE
  8
0
 10
-27.0942
 20
450.746
 11
-27.0237
 21
450.376
  0
LINE
  8
0
 10
-27.0237
 20
450.376
 11
-27
 21
450
  0
LINE
  8
0
 10
-27
 20
450
 11
-27.0237
 21
449.624
  0
LINE
  8
0
 10
-27.0237
 20
449.624
 11
-27.0942
 21
449.254
  0
LINE
  8
0
 10
-27.0942
 20
449.254
 11
-27.2107
 21
448.896
  0
LINE
  8
0
 10
-27.2107
 20
448.896
 11
-27.3711
 21
448.555
  0
LINE
  8
0
 10
-27.3711
 20
448.555
 11
-27.5729
 21
448.237
  0
LINE
  8
0
 10
-27.5729
 20
448.237
 11
-27.8131
 21
447.946
  0
LINE
  8
0
 10
-27.8131
 20
447.946
 11
-28.0877
 21
447.688
  0
LINE
  8
0
 10
-28.0877
 20
447.688
 11
-28.3925
 21
447.467
  0
LINE
  8
0
 10
-28.3925
 20
447.467
 11
-28.7227
 21
447.286
  0
LINE
  8
0
 10
-28.7227
 20
447.286
 11
-29.0729
 21
447.147
  0
LINE
  8
0
 10
-29.0729
 20
447.147
 11
-29.4379
 21
447.053
  0
LINE
  8
0
 10
-29.4379
 20
447.053
 11
-29.8116
 21
447.006
  0
LINE
  8
0
 10
-29.8116
 20
447.006
 11
-37
 21
447.006
  0
LINE
  8
0
 10
-37
 20
447.006
 11
-37
 21
392.994
  0
LINE
  8
0
 10
-37
 20
392.994
 11
-29.8116
 21
392.994
  0
LINE
  8
0
 10
-29.8116
 20
392.994
 11
-29.4379
 21
392.947
  0
LINE
  8
0
 10
-29.4379
 20
392.947
 11
-29.0729
 21
392.853
  0
LINE
  8
0
 10
-29.0729
 20
392.853
 11
-28.7227
 21
392.714
  0
LINE
  8
0
 10
-28.7227
 20
392.714
 11
-28.3925
 21
392.533
  0
LINE
  8
0
 10
-28.3925
 20
392.533
 11
-28.0877
 21
392.312
  0
LINE
  8
0
 10
-28.0877
 20
392.312
 11
-27.8131
 21
392.054
  0
LINE
  8
0
 10
-27.8131
 20
392.054
 11
-27.5729
 21
391.763
  0
LINE
  8
0
 10
-27.5729
 20
391.763
 11
-27.3711
 21
391.445
  0
LINE
  8
0
 10
-27.3711
 20
391.445
 11
-27.2107
 21
391.104
  0
LINE
  8
0
 10
-27.2107
 20
391.104
 11
-27.0942
 21
390.746
  0
LINE
  8
0
 10
-27.0942
 20
390.746
 11
-27.0237
 21
390.376
  0
LINE
  8
0
 10
-27.0237
 20
390.376
 11
-27
 21
390
  0
LINE
  8
0
 10
-27
 20
390
 11
-27.0237
 21
389.624
  0
LINE
  8
0
 10
-27.0237
 20
389.624
 11
-27.0942
 21
389.254
  0
LINE
  8
0
 10
-27.0942
 20
389.254
 11
-27.2107
 21
388.896
  0
LINE
  8
0
 10
-27.2107
 20
388.896
 11
-27.3711
 21
388.555
  0
LINE
  8
0
 10
-27.3711
 20
388.555
 11
-27.5729
 21
388.237
  0
LINE
  8
0
 10
-27.5729
 20
388.237
 11
-27.8131
 21
387.946
  0
LINE
  8
0
 10
-27.8131
 20
387.946
 11
-28.0877
 21
387.688
  0
LINE
  8
0
 10
-28.0877
 20
387.688
 11
-28.3925
 21
387.467
  0
LINE
  8
0
 10
-28.3925
 20
387.467
 11
-28.7227
 21
387.286
  0
LINE
  8
0
 10
-28.7227
 20
387.286
 11
-29.0729
 21
387.147
  0
LINE
  8
0
 10
-29.0729
 20
387.147
 11
-29.4379
 21
387.053
  0
LINE
  8
0
 10
-29.4379
 20
387.053
 11
-29.8116
 21
387.006
  0
LINE
  8
0
 10
-29.8116
 20
387.006
 11
-36.8905
 21
387.006
  0
LINE
  8
0
 10
-36.8905
 20
387.006
 11
-36.8429
 21
386.757
  0
LINE
  8
0
 10
-36.8429
 20
386.757
 11
-36.6489
 21
386.159
  0
LINE
  8
0
 10
-36.6489
 20
386.159
 11
-36.3815
 21
385.591
  0
LINE
  8
0
 10
-36.3815
 20
385.591
 11
-36.0451
 21
385.061
  0
LINE
  8
0
 10
-36.0451
 20
385.061
 11
-35.6448
 21
384.577
  0
LINE
  8
0
 10
-35.6448
 20
384.577
 11
-35.1871
 21
384.147
  0
LINE
  8
0
 10
-35.1871
 20
384.147
 11
-34.6791
 21
383.778
  0
LINE
  8
0
 10
-34.6791
 20
383.778
 11
-34.1289
 21
383.476
  0
LINE
  8
0
 10
-34.1289
 20
383.476
 11
-33.5451
 21
383.245
  0
LINE
  8
0
 10
-33.5451
 20
383.245
 11
-32.9369
 21
383.089
  0
LINE
  8
0
 10
-32.9369
 20
383.089
 11
-32.3139
 21
383.01
  0
LINE
  8
0
 10
-32.3139
 20
383.01
 11
32.3139
 21
383.01
  0
LINE
  8
0
 10
32.3139
 20
383.01
 11
32.9369
 21
383.089
  0
LINE
  8
0
 10
29.8116
 20
387.006
 11
29.4379
 21
387.053
  0
LINE
  8
0
 10
29.4379
 20
387.053
 11
29.0729
 21
387.147
  0
LINE
  8
0
 10
29.0729
 20
387.147
 11
28.7227
 21
387.286
  0
LINE
  8
0
 10
28.7227
 20
387.286
 11
28.3925
 21
387.467
  0
LINE
  8
0
 10
28.3925
 20
387.467
 11
28.0877
 21
387.688
  0
LINE
  8
0
 10
28.0877
 20
387.688
 11
27.8131
 21
387.946
  0
LINE
  8
0
 10
27.8131
 20
387.946
 11
27.5729
 21
388.237
  0
LINE
  8
0
 10
27.5729
 20
388.237
 11
27.3711
 21
388.555
  0
LINE
  8
0
 10
27.3711
 20
388.555
 11
27.2107
 21
388.896
  0
LINE
  8
0
 10
27.2107
 20
388.896
 11
27.0942
 21
389.254
  0
LINE
  8
0
 10
27.0942
 20
389.254
 11
27.0237
 21
389.624
  0
LINE
  8
0
 10
27.0237
 20
389.624
 11
27
 21
390
  0
LINE
  8
0
 10
27
 20
390
 11
27.0237
 21
390.376
  0
LINE
  8
0
 10
27.0237
 20
390.376
 11
27.0942
 21
390.746
  0
LINE
  8
0
 10
27.0942
 20
390.746
 11
27.2107
 21
391.104
  0
LINE
  8
0
 10
27.2107
 20
391.104
 11
27.3711
 21
391.445
  0
LINE
  8
0
 10
27.3711
 20
391.445
 11
27.5729
 21
391.763
  0
LINE
  8
0
 10
27.5729
 20
391.763
 11
27.8131
 21
392.054
  0
LINE
  8
0
 10
27.8131
 20
392.054
 11
28.0877
 21
392.312
  0
LINE
  8
0
 10
28.0877
 20
392.312
 11
28.3925
 21
392.533
  0
LINE
  8
0
 10
28.3925
 20
392.533
 11
28.7227
 21
392.714
  0
LINE
  8
0
 10
28.7227
 20
392.714
 11
29.0729
 21
392.853
  0
LINE
  8
0
 10
29.0729
 20
392.853
 11
29.4379
 21
392.947
  0
LINE
  8
0
 10
29.4379
 20
392.947
 11
29.8116
 21
392.994
  0
LINE
  8
0
 10
29.8116
 20
392.994
 11
30.1884
 21
392.994
  0
LINE
  8
0
 10
30.1884
 20
392.994
 11
30.5621
 21
392.947
  0
LINE
  8
0
 10
30.5621
 20
392.947
 11
30.927
 21
392.853
  0
LINE
  8
0
 10
30.927
 20
392.853
 11
31.2773
 21
392.714
  0
LINE
  8
0
 10
31.2773
 20
392.714
 11
31.6075
 21
392.533
  0
LINE
  8
0
 10
31.6075
 20
392.533
 11
31.9123
 21
392.312
  0
LINE
  8
0
 10
31.9123
 20
392.312
 11
32.1869
 21
392.054
  0
LINE
  8
0
 10
32.1869
 20
392.054
 11
32.427
 21
391.763
  0
LINE
  8
0
 10
32.427
 20
391.763
 11
32.6289
 21
391.445
  0
LINE
  8
0
 10
32.6289
 20
391.445
 11
32.7893
 21
391.104
  0
LINE
  8
0
 10
32.7893
 20
391.104
 11
32.9057
 21
390.746
  0
LINE
  8
0
 10
32.9057
 20
390.746
 11
32.9763
 21
390.376
  0
LINE
  8
0
 10
32.9763
 20
390.376
 11
33
 21
390
  0
LINE
  8
0
 10
33
 20
390
 11
32.9763
 21
389.624
  0
LINE
  8
0
 10
32.9763
 20
389.624
 11
32.9057
 21
389.254
  0
LINE
  8
0
 10
32.9057
 20
389.254
 11
32.7893
 21
388.896
  0
LINE
  8
0
 10
32.7893
 20
388.896
 11
32.6289
 21
388.555
  0
LINE
  8
0
 10
32.6289
 20
388.555
 11
32.427
 21
388.237
  0
LINE
  8
0
 10
32.427
 20
388.237
 11
32.1869
 21
387.946
  0
LINE
  8
0
 10
32.1869
 20
387.946
 11
31.9123
 21
387.688
  0
LINE
  8
0
 10
31.9123
 20
387.688
 11
31.6075
 21
387.467
  0
LINE
  8
0
 10
31.6075
 20
387.467
 11
31.2773
 21
387.286
  0
LINE
  8
0
 10
31.2773
 20
387.286
 11
30.927
 21
387.147
  0
LINE
  8
0
 10
30.927
 20
387.147
 11
30.5621
 21
387.053
  0
LINE
  8
0
 10
30.5621
 20
387.053
 11
30.1884
 21
387.006
  0
LINE
  8
0
 10
30.1884
 20
387.006
 11
29.8116
 21
387.006
  0
LINE
  8
0
 10
27
 20
456.99
 11
16.1312
 21
456.99
  0
LINE
  8
0
 10
16.1312
 20
456.99
 11
19.1213
 21
454
  0
LINE
  8
0
 10
19.1213
 20
454
 11
27
 21
454
  0
LINE
  8
0
 10
27
 20
454
 11
27
 21
456.99
  0
LINE
  8
0
 10
32.9369
 20
299.089
 11
33.5451
 21
299.245
  0
LINE
  8
0
 10
33.5451
 20
299.245
 11
34.1289
 21
299.476
  0
LINE
  8
0
 10
34.1289
 20
299.476
 11
34.6791
 21
299.778
  0
LINE
  8
0
 10
34.6791
 20
299.778
 11
35.1871
 21
300.147
  0
LINE
  8
0
 10
35.1871
 20
300.147
 11
35.6448
 21
300.577
  0
LINE
  8
0
 10
35.6448
 20
300.577
 11
36.0451
 21
301.061
  0
LINE
  8
0
 10
36.0451
 20
301.061
 11
36.3815
 21
301.591
  0
LINE
  8
0
 10
36.3815
 20
301.591
 11
36.6489
 21
302.159
  0
LINE
  8
0
 10
36.6489
 20
302.159
 11
36.8429
 21
302.757
  0
LINE
  8
0
 10
36.8429
 20
302.757
 11
36.9606
 21
303.373
  0
LINE
  8
0
 10
36.9606
 20
303.373
 11
37
 21
304
  0
LINE
  8
0
 10
37
 20
304
 11
37
 21
366
  0
LINE
  8
0
 10
37
 20
366
 11
15.8664
 21
366
  0
LINE
  8
0
 10
15.8664
 20
366
 11
15.87
 21
365.998
  0
LINE
  8
0
 10
15.87
 20
365.998
 11
13.7482
 21
365.998
  0
LINE
  8
0
 10
13.7482
 20
365.998
 11
13.6236
 21
365.982
  0
LINE
  8
0
 10
13.6236
 20
365.982
 11
13.502
 21
365.951
  0
LINE
  8
0
 10
13.502
 20
365.951
 11
13.3852
 21
365.905
  0
LINE
  8
0
 10
13.3852
 20
365.905
 11
13.2752
 21
365.844
  0
LINE
  8
0
 10
13.2752
 20
365.844
 11
13.1736
 21
365.771
  0
LINE
  8
0
 10
13.1736
 20
365.771
 11
13.082
 21
365.685
  0
LINE
  8
0
 10
13.082
 20
365.685
 11
13.002
 21
365.588
  0
LINE
  8
0
 10
13.002
 20
365.588
 11
12.9347
 21
365.482
  0
LINE
  8
0
 10
12.9347
 20
365.482
 11
12.8812
 21
365.368
  0
LINE
  8
0
 10
12.8812
 20
365.368
 11
12.8424
 21
365.249
  0
LINE
  8
0
 10
12.8424
 20
365.249
 11
12.8189
 21
365.125
  0
LINE
  8
0
 10
12.8189
 20
365.125
 11
12.811
 21
365
  0
LINE
  8
0
 10
12.811
 20
365
 11
12.8189
 21
364.875
  0
LINE
  8
0
 10
12.8189
 20
364.875
 11
12.8424
 21
364.751
  0
LINE
  8
0
 10
12.8424
 20
364.751
 11
12.8812
 21
364.632
  0
LINE
  8
0
 10
12.8812
 20
364.632
 11
12.9347
 21
364.518
  0
LINE
  8
0
 10
12.9347
 20
364.518
 11
13.002
 21
364.412
  0
LINE
  8
0
 10
13.002
 20
364.412
 11
13.082
 21
364.315
  0
LINE
  8
0
 10
13.082
 20
364.315
 11
13.1736
 21
364.229
  0
LINE
  8
0
 10
13.1736
 20
364.229
 11
13.2752
 21
364.156
  0
LINE
  8
0
 10
13.2752
 20
364.156
 11
13.3852
 21
364.095
  0
LINE
  8
0
 10
13.3852
 20
364.095
 11
13.502
 21
364.049
  0
LINE
  8
0
 10
13.502
 20
364.049
 11
13.6236
 21
364.018
  0
LINE
  8
0
 10
13.6236
 20
364.018
 11
13.7482
 21
364.002
  0
LINE
  8
0
 10
13.7482
 20
364.002
 11
18.8738
 21
364.002
  0
LINE
  8
0
 10
18.8738
 20
364.002
 11
18.9984
 21
364.018
  0
LINE
  8
0
 10
18.9984
 20
364.018
 11
19.12
 21
364.049
  0
LINE
  8
0
 10
19.12
 20
364.049
 11
19.1226
 21
364.05
  0
LINE
  8
0
 10
19.1226
 20
364.05
 11
21.6724
 21
362.197
  0
LINE
  8
0
 10
21.6724
 20
362.197
 11
24.7849
 21
359.275
  0
LINE
  8
0
 10
24.7849
 20
359.275
 11
27.5066
 21
355.985
  0
LINE
  8
0
 10
27.5066
 20
355.985
 11
29.7944
 21
352.38
  0
LINE
  8
0
 10
29.7944
 20
352.38
 11
31.6124
 21
348.516
  0
LINE
  8
0
 10
31.6124
 20
348.516
 11
32.9318
 21
344.455
  0
LINE
  8
0
 10
32.9318
 20
344.455
 11
33.7319
 21
340.261
  0
LINE
  8
0
 10
33.7319
 20
340.261
 11
34
 21
336
  0
LINE
  8
0
 10
34
 20
336
 11
33.7319
 21
331.739
  0
LINE
  8
0
 10
33.7319
 20
331.739
 11
32.9318
 21
327.545
  0
LINE
  8
0
 10
32.9318
 20
327.545
 11
31.6124
 21
323.484
  0
LINE
  8
0
 10
31.6124
 20
323.484
 11
29.7944
 21
319.62
  0
LINE
  8
0
 10
29.7944
 20
319.62
 11
27.5066
 21
316.015
  0
LINE
  8
0
 10
27.5066
 20
316.015
 11
24.7849
 21
312.725
  0
LINE
  8
0
 10
24.7849
 20
312.725
 11
21.6724
 21
309.803
  0
LINE
  8
0
 10
21.6724
 20
309.803
 11
18.2181
 21
307.293
  0
LINE
  8
0
 10
18.2181
 20
307.293
 11
14.4765
 21
305.236
  0
LINE
  8
0
 10
14.4765
 20
305.236
 11
10.5066
 21
303.664
  0
LINE
  8
0
 10
10.5066
 20
303.664
 11
6.37096
 21
302.602
  0
LINE
  8
0
 10
6.37096
 20
302.602
 11
2.13487
 21
302.067
  0
LINE
  8
0
 10
2.13487
 20
302.067
 11
-2.13487
 21
302.067
  0
LINE
  8
0
 10
-2.13487
 20
302.067
 11
-6.37096
 21
302.602
  0
LINE
  8
0
 10
-6.37096
 20
302.602
 11
-10.5066
 21
303.664
  0
LINE
  8
0
 10
-10.5066
 20
303.664
 11
-14.4765
 21
305.236
  0
LINE
  8
0
 10
-14.4765
 20
305.236
 11
-18.2181
 21
307.293
  0
LINE
  8
0
 10
-18.2181
 20
307.293
 11
-21.6724
 21
309.803
  0
LINE
  8
0
 10
-21.6724
 20
309.803
 11
-24.7849
 21
312.725
  0
LINE
  8
0
 10
-24.7849
 20
312.725
 11
-27.5066
 21
316.015
  0
LINE
  8
0
 10
-27.5066
 20
316.015
 11
-29.7944
 21
319.62
  0
LINE
  8
0
 10
-29.7944
 20
319.62
 11
-31.6124
 21
323.484
  0
LINE
  8
0
 10
-31.6124
 20
323.484
 11
-32.9318
 21
327.545
  0
LINE
  8
0
 10
-32.9318
 20
327.545
 11
-33.7319
 21
331.739
  0
LINE
  8
0
 10
-33.7319
 20
331.739
 11
-34
 21
336
  0
LINE
  8
0
 10
-34
 20
336
 11
-33.7319
 21
340.261
  0
LINE
  8
0
 10
-33.7319
 20
340.261
 11
-32.9318
 21
344.455
  0
LINE
  8
0
 10
-32.9318
 20
344.455
 11
-31.6124
 21
348.516
  0
LINE
  8
0
 10
-31.6124
 20
348.516
 11
-29.7944
 21
352.38
  0
LINE
  8
0
 10
-29.7944
 20
352.38
 11
-27.5066
 21
355.985
  0
LINE
  8
0
 10
-27.5066
 20
355.985
 11
-24.7849
 21
359.275
  0
LINE
  8
0
 10
-24.7849
 20
359.275
 11
-21.6724
 21
362.197
  0
LINE
  8
0
 10
-21.6724
 20
362.197
 11
-18.2181
 21
364.707
  0
LINE
  8
0
 10
-18.2181
 20
364.707
 11
-14.4765
 21
366.764
  0
LINE
  8
0
 10
-14.4765
 20
366.764
 11
-10.5066
 21
368.336
  0
LINE
  8
0
 10
-10.5066
 20
368.336
 11
-6.37096
 21
369.398
  0
LINE
  8
0
 10
-6.37096
 20
369.398
 11
-2.13487
 21
369.933
  0
LINE
  8
0
 10
-2.13487
 20
369.933
 11
0
 21
369.933
  0
LINE
  8
0
 10
0
 20
369.933
 11
0
 21
370
  0
LINE
  8
0
 10
0
 20
370
 11
17
 21
370
  0
LINE
  8
0
 10
17
 20
370
 11
14.0099
 21
372.99
  0
LINE
  8
0
 10
14.0099
 20
372.99
 11
-4
 21
372.99
  0
LINE
  8
0
 10
-4
 20
372.99
 11
-4
 21
372
  0
LINE
  8
0
 10
-4
 20
372
 11
-36
 21
372
  0
LINE
  8
0
 10
-36
 20
372
 11
-36
 21
373
  0
LINE
  8
0
 10
-36
 20
373
 11
-37
 21
373
  0
LINE
  8
0
 10
-37
 20
373
 11
-37
 21
368.994
  0
LINE
  8
0
 10
-37
 20
368.994
 11
-29.8116
 21
368.994
  0
LINE
  8
0
 10
-29.8116
 20
368.994
 11
-29.4379
 21
368.947
  0
LINE
  8
0
 10
-29.4379
 20
368.947
 11
-29.0729
 21
368.853
  0
LINE
  8
0
 10
-29.0729
 20
368.853
 11
-28.7227
 21
368.714
  0
LINE
  8
0
 10
-28.7227
 20
368.714
 11
-28.3925
 21
368.533
  0
LINE
  8
0
 10
-28.3925
 20
368.533
 11
-28.0877
 21
368.312
  0
LINE
  8
0
 10
-28.0877
 20
368.312
 11
-27.8131
 21
368.054
  0
LINE
  8
0
 10
-27.8131
 20
368.054
 11
-27.5729
 21
367.763
  0
LINE
  8
0
 10
-27.5729
 20
367.763
 11
-27.3711
 21
367.445
  0
LINE
  8
0
 10
-27.3711
 20
367.445
 11
-27.2107
 21
367.104
  0
LINE
  8
0
 10
-27.2107
 20
367.104
 11
-27.0942
 21
366.746
  0
LINE
  8
0
 10
-27.0942
 20
366.746
 11
-27.0237
 21
366.376
  0
LINE
  8
0
 10
-27.0237
 20
366.376
 11
-27
 21
366
  0
LINE
  8
0
 10
-27
 20
366
 11
-27.0237
 21
365.624
  0
LINE
  8
0
 10
-27.0237
 20
365.624
 11
-27.0942
 21
365.254
  0
LINE
  8
0
 10
-27.0942
 20
365.254
 11
-27.2107
 21
364.896
  0
LINE
  8
0
 10
-27.2107
 20
364.896
 11
-27.3711
 21
364.555
  0
LINE
  8
0
 10
-27.3711
 20
364.555
 11
-27.5729
 21
364.237
  0
LINE
  8
0
 10
-27.5729
 20
364.237
 11
-27.8131
 21
363.946
  0
LINE
  8
0
 10
-27.8131
 20
363.946
 11
-28.0877
 21
363.688
  0
LINE
  8
0
 10
-28.0877
 20
363.688
 11
-28.3925
 21
363.467
  0
LINE
  8
0
 10
-28.3925
 20
363.467
 11
-28.7227
 21
363.286
  0
LINE
  8
0
 10
-28.7227
 20
363.286
 11
-29.0729
 21
363.147
  0
LINE
  8
0
 10
-29.0729
 20
363.147
 11
-29.4379
 21
363.053
  0
LINE
  8
0
 10
-29.4379
 20
363.053
 11
-29.8116
 21
363.006
  0
LINE
  8
0
 10
-29.8116
 20
363.006
 11
-37
 21
363.006
  0
LINE
  8
0
 10
-37
 20
363.006
 11
-37
 21
308.994
  0
LINE
  8
0
 10
-37
 20
308.994
 11
-29.8116
 21
308.994
  0
LINE
  8
0
 10
-29.8116
 20
308.994
 11
-29.4379
 21
308.947
  0
LINE
  8
0
 10
-29.4379
 20
308.947
 11
-29.0729
 21
308.853
  0
LINE
  8
0
 10
-29.0729
 20
308.853
 11
-28.7227
 21
308.714
  0
LINE
  8
0
 10
-28.7227
 20
308.714
 11
-28.3925
 21
308.533
  0
LINE
  8
0
 10
-28.3925
 20
308.533
 11
-28.0877
 21
308.312
  0
LINE
  8
0
 10
-28.0877
 20
308.312
 11
-27.8131
 21
308.054
  0
LINE
  8
0
 10
-27.8131
 20
308.054
 11
-27.5729
 21
307.763
  0
LINE
  8
0
 10
-27.5729
 20
307.763
 11
-27.3711
 21
307.445
  0
LINE
  8
0
 10
-27.3711
 20
307.445
 11
-27.2107
 21
307.104
  0
LINE
  8
0
 10
-27.2107
 20
307.104
 11
-27.0942
 21
306.746
  0
LINE
  8
0
 10
-27.0942
 20
306.746
 11
-27.0237
 21
306.376
  0
LINE
  8
0
 10
-27.0237
 20
306.376
 11
-27
 21
306
  0
LINE
  8
0
 10
-27
 20
306
 11
-27.0237
 21
305.624
  0
LINE
  8
0
 10
-27.0237
 20
305.624
 11
-27.0942
 21
305.254
  0
LINE
  8
0
 10
-27.0942
 20
305.254
 11
-27.2107
 21
304.896
  0
LINE
  8
0
 10
-27.2107
 20
304.896
 11
-27.3711
 21
304.555
  0
LINE
  8
0
 10
-27.3711
 20
304.555
 11
-27.5729
 21
304.237
  0
LINE
  8
0
 10
-27.5729
 20
304.237
 11
-27.8131
 21
303.946
  0
LINE
  8
0
 10
-27.8131
 20
303.946
 11
-28.0877
 21
303.688
  0
LINE
  8
0
 10
-28.0877
 20
303.688
 11
-28.3925
 21
303.467
  0
LINE
  8
0
 10
-28.3925
 20
303.467
 11
-28.7227
 21
303.286
  0
LINE
  8
0
 10
-28.7227
 20
303.286
 11
-29.0729
 21
303.147
  0
LINE
  8
0
 10
-29.0729
 20
303.147
 11
-29.4379
 21
303.053
  0
LINE
  8
0
 10
-29.4379
 20
303.053
 11
-29.8116
 21
303.006
  0
LINE
  8
0
 10
-29.8116
 20
303.006
 11
-36.8905
 21
303.006
  0
LINE
  8
0
 10
-36.8905
 20
303.006
 11
-36.8429
 21
302.757
  0
LINE
  8
0
 10
-36.8429
 20
302.757
 11
-36.6489
 21
302.159
  0
LINE
  8
0
 10
-36.6489
 20
302.159
 11
-36.3815
 21
301.591
  0
LINE
  8
0
 10
-36.3815
 20
301.591
 11
-36.0451
 21
301.061
  0
LINE
  8
0
 10
-36.0451
 20
301.061
 11
-35.6448
 21
300.577
  0
LINE
  8
0
 10
-35.6448
 20
300.577
 11
-35.1871
 21
300.147
  0
LINE
  8
0
 10
-35.1871
 20
300.147
 11
-34.6791
 21
299.778
  0
LINE
  8
0
 10
-34.6791
 20
299.778
 11
-34.1289
 21
299.476
  0
LINE
  8
0
 10
-34.1289
 20
299.476
 11
-33.5451
 21
299.245
  0
LINE
  8
0
 10
-33.5451
 20
299.245
 11
-32.9369
 21
299.089
  0
LINE
  8
0
 10
-32.9369
 20
299.089
 11
-32.3139
 21
299.01
  0
LINE
  8
0
 10
-32.3139
 20
299.01
 11
32.3139
 21
299.01
  0
LINE
  8
0
 10
32.3139
 20
299.01
 11
32.9369
 21
299.089
  0
LINE
  8
0
 10
29.8116
 20
303.006
 11
29.4379
 21
303.053
  0
LINE
  8
0
 10
29.4379
 20
303.053
 11
29.0729
 21
303.147
  0
LINE
  8
0
 10
29.0729
 20
303.147
 11
28.7227
 21
303.286
  0
LINE
  8
0
 10
28.7227
 20
303.286
 11
28.3925
 21
303.467
  0
LINE
  8
0
 10
28.3925
 20
303.467
 11
28.0877
 21
303.688
  0
LINE
  8
0
 10
28.0877
 20
303.688
 11
27.8131
 21
303.946
  0
LINE
  8
0
 10
27.8131
 20
303.946
 11
27.5729
 21
304.237
  0
LINE
  8
0
 10
27.5729
 20
304.237
 11
27.3711
 21
304.555
  0
LINE
  8
0
 10
27.3711
 20
304.555
 11
27.2107
 21
304.896
  0
LINE
  8
0
 10
27.2107
 20
304.896
 11
27.0942
 21
305.254
  0
LINE
  8
0
 10
27.0942
 20
305.254
 11
27.0237
 21
305.624
  0
LINE
  8
0
 10
27.0237
 20
305.624
 11
27
 21
306
  0
LINE
  8
0
 10
27
 20
306
 11
27.0237
 21
306.376
  0
LINE
  8
0
 10
27.0237
 20
306.376
 11
27.0942
 21
306.746
  0
LINE
  8
0
 10
27.0942
 20
306.746
 11
27.2107
 21
307.104
  0
LINE
  8
0
 10
27.2107
 20
307.104
 11
27.3711
 21
307.445
  0
LINE
  8
0
 10
27.3711
 20
307.445
 11
27.5729
 21
307.763
  0
LINE
  8
0
 10
27.5729
 20
307.763
 11
27.8131
 21
308.054
  0
LINE
  8
0
 10
27.8131
 20
308.054
 11
28.0877
 21
308.312
  0
LINE
  8
0
 10
28.0877
 20
308.312
 11
28.3925
 21
308.533
  0
LINE
  8
0
 10
28.3925
 20
308.533
 11
28.7227
 21
308.714
  0
LINE
  8
0
 10
28.7227
 20
308.714
 11
29.0729
 21
308.853
  0
LINE
  8
0
 10
29.0729
 20
308.853
 11
29.4379
 21
308.947
  0
LINE
  8
0
 10
29.4379
 20
308.947
 11
29.8116
 21
308.994
  0
LINE
  8
0
 10
29.8116
 20
308.994
 11
30.1884
 21
308.994
  0
LINE
  8
0
 10
30.1884
 20
308.994
 11
30.5621
 21
308.947
  0
LINE
  8
0
 10
30.5621
 20
308.947
 11
30.927
 21
308.853
  0
LINE
  8
0
 10
30.927
 20
308.853
 11
31.2773
 21
308.714
  0
LINE
  8
0
 10
31.2773
 20
308.714
 11
31.6075
 21
308.533
  0
LINE
  8
0
 10
31.6075
 20
308.533
 11
31.9123
 21
308.312
  0
LINE
  8
0
 10
31.9123
 20
308.312
 11
32.1869
 21
308.054
  0
LINE
  8
0
 10
32.1869
 20
308.054
 11
32.427
 21
307.763
  0
LINE
  8
0
 10
32.427
 20
307.763
 11
32.6289
 21
307.445
  0
LINE
  8
0
 10
32.6289
 20
307.445
 11
32.7893
 21
307.104
  0
LINE
  8
0
 10
32.7893
 20
307.104
 11
32.9057
 21
306.746
  0
LINE
  8
0
 10
32.9057
 20
306.746
 11
32.9763
 21
306.376
  0
LINE
  8
0
 10
32.9763
 20
306.376
 11
33
 21
306
  0
LINE
  8
0
 10
33
 20
306
 11
32.9763
 21
305.624
  0
LINE
  8
0
 10
32.9763
 20
305.624
 11
32.9057
 21
305.254
  0
LINE
  8
0
 10
32.9057
 20
305.254
 11
32.7893
 21
304.896
  0
LINE
  8
0
 10
32.7893
 20
304.896
 11
32.6289
 21
304.555
  0
LINE
  8
0
 10
32.6289
 20
304.555
 11
32.427
 21
304.237
  0
LINE
  8
0
 10
32.427
 20
304.237
 11
32.1869
 21
303.946
  0
LINE
  8
0
 10
32.1869
 20
303.946
 11
31.9123
 21
303.688
  0
LINE
  8
0
 10
31.9123
 20
303.688
 11
31.6075
 21
303.467
  0
LINE
  8
0
 10
31.6075
 20
303.467
 11
31.2773
 21
303.286
  0
LINE
  8
0
 10
31.2773
 20
303.286
 11
30.927
 21
303.147
  0
LINE
  8
0
 10
30.927
 20
303.147
 11
30.5621
 21
303.053
  0
LINE
  8
0
 10
30.5621
 20
303.053
 11
30.1884
 21
303.006
  0
LINE
  8
0
 10
30.1884
 20
303.006
 11
29.8116
 21
303.006
  0
LINE
  8
0
 10
27
 20
372.99
 11
16.1312
 21
372.99
  0
LINE
  8
0
 10
16.1312
 20
372.99
 11
19.1213
 21
370
  0
LINE
  8
0
 10
19.1213
 20
370
 11
27
 21
370
  0
LINE
  8
0
 10
27
 20
370
 11
27
 21
372.99
  0
LINE
  8
0
 10
32.9369
 20
215.089
 11
33.5451
 21
215.245
  0
LINE
  8
0
 10
33.5451
 20
215.245
 11
34.1289
 21
215.476
  0
LINE
  8
0
 10
34.1289
 20
215.476
 11
34.6791
 21
215.778
  0
LINE
  8
0
 10
34.6791
 20
215.778
 11
35.1871
 21
216.147
  0
LINE
  8
0
 10
35.1871
 20
216.147
 11
35.6448
 21
216.577
  0
LINE
  8
0
 10
35.6448
 20
216.577
 11
36.0451
 21
217.061
  0
LINE
  8
0
 10
36.0451
 20
217.061
 11
36.3815
 21
217.591
  0
LINE
  8
0
 10
36.3815
 20
217.591
 11
36.6489
 21
218.159
  0
LINE
  8
0
 10
36.6489
 20
218.159
 11
36.8429
 21
218.757
  0
LINE
  8
0
 10
36.8429
 20
218.757
 11
36.9606
 21
219.373
  0
LINE
  8
0
 10
36.9606
 20
219.373
 11
37
 21
220
  0
LINE
  8
0
 10
37
 20
220
 11
37
 21
282
  0
LINE
  8
0
 10
37
 20
282
 11
15.8664
 21
282
  0
LINE
  8
0
 10
15.8664
 20
282
 11
15.87
 21
281.998
  0
LINE
  8
0
 10
15.87
 20
281.998
 11
13.7482
 21
281.998
  0
LINE
  8
0
 10
13.7482
 20
281.998
 11
13.6236
 21
281.982
  0
LINE
  8
0
 10
13.6236
 20
281.982
 11
13.502
 21
281.951
  0
LINE
  8
0
 10
13.502
 20
281.951
 11
13.3852
 21
281.905
  0
LINE
  8
0
 10
13.3852
 20
281.905
 11
13.2752
 21
281.844
  0
LINE
  8
0
 10
13.2752
 20
281.844
 11
13.1736
 21
281.771
  0
LINE
  8
0
 10
13.1736
 20
281.771
 11
13.082
 21
281.685
  0
LINE
  8
0
 10
13.082
 20
281.685
 11
13.002
 21
281.588
  0
LINE
  8
0
 10
13.002
 20
281.588
 11
12.9347
 21
281.482
  0
LINE
  8
0
 10
12.9347
 20
281.482
 11
12.8812
 21
281.368
  0
LINE
  8
0
 10
12.8812
 20
281.368
 11
12.8424
 21
281.249
  0
LINE
  8
0
 10
12.8424
 20
281.249
 11
12.8189
 21
281.125
  0
LINE
  8
0
 10
12.8189
 20
281.125
 11
12.811
 21
281
  0
LINE
  8
0
 10
12.811
 20
281
 11
12.8189
 21
280.875
  0
LINE
  8
0
 10
12.8189
 20
280.875
 11
12.8424
 21
280.751
  0
LINE
  8
0
 10
12.8424
 20
280.751
 11
12.8812
 21
280.632
  0
LINE
  8
0
 10
12.8812
 20
280.632
 11
12.9347
 21
280.518
  0
LINE
  8
0
 10
12.9347
 20
280.518
 11
13.002
 21
280.412
  0
LINE
  8
0
 10
13.002
 20
280.412
 11
13.082
 21
280.315
  0
LINE
  8
0
 10
13.082
 20
280.315
 11
13.1736
 21
280.229
  0
LINE
  8
0
 10
13.1736
 20
280.229
 11
13.2752
 21
280.156
  0
LINE
  8
0
 10
13.2752
 20
280.156
 11
13.3852
 21
280.095
  0
LINE
  8
0
 10
13.3852
 20
280.095
 11
13.502
 21
280.049
  0
LINE
  8
0
 10
13.502
 20
280.049
 11
13.6236
 21
280.018
  0
LINE
  8
0
 10
13.6236
 20
280.018
 11
13.7482
 21
280.002
  0
LINE
  8
0
 10
13.7482
 20
280.002
 11
18.8738
 21
280.002
  0
LINE
  8
0
 10
18.8738
 20
280.002
 11
18.9984
 21
280.018
  0
LINE
  8
0
 10
18.9984
 20
280.018
 11
19.12
 21
280.049
  0
LINE
  8
0
 10
19.12
 20
280.049
 11
19.1226
 21
280.05
  0
LINE
  8
0
 10
19.1226
 20
280.05
 11
21.6724
 21
278.197
  0
LINE
  8
0
 10
21.6724
 20
278.197
 11
24.7849
 21
275.275
  0
LINE
  8
0
 10
24.7849
 20
275.275
 11
27.5066
 21
271.985
  0
LINE
  8
0
 10
27.5066
 20
271.985
 11
29.7944
 21
268.38
  0
LINE
  8
0
 10
29.7944
 20
268.38
 11
31.6124
 21
264.516
  0
LINE
  8
0
 10
31.6124
 20
264.516
 11
32.9318
 21
260.455
  0
LINE
  8
0
 10
32.9318
 20
260.455
 11
33.7319
 21
256.261
  0
LINE
  8
0
 10
33.7319
 20
256.261
 11
34
 21
252
  0
LINE
  8
0
 10
34
 20
252
 11
33.7319
 21
247.739
  0
LINE
  8
0
 10
33.7319
 20
247.739
 11
32.9318
 21
243.545
  0
LINE
  8
0
 10
32.9318
 20
243.545
 11
31.6124
 21
239.484
  0
LINE
  8
0
 10
31.6124
 20
239.484
 11
29.7944
 21
235.62
  0
LINE
  8
0
 10
29.7944
 20
235.62
 11
27.5066
 21
232.015
  0
LINE
  8
0
 10
27.5066
 20
232.015
 11
24.7849
 21
228.725
  0
LINE
  8
0
 10
24.7849
 20
228.725
 11
21.6724
 21
225.803
  0
LINE
  8
0
 10
21.6724
 20
225.803
 11
18.2181
 21
223.293
  0
LINE
  8
0
 10
18.2181
 20
223.293
 11
14.4765
 21
221.236
  0
LINE
  8
0
 10
14.4765
 20
221.236
 11
10.5066
 21
219.664
  0
LINE
  8
0
 10
10.5066
 20
219.664
 11
6.37096
 21
218.602
  0
LINE
  8
0
 10
6.37096
 20
218.602
 11
2.13487
 21
218.067
  0
LINE
  8
0
 10
2.13487
 20
218.067
 11
-2.13487
 21
218.067
  0
LINE
  8
0
 10
-2.13487
 20
218.067
 11
-6.37096
 21
218.602
  0
LINE
  8
0
 10
-6.37096
 20
218.602
 11
-10.5066
 21
219.664
  0
LINE
  8
0
 10
-10.5066
 20
219.664
 11
-14.4765
 21
221.236
  0
LINE
  8
0
 10
-14.4765
 20
221.236
 11
-18.2181
 21
223.293
  0
LINE
  8
0
 10
-18.2181
 20
223.293
 11
-21.6724
 21
225.803
  0
LINE
  8
0
 10
-21.6724
 20
225.803
 11
-24.7849
 21
228.725
  0
LINE
  8
0
 10
-24.7849
 20
228.725
 11
-27.5066
 21
232.015
  0
LINE
  8
0
 10
-27.5066
 20
232.015
 11
-29.7944
 21
235.62
  0
LINE
  8
0
 10
-29.7944
 20
235.62
 11
-31.6124
 21
239.484
  0
LINE
  8
0
 10
-31.6124
 20
239.484
 11
-32.9318
 21
243.545
  0
LINE
  8
0
 10
-32.9318
 20
243.545
 11
-33.7319
 21
247.739
  0
LINE
  8
0
 10
-33.7319
 20
247.739
 11
-34
 21
252
  0
LINE
  8
0
 10
-34
 20
252
 11
-33.7319
 21
256.261
  0
LINE
  8
0
 10
-33.7319
 20
256.261
 11
-32.9318
 21
260.455
  0
LINE
  8
0
 10
-32.9318
 20
260.455
 11
-31.6124
 21
264.516
  0
LINE
  8
0
 10
-31.6124
 20
264.516
 11
-29.7944
 21
268.38
  0
LINE
  8
0
 10
-29.7944
 20
268.38
 11
-27.5066
 21
271.985
  0
LINE
  8
0
 10
-27.5066
 20
271.985
 11
-24.7849
 21
275.275
  0
LINE
  8
0
 10
-24.7849
 20
275.275
 11
-21.6724
 21
278.197
  0
LINE
  8
0
 10
-21.6724
 20
278.197
 11
-18.2181
 21
280.707
  0
LINE
  8
0
 10
-18.2181
 20
280.707
 11
-14.4765
 21
282.764
  0
LINE
  8
0
 10
-14.4765
 20
282.764
 11
-10.5066
 21
284.336
  0
LINE
  8
0
 10
-10.5066
 20
284.336
 11
-6.37096
 21
285.398
  0
LINE
  8
0
 10
-6.37096
 20
285.398
 11
-2.13487
 21
285.933
  0
LINE
  8
0
 10
-2.13487
 20
285.933
 11
0
 21
285.933
  0
LINE
  8
0
 10
0
 20
285.933
 11
0
 21
286
  0
LINE
  8
0
 10
0
 20
286
 11
17
 21
286
  0
LINE
  8
0
 10
17
 20
286
 11
14.0099
 21
288.99
  0
LINE
  8
0
 10
14.0099
 20
288.99
 11
-4
 21
288.99
  0
LINE
  8
0
 10
-4
 20
288.99
 11
-4
 21
288
  0
LINE
  8
0
 10
-4
 20
288
 11
-36
 21
288
  0
LINE
  8
0
 10
-36
 20
288
 11
-36
 21
289
  0
LINE
  8
0
 10
-36
 20
289
 11
-37
 21
289
  0
LINE
  8
0
 10
-37
 20
289
 11
-37
 21
284.994
  0
LINE
  8
0
 10
-37
 20
284.994
 11
-29.8116
 21
284.994
  0
LINE
  8
0
 10
-29.8116
 20
284.994
 11
-29.4379
 21
284.947
  0
LINE
  8
0
 10
-29.4379
 20
284.947
 11
-29.0729
 21
284.853
  0
LINE
  8
0
 10
-29.0729
 20
284.853
 11
-28.7227
 21
284.714
  0
LINE
  8
0
 10
-28.7227
 20
284.714
 11
-28.3925
 21
284.533
  0
LINE
  8
0
 10
-28.3925
 20
284.533
 11
-28.0877
 21
284.312
  0
LINE
  8
0
 10
-28.0877
 20
284.312
 11
-27.8131
 21
284.054
  0
LINE
  8
0
 10
-27.8131
 20
284.054
 11
-27.5729
 21
283.763
  0
LINE
  8
0
 10
-27.5729
 20
283.763
 11
-27.3711
 21
283.445
  0
LINE
  8
0
 10
-27.3711
 20
283.445
 11
-27.2107
 21
283.104
  0
LINE
  8
0
 10
-27.2107
 20
283.104
 11
-27.0942
 21
282.746
  0
LINE
  8
0
 10
-27.0942
 20
282.746
 11
-27.0237
 21
282.376
  0
LINE
  8
0
 10
-27.0237
 20
282.376
 11
-27
 21
282
  0
LINE
  8
0
 10
-27
 20
282
 11
-27.0237
 21
281.624
  0
LINE
  8
0
 10
-27.0237
 20
281.624
 11
-27.0942
 21
281.254
  0
LINE
  8
0
 10
-27.0942
 20
281.254
 11
-27.2107
 21
280.896
  0
LINE
  8
0
 10
-27.2107
 20
280.896
 11
-27.3711
 21
280.555
  0
LINE
  8
0
 10
-27.3711
 20
280.555
 11
-27.5729
 21
280.237
  0
LINE
  8
0
 10
-27.5729
 20
280.237
 11
-27.8131
 21
279.946
  0
LINE
  8
0
 10
-27.8131
 20
279.946
 11
-28.0877
 21
279.688
  0
LINE
  8
0
 10
-28.0877
 20
279.688
 11
-28.3925
 21
279.467
  0
LINE
  8
0
 10
-28.3925
 20
279.467
 11
-28.7227
 21
279.286
  0
LINE
  8
0
 10
-28.7227
 20
279.286
 11
-29.0729
 21
279.147
  0
LINE
  8
0
 10
-29.0729
 20
279.147
 11
-29.4379
 21
279.053
  0
LINE
  8
0
 10
-29.4379
 20
279.053
 11
-29.8116
 21
279.006
  0
LINE
  8
0
 10
-29.8116
 20
279.006
 11
-37
 21
279.006
  0
LINE
  8
0
 10
-37
 20
279.006
 11
-37
 21
224.994
  0
LINE
  8
0
 10
-37
 20
224.994
 11
-29.8116
 21
224.994
  0
LINE
  8
0
 10
-29.8116
 20
224.994
 11
-29.4379
 21
224.947
  0
LINE
  8
0
 10
-29.4379
 20
224.947
 11
-29.0729
 21
224.853
  0
LINE
  8
0
 10
-29.0729
 20
224.853
 11
-28.7227
 21
224.714
  0
LINE
  8
0
 10
-28.7227
 20
224.714
 11
-28.3925
 21
224.533
  0
LINE
  8
0
 10
-28.3925
 20
224.533
 11
-28.0877
 21
224.312
  0
LINE
  8
0
 10
-28.0877
 20
224.312
 11
-27.8131
 21
224.054
  0
LINE
  8
0
 10
-27.8131
 20
224.054
 11
-27.5729
 21
223.763
  0
LINE
  8
0
 10
-27.5729
 20
223.763
 11
-27.3711
 21
223.445
  0
LINE
  8
0
 10
-27.3711
 20
223.445
 11
-27.2107
 21
223.104
  0
LINE
  8
0
 10
-27.2107
 20
223.104
 11
-27.0942
 21
222.746
  0
LINE
  8
0
 10
-27.0942
 20
222.746
 11
-27.0237
 21
222.376
  0
LINE
  8
0
 10
-27.0237
 20
222.376
 11
-27
 21
222
  0
LINE
  8
0
 10
-27
 20
222
 11
-27.0237
 21
221.624
  0
LINE
  8
0
 10
-27.0237
 20
221.624
 11
-27.0942
 21
221.254
  0
LINE
  8
0
 10
-27.0942
 20
221.254
 11
-27.2107
 21
220.896
  0
LINE
  8
0
 10
-27.2107
 20
220.896
 11
-27.3711
 21
220.555
  0
LINE
  8
0
 10
-27.3711
 20
220.555
 11
-27.5729
 21
220.237
  0
LINE
  8
0
 10
-27.5729
 20
220.237
 11
-27.8131
 21
219.946
  0
LINE
  8
0
 10
-27.8131
 20
219.946
 11
-28.0877
 21
219.688
  0
LINE
  8
0
 10
-28.0877
 20
219.688
 11
-28.3925
 21
219.467
  0
LINE
  8
0
 10
-28.3925
 20
219.467
 11
-28.7227
 21
219.286
  0
LINE
  8
0
 10
-28.7227
 20
219.286
 11
-29.0729
 21
219.147
  0
LINE
  8
0
 10
-29.0729
 20
219.147
 11
-29.4379
 21
219.053
  0
LINE
  8
0
 10
-29.4379
 20
219.053
 11
-29.8116
 21
219.006
  0
LINE
  8
0
 10
-29.8116
 20
219.006
 11
-36.8905
 21
219.006
  0
LINE
  8
0
 10
-36.8905
 20
219.006
 11
-36.8429
 21
218.757
  0
LINE
  8
0
 10
-36.8429
 20
218.757
 11
-36.6489
 21
218.159
  0
LINE
  8
0
 10
-36.6489
 20
218.159
 11
-36.3815
 21
217.591
  0
LINE
  8
0
 10
-36.3815
 20
217.591
 11
-36.0451
 21
217.061
  0
LINE
  8
0
 10
-36.0451
 20
217.061
 11
-35.6448
 21
216.577
  0
LINE
  8
0
 10
-35.6448
 20
216.577
 11
-35.1871
 21
216.147
  0
LINE
  8
0
 10
-35.1871
 20
216.147
 11
-34.6791
 21
215.778
  0
LINE
  8
0
 10
-34.6791
 20
215.778
 11
-34.1289
 21
215.476
  0
LINE
  8
0
 10
-34.1289
 20
215.476
 11
-33.5451
 21
215.245
  0
LINE
  8
0
 10
-33.5451
 20
215.245
 11
-32.9369
 21
215.089
  0
LINE
  8
0
 10
-32.9369
 20
215.089
 11
-32.3139
 21
215.01
  0
LINE
  8
0
 10
-32.3139
 20
215.01
 11
32.3139
 21
215.01
  0
LINE
  8
0
 10
32.3139
 20
215.01
 11
32.9369
 21
215.089
  0
LINE
  8
0
 10
29.8116
 20
219.006
 11
29.4379
 21
219.053
  0
LINE
  8
0
 10
29.4379
 20
219.053
 11
29.0729
 21
219.147
  0
LINE
  8
0
 10
29.0729
 20
219.147
 11
28.7227
 21
219.286
  0
LINE
  8
0
 10
28.7227
 20
219.286
 11
28.3925
 21
219.467
  0
LINE
  8
0
 10
28.3925
 20
219.467
 11
28.0877
 21
219.688
  0
LINE
  8
0
 10
28.0877
 20
219.688
 11
27.8131
 21
219.946
  0
LINE
  8
0
 10
27.8131
 20
219.946
 11
27.5729
 21
220.237
  0
LINE
  8
0
 10
27.5729
 20
220.237
 11
27.3711
 21
220.555
  0
LINE
  8
0
 10
27.3711
 20
220.555
 11
27.2107
 21
220.896
  0
LINE
  8
0
 10
27.2107
 20
220.896
 11
27.0942
 21
221.254
  0
LINE
  8
0
 10
27.0942
 20
221.254
 11
27.0237
 21
221.624
  0
LINE
  8
0
 10
27.0237
 20
221.624
 11
27
 21
222
  0
LINE
  8
0
 10
27
 20
222
 11
27.0237
 21
222.376
  0
LINE
  8
0
 10
27.0237
 20
222.376
 11
27.0942
 21
222.746
  0
LINE
  8
0
 10
27.0942
 20
222.746
 11
27.2107
 21
223.104
  0
LINE
  8
0
 10
27.2107
 20
223.104
 11
27.3711
 21
223.445
  0
LINE
  8
0
 10
27.3711
 20
223.445
 11
27.5729
 21
223.763
  0
LINE
  8
0
 10
27.5729
 20
223.763
 11
27.8131
 21
224.054
  0
LINE
  8
0
 10
27.8131
 20
224.054
 11
28.0877
 21
224.312
  0
LINE
  8
0
 10
28.0877
 20
224.312
 11
28.3925
 21
224.533
  0
LINE
  8
0
 10
28.3925
 20
224.533
 11
28.7227
 21
224.714
  0
LINE
  8
0
 10
28.7227
 20
224.714
 11
29.0729
 21
224.853
  0
LINE
  8
0
 10
29.0729
 20
224.853
 11
29.4379
 21
224.947
  0
LINE
  8
0
 10
29.4379
 20
224.947
 11
29.8116
 21
224.994
  0
LINE
  8
0
 10
29.8116
 20
224.994
 11
30.1884
 21
224.994
  0
LINE
  8
0
 10
30.1884
 20
224.994
 11
30.5621
 21
224.947
  0
LINE
  8
0
 10
30.5621
 20
224.947
 11
30.927
 21
224.853
  0
LINE
  8
0
 10
30.927
 20
224.853
 11
31.2773
 21
224.714
  0
LINE
  8
0
 10
31.2773
 20
224.714
 11
31.6075
 21
224.533
  0
LINE
  8
0
 10
31.6075
 20
224.533
 11
31.9123
 21
224.312
  0
LINE
  8
0
 10
31.9123
 20
224.312
 11
32.1869
 21
224.054
  0
LINE
  8
0
 10
32.1869
 20
224.054
 11
32.427
 21
223.763
  0
LINE
  8
0
 10
32.427
 20
223.763
 11
32.6289
 21
223.445
  0
LINE
  8
0
 10
32.6289
 20
223.445
 11
32.7893
 21
223.104
  0
LINE
  8
0
 10
32.7893
 20
223.104
 11
32.9057
 21
222.746
  0
LINE
  8
0
 10
32.9057
 20
222.746
 11
32.9763
 21
222.376
  0
LINE
  8
0
 10
32.9763
 20
222.376
 11
33
 21
222
  0
LINE
  8
0
 10
33
 20
222
 11
32.9763
 21
221.624
  0
LINE
  8
0
 10
32.9763
 20
221.624
 11
32.9057
 21
221.254
  0
LINE
  8
0
 10
32.9057
 20
221.254
 11
32.7893
 21
220.896
  0
LINE
  8
0
 10
32.7893
 20
220.896
 11
32.6289
 21
220.555
  0
LINE
  8
0
 10
32.6289
 20
220.555
 11
32.427
 21
220.237
  0
LINE
  8
0
 10
32.427
 20
220.237
 11
32.1869
 21
219.946
  0
LINE
  8
0
 10
32.1869
 20
219.946
 11
31.9123
 21
219.688
  0
LINE
  8
0
 10
31.9123
 20
219.688
 11
31.6075
 21
219.467
  0
LINE
  8
0
 10
31.6075
 20
219.467
 11
31.2773
 21
219.286
  0
LINE
  8
0
 10
31.2773
 20
219.286
 11
30.927
 21
219.147
  0
LINE
  8
0
 10
30.927
 20
219.147
 11
30.5621
 21
219.053
  0
LINE
  8
0
 10
30.5621
 20
219.053
 11
30.1884
 21
219.006
  0
LINE
  8
0
 10
30.1884
 20
219.006
 11
29.8116
 21
219.006
  0
LINE
  8
0
 10
27
 20
288.99
 11
16.1312
 21
288.99
  0
LINE
  8
0
 10
16.1312
 20
288.99
 11
19.1213
 21
286
  0
LINE
  8
0
 10
19.1213
 20
286
 11
27
 21
286
  0
LINE
  8
0
 10
27
 20
286
 11
27
 21
288.99
  0
ENDSEC
  0
SECTION
  2
OBJECTS
  0
DICTIONARY
  0
ENDSEC
  0
EOF
