<?xml version="1.0" standalone="no"?>
<!DOCTYPE svg PUBLIC "-//W3C//DTD SVG 1.1//EN" "http://www.w3.org/Graphics/SVG/1.1/DTD/svg11.dtd">
<svg width="92mm" height="40mm" viewBox="-47 -80 92 40" xmlns="http://www.w3.org/2000/svg" version="1.1">
<title>OpenSCAD Model</title>
<path d="
M 40.9369,-64.5886 L 41.5451,-64.7447 L 42.1289,-64.9759 L 42.6791,-65.2784 L 43.1871,-65.6474 L 43.6448,-66.0773
 L 44.0451,-66.5611 L 44.3815,-67.0912 L 44.6489,-67.6594 L 44.8429,-68.2566 L 44.9606,-68.8733 L 45,-69.5
 L 45,-74.5 L 44.9606,-75.1267 L 44.8429,-75.7434 L 44.6489,-76.3406 L 44.3815,-76.9088 L 44.0451,-77.4389
 L 43.6448,-77.9227 L 43.1871,-78.3526 L 42.6791,-78.7216 L 42.1289,-79.0241 L 41.5451,-79.2553 L 40.9369,-79.4114
 L 40.3139,-79.4901 L -40.3139,-79.4901 L -40.9369,-79.4114 L -41.5451,-79.2553 L -42.1289,-79.0241 L -42.6791,-78.7216
 L -43.1871,-78.3526 L -43.5,-78.0587 L -43.5,-79.4792 L -46.5,-79.4792 L -46.5,-64.5208 L -43.5,-64.5208
 L -43.5,-65.9413 L -43.1871,-65.6474 L -42.6791,-65.2784 L -42.1289,-64.9759 L -41.5451,-64.7447 L -40.9369,-64.5886
 L -40.3139,-64.5099 L 40.3139,-64.5099 z
M -39.6954,-66.8932 L -40.0833,-66.9422 L -40.4619,-67.0394 L -40.8254,-67.1833 L -41.168,-67.3717 L -41.4842,-67.6015
 L -41.7692,-67.8691 L -42.0184,-68.1703 L -42.2279,-68.5004 L -42.3943,-68.8541 L -42.5151,-69.2259 L -42.5884,-69.6098
 L -42.6129,-70 L -42.6129,-74 L -42.5884,-74.3902 L -42.5151,-74.7741 L -42.3943,-75.1459 L -42.2279,-75.4996
 L -42.0184,-75.8297 L -41.7692,-76.1309 L -41.4842,-76.3985 L -41.168,-76.6283 L -40.8254,-76.8167 L -40.4619,-76.9606
 L -40.0833,-77.0578 L -39.6954,-77.1068 L 39.6954,-77.1068 L 40.0833,-77.0578 L 40.4619,-76.9606 L 40.8254,-76.8167
 L 41.168,-76.6283 L 41.4842,-76.3985 L 41.7692,-76.1309 L 42.0184,-75.8297 L 42.2279,-75.4996 L 42.3943,-75.1459
 L 42.5151,-74.7741 L 42.5884,-74.3902 L 42.6129,-74 L 42.6129,-70 L 42.5884,-69.6098 L 42.5151,-69.2259
 L 42.3943,-68.8541 L 42.2279,-68.5004 L 42.0184,-68.1703 L 41.7692,-67.8691 L 41.4842,-67.6015 L 41.168,-67.3717
 L 40.8254,-67.1833 L 40.4619,-67.0394 L 40.0833,-66.9422 L 39.6954,-66.8932 z
M 40.9369,-40.5886 L 41.5451,-40.7447 L 42.1289,-40.9759 L 42.6791,-41.2784 L 43.1871,-41.6474 L 43.6448,-42.0773
 L 44.0451,-42.5611 L 44.3815,-43.0912 L 44.6489,-43.6594 L 44.8429,-44.2566 L 44.9606,-44.8733 L 45,-45.5
 L 45,-50.5 L 44.9606,-51.1267 L 44.8429,-51.7434 L 44.6489,-52.3406 L 44.3815,-52.9088 L 44.0451,-53.4389
 L 43.6448,-53.9227 L 43.1871,-54.3526 L 42.6791,-54.7216 L 42.1289,-55.0241 L 41.5451,-55.2553 L 40.9369,-55.4114
 L 40.3139,-55.4901 L -40.3139,-55.4901 L -40.9369,-55.4114 L -41.5451,-55.2553 L -42.1289,-55.0241 L -42.6791,-54.7216
 L -43.1871,-54.3526 L -43.5,-54.0587 L -43.5,-54.1526 L -46.5,-54.1526 L -46.5,-41.8474 L -43.5,-41.8474
 L -43.5,-41.9413 L -43.1871,-41.6474 L -42.6791,-41.2784 L -42.1289,-40.9759 L -41.5451,-40.7447 L -40.9369,-40.5886
 L -40.3139,-40.5099 L 40.3139,-40.5099 z
M 37.3659,-45.8689 L 37.0999,-45.9025 L 36.8401,-45.9692 L 36.5908,-46.0679 L 36.3559,-46.1971 L 36.1389,-46.3547
 L 35.9434,-46.5383 L 35.7725,-46.7449 L 35.6288,-46.9713 L 35.5146,-47.214 L 35.4318,-47.469 L 35.3815,-47.7324
 L 35.3647,-48 L 35.3815,-48.2676 L 35.4318,-48.531 L 35.5146,-48.786 L 35.6288,-49.0287 L 35.7725,-49.2551
 L 35.9434,-49.4617 L 36.1389,-49.6453 L 36.3559,-49.8029 L 36.5908,-49.9321 L 36.8401,-50.0308 L 37.0999,-50.0975
 L 37.3659,-50.1311 L 37.6341,-50.1311 L 37.9001,-50.0975 L 38.1598,-50.0308 L 38.4092,-49.9321 L 38.6441,-49.8029
 L 38.8611,-49.6453 L 39.0565,-49.4617 L 39.2275,-49.2551 L 39.3712,-49.0287 L 39.4853,-48.786 L 39.5682,-48.531
 L 39.6185,-48.2676 L 39.6353,-48 L 39.6185,-47.7324 L 39.5682,-47.469 L 39.4853,-47.214 L 39.3712,-46.9713
 L 39.2275,-46.7449 L 39.0565,-46.5383 L 38.8611,-46.3547 L 38.6441,-46.1971 L 38.4092,-46.0679 L 38.1598,-45.9692
 L 37.9001,-45.9025 L 37.6341,-45.8689 z
M -37.6341,-45.8689 L -37.9001,-45.9025 L -38.1598,-45.9692 L -38.4092,-46.0679 L -38.6441,-46.1971 L -38.8611,-46.3547
 L -39.0565,-46.5383 L -39.2275,-46.7449 L -39.3712,-46.9713 L -39.4853,-47.214 L -39.5682,-47.469 L -39.6185,-47.7324
 L -39.6353,-48 L -39.6185,-48.2676 L -39.5682,-48.531 L -39.4853,-48.786 L -39.3712,-49.0287 L -39.2275,-49.2551
 L -39.0565,-49.4617 L -38.8611,-49.6453 L -38.6441,-49.8029 L -38.4092,-49.9321 L -38.1598,-50.0308 L -37.9001,-50.0975
 L -37.6341,-50.1311 L -37.3659,-50.1311 L -37.0999,-50.0975 L -36.8401,-50.0308 L -36.5908,-49.9321 L -36.3559,-49.8029
 L -36.1389,-49.6453 L -35.9434,-49.4617 L -35.7725,-49.2551 L -35.6288,-49.0287 L -35.5146,-48.786 L -35.4318,-48.531
 L -35.3815,-48.2676 L -35.3647,-48 L -35.3815,-47.7324 L -35.4318,-47.469 L -35.5146,-47.214 L -35.6288,-46.9713
 L -35.7725,-46.7449 L -35.9434,-46.5383 L -36.1389,-46.3547 L -36.3559,-46.1971 L -36.5908,-46.0679 L -36.8401,-45.9692
 L -37.0999,-45.9025 L -37.3659,-45.8689 z
" stroke="black" fill="lightgray" stroke-width="0.5"/>
</svg>
