<?xml version="1.0" standalone="no"?>
<!DOCTYPE svg PUBLIC "-//W3C//DTD SVG 1.1//EN" "http://www.w3.org/Graphics/SVG/1.1/DTD/svg11.dtd">
<svg width="137mm" height="64mm" viewBox="-69 -104 137 64" xmlns="http://www.w3.org/2000/svg" version="1.1">
<title>OpenSCAD Model</title>
<path d="
M -66,-89.9413 L -65.6871,-89.6474 L -65.1791,-89.2784 L -64.6289,-88.9759 L -64.0451,-88.7447 L -63.4369,-88.5886
 L -62.8139,-88.5099 L 62.8139,-88.5099 L 63.4369,-88.5886 L 64.0451,-88.7447 L 64.6289,-88.9759 L 65.1791,-89.2784
 L 65.6871,-89.6474 L 66.1448,-90.0773 L 66.5451,-90.5611 L 66.8815,-91.0912 L 67.1489,-91.6594 L 67.3429,-92.2566
 L 67.4606,-92.8733 L 67.5,-93.5 L 67.5,-98.5 L 67.4606,-99.1267 L 67.3429,-99.7434 L 67.1489,-100.341
 L 66.8815,-100.909 L 66.5451,-101.439 L 66.1448,-101.923 L 65.6871,-102.353 L 65.1791,-102.722 L 64.6289,-103.024
 L 64.0451,-103.255 L 63.4369,-103.411 L 62.8139,-103.49 L -62.8139,-103.49 L -63.4369,-103.411 L -64.0451,-103.255
 L -64.6289,-103.024 L -65.1791,-102.722 L -65.6871,-102.353 L -66,-102.059 L -66,-103.49 L -69,-103.49
 L -69,-88.5099 L -66,-88.5099 z
M -62.2432,-90.135 L -62.7256,-90.196 L -63.1967,-90.3169 L -63.6489,-90.4959 L -64.0751,-90.7302 L -64.4685,-91.0161
 L -64.823,-91.349 L -65.133,-91.7237 L -65.3936,-92.1344 L -65.6007,-92.5744 L -65.751,-93.0369 L -65.8421,-93.5146
 L -65.8726,-94 L -65.8726,-98 L -65.8421,-98.4854 L -65.751,-98.9631 L -65.6007,-99.4256 L -65.3936,-99.8656
 L -65.133,-100.276 L -64.823,-100.651 L -64.4685,-100.984 L -64.0751,-101.27 L -63.6489,-101.504 L -63.1967,-101.683
 L -62.7256,-101.804 L -62.2432,-101.865 L 62.2432,-101.865 L 62.7256,-101.804 L 63.1967,-101.683 L 63.6489,-101.504
 L 64.0751,-101.27 L 64.4685,-100.984 L 64.823,-100.651 L 65.133,-100.276 L 65.3936,-99.8656 L 65.6007,-99.4256
 L 65.751,-98.9631 L 65.8421,-98.4854 L 65.8726,-98 L 65.8726,-94 L 65.8421,-93.5146 L 65.751,-93.0369
 L 65.6007,-92.5744 L 65.3936,-92.1344 L 65.133,-91.7237 L 64.823,-91.349 L 64.4685,-91.0161 L 64.0751,-90.7302
 L 63.6489,-90.4959 L 63.1967,-90.3169 L 62.7256,-90.196 L 62.2432,-90.135 z
M 63.4369,-64.5886 L 64.0451,-64.7447 L 64.6289,-64.9759 L 65.1791,-65.2784 L 65.6871,-65.6474 L 66.1448,-66.0773
 L 66.5451,-66.5611 L 66.8815,-67.0912 L 67.1489,-67.6594 L 67.3429,-68.2566 L 67.4606,-68.8733 L 67.5,-69.5
 L 67.5,-74.5 L 67.4606,-75.1267 L 67.3429,-75.7434 L 67.1489,-76.3406 L 66.8815,-76.9088 L 66.5451,-77.4389
 L 66.1448,-77.9227 L 65.6871,-78.3526 L 65.1791,-78.7216 L 64.6289,-79.0241 L 64.0451,-79.2553 L 63.4369,-79.4114
 L 62.8139,-79.4901 L -62.8139,-79.4901 L -63.4369,-79.4114 L -64.0451,-79.2553 L -64.6289,-79.0241 L -65.1791,-78.7216
 L -65.6871,-78.3526 L -66,-78.0587 L -66,-79.1148 L -69,-79.1148 L -69,-64.8852 L -66,-64.8852
 L -66,-65.9413 L -65.6871,-65.6474 L -65.1791,-65.2784 L -64.6289,-64.9759 L -64.0451,-64.7447 L -63.4369,-64.5886
 L -62.8139,-64.5099 L 62.8139,-64.5099 z
M 63.4369,-40.5886 L 64.0451,-40.7447 L 64.6289,-40.9759 L 65.1791,-41.2784 L 65.6871,-41.6474 L 66.1448,-42.0773
 L 66.5451,-42.5611 L 66.8815,-43.0912 L 67.1489,-43.6594 L 67.3429,-44.2566 L 67.4606,-44.8733 L 67.5,-45.5
 L 67.5,-50.5 L 67.4606,-51.1267 L 67.3429,-51.7434 L 67.1489,-52.3406 L 66.8815,-52.9088 L 66.5451,-53.4389
 L 66.1448,-53.9227 L 65.6871,-54.3526 L 65.1791,-54.7216 L 64.6289,-55.0241 L 64.0451,-55.2553 L 63.4369,-55.4114
 L 62.8139,-55.4901 L -62.8139,-55.4901 L -63.4369,-55.4114 L -64.0451,-55.2553 L -64.6289,-55.0241 L -65.1791,-54.7216
 L -65.6871,-54.3526 L -66.1448,-53.9227 L -66.5451,-53.4389 L -66.8815,-52.9088 L -67.1489,-52.3406 L -67.3429,-51.7434
 L -67.4,-51.4442 L -69,-51.4442 L -69,-44.5558 L -67.4,-44.5558 L -67.3429,-44.2566 L -67.1489,-43.6594
 L -66.8815,-43.0912 L -66.5451,-42.5611 L -66.1448,-42.0773 L -65.6871,-41.6474 L -65.1791,-41.2784 L -64.6289,-40.9759
 L -64.0451,-40.7447 L -63.4369,-40.5886 L -62.8139,-40.5099 L 62.8139,-40.5099 z
M -60.113,-46.2036 L -60.3373,-46.2319 L -60.5562,-46.2881 L -60.7664,-46.3713 L -60.9645,-46.4802 L -61.1474,-46.6131
 L -61.3121,-46.7678 L -61.4562,-46.942 L -61.5773,-47.1329 L -61.6736,-47.3374 L -61.7434,-47.5524 L -61.7858,-47.7744
 L -61.8,-48 L -61.7858,-48.2256 L -61.7434,-48.4476 L -61.6736,-48.6626 L -61.5773,-48.8671 L -61.4562,-49.058
 L -61.3121,-49.2322 L -61.1474,-49.3869 L -60.9645,-49.5198 L -60.7664,-49.6287 L -60.5562,-49.7119 L -60.3373,-49.7681
 L -60.113,-49.7964 L -59.887,-49.7964 L -59.6627,-49.7681 L -59.4438,-49.7119 L -59.2336,-49.6287 L -59.0355,-49.5198
 L -58.8526,-49.3869 L -58.6879,-49.2322 L -58.5438,-49.058 L -58.4226,-48.8671 L -58.3264,-48.6626 L -58.2565,-48.4476
 L -58.2142,-48.2256 L -58.2,-48 L -58.2142,-47.7744 L -58.2565,-47.5524 L -58.3264,-47.3374 L -58.4226,-47.1329
 L -58.5438,-46.942 L -58.6879,-46.7678 L -58.8526,-46.6131 L -59.0355,-46.4802 L -59.2336,-46.3713 L -59.4438,-46.2881
 L -59.6627,-46.2319 L -59.887,-46.2036 z
M 59.887,-46.2036 L 59.6627,-46.2319 L 59.4438,-46.2881 L 59.2336,-46.3713 L 59.0355,-46.4802 L 58.8526,-46.6131
 L 58.6879,-46.7678 L 58.5438,-46.942 L 58.4226,-47.1329 L 58.3264,-47.3374 L 58.2565,-47.5524 L 58.2142,-47.7744
 L 58.2,-48 L 58.2142,-48.2256 L 58.2565,-48.4476 L 58.3264,-48.6626 L 58.4226,-48.8671 L 58.5438,-49.058
 L 58.6879,-49.2322 L 58.8526,-49.3869 L 59.0355,-49.5198 L 59.2336,-49.6287 L 59.4438,-49.7119 L 59.6627,-49.7681
 L 59.887,-49.7964 L 60.113,-49.7964 L 60.3373,-49.7681 L 60.5562,-49.7119 L 60.7664,-49.6287 L 60.9645,-49.5198
 L 61.1474,-49.3869 L 61.3121,-49.2322 L 61.4562,-49.058 L 61.5773,-48.8671 L 61.6736,-48.6626 L 61.7434,-48.4476
 L 61.7858,-48.2256 L 61.8,-48 L 61.7858,-47.7744 L 61.7434,-47.5524 L 61.6736,-47.3374 L 61.5773,-47.1329
 L 61.4562,-46.942 L 61.3121,-46.7678 L 61.1474,-46.6131 L 60.9645,-46.4802 L 60.7664,-46.3713 L 60.5562,-46.2881
 L 60.3373,-46.2319 L 60.113,-46.2036 z
" stroke="black" fill="lightgray" stroke-width="0.5"/>
</svg>
