<?xml version="1.0" standalone="no"?>
<!DOCTYPE svg PUBLIC "-//W3C//DTD SVG 1.1//EN" "http://www.w3.org/Graphics/SVG/1.1/DTD/svg11.dtd">
<svg width="30mm" height="336mm" viewBox="-15 -651 30 336" xmlns="http://www.w3.org/2000/svg" version="1.1">
<title>OpenSCAD Model</title>
<path d="
M 10.9369,-591.089 L 11.5451,-591.245 L 12.1289,-591.476 L 12.6791,-591.778 L 13.1871,-592.147 L 13.6448,-592.577
 L 14.0451,-593.061 L 14.3815,-593.591 L 14.6489,-594.159 L 14.8429,-594.757 L 14.9606,-595.373 L 15,-596
 L 15,-646 L 14.9606,-646.627 L 14.8429,-647.243 L 14.6489,-647.841 L 14.3815,-648.409 L 14.0451,-648.939
 L 13.6448,-649.423 L 13.1871,-649.853 L 12.6791,-650.222 L 12.1289,-650.524 L 11.5451,-650.755 L 10.9369,-650.911
 L 10.3139,-650.99 L -10.3139,-650.99 L -10.9369,-650.911 L -11.5451,-650.755 L -12.1289,-650.524 L -12.6791,-650.222
 L -13.1871,-649.853 L -13.6448,-649.423 L -14.0451,-648.939 L -14.3815,-648.409 L -14.6489,-647.841 L -14.8429,-647.243
 L -14.9606,-646.627 L -15,-646 L -15,-596 L -14.9606,-595.373 L -14.8429,-594.757 L -14.6489,-594.159
 L -14.3815,-593.591 L -14.0451,-593.061 L -13.6448,-592.577 L -13.1871,-592.147 L -12.6791,-591.778 L -12.1289,-591.476
 L -11.5451,-591.245 L -10.9369,-591.089 L -10.3139,-591.01 L 10.3139,-591.01 z
M -9.75116,-592.508 L -10.2495,-592.571 L -10.7361,-592.696 L -11.2031,-592.881 L -11.6433,-593.123 L -12.0497,-593.418
 L -12.4159,-593.762 L -12.7361,-594.149 L -13.0052,-594.573 L -13.2191,-595.028 L -13.3743,-595.505 L -13.4684,-595.999
 L -13.5,-596.5 L -13.5,-645.5 L -13.4684,-646.001 L -13.3743,-646.495 L -13.2191,-646.972 L -13.0052,-647.427
 L -12.7361,-647.851 L -12.4159,-648.238 L -12.0497,-648.582 L -11.6433,-648.877 L -11.2031,-649.119 L -10.7361,-649.304
 L -10.2495,-649.429 L -9.75116,-649.492 L 9.75116,-649.492 L 10.2495,-649.429 L 10.7361,-649.304 L 11.2031,-649.119
 L 11.6433,-648.877 L 12.0497,-648.582 L 12.4159,-648.238 L 12.7361,-647.851 L 13.0052,-647.427 L 13.2191,-646.972
 L 13.3743,-646.495 L 13.4684,-646.001 L 13.5,-645.5 L 13.5,-596.5 L 13.4684,-595.999 L 13.3743,-595.505
 L 13.2191,-595.028 L 13.0052,-594.573 L 12.7361,-594.149 L 12.4159,-593.762 L 12.0497,-593.418 L 11.6433,-593.123
 L 11.2031,-592.881 L 10.7361,-592.696 L 10.2495,-592.571 L 9.75116,-592.508 z
M 10.9369,-522.089 L 11.5451,-522.245 L 12.1289,-522.476 L 12.6791,-522.778 L 13.1871,-523.147 L 13.6448,-523.577
 L 14.0451,-524.061 L 14.3815,-524.591 L 14.6489,-525.159 L 14.8429,-525.757 L 14.9606,-526.373 L 15,-527
 L 15,-577 L 14.9606,-577.627 L 14.8429,-578.243 L 14.6489,-578.841 L 14.3815,-579.409 L 14.0451,-579.939
 L 13.6448,-580.423 L 13.1871,-580.853 L 12.6791,-581.222 L 12.1289,-581.524 L 11.5451,-581.755 L 10.9369,-581.911
 L 10.3139,-581.99 L -10.3139,-581.99 L -10.9369,-581.911 L -11.5451,-581.755 L -12.1289,-581.524 L -12.6791,-581.222
 L -13.1871,-580.853 L -13.6448,-580.423 L -14.0451,-579.939 L -14.3815,-579.409 L -14.6489,-578.841 L -14.8429,-578.243
 L -14.9606,-577.627 L -15,-577 L -15,-527 L -14.9606,-526.373 L -14.8429,-525.757 L -14.6489,-525.159
 L -14.3815,-524.591 L -14.0451,-524.061 L -13.6448,-523.577 L -13.1871,-523.147 L -12.6791,-522.778 L -12.1289,-522.476
 L -11.5451,-522.245 L -10.9369,-522.089 L -10.3139,-522.01 L 10.3139,-522.01 z
M -9.75116,-523.508 L -10.2495,-523.571 L -10.7361,-523.696 L -11.2031,-523.881 L -11.6433,-524.123 L -12.0497,-524.418
 L -12.4159,-524.762 L -12.7361,-525.149 L -13.0052,-525.573 L -13.2191,-526.028 L -13.3743,-526.505 L -13.4684,-526.999
 L -13.5,-527.5 L -13.5,-576.5 L -13.4684,-577.001 L -13.3743,-577.495 L -13.2191,-577.972 L -13.0052,-578.427
 L -12.7361,-578.851 L -12.4159,-579.238 L -12.0497,-579.582 L -11.6433,-579.877 L -11.2031,-580.119 L -10.7361,-580.304
 L -10.2495,-580.429 L -9.75116,-580.492 L 9.75116,-580.492 L 10.2495,-580.429 L 10.7361,-580.304 L 11.2031,-580.119
 L 11.6433,-579.877 L 12.0497,-579.582 L 12.4159,-579.238 L 12.7361,-578.851 L 13.0052,-578.427 L 13.2191,-577.972
 L 13.3743,-577.495 L 13.4684,-577.001 L 13.5,-576.5 L 13.5,-527.5 L 13.4684,-526.999 L 13.3743,-526.505
 L 13.2191,-526.028 L 13.0052,-525.573 L 12.7361,-525.149 L 12.4159,-524.762 L 12.0497,-524.418 L 11.6433,-524.123
 L 11.2031,-523.881 L 10.7361,-523.696 L 10.2495,-523.571 L 9.75116,-523.508 z
M 10.9369,-453.089 L 11.5451,-453.245 L 12.1289,-453.476 L 12.6791,-453.778 L 13.1871,-454.147 L 13.6448,-454.577
 L 14.0451,-455.061 L 14.3815,-455.591 L 14.6489,-456.159 L 14.8429,-456.757 L 14.9606,-457.373 L 15,-458
 L 15,-508 L 14.9606,-508.627 L 14.8429,-509.243 L 14.6489,-509.841 L 14.3815,-510.409 L 14.0451,-510.939
 L 13.6448,-511.423 L 13.1871,-511.853 L 12.6791,-512.222 L 12.1289,-512.524 L 11.5451,-512.755 L 10.9369,-512.911
 L 10.3139,-512.99 L -10.3139,-512.99 L -10.9369,-512.911 L -11.5451,-512.755 L -12.1289,-512.524 L -12.6791,-512.222
 L -13.1871,-511.853 L -13.6448,-511.423 L -14.0451,-510.939 L -14.3815,-510.409 L -14.6489,-509.841 L -14.8429,-509.243
 L -14.9606,-508.627 L -15,-508 L -15,-458 L -14.9606,-457.373 L -14.8429,-456.757 L -14.6489,-456.159
 L -14.3815,-455.591 L -14.0451,-455.061 L -13.6448,-454.577 L -13.1871,-454.147 L -12.6791,-453.778 L -12.1289,-453.476
 L -11.5451,-453.245 L -10.9369,-453.089 L -10.3139,-453.01 L 10.3139,-453.01 z
M -9.75116,-454.508 L -10.2495,-454.571 L -10.7361,-454.696 L -11.2031,-454.881 L -11.6433,-455.123 L -12.0497,-455.418
 L -12.4159,-455.762 L -12.7361,-456.149 L -13.0052,-456.573 L -13.2191,-457.028 L -13.3743,-457.505 L -13.4684,-457.999
 L -13.5,-458.5 L -13.5,-507.5 L -13.4684,-508.001 L -13.3743,-508.495 L -13.2191,-508.972 L -13.0052,-509.427
 L -12.7361,-509.851 L -12.4159,-510.238 L -12.0497,-510.582 L -11.6433,-510.877 L -11.2031,-511.119 L -10.7361,-511.304
 L -10.2495,-511.429 L -9.75116,-511.492 L 9.75116,-511.492 L 10.2495,-511.429 L 10.7361,-511.304 L 11.2031,-511.119
 L 11.6433,-510.877 L 12.0497,-510.582 L 12.4159,-510.238 L 12.7361,-509.851 L 13.0052,-509.427 L 13.2191,-508.972
 L 13.3743,-508.495 L 13.4684,-508.001 L 13.5,-507.5 L 13.5,-458.5 L 13.4684,-457.999 L 13.3743,-457.505
 L 13.2191,-457.028 L 13.0052,-456.573 L 12.7361,-456.149 L 12.4159,-455.762 L 12.0497,-455.418 L 11.6433,-455.123
 L 11.2031,-454.881 L 10.7361,-454.696 L 10.2495,-454.571 L 9.75116,-454.508 z
M 10.9369,-384.089 L 11.5451,-384.245 L 12.1289,-384.476 L 12.6791,-384.778 L 13.1871,-385.147 L 13.6448,-385.577
 L 14.0451,-386.061 L 14.3815,-386.591 L 14.6489,-387.159 L 14.8429,-387.757 L 14.9606,-388.373 L 15,-389
 L 15,-439 L 14.9606,-439.627 L 14.8429,-440.243 L 14.6489,-440.841 L 14.3815,-441.409 L 14.0451,-441.939
 L 13.6448,-442.423 L 13.1871,-442.853 L 12.6791,-443.222 L 12.1289,-443.524 L 11.5451,-443.755 L 10.9369,-443.911
 L 10.3139,-443.99 L -10.3139,-443.99 L -10.9369,-443.911 L -11.5451,-443.755 L -12.1289,-443.524 L -12.6791,-443.222
 L -13.1871,-442.853 L -13.6448,-442.423 L -14.0451,-441.939 L -14.3815,-441.409 L -14.6489,-440.841 L -14.8429,-440.243
 L -14.9606,-439.627 L -15,-439 L -15,-389 L -14.9606,-388.373 L -14.8429,-387.757 L -14.6489,-387.159
 L -14.3815,-386.591 L -14.0451,-386.061 L -13.6448,-385.577 L -13.1871,-385.147 L -12.6791,-384.778 L -12.1289,-384.476
 L -11.5451,-384.245 L -10.9369,-384.089 L -10.3139,-384.01 L 10.3139,-384.01 z
M -9.69545,-386.393 L -10.0833,-386.442 L -10.4619,-386.539 L -10.8254,-386.683 L -11.168,-386.872 L -11.4842,-387.101
 L -11.7692,-387.369 L -12.0184,-387.67 L -12.2279,-388 L -12.3943,-388.354 L -12.5151,-388.726 L -12.5884,-389.11
 L -12.6129,-389.5 L -12.6129,-438.5 L -12.5884,-438.89 L -12.5151,-439.274 L -12.3943,-439.646 L -12.2279,-440
 L -12.0184,-440.33 L -11.7692,-440.631 L -11.4842,-440.899 L -11.168,-441.128 L -10.8254,-441.317 L -10.4619,-441.461
 L -10.0833,-441.558 L -9.69545,-441.607 L 9.69545,-441.607 L 10.0833,-441.558 L 10.4619,-441.461 L 10.8254,-441.317
 L 11.168,-441.128 L 11.4842,-440.899 L 11.7692,-440.631 L 12.0184,-440.33 L 12.2279,-440 L 12.3943,-439.646
 L 12.5151,-439.274 L 12.5884,-438.89 L 12.6129,-438.5 L 12.6129,-389.5 L 12.5884,-389.11 L 12.5151,-388.726
 L 12.3943,-388.354 L 12.2279,-388 L 12.0184,-387.67 L 11.7692,-387.369 L 11.4842,-387.101 L 11.168,-386.872
 L 10.8254,-386.683 L 10.4619,-386.539 L 10.0833,-386.442 L 9.69545,-386.393 z
M 10.9369,-315.089 L 11.5451,-315.245 L 12.1289,-315.476 L 12.6791,-315.778 L 13.1871,-316.147 L 13.6448,-316.577
 L 14.0451,-317.061 L 14.3815,-317.591 L 14.6489,-318.159 L 14.8429,-318.757 L 14.9606,-319.373 L 15,-320
 L 15,-370 L 14.9606,-370.627 L 14.8429,-371.243 L 14.6489,-371.841 L 14.3815,-372.409 L 14.0451,-372.939
 L 13.6448,-373.423 L 13.1871,-373.853 L 12.6791,-374.222 L 12.1289,-374.524 L 11.5451,-374.755 L 10.9369,-374.911
 L 10.3139,-374.99 L -10.3139,-374.99 L -10.9369,-374.911 L -11.5451,-374.755 L -12.1289,-374.524 L -12.6791,-374.222
 L -13.1871,-373.853 L -13.6448,-373.423 L -14.0451,-372.939 L -14.3815,-372.409 L -14.6489,-371.841 L -14.8429,-371.243
 L -14.9606,-370.627 L -15,-370 L -15,-320 L -14.9606,-319.373 L -14.8429,-318.757 L -14.6489,-318.159
 L -14.3815,-317.591 L -14.0451,-317.061 L -13.6448,-316.577 L -13.1871,-316.147 L -12.6791,-315.778 L -12.1289,-315.476
 L -11.5451,-315.245 L -10.9369,-315.089 L -10.3139,-315.01 L 10.3139,-315.01 z
M 7.36592,-365.369 L 7.09988,-365.403 L 6.84015,-365.469 L 6.59084,-365.568 L 6.35585,-365.697 L 6.1389,-365.855
 L 5.94344,-366.038 L 5.77251,-366.245 L 5.62881,-366.471 L 5.51465,-366.714 L 5.43178,-366.969 L 5.38153,-367.232
 L 5.3647,-367.5 L 5.38153,-367.768 L 5.43178,-368.031 L 5.51465,-368.286 L 5.62881,-368.529 L 5.77251,-368.755
 L 5.94344,-368.962 L 6.1389,-369.145 L 6.35585,-369.303 L 6.59084,-369.432 L 6.84015,-369.531 L 7.09988,-369.597
 L 7.36592,-369.631 L 7.63406,-369.631 L 7.9001,-369.597 L 8.15984,-369.531 L 8.40915,-369.432 L 8.64413,-369.303
 L 8.86108,-369.145 L 9.05655,-368.962 L 9.22748,-368.755 L 9.37117,-368.529 L 9.48534,-368.286 L 9.56821,-368.031
 L 9.61845,-367.768 L 9.63528,-367.5 L 9.61845,-367.232 L 9.56821,-366.969 L 9.48534,-366.714 L 9.37117,-366.471
 L 9.22748,-366.245 L 9.05655,-366.038 L 8.86108,-365.855 L 8.64413,-365.697 L 8.40915,-365.568 L 8.15984,-365.469
 L 7.9001,-365.403 L 7.63406,-365.369 z
M -7.63406,-365.369 L -7.9001,-365.403 L -8.15984,-365.469 L -8.40915,-365.568 L -8.64413,-365.697 L -8.86108,-365.855
 L -9.05655,-366.038 L -9.22748,-366.245 L -9.37117,-366.471 L -9.48534,-366.714 L -9.56821,-366.969 L -9.61845,-367.232
 L -9.63528,-367.5 L -9.61845,-367.768 L -9.56821,-368.031 L -9.48534,-368.286 L -9.37117,-368.529 L -9.22748,-368.755
 L -9.05655,-368.962 L -8.86108,-369.145 L -8.64413,-369.303 L -8.40915,-369.432 L -8.15984,-369.531 L -7.9001,-369.597
 L -7.63406,-369.631 L -7.36592,-369.631 L -7.09988,-369.597 L -6.84015,-369.531 L -6.59084,-369.432 L -6.35585,-369.303
 L -6.1389,-369.145 L -5.94344,-368.962 L -5.77251,-368.755 L -5.62881,-368.529 L -5.51465,-368.286 L -5.43178,-368.031
 L -5.38153,-367.768 L -5.3647,-367.5 L -5.38153,-367.232 L -5.43178,-366.969 L -5.51465,-366.714 L -5.62881,-366.471
 L -5.77251,-366.245 L -5.94344,-366.038 L -6.1389,-365.855 L -6.35585,-365.697 L -6.59084,-365.568 L -6.84015,-365.469
 L -7.09988,-365.403 L -7.36592,-365.369 z
M 7.36592,-320.369 L 7.09988,-320.403 L 6.84015,-320.469 L 6.59084,-320.568 L 6.35585,-320.697 L 6.1389,-320.855
 L 5.94344,-321.038 L 5.77251,-321.245 L 5.62881,-321.471 L 5.51465,-321.714 L 5.43178,-321.969 L 5.38153,-322.232
 L 5.3647,-322.5 L 5.38153,-322.768 L 5.43178,-323.031 L 5.51465,-323.286 L 5.62881,-323.529 L 5.77251,-323.755
 L 5.94344,-323.962 L 6.1389,-324.145 L 6.35585,-324.303 L 6.59084,-324.432 L 6.84015,-324.531 L 7.09988,-324.597
 L 7.36592,-324.631 L 7.63406,-324.631 L 7.9001,-324.597 L 8.15984,-324.531 L 8.40915,-324.432 L 8.64413,-324.303
 L 8.86108,-324.145 L 9.05655,-323.962 L 9.22748,-323.755 L 9.37117,-323.529 L 9.48534,-323.286 L 9.56821,-323.031
 L 9.61845,-322.768 L 9.63528,-322.5 L 9.61845,-322.232 L 9.56821,-321.969 L 9.48534,-321.714 L 9.37117,-321.471
 L 9.22748,-321.245 L 9.05655,-321.038 L 8.86108,-320.855 L 8.64413,-320.697 L 8.40915,-320.568 L 8.15984,-320.469
 L 7.9001,-320.403 L 7.63406,-320.369 z
M -7.63406,-320.369 L -7.9001,-320.403 L -8.15984,-320.469 L -8.40915,-320.568 L -8.64413,-320.697 L -8.86108,-320.855
 L -9.05655,-321.038 L -9.22748,-321.245 L -9.37117,-321.471 L -9.48534,-321.714 L -9.56821,-321.969 L -9.61845,-322.232
 L -9.63528,-322.5 L -9.61845,-322.768 L -9.56821,-323.031 L -9.48534,-323.286 L -9.37117,-323.529 L -9.22748,-323.755
 L -9.05655,-323.962 L -8.86108,-324.145 L -8.64413,-324.303 L -8.40915,-324.432 L -8.15984,-324.531 L -7.9001,-324.597
 L -7.63406,-324.631 L -7.36592,-324.631 L -7.09988,-324.597 L -6.84015,-324.531 L -6.59084,-324.432 L -6.35585,-324.303
 L -6.1389,-324.145 L -5.94344,-323.962 L -5.77251,-323.755 L -5.62881,-323.529 L -5.51465,-323.286 L -5.43178,-323.031
 L -5.38153,-322.768 L -5.3647,-322.5 L -5.38153,-322.232 L -5.43178,-321.969 L -5.51465,-321.714 L -5.62881,-321.471
 L -5.77251,-321.245 L -5.94344,-321.038 L -6.1389,-320.855 L -6.35585,-320.697 L -6.59084,-320.568 L -6.84015,-320.469
 L -7.09988,-320.403 L -7.36592,-320.369 z
" stroke="black" fill="lightgray" stroke-width="0.5"/>
</svg>
