<?xml version="1.0" standalone="no"?>
<!DOCTYPE svg PUBLIC "-//W3C//DTD SVG 1.1//EN" "http://www.w3.org/Graphics/SVG/1.1/DTD/svg11.dtd">
<svg width="30mm" height="712mm" viewBox="-15 -1364 30 712" xmlns="http://www.w3.org/2000/svg" version="1.1">
<title>OpenSCAD Model</title>
<path d="
M 10.9369,-1228.59 L 11.5451,-1228.74 L 12.1289,-1228.98 L 12.6791,-1229.28 L 13.1871,-1229.65 L 13.6448,-1230.08
 L 14.0451,-1230.56 L 14.3815,-1231.09 L 14.6489,-1231.66 L 14.8429,-1232.26 L 14.9606,-1232.87 L 15,-1233.5
 L 15,-1358.5 L 14.9606,-1359.13 L 14.8429,-1359.74 L 14.6489,-1360.34 L 14.3815,-1360.91 L 14.0451,-1361.44
 L 13.6448,-1361.92 L 13.1871,-1362.35 L 12.6791,-1362.72 L 12.1289,-1363.02 L 11.5451,-1363.26 L 10.9369,-1363.41
 L 10.3139,-1363.49 L -10.3139,-1363.49 L -10.9369,-1363.41 L -11.5451,-1363.26 L -12.1289,-1363.02 L -12.6791,-1362.72
 L -13.1871,-1362.35 L -13.6448,-1361.92 L -14.0451,-1361.44 L -14.3815,-1360.91 L -14.6489,-1360.34 L -14.8429,-1359.74
 L -14.9606,-1359.13 L -15,-1358.5 L -15,-1233.5 L -14.9606,-1232.87 L -14.8429,-1232.26 L -14.6489,-1231.66
 L -14.3815,-1231.09 L -14.0451,-1230.56 L -13.6448,-1230.08 L -13.1871,-1229.65 L -12.6791,-1229.28 L -12.1289,-1228.98
 L -11.5451,-1228.74 L -10.9369,-1228.59 L -10.3139,-1228.51 L 10.3139,-1228.51 z
M -9.75116,-1230.01 L -10.2495,-1230.07 L -10.7361,-1230.2 L -11.2031,-1230.38 L -11.6433,-1230.62 L -12.0497,-1230.92
 L -12.4159,-1231.26 L -12.7361,-1231.65 L -13.0052,-1232.07 L -13.2191,-1232.53 L -13.3743,-1233.01 L -13.4684,-1233.5
 L -13.5,-1234 L -13.5,-1358 L -13.4684,-1358.5 L -13.3743,-1358.99 L -13.2191,-1359.47 L -13.0052,-1359.93
 L -12.7361,-1360.35 L -12.4159,-1360.74 L -12.0497,-1361.08 L -11.6433,-1361.38 L -11.2031,-1361.62 L -10.7361,-1361.8
 L -10.2495,-1361.93 L -9.75116,-1361.99 L 9.75116,-1361.99 L 10.2495,-1361.93 L 10.7361,-1361.8 L 11.2031,-1361.62
 L 11.6433,-1361.38 L 12.0497,-1361.08 L 12.4159,-1360.74 L 12.7361,-1360.35 L 13.0052,-1359.93 L 13.2191,-1359.47
 L 13.3743,-1358.99 L 13.4684,-1358.5 L 13.5,-1358 L 13.5,-1234 L 13.4684,-1233.5 L 13.3743,-1233.01
 L 13.2191,-1232.53 L 13.0052,-1232.07 L 12.7361,-1231.65 L 12.4159,-1231.26 L 12.0497,-1230.92 L 11.6433,-1230.62
 L 11.2031,-1230.38 L 10.7361,-1230.2 L 10.2495,-1230.07 L 9.75116,-1230.01 z
M 10.9369,-1084.59 L 11.5451,-1084.74 L 12.1289,-1084.98 L 12.6791,-1085.28 L 13.1871,-1085.65 L 13.6448,-1086.08
 L 14.0451,-1086.56 L 14.3815,-1087.09 L 14.6489,-1087.66 L 14.8429,-1088.26 L 14.9606,-1088.87 L 15,-1089.5
 L 15,-1214.5 L 14.9606,-1215.13 L 14.8429,-1215.74 L 14.6489,-1216.34 L 14.3815,-1216.91 L 14.0451,-1217.44
 L 13.6448,-1217.92 L 13.1871,-1218.35 L 12.6791,-1218.72 L 12.1289,-1219.02 L 11.5451,-1219.26 L 10.9369,-1219.41
 L 10.3139,-1219.49 L -10.3139,-1219.49 L -10.9369,-1219.41 L -11.5451,-1219.26 L -12.1289,-1219.02 L -12.6791,-1218.72
 L -13.1871,-1218.35 L -13.6448,-1217.92 L -14.0451,-1217.44 L -14.3815,-1216.91 L -14.6489,-1216.34 L -14.8429,-1215.74
 L -14.9606,-1215.13 L -15,-1214.5 L -15,-1089.5 L -14.9606,-1088.87 L -14.8429,-1088.26 L -14.6489,-1087.66
 L -14.3815,-1087.09 L -14.0451,-1086.56 L -13.6448,-1086.08 L -13.1871,-1085.65 L -12.6791,-1085.28 L -12.1289,-1084.98
 L -11.5451,-1084.74 L -10.9369,-1084.59 L -10.3139,-1084.51 L 10.3139,-1084.51 z
M -9.75116,-1086.01 L -10.2495,-1086.07 L -10.7361,-1086.2 L -11.2031,-1086.38 L -11.6433,-1086.62 L -12.0497,-1086.92
 L -12.4159,-1087.26 L -12.7361,-1087.65 L -13.0052,-1088.07 L -13.2191,-1088.53 L -13.3743,-1089.01 L -13.4684,-1089.5
 L -13.5,-1090 L -13.5,-1214 L -13.4684,-1214.5 L -13.3743,-1214.99 L -13.2191,-1215.47 L -13.0052,-1215.93
 L -12.7361,-1216.35 L -12.4159,-1216.74 L -12.0497,-1217.08 L -11.6433,-1217.38 L -11.2031,-1217.62 L -10.7361,-1217.8
 L -10.2495,-1217.93 L -9.75116,-1217.99 L 9.75116,-1217.99 L 10.2495,-1217.93 L 10.7361,-1217.8 L 11.2031,-1217.62
 L 11.6433,-1217.38 L 12.0497,-1217.08 L 12.4159,-1216.74 L 12.7361,-1216.35 L 13.0052,-1215.93 L 13.2191,-1215.47
 L 13.3743,-1214.99 L 13.4684,-1214.5 L 13.5,-1214 L 13.5,-1090 L 13.4684,-1089.5 L 13.3743,-1089.01
 L 13.2191,-1088.53 L 13.0052,-1088.07 L 12.7361,-1087.65 L 12.4159,-1087.26 L 12.0497,-1086.92 L 11.6433,-1086.62
 L 11.2031,-1086.38 L 10.7361,-1086.2 L 10.2495,-1086.07 L 9.75116,-1086.01 z
M 10.9369,-940.589 L 11.5451,-940.745 L 12.1289,-940.976 L 12.6791,-941.278 L 13.1871,-941.647 L 13.6448,-942.077
 L 14.0451,-942.561 L 14.3815,-943.091 L 14.6489,-943.659 L 14.8429,-944.257 L 14.9606,-944.873 L 15,-945.5
 L 15,-1070.5 L 14.9606,-1071.13 L 14.8429,-1071.74 L 14.6489,-1072.34 L 14.3815,-1072.91 L 14.0451,-1073.44
 L 13.6448,-1073.92 L 13.1871,-1074.35 L 12.6791,-1074.72 L 12.1289,-1075.02 L 11.5451,-1075.26 L 10.9369,-1075.41
 L 10.3139,-1075.49 L -10.3139,-1075.49 L -10.9369,-1075.41 L -11.5451,-1075.26 L -12.1289,-1075.02 L -12.6791,-1074.72
 L -13.1871,-1074.35 L -13.6448,-1073.92 L -14.0451,-1073.44 L -14.3815,-1072.91 L -14.6489,-1072.34 L -14.8429,-1071.74
 L -14.9606,-1071.13 L -15,-1070.5 L -15,-945.5 L -14.9606,-944.873 L -14.8429,-944.257 L -14.6489,-943.659
 L -14.3815,-943.091 L -14.0451,-942.561 L -13.6448,-942.077 L -13.1871,-941.647 L -12.6791,-941.278 L -12.1289,-940.976
 L -11.5451,-940.745 L -10.9369,-940.589 L -10.3139,-940.51 L 10.3139,-940.51 z
M -9.75116,-942.008 L -10.2495,-942.071 L -10.7361,-942.196 L -11.2031,-942.381 L -11.6433,-942.623 L -12.0497,-942.918
 L -12.4159,-943.262 L -12.7361,-943.649 L -13.0052,-944.073 L -13.2191,-944.528 L -13.3743,-945.005 L -13.4684,-945.499
 L -13.5,-946 L -13.5,-1070 L -13.4684,-1070.5 L -13.3743,-1070.99 L -13.2191,-1071.47 L -13.0052,-1071.93
 L -12.7361,-1072.35 L -12.4159,-1072.74 L -12.0497,-1073.08 L -11.6433,-1073.38 L -11.2031,-1073.62 L -10.7361,-1073.8
 L -10.2495,-1073.93 L -9.75116,-1073.99 L 9.75116,-1073.99 L 10.2495,-1073.93 L 10.7361,-1073.8 L 11.2031,-1073.62
 L 11.6433,-1073.38 L 12.0497,-1073.08 L 12.4159,-1072.74 L 12.7361,-1072.35 L 13.0052,-1071.93 L 13.2191,-1071.47
 L 13.3743,-1070.99 L 13.4684,-1070.5 L 13.5,-1070 L 13.5,-946 L 13.4684,-945.499 L 13.3743,-945.005
 L 13.2191,-944.528 L 13.0052,-944.073 L 12.7361,-943.649 L 12.4159,-943.262 L 12.0497,-942.918 L 11.6433,-942.623
 L 11.2031,-942.381 L 10.7361,-942.196 L 10.2495,-942.071 L 9.75116,-942.008 z
M 10.9369,-796.589 L 11.5451,-796.745 L 12.1289,-796.976 L 12.6791,-797.278 L 13.1871,-797.647 L 13.6448,-798.077
 L 14.0451,-798.561 L 14.3815,-799.091 L 14.6489,-799.659 L 14.8429,-800.257 L 14.9606,-800.873 L 15,-801.5
 L 15,-926.5 L 14.9606,-927.127 L 14.8429,-927.743 L 14.6489,-928.341 L 14.3815,-928.909 L 14.0451,-929.439
 L 13.6448,-929.923 L 13.1871,-930.353 L 12.6791,-930.722 L 12.1289,-931.024 L 11.5451,-931.255 L 10.9369,-931.411
 L 10.3139,-931.49 L -10.3139,-931.49 L -10.9369,-931.411 L -11.5451,-931.255 L -12.1289,-931.024 L -12.6791,-930.722
 L -13.1871,-930.353 L -13.6448,-929.923 L -14.0451,-929.439 L -14.3815,-928.909 L -14.6489,-928.341 L -14.8429,-927.743
 L -14.9606,-927.127 L -15,-926.5 L -15,-801.5 L -14.9606,-800.873 L -14.8429,-800.257 L -14.6489,-799.659
 L -14.3815,-799.091 L -14.0451,-798.561 L -13.6448,-798.077 L -13.1871,-797.647 L -12.6791,-797.278 L -12.1289,-796.976
 L -11.5451,-796.745 L -10.9369,-796.589 L -10.3139,-796.51 L 10.3139,-796.51 z
M -9.69545,-798.893 L -10.0833,-798.942 L -10.4619,-799.039 L -10.8254,-799.183 L -11.168,-799.372 L -11.4842,-799.601
 L -11.7692,-799.869 L -12.0184,-800.17 L -12.2279,-800.5 L -12.3943,-800.854 L -12.5151,-801.226 L -12.5884,-801.61
 L -12.6129,-802 L -12.6129,-926 L -12.5884,-926.39 L -12.5151,-926.774 L -12.3943,-927.146 L -12.2279,-927.5
 L -12.0184,-927.83 L -11.7692,-928.131 L -11.4842,-928.399 L -11.168,-928.628 L -10.8254,-928.817 L -10.4619,-928.961
 L -10.0833,-929.058 L -9.69545,-929.107 L 9.69545,-929.107 L 10.0833,-929.058 L 10.4619,-928.961 L 10.8254,-928.817
 L 11.168,-928.628 L 11.4842,-928.399 L 11.7692,-928.131 L 12.0184,-927.83 L 12.2279,-927.5 L 12.3943,-927.146
 L 12.5151,-926.774 L 12.5884,-926.39 L 12.6129,-926 L 12.6129,-802 L 12.5884,-801.61 L 12.5151,-801.226
 L 12.3943,-800.854 L 12.2279,-800.5 L 12.0184,-800.17 L 11.7692,-799.869 L 11.4842,-799.601 L 11.168,-799.372
 L 10.8254,-799.183 L 10.4619,-799.039 L 10.0833,-798.942 L 9.69545,-798.893 z
M 10.9369,-652.589 L 11.5451,-652.745 L 12.1289,-652.976 L 12.6791,-653.278 L 13.1871,-653.647 L 13.6448,-654.077
 L 14.0451,-654.561 L 14.3815,-655.091 L 14.6489,-655.659 L 14.8429,-656.257 L 14.9606,-656.873 L 15,-657.5
 L 15,-782.5 L 14.9606,-783.127 L 14.8429,-783.743 L 14.6489,-784.341 L 14.3815,-784.909 L 14.0451,-785.439
 L 13.6448,-785.923 L 13.1871,-786.353 L 12.6791,-786.722 L 12.1289,-787.024 L 11.5451,-787.255 L 10.9369,-787.411
 L 10.3139,-787.49 L -10.3139,-787.49 L -10.9369,-787.411 L -11.5451,-787.255 L -12.1289,-787.024 L -12.6791,-786.722
 L -13.1871,-786.353 L -13.6448,-785.923 L -14.0451,-785.439 L -14.3815,-784.909 L -14.6489,-784.341 L -14.8429,-783.743
 L -14.9606,-783.127 L -15,-782.5 L -15,-657.5 L -14.9606,-656.873 L -14.8429,-656.257 L -14.6489,-655.659
 L -14.3815,-655.091 L -14.0451,-654.561 L -13.6448,-654.077 L -13.1871,-653.647 L -12.6791,-653.278 L -12.1289,-652.976
 L -11.5451,-652.745 L -10.9369,-652.589 L -10.3139,-652.51 L 10.3139,-652.51 z
M 7.36592,-777.869 L 7.09988,-777.903 L 6.84015,-777.969 L 6.59084,-778.068 L 6.35585,-778.197 L 6.1389,-778.355
 L 5.94344,-778.538 L 5.77251,-778.745 L 5.62881,-778.971 L 5.51465,-779.214 L 5.43178,-779.469 L 5.38153,-779.732
 L 5.3647,-780 L 5.38153,-780.268 L 5.43178,-780.531 L 5.51465,-780.786 L 5.62881,-781.029 L 5.77251,-781.255
 L 5.94344,-781.462 L 6.1389,-781.645 L 6.35585,-781.803 L 6.59084,-781.932 L 6.84015,-782.031 L 7.09988,-782.097
 L 7.36592,-782.131 L 7.63406,-782.131 L 7.9001,-782.097 L 8.15984,-782.031 L 8.40915,-781.932 L 8.64413,-781.803
 L 8.86108,-781.645 L 9.05655,-781.462 L 9.22748,-781.255 L 9.37117,-781.029 L 9.48534,-780.786 L 9.56821,-780.531
 L 9.61845,-780.268 L 9.63528,-780 L 9.61845,-779.732 L 9.56821,-779.469 L 9.48534,-779.214 L 9.37117,-778.971
 L 9.22748,-778.745 L 9.05655,-778.538 L 8.86108,-778.355 L 8.64413,-778.197 L 8.40915,-778.068 L 8.15984,-777.969
 L 7.9001,-777.903 L 7.63406,-777.869 z
M -7.63406,-777.869 L -7.9001,-777.903 L -8.15984,-777.969 L -8.40915,-778.068 L -8.64413,-778.197 L -8.86108,-778.355
 L -9.05655,-778.538 L -9.22748,-778.745 L -9.37117,-778.971 L -9.48534,-779.214 L -9.56821,-779.469 L -9.61845,-779.732
 L -9.63528,-780 L -9.61845,-780.268 L -9.56821,-780.531 L -9.48534,-780.786 L -9.37117,-781.029 L -9.22748,-781.255
 L -9.05655,-781.462 L -8.86108,-781.645 L -8.64413,-781.803 L -8.40915,-781.932 L -8.15984,-782.031 L -7.9001,-782.097
 L -7.63406,-782.131 L -7.36592,-782.131 L -7.09988,-782.097 L -6.84015,-782.031 L -6.59084,-781.932 L -6.35585,-781.803
 L -6.1389,-781.645 L -5.94344,-781.462 L -5.77251,-781.255 L -5.62881,-781.029 L -5.51465,-780.786 L -5.43178,-780.531
 L -5.38153,-780.268 L -5.3647,-780 L -5.38153,-779.732 L -5.43178,-779.469 L -5.51465,-779.214 L -5.62881,-778.971
 L -5.77251,-778.745 L -5.94344,-778.538 L -6.1389,-778.355 L -6.35585,-778.197 L -6.59084,-778.068 L -6.84015,-777.969
 L -7.09988,-777.903 L -7.36592,-777.869 z
M 7.36592,-657.869 L 7.09988,-657.903 L 6.84015,-657.969 L 6.59084,-658.068 L 6.35585,-658.197 L 6.1389,-658.355
 L 5.94344,-658.538 L 5.77251,-658.745 L 5.62881,-658.971 L 5.51465,-659.214 L 5.43178,-659.469 L 5.38153,-659.732
 L 5.3647,-660 L 5.38153,-660.268 L 5.43178,-660.531 L 5.51465,-660.786 L 5.62881,-661.029 L 5.77251,-661.255
 L 5.94344,-661.462 L 6.1389,-661.645 L 6.35585,-661.803 L 6.59084,-661.932 L 6.84015,-662.031 L 7.09988,-662.097
 L 7.36592,-662.131 L 7.63406,-662.131 L 7.9001,-662.097 L 8.15984,-662.031 L 8.40915,-661.932 L 8.64413,-661.803
 L 8.86108,-661.645 L 9.05655,-661.462 L 9.22748,-661.255 L 9.37117,-661.029 L 9.48534,-660.786 L 9.56821,-660.531
 L 9.61845,-660.268 L 9.63528,-660 L 9.61845,-659.732 L 9.56821,-659.469 L 9.48534,-659.214 L 9.37117,-658.971
 L 9.22748,-658.745 L 9.05655,-658.538 L 8.86108,-658.355 L 8.64413,-658.197 L 8.40915,-658.068 L 8.15984,-657.969
 L 7.9001,-657.903 L 7.63406,-657.869 z
M -7.63406,-657.869 L -7.9001,-657.903 L -8.15984,-657.969 L -8.40915,-658.068 L -8.64413,-658.197 L -8.86108,-658.355
 L -9.05655,-658.538 L -9.22748,-658.745 L -9.37117,-658.971 L -9.48534,-659.214 L -9.56821,-659.469 L -9.61845,-659.732
 L -9.63528,-660 L -9.61845,-660.268 L -9.56821,-660.531 L -9.48534,-660.786 L -9.37117,-661.029 L -9.22748,-661.255
 L -9.05655,-661.462 L -8.86108,-661.645 L -8.64413,-661.803 L -8.40915,-661.932 L -8.15984,-662.031 L -7.9001,-662.097
 L -7.63406,-662.131 L -7.36592,-662.131 L -7.09988,-662.097 L -6.84015,-662.031 L -6.59084,-661.932 L -6.35585,-661.803
 L -6.1389,-661.645 L -5.94344,-661.462 L -5.77251,-661.255 L -5.62881,-661.029 L -5.51465,-660.786 L -5.43178,-660.531
 L -5.38153,-660.268 L -5.3647,-660 L -5.38153,-659.732 L -5.43178,-659.469 L -5.51465,-659.214 L -5.62881,-658.971
 L -5.77251,-658.745 L -5.94344,-658.538 L -6.1389,-658.355 L -6.35585,-658.197 L -6.59084,-658.068 L -6.84015,-657.969
 L -7.09988,-657.903 L -7.36592,-657.869 z
" stroke="black" fill="lightgray" stroke-width="0.5"/>
</svg>
