  0
SECTION
  2
BLOCKS
  0
ENDSEC
  0
SECTION
  2
ENTITIES
  0
LINE
  8
0
 10
3.4369
 20
336.089
 11
4.04507
 21
336.245
  0
LINE
  8
0
 10
4.04507
 20
336.245
 11
4.62889
 21
336.476
  0
LINE
  8
0
 10
4.62889
 20
336.476
 11
5.17912
 21
336.778
  0
LINE
  8
0
 10
5.17912
 20
336.778
 11
5.68712
 21
337.147
  0
LINE
  8
0
 10
5.68712
 20
337.147
 11
6.14484
 21
337.577
  0
LINE
  8
0
 10
6.14484
 20
337.577
 11
6.54507
 21
338.061
  0
LINE
  8
0
 10
6.54507
 20
338.061
 11
6.88153
 21
338.591
  0
LINE
  8
0
 10
6.88153
 20
338.591
 11
7.14888
 21
339.159
  0
LINE
  8
0
 10
7.14888
 20
339.159
 11
7.34291
 21
339.757
  0
LINE
  8
0
 10
7.34291
 20
339.757
 11
7.46057
 21
340.373
  0
LINE
  8
0
 10
7.46057
 20
340.373
 11
7.5
 21
341
  0
LINE
  8
0
 10
7.5
 20
341
 11
7.5
 21
361
  0
LINE
  8
0
 10
7.5
 20
361
 11
7.46057
 21
361.627
  0
LINE
  8
0
 10
7.46057
 20
361.627
 11
7.34291
 21
362.243
  0
LINE
  8
0
 10
7.34291
 20
362.243
 11
7.14888
 21
362.841
  0
LINE
  8
0
 10
7.14888
 20
362.841
 11
6.88153
 21
363.409
  0
LINE
  8
0
 10
6.88153
 20
363.409
 11
6.54507
 21
363.939
  0
LINE
  8
0
 10
6.54507
 20
363.939
 11
6.14484
 21
364.423
  0
LINE
  8
0
 10
6.14484
 20
364.423
 11
5.68712
 21
364.853
  0
LINE
  8
0
 10
5.68712
 20
364.853
 11
5.17912
 21
365.222
  0
LINE
  8
0
 10
5.17912
 20
365.222
 11
4.62889
 21
365.524
  0
LINE
  8
0
 10
4.62889
 20
365.524
 11
4.04507
 21
365.755
  0
LINE
  8
0
 10
4.04507
 20
365.755
 11
3.4369
 21
365.911
  0
LINE
  8
0
 10
3.4369
 20
365.911
 11
2.81395
 21
365.99
  0
LINE
  8
0
 10
2.81395
 20
365.99
 11
-2.81395
 21
365.99
  0
LINE
  8
0
 10
-2.81395
 20
365.99
 11
-3.4369
 21
365.911
  0
LINE
  8
0
 10
-3.4369
 20
365.911
 11
-4.04507
 21
365.755
  0
LINE
  8
0
 10
-4.04507
 20
365.755
 11
-4.62889
 21
365.524
  0
LINE
  8
0
 10
-4.62889
 20
365.524
 11
-5.17912
 21
365.222
  0
LINE
  8
0
 10
-5.17912
 20
365.222
 11
-5.68712
 21
364.853
  0
LINE
  8
0
 10
-5.68712
 20
364.853
 11
-6.14484
 21
364.423
  0
LINE
  8
0
 10
-6.14484
 20
364.423
 11
-6.54507
 21
363.939
  0
LINE
  8
0
 10
-6.54507
 20
363.939
 11
-6.88153
 21
363.409
  0
LINE
  8
0
 10
-6.88153
 20
363.409
 11
-7.14888
 21
362.841
  0
LINE
  8
0
 10
-7.14888
 20
362.841
 11
-7.34291
 21
362.243
  0
LINE
  8
0
 10
-7.34291
 20
362.243
 11
-7.46057
 21
361.627
  0
LINE
  8
0
 10
-7.46057
 20
361.627
 11
-7.5
 21
361
  0
LINE
  8
0
 10
-7.5
 20
361
 11
-7.5
 21
341
  0
LINE
  8
0
 10
-7.5
 20
341
 11
-7.46057
 21
340.373
  0
LINE
  8
0
 10
-7.46057
 20
340.373
 11
-7.34291
 21
339.757
  0
LINE
  8
0
 10
-7.34291
 20
339.757
 11
-7.14888
 21
339.159
  0
LINE
  8
0
 10
-7.14888
 20
339.159
 11
-6.88153
 21
338.591
  0
LINE
  8
0
 10
-6.88153
 20
338.591
 11
-6.54507
 21
338.061
  0
LINE
  8
0
 10
-6.54507
 20
338.061
 11
-6.14484
 21
337.577
  0
LINE
  8
0
 10
-6.14484
 20
337.577
 11
-5.68712
 21
337.147
  0
LINE
  8
0
 10
-5.68712
 20
337.147
 11
-5.17912
 21
336.778
  0
LINE
  8
0
 10
-5.17912
 20
336.778
 11
-4.62889
 21
336.476
  0
LINE
  8
0
 10
-4.62889
 20
336.476
 11
-4.04507
 21
336.245
  0
LINE
  8
0
 10
-4.04507
 20
336.245
 11
-3.4369
 21
336.089
  0
LINE
  8
0
 10
-3.4369
 20
336.089
 11
-2.81395
 21
336.01
  0
LINE
  8
0
 10
-2.81395
 20
336.01
 11
2.81395
 21
336.01
  0
LINE
  8
0
 10
2.81395
 20
336.01
 11
3.4369
 21
336.089
  0
LINE
  8
0
 10
-2.25116
 20
337.508
 11
-2.74951
 21
337.571
  0
LINE
  8
0
 10
-2.74951
 20
337.571
 11
-3.23605
 21
337.696
  0
LINE
  8
0
 10
-3.23605
 20
337.696
 11
-3.70311
 21
337.881
  0
LINE
  8
0
 10
-3.70311
 20
337.881
 11
-4.1433
 21
338.123
  0
LINE
  8
0
 10
-4.1433
 20
338.123
 11
-4.54968
 21
338.418
  0
LINE
  8
0
 10
-4.54968
 20
338.418
 11
-4.91586
 21
338.762
  0
LINE
  8
0
 10
-4.91586
 20
338.762
 11
-5.23605
 21
339.149
  0
LINE
  8
0
 10
-5.23605
 20
339.149
 11
-5.50522
 21
339.573
  0
LINE
  8
0
 10
-5.50522
 20
339.573
 11
-5.7191
 21
340.028
  0
LINE
  8
0
 10
-5.7191
 20
340.028
 11
-5.87433
 21
340.505
  0
LINE
  8
0
 10
-5.87433
 20
340.505
 11
-5.96844
 21
340.999
  0
LINE
  8
0
 10
-5.96844
 20
340.999
 11
-6
 21
341.5
  0
LINE
  8
0
 10
-6
 20
341.5
 11
-6
 21
360.5
  0
LINE
  8
0
 10
-6
 20
360.5
 11
-5.96844
 21
361.001
  0
LINE
  8
0
 10
-5.96844
 20
361.001
 11
-5.87433
 21
361.495
  0
LINE
  8
0
 10
-5.87433
 20
361.495
 11
-5.7191
 21
361.972
  0
LINE
  8
0
 10
-5.7191
 20
361.972
 11
-5.50522
 21
362.427
  0
LINE
  8
0
 10
-5.50522
 20
362.427
 11
-5.23605
 21
362.851
  0
LINE
  8
0
 10
-5.23605
 20
362.851
 11
-4.91586
 21
363.238
  0
LINE
  8
0
 10
-4.91586
 20
363.238
 11
-4.54968
 21
363.582
  0
LINE
  8
0
 10
-4.54968
 20
363.582
 11
-4.1433
 21
363.877
  0
LINE
  8
0
 10
-4.1433
 20
363.877
 11
-3.70311
 21
364.119
  0
LINE
  8
0
 10
-3.70311
 20
364.119
 11
-3.23605
 21
364.304
  0
LINE
  8
0
 10
-3.23605
 20
364.304
 11
-2.74951
 21
364.429
  0
LINE
  8
0
 10
-2.74951
 20
364.429
 11
-2.25116
 21
364.492
  0
LINE
  8
0
 10
-2.25116
 20
364.492
 11
2.25116
 21
364.492
  0
LINE
  8
0
 10
2.25116
 20
364.492
 11
2.74951
 21
364.429
  0
LINE
  8
0
 10
2.74951
 20
364.429
 11
3.23605
 21
364.304
  0
LINE
  8
0
 10
3.23605
 20
364.304
 11
3.70311
 21
364.119
  0
LINE
  8
0
 10
3.70311
 20
364.119
 11
4.1433
 21
363.877
  0
LINE
  8
0
 10
4.1433
 20
363.877
 11
4.54968
 21
363.582
  0
LINE
  8
0
 10
4.54968
 20
363.582
 11
4.91586
 21
363.238
  0
LINE
  8
0
 10
4.91586
 20
363.238
 11
5.23605
 21
362.851
  0
LINE
  8
0
 10
5.23605
 20
362.851
 11
5.50522
 21
362.427
  0
LINE
  8
0
 10
5.50522
 20
362.427
 11
5.7191
 21
361.972
  0
LINE
  8
0
 10
5.7191
 20
361.972
 11
5.87433
 21
361.495
  0
LINE
  8
0
 10
5.87433
 20
361.495
 11
5.96844
 21
361.001
  0
LINE
  8
0
 10
5.96844
 20
361.001
 11
6
 21
360.5
  0
LINE
  8
0
 10
6
 20
360.5
 11
6
 21
341.5
  0
LINE
  8
0
 10
6
 20
341.5
 11
5.96844
 21
340.999
  0
LINE
  8
0
 10
5.96844
 20
340.999
 11
5.87433
 21
340.505
  0
LINE
  8
0
 10
5.87433
 20
340.505
 11
5.7191
 21
340.028
  0
LINE
  8
0
 10
5.7191
 20
340.028
 11
5.50522
 21
339.573
  0
LINE
  8
0
 10
5.50522
 20
339.573
 11
5.23605
 21
339.149
  0
LINE
  8
0
 10
5.23605
 20
339.149
 11
4.91586
 21
338.762
  0
LINE
  8
0
 10
4.91586
 20
338.762
 11
4.54968
 21
338.418
  0
LINE
  8
0
 10
4.54968
 20
338.418
 11
4.1433
 21
338.123
  0
LINE
  8
0
 10
4.1433
 20
338.123
 11
3.70311
 21
337.881
  0
LINE
  8
0
 10
3.70311
 20
337.881
 11
3.23605
 21
337.696
  0
LINE
  8
0
 10
3.23605
 20
337.696
 11
2.74951
 21
337.571
  0
LINE
  8
0
 10
2.74951
 20
337.571
 11
2.25116
 21
337.508
  0
LINE
  8
0
 10
2.25116
 20
337.508
 11
-2.25116
 21
337.508
  0
LINE
  8
0
 10
3.4369
 20
297.089
 11
4.04507
 21
297.245
  0
LINE
  8
0
 10
4.04507
 20
297.245
 11
4.62889
 21
297.476
  0
LINE
  8
0
 10
4.62889
 20
297.476
 11
5.17912
 21
297.778
  0
LINE
  8
0
 10
5.17912
 20
297.778
 11
5.68712
 21
298.147
  0
LINE
  8
0
 10
5.68712
 20
298.147
 11
6.14484
 21
298.577
  0
LINE
  8
0
 10
6.14484
 20
298.577
 11
6.54507
 21
299.061
  0
LINE
  8
0
 10
6.54507
 20
299.061
 11
6.88153
 21
299.591
  0
LINE
  8
0
 10
6.88153
 20
299.591
 11
7.14888
 21
300.159
  0
LINE
  8
0
 10
7.14888
 20
300.159
 11
7.34291
 21
300.757
  0
LINE
  8
0
 10
7.34291
 20
300.757
 11
7.46057
 21
301.373
  0
LINE
  8
0
 10
7.46057
 20
301.373
 11
7.5
 21
302
  0
LINE
  8
0
 10
7.5
 20
302
 11
7.5
 21
322
  0
LINE
  8
0
 10
7.5
 20
322
 11
7.46057
 21
322.627
  0
LINE
  8
0
 10
7.46057
 20
322.627
 11
7.34291
 21
323.243
  0
LINE
  8
0
 10
7.34291
 20
323.243
 11
7.14888
 21
323.841
  0
LINE
  8
0
 10
7.14888
 20
323.841
 11
6.88153
 21
324.409
  0
LINE
  8
0
 10
6.88153
 20
324.409
 11
6.54507
 21
324.939
  0
LINE
  8
0
 10
6.54507
 20
324.939
 11
6.14484
 21
325.423
  0
LINE
  8
0
 10
6.14484
 20
325.423
 11
5.68712
 21
325.853
  0
LINE
  8
0
 10
5.68712
 20
325.853
 11
5.17912
 21
326.222
  0
LINE
  8
0
 10
5.17912
 20
326.222
 11
4.62889
 21
326.524
  0
LINE
  8
0
 10
4.62889
 20
326.524
 11
4.04507
 21
326.755
  0
LINE
  8
0
 10
4.04507
 20
326.755
 11
3.4369
 21
326.911
  0
LINE
  8
0
 10
3.4369
 20
326.911
 11
2.81395
 21
326.99
  0
LINE
  8
0
 10
2.81395
 20
326.99
 11
-2.81395
 21
326.99
  0
LINE
  8
0
 10
-2.81395
 20
326.99
 11
-3.4369
 21
326.911
  0
LINE
  8
0
 10
-3.4369
 20
326.911
 11
-4.04507
 21
326.755
  0
LINE
  8
0
 10
-4.04507
 20
326.755
 11
-4.62889
 21
326.524
  0
LINE
  8
0
 10
-4.62889
 20
326.524
 11
-5.17912
 21
326.222
  0
LINE
  8
0
 10
-5.17912
 20
326.222
 11
-5.68712
 21
325.853
  0
LINE
  8
0
 10
-5.68712
 20
325.853
 11
-6.14484
 21
325.423
  0
LINE
  8
0
 10
-6.14484
 20
325.423
 11
-6.54507
 21
324.939
  0
LINE
  8
0
 10
-6.54507
 20
324.939
 11
-6.88153
 21
324.409
  0
LINE
  8
0
 10
-6.88153
 20
324.409
 11
-7.14888
 21
323.841
  0
LINE
  8
0
 10
-7.14888
 20
323.841
 11
-7.34291
 21
323.243
  0
LINE
  8
0
 10
-7.34291
 20
323.243
 11
-7.46057
 21
322.627
  0
LINE
  8
0
 10
-7.46057
 20
322.627
 11
-7.5
 21
322
  0
LINE
  8
0
 10
-7.5
 20
322
 11
-7.5
 21
302
  0
LINE
  8
0
 10
-7.5
 20
302
 11
-7.46057
 21
301.373
  0
LINE
  8
0
 10
-7.46057
 20
301.373
 11
-7.34291
 21
300.757
  0
LINE
  8
0
 10
-7.34291
 20
300.757
 11
-7.14888
 21
300.159
  0
LINE
  8
0
 10
-7.14888
 20
300.159
 11
-6.88153
 21
299.591
  0
LINE
  8
0
 10
-6.88153
 20
299.591
 11
-6.54507
 21
299.061
  0
LINE
  8
0
 10
-6.54507
 20
299.061
 11
-6.14484
 21
298.577
  0
LINE
  8
0
 10
-6.14484
 20
298.577
 11
-5.68712
 21
298.147
  0
LINE
  8
0
 10
-5.68712
 20
298.147
 11
-5.17912
 21
297.778
  0
LINE
  8
0
 10
-5.17912
 20
297.778
 11
-4.62889
 21
297.476
  0
LINE
  8
0
 10
-4.62889
 20
297.476
 11
-4.04507
 21
297.245
  0
LINE
  8
0
 10
-4.04507
 20
297.245
 11
-3.4369
 21
297.089
  0
LINE
  8
0
 10
-3.4369
 20
297.089
 11
-2.81395
 21
297.01
  0
LINE
  8
0
 10
-2.81395
 20
297.01
 11
2.81395
 21
297.01
  0
LINE
  8
0
 10
2.81395
 20
297.01
 11
3.4369
 21
297.089
  0
LINE
  8
0
 10
-2.25116
 20
298.508
 11
-2.74951
 21
298.571
  0
LINE
  8
0
 10
-2.74951
 20
298.571
 11
-3.23605
 21
298.696
  0
LINE
  8
0
 10
-3.23605
 20
298.696
 11
-3.70311
 21
298.881
  0
LINE
  8
0
 10
-3.70311
 20
298.881
 11
-4.1433
 21
299.123
  0
LINE
  8
0
 10
-4.1433
 20
299.123
 11
-4.54968
 21
299.418
  0
LINE
  8
0
 10
-4.54968
 20
299.418
 11
-4.91586
 21
299.762
  0
LINE
  8
0
 10
-4.91586
 20
299.762
 11
-5.23605
 21
300.149
  0
LINE
  8
0
 10
-5.23605
 20
300.149
 11
-5.50522
 21
300.573
  0
LINE
  8
0
 10
-5.50522
 20
300.573
 11
-5.7191
 21
301.028
  0
LINE
  8
0
 10
-5.7191
 20
301.028
 11
-5.87433
 21
301.505
  0
LINE
  8
0
 10
-5.87433
 20
301.505
 11
-5.96844
 21
301.999
  0
LINE
  8
0
 10
-5.96844
 20
301.999
 11
-6
 21
302.5
  0
LINE
  8
0
 10
-6
 20
302.5
 11
-6
 21
321.5
  0
LINE
  8
0
 10
-6
 20
321.5
 11
-5.96844
 21
322.001
  0
LINE
  8
0
 10
-5.96844
 20
322.001
 11
-5.87433
 21
322.495
  0
LINE
  8
0
 10
-5.87433
 20
322.495
 11
-5.7191
 21
322.972
  0
LINE
  8
0
 10
-5.7191
 20
322.972
 11
-5.50522
 21
323.427
  0
LINE
  8
0
 10
-5.50522
 20
323.427
 11
-5.23605
 21
323.851
  0
LINE
  8
0
 10
-5.23605
 20
323.851
 11
-4.91586
 21
324.238
  0
LINE
  8
0
 10
-4.91586
 20
324.238
 11
-4.54968
 21
324.582
  0
LINE
  8
0
 10
-4.54968
 20
324.582
 11
-4.1433
 21
324.877
  0
LINE
  8
0
 10
-4.1433
 20
324.877
 11
-3.70311
 21
325.119
  0
LINE
  8
0
 10
-3.70311
 20
325.119
 11
-3.23605
 21
325.304
  0
LINE
  8
0
 10
-3.23605
 20
325.304
 11
-2.74951
 21
325.429
  0
LINE
  8
0
 10
-2.74951
 20
325.429
 11
-2.25116
 21
325.492
  0
LINE
  8
0
 10
-2.25116
 20
325.492
 11
2.25116
 21
325.492
  0
LINE
  8
0
 10
2.25116
 20
325.492
 11
2.74951
 21
325.429
  0
LINE
  8
0
 10
2.74951
 20
325.429
 11
3.23605
 21
325.304
  0
LINE
  8
0
 10
3.23605
 20
325.304
 11
3.70311
 21
325.119
  0
LINE
  8
0
 10
3.70311
 20
325.119
 11
4.1433
 21
324.877
  0
LINE
  8
0
 10
4.1433
 20
324.877
 11
4.54968
 21
324.582
  0
LINE
  8
0
 10
4.54968
 20
324.582
 11
4.91586
 21
324.238
  0
LINE
  8
0
 10
4.91586
 20
324.238
 11
5.23605
 21
323.851
  0
LINE
  8
0
 10
5.23605
 20
323.851
 11
5.50522
 21
323.427
  0
LINE
  8
0
 10
5.50522
 20
323.427
 11
5.7191
 21
322.972
  0
LINE
  8
0
 10
5.7191
 20
322.972
 11
5.87433
 21
322.495
  0
LINE
  8
0
 10
5.87433
 20
322.495
 11
5.96844
 21
322.001
  0
LINE
  8
0
 10
5.96844
 20
322.001
 11
6
 21
321.5
  0
LINE
  8
0
 10
6
 20
321.5
 11
6
 21
302.5
  0
LINE
  8
0
 10
6
 20
302.5
 11
5.96844
 21
301.999
  0
LINE
  8
0
 10
5.96844
 20
301.999
 11
5.87433
 21
301.505
  0
LINE
  8
0
 10
5.87433
 20
301.505
 11
5.7191
 21
301.028
  0
LINE
  8
0
 10
5.7191
 20
301.028
 11
5.50522
 21
300.573
  0
LINE
  8
0
 10
5.50522
 20
300.573
 11
5.23605
 21
300.149
  0
LINE
  8
0
 10
5.23605
 20
300.149
 11
4.91586
 21
299.762
  0
LINE
  8
0
 10
4.91586
 20
299.762
 11
4.54968
 21
299.418
  0
LINE
  8
0
 10
4.54968
 20
299.418
 11
4.1433
 21
299.123
  0
LINE
  8
0
 10
4.1433
 20
299.123
 11
3.70311
 21
298.881
  0
LINE
  8
0
 10
3.70311
 20
298.881
 11
3.23605
 21
298.696
  0
LINE
  8
0
 10
3.23605
 20
298.696
 11
2.74951
 21
298.571
  0
LINE
  8
0
 10
2.74951
 20
298.571
 11
2.25116
 21
298.508
  0
LINE
  8
0
 10
2.25116
 20
298.508
 11
-2.25116
 21
298.508
  0
LINE
  8
0
 10
3.4369
 20
258.089
 11
4.04507
 21
258.245
  0
LINE
  8
0
 10
4.04507
 20
258.245
 11
4.62889
 21
258.476
  0
LINE
  8
0
 10
4.62889
 20
258.476
 11
5.17912
 21
258.778
  0
LINE
  8
0
 10
5.17912
 20
258.778
 11
5.68712
 21
259.147
  0
LINE
  8
0
 10
5.68712
 20
259.147
 11
6.14484
 21
259.577
  0
LINE
  8
0
 10
6.14484
 20
259.577
 11
6.54507
 21
260.061
  0
LINE
  8
0
 10
6.54507
 20
260.061
 11
6.88153
 21
260.591
  0
LINE
  8
0
 10
6.88153
 20
260.591
 11
7.14888
 21
261.159
  0
LINE
  8
0
 10
7.14888
 20
261.159
 11
7.34291
 21
261.757
  0
LINE
  8
0
 10
7.34291
 20
261.757
 11
7.46057
 21
262.373
  0
LINE
  8
0
 10
7.46057
 20
262.373
 11
7.5
 21
263
  0
LINE
  8
0
 10
7.5
 20
263
 11
7.5
 21
283
  0
LINE
  8
0
 10
7.5
 20
283
 11
7.46057
 21
283.627
  0
LINE
  8
0
 10
7.46057
 20
283.627
 11
7.34291
 21
284.243
  0
LINE
  8
0
 10
7.34291
 20
284.243
 11
7.14888
 21
284.841
  0
LINE
  8
0
 10
7.14888
 20
284.841
 11
6.88153
 21
285.409
  0
LINE
  8
0
 10
6.88153
 20
285.409
 11
6.54507
 21
285.939
  0
LINE
  8
0
 10
6.54507
 20
285.939
 11
6.14484
 21
286.423
  0
LINE
  8
0
 10
6.14484
 20
286.423
 11
5.68712
 21
286.853
  0
LINE
  8
0
 10
5.68712
 20
286.853
 11
5.17912
 21
287.222
  0
LINE
  8
0
 10
5.17912
 20
287.222
 11
4.62889
 21
287.524
  0
LINE
  8
0
 10
4.62889
 20
287.524
 11
4.04507
 21
287.755
  0
LINE
  8
0
 10
4.04507
 20
287.755
 11
3.4369
 21
287.911
  0
LINE
  8
0
 10
3.4369
 20
287.911
 11
2.81395
 21
287.99
  0
LINE
  8
0
 10
2.81395
 20
287.99
 11
-2.81395
 21
287.99
  0
LINE
  8
0
 10
-2.81395
 20
287.99
 11
-3.4369
 21
287.911
  0
LINE
  8
0
 10
-3.4369
 20
287.911
 11
-4.04507
 21
287.755
  0
LINE
  8
0
 10
-4.04507
 20
287.755
 11
-4.62889
 21
287.524
  0
LINE
  8
0
 10
-4.62889
 20
287.524
 11
-5.17912
 21
287.222
  0
LINE
  8
0
 10
-5.17912
 20
287.222
 11
-5.68712
 21
286.853
  0
LINE
  8
0
 10
-5.68712
 20
286.853
 11
-6.14484
 21
286.423
  0
LINE
  8
0
 10
-6.14484
 20
286.423
 11
-6.54507
 21
285.939
  0
LINE
  8
0
 10
-6.54507
 20
285.939
 11
-6.88153
 21
285.409
  0
LINE
  8
0
 10
-6.88153
 20
285.409
 11
-7.14888
 21
284.841
  0
LINE
  8
0
 10
-7.14888
 20
284.841
 11
-7.34291
 21
284.243
  0
LINE
  8
0
 10
-7.34291
 20
284.243
 11
-7.46057
 21
283.627
  0
LINE
  8
0
 10
-7.46057
 20
283.627
 11
-7.5
 21
283
  0
LINE
  8
0
 10
-7.5
 20
283
 11
-7.5
 21
263
  0
LINE
  8
0
 10
-7.5
 20
263
 11
-7.46057
 21
262.373
  0
LINE
  8
0
 10
-7.46057
 20
262.373
 11
-7.34291
 21
261.757
  0
LINE
  8
0
 10
-7.34291
 20
261.757
 11
-7.14888
 21
261.159
  0
LINE
  8
0
 10
-7.14888
 20
261.159
 11
-6.88153
 21
260.591
  0
LINE
  8
0
 10
-6.88153
 20
260.591
 11
-6.54507
 21
260.061
  0
LINE
  8
0
 10
-6.54507
 20
260.061
 11
-6.14484
 21
259.577
  0
LINE
  8
0
 10
-6.14484
 20
259.577
 11
-5.68712
 21
259.147
  0
LINE
  8
0
 10
-5.68712
 20
259.147
 11
-5.17912
 21
258.778
  0
LINE
  8
0
 10
-5.17912
 20
258.778
 11
-4.62889
 21
258.476
  0
LINE
  8
0
 10
-4.62889
 20
258.476
 11
-4.04507
 21
258.245
  0
LINE
  8
0
 10
-4.04507
 20
258.245
 11
-3.4369
 21
258.089
  0
LINE
  8
0
 10
-3.4369
 20
258.089
 11
-2.81395
 21
258.01
  0
LINE
  8
0
 10
-2.81395
 20
258.01
 11
2.81395
 21
258.01
  0
LINE
  8
0
 10
2.81395
 20
258.01
 11
3.4369
 21
258.089
  0
LINE
  8
0
 10
-2.25116
 20
259.508
 11
-2.74951
 21
259.571
  0
LINE
  8
0
 10
-2.74951
 20
259.571
 11
-3.23605
 21
259.696
  0
LINE
  8
0
 10
-3.23605
 20
259.696
 11
-3.70311
 21
259.881
  0
LINE
  8
0
 10
-3.70311
 20
259.881
 11
-4.1433
 21
260.123
  0
LINE
  8
0
 10
-4.1433
 20
260.123
 11
-4.54968
 21
260.418
  0
LINE
  8
0
 10
-4.54968
 20
260.418
 11
-4.91586
 21
260.762
  0
LINE
  8
0
 10
-4.91586
 20
260.762
 11
-5.23605
 21
261.149
  0
LINE
  8
0
 10
-5.23605
 20
261.149
 11
-5.50522
 21
261.573
  0
LINE
  8
0
 10
-5.50522
 20
261.573
 11
-5.7191
 21
262.028
  0
LINE
  8
0
 10
-5.7191
 20
262.028
 11
-5.87433
 21
262.505
  0
LINE
  8
0
 10
-5.87433
 20
262.505
 11
-5.96844
 21
262.999
  0
LINE
  8
0
 10
-5.96844
 20
262.999
 11
-6
 21
263.5
  0
LINE
  8
0
 10
-6
 20
263.5
 11
-6
 21
282.5
  0
LINE
  8
0
 10
-6
 20
282.5
 11
-5.96844
 21
283.001
  0
LINE
  8
0
 10
-5.96844
 20
283.001
 11
-5.87433
 21
283.495
  0
LINE
  8
0
 10
-5.87433
 20
283.495
 11
-5.7191
 21
283.972
  0
LINE
  8
0
 10
-5.7191
 20
283.972
 11
-5.50522
 21
284.427
  0
LINE
  8
0
 10
-5.50522
 20
284.427
 11
-5.23605
 21
284.851
  0
LINE
  8
0
 10
-5.23605
 20
284.851
 11
-4.91586
 21
285.238
  0
LINE
  8
0
 10
-4.91586
 20
285.238
 11
-4.54968
 21
285.582
  0
LINE
  8
0
 10
-4.54968
 20
285.582
 11
-4.1433
 21
285.877
  0
LINE
  8
0
 10
-4.1433
 20
285.877
 11
-3.70311
 21
286.119
  0
LINE
  8
0
 10
-3.70311
 20
286.119
 11
-3.23605
 21
286.304
  0
LINE
  8
0
 10
-3.23605
 20
286.304
 11
-2.74951
 21
286.429
  0
LINE
  8
0
 10
-2.74951
 20
286.429
 11
-2.25116
 21
286.492
  0
LINE
  8
0
 10
-2.25116
 20
286.492
 11
2.25116
 21
286.492
  0
LINE
  8
0
 10
2.25116
 20
286.492
 11
2.74951
 21
286.429
  0
LINE
  8
0
 10
2.74951
 20
286.429
 11
3.23605
 21
286.304
  0
LINE
  8
0
 10
3.23605
 20
286.304
 11
3.70311
 21
286.119
  0
LINE
  8
0
 10
3.70311
 20
286.119
 11
4.1433
 21
285.877
  0
LINE
  8
0
 10
4.1433
 20
285.877
 11
4.54968
 21
285.582
  0
LINE
  8
0
 10
4.54968
 20
285.582
 11
4.91586
 21
285.238
  0
LINE
  8
0
 10
4.91586
 20
285.238
 11
5.23605
 21
284.851
  0
LINE
  8
0
 10
5.23605
 20
284.851
 11
5.50522
 21
284.427
  0
LINE
  8
0
 10
5.50522
 20
284.427
 11
5.7191
 21
283.972
  0
LINE
  8
0
 10
5.7191
 20
283.972
 11
5.87433
 21
283.495
  0
LINE
  8
0
 10
5.87433
 20
283.495
 11
5.96844
 21
283.001
  0
LINE
  8
0
 10
5.96844
 20
283.001
 11
6
 21
282.5
  0
LINE
  8
0
 10
6
 20
282.5
 11
6
 21
263.5
  0
LINE
  8
0
 10
6
 20
263.5
 11
5.96844
 21
262.999
  0
LINE
  8
0
 10
5.96844
 20
262.999
 11
5.87433
 21
262.505
  0
LINE
  8
0
 10
5.87433
 20
262.505
 11
5.7191
 21
262.028
  0
LINE
  8
0
 10
5.7191
 20
262.028
 11
5.50522
 21
261.573
  0
LINE
  8
0
 10
5.50522
 20
261.573
 11
5.23605
 21
261.149
  0
LINE
  8
0
 10
5.23605
 20
261.149
 11
4.91586
 21
260.762
  0
LINE
  8
0
 10
4.91586
 20
260.762
 11
4.54968
 21
260.418
  0
LINE
  8
0
 10
4.54968
 20
260.418
 11
4.1433
 21
260.123
  0
LINE
  8
0
 10
4.1433
 20
260.123
 11
3.70311
 21
259.881
  0
LINE
  8
0
 10
3.70311
 20
259.881
 11
3.23605
 21
259.696
  0
LINE
  8
0
 10
3.23605
 20
259.696
 11
2.74951
 21
259.571
  0
LINE
  8
0
 10
2.74951
 20
259.571
 11
2.25116
 21
259.508
  0
LINE
  8
0
 10
2.25116
 20
259.508
 11
-2.25116
 21
259.508
  0
LINE
  8
0
 10
3.4369
 20
219.089
 11
4.04507
 21
219.245
  0
LINE
  8
0
 10
4.04507
 20
219.245
 11
4.62889
 21
219.476
  0
LINE
  8
0
 10
4.62889
 20
219.476
 11
5.17912
 21
219.778
  0
LINE
  8
0
 10
5.17912
 20
219.778
 11
5.68712
 21
220.147
  0
LINE
  8
0
 10
5.68712
 20
220.147
 11
6.14484
 21
220.577
  0
LINE
  8
0
 10
6.14484
 20
220.577
 11
6.54507
 21
221.061
  0
LINE
  8
0
 10
6.54507
 20
221.061
 11
6.88153
 21
221.591
  0
LINE
  8
0
 10
6.88153
 20
221.591
 11
7.14888
 21
222.159
  0
LINE
  8
0
 10
7.14888
 20
222.159
 11
7.34291
 21
222.757
  0
LINE
  8
0
 10
7.34291
 20
222.757
 11
7.46057
 21
223.373
  0
LINE
  8
0
 10
7.46057
 20
223.373
 11
7.5
 21
224
  0
LINE
  8
0
 10
7.5
 20
224
 11
7.5
 21
244
  0
LINE
  8
0
 10
7.5
 20
244
 11
7.46057
 21
244.627
  0
LINE
  8
0
 10
7.46057
 20
244.627
 11
7.34291
 21
245.243
  0
LINE
  8
0
 10
7.34291
 20
245.243
 11
7.14888
 21
245.841
  0
LINE
  8
0
 10
7.14888
 20
245.841
 11
6.88153
 21
246.409
  0
LINE
  8
0
 10
6.88153
 20
246.409
 11
6.54507
 21
246.939
  0
LINE
  8
0
 10
6.54507
 20
246.939
 11
6.14484
 21
247.423
  0
LINE
  8
0
 10
6.14484
 20
247.423
 11
5.68712
 21
247.853
  0
LINE
  8
0
 10
5.68712
 20
247.853
 11
5.17912
 21
248.222
  0
LINE
  8
0
 10
5.17912
 20
248.222
 11
4.62889
 21
248.524
  0
LINE
  8
0
 10
4.62889
 20
248.524
 11
4.04507
 21
248.755
  0
LINE
  8
0
 10
4.04507
 20
248.755
 11
3.4369
 21
248.911
  0
LINE
  8
0
 10
3.4369
 20
248.911
 11
2.81395
 21
248.99
  0
LINE
  8
0
 10
2.81395
 20
248.99
 11
-2.81395
 21
248.99
  0
LINE
  8
0
 10
-2.81395
 20
248.99
 11
-3.4369
 21
248.911
  0
LINE
  8
0
 10
-3.4369
 20
248.911
 11
-4.04507
 21
248.755
  0
LINE
  8
0
 10
-4.04507
 20
248.755
 11
-4.62889
 21
248.524
  0
LINE
  8
0
 10
-4.62889
 20
248.524
 11
-5.17912
 21
248.222
  0
LINE
  8
0
 10
-5.17912
 20
248.222
 11
-5.68712
 21
247.853
  0
LINE
  8
0
 10
-5.68712
 20
247.853
 11
-6.14484
 21
247.423
  0
LINE
  8
0
 10
-6.14484
 20
247.423
 11
-6.54507
 21
246.939
  0
LINE
  8
0
 10
-6.54507
 20
246.939
 11
-6.88153
 21
246.409
  0
LINE
  8
0
 10
-6.88153
 20
246.409
 11
-7.14888
 21
245.841
  0
LINE
  8
0
 10
-7.14888
 20
245.841
 11
-7.34291
 21
245.243
  0
LINE
  8
0
 10
-7.34291
 20
245.243
 11
-7.46057
 21
244.627
  0
LINE
  8
0
 10
-7.46057
 20
244.627
 11
-7.5
 21
244
  0
LINE
  8
0
 10
-7.5
 20
244
 11
-7.5
 21
224
  0
LINE
  8
0
 10
-7.5
 20
224
 11
-7.46057
 21
223.373
  0
LINE
  8
0
 10
-7.46057
 20
223.373
 11
-7.34291
 21
222.757
  0
LINE
  8
0
 10
-7.34291
 20
222.757
 11
-7.14888
 21
222.159
  0
LINE
  8
0
 10
-7.14888
 20
222.159
 11
-6.88153
 21
221.591
  0
LINE
  8
0
 10
-6.88153
 20
221.591
 11
-6.54507
 21
221.061
  0
LINE
  8
0
 10
-6.54507
 20
221.061
 11
-6.14484
 21
220.577
  0
LINE
  8
0
 10
-6.14484
 20
220.577
 11
-5.68712
 21
220.147
  0
LINE
  8
0
 10
-5.68712
 20
220.147
 11
-5.17912
 21
219.778
  0
LINE
  8
0
 10
-5.17912
 20
219.778
 11
-4.62889
 21
219.476
  0
LINE
  8
0
 10
-4.62889
 20
219.476
 11
-4.04507
 21
219.245
  0
LINE
  8
0
 10
-4.04507
 20
219.245
 11
-3.4369
 21
219.089
  0
LINE
  8
0
 10
-3.4369
 20
219.089
 11
-2.81395
 21
219.01
  0
LINE
  8
0
 10
-2.81395
 20
219.01
 11
2.81395
 21
219.01
  0
LINE
  8
0
 10
2.81395
 20
219.01
 11
3.4369
 21
219.089
  0
LINE
  8
0
 10
-2.19545
 20
221.393
 11
-2.5833
 21
221.442
  0
LINE
  8
0
 10
-2.5833
 20
221.442
 11
-2.96194
 21
221.539
  0
LINE
  8
0
 10
-2.96194
 20
221.539
 11
-3.32541
 21
221.683
  0
LINE
  8
0
 10
-3.32541
 20
221.683
 11
-3.66798
 21
221.872
  0
LINE
  8
0
 10
-3.66798
 20
221.872
 11
-3.98424
 21
222.101
  0
LINE
  8
0
 10
-3.98424
 20
222.101
 11
-4.26921
 21
222.369
  0
LINE
  8
0
 10
-4.26921
 20
222.369
 11
-4.5184
 21
222.67
  0
LINE
  8
0
 10
-4.5184
 20
222.67
 11
-4.72786
 21
223
  0
LINE
  8
0
 10
-4.72786
 20
223
 11
-4.89432
 21
223.354
  0
LINE
  8
0
 10
-4.89432
 20
223.354
 11
-5.01512
 21
223.726
  0
LINE
  8
0
 10
-5.01512
 20
223.726
 11
-5.08836
 21
224.11
  0
LINE
  8
0
 10
-5.08836
 20
224.11
 11
-5.11292
 21
224.5
  0
LINE
  8
0
 10
-5.11292
 20
224.5
 11
-5.11292
 21
243.5
  0
LINE
  8
0
 10
-5.11292
 20
243.5
 11
-5.08836
 21
243.89
  0
LINE
  8
0
 10
-5.08836
 20
243.89
 11
-5.01512
 21
244.274
  0
LINE
  8
0
 10
-5.01512
 20
244.274
 11
-4.89432
 21
244.646
  0
LINE
  8
0
 10
-4.89432
 20
244.646
 11
-4.72786
 21
245
  0
LINE
  8
0
 10
-4.72786
 20
245
 11
-4.5184
 21
245.33
  0
LINE
  8
0
 10
-4.5184
 20
245.33
 11
-4.26921
 21
245.631
  0
LINE
  8
0
 10
-4.26921
 20
245.631
 11
-3.98424
 21
245.899
  0
LINE
  8
0
 10
-3.98424
 20
245.899
 11
-3.66798
 21
246.128
  0
LINE
  8
0
 10
-3.66798
 20
246.128
 11
-3.32541
 21
246.317
  0
LINE
  8
0
 10
-3.32541
 20
246.317
 11
-2.96194
 21
246.461
  0
LINE
  8
0
 10
-2.96194
 20
246.461
 11
-2.5833
 21
246.558
  0
LINE
  8
0
 10
-2.5833
 20
246.558
 11
-2.19545
 21
246.607
  0
LINE
  8
0
 10
-2.19545
 20
246.607
 11
2.19545
 21
246.607
  0
LINE
  8
0
 10
2.19545
 20
246.607
 11
2.5833
 21
246.558
  0
LINE
  8
0
 10
2.5833
 20
246.558
 11
2.96194
 21
246.461
  0
LINE
  8
0
 10
2.96194
 20
246.461
 11
3.32541
 21
246.317
  0
LINE
  8
0
 10
3.32541
 20
246.317
 11
3.66798
 21
246.128
  0
LINE
  8
0
 10
3.66798
 20
246.128
 11
3.98424
 21
245.899
  0
LINE
  8
0
 10
3.98424
 20
245.899
 11
4.26921
 21
245.631
  0
LINE
  8
0
 10
4.26921
 20
245.631
 11
4.5184
 21
245.33
  0
LINE
  8
0
 10
4.5184
 20
245.33
 11
4.72786
 21
245
  0
LINE
  8
0
 10
4.72786
 20
245
 11
4.89432
 21
244.646
  0
LINE
  8
0
 10
4.89432
 20
244.646
 11
5.01512
 21
244.274
  0
LINE
  8
0
 10
5.01512
 20
244.274
 11
5.08836
 21
243.89
  0
LINE
  8
0
 10
5.08836
 20
243.89
 11
5.11292
 21
243.5
  0
LINE
  8
0
 10
5.11292
 20
243.5
 11
5.11292
 21
224.5
  0
LINE
  8
0
 10
5.11292
 20
224.5
 11
5.08836
 21
224.11
  0
LINE
  8
0
 10
5.08836
 20
224.11
 11
5.01512
 21
223.726
  0
LINE
  8
0
 10
5.01512
 20
223.726
 11
4.89432
 21
223.354
  0
LINE
  8
0
 10
4.89432
 20
223.354
 11
4.72786
 21
223
  0
LINE
  8
0
 10
4.72786
 20
223
 11
4.5184
 21
222.67
  0
LINE
  8
0
 10
4.5184
 20
222.67
 11
4.26921
 21
222.369
  0
LINE
  8
0
 10
4.26921
 20
222.369
 11
3.98424
 21
222.101
  0
LINE
  8
0
 10
3.98424
 20
222.101
 11
3.66798
 21
221.872
  0
LINE
  8
0
 10
3.66798
 20
221.872
 11
3.32541
 21
221.683
  0
LINE
  8
0
 10
3.32541
 20
221.683
 11
2.96194
 21
221.539
  0
LINE
  8
0
 10
2.96194
 20
221.539
 11
2.5833
 21
221.442
  0
LINE
  8
0
 10
2.5833
 20
221.442
 11
2.19545
 21
221.393
  0
LINE
  8
0
 10
2.19545
 20
221.393
 11
-2.19545
 21
221.393
  0
LINE
  8
0
 10
3.4369
 20
180.089
 11
4.04507
 21
180.245
  0
LINE
  8
0
 10
4.04507
 20
180.245
 11
4.62889
 21
180.476
  0
LINE
  8
0
 10
4.62889
 20
180.476
 11
5.17912
 21
180.778
  0
LINE
  8
0
 10
5.17912
 20
180.778
 11
5.68712
 21
181.147
  0
LINE
  8
0
 10
5.68712
 20
181.147
 11
6.14484
 21
181.577
  0
LINE
  8
0
 10
6.14484
 20
181.577
 11
6.54507
 21
182.061
  0
LINE
  8
0
 10
6.54507
 20
182.061
 11
6.88153
 21
182.591
  0
LINE
  8
0
 10
6.88153
 20
182.591
 11
7.14888
 21
183.159
  0
LINE
  8
0
 10
7.14888
 20
183.159
 11
7.34291
 21
183.757
  0
LINE
  8
0
 10
7.34291
 20
183.757
 11
7.46057
 21
184.373
  0
LINE
  8
0
 10
7.46057
 20
184.373
 11
7.5
 21
185
  0
LINE
  8
0
 10
7.5
 20
185
 11
7.5
 21
205
  0
LINE
  8
0
 10
7.5
 20
205
 11
7.46057
 21
205.627
  0
LINE
  8
0
 10
7.46057
 20
205.627
 11
7.34291
 21
206.243
  0
LINE
  8
0
 10
7.34291
 20
206.243
 11
7.14888
 21
206.841
  0
LINE
  8
0
 10
7.14888
 20
206.841
 11
6.88153
 21
207.409
  0
LINE
  8
0
 10
6.88153
 20
207.409
 11
6.54507
 21
207.939
  0
LINE
  8
0
 10
6.54507
 20
207.939
 11
6.14484
 21
208.423
  0
LINE
  8
0
 10
6.14484
 20
208.423
 11
5.68712
 21
208.853
  0
LINE
  8
0
 10
5.68712
 20
208.853
 11
5.17912
 21
209.222
  0
LINE
  8
0
 10
5.17912
 20
209.222
 11
4.62889
 21
209.524
  0
LINE
  8
0
 10
4.62889
 20
209.524
 11
4.04507
 21
209.755
  0
LINE
  8
0
 10
4.04507
 20
209.755
 11
3.4369
 21
209.911
  0
LINE
  8
0
 10
3.4369
 20
209.911
 11
2.81395
 21
209.99
  0
LINE
  8
0
 10
2.81395
 20
209.99
 11
-2.81395
 21
209.99
  0
LINE
  8
0
 10
-2.81395
 20
209.99
 11
-3.4369
 21
209.911
  0
LINE
  8
0
 10
-3.4369
 20
209.911
 11
-4.04507
 21
209.755
  0
LINE
  8
0
 10
-4.04507
 20
209.755
 11
-4.62889
 21
209.524
  0
LINE
  8
0
 10
-4.62889
 20
209.524
 11
-5.17912
 21
209.222
  0
LINE
  8
0
 10
-5.17912
 20
209.222
 11
-5.68712
 21
208.853
  0
LINE
  8
0
 10
-5.68712
 20
208.853
 11
-6.14484
 21
208.423
  0
LINE
  8
0
 10
-6.14484
 20
208.423
 11
-6.54507
 21
207.939
  0
LINE
  8
0
 10
-6.54507
 20
207.939
 11
-6.88153
 21
207.409
  0
LINE
  8
0
 10
-6.88153
 20
207.409
 11
-7.14888
 21
206.841
  0
LINE
  8
0
 10
-7.14888
 20
206.841
 11
-7.34291
 21
206.243
  0
LINE
  8
0
 10
-7.34291
 20
206.243
 11
-7.46057
 21
205.627
  0
LINE
  8
0
 10
-7.46057
 20
205.627
 11
-7.5
 21
205
  0
LINE
  8
0
 10
-7.5
 20
205
 11
-7.5
 21
185
  0
LINE
  8
0
 10
-7.5
 20
185
 11
-7.46057
 21
184.373
  0
LINE
  8
0
 10
-7.46057
 20
184.373
 11
-7.34291
 21
183.757
  0
LINE
  8
0
 10
-7.34291
 20
183.757
 11
-7.14888
 21
183.159
  0
LINE
  8
0
 10
-7.14888
 20
183.159
 11
-6.88153
 21
182.591
  0
LINE
  8
0
 10
-6.88153
 20
182.591
 11
-6.54507
 21
182.061
  0
LINE
  8
0
 10
-6.54507
 20
182.061
 11
-6.14484
 21
181.577
  0
LINE
  8
0
 10
-6.14484
 20
181.577
 11
-5.68712
 21
181.147
  0
LINE
  8
0
 10
-5.68712
 20
181.147
 11
-5.17912
 21
180.778
  0
LINE
  8
0
 10
-5.17912
 20
180.778
 11
-4.62889
 21
180.476
  0
LINE
  8
0
 10
-4.62889
 20
180.476
 11
-4.04507
 21
180.245
  0
LINE
  8
0
 10
-4.04507
 20
180.245
 11
-3.4369
 21
180.089
  0
LINE
  8
0
 10
-3.4369
 20
180.089
 11
-2.81395
 21
180.01
  0
LINE
  8
0
 10
-2.81395
 20
180.01
 11
2.81395
 21
180.01
  0
LINE
  8
0
 10
2.81395
 20
180.01
 11
3.4369
 21
180.089
  0
LINE
  8
0
 10
-0.134064
 20
200.369
 11
-0.400101
 21
200.403
  0
LINE
  8
0
 10
-0.400101
 20
200.403
 11
-0.659836
 21
200.469
  0
LINE
  8
0
 10
-0.659836
 20
200.469
 11
-0.909149
 21
200.568
  0
LINE
  8
0
 10
-0.909149
 20
200.568
 11
-1.14413
 21
200.697
  0
LINE
  8
0
 10
-1.14413
 20
200.697
 11
-1.36108
 21
200.855
  0
LINE
  8
0
 10
-1.36108
 20
200.855
 11
-1.55655
 21
201.038
  0
LINE
  8
0
 10
-1.55655
 20
201.038
 11
-1.72748
 21
201.245
  0
LINE
  8
0
 10
-1.72748
 20
201.245
 11
-1.87117
 21
201.471
  0
LINE
  8
0
 10
-1.87117
 20
201.471
 11
-1.98534
 21
201.714
  0
LINE
  8
0
 10
-1.98534
 20
201.714
 11
-2.06821
 21
201.969
  0
LINE
  8
0
 10
-2.06821
 20
201.969
 11
-2.11845
 21
202.232
  0
LINE
  8
0
 10
-2.11845
 20
202.232
 11
-2.13528
 21
202.5
  0
LINE
  8
0
 10
-2.13528
 20
202.5
 11
-2.11845
 21
202.768
  0
LINE
  8
0
 10
-2.11845
 20
202.768
 11
-2.06821
 21
203.031
  0
LINE
  8
0
 10
-2.06821
 20
203.031
 11
-1.98534
 21
203.286
  0
LINE
  8
0
 10
-1.98534
 20
203.286
 11
-1.87117
 21
203.529
  0
LINE
  8
0
 10
-1.87117
 20
203.529
 11
-1.72748
 21
203.755
  0
LINE
  8
0
 10
-1.72748
 20
203.755
 11
-1.55655
 21
203.962
  0
LINE
  8
0
 10
-1.55655
 20
203.962
 11
-1.36108
 21
204.145
  0
LINE
  8
0
 10
-1.36108
 20
204.145
 11
-1.14413
 21
204.303
  0
LINE
  8
0
 10
-1.14413
 20
204.303
 11
-0.909149
 21
204.432
  0
LINE
  8
0
 10
-0.909149
 20
204.432
 11
-0.659836
 21
204.531
  0
LINE
  8
0
 10
-0.659836
 20
204.531
 11
-0.400101
 21
204.597
  0
LINE
  8
0
 10
-0.400101
 20
204.597
 11
-0.134064
 21
204.631
  0
LINE
  8
0
 10
-0.134064
 20
204.631
 11
0.134064
 21
204.631
  0
LINE
  8
0
 10
0.134064
 20
204.631
 11
0.400101
 21
204.597
  0
LINE
  8
0
 10
0.400101
 20
204.597
 11
0.659836
 21
204.531
  0
LINE
  8
0
 10
0.659836
 20
204.531
 11
0.909149
 21
204.432
  0
LINE
  8
0
 10
0.909149
 20
204.432
 11
1.14413
 21
204.303
  0
LINE
  8
0
 10
1.14413
 20
204.303
 11
1.36108
 21
204.145
  0
LINE
  8
0
 10
1.36108
 20
204.145
 11
1.55655
 21
203.962
  0
LINE
  8
0
 10
1.55655
 20
203.962
 11
1.72748
 21
203.755
  0
LINE
  8
0
 10
1.72748
 20
203.755
 11
1.87117
 21
203.529
  0
LINE
  8
0
 10
1.87117
 20
203.529
 11
1.98534
 21
203.286
  0
LINE
  8
0
 10
1.98534
 20
203.286
 11
2.06821
 21
203.031
  0
LINE
  8
0
 10
2.06821
 20
203.031
 11
2.11845
 21
202.768
  0
LINE
  8
0
 10
2.11845
 20
202.768
 11
2.13528
 21
202.5
  0
LINE
  8
0
 10
2.13528
 20
202.5
 11
2.11845
 21
202.232
  0
LINE
  8
0
 10
2.11845
 20
202.232
 11
2.06821
 21
201.969
  0
LINE
  8
0
 10
2.06821
 20
201.969
 11
1.98534
 21
201.714
  0
LINE
  8
0
 10
1.98534
 20
201.714
 11
1.87117
 21
201.471
  0
LINE
  8
0
 10
1.87117
 20
201.471
 11
1.72748
 21
201.245
  0
LINE
  8
0
 10
1.72748
 20
201.245
 11
1.55655
 21
201.038
  0
LINE
  8
0
 10
1.55655
 20
201.038
 11
1.36108
 21
200.855
  0
LINE
  8
0
 10
1.36108
 20
200.855
 11
1.14413
 21
200.697
  0
LINE
  8
0
 10
1.14413
 20
200.697
 11
0.909149
 21
200.568
  0
LINE
  8
0
 10
0.909149
 20
200.568
 11
0.659836
 21
200.469
  0
LINE
  8
0
 10
0.659836
 20
200.469
 11
0.400101
 21
200.403
  0
LINE
  8
0
 10
0.400101
 20
200.403
 11
0.134064
 21
200.369
  0
LINE
  8
0
 10
0.134064
 20
200.369
 11
-0.134064
 21
200.369
  0
LINE
  8
0
 10
-0.134064
 20
185.369
 11
-0.400101
 21
185.403
  0
LINE
  8
0
 10
-0.400101
 20
185.403
 11
-0.659836
 21
185.469
  0
LINE
  8
0
 10
-0.659836
 20
185.469
 11
-0.909149
 21
185.568
  0
LINE
  8
0
 10
-0.909149
 20
185.568
 11
-1.14413
 21
185.697
  0
LINE
  8
0
 10
-1.14413
 20
185.697
 11
-1.36108
 21
185.855
  0
LINE
  8
0
 10
-1.36108
 20
185.855
 11
-1.55655
 21
186.038
  0
LINE
  8
0
 10
-1.55655
 20
186.038
 11
-1.72748
 21
186.245
  0
LINE
  8
0
 10
-1.72748
 20
186.245
 11
-1.87117
 21
186.471
  0
LINE
  8
0
 10
-1.87117
 20
186.471
 11
-1.98534
 21
186.714
  0
LINE
  8
0
 10
-1.98534
 20
186.714
 11
-2.06821
 21
186.969
  0
LINE
  8
0
 10
-2.06821
 20
186.969
 11
-2.11845
 21
187.232
  0
LINE
  8
0
 10
-2.11845
 20
187.232
 11
-2.13528
 21
187.5
  0
LINE
  8
0
 10
-2.13528
 20
187.5
 11
-2.11845
 21
187.768
  0
LINE
  8
0
 10
-2.11845
 20
187.768
 11
-2.06821
 21
188.031
  0
LINE
  8
0
 10
-2.06821
 20
188.031
 11
-1.98534
 21
188.286
  0
LINE
  8
0
 10
-1.98534
 20
188.286
 11
-1.87117
 21
188.529
  0
LINE
  8
0
 10
-1.87117
 20
188.529
 11
-1.72748
 21
188.755
  0
LINE
  8
0
 10
-1.72748
 20
188.755
 11
-1.55655
 21
188.962
  0
LINE
  8
0
 10
-1.55655
 20
188.962
 11
-1.36108
 21
189.145
  0
LINE
  8
0
 10
-1.36108
 20
189.145
 11
-1.14413
 21
189.303
  0
LINE
  8
0
 10
-1.14413
 20
189.303
 11
-0.909149
 21
189.432
  0
LINE
  8
0
 10
-0.909149
 20
189.432
 11
-0.659836
 21
189.531
  0
LINE
  8
0
 10
-0.659836
 20
189.531
 11
-0.400101
 21
189.597
  0
LINE
  8
0
 10
-0.400101
 20
189.597
 11
-0.134064
 21
189.631
  0
LINE
  8
0
 10
-0.134064
 20
189.631
 11
0.134064
 21
189.631
  0
LINE
  8
0
 10
0.134064
 20
189.631
 11
0.400101
 21
189.597
  0
LINE
  8
0
 10
0.400101
 20
189.597
 11
0.659836
 21
189.531
  0
LINE
  8
0
 10
0.659836
 20
189.531
 11
0.909149
 21
189.432
  0
LINE
  8
0
 10
0.909149
 20
189.432
 11
1.14413
 21
189.303
  0
LINE
  8
0
 10
1.14413
 20
189.303
 11
1.36108
 21
189.145
  0
LINE
  8
0
 10
1.36108
 20
189.145
 11
1.55655
 21
188.962
  0
LINE
  8
0
 10
1.55655
 20
188.962
 11
1.72748
 21
188.755
  0
LINE
  8
0
 10
1.72748
 20
188.755
 11
1.87117
 21
188.529
  0
LINE
  8
0
 10
1.87117
 20
188.529
 11
1.98534
 21
188.286
  0
LINE
  8
0
 10
1.98534
 20
188.286
 11
2.06821
 21
188.031
  0
LINE
  8
0
 10
2.06821
 20
188.031
 11
2.11845
 21
187.768
  0
LINE
  8
0
 10
2.11845
 20
187.768
 11
2.13528
 21
187.5
  0
LINE
  8
0
 10
2.13528
 20
187.5
 11
2.11845
 21
187.232
  0
LINE
  8
0
 10
2.11845
 20
187.232
 11
2.06821
 21
186.969
  0
LINE
  8
0
 10
2.06821
 20
186.969
 11
1.98534
 21
186.714
  0
LINE
  8
0
 10
1.98534
 20
186.714
 11
1.87117
 21
186.471
  0
LINE
  8
0
 10
1.87117
 20
186.471
 11
1.72748
 21
186.245
  0
LINE
  8
0
 10
1.72748
 20
186.245
 11
1.55655
 21
186.038
  0
LINE
  8
0
 10
1.55655
 20
186.038
 11
1.36108
 21
185.855
  0
LINE
  8
0
 10
1.36108
 20
185.855
 11
1.14413
 21
185.697
  0
LINE
  8
0
 10
1.14413
 20
185.697
 11
0.909149
 21
185.568
  0
LINE
  8
0
 10
0.909149
 20
185.568
 11
0.659836
 21
185.469
  0
LINE
  8
0
 10
0.659836
 20
185.469
 11
0.400101
 21
185.403
  0
LINE
  8
0
 10
0.400101
 20
185.403
 11
0.134064
 21
185.369
  0
LINE
  8
0
 10
0.134064
 20
185.369
 11
-0.134064
 21
185.369
  0
ENDSEC
  0
SECTION
  2
OBJECTS
  0
DICTIONARY
  0
ENDSEC
  0
EOF
