<?xml version="1.0" standalone="no"?>
<!DOCTYPE svg PUBLIC "-//W3C//DTD SVG 1.1//EN" "http://www.w3.org/Graphics/SVG/1.1/DTD/svg11.dtd">
<svg width="16mm" height="186mm" viewBox="-8 -366 16 186" xmlns="http://www.w3.org/2000/svg" version="1.1">
<title>OpenSCAD Model</title>
<path d="
M 3.4369,-336.089 L 4.04507,-336.245 L 4.62889,-336.476 L 5.17912,-336.778 L 5.68712,-337.147 L 6.14484,-337.577
 L 6.54507,-338.061 L 6.88153,-338.591 L 7.14888,-339.159 L 7.34291,-339.757 L 7.46057,-340.373 L 7.5,-341
 L 7.5,-361 L 7.46057,-361.627 L 7.34291,-362.243 L 7.14888,-362.841 L 6.88153,-363.409 L 6.54507,-363.939
 L 6.14484,-364.423 L 5.68712,-364.853 L 5.17912,-365.222 L 4.62889,-365.524 L 4.04507,-365.755 L 3.4369,-365.911
 L 2.81395,-365.99 L -2.81395,-365.99 L -3.4369,-365.911 L -4.04507,-365.755 L -4.62889,-365.524 L -5.17912,-365.222
 L -5.68712,-364.853 L -6.14484,-364.423 L -6.54507,-363.939 L -6.88153,-363.409 L -7.14888,-362.841 L -7.34291,-362.243
 L -7.46057,-361.627 L -7.5,-361 L -7.5,-341 L -7.46057,-340.373 L -7.34291,-339.757 L -7.14888,-339.159
 L -6.88153,-338.591 L -6.54507,-338.061 L -6.14484,-337.577 L -5.68712,-337.147 L -5.17912,-336.778 L -4.62889,-336.476
 L -4.04507,-336.245 L -3.4369,-336.089 L -2.81395,-336.01 L 2.81395,-336.01 z
M -2.25116,-337.508 L -2.74951,-337.571 L -3.23605,-337.696 L -3.70311,-337.881 L -4.1433,-338.123 L -4.54968,-338.418
 L -4.91586,-338.762 L -5.23605,-339.149 L -5.50522,-339.573 L -5.7191,-340.028 L -5.87433,-340.505 L -5.96844,-340.999
 L -6,-341.5 L -6,-360.5 L -5.96844,-361.001 L -5.87433,-361.495 L -5.7191,-361.972 L -5.50522,-362.427
 L -5.23605,-362.851 L -4.91586,-363.238 L -4.54968,-363.582 L -4.1433,-363.877 L -3.70311,-364.119 L -3.23605,-364.304
 L -2.74951,-364.429 L -2.25116,-364.492 L 2.25116,-364.492 L 2.74951,-364.429 L 3.23605,-364.304 L 3.70311,-364.119
 L 4.1433,-363.877 L 4.54968,-363.582 L 4.91586,-363.238 L 5.23605,-362.851 L 5.50522,-362.427 L 5.7191,-361.972
 L 5.87433,-361.495 L 5.96844,-361.001 L 6,-360.5 L 6,-341.5 L 5.96844,-340.999 L 5.87433,-340.505
 L 5.7191,-340.028 L 5.50522,-339.573 L 5.23605,-339.149 L 4.91586,-338.762 L 4.54968,-338.418 L 4.1433,-338.123
 L 3.70311,-337.881 L 3.23605,-337.696 L 2.74951,-337.571 L 2.25116,-337.508 z
M 3.4369,-297.089 L 4.04507,-297.245 L 4.62889,-297.476 L 5.17912,-297.778 L 5.68712,-298.147 L 6.14484,-298.577
 L 6.54507,-299.061 L 6.88153,-299.591 L 7.14888,-300.159 L 7.34291,-300.757 L 7.46057,-301.373 L 7.5,-302
 L 7.5,-322 L 7.46057,-322.627 L 7.34291,-323.243 L 7.14888,-323.841 L 6.88153,-324.409 L 6.54507,-324.939
 L 6.14484,-325.423 L 5.68712,-325.853 L 5.17912,-326.222 L 4.62889,-326.524 L 4.04507,-326.755 L 3.4369,-326.911
 L 2.81395,-326.99 L -2.81395,-326.99 L -3.4369,-326.911 L -4.04507,-326.755 L -4.62889,-326.524 L -5.17912,-326.222
 L -5.68712,-325.853 L -6.14484,-325.423 L -6.54507,-324.939 L -6.88153,-324.409 L -7.14888,-323.841 L -7.34291,-323.243
 L -7.46057,-322.627 L -7.5,-322 L -7.5,-302 L -7.46057,-301.373 L -7.34291,-300.757 L -7.14888,-300.159
 L -6.88153,-299.591 L -6.54507,-299.061 L -6.14484,-298.577 L -5.68712,-298.147 L -5.17912,-297.778 L -4.62889,-297.476
 L -4.04507,-297.245 L -3.4369,-297.089 L -2.81395,-297.01 L 2.81395,-297.01 z
M -2.25116,-298.508 L -2.74951,-298.571 L -3.23605,-298.696 L -3.70311,-298.881 L -4.1433,-299.123 L -4.54968,-299.418
 L -4.91586,-299.762 L -5.23605,-300.149 L -5.50522,-300.573 L -5.7191,-301.028 L -5.87433,-301.505 L -5.96844,-301.999
 L -6,-302.5 L -6,-321.5 L -5.96844,-322.001 L -5.87433,-322.495 L -5.7191,-322.972 L -5.50522,-323.427
 L -5.23605,-323.851 L -4.91586,-324.238 L -4.54968,-324.582 L -4.1433,-324.877 L -3.70311,-325.119 L -3.23605,-325.304
 L -2.74951,-325.429 L -2.25116,-325.492 L 2.25116,-325.492 L 2.74951,-325.429 L 3.23605,-325.304 L 3.70311,-325.119
 L 4.1433,-324.877 L 4.54968,-324.582 L 4.91586,-324.238 L 5.23605,-323.851 L 5.50522,-323.427 L 5.7191,-322.972
 L 5.87433,-322.495 L 5.96844,-322.001 L 6,-321.5 L 6,-302.5 L 5.96844,-301.999 L 5.87433,-301.505
 L 5.7191,-301.028 L 5.50522,-300.573 L 5.23605,-300.149 L 4.91586,-299.762 L 4.54968,-299.418 L 4.1433,-299.123
 L 3.70311,-298.881 L 3.23605,-298.696 L 2.74951,-298.571 L 2.25116,-298.508 z
M 3.4369,-258.089 L 4.04507,-258.245 L 4.62889,-258.476 L 5.17912,-258.778 L 5.68712,-259.147 L 6.14484,-259.577
 L 6.54507,-260.061 L 6.88153,-260.591 L 7.14888,-261.159 L 7.34291,-261.757 L 7.46057,-262.373 L 7.5,-263
 L 7.5,-283 L 7.46057,-283.627 L 7.34291,-284.243 L 7.14888,-284.841 L 6.88153,-285.409 L 6.54507,-285.939
 L 6.14484,-286.423 L 5.68712,-286.853 L 5.17912,-287.222 L 4.62889,-287.524 L 4.04507,-287.755 L 3.4369,-287.911
 L 2.81395,-287.99 L -2.81395,-287.99 L -3.4369,-287.911 L -4.04507,-287.755 L -4.62889,-287.524 L -5.17912,-287.222
 L -5.68712,-286.853 L -6.14484,-286.423 L -6.54507,-285.939 L -6.88153,-285.409 L -7.14888,-284.841 L -7.34291,-284.243
 L -7.46057,-283.627 L -7.5,-283 L -7.5,-263 L -7.46057,-262.373 L -7.34291,-261.757 L -7.14888,-261.159
 L -6.88153,-260.591 L -6.54507,-260.061 L -6.14484,-259.577 L -5.68712,-259.147 L -5.17912,-258.778 L -4.62889,-258.476
 L -4.04507,-258.245 L -3.4369,-258.089 L -2.81395,-258.01 L 2.81395,-258.01 z
M -2.25116,-259.508 L -2.74951,-259.571 L -3.23605,-259.696 L -3.70311,-259.881 L -4.1433,-260.123 L -4.54968,-260.418
 L -4.91586,-260.762 L -5.23605,-261.149 L -5.50522,-261.573 L -5.7191,-262.028 L -5.87433,-262.505 L -5.96844,-262.999
 L -6,-263.5 L -6,-282.5 L -5.96844,-283.001 L -5.87433,-283.495 L -5.7191,-283.972 L -5.50522,-284.427
 L -5.23605,-284.851 L -4.91586,-285.238 L -4.54968,-285.582 L -4.1433,-285.877 L -3.70311,-286.119 L -3.23605,-286.304
 L -2.74951,-286.429 L -2.25116,-286.492 L 2.25116,-286.492 L 2.74951,-286.429 L 3.23605,-286.304 L 3.70311,-286.119
 L 4.1433,-285.877 L 4.54968,-285.582 L 4.91586,-285.238 L 5.23605,-284.851 L 5.50522,-284.427 L 5.7191,-283.972
 L 5.87433,-283.495 L 5.96844,-283.001 L 6,-282.5 L 6,-263.5 L 5.96844,-262.999 L 5.87433,-262.505
 L 5.7191,-262.028 L 5.50522,-261.573 L 5.23605,-261.149 L 4.91586,-260.762 L 4.54968,-260.418 L 4.1433,-260.123
 L 3.70311,-259.881 L 3.23605,-259.696 L 2.74951,-259.571 L 2.25116,-259.508 z
M 3.4369,-219.089 L 4.04507,-219.245 L 4.62889,-219.476 L 5.17912,-219.778 L 5.68712,-220.147 L 6.14484,-220.577
 L 6.54507,-221.061 L 6.88153,-221.591 L 7.14888,-222.159 L 7.34291,-222.757 L 7.46057,-223.373 L 7.5,-224
 L 7.5,-244 L 7.46057,-244.627 L 7.34291,-245.243 L 7.14888,-245.841 L 6.88153,-246.409 L 6.54507,-246.939
 L 6.14484,-247.423 L 5.68712,-247.853 L 5.17912,-248.222 L 4.62889,-248.524 L 4.04507,-248.755 L 3.4369,-248.911
 L 2.81395,-248.99 L -2.81395,-248.99 L -3.4369,-248.911 L -4.04507,-248.755 L -4.62889,-248.524 L -5.17912,-248.222
 L -5.68712,-247.853 L -6.14484,-247.423 L -6.54507,-246.939 L -6.88153,-246.409 L -7.14888,-245.841 L -7.34291,-245.243
 L -7.46057,-244.627 L -7.5,-244 L -7.5,-224 L -7.46057,-223.373 L -7.34291,-222.757 L -7.14888,-222.159
 L -6.88153,-221.591 L -6.54507,-221.061 L -6.14484,-220.577 L -5.68712,-220.147 L -5.17912,-219.778 L -4.62889,-219.476
 L -4.04507,-219.245 L -3.4369,-219.089 L -2.81395,-219.01 L 2.81395,-219.01 z
M -2.19545,-221.393 L -2.5833,-221.442 L -2.96194,-221.539 L -3.32541,-221.683 L -3.66798,-221.872 L -3.98424,-222.101
 L -4.26921,-222.369 L -4.5184,-222.67 L -4.72786,-223 L -4.89432,-223.354 L -5.01512,-223.726 L -5.08836,-224.11
 L -5.11292,-224.5 L -5.11292,-243.5 L -5.08836,-243.89 L -5.01512,-244.274 L -4.89432,-244.646 L -4.72786,-245
 L -4.5184,-245.33 L -4.26921,-245.631 L -3.98424,-245.899 L -3.66798,-246.128 L -3.32541,-246.317 L -2.96194,-246.461
 L -2.5833,-246.558 L -2.19545,-246.607 L 2.19545,-246.607 L 2.5833,-246.558 L 2.96194,-246.461 L 3.32541,-246.317
 L 3.66798,-246.128 L 3.98424,-245.899 L 4.26921,-245.631 L 4.5184,-245.33 L 4.72786,-245 L 4.89432,-244.646
 L 5.01512,-244.274 L 5.08836,-243.89 L 5.11292,-243.5 L 5.11292,-224.5 L 5.08836,-224.11 L 5.01512,-223.726
 L 4.89432,-223.354 L 4.72786,-223 L 4.5184,-222.67 L 4.26921,-222.369 L 3.98424,-222.101 L 3.66798,-221.872
 L 3.32541,-221.683 L 2.96194,-221.539 L 2.5833,-221.442 L 2.19545,-221.393 z
M 3.4369,-180.089 L 4.04507,-180.245 L 4.62889,-180.476 L 5.17912,-180.778 L 5.68712,-181.147 L 6.14484,-181.577
 L 6.54507,-182.061 L 6.88153,-182.591 L 7.14888,-183.159 L 7.34291,-183.757 L 7.46057,-184.373 L 7.5,-185
 L 7.5,-205 L 7.46057,-205.627 L 7.34291,-206.243 L 7.14888,-206.841 L 6.88153,-207.409 L 6.54507,-207.939
 L 6.14484,-208.423 L 5.68712,-208.853 L 5.17912,-209.222 L 4.62889,-209.524 L 4.04507,-209.755 L 3.4369,-209.911
 L 2.81395,-209.99 L -2.81395,-209.99 L -3.4369,-209.911 L -4.04507,-209.755 L -4.62889,-209.524 L -5.17912,-209.222
 L -5.68712,-208.853 L -6.14484,-208.423 L -6.54507,-207.939 L -6.88153,-207.409 L -7.14888,-206.841 L -7.34291,-206.243
 L -7.46057,-205.627 L -7.5,-205 L -7.5,-185 L -7.46057,-184.373 L -7.34291,-183.757 L -7.14888,-183.159
 L -6.88153,-182.591 L -6.54507,-182.061 L -6.14484,-181.577 L -5.68712,-181.147 L -5.17912,-180.778 L -4.62889,-180.476
 L -4.04507,-180.245 L -3.4369,-180.089 L -2.81395,-180.01 L 2.81395,-180.01 z
M -0.134064,-200.369 L -0.400101,-200.403 L -0.659836,-200.469 L -0.909149,-200.568 L -1.14413,-200.697 L -1.36108,-200.855
 L -1.55655,-201.038 L -1.72748,-201.245 L -1.87117,-201.471 L -1.98534,-201.714 L -2.06821,-201.969 L -2.11845,-202.232
 L -2.13528,-202.5 L -2.11845,-202.768 L -2.06821,-203.031 L -1.98534,-203.286 L -1.87117,-203.529 L -1.72748,-203.755
 L -1.55655,-203.962 L -1.36108,-204.145 L -1.14413,-204.303 L -0.909149,-204.432 L -0.659836,-204.531 L -0.400101,-204.597
 L -0.134064,-204.631 L 0.134064,-204.631 L 0.400101,-204.597 L 0.659836,-204.531 L 0.909149,-204.432 L 1.14413,-204.303
 L 1.36108,-204.145 L 1.55655,-203.962 L 1.72748,-203.755 L 1.87117,-203.529 L 1.98534,-203.286 L 2.06821,-203.031
 L 2.11845,-202.768 L 2.13528,-202.5 L 2.11845,-202.232 L 2.06821,-201.969 L 1.98534,-201.714 L 1.87117,-201.471
 L 1.72748,-201.245 L 1.55655,-201.038 L 1.36108,-200.855 L 1.14413,-200.697 L 0.909149,-200.568 L 0.659836,-200.469
 L 0.400101,-200.403 L 0.134064,-200.369 z
M -0.134064,-185.369 L -0.400101,-185.403 L -0.659836,-185.469 L -0.909149,-185.568 L -1.14413,-185.697 L -1.36108,-185.855
 L -1.55655,-186.038 L -1.72748,-186.245 L -1.87117,-186.471 L -1.98534,-186.714 L -2.06821,-186.969 L -2.11845,-187.232
 L -2.13528,-187.5 L -2.11845,-187.768 L -2.06821,-188.031 L -1.98534,-188.286 L -1.87117,-188.529 L -1.72748,-188.755
 L -1.55655,-188.962 L -1.36108,-189.145 L -1.14413,-189.303 L -0.909149,-189.432 L -0.659836,-189.531 L -0.400101,-189.597
 L -0.134064,-189.631 L 0.134064,-189.631 L 0.400101,-189.597 L 0.659836,-189.531 L 0.909149,-189.432 L 1.14413,-189.303
 L 1.36108,-189.145 L 1.55655,-188.962 L 1.72748,-188.755 L 1.87117,-188.529 L 1.98534,-188.286 L 2.06821,-188.031
 L 2.11845,-187.768 L 2.13528,-187.5 L 2.11845,-187.232 L 2.06821,-186.969 L 1.98534,-186.714 L 1.87117,-186.471
 L 1.72748,-186.245 L 1.55655,-186.038 L 1.36108,-185.855 L 1.14413,-185.697 L 0.909149,-185.568 L 0.659836,-185.469
 L 0.400101,-185.403 L 0.134064,-185.369 z
" stroke="black" fill="lightgray" stroke-width="0.5"/>
</svg>
