<?xml version="1.0" standalone="no"?>
<!DOCTYPE svg PUBLIC "-//W3C//DTD SVG 1.1//EN" "http://www.w3.org/Graphics/SVG/1.1/DTD/svg11.dtd">
<svg width="46mm" height="378mm" viewBox="-23 -705 46 378" xmlns="http://www.w3.org/2000/svg" version="1.1">
<title>OpenSCAD Model</title>
<path d="
M 18.4369,-585.089 L 19.0451,-585.245 L 19.6289,-585.476 L 20.1791,-585.778 L 20.6871,-586.147 L 21.1448,-586.577
 L 21.5451,-587.061 L 21.8815,-587.591 L 22.1489,-588.159 L 22.3429,-588.757 L 22.4606,-589.373 L 22.5,-590
 L 22.5,-700 L 22.4606,-700.627 L 22.3429,-701.243 L 22.1489,-701.841 L 21.8815,-702.409 L 21.5451,-702.939
 L 21.1448,-703.423 L 20.6871,-703.853 L 20.1791,-704.222 L 19.6289,-704.524 L 19.0451,-704.755 L 18.4369,-704.911
 L 17.8139,-704.99 L -17.8139,-704.99 L -18.4369,-704.911 L -19.0451,-704.755 L -19.6289,-704.524 L -20.1791,-704.222
 L -20.6871,-703.853 L -21.1448,-703.423 L -21.5451,-702.939 L -21.8815,-702.409 L -22.1489,-701.841 L -22.3429,-701.243
 L -22.4606,-700.627 L -22.5,-700 L -22.5,-590 L -22.4606,-589.373 L -22.3429,-588.757 L -22.1489,-588.159
 L -21.8815,-587.591 L -21.5451,-587.061 L -21.1448,-586.577 L -20.6871,-586.147 L -20.1791,-585.778 L -19.6289,-585.476
 L -19.0451,-585.245 L -18.4369,-585.089 L -17.8139,-585.01 L 17.8139,-585.01 z
M -17.2512,-586.508 L -17.7495,-586.571 L -18.2361,-586.696 L -18.7031,-586.881 L -19.1433,-587.123 L -19.5497,-587.418
 L -19.9159,-587.762 L -20.2361,-588.149 L -20.5052,-588.573 L -20.7191,-589.028 L -20.8743,-589.505 L -20.9684,-589.999
 L -21,-590.5 L -21,-699.5 L -20.9684,-700.001 L -20.8743,-700.495 L -20.7191,-700.972 L -20.5052,-701.427
 L -20.2361,-701.851 L -19.9159,-702.238 L -19.5497,-702.582 L -19.1433,-702.877 L -18.7031,-703.119 L -18.2361,-703.304
 L -17.7495,-703.429 L -17.2512,-703.492 L 17.2512,-703.492 L 17.7495,-703.429 L 18.2361,-703.304 L 18.7031,-703.119
 L 19.1433,-702.877 L 19.5497,-702.582 L 19.9159,-702.238 L 20.2361,-701.851 L 20.5052,-701.427 L 20.7191,-700.972
 L 20.8743,-700.495 L 20.9684,-700.001 L 21,-699.5 L 21,-590.5 L 20.9684,-589.999 L 20.8743,-589.505
 L 20.7191,-589.028 L 20.5052,-588.573 L 20.2361,-588.149 L 19.9159,-587.762 L 19.5497,-587.418 L 19.1433,-587.123
 L 18.7031,-586.881 L 18.2361,-586.696 L 17.7495,-586.571 L 17.2512,-586.508 z
M 18.4369,-456.089 L 19.0451,-456.245 L 19.6289,-456.476 L 20.1791,-456.778 L 20.6871,-457.147 L 21.1448,-457.577
 L 21.5451,-458.061 L 21.8815,-458.591 L 22.1489,-459.159 L 22.3429,-459.757 L 22.4606,-460.373 L 22.5,-461
 L 22.5,-571 L 22.4606,-571.627 L 22.3429,-572.243 L 22.1489,-572.841 L 21.8815,-573.409 L 21.5451,-573.939
 L 21.1448,-574.423 L 20.6871,-574.853 L 20.1791,-575.222 L 19.6289,-575.524 L 19.0451,-575.755 L 18.4369,-575.911
 L 17.8139,-575.99 L -17.8139,-575.99 L -18.4369,-575.911 L -19.0451,-575.755 L -19.6289,-575.524 L -20.1791,-575.222
 L -20.6871,-574.853 L -21.1448,-574.423 L -21.5451,-573.939 L -21.8815,-573.409 L -22.1489,-572.841 L -22.3429,-572.243
 L -22.4606,-571.627 L -22.5,-571 L -22.5,-461 L -22.4606,-460.373 L -22.3429,-459.757 L -22.1489,-459.159
 L -21.8815,-458.591 L -21.5451,-458.061 L -21.1448,-457.577 L -20.6871,-457.147 L -20.1791,-456.778 L -19.6289,-456.476
 L -19.0451,-456.245 L -18.4369,-456.089 L -17.8139,-456.01 L 17.8139,-456.01 z
M -17.1954,-458.393 L -17.5833,-458.442 L -17.9619,-458.539 L -18.3254,-458.683 L -18.668,-458.872 L -18.9842,-459.101
 L -19.2692,-459.369 L -19.5184,-459.67 L -19.7279,-460 L -19.8943,-460.354 L -20.0151,-460.726 L -20.0884,-461.11
 L -20.1129,-461.5 L -20.1129,-570.5 L -20.0884,-570.89 L -20.0151,-571.274 L -19.8943,-571.646 L -19.7279,-572
 L -19.5184,-572.33 L -19.2692,-572.631 L -18.9842,-572.899 L -18.668,-573.128 L -18.3254,-573.317 L -17.9619,-573.461
 L -17.5833,-573.558 L -17.1954,-573.607 L 17.1954,-573.607 L 17.5833,-573.558 L 17.9619,-573.461 L 18.3254,-573.317
 L 18.668,-573.128 L 18.9842,-572.899 L 19.2692,-572.631 L 19.5184,-572.33 L 19.7279,-572 L 19.8943,-571.646
 L 20.0151,-571.274 L 20.0884,-570.89 L 20.1129,-570.5 L 20.1129,-461.5 L 20.0884,-461.11 L 20.0151,-460.726
 L 19.8943,-460.354 L 19.7279,-460 L 19.5184,-459.67 L 19.2692,-459.369 L 18.9842,-459.101 L 18.668,-458.872
 L 18.3254,-458.683 L 17.9619,-458.539 L 17.5833,-458.442 L 17.1954,-458.393 z
M 18.4369,-327.089 L 19.0451,-327.245 L 19.6289,-327.476 L 20.1791,-327.778 L 20.6871,-328.147 L 21.1448,-328.577
 L 21.5451,-329.061 L 21.8815,-329.591 L 22.1489,-330.159 L 22.3429,-330.757 L 22.4606,-331.373 L 22.5,-332
 L 22.5,-442 L 22.4606,-442.627 L 22.3429,-443.243 L 22.1489,-443.841 L 21.8815,-444.409 L 21.5451,-444.939
 L 21.1448,-445.423 L 20.6871,-445.853 L 20.1791,-446.222 L 19.6289,-446.524 L 19.0451,-446.755 L 18.4369,-446.911
 L 17.8139,-446.99 L -17.8139,-446.99 L -18.4369,-446.911 L -19.0451,-446.755 L -19.6289,-446.524 L -20.1791,-446.222
 L -20.6871,-445.853 L -21.1448,-445.423 L -21.5451,-444.939 L -21.8815,-444.409 L -22.1489,-443.841 L -22.3429,-443.243
 L -22.4606,-442.627 L -22.5,-442 L -22.5,-332 L -22.4606,-331.373 L -22.3429,-330.757 L -22.1489,-330.159
 L -21.8815,-329.591 L -21.5451,-329.061 L -21.1448,-328.577 L -20.6871,-328.147 L -20.1791,-327.778 L -19.6289,-327.476
 L -19.0451,-327.245 L -18.4369,-327.089 L -17.8139,-327.01 L 17.8139,-327.01 z
M 14.8659,-437.369 L 14.5999,-437.403 L 14.3401,-437.469 L 14.0908,-437.568 L 13.8559,-437.697 L 13.6389,-437.855
 L 13.4434,-438.038 L 13.2725,-438.245 L 13.1288,-438.471 L 13.0146,-438.714 L 12.9318,-438.969 L 12.8815,-439.232
 L 12.8647,-439.5 L 12.8815,-439.768 L 12.9318,-440.031 L 13.0146,-440.286 L 13.1288,-440.529 L 13.2725,-440.755
 L 13.4434,-440.962 L 13.6389,-441.145 L 13.8559,-441.303 L 14.0908,-441.432 L 14.3401,-441.531 L 14.5999,-441.597
 L 14.8659,-441.631 L 15.1341,-441.631 L 15.4001,-441.597 L 15.6598,-441.531 L 15.9091,-441.432 L 16.1441,-441.303
 L 16.3611,-441.145 L 16.5565,-440.962 L 16.7275,-440.755 L 16.8712,-440.529 L 16.9853,-440.286 L 17.0682,-440.031
 L 17.1185,-439.768 L 17.1353,-439.5 L 17.1185,-439.232 L 17.0682,-438.969 L 16.9853,-438.714 L 16.8712,-438.471
 L 16.7275,-438.245 L 16.5565,-438.038 L 16.3611,-437.855 L 16.1441,-437.697 L 15.9091,-437.568 L 15.6598,-437.469
 L 15.4001,-437.403 L 15.1341,-437.369 z
M -15.1341,-437.369 L -15.4001,-437.403 L -15.6598,-437.469 L -15.9091,-437.568 L -16.1441,-437.697 L -16.3611,-437.855
 L -16.5565,-438.038 L -16.7275,-438.245 L -16.8712,-438.471 L -16.9853,-438.714 L -17.0682,-438.969 L -17.1185,-439.232
 L -17.1353,-439.5 L -17.1185,-439.768 L -17.0682,-440.031 L -16.9853,-440.286 L -16.8712,-440.529 L -16.7275,-440.755
 L -16.5565,-440.962 L -16.3611,-441.145 L -16.1441,-441.303 L -15.9091,-441.432 L -15.6598,-441.531 L -15.4001,-441.597
 L -15.1341,-441.631 L -14.8659,-441.631 L -14.5999,-441.597 L -14.3401,-441.531 L -14.0908,-441.432 L -13.8559,-441.303
 L -13.6389,-441.145 L -13.4434,-440.962 L -13.2725,-440.755 L -13.1288,-440.529 L -13.0146,-440.286 L -12.9318,-440.031
 L -12.8815,-439.768 L -12.8647,-439.5 L -12.8815,-439.232 L -12.9318,-438.969 L -13.0146,-438.714 L -13.1288,-438.471
 L -13.2725,-438.245 L -13.4434,-438.038 L -13.6389,-437.855 L -13.8559,-437.697 L -14.0908,-437.568 L -14.3401,-437.469
 L -14.5999,-437.403 L -14.8659,-437.369 z
M 14.8659,-332.369 L 14.5999,-332.403 L 14.3401,-332.469 L 14.0908,-332.568 L 13.8559,-332.697 L 13.6389,-332.855
 L 13.4434,-333.038 L 13.2725,-333.245 L 13.1288,-333.471 L 13.0146,-333.714 L 12.9318,-333.969 L 12.8815,-334.232
 L 12.8647,-334.5 L 12.8815,-334.768 L 12.9318,-335.031 L 13.0146,-335.286 L 13.1288,-335.529 L 13.2725,-335.755
 L 13.4434,-335.962 L 13.6389,-336.145 L 13.8559,-336.303 L 14.0908,-336.432 L 14.3401,-336.531 L 14.5999,-336.597
 L 14.8659,-336.631 L 15.1341,-336.631 L 15.4001,-336.597 L 15.6598,-336.531 L 15.9091,-336.432 L 16.1441,-336.303
 L 16.3611,-336.145 L 16.5565,-335.962 L 16.7275,-335.755 L 16.8712,-335.529 L 16.9853,-335.286 L 17.0682,-335.031
 L 17.1185,-334.768 L 17.1353,-334.5 L 17.1185,-334.232 L 17.0682,-333.969 L 16.9853,-333.714 L 16.8712,-333.471
 L 16.7275,-333.245 L 16.5565,-333.038 L 16.3611,-332.855 L 16.1441,-332.697 L 15.9091,-332.568 L 15.6598,-332.469
 L 15.4001,-332.403 L 15.1341,-332.369 z
M -15.1341,-332.369 L -15.4001,-332.403 L -15.6598,-332.469 L -15.9091,-332.568 L -16.1441,-332.697 L -16.3611,-332.855
 L -16.5565,-333.038 L -16.7275,-333.245 L -16.8712,-333.471 L -16.9853,-333.714 L -17.0682,-333.969 L -17.1185,-334.232
 L -17.1353,-334.5 L -17.1185,-334.768 L -17.0682,-335.031 L -16.9853,-335.286 L -16.8712,-335.529 L -16.7275,-335.755
 L -16.5565,-335.962 L -16.3611,-336.145 L -16.1441,-336.303 L -15.9091,-336.432 L -15.6598,-336.531 L -15.4001,-336.597
 L -15.1341,-336.631 L -14.8659,-336.631 L -14.5999,-336.597 L -14.3401,-336.531 L -14.0908,-336.432 L -13.8559,-336.303
 L -13.6389,-336.145 L -13.4434,-335.962 L -13.2725,-335.755 L -13.1288,-335.529 L -13.0146,-335.286 L -12.9318,-335.031
 L -12.8815,-334.768 L -12.8647,-334.5 L -12.8815,-334.232 L -12.9318,-333.969 L -13.0146,-333.714 L -13.1288,-333.471
 L -13.2725,-333.245 L -13.4434,-333.038 L -13.6389,-332.855 L -13.8559,-332.697 L -14.0908,-332.568 L -14.3401,-332.469
 L -14.5999,-332.403 L -14.8659,-332.369 z
" stroke="black" fill="lightgray" stroke-width="0.5"/>
</svg>
