  0
SECTION
  2
BLOCKS
  0
ENDSEC
  0
SECTION
  2
ENTITIES
  0
LINE
  8
0
 10
10.9369
 20
315.089
 11
11.5451
 21
315.245
  0
LINE
  8
0
 10
11.5451
 20
315.245
 11
12.1289
 21
315.476
  0
LINE
  8
0
 10
12.1289
 20
315.476
 11
12.6791
 21
315.778
  0
LINE
  8
0
 10
12.6791
 20
315.778
 11
13.1871
 21
316.147
  0
LINE
  8
0
 10
13.1871
 20
316.147
 11
13.6448
 21
316.577
  0
LINE
  8
0
 10
13.6448
 20
316.577
 11
14.0451
 21
317.061
  0
LINE
  8
0
 10
14.0451
 20
317.061
 11
14.3815
 21
317.591
  0
LINE
  8
0
 10
14.3815
 20
317.591
 11
14.6489
 21
318.159
  0
LINE
  8
0
 10
14.6489
 20
318.159
 11
14.8429
 21
318.757
  0
LINE
  8
0
 10
14.8429
 20
318.757
 11
14.9606
 21
319.373
  0
LINE
  8
0
 10
14.9606
 20
319.373
 11
15
 21
320
  0
LINE
  8
0
 10
15
 20
320
 11
15
 21
370
  0
LINE
  8
0
 10
15
 20
370
 11
14.9606
 21
370.627
  0
LINE
  8
0
 10
14.9606
 20
370.627
 11
14.8429
 21
371.243
  0
LINE
  8
0
 10
14.8429
 20
371.243
 11
14.6489
 21
371.841
  0
LINE
  8
0
 10
14.6489
 20
371.841
 11
14.3815
 21
372.409
  0
LINE
  8
0
 10
14.3815
 20
372.409
 11
14.0451
 21
372.939
  0
LINE
  8
0
 10
14.0451
 20
372.939
 11
13.6448
 21
373.423
  0
LINE
  8
0
 10
13.6448
 20
373.423
 11
13.1871
 21
373.853
  0
LINE
  8
0
 10
13.1871
 20
373.853
 11
12.6791
 21
374.222
  0
LINE
  8
0
 10
12.6791
 20
374.222
 11
12.1289
 21
374.524
  0
LINE
  8
0
 10
12.1289
 20
374.524
 11
11.5451
 21
374.755
  0
LINE
  8
0
 10
11.5451
 20
374.755
 11
10.9369
 21
374.911
  0
LINE
  8
0
 10
10.9369
 20
374.911
 11
10.3139
 21
374.99
  0
LINE
  8
0
 10
10.3139
 20
374.99
 11
-10.3139
 21
374.99
  0
LINE
  8
0
 10
-10.3139
 20
374.99
 11
-10.9369
 21
374.911
  0
LINE
  8
0
 10
-10.9369
 20
374.911
 11
-11.5451
 21
374.755
  0
LINE
  8
0
 10
-11.5451
 20
374.755
 11
-12.1289
 21
374.524
  0
LINE
  8
0
 10
-12.1289
 20
374.524
 11
-12.6791
 21
374.222
  0
LINE
  8
0
 10
-12.6791
 20
374.222
 11
-13.1871
 21
373.853
  0
LINE
  8
0
 10
-13.1871
 20
373.853
 11
-13.6448
 21
373.423
  0
LINE
  8
0
 10
-13.6448
 20
373.423
 11
-14.0451
 21
372.939
  0
LINE
  8
0
 10
-14.0451
 20
372.939
 11
-14.3815
 21
372.409
  0
LINE
  8
0
 10
-14.3815
 20
372.409
 11
-14.6489
 21
371.841
  0
LINE
  8
0
 10
-14.6489
 20
371.841
 11
-14.8429
 21
371.243
  0
LINE
  8
0
 10
-14.8429
 20
371.243
 11
-14.9606
 21
370.627
  0
LINE
  8
0
 10
-14.9606
 20
370.627
 11
-15
 21
370
  0
LINE
  8
0
 10
-15
 20
370
 11
-15
 21
320
  0
LINE
  8
0
 10
-15
 20
320
 11
-14.9606
 21
319.373
  0
LINE
  8
0
 10
-14.9606
 20
319.373
 11
-14.8429
 21
318.757
  0
LINE
  8
0
 10
-14.8429
 20
318.757
 11
-14.6489
 21
318.159
  0
LINE
  8
0
 10
-14.6489
 20
318.159
 11
-14.3815
 21
317.591
  0
LINE
  8
0
 10
-14.3815
 20
317.591
 11
-14.0451
 21
317.061
  0
LINE
  8
0
 10
-14.0451
 20
317.061
 11
-13.6448
 21
316.577
  0
LINE
  8
0
 10
-13.6448
 20
316.577
 11
-13.1871
 21
316.147
  0
LINE
  8
0
 10
-13.1871
 20
316.147
 11
-12.6791
 21
315.778
  0
LINE
  8
0
 10
-12.6791
 20
315.778
 11
-12.1289
 21
315.476
  0
LINE
  8
0
 10
-12.1289
 20
315.476
 11
-11.5451
 21
315.245
  0
LINE
  8
0
 10
-11.5451
 20
315.245
 11
-10.9369
 21
315.089
  0
LINE
  8
0
 10
-10.9369
 20
315.089
 11
-10.3139
 21
315.01
  0
LINE
  8
0
 10
-10.3139
 20
315.01
 11
10.3139
 21
315.01
  0
LINE
  8
0
 10
10.3139
 20
315.01
 11
10.9369
 21
315.089
  0
LINE
  8
0
 10
-9.75116
 20
316.508
 11
-10.2495
 21
316.571
  0
LINE
  8
0
 10
-10.2495
 20
316.571
 11
-10.7361
 21
316.696
  0
LINE
  8
0
 10
-10.7361
 20
316.696
 11
-11.2031
 21
316.881
  0
LINE
  8
0
 10
-11.2031
 20
316.881
 11
-11.6433
 21
317.123
  0
LINE
  8
0
 10
-11.6433
 20
317.123
 11
-12.0497
 21
317.418
  0
LINE
  8
0
 10
-12.0497
 20
317.418
 11
-12.4159
 21
317.762
  0
LINE
  8
0
 10
-12.4159
 20
317.762
 11
-12.7361
 21
318.149
  0
LINE
  8
0
 10
-12.7361
 20
318.149
 11
-13.0052
 21
318.573
  0
LINE
  8
0
 10
-13.0052
 20
318.573
 11
-13.2191
 21
319.028
  0
LINE
  8
0
 10
-13.2191
 20
319.028
 11
-13.3743
 21
319.505
  0
LINE
  8
0
 10
-13.3743
 20
319.505
 11
-13.4684
 21
319.999
  0
LINE
  8
0
 10
-13.4684
 20
319.999
 11
-13.5
 21
320.5
  0
LINE
  8
0
 10
-13.5
 20
320.5
 11
-13.5
 21
369.5
  0
LINE
  8
0
 10
-13.5
 20
369.5
 11
-13.4684
 21
370.001
  0
LINE
  8
0
 10
-13.4684
 20
370.001
 11
-13.3743
 21
370.495
  0
LINE
  8
0
 10
-13.3743
 20
370.495
 11
-13.2191
 21
370.972
  0
LINE
  8
0
 10
-13.2191
 20
370.972
 11
-13.0052
 21
371.427
  0
LINE
  8
0
 10
-13.0052
 20
371.427
 11
-12.7361
 21
371.851
  0
LINE
  8
0
 10
-12.7361
 20
371.851
 11
-12.4159
 21
372.238
  0
LINE
  8
0
 10
-12.4159
 20
372.238
 11
-12.0497
 21
372.582
  0
LINE
  8
0
 10
-12.0497
 20
372.582
 11
-11.6433
 21
372.877
  0
LINE
  8
0
 10
-11.6433
 20
372.877
 11
-11.2031
 21
373.119
  0
LINE
  8
0
 10
-11.2031
 20
373.119
 11
-10.7361
 21
373.304
  0
LINE
  8
0
 10
-10.7361
 20
373.304
 11
-10.2495
 21
373.429
  0
LINE
  8
0
 10
-10.2495
 20
373.429
 11
-9.75116
 21
373.492
  0
LINE
  8
0
 10
-9.75116
 20
373.492
 11
9.75116
 21
373.492
  0
LINE
  8
0
 10
9.75116
 20
373.492
 11
10.2495
 21
373.429
  0
LINE
  8
0
 10
10.2495
 20
373.429
 11
10.7361
 21
373.304
  0
LINE
  8
0
 10
10.7361
 20
373.304
 11
11.2031
 21
373.119
  0
LINE
  8
0
 10
11.2031
 20
373.119
 11
11.6433
 21
372.877
  0
LINE
  8
0
 10
11.6433
 20
372.877
 11
12.0497
 21
372.582
  0
LINE
  8
0
 10
12.0497
 20
372.582
 11
12.4159
 21
372.238
  0
LINE
  8
0
 10
12.4159
 20
372.238
 11
12.7361
 21
371.851
  0
LINE
  8
0
 10
12.7361
 20
371.851
 11
13.0052
 21
371.427
  0
LINE
  8
0
 10
13.0052
 20
371.427
 11
13.2191
 21
370.972
  0
LINE
  8
0
 10
13.2191
 20
370.972
 11
13.3743
 21
370.495
  0
LINE
  8
0
 10
13.3743
 20
370.495
 11
13.4684
 21
370.001
  0
LINE
  8
0
 10
13.4684
 20
370.001
 11
13.5
 21
369.5
  0
LINE
  8
0
 10
13.5
 20
369.5
 11
13.5
 21
320.5
  0
LINE
  8
0
 10
13.5
 20
320.5
 11
13.4684
 21
319.999
  0
LINE
  8
0
 10
13.4684
 20
319.999
 11
13.3743
 21
319.505
  0
LINE
  8
0
 10
13.3743
 20
319.505
 11
13.2191
 21
319.028
  0
LINE
  8
0
 10
13.2191
 20
319.028
 11
13.0052
 21
318.573
  0
LINE
  8
0
 10
13.0052
 20
318.573
 11
12.7361
 21
318.149
  0
LINE
  8
0
 10
12.7361
 20
318.149
 11
12.4159
 21
317.762
  0
LINE
  8
0
 10
12.4159
 20
317.762
 11
12.0497
 21
317.418
  0
LINE
  8
0
 10
12.0497
 20
317.418
 11
11.6433
 21
317.123
  0
LINE
  8
0
 10
11.6433
 20
317.123
 11
11.2031
 21
316.881
  0
LINE
  8
0
 10
11.2031
 20
316.881
 11
10.7361
 21
316.696
  0
LINE
  8
0
 10
10.7361
 20
316.696
 11
10.2495
 21
316.571
  0
LINE
  8
0
 10
10.2495
 20
316.571
 11
9.75116
 21
316.508
  0
LINE
  8
0
 10
9.75116
 20
316.508
 11
-9.75116
 21
316.508
  0
LINE
  8
0
 10
10.9369
 20
246.089
 11
11.5451
 21
246.245
  0
LINE
  8
0
 10
11.5451
 20
246.245
 11
12.1289
 21
246.476
  0
LINE
  8
0
 10
12.1289
 20
246.476
 11
12.6791
 21
246.778
  0
LINE
  8
0
 10
12.6791
 20
246.778
 11
13.1871
 21
247.147
  0
LINE
  8
0
 10
13.1871
 20
247.147
 11
13.6448
 21
247.577
  0
LINE
  8
0
 10
13.6448
 20
247.577
 11
14.0451
 21
248.061
  0
LINE
  8
0
 10
14.0451
 20
248.061
 11
14.3815
 21
248.591
  0
LINE
  8
0
 10
14.3815
 20
248.591
 11
14.6489
 21
249.159
  0
LINE
  8
0
 10
14.6489
 20
249.159
 11
14.8429
 21
249.757
  0
LINE
  8
0
 10
14.8429
 20
249.757
 11
14.9606
 21
250.373
  0
LINE
  8
0
 10
14.9606
 20
250.373
 11
15
 21
251
  0
LINE
  8
0
 10
15
 20
251
 11
15
 21
301
  0
LINE
  8
0
 10
15
 20
301
 11
14.9606
 21
301.627
  0
LINE
  8
0
 10
14.9606
 20
301.627
 11
14.8429
 21
302.243
  0
LINE
  8
0
 10
14.8429
 20
302.243
 11
14.6489
 21
302.841
  0
LINE
  8
0
 10
14.6489
 20
302.841
 11
14.3815
 21
303.409
  0
LINE
  8
0
 10
14.3815
 20
303.409
 11
14.0451
 21
303.939
  0
LINE
  8
0
 10
14.0451
 20
303.939
 11
13.6448
 21
304.423
  0
LINE
  8
0
 10
13.6448
 20
304.423
 11
13.1871
 21
304.853
  0
LINE
  8
0
 10
13.1871
 20
304.853
 11
12.6791
 21
305.222
  0
LINE
  8
0
 10
12.6791
 20
305.222
 11
12.1289
 21
305.524
  0
LINE
  8
0
 10
12.1289
 20
305.524
 11
11.5451
 21
305.755
  0
LINE
  8
0
 10
11.5451
 20
305.755
 11
10.9369
 21
305.911
  0
LINE
  8
0
 10
10.9369
 20
305.911
 11
10.3139
 21
305.99
  0
LINE
  8
0
 10
10.3139
 20
305.99
 11
-10.3139
 21
305.99
  0
LINE
  8
0
 10
-10.3139
 20
305.99
 11
-10.9369
 21
305.911
  0
LINE
  8
0
 10
-10.9369
 20
305.911
 11
-11.5451
 21
305.755
  0
LINE
  8
0
 10
-11.5451
 20
305.755
 11
-12.1289
 21
305.524
  0
LINE
  8
0
 10
-12.1289
 20
305.524
 11
-12.6791
 21
305.222
  0
LINE
  8
0
 10
-12.6791
 20
305.222
 11
-13.1871
 21
304.853
  0
LINE
  8
0
 10
-13.1871
 20
304.853
 11
-13.6448
 21
304.423
  0
LINE
  8
0
 10
-13.6448
 20
304.423
 11
-14.0451
 21
303.939
  0
LINE
  8
0
 10
-14.0451
 20
303.939
 11
-14.3815
 21
303.409
  0
LINE
  8
0
 10
-14.3815
 20
303.409
 11
-14.6489
 21
302.841
  0
LINE
  8
0
 10
-14.6489
 20
302.841
 11
-14.8429
 21
302.243
  0
LINE
  8
0
 10
-14.8429
 20
302.243
 11
-14.9606
 21
301.627
  0
LINE
  8
0
 10
-14.9606
 20
301.627
 11
-15
 21
301
  0
LINE
  8
0
 10
-15
 20
301
 11
-15
 21
251
  0
LINE
  8
0
 10
-15
 20
251
 11
-14.9606
 21
250.373
  0
LINE
  8
0
 10
-14.9606
 20
250.373
 11
-14.8429
 21
249.757
  0
LINE
  8
0
 10
-14.8429
 20
249.757
 11
-14.6489
 21
249.159
  0
LINE
  8
0
 10
-14.6489
 20
249.159
 11
-14.3815
 21
248.591
  0
LINE
  8
0
 10
-14.3815
 20
248.591
 11
-14.0451
 21
248.061
  0
LINE
  8
0
 10
-14.0451
 20
248.061
 11
-13.6448
 21
247.577
  0
LINE
  8
0
 10
-13.6448
 20
247.577
 11
-13.1871
 21
247.147
  0
LINE
  8
0
 10
-13.1871
 20
247.147
 11
-12.6791
 21
246.778
  0
LINE
  8
0
 10
-12.6791
 20
246.778
 11
-12.1289
 21
246.476
  0
LINE
  8
0
 10
-12.1289
 20
246.476
 11
-11.5451
 21
246.245
  0
LINE
  8
0
 10
-11.5451
 20
246.245
 11
-10.9369
 21
246.089
  0
LINE
  8
0
 10
-10.9369
 20
246.089
 11
-10.3139
 21
246.01
  0
LINE
  8
0
 10
-10.3139
 20
246.01
 11
10.3139
 21
246.01
  0
LINE
  8
0
 10
10.3139
 20
246.01
 11
10.9369
 21
246.089
  0
LINE
  8
0
 10
-9.69545
 20
248.393
 11
-10.0833
 21
248.442
  0
LINE
  8
0
 10
-10.0833
 20
248.442
 11
-10.4619
 21
248.539
  0
LINE
  8
0
 10
-10.4619
 20
248.539
 11
-10.8254
 21
248.683
  0
LINE
  8
0
 10
-10.8254
 20
248.683
 11
-11.168
 21
248.872
  0
LINE
  8
0
 10
-11.168
 20
248.872
 11
-11.4842
 21
249.101
  0
LINE
  8
0
 10
-11.4842
 20
249.101
 11
-11.7692
 21
249.369
  0
LINE
  8
0
 10
-11.7692
 20
249.369
 11
-12.0184
 21
249.67
  0
LINE
  8
0
 10
-12.0184
 20
249.67
 11
-12.2279
 21
250
  0
LINE
  8
0
 10
-12.2279
 20
250
 11
-12.3943
 21
250.354
  0
LINE
  8
0
 10
-12.3943
 20
250.354
 11
-12.5151
 21
250.726
  0
LINE
  8
0
 10
-12.5151
 20
250.726
 11
-12.5884
 21
251.11
  0
LINE
  8
0
 10
-12.5884
 20
251.11
 11
-12.6129
 21
251.5
  0
LINE
  8
0
 10
-12.6129
 20
251.5
 11
-12.6129
 21
300.5
  0
LINE
  8
0
 10
-12.6129
 20
300.5
 11
-12.5884
 21
300.89
  0
LINE
  8
0
 10
-12.5884
 20
300.89
 11
-12.5151
 21
301.274
  0
LINE
  8
0
 10
-12.5151
 20
301.274
 11
-12.3943
 21
301.646
  0
LINE
  8
0
 10
-12.3943
 20
301.646
 11
-12.2279
 21
302
  0
LINE
  8
0
 10
-12.2279
 20
302
 11
-12.0184
 21
302.33
  0
LINE
  8
0
 10
-12.0184
 20
302.33
 11
-11.7692
 21
302.631
  0
LINE
  8
0
 10
-11.7692
 20
302.631
 11
-11.4842
 21
302.899
  0
LINE
  8
0
 10
-11.4842
 20
302.899
 11
-11.168
 21
303.128
  0
LINE
  8
0
 10
-11.168
 20
303.128
 11
-10.8254
 21
303.317
  0
LINE
  8
0
 10
-10.8254
 20
303.317
 11
-10.4619
 21
303.461
  0
LINE
  8
0
 10
-10.4619
 20
303.461
 11
-10.0833
 21
303.558
  0
LINE
  8
0
 10
-10.0833
 20
303.558
 11
-9.69545
 21
303.607
  0
LINE
  8
0
 10
-9.69545
 20
303.607
 11
9.69545
 21
303.607
  0
LINE
  8
0
 10
9.69545
 20
303.607
 11
10.0833
 21
303.558
  0
LINE
  8
0
 10
10.0833
 20
303.558
 11
10.4619
 21
303.461
  0
LINE
  8
0
 10
10.4619
 20
303.461
 11
10.8254
 21
303.317
  0
LINE
  8
0
 10
10.8254
 20
303.317
 11
11.168
 21
303.128
  0
LINE
  8
0
 10
11.168
 20
303.128
 11
11.4842
 21
302.899
  0
LINE
  8
0
 10
11.4842
 20
302.899
 11
11.7692
 21
302.631
  0
LINE
  8
0
 10
11.7692
 20
302.631
 11
12.0184
 21
302.33
  0
LINE
  8
0
 10
12.0184
 20
302.33
 11
12.2279
 21
302
  0
LINE
  8
0
 10
12.2279
 20
302
 11
12.3943
 21
301.646
  0
LINE
  8
0
 10
12.3943
 20
301.646
 11
12.5151
 21
301.274
  0
LINE
  8
0
 10
12.5151
 20
301.274
 11
12.5884
 21
300.89
  0
LINE
  8
0
 10
12.5884
 20
300.89
 11
12.6129
 21
300.5
  0
LINE
  8
0
 10
12.6129
 20
300.5
 11
12.6129
 21
251.5
  0
LINE
  8
0
 10
12.6129
 20
251.5
 11
12.5884
 21
251.11
  0
LINE
  8
0
 10
12.5884
 20
251.11
 11
12.5151
 21
250.726
  0
LINE
  8
0
 10
12.5151
 20
250.726
 11
12.3943
 21
250.354
  0
LINE
  8
0
 10
12.3943
 20
250.354
 11
12.2279
 21
250
  0
LINE
  8
0
 10
12.2279
 20
250
 11
12.0184
 21
249.67
  0
LINE
  8
0
 10
12.0184
 20
249.67
 11
11.7692
 21
249.369
  0
LINE
  8
0
 10
11.7692
 20
249.369
 11
11.4842
 21
249.101
  0
LINE
  8
0
 10
11.4842
 20
249.101
 11
11.168
 21
248.872
  0
LINE
  8
0
 10
11.168
 20
248.872
 11
10.8254
 21
248.683
  0
LINE
  8
0
 10
10.8254
 20
248.683
 11
10.4619
 21
248.539
  0
LINE
  8
0
 10
10.4619
 20
248.539
 11
10.0833
 21
248.442
  0
LINE
  8
0
 10
10.0833
 20
248.442
 11
9.69545
 21
248.393
  0
LINE
  8
0
 10
9.69545
 20
248.393
 11
-9.69545
 21
248.393
  0
LINE
  8
0
 10
10.9369
 20
177.089
 11
11.5451
 21
177.245
  0
LINE
  8
0
 10
11.5451
 20
177.245
 11
12.1289
 21
177.476
  0
LINE
  8
0
 10
12.1289
 20
177.476
 11
12.6791
 21
177.778
  0
LINE
  8
0
 10
12.6791
 20
177.778
 11
13.1871
 21
178.147
  0
LINE
  8
0
 10
13.1871
 20
178.147
 11
13.6448
 21
178.577
  0
LINE
  8
0
 10
13.6448
 20
178.577
 11
14.0451
 21
179.061
  0
LINE
  8
0
 10
14.0451
 20
179.061
 11
14.3815
 21
179.591
  0
LINE
  8
0
 10
14.3815
 20
179.591
 11
14.6489
 21
180.159
  0
LINE
  8
0
 10
14.6489
 20
180.159
 11
14.8429
 21
180.757
  0
LINE
  8
0
 10
14.8429
 20
180.757
 11
14.9606
 21
181.373
  0
LINE
  8
0
 10
14.9606
 20
181.373
 11
15
 21
182
  0
LINE
  8
0
 10
15
 20
182
 11
15
 21
232
  0
LINE
  8
0
 10
15
 20
232
 11
14.9606
 21
232.627
  0
LINE
  8
0
 10
14.9606
 20
232.627
 11
14.8429
 21
233.243
  0
LINE
  8
0
 10
14.8429
 20
233.243
 11
14.6489
 21
233.841
  0
LINE
  8
0
 10
14.6489
 20
233.841
 11
14.3815
 21
234.409
  0
LINE
  8
0
 10
14.3815
 20
234.409
 11
14.0451
 21
234.939
  0
LINE
  8
0
 10
14.0451
 20
234.939
 11
13.6448
 21
235.423
  0
LINE
  8
0
 10
13.6448
 20
235.423
 11
13.1871
 21
235.853
  0
LINE
  8
0
 10
13.1871
 20
235.853
 11
12.6791
 21
236.222
  0
LINE
  8
0
 10
12.6791
 20
236.222
 11
12.1289
 21
236.524
  0
LINE
  8
0
 10
12.1289
 20
236.524
 11
11.5451
 21
236.755
  0
LINE
  8
0
 10
11.5451
 20
236.755
 11
10.9369
 21
236.911
  0
LINE
  8
0
 10
10.9369
 20
236.911
 11
10.3139
 21
236.99
  0
LINE
  8
0
 10
10.3139
 20
236.99
 11
-10.3139
 21
236.99
  0
LINE
  8
0
 10
-10.3139
 20
236.99
 11
-10.9369
 21
236.911
  0
LINE
  8
0
 10
-10.9369
 20
236.911
 11
-11.5451
 21
236.755
  0
LINE
  8
0
 10
-11.5451
 20
236.755
 11
-12.1289
 21
236.524
  0
LINE
  8
0
 10
-12.1289
 20
236.524
 11
-12.6791
 21
236.222
  0
LINE
  8
0
 10
-12.6791
 20
236.222
 11
-13.1871
 21
235.853
  0
LINE
  8
0
 10
-13.1871
 20
235.853
 11
-13.6448
 21
235.423
  0
LINE
  8
0
 10
-13.6448
 20
235.423
 11
-14.0451
 21
234.939
  0
LINE
  8
0
 10
-14.0451
 20
234.939
 11
-14.3815
 21
234.409
  0
LINE
  8
0
 10
-14.3815
 20
234.409
 11
-14.6489
 21
233.841
  0
LINE
  8
0
 10
-14.6489
 20
233.841
 11
-14.8429
 21
233.243
  0
LINE
  8
0
 10
-14.8429
 20
233.243
 11
-14.9606
 21
232.627
  0
LINE
  8
0
 10
-14.9606
 20
232.627
 11
-15
 21
232
  0
LINE
  8
0
 10
-15
 20
232
 11
-15
 21
182
  0
LINE
  8
0
 10
-15
 20
182
 11
-14.9606
 21
181.373
  0
LINE
  8
0
 10
-14.9606
 20
181.373
 11
-14.8429
 21
180.757
  0
LINE
  8
0
 10
-14.8429
 20
180.757
 11
-14.6489
 21
180.159
  0
LINE
  8
0
 10
-14.6489
 20
180.159
 11
-14.3815
 21
179.591
  0
LINE
  8
0
 10
-14.3815
 20
179.591
 11
-14.0451
 21
179.061
  0
LINE
  8
0
 10
-14.0451
 20
179.061
 11
-13.6448
 21
178.577
  0
LINE
  8
0
 10
-13.6448
 20
178.577
 11
-13.1871
 21
178.147
  0
LINE
  8
0
 10
-13.1871
 20
178.147
 11
-12.6791
 21
177.778
  0
LINE
  8
0
 10
-12.6791
 20
177.778
 11
-12.1289
 21
177.476
  0
LINE
  8
0
 10
-12.1289
 20
177.476
 11
-11.5451
 21
177.245
  0
LINE
  8
0
 10
-11.5451
 20
177.245
 11
-10.9369
 21
177.089
  0
LINE
  8
0
 10
-10.9369
 20
177.089
 11
-10.3139
 21
177.01
  0
LINE
  8
0
 10
-10.3139
 20
177.01
 11
10.3139
 21
177.01
  0
LINE
  8
0
 10
10.3139
 20
177.01
 11
10.9369
 21
177.089
  0
LINE
  8
0
 10
7.36592
 20
227.369
 11
7.09988
 21
227.403
  0
LINE
  8
0
 10
7.09988
 20
227.403
 11
6.84015
 21
227.469
  0
LINE
  8
0
 10
6.84015
 20
227.469
 11
6.59084
 21
227.568
  0
LINE
  8
0
 10
6.59084
 20
227.568
 11
6.35585
 21
227.697
  0
LINE
  8
0
 10
6.35585
 20
227.697
 11
6.1389
 21
227.855
  0
LINE
  8
0
 10
6.1389
 20
227.855
 11
5.94344
 21
228.038
  0
LINE
  8
0
 10
5.94344
 20
228.038
 11
5.77251
 21
228.245
  0
LINE
  8
0
 10
5.77251
 20
228.245
 11
5.62881
 21
228.471
  0
LINE
  8
0
 10
5.62881
 20
228.471
 11
5.51465
 21
228.714
  0
LINE
  8
0
 10
5.51465
 20
228.714
 11
5.43178
 21
228.969
  0
LINE
  8
0
 10
5.43178
 20
228.969
 11
5.38153
 21
229.232
  0
LINE
  8
0
 10
5.38153
 20
229.232
 11
5.3647
 21
229.5
  0
LINE
  8
0
 10
5.3647
 20
229.5
 11
5.38153
 21
229.768
  0
LINE
  8
0
 10
5.38153
 20
229.768
 11
5.43178
 21
230.031
  0
LINE
  8
0
 10
5.43178
 20
230.031
 11
5.51465
 21
230.286
  0
LINE
  8
0
 10
5.51465
 20
230.286
 11
5.62881
 21
230.529
  0
LINE
  8
0
 10
5.62881
 20
230.529
 11
5.77251
 21
230.755
  0
LINE
  8
0
 10
5.77251
 20
230.755
 11
5.94344
 21
230.962
  0
LINE
  8
0
 10
5.94344
 20
230.962
 11
6.1389
 21
231.145
  0
LINE
  8
0
 10
6.1389
 20
231.145
 11
6.35585
 21
231.303
  0
LINE
  8
0
 10
6.35585
 20
231.303
 11
6.59084
 21
231.432
  0
LINE
  8
0
 10
6.59084
 20
231.432
 11
6.84015
 21
231.531
  0
LINE
  8
0
 10
6.84015
 20
231.531
 11
7.09988
 21
231.597
  0
LINE
  8
0
 10
7.09988
 20
231.597
 11
7.36592
 21
231.631
  0
LINE
  8
0
 10
7.36592
 20
231.631
 11
7.63406
 21
231.631
  0
LINE
  8
0
 10
7.63406
 20
231.631
 11
7.9001
 21
231.597
  0
LINE
  8
0
 10
7.9001
 20
231.597
 11
8.15984
 21
231.531
  0
LINE
  8
0
 10
8.15984
 20
231.531
 11
8.40915
 21
231.432
  0
LINE
  8
0
 10
8.40915
 20
231.432
 11
8.64413
 21
231.303
  0
LINE
  8
0
 10
8.64413
 20
231.303
 11
8.86108
 21
231.145
  0
LINE
  8
0
 10
8.86108
 20
231.145
 11
9.05655
 21
230.962
  0
LINE
  8
0
 10
9.05655
 20
230.962
 11
9.22748
 21
230.755
  0
LINE
  8
0
 10
9.22748
 20
230.755
 11
9.37117
 21
230.529
  0
LINE
  8
0
 10
9.37117
 20
230.529
 11
9.48534
 21
230.286
  0
LINE
  8
0
 10
9.48534
 20
230.286
 11
9.56821
 21
230.031
  0
LINE
  8
0
 10
9.56821
 20
230.031
 11
9.61845
 21
229.768
  0
LINE
  8
0
 10
9.61845
 20
229.768
 11
9.63528
 21
229.5
  0
LINE
  8
0
 10
9.63528
 20
229.5
 11
9.61845
 21
229.232
  0
LINE
  8
0
 10
9.61845
 20
229.232
 11
9.56821
 21
228.969
  0
LINE
  8
0
 10
9.56821
 20
228.969
 11
9.48534
 21
228.714
  0
LINE
  8
0
 10
9.48534
 20
228.714
 11
9.37117
 21
228.471
  0
LINE
  8
0
 10
9.37117
 20
228.471
 11
9.22748
 21
228.245
  0
LINE
  8
0
 10
9.22748
 20
228.245
 11
9.05655
 21
228.038
  0
LINE
  8
0
 10
9.05655
 20
228.038
 11
8.86108
 21
227.855
  0
LINE
  8
0
 10
8.86108
 20
227.855
 11
8.64413
 21
227.697
  0
LINE
  8
0
 10
8.64413
 20
227.697
 11
8.40915
 21
227.568
  0
LINE
  8
0
 10
8.40915
 20
227.568
 11
8.15984
 21
227.469
  0
LINE
  8
0
 10
8.15984
 20
227.469
 11
7.9001
 21
227.403
  0
LINE
  8
0
 10
7.9001
 20
227.403
 11
7.63406
 21
227.369
  0
LINE
  8
0
 10
7.63406
 20
227.369
 11
7.36592
 21
227.369
  0
LINE
  8
0
 10
-7.63406
 20
227.369
 11
-7.9001
 21
227.403
  0
LINE
  8
0
 10
-7.9001
 20
227.403
 11
-8.15984
 21
227.469
  0
LINE
  8
0
 10
-8.15984
 20
227.469
 11
-8.40915
 21
227.568
  0
LINE
  8
0
 10
-8.40915
 20
227.568
 11
-8.64413
 21
227.697
  0
LINE
  8
0
 10
-8.64413
 20
227.697
 11
-8.86108
 21
227.855
  0
LINE
  8
0
 10
-8.86108
 20
227.855
 11
-9.05655
 21
228.038
  0
LINE
  8
0
 10
-9.05655
 20
228.038
 11
-9.22748
 21
228.245
  0
LINE
  8
0
 10
-9.22748
 20
228.245
 11
-9.37117
 21
228.471
  0
LINE
  8
0
 10
-9.37117
 20
228.471
 11
-9.48534
 21
228.714
  0
LINE
  8
0
 10
-9.48534
 20
228.714
 11
-9.56821
 21
228.969
  0
LINE
  8
0
 10
-9.56821
 20
228.969
 11
-9.61845
 21
229.232
  0
LINE
  8
0
 10
-9.61845
 20
229.232
 11
-9.63528
 21
229.5
  0
LINE
  8
0
 10
-9.63528
 20
229.5
 11
-9.61845
 21
229.768
  0
LINE
  8
0
 10
-9.61845
 20
229.768
 11
-9.56821
 21
230.031
  0
LINE
  8
0
 10
-9.56821
 20
230.031
 11
-9.48534
 21
230.286
  0
LINE
  8
0
 10
-9.48534
 20
230.286
 11
-9.37117
 21
230.529
  0
LINE
  8
0
 10
-9.37117
 20
230.529
 11
-9.22748
 21
230.755
  0
LINE
  8
0
 10
-9.22748
 20
230.755
 11
-9.05655
 21
230.962
  0
LINE
  8
0
 10
-9.05655
 20
230.962
 11
-8.86108
 21
231.145
  0
LINE
  8
0
 10
-8.86108
 20
231.145
 11
-8.64413
 21
231.303
  0
LINE
  8
0
 10
-8.64413
 20
231.303
 11
-8.40915
 21
231.432
  0
LINE
  8
0
 10
-8.40915
 20
231.432
 11
-8.15984
 21
231.531
  0
LINE
  8
0
 10
-8.15984
 20
231.531
 11
-7.9001
 21
231.597
  0
LINE
  8
0
 10
-7.9001
 20
231.597
 11
-7.63406
 21
231.631
  0
LINE
  8
0
 10
-7.63406
 20
231.631
 11
-7.36592
 21
231.631
  0
LINE
  8
0
 10
-7.36592
 20
231.631
 11
-7.09988
 21
231.597
  0
LINE
  8
0
 10
-7.09988
 20
231.597
 11
-6.84015
 21
231.531
  0
LINE
  8
0
 10
-6.84015
 20
231.531
 11
-6.59084
 21
231.432
  0
LINE
  8
0
 10
-6.59084
 20
231.432
 11
-6.35585
 21
231.303
  0
LINE
  8
0
 10
-6.35585
 20
231.303
 11
-6.1389
 21
231.145
  0
LINE
  8
0
 10
-6.1389
 20
231.145
 11
-5.94344
 21
230.962
  0
LINE
  8
0
 10
-5.94344
 20
230.962
 11
-5.77251
 21
230.755
  0
LINE
  8
0
 10
-5.77251
 20
230.755
 11
-5.62881
 21
230.529
  0
LINE
  8
0
 10
-5.62881
 20
230.529
 11
-5.51465
 21
230.286
  0
LINE
  8
0
 10
-5.51465
 20
230.286
 11
-5.43178
 21
230.031
  0
LINE
  8
0
 10
-5.43178
 20
230.031
 11
-5.38153
 21
229.768
  0
LINE
  8
0
 10
-5.38153
 20
229.768
 11
-5.3647
 21
229.5
  0
LINE
  8
0
 10
-5.3647
 20
229.5
 11
-5.38153
 21
229.232
  0
LINE
  8
0
 10
-5.38153
 20
229.232
 11
-5.43178
 21
228.969
  0
LINE
  8
0
 10
-5.43178
 20
228.969
 11
-5.51465
 21
228.714
  0
LINE
  8
0
 10
-5.51465
 20
228.714
 11
-5.62881
 21
228.471
  0
LINE
  8
0
 10
-5.62881
 20
228.471
 11
-5.77251
 21
228.245
  0
LINE
  8
0
 10
-5.77251
 20
228.245
 11
-5.94344
 21
228.038
  0
LINE
  8
0
 10
-5.94344
 20
228.038
 11
-6.1389
 21
227.855
  0
LINE
  8
0
 10
-6.1389
 20
227.855
 11
-6.35585
 21
227.697
  0
LINE
  8
0
 10
-6.35585
 20
227.697
 11
-6.59084
 21
227.568
  0
LINE
  8
0
 10
-6.59084
 20
227.568
 11
-6.84015
 21
227.469
  0
LINE
  8
0
 10
-6.84015
 20
227.469
 11
-7.09988
 21
227.403
  0
LINE
  8
0
 10
-7.09988
 20
227.403
 11
-7.36592
 21
227.369
  0
LINE
  8
0
 10
-7.36592
 20
227.369
 11
-7.63406
 21
227.369
  0
LINE
  8
0
 10
7.36592
 20
182.369
 11
7.09988
 21
182.403
  0
LINE
  8
0
 10
7.09988
 20
182.403
 11
6.84015
 21
182.469
  0
LINE
  8
0
 10
6.84015
 20
182.469
 11
6.59084
 21
182.568
  0
LINE
  8
0
 10
6.59084
 20
182.568
 11
6.35585
 21
182.697
  0
LINE
  8
0
 10
6.35585
 20
182.697
 11
6.1389
 21
182.855
  0
LINE
  8
0
 10
6.1389
 20
182.855
 11
5.94344
 21
183.038
  0
LINE
  8
0
 10
5.94344
 20
183.038
 11
5.77251
 21
183.245
  0
LINE
  8
0
 10
5.77251
 20
183.245
 11
5.62881
 21
183.471
  0
LINE
  8
0
 10
5.62881
 20
183.471
 11
5.51465
 21
183.714
  0
LINE
  8
0
 10
5.51465
 20
183.714
 11
5.43178
 21
183.969
  0
LINE
  8
0
 10
5.43178
 20
183.969
 11
5.38153
 21
184.232
  0
LINE
  8
0
 10
5.38153
 20
184.232
 11
5.3647
 21
184.5
  0
LINE
  8
0
 10
5.3647
 20
184.5
 11
5.38153
 21
184.768
  0
LINE
  8
0
 10
5.38153
 20
184.768
 11
5.43178
 21
185.031
  0
LINE
  8
0
 10
5.43178
 20
185.031
 11
5.51465
 21
185.286
  0
LINE
  8
0
 10
5.51465
 20
185.286
 11
5.62881
 21
185.529
  0
LINE
  8
0
 10
5.62881
 20
185.529
 11
5.77251
 21
185.755
  0
LINE
  8
0
 10
5.77251
 20
185.755
 11
5.94344
 21
185.962
  0
LINE
  8
0
 10
5.94344
 20
185.962
 11
6.1389
 21
186.145
  0
LINE
  8
0
 10
6.1389
 20
186.145
 11
6.35585
 21
186.303
  0
LINE
  8
0
 10
6.35585
 20
186.303
 11
6.59084
 21
186.432
  0
LINE
  8
0
 10
6.59084
 20
186.432
 11
6.84015
 21
186.531
  0
LINE
  8
0
 10
6.84015
 20
186.531
 11
7.09988
 21
186.597
  0
LINE
  8
0
 10
7.09988
 20
186.597
 11
7.36592
 21
186.631
  0
LINE
  8
0
 10
7.36592
 20
186.631
 11
7.63406
 21
186.631
  0
LINE
  8
0
 10
7.63406
 20
186.631
 11
7.9001
 21
186.597
  0
LINE
  8
0
 10
7.9001
 20
186.597
 11
8.15984
 21
186.531
  0
LINE
  8
0
 10
8.15984
 20
186.531
 11
8.40915
 21
186.432
  0
LINE
  8
0
 10
8.40915
 20
186.432
 11
8.64413
 21
186.303
  0
LINE
  8
0
 10
8.64413
 20
186.303
 11
8.86108
 21
186.145
  0
LINE
  8
0
 10
8.86108
 20
186.145
 11
9.05655
 21
185.962
  0
LINE
  8
0
 10
9.05655
 20
185.962
 11
9.22748
 21
185.755
  0
LINE
  8
0
 10
9.22748
 20
185.755
 11
9.37117
 21
185.529
  0
LINE
  8
0
 10
9.37117
 20
185.529
 11
9.48534
 21
185.286
  0
LINE
  8
0
 10
9.48534
 20
185.286
 11
9.56821
 21
185.031
  0
LINE
  8
0
 10
9.56821
 20
185.031
 11
9.61845
 21
184.768
  0
LINE
  8
0
 10
9.61845
 20
184.768
 11
9.63528
 21
184.5
  0
LINE
  8
0
 10
9.63528
 20
184.5
 11
9.61845
 21
184.232
  0
LINE
  8
0
 10
9.61845
 20
184.232
 11
9.56821
 21
183.969
  0
LINE
  8
0
 10
9.56821
 20
183.969
 11
9.48534
 21
183.714
  0
LINE
  8
0
 10
9.48534
 20
183.714
 11
9.37117
 21
183.471
  0
LINE
  8
0
 10
9.37117
 20
183.471
 11
9.22748
 21
183.245
  0
LINE
  8
0
 10
9.22748
 20
183.245
 11
9.05655
 21
183.038
  0
LINE
  8
0
 10
9.05655
 20
183.038
 11
8.86108
 21
182.855
  0
LINE
  8
0
 10
8.86108
 20
182.855
 11
8.64413
 21
182.697
  0
LINE
  8
0
 10
8.64413
 20
182.697
 11
8.40915
 21
182.568
  0
LINE
  8
0
 10
8.40915
 20
182.568
 11
8.15984
 21
182.469
  0
LINE
  8
0
 10
8.15984
 20
182.469
 11
7.9001
 21
182.403
  0
LINE
  8
0
 10
7.9001
 20
182.403
 11
7.63406
 21
182.369
  0
LINE
  8
0
 10
7.63406
 20
182.369
 11
7.36592
 21
182.369
  0
LINE
  8
0
 10
-7.63406
 20
182.369
 11
-7.9001
 21
182.403
  0
LINE
  8
0
 10
-7.9001
 20
182.403
 11
-8.15984
 21
182.469
  0
LINE
  8
0
 10
-8.15984
 20
182.469
 11
-8.40915
 21
182.568
  0
LINE
  8
0
 10
-8.40915
 20
182.568
 11
-8.64413
 21
182.697
  0
LINE
  8
0
 10
-8.64413
 20
182.697
 11
-8.86108
 21
182.855
  0
LINE
  8
0
 10
-8.86108
 20
182.855
 11
-9.05655
 21
183.038
  0
LINE
  8
0
 10
-9.05655
 20
183.038
 11
-9.22748
 21
183.245
  0
LINE
  8
0
 10
-9.22748
 20
183.245
 11
-9.37117
 21
183.471
  0
LINE
  8
0
 10
-9.37117
 20
183.471
 11
-9.48534
 21
183.714
  0
LINE
  8
0
 10
-9.48534
 20
183.714
 11
-9.56821
 21
183.969
  0
LINE
  8
0
 10
-9.56821
 20
183.969
 11
-9.61845
 21
184.232
  0
LINE
  8
0
 10
-9.61845
 20
184.232
 11
-9.63528
 21
184.5
  0
LINE
  8
0
 10
-9.63528
 20
184.5
 11
-9.61845
 21
184.768
  0
LINE
  8
0
 10
-9.61845
 20
184.768
 11
-9.56821
 21
185.031
  0
LINE
  8
0
 10
-9.56821
 20
185.031
 11
-9.48534
 21
185.286
  0
LINE
  8
0
 10
-9.48534
 20
185.286
 11
-9.37117
 21
185.529
  0
LINE
  8
0
 10
-9.37117
 20
185.529
 11
-9.22748
 21
185.755
  0
LINE
  8
0
 10
-9.22748
 20
185.755
 11
-9.05655
 21
185.962
  0
LINE
  8
0
 10
-9.05655
 20
185.962
 11
-8.86108
 21
186.145
  0
LINE
  8
0
 10
-8.86108
 20
186.145
 11
-8.64413
 21
186.303
  0
LINE
  8
0
 10
-8.64413
 20
186.303
 11
-8.40915
 21
186.432
  0
LINE
  8
0
 10
-8.40915
 20
186.432
 11
-8.15984
 21
186.531
  0
LINE
  8
0
 10
-8.15984
 20
186.531
 11
-7.9001
 21
186.597
  0
LINE
  8
0
 10
-7.9001
 20
186.597
 11
-7.63406
 21
186.631
  0
LINE
  8
0
 10
-7.63406
 20
186.631
 11
-7.36592
 21
186.631
  0
LINE
  8
0
 10
-7.36592
 20
186.631
 11
-7.09988
 21
186.597
  0
LINE
  8
0
 10
-7.09988
 20
186.597
 11
-6.84015
 21
186.531
  0
LINE
  8
0
 10
-6.84015
 20
186.531
 11
-6.59084
 21
186.432
  0
LINE
  8
0
 10
-6.59084
 20
186.432
 11
-6.35585
 21
186.303
  0
LINE
  8
0
 10
-6.35585
 20
186.303
 11
-6.1389
 21
186.145
  0
LINE
  8
0
 10
-6.1389
 20
186.145
 11
-5.94344
 21
185.962
  0
LINE
  8
0
 10
-5.94344
 20
185.962
 11
-5.77251
 21
185.755
  0
LINE
  8
0
 10
-5.77251
 20
185.755
 11
-5.62881
 21
185.529
  0
LINE
  8
0
 10
-5.62881
 20
185.529
 11
-5.51465
 21
185.286
  0
LINE
  8
0
 10
-5.51465
 20
185.286
 11
-5.43178
 21
185.031
  0
LINE
  8
0
 10
-5.43178
 20
185.031
 11
-5.38153
 21
184.768
  0
LINE
  8
0
 10
-5.38153
 20
184.768
 11
-5.3647
 21
184.5
  0
LINE
  8
0
 10
-5.3647
 20
184.5
 11
-5.38153
 21
184.232
  0
LINE
  8
0
 10
-5.38153
 20
184.232
 11
-5.43178
 21
183.969
  0
LINE
  8
0
 10
-5.43178
 20
183.969
 11
-5.51465
 21
183.714
  0
LINE
  8
0
 10
-5.51465
 20
183.714
 11
-5.62881
 21
183.471
  0
LINE
  8
0
 10
-5.62881
 20
183.471
 11
-5.77251
 21
183.245
  0
LINE
  8
0
 10
-5.77251
 20
183.245
 11
-5.94344
 21
183.038
  0
LINE
  8
0
 10
-5.94344
 20
183.038
 11
-6.1389
 21
182.855
  0
LINE
  8
0
 10
-6.1389
 20
182.855
 11
-6.35585
 21
182.697
  0
LINE
  8
0
 10
-6.35585
 20
182.697
 11
-6.59084
 21
182.568
  0
LINE
  8
0
 10
-6.59084
 20
182.568
 11
-6.84015
 21
182.469
  0
LINE
  8
0
 10
-6.84015
 20
182.469
 11
-7.09988
 21
182.403
  0
LINE
  8
0
 10
-7.09988
 20
182.403
 11
-7.36592
 21
182.369
  0
LINE
  8
0
 10
-7.36592
 20
182.369
 11
-7.63406
 21
182.369
  0
ENDSEC
  0
SECTION
  2
OBJECTS
  0
DICTIONARY
  0
ENDSEC
  0
EOF
