<?xml version="1.0" standalone="no"?>
<!DOCTYPE svg PUBLIC "-//W3C//DTD SVG 1.1//EN" "http://www.w3.org/Graphics/SVG/1.1/DTD/svg11.dtd">
<svg width="60mm" height="412mm" viewBox="-30 -794 60 412" xmlns="http://www.w3.org/2000/svg" version="1.1">
<title>OpenSCAD Model</title>
<path d="
M 25.9369,-718.589 L 26.5451,-718.745 L 27.1289,-718.976 L 27.6791,-719.278 L 28.1871,-719.647 L 28.6448,-720.077
 L 29.0451,-720.561 L 29.3815,-721.091 L 29.6489,-721.659 L 29.8429,-722.257 L 29.9606,-722.873 L 30,-723.5
 L 30,-788.5 L 29.9606,-789.127 L 29.8429,-789.743 L 29.6489,-790.341 L 29.3815,-790.909 L 29.0451,-791.439
 L 28.6448,-791.923 L 28.1871,-792.353 L 27.6791,-792.722 L 27.1289,-793.024 L 26.5451,-793.255 L 25.9369,-793.411
 L 25.3139,-793.49 L -25.3139,-793.49 L -25.9369,-793.411 L -26.5451,-793.255 L -27.1289,-793.024 L -27.6791,-792.722
 L -28.1871,-792.353 L -28.6448,-791.923 L -29.0451,-791.439 L -29.3815,-790.909 L -29.6489,-790.341 L -29.8429,-789.743
 L -29.9606,-789.127 L -30,-788.5 L -30,-723.5 L -29.9606,-722.873 L -29.8429,-722.257 L -29.6489,-721.659
 L -29.3815,-721.091 L -29.0451,-720.561 L -28.6448,-720.077 L -28.1871,-719.647 L -27.6791,-719.278 L -27.1289,-718.976
 L -26.5451,-718.745 L -25.9369,-718.589 L -25.3139,-718.51 L 25.3139,-718.51 z
M -24.7512,-720.008 L -25.2495,-720.071 L -25.7361,-720.196 L -26.2031,-720.381 L -26.6433,-720.623 L -27.0497,-720.918
 L -27.4159,-721.262 L -27.7361,-721.649 L -28.0052,-722.073 L -28.2191,-722.528 L -28.3743,-723.005 L -28.4684,-723.499
 L -28.5,-724 L -28.5,-788 L -28.4684,-788.501 L -28.3743,-788.995 L -28.2191,-789.472 L -28.0052,-789.927
 L -27.7361,-790.351 L -27.4159,-790.738 L -27.0497,-791.082 L -26.6433,-791.377 L -26.2031,-791.619 L -25.7361,-791.804
 L -25.2495,-791.929 L -24.7512,-791.992 L 24.7512,-791.992 L 25.2495,-791.929 L 25.7361,-791.804 L 26.2031,-791.619
 L 26.6433,-791.377 L 27.0497,-791.082 L 27.4159,-790.738 L 27.7361,-790.351 L 28.0052,-789.927 L 28.2191,-789.472
 L 28.3743,-788.995 L 28.4684,-788.501 L 28.5,-788 L 28.5,-724 L 28.4684,-723.499 L 28.3743,-723.005
 L 28.2191,-722.528 L 28.0052,-722.073 L 27.7361,-721.649 L 27.4159,-721.262 L 27.0497,-720.918 L 26.6433,-720.623
 L 26.2031,-720.381 L 25.7361,-720.196 L 25.2495,-720.071 L 24.7512,-720.008 z
M 25.9369,-634.589 L 26.5451,-634.745 L 27.1289,-634.976 L 27.6791,-635.278 L 28.1871,-635.647 L 28.6448,-636.077
 L 29.0451,-636.561 L 29.3815,-637.091 L 29.6489,-637.659 L 29.8429,-638.257 L 29.9606,-638.873 L 30,-639.5
 L 30,-704.5 L 29.9606,-705.127 L 29.8429,-705.743 L 29.6489,-706.341 L 29.3815,-706.909 L 29.0451,-707.439
 L 28.6448,-707.923 L 28.1871,-708.353 L 27.6791,-708.722 L 27.1289,-709.024 L 26.5451,-709.255 L 25.9369,-709.411
 L 25.3139,-709.49 L -25.3139,-709.49 L -25.9369,-709.411 L -26.5451,-709.255 L -27.1289,-709.024 L -27.6791,-708.722
 L -28.1871,-708.353 L -28.6448,-707.923 L -29.0451,-707.439 L -29.3815,-706.909 L -29.6489,-706.341 L -29.8429,-705.743
 L -29.9606,-705.127 L -30,-704.5 L -30,-639.5 L -29.9606,-638.873 L -29.8429,-638.257 L -29.6489,-637.659
 L -29.3815,-637.091 L -29.0451,-636.561 L -28.6448,-636.077 L -28.1871,-635.647 L -27.6791,-635.278 L -27.1289,-634.976
 L -26.5451,-634.745 L -25.9369,-634.589 L -25.3139,-634.51 L 25.3139,-634.51 z
M -24.7512,-636.008 L -25.2495,-636.071 L -25.7361,-636.196 L -26.2031,-636.381 L -26.6433,-636.623 L -27.0497,-636.918
 L -27.4159,-637.262 L -27.7361,-637.649 L -28.0052,-638.073 L -28.2191,-638.528 L -28.3743,-639.005 L -28.4684,-639.499
 L -28.5,-640 L -28.5,-704 L -28.4684,-704.501 L -28.3743,-704.995 L -28.2191,-705.472 L -28.0052,-705.927
 L -27.7361,-706.351 L -27.4159,-706.738 L -27.0497,-707.082 L -26.6433,-707.377 L -26.2031,-707.619 L -25.7361,-707.804
 L -25.2495,-707.929 L -24.7512,-707.992 L 24.7512,-707.992 L 25.2495,-707.929 L 25.7361,-707.804 L 26.2031,-707.619
 L 26.6433,-707.377 L 27.0497,-707.082 L 27.4159,-706.738 L 27.7361,-706.351 L 28.0052,-705.927 L 28.2191,-705.472
 L 28.3743,-704.995 L 28.4684,-704.501 L 28.5,-704 L 28.5,-640 L 28.4684,-639.499 L 28.3743,-639.005
 L 28.2191,-638.528 L 28.0052,-638.073 L 27.7361,-637.649 L 27.4159,-637.262 L 27.0497,-636.918 L 26.6433,-636.623
 L 26.2031,-636.381 L 25.7361,-636.196 L 25.2495,-636.071 L 24.7512,-636.008 z
M 25.9369,-550.589 L 26.5451,-550.745 L 27.1289,-550.976 L 27.6791,-551.278 L 28.1871,-551.647 L 28.6448,-552.077
 L 29.0451,-552.561 L 29.3815,-553.091 L 29.6489,-553.659 L 29.8429,-554.257 L 29.9606,-554.873 L 30,-555.5
 L 30,-620.5 L 29.9606,-621.127 L 29.8429,-621.743 L 29.6489,-622.341 L 29.3815,-622.909 L 29.0451,-623.439
 L 28.6448,-623.923 L 28.1871,-624.353 L 27.6791,-624.722 L 27.1289,-625.024 L 26.5451,-625.255 L 25.9369,-625.411
 L 25.3139,-625.49 L -25.3139,-625.49 L -25.9369,-625.411 L -26.5451,-625.255 L -27.1289,-625.024 L -27.6791,-624.722
 L -28.1871,-624.353 L -28.6448,-623.923 L -29.0451,-623.439 L -29.3815,-622.909 L -29.6489,-622.341 L -29.8429,-621.743
 L -29.9606,-621.127 L -30,-620.5 L -30,-555.5 L -29.9606,-554.873 L -29.8429,-554.257 L -29.6489,-553.659
 L -29.3815,-553.091 L -29.0451,-552.561 L -28.6448,-552.077 L -28.1871,-551.647 L -27.6791,-551.278 L -27.1289,-550.976
 L -26.5451,-550.745 L -25.9369,-550.589 L -25.3139,-550.51 L 25.3139,-550.51 z
M -24.7512,-552.008 L -25.2495,-552.071 L -25.7361,-552.196 L -26.2031,-552.381 L -26.6433,-552.623 L -27.0497,-552.918
 L -27.4159,-553.262 L -27.7361,-553.649 L -28.0052,-554.073 L -28.2191,-554.528 L -28.3743,-555.005 L -28.4684,-555.499
 L -28.5,-556 L -28.5,-620 L -28.4684,-620.501 L -28.3743,-620.995 L -28.2191,-621.472 L -28.0052,-621.927
 L -27.7361,-622.351 L -27.4159,-622.738 L -27.0497,-623.082 L -26.6433,-623.377 L -26.2031,-623.619 L -25.7361,-623.804
 L -25.2495,-623.929 L -24.7512,-623.992 L 24.7512,-623.992 L 25.2495,-623.929 L 25.7361,-623.804 L 26.2031,-623.619
 L 26.6433,-623.377 L 27.0497,-623.082 L 27.4159,-622.738 L 27.7361,-622.351 L 28.0052,-621.927 L 28.2191,-621.472
 L 28.3743,-620.995 L 28.4684,-620.501 L 28.5,-620 L 28.5,-556 L 28.4684,-555.499 L 28.3743,-555.005
 L 28.2191,-554.528 L 28.0052,-554.073 L 27.7361,-553.649 L 27.4159,-553.262 L 27.0497,-552.918 L 26.6433,-552.623
 L 26.2031,-552.381 L 25.7361,-552.196 L 25.2495,-552.071 L 24.7512,-552.008 z
M 25.9369,-466.589 L 26.5451,-466.745 L 27.1289,-466.976 L 27.6791,-467.278 L 28.1871,-467.647 L 28.6448,-468.077
 L 29.0451,-468.561 L 29.3815,-469.091 L 29.6489,-469.659 L 29.8429,-470.257 L 29.9606,-470.873 L 30,-471.5
 L 30,-536.5 L 29.9606,-537.127 L 29.8429,-537.743 L 29.6489,-538.341 L 29.3815,-538.909 L 29.0451,-539.439
 L 28.6448,-539.923 L 28.1871,-540.353 L 27.6791,-540.722 L 27.1289,-541.024 L 26.5451,-541.255 L 25.9369,-541.411
 L 25.3139,-541.49 L -25.3139,-541.49 L -25.9369,-541.411 L -26.5451,-541.255 L -27.1289,-541.024 L -27.6791,-540.722
 L -28.1871,-540.353 L -28.6448,-539.923 L -29.0451,-539.439 L -29.3815,-538.909 L -29.6489,-538.341 L -29.8429,-537.743
 L -29.9606,-537.127 L -30,-536.5 L -30,-471.5 L -29.9606,-470.873 L -29.8429,-470.257 L -29.6489,-469.659
 L -29.3815,-469.091 L -29.0451,-468.561 L -28.6448,-468.077 L -28.1871,-467.647 L -27.6791,-467.278 L -27.1289,-466.976
 L -26.5451,-466.745 L -25.9369,-466.589 L -25.3139,-466.51 L 25.3139,-466.51 z
M -24.6954,-468.893 L -25.0833,-468.942 L -25.4619,-469.039 L -25.8254,-469.183 L -26.168,-469.372 L -26.4842,-469.601
 L -26.7692,-469.869 L -27.0184,-470.17 L -27.2279,-470.5 L -27.3943,-470.854 L -27.5151,-471.226 L -27.5884,-471.61
 L -27.6129,-472 L -27.6129,-536 L -27.5884,-536.39 L -27.5151,-536.774 L -27.3943,-537.146 L -27.2279,-537.5
 L -27.0184,-537.83 L -26.7692,-538.131 L -26.4842,-538.399 L -26.168,-538.628 L -25.8254,-538.817 L -25.4619,-538.961
 L -25.0833,-539.058 L -24.6954,-539.107 L 24.6954,-539.107 L 25.0833,-539.058 L 25.4619,-538.961 L 25.8254,-538.817
 L 26.168,-538.628 L 26.4842,-538.399 L 26.7692,-538.131 L 27.0184,-537.83 L 27.2279,-537.5 L 27.3943,-537.146
 L 27.5151,-536.774 L 27.5884,-536.39 L 27.6129,-536 L 27.6129,-472 L 27.5884,-471.61 L 27.5151,-471.226
 L 27.3943,-470.854 L 27.2279,-470.5 L 27.0184,-470.17 L 26.7692,-469.869 L 26.4842,-469.601 L 26.168,-469.372
 L 25.8254,-469.183 L 25.4619,-469.039 L 25.0833,-468.942 L 24.6954,-468.893 z
M 25.9369,-382.589 L 26.5451,-382.745 L 27.1289,-382.976 L 27.6791,-383.278 L 28.1871,-383.647 L 28.6448,-384.077
 L 29.0451,-384.561 L 29.3815,-385.091 L 29.6489,-385.659 L 29.8429,-386.257 L 29.9606,-386.873 L 30,-387.5
 L 30,-452.5 L 29.9606,-453.127 L 29.8429,-453.743 L 29.6489,-454.341 L 29.3815,-454.909 L 29.0451,-455.439
 L 28.6448,-455.923 L 28.1871,-456.353 L 27.6791,-456.722 L 27.1289,-457.024 L 26.5451,-457.255 L 25.9369,-457.411
 L 25.3139,-457.49 L -25.3139,-457.49 L -25.9369,-457.411 L -26.5451,-457.255 L -27.1289,-457.024 L -27.6791,-456.722
 L -28.1871,-456.353 L -28.6448,-455.923 L -29.0451,-455.439 L -29.3815,-454.909 L -29.6489,-454.341 L -29.8429,-453.743
 L -29.9606,-453.127 L -30,-452.5 L -30,-387.5 L -29.9606,-386.873 L -29.8429,-386.257 L -29.6489,-385.659
 L -29.3815,-385.091 L -29.0451,-384.561 L -28.6448,-384.077 L -28.1871,-383.647 L -27.6791,-383.278 L -27.1289,-382.976
 L -26.5451,-382.745 L -25.9369,-382.589 L -25.3139,-382.51 L 25.3139,-382.51 z
M 22.3659,-447.869 L 22.0999,-447.903 L 21.8401,-447.969 L 21.5908,-448.068 L 21.3559,-448.197 L 21.1389,-448.355
 L 20.9434,-448.538 L 20.7725,-448.745 L 20.6288,-448.971 L 20.5146,-449.214 L 20.4318,-449.469 L 20.3815,-449.732
 L 20.3647,-450 L 20.3815,-450.268 L 20.4318,-450.531 L 20.5146,-450.786 L 20.6288,-451.029 L 20.7725,-451.255
 L 20.9434,-451.462 L 21.1389,-451.645 L 21.3559,-451.803 L 21.5908,-451.932 L 21.8401,-452.031 L 22.0999,-452.097
 L 22.3659,-452.131 L 22.6341,-452.131 L 22.9001,-452.097 L 23.1598,-452.031 L 23.4091,-451.932 L 23.6441,-451.803
 L 23.8611,-451.645 L 24.0565,-451.462 L 24.2275,-451.255 L 24.3712,-451.029 L 24.4853,-450.786 L 24.5682,-450.531
 L 24.6185,-450.268 L 24.6353,-450 L 24.6185,-449.732 L 24.5682,-449.469 L 24.4853,-449.214 L 24.3712,-448.971
 L 24.2275,-448.745 L 24.0565,-448.538 L 23.8611,-448.355 L 23.6441,-448.197 L 23.4091,-448.068 L 23.1598,-447.969
 L 22.9001,-447.903 L 22.6341,-447.869 z
M -22.6341,-447.869 L -22.9001,-447.903 L -23.1598,-447.969 L -23.4091,-448.068 L -23.6441,-448.197 L -23.8611,-448.355
 L -24.0565,-448.538 L -24.2275,-448.745 L -24.3712,-448.971 L -24.4853,-449.214 L -24.5682,-449.469 L -24.6185,-449.732
 L -24.6353,-450 L -24.6185,-450.268 L -24.5682,-450.531 L -24.4853,-450.786 L -24.3712,-451.029 L -24.2275,-451.255
 L -24.0565,-451.462 L -23.8611,-451.645 L -23.6441,-451.803 L -23.4091,-451.932 L -23.1598,-452.031 L -22.9001,-452.097
 L -22.6341,-452.131 L -22.3659,-452.131 L -22.0999,-452.097 L -21.8401,-452.031 L -21.5908,-451.932 L -21.3559,-451.803
 L -21.1389,-451.645 L -20.9434,-451.462 L -20.7725,-451.255 L -20.6288,-451.029 L -20.5146,-450.786 L -20.4318,-450.531
 L -20.3815,-450.268 L -20.3647,-450 L -20.3815,-449.732 L -20.4318,-449.469 L -20.5146,-449.214 L -20.6288,-448.971
 L -20.7725,-448.745 L -20.9434,-448.538 L -21.1389,-448.355 L -21.3559,-448.197 L -21.5908,-448.068 L -21.8401,-447.969
 L -22.0999,-447.903 L -22.3659,-447.869 z
M 22.3659,-387.869 L 22.0999,-387.903 L 21.8401,-387.969 L 21.5908,-388.068 L 21.3559,-388.197 L 21.1389,-388.355
 L 20.9434,-388.538 L 20.7725,-388.745 L 20.6288,-388.971 L 20.5146,-389.214 L 20.4318,-389.469 L 20.3815,-389.732
 L 20.3647,-390 L 20.3815,-390.268 L 20.4318,-390.531 L 20.5146,-390.786 L 20.6288,-391.029 L 20.7725,-391.255
 L 20.9434,-391.462 L 21.1389,-391.645 L 21.3559,-391.803 L 21.5908,-391.932 L 21.8401,-392.031 L 22.0999,-392.097
 L 22.3659,-392.131 L 22.6341,-392.131 L 22.9001,-392.097 L 23.1598,-392.031 L 23.4091,-391.932 L 23.6441,-391.803
 L 23.8611,-391.645 L 24.0565,-391.462 L 24.2275,-391.255 L 24.3712,-391.029 L 24.4853,-390.786 L 24.5682,-390.531
 L 24.6185,-390.268 L 24.6353,-390 L 24.6185,-389.732 L 24.5682,-389.469 L 24.4853,-389.214 L 24.3712,-388.971
 L 24.2275,-388.745 L 24.0565,-388.538 L 23.8611,-388.355 L 23.6441,-388.197 L 23.4091,-388.068 L 23.1598,-387.969
 L 22.9001,-387.903 L 22.6341,-387.869 z
M -22.6341,-387.869 L -22.9001,-387.903 L -23.1598,-387.969 L -23.4091,-388.068 L -23.6441,-388.197 L -23.8611,-388.355
 L -24.0565,-388.538 L -24.2275,-388.745 L -24.3712,-388.971 L -24.4853,-389.214 L -24.5682,-389.469 L -24.6185,-389.732
 L -24.6353,-390 L -24.6185,-390.268 L -24.5682,-390.531 L -24.4853,-390.786 L -24.3712,-391.029 L -24.2275,-391.255
 L -24.0565,-391.462 L -23.8611,-391.645 L -23.6441,-391.803 L -23.4091,-391.932 L -23.1598,-392.031 L -22.9001,-392.097
 L -22.6341,-392.131 L -22.3659,-392.131 L -22.0999,-392.097 L -21.8401,-392.031 L -21.5908,-391.932 L -21.3559,-391.803
 L -21.1389,-391.645 L -20.9434,-391.462 L -20.7725,-391.255 L -20.6288,-391.029 L -20.5146,-390.786 L -20.4318,-390.531
 L -20.3815,-390.268 L -20.3647,-390 L -20.3815,-389.732 L -20.4318,-389.469 L -20.5146,-389.214 L -20.6288,-388.971
 L -20.7725,-388.745 L -20.9434,-388.538 L -21.1389,-388.355 L -21.3559,-388.197 L -21.5908,-388.068 L -21.8401,-387.969
 L -22.0999,-387.903 L -22.3659,-387.869 z
" stroke="black" fill="lightgray" stroke-width="0.5"/>
</svg>
