<?xml version="1.0" standalone="no"?>
<!DOCTYPE svg PUBLIC "-//W3C//DTD SVG 1.1//EN" "http://www.w3.org/Graphics/SVG/1.1/DTD/svg11.dtd">
<svg width="46mm" height="40mm" viewBox="-23 -80 46 40" xmlns="http://www.w3.org/2000/svg" version="1.1">
<title>OpenSCAD Model</title>
<path d="
M 18.4369,-64.5886 L 19.0451,-64.7447 L 19.6289,-64.9759 L 20.1791,-65.2784 L 20.6871,-65.6474 L 21.1448,-66.0773
 L 21.5451,-66.5611 L 21.8815,-67.0912 L 22.1489,-67.6594 L 22.3429,-68.2566 L 22.4606,-68.8733 L 22.5,-69.5
 L 22.5,-74.5 L 22.4606,-75.1267 L 22.3429,-75.7434 L 22.1489,-76.3406 L 21.8815,-76.9088 L 21.5451,-77.4389
 L 21.1448,-77.9227 L 20.6871,-78.3526 L 20.1791,-78.7216 L 19.6289,-79.0241 L 19.0451,-79.2553 L 18.4369,-79.4114
 L 17.8139,-79.4901 L -17.8139,-79.4901 L -18.4369,-79.4114 L -19.0451,-79.2553 L -19.6289,-79.0241 L -20.1791,-78.7216
 L -20.6871,-78.3526 L -21.1448,-77.9227 L -21.5451,-77.4389 L -21.8815,-76.9088 L -22.1489,-76.3406 L -22.3429,-75.7434
 L -22.4606,-75.1267 L -22.5,-74.5 L -22.5,-69.5 L -22.4606,-68.8733 L -22.3429,-68.2566 L -22.1489,-67.6594
 L -21.8815,-67.0912 L -21.5451,-66.5611 L -21.1448,-66.0773 L -20.6871,-65.6474 L -20.1791,-65.2784 L -19.6289,-64.9759
 L -19.0451,-64.7447 L -18.4369,-64.5886 L -17.8139,-64.5099 L 17.8139,-64.5099 z
M -17.5375,-65.1806 L -18.1079,-65.2527 L -18.6648,-65.3956 L -19.1994,-65.6073 L -19.7032,-65.8843 L -20.1684,-66.2223
 L -20.5875,-66.6158 L -20.954,-67.0589 L -21.2621,-67.5443 L -21.5069,-68.0646 L -21.6846,-68.6114 L -21.7923,-69.1762
 L -21.8284,-69.75 L -21.8284,-74.25 L -21.7923,-74.8238 L -21.6846,-75.3886 L -21.5069,-75.9354 L -21.2621,-76.4557
 L -20.954,-76.9411 L -20.5875,-77.3842 L -20.1684,-77.7777 L -19.7032,-78.1157 L -19.1994,-78.3927 L -18.6648,-78.6044
 L -18.1079,-78.7473 L -17.5375,-78.8194 L 17.5375,-78.8194 L 18.1079,-78.7473 L 18.6648,-78.6044 L 19.1994,-78.3927
 L 19.7032,-78.1157 L 20.1684,-77.7777 L 20.5875,-77.3842 L 20.954,-76.9411 L 21.2621,-76.4557 L 21.5069,-75.9354
 L 21.6846,-75.3886 L 21.7923,-74.8238 L 21.8284,-74.25 L 21.8284,-69.75 L 21.7923,-69.1762 L 21.6846,-68.6114
 L 21.5069,-68.0646 L 21.2621,-67.5443 L 20.954,-67.0589 L 20.5875,-66.6158 L 20.1684,-66.2223 L 19.7032,-65.8843
 L 19.1994,-65.6073 L 18.6648,-65.3956 L 18.1079,-65.2527 L 17.5375,-65.1806 z
M 18.4369,-40.5886 L 19.0451,-40.7447 L 19.6289,-40.9759 L 20.1791,-41.2784 L 20.6871,-41.6474 L 21.1448,-42.0773
 L 21.5451,-42.5611 L 21.8815,-43.0912 L 22.1489,-43.6594 L 22.3429,-44.2566 L 22.4606,-44.8733 L 22.5,-45.5
 L 22.5,-50.5 L 22.4606,-51.1267 L 22.3429,-51.7434 L 22.1489,-52.3406 L 21.8815,-52.9088 L 21.5451,-53.4389
 L 21.1448,-53.9227 L 20.6871,-54.3526 L 20.1791,-54.7216 L 19.6289,-55.0241 L 19.0451,-55.2553 L 18.4369,-55.4114
 L 17.8139,-55.4901 L -17.8139,-55.4901 L -18.4369,-55.4114 L -19.0451,-55.2553 L -19.6289,-55.0241 L -20.1791,-54.7216
 L -20.6871,-54.3526 L -21.1448,-53.9227 L -21.5451,-53.4389 L -21.8815,-52.9088 L -22.1489,-52.3406 L -22.3429,-51.7434
 L -22.4606,-51.1267 L -22.5,-50.5 L -22.5,-45.5 L -22.4606,-44.8733 L -22.3429,-44.2566 L -22.1489,-43.6594
 L -21.8815,-43.0912 L -21.5451,-42.5611 L -21.1448,-42.0773 L -20.6871,-41.6474 L -20.1791,-41.2784 L -19.6289,-40.9759
 L -19.0451,-40.7447 L -18.4369,-40.5886 L -17.8139,-40.5099 L 17.8139,-40.5099 z
M -17.3825,-43.6445 L -17.6453,-43.6777 L -17.9019,-43.7436 L -18.1482,-43.8412 L -18.3804,-43.9688 L -18.5947,-44.1245
 L -18.7879,-44.3059 L -18.9567,-44.51 L -19.0987,-44.7337 L -19.2115,-44.9734 L -19.2934,-45.2254 L -19.343,-45.4856
 L -19.3596,-45.75 L -19.3596,-50.25 L -19.343,-50.5144 L -19.2934,-50.7746 L -19.2115,-51.0266 L -19.0987,-51.2663
 L -18.9567,-51.49 L -18.7879,-51.6941 L -18.5947,-51.8755 L -18.3804,-52.0312 L -18.1482,-52.1588 L -17.9019,-52.2564
 L -17.6453,-52.3223 L -17.3825,-52.3555 L 17.3825,-52.3555 L 17.6453,-52.3223 L 17.9019,-52.2564 L 18.1482,-52.1588
 L 18.3804,-52.0312 L 18.5947,-51.8755 L 18.7879,-51.6941 L 18.9567,-51.49 L 19.0987,-51.2663 L 19.2115,-51.0266
 L 19.2934,-50.7746 L 19.343,-50.5144 L 19.3596,-50.25 L 19.3596,-45.75 L 19.343,-45.4856 L 19.2934,-45.2254
 L 19.2115,-44.9734 L 19.0987,-44.7337 L 18.9567,-44.51 L 18.7879,-44.3059 L 18.5947,-44.1245 L 18.3804,-43.9688
 L 18.1482,-43.8412 L 17.9019,-43.7436 L 17.6453,-43.6777 L 17.3825,-43.6445 z
" stroke="black" fill="lightgray" stroke-width="0.5"/>
</svg>
