<?xml version="1.0" standalone="no"?>
<!DOCTYPE svg PUBLIC "-//W3C//DTD SVG 1.1//EN" "http://www.w3.org/Graphics/SVG/1.1/DTD/svg11.dtd">
<svg width="60mm" height="189mm" viewBox="-30 -243 60 189" xmlns="http://www.w3.org/2000/svg" version="1.1">
<title>OpenSCAD Model</title>
<path d="
M 25.9369,-153.089 L 26.5451,-153.245 L 27.1289,-153.476 L 27.6791,-153.778 L 28.1871,-154.147 L 28.6448,-154.577
 L 29.0451,-155.061 L 29.3815,-155.591 L 29.6489,-156.159 L 29.8429,-156.757 L 29.9606,-157.373 L 30,-158
 L 30,-238 L 29.9606,-238.627 L 29.8429,-239.243 L 29.6489,-239.841 L 29.3815,-240.409 L 29.0451,-240.939
 L 28.6448,-241.423 L 28.1871,-241.853 L 27.6791,-242.222 L 27.1289,-242.524 L 26.5451,-242.755 L 25.9369,-242.911
 L 25.3139,-242.99 L -25.3139,-242.99 L -25.9369,-242.911 L -26.5451,-242.755 L -27.1289,-242.524 L -27.6791,-242.222
 L -28.1871,-241.853 L -28.6448,-241.423 L -29.0451,-240.939 L -29.3815,-240.409 L -29.6489,-239.841 L -29.8429,-239.243
 L -29.9606,-238.627 L -30,-238 L -30,-158 L -29.9606,-157.373 L -29.8429,-156.757 L -29.6489,-156.159
 L -29.3815,-155.591 L -29.0451,-155.061 L -28.6448,-154.577 L -28.1871,-154.147 L -27.6791,-153.778 L -27.1289,-153.476
 L -26.5451,-153.245 L -25.9369,-153.089 L -25.3139,-153.01 L 25.3139,-153.01 z
M 25.9369,-54.0886 L 26.5451,-54.2447 L 27.1289,-54.4759 L 27.6791,-54.7784 L 28.1871,-55.1474 L 28.6448,-55.5773
 L 29.0451,-56.0611 L 29.3815,-56.5912 L 29.6489,-57.1594 L 29.8429,-57.7566 L 29.9606,-58.3733 L 30,-59
 L 30,-139 L 29.9606,-139.627 L 29.8429,-140.243 L 29.6489,-140.841 L 29.3815,-141.409 L 29.0451,-141.939
 L 28.6448,-142.423 L 28.1871,-142.853 L 27.6791,-143.222 L 27.1289,-143.524 L 26.5451,-143.755 L 25.9369,-143.911
 L 25.3139,-143.99 L -25.3139,-143.99 L -25.9369,-143.911 L -26.5451,-143.755 L -27.1289,-143.524 L -27.6791,-143.222
 L -28.1871,-142.853 L -28.6448,-142.423 L -29.0451,-141.939 L -29.3815,-141.409 L -29.6489,-140.841 L -29.8429,-140.243
 L -29.9606,-139.627 L -30,-139 L -30,-59 L -29.9606,-58.3733 L -29.8429,-57.7566 L -29.6489,-57.1594
 L -29.3815,-56.5912 L -29.0451,-56.0611 L -28.6448,-55.5773 L -28.1871,-55.1474 L -27.6791,-54.7784 L -27.1289,-54.4759
 L -26.5451,-54.2447 L -25.9369,-54.0886 L -25.3139,-54.0099 L 25.3139,-54.0099 z
M 22.387,-134.704 L 22.1627,-134.732 L 21.9438,-134.788 L 21.7336,-134.871 L 21.5355,-134.98 L 21.3526,-135.113
 L 21.1879,-135.268 L 21.0438,-135.442 L 20.9226,-135.633 L 20.8264,-135.837 L 20.7565,-136.052 L 20.7142,-136.274
 L 20.7,-136.5 L 20.7142,-136.726 L 20.7565,-136.948 L 20.8264,-137.163 L 20.9226,-137.367 L 21.0438,-137.558
 L 21.1879,-137.732 L 21.3526,-137.887 L 21.5355,-138.02 L 21.7336,-138.129 L 21.9438,-138.212 L 22.1627,-138.268
 L 22.387,-138.296 L 22.613,-138.296 L 22.8373,-138.268 L 23.0562,-138.212 L 23.2664,-138.129 L 23.4645,-138.02
 L 23.6474,-137.887 L 23.8121,-137.732 L 23.9562,-137.558 L 24.0773,-137.367 L 24.1736,-137.163 L 24.2434,-136.948
 L 24.2858,-136.726 L 24.3,-136.5 L 24.2858,-136.274 L 24.2434,-136.052 L 24.1736,-135.837 L 24.0773,-135.633
 L 23.9562,-135.442 L 23.8121,-135.268 L 23.6474,-135.113 L 23.4645,-134.98 L 23.2664,-134.871 L 23.0562,-134.788
 L 22.8373,-134.732 L 22.613,-134.704 z
M -22.613,-134.704 L -22.8373,-134.732 L -23.0562,-134.788 L -23.2664,-134.871 L -23.4645,-134.98 L -23.6474,-135.113
 L -23.8121,-135.268 L -23.9562,-135.442 L -24.0773,-135.633 L -24.1736,-135.837 L -24.2434,-136.052 L -24.2858,-136.274
 L -24.3,-136.5 L -24.2858,-136.726 L -24.2434,-136.948 L -24.1736,-137.163 L -24.0773,-137.367 L -23.9562,-137.558
 L -23.8121,-137.732 L -23.6474,-137.887 L -23.4645,-138.02 L -23.2664,-138.129 L -23.0562,-138.212 L -22.8373,-138.268
 L -22.613,-138.296 L -22.387,-138.296 L -22.1627,-138.268 L -21.9438,-138.212 L -21.7336,-138.129 L -21.5355,-138.02
 L -21.3526,-137.887 L -21.1879,-137.732 L -21.0438,-137.558 L -20.9226,-137.367 L -20.8264,-137.163 L -20.7565,-136.948
 L -20.7142,-136.726 L -20.7,-136.5 L -20.7142,-136.274 L -20.7565,-136.052 L -20.8264,-135.837 L -20.9226,-135.633
 L -21.0438,-135.442 L -21.1879,-135.268 L -21.3526,-135.113 L -21.5355,-134.98 L -21.7336,-134.871 L -21.9438,-134.788
 L -22.1627,-134.732 L -22.387,-134.704 z
M -22.613,-59.7036 L -22.8373,-59.7319 L -23.0562,-59.7881 L -23.2664,-59.8713 L -23.4645,-59.9802 L -23.6474,-60.1131
 L -23.8121,-60.2678 L -23.9562,-60.442 L -24.0773,-60.6328 L -24.1736,-60.8374 L -24.2434,-61.0524 L -24.2858,-61.2744
 L -24.3,-61.5 L -24.2858,-61.7256 L -24.2434,-61.9476 L -24.1736,-62.1626 L -24.0773,-62.3672 L -23.9562,-62.558
 L -23.8121,-62.7322 L -23.6474,-62.8869 L -23.4645,-63.0198 L -23.2664,-63.1287 L -23.0562,-63.2119 L -22.8373,-63.2681
 L -22.613,-63.2964 L -22.387,-63.2964 L -22.1627,-63.2681 L -21.9438,-63.2119 L -21.7336,-63.1287 L -21.5355,-63.0198
 L -21.3526,-62.8869 L -21.1879,-62.7322 L -21.0438,-62.558 L -20.9226,-62.3672 L -20.8264,-62.1626 L -20.7565,-61.9476
 L -20.7142,-61.7256 L -20.7,-61.5 L -20.7142,-61.2744 L -20.7565,-61.0524 L -20.8264,-60.8374 L -20.9226,-60.6328
 L -21.0438,-60.442 L -21.1879,-60.2678 L -21.3526,-60.1131 L -21.5355,-59.9802 L -21.7336,-59.8713 L -21.9438,-59.7881
 L -22.1627,-59.7319 L -22.387,-59.7036 z
M 22.387,-59.7036 L 22.1627,-59.7319 L 21.9438,-59.7881 L 21.7336,-59.8713 L 21.5355,-59.9802 L 21.3526,-60.1131
 L 21.1879,-60.2678 L 21.0438,-60.442 L 20.9226,-60.6328 L 20.8264,-60.8374 L 20.7565,-61.0524 L 20.7142,-61.2744
 L 20.7,-61.5 L 20.7142,-61.7256 L 20.7565,-61.9476 L 20.8264,-62.1626 L 20.9226,-62.3672 L 21.0438,-62.558
 L 21.1879,-62.7322 L 21.3526,-62.8869 L 21.5355,-63.0198 L 21.7336,-63.1287 L 21.9438,-63.2119 L 22.1627,-63.2681
 L 22.387,-63.2964 L 22.613,-63.2964 L 22.8373,-63.2681 L 23.0562,-63.2119 L 23.2664,-63.1287 L 23.4645,-63.0198
 L 23.6474,-62.8869 L 23.8121,-62.7322 L 23.9562,-62.558 L 24.0773,-62.3672 L 24.1736,-62.1626 L 24.2434,-61.9476
 L 24.2858,-61.7256 L 24.3,-61.5 L 24.2858,-61.2744 L 24.2434,-61.0524 L 24.1736,-60.8374 L 24.0773,-60.6328
 L 23.9562,-60.442 L 23.8121,-60.2678 L 23.6474,-60.1131 L 23.4645,-59.9802 L 23.2664,-59.8713 L 23.0562,-59.7881
 L 22.8373,-59.7319 L 22.613,-59.7036 z
" stroke="black" fill="lightgray" stroke-width="0.5"/>
</svg>
