  0
SECTION
  2
BLOCKS
  0
ENDSEC
  0
SECTION
  2
ENTITIES
  0
LINE
  8
0
 10
25.9369
 20
153.089
 11
26.5451
 21
153.245
  0
LINE
  8
0
 10
26.5451
 20
153.245
 11
27.1289
 21
153.476
  0
LINE
  8
0
 10
27.1289
 20
153.476
 11
27.6791
 21
153.778
  0
LINE
  8
0
 10
27.6791
 20
153.778
 11
28.1871
 21
154.147
  0
LINE
  8
0
 10
28.1871
 20
154.147
 11
28.6448
 21
154.577
  0
LINE
  8
0
 10
28.6448
 20
154.577
 11
29.0451
 21
155.061
  0
LINE
  8
0
 10
29.0451
 20
155.061
 11
29.3815
 21
155.591
  0
LINE
  8
0
 10
29.3815
 20
155.591
 11
29.6489
 21
156.159
  0
LINE
  8
0
 10
29.6489
 20
156.159
 11
29.8429
 21
156.757
  0
LINE
  8
0
 10
29.8429
 20
156.757
 11
29.9606
 21
157.373
  0
LINE
  8
0
 10
29.9606
 20
157.373
 11
30
 21
158
  0
LINE
  8
0
 10
30
 20
158
 11
30
 21
238
  0
LINE
  8
0
 10
30
 20
238
 11
29.9606
 21
238.627
  0
LINE
  8
0
 10
29.9606
 20
238.627
 11
29.8429
 21
239.243
  0
LINE
  8
0
 10
29.8429
 20
239.243
 11
29.6489
 21
239.841
  0
LINE
  8
0
 10
29.6489
 20
239.841
 11
29.3815
 21
240.409
  0
LINE
  8
0
 10
29.3815
 20
240.409
 11
29.0451
 21
240.939
  0
LINE
  8
0
 10
29.0451
 20
240.939
 11
28.6448
 21
241.423
  0
LINE
  8
0
 10
28.6448
 20
241.423
 11
28.1871
 21
241.853
  0
LINE
  8
0
 10
28.1871
 20
241.853
 11
27.6791
 21
242.222
  0
LINE
  8
0
 10
27.6791
 20
242.222
 11
27.1289
 21
242.524
  0
LINE
  8
0
 10
27.1289
 20
242.524
 11
26.5451
 21
242.755
  0
LINE
  8
0
 10
26.5451
 20
242.755
 11
25.9369
 21
242.911
  0
LINE
  8
0
 10
25.9369
 20
242.911
 11
25.3139
 21
242.99
  0
LINE
  8
0
 10
25.3139
 20
242.99
 11
-25.3139
 21
242.99
  0
LINE
  8
0
 10
-25.3139
 20
242.99
 11
-25.9369
 21
242.911
  0
LINE
  8
0
 10
-25.9369
 20
242.911
 11
-26.5451
 21
242.755
  0
LINE
  8
0
 10
-26.5451
 20
242.755
 11
-27.1289
 21
242.524
  0
LINE
  8
0
 10
-27.1289
 20
242.524
 11
-27.6791
 21
242.222
  0
LINE
  8
0
 10
-27.6791
 20
242.222
 11
-28.1871
 21
241.853
  0
LINE
  8
0
 10
-28.1871
 20
241.853
 11
-28.6448
 21
241.423
  0
LINE
  8
0
 10
-28.6448
 20
241.423
 11
-29.0451
 21
240.939
  0
LINE
  8
0
 10
-29.0451
 20
240.939
 11
-29.3815
 21
240.409
  0
LINE
  8
0
 10
-29.3815
 20
240.409
 11
-29.6489
 21
239.841
  0
LINE
  8
0
 10
-29.6489
 20
239.841
 11
-29.8429
 21
239.243
  0
LINE
  8
0
 10
-29.8429
 20
239.243
 11
-29.9606
 21
238.627
  0
LINE
  8
0
 10
-29.9606
 20
238.627
 11
-30
 21
238
  0
LINE
  8
0
 10
-30
 20
238
 11
-30
 21
158
  0
LINE
  8
0
 10
-30
 20
158
 11
-29.9606
 21
157.373
  0
LINE
  8
0
 10
-29.9606
 20
157.373
 11
-29.8429
 21
156.757
  0
LINE
  8
0
 10
-29.8429
 20
156.757
 11
-29.6489
 21
156.159
  0
LINE
  8
0
 10
-29.6489
 20
156.159
 11
-29.3815
 21
155.591
  0
LINE
  8
0
 10
-29.3815
 20
155.591
 11
-29.0451
 21
155.061
  0
LINE
  8
0
 10
-29.0451
 20
155.061
 11
-28.6448
 21
154.577
  0
LINE
  8
0
 10
-28.6448
 20
154.577
 11
-28.1871
 21
154.147
  0
LINE
  8
0
 10
-28.1871
 20
154.147
 11
-27.6791
 21
153.778
  0
LINE
  8
0
 10
-27.6791
 20
153.778
 11
-27.1289
 21
153.476
  0
LINE
  8
0
 10
-27.1289
 20
153.476
 11
-26.5451
 21
153.245
  0
LINE
  8
0
 10
-26.5451
 20
153.245
 11
-25.9369
 21
153.089
  0
LINE
  8
0
 10
-25.9369
 20
153.089
 11
-25.3139
 21
153.01
  0
LINE
  8
0
 10
-25.3139
 20
153.01
 11
25.3139
 21
153.01
  0
LINE
  8
0
 10
25.3139
 20
153.01
 11
25.9369
 21
153.089
  0
LINE
  8
0
 10
25.9369
 20
54.0886
 11
26.5451
 21
54.2447
  0
LINE
  8
0
 10
26.5451
 20
54.2447
 11
27.1289
 21
54.4759
  0
LINE
  8
0
 10
27.1289
 20
54.4759
 11
27.6791
 21
54.7784
  0
LINE
  8
0
 10
27.6791
 20
54.7784
 11
28.1871
 21
55.1474
  0
LINE
  8
0
 10
28.1871
 20
55.1474
 11
28.6448
 21
55.5773
  0
LINE
  8
0
 10
28.6448
 20
55.5773
 11
29.0451
 21
56.0611
  0
LINE
  8
0
 10
29.0451
 20
56.0611
 11
29.3815
 21
56.5912
  0
LINE
  8
0
 10
29.3815
 20
56.5912
 11
29.6489
 21
57.1594
  0
LINE
  8
0
 10
29.6489
 20
57.1594
 11
29.8429
 21
57.7566
  0
LINE
  8
0
 10
29.8429
 20
57.7566
 11
29.9606
 21
58.3733
  0
LINE
  8
0
 10
29.9606
 20
58.3733
 11
30
 21
59
  0
LINE
  8
0
 10
30
 20
59
 11
30
 21
139
  0
LINE
  8
0
 10
30
 20
139
 11
29.9606
 21
139.627
  0
LINE
  8
0
 10
29.9606
 20
139.627
 11
29.8429
 21
140.243
  0
LINE
  8
0
 10
29.8429
 20
140.243
 11
29.6489
 21
140.841
  0
LINE
  8
0
 10
29.6489
 20
140.841
 11
29.3815
 21
141.409
  0
LINE
  8
0
 10
29.3815
 20
141.409
 11
29.0451
 21
141.939
  0
LINE
  8
0
 10
29.0451
 20
141.939
 11
28.6448
 21
142.423
  0
LINE
  8
0
 10
28.6448
 20
142.423
 11
28.1871
 21
142.853
  0
LINE
  8
0
 10
28.1871
 20
142.853
 11
27.6791
 21
143.222
  0
LINE
  8
0
 10
27.6791
 20
143.222
 11
27.1289
 21
143.524
  0
LINE
  8
0
 10
27.1289
 20
143.524
 11
26.5451
 21
143.755
  0
LINE
  8
0
 10
26.5451
 20
143.755
 11
25.9369
 21
143.911
  0
LINE
  8
0
 10
25.9369
 20
143.911
 11
25.3139
 21
143.99
  0
LINE
  8
0
 10
25.3139
 20
143.99
 11
-25.3139
 21
143.99
  0
LINE
  8
0
 10
-25.3139
 20
143.99
 11
-25.9369
 21
143.911
  0
LINE
  8
0
 10
-25.9369
 20
143.911
 11
-26.5451
 21
143.755
  0
LINE
  8
0
 10
-26.5451
 20
143.755
 11
-27.1289
 21
143.524
  0
LINE
  8
0
 10
-27.1289
 20
143.524
 11
-27.6791
 21
143.222
  0
LINE
  8
0
 10
-27.6791
 20
143.222
 11
-28.1871
 21
142.853
  0
LINE
  8
0
 10
-28.1871
 20
142.853
 11
-28.6448
 21
142.423
  0
LINE
  8
0
 10
-28.6448
 20
142.423
 11
-29.0451
 21
141.939
  0
LINE
  8
0
 10
-29.0451
 20
141.939
 11
-29.3815
 21
141.409
  0
LINE
  8
0
 10
-29.3815
 20
141.409
 11
-29.6489
 21
140.841
  0
LINE
  8
0
 10
-29.6489
 20
140.841
 11
-29.8429
 21
140.243
  0
LINE
  8
0
 10
-29.8429
 20
140.243
 11
-29.9606
 21
139.627
  0
LINE
  8
0
 10
-29.9606
 20
139.627
 11
-30
 21
139
  0
LINE
  8
0
 10
-30
 20
139
 11
-30
 21
59
  0
LINE
  8
0
 10
-30
 20
59
 11
-29.9606
 21
58.3733
  0
LINE
  8
0
 10
-29.9606
 20
58.3733
 11
-29.8429
 21
57.7566
  0
LINE
  8
0
 10
-29.8429
 20
57.7566
 11
-29.6489
 21
57.1594
  0
LINE
  8
0
 10
-29.6489
 20
57.1594
 11
-29.3815
 21
56.5912
  0
LINE
  8
0
 10
-29.3815
 20
56.5912
 11
-29.0451
 21
56.0611
  0
LINE
  8
0
 10
-29.0451
 20
56.0611
 11
-28.6448
 21
55.5773
  0
LINE
  8
0
 10
-28.6448
 20
55.5773
 11
-28.1871
 21
55.1474
  0
LINE
  8
0
 10
-28.1871
 20
55.1474
 11
-27.6791
 21
54.7784
  0
LINE
  8
0
 10
-27.6791
 20
54.7784
 11
-27.1289
 21
54.4759
  0
LINE
  8
0
 10
-27.1289
 20
54.4759
 11
-26.5451
 21
54.2447
  0
LINE
  8
0
 10
-26.5451
 20
54.2447
 11
-25.9369
 21
54.0886
  0
LINE
  8
0
 10
-25.9369
 20
54.0886
 11
-25.3139
 21
54.0099
  0
LINE
  8
0
 10
-25.3139
 20
54.0099
 11
25.3139
 21
54.0099
  0
LINE
  8
0
 10
25.3139
 20
54.0099
 11
25.9369
 21
54.0886
  0
LINE
  8
0
 10
22.387
 20
134.704
 11
22.1627
 21
134.732
  0
LINE
  8
0
 10
22.1627
 20
134.732
 11
21.9438
 21
134.788
  0
LINE
  8
0
 10
21.9438
 20
134.788
 11
21.7336
 21
134.871
  0
LINE
  8
0
 10
21.7336
 20
134.871
 11
21.5355
 21
134.98
  0
LINE
  8
0
 10
21.5355
 20
134.98
 11
21.3526
 21
135.113
  0
LINE
  8
0
 10
21.3526
 20
135.113
 11
21.1879
 21
135.268
  0
LINE
  8
0
 10
21.1879
 20
135.268
 11
21.0438
 21
135.442
  0
LINE
  8
0
 10
21.0438
 20
135.442
 11
20.9226
 21
135.633
  0
LINE
  8
0
 10
20.9226
 20
135.633
 11
20.8264
 21
135.837
  0
LINE
  8
0
 10
20.8264
 20
135.837
 11
20.7565
 21
136.052
  0
LINE
  8
0
 10
20.7565
 20
136.052
 11
20.7142
 21
136.274
  0
LINE
  8
0
 10
20.7142
 20
136.274
 11
20.7
 21
136.5
  0
LINE
  8
0
 10
20.7
 20
136.5
 11
20.7142
 21
136.726
  0
LINE
  8
0
 10
20.7142
 20
136.726
 11
20.7565
 21
136.948
  0
LINE
  8
0
 10
20.7565
 20
136.948
 11
20.8264
 21
137.163
  0
LINE
  8
0
 10
20.8264
 20
137.163
 11
20.9226
 21
137.367
  0
LINE
  8
0
 10
20.9226
 20
137.367
 11
21.0438
 21
137.558
  0
LINE
  8
0
 10
21.0438
 20
137.558
 11
21.1879
 21
137.732
  0
LINE
  8
0
 10
21.1879
 20
137.732
 11
21.3526
 21
137.887
  0
LINE
  8
0
 10
21.3526
 20
137.887
 11
21.5355
 21
138.02
  0
LINE
  8
0
 10
21.5355
 20
138.02
 11
21.7336
 21
138.129
  0
LINE
  8
0
 10
21.7336
 20
138.129
 11
21.9438
 21
138.212
  0
LINE
  8
0
 10
21.9438
 20
138.212
 11
22.1627
 21
138.268
  0
LINE
  8
0
 10
22.1627
 20
138.268
 11
22.387
 21
138.296
  0
LINE
  8
0
 10
22.387
 20
138.296
 11
22.613
 21
138.296
  0
LINE
  8
0
 10
22.613
 20
138.296
 11
22.8373
 21
138.268
  0
LINE
  8
0
 10
22.8373
 20
138.268
 11
23.0562
 21
138.212
  0
LINE
  8
0
 10
23.0562
 20
138.212
 11
23.2664
 21
138.129
  0
LINE
  8
0
 10
23.2664
 20
138.129
 11
23.4645
 21
138.02
  0
LINE
  8
0
 10
23.4645
 20
138.02
 11
23.6474
 21
137.887
  0
LINE
  8
0
 10
23.6474
 20
137.887
 11
23.8121
 21
137.732
  0
LINE
  8
0
 10
23.8121
 20
137.732
 11
23.9562
 21
137.558
  0
LINE
  8
0
 10
23.9562
 20
137.558
 11
24.0773
 21
137.367
  0
LINE
  8
0
 10
24.0773
 20
137.367
 11
24.1736
 21
137.163
  0
LINE
  8
0
 10
24.1736
 20
137.163
 11
24.2434
 21
136.948
  0
LINE
  8
0
 10
24.2434
 20
136.948
 11
24.2858
 21
136.726
  0
LINE
  8
0
 10
24.2858
 20
136.726
 11
24.3
 21
136.5
  0
LINE
  8
0
 10
24.3
 20
136.5
 11
24.2858
 21
136.274
  0
LINE
  8
0
 10
24.2858
 20
136.274
 11
24.2434
 21
136.052
  0
LINE
  8
0
 10
24.2434
 20
136.052
 11
24.1736
 21
135.837
  0
LINE
  8
0
 10
24.1736
 20
135.837
 11
24.0773
 21
135.633
  0
LINE
  8
0
 10
24.0773
 20
135.633
 11
23.9562
 21
135.442
  0
LINE
  8
0
 10
23.9562
 20
135.442
 11
23.8121
 21
135.268
  0
LINE
  8
0
 10
23.8121
 20
135.268
 11
23.6474
 21
135.113
  0
LINE
  8
0
 10
23.6474
 20
135.113
 11
23.4645
 21
134.98
  0
LINE
  8
0
 10
23.4645
 20
134.98
 11
23.2664
 21
134.871
  0
LINE
  8
0
 10
23.2664
 20
134.871
 11
23.0562
 21
134.788
  0
LINE
  8
0
 10
23.0562
 20
134.788
 11
22.8373
 21
134.732
  0
LINE
  8
0
 10
22.8373
 20
134.732
 11
22.613
 21
134.704
  0
LINE
  8
0
 10
22.613
 20
134.704
 11
22.387
 21
134.704
  0
LINE
  8
0
 10
-22.613
 20
134.704
 11
-22.8373
 21
134.732
  0
LINE
  8
0
 10
-22.8373
 20
134.732
 11
-23.0562
 21
134.788
  0
LINE
  8
0
 10
-23.0562
 20
134.788
 11
-23.2664
 21
134.871
  0
LINE
  8
0
 10
-23.2664
 20
134.871
 11
-23.4645
 21
134.98
  0
LINE
  8
0
 10
-23.4645
 20
134.98
 11
-23.6474
 21
135.113
  0
LINE
  8
0
 10
-23.6474
 20
135.113
 11
-23.8121
 21
135.268
  0
LINE
  8
0
 10
-23.8121
 20
135.268
 11
-23.9562
 21
135.442
  0
LINE
  8
0
 10
-23.9562
 20
135.442
 11
-24.0773
 21
135.633
  0
LINE
  8
0
 10
-24.0773
 20
135.633
 11
-24.1736
 21
135.837
  0
LINE
  8
0
 10
-24.1736
 20
135.837
 11
-24.2434
 21
136.052
  0
LINE
  8
0
 10
-24.2434
 20
136.052
 11
-24.2858
 21
136.274
  0
LINE
  8
0
 10
-24.2858
 20
136.274
 11
-24.3
 21
136.5
  0
LINE
  8
0
 10
-24.3
 20
136.5
 11
-24.2858
 21
136.726
  0
LINE
  8
0
 10
-24.2858
 20
136.726
 11
-24.2434
 21
136.948
  0
LINE
  8
0
 10
-24.2434
 20
136.948
 11
-24.1736
 21
137.163
  0
LINE
  8
0
 10
-24.1736
 20
137.163
 11
-24.0773
 21
137.367
  0
LINE
  8
0
 10
-24.0773
 20
137.367
 11
-23.9562
 21
137.558
  0
LINE
  8
0
 10
-23.9562
 20
137.558
 11
-23.8121
 21
137.732
  0
LINE
  8
0
 10
-23.8121
 20
137.732
 11
-23.6474
 21
137.887
  0
LINE
  8
0
 10
-23.6474
 20
137.887
 11
-23.4645
 21
138.02
  0
LINE
  8
0
 10
-23.4645
 20
138.02
 11
-23.2664
 21
138.129
  0
LINE
  8
0
 10
-23.2664
 20
138.129
 11
-23.0562
 21
138.212
  0
LINE
  8
0
 10
-23.0562
 20
138.212
 11
-22.8373
 21
138.268
  0
LINE
  8
0
 10
-22.8373
 20
138.268
 11
-22.613
 21
138.296
  0
LINE
  8
0
 10
-22.613
 20
138.296
 11
-22.387
 21
138.296
  0
LINE
  8
0
 10
-22.387
 20
138.296
 11
-22.1627
 21
138.268
  0
LINE
  8
0
 10
-22.1627
 20
138.268
 11
-21.9438
 21
138.212
  0
LINE
  8
0
 10
-21.9438
 20
138.212
 11
-21.7336
 21
138.129
  0
LINE
  8
0
 10
-21.7336
 20
138.129
 11
-21.5355
 21
138.02
  0
LINE
  8
0
 10
-21.5355
 20
138.02
 11
-21.3526
 21
137.887
  0
LINE
  8
0
 10
-21.3526
 20
137.887
 11
-21.1879
 21
137.732
  0
LINE
  8
0
 10
-21.1879
 20
137.732
 11
-21.0438
 21
137.558
  0
LINE
  8
0
 10
-21.0438
 20
137.558
 11
-20.9226
 21
137.367
  0
LINE
  8
0
 10
-20.9226
 20
137.367
 11
-20.8264
 21
137.163
  0
LINE
  8
0
 10
-20.8264
 20
137.163
 11
-20.7565
 21
136.948
  0
LINE
  8
0
 10
-20.7565
 20
136.948
 11
-20.7142
 21
136.726
  0
LINE
  8
0
 10
-20.7142
 20
136.726
 11
-20.7
 21
136.5
  0
LINE
  8
0
 10
-20.7
 20
136.5
 11
-20.7142
 21
136.274
  0
LINE
  8
0
 10
-20.7142
 20
136.274
 11
-20.7565
 21
136.052
  0
LINE
  8
0
 10
-20.7565
 20
136.052
 11
-20.8264
 21
135.837
  0
LINE
  8
0
 10
-20.8264
 20
135.837
 11
-20.9226
 21
135.633
  0
LINE
  8
0
 10
-20.9226
 20
135.633
 11
-21.0438
 21
135.442
  0
LINE
  8
0
 10
-21.0438
 20
135.442
 11
-21.1879
 21
135.268
  0
LINE
  8
0
 10
-21.1879
 20
135.268
 11
-21.3526
 21
135.113
  0
LINE
  8
0
 10
-21.3526
 20
135.113
 11
-21.5355
 21
134.98
  0
LINE
  8
0
 10
-21.5355
 20
134.98
 11
-21.7336
 21
134.871
  0
LINE
  8
0
 10
-21.7336
 20
134.871
 11
-21.9438
 21
134.788
  0
LINE
  8
0
 10
-21.9438
 20
134.788
 11
-22.1627
 21
134.732
  0
LINE
  8
0
 10
-22.1627
 20
134.732
 11
-22.387
 21
134.704
  0
LINE
  8
0
 10
-22.387
 20
134.704
 11
-22.613
 21
134.704
  0
LINE
  8
0
 10
-22.613
 20
59.7036
 11
-22.8373
 21
59.7319
  0
LINE
  8
0
 10
-22.8373
 20
59.7319
 11
-23.0562
 21
59.7881
  0
LINE
  8
0
 10
-23.0562
 20
59.7881
 11
-23.2664
 21
59.8713
  0
LINE
  8
0
 10
-23.2664
 20
59.8713
 11
-23.4645
 21
59.9802
  0
LINE
  8
0
 10
-23.4645
 20
59.9802
 11
-23.6474
 21
60.1131
  0
LINE
  8
0
 10
-23.6474
 20
60.1131
 11
-23.8121
 21
60.2678
  0
LINE
  8
0
 10
-23.8121
 20
60.2678
 11
-23.9562
 21
60.442
  0
LINE
  8
0
 10
-23.9562
 20
60.442
 11
-24.0773
 21
60.6328
  0
LINE
  8
0
 10
-24.0773
 20
60.6328
 11
-24.1736
 21
60.8374
  0
LINE
  8
0
 10
-24.1736
 20
60.8374
 11
-24.2434
 21
61.0524
  0
LINE
  8
0
 10
-24.2434
 20
61.0524
 11
-24.2858
 21
61.2744
  0
LINE
  8
0
 10
-24.2858
 20
61.2744
 11
-24.3
 21
61.5
  0
LINE
  8
0
 10
-24.3
 20
61.5
 11
-24.2858
 21
61.7256
  0
LINE
  8
0
 10
-24.2858
 20
61.7256
 11
-24.2434
 21
61.9476
  0
LINE
  8
0
 10
-24.2434
 20
61.9476
 11
-24.1736
 21
62.1626
  0
LINE
  8
0
 10
-24.1736
 20
62.1626
 11
-24.0773
 21
62.3672
  0
LINE
  8
0
 10
-24.0773
 20
62.3672
 11
-23.9562
 21
62.558
  0
LINE
  8
0
 10
-23.9562
 20
62.558
 11
-23.8121
 21
62.7322
  0
LINE
  8
0
 10
-23.8121
 20
62.7322
 11
-23.6474
 21
62.8869
  0
LINE
  8
0
 10
-23.6474
 20
62.8869
 11
-23.4645
 21
63.0198
  0
LINE
  8
0
 10
-23.4645
 20
63.0198
 11
-23.2664
 21
63.1287
  0
LINE
  8
0
 10
-23.2664
 20
63.1287
 11
-23.0562
 21
63.2119
  0
LINE
  8
0
 10
-23.0562
 20
63.2119
 11
-22.8373
 21
63.2681
  0
LINE
  8
0
 10
-22.8373
 20
63.2681
 11
-22.613
 21
63.2964
  0
LINE
  8
0
 10
-22.613
 20
63.2964
 11
-22.387
 21
63.2964
  0
LINE
  8
0
 10
-22.387
 20
63.2964
 11
-22.1627
 21
63.2681
  0
LINE
  8
0
 10
-22.1627
 20
63.2681
 11
-21.9438
 21
63.2119
  0
LINE
  8
0
 10
-21.9438
 20
63.2119
 11
-21.7336
 21
63.1287
  0
LINE
  8
0
 10
-21.7336
 20
63.1287
 11
-21.5355
 21
63.0198
  0
LINE
  8
0
 10
-21.5355
 20
63.0198
 11
-21.3526
 21
62.8869
  0
LINE
  8
0
 10
-21.3526
 20
62.8869
 11
-21.1879
 21
62.7322
  0
LINE
  8
0
 10
-21.1879
 20
62.7322
 11
-21.0438
 21
62.558
  0
LINE
  8
0
 10
-21.0438
 20
62.558
 11
-20.9226
 21
62.3672
  0
LINE
  8
0
 10
-20.9226
 20
62.3672
 11
-20.8264
 21
62.1626
  0
LINE
  8
0
 10
-20.8264
 20
62.1626
 11
-20.7565
 21
61.9476
  0
LINE
  8
0
 10
-20.7565
 20
61.9476
 11
-20.7142
 21
61.7256
  0
LINE
  8
0
 10
-20.7142
 20
61.7256
 11
-20.7
 21
61.5
  0
LINE
  8
0
 10
-20.7
 20
61.5
 11
-20.7142
 21
61.2744
  0
LINE
  8
0
 10
-20.7142
 20
61.2744
 11
-20.7565
 21
61.0524
  0
LINE
  8
0
 10
-20.7565
 20
61.0524
 11
-20.8264
 21
60.8374
  0
LINE
  8
0
 10
-20.8264
 20
60.8374
 11
-20.9226
 21
60.6328
  0
LINE
  8
0
 10
-20.9226
 20
60.6328
 11
-21.0438
 21
60.442
  0
LINE
  8
0
 10
-21.0438
 20
60.442
 11
-21.1879
 21
60.2678
  0
LINE
  8
0
 10
-21.1879
 20
60.2678
 11
-21.3526
 21
60.1131
  0
LINE
  8
0
 10
-21.3526
 20
60.1131
 11
-21.5355
 21
59.9802
  0
LINE
  8
0
 10
-21.5355
 20
59.9802
 11
-21.7336
 21
59.8713
  0
LINE
  8
0
 10
-21.7336
 20
59.8713
 11
-21.9438
 21
59.7881
  0
LINE
  8
0
 10
-21.9438
 20
59.7881
 11
-22.1627
 21
59.7319
  0
LINE
  8
0
 10
-22.1627
 20
59.7319
 11
-22.387
 21
59.7036
  0
LINE
  8
0
 10
-22.387
 20
59.7036
 11
-22.613
 21
59.7036
  0
LINE
  8
0
 10
22.387
 20
59.7036
 11
22.1627
 21
59.7319
  0
LINE
  8
0
 10
22.1627
 20
59.7319
 11
21.9438
 21
59.7881
  0
LINE
  8
0
 10
21.9438
 20
59.7881
 11
21.7336
 21
59.8713
  0
LINE
  8
0
 10
21.7336
 20
59.8713
 11
21.5355
 21
59.9802
  0
LINE
  8
0
 10
21.5355
 20
59.9802
 11
21.3526
 21
60.1131
  0
LINE
  8
0
 10
21.3526
 20
60.1131
 11
21.1879
 21
60.2678
  0
LINE
  8
0
 10
21.1879
 20
60.2678
 11
21.0438
 21
60.442
  0
LINE
  8
0
 10
21.0438
 20
60.442
 11
20.9226
 21
60.6328
  0
LINE
  8
0
 10
20.9226
 20
60.6328
 11
20.8264
 21
60.8374
  0
LINE
  8
0
 10
20.8264
 20
60.8374
 11
20.7565
 21
61.0524
  0
LINE
  8
0
 10
20.7565
 20
61.0524
 11
20.7142
 21
61.2744
  0
LINE
  8
0
 10
20.7142
 20
61.2744
 11
20.7
 21
61.5
  0
LINE
  8
0
 10
20.7
 20
61.5
 11
20.7142
 21
61.7256
  0
LINE
  8
0
 10
20.7142
 20
61.7256
 11
20.7565
 21
61.9476
  0
LINE
  8
0
 10
20.7565
 20
61.9476
 11
20.8264
 21
62.1626
  0
LINE
  8
0
 10
20.8264
 20
62.1626
 11
20.9226
 21
62.3672
  0
LINE
  8
0
 10
20.9226
 20
62.3672
 11
21.0438
 21
62.558
  0
LINE
  8
0
 10
21.0438
 20
62.558
 11
21.1879
 21
62.7322
  0
LINE
  8
0
 10
21.1879
 20
62.7322
 11
21.3526
 21
62.8869
  0
LINE
  8
0
 10
21.3526
 20
62.8869
 11
21.5355
 21
63.0198
  0
LINE
  8
0
 10
21.5355
 20
63.0198
 11
21.7336
 21
63.1287
  0
LINE
  8
0
 10
21.7336
 20
63.1287
 11
21.9438
 21
63.2119
  0
LINE
  8
0
 10
21.9438
 20
63.2119
 11
22.1627
 21
63.2681
  0
LINE
  8
0
 10
22.1627
 20
63.2681
 11
22.387
 21
63.2964
  0
LINE
  8
0
 10
22.387
 20
63.2964
 11
22.613
 21
63.2964
  0
LINE
  8
0
 10
22.613
 20
63.2964
 11
22.8373
 21
63.2681
  0
LINE
  8
0
 10
22.8373
 20
63.2681
 11
23.0562
 21
63.2119
  0
LINE
  8
0
 10
23.0562
 20
63.2119
 11
23.2664
 21
63.1287
  0
LINE
  8
0
 10
23.2664
 20
63.1287
 11
23.4645
 21
63.0198
  0
LINE
  8
0
 10
23.4645
 20
63.0198
 11
23.6474
 21
62.8869
  0
LINE
  8
0
 10
23.6474
 20
62.8869
 11
23.8121
 21
62.7322
  0
LINE
  8
0
 10
23.8121
 20
62.7322
 11
23.9562
 21
62.558
  0
LINE
  8
0
 10
23.9562
 20
62.558
 11
24.0773
 21
62.3672
  0
LINE
  8
0
 10
24.0773
 20
62.3672
 11
24.1736
 21
62.1626
  0
LINE
  8
0
 10
24.1736
 20
62.1626
 11
24.2434
 21
61.9476
  0
LINE
  8
0
 10
24.2434
 20
61.9476
 11
24.2858
 21
61.7256
  0
LINE
  8
0
 10
24.2858
 20
61.7256
 11
24.3
 21
61.5
  0
LINE
  8
0
 10
24.3
 20
61.5
 11
24.2858
 21
61.2744
  0
LINE
  8
0
 10
24.2858
 20
61.2744
 11
24.2434
 21
61.0524
  0
LINE
  8
0
 10
24.2434
 20
61.0524
 11
24.1736
 21
60.8374
  0
LINE
  8
0
 10
24.1736
 20
60.8374
 11
24.0773
 21
60.6328
  0
LINE
  8
0
 10
24.0773
 20
60.6328
 11
23.9562
 21
60.442
  0
LINE
  8
0
 10
23.9562
 20
60.442
 11
23.8121
 21
60.2678
  0
LINE
  8
0
 10
23.8121
 20
60.2678
 11
23.6474
 21
60.1131
  0
LINE
  8
0
 10
23.6474
 20
60.1131
 11
23.4645
 21
59.9802
  0
LINE
  8
0
 10
23.4645
 20
59.9802
 11
23.2664
 21
59.8713
  0
LINE
  8
0
 10
23.2664
 20
59.8713
 11
23.0562
 21
59.7881
  0
LINE
  8
0
 10
23.0562
 20
59.7881
 11
22.8373
 21
59.7319
  0
LINE
  8
0
 10
22.8373
 20
59.7319
 11
22.613
 21
59.7036
  0
LINE
  8
0
 10
22.613
 20
59.7036
 11
22.387
 21
59.7036
  0
ENDSEC
  0
SECTION
  2
OBJECTS
  0
DICTIONARY
  0
ENDSEC
  0
EOF
