<?xml version="1.0" standalone="no"?>
<!DOCTYPE svg PUBLIC "-//W3C//DTD SVG 1.1//EN" "http://www.w3.org/Graphics/SVG/1.1/DTD/svg11.dtd">
<svg width="46mm" height="154mm" viewBox="-23 -293 46 154" xmlns="http://www.w3.org/2000/svg" version="1.1">
<title>OpenSCAD Model</title>
<path d="
M 18.4369,-247.589 L 19.0451,-247.745 L 19.6289,-247.976 L 20.1791,-248.278 L 20.6871,-248.647 L 21.1448,-249.077
 L 21.5451,-249.561 L 21.8815,-250.091 L 22.1489,-250.659 L 22.3429,-251.257 L 22.4606,-251.873 L 22.5,-252.5
 L 22.5,-287.5 L 22.4606,-288.127 L 22.3429,-288.743 L 22.1489,-289.341 L 21.8815,-289.909 L 21.5451,-290.439
 L 21.1448,-290.923 L 20.6871,-291.353 L 20.1791,-291.722 L 19.6289,-292.024 L 19.0451,-292.255 L 18.4369,-292.411
 L 17.8139,-292.49 L -17.8139,-292.49 L -18.4369,-292.411 L -19.0451,-292.255 L -19.6289,-292.024 L -20.1791,-291.722
 L -20.6871,-291.353 L -21.1448,-290.923 L -21.5451,-290.439 L -21.8815,-289.909 L -22.1489,-289.341 L -22.3429,-288.743
 L -22.4606,-288.127 L -22.5,-287.5 L -22.5,-252.5 L -22.4606,-251.873 L -22.3429,-251.257 L -22.1489,-250.659
 L -21.8815,-250.091 L -21.5451,-249.561 L -21.1448,-249.077 L -20.6871,-248.647 L -20.1791,-248.278 L -19.6289,-247.976
 L -19.0451,-247.745 L -18.4369,-247.589 L -17.8139,-247.51 L 17.8139,-247.51 z
M -17.5482,-248.009 L -18.1401,-248.084 L -18.7178,-248.232 L -19.2724,-248.452 L -19.7952,-248.739 L -20.2778,-249.09
 L -20.7126,-249.498 L -21.0928,-249.958 L -21.4124,-250.462 L -21.6664,-251.001 L -21.8508,-251.569 L -21.9625,-252.155
 L -22,-252.75 L -22,-287.25 L -21.9625,-287.845 L -21.8508,-288.431 L -21.6664,-288.999 L -21.4124,-289.538
 L -21.0928,-290.042 L -20.7126,-290.502 L -20.2778,-290.91 L -19.7952,-291.261 L -19.2724,-291.548 L -18.7178,-291.768
 L -18.1401,-291.916 L -17.5482,-291.991 L 17.5482,-291.991 L 18.1401,-291.916 L 18.7178,-291.768 L 19.2724,-291.548
 L 19.7952,-291.261 L 20.2778,-290.91 L 20.7126,-290.502 L 21.0928,-290.042 L 21.4124,-289.538 L 21.6664,-288.999
 L 21.8508,-288.431 L 21.9625,-287.845 L 22,-287.25 L 22,-252.75 L 21.9625,-252.155 L 21.8508,-251.569
 L 21.6664,-251.001 L 21.4124,-250.462 L 21.0928,-249.958 L 20.7126,-249.498 L 20.2778,-249.09 L 19.7952,-248.739
 L 19.2724,-248.452 L 18.7178,-248.232 L 18.1401,-248.084 L 17.5482,-248.009 z
M 18.4369,-193.589 L 19.0451,-193.745 L 19.6289,-193.976 L 20.1791,-194.278 L 20.6871,-194.647 L 21.1448,-195.077
 L 21.5451,-195.561 L 21.8815,-196.091 L 22.1489,-196.659 L 22.3429,-197.257 L 22.4606,-197.873 L 22.5,-198.5
 L 22.5,-233.5 L 22.4606,-234.127 L 22.3429,-234.743 L 22.1489,-235.341 L 21.8815,-235.909 L 21.5451,-236.439
 L 21.1448,-236.923 L 20.6871,-237.353 L 20.1791,-237.722 L 19.6289,-238.024 L 19.0451,-238.255 L 18.4369,-238.411
 L 17.8139,-238.49 L -17.8139,-238.49 L -18.4369,-238.411 L -19.0451,-238.255 L -19.6289,-238.024 L -20.1791,-237.722
 L -20.6871,-237.353 L -21.1448,-236.923 L -21.5451,-236.439 L -21.8815,-235.909 L -22.1489,-235.341 L -22.3429,-234.743
 L -22.4606,-234.127 L -22.5,-233.5 L -22.5,-198.5 L -22.4606,-197.873 L -22.3429,-197.257 L -22.1489,-196.659
 L -21.8815,-196.091 L -21.5451,-195.561 L -21.1448,-195.077 L -20.6871,-194.647 L -20.1791,-194.278 L -19.6289,-193.976
 L -19.0451,-193.745 L -18.4369,-193.589 L -17.8139,-193.51 L 17.8139,-193.51 z
M -17.5375,-194.181 L -18.1079,-194.253 L -18.6648,-194.396 L -19.1994,-194.607 L -19.7032,-194.884 L -20.1684,-195.222
 L -20.5875,-195.616 L -20.954,-196.059 L -21.2621,-196.544 L -21.5069,-197.065 L -21.6846,-197.611 L -21.7923,-198.176
 L -21.8284,-198.75 L -21.8284,-233.25 L -21.7923,-233.824 L -21.6846,-234.389 L -21.5069,-234.935 L -21.2621,-235.456
 L -20.954,-235.941 L -20.5875,-236.384 L -20.1684,-236.778 L -19.7032,-237.116 L -19.1994,-237.393 L -18.6648,-237.604
 L -18.1079,-237.747 L -17.5375,-237.819 L 17.5375,-237.819 L 18.1079,-237.747 L 18.6648,-237.604 L 19.1994,-237.393
 L 19.7032,-237.116 L 20.1684,-236.778 L 20.5875,-236.384 L 20.954,-235.941 L 21.2621,-235.456 L 21.5069,-234.935
 L 21.6846,-234.389 L 21.7923,-233.824 L 21.8284,-233.25 L 21.8284,-198.75 L 21.7923,-198.176 L 21.6846,-197.611
 L 21.5069,-197.065 L 21.2621,-196.544 L 20.954,-196.059 L 20.5875,-195.616 L 20.1684,-195.222 L 19.7032,-194.884
 L 19.1994,-194.607 L 18.6648,-194.396 L 18.1079,-194.253 L 17.5375,-194.181 z
M 18.4369,-139.589 L 19.0451,-139.745 L 19.6289,-139.976 L 20.1791,-140.278 L 20.6871,-140.647 L 21.1448,-141.077
 L 21.5451,-141.561 L 21.8815,-142.091 L 22.1489,-142.659 L 22.3429,-143.257 L 22.4606,-143.873 L 22.5,-144.5
 L 22.5,-179.5 L 22.4606,-180.127 L 22.3429,-180.743 L 22.1489,-181.341 L 21.8815,-181.909 L 21.5451,-182.439
 L 21.1448,-182.923 L 20.6871,-183.353 L 20.1791,-183.722 L 19.6289,-184.024 L 19.0451,-184.255 L 18.4369,-184.411
 L 17.8139,-184.49 L -17.8139,-184.49 L -18.4369,-184.411 L -19.0451,-184.255 L -19.6289,-184.024 L -20.1791,-183.722
 L -20.6871,-183.353 L -21.1448,-182.923 L -21.5451,-182.439 L -21.8815,-181.909 L -22.1489,-181.341 L -22.3429,-180.743
 L -22.4606,-180.127 L -22.5,-179.5 L -22.5,-144.5 L -22.4606,-143.873 L -22.3429,-143.257 L -22.1489,-142.659
 L -21.8815,-142.091 L -21.5451,-141.561 L -21.1448,-141.077 L -20.6871,-140.647 L -20.1791,-140.278 L -19.6289,-139.976
 L -19.0451,-139.745 L -18.4369,-139.589 L -17.8139,-139.51 L 17.8139,-139.51 z
M -17.3825,-142.645 L -17.6453,-142.678 L -17.9019,-142.744 L -18.1482,-142.841 L -18.3804,-142.969 L -18.5947,-143.125
 L -18.7879,-143.306 L -18.9567,-143.51 L -19.0987,-143.734 L -19.2115,-143.973 L -19.2934,-144.225 L -19.343,-144.486
 L -19.3596,-144.75 L -19.3596,-179.25 L -19.343,-179.514 L -19.2934,-179.775 L -19.2115,-180.027 L -19.0987,-180.266
 L -18.9567,-180.49 L -18.7879,-180.694 L -18.5947,-180.875 L -18.3804,-181.031 L -18.1482,-181.159 L -17.9019,-181.256
 L -17.6453,-181.322 L -17.3825,-181.355 L 17.3825,-181.355 L 17.6453,-181.322 L 17.9019,-181.256 L 18.1482,-181.159
 L 18.3804,-181.031 L 18.5947,-180.875 L 18.7879,-180.694 L 18.9567,-180.49 L 19.0987,-180.266 L 19.2115,-180.027
 L 19.2934,-179.775 L 19.343,-179.514 L 19.3596,-179.25 L 19.3596,-144.75 L 19.343,-144.486 L 19.2934,-144.225
 L 19.2115,-143.973 L 19.0987,-143.734 L 18.9567,-143.51 L 18.7879,-143.306 L 18.5947,-143.125 L 18.3804,-142.969
 L 18.1482,-142.841 L 17.9019,-142.744 L 17.6453,-142.678 L 17.3825,-142.645 z
" stroke="black" fill="lightgray" stroke-width="0.5"/>
</svg>
