<?xml version="1.0" standalone="no"?>
<!DOCTYPE svg PUBLIC "-//W3C//DTD SVG 1.1//EN" "http://www.w3.org/Graphics/SVG/1.1/DTD/svg11.dtd">
<svg width="16mm" height="424mm" viewBox="-8 -788 16 424" xmlns="http://www.w3.org/2000/svg" version="1.1">
<title>OpenSCAD Model</title>
<path d="
M 3.4369,-652.589 L 4.04507,-652.745 L 4.62889,-652.976 L 5.17912,-653.278 L 5.68712,-653.647 L 6.14484,-654.077
 L 6.54507,-654.561 L 6.88153,-655.091 L 7.14888,-655.659 L 7.34291,-656.257 L 7.46057,-656.873 L 7.5,-657.5
 L 7.5,-782.5 L 7.46057,-783.127 L 7.34291,-783.743 L 7.14888,-784.341 L 6.88153,-784.909 L 6.54507,-785.439
 L 6.14484,-785.923 L 5.68712,-786.353 L 5.17912,-786.722 L 4.62889,-787.024 L 4.04507,-787.255 L 3.4369,-787.411
 L 2.81395,-787.49 L -2.81395,-787.49 L -3.4369,-787.411 L -4.04507,-787.255 L -4.62889,-787.024 L -5.17912,-786.722
 L -5.68712,-786.353 L -6.14484,-785.923 L -6.54507,-785.439 L -6.88153,-784.909 L -7.14888,-784.341 L -7.34291,-783.743
 L -7.46057,-783.127 L -7.5,-782.5 L -7.5,-657.5 L -7.46057,-656.873 L -7.34291,-656.257 L -7.14888,-655.659
 L -6.88153,-655.091 L -6.54507,-654.561 L -6.14484,-654.077 L -5.68712,-653.647 L -5.17912,-653.278 L -4.62889,-652.976
 L -4.04507,-652.745 L -3.4369,-652.589 L -2.81395,-652.51 L 2.81395,-652.51 z
M -2.25116,-654.008 L -2.74951,-654.071 L -3.23605,-654.196 L -3.70311,-654.381 L -4.1433,-654.623 L -4.54968,-654.918
 L -4.91586,-655.262 L -5.23605,-655.649 L -5.50522,-656.073 L -5.7191,-656.528 L -5.87433,-657.005 L -5.96844,-657.499
 L -6,-658 L -6,-782 L -5.96844,-782.501 L -5.87433,-782.995 L -5.7191,-783.472 L -5.50522,-783.927
 L -5.23605,-784.351 L -4.91586,-784.738 L -4.54968,-785.082 L -4.1433,-785.377 L -3.70311,-785.619 L -3.23605,-785.804
 L -2.74951,-785.929 L -2.25116,-785.992 L 2.25116,-785.992 L 2.74951,-785.929 L 3.23605,-785.804 L 3.70311,-785.619
 L 4.1433,-785.377 L 4.54968,-785.082 L 4.91586,-784.738 L 5.23605,-784.351 L 5.50522,-783.927 L 5.7191,-783.472
 L 5.87433,-782.995 L 5.96844,-782.501 L 6,-782 L 6,-658 L 5.96844,-657.499 L 5.87433,-657.005
 L 5.7191,-656.528 L 5.50522,-656.073 L 5.23605,-655.649 L 4.91586,-655.262 L 4.54968,-654.918 L 4.1433,-654.623
 L 3.70311,-654.381 L 3.23605,-654.196 L 2.74951,-654.071 L 2.25116,-654.008 z
M 3.4369,-508.589 L 4.04507,-508.745 L 4.62889,-508.976 L 5.17912,-509.278 L 5.68712,-509.647 L 6.14484,-510.077
 L 6.54507,-510.561 L 6.88153,-511.091 L 7.14888,-511.659 L 7.34291,-512.257 L 7.46057,-512.873 L 7.5,-513.5
 L 7.5,-638.5 L 7.46057,-639.127 L 7.34291,-639.743 L 7.14888,-640.341 L 6.88153,-640.909 L 6.54507,-641.439
 L 6.14484,-641.923 L 5.68712,-642.353 L 5.17912,-642.722 L 4.62889,-643.024 L 4.04507,-643.255 L 3.4369,-643.411
 L 2.81395,-643.49 L -2.81395,-643.49 L -3.4369,-643.411 L -4.04507,-643.255 L -4.62889,-643.024 L -5.17912,-642.722
 L -5.68712,-642.353 L -6.14484,-641.923 L -6.54507,-641.439 L -6.88153,-640.909 L -7.14888,-640.341 L -7.34291,-639.743
 L -7.46057,-639.127 L -7.5,-638.5 L -7.5,-513.5 L -7.46057,-512.873 L -7.34291,-512.257 L -7.14888,-511.659
 L -6.88153,-511.091 L -6.54507,-510.561 L -6.14484,-510.077 L -5.68712,-509.647 L -5.17912,-509.278 L -4.62889,-508.976
 L -4.04507,-508.745 L -3.4369,-508.589 L -2.81395,-508.51 L 2.81395,-508.51 z
M -2.19545,-510.893 L -2.5833,-510.942 L -2.96194,-511.039 L -3.32541,-511.183 L -3.66798,-511.372 L -3.98424,-511.601
 L -4.26921,-511.869 L -4.5184,-512.17 L -4.72786,-512.5 L -4.89432,-512.854 L -5.01512,-513.226 L -5.08836,-513.61
 L -5.11292,-514 L -5.11292,-638 L -5.08836,-638.39 L -5.01512,-638.774 L -4.89432,-639.146 L -4.72786,-639.5
 L -4.5184,-639.83 L -4.26921,-640.131 L -3.98424,-640.399 L -3.66798,-640.628 L -3.32541,-640.817 L -2.96194,-640.961
 L -2.5833,-641.058 L -2.19545,-641.107 L 2.19545,-641.107 L 2.5833,-641.058 L 2.96194,-640.961 L 3.32541,-640.817
 L 3.66798,-640.628 L 3.98424,-640.399 L 4.26921,-640.131 L 4.5184,-639.83 L 4.72786,-639.5 L 4.89432,-639.146
 L 5.01512,-638.774 L 5.08836,-638.39 L 5.11292,-638 L 5.11292,-514 L 5.08836,-513.61 L 5.01512,-513.226
 L 4.89432,-512.854 L 4.72786,-512.5 L 4.5184,-512.17 L 4.26921,-511.869 L 3.98424,-511.601 L 3.66798,-511.372
 L 3.32541,-511.183 L 2.96194,-511.039 L 2.5833,-510.942 L 2.19545,-510.893 z
M 3.4369,-364.589 L 4.04507,-364.745 L 4.62889,-364.976 L 5.17912,-365.278 L 5.68712,-365.647 L 6.14484,-366.077
 L 6.54507,-366.561 L 6.88153,-367.091 L 7.14888,-367.659 L 7.34291,-368.257 L 7.46057,-368.873 L 7.5,-369.5
 L 7.5,-494.5 L 7.46057,-495.127 L 7.34291,-495.743 L 7.14888,-496.341 L 6.88153,-496.909 L 6.54507,-497.439
 L 6.14484,-497.923 L 5.68712,-498.353 L 5.17912,-498.722 L 4.62889,-499.024 L 4.04507,-499.255 L 3.4369,-499.411
 L 2.81395,-499.49 L -2.81395,-499.49 L -3.4369,-499.411 L -4.04507,-499.255 L -4.62889,-499.024 L -5.17912,-498.722
 L -5.68712,-498.353 L -6.14484,-497.923 L -6.54507,-497.439 L -6.88153,-496.909 L -7.14888,-496.341 L -7.34291,-495.743
 L -7.46057,-495.127 L -7.5,-494.5 L -7.5,-369.5 L -7.46057,-368.873 L -7.34291,-368.257 L -7.14888,-367.659
 L -6.88153,-367.091 L -6.54507,-366.561 L -6.14484,-366.077 L -5.68712,-365.647 L -5.17912,-365.278 L -4.62889,-364.976
 L -4.04507,-364.745 L -3.4369,-364.589 L -2.81395,-364.51 L 2.81395,-364.51 z
M -0.134064,-489.869 L -0.400101,-489.903 L -0.659836,-489.969 L -0.909149,-490.068 L -1.14413,-490.197 L -1.36108,-490.355
 L -1.55655,-490.538 L -1.72748,-490.745 L -1.87117,-490.971 L -1.98534,-491.214 L -2.06821,-491.469 L -2.11845,-491.732
 L -2.13528,-492 L -2.11845,-492.268 L -2.06821,-492.531 L -1.98534,-492.786 L -1.87117,-493.029 L -1.72748,-493.255
 L -1.55655,-493.462 L -1.36108,-493.645 L -1.14413,-493.803 L -0.909149,-493.932 L -0.659836,-494.031 L -0.400101,-494.097
 L -0.134064,-494.131 L 0.134064,-494.131 L 0.400101,-494.097 L 0.659836,-494.031 L 0.909149,-493.932 L 1.14413,-493.803
 L 1.36108,-493.645 L 1.55655,-493.462 L 1.72748,-493.255 L 1.87117,-493.029 L 1.98534,-492.786 L 2.06821,-492.531
 L 2.11845,-492.268 L 2.13528,-492 L 2.11845,-491.732 L 2.06821,-491.469 L 1.98534,-491.214 L 1.87117,-490.971
 L 1.72748,-490.745 L 1.55655,-490.538 L 1.36108,-490.355 L 1.14413,-490.197 L 0.909149,-490.068 L 0.659836,-489.969
 L 0.400101,-489.903 L 0.134064,-489.869 z
M -0.134064,-369.869 L -0.400101,-369.903 L -0.659836,-369.969 L -0.909149,-370.068 L -1.14413,-370.197 L -1.36108,-370.355
 L -1.55655,-370.538 L -1.72748,-370.745 L -1.87117,-370.971 L -1.98534,-371.214 L -2.06821,-371.469 L -2.11845,-371.732
 L -2.13528,-372 L -2.11845,-372.268 L -2.06821,-372.531 L -1.98534,-372.786 L -1.87117,-373.029 L -1.72748,-373.255
 L -1.55655,-373.462 L -1.36108,-373.645 L -1.14413,-373.803 L -0.909149,-373.932 L -0.659836,-374.031 L -0.400101,-374.097
 L -0.134064,-374.131 L 0.134064,-374.131 L 0.400101,-374.097 L 0.659836,-374.031 L 0.909149,-373.932 L 1.14413,-373.803
 L 1.36108,-373.645 L 1.55655,-373.462 L 1.72748,-373.255 L 1.87117,-373.029 L 1.98534,-372.786 L 2.06821,-372.531
 L 2.11845,-372.268 L 2.13528,-372 L 2.11845,-371.732 L 2.06821,-371.469 L 1.98534,-371.214 L 1.87117,-370.971
 L 1.72748,-370.745 L 1.55655,-370.538 L 1.36108,-370.355 L 1.14413,-370.197 L 0.909149,-370.068 L 0.659836,-369.969
 L 0.400101,-369.903 L 0.134064,-369.869 z
" stroke="black" fill="lightgray" stroke-width="0.5"/>
</svg>
