  0
SECTION
  2
BLOCKS
  0
ENDSEC
  0
SECTION
  2
ENTITIES
  0
LINE
  8
0
 10
63.4369
 20
85.5886
 11
64.0451
 21
85.7447
  0
LINE
  8
0
 10
64.0451
 20
85.7447
 11
64.6289
 21
85.9759
  0
LINE
  8
0
 10
64.6289
 20
85.9759
 11
65.1791
 21
86.2784
  0
LINE
  8
0
 10
65.1791
 20
86.2784
 11
65.6871
 21
86.6474
  0
LINE
  8
0
 10
65.6871
 20
86.6474
 11
66.1448
 21
87.0773
  0
LINE
  8
0
 10
66.1448
 20
87.0773
 11
66.5451
 21
87.5611
  0
LINE
  8
0
 10
66.5451
 20
87.5611
 11
66.8815
 21
88.0912
  0
LINE
  8
0
 10
66.8815
 20
88.0912
 11
67.1489
 21
88.6594
  0
LINE
  8
0
 10
67.1489
 20
88.6594
 11
67.3429
 21
89.2566
  0
LINE
  8
0
 10
67.3429
 20
89.2566
 11
67.4606
 21
89.8733
  0
LINE
  8
0
 10
67.4606
 20
89.8733
 11
67.5
 21
90.5
  0
LINE
  8
0
 10
67.5
 20
90.5
 11
67.5
 21
125.5
  0
LINE
  8
0
 10
67.5
 20
125.5
 11
67.4606
 21
126.127
  0
LINE
  8
0
 10
67.4606
 20
126.127
 11
67.3429
 21
126.743
  0
LINE
  8
0
 10
67.3429
 20
126.743
 11
67.1489
 21
127.341
  0
LINE
  8
0
 10
67.1489
 20
127.341
 11
66.8815
 21
127.909
  0
LINE
  8
0
 10
66.8815
 20
127.909
 11
66.5451
 21
128.439
  0
LINE
  8
0
 10
66.5451
 20
128.439
 11
66.1448
 21
128.923
  0
LINE
  8
0
 10
66.1448
 20
128.923
 11
65.6871
 21
129.353
  0
LINE
  8
0
 10
65.6871
 20
129.353
 11
65.1791
 21
129.722
  0
LINE
  8
0
 10
65.1791
 20
129.722
 11
64.6289
 21
130.024
  0
LINE
  8
0
 10
64.6289
 20
130.024
 11
64.0451
 21
130.255
  0
LINE
  8
0
 10
64.0451
 20
130.255
 11
63.4369
 21
130.411
  0
LINE
  8
0
 10
63.4369
 20
130.411
 11
62.8139
 21
130.49
  0
LINE
  8
0
 10
62.8139
 20
130.49
 11
-62.8139
 21
130.49
  0
LINE
  8
0
 10
-62.8139
 20
130.49
 11
-63.4369
 21
130.411
  0
LINE
  8
0
 10
-63.4369
 20
130.411
 11
-64.0451
 21
130.255
  0
LINE
  8
0
 10
-64.0451
 20
130.255
 11
-64.6289
 21
130.024
  0
LINE
  8
0
 10
-64.6289
 20
130.024
 11
-65.1791
 21
129.722
  0
LINE
  8
0
 10
-65.1791
 20
129.722
 11
-65.6871
 21
129.353
  0
LINE
  8
0
 10
-65.6871
 20
129.353
 11
-66.1448
 21
128.923
  0
LINE
  8
0
 10
-66.1448
 20
128.923
 11
-66.5451
 21
128.439
  0
LINE
  8
0
 10
-66.5451
 20
128.439
 11
-66.8815
 21
127.909
  0
LINE
  8
0
 10
-66.8815
 20
127.909
 11
-67.1489
 21
127.341
  0
LINE
  8
0
 10
-67.1489
 20
127.341
 11
-67.3429
 21
126.743
  0
LINE
  8
0
 10
-67.3429
 20
126.743
 11
-67.4606
 21
126.127
  0
LINE
  8
0
 10
-67.4606
 20
126.127
 11
-67.5
 21
125.5
  0
LINE
  8
0
 10
-67.5
 20
125.5
 11
-67.5
 21
90.5
  0
LINE
  8
0
 10
-67.5
 20
90.5
 11
-67.4606
 21
89.8733
  0
LINE
  8
0
 10
-67.4606
 20
89.8733
 11
-67.3429
 21
89.2566
  0
LINE
  8
0
 10
-67.3429
 20
89.2566
 11
-67.1489
 21
88.6594
  0
LINE
  8
0
 10
-67.1489
 20
88.6594
 11
-66.8815
 21
88.0912
  0
LINE
  8
0
 10
-66.8815
 20
88.0912
 11
-66.5451
 21
87.5611
  0
LINE
  8
0
 10
-66.5451
 20
87.5611
 11
-66.1448
 21
87.0773
  0
LINE
  8
0
 10
-66.1448
 20
87.0773
 11
-65.6871
 21
86.6474
  0
LINE
  8
0
 10
-65.6871
 20
86.6474
 11
-65.1791
 21
86.2784
  0
LINE
  8
0
 10
-65.1791
 20
86.2784
 11
-64.6289
 21
85.9759
  0
LINE
  8
0
 10
-64.6289
 20
85.9759
 11
-64.0451
 21
85.7447
  0
LINE
  8
0
 10
-64.0451
 20
85.7447
 11
-63.4369
 21
85.5886
  0
LINE
  8
0
 10
-63.4369
 20
85.5886
 11
-62.8139
 21
85.5099
  0
LINE
  8
0
 10
-62.8139
 20
85.5099
 11
62.8139
 21
85.5099
  0
LINE
  8
0
 10
62.8139
 20
85.5099
 11
63.4369
 21
85.5886
  0
LINE
  8
0
 10
-62.493
 20
86.8882
 11
-62.9751
 21
86.9491
  0
LINE
  8
0
 10
-62.9751
 20
86.9491
 11
-63.4457
 21
87.0699
  0
LINE
  8
0
 10
-63.4457
 20
87.0699
 11
-63.8975
 21
87.2488
  0
LINE
  8
0
 10
-63.8975
 20
87.2488
 11
-64.3234
 21
87.4829
  0
LINE
  8
0
 10
-64.3234
 20
87.4829
 11
-64.7165
 21
87.7685
  0
LINE
  8
0
 10
-64.7165
 20
87.7685
 11
-65.0707
 21
88.1012
  0
LINE
  8
0
 10
-65.0707
 20
88.1012
 11
-65.3805
 21
88.4756
  0
LINE
  8
0
 10
-65.3805
 20
88.4756
 11
-65.6408
 21
88.8859
  0
LINE
  8
0
 10
-65.6408
 20
88.8859
 11
-65.8477
 21
89.3256
  0
LINE
  8
0
 10
-65.8477
 20
89.3256
 11
-65.9979
 21
89.7877
  0
LINE
  8
0
 10
-65.9979
 20
89.7877
 11
-66.089
 21
90.265
  0
LINE
  8
0
 10
-66.089
 20
90.265
 11
-66.1195
 21
90.75
  0
LINE
  8
0
 10
-66.1195
 20
90.75
 11
-66.1195
 21
125.25
  0
LINE
  8
0
 10
-66.1195
 20
125.25
 11
-66.089
 21
125.735
  0
LINE
  8
0
 10
-66.089
 20
125.735
 11
-65.9979
 21
126.212
  0
LINE
  8
0
 10
-65.9979
 20
126.212
 11
-65.8477
 21
126.674
  0
LINE
  8
0
 10
-65.8477
 20
126.674
 11
-65.6408
 21
127.114
  0
LINE
  8
0
 10
-65.6408
 20
127.114
 11
-65.3805
 21
127.524
  0
LINE
  8
0
 10
-65.3805
 20
127.524
 11
-65.0707
 21
127.899
  0
LINE
  8
0
 10
-65.0707
 20
127.899
 11
-64.7165
 21
128.231
  0
LINE
  8
0
 10
-64.7165
 20
128.231
 11
-64.3234
 21
128.517
  0
LINE
  8
0
 10
-64.3234
 20
128.517
 11
-63.8975
 21
128.751
  0
LINE
  8
0
 10
-63.8975
 20
128.751
 11
-63.4457
 21
128.93
  0
LINE
  8
0
 10
-63.4457
 20
128.93
 11
-62.9751
 21
129.051
  0
LINE
  8
0
 10
-62.9751
 20
129.051
 11
-62.493
 21
129.112
  0
LINE
  8
0
 10
-62.493
 20
129.112
 11
62.493
 21
129.112
  0
LINE
  8
0
 10
62.493
 20
129.112
 11
62.9751
 21
129.051
  0
LINE
  8
0
 10
62.9751
 20
129.051
 11
63.4457
 21
128.93
  0
LINE
  8
0
 10
63.4457
 20
128.93
 11
63.8975
 21
128.751
  0
LINE
  8
0
 10
63.8975
 20
128.751
 11
64.3234
 21
128.517
  0
LINE
  8
0
 10
64.3234
 20
128.517
 11
64.7165
 21
128.231
  0
LINE
  8
0
 10
64.7165
 20
128.231
 11
65.0707
 21
127.899
  0
LINE
  8
0
 10
65.0707
 20
127.899
 11
65.3805
 21
127.524
  0
LINE
  8
0
 10
65.3805
 20
127.524
 11
65.6408
 21
127.114
  0
LINE
  8
0
 10
65.6408
 20
127.114
 11
65.8477
 21
126.674
  0
LINE
  8
0
 10
65.8477
 20
126.674
 11
65.9979
 21
126.212
  0
LINE
  8
0
 10
65.9979
 20
126.212
 11
66.089
 21
125.735
  0
LINE
  8
0
 10
66.089
 20
125.735
 11
66.1195
 21
125.25
  0
LINE
  8
0
 10
66.1195
 20
125.25
 11
66.1195
 21
90.75
  0
LINE
  8
0
 10
66.1195
 20
90.75
 11
66.089
 21
90.265
  0
LINE
  8
0
 10
66.089
 20
90.265
 11
65.9979
 21
89.7877
  0
LINE
  8
0
 10
65.9979
 20
89.7877
 11
65.8477
 21
89.3256
  0
LINE
  8
0
 10
65.8477
 20
89.3256
 11
65.6408
 21
88.8859
  0
LINE
  8
0
 10
65.6408
 20
88.8859
 11
65.3805
 21
88.4756
  0
LINE
  8
0
 10
65.3805
 20
88.4756
 11
65.0707
 21
88.1012
  0
LINE
  8
0
 10
65.0707
 20
88.1012
 11
64.7165
 21
87.7685
  0
LINE
  8
0
 10
64.7165
 20
87.7685
 11
64.3234
 21
87.4829
  0
LINE
  8
0
 10
64.3234
 20
87.4829
 11
63.8975
 21
87.2488
  0
LINE
  8
0
 10
63.8975
 20
87.2488
 11
63.4457
 21
87.0699
  0
LINE
  8
0
 10
63.4457
 20
87.0699
 11
62.9751
 21
86.9491
  0
LINE
  8
0
 10
62.9751
 20
86.9491
 11
62.493
 21
86.8882
  0
LINE
  8
0
 10
62.493
 20
86.8882
 11
-62.493
 21
86.8882
  0
LINE
  8
0
 10
63.4369
 20
31.5886
 11
64.0451
 21
31.7447
  0
LINE
  8
0
 10
64.0451
 20
31.7447
 11
64.6289
 21
31.9759
  0
LINE
  8
0
 10
64.6289
 20
31.9759
 11
65.1791
 21
32.2784
  0
LINE
  8
0
 10
65.1791
 20
32.2784
 11
65.6871
 21
32.6474
  0
LINE
  8
0
 10
65.6871
 20
32.6474
 11
66.1448
 21
33.0773
  0
LINE
  8
0
 10
66.1448
 20
33.0773
 11
66.5451
 21
33.5611
  0
LINE
  8
0
 10
66.5451
 20
33.5611
 11
66.8815
 21
34.0912
  0
LINE
  8
0
 10
66.8815
 20
34.0912
 11
67.1489
 21
34.6594
  0
LINE
  8
0
 10
67.1489
 20
34.6594
 11
67.3429
 21
35.2566
  0
LINE
  8
0
 10
67.3429
 20
35.2566
 11
67.4606
 21
35.8733
  0
LINE
  8
0
 10
67.4606
 20
35.8733
 11
67.5
 21
36.5
  0
LINE
  8
0
 10
67.5
 20
36.5
 11
67.5
 21
71.5
  0
LINE
  8
0
 10
67.5
 20
71.5
 11
67.4606
 21
72.1267
  0
LINE
  8
0
 10
67.4606
 20
72.1267
 11
67.3429
 21
72.7434
  0
LINE
  8
0
 10
67.3429
 20
72.7434
 11
67.1489
 21
73.3406
  0
LINE
  8
0
 10
67.1489
 20
73.3406
 11
66.8815
 21
73.9088
  0
LINE
  8
0
 10
66.8815
 20
73.9088
 11
66.5451
 21
74.4389
  0
LINE
  8
0
 10
66.5451
 20
74.4389
 11
66.1448
 21
74.9227
  0
LINE
  8
0
 10
66.1448
 20
74.9227
 11
65.6871
 21
75.3526
  0
LINE
  8
0
 10
65.6871
 20
75.3526
 11
65.1791
 21
75.7216
  0
LINE
  8
0
 10
65.1791
 20
75.7216
 11
64.6289
 21
76.0241
  0
LINE
  8
0
 10
64.6289
 20
76.0241
 11
64.0451
 21
76.2553
  0
LINE
  8
0
 10
64.0451
 20
76.2553
 11
63.4369
 21
76.4114
  0
LINE
  8
0
 10
63.4369
 20
76.4114
 11
62.8139
 21
76.4901
  0
LINE
  8
0
 10
62.8139
 20
76.4901
 11
-62.8139
 21
76.4901
  0
LINE
  8
0
 10
-62.8139
 20
76.4901
 11
-63.4369
 21
76.4114
  0
LINE
  8
0
 10
-63.4369
 20
76.4114
 11
-64.0451
 21
76.2553
  0
LINE
  8
0
 10
-64.0451
 20
76.2553
 11
-64.6289
 21
76.0241
  0
LINE
  8
0
 10
-64.6289
 20
76.0241
 11
-65.1791
 21
75.7216
  0
LINE
  8
0
 10
-65.1791
 20
75.7216
 11
-65.6871
 21
75.3526
  0
LINE
  8
0
 10
-65.6871
 20
75.3526
 11
-66.1448
 21
74.9227
  0
LINE
  8
0
 10
-66.1448
 20
74.9227
 11
-66.5451
 21
74.4389
  0
LINE
  8
0
 10
-66.5451
 20
74.4389
 11
-66.8815
 21
73.9088
  0
LINE
  8
0
 10
-66.8815
 20
73.9088
 11
-67.1489
 21
73.3406
  0
LINE
  8
0
 10
-67.1489
 20
73.3406
 11
-67.3429
 21
72.7434
  0
LINE
  8
0
 10
-67.3429
 20
72.7434
 11
-67.4606
 21
72.1267
  0
LINE
  8
0
 10
-67.4606
 20
72.1267
 11
-67.5
 21
71.5
  0
LINE
  8
0
 10
-67.5
 20
71.5
 11
-67.5
 21
36.5
  0
LINE
  8
0
 10
-67.5
 20
36.5
 11
-67.4606
 21
35.8733
  0
LINE
  8
0
 10
-67.4606
 20
35.8733
 11
-67.3429
 21
35.2566
  0
LINE
  8
0
 10
-67.3429
 20
35.2566
 11
-67.1489
 21
34.6594
  0
LINE
  8
0
 10
-67.1489
 20
34.6594
 11
-66.8815
 21
34.0912
  0
LINE
  8
0
 10
-66.8815
 20
34.0912
 11
-66.5451
 21
33.5611
  0
LINE
  8
0
 10
-66.5451
 20
33.5611
 11
-66.1448
 21
33.0773
  0
LINE
  8
0
 10
-66.1448
 20
33.0773
 11
-65.6871
 21
32.6474
  0
LINE
  8
0
 10
-65.6871
 20
32.6474
 11
-65.1791
 21
32.2784
  0
LINE
  8
0
 10
-65.1791
 20
32.2784
 11
-64.6289
 21
31.9759
  0
LINE
  8
0
 10
-64.6289
 20
31.9759
 11
-64.0451
 21
31.7447
  0
LINE
  8
0
 10
-64.0451
 20
31.7447
 11
-63.4369
 21
31.5886
  0
LINE
  8
0
 10
-63.4369
 20
31.5886
 11
-62.8139
 21
31.5099
  0
LINE
  8
0
 10
-62.8139
 20
31.5099
 11
62.8139
 21
31.5099
  0
LINE
  8
0
 10
62.8139
 20
31.5099
 11
63.4369
 21
31.5886
  0
LINE
  8
0
 10
-60.113
 20
67.2036
 11
-60.3373
 21
67.2319
  0
LINE
  8
0
 10
-60.3373
 20
67.2319
 11
-60.5562
 21
67.2881
  0
LINE
  8
0
 10
-60.5562
 20
67.2881
 11
-60.7664
 21
67.3713
  0
LINE
  8
0
 10
-60.7664
 20
67.3713
 11
-60.9645
 21
67.4802
  0
LINE
  8
0
 10
-60.9645
 20
67.4802
 11
-61.1474
 21
67.6131
  0
LINE
  8
0
 10
-61.1474
 20
67.6131
 11
-61.3121
 21
67.7678
  0
LINE
  8
0
 10
-61.3121
 20
67.7678
 11
-61.4562
 21
67.942
  0
LINE
  8
0
 10
-61.4562
 20
67.942
 11
-61.5773
 21
68.1328
  0
LINE
  8
0
 10
-61.5773
 20
68.1328
 11
-61.6736
 21
68.3374
  0
LINE
  8
0
 10
-61.6736
 20
68.3374
 11
-61.7434
 21
68.5524
  0
LINE
  8
0
 10
-61.7434
 20
68.5524
 11
-61.7858
 21
68.7744
  0
LINE
  8
0
 10
-61.7858
 20
68.7744
 11
-61.8
 21
69
  0
LINE
  8
0
 10
-61.8
 20
69
 11
-61.7858
 21
69.2256
  0
LINE
  8
0
 10
-61.7858
 20
69.2256
 11
-61.7434
 21
69.4476
  0
LINE
  8
0
 10
-61.7434
 20
69.4476
 11
-61.6736
 21
69.6626
  0
LINE
  8
0
 10
-61.6736
 20
69.6626
 11
-61.5773
 21
69.8671
  0
LINE
  8
0
 10
-61.5773
 20
69.8671
 11
-61.4562
 21
70.058
  0
LINE
  8
0
 10
-61.4562
 20
70.058
 11
-61.3121
 21
70.2322
  0
LINE
  8
0
 10
-61.3121
 20
70.2322
 11
-61.1474
 21
70.3869
  0
LINE
  8
0
 10
-61.1474
 20
70.3869
 11
-60.9645
 21
70.5198
  0
LINE
  8
0
 10
-60.9645
 20
70.5198
 11
-60.7664
 21
70.6287
  0
LINE
  8
0
 10
-60.7664
 20
70.6287
 11
-60.5562
 21
70.7119
  0
LINE
  8
0
 10
-60.5562
 20
70.7119
 11
-60.3373
 21
70.7681
  0
LINE
  8
0
 10
-60.3373
 20
70.7681
 11
-60.113
 21
70.7964
  0
LINE
  8
0
 10
-60.113
 20
70.7964
 11
-59.887
 21
70.7964
  0
LINE
  8
0
 10
-59.887
 20
70.7964
 11
-59.6627
 21
70.7681
  0
LINE
  8
0
 10
-59.6627
 20
70.7681
 11
-59.4438
 21
70.7119
  0
LINE
  8
0
 10
-59.4438
 20
70.7119
 11
-59.2336
 21
70.6287
  0
LINE
  8
0
 10
-59.2336
 20
70.6287
 11
-59.0355
 21
70.5198
  0
LINE
  8
0
 10
-59.0355
 20
70.5198
 11
-58.8526
 21
70.3869
  0
LINE
  8
0
 10
-58.8526
 20
70.3869
 11
-58.6879
 21
70.2322
  0
LINE
  8
0
 10
-58.6879
 20
70.2322
 11
-58.5438
 21
70.058
  0
LINE
  8
0
 10
-58.5438
 20
70.058
 11
-58.4226
 21
69.8671
  0
LINE
  8
0
 10
-58.4226
 20
69.8671
 11
-58.3264
 21
69.6626
  0
LINE
  8
0
 10
-58.3264
 20
69.6626
 11
-58.2565
 21
69.4476
  0
LINE
  8
0
 10
-58.2565
 20
69.4476
 11
-58.2142
 21
69.2256
  0
LINE
  8
0
 10
-58.2142
 20
69.2256
 11
-58.2
 21
69
  0
LINE
  8
0
 10
-58.2
 20
69
 11
-58.2142
 21
68.7744
  0
LINE
  8
0
 10
-58.2142
 20
68.7744
 11
-58.2565
 21
68.5524
  0
LINE
  8
0
 10
-58.2565
 20
68.5524
 11
-58.3264
 21
68.3374
  0
LINE
  8
0
 10
-58.3264
 20
68.3374
 11
-58.4226
 21
68.1328
  0
LINE
  8
0
 10
-58.4226
 20
68.1328
 11
-58.5438
 21
67.942
  0
LINE
  8
0
 10
-58.5438
 20
67.942
 11
-58.6879
 21
67.7678
  0
LINE
  8
0
 10
-58.6879
 20
67.7678
 11
-58.8526
 21
67.6131
  0
LINE
  8
0
 10
-58.8526
 20
67.6131
 11
-59.0355
 21
67.4802
  0
LINE
  8
0
 10
-59.0355
 20
67.4802
 11
-59.2336
 21
67.3713
  0
LINE
  8
0
 10
-59.2336
 20
67.3713
 11
-59.4438
 21
67.2881
  0
LINE
  8
0
 10
-59.4438
 20
67.2881
 11
-59.6627
 21
67.2319
  0
LINE
  8
0
 10
-59.6627
 20
67.2319
 11
-59.887
 21
67.2036
  0
LINE
  8
0
 10
-59.887
 20
67.2036
 11
-60.113
 21
67.2036
  0
LINE
  8
0
 10
59.887
 20
67.2036
 11
59.6627
 21
67.2319
  0
LINE
  8
0
 10
59.6627
 20
67.2319
 11
59.4438
 21
67.2881
  0
LINE
  8
0
 10
59.4438
 20
67.2881
 11
59.2336
 21
67.3713
  0
LINE
  8
0
 10
59.2336
 20
67.3713
 11
59.0355
 21
67.4802
  0
LINE
  8
0
 10
59.0355
 20
67.4802
 11
58.8526
 21
67.6131
  0
LINE
  8
0
 10
58.8526
 20
67.6131
 11
58.6879
 21
67.7678
  0
LINE
  8
0
 10
58.6879
 20
67.7678
 11
58.5438
 21
67.942
  0
LINE
  8
0
 10
58.5438
 20
67.942
 11
58.4226
 21
68.1328
  0
LINE
  8
0
 10
58.4226
 20
68.1328
 11
58.3264
 21
68.3374
  0
LINE
  8
0
 10
58.3264
 20
68.3374
 11
58.2565
 21
68.5524
  0
LINE
  8
0
 10
58.2565
 20
68.5524
 11
58.2142
 21
68.7744
  0
LINE
  8
0
 10
58.2142
 20
68.7744
 11
58.2
 21
69
  0
LINE
  8
0
 10
58.2
 20
69
 11
58.2142
 21
69.2256
  0
LINE
  8
0
 10
58.2142
 20
69.2256
 11
58.2565
 21
69.4476
  0
LINE
  8
0
 10
58.2565
 20
69.4476
 11
58.3264
 21
69.6626
  0
LINE
  8
0
 10
58.3264
 20
69.6626
 11
58.4226
 21
69.8671
  0
LINE
  8
0
 10
58.4226
 20
69.8671
 11
58.5438
 21
70.058
  0
LINE
  8
0
 10
58.5438
 20
70.058
 11
58.6879
 21
70.2322
  0
LINE
  8
0
 10
58.6879
 20
70.2322
 11
58.8526
 21
70.3869
  0
LINE
  8
0
 10
58.8526
 20
70.3869
 11
59.0355
 21
70.5198
  0
LINE
  8
0
 10
59.0355
 20
70.5198
 11
59.2336
 21
70.6287
  0
LINE
  8
0
 10
59.2336
 20
70.6287
 11
59.4438
 21
70.7119
  0
LINE
  8
0
 10
59.4438
 20
70.7119
 11
59.6627
 21
70.7681
  0
LINE
  8
0
 10
59.6627
 20
70.7681
 11
59.887
 21
70.7964
  0
LINE
  8
0
 10
59.887
 20
70.7964
 11
60.113
 21
70.7964
  0
LINE
  8
0
 10
60.113
 20
70.7964
 11
60.3373
 21
70.7681
  0
LINE
  8
0
 10
60.3373
 20
70.7681
 11
60.5562
 21
70.7119
  0
LINE
  8
0
 10
60.5562
 20
70.7119
 11
60.7664
 21
70.6287
  0
LINE
  8
0
 10
60.7664
 20
70.6287
 11
60.9645
 21
70.5198
  0
LINE
  8
0
 10
60.9645
 20
70.5198
 11
61.1474
 21
70.3869
  0
LINE
  8
0
 10
61.1474
 20
70.3869
 11
61.3121
 21
70.2322
  0
LINE
  8
0
 10
61.3121
 20
70.2322
 11
61.4562
 21
70.058
  0
LINE
  8
0
 10
61.4562
 20
70.058
 11
61.5773
 21
69.8671
  0
LINE
  8
0
 10
61.5773
 20
69.8671
 11
61.6736
 21
69.6626
  0
LINE
  8
0
 10
61.6736
 20
69.6626
 11
61.7434
 21
69.4476
  0
LINE
  8
0
 10
61.7434
 20
69.4476
 11
61.7858
 21
69.2256
  0
LINE
  8
0
 10
61.7858
 20
69.2256
 11
61.8
 21
69
  0
LINE
  8
0
 10
61.8
 20
69
 11
61.7858
 21
68.7744
  0
LINE
  8
0
 10
61.7858
 20
68.7744
 11
61.7434
 21
68.5524
  0
LINE
  8
0
 10
61.7434
 20
68.5524
 11
61.6736
 21
68.3374
  0
LINE
  8
0
 10
61.6736
 20
68.3374
 11
61.5773
 21
68.1328
  0
LINE
  8
0
 10
61.5773
 20
68.1328
 11
61.4562
 21
67.942
  0
LINE
  8
0
 10
61.4562
 20
67.942
 11
61.3121
 21
67.7678
  0
LINE
  8
0
 10
61.3121
 20
67.7678
 11
61.1474
 21
67.6131
  0
LINE
  8
0
 10
61.1474
 20
67.6131
 11
60.9645
 21
67.4802
  0
LINE
  8
0
 10
60.9645
 20
67.4802
 11
60.7664
 21
67.3713
  0
LINE
  8
0
 10
60.7664
 20
67.3713
 11
60.5562
 21
67.2881
  0
LINE
  8
0
 10
60.5562
 20
67.2881
 11
60.3373
 21
67.2319
  0
LINE
  8
0
 10
60.3373
 20
67.2319
 11
60.113
 21
67.2036
  0
LINE
  8
0
 10
60.113
 20
67.2036
 11
59.887
 21
67.2036
  0
LINE
  8
0
 10
59.887
 20
37.2036
 11
59.6627
 21
37.2319
  0
LINE
  8
0
 10
59.6627
 20
37.2319
 11
59.4438
 21
37.2881
  0
LINE
  8
0
 10
59.4438
 20
37.2881
 11
59.2336
 21
37.3713
  0
LINE
  8
0
 10
59.2336
 20
37.3713
 11
59.0355
 21
37.4802
  0
LINE
  8
0
 10
59.0355
 20
37.4802
 11
58.8526
 21
37.6131
  0
LINE
  8
0
 10
58.8526
 20
37.6131
 11
58.6879
 21
37.7678
  0
LINE
  8
0
 10
58.6879
 20
37.7678
 11
58.5438
 21
37.942
  0
LINE
  8
0
 10
58.5438
 20
37.942
 11
58.4226
 21
38.1329
  0
LINE
  8
0
 10
58.4226
 20
38.1329
 11
58.3264
 21
38.3374
  0
LINE
  8
0
 10
58.3264
 20
38.3374
 11
58.2565
 21
38.5524
  0
LINE
  8
0
 10
58.2565
 20
38.5524
 11
58.2142
 21
38.7744
  0
LINE
  8
0
 10
58.2142
 20
38.7744
 11
58.2
 21
39
  0
LINE
  8
0
 10
58.2
 20
39
 11
58.2142
 21
39.2256
  0
LINE
  8
0
 10
58.2142
 20
39.2256
 11
58.2565
 21
39.4476
  0
LINE
  8
0
 10
58.2565
 20
39.4476
 11
58.3264
 21
39.6626
  0
LINE
  8
0
 10
58.3264
 20
39.6626
 11
58.4226
 21
39.8672
  0
LINE
  8
0
 10
58.4226
 20
39.8672
 11
58.5438
 21
40.058
  0
LINE
  8
0
 10
58.5438
 20
40.058
 11
58.6879
 21
40.2322
  0
LINE
  8
0
 10
58.6879
 20
40.2322
 11
58.8526
 21
40.3869
  0
LINE
  8
0
 10
58.8526
 20
40.3869
 11
59.0355
 21
40.5198
  0
LINE
  8
0
 10
59.0355
 20
40.5198
 11
59.2336
 21
40.6287
  0
LINE
  8
0
 10
59.2336
 20
40.6287
 11
59.4438
 21
40.7119
  0
LINE
  8
0
 10
59.4438
 20
40.7119
 11
59.6627
 21
40.7681
  0
LINE
  8
0
 10
59.6627
 20
40.7681
 11
59.887
 21
40.7964
  0
LINE
  8
0
 10
59.887
 20
40.7964
 11
60.113
 21
40.7964
  0
LINE
  8
0
 10
60.113
 20
40.7964
 11
60.3373
 21
40.7681
  0
LINE
  8
0
 10
60.3373
 20
40.7681
 11
60.5562
 21
40.7119
  0
LINE
  8
0
 10
60.5562
 20
40.7119
 11
60.7664
 21
40.6287
  0
LINE
  8
0
 10
60.7664
 20
40.6287
 11
60.9645
 21
40.5198
  0
LINE
  8
0
 10
60.9645
 20
40.5198
 11
61.1474
 21
40.3869
  0
LINE
  8
0
 10
61.1474
 20
40.3869
 11
61.3121
 21
40.2322
  0
LINE
  8
0
 10
61.3121
 20
40.2322
 11
61.4562
 21
40.058
  0
LINE
  8
0
 10
61.4562
 20
40.058
 11
61.5773
 21
39.8672
  0
LINE
  8
0
 10
61.5773
 20
39.8672
 11
61.6736
 21
39.6626
  0
LINE
  8
0
 10
61.6736
 20
39.6626
 11
61.7434
 21
39.4476
  0
LINE
  8
0
 10
61.7434
 20
39.4476
 11
61.7858
 21
39.2256
  0
LINE
  8
0
 10
61.7858
 20
39.2256
 11
61.8
 21
39
  0
LINE
  8
0
 10
61.8
 20
39
 11
61.7858
 21
38.7744
  0
LINE
  8
0
 10
61.7858
 20
38.7744
 11
61.7434
 21
38.5524
  0
LINE
  8
0
 10
61.7434
 20
38.5524
 11
61.6736
 21
38.3374
  0
LINE
  8
0
 10
61.6736
 20
38.3374
 11
61.5773
 21
38.1329
  0
LINE
  8
0
 10
61.5773
 20
38.1329
 11
61.4562
 21
37.942
  0
LINE
  8
0
 10
61.4562
 20
37.942
 11
61.3121
 21
37.7678
  0
LINE
  8
0
 10
61.3121
 20
37.7678
 11
61.1474
 21
37.6131
  0
LINE
  8
0
 10
61.1474
 20
37.6131
 11
60.9645
 21
37.4802
  0
LINE
  8
0
 10
60.9645
 20
37.4802
 11
60.7664
 21
37.3713
  0
LINE
  8
0
 10
60.7664
 20
37.3713
 11
60.5562
 21
37.2881
  0
LINE
  8
0
 10
60.5562
 20
37.2881
 11
60.3373
 21
37.2319
  0
LINE
  8
0
 10
60.3373
 20
37.2319
 11
60.113
 21
37.2036
  0
LINE
  8
0
 10
60.113
 20
37.2036
 11
59.887
 21
37.2036
  0
LINE
  8
0
 10
-60.113
 20
37.2036
 11
-60.3373
 21
37.2319
  0
LINE
  8
0
 10
-60.3373
 20
37.2319
 11
-60.5562
 21
37.2881
  0
LINE
  8
0
 10
-60.5562
 20
37.2881
 11
-60.7664
 21
37.3713
  0
LINE
  8
0
 10
-60.7664
 20
37.3713
 11
-60.9645
 21
37.4802
  0
LINE
  8
0
 10
-60.9645
 20
37.4802
 11
-61.1474
 21
37.6131
  0
LINE
  8
0
 10
-61.1474
 20
37.6131
 11
-61.3121
 21
37.7678
  0
LINE
  8
0
 10
-61.3121
 20
37.7678
 11
-61.4562
 21
37.942
  0
LINE
  8
0
 10
-61.4562
 20
37.942
 11
-61.5773
 21
38.1329
  0
LINE
  8
0
 10
-61.5773
 20
38.1329
 11
-61.6736
 21
38.3374
  0
LINE
  8
0
 10
-61.6736
 20
38.3374
 11
-61.7434
 21
38.5524
  0
LINE
  8
0
 10
-61.7434
 20
38.5524
 11
-61.7858
 21
38.7744
  0
LINE
  8
0
 10
-61.7858
 20
38.7744
 11
-61.8
 21
39
  0
LINE
  8
0
 10
-61.8
 20
39
 11
-61.7858
 21
39.2256
  0
LINE
  8
0
 10
-61.7858
 20
39.2256
 11
-61.7434
 21
39.4476
  0
LINE
  8
0
 10
-61.7434
 20
39.4476
 11
-61.6736
 21
39.6626
  0
LINE
  8
0
 10
-61.6736
 20
39.6626
 11
-61.5773
 21
39.8672
  0
LINE
  8
0
 10
-61.5773
 20
39.8672
 11
-61.4562
 21
40.058
  0
LINE
  8
0
 10
-61.4562
 20
40.058
 11
-61.3121
 21
40.2322
  0
LINE
  8
0
 10
-61.3121
 20
40.2322
 11
-61.1474
 21
40.3869
  0
LINE
  8
0
 10
-61.1474
 20
40.3869
 11
-60.9645
 21
40.5198
  0
LINE
  8
0
 10
-60.9645
 20
40.5198
 11
-60.7664
 21
40.6287
  0
LINE
  8
0
 10
-60.7664
 20
40.6287
 11
-60.5562
 21
40.7119
  0
LINE
  8
0
 10
-60.5562
 20
40.7119
 11
-60.3373
 21
40.7681
  0
LINE
  8
0
 10
-60.3373
 20
40.7681
 11
-60.113
 21
40.7964
  0
LINE
  8
0
 10
-60.113
 20
40.7964
 11
-59.887
 21
40.7964
  0
LINE
  8
0
 10
-59.887
 20
40.7964
 11
-59.6627
 21
40.7681
  0
LINE
  8
0
 10
-59.6627
 20
40.7681
 11
-59.4438
 21
40.7119
  0
LINE
  8
0
 10
-59.4438
 20
40.7119
 11
-59.2336
 21
40.6287
  0
LINE
  8
0
 10
-59.2336
 20
40.6287
 11
-59.0355
 21
40.5198
  0
LINE
  8
0
 10
-59.0355
 20
40.5198
 11
-58.8526
 21
40.3869
  0
LINE
  8
0
 10
-58.8526
 20
40.3869
 11
-58.6879
 21
40.2322
  0
LINE
  8
0
 10
-58.6879
 20
40.2322
 11
-58.5438
 21
40.058
  0
LINE
  8
0
 10
-58.5438
 20
40.058
 11
-58.4226
 21
39.8672
  0
LINE
  8
0
 10
-58.4226
 20
39.8672
 11
-58.3264
 21
39.6626
  0
LINE
  8
0
 10
-58.3264
 20
39.6626
 11
-58.2565
 21
39.4476
  0
LINE
  8
0
 10
-58.2565
 20
39.4476
 11
-58.2142
 21
39.2256
  0
LINE
  8
0
 10
-58.2142
 20
39.2256
 11
-58.2
 21
39
  0
LINE
  8
0
 10
-58.2
 20
39
 11
-58.2142
 21
38.7744
  0
LINE
  8
0
 10
-58.2142
 20
38.7744
 11
-58.2565
 21
38.5524
  0
LINE
  8
0
 10
-58.2565
 20
38.5524
 11
-58.3264
 21
38.3374
  0
LINE
  8
0
 10
-58.3264
 20
38.3374
 11
-58.4226
 21
38.1329
  0
LINE
  8
0
 10
-58.4226
 20
38.1329
 11
-58.5438
 21
37.942
  0
LINE
  8
0
 10
-58.5438
 20
37.942
 11
-58.6879
 21
37.7678
  0
LINE
  8
0
 10
-58.6879
 20
37.7678
 11
-58.8526
 21
37.6131
  0
LINE
  8
0
 10
-58.8526
 20
37.6131
 11
-59.0355
 21
37.4802
  0
LINE
  8
0
 10
-59.0355
 20
37.4802
 11
-59.2336
 21
37.3713
  0
LINE
  8
0
 10
-59.2336
 20
37.3713
 11
-59.4438
 21
37.2881
  0
LINE
  8
0
 10
-59.4438
 20
37.2881
 11
-59.6627
 21
37.2319
  0
LINE
  8
0
 10
-59.6627
 20
37.2319
 11
-59.887
 21
37.2036
  0
LINE
  8
0
 10
-59.887
 20
37.2036
 11
-60.113
 21
37.2036
  0
ENDSEC
  0
SECTION
  2
OBJECTS
  0
DICTIONARY
  0
ENDSEC
  0
EOF
