<?xml version="1.0" standalone="no"?>
<!DOCTYPE svg PUBLIC "-//W3C//DTD SVG 1.1//EN" "http://www.w3.org/Graphics/SVG/1.1/DTD/svg11.dtd">
<svg width="16mm" height="468mm" viewBox="-8 -870 16 468" xmlns="http://www.w3.org/2000/svg" version="1.1">
<title>OpenSCAD Model</title>
<path d="
M 3.4369,-720.089 L 4.04507,-720.245 L 4.62889,-720.476 L 5.17912,-720.778 L 5.68712,-721.147 L 6.14484,-721.577
 L 6.54507,-722.061 L 6.88153,-722.591 L 7.14888,-723.159 L 7.34291,-723.757 L 7.46057,-724.373 L 7.5,-725
 L 7.5,-865 L 7.46057,-865.627 L 7.34291,-866.243 L 7.14888,-866.841 L 6.88153,-867.409 L 6.54507,-867.939
 L 6.14484,-868.423 L 5.68712,-868.853 L 5.17912,-869.222 L 4.62889,-869.524 L 4.04507,-869.755 L 3.4369,-869.911
 L 2.81395,-869.99 L -2.81395,-869.99 L -3.4369,-869.911 L -4.04507,-869.755 L -4.62889,-869.524 L -5.17912,-869.222
 L -5.68712,-868.853 L -6.14484,-868.423 L -6.54507,-867.939 L -6.88153,-867.409 L -7.14888,-866.841 L -7.34291,-866.243
 L -7.46057,-865.627 L -7.5,-865 L -7.5,-725 L -7.46057,-724.373 L -7.34291,-723.757 L -7.14888,-723.159
 L -6.88153,-722.591 L -6.54507,-722.061 L -6.14484,-721.577 L -5.68712,-721.147 L -5.17912,-720.778 L -4.62889,-720.476
 L -4.04507,-720.245 L -3.4369,-720.089 L -2.81395,-720.01 L 2.81395,-720.01 z
M -2.25116,-721.508 L -2.74951,-721.571 L -3.23605,-721.696 L -3.70311,-721.881 L -4.1433,-722.123 L -4.54968,-722.418
 L -4.91586,-722.762 L -5.23605,-723.149 L -5.50522,-723.573 L -5.7191,-724.028 L -5.87433,-724.505 L -5.96844,-724.999
 L -6,-725.5 L -6,-864.5 L -5.96844,-865.001 L -5.87433,-865.495 L -5.7191,-865.972 L -5.50522,-866.427
 L -5.23605,-866.851 L -4.91586,-867.238 L -4.54968,-867.582 L -4.1433,-867.877 L -3.70311,-868.119 L -3.23605,-868.304
 L -2.74951,-868.429 L -2.25116,-868.492 L 2.25116,-868.492 L 2.74951,-868.429 L 3.23605,-868.304 L 3.70311,-868.119
 L 4.1433,-867.877 L 4.54968,-867.582 L 4.91586,-867.238 L 5.23605,-866.851 L 5.50522,-866.427 L 5.7191,-865.972
 L 5.87433,-865.495 L 5.96844,-865.001 L 6,-864.5 L 6,-725.5 L 5.96844,-724.999 L 5.87433,-724.505
 L 5.7191,-724.028 L 5.50522,-723.573 L 5.23605,-723.149 L 4.91586,-722.762 L 4.54968,-722.418 L 4.1433,-722.123
 L 3.70311,-721.881 L 3.23605,-721.696 L 2.74951,-721.571 L 2.25116,-721.508 z
M 3.4369,-561.089 L 4.04507,-561.245 L 4.62889,-561.476 L 5.17912,-561.778 L 5.68712,-562.147 L 6.14484,-562.577
 L 6.54507,-563.061 L 6.88153,-563.591 L 7.14888,-564.159 L 7.34291,-564.757 L 7.46057,-565.373 L 7.5,-566
 L 7.5,-706 L 7.46057,-706.627 L 7.34291,-707.243 L 7.14888,-707.841 L 6.88153,-708.409 L 6.54507,-708.939
 L 6.14484,-709.423 L 5.68712,-709.853 L 5.17912,-710.222 L 4.62889,-710.524 L 4.04507,-710.755 L 3.4369,-710.911
 L 2.81395,-710.99 L -2.81395,-710.99 L -3.4369,-710.911 L -4.04507,-710.755 L -4.62889,-710.524 L -5.17912,-710.222
 L -5.68712,-709.853 L -6.14484,-709.423 L -6.54507,-708.939 L -6.88153,-708.409 L -7.14888,-707.841 L -7.34291,-707.243
 L -7.46057,-706.627 L -7.5,-706 L -7.5,-566 L -7.46057,-565.373 L -7.34291,-564.757 L -7.14888,-564.159
 L -6.88153,-563.591 L -6.54507,-563.061 L -6.14484,-562.577 L -5.68712,-562.147 L -5.17912,-561.778 L -4.62889,-561.476
 L -4.04507,-561.245 L -3.4369,-561.089 L -2.81395,-561.01 L 2.81395,-561.01 z
M -2.19545,-563.393 L -2.5833,-563.442 L -2.96194,-563.539 L -3.32541,-563.683 L -3.66798,-563.872 L -3.98424,-564.101
 L -4.26921,-564.369 L -4.5184,-564.67 L -4.72786,-565 L -4.89432,-565.354 L -5.01512,-565.726 L -5.08836,-566.11
 L -5.11292,-566.5 L -5.11292,-705.5 L -5.08836,-705.89 L -5.01512,-706.274 L -4.89432,-706.646 L -4.72786,-707
 L -4.5184,-707.33 L -4.26921,-707.631 L -3.98424,-707.899 L -3.66798,-708.128 L -3.32541,-708.317 L -2.96194,-708.461
 L -2.5833,-708.558 L -2.19545,-708.607 L 2.19545,-708.607 L 2.5833,-708.558 L 2.96194,-708.461 L 3.32541,-708.317
 L 3.66798,-708.128 L 3.98424,-707.899 L 4.26921,-707.631 L 4.5184,-707.33 L 4.72786,-707 L 4.89432,-706.646
 L 5.01512,-706.274 L 5.08836,-705.89 L 5.11292,-705.5 L 5.11292,-566.5 L 5.08836,-566.11 L 5.01512,-565.726
 L 4.89432,-565.354 L 4.72786,-565 L 4.5184,-564.67 L 4.26921,-564.369 L 3.98424,-564.101 L 3.66798,-563.872
 L 3.32541,-563.683 L 2.96194,-563.539 L 2.5833,-563.442 L 2.19545,-563.393 z
M 3.4369,-402.089 L 4.04507,-402.245 L 4.62889,-402.476 L 5.17912,-402.778 L 5.68712,-403.147 L 6.14484,-403.577
 L 6.54507,-404.061 L 6.88153,-404.591 L 7.14888,-405.159 L 7.34291,-405.757 L 7.46057,-406.373 L 7.5,-407
 L 7.5,-547 L 7.46057,-547.627 L 7.34291,-548.243 L 7.14888,-548.841 L 6.88153,-549.409 L 6.54507,-549.939
 L 6.14484,-550.423 L 5.68712,-550.853 L 5.17912,-551.222 L 4.62889,-551.524 L 4.04507,-551.755 L 3.4369,-551.911
 L 2.81395,-551.99 L -2.81395,-551.99 L -3.4369,-551.911 L -4.04507,-551.755 L -4.62889,-551.524 L -5.17912,-551.222
 L -5.68712,-550.853 L -6.14484,-550.423 L -6.54507,-549.939 L -6.88153,-549.409 L -7.14888,-548.841 L -7.34291,-548.243
 L -7.46057,-547.627 L -7.5,-547 L -7.5,-407 L -7.46057,-406.373 L -7.34291,-405.757 L -7.14888,-405.159
 L -6.88153,-404.591 L -6.54507,-404.061 L -6.14484,-403.577 L -5.68712,-403.147 L -5.17912,-402.778 L -4.62889,-402.476
 L -4.04507,-402.245 L -3.4369,-402.089 L -2.81395,-402.01 L 2.81395,-402.01 z
M -0.134064,-542.369 L -0.400101,-542.403 L -0.659836,-542.469 L -0.909149,-542.568 L -1.14413,-542.697 L -1.36108,-542.855
 L -1.55655,-543.038 L -1.72748,-543.245 L -1.87117,-543.471 L -1.98534,-543.714 L -2.06821,-543.969 L -2.11845,-544.232
 L -2.13528,-544.5 L -2.11845,-544.768 L -2.06821,-545.031 L -1.98534,-545.286 L -1.87117,-545.529 L -1.72748,-545.755
 L -1.55655,-545.962 L -1.36108,-546.145 L -1.14413,-546.303 L -0.909149,-546.432 L -0.659836,-546.531 L -0.400101,-546.597
 L -0.134064,-546.631 L 0.134064,-546.631 L 0.400101,-546.597 L 0.659836,-546.531 L 0.909149,-546.432 L 1.14413,-546.303
 L 1.36108,-546.145 L 1.55655,-545.962 L 1.72748,-545.755 L 1.87117,-545.529 L 1.98534,-545.286 L 2.06821,-545.031
 L 2.11845,-544.768 L 2.13528,-544.5 L 2.11845,-544.232 L 2.06821,-543.969 L 1.98534,-543.714 L 1.87117,-543.471
 L 1.72748,-543.245 L 1.55655,-543.038 L 1.36108,-542.855 L 1.14413,-542.697 L 0.909149,-542.568 L 0.659836,-542.469
 L 0.400101,-542.403 L 0.134064,-542.369 z
M -0.134064,-407.369 L -0.400101,-407.403 L -0.659836,-407.469 L -0.909149,-407.568 L -1.14413,-407.697 L -1.36108,-407.855
 L -1.55655,-408.038 L -1.72748,-408.245 L -1.87117,-408.471 L -1.98534,-408.714 L -2.06821,-408.969 L -2.11845,-409.232
 L -2.13528,-409.5 L -2.11845,-409.768 L -2.06821,-410.031 L -1.98534,-410.286 L -1.87117,-410.529 L -1.72748,-410.755
 L -1.55655,-410.962 L -1.36108,-411.145 L -1.14413,-411.303 L -0.909149,-411.432 L -0.659836,-411.531 L -0.400101,-411.597
 L -0.134064,-411.631 L 0.134064,-411.631 L 0.400101,-411.597 L 0.659836,-411.531 L 0.909149,-411.432 L 1.14413,-411.303
 L 1.36108,-411.145 L 1.55655,-410.962 L 1.72748,-410.755 L 1.87117,-410.529 L 1.98534,-410.286 L 2.06821,-410.031
 L 2.11845,-409.768 L 2.13528,-409.5 L 2.11845,-409.232 L 2.06821,-408.969 L 1.98534,-408.714 L 1.87117,-408.471
 L 1.72748,-408.245 L 1.55655,-408.038 L 1.36108,-407.855 L 1.14413,-407.697 L 0.909149,-407.568 L 0.659836,-407.469
 L 0.400101,-407.403 L 0.134064,-407.369 z
" stroke="black" fill="lightgray" stroke-width="0.5"/>
</svg>
