  0
SECTION
  2
BLOCKS
  0
ENDSEC
  0
SECTION
  2
ENTITIES
  0
LINE
  8
0
 10
48.4369
 20
141.089
 11
49.0451
 21
141.245
  0
LINE
  8
0
 10
49.0451
 20
141.245
 11
49.6289
 21
141.476
  0
LINE
  8
0
 10
49.6289
 20
141.476
 11
50.1791
 21
141.778
  0
LINE
  8
0
 10
50.1791
 20
141.778
 11
50.6871
 21
142.147
  0
LINE
  8
0
 10
50.6871
 20
142.147
 11
51.1448
 21
142.577
  0
LINE
  8
0
 10
51.1448
 20
142.577
 11
51.5451
 21
143.061
  0
LINE
  8
0
 10
51.5451
 20
143.061
 11
51.8815
 21
143.591
  0
LINE
  8
0
 10
51.8815
 20
143.591
 11
52.1489
 21
144.159
  0
LINE
  8
0
 10
52.1489
 20
144.159
 11
52.3429
 21
144.757
  0
LINE
  8
0
 10
52.3429
 20
144.757
 11
52.4606
 21
145.373
  0
LINE
  8
0
 10
52.4606
 20
145.373
 11
52.5
 21
146
  0
LINE
  8
0
 10
52.5
 20
146
 11
52.5
 21
166
  0
LINE
  8
0
 10
52.5
 20
166
 11
52.4606
 21
166.627
  0
LINE
  8
0
 10
52.4606
 20
166.627
 11
52.3429
 21
167.243
  0
LINE
  8
0
 10
52.3429
 20
167.243
 11
52.1489
 21
167.841
  0
LINE
  8
0
 10
52.1489
 20
167.841
 11
51.8815
 21
168.409
  0
LINE
  8
0
 10
51.8815
 20
168.409
 11
51.5451
 21
168.939
  0
LINE
  8
0
 10
51.5451
 20
168.939
 11
51.1448
 21
169.423
  0
LINE
  8
0
 10
51.1448
 20
169.423
 11
50.6871
 21
169.853
  0
LINE
  8
0
 10
50.6871
 20
169.853
 11
50.1791
 21
170.222
  0
LINE
  8
0
 10
50.1791
 20
170.222
 11
49.6289
 21
170.524
  0
LINE
  8
0
 10
49.6289
 20
170.524
 11
49.0451
 21
170.755
  0
LINE
  8
0
 10
49.0451
 20
170.755
 11
48.4369
 21
170.911
  0
LINE
  8
0
 10
48.4369
 20
170.911
 11
47.8139
 21
170.99
  0
LINE
  8
0
 10
47.8139
 20
170.99
 11
-47.8139
 21
170.99
  0
LINE
  8
0
 10
-47.8139
 20
170.99
 11
-48.4369
 21
170.911
  0
LINE
  8
0
 10
-48.4369
 20
170.911
 11
-49.0451
 21
170.755
  0
LINE
  8
0
 10
-49.0451
 20
170.755
 11
-49.6289
 21
170.524
  0
LINE
  8
0
 10
-49.6289
 20
170.524
 11
-50.1791
 21
170.222
  0
LINE
  8
0
 10
-50.1791
 20
170.222
 11
-50.6871
 21
169.853
  0
LINE
  8
0
 10
-50.6871
 20
169.853
 11
-51.1448
 21
169.423
  0
LINE
  8
0
 10
-51.1448
 20
169.423
 11
-51.5451
 21
168.939
  0
LINE
  8
0
 10
-51.5451
 20
168.939
 11
-51.8815
 21
168.409
  0
LINE
  8
0
 10
-51.8815
 20
168.409
 11
-52.1489
 21
167.841
  0
LINE
  8
0
 10
-52.1489
 20
167.841
 11
-52.3429
 21
167.243
  0
LINE
  8
0
 10
-52.3429
 20
167.243
 11
-52.4606
 21
166.627
  0
LINE
  8
0
 10
-52.4606
 20
166.627
 11
-52.5
 21
166
  0
LINE
  8
0
 10
-52.5
 20
166
 11
-52.5
 21
146
  0
LINE
  8
0
 10
-52.5
 20
146
 11
-52.4606
 21
145.373
  0
LINE
  8
0
 10
-52.4606
 20
145.373
 11
-52.3429
 21
144.757
  0
LINE
  8
0
 10
-52.3429
 20
144.757
 11
-52.1489
 21
144.159
  0
LINE
  8
0
 10
-52.1489
 20
144.159
 11
-51.8815
 21
143.591
  0
LINE
  8
0
 10
-51.8815
 20
143.591
 11
-51.5451
 21
143.061
  0
LINE
  8
0
 10
-51.5451
 20
143.061
 11
-51.1448
 21
142.577
  0
LINE
  8
0
 10
-51.1448
 20
142.577
 11
-50.6871
 21
142.147
  0
LINE
  8
0
 10
-50.6871
 20
142.147
 11
-50.1791
 21
141.778
  0
LINE
  8
0
 10
-50.1791
 20
141.778
 11
-49.6289
 21
141.476
  0
LINE
  8
0
 10
-49.6289
 20
141.476
 11
-49.0451
 21
141.245
  0
LINE
  8
0
 10
-49.0451
 20
141.245
 11
-48.4369
 21
141.089
  0
LINE
  8
0
 10
-48.4369
 20
141.089
 11
-47.8139
 21
141.01
  0
LINE
  8
0
 10
-47.8139
 20
141.01
 11
47.8139
 21
141.01
  0
LINE
  8
0
 10
47.8139
 20
141.01
 11
48.4369
 21
141.089
  0
LINE
  8
0
 10
-47.5482
 20
141.509
 11
-48.1401
 21
141.584
  0
LINE
  8
0
 10
-48.1401
 20
141.584
 11
-48.7178
 21
141.732
  0
LINE
  8
0
 10
-48.7178
 20
141.732
 11
-49.2724
 21
141.952
  0
LINE
  8
0
 10
-49.2724
 20
141.952
 11
-49.7952
 21
142.239
  0
LINE
  8
0
 10
-49.7952
 20
142.239
 11
-50.2778
 21
142.59
  0
LINE
  8
0
 10
-50.2778
 20
142.59
 11
-50.7126
 21
142.998
  0
LINE
  8
0
 10
-50.7126
 20
142.998
 11
-51.0928
 21
143.458
  0
LINE
  8
0
 10
-51.0928
 20
143.458
 11
-51.4124
 21
143.962
  0
LINE
  8
0
 10
-51.4124
 20
143.962
 11
-51.6664
 21
144.501
  0
LINE
  8
0
 10
-51.6664
 20
144.501
 11
-51.8508
 21
145.069
  0
LINE
  8
0
 10
-51.8508
 20
145.069
 11
-51.9625
 21
145.655
  0
LINE
  8
0
 10
-51.9625
 20
145.655
 11
-52
 21
146.25
  0
LINE
  8
0
 10
-52
 20
146.25
 11
-52
 21
165.75
  0
LINE
  8
0
 10
-52
 20
165.75
 11
-51.9625
 21
166.345
  0
LINE
  8
0
 10
-51.9625
 20
166.345
 11
-51.8508
 21
166.931
  0
LINE
  8
0
 10
-51.8508
 20
166.931
 11
-51.6664
 21
167.499
  0
LINE
  8
0
 10
-51.6664
 20
167.499
 11
-51.4124
 21
168.038
  0
LINE
  8
0
 10
-51.4124
 20
168.038
 11
-51.0928
 21
168.542
  0
LINE
  8
0
 10
-51.0928
 20
168.542
 11
-50.7126
 21
169.002
  0
LINE
  8
0
 10
-50.7126
 20
169.002
 11
-50.2778
 21
169.41
  0
LINE
  8
0
 10
-50.2778
 20
169.41
 11
-49.7952
 21
169.761
  0
LINE
  8
0
 10
-49.7952
 20
169.761
 11
-49.2724
 21
170.048
  0
LINE
  8
0
 10
-49.2724
 20
170.048
 11
-48.7178
 21
170.268
  0
LINE
  8
0
 10
-48.7178
 20
170.268
 11
-48.1401
 21
170.416
  0
LINE
  8
0
 10
-48.1401
 20
170.416
 11
-47.5482
 21
170.491
  0
LINE
  8
0
 10
-47.5482
 20
170.491
 11
47.5482
 21
170.491
  0
LINE
  8
0
 10
47.5482
 20
170.491
 11
48.1401
 21
170.416
  0
LINE
  8
0
 10
48.1401
 20
170.416
 11
48.7178
 21
170.268
  0
LINE
  8
0
 10
48.7178
 20
170.268
 11
49.2724
 21
170.048
  0
LINE
  8
0
 10
49.2724
 20
170.048
 11
49.7952
 21
169.761
  0
LINE
  8
0
 10
49.7952
 20
169.761
 11
50.2778
 21
169.41
  0
LINE
  8
0
 10
50.2778
 20
169.41
 11
50.7126
 21
169.002
  0
LINE
  8
0
 10
50.7126
 20
169.002
 11
51.0928
 21
168.542
  0
LINE
  8
0
 10
51.0928
 20
168.542
 11
51.4124
 21
168.038
  0
LINE
  8
0
 10
51.4124
 20
168.038
 11
51.6664
 21
167.499
  0
LINE
  8
0
 10
51.6664
 20
167.499
 11
51.8508
 21
166.931
  0
LINE
  8
0
 10
51.8508
 20
166.931
 11
51.9625
 21
166.345
  0
LINE
  8
0
 10
51.9625
 20
166.345
 11
52
 21
165.75
  0
LINE
  8
0
 10
52
 20
165.75
 11
52
 21
146.25
  0
LINE
  8
0
 10
52
 20
146.25
 11
51.9625
 21
145.655
  0
LINE
  8
0
 10
51.9625
 20
145.655
 11
51.8508
 21
145.069
  0
LINE
  8
0
 10
51.8508
 20
145.069
 11
51.6664
 21
144.501
  0
LINE
  8
0
 10
51.6664
 20
144.501
 11
51.4124
 21
143.962
  0
LINE
  8
0
 10
51.4124
 20
143.962
 11
51.0928
 21
143.458
  0
LINE
  8
0
 10
51.0928
 20
143.458
 11
50.7126
 21
142.998
  0
LINE
  8
0
 10
50.7126
 20
142.998
 11
50.2778
 21
142.59
  0
LINE
  8
0
 10
50.2778
 20
142.59
 11
49.7952
 21
142.239
  0
LINE
  8
0
 10
49.7952
 20
142.239
 11
49.2724
 21
141.952
  0
LINE
  8
0
 10
49.2724
 20
141.952
 11
48.7178
 21
141.732
  0
LINE
  8
0
 10
48.7178
 20
141.732
 11
48.1401
 21
141.584
  0
LINE
  8
0
 10
48.1401
 20
141.584
 11
47.5482
 21
141.509
  0
LINE
  8
0
 10
47.5482
 20
141.509
 11
-47.5482
 21
141.509
  0
LINE
  8
0
 10
48.4369
 20
102.089
 11
49.0451
 21
102.245
  0
LINE
  8
0
 10
49.0451
 20
102.245
 11
49.6289
 21
102.476
  0
LINE
  8
0
 10
49.6289
 20
102.476
 11
50.1791
 21
102.778
  0
LINE
  8
0
 10
50.1791
 20
102.778
 11
50.6871
 21
103.147
  0
LINE
  8
0
 10
50.6871
 20
103.147
 11
51.1448
 21
103.577
  0
LINE
  8
0
 10
51.1448
 20
103.577
 11
51.5451
 21
104.061
  0
LINE
  8
0
 10
51.5451
 20
104.061
 11
51.8815
 21
104.591
  0
LINE
  8
0
 10
51.8815
 20
104.591
 11
52.1489
 21
105.159
  0
LINE
  8
0
 10
52.1489
 20
105.159
 11
52.3429
 21
105.757
  0
LINE
  8
0
 10
52.3429
 20
105.757
 11
52.4606
 21
106.373
  0
LINE
  8
0
 10
52.4606
 20
106.373
 11
52.5
 21
107
  0
LINE
  8
0
 10
52.5
 20
107
 11
52.5
 21
127
  0
LINE
  8
0
 10
52.5
 20
127
 11
52.4606
 21
127.627
  0
LINE
  8
0
 10
52.4606
 20
127.627
 11
52.3429
 21
128.243
  0
LINE
  8
0
 10
52.3429
 20
128.243
 11
52.1489
 21
128.841
  0
LINE
  8
0
 10
52.1489
 20
128.841
 11
51.8815
 21
129.409
  0
LINE
  8
0
 10
51.8815
 20
129.409
 11
51.5451
 21
129.939
  0
LINE
  8
0
 10
51.5451
 20
129.939
 11
51.1448
 21
130.423
  0
LINE
  8
0
 10
51.1448
 20
130.423
 11
50.6871
 21
130.853
  0
LINE
  8
0
 10
50.6871
 20
130.853
 11
50.1791
 21
131.222
  0
LINE
  8
0
 10
50.1791
 20
131.222
 11
49.6289
 21
131.524
  0
LINE
  8
0
 10
49.6289
 20
131.524
 11
49.0451
 21
131.755
  0
LINE
  8
0
 10
49.0451
 20
131.755
 11
48.4369
 21
131.911
  0
LINE
  8
0
 10
48.4369
 20
131.911
 11
47.8139
 21
131.99
  0
LINE
  8
0
 10
47.8139
 20
131.99
 11
-47.8139
 21
131.99
  0
LINE
  8
0
 10
-47.8139
 20
131.99
 11
-48.4369
 21
131.911
  0
LINE
  8
0
 10
-48.4369
 20
131.911
 11
-49.0451
 21
131.755
  0
LINE
  8
0
 10
-49.0451
 20
131.755
 11
-49.6289
 21
131.524
  0
LINE
  8
0
 10
-49.6289
 20
131.524
 11
-50.1791
 21
131.222
  0
LINE
  8
0
 10
-50.1791
 20
131.222
 11
-50.6871
 21
130.853
  0
LINE
  8
0
 10
-50.6871
 20
130.853
 11
-51.1448
 21
130.423
  0
LINE
  8
0
 10
-51.1448
 20
130.423
 11
-51.5451
 21
129.939
  0
LINE
  8
0
 10
-51.5451
 20
129.939
 11
-51.8815
 21
129.409
  0
LINE
  8
0
 10
-51.8815
 20
129.409
 11
-52.1489
 21
128.841
  0
LINE
  8
0
 10
-52.1489
 20
128.841
 11
-52.3429
 21
128.243
  0
LINE
  8
0
 10
-52.3429
 20
128.243
 11
-52.4606
 21
127.627
  0
LINE
  8
0
 10
-52.4606
 20
127.627
 11
-52.5
 21
127
  0
LINE
  8
0
 10
-52.5
 20
127
 11
-52.5
 21
107
  0
LINE
  8
0
 10
-52.5
 20
107
 11
-52.4606
 21
106.373
  0
LINE
  8
0
 10
-52.4606
 20
106.373
 11
-52.3429
 21
105.757
  0
LINE
  8
0
 10
-52.3429
 20
105.757
 11
-52.1489
 21
105.159
  0
LINE
  8
0
 10
-52.1489
 20
105.159
 11
-51.8815
 21
104.591
  0
LINE
  8
0
 10
-51.8815
 20
104.591
 11
-51.5451
 21
104.061
  0
LINE
  8
0
 10
-51.5451
 20
104.061
 11
-51.1448
 21
103.577
  0
LINE
  8
0
 10
-51.1448
 20
103.577
 11
-50.6871
 21
103.147
  0
LINE
  8
0
 10
-50.6871
 20
103.147
 11
-50.1791
 21
102.778
  0
LINE
  8
0
 10
-50.1791
 20
102.778
 11
-49.6289
 21
102.476
  0
LINE
  8
0
 10
-49.6289
 20
102.476
 11
-49.0451
 21
102.245
  0
LINE
  8
0
 10
-49.0451
 20
102.245
 11
-48.4369
 21
102.089
  0
LINE
  8
0
 10
-48.4369
 20
102.089
 11
-47.8139
 21
102.01
  0
LINE
  8
0
 10
-47.8139
 20
102.01
 11
47.8139
 21
102.01
  0
LINE
  8
0
 10
47.8139
 20
102.01
 11
48.4369
 21
102.089
  0
LINE
  8
0
 10
-47.493
 20
103.388
 11
-47.9751
 21
103.449
  0
LINE
  8
0
 10
-47.9751
 20
103.449
 11
-48.4457
 21
103.57
  0
LINE
  8
0
 10
-48.4457
 20
103.57
 11
-48.8975
 21
103.749
  0
LINE
  8
0
 10
-48.8975
 20
103.749
 11
-49.3234
 21
103.983
  0
LINE
  8
0
 10
-49.3234
 20
103.983
 11
-49.7165
 21
104.269
  0
LINE
  8
0
 10
-49.7165
 20
104.269
 11
-50.0707
 21
104.601
  0
LINE
  8
0
 10
-50.0707
 20
104.601
 11
-50.3805
 21
104.976
  0
LINE
  8
0
 10
-50.3805
 20
104.976
 11
-50.6408
 21
105.386
  0
LINE
  8
0
 10
-50.6408
 20
105.386
 11
-50.8477
 21
105.826
  0
LINE
  8
0
 10
-50.8477
 20
105.826
 11
-50.9979
 21
106.288
  0
LINE
  8
0
 10
-50.9979
 20
106.288
 11
-51.089
 21
106.765
  0
LINE
  8
0
 10
-51.089
 20
106.765
 11
-51.1195
 21
107.25
  0
LINE
  8
0
 10
-51.1195
 20
107.25
 11
-51.1195
 21
126.75
  0
LINE
  8
0
 10
-51.1195
 20
126.75
 11
-51.089
 21
127.235
  0
LINE
  8
0
 10
-51.089
 20
127.235
 11
-50.9979
 21
127.712
  0
LINE
  8
0
 10
-50.9979
 20
127.712
 11
-50.8477
 21
128.174
  0
LINE
  8
0
 10
-50.8477
 20
128.174
 11
-50.6408
 21
128.614
  0
LINE
  8
0
 10
-50.6408
 20
128.614
 11
-50.3805
 21
129.024
  0
LINE
  8
0
 10
-50.3805
 20
129.024
 11
-50.0707
 21
129.399
  0
LINE
  8
0
 10
-50.0707
 20
129.399
 11
-49.7165
 21
129.731
  0
LINE
  8
0
 10
-49.7165
 20
129.731
 11
-49.3234
 21
130.017
  0
LINE
  8
0
 10
-49.3234
 20
130.017
 11
-48.8975
 21
130.251
  0
LINE
  8
0
 10
-48.8975
 20
130.251
 11
-48.4457
 21
130.43
  0
LINE
  8
0
 10
-48.4457
 20
130.43
 11
-47.9751
 21
130.551
  0
LINE
  8
0
 10
-47.9751
 20
130.551
 11
-47.493
 21
130.612
  0
LINE
  8
0
 10
-47.493
 20
130.612
 11
47.493
 21
130.612
  0
LINE
  8
0
 10
47.493
 20
130.612
 11
47.9751
 21
130.551
  0
LINE
  8
0
 10
47.9751
 20
130.551
 11
48.4457
 21
130.43
  0
LINE
  8
0
 10
48.4457
 20
130.43
 11
48.8975
 21
130.251
  0
LINE
  8
0
 10
48.8975
 20
130.251
 11
49.3234
 21
130.017
  0
LINE
  8
0
 10
49.3234
 20
130.017
 11
49.7165
 21
129.731
  0
LINE
  8
0
 10
49.7165
 20
129.731
 11
50.0707
 21
129.399
  0
LINE
  8
0
 10
50.0707
 20
129.399
 11
50.3805
 21
129.024
  0
LINE
  8
0
 10
50.3805
 20
129.024
 11
50.6408
 21
128.614
  0
LINE
  8
0
 10
50.6408
 20
128.614
 11
50.8477
 21
128.174
  0
LINE
  8
0
 10
50.8477
 20
128.174
 11
50.9979
 21
127.712
  0
LINE
  8
0
 10
50.9979
 20
127.712
 11
51.089
 21
127.235
  0
LINE
  8
0
 10
51.089
 20
127.235
 11
51.1195
 21
126.75
  0
LINE
  8
0
 10
51.1195
 20
126.75
 11
51.1195
 21
107.25
  0
LINE
  8
0
 10
51.1195
 20
107.25
 11
51.089
 21
106.765
  0
LINE
  8
0
 10
51.089
 20
106.765
 11
50.9979
 21
106.288
  0
LINE
  8
0
 10
50.9979
 20
106.288
 11
50.8477
 21
105.826
  0
LINE
  8
0
 10
50.8477
 20
105.826
 11
50.6408
 21
105.386
  0
LINE
  8
0
 10
50.6408
 20
105.386
 11
50.3805
 21
104.976
  0
LINE
  8
0
 10
50.3805
 20
104.976
 11
50.0707
 21
104.601
  0
LINE
  8
0
 10
50.0707
 20
104.601
 11
49.7165
 21
104.269
  0
LINE
  8
0
 10
49.7165
 20
104.269
 11
49.3234
 21
103.983
  0
LINE
  8
0
 10
49.3234
 20
103.983
 11
48.8975
 21
103.749
  0
LINE
  8
0
 10
48.8975
 20
103.749
 11
48.4457
 21
103.57
  0
LINE
  8
0
 10
48.4457
 20
103.57
 11
47.9751
 21
103.449
  0
LINE
  8
0
 10
47.9751
 20
103.449
 11
47.493
 21
103.388
  0
LINE
  8
0
 10
47.493
 20
103.388
 11
-47.493
 21
103.388
  0
LINE
  8
0
 10
48.4369
 20
63.0886
 11
49.0451
 21
63.2447
  0
LINE
  8
0
 10
49.0451
 20
63.2447
 11
49.6289
 21
63.4759
  0
LINE
  8
0
 10
49.6289
 20
63.4759
 11
50.1791
 21
63.7784
  0
LINE
  8
0
 10
50.1791
 20
63.7784
 11
50.6871
 21
64.1474
  0
LINE
  8
0
 10
50.6871
 20
64.1474
 11
51.1448
 21
64.5773
  0
LINE
  8
0
 10
51.1448
 20
64.5773
 11
51.5451
 21
65.0611
  0
LINE
  8
0
 10
51.5451
 20
65.0611
 11
51.8815
 21
65.5912
  0
LINE
  8
0
 10
51.8815
 20
65.5912
 11
52.1489
 21
66.1594
  0
LINE
  8
0
 10
52.1489
 20
66.1594
 11
52.3429
 21
66.7566
  0
LINE
  8
0
 10
52.3429
 20
66.7566
 11
52.4606
 21
67.3733
  0
LINE
  8
0
 10
52.4606
 20
67.3733
 11
52.5
 21
68
  0
LINE
  8
0
 10
52.5
 20
68
 11
52.5
 21
88
  0
LINE
  8
0
 10
52.5
 20
88
 11
52.4606
 21
88.6267
  0
LINE
  8
0
 10
52.4606
 20
88.6267
 11
52.3429
 21
89.2434
  0
LINE
  8
0
 10
52.3429
 20
89.2434
 11
52.1489
 21
89.8406
  0
LINE
  8
0
 10
52.1489
 20
89.8406
 11
51.8815
 21
90.4088
  0
LINE
  8
0
 10
51.8815
 20
90.4088
 11
51.5451
 21
90.9389
  0
LINE
  8
0
 10
51.5451
 20
90.9389
 11
51.1448
 21
91.4227
  0
LINE
  8
0
 10
51.1448
 20
91.4227
 11
50.6871
 21
91.8526
  0
LINE
  8
0
 10
50.6871
 20
91.8526
 11
50.1791
 21
92.2216
  0
LINE
  8
0
 10
50.1791
 20
92.2216
 11
49.6289
 21
92.5241
  0
LINE
  8
0
 10
49.6289
 20
92.5241
 11
49.0451
 21
92.7553
  0
LINE
  8
0
 10
49.0451
 20
92.7553
 11
48.4369
 21
92.9114
  0
LINE
  8
0
 10
48.4369
 20
92.9114
 11
47.8139
 21
92.9901
  0
LINE
  8
0
 10
47.8139
 20
92.9901
 11
-47.8139
 21
92.9901
  0
LINE
  8
0
 10
-47.8139
 20
92.9901
 11
-48.4369
 21
92.9114
  0
LINE
  8
0
 10
-48.4369
 20
92.9114
 11
-49.0451
 21
92.7553
  0
LINE
  8
0
 10
-49.0451
 20
92.7553
 11
-49.6289
 21
92.5241
  0
LINE
  8
0
 10
-49.6289
 20
92.5241
 11
-50.1791
 21
92.2216
  0
LINE
  8
0
 10
-50.1791
 20
92.2216
 11
-50.6871
 21
91.8526
  0
LINE
  8
0
 10
-50.6871
 20
91.8526
 11
-51.1448
 21
91.4227
  0
LINE
  8
0
 10
-51.1448
 20
91.4227
 11
-51.5451
 21
90.9389
  0
LINE
  8
0
 10
-51.5451
 20
90.9389
 11
-51.8815
 21
90.4088
  0
LINE
  8
0
 10
-51.8815
 20
90.4088
 11
-52.1489
 21
89.8406
  0
LINE
  8
0
 10
-52.1489
 20
89.8406
 11
-52.3429
 21
89.2434
  0
LINE
  8
0
 10
-52.3429
 20
89.2434
 11
-52.4606
 21
88.6267
  0
LINE
  8
0
 10
-52.4606
 20
88.6267
 11
-52.5
 21
88
  0
LINE
  8
0
 10
-52.5
 20
88
 11
-52.5
 21
68
  0
LINE
  8
0
 10
-52.5
 20
68
 11
-52.4606
 21
67.3733
  0
LINE
  8
0
 10
-52.4606
 20
67.3733
 11
-52.3429
 21
66.7566
  0
LINE
  8
0
 10
-52.3429
 20
66.7566
 11
-52.1489
 21
66.1594
  0
LINE
  8
0
 10
-52.1489
 20
66.1594
 11
-51.8815
 21
65.5912
  0
LINE
  8
0
 10
-51.8815
 20
65.5912
 11
-51.5451
 21
65.0611
  0
LINE
  8
0
 10
-51.5451
 20
65.0611
 11
-51.1448
 21
64.5773
  0
LINE
  8
0
 10
-51.1448
 20
64.5773
 11
-50.6871
 21
64.1474
  0
LINE
  8
0
 10
-50.6871
 20
64.1474
 11
-50.1791
 21
63.7784
  0
LINE
  8
0
 10
-50.1791
 20
63.7784
 11
-49.6289
 21
63.4759
  0
LINE
  8
0
 10
-49.6289
 20
63.4759
 11
-49.0451
 21
63.2447
  0
LINE
  8
0
 10
-49.0451
 20
63.2447
 11
-48.4369
 21
63.0886
  0
LINE
  8
0
 10
-48.4369
 20
63.0886
 11
-47.8139
 21
63.0099
  0
LINE
  8
0
 10
-47.8139
 20
63.0099
 11
47.8139
 21
63.0099
  0
LINE
  8
0
 10
47.8139
 20
63.0099
 11
48.4369
 21
63.0886
  0
LINE
  8
0
 10
44.887
 20
83.7036
 11
44.6627
 21
83.7319
  0
LINE
  8
0
 10
44.6627
 20
83.7319
 11
44.4438
 21
83.7881
  0
LINE
  8
0
 10
44.4438
 20
83.7881
 11
44.2336
 21
83.8713
  0
LINE
  8
0
 10
44.2336
 20
83.8713
 11
44.0355
 21
83.9802
  0
LINE
  8
0
 10
44.0355
 20
83.9802
 11
43.8526
 21
84.1131
  0
LINE
  8
0
 10
43.8526
 20
84.1131
 11
43.6879
 21
84.2678
  0
LINE
  8
0
 10
43.6879
 20
84.2678
 11
43.5438
 21
84.442
  0
LINE
  8
0
 10
43.5438
 20
84.442
 11
43.4226
 21
84.6328
  0
LINE
  8
0
 10
43.4226
 20
84.6328
 11
43.3264
 21
84.8374
  0
LINE
  8
0
 10
43.3264
 20
84.8374
 11
43.2565
 21
85.0524
  0
LINE
  8
0
 10
43.2565
 20
85.0524
 11
43.2142
 21
85.2744
  0
LINE
  8
0
 10
43.2142
 20
85.2744
 11
43.2
 21
85.5
  0
LINE
  8
0
 10
43.2
 20
85.5
 11
43.2142
 21
85.7256
  0
LINE
  8
0
 10
43.2142
 20
85.7256
 11
43.2565
 21
85.9476
  0
LINE
  8
0
 10
43.2565
 20
85.9476
 11
43.3264
 21
86.1626
  0
LINE
  8
0
 10
43.3264
 20
86.1626
 11
43.4226
 21
86.3671
  0
LINE
  8
0
 10
43.4226
 20
86.3671
 11
43.5438
 21
86.558
  0
LINE
  8
0
 10
43.5438
 20
86.558
 11
43.6879
 21
86.7322
  0
LINE
  8
0
 10
43.6879
 20
86.7322
 11
43.8526
 21
86.8869
  0
LINE
  8
0
 10
43.8526
 20
86.8869
 11
44.0355
 21
87.0198
  0
LINE
  8
0
 10
44.0355
 20
87.0198
 11
44.2336
 21
87.1287
  0
LINE
  8
0
 10
44.2336
 20
87.1287
 11
44.4438
 21
87.2119
  0
LINE
  8
0
 10
44.4438
 20
87.2119
 11
44.6627
 21
87.2681
  0
LINE
  8
0
 10
44.6627
 20
87.2681
 11
44.887
 21
87.2964
  0
LINE
  8
0
 10
44.887
 20
87.2964
 11
45.113
 21
87.2964
  0
LINE
  8
0
 10
45.113
 20
87.2964
 11
45.3373
 21
87.2681
  0
LINE
  8
0
 10
45.3373
 20
87.2681
 11
45.5562
 21
87.2119
  0
LINE
  8
0
 10
45.5562
 20
87.2119
 11
45.7664
 21
87.1287
  0
LINE
  8
0
 10
45.7664
 20
87.1287
 11
45.9645
 21
87.0198
  0
LINE
  8
0
 10
45.9645
 20
87.0198
 11
46.1474
 21
86.8869
  0
LINE
  8
0
 10
46.1474
 20
86.8869
 11
46.3121
 21
86.7322
  0
LINE
  8
0
 10
46.3121
 20
86.7322
 11
46.4562
 21
86.558
  0
LINE
  8
0
 10
46.4562
 20
86.558
 11
46.5773
 21
86.3671
  0
LINE
  8
0
 10
46.5773
 20
86.3671
 11
46.6736
 21
86.1626
  0
LINE
  8
0
 10
46.6736
 20
86.1626
 11
46.7434
 21
85.9476
  0
LINE
  8
0
 10
46.7434
 20
85.9476
 11
46.7858
 21
85.7256
  0
LINE
  8
0
 10
46.7858
 20
85.7256
 11
46.8
 21
85.5
  0
LINE
  8
0
 10
46.8
 20
85.5
 11
46.7858
 21
85.2744
  0
LINE
  8
0
 10
46.7858
 20
85.2744
 11
46.7434
 21
85.0524
  0
LINE
  8
0
 10
46.7434
 20
85.0524
 11
46.6736
 21
84.8374
  0
LINE
  8
0
 10
46.6736
 20
84.8374
 11
46.5773
 21
84.6328
  0
LINE
  8
0
 10
46.5773
 20
84.6328
 11
46.4562
 21
84.442
  0
LINE
  8
0
 10
46.4562
 20
84.442
 11
46.3121
 21
84.2678
  0
LINE
  8
0
 10
46.3121
 20
84.2678
 11
46.1474
 21
84.1131
  0
LINE
  8
0
 10
46.1474
 20
84.1131
 11
45.9645
 21
83.9802
  0
LINE
  8
0
 10
45.9645
 20
83.9802
 11
45.7664
 21
83.8713
  0
LINE
  8
0
 10
45.7664
 20
83.8713
 11
45.5562
 21
83.7881
  0
LINE
  8
0
 10
45.5562
 20
83.7881
 11
45.3373
 21
83.7319
  0
LINE
  8
0
 10
45.3373
 20
83.7319
 11
45.113
 21
83.7036
  0
LINE
  8
0
 10
45.113
 20
83.7036
 11
44.887
 21
83.7036
  0
LINE
  8
0
 10
-45.113
 20
83.7036
 11
-45.3373
 21
83.7319
  0
LINE
  8
0
 10
-45.3373
 20
83.7319
 11
-45.5562
 21
83.7881
  0
LINE
  8
0
 10
-45.5562
 20
83.7881
 11
-45.7664
 21
83.8713
  0
LINE
  8
0
 10
-45.7664
 20
83.8713
 11
-45.9645
 21
83.9802
  0
LINE
  8
0
 10
-45.9645
 20
83.9802
 11
-46.1474
 21
84.1131
  0
LINE
  8
0
 10
-46.1474
 20
84.1131
 11
-46.3121
 21
84.2678
  0
LINE
  8
0
 10
-46.3121
 20
84.2678
 11
-46.4562
 21
84.442
  0
LINE
  8
0
 10
-46.4562
 20
84.442
 11
-46.5773
 21
84.6328
  0
LINE
  8
0
 10
-46.5773
 20
84.6328
 11
-46.6736
 21
84.8374
  0
LINE
  8
0
 10
-46.6736
 20
84.8374
 11
-46.7434
 21
85.0524
  0
LINE
  8
0
 10
-46.7434
 20
85.0524
 11
-46.7858
 21
85.2744
  0
LINE
  8
0
 10
-46.7858
 20
85.2744
 11
-46.8
 21
85.5
  0
LINE
  8
0
 10
-46.8
 20
85.5
 11
-46.7858
 21
85.7256
  0
LINE
  8
0
 10
-46.7858
 20
85.7256
 11
-46.7434
 21
85.9476
  0
LINE
  8
0
 10
-46.7434
 20
85.9476
 11
-46.6736
 21
86.1626
  0
LINE
  8
0
 10
-46.6736
 20
86.1626
 11
-46.5773
 21
86.3671
  0
LINE
  8
0
 10
-46.5773
 20
86.3671
 11
-46.4562
 21
86.558
  0
LINE
  8
0
 10
-46.4562
 20
86.558
 11
-46.3121
 21
86.7322
  0
LINE
  8
0
 10
-46.3121
 20
86.7322
 11
-46.1474
 21
86.8869
  0
LINE
  8
0
 10
-46.1474
 20
86.8869
 11
-45.9645
 21
87.0198
  0
LINE
  8
0
 10
-45.9645
 20
87.0198
 11
-45.7664
 21
87.1287
  0
LINE
  8
0
 10
-45.7664
 20
87.1287
 11
-45.5562
 21
87.2119
  0
LINE
  8
0
 10
-45.5562
 20
87.2119
 11
-45.3373
 21
87.2681
  0
LINE
  8
0
 10
-45.3373
 20
87.2681
 11
-45.113
 21
87.2964
  0
LINE
  8
0
 10
-45.113
 20
87.2964
 11
-44.887
 21
87.2964
  0
LINE
  8
0
 10
-44.887
 20
87.2964
 11
-44.6627
 21
87.2681
  0
LINE
  8
0
 10
-44.6627
 20
87.2681
 11
-44.4438
 21
87.2119
  0
LINE
  8
0
 10
-44.4438
 20
87.2119
 11
-44.2336
 21
87.1287
  0
LINE
  8
0
 10
-44.2336
 20
87.1287
 11
-44.0355
 21
87.0198
  0
LINE
  8
0
 10
-44.0355
 20
87.0198
 11
-43.8526
 21
86.8869
  0
LINE
  8
0
 10
-43.8526
 20
86.8869
 11
-43.6879
 21
86.7322
  0
LINE
  8
0
 10
-43.6879
 20
86.7322
 11
-43.5438
 21
86.558
  0
LINE
  8
0
 10
-43.5438
 20
86.558
 11
-43.4226
 21
86.3671
  0
LINE
  8
0
 10
-43.4226
 20
86.3671
 11
-43.3264
 21
86.1626
  0
LINE
  8
0
 10
-43.3264
 20
86.1626
 11
-43.2565
 21
85.9476
  0
LINE
  8
0
 10
-43.2565
 20
85.9476
 11
-43.2142
 21
85.7256
  0
LINE
  8
0
 10
-43.2142
 20
85.7256
 11
-43.2
 21
85.5
  0
LINE
  8
0
 10
-43.2
 20
85.5
 11
-43.2142
 21
85.2744
  0
LINE
  8
0
 10
-43.2142
 20
85.2744
 11
-43.2565
 21
85.0524
  0
LINE
  8
0
 10
-43.2565
 20
85.0524
 11
-43.3264
 21
84.8374
  0
LINE
  8
0
 10
-43.3264
 20
84.8374
 11
-43.4226
 21
84.6328
  0
LINE
  8
0
 10
-43.4226
 20
84.6328
 11
-43.5438
 21
84.442
  0
LINE
  8
0
 10
-43.5438
 20
84.442
 11
-43.6879
 21
84.2678
  0
LINE
  8
0
 10
-43.6879
 20
84.2678
 11
-43.8526
 21
84.1131
  0
LINE
  8
0
 10
-43.8526
 20
84.1131
 11
-44.0355
 21
83.9802
  0
LINE
  8
0
 10
-44.0355
 20
83.9802
 11
-44.2336
 21
83.8713
  0
LINE
  8
0
 10
-44.2336
 20
83.8713
 11
-44.4438
 21
83.7881
  0
LINE
  8
0
 10
-44.4438
 20
83.7881
 11
-44.6627
 21
83.7319
  0
LINE
  8
0
 10
-44.6627
 20
83.7319
 11
-44.887
 21
83.7036
  0
LINE
  8
0
 10
-44.887
 20
83.7036
 11
-45.113
 21
83.7036
  0
LINE
  8
0
 10
44.887
 20
68.7036
 11
44.6627
 21
68.7319
  0
LINE
  8
0
 10
44.6627
 20
68.7319
 11
44.4438
 21
68.7881
  0
LINE
  8
0
 10
44.4438
 20
68.7881
 11
44.2336
 21
68.8713
  0
LINE
  8
0
 10
44.2336
 20
68.8713
 11
44.0355
 21
68.9802
  0
LINE
  8
0
 10
44.0355
 20
68.9802
 11
43.8526
 21
69.1131
  0
LINE
  8
0
 10
43.8526
 20
69.1131
 11
43.6879
 21
69.2678
  0
LINE
  8
0
 10
43.6879
 20
69.2678
 11
43.5438
 21
69.442
  0
LINE
  8
0
 10
43.5438
 20
69.442
 11
43.4226
 21
69.6329
  0
LINE
  8
0
 10
43.4226
 20
69.6329
 11
43.3264
 21
69.8374
  0
LINE
  8
0
 10
43.3264
 20
69.8374
 11
43.2565
 21
70.0524
  0
LINE
  8
0
 10
43.2565
 20
70.0524
 11
43.2142
 21
70.2744
  0
LINE
  8
0
 10
43.2142
 20
70.2744
 11
43.2
 21
70.5
  0
LINE
  8
0
 10
43.2
 20
70.5
 11
43.2142
 21
70.7256
  0
LINE
  8
0
 10
43.2142
 20
70.7256
 11
43.2565
 21
70.9476
  0
LINE
  8
0
 10
43.2565
 20
70.9476
 11
43.3264
 21
71.1626
  0
LINE
  8
0
 10
43.3264
 20
71.1626
 11
43.4226
 21
71.3672
  0
LINE
  8
0
 10
43.4226
 20
71.3672
 11
43.5438
 21
71.558
  0
LINE
  8
0
 10
43.5438
 20
71.558
 11
43.6879
 21
71.7322
  0
LINE
  8
0
 10
43.6879
 20
71.7322
 11
43.8526
 21
71.8869
  0
LINE
  8
0
 10
43.8526
 20
71.8869
 11
44.0355
 21
72.0198
  0
LINE
  8
0
 10
44.0355
 20
72.0198
 11
44.2336
 21
72.1287
  0
LINE
  8
0
 10
44.2336
 20
72.1287
 11
44.4438
 21
72.2119
  0
LINE
  8
0
 10
44.4438
 20
72.2119
 11
44.6627
 21
72.2681
  0
LINE
  8
0
 10
44.6627
 20
72.2681
 11
44.887
 21
72.2964
  0
LINE
  8
0
 10
44.887
 20
72.2964
 11
45.113
 21
72.2964
  0
LINE
  8
0
 10
45.113
 20
72.2964
 11
45.3373
 21
72.2681
  0
LINE
  8
0
 10
45.3373
 20
72.2681
 11
45.5562
 21
72.2119
  0
LINE
  8
0
 10
45.5562
 20
72.2119
 11
45.7664
 21
72.1287
  0
LINE
  8
0
 10
45.7664
 20
72.1287
 11
45.9645
 21
72.0198
  0
LINE
  8
0
 10
45.9645
 20
72.0198
 11
46.1474
 21
71.8869
  0
LINE
  8
0
 10
46.1474
 20
71.8869
 11
46.3121
 21
71.7322
  0
LINE
  8
0
 10
46.3121
 20
71.7322
 11
46.4562
 21
71.558
  0
LINE
  8
0
 10
46.4562
 20
71.558
 11
46.5773
 21
71.3672
  0
LINE
  8
0
 10
46.5773
 20
71.3672
 11
46.6736
 21
71.1626
  0
LINE
  8
0
 10
46.6736
 20
71.1626
 11
46.7434
 21
70.9476
  0
LINE
  8
0
 10
46.7434
 20
70.9476
 11
46.7858
 21
70.7256
  0
LINE
  8
0
 10
46.7858
 20
70.7256
 11
46.8
 21
70.5
  0
LINE
  8
0
 10
46.8
 20
70.5
 11
46.7858
 21
70.2744
  0
LINE
  8
0
 10
46.7858
 20
70.2744
 11
46.7434
 21
70.0524
  0
LINE
  8
0
 10
46.7434
 20
70.0524
 11
46.6736
 21
69.8374
  0
LINE
  8
0
 10
46.6736
 20
69.8374
 11
46.5773
 21
69.6329
  0
LINE
  8
0
 10
46.5773
 20
69.6329
 11
46.4562
 21
69.442
  0
LINE
  8
0
 10
46.4562
 20
69.442
 11
46.3121
 21
69.2678
  0
LINE
  8
0
 10
46.3121
 20
69.2678
 11
46.1474
 21
69.1131
  0
LINE
  8
0
 10
46.1474
 20
69.1131
 11
45.9645
 21
68.9802
  0
LINE
  8
0
 10
45.9645
 20
68.9802
 11
45.7664
 21
68.8713
  0
LINE
  8
0
 10
45.7664
 20
68.8713
 11
45.5562
 21
68.7881
  0
LINE
  8
0
 10
45.5562
 20
68.7881
 11
45.3373
 21
68.7319
  0
LINE
  8
0
 10
45.3373
 20
68.7319
 11
45.113
 21
68.7036
  0
LINE
  8
0
 10
45.113
 20
68.7036
 11
44.887
 21
68.7036
  0
LINE
  8
0
 10
-45.113
 20
68.7036
 11
-45.3373
 21
68.7319
  0
LINE
  8
0
 10
-45.3373
 20
68.7319
 11
-45.5562
 21
68.7881
  0
LINE
  8
0
 10
-45.5562
 20
68.7881
 11
-45.7664
 21
68.8713
  0
LINE
  8
0
 10
-45.7664
 20
68.8713
 11
-45.9645
 21
68.9802
  0
LINE
  8
0
 10
-45.9645
 20
68.9802
 11
-46.1474
 21
69.1131
  0
LINE
  8
0
 10
-46.1474
 20
69.1131
 11
-46.3121
 21
69.2678
  0
LINE
  8
0
 10
-46.3121
 20
69.2678
 11
-46.4562
 21
69.442
  0
LINE
  8
0
 10
-46.4562
 20
69.442
 11
-46.5773
 21
69.6329
  0
LINE
  8
0
 10
-46.5773
 20
69.6329
 11
-46.6736
 21
69.8374
  0
LINE
  8
0
 10
-46.6736
 20
69.8374
 11
-46.7434
 21
70.0524
  0
LINE
  8
0
 10
-46.7434
 20
70.0524
 11
-46.7858
 21
70.2744
  0
LINE
  8
0
 10
-46.7858
 20
70.2744
 11
-46.8
 21
70.5
  0
LINE
  8
0
 10
-46.8
 20
70.5
 11
-46.7858
 21
70.7256
  0
LINE
  8
0
 10
-46.7858
 20
70.7256
 11
-46.7434
 21
70.9476
  0
LINE
  8
0
 10
-46.7434
 20
70.9476
 11
-46.6736
 21
71.1626
  0
LINE
  8
0
 10
-46.6736
 20
71.1626
 11
-46.5773
 21
71.3672
  0
LINE
  8
0
 10
-46.5773
 20
71.3672
 11
-46.4562
 21
71.558
  0
LINE
  8
0
 10
-46.4562
 20
71.558
 11
-46.3121
 21
71.7322
  0
LINE
  8
0
 10
-46.3121
 20
71.7322
 11
-46.1474
 21
71.8869
  0
LINE
  8
0
 10
-46.1474
 20
71.8869
 11
-45.9645
 21
72.0198
  0
LINE
  8
0
 10
-45.9645
 20
72.0198
 11
-45.7664
 21
72.1287
  0
LINE
  8
0
 10
-45.7664
 20
72.1287
 11
-45.5562
 21
72.2119
  0
LINE
  8
0
 10
-45.5562
 20
72.2119
 11
-45.3373
 21
72.2681
  0
LINE
  8
0
 10
-45.3373
 20
72.2681
 11
-45.113
 21
72.2964
  0
LINE
  8
0
 10
-45.113
 20
72.2964
 11
-44.887
 21
72.2964
  0
LINE
  8
0
 10
-44.887
 20
72.2964
 11
-44.6627
 21
72.2681
  0
LINE
  8
0
 10
-44.6627
 20
72.2681
 11
-44.4438
 21
72.2119
  0
LINE
  8
0
 10
-44.4438
 20
72.2119
 11
-44.2336
 21
72.1287
  0
LINE
  8
0
 10
-44.2336
 20
72.1287
 11
-44.0355
 21
72.0198
  0
LINE
  8
0
 10
-44.0355
 20
72.0198
 11
-43.8526
 21
71.8869
  0
LINE
  8
0
 10
-43.8526
 20
71.8869
 11
-43.6879
 21
71.7322
  0
LINE
  8
0
 10
-43.6879
 20
71.7322
 11
-43.5438
 21
71.558
  0
LINE
  8
0
 10
-43.5438
 20
71.558
 11
-43.4226
 21
71.3672
  0
LINE
  8
0
 10
-43.4226
 20
71.3672
 11
-43.3264
 21
71.1626
  0
LINE
  8
0
 10
-43.3264
 20
71.1626
 11
-43.2565
 21
70.9476
  0
LINE
  8
0
 10
-43.2565
 20
70.9476
 11
-43.2142
 21
70.7256
  0
LINE
  8
0
 10
-43.2142
 20
70.7256
 11
-43.2
 21
70.5
  0
LINE
  8
0
 10
-43.2
 20
70.5
 11
-43.2142
 21
70.2744
  0
LINE
  8
0
 10
-43.2142
 20
70.2744
 11
-43.2565
 21
70.0524
  0
LINE
  8
0
 10
-43.2565
 20
70.0524
 11
-43.3264
 21
69.8374
  0
LINE
  8
0
 10
-43.3264
 20
69.8374
 11
-43.4226
 21
69.6329
  0
LINE
  8
0
 10
-43.4226
 20
69.6329
 11
-43.5438
 21
69.442
  0
LINE
  8
0
 10
-43.5438
 20
69.442
 11
-43.6879
 21
69.2678
  0
LINE
  8
0
 10
-43.6879
 20
69.2678
 11
-43.8526
 21
69.1131
  0
LINE
  8
0
 10
-43.8526
 20
69.1131
 11
-44.0355
 21
68.9802
  0
LINE
  8
0
 10
-44.0355
 20
68.9802
 11
-44.2336
 21
68.8713
  0
LINE
  8
0
 10
-44.2336
 20
68.8713
 11
-44.4438
 21
68.7881
  0
LINE
  8
0
 10
-44.4438
 20
68.7881
 11
-44.6627
 21
68.7319
  0
LINE
  8
0
 10
-44.6627
 20
68.7319
 11
-44.887
 21
68.7036
  0
LINE
  8
0
 10
-44.887
 20
68.7036
 11
-45.113
 21
68.7036
  0
ENDSEC
  0
SECTION
  2
OBJECTS
  0
DICTIONARY
  0
ENDSEC
  0
EOF
