<?xml version="1.0" standalone="no"?>
<!DOCTYPE svg PUBLIC "-//W3C//DTD SVG 1.1//EN" "http://www.w3.org/Graphics/SVG/1.1/DTD/svg11.dtd">
<svg width="106mm" height="108mm" viewBox="-53 -171 106 108" xmlns="http://www.w3.org/2000/svg" version="1.1">
<title>OpenSCAD Model</title>
<path d="
M 48.4369,-141.089 L 49.0451,-141.245 L 49.6289,-141.476 L 50.1791,-141.778 L 50.6871,-142.147 L 51.1448,-142.577
 L 51.5451,-143.061 L 51.8815,-143.591 L 52.1489,-144.159 L 52.3429,-144.757 L 52.4606,-145.373 L 52.5,-146
 L 52.5,-166 L 52.4606,-166.627 L 52.3429,-167.243 L 52.1489,-167.841 L 51.8815,-168.409 L 51.5451,-168.939
 L 51.1448,-169.423 L 50.6871,-169.853 L 50.1791,-170.222 L 49.6289,-170.524 L 49.0451,-170.755 L 48.4369,-170.911
 L 47.8139,-170.99 L -47.8139,-170.99 L -48.4369,-170.911 L -49.0451,-170.755 L -49.6289,-170.524 L -50.1791,-170.222
 L -50.6871,-169.853 L -51.1448,-169.423 L -51.5451,-168.939 L -51.8815,-168.409 L -52.1489,-167.841 L -52.3429,-167.243
 L -52.4606,-166.627 L -52.5,-166 L -52.5,-146 L -52.4606,-145.373 L -52.3429,-144.757 L -52.1489,-144.159
 L -51.8815,-143.591 L -51.5451,-143.061 L -51.1448,-142.577 L -50.6871,-142.147 L -50.1791,-141.778 L -49.6289,-141.476
 L -49.0451,-141.245 L -48.4369,-141.089 L -47.8139,-141.01 L 47.8139,-141.01 z
M -47.5482,-141.509 L -48.1401,-141.584 L -48.7178,-141.732 L -49.2724,-141.952 L -49.7952,-142.239 L -50.2778,-142.59
 L -50.7126,-142.998 L -51.0928,-143.458 L -51.4124,-143.962 L -51.6664,-144.501 L -51.8508,-145.069 L -51.9625,-145.655
 L -52,-146.25 L -52,-165.75 L -51.9625,-166.345 L -51.8508,-166.931 L -51.6664,-167.499 L -51.4124,-168.038
 L -51.0928,-168.542 L -50.7126,-169.002 L -50.2778,-169.41 L -49.7952,-169.761 L -49.2724,-170.048 L -48.7178,-170.268
 L -48.1401,-170.416 L -47.5482,-170.491 L 47.5482,-170.491 L 48.1401,-170.416 L 48.7178,-170.268 L 49.2724,-170.048
 L 49.7952,-169.761 L 50.2778,-169.41 L 50.7126,-169.002 L 51.0928,-168.542 L 51.4124,-168.038 L 51.6664,-167.499
 L 51.8508,-166.931 L 51.9625,-166.345 L 52,-165.75 L 52,-146.25 L 51.9625,-145.655 L 51.8508,-145.069
 L 51.6664,-144.501 L 51.4124,-143.962 L 51.0928,-143.458 L 50.7126,-142.998 L 50.2778,-142.59 L 49.7952,-142.239
 L 49.2724,-141.952 L 48.7178,-141.732 L 48.1401,-141.584 L 47.5482,-141.509 z
M 48.4369,-102.089 L 49.0451,-102.245 L 49.6289,-102.476 L 50.1791,-102.778 L 50.6871,-103.147 L 51.1448,-103.577
 L 51.5451,-104.061 L 51.8815,-104.591 L 52.1489,-105.159 L 52.3429,-105.757 L 52.4606,-106.373 L 52.5,-107
 L 52.5,-127 L 52.4606,-127.627 L 52.3429,-128.243 L 52.1489,-128.841 L 51.8815,-129.409 L 51.5451,-129.939
 L 51.1448,-130.423 L 50.6871,-130.853 L 50.1791,-131.222 L 49.6289,-131.524 L 49.0451,-131.755 L 48.4369,-131.911
 L 47.8139,-131.99 L -47.8139,-131.99 L -48.4369,-131.911 L -49.0451,-131.755 L -49.6289,-131.524 L -50.1791,-131.222
 L -50.6871,-130.853 L -51.1448,-130.423 L -51.5451,-129.939 L -51.8815,-129.409 L -52.1489,-128.841 L -52.3429,-128.243
 L -52.4606,-127.627 L -52.5,-127 L -52.5,-107 L -52.4606,-106.373 L -52.3429,-105.757 L -52.1489,-105.159
 L -51.8815,-104.591 L -51.5451,-104.061 L -51.1448,-103.577 L -50.6871,-103.147 L -50.1791,-102.778 L -49.6289,-102.476
 L -49.0451,-102.245 L -48.4369,-102.089 L -47.8139,-102.01 L 47.8139,-102.01 z
M -47.493,-103.388 L -47.9751,-103.449 L -48.4457,-103.57 L -48.8975,-103.749 L -49.3234,-103.983 L -49.7165,-104.269
 L -50.0707,-104.601 L -50.3805,-104.976 L -50.6408,-105.386 L -50.8477,-105.826 L -50.9979,-106.288 L -51.089,-106.765
 L -51.1195,-107.25 L -51.1195,-126.75 L -51.089,-127.235 L -50.9979,-127.712 L -50.8477,-128.174 L -50.6408,-128.614
 L -50.3805,-129.024 L -50.0707,-129.399 L -49.7165,-129.731 L -49.3234,-130.017 L -48.8975,-130.251 L -48.4457,-130.43
 L -47.9751,-130.551 L -47.493,-130.612 L 47.493,-130.612 L 47.9751,-130.551 L 48.4457,-130.43 L 48.8975,-130.251
 L 49.3234,-130.017 L 49.7165,-129.731 L 50.0707,-129.399 L 50.3805,-129.024 L 50.6408,-128.614 L 50.8477,-128.174
 L 50.9979,-127.712 L 51.089,-127.235 L 51.1195,-126.75 L 51.1195,-107.25 L 51.089,-106.765 L 50.9979,-106.288
 L 50.8477,-105.826 L 50.6408,-105.386 L 50.3805,-104.976 L 50.0707,-104.601 L 49.7165,-104.269 L 49.3234,-103.983
 L 48.8975,-103.749 L 48.4457,-103.57 L 47.9751,-103.449 L 47.493,-103.388 z
M 48.4369,-63.0886 L 49.0451,-63.2447 L 49.6289,-63.4759 L 50.1791,-63.7784 L 50.6871,-64.1474 L 51.1448,-64.5773
 L 51.5451,-65.0611 L 51.8815,-65.5912 L 52.1489,-66.1594 L 52.3429,-66.7566 L 52.4606,-67.3733 L 52.5,-68
 L 52.5,-88 L 52.4606,-88.6267 L 52.3429,-89.2434 L 52.1489,-89.8406 L 51.8815,-90.4088 L 51.5451,-90.9389
 L 51.1448,-91.4227 L 50.6871,-91.8526 L 50.1791,-92.2216 L 49.6289,-92.5241 L 49.0451,-92.7553 L 48.4369,-92.9114
 L 47.8139,-92.9901 L -47.8139,-92.9901 L -48.4369,-92.9114 L -49.0451,-92.7553 L -49.6289,-92.5241 L -50.1791,-92.2216
 L -50.6871,-91.8526 L -51.1448,-91.4227 L -51.5451,-90.9389 L -51.8815,-90.4088 L -52.1489,-89.8406 L -52.3429,-89.2434
 L -52.4606,-88.6267 L -52.5,-88 L -52.5,-68 L -52.4606,-67.3733 L -52.3429,-66.7566 L -52.1489,-66.1594
 L -51.8815,-65.5912 L -51.5451,-65.0611 L -51.1448,-64.5773 L -50.6871,-64.1474 L -50.1791,-63.7784 L -49.6289,-63.4759
 L -49.0451,-63.2447 L -48.4369,-63.0886 L -47.8139,-63.0099 L 47.8139,-63.0099 z
M 44.887,-83.7036 L 44.6627,-83.7319 L 44.4438,-83.7881 L 44.2336,-83.8713 L 44.0355,-83.9802 L 43.8526,-84.1131
 L 43.6879,-84.2678 L 43.5438,-84.442 L 43.4226,-84.6328 L 43.3264,-84.8374 L 43.2565,-85.0524 L 43.2142,-85.2744
 L 43.2,-85.5 L 43.2142,-85.7256 L 43.2565,-85.9476 L 43.3264,-86.1626 L 43.4226,-86.3671 L 43.5438,-86.558
 L 43.6879,-86.7322 L 43.8526,-86.8869 L 44.0355,-87.0198 L 44.2336,-87.1287 L 44.4438,-87.2119 L 44.6627,-87.2681
 L 44.887,-87.2964 L 45.113,-87.2964 L 45.3373,-87.2681 L 45.5562,-87.2119 L 45.7664,-87.1287 L 45.9645,-87.0198
 L 46.1474,-86.8869 L 46.3121,-86.7322 L 46.4562,-86.558 L 46.5773,-86.3671 L 46.6736,-86.1626 L 46.7434,-85.9476
 L 46.7858,-85.7256 L 46.8,-85.5 L 46.7858,-85.2744 L 46.7434,-85.0524 L 46.6736,-84.8374 L 46.5773,-84.6328
 L 46.4562,-84.442 L 46.3121,-84.2678 L 46.1474,-84.1131 L 45.9645,-83.9802 L 45.7664,-83.8713 L 45.5562,-83.7881
 L 45.3373,-83.7319 L 45.113,-83.7036 z
M -45.113,-83.7036 L -45.3373,-83.7319 L -45.5562,-83.7881 L -45.7664,-83.8713 L -45.9645,-83.9802 L -46.1474,-84.1131
 L -46.3121,-84.2678 L -46.4562,-84.442 L -46.5773,-84.6328 L -46.6736,-84.8374 L -46.7434,-85.0524 L -46.7858,-85.2744
 L -46.8,-85.5 L -46.7858,-85.7256 L -46.7434,-85.9476 L -46.6736,-86.1626 L -46.5773,-86.3671 L -46.4562,-86.558
 L -46.3121,-86.7322 L -46.1474,-86.8869 L -45.9645,-87.0198 L -45.7664,-87.1287 L -45.5562,-87.2119 L -45.3373,-87.2681
 L -45.113,-87.2964 L -44.887,-87.2964 L -44.6627,-87.2681 L -44.4438,-87.2119 L -44.2336,-87.1287 L -44.0355,-87.0198
 L -43.8526,-86.8869 L -43.6879,-86.7322 L -43.5438,-86.558 L -43.4226,-86.3671 L -43.3264,-86.1626 L -43.2565,-85.9476
 L -43.2142,-85.7256 L -43.2,-85.5 L -43.2142,-85.2744 L -43.2565,-85.0524 L -43.3264,-84.8374 L -43.4226,-84.6328
 L -43.5438,-84.442 L -43.6879,-84.2678 L -43.8526,-84.1131 L -44.0355,-83.9802 L -44.2336,-83.8713 L -44.4438,-83.7881
 L -44.6627,-83.7319 L -44.887,-83.7036 z
M 44.887,-68.7036 L 44.6627,-68.7319 L 44.4438,-68.7881 L 44.2336,-68.8713 L 44.0355,-68.9802 L 43.8526,-69.1131
 L 43.6879,-69.2678 L 43.5438,-69.442 L 43.4226,-69.6329 L 43.3264,-69.8374 L 43.2565,-70.0524 L 43.2142,-70.2744
 L 43.2,-70.5 L 43.2142,-70.7256 L 43.2565,-70.9476 L 43.3264,-71.1626 L 43.4226,-71.3672 L 43.5438,-71.558
 L 43.6879,-71.7322 L 43.8526,-71.8869 L 44.0355,-72.0198 L 44.2336,-72.1287 L 44.4438,-72.2119 L 44.6627,-72.2681
 L 44.887,-72.2964 L 45.113,-72.2964 L 45.3373,-72.2681 L 45.5562,-72.2119 L 45.7664,-72.1287 L 45.9645,-72.0198
 L 46.1474,-71.8869 L 46.3121,-71.7322 L 46.4562,-71.558 L 46.5773,-71.3672 L 46.6736,-71.1626 L 46.7434,-70.9476
 L 46.7858,-70.7256 L 46.8,-70.5 L 46.7858,-70.2744 L 46.7434,-70.0524 L 46.6736,-69.8374 L 46.5773,-69.6329
 L 46.4562,-69.442 L 46.3121,-69.2678 L 46.1474,-69.1131 L 45.9645,-68.9802 L 45.7664,-68.8713 L 45.5562,-68.7881
 L 45.3373,-68.7319 L 45.113,-68.7036 z
M -45.113,-68.7036 L -45.3373,-68.7319 L -45.5562,-68.7881 L -45.7664,-68.8713 L -45.9645,-68.9802 L -46.1474,-69.1131
 L -46.3121,-69.2678 L -46.4562,-69.442 L -46.5773,-69.6329 L -46.6736,-69.8374 L -46.7434,-70.0524 L -46.7858,-70.2744
 L -46.8,-70.5 L -46.7858,-70.7256 L -46.7434,-70.9476 L -46.6736,-71.1626 L -46.5773,-71.3672 L -46.4562,-71.558
 L -46.3121,-71.7322 L -46.1474,-71.8869 L -45.9645,-72.0198 L -45.7664,-72.1287 L -45.5562,-72.2119 L -45.3373,-72.2681
 L -45.113,-72.2964 L -44.887,-72.2964 L -44.6627,-72.2681 L -44.4438,-72.2119 L -44.2336,-72.1287 L -44.0355,-72.0198
 L -43.8526,-71.8869 L -43.6879,-71.7322 L -43.5438,-71.558 L -43.4226,-71.3672 L -43.3264,-71.1626 L -43.2565,-70.9476
 L -43.2142,-70.7256 L -43.2,-70.5 L -43.2142,-70.2744 L -43.2565,-70.0524 L -43.3264,-69.8374 L -43.4226,-69.6329
 L -43.5438,-69.442 L -43.6879,-69.2678 L -43.8526,-69.1131 L -44.0355,-68.9802 L -44.2336,-68.8713 L -44.4438,-68.7881
 L -44.6627,-68.7319 L -44.887,-68.7036 z
" stroke="black" fill="lightgray" stroke-width="0.5"/>
</svg>
