  0
SECTION
  2
BLOCKS
  0
ENDSEC
  0
SECTION
  2
ENTITIES
  0
LINE
  8
0
 10
78.4369
 20
141.089
 11
79.0451
 21
141.245
  0
LINE
  8
0
 10
79.0451
 20
141.245
 11
79.6289
 21
141.476
  0
LINE
  8
0
 10
79.6289
 20
141.476
 11
80.1791
 21
141.778
  0
LINE
  8
0
 10
80.1791
 20
141.778
 11
80.6871
 21
142.147
  0
LINE
  8
0
 10
80.6871
 20
142.147
 11
81.1448
 21
142.577
  0
LINE
  8
0
 10
81.1448
 20
142.577
 11
81.5451
 21
143.061
  0
LINE
  8
0
 10
81.5451
 20
143.061
 11
81.8815
 21
143.591
  0
LINE
  8
0
 10
81.8815
 20
143.591
 11
82.1489
 21
144.159
  0
LINE
  8
0
 10
82.1489
 20
144.159
 11
82.3429
 21
144.757
  0
LINE
  8
0
 10
82.3429
 20
144.757
 11
82.4606
 21
145.373
  0
LINE
  8
0
 10
82.4606
 20
145.373
 11
82.5
 21
146
  0
LINE
  8
0
 10
82.5
 20
146
 11
82.5
 21
166
  0
LINE
  8
0
 10
82.5
 20
166
 11
82.4606
 21
166.627
  0
LINE
  8
0
 10
82.4606
 20
166.627
 11
82.3429
 21
167.243
  0
LINE
  8
0
 10
82.3429
 20
167.243
 11
82.1489
 21
167.841
  0
LINE
  8
0
 10
82.1489
 20
167.841
 11
81.8815
 21
168.409
  0
LINE
  8
0
 10
81.8815
 20
168.409
 11
81.5451
 21
168.939
  0
LINE
  8
0
 10
81.5451
 20
168.939
 11
81.1448
 21
169.423
  0
LINE
  8
0
 10
81.1448
 20
169.423
 11
80.6871
 21
169.853
  0
LINE
  8
0
 10
80.6871
 20
169.853
 11
80.1791
 21
170.222
  0
LINE
  8
0
 10
80.1791
 20
170.222
 11
79.6289
 21
170.524
  0
LINE
  8
0
 10
79.6289
 20
170.524
 11
79.0451
 21
170.755
  0
LINE
  8
0
 10
79.0451
 20
170.755
 11
78.4369
 21
170.911
  0
LINE
  8
0
 10
78.4369
 20
170.911
 11
77.8139
 21
170.99
  0
LINE
  8
0
 10
77.8139
 20
170.99
 11
-77.8139
 21
170.99
  0
LINE
  8
0
 10
-77.8139
 20
170.99
 11
-78.4369
 21
170.911
  0
LINE
  8
0
 10
-78.4369
 20
170.911
 11
-79.0451
 21
170.755
  0
LINE
  8
0
 10
-79.0451
 20
170.755
 11
-79.6289
 21
170.524
  0
LINE
  8
0
 10
-79.6289
 20
170.524
 11
-80.1791
 21
170.222
  0
LINE
  8
0
 10
-80.1791
 20
170.222
 11
-80.6871
 21
169.853
  0
LINE
  8
0
 10
-80.6871
 20
169.853
 11
-81.1448
 21
169.423
  0
LINE
  8
0
 10
-81.1448
 20
169.423
 11
-81.5451
 21
168.939
  0
LINE
  8
0
 10
-81.5451
 20
168.939
 11
-81.8815
 21
168.409
  0
LINE
  8
0
 10
-81.8815
 20
168.409
 11
-82.1489
 21
167.841
  0
LINE
  8
0
 10
-82.1489
 20
167.841
 11
-82.3429
 21
167.243
  0
LINE
  8
0
 10
-82.3429
 20
167.243
 11
-82.4606
 21
166.627
  0
LINE
  8
0
 10
-82.4606
 20
166.627
 11
-82.5
 21
166
  0
LINE
  8
0
 10
-82.5
 20
166
 11
-82.5
 21
146
  0
LINE
  8
0
 10
-82.5
 20
146
 11
-82.4606
 21
145.373
  0
LINE
  8
0
 10
-82.4606
 20
145.373
 11
-82.3429
 21
144.757
  0
LINE
  8
0
 10
-82.3429
 20
144.757
 11
-82.1489
 21
144.159
  0
LINE
  8
0
 10
-82.1489
 20
144.159
 11
-81.8815
 21
143.591
  0
LINE
  8
0
 10
-81.8815
 20
143.591
 11
-81.5451
 21
143.061
  0
LINE
  8
0
 10
-81.5451
 20
143.061
 11
-81.1448
 21
142.577
  0
LINE
  8
0
 10
-81.1448
 20
142.577
 11
-80.6871
 21
142.147
  0
LINE
  8
0
 10
-80.6871
 20
142.147
 11
-80.1791
 21
141.778
  0
LINE
  8
0
 10
-80.1791
 20
141.778
 11
-79.6289
 21
141.476
  0
LINE
  8
0
 10
-79.6289
 20
141.476
 11
-79.0451
 21
141.245
  0
LINE
  8
0
 10
-79.0451
 20
141.245
 11
-78.4369
 21
141.089
  0
LINE
  8
0
 10
-78.4369
 20
141.089
 11
-77.8139
 21
141.01
  0
LINE
  8
0
 10
-77.8139
 20
141.01
 11
77.8139
 21
141.01
  0
LINE
  8
0
 10
77.8139
 20
141.01
 11
78.4369
 21
141.089
  0
LINE
  8
0
 10
-77.5482
 20
141.509
 11
-78.1401
 21
141.584
  0
LINE
  8
0
 10
-78.1401
 20
141.584
 11
-78.7178
 21
141.732
  0
LINE
  8
0
 10
-78.7178
 20
141.732
 11
-79.2724
 21
141.952
  0
LINE
  8
0
 10
-79.2724
 20
141.952
 11
-79.7952
 21
142.239
  0
LINE
  8
0
 10
-79.7952
 20
142.239
 11
-80.2778
 21
142.59
  0
LINE
  8
0
 10
-80.2778
 20
142.59
 11
-80.7126
 21
142.998
  0
LINE
  8
0
 10
-80.7126
 20
142.998
 11
-81.0928
 21
143.458
  0
LINE
  8
0
 10
-81.0928
 20
143.458
 11
-81.4125
 21
143.962
  0
LINE
  8
0
 10
-81.4125
 20
143.962
 11
-81.6664
 21
144.501
  0
LINE
  8
0
 10
-81.6664
 20
144.501
 11
-81.8508
 21
145.069
  0
LINE
  8
0
 10
-81.8508
 20
145.069
 11
-81.9625
 21
145.655
  0
LINE
  8
0
 10
-81.9625
 20
145.655
 11
-82
 21
146.25
  0
LINE
  8
0
 10
-82
 20
146.25
 11
-82
 21
165.75
  0
LINE
  8
0
 10
-82
 20
165.75
 11
-81.9625
 21
166.345
  0
LINE
  8
0
 10
-81.9625
 20
166.345
 11
-81.8508
 21
166.931
  0
LINE
  8
0
 10
-81.8508
 20
166.931
 11
-81.6664
 21
167.499
  0
LINE
  8
0
 10
-81.6664
 20
167.499
 11
-81.4125
 21
168.038
  0
LINE
  8
0
 10
-81.4125
 20
168.038
 11
-81.0928
 21
168.542
  0
LINE
  8
0
 10
-81.0928
 20
168.542
 11
-80.7126
 21
169.002
  0
LINE
  8
0
 10
-80.7126
 20
169.002
 11
-80.2778
 21
169.41
  0
LINE
  8
0
 10
-80.2778
 20
169.41
 11
-79.7952
 21
169.761
  0
LINE
  8
0
 10
-79.7952
 20
169.761
 11
-79.2724
 21
170.048
  0
LINE
  8
0
 10
-79.2724
 20
170.048
 11
-78.7178
 21
170.268
  0
LINE
  8
0
 10
-78.7178
 20
170.268
 11
-78.1401
 21
170.416
  0
LINE
  8
0
 10
-78.1401
 20
170.416
 11
-77.5482
 21
170.491
  0
LINE
  8
0
 10
-77.5482
 20
170.491
 11
77.5482
 21
170.491
  0
LINE
  8
0
 10
77.5482
 20
170.491
 11
78.1401
 21
170.416
  0
LINE
  8
0
 10
78.1401
 20
170.416
 11
78.7178
 21
170.268
  0
LINE
  8
0
 10
78.7178
 20
170.268
 11
79.2724
 21
170.048
  0
LINE
  8
0
 10
79.2724
 20
170.048
 11
79.7952
 21
169.761
  0
LINE
  8
0
 10
79.7952
 20
169.761
 11
80.2778
 21
169.41
  0
LINE
  8
0
 10
80.2778
 20
169.41
 11
80.7126
 21
169.002
  0
LINE
  8
0
 10
80.7126
 20
169.002
 11
81.0928
 21
168.542
  0
LINE
  8
0
 10
81.0928
 20
168.542
 11
81.4125
 21
168.038
  0
LINE
  8
0
 10
81.4125
 20
168.038
 11
81.6664
 21
167.499
  0
LINE
  8
0
 10
81.6664
 20
167.499
 11
81.8508
 21
166.931
  0
LINE
  8
0
 10
81.8508
 20
166.931
 11
81.9625
 21
166.345
  0
LINE
  8
0
 10
81.9625
 20
166.345
 11
82
 21
165.75
  0
LINE
  8
0
 10
82
 20
165.75
 11
82
 21
146.25
  0
LINE
  8
0
 10
82
 20
146.25
 11
81.9625
 21
145.655
  0
LINE
  8
0
 10
81.9625
 20
145.655
 11
81.8508
 21
145.069
  0
LINE
  8
0
 10
81.8508
 20
145.069
 11
81.6664
 21
144.501
  0
LINE
  8
0
 10
81.6664
 20
144.501
 11
81.4125
 21
143.962
  0
LINE
  8
0
 10
81.4125
 20
143.962
 11
81.0928
 21
143.458
  0
LINE
  8
0
 10
81.0928
 20
143.458
 11
80.7126
 21
142.998
  0
LINE
  8
0
 10
80.7126
 20
142.998
 11
80.2778
 21
142.59
  0
LINE
  8
0
 10
80.2778
 20
142.59
 11
79.7952
 21
142.239
  0
LINE
  8
0
 10
79.7952
 20
142.239
 11
79.2724
 21
141.952
  0
LINE
  8
0
 10
79.2724
 20
141.952
 11
78.7178
 21
141.732
  0
LINE
  8
0
 10
78.7178
 20
141.732
 11
78.1401
 21
141.584
  0
LINE
  8
0
 10
78.1401
 20
141.584
 11
77.5482
 21
141.509
  0
LINE
  8
0
 10
77.5482
 20
141.509
 11
-77.5482
 21
141.509
  0
LINE
  8
0
 10
78.4369
 20
102.089
 11
79.0451
 21
102.245
  0
LINE
  8
0
 10
79.0451
 20
102.245
 11
79.6289
 21
102.476
  0
LINE
  8
0
 10
79.6289
 20
102.476
 11
80.1791
 21
102.778
  0
LINE
  8
0
 10
80.1791
 20
102.778
 11
80.6871
 21
103.147
  0
LINE
  8
0
 10
80.6871
 20
103.147
 11
81.1448
 21
103.577
  0
LINE
  8
0
 10
81.1448
 20
103.577
 11
81.5451
 21
104.061
  0
LINE
  8
0
 10
81.5451
 20
104.061
 11
81.8815
 21
104.591
  0
LINE
  8
0
 10
81.8815
 20
104.591
 11
82.1489
 21
105.159
  0
LINE
  8
0
 10
82.1489
 20
105.159
 11
82.3429
 21
105.757
  0
LINE
  8
0
 10
82.3429
 20
105.757
 11
82.4606
 21
106.373
  0
LINE
  8
0
 10
82.4606
 20
106.373
 11
82.5
 21
107
  0
LINE
  8
0
 10
82.5
 20
107
 11
82.5
 21
127
  0
LINE
  8
0
 10
82.5
 20
127
 11
82.4606
 21
127.627
  0
LINE
  8
0
 10
82.4606
 20
127.627
 11
82.3429
 21
128.243
  0
LINE
  8
0
 10
82.3429
 20
128.243
 11
82.1489
 21
128.841
  0
LINE
  8
0
 10
82.1489
 20
128.841
 11
81.8815
 21
129.409
  0
LINE
  8
0
 10
81.8815
 20
129.409
 11
81.5451
 21
129.939
  0
LINE
  8
0
 10
81.5451
 20
129.939
 11
81.1448
 21
130.423
  0
LINE
  8
0
 10
81.1448
 20
130.423
 11
80.6871
 21
130.853
  0
LINE
  8
0
 10
80.6871
 20
130.853
 11
80.1791
 21
131.222
  0
LINE
  8
0
 10
80.1791
 20
131.222
 11
79.6289
 21
131.524
  0
LINE
  8
0
 10
79.6289
 20
131.524
 11
79.0451
 21
131.755
  0
LINE
  8
0
 10
79.0451
 20
131.755
 11
78.4369
 21
131.911
  0
LINE
  8
0
 10
78.4369
 20
131.911
 11
77.8139
 21
131.99
  0
LINE
  8
0
 10
77.8139
 20
131.99
 11
-77.8139
 21
131.99
  0
LINE
  8
0
 10
-77.8139
 20
131.99
 11
-78.4369
 21
131.911
  0
LINE
  8
0
 10
-78.4369
 20
131.911
 11
-79.0451
 21
131.755
  0
LINE
  8
0
 10
-79.0451
 20
131.755
 11
-79.6289
 21
131.524
  0
LINE
  8
0
 10
-79.6289
 20
131.524
 11
-80.1791
 21
131.222
  0
LINE
  8
0
 10
-80.1791
 20
131.222
 11
-80.6871
 21
130.853
  0
LINE
  8
0
 10
-80.6871
 20
130.853
 11
-81.1448
 21
130.423
  0
LINE
  8
0
 10
-81.1448
 20
130.423
 11
-81.5451
 21
129.939
  0
LINE
  8
0
 10
-81.5451
 20
129.939
 11
-81.8815
 21
129.409
  0
LINE
  8
0
 10
-81.8815
 20
129.409
 11
-82.1489
 21
128.841
  0
LINE
  8
0
 10
-82.1489
 20
128.841
 11
-82.3429
 21
128.243
  0
LINE
  8
0
 10
-82.3429
 20
128.243
 11
-82.4606
 21
127.627
  0
LINE
  8
0
 10
-82.4606
 20
127.627
 11
-82.5
 21
127
  0
LINE
  8
0
 10
-82.5
 20
127
 11
-82.5
 21
107
  0
LINE
  8
0
 10
-82.5
 20
107
 11
-82.4606
 21
106.373
  0
LINE
  8
0
 10
-82.4606
 20
106.373
 11
-82.3429
 21
105.757
  0
LINE
  8
0
 10
-82.3429
 20
105.757
 11
-82.1489
 21
105.159
  0
LINE
  8
0
 10
-82.1489
 20
105.159
 11
-81.8815
 21
104.591
  0
LINE
  8
0
 10
-81.8815
 20
104.591
 11
-81.5451
 21
104.061
  0
LINE
  8
0
 10
-81.5451
 20
104.061
 11
-81.1448
 21
103.577
  0
LINE
  8
0
 10
-81.1448
 20
103.577
 11
-80.6871
 21
103.147
  0
LINE
  8
0
 10
-80.6871
 20
103.147
 11
-80.1791
 21
102.778
  0
LINE
  8
0
 10
-80.1791
 20
102.778
 11
-79.6289
 21
102.476
  0
LINE
  8
0
 10
-79.6289
 20
102.476
 11
-79.0451
 21
102.245
  0
LINE
  8
0
 10
-79.0451
 20
102.245
 11
-78.4369
 21
102.089
  0
LINE
  8
0
 10
-78.4369
 20
102.089
 11
-77.8139
 21
102.01
  0
LINE
  8
0
 10
-77.8139
 20
102.01
 11
77.8139
 21
102.01
  0
LINE
  8
0
 10
77.8139
 20
102.01
 11
78.4369
 21
102.089
  0
LINE
  8
0
 10
-77.493
 20
103.388
 11
-77.9751
 21
103.449
  0
LINE
  8
0
 10
-77.9751
 20
103.449
 11
-78.4457
 21
103.57
  0
LINE
  8
0
 10
-78.4457
 20
103.57
 11
-78.8975
 21
103.749
  0
LINE
  8
0
 10
-78.8975
 20
103.749
 11
-79.3234
 21
103.983
  0
LINE
  8
0
 10
-79.3234
 20
103.983
 11
-79.7165
 21
104.269
  0
LINE
  8
0
 10
-79.7165
 20
104.269
 11
-80.0707
 21
104.601
  0
LINE
  8
0
 10
-80.0707
 20
104.601
 11
-80.3805
 21
104.976
  0
LINE
  8
0
 10
-80.3805
 20
104.976
 11
-80.6408
 21
105.386
  0
LINE
  8
0
 10
-80.6408
 20
105.386
 11
-80.8477
 21
105.826
  0
LINE
  8
0
 10
-80.8477
 20
105.826
 11
-80.9979
 21
106.288
  0
LINE
  8
0
 10
-80.9979
 20
106.288
 11
-81.089
 21
106.765
  0
LINE
  8
0
 10
-81.089
 20
106.765
 11
-81.1195
 21
107.25
  0
LINE
  8
0
 10
-81.1195
 20
107.25
 11
-81.1195
 21
126.75
  0
LINE
  8
0
 10
-81.1195
 20
126.75
 11
-81.089
 21
127.235
  0
LINE
  8
0
 10
-81.089
 20
127.235
 11
-80.9979
 21
127.712
  0
LINE
  8
0
 10
-80.9979
 20
127.712
 11
-80.8477
 21
128.174
  0
LINE
  8
0
 10
-80.8477
 20
128.174
 11
-80.6408
 21
128.614
  0
LINE
  8
0
 10
-80.6408
 20
128.614
 11
-80.3805
 21
129.024
  0
LINE
  8
0
 10
-80.3805
 20
129.024
 11
-80.0707
 21
129.399
  0
LINE
  8
0
 10
-80.0707
 20
129.399
 11
-79.7165
 21
129.731
  0
LINE
  8
0
 10
-79.7165
 20
129.731
 11
-79.3234
 21
130.017
  0
LINE
  8
0
 10
-79.3234
 20
130.017
 11
-78.8975
 21
130.251
  0
LINE
  8
0
 10
-78.8975
 20
130.251
 11
-78.4457
 21
130.43
  0
LINE
  8
0
 10
-78.4457
 20
130.43
 11
-77.9751
 21
130.551
  0
LINE
  8
0
 10
-77.9751
 20
130.551
 11
-77.493
 21
130.612
  0
LINE
  8
0
 10
-77.493
 20
130.612
 11
77.493
 21
130.612
  0
LINE
  8
0
 10
77.493
 20
130.612
 11
77.9751
 21
130.551
  0
LINE
  8
0
 10
77.9751
 20
130.551
 11
78.4457
 21
130.43
  0
LINE
  8
0
 10
78.4457
 20
130.43
 11
78.8975
 21
130.251
  0
LINE
  8
0
 10
78.8975
 20
130.251
 11
79.3234
 21
130.017
  0
LINE
  8
0
 10
79.3234
 20
130.017
 11
79.7165
 21
129.731
  0
LINE
  8
0
 10
79.7165
 20
129.731
 11
80.0707
 21
129.399
  0
LINE
  8
0
 10
80.0707
 20
129.399
 11
80.3805
 21
129.024
  0
LINE
  8
0
 10
80.3805
 20
129.024
 11
80.6408
 21
128.614
  0
LINE
  8
0
 10
80.6408
 20
128.614
 11
80.8477
 21
128.174
  0
LINE
  8
0
 10
80.8477
 20
128.174
 11
80.9979
 21
127.712
  0
LINE
  8
0
 10
80.9979
 20
127.712
 11
81.089
 21
127.235
  0
LINE
  8
0
 10
81.089
 20
127.235
 11
81.1195
 21
126.75
  0
LINE
  8
0
 10
81.1195
 20
126.75
 11
81.1195
 21
107.25
  0
LINE
  8
0
 10
81.1195
 20
107.25
 11
81.089
 21
106.765
  0
LINE
  8
0
 10
81.089
 20
106.765
 11
80.9979
 21
106.288
  0
LINE
  8
0
 10
80.9979
 20
106.288
 11
80.8477
 21
105.826
  0
LINE
  8
0
 10
80.8477
 20
105.826
 11
80.6408
 21
105.386
  0
LINE
  8
0
 10
80.6408
 20
105.386
 11
80.3805
 21
104.976
  0
LINE
  8
0
 10
80.3805
 20
104.976
 11
80.0707
 21
104.601
  0
LINE
  8
0
 10
80.0707
 20
104.601
 11
79.7165
 21
104.269
  0
LINE
  8
0
 10
79.7165
 20
104.269
 11
79.3234
 21
103.983
  0
LINE
  8
0
 10
79.3234
 20
103.983
 11
78.8975
 21
103.749
  0
LINE
  8
0
 10
78.8975
 20
103.749
 11
78.4457
 21
103.57
  0
LINE
  8
0
 10
78.4457
 20
103.57
 11
77.9751
 21
103.449
  0
LINE
  8
0
 10
77.9751
 20
103.449
 11
77.493
 21
103.388
  0
LINE
  8
0
 10
77.493
 20
103.388
 11
-77.493
 21
103.388
  0
LINE
  8
0
 10
78.4369
 20
63.0886
 11
79.0451
 21
63.2447
  0
LINE
  8
0
 10
79.0451
 20
63.2447
 11
79.6289
 21
63.4759
  0
LINE
  8
0
 10
79.6289
 20
63.4759
 11
80.1791
 21
63.7784
  0
LINE
  8
0
 10
80.1791
 20
63.7784
 11
80.6871
 21
64.1474
  0
LINE
  8
0
 10
80.6871
 20
64.1474
 11
81.1448
 21
64.5773
  0
LINE
  8
0
 10
81.1448
 20
64.5773
 11
81.5451
 21
65.0611
  0
LINE
  8
0
 10
81.5451
 20
65.0611
 11
81.8815
 21
65.5912
  0
LINE
  8
0
 10
81.8815
 20
65.5912
 11
82.1489
 21
66.1594
  0
LINE
  8
0
 10
82.1489
 20
66.1594
 11
82.3429
 21
66.7566
  0
LINE
  8
0
 10
82.3429
 20
66.7566
 11
82.4606
 21
67.3733
  0
LINE
  8
0
 10
82.4606
 20
67.3733
 11
82.5
 21
68
  0
LINE
  8
0
 10
82.5
 20
68
 11
82.5
 21
88
  0
LINE
  8
0
 10
82.5
 20
88
 11
82.4606
 21
88.6267
  0
LINE
  8
0
 10
82.4606
 20
88.6267
 11
82.3429
 21
89.2434
  0
LINE
  8
0
 10
82.3429
 20
89.2434
 11
82.1489
 21
89.8406
  0
LINE
  8
0
 10
82.1489
 20
89.8406
 11
81.8815
 21
90.4088
  0
LINE
  8
0
 10
81.8815
 20
90.4088
 11
81.5451
 21
90.9389
  0
LINE
  8
0
 10
81.5451
 20
90.9389
 11
81.1448
 21
91.4227
  0
LINE
  8
0
 10
81.1448
 20
91.4227
 11
80.6871
 21
91.8526
  0
LINE
  8
0
 10
80.6871
 20
91.8526
 11
80.1791
 21
92.2216
  0
LINE
  8
0
 10
80.1791
 20
92.2216
 11
79.6289
 21
92.5241
  0
LINE
  8
0
 10
79.6289
 20
92.5241
 11
79.0451
 21
92.7553
  0
LINE
  8
0
 10
79.0451
 20
92.7553
 11
78.4369
 21
92.9114
  0
LINE
  8
0
 10
78.4369
 20
92.9114
 11
77.8139
 21
92.9901
  0
LINE
  8
0
 10
77.8139
 20
92.9901
 11
-77.8139
 21
92.9901
  0
LINE
  8
0
 10
-77.8139
 20
92.9901
 11
-78.4369
 21
92.9114
  0
LINE
  8
0
 10
-78.4369
 20
92.9114
 11
-79.0451
 21
92.7553
  0
LINE
  8
0
 10
-79.0451
 20
92.7553
 11
-79.6289
 21
92.5241
  0
LINE
  8
0
 10
-79.6289
 20
92.5241
 11
-80.1791
 21
92.2216
  0
LINE
  8
0
 10
-80.1791
 20
92.2216
 11
-80.6871
 21
91.8526
  0
LINE
  8
0
 10
-80.6871
 20
91.8526
 11
-81.1448
 21
91.4227
  0
LINE
  8
0
 10
-81.1448
 20
91.4227
 11
-81.5451
 21
90.9389
  0
LINE
  8
0
 10
-81.5451
 20
90.9389
 11
-81.8815
 21
90.4088
  0
LINE
  8
0
 10
-81.8815
 20
90.4088
 11
-82.1489
 21
89.8406
  0
LINE
  8
0
 10
-82.1489
 20
89.8406
 11
-82.3429
 21
89.2434
  0
LINE
  8
0
 10
-82.3429
 20
89.2434
 11
-82.4606
 21
88.6267
  0
LINE
  8
0
 10
-82.4606
 20
88.6267
 11
-82.5
 21
88
  0
LINE
  8
0
 10
-82.5
 20
88
 11
-82.5
 21
68
  0
LINE
  8
0
 10
-82.5
 20
68
 11
-82.4606
 21
67.3733
  0
LINE
  8
0
 10
-82.4606
 20
67.3733
 11
-82.3429
 21
66.7566
  0
LINE
  8
0
 10
-82.3429
 20
66.7566
 11
-82.1489
 21
66.1594
  0
LINE
  8
0
 10
-82.1489
 20
66.1594
 11
-81.8815
 21
65.5912
  0
LINE
  8
0
 10
-81.8815
 20
65.5912
 11
-81.5451
 21
65.0611
  0
LINE
  8
0
 10
-81.5451
 20
65.0611
 11
-81.1448
 21
64.5773
  0
LINE
  8
0
 10
-81.1448
 20
64.5773
 11
-80.6871
 21
64.1474
  0
LINE
  8
0
 10
-80.6871
 20
64.1474
 11
-80.1791
 21
63.7784
  0
LINE
  8
0
 10
-80.1791
 20
63.7784
 11
-79.6289
 21
63.4759
  0
LINE
  8
0
 10
-79.6289
 20
63.4759
 11
-79.0451
 21
63.2447
  0
LINE
  8
0
 10
-79.0451
 20
63.2447
 11
-78.4369
 21
63.0886
  0
LINE
  8
0
 10
-78.4369
 20
63.0886
 11
-77.8139
 21
63.0099
  0
LINE
  8
0
 10
-77.8139
 20
63.0099
 11
77.8139
 21
63.0099
  0
LINE
  8
0
 10
77.8139
 20
63.0099
 11
78.4369
 21
63.0886
  0
LINE
  8
0
 10
74.887
 20
83.7036
 11
74.6627
 21
83.7319
  0
LINE
  8
0
 10
74.6627
 20
83.7319
 11
74.4438
 21
83.7881
  0
LINE
  8
0
 10
74.4438
 20
83.7881
 11
74.2336
 21
83.8713
  0
LINE
  8
0
 10
74.2336
 20
83.8713
 11
74.0355
 21
83.9802
  0
LINE
  8
0
 10
74.0355
 20
83.9802
 11
73.8526
 21
84.1131
  0
LINE
  8
0
 10
73.8526
 20
84.1131
 11
73.6879
 21
84.2678
  0
LINE
  8
0
 10
73.6879
 20
84.2678
 11
73.5438
 21
84.442
  0
LINE
  8
0
 10
73.5438
 20
84.442
 11
73.4226
 21
84.6328
  0
LINE
  8
0
 10
73.4226
 20
84.6328
 11
73.3264
 21
84.8374
  0
LINE
  8
0
 10
73.3264
 20
84.8374
 11
73.2565
 21
85.0524
  0
LINE
  8
0
 10
73.2565
 20
85.0524
 11
73.2142
 21
85.2744
  0
LINE
  8
0
 10
73.2142
 20
85.2744
 11
73.2
 21
85.5
  0
LINE
  8
0
 10
73.2
 20
85.5
 11
73.2142
 21
85.7256
  0
LINE
  8
0
 10
73.2142
 20
85.7256
 11
73.2565
 21
85.9476
  0
LINE
  8
0
 10
73.2565
 20
85.9476
 11
73.3264
 21
86.1626
  0
LINE
  8
0
 10
73.3264
 20
86.1626
 11
73.4226
 21
86.3671
  0
LINE
  8
0
 10
73.4226
 20
86.3671
 11
73.5438
 21
86.558
  0
LINE
  8
0
 10
73.5438
 20
86.558
 11
73.6879
 21
86.7322
  0
LINE
  8
0
 10
73.6879
 20
86.7322
 11
73.8526
 21
86.8869
  0
LINE
  8
0
 10
73.8526
 20
86.8869
 11
74.0355
 21
87.0198
  0
LINE
  8
0
 10
74.0355
 20
87.0198
 11
74.2336
 21
87.1287
  0
LINE
  8
0
 10
74.2336
 20
87.1287
 11
74.4438
 21
87.2119
  0
LINE
  8
0
 10
74.4438
 20
87.2119
 11
74.6627
 21
87.2681
  0
LINE
  8
0
 10
74.6627
 20
87.2681
 11
74.887
 21
87.2964
  0
LINE
  8
0
 10
74.887
 20
87.2964
 11
75.113
 21
87.2964
  0
LINE
  8
0
 10
75.113
 20
87.2964
 11
75.3373
 21
87.2681
  0
LINE
  8
0
 10
75.3373
 20
87.2681
 11
75.5562
 21
87.2119
  0
LINE
  8
0
 10
75.5562
 20
87.2119
 11
75.7664
 21
87.1287
  0
LINE
  8
0
 10
75.7664
 20
87.1287
 11
75.9645
 21
87.0198
  0
LINE
  8
0
 10
75.9645
 20
87.0198
 11
76.1474
 21
86.8869
  0
LINE
  8
0
 10
76.1474
 20
86.8869
 11
76.3121
 21
86.7322
  0
LINE
  8
0
 10
76.3121
 20
86.7322
 11
76.4562
 21
86.558
  0
LINE
  8
0
 10
76.4562
 20
86.558
 11
76.5773
 21
86.3671
  0
LINE
  8
0
 10
76.5773
 20
86.3671
 11
76.6736
 21
86.1626
  0
LINE
  8
0
 10
76.6736
 20
86.1626
 11
76.7434
 21
85.9476
  0
LINE
  8
0
 10
76.7434
 20
85.9476
 11
76.7858
 21
85.7256
  0
LINE
  8
0
 10
76.7858
 20
85.7256
 11
76.8
 21
85.5
  0
LINE
  8
0
 10
76.8
 20
85.5
 11
76.7858
 21
85.2744
  0
LINE
  8
0
 10
76.7858
 20
85.2744
 11
76.7434
 21
85.0524
  0
LINE
  8
0
 10
76.7434
 20
85.0524
 11
76.6736
 21
84.8374
  0
LINE
  8
0
 10
76.6736
 20
84.8374
 11
76.5773
 21
84.6328
  0
LINE
  8
0
 10
76.5773
 20
84.6328
 11
76.4562
 21
84.442
  0
LINE
  8
0
 10
76.4562
 20
84.442
 11
76.3121
 21
84.2678
  0
LINE
  8
0
 10
76.3121
 20
84.2678
 11
76.1474
 21
84.1131
  0
LINE
  8
0
 10
76.1474
 20
84.1131
 11
75.9645
 21
83.9802
  0
LINE
  8
0
 10
75.9645
 20
83.9802
 11
75.7664
 21
83.8713
  0
LINE
  8
0
 10
75.7664
 20
83.8713
 11
75.5562
 21
83.7881
  0
LINE
  8
0
 10
75.5562
 20
83.7881
 11
75.3373
 21
83.7319
  0
LINE
  8
0
 10
75.3373
 20
83.7319
 11
75.113
 21
83.7036
  0
LINE
  8
0
 10
75.113
 20
83.7036
 11
74.887
 21
83.7036
  0
LINE
  8
0
 10
-75.113
 20
83.7036
 11
-75.3373
 21
83.7319
  0
LINE
  8
0
 10
-75.3373
 20
83.7319
 11
-75.5562
 21
83.7881
  0
LINE
  8
0
 10
-75.5562
 20
83.7881
 11
-75.7664
 21
83.8713
  0
LINE
  8
0
 10
-75.7664
 20
83.8713
 11
-75.9645
 21
83.9802
  0
LINE
  8
0
 10
-75.9645
 20
83.9802
 11
-76.1474
 21
84.1131
  0
LINE
  8
0
 10
-76.1474
 20
84.1131
 11
-76.3121
 21
84.2678
  0
LINE
  8
0
 10
-76.3121
 20
84.2678
 11
-76.4562
 21
84.442
  0
LINE
  8
0
 10
-76.4562
 20
84.442
 11
-76.5773
 21
84.6328
  0
LINE
  8
0
 10
-76.5773
 20
84.6328
 11
-76.6736
 21
84.8374
  0
LINE
  8
0
 10
-76.6736
 20
84.8374
 11
-76.7434
 21
85.0524
  0
LINE
  8
0
 10
-76.7434
 20
85.0524
 11
-76.7858
 21
85.2744
  0
LINE
  8
0
 10
-76.7858
 20
85.2744
 11
-76.8
 21
85.5
  0
LINE
  8
0
 10
-76.8
 20
85.5
 11
-76.7858
 21
85.7256
  0
LINE
  8
0
 10
-76.7858
 20
85.7256
 11
-76.7434
 21
85.9476
  0
LINE
  8
0
 10
-76.7434
 20
85.9476
 11
-76.6736
 21
86.1626
  0
LINE
  8
0
 10
-76.6736
 20
86.1626
 11
-76.5773
 21
86.3671
  0
LINE
  8
0
 10
-76.5773
 20
86.3671
 11
-76.4562
 21
86.558
  0
LINE
  8
0
 10
-76.4562
 20
86.558
 11
-76.3121
 21
86.7322
  0
LINE
  8
0
 10
-76.3121
 20
86.7322
 11
-76.1474
 21
86.8869
  0
LINE
  8
0
 10
-76.1474
 20
86.8869
 11
-75.9645
 21
87.0198
  0
LINE
  8
0
 10
-75.9645
 20
87.0198
 11
-75.7664
 21
87.1287
  0
LINE
  8
0
 10
-75.7664
 20
87.1287
 11
-75.5562
 21
87.2119
  0
LINE
  8
0
 10
-75.5562
 20
87.2119
 11
-75.3373
 21
87.2681
  0
LINE
  8
0
 10
-75.3373
 20
87.2681
 11
-75.113
 21
87.2964
  0
LINE
  8
0
 10
-75.113
 20
87.2964
 11
-74.887
 21
87.2964
  0
LINE
  8
0
 10
-74.887
 20
87.2964
 11
-74.6627
 21
87.2681
  0
LINE
  8
0
 10
-74.6627
 20
87.2681
 11
-74.4438
 21
87.2119
  0
LINE
  8
0
 10
-74.4438
 20
87.2119
 11
-74.2336
 21
87.1287
  0
LINE
  8
0
 10
-74.2336
 20
87.1287
 11
-74.0355
 21
87.0198
  0
LINE
  8
0
 10
-74.0355
 20
87.0198
 11
-73.8526
 21
86.8869
  0
LINE
  8
0
 10
-73.8526
 20
86.8869
 11
-73.6879
 21
86.7322
  0
LINE
  8
0
 10
-73.6879
 20
86.7322
 11
-73.5438
 21
86.558
  0
LINE
  8
0
 10
-73.5438
 20
86.558
 11
-73.4226
 21
86.3671
  0
LINE
  8
0
 10
-73.4226
 20
86.3671
 11
-73.3264
 21
86.1626
  0
LINE
  8
0
 10
-73.3264
 20
86.1626
 11
-73.2565
 21
85.9476
  0
LINE
  8
0
 10
-73.2565
 20
85.9476
 11
-73.2142
 21
85.7256
  0
LINE
  8
0
 10
-73.2142
 20
85.7256
 11
-73.2
 21
85.5
  0
LINE
  8
0
 10
-73.2
 20
85.5
 11
-73.2142
 21
85.2744
  0
LINE
  8
0
 10
-73.2142
 20
85.2744
 11
-73.2565
 21
85.0524
  0
LINE
  8
0
 10
-73.2565
 20
85.0524
 11
-73.3264
 21
84.8374
  0
LINE
  8
0
 10
-73.3264
 20
84.8374
 11
-73.4226
 21
84.6328
  0
LINE
  8
0
 10
-73.4226
 20
84.6328
 11
-73.5438
 21
84.442
  0
LINE
  8
0
 10
-73.5438
 20
84.442
 11
-73.6879
 21
84.2678
  0
LINE
  8
0
 10
-73.6879
 20
84.2678
 11
-73.8526
 21
84.1131
  0
LINE
  8
0
 10
-73.8526
 20
84.1131
 11
-74.0355
 21
83.9802
  0
LINE
  8
0
 10
-74.0355
 20
83.9802
 11
-74.2336
 21
83.8713
  0
LINE
  8
0
 10
-74.2336
 20
83.8713
 11
-74.4438
 21
83.7881
  0
LINE
  8
0
 10
-74.4438
 20
83.7881
 11
-74.6627
 21
83.7319
  0
LINE
  8
0
 10
-74.6627
 20
83.7319
 11
-74.887
 21
83.7036
  0
LINE
  8
0
 10
-74.887
 20
83.7036
 11
-75.113
 21
83.7036
  0
LINE
  8
0
 10
74.887
 20
68.7036
 11
74.6627
 21
68.7319
  0
LINE
  8
0
 10
74.6627
 20
68.7319
 11
74.4438
 21
68.7881
  0
LINE
  8
0
 10
74.4438
 20
68.7881
 11
74.2336
 21
68.8713
  0
LINE
  8
0
 10
74.2336
 20
68.8713
 11
74.0355
 21
68.9802
  0
LINE
  8
0
 10
74.0355
 20
68.9802
 11
73.8526
 21
69.1131
  0
LINE
  8
0
 10
73.8526
 20
69.1131
 11
73.6879
 21
69.2678
  0
LINE
  8
0
 10
73.6879
 20
69.2678
 11
73.5438
 21
69.442
  0
LINE
  8
0
 10
73.5438
 20
69.442
 11
73.4226
 21
69.6329
  0
LINE
  8
0
 10
73.4226
 20
69.6329
 11
73.3264
 21
69.8374
  0
LINE
  8
0
 10
73.3264
 20
69.8374
 11
73.2565
 21
70.0524
  0
LINE
  8
0
 10
73.2565
 20
70.0524
 11
73.2142
 21
70.2744
  0
LINE
  8
0
 10
73.2142
 20
70.2744
 11
73.2
 21
70.5
  0
LINE
  8
0
 10
73.2
 20
70.5
 11
73.2142
 21
70.7256
  0
LINE
  8
0
 10
73.2142
 20
70.7256
 11
73.2565
 21
70.9476
  0
LINE
  8
0
 10
73.2565
 20
70.9476
 11
73.3264
 21
71.1626
  0
LINE
  8
0
 10
73.3264
 20
71.1626
 11
73.4226
 21
71.3672
  0
LINE
  8
0
 10
73.4226
 20
71.3672
 11
73.5438
 21
71.558
  0
LINE
  8
0
 10
73.5438
 20
71.558
 11
73.6879
 21
71.7322
  0
LINE
  8
0
 10
73.6879
 20
71.7322
 11
73.8526
 21
71.8869
  0
LINE
  8
0
 10
73.8526
 20
71.8869
 11
74.0355
 21
72.0198
  0
LINE
  8
0
 10
74.0355
 20
72.0198
 11
74.2336
 21
72.1287
  0
LINE
  8
0
 10
74.2336
 20
72.1287
 11
74.4438
 21
72.2119
  0
LINE
  8
0
 10
74.4438
 20
72.2119
 11
74.6627
 21
72.2681
  0
LINE
  8
0
 10
74.6627
 20
72.2681
 11
74.887
 21
72.2964
  0
LINE
  8
0
 10
74.887
 20
72.2964
 11
75.113
 21
72.2964
  0
LINE
  8
0
 10
75.113
 20
72.2964
 11
75.3373
 21
72.2681
  0
LINE
  8
0
 10
75.3373
 20
72.2681
 11
75.5562
 21
72.2119
  0
LINE
  8
0
 10
75.5562
 20
72.2119
 11
75.7664
 21
72.1287
  0
LINE
  8
0
 10
75.7664
 20
72.1287
 11
75.9645
 21
72.0198
  0
LINE
  8
0
 10
75.9645
 20
72.0198
 11
76.1474
 21
71.8869
  0
LINE
  8
0
 10
76.1474
 20
71.8869
 11
76.3121
 21
71.7322
  0
LINE
  8
0
 10
76.3121
 20
71.7322
 11
76.4562
 21
71.558
  0
LINE
  8
0
 10
76.4562
 20
71.558
 11
76.5773
 21
71.3672
  0
LINE
  8
0
 10
76.5773
 20
71.3672
 11
76.6736
 21
71.1626
  0
LINE
  8
0
 10
76.6736
 20
71.1626
 11
76.7434
 21
70.9476
  0
LINE
  8
0
 10
76.7434
 20
70.9476
 11
76.7858
 21
70.7256
  0
LINE
  8
0
 10
76.7858
 20
70.7256
 11
76.8
 21
70.5
  0
LINE
  8
0
 10
76.8
 20
70.5
 11
76.7858
 21
70.2744
  0
LINE
  8
0
 10
76.7858
 20
70.2744
 11
76.7434
 21
70.0524
  0
LINE
  8
0
 10
76.7434
 20
70.0524
 11
76.6736
 21
69.8374
  0
LINE
  8
0
 10
76.6736
 20
69.8374
 11
76.5773
 21
69.6329
  0
LINE
  8
0
 10
76.5773
 20
69.6329
 11
76.4562
 21
69.442
  0
LINE
  8
0
 10
76.4562
 20
69.442
 11
76.3121
 21
69.2678
  0
LINE
  8
0
 10
76.3121
 20
69.2678
 11
76.1474
 21
69.1131
  0
LINE
  8
0
 10
76.1474
 20
69.1131
 11
75.9645
 21
68.9802
  0
LINE
  8
0
 10
75.9645
 20
68.9802
 11
75.7664
 21
68.8713
  0
LINE
  8
0
 10
75.7664
 20
68.8713
 11
75.5562
 21
68.7881
  0
LINE
  8
0
 10
75.5562
 20
68.7881
 11
75.3373
 21
68.7319
  0
LINE
  8
0
 10
75.3373
 20
68.7319
 11
75.113
 21
68.7036
  0
LINE
  8
0
 10
75.113
 20
68.7036
 11
74.887
 21
68.7036
  0
LINE
  8
0
 10
-75.113
 20
68.7036
 11
-75.3373
 21
68.7319
  0
LINE
  8
0
 10
-75.3373
 20
68.7319
 11
-75.5562
 21
68.7881
  0
LINE
  8
0
 10
-75.5562
 20
68.7881
 11
-75.7664
 21
68.8713
  0
LINE
  8
0
 10
-75.7664
 20
68.8713
 11
-75.9645
 21
68.9802
  0
LINE
  8
0
 10
-75.9645
 20
68.9802
 11
-76.1474
 21
69.1131
  0
LINE
  8
0
 10
-76.1474
 20
69.1131
 11
-76.3121
 21
69.2678
  0
LINE
  8
0
 10
-76.3121
 20
69.2678
 11
-76.4562
 21
69.442
  0
LINE
  8
0
 10
-76.4562
 20
69.442
 11
-76.5773
 21
69.6329
  0
LINE
  8
0
 10
-76.5773
 20
69.6329
 11
-76.6736
 21
69.8374
  0
LINE
  8
0
 10
-76.6736
 20
69.8374
 11
-76.7434
 21
70.0524
  0
LINE
  8
0
 10
-76.7434
 20
70.0524
 11
-76.7858
 21
70.2744
  0
LINE
  8
0
 10
-76.7858
 20
70.2744
 11
-76.8
 21
70.5
  0
LINE
  8
0
 10
-76.8
 20
70.5
 11
-76.7858
 21
70.7256
  0
LINE
  8
0
 10
-76.7858
 20
70.7256
 11
-76.7434
 21
70.9476
  0
LINE
  8
0
 10
-76.7434
 20
70.9476
 11
-76.6736
 21
71.1626
  0
LINE
  8
0
 10
-76.6736
 20
71.1626
 11
-76.5773
 21
71.3672
  0
LINE
  8
0
 10
-76.5773
 20
71.3672
 11
-76.4562
 21
71.558
  0
LINE
  8
0
 10
-76.4562
 20
71.558
 11
-76.3121
 21
71.7322
  0
LINE
  8
0
 10
-76.3121
 20
71.7322
 11
-76.1474
 21
71.8869
  0
LINE
  8
0
 10
-76.1474
 20
71.8869
 11
-75.9645
 21
72.0198
  0
LINE
  8
0
 10
-75.9645
 20
72.0198
 11
-75.7664
 21
72.1287
  0
LINE
  8
0
 10
-75.7664
 20
72.1287
 11
-75.5562
 21
72.2119
  0
LINE
  8
0
 10
-75.5562
 20
72.2119
 11
-75.3373
 21
72.2681
  0
LINE
  8
0
 10
-75.3373
 20
72.2681
 11
-75.113
 21
72.2964
  0
LINE
  8
0
 10
-75.113
 20
72.2964
 11
-74.887
 21
72.2964
  0
LINE
  8
0
 10
-74.887
 20
72.2964
 11
-74.6627
 21
72.2681
  0
LINE
  8
0
 10
-74.6627
 20
72.2681
 11
-74.4438
 21
72.2119
  0
LINE
  8
0
 10
-74.4438
 20
72.2119
 11
-74.2336
 21
72.1287
  0
LINE
  8
0
 10
-74.2336
 20
72.1287
 11
-74.0355
 21
72.0198
  0
LINE
  8
0
 10
-74.0355
 20
72.0198
 11
-73.8526
 21
71.8869
  0
LINE
  8
0
 10
-73.8526
 20
71.8869
 11
-73.6879
 21
71.7322
  0
LINE
  8
0
 10
-73.6879
 20
71.7322
 11
-73.5438
 21
71.558
  0
LINE
  8
0
 10
-73.5438
 20
71.558
 11
-73.4226
 21
71.3672
  0
LINE
  8
0
 10
-73.4226
 20
71.3672
 11
-73.3264
 21
71.1626
  0
LINE
  8
0
 10
-73.3264
 20
71.1626
 11
-73.2565
 21
70.9476
  0
LINE
  8
0
 10
-73.2565
 20
70.9476
 11
-73.2142
 21
70.7256
  0
LINE
  8
0
 10
-73.2142
 20
70.7256
 11
-73.2
 21
70.5
  0
LINE
  8
0
 10
-73.2
 20
70.5
 11
-73.2142
 21
70.2744
  0
LINE
  8
0
 10
-73.2142
 20
70.2744
 11
-73.2565
 21
70.0524
  0
LINE
  8
0
 10
-73.2565
 20
70.0524
 11
-73.3264
 21
69.8374
  0
LINE
  8
0
 10
-73.3264
 20
69.8374
 11
-73.4226
 21
69.6329
  0
LINE
  8
0
 10
-73.4226
 20
69.6329
 11
-73.5438
 21
69.442
  0
LINE
  8
0
 10
-73.5438
 20
69.442
 11
-73.6879
 21
69.2678
  0
LINE
  8
0
 10
-73.6879
 20
69.2678
 11
-73.8526
 21
69.1131
  0
LINE
  8
0
 10
-73.8526
 20
69.1131
 11
-74.0355
 21
68.9802
  0
LINE
  8
0
 10
-74.0355
 20
68.9802
 11
-74.2336
 21
68.8713
  0
LINE
  8
0
 10
-74.2336
 20
68.8713
 11
-74.4438
 21
68.7881
  0
LINE
  8
0
 10
-74.4438
 20
68.7881
 11
-74.6627
 21
68.7319
  0
LINE
  8
0
 10
-74.6627
 20
68.7319
 11
-74.887
 21
68.7036
  0
LINE
  8
0
 10
-74.887
 20
68.7036
 11
-75.113
 21
68.7036
  0
ENDSEC
  0
SECTION
  2
OBJECTS
  0
DICTIONARY
  0
ENDSEC
  0
EOF
