<?xml version="1.0" standalone="no"?>
<!DOCTYPE svg PUBLIC "-//W3C//DTD SVG 1.1//EN" "http://www.w3.org/Graphics/SVG/1.1/DTD/svg11.dtd">
<svg width="30mm" height="108mm" viewBox="-15 -171 30 108" xmlns="http://www.w3.org/2000/svg" version="1.1">
<title>OpenSCAD Model</title>
<path d="
M 10.9369,-141.089 L 11.5451,-141.245 L 12.1289,-141.476 L 12.6791,-141.778 L 13.1871,-142.147 L 13.6448,-142.577
 L 14.0451,-143.061 L 14.3815,-143.591 L 14.6489,-144.159 L 14.8429,-144.757 L 14.9606,-145.373 L 15,-146
 L 15,-166 L 14.9606,-166.627 L 14.8429,-167.243 L 14.6489,-167.841 L 14.3815,-168.409 L 14.0451,-168.939
 L 13.6448,-169.423 L 13.1871,-169.853 L 12.6791,-170.222 L 12.1289,-170.524 L 11.5451,-170.755 L 10.9369,-170.911
 L 10.3139,-170.99 L -10.3139,-170.99 L -10.9369,-170.911 L -11.5451,-170.755 L -12.1289,-170.524 L -12.6791,-170.222
 L -13.1871,-169.853 L -13.6448,-169.423 L -14.0451,-168.939 L -14.3815,-168.409 L -14.6489,-167.841 L -14.8429,-167.243
 L -14.9606,-166.627 L -15,-166 L -15,-146 L -14.9606,-145.373 L -14.8429,-144.757 L -14.6489,-144.159
 L -14.3815,-143.591 L -14.0451,-143.061 L -13.6448,-142.577 L -13.1871,-142.147 L -12.6791,-141.778 L -12.1289,-141.476
 L -11.5451,-141.245 L -10.9369,-141.089 L -10.3139,-141.01 L 10.3139,-141.01 z
M -9.74316,-142.635 L -10.2256,-142.696 L -10.6967,-142.817 L -11.1489,-142.996 L -11.5751,-143.23 L -11.9685,-143.516
 L -12.323,-143.849 L -12.633,-144.224 L -12.8936,-144.634 L -13.1007,-145.074 L -13.251,-145.537 L -13.3421,-146.015
 L -13.3726,-146.5 L -13.3726,-165.5 L -13.3421,-165.985 L -13.251,-166.463 L -13.1007,-166.926 L -12.8936,-167.366
 L -12.633,-167.776 L -12.323,-168.151 L -11.9685,-168.484 L -11.5751,-168.77 L -11.1489,-169.004 L -10.6967,-169.183
 L -10.2256,-169.304 L -9.74316,-169.365 L 9.74316,-169.365 L 10.2256,-169.304 L 10.6967,-169.183 L 11.1489,-169.004
 L 11.5751,-168.77 L 11.9685,-168.484 L 12.323,-168.151 L 12.633,-167.776 L 12.8936,-167.366 L 13.1007,-166.926
 L 13.251,-166.463 L 13.3421,-165.985 L 13.3726,-165.5 L 13.3726,-146.5 L 13.3421,-146.015 L 13.251,-145.537
 L 13.1007,-145.074 L 12.8936,-144.634 L 12.633,-144.224 L 12.323,-143.849 L 11.9685,-143.516 L 11.5751,-143.23
 L 11.1489,-142.996 L 10.6967,-142.817 L 10.2256,-142.696 L 9.74316,-142.635 z
M 10.9369,-102.089 L 11.5451,-102.245 L 12.1289,-102.476 L 12.6791,-102.778 L 13.1871,-103.147 L 13.6448,-103.577
 L 14.0451,-104.061 L 14.3815,-104.591 L 14.6489,-105.159 L 14.8429,-105.757 L 14.9606,-106.373 L 15,-107
 L 15,-127 L 14.9606,-127.627 L 14.8429,-128.243 L 14.6489,-128.841 L 14.3815,-129.409 L 14.0451,-129.939
 L 13.6448,-130.423 L 13.1871,-130.853 L 12.6791,-131.222 L 12.1289,-131.524 L 11.5451,-131.755 L 10.9369,-131.911
 L 10.3139,-131.99 L -10.3139,-131.99 L -10.9369,-131.911 L -11.5451,-131.755 L -12.1289,-131.524 L -12.6791,-131.222
 L -13.1871,-130.853 L -13.6448,-130.423 L -14.0451,-129.939 L -14.3815,-129.409 L -14.6489,-128.841 L -14.8429,-128.243
 L -14.9606,-127.627 L -15,-127 L -15,-107 L -14.9606,-106.373 L -14.8429,-105.757 L -14.6489,-105.159
 L -14.3815,-104.591 L -14.0451,-104.061 L -13.6448,-103.577 L -13.1871,-103.147 L -12.6791,-102.778 L -12.1289,-102.476
 L -11.5451,-102.245 L -10.9369,-102.089 L -10.3139,-102.01 L 10.3139,-102.01 z
M 10.9369,-63.0886 L 11.5451,-63.2447 L 12.1289,-63.4759 L 12.6791,-63.7784 L 13.1871,-64.1474 L 13.6448,-64.5773
 L 14.0451,-65.0611 L 14.3815,-65.5912 L 14.6489,-66.1594 L 14.8429,-66.7566 L 14.9606,-67.3733 L 15,-68
 L 15,-88 L 14.9606,-88.6267 L 14.8429,-89.2434 L 14.6489,-89.8406 L 14.3815,-90.4088 L 14.0451,-90.9389
 L 13.6448,-91.4227 L 13.1871,-91.8526 L 12.6791,-92.2216 L 12.1289,-92.5241 L 11.5451,-92.7553 L 10.9369,-92.9114
 L 10.3139,-92.9901 L -10.3139,-92.9901 L -10.9369,-92.9114 L -11.5451,-92.7553 L -12.1289,-92.5241 L -12.6791,-92.2216
 L -13.1871,-91.8526 L -13.6448,-91.4227 L -14.0451,-90.9389 L -14.3815,-90.4088 L -14.6489,-89.8406 L -14.8429,-89.2434
 L -14.9606,-88.6267 L -15,-88 L -15,-68 L -14.9606,-67.3733 L -14.8429,-66.7566 L -14.6489,-66.1594
 L -14.3815,-65.5912 L -14.0451,-65.0611 L -13.6448,-64.5773 L -13.1871,-64.1474 L -12.6791,-63.7784 L -12.1289,-63.4759
 L -11.5451,-63.2447 L -10.9369,-63.0886 L -10.3139,-63.0099 L 10.3139,-63.0099 z
M 7.38696,-83.7036 L 7.1627,-83.7319 L 6.94376,-83.7881 L 6.7336,-83.8713 L 6.53551,-83.9802 L 6.35263,-84.1131
 L 6.18785,-84.2678 L 6.04376,-84.442 L 5.92264,-84.6328 L 5.8264,-84.8374 L 5.75655,-85.0524 L 5.71419,-85.2744
 L 5.7,-85.5 L 5.71419,-85.7256 L 5.75655,-85.9476 L 5.8264,-86.1626 L 5.92264,-86.3671 L 6.04376,-86.558
 L 6.18785,-86.7322 L 6.35263,-86.8869 L 6.53551,-87.0198 L 6.7336,-87.1287 L 6.94376,-87.2119 L 7.1627,-87.2681
 L 7.38696,-87.2964 L 7.61302,-87.2964 L 7.83728,-87.2681 L 8.05623,-87.2119 L 8.26639,-87.1287 L 8.46448,-87.0198
 L 8.64735,-86.8869 L 8.81213,-86.7322 L 8.95622,-86.558 L 9.07735,-86.3671 L 9.17358,-86.1626 L 9.24344,-85.9476
 L 9.2858,-85.7256 L 9.29999,-85.5 L 9.2858,-85.2744 L 9.24344,-85.0524 L 9.17358,-84.8374 L 9.07735,-84.6328
 L 8.95622,-84.442 L 8.81213,-84.2678 L 8.64735,-84.1131 L 8.46448,-83.9802 L 8.26639,-83.8713 L 8.05623,-83.7881
 L 7.83728,-83.7319 L 7.61302,-83.7036 z
M -7.61302,-83.7036 L -7.83728,-83.7319 L -8.05623,-83.7881 L -8.26639,-83.8713 L -8.46448,-83.9802 L -8.64735,-84.1131
 L -8.81213,-84.2678 L -8.95622,-84.442 L -9.07735,-84.6328 L -9.17358,-84.8374 L -9.24344,-85.0524 L -9.2858,-85.2744
 L -9.29999,-85.5 L -9.2858,-85.7256 L -9.24344,-85.9476 L -9.17358,-86.1626 L -9.07735,-86.3671 L -8.95622,-86.558
 L -8.81213,-86.7322 L -8.64735,-86.8869 L -8.46448,-87.0198 L -8.26639,-87.1287 L -8.05623,-87.2119 L -7.83728,-87.2681
 L -7.61302,-87.2964 L -7.38696,-87.2964 L -7.1627,-87.2681 L -6.94376,-87.2119 L -6.7336,-87.1287 L -6.53551,-87.0198
 L -6.35263,-86.8869 L -6.18785,-86.7322 L -6.04376,-86.558 L -5.92264,-86.3671 L -5.8264,-86.1626 L -5.75655,-85.9476
 L -5.71419,-85.7256 L -5.7,-85.5 L -5.71419,-85.2744 L -5.75655,-85.0524 L -5.8264,-84.8374 L -5.92264,-84.6328
 L -6.04376,-84.442 L -6.18785,-84.2678 L -6.35263,-84.1131 L -6.53551,-83.9802 L -6.7336,-83.8713 L -6.94376,-83.7881
 L -7.1627,-83.7319 L -7.38696,-83.7036 z
M 7.38696,-68.7036 L 7.1627,-68.7319 L 6.94376,-68.7881 L 6.7336,-68.8713 L 6.53551,-68.9802 L 6.35263,-69.1131
 L 6.18785,-69.2678 L 6.04376,-69.442 L 5.92264,-69.6329 L 5.8264,-69.8374 L 5.75655,-70.0524 L 5.71419,-70.2744
 L 5.7,-70.5 L 5.71419,-70.7256 L 5.75655,-70.9476 L 5.8264,-71.1626 L 5.92264,-71.3672 L 6.04376,-71.558
 L 6.18785,-71.7322 L 6.35263,-71.8869 L 6.53551,-72.0198 L 6.7336,-72.1287 L 6.94376,-72.2119 L 7.1627,-72.2681
 L 7.38696,-72.2964 L 7.61302,-72.2964 L 7.83728,-72.2681 L 8.05623,-72.2119 L 8.26639,-72.1287 L 8.46448,-72.0198
 L 8.64735,-71.8869 L 8.81213,-71.7322 L 8.95622,-71.558 L 9.07735,-71.3672 L 9.17358,-71.1626 L 9.24344,-70.9476
 L 9.2858,-70.7256 L 9.29999,-70.5 L 9.2858,-70.2744 L 9.24344,-70.0524 L 9.17358,-69.8374 L 9.07735,-69.6329
 L 8.95622,-69.442 L 8.81213,-69.2678 L 8.64735,-69.1131 L 8.46448,-68.9802 L 8.26639,-68.8713 L 8.05623,-68.7881
 L 7.83728,-68.7319 L 7.61302,-68.7036 z
M -7.61302,-68.7036 L -7.83728,-68.7319 L -8.05623,-68.7881 L -8.26639,-68.8713 L -8.46448,-68.9802 L -8.64735,-69.1131
 L -8.81213,-69.2678 L -8.95622,-69.442 L -9.07735,-69.6329 L -9.17358,-69.8374 L -9.24344,-70.0524 L -9.2858,-70.2744
 L -9.29999,-70.5 L -9.2858,-70.7256 L -9.24344,-70.9476 L -9.17358,-71.1626 L -9.07735,-71.3672 L -8.95622,-71.558
 L -8.81213,-71.7322 L -8.64735,-71.8869 L -8.46448,-72.0198 L -8.26639,-72.1287 L -8.05623,-72.2119 L -7.83728,-72.2681
 L -7.61302,-72.2964 L -7.38696,-72.2964 L -7.1627,-72.2681 L -6.94376,-72.2119 L -6.7336,-72.1287 L -6.53551,-72.0198
 L -6.35263,-71.8869 L -6.18785,-71.7322 L -6.04376,-71.558 L -5.92264,-71.3672 L -5.8264,-71.1626 L -5.75655,-70.9476
 L -5.71419,-70.7256 L -5.7,-70.5 L -5.71419,-70.2744 L -5.75655,-70.0524 L -5.8264,-69.8374 L -5.92264,-69.6329
 L -6.04376,-69.442 L -6.18785,-69.2678 L -6.35263,-69.1131 L -6.53551,-68.9802 L -6.7336,-68.8713 L -6.94376,-68.7881
 L -7.1627,-68.7319 L -7.38696,-68.7036 z
" stroke="black" fill="lightgray" stroke-width="0.5"/>
</svg>
