<?xml version="1.0" standalone="no"?>
<!DOCTYPE svg PUBLIC "-//W3C//DTD SVG 1.1//EN" "http://www.w3.org/Graphics/SVG/1.1/DTD/svg11.dtd">
<svg width="46mm" height="244mm" viewBox="-23 -374 46 244" xmlns="http://www.w3.org/2000/svg" version="1.1">
<title>OpenSCAD Model</title>
<path d="
M 18.4369,-298.589 L 19.0451,-298.745 L 19.6289,-298.976 L 20.1791,-299.278 L 20.6871,-299.647 L 21.1448,-300.077
 L 21.5451,-300.561 L 21.8815,-301.091 L 22.1489,-301.659 L 22.3429,-302.257 L 22.4606,-302.873 L 22.5,-303.5
 L 22.5,-368.5 L 22.4606,-369.127 L 22.3429,-369.743 L 22.1489,-370.341 L 21.8815,-370.909 L 21.5451,-371.439
 L 21.1448,-371.923 L 20.6871,-372.353 L 20.1791,-372.722 L 19.6289,-373.024 L 19.0451,-373.255 L 18.4369,-373.411
 L 17.8139,-373.49 L -17.8139,-373.49 L -18.4369,-373.411 L -19.0451,-373.255 L -19.6289,-373.024 L -20.1791,-372.722
 L -20.6871,-372.353 L -21.1448,-371.923 L -21.5451,-371.439 L -21.8815,-370.909 L -22.1489,-370.341 L -22.3429,-369.743
 L -22.4606,-369.127 L -22.5,-368.5 L -22.5,-303.5 L -22.4606,-302.873 L -22.3429,-302.257 L -22.1489,-301.659
 L -21.8815,-301.091 L -21.5451,-300.561 L -21.1448,-300.077 L -20.6871,-299.647 L -20.1791,-299.278 L -19.6289,-298.976
 L -19.0451,-298.745 L -18.4369,-298.589 L -17.8139,-298.51 L 17.8139,-298.51 z
M -17.2432,-300.135 L -17.7256,-300.196 L -18.1967,-300.317 L -18.6489,-300.496 L -19.0751,-300.73 L -19.4685,-301.016
 L -19.823,-301.349 L -20.133,-301.724 L -20.3936,-302.134 L -20.6007,-302.574 L -20.751,-303.037 L -20.8421,-303.515
 L -20.8726,-304 L -20.8726,-368 L -20.8421,-368.485 L -20.751,-368.963 L -20.6007,-369.426 L -20.3936,-369.866
 L -20.133,-370.276 L -19.823,-370.651 L -19.4685,-370.984 L -19.0751,-371.27 L -18.6489,-371.504 L -18.1967,-371.683
 L -17.7256,-371.804 L -17.2432,-371.865 L 17.2432,-371.865 L 17.7256,-371.804 L 18.1967,-371.683 L 18.6489,-371.504
 L 19.0751,-371.27 L 19.4685,-370.984 L 19.823,-370.651 L 20.133,-370.276 L 20.3936,-369.866 L 20.6007,-369.426
 L 20.751,-368.963 L 20.8421,-368.485 L 20.8726,-368 L 20.8726,-304 L 20.8421,-303.515 L 20.751,-303.037
 L 20.6007,-302.574 L 20.3936,-302.134 L 20.133,-301.724 L 19.823,-301.349 L 19.4685,-301.016 L 19.0751,-300.73
 L 18.6489,-300.496 L 18.1967,-300.317 L 17.7256,-300.196 L 17.2432,-300.135 z
M 18.4369,-214.589 L 19.0451,-214.745 L 19.6289,-214.976 L 20.1791,-215.278 L 20.6871,-215.647 L 21.1448,-216.077
 L 21.5451,-216.561 L 21.8815,-217.091 L 22.1489,-217.659 L 22.3429,-218.257 L 22.4606,-218.873 L 22.5,-219.5
 L 22.5,-284.5 L 22.4606,-285.127 L 22.3429,-285.743 L 22.1489,-286.341 L 21.8815,-286.909 L 21.5451,-287.439
 L 21.1448,-287.923 L 20.6871,-288.353 L 20.1791,-288.722 L 19.6289,-289.024 L 19.0451,-289.255 L 18.4369,-289.411
 L 17.8139,-289.49 L -17.8139,-289.49 L -18.4369,-289.411 L -19.0451,-289.255 L -19.6289,-289.024 L -20.1791,-288.722
 L -20.6871,-288.353 L -21.1448,-287.923 L -21.5451,-287.439 L -21.8815,-286.909 L -22.1489,-286.341 L -22.3429,-285.743
 L -22.4606,-285.127 L -22.5,-284.5 L -22.5,-219.5 L -22.4606,-218.873 L -22.3429,-218.257 L -22.1489,-217.659
 L -21.8815,-217.091 L -21.5451,-216.561 L -21.1448,-216.077 L -20.6871,-215.647 L -20.1791,-215.278 L -19.6289,-214.976
 L -19.0451,-214.745 L -18.4369,-214.589 L -17.8139,-214.51 L 17.8139,-214.51 z
M 18.4369,-130.589 L 19.0451,-130.745 L 19.6289,-130.976 L 20.1791,-131.278 L 20.6871,-131.647 L 21.1448,-132.077
 L 21.5451,-132.561 L 21.8815,-133.091 L 22.1489,-133.659 L 22.3429,-134.257 L 22.4606,-134.873 L 22.5,-135.5
 L 22.5,-200.5 L 22.4606,-201.127 L 22.3429,-201.743 L 22.1489,-202.341 L 21.8815,-202.909 L 21.5451,-203.439
 L 21.1448,-203.923 L 20.6871,-204.353 L 20.1791,-204.722 L 19.6289,-205.024 L 19.0451,-205.255 L 18.4369,-205.411
 L 17.8139,-205.49 L -17.8139,-205.49 L -18.4369,-205.411 L -19.0451,-205.255 L -19.6289,-205.024 L -20.1791,-204.722
 L -20.6871,-204.353 L -21.1448,-203.923 L -21.5451,-203.439 L -21.8815,-202.909 L -22.1489,-202.341 L -22.3429,-201.743
 L -22.4606,-201.127 L -22.5,-200.5 L -22.5,-135.5 L -22.4606,-134.873 L -22.3429,-134.257 L -22.1489,-133.659
 L -21.8815,-133.091 L -21.5451,-132.561 L -21.1448,-132.077 L -20.6871,-131.647 L -20.1791,-131.278 L -19.6289,-130.976
 L -19.0451,-130.745 L -18.4369,-130.589 L -17.8139,-130.51 L 17.8139,-130.51 z
M 14.887,-196.204 L 14.6627,-196.232 L 14.4438,-196.288 L 14.2336,-196.371 L 14.0355,-196.48 L 13.8526,-196.613
 L 13.6879,-196.768 L 13.5438,-196.942 L 13.4226,-197.133 L 13.3264,-197.337 L 13.2565,-197.552 L 13.2142,-197.774
 L 13.2,-198 L 13.2142,-198.226 L 13.2565,-198.448 L 13.3264,-198.663 L 13.4226,-198.867 L 13.5438,-199.058
 L 13.6879,-199.232 L 13.8526,-199.387 L 14.0355,-199.52 L 14.2336,-199.629 L 14.4438,-199.712 L 14.6627,-199.768
 L 14.887,-199.796 L 15.113,-199.796 L 15.3373,-199.768 L 15.5562,-199.712 L 15.7664,-199.629 L 15.9645,-199.52
 L 16.1474,-199.387 L 16.3121,-199.232 L 16.4562,-199.058 L 16.5773,-198.867 L 16.6736,-198.663 L 16.7434,-198.448
 L 16.7858,-198.226 L 16.8,-198 L 16.7858,-197.774 L 16.7434,-197.552 L 16.6736,-197.337 L 16.5773,-197.133
 L 16.4562,-196.942 L 16.3121,-196.768 L 16.1474,-196.613 L 15.9645,-196.48 L 15.7664,-196.371 L 15.5562,-196.288
 L 15.3373,-196.232 L 15.113,-196.204 z
M -15.113,-196.204 L -15.3373,-196.232 L -15.5562,-196.288 L -15.7664,-196.371 L -15.9645,-196.48 L -16.1474,-196.613
 L -16.3121,-196.768 L -16.4562,-196.942 L -16.5773,-197.133 L -16.6736,-197.337 L -16.7434,-197.552 L -16.7858,-197.774
 L -16.8,-198 L -16.7858,-198.226 L -16.7434,-198.448 L -16.6736,-198.663 L -16.5773,-198.867 L -16.4562,-199.058
 L -16.3121,-199.232 L -16.1474,-199.387 L -15.9645,-199.52 L -15.7664,-199.629 L -15.5562,-199.712 L -15.3373,-199.768
 L -15.113,-199.796 L -14.887,-199.796 L -14.6627,-199.768 L -14.4438,-199.712 L -14.2336,-199.629 L -14.0355,-199.52
 L -13.8526,-199.387 L -13.6879,-199.232 L -13.5438,-199.058 L -13.4226,-198.867 L -13.3264,-198.663 L -13.2565,-198.448
 L -13.2142,-198.226 L -13.2,-198 L -13.2142,-197.774 L -13.2565,-197.552 L -13.3264,-197.337 L -13.4226,-197.133
 L -13.5438,-196.942 L -13.6879,-196.768 L -13.8526,-196.613 L -14.0355,-196.48 L -14.2336,-196.371 L -14.4438,-196.288
 L -14.6627,-196.232 L -14.887,-196.204 z
M 14.887,-136.204 L 14.6627,-136.232 L 14.4438,-136.288 L 14.2336,-136.371 L 14.0355,-136.48 L 13.8526,-136.613
 L 13.6879,-136.768 L 13.5438,-136.942 L 13.4226,-137.133 L 13.3264,-137.337 L 13.2565,-137.552 L 13.2142,-137.774
 L 13.2,-138 L 13.2142,-138.226 L 13.2565,-138.448 L 13.3264,-138.663 L 13.4226,-138.867 L 13.5438,-139.058
 L 13.6879,-139.232 L 13.8526,-139.387 L 14.0355,-139.52 L 14.2336,-139.629 L 14.4438,-139.712 L 14.6627,-139.768
 L 14.887,-139.796 L 15.113,-139.796 L 15.3373,-139.768 L 15.5562,-139.712 L 15.7664,-139.629 L 15.9645,-139.52
 L 16.1474,-139.387 L 16.3121,-139.232 L 16.4562,-139.058 L 16.5773,-138.867 L 16.6736,-138.663 L 16.7434,-138.448
 L 16.7858,-138.226 L 16.8,-138 L 16.7858,-137.774 L 16.7434,-137.552 L 16.6736,-137.337 L 16.5773,-137.133
 L 16.4562,-136.942 L 16.3121,-136.768 L 16.1474,-136.613 L 15.9645,-136.48 L 15.7664,-136.371 L 15.5562,-136.288
 L 15.3373,-136.232 L 15.113,-136.204 z
M -15.113,-136.204 L -15.3373,-136.232 L -15.5562,-136.288 L -15.7664,-136.371 L -15.9645,-136.48 L -16.1474,-136.613
 L -16.3121,-136.768 L -16.4562,-136.942 L -16.5773,-137.133 L -16.6736,-137.337 L -16.7434,-137.552 L -16.7858,-137.774
 L -16.8,-138 L -16.7858,-138.226 L -16.7434,-138.448 L -16.6736,-138.663 L -16.5773,-138.867 L -16.4562,-139.058
 L -16.3121,-139.232 L -16.1474,-139.387 L -15.9645,-139.52 L -15.7664,-139.629 L -15.5562,-139.712 L -15.3373,-139.768
 L -15.113,-139.796 L -14.887,-139.796 L -14.6627,-139.768 L -14.4438,-139.712 L -14.2336,-139.629 L -14.0355,-139.52
 L -13.8526,-139.387 L -13.6879,-139.232 L -13.5438,-139.058 L -13.4226,-138.867 L -13.3264,-138.663 L -13.2565,-138.448
 L -13.2142,-138.226 L -13.2,-138 L -13.2142,-137.774 L -13.2565,-137.552 L -13.3264,-137.337 L -13.4226,-137.133
 L -13.5438,-136.942 L -13.6879,-136.768 L -13.8526,-136.613 L -14.0355,-136.48 L -14.2336,-136.371 L -14.4438,-136.288
 L -14.6627,-136.232 L -14.887,-136.204 z
" stroke="black" fill="lightgray" stroke-width="0.5"/>
</svg>
