  0
SECTION
  2
BLOCKS
  0
ENDSEC
  0
SECTION
  2
ENTITIES
  0
LINE
  8
0
 10
10.9369
 20
193.589
 11
11.5451
 21
193.745
  0
LINE
  8
0
 10
11.5451
 20
193.745
 11
12.1289
 21
193.976
  0
LINE
  8
0
 10
12.1289
 20
193.976
 11
12.6791
 21
194.278
  0
LINE
  8
0
 10
12.6791
 20
194.278
 11
13.1871
 21
194.647
  0
LINE
  8
0
 10
13.1871
 20
194.647
 11
13.6448
 21
195.077
  0
LINE
  8
0
 10
13.6448
 20
195.077
 11
14.0451
 21
195.561
  0
LINE
  8
0
 10
14.0451
 20
195.561
 11
14.3815
 21
196.091
  0
LINE
  8
0
 10
14.3815
 20
196.091
 11
14.6489
 21
196.659
  0
LINE
  8
0
 10
14.6489
 20
196.659
 11
14.8429
 21
197.257
  0
LINE
  8
0
 10
14.8429
 20
197.257
 11
14.9606
 21
197.873
  0
LINE
  8
0
 10
14.9606
 20
197.873
 11
15
 21
198.5
  0
LINE
  8
0
 10
15
 20
198.5
 11
15
 21
233.5
  0
LINE
  8
0
 10
15
 20
233.5
 11
14.9606
 21
234.127
  0
LINE
  8
0
 10
14.9606
 20
234.127
 11
14.8429
 21
234.743
  0
LINE
  8
0
 10
14.8429
 20
234.743
 11
14.6489
 21
235.341
  0
LINE
  8
0
 10
14.6489
 20
235.341
 11
14.3815
 21
235.909
  0
LINE
  8
0
 10
14.3815
 20
235.909
 11
14.0451
 21
236.439
  0
LINE
  8
0
 10
14.0451
 20
236.439
 11
13.6448
 21
236.923
  0
LINE
  8
0
 10
13.6448
 20
236.923
 11
13.1871
 21
237.353
  0
LINE
  8
0
 10
13.1871
 20
237.353
 11
12.6791
 21
237.722
  0
LINE
  8
0
 10
12.6791
 20
237.722
 11
12.1289
 21
238.024
  0
LINE
  8
0
 10
12.1289
 20
238.024
 11
11.5451
 21
238.255
  0
LINE
  8
0
 10
11.5451
 20
238.255
 11
10.9369
 21
238.411
  0
LINE
  8
0
 10
10.9369
 20
238.411
 11
10.3139
 21
238.49
  0
LINE
  8
0
 10
10.3139
 20
238.49
 11
-10.3139
 21
238.49
  0
LINE
  8
0
 10
-10.3139
 20
238.49
 11
-10.9369
 21
238.411
  0
LINE
  8
0
 10
-10.9369
 20
238.411
 11
-11.5451
 21
238.255
  0
LINE
  8
0
 10
-11.5451
 20
238.255
 11
-12.1289
 21
238.024
  0
LINE
  8
0
 10
-12.1289
 20
238.024
 11
-12.6791
 21
237.722
  0
LINE
  8
0
 10
-12.6791
 20
237.722
 11
-13.1871
 21
237.353
  0
LINE
  8
0
 10
-13.1871
 20
237.353
 11
-13.6448
 21
236.923
  0
LINE
  8
0
 10
-13.6448
 20
236.923
 11
-14.0451
 21
236.439
  0
LINE
  8
0
 10
-14.0451
 20
236.439
 11
-14.3815
 21
235.909
  0
LINE
  8
0
 10
-14.3815
 20
235.909
 11
-14.6489
 21
235.341
  0
LINE
  8
0
 10
-14.6489
 20
235.341
 11
-14.8429
 21
234.743
  0
LINE
  8
0
 10
-14.8429
 20
234.743
 11
-14.9606
 21
234.127
  0
LINE
  8
0
 10
-14.9606
 20
234.127
 11
-15
 21
233.5
  0
LINE
  8
0
 10
-15
 20
233.5
 11
-15
 21
198.5
  0
LINE
  8
0
 10
-15
 20
198.5
 11
-14.9606
 21
197.873
  0
LINE
  8
0
 10
-14.9606
 20
197.873
 11
-14.8429
 21
197.257
  0
LINE
  8
0
 10
-14.8429
 20
197.257
 11
-14.6489
 21
196.659
  0
LINE
  8
0
 10
-14.6489
 20
196.659
 11
-14.3815
 21
196.091
  0
LINE
  8
0
 10
-14.3815
 20
196.091
 11
-14.0451
 21
195.561
  0
LINE
  8
0
 10
-14.0451
 20
195.561
 11
-13.6448
 21
195.077
  0
LINE
  8
0
 10
-13.6448
 20
195.077
 11
-13.1871
 21
194.647
  0
LINE
  8
0
 10
-13.1871
 20
194.647
 11
-12.6791
 21
194.278
  0
LINE
  8
0
 10
-12.6791
 20
194.278
 11
-12.1289
 21
193.976
  0
LINE
  8
0
 10
-12.1289
 20
193.976
 11
-11.5451
 21
193.745
  0
LINE
  8
0
 10
-11.5451
 20
193.745
 11
-10.9369
 21
193.589
  0
LINE
  8
0
 10
-10.9369
 20
193.589
 11
-10.3139
 21
193.51
  0
LINE
  8
0
 10
-10.3139
 20
193.51
 11
10.3139
 21
193.51
  0
LINE
  8
0
 10
10.3139
 20
193.51
 11
10.9369
 21
193.589
  0
LINE
  8
0
 10
-9.74316
 20
195.135
 11
-10.2256
 21
195.196
  0
LINE
  8
0
 10
-10.2256
 20
195.196
 11
-10.6967
 21
195.317
  0
LINE
  8
0
 10
-10.6967
 20
195.317
 11
-11.1489
 21
195.496
  0
LINE
  8
0
 10
-11.1489
 20
195.496
 11
-11.5751
 21
195.73
  0
LINE
  8
0
 10
-11.5751
 20
195.73
 11
-11.9685
 21
196.016
  0
LINE
  8
0
 10
-11.9685
 20
196.016
 11
-12.323
 21
196.349
  0
LINE
  8
0
 10
-12.323
 20
196.349
 11
-12.633
 21
196.724
  0
LINE
  8
0
 10
-12.633
 20
196.724
 11
-12.8936
 21
197.134
  0
LINE
  8
0
 10
-12.8936
 20
197.134
 11
-13.1007
 21
197.574
  0
LINE
  8
0
 10
-13.1007
 20
197.574
 11
-13.251
 21
198.037
  0
LINE
  8
0
 10
-13.251
 20
198.037
 11
-13.3421
 21
198.515
  0
LINE
  8
0
 10
-13.3421
 20
198.515
 11
-13.3726
 21
199
  0
LINE
  8
0
 10
-13.3726
 20
199
 11
-13.3726
 21
233
  0
LINE
  8
0
 10
-13.3726
 20
233
 11
-13.3421
 21
233.485
  0
LINE
  8
0
 10
-13.3421
 20
233.485
 11
-13.251
 21
233.963
  0
LINE
  8
0
 10
-13.251
 20
233.963
 11
-13.1007
 21
234.426
  0
LINE
  8
0
 10
-13.1007
 20
234.426
 11
-12.8936
 21
234.866
  0
LINE
  8
0
 10
-12.8936
 20
234.866
 11
-12.633
 21
235.276
  0
LINE
  8
0
 10
-12.633
 20
235.276
 11
-12.323
 21
235.651
  0
LINE
  8
0
 10
-12.323
 20
235.651
 11
-11.9685
 21
235.984
  0
LINE
  8
0
 10
-11.9685
 20
235.984
 11
-11.5751
 21
236.27
  0
LINE
  8
0
 10
-11.5751
 20
236.27
 11
-11.1489
 21
236.504
  0
LINE
  8
0
 10
-11.1489
 20
236.504
 11
-10.6967
 21
236.683
  0
LINE
  8
0
 10
-10.6967
 20
236.683
 11
-10.2256
 21
236.804
  0
LINE
  8
0
 10
-10.2256
 20
236.804
 11
-9.74316
 21
236.865
  0
LINE
  8
0
 10
-9.74316
 20
236.865
 11
9.74316
 21
236.865
  0
LINE
  8
0
 10
9.74316
 20
236.865
 11
10.2256
 21
236.804
  0
LINE
  8
0
 10
10.2256
 20
236.804
 11
10.6967
 21
236.683
  0
LINE
  8
0
 10
10.6967
 20
236.683
 11
11.1489
 21
236.504
  0
LINE
  8
0
 10
11.1489
 20
236.504
 11
11.5751
 21
236.27
  0
LINE
  8
0
 10
11.5751
 20
236.27
 11
11.9685
 21
235.984
  0
LINE
  8
0
 10
11.9685
 20
235.984
 11
12.323
 21
235.651
  0
LINE
  8
0
 10
12.323
 20
235.651
 11
12.633
 21
235.276
  0
LINE
  8
0
 10
12.633
 20
235.276
 11
12.8936
 21
234.866
  0
LINE
  8
0
 10
12.8936
 20
234.866
 11
13.1007
 21
234.426
  0
LINE
  8
0
 10
13.1007
 20
234.426
 11
13.251
 21
233.963
  0
LINE
  8
0
 10
13.251
 20
233.963
 11
13.3421
 21
233.485
  0
LINE
  8
0
 10
13.3421
 20
233.485
 11
13.3726
 21
233
  0
LINE
  8
0
 10
13.3726
 20
233
 11
13.3726
 21
199
  0
LINE
  8
0
 10
13.3726
 20
199
 11
13.3421
 21
198.515
  0
LINE
  8
0
 10
13.3421
 20
198.515
 11
13.251
 21
198.037
  0
LINE
  8
0
 10
13.251
 20
198.037
 11
13.1007
 21
197.574
  0
LINE
  8
0
 10
13.1007
 20
197.574
 11
12.8936
 21
197.134
  0
LINE
  8
0
 10
12.8936
 20
197.134
 11
12.633
 21
196.724
  0
LINE
  8
0
 10
12.633
 20
196.724
 11
12.323
 21
196.349
  0
LINE
  8
0
 10
12.323
 20
196.349
 11
11.9685
 21
196.016
  0
LINE
  8
0
 10
11.9685
 20
196.016
 11
11.5751
 21
195.73
  0
LINE
  8
0
 10
11.5751
 20
195.73
 11
11.1489
 21
195.496
  0
LINE
  8
0
 10
11.1489
 20
195.496
 11
10.6967
 21
195.317
  0
LINE
  8
0
 10
10.6967
 20
195.317
 11
10.2256
 21
195.196
  0
LINE
  8
0
 10
10.2256
 20
195.196
 11
9.74316
 21
195.135
  0
LINE
  8
0
 10
9.74316
 20
195.135
 11
-9.74316
 21
195.135
  0
LINE
  8
0
 10
10.9369
 20
139.589
 11
11.5451
 21
139.745
  0
LINE
  8
0
 10
11.5451
 20
139.745
 11
12.1289
 21
139.976
  0
LINE
  8
0
 10
12.1289
 20
139.976
 11
12.6791
 21
140.278
  0
LINE
  8
0
 10
12.6791
 20
140.278
 11
13.1871
 21
140.647
  0
LINE
  8
0
 10
13.1871
 20
140.647
 11
13.6448
 21
141.077
  0
LINE
  8
0
 10
13.6448
 20
141.077
 11
14.0451
 21
141.561
  0
LINE
  8
0
 10
14.0451
 20
141.561
 11
14.3815
 21
142.091
  0
LINE
  8
0
 10
14.3815
 20
142.091
 11
14.6489
 21
142.659
  0
LINE
  8
0
 10
14.6489
 20
142.659
 11
14.8429
 21
143.257
  0
LINE
  8
0
 10
14.8429
 20
143.257
 11
14.9606
 21
143.873
  0
LINE
  8
0
 10
14.9606
 20
143.873
 11
15
 21
144.5
  0
LINE
  8
0
 10
15
 20
144.5
 11
15
 21
179.5
  0
LINE
  8
0
 10
15
 20
179.5
 11
14.9606
 21
180.127
  0
LINE
  8
0
 10
14.9606
 20
180.127
 11
14.8429
 21
180.743
  0
LINE
  8
0
 10
14.8429
 20
180.743
 11
14.6489
 21
181.341
  0
LINE
  8
0
 10
14.6489
 20
181.341
 11
14.3815
 21
181.909
  0
LINE
  8
0
 10
14.3815
 20
181.909
 11
14.0451
 21
182.439
  0
LINE
  8
0
 10
14.0451
 20
182.439
 11
13.6448
 21
182.923
  0
LINE
  8
0
 10
13.6448
 20
182.923
 11
13.1871
 21
183.353
  0
LINE
  8
0
 10
13.1871
 20
183.353
 11
12.6791
 21
183.722
  0
LINE
  8
0
 10
12.6791
 20
183.722
 11
12.1289
 21
184.024
  0
LINE
  8
0
 10
12.1289
 20
184.024
 11
11.5451
 21
184.255
  0
LINE
  8
0
 10
11.5451
 20
184.255
 11
10.9369
 21
184.411
  0
LINE
  8
0
 10
10.9369
 20
184.411
 11
10.3139
 21
184.49
  0
LINE
  8
0
 10
10.3139
 20
184.49
 11
-10.3139
 21
184.49
  0
LINE
  8
0
 10
-10.3139
 20
184.49
 11
-10.9369
 21
184.411
  0
LINE
  8
0
 10
-10.9369
 20
184.411
 11
-11.5451
 21
184.255
  0
LINE
  8
0
 10
-11.5451
 20
184.255
 11
-12.1289
 21
184.024
  0
LINE
  8
0
 10
-12.1289
 20
184.024
 11
-12.6791
 21
183.722
  0
LINE
  8
0
 10
-12.6791
 20
183.722
 11
-13.1871
 21
183.353
  0
LINE
  8
0
 10
-13.1871
 20
183.353
 11
-13.6448
 21
182.923
  0
LINE
  8
0
 10
-13.6448
 20
182.923
 11
-14.0451
 21
182.439
  0
LINE
  8
0
 10
-14.0451
 20
182.439
 11
-14.3815
 21
181.909
  0
LINE
  8
0
 10
-14.3815
 20
181.909
 11
-14.6489
 21
181.341
  0
LINE
  8
0
 10
-14.6489
 20
181.341
 11
-14.8429
 21
180.743
  0
LINE
  8
0
 10
-14.8429
 20
180.743
 11
-14.9606
 21
180.127
  0
LINE
  8
0
 10
-14.9606
 20
180.127
 11
-15
 21
179.5
  0
LINE
  8
0
 10
-15
 20
179.5
 11
-15
 21
144.5
  0
LINE
  8
0
 10
-15
 20
144.5
 11
-14.9606
 21
143.873
  0
LINE
  8
0
 10
-14.9606
 20
143.873
 11
-14.8429
 21
143.257
  0
LINE
  8
0
 10
-14.8429
 20
143.257
 11
-14.6489
 21
142.659
  0
LINE
  8
0
 10
-14.6489
 20
142.659
 11
-14.3815
 21
142.091
  0
LINE
  8
0
 10
-14.3815
 20
142.091
 11
-14.0451
 21
141.561
  0
LINE
  8
0
 10
-14.0451
 20
141.561
 11
-13.6448
 21
141.077
  0
LINE
  8
0
 10
-13.6448
 20
141.077
 11
-13.1871
 21
140.647
  0
LINE
  8
0
 10
-13.1871
 20
140.647
 11
-12.6791
 21
140.278
  0
LINE
  8
0
 10
-12.6791
 20
140.278
 11
-12.1289
 21
139.976
  0
LINE
  8
0
 10
-12.1289
 20
139.976
 11
-11.5451
 21
139.745
  0
LINE
  8
0
 10
-11.5451
 20
139.745
 11
-10.9369
 21
139.589
  0
LINE
  8
0
 10
-10.9369
 20
139.589
 11
-10.3139
 21
139.51
  0
LINE
  8
0
 10
-10.3139
 20
139.51
 11
10.3139
 21
139.51
  0
LINE
  8
0
 10
10.3139
 20
139.51
 11
10.9369
 21
139.589
  0
LINE
  8
0
 10
10.9369
 20
85.5886
 11
11.5451
 21
85.7447
  0
LINE
  8
0
 10
11.5451
 20
85.7447
 11
12.1289
 21
85.9759
  0
LINE
  8
0
 10
12.1289
 20
85.9759
 11
12.6791
 21
86.2784
  0
LINE
  8
0
 10
12.6791
 20
86.2784
 11
13.1871
 21
86.6474
  0
LINE
  8
0
 10
13.1871
 20
86.6474
 11
13.6448
 21
87.0773
  0
LINE
  8
0
 10
13.6448
 20
87.0773
 11
14.0451
 21
87.5611
  0
LINE
  8
0
 10
14.0451
 20
87.5611
 11
14.3815
 21
88.0912
  0
LINE
  8
0
 10
14.3815
 20
88.0912
 11
14.6489
 21
88.6594
  0
LINE
  8
0
 10
14.6489
 20
88.6594
 11
14.8429
 21
89.2566
  0
LINE
  8
0
 10
14.8429
 20
89.2566
 11
14.9606
 21
89.8733
  0
LINE
  8
0
 10
14.9606
 20
89.8733
 11
15
 21
90.5
  0
LINE
  8
0
 10
15
 20
90.5
 11
15
 21
125.5
  0
LINE
  8
0
 10
15
 20
125.5
 11
14.9606
 21
126.127
  0
LINE
  8
0
 10
14.9606
 20
126.127
 11
14.8429
 21
126.743
  0
LINE
  8
0
 10
14.8429
 20
126.743
 11
14.6489
 21
127.341
  0
LINE
  8
0
 10
14.6489
 20
127.341
 11
14.3815
 21
127.909
  0
LINE
  8
0
 10
14.3815
 20
127.909
 11
14.0451
 21
128.439
  0
LINE
  8
0
 10
14.0451
 20
128.439
 11
13.6448
 21
128.923
  0
LINE
  8
0
 10
13.6448
 20
128.923
 11
13.1871
 21
129.353
  0
LINE
  8
0
 10
13.1871
 20
129.353
 11
12.6791
 21
129.722
  0
LINE
  8
0
 10
12.6791
 20
129.722
 11
12.1289
 21
130.024
  0
LINE
  8
0
 10
12.1289
 20
130.024
 11
11.5451
 21
130.255
  0
LINE
  8
0
 10
11.5451
 20
130.255
 11
10.9369
 21
130.411
  0
LINE
  8
0
 10
10.9369
 20
130.411
 11
10.3139
 21
130.49
  0
LINE
  8
0
 10
10.3139
 20
130.49
 11
-10.3139
 21
130.49
  0
LINE
  8
0
 10
-10.3139
 20
130.49
 11
-10.9369
 21
130.411
  0
LINE
  8
0
 10
-10.9369
 20
130.411
 11
-11.5451
 21
130.255
  0
LINE
  8
0
 10
-11.5451
 20
130.255
 11
-12.1289
 21
130.024
  0
LINE
  8
0
 10
-12.1289
 20
130.024
 11
-12.6791
 21
129.722
  0
LINE
  8
0
 10
-12.6791
 20
129.722
 11
-13.1871
 21
129.353
  0
LINE
  8
0
 10
-13.1871
 20
129.353
 11
-13.6448
 21
128.923
  0
LINE
  8
0
 10
-13.6448
 20
128.923
 11
-14.0451
 21
128.439
  0
LINE
  8
0
 10
-14.0451
 20
128.439
 11
-14.3815
 21
127.909
  0
LINE
  8
0
 10
-14.3815
 20
127.909
 11
-14.6489
 21
127.341
  0
LINE
  8
0
 10
-14.6489
 20
127.341
 11
-14.8429
 21
126.743
  0
LINE
  8
0
 10
-14.8429
 20
126.743
 11
-14.9606
 21
126.127
  0
LINE
  8
0
 10
-14.9606
 20
126.127
 11
-15
 21
125.5
  0
LINE
  8
0
 10
-15
 20
125.5
 11
-15
 21
90.5
  0
LINE
  8
0
 10
-15
 20
90.5
 11
-14.9606
 21
89.8733
  0
LINE
  8
0
 10
-14.9606
 20
89.8733
 11
-14.8429
 21
89.2566
  0
LINE
  8
0
 10
-14.8429
 20
89.2566
 11
-14.6489
 21
88.6594
  0
LINE
  8
0
 10
-14.6489
 20
88.6594
 11
-14.3815
 21
88.0912
  0
LINE
  8
0
 10
-14.3815
 20
88.0912
 11
-14.0451
 21
87.5611
  0
LINE
  8
0
 10
-14.0451
 20
87.5611
 11
-13.6448
 21
87.0773
  0
LINE
  8
0
 10
-13.6448
 20
87.0773
 11
-13.1871
 21
86.6474
  0
LINE
  8
0
 10
-13.1871
 20
86.6474
 11
-12.6791
 21
86.2784
  0
LINE
  8
0
 10
-12.6791
 20
86.2784
 11
-12.1289
 21
85.9759
  0
LINE
  8
0
 10
-12.1289
 20
85.9759
 11
-11.5451
 21
85.7447
  0
LINE
  8
0
 10
-11.5451
 20
85.7447
 11
-10.9369
 21
85.5886
  0
LINE
  8
0
 10
-10.9369
 20
85.5886
 11
-10.3139
 21
85.5099
  0
LINE
  8
0
 10
-10.3139
 20
85.5099
 11
10.3139
 21
85.5099
  0
LINE
  8
0
 10
10.3139
 20
85.5099
 11
10.9369
 21
85.5886
  0
LINE
  8
0
 10
7.38696
 20
121.204
 11
7.1627
 21
121.232
  0
LINE
  8
0
 10
7.1627
 20
121.232
 11
6.94376
 21
121.288
  0
LINE
  8
0
 10
6.94376
 20
121.288
 11
6.7336
 21
121.371
  0
LINE
  8
0
 10
6.7336
 20
121.371
 11
6.53551
 21
121.48
  0
LINE
  8
0
 10
6.53551
 20
121.48
 11
6.35263
 21
121.613
  0
LINE
  8
0
 10
6.35263
 20
121.613
 11
6.18785
 21
121.768
  0
LINE
  8
0
 10
6.18785
 20
121.768
 11
6.04376
 21
121.942
  0
LINE
  8
0
 10
6.04376
 20
121.942
 11
5.92264
 21
122.133
  0
LINE
  8
0
 10
5.92264
 20
122.133
 11
5.8264
 21
122.337
  0
LINE
  8
0
 10
5.8264
 20
122.337
 11
5.75655
 21
122.552
  0
LINE
  8
0
 10
5.75655
 20
122.552
 11
5.71419
 21
122.774
  0
LINE
  8
0
 10
5.71419
 20
122.774
 11
5.7
 21
123
  0
LINE
  8
0
 10
5.7
 20
123
 11
5.71419
 21
123.226
  0
LINE
  8
0
 10
5.71419
 20
123.226
 11
5.75655
 21
123.448
  0
LINE
  8
0
 10
5.75655
 20
123.448
 11
5.8264
 21
123.663
  0
LINE
  8
0
 10
5.8264
 20
123.663
 11
5.92264
 21
123.867
  0
LINE
  8
0
 10
5.92264
 20
123.867
 11
6.04376
 21
124.058
  0
LINE
  8
0
 10
6.04376
 20
124.058
 11
6.18785
 21
124.232
  0
LINE
  8
0
 10
6.18785
 20
124.232
 11
6.35263
 21
124.387
  0
LINE
  8
0
 10
6.35263
 20
124.387
 11
6.53551
 21
124.52
  0
LINE
  8
0
 10
6.53551
 20
124.52
 11
6.7336
 21
124.629
  0
LINE
  8
0
 10
6.7336
 20
124.629
 11
6.94376
 21
124.712
  0
LINE
  8
0
 10
6.94376
 20
124.712
 11
7.1627
 21
124.768
  0
LINE
  8
0
 10
7.1627
 20
124.768
 11
7.38696
 21
124.796
  0
LINE
  8
0
 10
7.38696
 20
124.796
 11
7.61302
 21
124.796
  0
LINE
  8
0
 10
7.61302
 20
124.796
 11
7.83728
 21
124.768
  0
LINE
  8
0
 10
7.83728
 20
124.768
 11
8.05623
 21
124.712
  0
LINE
  8
0
 10
8.05623
 20
124.712
 11
8.26639
 21
124.629
  0
LINE
  8
0
 10
8.26639
 20
124.629
 11
8.46448
 21
124.52
  0
LINE
  8
0
 10
8.46448
 20
124.52
 11
8.64735
 21
124.387
  0
LINE
  8
0
 10
8.64735
 20
124.387
 11
8.81213
 21
124.232
  0
LINE
  8
0
 10
8.81213
 20
124.232
 11
8.95622
 21
124.058
  0
LINE
  8
0
 10
8.95622
 20
124.058
 11
9.07735
 21
123.867
  0
LINE
  8
0
 10
9.07735
 20
123.867
 11
9.17358
 21
123.663
  0
LINE
  8
0
 10
9.17358
 20
123.663
 11
9.24344
 21
123.448
  0
LINE
  8
0
 10
9.24344
 20
123.448
 11
9.2858
 21
123.226
  0
LINE
  8
0
 10
9.2858
 20
123.226
 11
9.29999
 21
123
  0
LINE
  8
0
 10
9.29999
 20
123
 11
9.2858
 21
122.774
  0
LINE
  8
0
 10
9.2858
 20
122.774
 11
9.24344
 21
122.552
  0
LINE
  8
0
 10
9.24344
 20
122.552
 11
9.17358
 21
122.337
  0
LINE
  8
0
 10
9.17358
 20
122.337
 11
9.07735
 21
122.133
  0
LINE
  8
0
 10
9.07735
 20
122.133
 11
8.95622
 21
121.942
  0
LINE
  8
0
 10
8.95622
 20
121.942
 11
8.81213
 21
121.768
  0
LINE
  8
0
 10
8.81213
 20
121.768
 11
8.64735
 21
121.613
  0
LINE
  8
0
 10
8.64735
 20
121.613
 11
8.46448
 21
121.48
  0
LINE
  8
0
 10
8.46448
 20
121.48
 11
8.26639
 21
121.371
  0
LINE
  8
0
 10
8.26639
 20
121.371
 11
8.05623
 21
121.288
  0
LINE
  8
0
 10
8.05623
 20
121.288
 11
7.83728
 21
121.232
  0
LINE
  8
0
 10
7.83728
 20
121.232
 11
7.61302
 21
121.204
  0
LINE
  8
0
 10
7.61302
 20
121.204
 11
7.38696
 21
121.204
  0
LINE
  8
0
 10
-7.61302
 20
121.204
 11
-7.83728
 21
121.232
  0
LINE
  8
0
 10
-7.83728
 20
121.232
 11
-8.05623
 21
121.288
  0
LINE
  8
0
 10
-8.05623
 20
121.288
 11
-8.26639
 21
121.371
  0
LINE
  8
0
 10
-8.26639
 20
121.371
 11
-8.46448
 21
121.48
  0
LINE
  8
0
 10
-8.46448
 20
121.48
 11
-8.64735
 21
121.613
  0
LINE
  8
0
 10
-8.64735
 20
121.613
 11
-8.81213
 21
121.768
  0
LINE
  8
0
 10
-8.81213
 20
121.768
 11
-8.95622
 21
121.942
  0
LINE
  8
0
 10
-8.95622
 20
121.942
 11
-9.07735
 21
122.133
  0
LINE
  8
0
 10
-9.07735
 20
122.133
 11
-9.17358
 21
122.337
  0
LINE
  8
0
 10
-9.17358
 20
122.337
 11
-9.24344
 21
122.552
  0
LINE
  8
0
 10
-9.24344
 20
122.552
 11
-9.2858
 21
122.774
  0
LINE
  8
0
 10
-9.2858
 20
122.774
 11
-9.29999
 21
123
  0
LINE
  8
0
 10
-9.29999
 20
123
 11
-9.2858
 21
123.226
  0
LINE
  8
0
 10
-9.2858
 20
123.226
 11
-9.24344
 21
123.448
  0
LINE
  8
0
 10
-9.24344
 20
123.448
 11
-9.17358
 21
123.663
  0
LINE
  8
0
 10
-9.17358
 20
123.663
 11
-9.07735
 21
123.867
  0
LINE
  8
0
 10
-9.07735
 20
123.867
 11
-8.95622
 21
124.058
  0
LINE
  8
0
 10
-8.95622
 20
124.058
 11
-8.81213
 21
124.232
  0
LINE
  8
0
 10
-8.81213
 20
124.232
 11
-8.64735
 21
124.387
  0
LINE
  8
0
 10
-8.64735
 20
124.387
 11
-8.46448
 21
124.52
  0
LINE
  8
0
 10
-8.46448
 20
124.52
 11
-8.26639
 21
124.629
  0
LINE
  8
0
 10
-8.26639
 20
124.629
 11
-8.05623
 21
124.712
  0
LINE
  8
0
 10
-8.05623
 20
124.712
 11
-7.83728
 21
124.768
  0
LINE
  8
0
 10
-7.83728
 20
124.768
 11
-7.61302
 21
124.796
  0
LINE
  8
0
 10
-7.61302
 20
124.796
 11
-7.38696
 21
124.796
  0
LINE
  8
0
 10
-7.38696
 20
124.796
 11
-7.1627
 21
124.768
  0
LINE
  8
0
 10
-7.1627
 20
124.768
 11
-6.94376
 21
124.712
  0
LINE
  8
0
 10
-6.94376
 20
124.712
 11
-6.7336
 21
124.629
  0
LINE
  8
0
 10
-6.7336
 20
124.629
 11
-6.53551
 21
124.52
  0
LINE
  8
0
 10
-6.53551
 20
124.52
 11
-6.35263
 21
124.387
  0
LINE
  8
0
 10
-6.35263
 20
124.387
 11
-6.18785
 21
124.232
  0
LINE
  8
0
 10
-6.18785
 20
124.232
 11
-6.04376
 21
124.058
  0
LINE
  8
0
 10
-6.04376
 20
124.058
 11
-5.92264
 21
123.867
  0
LINE
  8
0
 10
-5.92264
 20
123.867
 11
-5.8264
 21
123.663
  0
LINE
  8
0
 10
-5.8264
 20
123.663
 11
-5.75655
 21
123.448
  0
LINE
  8
0
 10
-5.75655
 20
123.448
 11
-5.71419
 21
123.226
  0
LINE
  8
0
 10
-5.71419
 20
123.226
 11
-5.7
 21
123
  0
LINE
  8
0
 10
-5.7
 20
123
 11
-5.71419
 21
122.774
  0
LINE
  8
0
 10
-5.71419
 20
122.774
 11
-5.75655
 21
122.552
  0
LINE
  8
0
 10
-5.75655
 20
122.552
 11
-5.8264
 21
122.337
  0
LINE
  8
0
 10
-5.8264
 20
122.337
 11
-5.92264
 21
122.133
  0
LINE
  8
0
 10
-5.92264
 20
122.133
 11
-6.04376
 21
121.942
  0
LINE
  8
0
 10
-6.04376
 20
121.942
 11
-6.18785
 21
121.768
  0
LINE
  8
0
 10
-6.18785
 20
121.768
 11
-6.35263
 21
121.613
  0
LINE
  8
0
 10
-6.35263
 20
121.613
 11
-6.53551
 21
121.48
  0
LINE
  8
0
 10
-6.53551
 20
121.48
 11
-6.7336
 21
121.371
  0
LINE
  8
0
 10
-6.7336
 20
121.371
 11
-6.94376
 21
121.288
  0
LINE
  8
0
 10
-6.94376
 20
121.288
 11
-7.1627
 21
121.232
  0
LINE
  8
0
 10
-7.1627
 20
121.232
 11
-7.38696
 21
121.204
  0
LINE
  8
0
 10
-7.38696
 20
121.204
 11
-7.61302
 21
121.204
  0
LINE
  8
0
 10
-7.61302
 20
91.2036
 11
-7.83728
 21
91.2319
  0
LINE
  8
0
 10
-7.83728
 20
91.2319
 11
-8.05623
 21
91.2881
  0
LINE
  8
0
 10
-8.05623
 20
91.2881
 11
-8.26639
 21
91.3713
  0
LINE
  8
0
 10
-8.26639
 20
91.3713
 11
-8.46448
 21
91.4802
  0
LINE
  8
0
 10
-8.46448
 20
91.4802
 11
-8.64735
 21
91.6131
  0
LINE
  8
0
 10
-8.64735
 20
91.6131
 11
-8.81213
 21
91.7678
  0
LINE
  8
0
 10
-8.81213
 20
91.7678
 11
-8.95622
 21
91.942
  0
LINE
  8
0
 10
-8.95622
 20
91.942
 11
-9.07735
 21
92.1329
  0
LINE
  8
0
 10
-9.07735
 20
92.1329
 11
-9.17358
 21
92.3374
  0
LINE
  8
0
 10
-9.17358
 20
92.3374
 11
-9.24344
 21
92.5524
  0
LINE
  8
0
 10
-9.24344
 20
92.5524
 11
-9.2858
 21
92.7744
  0
LINE
  8
0
 10
-9.2858
 20
92.7744
 11
-9.29999
 21
93
  0
LINE
  8
0
 10
-9.29999
 20
93
 11
-9.2858
 21
93.2256
  0
LINE
  8
0
 10
-9.2858
 20
93.2256
 11
-9.24344
 21
93.4476
  0
LINE
  8
0
 10
-9.24344
 20
93.4476
 11
-9.17358
 21
93.6626
  0
LINE
  8
0
 10
-9.17358
 20
93.6626
 11
-9.07735
 21
93.8672
  0
LINE
  8
0
 10
-9.07735
 20
93.8672
 11
-8.95622
 21
94.058
  0
LINE
  8
0
 10
-8.95622
 20
94.058
 11
-8.81213
 21
94.2322
  0
LINE
  8
0
 10
-8.81213
 20
94.2322
 11
-8.64735
 21
94.3869
  0
LINE
  8
0
 10
-8.64735
 20
94.3869
 11
-8.46448
 21
94.5198
  0
LINE
  8
0
 10
-8.46448
 20
94.5198
 11
-8.26639
 21
94.6287
  0
LINE
  8
0
 10
-8.26639
 20
94.6287
 11
-8.05623
 21
94.7119
  0
LINE
  8
0
 10
-8.05623
 20
94.7119
 11
-7.83728
 21
94.7681
  0
LINE
  8
0
 10
-7.83728
 20
94.7681
 11
-7.61302
 21
94.7964
  0
LINE
  8
0
 10
-7.61302
 20
94.7964
 11
-7.38696
 21
94.7964
  0
LINE
  8
0
 10
-7.38696
 20
94.7964
 11
-7.1627
 21
94.7681
  0
LINE
  8
0
 10
-7.1627
 20
94.7681
 11
-6.94376
 21
94.7119
  0
LINE
  8
0
 10
-6.94376
 20
94.7119
 11
-6.7336
 21
94.6287
  0
LINE
  8
0
 10
-6.7336
 20
94.6287
 11
-6.53551
 21
94.5198
  0
LINE
  8
0
 10
-6.53551
 20
94.5198
 11
-6.35263
 21
94.3869
  0
LINE
  8
0
 10
-6.35263
 20
94.3869
 11
-6.18785
 21
94.2322
  0
LINE
  8
0
 10
-6.18785
 20
94.2322
 11
-6.04376
 21
94.058
  0
LINE
  8
0
 10
-6.04376
 20
94.058
 11
-5.92264
 21
93.8672
  0
LINE
  8
0
 10
-5.92264
 20
93.8672
 11
-5.8264
 21
93.6626
  0
LINE
  8
0
 10
-5.8264
 20
93.6626
 11
-5.75655
 21
93.4476
  0
LINE
  8
0
 10
-5.75655
 20
93.4476
 11
-5.71419
 21
93.2256
  0
LINE
  8
0
 10
-5.71419
 20
93.2256
 11
-5.7
 21
93
  0
LINE
  8
0
 10
-5.7
 20
93
 11
-5.71419
 21
92.7744
  0
LINE
  8
0
 10
-5.71419
 20
92.7744
 11
-5.75655
 21
92.5524
  0
LINE
  8
0
 10
-5.75655
 20
92.5524
 11
-5.8264
 21
92.3374
  0
LINE
  8
0
 10
-5.8264
 20
92.3374
 11
-5.92264
 21
92.1329
  0
LINE
  8
0
 10
-5.92264
 20
92.1329
 11
-6.04376
 21
91.942
  0
LINE
  8
0
 10
-6.04376
 20
91.942
 11
-6.18785
 21
91.7678
  0
LINE
  8
0
 10
-6.18785
 20
91.7678
 11
-6.35263
 21
91.6131
  0
LINE
  8
0
 10
-6.35263
 20
91.6131
 11
-6.53551
 21
91.4802
  0
LINE
  8
0
 10
-6.53551
 20
91.4802
 11
-6.7336
 21
91.3713
  0
LINE
  8
0
 10
-6.7336
 20
91.3713
 11
-6.94376
 21
91.2881
  0
LINE
  8
0
 10
-6.94376
 20
91.2881
 11
-7.1627
 21
91.2319
  0
LINE
  8
0
 10
-7.1627
 20
91.2319
 11
-7.38696
 21
91.2036
  0
LINE
  8
0
 10
-7.38696
 20
91.2036
 11
-7.61302
 21
91.2036
  0
LINE
  8
0
 10
7.38696
 20
91.2036
 11
7.1627
 21
91.2319
  0
LINE
  8
0
 10
7.1627
 20
91.2319
 11
6.94376
 21
91.2881
  0
LINE
  8
0
 10
6.94376
 20
91.2881
 11
6.7336
 21
91.3713
  0
LINE
  8
0
 10
6.7336
 20
91.3713
 11
6.53551
 21
91.4802
  0
LINE
  8
0
 10
6.53551
 20
91.4802
 11
6.35263
 21
91.6131
  0
LINE
  8
0
 10
6.35263
 20
91.6131
 11
6.18785
 21
91.7678
  0
LINE
  8
0
 10
6.18785
 20
91.7678
 11
6.04376
 21
91.942
  0
LINE
  8
0
 10
6.04376
 20
91.942
 11
5.92264
 21
92.1329
  0
LINE
  8
0
 10
5.92264
 20
92.1329
 11
5.8264
 21
92.3374
  0
LINE
  8
0
 10
5.8264
 20
92.3374
 11
5.75655
 21
92.5524
  0
LINE
  8
0
 10
5.75655
 20
92.5524
 11
5.71419
 21
92.7744
  0
LINE
  8
0
 10
5.71419
 20
92.7744
 11
5.7
 21
93
  0
LINE
  8
0
 10
5.7
 20
93
 11
5.71419
 21
93.2256
  0
LINE
  8
0
 10
5.71419
 20
93.2256
 11
5.75655
 21
93.4476
  0
LINE
  8
0
 10
5.75655
 20
93.4476
 11
5.8264
 21
93.6626
  0
LINE
  8
0
 10
5.8264
 20
93.6626
 11
5.92264
 21
93.8672
  0
LINE
  8
0
 10
5.92264
 20
93.8672
 11
6.04376
 21
94.058
  0
LINE
  8
0
 10
6.04376
 20
94.058
 11
6.18785
 21
94.2322
  0
LINE
  8
0
 10
6.18785
 20
94.2322
 11
6.35263
 21
94.3869
  0
LINE
  8
0
 10
6.35263
 20
94.3869
 11
6.53551
 21
94.5198
  0
LINE
  8
0
 10
6.53551
 20
94.5198
 11
6.7336
 21
94.6287
  0
LINE
  8
0
 10
6.7336
 20
94.6287
 11
6.94376
 21
94.7119
  0
LINE
  8
0
 10
6.94376
 20
94.7119
 11
7.1627
 21
94.7681
  0
LINE
  8
0
 10
7.1627
 20
94.7681
 11
7.38696
 21
94.7964
  0
LINE
  8
0
 10
7.38696
 20
94.7964
 11
7.61302
 21
94.7964
  0
LINE
  8
0
 10
7.61302
 20
94.7964
 11
7.83728
 21
94.7681
  0
LINE
  8
0
 10
7.83728
 20
94.7681
 11
8.05623
 21
94.7119
  0
LINE
  8
0
 10
8.05623
 20
94.7119
 11
8.26639
 21
94.6287
  0
LINE
  8
0
 10
8.26639
 20
94.6287
 11
8.46448
 21
94.5198
  0
LINE
  8
0
 10
8.46448
 20
94.5198
 11
8.64735
 21
94.3869
  0
LINE
  8
0
 10
8.64735
 20
94.3869
 11
8.81213
 21
94.2322
  0
LINE
  8
0
 10
8.81213
 20
94.2322
 11
8.95622
 21
94.058
  0
LINE
  8
0
 10
8.95622
 20
94.058
 11
9.07735
 21
93.8672
  0
LINE
  8
0
 10
9.07735
 20
93.8672
 11
9.17358
 21
93.6626
  0
LINE
  8
0
 10
9.17358
 20
93.6626
 11
9.24344
 21
93.4476
  0
LINE
  8
0
 10
9.24344
 20
93.4476
 11
9.2858
 21
93.2256
  0
LINE
  8
0
 10
9.2858
 20
93.2256
 11
9.29999
 21
93
  0
LINE
  8
0
 10
9.29999
 20
93
 11
9.2858
 21
92.7744
  0
LINE
  8
0
 10
9.2858
 20
92.7744
 11
9.24344
 21
92.5524
  0
LINE
  8
0
 10
9.24344
 20
92.5524
 11
9.17358
 21
92.3374
  0
LINE
  8
0
 10
9.17358
 20
92.3374
 11
9.07735
 21
92.1329
  0
LINE
  8
0
 10
9.07735
 20
92.1329
 11
8.95622
 21
91.942
  0
LINE
  8
0
 10
8.95622
 20
91.942
 11
8.81213
 21
91.7678
  0
LINE
  8
0
 10
8.81213
 20
91.7678
 11
8.64735
 21
91.6131
  0
LINE
  8
0
 10
8.64735
 20
91.6131
 11
8.46448
 21
91.4802
  0
LINE
  8
0
 10
8.46448
 20
91.4802
 11
8.26639
 21
91.3713
  0
LINE
  8
0
 10
8.26639
 20
91.3713
 11
8.05623
 21
91.2881
  0
LINE
  8
0
 10
8.05623
 20
91.2881
 11
7.83728
 21
91.2319
  0
LINE
  8
0
 10
7.83728
 20
91.2319
 11
7.61302
 21
91.2036
  0
LINE
  8
0
 10
7.61302
 20
91.2036
 11
7.38696
 21
91.2036
  0
ENDSEC
  0
SECTION
  2
OBJECTS
  0
DICTIONARY
  0
ENDSEC
  0
EOF
