  0
SECTION
  2
BLOCKS
  0
ENDSEC
  0
SECTION
  2
ENTITIES
  0
LINE
  8
0
 10
10.9369
 20
973.589
 11
11.5451
 21
973.745
  0
LINE
  8
0
 10
11.5451
 20
973.745
 11
12.1289
 21
973.976
  0
LINE
  8
0
 10
12.1289
 20
973.976
 11
12.6791
 21
974.278
  0
LINE
  8
0
 10
12.6791
 20
974.278
 11
13.1871
 21
974.647
  0
LINE
  8
0
 10
13.1871
 20
974.647
 11
13.6448
 21
975.077
  0
LINE
  8
0
 10
13.6448
 20
975.077
 11
14.0451
 21
975.561
  0
LINE
  8
0
 10
14.0451
 20
975.561
 11
14.3815
 21
976.091
  0
LINE
  8
0
 10
14.3815
 20
976.091
 11
14.6489
 21
976.659
  0
LINE
  8
0
 10
14.6489
 20
976.659
 11
14.8429
 21
977.257
  0
LINE
  8
0
 10
14.8429
 20
977.257
 11
14.9606
 21
977.873
  0
LINE
  8
0
 10
14.9606
 20
977.873
 11
15
 21
978.5
  0
LINE
  8
0
 10
15
 20
978.5
 11
15
 21
1073.5
  0
LINE
  8
0
 10
15
 20
1073.5
 11
14.9606
 21
1074.13
  0
LINE
  8
0
 10
14.9606
 20
1074.13
 11
14.8429
 21
1074.74
  0
LINE
  8
0
 10
14.8429
 20
1074.74
 11
14.6489
 21
1075.34
  0
LINE
  8
0
 10
14.6489
 20
1075.34
 11
14.3815
 21
1075.91
  0
LINE
  8
0
 10
14.3815
 20
1075.91
 11
14.0451
 21
1076.44
  0
LINE
  8
0
 10
14.0451
 20
1076.44
 11
13.6448
 21
1076.92
  0
LINE
  8
0
 10
13.6448
 20
1076.92
 11
13.1871
 21
1077.35
  0
LINE
  8
0
 10
13.1871
 20
1077.35
 11
12.6791
 21
1077.72
  0
LINE
  8
0
 10
12.6791
 20
1077.72
 11
12.1289
 21
1078.02
  0
LINE
  8
0
 10
12.1289
 20
1078.02
 11
11.5451
 21
1078.26
  0
LINE
  8
0
 10
11.5451
 20
1078.26
 11
10.9369
 21
1078.41
  0
LINE
  8
0
 10
10.9369
 20
1078.41
 11
10.3139
 21
1078.49
  0
LINE
  8
0
 10
10.3139
 20
1078.49
 11
-10.3139
 21
1078.49
  0
LINE
  8
0
 10
-10.3139
 20
1078.49
 11
-10.9369
 21
1078.41
  0
LINE
  8
0
 10
-10.9369
 20
1078.41
 11
-11.5451
 21
1078.26
  0
LINE
  8
0
 10
-11.5451
 20
1078.26
 11
-12.1289
 21
1078.02
  0
LINE
  8
0
 10
-12.1289
 20
1078.02
 11
-12.6791
 21
1077.72
  0
LINE
  8
0
 10
-12.6791
 20
1077.72
 11
-13.1871
 21
1077.35
  0
LINE
  8
0
 10
-13.1871
 20
1077.35
 11
-13.6448
 21
1076.92
  0
LINE
  8
0
 10
-13.6448
 20
1076.92
 11
-14.0451
 21
1076.44
  0
LINE
  8
0
 10
-14.0451
 20
1076.44
 11
-14.3815
 21
1075.91
  0
LINE
  8
0
 10
-14.3815
 20
1075.91
 11
-14.6489
 21
1075.34
  0
LINE
  8
0
 10
-14.6489
 20
1075.34
 11
-14.8429
 21
1074.74
  0
LINE
  8
0
 10
-14.8429
 20
1074.74
 11
-14.9606
 21
1074.13
  0
LINE
  8
0
 10
-14.9606
 20
1074.13
 11
-15
 21
1073.5
  0
LINE
  8
0
 10
-15
 20
1073.5
 11
-15
 21
978.5
  0
LINE
  8
0
 10
-15
 20
978.5
 11
-14.9606
 21
977.873
  0
LINE
  8
0
 10
-14.9606
 20
977.873
 11
-14.8429
 21
977.257
  0
LINE
  8
0
 10
-14.8429
 20
977.257
 11
-14.6489
 21
976.659
  0
LINE
  8
0
 10
-14.6489
 20
976.659
 11
-14.3815
 21
976.091
  0
LINE
  8
0
 10
-14.3815
 20
976.091
 11
-14.0451
 21
975.561
  0
LINE
  8
0
 10
-14.0451
 20
975.561
 11
-13.6448
 21
975.077
  0
LINE
  8
0
 10
-13.6448
 20
975.077
 11
-13.1871
 21
974.647
  0
LINE
  8
0
 10
-13.1871
 20
974.647
 11
-12.6791
 21
974.278
  0
LINE
  8
0
 10
-12.6791
 20
974.278
 11
-12.1289
 21
973.976
  0
LINE
  8
0
 10
-12.1289
 20
973.976
 11
-11.5451
 21
973.745
  0
LINE
  8
0
 10
-11.5451
 20
973.745
 11
-10.9369
 21
973.589
  0
LINE
  8
0
 10
-10.9369
 20
973.589
 11
-10.3139
 21
973.51
  0
LINE
  8
0
 10
-10.3139
 20
973.51
 11
10.3139
 21
973.51
  0
LINE
  8
0
 10
10.3139
 20
973.51
 11
10.9369
 21
973.589
  0
LINE
  8
0
 10
-9.75116
 20
975.008
 11
-10.2495
 21
975.071
  0
LINE
  8
0
 10
-10.2495
 20
975.071
 11
-10.7361
 21
975.196
  0
LINE
  8
0
 10
-10.7361
 20
975.196
 11
-11.2031
 21
975.381
  0
LINE
  8
0
 10
-11.2031
 20
975.381
 11
-11.6433
 21
975.623
  0
LINE
  8
0
 10
-11.6433
 20
975.623
 11
-12.0497
 21
975.918
  0
LINE
  8
0
 10
-12.0497
 20
975.918
 11
-12.4159
 21
976.262
  0
LINE
  8
0
 10
-12.4159
 20
976.262
 11
-12.7361
 21
976.649
  0
LINE
  8
0
 10
-12.7361
 20
976.649
 11
-13.0052
 21
977.073
  0
LINE
  8
0
 10
-13.0052
 20
977.073
 11
-13.2191
 21
977.528
  0
LINE
  8
0
 10
-13.2191
 20
977.528
 11
-13.3743
 21
978.005
  0
LINE
  8
0
 10
-13.3743
 20
978.005
 11
-13.4684
 21
978.499
  0
LINE
  8
0
 10
-13.4684
 20
978.499
 11
-13.5
 21
979
  0
LINE
  8
0
 10
-13.5
 20
979
 11
-13.5
 21
1073
  0
LINE
  8
0
 10
-13.5
 20
1073
 11
-13.4684
 21
1073.5
  0
LINE
  8
0
 10
-13.4684
 20
1073.5
 11
-13.3743
 21
1073.99
  0
LINE
  8
0
 10
-13.3743
 20
1073.99
 11
-13.2191
 21
1074.47
  0
LINE
  8
0
 10
-13.2191
 20
1074.47
 11
-13.0052
 21
1074.93
  0
LINE
  8
0
 10
-13.0052
 20
1074.93
 11
-12.7361
 21
1075.35
  0
LINE
  8
0
 10
-12.7361
 20
1075.35
 11
-12.4159
 21
1075.74
  0
LINE
  8
0
 10
-12.4159
 20
1075.74
 11
-12.0497
 21
1076.08
  0
LINE
  8
0
 10
-12.0497
 20
1076.08
 11
-11.6433
 21
1076.38
  0
LINE
  8
0
 10
-11.6433
 20
1076.38
 11
-11.2031
 21
1076.62
  0
LINE
  8
0
 10
-11.2031
 20
1076.62
 11
-10.7361
 21
1076.8
  0
LINE
  8
0
 10
-10.7361
 20
1076.8
 11
-10.2495
 21
1076.93
  0
LINE
  8
0
 10
-10.2495
 20
1076.93
 11
-9.75116
 21
1076.99
  0
LINE
  8
0
 10
-9.75116
 20
1076.99
 11
9.75116
 21
1076.99
  0
LINE
  8
0
 10
9.75116
 20
1076.99
 11
10.2495
 21
1076.93
  0
LINE
  8
0
 10
10.2495
 20
1076.93
 11
10.7361
 21
1076.8
  0
LINE
  8
0
 10
10.7361
 20
1076.8
 11
11.2031
 21
1076.62
  0
LINE
  8
0
 10
11.2031
 20
1076.62
 11
11.6433
 21
1076.38
  0
LINE
  8
0
 10
11.6433
 20
1076.38
 11
12.0497
 21
1076.08
  0
LINE
  8
0
 10
12.0497
 20
1076.08
 11
12.4159
 21
1075.74
  0
LINE
  8
0
 10
12.4159
 20
1075.74
 11
12.7361
 21
1075.35
  0
LINE
  8
0
 10
12.7361
 20
1075.35
 11
13.0052
 21
1074.93
  0
LINE
  8
0
 10
13.0052
 20
1074.93
 11
13.2191
 21
1074.47
  0
LINE
  8
0
 10
13.2191
 20
1074.47
 11
13.3743
 21
1073.99
  0
LINE
  8
0
 10
13.3743
 20
1073.99
 11
13.4684
 21
1073.5
  0
LINE
  8
0
 10
13.4684
 20
1073.5
 11
13.5
 21
1073
  0
LINE
  8
0
 10
13.5
 20
1073
 11
13.5
 21
979
  0
LINE
  8
0
 10
13.5
 20
979
 11
13.4684
 21
978.499
  0
LINE
  8
0
 10
13.4684
 20
978.499
 11
13.3743
 21
978.005
  0
LINE
  8
0
 10
13.3743
 20
978.005
 11
13.2191
 21
977.528
  0
LINE
  8
0
 10
13.2191
 20
977.528
 11
13.0052
 21
977.073
  0
LINE
  8
0
 10
13.0052
 20
977.073
 11
12.7361
 21
976.649
  0
LINE
  8
0
 10
12.7361
 20
976.649
 11
12.4159
 21
976.262
  0
LINE
  8
0
 10
12.4159
 20
976.262
 11
12.0497
 21
975.918
  0
LINE
  8
0
 10
12.0497
 20
975.918
 11
11.6433
 21
975.623
  0
LINE
  8
0
 10
11.6433
 20
975.623
 11
11.2031
 21
975.381
  0
LINE
  8
0
 10
11.2031
 20
975.381
 11
10.7361
 21
975.196
  0
LINE
  8
0
 10
10.7361
 20
975.196
 11
10.2495
 21
975.071
  0
LINE
  8
0
 10
10.2495
 20
975.071
 11
9.75116
 21
975.008
  0
LINE
  8
0
 10
9.75116
 20
975.008
 11
-9.75116
 21
975.008
  0
LINE
  8
0
 10
10.9369
 20
859.589
 11
11.5451
 21
859.745
  0
LINE
  8
0
 10
11.5451
 20
859.745
 11
12.1289
 21
859.976
  0
LINE
  8
0
 10
12.1289
 20
859.976
 11
12.6791
 21
860.278
  0
LINE
  8
0
 10
12.6791
 20
860.278
 11
13.1871
 21
860.647
  0
LINE
  8
0
 10
13.1871
 20
860.647
 11
13.6448
 21
861.077
  0
LINE
  8
0
 10
13.6448
 20
861.077
 11
14.0451
 21
861.561
  0
LINE
  8
0
 10
14.0451
 20
861.561
 11
14.3815
 21
862.091
  0
LINE
  8
0
 10
14.3815
 20
862.091
 11
14.6489
 21
862.659
  0
LINE
  8
0
 10
14.6489
 20
862.659
 11
14.8429
 21
863.257
  0
LINE
  8
0
 10
14.8429
 20
863.257
 11
14.9606
 21
863.873
  0
LINE
  8
0
 10
14.9606
 20
863.873
 11
15
 21
864.5
  0
LINE
  8
0
 10
15
 20
864.5
 11
15
 21
959.5
  0
LINE
  8
0
 10
15
 20
959.5
 11
14.9606
 21
960.127
  0
LINE
  8
0
 10
14.9606
 20
960.127
 11
14.8429
 21
960.743
  0
LINE
  8
0
 10
14.8429
 20
960.743
 11
14.6489
 21
961.341
  0
LINE
  8
0
 10
14.6489
 20
961.341
 11
14.3815
 21
961.909
  0
LINE
  8
0
 10
14.3815
 20
961.909
 11
14.0451
 21
962.439
  0
LINE
  8
0
 10
14.0451
 20
962.439
 11
13.6448
 21
962.923
  0
LINE
  8
0
 10
13.6448
 20
962.923
 11
13.1871
 21
963.353
  0
LINE
  8
0
 10
13.1871
 20
963.353
 11
12.6791
 21
963.722
  0
LINE
  8
0
 10
12.6791
 20
963.722
 11
12.1289
 21
964.024
  0
LINE
  8
0
 10
12.1289
 20
964.024
 11
11.5451
 21
964.255
  0
LINE
  8
0
 10
11.5451
 20
964.255
 11
10.9369
 21
964.411
  0
LINE
  8
0
 10
10.9369
 20
964.411
 11
10.3139
 21
964.49
  0
LINE
  8
0
 10
10.3139
 20
964.49
 11
-10.3139
 21
964.49
  0
LINE
  8
0
 10
-10.3139
 20
964.49
 11
-10.9369
 21
964.411
  0
LINE
  8
0
 10
-10.9369
 20
964.411
 11
-11.5451
 21
964.255
  0
LINE
  8
0
 10
-11.5451
 20
964.255
 11
-12.1289
 21
964.024
  0
LINE
  8
0
 10
-12.1289
 20
964.024
 11
-12.6791
 21
963.722
  0
LINE
  8
0
 10
-12.6791
 20
963.722
 11
-13.1871
 21
963.353
  0
LINE
  8
0
 10
-13.1871
 20
963.353
 11
-13.6448
 21
962.923
  0
LINE
  8
0
 10
-13.6448
 20
962.923
 11
-14.0451
 21
962.439
  0
LINE
  8
0
 10
-14.0451
 20
962.439
 11
-14.3815
 21
961.909
  0
LINE
  8
0
 10
-14.3815
 20
961.909
 11
-14.6489
 21
961.341
  0
LINE
  8
0
 10
-14.6489
 20
961.341
 11
-14.8429
 21
960.743
  0
LINE
  8
0
 10
-14.8429
 20
960.743
 11
-14.9606
 21
960.127
  0
LINE
  8
0
 10
-14.9606
 20
960.127
 11
-15
 21
959.5
  0
LINE
  8
0
 10
-15
 20
959.5
 11
-15
 21
864.5
  0
LINE
  8
0
 10
-15
 20
864.5
 11
-14.9606
 21
863.873
  0
LINE
  8
0
 10
-14.9606
 20
863.873
 11
-14.8429
 21
863.257
  0
LINE
  8
0
 10
-14.8429
 20
863.257
 11
-14.6489
 21
862.659
  0
LINE
  8
0
 10
-14.6489
 20
862.659
 11
-14.3815
 21
862.091
  0
LINE
  8
0
 10
-14.3815
 20
862.091
 11
-14.0451
 21
861.561
  0
LINE
  8
0
 10
-14.0451
 20
861.561
 11
-13.6448
 21
861.077
  0
LINE
  8
0
 10
-13.6448
 20
861.077
 11
-13.1871
 21
860.647
  0
LINE
  8
0
 10
-13.1871
 20
860.647
 11
-12.6791
 21
860.278
  0
LINE
  8
0
 10
-12.6791
 20
860.278
 11
-12.1289
 21
859.976
  0
LINE
  8
0
 10
-12.1289
 20
859.976
 11
-11.5451
 21
859.745
  0
LINE
  8
0
 10
-11.5451
 20
859.745
 11
-10.9369
 21
859.589
  0
LINE
  8
0
 10
-10.9369
 20
859.589
 11
-10.3139
 21
859.51
  0
LINE
  8
0
 10
-10.3139
 20
859.51
 11
10.3139
 21
859.51
  0
LINE
  8
0
 10
10.3139
 20
859.51
 11
10.9369
 21
859.589
  0
LINE
  8
0
 10
-9.75116
 20
861.008
 11
-10.2495
 21
861.071
  0
LINE
  8
0
 10
-10.2495
 20
861.071
 11
-10.7361
 21
861.196
  0
LINE
  8
0
 10
-10.7361
 20
861.196
 11
-11.2031
 21
861.381
  0
LINE
  8
0
 10
-11.2031
 20
861.381
 11
-11.6433
 21
861.623
  0
LINE
  8
0
 10
-11.6433
 20
861.623
 11
-12.0497
 21
861.918
  0
LINE
  8
0
 10
-12.0497
 20
861.918
 11
-12.4159
 21
862.262
  0
LINE
  8
0
 10
-12.4159
 20
862.262
 11
-12.7361
 21
862.649
  0
LINE
  8
0
 10
-12.7361
 20
862.649
 11
-13.0052
 21
863.073
  0
LINE
  8
0
 10
-13.0052
 20
863.073
 11
-13.2191
 21
863.528
  0
LINE
  8
0
 10
-13.2191
 20
863.528
 11
-13.3743
 21
864.005
  0
LINE
  8
0
 10
-13.3743
 20
864.005
 11
-13.4684
 21
864.499
  0
LINE
  8
0
 10
-13.4684
 20
864.499
 11
-13.5
 21
865
  0
LINE
  8
0
 10
-13.5
 20
865
 11
-13.5
 21
959
  0
LINE
  8
0
 10
-13.5
 20
959
 11
-13.4684
 21
959.501
  0
LINE
  8
0
 10
-13.4684
 20
959.501
 11
-13.3743
 21
959.995
  0
LINE
  8
0
 10
-13.3743
 20
959.995
 11
-13.2191
 21
960.472
  0
LINE
  8
0
 10
-13.2191
 20
960.472
 11
-13.0052
 21
960.927
  0
LINE
  8
0
 10
-13.0052
 20
960.927
 11
-12.7361
 21
961.351
  0
LINE
  8
0
 10
-12.7361
 20
961.351
 11
-12.4159
 21
961.738
  0
LINE
  8
0
 10
-12.4159
 20
961.738
 11
-12.0497
 21
962.082
  0
LINE
  8
0
 10
-12.0497
 20
962.082
 11
-11.6433
 21
962.377
  0
LINE
  8
0
 10
-11.6433
 20
962.377
 11
-11.2031
 21
962.619
  0
LINE
  8
0
 10
-11.2031
 20
962.619
 11
-10.7361
 21
962.804
  0
LINE
  8
0
 10
-10.7361
 20
962.804
 11
-10.2495
 21
962.929
  0
LINE
  8
0
 10
-10.2495
 20
962.929
 11
-9.75116
 21
962.992
  0
LINE
  8
0
 10
-9.75116
 20
962.992
 11
9.75116
 21
962.992
  0
LINE
  8
0
 10
9.75116
 20
962.992
 11
10.2495
 21
962.929
  0
LINE
  8
0
 10
10.2495
 20
962.929
 11
10.7361
 21
962.804
  0
LINE
  8
0
 10
10.7361
 20
962.804
 11
11.2031
 21
962.619
  0
LINE
  8
0
 10
11.2031
 20
962.619
 11
11.6433
 21
962.377
  0
LINE
  8
0
 10
11.6433
 20
962.377
 11
12.0497
 21
962.082
  0
LINE
  8
0
 10
12.0497
 20
962.082
 11
12.4159
 21
961.738
  0
LINE
  8
0
 10
12.4159
 20
961.738
 11
12.7361
 21
961.351
  0
LINE
  8
0
 10
12.7361
 20
961.351
 11
13.0052
 21
960.927
  0
LINE
  8
0
 10
13.0052
 20
960.927
 11
13.2191
 21
960.472
  0
LINE
  8
0
 10
13.2191
 20
960.472
 11
13.3743
 21
959.995
  0
LINE
  8
0
 10
13.3743
 20
959.995
 11
13.4684
 21
959.501
  0
LINE
  8
0
 10
13.4684
 20
959.501
 11
13.5
 21
959
  0
LINE
  8
0
 10
13.5
 20
959
 11
13.5
 21
865
  0
LINE
  8
0
 10
13.5
 20
865
 11
13.4684
 21
864.499
  0
LINE
  8
0
 10
13.4684
 20
864.499
 11
13.3743
 21
864.005
  0
LINE
  8
0
 10
13.3743
 20
864.005
 11
13.2191
 21
863.528
  0
LINE
  8
0
 10
13.2191
 20
863.528
 11
13.0052
 21
863.073
  0
LINE
  8
0
 10
13.0052
 20
863.073
 11
12.7361
 21
862.649
  0
LINE
  8
0
 10
12.7361
 20
862.649
 11
12.4159
 21
862.262
  0
LINE
  8
0
 10
12.4159
 20
862.262
 11
12.0497
 21
861.918
  0
LINE
  8
0
 10
12.0497
 20
861.918
 11
11.6433
 21
861.623
  0
LINE
  8
0
 10
11.6433
 20
861.623
 11
11.2031
 21
861.381
  0
LINE
  8
0
 10
11.2031
 20
861.381
 11
10.7361
 21
861.196
  0
LINE
  8
0
 10
10.7361
 20
861.196
 11
10.2495
 21
861.071
  0
LINE
  8
0
 10
10.2495
 20
861.071
 11
9.75116
 21
861.008
  0
LINE
  8
0
 10
9.75116
 20
861.008
 11
-9.75116
 21
861.008
  0
LINE
  8
0
 10
10.9369
 20
745.589
 11
11.5451
 21
745.745
  0
LINE
  8
0
 10
11.5451
 20
745.745
 11
12.1289
 21
745.976
  0
LINE
  8
0
 10
12.1289
 20
745.976
 11
12.6791
 21
746.278
  0
LINE
  8
0
 10
12.6791
 20
746.278
 11
13.1871
 21
746.647
  0
LINE
  8
0
 10
13.1871
 20
746.647
 11
13.6448
 21
747.077
  0
LINE
  8
0
 10
13.6448
 20
747.077
 11
14.0451
 21
747.561
  0
LINE
  8
0
 10
14.0451
 20
747.561
 11
14.3815
 21
748.091
  0
LINE
  8
0
 10
14.3815
 20
748.091
 11
14.6489
 21
748.659
  0
LINE
  8
0
 10
14.6489
 20
748.659
 11
14.8429
 21
749.257
  0
LINE
  8
0
 10
14.8429
 20
749.257
 11
14.9606
 21
749.873
  0
LINE
  8
0
 10
14.9606
 20
749.873
 11
15
 21
750.5
  0
LINE
  8
0
 10
15
 20
750.5
 11
15
 21
845.5
  0
LINE
  8
0
 10
15
 20
845.5
 11
14.9606
 21
846.127
  0
LINE
  8
0
 10
14.9606
 20
846.127
 11
14.8429
 21
846.743
  0
LINE
  8
0
 10
14.8429
 20
846.743
 11
14.6489
 21
847.341
  0
LINE
  8
0
 10
14.6489
 20
847.341
 11
14.3815
 21
847.909
  0
LINE
  8
0
 10
14.3815
 20
847.909
 11
14.0451
 21
848.439
  0
LINE
  8
0
 10
14.0451
 20
848.439
 11
13.6448
 21
848.923
  0
LINE
  8
0
 10
13.6448
 20
848.923
 11
13.1871
 21
849.353
  0
LINE
  8
0
 10
13.1871
 20
849.353
 11
12.6791
 21
849.722
  0
LINE
  8
0
 10
12.6791
 20
849.722
 11
12.1289
 21
850.024
  0
LINE
  8
0
 10
12.1289
 20
850.024
 11
11.5451
 21
850.255
  0
LINE
  8
0
 10
11.5451
 20
850.255
 11
10.9369
 21
850.411
  0
LINE
  8
0
 10
10.9369
 20
850.411
 11
10.3139
 21
850.49
  0
LINE
  8
0
 10
10.3139
 20
850.49
 11
-10.3139
 21
850.49
  0
LINE
  8
0
 10
-10.3139
 20
850.49
 11
-10.9369
 21
850.411
  0
LINE
  8
0
 10
-10.9369
 20
850.411
 11
-11.5451
 21
850.255
  0
LINE
  8
0
 10
-11.5451
 20
850.255
 11
-12.1289
 21
850.024
  0
LINE
  8
0
 10
-12.1289
 20
850.024
 11
-12.6791
 21
849.722
  0
LINE
  8
0
 10
-12.6791
 20
849.722
 11
-13.1871
 21
849.353
  0
LINE
  8
0
 10
-13.1871
 20
849.353
 11
-13.6448
 21
848.923
  0
LINE
  8
0
 10
-13.6448
 20
848.923
 11
-14.0451
 21
848.439
  0
LINE
  8
0
 10
-14.0451
 20
848.439
 11
-14.3815
 21
847.909
  0
LINE
  8
0
 10
-14.3815
 20
847.909
 11
-14.6489
 21
847.341
  0
LINE
  8
0
 10
-14.6489
 20
847.341
 11
-14.8429
 21
846.743
  0
LINE
  8
0
 10
-14.8429
 20
846.743
 11
-14.9606
 21
846.127
  0
LINE
  8
0
 10
-14.9606
 20
846.127
 11
-15
 21
845.5
  0
LINE
  8
0
 10
-15
 20
845.5
 11
-15
 21
750.5
  0
LINE
  8
0
 10
-15
 20
750.5
 11
-14.9606
 21
749.873
  0
LINE
  8
0
 10
-14.9606
 20
749.873
 11
-14.8429
 21
749.257
  0
LINE
  8
0
 10
-14.8429
 20
749.257
 11
-14.6489
 21
748.659
  0
LINE
  8
0
 10
-14.6489
 20
748.659
 11
-14.3815
 21
748.091
  0
LINE
  8
0
 10
-14.3815
 20
748.091
 11
-14.0451
 21
747.561
  0
LINE
  8
0
 10
-14.0451
 20
747.561
 11
-13.6448
 21
747.077
  0
LINE
  8
0
 10
-13.6448
 20
747.077
 11
-13.1871
 21
746.647
  0
LINE
  8
0
 10
-13.1871
 20
746.647
 11
-12.6791
 21
746.278
  0
LINE
  8
0
 10
-12.6791
 20
746.278
 11
-12.1289
 21
745.976
  0
LINE
  8
0
 10
-12.1289
 20
745.976
 11
-11.5451
 21
745.745
  0
LINE
  8
0
 10
-11.5451
 20
745.745
 11
-10.9369
 21
745.589
  0
LINE
  8
0
 10
-10.9369
 20
745.589
 11
-10.3139
 21
745.51
  0
LINE
  8
0
 10
-10.3139
 20
745.51
 11
10.3139
 21
745.51
  0
LINE
  8
0
 10
10.3139
 20
745.51
 11
10.9369
 21
745.589
  0
LINE
  8
0
 10
-9.75116
 20
747.008
 11
-10.2495
 21
747.071
  0
LINE
  8
0
 10
-10.2495
 20
747.071
 11
-10.7361
 21
747.196
  0
LINE
  8
0
 10
-10.7361
 20
747.196
 11
-11.2031
 21
747.381
  0
LINE
  8
0
 10
-11.2031
 20
747.381
 11
-11.6433
 21
747.623
  0
LINE
  8
0
 10
-11.6433
 20
747.623
 11
-12.0497
 21
747.918
  0
LINE
  8
0
 10
-12.0497
 20
747.918
 11
-12.4159
 21
748.262
  0
LINE
  8
0
 10
-12.4159
 20
748.262
 11
-12.7361
 21
748.649
  0
LINE
  8
0
 10
-12.7361
 20
748.649
 11
-13.0052
 21
749.073
  0
LINE
  8
0
 10
-13.0052
 20
749.073
 11
-13.2191
 21
749.528
  0
LINE
  8
0
 10
-13.2191
 20
749.528
 11
-13.3743
 21
750.005
  0
LINE
  8
0
 10
-13.3743
 20
750.005
 11
-13.4684
 21
750.499
  0
LINE
  8
0
 10
-13.4684
 20
750.499
 11
-13.5
 21
751
  0
LINE
  8
0
 10
-13.5
 20
751
 11
-13.5
 21
845
  0
LINE
  8
0
 10
-13.5
 20
845
 11
-13.4684
 21
845.501
  0
LINE
  8
0
 10
-13.4684
 20
845.501
 11
-13.3743
 21
845.995
  0
LINE
  8
0
 10
-13.3743
 20
845.995
 11
-13.2191
 21
846.472
  0
LINE
  8
0
 10
-13.2191
 20
846.472
 11
-13.0052
 21
846.927
  0
LINE
  8
0
 10
-13.0052
 20
846.927
 11
-12.7361
 21
847.351
  0
LINE
  8
0
 10
-12.7361
 20
847.351
 11
-12.4159
 21
847.738
  0
LINE
  8
0
 10
-12.4159
 20
847.738
 11
-12.0497
 21
848.082
  0
LINE
  8
0
 10
-12.0497
 20
848.082
 11
-11.6433
 21
848.377
  0
LINE
  8
0
 10
-11.6433
 20
848.377
 11
-11.2031
 21
848.619
  0
LINE
  8
0
 10
-11.2031
 20
848.619
 11
-10.7361
 21
848.804
  0
LINE
  8
0
 10
-10.7361
 20
848.804
 11
-10.2495
 21
848.929
  0
LINE
  8
0
 10
-10.2495
 20
848.929
 11
-9.75116
 21
848.992
  0
LINE
  8
0
 10
-9.75116
 20
848.992
 11
9.75116
 21
848.992
  0
LINE
  8
0
 10
9.75116
 20
848.992
 11
10.2495
 21
848.929
  0
LINE
  8
0
 10
10.2495
 20
848.929
 11
10.7361
 21
848.804
  0
LINE
  8
0
 10
10.7361
 20
848.804
 11
11.2031
 21
848.619
  0
LINE
  8
0
 10
11.2031
 20
848.619
 11
11.6433
 21
848.377
  0
LINE
  8
0
 10
11.6433
 20
848.377
 11
12.0497
 21
848.082
  0
LINE
  8
0
 10
12.0497
 20
848.082
 11
12.4159
 21
847.738
  0
LINE
  8
0
 10
12.4159
 20
847.738
 11
12.7361
 21
847.351
  0
LINE
  8
0
 10
12.7361
 20
847.351
 11
13.0052
 21
846.927
  0
LINE
  8
0
 10
13.0052
 20
846.927
 11
13.2191
 21
846.472
  0
LINE
  8
0
 10
13.2191
 20
846.472
 11
13.3743
 21
845.995
  0
LINE
  8
0
 10
13.3743
 20
845.995
 11
13.4684
 21
845.501
  0
LINE
  8
0
 10
13.4684
 20
845.501
 11
13.5
 21
845
  0
LINE
  8
0
 10
13.5
 20
845
 11
13.5
 21
751
  0
LINE
  8
0
 10
13.5
 20
751
 11
13.4684
 21
750.499
  0
LINE
  8
0
 10
13.4684
 20
750.499
 11
13.3743
 21
750.005
  0
LINE
  8
0
 10
13.3743
 20
750.005
 11
13.2191
 21
749.528
  0
LINE
  8
0
 10
13.2191
 20
749.528
 11
13.0052
 21
749.073
  0
LINE
  8
0
 10
13.0052
 20
749.073
 11
12.7361
 21
748.649
  0
LINE
  8
0
 10
12.7361
 20
748.649
 11
12.4159
 21
748.262
  0
LINE
  8
0
 10
12.4159
 20
748.262
 11
12.0497
 21
747.918
  0
LINE
  8
0
 10
12.0497
 20
747.918
 11
11.6433
 21
747.623
  0
LINE
  8
0
 10
11.6433
 20
747.623
 11
11.2031
 21
747.381
  0
LINE
  8
0
 10
11.2031
 20
747.381
 11
10.7361
 21
747.196
  0
LINE
  8
0
 10
10.7361
 20
747.196
 11
10.2495
 21
747.071
  0
LINE
  8
0
 10
10.2495
 20
747.071
 11
9.75116
 21
747.008
  0
LINE
  8
0
 10
9.75116
 20
747.008
 11
-9.75116
 21
747.008
  0
LINE
  8
0
 10
10.9369
 20
631.589
 11
11.5451
 21
631.745
  0
LINE
  8
0
 10
11.5451
 20
631.745
 11
12.1289
 21
631.976
  0
LINE
  8
0
 10
12.1289
 20
631.976
 11
12.6791
 21
632.278
  0
LINE
  8
0
 10
12.6791
 20
632.278
 11
13.1871
 21
632.647
  0
LINE
  8
0
 10
13.1871
 20
632.647
 11
13.6448
 21
633.077
  0
LINE
  8
0
 10
13.6448
 20
633.077
 11
14.0451
 21
633.561
  0
LINE
  8
0
 10
14.0451
 20
633.561
 11
14.3815
 21
634.091
  0
LINE
  8
0
 10
14.3815
 20
634.091
 11
14.6489
 21
634.659
  0
LINE
  8
0
 10
14.6489
 20
634.659
 11
14.8429
 21
635.257
  0
LINE
  8
0
 10
14.8429
 20
635.257
 11
14.9606
 21
635.873
  0
LINE
  8
0
 10
14.9606
 20
635.873
 11
15
 21
636.5
  0
LINE
  8
0
 10
15
 20
636.5
 11
15
 21
731.5
  0
LINE
  8
0
 10
15
 20
731.5
 11
14.9606
 21
732.127
  0
LINE
  8
0
 10
14.9606
 20
732.127
 11
14.8429
 21
732.743
  0
LINE
  8
0
 10
14.8429
 20
732.743
 11
14.6489
 21
733.341
  0
LINE
  8
0
 10
14.6489
 20
733.341
 11
14.3815
 21
733.909
  0
LINE
  8
0
 10
14.3815
 20
733.909
 11
14.0451
 21
734.439
  0
LINE
  8
0
 10
14.0451
 20
734.439
 11
13.6448
 21
734.923
  0
LINE
  8
0
 10
13.6448
 20
734.923
 11
13.1871
 21
735.353
  0
LINE
  8
0
 10
13.1871
 20
735.353
 11
12.6791
 21
735.722
  0
LINE
  8
0
 10
12.6791
 20
735.722
 11
12.1289
 21
736.024
  0
LINE
  8
0
 10
12.1289
 20
736.024
 11
11.5451
 21
736.255
  0
LINE
  8
0
 10
11.5451
 20
736.255
 11
10.9369
 21
736.411
  0
LINE
  8
0
 10
10.9369
 20
736.411
 11
10.3139
 21
736.49
  0
LINE
  8
0
 10
10.3139
 20
736.49
 11
-10.3139
 21
736.49
  0
LINE
  8
0
 10
-10.3139
 20
736.49
 11
-10.9369
 21
736.411
  0
LINE
  8
0
 10
-10.9369
 20
736.411
 11
-11.5451
 21
736.255
  0
LINE
  8
0
 10
-11.5451
 20
736.255
 11
-12.1289
 21
736.024
  0
LINE
  8
0
 10
-12.1289
 20
736.024
 11
-12.6791
 21
735.722
  0
LINE
  8
0
 10
-12.6791
 20
735.722
 11
-13.1871
 21
735.353
  0
LINE
  8
0
 10
-13.1871
 20
735.353
 11
-13.6448
 21
734.923
  0
LINE
  8
0
 10
-13.6448
 20
734.923
 11
-14.0451
 21
734.439
  0
LINE
  8
0
 10
-14.0451
 20
734.439
 11
-14.3815
 21
733.909
  0
LINE
  8
0
 10
-14.3815
 20
733.909
 11
-14.6489
 21
733.341
  0
LINE
  8
0
 10
-14.6489
 20
733.341
 11
-14.8429
 21
732.743
  0
LINE
  8
0
 10
-14.8429
 20
732.743
 11
-14.9606
 21
732.127
  0
LINE
  8
0
 10
-14.9606
 20
732.127
 11
-15
 21
731.5
  0
LINE
  8
0
 10
-15
 20
731.5
 11
-15
 21
636.5
  0
LINE
  8
0
 10
-15
 20
636.5
 11
-14.9606
 21
635.873
  0
LINE
  8
0
 10
-14.9606
 20
635.873
 11
-14.8429
 21
635.257
  0
LINE
  8
0
 10
-14.8429
 20
635.257
 11
-14.6489
 21
634.659
  0
LINE
  8
0
 10
-14.6489
 20
634.659
 11
-14.3815
 21
634.091
  0
LINE
  8
0
 10
-14.3815
 20
634.091
 11
-14.0451
 21
633.561
  0
LINE
  8
0
 10
-14.0451
 20
633.561
 11
-13.6448
 21
633.077
  0
LINE
  8
0
 10
-13.6448
 20
633.077
 11
-13.1871
 21
632.647
  0
LINE
  8
0
 10
-13.1871
 20
632.647
 11
-12.6791
 21
632.278
  0
LINE
  8
0
 10
-12.6791
 20
632.278
 11
-12.1289
 21
631.976
  0
LINE
  8
0
 10
-12.1289
 20
631.976
 11
-11.5451
 21
631.745
  0
LINE
  8
0
 10
-11.5451
 20
631.745
 11
-10.9369
 21
631.589
  0
LINE
  8
0
 10
-10.9369
 20
631.589
 11
-10.3139
 21
631.51
  0
LINE
  8
0
 10
-10.3139
 20
631.51
 11
10.3139
 21
631.51
  0
LINE
  8
0
 10
10.3139
 20
631.51
 11
10.9369
 21
631.589
  0
LINE
  8
0
 10
-9.69545
 20
633.893
 11
-10.0833
 21
633.942
  0
LINE
  8
0
 10
-10.0833
 20
633.942
 11
-10.4619
 21
634.039
  0
LINE
  8
0
 10
-10.4619
 20
634.039
 11
-10.8254
 21
634.183
  0
LINE
  8
0
 10
-10.8254
 20
634.183
 11
-11.168
 21
634.372
  0
LINE
  8
0
 10
-11.168
 20
634.372
 11
-11.4842
 21
634.601
  0
LINE
  8
0
 10
-11.4842
 20
634.601
 11
-11.7692
 21
634.869
  0
LINE
  8
0
 10
-11.7692
 20
634.869
 11
-12.0184
 21
635.17
  0
LINE
  8
0
 10
-12.0184
 20
635.17
 11
-12.2279
 21
635.5
  0
LINE
  8
0
 10
-12.2279
 20
635.5
 11
-12.3943
 21
635.854
  0
LINE
  8
0
 10
-12.3943
 20
635.854
 11
-12.5151
 21
636.226
  0
LINE
  8
0
 10
-12.5151
 20
636.226
 11
-12.5884
 21
636.61
  0
LINE
  8
0
 10
-12.5884
 20
636.61
 11
-12.6129
 21
637
  0
LINE
  8
0
 10
-12.6129
 20
637
 11
-12.6129
 21
731
  0
LINE
  8
0
 10
-12.6129
 20
731
 11
-12.5884
 21
731.39
  0
LINE
  8
0
 10
-12.5884
 20
731.39
 11
-12.5151
 21
731.774
  0
LINE
  8
0
 10
-12.5151
 20
731.774
 11
-12.3943
 21
732.146
  0
LINE
  8
0
 10
-12.3943
 20
732.146
 11
-12.2279
 21
732.5
  0
LINE
  8
0
 10
-12.2279
 20
732.5
 11
-12.0184
 21
732.83
  0
LINE
  8
0
 10
-12.0184
 20
732.83
 11
-11.7692
 21
733.131
  0
LINE
  8
0
 10
-11.7692
 20
733.131
 11
-11.4842
 21
733.399
  0
LINE
  8
0
 10
-11.4842
 20
733.399
 11
-11.168
 21
733.628
  0
LINE
  8
0
 10
-11.168
 20
733.628
 11
-10.8254
 21
733.817
  0
LINE
  8
0
 10
-10.8254
 20
733.817
 11
-10.4619
 21
733.961
  0
LINE
  8
0
 10
-10.4619
 20
733.961
 11
-10.0833
 21
734.058
  0
LINE
  8
0
 10
-10.0833
 20
734.058
 11
-9.69545
 21
734.107
  0
LINE
  8
0
 10
-9.69545
 20
734.107
 11
9.69545
 21
734.107
  0
LINE
  8
0
 10
9.69545
 20
734.107
 11
10.0833
 21
734.058
  0
LINE
  8
0
 10
10.0833
 20
734.058
 11
10.4619
 21
733.961
  0
LINE
  8
0
 10
10.4619
 20
733.961
 11
10.8254
 21
733.817
  0
LINE
  8
0
 10
10.8254
 20
733.817
 11
11.168
 21
733.628
  0
LINE
  8
0
 10
11.168
 20
733.628
 11
11.4842
 21
733.399
  0
LINE
  8
0
 10
11.4842
 20
733.399
 11
11.7692
 21
733.131
  0
LINE
  8
0
 10
11.7692
 20
733.131
 11
12.0184
 21
732.83
  0
LINE
  8
0
 10
12.0184
 20
732.83
 11
12.2279
 21
732.5
  0
LINE
  8
0
 10
12.2279
 20
732.5
 11
12.3943
 21
732.146
  0
LINE
  8
0
 10
12.3943
 20
732.146
 11
12.5151
 21
731.774
  0
LINE
  8
0
 10
12.5151
 20
731.774
 11
12.5884
 21
731.39
  0
LINE
  8
0
 10
12.5884
 20
731.39
 11
12.6129
 21
731
  0
LINE
  8
0
 10
12.6129
 20
731
 11
12.6129
 21
637
  0
LINE
  8
0
 10
12.6129
 20
637
 11
12.5884
 21
636.61
  0
LINE
  8
0
 10
12.5884
 20
636.61
 11
12.5151
 21
636.226
  0
LINE
  8
0
 10
12.5151
 20
636.226
 11
12.3943
 21
635.854
  0
LINE
  8
0
 10
12.3943
 20
635.854
 11
12.2279
 21
635.5
  0
LINE
  8
0
 10
12.2279
 20
635.5
 11
12.0184
 21
635.17
  0
LINE
  8
0
 10
12.0184
 20
635.17
 11
11.7692
 21
634.869
  0
LINE
  8
0
 10
11.7692
 20
634.869
 11
11.4842
 21
634.601
  0
LINE
  8
0
 10
11.4842
 20
634.601
 11
11.168
 21
634.372
  0
LINE
  8
0
 10
11.168
 20
634.372
 11
10.8254
 21
634.183
  0
LINE
  8
0
 10
10.8254
 20
634.183
 11
10.4619
 21
634.039
  0
LINE
  8
0
 10
10.4619
 20
634.039
 11
10.0833
 21
633.942
  0
LINE
  8
0
 10
10.0833
 20
633.942
 11
9.69545
 21
633.893
  0
LINE
  8
0
 10
9.69545
 20
633.893
 11
-9.69545
 21
633.893
  0
LINE
  8
0
 10
10.9369
 20
517.589
 11
11.5451
 21
517.745
  0
LINE
  8
0
 10
11.5451
 20
517.745
 11
12.1289
 21
517.976
  0
LINE
  8
0
 10
12.1289
 20
517.976
 11
12.6791
 21
518.278
  0
LINE
  8
0
 10
12.6791
 20
518.278
 11
13.1871
 21
518.647
  0
LINE
  8
0
 10
13.1871
 20
518.647
 11
13.6448
 21
519.077
  0
LINE
  8
0
 10
13.6448
 20
519.077
 11
14.0451
 21
519.561
  0
LINE
  8
0
 10
14.0451
 20
519.561
 11
14.3815
 21
520.091
  0
LINE
  8
0
 10
14.3815
 20
520.091
 11
14.6489
 21
520.659
  0
LINE
  8
0
 10
14.6489
 20
520.659
 11
14.8429
 21
521.257
  0
LINE
  8
0
 10
14.8429
 20
521.257
 11
14.9606
 21
521.873
  0
LINE
  8
0
 10
14.9606
 20
521.873
 11
15
 21
522.5
  0
LINE
  8
0
 10
15
 20
522.5
 11
15
 21
617.5
  0
LINE
  8
0
 10
15
 20
617.5
 11
14.9606
 21
618.127
  0
LINE
  8
0
 10
14.9606
 20
618.127
 11
14.8429
 21
618.743
  0
LINE
  8
0
 10
14.8429
 20
618.743
 11
14.6489
 21
619.341
  0
LINE
  8
0
 10
14.6489
 20
619.341
 11
14.3815
 21
619.909
  0
LINE
  8
0
 10
14.3815
 20
619.909
 11
14.0451
 21
620.439
  0
LINE
  8
0
 10
14.0451
 20
620.439
 11
13.6448
 21
620.923
  0
LINE
  8
0
 10
13.6448
 20
620.923
 11
13.1871
 21
621.353
  0
LINE
  8
0
 10
13.1871
 20
621.353
 11
12.6791
 21
621.722
  0
LINE
  8
0
 10
12.6791
 20
621.722
 11
12.1289
 21
622.024
  0
LINE
  8
0
 10
12.1289
 20
622.024
 11
11.5451
 21
622.255
  0
LINE
  8
0
 10
11.5451
 20
622.255
 11
10.9369
 21
622.411
  0
LINE
  8
0
 10
10.9369
 20
622.411
 11
10.3139
 21
622.49
  0
LINE
  8
0
 10
10.3139
 20
622.49
 11
-10.3139
 21
622.49
  0
LINE
  8
0
 10
-10.3139
 20
622.49
 11
-10.9369
 21
622.411
  0
LINE
  8
0
 10
-10.9369
 20
622.411
 11
-11.5451
 21
622.255
  0
LINE
  8
0
 10
-11.5451
 20
622.255
 11
-12.1289
 21
622.024
  0
LINE
  8
0
 10
-12.1289
 20
622.024
 11
-12.6791
 21
621.722
  0
LINE
  8
0
 10
-12.6791
 20
621.722
 11
-13.1871
 21
621.353
  0
LINE
  8
0
 10
-13.1871
 20
621.353
 11
-13.6448
 21
620.923
  0
LINE
  8
0
 10
-13.6448
 20
620.923
 11
-14.0451
 21
620.439
  0
LINE
  8
0
 10
-14.0451
 20
620.439
 11
-14.3815
 21
619.909
  0
LINE
  8
0
 10
-14.3815
 20
619.909
 11
-14.6489
 21
619.341
  0
LINE
  8
0
 10
-14.6489
 20
619.341
 11
-14.8429
 21
618.743
  0
LINE
  8
0
 10
-14.8429
 20
618.743
 11
-14.9606
 21
618.127
  0
LINE
  8
0
 10
-14.9606
 20
618.127
 11
-15
 21
617.5
  0
LINE
  8
0
 10
-15
 20
617.5
 11
-15
 21
522.5
  0
LINE
  8
0
 10
-15
 20
522.5
 11
-14.9606
 21
521.873
  0
LINE
  8
0
 10
-14.9606
 20
521.873
 11
-14.8429
 21
521.257
  0
LINE
  8
0
 10
-14.8429
 20
521.257
 11
-14.6489
 21
520.659
  0
LINE
  8
0
 10
-14.6489
 20
520.659
 11
-14.3815
 21
520.091
  0
LINE
  8
0
 10
-14.3815
 20
520.091
 11
-14.0451
 21
519.561
  0
LINE
  8
0
 10
-14.0451
 20
519.561
 11
-13.6448
 21
519.077
  0
LINE
  8
0
 10
-13.6448
 20
519.077
 11
-13.1871
 21
518.647
  0
LINE
  8
0
 10
-13.1871
 20
518.647
 11
-12.6791
 21
518.278
  0
LINE
  8
0
 10
-12.6791
 20
518.278
 11
-12.1289
 21
517.976
  0
LINE
  8
0
 10
-12.1289
 20
517.976
 11
-11.5451
 21
517.745
  0
LINE
  8
0
 10
-11.5451
 20
517.745
 11
-10.9369
 21
517.589
  0
LINE
  8
0
 10
-10.9369
 20
517.589
 11
-10.3139
 21
517.51
  0
LINE
  8
0
 10
-10.3139
 20
517.51
 11
10.3139
 21
517.51
  0
LINE
  8
0
 10
10.3139
 20
517.51
 11
10.9369
 21
517.589
  0
LINE
  8
0
 10
7.36592
 20
612.869
 11
7.09988
 21
612.903
  0
LINE
  8
0
 10
7.09988
 20
612.903
 11
6.84015
 21
612.969
  0
LINE
  8
0
 10
6.84015
 20
612.969
 11
6.59084
 21
613.068
  0
LINE
  8
0
 10
6.59084
 20
613.068
 11
6.35585
 21
613.197
  0
LINE
  8
0
 10
6.35585
 20
613.197
 11
6.1389
 21
613.355
  0
LINE
  8
0
 10
6.1389
 20
613.355
 11
5.94344
 21
613.538
  0
LINE
  8
0
 10
5.94344
 20
613.538
 11
5.77251
 21
613.745
  0
LINE
  8
0
 10
5.77251
 20
613.745
 11
5.62881
 21
613.971
  0
LINE
  8
0
 10
5.62881
 20
613.971
 11
5.51465
 21
614.214
  0
LINE
  8
0
 10
5.51465
 20
614.214
 11
5.43178
 21
614.469
  0
LINE
  8
0
 10
5.43178
 20
614.469
 11
5.38153
 21
614.732
  0
LINE
  8
0
 10
5.38153
 20
614.732
 11
5.3647
 21
615
  0
LINE
  8
0
 10
5.3647
 20
615
 11
5.38153
 21
615.268
  0
LINE
  8
0
 10
5.38153
 20
615.268
 11
5.43178
 21
615.531
  0
LINE
  8
0
 10
5.43178
 20
615.531
 11
5.51465
 21
615.786
  0
LINE
  8
0
 10
5.51465
 20
615.786
 11
5.62881
 21
616.029
  0
LINE
  8
0
 10
5.62881
 20
616.029
 11
5.77251
 21
616.255
  0
LINE
  8
0
 10
5.77251
 20
616.255
 11
5.94344
 21
616.462
  0
LINE
  8
0
 10
5.94344
 20
616.462
 11
6.1389
 21
616.645
  0
LINE
  8
0
 10
6.1389
 20
616.645
 11
6.35585
 21
616.803
  0
LINE
  8
0
 10
6.35585
 20
616.803
 11
6.59084
 21
616.932
  0
LINE
  8
0
 10
6.59084
 20
616.932
 11
6.84015
 21
617.031
  0
LINE
  8
0
 10
6.84015
 20
617.031
 11
7.09988
 21
617.097
  0
LINE
  8
0
 10
7.09988
 20
617.097
 11
7.36592
 21
617.131
  0
LINE
  8
0
 10
7.36592
 20
617.131
 11
7.63406
 21
617.131
  0
LINE
  8
0
 10
7.63406
 20
617.131
 11
7.9001
 21
617.097
  0
LINE
  8
0
 10
7.9001
 20
617.097
 11
8.15984
 21
617.031
  0
LINE
  8
0
 10
8.15984
 20
617.031
 11
8.40915
 21
616.932
  0
LINE
  8
0
 10
8.40915
 20
616.932
 11
8.64413
 21
616.803
  0
LINE
  8
0
 10
8.64413
 20
616.803
 11
8.86108
 21
616.645
  0
LINE
  8
0
 10
8.86108
 20
616.645
 11
9.05655
 21
616.462
  0
LINE
  8
0
 10
9.05655
 20
616.462
 11
9.22748
 21
616.255
  0
LINE
  8
0
 10
9.22748
 20
616.255
 11
9.37117
 21
616.029
  0
LINE
  8
0
 10
9.37117
 20
616.029
 11
9.48534
 21
615.786
  0
LINE
  8
0
 10
9.48534
 20
615.786
 11
9.56821
 21
615.531
  0
LINE
  8
0
 10
9.56821
 20
615.531
 11
9.61845
 21
615.268
  0
LINE
  8
0
 10
9.61845
 20
615.268
 11
9.63528
 21
615
  0
LINE
  8
0
 10
9.63528
 20
615
 11
9.61845
 21
614.732
  0
LINE
  8
0
 10
9.61845
 20
614.732
 11
9.56821
 21
614.469
  0
LINE
  8
0
 10
9.56821
 20
614.469
 11
9.48534
 21
614.214
  0
LINE
  8
0
 10
9.48534
 20
614.214
 11
9.37117
 21
613.971
  0
LINE
  8
0
 10
9.37117
 20
613.971
 11
9.22748
 21
613.745
  0
LINE
  8
0
 10
9.22748
 20
613.745
 11
9.05655
 21
613.538
  0
LINE
  8
0
 10
9.05655
 20
613.538
 11
8.86108
 21
613.355
  0
LINE
  8
0
 10
8.86108
 20
613.355
 11
8.64413
 21
613.197
  0
LINE
  8
0
 10
8.64413
 20
613.197
 11
8.40915
 21
613.068
  0
LINE
  8
0
 10
8.40915
 20
613.068
 11
8.15984
 21
612.969
  0
LINE
  8
0
 10
8.15984
 20
612.969
 11
7.9001
 21
612.903
  0
LINE
  8
0
 10
7.9001
 20
612.903
 11
7.63406
 21
612.869
  0
LINE
  8
0
 10
7.63406
 20
612.869
 11
7.36592
 21
612.869
  0
LINE
  8
0
 10
-7.63406
 20
612.869
 11
-7.9001
 21
612.903
  0
LINE
  8
0
 10
-7.9001
 20
612.903
 11
-8.15984
 21
612.969
  0
LINE
  8
0
 10
-8.15984
 20
612.969
 11
-8.40915
 21
613.068
  0
LINE
  8
0
 10
-8.40915
 20
613.068
 11
-8.64413
 21
613.197
  0
LINE
  8
0
 10
-8.64413
 20
613.197
 11
-8.86108
 21
613.355
  0
LINE
  8
0
 10
-8.86108
 20
613.355
 11
-9.05655
 21
613.538
  0
LINE
  8
0
 10
-9.05655
 20
613.538
 11
-9.22748
 21
613.745
  0
LINE
  8
0
 10
-9.22748
 20
613.745
 11
-9.37117
 21
613.971
  0
LINE
  8
0
 10
-9.37117
 20
613.971
 11
-9.48534
 21
614.214
  0
LINE
  8
0
 10
-9.48534
 20
614.214
 11
-9.56821
 21
614.469
  0
LINE
  8
0
 10
-9.56821
 20
614.469
 11
-9.61845
 21
614.732
  0
LINE
  8
0
 10
-9.61845
 20
614.732
 11
-9.63528
 21
615
  0
LINE
  8
0
 10
-9.63528
 20
615
 11
-9.61845
 21
615.268
  0
LINE
  8
0
 10
-9.61845
 20
615.268
 11
-9.56821
 21
615.531
  0
LINE
  8
0
 10
-9.56821
 20
615.531
 11
-9.48534
 21
615.786
  0
LINE
  8
0
 10
-9.48534
 20
615.786
 11
-9.37117
 21
616.029
  0
LINE
  8
0
 10
-9.37117
 20
616.029
 11
-9.22748
 21
616.255
  0
LINE
  8
0
 10
-9.22748
 20
616.255
 11
-9.05655
 21
616.462
  0
LINE
  8
0
 10
-9.05655
 20
616.462
 11
-8.86108
 21
616.645
  0
LINE
  8
0
 10
-8.86108
 20
616.645
 11
-8.64413
 21
616.803
  0
LINE
  8
0
 10
-8.64413
 20
616.803
 11
-8.40915
 21
616.932
  0
LINE
  8
0
 10
-8.40915
 20
616.932
 11
-8.15984
 21
617.031
  0
LINE
  8
0
 10
-8.15984
 20
617.031
 11
-7.9001
 21
617.097
  0
LINE
  8
0
 10
-7.9001
 20
617.097
 11
-7.63406
 21
617.131
  0
LINE
  8
0
 10
-7.63406
 20
617.131
 11
-7.36592
 21
617.131
  0
LINE
  8
0
 10
-7.36592
 20
617.131
 11
-7.09988
 21
617.097
  0
LINE
  8
0
 10
-7.09988
 20
617.097
 11
-6.84015
 21
617.031
  0
LINE
  8
0
 10
-6.84015
 20
617.031
 11
-6.59084
 21
616.932
  0
LINE
  8
0
 10
-6.59084
 20
616.932
 11
-6.35585
 21
616.803
  0
LINE
  8
0
 10
-6.35585
 20
616.803
 11
-6.1389
 21
616.645
  0
LINE
  8
0
 10
-6.1389
 20
616.645
 11
-5.94344
 21
616.462
  0
LINE
  8
0
 10
-5.94344
 20
616.462
 11
-5.77251
 21
616.255
  0
LINE
  8
0
 10
-5.77251
 20
616.255
 11
-5.62881
 21
616.029
  0
LINE
  8
0
 10
-5.62881
 20
616.029
 11
-5.51465
 21
615.786
  0
LINE
  8
0
 10
-5.51465
 20
615.786
 11
-5.43178
 21
615.531
  0
LINE
  8
0
 10
-5.43178
 20
615.531
 11
-5.38153
 21
615.268
  0
LINE
  8
0
 10
-5.38153
 20
615.268
 11
-5.3647
 21
615
  0
LINE
  8
0
 10
-5.3647
 20
615
 11
-5.38153
 21
614.732
  0
LINE
  8
0
 10
-5.38153
 20
614.732
 11
-5.43178
 21
614.469
  0
LINE
  8
0
 10
-5.43178
 20
614.469
 11
-5.51465
 21
614.214
  0
LINE
  8
0
 10
-5.51465
 20
614.214
 11
-5.62881
 21
613.971
  0
LINE
  8
0
 10
-5.62881
 20
613.971
 11
-5.77251
 21
613.745
  0
LINE
  8
0
 10
-5.77251
 20
613.745
 11
-5.94344
 21
613.538
  0
LINE
  8
0
 10
-5.94344
 20
613.538
 11
-6.1389
 21
613.355
  0
LINE
  8
0
 10
-6.1389
 20
613.355
 11
-6.35585
 21
613.197
  0
LINE
  8
0
 10
-6.35585
 20
613.197
 11
-6.59084
 21
613.068
  0
LINE
  8
0
 10
-6.59084
 20
613.068
 11
-6.84015
 21
612.969
  0
LINE
  8
0
 10
-6.84015
 20
612.969
 11
-7.09988
 21
612.903
  0
LINE
  8
0
 10
-7.09988
 20
612.903
 11
-7.36592
 21
612.869
  0
LINE
  8
0
 10
-7.36592
 20
612.869
 11
-7.63406
 21
612.869
  0
LINE
  8
0
 10
7.36592
 20
522.869
 11
7.09988
 21
522.903
  0
LINE
  8
0
 10
7.09988
 20
522.903
 11
6.84015
 21
522.969
  0
LINE
  8
0
 10
6.84015
 20
522.969
 11
6.59084
 21
523.068
  0
LINE
  8
0
 10
6.59084
 20
523.068
 11
6.35585
 21
523.197
  0
LINE
  8
0
 10
6.35585
 20
523.197
 11
6.1389
 21
523.355
  0
LINE
  8
0
 10
6.1389
 20
523.355
 11
5.94344
 21
523.538
  0
LINE
  8
0
 10
5.94344
 20
523.538
 11
5.77251
 21
523.745
  0
LINE
  8
0
 10
5.77251
 20
523.745
 11
5.62881
 21
523.971
  0
LINE
  8
0
 10
5.62881
 20
523.971
 11
5.51465
 21
524.214
  0
LINE
  8
0
 10
5.51465
 20
524.214
 11
5.43178
 21
524.469
  0
LINE
  8
0
 10
5.43178
 20
524.469
 11
5.38153
 21
524.732
  0
LINE
  8
0
 10
5.38153
 20
524.732
 11
5.3647
 21
525
  0
LINE
  8
0
 10
5.3647
 20
525
 11
5.38153
 21
525.268
  0
LINE
  8
0
 10
5.38153
 20
525.268
 11
5.43178
 21
525.531
  0
LINE
  8
0
 10
5.43178
 20
525.531
 11
5.51465
 21
525.786
  0
LINE
  8
0
 10
5.51465
 20
525.786
 11
5.62881
 21
526.029
  0
LINE
  8
0
 10
5.62881
 20
526.029
 11
5.77251
 21
526.255
  0
LINE
  8
0
 10
5.77251
 20
526.255
 11
5.94344
 21
526.462
  0
LINE
  8
0
 10
5.94344
 20
526.462
 11
6.1389
 21
526.645
  0
LINE
  8
0
 10
6.1389
 20
526.645
 11
6.35585
 21
526.803
  0
LINE
  8
0
 10
6.35585
 20
526.803
 11
6.59084
 21
526.932
  0
LINE
  8
0
 10
6.59084
 20
526.932
 11
6.84015
 21
527.031
  0
LINE
  8
0
 10
6.84015
 20
527.031
 11
7.09988
 21
527.097
  0
LINE
  8
0
 10
7.09988
 20
527.097
 11
7.36592
 21
527.131
  0
LINE
  8
0
 10
7.36592
 20
527.131
 11
7.63406
 21
527.131
  0
LINE
  8
0
 10
7.63406
 20
527.131
 11
7.9001
 21
527.097
  0
LINE
  8
0
 10
7.9001
 20
527.097
 11
8.15984
 21
527.031
  0
LINE
  8
0
 10
8.15984
 20
527.031
 11
8.40915
 21
526.932
  0
LINE
  8
0
 10
8.40915
 20
526.932
 11
8.64413
 21
526.803
  0
LINE
  8
0
 10
8.64413
 20
526.803
 11
8.86108
 21
526.645
  0
LINE
  8
0
 10
8.86108
 20
526.645
 11
9.05655
 21
526.462
  0
LINE
  8
0
 10
9.05655
 20
526.462
 11
9.22748
 21
526.255
  0
LINE
  8
0
 10
9.22748
 20
526.255
 11
9.37117
 21
526.029
  0
LINE
  8
0
 10
9.37117
 20
526.029
 11
9.48534
 21
525.786
  0
LINE
  8
0
 10
9.48534
 20
525.786
 11
9.56821
 21
525.531
  0
LINE
  8
0
 10
9.56821
 20
525.531
 11
9.61845
 21
525.268
  0
LINE
  8
0
 10
9.61845
 20
525.268
 11
9.63528
 21
525
  0
LINE
  8
0
 10
9.63528
 20
525
 11
9.61845
 21
524.732
  0
LINE
  8
0
 10
9.61845
 20
524.732
 11
9.56821
 21
524.469
  0
LINE
  8
0
 10
9.56821
 20
524.469
 11
9.48534
 21
524.214
  0
LINE
  8
0
 10
9.48534
 20
524.214
 11
9.37117
 21
523.971
  0
LINE
  8
0
 10
9.37117
 20
523.971
 11
9.22748
 21
523.745
  0
LINE
  8
0
 10
9.22748
 20
523.745
 11
9.05655
 21
523.538
  0
LINE
  8
0
 10
9.05655
 20
523.538
 11
8.86108
 21
523.355
  0
LINE
  8
0
 10
8.86108
 20
523.355
 11
8.64413
 21
523.197
  0
LINE
  8
0
 10
8.64413
 20
523.197
 11
8.40915
 21
523.068
  0
LINE
  8
0
 10
8.40915
 20
523.068
 11
8.15984
 21
522.969
  0
LINE
  8
0
 10
8.15984
 20
522.969
 11
7.9001
 21
522.903
  0
LINE
  8
0
 10
7.9001
 20
522.903
 11
7.63406
 21
522.869
  0
LINE
  8
0
 10
7.63406
 20
522.869
 11
7.36592
 21
522.869
  0
LINE
  8
0
 10
-7.63406
 20
522.869
 11
-7.9001
 21
522.903
  0
LINE
  8
0
 10
-7.9001
 20
522.903
 11
-8.15984
 21
522.969
  0
LINE
  8
0
 10
-8.15984
 20
522.969
 11
-8.40915
 21
523.068
  0
LINE
  8
0
 10
-8.40915
 20
523.068
 11
-8.64413
 21
523.197
  0
LINE
  8
0
 10
-8.64413
 20
523.197
 11
-8.86108
 21
523.355
  0
LINE
  8
0
 10
-8.86108
 20
523.355
 11
-9.05655
 21
523.538
  0
LINE
  8
0
 10
-9.05655
 20
523.538
 11
-9.22748
 21
523.745
  0
LINE
  8
0
 10
-9.22748
 20
523.745
 11
-9.37117
 21
523.971
  0
LINE
  8
0
 10
-9.37117
 20
523.971
 11
-9.48534
 21
524.214
  0
LINE
  8
0
 10
-9.48534
 20
524.214
 11
-9.56821
 21
524.469
  0
LINE
  8
0
 10
-9.56821
 20
524.469
 11
-9.61845
 21
524.732
  0
LINE
  8
0
 10
-9.61845
 20
524.732
 11
-9.63528
 21
525
  0
LINE
  8
0
 10
-9.63528
 20
525
 11
-9.61845
 21
525.268
  0
LINE
  8
0
 10
-9.61845
 20
525.268
 11
-9.56821
 21
525.531
  0
LINE
  8
0
 10
-9.56821
 20
525.531
 11
-9.48534
 21
525.786
  0
LINE
  8
0
 10
-9.48534
 20
525.786
 11
-9.37117
 21
526.029
  0
LINE
  8
0
 10
-9.37117
 20
526.029
 11
-9.22748
 21
526.255
  0
LINE
  8
0
 10
-9.22748
 20
526.255
 11
-9.05655
 21
526.462
  0
LINE
  8
0
 10
-9.05655
 20
526.462
 11
-8.86108
 21
526.645
  0
LINE
  8
0
 10
-8.86108
 20
526.645
 11
-8.64413
 21
526.803
  0
LINE
  8
0
 10
-8.64413
 20
526.803
 11
-8.40915
 21
526.932
  0
LINE
  8
0
 10
-8.40915
 20
526.932
 11
-8.15984
 21
527.031
  0
LINE
  8
0
 10
-8.15984
 20
527.031
 11
-7.9001
 21
527.097
  0
LINE
  8
0
 10
-7.9001
 20
527.097
 11
-7.63406
 21
527.131
  0
LINE
  8
0
 10
-7.63406
 20
527.131
 11
-7.36592
 21
527.131
  0
LINE
  8
0
 10
-7.36592
 20
527.131
 11
-7.09988
 21
527.097
  0
LINE
  8
0
 10
-7.09988
 20
527.097
 11
-6.84015
 21
527.031
  0
LINE
  8
0
 10
-6.84015
 20
527.031
 11
-6.59084
 21
526.932
  0
LINE
  8
0
 10
-6.59084
 20
526.932
 11
-6.35585
 21
526.803
  0
LINE
  8
0
 10
-6.35585
 20
526.803
 11
-6.1389
 21
526.645
  0
LINE
  8
0
 10
-6.1389
 20
526.645
 11
-5.94344
 21
526.462
  0
LINE
  8
0
 10
-5.94344
 20
526.462
 11
-5.77251
 21
526.255
  0
LINE
  8
0
 10
-5.77251
 20
526.255
 11
-5.62881
 21
526.029
  0
LINE
  8
0
 10
-5.62881
 20
526.029
 11
-5.51465
 21
525.786
  0
LINE
  8
0
 10
-5.51465
 20
525.786
 11
-5.43178
 21
525.531
  0
LINE
  8
0
 10
-5.43178
 20
525.531
 11
-5.38153
 21
525.268
  0
LINE
  8
0
 10
-5.38153
 20
525.268
 11
-5.3647
 21
525
  0
LINE
  8
0
 10
-5.3647
 20
525
 11
-5.38153
 21
524.732
  0
LINE
  8
0
 10
-5.38153
 20
524.732
 11
-5.43178
 21
524.469
  0
LINE
  8
0
 10
-5.43178
 20
524.469
 11
-5.51465
 21
524.214
  0
LINE
  8
0
 10
-5.51465
 20
524.214
 11
-5.62881
 21
523.971
  0
LINE
  8
0
 10
-5.62881
 20
523.971
 11
-5.77251
 21
523.745
  0
LINE
  8
0
 10
-5.77251
 20
523.745
 11
-5.94344
 21
523.538
  0
LINE
  8
0
 10
-5.94344
 20
523.538
 11
-6.1389
 21
523.355
  0
LINE
  8
0
 10
-6.1389
 20
523.355
 11
-6.35585
 21
523.197
  0
LINE
  8
0
 10
-6.35585
 20
523.197
 11
-6.59084
 21
523.068
  0
LINE
  8
0
 10
-6.59084
 20
523.068
 11
-6.84015
 21
522.969
  0
LINE
  8
0
 10
-6.84015
 20
522.969
 11
-7.09988
 21
522.903
  0
LINE
  8
0
 10
-7.09988
 20
522.903
 11
-7.36592
 21
522.869
  0
LINE
  8
0
 10
-7.36592
 20
522.869
 11
-7.63406
 21
522.869
  0
ENDSEC
  0
SECTION
  2
OBJECTS
  0
DICTIONARY
  0
ENDSEC
  0
EOF
