<?xml version="1.0" standalone="no"?>
<!DOCTYPE svg PUBLIC "-//W3C//DTD SVG 1.1//EN" "http://www.w3.org/Graphics/SVG/1.1/DTD/svg11.dtd">
<svg width="30mm" height="562mm" viewBox="-15 -1079 30 562" xmlns="http://www.w3.org/2000/svg" version="1.1">
<title>OpenSCAD Model</title>
<path d="
M 10.9369,-973.589 L 11.5451,-973.745 L 12.1289,-973.976 L 12.6791,-974.278 L 13.1871,-974.647 L 13.6448,-975.077
 L 14.0451,-975.561 L 14.3815,-976.091 L 14.6489,-976.659 L 14.8429,-977.257 L 14.9606,-977.873 L 15,-978.5
 L 15,-1073.5 L 14.9606,-1074.13 L 14.8429,-1074.74 L 14.6489,-1075.34 L 14.3815,-1075.91 L 14.0451,-1076.44
 L 13.6448,-1076.92 L 13.1871,-1077.35 L 12.6791,-1077.72 L 12.1289,-1078.02 L 11.5451,-1078.26 L 10.9369,-1078.41
 L 10.3139,-1078.49 L -10.3139,-1078.49 L -10.9369,-1078.41 L -11.5451,-1078.26 L -12.1289,-1078.02 L -12.6791,-1077.72
 L -13.1871,-1077.35 L -13.6448,-1076.92 L -14.0451,-1076.44 L -14.3815,-1075.91 L -14.6489,-1075.34 L -14.8429,-1074.74
 L -14.9606,-1074.13 L -15,-1073.5 L -15,-978.5 L -14.9606,-977.873 L -14.8429,-977.257 L -14.6489,-976.659
 L -14.3815,-976.091 L -14.0451,-975.561 L -13.6448,-975.077 L -13.1871,-974.647 L -12.6791,-974.278 L -12.1289,-973.976
 L -11.5451,-973.745 L -10.9369,-973.589 L -10.3139,-973.51 L 10.3139,-973.51 z
M -9.75116,-975.008 L -10.2495,-975.071 L -10.7361,-975.196 L -11.2031,-975.381 L -11.6433,-975.623 L -12.0497,-975.918
 L -12.4159,-976.262 L -12.7361,-976.649 L -13.0052,-977.073 L -13.2191,-977.528 L -13.3743,-978.005 L -13.4684,-978.499
 L -13.5,-979 L -13.5,-1073 L -13.4684,-1073.5 L -13.3743,-1073.99 L -13.2191,-1074.47 L -13.0052,-1074.93
 L -12.7361,-1075.35 L -12.4159,-1075.74 L -12.0497,-1076.08 L -11.6433,-1076.38 L -11.2031,-1076.62 L -10.7361,-1076.8
 L -10.2495,-1076.93 L -9.75116,-1076.99 L 9.75116,-1076.99 L 10.2495,-1076.93 L 10.7361,-1076.8 L 11.2031,-1076.62
 L 11.6433,-1076.38 L 12.0497,-1076.08 L 12.4159,-1075.74 L 12.7361,-1075.35 L 13.0052,-1074.93 L 13.2191,-1074.47
 L 13.3743,-1073.99 L 13.4684,-1073.5 L 13.5,-1073 L 13.5,-979 L 13.4684,-978.499 L 13.3743,-978.005
 L 13.2191,-977.528 L 13.0052,-977.073 L 12.7361,-976.649 L 12.4159,-976.262 L 12.0497,-975.918 L 11.6433,-975.623
 L 11.2031,-975.381 L 10.7361,-975.196 L 10.2495,-975.071 L 9.75116,-975.008 z
M 10.9369,-859.589 L 11.5451,-859.745 L 12.1289,-859.976 L 12.6791,-860.278 L 13.1871,-860.647 L 13.6448,-861.077
 L 14.0451,-861.561 L 14.3815,-862.091 L 14.6489,-862.659 L 14.8429,-863.257 L 14.9606,-863.873 L 15,-864.5
 L 15,-959.5 L 14.9606,-960.127 L 14.8429,-960.743 L 14.6489,-961.341 L 14.3815,-961.909 L 14.0451,-962.439
 L 13.6448,-962.923 L 13.1871,-963.353 L 12.6791,-963.722 L 12.1289,-964.024 L 11.5451,-964.255 L 10.9369,-964.411
 L 10.3139,-964.49 L -10.3139,-964.49 L -10.9369,-964.411 L -11.5451,-964.255 L -12.1289,-964.024 L -12.6791,-963.722
 L -13.1871,-963.353 L -13.6448,-962.923 L -14.0451,-962.439 L -14.3815,-961.909 L -14.6489,-961.341 L -14.8429,-960.743
 L -14.9606,-960.127 L -15,-959.5 L -15,-864.5 L -14.9606,-863.873 L -14.8429,-863.257 L -14.6489,-862.659
 L -14.3815,-862.091 L -14.0451,-861.561 L -13.6448,-861.077 L -13.1871,-860.647 L -12.6791,-860.278 L -12.1289,-859.976
 L -11.5451,-859.745 L -10.9369,-859.589 L -10.3139,-859.51 L 10.3139,-859.51 z
M -9.75116,-861.008 L -10.2495,-861.071 L -10.7361,-861.196 L -11.2031,-861.381 L -11.6433,-861.623 L -12.0497,-861.918
 L -12.4159,-862.262 L -12.7361,-862.649 L -13.0052,-863.073 L -13.2191,-863.528 L -13.3743,-864.005 L -13.4684,-864.499
 L -13.5,-865 L -13.5,-959 L -13.4684,-959.501 L -13.3743,-959.995 L -13.2191,-960.472 L -13.0052,-960.927
 L -12.7361,-961.351 L -12.4159,-961.738 L -12.0497,-962.082 L -11.6433,-962.377 L -11.2031,-962.619 L -10.7361,-962.804
 L -10.2495,-962.929 L -9.75116,-962.992 L 9.75116,-962.992 L 10.2495,-962.929 L 10.7361,-962.804 L 11.2031,-962.619
 L 11.6433,-962.377 L 12.0497,-962.082 L 12.4159,-961.738 L 12.7361,-961.351 L 13.0052,-960.927 L 13.2191,-960.472
 L 13.3743,-959.995 L 13.4684,-959.501 L 13.5,-959 L 13.5,-865 L 13.4684,-864.499 L 13.3743,-864.005
 L 13.2191,-863.528 L 13.0052,-863.073 L 12.7361,-862.649 L 12.4159,-862.262 L 12.0497,-861.918 L 11.6433,-861.623
 L 11.2031,-861.381 L 10.7361,-861.196 L 10.2495,-861.071 L 9.75116,-861.008 z
M 10.9369,-745.589 L 11.5451,-745.745 L 12.1289,-745.976 L 12.6791,-746.278 L 13.1871,-746.647 L 13.6448,-747.077
 L 14.0451,-747.561 L 14.3815,-748.091 L 14.6489,-748.659 L 14.8429,-749.257 L 14.9606,-749.873 L 15,-750.5
 L 15,-845.5 L 14.9606,-846.127 L 14.8429,-846.743 L 14.6489,-847.341 L 14.3815,-847.909 L 14.0451,-848.439
 L 13.6448,-848.923 L 13.1871,-849.353 L 12.6791,-849.722 L 12.1289,-850.024 L 11.5451,-850.255 L 10.9369,-850.411
 L 10.3139,-850.49 L -10.3139,-850.49 L -10.9369,-850.411 L -11.5451,-850.255 L -12.1289,-850.024 L -12.6791,-849.722
 L -13.1871,-849.353 L -13.6448,-848.923 L -14.0451,-848.439 L -14.3815,-847.909 L -14.6489,-847.341 L -14.8429,-846.743
 L -14.9606,-846.127 L -15,-845.5 L -15,-750.5 L -14.9606,-749.873 L -14.8429,-749.257 L -14.6489,-748.659
 L -14.3815,-748.091 L -14.0451,-747.561 L -13.6448,-747.077 L -13.1871,-746.647 L -12.6791,-746.278 L -12.1289,-745.976
 L -11.5451,-745.745 L -10.9369,-745.589 L -10.3139,-745.51 L 10.3139,-745.51 z
M -9.75116,-747.008 L -10.2495,-747.071 L -10.7361,-747.196 L -11.2031,-747.381 L -11.6433,-747.623 L -12.0497,-747.918
 L -12.4159,-748.262 L -12.7361,-748.649 L -13.0052,-749.073 L -13.2191,-749.528 L -13.3743,-750.005 L -13.4684,-750.499
 L -13.5,-751 L -13.5,-845 L -13.4684,-845.501 L -13.3743,-845.995 L -13.2191,-846.472 L -13.0052,-846.927
 L -12.7361,-847.351 L -12.4159,-847.738 L -12.0497,-848.082 L -11.6433,-848.377 L -11.2031,-848.619 L -10.7361,-848.804
 L -10.2495,-848.929 L -9.75116,-848.992 L 9.75116,-848.992 L 10.2495,-848.929 L 10.7361,-848.804 L 11.2031,-848.619
 L 11.6433,-848.377 L 12.0497,-848.082 L 12.4159,-847.738 L 12.7361,-847.351 L 13.0052,-846.927 L 13.2191,-846.472
 L 13.3743,-845.995 L 13.4684,-845.501 L 13.5,-845 L 13.5,-751 L 13.4684,-750.499 L 13.3743,-750.005
 L 13.2191,-749.528 L 13.0052,-749.073 L 12.7361,-748.649 L 12.4159,-748.262 L 12.0497,-747.918 L 11.6433,-747.623
 L 11.2031,-747.381 L 10.7361,-747.196 L 10.2495,-747.071 L 9.75116,-747.008 z
M 10.9369,-631.589 L 11.5451,-631.745 L 12.1289,-631.976 L 12.6791,-632.278 L 13.1871,-632.647 L 13.6448,-633.077
 L 14.0451,-633.561 L 14.3815,-634.091 L 14.6489,-634.659 L 14.8429,-635.257 L 14.9606,-635.873 L 15,-636.5
 L 15,-731.5 L 14.9606,-732.127 L 14.8429,-732.743 L 14.6489,-733.341 L 14.3815,-733.909 L 14.0451,-734.439
 L 13.6448,-734.923 L 13.1871,-735.353 L 12.6791,-735.722 L 12.1289,-736.024 L 11.5451,-736.255 L 10.9369,-736.411
 L 10.3139,-736.49 L -10.3139,-736.49 L -10.9369,-736.411 L -11.5451,-736.255 L -12.1289,-736.024 L -12.6791,-735.722
 L -13.1871,-735.353 L -13.6448,-734.923 L -14.0451,-734.439 L -14.3815,-733.909 L -14.6489,-733.341 L -14.8429,-732.743
 L -14.9606,-732.127 L -15,-731.5 L -15,-636.5 L -14.9606,-635.873 L -14.8429,-635.257 L -14.6489,-634.659
 L -14.3815,-634.091 L -14.0451,-633.561 L -13.6448,-633.077 L -13.1871,-632.647 L -12.6791,-632.278 L -12.1289,-631.976
 L -11.5451,-631.745 L -10.9369,-631.589 L -10.3139,-631.51 L 10.3139,-631.51 z
M -9.69545,-633.893 L -10.0833,-633.942 L -10.4619,-634.039 L -10.8254,-634.183 L -11.168,-634.372 L -11.4842,-634.601
 L -11.7692,-634.869 L -12.0184,-635.17 L -12.2279,-635.5 L -12.3943,-635.854 L -12.5151,-636.226 L -12.5884,-636.61
 L -12.6129,-637 L -12.6129,-731 L -12.5884,-731.39 L -12.5151,-731.774 L -12.3943,-732.146 L -12.2279,-732.5
 L -12.0184,-732.83 L -11.7692,-733.131 L -11.4842,-733.399 L -11.168,-733.628 L -10.8254,-733.817 L -10.4619,-733.961
 L -10.0833,-734.058 L -9.69545,-734.107 L 9.69545,-734.107 L 10.0833,-734.058 L 10.4619,-733.961 L 10.8254,-733.817
 L 11.168,-733.628 L 11.4842,-733.399 L 11.7692,-733.131 L 12.0184,-732.83 L 12.2279,-732.5 L 12.3943,-732.146
 L 12.5151,-731.774 L 12.5884,-731.39 L 12.6129,-731 L 12.6129,-637 L 12.5884,-636.61 L 12.5151,-636.226
 L 12.3943,-635.854 L 12.2279,-635.5 L 12.0184,-635.17 L 11.7692,-634.869 L 11.4842,-634.601 L 11.168,-634.372
 L 10.8254,-634.183 L 10.4619,-634.039 L 10.0833,-633.942 L 9.69545,-633.893 z
M 10.9369,-517.589 L 11.5451,-517.745 L 12.1289,-517.976 L 12.6791,-518.278 L 13.1871,-518.647 L 13.6448,-519.077
 L 14.0451,-519.561 L 14.3815,-520.091 L 14.6489,-520.659 L 14.8429,-521.257 L 14.9606,-521.873 L 15,-522.5
 L 15,-617.5 L 14.9606,-618.127 L 14.8429,-618.743 L 14.6489,-619.341 L 14.3815,-619.909 L 14.0451,-620.439
 L 13.6448,-620.923 L 13.1871,-621.353 L 12.6791,-621.722 L 12.1289,-622.024 L 11.5451,-622.255 L 10.9369,-622.411
 L 10.3139,-622.49 L -10.3139,-622.49 L -10.9369,-622.411 L -11.5451,-622.255 L -12.1289,-622.024 L -12.6791,-621.722
 L -13.1871,-621.353 L -13.6448,-620.923 L -14.0451,-620.439 L -14.3815,-619.909 L -14.6489,-619.341 L -14.8429,-618.743
 L -14.9606,-618.127 L -15,-617.5 L -15,-522.5 L -14.9606,-521.873 L -14.8429,-521.257 L -14.6489,-520.659
 L -14.3815,-520.091 L -14.0451,-519.561 L -13.6448,-519.077 L -13.1871,-518.647 L -12.6791,-518.278 L -12.1289,-517.976
 L -11.5451,-517.745 L -10.9369,-517.589 L -10.3139,-517.51 L 10.3139,-517.51 z
M 7.36592,-612.869 L 7.09988,-612.903 L 6.84015,-612.969 L 6.59084,-613.068 L 6.35585,-613.197 L 6.1389,-613.355
 L 5.94344,-613.538 L 5.77251,-613.745 L 5.62881,-613.971 L 5.51465,-614.214 L 5.43178,-614.469 L 5.38153,-614.732
 L 5.3647,-615 L 5.38153,-615.268 L 5.43178,-615.531 L 5.51465,-615.786 L 5.62881,-616.029 L 5.77251,-616.255
 L 5.94344,-616.462 L 6.1389,-616.645 L 6.35585,-616.803 L 6.59084,-616.932 L 6.84015,-617.031 L 7.09988,-617.097
 L 7.36592,-617.131 L 7.63406,-617.131 L 7.9001,-617.097 L 8.15984,-617.031 L 8.40915,-616.932 L 8.64413,-616.803
 L 8.86108,-616.645 L 9.05655,-616.462 L 9.22748,-616.255 L 9.37117,-616.029 L 9.48534,-615.786 L 9.56821,-615.531
 L 9.61845,-615.268 L 9.63528,-615 L 9.61845,-614.732 L 9.56821,-614.469 L 9.48534,-614.214 L 9.37117,-613.971
 L 9.22748,-613.745 L 9.05655,-613.538 L 8.86108,-613.355 L 8.64413,-613.197 L 8.40915,-613.068 L 8.15984,-612.969
 L 7.9001,-612.903 L 7.63406,-612.869 z
M -7.63406,-612.869 L -7.9001,-612.903 L -8.15984,-612.969 L -8.40915,-613.068 L -8.64413,-613.197 L -8.86108,-613.355
 L -9.05655,-613.538 L -9.22748,-613.745 L -9.37117,-613.971 L -9.48534,-614.214 L -9.56821,-614.469 L -9.61845,-614.732
 L -9.63528,-615 L -9.61845,-615.268 L -9.56821,-615.531 L -9.48534,-615.786 L -9.37117,-616.029 L -9.22748,-616.255
 L -9.05655,-616.462 L -8.86108,-616.645 L -8.64413,-616.803 L -8.40915,-616.932 L -8.15984,-617.031 L -7.9001,-617.097
 L -7.63406,-617.131 L -7.36592,-617.131 L -7.09988,-617.097 L -6.84015,-617.031 L -6.59084,-616.932 L -6.35585,-616.803
 L -6.1389,-616.645 L -5.94344,-616.462 L -5.77251,-616.255 L -5.62881,-616.029 L -5.51465,-615.786 L -5.43178,-615.531
 L -5.38153,-615.268 L -5.3647,-615 L -5.38153,-614.732 L -5.43178,-614.469 L -5.51465,-614.214 L -5.62881,-613.971
 L -5.77251,-613.745 L -5.94344,-613.538 L -6.1389,-613.355 L -6.35585,-613.197 L -6.59084,-613.068 L -6.84015,-612.969
 L -7.09988,-612.903 L -7.36592,-612.869 z
M 7.36592,-522.869 L 7.09988,-522.903 L 6.84015,-522.969 L 6.59084,-523.068 L 6.35585,-523.197 L 6.1389,-523.355
 L 5.94344,-523.538 L 5.77251,-523.745 L 5.62881,-523.971 L 5.51465,-524.214 L 5.43178,-524.469 L 5.38153,-524.732
 L 5.3647,-525 L 5.38153,-525.268 L 5.43178,-525.531 L 5.51465,-525.786 L 5.62881,-526.029 L 5.77251,-526.255
 L 5.94344,-526.462 L 6.1389,-526.645 L 6.35585,-526.803 L 6.59084,-526.932 L 6.84015,-527.031 L 7.09988,-527.097
 L 7.36592,-527.131 L 7.63406,-527.131 L 7.9001,-527.097 L 8.15984,-527.031 L 8.40915,-526.932 L 8.64413,-526.803
 L 8.86108,-526.645 L 9.05655,-526.462 L 9.22748,-526.255 L 9.37117,-526.029 L 9.48534,-525.786 L 9.56821,-525.531
 L 9.61845,-525.268 L 9.63528,-525 L 9.61845,-524.732 L 9.56821,-524.469 L 9.48534,-524.214 L 9.37117,-523.971
 L 9.22748,-523.745 L 9.05655,-523.538 L 8.86108,-523.355 L 8.64413,-523.197 L 8.40915,-523.068 L 8.15984,-522.969
 L 7.9001,-522.903 L 7.63406,-522.869 z
M -7.63406,-522.869 L -7.9001,-522.903 L -8.15984,-522.969 L -8.40915,-523.068 L -8.64413,-523.197 L -8.86108,-523.355
 L -9.05655,-523.538 L -9.22748,-523.745 L -9.37117,-523.971 L -9.48534,-524.214 L -9.56821,-524.469 L -9.61845,-524.732
 L -9.63528,-525 L -9.61845,-525.268 L -9.56821,-525.531 L -9.48534,-525.786 L -9.37117,-526.029 L -9.22748,-526.255
 L -9.05655,-526.462 L -8.86108,-526.645 L -8.64413,-526.803 L -8.40915,-526.932 L -8.15984,-527.031 L -7.9001,-527.097
 L -7.63406,-527.131 L -7.36592,-527.131 L -7.09988,-527.097 L -6.84015,-527.031 L -6.59084,-526.932 L -6.35585,-526.803
 L -6.1389,-526.645 L -5.94344,-526.462 L -5.77251,-526.255 L -5.62881,-526.029 L -5.51465,-525.786 L -5.43178,-525.531
 L -5.38153,-525.268 L -5.3647,-525 L -5.38153,-524.732 L -5.43178,-524.469 L -5.51465,-524.214 L -5.62881,-523.971
 L -5.77251,-523.745 L -5.94344,-523.538 L -6.1389,-523.355 L -6.35585,-523.197 L -6.59084,-523.068 L -6.84015,-522.969
 L -7.09988,-522.903 L -7.36592,-522.869 z
" stroke="black" fill="lightgray" stroke-width="0.5"/>
</svg>
