  0
SECTION
  2
BLOCKS
  0
ENDSEC
  0
SECTION
  2
ENTITIES
  0
LINE
  8
0
 10
18.4369
 20
351.089
 11
19.0451
 21
351.245
  0
LINE
  8
0
 10
19.0451
 20
351.245
 11
19.6289
 21
351.476
  0
LINE
  8
0
 10
19.6289
 20
351.476
 11
20.1791
 21
351.778
  0
LINE
  8
0
 10
20.1791
 20
351.778
 11
20.6871
 21
352.147
  0
LINE
  8
0
 10
20.6871
 20
352.147
 11
21.1448
 21
352.577
  0
LINE
  8
0
 10
21.1448
 20
352.577
 11
21.5451
 21
353.061
  0
LINE
  8
0
 10
21.5451
 20
353.061
 11
21.8815
 21
353.591
  0
LINE
  8
0
 10
21.8815
 20
353.591
 11
22.1489
 21
354.159
  0
LINE
  8
0
 10
22.1489
 20
354.159
 11
22.3429
 21
354.757
  0
LINE
  8
0
 10
22.3429
 20
354.757
 11
22.4606
 21
355.373
  0
LINE
  8
0
 10
22.4606
 20
355.373
 11
22.5
 21
356
  0
LINE
  8
0
 10
22.5
 20
356
 11
22.5
 21
436
  0
LINE
  8
0
 10
22.5
 20
436
 11
22.4606
 21
436.627
  0
LINE
  8
0
 10
22.4606
 20
436.627
 11
22.3429
 21
437.243
  0
LINE
  8
0
 10
22.3429
 20
437.243
 11
22.1489
 21
437.841
  0
LINE
  8
0
 10
22.1489
 20
437.841
 11
21.8815
 21
438.409
  0
LINE
  8
0
 10
21.8815
 20
438.409
 11
21.5451
 21
438.939
  0
LINE
  8
0
 10
21.5451
 20
438.939
 11
21.1448
 21
439.423
  0
LINE
  8
0
 10
21.1448
 20
439.423
 11
20.6871
 21
439.853
  0
LINE
  8
0
 10
20.6871
 20
439.853
 11
20.1791
 21
440.222
  0
LINE
  8
0
 10
20.1791
 20
440.222
 11
19.6289
 21
440.524
  0
LINE
  8
0
 10
19.6289
 20
440.524
 11
19.0451
 21
440.755
  0
LINE
  8
0
 10
19.0451
 20
440.755
 11
18.4369
 21
440.911
  0
LINE
  8
0
 10
18.4369
 20
440.911
 11
17.8139
 21
440.99
  0
LINE
  8
0
 10
17.8139
 20
440.99
 11
-17.8139
 21
440.99
  0
LINE
  8
0
 10
-17.8139
 20
440.99
 11
-18.4369
 21
440.911
  0
LINE
  8
0
 10
-18.4369
 20
440.911
 11
-19.0451
 21
440.755
  0
LINE
  8
0
 10
-19.0451
 20
440.755
 11
-19.6289
 21
440.524
  0
LINE
  8
0
 10
-19.6289
 20
440.524
 11
-20.1791
 21
440.222
  0
LINE
  8
0
 10
-20.1791
 20
440.222
 11
-20.6871
 21
439.853
  0
LINE
  8
0
 10
-20.6871
 20
439.853
 11
-21.1448
 21
439.423
  0
LINE
  8
0
 10
-21.1448
 20
439.423
 11
-21.5451
 21
438.939
  0
LINE
  8
0
 10
-21.5451
 20
438.939
 11
-21.8815
 21
438.409
  0
LINE
  8
0
 10
-21.8815
 20
438.409
 11
-22.1489
 21
437.841
  0
LINE
  8
0
 10
-22.1489
 20
437.841
 11
-22.3429
 21
437.243
  0
LINE
  8
0
 10
-22.3429
 20
437.243
 11
-22.4606
 21
436.627
  0
LINE
  8
0
 10
-22.4606
 20
436.627
 11
-22.5
 21
436
  0
LINE
  8
0
 10
-22.5
 20
436
 11
-22.5
 21
356
  0
LINE
  8
0
 10
-22.5
 20
356
 11
-22.4606
 21
355.373
  0
LINE
  8
0
 10
-22.4606
 20
355.373
 11
-22.3429
 21
354.757
  0
LINE
  8
0
 10
-22.3429
 20
354.757
 11
-22.1489
 21
354.159
  0
LINE
  8
0
 10
-22.1489
 20
354.159
 11
-21.8815
 21
353.591
  0
LINE
  8
0
 10
-21.8815
 20
353.591
 11
-21.5451
 21
353.061
  0
LINE
  8
0
 10
-21.5451
 20
353.061
 11
-21.1448
 21
352.577
  0
LINE
  8
0
 10
-21.1448
 20
352.577
 11
-20.6871
 21
352.147
  0
LINE
  8
0
 10
-20.6871
 20
352.147
 11
-20.1791
 21
351.778
  0
LINE
  8
0
 10
-20.1791
 20
351.778
 11
-19.6289
 21
351.476
  0
LINE
  8
0
 10
-19.6289
 20
351.476
 11
-19.0451
 21
351.245
  0
LINE
  8
0
 10
-19.0451
 20
351.245
 11
-18.4369
 21
351.089
  0
LINE
  8
0
 10
-18.4369
 20
351.089
 11
-17.8139
 21
351.01
  0
LINE
  8
0
 10
-17.8139
 20
351.01
 11
17.8139
 21
351.01
  0
LINE
  8
0
 10
17.8139
 20
351.01
 11
18.4369
 21
351.089
  0
LINE
  8
0
 10
-17.2432
 20
352.635
 11
-17.7256
 21
352.696
  0
LINE
  8
0
 10
-17.7256
 20
352.696
 11
-18.1967
 21
352.817
  0
LINE
  8
0
 10
-18.1967
 20
352.817
 11
-18.6489
 21
352.996
  0
LINE
  8
0
 10
-18.6489
 20
352.996
 11
-19.0751
 21
353.23
  0
LINE
  8
0
 10
-19.0751
 20
353.23
 11
-19.4685
 21
353.516
  0
LINE
  8
0
 10
-19.4685
 20
353.516
 11
-19.823
 21
353.849
  0
LINE
  8
0
 10
-19.823
 20
353.849
 11
-20.133
 21
354.224
  0
LINE
  8
0
 10
-20.133
 20
354.224
 11
-20.3936
 21
354.634
  0
LINE
  8
0
 10
-20.3936
 20
354.634
 11
-20.6007
 21
355.074
  0
LINE
  8
0
 10
-20.6007
 20
355.074
 11
-20.751
 21
355.537
  0
LINE
  8
0
 10
-20.751
 20
355.537
 11
-20.8421
 21
356.015
  0
LINE
  8
0
 10
-20.8421
 20
356.015
 11
-20.8726
 21
356.5
  0
LINE
  8
0
 10
-20.8726
 20
356.5
 11
-20.8726
 21
435.5
  0
LINE
  8
0
 10
-20.8726
 20
435.5
 11
-20.8421
 21
435.985
  0
LINE
  8
0
 10
-20.8421
 20
435.985
 11
-20.751
 21
436.463
  0
LINE
  8
0
 10
-20.751
 20
436.463
 11
-20.6007
 21
436.926
  0
LINE
  8
0
 10
-20.6007
 20
436.926
 11
-20.3936
 21
437.366
  0
LINE
  8
0
 10
-20.3936
 20
437.366
 11
-20.133
 21
437.776
  0
LINE
  8
0
 10
-20.133
 20
437.776
 11
-19.823
 21
438.151
  0
LINE
  8
0
 10
-19.823
 20
438.151
 11
-19.4685
 21
438.484
  0
LINE
  8
0
 10
-19.4685
 20
438.484
 11
-19.0751
 21
438.77
  0
LINE
  8
0
 10
-19.0751
 20
438.77
 11
-18.6489
 21
439.004
  0
LINE
  8
0
 10
-18.6489
 20
439.004
 11
-18.1967
 21
439.183
  0
LINE
  8
0
 10
-18.1967
 20
439.183
 11
-17.7256
 21
439.304
  0
LINE
  8
0
 10
-17.7256
 20
439.304
 11
-17.2432
 21
439.365
  0
LINE
  8
0
 10
-17.2432
 20
439.365
 11
17.2432
 21
439.365
  0
LINE
  8
0
 10
17.2432
 20
439.365
 11
17.7256
 21
439.304
  0
LINE
  8
0
 10
17.7256
 20
439.304
 11
18.1967
 21
439.183
  0
LINE
  8
0
 10
18.1967
 20
439.183
 11
18.6489
 21
439.004
  0
LINE
  8
0
 10
18.6489
 20
439.004
 11
19.0751
 21
438.77
  0
LINE
  8
0
 10
19.0751
 20
438.77
 11
19.4685
 21
438.484
  0
LINE
  8
0
 10
19.4685
 20
438.484
 11
19.823
 21
438.151
  0
LINE
  8
0
 10
19.823
 20
438.151
 11
20.133
 21
437.776
  0
LINE
  8
0
 10
20.133
 20
437.776
 11
20.3936
 21
437.366
  0
LINE
  8
0
 10
20.3936
 20
437.366
 11
20.6007
 21
436.926
  0
LINE
  8
0
 10
20.6007
 20
436.926
 11
20.751
 21
436.463
  0
LINE
  8
0
 10
20.751
 20
436.463
 11
20.8421
 21
435.985
  0
LINE
  8
0
 10
20.8421
 20
435.985
 11
20.8726
 21
435.5
  0
LINE
  8
0
 10
20.8726
 20
435.5
 11
20.8726
 21
356.5
  0
LINE
  8
0
 10
20.8726
 20
356.5
 11
20.8421
 21
356.015
  0
LINE
  8
0
 10
20.8421
 20
356.015
 11
20.751
 21
355.537
  0
LINE
  8
0
 10
20.751
 20
355.537
 11
20.6007
 21
355.074
  0
LINE
  8
0
 10
20.6007
 20
355.074
 11
20.3936
 21
354.634
  0
LINE
  8
0
 10
20.3936
 20
354.634
 11
20.133
 21
354.224
  0
LINE
  8
0
 10
20.133
 20
354.224
 11
19.823
 21
353.849
  0
LINE
  8
0
 10
19.823
 20
353.849
 11
19.4685
 21
353.516
  0
LINE
  8
0
 10
19.4685
 20
353.516
 11
19.0751
 21
353.23
  0
LINE
  8
0
 10
19.0751
 20
353.23
 11
18.6489
 21
352.996
  0
LINE
  8
0
 10
18.6489
 20
352.996
 11
18.1967
 21
352.817
  0
LINE
  8
0
 10
18.1967
 20
352.817
 11
17.7256
 21
352.696
  0
LINE
  8
0
 10
17.7256
 20
352.696
 11
17.2432
 21
352.635
  0
LINE
  8
0
 10
17.2432
 20
352.635
 11
-17.2432
 21
352.635
  0
LINE
  8
0
 10
18.4369
 20
252.089
 11
19.0451
 21
252.245
  0
LINE
  8
0
 10
19.0451
 20
252.245
 11
19.6289
 21
252.476
  0
LINE
  8
0
 10
19.6289
 20
252.476
 11
20.1791
 21
252.778
  0
LINE
  8
0
 10
20.1791
 20
252.778
 11
20.6871
 21
253.147
  0
LINE
  8
0
 10
20.6871
 20
253.147
 11
21.1448
 21
253.577
  0
LINE
  8
0
 10
21.1448
 20
253.577
 11
21.5451
 21
254.061
  0
LINE
  8
0
 10
21.5451
 20
254.061
 11
21.8815
 21
254.591
  0
LINE
  8
0
 10
21.8815
 20
254.591
 11
22.1489
 21
255.159
  0
LINE
  8
0
 10
22.1489
 20
255.159
 11
22.3429
 21
255.757
  0
LINE
  8
0
 10
22.3429
 20
255.757
 11
22.4606
 21
256.373
  0
LINE
  8
0
 10
22.4606
 20
256.373
 11
22.5
 21
257
  0
LINE
  8
0
 10
22.5
 20
257
 11
22.5
 21
337
  0
LINE
  8
0
 10
22.5
 20
337
 11
22.4606
 21
337.627
  0
LINE
  8
0
 10
22.4606
 20
337.627
 11
22.3429
 21
338.243
  0
LINE
  8
0
 10
22.3429
 20
338.243
 11
22.1489
 21
338.841
  0
LINE
  8
0
 10
22.1489
 20
338.841
 11
21.8815
 21
339.409
  0
LINE
  8
0
 10
21.8815
 20
339.409
 11
21.5451
 21
339.939
  0
LINE
  8
0
 10
21.5451
 20
339.939
 11
21.1448
 21
340.423
  0
LINE
  8
0
 10
21.1448
 20
340.423
 11
20.6871
 21
340.853
  0
LINE
  8
0
 10
20.6871
 20
340.853
 11
20.1791
 21
341.222
  0
LINE
  8
0
 10
20.1791
 20
341.222
 11
19.6289
 21
341.524
  0
LINE
  8
0
 10
19.6289
 20
341.524
 11
19.0451
 21
341.755
  0
LINE
  8
0
 10
19.0451
 20
341.755
 11
18.4369
 21
341.911
  0
LINE
  8
0
 10
18.4369
 20
341.911
 11
17.8139
 21
341.99
  0
LINE
  8
0
 10
17.8139
 20
341.99
 11
-17.8139
 21
341.99
  0
LINE
  8
0
 10
-17.8139
 20
341.99
 11
-18.4369
 21
341.911
  0
LINE
  8
0
 10
-18.4369
 20
341.911
 11
-19.0451
 21
341.755
  0
LINE
  8
0
 10
-19.0451
 20
341.755
 11
-19.6289
 21
341.524
  0
LINE
  8
0
 10
-19.6289
 20
341.524
 11
-20.1791
 21
341.222
  0
LINE
  8
0
 10
-20.1791
 20
341.222
 11
-20.6871
 21
340.853
  0
LINE
  8
0
 10
-20.6871
 20
340.853
 11
-21.1448
 21
340.423
  0
LINE
  8
0
 10
-21.1448
 20
340.423
 11
-21.5451
 21
339.939
  0
LINE
  8
0
 10
-21.5451
 20
339.939
 11
-21.8815
 21
339.409
  0
LINE
  8
0
 10
-21.8815
 20
339.409
 11
-22.1489
 21
338.841
  0
LINE
  8
0
 10
-22.1489
 20
338.841
 11
-22.3429
 21
338.243
  0
LINE
  8
0
 10
-22.3429
 20
338.243
 11
-22.4606
 21
337.627
  0
LINE
  8
0
 10
-22.4606
 20
337.627
 11
-22.5
 21
337
  0
LINE
  8
0
 10
-22.5
 20
337
 11
-22.5
 21
257
  0
LINE
  8
0
 10
-22.5
 20
257
 11
-22.4606
 21
256.373
  0
LINE
  8
0
 10
-22.4606
 20
256.373
 11
-22.3429
 21
255.757
  0
LINE
  8
0
 10
-22.3429
 20
255.757
 11
-22.1489
 21
255.159
  0
LINE
  8
0
 10
-22.1489
 20
255.159
 11
-21.8815
 21
254.591
  0
LINE
  8
0
 10
-21.8815
 20
254.591
 11
-21.5451
 21
254.061
  0
LINE
  8
0
 10
-21.5451
 20
254.061
 11
-21.1448
 21
253.577
  0
LINE
  8
0
 10
-21.1448
 20
253.577
 11
-20.6871
 21
253.147
  0
LINE
  8
0
 10
-20.6871
 20
253.147
 11
-20.1791
 21
252.778
  0
LINE
  8
0
 10
-20.1791
 20
252.778
 11
-19.6289
 21
252.476
  0
LINE
  8
0
 10
-19.6289
 20
252.476
 11
-19.0451
 21
252.245
  0
LINE
  8
0
 10
-19.0451
 20
252.245
 11
-18.4369
 21
252.089
  0
LINE
  8
0
 10
-18.4369
 20
252.089
 11
-17.8139
 21
252.01
  0
LINE
  8
0
 10
-17.8139
 20
252.01
 11
17.8139
 21
252.01
  0
LINE
  8
0
 10
17.8139
 20
252.01
 11
18.4369
 21
252.089
  0
LINE
  8
0
 10
18.4369
 20
153.089
 11
19.0451
 21
153.245
  0
LINE
  8
0
 10
19.0451
 20
153.245
 11
19.6289
 21
153.476
  0
LINE
  8
0
 10
19.6289
 20
153.476
 11
20.1791
 21
153.778
  0
LINE
  8
0
 10
20.1791
 20
153.778
 11
20.6871
 21
154.147
  0
LINE
  8
0
 10
20.6871
 20
154.147
 11
21.1448
 21
154.577
  0
LINE
  8
0
 10
21.1448
 20
154.577
 11
21.5451
 21
155.061
  0
LINE
  8
0
 10
21.5451
 20
155.061
 11
21.8815
 21
155.591
  0
LINE
  8
0
 10
21.8815
 20
155.591
 11
22.1489
 21
156.159
  0
LINE
  8
0
 10
22.1489
 20
156.159
 11
22.3429
 21
156.757
  0
LINE
  8
0
 10
22.3429
 20
156.757
 11
22.4606
 21
157.373
  0
LINE
  8
0
 10
22.4606
 20
157.373
 11
22.5
 21
158
  0
LINE
  8
0
 10
22.5
 20
158
 11
22.5
 21
238
  0
LINE
  8
0
 10
22.5
 20
238
 11
22.4606
 21
238.627
  0
LINE
  8
0
 10
22.4606
 20
238.627
 11
22.3429
 21
239.243
  0
LINE
  8
0
 10
22.3429
 20
239.243
 11
22.1489
 21
239.841
  0
LINE
  8
0
 10
22.1489
 20
239.841
 11
21.8815
 21
240.409
  0
LINE
  8
0
 10
21.8815
 20
240.409
 11
21.5451
 21
240.939
  0
LINE
  8
0
 10
21.5451
 20
240.939
 11
21.1448
 21
241.423
  0
LINE
  8
0
 10
21.1448
 20
241.423
 11
20.6871
 21
241.853
  0
LINE
  8
0
 10
20.6871
 20
241.853
 11
20.1791
 21
242.222
  0
LINE
  8
0
 10
20.1791
 20
242.222
 11
19.6289
 21
242.524
  0
LINE
  8
0
 10
19.6289
 20
242.524
 11
19.0451
 21
242.755
  0
LINE
  8
0
 10
19.0451
 20
242.755
 11
18.4369
 21
242.911
  0
LINE
  8
0
 10
18.4369
 20
242.911
 11
17.8139
 21
242.99
  0
LINE
  8
0
 10
17.8139
 20
242.99
 11
-17.8139
 21
242.99
  0
LINE
  8
0
 10
-17.8139
 20
242.99
 11
-18.4369
 21
242.911
  0
LINE
  8
0
 10
-18.4369
 20
242.911
 11
-19.0451
 21
242.755
  0
LINE
  8
0
 10
-19.0451
 20
242.755
 11
-19.6289
 21
242.524
  0
LINE
  8
0
 10
-19.6289
 20
242.524
 11
-20.1791
 21
242.222
  0
LINE
  8
0
 10
-20.1791
 20
242.222
 11
-20.6871
 21
241.853
  0
LINE
  8
0
 10
-20.6871
 20
241.853
 11
-21.1448
 21
241.423
  0
LINE
  8
0
 10
-21.1448
 20
241.423
 11
-21.5451
 21
240.939
  0
LINE
  8
0
 10
-21.5451
 20
240.939
 11
-21.8815
 21
240.409
  0
LINE
  8
0
 10
-21.8815
 20
240.409
 11
-22.1489
 21
239.841
  0
LINE
  8
0
 10
-22.1489
 20
239.841
 11
-22.3429
 21
239.243
  0
LINE
  8
0
 10
-22.3429
 20
239.243
 11
-22.4606
 21
238.627
  0
LINE
  8
0
 10
-22.4606
 20
238.627
 11
-22.5
 21
238
  0
LINE
  8
0
 10
-22.5
 20
238
 11
-22.5
 21
158
  0
LINE
  8
0
 10
-22.5
 20
158
 11
-22.4606
 21
157.373
  0
LINE
  8
0
 10
-22.4606
 20
157.373
 11
-22.3429
 21
156.757
  0
LINE
  8
0
 10
-22.3429
 20
156.757
 11
-22.1489
 21
156.159
  0
LINE
  8
0
 10
-22.1489
 20
156.159
 11
-21.8815
 21
155.591
  0
LINE
  8
0
 10
-21.8815
 20
155.591
 11
-21.5451
 21
155.061
  0
LINE
  8
0
 10
-21.5451
 20
155.061
 11
-21.1448
 21
154.577
  0
LINE
  8
0
 10
-21.1448
 20
154.577
 11
-20.6871
 21
154.147
  0
LINE
  8
0
 10
-20.6871
 20
154.147
 11
-20.1791
 21
153.778
  0
LINE
  8
0
 10
-20.1791
 20
153.778
 11
-19.6289
 21
153.476
  0
LINE
  8
0
 10
-19.6289
 20
153.476
 11
-19.0451
 21
153.245
  0
LINE
  8
0
 10
-19.0451
 20
153.245
 11
-18.4369
 21
153.089
  0
LINE
  8
0
 10
-18.4369
 20
153.089
 11
-17.8139
 21
153.01
  0
LINE
  8
0
 10
-17.8139
 20
153.01
 11
17.8139
 21
153.01
  0
LINE
  8
0
 10
17.8139
 20
153.01
 11
18.4369
 21
153.089
  0
LINE
  8
0
 10
14.887
 20
233.704
 11
14.6627
 21
233.732
  0
LINE
  8
0
 10
14.6627
 20
233.732
 11
14.4438
 21
233.788
  0
LINE
  8
0
 10
14.4438
 20
233.788
 11
14.2336
 21
233.871
  0
LINE
  8
0
 10
14.2336
 20
233.871
 11
14.0355
 21
233.98
  0
LINE
  8
0
 10
14.0355
 20
233.98
 11
13.8526
 21
234.113
  0
LINE
  8
0
 10
13.8526
 20
234.113
 11
13.6879
 21
234.268
  0
LINE
  8
0
 10
13.6879
 20
234.268
 11
13.5438
 21
234.442
  0
LINE
  8
0
 10
13.5438
 20
234.442
 11
13.4226
 21
234.633
  0
LINE
  8
0
 10
13.4226
 20
234.633
 11
13.3264
 21
234.837
  0
LINE
  8
0
 10
13.3264
 20
234.837
 11
13.2565
 21
235.052
  0
LINE
  8
0
 10
13.2565
 20
235.052
 11
13.2142
 21
235.274
  0
LINE
  8
0
 10
13.2142
 20
235.274
 11
13.2
 21
235.5
  0
LINE
  8
0
 10
13.2
 20
235.5
 11
13.2142
 21
235.726
  0
LINE
  8
0
 10
13.2142
 20
235.726
 11
13.2565
 21
235.948
  0
LINE
  8
0
 10
13.2565
 20
235.948
 11
13.3264
 21
236.163
  0
LINE
  8
0
 10
13.3264
 20
236.163
 11
13.4226
 21
236.367
  0
LINE
  8
0
 10
13.4226
 20
236.367
 11
13.5438
 21
236.558
  0
LINE
  8
0
 10
13.5438
 20
236.558
 11
13.6879
 21
236.732
  0
LINE
  8
0
 10
13.6879
 20
236.732
 11
13.8526
 21
236.887
  0
LINE
  8
0
 10
13.8526
 20
236.887
 11
14.0355
 21
237.02
  0
LINE
  8
0
 10
14.0355
 20
237.02
 11
14.2336
 21
237.129
  0
LINE
  8
0
 10
14.2336
 20
237.129
 11
14.4438
 21
237.212
  0
LINE
  8
0
 10
14.4438
 20
237.212
 11
14.6627
 21
237.268
  0
LINE
  8
0
 10
14.6627
 20
237.268
 11
14.887
 21
237.296
  0
LINE
  8
0
 10
14.887
 20
237.296
 11
15.113
 21
237.296
  0
LINE
  8
0
 10
15.113
 20
237.296
 11
15.3373
 21
237.268
  0
LINE
  8
0
 10
15.3373
 20
237.268
 11
15.5562
 21
237.212
  0
LINE
  8
0
 10
15.5562
 20
237.212
 11
15.7664
 21
237.129
  0
LINE
  8
0
 10
15.7664
 20
237.129
 11
15.9645
 21
237.02
  0
LINE
  8
0
 10
15.9645
 20
237.02
 11
16.1474
 21
236.887
  0
LINE
  8
0
 10
16.1474
 20
236.887
 11
16.3121
 21
236.732
  0
LINE
  8
0
 10
16.3121
 20
236.732
 11
16.4562
 21
236.558
  0
LINE
  8
0
 10
16.4562
 20
236.558
 11
16.5773
 21
236.367
  0
LINE
  8
0
 10
16.5773
 20
236.367
 11
16.6736
 21
236.163
  0
LINE
  8
0
 10
16.6736
 20
236.163
 11
16.7434
 21
235.948
  0
LINE
  8
0
 10
16.7434
 20
235.948
 11
16.7858
 21
235.726
  0
LINE
  8
0
 10
16.7858
 20
235.726
 11
16.8
 21
235.5
  0
LINE
  8
0
 10
16.8
 20
235.5
 11
16.7858
 21
235.274
  0
LINE
  8
0
 10
16.7858
 20
235.274
 11
16.7434
 21
235.052
  0
LINE
  8
0
 10
16.7434
 20
235.052
 11
16.6736
 21
234.837
  0
LINE
  8
0
 10
16.6736
 20
234.837
 11
16.5773
 21
234.633
  0
LINE
  8
0
 10
16.5773
 20
234.633
 11
16.4562
 21
234.442
  0
LINE
  8
0
 10
16.4562
 20
234.442
 11
16.3121
 21
234.268
  0
LINE
  8
0
 10
16.3121
 20
234.268
 11
16.1474
 21
234.113
  0
LINE
  8
0
 10
16.1474
 20
234.113
 11
15.9645
 21
233.98
  0
LINE
  8
0
 10
15.9645
 20
233.98
 11
15.7664
 21
233.871
  0
LINE
  8
0
 10
15.7664
 20
233.871
 11
15.5562
 21
233.788
  0
LINE
  8
0
 10
15.5562
 20
233.788
 11
15.3373
 21
233.732
  0
LINE
  8
0
 10
15.3373
 20
233.732
 11
15.113
 21
233.704
  0
LINE
  8
0
 10
15.113
 20
233.704
 11
14.887
 21
233.704
  0
LINE
  8
0
 10
-15.113
 20
233.704
 11
-15.3373
 21
233.732
  0
LINE
  8
0
 10
-15.3373
 20
233.732
 11
-15.5562
 21
233.788
  0
LINE
  8
0
 10
-15.5562
 20
233.788
 11
-15.7664
 21
233.871
  0
LINE
  8
0
 10
-15.7664
 20
233.871
 11
-15.9645
 21
233.98
  0
LINE
  8
0
 10
-15.9645
 20
233.98
 11
-16.1474
 21
234.113
  0
LINE
  8
0
 10
-16.1474
 20
234.113
 11
-16.3121
 21
234.268
  0
LINE
  8
0
 10
-16.3121
 20
234.268
 11
-16.4562
 21
234.442
  0
LINE
  8
0
 10
-16.4562
 20
234.442
 11
-16.5773
 21
234.633
  0
LINE
  8
0
 10
-16.5773
 20
234.633
 11
-16.6736
 21
234.837
  0
LINE
  8
0
 10
-16.6736
 20
234.837
 11
-16.7434
 21
235.052
  0
LINE
  8
0
 10
-16.7434
 20
235.052
 11
-16.7858
 21
235.274
  0
LINE
  8
0
 10
-16.7858
 20
235.274
 11
-16.8
 21
235.5
  0
LINE
  8
0
 10
-16.8
 20
235.5
 11
-16.7858
 21
235.726
  0
LINE
  8
0
 10
-16.7858
 20
235.726
 11
-16.7434
 21
235.948
  0
LINE
  8
0
 10
-16.7434
 20
235.948
 11
-16.6736
 21
236.163
  0
LINE
  8
0
 10
-16.6736
 20
236.163
 11
-16.5773
 21
236.367
  0
LINE
  8
0
 10
-16.5773
 20
236.367
 11
-16.4562
 21
236.558
  0
LINE
  8
0
 10
-16.4562
 20
236.558
 11
-16.3121
 21
236.732
  0
LINE
  8
0
 10
-16.3121
 20
236.732
 11
-16.1474
 21
236.887
  0
LINE
  8
0
 10
-16.1474
 20
236.887
 11
-15.9645
 21
237.02
  0
LINE
  8
0
 10
-15.9645
 20
237.02
 11
-15.7664
 21
237.129
  0
LINE
  8
0
 10
-15.7664
 20
237.129
 11
-15.5562
 21
237.212
  0
LINE
  8
0
 10
-15.5562
 20
237.212
 11
-15.3373
 21
237.268
  0
LINE
  8
0
 10
-15.3373
 20
237.268
 11
-15.113
 21
237.296
  0
LINE
  8
0
 10
-15.113
 20
237.296
 11
-14.887
 21
237.296
  0
LINE
  8
0
 10
-14.887
 20
237.296
 11
-14.6627
 21
237.268
  0
LINE
  8
0
 10
-14.6627
 20
237.268
 11
-14.4438
 21
237.212
  0
LINE
  8
0
 10
-14.4438
 20
237.212
 11
-14.2336
 21
237.129
  0
LINE
  8
0
 10
-14.2336
 20
237.129
 11
-14.0355
 21
237.02
  0
LINE
  8
0
 10
-14.0355
 20
237.02
 11
-13.8526
 21
236.887
  0
LINE
  8
0
 10
-13.8526
 20
236.887
 11
-13.6879
 21
236.732
  0
LINE
  8
0
 10
-13.6879
 20
236.732
 11
-13.5438
 21
236.558
  0
LINE
  8
0
 10
-13.5438
 20
236.558
 11
-13.4226
 21
236.367
  0
LINE
  8
0
 10
-13.4226
 20
236.367
 11
-13.3264
 21
236.163
  0
LINE
  8
0
 10
-13.3264
 20
236.163
 11
-13.2565
 21
235.948
  0
LINE
  8
0
 10
-13.2565
 20
235.948
 11
-13.2142
 21
235.726
  0
LINE
  8
0
 10
-13.2142
 20
235.726
 11
-13.2
 21
235.5
  0
LINE
  8
0
 10
-13.2
 20
235.5
 11
-13.2142
 21
235.274
  0
LINE
  8
0
 10
-13.2142
 20
235.274
 11
-13.2565
 21
235.052
  0
LINE
  8
0
 10
-13.2565
 20
235.052
 11
-13.3264
 21
234.837
  0
LINE
  8
0
 10
-13.3264
 20
234.837
 11
-13.4226
 21
234.633
  0
LINE
  8
0
 10
-13.4226
 20
234.633
 11
-13.5438
 21
234.442
  0
LINE
  8
0
 10
-13.5438
 20
234.442
 11
-13.6879
 21
234.268
  0
LINE
  8
0
 10
-13.6879
 20
234.268
 11
-13.8526
 21
234.113
  0
LINE
  8
0
 10
-13.8526
 20
234.113
 11
-14.0355
 21
233.98
  0
LINE
  8
0
 10
-14.0355
 20
233.98
 11
-14.2336
 21
233.871
  0
LINE
  8
0
 10
-14.2336
 20
233.871
 11
-14.4438
 21
233.788
  0
LINE
  8
0
 10
-14.4438
 20
233.788
 11
-14.6627
 21
233.732
  0
LINE
  8
0
 10
-14.6627
 20
233.732
 11
-14.887
 21
233.704
  0
LINE
  8
0
 10
-14.887
 20
233.704
 11
-15.113
 21
233.704
  0
LINE
  8
0
 10
14.887
 20
158.704
 11
14.6627
 21
158.732
  0
LINE
  8
0
 10
14.6627
 20
158.732
 11
14.4438
 21
158.788
  0
LINE
  8
0
 10
14.4438
 20
158.788
 11
14.2336
 21
158.871
  0
LINE
  8
0
 10
14.2336
 20
158.871
 11
14.0355
 21
158.98
  0
LINE
  8
0
 10
14.0355
 20
158.98
 11
13.8526
 21
159.113
  0
LINE
  8
0
 10
13.8526
 20
159.113
 11
13.6879
 21
159.268
  0
LINE
  8
0
 10
13.6879
 20
159.268
 11
13.5438
 21
159.442
  0
LINE
  8
0
 10
13.5438
 20
159.442
 11
13.4226
 21
159.633
  0
LINE
  8
0
 10
13.4226
 20
159.633
 11
13.3264
 21
159.837
  0
LINE
  8
0
 10
13.3264
 20
159.837
 11
13.2565
 21
160.052
  0
LINE
  8
0
 10
13.2565
 20
160.052
 11
13.2142
 21
160.274
  0
LINE
  8
0
 10
13.2142
 20
160.274
 11
13.2
 21
160.5
  0
LINE
  8
0
 10
13.2
 20
160.5
 11
13.2142
 21
160.726
  0
LINE
  8
0
 10
13.2142
 20
160.726
 11
13.2565
 21
160.948
  0
LINE
  8
0
 10
13.2565
 20
160.948
 11
13.3264
 21
161.163
  0
LINE
  8
0
 10
13.3264
 20
161.163
 11
13.4226
 21
161.367
  0
LINE
  8
0
 10
13.4226
 20
161.367
 11
13.5438
 21
161.558
  0
LINE
  8
0
 10
13.5438
 20
161.558
 11
13.6879
 21
161.732
  0
LINE
  8
0
 10
13.6879
 20
161.732
 11
13.8526
 21
161.887
  0
LINE
  8
0
 10
13.8526
 20
161.887
 11
14.0355
 21
162.02
  0
LINE
  8
0
 10
14.0355
 20
162.02
 11
14.2336
 21
162.129
  0
LINE
  8
0
 10
14.2336
 20
162.129
 11
14.4438
 21
162.212
  0
LINE
  8
0
 10
14.4438
 20
162.212
 11
14.6627
 21
162.268
  0
LINE
  8
0
 10
14.6627
 20
162.268
 11
14.887
 21
162.296
  0
LINE
  8
0
 10
14.887
 20
162.296
 11
15.113
 21
162.296
  0
LINE
  8
0
 10
15.113
 20
162.296
 11
15.3373
 21
162.268
  0
LINE
  8
0
 10
15.3373
 20
162.268
 11
15.5562
 21
162.212
  0
LINE
  8
0
 10
15.5562
 20
162.212
 11
15.7664
 21
162.129
  0
LINE
  8
0
 10
15.7664
 20
162.129
 11
15.9645
 21
162.02
  0
LINE
  8
0
 10
15.9645
 20
162.02
 11
16.1474
 21
161.887
  0
LINE
  8
0
 10
16.1474
 20
161.887
 11
16.3121
 21
161.732
  0
LINE
  8
0
 10
16.3121
 20
161.732
 11
16.4562
 21
161.558
  0
LINE
  8
0
 10
16.4562
 20
161.558
 11
16.5773
 21
161.367
  0
LINE
  8
0
 10
16.5773
 20
161.367
 11
16.6736
 21
161.163
  0
LINE
  8
0
 10
16.6736
 20
161.163
 11
16.7434
 21
160.948
  0
LINE
  8
0
 10
16.7434
 20
160.948
 11
16.7858
 21
160.726
  0
LINE
  8
0
 10
16.7858
 20
160.726
 11
16.8
 21
160.5
  0
LINE
  8
0
 10
16.8
 20
160.5
 11
16.7858
 21
160.274
  0
LINE
  8
0
 10
16.7858
 20
160.274
 11
16.7434
 21
160.052
  0
LINE
  8
0
 10
16.7434
 20
160.052
 11
16.6736
 21
159.837
  0
LINE
  8
0
 10
16.6736
 20
159.837
 11
16.5773
 21
159.633
  0
LINE
  8
0
 10
16.5773
 20
159.633
 11
16.4562
 21
159.442
  0
LINE
  8
0
 10
16.4562
 20
159.442
 11
16.3121
 21
159.268
  0
LINE
  8
0
 10
16.3121
 20
159.268
 11
16.1474
 21
159.113
  0
LINE
  8
0
 10
16.1474
 20
159.113
 11
15.9645
 21
158.98
  0
LINE
  8
0
 10
15.9645
 20
158.98
 11
15.7664
 21
158.871
  0
LINE
  8
0
 10
15.7664
 20
158.871
 11
15.5562
 21
158.788
  0
LINE
  8
0
 10
15.5562
 20
158.788
 11
15.3373
 21
158.732
  0
LINE
  8
0
 10
15.3373
 20
158.732
 11
15.113
 21
158.704
  0
LINE
  8
0
 10
15.113
 20
158.704
 11
14.887
 21
158.704
  0
LINE
  8
0
 10
-15.113
 20
158.704
 11
-15.3373
 21
158.732
  0
LINE
  8
0
 10
-15.3373
 20
158.732
 11
-15.5562
 21
158.788
  0
LINE
  8
0
 10
-15.5562
 20
158.788
 11
-15.7664
 21
158.871
  0
LINE
  8
0
 10
-15.7664
 20
158.871
 11
-15.9645
 21
158.98
  0
LINE
  8
0
 10
-15.9645
 20
158.98
 11
-16.1474
 21
159.113
  0
LINE
  8
0
 10
-16.1474
 20
159.113
 11
-16.3121
 21
159.268
  0
LINE
  8
0
 10
-16.3121
 20
159.268
 11
-16.4562
 21
159.442
  0
LINE
  8
0
 10
-16.4562
 20
159.442
 11
-16.5773
 21
159.633
  0
LINE
  8
0
 10
-16.5773
 20
159.633
 11
-16.6736
 21
159.837
  0
LINE
  8
0
 10
-16.6736
 20
159.837
 11
-16.7434
 21
160.052
  0
LINE
  8
0
 10
-16.7434
 20
160.052
 11
-16.7858
 21
160.274
  0
LINE
  8
0
 10
-16.7858
 20
160.274
 11
-16.8
 21
160.5
  0
LINE
  8
0
 10
-16.8
 20
160.5
 11
-16.7858
 21
160.726
  0
LINE
  8
0
 10
-16.7858
 20
160.726
 11
-16.7434
 21
160.948
  0
LINE
  8
0
 10
-16.7434
 20
160.948
 11
-16.6736
 21
161.163
  0
LINE
  8
0
 10
-16.6736
 20
161.163
 11
-16.5773
 21
161.367
  0
LINE
  8
0
 10
-16.5773
 20
161.367
 11
-16.4562
 21
161.558
  0
LINE
  8
0
 10
-16.4562
 20
161.558
 11
-16.3121
 21
161.732
  0
LINE
  8
0
 10
-16.3121
 20
161.732
 11
-16.1474
 21
161.887
  0
LINE
  8
0
 10
-16.1474
 20
161.887
 11
-15.9645
 21
162.02
  0
LINE
  8
0
 10
-15.9645
 20
162.02
 11
-15.7664
 21
162.129
  0
LINE
  8
0
 10
-15.7664
 20
162.129
 11
-15.5562
 21
162.212
  0
LINE
  8
0
 10
-15.5562
 20
162.212
 11
-15.3373
 21
162.268
  0
LINE
  8
0
 10
-15.3373
 20
162.268
 11
-15.113
 21
162.296
  0
LINE
  8
0
 10
-15.113
 20
162.296
 11
-14.887
 21
162.296
  0
LINE
  8
0
 10
-14.887
 20
162.296
 11
-14.6627
 21
162.268
  0
LINE
  8
0
 10
-14.6627
 20
162.268
 11
-14.4438
 21
162.212
  0
LINE
  8
0
 10
-14.4438
 20
162.212
 11
-14.2336
 21
162.129
  0
LINE
  8
0
 10
-14.2336
 20
162.129
 11
-14.0355
 21
162.02
  0
LINE
  8
0
 10
-14.0355
 20
162.02
 11
-13.8526
 21
161.887
  0
LINE
  8
0
 10
-13.8526
 20
161.887
 11
-13.6879
 21
161.732
  0
LINE
  8
0
 10
-13.6879
 20
161.732
 11
-13.5438
 21
161.558
  0
LINE
  8
0
 10
-13.5438
 20
161.558
 11
-13.4226
 21
161.367
  0
LINE
  8
0
 10
-13.4226
 20
161.367
 11
-13.3264
 21
161.163
  0
LINE
  8
0
 10
-13.3264
 20
161.163
 11
-13.2565
 21
160.948
  0
LINE
  8
0
 10
-13.2565
 20
160.948
 11
-13.2142
 21
160.726
  0
LINE
  8
0
 10
-13.2142
 20
160.726
 11
-13.2
 21
160.5
  0
LINE
  8
0
 10
-13.2
 20
160.5
 11
-13.2142
 21
160.274
  0
LINE
  8
0
 10
-13.2142
 20
160.274
 11
-13.2565
 21
160.052
  0
LINE
  8
0
 10
-13.2565
 20
160.052
 11
-13.3264
 21
159.837
  0
LINE
  8
0
 10
-13.3264
 20
159.837
 11
-13.4226
 21
159.633
  0
LINE
  8
0
 10
-13.4226
 20
159.633
 11
-13.5438
 21
159.442
  0
LINE
  8
0
 10
-13.5438
 20
159.442
 11
-13.6879
 21
159.268
  0
LINE
  8
0
 10
-13.6879
 20
159.268
 11
-13.8526
 21
159.113
  0
LINE
  8
0
 10
-13.8526
 20
159.113
 11
-14.0355
 21
158.98
  0
LINE
  8
0
 10
-14.0355
 20
158.98
 11
-14.2336
 21
158.871
  0
LINE
  8
0
 10
-14.2336
 20
158.871
 11
-14.4438
 21
158.788
  0
LINE
  8
0
 10
-14.4438
 20
158.788
 11
-14.6627
 21
158.732
  0
LINE
  8
0
 10
-14.6627
 20
158.732
 11
-14.887
 21
158.704
  0
LINE
  8
0
 10
-14.887
 20
158.704
 11
-15.113
 21
158.704
  0
ENDSEC
  0
SECTION
  2
OBJECTS
  0
DICTIONARY
  0
ENDSEC
  0
EOF
