<?xml version="1.0" standalone="no"?>
<!DOCTYPE svg PUBLIC "-//W3C//DTD SVG 1.1//EN" "http://www.w3.org/Graphics/SVG/1.1/DTD/svg11.dtd">
<svg width="137mm" height="112mm" viewBox="-69 -224 137 112" xmlns="http://www.w3.org/2000/svg" version="1.1">
<title>OpenSCAD Model</title>
<path d="
M -66,-209.941 L -65.6871,-209.647 L -65.1791,-209.278 L -64.6289,-208.976 L -64.0451,-208.745 L -63.4369,-208.589
 L -62.8139,-208.51 L 62.8139,-208.51 L 63.4369,-208.589 L 64.0451,-208.745 L 64.6289,-208.976 L 65.1791,-209.278
 L 65.6871,-209.647 L 66.1448,-210.077 L 66.5451,-210.561 L 66.8815,-211.091 L 67.1489,-211.659 L 67.3429,-212.257
 L 67.4606,-212.873 L 67.5,-213.5 L 67.5,-218.5 L 67.4606,-219.127 L 67.3429,-219.743 L 67.1489,-220.341
 L 66.8815,-220.909 L 66.5451,-221.439 L 66.1448,-221.923 L 65.6871,-222.353 L 65.1791,-222.722 L 64.6289,-223.024
 L 64.0451,-223.255 L 63.4369,-223.411 L 62.8139,-223.49 L -62.8139,-223.49 L -63.4369,-223.411 L -64.0451,-223.255
 L -64.6289,-223.024 L -65.1791,-222.722 L -65.6871,-222.353 L -66,-222.059 L -66,-223.49 L -69,-223.49
 L -69,-208.51 L -66,-208.51 z
M -62.2512,-210.008 L -62.7495,-210.071 L -63.2361,-210.196 L -63.7031,-210.381 L -64.1433,-210.623 L -64.5497,-210.918
 L -64.9159,-211.262 L -65.2361,-211.649 L -65.5052,-212.073 L -65.7191,-212.528 L -65.8743,-213.005 L -65.9685,-213.499
 L -66,-214 L -66,-218 L -65.9685,-218.501 L -65.8743,-218.995 L -65.7191,-219.472 L -65.5052,-219.927
 L -65.2361,-220.351 L -64.9159,-220.738 L -64.5497,-221.082 L -64.1433,-221.377 L -63.7031,-221.619 L -63.2361,-221.804
 L -62.7495,-221.929 L -62.2512,-221.992 L 62.2512,-221.992 L 62.7495,-221.929 L 63.2361,-221.804 L 63.7031,-221.619
 L 64.1433,-221.377 L 64.5497,-221.082 L 64.9159,-220.738 L 65.2361,-220.351 L 65.5052,-219.927 L 65.7191,-219.472
 L 65.8743,-218.995 L 65.9685,-218.501 L 66,-218 L 66,-214 L 65.9685,-213.499 L 65.8743,-213.005
 L 65.7191,-212.528 L 65.5052,-212.073 L 65.2361,-211.649 L 64.9159,-211.262 L 64.5497,-210.918 L 64.1433,-210.623
 L 63.7031,-210.381 L 63.2361,-210.196 L 62.7495,-210.071 L 62.2512,-210.008 z
M -66,-185.941 L -65.6871,-185.647 L -65.1791,-185.278 L -64.6289,-184.976 L -64.0451,-184.745 L -63.4369,-184.589
 L -62.8139,-184.51 L 62.8139,-184.51 L 63.4369,-184.589 L 64.0451,-184.745 L 64.6289,-184.976 L 65.1791,-185.278
 L 65.6871,-185.647 L 66.1448,-186.077 L 66.5451,-186.561 L 66.8815,-187.091 L 67.1489,-187.659 L 67.3429,-188.257
 L 67.4606,-188.873 L 67.5,-189.5 L 67.5,-194.5 L 67.4606,-195.127 L 67.3429,-195.743 L 67.1489,-196.341
 L 66.8815,-196.909 L 66.5451,-197.439 L 66.1448,-197.923 L 65.6871,-198.353 L 65.1791,-198.722 L 64.6289,-199.024
 L 64.0451,-199.255 L 63.4369,-199.411 L 62.8139,-199.49 L -62.8139,-199.49 L -63.4369,-199.411 L -64.0451,-199.255
 L -64.6289,-199.024 L -65.1791,-198.722 L -65.6871,-198.353 L -66,-198.059 L -66,-199.49 L -69,-199.49
 L -69,-184.51 L -66,-184.51 z
M -62.2512,-186.008 L -62.7495,-186.071 L -63.2361,-186.196 L -63.7031,-186.381 L -64.1433,-186.623 L -64.5497,-186.918
 L -64.9159,-187.262 L -65.2361,-187.649 L -65.5052,-188.073 L -65.7191,-188.528 L -65.8743,-189.005 L -65.9685,-189.499
 L -66,-190 L -66,-194 L -65.9685,-194.501 L -65.8743,-194.995 L -65.7191,-195.472 L -65.5052,-195.927
 L -65.2361,-196.351 L -64.9159,-196.738 L -64.5497,-197.082 L -64.1433,-197.377 L -63.7031,-197.619 L -63.2361,-197.804
 L -62.7495,-197.929 L -62.2512,-197.992 L 62.2512,-197.992 L 62.7495,-197.929 L 63.2361,-197.804 L 63.7031,-197.619
 L 64.1433,-197.377 L 64.5497,-197.082 L 64.9159,-196.738 L 65.2361,-196.351 L 65.5052,-195.927 L 65.7191,-195.472
 L 65.8743,-194.995 L 65.9685,-194.501 L 66,-194 L 66,-190 L 65.9685,-189.499 L 65.8743,-189.005
 L 65.7191,-188.528 L 65.5052,-188.073 L 65.2361,-187.649 L 64.9159,-187.262 L 64.5497,-186.918 L 64.1433,-186.623
 L 63.7031,-186.381 L 63.2361,-186.196 L 62.7495,-186.071 L 62.2512,-186.008 z
M -66,-161.941 L -65.6871,-161.647 L -65.1791,-161.278 L -64.6289,-160.976 L -64.0451,-160.745 L -63.4369,-160.589
 L -62.8139,-160.51 L 62.8139,-160.51 L 63.4369,-160.589 L 64.0451,-160.745 L 64.6289,-160.976 L 65.1791,-161.278
 L 65.6871,-161.647 L 66.1448,-162.077 L 66.5451,-162.561 L 66.8815,-163.091 L 67.1489,-163.659 L 67.3429,-164.257
 L 67.4606,-164.873 L 67.5,-165.5 L 67.5,-170.5 L 67.4606,-171.127 L 67.3429,-171.743 L 67.1489,-172.341
 L 66.8815,-172.909 L 66.5451,-173.439 L 66.1448,-173.923 L 65.6871,-174.353 L 65.1791,-174.722 L 64.6289,-175.024
 L 64.0451,-175.255 L 63.4369,-175.411 L 62.8139,-175.49 L -62.8139,-175.49 L -63.4369,-175.411 L -64.0451,-175.255
 L -64.6289,-175.024 L -65.1791,-174.722 L -65.6871,-174.353 L -66,-174.059 L -66,-175.49 L -69,-175.49
 L -69,-160.51 L -66,-160.51 z
M -62.2512,-162.008 L -62.7495,-162.071 L -63.2361,-162.196 L -63.7031,-162.381 L -64.1433,-162.623 L -64.5497,-162.918
 L -64.9159,-163.262 L -65.2361,-163.649 L -65.5052,-164.073 L -65.7191,-164.528 L -65.8743,-165.005 L -65.9685,-165.499
 L -66,-166 L -66,-170 L -65.9685,-170.501 L -65.8743,-170.995 L -65.7191,-171.472 L -65.5052,-171.927
 L -65.2361,-172.351 L -64.9159,-172.738 L -64.5497,-173.082 L -64.1433,-173.377 L -63.7031,-173.619 L -63.2361,-173.804
 L -62.7495,-173.929 L -62.2512,-173.992 L 62.2512,-173.992 L 62.7495,-173.929 L 63.2361,-173.804 L 63.7031,-173.619
 L 64.1433,-173.377 L 64.5497,-173.082 L 64.9159,-172.738 L 65.2361,-172.351 L 65.5052,-171.927 L 65.7191,-171.472
 L 65.8743,-170.995 L 65.9685,-170.501 L 66,-170 L 66,-166 L 65.9685,-165.499 L 65.8743,-165.005
 L 65.7191,-164.528 L 65.5052,-164.073 L 65.2361,-163.649 L 64.9159,-163.262 L 64.5497,-162.918 L 64.1433,-162.623
 L 63.7031,-162.381 L 63.2361,-162.196 L 62.7495,-162.071 L 62.2512,-162.008 z
M 63.4369,-136.589 L 64.0451,-136.745 L 64.6289,-136.976 L 65.1791,-137.278 L 65.6871,-137.647 L 66.1448,-138.077
 L 66.5451,-138.561 L 66.8815,-139.091 L 67.1489,-139.659 L 67.3429,-140.257 L 67.4606,-140.873 L 67.5,-141.5
 L 67.5,-146.5 L 67.4606,-147.127 L 67.3429,-147.743 L 67.1489,-148.341 L 66.8815,-148.909 L 66.5451,-149.439
 L 66.1448,-149.923 L 65.6871,-150.353 L 65.1791,-150.722 L 64.6289,-151.024 L 64.0451,-151.255 L 63.4369,-151.411
 L 62.8139,-151.49 L -62.8139,-151.49 L -63.4369,-151.411 L -64.0451,-151.255 L -64.6289,-151.024 L -65.1791,-150.722
 L -65.6871,-150.353 L -66,-150.059 L -66,-151.479 L -69,-151.479 L -69,-136.521 L -66,-136.521
 L -66,-137.941 L -65.6871,-137.647 L -65.1791,-137.278 L -64.6289,-136.976 L -64.0451,-136.745 L -63.4369,-136.589
 L -62.8139,-136.51 L 62.8139,-136.51 z
M -62.1954,-138.893 L -62.5833,-138.942 L -62.9619,-139.039 L -63.3254,-139.183 L -63.668,-139.372 L -63.9842,-139.601
 L -64.2692,-139.869 L -64.5184,-140.17 L -64.7279,-140.5 L -64.8943,-140.854 L -65.0151,-141.226 L -65.0884,-141.61
 L -65.1129,-142 L -65.1129,-146 L -65.0884,-146.39 L -65.0151,-146.774 L -64.8943,-147.146 L -64.7279,-147.5
 L -64.5184,-147.83 L -64.2692,-148.131 L -63.9842,-148.399 L -63.668,-148.628 L -63.3254,-148.817 L -62.9619,-148.961
 L -62.5833,-149.058 L -62.1954,-149.107 L 62.1954,-149.107 L 62.5833,-149.058 L 62.9619,-148.961 L 63.3254,-148.817
 L 63.668,-148.628 L 63.9842,-148.399 L 64.2692,-148.131 L 64.5184,-147.83 L 64.7279,-147.5 L 64.8943,-147.146
 L 65.0151,-146.774 L 65.0884,-146.39 L 65.1129,-146 L 65.1129,-142 L 65.0884,-141.61 L 65.0151,-141.226
 L 64.8943,-140.854 L 64.7279,-140.5 L 64.5184,-140.17 L 64.2692,-139.869 L 63.9842,-139.601 L 63.668,-139.372
 L 63.3254,-139.183 L 62.9619,-139.039 L 62.5833,-138.942 L 62.1954,-138.893 z
M 63.4369,-112.589 L 64.0451,-112.745 L 64.6289,-112.976 L 65.1791,-113.278 L 65.6871,-113.647 L 66.1448,-114.077
 L 66.5451,-114.561 L 66.8815,-115.091 L 67.1489,-115.659 L 67.3429,-116.257 L 67.4606,-116.873 L 67.5,-117.5
 L 67.5,-122.5 L 67.4606,-123.127 L 67.3429,-123.743 L 67.1489,-124.341 L 66.8815,-124.909 L 66.5451,-125.439
 L 66.1448,-125.923 L 65.6871,-126.353 L 65.1791,-126.722 L 64.6289,-127.024 L 64.0451,-127.255 L 63.4369,-127.411
 L 62.8139,-127.49 L -62.8139,-127.49 L -63.4369,-127.411 L -64.0451,-127.255 L -64.6289,-127.024 L -65.1791,-126.722
 L -65.6871,-126.353 L -66,-126.059 L -66,-126.153 L -69,-126.153 L -69,-113.847 L -66,-113.847
 L -66,-113.941 L -65.6871,-113.647 L -65.1791,-113.278 L -64.6289,-112.976 L -64.0451,-112.745 L -63.4369,-112.589
 L -62.8139,-112.51 L 62.8139,-112.51 z
M -60.1341,-117.869 L -60.4001,-117.903 L -60.6598,-117.969 L -60.9092,-118.068 L -61.1441,-118.197 L -61.3611,-118.355
 L -61.5565,-118.538 L -61.7275,-118.745 L -61.8712,-118.971 L -61.9853,-119.214 L -62.0682,-119.469 L -62.1185,-119.732
 L -62.1353,-120 L -62.1185,-120.268 L -62.0682,-120.531 L -61.9853,-120.786 L -61.8712,-121.029 L -61.7275,-121.255
 L -61.5565,-121.462 L -61.3611,-121.645 L -61.1441,-121.803 L -60.9092,-121.932 L -60.6598,-122.031 L -60.4001,-122.097
 L -60.1341,-122.131 L -59.8659,-122.131 L -59.5999,-122.097 L -59.3401,-122.031 L -59.0908,-121.932 L -58.8559,-121.803
 L -58.6389,-121.645 L -58.4434,-121.462 L -58.2725,-121.255 L -58.1288,-121.029 L -58.0146,-120.786 L -57.9318,-120.531
 L -57.8815,-120.268 L -57.8647,-120 L -57.8815,-119.732 L -57.9318,-119.469 L -58.0146,-119.214 L -58.1288,-118.971
 L -58.2725,-118.745 L -58.4434,-118.538 L -58.6389,-118.355 L -58.8559,-118.197 L -59.0908,-118.068 L -59.3401,-117.969
 L -59.5999,-117.903 L -59.8659,-117.869 z
M 59.8659,-117.869 L 59.5999,-117.903 L 59.3401,-117.969 L 59.0908,-118.068 L 58.8559,-118.197 L 58.6389,-118.355
 L 58.4434,-118.538 L 58.2725,-118.745 L 58.1288,-118.971 L 58.0146,-119.214 L 57.9318,-119.469 L 57.8815,-119.732
 L 57.8647,-120 L 57.8815,-120.268 L 57.9318,-120.531 L 58.0146,-120.786 L 58.1288,-121.029 L 58.2725,-121.255
 L 58.4434,-121.462 L 58.6389,-121.645 L 58.8559,-121.803 L 59.0908,-121.932 L 59.3401,-122.031 L 59.5999,-122.097
 L 59.8659,-122.131 L 60.1341,-122.131 L 60.4001,-122.097 L 60.6598,-122.031 L 60.9092,-121.932 L 61.1441,-121.803
 L 61.3611,-121.645 L 61.5565,-121.462 L 61.7275,-121.255 L 61.8712,-121.029 L 61.9853,-120.786 L 62.0682,-120.531
 L 62.1185,-120.268 L 62.1353,-120 L 62.1185,-119.732 L 62.0682,-119.469 L 61.9853,-119.214 L 61.8712,-118.971
 L 61.7275,-118.745 L 61.5565,-118.538 L 61.3611,-118.355 L 61.1441,-118.197 L 60.9092,-118.068 L 60.6598,-117.969
 L 60.4001,-117.903 L 60.1341,-117.869 z
" stroke="black" fill="lightgray" stroke-width="0.5"/>
</svg>
