  0
SECTION
  2
BLOCKS
  0
ENDSEC
  0
SECTION
  2
ENTITIES
  0
LINE
  8
0
 10
3.4369
 20
450.089
 11
4.04507
 21
450.245
  0
LINE
  8
0
 10
4.04507
 20
450.245
 11
4.62889
 21
450.476
  0
LINE
  8
0
 10
4.62889
 20
450.476
 11
5.17912
 21
450.778
  0
LINE
  8
0
 10
5.17912
 20
450.778
 11
5.68712
 21
451.147
  0
LINE
  8
0
 10
5.68712
 20
451.147
 11
6.14484
 21
451.577
  0
LINE
  8
0
 10
6.14484
 20
451.577
 11
6.54507
 21
452.061
  0
LINE
  8
0
 10
6.54507
 20
452.061
 11
6.88153
 21
452.591
  0
LINE
  8
0
 10
6.88153
 20
452.591
 11
7.14888
 21
453.159
  0
LINE
  8
0
 10
7.14888
 20
453.159
 11
7.34291
 21
453.757
  0
LINE
  8
0
 10
7.34291
 20
453.757
 11
7.46057
 21
454.373
  0
LINE
  8
0
 10
7.46057
 20
454.373
 11
7.5
 21
455
  0
LINE
  8
0
 10
7.5
 20
455
 11
7.5
 21
535
  0
LINE
  8
0
 10
7.5
 20
535
 11
7.46057
 21
535.627
  0
LINE
  8
0
 10
7.46057
 20
535.627
 11
7.34291
 21
536.243
  0
LINE
  8
0
 10
7.34291
 20
536.243
 11
7.14888
 21
536.841
  0
LINE
  8
0
 10
7.14888
 20
536.841
 11
6.88153
 21
537.409
  0
LINE
  8
0
 10
6.88153
 20
537.409
 11
6.54507
 21
537.939
  0
LINE
  8
0
 10
6.54507
 20
537.939
 11
6.14484
 21
538.423
  0
LINE
  8
0
 10
6.14484
 20
538.423
 11
5.68712
 21
538.853
  0
LINE
  8
0
 10
5.68712
 20
538.853
 11
5.17912
 21
539.222
  0
LINE
  8
0
 10
5.17912
 20
539.222
 11
4.62889
 21
539.524
  0
LINE
  8
0
 10
4.62889
 20
539.524
 11
4.04507
 21
539.755
  0
LINE
  8
0
 10
4.04507
 20
539.755
 11
3.4369
 21
539.911
  0
LINE
  8
0
 10
3.4369
 20
539.911
 11
2.81395
 21
539.99
  0
LINE
  8
0
 10
2.81395
 20
539.99
 11
-2.81395
 21
539.99
  0
LINE
  8
0
 10
-2.81395
 20
539.99
 11
-3.4369
 21
539.911
  0
LINE
  8
0
 10
-3.4369
 20
539.911
 11
-4.04507
 21
539.755
  0
LINE
  8
0
 10
-4.04507
 20
539.755
 11
-4.62889
 21
539.524
  0
LINE
  8
0
 10
-4.62889
 20
539.524
 11
-5.17912
 21
539.222
  0
LINE
  8
0
 10
-5.17912
 20
539.222
 11
-5.68712
 21
538.853
  0
LINE
  8
0
 10
-5.68712
 20
538.853
 11
-6.14484
 21
538.423
  0
LINE
  8
0
 10
-6.14484
 20
538.423
 11
-6.54507
 21
537.939
  0
LINE
  8
0
 10
-6.54507
 20
537.939
 11
-6.88153
 21
537.409
  0
LINE
  8
0
 10
-6.88153
 20
537.409
 11
-7.14888
 21
536.841
  0
LINE
  8
0
 10
-7.14888
 20
536.841
 11
-7.34291
 21
536.243
  0
LINE
  8
0
 10
-7.34291
 20
536.243
 11
-7.46057
 21
535.627
  0
LINE
  8
0
 10
-7.46057
 20
535.627
 11
-7.5
 21
535
  0
LINE
  8
0
 10
-7.5
 20
535
 11
-7.5
 21
455
  0
LINE
  8
0
 10
-7.5
 20
455
 11
-7.46057
 21
454.373
  0
LINE
  8
0
 10
-7.46057
 20
454.373
 11
-7.34291
 21
453.757
  0
LINE
  8
0
 10
-7.34291
 20
453.757
 11
-7.14888
 21
453.159
  0
LINE
  8
0
 10
-7.14888
 20
453.159
 11
-6.88153
 21
452.591
  0
LINE
  8
0
 10
-6.88153
 20
452.591
 11
-6.54507
 21
452.061
  0
LINE
  8
0
 10
-6.54507
 20
452.061
 11
-6.14484
 21
451.577
  0
LINE
  8
0
 10
-6.14484
 20
451.577
 11
-5.68712
 21
451.147
  0
LINE
  8
0
 10
-5.68712
 20
451.147
 11
-5.17912
 21
450.778
  0
LINE
  8
0
 10
-5.17912
 20
450.778
 11
-4.62889
 21
450.476
  0
LINE
  8
0
 10
-4.62889
 20
450.476
 11
-4.04507
 21
450.245
  0
LINE
  8
0
 10
-4.04507
 20
450.245
 11
-3.4369
 21
450.089
  0
LINE
  8
0
 10
-3.4369
 20
450.089
 11
-2.81395
 21
450.01
  0
LINE
  8
0
 10
-2.81395
 20
450.01
 11
2.81395
 21
450.01
  0
LINE
  8
0
 10
2.81395
 20
450.01
 11
3.4369
 21
450.089
  0
LINE
  8
0
 10
-2.25116
 20
451.508
 11
-2.74951
 21
451.571
  0
LINE
  8
0
 10
-2.74951
 20
451.571
 11
-3.23605
 21
451.696
  0
LINE
  8
0
 10
-3.23605
 20
451.696
 11
-3.70311
 21
451.881
  0
LINE
  8
0
 10
-3.70311
 20
451.881
 11
-4.1433
 21
452.123
  0
LINE
  8
0
 10
-4.1433
 20
452.123
 11
-4.54968
 21
452.418
  0
LINE
  8
0
 10
-4.54968
 20
452.418
 11
-4.91586
 21
452.762
  0
LINE
  8
0
 10
-4.91586
 20
452.762
 11
-5.23605
 21
453.149
  0
LINE
  8
0
 10
-5.23605
 20
453.149
 11
-5.50522
 21
453.573
  0
LINE
  8
0
 10
-5.50522
 20
453.573
 11
-5.7191
 21
454.028
  0
LINE
  8
0
 10
-5.7191
 20
454.028
 11
-5.87433
 21
454.505
  0
LINE
  8
0
 10
-5.87433
 20
454.505
 11
-5.96844
 21
454.999
  0
LINE
  8
0
 10
-5.96844
 20
454.999
 11
-6
 21
455.5
  0
LINE
  8
0
 10
-6
 20
455.5
 11
-6
 21
534.5
  0
LINE
  8
0
 10
-6
 20
534.5
 11
-5.96844
 21
535.001
  0
LINE
  8
0
 10
-5.96844
 20
535.001
 11
-5.87433
 21
535.495
  0
LINE
  8
0
 10
-5.87433
 20
535.495
 11
-5.7191
 21
535.972
  0
LINE
  8
0
 10
-5.7191
 20
535.972
 11
-5.50522
 21
536.427
  0
LINE
  8
0
 10
-5.50522
 20
536.427
 11
-5.23605
 21
536.851
  0
LINE
  8
0
 10
-5.23605
 20
536.851
 11
-4.91586
 21
537.238
  0
LINE
  8
0
 10
-4.91586
 20
537.238
 11
-4.54968
 21
537.582
  0
LINE
  8
0
 10
-4.54968
 20
537.582
 11
-4.1433
 21
537.877
  0
LINE
  8
0
 10
-4.1433
 20
537.877
 11
-3.70311
 21
538.119
  0
LINE
  8
0
 10
-3.70311
 20
538.119
 11
-3.23605
 21
538.304
  0
LINE
  8
0
 10
-3.23605
 20
538.304
 11
-2.74951
 21
538.429
  0
LINE
  8
0
 10
-2.74951
 20
538.429
 11
-2.25116
 21
538.492
  0
LINE
  8
0
 10
-2.25116
 20
538.492
 11
2.25116
 21
538.492
  0
LINE
  8
0
 10
2.25116
 20
538.492
 11
2.74951
 21
538.429
  0
LINE
  8
0
 10
2.74951
 20
538.429
 11
3.23605
 21
538.304
  0
LINE
  8
0
 10
3.23605
 20
538.304
 11
3.70311
 21
538.119
  0
LINE
  8
0
 10
3.70311
 20
538.119
 11
4.1433
 21
537.877
  0
LINE
  8
0
 10
4.1433
 20
537.877
 11
4.54968
 21
537.582
  0
LINE
  8
0
 10
4.54968
 20
537.582
 11
4.91586
 21
537.238
  0
LINE
  8
0
 10
4.91586
 20
537.238
 11
5.23605
 21
536.851
  0
LINE
  8
0
 10
5.23605
 20
536.851
 11
5.50522
 21
536.427
  0
LINE
  8
0
 10
5.50522
 20
536.427
 11
5.7191
 21
535.972
  0
LINE
  8
0
 10
5.7191
 20
535.972
 11
5.87433
 21
535.495
  0
LINE
  8
0
 10
5.87433
 20
535.495
 11
5.96844
 21
535.001
  0
LINE
  8
0
 10
5.96844
 20
535.001
 11
6
 21
534.5
  0
LINE
  8
0
 10
6
 20
534.5
 11
6
 21
455.5
  0
LINE
  8
0
 10
6
 20
455.5
 11
5.96844
 21
454.999
  0
LINE
  8
0
 10
5.96844
 20
454.999
 11
5.87433
 21
454.505
  0
LINE
  8
0
 10
5.87433
 20
454.505
 11
5.7191
 21
454.028
  0
LINE
  8
0
 10
5.7191
 20
454.028
 11
5.50522
 21
453.573
  0
LINE
  8
0
 10
5.50522
 20
453.573
 11
5.23605
 21
453.149
  0
LINE
  8
0
 10
5.23605
 20
453.149
 11
4.91586
 21
452.762
  0
LINE
  8
0
 10
4.91586
 20
452.762
 11
4.54968
 21
452.418
  0
LINE
  8
0
 10
4.54968
 20
452.418
 11
4.1433
 21
452.123
  0
LINE
  8
0
 10
4.1433
 20
452.123
 11
3.70311
 21
451.881
  0
LINE
  8
0
 10
3.70311
 20
451.881
 11
3.23605
 21
451.696
  0
LINE
  8
0
 10
3.23605
 20
451.696
 11
2.74951
 21
451.571
  0
LINE
  8
0
 10
2.74951
 20
451.571
 11
2.25116
 21
451.508
  0
LINE
  8
0
 10
2.25116
 20
451.508
 11
-2.25116
 21
451.508
  0
LINE
  8
0
 10
3.4369
 20
351.089
 11
4.04507
 21
351.245
  0
LINE
  8
0
 10
4.04507
 20
351.245
 11
4.62889
 21
351.476
  0
LINE
  8
0
 10
4.62889
 20
351.476
 11
5.17912
 21
351.778
  0
LINE
  8
0
 10
5.17912
 20
351.778
 11
5.68712
 21
352.147
  0
LINE
  8
0
 10
5.68712
 20
352.147
 11
6.14484
 21
352.577
  0
LINE
  8
0
 10
6.14484
 20
352.577
 11
6.54507
 21
353.061
  0
LINE
  8
0
 10
6.54507
 20
353.061
 11
6.88153
 21
353.591
  0
LINE
  8
0
 10
6.88153
 20
353.591
 11
7.14888
 21
354.159
  0
LINE
  8
0
 10
7.14888
 20
354.159
 11
7.34291
 21
354.757
  0
LINE
  8
0
 10
7.34291
 20
354.757
 11
7.46057
 21
355.373
  0
LINE
  8
0
 10
7.46057
 20
355.373
 11
7.5
 21
356
  0
LINE
  8
0
 10
7.5
 20
356
 11
7.5
 21
436
  0
LINE
  8
0
 10
7.5
 20
436
 11
7.46057
 21
436.627
  0
LINE
  8
0
 10
7.46057
 20
436.627
 11
7.34291
 21
437.243
  0
LINE
  8
0
 10
7.34291
 20
437.243
 11
7.14888
 21
437.841
  0
LINE
  8
0
 10
7.14888
 20
437.841
 11
6.88153
 21
438.409
  0
LINE
  8
0
 10
6.88153
 20
438.409
 11
6.54507
 21
438.939
  0
LINE
  8
0
 10
6.54507
 20
438.939
 11
6.14484
 21
439.423
  0
LINE
  8
0
 10
6.14484
 20
439.423
 11
5.68712
 21
439.853
  0
LINE
  8
0
 10
5.68712
 20
439.853
 11
5.17912
 21
440.222
  0
LINE
  8
0
 10
5.17912
 20
440.222
 11
4.62889
 21
440.524
  0
LINE
  8
0
 10
4.62889
 20
440.524
 11
4.04507
 21
440.755
  0
LINE
  8
0
 10
4.04507
 20
440.755
 11
3.4369
 21
440.911
  0
LINE
  8
0
 10
3.4369
 20
440.911
 11
2.81395
 21
440.99
  0
LINE
  8
0
 10
2.81395
 20
440.99
 11
-2.81395
 21
440.99
  0
LINE
  8
0
 10
-2.81395
 20
440.99
 11
-3.4369
 21
440.911
  0
LINE
  8
0
 10
-3.4369
 20
440.911
 11
-4.04507
 21
440.755
  0
LINE
  8
0
 10
-4.04507
 20
440.755
 11
-4.62889
 21
440.524
  0
LINE
  8
0
 10
-4.62889
 20
440.524
 11
-5.17912
 21
440.222
  0
LINE
  8
0
 10
-5.17912
 20
440.222
 11
-5.68712
 21
439.853
  0
LINE
  8
0
 10
-5.68712
 20
439.853
 11
-6.14484
 21
439.423
  0
LINE
  8
0
 10
-6.14484
 20
439.423
 11
-6.54507
 21
438.939
  0
LINE
  8
0
 10
-6.54507
 20
438.939
 11
-6.88153
 21
438.409
  0
LINE
  8
0
 10
-6.88153
 20
438.409
 11
-7.14888
 21
437.841
  0
LINE
  8
0
 10
-7.14888
 20
437.841
 11
-7.34291
 21
437.243
  0
LINE
  8
0
 10
-7.34291
 20
437.243
 11
-7.46057
 21
436.627
  0
LINE
  8
0
 10
-7.46057
 20
436.627
 11
-7.5
 21
436
  0
LINE
  8
0
 10
-7.5
 20
436
 11
-7.5
 21
356
  0
LINE
  8
0
 10
-7.5
 20
356
 11
-7.46057
 21
355.373
  0
LINE
  8
0
 10
-7.46057
 20
355.373
 11
-7.34291
 21
354.757
  0
LINE
  8
0
 10
-7.34291
 20
354.757
 11
-7.14888
 21
354.159
  0
LINE
  8
0
 10
-7.14888
 20
354.159
 11
-6.88153
 21
353.591
  0
LINE
  8
0
 10
-6.88153
 20
353.591
 11
-6.54507
 21
353.061
  0
LINE
  8
0
 10
-6.54507
 20
353.061
 11
-6.14484
 21
352.577
  0
LINE
  8
0
 10
-6.14484
 20
352.577
 11
-5.68712
 21
352.147
  0
LINE
  8
0
 10
-5.68712
 20
352.147
 11
-5.17912
 21
351.778
  0
LINE
  8
0
 10
-5.17912
 20
351.778
 11
-4.62889
 21
351.476
  0
LINE
  8
0
 10
-4.62889
 20
351.476
 11
-4.04507
 21
351.245
  0
LINE
  8
0
 10
-4.04507
 20
351.245
 11
-3.4369
 21
351.089
  0
LINE
  8
0
 10
-3.4369
 20
351.089
 11
-2.81395
 21
351.01
  0
LINE
  8
0
 10
-2.81395
 20
351.01
 11
2.81395
 21
351.01
  0
LINE
  8
0
 10
2.81395
 20
351.01
 11
3.4369
 21
351.089
  0
LINE
  8
0
 10
-2.19545
 20
353.393
 11
-2.5833
 21
353.442
  0
LINE
  8
0
 10
-2.5833
 20
353.442
 11
-2.96194
 21
353.539
  0
LINE
  8
0
 10
-2.96194
 20
353.539
 11
-3.32541
 21
353.683
  0
LINE
  8
0
 10
-3.32541
 20
353.683
 11
-3.66798
 21
353.872
  0
LINE
  8
0
 10
-3.66798
 20
353.872
 11
-3.98424
 21
354.101
  0
LINE
  8
0
 10
-3.98424
 20
354.101
 11
-4.26921
 21
354.369
  0
LINE
  8
0
 10
-4.26921
 20
354.369
 11
-4.5184
 21
354.67
  0
LINE
  8
0
 10
-4.5184
 20
354.67
 11
-4.72786
 21
355
  0
LINE
  8
0
 10
-4.72786
 20
355
 11
-4.89432
 21
355.354
  0
LINE
  8
0
 10
-4.89432
 20
355.354
 11
-5.01512
 21
355.726
  0
LINE
  8
0
 10
-5.01512
 20
355.726
 11
-5.08836
 21
356.11
  0
LINE
  8
0
 10
-5.08836
 20
356.11
 11
-5.11292
 21
356.5
  0
LINE
  8
0
 10
-5.11292
 20
356.5
 11
-5.11292
 21
435.5
  0
LINE
  8
0
 10
-5.11292
 20
435.5
 11
-5.08836
 21
435.89
  0
LINE
  8
0
 10
-5.08836
 20
435.89
 11
-5.01512
 21
436.274
  0
LINE
  8
0
 10
-5.01512
 20
436.274
 11
-4.89432
 21
436.646
  0
LINE
  8
0
 10
-4.89432
 20
436.646
 11
-4.72786
 21
437
  0
LINE
  8
0
 10
-4.72786
 20
437
 11
-4.5184
 21
437.33
  0
LINE
  8
0
 10
-4.5184
 20
437.33
 11
-4.26921
 21
437.631
  0
LINE
  8
0
 10
-4.26921
 20
437.631
 11
-3.98424
 21
437.899
  0
LINE
  8
0
 10
-3.98424
 20
437.899
 11
-3.66798
 21
438.128
  0
LINE
  8
0
 10
-3.66798
 20
438.128
 11
-3.32541
 21
438.317
  0
LINE
  8
0
 10
-3.32541
 20
438.317
 11
-2.96194
 21
438.461
  0
LINE
  8
0
 10
-2.96194
 20
438.461
 11
-2.5833
 21
438.558
  0
LINE
  8
0
 10
-2.5833
 20
438.558
 11
-2.19545
 21
438.607
  0
LINE
  8
0
 10
-2.19545
 20
438.607
 11
2.19545
 21
438.607
  0
LINE
  8
0
 10
2.19545
 20
438.607
 11
2.5833
 21
438.558
  0
LINE
  8
0
 10
2.5833
 20
438.558
 11
2.96194
 21
438.461
  0
LINE
  8
0
 10
2.96194
 20
438.461
 11
3.32541
 21
438.317
  0
LINE
  8
0
 10
3.32541
 20
438.317
 11
3.66798
 21
438.128
  0
LINE
  8
0
 10
3.66798
 20
438.128
 11
3.98424
 21
437.899
  0
LINE
  8
0
 10
3.98424
 20
437.899
 11
4.26921
 21
437.631
  0
LINE
  8
0
 10
4.26921
 20
437.631
 11
4.5184
 21
437.33
  0
LINE
  8
0
 10
4.5184
 20
437.33
 11
4.72786
 21
437
  0
LINE
  8
0
 10
4.72786
 20
437
 11
4.89432
 21
436.646
  0
LINE
  8
0
 10
4.89432
 20
436.646
 11
5.01512
 21
436.274
  0
LINE
  8
0
 10
5.01512
 20
436.274
 11
5.08836
 21
435.89
  0
LINE
  8
0
 10
5.08836
 20
435.89
 11
5.11292
 21
435.5
  0
LINE
  8
0
 10
5.11292
 20
435.5
 11
5.11292
 21
356.5
  0
LINE
  8
0
 10
5.11292
 20
356.5
 11
5.08836
 21
356.11
  0
LINE
  8
0
 10
5.08836
 20
356.11
 11
5.01512
 21
355.726
  0
LINE
  8
0
 10
5.01512
 20
355.726
 11
4.89432
 21
355.354
  0
LINE
  8
0
 10
4.89432
 20
355.354
 11
4.72786
 21
355
  0
LINE
  8
0
 10
4.72786
 20
355
 11
4.5184
 21
354.67
  0
LINE
  8
0
 10
4.5184
 20
354.67
 11
4.26921
 21
354.369
  0
LINE
  8
0
 10
4.26921
 20
354.369
 11
3.98424
 21
354.101
  0
LINE
  8
0
 10
3.98424
 20
354.101
 11
3.66798
 21
353.872
  0
LINE
  8
0
 10
3.66798
 20
353.872
 11
3.32541
 21
353.683
  0
LINE
  8
0
 10
3.32541
 20
353.683
 11
2.96194
 21
353.539
  0
LINE
  8
0
 10
2.96194
 20
353.539
 11
2.5833
 21
353.442
  0
LINE
  8
0
 10
2.5833
 20
353.442
 11
2.19545
 21
353.393
  0
LINE
  8
0
 10
2.19545
 20
353.393
 11
-2.19545
 21
353.393
  0
LINE
  8
0
 10
3.4369
 20
252.089
 11
4.04507
 21
252.245
  0
LINE
  8
0
 10
4.04507
 20
252.245
 11
4.62889
 21
252.476
  0
LINE
  8
0
 10
4.62889
 20
252.476
 11
5.17912
 21
252.778
  0
LINE
  8
0
 10
5.17912
 20
252.778
 11
5.68712
 21
253.147
  0
LINE
  8
0
 10
5.68712
 20
253.147
 11
6.14484
 21
253.577
  0
LINE
  8
0
 10
6.14484
 20
253.577
 11
6.54507
 21
254.061
  0
LINE
  8
0
 10
6.54507
 20
254.061
 11
6.88153
 21
254.591
  0
LINE
  8
0
 10
6.88153
 20
254.591
 11
7.14888
 21
255.159
  0
LINE
  8
0
 10
7.14888
 20
255.159
 11
7.34291
 21
255.757
  0
LINE
  8
0
 10
7.34291
 20
255.757
 11
7.46057
 21
256.373
  0
LINE
  8
0
 10
7.46057
 20
256.373
 11
7.5
 21
257
  0
LINE
  8
0
 10
7.5
 20
257
 11
7.5
 21
337
  0
LINE
  8
0
 10
7.5
 20
337
 11
7.46057
 21
337.627
  0
LINE
  8
0
 10
7.46057
 20
337.627
 11
7.34291
 21
338.243
  0
LINE
  8
0
 10
7.34291
 20
338.243
 11
7.14888
 21
338.841
  0
LINE
  8
0
 10
7.14888
 20
338.841
 11
6.88153
 21
339.409
  0
LINE
  8
0
 10
6.88153
 20
339.409
 11
6.54507
 21
339.939
  0
LINE
  8
0
 10
6.54507
 20
339.939
 11
6.14484
 21
340.423
  0
LINE
  8
0
 10
6.14484
 20
340.423
 11
5.68712
 21
340.853
  0
LINE
  8
0
 10
5.68712
 20
340.853
 11
5.17912
 21
341.222
  0
LINE
  8
0
 10
5.17912
 20
341.222
 11
4.62889
 21
341.524
  0
LINE
  8
0
 10
4.62889
 20
341.524
 11
4.04507
 21
341.755
  0
LINE
  8
0
 10
4.04507
 20
341.755
 11
3.4369
 21
341.911
  0
LINE
  8
0
 10
3.4369
 20
341.911
 11
2.81395
 21
341.99
  0
LINE
  8
0
 10
2.81395
 20
341.99
 11
-2.81395
 21
341.99
  0
LINE
  8
0
 10
-2.81395
 20
341.99
 11
-3.4369
 21
341.911
  0
LINE
  8
0
 10
-3.4369
 20
341.911
 11
-4.04507
 21
341.755
  0
LINE
  8
0
 10
-4.04507
 20
341.755
 11
-4.62889
 21
341.524
  0
LINE
  8
0
 10
-4.62889
 20
341.524
 11
-5.17912
 21
341.222
  0
LINE
  8
0
 10
-5.17912
 20
341.222
 11
-5.68712
 21
340.853
  0
LINE
  8
0
 10
-5.68712
 20
340.853
 11
-6.14484
 21
340.423
  0
LINE
  8
0
 10
-6.14484
 20
340.423
 11
-6.54507
 21
339.939
  0
LINE
  8
0
 10
-6.54507
 20
339.939
 11
-6.88153
 21
339.409
  0
LINE
  8
0
 10
-6.88153
 20
339.409
 11
-7.14888
 21
338.841
  0
LINE
  8
0
 10
-7.14888
 20
338.841
 11
-7.34291
 21
338.243
  0
LINE
  8
0
 10
-7.34291
 20
338.243
 11
-7.46057
 21
337.627
  0
LINE
  8
0
 10
-7.46057
 20
337.627
 11
-7.5
 21
337
  0
LINE
  8
0
 10
-7.5
 20
337
 11
-7.5
 21
257
  0
LINE
  8
0
 10
-7.5
 20
257
 11
-7.46057
 21
256.373
  0
LINE
  8
0
 10
-7.46057
 20
256.373
 11
-7.34291
 21
255.757
  0
LINE
  8
0
 10
-7.34291
 20
255.757
 11
-7.14888
 21
255.159
  0
LINE
  8
0
 10
-7.14888
 20
255.159
 11
-6.88153
 21
254.591
  0
LINE
  8
0
 10
-6.88153
 20
254.591
 11
-6.54507
 21
254.061
  0
LINE
  8
0
 10
-6.54507
 20
254.061
 11
-6.14484
 21
253.577
  0
LINE
  8
0
 10
-6.14484
 20
253.577
 11
-5.68712
 21
253.147
  0
LINE
  8
0
 10
-5.68712
 20
253.147
 11
-5.17912
 21
252.778
  0
LINE
  8
0
 10
-5.17912
 20
252.778
 11
-4.62889
 21
252.476
  0
LINE
  8
0
 10
-4.62889
 20
252.476
 11
-4.04507
 21
252.245
  0
LINE
  8
0
 10
-4.04507
 20
252.245
 11
-3.4369
 21
252.089
  0
LINE
  8
0
 10
-3.4369
 20
252.089
 11
-2.81395
 21
252.01
  0
LINE
  8
0
 10
-2.81395
 20
252.01
 11
2.81395
 21
252.01
  0
LINE
  8
0
 10
2.81395
 20
252.01
 11
3.4369
 21
252.089
  0
LINE
  8
0
 10
-0.134064
 20
332.369
 11
-0.400101
 21
332.403
  0
LINE
  8
0
 10
-0.400101
 20
332.403
 11
-0.659836
 21
332.469
  0
LINE
  8
0
 10
-0.659836
 20
332.469
 11
-0.909149
 21
332.568
  0
LINE
  8
0
 10
-0.909149
 20
332.568
 11
-1.14413
 21
332.697
  0
LINE
  8
0
 10
-1.14413
 20
332.697
 11
-1.36108
 21
332.855
  0
LINE
  8
0
 10
-1.36108
 20
332.855
 11
-1.55655
 21
333.038
  0
LINE
  8
0
 10
-1.55655
 20
333.038
 11
-1.72748
 21
333.245
  0
LINE
  8
0
 10
-1.72748
 20
333.245
 11
-1.87117
 21
333.471
  0
LINE
  8
0
 10
-1.87117
 20
333.471
 11
-1.98534
 21
333.714
  0
LINE
  8
0
 10
-1.98534
 20
333.714
 11
-2.06821
 21
333.969
  0
LINE
  8
0
 10
-2.06821
 20
333.969
 11
-2.11845
 21
334.232
  0
LINE
  8
0
 10
-2.11845
 20
334.232
 11
-2.13528
 21
334.5
  0
LINE
  8
0
 10
-2.13528
 20
334.5
 11
-2.11845
 21
334.768
  0
LINE
  8
0
 10
-2.11845
 20
334.768
 11
-2.06821
 21
335.031
  0
LINE
  8
0
 10
-2.06821
 20
335.031
 11
-1.98534
 21
335.286
  0
LINE
  8
0
 10
-1.98534
 20
335.286
 11
-1.87117
 21
335.529
  0
LINE
  8
0
 10
-1.87117
 20
335.529
 11
-1.72748
 21
335.755
  0
LINE
  8
0
 10
-1.72748
 20
335.755
 11
-1.55655
 21
335.962
  0
LINE
  8
0
 10
-1.55655
 20
335.962
 11
-1.36108
 21
336.145
  0
LINE
  8
0
 10
-1.36108
 20
336.145
 11
-1.14413
 21
336.303
  0
LINE
  8
0
 10
-1.14413
 20
336.303
 11
-0.909149
 21
336.432
  0
LINE
  8
0
 10
-0.909149
 20
336.432
 11
-0.659836
 21
336.531
  0
LINE
  8
0
 10
-0.659836
 20
336.531
 11
-0.400101
 21
336.597
  0
LINE
  8
0
 10
-0.400101
 20
336.597
 11
-0.134064
 21
336.631
  0
LINE
  8
0
 10
-0.134064
 20
336.631
 11
0.134064
 21
336.631
  0
LINE
  8
0
 10
0.134064
 20
336.631
 11
0.400101
 21
336.597
  0
LINE
  8
0
 10
0.400101
 20
336.597
 11
0.659836
 21
336.531
  0
LINE
  8
0
 10
0.659836
 20
336.531
 11
0.909149
 21
336.432
  0
LINE
  8
0
 10
0.909149
 20
336.432
 11
1.14413
 21
336.303
  0
LINE
  8
0
 10
1.14413
 20
336.303
 11
1.36108
 21
336.145
  0
LINE
  8
0
 10
1.36108
 20
336.145
 11
1.55655
 21
335.962
  0
LINE
  8
0
 10
1.55655
 20
335.962
 11
1.72748
 21
335.755
  0
LINE
  8
0
 10
1.72748
 20
335.755
 11
1.87117
 21
335.529
  0
LINE
  8
0
 10
1.87117
 20
335.529
 11
1.98534
 21
335.286
  0
LINE
  8
0
 10
1.98534
 20
335.286
 11
2.06821
 21
335.031
  0
LINE
  8
0
 10
2.06821
 20
335.031
 11
2.11845
 21
334.768
  0
LINE
  8
0
 10
2.11845
 20
334.768
 11
2.13528
 21
334.5
  0
LINE
  8
0
 10
2.13528
 20
334.5
 11
2.11845
 21
334.232
  0
LINE
  8
0
 10
2.11845
 20
334.232
 11
2.06821
 21
333.969
  0
LINE
  8
0
 10
2.06821
 20
333.969
 11
1.98534
 21
333.714
  0
LINE
  8
0
 10
1.98534
 20
333.714
 11
1.87117
 21
333.471
  0
LINE
  8
0
 10
1.87117
 20
333.471
 11
1.72748
 21
333.245
  0
LINE
  8
0
 10
1.72748
 20
333.245
 11
1.55655
 21
333.038
  0
LINE
  8
0
 10
1.55655
 20
333.038
 11
1.36108
 21
332.855
  0
LINE
  8
0
 10
1.36108
 20
332.855
 11
1.14413
 21
332.697
  0
LINE
  8
0
 10
1.14413
 20
332.697
 11
0.909149
 21
332.568
  0
LINE
  8
0
 10
0.909149
 20
332.568
 11
0.659836
 21
332.469
  0
LINE
  8
0
 10
0.659836
 20
332.469
 11
0.400101
 21
332.403
  0
LINE
  8
0
 10
0.400101
 20
332.403
 11
0.134064
 21
332.369
  0
LINE
  8
0
 10
0.134064
 20
332.369
 11
-0.134064
 21
332.369
  0
LINE
  8
0
 10
-0.134064
 20
257.369
 11
-0.400101
 21
257.403
  0
LINE
  8
0
 10
-0.400101
 20
257.403
 11
-0.659836
 21
257.469
  0
LINE
  8
0
 10
-0.659836
 20
257.469
 11
-0.909149
 21
257.568
  0
LINE
  8
0
 10
-0.909149
 20
257.568
 11
-1.14413
 21
257.697
  0
LINE
  8
0
 10
-1.14413
 20
257.697
 11
-1.36108
 21
257.855
  0
LINE
  8
0
 10
-1.36108
 20
257.855
 11
-1.55655
 21
258.038
  0
LINE
  8
0
 10
-1.55655
 20
258.038
 11
-1.72748
 21
258.245
  0
LINE
  8
0
 10
-1.72748
 20
258.245
 11
-1.87117
 21
258.471
  0
LINE
  8
0
 10
-1.87117
 20
258.471
 11
-1.98534
 21
258.714
  0
LINE
  8
0
 10
-1.98534
 20
258.714
 11
-2.06821
 21
258.969
  0
LINE
  8
0
 10
-2.06821
 20
258.969
 11
-2.11845
 21
259.232
  0
LINE
  8
0
 10
-2.11845
 20
259.232
 11
-2.13528
 21
259.5
  0
LINE
  8
0
 10
-2.13528
 20
259.5
 11
-2.11845
 21
259.768
  0
LINE
  8
0
 10
-2.11845
 20
259.768
 11
-2.06821
 21
260.031
  0
LINE
  8
0
 10
-2.06821
 20
260.031
 11
-1.98534
 21
260.286
  0
LINE
  8
0
 10
-1.98534
 20
260.286
 11
-1.87117
 21
260.529
  0
LINE
  8
0
 10
-1.87117
 20
260.529
 11
-1.72748
 21
260.755
  0
LINE
  8
0
 10
-1.72748
 20
260.755
 11
-1.55655
 21
260.962
  0
LINE
  8
0
 10
-1.55655
 20
260.962
 11
-1.36108
 21
261.145
  0
LINE
  8
0
 10
-1.36108
 20
261.145
 11
-1.14413
 21
261.303
  0
LINE
  8
0
 10
-1.14413
 20
261.303
 11
-0.909149
 21
261.432
  0
LINE
  8
0
 10
-0.909149
 20
261.432
 11
-0.659836
 21
261.531
  0
LINE
  8
0
 10
-0.659836
 20
261.531
 11
-0.400101
 21
261.597
  0
LINE
  8
0
 10
-0.400101
 20
261.597
 11
-0.134064
 21
261.631
  0
LINE
  8
0
 10
-0.134064
 20
261.631
 11
0.134064
 21
261.631
  0
LINE
  8
0
 10
0.134064
 20
261.631
 11
0.400101
 21
261.597
  0
LINE
  8
0
 10
0.400101
 20
261.597
 11
0.659836
 21
261.531
  0
LINE
  8
0
 10
0.659836
 20
261.531
 11
0.909149
 21
261.432
  0
LINE
  8
0
 10
0.909149
 20
261.432
 11
1.14413
 21
261.303
  0
LINE
  8
0
 10
1.14413
 20
261.303
 11
1.36108
 21
261.145
  0
LINE
  8
0
 10
1.36108
 20
261.145
 11
1.55655
 21
260.962
  0
LINE
  8
0
 10
1.55655
 20
260.962
 11
1.72748
 21
260.755
  0
LINE
  8
0
 10
1.72748
 20
260.755
 11
1.87117
 21
260.529
  0
LINE
  8
0
 10
1.87117
 20
260.529
 11
1.98534
 21
260.286
  0
LINE
  8
0
 10
1.98534
 20
260.286
 11
2.06821
 21
260.031
  0
LINE
  8
0
 10
2.06821
 20
260.031
 11
2.11845
 21
259.768
  0
LINE
  8
0
 10
2.11845
 20
259.768
 11
2.13528
 21
259.5
  0
LINE
  8
0
 10
2.13528
 20
259.5
 11
2.11845
 21
259.232
  0
LINE
  8
0
 10
2.11845
 20
259.232
 11
2.06821
 21
258.969
  0
LINE
  8
0
 10
2.06821
 20
258.969
 11
1.98534
 21
258.714
  0
LINE
  8
0
 10
1.98534
 20
258.714
 11
1.87117
 21
258.471
  0
LINE
  8
0
 10
1.87117
 20
258.471
 11
1.72748
 21
258.245
  0
LINE
  8
0
 10
1.72748
 20
258.245
 11
1.55655
 21
258.038
  0
LINE
  8
0
 10
1.55655
 20
258.038
 11
1.36108
 21
257.855
  0
LINE
  8
0
 10
1.36108
 20
257.855
 11
1.14413
 21
257.697
  0
LINE
  8
0
 10
1.14413
 20
257.697
 11
0.909149
 21
257.568
  0
LINE
  8
0
 10
0.909149
 20
257.568
 11
0.659836
 21
257.469
  0
LINE
  8
0
 10
0.659836
 20
257.469
 11
0.400101
 21
257.403
  0
LINE
  8
0
 10
0.400101
 20
257.403
 11
0.134064
 21
257.369
  0
LINE
  8
0
 10
0.134064
 20
257.369
 11
-0.134064
 21
257.369
  0
ENDSEC
  0
SECTION
  2
OBJECTS
  0
DICTIONARY
  0
ENDSEC
  0
EOF
