<?xml version="1.0" standalone="no"?>
<!DOCTYPE svg PUBLIC "-//W3C//DTD SVG 1.1//EN" "http://www.w3.org/Graphics/SVG/1.1/DTD/svg11.dtd">
<svg width="30mm" height="468mm" viewBox="-15 -870 30 468" xmlns="http://www.w3.org/2000/svg" version="1.1">
<title>OpenSCAD Model</title>
<path d="
M 10.9369,-720.089 L 11.5451,-720.245 L 12.1289,-720.476 L 12.6791,-720.778 L 13.1871,-721.147 L 13.6448,-721.577
 L 14.0451,-722.061 L 14.3815,-722.591 L 14.6489,-723.159 L 14.8429,-723.757 L 14.9606,-724.373 L 15,-725
 L 15,-865 L 14.9606,-865.627 L 14.8429,-866.243 L 14.6489,-866.841 L 14.3815,-867.409 L 14.0451,-867.939
 L 13.6448,-868.423 L 13.1871,-868.853 L 12.6791,-869.222 L 12.1289,-869.524 L 11.5451,-869.755 L 10.9369,-869.911
 L 10.3139,-869.99 L -10.3139,-869.99 L -10.9369,-869.911 L -11.5451,-869.755 L -12.1289,-869.524 L -12.6791,-869.222
 L -13.1871,-868.853 L -13.6448,-868.423 L -14.0451,-867.939 L -14.3815,-867.409 L -14.6489,-866.841 L -14.8429,-866.243
 L -14.9606,-865.627 L -15,-865 L -15,-725 L -14.9606,-724.373 L -14.8429,-723.757 L -14.6489,-723.159
 L -14.3815,-722.591 L -14.0451,-722.061 L -13.6448,-721.577 L -13.1871,-721.147 L -12.6791,-720.778 L -12.1289,-720.476
 L -11.5451,-720.245 L -10.9369,-720.089 L -10.3139,-720.01 L 10.3139,-720.01 z
M -9.75116,-721.508 L -10.2495,-721.571 L -10.7361,-721.696 L -11.2031,-721.881 L -11.6433,-722.123 L -12.0497,-722.418
 L -12.4159,-722.762 L -12.7361,-723.149 L -13.0052,-723.573 L -13.2191,-724.028 L -13.3743,-724.505 L -13.4684,-724.999
 L -13.5,-725.5 L -13.5,-864.5 L -13.4684,-865.001 L -13.3743,-865.495 L -13.2191,-865.972 L -13.0052,-866.427
 L -12.7361,-866.851 L -12.4159,-867.238 L -12.0497,-867.582 L -11.6433,-867.877 L -11.2031,-868.119 L -10.7361,-868.304
 L -10.2495,-868.429 L -9.75116,-868.492 L 9.75116,-868.492 L 10.2495,-868.429 L 10.7361,-868.304 L 11.2031,-868.119
 L 11.6433,-867.877 L 12.0497,-867.582 L 12.4159,-867.238 L 12.7361,-866.851 L 13.0052,-866.427 L 13.2191,-865.972
 L 13.3743,-865.495 L 13.4684,-865.001 L 13.5,-864.5 L 13.5,-725.5 L 13.4684,-724.999 L 13.3743,-724.505
 L 13.2191,-724.028 L 13.0052,-723.573 L 12.7361,-723.149 L 12.4159,-722.762 L 12.0497,-722.418 L 11.6433,-722.123
 L 11.2031,-721.881 L 10.7361,-721.696 L 10.2495,-721.571 L 9.75116,-721.508 z
M 10.9369,-561.089 L 11.5451,-561.245 L 12.1289,-561.476 L 12.6791,-561.778 L 13.1871,-562.147 L 13.6448,-562.577
 L 14.0451,-563.061 L 14.3815,-563.591 L 14.6489,-564.159 L 14.8429,-564.757 L 14.9606,-565.373 L 15,-566
 L 15,-706 L 14.9606,-706.627 L 14.8429,-707.243 L 14.6489,-707.841 L 14.3815,-708.409 L 14.0451,-708.939
 L 13.6448,-709.423 L 13.1871,-709.853 L 12.6791,-710.222 L 12.1289,-710.524 L 11.5451,-710.755 L 10.9369,-710.911
 L 10.3139,-710.99 L -10.3139,-710.99 L -10.9369,-710.911 L -11.5451,-710.755 L -12.1289,-710.524 L -12.6791,-710.222
 L -13.1871,-709.853 L -13.6448,-709.423 L -14.0451,-708.939 L -14.3815,-708.409 L -14.6489,-707.841 L -14.8429,-707.243
 L -14.9606,-706.627 L -15,-706 L -15,-566 L -14.9606,-565.373 L -14.8429,-564.757 L -14.6489,-564.159
 L -14.3815,-563.591 L -14.0451,-563.061 L -13.6448,-562.577 L -13.1871,-562.147 L -12.6791,-561.778 L -12.1289,-561.476
 L -11.5451,-561.245 L -10.9369,-561.089 L -10.3139,-561.01 L 10.3139,-561.01 z
M -9.69545,-563.393 L -10.0833,-563.442 L -10.4619,-563.539 L -10.8254,-563.683 L -11.168,-563.872 L -11.4842,-564.101
 L -11.7692,-564.369 L -12.0184,-564.67 L -12.2279,-565 L -12.3943,-565.354 L -12.5151,-565.726 L -12.5884,-566.11
 L -12.6129,-566.5 L -12.6129,-705.5 L -12.5884,-705.89 L -12.5151,-706.274 L -12.3943,-706.646 L -12.2279,-707
 L -12.0184,-707.33 L -11.7692,-707.631 L -11.4842,-707.899 L -11.168,-708.128 L -10.8254,-708.317 L -10.4619,-708.461
 L -10.0833,-708.558 L -9.69545,-708.607 L 9.69545,-708.607 L 10.0833,-708.558 L 10.4619,-708.461 L 10.8254,-708.317
 L 11.168,-708.128 L 11.4842,-707.899 L 11.7692,-707.631 L 12.0184,-707.33 L 12.2279,-707 L 12.3943,-706.646
 L 12.5151,-706.274 L 12.5884,-705.89 L 12.6129,-705.5 L 12.6129,-566.5 L 12.5884,-566.11 L 12.5151,-565.726
 L 12.3943,-565.354 L 12.2279,-565 L 12.0184,-564.67 L 11.7692,-564.369 L 11.4842,-564.101 L 11.168,-563.872
 L 10.8254,-563.683 L 10.4619,-563.539 L 10.0833,-563.442 L 9.69545,-563.393 z
M 10.9369,-402.089 L 11.5451,-402.245 L 12.1289,-402.476 L 12.6791,-402.778 L 13.1871,-403.147 L 13.6448,-403.577
 L 14.0451,-404.061 L 14.3815,-404.591 L 14.6489,-405.159 L 14.8429,-405.757 L 14.9606,-406.373 L 15,-407
 L 15,-547 L 14.9606,-547.627 L 14.8429,-548.243 L 14.6489,-548.841 L 14.3815,-549.409 L 14.0451,-549.939
 L 13.6448,-550.423 L 13.1871,-550.853 L 12.6791,-551.222 L 12.1289,-551.524 L 11.5451,-551.755 L 10.9369,-551.911
 L 10.3139,-551.99 L -10.3139,-551.99 L -10.9369,-551.911 L -11.5451,-551.755 L -12.1289,-551.524 L -12.6791,-551.222
 L -13.1871,-550.853 L -13.6448,-550.423 L -14.0451,-549.939 L -14.3815,-549.409 L -14.6489,-548.841 L -14.8429,-548.243
 L -14.9606,-547.627 L -15,-547 L -15,-407 L -14.9606,-406.373 L -14.8429,-405.757 L -14.6489,-405.159
 L -14.3815,-404.591 L -14.0451,-404.061 L -13.6448,-403.577 L -13.1871,-403.147 L -12.6791,-402.778 L -12.1289,-402.476
 L -11.5451,-402.245 L -10.9369,-402.089 L -10.3139,-402.01 L 10.3139,-402.01 z
M 7.36592,-542.369 L 7.09988,-542.403 L 6.84015,-542.469 L 6.59084,-542.568 L 6.35585,-542.697 L 6.1389,-542.855
 L 5.94344,-543.038 L 5.77251,-543.245 L 5.62881,-543.471 L 5.51465,-543.714 L 5.43178,-543.969 L 5.38153,-544.232
 L 5.3647,-544.5 L 5.38153,-544.768 L 5.43178,-545.031 L 5.51465,-545.286 L 5.62881,-545.529 L 5.77251,-545.755
 L 5.94344,-545.962 L 6.1389,-546.145 L 6.35585,-546.303 L 6.59084,-546.432 L 6.84015,-546.531 L 7.09988,-546.597
 L 7.36592,-546.631 L 7.63406,-546.631 L 7.9001,-546.597 L 8.15984,-546.531 L 8.40915,-546.432 L 8.64413,-546.303
 L 8.86108,-546.145 L 9.05655,-545.962 L 9.22748,-545.755 L 9.37117,-545.529 L 9.48534,-545.286 L 9.56821,-545.031
 L 9.61845,-544.768 L 9.63528,-544.5 L 9.61845,-544.232 L 9.56821,-543.969 L 9.48534,-543.714 L 9.37117,-543.471
 L 9.22748,-543.245 L 9.05655,-543.038 L 8.86108,-542.855 L 8.64413,-542.697 L 8.40915,-542.568 L 8.15984,-542.469
 L 7.9001,-542.403 L 7.63406,-542.369 z
M -7.63406,-542.369 L -7.9001,-542.403 L -8.15984,-542.469 L -8.40915,-542.568 L -8.64413,-542.697 L -8.86108,-542.855
 L -9.05655,-543.038 L -9.22748,-543.245 L -9.37117,-543.471 L -9.48534,-543.714 L -9.56821,-543.969 L -9.61845,-544.232
 L -9.63528,-544.5 L -9.61845,-544.768 L -9.56821,-545.031 L -9.48534,-545.286 L -9.37117,-545.529 L -9.22748,-545.755
 L -9.05655,-545.962 L -8.86108,-546.145 L -8.64413,-546.303 L -8.40915,-546.432 L -8.15984,-546.531 L -7.9001,-546.597
 L -7.63406,-546.631 L -7.36592,-546.631 L -7.09988,-546.597 L -6.84015,-546.531 L -6.59084,-546.432 L -6.35585,-546.303
 L -6.1389,-546.145 L -5.94344,-545.962 L -5.77251,-545.755 L -5.62881,-545.529 L -5.51465,-545.286 L -5.43178,-545.031
 L -5.38153,-544.768 L -5.3647,-544.5 L -5.38153,-544.232 L -5.43178,-543.969 L -5.51465,-543.714 L -5.62881,-543.471
 L -5.77251,-543.245 L -5.94344,-543.038 L -6.1389,-542.855 L -6.35585,-542.697 L -6.59084,-542.568 L -6.84015,-542.469
 L -7.09988,-542.403 L -7.36592,-542.369 z
M 7.36592,-407.369 L 7.09988,-407.403 L 6.84015,-407.469 L 6.59084,-407.568 L 6.35585,-407.697 L 6.1389,-407.855
 L 5.94344,-408.038 L 5.77251,-408.245 L 5.62881,-408.471 L 5.51465,-408.714 L 5.43178,-408.969 L 5.38153,-409.232
 L 5.3647,-409.5 L 5.38153,-409.768 L 5.43178,-410.031 L 5.51465,-410.286 L 5.62881,-410.529 L 5.77251,-410.755
 L 5.94344,-410.962 L 6.1389,-411.145 L 6.35585,-411.303 L 6.59084,-411.432 L 6.84015,-411.531 L 7.09988,-411.597
 L 7.36592,-411.631 L 7.63406,-411.631 L 7.9001,-411.597 L 8.15984,-411.531 L 8.40915,-411.432 L 8.64413,-411.303
 L 8.86108,-411.145 L 9.05655,-410.962 L 9.22748,-410.755 L 9.37117,-410.529 L 9.48534,-410.286 L 9.56821,-410.031
 L 9.61845,-409.768 L 9.63528,-409.5 L 9.61845,-409.232 L 9.56821,-408.969 L 9.48534,-408.714 L 9.37117,-408.471
 L 9.22748,-408.245 L 9.05655,-408.038 L 8.86108,-407.855 L 8.64413,-407.697 L 8.40915,-407.568 L 8.15984,-407.469
 L 7.9001,-407.403 L 7.63406,-407.369 z
M -7.63406,-407.369 L -7.9001,-407.403 L -8.15984,-407.469 L -8.40915,-407.568 L -8.64413,-407.697 L -8.86108,-407.855
 L -9.05655,-408.038 L -9.22748,-408.245 L -9.37117,-408.471 L -9.48534,-408.714 L -9.56821,-408.969 L -9.61845,-409.232
 L -9.63528,-409.5 L -9.61845,-409.768 L -9.56821,-410.031 L -9.48534,-410.286 L -9.37117,-410.529 L -9.22748,-410.755
 L -9.05655,-410.962 L -8.86108,-411.145 L -8.64413,-411.303 L -8.40915,-411.432 L -8.15984,-411.531 L -7.9001,-411.597
 L -7.63406,-411.631 L -7.36592,-411.631 L -7.09988,-411.597 L -6.84015,-411.531 L -6.59084,-411.432 L -6.35585,-411.303
 L -6.1389,-411.145 L -5.94344,-410.962 L -5.77251,-410.755 L -5.62881,-410.529 L -5.51465,-410.286 L -5.43178,-410.031
 L -5.38153,-409.768 L -5.3647,-409.5 L -5.38153,-409.232 L -5.43178,-408.969 L -5.51465,-408.714 L -5.62881,-408.471
 L -5.77251,-408.245 L -5.94344,-408.038 L -6.1389,-407.855 L -6.35585,-407.697 L -6.59084,-407.568 L -6.84015,-407.469
 L -7.09988,-407.403 L -7.36592,-407.369 z
" stroke="black" fill="lightgray" stroke-width="0.5"/>
</svg>
