<?xml version="1.0" standalone="no"?>
<!DOCTYPE svg PUBLIC "-//W3C//DTD SVG 1.1//EN" "http://www.w3.org/Graphics/SVG/1.1/DTD/svg11.dtd">
<svg width="107mm" height="198mm" viewBox="-54 -306 107 198" xmlns="http://www.w3.org/2000/svg" version="1.1">
<title>OpenSCAD Model</title>
<path d="
M -51,-247.441 L -50.6871,-247.147 L -50.1791,-246.778 L -49.6289,-246.476 L -49.0451,-246.245 L -48.4369,-246.089
 L -47.8139,-246.01 L 47.8139,-246.01 L 48.4369,-246.089 L 49.0451,-246.245 L 49.6289,-246.476 L 50.1791,-246.778
 L 50.6871,-247.147 L 51.1448,-247.577 L 51.5451,-248.061 L 51.8815,-248.591 L 52.1489,-249.159 L 52.3429,-249.757
 L 52.4606,-250.373 L 52.5,-251 L 52.5,-301 L 52.4606,-301.627 L 52.3429,-302.243 L 52.1489,-302.841
 L 51.8815,-303.409 L 51.5451,-303.939 L 51.1448,-304.423 L 50.6871,-304.853 L 50.1791,-305.222 L 49.6289,-305.524
 L 49.0451,-305.755 L 48.4369,-305.911 L 47.8139,-305.99 L -47.8139,-305.99 L -48.4369,-305.911 L -49.0451,-305.755
 L -49.6289,-305.524 L -50.1791,-305.222 L -50.6871,-304.853 L -51,-304.559 L -51,-305.99 L -54,-305.99
 L -54,-246.01 L -51,-246.01 z
M -47.2432,-247.635 L -47.7256,-247.696 L -48.1967,-247.817 L -48.6489,-247.996 L -49.0751,-248.23 L -49.4685,-248.516
 L -49.823,-248.849 L -50.133,-249.224 L -50.3936,-249.634 L -50.6007,-250.074 L -50.751,-250.537 L -50.8421,-251.015
 L -50.8726,-251.5 L -50.8726,-300.5 L -50.8421,-300.985 L -50.751,-301.463 L -50.6007,-301.926 L -50.3936,-302.366
 L -50.133,-302.776 L -49.823,-303.151 L -49.4685,-303.484 L -49.0751,-303.77 L -48.6489,-304.004 L -48.1967,-304.183
 L -47.7256,-304.304 L -47.2432,-304.365 L 47.2432,-304.365 L 47.7256,-304.304 L 48.1967,-304.183 L 48.6489,-304.004
 L 49.0751,-303.77 L 49.4685,-303.484 L 49.823,-303.151 L 50.133,-302.776 L 50.3936,-302.366 L 50.6007,-301.926
 L 50.751,-301.463 L 50.8421,-300.985 L 50.8726,-300.5 L 50.8726,-251.5 L 50.8421,-251.015 L 50.751,-250.537
 L 50.6007,-250.074 L 50.3936,-249.634 L 50.133,-249.224 L 49.823,-248.849 L 49.4685,-248.516 L 49.0751,-248.23
 L 48.6489,-247.996 L 48.1967,-247.817 L 47.7256,-247.696 L 47.2432,-247.635 z
M 48.4369,-177.089 L 49.0451,-177.245 L 49.6289,-177.476 L 50.1791,-177.778 L 50.6871,-178.147 L 51.1448,-178.577
 L 51.5451,-179.061 L 51.8815,-179.591 L 52.1489,-180.159 L 52.3429,-180.757 L 52.4606,-181.373 L 52.5,-182
 L 52.5,-232 L 52.4606,-232.627 L 52.3429,-233.243 L 52.1489,-233.841 L 51.8815,-234.409 L 51.5451,-234.939
 L 51.1448,-235.423 L 50.6871,-235.853 L 50.1791,-236.222 L 49.6289,-236.524 L 49.0451,-236.755 L 48.4369,-236.911
 L 47.8139,-236.99 L -47.8139,-236.99 L -48.4369,-236.911 L -49.0451,-236.755 L -49.6289,-236.524 L -50.1791,-236.222
 L -50.6871,-235.853 L -51,-235.559 L -51,-236.615 L -54,-236.615 L -54,-177.385 L -51,-177.385
 L -51,-178.441 L -50.6871,-178.147 L -50.1791,-177.778 L -49.6289,-177.476 L -49.0451,-177.245 L -48.4369,-177.089
 L -47.8139,-177.01 L 47.8139,-177.01 z
M 48.4369,-108.089 L 49.0451,-108.245 L 49.6289,-108.476 L 50.1791,-108.778 L 50.6871,-109.147 L 51.1448,-109.577
 L 51.5451,-110.061 L 51.8815,-110.591 L 52.1489,-111.159 L 52.3429,-111.757 L 52.4606,-112.373 L 52.5,-113
 L 52.5,-163 L 52.4606,-163.627 L 52.3429,-164.243 L 52.1489,-164.841 L 51.8815,-165.409 L 51.5451,-165.939
 L 51.1448,-166.423 L 50.6871,-166.853 L 50.1791,-167.222 L 49.6289,-167.524 L 49.0451,-167.755 L 48.4369,-167.911
 L 47.8139,-167.99 L -47.8139,-167.99 L -48.4369,-167.911 L -49.0451,-167.755 L -49.6289,-167.524 L -50.1791,-167.222
 L -50.6871,-166.853 L -51.1448,-166.423 L -51.5451,-165.939 L -51.8815,-165.409 L -52.1489,-164.841 L -52.3429,-164.243
 L -52.4,-163.944 L -54,-163.944 L -54,-112.056 L -52.4,-112.056 L -52.3429,-111.757 L -52.1489,-111.159
 L -51.8815,-110.591 L -51.5451,-110.061 L -51.1448,-109.577 L -50.6871,-109.147 L -50.1791,-108.778 L -49.6289,-108.476
 L -49.0451,-108.245 L -48.4369,-108.089 L -47.8139,-108.01 L 47.8139,-108.01 z
M -45.113,-158.704 L -45.3373,-158.732 L -45.5562,-158.788 L -45.7664,-158.871 L -45.9645,-158.98 L -46.1474,-159.113
 L -46.3121,-159.268 L -46.4562,-159.442 L -46.5773,-159.633 L -46.6736,-159.837 L -46.7434,-160.052 L -46.7858,-160.274
 L -46.8,-160.5 L -46.7858,-160.726 L -46.7434,-160.948 L -46.6736,-161.163 L -46.5773,-161.367 L -46.4562,-161.558
 L -46.3121,-161.732 L -46.1474,-161.887 L -45.9645,-162.02 L -45.7664,-162.129 L -45.5562,-162.212 L -45.3373,-162.268
 L -45.113,-162.296 L -44.887,-162.296 L -44.6627,-162.268 L -44.4438,-162.212 L -44.2336,-162.129 L -44.0355,-162.02
 L -43.8526,-161.887 L -43.6879,-161.732 L -43.5438,-161.558 L -43.4226,-161.367 L -43.3264,-161.163 L -43.2565,-160.948
 L -43.2142,-160.726 L -43.2,-160.5 L -43.2142,-160.274 L -43.2565,-160.052 L -43.3264,-159.837 L -43.4226,-159.633
 L -43.5438,-159.442 L -43.6879,-159.268 L -43.8526,-159.113 L -44.0355,-158.98 L -44.2336,-158.871 L -44.4438,-158.788
 L -44.6627,-158.732 L -44.887,-158.704 z
M 44.887,-158.704 L 44.6627,-158.732 L 44.4438,-158.788 L 44.2336,-158.871 L 44.0355,-158.98 L 43.8526,-159.113
 L 43.6879,-159.268 L 43.5438,-159.442 L 43.4226,-159.633 L 43.3264,-159.837 L 43.2565,-160.052 L 43.2142,-160.274
 L 43.2,-160.5 L 43.2142,-160.726 L 43.2565,-160.948 L 43.3264,-161.163 L 43.4226,-161.367 L 43.5438,-161.558
 L 43.6879,-161.732 L 43.8526,-161.887 L 44.0355,-162.02 L 44.2336,-162.129 L 44.4438,-162.212 L 44.6627,-162.268
 L 44.887,-162.296 L 45.113,-162.296 L 45.3373,-162.268 L 45.5562,-162.212 L 45.7664,-162.129 L 45.9645,-162.02
 L 46.1474,-161.887 L 46.3121,-161.732 L 46.4562,-161.558 L 46.5773,-161.367 L 46.6736,-161.163 L 46.7434,-160.948
 L 46.7858,-160.726 L 46.8,-160.5 L 46.7858,-160.274 L 46.7434,-160.052 L 46.6736,-159.837 L 46.5773,-159.633
 L 46.4562,-159.442 L 46.3121,-159.268 L 46.1474,-159.113 L 45.9645,-158.98 L 45.7664,-158.871 L 45.5562,-158.788
 L 45.3373,-158.732 L 45.113,-158.704 z
M 44.887,-113.704 L 44.6627,-113.732 L 44.4438,-113.788 L 44.2336,-113.871 L 44.0355,-113.98 L 43.8526,-114.113
 L 43.6879,-114.268 L 43.5438,-114.442 L 43.4226,-114.633 L 43.3264,-114.837 L 43.2565,-115.052 L 43.2142,-115.274
 L 43.2,-115.5 L 43.2142,-115.726 L 43.2565,-115.948 L 43.3264,-116.163 L 43.4226,-116.367 L 43.5438,-116.558
 L 43.6879,-116.732 L 43.8526,-116.887 L 44.0355,-117.02 L 44.2336,-117.129 L 44.4438,-117.212 L 44.6627,-117.268
 L 44.887,-117.296 L 45.113,-117.296 L 45.3373,-117.268 L 45.5562,-117.212 L 45.7664,-117.129 L 45.9645,-117.02
 L 46.1474,-116.887 L 46.3121,-116.732 L 46.4562,-116.558 L 46.5773,-116.367 L 46.6736,-116.163 L 46.7434,-115.948
 L 46.7858,-115.726 L 46.8,-115.5 L 46.7858,-115.274 L 46.7434,-115.052 L 46.6736,-114.837 L 46.5773,-114.633
 L 46.4562,-114.442 L 46.3121,-114.268 L 46.1474,-114.113 L 45.9645,-113.98 L 45.7664,-113.871 L 45.5562,-113.788
 L 45.3373,-113.732 L 45.113,-113.704 z
M -45.113,-113.704 L -45.3373,-113.732 L -45.5562,-113.788 L -45.7664,-113.871 L -45.9645,-113.98 L -46.1474,-114.113
 L -46.3121,-114.268 L -46.4562,-114.442 L -46.5773,-114.633 L -46.6736,-114.837 L -46.7434,-115.052 L -46.7858,-115.274
 L -46.8,-115.5 L -46.7858,-115.726 L -46.7434,-115.948 L -46.6736,-116.163 L -46.5773,-116.367 L -46.4562,-116.558
 L -46.3121,-116.732 L -46.1474,-116.887 L -45.9645,-117.02 L -45.7664,-117.129 L -45.5562,-117.212 L -45.3373,-117.268
 L -45.113,-117.296 L -44.887,-117.296 L -44.6627,-117.268 L -44.4438,-117.212 L -44.2336,-117.129 L -44.0355,-117.02
 L -43.8526,-116.887 L -43.6879,-116.732 L -43.5438,-116.558 L -43.4226,-116.367 L -43.3264,-116.163 L -43.2565,-115.948
 L -43.2142,-115.726 L -43.2,-115.5 L -43.2142,-115.274 L -43.2565,-115.052 L -43.3264,-114.837 L -43.4226,-114.633
 L -43.5438,-114.442 L -43.6879,-114.268 L -43.8526,-114.113 L -44.0355,-113.98 L -44.2336,-113.871 L -44.4438,-113.788
 L -44.6627,-113.732 L -44.887,-113.704 z
" stroke="black" fill="lightgray" stroke-width="0.5"/>
</svg>
