<?xml version="1.0" standalone="no"?>
<!DOCTYPE svg PUBLIC "-//W3C//DTD SVG 1.1//EN" "http://www.w3.org/Graphics/SVG/1.1/DTD/svg11.dtd">
<svg width="77mm" height="100mm" viewBox="-39 -185 77 100" xmlns="http://www.w3.org/2000/svg" version="1.1">
<title>OpenSCAD Model</title>
<path d="
M 33.4369,-139.589 L 34.0451,-139.745 L 34.6289,-139.976 L 35.1791,-140.278 L 35.6871,-140.647 L 36.1448,-141.077
 L 36.5451,-141.561 L 36.8815,-142.091 L 37.1489,-142.659 L 37.3429,-143.257 L 37.4606,-143.873 L 37.5,-144.5
 L 37.5,-179.5 L 37.4606,-180.127 L 37.3429,-180.743 L 37.1489,-181.341 L 36.8815,-181.909 L 36.5451,-182.439
 L 36.1448,-182.923 L 35.6871,-183.353 L 35.1791,-183.722 L 34.6289,-184.024 L 34.0451,-184.255 L 33.4369,-184.411
 L 32.8139,-184.49 L -32.8139,-184.49 L -33.4369,-184.411 L -34.0451,-184.255 L -34.6289,-184.024 L -35.1791,-183.722
 L -35.6871,-183.353 L -36,-183.059 L -36,-184.479 L -39,-184.479 L -39,-139.521 L -36,-139.521
 L -36,-140.941 L -35.6871,-140.647 L -35.1791,-140.278 L -34.6289,-139.976 L -34.0451,-139.745 L -33.4369,-139.589
 L -32.8139,-139.51 L 32.8139,-139.51 z
M -32.1954,-141.893 L -32.5833,-141.942 L -32.9619,-142.039 L -33.3254,-142.183 L -33.668,-142.372 L -33.9842,-142.601
 L -34.2692,-142.869 L -34.5184,-143.17 L -34.7279,-143.5 L -34.8943,-143.854 L -35.0151,-144.226 L -35.0884,-144.61
 L -35.1129,-145 L -35.1129,-179 L -35.0884,-179.39 L -35.0151,-179.774 L -34.8943,-180.146 L -34.7279,-180.5
 L -34.5184,-180.83 L -34.2692,-181.131 L -33.9842,-181.399 L -33.668,-181.628 L -33.3254,-181.817 L -32.9619,-181.961
 L -32.5833,-182.058 L -32.1954,-182.107 L 32.1954,-182.107 L 32.5833,-182.058 L 32.9619,-181.961 L 33.3254,-181.817
 L 33.668,-181.628 L 33.9842,-181.399 L 34.2692,-181.131 L 34.5184,-180.83 L 34.7279,-180.5 L 34.8943,-180.146
 L 35.0151,-179.774 L 35.0884,-179.39 L 35.1129,-179 L 35.1129,-145 L 35.0884,-144.61 L 35.0151,-144.226
 L 34.8943,-143.854 L 34.7279,-143.5 L 34.5184,-143.17 L 34.2692,-142.869 L 33.9842,-142.601 L 33.668,-142.372
 L 33.3254,-142.183 L 32.9619,-142.039 L 32.5833,-141.942 L 32.1954,-141.893 z
M 33.4369,-85.5886 L 34.0451,-85.7447 L 34.6289,-85.9759 L 35.1791,-86.2784 L 35.6871,-86.6474 L 36.1448,-87.0773
 L 36.5451,-87.5611 L 36.8815,-88.0912 L 37.1489,-88.6594 L 37.3429,-89.2566 L 37.4606,-89.8733 L 37.5,-90.5
 L 37.5,-125.5 L 37.4606,-126.127 L 37.3429,-126.743 L 37.1489,-127.341 L 36.8815,-127.909 L 36.5451,-128.439
 L 36.1448,-128.923 L 35.6871,-129.353 L 35.1791,-129.722 L 34.6289,-130.024 L 34.0451,-130.255 L 33.4369,-130.411
 L 32.8139,-130.49 L -32.8139,-130.49 L -33.4369,-130.411 L -34.0451,-130.255 L -34.6289,-130.024 L -35.1791,-129.722
 L -35.6871,-129.353 L -36,-129.059 L -36,-129.153 L -39,-129.153 L -39,-86.8474 L -36,-86.8474
 L -36,-86.9413 L -35.6871,-86.6474 L -35.1791,-86.2784 L -34.6289,-85.9759 L -34.0451,-85.7447 L -33.4369,-85.5886
 L -32.8139,-85.5099 L 32.8139,-85.5099 z
M 29.8659,-120.869 L 29.5999,-120.903 L 29.3401,-120.969 L 29.0908,-121.068 L 28.8559,-121.197 L 28.6389,-121.355
 L 28.4434,-121.538 L 28.2725,-121.745 L 28.1288,-121.971 L 28.0146,-122.214 L 27.9318,-122.469 L 27.8815,-122.732
 L 27.8647,-123 L 27.8815,-123.268 L 27.9318,-123.531 L 28.0146,-123.786 L 28.1288,-124.029 L 28.2725,-124.255
 L 28.4434,-124.462 L 28.6389,-124.645 L 28.8559,-124.803 L 29.0908,-124.932 L 29.3401,-125.031 L 29.5999,-125.097
 L 29.8659,-125.131 L 30.1341,-125.131 L 30.4001,-125.097 L 30.6598,-125.031 L 30.9091,-124.932 L 31.1441,-124.803
 L 31.3611,-124.645 L 31.5565,-124.462 L 31.7275,-124.255 L 31.8712,-124.029 L 31.9853,-123.786 L 32.0682,-123.531
 L 32.1185,-123.268 L 32.1353,-123 L 32.1185,-122.732 L 32.0682,-122.469 L 31.9853,-122.214 L 31.8712,-121.971
 L 31.7275,-121.745 L 31.5565,-121.538 L 31.3611,-121.355 L 31.1441,-121.197 L 30.9091,-121.068 L 30.6598,-120.969
 L 30.4001,-120.903 L 30.1341,-120.869 z
M -30.1341,-120.869 L -30.4001,-120.903 L -30.6598,-120.969 L -30.9091,-121.068 L -31.1441,-121.197 L -31.3611,-121.355
 L -31.5565,-121.538 L -31.7275,-121.745 L -31.8712,-121.971 L -31.9853,-122.214 L -32.0682,-122.469 L -32.1185,-122.732
 L -32.1353,-123 L -32.1185,-123.268 L -32.0682,-123.531 L -31.9853,-123.786 L -31.8712,-124.029 L -31.7275,-124.255
 L -31.5565,-124.462 L -31.3611,-124.645 L -31.1441,-124.803 L -30.9091,-124.932 L -30.6598,-125.031 L -30.4001,-125.097
 L -30.1341,-125.131 L -29.8659,-125.131 L -29.5999,-125.097 L -29.3401,-125.031 L -29.0908,-124.932 L -28.8559,-124.803
 L -28.6389,-124.645 L -28.4434,-124.462 L -28.2725,-124.255 L -28.1288,-124.029 L -28.0146,-123.786 L -27.9318,-123.531
 L -27.8815,-123.268 L -27.8647,-123 L -27.8815,-122.732 L -27.9318,-122.469 L -28.0146,-122.214 L -28.1288,-121.971
 L -28.2725,-121.745 L -28.4434,-121.538 L -28.6389,-121.355 L -28.8559,-121.197 L -29.0908,-121.068 L -29.3401,-120.969
 L -29.5999,-120.903 L -29.8659,-120.869 z
M 29.8659,-90.8689 L 29.5999,-90.9025 L 29.3401,-90.9692 L 29.0908,-91.0679 L 28.8559,-91.1971 L 28.6389,-91.3547
 L 28.4434,-91.5383 L 28.2725,-91.7449 L 28.1288,-91.9713 L 28.0146,-92.214 L 27.9318,-92.469 L 27.8815,-92.7324
 L 27.8647,-93 L 27.8815,-93.2676 L 27.9318,-93.531 L 28.0146,-93.7861 L 28.1288,-94.0287 L 28.2725,-94.2551
 L 28.4434,-94.4617 L 28.6389,-94.6453 L 28.8559,-94.8029 L 29.0908,-94.9321 L 29.3401,-95.0308 L 29.5999,-95.0975
 L 29.8659,-95.1311 L 30.1341,-95.1311 L 30.4001,-95.0975 L 30.6598,-95.0308 L 30.9091,-94.9321 L 31.1441,-94.8029
 L 31.3611,-94.6453 L 31.5565,-94.4617 L 31.7275,-94.2551 L 31.8712,-94.0287 L 31.9853,-93.7861 L 32.0682,-93.531
 L 32.1185,-93.2676 L 32.1353,-93 L 32.1185,-92.7324 L 32.0682,-92.469 L 31.9853,-92.214 L 31.8712,-91.9713
 L 31.7275,-91.7449 L 31.5565,-91.5383 L 31.3611,-91.3547 L 31.1441,-91.1971 L 30.9091,-91.0679 L 30.6598,-90.9692
 L 30.4001,-90.9025 L 30.1341,-90.8689 z
M -30.1341,-90.8689 L -30.4001,-90.9025 L -30.6598,-90.9692 L -30.9091,-91.0679 L -31.1441,-91.1971 L -31.3611,-91.3547
 L -31.5565,-91.5383 L -31.7275,-91.7449 L -31.8712,-91.9713 L -31.9853,-92.214 L -32.0682,-92.469 L -32.1185,-92.7324
 L -32.1353,-93 L -32.1185,-93.2676 L -32.0682,-93.531 L -31.9853,-93.7861 L -31.8712,-94.0287 L -31.7275,-94.2551
 L -31.5565,-94.4617 L -31.3611,-94.6453 L -31.1441,-94.8029 L -30.9091,-94.9321 L -30.6598,-95.0308 L -30.4001,-95.0975
 L -30.1341,-95.1311 L -29.8659,-95.1311 L -29.5999,-95.0975 L -29.3401,-95.0308 L -29.0908,-94.9321 L -28.8559,-94.8029
 L -28.6389,-94.6453 L -28.4434,-94.4617 L -28.2725,-94.2551 L -28.1288,-94.0287 L -28.0146,-93.7861 L -27.9318,-93.531
 L -27.8815,-93.2676 L -27.8647,-93 L -27.8815,-92.7324 L -27.9318,-92.469 L -28.0146,-92.214 L -28.1288,-91.9713
 L -28.2725,-91.7449 L -28.4434,-91.5383 L -28.6389,-91.3547 L -28.8559,-91.1971 L -29.0908,-91.0679 L -29.3401,-90.9692
 L -29.5999,-90.9025 L -29.8659,-90.8689 z
" stroke="black" fill="lightgray" stroke-width="0.5"/>
</svg>
