<?xml version="1.0" standalone="no"?>
<!DOCTYPE svg PUBLIC "-//W3C//DTD SVG 1.1//EN" "http://www.w3.org/Graphics/SVG/1.1/DTD/svg11.dtd">
<svg width="167mm" height="186mm" viewBox="-84 -366 167 186" xmlns="http://www.w3.org/2000/svg" version="1.1">
<title>OpenSCAD Model</title>
<path d="
M -81,-337.441 L -80.6871,-337.147 L -80.1791,-336.778 L -79.6289,-336.476 L -79.0451,-336.245 L -78.4369,-336.089
 L -77.8139,-336.01 L 77.8139,-336.01 L 78.4369,-336.089 L 79.0451,-336.245 L 79.6289,-336.476 L 80.1791,-336.778
 L 80.6871,-337.147 L 81.1448,-337.577 L 81.5451,-338.061 L 81.8815,-338.591 L 82.1489,-339.159 L 82.3429,-339.757
 L 82.4606,-340.373 L 82.5,-341 L 82.5,-361 L 82.4606,-361.627 L 82.3429,-362.243 L 82.1489,-362.841
 L 81.8815,-363.409 L 81.5451,-363.939 L 81.1448,-364.423 L 80.6871,-364.853 L 80.1791,-365.222 L 79.6289,-365.524
 L 79.0451,-365.755 L 78.4369,-365.911 L 77.8139,-365.99 L -77.8139,-365.99 L -78.4369,-365.911 L -79.0451,-365.755
 L -79.6289,-365.524 L -80.1791,-365.222 L -80.6871,-364.853 L -81,-364.559 L -81,-365.99 L -84,-365.99
 L -84,-336.01 L -81,-336.01 z
M -77.2512,-337.508 L -77.7495,-337.571 L -78.2361,-337.696 L -78.7031,-337.881 L -79.1433,-338.123 L -79.5497,-338.418
 L -79.9159,-338.762 L -80.2361,-339.149 L -80.5052,-339.573 L -80.7191,-340.028 L -80.8743,-340.505 L -80.9685,-340.999
 L -81,-341.5 L -81,-360.5 L -80.9685,-361.001 L -80.8743,-361.495 L -80.7191,-361.972 L -80.5052,-362.427
 L -80.2361,-362.851 L -79.9159,-363.238 L -79.5497,-363.582 L -79.1433,-363.877 L -78.7031,-364.119 L -78.2361,-364.304
 L -77.7495,-364.429 L -77.2512,-364.492 L 77.2512,-364.492 L 77.7495,-364.429 L 78.2361,-364.304 L 78.7031,-364.119
 L 79.1433,-363.877 L 79.5497,-363.582 L 79.9159,-363.238 L 80.2361,-362.851 L 80.5052,-362.427 L 80.7191,-361.972
 L 80.8743,-361.495 L 80.9685,-361.001 L 81,-360.5 L 81,-341.5 L 80.9685,-340.999 L 80.8743,-340.505
 L 80.7191,-340.028 L 80.5052,-339.573 L 80.2361,-339.149 L 79.9159,-338.762 L 79.5497,-338.418 L 79.1433,-338.123
 L 78.7031,-337.881 L 78.2361,-337.696 L 77.7495,-337.571 L 77.2512,-337.508 z
M -81,-298.441 L -80.6871,-298.147 L -80.1791,-297.778 L -79.6289,-297.476 L -79.0451,-297.245 L -78.4369,-297.089
 L -77.8139,-297.01 L 77.8139,-297.01 L 78.4369,-297.089 L 79.0451,-297.245 L 79.6289,-297.476 L 80.1791,-297.778
 L 80.6871,-298.147 L 81.1448,-298.577 L 81.5451,-299.061 L 81.8815,-299.591 L 82.1489,-300.159 L 82.3429,-300.757
 L 82.4606,-301.373 L 82.5,-302 L 82.5,-322 L 82.4606,-322.627 L 82.3429,-323.243 L 82.1489,-323.841
 L 81.8815,-324.409 L 81.5451,-324.939 L 81.1448,-325.423 L 80.6871,-325.853 L 80.1791,-326.222 L 79.6289,-326.524
 L 79.0451,-326.755 L 78.4369,-326.911 L 77.8139,-326.99 L -77.8139,-326.99 L -78.4369,-326.911 L -79.0451,-326.755
 L -79.6289,-326.524 L -80.1791,-326.222 L -80.6871,-325.853 L -81,-325.559 L -81,-326.99 L -84,-326.99
 L -84,-297.01 L -81,-297.01 z
M -77.2512,-298.508 L -77.7495,-298.571 L -78.2361,-298.696 L -78.7031,-298.881 L -79.1433,-299.123 L -79.5497,-299.418
 L -79.9159,-299.762 L -80.2361,-300.149 L -80.5052,-300.573 L -80.7191,-301.028 L -80.8743,-301.505 L -80.9685,-301.999
 L -81,-302.5 L -81,-321.5 L -80.9685,-322.001 L -80.8743,-322.495 L -80.7191,-322.972 L -80.5052,-323.427
 L -80.2361,-323.851 L -79.9159,-324.238 L -79.5497,-324.582 L -79.1433,-324.877 L -78.7031,-325.119 L -78.2361,-325.304
 L -77.7495,-325.429 L -77.2512,-325.492 L 77.2512,-325.492 L 77.7495,-325.429 L 78.2361,-325.304 L 78.7031,-325.119
 L 79.1433,-324.877 L 79.5497,-324.582 L 79.9159,-324.238 L 80.2361,-323.851 L 80.5052,-323.427 L 80.7191,-322.972
 L 80.8743,-322.495 L 80.9685,-322.001 L 81,-321.5 L 81,-302.5 L 80.9685,-301.999 L 80.8743,-301.505
 L 80.7191,-301.028 L 80.5052,-300.573 L 80.2361,-300.149 L 79.9159,-299.762 L 79.5497,-299.418 L 79.1433,-299.123
 L 78.7031,-298.881 L 78.2361,-298.696 L 77.7495,-298.571 L 77.2512,-298.508 z
M -81,-259.441 L -80.6871,-259.147 L -80.1791,-258.778 L -79.6289,-258.476 L -79.0451,-258.245 L -78.4369,-258.089
 L -77.8139,-258.01 L 77.8139,-258.01 L 78.4369,-258.089 L 79.0451,-258.245 L 79.6289,-258.476 L 80.1791,-258.778
 L 80.6871,-259.147 L 81.1448,-259.577 L 81.5451,-260.061 L 81.8815,-260.591 L 82.1489,-261.159 L 82.3429,-261.757
 L 82.4606,-262.373 L 82.5,-263 L 82.5,-283 L 82.4606,-283.627 L 82.3429,-284.243 L 82.1489,-284.841
 L 81.8815,-285.409 L 81.5451,-285.939 L 81.1448,-286.423 L 80.6871,-286.853 L 80.1791,-287.222 L 79.6289,-287.524
 L 79.0451,-287.755 L 78.4369,-287.911 L 77.8139,-287.99 L -77.8139,-287.99 L -78.4369,-287.911 L -79.0451,-287.755
 L -79.6289,-287.524 L -80.1791,-287.222 L -80.6871,-286.853 L -81,-286.559 L -81,-287.99 L -84,-287.99
 L -84,-258.01 L -81,-258.01 z
M -77.2512,-259.508 L -77.7495,-259.571 L -78.2361,-259.696 L -78.7031,-259.881 L -79.1433,-260.123 L -79.5497,-260.418
 L -79.9159,-260.762 L -80.2361,-261.149 L -80.5052,-261.573 L -80.7191,-262.028 L -80.8743,-262.505 L -80.9685,-262.999
 L -81,-263.5 L -81,-282.5 L -80.9685,-283.001 L -80.8743,-283.495 L -80.7191,-283.972 L -80.5052,-284.427
 L -80.2361,-284.851 L -79.9159,-285.238 L -79.5497,-285.582 L -79.1433,-285.877 L -78.7031,-286.119 L -78.2361,-286.304
 L -77.7495,-286.429 L -77.2512,-286.492 L 77.2512,-286.492 L 77.7495,-286.429 L 78.2361,-286.304 L 78.7031,-286.119
 L 79.1433,-285.877 L 79.5497,-285.582 L 79.9159,-285.238 L 80.2361,-284.851 L 80.5052,-284.427 L 80.7191,-283.972
 L 80.8743,-283.495 L 80.9685,-283.001 L 81,-282.5 L 81,-263.5 L 80.9685,-262.999 L 80.8743,-262.505
 L 80.7191,-262.028 L 80.5052,-261.573 L 80.2361,-261.149 L 79.9159,-260.762 L 79.5497,-260.418 L 79.1433,-260.123
 L 78.7031,-259.881 L 78.2361,-259.696 L 77.7495,-259.571 L 77.2512,-259.508 z
M 78.4369,-219.089 L 79.0451,-219.245 L 79.6289,-219.476 L 80.1791,-219.778 L 80.6871,-220.147 L 81.1448,-220.577
 L 81.5451,-221.061 L 81.8815,-221.591 L 82.1489,-222.159 L 82.3429,-222.757 L 82.4606,-223.373 L 82.5,-224
 L 82.5,-244 L 82.4606,-244.627 L 82.3429,-245.243 L 82.1489,-245.841 L 81.8815,-246.409 L 81.5451,-246.939
 L 81.1448,-247.423 L 80.6871,-247.853 L 80.1791,-248.222 L 79.6289,-248.524 L 79.0451,-248.755 L 78.4369,-248.911
 L 77.8139,-248.99 L -77.8139,-248.99 L -78.4369,-248.911 L -79.0451,-248.755 L -79.6289,-248.524 L -80.1791,-248.222
 L -80.6871,-247.853 L -81,-247.559 L -81,-248.979 L -84,-248.979 L -84,-219.021 L -81,-219.021
 L -81,-220.441 L -80.6871,-220.147 L -80.1791,-219.778 L -79.6289,-219.476 L -79.0451,-219.245 L -78.4369,-219.089
 L -77.8139,-219.01 L 77.8139,-219.01 z
M -77.1955,-221.393 L -77.5833,-221.442 L -77.9619,-221.539 L -78.3254,-221.683 L -78.668,-221.872 L -78.9843,-222.101
 L -79.2692,-222.369 L -79.5184,-222.67 L -79.7279,-223 L -79.8943,-223.354 L -80.0151,-223.726 L -80.0884,-224.11
 L -80.1129,-224.5 L -80.1129,-243.5 L -80.0884,-243.89 L -80.0151,-244.274 L -79.8943,-244.646 L -79.7279,-245
 L -79.5184,-245.33 L -79.2692,-245.631 L -78.9843,-245.899 L -78.668,-246.128 L -78.3254,-246.317 L -77.9619,-246.461
 L -77.5833,-246.558 L -77.1955,-246.607 L 77.1955,-246.607 L 77.5833,-246.558 L 77.9619,-246.461 L 78.3254,-246.317
 L 78.668,-246.128 L 78.9843,-245.899 L 79.2692,-245.631 L 79.5184,-245.33 L 79.7279,-245 L 79.8943,-244.646
 L 80.0151,-244.274 L 80.0884,-243.89 L 80.1129,-243.5 L 80.1129,-224.5 L 80.0884,-224.11 L 80.0151,-223.726
 L 79.8943,-223.354 L 79.7279,-223 L 79.5184,-222.67 L 79.2692,-222.369 L 78.9843,-222.101 L 78.668,-221.872
 L 78.3254,-221.683 L 77.9619,-221.539 L 77.5833,-221.442 L 77.1955,-221.393 z
M 78.4369,-180.089 L 79.0451,-180.245 L 79.6289,-180.476 L 80.1791,-180.778 L 80.6871,-181.147 L 81.1448,-181.577
 L 81.5451,-182.061 L 81.8815,-182.591 L 82.1489,-183.159 L 82.3429,-183.757 L 82.4606,-184.373 L 82.5,-185
 L 82.5,-205 L 82.4606,-205.627 L 82.3429,-206.243 L 82.1489,-206.841 L 81.8815,-207.409 L 81.5451,-207.939
 L 81.1448,-208.423 L 80.6871,-208.853 L 80.1791,-209.222 L 79.6289,-209.524 L 79.0451,-209.755 L 78.4369,-209.911
 L 77.8139,-209.99 L -77.8139,-209.99 L -78.4369,-209.911 L -79.0451,-209.755 L -79.6289,-209.524 L -80.1791,-209.222
 L -80.6871,-208.853 L -81,-208.559 L -81,-208.653 L -84,-208.653 L -84,-181.347 L -81,-181.347
 L -81,-181.441 L -80.6871,-181.147 L -80.1791,-180.778 L -79.6289,-180.476 L -79.0451,-180.245 L -78.4369,-180.089
 L -77.8139,-180.01 L 77.8139,-180.01 z
M -75.1341,-200.369 L -75.4001,-200.403 L -75.6598,-200.469 L -75.9092,-200.568 L -76.1441,-200.697 L -76.3611,-200.855
 L -76.5566,-201.038 L -76.7275,-201.245 L -76.8712,-201.471 L -76.9853,-201.714 L -77.0682,-201.969 L -77.1185,-202.232
 L -77.1353,-202.5 L -77.1185,-202.768 L -77.0682,-203.031 L -76.9853,-203.286 L -76.8712,-203.529 L -76.7275,-203.755
 L -76.5566,-203.962 L -76.3611,-204.145 L -76.1441,-204.303 L -75.9092,-204.432 L -75.6598,-204.531 L -75.4001,-204.597
 L -75.1341,-204.631 L -74.8659,-204.631 L -74.5999,-204.597 L -74.3401,-204.531 L -74.0908,-204.432 L -73.8559,-204.303
 L -73.6389,-204.145 L -73.4434,-203.962 L -73.2725,-203.755 L -73.1288,-203.529 L -73.0146,-203.286 L -72.9318,-203.031
 L -72.8815,-202.768 L -72.8647,-202.5 L -72.8815,-202.232 L -72.9318,-201.969 L -73.0146,-201.714 L -73.1288,-201.471
 L -73.2725,-201.245 L -73.4434,-201.038 L -73.6389,-200.855 L -73.8559,-200.697 L -74.0908,-200.568 L -74.3401,-200.469
 L -74.5999,-200.403 L -74.8659,-200.369 z
M 74.8659,-200.369 L 74.5999,-200.403 L 74.3401,-200.469 L 74.0908,-200.568 L 73.8559,-200.697 L 73.6389,-200.855
 L 73.4434,-201.038 L 73.2725,-201.245 L 73.1288,-201.471 L 73.0146,-201.714 L 72.9318,-201.969 L 72.8815,-202.232
 L 72.8647,-202.5 L 72.8815,-202.768 L 72.9318,-203.031 L 73.0146,-203.286 L 73.1288,-203.529 L 73.2725,-203.755
 L 73.4434,-203.962 L 73.6389,-204.145 L 73.8559,-204.303 L 74.0908,-204.432 L 74.3401,-204.531 L 74.5999,-204.597
 L 74.8659,-204.631 L 75.1341,-204.631 L 75.4001,-204.597 L 75.6598,-204.531 L 75.9092,-204.432 L 76.1441,-204.303
 L 76.3611,-204.145 L 76.5566,-203.962 L 76.7275,-203.755 L 76.8712,-203.529 L 76.9853,-203.286 L 77.0682,-203.031
 L 77.1185,-202.768 L 77.1353,-202.5 L 77.1185,-202.232 L 77.0682,-201.969 L 76.9853,-201.714 L 76.8712,-201.471
 L 76.7275,-201.245 L 76.5566,-201.038 L 76.3611,-200.855 L 76.1441,-200.697 L 75.9092,-200.568 L 75.6598,-200.469
 L 75.4001,-200.403 L 75.1341,-200.369 z
M -75.1341,-185.369 L -75.4001,-185.403 L -75.6598,-185.469 L -75.9092,-185.568 L -76.1441,-185.697 L -76.3611,-185.855
 L -76.5566,-186.038 L -76.7275,-186.245 L -76.8712,-186.471 L -76.9853,-186.714 L -77.0682,-186.969 L -77.1185,-187.232
 L -77.1353,-187.5 L -77.1185,-187.768 L -77.0682,-188.031 L -76.9853,-188.286 L -76.8712,-188.529 L -76.7275,-188.755
 L -76.5566,-188.962 L -76.3611,-189.145 L -76.1441,-189.303 L -75.9092,-189.432 L -75.6598,-189.531 L -75.4001,-189.597
 L -75.1341,-189.631 L -74.8659,-189.631 L -74.5999,-189.597 L -74.3401,-189.531 L -74.0908,-189.432 L -73.8559,-189.303
 L -73.6389,-189.145 L -73.4434,-188.962 L -73.2725,-188.755 L -73.1288,-188.529 L -73.0146,-188.286 L -72.9318,-188.031
 L -72.8815,-187.768 L -72.8647,-187.5 L -72.8815,-187.232 L -72.9318,-186.969 L -73.0146,-186.714 L -73.1288,-186.471
 L -73.2725,-186.245 L -73.4434,-186.038 L -73.6389,-185.855 L -73.8559,-185.697 L -74.0908,-185.568 L -74.3401,-185.469
 L -74.5999,-185.403 L -74.8659,-185.369 z
M 74.8659,-185.369 L 74.5999,-185.403 L 74.3401,-185.469 L 74.0908,-185.568 L 73.8559,-185.697 L 73.6389,-185.855
 L 73.4434,-186.038 L 73.2725,-186.245 L 73.1288,-186.471 L 73.0146,-186.714 L 72.9318,-186.969 L 72.8815,-187.232
 L 72.8647,-187.5 L 72.8815,-187.768 L 72.9318,-188.031 L 73.0146,-188.286 L 73.1288,-188.529 L 73.2725,-188.755
 L 73.4434,-188.962 L 73.6389,-189.145 L 73.8559,-189.303 L 74.0908,-189.432 L 74.3401,-189.531 L 74.5999,-189.597
 L 74.8659,-189.631 L 75.1341,-189.631 L 75.4001,-189.597 L 75.6598,-189.531 L 75.9092,-189.432 L 76.1441,-189.303
 L 76.3611,-189.145 L 76.5566,-188.962 L 76.7275,-188.755 L 76.8712,-188.529 L 76.9853,-188.286 L 77.0682,-188.031
 L 77.1185,-187.768 L 77.1353,-187.5 L 77.1185,-187.232 L 77.0682,-186.969 L 76.9853,-186.714 L 76.8712,-186.471
 L 76.7275,-186.245 L 76.5566,-186.038 L 76.3611,-185.855 L 76.1441,-185.697 L 75.9092,-185.568 L 75.6598,-185.469
 L 75.4001,-185.403 L 75.1341,-185.369 z
" stroke="black" fill="lightgray" stroke-width="0.5"/>
</svg>
