  0
SECTION
  2
BLOCKS
  0
ENDSEC
  0
SECTION
  2
ENTITIES
  0
LINE
  8
0
 10
1.40535
 20
88.6329
 11
2.31763
 21
88.8671
  0
LINE
  8
0
 10
2.31763
 20
88.8671
 11
3.19334
 21
89.2138
  0
LINE
  8
0
 10
3.19334
 20
89.2138
 11
4.01869
 21
89.6675
  0
LINE
  8
0
 10
4.01869
 20
89.6675
 11
4.78067
 21
90.2212
  0
LINE
  8
0
 10
4.78067
 20
90.2212
 11
5.46725
 21
90.8659
  0
LINE
  8
0
 10
5.46725
 20
90.8659
 11
6.06763
 21
91.5916
  0
LINE
  8
0
 10
6.06763
 20
91.5916
 11
6.5723
 21
92.3869
  0
LINE
  8
0
 10
6.5723
 20
92.3869
 11
6.97331
 21
93.2391
  0
LINE
  8
0
 10
6.97331
 20
93.2391
 11
7.26436
 21
94.1348
  0
LINE
  8
0
 10
7.26436
 20
94.1348
 11
7.44086
 21
95.06
  0
LINE
  8
0
 10
7.44086
 20
95.06
 11
7.5
 21
96
  0
LINE
  8
0
 10
7.5
 20
96
 11
7.44086
 21
96.94
  0
LINE
  8
0
 10
7.44086
 20
96.94
 11
7.26436
 21
97.8652
  0
LINE
  8
0
 10
7.26436
 20
97.8652
 11
6.97331
 21
98.7609
  0
LINE
  8
0
 10
6.97331
 20
98.7609
 11
6.5723
 21
99.6131
  0
LINE
  8
0
 10
6.5723
 20
99.6131
 11
6.06763
 21
100.408
  0
LINE
  8
0
 10
6.06763
 20
100.408
 11
5.46725
 21
101.134
  0
LINE
  8
0
 10
5.46725
 20
101.134
 11
4.78067
 21
101.779
  0
LINE
  8
0
 10
4.78067
 20
101.779
 11
4.01869
 21
102.332
  0
LINE
  8
0
 10
4.01869
 20
102.332
 11
3.19334
 21
102.786
  0
LINE
  8
0
 10
3.19334
 20
102.786
 11
2.31763
 21
103.133
  0
LINE
  8
0
 10
2.31763
 20
103.133
 11
1.40535
 21
103.367
  0
LINE
  8
0
 10
1.40535
 20
103.367
 11
0.470917
 21
103.485
  0
LINE
  8
0
 10
0.470917
 20
103.485
 11
-0.470917
 21
103.485
  0
LINE
  8
0
 10
-0.470917
 20
103.485
 11
-1.40535
 21
103.367
  0
LINE
  8
0
 10
-1.40535
 20
103.367
 11
-2.31763
 21
103.133
  0
LINE
  8
0
 10
-2.31763
 20
103.133
 11
-3.19334
 21
102.786
  0
LINE
  8
0
 10
-3.19334
 20
102.786
 11
-4.01869
 21
102.332
  0
LINE
  8
0
 10
-4.01869
 20
102.332
 11
-4.78067
 21
101.779
  0
LINE
  8
0
 10
-4.78067
 20
101.779
 11
-5.46725
 21
101.134
  0
LINE
  8
0
 10
-5.46725
 20
101.134
 11
-6.06763
 21
100.408
  0
LINE
  8
0
 10
-6.06763
 20
100.408
 11
-6.5723
 21
99.6131
  0
LINE
  8
0
 10
-6.5723
 20
99.6131
 11
-6.97331
 21
98.7609
  0
LINE
  8
0
 10
-6.97331
 20
98.7609
 11
-7.26436
 21
97.8652
  0
LINE
  8
0
 10
-7.26436
 20
97.8652
 11
-7.44086
 21
96.94
  0
LINE
  8
0
 10
-7.44086
 20
96.94
 11
-7.5
 21
96
  0
LINE
  8
0
 10
-7.5
 20
96
 11
-7.44086
 21
95.06
  0
LINE
  8
0
 10
-7.44086
 20
95.06
 11
-7.26436
 21
94.1348
  0
LINE
  8
0
 10
-7.26436
 20
94.1348
 11
-6.97331
 21
93.2391
  0
LINE
  8
0
 10
-6.97331
 20
93.2391
 11
-6.5723
 21
92.3869
  0
LINE
  8
0
 10
-6.5723
 20
92.3869
 11
-6.06763
 21
91.5916
  0
LINE
  8
0
 10
-6.06763
 20
91.5916
 11
-5.46725
 21
90.8659
  0
LINE
  8
0
 10
-5.46725
 20
90.8659
 11
-4.78067
 21
90.2212
  0
LINE
  8
0
 10
-4.78067
 20
90.2212
 11
-4.01869
 21
89.6675
  0
LINE
  8
0
 10
-4.01869
 20
89.6675
 11
-3.19334
 21
89.2138
  0
LINE
  8
0
 10
-3.19334
 20
89.2138
 11
-2.31763
 21
88.8671
  0
LINE
  8
0
 10
-2.31763
 20
88.8671
 11
-1.40535
 21
88.6329
  0
LINE
  8
0
 10
-1.40535
 20
88.6329
 11
-0.470917
 21
88.5148
  0
LINE
  8
0
 10
-0.470917
 20
88.5148
 11
0.470917
 21
88.5148
  0
LINE
  8
0
 10
0.470917
 20
88.5148
 11
1.40535
 21
88.6329
  0
LINE
  8
0
 10
-2.24316
 20
90.135
 11
-2.72565
 21
90.196
  0
LINE
  8
0
 10
-2.72565
 20
90.196
 11
-3.1967
 21
90.3169
  0
LINE
  8
0
 10
-3.1967
 20
90.3169
 11
-3.64888
 21
90.4959
  0
LINE
  8
0
 10
-3.64888
 20
90.4959
 11
-4.07506
 21
90.7302
  0
LINE
  8
0
 10
-4.07506
 20
90.7302
 11
-4.46851
 21
91.0161
  0
LINE
  8
0
 10
-4.46851
 20
91.0161
 11
-4.82301
 21
91.349
  0
LINE
  8
0
 10
-4.82301
 20
91.349
 11
-5.13301
 21
91.7237
  0
LINE
  8
0
 10
-5.13301
 20
91.7237
 11
-5.3936
 21
92.1344
  0
LINE
  8
0
 10
-5.3936
 20
92.1344
 11
-5.60068
 21
92.5744
  0
LINE
  8
0
 10
-5.60068
 20
92.5744
 11
-5.75096
 21
93.0369
  0
LINE
  8
0
 10
-5.75096
 20
93.0369
 11
-5.84209
 21
93.5146
  0
LINE
  8
0
 10
-5.84209
 20
93.5146
 11
-5.87262
 21
94
  0
LINE
  8
0
 10
-5.87262
 20
94
 11
-5.87262
 21
98
  0
LINE
  8
0
 10
-5.87262
 20
98
 11
-5.84209
 21
98.4854
  0
LINE
  8
0
 10
-5.84209
 20
98.4854
 11
-5.75096
 21
98.9631
  0
LINE
  8
0
 10
-5.75096
 20
98.9631
 11
-5.60068
 21
99.4256
  0
LINE
  8
0
 10
-5.60068
 20
99.4256
 11
-5.3936
 21
99.8656
  0
LINE
  8
0
 10
-5.3936
 20
99.8656
 11
-5.13301
 21
100.276
  0
LINE
  8
0
 10
-5.13301
 20
100.276
 11
-4.82301
 21
100.651
  0
LINE
  8
0
 10
-4.82301
 20
100.651
 11
-4.46851
 21
100.984
  0
LINE
  8
0
 10
-4.46851
 20
100.984
 11
-4.07506
 21
101.27
  0
LINE
  8
0
 10
-4.07506
 20
101.27
 11
-3.64888
 21
101.504
  0
LINE
  8
0
 10
-3.64888
 20
101.504
 11
-3.1967
 21
101.683
  0
LINE
  8
0
 10
-3.1967
 20
101.683
 11
-2.72565
 21
101.804
  0
LINE
  8
0
 10
-2.72565
 20
101.804
 11
-2.24316
 21
101.865
  0
LINE
  8
0
 10
-2.24316
 20
101.865
 11
2.24316
 21
101.865
  0
LINE
  8
0
 10
2.24316
 20
101.865
 11
2.72565
 21
101.804
  0
LINE
  8
0
 10
2.72565
 20
101.804
 11
3.1967
 21
101.683
  0
LINE
  8
0
 10
3.1967
 20
101.683
 11
3.64888
 21
101.504
  0
LINE
  8
0
 10
3.64888
 20
101.504
 11
4.07506
 21
101.27
  0
LINE
  8
0
 10
4.07506
 20
101.27
 11
4.46851
 21
100.984
  0
LINE
  8
0
 10
4.46851
 20
100.984
 11
4.82301
 21
100.651
  0
LINE
  8
0
 10
4.82301
 20
100.651
 11
5.13301
 21
100.276
  0
LINE
  8
0
 10
5.13301
 20
100.276
 11
5.3936
 21
99.8656
  0
LINE
  8
0
 10
5.3936
 20
99.8656
 11
5.60068
 21
99.4256
  0
LINE
  8
0
 10
5.60068
 20
99.4256
 11
5.75096
 21
98.9631
  0
LINE
  8
0
 10
5.75096
 20
98.9631
 11
5.84209
 21
98.4854
  0
LINE
  8
0
 10
5.84209
 20
98.4854
 11
5.87262
 21
98
  0
LINE
  8
0
 10
5.87262
 20
98
 11
5.87262
 21
94
  0
LINE
  8
0
 10
5.87262
 20
94
 11
5.84209
 21
93.5146
  0
LINE
  8
0
 10
5.84209
 20
93.5146
 11
5.75096
 21
93.0369
  0
LINE
  8
0
 10
5.75096
 20
93.0369
 11
5.60068
 21
92.5744
  0
LINE
  8
0
 10
5.60068
 20
92.5744
 11
5.3936
 21
92.1344
  0
LINE
  8
0
 10
5.3936
 20
92.1344
 11
5.13301
 21
91.7237
  0
LINE
  8
0
 10
5.13301
 20
91.7237
 11
4.82301
 21
91.349
  0
LINE
  8
0
 10
4.82301
 20
91.349
 11
4.46851
 21
91.0161
  0
LINE
  8
0
 10
4.46851
 20
91.0161
 11
4.07506
 21
90.7302
  0
LINE
  8
0
 10
4.07506
 20
90.7302
 11
3.64888
 21
90.4959
  0
LINE
  8
0
 10
3.64888
 20
90.4959
 11
3.1967
 21
90.3169
  0
LINE
  8
0
 10
3.1967
 20
90.3169
 11
2.72565
 21
90.196
  0
LINE
  8
0
 10
2.72565
 20
90.196
 11
2.24316
 21
90.135
  0
LINE
  8
0
 10
2.24316
 20
90.135
 11
-2.24316
 21
90.135
  0
LINE
  8
0
 10
1.40535
 20
64.6329
 11
2.31763
 21
64.8671
  0
LINE
  8
0
 10
2.31763
 20
64.8671
 11
3.19334
 21
65.2138
  0
LINE
  8
0
 10
3.19334
 20
65.2138
 11
4.01869
 21
65.6675
  0
LINE
  8
0
 10
4.01869
 20
65.6675
 11
4.78067
 21
66.2212
  0
LINE
  8
0
 10
4.78067
 20
66.2212
 11
5.46725
 21
66.8659
  0
LINE
  8
0
 10
5.46725
 20
66.8659
 11
6.06763
 21
67.5916
  0
LINE
  8
0
 10
6.06763
 20
67.5916
 11
6.5723
 21
68.3869
  0
LINE
  8
0
 10
6.5723
 20
68.3869
 11
6.97331
 21
69.2391
  0
LINE
  8
0
 10
6.97331
 20
69.2391
 11
7.26436
 21
70.1348
  0
LINE
  8
0
 10
7.26436
 20
70.1348
 11
7.44086
 21
71.06
  0
LINE
  8
0
 10
7.44086
 20
71.06
 11
7.5
 21
72
  0
LINE
  8
0
 10
7.5
 20
72
 11
7.44086
 21
72.94
  0
LINE
  8
0
 10
7.44086
 20
72.94
 11
7.26436
 21
73.8652
  0
LINE
  8
0
 10
7.26436
 20
73.8652
 11
6.97331
 21
74.7609
  0
LINE
  8
0
 10
6.97331
 20
74.7609
 11
6.5723
 21
75.6131
  0
LINE
  8
0
 10
6.5723
 20
75.6131
 11
6.06763
 21
76.4084
  0
LINE
  8
0
 10
6.06763
 20
76.4084
 11
5.46725
 21
77.1341
  0
LINE
  8
0
 10
5.46725
 20
77.1341
 11
4.78067
 21
77.7788
  0
LINE
  8
0
 10
4.78067
 20
77.7788
 11
4.01869
 21
78.3325
  0
LINE
  8
0
 10
4.01869
 20
78.3325
 11
3.19334
 21
78.7862
  0
LINE
  8
0
 10
3.19334
 20
78.7862
 11
2.31763
 21
79.1329
  0
LINE
  8
0
 10
2.31763
 20
79.1329
 11
1.40535
 21
79.3671
  0
LINE
  8
0
 10
1.40535
 20
79.3671
 11
0.470917
 21
79.4852
  0
LINE
  8
0
 10
0.470917
 20
79.4852
 11
-0.470917
 21
79.4852
  0
LINE
  8
0
 10
-0.470917
 20
79.4852
 11
-1.40535
 21
79.3671
  0
LINE
  8
0
 10
-1.40535
 20
79.3671
 11
-2.31763
 21
79.1329
  0
LINE
  8
0
 10
-2.31763
 20
79.1329
 11
-3.19334
 21
78.7862
  0
LINE
  8
0
 10
-3.19334
 20
78.7862
 11
-4.01869
 21
78.3325
  0
LINE
  8
0
 10
-4.01869
 20
78.3325
 11
-4.78067
 21
77.7788
  0
LINE
  8
0
 10
-4.78067
 20
77.7788
 11
-5.46725
 21
77.1341
  0
LINE
  8
0
 10
-5.46725
 20
77.1341
 11
-6.06763
 21
76.4084
  0
LINE
  8
0
 10
-6.06763
 20
76.4084
 11
-6.5723
 21
75.6131
  0
LINE
  8
0
 10
-6.5723
 20
75.6131
 11
-6.97331
 21
74.7609
  0
LINE
  8
0
 10
-6.97331
 20
74.7609
 11
-7.26436
 21
73.8652
  0
LINE
  8
0
 10
-7.26436
 20
73.8652
 11
-7.44086
 21
72.94
  0
LINE
  8
0
 10
-7.44086
 20
72.94
 11
-7.5
 21
72
  0
LINE
  8
0
 10
-7.5
 20
72
 11
-7.44086
 21
71.06
  0
LINE
  8
0
 10
-7.44086
 20
71.06
 11
-7.26436
 21
70.1348
  0
LINE
  8
0
 10
-7.26436
 20
70.1348
 11
-6.97331
 21
69.2391
  0
LINE
  8
0
 10
-6.97331
 20
69.2391
 11
-6.5723
 21
68.3869
  0
LINE
  8
0
 10
-6.5723
 20
68.3869
 11
-6.06763
 21
67.5916
  0
LINE
  8
0
 10
-6.06763
 20
67.5916
 11
-5.46725
 21
66.8659
  0
LINE
  8
0
 10
-5.46725
 20
66.8659
 11
-4.78067
 21
66.2212
  0
LINE
  8
0
 10
-4.78067
 20
66.2212
 11
-4.01869
 21
65.6675
  0
LINE
  8
0
 10
-4.01869
 20
65.6675
 11
-3.19334
 21
65.2138
  0
LINE
  8
0
 10
-3.19334
 20
65.2138
 11
-2.31763
 21
64.8671
  0
LINE
  8
0
 10
-2.31763
 20
64.8671
 11
-1.40535
 21
64.6329
  0
LINE
  8
0
 10
-1.40535
 20
64.6329
 11
-0.470917
 21
64.5148
  0
LINE
  8
0
 10
-0.470917
 20
64.5148
 11
0.470917
 21
64.5148
  0
LINE
  8
0
 10
0.470917
 20
64.5148
 11
1.40535
 21
64.6329
  0
LINE
  8
0
 10
1.40535
 20
40.6329
 11
2.31763
 21
40.8671
  0
LINE
  8
0
 10
2.31763
 20
40.8671
 11
3.19334
 21
41.2138
  0
LINE
  8
0
 10
3.19334
 20
41.2138
 11
4.01869
 21
41.6675
  0
LINE
  8
0
 10
4.01869
 20
41.6675
 11
4.78067
 21
42.2212
  0
LINE
  8
0
 10
4.78067
 20
42.2212
 11
5.46725
 21
42.8659
  0
LINE
  8
0
 10
5.46725
 20
42.8659
 11
6.06763
 21
43.5916
  0
LINE
  8
0
 10
6.06763
 20
43.5916
 11
6.5723
 21
44.3869
  0
LINE
  8
0
 10
6.5723
 20
44.3869
 11
6.97331
 21
45.2391
  0
LINE
  8
0
 10
6.97331
 20
45.2391
 11
7.26436
 21
46.1348
  0
LINE
  8
0
 10
7.26436
 20
46.1348
 11
7.44086
 21
47.06
  0
LINE
  8
0
 10
7.44086
 20
47.06
 11
7.5
 21
48
  0
LINE
  8
0
 10
7.5
 20
48
 11
7.44086
 21
48.94
  0
LINE
  8
0
 10
7.44086
 20
48.94
 11
7.26436
 21
49.8652
  0
LINE
  8
0
 10
7.26436
 20
49.8652
 11
6.97331
 21
50.7609
  0
LINE
  8
0
 10
6.97331
 20
50.7609
 11
6.5723
 21
51.6131
  0
LINE
  8
0
 10
6.5723
 20
51.6131
 11
6.06763
 21
52.4084
  0
LINE
  8
0
 10
6.06763
 20
52.4084
 11
5.46725
 21
53.1341
  0
LINE
  8
0
 10
5.46725
 20
53.1341
 11
4.78067
 21
53.7788
  0
LINE
  8
0
 10
4.78067
 20
53.7788
 11
4.01869
 21
54.3325
  0
LINE
  8
0
 10
4.01869
 20
54.3325
 11
3.19334
 21
54.7862
  0
LINE
  8
0
 10
3.19334
 20
54.7862
 11
2.31763
 21
55.1329
  0
LINE
  8
0
 10
2.31763
 20
55.1329
 11
1.40535
 21
55.3671
  0
LINE
  8
0
 10
1.40535
 20
55.3671
 11
0.470917
 21
55.4852
  0
LINE
  8
0
 10
0.470917
 20
55.4852
 11
-0.470917
 21
55.4852
  0
LINE
  8
0
 10
-0.470917
 20
55.4852
 11
-1.40535
 21
55.3671
  0
LINE
  8
0
 10
-1.40535
 20
55.3671
 11
-2.31763
 21
55.1329
  0
LINE
  8
0
 10
-2.31763
 20
55.1329
 11
-3.19334
 21
54.7862
  0
LINE
  8
0
 10
-3.19334
 20
54.7862
 11
-4.01869
 21
54.3325
  0
LINE
  8
0
 10
-4.01869
 20
54.3325
 11
-4.78067
 21
53.7788
  0
LINE
  8
0
 10
-4.78067
 20
53.7788
 11
-5.46725
 21
53.1341
  0
LINE
  8
0
 10
-5.46725
 20
53.1341
 11
-6.06763
 21
52.4084
  0
LINE
  8
0
 10
-6.06763
 20
52.4084
 11
-6.5723
 21
51.6131
  0
LINE
  8
0
 10
-6.5723
 20
51.6131
 11
-6.97331
 21
50.7609
  0
LINE
  8
0
 10
-6.97331
 20
50.7609
 11
-7.26436
 21
49.8652
  0
LINE
  8
0
 10
-7.26436
 20
49.8652
 11
-7.44086
 21
48.94
  0
LINE
  8
0
 10
-7.44086
 20
48.94
 11
-7.5
 21
48
  0
LINE
  8
0
 10
-7.5
 20
48
 11
-7.44086
 21
47.06
  0
LINE
  8
0
 10
-7.44086
 20
47.06
 11
-7.26436
 21
46.1348
  0
LINE
  8
0
 10
-7.26436
 20
46.1348
 11
-6.97331
 21
45.2391
  0
LINE
  8
0
 10
-6.97331
 20
45.2391
 11
-6.5723
 21
44.3869
  0
LINE
  8
0
 10
-6.5723
 20
44.3869
 11
-6.06763
 21
43.5916
  0
LINE
  8
0
 10
-6.06763
 20
43.5916
 11
-5.46725
 21
42.8659
  0
LINE
  8
0
 10
-5.46725
 20
42.8659
 11
-4.78067
 21
42.2212
  0
LINE
  8
0
 10
-4.78067
 20
42.2212
 11
-4.01869
 21
41.6675
  0
LINE
  8
0
 10
-4.01869
 20
41.6675
 11
-3.19334
 21
41.2138
  0
LINE
  8
0
 10
-3.19334
 20
41.2138
 11
-2.31763
 21
40.8671
  0
LINE
  8
0
 10
-2.31763
 20
40.8671
 11
-1.40535
 21
40.6329
  0
LINE
  8
0
 10
-1.40535
 20
40.6329
 11
-0.470917
 21
40.5148
  0
LINE
  8
0
 10
-0.470917
 20
40.5148
 11
0.470917
 21
40.5148
  0
LINE
  8
0
 10
0.470917
 20
40.5148
 11
1.40535
 21
40.6329
  0
LINE
  8
0
 10
-0.113022
 20
46.2036
 11
-0.33728
 21
46.2319
  0
LINE
  8
0
 10
-0.33728
 20
46.2319
 11
-0.556229
 21
46.2881
  0
LINE
  8
0
 10
-0.556229
 20
46.2881
 11
-0.766388
 21
46.3713
  0
LINE
  8
0
 10
-0.766388
 20
46.3713
 11
-0.964478
 21
46.4802
  0
LINE
  8
0
 10
-0.964478
 20
46.4802
 11
-1.14735
 21
46.6131
  0
LINE
  8
0
 10
-1.14735
 20
46.6131
 11
-1.31213
 21
46.7678
  0
LINE
  8
0
 10
-1.31213
 20
46.7678
 11
-1.45622
 21
46.942
  0
LINE
  8
0
 10
-1.45622
 20
46.942
 11
-1.57735
 21
47.1329
  0
LINE
  8
0
 10
-1.57735
 20
47.1329
 11
-1.67358
 21
47.3374
  0
LINE
  8
0
 10
-1.67358
 20
47.3374
 11
-1.74344
 21
47.5524
  0
LINE
  8
0
 10
-1.74344
 20
47.5524
 11
-1.7858
 21
47.7744
  0
LINE
  8
0
 10
-1.7858
 20
47.7744
 11
-1.79999
 21
48
  0
LINE
  8
0
 10
-1.79999
 20
48
 11
-1.7858
 21
48.2256
  0
LINE
  8
0
 10
-1.7858
 20
48.2256
 11
-1.74344
 21
48.4476
  0
LINE
  8
0
 10
-1.74344
 20
48.4476
 11
-1.67358
 21
48.6626
  0
LINE
  8
0
 10
-1.67358
 20
48.6626
 11
-1.57735
 21
48.8671
  0
LINE
  8
0
 10
-1.57735
 20
48.8671
 11
-1.45622
 21
49.058
  0
LINE
  8
0
 10
-1.45622
 20
49.058
 11
-1.31213
 21
49.2322
  0
LINE
  8
0
 10
-1.31213
 20
49.2322
 11
-1.14735
 21
49.3869
  0
LINE
  8
0
 10
-1.14735
 20
49.3869
 11
-0.964478
 21
49.5198
  0
LINE
  8
0
 10
-0.964478
 20
49.5198
 11
-0.766388
 21
49.6287
  0
LINE
  8
0
 10
-0.766388
 20
49.6287
 11
-0.556229
 21
49.7119
  0
LINE
  8
0
 10
-0.556229
 20
49.7119
 11
-0.33728
 21
49.7681
  0
LINE
  8
0
 10
-0.33728
 20
49.7681
 11
-0.113022
 21
49.7964
  0
LINE
  8
0
 10
-0.113022
 20
49.7964
 11
0.113022
 21
49.7964
  0
LINE
  8
0
 10
0.113022
 20
49.7964
 11
0.33728
 21
49.7681
  0
LINE
  8
0
 10
0.33728
 20
49.7681
 11
0.556229
 21
49.7119
  0
LINE
  8
0
 10
0.556229
 20
49.7119
 11
0.766388
 21
49.6287
  0
LINE
  8
0
 10
0.766388
 20
49.6287
 11
0.964478
 21
49.5198
  0
LINE
  8
0
 10
0.964478
 20
49.5198
 11
1.14735
 21
49.3869
  0
LINE
  8
0
 10
1.14735
 20
49.3869
 11
1.31213
 21
49.2322
  0
LINE
  8
0
 10
1.31213
 20
49.2322
 11
1.45622
 21
49.058
  0
LINE
  8
0
 10
1.45622
 20
49.058
 11
1.57735
 21
48.8671
  0
LINE
  8
0
 10
1.57735
 20
48.8671
 11
1.67358
 21
48.6626
  0
LINE
  8
0
 10
1.67358
 20
48.6626
 11
1.74344
 21
48.4476
  0
LINE
  8
0
 10
1.74344
 20
48.4476
 11
1.7858
 21
48.2256
  0
LINE
  8
0
 10
1.7858
 20
48.2256
 11
1.79999
 21
48
  0
LINE
  8
0
 10
1.79999
 20
48
 11
1.7858
 21
47.7744
  0
LINE
  8
0
 10
1.7858
 20
47.7744
 11
1.74344
 21
47.5524
  0
LINE
  8
0
 10
1.74344
 20
47.5524
 11
1.67358
 21
47.3374
  0
LINE
  8
0
 10
1.67358
 20
47.3374
 11
1.57735
 21
47.1329
  0
LINE
  8
0
 10
1.57735
 20
47.1329
 11
1.45622
 21
46.942
  0
LINE
  8
0
 10
1.45622
 20
46.942
 11
1.31213
 21
46.7678
  0
LINE
  8
0
 10
1.31213
 20
46.7678
 11
1.14735
 21
46.6131
  0
LINE
  8
0
 10
1.14735
 20
46.6131
 11
0.964478
 21
46.4802
  0
LINE
  8
0
 10
0.964478
 20
46.4802
 11
0.766388
 21
46.3713
  0
LINE
  8
0
 10
0.766388
 20
46.3713
 11
0.556229
 21
46.2881
  0
LINE
  8
0
 10
0.556229
 20
46.2881
 11
0.33728
 21
46.2319
  0
LINE
  8
0
 10
0.33728
 20
46.2319
 11
0.113022
 21
46.2036
  0
LINE
  8
0
 10
0.113022
 20
46.2036
 11
-0.113022
 21
46.2036
  0
ENDSEC
  0
SECTION
  2
OBJECTS
  0
DICTIONARY
  0
ENDSEC
  0
EOF
