  0
SECTION
  2
BLOCKS
  0
ENDSEC
  0
SECTION
  2
ENTITIES
  0
LINE
  8
0
 10
10.9369
 20
439.589
 11
11.5451
 21
439.745
  0
LINE
  8
0
 10
11.5451
 20
439.745
 11
12.1289
 21
439.976
  0
LINE
  8
0
 10
12.1289
 20
439.976
 11
12.6791
 21
440.278
  0
LINE
  8
0
 10
12.6791
 20
440.278
 11
13.1871
 21
440.647
  0
LINE
  8
0
 10
13.1871
 20
440.647
 11
13.6448
 21
441.077
  0
LINE
  8
0
 10
13.6448
 20
441.077
 11
14.0451
 21
441.561
  0
LINE
  8
0
 10
14.0451
 20
441.561
 11
14.3815
 21
442.091
  0
LINE
  8
0
 10
14.3815
 20
442.091
 11
14.6489
 21
442.659
  0
LINE
  8
0
 10
14.6489
 20
442.659
 11
14.8429
 21
443.257
  0
LINE
  8
0
 10
14.8429
 20
443.257
 11
14.9606
 21
443.873
  0
LINE
  8
0
 10
14.9606
 20
443.873
 11
15
 21
444.5
  0
LINE
  8
0
 10
15
 20
444.5
 11
15
 21
599.5
  0
LINE
  8
0
 10
15
 20
599.5
 11
14.9606
 21
600.127
  0
LINE
  8
0
 10
14.9606
 20
600.127
 11
14.8429
 21
600.743
  0
LINE
  8
0
 10
14.8429
 20
600.743
 11
14.6489
 21
601.341
  0
LINE
  8
0
 10
14.6489
 20
601.341
 11
14.3815
 21
601.909
  0
LINE
  8
0
 10
14.3815
 20
601.909
 11
14.0451
 21
602.439
  0
LINE
  8
0
 10
14.0451
 20
602.439
 11
13.6448
 21
602.923
  0
LINE
  8
0
 10
13.6448
 20
602.923
 11
13.1871
 21
603.353
  0
LINE
  8
0
 10
13.1871
 20
603.353
 11
12.6791
 21
603.722
  0
LINE
  8
0
 10
12.6791
 20
603.722
 11
12.1289
 21
604.024
  0
LINE
  8
0
 10
12.1289
 20
604.024
 11
11.5451
 21
604.255
  0
LINE
  8
0
 10
11.5451
 20
604.255
 11
10.9369
 21
604.411
  0
LINE
  8
0
 10
10.9369
 20
604.411
 11
10.3139
 21
604.49
  0
LINE
  8
0
 10
10.3139
 20
604.49
 11
-10.3139
 21
604.49
  0
LINE
  8
0
 10
-10.3139
 20
604.49
 11
-10.9369
 21
604.411
  0
LINE
  8
0
 10
-10.9369
 20
604.411
 11
-11.5451
 21
604.255
  0
LINE
  8
0
 10
-11.5451
 20
604.255
 11
-12.1289
 21
604.024
  0
LINE
  8
0
 10
-12.1289
 20
604.024
 11
-12.6791
 21
603.722
  0
LINE
  8
0
 10
-12.6791
 20
603.722
 11
-13.1871
 21
603.353
  0
LINE
  8
0
 10
-13.1871
 20
603.353
 11
-13.6448
 21
602.923
  0
LINE
  8
0
 10
-13.6448
 20
602.923
 11
-14.0451
 21
602.439
  0
LINE
  8
0
 10
-14.0451
 20
602.439
 11
-14.3815
 21
601.909
  0
LINE
  8
0
 10
-14.3815
 20
601.909
 11
-14.6489
 21
601.341
  0
LINE
  8
0
 10
-14.6489
 20
601.341
 11
-14.8429
 21
600.743
  0
LINE
  8
0
 10
-14.8429
 20
600.743
 11
-14.9606
 21
600.127
  0
LINE
  8
0
 10
-14.9606
 20
600.127
 11
-15
 21
599.5
  0
LINE
  8
0
 10
-15
 20
599.5
 11
-15
 21
444.5
  0
LINE
  8
0
 10
-15
 20
444.5
 11
-14.9606
 21
443.873
  0
LINE
  8
0
 10
-14.9606
 20
443.873
 11
-14.8429
 21
443.257
  0
LINE
  8
0
 10
-14.8429
 20
443.257
 11
-14.6489
 21
442.659
  0
LINE
  8
0
 10
-14.6489
 20
442.659
 11
-14.3815
 21
442.091
  0
LINE
  8
0
 10
-14.3815
 20
442.091
 11
-14.0451
 21
441.561
  0
LINE
  8
0
 10
-14.0451
 20
441.561
 11
-13.6448
 21
441.077
  0
LINE
  8
0
 10
-13.6448
 20
441.077
 11
-13.1871
 21
440.647
  0
LINE
  8
0
 10
-13.1871
 20
440.647
 11
-12.6791
 21
440.278
  0
LINE
  8
0
 10
-12.6791
 20
440.278
 11
-12.1289
 21
439.976
  0
LINE
  8
0
 10
-12.1289
 20
439.976
 11
-11.5451
 21
439.745
  0
LINE
  8
0
 10
-11.5451
 20
439.745
 11
-10.9369
 21
439.589
  0
LINE
  8
0
 10
-10.9369
 20
439.589
 11
-10.3139
 21
439.51
  0
LINE
  8
0
 10
-10.3139
 20
439.51
 11
10.3139
 21
439.51
  0
LINE
  8
0
 10
10.3139
 20
439.51
 11
10.9369
 21
439.589
  0
LINE
  8
0
 10
-9.69545
 20
441.893
 11
-10.0833
 21
441.942
  0
LINE
  8
0
 10
-10.0833
 20
441.942
 11
-10.4619
 21
442.039
  0
LINE
  8
0
 10
-10.4619
 20
442.039
 11
-10.8254
 21
442.183
  0
LINE
  8
0
 10
-10.8254
 20
442.183
 11
-11.168
 21
442.372
  0
LINE
  8
0
 10
-11.168
 20
442.372
 11
-11.4842
 21
442.601
  0
LINE
  8
0
 10
-11.4842
 20
442.601
 11
-11.7692
 21
442.869
  0
LINE
  8
0
 10
-11.7692
 20
442.869
 11
-12.0184
 21
443.17
  0
LINE
  8
0
 10
-12.0184
 20
443.17
 11
-12.2279
 21
443.5
  0
LINE
  8
0
 10
-12.2279
 20
443.5
 11
-12.3943
 21
443.854
  0
LINE
  8
0
 10
-12.3943
 20
443.854
 11
-12.5151
 21
444.226
  0
LINE
  8
0
 10
-12.5151
 20
444.226
 11
-12.5884
 21
444.61
  0
LINE
  8
0
 10
-12.5884
 20
444.61
 11
-12.6129
 21
445
  0
LINE
  8
0
 10
-12.6129
 20
445
 11
-12.6129
 21
599
  0
LINE
  8
0
 10
-12.6129
 20
599
 11
-12.5884
 21
599.39
  0
LINE
  8
0
 10
-12.5884
 20
599.39
 11
-12.5151
 21
599.774
  0
LINE
  8
0
 10
-12.5151
 20
599.774
 11
-12.3943
 21
600.146
  0
LINE
  8
0
 10
-12.3943
 20
600.146
 11
-12.2279
 21
600.5
  0
LINE
  8
0
 10
-12.2279
 20
600.5
 11
-12.0184
 21
600.83
  0
LINE
  8
0
 10
-12.0184
 20
600.83
 11
-11.7692
 21
601.131
  0
LINE
  8
0
 10
-11.7692
 20
601.131
 11
-11.4842
 21
601.399
  0
LINE
  8
0
 10
-11.4842
 20
601.399
 11
-11.168
 21
601.628
  0
LINE
  8
0
 10
-11.168
 20
601.628
 11
-10.8254
 21
601.817
  0
LINE
  8
0
 10
-10.8254
 20
601.817
 11
-10.4619
 21
601.961
  0
LINE
  8
0
 10
-10.4619
 20
601.961
 11
-10.0833
 21
602.058
  0
LINE
  8
0
 10
-10.0833
 20
602.058
 11
-9.69545
 21
602.107
  0
LINE
  8
0
 10
-9.69545
 20
602.107
 11
9.69545
 21
602.107
  0
LINE
  8
0
 10
9.69545
 20
602.107
 11
10.0833
 21
602.058
  0
LINE
  8
0
 10
10.0833
 20
602.058
 11
10.4619
 21
601.961
  0
LINE
  8
0
 10
10.4619
 20
601.961
 11
10.8254
 21
601.817
  0
LINE
  8
0
 10
10.8254
 20
601.817
 11
11.168
 21
601.628
  0
LINE
  8
0
 10
11.168
 20
601.628
 11
11.4842
 21
601.399
  0
LINE
  8
0
 10
11.4842
 20
601.399
 11
11.7692
 21
601.131
  0
LINE
  8
0
 10
11.7692
 20
601.131
 11
12.0184
 21
600.83
  0
LINE
  8
0
 10
12.0184
 20
600.83
 11
12.2279
 21
600.5
  0
LINE
  8
0
 10
12.2279
 20
600.5
 11
12.3943
 21
600.146
  0
LINE
  8
0
 10
12.3943
 20
600.146
 11
12.5151
 21
599.774
  0
LINE
  8
0
 10
12.5151
 20
599.774
 11
12.5884
 21
599.39
  0
LINE
  8
0
 10
12.5884
 20
599.39
 11
12.6129
 21
599
  0
LINE
  8
0
 10
12.6129
 20
599
 11
12.6129
 21
445
  0
LINE
  8
0
 10
12.6129
 20
445
 11
12.5884
 21
444.61
  0
LINE
  8
0
 10
12.5884
 20
444.61
 11
12.5151
 21
444.226
  0
LINE
  8
0
 10
12.5151
 20
444.226
 11
12.3943
 21
443.854
  0
LINE
  8
0
 10
12.3943
 20
443.854
 11
12.2279
 21
443.5
  0
LINE
  8
0
 10
12.2279
 20
443.5
 11
12.0184
 21
443.17
  0
LINE
  8
0
 10
12.0184
 20
443.17
 11
11.7692
 21
442.869
  0
LINE
  8
0
 10
11.7692
 20
442.869
 11
11.4842
 21
442.601
  0
LINE
  8
0
 10
11.4842
 20
442.601
 11
11.168
 21
442.372
  0
LINE
  8
0
 10
11.168
 20
442.372
 11
10.8254
 21
442.183
  0
LINE
  8
0
 10
10.8254
 20
442.183
 11
10.4619
 21
442.039
  0
LINE
  8
0
 10
10.4619
 20
442.039
 11
10.0833
 21
441.942
  0
LINE
  8
0
 10
10.0833
 20
441.942
 11
9.69545
 21
441.893
  0
LINE
  8
0
 10
9.69545
 20
441.893
 11
-9.69545
 21
441.893
  0
LINE
  8
0
 10
10.9369
 20
265.589
 11
11.5451
 21
265.745
  0
LINE
  8
0
 10
11.5451
 20
265.745
 11
12.1289
 21
265.976
  0
LINE
  8
0
 10
12.1289
 20
265.976
 11
12.6791
 21
266.278
  0
LINE
  8
0
 10
12.6791
 20
266.278
 11
13.1871
 21
266.647
  0
LINE
  8
0
 10
13.1871
 20
266.647
 11
13.6448
 21
267.077
  0
LINE
  8
0
 10
13.6448
 20
267.077
 11
14.0451
 21
267.561
  0
LINE
  8
0
 10
14.0451
 20
267.561
 11
14.3815
 21
268.091
  0
LINE
  8
0
 10
14.3815
 20
268.091
 11
14.6489
 21
268.659
  0
LINE
  8
0
 10
14.6489
 20
268.659
 11
14.8429
 21
269.257
  0
LINE
  8
0
 10
14.8429
 20
269.257
 11
14.9606
 21
269.873
  0
LINE
  8
0
 10
14.9606
 20
269.873
 11
15
 21
270.5
  0
LINE
  8
0
 10
15
 20
270.5
 11
15
 21
425.5
  0
LINE
  8
0
 10
15
 20
425.5
 11
14.9606
 21
426.127
  0
LINE
  8
0
 10
14.9606
 20
426.127
 11
14.8429
 21
426.743
  0
LINE
  8
0
 10
14.8429
 20
426.743
 11
14.6489
 21
427.341
  0
LINE
  8
0
 10
14.6489
 20
427.341
 11
14.3815
 21
427.909
  0
LINE
  8
0
 10
14.3815
 20
427.909
 11
14.0451
 21
428.439
  0
LINE
  8
0
 10
14.0451
 20
428.439
 11
13.6448
 21
428.923
  0
LINE
  8
0
 10
13.6448
 20
428.923
 11
13.1871
 21
429.353
  0
LINE
  8
0
 10
13.1871
 20
429.353
 11
12.6791
 21
429.722
  0
LINE
  8
0
 10
12.6791
 20
429.722
 11
12.1289
 21
430.024
  0
LINE
  8
0
 10
12.1289
 20
430.024
 11
11.5451
 21
430.255
  0
LINE
  8
0
 10
11.5451
 20
430.255
 11
10.9369
 21
430.411
  0
LINE
  8
0
 10
10.9369
 20
430.411
 11
10.3139
 21
430.49
  0
LINE
  8
0
 10
10.3139
 20
430.49
 11
-10.3139
 21
430.49
  0
LINE
  8
0
 10
-10.3139
 20
430.49
 11
-10.9369
 21
430.411
  0
LINE
  8
0
 10
-10.9369
 20
430.411
 11
-11.5451
 21
430.255
  0
LINE
  8
0
 10
-11.5451
 20
430.255
 11
-12.1289
 21
430.024
  0
LINE
  8
0
 10
-12.1289
 20
430.024
 11
-12.6791
 21
429.722
  0
LINE
  8
0
 10
-12.6791
 20
429.722
 11
-13.1871
 21
429.353
  0
LINE
  8
0
 10
-13.1871
 20
429.353
 11
-13.6448
 21
428.923
  0
LINE
  8
0
 10
-13.6448
 20
428.923
 11
-14.0451
 21
428.439
  0
LINE
  8
0
 10
-14.0451
 20
428.439
 11
-14.3815
 21
427.909
  0
LINE
  8
0
 10
-14.3815
 20
427.909
 11
-14.6489
 21
427.341
  0
LINE
  8
0
 10
-14.6489
 20
427.341
 11
-14.8429
 21
426.743
  0
LINE
  8
0
 10
-14.8429
 20
426.743
 11
-14.9606
 21
426.127
  0
LINE
  8
0
 10
-14.9606
 20
426.127
 11
-15
 21
425.5
  0
LINE
  8
0
 10
-15
 20
425.5
 11
-15
 21
270.5
  0
LINE
  8
0
 10
-15
 20
270.5
 11
-14.9606
 21
269.873
  0
LINE
  8
0
 10
-14.9606
 20
269.873
 11
-14.8429
 21
269.257
  0
LINE
  8
0
 10
-14.8429
 20
269.257
 11
-14.6489
 21
268.659
  0
LINE
  8
0
 10
-14.6489
 20
268.659
 11
-14.3815
 21
268.091
  0
LINE
  8
0
 10
-14.3815
 20
268.091
 11
-14.0451
 21
267.561
  0
LINE
  8
0
 10
-14.0451
 20
267.561
 11
-13.6448
 21
267.077
  0
LINE
  8
0
 10
-13.6448
 20
267.077
 11
-13.1871
 21
266.647
  0
LINE
  8
0
 10
-13.1871
 20
266.647
 11
-12.6791
 21
266.278
  0
LINE
  8
0
 10
-12.6791
 20
266.278
 11
-12.1289
 21
265.976
  0
LINE
  8
0
 10
-12.1289
 20
265.976
 11
-11.5451
 21
265.745
  0
LINE
  8
0
 10
-11.5451
 20
265.745
 11
-10.9369
 21
265.589
  0
LINE
  8
0
 10
-10.9369
 20
265.589
 11
-10.3139
 21
265.51
  0
LINE
  8
0
 10
-10.3139
 20
265.51
 11
10.3139
 21
265.51
  0
LINE
  8
0
 10
10.3139
 20
265.51
 11
10.9369
 21
265.589
  0
LINE
  8
0
 10
7.36592
 20
420.869
 11
7.09988
 21
420.903
  0
LINE
  8
0
 10
7.09988
 20
420.903
 11
6.84015
 21
420.969
  0
LINE
  8
0
 10
6.84015
 20
420.969
 11
6.59084
 21
421.068
  0
LINE
  8
0
 10
6.59084
 20
421.068
 11
6.35585
 21
421.197
  0
LINE
  8
0
 10
6.35585
 20
421.197
 11
6.1389
 21
421.355
  0
LINE
  8
0
 10
6.1389
 20
421.355
 11
5.94344
 21
421.538
  0
LINE
  8
0
 10
5.94344
 20
421.538
 11
5.77251
 21
421.745
  0
LINE
  8
0
 10
5.77251
 20
421.745
 11
5.62881
 21
421.971
  0
LINE
  8
0
 10
5.62881
 20
421.971
 11
5.51465
 21
422.214
  0
LINE
  8
0
 10
5.51465
 20
422.214
 11
5.43178
 21
422.469
  0
LINE
  8
0
 10
5.43178
 20
422.469
 11
5.38153
 21
422.732
  0
LINE
  8
0
 10
5.38153
 20
422.732
 11
5.3647
 21
423
  0
LINE
  8
0
 10
5.3647
 20
423
 11
5.38153
 21
423.268
  0
LINE
  8
0
 10
5.38153
 20
423.268
 11
5.43178
 21
423.531
  0
LINE
  8
0
 10
5.43178
 20
423.531
 11
5.51465
 21
423.786
  0
LINE
  8
0
 10
5.51465
 20
423.786
 11
5.62881
 21
424.029
  0
LINE
  8
0
 10
5.62881
 20
424.029
 11
5.77251
 21
424.255
  0
LINE
  8
0
 10
5.77251
 20
424.255
 11
5.94344
 21
424.462
  0
LINE
  8
0
 10
5.94344
 20
424.462
 11
6.1389
 21
424.645
  0
LINE
  8
0
 10
6.1389
 20
424.645
 11
6.35585
 21
424.803
  0
LINE
  8
0
 10
6.35585
 20
424.803
 11
6.59084
 21
424.932
  0
LINE
  8
0
 10
6.59084
 20
424.932
 11
6.84015
 21
425.031
  0
LINE
  8
0
 10
6.84015
 20
425.031
 11
7.09988
 21
425.097
  0
LINE
  8
0
 10
7.09988
 20
425.097
 11
7.36592
 21
425.131
  0
LINE
  8
0
 10
7.36592
 20
425.131
 11
7.63406
 21
425.131
  0
LINE
  8
0
 10
7.63406
 20
425.131
 11
7.9001
 21
425.097
  0
LINE
  8
0
 10
7.9001
 20
425.097
 11
8.15984
 21
425.031
  0
LINE
  8
0
 10
8.15984
 20
425.031
 11
8.40915
 21
424.932
  0
LINE
  8
0
 10
8.40915
 20
424.932
 11
8.64413
 21
424.803
  0
LINE
  8
0
 10
8.64413
 20
424.803
 11
8.86108
 21
424.645
  0
LINE
  8
0
 10
8.86108
 20
424.645
 11
9.05655
 21
424.462
  0
LINE
  8
0
 10
9.05655
 20
424.462
 11
9.22748
 21
424.255
  0
LINE
  8
0
 10
9.22748
 20
424.255
 11
9.37117
 21
424.029
  0
LINE
  8
0
 10
9.37117
 20
424.029
 11
9.48534
 21
423.786
  0
LINE
  8
0
 10
9.48534
 20
423.786
 11
9.56821
 21
423.531
  0
LINE
  8
0
 10
9.56821
 20
423.531
 11
9.61845
 21
423.268
  0
LINE
  8
0
 10
9.61845
 20
423.268
 11
9.63528
 21
423
  0
LINE
  8
0
 10
9.63528
 20
423
 11
9.61845
 21
422.732
  0
LINE
  8
0
 10
9.61845
 20
422.732
 11
9.56821
 21
422.469
  0
LINE
  8
0
 10
9.56821
 20
422.469
 11
9.48534
 21
422.214
  0
LINE
  8
0
 10
9.48534
 20
422.214
 11
9.37117
 21
421.971
  0
LINE
  8
0
 10
9.37117
 20
421.971
 11
9.22748
 21
421.745
  0
LINE
  8
0
 10
9.22748
 20
421.745
 11
9.05655
 21
421.538
  0
LINE
  8
0
 10
9.05655
 20
421.538
 11
8.86108
 21
421.355
  0
LINE
  8
0
 10
8.86108
 20
421.355
 11
8.64413
 21
421.197
  0
LINE
  8
0
 10
8.64413
 20
421.197
 11
8.40915
 21
421.068
  0
LINE
  8
0
 10
8.40915
 20
421.068
 11
8.15984
 21
420.969
  0
LINE
  8
0
 10
8.15984
 20
420.969
 11
7.9001
 21
420.903
  0
LINE
  8
0
 10
7.9001
 20
420.903
 11
7.63406
 21
420.869
  0
LINE
  8
0
 10
7.63406
 20
420.869
 11
7.36592
 21
420.869
  0
LINE
  8
0
 10
-7.63406
 20
420.869
 11
-7.9001
 21
420.903
  0
LINE
  8
0
 10
-7.9001
 20
420.903
 11
-8.15984
 21
420.969
  0
LINE
  8
0
 10
-8.15984
 20
420.969
 11
-8.40915
 21
421.068
  0
LINE
  8
0
 10
-8.40915
 20
421.068
 11
-8.64413
 21
421.197
  0
LINE
  8
0
 10
-8.64413
 20
421.197
 11
-8.86108
 21
421.355
  0
LINE
  8
0
 10
-8.86108
 20
421.355
 11
-9.05655
 21
421.538
  0
LINE
  8
0
 10
-9.05655
 20
421.538
 11
-9.22748
 21
421.745
  0
LINE
  8
0
 10
-9.22748
 20
421.745
 11
-9.37117
 21
421.971
  0
LINE
  8
0
 10
-9.37117
 20
421.971
 11
-9.48534
 21
422.214
  0
LINE
  8
0
 10
-9.48534
 20
422.214
 11
-9.56821
 21
422.469
  0
LINE
  8
0
 10
-9.56821
 20
422.469
 11
-9.61845
 21
422.732
  0
LINE
  8
0
 10
-9.61845
 20
422.732
 11
-9.63528
 21
423
  0
LINE
  8
0
 10
-9.63528
 20
423
 11
-9.61845
 21
423.268
  0
LINE
  8
0
 10
-9.61845
 20
423.268
 11
-9.56821
 21
423.531
  0
LINE
  8
0
 10
-9.56821
 20
423.531
 11
-9.48534
 21
423.786
  0
LINE
  8
0
 10
-9.48534
 20
423.786
 11
-9.37117
 21
424.029
  0
LINE
  8
0
 10
-9.37117
 20
424.029
 11
-9.22748
 21
424.255
  0
LINE
  8
0
 10
-9.22748
 20
424.255
 11
-9.05655
 21
424.462
  0
LINE
  8
0
 10
-9.05655
 20
424.462
 11
-8.86108
 21
424.645
  0
LINE
  8
0
 10
-8.86108
 20
424.645
 11
-8.64413
 21
424.803
  0
LINE
  8
0
 10
-8.64413
 20
424.803
 11
-8.40915
 21
424.932
  0
LINE
  8
0
 10
-8.40915
 20
424.932
 11
-8.15984
 21
425.031
  0
LINE
  8
0
 10
-8.15984
 20
425.031
 11
-7.9001
 21
425.097
  0
LINE
  8
0
 10
-7.9001
 20
425.097
 11
-7.63406
 21
425.131
  0
LINE
  8
0
 10
-7.63406
 20
425.131
 11
-7.36592
 21
425.131
  0
LINE
  8
0
 10
-7.36592
 20
425.131
 11
-7.09988
 21
425.097
  0
LINE
  8
0
 10
-7.09988
 20
425.097
 11
-6.84015
 21
425.031
  0
LINE
  8
0
 10
-6.84015
 20
425.031
 11
-6.59084
 21
424.932
  0
LINE
  8
0
 10
-6.59084
 20
424.932
 11
-6.35585
 21
424.803
  0
LINE
  8
0
 10
-6.35585
 20
424.803
 11
-6.1389
 21
424.645
  0
LINE
  8
0
 10
-6.1389
 20
424.645
 11
-5.94344
 21
424.462
  0
LINE
  8
0
 10
-5.94344
 20
424.462
 11
-5.77251
 21
424.255
  0
LINE
  8
0
 10
-5.77251
 20
424.255
 11
-5.62881
 21
424.029
  0
LINE
  8
0
 10
-5.62881
 20
424.029
 11
-5.51465
 21
423.786
  0
LINE
  8
0
 10
-5.51465
 20
423.786
 11
-5.43178
 21
423.531
  0
LINE
  8
0
 10
-5.43178
 20
423.531
 11
-5.38153
 21
423.268
  0
LINE
  8
0
 10
-5.38153
 20
423.268
 11
-5.3647
 21
423
  0
LINE
  8
0
 10
-5.3647
 20
423
 11
-5.38153
 21
422.732
  0
LINE
  8
0
 10
-5.38153
 20
422.732
 11
-5.43178
 21
422.469
  0
LINE
  8
0
 10
-5.43178
 20
422.469
 11
-5.51465
 21
422.214
  0
LINE
  8
0
 10
-5.51465
 20
422.214
 11
-5.62881
 21
421.971
  0
LINE
  8
0
 10
-5.62881
 20
421.971
 11
-5.77251
 21
421.745
  0
LINE
  8
0
 10
-5.77251
 20
421.745
 11
-5.94344
 21
421.538
  0
LINE
  8
0
 10
-5.94344
 20
421.538
 11
-6.1389
 21
421.355
  0
LINE
  8
0
 10
-6.1389
 20
421.355
 11
-6.35585
 21
421.197
  0
LINE
  8
0
 10
-6.35585
 20
421.197
 11
-6.59084
 21
421.068
  0
LINE
  8
0
 10
-6.59084
 20
421.068
 11
-6.84015
 21
420.969
  0
LINE
  8
0
 10
-6.84015
 20
420.969
 11
-7.09988
 21
420.903
  0
LINE
  8
0
 10
-7.09988
 20
420.903
 11
-7.36592
 21
420.869
  0
LINE
  8
0
 10
-7.36592
 20
420.869
 11
-7.63406
 21
420.869
  0
LINE
  8
0
 10
7.36592
 20
270.869
 11
7.09988
 21
270.903
  0
LINE
  8
0
 10
7.09988
 20
270.903
 11
6.84015
 21
270.969
  0
LINE
  8
0
 10
6.84015
 20
270.969
 11
6.59084
 21
271.068
  0
LINE
  8
0
 10
6.59084
 20
271.068
 11
6.35585
 21
271.197
  0
LINE
  8
0
 10
6.35585
 20
271.197
 11
6.1389
 21
271.355
  0
LINE
  8
0
 10
6.1389
 20
271.355
 11
5.94344
 21
271.538
  0
LINE
  8
0
 10
5.94344
 20
271.538
 11
5.77251
 21
271.745
  0
LINE
  8
0
 10
5.77251
 20
271.745
 11
5.62881
 21
271.971
  0
LINE
  8
0
 10
5.62881
 20
271.971
 11
5.51465
 21
272.214
  0
LINE
  8
0
 10
5.51465
 20
272.214
 11
5.43178
 21
272.469
  0
LINE
  8
0
 10
5.43178
 20
272.469
 11
5.38153
 21
272.732
  0
LINE
  8
0
 10
5.38153
 20
272.732
 11
5.3647
 21
273
  0
LINE
  8
0
 10
5.3647
 20
273
 11
5.38153
 21
273.268
  0
LINE
  8
0
 10
5.38153
 20
273.268
 11
5.43178
 21
273.531
  0
LINE
  8
0
 10
5.43178
 20
273.531
 11
5.51465
 21
273.786
  0
LINE
  8
0
 10
5.51465
 20
273.786
 11
5.62881
 21
274.029
  0
LINE
  8
0
 10
5.62881
 20
274.029
 11
5.77251
 21
274.255
  0
LINE
  8
0
 10
5.77251
 20
274.255
 11
5.94344
 21
274.462
  0
LINE
  8
0
 10
5.94344
 20
274.462
 11
6.1389
 21
274.645
  0
LINE
  8
0
 10
6.1389
 20
274.645
 11
6.35585
 21
274.803
  0
LINE
  8
0
 10
6.35585
 20
274.803
 11
6.59084
 21
274.932
  0
LINE
  8
0
 10
6.59084
 20
274.932
 11
6.84015
 21
275.031
  0
LINE
  8
0
 10
6.84015
 20
275.031
 11
7.09988
 21
275.097
  0
LINE
  8
0
 10
7.09988
 20
275.097
 11
7.36592
 21
275.131
  0
LINE
  8
0
 10
7.36592
 20
275.131
 11
7.63406
 21
275.131
  0
LINE
  8
0
 10
7.63406
 20
275.131
 11
7.9001
 21
275.097
  0
LINE
  8
0
 10
7.9001
 20
275.097
 11
8.15984
 21
275.031
  0
LINE
  8
0
 10
8.15984
 20
275.031
 11
8.40915
 21
274.932
  0
LINE
  8
0
 10
8.40915
 20
274.932
 11
8.64413
 21
274.803
  0
LINE
  8
0
 10
8.64413
 20
274.803
 11
8.86108
 21
274.645
  0
LINE
  8
0
 10
8.86108
 20
274.645
 11
9.05655
 21
274.462
  0
LINE
  8
0
 10
9.05655
 20
274.462
 11
9.22748
 21
274.255
  0
LINE
  8
0
 10
9.22748
 20
274.255
 11
9.37117
 21
274.029
  0
LINE
  8
0
 10
9.37117
 20
274.029
 11
9.48534
 21
273.786
  0
LINE
  8
0
 10
9.48534
 20
273.786
 11
9.56821
 21
273.531
  0
LINE
  8
0
 10
9.56821
 20
273.531
 11
9.61845
 21
273.268
  0
LINE
  8
0
 10
9.61845
 20
273.268
 11
9.63528
 21
273
  0
LINE
  8
0
 10
9.63528
 20
273
 11
9.61845
 21
272.732
  0
LINE
  8
0
 10
9.61845
 20
272.732
 11
9.56821
 21
272.469
  0
LINE
  8
0
 10
9.56821
 20
272.469
 11
9.48534
 21
272.214
  0
LINE
  8
0
 10
9.48534
 20
272.214
 11
9.37117
 21
271.971
  0
LINE
  8
0
 10
9.37117
 20
271.971
 11
9.22748
 21
271.745
  0
LINE
  8
0
 10
9.22748
 20
271.745
 11
9.05655
 21
271.538
  0
LINE
  8
0
 10
9.05655
 20
271.538
 11
8.86108
 21
271.355
  0
LINE
  8
0
 10
8.86108
 20
271.355
 11
8.64413
 21
271.197
  0
LINE
  8
0
 10
8.64413
 20
271.197
 11
8.40915
 21
271.068
  0
LINE
  8
0
 10
8.40915
 20
271.068
 11
8.15984
 21
270.969
  0
LINE
  8
0
 10
8.15984
 20
270.969
 11
7.9001
 21
270.903
  0
LINE
  8
0
 10
7.9001
 20
270.903
 11
7.63406
 21
270.869
  0
LINE
  8
0
 10
7.63406
 20
270.869
 11
7.36592
 21
270.869
  0
LINE
  8
0
 10
-7.63406
 20
270.869
 11
-7.9001
 21
270.903
  0
LINE
  8
0
 10
-7.9001
 20
270.903
 11
-8.15984
 21
270.969
  0
LINE
  8
0
 10
-8.15984
 20
270.969
 11
-8.40915
 21
271.068
  0
LINE
  8
0
 10
-8.40915
 20
271.068
 11
-8.64413
 21
271.197
  0
LINE
  8
0
 10
-8.64413
 20
271.197
 11
-8.86108
 21
271.355
  0
LINE
  8
0
 10
-8.86108
 20
271.355
 11
-9.05655
 21
271.538
  0
LINE
  8
0
 10
-9.05655
 20
271.538
 11
-9.22748
 21
271.745
  0
LINE
  8
0
 10
-9.22748
 20
271.745
 11
-9.37117
 21
271.971
  0
LINE
  8
0
 10
-9.37117
 20
271.971
 11
-9.48534
 21
272.214
  0
LINE
  8
0
 10
-9.48534
 20
272.214
 11
-9.56821
 21
272.469
  0
LINE
  8
0
 10
-9.56821
 20
272.469
 11
-9.61845
 21
272.732
  0
LINE
  8
0
 10
-9.61845
 20
272.732
 11
-9.63528
 21
273
  0
LINE
  8
0
 10
-9.63528
 20
273
 11
-9.61845
 21
273.268
  0
LINE
  8
0
 10
-9.61845
 20
273.268
 11
-9.56821
 21
273.531
  0
LINE
  8
0
 10
-9.56821
 20
273.531
 11
-9.48534
 21
273.786
  0
LINE
  8
0
 10
-9.48534
 20
273.786
 11
-9.37117
 21
274.029
  0
LINE
  8
0
 10
-9.37117
 20
274.029
 11
-9.22748
 21
274.255
  0
LINE
  8
0
 10
-9.22748
 20
274.255
 11
-9.05655
 21
274.462
  0
LINE
  8
0
 10
-9.05655
 20
274.462
 11
-8.86108
 21
274.645
  0
LINE
  8
0
 10
-8.86108
 20
274.645
 11
-8.64413
 21
274.803
  0
LINE
  8
0
 10
-8.64413
 20
274.803
 11
-8.40915
 21
274.932
  0
LINE
  8
0
 10
-8.40915
 20
274.932
 11
-8.15984
 21
275.031
  0
LINE
  8
0
 10
-8.15984
 20
275.031
 11
-7.9001
 21
275.097
  0
LINE
  8
0
 10
-7.9001
 20
275.097
 11
-7.63406
 21
275.131
  0
LINE
  8
0
 10
-7.63406
 20
275.131
 11
-7.36592
 21
275.131
  0
LINE
  8
0
 10
-7.36592
 20
275.131
 11
-7.09988
 21
275.097
  0
LINE
  8
0
 10
-7.09988
 20
275.097
 11
-6.84015
 21
275.031
  0
LINE
  8
0
 10
-6.84015
 20
275.031
 11
-6.59084
 21
274.932
  0
LINE
  8
0
 10
-6.59084
 20
274.932
 11
-6.35585
 21
274.803
  0
LINE
  8
0
 10
-6.35585
 20
274.803
 11
-6.1389
 21
274.645
  0
LINE
  8
0
 10
-6.1389
 20
274.645
 11
-5.94344
 21
274.462
  0
LINE
  8
0
 10
-5.94344
 20
274.462
 11
-5.77251
 21
274.255
  0
LINE
  8
0
 10
-5.77251
 20
274.255
 11
-5.62881
 21
274.029
  0
LINE
  8
0
 10
-5.62881
 20
274.029
 11
-5.51465
 21
273.786
  0
LINE
  8
0
 10
-5.51465
 20
273.786
 11
-5.43178
 21
273.531
  0
LINE
  8
0
 10
-5.43178
 20
273.531
 11
-5.38153
 21
273.268
  0
LINE
  8
0
 10
-5.38153
 20
273.268
 11
-5.3647
 21
273
  0
LINE
  8
0
 10
-5.3647
 20
273
 11
-5.38153
 21
272.732
  0
LINE
  8
0
 10
-5.38153
 20
272.732
 11
-5.43178
 21
272.469
  0
LINE
  8
0
 10
-5.43178
 20
272.469
 11
-5.51465
 21
272.214
  0
LINE
  8
0
 10
-5.51465
 20
272.214
 11
-5.62881
 21
271.971
  0
LINE
  8
0
 10
-5.62881
 20
271.971
 11
-5.77251
 21
271.745
  0
LINE
  8
0
 10
-5.77251
 20
271.745
 11
-5.94344
 21
271.538
  0
LINE
  8
0
 10
-5.94344
 20
271.538
 11
-6.1389
 21
271.355
  0
LINE
  8
0
 10
-6.1389
 20
271.355
 11
-6.35585
 21
271.197
  0
LINE
  8
0
 10
-6.35585
 20
271.197
 11
-6.59084
 21
271.068
  0
LINE
  8
0
 10
-6.59084
 20
271.068
 11
-6.84015
 21
270.969
  0
LINE
  8
0
 10
-6.84015
 20
270.969
 11
-7.09988
 21
270.903
  0
LINE
  8
0
 10
-7.09988
 20
270.903
 11
-7.36592
 21
270.869
  0
LINE
  8
0
 10
-7.36592
 20
270.869
 11
-7.63406
 21
270.869
  0
ENDSEC
  0
SECTION
  2
OBJECTS
  0
DICTIONARY
  0
ENDSEC
  0
EOF
