<?xml version="1.0" standalone="no"?>
<!DOCTYPE svg PUBLIC "-//W3C//DTD SVG 1.1//EN" "http://www.w3.org/Graphics/SVG/1.1/DTD/svg11.dtd">
<svg width="30mm" height="340mm" viewBox="-15 -605 30 340" xmlns="http://www.w3.org/2000/svg" version="1.1">
<title>OpenSCAD Model</title>
<path d="
M 10.9369,-439.589 L 11.5451,-439.745 L 12.1289,-439.976 L 12.6791,-440.278 L 13.1871,-440.647 L 13.6448,-441.077
 L 14.0451,-441.561 L 14.3815,-442.091 L 14.6489,-442.659 L 14.8429,-443.257 L 14.9606,-443.873 L 15,-444.5
 L 15,-599.5 L 14.9606,-600.127 L 14.8429,-600.743 L 14.6489,-601.341 L 14.3815,-601.909 L 14.0451,-602.439
 L 13.6448,-602.923 L 13.1871,-603.353 L 12.6791,-603.722 L 12.1289,-604.024 L 11.5451,-604.255 L 10.9369,-604.411
 L 10.3139,-604.49 L -10.3139,-604.49 L -10.9369,-604.411 L -11.5451,-604.255 L -12.1289,-604.024 L -12.6791,-603.722
 L -13.1871,-603.353 L -13.6448,-602.923 L -14.0451,-602.439 L -14.3815,-601.909 L -14.6489,-601.341 L -14.8429,-600.743
 L -14.9606,-600.127 L -15,-599.5 L -15,-444.5 L -14.9606,-443.873 L -14.8429,-443.257 L -14.6489,-442.659
 L -14.3815,-442.091 L -14.0451,-441.561 L -13.6448,-441.077 L -13.1871,-440.647 L -12.6791,-440.278 L -12.1289,-439.976
 L -11.5451,-439.745 L -10.9369,-439.589 L -10.3139,-439.51 L 10.3139,-439.51 z
M -9.69545,-441.893 L -10.0833,-441.942 L -10.4619,-442.039 L -10.8254,-442.183 L -11.168,-442.372 L -11.4842,-442.601
 L -11.7692,-442.869 L -12.0184,-443.17 L -12.2279,-443.5 L -12.3943,-443.854 L -12.5151,-444.226 L -12.5884,-444.61
 L -12.6129,-445 L -12.6129,-599 L -12.5884,-599.39 L -12.5151,-599.774 L -12.3943,-600.146 L -12.2279,-600.5
 L -12.0184,-600.83 L -11.7692,-601.131 L -11.4842,-601.399 L -11.168,-601.628 L -10.8254,-601.817 L -10.4619,-601.961
 L -10.0833,-602.058 L -9.69545,-602.107 L 9.69545,-602.107 L 10.0833,-602.058 L 10.4619,-601.961 L 10.8254,-601.817
 L 11.168,-601.628 L 11.4842,-601.399 L 11.7692,-601.131 L 12.0184,-600.83 L 12.2279,-600.5 L 12.3943,-600.146
 L 12.5151,-599.774 L 12.5884,-599.39 L 12.6129,-599 L 12.6129,-445 L 12.5884,-444.61 L 12.5151,-444.226
 L 12.3943,-443.854 L 12.2279,-443.5 L 12.0184,-443.17 L 11.7692,-442.869 L 11.4842,-442.601 L 11.168,-442.372
 L 10.8254,-442.183 L 10.4619,-442.039 L 10.0833,-441.942 L 9.69545,-441.893 z
M 10.9369,-265.589 L 11.5451,-265.745 L 12.1289,-265.976 L 12.6791,-266.278 L 13.1871,-266.647 L 13.6448,-267.077
 L 14.0451,-267.561 L 14.3815,-268.091 L 14.6489,-268.659 L 14.8429,-269.257 L 14.9606,-269.873 L 15,-270.5
 L 15,-425.5 L 14.9606,-426.127 L 14.8429,-426.743 L 14.6489,-427.341 L 14.3815,-427.909 L 14.0451,-428.439
 L 13.6448,-428.923 L 13.1871,-429.353 L 12.6791,-429.722 L 12.1289,-430.024 L 11.5451,-430.255 L 10.9369,-430.411
 L 10.3139,-430.49 L -10.3139,-430.49 L -10.9369,-430.411 L -11.5451,-430.255 L -12.1289,-430.024 L -12.6791,-429.722
 L -13.1871,-429.353 L -13.6448,-428.923 L -14.0451,-428.439 L -14.3815,-427.909 L -14.6489,-427.341 L -14.8429,-426.743
 L -14.9606,-426.127 L -15,-425.5 L -15,-270.5 L -14.9606,-269.873 L -14.8429,-269.257 L -14.6489,-268.659
 L -14.3815,-268.091 L -14.0451,-267.561 L -13.6448,-267.077 L -13.1871,-266.647 L -12.6791,-266.278 L -12.1289,-265.976
 L -11.5451,-265.745 L -10.9369,-265.589 L -10.3139,-265.51 L 10.3139,-265.51 z
M 7.36592,-420.869 L 7.09988,-420.903 L 6.84015,-420.969 L 6.59084,-421.068 L 6.35585,-421.197 L 6.1389,-421.355
 L 5.94344,-421.538 L 5.77251,-421.745 L 5.62881,-421.971 L 5.51465,-422.214 L 5.43178,-422.469 L 5.38153,-422.732
 L 5.3647,-423 L 5.38153,-423.268 L 5.43178,-423.531 L 5.51465,-423.786 L 5.62881,-424.029 L 5.77251,-424.255
 L 5.94344,-424.462 L 6.1389,-424.645 L 6.35585,-424.803 L 6.59084,-424.932 L 6.84015,-425.031 L 7.09988,-425.097
 L 7.36592,-425.131 L 7.63406,-425.131 L 7.9001,-425.097 L 8.15984,-425.031 L 8.40915,-424.932 L 8.64413,-424.803
 L 8.86108,-424.645 L 9.05655,-424.462 L 9.22748,-424.255 L 9.37117,-424.029 L 9.48534,-423.786 L 9.56821,-423.531
 L 9.61845,-423.268 L 9.63528,-423 L 9.61845,-422.732 L 9.56821,-422.469 L 9.48534,-422.214 L 9.37117,-421.971
 L 9.22748,-421.745 L 9.05655,-421.538 L 8.86108,-421.355 L 8.64413,-421.197 L 8.40915,-421.068 L 8.15984,-420.969
 L 7.9001,-420.903 L 7.63406,-420.869 z
M -7.63406,-420.869 L -7.9001,-420.903 L -8.15984,-420.969 L -8.40915,-421.068 L -8.64413,-421.197 L -8.86108,-421.355
 L -9.05655,-421.538 L -9.22748,-421.745 L -9.37117,-421.971 L -9.48534,-422.214 L -9.56821,-422.469 L -9.61845,-422.732
 L -9.63528,-423 L -9.61845,-423.268 L -9.56821,-423.531 L -9.48534,-423.786 L -9.37117,-424.029 L -9.22748,-424.255
 L -9.05655,-424.462 L -8.86108,-424.645 L -8.64413,-424.803 L -8.40915,-424.932 L -8.15984,-425.031 L -7.9001,-425.097
 L -7.63406,-425.131 L -7.36592,-425.131 L -7.09988,-425.097 L -6.84015,-425.031 L -6.59084,-424.932 L -6.35585,-424.803
 L -6.1389,-424.645 L -5.94344,-424.462 L -5.77251,-424.255 L -5.62881,-424.029 L -5.51465,-423.786 L -5.43178,-423.531
 L -5.38153,-423.268 L -5.3647,-423 L -5.38153,-422.732 L -5.43178,-422.469 L -5.51465,-422.214 L -5.62881,-421.971
 L -5.77251,-421.745 L -5.94344,-421.538 L -6.1389,-421.355 L -6.35585,-421.197 L -6.59084,-421.068 L -6.84015,-420.969
 L -7.09988,-420.903 L -7.36592,-420.869 z
M 7.36592,-270.869 L 7.09988,-270.903 L 6.84015,-270.969 L 6.59084,-271.068 L 6.35585,-271.197 L 6.1389,-271.355
 L 5.94344,-271.538 L 5.77251,-271.745 L 5.62881,-271.971 L 5.51465,-272.214 L 5.43178,-272.469 L 5.38153,-272.732
 L 5.3647,-273 L 5.38153,-273.268 L 5.43178,-273.531 L 5.51465,-273.786 L 5.62881,-274.029 L 5.77251,-274.255
 L 5.94344,-274.462 L 6.1389,-274.645 L 6.35585,-274.803 L 6.59084,-274.932 L 6.84015,-275.031 L 7.09988,-275.097
 L 7.36592,-275.131 L 7.63406,-275.131 L 7.9001,-275.097 L 8.15984,-275.031 L 8.40915,-274.932 L 8.64413,-274.803
 L 8.86108,-274.645 L 9.05655,-274.462 L 9.22748,-274.255 L 9.37117,-274.029 L 9.48534,-273.786 L 9.56821,-273.531
 L 9.61845,-273.268 L 9.63528,-273 L 9.61845,-272.732 L 9.56821,-272.469 L 9.48534,-272.214 L 9.37117,-271.971
 L 9.22748,-271.745 L 9.05655,-271.538 L 8.86108,-271.355 L 8.64413,-271.197 L 8.40915,-271.068 L 8.15984,-270.969
 L 7.9001,-270.903 L 7.63406,-270.869 z
M -7.63406,-270.869 L -7.9001,-270.903 L -8.15984,-270.969 L -8.40915,-271.068 L -8.64413,-271.197 L -8.86108,-271.355
 L -9.05655,-271.538 L -9.22748,-271.745 L -9.37117,-271.971 L -9.48534,-272.214 L -9.56821,-272.469 L -9.61845,-272.732
 L -9.63528,-273 L -9.61845,-273.268 L -9.56821,-273.531 L -9.48534,-273.786 L -9.37117,-274.029 L -9.22748,-274.255
 L -9.05655,-274.462 L -8.86108,-274.645 L -8.64413,-274.803 L -8.40915,-274.932 L -8.15984,-275.031 L -7.9001,-275.097
 L -7.63406,-275.131 L -7.36592,-275.131 L -7.09988,-275.097 L -6.84015,-275.031 L -6.59084,-274.932 L -6.35585,-274.803
 L -6.1389,-274.645 L -5.94344,-274.462 L -5.77251,-274.255 L -5.62881,-274.029 L -5.51465,-273.786 L -5.43178,-273.531
 L -5.38153,-273.268 L -5.3647,-273 L -5.38153,-272.732 L -5.43178,-272.469 L -5.51465,-272.214 L -5.62881,-271.971
 L -5.77251,-271.745 L -5.94344,-271.538 L -6.1389,-271.355 L -6.35585,-271.197 L -6.59084,-271.068 L -6.84015,-270.969
 L -7.09988,-270.903 L -7.36592,-270.869 z
" stroke="black" fill="lightgray" stroke-width="0.5"/>
</svg>
