  0
SECTION
  2
BLOCKS
  0
ENDSEC
  0
SECTION
  2
ENTITIES
  0
LINE
  8
0
 10
10.9369
 20
336.089
 11
11.5451
 21
336.245
  0
LINE
  8
0
 10
11.5451
 20
336.245
 11
12.1289
 21
336.476
  0
LINE
  8
0
 10
12.1289
 20
336.476
 11
12.6791
 21
336.778
  0
LINE
  8
0
 10
12.6791
 20
336.778
 11
13.1871
 21
337.147
  0
LINE
  8
0
 10
13.1871
 20
337.147
 11
13.6448
 21
337.577
  0
LINE
  8
0
 10
13.6448
 20
337.577
 11
14.0451
 21
338.061
  0
LINE
  8
0
 10
14.0451
 20
338.061
 11
14.3815
 21
338.591
  0
LINE
  8
0
 10
14.3815
 20
338.591
 11
14.6489
 21
339.159
  0
LINE
  8
0
 10
14.6489
 20
339.159
 11
14.8429
 21
339.757
  0
LINE
  8
0
 10
14.8429
 20
339.757
 11
14.9606
 21
340.373
  0
LINE
  8
0
 10
14.9606
 20
340.373
 11
15
 21
341
  0
LINE
  8
0
 10
15
 20
341
 11
15
 21
361
  0
LINE
  8
0
 10
15
 20
361
 11
14.9606
 21
361.627
  0
LINE
  8
0
 10
14.9606
 20
361.627
 11
14.8429
 21
362.243
  0
LINE
  8
0
 10
14.8429
 20
362.243
 11
14.6489
 21
362.841
  0
LINE
  8
0
 10
14.6489
 20
362.841
 11
14.3815
 21
363.409
  0
LINE
  8
0
 10
14.3815
 20
363.409
 11
14.0451
 21
363.939
  0
LINE
  8
0
 10
14.0451
 20
363.939
 11
13.6448
 21
364.423
  0
LINE
  8
0
 10
13.6448
 20
364.423
 11
13.1871
 21
364.853
  0
LINE
  8
0
 10
13.1871
 20
364.853
 11
12.6791
 21
365.222
  0
LINE
  8
0
 10
12.6791
 20
365.222
 11
12.1289
 21
365.524
  0
LINE
  8
0
 10
12.1289
 20
365.524
 11
11.5451
 21
365.755
  0
LINE
  8
0
 10
11.5451
 20
365.755
 11
10.9369
 21
365.911
  0
LINE
  8
0
 10
10.9369
 20
365.911
 11
10.3139
 21
365.99
  0
LINE
  8
0
 10
10.3139
 20
365.99
 11
-10.3139
 21
365.99
  0
LINE
  8
0
 10
-10.3139
 20
365.99
 11
-10.9369
 21
365.911
  0
LINE
  8
0
 10
-10.9369
 20
365.911
 11
-11.5451
 21
365.755
  0
LINE
  8
0
 10
-11.5451
 20
365.755
 11
-12.1289
 21
365.524
  0
LINE
  8
0
 10
-12.1289
 20
365.524
 11
-12.6791
 21
365.222
  0
LINE
  8
0
 10
-12.6791
 20
365.222
 11
-13.1871
 21
364.853
  0
LINE
  8
0
 10
-13.1871
 20
364.853
 11
-13.6448
 21
364.423
  0
LINE
  8
0
 10
-13.6448
 20
364.423
 11
-14.0451
 21
363.939
  0
LINE
  8
0
 10
-14.0451
 20
363.939
 11
-14.3815
 21
363.409
  0
LINE
  8
0
 10
-14.3815
 20
363.409
 11
-14.6489
 21
362.841
  0
LINE
  8
0
 10
-14.6489
 20
362.841
 11
-14.8429
 21
362.243
  0
LINE
  8
0
 10
-14.8429
 20
362.243
 11
-14.9606
 21
361.627
  0
LINE
  8
0
 10
-14.9606
 20
361.627
 11
-15
 21
361
  0
LINE
  8
0
 10
-15
 20
361
 11
-15
 21
341
  0
LINE
  8
0
 10
-15
 20
341
 11
-14.9606
 21
340.373
  0
LINE
  8
0
 10
-14.9606
 20
340.373
 11
-14.8429
 21
339.757
  0
LINE
  8
0
 10
-14.8429
 20
339.757
 11
-14.6489
 21
339.159
  0
LINE
  8
0
 10
-14.6489
 20
339.159
 11
-14.3815
 21
338.591
  0
LINE
  8
0
 10
-14.3815
 20
338.591
 11
-14.0451
 21
338.061
  0
LINE
  8
0
 10
-14.0451
 20
338.061
 11
-13.6448
 21
337.577
  0
LINE
  8
0
 10
-13.6448
 20
337.577
 11
-13.1871
 21
337.147
  0
LINE
  8
0
 10
-13.1871
 20
337.147
 11
-12.6791
 21
336.778
  0
LINE
  8
0
 10
-12.6791
 20
336.778
 11
-12.1289
 21
336.476
  0
LINE
  8
0
 10
-12.1289
 20
336.476
 11
-11.5451
 21
336.245
  0
LINE
  8
0
 10
-11.5451
 20
336.245
 11
-10.9369
 21
336.089
  0
LINE
  8
0
 10
-10.9369
 20
336.089
 11
-10.3139
 21
336.01
  0
LINE
  8
0
 10
-10.3139
 20
336.01
 11
10.3139
 21
336.01
  0
LINE
  8
0
 10
10.3139
 20
336.01
 11
10.9369
 21
336.089
  0
LINE
  8
0
 10
-10.0482
 20
336.509
 11
-10.6401
 21
336.584
  0
LINE
  8
0
 10
-10.6401
 20
336.584
 11
-11.2178
 21
336.732
  0
LINE
  8
0
 10
-11.2178
 20
336.732
 11
-11.7724
 21
336.952
  0
LINE
  8
0
 10
-11.7724
 20
336.952
 11
-12.2952
 21
337.239
  0
LINE
  8
0
 10
-12.2952
 20
337.239
 11
-12.7778
 21
337.59
  0
LINE
  8
0
 10
-12.7778
 20
337.59
 11
-13.2126
 21
337.998
  0
LINE
  8
0
 10
-13.2126
 20
337.998
 11
-13.5928
 21
338.458
  0
LINE
  8
0
 10
-13.5928
 20
338.458
 11
-13.9124
 21
338.962
  0
LINE
  8
0
 10
-13.9124
 20
338.962
 11
-14.1664
 21
339.501
  0
LINE
  8
0
 10
-14.1664
 20
339.501
 11
-14.3508
 21
340.069
  0
LINE
  8
0
 10
-14.3508
 20
340.069
 11
-14.4625
 21
340.655
  0
LINE
  8
0
 10
-14.4625
 20
340.655
 11
-14.5
 21
341.25
  0
LINE
  8
0
 10
-14.5
 20
341.25
 11
-14.5
 21
360.75
  0
LINE
  8
0
 10
-14.5
 20
360.75
 11
-14.4625
 21
361.345
  0
LINE
  8
0
 10
-14.4625
 20
361.345
 11
-14.3508
 21
361.931
  0
LINE
  8
0
 10
-14.3508
 20
361.931
 11
-14.1664
 21
362.499
  0
LINE
  8
0
 10
-14.1664
 20
362.499
 11
-13.9124
 21
363.038
  0
LINE
  8
0
 10
-13.9124
 20
363.038
 11
-13.5928
 21
363.542
  0
LINE
  8
0
 10
-13.5928
 20
363.542
 11
-13.2126
 21
364.002
  0
LINE
  8
0
 10
-13.2126
 20
364.002
 11
-12.7778
 21
364.41
  0
LINE
  8
0
 10
-12.7778
 20
364.41
 11
-12.2952
 21
364.761
  0
LINE
  8
0
 10
-12.2952
 20
364.761
 11
-11.7724
 21
365.048
  0
LINE
  8
0
 10
-11.7724
 20
365.048
 11
-11.2178
 21
365.268
  0
LINE
  8
0
 10
-11.2178
 20
365.268
 11
-10.6401
 21
365.416
  0
LINE
  8
0
 10
-10.6401
 20
365.416
 11
-10.0482
 21
365.491
  0
LINE
  8
0
 10
-10.0482
 20
365.491
 11
10.0482
 21
365.491
  0
LINE
  8
0
 10
10.0482
 20
365.491
 11
10.6401
 21
365.416
  0
LINE
  8
0
 10
10.6401
 20
365.416
 11
11.2178
 21
365.268
  0
LINE
  8
0
 10
11.2178
 20
365.268
 11
11.7724
 21
365.048
  0
LINE
  8
0
 10
11.7724
 20
365.048
 11
12.2952
 21
364.761
  0
LINE
  8
0
 10
12.2952
 20
364.761
 11
12.7778
 21
364.41
  0
LINE
  8
0
 10
12.7778
 20
364.41
 11
13.2126
 21
364.002
  0
LINE
  8
0
 10
13.2126
 20
364.002
 11
13.5928
 21
363.542
  0
LINE
  8
0
 10
13.5928
 20
363.542
 11
13.9124
 21
363.038
  0
LINE
  8
0
 10
13.9124
 20
363.038
 11
14.1664
 21
362.499
  0
LINE
  8
0
 10
14.1664
 20
362.499
 11
14.3508
 21
361.931
  0
LINE
  8
0
 10
14.3508
 20
361.931
 11
14.4625
 21
361.345
  0
LINE
  8
0
 10
14.4625
 20
361.345
 11
14.5
 21
360.75
  0
LINE
  8
0
 10
14.5
 20
360.75
 11
14.5
 21
341.25
  0
LINE
  8
0
 10
14.5
 20
341.25
 11
14.4625
 21
340.655
  0
LINE
  8
0
 10
14.4625
 20
340.655
 11
14.3508
 21
340.069
  0
LINE
  8
0
 10
14.3508
 20
340.069
 11
14.1664
 21
339.501
  0
LINE
  8
0
 10
14.1664
 20
339.501
 11
13.9124
 21
338.962
  0
LINE
  8
0
 10
13.9124
 20
338.962
 11
13.5928
 21
338.458
  0
LINE
  8
0
 10
13.5928
 20
338.458
 11
13.2126
 21
337.998
  0
LINE
  8
0
 10
13.2126
 20
337.998
 11
12.7778
 21
337.59
  0
LINE
  8
0
 10
12.7778
 20
337.59
 11
12.2952
 21
337.239
  0
LINE
  8
0
 10
12.2952
 20
337.239
 11
11.7724
 21
336.952
  0
LINE
  8
0
 10
11.7724
 20
336.952
 11
11.2178
 21
336.732
  0
LINE
  8
0
 10
11.2178
 20
336.732
 11
10.6401
 21
336.584
  0
LINE
  8
0
 10
10.6401
 20
336.584
 11
10.0482
 21
336.509
  0
LINE
  8
0
 10
10.0482
 20
336.509
 11
-10.0482
 21
336.509
  0
LINE
  8
0
 10
10.9369
 20
297.089
 11
11.5451
 21
297.245
  0
LINE
  8
0
 10
11.5451
 20
297.245
 11
12.1289
 21
297.476
  0
LINE
  8
0
 10
12.1289
 20
297.476
 11
12.6791
 21
297.778
  0
LINE
  8
0
 10
12.6791
 20
297.778
 11
13.1871
 21
298.147
  0
LINE
  8
0
 10
13.1871
 20
298.147
 11
13.6448
 21
298.577
  0
LINE
  8
0
 10
13.6448
 20
298.577
 11
14.0451
 21
299.061
  0
LINE
  8
0
 10
14.0451
 20
299.061
 11
14.3815
 21
299.591
  0
LINE
  8
0
 10
14.3815
 20
299.591
 11
14.6489
 21
300.159
  0
LINE
  8
0
 10
14.6489
 20
300.159
 11
14.8429
 21
300.757
  0
LINE
  8
0
 10
14.8429
 20
300.757
 11
14.9606
 21
301.373
  0
LINE
  8
0
 10
14.9606
 20
301.373
 11
15
 21
302
  0
LINE
  8
0
 10
15
 20
302
 11
15
 21
322
  0
LINE
  8
0
 10
15
 20
322
 11
14.9606
 21
322.627
  0
LINE
  8
0
 10
14.9606
 20
322.627
 11
14.8429
 21
323.243
  0
LINE
  8
0
 10
14.8429
 20
323.243
 11
14.6489
 21
323.841
  0
LINE
  8
0
 10
14.6489
 20
323.841
 11
14.3815
 21
324.409
  0
LINE
  8
0
 10
14.3815
 20
324.409
 11
14.0451
 21
324.939
  0
LINE
  8
0
 10
14.0451
 20
324.939
 11
13.6448
 21
325.423
  0
LINE
  8
0
 10
13.6448
 20
325.423
 11
13.1871
 21
325.853
  0
LINE
  8
0
 10
13.1871
 20
325.853
 11
12.6791
 21
326.222
  0
LINE
  8
0
 10
12.6791
 20
326.222
 11
12.1289
 21
326.524
  0
LINE
  8
0
 10
12.1289
 20
326.524
 11
11.5451
 21
326.755
  0
LINE
  8
0
 10
11.5451
 20
326.755
 11
10.9369
 21
326.911
  0
LINE
  8
0
 10
10.9369
 20
326.911
 11
10.3139
 21
326.99
  0
LINE
  8
0
 10
10.3139
 20
326.99
 11
-10.3139
 21
326.99
  0
LINE
  8
0
 10
-10.3139
 20
326.99
 11
-10.9369
 21
326.911
  0
LINE
  8
0
 10
-10.9369
 20
326.911
 11
-11.5451
 21
326.755
  0
LINE
  8
0
 10
-11.5451
 20
326.755
 11
-12.1289
 21
326.524
  0
LINE
  8
0
 10
-12.1289
 20
326.524
 11
-12.6791
 21
326.222
  0
LINE
  8
0
 10
-12.6791
 20
326.222
 11
-13.1871
 21
325.853
  0
LINE
  8
0
 10
-13.1871
 20
325.853
 11
-13.6448
 21
325.423
  0
LINE
  8
0
 10
-13.6448
 20
325.423
 11
-14.0451
 21
324.939
  0
LINE
  8
0
 10
-14.0451
 20
324.939
 11
-14.3815
 21
324.409
  0
LINE
  8
0
 10
-14.3815
 20
324.409
 11
-14.6489
 21
323.841
  0
LINE
  8
0
 10
-14.6489
 20
323.841
 11
-14.8429
 21
323.243
  0
LINE
  8
0
 10
-14.8429
 20
323.243
 11
-14.9606
 21
322.627
  0
LINE
  8
0
 10
-14.9606
 20
322.627
 11
-15
 21
322
  0
LINE
  8
0
 10
-15
 20
322
 11
-15
 21
302
  0
LINE
  8
0
 10
-15
 20
302
 11
-14.9606
 21
301.373
  0
LINE
  8
0
 10
-14.9606
 20
301.373
 11
-14.8429
 21
300.757
  0
LINE
  8
0
 10
-14.8429
 20
300.757
 11
-14.6489
 21
300.159
  0
LINE
  8
0
 10
-14.6489
 20
300.159
 11
-14.3815
 21
299.591
  0
LINE
  8
0
 10
-14.3815
 20
299.591
 11
-14.0451
 21
299.061
  0
LINE
  8
0
 10
-14.0451
 20
299.061
 11
-13.6448
 21
298.577
  0
LINE
  8
0
 10
-13.6448
 20
298.577
 11
-13.1871
 21
298.147
  0
LINE
  8
0
 10
-13.1871
 20
298.147
 11
-12.6791
 21
297.778
  0
LINE
  8
0
 10
-12.6791
 20
297.778
 11
-12.1289
 21
297.476
  0
LINE
  8
0
 10
-12.1289
 20
297.476
 11
-11.5451
 21
297.245
  0
LINE
  8
0
 10
-11.5451
 20
297.245
 11
-10.9369
 21
297.089
  0
LINE
  8
0
 10
-10.9369
 20
297.089
 11
-10.3139
 21
297.01
  0
LINE
  8
0
 10
-10.3139
 20
297.01
 11
10.3139
 21
297.01
  0
LINE
  8
0
 10
10.3139
 20
297.01
 11
10.9369
 21
297.089
  0
LINE
  8
0
 10
-10.0482
 20
297.509
 11
-10.6401
 21
297.584
  0
LINE
  8
0
 10
-10.6401
 20
297.584
 11
-11.2178
 21
297.732
  0
LINE
  8
0
 10
-11.2178
 20
297.732
 11
-11.7724
 21
297.952
  0
LINE
  8
0
 10
-11.7724
 20
297.952
 11
-12.2952
 21
298.239
  0
LINE
  8
0
 10
-12.2952
 20
298.239
 11
-12.7778
 21
298.59
  0
LINE
  8
0
 10
-12.7778
 20
298.59
 11
-13.2126
 21
298.998
  0
LINE
  8
0
 10
-13.2126
 20
298.998
 11
-13.5928
 21
299.458
  0
LINE
  8
0
 10
-13.5928
 20
299.458
 11
-13.9124
 21
299.962
  0
LINE
  8
0
 10
-13.9124
 20
299.962
 11
-14.1664
 21
300.501
  0
LINE
  8
0
 10
-14.1664
 20
300.501
 11
-14.3508
 21
301.069
  0
LINE
  8
0
 10
-14.3508
 20
301.069
 11
-14.4625
 21
301.655
  0
LINE
  8
0
 10
-14.4625
 20
301.655
 11
-14.5
 21
302.25
  0
LINE
  8
0
 10
-14.5
 20
302.25
 11
-14.5
 21
321.75
  0
LINE
  8
0
 10
-14.5
 20
321.75
 11
-14.4625
 21
322.345
  0
LINE
  8
0
 10
-14.4625
 20
322.345
 11
-14.3508
 21
322.931
  0
LINE
  8
0
 10
-14.3508
 20
322.931
 11
-14.1664
 21
323.499
  0
LINE
  8
0
 10
-14.1664
 20
323.499
 11
-13.9124
 21
324.038
  0
LINE
  8
0
 10
-13.9124
 20
324.038
 11
-13.5928
 21
324.542
  0
LINE
  8
0
 10
-13.5928
 20
324.542
 11
-13.2126
 21
325.002
  0
LINE
  8
0
 10
-13.2126
 20
325.002
 11
-12.7778
 21
325.41
  0
LINE
  8
0
 10
-12.7778
 20
325.41
 11
-12.2952
 21
325.761
  0
LINE
  8
0
 10
-12.2952
 20
325.761
 11
-11.7724
 21
326.048
  0
LINE
  8
0
 10
-11.7724
 20
326.048
 11
-11.2178
 21
326.268
  0
LINE
  8
0
 10
-11.2178
 20
326.268
 11
-10.6401
 21
326.416
  0
LINE
  8
0
 10
-10.6401
 20
326.416
 11
-10.0482
 21
326.491
  0
LINE
  8
0
 10
-10.0482
 20
326.491
 11
10.0482
 21
326.491
  0
LINE
  8
0
 10
10.0482
 20
326.491
 11
10.6401
 21
326.416
  0
LINE
  8
0
 10
10.6401
 20
326.416
 11
11.2178
 21
326.268
  0
LINE
  8
0
 10
11.2178
 20
326.268
 11
11.7724
 21
326.048
  0
LINE
  8
0
 10
11.7724
 20
326.048
 11
12.2952
 21
325.761
  0
LINE
  8
0
 10
12.2952
 20
325.761
 11
12.7778
 21
325.41
  0
LINE
  8
0
 10
12.7778
 20
325.41
 11
13.2126
 21
325.002
  0
LINE
  8
0
 10
13.2126
 20
325.002
 11
13.5928
 21
324.542
  0
LINE
  8
0
 10
13.5928
 20
324.542
 11
13.9124
 21
324.038
  0
LINE
  8
0
 10
13.9124
 20
324.038
 11
14.1664
 21
323.499
  0
LINE
  8
0
 10
14.1664
 20
323.499
 11
14.3508
 21
322.931
  0
LINE
  8
0
 10
14.3508
 20
322.931
 11
14.4625
 21
322.345
  0
LINE
  8
0
 10
14.4625
 20
322.345
 11
14.5
 21
321.75
  0
LINE
  8
0
 10
14.5
 20
321.75
 11
14.5
 21
302.25
  0
LINE
  8
0
 10
14.5
 20
302.25
 11
14.4625
 21
301.655
  0
LINE
  8
0
 10
14.4625
 20
301.655
 11
14.3508
 21
301.069
  0
LINE
  8
0
 10
14.3508
 20
301.069
 11
14.1664
 21
300.501
  0
LINE
  8
0
 10
14.1664
 20
300.501
 11
13.9124
 21
299.962
  0
LINE
  8
0
 10
13.9124
 20
299.962
 11
13.5928
 21
299.458
  0
LINE
  8
0
 10
13.5928
 20
299.458
 11
13.2126
 21
298.998
  0
LINE
  8
0
 10
13.2126
 20
298.998
 11
12.7778
 21
298.59
  0
LINE
  8
0
 10
12.7778
 20
298.59
 11
12.2952
 21
298.239
  0
LINE
  8
0
 10
12.2952
 20
298.239
 11
11.7724
 21
297.952
  0
LINE
  8
0
 10
11.7724
 20
297.952
 11
11.2178
 21
297.732
  0
LINE
  8
0
 10
11.2178
 20
297.732
 11
10.6401
 21
297.584
  0
LINE
  8
0
 10
10.6401
 20
297.584
 11
10.0482
 21
297.509
  0
LINE
  8
0
 10
10.0482
 20
297.509
 11
-10.0482
 21
297.509
  0
LINE
  8
0
 10
10.9369
 20
258.089
 11
11.5451
 21
258.245
  0
LINE
  8
0
 10
11.5451
 20
258.245
 11
12.1289
 21
258.476
  0
LINE
  8
0
 10
12.1289
 20
258.476
 11
12.6791
 21
258.778
  0
LINE
  8
0
 10
12.6791
 20
258.778
 11
13.1871
 21
259.147
  0
LINE
  8
0
 10
13.1871
 20
259.147
 11
13.6448
 21
259.577
  0
LINE
  8
0
 10
13.6448
 20
259.577
 11
14.0451
 21
260.061
  0
LINE
  8
0
 10
14.0451
 20
260.061
 11
14.3815
 21
260.591
  0
LINE
  8
0
 10
14.3815
 20
260.591
 11
14.6489
 21
261.159
  0
LINE
  8
0
 10
14.6489
 20
261.159
 11
14.8429
 21
261.757
  0
LINE
  8
0
 10
14.8429
 20
261.757
 11
14.9606
 21
262.373
  0
LINE
  8
0
 10
14.9606
 20
262.373
 11
15
 21
263
  0
LINE
  8
0
 10
15
 20
263
 11
15
 21
283
  0
LINE
  8
0
 10
15
 20
283
 11
14.9606
 21
283.627
  0
LINE
  8
0
 10
14.9606
 20
283.627
 11
14.8429
 21
284.243
  0
LINE
  8
0
 10
14.8429
 20
284.243
 11
14.6489
 21
284.841
  0
LINE
  8
0
 10
14.6489
 20
284.841
 11
14.3815
 21
285.409
  0
LINE
  8
0
 10
14.3815
 20
285.409
 11
14.0451
 21
285.939
  0
LINE
  8
0
 10
14.0451
 20
285.939
 11
13.6448
 21
286.423
  0
LINE
  8
0
 10
13.6448
 20
286.423
 11
13.1871
 21
286.853
  0
LINE
  8
0
 10
13.1871
 20
286.853
 11
12.6791
 21
287.222
  0
LINE
  8
0
 10
12.6791
 20
287.222
 11
12.1289
 21
287.524
  0
LINE
  8
0
 10
12.1289
 20
287.524
 11
11.5451
 21
287.755
  0
LINE
  8
0
 10
11.5451
 20
287.755
 11
10.9369
 21
287.911
  0
LINE
  8
0
 10
10.9369
 20
287.911
 11
10.3139
 21
287.99
  0
LINE
  8
0
 10
10.3139
 20
287.99
 11
-10.3139
 21
287.99
  0
LINE
  8
0
 10
-10.3139
 20
287.99
 11
-10.9369
 21
287.911
  0
LINE
  8
0
 10
-10.9369
 20
287.911
 11
-11.5451
 21
287.755
  0
LINE
  8
0
 10
-11.5451
 20
287.755
 11
-12.1289
 21
287.524
  0
LINE
  8
0
 10
-12.1289
 20
287.524
 11
-12.6791
 21
287.222
  0
LINE
  8
0
 10
-12.6791
 20
287.222
 11
-13.1871
 21
286.853
  0
LINE
  8
0
 10
-13.1871
 20
286.853
 11
-13.6448
 21
286.423
  0
LINE
  8
0
 10
-13.6448
 20
286.423
 11
-14.0451
 21
285.939
  0
LINE
  8
0
 10
-14.0451
 20
285.939
 11
-14.3815
 21
285.409
  0
LINE
  8
0
 10
-14.3815
 20
285.409
 11
-14.6489
 21
284.841
  0
LINE
  8
0
 10
-14.6489
 20
284.841
 11
-14.8429
 21
284.243
  0
LINE
  8
0
 10
-14.8429
 20
284.243
 11
-14.9606
 21
283.627
  0
LINE
  8
0
 10
-14.9606
 20
283.627
 11
-15
 21
283
  0
LINE
  8
0
 10
-15
 20
283
 11
-15
 21
263
  0
LINE
  8
0
 10
-15
 20
263
 11
-14.9606
 21
262.373
  0
LINE
  8
0
 10
-14.9606
 20
262.373
 11
-14.8429
 21
261.757
  0
LINE
  8
0
 10
-14.8429
 20
261.757
 11
-14.6489
 21
261.159
  0
LINE
  8
0
 10
-14.6489
 20
261.159
 11
-14.3815
 21
260.591
  0
LINE
  8
0
 10
-14.3815
 20
260.591
 11
-14.0451
 21
260.061
  0
LINE
  8
0
 10
-14.0451
 20
260.061
 11
-13.6448
 21
259.577
  0
LINE
  8
0
 10
-13.6448
 20
259.577
 11
-13.1871
 21
259.147
  0
LINE
  8
0
 10
-13.1871
 20
259.147
 11
-12.6791
 21
258.778
  0
LINE
  8
0
 10
-12.6791
 20
258.778
 11
-12.1289
 21
258.476
  0
LINE
  8
0
 10
-12.1289
 20
258.476
 11
-11.5451
 21
258.245
  0
LINE
  8
0
 10
-11.5451
 20
258.245
 11
-10.9369
 21
258.089
  0
LINE
  8
0
 10
-10.9369
 20
258.089
 11
-10.3139
 21
258.01
  0
LINE
  8
0
 10
-10.3139
 20
258.01
 11
10.3139
 21
258.01
  0
LINE
  8
0
 10
10.3139
 20
258.01
 11
10.9369
 21
258.089
  0
LINE
  8
0
 10
-10.0482
 20
258.509
 11
-10.6401
 21
258.584
  0
LINE
  8
0
 10
-10.6401
 20
258.584
 11
-11.2178
 21
258.732
  0
LINE
  8
0
 10
-11.2178
 20
258.732
 11
-11.7724
 21
258.952
  0
LINE
  8
0
 10
-11.7724
 20
258.952
 11
-12.2952
 21
259.239
  0
LINE
  8
0
 10
-12.2952
 20
259.239
 11
-12.7778
 21
259.59
  0
LINE
  8
0
 10
-12.7778
 20
259.59
 11
-13.2126
 21
259.998
  0
LINE
  8
0
 10
-13.2126
 20
259.998
 11
-13.5928
 21
260.458
  0
LINE
  8
0
 10
-13.5928
 20
260.458
 11
-13.9124
 21
260.962
  0
LINE
  8
0
 10
-13.9124
 20
260.962
 11
-14.1664
 21
261.501
  0
LINE
  8
0
 10
-14.1664
 20
261.501
 11
-14.3508
 21
262.069
  0
LINE
  8
0
 10
-14.3508
 20
262.069
 11
-14.4625
 21
262.655
  0
LINE
  8
0
 10
-14.4625
 20
262.655
 11
-14.5
 21
263.25
  0
LINE
  8
0
 10
-14.5
 20
263.25
 11
-14.5
 21
282.75
  0
LINE
  8
0
 10
-14.5
 20
282.75
 11
-14.4625
 21
283.345
  0
LINE
  8
0
 10
-14.4625
 20
283.345
 11
-14.3508
 21
283.931
  0
LINE
  8
0
 10
-14.3508
 20
283.931
 11
-14.1664
 21
284.499
  0
LINE
  8
0
 10
-14.1664
 20
284.499
 11
-13.9124
 21
285.038
  0
LINE
  8
0
 10
-13.9124
 20
285.038
 11
-13.5928
 21
285.542
  0
LINE
  8
0
 10
-13.5928
 20
285.542
 11
-13.2126
 21
286.002
  0
LINE
  8
0
 10
-13.2126
 20
286.002
 11
-12.7778
 21
286.41
  0
LINE
  8
0
 10
-12.7778
 20
286.41
 11
-12.2952
 21
286.761
  0
LINE
  8
0
 10
-12.2952
 20
286.761
 11
-11.7724
 21
287.048
  0
LINE
  8
0
 10
-11.7724
 20
287.048
 11
-11.2178
 21
287.268
  0
LINE
  8
0
 10
-11.2178
 20
287.268
 11
-10.6401
 21
287.416
  0
LINE
  8
0
 10
-10.6401
 20
287.416
 11
-10.0482
 21
287.491
  0
LINE
  8
0
 10
-10.0482
 20
287.491
 11
10.0482
 21
287.491
  0
LINE
  8
0
 10
10.0482
 20
287.491
 11
10.6401
 21
287.416
  0
LINE
  8
0
 10
10.6401
 20
287.416
 11
11.2178
 21
287.268
  0
LINE
  8
0
 10
11.2178
 20
287.268
 11
11.7724
 21
287.048
  0
LINE
  8
0
 10
11.7724
 20
287.048
 11
12.2952
 21
286.761
  0
LINE
  8
0
 10
12.2952
 20
286.761
 11
12.7778
 21
286.41
  0
LINE
  8
0
 10
12.7778
 20
286.41
 11
13.2126
 21
286.002
  0
LINE
  8
0
 10
13.2126
 20
286.002
 11
13.5928
 21
285.542
  0
LINE
  8
0
 10
13.5928
 20
285.542
 11
13.9124
 21
285.038
  0
LINE
  8
0
 10
13.9124
 20
285.038
 11
14.1664
 21
284.499
  0
LINE
  8
0
 10
14.1664
 20
284.499
 11
14.3508
 21
283.931
  0
LINE
  8
0
 10
14.3508
 20
283.931
 11
14.4625
 21
283.345
  0
LINE
  8
0
 10
14.4625
 20
283.345
 11
14.5
 21
282.75
  0
LINE
  8
0
 10
14.5
 20
282.75
 11
14.5
 21
263.25
  0
LINE
  8
0
 10
14.5
 20
263.25
 11
14.4625
 21
262.655
  0
LINE
  8
0
 10
14.4625
 20
262.655
 11
14.3508
 21
262.069
  0
LINE
  8
0
 10
14.3508
 20
262.069
 11
14.1664
 21
261.501
  0
LINE
  8
0
 10
14.1664
 20
261.501
 11
13.9124
 21
260.962
  0
LINE
  8
0
 10
13.9124
 20
260.962
 11
13.5928
 21
260.458
  0
LINE
  8
0
 10
13.5928
 20
260.458
 11
13.2126
 21
259.998
  0
LINE
  8
0
 10
13.2126
 20
259.998
 11
12.7778
 21
259.59
  0
LINE
  8
0
 10
12.7778
 20
259.59
 11
12.2952
 21
259.239
  0
LINE
  8
0
 10
12.2952
 20
259.239
 11
11.7724
 21
258.952
  0
LINE
  8
0
 10
11.7724
 20
258.952
 11
11.2178
 21
258.732
  0
LINE
  8
0
 10
11.2178
 20
258.732
 11
10.6401
 21
258.584
  0
LINE
  8
0
 10
10.6401
 20
258.584
 11
10.0482
 21
258.509
  0
LINE
  8
0
 10
10.0482
 20
258.509
 11
-10.0482
 21
258.509
  0
LINE
  8
0
 10
10.9369
 20
219.089
 11
11.5451
 21
219.245
  0
LINE
  8
0
 10
11.5451
 20
219.245
 11
12.1289
 21
219.476
  0
LINE
  8
0
 10
12.1289
 20
219.476
 11
12.6791
 21
219.778
  0
LINE
  8
0
 10
12.6791
 20
219.778
 11
13.1871
 21
220.147
  0
LINE
  8
0
 10
13.1871
 20
220.147
 11
13.6448
 21
220.577
  0
LINE
  8
0
 10
13.6448
 20
220.577
 11
14.0451
 21
221.061
  0
LINE
  8
0
 10
14.0451
 20
221.061
 11
14.3815
 21
221.591
  0
LINE
  8
0
 10
14.3815
 20
221.591
 11
14.6489
 21
222.159
  0
LINE
  8
0
 10
14.6489
 20
222.159
 11
14.8429
 21
222.757
  0
LINE
  8
0
 10
14.8429
 20
222.757
 11
14.9606
 21
223.373
  0
LINE
  8
0
 10
14.9606
 20
223.373
 11
15
 21
224
  0
LINE
  8
0
 10
15
 20
224
 11
15
 21
244
  0
LINE
  8
0
 10
15
 20
244
 11
14.9606
 21
244.627
  0
LINE
  8
0
 10
14.9606
 20
244.627
 11
14.8429
 21
245.243
  0
LINE
  8
0
 10
14.8429
 20
245.243
 11
14.6489
 21
245.841
  0
LINE
  8
0
 10
14.6489
 20
245.841
 11
14.3815
 21
246.409
  0
LINE
  8
0
 10
14.3815
 20
246.409
 11
14.0451
 21
246.939
  0
LINE
  8
0
 10
14.0451
 20
246.939
 11
13.6448
 21
247.423
  0
LINE
  8
0
 10
13.6448
 20
247.423
 11
13.1871
 21
247.853
  0
LINE
  8
0
 10
13.1871
 20
247.853
 11
12.6791
 21
248.222
  0
LINE
  8
0
 10
12.6791
 20
248.222
 11
12.1289
 21
248.524
  0
LINE
  8
0
 10
12.1289
 20
248.524
 11
11.5451
 21
248.755
  0
LINE
  8
0
 10
11.5451
 20
248.755
 11
10.9369
 21
248.911
  0
LINE
  8
0
 10
10.9369
 20
248.911
 11
10.3139
 21
248.99
  0
LINE
  8
0
 10
10.3139
 20
248.99
 11
-10.3139
 21
248.99
  0
LINE
  8
0
 10
-10.3139
 20
248.99
 11
-10.9369
 21
248.911
  0
LINE
  8
0
 10
-10.9369
 20
248.911
 11
-11.5451
 21
248.755
  0
LINE
  8
0
 10
-11.5451
 20
248.755
 11
-12.1289
 21
248.524
  0
LINE
  8
0
 10
-12.1289
 20
248.524
 11
-12.6791
 21
248.222
  0
LINE
  8
0
 10
-12.6791
 20
248.222
 11
-13.1871
 21
247.853
  0
LINE
  8
0
 10
-13.1871
 20
247.853
 11
-13.6448
 21
247.423
  0
LINE
  8
0
 10
-13.6448
 20
247.423
 11
-14.0451
 21
246.939
  0
LINE
  8
0
 10
-14.0451
 20
246.939
 11
-14.3815
 21
246.409
  0
LINE
  8
0
 10
-14.3815
 20
246.409
 11
-14.6489
 21
245.841
  0
LINE
  8
0
 10
-14.6489
 20
245.841
 11
-14.8429
 21
245.243
  0
LINE
  8
0
 10
-14.8429
 20
245.243
 11
-14.9606
 21
244.627
  0
LINE
  8
0
 10
-14.9606
 20
244.627
 11
-15
 21
244
  0
LINE
  8
0
 10
-15
 20
244
 11
-15
 21
224
  0
LINE
  8
0
 10
-15
 20
224
 11
-14.9606
 21
223.373
  0
LINE
  8
0
 10
-14.9606
 20
223.373
 11
-14.8429
 21
222.757
  0
LINE
  8
0
 10
-14.8429
 20
222.757
 11
-14.6489
 21
222.159
  0
LINE
  8
0
 10
-14.6489
 20
222.159
 11
-14.3815
 21
221.591
  0
LINE
  8
0
 10
-14.3815
 20
221.591
 11
-14.0451
 21
221.061
  0
LINE
  8
0
 10
-14.0451
 20
221.061
 11
-13.6448
 21
220.577
  0
LINE
  8
0
 10
-13.6448
 20
220.577
 11
-13.1871
 21
220.147
  0
LINE
  8
0
 10
-13.1871
 20
220.147
 11
-12.6791
 21
219.778
  0
LINE
  8
0
 10
-12.6791
 20
219.778
 11
-12.1289
 21
219.476
  0
LINE
  8
0
 10
-12.1289
 20
219.476
 11
-11.5451
 21
219.245
  0
LINE
  8
0
 10
-11.5451
 20
219.245
 11
-10.9369
 21
219.089
  0
LINE
  8
0
 10
-10.9369
 20
219.089
 11
-10.3139
 21
219.01
  0
LINE
  8
0
 10
-10.3139
 20
219.01
 11
10.3139
 21
219.01
  0
LINE
  8
0
 10
10.3139
 20
219.01
 11
10.9369
 21
219.089
  0
LINE
  8
0
 10
-10.0375
 20
219.681
 11
-10.6079
 21
219.753
  0
LINE
  8
0
 10
-10.6079
 20
219.753
 11
-11.1648
 21
219.896
  0
LINE
  8
0
 10
-11.1648
 20
219.896
 11
-11.6994
 21
220.107
  0
LINE
  8
0
 10
-11.6994
 20
220.107
 11
-12.2032
 21
220.384
  0
LINE
  8
0
 10
-12.2032
 20
220.384
 11
-12.6684
 21
220.722
  0
LINE
  8
0
 10
-12.6684
 20
220.722
 11
-13.0875
 21
221.116
  0
LINE
  8
0
 10
-13.0875
 20
221.116
 11
-13.454
 21
221.559
  0
LINE
  8
0
 10
-13.454
 20
221.559
 11
-13.7621
 21
222.044
  0
LINE
  8
0
 10
-13.7621
 20
222.044
 11
-14.0069
 21
222.565
  0
LINE
  8
0
 10
-14.0069
 20
222.565
 11
-14.1846
 21
223.111
  0
LINE
  8
0
 10
-14.1846
 20
223.111
 11
-14.2923
 21
223.676
  0
LINE
  8
0
 10
-14.2923
 20
223.676
 11
-14.3284
 21
224.25
  0
LINE
  8
0
 10
-14.3284
 20
224.25
 11
-14.3284
 21
243.75
  0
LINE
  8
0
 10
-14.3284
 20
243.75
 11
-14.2923
 21
244.324
  0
LINE
  8
0
 10
-14.2923
 20
244.324
 11
-14.1846
 21
244.889
  0
LINE
  8
0
 10
-14.1846
 20
244.889
 11
-14.0069
 21
245.435
  0
LINE
  8
0
 10
-14.0069
 20
245.435
 11
-13.7621
 21
245.956
  0
LINE
  8
0
 10
-13.7621
 20
245.956
 11
-13.454
 21
246.441
  0
LINE
  8
0
 10
-13.454
 20
246.441
 11
-13.0875
 21
246.884
  0
LINE
  8
0
 10
-13.0875
 20
246.884
 11
-12.6684
 21
247.278
  0
LINE
  8
0
 10
-12.6684
 20
247.278
 11
-12.2032
 21
247.616
  0
LINE
  8
0
 10
-12.2032
 20
247.616
 11
-11.6994
 21
247.893
  0
LINE
  8
0
 10
-11.6994
 20
247.893
 11
-11.1648
 21
248.104
  0
LINE
  8
0
 10
-11.1648
 20
248.104
 11
-10.6079
 21
248.247
  0
LINE
  8
0
 10
-10.6079
 20
248.247
 11
-10.0375
 21
248.319
  0
LINE
  8
0
 10
-10.0375
 20
248.319
 11
10.0375
 21
248.319
  0
LINE
  8
0
 10
10.0375
 20
248.319
 11
10.6079
 21
248.247
  0
LINE
  8
0
 10
10.6079
 20
248.247
 11
11.1648
 21
248.104
  0
LINE
  8
0
 10
11.1648
 20
248.104
 11
11.6994
 21
247.893
  0
LINE
  8
0
 10
11.6994
 20
247.893
 11
12.2032
 21
247.616
  0
LINE
  8
0
 10
12.2032
 20
247.616
 11
12.6684
 21
247.278
  0
LINE
  8
0
 10
12.6684
 20
247.278
 11
13.0875
 21
246.884
  0
LINE
  8
0
 10
13.0875
 20
246.884
 11
13.454
 21
246.441
  0
LINE
  8
0
 10
13.454
 20
246.441
 11
13.7621
 21
245.956
  0
LINE
  8
0
 10
13.7621
 20
245.956
 11
14.0069
 21
245.435
  0
LINE
  8
0
 10
14.0069
 20
245.435
 11
14.1846
 21
244.889
  0
LINE
  8
0
 10
14.1846
 20
244.889
 11
14.2923
 21
244.324
  0
LINE
  8
0
 10
14.2923
 20
244.324
 11
14.3284
 21
243.75
  0
LINE
  8
0
 10
14.3284
 20
243.75
 11
14.3284
 21
224.25
  0
LINE
  8
0
 10
14.3284
 20
224.25
 11
14.2923
 21
223.676
  0
LINE
  8
0
 10
14.2923
 20
223.676
 11
14.1846
 21
223.111
  0
LINE
  8
0
 10
14.1846
 20
223.111
 11
14.0069
 21
222.565
  0
LINE
  8
0
 10
14.0069
 20
222.565
 11
13.7621
 21
222.044
  0
LINE
  8
0
 10
13.7621
 20
222.044
 11
13.454
 21
221.559
  0
LINE
  8
0
 10
13.454
 20
221.559
 11
13.0875
 21
221.116
  0
LINE
  8
0
 10
13.0875
 20
221.116
 11
12.6684
 21
220.722
  0
LINE
  8
0
 10
12.6684
 20
220.722
 11
12.2032
 21
220.384
  0
LINE
  8
0
 10
12.2032
 20
220.384
 11
11.6994
 21
220.107
  0
LINE
  8
0
 10
11.6994
 20
220.107
 11
11.1648
 21
219.896
  0
LINE
  8
0
 10
11.1648
 20
219.896
 11
10.6079
 21
219.753
  0
LINE
  8
0
 10
10.6079
 20
219.753
 11
10.0375
 21
219.681
  0
LINE
  8
0
 10
10.0375
 20
219.681
 11
-10.0375
 21
219.681
  0
LINE
  8
0
 10
10.9369
 20
180.089
 11
11.5451
 21
180.245
  0
LINE
  8
0
 10
11.5451
 20
180.245
 11
12.1289
 21
180.476
  0
LINE
  8
0
 10
12.1289
 20
180.476
 11
12.6791
 21
180.778
  0
LINE
  8
0
 10
12.6791
 20
180.778
 11
13.1871
 21
181.147
  0
LINE
  8
0
 10
13.1871
 20
181.147
 11
13.6448
 21
181.577
  0
LINE
  8
0
 10
13.6448
 20
181.577
 11
14.0451
 21
182.061
  0
LINE
  8
0
 10
14.0451
 20
182.061
 11
14.3815
 21
182.591
  0
LINE
  8
0
 10
14.3815
 20
182.591
 11
14.6489
 21
183.159
  0
LINE
  8
0
 10
14.6489
 20
183.159
 11
14.8429
 21
183.757
  0
LINE
  8
0
 10
14.8429
 20
183.757
 11
14.9606
 21
184.373
  0
LINE
  8
0
 10
14.9606
 20
184.373
 11
15
 21
185
  0
LINE
  8
0
 10
15
 20
185
 11
15
 21
205
  0
LINE
  8
0
 10
15
 20
205
 11
14.9606
 21
205.627
  0
LINE
  8
0
 10
14.9606
 20
205.627
 11
14.8429
 21
206.243
  0
LINE
  8
0
 10
14.8429
 20
206.243
 11
14.6489
 21
206.841
  0
LINE
  8
0
 10
14.6489
 20
206.841
 11
14.3815
 21
207.409
  0
LINE
  8
0
 10
14.3815
 20
207.409
 11
14.0451
 21
207.939
  0
LINE
  8
0
 10
14.0451
 20
207.939
 11
13.6448
 21
208.423
  0
LINE
  8
0
 10
13.6448
 20
208.423
 11
13.1871
 21
208.853
  0
LINE
  8
0
 10
13.1871
 20
208.853
 11
12.6791
 21
209.222
  0
LINE
  8
0
 10
12.6791
 20
209.222
 11
12.1289
 21
209.524
  0
LINE
  8
0
 10
12.1289
 20
209.524
 11
11.5451
 21
209.755
  0
LINE
  8
0
 10
11.5451
 20
209.755
 11
10.9369
 21
209.911
  0
LINE
  8
0
 10
10.9369
 20
209.911
 11
10.3139
 21
209.99
  0
LINE
  8
0
 10
10.3139
 20
209.99
 11
-10.3139
 21
209.99
  0
LINE
  8
0
 10
-10.3139
 20
209.99
 11
-10.9369
 21
209.911
  0
LINE
  8
0
 10
-10.9369
 20
209.911
 11
-11.5451
 21
209.755
  0
LINE
  8
0
 10
-11.5451
 20
209.755
 11
-12.1289
 21
209.524
  0
LINE
  8
0
 10
-12.1289
 20
209.524
 11
-12.6791
 21
209.222
  0
LINE
  8
0
 10
-12.6791
 20
209.222
 11
-13.1871
 21
208.853
  0
LINE
  8
0
 10
-13.1871
 20
208.853
 11
-13.6448
 21
208.423
  0
LINE
  8
0
 10
-13.6448
 20
208.423
 11
-14.0451
 21
207.939
  0
LINE
  8
0
 10
-14.0451
 20
207.939
 11
-14.3815
 21
207.409
  0
LINE
  8
0
 10
-14.3815
 20
207.409
 11
-14.6489
 21
206.841
  0
LINE
  8
0
 10
-14.6489
 20
206.841
 11
-14.8429
 21
206.243
  0
LINE
  8
0
 10
-14.8429
 20
206.243
 11
-14.9606
 21
205.627
  0
LINE
  8
0
 10
-14.9606
 20
205.627
 11
-15
 21
205
  0
LINE
  8
0
 10
-15
 20
205
 11
-15
 21
185
  0
LINE
  8
0
 10
-15
 20
185
 11
-14.9606
 21
184.373
  0
LINE
  8
0
 10
-14.9606
 20
184.373
 11
-14.8429
 21
183.757
  0
LINE
  8
0
 10
-14.8429
 20
183.757
 11
-14.6489
 21
183.159
  0
LINE
  8
0
 10
-14.6489
 20
183.159
 11
-14.3815
 21
182.591
  0
LINE
  8
0
 10
-14.3815
 20
182.591
 11
-14.0451
 21
182.061
  0
LINE
  8
0
 10
-14.0451
 20
182.061
 11
-13.6448
 21
181.577
  0
LINE
  8
0
 10
-13.6448
 20
181.577
 11
-13.1871
 21
181.147
  0
LINE
  8
0
 10
-13.1871
 20
181.147
 11
-12.6791
 21
180.778
  0
LINE
  8
0
 10
-12.6791
 20
180.778
 11
-12.1289
 21
180.476
  0
LINE
  8
0
 10
-12.1289
 20
180.476
 11
-11.5451
 21
180.245
  0
LINE
  8
0
 10
-11.5451
 20
180.245
 11
-10.9369
 21
180.089
  0
LINE
  8
0
 10
-10.9369
 20
180.089
 11
-10.3139
 21
180.01
  0
LINE
  8
0
 10
-10.3139
 20
180.01
 11
10.3139
 21
180.01
  0
LINE
  8
0
 10
10.3139
 20
180.01
 11
10.9369
 21
180.089
  0
LINE
  8
0
 10
-9.88246
 20
183.145
 11
-10.1453
 21
183.178
  0
LINE
  8
0
 10
-10.1453
 20
183.178
 11
-10.4019
 21
183.244
  0
LINE
  8
0
 10
-10.4019
 20
183.244
 11
-10.6482
 21
183.341
  0
LINE
  8
0
 10
-10.6482
 20
183.341
 11
-10.8804
 21
183.469
  0
LINE
  8
0
 10
-10.8804
 20
183.469
 11
-11.0947
 21
183.625
  0
LINE
  8
0
 10
-11.0947
 20
183.625
 11
-11.2878
 21
183.806
  0
LINE
  8
0
 10
-11.2878
 20
183.806
 11
-11.4567
 21
184.01
  0
LINE
  8
0
 10
-11.4567
 20
184.01
 11
-11.5987
 21
184.234
  0
LINE
  8
0
 10
-11.5987
 20
184.234
 11
-11.7115
 21
184.473
  0
LINE
  8
0
 10
-11.7115
 20
184.473
 11
-11.7934
 21
184.725
  0
LINE
  8
0
 10
-11.7934
 20
184.725
 11
-11.843
 21
184.986
  0
LINE
  8
0
 10
-11.843
 20
184.986
 11
-11.8596
 21
185.25
  0
LINE
  8
0
 10
-11.8596
 20
185.25
 11
-11.8596
 21
204.75
  0
LINE
  8
0
 10
-11.8596
 20
204.75
 11
-11.843
 21
205.014
  0
LINE
  8
0
 10
-11.843
 20
205.014
 11
-11.7934
 21
205.275
  0
LINE
  8
0
 10
-11.7934
 20
205.275
 11
-11.7115
 21
205.527
  0
LINE
  8
0
 10
-11.7115
 20
205.527
 11
-11.5987
 21
205.766
  0
LINE
  8
0
 10
-11.5987
 20
205.766
 11
-11.4567
 21
205.99
  0
LINE
  8
0
 10
-11.4567
 20
205.99
 11
-11.2878
 21
206.194
  0
LINE
  8
0
 10
-11.2878
 20
206.194
 11
-11.0947
 21
206.375
  0
LINE
  8
0
 10
-11.0947
 20
206.375
 11
-10.8804
 21
206.531
  0
LINE
  8
0
 10
-10.8804
 20
206.531
 11
-10.6482
 21
206.659
  0
LINE
  8
0
 10
-10.6482
 20
206.659
 11
-10.4019
 21
206.756
  0
LINE
  8
0
 10
-10.4019
 20
206.756
 11
-10.1453
 21
206.822
  0
LINE
  8
0
 10
-10.1453
 20
206.822
 11
-9.88246
 21
206.855
  0
LINE
  8
0
 10
-9.88246
 20
206.855
 11
9.88246
 21
206.855
  0
LINE
  8
0
 10
9.88246
 20
206.855
 11
10.1453
 21
206.822
  0
LINE
  8
0
 10
10.1453
 20
206.822
 11
10.4019
 21
206.756
  0
LINE
  8
0
 10
10.4019
 20
206.756
 11
10.6482
 21
206.659
  0
LINE
  8
0
 10
10.6482
 20
206.659
 11
10.8804
 21
206.531
  0
LINE
  8
0
 10
10.8804
 20
206.531
 11
11.0947
 21
206.375
  0
LINE
  8
0
 10
11.0947
 20
206.375
 11
11.2878
 21
206.194
  0
LINE
  8
0
 10
11.2878
 20
206.194
 11
11.4567
 21
205.99
  0
LINE
  8
0
 10
11.4567
 20
205.99
 11
11.5987
 21
205.766
  0
LINE
  8
0
 10
11.5987
 20
205.766
 11
11.7115
 21
205.527
  0
LINE
  8
0
 10
11.7115
 20
205.527
 11
11.7934
 21
205.275
  0
LINE
  8
0
 10
11.7934
 20
205.275
 11
11.843
 21
205.014
  0
LINE
  8
0
 10
11.843
 20
205.014
 11
11.8596
 21
204.75
  0
LINE
  8
0
 10
11.8596
 20
204.75
 11
11.8596
 21
185.25
  0
LINE
  8
0
 10
11.8596
 20
185.25
 11
11.843
 21
184.986
  0
LINE
  8
0
 10
11.843
 20
184.986
 11
11.7934
 21
184.725
  0
LINE
  8
0
 10
11.7934
 20
184.725
 11
11.7115
 21
184.473
  0
LINE
  8
0
 10
11.7115
 20
184.473
 11
11.5987
 21
184.234
  0
LINE
  8
0
 10
11.5987
 20
184.234
 11
11.4567
 21
184.01
  0
LINE
  8
0
 10
11.4567
 20
184.01
 11
11.2878
 21
183.806
  0
LINE
  8
0
 10
11.2878
 20
183.806
 11
11.0947
 21
183.625
  0
LINE
  8
0
 10
11.0947
 20
183.625
 11
10.8804
 21
183.469
  0
LINE
  8
0
 10
10.8804
 20
183.469
 11
10.6482
 21
183.341
  0
LINE
  8
0
 10
10.6482
 20
183.341
 11
10.4019
 21
183.244
  0
LINE
  8
0
 10
10.4019
 20
183.244
 11
10.1453
 21
183.178
  0
LINE
  8
0
 10
10.1453
 20
183.178
 11
9.88246
 21
183.145
  0
LINE
  8
0
 10
9.88246
 20
183.145
 11
-9.88246
 21
183.145
  0
ENDSEC
  0
SECTION
  2
OBJECTS
  0
DICTIONARY
  0
ENDSEC
  0
EOF
