<?xml version="1.0" standalone="no"?>
<!DOCTYPE svg PUBLIC "-//W3C//DTD SVG 1.1//EN" "http://www.w3.org/Graphics/SVG/1.1/DTD/svg11.dtd">
<svg width="16mm" height="69mm" viewBox="-8 -132 16 69" xmlns="http://www.w3.org/2000/svg" version="1.1">
<title>OpenSCAD Model</title>
<path d="
M 3.4369,-102.089 L 4.04507,-102.245 L 4.62889,-102.476 L 5.17912,-102.778 L 5.68712,-103.147 L 6.14484,-103.577
 L 6.54507,-104.061 L 6.88153,-104.591 L 7.14888,-105.159 L 7.34291,-105.757 L 7.46057,-106.373 L 7.5,-107
 L 7.5,-127 L 7.46057,-127.627 L 7.34291,-128.243 L 7.14888,-128.841 L 6.88153,-129.409 L 6.54507,-129.939
 L 6.14484,-130.423 L 5.68712,-130.853 L 5.17912,-131.222 L 4.62889,-131.524 L 4.04507,-131.755 L 3.4369,-131.911
 L 2.81395,-131.99 L -2.81395,-131.99 L -3.4369,-131.911 L -4.04507,-131.755 L -4.62889,-131.524 L -5.17912,-131.222
 L -5.68712,-130.853 L -6.14484,-130.423 L -6.54507,-129.939 L -6.88153,-129.409 L -7.14888,-128.841 L -7.34291,-128.243
 L -7.46057,-127.627 L -7.5,-127 L -7.5,-107 L -7.46057,-106.373 L -7.34291,-105.757 L -7.14888,-105.159
 L -6.88153,-104.591 L -6.54507,-104.061 L -6.14484,-103.577 L -5.68712,-103.147 L -5.17912,-102.778 L -4.62889,-102.476
 L -4.04507,-102.245 L -3.4369,-102.089 L -2.81395,-102.01 L 2.81395,-102.01 z
M -2.19545,-104.393 L -2.5833,-104.442 L -2.96194,-104.539 L -3.32541,-104.683 L -3.66798,-104.872 L -3.98424,-105.101
 L -4.26921,-105.369 L -4.5184,-105.67 L -4.72786,-106 L -4.89432,-106.354 L -5.01512,-106.726 L -5.08836,-107.11
 L -5.11292,-107.5 L -5.11292,-126.5 L -5.08836,-126.89 L -5.01512,-127.274 L -4.89432,-127.646 L -4.72786,-128
 L -4.5184,-128.33 L -4.26921,-128.631 L -3.98424,-128.899 L -3.66798,-129.128 L -3.32541,-129.317 L -2.96194,-129.461
 L -2.5833,-129.558 L -2.19545,-129.607 L 2.19545,-129.607 L 2.5833,-129.558 L 2.96194,-129.461 L 3.32541,-129.317
 L 3.66798,-129.128 L 3.98424,-128.899 L 4.26921,-128.631 L 4.5184,-128.33 L 4.72786,-128 L 4.89432,-127.646
 L 5.01512,-127.274 L 5.08836,-126.89 L 5.11292,-126.5 L 5.11292,-107.5 L 5.08836,-107.11 L 5.01512,-106.726
 L 4.89432,-106.354 L 4.72786,-106 L 4.5184,-105.67 L 4.26921,-105.369 L 3.98424,-105.101 L 3.66798,-104.872
 L 3.32541,-104.683 L 2.96194,-104.539 L 2.5833,-104.442 L 2.19545,-104.393 z
M 3.4369,-63.0886 L 4.04507,-63.2447 L 4.62889,-63.4759 L 5.17912,-63.7784 L 5.68712,-64.1474 L 6.14484,-64.5773
 L 6.54507,-65.0611 L 6.88153,-65.5912 L 7.14888,-66.1594 L 7.34291,-66.7566 L 7.46057,-67.3733 L 7.5,-68
 L 7.5,-88 L 7.46057,-88.6267 L 7.34291,-89.2434 L 7.14888,-89.8406 L 6.88153,-90.4088 L 6.54507,-90.9389
 L 6.14484,-91.4227 L 5.68712,-91.8526 L 5.17912,-92.2216 L 4.62889,-92.5241 L 4.04507,-92.7553 L 3.4369,-92.9114
 L 2.81395,-92.9901 L -2.81395,-92.9901 L -3.4369,-92.9114 L -4.04507,-92.7553 L -4.62889,-92.5241 L -5.17912,-92.2216
 L -5.68712,-91.8526 L -6.14484,-91.4227 L -6.54507,-90.9389 L -6.88153,-90.4088 L -7.14888,-89.8406 L -7.34291,-89.2434
 L -7.46057,-88.6267 L -7.5,-88 L -7.5,-68 L -7.46057,-67.3733 L -7.34291,-66.7566 L -7.14888,-66.1594
 L -6.88153,-65.5912 L -6.54507,-65.0611 L -6.14484,-64.5773 L -5.68712,-64.1474 L -5.17912,-63.7784 L -4.62889,-63.4759
 L -4.04507,-63.2447 L -3.4369,-63.0886 L -2.81395,-63.0099 L 2.81395,-63.0099 z
M -0.134064,-83.3689 L -0.400101,-83.4025 L -0.659836,-83.4692 L -0.909149,-83.5679 L -1.14413,-83.6971 L -1.36108,-83.8547
 L -1.55655,-84.0383 L -1.72748,-84.2449 L -1.87117,-84.4713 L -1.98534,-84.7139 L -2.06821,-84.969 L -2.11845,-85.2324
 L -2.13528,-85.5 L -2.11845,-85.7676 L -2.06821,-86.031 L -1.98534,-86.286 L -1.87117,-86.5287 L -1.72748,-86.7551
 L -1.55655,-86.9617 L -1.36108,-87.1453 L -1.14413,-87.3029 L -0.909149,-87.4321 L -0.659836,-87.5308 L -0.400101,-87.5975
 L -0.134064,-87.6311 L 0.134064,-87.6311 L 0.400101,-87.5975 L 0.659836,-87.5308 L 0.909149,-87.4321 L 1.14413,-87.3029
 L 1.36108,-87.1453 L 1.55655,-86.9617 L 1.72748,-86.7551 L 1.87117,-86.5287 L 1.98534,-86.286 L 2.06821,-86.031
 L 2.11845,-85.7676 L 2.13528,-85.5 L 2.11845,-85.2324 L 2.06821,-84.969 L 1.98534,-84.7139 L 1.87117,-84.4713
 L 1.72748,-84.2449 L 1.55655,-84.0383 L 1.36108,-83.8547 L 1.14413,-83.6971 L 0.909149,-83.5679 L 0.659836,-83.4692
 L 0.400101,-83.4025 L 0.134064,-83.3689 z
M -0.134064,-68.3689 L -0.400101,-68.4025 L -0.659836,-68.4692 L -0.909149,-68.5679 L -1.14413,-68.6971 L -1.36108,-68.8547
 L -1.55655,-69.0383 L -1.72748,-69.2449 L -1.87117,-69.4713 L -1.98534,-69.714 L -2.06821,-69.969 L -2.11845,-70.2324
 L -2.13528,-70.5 L -2.11845,-70.7676 L -2.06821,-71.031 L -1.98534,-71.2861 L -1.87117,-71.5287 L -1.72748,-71.7551
 L -1.55655,-71.9617 L -1.36108,-72.1453 L -1.14413,-72.3029 L -0.909149,-72.4321 L -0.659836,-72.5308 L -0.400101,-72.5975
 L -0.134064,-72.6311 L 0.134064,-72.6311 L 0.400101,-72.5975 L 0.659836,-72.5308 L 0.909149,-72.4321 L 1.14413,-72.3029
 L 1.36108,-72.1453 L 1.55655,-71.9617 L 1.72748,-71.7551 L 1.87117,-71.5287 L 1.98534,-71.2861 L 2.06821,-71.031
 L 2.11845,-70.7676 L 2.13528,-70.5 L 2.11845,-70.2324 L 2.06821,-69.969 L 1.98534,-69.714 L 1.87117,-69.4713
 L 1.72748,-69.2449 L 1.55655,-69.0383 L 1.36108,-68.8547 L 1.14413,-68.6971 L 0.909149,-68.5679 L 0.659836,-68.4692
 L 0.400101,-68.4025 L 0.134064,-68.3689 z
" stroke="black" fill="lightgray" stroke-width="0.5"/>
</svg>
