<?xml version="1.0" standalone="no"?>
<!DOCTYPE svg PUBLIC "-//W3C//DTD SVG 1.1//EN" "http://www.w3.org/Graphics/SVG/1.1/DTD/svg11.dtd">
<svg width="180mm" height="69mm" viewBox="-90 -93 180 69" xmlns="http://www.w3.org/2000/svg" version="1.1">
<title>OpenSCAD Model</title>
<path d="
M 85.9369,-63.0886 L 86.5451,-63.2447 L 87.1289,-63.4759 L 87.6791,-63.7784 L 88.1871,-64.1474 L 88.6448,-64.5773
 L 89.0451,-65.0611 L 89.3815,-65.5912 L 89.6489,-66.1594 L 89.8429,-66.7566 L 89.9606,-67.3733 L 90,-68
 L 90,-88 L 89.9606,-88.6267 L 89.8429,-89.2434 L 89.6489,-89.8406 L 89.3815,-90.4088 L 89.0451,-90.9389
 L 88.6448,-91.4227 L 88.1871,-91.8526 L 87.6791,-92.2216 L 87.1289,-92.5241 L 86.5451,-92.7553 L 85.9369,-92.9114
 L 85.3139,-92.9901 L -85.3139,-92.9901 L -85.9369,-92.9114 L -86.5451,-92.7553 L -87.1289,-92.5241 L -87.6791,-92.2216
 L -88.1871,-91.8526 L -88.6448,-91.4227 L -89.0451,-90.9389 L -89.3815,-90.4088 L -89.6489,-89.8406 L -89.8429,-89.2434
 L -89.9606,-88.6267 L -90,-88 L -90,-68 L -89.9606,-67.3733 L -89.8429,-66.7566 L -89.6489,-66.1594
 L -89.3815,-65.5912 L -89.0451,-65.0611 L -88.6448,-64.5773 L -88.1871,-64.1474 L -87.6791,-63.7784 L -87.1289,-63.4759
 L -86.5451,-63.2447 L -85.9369,-63.0886 L -85.3139,-63.0099 L 85.3139,-63.0099 z
M -84.993,-64.3882 L -85.4751,-64.4491 L -85.9457,-64.5699 L -86.3975,-64.7488 L -86.8234,-64.9829 L -87.2165,-65.2685
 L -87.5707,-65.6012 L -87.8805,-65.9756 L -88.1408,-66.3859 L -88.3477,-66.8256 L -88.4979,-67.2877 L -88.589,-67.765
 L -88.6195,-68.25 L -88.6195,-87.75 L -88.589,-88.235 L -88.4979,-88.7123 L -88.3477,-89.1744 L -88.1408,-89.6141
 L -87.8805,-90.0244 L -87.5707,-90.3988 L -87.2165,-90.7315 L -86.8234,-91.0171 L -86.3975,-91.2512 L -85.9457,-91.4301
 L -85.4751,-91.5509 L -84.993,-91.6118 L 84.993,-91.6118 L 85.4751,-91.5509 L 85.9457,-91.4301 L 86.3975,-91.2512
 L 86.8234,-91.0171 L 87.2165,-90.7315 L 87.5707,-90.3988 L 87.8805,-90.0244 L 88.1408,-89.6141 L 88.3477,-89.1744
 L 88.4979,-88.7123 L 88.589,-88.235 L 88.6195,-87.75 L 88.6195,-68.25 L 88.589,-67.765 L 88.4979,-67.2877
 L 88.3477,-66.8256 L 88.1408,-66.3859 L 87.8805,-65.9756 L 87.5707,-65.6012 L 87.2165,-65.2685 L 86.8234,-64.9829
 L 86.3975,-64.7488 L 85.9457,-64.5699 L 85.4751,-64.4491 L 84.993,-64.3882 z
M 85.9369,-24.0886 L 86.5451,-24.2447 L 87.1289,-24.4759 L 87.6791,-24.7784 L 88.1871,-25.1474 L 88.6448,-25.5773
 L 89.0451,-26.0611 L 89.3815,-26.5912 L 89.6489,-27.1594 L 89.8429,-27.7566 L 89.9606,-28.3733 L 90,-29
 L 90,-49 L 89.9606,-49.6267 L 89.8429,-50.2434 L 89.6489,-50.8406 L 89.3815,-51.4088 L 89.0451,-51.9389
 L 88.6448,-52.4227 L 88.1871,-52.8526 L 87.6791,-53.2216 L 87.1289,-53.5241 L 86.5451,-53.7553 L 85.9369,-53.9114
 L 85.3139,-53.9901 L -85.3139,-53.9901 L -85.9369,-53.9114 L -86.5451,-53.7553 L -87.1289,-53.5241 L -87.6791,-53.2216
 L -88.1871,-52.8526 L -88.6448,-52.4227 L -89.0451,-51.9389 L -89.3815,-51.4088 L -89.6489,-50.8406 L -89.8429,-50.2434
 L -89.9606,-49.6267 L -90,-49 L -90,-29 L -89.9606,-28.3733 L -89.8429,-27.7566 L -89.6489,-27.1594
 L -89.3815,-26.5912 L -89.0451,-26.0611 L -88.6448,-25.5773 L -88.1871,-25.1474 L -87.6791,-24.7784 L -87.1289,-24.4759
 L -86.5451,-24.2447 L -85.9369,-24.0886 L -85.3139,-24.0099 L 85.3139,-24.0099 z
M 82.387,-44.7036 L 82.1627,-44.7319 L 81.9438,-44.7881 L 81.7336,-44.8713 L 81.5355,-44.9802 L 81.3526,-45.1131
 L 81.1879,-45.2678 L 81.0438,-45.442 L 80.9226,-45.6328 L 80.8264,-45.8374 L 80.7565,-46.0524 L 80.7142,-46.2744
 L 80.7,-46.5 L 80.7142,-46.7256 L 80.7565,-46.9476 L 80.8264,-47.1626 L 80.9226,-47.3671 L 81.0438,-47.558
 L 81.1879,-47.7322 L 81.3526,-47.8869 L 81.5355,-48.0198 L 81.7336,-48.1287 L 81.9438,-48.2119 L 82.1627,-48.2681
 L 82.387,-48.2964 L 82.613,-48.2964 L 82.8373,-48.2681 L 83.0562,-48.2119 L 83.2664,-48.1287 L 83.4645,-48.0198
 L 83.6474,-47.8869 L 83.8121,-47.7322 L 83.9562,-47.558 L 84.0773,-47.3671 L 84.1736,-47.1626 L 84.2434,-46.9476
 L 84.2858,-46.7256 L 84.3,-46.5 L 84.2858,-46.2744 L 84.2434,-46.0524 L 84.1736,-45.8374 L 84.0773,-45.6328
 L 83.9562,-45.442 L 83.8121,-45.2678 L 83.6474,-45.1131 L 83.4645,-44.9802 L 83.2664,-44.8713 L 83.0562,-44.7881
 L 82.8373,-44.7319 L 82.613,-44.7036 z
M -82.613,-44.7036 L -82.8373,-44.7319 L -83.0562,-44.7881 L -83.2664,-44.8713 L -83.4645,-44.9802 L -83.6474,-45.1131
 L -83.8121,-45.2678 L -83.9562,-45.442 L -84.0773,-45.6328 L -84.1736,-45.8374 L -84.2434,-46.0524 L -84.2858,-46.2744
 L -84.3,-46.5 L -84.2858,-46.7256 L -84.2434,-46.9476 L -84.1736,-47.1626 L -84.0773,-47.3671 L -83.9562,-47.558
 L -83.8121,-47.7322 L -83.6474,-47.8869 L -83.4645,-48.0198 L -83.2664,-48.1287 L -83.0562,-48.2119 L -82.8373,-48.2681
 L -82.613,-48.2964 L -82.387,-48.2964 L -82.1627,-48.2681 L -81.9438,-48.2119 L -81.7336,-48.1287 L -81.5355,-48.0198
 L -81.3526,-47.8869 L -81.1879,-47.7322 L -81.0438,-47.558 L -80.9226,-47.3671 L -80.8264,-47.1626 L -80.7565,-46.9476
 L -80.7142,-46.7256 L -80.7,-46.5 L -80.7142,-46.2744 L -80.7565,-46.0524 L -80.8264,-45.8374 L -80.9226,-45.6328
 L -81.0438,-45.442 L -81.1879,-45.2678 L -81.3526,-45.1131 L -81.5355,-44.9802 L -81.7336,-44.8713 L -81.9438,-44.7881
 L -82.1627,-44.7319 L -82.387,-44.7036 z
M 82.387,-29.7036 L 82.1627,-29.7319 L 81.9438,-29.7881 L 81.7336,-29.8713 L 81.5355,-29.9802 L 81.3526,-30.1131
 L 81.1879,-30.2678 L 81.0438,-30.442 L 80.9226,-30.6329 L 80.8264,-30.8374 L 80.7565,-31.0524 L 80.7142,-31.2744
 L 80.7,-31.5 L 80.7142,-31.7256 L 80.7565,-31.9476 L 80.8264,-32.1626 L 80.9226,-32.3672 L 81.0438,-32.558
 L 81.1879,-32.7322 L 81.3526,-32.8869 L 81.5355,-33.0198 L 81.7336,-33.1287 L 81.9438,-33.2119 L 82.1627,-33.2681
 L 82.387,-33.2964 L 82.613,-33.2964 L 82.8373,-33.2681 L 83.0562,-33.2119 L 83.2664,-33.1287 L 83.4645,-33.0198
 L 83.6474,-32.8869 L 83.8121,-32.7322 L 83.9562,-32.558 L 84.0773,-32.3672 L 84.1736,-32.1626 L 84.2434,-31.9476
 L 84.2858,-31.7256 L 84.3,-31.5 L 84.2858,-31.2744 L 84.2434,-31.0524 L 84.1736,-30.8374 L 84.0773,-30.6329
 L 83.9562,-30.442 L 83.8121,-30.2678 L 83.6474,-30.1131 L 83.4645,-29.9802 L 83.2664,-29.8713 L 83.0562,-29.7881
 L 82.8373,-29.7319 L 82.613,-29.7036 z
M -82.613,-29.7036 L -82.8373,-29.7319 L -83.0562,-29.7881 L -83.2664,-29.8713 L -83.4645,-29.9802 L -83.6474,-30.1131
 L -83.8121,-30.2678 L -83.9562,-30.442 L -84.0773,-30.6329 L -84.1736,-30.8374 L -84.2434,-31.0524 L -84.2858,-31.2744
 L -84.3,-31.5 L -84.2858,-31.7256 L -84.2434,-31.9476 L -84.1736,-32.1626 L -84.0773,-32.3672 L -83.9562,-32.558
 L -83.8121,-32.7322 L -83.6474,-32.8869 L -83.4645,-33.0198 L -83.2664,-33.1287 L -83.0562,-33.2119 L -82.8373,-33.2681
 L -82.613,-33.2964 L -82.387,-33.2964 L -82.1627,-33.2681 L -81.9438,-33.2119 L -81.7336,-33.1287 L -81.5355,-33.0198
 L -81.3526,-32.8869 L -81.1879,-32.7322 L -81.0438,-32.558 L -80.9226,-32.3672 L -80.8264,-32.1626 L -80.7565,-31.9476
 L -80.7142,-31.7256 L -80.7,-31.5 L -80.7142,-31.2744 L -80.7565,-31.0524 L -80.8264,-30.8374 L -80.9226,-30.6329
 L -81.0438,-30.442 L -81.1879,-30.2678 L -81.3526,-30.1131 L -81.5355,-29.9802 L -81.7336,-29.8713 L -81.9438,-29.7881
 L -82.1627,-29.7319 L -82.387,-29.7036 z
" stroke="black" fill="lightgray" stroke-width="0.5"/>
</svg>
