<?xml version="1.0" standalone="no"?>
<!DOCTYPE svg PUBLIC "-//W3C//DTD SVG 1.1//EN" "http://www.w3.org/Graphics/SVG/1.1/DTD/svg11.dtd">
<svg width="46mm" height="64mm" viewBox="-23 -128 46 64" xmlns="http://www.w3.org/2000/svg" version="1.1">
<title>OpenSCAD Model</title>
<path d="
M 18.4369,-112.589 L 19.0451,-112.745 L 19.6289,-112.976 L 20.1791,-113.278 L 20.6871,-113.647 L 21.1448,-114.077
 L 21.5451,-114.561 L 21.8815,-115.091 L 22.1489,-115.659 L 22.3429,-116.257 L 22.4606,-116.873 L 22.5,-117.5
 L 22.5,-122.5 L 22.4606,-123.127 L 22.3429,-123.743 L 22.1489,-124.341 L 21.8815,-124.909 L 21.5451,-125.439
 L 21.1448,-125.923 L 20.6871,-126.353 L 20.1791,-126.722 L 19.6289,-127.024 L 19.0451,-127.255 L 18.4369,-127.411
 L 17.8139,-127.49 L -17.8139,-127.49 L -18.4369,-127.411 L -19.0451,-127.255 L -19.6289,-127.024 L -20.1791,-126.722
 L -20.6871,-126.353 L -21.1448,-125.923 L -21.5451,-125.439 L -21.8815,-124.909 L -22.1489,-124.341 L -22.3429,-123.743
 L -22.4606,-123.127 L -22.5,-122.5 L -22.5,-117.5 L -22.4606,-116.873 L -22.3429,-116.257 L -22.1489,-115.659
 L -21.8815,-115.091 L -21.5451,-114.561 L -21.1448,-114.077 L -20.6871,-113.647 L -20.1791,-113.278 L -19.6289,-112.976
 L -19.0451,-112.745 L -18.4369,-112.589 L -17.8139,-112.51 L 17.8139,-112.51 z
M -17.5482,-113.009 L -18.1401,-113.084 L -18.7178,-113.232 L -19.2724,-113.452 L -19.7952,-113.739 L -20.2778,-114.09
 L -20.7126,-114.498 L -21.0928,-114.958 L -21.4124,-115.462 L -21.6664,-116.001 L -21.8508,-116.569 L -21.9625,-117.155
 L -22,-117.75 L -22,-122.25 L -21.9625,-122.845 L -21.8508,-123.431 L -21.6664,-123.999 L -21.4124,-124.538
 L -21.0928,-125.042 L -20.7126,-125.502 L -20.2778,-125.91 L -19.7952,-126.261 L -19.2724,-126.548 L -18.7178,-126.768
 L -18.1401,-126.916 L -17.5482,-126.991 L 17.5482,-126.991 L 18.1401,-126.916 L 18.7178,-126.768 L 19.2724,-126.548
 L 19.7952,-126.261 L 20.2778,-125.91 L 20.7126,-125.502 L 21.0928,-125.042 L 21.4124,-124.538 L 21.6664,-123.999
 L 21.8508,-123.431 L 21.9625,-122.845 L 22,-122.25 L 22,-117.75 L 21.9625,-117.155 L 21.8508,-116.569
 L 21.6664,-116.001 L 21.4124,-115.462 L 21.0928,-114.958 L 20.7126,-114.498 L 20.2778,-114.09 L 19.7952,-113.739
 L 19.2724,-113.452 L 18.7178,-113.232 L 18.1401,-113.084 L 17.5482,-113.009 z
M 18.4369,-88.5886 L 19.0451,-88.7447 L 19.6289,-88.9759 L 20.1791,-89.2784 L 20.6871,-89.6474 L 21.1448,-90.0773
 L 21.5451,-90.5611 L 21.8815,-91.0912 L 22.1489,-91.6594 L 22.3429,-92.2566 L 22.4606,-92.8733 L 22.5,-93.5
 L 22.5,-98.5 L 22.4606,-99.1267 L 22.3429,-99.7434 L 22.1489,-100.341 L 21.8815,-100.909 L 21.5451,-101.439
 L 21.1448,-101.923 L 20.6871,-102.353 L 20.1791,-102.722 L 19.6289,-103.024 L 19.0451,-103.255 L 18.4369,-103.411
 L 17.8139,-103.49 L -17.8139,-103.49 L -18.4369,-103.411 L -19.0451,-103.255 L -19.6289,-103.024 L -20.1791,-102.722
 L -20.6871,-102.353 L -21.1448,-101.923 L -21.5451,-101.439 L -21.8815,-100.909 L -22.1489,-100.341 L -22.3429,-99.7434
 L -22.4606,-99.1267 L -22.5,-98.5 L -22.5,-93.5 L -22.4606,-92.8733 L -22.3429,-92.2566 L -22.1489,-91.6594
 L -21.8815,-91.0912 L -21.5451,-90.5611 L -21.1448,-90.0773 L -20.6871,-89.6474 L -20.1791,-89.2784 L -19.6289,-88.9759
 L -19.0451,-88.7447 L -18.4369,-88.5886 L -17.8139,-88.5099 L 17.8139,-88.5099 z
M -17.5375,-89.1806 L -18.1079,-89.2527 L -18.6648,-89.3956 L -19.1994,-89.6073 L -19.7032,-89.8843 L -20.1684,-90.2223
 L -20.5875,-90.6158 L -20.954,-91.0589 L -21.2621,-91.5443 L -21.5069,-92.0646 L -21.6846,-92.6114 L -21.7923,-93.1762
 L -21.8284,-93.75 L -21.8284,-98.25 L -21.7923,-98.8238 L -21.6846,-99.3886 L -21.5069,-99.9354 L -21.2621,-100.456
 L -20.954,-100.941 L -20.5875,-101.384 L -20.1684,-101.778 L -19.7032,-102.116 L -19.1994,-102.393 L -18.6648,-102.604
 L -18.1079,-102.747 L -17.5375,-102.819 L 17.5375,-102.819 L 18.1079,-102.747 L 18.6648,-102.604 L 19.1994,-102.393
 L 19.7032,-102.116 L 20.1684,-101.778 L 20.5875,-101.384 L 20.954,-100.941 L 21.2621,-100.456 L 21.5069,-99.9354
 L 21.6846,-99.3886 L 21.7923,-98.8238 L 21.8284,-98.25 L 21.8284,-93.75 L 21.7923,-93.1762 L 21.6846,-92.6114
 L 21.5069,-92.0646 L 21.2621,-91.5443 L 20.954,-91.0589 L 20.5875,-90.6158 L 20.1684,-90.2223 L 19.7032,-89.8843
 L 19.1994,-89.6073 L 18.6648,-89.3956 L 18.1079,-89.2527 L 17.5375,-89.1806 z
M 18.4369,-64.5886 L 19.0451,-64.7447 L 19.6289,-64.9759 L 20.1791,-65.2784 L 20.6871,-65.6474 L 21.1448,-66.0773
 L 21.5451,-66.5611 L 21.8815,-67.0912 L 22.1489,-67.6594 L 22.3429,-68.2566 L 22.4606,-68.8733 L 22.5,-69.5
 L 22.5,-74.5 L 22.4606,-75.1267 L 22.3429,-75.7434 L 22.1489,-76.3406 L 21.8815,-76.9088 L 21.5451,-77.4389
 L 21.1448,-77.9227 L 20.6871,-78.3526 L 20.1791,-78.7216 L 19.6289,-79.0241 L 19.0451,-79.2553 L 18.4369,-79.4114
 L 17.8139,-79.4901 L -17.8139,-79.4901 L -18.4369,-79.4114 L -19.0451,-79.2553 L -19.6289,-79.0241 L -20.1791,-78.7216
 L -20.6871,-78.3526 L -21.1448,-77.9227 L -21.5451,-77.4389 L -21.8815,-76.9088 L -22.1489,-76.3406 L -22.3429,-75.7434
 L -22.4606,-75.1267 L -22.5,-74.5 L -22.5,-69.5 L -22.4606,-68.8733 L -22.3429,-68.2566 L -22.1489,-67.6594
 L -21.8815,-67.0912 L -21.5451,-66.5611 L -21.1448,-66.0773 L -20.6871,-65.6474 L -20.1791,-65.2784 L -19.6289,-64.9759
 L -19.0451,-64.7447 L -18.4369,-64.5886 L -17.8139,-64.5099 L 17.8139,-64.5099 z
M -17.3825,-67.6445 L -17.6453,-67.6777 L -17.9019,-67.7436 L -18.1482,-67.8412 L -18.3804,-67.9688 L -18.5947,-68.1245
 L -18.7879,-68.3059 L -18.9567,-68.51 L -19.0987,-68.7337 L -19.2115,-68.9734 L -19.2934,-69.2254 L -19.343,-69.4856
 L -19.3596,-69.75 L -19.3596,-74.25 L -19.343,-74.5144 L -19.2934,-74.7746 L -19.2115,-75.0266 L -19.0987,-75.2663
 L -18.9567,-75.49 L -18.7879,-75.6941 L -18.5947,-75.8755 L -18.3804,-76.0312 L -18.1482,-76.1588 L -17.9019,-76.2564
 L -17.6453,-76.3223 L -17.3825,-76.3555 L 17.3825,-76.3555 L 17.6453,-76.3223 L 17.9019,-76.2564 L 18.1482,-76.1588
 L 18.3804,-76.0312 L 18.5947,-75.8755 L 18.7879,-75.6941 L 18.9567,-75.49 L 19.0987,-75.2663 L 19.2115,-75.0266
 L 19.2934,-74.7746 L 19.343,-74.5144 L 19.3596,-74.25 L 19.3596,-69.75 L 19.343,-69.4856 L 19.2934,-69.2254
 L 19.2115,-68.9734 L 19.0987,-68.7337 L 18.9567,-68.51 L 18.7879,-68.3059 L 18.5947,-68.1245 L 18.3804,-67.9688
 L 18.1482,-67.8412 L 17.9019,-67.7436 L 17.6453,-67.6777 L 17.3825,-67.6445 z
" stroke="black" fill="lightgray" stroke-width="0.5"/>
</svg>
