<?xml version="1.0" standalone="no"?>
<!DOCTYPE svg PUBLIC "-//W3C//DTD SVG 1.1//EN" "http://www.w3.org/Graphics/SVG/1.1/DTD/svg11.dtd">
<svg width="30mm" height="378mm" viewBox="-15 -576 30 378" xmlns="http://www.w3.org/2000/svg" version="1.1">
<title>OpenSCAD Model</title>
<path d="
M 10.9369,-456.089 L 11.5451,-456.245 L 12.1289,-456.476 L 12.6791,-456.778 L 13.1871,-457.147 L 13.6448,-457.577
 L 14.0451,-458.061 L 14.3815,-458.591 L 14.6489,-459.159 L 14.8429,-459.757 L 14.9606,-460.373 L 15,-461
 L 15,-571 L 14.9606,-571.627 L 14.8429,-572.243 L 14.6489,-572.841 L 14.3815,-573.409 L 14.0451,-573.939
 L 13.6448,-574.423 L 13.1871,-574.853 L 12.6791,-575.222 L 12.1289,-575.524 L 11.5451,-575.755 L 10.9369,-575.911
 L 10.3139,-575.99 L -10.3139,-575.99 L -10.9369,-575.911 L -11.5451,-575.755 L -12.1289,-575.524 L -12.6791,-575.222
 L -13.1871,-574.853 L -13.6448,-574.423 L -14.0451,-573.939 L -14.3815,-573.409 L -14.6489,-572.841 L -14.8429,-572.243
 L -14.9606,-571.627 L -15,-571 L -15,-461 L -14.9606,-460.373 L -14.8429,-459.757 L -14.6489,-459.159
 L -14.3815,-458.591 L -14.0451,-458.061 L -13.6448,-457.577 L -13.1871,-457.147 L -12.6791,-456.778 L -12.1289,-456.476
 L -11.5451,-456.245 L -10.9369,-456.089 L -10.3139,-456.01 L 10.3139,-456.01 z
M -9.74316,-457.635 L -10.2256,-457.696 L -10.6967,-457.817 L -11.1489,-457.996 L -11.5751,-458.23 L -11.9685,-458.516
 L -12.323,-458.849 L -12.633,-459.224 L -12.8936,-459.634 L -13.1007,-460.074 L -13.251,-460.537 L -13.3421,-461.015
 L -13.3726,-461.5 L -13.3726,-570.5 L -13.3421,-570.985 L -13.251,-571.463 L -13.1007,-571.926 L -12.8936,-572.366
 L -12.633,-572.776 L -12.323,-573.151 L -11.9685,-573.484 L -11.5751,-573.77 L -11.1489,-574.004 L -10.6967,-574.183
 L -10.2256,-574.304 L -9.74316,-574.365 L 9.74316,-574.365 L 10.2256,-574.304 L 10.6967,-574.183 L 11.1489,-574.004
 L 11.5751,-573.77 L 11.9685,-573.484 L 12.323,-573.151 L 12.633,-572.776 L 12.8936,-572.366 L 13.1007,-571.926
 L 13.251,-571.463 L 13.3421,-570.985 L 13.3726,-570.5 L 13.3726,-461.5 L 13.3421,-461.015 L 13.251,-460.537
 L 13.1007,-460.074 L 12.8936,-459.634 L 12.633,-459.224 L 12.323,-458.849 L 11.9685,-458.516 L 11.5751,-458.23
 L 11.1489,-457.996 L 10.6967,-457.817 L 10.2256,-457.696 L 9.74316,-457.635 z
M 10.9369,-327.089 L 11.5451,-327.245 L 12.1289,-327.476 L 12.6791,-327.778 L 13.1871,-328.147 L 13.6448,-328.577
 L 14.0451,-329.061 L 14.3815,-329.591 L 14.6489,-330.159 L 14.8429,-330.757 L 14.9606,-331.373 L 15,-332
 L 15,-442 L 14.9606,-442.627 L 14.8429,-443.243 L 14.6489,-443.841 L 14.3815,-444.409 L 14.0451,-444.939
 L 13.6448,-445.423 L 13.1871,-445.853 L 12.6791,-446.222 L 12.1289,-446.524 L 11.5451,-446.755 L 10.9369,-446.911
 L 10.3139,-446.99 L -10.3139,-446.99 L -10.9369,-446.911 L -11.5451,-446.755 L -12.1289,-446.524 L -12.6791,-446.222
 L -13.1871,-445.853 L -13.6448,-445.423 L -14.0451,-444.939 L -14.3815,-444.409 L -14.6489,-443.841 L -14.8429,-443.243
 L -14.9606,-442.627 L -15,-442 L -15,-332 L -14.9606,-331.373 L -14.8429,-330.757 L -14.6489,-330.159
 L -14.3815,-329.591 L -14.0451,-329.061 L -13.6448,-328.577 L -13.1871,-328.147 L -12.6791,-327.778 L -12.1289,-327.476
 L -11.5451,-327.245 L -10.9369,-327.089 L -10.3139,-327.01 L 10.3139,-327.01 z
M 10.9369,-198.089 L 11.5451,-198.245 L 12.1289,-198.476 L 12.6791,-198.778 L 13.1871,-199.147 L 13.6448,-199.577
 L 14.0451,-200.061 L 14.3815,-200.591 L 14.6489,-201.159 L 14.8429,-201.757 L 14.9606,-202.373 L 15,-203
 L 15,-313 L 14.9606,-313.627 L 14.8429,-314.243 L 14.6489,-314.841 L 14.3815,-315.409 L 14.0451,-315.939
 L 13.6448,-316.423 L 13.1871,-316.853 L 12.6791,-317.222 L 12.1289,-317.524 L 11.5451,-317.755 L 10.9369,-317.911
 L 10.3139,-317.99 L -10.3139,-317.99 L -10.9369,-317.911 L -11.5451,-317.755 L -12.1289,-317.524 L -12.6791,-317.222
 L -13.1871,-316.853 L -13.6448,-316.423 L -14.0451,-315.939 L -14.3815,-315.409 L -14.6489,-314.841 L -14.8429,-314.243
 L -14.9606,-313.627 L -15,-313 L -15,-203 L -14.9606,-202.373 L -14.8429,-201.757 L -14.6489,-201.159
 L -14.3815,-200.591 L -14.0451,-200.061 L -13.6448,-199.577 L -13.1871,-199.147 L -12.6791,-198.778 L -12.1289,-198.476
 L -11.5451,-198.245 L -10.9369,-198.089 L -10.3139,-198.01 L 10.3139,-198.01 z
M 7.38696,-308.704 L 7.1627,-308.732 L 6.94376,-308.788 L 6.7336,-308.871 L 6.53551,-308.98 L 6.35263,-309.113
 L 6.18785,-309.268 L 6.04376,-309.442 L 5.92264,-309.633 L 5.8264,-309.837 L 5.75655,-310.052 L 5.71419,-310.274
 L 5.7,-310.5 L 5.71419,-310.726 L 5.75655,-310.948 L 5.8264,-311.163 L 5.92264,-311.367 L 6.04376,-311.558
 L 6.18785,-311.732 L 6.35263,-311.887 L 6.53551,-312.02 L 6.7336,-312.129 L 6.94376,-312.212 L 7.1627,-312.268
 L 7.38696,-312.296 L 7.61302,-312.296 L 7.83728,-312.268 L 8.05623,-312.212 L 8.26639,-312.129 L 8.46448,-312.02
 L 8.64735,-311.887 L 8.81213,-311.732 L 8.95622,-311.558 L 9.07735,-311.367 L 9.17358,-311.163 L 9.24344,-310.948
 L 9.2858,-310.726 L 9.29999,-310.5 L 9.2858,-310.274 L 9.24344,-310.052 L 9.17358,-309.837 L 9.07735,-309.633
 L 8.95622,-309.442 L 8.81213,-309.268 L 8.64735,-309.113 L 8.46448,-308.98 L 8.26639,-308.871 L 8.05623,-308.788
 L 7.83728,-308.732 L 7.61302,-308.704 z
M -7.61302,-308.704 L -7.83728,-308.732 L -8.05623,-308.788 L -8.26639,-308.871 L -8.46448,-308.98 L -8.64735,-309.113
 L -8.81213,-309.268 L -8.95622,-309.442 L -9.07735,-309.633 L -9.17358,-309.837 L -9.24344,-310.052 L -9.2858,-310.274
 L -9.29999,-310.5 L -9.2858,-310.726 L -9.24344,-310.948 L -9.17358,-311.163 L -9.07735,-311.367 L -8.95622,-311.558
 L -8.81213,-311.732 L -8.64735,-311.887 L -8.46448,-312.02 L -8.26639,-312.129 L -8.05623,-312.212 L -7.83728,-312.268
 L -7.61302,-312.296 L -7.38696,-312.296 L -7.1627,-312.268 L -6.94376,-312.212 L -6.7336,-312.129 L -6.53551,-312.02
 L -6.35263,-311.887 L -6.18785,-311.732 L -6.04376,-311.558 L -5.92264,-311.367 L -5.8264,-311.163 L -5.75655,-310.948
 L -5.71419,-310.726 L -5.7,-310.5 L -5.71419,-310.274 L -5.75655,-310.052 L -5.8264,-309.837 L -5.92264,-309.633
 L -6.04376,-309.442 L -6.18785,-309.268 L -6.35263,-309.113 L -6.53551,-308.98 L -6.7336,-308.871 L -6.94376,-308.788
 L -7.1627,-308.732 L -7.38696,-308.704 z
M -7.61302,-203.704 L -7.83728,-203.732 L -8.05623,-203.788 L -8.26639,-203.871 L -8.46448,-203.98 L -8.64735,-204.113
 L -8.81213,-204.268 L -8.95622,-204.442 L -9.07735,-204.633 L -9.17358,-204.837 L -9.24344,-205.052 L -9.2858,-205.274
 L -9.29999,-205.5 L -9.2858,-205.726 L -9.24344,-205.948 L -9.17358,-206.163 L -9.07735,-206.367 L -8.95622,-206.558
 L -8.81213,-206.732 L -8.64735,-206.887 L -8.46448,-207.02 L -8.26639,-207.129 L -8.05623,-207.212 L -7.83728,-207.268
 L -7.61302,-207.296 L -7.38696,-207.296 L -7.1627,-207.268 L -6.94376,-207.212 L -6.7336,-207.129 L -6.53551,-207.02
 L -6.35263,-206.887 L -6.18785,-206.732 L -6.04376,-206.558 L -5.92264,-206.367 L -5.8264,-206.163 L -5.75655,-205.948
 L -5.71419,-205.726 L -5.7,-205.5 L -5.71419,-205.274 L -5.75655,-205.052 L -5.8264,-204.837 L -5.92264,-204.633
 L -6.04376,-204.442 L -6.18785,-204.268 L -6.35263,-204.113 L -6.53551,-203.98 L -6.7336,-203.871 L -6.94376,-203.788
 L -7.1627,-203.732 L -7.38696,-203.704 z
M 7.38696,-203.704 L 7.1627,-203.732 L 6.94376,-203.788 L 6.7336,-203.871 L 6.53551,-203.98 L 6.35263,-204.113
 L 6.18785,-204.268 L 6.04376,-204.442 L 5.92264,-204.633 L 5.8264,-204.837 L 5.75655,-205.052 L 5.71419,-205.274
 L 5.7,-205.5 L 5.71419,-205.726 L 5.75655,-205.948 L 5.8264,-206.163 L 5.92264,-206.367 L 6.04376,-206.558
 L 6.18785,-206.732 L 6.35263,-206.887 L 6.53551,-207.02 L 6.7336,-207.129 L 6.94376,-207.212 L 7.1627,-207.268
 L 7.38696,-207.296 L 7.61302,-207.296 L 7.83728,-207.268 L 8.05623,-207.212 L 8.26639,-207.129 L 8.46448,-207.02
 L 8.64735,-206.887 L 8.81213,-206.732 L 8.95622,-206.558 L 9.07735,-206.367 L 9.17358,-206.163 L 9.24344,-205.948
 L 9.2858,-205.726 L 9.29999,-205.5 L 9.2858,-205.274 L 9.24344,-205.052 L 9.17358,-204.837 L 9.07735,-204.633
 L 8.95622,-204.442 L 8.81213,-204.268 L 8.64735,-204.113 L 8.46448,-203.98 L 8.26639,-203.871 L 8.05623,-203.788
 L 7.83728,-203.732 L 7.61302,-203.704 z
" stroke="black" fill="lightgray" stroke-width="0.5"/>
</svg>
