<?xml version="1.0" standalone="no"?>
<!DOCTYPE svg PUBLIC "-//W3C//DTD SVG 1.1//EN" "http://www.w3.org/Graphics/SVG/1.1/DTD/svg11.dtd">
<svg width="92mm" height="154mm" viewBox="-47 -293 92 154" xmlns="http://www.w3.org/2000/svg" version="1.1">
<title>OpenSCAD Model</title>
<path d="
M -43.5,-248.941 L -43.1871,-248.647 L -42.6791,-248.278 L -42.1289,-247.976 L -41.5451,-247.745 L -40.9369,-247.589
 L -40.3139,-247.51 L 40.3139,-247.51 L 40.9369,-247.589 L 41.5451,-247.745 L 42.1289,-247.976 L 42.6791,-248.278
 L 43.1871,-248.647 L 43.6448,-249.077 L 44.0451,-249.561 L 44.3815,-250.091 L 44.6489,-250.659 L 44.8429,-251.257
 L 44.9606,-251.873 L 45,-252.5 L 45,-287.5 L 44.9606,-288.127 L 44.8429,-288.743 L 44.6489,-289.341
 L 44.3815,-289.909 L 44.0451,-290.439 L 43.6448,-290.923 L 43.1871,-291.353 L 42.6791,-291.722 L 42.1289,-292.024
 L 41.5451,-292.255 L 40.9369,-292.411 L 40.3139,-292.49 L -40.3139,-292.49 L -40.9369,-292.411 L -41.5451,-292.255
 L -42.1289,-292.024 L -42.6791,-291.722 L -43.1871,-291.353 L -43.5,-291.059 L -43.5,-292.49 L -46.5,-292.49
 L -46.5,-247.51 L -43.5,-247.51 z
M -39.7512,-249.008 L -40.2495,-249.071 L -40.7361,-249.196 L -41.2031,-249.381 L -41.6433,-249.623 L -42.0497,-249.918
 L -42.4159,-250.262 L -42.7361,-250.649 L -43.0052,-251.073 L -43.2191,-251.528 L -43.3743,-252.005 L -43.4685,-252.499
 L -43.5,-253 L -43.5,-287 L -43.4685,-287.501 L -43.3743,-287.995 L -43.2191,-288.472 L -43.0052,-288.927
 L -42.7361,-289.351 L -42.4159,-289.738 L -42.0497,-290.082 L -41.6433,-290.377 L -41.2031,-290.619 L -40.7361,-290.804
 L -40.2495,-290.929 L -39.7512,-290.992 L 39.7512,-290.992 L 40.2495,-290.929 L 40.7361,-290.804 L 41.2031,-290.619
 L 41.6433,-290.377 L 42.0497,-290.082 L 42.4159,-289.738 L 42.7361,-289.351 L 43.0052,-288.927 L 43.2191,-288.472
 L 43.3743,-287.995 L 43.4685,-287.501 L 43.5,-287 L 43.5,-253 L 43.4685,-252.499 L 43.3743,-252.005
 L 43.2191,-251.528 L 43.0052,-251.073 L 42.7361,-250.649 L 42.4159,-250.262 L 42.0497,-249.918 L 41.6433,-249.623
 L 41.2031,-249.381 L 40.7361,-249.196 L 40.2495,-249.071 L 39.7512,-249.008 z
M 40.9369,-193.589 L 41.5451,-193.745 L 42.1289,-193.976 L 42.6791,-194.278 L 43.1871,-194.647 L 43.6448,-195.077
 L 44.0451,-195.561 L 44.3815,-196.091 L 44.6489,-196.659 L 44.8429,-197.257 L 44.9606,-197.873 L 45,-198.5
 L 45,-233.5 L 44.9606,-234.127 L 44.8429,-234.743 L 44.6489,-235.341 L 44.3815,-235.909 L 44.0451,-236.439
 L 43.6448,-236.923 L 43.1871,-237.353 L 42.6791,-237.722 L 42.1289,-238.024 L 41.5451,-238.255 L 40.9369,-238.411
 L 40.3139,-238.49 L -40.3139,-238.49 L -40.9369,-238.411 L -41.5451,-238.255 L -42.1289,-238.024 L -42.6791,-237.722
 L -43.1871,-237.353 L -43.5,-237.059 L -43.5,-238.479 L -46.5,-238.479 L -46.5,-193.521 L -43.5,-193.521
 L -43.5,-194.941 L -43.1871,-194.647 L -42.6791,-194.278 L -42.1289,-193.976 L -41.5451,-193.745 L -40.9369,-193.589
 L -40.3139,-193.51 L 40.3139,-193.51 z
M -39.6954,-195.893 L -40.0833,-195.942 L -40.4619,-196.039 L -40.8254,-196.183 L -41.168,-196.372 L -41.4842,-196.601
 L -41.7692,-196.869 L -42.0184,-197.17 L -42.2279,-197.5 L -42.3943,-197.854 L -42.5151,-198.226 L -42.5884,-198.61
 L -42.6129,-199 L -42.6129,-233 L -42.5884,-233.39 L -42.5151,-233.774 L -42.3943,-234.146 L -42.2279,-234.5
 L -42.0184,-234.83 L -41.7692,-235.131 L -41.4842,-235.399 L -41.168,-235.628 L -40.8254,-235.817 L -40.4619,-235.961
 L -40.0833,-236.058 L -39.6954,-236.107 L 39.6954,-236.107 L 40.0833,-236.058 L 40.4619,-235.961 L 40.8254,-235.817
 L 41.168,-235.628 L 41.4842,-235.399 L 41.7692,-235.131 L 42.0184,-234.83 L 42.2279,-234.5 L 42.3943,-234.146
 L 42.5151,-233.774 L 42.5884,-233.39 L 42.6129,-233 L 42.6129,-199 L 42.5884,-198.61 L 42.5151,-198.226
 L 42.3943,-197.854 L 42.2279,-197.5 L 42.0184,-197.17 L 41.7692,-196.869 L 41.4842,-196.601 L 41.168,-196.372
 L 40.8254,-196.183 L 40.4619,-196.039 L 40.0833,-195.942 L 39.6954,-195.893 z
M 40.9369,-139.589 L 41.5451,-139.745 L 42.1289,-139.976 L 42.6791,-140.278 L 43.1871,-140.647 L 43.6448,-141.077
 L 44.0451,-141.561 L 44.3815,-142.091 L 44.6489,-142.659 L 44.8429,-143.257 L 44.9606,-143.873 L 45,-144.5
 L 45,-179.5 L 44.9606,-180.127 L 44.8429,-180.743 L 44.6489,-181.341 L 44.3815,-181.909 L 44.0451,-182.439
 L 43.6448,-182.923 L 43.1871,-183.353 L 42.6791,-183.722 L 42.1289,-184.024 L 41.5451,-184.255 L 40.9369,-184.411
 L 40.3139,-184.49 L -40.3139,-184.49 L -40.9369,-184.411 L -41.5451,-184.255 L -42.1289,-184.024 L -42.6791,-183.722
 L -43.1871,-183.353 L -43.5,-183.059 L -43.5,-183.153 L -46.5,-183.153 L -46.5,-140.847 L -43.5,-140.847
 L -43.5,-140.941 L -43.1871,-140.647 L -42.6791,-140.278 L -42.1289,-139.976 L -41.5451,-139.745 L -40.9369,-139.589
 L -40.3139,-139.51 L 40.3139,-139.51 z
M 37.3659,-174.869 L 37.0999,-174.903 L 36.8401,-174.969 L 36.5908,-175.068 L 36.3559,-175.197 L 36.1389,-175.355
 L 35.9434,-175.538 L 35.7725,-175.745 L 35.6288,-175.971 L 35.5146,-176.214 L 35.4318,-176.469 L 35.3815,-176.732
 L 35.3647,-177 L 35.3815,-177.268 L 35.4318,-177.531 L 35.5146,-177.786 L 35.6288,-178.029 L 35.7725,-178.255
 L 35.9434,-178.462 L 36.1389,-178.645 L 36.3559,-178.803 L 36.5908,-178.932 L 36.8401,-179.031 L 37.0999,-179.097
 L 37.3659,-179.131 L 37.6341,-179.131 L 37.9001,-179.097 L 38.1598,-179.031 L 38.4092,-178.932 L 38.6441,-178.803
 L 38.8611,-178.645 L 39.0565,-178.462 L 39.2275,-178.255 L 39.3712,-178.029 L 39.4853,-177.786 L 39.5682,-177.531
 L 39.6185,-177.268 L 39.6353,-177 L 39.6185,-176.732 L 39.5682,-176.469 L 39.4853,-176.214 L 39.3712,-175.971
 L 39.2275,-175.745 L 39.0565,-175.538 L 38.8611,-175.355 L 38.6441,-175.197 L 38.4092,-175.068 L 38.1598,-174.969
 L 37.9001,-174.903 L 37.6341,-174.869 z
M -37.6341,-174.869 L -37.9001,-174.903 L -38.1598,-174.969 L -38.4092,-175.068 L -38.6441,-175.197 L -38.8611,-175.355
 L -39.0565,-175.538 L -39.2275,-175.745 L -39.3712,-175.971 L -39.4853,-176.214 L -39.5682,-176.469 L -39.6185,-176.732
 L -39.6353,-177 L -39.6185,-177.268 L -39.5682,-177.531 L -39.4853,-177.786 L -39.3712,-178.029 L -39.2275,-178.255
 L -39.0565,-178.462 L -38.8611,-178.645 L -38.6441,-178.803 L -38.4092,-178.932 L -38.1598,-179.031 L -37.9001,-179.097
 L -37.6341,-179.131 L -37.3659,-179.131 L -37.0999,-179.097 L -36.8401,-179.031 L -36.5908,-178.932 L -36.3559,-178.803
 L -36.1389,-178.645 L -35.9434,-178.462 L -35.7725,-178.255 L -35.6288,-178.029 L -35.5146,-177.786 L -35.4318,-177.531
 L -35.3815,-177.268 L -35.3647,-177 L -35.3815,-176.732 L -35.4318,-176.469 L -35.5146,-176.214 L -35.6288,-175.971
 L -35.7725,-175.745 L -35.9434,-175.538 L -36.1389,-175.355 L -36.3559,-175.197 L -36.5908,-175.068 L -36.8401,-174.969
 L -37.0999,-174.903 L -37.3659,-174.869 z
M 37.3659,-144.869 L 37.0999,-144.903 L 36.8401,-144.969 L 36.5908,-145.068 L 36.3559,-145.197 L 36.1389,-145.355
 L 35.9434,-145.538 L 35.7725,-145.745 L 35.6288,-145.971 L 35.5146,-146.214 L 35.4318,-146.469 L 35.3815,-146.732
 L 35.3647,-147 L 35.3815,-147.268 L 35.4318,-147.531 L 35.5146,-147.786 L 35.6288,-148.029 L 35.7725,-148.255
 L 35.9434,-148.462 L 36.1389,-148.645 L 36.3559,-148.803 L 36.5908,-148.932 L 36.8401,-149.031 L 37.0999,-149.097
 L 37.3659,-149.131 L 37.6341,-149.131 L 37.9001,-149.097 L 38.1598,-149.031 L 38.4092,-148.932 L 38.6441,-148.803
 L 38.8611,-148.645 L 39.0565,-148.462 L 39.2275,-148.255 L 39.3712,-148.029 L 39.4853,-147.786 L 39.5682,-147.531
 L 39.6185,-147.268 L 39.6353,-147 L 39.6185,-146.732 L 39.5682,-146.469 L 39.4853,-146.214 L 39.3712,-145.971
 L 39.2275,-145.745 L 39.0565,-145.538 L 38.8611,-145.355 L 38.6441,-145.197 L 38.4092,-145.068 L 38.1598,-144.969
 L 37.9001,-144.903 L 37.6341,-144.869 z
M -37.6341,-144.869 L -37.9001,-144.903 L -38.1598,-144.969 L -38.4092,-145.068 L -38.6441,-145.197 L -38.8611,-145.355
 L -39.0565,-145.538 L -39.2275,-145.745 L -39.3712,-145.971 L -39.4853,-146.214 L -39.5682,-146.469 L -39.6185,-146.732
 L -39.6353,-147 L -39.6185,-147.268 L -39.5682,-147.531 L -39.4853,-147.786 L -39.3712,-148.029 L -39.2275,-148.255
 L -39.0565,-148.462 L -38.8611,-148.645 L -38.6441,-148.803 L -38.4092,-148.932 L -38.1598,-149.031 L -37.9001,-149.097
 L -37.6341,-149.131 L -37.3659,-149.131 L -37.0999,-149.097 L -36.8401,-149.031 L -36.5908,-148.932 L -36.3559,-148.803
 L -36.1389,-148.645 L -35.9434,-148.462 L -35.7725,-148.255 L -35.6288,-148.029 L -35.5146,-147.786 L -35.4318,-147.531
 L -35.3815,-147.268 L -35.3647,-147 L -35.3815,-146.732 L -35.4318,-146.469 L -35.5146,-146.214 L -35.6288,-145.971
 L -35.7725,-145.745 L -35.9434,-145.538 L -36.1389,-145.355 L -36.3559,-145.197 L -36.5908,-145.068 L -36.8401,-144.969
 L -37.0999,-144.903 L -37.3659,-144.869 z
" stroke="black" fill="lightgray" stroke-width="0.5"/>
</svg>
