  0
SECTION
  2
BLOCKS
  0
ENDSEC
  0
SECTION
  2
ENTITIES
  0
LINE
  8
0
 10
10.9369
 20
517.589
 11
11.5451
 21
517.745
  0
LINE
  8
0
 10
11.5451
 20
517.745
 11
12.1289
 21
517.976
  0
LINE
  8
0
 10
12.1289
 20
517.976
 11
12.6791
 21
518.278
  0
LINE
  8
0
 10
12.6791
 20
518.278
 11
13.1871
 21
518.647
  0
LINE
  8
0
 10
13.1871
 20
518.647
 11
13.6448
 21
519.077
  0
LINE
  8
0
 10
13.6448
 20
519.077
 11
14.0451
 21
519.561
  0
LINE
  8
0
 10
14.0451
 20
519.561
 11
14.3815
 21
520.091
  0
LINE
  8
0
 10
14.3815
 20
520.091
 11
14.6489
 21
520.659
  0
LINE
  8
0
 10
14.6489
 20
520.659
 11
14.8429
 21
521.257
  0
LINE
  8
0
 10
14.8429
 20
521.257
 11
14.9606
 21
521.873
  0
LINE
  8
0
 10
14.9606
 20
521.873
 11
15
 21
522.5
  0
LINE
  8
0
 10
15
 20
522.5
 11
15
 21
617.5
  0
LINE
  8
0
 10
15
 20
617.5
 11
14.9606
 21
618.127
  0
LINE
  8
0
 10
14.9606
 20
618.127
 11
14.8429
 21
618.743
  0
LINE
  8
0
 10
14.8429
 20
618.743
 11
14.6489
 21
619.341
  0
LINE
  8
0
 10
14.6489
 20
619.341
 11
14.3815
 21
619.909
  0
LINE
  8
0
 10
14.3815
 20
619.909
 11
14.0451
 21
620.439
  0
LINE
  8
0
 10
14.0451
 20
620.439
 11
13.6448
 21
620.923
  0
LINE
  8
0
 10
13.6448
 20
620.923
 11
13.1871
 21
621.353
  0
LINE
  8
0
 10
13.1871
 20
621.353
 11
12.6791
 21
621.722
  0
LINE
  8
0
 10
12.6791
 20
621.722
 11
12.1289
 21
622.024
  0
LINE
  8
0
 10
12.1289
 20
622.024
 11
11.5451
 21
622.255
  0
LINE
  8
0
 10
11.5451
 20
622.255
 11
10.9369
 21
622.411
  0
LINE
  8
0
 10
10.9369
 20
622.411
 11
10.3139
 21
622.49
  0
LINE
  8
0
 10
10.3139
 20
622.49
 11
-10.3139
 21
622.49
  0
LINE
  8
0
 10
-10.3139
 20
622.49
 11
-10.9369
 21
622.411
  0
LINE
  8
0
 10
-10.9369
 20
622.411
 11
-11.5451
 21
622.255
  0
LINE
  8
0
 10
-11.5451
 20
622.255
 11
-12.1289
 21
622.024
  0
LINE
  8
0
 10
-12.1289
 20
622.024
 11
-12.6791
 21
621.722
  0
LINE
  8
0
 10
-12.6791
 20
621.722
 11
-13.1871
 21
621.353
  0
LINE
  8
0
 10
-13.1871
 20
621.353
 11
-13.6448
 21
620.923
  0
LINE
  8
0
 10
-13.6448
 20
620.923
 11
-14.0451
 21
620.439
  0
LINE
  8
0
 10
-14.0451
 20
620.439
 11
-14.3815
 21
619.909
  0
LINE
  8
0
 10
-14.3815
 20
619.909
 11
-14.6489
 21
619.341
  0
LINE
  8
0
 10
-14.6489
 20
619.341
 11
-14.8429
 21
618.743
  0
LINE
  8
0
 10
-14.8429
 20
618.743
 11
-14.9606
 21
618.127
  0
LINE
  8
0
 10
-14.9606
 20
618.127
 11
-15
 21
617.5
  0
LINE
  8
0
 10
-15
 20
617.5
 11
-15
 21
522.5
  0
LINE
  8
0
 10
-15
 20
522.5
 11
-14.9606
 21
521.873
  0
LINE
  8
0
 10
-14.9606
 20
521.873
 11
-14.8429
 21
521.257
  0
LINE
  8
0
 10
-14.8429
 20
521.257
 11
-14.6489
 21
520.659
  0
LINE
  8
0
 10
-14.6489
 20
520.659
 11
-14.3815
 21
520.091
  0
LINE
  8
0
 10
-14.3815
 20
520.091
 11
-14.0451
 21
519.561
  0
LINE
  8
0
 10
-14.0451
 20
519.561
 11
-13.6448
 21
519.077
  0
LINE
  8
0
 10
-13.6448
 20
519.077
 11
-13.1871
 21
518.647
  0
LINE
  8
0
 10
-13.1871
 20
518.647
 11
-12.6791
 21
518.278
  0
LINE
  8
0
 10
-12.6791
 20
518.278
 11
-12.1289
 21
517.976
  0
LINE
  8
0
 10
-12.1289
 20
517.976
 11
-11.5451
 21
517.745
  0
LINE
  8
0
 10
-11.5451
 20
517.745
 11
-10.9369
 21
517.589
  0
LINE
  8
0
 10
-10.9369
 20
517.589
 11
-10.3139
 21
517.51
  0
LINE
  8
0
 10
-10.3139
 20
517.51
 11
10.3139
 21
517.51
  0
LINE
  8
0
 10
10.3139
 20
517.51
 11
10.9369
 21
517.589
  0
LINE
  8
0
 10
-9.75116
 20
519.008
 11
-10.2495
 21
519.071
  0
LINE
  8
0
 10
-10.2495
 20
519.071
 11
-10.7361
 21
519.196
  0
LINE
  8
0
 10
-10.7361
 20
519.196
 11
-11.2031
 21
519.381
  0
LINE
  8
0
 10
-11.2031
 20
519.381
 11
-11.6433
 21
519.623
  0
LINE
  8
0
 10
-11.6433
 20
519.623
 11
-12.0497
 21
519.918
  0
LINE
  8
0
 10
-12.0497
 20
519.918
 11
-12.4159
 21
520.262
  0
LINE
  8
0
 10
-12.4159
 20
520.262
 11
-12.7361
 21
520.649
  0
LINE
  8
0
 10
-12.7361
 20
520.649
 11
-13.0052
 21
521.073
  0
LINE
  8
0
 10
-13.0052
 20
521.073
 11
-13.2191
 21
521.528
  0
LINE
  8
0
 10
-13.2191
 20
521.528
 11
-13.3743
 21
522.005
  0
LINE
  8
0
 10
-13.3743
 20
522.005
 11
-13.4684
 21
522.499
  0
LINE
  8
0
 10
-13.4684
 20
522.499
 11
-13.5
 21
523
  0
LINE
  8
0
 10
-13.5
 20
523
 11
-13.5
 21
617
  0
LINE
  8
0
 10
-13.5
 20
617
 11
-13.4684
 21
617.501
  0
LINE
  8
0
 10
-13.4684
 20
617.501
 11
-13.3743
 21
617.995
  0
LINE
  8
0
 10
-13.3743
 20
617.995
 11
-13.2191
 21
618.472
  0
LINE
  8
0
 10
-13.2191
 20
618.472
 11
-13.0052
 21
618.927
  0
LINE
  8
0
 10
-13.0052
 20
618.927
 11
-12.7361
 21
619.351
  0
LINE
  8
0
 10
-12.7361
 20
619.351
 11
-12.4159
 21
619.738
  0
LINE
  8
0
 10
-12.4159
 20
619.738
 11
-12.0497
 21
620.082
  0
LINE
  8
0
 10
-12.0497
 20
620.082
 11
-11.6433
 21
620.377
  0
LINE
  8
0
 10
-11.6433
 20
620.377
 11
-11.2031
 21
620.619
  0
LINE
  8
0
 10
-11.2031
 20
620.619
 11
-10.7361
 21
620.804
  0
LINE
  8
0
 10
-10.7361
 20
620.804
 11
-10.2495
 21
620.929
  0
LINE
  8
0
 10
-10.2495
 20
620.929
 11
-9.75116
 21
620.992
  0
LINE
  8
0
 10
-9.75116
 20
620.992
 11
9.75116
 21
620.992
  0
LINE
  8
0
 10
9.75116
 20
620.992
 11
10.2495
 21
620.929
  0
LINE
  8
0
 10
10.2495
 20
620.929
 11
10.7361
 21
620.804
  0
LINE
  8
0
 10
10.7361
 20
620.804
 11
11.2031
 21
620.619
  0
LINE
  8
0
 10
11.2031
 20
620.619
 11
11.6433
 21
620.377
  0
LINE
  8
0
 10
11.6433
 20
620.377
 11
12.0497
 21
620.082
  0
LINE
  8
0
 10
12.0497
 20
620.082
 11
12.4159
 21
619.738
  0
LINE
  8
0
 10
12.4159
 20
619.738
 11
12.7361
 21
619.351
  0
LINE
  8
0
 10
12.7361
 20
619.351
 11
13.0052
 21
618.927
  0
LINE
  8
0
 10
13.0052
 20
618.927
 11
13.2191
 21
618.472
  0
LINE
  8
0
 10
13.2191
 20
618.472
 11
13.3743
 21
617.995
  0
LINE
  8
0
 10
13.3743
 20
617.995
 11
13.4684
 21
617.501
  0
LINE
  8
0
 10
13.4684
 20
617.501
 11
13.5
 21
617
  0
LINE
  8
0
 10
13.5
 20
617
 11
13.5
 21
523
  0
LINE
  8
0
 10
13.5
 20
523
 11
13.4684
 21
522.499
  0
LINE
  8
0
 10
13.4684
 20
522.499
 11
13.3743
 21
522.005
  0
LINE
  8
0
 10
13.3743
 20
522.005
 11
13.2191
 21
521.528
  0
LINE
  8
0
 10
13.2191
 20
521.528
 11
13.0052
 21
521.073
  0
LINE
  8
0
 10
13.0052
 20
521.073
 11
12.7361
 21
520.649
  0
LINE
  8
0
 10
12.7361
 20
520.649
 11
12.4159
 21
520.262
  0
LINE
  8
0
 10
12.4159
 20
520.262
 11
12.0497
 21
519.918
  0
LINE
  8
0
 10
12.0497
 20
519.918
 11
11.6433
 21
519.623
  0
LINE
  8
0
 10
11.6433
 20
519.623
 11
11.2031
 21
519.381
  0
LINE
  8
0
 10
11.2031
 20
519.381
 11
10.7361
 21
519.196
  0
LINE
  8
0
 10
10.7361
 20
519.196
 11
10.2495
 21
519.071
  0
LINE
  8
0
 10
10.2495
 20
519.071
 11
9.75116
 21
519.008
  0
LINE
  8
0
 10
9.75116
 20
519.008
 11
-9.75116
 21
519.008
  0
LINE
  8
0
 10
10.9369
 20
403.589
 11
11.5451
 21
403.745
  0
LINE
  8
0
 10
11.5451
 20
403.745
 11
12.1289
 21
403.976
  0
LINE
  8
0
 10
12.1289
 20
403.976
 11
12.6791
 21
404.278
  0
LINE
  8
0
 10
12.6791
 20
404.278
 11
13.1871
 21
404.647
  0
LINE
  8
0
 10
13.1871
 20
404.647
 11
13.6448
 21
405.077
  0
LINE
  8
0
 10
13.6448
 20
405.077
 11
14.0451
 21
405.561
  0
LINE
  8
0
 10
14.0451
 20
405.561
 11
14.3815
 21
406.091
  0
LINE
  8
0
 10
14.3815
 20
406.091
 11
14.6489
 21
406.659
  0
LINE
  8
0
 10
14.6489
 20
406.659
 11
14.8429
 21
407.257
  0
LINE
  8
0
 10
14.8429
 20
407.257
 11
14.9606
 21
407.873
  0
LINE
  8
0
 10
14.9606
 20
407.873
 11
15
 21
408.5
  0
LINE
  8
0
 10
15
 20
408.5
 11
15
 21
503.5
  0
LINE
  8
0
 10
15
 20
503.5
 11
14.9606
 21
504.127
  0
LINE
  8
0
 10
14.9606
 20
504.127
 11
14.8429
 21
504.743
  0
LINE
  8
0
 10
14.8429
 20
504.743
 11
14.6489
 21
505.341
  0
LINE
  8
0
 10
14.6489
 20
505.341
 11
14.3815
 21
505.909
  0
LINE
  8
0
 10
14.3815
 20
505.909
 11
14.0451
 21
506.439
  0
LINE
  8
0
 10
14.0451
 20
506.439
 11
13.6448
 21
506.923
  0
LINE
  8
0
 10
13.6448
 20
506.923
 11
13.1871
 21
507.353
  0
LINE
  8
0
 10
13.1871
 20
507.353
 11
12.6791
 21
507.722
  0
LINE
  8
0
 10
12.6791
 20
507.722
 11
12.1289
 21
508.024
  0
LINE
  8
0
 10
12.1289
 20
508.024
 11
11.5451
 21
508.255
  0
LINE
  8
0
 10
11.5451
 20
508.255
 11
10.9369
 21
508.411
  0
LINE
  8
0
 10
10.9369
 20
508.411
 11
10.3139
 21
508.49
  0
LINE
  8
0
 10
10.3139
 20
508.49
 11
-10.3139
 21
508.49
  0
LINE
  8
0
 10
-10.3139
 20
508.49
 11
-10.9369
 21
508.411
  0
LINE
  8
0
 10
-10.9369
 20
508.411
 11
-11.5451
 21
508.255
  0
LINE
  8
0
 10
-11.5451
 20
508.255
 11
-12.1289
 21
508.024
  0
LINE
  8
0
 10
-12.1289
 20
508.024
 11
-12.6791
 21
507.722
  0
LINE
  8
0
 10
-12.6791
 20
507.722
 11
-13.1871
 21
507.353
  0
LINE
  8
0
 10
-13.1871
 20
507.353
 11
-13.6448
 21
506.923
  0
LINE
  8
0
 10
-13.6448
 20
506.923
 11
-14.0451
 21
506.439
  0
LINE
  8
0
 10
-14.0451
 20
506.439
 11
-14.3815
 21
505.909
  0
LINE
  8
0
 10
-14.3815
 20
505.909
 11
-14.6489
 21
505.341
  0
LINE
  8
0
 10
-14.6489
 20
505.341
 11
-14.8429
 21
504.743
  0
LINE
  8
0
 10
-14.8429
 20
504.743
 11
-14.9606
 21
504.127
  0
LINE
  8
0
 10
-14.9606
 20
504.127
 11
-15
 21
503.5
  0
LINE
  8
0
 10
-15
 20
503.5
 11
-15
 21
408.5
  0
LINE
  8
0
 10
-15
 20
408.5
 11
-14.9606
 21
407.873
  0
LINE
  8
0
 10
-14.9606
 20
407.873
 11
-14.8429
 21
407.257
  0
LINE
  8
0
 10
-14.8429
 20
407.257
 11
-14.6489
 21
406.659
  0
LINE
  8
0
 10
-14.6489
 20
406.659
 11
-14.3815
 21
406.091
  0
LINE
  8
0
 10
-14.3815
 20
406.091
 11
-14.0451
 21
405.561
  0
LINE
  8
0
 10
-14.0451
 20
405.561
 11
-13.6448
 21
405.077
  0
LINE
  8
0
 10
-13.6448
 20
405.077
 11
-13.1871
 21
404.647
  0
LINE
  8
0
 10
-13.1871
 20
404.647
 11
-12.6791
 21
404.278
  0
LINE
  8
0
 10
-12.6791
 20
404.278
 11
-12.1289
 21
403.976
  0
LINE
  8
0
 10
-12.1289
 20
403.976
 11
-11.5451
 21
403.745
  0
LINE
  8
0
 10
-11.5451
 20
403.745
 11
-10.9369
 21
403.589
  0
LINE
  8
0
 10
-10.9369
 20
403.589
 11
-10.3139
 21
403.51
  0
LINE
  8
0
 10
-10.3139
 20
403.51
 11
10.3139
 21
403.51
  0
LINE
  8
0
 10
10.3139
 20
403.51
 11
10.9369
 21
403.589
  0
LINE
  8
0
 10
-9.69545
 20
405.893
 11
-10.0833
 21
405.942
  0
LINE
  8
0
 10
-10.0833
 20
405.942
 11
-10.4619
 21
406.039
  0
LINE
  8
0
 10
-10.4619
 20
406.039
 11
-10.8254
 21
406.183
  0
LINE
  8
0
 10
-10.8254
 20
406.183
 11
-11.168
 21
406.372
  0
LINE
  8
0
 10
-11.168
 20
406.372
 11
-11.4842
 21
406.601
  0
LINE
  8
0
 10
-11.4842
 20
406.601
 11
-11.7692
 21
406.869
  0
LINE
  8
0
 10
-11.7692
 20
406.869
 11
-12.0184
 21
407.17
  0
LINE
  8
0
 10
-12.0184
 20
407.17
 11
-12.2279
 21
407.5
  0
LINE
  8
0
 10
-12.2279
 20
407.5
 11
-12.3943
 21
407.854
  0
LINE
  8
0
 10
-12.3943
 20
407.854
 11
-12.5151
 21
408.226
  0
LINE
  8
0
 10
-12.5151
 20
408.226
 11
-12.5884
 21
408.61
  0
LINE
  8
0
 10
-12.5884
 20
408.61
 11
-12.6129
 21
409
  0
LINE
  8
0
 10
-12.6129
 20
409
 11
-12.6129
 21
503
  0
LINE
  8
0
 10
-12.6129
 20
503
 11
-12.5884
 21
503.39
  0
LINE
  8
0
 10
-12.5884
 20
503.39
 11
-12.5151
 21
503.774
  0
LINE
  8
0
 10
-12.5151
 20
503.774
 11
-12.3943
 21
504.146
  0
LINE
  8
0
 10
-12.3943
 20
504.146
 11
-12.2279
 21
504.5
  0
LINE
  8
0
 10
-12.2279
 20
504.5
 11
-12.0184
 21
504.83
  0
LINE
  8
0
 10
-12.0184
 20
504.83
 11
-11.7692
 21
505.131
  0
LINE
  8
0
 10
-11.7692
 20
505.131
 11
-11.4842
 21
505.399
  0
LINE
  8
0
 10
-11.4842
 20
505.399
 11
-11.168
 21
505.628
  0
LINE
  8
0
 10
-11.168
 20
505.628
 11
-10.8254
 21
505.817
  0
LINE
  8
0
 10
-10.8254
 20
505.817
 11
-10.4619
 21
505.961
  0
LINE
  8
0
 10
-10.4619
 20
505.961
 11
-10.0833
 21
506.058
  0
LINE
  8
0
 10
-10.0833
 20
506.058
 11
-9.69545
 21
506.107
  0
LINE
  8
0
 10
-9.69545
 20
506.107
 11
9.69545
 21
506.107
  0
LINE
  8
0
 10
9.69545
 20
506.107
 11
10.0833
 21
506.058
  0
LINE
  8
0
 10
10.0833
 20
506.058
 11
10.4619
 21
505.961
  0
LINE
  8
0
 10
10.4619
 20
505.961
 11
10.8254
 21
505.817
  0
LINE
  8
0
 10
10.8254
 20
505.817
 11
11.168
 21
505.628
  0
LINE
  8
0
 10
11.168
 20
505.628
 11
11.4842
 21
505.399
  0
LINE
  8
0
 10
11.4842
 20
505.399
 11
11.7692
 21
505.131
  0
LINE
  8
0
 10
11.7692
 20
505.131
 11
12.0184
 21
504.83
  0
LINE
  8
0
 10
12.0184
 20
504.83
 11
12.2279
 21
504.5
  0
LINE
  8
0
 10
12.2279
 20
504.5
 11
12.3943
 21
504.146
  0
LINE
  8
0
 10
12.3943
 20
504.146
 11
12.5151
 21
503.774
  0
LINE
  8
0
 10
12.5151
 20
503.774
 11
12.5884
 21
503.39
  0
LINE
  8
0
 10
12.5884
 20
503.39
 11
12.6129
 21
503
  0
LINE
  8
0
 10
12.6129
 20
503
 11
12.6129
 21
409
  0
LINE
  8
0
 10
12.6129
 20
409
 11
12.5884
 21
408.61
  0
LINE
  8
0
 10
12.5884
 20
408.61
 11
12.5151
 21
408.226
  0
LINE
  8
0
 10
12.5151
 20
408.226
 11
12.3943
 21
407.854
  0
LINE
  8
0
 10
12.3943
 20
407.854
 11
12.2279
 21
407.5
  0
LINE
  8
0
 10
12.2279
 20
407.5
 11
12.0184
 21
407.17
  0
LINE
  8
0
 10
12.0184
 20
407.17
 11
11.7692
 21
406.869
  0
LINE
  8
0
 10
11.7692
 20
406.869
 11
11.4842
 21
406.601
  0
LINE
  8
0
 10
11.4842
 20
406.601
 11
11.168
 21
406.372
  0
LINE
  8
0
 10
11.168
 20
406.372
 11
10.8254
 21
406.183
  0
LINE
  8
0
 10
10.8254
 20
406.183
 11
10.4619
 21
406.039
  0
LINE
  8
0
 10
10.4619
 20
406.039
 11
10.0833
 21
405.942
  0
LINE
  8
0
 10
10.0833
 20
405.942
 11
9.69545
 21
405.893
  0
LINE
  8
0
 10
9.69545
 20
405.893
 11
-9.69545
 21
405.893
  0
LINE
  8
0
 10
10.9369
 20
289.589
 11
11.5451
 21
289.745
  0
LINE
  8
0
 10
11.5451
 20
289.745
 11
12.1289
 21
289.976
  0
LINE
  8
0
 10
12.1289
 20
289.976
 11
12.6791
 21
290.278
  0
LINE
  8
0
 10
12.6791
 20
290.278
 11
13.1871
 21
290.647
  0
LINE
  8
0
 10
13.1871
 20
290.647
 11
13.6448
 21
291.077
  0
LINE
  8
0
 10
13.6448
 20
291.077
 11
14.0451
 21
291.561
  0
LINE
  8
0
 10
14.0451
 20
291.561
 11
14.3815
 21
292.091
  0
LINE
  8
0
 10
14.3815
 20
292.091
 11
14.6489
 21
292.659
  0
LINE
  8
0
 10
14.6489
 20
292.659
 11
14.8429
 21
293.257
  0
LINE
  8
0
 10
14.8429
 20
293.257
 11
14.9606
 21
293.873
  0
LINE
  8
0
 10
14.9606
 20
293.873
 11
15
 21
294.5
  0
LINE
  8
0
 10
15
 20
294.5
 11
15
 21
389.5
  0
LINE
  8
0
 10
15
 20
389.5
 11
14.9606
 21
390.127
  0
LINE
  8
0
 10
14.9606
 20
390.127
 11
14.8429
 21
390.743
  0
LINE
  8
0
 10
14.8429
 20
390.743
 11
14.6489
 21
391.341
  0
LINE
  8
0
 10
14.6489
 20
391.341
 11
14.3815
 21
391.909
  0
LINE
  8
0
 10
14.3815
 20
391.909
 11
14.0451
 21
392.439
  0
LINE
  8
0
 10
14.0451
 20
392.439
 11
13.6448
 21
392.923
  0
LINE
  8
0
 10
13.6448
 20
392.923
 11
13.1871
 21
393.353
  0
LINE
  8
0
 10
13.1871
 20
393.353
 11
12.6791
 21
393.722
  0
LINE
  8
0
 10
12.6791
 20
393.722
 11
12.1289
 21
394.024
  0
LINE
  8
0
 10
12.1289
 20
394.024
 11
11.5451
 21
394.255
  0
LINE
  8
0
 10
11.5451
 20
394.255
 11
10.9369
 21
394.411
  0
LINE
  8
0
 10
10.9369
 20
394.411
 11
10.3139
 21
394.49
  0
LINE
  8
0
 10
10.3139
 20
394.49
 11
-10.3139
 21
394.49
  0
LINE
  8
0
 10
-10.3139
 20
394.49
 11
-10.9369
 21
394.411
  0
LINE
  8
0
 10
-10.9369
 20
394.411
 11
-11.5451
 21
394.255
  0
LINE
  8
0
 10
-11.5451
 20
394.255
 11
-12.1289
 21
394.024
  0
LINE
  8
0
 10
-12.1289
 20
394.024
 11
-12.6791
 21
393.722
  0
LINE
  8
0
 10
-12.6791
 20
393.722
 11
-13.1871
 21
393.353
  0
LINE
  8
0
 10
-13.1871
 20
393.353
 11
-13.6448
 21
392.923
  0
LINE
  8
0
 10
-13.6448
 20
392.923
 11
-14.0451
 21
392.439
  0
LINE
  8
0
 10
-14.0451
 20
392.439
 11
-14.3815
 21
391.909
  0
LINE
  8
0
 10
-14.3815
 20
391.909
 11
-14.6489
 21
391.341
  0
LINE
  8
0
 10
-14.6489
 20
391.341
 11
-14.8429
 21
390.743
  0
LINE
  8
0
 10
-14.8429
 20
390.743
 11
-14.9606
 21
390.127
  0
LINE
  8
0
 10
-14.9606
 20
390.127
 11
-15
 21
389.5
  0
LINE
  8
0
 10
-15
 20
389.5
 11
-15
 21
294.5
  0
LINE
  8
0
 10
-15
 20
294.5
 11
-14.9606
 21
293.873
  0
LINE
  8
0
 10
-14.9606
 20
293.873
 11
-14.8429
 21
293.257
  0
LINE
  8
0
 10
-14.8429
 20
293.257
 11
-14.6489
 21
292.659
  0
LINE
  8
0
 10
-14.6489
 20
292.659
 11
-14.3815
 21
292.091
  0
LINE
  8
0
 10
-14.3815
 20
292.091
 11
-14.0451
 21
291.561
  0
LINE
  8
0
 10
-14.0451
 20
291.561
 11
-13.6448
 21
291.077
  0
LINE
  8
0
 10
-13.6448
 20
291.077
 11
-13.1871
 21
290.647
  0
LINE
  8
0
 10
-13.1871
 20
290.647
 11
-12.6791
 21
290.278
  0
LINE
  8
0
 10
-12.6791
 20
290.278
 11
-12.1289
 21
289.976
  0
LINE
  8
0
 10
-12.1289
 20
289.976
 11
-11.5451
 21
289.745
  0
LINE
  8
0
 10
-11.5451
 20
289.745
 11
-10.9369
 21
289.589
  0
LINE
  8
0
 10
-10.9369
 20
289.589
 11
-10.3139
 21
289.51
  0
LINE
  8
0
 10
-10.3139
 20
289.51
 11
10.3139
 21
289.51
  0
LINE
  8
0
 10
10.3139
 20
289.51
 11
10.9369
 21
289.589
  0
LINE
  8
0
 10
7.36592
 20
384.869
 11
7.09988
 21
384.903
  0
LINE
  8
0
 10
7.09988
 20
384.903
 11
6.84015
 21
384.969
  0
LINE
  8
0
 10
6.84015
 20
384.969
 11
6.59084
 21
385.068
  0
LINE
  8
0
 10
6.59084
 20
385.068
 11
6.35585
 21
385.197
  0
LINE
  8
0
 10
6.35585
 20
385.197
 11
6.1389
 21
385.355
  0
LINE
  8
0
 10
6.1389
 20
385.355
 11
5.94344
 21
385.538
  0
LINE
  8
0
 10
5.94344
 20
385.538
 11
5.77251
 21
385.745
  0
LINE
  8
0
 10
5.77251
 20
385.745
 11
5.62881
 21
385.971
  0
LINE
  8
0
 10
5.62881
 20
385.971
 11
5.51465
 21
386.214
  0
LINE
  8
0
 10
5.51465
 20
386.214
 11
5.43178
 21
386.469
  0
LINE
  8
0
 10
5.43178
 20
386.469
 11
5.38153
 21
386.732
  0
LINE
  8
0
 10
5.38153
 20
386.732
 11
5.3647
 21
387
  0
LINE
  8
0
 10
5.3647
 20
387
 11
5.38153
 21
387.268
  0
LINE
  8
0
 10
5.38153
 20
387.268
 11
5.43178
 21
387.531
  0
LINE
  8
0
 10
5.43178
 20
387.531
 11
5.51465
 21
387.786
  0
LINE
  8
0
 10
5.51465
 20
387.786
 11
5.62881
 21
388.029
  0
LINE
  8
0
 10
5.62881
 20
388.029
 11
5.77251
 21
388.255
  0
LINE
  8
0
 10
5.77251
 20
388.255
 11
5.94344
 21
388.462
  0
LINE
  8
0
 10
5.94344
 20
388.462
 11
6.1389
 21
388.645
  0
LINE
  8
0
 10
6.1389
 20
388.645
 11
6.35585
 21
388.803
  0
LINE
  8
0
 10
6.35585
 20
388.803
 11
6.59084
 21
388.932
  0
LINE
  8
0
 10
6.59084
 20
388.932
 11
6.84015
 21
389.031
  0
LINE
  8
0
 10
6.84015
 20
389.031
 11
7.09988
 21
389.097
  0
LINE
  8
0
 10
7.09988
 20
389.097
 11
7.36592
 21
389.131
  0
LINE
  8
0
 10
7.36592
 20
389.131
 11
7.63406
 21
389.131
  0
LINE
  8
0
 10
7.63406
 20
389.131
 11
7.9001
 21
389.097
  0
LINE
  8
0
 10
7.9001
 20
389.097
 11
8.15984
 21
389.031
  0
LINE
  8
0
 10
8.15984
 20
389.031
 11
8.40915
 21
388.932
  0
LINE
  8
0
 10
8.40915
 20
388.932
 11
8.64413
 21
388.803
  0
LINE
  8
0
 10
8.64413
 20
388.803
 11
8.86108
 21
388.645
  0
LINE
  8
0
 10
8.86108
 20
388.645
 11
9.05655
 21
388.462
  0
LINE
  8
0
 10
9.05655
 20
388.462
 11
9.22748
 21
388.255
  0
LINE
  8
0
 10
9.22748
 20
388.255
 11
9.37117
 21
388.029
  0
LINE
  8
0
 10
9.37117
 20
388.029
 11
9.48534
 21
387.786
  0
LINE
  8
0
 10
9.48534
 20
387.786
 11
9.56821
 21
387.531
  0
LINE
  8
0
 10
9.56821
 20
387.531
 11
9.61845
 21
387.268
  0
LINE
  8
0
 10
9.61845
 20
387.268
 11
9.63528
 21
387
  0
LINE
  8
0
 10
9.63528
 20
387
 11
9.61845
 21
386.732
  0
LINE
  8
0
 10
9.61845
 20
386.732
 11
9.56821
 21
386.469
  0
LINE
  8
0
 10
9.56821
 20
386.469
 11
9.48534
 21
386.214
  0
LINE
  8
0
 10
9.48534
 20
386.214
 11
9.37117
 21
385.971
  0
LINE
  8
0
 10
9.37117
 20
385.971
 11
9.22748
 21
385.745
  0
LINE
  8
0
 10
9.22748
 20
385.745
 11
9.05655
 21
385.538
  0
LINE
  8
0
 10
9.05655
 20
385.538
 11
8.86108
 21
385.355
  0
LINE
  8
0
 10
8.86108
 20
385.355
 11
8.64413
 21
385.197
  0
LINE
  8
0
 10
8.64413
 20
385.197
 11
8.40915
 21
385.068
  0
LINE
  8
0
 10
8.40915
 20
385.068
 11
8.15984
 21
384.969
  0
LINE
  8
0
 10
8.15984
 20
384.969
 11
7.9001
 21
384.903
  0
LINE
  8
0
 10
7.9001
 20
384.903
 11
7.63406
 21
384.869
  0
LINE
  8
0
 10
7.63406
 20
384.869
 11
7.36592
 21
384.869
  0
LINE
  8
0
 10
-7.63406
 20
384.869
 11
-7.9001
 21
384.903
  0
LINE
  8
0
 10
-7.9001
 20
384.903
 11
-8.15984
 21
384.969
  0
LINE
  8
0
 10
-8.15984
 20
384.969
 11
-8.40915
 21
385.068
  0
LINE
  8
0
 10
-8.40915
 20
385.068
 11
-8.64413
 21
385.197
  0
LINE
  8
0
 10
-8.64413
 20
385.197
 11
-8.86108
 21
385.355
  0
LINE
  8
0
 10
-8.86108
 20
385.355
 11
-9.05655
 21
385.538
  0
LINE
  8
0
 10
-9.05655
 20
385.538
 11
-9.22748
 21
385.745
  0
LINE
  8
0
 10
-9.22748
 20
385.745
 11
-9.37117
 21
385.971
  0
LINE
  8
0
 10
-9.37117
 20
385.971
 11
-9.48534
 21
386.214
  0
LINE
  8
0
 10
-9.48534
 20
386.214
 11
-9.56821
 21
386.469
  0
LINE
  8
0
 10
-9.56821
 20
386.469
 11
-9.61845
 21
386.732
  0
LINE
  8
0
 10
-9.61845
 20
386.732
 11
-9.63528
 21
387
  0
LINE
  8
0
 10
-9.63528
 20
387
 11
-9.61845
 21
387.268
  0
LINE
  8
0
 10
-9.61845
 20
387.268
 11
-9.56821
 21
387.531
  0
LINE
  8
0
 10
-9.56821
 20
387.531
 11
-9.48534
 21
387.786
  0
LINE
  8
0
 10
-9.48534
 20
387.786
 11
-9.37117
 21
388.029
  0
LINE
  8
0
 10
-9.37117
 20
388.029
 11
-9.22748
 21
388.255
  0
LINE
  8
0
 10
-9.22748
 20
388.255
 11
-9.05655
 21
388.462
  0
LINE
  8
0
 10
-9.05655
 20
388.462
 11
-8.86108
 21
388.645
  0
LINE
  8
0
 10
-8.86108
 20
388.645
 11
-8.64413
 21
388.803
  0
LINE
  8
0
 10
-8.64413
 20
388.803
 11
-8.40915
 21
388.932
  0
LINE
  8
0
 10
-8.40915
 20
388.932
 11
-8.15984
 21
389.031
  0
LINE
  8
0
 10
-8.15984
 20
389.031
 11
-7.9001
 21
389.097
  0
LINE
  8
0
 10
-7.9001
 20
389.097
 11
-7.63406
 21
389.131
  0
LINE
  8
0
 10
-7.63406
 20
389.131
 11
-7.36592
 21
389.131
  0
LINE
  8
0
 10
-7.36592
 20
389.131
 11
-7.09988
 21
389.097
  0
LINE
  8
0
 10
-7.09988
 20
389.097
 11
-6.84015
 21
389.031
  0
LINE
  8
0
 10
-6.84015
 20
389.031
 11
-6.59084
 21
388.932
  0
LINE
  8
0
 10
-6.59084
 20
388.932
 11
-6.35585
 21
388.803
  0
LINE
  8
0
 10
-6.35585
 20
388.803
 11
-6.1389
 21
388.645
  0
LINE
  8
0
 10
-6.1389
 20
388.645
 11
-5.94344
 21
388.462
  0
LINE
  8
0
 10
-5.94344
 20
388.462
 11
-5.77251
 21
388.255
  0
LINE
  8
0
 10
-5.77251
 20
388.255
 11
-5.62881
 21
388.029
  0
LINE
  8
0
 10
-5.62881
 20
388.029
 11
-5.51465
 21
387.786
  0
LINE
  8
0
 10
-5.51465
 20
387.786
 11
-5.43178
 21
387.531
  0
LINE
  8
0
 10
-5.43178
 20
387.531
 11
-5.38153
 21
387.268
  0
LINE
  8
0
 10
-5.38153
 20
387.268
 11
-5.3647
 21
387
  0
LINE
  8
0
 10
-5.3647
 20
387
 11
-5.38153
 21
386.732
  0
LINE
  8
0
 10
-5.38153
 20
386.732
 11
-5.43178
 21
386.469
  0
LINE
  8
0
 10
-5.43178
 20
386.469
 11
-5.51465
 21
386.214
  0
LINE
  8
0
 10
-5.51465
 20
386.214
 11
-5.62881
 21
385.971
  0
LINE
  8
0
 10
-5.62881
 20
385.971
 11
-5.77251
 21
385.745
  0
LINE
  8
0
 10
-5.77251
 20
385.745
 11
-5.94344
 21
385.538
  0
LINE
  8
0
 10
-5.94344
 20
385.538
 11
-6.1389
 21
385.355
  0
LINE
  8
0
 10
-6.1389
 20
385.355
 11
-6.35585
 21
385.197
  0
LINE
  8
0
 10
-6.35585
 20
385.197
 11
-6.59084
 21
385.068
  0
LINE
  8
0
 10
-6.59084
 20
385.068
 11
-6.84015
 21
384.969
  0
LINE
  8
0
 10
-6.84015
 20
384.969
 11
-7.09988
 21
384.903
  0
LINE
  8
0
 10
-7.09988
 20
384.903
 11
-7.36592
 21
384.869
  0
LINE
  8
0
 10
-7.36592
 20
384.869
 11
-7.63406
 21
384.869
  0
LINE
  8
0
 10
7.36592
 20
294.869
 11
7.09988
 21
294.903
  0
LINE
  8
0
 10
7.09988
 20
294.903
 11
6.84015
 21
294.969
  0
LINE
  8
0
 10
6.84015
 20
294.969
 11
6.59084
 21
295.068
  0
LINE
  8
0
 10
6.59084
 20
295.068
 11
6.35585
 21
295.197
  0
LINE
  8
0
 10
6.35585
 20
295.197
 11
6.1389
 21
295.355
  0
LINE
  8
0
 10
6.1389
 20
295.355
 11
5.94344
 21
295.538
  0
LINE
  8
0
 10
5.94344
 20
295.538
 11
5.77251
 21
295.745
  0
LINE
  8
0
 10
5.77251
 20
295.745
 11
5.62881
 21
295.971
  0
LINE
  8
0
 10
5.62881
 20
295.971
 11
5.51465
 21
296.214
  0
LINE
  8
0
 10
5.51465
 20
296.214
 11
5.43178
 21
296.469
  0
LINE
  8
0
 10
5.43178
 20
296.469
 11
5.38153
 21
296.732
  0
LINE
  8
0
 10
5.38153
 20
296.732
 11
5.3647
 21
297
  0
LINE
  8
0
 10
5.3647
 20
297
 11
5.38153
 21
297.268
  0
LINE
  8
0
 10
5.38153
 20
297.268
 11
5.43178
 21
297.531
  0
LINE
  8
0
 10
5.43178
 20
297.531
 11
5.51465
 21
297.786
  0
LINE
  8
0
 10
5.51465
 20
297.786
 11
5.62881
 21
298.029
  0
LINE
  8
0
 10
5.62881
 20
298.029
 11
5.77251
 21
298.255
  0
LINE
  8
0
 10
5.77251
 20
298.255
 11
5.94344
 21
298.462
  0
LINE
  8
0
 10
5.94344
 20
298.462
 11
6.1389
 21
298.645
  0
LINE
  8
0
 10
6.1389
 20
298.645
 11
6.35585
 21
298.803
  0
LINE
  8
0
 10
6.35585
 20
298.803
 11
6.59084
 21
298.932
  0
LINE
  8
0
 10
6.59084
 20
298.932
 11
6.84015
 21
299.031
  0
LINE
  8
0
 10
6.84015
 20
299.031
 11
7.09988
 21
299.097
  0
LINE
  8
0
 10
7.09988
 20
299.097
 11
7.36592
 21
299.131
  0
LINE
  8
0
 10
7.36592
 20
299.131
 11
7.63406
 21
299.131
  0
LINE
  8
0
 10
7.63406
 20
299.131
 11
7.9001
 21
299.097
  0
LINE
  8
0
 10
7.9001
 20
299.097
 11
8.15984
 21
299.031
  0
LINE
  8
0
 10
8.15984
 20
299.031
 11
8.40915
 21
298.932
  0
LINE
  8
0
 10
8.40915
 20
298.932
 11
8.64413
 21
298.803
  0
LINE
  8
0
 10
8.64413
 20
298.803
 11
8.86108
 21
298.645
  0
LINE
  8
0
 10
8.86108
 20
298.645
 11
9.05655
 21
298.462
  0
LINE
  8
0
 10
9.05655
 20
298.462
 11
9.22748
 21
298.255
  0
LINE
  8
0
 10
9.22748
 20
298.255
 11
9.37117
 21
298.029
  0
LINE
  8
0
 10
9.37117
 20
298.029
 11
9.48534
 21
297.786
  0
LINE
  8
0
 10
9.48534
 20
297.786
 11
9.56821
 21
297.531
  0
LINE
  8
0
 10
9.56821
 20
297.531
 11
9.61845
 21
297.268
  0
LINE
  8
0
 10
9.61845
 20
297.268
 11
9.63528
 21
297
  0
LINE
  8
0
 10
9.63528
 20
297
 11
9.61845
 21
296.732
  0
LINE
  8
0
 10
9.61845
 20
296.732
 11
9.56821
 21
296.469
  0
LINE
  8
0
 10
9.56821
 20
296.469
 11
9.48534
 21
296.214
  0
LINE
  8
0
 10
9.48534
 20
296.214
 11
9.37117
 21
295.971
  0
LINE
  8
0
 10
9.37117
 20
295.971
 11
9.22748
 21
295.745
  0
LINE
  8
0
 10
9.22748
 20
295.745
 11
9.05655
 21
295.538
  0
LINE
  8
0
 10
9.05655
 20
295.538
 11
8.86108
 21
295.355
  0
LINE
  8
0
 10
8.86108
 20
295.355
 11
8.64413
 21
295.197
  0
LINE
  8
0
 10
8.64413
 20
295.197
 11
8.40915
 21
295.068
  0
LINE
  8
0
 10
8.40915
 20
295.068
 11
8.15984
 21
294.969
  0
LINE
  8
0
 10
8.15984
 20
294.969
 11
7.9001
 21
294.903
  0
LINE
  8
0
 10
7.9001
 20
294.903
 11
7.63406
 21
294.869
  0
LINE
  8
0
 10
7.63406
 20
294.869
 11
7.36592
 21
294.869
  0
LINE
  8
0
 10
-7.63406
 20
294.869
 11
-7.9001
 21
294.903
  0
LINE
  8
0
 10
-7.9001
 20
294.903
 11
-8.15984
 21
294.969
  0
LINE
  8
0
 10
-8.15984
 20
294.969
 11
-8.40915
 21
295.068
  0
LINE
  8
0
 10
-8.40915
 20
295.068
 11
-8.64413
 21
295.197
  0
LINE
  8
0
 10
-8.64413
 20
295.197
 11
-8.86108
 21
295.355
  0
LINE
  8
0
 10
-8.86108
 20
295.355
 11
-9.05655
 21
295.538
  0
LINE
  8
0
 10
-9.05655
 20
295.538
 11
-9.22748
 21
295.745
  0
LINE
  8
0
 10
-9.22748
 20
295.745
 11
-9.37117
 21
295.971
  0
LINE
  8
0
 10
-9.37117
 20
295.971
 11
-9.48534
 21
296.214
  0
LINE
  8
0
 10
-9.48534
 20
296.214
 11
-9.56821
 21
296.469
  0
LINE
  8
0
 10
-9.56821
 20
296.469
 11
-9.61845
 21
296.732
  0
LINE
  8
0
 10
-9.61845
 20
296.732
 11
-9.63528
 21
297
  0
LINE
  8
0
 10
-9.63528
 20
297
 11
-9.61845
 21
297.268
  0
LINE
  8
0
 10
-9.61845
 20
297.268
 11
-9.56821
 21
297.531
  0
LINE
  8
0
 10
-9.56821
 20
297.531
 11
-9.48534
 21
297.786
  0
LINE
  8
0
 10
-9.48534
 20
297.786
 11
-9.37117
 21
298.029
  0
LINE
  8
0
 10
-9.37117
 20
298.029
 11
-9.22748
 21
298.255
  0
LINE
  8
0
 10
-9.22748
 20
298.255
 11
-9.05655
 21
298.462
  0
LINE
  8
0
 10
-9.05655
 20
298.462
 11
-8.86108
 21
298.645
  0
LINE
  8
0
 10
-8.86108
 20
298.645
 11
-8.64413
 21
298.803
  0
LINE
  8
0
 10
-8.64413
 20
298.803
 11
-8.40915
 21
298.932
  0
LINE
  8
0
 10
-8.40915
 20
298.932
 11
-8.15984
 21
299.031
  0
LINE
  8
0
 10
-8.15984
 20
299.031
 11
-7.9001
 21
299.097
  0
LINE
  8
0
 10
-7.9001
 20
299.097
 11
-7.63406
 21
299.131
  0
LINE
  8
0
 10
-7.63406
 20
299.131
 11
-7.36592
 21
299.131
  0
LINE
  8
0
 10
-7.36592
 20
299.131
 11
-7.09988
 21
299.097
  0
LINE
  8
0
 10
-7.09988
 20
299.097
 11
-6.84015
 21
299.031
  0
LINE
  8
0
 10
-6.84015
 20
299.031
 11
-6.59084
 21
298.932
  0
LINE
  8
0
 10
-6.59084
 20
298.932
 11
-6.35585
 21
298.803
  0
LINE
  8
0
 10
-6.35585
 20
298.803
 11
-6.1389
 21
298.645
  0
LINE
  8
0
 10
-6.1389
 20
298.645
 11
-5.94344
 21
298.462
  0
LINE
  8
0
 10
-5.94344
 20
298.462
 11
-5.77251
 21
298.255
  0
LINE
  8
0
 10
-5.77251
 20
298.255
 11
-5.62881
 21
298.029
  0
LINE
  8
0
 10
-5.62881
 20
298.029
 11
-5.51465
 21
297.786
  0
LINE
  8
0
 10
-5.51465
 20
297.786
 11
-5.43178
 21
297.531
  0
LINE
  8
0
 10
-5.43178
 20
297.531
 11
-5.38153
 21
297.268
  0
LINE
  8
0
 10
-5.38153
 20
297.268
 11
-5.3647
 21
297
  0
LINE
  8
0
 10
-5.3647
 20
297
 11
-5.38153
 21
296.732
  0
LINE
  8
0
 10
-5.38153
 20
296.732
 11
-5.43178
 21
296.469
  0
LINE
  8
0
 10
-5.43178
 20
296.469
 11
-5.51465
 21
296.214
  0
LINE
  8
0
 10
-5.51465
 20
296.214
 11
-5.62881
 21
295.971
  0
LINE
  8
0
 10
-5.62881
 20
295.971
 11
-5.77251
 21
295.745
  0
LINE
  8
0
 10
-5.77251
 20
295.745
 11
-5.94344
 21
295.538
  0
LINE
  8
0
 10
-5.94344
 20
295.538
 11
-6.1389
 21
295.355
  0
LINE
  8
0
 10
-6.1389
 20
295.355
 11
-6.35585
 21
295.197
  0
LINE
  8
0
 10
-6.35585
 20
295.197
 11
-6.59084
 21
295.068
  0
LINE
  8
0
 10
-6.59084
 20
295.068
 11
-6.84015
 21
294.969
  0
LINE
  8
0
 10
-6.84015
 20
294.969
 11
-7.09988
 21
294.903
  0
LINE
  8
0
 10
-7.09988
 20
294.903
 11
-7.36592
 21
294.869
  0
LINE
  8
0
 10
-7.36592
 20
294.869
 11
-7.63406
 21
294.869
  0
ENDSEC
  0
SECTION
  2
OBJECTS
  0
DICTIONARY
  0
ENDSEC
  0
EOF
