<?xml version="1.0" standalone="no"?>
<!DOCTYPE svg PUBLIC "-//W3C//DTD SVG 1.1//EN" "http://www.w3.org/Graphics/SVG/1.1/DTD/svg11.dtd">
<svg width="30mm" height="334mm" viewBox="-15 -623 30 334" xmlns="http://www.w3.org/2000/svg" version="1.1">
<title>OpenSCAD Model</title>
<path d="
M 10.9369,-517.589 L 11.5451,-517.745 L 12.1289,-517.976 L 12.6791,-518.278 L 13.1871,-518.647 L 13.6448,-519.077
 L 14.0451,-519.561 L 14.3815,-520.091 L 14.6489,-520.659 L 14.8429,-521.257 L 14.9606,-521.873 L 15,-522.5
 L 15,-617.5 L 14.9606,-618.127 L 14.8429,-618.743 L 14.6489,-619.341 L 14.3815,-619.909 L 14.0451,-620.439
 L 13.6448,-620.923 L 13.1871,-621.353 L 12.6791,-621.722 L 12.1289,-622.024 L 11.5451,-622.255 L 10.9369,-622.411
 L 10.3139,-622.49 L -10.3139,-622.49 L -10.9369,-622.411 L -11.5451,-622.255 L -12.1289,-622.024 L -12.6791,-621.722
 L -13.1871,-621.353 L -13.6448,-620.923 L -14.0451,-620.439 L -14.3815,-619.909 L -14.6489,-619.341 L -14.8429,-618.743
 L -14.9606,-618.127 L -15,-617.5 L -15,-522.5 L -14.9606,-521.873 L -14.8429,-521.257 L -14.6489,-520.659
 L -14.3815,-520.091 L -14.0451,-519.561 L -13.6448,-519.077 L -13.1871,-518.647 L -12.6791,-518.278 L -12.1289,-517.976
 L -11.5451,-517.745 L -10.9369,-517.589 L -10.3139,-517.51 L 10.3139,-517.51 z
M -9.75116,-519.008 L -10.2495,-519.071 L -10.7361,-519.196 L -11.2031,-519.381 L -11.6433,-519.623 L -12.0497,-519.918
 L -12.4159,-520.262 L -12.7361,-520.649 L -13.0052,-521.073 L -13.2191,-521.528 L -13.3743,-522.005 L -13.4684,-522.499
 L -13.5,-523 L -13.5,-617 L -13.4684,-617.501 L -13.3743,-617.995 L -13.2191,-618.472 L -13.0052,-618.927
 L -12.7361,-619.351 L -12.4159,-619.738 L -12.0497,-620.082 L -11.6433,-620.377 L -11.2031,-620.619 L -10.7361,-620.804
 L -10.2495,-620.929 L -9.75116,-620.992 L 9.75116,-620.992 L 10.2495,-620.929 L 10.7361,-620.804 L 11.2031,-620.619
 L 11.6433,-620.377 L 12.0497,-620.082 L 12.4159,-619.738 L 12.7361,-619.351 L 13.0052,-618.927 L 13.2191,-618.472
 L 13.3743,-617.995 L 13.4684,-617.501 L 13.5,-617 L 13.5,-523 L 13.4684,-522.499 L 13.3743,-522.005
 L 13.2191,-521.528 L 13.0052,-521.073 L 12.7361,-520.649 L 12.4159,-520.262 L 12.0497,-519.918 L 11.6433,-519.623
 L 11.2031,-519.381 L 10.7361,-519.196 L 10.2495,-519.071 L 9.75116,-519.008 z
M 10.9369,-403.589 L 11.5451,-403.745 L 12.1289,-403.976 L 12.6791,-404.278 L 13.1871,-404.647 L 13.6448,-405.077
 L 14.0451,-405.561 L 14.3815,-406.091 L 14.6489,-406.659 L 14.8429,-407.257 L 14.9606,-407.873 L 15,-408.5
 L 15,-503.5 L 14.9606,-504.127 L 14.8429,-504.743 L 14.6489,-505.341 L 14.3815,-505.909 L 14.0451,-506.439
 L 13.6448,-506.923 L 13.1871,-507.353 L 12.6791,-507.722 L 12.1289,-508.024 L 11.5451,-508.255 L 10.9369,-508.411
 L 10.3139,-508.49 L -10.3139,-508.49 L -10.9369,-508.411 L -11.5451,-508.255 L -12.1289,-508.024 L -12.6791,-507.722
 L -13.1871,-507.353 L -13.6448,-506.923 L -14.0451,-506.439 L -14.3815,-505.909 L -14.6489,-505.341 L -14.8429,-504.743
 L -14.9606,-504.127 L -15,-503.5 L -15,-408.5 L -14.9606,-407.873 L -14.8429,-407.257 L -14.6489,-406.659
 L -14.3815,-406.091 L -14.0451,-405.561 L -13.6448,-405.077 L -13.1871,-404.647 L -12.6791,-404.278 L -12.1289,-403.976
 L -11.5451,-403.745 L -10.9369,-403.589 L -10.3139,-403.51 L 10.3139,-403.51 z
M -9.69545,-405.893 L -10.0833,-405.942 L -10.4619,-406.039 L -10.8254,-406.183 L -11.168,-406.372 L -11.4842,-406.601
 L -11.7692,-406.869 L -12.0184,-407.17 L -12.2279,-407.5 L -12.3943,-407.854 L -12.5151,-408.226 L -12.5884,-408.61
 L -12.6129,-409 L -12.6129,-503 L -12.5884,-503.39 L -12.5151,-503.774 L -12.3943,-504.146 L -12.2279,-504.5
 L -12.0184,-504.83 L -11.7692,-505.131 L -11.4842,-505.399 L -11.168,-505.628 L -10.8254,-505.817 L -10.4619,-505.961
 L -10.0833,-506.058 L -9.69545,-506.107 L 9.69545,-506.107 L 10.0833,-506.058 L 10.4619,-505.961 L 10.8254,-505.817
 L 11.168,-505.628 L 11.4842,-505.399 L 11.7692,-505.131 L 12.0184,-504.83 L 12.2279,-504.5 L 12.3943,-504.146
 L 12.5151,-503.774 L 12.5884,-503.39 L 12.6129,-503 L 12.6129,-409 L 12.5884,-408.61 L 12.5151,-408.226
 L 12.3943,-407.854 L 12.2279,-407.5 L 12.0184,-407.17 L 11.7692,-406.869 L 11.4842,-406.601 L 11.168,-406.372
 L 10.8254,-406.183 L 10.4619,-406.039 L 10.0833,-405.942 L 9.69545,-405.893 z
M 10.9369,-289.589 L 11.5451,-289.745 L 12.1289,-289.976 L 12.6791,-290.278 L 13.1871,-290.647 L 13.6448,-291.077
 L 14.0451,-291.561 L 14.3815,-292.091 L 14.6489,-292.659 L 14.8429,-293.257 L 14.9606,-293.873 L 15,-294.5
 L 15,-389.5 L 14.9606,-390.127 L 14.8429,-390.743 L 14.6489,-391.341 L 14.3815,-391.909 L 14.0451,-392.439
 L 13.6448,-392.923 L 13.1871,-393.353 L 12.6791,-393.722 L 12.1289,-394.024 L 11.5451,-394.255 L 10.9369,-394.411
 L 10.3139,-394.49 L -10.3139,-394.49 L -10.9369,-394.411 L -11.5451,-394.255 L -12.1289,-394.024 L -12.6791,-393.722
 L -13.1871,-393.353 L -13.6448,-392.923 L -14.0451,-392.439 L -14.3815,-391.909 L -14.6489,-391.341 L -14.8429,-390.743
 L -14.9606,-390.127 L -15,-389.5 L -15,-294.5 L -14.9606,-293.873 L -14.8429,-293.257 L -14.6489,-292.659
 L -14.3815,-292.091 L -14.0451,-291.561 L -13.6448,-291.077 L -13.1871,-290.647 L -12.6791,-290.278 L -12.1289,-289.976
 L -11.5451,-289.745 L -10.9369,-289.589 L -10.3139,-289.51 L 10.3139,-289.51 z
M 7.36592,-384.869 L 7.09988,-384.903 L 6.84015,-384.969 L 6.59084,-385.068 L 6.35585,-385.197 L 6.1389,-385.355
 L 5.94344,-385.538 L 5.77251,-385.745 L 5.62881,-385.971 L 5.51465,-386.214 L 5.43178,-386.469 L 5.38153,-386.732
 L 5.3647,-387 L 5.38153,-387.268 L 5.43178,-387.531 L 5.51465,-387.786 L 5.62881,-388.029 L 5.77251,-388.255
 L 5.94344,-388.462 L 6.1389,-388.645 L 6.35585,-388.803 L 6.59084,-388.932 L 6.84015,-389.031 L 7.09988,-389.097
 L 7.36592,-389.131 L 7.63406,-389.131 L 7.9001,-389.097 L 8.15984,-389.031 L 8.40915,-388.932 L 8.64413,-388.803
 L 8.86108,-388.645 L 9.05655,-388.462 L 9.22748,-388.255 L 9.37117,-388.029 L 9.48534,-387.786 L 9.56821,-387.531
 L 9.61845,-387.268 L 9.63528,-387 L 9.61845,-386.732 L 9.56821,-386.469 L 9.48534,-386.214 L 9.37117,-385.971
 L 9.22748,-385.745 L 9.05655,-385.538 L 8.86108,-385.355 L 8.64413,-385.197 L 8.40915,-385.068 L 8.15984,-384.969
 L 7.9001,-384.903 L 7.63406,-384.869 z
M -7.63406,-384.869 L -7.9001,-384.903 L -8.15984,-384.969 L -8.40915,-385.068 L -8.64413,-385.197 L -8.86108,-385.355
 L -9.05655,-385.538 L -9.22748,-385.745 L -9.37117,-385.971 L -9.48534,-386.214 L -9.56821,-386.469 L -9.61845,-386.732
 L -9.63528,-387 L -9.61845,-387.268 L -9.56821,-387.531 L -9.48534,-387.786 L -9.37117,-388.029 L -9.22748,-388.255
 L -9.05655,-388.462 L -8.86108,-388.645 L -8.64413,-388.803 L -8.40915,-388.932 L -8.15984,-389.031 L -7.9001,-389.097
 L -7.63406,-389.131 L -7.36592,-389.131 L -7.09988,-389.097 L -6.84015,-389.031 L -6.59084,-388.932 L -6.35585,-388.803
 L -6.1389,-388.645 L -5.94344,-388.462 L -5.77251,-388.255 L -5.62881,-388.029 L -5.51465,-387.786 L -5.43178,-387.531
 L -5.38153,-387.268 L -5.3647,-387 L -5.38153,-386.732 L -5.43178,-386.469 L -5.51465,-386.214 L -5.62881,-385.971
 L -5.77251,-385.745 L -5.94344,-385.538 L -6.1389,-385.355 L -6.35585,-385.197 L -6.59084,-385.068 L -6.84015,-384.969
 L -7.09988,-384.903 L -7.36592,-384.869 z
M 7.36592,-294.869 L 7.09988,-294.903 L 6.84015,-294.969 L 6.59084,-295.068 L 6.35585,-295.197 L 6.1389,-295.355
 L 5.94344,-295.538 L 5.77251,-295.745 L 5.62881,-295.971 L 5.51465,-296.214 L 5.43178,-296.469 L 5.38153,-296.732
 L 5.3647,-297 L 5.38153,-297.268 L 5.43178,-297.531 L 5.51465,-297.786 L 5.62881,-298.029 L 5.77251,-298.255
 L 5.94344,-298.462 L 6.1389,-298.645 L 6.35585,-298.803 L 6.59084,-298.932 L 6.84015,-299.031 L 7.09988,-299.097
 L 7.36592,-299.131 L 7.63406,-299.131 L 7.9001,-299.097 L 8.15984,-299.031 L 8.40915,-298.932 L 8.64413,-298.803
 L 8.86108,-298.645 L 9.05655,-298.462 L 9.22748,-298.255 L 9.37117,-298.029 L 9.48534,-297.786 L 9.56821,-297.531
 L 9.61845,-297.268 L 9.63528,-297 L 9.61845,-296.732 L 9.56821,-296.469 L 9.48534,-296.214 L 9.37117,-295.971
 L 9.22748,-295.745 L 9.05655,-295.538 L 8.86108,-295.355 L 8.64413,-295.197 L 8.40915,-295.068 L 8.15984,-294.969
 L 7.9001,-294.903 L 7.63406,-294.869 z
M -7.63406,-294.869 L -7.9001,-294.903 L -8.15984,-294.969 L -8.40915,-295.068 L -8.64413,-295.197 L -8.86108,-295.355
 L -9.05655,-295.538 L -9.22748,-295.745 L -9.37117,-295.971 L -9.48534,-296.214 L -9.56821,-296.469 L -9.61845,-296.732
 L -9.63528,-297 L -9.61845,-297.268 L -9.56821,-297.531 L -9.48534,-297.786 L -9.37117,-298.029 L -9.22748,-298.255
 L -9.05655,-298.462 L -8.86108,-298.645 L -8.64413,-298.803 L -8.40915,-298.932 L -8.15984,-299.031 L -7.9001,-299.097
 L -7.63406,-299.131 L -7.36592,-299.131 L -7.09988,-299.097 L -6.84015,-299.031 L -6.59084,-298.932 L -6.35585,-298.803
 L -6.1389,-298.645 L -5.94344,-298.462 L -5.77251,-298.255 L -5.62881,-298.029 L -5.51465,-297.786 L -5.43178,-297.531
 L -5.38153,-297.268 L -5.3647,-297 L -5.38153,-296.732 L -5.43178,-296.469 L -5.51465,-296.214 L -5.62881,-295.971
 L -5.77251,-295.745 L -5.94344,-295.538 L -6.1389,-295.355 L -6.35585,-295.197 L -6.59084,-295.068 L -6.84015,-294.969
 L -7.09988,-294.903 L -7.36592,-294.869 z
" stroke="black" fill="lightgray" stroke-width="0.5"/>
</svg>
