  0
SECTION
  2
BLOCKS
  0
ENDSEC
  0
SECTION
  2
ENTITIES
  0
LINE
  8
0
 10
-13.5
 20
209.941
 11
-13.1871
 21
209.647
  0
LINE
  8
0
 10
-13.1871
 20
209.647
 11
-12.6791
 21
209.278
  0
LINE
  8
0
 10
-12.6791
 20
209.278
 11
-12.1289
 21
208.976
  0
LINE
  8
0
 10
-12.1289
 20
208.976
 11
-11.5451
 21
208.745
  0
LINE
  8
0
 10
-11.5451
 20
208.745
 11
-10.9369
 21
208.589
  0
LINE
  8
0
 10
-10.9369
 20
208.589
 11
-10.3139
 21
208.51
  0
LINE
  8
0
 10
-10.3139
 20
208.51
 11
10.3139
 21
208.51
  0
LINE
  8
0
 10
10.3139
 20
208.51
 11
10.9369
 21
208.589
  0
LINE
  8
0
 10
10.9369
 20
208.589
 11
11.5451
 21
208.745
  0
LINE
  8
0
 10
11.5451
 20
208.745
 11
12.1289
 21
208.976
  0
LINE
  8
0
 10
12.1289
 20
208.976
 11
12.6791
 21
209.278
  0
LINE
  8
0
 10
12.6791
 20
209.278
 11
13.1871
 21
209.647
  0
LINE
  8
0
 10
13.1871
 20
209.647
 11
13.6448
 21
210.077
  0
LINE
  8
0
 10
13.6448
 20
210.077
 11
14.0451
 21
210.561
  0
LINE
  8
0
 10
14.0451
 20
210.561
 11
14.3815
 21
211.091
  0
LINE
  8
0
 10
14.3815
 20
211.091
 11
14.6489
 21
211.659
  0
LINE
  8
0
 10
14.6489
 20
211.659
 11
14.8429
 21
212.257
  0
LINE
  8
0
 10
14.8429
 20
212.257
 11
14.9606
 21
212.873
  0
LINE
  8
0
 10
14.9606
 20
212.873
 11
15
 21
213.5
  0
LINE
  8
0
 10
15
 20
213.5
 11
15
 21
218.5
  0
LINE
  8
0
 10
15
 20
218.5
 11
14.9606
 21
219.127
  0
LINE
  8
0
 10
14.9606
 20
219.127
 11
14.8429
 21
219.743
  0
LINE
  8
0
 10
14.8429
 20
219.743
 11
14.6489
 21
220.341
  0
LINE
  8
0
 10
14.6489
 20
220.341
 11
14.3815
 21
220.909
  0
LINE
  8
0
 10
14.3815
 20
220.909
 11
14.0451
 21
221.439
  0
LINE
  8
0
 10
14.0451
 20
221.439
 11
13.6448
 21
221.923
  0
LINE
  8
0
 10
13.6448
 20
221.923
 11
13.1871
 21
222.353
  0
LINE
  8
0
 10
13.1871
 20
222.353
 11
12.6791
 21
222.722
  0
LINE
  8
0
 10
12.6791
 20
222.722
 11
12.1289
 21
223.024
  0
LINE
  8
0
 10
12.1289
 20
223.024
 11
11.5451
 21
223.255
  0
LINE
  8
0
 10
11.5451
 20
223.255
 11
10.9369
 21
223.411
  0
LINE
  8
0
 10
10.9369
 20
223.411
 11
10.3139
 21
223.49
  0
LINE
  8
0
 10
10.3139
 20
223.49
 11
-10.3139
 21
223.49
  0
LINE
  8
0
 10
-10.3139
 20
223.49
 11
-10.9369
 21
223.411
  0
LINE
  8
0
 10
-10.9369
 20
223.411
 11
-11.5451
 21
223.255
  0
LINE
  8
0
 10
-11.5451
 20
223.255
 11
-12.1289
 21
223.024
  0
LINE
  8
0
 10
-12.1289
 20
223.024
 11
-12.6791
 21
222.722
  0
LINE
  8
0
 10
-12.6791
 20
222.722
 11
-13.1871
 21
222.353
  0
LINE
  8
0
 10
-13.1871
 20
222.353
 11
-13.5
 21
222.059
  0
LINE
  8
0
 10
-13.5
 20
222.059
 11
-13.5
 21
223.49
  0
LINE
  8
0
 10
-13.5
 20
223.49
 11
-16.5
 21
223.49
  0
LINE
  8
0
 10
-16.5
 20
223.49
 11
-16.5
 21
208.51
  0
LINE
  8
0
 10
-16.5
 20
208.51
 11
-13.5
 21
208.51
  0
LINE
  8
0
 10
-13.5
 20
208.51
 11
-13.5
 21
209.941
  0
LINE
  8
0
 10
-9.75116
 20
210.008
 11
-10.2495
 21
210.071
  0
LINE
  8
0
 10
-10.2495
 20
210.071
 11
-10.7361
 21
210.196
  0
LINE
  8
0
 10
-10.7361
 20
210.196
 11
-11.2031
 21
210.381
  0
LINE
  8
0
 10
-11.2031
 20
210.381
 11
-11.6433
 21
210.623
  0
LINE
  8
0
 10
-11.6433
 20
210.623
 11
-12.0497
 21
210.918
  0
LINE
  8
0
 10
-12.0497
 20
210.918
 11
-12.4159
 21
211.262
  0
LINE
  8
0
 10
-12.4159
 20
211.262
 11
-12.7361
 21
211.649
  0
LINE
  8
0
 10
-12.7361
 20
211.649
 11
-13.0052
 21
212.073
  0
LINE
  8
0
 10
-13.0052
 20
212.073
 11
-13.2191
 21
212.528
  0
LINE
  8
0
 10
-13.2191
 20
212.528
 11
-13.3743
 21
213.005
  0
LINE
  8
0
 10
-13.3743
 20
213.005
 11
-13.4684
 21
213.499
  0
LINE
  8
0
 10
-13.4684
 20
213.499
 11
-13.5
 21
214
  0
LINE
  8
0
 10
-13.5
 20
214
 11
-13.5
 21
218
  0
LINE
  8
0
 10
-13.5
 20
218
 11
-13.4684
 21
218.501
  0
LINE
  8
0
 10
-13.4684
 20
218.501
 11
-13.3743
 21
218.995
  0
LINE
  8
0
 10
-13.3743
 20
218.995
 11
-13.2191
 21
219.472
  0
LINE
  8
0
 10
-13.2191
 20
219.472
 11
-13.0052
 21
219.927
  0
LINE
  8
0
 10
-13.0052
 20
219.927
 11
-12.7361
 21
220.351
  0
LINE
  8
0
 10
-12.7361
 20
220.351
 11
-12.4159
 21
220.738
  0
LINE
  8
0
 10
-12.4159
 20
220.738
 11
-12.0497
 21
221.082
  0
LINE
  8
0
 10
-12.0497
 20
221.082
 11
-11.6433
 21
221.377
  0
LINE
  8
0
 10
-11.6433
 20
221.377
 11
-11.2031
 21
221.619
  0
LINE
  8
0
 10
-11.2031
 20
221.619
 11
-10.7361
 21
221.804
  0
LINE
  8
0
 10
-10.7361
 20
221.804
 11
-10.2495
 21
221.929
  0
LINE
  8
0
 10
-10.2495
 20
221.929
 11
-9.75116
 21
221.992
  0
LINE
  8
0
 10
-9.75116
 20
221.992
 11
9.75116
 21
221.992
  0
LINE
  8
0
 10
9.75116
 20
221.992
 11
10.2495
 21
221.929
  0
LINE
  8
0
 10
10.2495
 20
221.929
 11
10.7361
 21
221.804
  0
LINE
  8
0
 10
10.7361
 20
221.804
 11
11.2031
 21
221.619
  0
LINE
  8
0
 10
11.2031
 20
221.619
 11
11.6433
 21
221.377
  0
LINE
  8
0
 10
11.6433
 20
221.377
 11
12.0497
 21
221.082
  0
LINE
  8
0
 10
12.0497
 20
221.082
 11
12.4159
 21
220.738
  0
LINE
  8
0
 10
12.4159
 20
220.738
 11
12.7361
 21
220.351
  0
LINE
  8
0
 10
12.7361
 20
220.351
 11
13.0052
 21
219.927
  0
LINE
  8
0
 10
13.0052
 20
219.927
 11
13.2191
 21
219.472
  0
LINE
  8
0
 10
13.2191
 20
219.472
 11
13.3743
 21
218.995
  0
LINE
  8
0
 10
13.3743
 20
218.995
 11
13.4684
 21
218.501
  0
LINE
  8
0
 10
13.4684
 20
218.501
 11
13.5
 21
218
  0
LINE
  8
0
 10
13.5
 20
218
 11
13.5
 21
214
  0
LINE
  8
0
 10
13.5
 20
214
 11
13.4684
 21
213.499
  0
LINE
  8
0
 10
13.4684
 20
213.499
 11
13.3743
 21
213.005
  0
LINE
  8
0
 10
13.3743
 20
213.005
 11
13.2191
 21
212.528
  0
LINE
  8
0
 10
13.2191
 20
212.528
 11
13.0052
 21
212.073
  0
LINE
  8
0
 10
13.0052
 20
212.073
 11
12.7361
 21
211.649
  0
LINE
  8
0
 10
12.7361
 20
211.649
 11
12.4159
 21
211.262
  0
LINE
  8
0
 10
12.4159
 20
211.262
 11
12.0497
 21
210.918
  0
LINE
  8
0
 10
12.0497
 20
210.918
 11
11.6433
 21
210.623
  0
LINE
  8
0
 10
11.6433
 20
210.623
 11
11.2031
 21
210.381
  0
LINE
  8
0
 10
11.2031
 20
210.381
 11
10.7361
 21
210.196
  0
LINE
  8
0
 10
10.7361
 20
210.196
 11
10.2495
 21
210.071
  0
LINE
  8
0
 10
10.2495
 20
210.071
 11
9.75116
 21
210.008
  0
LINE
  8
0
 10
9.75116
 20
210.008
 11
-9.75116
 21
210.008
  0
LINE
  8
0
 10
-13.5
 20
185.941
 11
-13.1871
 21
185.647
  0
LINE
  8
0
 10
-13.1871
 20
185.647
 11
-12.6791
 21
185.278
  0
LINE
  8
0
 10
-12.6791
 20
185.278
 11
-12.1289
 21
184.976
  0
LINE
  8
0
 10
-12.1289
 20
184.976
 11
-11.5451
 21
184.745
  0
LINE
  8
0
 10
-11.5451
 20
184.745
 11
-10.9369
 21
184.589
  0
LINE
  8
0
 10
-10.9369
 20
184.589
 11
-10.3139
 21
184.51
  0
LINE
  8
0
 10
-10.3139
 20
184.51
 11
10.3139
 21
184.51
  0
LINE
  8
0
 10
10.3139
 20
184.51
 11
10.9369
 21
184.589
  0
LINE
  8
0
 10
10.9369
 20
184.589
 11
11.5451
 21
184.745
  0
LINE
  8
0
 10
11.5451
 20
184.745
 11
12.1289
 21
184.976
  0
LINE
  8
0
 10
12.1289
 20
184.976
 11
12.6791
 21
185.278
  0
LINE
  8
0
 10
12.6791
 20
185.278
 11
13.1871
 21
185.647
  0
LINE
  8
0
 10
13.1871
 20
185.647
 11
13.6448
 21
186.077
  0
LINE
  8
0
 10
13.6448
 20
186.077
 11
14.0451
 21
186.561
  0
LINE
  8
0
 10
14.0451
 20
186.561
 11
14.3815
 21
187.091
  0
LINE
  8
0
 10
14.3815
 20
187.091
 11
14.6489
 21
187.659
  0
LINE
  8
0
 10
14.6489
 20
187.659
 11
14.8429
 21
188.257
  0
LINE
  8
0
 10
14.8429
 20
188.257
 11
14.9606
 21
188.873
  0
LINE
  8
0
 10
14.9606
 20
188.873
 11
15
 21
189.5
  0
LINE
  8
0
 10
15
 20
189.5
 11
15
 21
194.5
  0
LINE
  8
0
 10
15
 20
194.5
 11
14.9606
 21
195.127
  0
LINE
  8
0
 10
14.9606
 20
195.127
 11
14.8429
 21
195.743
  0
LINE
  8
0
 10
14.8429
 20
195.743
 11
14.6489
 21
196.341
  0
LINE
  8
0
 10
14.6489
 20
196.341
 11
14.3815
 21
196.909
  0
LINE
  8
0
 10
14.3815
 20
196.909
 11
14.0451
 21
197.439
  0
LINE
  8
0
 10
14.0451
 20
197.439
 11
13.6448
 21
197.923
  0
LINE
  8
0
 10
13.6448
 20
197.923
 11
13.1871
 21
198.353
  0
LINE
  8
0
 10
13.1871
 20
198.353
 11
12.6791
 21
198.722
  0
LINE
  8
0
 10
12.6791
 20
198.722
 11
12.1289
 21
199.024
  0
LINE
  8
0
 10
12.1289
 20
199.024
 11
11.5451
 21
199.255
  0
LINE
  8
0
 10
11.5451
 20
199.255
 11
10.9369
 21
199.411
  0
LINE
  8
0
 10
10.9369
 20
199.411
 11
10.3139
 21
199.49
  0
LINE
  8
0
 10
10.3139
 20
199.49
 11
-10.3139
 21
199.49
  0
LINE
  8
0
 10
-10.3139
 20
199.49
 11
-10.9369
 21
199.411
  0
LINE
  8
0
 10
-10.9369
 20
199.411
 11
-11.5451
 21
199.255
  0
LINE
  8
0
 10
-11.5451
 20
199.255
 11
-12.1289
 21
199.024
  0
LINE
  8
0
 10
-12.1289
 20
199.024
 11
-12.6791
 21
198.722
  0
LINE
  8
0
 10
-12.6791
 20
198.722
 11
-13.1871
 21
198.353
  0
LINE
  8
0
 10
-13.1871
 20
198.353
 11
-13.5
 21
198.059
  0
LINE
  8
0
 10
-13.5
 20
198.059
 11
-13.5
 21
199.49
  0
LINE
  8
0
 10
-13.5
 20
199.49
 11
-16.5
 21
199.49
  0
LINE
  8
0
 10
-16.5
 20
199.49
 11
-16.5
 21
184.51
  0
LINE
  8
0
 10
-16.5
 20
184.51
 11
-13.5
 21
184.51
  0
LINE
  8
0
 10
-13.5
 20
184.51
 11
-13.5
 21
185.941
  0
LINE
  8
0
 10
-9.75116
 20
186.008
 11
-10.2495
 21
186.071
  0
LINE
  8
0
 10
-10.2495
 20
186.071
 11
-10.7361
 21
186.196
  0
LINE
  8
0
 10
-10.7361
 20
186.196
 11
-11.2031
 21
186.381
  0
LINE
  8
0
 10
-11.2031
 20
186.381
 11
-11.6433
 21
186.623
  0
LINE
  8
0
 10
-11.6433
 20
186.623
 11
-12.0497
 21
186.918
  0
LINE
  8
0
 10
-12.0497
 20
186.918
 11
-12.4159
 21
187.262
  0
LINE
  8
0
 10
-12.4159
 20
187.262
 11
-12.7361
 21
187.649
  0
LINE
  8
0
 10
-12.7361
 20
187.649
 11
-13.0052
 21
188.073
  0
LINE
  8
0
 10
-13.0052
 20
188.073
 11
-13.2191
 21
188.528
  0
LINE
  8
0
 10
-13.2191
 20
188.528
 11
-13.3743
 21
189.005
  0
LINE
  8
0
 10
-13.3743
 20
189.005
 11
-13.4684
 21
189.499
  0
LINE
  8
0
 10
-13.4684
 20
189.499
 11
-13.5
 21
190
  0
LINE
  8
0
 10
-13.5
 20
190
 11
-13.5
 21
194
  0
LINE
  8
0
 10
-13.5
 20
194
 11
-13.4684
 21
194.501
  0
LINE
  8
0
 10
-13.4684
 20
194.501
 11
-13.3743
 21
194.995
  0
LINE
  8
0
 10
-13.3743
 20
194.995
 11
-13.2191
 21
195.472
  0
LINE
  8
0
 10
-13.2191
 20
195.472
 11
-13.0052
 21
195.927
  0
LINE
  8
0
 10
-13.0052
 20
195.927
 11
-12.7361
 21
196.351
  0
LINE
  8
0
 10
-12.7361
 20
196.351
 11
-12.4159
 21
196.738
  0
LINE
  8
0
 10
-12.4159
 20
196.738
 11
-12.0497
 21
197.082
  0
LINE
  8
0
 10
-12.0497
 20
197.082
 11
-11.6433
 21
197.377
  0
LINE
  8
0
 10
-11.6433
 20
197.377
 11
-11.2031
 21
197.619
  0
LINE
  8
0
 10
-11.2031
 20
197.619
 11
-10.7361
 21
197.804
  0
LINE
  8
0
 10
-10.7361
 20
197.804
 11
-10.2495
 21
197.929
  0
LINE
  8
0
 10
-10.2495
 20
197.929
 11
-9.75116
 21
197.992
  0
LINE
  8
0
 10
-9.75116
 20
197.992
 11
9.75116
 21
197.992
  0
LINE
  8
0
 10
9.75116
 20
197.992
 11
10.2495
 21
197.929
  0
LINE
  8
0
 10
10.2495
 20
197.929
 11
10.7361
 21
197.804
  0
LINE
  8
0
 10
10.7361
 20
197.804
 11
11.2031
 21
197.619
  0
LINE
  8
0
 10
11.2031
 20
197.619
 11
11.6433
 21
197.377
  0
LINE
  8
0
 10
11.6433
 20
197.377
 11
12.0497
 21
197.082
  0
LINE
  8
0
 10
12.0497
 20
197.082
 11
12.4159
 21
196.738
  0
LINE
  8
0
 10
12.4159
 20
196.738
 11
12.7361
 21
196.351
  0
LINE
  8
0
 10
12.7361
 20
196.351
 11
13.0052
 21
195.927
  0
LINE
  8
0
 10
13.0052
 20
195.927
 11
13.2191
 21
195.472
  0
LINE
  8
0
 10
13.2191
 20
195.472
 11
13.3743
 21
194.995
  0
LINE
  8
0
 10
13.3743
 20
194.995
 11
13.4684
 21
194.501
  0
LINE
  8
0
 10
13.4684
 20
194.501
 11
13.5
 21
194
  0
LINE
  8
0
 10
13.5
 20
194
 11
13.5
 21
190
  0
LINE
  8
0
 10
13.5
 20
190
 11
13.4684
 21
189.499
  0
LINE
  8
0
 10
13.4684
 20
189.499
 11
13.3743
 21
189.005
  0
LINE
  8
0
 10
13.3743
 20
189.005
 11
13.2191
 21
188.528
  0
LINE
  8
0
 10
13.2191
 20
188.528
 11
13.0052
 21
188.073
  0
LINE
  8
0
 10
13.0052
 20
188.073
 11
12.7361
 21
187.649
  0
LINE
  8
0
 10
12.7361
 20
187.649
 11
12.4159
 21
187.262
  0
LINE
  8
0
 10
12.4159
 20
187.262
 11
12.0497
 21
186.918
  0
LINE
  8
0
 10
12.0497
 20
186.918
 11
11.6433
 21
186.623
  0
LINE
  8
0
 10
11.6433
 20
186.623
 11
11.2031
 21
186.381
  0
LINE
  8
0
 10
11.2031
 20
186.381
 11
10.7361
 21
186.196
  0
LINE
  8
0
 10
10.7361
 20
186.196
 11
10.2495
 21
186.071
  0
LINE
  8
0
 10
10.2495
 20
186.071
 11
9.75116
 21
186.008
  0
LINE
  8
0
 10
9.75116
 20
186.008
 11
-9.75116
 21
186.008
  0
LINE
  8
0
 10
-13.5
 20
161.941
 11
-13.1871
 21
161.647
  0
LINE
  8
0
 10
-13.1871
 20
161.647
 11
-12.6791
 21
161.278
  0
LINE
  8
0
 10
-12.6791
 20
161.278
 11
-12.1289
 21
160.976
  0
LINE
  8
0
 10
-12.1289
 20
160.976
 11
-11.5451
 21
160.745
  0
LINE
  8
0
 10
-11.5451
 20
160.745
 11
-10.9369
 21
160.589
  0
LINE
  8
0
 10
-10.9369
 20
160.589
 11
-10.3139
 21
160.51
  0
LINE
  8
0
 10
-10.3139
 20
160.51
 11
10.3139
 21
160.51
  0
LINE
  8
0
 10
10.3139
 20
160.51
 11
10.9369
 21
160.589
  0
LINE
  8
0
 10
10.9369
 20
160.589
 11
11.5451
 21
160.745
  0
LINE
  8
0
 10
11.5451
 20
160.745
 11
12.1289
 21
160.976
  0
LINE
  8
0
 10
12.1289
 20
160.976
 11
12.6791
 21
161.278
  0
LINE
  8
0
 10
12.6791
 20
161.278
 11
13.1871
 21
161.647
  0
LINE
  8
0
 10
13.1871
 20
161.647
 11
13.6448
 21
162.077
  0
LINE
  8
0
 10
13.6448
 20
162.077
 11
14.0451
 21
162.561
  0
LINE
  8
0
 10
14.0451
 20
162.561
 11
14.3815
 21
163.091
  0
LINE
  8
0
 10
14.3815
 20
163.091
 11
14.6489
 21
163.659
  0
LINE
  8
0
 10
14.6489
 20
163.659
 11
14.8429
 21
164.257
  0
LINE
  8
0
 10
14.8429
 20
164.257
 11
14.9606
 21
164.873
  0
LINE
  8
0
 10
14.9606
 20
164.873
 11
15
 21
165.5
  0
LINE
  8
0
 10
15
 20
165.5
 11
15
 21
170.5
  0
LINE
  8
0
 10
15
 20
170.5
 11
14.9606
 21
171.127
  0
LINE
  8
0
 10
14.9606
 20
171.127
 11
14.8429
 21
171.743
  0
LINE
  8
0
 10
14.8429
 20
171.743
 11
14.6489
 21
172.341
  0
LINE
  8
0
 10
14.6489
 20
172.341
 11
14.3815
 21
172.909
  0
LINE
  8
0
 10
14.3815
 20
172.909
 11
14.0451
 21
173.439
  0
LINE
  8
0
 10
14.0451
 20
173.439
 11
13.6448
 21
173.923
  0
LINE
  8
0
 10
13.6448
 20
173.923
 11
13.1871
 21
174.353
  0
LINE
  8
0
 10
13.1871
 20
174.353
 11
12.6791
 21
174.722
  0
LINE
  8
0
 10
12.6791
 20
174.722
 11
12.1289
 21
175.024
  0
LINE
  8
0
 10
12.1289
 20
175.024
 11
11.5451
 21
175.255
  0
LINE
  8
0
 10
11.5451
 20
175.255
 11
10.9369
 21
175.411
  0
LINE
  8
0
 10
10.9369
 20
175.411
 11
10.3139
 21
175.49
  0
LINE
  8
0
 10
10.3139
 20
175.49
 11
-10.3139
 21
175.49
  0
LINE
  8
0
 10
-10.3139
 20
175.49
 11
-10.9369
 21
175.411
  0
LINE
  8
0
 10
-10.9369
 20
175.411
 11
-11.5451
 21
175.255
  0
LINE
  8
0
 10
-11.5451
 20
175.255
 11
-12.1289
 21
175.024
  0
LINE
  8
0
 10
-12.1289
 20
175.024
 11
-12.6791
 21
174.722
  0
LINE
  8
0
 10
-12.6791
 20
174.722
 11
-13.1871
 21
174.353
  0
LINE
  8
0
 10
-13.1871
 20
174.353
 11
-13.5
 21
174.059
  0
LINE
  8
0
 10
-13.5
 20
174.059
 11
-13.5
 21
175.49
  0
LINE
  8
0
 10
-13.5
 20
175.49
 11
-16.5
 21
175.49
  0
LINE
  8
0
 10
-16.5
 20
175.49
 11
-16.5
 21
160.51
  0
LINE
  8
0
 10
-16.5
 20
160.51
 11
-13.5
 21
160.51
  0
LINE
  8
0
 10
-13.5
 20
160.51
 11
-13.5
 21
161.941
  0
LINE
  8
0
 10
-9.75116
 20
162.008
 11
-10.2495
 21
162.071
  0
LINE
  8
0
 10
-10.2495
 20
162.071
 11
-10.7361
 21
162.196
  0
LINE
  8
0
 10
-10.7361
 20
162.196
 11
-11.2031
 21
162.381
  0
LINE
  8
0
 10
-11.2031
 20
162.381
 11
-11.6433
 21
162.623
  0
LINE
  8
0
 10
-11.6433
 20
162.623
 11
-12.0497
 21
162.918
  0
LINE
  8
0
 10
-12.0497
 20
162.918
 11
-12.4159
 21
163.262
  0
LINE
  8
0
 10
-12.4159
 20
163.262
 11
-12.7361
 21
163.649
  0
LINE
  8
0
 10
-12.7361
 20
163.649
 11
-13.0052
 21
164.073
  0
LINE
  8
0
 10
-13.0052
 20
164.073
 11
-13.2191
 21
164.528
  0
LINE
  8
0
 10
-13.2191
 20
164.528
 11
-13.3743
 21
165.005
  0
LINE
  8
0
 10
-13.3743
 20
165.005
 11
-13.4684
 21
165.499
  0
LINE
  8
0
 10
-13.4684
 20
165.499
 11
-13.5
 21
166
  0
LINE
  8
0
 10
-13.5
 20
166
 11
-13.5
 21
170
  0
LINE
  8
0
 10
-13.5
 20
170
 11
-13.4684
 21
170.501
  0
LINE
  8
0
 10
-13.4684
 20
170.501
 11
-13.3743
 21
170.995
  0
LINE
  8
0
 10
-13.3743
 20
170.995
 11
-13.2191
 21
171.472
  0
LINE
  8
0
 10
-13.2191
 20
171.472
 11
-13.0052
 21
171.927
  0
LINE
  8
0
 10
-13.0052
 20
171.927
 11
-12.7361
 21
172.351
  0
LINE
  8
0
 10
-12.7361
 20
172.351
 11
-12.4159
 21
172.738
  0
LINE
  8
0
 10
-12.4159
 20
172.738
 11
-12.0497
 21
173.082
  0
LINE
  8
0
 10
-12.0497
 20
173.082
 11
-11.6433
 21
173.377
  0
LINE
  8
0
 10
-11.6433
 20
173.377
 11
-11.2031
 21
173.619
  0
LINE
  8
0
 10
-11.2031
 20
173.619
 11
-10.7361
 21
173.804
  0
LINE
  8
0
 10
-10.7361
 20
173.804
 11
-10.2495
 21
173.929
  0
LINE
  8
0
 10
-10.2495
 20
173.929
 11
-9.75116
 21
173.992
  0
LINE
  8
0
 10
-9.75116
 20
173.992
 11
9.75116
 21
173.992
  0
LINE
  8
0
 10
9.75116
 20
173.992
 11
10.2495
 21
173.929
  0
LINE
  8
0
 10
10.2495
 20
173.929
 11
10.7361
 21
173.804
  0
LINE
  8
0
 10
10.7361
 20
173.804
 11
11.2031
 21
173.619
  0
LINE
  8
0
 10
11.2031
 20
173.619
 11
11.6433
 21
173.377
  0
LINE
  8
0
 10
11.6433
 20
173.377
 11
12.0497
 21
173.082
  0
LINE
  8
0
 10
12.0497
 20
173.082
 11
12.4159
 21
172.738
  0
LINE
  8
0
 10
12.4159
 20
172.738
 11
12.7361
 21
172.351
  0
LINE
  8
0
 10
12.7361
 20
172.351
 11
13.0052
 21
171.927
  0
LINE
  8
0
 10
13.0052
 20
171.927
 11
13.2191
 21
171.472
  0
LINE
  8
0
 10
13.2191
 20
171.472
 11
13.3743
 21
170.995
  0
LINE
  8
0
 10
13.3743
 20
170.995
 11
13.4684
 21
170.501
  0
LINE
  8
0
 10
13.4684
 20
170.501
 11
13.5
 21
170
  0
LINE
  8
0
 10
13.5
 20
170
 11
13.5
 21
166
  0
LINE
  8
0
 10
13.5
 20
166
 11
13.4684
 21
165.499
  0
LINE
  8
0
 10
13.4684
 20
165.499
 11
13.3743
 21
165.005
  0
LINE
  8
0
 10
13.3743
 20
165.005
 11
13.2191
 21
164.528
  0
LINE
  8
0
 10
13.2191
 20
164.528
 11
13.0052
 21
164.073
  0
LINE
  8
0
 10
13.0052
 20
164.073
 11
12.7361
 21
163.649
  0
LINE
  8
0
 10
12.7361
 20
163.649
 11
12.4159
 21
163.262
  0
LINE
  8
0
 10
12.4159
 20
163.262
 11
12.0497
 21
162.918
  0
LINE
  8
0
 10
12.0497
 20
162.918
 11
11.6433
 21
162.623
  0
LINE
  8
0
 10
11.6433
 20
162.623
 11
11.2031
 21
162.381
  0
LINE
  8
0
 10
11.2031
 20
162.381
 11
10.7361
 21
162.196
  0
LINE
  8
0
 10
10.7361
 20
162.196
 11
10.2495
 21
162.071
  0
LINE
  8
0
 10
10.2495
 20
162.071
 11
9.75116
 21
162.008
  0
LINE
  8
0
 10
9.75116
 20
162.008
 11
-9.75116
 21
162.008
  0
LINE
  8
0
 10
10.9369
 20
136.589
 11
11.5451
 21
136.745
  0
LINE
  8
0
 10
11.5451
 20
136.745
 11
12.1289
 21
136.976
  0
LINE
  8
0
 10
12.1289
 20
136.976
 11
12.6791
 21
137.278
  0
LINE
  8
0
 10
12.6791
 20
137.278
 11
13.1871
 21
137.647
  0
LINE
  8
0
 10
13.1871
 20
137.647
 11
13.6448
 21
138.077
  0
LINE
  8
0
 10
13.6448
 20
138.077
 11
14.0451
 21
138.561
  0
LINE
  8
0
 10
14.0451
 20
138.561
 11
14.3815
 21
139.091
  0
LINE
  8
0
 10
14.3815
 20
139.091
 11
14.6489
 21
139.659
  0
LINE
  8
0
 10
14.6489
 20
139.659
 11
14.8429
 21
140.257
  0
LINE
  8
0
 10
14.8429
 20
140.257
 11
14.9606
 21
140.873
  0
LINE
  8
0
 10
14.9606
 20
140.873
 11
15
 21
141.5
  0
LINE
  8
0
 10
15
 20
141.5
 11
15
 21
146.5
  0
LINE
  8
0
 10
15
 20
146.5
 11
14.9606
 21
147.127
  0
LINE
  8
0
 10
14.9606
 20
147.127
 11
14.8429
 21
147.743
  0
LINE
  8
0
 10
14.8429
 20
147.743
 11
14.6489
 21
148.341
  0
LINE
  8
0
 10
14.6489
 20
148.341
 11
14.3815
 21
148.909
  0
LINE
  8
0
 10
14.3815
 20
148.909
 11
14.0451
 21
149.439
  0
LINE
  8
0
 10
14.0451
 20
149.439
 11
13.6448
 21
149.923
  0
LINE
  8
0
 10
13.6448
 20
149.923
 11
13.1871
 21
150.353
  0
LINE
  8
0
 10
13.1871
 20
150.353
 11
12.6791
 21
150.722
  0
LINE
  8
0
 10
12.6791
 20
150.722
 11
12.1289
 21
151.024
  0
LINE
  8
0
 10
12.1289
 20
151.024
 11
11.5451
 21
151.255
  0
LINE
  8
0
 10
11.5451
 20
151.255
 11
10.9369
 21
151.411
  0
LINE
  8
0
 10
10.9369
 20
151.411
 11
10.3139
 21
151.49
  0
LINE
  8
0
 10
10.3139
 20
151.49
 11
-10.3139
 21
151.49
  0
LINE
  8
0
 10
-10.3139
 20
151.49
 11
-10.9369
 21
151.411
  0
LINE
  8
0
 10
-10.9369
 20
151.411
 11
-11.5451
 21
151.255
  0
LINE
  8
0
 10
-11.5451
 20
151.255
 11
-12.1289
 21
151.024
  0
LINE
  8
0
 10
-12.1289
 20
151.024
 11
-12.6791
 21
150.722
  0
LINE
  8
0
 10
-12.6791
 20
150.722
 11
-13.1871
 21
150.353
  0
LINE
  8
0
 10
-13.1871
 20
150.353
 11
-13.5
 21
150.059
  0
LINE
  8
0
 10
-13.5
 20
150.059
 11
-13.5
 21
151.479
  0
LINE
  8
0
 10
-13.5
 20
151.479
 11
-16.5
 21
151.479
  0
LINE
  8
0
 10
-16.5
 20
151.479
 11
-16.5
 21
136.521
  0
LINE
  8
0
 10
-16.5
 20
136.521
 11
-13.5
 21
136.521
  0
LINE
  8
0
 10
-13.5
 20
136.521
 11
-13.5
 21
137.941
  0
LINE
  8
0
 10
-13.5
 20
137.941
 11
-13.1871
 21
137.647
  0
LINE
  8
0
 10
-13.1871
 20
137.647
 11
-12.6791
 21
137.278
  0
LINE
  8
0
 10
-12.6791
 20
137.278
 11
-12.1289
 21
136.976
  0
LINE
  8
0
 10
-12.1289
 20
136.976
 11
-11.5451
 21
136.745
  0
LINE
  8
0
 10
-11.5451
 20
136.745
 11
-10.9369
 21
136.589
  0
LINE
  8
0
 10
-10.9369
 20
136.589
 11
-10.3139
 21
136.51
  0
LINE
  8
0
 10
-10.3139
 20
136.51
 11
10.3139
 21
136.51
  0
LINE
  8
0
 10
10.3139
 20
136.51
 11
10.9369
 21
136.589
  0
LINE
  8
0
 10
-9.69545
 20
138.893
 11
-10.0833
 21
138.942
  0
LINE
  8
0
 10
-10.0833
 20
138.942
 11
-10.4619
 21
139.039
  0
LINE
  8
0
 10
-10.4619
 20
139.039
 11
-10.8254
 21
139.183
  0
LINE
  8
0
 10
-10.8254
 20
139.183
 11
-11.168
 21
139.372
  0
LINE
  8
0
 10
-11.168
 20
139.372
 11
-11.4842
 21
139.601
  0
LINE
  8
0
 10
-11.4842
 20
139.601
 11
-11.7692
 21
139.869
  0
LINE
  8
0
 10
-11.7692
 20
139.869
 11
-12.0184
 21
140.17
  0
LINE
  8
0
 10
-12.0184
 20
140.17
 11
-12.2279
 21
140.5
  0
LINE
  8
0
 10
-12.2279
 20
140.5
 11
-12.3943
 21
140.854
  0
LINE
  8
0
 10
-12.3943
 20
140.854
 11
-12.5151
 21
141.226
  0
LINE
  8
0
 10
-12.5151
 20
141.226
 11
-12.5884
 21
141.61
  0
LINE
  8
0
 10
-12.5884
 20
141.61
 11
-12.6129
 21
142
  0
LINE
  8
0
 10
-12.6129
 20
142
 11
-12.6129
 21
146
  0
LINE
  8
0
 10
-12.6129
 20
146
 11
-12.5884
 21
146.39
  0
LINE
  8
0
 10
-12.5884
 20
146.39
 11
-12.5151
 21
146.774
  0
LINE
  8
0
 10
-12.5151
 20
146.774
 11
-12.3943
 21
147.146
  0
LINE
  8
0
 10
-12.3943
 20
147.146
 11
-12.2279
 21
147.5
  0
LINE
  8
0
 10
-12.2279
 20
147.5
 11
-12.0184
 21
147.83
  0
LINE
  8
0
 10
-12.0184
 20
147.83
 11
-11.7692
 21
148.131
  0
LINE
  8
0
 10
-11.7692
 20
148.131
 11
-11.4842
 21
148.399
  0
LINE
  8
0
 10
-11.4842
 20
148.399
 11
-11.168
 21
148.628
  0
LINE
  8
0
 10
-11.168
 20
148.628
 11
-10.8254
 21
148.817
  0
LINE
  8
0
 10
-10.8254
 20
148.817
 11
-10.4619
 21
148.961
  0
LINE
  8
0
 10
-10.4619
 20
148.961
 11
-10.0833
 21
149.058
  0
LINE
  8
0
 10
-10.0833
 20
149.058
 11
-9.69545
 21
149.107
  0
LINE
  8
0
 10
-9.69545
 20
149.107
 11
9.69545
 21
149.107
  0
LINE
  8
0
 10
9.69545
 20
149.107
 11
10.0833
 21
149.058
  0
LINE
  8
0
 10
10.0833
 20
149.058
 11
10.4619
 21
148.961
  0
LINE
  8
0
 10
10.4619
 20
148.961
 11
10.8254
 21
148.817
  0
LINE
  8
0
 10
10.8254
 20
148.817
 11
11.168
 21
148.628
  0
LINE
  8
0
 10
11.168
 20
148.628
 11
11.4842
 21
148.399
  0
LINE
  8
0
 10
11.4842
 20
148.399
 11
11.7692
 21
148.131
  0
LINE
  8
0
 10
11.7692
 20
148.131
 11
12.0184
 21
147.83
  0
LINE
  8
0
 10
12.0184
 20
147.83
 11
12.2279
 21
147.5
  0
LINE
  8
0
 10
12.2279
 20
147.5
 11
12.3943
 21
147.146
  0
LINE
  8
0
 10
12.3943
 20
147.146
 11
12.5151
 21
146.774
  0
LINE
  8
0
 10
12.5151
 20
146.774
 11
12.5884
 21
146.39
  0
LINE
  8
0
 10
12.5884
 20
146.39
 11
12.6129
 21
146
  0
LINE
  8
0
 10
12.6129
 20
146
 11
12.6129
 21
142
  0
LINE
  8
0
 10
12.6129
 20
142
 11
12.5884
 21
141.61
  0
LINE
  8
0
 10
12.5884
 20
141.61
 11
12.5151
 21
141.226
  0
LINE
  8
0
 10
12.5151
 20
141.226
 11
12.3943
 21
140.854
  0
LINE
  8
0
 10
12.3943
 20
140.854
 11
12.2279
 21
140.5
  0
LINE
  8
0
 10
12.2279
 20
140.5
 11
12.0184
 21
140.17
  0
LINE
  8
0
 10
12.0184
 20
140.17
 11
11.7692
 21
139.869
  0
LINE
  8
0
 10
11.7692
 20
139.869
 11
11.4842
 21
139.601
  0
LINE
  8
0
 10
11.4842
 20
139.601
 11
11.168
 21
139.372
  0
LINE
  8
0
 10
11.168
 20
139.372
 11
10.8254
 21
139.183
  0
LINE
  8
0
 10
10.8254
 20
139.183
 11
10.4619
 21
139.039
  0
LINE
  8
0
 10
10.4619
 20
139.039
 11
10.0833
 21
138.942
  0
LINE
  8
0
 10
10.0833
 20
138.942
 11
9.69545
 21
138.893
  0
LINE
  8
0
 10
9.69545
 20
138.893
 11
-9.69545
 21
138.893
  0
LINE
  8
0
 10
10.9369
 20
112.589
 11
11.5451
 21
112.745
  0
LINE
  8
0
 10
11.5451
 20
112.745
 11
12.1289
 21
112.976
  0
LINE
  8
0
 10
12.1289
 20
112.976
 11
12.6791
 21
113.278
  0
LINE
  8
0
 10
12.6791
 20
113.278
 11
13.1871
 21
113.647
  0
LINE
  8
0
 10
13.1871
 20
113.647
 11
13.6448
 21
114.077
  0
LINE
  8
0
 10
13.6448
 20
114.077
 11
14.0451
 21
114.561
  0
LINE
  8
0
 10
14.0451
 20
114.561
 11
14.3815
 21
115.091
  0
LINE
  8
0
 10
14.3815
 20
115.091
 11
14.6489
 21
115.659
  0
LINE
  8
0
 10
14.6489
 20
115.659
 11
14.8429
 21
116.257
  0
LINE
  8
0
 10
14.8429
 20
116.257
 11
14.9606
 21
116.873
  0
LINE
  8
0
 10
14.9606
 20
116.873
 11
15
 21
117.5
  0
LINE
  8
0
 10
15
 20
117.5
 11
15
 21
122.5
  0
LINE
  8
0
 10
15
 20
122.5
 11
14.9606
 21
123.127
  0
LINE
  8
0
 10
14.9606
 20
123.127
 11
14.8429
 21
123.743
  0
LINE
  8
0
 10
14.8429
 20
123.743
 11
14.6489
 21
124.341
  0
LINE
  8
0
 10
14.6489
 20
124.341
 11
14.3815
 21
124.909
  0
LINE
  8
0
 10
14.3815
 20
124.909
 11
14.0451
 21
125.439
  0
LINE
  8
0
 10
14.0451
 20
125.439
 11
13.6448
 21
125.923
  0
LINE
  8
0
 10
13.6448
 20
125.923
 11
13.1871
 21
126.353
  0
LINE
  8
0
 10
13.1871
 20
126.353
 11
12.6791
 21
126.722
  0
LINE
  8
0
 10
12.6791
 20
126.722
 11
12.1289
 21
127.024
  0
LINE
  8
0
 10
12.1289
 20
127.024
 11
11.5451
 21
127.255
  0
LINE
  8
0
 10
11.5451
 20
127.255
 11
10.9369
 21
127.411
  0
LINE
  8
0
 10
10.9369
 20
127.411
 11
10.3139
 21
127.49
  0
LINE
  8
0
 10
10.3139
 20
127.49
 11
-10.3139
 21
127.49
  0
LINE
  8
0
 10
-10.3139
 20
127.49
 11
-10.9369
 21
127.411
  0
LINE
  8
0
 10
-10.9369
 20
127.411
 11
-11.5451
 21
127.255
  0
LINE
  8
0
 10
-11.5451
 20
127.255
 11
-12.1289
 21
127.024
  0
LINE
  8
0
 10
-12.1289
 20
127.024
 11
-12.6791
 21
126.722
  0
LINE
  8
0
 10
-12.6791
 20
126.722
 11
-13.1871
 21
126.353
  0
LINE
  8
0
 10
-13.1871
 20
126.353
 11
-13.5
 21
126.059
  0
LINE
  8
0
 10
-13.5
 20
126.059
 11
-13.5
 21
126.153
  0
LINE
  8
0
 10
-13.5
 20
126.153
 11
-16.5
 21
126.153
  0
LINE
  8
0
 10
-16.5
 20
126.153
 11
-16.5
 21
113.847
  0
LINE
  8
0
 10
-16.5
 20
113.847
 11
-13.5
 21
113.847
  0
LINE
  8
0
 10
-13.5
 20
113.847
 11
-13.5
 21
113.941
  0
LINE
  8
0
 10
-13.5
 20
113.941
 11
-13.1871
 21
113.647
  0
LINE
  8
0
 10
-13.1871
 20
113.647
 11
-12.6791
 21
113.278
  0
LINE
  8
0
 10
-12.6791
 20
113.278
 11
-12.1289
 21
112.976
  0
LINE
  8
0
 10
-12.1289
 20
112.976
 11
-11.5451
 21
112.745
  0
LINE
  8
0
 10
-11.5451
 20
112.745
 11
-10.9369
 21
112.589
  0
LINE
  8
0
 10
-10.9369
 20
112.589
 11
-10.3139
 21
112.51
  0
LINE
  8
0
 10
-10.3139
 20
112.51
 11
10.3139
 21
112.51
  0
LINE
  8
0
 10
10.3139
 20
112.51
 11
10.9369
 21
112.589
  0
LINE
  8
0
 10
-7.63406
 20
117.869
 11
-7.9001
 21
117.903
  0
LINE
  8
0
 10
-7.9001
 20
117.903
 11
-8.15984
 21
117.969
  0
LINE
  8
0
 10
-8.15984
 20
117.969
 11
-8.40915
 21
118.068
  0
LINE
  8
0
 10
-8.40915
 20
118.068
 11
-8.64413
 21
118.197
  0
LINE
  8
0
 10
-8.64413
 20
118.197
 11
-8.86108
 21
118.355
  0
LINE
  8
0
 10
-8.86108
 20
118.355
 11
-9.05655
 21
118.538
  0
LINE
  8
0
 10
-9.05655
 20
118.538
 11
-9.22748
 21
118.745
  0
LINE
  8
0
 10
-9.22748
 20
118.745
 11
-9.37117
 21
118.971
  0
LINE
  8
0
 10
-9.37117
 20
118.971
 11
-9.48534
 21
119.214
  0
LINE
  8
0
 10
-9.48534
 20
119.214
 11
-9.56821
 21
119.469
  0
LINE
  8
0
 10
-9.56821
 20
119.469
 11
-9.61845
 21
119.732
  0
LINE
  8
0
 10
-9.61845
 20
119.732
 11
-9.63528
 21
120
  0
LINE
  8
0
 10
-9.63528
 20
120
 11
-9.61845
 21
120.268
  0
LINE
  8
0
 10
-9.61845
 20
120.268
 11
-9.56821
 21
120.531
  0
LINE
  8
0
 10
-9.56821
 20
120.531
 11
-9.48534
 21
120.786
  0
LINE
  8
0
 10
-9.48534
 20
120.786
 11
-9.37117
 21
121.029
  0
LINE
  8
0
 10
-9.37117
 20
121.029
 11
-9.22748
 21
121.255
  0
LINE
  8
0
 10
-9.22748
 20
121.255
 11
-9.05655
 21
121.462
  0
LINE
  8
0
 10
-9.05655
 20
121.462
 11
-8.86108
 21
121.645
  0
LINE
  8
0
 10
-8.86108
 20
121.645
 11
-8.64413
 21
121.803
  0
LINE
  8
0
 10
-8.64413
 20
121.803
 11
-8.40915
 21
121.932
  0
LINE
  8
0
 10
-8.40915
 20
121.932
 11
-8.15984
 21
122.031
  0
LINE
  8
0
 10
-8.15984
 20
122.031
 11
-7.9001
 21
122.097
  0
LINE
  8
0
 10
-7.9001
 20
122.097
 11
-7.63406
 21
122.131
  0
LINE
  8
0
 10
-7.63406
 20
122.131
 11
-7.36592
 21
122.131
  0
LINE
  8
0
 10
-7.36592
 20
122.131
 11
-7.09988
 21
122.097
  0
LINE
  8
0
 10
-7.09988
 20
122.097
 11
-6.84015
 21
122.031
  0
LINE
  8
0
 10
-6.84015
 20
122.031
 11
-6.59084
 21
121.932
  0
LINE
  8
0
 10
-6.59084
 20
121.932
 11
-6.35585
 21
121.803
  0
LINE
  8
0
 10
-6.35585
 20
121.803
 11
-6.1389
 21
121.645
  0
LINE
  8
0
 10
-6.1389
 20
121.645
 11
-5.94344
 21
121.462
  0
LINE
  8
0
 10
-5.94344
 20
121.462
 11
-5.77251
 21
121.255
  0
LINE
  8
0
 10
-5.77251
 20
121.255
 11
-5.62881
 21
121.029
  0
LINE
  8
0
 10
-5.62881
 20
121.029
 11
-5.51465
 21
120.786
  0
LINE
  8
0
 10
-5.51465
 20
120.786
 11
-5.43178
 21
120.531
  0
LINE
  8
0
 10
-5.43178
 20
120.531
 11
-5.38153
 21
120.268
  0
LINE
  8
0
 10
-5.38153
 20
120.268
 11
-5.3647
 21
120
  0
LINE
  8
0
 10
-5.3647
 20
120
 11
-5.38153
 21
119.732
  0
LINE
  8
0
 10
-5.38153
 20
119.732
 11
-5.43178
 21
119.469
  0
LINE
  8
0
 10
-5.43178
 20
119.469
 11
-5.51465
 21
119.214
  0
LINE
  8
0
 10
-5.51465
 20
119.214
 11
-5.62881
 21
118.971
  0
LINE
  8
0
 10
-5.62881
 20
118.971
 11
-5.77251
 21
118.745
  0
LINE
  8
0
 10
-5.77251
 20
118.745
 11
-5.94344
 21
118.538
  0
LINE
  8
0
 10
-5.94344
 20
118.538
 11
-6.1389
 21
118.355
  0
LINE
  8
0
 10
-6.1389
 20
118.355
 11
-6.35585
 21
118.197
  0
LINE
  8
0
 10
-6.35585
 20
118.197
 11
-6.59084
 21
118.068
  0
LINE
  8
0
 10
-6.59084
 20
118.068
 11
-6.84015
 21
117.969
  0
LINE
  8
0
 10
-6.84015
 20
117.969
 11
-7.09988
 21
117.903
  0
LINE
  8
0
 10
-7.09988
 20
117.903
 11
-7.36592
 21
117.869
  0
LINE
  8
0
 10
-7.36592
 20
117.869
 11
-7.63406
 21
117.869
  0
LINE
  8
0
 10
7.36592
 20
117.869
 11
7.09988
 21
117.903
  0
LINE
  8
0
 10
7.09988
 20
117.903
 11
6.84015
 21
117.969
  0
LINE
  8
0
 10
6.84015
 20
117.969
 11
6.59084
 21
118.068
  0
LINE
  8
0
 10
6.59084
 20
118.068
 11
6.35585
 21
118.197
  0
LINE
  8
0
 10
6.35585
 20
118.197
 11
6.1389
 21
118.355
  0
LINE
  8
0
 10
6.1389
 20
118.355
 11
5.94344
 21
118.538
  0
LINE
  8
0
 10
5.94344
 20
118.538
 11
5.77251
 21
118.745
  0
LINE
  8
0
 10
5.77251
 20
118.745
 11
5.62881
 21
118.971
  0
LINE
  8
0
 10
5.62881
 20
118.971
 11
5.51465
 21
119.214
  0
LINE
  8
0
 10
5.51465
 20
119.214
 11
5.43178
 21
119.469
  0
LINE
  8
0
 10
5.43178
 20
119.469
 11
5.38153
 21
119.732
  0
LINE
  8
0
 10
5.38153
 20
119.732
 11
5.3647
 21
120
  0
LINE
  8
0
 10
5.3647
 20
120
 11
5.38153
 21
120.268
  0
LINE
  8
0
 10
5.38153
 20
120.268
 11
5.43178
 21
120.531
  0
LINE
  8
0
 10
5.43178
 20
120.531
 11
5.51465
 21
120.786
  0
LINE
  8
0
 10
5.51465
 20
120.786
 11
5.62881
 21
121.029
  0
LINE
  8
0
 10
5.62881
 20
121.029
 11
5.77251
 21
121.255
  0
LINE
  8
0
 10
5.77251
 20
121.255
 11
5.94344
 21
121.462
  0
LINE
  8
0
 10
5.94344
 20
121.462
 11
6.1389
 21
121.645
  0
LINE
  8
0
 10
6.1389
 20
121.645
 11
6.35585
 21
121.803
  0
LINE
  8
0
 10
6.35585
 20
121.803
 11
6.59084
 21
121.932
  0
LINE
  8
0
 10
6.59084
 20
121.932
 11
6.84015
 21
122.031
  0
LINE
  8
0
 10
6.84015
 20
122.031
 11
7.09988
 21
122.097
  0
LINE
  8
0
 10
7.09988
 20
122.097
 11
7.36592
 21
122.131
  0
LINE
  8
0
 10
7.36592
 20
122.131
 11
7.63406
 21
122.131
  0
LINE
  8
0
 10
7.63406
 20
122.131
 11
7.9001
 21
122.097
  0
LINE
  8
0
 10
7.9001
 20
122.097
 11
8.15984
 21
122.031
  0
LINE
  8
0
 10
8.15984
 20
122.031
 11
8.40915
 21
121.932
  0
LINE
  8
0
 10
8.40915
 20
121.932
 11
8.64413
 21
121.803
  0
LINE
  8
0
 10
8.64413
 20
121.803
 11
8.86108
 21
121.645
  0
LINE
  8
0
 10
8.86108
 20
121.645
 11
9.05655
 21
121.462
  0
LINE
  8
0
 10
9.05655
 20
121.462
 11
9.22748
 21
121.255
  0
LINE
  8
0
 10
9.22748
 20
121.255
 11
9.37117
 21
121.029
  0
LINE
  8
0
 10
9.37117
 20
121.029
 11
9.48534
 21
120.786
  0
LINE
  8
0
 10
9.48534
 20
120.786
 11
9.56821
 21
120.531
  0
LINE
  8
0
 10
9.56821
 20
120.531
 11
9.61845
 21
120.268
  0
LINE
  8
0
 10
9.61845
 20
120.268
 11
9.63528
 21
120
  0
LINE
  8
0
 10
9.63528
 20
120
 11
9.61845
 21
119.732
  0
LINE
  8
0
 10
9.61845
 20
119.732
 11
9.56821
 21
119.469
  0
LINE
  8
0
 10
9.56821
 20
119.469
 11
9.48534
 21
119.214
  0
LINE
  8
0
 10
9.48534
 20
119.214
 11
9.37117
 21
118.971
  0
LINE
  8
0
 10
9.37117
 20
118.971
 11
9.22748
 21
118.745
  0
LINE
  8
0
 10
9.22748
 20
118.745
 11
9.05655
 21
118.538
  0
LINE
  8
0
 10
9.05655
 20
118.538
 11
8.86108
 21
118.355
  0
LINE
  8
0
 10
8.86108
 20
118.355
 11
8.64413
 21
118.197
  0
LINE
  8
0
 10
8.64413
 20
118.197
 11
8.40915
 21
118.068
  0
LINE
  8
0
 10
8.40915
 20
118.068
 11
8.15984
 21
117.969
  0
LINE
  8
0
 10
8.15984
 20
117.969
 11
7.9001
 21
117.903
  0
LINE
  8
0
 10
7.9001
 20
117.903
 11
7.63406
 21
117.869
  0
LINE
  8
0
 10
7.63406
 20
117.869
 11
7.36592
 21
117.869
  0
ENDSEC
  0
SECTION
  2
OBJECTS
  0
DICTIONARY
  0
ENDSEC
  0
EOF
