<?xml version="1.0" standalone="no"?>
<!DOCTYPE svg PUBLIC "-//W3C//DTD SVG 1.1//EN" "http://www.w3.org/Graphics/SVG/1.1/DTD/svg11.dtd">
<svg width="30mm" height="340mm" viewBox="-15 -431 30 340" xmlns="http://www.w3.org/2000/svg" version="1.1">
<title>OpenSCAD Model</title>
<path d="
M 10.9369,-265.589 L 11.5451,-265.745 L 12.1289,-265.976 L 12.6791,-266.278 L 13.1871,-266.647 L 13.6448,-267.077
 L 14.0451,-267.561 L 14.3815,-268.091 L 14.6489,-268.659 L 14.8429,-269.257 L 14.9606,-269.873 L 15,-270.5
 L 15,-425.5 L 14.9606,-426.127 L 14.8429,-426.743 L 14.6489,-427.341 L 14.3815,-427.909 L 14.0451,-428.439
 L 13.6448,-428.923 L 13.1871,-429.353 L 12.6791,-429.722 L 12.1289,-430.024 L 11.5451,-430.255 L 10.9369,-430.411
 L 10.3139,-430.49 L -10.3139,-430.49 L -10.9369,-430.411 L -11.5451,-430.255 L -12.1289,-430.024 L -12.6791,-429.722
 L -13.1871,-429.353 L -13.6448,-428.923 L -14.0451,-428.439 L -14.3815,-427.909 L -14.6489,-427.341 L -14.8429,-426.743
 L -14.9606,-426.127 L -15,-425.5 L -15,-270.5 L -14.9606,-269.873 L -14.8429,-269.257 L -14.6489,-268.659
 L -14.3815,-268.091 L -14.0451,-267.561 L -13.6448,-267.077 L -13.1871,-266.647 L -12.6791,-266.278 L -12.1289,-265.976
 L -11.5451,-265.745 L -10.9369,-265.589 L -10.3139,-265.51 L 10.3139,-265.51 z
M 10.9369,-91.5886 L 11.5451,-91.7447 L 12.1289,-91.9759 L 12.6791,-92.2784 L 13.1871,-92.6474 L 13.6448,-93.0773
 L 14.0451,-93.5611 L 14.3815,-94.0912 L 14.6489,-94.6594 L 14.8429,-95.2566 L 14.9606,-95.8733 L 15,-96.5
 L 15,-251.5 L 14.9606,-252.127 L 14.8429,-252.743 L 14.6489,-253.341 L 14.3815,-253.909 L 14.0451,-254.439
 L 13.6448,-254.923 L 13.1871,-255.353 L 12.6791,-255.722 L 12.1289,-256.024 L 11.5451,-256.255 L 10.9369,-256.411
 L 10.3139,-256.49 L -10.3139,-256.49 L -10.9369,-256.411 L -11.5451,-256.255 L -12.1289,-256.024 L -12.6791,-255.722
 L -13.1871,-255.353 L -13.6448,-254.923 L -14.0451,-254.439 L -14.3815,-253.909 L -14.6489,-253.341 L -14.8429,-252.743
 L -14.9606,-252.127 L -15,-251.5 L -15,-96.5 L -14.9606,-95.8733 L -14.8429,-95.2566 L -14.6489,-94.6594
 L -14.3815,-94.0912 L -14.0451,-93.5611 L -13.6448,-93.0773 L -13.1871,-92.6474 L -12.6791,-92.2784 L -12.1289,-91.9759
 L -11.5451,-91.7447 L -10.9369,-91.5886 L -10.3139,-91.5099 L 10.3139,-91.5099 z
M 7.38696,-247.204 L 7.1627,-247.232 L 6.94376,-247.288 L 6.7336,-247.371 L 6.53551,-247.48 L 6.35263,-247.613
 L 6.18785,-247.768 L 6.04376,-247.942 L 5.92264,-248.133 L 5.8264,-248.337 L 5.75655,-248.552 L 5.71419,-248.774
 L 5.7,-249 L 5.71419,-249.226 L 5.75655,-249.448 L 5.8264,-249.663 L 5.92264,-249.867 L 6.04376,-250.058
 L 6.18785,-250.232 L 6.35263,-250.387 L 6.53551,-250.52 L 6.7336,-250.629 L 6.94376,-250.712 L 7.1627,-250.768
 L 7.38696,-250.796 L 7.61302,-250.796 L 7.83728,-250.768 L 8.05623,-250.712 L 8.26639,-250.629 L 8.46448,-250.52
 L 8.64735,-250.387 L 8.81213,-250.232 L 8.95622,-250.058 L 9.07735,-249.867 L 9.17358,-249.663 L 9.24344,-249.448
 L 9.2858,-249.226 L 9.29999,-249 L 9.2858,-248.774 L 9.24344,-248.552 L 9.17358,-248.337 L 9.07735,-248.133
 L 8.95622,-247.942 L 8.81213,-247.768 L 8.64735,-247.613 L 8.46448,-247.48 L 8.26639,-247.371 L 8.05623,-247.288
 L 7.83728,-247.232 L 7.61302,-247.204 z
M -7.61302,-247.204 L -7.83728,-247.232 L -8.05623,-247.288 L -8.26639,-247.371 L -8.46448,-247.48 L -8.64735,-247.613
 L -8.81213,-247.768 L -8.95622,-247.942 L -9.07735,-248.133 L -9.17358,-248.337 L -9.24344,-248.552 L -9.2858,-248.774
 L -9.29999,-249 L -9.2858,-249.226 L -9.24344,-249.448 L -9.17358,-249.663 L -9.07735,-249.867 L -8.95622,-250.058
 L -8.81213,-250.232 L -8.64735,-250.387 L -8.46448,-250.52 L -8.26639,-250.629 L -8.05623,-250.712 L -7.83728,-250.768
 L -7.61302,-250.796 L -7.38696,-250.796 L -7.1627,-250.768 L -6.94376,-250.712 L -6.7336,-250.629 L -6.53551,-250.52
 L -6.35263,-250.387 L -6.18785,-250.232 L -6.04376,-250.058 L -5.92264,-249.867 L -5.8264,-249.663 L -5.75655,-249.448
 L -5.71419,-249.226 L -5.7,-249 L -5.71419,-248.774 L -5.75655,-248.552 L -5.8264,-248.337 L -5.92264,-248.133
 L -6.04376,-247.942 L -6.18785,-247.768 L -6.35263,-247.613 L -6.53551,-247.48 L -6.7336,-247.371 L -6.94376,-247.288
 L -7.1627,-247.232 L -7.38696,-247.204 z
M -7.61302,-97.2036 L -7.83728,-97.2319 L -8.05623,-97.2881 L -8.26639,-97.3713 L -8.46448,-97.4802 L -8.64735,-97.6131
 L -8.81213,-97.7678 L -8.95622,-97.942 L -9.07735,-98.1328 L -9.17358,-98.3374 L -9.24344,-98.5524 L -9.2858,-98.7744
 L -9.29999,-99 L -9.2858,-99.2256 L -9.24344,-99.4476 L -9.17358,-99.6626 L -9.07735,-99.8672 L -8.95622,-100.058
 L -8.81213,-100.232 L -8.64735,-100.387 L -8.46448,-100.52 L -8.26639,-100.629 L -8.05623,-100.712 L -7.83728,-100.768
 L -7.61302,-100.796 L -7.38696,-100.796 L -7.1627,-100.768 L -6.94376,-100.712 L -6.7336,-100.629 L -6.53551,-100.52
 L -6.35263,-100.387 L -6.18785,-100.232 L -6.04376,-100.058 L -5.92264,-99.8672 L -5.8264,-99.6626 L -5.75655,-99.4476
 L -5.71419,-99.2256 L -5.7,-99 L -5.71419,-98.7744 L -5.75655,-98.5524 L -5.8264,-98.3374 L -5.92264,-98.1328
 L -6.04376,-97.942 L -6.18785,-97.7678 L -6.35263,-97.6131 L -6.53551,-97.4802 L -6.7336,-97.3713 L -6.94376,-97.2881
 L -7.1627,-97.2319 L -7.38696,-97.2036 z
M 7.38696,-97.2036 L 7.1627,-97.2319 L 6.94376,-97.2881 L 6.7336,-97.3713 L 6.53551,-97.4802 L 6.35263,-97.6131
 L 6.18785,-97.7678 L 6.04376,-97.942 L 5.92264,-98.1328 L 5.8264,-98.3374 L 5.75655,-98.5524 L 5.71419,-98.7744
 L 5.7,-99 L 5.71419,-99.2256 L 5.75655,-99.4476 L 5.8264,-99.6626 L 5.92264,-99.8672 L 6.04376,-100.058
 L 6.18785,-100.232 L 6.35263,-100.387 L 6.53551,-100.52 L 6.7336,-100.629 L 6.94376,-100.712 L 7.1627,-100.768
 L 7.38696,-100.796 L 7.61302,-100.796 L 7.83728,-100.768 L 8.05623,-100.712 L 8.26639,-100.629 L 8.46448,-100.52
 L 8.64735,-100.387 L 8.81213,-100.232 L 8.95622,-100.058 L 9.07735,-99.8672 L 9.17358,-99.6626 L 9.24344,-99.4476
 L 9.2858,-99.2256 L 9.29999,-99 L 9.2858,-98.7744 L 9.24344,-98.5524 L 9.17358,-98.3374 L 9.07735,-98.1328
 L 8.95622,-97.942 L 8.81213,-97.7678 L 8.64735,-97.6131 L 8.46448,-97.4802 L 8.26639,-97.3713 L 8.05623,-97.2881
 L 7.83728,-97.2319 L 7.61302,-97.2036 z
" stroke="black" fill="lightgray" stroke-width="0.5"/>
</svg>
