  0
SECTION
  2
BLOCKS
  0
ENDSEC
  0
SECTION
  2
ENTITIES
  0
LINE
  8
0
 10
17.9369
 20
179.089
 11
18.5451
 21
179.245
  0
LINE
  8
0
 10
18.5451
 20
179.245
 11
19.1289
 21
179.476
  0
LINE
  8
0
 10
19.1289
 20
179.476
 11
19.6791
 21
179.778
  0
LINE
  8
0
 10
19.6791
 20
179.778
 11
20.1871
 21
180.147
  0
LINE
  8
0
 10
20.1871
 20
180.147
 11
20.6448
 21
180.577
  0
LINE
  8
0
 10
20.6448
 20
180.577
 11
21.0451
 21
181.061
  0
LINE
  8
0
 10
21.0451
 20
181.061
 11
21.3815
 21
181.591
  0
LINE
  8
0
 10
21.3815
 20
181.591
 11
21.6489
 21
182.159
  0
LINE
  8
0
 10
21.6489
 20
182.159
 11
21.8429
 21
182.757
  0
LINE
  8
0
 10
21.8429
 20
182.757
 11
21.9606
 21
183.373
  0
LINE
  8
0
 10
21.9606
 20
183.373
 11
22
 21
184
  0
LINE
  8
0
 10
22
 20
184
 11
22
 21
188
  0
LINE
  8
0
 10
22
 20
188
 11
21.9606
 21
188.627
  0
LINE
  8
0
 10
21.9606
 20
188.627
 11
21.8429
 21
189.243
  0
LINE
  8
0
 10
21.8429
 20
189.243
 11
21.6489
 21
189.841
  0
LINE
  8
0
 10
21.6489
 20
189.841
 11
21.3815
 21
190.409
  0
LINE
  8
0
 10
21.3815
 20
190.409
 11
21.0451
 21
190.939
  0
LINE
  8
0
 10
21.0451
 20
190.939
 11
20.6448
 21
191.423
  0
LINE
  8
0
 10
20.6448
 20
191.423
 11
20.1871
 21
191.853
  0
LINE
  8
0
 10
20.1871
 20
191.853
 11
19.6791
 21
192.222
  0
LINE
  8
0
 10
19.6791
 20
192.222
 11
19.1289
 21
192.524
  0
LINE
  8
0
 10
19.1289
 20
192.524
 11
18.5451
 21
192.755
  0
LINE
  8
0
 10
18.5451
 20
192.755
 11
17.9369
 21
192.911
  0
LINE
  8
0
 10
17.9369
 20
192.911
 11
17.3139
 21
192.99
  0
LINE
  8
0
 10
17.3139
 20
192.99
 11
16
 21
192.99
  0
LINE
  8
0
 10
16
 20
192.99
 11
16
 21
206
  0
LINE
  8
0
 10
16
 20
206
 11
15.9685
 21
206.5
  0
LINE
  8
0
 10
15.9685
 20
206.5
 11
14.8647
 21
206.5
  0
LINE
  8
0
 10
14.8647
 20
206.5
 11
14.8763
 21
206.518
  0
LINE
  8
0
 10
14.8763
 20
206.518
 11
14.9298
 21
206.632
  0
LINE
  8
0
 10
14.9298
 20
206.632
 11
14.9686
 21
206.751
  0
LINE
  8
0
 10
14.9686
 20
206.751
 11
14.9921
 21
206.875
  0
LINE
  8
0
 10
14.9921
 20
206.875
 11
15
 21
207
  0
LINE
  8
0
 10
15
 20
207
 11
14.9921
 21
207.125
  0
LINE
  8
0
 10
14.9921
 20
207.125
 11
14.9686
 21
207.249
  0
LINE
  8
0
 10
14.9686
 20
207.249
 11
14.9298
 21
207.368
  0
LINE
  8
0
 10
14.9298
 20
207.368
 11
14.8763
 21
207.482
  0
LINE
  8
0
 10
14.8763
 20
207.482
 11
14.809
 21
207.588
  0
LINE
  8
0
 10
14.809
 20
207.588
 11
14.729
 21
207.685
  0
LINE
  8
0
 10
14.729
 20
207.685
 11
14.6374
 21
207.771
  0
LINE
  8
0
 10
14.6374
 20
207.771
 11
14.5358
 21
207.844
  0
LINE
  8
0
 10
14.5358
 20
207.844
 11
14.4258
 21
207.905
  0
LINE
  8
0
 10
14.4258
 20
207.905
 11
14.309
 21
207.951
  0
LINE
  8
0
 10
14.309
 20
207.951
 11
14.1874
 21
207.982
  0
LINE
  8
0
 10
14.1874
 20
207.982
 11
14.0628
 21
207.998
  0
LINE
  8
0
 10
14.0628
 20
207.998
 11
8.93719
 21
207.998
  0
LINE
  8
0
 10
8.93719
 20
207.998
 11
8.81261
 21
207.982
  0
LINE
  8
0
 10
8.81261
 20
207.982
 11
8.69098
 21
207.951
  0
LINE
  8
0
 10
8.69098
 20
207.951
 11
8.57422
 21
207.905
  0
LINE
  8
0
 10
8.57422
 20
207.905
 11
8.46417
 21
207.844
  0
LINE
  8
0
 10
8.46417
 20
207.844
 11
8.36256
 21
207.771
  0
LINE
  8
0
 10
8.36256
 20
207.771
 11
8.27103
 21
207.685
  0
LINE
  8
0
 10
8.27103
 20
207.685
 11
8.19098
 21
207.588
  0
LINE
  8
0
 10
8.19098
 20
207.588
 11
8.12369
 21
207.482
  0
LINE
  8
0
 10
8.12369
 20
207.482
 11
8.07022
 21
207.368
  0
LINE
  8
0
 10
8.07022
 20
207.368
 11
8.0314
 21
207.249
  0
LINE
  8
0
 10
8.0314
 20
207.249
 11
8.00787
 21
207.125
  0
LINE
  8
0
 10
8.00787
 20
207.125
 11
8
 21
207
  0
LINE
  8
0
 10
8
 20
207
 11
8.00787
 21
206.875
  0
LINE
  8
0
 10
8.00787
 20
206.875
 11
8.0314
 21
206.751
  0
LINE
  8
0
 10
8.0314
 20
206.751
 11
8.07022
 21
206.632
  0
LINE
  8
0
 10
8.07022
 20
206.632
 11
8.12369
 21
206.518
  0
LINE
  8
0
 10
8.12369
 20
206.518
 11
8.19098
 21
206.412
  0
LINE
  8
0
 10
8.19098
 20
206.412
 11
8.27103
 21
206.315
  0
LINE
  8
0
 10
8.27103
 20
206.315
 11
8.36256
 21
206.229
  0
LINE
  8
0
 10
8.36256
 20
206.229
 11
8.46417
 21
206.156
  0
LINE
  8
0
 10
8.46417
 20
206.156
 11
8.57422
 21
206.095
  0
LINE
  8
0
 10
8.57422
 20
206.095
 11
8.69098
 21
206.049
  0
LINE
  8
0
 10
8.69098
 20
206.049
 11
8.81261
 21
206.018
  0
LINE
  8
0
 10
8.81261
 20
206.018
 11
8.93719
 21
206.002
  0
LINE
  8
0
 10
8.93719
 20
206.002
 11
9.75
 21
206.002
  0
LINE
  8
0
 10
9.75
 20
206.002
 11
9.75
 21
206
  0
LINE
  8
0
 10
9.75
 20
206
 11
8.92627
 21
206
  0
LINE
  8
0
 10
8.92627
 20
206
 11
10.07
 21
204.926
  0
LINE
  8
0
 10
10.07
 20
204.926
 11
11.2307
 21
203.523
  0
LINE
  8
0
 10
11.2307
 20
203.523
 11
12.2064
 21
201.985
  0
LINE
  8
0
 10
12.2064
 20
201.985
 11
12.9818
 21
200.338
  0
LINE
  8
0
 10
12.9818
 20
200.338
 11
13.5444
 21
198.606
  0
LINE
  8
0
 10
13.5444
 20
198.606
 11
13.8857
 21
196.817
  0
LINE
  8
0
 10
13.8857
 20
196.817
 11
14
 21
195
  0
LINE
  8
0
 10
14
 20
195
 11
13.8857
 21
193.183
  0
LINE
  8
0
 10
13.8857
 20
193.183
 11
13.5444
 21
191.394
  0
LINE
  8
0
 10
13.5444
 20
191.394
 11
12.9818
 21
189.662
  0
LINE
  8
0
 10
12.9818
 20
189.662
 11
12.2064
 21
188.015
  0
LINE
  8
0
 10
12.2064
 20
188.015
 11
11.2307
 21
186.477
  0
LINE
  8
0
 10
11.2307
 20
186.477
 11
10.07
 21
185.074
  0
LINE
  8
0
 10
10.07
 20
185.074
 11
8.74265
 21
183.828
  0
LINE
  8
0
 10
8.74265
 20
183.828
 11
7.26949
 21
182.757
  0
LINE
  8
0
 10
7.26949
 20
182.757
 11
5.6738
 21
181.88
  0
LINE
  8
0
 10
5.6738
 20
181.88
 11
3.98074
 21
181.21
  0
LINE
  8
0
 10
3.98074
 20
181.21
 11
2.21703
 21
180.757
  0
LINE
  8
0
 10
2.21703
 20
180.757
 11
0.410461
 21
180.529
  0
LINE
  8
0
 10
0.410461
 20
180.529
 11
-1.41046
 21
180.529
  0
LINE
  8
0
 10
-1.41046
 20
180.529
 11
-3.21703
 21
180.757
  0
LINE
  8
0
 10
-3.21703
 20
180.757
 11
-4.98074
 21
181.21
  0
LINE
  8
0
 10
-4.98074
 20
181.21
 11
-6.6738
 21
181.88
  0
LINE
  8
0
 10
-6.6738
 20
181.88
 11
-8.26949
 21
182.757
  0
LINE
  8
0
 10
-8.26949
 20
182.757
 11
-9.74265
 21
183.828
  0
LINE
  8
0
 10
-9.74265
 20
183.828
 11
-11.07
 21
185.074
  0
LINE
  8
0
 10
-11.07
 20
185.074
 11
-12.2307
 21
186.477
  0
LINE
  8
0
 10
-12.2307
 20
186.477
 11
-13.2064
 21
188.015
  0
LINE
  8
0
 10
-13.2064
 20
188.015
 11
-13.9818
 21
189.662
  0
LINE
  8
0
 10
-13.9818
 20
189.662
 11
-14.5444
 21
191.394
  0
LINE
  8
0
 10
-14.5444
 20
191.394
 11
-14.8857
 21
193.183
  0
LINE
  8
0
 10
-14.8857
 20
193.183
 11
-15
 21
195
  0
LINE
  8
0
 10
-15
 20
195
 11
-14.8857
 21
196.817
  0
LINE
  8
0
 10
-14.8857
 20
196.817
 11
-14.5444
 21
198.606
  0
LINE
  8
0
 10
-14.5444
 20
198.606
 11
-13.9818
 21
200.338
  0
LINE
  8
0
 10
-13.9818
 20
200.338
 11
-13.2064
 21
201.985
  0
LINE
  8
0
 10
-13.2064
 20
201.985
 11
-12.2307
 21
203.523
  0
LINE
  8
0
 10
-12.2307
 20
203.523
 11
-11.07
 21
204.926
  0
LINE
  8
0
 10
-11.07
 20
204.926
 11
-9.74265
 21
206.172
  0
LINE
  8
0
 10
-9.74265
 20
206.172
 11
-8.26949
 21
207.243
  0
LINE
  8
0
 10
-8.26949
 20
207.243
 11
-6.6738
 21
208.12
  0
LINE
  8
0
 10
-6.6738
 20
208.12
 11
-4.98074
 21
208.79
  0
LINE
  8
0
 10
-4.98074
 20
208.79
 11
-3.21703
 21
209.243
  0
LINE
  8
0
 10
-3.21703
 20
209.243
 11
-1.41046
 21
209.471
  0
LINE
  8
0
 10
-1.41046
 20
209.471
 11
0
 21
209.471
  0
LINE
  8
0
 10
0
 20
209.471
 11
0
 21
209.5
  0
LINE
  8
0
 10
0
 20
209.5
 11
1.24998
 21
209.5
  0
LINE
  8
0
 10
1.24998
 20
209.5
 11
-0.240128
 21
210.99
  0
LINE
  8
0
 10
-0.240128
 20
210.99
 11
-1.5
 21
210.99
  0
LINE
  8
0
 10
-1.5
 20
210.99
 11
-1.5
 21
210.5
  0
LINE
  8
0
 10
-1.5
 20
210.5
 11
-15.5
 21
210.5
  0
LINE
  8
0
 10
-15.5
 20
210.5
 11
-15.5
 21
211
  0
LINE
  8
0
 10
-15.5
 20
211
 11
-16
 21
211
  0
LINE
  8
0
 10
-16
 20
211
 11
-16
 21
184
  0
LINE
  8
0
 10
-16
 20
184
 11
-15.9606
 21
183.373
  0
LINE
  8
0
 10
-15.9606
 20
183.373
 11
-15.8429
 21
182.757
  0
LINE
  8
0
 10
-15.8429
 20
182.757
 11
-15.6489
 21
182.159
  0
LINE
  8
0
 10
-15.6489
 20
182.159
 11
-15.3815
 21
181.591
  0
LINE
  8
0
 10
-15.3815
 20
181.591
 11
-15.0451
 21
181.061
  0
LINE
  8
0
 10
-15.0451
 20
181.061
 11
-14.6448
 21
180.577
  0
LINE
  8
0
 10
-14.6448
 20
180.577
 11
-14.1871
 21
180.147
  0
LINE
  8
0
 10
-14.1871
 20
180.147
 11
-13.6791
 21
179.778
  0
LINE
  8
0
 10
-13.6791
 20
179.778
 11
-13.1289
 21
179.476
  0
LINE
  8
0
 10
-13.1289
 20
179.476
 11
-12.5451
 21
179.245
  0
LINE
  8
0
 10
-12.5451
 20
179.245
 11
-11.9369
 21
179.089
  0
LINE
  8
0
 10
-11.9369
 20
179.089
 11
-11.3139
 21
179.01
  0
LINE
  8
0
 10
-11.3139
 20
179.01
 11
17.3139
 21
179.01
  0
LINE
  8
0
 10
17.3139
 20
179.01
 11
17.9369
 21
179.089
  0
LINE
  8
0
 10
14.8116
 20
183.006
 11
14.4379
 21
183.053
  0
LINE
  8
0
 10
14.4379
 20
183.053
 11
14.0729
 21
183.147
  0
LINE
  8
0
 10
14.0729
 20
183.147
 11
13.7227
 21
183.286
  0
LINE
  8
0
 10
13.7227
 20
183.286
 11
13.3925
 21
183.467
  0
LINE
  8
0
 10
13.3925
 20
183.467
 11
13.0877
 21
183.688
  0
LINE
  8
0
 10
13.0877
 20
183.688
 11
12.8131
 21
183.946
  0
LINE
  8
0
 10
12.8131
 20
183.946
 11
12.5729
 21
184.237
  0
LINE
  8
0
 10
12.5729
 20
184.237
 11
12.3711
 21
184.555
  0
LINE
  8
0
 10
12.3711
 20
184.555
 11
12.2107
 21
184.896
  0
LINE
  8
0
 10
12.2107
 20
184.896
 11
12.0942
 21
185.254
  0
LINE
  8
0
 10
12.0942
 20
185.254
 11
12.0237
 21
185.624
  0
LINE
  8
0
 10
12.0237
 20
185.624
 11
12
 21
186
  0
LINE
  8
0
 10
12
 20
186
 11
12.0237
 21
186.376
  0
LINE
  8
0
 10
12.0237
 20
186.376
 11
12.0942
 21
186.746
  0
LINE
  8
0
 10
12.0942
 20
186.746
 11
12.2107
 21
187.104
  0
LINE
  8
0
 10
12.2107
 20
187.104
 11
12.3711
 21
187.445
  0
LINE
  8
0
 10
12.3711
 20
187.445
 11
12.5729
 21
187.763
  0
LINE
  8
0
 10
12.5729
 20
187.763
 11
12.8131
 21
188.054
  0
LINE
  8
0
 10
12.8131
 20
188.054
 11
13.0877
 21
188.312
  0
LINE
  8
0
 10
13.0877
 20
188.312
 11
13.3925
 21
188.533
  0
LINE
  8
0
 10
13.3925
 20
188.533
 11
13.7227
 21
188.714
  0
LINE
  8
0
 10
13.7227
 20
188.714
 11
14.0729
 21
188.853
  0
LINE
  8
0
 10
14.0729
 20
188.853
 11
14.4379
 21
188.947
  0
LINE
  8
0
 10
14.4379
 20
188.947
 11
14.8116
 21
188.994
  0
LINE
  8
0
 10
14.8116
 20
188.994
 11
15.1884
 21
188.994
  0
LINE
  8
0
 10
15.1884
 20
188.994
 11
15.5621
 21
188.947
  0
LINE
  8
0
 10
15.5621
 20
188.947
 11
15.927
 21
188.853
  0
LINE
  8
0
 10
15.927
 20
188.853
 11
16.2773
 21
188.714
  0
LINE
  8
0
 10
16.2773
 20
188.714
 11
16.6075
 21
188.533
  0
LINE
  8
0
 10
16.6075
 20
188.533
 11
16.9123
 21
188.312
  0
LINE
  8
0
 10
16.9123
 20
188.312
 11
17.1869
 21
188.054
  0
LINE
  8
0
 10
17.1869
 20
188.054
 11
17.427
 21
187.763
  0
LINE
  8
0
 10
17.427
 20
187.763
 11
17.6289
 21
187.445
  0
LINE
  8
0
 10
17.6289
 20
187.445
 11
17.7893
 21
187.104
  0
LINE
  8
0
 10
17.7893
 20
187.104
 11
17.9057
 21
186.746
  0
LINE
  8
0
 10
17.9057
 20
186.746
 11
17.9763
 21
186.376
  0
LINE
  8
0
 10
17.9763
 20
186.376
 11
18
 21
186
  0
LINE
  8
0
 10
18
 20
186
 11
17.9763
 21
185.624
  0
LINE
  8
0
 10
17.9763
 20
185.624
 11
17.9057
 21
185.254
  0
LINE
  8
0
 10
17.9057
 20
185.254
 11
17.7893
 21
184.896
  0
LINE
  8
0
 10
17.7893
 20
184.896
 11
17.6289
 21
184.555
  0
LINE
  8
0
 10
17.6289
 20
184.555
 11
17.427
 21
184.237
  0
LINE
  8
0
 10
17.427
 20
184.237
 11
17.1869
 21
183.946
  0
LINE
  8
0
 10
17.1869
 20
183.946
 11
16.9123
 21
183.688
  0
LINE
  8
0
 10
16.9123
 20
183.688
 11
16.6075
 21
183.467
  0
LINE
  8
0
 10
16.6075
 20
183.467
 11
16.2773
 21
183.286
  0
LINE
  8
0
 10
16.2773
 20
183.286
 11
15.927
 21
183.147
  0
LINE
  8
0
 10
15.927
 20
183.147
 11
15.5621
 21
183.053
  0
LINE
  8
0
 10
15.5621
 20
183.053
 11
15.1884
 21
183.006
  0
LINE
  8
0
 10
15.1884
 20
183.006
 11
14.8116
 21
183.006
  0
LINE
  8
0
 10
14.1871
 20
209.853
 11
13.6791
 21
210.222
  0
LINE
  8
0
 10
13.6791
 20
210.222
 11
13.1289
 21
210.524
  0
LINE
  8
0
 10
13.1289
 20
210.524
 11
12.5451
 21
210.755
  0
LINE
  8
0
 10
12.5451
 20
210.755
 11
11.9369
 21
210.911
  0
LINE
  8
0
 10
11.9369
 20
210.911
 11
11.3139
 21
210.99
  0
LINE
  8
0
 10
11.3139
 20
210.99
 11
1.88118
 21
210.99
  0
LINE
  8
0
 10
1.88118
 20
210.99
 11
3.37131
 21
209.5
  0
LINE
  8
0
 10
3.37131
 20
209.5
 11
14.5626
 21
209.5
  0
LINE
  8
0
 10
14.5626
 20
209.5
 11
14.1871
 21
209.853
  0
LINE
  8
0
 10
17.9369
 20
140.089
 11
18.5451
 21
140.245
  0
LINE
  8
0
 10
18.5451
 20
140.245
 11
19.1289
 21
140.476
  0
LINE
  8
0
 10
19.1289
 20
140.476
 11
19.6791
 21
140.778
  0
LINE
  8
0
 10
19.6791
 20
140.778
 11
20.1871
 21
141.147
  0
LINE
  8
0
 10
20.1871
 20
141.147
 11
20.6448
 21
141.577
  0
LINE
  8
0
 10
20.6448
 20
141.577
 11
21.0451
 21
142.061
  0
LINE
  8
0
 10
21.0451
 20
142.061
 11
21.3815
 21
142.591
  0
LINE
  8
0
 10
21.3815
 20
142.591
 11
21.6489
 21
143.159
  0
LINE
  8
0
 10
21.6489
 20
143.159
 11
21.8429
 21
143.757
  0
LINE
  8
0
 10
21.8429
 20
143.757
 11
21.9606
 21
144.373
  0
LINE
  8
0
 10
21.9606
 20
144.373
 11
22
 21
145
  0
LINE
  8
0
 10
22
 20
145
 11
22
 21
149
  0
LINE
  8
0
 10
22
 20
149
 11
21.9606
 21
149.627
  0
LINE
  8
0
 10
21.9606
 20
149.627
 11
21.8429
 21
150.243
  0
LINE
  8
0
 10
21.8429
 20
150.243
 11
21.6489
 21
150.841
  0
LINE
  8
0
 10
21.6489
 20
150.841
 11
21.3815
 21
151.409
  0
LINE
  8
0
 10
21.3815
 20
151.409
 11
21.0451
 21
151.939
  0
LINE
  8
0
 10
21.0451
 20
151.939
 11
20.6448
 21
152.423
  0
LINE
  8
0
 10
20.6448
 20
152.423
 11
20.1871
 21
152.853
  0
LINE
  8
0
 10
20.1871
 20
152.853
 11
19.6791
 21
153.222
  0
LINE
  8
0
 10
19.6791
 20
153.222
 11
19.1289
 21
153.524
  0
LINE
  8
0
 10
19.1289
 20
153.524
 11
18.5451
 21
153.755
  0
LINE
  8
0
 10
18.5451
 20
153.755
 11
17.9369
 21
153.911
  0
LINE
  8
0
 10
17.9369
 20
153.911
 11
17.3139
 21
153.99
  0
LINE
  8
0
 10
17.3139
 20
153.99
 11
16
 21
153.99
  0
LINE
  8
0
 10
16
 20
153.99
 11
16
 21
167
  0
LINE
  8
0
 10
16
 20
167
 11
15.9685
 21
167.5
  0
LINE
  8
0
 10
15.9685
 20
167.5
 11
14.8647
 21
167.5
  0
LINE
  8
0
 10
14.8647
 20
167.5
 11
14.8763
 21
167.518
  0
LINE
  8
0
 10
14.8763
 20
167.518
 11
14.9298
 21
167.632
  0
LINE
  8
0
 10
14.9298
 20
167.632
 11
14.9686
 21
167.751
  0
LINE
  8
0
 10
14.9686
 20
167.751
 11
14.9921
 21
167.875
  0
LINE
  8
0
 10
14.9921
 20
167.875
 11
15
 21
168
  0
LINE
  8
0
 10
15
 20
168
 11
14.9921
 21
168.125
  0
LINE
  8
0
 10
14.9921
 20
168.125
 11
14.9686
 21
168.249
  0
LINE
  8
0
 10
14.9686
 20
168.249
 11
14.9298
 21
168.368
  0
LINE
  8
0
 10
14.9298
 20
168.368
 11
14.8763
 21
168.482
  0
LINE
  8
0
 10
14.8763
 20
168.482
 11
14.809
 21
168.588
  0
LINE
  8
0
 10
14.809
 20
168.588
 11
14.729
 21
168.685
  0
LINE
  8
0
 10
14.729
 20
168.685
 11
14.6374
 21
168.771
  0
LINE
  8
0
 10
14.6374
 20
168.771
 11
14.5358
 21
168.844
  0
LINE
  8
0
 10
14.5358
 20
168.844
 11
14.4258
 21
168.905
  0
LINE
  8
0
 10
14.4258
 20
168.905
 11
14.309
 21
168.951
  0
LINE
  8
0
 10
14.309
 20
168.951
 11
14.1874
 21
168.982
  0
LINE
  8
0
 10
14.1874
 20
168.982
 11
14.0628
 21
168.998
  0
LINE
  8
0
 10
14.0628
 20
168.998
 11
8.93719
 21
168.998
  0
LINE
  8
0
 10
8.93719
 20
168.998
 11
8.81261
 21
168.982
  0
LINE
  8
0
 10
8.81261
 20
168.982
 11
8.69098
 21
168.951
  0
LINE
  8
0
 10
8.69098
 20
168.951
 11
8.57422
 21
168.905
  0
LINE
  8
0
 10
8.57422
 20
168.905
 11
8.46417
 21
168.844
  0
LINE
  8
0
 10
8.46417
 20
168.844
 11
8.36256
 21
168.771
  0
LINE
  8
0
 10
8.36256
 20
168.771
 11
8.27103
 21
168.685
  0
LINE
  8
0
 10
8.27103
 20
168.685
 11
8.19098
 21
168.588
  0
LINE
  8
0
 10
8.19098
 20
168.588
 11
8.12369
 21
168.482
  0
LINE
  8
0
 10
8.12369
 20
168.482
 11
8.07022
 21
168.368
  0
LINE
  8
0
 10
8.07022
 20
168.368
 11
8.0314
 21
168.249
  0
LINE
  8
0
 10
8.0314
 20
168.249
 11
8.00787
 21
168.125
  0
LINE
  8
0
 10
8.00787
 20
168.125
 11
8
 21
168
  0
LINE
  8
0
 10
8
 20
168
 11
8.00787
 21
167.875
  0
LINE
  8
0
 10
8.00787
 20
167.875
 11
8.0314
 21
167.751
  0
LINE
  8
0
 10
8.0314
 20
167.751
 11
8.07022
 21
167.632
  0
LINE
  8
0
 10
8.07022
 20
167.632
 11
8.12369
 21
167.518
  0
LINE
  8
0
 10
8.12369
 20
167.518
 11
8.19098
 21
167.412
  0
LINE
  8
0
 10
8.19098
 20
167.412
 11
8.27103
 21
167.315
  0
LINE
  8
0
 10
8.27103
 20
167.315
 11
8.36256
 21
167.229
  0
LINE
  8
0
 10
8.36256
 20
167.229
 11
8.46417
 21
167.156
  0
LINE
  8
0
 10
8.46417
 20
167.156
 11
8.57422
 21
167.095
  0
LINE
  8
0
 10
8.57422
 20
167.095
 11
8.69098
 21
167.049
  0
LINE
  8
0
 10
8.69098
 20
167.049
 11
8.81261
 21
167.018
  0
LINE
  8
0
 10
8.81261
 20
167.018
 11
8.93719
 21
167.002
  0
LINE
  8
0
 10
8.93719
 20
167.002
 11
9.75
 21
167.002
  0
LINE
  8
0
 10
9.75
 20
167.002
 11
9.75
 21
167
  0
LINE
  8
0
 10
9.75
 20
167
 11
8.92627
 21
167
  0
LINE
  8
0
 10
8.92627
 20
167
 11
10.07
 21
165.926
  0
LINE
  8
0
 10
10.07
 20
165.926
 11
11.2307
 21
164.523
  0
LINE
  8
0
 10
11.2307
 20
164.523
 11
12.2064
 21
162.985
  0
LINE
  8
0
 10
12.2064
 20
162.985
 11
12.9818
 21
161.338
  0
LINE
  8
0
 10
12.9818
 20
161.338
 11
13.5444
 21
159.606
  0
LINE
  8
0
 10
13.5444
 20
159.606
 11
13.8857
 21
157.817
  0
LINE
  8
0
 10
13.8857
 20
157.817
 11
14
 21
156
  0
LINE
  8
0
 10
14
 20
156
 11
13.8857
 21
154.183
  0
LINE
  8
0
 10
13.8857
 20
154.183
 11
13.5444
 21
152.394
  0
LINE
  8
0
 10
13.5444
 20
152.394
 11
12.9818
 21
150.662
  0
LINE
  8
0
 10
12.9818
 20
150.662
 11
12.2064
 21
149.015
  0
LINE
  8
0
 10
12.2064
 20
149.015
 11
11.2307
 21
147.477
  0
LINE
  8
0
 10
11.2307
 20
147.477
 11
10.07
 21
146.074
  0
LINE
  8
0
 10
10.07
 20
146.074
 11
8.74265
 21
144.828
  0
LINE
  8
0
 10
8.74265
 20
144.828
 11
7.26949
 21
143.757
  0
LINE
  8
0
 10
7.26949
 20
143.757
 11
5.6738
 21
142.88
  0
LINE
  8
0
 10
5.6738
 20
142.88
 11
3.98074
 21
142.21
  0
LINE
  8
0
 10
3.98074
 20
142.21
 11
2.21703
 21
141.757
  0
LINE
  8
0
 10
2.21703
 20
141.757
 11
0.410461
 21
141.529
  0
LINE
  8
0
 10
0.410461
 20
141.529
 11
-1.41046
 21
141.529
  0
LINE
  8
0
 10
-1.41046
 20
141.529
 11
-3.21703
 21
141.757
  0
LINE
  8
0
 10
-3.21703
 20
141.757
 11
-4.98074
 21
142.21
  0
LINE
  8
0
 10
-4.98074
 20
142.21
 11
-6.6738
 21
142.88
  0
LINE
  8
0
 10
-6.6738
 20
142.88
 11
-8.26949
 21
143.757
  0
LINE
  8
0
 10
-8.26949
 20
143.757
 11
-9.74265
 21
144.828
  0
LINE
  8
0
 10
-9.74265
 20
144.828
 11
-11.07
 21
146.074
  0
LINE
  8
0
 10
-11.07
 20
146.074
 11
-12.2307
 21
147.477
  0
LINE
  8
0
 10
-12.2307
 20
147.477
 11
-13.2064
 21
149.015
  0
LINE
  8
0
 10
-13.2064
 20
149.015
 11
-13.9818
 21
150.662
  0
LINE
  8
0
 10
-13.9818
 20
150.662
 11
-14.5444
 21
152.394
  0
LINE
  8
0
 10
-14.5444
 20
152.394
 11
-14.8857
 21
154.183
  0
LINE
  8
0
 10
-14.8857
 20
154.183
 11
-15
 21
156
  0
LINE
  8
0
 10
-15
 20
156
 11
-14.8857
 21
157.817
  0
LINE
  8
0
 10
-14.8857
 20
157.817
 11
-14.5444
 21
159.606
  0
LINE
  8
0
 10
-14.5444
 20
159.606
 11
-13.9818
 21
161.338
  0
LINE
  8
0
 10
-13.9818
 20
161.338
 11
-13.2064
 21
162.985
  0
LINE
  8
0
 10
-13.2064
 20
162.985
 11
-12.2307
 21
164.523
  0
LINE
  8
0
 10
-12.2307
 20
164.523
 11
-11.07
 21
165.926
  0
LINE
  8
0
 10
-11.07
 20
165.926
 11
-9.74265
 21
167.172
  0
LINE
  8
0
 10
-9.74265
 20
167.172
 11
-8.26949
 21
168.243
  0
LINE
  8
0
 10
-8.26949
 20
168.243
 11
-6.6738
 21
169.12
  0
LINE
  8
0
 10
-6.6738
 20
169.12
 11
-4.98074
 21
169.79
  0
LINE
  8
0
 10
-4.98074
 20
169.79
 11
-3.21703
 21
170.243
  0
LINE
  8
0
 10
-3.21703
 20
170.243
 11
-1.41046
 21
170.471
  0
LINE
  8
0
 10
-1.41046
 20
170.471
 11
0
 21
170.471
  0
LINE
  8
0
 10
0
 20
170.471
 11
0
 21
170.5
  0
LINE
  8
0
 10
0
 20
170.5
 11
1.24998
 21
170.5
  0
LINE
  8
0
 10
1.24998
 20
170.5
 11
-0.240128
 21
171.99
  0
LINE
  8
0
 10
-0.240128
 20
171.99
 11
-1.5
 21
171.99
  0
LINE
  8
0
 10
-1.5
 20
171.99
 11
-1.5
 21
171.5
  0
LINE
  8
0
 10
-1.5
 20
171.5
 11
-15.5
 21
171.5
  0
LINE
  8
0
 10
-15.5
 20
171.5
 11
-15.5
 21
172
  0
LINE
  8
0
 10
-15.5
 20
172
 11
-16
 21
172
  0
LINE
  8
0
 10
-16
 20
172
 11
-16
 21
145
  0
LINE
  8
0
 10
-16
 20
145
 11
-15.9606
 21
144.373
  0
LINE
  8
0
 10
-15.9606
 20
144.373
 11
-15.8429
 21
143.757
  0
LINE
  8
0
 10
-15.8429
 20
143.757
 11
-15.6489
 21
143.159
  0
LINE
  8
0
 10
-15.6489
 20
143.159
 11
-15.3815
 21
142.591
  0
LINE
  8
0
 10
-15.3815
 20
142.591
 11
-15.0451
 21
142.061
  0
LINE
  8
0
 10
-15.0451
 20
142.061
 11
-14.6448
 21
141.577
  0
LINE
  8
0
 10
-14.6448
 20
141.577
 11
-14.1871
 21
141.147
  0
LINE
  8
0
 10
-14.1871
 20
141.147
 11
-13.6791
 21
140.778
  0
LINE
  8
0
 10
-13.6791
 20
140.778
 11
-13.1289
 21
140.476
  0
LINE
  8
0
 10
-13.1289
 20
140.476
 11
-12.5451
 21
140.245
  0
LINE
  8
0
 10
-12.5451
 20
140.245
 11
-11.9369
 21
140.089
  0
LINE
  8
0
 10
-11.9369
 20
140.089
 11
-11.3139
 21
140.01
  0
LINE
  8
0
 10
-11.3139
 20
140.01
 11
17.3139
 21
140.01
  0
LINE
  8
0
 10
17.3139
 20
140.01
 11
17.9369
 21
140.089
  0
LINE
  8
0
 10
14.8116
 20
144.006
 11
14.4379
 21
144.053
  0
LINE
  8
0
 10
14.4379
 20
144.053
 11
14.0729
 21
144.147
  0
LINE
  8
0
 10
14.0729
 20
144.147
 11
13.7227
 21
144.286
  0
LINE
  8
0
 10
13.7227
 20
144.286
 11
13.3925
 21
144.467
  0
LINE
  8
0
 10
13.3925
 20
144.467
 11
13.0877
 21
144.688
  0
LINE
  8
0
 10
13.0877
 20
144.688
 11
12.8131
 21
144.946
  0
LINE
  8
0
 10
12.8131
 20
144.946
 11
12.5729
 21
145.237
  0
LINE
  8
0
 10
12.5729
 20
145.237
 11
12.3711
 21
145.555
  0
LINE
  8
0
 10
12.3711
 20
145.555
 11
12.2107
 21
145.896
  0
LINE
  8
0
 10
12.2107
 20
145.896
 11
12.0942
 21
146.254
  0
LINE
  8
0
 10
12.0942
 20
146.254
 11
12.0237
 21
146.624
  0
LINE
  8
0
 10
12.0237
 20
146.624
 11
12
 21
147
  0
LINE
  8
0
 10
12
 20
147
 11
12.0237
 21
147.376
  0
LINE
  8
0
 10
12.0237
 20
147.376
 11
12.0942
 21
147.746
  0
LINE
  8
0
 10
12.0942
 20
147.746
 11
12.2107
 21
148.104
  0
LINE
  8
0
 10
12.2107
 20
148.104
 11
12.3711
 21
148.445
  0
LINE
  8
0
 10
12.3711
 20
148.445
 11
12.5729
 21
148.763
  0
LINE
  8
0
 10
12.5729
 20
148.763
 11
12.8131
 21
149.054
  0
LINE
  8
0
 10
12.8131
 20
149.054
 11
13.0877
 21
149.312
  0
LINE
  8
0
 10
13.0877
 20
149.312
 11
13.3925
 21
149.533
  0
LINE
  8
0
 10
13.3925
 20
149.533
 11
13.7227
 21
149.714
  0
LINE
  8
0
 10
13.7227
 20
149.714
 11
14.0729
 21
149.853
  0
LINE
  8
0
 10
14.0729
 20
149.853
 11
14.4379
 21
149.947
  0
LINE
  8
0
 10
14.4379
 20
149.947
 11
14.8116
 21
149.994
  0
LINE
  8
0
 10
14.8116
 20
149.994
 11
15.1884
 21
149.994
  0
LINE
  8
0
 10
15.1884
 20
149.994
 11
15.5621
 21
149.947
  0
LINE
  8
0
 10
15.5621
 20
149.947
 11
15.927
 21
149.853
  0
LINE
  8
0
 10
15.927
 20
149.853
 11
16.2773
 21
149.714
  0
LINE
  8
0
 10
16.2773
 20
149.714
 11
16.6075
 21
149.533
  0
LINE
  8
0
 10
16.6075
 20
149.533
 11
16.9123
 21
149.312
  0
LINE
  8
0
 10
16.9123
 20
149.312
 11
17.1869
 21
149.054
  0
LINE
  8
0
 10
17.1869
 20
149.054
 11
17.427
 21
148.763
  0
LINE
  8
0
 10
17.427
 20
148.763
 11
17.6289
 21
148.445
  0
LINE
  8
0
 10
17.6289
 20
148.445
 11
17.7893
 21
148.104
  0
LINE
  8
0
 10
17.7893
 20
148.104
 11
17.9057
 21
147.746
  0
LINE
  8
0
 10
17.9057
 20
147.746
 11
17.9763
 21
147.376
  0
LINE
  8
0
 10
17.9763
 20
147.376
 11
18
 21
147
  0
LINE
  8
0
 10
18
 20
147
 11
17.9763
 21
146.624
  0
LINE
  8
0
 10
17.9763
 20
146.624
 11
17.9057
 21
146.254
  0
LINE
  8
0
 10
17.9057
 20
146.254
 11
17.7893
 21
145.896
  0
LINE
  8
0
 10
17.7893
 20
145.896
 11
17.6289
 21
145.555
  0
LINE
  8
0
 10
17.6289
 20
145.555
 11
17.427
 21
145.237
  0
LINE
  8
0
 10
17.427
 20
145.237
 11
17.1869
 21
144.946
  0
LINE
  8
0
 10
17.1869
 20
144.946
 11
16.9123
 21
144.688
  0
LINE
  8
0
 10
16.9123
 20
144.688
 11
16.6075
 21
144.467
  0
LINE
  8
0
 10
16.6075
 20
144.467
 11
16.2773
 21
144.286
  0
LINE
  8
0
 10
16.2773
 20
144.286
 11
15.927
 21
144.147
  0
LINE
  8
0
 10
15.927
 20
144.147
 11
15.5621
 21
144.053
  0
LINE
  8
0
 10
15.5621
 20
144.053
 11
15.1884
 21
144.006
  0
LINE
  8
0
 10
15.1884
 20
144.006
 11
14.8116
 21
144.006
  0
LINE
  8
0
 10
14.1871
 20
170.853
 11
13.6791
 21
171.222
  0
LINE
  8
0
 10
13.6791
 20
171.222
 11
13.1289
 21
171.524
  0
LINE
  8
0
 10
13.1289
 20
171.524
 11
12.5451
 21
171.755
  0
LINE
  8
0
 10
12.5451
 20
171.755
 11
11.9369
 21
171.911
  0
LINE
  8
0
 10
11.9369
 20
171.911
 11
11.3139
 21
171.99
  0
LINE
  8
0
 10
11.3139
 20
171.99
 11
1.88118
 21
171.99
  0
LINE
  8
0
 10
1.88118
 20
171.99
 11
3.37131
 21
170.5
  0
LINE
  8
0
 10
3.37131
 20
170.5
 11
14.5626
 21
170.5
  0
LINE
  8
0
 10
14.5626
 20
170.5
 11
14.1871
 21
170.853
  0
LINE
  8
0
 10
17.9369
 20
101.089
 11
18.5451
 21
101.245
  0
LINE
  8
0
 10
18.5451
 20
101.245
 11
19.1289
 21
101.476
  0
LINE
  8
0
 10
19.1289
 20
101.476
 11
19.6791
 21
101.778
  0
LINE
  8
0
 10
19.6791
 20
101.778
 11
20.1871
 21
102.147
  0
LINE
  8
0
 10
20.1871
 20
102.147
 11
20.6448
 21
102.577
  0
LINE
  8
0
 10
20.6448
 20
102.577
 11
21.0451
 21
103.061
  0
LINE
  8
0
 10
21.0451
 20
103.061
 11
21.3815
 21
103.591
  0
LINE
  8
0
 10
21.3815
 20
103.591
 11
21.6489
 21
104.159
  0
LINE
  8
0
 10
21.6489
 20
104.159
 11
21.8429
 21
104.757
  0
LINE
  8
0
 10
21.8429
 20
104.757
 11
21.9606
 21
105.373
  0
LINE
  8
0
 10
21.9606
 20
105.373
 11
22
 21
106
  0
LINE
  8
0
 10
22
 20
106
 11
22
 21
110
  0
LINE
  8
0
 10
22
 20
110
 11
21.9606
 21
110.627
  0
LINE
  8
0
 10
21.9606
 20
110.627
 11
21.8429
 21
111.243
  0
LINE
  8
0
 10
21.8429
 20
111.243
 11
21.6489
 21
111.841
  0
LINE
  8
0
 10
21.6489
 20
111.841
 11
21.3815
 21
112.409
  0
LINE
  8
0
 10
21.3815
 20
112.409
 11
21.0451
 21
112.939
  0
LINE
  8
0
 10
21.0451
 20
112.939
 11
20.6448
 21
113.423
  0
LINE
  8
0
 10
20.6448
 20
113.423
 11
20.1871
 21
113.853
  0
LINE
  8
0
 10
20.1871
 20
113.853
 11
19.6791
 21
114.222
  0
LINE
  8
0
 10
19.6791
 20
114.222
 11
19.1289
 21
114.524
  0
LINE
  8
0
 10
19.1289
 20
114.524
 11
18.5451
 21
114.755
  0
LINE
  8
0
 10
18.5451
 20
114.755
 11
17.9369
 21
114.911
  0
LINE
  8
0
 10
17.9369
 20
114.911
 11
17.3139
 21
114.99
  0
LINE
  8
0
 10
17.3139
 20
114.99
 11
16
 21
114.99
  0
LINE
  8
0
 10
16
 20
114.99
 11
16
 21
128
  0
LINE
  8
0
 10
16
 20
128
 11
15.9685
 21
128.5
  0
LINE
  8
0
 10
15.9685
 20
128.5
 11
14.8647
 21
128.5
  0
LINE
  8
0
 10
14.8647
 20
128.5
 11
14.8763
 21
128.518
  0
LINE
  8
0
 10
14.8763
 20
128.518
 11
14.9298
 21
128.632
  0
LINE
  8
0
 10
14.9298
 20
128.632
 11
14.9686
 21
128.751
  0
LINE
  8
0
 10
14.9686
 20
128.751
 11
14.9921
 21
128.875
  0
LINE
  8
0
 10
14.9921
 20
128.875
 11
15
 21
129
  0
LINE
  8
0
 10
15
 20
129
 11
14.9921
 21
129.125
  0
LINE
  8
0
 10
14.9921
 20
129.125
 11
14.9686
 21
129.249
  0
LINE
  8
0
 10
14.9686
 20
129.249
 11
14.9298
 21
129.368
  0
LINE
  8
0
 10
14.9298
 20
129.368
 11
14.8763
 21
129.482
  0
LINE
  8
0
 10
14.8763
 20
129.482
 11
14.809
 21
129.588
  0
LINE
  8
0
 10
14.809
 20
129.588
 11
14.729
 21
129.685
  0
LINE
  8
0
 10
14.729
 20
129.685
 11
14.6374
 21
129.771
  0
LINE
  8
0
 10
14.6374
 20
129.771
 11
14.5358
 21
129.844
  0
LINE
  8
0
 10
14.5358
 20
129.844
 11
14.4258
 21
129.905
  0
LINE
  8
0
 10
14.4258
 20
129.905
 11
14.309
 21
129.951
  0
LINE
  8
0
 10
14.309
 20
129.951
 11
14.1874
 21
129.982
  0
LINE
  8
0
 10
14.1874
 20
129.982
 11
14.0628
 21
129.998
  0
LINE
  8
0
 10
14.0628
 20
129.998
 11
8.93719
 21
129.998
  0
LINE
  8
0
 10
8.93719
 20
129.998
 11
8.81261
 21
129.982
  0
LINE
  8
0
 10
8.81261
 20
129.982
 11
8.69098
 21
129.951
  0
LINE
  8
0
 10
8.69098
 20
129.951
 11
8.57422
 21
129.905
  0
LINE
  8
0
 10
8.57422
 20
129.905
 11
8.46417
 21
129.844
  0
LINE
  8
0
 10
8.46417
 20
129.844
 11
8.36256
 21
129.771
  0
LINE
  8
0
 10
8.36256
 20
129.771
 11
8.27103
 21
129.685
  0
LINE
  8
0
 10
8.27103
 20
129.685
 11
8.19098
 21
129.588
  0
LINE
  8
0
 10
8.19098
 20
129.588
 11
8.12369
 21
129.482
  0
LINE
  8
0
 10
8.12369
 20
129.482
 11
8.07022
 21
129.368
  0
LINE
  8
0
 10
8.07022
 20
129.368
 11
8.0314
 21
129.249
  0
LINE
  8
0
 10
8.0314
 20
129.249
 11
8.00787
 21
129.125
  0
LINE
  8
0
 10
8.00787
 20
129.125
 11
8
 21
129
  0
LINE
  8
0
 10
8
 20
129
 11
8.00787
 21
128.875
  0
LINE
  8
0
 10
8.00787
 20
128.875
 11
8.0314
 21
128.751
  0
LINE
  8
0
 10
8.0314
 20
128.751
 11
8.07022
 21
128.632
  0
LINE
  8
0
 10
8.07022
 20
128.632
 11
8.12369
 21
128.518
  0
LINE
  8
0
 10
8.12369
 20
128.518
 11
8.19098
 21
128.412
  0
LINE
  8
0
 10
8.19098
 20
128.412
 11
8.27103
 21
128.315
  0
LINE
  8
0
 10
8.27103
 20
128.315
 11
8.36256
 21
128.229
  0
LINE
  8
0
 10
8.36256
 20
128.229
 11
8.46417
 21
128.156
  0
LINE
  8
0
 10
8.46417
 20
128.156
 11
8.57422
 21
128.095
  0
LINE
  8
0
 10
8.57422
 20
128.095
 11
8.69098
 21
128.049
  0
LINE
  8
0
 10
8.69098
 20
128.049
 11
8.81261
 21
128.018
  0
LINE
  8
0
 10
8.81261
 20
128.018
 11
8.93719
 21
128.002
  0
LINE
  8
0
 10
8.93719
 20
128.002
 11
9.75
 21
128.002
  0
LINE
  8
0
 10
9.75
 20
128.002
 11
9.75
 21
128
  0
LINE
  8
0
 10
9.75
 20
128
 11
8.92627
 21
128
  0
LINE
  8
0
 10
8.92627
 20
128
 11
10.07
 21
126.926
  0
LINE
  8
0
 10
10.07
 20
126.926
 11
11.2307
 21
125.523
  0
LINE
  8
0
 10
11.2307
 20
125.523
 11
12.2064
 21
123.985
  0
LINE
  8
0
 10
12.2064
 20
123.985
 11
12.9818
 21
122.338
  0
LINE
  8
0
 10
12.9818
 20
122.338
 11
13.5444
 21
120.606
  0
LINE
  8
0
 10
13.5444
 20
120.606
 11
13.8857
 21
118.817
  0
LINE
  8
0
 10
13.8857
 20
118.817
 11
14
 21
117
  0
LINE
  8
0
 10
14
 20
117
 11
13.8857
 21
115.183
  0
LINE
  8
0
 10
13.8857
 20
115.183
 11
13.5444
 21
113.394
  0
LINE
  8
0
 10
13.5444
 20
113.394
 11
12.9818
 21
111.662
  0
LINE
  8
0
 10
12.9818
 20
111.662
 11
12.2064
 21
110.015
  0
LINE
  8
0
 10
12.2064
 20
110.015
 11
11.2307
 21
108.477
  0
LINE
  8
0
 10
11.2307
 20
108.477
 11
10.07
 21
107.074
  0
LINE
  8
0
 10
10.07
 20
107.074
 11
8.74265
 21
105.828
  0
LINE
  8
0
 10
8.74265
 20
105.828
 11
7.26949
 21
104.757
  0
LINE
  8
0
 10
7.26949
 20
104.757
 11
5.6738
 21
103.88
  0
LINE
  8
0
 10
5.6738
 20
103.88
 11
3.98074
 21
103.21
  0
LINE
  8
0
 10
3.98074
 20
103.21
 11
2.21703
 21
102.757
  0
LINE
  8
0
 10
2.21703
 20
102.757
 11
0.410461
 21
102.529
  0
LINE
  8
0
 10
0.410461
 20
102.529
 11
-1.41046
 21
102.529
  0
LINE
  8
0
 10
-1.41046
 20
102.529
 11
-3.21703
 21
102.757
  0
LINE
  8
0
 10
-3.21703
 20
102.757
 11
-4.98074
 21
103.21
  0
LINE
  8
0
 10
-4.98074
 20
103.21
 11
-6.6738
 21
103.88
  0
LINE
  8
0
 10
-6.6738
 20
103.88
 11
-8.26949
 21
104.757
  0
LINE
  8
0
 10
-8.26949
 20
104.757
 11
-9.74265
 21
105.828
  0
LINE
  8
0
 10
-9.74265
 20
105.828
 11
-11.07
 21
107.074
  0
LINE
  8
0
 10
-11.07
 20
107.074
 11
-12.2307
 21
108.477
  0
LINE
  8
0
 10
-12.2307
 20
108.477
 11
-13.2064
 21
110.015
  0
LINE
  8
0
 10
-13.2064
 20
110.015
 11
-13.9818
 21
111.662
  0
LINE
  8
0
 10
-13.9818
 20
111.662
 11
-14.5444
 21
113.394
  0
LINE
  8
0
 10
-14.5444
 20
113.394
 11
-14.8857
 21
115.183
  0
LINE
  8
0
 10
-14.8857
 20
115.183
 11
-15
 21
117
  0
LINE
  8
0
 10
-15
 20
117
 11
-14.8857
 21
118.817
  0
LINE
  8
0
 10
-14.8857
 20
118.817
 11
-14.5444
 21
120.606
  0
LINE
  8
0
 10
-14.5444
 20
120.606
 11
-13.9818
 21
122.338
  0
LINE
  8
0
 10
-13.9818
 20
122.338
 11
-13.2064
 21
123.985
  0
LINE
  8
0
 10
-13.2064
 20
123.985
 11
-12.2307
 21
125.523
  0
LINE
  8
0
 10
-12.2307
 20
125.523
 11
-11.07
 21
126.926
  0
LINE
  8
0
 10
-11.07
 20
126.926
 11
-9.74265
 21
128.172
  0
LINE
  8
0
 10
-9.74265
 20
128.172
 11
-8.26949
 21
129.243
  0
LINE
  8
0
 10
-8.26949
 20
129.243
 11
-6.6738
 21
130.12
  0
LINE
  8
0
 10
-6.6738
 20
130.12
 11
-4.98074
 21
130.79
  0
LINE
  8
0
 10
-4.98074
 20
130.79
 11
-3.21703
 21
131.243
  0
LINE
  8
0
 10
-3.21703
 20
131.243
 11
-1.41046
 21
131.471
  0
LINE
  8
0
 10
-1.41046
 20
131.471
 11
0
 21
131.471
  0
LINE
  8
0
 10
0
 20
131.471
 11
0
 21
131.5
  0
LINE
  8
0
 10
0
 20
131.5
 11
1.24998
 21
131.5
  0
LINE
  8
0
 10
1.24998
 20
131.5
 11
-0.240128
 21
132.99
  0
LINE
  8
0
 10
-0.240128
 20
132.99
 11
-1.5
 21
132.99
  0
LINE
  8
0
 10
-1.5
 20
132.99
 11
-1.5
 21
132.5
  0
LINE
  8
0
 10
-1.5
 20
132.5
 11
-15.5
 21
132.5
  0
LINE
  8
0
 10
-15.5
 20
132.5
 11
-15.5
 21
133
  0
LINE
  8
0
 10
-15.5
 20
133
 11
-16
 21
133
  0
LINE
  8
0
 10
-16
 20
133
 11
-16
 21
106
  0
LINE
  8
0
 10
-16
 20
106
 11
-15.9606
 21
105.373
  0
LINE
  8
0
 10
-15.9606
 20
105.373
 11
-15.8429
 21
104.757
  0
LINE
  8
0
 10
-15.8429
 20
104.757
 11
-15.6489
 21
104.159
  0
LINE
  8
0
 10
-15.6489
 20
104.159
 11
-15.3815
 21
103.591
  0
LINE
  8
0
 10
-15.3815
 20
103.591
 11
-15.0451
 21
103.061
  0
LINE
  8
0
 10
-15.0451
 20
103.061
 11
-14.6448
 21
102.577
  0
LINE
  8
0
 10
-14.6448
 20
102.577
 11
-14.1871
 21
102.147
  0
LINE
  8
0
 10
-14.1871
 20
102.147
 11
-13.6791
 21
101.778
  0
LINE
  8
0
 10
-13.6791
 20
101.778
 11
-13.1289
 21
101.476
  0
LINE
  8
0
 10
-13.1289
 20
101.476
 11
-12.5451
 21
101.245
  0
LINE
  8
0
 10
-12.5451
 20
101.245
 11
-11.9369
 21
101.089
  0
LINE
  8
0
 10
-11.9369
 20
101.089
 11
-11.3139
 21
101.01
  0
LINE
  8
0
 10
-11.3139
 20
101.01
 11
17.3139
 21
101.01
  0
LINE
  8
0
 10
17.3139
 20
101.01
 11
17.9369
 21
101.089
  0
LINE
  8
0
 10
14.8116
 20
105.006
 11
14.4379
 21
105.053
  0
LINE
  8
0
 10
14.4379
 20
105.053
 11
14.0729
 21
105.147
  0
LINE
  8
0
 10
14.0729
 20
105.147
 11
13.7227
 21
105.286
  0
LINE
  8
0
 10
13.7227
 20
105.286
 11
13.3925
 21
105.467
  0
LINE
  8
0
 10
13.3925
 20
105.467
 11
13.0877
 21
105.688
  0
LINE
  8
0
 10
13.0877
 20
105.688
 11
12.8131
 21
105.946
  0
LINE
  8
0
 10
12.8131
 20
105.946
 11
12.5729
 21
106.237
  0
LINE
  8
0
 10
12.5729
 20
106.237
 11
12.3711
 21
106.555
  0
LINE
  8
0
 10
12.3711
 20
106.555
 11
12.2107
 21
106.896
  0
LINE
  8
0
 10
12.2107
 20
106.896
 11
12.0942
 21
107.254
  0
LINE
  8
0
 10
12.0942
 20
107.254
 11
12.0237
 21
107.624
  0
LINE
  8
0
 10
12.0237
 20
107.624
 11
12
 21
108
  0
LINE
  8
0
 10
12
 20
108
 11
12.0237
 21
108.376
  0
LINE
  8
0
 10
12.0237
 20
108.376
 11
12.0942
 21
108.746
  0
LINE
  8
0
 10
12.0942
 20
108.746
 11
12.2107
 21
109.104
  0
LINE
  8
0
 10
12.2107
 20
109.104
 11
12.3711
 21
109.445
  0
LINE
  8
0
 10
12.3711
 20
109.445
 11
12.5729
 21
109.763
  0
LINE
  8
0
 10
12.5729
 20
109.763
 11
12.8131
 21
110.054
  0
LINE
  8
0
 10
12.8131
 20
110.054
 11
13.0877
 21
110.312
  0
LINE
  8
0
 10
13.0877
 20
110.312
 11
13.3925
 21
110.533
  0
LINE
  8
0
 10
13.3925
 20
110.533
 11
13.7227
 21
110.714
  0
LINE
  8
0
 10
13.7227
 20
110.714
 11
14.0729
 21
110.853
  0
LINE
  8
0
 10
14.0729
 20
110.853
 11
14.4379
 21
110.947
  0
LINE
  8
0
 10
14.4379
 20
110.947
 11
14.8116
 21
110.994
  0
LINE
  8
0
 10
14.8116
 20
110.994
 11
15.1884
 21
110.994
  0
LINE
  8
0
 10
15.1884
 20
110.994
 11
15.5621
 21
110.947
  0
LINE
  8
0
 10
15.5621
 20
110.947
 11
15.927
 21
110.853
  0
LINE
  8
0
 10
15.927
 20
110.853
 11
16.2773
 21
110.714
  0
LINE
  8
0
 10
16.2773
 20
110.714
 11
16.6075
 21
110.533
  0
LINE
  8
0
 10
16.6075
 20
110.533
 11
16.9123
 21
110.312
  0
LINE
  8
0
 10
16.9123
 20
110.312
 11
17.1869
 21
110.054
  0
LINE
  8
0
 10
17.1869
 20
110.054
 11
17.427
 21
109.763
  0
LINE
  8
0
 10
17.427
 20
109.763
 11
17.6289
 21
109.445
  0
LINE
  8
0
 10
17.6289
 20
109.445
 11
17.7893
 21
109.104
  0
LINE
  8
0
 10
17.7893
 20
109.104
 11
17.9057
 21
108.746
  0
LINE
  8
0
 10
17.9057
 20
108.746
 11
17.9763
 21
108.376
  0
LINE
  8
0
 10
17.9763
 20
108.376
 11
18
 21
108
  0
LINE
  8
0
 10
18
 20
108
 11
17.9763
 21
107.624
  0
LINE
  8
0
 10
17.9763
 20
107.624
 11
17.9057
 21
107.254
  0
LINE
  8
0
 10
17.9057
 20
107.254
 11
17.7893
 21
106.896
  0
LINE
  8
0
 10
17.7893
 20
106.896
 11
17.6289
 21
106.555
  0
LINE
  8
0
 10
17.6289
 20
106.555
 11
17.427
 21
106.237
  0
LINE
  8
0
 10
17.427
 20
106.237
 11
17.1869
 21
105.946
  0
LINE
  8
0
 10
17.1869
 20
105.946
 11
16.9123
 21
105.688
  0
LINE
  8
0
 10
16.9123
 20
105.688
 11
16.6075
 21
105.467
  0
LINE
  8
0
 10
16.6075
 20
105.467
 11
16.2773
 21
105.286
  0
LINE
  8
0
 10
16.2773
 20
105.286
 11
15.927
 21
105.147
  0
LINE
  8
0
 10
15.927
 20
105.147
 11
15.5621
 21
105.053
  0
LINE
  8
0
 10
15.5621
 20
105.053
 11
15.1884
 21
105.006
  0
LINE
  8
0
 10
15.1884
 20
105.006
 11
14.8116
 21
105.006
  0
LINE
  8
0
 10
14.1871
 20
131.853
 11
13.6791
 21
132.222
  0
LINE
  8
0
 10
13.6791
 20
132.222
 11
13.1289
 21
132.524
  0
LINE
  8
0
 10
13.1289
 20
132.524
 11
12.5451
 21
132.755
  0
LINE
  8
0
 10
12.5451
 20
132.755
 11
11.9369
 21
132.911
  0
LINE
  8
0
 10
11.9369
 20
132.911
 11
11.3139
 21
132.99
  0
LINE
  8
0
 10
11.3139
 20
132.99
 11
1.88118
 21
132.99
  0
LINE
  8
0
 10
1.88118
 20
132.99
 11
3.37131
 21
131.5
  0
LINE
  8
0
 10
3.37131
 20
131.5
 11
14.5626
 21
131.5
  0
LINE
  8
0
 10
14.5626
 20
131.5
 11
14.1871
 21
131.853
  0
ENDSEC
  0
SECTION
  2
OBJECTS
  0
DICTIONARY
  0
ENDSEC
  0
EOF
