<?xml version="1.0" standalone="no"?>
<!DOCTYPE svg PUBLIC "-//W3C//DTD SVG 1.1//EN" "http://www.w3.org/Graphics/SVG/1.1/DTD/svg11.dtd">
<svg width="46mm" height="340mm" viewBox="-23 -431 46 340" xmlns="http://www.w3.org/2000/svg" version="1.1">
<title>OpenSCAD Model</title>
<path d="
M 18.4369,-265.589 L 19.0451,-265.745 L 19.6289,-265.976 L 20.1791,-266.278 L 20.6871,-266.647 L 21.1448,-267.077
 L 21.5451,-267.561 L 21.8815,-268.091 L 22.1489,-268.659 L 22.3429,-269.257 L 22.4606,-269.873 L 22.5,-270.5
 L 22.5,-425.5 L 22.4606,-426.127 L 22.3429,-426.743 L 22.1489,-427.341 L 21.8815,-427.909 L 21.5451,-428.439
 L 21.1448,-428.923 L 20.6871,-429.353 L 20.1791,-429.722 L 19.6289,-430.024 L 19.0451,-430.255 L 18.4369,-430.411
 L 17.8139,-430.49 L -17.8139,-430.49 L -18.4369,-430.411 L -19.0451,-430.255 L -19.6289,-430.024 L -20.1791,-429.722
 L -20.6871,-429.353 L -21.1448,-428.923 L -21.5451,-428.439 L -21.8815,-427.909 L -22.1489,-427.341 L -22.3429,-426.743
 L -22.4606,-426.127 L -22.5,-425.5 L -22.5,-270.5 L -22.4606,-269.873 L -22.3429,-269.257 L -22.1489,-268.659
 L -21.8815,-268.091 L -21.5451,-267.561 L -21.1448,-267.077 L -20.6871,-266.647 L -20.1791,-266.278 L -19.6289,-265.976
 L -19.0451,-265.745 L -18.4369,-265.589 L -17.8139,-265.51 L 17.8139,-265.51 z
M 18.4369,-91.5886 L 19.0451,-91.7447 L 19.6289,-91.9759 L 20.1791,-92.2784 L 20.6871,-92.6474 L 21.1448,-93.0773
 L 21.5451,-93.5611 L 21.8815,-94.0912 L 22.1489,-94.6594 L 22.3429,-95.2566 L 22.4606,-95.8733 L 22.5,-96.5
 L 22.5,-251.5 L 22.4606,-252.127 L 22.3429,-252.743 L 22.1489,-253.341 L 21.8815,-253.909 L 21.5451,-254.439
 L 21.1448,-254.923 L 20.6871,-255.353 L 20.1791,-255.722 L 19.6289,-256.024 L 19.0451,-256.255 L 18.4369,-256.411
 L 17.8139,-256.49 L -17.8139,-256.49 L -18.4369,-256.411 L -19.0451,-256.255 L -19.6289,-256.024 L -20.1791,-255.722
 L -20.6871,-255.353 L -21.1448,-254.923 L -21.5451,-254.439 L -21.8815,-253.909 L -22.1489,-253.341 L -22.3429,-252.743
 L -22.4606,-252.127 L -22.5,-251.5 L -22.5,-96.5 L -22.4606,-95.8733 L -22.3429,-95.2566 L -22.1489,-94.6594
 L -21.8815,-94.0912 L -21.5451,-93.5611 L -21.1448,-93.0773 L -20.6871,-92.6474 L -20.1791,-92.2784 L -19.6289,-91.9759
 L -19.0451,-91.7447 L -18.4369,-91.5886 L -17.8139,-91.5099 L 17.8139,-91.5099 z
M 14.887,-247.204 L 14.6627,-247.232 L 14.4438,-247.288 L 14.2336,-247.371 L 14.0355,-247.48 L 13.8526,-247.613
 L 13.6879,-247.768 L 13.5438,-247.942 L 13.4226,-248.133 L 13.3264,-248.337 L 13.2565,-248.552 L 13.2142,-248.774
 L 13.2,-249 L 13.2142,-249.226 L 13.2565,-249.448 L 13.3264,-249.663 L 13.4226,-249.867 L 13.5438,-250.058
 L 13.6879,-250.232 L 13.8526,-250.387 L 14.0355,-250.52 L 14.2336,-250.629 L 14.4438,-250.712 L 14.6627,-250.768
 L 14.887,-250.796 L 15.113,-250.796 L 15.3373,-250.768 L 15.5562,-250.712 L 15.7664,-250.629 L 15.9645,-250.52
 L 16.1474,-250.387 L 16.3121,-250.232 L 16.4562,-250.058 L 16.5773,-249.867 L 16.6736,-249.663 L 16.7434,-249.448
 L 16.7858,-249.226 L 16.8,-249 L 16.7858,-248.774 L 16.7434,-248.552 L 16.6736,-248.337 L 16.5773,-248.133
 L 16.4562,-247.942 L 16.3121,-247.768 L 16.1474,-247.613 L 15.9645,-247.48 L 15.7664,-247.371 L 15.5562,-247.288
 L 15.3373,-247.232 L 15.113,-247.204 z
M -15.113,-247.204 L -15.3373,-247.232 L -15.5562,-247.288 L -15.7664,-247.371 L -15.9645,-247.48 L -16.1474,-247.613
 L -16.3121,-247.768 L -16.4562,-247.942 L -16.5773,-248.133 L -16.6736,-248.337 L -16.7434,-248.552 L -16.7858,-248.774
 L -16.8,-249 L -16.7858,-249.226 L -16.7434,-249.448 L -16.6736,-249.663 L -16.5773,-249.867 L -16.4562,-250.058
 L -16.3121,-250.232 L -16.1474,-250.387 L -15.9645,-250.52 L -15.7664,-250.629 L -15.5562,-250.712 L -15.3373,-250.768
 L -15.113,-250.796 L -14.887,-250.796 L -14.6627,-250.768 L -14.4438,-250.712 L -14.2336,-250.629 L -14.0355,-250.52
 L -13.8526,-250.387 L -13.6879,-250.232 L -13.5438,-250.058 L -13.4226,-249.867 L -13.3264,-249.663 L -13.2565,-249.448
 L -13.2142,-249.226 L -13.2,-249 L -13.2142,-248.774 L -13.2565,-248.552 L -13.3264,-248.337 L -13.4226,-248.133
 L -13.5438,-247.942 L -13.6879,-247.768 L -13.8526,-247.613 L -14.0355,-247.48 L -14.2336,-247.371 L -14.4438,-247.288
 L -14.6627,-247.232 L -14.887,-247.204 z
M -15.113,-97.2036 L -15.3373,-97.2319 L -15.5562,-97.2881 L -15.7664,-97.3713 L -15.9645,-97.4802 L -16.1474,-97.6131
 L -16.3121,-97.7678 L -16.4562,-97.942 L -16.5773,-98.1328 L -16.6736,-98.3374 L -16.7434,-98.5524 L -16.7858,-98.7744
 L -16.8,-99 L -16.7858,-99.2256 L -16.7434,-99.4476 L -16.6736,-99.6626 L -16.5773,-99.8672 L -16.4562,-100.058
 L -16.3121,-100.232 L -16.1474,-100.387 L -15.9645,-100.52 L -15.7664,-100.629 L -15.5562,-100.712 L -15.3373,-100.768
 L -15.113,-100.796 L -14.887,-100.796 L -14.6627,-100.768 L -14.4438,-100.712 L -14.2336,-100.629 L -14.0355,-100.52
 L -13.8526,-100.387 L -13.6879,-100.232 L -13.5438,-100.058 L -13.4226,-99.8672 L -13.3264,-99.6626 L -13.2565,-99.4476
 L -13.2142,-99.2256 L -13.2,-99 L -13.2142,-98.7744 L -13.2565,-98.5524 L -13.3264,-98.3374 L -13.4226,-98.1328
 L -13.5438,-97.942 L -13.6879,-97.7678 L -13.8526,-97.6131 L -14.0355,-97.4802 L -14.2336,-97.3713 L -14.4438,-97.2881
 L -14.6627,-97.2319 L -14.887,-97.2036 z
M 14.887,-97.2036 L 14.6627,-97.2319 L 14.4438,-97.2881 L 14.2336,-97.3713 L 14.0355,-97.4802 L 13.8526,-97.6131
 L 13.6879,-97.7678 L 13.5438,-97.942 L 13.4226,-98.1328 L 13.3264,-98.3374 L 13.2565,-98.5524 L 13.2142,-98.7744
 L 13.2,-99 L 13.2142,-99.2256 L 13.2565,-99.4476 L 13.3264,-99.6626 L 13.4226,-99.8672 L 13.5438,-100.058
 L 13.6879,-100.232 L 13.8526,-100.387 L 14.0355,-100.52 L 14.2336,-100.629 L 14.4438,-100.712 L 14.6627,-100.768
 L 14.887,-100.796 L 15.113,-100.796 L 15.3373,-100.768 L 15.5562,-100.712 L 15.7664,-100.629 L 15.9645,-100.52
 L 16.1474,-100.387 L 16.3121,-100.232 L 16.4562,-100.058 L 16.5773,-99.8672 L 16.6736,-99.6626 L 16.7434,-99.4476
 L 16.7858,-99.2256 L 16.8,-99 L 16.7858,-98.7744 L 16.7434,-98.5524 L 16.6736,-98.3374 L 16.5773,-98.1328
 L 16.4562,-97.942 L 16.3121,-97.7678 L 16.1474,-97.6131 L 15.9645,-97.4802 L 15.7664,-97.3713 L 15.5562,-97.2881
 L 15.3373,-97.2319 L 15.113,-97.2036 z
" stroke="black" fill="lightgray" stroke-width="0.5"/>
</svg>
