  0
SECTION
  2
BLOCKS
  0
ENDSEC
  0
SECTION
  2
ENTITIES
  0
LINE
  8
0
 10
18.4369
 20
265.589
 11
19.0451
 21
265.745
  0
LINE
  8
0
 10
19.0451
 20
265.745
 11
19.6289
 21
265.976
  0
LINE
  8
0
 10
19.6289
 20
265.976
 11
20.1791
 21
266.278
  0
LINE
  8
0
 10
20.1791
 20
266.278
 11
20.6871
 21
266.647
  0
LINE
  8
0
 10
20.6871
 20
266.647
 11
21.1448
 21
267.077
  0
LINE
  8
0
 10
21.1448
 20
267.077
 11
21.5451
 21
267.561
  0
LINE
  8
0
 10
21.5451
 20
267.561
 11
21.8815
 21
268.091
  0
LINE
  8
0
 10
21.8815
 20
268.091
 11
22.1489
 21
268.659
  0
LINE
  8
0
 10
22.1489
 20
268.659
 11
22.3429
 21
269.257
  0
LINE
  8
0
 10
22.3429
 20
269.257
 11
22.4606
 21
269.873
  0
LINE
  8
0
 10
22.4606
 20
269.873
 11
22.5
 21
270.5
  0
LINE
  8
0
 10
22.5
 20
270.5
 11
22.5
 21
425.5
  0
LINE
  8
0
 10
22.5
 20
425.5
 11
22.4606
 21
426.127
  0
LINE
  8
0
 10
22.4606
 20
426.127
 11
22.3429
 21
426.743
  0
LINE
  8
0
 10
22.3429
 20
426.743
 11
22.1489
 21
427.341
  0
LINE
  8
0
 10
22.1489
 20
427.341
 11
21.8815
 21
427.909
  0
LINE
  8
0
 10
21.8815
 20
427.909
 11
21.5451
 21
428.439
  0
LINE
  8
0
 10
21.5451
 20
428.439
 11
21.1448
 21
428.923
  0
LINE
  8
0
 10
21.1448
 20
428.923
 11
20.6871
 21
429.353
  0
LINE
  8
0
 10
20.6871
 20
429.353
 11
20.1791
 21
429.722
  0
LINE
  8
0
 10
20.1791
 20
429.722
 11
19.6289
 21
430.024
  0
LINE
  8
0
 10
19.6289
 20
430.024
 11
19.0451
 21
430.255
  0
LINE
  8
0
 10
19.0451
 20
430.255
 11
18.4369
 21
430.411
  0
LINE
  8
0
 10
18.4369
 20
430.411
 11
17.8139
 21
430.49
  0
LINE
  8
0
 10
17.8139
 20
430.49
 11
-17.8139
 21
430.49
  0
LINE
  8
0
 10
-17.8139
 20
430.49
 11
-18.4369
 21
430.411
  0
LINE
  8
0
 10
-18.4369
 20
430.411
 11
-19.0451
 21
430.255
  0
LINE
  8
0
 10
-19.0451
 20
430.255
 11
-19.6289
 21
430.024
  0
LINE
  8
0
 10
-19.6289
 20
430.024
 11
-20.1791
 21
429.722
  0
LINE
  8
0
 10
-20.1791
 20
429.722
 11
-20.6871
 21
429.353
  0
LINE
  8
0
 10
-20.6871
 20
429.353
 11
-21.1448
 21
428.923
  0
LINE
  8
0
 10
-21.1448
 20
428.923
 11
-21.5451
 21
428.439
  0
LINE
  8
0
 10
-21.5451
 20
428.439
 11
-21.8815
 21
427.909
  0
LINE
  8
0
 10
-21.8815
 20
427.909
 11
-22.1489
 21
427.341
  0
LINE
  8
0
 10
-22.1489
 20
427.341
 11
-22.3429
 21
426.743
  0
LINE
  8
0
 10
-22.3429
 20
426.743
 11
-22.4606
 21
426.127
  0
LINE
  8
0
 10
-22.4606
 20
426.127
 11
-22.5
 21
425.5
  0
LINE
  8
0
 10
-22.5
 20
425.5
 11
-22.5
 21
270.5
  0
LINE
  8
0
 10
-22.5
 20
270.5
 11
-22.4606
 21
269.873
  0
LINE
  8
0
 10
-22.4606
 20
269.873
 11
-22.3429
 21
269.257
  0
LINE
  8
0
 10
-22.3429
 20
269.257
 11
-22.1489
 21
268.659
  0
LINE
  8
0
 10
-22.1489
 20
268.659
 11
-21.8815
 21
268.091
  0
LINE
  8
0
 10
-21.8815
 20
268.091
 11
-21.5451
 21
267.561
  0
LINE
  8
0
 10
-21.5451
 20
267.561
 11
-21.1448
 21
267.077
  0
LINE
  8
0
 10
-21.1448
 20
267.077
 11
-20.6871
 21
266.647
  0
LINE
  8
0
 10
-20.6871
 20
266.647
 11
-20.1791
 21
266.278
  0
LINE
  8
0
 10
-20.1791
 20
266.278
 11
-19.6289
 21
265.976
  0
LINE
  8
0
 10
-19.6289
 20
265.976
 11
-19.0451
 21
265.745
  0
LINE
  8
0
 10
-19.0451
 20
265.745
 11
-18.4369
 21
265.589
  0
LINE
  8
0
 10
-18.4369
 20
265.589
 11
-17.8139
 21
265.51
  0
LINE
  8
0
 10
-17.8139
 20
265.51
 11
17.8139
 21
265.51
  0
LINE
  8
0
 10
17.8139
 20
265.51
 11
18.4369
 21
265.589
  0
LINE
  8
0
 10
18.4369
 20
91.5886
 11
19.0451
 21
91.7447
  0
LINE
  8
0
 10
19.0451
 20
91.7447
 11
19.6289
 21
91.9759
  0
LINE
  8
0
 10
19.6289
 20
91.9759
 11
20.1791
 21
92.2784
  0
LINE
  8
0
 10
20.1791
 20
92.2784
 11
20.6871
 21
92.6474
  0
LINE
  8
0
 10
20.6871
 20
92.6474
 11
21.1448
 21
93.0773
  0
LINE
  8
0
 10
21.1448
 20
93.0773
 11
21.5451
 21
93.5611
  0
LINE
  8
0
 10
21.5451
 20
93.5611
 11
21.8815
 21
94.0912
  0
LINE
  8
0
 10
21.8815
 20
94.0912
 11
22.1489
 21
94.6594
  0
LINE
  8
0
 10
22.1489
 20
94.6594
 11
22.3429
 21
95.2566
  0
LINE
  8
0
 10
22.3429
 20
95.2566
 11
22.4606
 21
95.8733
  0
LINE
  8
0
 10
22.4606
 20
95.8733
 11
22.5
 21
96.5
  0
LINE
  8
0
 10
22.5
 20
96.5
 11
22.5
 21
251.5
  0
LINE
  8
0
 10
22.5
 20
251.5
 11
22.4606
 21
252.127
  0
LINE
  8
0
 10
22.4606
 20
252.127
 11
22.3429
 21
252.743
  0
LINE
  8
0
 10
22.3429
 20
252.743
 11
22.1489
 21
253.341
  0
LINE
  8
0
 10
22.1489
 20
253.341
 11
21.8815
 21
253.909
  0
LINE
  8
0
 10
21.8815
 20
253.909
 11
21.5451
 21
254.439
  0
LINE
  8
0
 10
21.5451
 20
254.439
 11
21.1448
 21
254.923
  0
LINE
  8
0
 10
21.1448
 20
254.923
 11
20.6871
 21
255.353
  0
LINE
  8
0
 10
20.6871
 20
255.353
 11
20.1791
 21
255.722
  0
LINE
  8
0
 10
20.1791
 20
255.722
 11
19.6289
 21
256.024
  0
LINE
  8
0
 10
19.6289
 20
256.024
 11
19.0451
 21
256.255
  0
LINE
  8
0
 10
19.0451
 20
256.255
 11
18.4369
 21
256.411
  0
LINE
  8
0
 10
18.4369
 20
256.411
 11
17.8139
 21
256.49
  0
LINE
  8
0
 10
17.8139
 20
256.49
 11
-17.8139
 21
256.49
  0
LINE
  8
0
 10
-17.8139
 20
256.49
 11
-18.4369
 21
256.411
  0
LINE
  8
0
 10
-18.4369
 20
256.411
 11
-19.0451
 21
256.255
  0
LINE
  8
0
 10
-19.0451
 20
256.255
 11
-19.6289
 21
256.024
  0
LINE
  8
0
 10
-19.6289
 20
256.024
 11
-20.1791
 21
255.722
  0
LINE
  8
0
 10
-20.1791
 20
255.722
 11
-20.6871
 21
255.353
  0
LINE
  8
0
 10
-20.6871
 20
255.353
 11
-21.1448
 21
254.923
  0
LINE
  8
0
 10
-21.1448
 20
254.923
 11
-21.5451
 21
254.439
  0
LINE
  8
0
 10
-21.5451
 20
254.439
 11
-21.8815
 21
253.909
  0
LINE
  8
0
 10
-21.8815
 20
253.909
 11
-22.1489
 21
253.341
  0
LINE
  8
0
 10
-22.1489
 20
253.341
 11
-22.3429
 21
252.743
  0
LINE
  8
0
 10
-22.3429
 20
252.743
 11
-22.4606
 21
252.127
  0
LINE
  8
0
 10
-22.4606
 20
252.127
 11
-22.5
 21
251.5
  0
LINE
  8
0
 10
-22.5
 20
251.5
 11
-22.5
 21
96.5
  0
LINE
  8
0
 10
-22.5
 20
96.5
 11
-22.4606
 21
95.8733
  0
LINE
  8
0
 10
-22.4606
 20
95.8733
 11
-22.3429
 21
95.2566
  0
LINE
  8
0
 10
-22.3429
 20
95.2566
 11
-22.1489
 21
94.6594
  0
LINE
  8
0
 10
-22.1489
 20
94.6594
 11
-21.8815
 21
94.0912
  0
LINE
  8
0
 10
-21.8815
 20
94.0912
 11
-21.5451
 21
93.5611
  0
LINE
  8
0
 10
-21.5451
 20
93.5611
 11
-21.1448
 21
93.0773
  0
LINE
  8
0
 10
-21.1448
 20
93.0773
 11
-20.6871
 21
92.6474
  0
LINE
  8
0
 10
-20.6871
 20
92.6474
 11
-20.1791
 21
92.2784
  0
LINE
  8
0
 10
-20.1791
 20
92.2784
 11
-19.6289
 21
91.9759
  0
LINE
  8
0
 10
-19.6289
 20
91.9759
 11
-19.0451
 21
91.7447
  0
LINE
  8
0
 10
-19.0451
 20
91.7447
 11
-18.4369
 21
91.5886
  0
LINE
  8
0
 10
-18.4369
 20
91.5886
 11
-17.8139
 21
91.5099
  0
LINE
  8
0
 10
-17.8139
 20
91.5099
 11
17.8139
 21
91.5099
  0
LINE
  8
0
 10
17.8139
 20
91.5099
 11
18.4369
 21
91.5886
  0
LINE
  8
0
 10
14.887
 20
247.204
 11
14.6627
 21
247.232
  0
LINE
  8
0
 10
14.6627
 20
247.232
 11
14.4438
 21
247.288
  0
LINE
  8
0
 10
14.4438
 20
247.288
 11
14.2336
 21
247.371
  0
LINE
  8
0
 10
14.2336
 20
247.371
 11
14.0355
 21
247.48
  0
LINE
  8
0
 10
14.0355
 20
247.48
 11
13.8526
 21
247.613
  0
LINE
  8
0
 10
13.8526
 20
247.613
 11
13.6879
 21
247.768
  0
LINE
  8
0
 10
13.6879
 20
247.768
 11
13.5438
 21
247.942
  0
LINE
  8
0
 10
13.5438
 20
247.942
 11
13.4226
 21
248.133
  0
LINE
  8
0
 10
13.4226
 20
248.133
 11
13.3264
 21
248.337
  0
LINE
  8
0
 10
13.3264
 20
248.337
 11
13.2565
 21
248.552
  0
LINE
  8
0
 10
13.2565
 20
248.552
 11
13.2142
 21
248.774
  0
LINE
  8
0
 10
13.2142
 20
248.774
 11
13.2
 21
249
  0
LINE
  8
0
 10
13.2
 20
249
 11
13.2142
 21
249.226
  0
LINE
  8
0
 10
13.2142
 20
249.226
 11
13.2565
 21
249.448
  0
LINE
  8
0
 10
13.2565
 20
249.448
 11
13.3264
 21
249.663
  0
LINE
  8
0
 10
13.3264
 20
249.663
 11
13.4226
 21
249.867
  0
LINE
  8
0
 10
13.4226
 20
249.867
 11
13.5438
 21
250.058
  0
LINE
  8
0
 10
13.5438
 20
250.058
 11
13.6879
 21
250.232
  0
LINE
  8
0
 10
13.6879
 20
250.232
 11
13.8526
 21
250.387
  0
LINE
  8
0
 10
13.8526
 20
250.387
 11
14.0355
 21
250.52
  0
LINE
  8
0
 10
14.0355
 20
250.52
 11
14.2336
 21
250.629
  0
LINE
  8
0
 10
14.2336
 20
250.629
 11
14.4438
 21
250.712
  0
LINE
  8
0
 10
14.4438
 20
250.712
 11
14.6627
 21
250.768
  0
LINE
  8
0
 10
14.6627
 20
250.768
 11
14.887
 21
250.796
  0
LINE
  8
0
 10
14.887
 20
250.796
 11
15.113
 21
250.796
  0
LINE
  8
0
 10
15.113
 20
250.796
 11
15.3373
 21
250.768
  0
LINE
  8
0
 10
15.3373
 20
250.768
 11
15.5562
 21
250.712
  0
LINE
  8
0
 10
15.5562
 20
250.712
 11
15.7664
 21
250.629
  0
LINE
  8
0
 10
15.7664
 20
250.629
 11
15.9645
 21
250.52
  0
LINE
  8
0
 10
15.9645
 20
250.52
 11
16.1474
 21
250.387
  0
LINE
  8
0
 10
16.1474
 20
250.387
 11
16.3121
 21
250.232
  0
LINE
  8
0
 10
16.3121
 20
250.232
 11
16.4562
 21
250.058
  0
LINE
  8
0
 10
16.4562
 20
250.058
 11
16.5773
 21
249.867
  0
LINE
  8
0
 10
16.5773
 20
249.867
 11
16.6736
 21
249.663
  0
LINE
  8
0
 10
16.6736
 20
249.663
 11
16.7434
 21
249.448
  0
LINE
  8
0
 10
16.7434
 20
249.448
 11
16.7858
 21
249.226
  0
LINE
  8
0
 10
16.7858
 20
249.226
 11
16.8
 21
249
  0
LINE
  8
0
 10
16.8
 20
249
 11
16.7858
 21
248.774
  0
LINE
  8
0
 10
16.7858
 20
248.774
 11
16.7434
 21
248.552
  0
LINE
  8
0
 10
16.7434
 20
248.552
 11
16.6736
 21
248.337
  0
LINE
  8
0
 10
16.6736
 20
248.337
 11
16.5773
 21
248.133
  0
LINE
  8
0
 10
16.5773
 20
248.133
 11
16.4562
 21
247.942
  0
LINE
  8
0
 10
16.4562
 20
247.942
 11
16.3121
 21
247.768
  0
LINE
  8
0
 10
16.3121
 20
247.768
 11
16.1474
 21
247.613
  0
LINE
  8
0
 10
16.1474
 20
247.613
 11
15.9645
 21
247.48
  0
LINE
  8
0
 10
15.9645
 20
247.48
 11
15.7664
 21
247.371
  0
LINE
  8
0
 10
15.7664
 20
247.371
 11
15.5562
 21
247.288
  0
LINE
  8
0
 10
15.5562
 20
247.288
 11
15.3373
 21
247.232
  0
LINE
  8
0
 10
15.3373
 20
247.232
 11
15.113
 21
247.204
  0
LINE
  8
0
 10
15.113
 20
247.204
 11
14.887
 21
247.204
  0
LINE
  8
0
 10
-15.113
 20
247.204
 11
-15.3373
 21
247.232
  0
LINE
  8
0
 10
-15.3373
 20
247.232
 11
-15.5562
 21
247.288
  0
LINE
  8
0
 10
-15.5562
 20
247.288
 11
-15.7664
 21
247.371
  0
LINE
  8
0
 10
-15.7664
 20
247.371
 11
-15.9645
 21
247.48
  0
LINE
  8
0
 10
-15.9645
 20
247.48
 11
-16.1474
 21
247.613
  0
LINE
  8
0
 10
-16.1474
 20
247.613
 11
-16.3121
 21
247.768
  0
LINE
  8
0
 10
-16.3121
 20
247.768
 11
-16.4562
 21
247.942
  0
LINE
  8
0
 10
-16.4562
 20
247.942
 11
-16.5773
 21
248.133
  0
LINE
  8
0
 10
-16.5773
 20
248.133
 11
-16.6736
 21
248.337
  0
LINE
  8
0
 10
-16.6736
 20
248.337
 11
-16.7434
 21
248.552
  0
LINE
  8
0
 10
-16.7434
 20
248.552
 11
-16.7858
 21
248.774
  0
LINE
  8
0
 10
-16.7858
 20
248.774
 11
-16.8
 21
249
  0
LINE
  8
0
 10
-16.8
 20
249
 11
-16.7858
 21
249.226
  0
LINE
  8
0
 10
-16.7858
 20
249.226
 11
-16.7434
 21
249.448
  0
LINE
  8
0
 10
-16.7434
 20
249.448
 11
-16.6736
 21
249.663
  0
LINE
  8
0
 10
-16.6736
 20
249.663
 11
-16.5773
 21
249.867
  0
LINE
  8
0
 10
-16.5773
 20
249.867
 11
-16.4562
 21
250.058
  0
LINE
  8
0
 10
-16.4562
 20
250.058
 11
-16.3121
 21
250.232
  0
LINE
  8
0
 10
-16.3121
 20
250.232
 11
-16.1474
 21
250.387
  0
LINE
  8
0
 10
-16.1474
 20
250.387
 11
-15.9645
 21
250.52
  0
LINE
  8
0
 10
-15.9645
 20
250.52
 11
-15.7664
 21
250.629
  0
LINE
  8
0
 10
-15.7664
 20
250.629
 11
-15.5562
 21
250.712
  0
LINE
  8
0
 10
-15.5562
 20
250.712
 11
-15.3373
 21
250.768
  0
LINE
  8
0
 10
-15.3373
 20
250.768
 11
-15.113
 21
250.796
  0
LINE
  8
0
 10
-15.113
 20
250.796
 11
-14.887
 21
250.796
  0
LINE
  8
0
 10
-14.887
 20
250.796
 11
-14.6627
 21
250.768
  0
LINE
  8
0
 10
-14.6627
 20
250.768
 11
-14.4438
 21
250.712
  0
LINE
  8
0
 10
-14.4438
 20
250.712
 11
-14.2336
 21
250.629
  0
LINE
  8
0
 10
-14.2336
 20
250.629
 11
-14.0355
 21
250.52
  0
LINE
  8
0
 10
-14.0355
 20
250.52
 11
-13.8526
 21
250.387
  0
LINE
  8
0
 10
-13.8526
 20
250.387
 11
-13.6879
 21
250.232
  0
LINE
  8
0
 10
-13.6879
 20
250.232
 11
-13.5438
 21
250.058
  0
LINE
  8
0
 10
-13.5438
 20
250.058
 11
-13.4226
 21
249.867
  0
LINE
  8
0
 10
-13.4226
 20
249.867
 11
-13.3264
 21
249.663
  0
LINE
  8
0
 10
-13.3264
 20
249.663
 11
-13.2565
 21
249.448
  0
LINE
  8
0
 10
-13.2565
 20
249.448
 11
-13.2142
 21
249.226
  0
LINE
  8
0
 10
-13.2142
 20
249.226
 11
-13.2
 21
249
  0
LINE
  8
0
 10
-13.2
 20
249
 11
-13.2142
 21
248.774
  0
LINE
  8
0
 10
-13.2142
 20
248.774
 11
-13.2565
 21
248.552
  0
LINE
  8
0
 10
-13.2565
 20
248.552
 11
-13.3264
 21
248.337
  0
LINE
  8
0
 10
-13.3264
 20
248.337
 11
-13.4226
 21
248.133
  0
LINE
  8
0
 10
-13.4226
 20
248.133
 11
-13.5438
 21
247.942
  0
LINE
  8
0
 10
-13.5438
 20
247.942
 11
-13.6879
 21
247.768
  0
LINE
  8
0
 10
-13.6879
 20
247.768
 11
-13.8526
 21
247.613
  0
LINE
  8
0
 10
-13.8526
 20
247.613
 11
-14.0355
 21
247.48
  0
LINE
  8
0
 10
-14.0355
 20
247.48
 11
-14.2336
 21
247.371
  0
LINE
  8
0
 10
-14.2336
 20
247.371
 11
-14.4438
 21
247.288
  0
LINE
  8
0
 10
-14.4438
 20
247.288
 11
-14.6627
 21
247.232
  0
LINE
  8
0
 10
-14.6627
 20
247.232
 11
-14.887
 21
247.204
  0
LINE
  8
0
 10
-14.887
 20
247.204
 11
-15.113
 21
247.204
  0
LINE
  8
0
 10
-15.113
 20
97.2036
 11
-15.3373
 21
97.2319
  0
LINE
  8
0
 10
-15.3373
 20
97.2319
 11
-15.5562
 21
97.2881
  0
LINE
  8
0
 10
-15.5562
 20
97.2881
 11
-15.7664
 21
97.3713
  0
LINE
  8
0
 10
-15.7664
 20
97.3713
 11
-15.9645
 21
97.4802
  0
LINE
  8
0
 10
-15.9645
 20
97.4802
 11
-16.1474
 21
97.6131
  0
LINE
  8
0
 10
-16.1474
 20
97.6131
 11
-16.3121
 21
97.7678
  0
LINE
  8
0
 10
-16.3121
 20
97.7678
 11
-16.4562
 21
97.942
  0
LINE
  8
0
 10
-16.4562
 20
97.942
 11
-16.5773
 21
98.1328
  0
LINE
  8
0
 10
-16.5773
 20
98.1328
 11
-16.6736
 21
98.3374
  0
LINE
  8
0
 10
-16.6736
 20
98.3374
 11
-16.7434
 21
98.5524
  0
LINE
  8
0
 10
-16.7434
 20
98.5524
 11
-16.7858
 21
98.7744
  0
LINE
  8
0
 10
-16.7858
 20
98.7744
 11
-16.8
 21
99
  0
LINE
  8
0
 10
-16.8
 20
99
 11
-16.7858
 21
99.2256
  0
LINE
  8
0
 10
-16.7858
 20
99.2256
 11
-16.7434
 21
99.4476
  0
LINE
  8
0
 10
-16.7434
 20
99.4476
 11
-16.6736
 21
99.6626
  0
LINE
  8
0
 10
-16.6736
 20
99.6626
 11
-16.5773
 21
99.8672
  0
LINE
  8
0
 10
-16.5773
 20
99.8672
 11
-16.4562
 21
100.058
  0
LINE
  8
0
 10
-16.4562
 20
100.058
 11
-16.3121
 21
100.232
  0
LINE
  8
0
 10
-16.3121
 20
100.232
 11
-16.1474
 21
100.387
  0
LINE
  8
0
 10
-16.1474
 20
100.387
 11
-15.9645
 21
100.52
  0
LINE
  8
0
 10
-15.9645
 20
100.52
 11
-15.7664
 21
100.629
  0
LINE
  8
0
 10
-15.7664
 20
100.629
 11
-15.5562
 21
100.712
  0
LINE
  8
0
 10
-15.5562
 20
100.712
 11
-15.3373
 21
100.768
  0
LINE
  8
0
 10
-15.3373
 20
100.768
 11
-15.113
 21
100.796
  0
LINE
  8
0
 10
-15.113
 20
100.796
 11
-14.887
 21
100.796
  0
LINE
  8
0
 10
-14.887
 20
100.796
 11
-14.6627
 21
100.768
  0
LINE
  8
0
 10
-14.6627
 20
100.768
 11
-14.4438
 21
100.712
  0
LINE
  8
0
 10
-14.4438
 20
100.712
 11
-14.2336
 21
100.629
  0
LINE
  8
0
 10
-14.2336
 20
100.629
 11
-14.0355
 21
100.52
  0
LINE
  8
0
 10
-14.0355
 20
100.52
 11
-13.8526
 21
100.387
  0
LINE
  8
0
 10
-13.8526
 20
100.387
 11
-13.6879
 21
100.232
  0
LINE
  8
0
 10
-13.6879
 20
100.232
 11
-13.5438
 21
100.058
  0
LINE
  8
0
 10
-13.5438
 20
100.058
 11
-13.4226
 21
99.8672
  0
LINE
  8
0
 10
-13.4226
 20
99.8672
 11
-13.3264
 21
99.6626
  0
LINE
  8
0
 10
-13.3264
 20
99.6626
 11
-13.2565
 21
99.4476
  0
LINE
  8
0
 10
-13.2565
 20
99.4476
 11
-13.2142
 21
99.2256
  0
LINE
  8
0
 10
-13.2142
 20
99.2256
 11
-13.2
 21
99
  0
LINE
  8
0
 10
-13.2
 20
99
 11
-13.2142
 21
98.7744
  0
LINE
  8
0
 10
-13.2142
 20
98.7744
 11
-13.2565
 21
98.5524
  0
LINE
  8
0
 10
-13.2565
 20
98.5524
 11
-13.3264
 21
98.3374
  0
LINE
  8
0
 10
-13.3264
 20
98.3374
 11
-13.4226
 21
98.1328
  0
LINE
  8
0
 10
-13.4226
 20
98.1328
 11
-13.5438
 21
97.942
  0
LINE
  8
0
 10
-13.5438
 20
97.942
 11
-13.6879
 21
97.7678
  0
LINE
  8
0
 10
-13.6879
 20
97.7678
 11
-13.8526
 21
97.6131
  0
LINE
  8
0
 10
-13.8526
 20
97.6131
 11
-14.0355
 21
97.4802
  0
LINE
  8
0
 10
-14.0355
 20
97.4802
 11
-14.2336
 21
97.3713
  0
LINE
  8
0
 10
-14.2336
 20
97.3713
 11
-14.4438
 21
97.2881
  0
LINE
  8
0
 10
-14.4438
 20
97.2881
 11
-14.6627
 21
97.2319
  0
LINE
  8
0
 10
-14.6627
 20
97.2319
 11
-14.887
 21
97.2036
  0
LINE
  8
0
 10
-14.887
 20
97.2036
 11
-15.113
 21
97.2036
  0
LINE
  8
0
 10
14.887
 20
97.2036
 11
14.6627
 21
97.2319
  0
LINE
  8
0
 10
14.6627
 20
97.2319
 11
14.4438
 21
97.2881
  0
LINE
  8
0
 10
14.4438
 20
97.2881
 11
14.2336
 21
97.3713
  0
LINE
  8
0
 10
14.2336
 20
97.3713
 11
14.0355
 21
97.4802
  0
LINE
  8
0
 10
14.0355
 20
97.4802
 11
13.8526
 21
97.6131
  0
LINE
  8
0
 10
13.8526
 20
97.6131
 11
13.6879
 21
97.7678
  0
LINE
  8
0
 10
13.6879
 20
97.7678
 11
13.5438
 21
97.942
  0
LINE
  8
0
 10
13.5438
 20
97.942
 11
13.4226
 21
98.1328
  0
LINE
  8
0
 10
13.4226
 20
98.1328
 11
13.3264
 21
98.3374
  0
LINE
  8
0
 10
13.3264
 20
98.3374
 11
13.2565
 21
98.5524
  0
LINE
  8
0
 10
13.2565
 20
98.5524
 11
13.2142
 21
98.7744
  0
LINE
  8
0
 10
13.2142
 20
98.7744
 11
13.2
 21
99
  0
LINE
  8
0
 10
13.2
 20
99
 11
13.2142
 21
99.2256
  0
LINE
  8
0
 10
13.2142
 20
99.2256
 11
13.2565
 21
99.4476
  0
LINE
  8
0
 10
13.2565
 20
99.4476
 11
13.3264
 21
99.6626
  0
LINE
  8
0
 10
13.3264
 20
99.6626
 11
13.4226
 21
99.8672
  0
LINE
  8
0
 10
13.4226
 20
99.8672
 11
13.5438
 21
100.058
  0
LINE
  8
0
 10
13.5438
 20
100.058
 11
13.6879
 21
100.232
  0
LINE
  8
0
 10
13.6879
 20
100.232
 11
13.8526
 21
100.387
  0
LINE
  8
0
 10
13.8526
 20
100.387
 11
14.0355
 21
100.52
  0
LINE
  8
0
 10
14.0355
 20
100.52
 11
14.2336
 21
100.629
  0
LINE
  8
0
 10
14.2336
 20
100.629
 11
14.4438
 21
100.712
  0
LINE
  8
0
 10
14.4438
 20
100.712
 11
14.6627
 21
100.768
  0
LINE
  8
0
 10
14.6627
 20
100.768
 11
14.887
 21
100.796
  0
LINE
  8
0
 10
14.887
 20
100.796
 11
15.113
 21
100.796
  0
LINE
  8
0
 10
15.113
 20
100.796
 11
15.3373
 21
100.768
  0
LINE
  8
0
 10
15.3373
 20
100.768
 11
15.5562
 21
100.712
  0
LINE
  8
0
 10
15.5562
 20
100.712
 11
15.7664
 21
100.629
  0
LINE
  8
0
 10
15.7664
 20
100.629
 11
15.9645
 21
100.52
  0
LINE
  8
0
 10
15.9645
 20
100.52
 11
16.1474
 21
100.387
  0
LINE
  8
0
 10
16.1474
 20
100.387
 11
16.3121
 21
100.232
  0
LINE
  8
0
 10
16.3121
 20
100.232
 11
16.4562
 21
100.058
  0
LINE
  8
0
 10
16.4562
 20
100.058
 11
16.5773
 21
99.8672
  0
LINE
  8
0
 10
16.5773
 20
99.8672
 11
16.6736
 21
99.6626
  0
LINE
  8
0
 10
16.6736
 20
99.6626
 11
16.7434
 21
99.4476
  0
LINE
  8
0
 10
16.7434
 20
99.4476
 11
16.7858
 21
99.2256
  0
LINE
  8
0
 10
16.7858
 20
99.2256
 11
16.8
 21
99
  0
LINE
  8
0
 10
16.8
 20
99
 11
16.7858
 21
98.7744
  0
LINE
  8
0
 10
16.7858
 20
98.7744
 11
16.7434
 21
98.5524
  0
LINE
  8
0
 10
16.7434
 20
98.5524
 11
16.6736
 21
98.3374
  0
LINE
  8
0
 10
16.6736
 20
98.3374
 11
16.5773
 21
98.1328
  0
LINE
  8
0
 10
16.5773
 20
98.1328
 11
16.4562
 21
97.942
  0
LINE
  8
0
 10
16.4562
 20
97.942
 11
16.3121
 21
97.7678
  0
LINE
  8
0
 10
16.3121
 20
97.7678
 11
16.1474
 21
97.6131
  0
LINE
  8
0
 10
16.1474
 20
97.6131
 11
15.9645
 21
97.4802
  0
LINE
  8
0
 10
15.9645
 20
97.4802
 11
15.7664
 21
97.3713
  0
LINE
  8
0
 10
15.7664
 20
97.3713
 11
15.5562
 21
97.2881
  0
LINE
  8
0
 10
15.5562
 20
97.2881
 11
15.3373
 21
97.2319
  0
LINE
  8
0
 10
15.3373
 20
97.2319
 11
15.113
 21
97.2036
  0
LINE
  8
0
 10
15.113
 20
97.2036
 11
14.887
 21
97.2036
  0
ENDSEC
  0
SECTION
  2
OBJECTS
  0
DICTIONARY
  0
ENDSEC
  0
EOF
