  0
SECTION
  2
BLOCKS
  0
ENDSEC
  0
SECTION
  2
ENTITIES
  0
LINE
  8
0
 10
-21
 20
142.441
 11
-20.6871
 21
142.147
  0
LINE
  8
0
 10
-20.6871
 20
142.147
 11
-20.1791
 21
141.778
  0
LINE
  8
0
 10
-20.1791
 20
141.778
 11
-19.6289
 21
141.476
  0
LINE
  8
0
 10
-19.6289
 20
141.476
 11
-19.0451
 21
141.245
  0
LINE
  8
0
 10
-19.0451
 20
141.245
 11
-18.4369
 21
141.089
  0
LINE
  8
0
 10
-18.4369
 20
141.089
 11
-17.8139
 21
141.01
  0
LINE
  8
0
 10
-17.8139
 20
141.01
 11
17.8139
 21
141.01
  0
LINE
  8
0
 10
17.8139
 20
141.01
 11
18.4369
 21
141.089
  0
LINE
  8
0
 10
18.4369
 20
141.089
 11
19.0451
 21
141.245
  0
LINE
  8
0
 10
19.0451
 20
141.245
 11
19.6289
 21
141.476
  0
LINE
  8
0
 10
19.6289
 20
141.476
 11
20.1791
 21
141.778
  0
LINE
  8
0
 10
20.1791
 20
141.778
 11
20.6871
 21
142.147
  0
LINE
  8
0
 10
20.6871
 20
142.147
 11
21.1448
 21
142.577
  0
LINE
  8
0
 10
21.1448
 20
142.577
 11
21.5451
 21
143.061
  0
LINE
  8
0
 10
21.5451
 20
143.061
 11
21.8815
 21
143.591
  0
LINE
  8
0
 10
21.8815
 20
143.591
 11
22.1489
 21
144.159
  0
LINE
  8
0
 10
22.1489
 20
144.159
 11
22.3429
 21
144.757
  0
LINE
  8
0
 10
22.3429
 20
144.757
 11
22.4606
 21
145.373
  0
LINE
  8
0
 10
22.4606
 20
145.373
 11
22.5
 21
146
  0
LINE
  8
0
 10
22.5
 20
146
 11
22.5
 21
166
  0
LINE
  8
0
 10
22.5
 20
166
 11
22.4606
 21
166.627
  0
LINE
  8
0
 10
22.4606
 20
166.627
 11
22.3429
 21
167.243
  0
LINE
  8
0
 10
22.3429
 20
167.243
 11
22.1489
 21
167.841
  0
LINE
  8
0
 10
22.1489
 20
167.841
 11
21.8815
 21
168.409
  0
LINE
  8
0
 10
21.8815
 20
168.409
 11
21.5451
 21
168.939
  0
LINE
  8
0
 10
21.5451
 20
168.939
 11
21.1448
 21
169.423
  0
LINE
  8
0
 10
21.1448
 20
169.423
 11
20.6871
 21
169.853
  0
LINE
  8
0
 10
20.6871
 20
169.853
 11
20.1791
 21
170.222
  0
LINE
  8
0
 10
20.1791
 20
170.222
 11
19.6289
 21
170.524
  0
LINE
  8
0
 10
19.6289
 20
170.524
 11
19.0451
 21
170.755
  0
LINE
  8
0
 10
19.0451
 20
170.755
 11
18.4369
 21
170.911
  0
LINE
  8
0
 10
18.4369
 20
170.911
 11
17.8139
 21
170.99
  0
LINE
  8
0
 10
17.8139
 20
170.99
 11
-17.8139
 21
170.99
  0
LINE
  8
0
 10
-17.8139
 20
170.99
 11
-18.4369
 21
170.911
  0
LINE
  8
0
 10
-18.4369
 20
170.911
 11
-19.0451
 21
170.755
  0
LINE
  8
0
 10
-19.0451
 20
170.755
 11
-19.6289
 21
170.524
  0
LINE
  8
0
 10
-19.6289
 20
170.524
 11
-20.1791
 21
170.222
  0
LINE
  8
0
 10
-20.1791
 20
170.222
 11
-20.6871
 21
169.853
  0
LINE
  8
0
 10
-20.6871
 20
169.853
 11
-21
 21
169.559
  0
LINE
  8
0
 10
-21
 20
169.559
 11
-21
 21
170.99
  0
LINE
  8
0
 10
-21
 20
170.99
 11
-24
 21
170.99
  0
LINE
  8
0
 10
-24
 20
170.99
 11
-24
 21
141.01
  0
LINE
  8
0
 10
-24
 20
141.01
 11
-21
 21
141.01
  0
LINE
  8
0
 10
-21
 20
141.01
 11
-21
 21
142.441
  0
LINE
  8
0
 10
-17.2432
 20
142.635
 11
-17.7256
 21
142.696
  0
LINE
  8
0
 10
-17.7256
 20
142.696
 11
-18.1967
 21
142.817
  0
LINE
  8
0
 10
-18.1967
 20
142.817
 11
-18.6489
 21
142.996
  0
LINE
  8
0
 10
-18.6489
 20
142.996
 11
-19.0751
 21
143.23
  0
LINE
  8
0
 10
-19.0751
 20
143.23
 11
-19.4685
 21
143.516
  0
LINE
  8
0
 10
-19.4685
 20
143.516
 11
-19.823
 21
143.849
  0
LINE
  8
0
 10
-19.823
 20
143.849
 11
-20.133
 21
144.224
  0
LINE
  8
0
 10
-20.133
 20
144.224
 11
-20.3936
 21
144.634
  0
LINE
  8
0
 10
-20.3936
 20
144.634
 11
-20.6007
 21
145.074
  0
LINE
  8
0
 10
-20.6007
 20
145.074
 11
-20.751
 21
145.537
  0
LINE
  8
0
 10
-20.751
 20
145.537
 11
-20.8421
 21
146.015
  0
LINE
  8
0
 10
-20.8421
 20
146.015
 11
-20.8726
 21
146.5
  0
LINE
  8
0
 10
-20.8726
 20
146.5
 11
-20.8726
 21
165.5
  0
LINE
  8
0
 10
-20.8726
 20
165.5
 11
-20.8421
 21
165.985
  0
LINE
  8
0
 10
-20.8421
 20
165.985
 11
-20.751
 21
166.463
  0
LINE
  8
0
 10
-20.751
 20
166.463
 11
-20.6007
 21
166.926
  0
LINE
  8
0
 10
-20.6007
 20
166.926
 11
-20.3936
 21
167.366
  0
LINE
  8
0
 10
-20.3936
 20
167.366
 11
-20.133
 21
167.776
  0
LINE
  8
0
 10
-20.133
 20
167.776
 11
-19.823
 21
168.151
  0
LINE
  8
0
 10
-19.823
 20
168.151
 11
-19.4685
 21
168.484
  0
LINE
  8
0
 10
-19.4685
 20
168.484
 11
-19.0751
 21
168.77
  0
LINE
  8
0
 10
-19.0751
 20
168.77
 11
-18.6489
 21
169.004
  0
LINE
  8
0
 10
-18.6489
 20
169.004
 11
-18.1967
 21
169.183
  0
LINE
  8
0
 10
-18.1967
 20
169.183
 11
-17.7256
 21
169.304
  0
LINE
  8
0
 10
-17.7256
 20
169.304
 11
-17.2432
 21
169.365
  0
LINE
  8
0
 10
-17.2432
 20
169.365
 11
17.2432
 21
169.365
  0
LINE
  8
0
 10
17.2432
 20
169.365
 11
17.7256
 21
169.304
  0
LINE
  8
0
 10
17.7256
 20
169.304
 11
18.1967
 21
169.183
  0
LINE
  8
0
 10
18.1967
 20
169.183
 11
18.6489
 21
169.004
  0
LINE
  8
0
 10
18.6489
 20
169.004
 11
19.0751
 21
168.77
  0
LINE
  8
0
 10
19.0751
 20
168.77
 11
19.4685
 21
168.484
  0
LINE
  8
0
 10
19.4685
 20
168.484
 11
19.823
 21
168.151
  0
LINE
  8
0
 10
19.823
 20
168.151
 11
20.133
 21
167.776
  0
LINE
  8
0
 10
20.133
 20
167.776
 11
20.3936
 21
167.366
  0
LINE
  8
0
 10
20.3936
 20
167.366
 11
20.6007
 21
166.926
  0
LINE
  8
0
 10
20.6007
 20
166.926
 11
20.751
 21
166.463
  0
LINE
  8
0
 10
20.751
 20
166.463
 11
20.8421
 21
165.985
  0
LINE
  8
0
 10
20.8421
 20
165.985
 11
20.8726
 21
165.5
  0
LINE
  8
0
 10
20.8726
 20
165.5
 11
20.8726
 21
146.5
  0
LINE
  8
0
 10
20.8726
 20
146.5
 11
20.8421
 21
146.015
  0
LINE
  8
0
 10
20.8421
 20
146.015
 11
20.751
 21
145.537
  0
LINE
  8
0
 10
20.751
 20
145.537
 11
20.6007
 21
145.074
  0
LINE
  8
0
 10
20.6007
 20
145.074
 11
20.3936
 21
144.634
  0
LINE
  8
0
 10
20.3936
 20
144.634
 11
20.133
 21
144.224
  0
LINE
  8
0
 10
20.133
 20
144.224
 11
19.823
 21
143.849
  0
LINE
  8
0
 10
19.823
 20
143.849
 11
19.4685
 21
143.516
  0
LINE
  8
0
 10
19.4685
 20
143.516
 11
19.0751
 21
143.23
  0
LINE
  8
0
 10
19.0751
 20
143.23
 11
18.6489
 21
142.996
  0
LINE
  8
0
 10
18.6489
 20
142.996
 11
18.1967
 21
142.817
  0
LINE
  8
0
 10
18.1967
 20
142.817
 11
17.7256
 21
142.696
  0
LINE
  8
0
 10
17.7256
 20
142.696
 11
17.2432
 21
142.635
  0
LINE
  8
0
 10
17.2432
 20
142.635
 11
-17.2432
 21
142.635
  0
LINE
  8
0
 10
18.4369
 20
102.089
 11
19.0451
 21
102.245
  0
LINE
  8
0
 10
19.0451
 20
102.245
 11
19.6289
 21
102.476
  0
LINE
  8
0
 10
19.6289
 20
102.476
 11
20.1791
 21
102.778
  0
LINE
  8
0
 10
20.1791
 20
102.778
 11
20.6871
 21
103.147
  0
LINE
  8
0
 10
20.6871
 20
103.147
 11
21.1448
 21
103.577
  0
LINE
  8
0
 10
21.1448
 20
103.577
 11
21.5451
 21
104.061
  0
LINE
  8
0
 10
21.5451
 20
104.061
 11
21.8815
 21
104.591
  0
LINE
  8
0
 10
21.8815
 20
104.591
 11
22.1489
 21
105.159
  0
LINE
  8
0
 10
22.1489
 20
105.159
 11
22.3429
 21
105.757
  0
LINE
  8
0
 10
22.3429
 20
105.757
 11
22.4606
 21
106.373
  0
LINE
  8
0
 10
22.4606
 20
106.373
 11
22.5
 21
107
  0
LINE
  8
0
 10
22.5
 20
107
 11
22.5
 21
127
  0
LINE
  8
0
 10
22.5
 20
127
 11
22.4606
 21
127.627
  0
LINE
  8
0
 10
22.4606
 20
127.627
 11
22.3429
 21
128.243
  0
LINE
  8
0
 10
22.3429
 20
128.243
 11
22.1489
 21
128.841
  0
LINE
  8
0
 10
22.1489
 20
128.841
 11
21.8815
 21
129.409
  0
LINE
  8
0
 10
21.8815
 20
129.409
 11
21.5451
 21
129.939
  0
LINE
  8
0
 10
21.5451
 20
129.939
 11
21.1448
 21
130.423
  0
LINE
  8
0
 10
21.1448
 20
130.423
 11
20.6871
 21
130.853
  0
LINE
  8
0
 10
20.6871
 20
130.853
 11
20.1791
 21
131.222
  0
LINE
  8
0
 10
20.1791
 20
131.222
 11
19.6289
 21
131.524
  0
LINE
  8
0
 10
19.6289
 20
131.524
 11
19.0451
 21
131.755
  0
LINE
  8
0
 10
19.0451
 20
131.755
 11
18.4369
 21
131.911
  0
LINE
  8
0
 10
18.4369
 20
131.911
 11
17.8139
 21
131.99
  0
LINE
  8
0
 10
17.8139
 20
131.99
 11
-17.8139
 21
131.99
  0
LINE
  8
0
 10
-17.8139
 20
131.99
 11
-18.4369
 21
131.911
  0
LINE
  8
0
 10
-18.4369
 20
131.911
 11
-19.0451
 21
131.755
  0
LINE
  8
0
 10
-19.0451
 20
131.755
 11
-19.6289
 21
131.524
  0
LINE
  8
0
 10
-19.6289
 20
131.524
 11
-20.1791
 21
131.222
  0
LINE
  8
0
 10
-20.1791
 20
131.222
 11
-20.6871
 21
130.853
  0
LINE
  8
0
 10
-20.6871
 20
130.853
 11
-21
 21
130.559
  0
LINE
  8
0
 10
-21
 20
130.559
 11
-21
 21
131.615
  0
LINE
  8
0
 10
-21
 20
131.615
 11
-24
 21
131.615
  0
LINE
  8
0
 10
-24
 20
131.615
 11
-24
 21
102.385
  0
LINE
  8
0
 10
-24
 20
102.385
 11
-21
 21
102.385
  0
LINE
  8
0
 10
-21
 20
102.385
 11
-21
 21
103.441
  0
LINE
  8
0
 10
-21
 20
103.441
 11
-20.6871
 21
103.147
  0
LINE
  8
0
 10
-20.6871
 20
103.147
 11
-20.1791
 21
102.778
  0
LINE
  8
0
 10
-20.1791
 20
102.778
 11
-19.6289
 21
102.476
  0
LINE
  8
0
 10
-19.6289
 20
102.476
 11
-19.0451
 21
102.245
  0
LINE
  8
0
 10
-19.0451
 20
102.245
 11
-18.4369
 21
102.089
  0
LINE
  8
0
 10
-18.4369
 20
102.089
 11
-17.8139
 21
102.01
  0
LINE
  8
0
 10
-17.8139
 20
102.01
 11
17.8139
 21
102.01
  0
LINE
  8
0
 10
17.8139
 20
102.01
 11
18.4369
 21
102.089
  0
LINE
  8
0
 10
18.4369
 20
63.0886
 11
19.0451
 21
63.2447
  0
LINE
  8
0
 10
19.0451
 20
63.2447
 11
19.6289
 21
63.4759
  0
LINE
  8
0
 10
19.6289
 20
63.4759
 11
20.1791
 21
63.7784
  0
LINE
  8
0
 10
20.1791
 20
63.7784
 11
20.6871
 21
64.1474
  0
LINE
  8
0
 10
20.6871
 20
64.1474
 11
21.1448
 21
64.5773
  0
LINE
  8
0
 10
21.1448
 20
64.5773
 11
21.5451
 21
65.0611
  0
LINE
  8
0
 10
21.5451
 20
65.0611
 11
21.8815
 21
65.5912
  0
LINE
  8
0
 10
21.8815
 20
65.5912
 11
22.1489
 21
66.1594
  0
LINE
  8
0
 10
22.1489
 20
66.1594
 11
22.3429
 21
66.7566
  0
LINE
  8
0
 10
22.3429
 20
66.7566
 11
22.4606
 21
67.3733
  0
LINE
  8
0
 10
22.4606
 20
67.3733
 11
22.5
 21
68
  0
LINE
  8
0
 10
22.5
 20
68
 11
22.5
 21
88
  0
LINE
  8
0
 10
22.5
 20
88
 11
22.4606
 21
88.6267
  0
LINE
  8
0
 10
22.4606
 20
88.6267
 11
22.3429
 21
89.2434
  0
LINE
  8
0
 10
22.3429
 20
89.2434
 11
22.1489
 21
89.8406
  0
LINE
  8
0
 10
22.1489
 20
89.8406
 11
21.8815
 21
90.4088
  0
LINE
  8
0
 10
21.8815
 20
90.4088
 11
21.5451
 21
90.9389
  0
LINE
  8
0
 10
21.5451
 20
90.9389
 11
21.1448
 21
91.4227
  0
LINE
  8
0
 10
21.1448
 20
91.4227
 11
20.6871
 21
91.8526
  0
LINE
  8
0
 10
20.6871
 20
91.8526
 11
20.1791
 21
92.2216
  0
LINE
  8
0
 10
20.1791
 20
92.2216
 11
19.6289
 21
92.5241
  0
LINE
  8
0
 10
19.6289
 20
92.5241
 11
19.0451
 21
92.7553
  0
LINE
  8
0
 10
19.0451
 20
92.7553
 11
18.4369
 21
92.9114
  0
LINE
  8
0
 10
18.4369
 20
92.9114
 11
17.8139
 21
92.9901
  0
LINE
  8
0
 10
17.8139
 20
92.9901
 11
-17.8139
 21
92.9901
  0
LINE
  8
0
 10
-17.8139
 20
92.9901
 11
-18.4369
 21
92.9114
  0
LINE
  8
0
 10
-18.4369
 20
92.9114
 11
-19.0451
 21
92.7553
  0
LINE
  8
0
 10
-19.0451
 20
92.7553
 11
-19.6289
 21
92.5241
  0
LINE
  8
0
 10
-19.6289
 20
92.5241
 11
-20.1791
 21
92.2216
  0
LINE
  8
0
 10
-20.1791
 20
92.2216
 11
-20.6871
 21
91.8526
  0
LINE
  8
0
 10
-20.6871
 20
91.8526
 11
-21.1448
 21
91.4227
  0
LINE
  8
0
 10
-21.1448
 20
91.4227
 11
-21.5451
 21
90.9389
  0
LINE
  8
0
 10
-21.5451
 20
90.9389
 11
-21.8815
 21
90.4088
  0
LINE
  8
0
 10
-21.8815
 20
90.4088
 11
-22.1489
 21
89.8406
  0
LINE
  8
0
 10
-22.1489
 20
89.8406
 11
-22.3429
 21
89.2434
  0
LINE
  8
0
 10
-22.3429
 20
89.2434
 11
-22.4
 21
88.9442
  0
LINE
  8
0
 10
-22.4
 20
88.9442
 11
-24
 21
88.9442
  0
LINE
  8
0
 10
-24
 20
88.9442
 11
-24
 21
67.0558
  0
LINE
  8
0
 10
-24
 20
67.0558
 11
-22.4
 21
67.0558
  0
LINE
  8
0
 10
-22.4
 20
67.0558
 11
-22.3429
 21
66.7566
  0
LINE
  8
0
 10
-22.3429
 20
66.7566
 11
-22.1489
 21
66.1594
  0
LINE
  8
0
 10
-22.1489
 20
66.1594
 11
-21.8815
 21
65.5912
  0
LINE
  8
0
 10
-21.8815
 20
65.5912
 11
-21.5451
 21
65.0611
  0
LINE
  8
0
 10
-21.5451
 20
65.0611
 11
-21.1448
 21
64.5773
  0
LINE
  8
0
 10
-21.1448
 20
64.5773
 11
-20.6871
 21
64.1474
  0
LINE
  8
0
 10
-20.6871
 20
64.1474
 11
-20.1791
 21
63.7784
  0
LINE
  8
0
 10
-20.1791
 20
63.7784
 11
-19.6289
 21
63.4759
  0
LINE
  8
0
 10
-19.6289
 20
63.4759
 11
-19.0451
 21
63.2447
  0
LINE
  8
0
 10
-19.0451
 20
63.2447
 11
-18.4369
 21
63.0886
  0
LINE
  8
0
 10
-18.4369
 20
63.0886
 11
-17.8139
 21
63.0099
  0
LINE
  8
0
 10
-17.8139
 20
63.0099
 11
17.8139
 21
63.0099
  0
LINE
  8
0
 10
17.8139
 20
63.0099
 11
18.4369
 21
63.0886
  0
LINE
  8
0
 10
-15.113
 20
83.7036
 11
-15.3373
 21
83.7319
  0
LINE
  8
0
 10
-15.3373
 20
83.7319
 11
-15.5562
 21
83.7881
  0
LINE
  8
0
 10
-15.5562
 20
83.7881
 11
-15.7664
 21
83.8713
  0
LINE
  8
0
 10
-15.7664
 20
83.8713
 11
-15.9645
 21
83.9802
  0
LINE
  8
0
 10
-15.9645
 20
83.9802
 11
-16.1474
 21
84.1131
  0
LINE
  8
0
 10
-16.1474
 20
84.1131
 11
-16.3121
 21
84.2678
  0
LINE
  8
0
 10
-16.3121
 20
84.2678
 11
-16.4562
 21
84.442
  0
LINE
  8
0
 10
-16.4562
 20
84.442
 11
-16.5773
 21
84.6328
  0
LINE
  8
0
 10
-16.5773
 20
84.6328
 11
-16.6736
 21
84.8374
  0
LINE
  8
0
 10
-16.6736
 20
84.8374
 11
-16.7434
 21
85.0524
  0
LINE
  8
0
 10
-16.7434
 20
85.0524
 11
-16.7858
 21
85.2744
  0
LINE
  8
0
 10
-16.7858
 20
85.2744
 11
-16.8
 21
85.5
  0
LINE
  8
0
 10
-16.8
 20
85.5
 11
-16.7858
 21
85.7256
  0
LINE
  8
0
 10
-16.7858
 20
85.7256
 11
-16.7434
 21
85.9476
  0
LINE
  8
0
 10
-16.7434
 20
85.9476
 11
-16.6736
 21
86.1626
  0
LINE
  8
0
 10
-16.6736
 20
86.1626
 11
-16.5773
 21
86.3671
  0
LINE
  8
0
 10
-16.5773
 20
86.3671
 11
-16.4562
 21
86.558
  0
LINE
  8
0
 10
-16.4562
 20
86.558
 11
-16.3121
 21
86.7322
  0
LINE
  8
0
 10
-16.3121
 20
86.7322
 11
-16.1474
 21
86.8869
  0
LINE
  8
0
 10
-16.1474
 20
86.8869
 11
-15.9645
 21
87.0198
  0
LINE
  8
0
 10
-15.9645
 20
87.0198
 11
-15.7664
 21
87.1287
  0
LINE
  8
0
 10
-15.7664
 20
87.1287
 11
-15.5562
 21
87.2119
  0
LINE
  8
0
 10
-15.5562
 20
87.2119
 11
-15.3373
 21
87.2681
  0
LINE
  8
0
 10
-15.3373
 20
87.2681
 11
-15.113
 21
87.2964
  0
LINE
  8
0
 10
-15.113
 20
87.2964
 11
-14.887
 21
87.2964
  0
LINE
  8
0
 10
-14.887
 20
87.2964
 11
-14.6627
 21
87.2681
  0
LINE
  8
0
 10
-14.6627
 20
87.2681
 11
-14.4438
 21
87.2119
  0
LINE
  8
0
 10
-14.4438
 20
87.2119
 11
-14.2336
 21
87.1287
  0
LINE
  8
0
 10
-14.2336
 20
87.1287
 11
-14.0355
 21
87.0198
  0
LINE
  8
0
 10
-14.0355
 20
87.0198
 11
-13.8526
 21
86.8869
  0
LINE
  8
0
 10
-13.8526
 20
86.8869
 11
-13.6879
 21
86.7322
  0
LINE
  8
0
 10
-13.6879
 20
86.7322
 11
-13.5438
 21
86.558
  0
LINE
  8
0
 10
-13.5438
 20
86.558
 11
-13.4226
 21
86.3671
  0
LINE
  8
0
 10
-13.4226
 20
86.3671
 11
-13.3264
 21
86.1626
  0
LINE
  8
0
 10
-13.3264
 20
86.1626
 11
-13.2565
 21
85.9476
  0
LINE
  8
0
 10
-13.2565
 20
85.9476
 11
-13.2142
 21
85.7256
  0
LINE
  8
0
 10
-13.2142
 20
85.7256
 11
-13.2
 21
85.5
  0
LINE
  8
0
 10
-13.2
 20
85.5
 11
-13.2142
 21
85.2744
  0
LINE
  8
0
 10
-13.2142
 20
85.2744
 11
-13.2565
 21
85.0524
  0
LINE
  8
0
 10
-13.2565
 20
85.0524
 11
-13.3264
 21
84.8374
  0
LINE
  8
0
 10
-13.3264
 20
84.8374
 11
-13.4226
 21
84.6328
  0
LINE
  8
0
 10
-13.4226
 20
84.6328
 11
-13.5438
 21
84.442
  0
LINE
  8
0
 10
-13.5438
 20
84.442
 11
-13.6879
 21
84.2678
  0
LINE
  8
0
 10
-13.6879
 20
84.2678
 11
-13.8526
 21
84.1131
  0
LINE
  8
0
 10
-13.8526
 20
84.1131
 11
-14.0355
 21
83.9802
  0
LINE
  8
0
 10
-14.0355
 20
83.9802
 11
-14.2336
 21
83.8713
  0
LINE
  8
0
 10
-14.2336
 20
83.8713
 11
-14.4438
 21
83.7881
  0
LINE
  8
0
 10
-14.4438
 20
83.7881
 11
-14.6627
 21
83.7319
  0
LINE
  8
0
 10
-14.6627
 20
83.7319
 11
-14.887
 21
83.7036
  0
LINE
  8
0
 10
-14.887
 20
83.7036
 11
-15.113
 21
83.7036
  0
LINE
  8
0
 10
14.887
 20
83.7036
 11
14.6627
 21
83.7319
  0
LINE
  8
0
 10
14.6627
 20
83.7319
 11
14.4438
 21
83.7881
  0
LINE
  8
0
 10
14.4438
 20
83.7881
 11
14.2336
 21
83.8713
  0
LINE
  8
0
 10
14.2336
 20
83.8713
 11
14.0355
 21
83.9802
  0
LINE
  8
0
 10
14.0355
 20
83.9802
 11
13.8526
 21
84.1131
  0
LINE
  8
0
 10
13.8526
 20
84.1131
 11
13.6879
 21
84.2678
  0
LINE
  8
0
 10
13.6879
 20
84.2678
 11
13.5438
 21
84.442
  0
LINE
  8
0
 10
13.5438
 20
84.442
 11
13.4226
 21
84.6328
  0
LINE
  8
0
 10
13.4226
 20
84.6328
 11
13.3264
 21
84.8374
  0
LINE
  8
0
 10
13.3264
 20
84.8374
 11
13.2565
 21
85.0524
  0
LINE
  8
0
 10
13.2565
 20
85.0524
 11
13.2142
 21
85.2744
  0
LINE
  8
0
 10
13.2142
 20
85.2744
 11
13.2
 21
85.5
  0
LINE
  8
0
 10
13.2
 20
85.5
 11
13.2142
 21
85.7256
  0
LINE
  8
0
 10
13.2142
 20
85.7256
 11
13.2565
 21
85.9476
  0
LINE
  8
0
 10
13.2565
 20
85.9476
 11
13.3264
 21
86.1626
  0
LINE
  8
0
 10
13.3264
 20
86.1626
 11
13.4226
 21
86.3671
  0
LINE
  8
0
 10
13.4226
 20
86.3671
 11
13.5438
 21
86.558
  0
LINE
  8
0
 10
13.5438
 20
86.558
 11
13.6879
 21
86.7322
  0
LINE
  8
0
 10
13.6879
 20
86.7322
 11
13.8526
 21
86.8869
  0
LINE
  8
0
 10
13.8526
 20
86.8869
 11
14.0355
 21
87.0198
  0
LINE
  8
0
 10
14.0355
 20
87.0198
 11
14.2336
 21
87.1287
  0
LINE
  8
0
 10
14.2336
 20
87.1287
 11
14.4438
 21
87.2119
  0
LINE
  8
0
 10
14.4438
 20
87.2119
 11
14.6627
 21
87.2681
  0
LINE
  8
0
 10
14.6627
 20
87.2681
 11
14.887
 21
87.2964
  0
LINE
  8
0
 10
14.887
 20
87.2964
 11
15.113
 21
87.2964
  0
LINE
  8
0
 10
15.113
 20
87.2964
 11
15.3373
 21
87.2681
  0
LINE
  8
0
 10
15.3373
 20
87.2681
 11
15.5562
 21
87.2119
  0
LINE
  8
0
 10
15.5562
 20
87.2119
 11
15.7664
 21
87.1287
  0
LINE
  8
0
 10
15.7664
 20
87.1287
 11
15.9645
 21
87.0198
  0
LINE
  8
0
 10
15.9645
 20
87.0198
 11
16.1474
 21
86.8869
  0
LINE
  8
0
 10
16.1474
 20
86.8869
 11
16.3121
 21
86.7322
  0
LINE
  8
0
 10
16.3121
 20
86.7322
 11
16.4562
 21
86.558
  0
LINE
  8
0
 10
16.4562
 20
86.558
 11
16.5773
 21
86.3671
  0
LINE
  8
0
 10
16.5773
 20
86.3671
 11
16.6736
 21
86.1626
  0
LINE
  8
0
 10
16.6736
 20
86.1626
 11
16.7434
 21
85.9476
  0
LINE
  8
0
 10
16.7434
 20
85.9476
 11
16.7858
 21
85.7256
  0
LINE
  8
0
 10
16.7858
 20
85.7256
 11
16.8
 21
85.5
  0
LINE
  8
0
 10
16.8
 20
85.5
 11
16.7858
 21
85.2744
  0
LINE
  8
0
 10
16.7858
 20
85.2744
 11
16.7434
 21
85.0524
  0
LINE
  8
0
 10
16.7434
 20
85.0524
 11
16.6736
 21
84.8374
  0
LINE
  8
0
 10
16.6736
 20
84.8374
 11
16.5773
 21
84.6328
  0
LINE
  8
0
 10
16.5773
 20
84.6328
 11
16.4562
 21
84.442
  0
LINE
  8
0
 10
16.4562
 20
84.442
 11
16.3121
 21
84.2678
  0
LINE
  8
0
 10
16.3121
 20
84.2678
 11
16.1474
 21
84.1131
  0
LINE
  8
0
 10
16.1474
 20
84.1131
 11
15.9645
 21
83.9802
  0
LINE
  8
0
 10
15.9645
 20
83.9802
 11
15.7664
 21
83.8713
  0
LINE
  8
0
 10
15.7664
 20
83.8713
 11
15.5562
 21
83.7881
  0
LINE
  8
0
 10
15.5562
 20
83.7881
 11
15.3373
 21
83.7319
  0
LINE
  8
0
 10
15.3373
 20
83.7319
 11
15.113
 21
83.7036
  0
LINE
  8
0
 10
15.113
 20
83.7036
 11
14.887
 21
83.7036
  0
LINE
  8
0
 10
14.887
 20
68.7036
 11
14.6627
 21
68.7319
  0
LINE
  8
0
 10
14.6627
 20
68.7319
 11
14.4438
 21
68.7881
  0
LINE
  8
0
 10
14.4438
 20
68.7881
 11
14.2336
 21
68.8713
  0
LINE
  8
0
 10
14.2336
 20
68.8713
 11
14.0355
 21
68.9802
  0
LINE
  8
0
 10
14.0355
 20
68.9802
 11
13.8526
 21
69.1131
  0
LINE
  8
0
 10
13.8526
 20
69.1131
 11
13.6879
 21
69.2678
  0
LINE
  8
0
 10
13.6879
 20
69.2678
 11
13.5438
 21
69.442
  0
LINE
  8
0
 10
13.5438
 20
69.442
 11
13.4226
 21
69.6329
  0
LINE
  8
0
 10
13.4226
 20
69.6329
 11
13.3264
 21
69.8374
  0
LINE
  8
0
 10
13.3264
 20
69.8374
 11
13.2565
 21
70.0524
  0
LINE
  8
0
 10
13.2565
 20
70.0524
 11
13.2142
 21
70.2744
  0
LINE
  8
0
 10
13.2142
 20
70.2744
 11
13.2
 21
70.5
  0
LINE
  8
0
 10
13.2
 20
70.5
 11
13.2142
 21
70.7256
  0
LINE
  8
0
 10
13.2142
 20
70.7256
 11
13.2565
 21
70.9476
  0
LINE
  8
0
 10
13.2565
 20
70.9476
 11
13.3264
 21
71.1626
  0
LINE
  8
0
 10
13.3264
 20
71.1626
 11
13.4226
 21
71.3672
  0
LINE
  8
0
 10
13.4226
 20
71.3672
 11
13.5438
 21
71.558
  0
LINE
  8
0
 10
13.5438
 20
71.558
 11
13.6879
 21
71.7322
  0
LINE
  8
0
 10
13.6879
 20
71.7322
 11
13.8526
 21
71.8869
  0
LINE
  8
0
 10
13.8526
 20
71.8869
 11
14.0355
 21
72.0198
  0
LINE
  8
0
 10
14.0355
 20
72.0198
 11
14.2336
 21
72.1287
  0
LINE
  8
0
 10
14.2336
 20
72.1287
 11
14.4438
 21
72.2119
  0
LINE
  8
0
 10
14.4438
 20
72.2119
 11
14.6627
 21
72.2681
  0
LINE
  8
0
 10
14.6627
 20
72.2681
 11
14.887
 21
72.2964
  0
LINE
  8
0
 10
14.887
 20
72.2964
 11
15.113
 21
72.2964
  0
LINE
  8
0
 10
15.113
 20
72.2964
 11
15.3373
 21
72.2681
  0
LINE
  8
0
 10
15.3373
 20
72.2681
 11
15.5562
 21
72.2119
  0
LINE
  8
0
 10
15.5562
 20
72.2119
 11
15.7664
 21
72.1287
  0
LINE
  8
0
 10
15.7664
 20
72.1287
 11
15.9645
 21
72.0198
  0
LINE
  8
0
 10
15.9645
 20
72.0198
 11
16.1474
 21
71.8869
  0
LINE
  8
0
 10
16.1474
 20
71.8869
 11
16.3121
 21
71.7322
  0
LINE
  8
0
 10
16.3121
 20
71.7322
 11
16.4562
 21
71.558
  0
LINE
  8
0
 10
16.4562
 20
71.558
 11
16.5773
 21
71.3672
  0
LINE
  8
0
 10
16.5773
 20
71.3672
 11
16.6736
 21
71.1626
  0
LINE
  8
0
 10
16.6736
 20
71.1626
 11
16.7434
 21
70.9476
  0
LINE
  8
0
 10
16.7434
 20
70.9476
 11
16.7858
 21
70.7256
  0
LINE
  8
0
 10
16.7858
 20
70.7256
 11
16.8
 21
70.5
  0
LINE
  8
0
 10
16.8
 20
70.5
 11
16.7858
 21
70.2744
  0
LINE
  8
0
 10
16.7858
 20
70.2744
 11
16.7434
 21
70.0524
  0
LINE
  8
0
 10
16.7434
 20
70.0524
 11
16.6736
 21
69.8374
  0
LINE
  8
0
 10
16.6736
 20
69.8374
 11
16.5773
 21
69.6329
  0
LINE
  8
0
 10
16.5773
 20
69.6329
 11
16.4562
 21
69.442
  0
LINE
  8
0
 10
16.4562
 20
69.442
 11
16.3121
 21
69.2678
  0
LINE
  8
0
 10
16.3121
 20
69.2678
 11
16.1474
 21
69.1131
  0
LINE
  8
0
 10
16.1474
 20
69.1131
 11
15.9645
 21
68.9802
  0
LINE
  8
0
 10
15.9645
 20
68.9802
 11
15.7664
 21
68.8713
  0
LINE
  8
0
 10
15.7664
 20
68.8713
 11
15.5562
 21
68.7881
  0
LINE
  8
0
 10
15.5562
 20
68.7881
 11
15.3373
 21
68.7319
  0
LINE
  8
0
 10
15.3373
 20
68.7319
 11
15.113
 21
68.7036
  0
LINE
  8
0
 10
15.113
 20
68.7036
 11
14.887
 21
68.7036
  0
LINE
  8
0
 10
-15.113
 20
68.7036
 11
-15.3373
 21
68.7319
  0
LINE
  8
0
 10
-15.3373
 20
68.7319
 11
-15.5562
 21
68.7881
  0
LINE
  8
0
 10
-15.5562
 20
68.7881
 11
-15.7664
 21
68.8713
  0
LINE
  8
0
 10
-15.7664
 20
68.8713
 11
-15.9645
 21
68.9802
  0
LINE
  8
0
 10
-15.9645
 20
68.9802
 11
-16.1474
 21
69.1131
  0
LINE
  8
0
 10
-16.1474
 20
69.1131
 11
-16.3121
 21
69.2678
  0
LINE
  8
0
 10
-16.3121
 20
69.2678
 11
-16.4562
 21
69.442
  0
LINE
  8
0
 10
-16.4562
 20
69.442
 11
-16.5773
 21
69.6329
  0
LINE
  8
0
 10
-16.5773
 20
69.6329
 11
-16.6736
 21
69.8374
  0
LINE
  8
0
 10
-16.6736
 20
69.8374
 11
-16.7434
 21
70.0524
  0
LINE
  8
0
 10
-16.7434
 20
70.0524
 11
-16.7858
 21
70.2744
  0
LINE
  8
0
 10
-16.7858
 20
70.2744
 11
-16.8
 21
70.5
  0
LINE
  8
0
 10
-16.8
 20
70.5
 11
-16.7858
 21
70.7256
  0
LINE
  8
0
 10
-16.7858
 20
70.7256
 11
-16.7434
 21
70.9476
  0
LINE
  8
0
 10
-16.7434
 20
70.9476
 11
-16.6736
 21
71.1626
  0
LINE
  8
0
 10
-16.6736
 20
71.1626
 11
-16.5773
 21
71.3672
  0
LINE
  8
0
 10
-16.5773
 20
71.3672
 11
-16.4562
 21
71.558
  0
LINE
  8
0
 10
-16.4562
 20
71.558
 11
-16.3121
 21
71.7322
  0
LINE
  8
0
 10
-16.3121
 20
71.7322
 11
-16.1474
 21
71.8869
  0
LINE
  8
0
 10
-16.1474
 20
71.8869
 11
-15.9645
 21
72.0198
  0
LINE
  8
0
 10
-15.9645
 20
72.0198
 11
-15.7664
 21
72.1287
  0
LINE
  8
0
 10
-15.7664
 20
72.1287
 11
-15.5562
 21
72.2119
  0
LINE
  8
0
 10
-15.5562
 20
72.2119
 11
-15.3373
 21
72.2681
  0
LINE
  8
0
 10
-15.3373
 20
72.2681
 11
-15.113
 21
72.2964
  0
LINE
  8
0
 10
-15.113
 20
72.2964
 11
-14.887
 21
72.2964
  0
LINE
  8
0
 10
-14.887
 20
72.2964
 11
-14.6627
 21
72.2681
  0
LINE
  8
0
 10
-14.6627
 20
72.2681
 11
-14.4438
 21
72.2119
  0
LINE
  8
0
 10
-14.4438
 20
72.2119
 11
-14.2336
 21
72.1287
  0
LINE
  8
0
 10
-14.2336
 20
72.1287
 11
-14.0355
 21
72.0198
  0
LINE
  8
0
 10
-14.0355
 20
72.0198
 11
-13.8526
 21
71.8869
  0
LINE
  8
0
 10
-13.8526
 20
71.8869
 11
-13.6879
 21
71.7322
  0
LINE
  8
0
 10
-13.6879
 20
71.7322
 11
-13.5438
 21
71.558
  0
LINE
  8
0
 10
-13.5438
 20
71.558
 11
-13.4226
 21
71.3672
  0
LINE
  8
0
 10
-13.4226
 20
71.3672
 11
-13.3264
 21
71.1626
  0
LINE
  8
0
 10
-13.3264
 20
71.1626
 11
-13.2565
 21
70.9476
  0
LINE
  8
0
 10
-13.2565
 20
70.9476
 11
-13.2142
 21
70.7256
  0
LINE
  8
0
 10
-13.2142
 20
70.7256
 11
-13.2
 21
70.5
  0
LINE
  8
0
 10
-13.2
 20
70.5
 11
-13.2142
 21
70.2744
  0
LINE
  8
0
 10
-13.2142
 20
70.2744
 11
-13.2565
 21
70.0524
  0
LINE
  8
0
 10
-13.2565
 20
70.0524
 11
-13.3264
 21
69.8374
  0
LINE
  8
0
 10
-13.3264
 20
69.8374
 11
-13.4226
 21
69.6329
  0
LINE
  8
0
 10
-13.4226
 20
69.6329
 11
-13.5438
 21
69.442
  0
LINE
  8
0
 10
-13.5438
 20
69.442
 11
-13.6879
 21
69.2678
  0
LINE
  8
0
 10
-13.6879
 20
69.2678
 11
-13.8526
 21
69.1131
  0
LINE
  8
0
 10
-13.8526
 20
69.1131
 11
-14.0355
 21
68.9802
  0
LINE
  8
0
 10
-14.0355
 20
68.9802
 11
-14.2336
 21
68.8713
  0
LINE
  8
0
 10
-14.2336
 20
68.8713
 11
-14.4438
 21
68.7881
  0
LINE
  8
0
 10
-14.4438
 20
68.7881
 11
-14.6627
 21
68.7319
  0
LINE
  8
0
 10
-14.6627
 20
68.7319
 11
-14.887
 21
68.7036
  0
LINE
  8
0
 10
-14.887
 20
68.7036
 11
-15.113
 21
68.7036
  0
ENDSEC
  0
SECTION
  2
OBJECTS
  0
DICTIONARY
  0
ENDSEC
  0
EOF
