<?xml version="1.0" standalone="no"?>
<!DOCTYPE svg PUBLIC "-//W3C//DTD SVG 1.1//EN" "http://www.w3.org/Graphics/SVG/1.1/DTD/svg11.dtd">
<svg width="30mm" height="189mm" viewBox="-15 -342 30 189" xmlns="http://www.w3.org/2000/svg" version="1.1">
<title>OpenSCAD Model</title>
<path d="
M 10.9369,-252.089 L 11.5451,-252.245 L 12.1289,-252.476 L 12.6791,-252.778 L 13.1871,-253.147 L 13.6448,-253.577
 L 14.0451,-254.061 L 14.3815,-254.591 L 14.6489,-255.159 L 14.8429,-255.757 L 14.9606,-256.373 L 15,-257
 L 15,-337 L 14.9606,-337.627 L 14.8429,-338.243 L 14.6489,-338.841 L 14.3815,-339.409 L 14.0451,-339.939
 L 13.6448,-340.423 L 13.1871,-340.853 L 12.6791,-341.222 L 12.1289,-341.524 L 11.5451,-341.755 L 10.9369,-341.911
 L 10.3139,-341.99 L -10.3139,-341.99 L -10.9369,-341.911 L -11.5451,-341.755 L -12.1289,-341.524 L -12.6791,-341.222
 L -13.1871,-340.853 L -13.6448,-340.423 L -14.0451,-339.939 L -14.3815,-339.409 L -14.6489,-338.841 L -14.8429,-338.243
 L -14.9606,-337.627 L -15,-337 L -15,-257 L -14.9606,-256.373 L -14.8429,-255.757 L -14.6489,-255.159
 L -14.3815,-254.591 L -14.0451,-254.061 L -13.6448,-253.577 L -13.1871,-253.147 L -12.6791,-252.778 L -12.1289,-252.476
 L -11.5451,-252.245 L -10.9369,-252.089 L -10.3139,-252.01 L 10.3139,-252.01 z
M -9.69545,-254.393 L -10.0833,-254.442 L -10.4619,-254.539 L -10.8254,-254.683 L -11.168,-254.872 L -11.4842,-255.101
 L -11.7692,-255.369 L -12.0184,-255.67 L -12.2279,-256 L -12.3943,-256.354 L -12.5151,-256.726 L -12.5884,-257.11
 L -12.6129,-257.5 L -12.6129,-336.5 L -12.5884,-336.89 L -12.5151,-337.274 L -12.3943,-337.646 L -12.2279,-338
 L -12.0184,-338.33 L -11.7692,-338.631 L -11.4842,-338.899 L -11.168,-339.128 L -10.8254,-339.317 L -10.4619,-339.461
 L -10.0833,-339.558 L -9.69545,-339.607 L 9.69545,-339.607 L 10.0833,-339.558 L 10.4619,-339.461 L 10.8254,-339.317
 L 11.168,-339.128 L 11.4842,-338.899 L 11.7692,-338.631 L 12.0184,-338.33 L 12.2279,-338 L 12.3943,-337.646
 L 12.5151,-337.274 L 12.5884,-336.89 L 12.6129,-336.5 L 12.6129,-257.5 L 12.5884,-257.11 L 12.5151,-256.726
 L 12.3943,-256.354 L 12.2279,-256 L 12.0184,-255.67 L 11.7692,-255.369 L 11.4842,-255.101 L 11.168,-254.872
 L 10.8254,-254.683 L 10.4619,-254.539 L 10.0833,-254.442 L 9.69545,-254.393 z
M 10.9369,-153.089 L 11.5451,-153.245 L 12.1289,-153.476 L 12.6791,-153.778 L 13.1871,-154.147 L 13.6448,-154.577
 L 14.0451,-155.061 L 14.3815,-155.591 L 14.6489,-156.159 L 14.8429,-156.757 L 14.9606,-157.373 L 15,-158
 L 15,-238 L 14.9606,-238.627 L 14.8429,-239.243 L 14.6489,-239.841 L 14.3815,-240.409 L 14.0451,-240.939
 L 13.6448,-241.423 L 13.1871,-241.853 L 12.6791,-242.222 L 12.1289,-242.524 L 11.5451,-242.755 L 10.9369,-242.911
 L 10.3139,-242.99 L -10.3139,-242.99 L -10.9369,-242.911 L -11.5451,-242.755 L -12.1289,-242.524 L -12.6791,-242.222
 L -13.1871,-241.853 L -13.6448,-241.423 L -14.0451,-240.939 L -14.3815,-240.409 L -14.6489,-239.841 L -14.8429,-239.243
 L -14.9606,-238.627 L -15,-238 L -15,-158 L -14.9606,-157.373 L -14.8429,-156.757 L -14.6489,-156.159
 L -14.3815,-155.591 L -14.0451,-155.061 L -13.6448,-154.577 L -13.1871,-154.147 L -12.6791,-153.778 L -12.1289,-153.476
 L -11.5451,-153.245 L -10.9369,-153.089 L -10.3139,-153.01 L 10.3139,-153.01 z
M 7.36592,-233.369 L 7.09988,-233.403 L 6.84015,-233.469 L 6.59084,-233.568 L 6.35585,-233.697 L 6.1389,-233.855
 L 5.94344,-234.038 L 5.77251,-234.245 L 5.62881,-234.471 L 5.51465,-234.714 L 5.43178,-234.969 L 5.38153,-235.232
 L 5.3647,-235.5 L 5.38153,-235.768 L 5.43178,-236.031 L 5.51465,-236.286 L 5.62881,-236.529 L 5.77251,-236.755
 L 5.94344,-236.962 L 6.1389,-237.145 L 6.35585,-237.303 L 6.59084,-237.432 L 6.84015,-237.531 L 7.09988,-237.597
 L 7.36592,-237.631 L 7.63406,-237.631 L 7.9001,-237.597 L 8.15984,-237.531 L 8.40915,-237.432 L 8.64413,-237.303
 L 8.86108,-237.145 L 9.05655,-236.962 L 9.22748,-236.755 L 9.37117,-236.529 L 9.48534,-236.286 L 9.56821,-236.031
 L 9.61845,-235.768 L 9.63528,-235.5 L 9.61845,-235.232 L 9.56821,-234.969 L 9.48534,-234.714 L 9.37117,-234.471
 L 9.22748,-234.245 L 9.05655,-234.038 L 8.86108,-233.855 L 8.64413,-233.697 L 8.40915,-233.568 L 8.15984,-233.469
 L 7.9001,-233.403 L 7.63406,-233.369 z
M -7.63406,-233.369 L -7.9001,-233.403 L -8.15984,-233.469 L -8.40915,-233.568 L -8.64413,-233.697 L -8.86108,-233.855
 L -9.05655,-234.038 L -9.22748,-234.245 L -9.37117,-234.471 L -9.48534,-234.714 L -9.56821,-234.969 L -9.61845,-235.232
 L -9.63528,-235.5 L -9.61845,-235.768 L -9.56821,-236.031 L -9.48534,-236.286 L -9.37117,-236.529 L -9.22748,-236.755
 L -9.05655,-236.962 L -8.86108,-237.145 L -8.64413,-237.303 L -8.40915,-237.432 L -8.15984,-237.531 L -7.9001,-237.597
 L -7.63406,-237.631 L -7.36592,-237.631 L -7.09988,-237.597 L -6.84015,-237.531 L -6.59084,-237.432 L -6.35585,-237.303
 L -6.1389,-237.145 L -5.94344,-236.962 L -5.77251,-236.755 L -5.62881,-236.529 L -5.51465,-236.286 L -5.43178,-236.031
 L -5.38153,-235.768 L -5.3647,-235.5 L -5.38153,-235.232 L -5.43178,-234.969 L -5.51465,-234.714 L -5.62881,-234.471
 L -5.77251,-234.245 L -5.94344,-234.038 L -6.1389,-233.855 L -6.35585,-233.697 L -6.59084,-233.568 L -6.84015,-233.469
 L -7.09988,-233.403 L -7.36592,-233.369 z
M 7.36592,-158.369 L 7.09988,-158.403 L 6.84015,-158.469 L 6.59084,-158.568 L 6.35585,-158.697 L 6.1389,-158.855
 L 5.94344,-159.038 L 5.77251,-159.245 L 5.62881,-159.471 L 5.51465,-159.714 L 5.43178,-159.969 L 5.38153,-160.232
 L 5.3647,-160.5 L 5.38153,-160.768 L 5.43178,-161.031 L 5.51465,-161.286 L 5.62881,-161.529 L 5.77251,-161.755
 L 5.94344,-161.962 L 6.1389,-162.145 L 6.35585,-162.303 L 6.59084,-162.432 L 6.84015,-162.531 L 7.09988,-162.597
 L 7.36592,-162.631 L 7.63406,-162.631 L 7.9001,-162.597 L 8.15984,-162.531 L 8.40915,-162.432 L 8.64413,-162.303
 L 8.86108,-162.145 L 9.05655,-161.962 L 9.22748,-161.755 L 9.37117,-161.529 L 9.48534,-161.286 L 9.56821,-161.031
 L 9.61845,-160.768 L 9.63528,-160.5 L 9.61845,-160.232 L 9.56821,-159.969 L 9.48534,-159.714 L 9.37117,-159.471
 L 9.22748,-159.245 L 9.05655,-159.038 L 8.86108,-158.855 L 8.64413,-158.697 L 8.40915,-158.568 L 8.15984,-158.469
 L 7.9001,-158.403 L 7.63406,-158.369 z
M -7.63406,-158.369 L -7.9001,-158.403 L -8.15984,-158.469 L -8.40915,-158.568 L -8.64413,-158.697 L -8.86108,-158.855
 L -9.05655,-159.038 L -9.22748,-159.245 L -9.37117,-159.471 L -9.48534,-159.714 L -9.56821,-159.969 L -9.61845,-160.232
 L -9.63528,-160.5 L -9.61845,-160.768 L -9.56821,-161.031 L -9.48534,-161.286 L -9.37117,-161.529 L -9.22748,-161.755
 L -9.05655,-161.962 L -8.86108,-162.145 L -8.64413,-162.303 L -8.40915,-162.432 L -8.15984,-162.531 L -7.9001,-162.597
 L -7.63406,-162.631 L -7.36592,-162.631 L -7.09988,-162.597 L -6.84015,-162.531 L -6.59084,-162.432 L -6.35585,-162.303
 L -6.1389,-162.145 L -5.94344,-161.962 L -5.77251,-161.755 L -5.62881,-161.529 L -5.51465,-161.286 L -5.43178,-161.031
 L -5.38153,-160.768 L -5.3647,-160.5 L -5.38153,-160.232 L -5.43178,-159.969 L -5.51465,-159.714 L -5.62881,-159.471
 L -5.77251,-159.245 L -5.94344,-159.038 L -6.1389,-158.855 L -6.35585,-158.697 L -6.59084,-158.568 L -6.84015,-158.469
 L -7.09988,-158.403 L -7.36592,-158.369 z
" stroke="black" fill="lightgray" stroke-width="0.5"/>
</svg>
