  0
SECTION
  2
BLOCKS
  0
ENDSEC
  0
SECTION
  2
ENTITIES
  0
LINE
  8
0
 10
10.9369
 20
252.089
 11
11.5451
 21
252.245
  0
LINE
  8
0
 10
11.5451
 20
252.245
 11
12.1289
 21
252.476
  0
LINE
  8
0
 10
12.1289
 20
252.476
 11
12.6791
 21
252.778
  0
LINE
  8
0
 10
12.6791
 20
252.778
 11
13.1871
 21
253.147
  0
LINE
  8
0
 10
13.1871
 20
253.147
 11
13.6448
 21
253.577
  0
LINE
  8
0
 10
13.6448
 20
253.577
 11
14.0451
 21
254.061
  0
LINE
  8
0
 10
14.0451
 20
254.061
 11
14.3815
 21
254.591
  0
LINE
  8
0
 10
14.3815
 20
254.591
 11
14.6489
 21
255.159
  0
LINE
  8
0
 10
14.6489
 20
255.159
 11
14.8429
 21
255.757
  0
LINE
  8
0
 10
14.8429
 20
255.757
 11
14.9606
 21
256.373
  0
LINE
  8
0
 10
14.9606
 20
256.373
 11
15
 21
257
  0
LINE
  8
0
 10
15
 20
257
 11
15
 21
337
  0
LINE
  8
0
 10
15
 20
337
 11
14.9606
 21
337.627
  0
LINE
  8
0
 10
14.9606
 20
337.627
 11
14.8429
 21
338.243
  0
LINE
  8
0
 10
14.8429
 20
338.243
 11
14.6489
 21
338.841
  0
LINE
  8
0
 10
14.6489
 20
338.841
 11
14.3815
 21
339.409
  0
LINE
  8
0
 10
14.3815
 20
339.409
 11
14.0451
 21
339.939
  0
LINE
  8
0
 10
14.0451
 20
339.939
 11
13.6448
 21
340.423
  0
LINE
  8
0
 10
13.6448
 20
340.423
 11
13.1871
 21
340.853
  0
LINE
  8
0
 10
13.1871
 20
340.853
 11
12.6791
 21
341.222
  0
LINE
  8
0
 10
12.6791
 20
341.222
 11
12.1289
 21
341.524
  0
LINE
  8
0
 10
12.1289
 20
341.524
 11
11.5451
 21
341.755
  0
LINE
  8
0
 10
11.5451
 20
341.755
 11
10.9369
 21
341.911
  0
LINE
  8
0
 10
10.9369
 20
341.911
 11
10.3139
 21
341.99
  0
LINE
  8
0
 10
10.3139
 20
341.99
 11
-10.3139
 21
341.99
  0
LINE
  8
0
 10
-10.3139
 20
341.99
 11
-10.9369
 21
341.911
  0
LINE
  8
0
 10
-10.9369
 20
341.911
 11
-11.5451
 21
341.755
  0
LINE
  8
0
 10
-11.5451
 20
341.755
 11
-12.1289
 21
341.524
  0
LINE
  8
0
 10
-12.1289
 20
341.524
 11
-12.6791
 21
341.222
  0
LINE
  8
0
 10
-12.6791
 20
341.222
 11
-13.1871
 21
340.853
  0
LINE
  8
0
 10
-13.1871
 20
340.853
 11
-13.6448
 21
340.423
  0
LINE
  8
0
 10
-13.6448
 20
340.423
 11
-14.0451
 21
339.939
  0
LINE
  8
0
 10
-14.0451
 20
339.939
 11
-14.3815
 21
339.409
  0
LINE
  8
0
 10
-14.3815
 20
339.409
 11
-14.6489
 21
338.841
  0
LINE
  8
0
 10
-14.6489
 20
338.841
 11
-14.8429
 21
338.243
  0
LINE
  8
0
 10
-14.8429
 20
338.243
 11
-14.9606
 21
337.627
  0
LINE
  8
0
 10
-14.9606
 20
337.627
 11
-15
 21
337
  0
LINE
  8
0
 10
-15
 20
337
 11
-15
 21
257
  0
LINE
  8
0
 10
-15
 20
257
 11
-14.9606
 21
256.373
  0
LINE
  8
0
 10
-14.9606
 20
256.373
 11
-14.8429
 21
255.757
  0
LINE
  8
0
 10
-14.8429
 20
255.757
 11
-14.6489
 21
255.159
  0
LINE
  8
0
 10
-14.6489
 20
255.159
 11
-14.3815
 21
254.591
  0
LINE
  8
0
 10
-14.3815
 20
254.591
 11
-14.0451
 21
254.061
  0
LINE
  8
0
 10
-14.0451
 20
254.061
 11
-13.6448
 21
253.577
  0
LINE
  8
0
 10
-13.6448
 20
253.577
 11
-13.1871
 21
253.147
  0
LINE
  8
0
 10
-13.1871
 20
253.147
 11
-12.6791
 21
252.778
  0
LINE
  8
0
 10
-12.6791
 20
252.778
 11
-12.1289
 21
252.476
  0
LINE
  8
0
 10
-12.1289
 20
252.476
 11
-11.5451
 21
252.245
  0
LINE
  8
0
 10
-11.5451
 20
252.245
 11
-10.9369
 21
252.089
  0
LINE
  8
0
 10
-10.9369
 20
252.089
 11
-10.3139
 21
252.01
  0
LINE
  8
0
 10
-10.3139
 20
252.01
 11
10.3139
 21
252.01
  0
LINE
  8
0
 10
10.3139
 20
252.01
 11
10.9369
 21
252.089
  0
LINE
  8
0
 10
-9.69545
 20
254.393
 11
-10.0833
 21
254.442
  0
LINE
  8
0
 10
-10.0833
 20
254.442
 11
-10.4619
 21
254.539
  0
LINE
  8
0
 10
-10.4619
 20
254.539
 11
-10.8254
 21
254.683
  0
LINE
  8
0
 10
-10.8254
 20
254.683
 11
-11.168
 21
254.872
  0
LINE
  8
0
 10
-11.168
 20
254.872
 11
-11.4842
 21
255.101
  0
LINE
  8
0
 10
-11.4842
 20
255.101
 11
-11.7692
 21
255.369
  0
LINE
  8
0
 10
-11.7692
 20
255.369
 11
-12.0184
 21
255.67
  0
LINE
  8
0
 10
-12.0184
 20
255.67
 11
-12.2279
 21
256
  0
LINE
  8
0
 10
-12.2279
 20
256
 11
-12.3943
 21
256.354
  0
LINE
  8
0
 10
-12.3943
 20
256.354
 11
-12.5151
 21
256.726
  0
LINE
  8
0
 10
-12.5151
 20
256.726
 11
-12.5884
 21
257.11
  0
LINE
  8
0
 10
-12.5884
 20
257.11
 11
-12.6129
 21
257.5
  0
LINE
  8
0
 10
-12.6129
 20
257.5
 11
-12.6129
 21
336.5
  0
LINE
  8
0
 10
-12.6129
 20
336.5
 11
-12.5884
 21
336.89
  0
LINE
  8
0
 10
-12.5884
 20
336.89
 11
-12.5151
 21
337.274
  0
LINE
  8
0
 10
-12.5151
 20
337.274
 11
-12.3943
 21
337.646
  0
LINE
  8
0
 10
-12.3943
 20
337.646
 11
-12.2279
 21
338
  0
LINE
  8
0
 10
-12.2279
 20
338
 11
-12.0184
 21
338.33
  0
LINE
  8
0
 10
-12.0184
 20
338.33
 11
-11.7692
 21
338.631
  0
LINE
  8
0
 10
-11.7692
 20
338.631
 11
-11.4842
 21
338.899
  0
LINE
  8
0
 10
-11.4842
 20
338.899
 11
-11.168
 21
339.128
  0
LINE
  8
0
 10
-11.168
 20
339.128
 11
-10.8254
 21
339.317
  0
LINE
  8
0
 10
-10.8254
 20
339.317
 11
-10.4619
 21
339.461
  0
LINE
  8
0
 10
-10.4619
 20
339.461
 11
-10.0833
 21
339.558
  0
LINE
  8
0
 10
-10.0833
 20
339.558
 11
-9.69545
 21
339.607
  0
LINE
  8
0
 10
-9.69545
 20
339.607
 11
9.69545
 21
339.607
  0
LINE
  8
0
 10
9.69545
 20
339.607
 11
10.0833
 21
339.558
  0
LINE
  8
0
 10
10.0833
 20
339.558
 11
10.4619
 21
339.461
  0
LINE
  8
0
 10
10.4619
 20
339.461
 11
10.8254
 21
339.317
  0
LINE
  8
0
 10
10.8254
 20
339.317
 11
11.168
 21
339.128
  0
LINE
  8
0
 10
11.168
 20
339.128
 11
11.4842
 21
338.899
  0
LINE
  8
0
 10
11.4842
 20
338.899
 11
11.7692
 21
338.631
  0
LINE
  8
0
 10
11.7692
 20
338.631
 11
12.0184
 21
338.33
  0
LINE
  8
0
 10
12.0184
 20
338.33
 11
12.2279
 21
338
  0
LINE
  8
0
 10
12.2279
 20
338
 11
12.3943
 21
337.646
  0
LINE
  8
0
 10
12.3943
 20
337.646
 11
12.5151
 21
337.274
  0
LINE
  8
0
 10
12.5151
 20
337.274
 11
12.5884
 21
336.89
  0
LINE
  8
0
 10
12.5884
 20
336.89
 11
12.6129
 21
336.5
  0
LINE
  8
0
 10
12.6129
 20
336.5
 11
12.6129
 21
257.5
  0
LINE
  8
0
 10
12.6129
 20
257.5
 11
12.5884
 21
257.11
  0
LINE
  8
0
 10
12.5884
 20
257.11
 11
12.5151
 21
256.726
  0
LINE
  8
0
 10
12.5151
 20
256.726
 11
12.3943
 21
256.354
  0
LINE
  8
0
 10
12.3943
 20
256.354
 11
12.2279
 21
256
  0
LINE
  8
0
 10
12.2279
 20
256
 11
12.0184
 21
255.67
  0
LINE
  8
0
 10
12.0184
 20
255.67
 11
11.7692
 21
255.369
  0
LINE
  8
0
 10
11.7692
 20
255.369
 11
11.4842
 21
255.101
  0
LINE
  8
0
 10
11.4842
 20
255.101
 11
11.168
 21
254.872
  0
LINE
  8
0
 10
11.168
 20
254.872
 11
10.8254
 21
254.683
  0
LINE
  8
0
 10
10.8254
 20
254.683
 11
10.4619
 21
254.539
  0
LINE
  8
0
 10
10.4619
 20
254.539
 11
10.0833
 21
254.442
  0
LINE
  8
0
 10
10.0833
 20
254.442
 11
9.69545
 21
254.393
  0
LINE
  8
0
 10
9.69545
 20
254.393
 11
-9.69545
 21
254.393
  0
LINE
  8
0
 10
10.9369
 20
153.089
 11
11.5451
 21
153.245
  0
LINE
  8
0
 10
11.5451
 20
153.245
 11
12.1289
 21
153.476
  0
LINE
  8
0
 10
12.1289
 20
153.476
 11
12.6791
 21
153.778
  0
LINE
  8
0
 10
12.6791
 20
153.778
 11
13.1871
 21
154.147
  0
LINE
  8
0
 10
13.1871
 20
154.147
 11
13.6448
 21
154.577
  0
LINE
  8
0
 10
13.6448
 20
154.577
 11
14.0451
 21
155.061
  0
LINE
  8
0
 10
14.0451
 20
155.061
 11
14.3815
 21
155.591
  0
LINE
  8
0
 10
14.3815
 20
155.591
 11
14.6489
 21
156.159
  0
LINE
  8
0
 10
14.6489
 20
156.159
 11
14.8429
 21
156.757
  0
LINE
  8
0
 10
14.8429
 20
156.757
 11
14.9606
 21
157.373
  0
LINE
  8
0
 10
14.9606
 20
157.373
 11
15
 21
158
  0
LINE
  8
0
 10
15
 20
158
 11
15
 21
238
  0
LINE
  8
0
 10
15
 20
238
 11
14.9606
 21
238.627
  0
LINE
  8
0
 10
14.9606
 20
238.627
 11
14.8429
 21
239.243
  0
LINE
  8
0
 10
14.8429
 20
239.243
 11
14.6489
 21
239.841
  0
LINE
  8
0
 10
14.6489
 20
239.841
 11
14.3815
 21
240.409
  0
LINE
  8
0
 10
14.3815
 20
240.409
 11
14.0451
 21
240.939
  0
LINE
  8
0
 10
14.0451
 20
240.939
 11
13.6448
 21
241.423
  0
LINE
  8
0
 10
13.6448
 20
241.423
 11
13.1871
 21
241.853
  0
LINE
  8
0
 10
13.1871
 20
241.853
 11
12.6791
 21
242.222
  0
LINE
  8
0
 10
12.6791
 20
242.222
 11
12.1289
 21
242.524
  0
LINE
  8
0
 10
12.1289
 20
242.524
 11
11.5451
 21
242.755
  0
LINE
  8
0
 10
11.5451
 20
242.755
 11
10.9369
 21
242.911
  0
LINE
  8
0
 10
10.9369
 20
242.911
 11
10.3139
 21
242.99
  0
LINE
  8
0
 10
10.3139
 20
242.99
 11
-10.3139
 21
242.99
  0
LINE
  8
0
 10
-10.3139
 20
242.99
 11
-10.9369
 21
242.911
  0
LINE
  8
0
 10
-10.9369
 20
242.911
 11
-11.5451
 21
242.755
  0
LINE
  8
0
 10
-11.5451
 20
242.755
 11
-12.1289
 21
242.524
  0
LINE
  8
0
 10
-12.1289
 20
242.524
 11
-12.6791
 21
242.222
  0
LINE
  8
0
 10
-12.6791
 20
242.222
 11
-13.1871
 21
241.853
  0
LINE
  8
0
 10
-13.1871
 20
241.853
 11
-13.6448
 21
241.423
  0
LINE
  8
0
 10
-13.6448
 20
241.423
 11
-14.0451
 21
240.939
  0
LINE
  8
0
 10
-14.0451
 20
240.939
 11
-14.3815
 21
240.409
  0
LINE
  8
0
 10
-14.3815
 20
240.409
 11
-14.6489
 21
239.841
  0
LINE
  8
0
 10
-14.6489
 20
239.841
 11
-14.8429
 21
239.243
  0
LINE
  8
0
 10
-14.8429
 20
239.243
 11
-14.9606
 21
238.627
  0
LINE
  8
0
 10
-14.9606
 20
238.627
 11
-15
 21
238
  0
LINE
  8
0
 10
-15
 20
238
 11
-15
 21
158
  0
LINE
  8
0
 10
-15
 20
158
 11
-14.9606
 21
157.373
  0
LINE
  8
0
 10
-14.9606
 20
157.373
 11
-14.8429
 21
156.757
  0
LINE
  8
0
 10
-14.8429
 20
156.757
 11
-14.6489
 21
156.159
  0
LINE
  8
0
 10
-14.6489
 20
156.159
 11
-14.3815
 21
155.591
  0
LINE
  8
0
 10
-14.3815
 20
155.591
 11
-14.0451
 21
155.061
  0
LINE
  8
0
 10
-14.0451
 20
155.061
 11
-13.6448
 21
154.577
  0
LINE
  8
0
 10
-13.6448
 20
154.577
 11
-13.1871
 21
154.147
  0
LINE
  8
0
 10
-13.1871
 20
154.147
 11
-12.6791
 21
153.778
  0
LINE
  8
0
 10
-12.6791
 20
153.778
 11
-12.1289
 21
153.476
  0
LINE
  8
0
 10
-12.1289
 20
153.476
 11
-11.5451
 21
153.245
  0
LINE
  8
0
 10
-11.5451
 20
153.245
 11
-10.9369
 21
153.089
  0
LINE
  8
0
 10
-10.9369
 20
153.089
 11
-10.3139
 21
153.01
  0
LINE
  8
0
 10
-10.3139
 20
153.01
 11
10.3139
 21
153.01
  0
LINE
  8
0
 10
10.3139
 20
153.01
 11
10.9369
 21
153.089
  0
LINE
  8
0
 10
7.36592
 20
233.369
 11
7.09988
 21
233.403
  0
LINE
  8
0
 10
7.09988
 20
233.403
 11
6.84015
 21
233.469
  0
LINE
  8
0
 10
6.84015
 20
233.469
 11
6.59084
 21
233.568
  0
LINE
  8
0
 10
6.59084
 20
233.568
 11
6.35585
 21
233.697
  0
LINE
  8
0
 10
6.35585
 20
233.697
 11
6.1389
 21
233.855
  0
LINE
  8
0
 10
6.1389
 20
233.855
 11
5.94344
 21
234.038
  0
LINE
  8
0
 10
5.94344
 20
234.038
 11
5.77251
 21
234.245
  0
LINE
  8
0
 10
5.77251
 20
234.245
 11
5.62881
 21
234.471
  0
LINE
  8
0
 10
5.62881
 20
234.471
 11
5.51465
 21
234.714
  0
LINE
  8
0
 10
5.51465
 20
234.714
 11
5.43178
 21
234.969
  0
LINE
  8
0
 10
5.43178
 20
234.969
 11
5.38153
 21
235.232
  0
LINE
  8
0
 10
5.38153
 20
235.232
 11
5.3647
 21
235.5
  0
LINE
  8
0
 10
5.3647
 20
235.5
 11
5.38153
 21
235.768
  0
LINE
  8
0
 10
5.38153
 20
235.768
 11
5.43178
 21
236.031
  0
LINE
  8
0
 10
5.43178
 20
236.031
 11
5.51465
 21
236.286
  0
LINE
  8
0
 10
5.51465
 20
236.286
 11
5.62881
 21
236.529
  0
LINE
  8
0
 10
5.62881
 20
236.529
 11
5.77251
 21
236.755
  0
LINE
  8
0
 10
5.77251
 20
236.755
 11
5.94344
 21
236.962
  0
LINE
  8
0
 10
5.94344
 20
236.962
 11
6.1389
 21
237.145
  0
LINE
  8
0
 10
6.1389
 20
237.145
 11
6.35585
 21
237.303
  0
LINE
  8
0
 10
6.35585
 20
237.303
 11
6.59084
 21
237.432
  0
LINE
  8
0
 10
6.59084
 20
237.432
 11
6.84015
 21
237.531
  0
LINE
  8
0
 10
6.84015
 20
237.531
 11
7.09988
 21
237.597
  0
LINE
  8
0
 10
7.09988
 20
237.597
 11
7.36592
 21
237.631
  0
LINE
  8
0
 10
7.36592
 20
237.631
 11
7.63406
 21
237.631
  0
LINE
  8
0
 10
7.63406
 20
237.631
 11
7.9001
 21
237.597
  0
LINE
  8
0
 10
7.9001
 20
237.597
 11
8.15984
 21
237.531
  0
LINE
  8
0
 10
8.15984
 20
237.531
 11
8.40915
 21
237.432
  0
LINE
  8
0
 10
8.40915
 20
237.432
 11
8.64413
 21
237.303
  0
LINE
  8
0
 10
8.64413
 20
237.303
 11
8.86108
 21
237.145
  0
LINE
  8
0
 10
8.86108
 20
237.145
 11
9.05655
 21
236.962
  0
LINE
  8
0
 10
9.05655
 20
236.962
 11
9.22748
 21
236.755
  0
LINE
  8
0
 10
9.22748
 20
236.755
 11
9.37117
 21
236.529
  0
LINE
  8
0
 10
9.37117
 20
236.529
 11
9.48534
 21
236.286
  0
LINE
  8
0
 10
9.48534
 20
236.286
 11
9.56821
 21
236.031
  0
LINE
  8
0
 10
9.56821
 20
236.031
 11
9.61845
 21
235.768
  0
LINE
  8
0
 10
9.61845
 20
235.768
 11
9.63528
 21
235.5
  0
LINE
  8
0
 10
9.63528
 20
235.5
 11
9.61845
 21
235.232
  0
LINE
  8
0
 10
9.61845
 20
235.232
 11
9.56821
 21
234.969
  0
LINE
  8
0
 10
9.56821
 20
234.969
 11
9.48534
 21
234.714
  0
LINE
  8
0
 10
9.48534
 20
234.714
 11
9.37117
 21
234.471
  0
LINE
  8
0
 10
9.37117
 20
234.471
 11
9.22748
 21
234.245
  0
LINE
  8
0
 10
9.22748
 20
234.245
 11
9.05655
 21
234.038
  0
LINE
  8
0
 10
9.05655
 20
234.038
 11
8.86108
 21
233.855
  0
LINE
  8
0
 10
8.86108
 20
233.855
 11
8.64413
 21
233.697
  0
LINE
  8
0
 10
8.64413
 20
233.697
 11
8.40915
 21
233.568
  0
LINE
  8
0
 10
8.40915
 20
233.568
 11
8.15984
 21
233.469
  0
LINE
  8
0
 10
8.15984
 20
233.469
 11
7.9001
 21
233.403
  0
LINE
  8
0
 10
7.9001
 20
233.403
 11
7.63406
 21
233.369
  0
LINE
  8
0
 10
7.63406
 20
233.369
 11
7.36592
 21
233.369
  0
LINE
  8
0
 10
-7.63406
 20
233.369
 11
-7.9001
 21
233.403
  0
LINE
  8
0
 10
-7.9001
 20
233.403
 11
-8.15984
 21
233.469
  0
LINE
  8
0
 10
-8.15984
 20
233.469
 11
-8.40915
 21
233.568
  0
LINE
  8
0
 10
-8.40915
 20
233.568
 11
-8.64413
 21
233.697
  0
LINE
  8
0
 10
-8.64413
 20
233.697
 11
-8.86108
 21
233.855
  0
LINE
  8
0
 10
-8.86108
 20
233.855
 11
-9.05655
 21
234.038
  0
LINE
  8
0
 10
-9.05655
 20
234.038
 11
-9.22748
 21
234.245
  0
LINE
  8
0
 10
-9.22748
 20
234.245
 11
-9.37117
 21
234.471
  0
LINE
  8
0
 10
-9.37117
 20
234.471
 11
-9.48534
 21
234.714
  0
LINE
  8
0
 10
-9.48534
 20
234.714
 11
-9.56821
 21
234.969
  0
LINE
  8
0
 10
-9.56821
 20
234.969
 11
-9.61845
 21
235.232
  0
LINE
  8
0
 10
-9.61845
 20
235.232
 11
-9.63528
 21
235.5
  0
LINE
  8
0
 10
-9.63528
 20
235.5
 11
-9.61845
 21
235.768
  0
LINE
  8
0
 10
-9.61845
 20
235.768
 11
-9.56821
 21
236.031
  0
LINE
  8
0
 10
-9.56821
 20
236.031
 11
-9.48534
 21
236.286
  0
LINE
  8
0
 10
-9.48534
 20
236.286
 11
-9.37117
 21
236.529
  0
LINE
  8
0
 10
-9.37117
 20
236.529
 11
-9.22748
 21
236.755
  0
LINE
  8
0
 10
-9.22748
 20
236.755
 11
-9.05655
 21
236.962
  0
LINE
  8
0
 10
-9.05655
 20
236.962
 11
-8.86108
 21
237.145
  0
LINE
  8
0
 10
-8.86108
 20
237.145
 11
-8.64413
 21
237.303
  0
LINE
  8
0
 10
-8.64413
 20
237.303
 11
-8.40915
 21
237.432
  0
LINE
  8
0
 10
-8.40915
 20
237.432
 11
-8.15984
 21
237.531
  0
LINE
  8
0
 10
-8.15984
 20
237.531
 11
-7.9001
 21
237.597
  0
LINE
  8
0
 10
-7.9001
 20
237.597
 11
-7.63406
 21
237.631
  0
LINE
  8
0
 10
-7.63406
 20
237.631
 11
-7.36592
 21
237.631
  0
LINE
  8
0
 10
-7.36592
 20
237.631
 11
-7.09988
 21
237.597
  0
LINE
  8
0
 10
-7.09988
 20
237.597
 11
-6.84015
 21
237.531
  0
LINE
  8
0
 10
-6.84015
 20
237.531
 11
-6.59084
 21
237.432
  0
LINE
  8
0
 10
-6.59084
 20
237.432
 11
-6.35585
 21
237.303
  0
LINE
  8
0
 10
-6.35585
 20
237.303
 11
-6.1389
 21
237.145
  0
LINE
  8
0
 10
-6.1389
 20
237.145
 11
-5.94344
 21
236.962
  0
LINE
  8
0
 10
-5.94344
 20
236.962
 11
-5.77251
 21
236.755
  0
LINE
  8
0
 10
-5.77251
 20
236.755
 11
-5.62881
 21
236.529
  0
LINE
  8
0
 10
-5.62881
 20
236.529
 11
-5.51465
 21
236.286
  0
LINE
  8
0
 10
-5.51465
 20
236.286
 11
-5.43178
 21
236.031
  0
LINE
  8
0
 10
-5.43178
 20
236.031
 11
-5.38153
 21
235.768
  0
LINE
  8
0
 10
-5.38153
 20
235.768
 11
-5.3647
 21
235.5
  0
LINE
  8
0
 10
-5.3647
 20
235.5
 11
-5.38153
 21
235.232
  0
LINE
  8
0
 10
-5.38153
 20
235.232
 11
-5.43178
 21
234.969
  0
LINE
  8
0
 10
-5.43178
 20
234.969
 11
-5.51465
 21
234.714
  0
LINE
  8
0
 10
-5.51465
 20
234.714
 11
-5.62881
 21
234.471
  0
LINE
  8
0
 10
-5.62881
 20
234.471
 11
-5.77251
 21
234.245
  0
LINE
  8
0
 10
-5.77251
 20
234.245
 11
-5.94344
 21
234.038
  0
LINE
  8
0
 10
-5.94344
 20
234.038
 11
-6.1389
 21
233.855
  0
LINE
  8
0
 10
-6.1389
 20
233.855
 11
-6.35585
 21
233.697
  0
LINE
  8
0
 10
-6.35585
 20
233.697
 11
-6.59084
 21
233.568
  0
LINE
  8
0
 10
-6.59084
 20
233.568
 11
-6.84015
 21
233.469
  0
LINE
  8
0
 10
-6.84015
 20
233.469
 11
-7.09988
 21
233.403
  0
LINE
  8
0
 10
-7.09988
 20
233.403
 11
-7.36592
 21
233.369
  0
LINE
  8
0
 10
-7.36592
 20
233.369
 11
-7.63406
 21
233.369
  0
LINE
  8
0
 10
7.36592
 20
158.369
 11
7.09988
 21
158.403
  0
LINE
  8
0
 10
7.09988
 20
158.403
 11
6.84015
 21
158.469
  0
LINE
  8
0
 10
6.84015
 20
158.469
 11
6.59084
 21
158.568
  0
LINE
  8
0
 10
6.59084
 20
158.568
 11
6.35585
 21
158.697
  0
LINE
  8
0
 10
6.35585
 20
158.697
 11
6.1389
 21
158.855
  0
LINE
  8
0
 10
6.1389
 20
158.855
 11
5.94344
 21
159.038
  0
LINE
  8
0
 10
5.94344
 20
159.038
 11
5.77251
 21
159.245
  0
LINE
  8
0
 10
5.77251
 20
159.245
 11
5.62881
 21
159.471
  0
LINE
  8
0
 10
5.62881
 20
159.471
 11
5.51465
 21
159.714
  0
LINE
  8
0
 10
5.51465
 20
159.714
 11
5.43178
 21
159.969
  0
LINE
  8
0
 10
5.43178
 20
159.969
 11
5.38153
 21
160.232
  0
LINE
  8
0
 10
5.38153
 20
160.232
 11
5.3647
 21
160.5
  0
LINE
  8
0
 10
5.3647
 20
160.5
 11
5.38153
 21
160.768
  0
LINE
  8
0
 10
5.38153
 20
160.768
 11
5.43178
 21
161.031
  0
LINE
  8
0
 10
5.43178
 20
161.031
 11
5.51465
 21
161.286
  0
LINE
  8
0
 10
5.51465
 20
161.286
 11
5.62881
 21
161.529
  0
LINE
  8
0
 10
5.62881
 20
161.529
 11
5.77251
 21
161.755
  0
LINE
  8
0
 10
5.77251
 20
161.755
 11
5.94344
 21
161.962
  0
LINE
  8
0
 10
5.94344
 20
161.962
 11
6.1389
 21
162.145
  0
LINE
  8
0
 10
6.1389
 20
162.145
 11
6.35585
 21
162.303
  0
LINE
  8
0
 10
6.35585
 20
162.303
 11
6.59084
 21
162.432
  0
LINE
  8
0
 10
6.59084
 20
162.432
 11
6.84015
 21
162.531
  0
LINE
  8
0
 10
6.84015
 20
162.531
 11
7.09988
 21
162.597
  0
LINE
  8
0
 10
7.09988
 20
162.597
 11
7.36592
 21
162.631
  0
LINE
  8
0
 10
7.36592
 20
162.631
 11
7.63406
 21
162.631
  0
LINE
  8
0
 10
7.63406
 20
162.631
 11
7.9001
 21
162.597
  0
LINE
  8
0
 10
7.9001
 20
162.597
 11
8.15984
 21
162.531
  0
LINE
  8
0
 10
8.15984
 20
162.531
 11
8.40915
 21
162.432
  0
LINE
  8
0
 10
8.40915
 20
162.432
 11
8.64413
 21
162.303
  0
LINE
  8
0
 10
8.64413
 20
162.303
 11
8.86108
 21
162.145
  0
LINE
  8
0
 10
8.86108
 20
162.145
 11
9.05655
 21
161.962
  0
LINE
  8
0
 10
9.05655
 20
161.962
 11
9.22748
 21
161.755
  0
LINE
  8
0
 10
9.22748
 20
161.755
 11
9.37117
 21
161.529
  0
LINE
  8
0
 10
9.37117
 20
161.529
 11
9.48534
 21
161.286
  0
LINE
  8
0
 10
9.48534
 20
161.286
 11
9.56821
 21
161.031
  0
LINE
  8
0
 10
9.56821
 20
161.031
 11
9.61845
 21
160.768
  0
LINE
  8
0
 10
9.61845
 20
160.768
 11
9.63528
 21
160.5
  0
LINE
  8
0
 10
9.63528
 20
160.5
 11
9.61845
 21
160.232
  0
LINE
  8
0
 10
9.61845
 20
160.232
 11
9.56821
 21
159.969
  0
LINE
  8
0
 10
9.56821
 20
159.969
 11
9.48534
 21
159.714
  0
LINE
  8
0
 10
9.48534
 20
159.714
 11
9.37117
 21
159.471
  0
LINE
  8
0
 10
9.37117
 20
159.471
 11
9.22748
 21
159.245
  0
LINE
  8
0
 10
9.22748
 20
159.245
 11
9.05655
 21
159.038
  0
LINE
  8
0
 10
9.05655
 20
159.038
 11
8.86108
 21
158.855
  0
LINE
  8
0
 10
8.86108
 20
158.855
 11
8.64413
 21
158.697
  0
LINE
  8
0
 10
8.64413
 20
158.697
 11
8.40915
 21
158.568
  0
LINE
  8
0
 10
8.40915
 20
158.568
 11
8.15984
 21
158.469
  0
LINE
  8
0
 10
8.15984
 20
158.469
 11
7.9001
 21
158.403
  0
LINE
  8
0
 10
7.9001
 20
158.403
 11
7.63406
 21
158.369
  0
LINE
  8
0
 10
7.63406
 20
158.369
 11
7.36592
 21
158.369
  0
LINE
  8
0
 10
-7.63406
 20
158.369
 11
-7.9001
 21
158.403
  0
LINE
  8
0
 10
-7.9001
 20
158.403
 11
-8.15984
 21
158.469
  0
LINE
  8
0
 10
-8.15984
 20
158.469
 11
-8.40915
 21
158.568
  0
LINE
  8
0
 10
-8.40915
 20
158.568
 11
-8.64413
 21
158.697
  0
LINE
  8
0
 10
-8.64413
 20
158.697
 11
-8.86108
 21
158.855
  0
LINE
  8
0
 10
-8.86108
 20
158.855
 11
-9.05655
 21
159.038
  0
LINE
  8
0
 10
-9.05655
 20
159.038
 11
-9.22748
 21
159.245
  0
LINE
  8
0
 10
-9.22748
 20
159.245
 11
-9.37117
 21
159.471
  0
LINE
  8
0
 10
-9.37117
 20
159.471
 11
-9.48534
 21
159.714
  0
LINE
  8
0
 10
-9.48534
 20
159.714
 11
-9.56821
 21
159.969
  0
LINE
  8
0
 10
-9.56821
 20
159.969
 11
-9.61845
 21
160.232
  0
LINE
  8
0
 10
-9.61845
 20
160.232
 11
-9.63528
 21
160.5
  0
LINE
  8
0
 10
-9.63528
 20
160.5
 11
-9.61845
 21
160.768
  0
LINE
  8
0
 10
-9.61845
 20
160.768
 11
-9.56821
 21
161.031
  0
LINE
  8
0
 10
-9.56821
 20
161.031
 11
-9.48534
 21
161.286
  0
LINE
  8
0
 10
-9.48534
 20
161.286
 11
-9.37117
 21
161.529
  0
LINE
  8
0
 10
-9.37117
 20
161.529
 11
-9.22748
 21
161.755
  0
LINE
  8
0
 10
-9.22748
 20
161.755
 11
-9.05655
 21
161.962
  0
LINE
  8
0
 10
-9.05655
 20
161.962
 11
-8.86108
 21
162.145
  0
LINE
  8
0
 10
-8.86108
 20
162.145
 11
-8.64413
 21
162.303
  0
LINE
  8
0
 10
-8.64413
 20
162.303
 11
-8.40915
 21
162.432
  0
LINE
  8
0
 10
-8.40915
 20
162.432
 11
-8.15984
 21
162.531
  0
LINE
  8
0
 10
-8.15984
 20
162.531
 11
-7.9001
 21
162.597
  0
LINE
  8
0
 10
-7.9001
 20
162.597
 11
-7.63406
 21
162.631
  0
LINE
  8
0
 10
-7.63406
 20
162.631
 11
-7.36592
 21
162.631
  0
LINE
  8
0
 10
-7.36592
 20
162.631
 11
-7.09988
 21
162.597
  0
LINE
  8
0
 10
-7.09988
 20
162.597
 11
-6.84015
 21
162.531
  0
LINE
  8
0
 10
-6.84015
 20
162.531
 11
-6.59084
 21
162.432
  0
LINE
  8
0
 10
-6.59084
 20
162.432
 11
-6.35585
 21
162.303
  0
LINE
  8
0
 10
-6.35585
 20
162.303
 11
-6.1389
 21
162.145
  0
LINE
  8
0
 10
-6.1389
 20
162.145
 11
-5.94344
 21
161.962
  0
LINE
  8
0
 10
-5.94344
 20
161.962
 11
-5.77251
 21
161.755
  0
LINE
  8
0
 10
-5.77251
 20
161.755
 11
-5.62881
 21
161.529
  0
LINE
  8
0
 10
-5.62881
 20
161.529
 11
-5.51465
 21
161.286
  0
LINE
  8
0
 10
-5.51465
 20
161.286
 11
-5.43178
 21
161.031
  0
LINE
  8
0
 10
-5.43178
 20
161.031
 11
-5.38153
 21
160.768
  0
LINE
  8
0
 10
-5.38153
 20
160.768
 11
-5.3647
 21
160.5
  0
LINE
  8
0
 10
-5.3647
 20
160.5
 11
-5.38153
 21
160.232
  0
LINE
  8
0
 10
-5.38153
 20
160.232
 11
-5.43178
 21
159.969
  0
LINE
  8
0
 10
-5.43178
 20
159.969
 11
-5.51465
 21
159.714
  0
LINE
  8
0
 10
-5.51465
 20
159.714
 11
-5.62881
 21
159.471
  0
LINE
  8
0
 10
-5.62881
 20
159.471
 11
-5.77251
 21
159.245
  0
LINE
  8
0
 10
-5.77251
 20
159.245
 11
-5.94344
 21
159.038
  0
LINE
  8
0
 10
-5.94344
 20
159.038
 11
-6.1389
 21
158.855
  0
LINE
  8
0
 10
-6.1389
 20
158.855
 11
-6.35585
 21
158.697
  0
LINE
  8
0
 10
-6.35585
 20
158.697
 11
-6.59084
 21
158.568
  0
LINE
  8
0
 10
-6.59084
 20
158.568
 11
-6.84015
 21
158.469
  0
LINE
  8
0
 10
-6.84015
 20
158.469
 11
-7.09988
 21
158.403
  0
LINE
  8
0
 10
-7.09988
 20
158.403
 11
-7.36592
 21
158.369
  0
LINE
  8
0
 10
-7.36592
 20
158.369
 11
-7.63406
 21
158.369
  0
ENDSEC
  0
SECTION
  2
OBJECTS
  0
DICTIONARY
  0
ENDSEC
  0
EOF
