  0
SECTION
  2
BLOCKS
  0
ENDSEC
  0
SECTION
  2
ENTITIES
  0
LINE
  8
0
 10
10.9369
 20
351.089
 11
11.5451
 21
351.245
  0
LINE
  8
0
 10
11.5451
 20
351.245
 11
12.1289
 21
351.476
  0
LINE
  8
0
 10
12.1289
 20
351.476
 11
12.6791
 21
351.778
  0
LINE
  8
0
 10
12.6791
 20
351.778
 11
13.1871
 21
352.147
  0
LINE
  8
0
 10
13.1871
 20
352.147
 11
13.6448
 21
352.577
  0
LINE
  8
0
 10
13.6448
 20
352.577
 11
14.0451
 21
353.061
  0
LINE
  8
0
 10
14.0451
 20
353.061
 11
14.3815
 21
353.591
  0
LINE
  8
0
 10
14.3815
 20
353.591
 11
14.6489
 21
354.159
  0
LINE
  8
0
 10
14.6489
 20
354.159
 11
14.8429
 21
354.757
  0
LINE
  8
0
 10
14.8429
 20
354.757
 11
14.9606
 21
355.373
  0
LINE
  8
0
 10
14.9606
 20
355.373
 11
15
 21
356
  0
LINE
  8
0
 10
15
 20
356
 11
15
 21
436
  0
LINE
  8
0
 10
15
 20
436
 11
14.9606
 21
436.627
  0
LINE
  8
0
 10
14.9606
 20
436.627
 11
14.8429
 21
437.243
  0
LINE
  8
0
 10
14.8429
 20
437.243
 11
14.6489
 21
437.841
  0
LINE
  8
0
 10
14.6489
 20
437.841
 11
14.3815
 21
438.409
  0
LINE
  8
0
 10
14.3815
 20
438.409
 11
14.0451
 21
438.939
  0
LINE
  8
0
 10
14.0451
 20
438.939
 11
13.6448
 21
439.423
  0
LINE
  8
0
 10
13.6448
 20
439.423
 11
13.1871
 21
439.853
  0
LINE
  8
0
 10
13.1871
 20
439.853
 11
12.6791
 21
440.222
  0
LINE
  8
0
 10
12.6791
 20
440.222
 11
12.1289
 21
440.524
  0
LINE
  8
0
 10
12.1289
 20
440.524
 11
11.5451
 21
440.755
  0
LINE
  8
0
 10
11.5451
 20
440.755
 11
10.9369
 21
440.911
  0
LINE
  8
0
 10
10.9369
 20
440.911
 11
10.3139
 21
440.99
  0
LINE
  8
0
 10
10.3139
 20
440.99
 11
-10.3139
 21
440.99
  0
LINE
  8
0
 10
-10.3139
 20
440.99
 11
-10.9369
 21
440.911
  0
LINE
  8
0
 10
-10.9369
 20
440.911
 11
-11.5451
 21
440.755
  0
LINE
  8
0
 10
-11.5451
 20
440.755
 11
-12.1289
 21
440.524
  0
LINE
  8
0
 10
-12.1289
 20
440.524
 11
-12.6791
 21
440.222
  0
LINE
  8
0
 10
-12.6791
 20
440.222
 11
-13.1871
 21
439.853
  0
LINE
  8
0
 10
-13.1871
 20
439.853
 11
-13.6448
 21
439.423
  0
LINE
  8
0
 10
-13.6448
 20
439.423
 11
-14.0451
 21
438.939
  0
LINE
  8
0
 10
-14.0451
 20
438.939
 11
-14.3815
 21
438.409
  0
LINE
  8
0
 10
-14.3815
 20
438.409
 11
-14.6489
 21
437.841
  0
LINE
  8
0
 10
-14.6489
 20
437.841
 11
-14.8429
 21
437.243
  0
LINE
  8
0
 10
-14.8429
 20
437.243
 11
-14.9606
 21
436.627
  0
LINE
  8
0
 10
-14.9606
 20
436.627
 11
-15
 21
436
  0
LINE
  8
0
 10
-15
 20
436
 11
-15
 21
356
  0
LINE
  8
0
 10
-15
 20
356
 11
-14.9606
 21
355.373
  0
LINE
  8
0
 10
-14.9606
 20
355.373
 11
-14.8429
 21
354.757
  0
LINE
  8
0
 10
-14.8429
 20
354.757
 11
-14.6489
 21
354.159
  0
LINE
  8
0
 10
-14.6489
 20
354.159
 11
-14.3815
 21
353.591
  0
LINE
  8
0
 10
-14.3815
 20
353.591
 11
-14.0451
 21
353.061
  0
LINE
  8
0
 10
-14.0451
 20
353.061
 11
-13.6448
 21
352.577
  0
LINE
  8
0
 10
-13.6448
 20
352.577
 11
-13.1871
 21
352.147
  0
LINE
  8
0
 10
-13.1871
 20
352.147
 11
-12.6791
 21
351.778
  0
LINE
  8
0
 10
-12.6791
 20
351.778
 11
-12.1289
 21
351.476
  0
LINE
  8
0
 10
-12.1289
 20
351.476
 11
-11.5451
 21
351.245
  0
LINE
  8
0
 10
-11.5451
 20
351.245
 11
-10.9369
 21
351.089
  0
LINE
  8
0
 10
-10.9369
 20
351.089
 11
-10.3139
 21
351.01
  0
LINE
  8
0
 10
-10.3139
 20
351.01
 11
10.3139
 21
351.01
  0
LINE
  8
0
 10
10.3139
 20
351.01
 11
10.9369
 21
351.089
  0
LINE
  8
0
 10
-9.74316
 20
352.635
 11
-10.2256
 21
352.696
  0
LINE
  8
0
 10
-10.2256
 20
352.696
 11
-10.6967
 21
352.817
  0
LINE
  8
0
 10
-10.6967
 20
352.817
 11
-11.1489
 21
352.996
  0
LINE
  8
0
 10
-11.1489
 20
352.996
 11
-11.5751
 21
353.23
  0
LINE
  8
0
 10
-11.5751
 20
353.23
 11
-11.9685
 21
353.516
  0
LINE
  8
0
 10
-11.9685
 20
353.516
 11
-12.323
 21
353.849
  0
LINE
  8
0
 10
-12.323
 20
353.849
 11
-12.633
 21
354.224
  0
LINE
  8
0
 10
-12.633
 20
354.224
 11
-12.8936
 21
354.634
  0
LINE
  8
0
 10
-12.8936
 20
354.634
 11
-13.1007
 21
355.074
  0
LINE
  8
0
 10
-13.1007
 20
355.074
 11
-13.251
 21
355.537
  0
LINE
  8
0
 10
-13.251
 20
355.537
 11
-13.3421
 21
356.015
  0
LINE
  8
0
 10
-13.3421
 20
356.015
 11
-13.3726
 21
356.5
  0
LINE
  8
0
 10
-13.3726
 20
356.5
 11
-13.3726
 21
435.5
  0
LINE
  8
0
 10
-13.3726
 20
435.5
 11
-13.3421
 21
435.985
  0
LINE
  8
0
 10
-13.3421
 20
435.985
 11
-13.251
 21
436.463
  0
LINE
  8
0
 10
-13.251
 20
436.463
 11
-13.1007
 21
436.926
  0
LINE
  8
0
 10
-13.1007
 20
436.926
 11
-12.8936
 21
437.366
  0
LINE
  8
0
 10
-12.8936
 20
437.366
 11
-12.633
 21
437.776
  0
LINE
  8
0
 10
-12.633
 20
437.776
 11
-12.323
 21
438.151
  0
LINE
  8
0
 10
-12.323
 20
438.151
 11
-11.9685
 21
438.484
  0
LINE
  8
0
 10
-11.9685
 20
438.484
 11
-11.5751
 21
438.77
  0
LINE
  8
0
 10
-11.5751
 20
438.77
 11
-11.1489
 21
439.004
  0
LINE
  8
0
 10
-11.1489
 20
439.004
 11
-10.6967
 21
439.183
  0
LINE
  8
0
 10
-10.6967
 20
439.183
 11
-10.2256
 21
439.304
  0
LINE
  8
0
 10
-10.2256
 20
439.304
 11
-9.74316
 21
439.365
  0
LINE
  8
0
 10
-9.74316
 20
439.365
 11
9.74316
 21
439.365
  0
LINE
  8
0
 10
9.74316
 20
439.365
 11
10.2256
 21
439.304
  0
LINE
  8
0
 10
10.2256
 20
439.304
 11
10.6967
 21
439.183
  0
LINE
  8
0
 10
10.6967
 20
439.183
 11
11.1489
 21
439.004
  0
LINE
  8
0
 10
11.1489
 20
439.004
 11
11.5751
 21
438.77
  0
LINE
  8
0
 10
11.5751
 20
438.77
 11
11.9685
 21
438.484
  0
LINE
  8
0
 10
11.9685
 20
438.484
 11
12.323
 21
438.151
  0
LINE
  8
0
 10
12.323
 20
438.151
 11
12.633
 21
437.776
  0
LINE
  8
0
 10
12.633
 20
437.776
 11
12.8936
 21
437.366
  0
LINE
  8
0
 10
12.8936
 20
437.366
 11
13.1007
 21
436.926
  0
LINE
  8
0
 10
13.1007
 20
436.926
 11
13.251
 21
436.463
  0
LINE
  8
0
 10
13.251
 20
436.463
 11
13.3421
 21
435.985
  0
LINE
  8
0
 10
13.3421
 20
435.985
 11
13.3726
 21
435.5
  0
LINE
  8
0
 10
13.3726
 20
435.5
 11
13.3726
 21
356.5
  0
LINE
  8
0
 10
13.3726
 20
356.5
 11
13.3421
 21
356.015
  0
LINE
  8
0
 10
13.3421
 20
356.015
 11
13.251
 21
355.537
  0
LINE
  8
0
 10
13.251
 20
355.537
 11
13.1007
 21
355.074
  0
LINE
  8
0
 10
13.1007
 20
355.074
 11
12.8936
 21
354.634
  0
LINE
  8
0
 10
12.8936
 20
354.634
 11
12.633
 21
354.224
  0
LINE
  8
0
 10
12.633
 20
354.224
 11
12.323
 21
353.849
  0
LINE
  8
0
 10
12.323
 20
353.849
 11
11.9685
 21
353.516
  0
LINE
  8
0
 10
11.9685
 20
353.516
 11
11.5751
 21
353.23
  0
LINE
  8
0
 10
11.5751
 20
353.23
 11
11.1489
 21
352.996
  0
LINE
  8
0
 10
11.1489
 20
352.996
 11
10.6967
 21
352.817
  0
LINE
  8
0
 10
10.6967
 20
352.817
 11
10.2256
 21
352.696
  0
LINE
  8
0
 10
10.2256
 20
352.696
 11
9.74316
 21
352.635
  0
LINE
  8
0
 10
9.74316
 20
352.635
 11
-9.74316
 21
352.635
  0
LINE
  8
0
 10
10.9369
 20
252.089
 11
11.5451
 21
252.245
  0
LINE
  8
0
 10
11.5451
 20
252.245
 11
12.1289
 21
252.476
  0
LINE
  8
0
 10
12.1289
 20
252.476
 11
12.6791
 21
252.778
  0
LINE
  8
0
 10
12.6791
 20
252.778
 11
13.1871
 21
253.147
  0
LINE
  8
0
 10
13.1871
 20
253.147
 11
13.6448
 21
253.577
  0
LINE
  8
0
 10
13.6448
 20
253.577
 11
14.0451
 21
254.061
  0
LINE
  8
0
 10
14.0451
 20
254.061
 11
14.3815
 21
254.591
  0
LINE
  8
0
 10
14.3815
 20
254.591
 11
14.6489
 21
255.159
  0
LINE
  8
0
 10
14.6489
 20
255.159
 11
14.8429
 21
255.757
  0
LINE
  8
0
 10
14.8429
 20
255.757
 11
14.9606
 21
256.373
  0
LINE
  8
0
 10
14.9606
 20
256.373
 11
15
 21
257
  0
LINE
  8
0
 10
15
 20
257
 11
15
 21
337
  0
LINE
  8
0
 10
15
 20
337
 11
14.9606
 21
337.627
  0
LINE
  8
0
 10
14.9606
 20
337.627
 11
14.8429
 21
338.243
  0
LINE
  8
0
 10
14.8429
 20
338.243
 11
14.6489
 21
338.841
  0
LINE
  8
0
 10
14.6489
 20
338.841
 11
14.3815
 21
339.409
  0
LINE
  8
0
 10
14.3815
 20
339.409
 11
14.0451
 21
339.939
  0
LINE
  8
0
 10
14.0451
 20
339.939
 11
13.6448
 21
340.423
  0
LINE
  8
0
 10
13.6448
 20
340.423
 11
13.1871
 21
340.853
  0
LINE
  8
0
 10
13.1871
 20
340.853
 11
12.6791
 21
341.222
  0
LINE
  8
0
 10
12.6791
 20
341.222
 11
12.1289
 21
341.524
  0
LINE
  8
0
 10
12.1289
 20
341.524
 11
11.5451
 21
341.755
  0
LINE
  8
0
 10
11.5451
 20
341.755
 11
10.9369
 21
341.911
  0
LINE
  8
0
 10
10.9369
 20
341.911
 11
10.3139
 21
341.99
  0
LINE
  8
0
 10
10.3139
 20
341.99
 11
-10.3139
 21
341.99
  0
LINE
  8
0
 10
-10.3139
 20
341.99
 11
-10.9369
 21
341.911
  0
LINE
  8
0
 10
-10.9369
 20
341.911
 11
-11.5451
 21
341.755
  0
LINE
  8
0
 10
-11.5451
 20
341.755
 11
-12.1289
 21
341.524
  0
LINE
  8
0
 10
-12.1289
 20
341.524
 11
-12.6791
 21
341.222
  0
LINE
  8
0
 10
-12.6791
 20
341.222
 11
-13.1871
 21
340.853
  0
LINE
  8
0
 10
-13.1871
 20
340.853
 11
-13.6448
 21
340.423
  0
LINE
  8
0
 10
-13.6448
 20
340.423
 11
-14.0451
 21
339.939
  0
LINE
  8
0
 10
-14.0451
 20
339.939
 11
-14.3815
 21
339.409
  0
LINE
  8
0
 10
-14.3815
 20
339.409
 11
-14.6489
 21
338.841
  0
LINE
  8
0
 10
-14.6489
 20
338.841
 11
-14.8429
 21
338.243
  0
LINE
  8
0
 10
-14.8429
 20
338.243
 11
-14.9606
 21
337.627
  0
LINE
  8
0
 10
-14.9606
 20
337.627
 11
-15
 21
337
  0
LINE
  8
0
 10
-15
 20
337
 11
-15
 21
257
  0
LINE
  8
0
 10
-15
 20
257
 11
-14.9606
 21
256.373
  0
LINE
  8
0
 10
-14.9606
 20
256.373
 11
-14.8429
 21
255.757
  0
LINE
  8
0
 10
-14.8429
 20
255.757
 11
-14.6489
 21
255.159
  0
LINE
  8
0
 10
-14.6489
 20
255.159
 11
-14.3815
 21
254.591
  0
LINE
  8
0
 10
-14.3815
 20
254.591
 11
-14.0451
 21
254.061
  0
LINE
  8
0
 10
-14.0451
 20
254.061
 11
-13.6448
 21
253.577
  0
LINE
  8
0
 10
-13.6448
 20
253.577
 11
-13.1871
 21
253.147
  0
LINE
  8
0
 10
-13.1871
 20
253.147
 11
-12.6791
 21
252.778
  0
LINE
  8
0
 10
-12.6791
 20
252.778
 11
-12.1289
 21
252.476
  0
LINE
  8
0
 10
-12.1289
 20
252.476
 11
-11.5451
 21
252.245
  0
LINE
  8
0
 10
-11.5451
 20
252.245
 11
-10.9369
 21
252.089
  0
LINE
  8
0
 10
-10.9369
 20
252.089
 11
-10.3139
 21
252.01
  0
LINE
  8
0
 10
-10.3139
 20
252.01
 11
10.3139
 21
252.01
  0
LINE
  8
0
 10
10.3139
 20
252.01
 11
10.9369
 21
252.089
  0
LINE
  8
0
 10
10.9369
 20
153.089
 11
11.5451
 21
153.245
  0
LINE
  8
0
 10
11.5451
 20
153.245
 11
12.1289
 21
153.476
  0
LINE
  8
0
 10
12.1289
 20
153.476
 11
12.6791
 21
153.778
  0
LINE
  8
0
 10
12.6791
 20
153.778
 11
13.1871
 21
154.147
  0
LINE
  8
0
 10
13.1871
 20
154.147
 11
13.6448
 21
154.577
  0
LINE
  8
0
 10
13.6448
 20
154.577
 11
14.0451
 21
155.061
  0
LINE
  8
0
 10
14.0451
 20
155.061
 11
14.3815
 21
155.591
  0
LINE
  8
0
 10
14.3815
 20
155.591
 11
14.6489
 21
156.159
  0
LINE
  8
0
 10
14.6489
 20
156.159
 11
14.8429
 21
156.757
  0
LINE
  8
0
 10
14.8429
 20
156.757
 11
14.9606
 21
157.373
  0
LINE
  8
0
 10
14.9606
 20
157.373
 11
15
 21
158
  0
LINE
  8
0
 10
15
 20
158
 11
15
 21
238
  0
LINE
  8
0
 10
15
 20
238
 11
14.9606
 21
238.627
  0
LINE
  8
0
 10
14.9606
 20
238.627
 11
14.8429
 21
239.243
  0
LINE
  8
0
 10
14.8429
 20
239.243
 11
14.6489
 21
239.841
  0
LINE
  8
0
 10
14.6489
 20
239.841
 11
14.3815
 21
240.409
  0
LINE
  8
0
 10
14.3815
 20
240.409
 11
14.0451
 21
240.939
  0
LINE
  8
0
 10
14.0451
 20
240.939
 11
13.6448
 21
241.423
  0
LINE
  8
0
 10
13.6448
 20
241.423
 11
13.1871
 21
241.853
  0
LINE
  8
0
 10
13.1871
 20
241.853
 11
12.6791
 21
242.222
  0
LINE
  8
0
 10
12.6791
 20
242.222
 11
12.1289
 21
242.524
  0
LINE
  8
0
 10
12.1289
 20
242.524
 11
11.5451
 21
242.755
  0
LINE
  8
0
 10
11.5451
 20
242.755
 11
10.9369
 21
242.911
  0
LINE
  8
0
 10
10.9369
 20
242.911
 11
10.3139
 21
242.99
  0
LINE
  8
0
 10
10.3139
 20
242.99
 11
-10.3139
 21
242.99
  0
LINE
  8
0
 10
-10.3139
 20
242.99
 11
-10.9369
 21
242.911
  0
LINE
  8
0
 10
-10.9369
 20
242.911
 11
-11.5451
 21
242.755
  0
LINE
  8
0
 10
-11.5451
 20
242.755
 11
-12.1289
 21
242.524
  0
LINE
  8
0
 10
-12.1289
 20
242.524
 11
-12.6791
 21
242.222
  0
LINE
  8
0
 10
-12.6791
 20
242.222
 11
-13.1871
 21
241.853
  0
LINE
  8
0
 10
-13.1871
 20
241.853
 11
-13.6448
 21
241.423
  0
LINE
  8
0
 10
-13.6448
 20
241.423
 11
-14.0451
 21
240.939
  0
LINE
  8
0
 10
-14.0451
 20
240.939
 11
-14.3815
 21
240.409
  0
LINE
  8
0
 10
-14.3815
 20
240.409
 11
-14.6489
 21
239.841
  0
LINE
  8
0
 10
-14.6489
 20
239.841
 11
-14.8429
 21
239.243
  0
LINE
  8
0
 10
-14.8429
 20
239.243
 11
-14.9606
 21
238.627
  0
LINE
  8
0
 10
-14.9606
 20
238.627
 11
-15
 21
238
  0
LINE
  8
0
 10
-15
 20
238
 11
-15
 21
158
  0
LINE
  8
0
 10
-15
 20
158
 11
-14.9606
 21
157.373
  0
LINE
  8
0
 10
-14.9606
 20
157.373
 11
-14.8429
 21
156.757
  0
LINE
  8
0
 10
-14.8429
 20
156.757
 11
-14.6489
 21
156.159
  0
LINE
  8
0
 10
-14.6489
 20
156.159
 11
-14.3815
 21
155.591
  0
LINE
  8
0
 10
-14.3815
 20
155.591
 11
-14.0451
 21
155.061
  0
LINE
  8
0
 10
-14.0451
 20
155.061
 11
-13.6448
 21
154.577
  0
LINE
  8
0
 10
-13.6448
 20
154.577
 11
-13.1871
 21
154.147
  0
LINE
  8
0
 10
-13.1871
 20
154.147
 11
-12.6791
 21
153.778
  0
LINE
  8
0
 10
-12.6791
 20
153.778
 11
-12.1289
 21
153.476
  0
LINE
  8
0
 10
-12.1289
 20
153.476
 11
-11.5451
 21
153.245
  0
LINE
  8
0
 10
-11.5451
 20
153.245
 11
-10.9369
 21
153.089
  0
LINE
  8
0
 10
-10.9369
 20
153.089
 11
-10.3139
 21
153.01
  0
LINE
  8
0
 10
-10.3139
 20
153.01
 11
10.3139
 21
153.01
  0
LINE
  8
0
 10
10.3139
 20
153.01
 11
10.9369
 21
153.089
  0
LINE
  8
0
 10
7.38696
 20
233.704
 11
7.1627
 21
233.732
  0
LINE
  8
0
 10
7.1627
 20
233.732
 11
6.94376
 21
233.788
  0
LINE
  8
0
 10
6.94376
 20
233.788
 11
6.7336
 21
233.871
  0
LINE
  8
0
 10
6.7336
 20
233.871
 11
6.53551
 21
233.98
  0
LINE
  8
0
 10
6.53551
 20
233.98
 11
6.35263
 21
234.113
  0
LINE
  8
0
 10
6.35263
 20
234.113
 11
6.18785
 21
234.268
  0
LINE
  8
0
 10
6.18785
 20
234.268
 11
6.04376
 21
234.442
  0
LINE
  8
0
 10
6.04376
 20
234.442
 11
5.92264
 21
234.633
  0
LINE
  8
0
 10
5.92264
 20
234.633
 11
5.8264
 21
234.837
  0
LINE
  8
0
 10
5.8264
 20
234.837
 11
5.75655
 21
235.052
  0
LINE
  8
0
 10
5.75655
 20
235.052
 11
5.71419
 21
235.274
  0
LINE
  8
0
 10
5.71419
 20
235.274
 11
5.7
 21
235.5
  0
LINE
  8
0
 10
5.7
 20
235.5
 11
5.71419
 21
235.726
  0
LINE
  8
0
 10
5.71419
 20
235.726
 11
5.75655
 21
235.948
  0
LINE
  8
0
 10
5.75655
 20
235.948
 11
5.8264
 21
236.163
  0
LINE
  8
0
 10
5.8264
 20
236.163
 11
5.92264
 21
236.367
  0
LINE
  8
0
 10
5.92264
 20
236.367
 11
6.04376
 21
236.558
  0
LINE
  8
0
 10
6.04376
 20
236.558
 11
6.18785
 21
236.732
  0
LINE
  8
0
 10
6.18785
 20
236.732
 11
6.35263
 21
236.887
  0
LINE
  8
0
 10
6.35263
 20
236.887
 11
6.53551
 21
237.02
  0
LINE
  8
0
 10
6.53551
 20
237.02
 11
6.7336
 21
237.129
  0
LINE
  8
0
 10
6.7336
 20
237.129
 11
6.94376
 21
237.212
  0
LINE
  8
0
 10
6.94376
 20
237.212
 11
7.1627
 21
237.268
  0
LINE
  8
0
 10
7.1627
 20
237.268
 11
7.38696
 21
237.296
  0
LINE
  8
0
 10
7.38696
 20
237.296
 11
7.61302
 21
237.296
  0
LINE
  8
0
 10
7.61302
 20
237.296
 11
7.83728
 21
237.268
  0
LINE
  8
0
 10
7.83728
 20
237.268
 11
8.05623
 21
237.212
  0
LINE
  8
0
 10
8.05623
 20
237.212
 11
8.26639
 21
237.129
  0
LINE
  8
0
 10
8.26639
 20
237.129
 11
8.46448
 21
237.02
  0
LINE
  8
0
 10
8.46448
 20
237.02
 11
8.64735
 21
236.887
  0
LINE
  8
0
 10
8.64735
 20
236.887
 11
8.81213
 21
236.732
  0
LINE
  8
0
 10
8.81213
 20
236.732
 11
8.95622
 21
236.558
  0
LINE
  8
0
 10
8.95622
 20
236.558
 11
9.07735
 21
236.367
  0
LINE
  8
0
 10
9.07735
 20
236.367
 11
9.17358
 21
236.163
  0
LINE
  8
0
 10
9.17358
 20
236.163
 11
9.24344
 21
235.948
  0
LINE
  8
0
 10
9.24344
 20
235.948
 11
9.2858
 21
235.726
  0
LINE
  8
0
 10
9.2858
 20
235.726
 11
9.29999
 21
235.5
  0
LINE
  8
0
 10
9.29999
 20
235.5
 11
9.2858
 21
235.274
  0
LINE
  8
0
 10
9.2858
 20
235.274
 11
9.24344
 21
235.052
  0
LINE
  8
0
 10
9.24344
 20
235.052
 11
9.17358
 21
234.837
  0
LINE
  8
0
 10
9.17358
 20
234.837
 11
9.07735
 21
234.633
  0
LINE
  8
0
 10
9.07735
 20
234.633
 11
8.95622
 21
234.442
  0
LINE
  8
0
 10
8.95622
 20
234.442
 11
8.81213
 21
234.268
  0
LINE
  8
0
 10
8.81213
 20
234.268
 11
8.64735
 21
234.113
  0
LINE
  8
0
 10
8.64735
 20
234.113
 11
8.46448
 21
233.98
  0
LINE
  8
0
 10
8.46448
 20
233.98
 11
8.26639
 21
233.871
  0
LINE
  8
0
 10
8.26639
 20
233.871
 11
8.05623
 21
233.788
  0
LINE
  8
0
 10
8.05623
 20
233.788
 11
7.83728
 21
233.732
  0
LINE
  8
0
 10
7.83728
 20
233.732
 11
7.61302
 21
233.704
  0
LINE
  8
0
 10
7.61302
 20
233.704
 11
7.38696
 21
233.704
  0
LINE
  8
0
 10
-7.61302
 20
233.704
 11
-7.83728
 21
233.732
  0
LINE
  8
0
 10
-7.83728
 20
233.732
 11
-8.05623
 21
233.788
  0
LINE
  8
0
 10
-8.05623
 20
233.788
 11
-8.26639
 21
233.871
  0
LINE
  8
0
 10
-8.26639
 20
233.871
 11
-8.46448
 21
233.98
  0
LINE
  8
0
 10
-8.46448
 20
233.98
 11
-8.64735
 21
234.113
  0
LINE
  8
0
 10
-8.64735
 20
234.113
 11
-8.81213
 21
234.268
  0
LINE
  8
0
 10
-8.81213
 20
234.268
 11
-8.95622
 21
234.442
  0
LINE
  8
0
 10
-8.95622
 20
234.442
 11
-9.07735
 21
234.633
  0
LINE
  8
0
 10
-9.07735
 20
234.633
 11
-9.17358
 21
234.837
  0
LINE
  8
0
 10
-9.17358
 20
234.837
 11
-9.24344
 21
235.052
  0
LINE
  8
0
 10
-9.24344
 20
235.052
 11
-9.2858
 21
235.274
  0
LINE
  8
0
 10
-9.2858
 20
235.274
 11
-9.29999
 21
235.5
  0
LINE
  8
0
 10
-9.29999
 20
235.5
 11
-9.2858
 21
235.726
  0
LINE
  8
0
 10
-9.2858
 20
235.726
 11
-9.24344
 21
235.948
  0
LINE
  8
0
 10
-9.24344
 20
235.948
 11
-9.17358
 21
236.163
  0
LINE
  8
0
 10
-9.17358
 20
236.163
 11
-9.07735
 21
236.367
  0
LINE
  8
0
 10
-9.07735
 20
236.367
 11
-8.95622
 21
236.558
  0
LINE
  8
0
 10
-8.95622
 20
236.558
 11
-8.81213
 21
236.732
  0
LINE
  8
0
 10
-8.81213
 20
236.732
 11
-8.64735
 21
236.887
  0
LINE
  8
0
 10
-8.64735
 20
236.887
 11
-8.46448
 21
237.02
  0
LINE
  8
0
 10
-8.46448
 20
237.02
 11
-8.26639
 21
237.129
  0
LINE
  8
0
 10
-8.26639
 20
237.129
 11
-8.05623
 21
237.212
  0
LINE
  8
0
 10
-8.05623
 20
237.212
 11
-7.83728
 21
237.268
  0
LINE
  8
0
 10
-7.83728
 20
237.268
 11
-7.61302
 21
237.296
  0
LINE
  8
0
 10
-7.61302
 20
237.296
 11
-7.38696
 21
237.296
  0
LINE
  8
0
 10
-7.38696
 20
237.296
 11
-7.1627
 21
237.268
  0
LINE
  8
0
 10
-7.1627
 20
237.268
 11
-6.94376
 21
237.212
  0
LINE
  8
0
 10
-6.94376
 20
237.212
 11
-6.7336
 21
237.129
  0
LINE
  8
0
 10
-6.7336
 20
237.129
 11
-6.53551
 21
237.02
  0
LINE
  8
0
 10
-6.53551
 20
237.02
 11
-6.35263
 21
236.887
  0
LINE
  8
0
 10
-6.35263
 20
236.887
 11
-6.18785
 21
236.732
  0
LINE
  8
0
 10
-6.18785
 20
236.732
 11
-6.04376
 21
236.558
  0
LINE
  8
0
 10
-6.04376
 20
236.558
 11
-5.92264
 21
236.367
  0
LINE
  8
0
 10
-5.92264
 20
236.367
 11
-5.8264
 21
236.163
  0
LINE
  8
0
 10
-5.8264
 20
236.163
 11
-5.75655
 21
235.948
  0
LINE
  8
0
 10
-5.75655
 20
235.948
 11
-5.71419
 21
235.726
  0
LINE
  8
0
 10
-5.71419
 20
235.726
 11
-5.7
 21
235.5
  0
LINE
  8
0
 10
-5.7
 20
235.5
 11
-5.71419
 21
235.274
  0
LINE
  8
0
 10
-5.71419
 20
235.274
 11
-5.75655
 21
235.052
  0
LINE
  8
0
 10
-5.75655
 20
235.052
 11
-5.8264
 21
234.837
  0
LINE
  8
0
 10
-5.8264
 20
234.837
 11
-5.92264
 21
234.633
  0
LINE
  8
0
 10
-5.92264
 20
234.633
 11
-6.04376
 21
234.442
  0
LINE
  8
0
 10
-6.04376
 20
234.442
 11
-6.18785
 21
234.268
  0
LINE
  8
0
 10
-6.18785
 20
234.268
 11
-6.35263
 21
234.113
  0
LINE
  8
0
 10
-6.35263
 20
234.113
 11
-6.53551
 21
233.98
  0
LINE
  8
0
 10
-6.53551
 20
233.98
 11
-6.7336
 21
233.871
  0
LINE
  8
0
 10
-6.7336
 20
233.871
 11
-6.94376
 21
233.788
  0
LINE
  8
0
 10
-6.94376
 20
233.788
 11
-7.1627
 21
233.732
  0
LINE
  8
0
 10
-7.1627
 20
233.732
 11
-7.38696
 21
233.704
  0
LINE
  8
0
 10
-7.38696
 20
233.704
 11
-7.61302
 21
233.704
  0
LINE
  8
0
 10
-7.61302
 20
158.704
 11
-7.83728
 21
158.732
  0
LINE
  8
0
 10
-7.83728
 20
158.732
 11
-8.05623
 21
158.788
  0
LINE
  8
0
 10
-8.05623
 20
158.788
 11
-8.26639
 21
158.871
  0
LINE
  8
0
 10
-8.26639
 20
158.871
 11
-8.46448
 21
158.98
  0
LINE
  8
0
 10
-8.46448
 20
158.98
 11
-8.64735
 21
159.113
  0
LINE
  8
0
 10
-8.64735
 20
159.113
 11
-8.81213
 21
159.268
  0
LINE
  8
0
 10
-8.81213
 20
159.268
 11
-8.95622
 21
159.442
  0
LINE
  8
0
 10
-8.95622
 20
159.442
 11
-9.07735
 21
159.633
  0
LINE
  8
0
 10
-9.07735
 20
159.633
 11
-9.17358
 21
159.837
  0
LINE
  8
0
 10
-9.17358
 20
159.837
 11
-9.24344
 21
160.052
  0
LINE
  8
0
 10
-9.24344
 20
160.052
 11
-9.2858
 21
160.274
  0
LINE
  8
0
 10
-9.2858
 20
160.274
 11
-9.29999
 21
160.5
  0
LINE
  8
0
 10
-9.29999
 20
160.5
 11
-9.2858
 21
160.726
  0
LINE
  8
0
 10
-9.2858
 20
160.726
 11
-9.24344
 21
160.948
  0
LINE
  8
0
 10
-9.24344
 20
160.948
 11
-9.17358
 21
161.163
  0
LINE
  8
0
 10
-9.17358
 20
161.163
 11
-9.07735
 21
161.367
  0
LINE
  8
0
 10
-9.07735
 20
161.367
 11
-8.95622
 21
161.558
  0
LINE
  8
0
 10
-8.95622
 20
161.558
 11
-8.81213
 21
161.732
  0
LINE
  8
0
 10
-8.81213
 20
161.732
 11
-8.64735
 21
161.887
  0
LINE
  8
0
 10
-8.64735
 20
161.887
 11
-8.46448
 21
162.02
  0
LINE
  8
0
 10
-8.46448
 20
162.02
 11
-8.26639
 21
162.129
  0
LINE
  8
0
 10
-8.26639
 20
162.129
 11
-8.05623
 21
162.212
  0
LINE
  8
0
 10
-8.05623
 20
162.212
 11
-7.83728
 21
162.268
  0
LINE
  8
0
 10
-7.83728
 20
162.268
 11
-7.61302
 21
162.296
  0
LINE
  8
0
 10
-7.61302
 20
162.296
 11
-7.38696
 21
162.296
  0
LINE
  8
0
 10
-7.38696
 20
162.296
 11
-7.1627
 21
162.268
  0
LINE
  8
0
 10
-7.1627
 20
162.268
 11
-6.94376
 21
162.212
  0
LINE
  8
0
 10
-6.94376
 20
162.212
 11
-6.7336
 21
162.129
  0
LINE
  8
0
 10
-6.7336
 20
162.129
 11
-6.53551
 21
162.02
  0
LINE
  8
0
 10
-6.53551
 20
162.02
 11
-6.35263
 21
161.887
  0
LINE
  8
0
 10
-6.35263
 20
161.887
 11
-6.18785
 21
161.732
  0
LINE
  8
0
 10
-6.18785
 20
161.732
 11
-6.04376
 21
161.558
  0
LINE
  8
0
 10
-6.04376
 20
161.558
 11
-5.92264
 21
161.367
  0
LINE
  8
0
 10
-5.92264
 20
161.367
 11
-5.8264
 21
161.163
  0
LINE
  8
0
 10
-5.8264
 20
161.163
 11
-5.75655
 21
160.948
  0
LINE
  8
0
 10
-5.75655
 20
160.948
 11
-5.71419
 21
160.726
  0
LINE
  8
0
 10
-5.71419
 20
160.726
 11
-5.7
 21
160.5
  0
LINE
  8
0
 10
-5.7
 20
160.5
 11
-5.71419
 21
160.274
  0
LINE
  8
0
 10
-5.71419
 20
160.274
 11
-5.75655
 21
160.052
  0
LINE
  8
0
 10
-5.75655
 20
160.052
 11
-5.8264
 21
159.837
  0
LINE
  8
0
 10
-5.8264
 20
159.837
 11
-5.92264
 21
159.633
  0
LINE
  8
0
 10
-5.92264
 20
159.633
 11
-6.04376
 21
159.442
  0
LINE
  8
0
 10
-6.04376
 20
159.442
 11
-6.18785
 21
159.268
  0
LINE
  8
0
 10
-6.18785
 20
159.268
 11
-6.35263
 21
159.113
  0
LINE
  8
0
 10
-6.35263
 20
159.113
 11
-6.53551
 21
158.98
  0
LINE
  8
0
 10
-6.53551
 20
158.98
 11
-6.7336
 21
158.871
  0
LINE
  8
0
 10
-6.7336
 20
158.871
 11
-6.94376
 21
158.788
  0
LINE
  8
0
 10
-6.94376
 20
158.788
 11
-7.1627
 21
158.732
  0
LINE
  8
0
 10
-7.1627
 20
158.732
 11
-7.38696
 21
158.704
  0
LINE
  8
0
 10
-7.38696
 20
158.704
 11
-7.61302
 21
158.704
  0
LINE
  8
0
 10
7.38696
 20
158.704
 11
7.1627
 21
158.732
  0
LINE
  8
0
 10
7.1627
 20
158.732
 11
6.94376
 21
158.788
  0
LINE
  8
0
 10
6.94376
 20
158.788
 11
6.7336
 21
158.871
  0
LINE
  8
0
 10
6.7336
 20
158.871
 11
6.53551
 21
158.98
  0
LINE
  8
0
 10
6.53551
 20
158.98
 11
6.35263
 21
159.113
  0
LINE
  8
0
 10
6.35263
 20
159.113
 11
6.18785
 21
159.268
  0
LINE
  8
0
 10
6.18785
 20
159.268
 11
6.04376
 21
159.442
  0
LINE
  8
0
 10
6.04376
 20
159.442
 11
5.92264
 21
159.633
  0
LINE
  8
0
 10
5.92264
 20
159.633
 11
5.8264
 21
159.837
  0
LINE
  8
0
 10
5.8264
 20
159.837
 11
5.75655
 21
160.052
  0
LINE
  8
0
 10
5.75655
 20
160.052
 11
5.71419
 21
160.274
  0
LINE
  8
0
 10
5.71419
 20
160.274
 11
5.7
 21
160.5
  0
LINE
  8
0
 10
5.7
 20
160.5
 11
5.71419
 21
160.726
  0
LINE
  8
0
 10
5.71419
 20
160.726
 11
5.75655
 21
160.948
  0
LINE
  8
0
 10
5.75655
 20
160.948
 11
5.8264
 21
161.163
  0
LINE
  8
0
 10
5.8264
 20
161.163
 11
5.92264
 21
161.367
  0
LINE
  8
0
 10
5.92264
 20
161.367
 11
6.04376
 21
161.558
  0
LINE
  8
0
 10
6.04376
 20
161.558
 11
6.18785
 21
161.732
  0
LINE
  8
0
 10
6.18785
 20
161.732
 11
6.35263
 21
161.887
  0
LINE
  8
0
 10
6.35263
 20
161.887
 11
6.53551
 21
162.02
  0
LINE
  8
0
 10
6.53551
 20
162.02
 11
6.7336
 21
162.129
  0
LINE
  8
0
 10
6.7336
 20
162.129
 11
6.94376
 21
162.212
  0
LINE
  8
0
 10
6.94376
 20
162.212
 11
7.1627
 21
162.268
  0
LINE
  8
0
 10
7.1627
 20
162.268
 11
7.38696
 21
162.296
  0
LINE
  8
0
 10
7.38696
 20
162.296
 11
7.61302
 21
162.296
  0
LINE
  8
0
 10
7.61302
 20
162.296
 11
7.83728
 21
162.268
  0
LINE
  8
0
 10
7.83728
 20
162.268
 11
8.05623
 21
162.212
  0
LINE
  8
0
 10
8.05623
 20
162.212
 11
8.26639
 21
162.129
  0
LINE
  8
0
 10
8.26639
 20
162.129
 11
8.46448
 21
162.02
  0
LINE
  8
0
 10
8.46448
 20
162.02
 11
8.64735
 21
161.887
  0
LINE
  8
0
 10
8.64735
 20
161.887
 11
8.81213
 21
161.732
  0
LINE
  8
0
 10
8.81213
 20
161.732
 11
8.95622
 21
161.558
  0
LINE
  8
0
 10
8.95622
 20
161.558
 11
9.07735
 21
161.367
  0
LINE
  8
0
 10
9.07735
 20
161.367
 11
9.17358
 21
161.163
  0
LINE
  8
0
 10
9.17358
 20
161.163
 11
9.24344
 21
160.948
  0
LINE
  8
0
 10
9.24344
 20
160.948
 11
9.2858
 21
160.726
  0
LINE
  8
0
 10
9.2858
 20
160.726
 11
9.29999
 21
160.5
  0
LINE
  8
0
 10
9.29999
 20
160.5
 11
9.2858
 21
160.274
  0
LINE
  8
0
 10
9.2858
 20
160.274
 11
9.24344
 21
160.052
  0
LINE
  8
0
 10
9.24344
 20
160.052
 11
9.17358
 21
159.837
  0
LINE
  8
0
 10
9.17358
 20
159.837
 11
9.07735
 21
159.633
  0
LINE
  8
0
 10
9.07735
 20
159.633
 11
8.95622
 21
159.442
  0
LINE
  8
0
 10
8.95622
 20
159.442
 11
8.81213
 21
159.268
  0
LINE
  8
0
 10
8.81213
 20
159.268
 11
8.64735
 21
159.113
  0
LINE
  8
0
 10
8.64735
 20
159.113
 11
8.46448
 21
158.98
  0
LINE
  8
0
 10
8.46448
 20
158.98
 11
8.26639
 21
158.871
  0
LINE
  8
0
 10
8.26639
 20
158.871
 11
8.05623
 21
158.788
  0
LINE
  8
0
 10
8.05623
 20
158.788
 11
7.83728
 21
158.732
  0
LINE
  8
0
 10
7.83728
 20
158.732
 11
7.61302
 21
158.704
  0
LINE
  8
0
 10
7.61302
 20
158.704
 11
7.38696
 21
158.704
  0
ENDSEC
  0
SECTION
  2
OBJECTS
  0
DICTIONARY
  0
ENDSEC
  0
EOF
