<?xml version="1.0" standalone="no"?>
<!DOCTYPE svg PUBLIC "-//W3C//DTD SVG 1.1//EN" "http://www.w3.org/Graphics/SVG/1.1/DTD/svg11.dtd">
<svg width="46mm" height="786mm" viewBox="-23 -1506 46 786" xmlns="http://www.w3.org/2000/svg" version="1.1">
<title>OpenSCAD Model</title>
<path d="
M 18.4369,-1356.09 L 19.0451,-1356.24 L 19.6289,-1356.48 L 20.1791,-1356.78 L 20.6871,-1357.15 L 21.1448,-1357.58
 L 21.5451,-1358.06 L 21.8815,-1358.59 L 22.1489,-1359.16 L 22.3429,-1359.76 L 22.4606,-1360.37 L 22.5,-1361
 L 22.5,-1501 L 22.4606,-1501.63 L 22.3429,-1502.24 L 22.1489,-1502.84 L 21.8815,-1503.41 L 21.5451,-1503.94
 L 21.1448,-1504.42 L 20.6871,-1504.85 L 20.1791,-1505.22 L 19.6289,-1505.52 L 19.0451,-1505.76 L 18.4369,-1505.91
 L 17.8139,-1505.99 L -17.8139,-1505.99 L -18.4369,-1505.91 L -19.0451,-1505.76 L -19.6289,-1505.52 L -20.1791,-1505.22
 L -20.6871,-1504.85 L -21.1448,-1504.42 L -21.5451,-1503.94 L -21.8815,-1503.41 L -22.1489,-1502.84 L -22.3429,-1502.24
 L -22.4606,-1501.63 L -22.5,-1501 L -22.5,-1361 L -22.4606,-1360.37 L -22.3429,-1359.76 L -22.1489,-1359.16
 L -21.8815,-1358.59 L -21.5451,-1358.06 L -21.1448,-1357.58 L -20.6871,-1357.15 L -20.1791,-1356.78 L -19.6289,-1356.48
 L -19.0451,-1356.24 L -18.4369,-1356.09 L -17.8139,-1356.01 L 17.8139,-1356.01 z
M -17.2512,-1357.51 L -17.7495,-1357.57 L -18.2361,-1357.7 L -18.7031,-1357.88 L -19.1433,-1358.12 L -19.5497,-1358.42
 L -19.9159,-1358.76 L -20.2361,-1359.15 L -20.5052,-1359.57 L -20.7191,-1360.03 L -20.8743,-1360.51 L -20.9684,-1361
 L -21,-1361.5 L -21,-1500.5 L -20.9684,-1501 L -20.8743,-1501.49 L -20.7191,-1501.97 L -20.5052,-1502.43
 L -20.2361,-1502.85 L -19.9159,-1503.24 L -19.5497,-1503.58 L -19.1433,-1503.88 L -18.7031,-1504.12 L -18.2361,-1504.3
 L -17.7495,-1504.43 L -17.2512,-1504.49 L 17.2512,-1504.49 L 17.7495,-1504.43 L 18.2361,-1504.3 L 18.7031,-1504.12
 L 19.1433,-1503.88 L 19.5497,-1503.58 L 19.9159,-1503.24 L 20.2361,-1502.85 L 20.5052,-1502.43 L 20.7191,-1501.97
 L 20.8743,-1501.49 L 20.9684,-1501 L 21,-1500.5 L 21,-1361.5 L 20.9684,-1361 L 20.8743,-1360.51
 L 20.7191,-1360.03 L 20.5052,-1359.57 L 20.2361,-1359.15 L 19.9159,-1358.76 L 19.5497,-1358.42 L 19.1433,-1358.12
 L 18.7031,-1357.88 L 18.2361,-1357.7 L 17.7495,-1357.57 L 17.2512,-1357.51 z
M 18.4369,-1197.09 L 19.0451,-1197.24 L 19.6289,-1197.48 L 20.1791,-1197.78 L 20.6871,-1198.15 L 21.1448,-1198.58
 L 21.5451,-1199.06 L 21.8815,-1199.59 L 22.1489,-1200.16 L 22.3429,-1200.76 L 22.4606,-1201.37 L 22.5,-1202
 L 22.5,-1342 L 22.4606,-1342.63 L 22.3429,-1343.24 L 22.1489,-1343.84 L 21.8815,-1344.41 L 21.5451,-1344.94
 L 21.1448,-1345.42 L 20.6871,-1345.85 L 20.1791,-1346.22 L 19.6289,-1346.52 L 19.0451,-1346.76 L 18.4369,-1346.91
 L 17.8139,-1346.99 L -17.8139,-1346.99 L -18.4369,-1346.91 L -19.0451,-1346.76 L -19.6289,-1346.52 L -20.1791,-1346.22
 L -20.6871,-1345.85 L -21.1448,-1345.42 L -21.5451,-1344.94 L -21.8815,-1344.41 L -22.1489,-1343.84 L -22.3429,-1343.24
 L -22.4606,-1342.63 L -22.5,-1342 L -22.5,-1202 L -22.4606,-1201.37 L -22.3429,-1200.76 L -22.1489,-1200.16
 L -21.8815,-1199.59 L -21.5451,-1199.06 L -21.1448,-1198.58 L -20.6871,-1198.15 L -20.1791,-1197.78 L -19.6289,-1197.48
 L -19.0451,-1197.24 L -18.4369,-1197.09 L -17.8139,-1197.01 L 17.8139,-1197.01 z
M -17.2512,-1198.51 L -17.7495,-1198.57 L -18.2361,-1198.7 L -18.7031,-1198.88 L -19.1433,-1199.12 L -19.5497,-1199.42
 L -19.9159,-1199.76 L -20.2361,-1200.15 L -20.5052,-1200.57 L -20.7191,-1201.03 L -20.8743,-1201.51 L -20.9684,-1202
 L -21,-1202.5 L -21,-1341.5 L -20.9684,-1342 L -20.8743,-1342.49 L -20.7191,-1342.97 L -20.5052,-1343.43
 L -20.2361,-1343.85 L -19.9159,-1344.24 L -19.5497,-1344.58 L -19.1433,-1344.88 L -18.7031,-1345.12 L -18.2361,-1345.3
 L -17.7495,-1345.43 L -17.2512,-1345.49 L 17.2512,-1345.49 L 17.7495,-1345.43 L 18.2361,-1345.3 L 18.7031,-1345.12
 L 19.1433,-1344.88 L 19.5497,-1344.58 L 19.9159,-1344.24 L 20.2361,-1343.85 L 20.5052,-1343.43 L 20.7191,-1342.97
 L 20.8743,-1342.49 L 20.9684,-1342 L 21,-1341.5 L 21,-1202.5 L 20.9684,-1202 L 20.8743,-1201.51
 L 20.7191,-1201.03 L 20.5052,-1200.57 L 20.2361,-1200.15 L 19.9159,-1199.76 L 19.5497,-1199.42 L 19.1433,-1199.12
 L 18.7031,-1198.88 L 18.2361,-1198.7 L 17.7495,-1198.57 L 17.2512,-1198.51 z
M 18.4369,-1038.09 L 19.0451,-1038.24 L 19.6289,-1038.48 L 20.1791,-1038.78 L 20.6871,-1039.15 L 21.1448,-1039.58
 L 21.5451,-1040.06 L 21.8815,-1040.59 L 22.1489,-1041.16 L 22.3429,-1041.76 L 22.4606,-1042.37 L 22.5,-1043
 L 22.5,-1183 L 22.4606,-1183.63 L 22.3429,-1184.24 L 22.1489,-1184.84 L 21.8815,-1185.41 L 21.5451,-1185.94
 L 21.1448,-1186.42 L 20.6871,-1186.85 L 20.1791,-1187.22 L 19.6289,-1187.52 L 19.0451,-1187.76 L 18.4369,-1187.91
 L 17.8139,-1187.99 L -17.8139,-1187.99 L -18.4369,-1187.91 L -19.0451,-1187.76 L -19.6289,-1187.52 L -20.1791,-1187.22
 L -20.6871,-1186.85 L -21.1448,-1186.42 L -21.5451,-1185.94 L -21.8815,-1185.41 L -22.1489,-1184.84 L -22.3429,-1184.24
 L -22.4606,-1183.63 L -22.5,-1183 L -22.5,-1043 L -22.4606,-1042.37 L -22.3429,-1041.76 L -22.1489,-1041.16
 L -21.8815,-1040.59 L -21.5451,-1040.06 L -21.1448,-1039.58 L -20.6871,-1039.15 L -20.1791,-1038.78 L -19.6289,-1038.48
 L -19.0451,-1038.24 L -18.4369,-1038.09 L -17.8139,-1038.01 L 17.8139,-1038.01 z
M -17.2512,-1039.51 L -17.7495,-1039.57 L -18.2361,-1039.7 L -18.7031,-1039.88 L -19.1433,-1040.12 L -19.5497,-1040.42
 L -19.9159,-1040.76 L -20.2361,-1041.15 L -20.5052,-1041.57 L -20.7191,-1042.03 L -20.8743,-1042.51 L -20.9684,-1043
 L -21,-1043.5 L -21,-1182.5 L -20.9684,-1183 L -20.8743,-1183.49 L -20.7191,-1183.97 L -20.5052,-1184.43
 L -20.2361,-1184.85 L -19.9159,-1185.24 L -19.5497,-1185.58 L -19.1433,-1185.88 L -18.7031,-1186.12 L -18.2361,-1186.3
 L -17.7495,-1186.43 L -17.2512,-1186.49 L 17.2512,-1186.49 L 17.7495,-1186.43 L 18.2361,-1186.3 L 18.7031,-1186.12
 L 19.1433,-1185.88 L 19.5497,-1185.58 L 19.9159,-1185.24 L 20.2361,-1184.85 L 20.5052,-1184.43 L 20.7191,-1183.97
 L 20.8743,-1183.49 L 20.9684,-1183 L 21,-1182.5 L 21,-1043.5 L 20.9684,-1043 L 20.8743,-1042.51
 L 20.7191,-1042.03 L 20.5052,-1041.57 L 20.2361,-1041.15 L 19.9159,-1040.76 L 19.5497,-1040.42 L 19.1433,-1040.12
 L 18.7031,-1039.88 L 18.2361,-1039.7 L 17.7495,-1039.57 L 17.2512,-1039.51 z
M 18.4369,-879.089 L 19.0451,-879.245 L 19.6289,-879.476 L 20.1791,-879.778 L 20.6871,-880.147 L 21.1448,-880.577
 L 21.5451,-881.061 L 21.8815,-881.591 L 22.1489,-882.159 L 22.3429,-882.757 L 22.4606,-883.373 L 22.5,-884
 L 22.5,-1024 L 22.4606,-1024.63 L 22.3429,-1025.24 L 22.1489,-1025.84 L 21.8815,-1026.41 L 21.5451,-1026.94
 L 21.1448,-1027.42 L 20.6871,-1027.85 L 20.1791,-1028.22 L 19.6289,-1028.52 L 19.0451,-1028.76 L 18.4369,-1028.91
 L 17.8139,-1028.99 L -17.8139,-1028.99 L -18.4369,-1028.91 L -19.0451,-1028.76 L -19.6289,-1028.52 L -20.1791,-1028.22
 L -20.6871,-1027.85 L -21.1448,-1027.42 L -21.5451,-1026.94 L -21.8815,-1026.41 L -22.1489,-1025.84 L -22.3429,-1025.24
 L -22.4606,-1024.63 L -22.5,-1024 L -22.5,-884 L -22.4606,-883.373 L -22.3429,-882.757 L -22.1489,-882.159
 L -21.8815,-881.591 L -21.5451,-881.061 L -21.1448,-880.577 L -20.6871,-880.147 L -20.1791,-879.778 L -19.6289,-879.476
 L -19.0451,-879.245 L -18.4369,-879.089 L -17.8139,-879.01 L 17.8139,-879.01 z
M -17.1954,-881.393 L -17.5833,-881.442 L -17.9619,-881.539 L -18.3254,-881.683 L -18.668,-881.872 L -18.9842,-882.101
 L -19.2692,-882.369 L -19.5184,-882.67 L -19.7279,-883 L -19.8943,-883.354 L -20.0151,-883.726 L -20.0884,-884.11
 L -20.1129,-884.5 L -20.1129,-1023.5 L -20.0884,-1023.89 L -20.0151,-1024.27 L -19.8943,-1024.65 L -19.7279,-1025
 L -19.5184,-1025.33 L -19.2692,-1025.63 L -18.9842,-1025.9 L -18.668,-1026.13 L -18.3254,-1026.32 L -17.9619,-1026.46
 L -17.5833,-1026.56 L -17.1954,-1026.61 L 17.1954,-1026.61 L 17.5833,-1026.56 L 17.9619,-1026.46 L 18.3254,-1026.32
 L 18.668,-1026.13 L 18.9842,-1025.9 L 19.2692,-1025.63 L 19.5184,-1025.33 L 19.7279,-1025 L 19.8943,-1024.65
 L 20.0151,-1024.27 L 20.0884,-1023.89 L 20.1129,-1023.5 L 20.1129,-884.5 L 20.0884,-884.11 L 20.0151,-883.726
 L 19.8943,-883.354 L 19.7279,-883 L 19.5184,-882.67 L 19.2692,-882.369 L 18.9842,-882.101 L 18.668,-881.872
 L 18.3254,-881.683 L 17.9619,-881.539 L 17.5833,-881.442 L 17.1954,-881.393 z
M 18.4369,-720.089 L 19.0451,-720.245 L 19.6289,-720.476 L 20.1791,-720.778 L 20.6871,-721.147 L 21.1448,-721.577
 L 21.5451,-722.061 L 21.8815,-722.591 L 22.1489,-723.159 L 22.3429,-723.757 L 22.4606,-724.373 L 22.5,-725
 L 22.5,-865 L 22.4606,-865.627 L 22.3429,-866.243 L 22.1489,-866.841 L 21.8815,-867.409 L 21.5451,-867.939
 L 21.1448,-868.423 L 20.6871,-868.853 L 20.1791,-869.222 L 19.6289,-869.524 L 19.0451,-869.755 L 18.4369,-869.911
 L 17.8139,-869.99 L -17.8139,-869.99 L -18.4369,-869.911 L -19.0451,-869.755 L -19.6289,-869.524 L -20.1791,-869.222
 L -20.6871,-868.853 L -21.1448,-868.423 L -21.5451,-867.939 L -21.8815,-867.409 L -22.1489,-866.841 L -22.3429,-866.243
 L -22.4606,-865.627 L -22.5,-865 L -22.5,-725 L -22.4606,-724.373 L -22.3429,-723.757 L -22.1489,-723.159
 L -21.8815,-722.591 L -21.5451,-722.061 L -21.1448,-721.577 L -20.6871,-721.147 L -20.1791,-720.778 L -19.6289,-720.476
 L -19.0451,-720.245 L -18.4369,-720.089 L -17.8139,-720.01 L 17.8139,-720.01 z
M 14.8659,-860.369 L 14.5999,-860.403 L 14.3401,-860.469 L 14.0908,-860.568 L 13.8559,-860.697 L 13.6389,-860.855
 L 13.4434,-861.038 L 13.2725,-861.245 L 13.1288,-861.471 L 13.0146,-861.714 L 12.9318,-861.969 L 12.8815,-862.232
 L 12.8647,-862.5 L 12.8815,-862.768 L 12.9318,-863.031 L 13.0146,-863.286 L 13.1288,-863.529 L 13.2725,-863.755
 L 13.4434,-863.962 L 13.6389,-864.145 L 13.8559,-864.303 L 14.0908,-864.432 L 14.3401,-864.531 L 14.5999,-864.597
 L 14.8659,-864.631 L 15.1341,-864.631 L 15.4001,-864.597 L 15.6598,-864.531 L 15.9091,-864.432 L 16.1441,-864.303
 L 16.3611,-864.145 L 16.5565,-863.962 L 16.7275,-863.755 L 16.8712,-863.529 L 16.9853,-863.286 L 17.0682,-863.031
 L 17.1185,-862.768 L 17.1353,-862.5 L 17.1185,-862.232 L 17.0682,-861.969 L 16.9853,-861.714 L 16.8712,-861.471
 L 16.7275,-861.245 L 16.5565,-861.038 L 16.3611,-860.855 L 16.1441,-860.697 L 15.9091,-860.568 L 15.6598,-860.469
 L 15.4001,-860.403 L 15.1341,-860.369 z
M -15.1341,-860.369 L -15.4001,-860.403 L -15.6598,-860.469 L -15.9091,-860.568 L -16.1441,-860.697 L -16.3611,-860.855
 L -16.5565,-861.038 L -16.7275,-861.245 L -16.8712,-861.471 L -16.9853,-861.714 L -17.0682,-861.969 L -17.1185,-862.232
 L -17.1353,-862.5 L -17.1185,-862.768 L -17.0682,-863.031 L -16.9853,-863.286 L -16.8712,-863.529 L -16.7275,-863.755
 L -16.5565,-863.962 L -16.3611,-864.145 L -16.1441,-864.303 L -15.9091,-864.432 L -15.6598,-864.531 L -15.4001,-864.597
 L -15.1341,-864.631 L -14.8659,-864.631 L -14.5999,-864.597 L -14.3401,-864.531 L -14.0908,-864.432 L -13.8559,-864.303
 L -13.6389,-864.145 L -13.4434,-863.962 L -13.2725,-863.755 L -13.1288,-863.529 L -13.0146,-863.286 L -12.9318,-863.031
 L -12.8815,-862.768 L -12.8647,-862.5 L -12.8815,-862.232 L -12.9318,-861.969 L -13.0146,-861.714 L -13.1288,-861.471
 L -13.2725,-861.245 L -13.4434,-861.038 L -13.6389,-860.855 L -13.8559,-860.697 L -14.0908,-860.568 L -14.3401,-860.469
 L -14.5999,-860.403 L -14.8659,-860.369 z
M 14.8659,-725.369 L 14.5999,-725.403 L 14.3401,-725.469 L 14.0908,-725.568 L 13.8559,-725.697 L 13.6389,-725.855
 L 13.4434,-726.038 L 13.2725,-726.245 L 13.1288,-726.471 L 13.0146,-726.714 L 12.9318,-726.969 L 12.8815,-727.232
 L 12.8647,-727.5 L 12.8815,-727.768 L 12.9318,-728.031 L 13.0146,-728.286 L 13.1288,-728.529 L 13.2725,-728.755
 L 13.4434,-728.962 L 13.6389,-729.145 L 13.8559,-729.303 L 14.0908,-729.432 L 14.3401,-729.531 L 14.5999,-729.597
 L 14.8659,-729.631 L 15.1341,-729.631 L 15.4001,-729.597 L 15.6598,-729.531 L 15.9091,-729.432 L 16.1441,-729.303
 L 16.3611,-729.145 L 16.5565,-728.962 L 16.7275,-728.755 L 16.8712,-728.529 L 16.9853,-728.286 L 17.0682,-728.031
 L 17.1185,-727.768 L 17.1353,-727.5 L 17.1185,-727.232 L 17.0682,-726.969 L 16.9853,-726.714 L 16.8712,-726.471
 L 16.7275,-726.245 L 16.5565,-726.038 L 16.3611,-725.855 L 16.1441,-725.697 L 15.9091,-725.568 L 15.6598,-725.469
 L 15.4001,-725.403 L 15.1341,-725.369 z
M -15.1341,-725.369 L -15.4001,-725.403 L -15.6598,-725.469 L -15.9091,-725.568 L -16.1441,-725.697 L -16.3611,-725.855
 L -16.5565,-726.038 L -16.7275,-726.245 L -16.8712,-726.471 L -16.9853,-726.714 L -17.0682,-726.969 L -17.1185,-727.232
 L -17.1353,-727.5 L -17.1185,-727.768 L -17.0682,-728.031 L -16.9853,-728.286 L -16.8712,-728.529 L -16.7275,-728.755
 L -16.5565,-728.962 L -16.3611,-729.145 L -16.1441,-729.303 L -15.9091,-729.432 L -15.6598,-729.531 L -15.4001,-729.597
 L -15.1341,-729.631 L -14.8659,-729.631 L -14.5999,-729.597 L -14.3401,-729.531 L -14.0908,-729.432 L -13.8559,-729.303
 L -13.6389,-729.145 L -13.4434,-728.962 L -13.2725,-728.755 L -13.1288,-728.529 L -13.0146,-728.286 L -12.9318,-728.031
 L -12.8815,-727.768 L -12.8647,-727.5 L -12.8815,-727.232 L -12.9318,-726.969 L -13.0146,-726.714 L -13.1288,-726.471
 L -13.2725,-726.245 L -13.4434,-726.038 L -13.6389,-725.855 L -13.8559,-725.697 L -14.0908,-725.568 L -14.3401,-725.469
 L -14.5999,-725.403 L -14.8659,-725.369 z
" stroke="black" fill="lightgray" stroke-width="0.5"/>
</svg>
