  0
SECTION
  2
BLOCKS
  0
ENDSEC
  0
SECTION
  2
ENTITIES
  0
LINE
  8
0
 10
-81
 20
89.9413
 11
-80.6871
 21
89.6474
  0
LINE
  8
0
 10
-80.6871
 20
89.6474
 11
-80.1791
 21
89.2784
  0
LINE
  8
0
 10
-80.1791
 20
89.2784
 11
-79.6289
 21
88.9759
  0
LINE
  8
0
 10
-79.6289
 20
88.9759
 11
-79.0451
 21
88.7447
  0
LINE
  8
0
 10
-79.0451
 20
88.7447
 11
-78.4369
 21
88.5886
  0
LINE
  8
0
 10
-78.4369
 20
88.5886
 11
-77.8139
 21
88.5099
  0
LINE
  8
0
 10
-77.8139
 20
88.5099
 11
77.8139
 21
88.5099
  0
LINE
  8
0
 10
77.8139
 20
88.5099
 11
78.4369
 21
88.5886
  0
LINE
  8
0
 10
78.4369
 20
88.5886
 11
79.0451
 21
88.7447
  0
LINE
  8
0
 10
79.0451
 20
88.7447
 11
79.6289
 21
88.9759
  0
LINE
  8
0
 10
79.6289
 20
88.9759
 11
80.1791
 21
89.2784
  0
LINE
  8
0
 10
80.1791
 20
89.2784
 11
80.6871
 21
89.6474
  0
LINE
  8
0
 10
80.6871
 20
89.6474
 11
81.1448
 21
90.0773
  0
LINE
  8
0
 10
81.1448
 20
90.0773
 11
81.5451
 21
90.5611
  0
LINE
  8
0
 10
81.5451
 20
90.5611
 11
81.8815
 21
91.0912
  0
LINE
  8
0
 10
81.8815
 20
91.0912
 11
82.1489
 21
91.6594
  0
LINE
  8
0
 10
82.1489
 20
91.6594
 11
82.3429
 21
92.2566
  0
LINE
  8
0
 10
82.3429
 20
92.2566
 11
82.4606
 21
92.8733
  0
LINE
  8
0
 10
82.4606
 20
92.8733
 11
82.5
 21
93.5
  0
LINE
  8
0
 10
82.5
 20
93.5
 11
82.5
 21
98.5
  0
LINE
  8
0
 10
82.5
 20
98.5
 11
82.4606
 21
99.1267
  0
LINE
  8
0
 10
82.4606
 20
99.1267
 11
82.3429
 21
99.7434
  0
LINE
  8
0
 10
82.3429
 20
99.7434
 11
82.1489
 21
100.341
  0
LINE
  8
0
 10
82.1489
 20
100.341
 11
81.8815
 21
100.909
  0
LINE
  8
0
 10
81.8815
 20
100.909
 11
81.5451
 21
101.439
  0
LINE
  8
0
 10
81.5451
 20
101.439
 11
81.1448
 21
101.923
  0
LINE
  8
0
 10
81.1448
 20
101.923
 11
80.6871
 21
102.353
  0
LINE
  8
0
 10
80.6871
 20
102.353
 11
80.1791
 21
102.722
  0
LINE
  8
0
 10
80.1791
 20
102.722
 11
79.6289
 21
103.024
  0
LINE
  8
0
 10
79.6289
 20
103.024
 11
79.0451
 21
103.255
  0
LINE
  8
0
 10
79.0451
 20
103.255
 11
78.4369
 21
103.411
  0
LINE
  8
0
 10
78.4369
 20
103.411
 11
77.8139
 21
103.49
  0
LINE
  8
0
 10
77.8139
 20
103.49
 11
-77.8139
 21
103.49
  0
LINE
  8
0
 10
-77.8139
 20
103.49
 11
-78.4369
 21
103.411
  0
LINE
  8
0
 10
-78.4369
 20
103.411
 11
-79.0451
 21
103.255
  0
LINE
  8
0
 10
-79.0451
 20
103.255
 11
-79.6289
 21
103.024
  0
LINE
  8
0
 10
-79.6289
 20
103.024
 11
-80.1791
 21
102.722
  0
LINE
  8
0
 10
-80.1791
 20
102.722
 11
-80.6871
 21
102.353
  0
LINE
  8
0
 10
-80.6871
 20
102.353
 11
-81
 21
102.059
  0
LINE
  8
0
 10
-81
 20
102.059
 11
-81
 21
103.49
  0
LINE
  8
0
 10
-81
 20
103.49
 11
-84
 21
103.49
  0
LINE
  8
0
 10
-84
 20
103.49
 11
-84
 21
88.5099
  0
LINE
  8
0
 10
-84
 20
88.5099
 11
-81
 21
88.5099
  0
LINE
  8
0
 10
-81
 20
88.5099
 11
-81
 21
89.9413
  0
LINE
  8
0
 10
-77.2432
 20
90.135
 11
-77.7256
 21
90.196
  0
LINE
  8
0
 10
-77.7256
 20
90.196
 11
-78.1967
 21
90.3169
  0
LINE
  8
0
 10
-78.1967
 20
90.3169
 11
-78.6489
 21
90.4959
  0
LINE
  8
0
 10
-78.6489
 20
90.4959
 11
-79.0751
 21
90.7302
  0
LINE
  8
0
 10
-79.0751
 20
90.7302
 11
-79.4685
 21
91.0161
  0
LINE
  8
0
 10
-79.4685
 20
91.0161
 11
-79.823
 21
91.349
  0
LINE
  8
0
 10
-79.823
 20
91.349
 11
-80.133
 21
91.7237
  0
LINE
  8
0
 10
-80.133
 20
91.7237
 11
-80.3936
 21
92.1344
  0
LINE
  8
0
 10
-80.3936
 20
92.1344
 11
-80.6007
 21
92.5744
  0
LINE
  8
0
 10
-80.6007
 20
92.5744
 11
-80.751
 21
93.0369
  0
LINE
  8
0
 10
-80.751
 20
93.0369
 11
-80.8421
 21
93.5146
  0
LINE
  8
0
 10
-80.8421
 20
93.5146
 11
-80.8726
 21
94
  0
LINE
  8
0
 10
-80.8726
 20
94
 11
-80.8726
 21
98
  0
LINE
  8
0
 10
-80.8726
 20
98
 11
-80.8421
 21
98.4854
  0
LINE
  8
0
 10
-80.8421
 20
98.4854
 11
-80.751
 21
98.9631
  0
LINE
  8
0
 10
-80.751
 20
98.9631
 11
-80.6007
 21
99.4256
  0
LINE
  8
0
 10
-80.6007
 20
99.4256
 11
-80.3936
 21
99.8656
  0
LINE
  8
0
 10
-80.3936
 20
99.8656
 11
-80.133
 21
100.276
  0
LINE
  8
0
 10
-80.133
 20
100.276
 11
-79.823
 21
100.651
  0
LINE
  8
0
 10
-79.823
 20
100.651
 11
-79.4685
 21
100.984
  0
LINE
  8
0
 10
-79.4685
 20
100.984
 11
-79.0751
 21
101.27
  0
LINE
  8
0
 10
-79.0751
 20
101.27
 11
-78.6489
 21
101.504
  0
LINE
  8
0
 10
-78.6489
 20
101.504
 11
-78.1967
 21
101.683
  0
LINE
  8
0
 10
-78.1967
 20
101.683
 11
-77.7256
 21
101.804
  0
LINE
  8
0
 10
-77.7256
 20
101.804
 11
-77.2432
 21
101.865
  0
LINE
  8
0
 10
-77.2432
 20
101.865
 11
77.2432
 21
101.865
  0
LINE
  8
0
 10
77.2432
 20
101.865
 11
77.7256
 21
101.804
  0
LINE
  8
0
 10
77.7256
 20
101.804
 11
78.1967
 21
101.683
  0
LINE
  8
0
 10
78.1967
 20
101.683
 11
78.6489
 21
101.504
  0
LINE
  8
0
 10
78.6489
 20
101.504
 11
79.0751
 21
101.27
  0
LINE
  8
0
 10
79.0751
 20
101.27
 11
79.4685
 21
100.984
  0
LINE
  8
0
 10
79.4685
 20
100.984
 11
79.823
 21
100.651
  0
LINE
  8
0
 10
79.823
 20
100.651
 11
80.133
 21
100.276
  0
LINE
  8
0
 10
80.133
 20
100.276
 11
80.3936
 21
99.8656
  0
LINE
  8
0
 10
80.3936
 20
99.8656
 11
80.6007
 21
99.4256
  0
LINE
  8
0
 10
80.6007
 20
99.4256
 11
80.751
 21
98.9631
  0
LINE
  8
0
 10
80.751
 20
98.9631
 11
80.8421
 21
98.4854
  0
LINE
  8
0
 10
80.8421
 20
98.4854
 11
80.8726
 21
98
  0
LINE
  8
0
 10
80.8726
 20
98
 11
80.8726
 21
94
  0
LINE
  8
0
 10
80.8726
 20
94
 11
80.8421
 21
93.5146
  0
LINE
  8
0
 10
80.8421
 20
93.5146
 11
80.751
 21
93.0369
  0
LINE
  8
0
 10
80.751
 20
93.0369
 11
80.6007
 21
92.5744
  0
LINE
  8
0
 10
80.6007
 20
92.5744
 11
80.3936
 21
92.1344
  0
LINE
  8
0
 10
80.3936
 20
92.1344
 11
80.133
 21
91.7237
  0
LINE
  8
0
 10
80.133
 20
91.7237
 11
79.823
 21
91.349
  0
LINE
  8
0
 10
79.823
 20
91.349
 11
79.4685
 21
91.0161
  0
LINE
  8
0
 10
79.4685
 20
91.0161
 11
79.0751
 21
90.7302
  0
LINE
  8
0
 10
79.0751
 20
90.7302
 11
78.6489
 21
90.4959
  0
LINE
  8
0
 10
78.6489
 20
90.4959
 11
78.1967
 21
90.3169
  0
LINE
  8
0
 10
78.1967
 20
90.3169
 11
77.7256
 21
90.196
  0
LINE
  8
0
 10
77.7256
 20
90.196
 11
77.2432
 21
90.135
  0
LINE
  8
0
 10
77.2432
 20
90.135
 11
-77.2432
 21
90.135
  0
LINE
  8
0
 10
78.4369
 20
64.5886
 11
79.0451
 21
64.7447
  0
LINE
  8
0
 10
79.0451
 20
64.7447
 11
79.6289
 21
64.9759
  0
LINE
  8
0
 10
79.6289
 20
64.9759
 11
80.1791
 21
65.2784
  0
LINE
  8
0
 10
80.1791
 20
65.2784
 11
80.6871
 21
65.6474
  0
LINE
  8
0
 10
80.6871
 20
65.6474
 11
81.1448
 21
66.0773
  0
LINE
  8
0
 10
81.1448
 20
66.0773
 11
81.5451
 21
66.5611
  0
LINE
  8
0
 10
81.5451
 20
66.5611
 11
81.8815
 21
67.0912
  0
LINE
  8
0
 10
81.8815
 20
67.0912
 11
82.1489
 21
67.6594
  0
LINE
  8
0
 10
82.1489
 20
67.6594
 11
82.3429
 21
68.2566
  0
LINE
  8
0
 10
82.3429
 20
68.2566
 11
82.4606
 21
68.8733
  0
LINE
  8
0
 10
82.4606
 20
68.8733
 11
82.5
 21
69.5
  0
LINE
  8
0
 10
82.5
 20
69.5
 11
82.5
 21
74.5
  0
LINE
  8
0
 10
82.5
 20
74.5
 11
82.4606
 21
75.1267
  0
LINE
  8
0
 10
82.4606
 20
75.1267
 11
82.3429
 21
75.7434
  0
LINE
  8
0
 10
82.3429
 20
75.7434
 11
82.1489
 21
76.3406
  0
LINE
  8
0
 10
82.1489
 20
76.3406
 11
81.8815
 21
76.9088
  0
LINE
  8
0
 10
81.8815
 20
76.9088
 11
81.5451
 21
77.4389
  0
LINE
  8
0
 10
81.5451
 20
77.4389
 11
81.1448
 21
77.9227
  0
LINE
  8
0
 10
81.1448
 20
77.9227
 11
80.6871
 21
78.3526
  0
LINE
  8
0
 10
80.6871
 20
78.3526
 11
80.1791
 21
78.7216
  0
LINE
  8
0
 10
80.1791
 20
78.7216
 11
79.6289
 21
79.0241
  0
LINE
  8
0
 10
79.6289
 20
79.0241
 11
79.0451
 21
79.2553
  0
LINE
  8
0
 10
79.0451
 20
79.2553
 11
78.4369
 21
79.4114
  0
LINE
  8
0
 10
78.4369
 20
79.4114
 11
77.8139
 21
79.4901
  0
LINE
  8
0
 10
77.8139
 20
79.4901
 11
-77.8139
 21
79.4901
  0
LINE
  8
0
 10
-77.8139
 20
79.4901
 11
-78.4369
 21
79.4114
  0
LINE
  8
0
 10
-78.4369
 20
79.4114
 11
-79.0451
 21
79.2553
  0
LINE
  8
0
 10
-79.0451
 20
79.2553
 11
-79.6289
 21
79.0241
  0
LINE
  8
0
 10
-79.6289
 20
79.0241
 11
-80.1791
 21
78.7216
  0
LINE
  8
0
 10
-80.1791
 20
78.7216
 11
-80.6871
 21
78.3526
  0
LINE
  8
0
 10
-80.6871
 20
78.3526
 11
-81
 21
78.0587
  0
LINE
  8
0
 10
-81
 20
78.0587
 11
-81
 21
79.1148
  0
LINE
  8
0
 10
-81
 20
79.1148
 11
-84
 21
79.1148
  0
LINE
  8
0
 10
-84
 20
79.1148
 11
-84
 21
64.8852
  0
LINE
  8
0
 10
-84
 20
64.8852
 11
-81
 21
64.8852
  0
LINE
  8
0
 10
-81
 20
64.8852
 11
-81
 21
65.9413
  0
LINE
  8
0
 10
-81
 20
65.9413
 11
-80.6871
 21
65.6474
  0
LINE
  8
0
 10
-80.6871
 20
65.6474
 11
-80.1791
 21
65.2784
  0
LINE
  8
0
 10
-80.1791
 20
65.2784
 11
-79.6289
 21
64.9759
  0
LINE
  8
0
 10
-79.6289
 20
64.9759
 11
-79.0451
 21
64.7447
  0
LINE
  8
0
 10
-79.0451
 20
64.7447
 11
-78.4369
 21
64.5886
  0
LINE
  8
0
 10
-78.4369
 20
64.5886
 11
-77.8139
 21
64.5099
  0
LINE
  8
0
 10
-77.8139
 20
64.5099
 11
77.8139
 21
64.5099
  0
LINE
  8
0
 10
77.8139
 20
64.5099
 11
78.4369
 21
64.5886
  0
LINE
  8
0
 10
78.4369
 20
40.5886
 11
79.0451
 21
40.7447
  0
LINE
  8
0
 10
79.0451
 20
40.7447
 11
79.6289
 21
40.9759
  0
LINE
  8
0
 10
79.6289
 20
40.9759
 11
80.1791
 21
41.2784
  0
LINE
  8
0
 10
80.1791
 20
41.2784
 11
80.6871
 21
41.6474
  0
LINE
  8
0
 10
80.6871
 20
41.6474
 11
81.1448
 21
42.0773
  0
LINE
  8
0
 10
81.1448
 20
42.0773
 11
81.5451
 21
42.5611
  0
LINE
  8
0
 10
81.5451
 20
42.5611
 11
81.8815
 21
43.0912
  0
LINE
  8
0
 10
81.8815
 20
43.0912
 11
82.1489
 21
43.6594
  0
LINE
  8
0
 10
82.1489
 20
43.6594
 11
82.3429
 21
44.2566
  0
LINE
  8
0
 10
82.3429
 20
44.2566
 11
82.4606
 21
44.8733
  0
LINE
  8
0
 10
82.4606
 20
44.8733
 11
82.5
 21
45.5
  0
LINE
  8
0
 10
82.5
 20
45.5
 11
82.5
 21
50.5
  0
LINE
  8
0
 10
82.5
 20
50.5
 11
82.4606
 21
51.1267
  0
LINE
  8
0
 10
82.4606
 20
51.1267
 11
82.3429
 21
51.7434
  0
LINE
  8
0
 10
82.3429
 20
51.7434
 11
82.1489
 21
52.3406
  0
LINE
  8
0
 10
82.1489
 20
52.3406
 11
81.8815
 21
52.9088
  0
LINE
  8
0
 10
81.8815
 20
52.9088
 11
81.5451
 21
53.4389
  0
LINE
  8
0
 10
81.5451
 20
53.4389
 11
81.1448
 21
53.9227
  0
LINE
  8
0
 10
81.1448
 20
53.9227
 11
80.6871
 21
54.3526
  0
LINE
  8
0
 10
80.6871
 20
54.3526
 11
80.1791
 21
54.7216
  0
LINE
  8
0
 10
80.1791
 20
54.7216
 11
79.6289
 21
55.0241
  0
LINE
  8
0
 10
79.6289
 20
55.0241
 11
79.0451
 21
55.2553
  0
LINE
  8
0
 10
79.0451
 20
55.2553
 11
78.4369
 21
55.4114
  0
LINE
  8
0
 10
78.4369
 20
55.4114
 11
77.8139
 21
55.4901
  0
LINE
  8
0
 10
77.8139
 20
55.4901
 11
-77.8139
 21
55.4901
  0
LINE
  8
0
 10
-77.8139
 20
55.4901
 11
-78.4369
 21
55.4114
  0
LINE
  8
0
 10
-78.4369
 20
55.4114
 11
-79.0451
 21
55.2553
  0
LINE
  8
0
 10
-79.0451
 20
55.2553
 11
-79.6289
 21
55.0241
  0
LINE
  8
0
 10
-79.6289
 20
55.0241
 11
-80.1791
 21
54.7216
  0
LINE
  8
0
 10
-80.1791
 20
54.7216
 11
-80.6871
 21
54.3526
  0
LINE
  8
0
 10
-80.6871
 20
54.3526
 11
-81.1448
 21
53.9227
  0
LINE
  8
0
 10
-81.1448
 20
53.9227
 11
-81.5451
 21
53.4389
  0
LINE
  8
0
 10
-81.5451
 20
53.4389
 11
-81.8815
 21
52.9088
  0
LINE
  8
0
 10
-81.8815
 20
52.9088
 11
-82.1489
 21
52.3406
  0
LINE
  8
0
 10
-82.1489
 20
52.3406
 11
-82.3429
 21
51.7434
  0
LINE
  8
0
 10
-82.3429
 20
51.7434
 11
-82.4
 21
51.4442
  0
LINE
  8
0
 10
-82.4
 20
51.4442
 11
-84
 21
51.4442
  0
LINE
  8
0
 10
-84
 20
51.4442
 11
-84
 21
44.5558
  0
LINE
  8
0
 10
-84
 20
44.5558
 11
-82.4
 21
44.5558
  0
LINE
  8
0
 10
-82.4
 20
44.5558
 11
-82.3429
 21
44.2566
  0
LINE
  8
0
 10
-82.3429
 20
44.2566
 11
-82.1489
 21
43.6594
  0
LINE
  8
0
 10
-82.1489
 20
43.6594
 11
-81.8815
 21
43.0912
  0
LINE
  8
0
 10
-81.8815
 20
43.0912
 11
-81.5451
 21
42.5611
  0
LINE
  8
0
 10
-81.5451
 20
42.5611
 11
-81.1448
 21
42.0773
  0
LINE
  8
0
 10
-81.1448
 20
42.0773
 11
-80.6871
 21
41.6474
  0
LINE
  8
0
 10
-80.6871
 20
41.6474
 11
-80.1791
 21
41.2784
  0
LINE
  8
0
 10
-80.1791
 20
41.2784
 11
-79.6289
 21
40.9759
  0
LINE
  8
0
 10
-79.6289
 20
40.9759
 11
-79.0451
 21
40.7447
  0
LINE
  8
0
 10
-79.0451
 20
40.7447
 11
-78.4369
 21
40.5886
  0
LINE
  8
0
 10
-78.4369
 20
40.5886
 11
-77.8139
 21
40.5099
  0
LINE
  8
0
 10
-77.8139
 20
40.5099
 11
77.8139
 21
40.5099
  0
LINE
  8
0
 10
77.8139
 20
40.5099
 11
78.4369
 21
40.5886
  0
LINE
  8
0
 10
-75.113
 20
46.2036
 11
-75.3373
 21
46.2319
  0
LINE
  8
0
 10
-75.3373
 20
46.2319
 11
-75.5562
 21
46.2881
  0
LINE
  8
0
 10
-75.5562
 20
46.2881
 11
-75.7664
 21
46.3713
  0
LINE
  8
0
 10
-75.7664
 20
46.3713
 11
-75.9645
 21
46.4802
  0
LINE
  8
0
 10
-75.9645
 20
46.4802
 11
-76.1474
 21
46.6131
  0
LINE
  8
0
 10
-76.1474
 20
46.6131
 11
-76.3121
 21
46.7678
  0
LINE
  8
0
 10
-76.3121
 20
46.7678
 11
-76.4562
 21
46.942
  0
LINE
  8
0
 10
-76.4562
 20
46.942
 11
-76.5773
 21
47.1329
  0
LINE
  8
0
 10
-76.5773
 20
47.1329
 11
-76.6736
 21
47.3374
  0
LINE
  8
0
 10
-76.6736
 20
47.3374
 11
-76.7434
 21
47.5524
  0
LINE
  8
0
 10
-76.7434
 20
47.5524
 11
-76.7858
 21
47.7744
  0
LINE
  8
0
 10
-76.7858
 20
47.7744
 11
-76.8
 21
48
  0
LINE
  8
0
 10
-76.8
 20
48
 11
-76.7858
 21
48.2256
  0
LINE
  8
0
 10
-76.7858
 20
48.2256
 11
-76.7434
 21
48.4476
  0
LINE
  8
0
 10
-76.7434
 20
48.4476
 11
-76.6736
 21
48.6626
  0
LINE
  8
0
 10
-76.6736
 20
48.6626
 11
-76.5773
 21
48.8671
  0
LINE
  8
0
 10
-76.5773
 20
48.8671
 11
-76.4562
 21
49.058
  0
LINE
  8
0
 10
-76.4562
 20
49.058
 11
-76.3121
 21
49.2322
  0
LINE
  8
0
 10
-76.3121
 20
49.2322
 11
-76.1474
 21
49.3869
  0
LINE
  8
0
 10
-76.1474
 20
49.3869
 11
-75.9645
 21
49.5198
  0
LINE
  8
0
 10
-75.9645
 20
49.5198
 11
-75.7664
 21
49.6287
  0
LINE
  8
0
 10
-75.7664
 20
49.6287
 11
-75.5562
 21
49.7119
  0
LINE
  8
0
 10
-75.5562
 20
49.7119
 11
-75.3373
 21
49.7681
  0
LINE
  8
0
 10
-75.3373
 20
49.7681
 11
-75.113
 21
49.7964
  0
LINE
  8
0
 10
-75.113
 20
49.7964
 11
-74.887
 21
49.7964
  0
LINE
  8
0
 10
-74.887
 20
49.7964
 11
-74.6627
 21
49.7681
  0
LINE
  8
0
 10
-74.6627
 20
49.7681
 11
-74.4438
 21
49.7119
  0
LINE
  8
0
 10
-74.4438
 20
49.7119
 11
-74.2336
 21
49.6287
  0
LINE
  8
0
 10
-74.2336
 20
49.6287
 11
-74.0355
 21
49.5198
  0
LINE
  8
0
 10
-74.0355
 20
49.5198
 11
-73.8526
 21
49.3869
  0
LINE
  8
0
 10
-73.8526
 20
49.3869
 11
-73.6879
 21
49.2322
  0
LINE
  8
0
 10
-73.6879
 20
49.2322
 11
-73.5438
 21
49.058
  0
LINE
  8
0
 10
-73.5438
 20
49.058
 11
-73.4226
 21
48.8671
  0
LINE
  8
0
 10
-73.4226
 20
48.8671
 11
-73.3264
 21
48.6626
  0
LINE
  8
0
 10
-73.3264
 20
48.6626
 11
-73.2565
 21
48.4476
  0
LINE
  8
0
 10
-73.2565
 20
48.4476
 11
-73.2142
 21
48.2256
  0
LINE
  8
0
 10
-73.2142
 20
48.2256
 11
-73.2
 21
48
  0
LINE
  8
0
 10
-73.2
 20
48
 11
-73.2142
 21
47.7744
  0
LINE
  8
0
 10
-73.2142
 20
47.7744
 11
-73.2565
 21
47.5524
  0
LINE
  8
0
 10
-73.2565
 20
47.5524
 11
-73.3264
 21
47.3374
  0
LINE
  8
0
 10
-73.3264
 20
47.3374
 11
-73.4226
 21
47.1329
  0
LINE
  8
0
 10
-73.4226
 20
47.1329
 11
-73.5438
 21
46.942
  0
LINE
  8
0
 10
-73.5438
 20
46.942
 11
-73.6879
 21
46.7678
  0
LINE
  8
0
 10
-73.6879
 20
46.7678
 11
-73.8526
 21
46.6131
  0
LINE
  8
0
 10
-73.8526
 20
46.6131
 11
-74.0355
 21
46.4802
  0
LINE
  8
0
 10
-74.0355
 20
46.4802
 11
-74.2336
 21
46.3713
  0
LINE
  8
0
 10
-74.2336
 20
46.3713
 11
-74.4438
 21
46.2881
  0
LINE
  8
0
 10
-74.4438
 20
46.2881
 11
-74.6627
 21
46.2319
  0
LINE
  8
0
 10
-74.6627
 20
46.2319
 11
-74.887
 21
46.2036
  0
LINE
  8
0
 10
-74.887
 20
46.2036
 11
-75.113
 21
46.2036
  0
LINE
  8
0
 10
74.887
 20
46.2036
 11
74.6627
 21
46.2319
  0
LINE
  8
0
 10
74.6627
 20
46.2319
 11
74.4438
 21
46.2881
  0
LINE
  8
0
 10
74.4438
 20
46.2881
 11
74.2336
 21
46.3713
  0
LINE
  8
0
 10
74.2336
 20
46.3713
 11
74.0355
 21
46.4802
  0
LINE
  8
0
 10
74.0355
 20
46.4802
 11
73.8526
 21
46.6131
  0
LINE
  8
0
 10
73.8526
 20
46.6131
 11
73.6879
 21
46.7678
  0
LINE
  8
0
 10
73.6879
 20
46.7678
 11
73.5438
 21
46.942
  0
LINE
  8
0
 10
73.5438
 20
46.942
 11
73.4226
 21
47.1329
  0
LINE
  8
0
 10
73.4226
 20
47.1329
 11
73.3264
 21
47.3374
  0
LINE
  8
0
 10
73.3264
 20
47.3374
 11
73.2565
 21
47.5524
  0
LINE
  8
0
 10
73.2565
 20
47.5524
 11
73.2142
 21
47.7744
  0
LINE
  8
0
 10
73.2142
 20
47.7744
 11
73.2
 21
48
  0
LINE
  8
0
 10
73.2
 20
48
 11
73.2142
 21
48.2256
  0
LINE
  8
0
 10
73.2142
 20
48.2256
 11
73.2565
 21
48.4476
  0
LINE
  8
0
 10
73.2565
 20
48.4476
 11
73.3264
 21
48.6626
  0
LINE
  8
0
 10
73.3264
 20
48.6626
 11
73.4226
 21
48.8671
  0
LINE
  8
0
 10
73.4226
 20
48.8671
 11
73.5438
 21
49.058
  0
LINE
  8
0
 10
73.5438
 20
49.058
 11
73.6879
 21
49.2322
  0
LINE
  8
0
 10
73.6879
 20
49.2322
 11
73.8526
 21
49.3869
  0
LINE
  8
0
 10
73.8526
 20
49.3869
 11
74.0355
 21
49.5198
  0
LINE
  8
0
 10
74.0355
 20
49.5198
 11
74.2336
 21
49.6287
  0
LINE
  8
0
 10
74.2336
 20
49.6287
 11
74.4438
 21
49.7119
  0
LINE
  8
0
 10
74.4438
 20
49.7119
 11
74.6627
 21
49.7681
  0
LINE
  8
0
 10
74.6627
 20
49.7681
 11
74.887
 21
49.7964
  0
LINE
  8
0
 10
74.887
 20
49.7964
 11
75.113
 21
49.7964
  0
LINE
  8
0
 10
75.113
 20
49.7964
 11
75.3373
 21
49.7681
  0
LINE
  8
0
 10
75.3373
 20
49.7681
 11
75.5562
 21
49.7119
  0
LINE
  8
0
 10
75.5562
 20
49.7119
 11
75.7664
 21
49.6287
  0
LINE
  8
0
 10
75.7664
 20
49.6287
 11
75.9645
 21
49.5198
  0
LINE
  8
0
 10
75.9645
 20
49.5198
 11
76.1474
 21
49.3869
  0
LINE
  8
0
 10
76.1474
 20
49.3869
 11
76.3121
 21
49.2322
  0
LINE
  8
0
 10
76.3121
 20
49.2322
 11
76.4562
 21
49.058
  0
LINE
  8
0
 10
76.4562
 20
49.058
 11
76.5773
 21
48.8671
  0
LINE
  8
0
 10
76.5773
 20
48.8671
 11
76.6736
 21
48.6626
  0
LINE
  8
0
 10
76.6736
 20
48.6626
 11
76.7434
 21
48.4476
  0
LINE
  8
0
 10
76.7434
 20
48.4476
 11
76.7858
 21
48.2256
  0
LINE
  8
0
 10
76.7858
 20
48.2256
 11
76.8
 21
48
  0
LINE
  8
0
 10
76.8
 20
48
 11
76.7858
 21
47.7744
  0
LINE
  8
0
 10
76.7858
 20
47.7744
 11
76.7434
 21
47.5524
  0
LINE
  8
0
 10
76.7434
 20
47.5524
 11
76.6736
 21
47.3374
  0
LINE
  8
0
 10
76.6736
 20
47.3374
 11
76.5773
 21
47.1329
  0
LINE
  8
0
 10
76.5773
 20
47.1329
 11
76.4562
 21
46.942
  0
LINE
  8
0
 10
76.4562
 20
46.942
 11
76.3121
 21
46.7678
  0
LINE
  8
0
 10
76.3121
 20
46.7678
 11
76.1474
 21
46.6131
  0
LINE
  8
0
 10
76.1474
 20
46.6131
 11
75.9645
 21
46.4802
  0
LINE
  8
0
 10
75.9645
 20
46.4802
 11
75.7664
 21
46.3713
  0
LINE
  8
0
 10
75.7664
 20
46.3713
 11
75.5562
 21
46.2881
  0
LINE
  8
0
 10
75.5562
 20
46.2881
 11
75.3373
 21
46.2319
  0
LINE
  8
0
 10
75.3373
 20
46.2319
 11
75.113
 21
46.2036
  0
LINE
  8
0
 10
75.113
 20
46.2036
 11
74.887
 21
46.2036
  0
ENDSEC
  0
SECTION
  2
OBJECTS
  0
DICTIONARY
  0
ENDSEC
  0
EOF
