<?xml version="1.0" standalone="no"?>
<!DOCTYPE svg PUBLIC "-//W3C//DTD SVG 1.1//EN" "http://www.w3.org/Graphics/SVG/1.1/DTD/svg11.dtd">
<svg width="107mm" height="154mm" viewBox="-54 -293 107 154" xmlns="http://www.w3.org/2000/svg" version="1.1">
<title>OpenSCAD Model</title>
<path d="
M -51,-248.941 L -50.6871,-248.647 L -50.1791,-248.278 L -49.6289,-247.976 L -49.0451,-247.745 L -48.4369,-247.589
 L -47.8139,-247.51 L 47.8139,-247.51 L 48.4369,-247.589 L 49.0451,-247.745 L 49.6289,-247.976 L 50.1791,-248.278
 L 50.6871,-248.647 L 51.1448,-249.077 L 51.5451,-249.561 L 51.8815,-250.091 L 52.1489,-250.659 L 52.3429,-251.257
 L 52.4606,-251.873 L 52.5,-252.5 L 52.5,-287.5 L 52.4606,-288.127 L 52.3429,-288.743 L 52.1489,-289.341
 L 51.8815,-289.909 L 51.5451,-290.439 L 51.1448,-290.923 L 50.6871,-291.353 L 50.1791,-291.722 L 49.6289,-292.024
 L 49.0451,-292.255 L 48.4369,-292.411 L 47.8139,-292.49 L -47.8139,-292.49 L -48.4369,-292.411 L -49.0451,-292.255
 L -49.6289,-292.024 L -50.1791,-291.722 L -50.6871,-291.353 L -51,-291.059 L -51,-292.49 L -54,-292.49
 L -54,-247.51 L -51,-247.51 z
M -47.2512,-249.008 L -47.7495,-249.071 L -48.2361,-249.196 L -48.7031,-249.381 L -49.1433,-249.623 L -49.5497,-249.918
 L -49.9159,-250.262 L -50.2361,-250.649 L -50.5052,-251.073 L -50.7191,-251.528 L -50.8743,-252.005 L -50.9685,-252.499
 L -51,-253 L -51,-287 L -50.9685,-287.501 L -50.8743,-287.995 L -50.7191,-288.472 L -50.5052,-288.927
 L -50.2361,-289.351 L -49.9159,-289.738 L -49.5497,-290.082 L -49.1433,-290.377 L -48.7031,-290.619 L -48.2361,-290.804
 L -47.7495,-290.929 L -47.2512,-290.992 L 47.2512,-290.992 L 47.7495,-290.929 L 48.2361,-290.804 L 48.7031,-290.619
 L 49.1433,-290.377 L 49.5497,-290.082 L 49.9159,-289.738 L 50.2361,-289.351 L 50.5052,-288.927 L 50.7191,-288.472
 L 50.8743,-287.995 L 50.9685,-287.501 L 51,-287 L 51,-253 L 50.9685,-252.499 L 50.8743,-252.005
 L 50.7191,-251.528 L 50.5052,-251.073 L 50.2361,-250.649 L 49.9159,-250.262 L 49.5497,-249.918 L 49.1433,-249.623
 L 48.7031,-249.381 L 48.2361,-249.196 L 47.7495,-249.071 L 47.2512,-249.008 z
M 48.4369,-193.589 L 49.0451,-193.745 L 49.6289,-193.976 L 50.1791,-194.278 L 50.6871,-194.647 L 51.1448,-195.077
 L 51.5451,-195.561 L 51.8815,-196.091 L 52.1489,-196.659 L 52.3429,-197.257 L 52.4606,-197.873 L 52.5,-198.5
 L 52.5,-233.5 L 52.4606,-234.127 L 52.3429,-234.743 L 52.1489,-235.341 L 51.8815,-235.909 L 51.5451,-236.439
 L 51.1448,-236.923 L 50.6871,-237.353 L 50.1791,-237.722 L 49.6289,-238.024 L 49.0451,-238.255 L 48.4369,-238.411
 L 47.8139,-238.49 L -47.8139,-238.49 L -48.4369,-238.411 L -49.0451,-238.255 L -49.6289,-238.024 L -50.1791,-237.722
 L -50.6871,-237.353 L -51,-237.059 L -51,-238.479 L -54,-238.479 L -54,-193.521 L -51,-193.521
 L -51,-194.941 L -50.6871,-194.647 L -50.1791,-194.278 L -49.6289,-193.976 L -49.0451,-193.745 L -48.4369,-193.589
 L -47.8139,-193.51 L 47.8139,-193.51 z
M -47.1954,-195.893 L -47.5833,-195.942 L -47.9619,-196.039 L -48.3254,-196.183 L -48.668,-196.372 L -48.9842,-196.601
 L -49.2692,-196.869 L -49.5184,-197.17 L -49.7279,-197.5 L -49.8943,-197.854 L -50.0151,-198.226 L -50.0884,-198.61
 L -50.1129,-199 L -50.1129,-233 L -50.0884,-233.39 L -50.0151,-233.774 L -49.8943,-234.146 L -49.7279,-234.5
 L -49.5184,-234.83 L -49.2692,-235.131 L -48.9842,-235.399 L -48.668,-235.628 L -48.3254,-235.817 L -47.9619,-235.961
 L -47.5833,-236.058 L -47.1954,-236.107 L 47.1954,-236.107 L 47.5833,-236.058 L 47.9619,-235.961 L 48.3254,-235.817
 L 48.668,-235.628 L 48.9842,-235.399 L 49.2692,-235.131 L 49.5184,-234.83 L 49.7279,-234.5 L 49.8943,-234.146
 L 50.0151,-233.774 L 50.0884,-233.39 L 50.1129,-233 L 50.1129,-199 L 50.0884,-198.61 L 50.0151,-198.226
 L 49.8943,-197.854 L 49.7279,-197.5 L 49.5184,-197.17 L 49.2692,-196.869 L 48.9842,-196.601 L 48.668,-196.372
 L 48.3254,-196.183 L 47.9619,-196.039 L 47.5833,-195.942 L 47.1954,-195.893 z
M 48.4369,-139.589 L 49.0451,-139.745 L 49.6289,-139.976 L 50.1791,-140.278 L 50.6871,-140.647 L 51.1448,-141.077
 L 51.5451,-141.561 L 51.8815,-142.091 L 52.1489,-142.659 L 52.3429,-143.257 L 52.4606,-143.873 L 52.5,-144.5
 L 52.5,-179.5 L 52.4606,-180.127 L 52.3429,-180.743 L 52.1489,-181.341 L 51.8815,-181.909 L 51.5451,-182.439
 L 51.1448,-182.923 L 50.6871,-183.353 L 50.1791,-183.722 L 49.6289,-184.024 L 49.0451,-184.255 L 48.4369,-184.411
 L 47.8139,-184.49 L -47.8139,-184.49 L -48.4369,-184.411 L -49.0451,-184.255 L -49.6289,-184.024 L -50.1791,-183.722
 L -50.6871,-183.353 L -51,-183.059 L -51,-183.153 L -54,-183.153 L -54,-140.847 L -51,-140.847
 L -51,-140.941 L -50.6871,-140.647 L -50.1791,-140.278 L -49.6289,-139.976 L -49.0451,-139.745 L -48.4369,-139.589
 L -47.8139,-139.51 L 47.8139,-139.51 z
M 44.8659,-174.869 L 44.5999,-174.903 L 44.3401,-174.969 L 44.0908,-175.068 L 43.8559,-175.197 L 43.6389,-175.355
 L 43.4434,-175.538 L 43.2725,-175.745 L 43.1288,-175.971 L 43.0146,-176.214 L 42.9318,-176.469 L 42.8815,-176.732
 L 42.8647,-177 L 42.8815,-177.268 L 42.9318,-177.531 L 43.0146,-177.786 L 43.1288,-178.029 L 43.2725,-178.255
 L 43.4434,-178.462 L 43.6389,-178.645 L 43.8559,-178.803 L 44.0908,-178.932 L 44.3401,-179.031 L 44.5999,-179.097
 L 44.8659,-179.131 L 45.1341,-179.131 L 45.4001,-179.097 L 45.6598,-179.031 L 45.9092,-178.932 L 46.1441,-178.803
 L 46.3611,-178.645 L 46.5565,-178.462 L 46.7275,-178.255 L 46.8712,-178.029 L 46.9853,-177.786 L 47.0682,-177.531
 L 47.1185,-177.268 L 47.1353,-177 L 47.1185,-176.732 L 47.0682,-176.469 L 46.9853,-176.214 L 46.8712,-175.971
 L 46.7275,-175.745 L 46.5565,-175.538 L 46.3611,-175.355 L 46.1441,-175.197 L 45.9092,-175.068 L 45.6598,-174.969
 L 45.4001,-174.903 L 45.1341,-174.869 z
M -45.1341,-174.869 L -45.4001,-174.903 L -45.6598,-174.969 L -45.9092,-175.068 L -46.1441,-175.197 L -46.3611,-175.355
 L -46.5565,-175.538 L -46.7275,-175.745 L -46.8712,-175.971 L -46.9853,-176.214 L -47.0682,-176.469 L -47.1185,-176.732
 L -47.1353,-177 L -47.1185,-177.268 L -47.0682,-177.531 L -46.9853,-177.786 L -46.8712,-178.029 L -46.7275,-178.255
 L -46.5565,-178.462 L -46.3611,-178.645 L -46.1441,-178.803 L -45.9092,-178.932 L -45.6598,-179.031 L -45.4001,-179.097
 L -45.1341,-179.131 L -44.8659,-179.131 L -44.5999,-179.097 L -44.3401,-179.031 L -44.0908,-178.932 L -43.8559,-178.803
 L -43.6389,-178.645 L -43.4434,-178.462 L -43.2725,-178.255 L -43.1288,-178.029 L -43.0146,-177.786 L -42.9318,-177.531
 L -42.8815,-177.268 L -42.8647,-177 L -42.8815,-176.732 L -42.9318,-176.469 L -43.0146,-176.214 L -43.1288,-175.971
 L -43.2725,-175.745 L -43.4434,-175.538 L -43.6389,-175.355 L -43.8559,-175.197 L -44.0908,-175.068 L -44.3401,-174.969
 L -44.5999,-174.903 L -44.8659,-174.869 z
M 44.8659,-144.869 L 44.5999,-144.903 L 44.3401,-144.969 L 44.0908,-145.068 L 43.8559,-145.197 L 43.6389,-145.355
 L 43.4434,-145.538 L 43.2725,-145.745 L 43.1288,-145.971 L 43.0146,-146.214 L 42.9318,-146.469 L 42.8815,-146.732
 L 42.8647,-147 L 42.8815,-147.268 L 42.9318,-147.531 L 43.0146,-147.786 L 43.1288,-148.029 L 43.2725,-148.255
 L 43.4434,-148.462 L 43.6389,-148.645 L 43.8559,-148.803 L 44.0908,-148.932 L 44.3401,-149.031 L 44.5999,-149.097
 L 44.8659,-149.131 L 45.1341,-149.131 L 45.4001,-149.097 L 45.6598,-149.031 L 45.9092,-148.932 L 46.1441,-148.803
 L 46.3611,-148.645 L 46.5565,-148.462 L 46.7275,-148.255 L 46.8712,-148.029 L 46.9853,-147.786 L 47.0682,-147.531
 L 47.1185,-147.268 L 47.1353,-147 L 47.1185,-146.732 L 47.0682,-146.469 L 46.9853,-146.214 L 46.8712,-145.971
 L 46.7275,-145.745 L 46.5565,-145.538 L 46.3611,-145.355 L 46.1441,-145.197 L 45.9092,-145.068 L 45.6598,-144.969
 L 45.4001,-144.903 L 45.1341,-144.869 z
M -45.1341,-144.869 L -45.4001,-144.903 L -45.6598,-144.969 L -45.9092,-145.068 L -46.1441,-145.197 L -46.3611,-145.355
 L -46.5565,-145.538 L -46.7275,-145.745 L -46.8712,-145.971 L -46.9853,-146.214 L -47.0682,-146.469 L -47.1185,-146.732
 L -47.1353,-147 L -47.1185,-147.268 L -47.0682,-147.531 L -46.9853,-147.786 L -46.8712,-148.029 L -46.7275,-148.255
 L -46.5565,-148.462 L -46.3611,-148.645 L -46.1441,-148.803 L -45.9092,-148.932 L -45.6598,-149.031 L -45.4001,-149.097
 L -45.1341,-149.131 L -44.8659,-149.131 L -44.5999,-149.097 L -44.3401,-149.031 L -44.0908,-148.932 L -43.8559,-148.803
 L -43.6389,-148.645 L -43.4434,-148.462 L -43.2725,-148.255 L -43.1288,-148.029 L -43.0146,-147.786 L -42.9318,-147.531
 L -42.8815,-147.268 L -42.8647,-147 L -42.8815,-146.732 L -42.9318,-146.469 L -43.0146,-146.214 L -43.1288,-145.971
 L -43.2725,-145.745 L -43.4434,-145.538 L -43.6389,-145.355 L -43.8559,-145.197 L -44.0908,-145.068 L -44.3401,-144.969
 L -44.5999,-144.903 L -44.8659,-144.869 z
" stroke="black" fill="lightgray" stroke-width="0.5"/>
</svg>
