  0
SECTION
  2
BLOCKS
  0
ENDSEC
  0
SECTION
  2
ENTITIES
  0
LINE
  8
0
 10
18.4369
 20
403.589
 11
19.0451
 21
403.745
  0
LINE
  8
0
 10
19.0451
 20
403.745
 11
19.6289
 21
403.976
  0
LINE
  8
0
 10
19.6289
 20
403.976
 11
20.1791
 21
404.278
  0
LINE
  8
0
 10
20.1791
 20
404.278
 11
20.6871
 21
404.647
  0
LINE
  8
0
 10
20.6871
 20
404.647
 11
21.1448
 21
405.077
  0
LINE
  8
0
 10
21.1448
 20
405.077
 11
21.5451
 21
405.561
  0
LINE
  8
0
 10
21.5451
 20
405.561
 11
21.8815
 21
406.091
  0
LINE
  8
0
 10
21.8815
 20
406.091
 11
22.1489
 21
406.659
  0
LINE
  8
0
 10
22.1489
 20
406.659
 11
22.3429
 21
407.257
  0
LINE
  8
0
 10
22.3429
 20
407.257
 11
22.4606
 21
407.873
  0
LINE
  8
0
 10
22.4606
 20
407.873
 11
22.5
 21
408.5
  0
LINE
  8
0
 10
22.5
 20
408.5
 11
22.5
 21
503.5
  0
LINE
  8
0
 10
22.5
 20
503.5
 11
22.4606
 21
504.127
  0
LINE
  8
0
 10
22.4606
 20
504.127
 11
22.3429
 21
504.743
  0
LINE
  8
0
 10
22.3429
 20
504.743
 11
22.1489
 21
505.341
  0
LINE
  8
0
 10
22.1489
 20
505.341
 11
21.8815
 21
505.909
  0
LINE
  8
0
 10
21.8815
 20
505.909
 11
21.5451
 21
506.439
  0
LINE
  8
0
 10
21.5451
 20
506.439
 11
21.1448
 21
506.923
  0
LINE
  8
0
 10
21.1448
 20
506.923
 11
20.6871
 21
507.353
  0
LINE
  8
0
 10
20.6871
 20
507.353
 11
20.1791
 21
507.722
  0
LINE
  8
0
 10
20.1791
 20
507.722
 11
19.6289
 21
508.024
  0
LINE
  8
0
 10
19.6289
 20
508.024
 11
19.0451
 21
508.255
  0
LINE
  8
0
 10
19.0451
 20
508.255
 11
18.4369
 21
508.411
  0
LINE
  8
0
 10
18.4369
 20
508.411
 11
17.8139
 21
508.49
  0
LINE
  8
0
 10
17.8139
 20
508.49
 11
-17.8139
 21
508.49
  0
LINE
  8
0
 10
-17.8139
 20
508.49
 11
-18.4369
 21
508.411
  0
LINE
  8
0
 10
-18.4369
 20
508.411
 11
-19.0451
 21
508.255
  0
LINE
  8
0
 10
-19.0451
 20
508.255
 11
-19.6289
 21
508.024
  0
LINE
  8
0
 10
-19.6289
 20
508.024
 11
-20.1791
 21
507.722
  0
LINE
  8
0
 10
-20.1791
 20
507.722
 11
-20.6871
 21
507.353
  0
LINE
  8
0
 10
-20.6871
 20
507.353
 11
-21.1448
 21
506.923
  0
LINE
  8
0
 10
-21.1448
 20
506.923
 11
-21.5451
 21
506.439
  0
LINE
  8
0
 10
-21.5451
 20
506.439
 11
-21.8815
 21
505.909
  0
LINE
  8
0
 10
-21.8815
 20
505.909
 11
-22.1489
 21
505.341
  0
LINE
  8
0
 10
-22.1489
 20
505.341
 11
-22.3429
 21
504.743
  0
LINE
  8
0
 10
-22.3429
 20
504.743
 11
-22.4606
 21
504.127
  0
LINE
  8
0
 10
-22.4606
 20
504.127
 11
-22.5
 21
503.5
  0
LINE
  8
0
 10
-22.5
 20
503.5
 11
-22.5
 21
408.5
  0
LINE
  8
0
 10
-22.5
 20
408.5
 11
-22.4606
 21
407.873
  0
LINE
  8
0
 10
-22.4606
 20
407.873
 11
-22.3429
 21
407.257
  0
LINE
  8
0
 10
-22.3429
 20
407.257
 11
-22.1489
 21
406.659
  0
LINE
  8
0
 10
-22.1489
 20
406.659
 11
-21.8815
 21
406.091
  0
LINE
  8
0
 10
-21.8815
 20
406.091
 11
-21.5451
 21
405.561
  0
LINE
  8
0
 10
-21.5451
 20
405.561
 11
-21.1448
 21
405.077
  0
LINE
  8
0
 10
-21.1448
 20
405.077
 11
-20.6871
 21
404.647
  0
LINE
  8
0
 10
-20.6871
 20
404.647
 11
-20.1791
 21
404.278
  0
LINE
  8
0
 10
-20.1791
 20
404.278
 11
-19.6289
 21
403.976
  0
LINE
  8
0
 10
-19.6289
 20
403.976
 11
-19.0451
 21
403.745
  0
LINE
  8
0
 10
-19.0451
 20
403.745
 11
-18.4369
 21
403.589
  0
LINE
  8
0
 10
-18.4369
 20
403.589
 11
-17.8139
 21
403.51
  0
LINE
  8
0
 10
-17.8139
 20
403.51
 11
17.8139
 21
403.51
  0
LINE
  8
0
 10
17.8139
 20
403.51
 11
18.4369
 21
403.589
  0
LINE
  8
0
 10
-17.2432
 20
405.135
 11
-17.7256
 21
405.196
  0
LINE
  8
0
 10
-17.7256
 20
405.196
 11
-18.1967
 21
405.317
  0
LINE
  8
0
 10
-18.1967
 20
405.317
 11
-18.6489
 21
405.496
  0
LINE
  8
0
 10
-18.6489
 20
405.496
 11
-19.0751
 21
405.73
  0
LINE
  8
0
 10
-19.0751
 20
405.73
 11
-19.4685
 21
406.016
  0
LINE
  8
0
 10
-19.4685
 20
406.016
 11
-19.823
 21
406.349
  0
LINE
  8
0
 10
-19.823
 20
406.349
 11
-20.133
 21
406.724
  0
LINE
  8
0
 10
-20.133
 20
406.724
 11
-20.3936
 21
407.134
  0
LINE
  8
0
 10
-20.3936
 20
407.134
 11
-20.6007
 21
407.574
  0
LINE
  8
0
 10
-20.6007
 20
407.574
 11
-20.751
 21
408.037
  0
LINE
  8
0
 10
-20.751
 20
408.037
 11
-20.8421
 21
408.515
  0
LINE
  8
0
 10
-20.8421
 20
408.515
 11
-20.8726
 21
409
  0
LINE
  8
0
 10
-20.8726
 20
409
 11
-20.8726
 21
503
  0
LINE
  8
0
 10
-20.8726
 20
503
 11
-20.8421
 21
503.485
  0
LINE
  8
0
 10
-20.8421
 20
503.485
 11
-20.751
 21
503.963
  0
LINE
  8
0
 10
-20.751
 20
503.963
 11
-20.6007
 21
504.426
  0
LINE
  8
0
 10
-20.6007
 20
504.426
 11
-20.3936
 21
504.866
  0
LINE
  8
0
 10
-20.3936
 20
504.866
 11
-20.133
 21
505.276
  0
LINE
  8
0
 10
-20.133
 20
505.276
 11
-19.823
 21
505.651
  0
LINE
  8
0
 10
-19.823
 20
505.651
 11
-19.4685
 21
505.984
  0
LINE
  8
0
 10
-19.4685
 20
505.984
 11
-19.0751
 21
506.27
  0
LINE
  8
0
 10
-19.0751
 20
506.27
 11
-18.6489
 21
506.504
  0
LINE
  8
0
 10
-18.6489
 20
506.504
 11
-18.1967
 21
506.683
  0
LINE
  8
0
 10
-18.1967
 20
506.683
 11
-17.7256
 21
506.804
  0
LINE
  8
0
 10
-17.7256
 20
506.804
 11
-17.2432
 21
506.865
  0
LINE
  8
0
 10
-17.2432
 20
506.865
 11
17.2432
 21
506.865
  0
LINE
  8
0
 10
17.2432
 20
506.865
 11
17.7256
 21
506.804
  0
LINE
  8
0
 10
17.7256
 20
506.804
 11
18.1967
 21
506.683
  0
LINE
  8
0
 10
18.1967
 20
506.683
 11
18.6489
 21
506.504
  0
LINE
  8
0
 10
18.6489
 20
506.504
 11
19.0751
 21
506.27
  0
LINE
  8
0
 10
19.0751
 20
506.27
 11
19.4685
 21
505.984
  0
LINE
  8
0
 10
19.4685
 20
505.984
 11
19.823
 21
505.651
  0
LINE
  8
0
 10
19.823
 20
505.651
 11
20.133
 21
505.276
  0
LINE
  8
0
 10
20.133
 20
505.276
 11
20.3936
 21
504.866
  0
LINE
  8
0
 10
20.3936
 20
504.866
 11
20.6007
 21
504.426
  0
LINE
  8
0
 10
20.6007
 20
504.426
 11
20.751
 21
503.963
  0
LINE
  8
0
 10
20.751
 20
503.963
 11
20.8421
 21
503.485
  0
LINE
  8
0
 10
20.8421
 20
503.485
 11
20.8726
 21
503
  0
LINE
  8
0
 10
20.8726
 20
503
 11
20.8726
 21
409
  0
LINE
  8
0
 10
20.8726
 20
409
 11
20.8421
 21
408.515
  0
LINE
  8
0
 10
20.8421
 20
408.515
 11
20.751
 21
408.037
  0
LINE
  8
0
 10
20.751
 20
408.037
 11
20.6007
 21
407.574
  0
LINE
  8
0
 10
20.6007
 20
407.574
 11
20.3936
 21
407.134
  0
LINE
  8
0
 10
20.3936
 20
407.134
 11
20.133
 21
406.724
  0
LINE
  8
0
 10
20.133
 20
406.724
 11
19.823
 21
406.349
  0
LINE
  8
0
 10
19.823
 20
406.349
 11
19.4685
 21
406.016
  0
LINE
  8
0
 10
19.4685
 20
406.016
 11
19.0751
 21
405.73
  0
LINE
  8
0
 10
19.0751
 20
405.73
 11
18.6489
 21
405.496
  0
LINE
  8
0
 10
18.6489
 20
405.496
 11
18.1967
 21
405.317
  0
LINE
  8
0
 10
18.1967
 20
405.317
 11
17.7256
 21
405.196
  0
LINE
  8
0
 10
17.7256
 20
405.196
 11
17.2432
 21
405.135
  0
LINE
  8
0
 10
17.2432
 20
405.135
 11
-17.2432
 21
405.135
  0
LINE
  8
0
 10
18.4369
 20
289.589
 11
19.0451
 21
289.745
  0
LINE
  8
0
 10
19.0451
 20
289.745
 11
19.6289
 21
289.976
  0
LINE
  8
0
 10
19.6289
 20
289.976
 11
20.1791
 21
290.278
  0
LINE
  8
0
 10
20.1791
 20
290.278
 11
20.6871
 21
290.647
  0
LINE
  8
0
 10
20.6871
 20
290.647
 11
21.1448
 21
291.077
  0
LINE
  8
0
 10
21.1448
 20
291.077
 11
21.5451
 21
291.561
  0
LINE
  8
0
 10
21.5451
 20
291.561
 11
21.8815
 21
292.091
  0
LINE
  8
0
 10
21.8815
 20
292.091
 11
22.1489
 21
292.659
  0
LINE
  8
0
 10
22.1489
 20
292.659
 11
22.3429
 21
293.257
  0
LINE
  8
0
 10
22.3429
 20
293.257
 11
22.4606
 21
293.873
  0
LINE
  8
0
 10
22.4606
 20
293.873
 11
22.5
 21
294.5
  0
LINE
  8
0
 10
22.5
 20
294.5
 11
22.5
 21
389.5
  0
LINE
  8
0
 10
22.5
 20
389.5
 11
22.4606
 21
390.127
  0
LINE
  8
0
 10
22.4606
 20
390.127
 11
22.3429
 21
390.743
  0
LINE
  8
0
 10
22.3429
 20
390.743
 11
22.1489
 21
391.341
  0
LINE
  8
0
 10
22.1489
 20
391.341
 11
21.8815
 21
391.909
  0
LINE
  8
0
 10
21.8815
 20
391.909
 11
21.5451
 21
392.439
  0
LINE
  8
0
 10
21.5451
 20
392.439
 11
21.1448
 21
392.923
  0
LINE
  8
0
 10
21.1448
 20
392.923
 11
20.6871
 21
393.353
  0
LINE
  8
0
 10
20.6871
 20
393.353
 11
20.1791
 21
393.722
  0
LINE
  8
0
 10
20.1791
 20
393.722
 11
19.6289
 21
394.024
  0
LINE
  8
0
 10
19.6289
 20
394.024
 11
19.0451
 21
394.255
  0
LINE
  8
0
 10
19.0451
 20
394.255
 11
18.4369
 21
394.411
  0
LINE
  8
0
 10
18.4369
 20
394.411
 11
17.8139
 21
394.49
  0
LINE
  8
0
 10
17.8139
 20
394.49
 11
-17.8139
 21
394.49
  0
LINE
  8
0
 10
-17.8139
 20
394.49
 11
-18.4369
 21
394.411
  0
LINE
  8
0
 10
-18.4369
 20
394.411
 11
-19.0451
 21
394.255
  0
LINE
  8
0
 10
-19.0451
 20
394.255
 11
-19.6289
 21
394.024
  0
LINE
  8
0
 10
-19.6289
 20
394.024
 11
-20.1791
 21
393.722
  0
LINE
  8
0
 10
-20.1791
 20
393.722
 11
-20.6871
 21
393.353
  0
LINE
  8
0
 10
-20.6871
 20
393.353
 11
-21.1448
 21
392.923
  0
LINE
  8
0
 10
-21.1448
 20
392.923
 11
-21.5451
 21
392.439
  0
LINE
  8
0
 10
-21.5451
 20
392.439
 11
-21.8815
 21
391.909
  0
LINE
  8
0
 10
-21.8815
 20
391.909
 11
-22.1489
 21
391.341
  0
LINE
  8
0
 10
-22.1489
 20
391.341
 11
-22.3429
 21
390.743
  0
LINE
  8
0
 10
-22.3429
 20
390.743
 11
-22.4606
 21
390.127
  0
LINE
  8
0
 10
-22.4606
 20
390.127
 11
-22.5
 21
389.5
  0
LINE
  8
0
 10
-22.5
 20
389.5
 11
-22.5
 21
294.5
  0
LINE
  8
0
 10
-22.5
 20
294.5
 11
-22.4606
 21
293.873
  0
LINE
  8
0
 10
-22.4606
 20
293.873
 11
-22.3429
 21
293.257
  0
LINE
  8
0
 10
-22.3429
 20
293.257
 11
-22.1489
 21
292.659
  0
LINE
  8
0
 10
-22.1489
 20
292.659
 11
-21.8815
 21
292.091
  0
LINE
  8
0
 10
-21.8815
 20
292.091
 11
-21.5451
 21
291.561
  0
LINE
  8
0
 10
-21.5451
 20
291.561
 11
-21.1448
 21
291.077
  0
LINE
  8
0
 10
-21.1448
 20
291.077
 11
-20.6871
 21
290.647
  0
LINE
  8
0
 10
-20.6871
 20
290.647
 11
-20.1791
 21
290.278
  0
LINE
  8
0
 10
-20.1791
 20
290.278
 11
-19.6289
 21
289.976
  0
LINE
  8
0
 10
-19.6289
 20
289.976
 11
-19.0451
 21
289.745
  0
LINE
  8
0
 10
-19.0451
 20
289.745
 11
-18.4369
 21
289.589
  0
LINE
  8
0
 10
-18.4369
 20
289.589
 11
-17.8139
 21
289.51
  0
LINE
  8
0
 10
-17.8139
 20
289.51
 11
17.8139
 21
289.51
  0
LINE
  8
0
 10
17.8139
 20
289.51
 11
18.4369
 21
289.589
  0
LINE
  8
0
 10
18.4369
 20
175.589
 11
19.0451
 21
175.745
  0
LINE
  8
0
 10
19.0451
 20
175.745
 11
19.6289
 21
175.976
  0
LINE
  8
0
 10
19.6289
 20
175.976
 11
20.1791
 21
176.278
  0
LINE
  8
0
 10
20.1791
 20
176.278
 11
20.6871
 21
176.647
  0
LINE
  8
0
 10
20.6871
 20
176.647
 11
21.1448
 21
177.077
  0
LINE
  8
0
 10
21.1448
 20
177.077
 11
21.5451
 21
177.561
  0
LINE
  8
0
 10
21.5451
 20
177.561
 11
21.8815
 21
178.091
  0
LINE
  8
0
 10
21.8815
 20
178.091
 11
22.1489
 21
178.659
  0
LINE
  8
0
 10
22.1489
 20
178.659
 11
22.3429
 21
179.257
  0
LINE
  8
0
 10
22.3429
 20
179.257
 11
22.4606
 21
179.873
  0
LINE
  8
0
 10
22.4606
 20
179.873
 11
22.5
 21
180.5
  0
LINE
  8
0
 10
22.5
 20
180.5
 11
22.5
 21
275.5
  0
LINE
  8
0
 10
22.5
 20
275.5
 11
22.4606
 21
276.127
  0
LINE
  8
0
 10
22.4606
 20
276.127
 11
22.3429
 21
276.743
  0
LINE
  8
0
 10
22.3429
 20
276.743
 11
22.1489
 21
277.341
  0
LINE
  8
0
 10
22.1489
 20
277.341
 11
21.8815
 21
277.909
  0
LINE
  8
0
 10
21.8815
 20
277.909
 11
21.5451
 21
278.439
  0
LINE
  8
0
 10
21.5451
 20
278.439
 11
21.1448
 21
278.923
  0
LINE
  8
0
 10
21.1448
 20
278.923
 11
20.6871
 21
279.353
  0
LINE
  8
0
 10
20.6871
 20
279.353
 11
20.1791
 21
279.722
  0
LINE
  8
0
 10
20.1791
 20
279.722
 11
19.6289
 21
280.024
  0
LINE
  8
0
 10
19.6289
 20
280.024
 11
19.0451
 21
280.255
  0
LINE
  8
0
 10
19.0451
 20
280.255
 11
18.4369
 21
280.411
  0
LINE
  8
0
 10
18.4369
 20
280.411
 11
17.8139
 21
280.49
  0
LINE
  8
0
 10
17.8139
 20
280.49
 11
-17.8139
 21
280.49
  0
LINE
  8
0
 10
-17.8139
 20
280.49
 11
-18.4369
 21
280.411
  0
LINE
  8
0
 10
-18.4369
 20
280.411
 11
-19.0451
 21
280.255
  0
LINE
  8
0
 10
-19.0451
 20
280.255
 11
-19.6289
 21
280.024
  0
LINE
  8
0
 10
-19.6289
 20
280.024
 11
-20.1791
 21
279.722
  0
LINE
  8
0
 10
-20.1791
 20
279.722
 11
-20.6871
 21
279.353
  0
LINE
  8
0
 10
-20.6871
 20
279.353
 11
-21.1448
 21
278.923
  0
LINE
  8
0
 10
-21.1448
 20
278.923
 11
-21.5451
 21
278.439
  0
LINE
  8
0
 10
-21.5451
 20
278.439
 11
-21.8815
 21
277.909
  0
LINE
  8
0
 10
-21.8815
 20
277.909
 11
-22.1489
 21
277.341
  0
LINE
  8
0
 10
-22.1489
 20
277.341
 11
-22.3429
 21
276.743
  0
LINE
  8
0
 10
-22.3429
 20
276.743
 11
-22.4606
 21
276.127
  0
LINE
  8
0
 10
-22.4606
 20
276.127
 11
-22.5
 21
275.5
  0
LINE
  8
0
 10
-22.5
 20
275.5
 11
-22.5
 21
180.5
  0
LINE
  8
0
 10
-22.5
 20
180.5
 11
-22.4606
 21
179.873
  0
LINE
  8
0
 10
-22.4606
 20
179.873
 11
-22.3429
 21
179.257
  0
LINE
  8
0
 10
-22.3429
 20
179.257
 11
-22.1489
 21
178.659
  0
LINE
  8
0
 10
-22.1489
 20
178.659
 11
-21.8815
 21
178.091
  0
LINE
  8
0
 10
-21.8815
 20
178.091
 11
-21.5451
 21
177.561
  0
LINE
  8
0
 10
-21.5451
 20
177.561
 11
-21.1448
 21
177.077
  0
LINE
  8
0
 10
-21.1448
 20
177.077
 11
-20.6871
 21
176.647
  0
LINE
  8
0
 10
-20.6871
 20
176.647
 11
-20.1791
 21
176.278
  0
LINE
  8
0
 10
-20.1791
 20
176.278
 11
-19.6289
 21
175.976
  0
LINE
  8
0
 10
-19.6289
 20
175.976
 11
-19.0451
 21
175.745
  0
LINE
  8
0
 10
-19.0451
 20
175.745
 11
-18.4369
 21
175.589
  0
LINE
  8
0
 10
-18.4369
 20
175.589
 11
-17.8139
 21
175.51
  0
LINE
  8
0
 10
-17.8139
 20
175.51
 11
17.8139
 21
175.51
  0
LINE
  8
0
 10
17.8139
 20
175.51
 11
18.4369
 21
175.589
  0
LINE
  8
0
 10
14.887
 20
271.204
 11
14.6627
 21
271.232
  0
LINE
  8
0
 10
14.6627
 20
271.232
 11
14.4438
 21
271.288
  0
LINE
  8
0
 10
14.4438
 20
271.288
 11
14.2336
 21
271.371
  0
LINE
  8
0
 10
14.2336
 20
271.371
 11
14.0355
 21
271.48
  0
LINE
  8
0
 10
14.0355
 20
271.48
 11
13.8526
 21
271.613
  0
LINE
  8
0
 10
13.8526
 20
271.613
 11
13.6879
 21
271.768
  0
LINE
  8
0
 10
13.6879
 20
271.768
 11
13.5438
 21
271.942
  0
LINE
  8
0
 10
13.5438
 20
271.942
 11
13.4226
 21
272.133
  0
LINE
  8
0
 10
13.4226
 20
272.133
 11
13.3264
 21
272.337
  0
LINE
  8
0
 10
13.3264
 20
272.337
 11
13.2565
 21
272.552
  0
LINE
  8
0
 10
13.2565
 20
272.552
 11
13.2142
 21
272.774
  0
LINE
  8
0
 10
13.2142
 20
272.774
 11
13.2
 21
273
  0
LINE
  8
0
 10
13.2
 20
273
 11
13.2142
 21
273.226
  0
LINE
  8
0
 10
13.2142
 20
273.226
 11
13.2565
 21
273.448
  0
LINE
  8
0
 10
13.2565
 20
273.448
 11
13.3264
 21
273.663
  0
LINE
  8
0
 10
13.3264
 20
273.663
 11
13.4226
 21
273.867
  0
LINE
  8
0
 10
13.4226
 20
273.867
 11
13.5438
 21
274.058
  0
LINE
  8
0
 10
13.5438
 20
274.058
 11
13.6879
 21
274.232
  0
LINE
  8
0
 10
13.6879
 20
274.232
 11
13.8526
 21
274.387
  0
LINE
  8
0
 10
13.8526
 20
274.387
 11
14.0355
 21
274.52
  0
LINE
  8
0
 10
14.0355
 20
274.52
 11
14.2336
 21
274.629
  0
LINE
  8
0
 10
14.2336
 20
274.629
 11
14.4438
 21
274.712
  0
LINE
  8
0
 10
14.4438
 20
274.712
 11
14.6627
 21
274.768
  0
LINE
  8
0
 10
14.6627
 20
274.768
 11
14.887
 21
274.796
  0
LINE
  8
0
 10
14.887
 20
274.796
 11
15.113
 21
274.796
  0
LINE
  8
0
 10
15.113
 20
274.796
 11
15.3373
 21
274.768
  0
LINE
  8
0
 10
15.3373
 20
274.768
 11
15.5562
 21
274.712
  0
LINE
  8
0
 10
15.5562
 20
274.712
 11
15.7664
 21
274.629
  0
LINE
  8
0
 10
15.7664
 20
274.629
 11
15.9645
 21
274.52
  0
LINE
  8
0
 10
15.9645
 20
274.52
 11
16.1474
 21
274.387
  0
LINE
  8
0
 10
16.1474
 20
274.387
 11
16.3121
 21
274.232
  0
LINE
  8
0
 10
16.3121
 20
274.232
 11
16.4562
 21
274.058
  0
LINE
  8
0
 10
16.4562
 20
274.058
 11
16.5773
 21
273.867
  0
LINE
  8
0
 10
16.5773
 20
273.867
 11
16.6736
 21
273.663
  0
LINE
  8
0
 10
16.6736
 20
273.663
 11
16.7434
 21
273.448
  0
LINE
  8
0
 10
16.7434
 20
273.448
 11
16.7858
 21
273.226
  0
LINE
  8
0
 10
16.7858
 20
273.226
 11
16.8
 21
273
  0
LINE
  8
0
 10
16.8
 20
273
 11
16.7858
 21
272.774
  0
LINE
  8
0
 10
16.7858
 20
272.774
 11
16.7434
 21
272.552
  0
LINE
  8
0
 10
16.7434
 20
272.552
 11
16.6736
 21
272.337
  0
LINE
  8
0
 10
16.6736
 20
272.337
 11
16.5773
 21
272.133
  0
LINE
  8
0
 10
16.5773
 20
272.133
 11
16.4562
 21
271.942
  0
LINE
  8
0
 10
16.4562
 20
271.942
 11
16.3121
 21
271.768
  0
LINE
  8
0
 10
16.3121
 20
271.768
 11
16.1474
 21
271.613
  0
LINE
  8
0
 10
16.1474
 20
271.613
 11
15.9645
 21
271.48
  0
LINE
  8
0
 10
15.9645
 20
271.48
 11
15.7664
 21
271.371
  0
LINE
  8
0
 10
15.7664
 20
271.371
 11
15.5562
 21
271.288
  0
LINE
  8
0
 10
15.5562
 20
271.288
 11
15.3373
 21
271.232
  0
LINE
  8
0
 10
15.3373
 20
271.232
 11
15.113
 21
271.204
  0
LINE
  8
0
 10
15.113
 20
271.204
 11
14.887
 21
271.204
  0
LINE
  8
0
 10
-15.113
 20
271.204
 11
-15.3373
 21
271.232
  0
LINE
  8
0
 10
-15.3373
 20
271.232
 11
-15.5562
 21
271.288
  0
LINE
  8
0
 10
-15.5562
 20
271.288
 11
-15.7664
 21
271.371
  0
LINE
  8
0
 10
-15.7664
 20
271.371
 11
-15.9645
 21
271.48
  0
LINE
  8
0
 10
-15.9645
 20
271.48
 11
-16.1474
 21
271.613
  0
LINE
  8
0
 10
-16.1474
 20
271.613
 11
-16.3121
 21
271.768
  0
LINE
  8
0
 10
-16.3121
 20
271.768
 11
-16.4562
 21
271.942
  0
LINE
  8
0
 10
-16.4562
 20
271.942
 11
-16.5773
 21
272.133
  0
LINE
  8
0
 10
-16.5773
 20
272.133
 11
-16.6736
 21
272.337
  0
LINE
  8
0
 10
-16.6736
 20
272.337
 11
-16.7434
 21
272.552
  0
LINE
  8
0
 10
-16.7434
 20
272.552
 11
-16.7858
 21
272.774
  0
LINE
  8
0
 10
-16.7858
 20
272.774
 11
-16.8
 21
273
  0
LINE
  8
0
 10
-16.8
 20
273
 11
-16.7858
 21
273.226
  0
LINE
  8
0
 10
-16.7858
 20
273.226
 11
-16.7434
 21
273.448
  0
LINE
  8
0
 10
-16.7434
 20
273.448
 11
-16.6736
 21
273.663
  0
LINE
  8
0
 10
-16.6736
 20
273.663
 11
-16.5773
 21
273.867
  0
LINE
  8
0
 10
-16.5773
 20
273.867
 11
-16.4562
 21
274.058
  0
LINE
  8
0
 10
-16.4562
 20
274.058
 11
-16.3121
 21
274.232
  0
LINE
  8
0
 10
-16.3121
 20
274.232
 11
-16.1474
 21
274.387
  0
LINE
  8
0
 10
-16.1474
 20
274.387
 11
-15.9645
 21
274.52
  0
LINE
  8
0
 10
-15.9645
 20
274.52
 11
-15.7664
 21
274.629
  0
LINE
  8
0
 10
-15.7664
 20
274.629
 11
-15.5562
 21
274.712
  0
LINE
  8
0
 10
-15.5562
 20
274.712
 11
-15.3373
 21
274.768
  0
LINE
  8
0
 10
-15.3373
 20
274.768
 11
-15.113
 21
274.796
  0
LINE
  8
0
 10
-15.113
 20
274.796
 11
-14.887
 21
274.796
  0
LINE
  8
0
 10
-14.887
 20
274.796
 11
-14.6627
 21
274.768
  0
LINE
  8
0
 10
-14.6627
 20
274.768
 11
-14.4438
 21
274.712
  0
LINE
  8
0
 10
-14.4438
 20
274.712
 11
-14.2336
 21
274.629
  0
LINE
  8
0
 10
-14.2336
 20
274.629
 11
-14.0355
 21
274.52
  0
LINE
  8
0
 10
-14.0355
 20
274.52
 11
-13.8526
 21
274.387
  0
LINE
  8
0
 10
-13.8526
 20
274.387
 11
-13.6879
 21
274.232
  0
LINE
  8
0
 10
-13.6879
 20
274.232
 11
-13.5438
 21
274.058
  0
LINE
  8
0
 10
-13.5438
 20
274.058
 11
-13.4226
 21
273.867
  0
LINE
  8
0
 10
-13.4226
 20
273.867
 11
-13.3264
 21
273.663
  0
LINE
  8
0
 10
-13.3264
 20
273.663
 11
-13.2565
 21
273.448
  0
LINE
  8
0
 10
-13.2565
 20
273.448
 11
-13.2142
 21
273.226
  0
LINE
  8
0
 10
-13.2142
 20
273.226
 11
-13.2
 21
273
  0
LINE
  8
0
 10
-13.2
 20
273
 11
-13.2142
 21
272.774
  0
LINE
  8
0
 10
-13.2142
 20
272.774
 11
-13.2565
 21
272.552
  0
LINE
  8
0
 10
-13.2565
 20
272.552
 11
-13.3264
 21
272.337
  0
LINE
  8
0
 10
-13.3264
 20
272.337
 11
-13.4226
 21
272.133
  0
LINE
  8
0
 10
-13.4226
 20
272.133
 11
-13.5438
 21
271.942
  0
LINE
  8
0
 10
-13.5438
 20
271.942
 11
-13.6879
 21
271.768
  0
LINE
  8
0
 10
-13.6879
 20
271.768
 11
-13.8526
 21
271.613
  0
LINE
  8
0
 10
-13.8526
 20
271.613
 11
-14.0355
 21
271.48
  0
LINE
  8
0
 10
-14.0355
 20
271.48
 11
-14.2336
 21
271.371
  0
LINE
  8
0
 10
-14.2336
 20
271.371
 11
-14.4438
 21
271.288
  0
LINE
  8
0
 10
-14.4438
 20
271.288
 11
-14.6627
 21
271.232
  0
LINE
  8
0
 10
-14.6627
 20
271.232
 11
-14.887
 21
271.204
  0
LINE
  8
0
 10
-14.887
 20
271.204
 11
-15.113
 21
271.204
  0
LINE
  8
0
 10
14.887
 20
181.204
 11
14.6627
 21
181.232
  0
LINE
  8
0
 10
14.6627
 20
181.232
 11
14.4438
 21
181.288
  0
LINE
  8
0
 10
14.4438
 20
181.288
 11
14.2336
 21
181.371
  0
LINE
  8
0
 10
14.2336
 20
181.371
 11
14.0355
 21
181.48
  0
LINE
  8
0
 10
14.0355
 20
181.48
 11
13.8526
 21
181.613
  0
LINE
  8
0
 10
13.8526
 20
181.613
 11
13.6879
 21
181.768
  0
LINE
  8
0
 10
13.6879
 20
181.768
 11
13.5438
 21
181.942
  0
LINE
  8
0
 10
13.5438
 20
181.942
 11
13.4226
 21
182.133
  0
LINE
  8
0
 10
13.4226
 20
182.133
 11
13.3264
 21
182.337
  0
LINE
  8
0
 10
13.3264
 20
182.337
 11
13.2565
 21
182.552
  0
LINE
  8
0
 10
13.2565
 20
182.552
 11
13.2142
 21
182.774
  0
LINE
  8
0
 10
13.2142
 20
182.774
 11
13.2
 21
183
  0
LINE
  8
0
 10
13.2
 20
183
 11
13.2142
 21
183.226
  0
LINE
  8
0
 10
13.2142
 20
183.226
 11
13.2565
 21
183.448
  0
LINE
  8
0
 10
13.2565
 20
183.448
 11
13.3264
 21
183.663
  0
LINE
  8
0
 10
13.3264
 20
183.663
 11
13.4226
 21
183.867
  0
LINE
  8
0
 10
13.4226
 20
183.867
 11
13.5438
 21
184.058
  0
LINE
  8
0
 10
13.5438
 20
184.058
 11
13.6879
 21
184.232
  0
LINE
  8
0
 10
13.6879
 20
184.232
 11
13.8526
 21
184.387
  0
LINE
  8
0
 10
13.8526
 20
184.387
 11
14.0355
 21
184.52
  0
LINE
  8
0
 10
14.0355
 20
184.52
 11
14.2336
 21
184.629
  0
LINE
  8
0
 10
14.2336
 20
184.629
 11
14.4438
 21
184.712
  0
LINE
  8
0
 10
14.4438
 20
184.712
 11
14.6627
 21
184.768
  0
LINE
  8
0
 10
14.6627
 20
184.768
 11
14.887
 21
184.796
  0
LINE
  8
0
 10
14.887
 20
184.796
 11
15.113
 21
184.796
  0
LINE
  8
0
 10
15.113
 20
184.796
 11
15.3373
 21
184.768
  0
LINE
  8
0
 10
15.3373
 20
184.768
 11
15.5562
 21
184.712
  0
LINE
  8
0
 10
15.5562
 20
184.712
 11
15.7664
 21
184.629
  0
LINE
  8
0
 10
15.7664
 20
184.629
 11
15.9645
 21
184.52
  0
LINE
  8
0
 10
15.9645
 20
184.52
 11
16.1474
 21
184.387
  0
LINE
  8
0
 10
16.1474
 20
184.387
 11
16.3121
 21
184.232
  0
LINE
  8
0
 10
16.3121
 20
184.232
 11
16.4562
 21
184.058
  0
LINE
  8
0
 10
16.4562
 20
184.058
 11
16.5773
 21
183.867
  0
LINE
  8
0
 10
16.5773
 20
183.867
 11
16.6736
 21
183.663
  0
LINE
  8
0
 10
16.6736
 20
183.663
 11
16.7434
 21
183.448
  0
LINE
  8
0
 10
16.7434
 20
183.448
 11
16.7858
 21
183.226
  0
LINE
  8
0
 10
16.7858
 20
183.226
 11
16.8
 21
183
  0
LINE
  8
0
 10
16.8
 20
183
 11
16.7858
 21
182.774
  0
LINE
  8
0
 10
16.7858
 20
182.774
 11
16.7434
 21
182.552
  0
LINE
  8
0
 10
16.7434
 20
182.552
 11
16.6736
 21
182.337
  0
LINE
  8
0
 10
16.6736
 20
182.337
 11
16.5773
 21
182.133
  0
LINE
  8
0
 10
16.5773
 20
182.133
 11
16.4562
 21
181.942
  0
LINE
  8
0
 10
16.4562
 20
181.942
 11
16.3121
 21
181.768
  0
LINE
  8
0
 10
16.3121
 20
181.768
 11
16.1474
 21
181.613
  0
LINE
  8
0
 10
16.1474
 20
181.613
 11
15.9645
 21
181.48
  0
LINE
  8
0
 10
15.9645
 20
181.48
 11
15.7664
 21
181.371
  0
LINE
  8
0
 10
15.7664
 20
181.371
 11
15.5562
 21
181.288
  0
LINE
  8
0
 10
15.5562
 20
181.288
 11
15.3373
 21
181.232
  0
LINE
  8
0
 10
15.3373
 20
181.232
 11
15.113
 21
181.204
  0
LINE
  8
0
 10
15.113
 20
181.204
 11
14.887
 21
181.204
  0
LINE
  8
0
 10
-15.113
 20
181.204
 11
-15.3373
 21
181.232
  0
LINE
  8
0
 10
-15.3373
 20
181.232
 11
-15.5562
 21
181.288
  0
LINE
  8
0
 10
-15.5562
 20
181.288
 11
-15.7664
 21
181.371
  0
LINE
  8
0
 10
-15.7664
 20
181.371
 11
-15.9645
 21
181.48
  0
LINE
  8
0
 10
-15.9645
 20
181.48
 11
-16.1474
 21
181.613
  0
LINE
  8
0
 10
-16.1474
 20
181.613
 11
-16.3121
 21
181.768
  0
LINE
  8
0
 10
-16.3121
 20
181.768
 11
-16.4562
 21
181.942
  0
LINE
  8
0
 10
-16.4562
 20
181.942
 11
-16.5773
 21
182.133
  0
LINE
  8
0
 10
-16.5773
 20
182.133
 11
-16.6736
 21
182.337
  0
LINE
  8
0
 10
-16.6736
 20
182.337
 11
-16.7434
 21
182.552
  0
LINE
  8
0
 10
-16.7434
 20
182.552
 11
-16.7858
 21
182.774
  0
LINE
  8
0
 10
-16.7858
 20
182.774
 11
-16.8
 21
183
  0
LINE
  8
0
 10
-16.8
 20
183
 11
-16.7858
 21
183.226
  0
LINE
  8
0
 10
-16.7858
 20
183.226
 11
-16.7434
 21
183.448
  0
LINE
  8
0
 10
-16.7434
 20
183.448
 11
-16.6736
 21
183.663
  0
LINE
  8
0
 10
-16.6736
 20
183.663
 11
-16.5773
 21
183.867
  0
LINE
  8
0
 10
-16.5773
 20
183.867
 11
-16.4562
 21
184.058
  0
LINE
  8
0
 10
-16.4562
 20
184.058
 11
-16.3121
 21
184.232
  0
LINE
  8
0
 10
-16.3121
 20
184.232
 11
-16.1474
 21
184.387
  0
LINE
  8
0
 10
-16.1474
 20
184.387
 11
-15.9645
 21
184.52
  0
LINE
  8
0
 10
-15.9645
 20
184.52
 11
-15.7664
 21
184.629
  0
LINE
  8
0
 10
-15.7664
 20
184.629
 11
-15.5562
 21
184.712
  0
LINE
  8
0
 10
-15.5562
 20
184.712
 11
-15.3373
 21
184.768
  0
LINE
  8
0
 10
-15.3373
 20
184.768
 11
-15.113
 21
184.796
  0
LINE
  8
0
 10
-15.113
 20
184.796
 11
-14.887
 21
184.796
  0
LINE
  8
0
 10
-14.887
 20
184.796
 11
-14.6627
 21
184.768
  0
LINE
  8
0
 10
-14.6627
 20
184.768
 11
-14.4438
 21
184.712
  0
LINE
  8
0
 10
-14.4438
 20
184.712
 11
-14.2336
 21
184.629
  0
LINE
  8
0
 10
-14.2336
 20
184.629
 11
-14.0355
 21
184.52
  0
LINE
  8
0
 10
-14.0355
 20
184.52
 11
-13.8526
 21
184.387
  0
LINE
  8
0
 10
-13.8526
 20
184.387
 11
-13.6879
 21
184.232
  0
LINE
  8
0
 10
-13.6879
 20
184.232
 11
-13.5438
 21
184.058
  0
LINE
  8
0
 10
-13.5438
 20
184.058
 11
-13.4226
 21
183.867
  0
LINE
  8
0
 10
-13.4226
 20
183.867
 11
-13.3264
 21
183.663
  0
LINE
  8
0
 10
-13.3264
 20
183.663
 11
-13.2565
 21
183.448
  0
LINE
  8
0
 10
-13.2565
 20
183.448
 11
-13.2142
 21
183.226
  0
LINE
  8
0
 10
-13.2142
 20
183.226
 11
-13.2
 21
183
  0
LINE
  8
0
 10
-13.2
 20
183
 11
-13.2142
 21
182.774
  0
LINE
  8
0
 10
-13.2142
 20
182.774
 11
-13.2565
 21
182.552
  0
LINE
  8
0
 10
-13.2565
 20
182.552
 11
-13.3264
 21
182.337
  0
LINE
  8
0
 10
-13.3264
 20
182.337
 11
-13.4226
 21
182.133
  0
LINE
  8
0
 10
-13.4226
 20
182.133
 11
-13.5438
 21
181.942
  0
LINE
  8
0
 10
-13.5438
 20
181.942
 11
-13.6879
 21
181.768
  0
LINE
  8
0
 10
-13.6879
 20
181.768
 11
-13.8526
 21
181.613
  0
LINE
  8
0
 10
-13.8526
 20
181.613
 11
-14.0355
 21
181.48
  0
LINE
  8
0
 10
-14.0355
 20
181.48
 11
-14.2336
 21
181.371
  0
LINE
  8
0
 10
-14.2336
 20
181.371
 11
-14.4438
 21
181.288
  0
LINE
  8
0
 10
-14.4438
 20
181.288
 11
-14.6627
 21
181.232
  0
LINE
  8
0
 10
-14.6627
 20
181.232
 11
-14.887
 21
181.204
  0
LINE
  8
0
 10
-14.887
 20
181.204
 11
-15.113
 21
181.204
  0
ENDSEC
  0
SECTION
  2
OBJECTS
  0
DICTIONARY
  0
ENDSEC
  0
EOF
