<?xml version="1.0" standalone="no"?>
<!DOCTYPE svg PUBLIC "-//W3C//DTD SVG 1.1//EN" "http://www.w3.org/Graphics/SVG/1.1/DTD/svg11.dtd">
<svg width="137mm" height="100mm" viewBox="-69 -131 137 100" xmlns="http://www.w3.org/2000/svg" version="1.1">
<title>OpenSCAD Model</title>
<path d="
M 63.4369,-85.5886 L 64.0451,-85.7447 L 64.6289,-85.9759 L 65.1791,-86.2784 L 65.6871,-86.6474 L 66.1448,-87.0773
 L 66.5451,-87.5611 L 66.8815,-88.0912 L 67.1489,-88.6594 L 67.3429,-89.2566 L 67.4606,-89.8733 L 67.5,-90.5
 L 67.5,-125.5 L 67.4606,-126.127 L 67.3429,-126.743 L 67.1489,-127.341 L 66.8815,-127.909 L 66.5451,-128.439
 L 66.1448,-128.923 L 65.6871,-129.353 L 65.1791,-129.722 L 64.6289,-130.024 L 64.0451,-130.255 L 63.4369,-130.411
 L 62.8139,-130.49 L -62.8139,-130.49 L -63.4369,-130.411 L -64.0451,-130.255 L -64.6289,-130.024 L -65.1791,-129.722
 L -65.6871,-129.353 L -66,-129.059 L -66,-130.115 L -69,-130.115 L -69,-85.8852 L -66,-85.8852
 L -66,-86.9413 L -65.6871,-86.6474 L -65.1791,-86.2784 L -64.6289,-85.9759 L -64.0451,-85.7447 L -63.4369,-85.5886
 L -62.8139,-85.5099 L 62.8139,-85.5099 z
M 63.4369,-31.5886 L 64.0451,-31.7447 L 64.6289,-31.9759 L 65.1791,-32.2784 L 65.6871,-32.6474 L 66.1448,-33.0773
 L 66.5451,-33.5611 L 66.8815,-34.0912 L 67.1489,-34.6594 L 67.3429,-35.2566 L 67.4606,-35.8733 L 67.5,-36.5
 L 67.5,-71.5 L 67.4606,-72.1267 L 67.3429,-72.7434 L 67.1489,-73.3406 L 66.8815,-73.9088 L 66.5451,-74.4389
 L 66.1448,-74.9227 L 65.6871,-75.3526 L 65.1791,-75.7216 L 64.6289,-76.0241 L 64.0451,-76.2553 L 63.4369,-76.4114
 L 62.8139,-76.4901 L -62.8139,-76.4901 L -63.4369,-76.4114 L -64.0451,-76.2553 L -64.6289,-76.0241 L -65.1791,-75.7216
 L -65.6871,-75.3526 L -66.1448,-74.9227 L -66.5451,-74.4389 L -66.8815,-73.9088 L -67.1489,-73.3406 L -67.3429,-72.7434
 L -67.4,-72.4442 L -69,-72.4442 L -69,-35.5558 L -67.4,-35.5558 L -67.3429,-35.2566 L -67.1489,-34.6594
 L -66.8815,-34.0912 L -66.5451,-33.5611 L -66.1448,-33.0773 L -65.6871,-32.6474 L -65.1791,-32.2784 L -64.6289,-31.9759
 L -64.0451,-31.7447 L -63.4369,-31.5886 L -62.8139,-31.5099 L 62.8139,-31.5099 z
M 59.887,-67.2036 L 59.6627,-67.2319 L 59.4438,-67.2881 L 59.2336,-67.3713 L 59.0355,-67.4802 L 58.8526,-67.6131
 L 58.6879,-67.7678 L 58.5438,-67.942 L 58.4226,-68.1328 L 58.3264,-68.3374 L 58.2565,-68.5524 L 58.2142,-68.7744
 L 58.2,-69 L 58.2142,-69.2256 L 58.2565,-69.4476 L 58.3264,-69.6626 L 58.4226,-69.8671 L 58.5438,-70.058
 L 58.6879,-70.2322 L 58.8526,-70.3869 L 59.0355,-70.5198 L 59.2336,-70.6287 L 59.4438,-70.7119 L 59.6627,-70.7681
 L 59.887,-70.7964 L 60.113,-70.7964 L 60.3373,-70.7681 L 60.5562,-70.7119 L 60.7664,-70.6287 L 60.9645,-70.5198
 L 61.1474,-70.3869 L 61.3121,-70.2322 L 61.4562,-70.058 L 61.5773,-69.8671 L 61.6736,-69.6626 L 61.7434,-69.4476
 L 61.7858,-69.2256 L 61.8,-69 L 61.7858,-68.7744 L 61.7434,-68.5524 L 61.6736,-68.3374 L 61.5773,-68.1328
 L 61.4562,-67.942 L 61.3121,-67.7678 L 61.1474,-67.6131 L 60.9645,-67.4802 L 60.7664,-67.3713 L 60.5562,-67.2881
 L 60.3373,-67.2319 L 60.113,-67.2036 z
M -60.113,-67.2036 L -60.3373,-67.2319 L -60.5562,-67.2881 L -60.7664,-67.3713 L -60.9645,-67.4802 L -61.1474,-67.6131
 L -61.3121,-67.7678 L -61.4562,-67.942 L -61.5773,-68.1328 L -61.6736,-68.3374 L -61.7434,-68.5524 L -61.7858,-68.7744
 L -61.8,-69 L -61.7858,-69.2256 L -61.7434,-69.4476 L -61.6736,-69.6626 L -61.5773,-69.8671 L -61.4562,-70.058
 L -61.3121,-70.2322 L -61.1474,-70.3869 L -60.9645,-70.5198 L -60.7664,-70.6287 L -60.5562,-70.7119 L -60.3373,-70.7681
 L -60.113,-70.7964 L -59.887,-70.7964 L -59.6627,-70.7681 L -59.4438,-70.7119 L -59.2336,-70.6287 L -59.0355,-70.5198
 L -58.8526,-70.3869 L -58.6879,-70.2322 L -58.5438,-70.058 L -58.4226,-69.8671 L -58.3264,-69.6626 L -58.2565,-69.4476
 L -58.2142,-69.2256 L -58.2,-69 L -58.2142,-68.7744 L -58.2565,-68.5524 L -58.3264,-68.3374 L -58.4226,-68.1328
 L -58.5438,-67.942 L -58.6879,-67.7678 L -58.8526,-67.6131 L -59.0355,-67.4802 L -59.2336,-67.3713 L -59.4438,-67.2881
 L -59.6627,-67.2319 L -59.887,-67.2036 z
M 59.887,-37.2036 L 59.6627,-37.2319 L 59.4438,-37.2881 L 59.2336,-37.3713 L 59.0355,-37.4802 L 58.8526,-37.6131
 L 58.6879,-37.7678 L 58.5438,-37.942 L 58.4226,-38.1329 L 58.3264,-38.3374 L 58.2565,-38.5524 L 58.2142,-38.7744
 L 58.2,-39 L 58.2142,-39.2256 L 58.2565,-39.4476 L 58.3264,-39.6626 L 58.4226,-39.8672 L 58.5438,-40.058
 L 58.6879,-40.2322 L 58.8526,-40.3869 L 59.0355,-40.5198 L 59.2336,-40.6287 L 59.4438,-40.7119 L 59.6627,-40.7681
 L 59.887,-40.7964 L 60.113,-40.7964 L 60.3373,-40.7681 L 60.5562,-40.7119 L 60.7664,-40.6287 L 60.9645,-40.5198
 L 61.1474,-40.3869 L 61.3121,-40.2322 L 61.4562,-40.058 L 61.5773,-39.8672 L 61.6736,-39.6626 L 61.7434,-39.4476
 L 61.7858,-39.2256 L 61.8,-39 L 61.7858,-38.7744 L 61.7434,-38.5524 L 61.6736,-38.3374 L 61.5773,-38.1329
 L 61.4562,-37.942 L 61.3121,-37.7678 L 61.1474,-37.6131 L 60.9645,-37.4802 L 60.7664,-37.3713 L 60.5562,-37.2881
 L 60.3373,-37.2319 L 60.113,-37.2036 z
M -60.113,-37.2036 L -60.3373,-37.2319 L -60.5562,-37.2881 L -60.7664,-37.3713 L -60.9645,-37.4802 L -61.1474,-37.6131
 L -61.3121,-37.7678 L -61.4562,-37.942 L -61.5773,-38.1329 L -61.6736,-38.3374 L -61.7434,-38.5524 L -61.7858,-38.7744
 L -61.8,-39 L -61.7858,-39.2256 L -61.7434,-39.4476 L -61.6736,-39.6626 L -61.5773,-39.8672 L -61.4562,-40.058
 L -61.3121,-40.2322 L -61.1474,-40.3869 L -60.9645,-40.5198 L -60.7664,-40.6287 L -60.5562,-40.7119 L -60.3373,-40.7681
 L -60.113,-40.7964 L -59.887,-40.7964 L -59.6627,-40.7681 L -59.4438,-40.7119 L -59.2336,-40.6287 L -59.0355,-40.5198
 L -58.8526,-40.3869 L -58.6879,-40.2322 L -58.5438,-40.058 L -58.4226,-39.8672 L -58.3264,-39.6626 L -58.2565,-39.4476
 L -58.2142,-39.2256 L -58.2,-39 L -58.2142,-38.7744 L -58.2565,-38.5524 L -58.3264,-38.3374 L -58.4226,-38.1329
 L -58.5438,-37.942 L -58.6879,-37.7678 L -58.8526,-37.6131 L -59.0355,-37.4802 L -59.2336,-37.3713 L -59.4438,-37.2881
 L -59.6627,-37.2319 L -59.887,-37.2036 z
" stroke="black" fill="lightgray" stroke-width="0.5"/>
</svg>
