<?xml version="1.0" standalone="no"?>
<!DOCTYPE svg PUBLIC "-//W3C//DTD SVG 1.1//EN" "http://www.w3.org/Graphics/SVG/1.1/DTD/svg11.dtd">
<svg width="60mm" height="129mm" viewBox="-30 -168 60 129" xmlns="http://www.w3.org/2000/svg" version="1.1">
<title>OpenSCAD Model</title>
<path d="
M 25.9369,-108.089 L 26.5451,-108.245 L 27.1289,-108.476 L 27.6791,-108.778 L 28.1871,-109.147 L 28.6448,-109.577
 L 29.0451,-110.061 L 29.3815,-110.591 L 29.6489,-111.159 L 29.8429,-111.757 L 29.9606,-112.373 L 30,-113
 L 30,-163 L 29.9606,-163.627 L 29.8429,-164.243 L 29.6489,-164.841 L 29.3815,-165.409 L 29.0451,-165.939
 L 28.6448,-166.423 L 28.1871,-166.853 L 27.6791,-167.222 L 27.1289,-167.524 L 26.5451,-167.755 L 25.9369,-167.911
 L 25.3139,-167.99 L -25.3139,-167.99 L -25.9369,-167.911 L -26.5451,-167.755 L -27.1289,-167.524 L -27.6791,-167.222
 L -28.1871,-166.853 L -28.6448,-166.423 L -29.0451,-165.939 L -29.3815,-165.409 L -29.6489,-164.841 L -29.8429,-164.243
 L -29.9606,-163.627 L -30,-163 L -30,-113 L -29.9606,-112.373 L -29.8429,-111.757 L -29.6489,-111.159
 L -29.3815,-110.591 L -29.0451,-110.061 L -28.6448,-109.577 L -28.1871,-109.147 L -27.6791,-108.778 L -27.1289,-108.476
 L -26.5451,-108.245 L -25.9369,-108.089 L -25.3139,-108.01 L 25.3139,-108.01 z
M 25.9369,-39.0886 L 26.5451,-39.2447 L 27.1289,-39.4759 L 27.6791,-39.7784 L 28.1871,-40.1474 L 28.6448,-40.5773
 L 29.0451,-41.0611 L 29.3815,-41.5912 L 29.6489,-42.1594 L 29.8429,-42.7566 L 29.9606,-43.3733 L 30,-44
 L 30,-94 L 29.9606,-94.6267 L 29.8429,-95.2434 L 29.6489,-95.8406 L 29.3815,-96.4088 L 29.0451,-96.9389
 L 28.6448,-97.4227 L 28.1871,-97.8526 L 27.6791,-98.2216 L 27.1289,-98.5241 L 26.5451,-98.7553 L 25.9369,-98.9114
 L 25.3139,-98.9901 L -25.3139,-98.9901 L -25.9369,-98.9114 L -26.5451,-98.7553 L -27.1289,-98.5241 L -27.6791,-98.2216
 L -28.1871,-97.8526 L -28.6448,-97.4227 L -29.0451,-96.9389 L -29.3815,-96.4088 L -29.6489,-95.8406 L -29.8429,-95.2434
 L -29.9606,-94.6267 L -30,-94 L -30,-44 L -29.9606,-43.3733 L -29.8429,-42.7566 L -29.6489,-42.1594
 L -29.3815,-41.5912 L -29.0451,-41.0611 L -28.6448,-40.5773 L -28.1871,-40.1474 L -27.6791,-39.7784 L -27.1289,-39.4759
 L -26.5451,-39.2447 L -25.9369,-39.0886 L -25.3139,-39.0099 L 25.3139,-39.0099 z
M 22.387,-89.7036 L 22.1627,-89.7319 L 21.9438,-89.7881 L 21.7336,-89.8713 L 21.5355,-89.9802 L 21.3526,-90.1131
 L 21.1879,-90.2678 L 21.0438,-90.442 L 20.9226,-90.6328 L 20.8264,-90.8374 L 20.7565,-91.0524 L 20.7142,-91.2744
 L 20.7,-91.5 L 20.7142,-91.7256 L 20.7565,-91.9476 L 20.8264,-92.1626 L 20.9226,-92.3672 L 21.0438,-92.558
 L 21.1879,-92.7322 L 21.3526,-92.8869 L 21.5355,-93.0198 L 21.7336,-93.1287 L 21.9438,-93.2119 L 22.1627,-93.2681
 L 22.387,-93.2964 L 22.613,-93.2964 L 22.8373,-93.2681 L 23.0562,-93.2119 L 23.2664,-93.1287 L 23.4645,-93.0198
 L 23.6474,-92.8869 L 23.8121,-92.7322 L 23.9562,-92.558 L 24.0773,-92.3672 L 24.1736,-92.1626 L 24.2434,-91.9476
 L 24.2858,-91.7256 L 24.3,-91.5 L 24.2858,-91.2744 L 24.2434,-91.0524 L 24.1736,-90.8374 L 24.0773,-90.6328
 L 23.9562,-90.442 L 23.8121,-90.2678 L 23.6474,-90.1131 L 23.4645,-89.9802 L 23.2664,-89.8713 L 23.0562,-89.7881
 L 22.8373,-89.7319 L 22.613,-89.7036 z
M -22.613,-89.7036 L -22.8373,-89.7319 L -23.0562,-89.7881 L -23.2664,-89.8713 L -23.4645,-89.9802 L -23.6474,-90.1131
 L -23.8121,-90.2678 L -23.9562,-90.442 L -24.0773,-90.6328 L -24.1736,-90.8374 L -24.2434,-91.0524 L -24.2858,-91.2744
 L -24.3,-91.5 L -24.2858,-91.7256 L -24.2434,-91.9476 L -24.1736,-92.1626 L -24.0773,-92.3672 L -23.9562,-92.558
 L -23.8121,-92.7322 L -23.6474,-92.8869 L -23.4645,-93.0198 L -23.2664,-93.1287 L -23.0562,-93.2119 L -22.8373,-93.2681
 L -22.613,-93.2964 L -22.387,-93.2964 L -22.1627,-93.2681 L -21.9438,-93.2119 L -21.7336,-93.1287 L -21.5355,-93.0198
 L -21.3526,-92.8869 L -21.1879,-92.7322 L -21.0438,-92.558 L -20.9226,-92.3672 L -20.8264,-92.1626 L -20.7565,-91.9476
 L -20.7142,-91.7256 L -20.7,-91.5 L -20.7142,-91.2744 L -20.7565,-91.0524 L -20.8264,-90.8374 L -20.9226,-90.6328
 L -21.0438,-90.442 L -21.1879,-90.2678 L -21.3526,-90.1131 L -21.5355,-89.9802 L -21.7336,-89.8713 L -21.9438,-89.7881
 L -22.1627,-89.7319 L -22.387,-89.7036 z
M -22.613,-44.7036 L -22.8373,-44.7319 L -23.0562,-44.7881 L -23.2664,-44.8713 L -23.4645,-44.9802 L -23.6474,-45.1131
 L -23.8121,-45.2678 L -23.9562,-45.442 L -24.0773,-45.6328 L -24.1736,-45.8374 L -24.2434,-46.0524 L -24.2858,-46.2744
 L -24.3,-46.5 L -24.2858,-46.7256 L -24.2434,-46.9476 L -24.1736,-47.1626 L -24.0773,-47.3672 L -23.9562,-47.558
 L -23.8121,-47.7322 L -23.6474,-47.8869 L -23.4645,-48.0198 L -23.2664,-48.1287 L -23.0562,-48.2119 L -22.8373,-48.2681
 L -22.613,-48.2964 L -22.387,-48.2964 L -22.1627,-48.2681 L -21.9438,-48.2119 L -21.7336,-48.1287 L -21.5355,-48.0198
 L -21.3526,-47.8869 L -21.1879,-47.7322 L -21.0438,-47.558 L -20.9226,-47.3672 L -20.8264,-47.1626 L -20.7565,-46.9476
 L -20.7142,-46.7256 L -20.7,-46.5 L -20.7142,-46.2744 L -20.7565,-46.0524 L -20.8264,-45.8374 L -20.9226,-45.6328
 L -21.0438,-45.442 L -21.1879,-45.2678 L -21.3526,-45.1131 L -21.5355,-44.9802 L -21.7336,-44.8713 L -21.9438,-44.7881
 L -22.1627,-44.7319 L -22.387,-44.7036 z
M 22.387,-44.7036 L 22.1627,-44.7319 L 21.9438,-44.7881 L 21.7336,-44.8713 L 21.5355,-44.9802 L 21.3526,-45.1131
 L 21.1879,-45.2678 L 21.0438,-45.442 L 20.9226,-45.6328 L 20.8264,-45.8374 L 20.7565,-46.0524 L 20.7142,-46.2744
 L 20.7,-46.5 L 20.7142,-46.7256 L 20.7565,-46.9476 L 20.8264,-47.1626 L 20.9226,-47.3672 L 21.0438,-47.558
 L 21.1879,-47.7322 L 21.3526,-47.8869 L 21.5355,-48.0198 L 21.7336,-48.1287 L 21.9438,-48.2119 L 22.1627,-48.2681
 L 22.387,-48.2964 L 22.613,-48.2964 L 22.8373,-48.2681 L 23.0562,-48.2119 L 23.2664,-48.1287 L 23.4645,-48.0198
 L 23.6474,-47.8869 L 23.8121,-47.7322 L 23.9562,-47.558 L 24.0773,-47.3672 L 24.1736,-47.1626 L 24.2434,-46.9476
 L 24.2858,-46.7256 L 24.3,-46.5 L 24.2858,-46.2744 L 24.2434,-46.0524 L 24.1736,-45.8374 L 24.0773,-45.6328
 L 23.9562,-45.442 L 23.8121,-45.2678 L 23.6474,-45.1131 L 23.4645,-44.9802 L 23.2664,-44.8713 L 23.0562,-44.7881
 L 22.8373,-44.7319 L 22.613,-44.7036 z
" stroke="black" fill="lightgray" stroke-width="0.5"/>
</svg>
