<?xml version="1.0" standalone="no"?>
<!DOCTYPE svg PUBLIC "-//W3C//DTD SVG 1.1//EN" "http://www.w3.org/Graphics/SVG/1.1/DTD/svg11.dtd">
<svg width="46mm" height="160mm" viewBox="-23 -290 46 160" xmlns="http://www.w3.org/2000/svg" version="1.1">
<title>OpenSCAD Model</title>
<path d="
M 18.4369,-214.589 L 19.0451,-214.745 L 19.6289,-214.976 L 20.1791,-215.278 L 20.6871,-215.647 L 21.1448,-216.077
 L 21.5451,-216.561 L 21.8815,-217.091 L 22.1489,-217.659 L 22.3429,-218.257 L 22.4606,-218.873 L 22.5,-219.5
 L 22.5,-284.5 L 22.4606,-285.127 L 22.3429,-285.743 L 22.1489,-286.341 L 21.8815,-286.909 L 21.5451,-287.439
 L 21.1448,-287.923 L 20.6871,-288.353 L 20.1791,-288.722 L 19.6289,-289.024 L 19.0451,-289.255 L 18.4369,-289.411
 L 17.8139,-289.49 L -17.8139,-289.49 L -18.4369,-289.411 L -19.0451,-289.255 L -19.6289,-289.024 L -20.1791,-288.722
 L -20.6871,-288.353 L -21.1448,-287.923 L -21.5451,-287.439 L -21.8815,-286.909 L -22.1489,-286.341 L -22.3429,-285.743
 L -22.4606,-285.127 L -22.5,-284.5 L -22.5,-219.5 L -22.4606,-218.873 L -22.3429,-218.257 L -22.1489,-217.659
 L -21.8815,-217.091 L -21.5451,-216.561 L -21.1448,-216.077 L -20.6871,-215.647 L -20.1791,-215.278 L -19.6289,-214.976
 L -19.0451,-214.745 L -18.4369,-214.589 L -17.8139,-214.51 L 17.8139,-214.51 z
M -17.1954,-216.893 L -17.5833,-216.942 L -17.9619,-217.039 L -18.3254,-217.183 L -18.668,-217.372 L -18.9842,-217.601
 L -19.2692,-217.869 L -19.5184,-218.17 L -19.7279,-218.5 L -19.8943,-218.854 L -20.0151,-219.226 L -20.0884,-219.61
 L -20.1129,-220 L -20.1129,-284 L -20.0884,-284.39 L -20.0151,-284.774 L -19.8943,-285.146 L -19.7279,-285.5
 L -19.5184,-285.83 L -19.2692,-286.131 L -18.9842,-286.399 L -18.668,-286.628 L -18.3254,-286.817 L -17.9619,-286.961
 L -17.5833,-287.058 L -17.1954,-287.107 L 17.1954,-287.107 L 17.5833,-287.058 L 17.9619,-286.961 L 18.3254,-286.817
 L 18.668,-286.628 L 18.9842,-286.399 L 19.2692,-286.131 L 19.5184,-285.83 L 19.7279,-285.5 L 19.8943,-285.146
 L 20.0151,-284.774 L 20.0884,-284.39 L 20.1129,-284 L 20.1129,-220 L 20.0884,-219.61 L 20.0151,-219.226
 L 19.8943,-218.854 L 19.7279,-218.5 L 19.5184,-218.17 L 19.2692,-217.869 L 18.9842,-217.601 L 18.668,-217.372
 L 18.3254,-217.183 L 17.9619,-217.039 L 17.5833,-216.942 L 17.1954,-216.893 z
M 18.4369,-130.589 L 19.0451,-130.745 L 19.6289,-130.976 L 20.1791,-131.278 L 20.6871,-131.647 L 21.1448,-132.077
 L 21.5451,-132.561 L 21.8815,-133.091 L 22.1489,-133.659 L 22.3429,-134.257 L 22.4606,-134.873 L 22.5,-135.5
 L 22.5,-200.5 L 22.4606,-201.127 L 22.3429,-201.743 L 22.1489,-202.341 L 21.8815,-202.909 L 21.5451,-203.439
 L 21.1448,-203.923 L 20.6871,-204.353 L 20.1791,-204.722 L 19.6289,-205.024 L 19.0451,-205.255 L 18.4369,-205.411
 L 17.8139,-205.49 L -17.8139,-205.49 L -18.4369,-205.411 L -19.0451,-205.255 L -19.6289,-205.024 L -20.1791,-204.722
 L -20.6871,-204.353 L -21.1448,-203.923 L -21.5451,-203.439 L -21.8815,-202.909 L -22.1489,-202.341 L -22.3429,-201.743
 L -22.4606,-201.127 L -22.5,-200.5 L -22.5,-135.5 L -22.4606,-134.873 L -22.3429,-134.257 L -22.1489,-133.659
 L -21.8815,-133.091 L -21.5451,-132.561 L -21.1448,-132.077 L -20.6871,-131.647 L -20.1791,-131.278 L -19.6289,-130.976
 L -19.0451,-130.745 L -18.4369,-130.589 L -17.8139,-130.51 L 17.8139,-130.51 z
M 14.8659,-195.869 L 14.5999,-195.903 L 14.3401,-195.969 L 14.0908,-196.068 L 13.8559,-196.197 L 13.6389,-196.355
 L 13.4434,-196.538 L 13.2725,-196.745 L 13.1288,-196.971 L 13.0146,-197.214 L 12.9318,-197.469 L 12.8815,-197.732
 L 12.8647,-198 L 12.8815,-198.268 L 12.9318,-198.531 L 13.0146,-198.786 L 13.1288,-199.029 L 13.2725,-199.255
 L 13.4434,-199.462 L 13.6389,-199.645 L 13.8559,-199.803 L 14.0908,-199.932 L 14.3401,-200.031 L 14.5999,-200.097
 L 14.8659,-200.131 L 15.1341,-200.131 L 15.4001,-200.097 L 15.6598,-200.031 L 15.9091,-199.932 L 16.1441,-199.803
 L 16.3611,-199.645 L 16.5565,-199.462 L 16.7275,-199.255 L 16.8712,-199.029 L 16.9853,-198.786 L 17.0682,-198.531
 L 17.1185,-198.268 L 17.1353,-198 L 17.1185,-197.732 L 17.0682,-197.469 L 16.9853,-197.214 L 16.8712,-196.971
 L 16.7275,-196.745 L 16.5565,-196.538 L 16.3611,-196.355 L 16.1441,-196.197 L 15.9091,-196.068 L 15.6598,-195.969
 L 15.4001,-195.903 L 15.1341,-195.869 z
M -15.1341,-195.869 L -15.4001,-195.903 L -15.6598,-195.969 L -15.9091,-196.068 L -16.1441,-196.197 L -16.3611,-196.355
 L -16.5565,-196.538 L -16.7275,-196.745 L -16.8712,-196.971 L -16.9853,-197.214 L -17.0682,-197.469 L -17.1185,-197.732
 L -17.1353,-198 L -17.1185,-198.268 L -17.0682,-198.531 L -16.9853,-198.786 L -16.8712,-199.029 L -16.7275,-199.255
 L -16.5565,-199.462 L -16.3611,-199.645 L -16.1441,-199.803 L -15.9091,-199.932 L -15.6598,-200.031 L -15.4001,-200.097
 L -15.1341,-200.131 L -14.8659,-200.131 L -14.5999,-200.097 L -14.3401,-200.031 L -14.0908,-199.932 L -13.8559,-199.803
 L -13.6389,-199.645 L -13.4434,-199.462 L -13.2725,-199.255 L -13.1288,-199.029 L -13.0146,-198.786 L -12.9318,-198.531
 L -12.8815,-198.268 L -12.8647,-198 L -12.8815,-197.732 L -12.9318,-197.469 L -13.0146,-197.214 L -13.1288,-196.971
 L -13.2725,-196.745 L -13.4434,-196.538 L -13.6389,-196.355 L -13.8559,-196.197 L -14.0908,-196.068 L -14.3401,-195.969
 L -14.5999,-195.903 L -14.8659,-195.869 z
M 14.8659,-135.869 L 14.5999,-135.903 L 14.3401,-135.969 L 14.0908,-136.068 L 13.8559,-136.197 L 13.6389,-136.355
 L 13.4434,-136.538 L 13.2725,-136.745 L 13.1288,-136.971 L 13.0146,-137.214 L 12.9318,-137.469 L 12.8815,-137.732
 L 12.8647,-138 L 12.8815,-138.268 L 12.9318,-138.531 L 13.0146,-138.786 L 13.1288,-139.029 L 13.2725,-139.255
 L 13.4434,-139.462 L 13.6389,-139.645 L 13.8559,-139.803 L 14.0908,-139.932 L 14.3401,-140.031 L 14.5999,-140.097
 L 14.8659,-140.131 L 15.1341,-140.131 L 15.4001,-140.097 L 15.6598,-140.031 L 15.9091,-139.932 L 16.1441,-139.803
 L 16.3611,-139.645 L 16.5565,-139.462 L 16.7275,-139.255 L 16.8712,-139.029 L 16.9853,-138.786 L 17.0682,-138.531
 L 17.1185,-138.268 L 17.1353,-138 L 17.1185,-137.732 L 17.0682,-137.469 L 16.9853,-137.214 L 16.8712,-136.971
 L 16.7275,-136.745 L 16.5565,-136.538 L 16.3611,-136.355 L 16.1441,-136.197 L 15.9091,-136.068 L 15.6598,-135.969
 L 15.4001,-135.903 L 15.1341,-135.869 z
M -15.1341,-135.869 L -15.4001,-135.903 L -15.6598,-135.969 L -15.9091,-136.068 L -16.1441,-136.197 L -16.3611,-136.355
 L -16.5565,-136.538 L -16.7275,-136.745 L -16.8712,-136.971 L -16.9853,-137.214 L -17.0682,-137.469 L -17.1185,-137.732
 L -17.1353,-138 L -17.1185,-138.268 L -17.0682,-138.531 L -16.9853,-138.786 L -16.8712,-139.029 L -16.7275,-139.255
 L -16.5565,-139.462 L -16.3611,-139.645 L -16.1441,-139.803 L -15.9091,-139.932 L -15.6598,-140.031 L -15.4001,-140.097
 L -15.1341,-140.131 L -14.8659,-140.131 L -14.5999,-140.097 L -14.3401,-140.031 L -14.0908,-139.932 L -13.8559,-139.803
 L -13.6389,-139.645 L -13.4434,-139.462 L -13.2725,-139.255 L -13.1288,-139.029 L -13.0146,-138.786 L -12.9318,-138.531
 L -12.8815,-138.268 L -12.8647,-138 L -12.8815,-137.732 L -12.9318,-137.469 L -13.0146,-137.214 L -13.1288,-136.971
 L -13.2725,-136.745 L -13.4434,-136.538 L -13.6389,-136.355 L -13.8559,-136.197 L -14.0908,-136.068 L -14.3401,-135.969
 L -14.5999,-135.903 L -14.8659,-135.869 z
" stroke="black" fill="lightgray" stroke-width="0.5"/>
</svg>
