  0
SECTION
  2
BLOCKS
  0
ENDSEC
  0
SECTION
  2
ENTITIES
  0
LINE
  8
0
 10
18.4369
 20
139.589
 11
19.0451
 21
139.745
  0
LINE
  8
0
 10
19.0451
 20
139.745
 11
19.6289
 21
139.976
  0
LINE
  8
0
 10
19.6289
 20
139.976
 11
20.1791
 21
140.278
  0
LINE
  8
0
 10
20.1791
 20
140.278
 11
20.6871
 21
140.647
  0
LINE
  8
0
 10
20.6871
 20
140.647
 11
21.1448
 21
141.077
  0
LINE
  8
0
 10
21.1448
 20
141.077
 11
21.5451
 21
141.561
  0
LINE
  8
0
 10
21.5451
 20
141.561
 11
21.8815
 21
142.091
  0
LINE
  8
0
 10
21.8815
 20
142.091
 11
22.1489
 21
142.659
  0
LINE
  8
0
 10
22.1489
 20
142.659
 11
22.3429
 21
143.257
  0
LINE
  8
0
 10
22.3429
 20
143.257
 11
22.4606
 21
143.873
  0
LINE
  8
0
 10
22.4606
 20
143.873
 11
22.5
 21
144.5
  0
LINE
  8
0
 10
22.5
 20
144.5
 11
22.5
 21
179.5
  0
LINE
  8
0
 10
22.5
 20
179.5
 11
22.4606
 21
180.127
  0
LINE
  8
0
 10
22.4606
 20
180.127
 11
22.3429
 21
180.743
  0
LINE
  8
0
 10
22.3429
 20
180.743
 11
22.1489
 21
181.341
  0
LINE
  8
0
 10
22.1489
 20
181.341
 11
21.8815
 21
181.909
  0
LINE
  8
0
 10
21.8815
 20
181.909
 11
21.5451
 21
182.439
  0
LINE
  8
0
 10
21.5451
 20
182.439
 11
21.1448
 21
182.923
  0
LINE
  8
0
 10
21.1448
 20
182.923
 11
20.6871
 21
183.353
  0
LINE
  8
0
 10
20.6871
 20
183.353
 11
20.1791
 21
183.722
  0
LINE
  8
0
 10
20.1791
 20
183.722
 11
19.6289
 21
184.024
  0
LINE
  8
0
 10
19.6289
 20
184.024
 11
19.0451
 21
184.255
  0
LINE
  8
0
 10
19.0451
 20
184.255
 11
18.4369
 21
184.411
  0
LINE
  8
0
 10
18.4369
 20
184.411
 11
17.8139
 21
184.49
  0
LINE
  8
0
 10
17.8139
 20
184.49
 11
-17.8139
 21
184.49
  0
LINE
  8
0
 10
-17.8139
 20
184.49
 11
-18.4369
 21
184.411
  0
LINE
  8
0
 10
-18.4369
 20
184.411
 11
-19.0451
 21
184.255
  0
LINE
  8
0
 10
-19.0451
 20
184.255
 11
-19.6289
 21
184.024
  0
LINE
  8
0
 10
-19.6289
 20
184.024
 11
-20.1791
 21
183.722
  0
LINE
  8
0
 10
-20.1791
 20
183.722
 11
-20.6871
 21
183.353
  0
LINE
  8
0
 10
-20.6871
 20
183.353
 11
-21
 21
183.059
  0
LINE
  8
0
 10
-21
 20
183.059
 11
-21
 21
184.479
  0
LINE
  8
0
 10
-21
 20
184.479
 11
-24
 21
184.479
  0
LINE
  8
0
 10
-24
 20
184.479
 11
-24
 21
139.521
  0
LINE
  8
0
 10
-24
 20
139.521
 11
-21
 21
139.521
  0
LINE
  8
0
 10
-21
 20
139.521
 11
-21
 21
140.941
  0
LINE
  8
0
 10
-21
 20
140.941
 11
-20.6871
 21
140.647
  0
LINE
  8
0
 10
-20.6871
 20
140.647
 11
-20.1791
 21
140.278
  0
LINE
  8
0
 10
-20.1791
 20
140.278
 11
-19.6289
 21
139.976
  0
LINE
  8
0
 10
-19.6289
 20
139.976
 11
-19.0451
 21
139.745
  0
LINE
  8
0
 10
-19.0451
 20
139.745
 11
-18.4369
 21
139.589
  0
LINE
  8
0
 10
-18.4369
 20
139.589
 11
-17.8139
 21
139.51
  0
LINE
  8
0
 10
-17.8139
 20
139.51
 11
17.8139
 21
139.51
  0
LINE
  8
0
 10
17.8139
 20
139.51
 11
18.4369
 21
139.589
  0
LINE
  8
0
 10
-17.1954
 20
141.893
 11
-17.5833
 21
141.942
  0
LINE
  8
0
 10
-17.5833
 20
141.942
 11
-17.9619
 21
142.039
  0
LINE
  8
0
 10
-17.9619
 20
142.039
 11
-18.3254
 21
142.183
  0
LINE
  8
0
 10
-18.3254
 20
142.183
 11
-18.668
 21
142.372
  0
LINE
  8
0
 10
-18.668
 20
142.372
 11
-18.9842
 21
142.601
  0
LINE
  8
0
 10
-18.9842
 20
142.601
 11
-19.2692
 21
142.869
  0
LINE
  8
0
 10
-19.2692
 20
142.869
 11
-19.5184
 21
143.17
  0
LINE
  8
0
 10
-19.5184
 20
143.17
 11
-19.7279
 21
143.5
  0
LINE
  8
0
 10
-19.7279
 20
143.5
 11
-19.8943
 21
143.854
  0
LINE
  8
0
 10
-19.8943
 20
143.854
 11
-20.0151
 21
144.226
  0
LINE
  8
0
 10
-20.0151
 20
144.226
 11
-20.0884
 21
144.61
  0
LINE
  8
0
 10
-20.0884
 20
144.61
 11
-20.1129
 21
145
  0
LINE
  8
0
 10
-20.1129
 20
145
 11
-20.1129
 21
179
  0
LINE
  8
0
 10
-20.1129
 20
179
 11
-20.0884
 21
179.39
  0
LINE
  8
0
 10
-20.0884
 20
179.39
 11
-20.0151
 21
179.774
  0
LINE
  8
0
 10
-20.0151
 20
179.774
 11
-19.8943
 21
180.146
  0
LINE
  8
0
 10
-19.8943
 20
180.146
 11
-19.7279
 21
180.5
  0
LINE
  8
0
 10
-19.7279
 20
180.5
 11
-19.5184
 21
180.83
  0
LINE
  8
0
 10
-19.5184
 20
180.83
 11
-19.2692
 21
181.131
  0
LINE
  8
0
 10
-19.2692
 20
181.131
 11
-18.9842
 21
181.399
  0
LINE
  8
0
 10
-18.9842
 20
181.399
 11
-18.668
 21
181.628
  0
LINE
  8
0
 10
-18.668
 20
181.628
 11
-18.3254
 21
181.817
  0
LINE
  8
0
 10
-18.3254
 20
181.817
 11
-17.9619
 21
181.961
  0
LINE
  8
0
 10
-17.9619
 20
181.961
 11
-17.5833
 21
182.058
  0
LINE
  8
0
 10
-17.5833
 20
182.058
 11
-17.1954
 21
182.107
  0
LINE
  8
0
 10
-17.1954
 20
182.107
 11
17.1954
 21
182.107
  0
LINE
  8
0
 10
17.1954
 20
182.107
 11
17.5833
 21
182.058
  0
LINE
  8
0
 10
17.5833
 20
182.058
 11
17.9619
 21
181.961
  0
LINE
  8
0
 10
17.9619
 20
181.961
 11
18.3254
 21
181.817
  0
LINE
  8
0
 10
18.3254
 20
181.817
 11
18.668
 21
181.628
  0
LINE
  8
0
 10
18.668
 20
181.628
 11
18.9842
 21
181.399
  0
LINE
  8
0
 10
18.9842
 20
181.399
 11
19.2692
 21
181.131
  0
LINE
  8
0
 10
19.2692
 20
181.131
 11
19.5184
 21
180.83
  0
LINE
  8
0
 10
19.5184
 20
180.83
 11
19.7279
 21
180.5
  0
LINE
  8
0
 10
19.7279
 20
180.5
 11
19.8943
 21
180.146
  0
LINE
  8
0
 10
19.8943
 20
180.146
 11
20.0151
 21
179.774
  0
LINE
  8
0
 10
20.0151
 20
179.774
 11
20.0884
 21
179.39
  0
LINE
  8
0
 10
20.0884
 20
179.39
 11
20.1129
 21
179
  0
LINE
  8
0
 10
20.1129
 20
179
 11
20.1129
 21
145
  0
LINE
  8
0
 10
20.1129
 20
145
 11
20.0884
 21
144.61
  0
LINE
  8
0
 10
20.0884
 20
144.61
 11
20.0151
 21
144.226
  0
LINE
  8
0
 10
20.0151
 20
144.226
 11
19.8943
 21
143.854
  0
LINE
  8
0
 10
19.8943
 20
143.854
 11
19.7279
 21
143.5
  0
LINE
  8
0
 10
19.7279
 20
143.5
 11
19.5184
 21
143.17
  0
LINE
  8
0
 10
19.5184
 20
143.17
 11
19.2692
 21
142.869
  0
LINE
  8
0
 10
19.2692
 20
142.869
 11
18.9842
 21
142.601
  0
LINE
  8
0
 10
18.9842
 20
142.601
 11
18.668
 21
142.372
  0
LINE
  8
0
 10
18.668
 20
142.372
 11
18.3254
 21
142.183
  0
LINE
  8
0
 10
18.3254
 20
142.183
 11
17.9619
 21
142.039
  0
LINE
  8
0
 10
17.9619
 20
142.039
 11
17.5833
 21
141.942
  0
LINE
  8
0
 10
17.5833
 20
141.942
 11
17.1954
 21
141.893
  0
LINE
  8
0
 10
17.1954
 20
141.893
 11
-17.1954
 21
141.893
  0
LINE
  8
0
 10
18.4369
 20
85.5886
 11
19.0451
 21
85.7447
  0
LINE
  8
0
 10
19.0451
 20
85.7447
 11
19.6289
 21
85.9759
  0
LINE
  8
0
 10
19.6289
 20
85.9759
 11
20.1791
 21
86.2784
  0
LINE
  8
0
 10
20.1791
 20
86.2784
 11
20.6871
 21
86.6474
  0
LINE
  8
0
 10
20.6871
 20
86.6474
 11
21.1448
 21
87.0773
  0
LINE
  8
0
 10
21.1448
 20
87.0773
 11
21.5451
 21
87.5611
  0
LINE
  8
0
 10
21.5451
 20
87.5611
 11
21.8815
 21
88.0912
  0
LINE
  8
0
 10
21.8815
 20
88.0912
 11
22.1489
 21
88.6594
  0
LINE
  8
0
 10
22.1489
 20
88.6594
 11
22.3429
 21
89.2566
  0
LINE
  8
0
 10
22.3429
 20
89.2566
 11
22.4606
 21
89.8733
  0
LINE
  8
0
 10
22.4606
 20
89.8733
 11
22.5
 21
90.5
  0
LINE
  8
0
 10
22.5
 20
90.5
 11
22.5
 21
125.5
  0
LINE
  8
0
 10
22.5
 20
125.5
 11
22.4606
 21
126.127
  0
LINE
  8
0
 10
22.4606
 20
126.127
 11
22.3429
 21
126.743
  0
LINE
  8
0
 10
22.3429
 20
126.743
 11
22.1489
 21
127.341
  0
LINE
  8
0
 10
22.1489
 20
127.341
 11
21.8815
 21
127.909
  0
LINE
  8
0
 10
21.8815
 20
127.909
 11
21.5451
 21
128.439
  0
LINE
  8
0
 10
21.5451
 20
128.439
 11
21.1448
 21
128.923
  0
LINE
  8
0
 10
21.1448
 20
128.923
 11
20.6871
 21
129.353
  0
LINE
  8
0
 10
20.6871
 20
129.353
 11
20.1791
 21
129.722
  0
LINE
  8
0
 10
20.1791
 20
129.722
 11
19.6289
 21
130.024
  0
LINE
  8
0
 10
19.6289
 20
130.024
 11
19.0451
 21
130.255
  0
LINE
  8
0
 10
19.0451
 20
130.255
 11
18.4369
 21
130.411
  0
LINE
  8
0
 10
18.4369
 20
130.411
 11
17.8139
 21
130.49
  0
LINE
  8
0
 10
17.8139
 20
130.49
 11
-17.8139
 21
130.49
  0
LINE
  8
0
 10
-17.8139
 20
130.49
 11
-18.4369
 21
130.411
  0
LINE
  8
0
 10
-18.4369
 20
130.411
 11
-19.0451
 21
130.255
  0
LINE
  8
0
 10
-19.0451
 20
130.255
 11
-19.6289
 21
130.024
  0
LINE
  8
0
 10
-19.6289
 20
130.024
 11
-20.1791
 21
129.722
  0
LINE
  8
0
 10
-20.1791
 20
129.722
 11
-20.6871
 21
129.353
  0
LINE
  8
0
 10
-20.6871
 20
129.353
 11
-21
 21
129.059
  0
LINE
  8
0
 10
-21
 20
129.059
 11
-21
 21
129.153
  0
LINE
  8
0
 10
-21
 20
129.153
 11
-24
 21
129.153
  0
LINE
  8
0
 10
-24
 20
129.153
 11
-24
 21
86.8474
  0
LINE
  8
0
 10
-24
 20
86.8474
 11
-21
 21
86.8474
  0
LINE
  8
0
 10
-21
 20
86.8474
 11
-21
 21
86.9413
  0
LINE
  8
0
 10
-21
 20
86.9413
 11
-20.6871
 21
86.6474
  0
LINE
  8
0
 10
-20.6871
 20
86.6474
 11
-20.1791
 21
86.2784
  0
LINE
  8
0
 10
-20.1791
 20
86.2784
 11
-19.6289
 21
85.9759
  0
LINE
  8
0
 10
-19.6289
 20
85.9759
 11
-19.0451
 21
85.7447
  0
LINE
  8
0
 10
-19.0451
 20
85.7447
 11
-18.4369
 21
85.5886
  0
LINE
  8
0
 10
-18.4369
 20
85.5886
 11
-17.8139
 21
85.5099
  0
LINE
  8
0
 10
-17.8139
 20
85.5099
 11
17.8139
 21
85.5099
  0
LINE
  8
0
 10
17.8139
 20
85.5099
 11
18.4369
 21
85.5886
  0
LINE
  8
0
 10
14.8659
 20
120.869
 11
14.5999
 21
120.903
  0
LINE
  8
0
 10
14.5999
 20
120.903
 11
14.3401
 21
120.969
  0
LINE
  8
0
 10
14.3401
 20
120.969
 11
14.0908
 21
121.068
  0
LINE
  8
0
 10
14.0908
 20
121.068
 11
13.8559
 21
121.197
  0
LINE
  8
0
 10
13.8559
 20
121.197
 11
13.6389
 21
121.355
  0
LINE
  8
0
 10
13.6389
 20
121.355
 11
13.4434
 21
121.538
  0
LINE
  8
0
 10
13.4434
 20
121.538
 11
13.2725
 21
121.745
  0
LINE
  8
0
 10
13.2725
 20
121.745
 11
13.1288
 21
121.971
  0
LINE
  8
0
 10
13.1288
 20
121.971
 11
13.0146
 21
122.214
  0
LINE
  8
0
 10
13.0146
 20
122.214
 11
12.9318
 21
122.469
  0
LINE
  8
0
 10
12.9318
 20
122.469
 11
12.8815
 21
122.732
  0
LINE
  8
0
 10
12.8815
 20
122.732
 11
12.8647
 21
123
  0
LINE
  8
0
 10
12.8647
 20
123
 11
12.8815
 21
123.268
  0
LINE
  8
0
 10
12.8815
 20
123.268
 11
12.9318
 21
123.531
  0
LINE
  8
0
 10
12.9318
 20
123.531
 11
13.0146
 21
123.786
  0
LINE
  8
0
 10
13.0146
 20
123.786
 11
13.1288
 21
124.029
  0
LINE
  8
0
 10
13.1288
 20
124.029
 11
13.2725
 21
124.255
  0
LINE
  8
0
 10
13.2725
 20
124.255
 11
13.4434
 21
124.462
  0
LINE
  8
0
 10
13.4434
 20
124.462
 11
13.6389
 21
124.645
  0
LINE
  8
0
 10
13.6389
 20
124.645
 11
13.8559
 21
124.803
  0
LINE
  8
0
 10
13.8559
 20
124.803
 11
14.0908
 21
124.932
  0
LINE
  8
0
 10
14.0908
 20
124.932
 11
14.3401
 21
125.031
  0
LINE
  8
0
 10
14.3401
 20
125.031
 11
14.5999
 21
125.097
  0
LINE
  8
0
 10
14.5999
 20
125.097
 11
14.8659
 21
125.131
  0
LINE
  8
0
 10
14.8659
 20
125.131
 11
15.1341
 21
125.131
  0
LINE
  8
0
 10
15.1341
 20
125.131
 11
15.4001
 21
125.097
  0
LINE
  8
0
 10
15.4001
 20
125.097
 11
15.6598
 21
125.031
  0
LINE
  8
0
 10
15.6598
 20
125.031
 11
15.9091
 21
124.932
  0
LINE
  8
0
 10
15.9091
 20
124.932
 11
16.1441
 21
124.803
  0
LINE
  8
0
 10
16.1441
 20
124.803
 11
16.3611
 21
124.645
  0
LINE
  8
0
 10
16.3611
 20
124.645
 11
16.5565
 21
124.462
  0
LINE
  8
0
 10
16.5565
 20
124.462
 11
16.7275
 21
124.255
  0
LINE
  8
0
 10
16.7275
 20
124.255
 11
16.8712
 21
124.029
  0
LINE
  8
0
 10
16.8712
 20
124.029
 11
16.9853
 21
123.786
  0
LINE
  8
0
 10
16.9853
 20
123.786
 11
17.0682
 21
123.531
  0
LINE
  8
0
 10
17.0682
 20
123.531
 11
17.1185
 21
123.268
  0
LINE
  8
0
 10
17.1185
 20
123.268
 11
17.1353
 21
123
  0
LINE
  8
0
 10
17.1353
 20
123
 11
17.1185
 21
122.732
  0
LINE
  8
0
 10
17.1185
 20
122.732
 11
17.0682
 21
122.469
  0
LINE
  8
0
 10
17.0682
 20
122.469
 11
16.9853
 21
122.214
  0
LINE
  8
0
 10
16.9853
 20
122.214
 11
16.8712
 21
121.971
  0
LINE
  8
0
 10
16.8712
 20
121.971
 11
16.7275
 21
121.745
  0
LINE
  8
0
 10
16.7275
 20
121.745
 11
16.5565
 21
121.538
  0
LINE
  8
0
 10
16.5565
 20
121.538
 11
16.3611
 21
121.355
  0
LINE
  8
0
 10
16.3611
 20
121.355
 11
16.1441
 21
121.197
  0
LINE
  8
0
 10
16.1441
 20
121.197
 11
15.9091
 21
121.068
  0
LINE
  8
0
 10
15.9091
 20
121.068
 11
15.6598
 21
120.969
  0
LINE
  8
0
 10
15.6598
 20
120.969
 11
15.4001
 21
120.903
  0
LINE
  8
0
 10
15.4001
 20
120.903
 11
15.1341
 21
120.869
  0
LINE
  8
0
 10
15.1341
 20
120.869
 11
14.8659
 21
120.869
  0
LINE
  8
0
 10
-15.1341
 20
120.869
 11
-15.4001
 21
120.903
  0
LINE
  8
0
 10
-15.4001
 20
120.903
 11
-15.6598
 21
120.969
  0
LINE
  8
0
 10
-15.6598
 20
120.969
 11
-15.9091
 21
121.068
  0
LINE
  8
0
 10
-15.9091
 20
121.068
 11
-16.1441
 21
121.197
  0
LINE
  8
0
 10
-16.1441
 20
121.197
 11
-16.3611
 21
121.355
  0
LINE
  8
0
 10
-16.3611
 20
121.355
 11
-16.5565
 21
121.538
  0
LINE
  8
0
 10
-16.5565
 20
121.538
 11
-16.7275
 21
121.745
  0
LINE
  8
0
 10
-16.7275
 20
121.745
 11
-16.8712
 21
121.971
  0
LINE
  8
0
 10
-16.8712
 20
121.971
 11
-16.9853
 21
122.214
  0
LINE
  8
0
 10
-16.9853
 20
122.214
 11
-17.0682
 21
122.469
  0
LINE
  8
0
 10
-17.0682
 20
122.469
 11
-17.1185
 21
122.732
  0
LINE
  8
0
 10
-17.1185
 20
122.732
 11
-17.1353
 21
123
  0
LINE
  8
0
 10
-17.1353
 20
123
 11
-17.1185
 21
123.268
  0
LINE
  8
0
 10
-17.1185
 20
123.268
 11
-17.0682
 21
123.531
  0
LINE
  8
0
 10
-17.0682
 20
123.531
 11
-16.9853
 21
123.786
  0
LINE
  8
0
 10
-16.9853
 20
123.786
 11
-16.8712
 21
124.029
  0
LINE
  8
0
 10
-16.8712
 20
124.029
 11
-16.7275
 21
124.255
  0
LINE
  8
0
 10
-16.7275
 20
124.255
 11
-16.5565
 21
124.462
  0
LINE
  8
0
 10
-16.5565
 20
124.462
 11
-16.3611
 21
124.645
  0
LINE
  8
0
 10
-16.3611
 20
124.645
 11
-16.1441
 21
124.803
  0
LINE
  8
0
 10
-16.1441
 20
124.803
 11
-15.9091
 21
124.932
  0
LINE
  8
0
 10
-15.9091
 20
124.932
 11
-15.6598
 21
125.031
  0
LINE
  8
0
 10
-15.6598
 20
125.031
 11
-15.4001
 21
125.097
  0
LINE
  8
0
 10
-15.4001
 20
125.097
 11
-15.1341
 21
125.131
  0
LINE
  8
0
 10
-15.1341
 20
125.131
 11
-14.8659
 21
125.131
  0
LINE
  8
0
 10
-14.8659
 20
125.131
 11
-14.5999
 21
125.097
  0
LINE
  8
0
 10
-14.5999
 20
125.097
 11
-14.3401
 21
125.031
  0
LINE
  8
0
 10
-14.3401
 20
125.031
 11
-14.0908
 21
124.932
  0
LINE
  8
0
 10
-14.0908
 20
124.932
 11
-13.8559
 21
124.803
  0
LINE
  8
0
 10
-13.8559
 20
124.803
 11
-13.6389
 21
124.645
  0
LINE
  8
0
 10
-13.6389
 20
124.645
 11
-13.4434
 21
124.462
  0
LINE
  8
0
 10
-13.4434
 20
124.462
 11
-13.2725
 21
124.255
  0
LINE
  8
0
 10
-13.2725
 20
124.255
 11
-13.1288
 21
124.029
  0
LINE
  8
0
 10
-13.1288
 20
124.029
 11
-13.0146
 21
123.786
  0
LINE
  8
0
 10
-13.0146
 20
123.786
 11
-12.9318
 21
123.531
  0
LINE
  8
0
 10
-12.9318
 20
123.531
 11
-12.8815
 21
123.268
  0
LINE
  8
0
 10
-12.8815
 20
123.268
 11
-12.8647
 21
123
  0
LINE
  8
0
 10
-12.8647
 20
123
 11
-12.8815
 21
122.732
  0
LINE
  8
0
 10
-12.8815
 20
122.732
 11
-12.9318
 21
122.469
  0
LINE
  8
0
 10
-12.9318
 20
122.469
 11
-13.0146
 21
122.214
  0
LINE
  8
0
 10
-13.0146
 20
122.214
 11
-13.1288
 21
121.971
  0
LINE
  8
0
 10
-13.1288
 20
121.971
 11
-13.2725
 21
121.745
  0
LINE
  8
0
 10
-13.2725
 20
121.745
 11
-13.4434
 21
121.538
  0
LINE
  8
0
 10
-13.4434
 20
121.538
 11
-13.6389
 21
121.355
  0
LINE
  8
0
 10
-13.6389
 20
121.355
 11
-13.8559
 21
121.197
  0
LINE
  8
0
 10
-13.8559
 20
121.197
 11
-14.0908
 21
121.068
  0
LINE
  8
0
 10
-14.0908
 20
121.068
 11
-14.3401
 21
120.969
  0
LINE
  8
0
 10
-14.3401
 20
120.969
 11
-14.5999
 21
120.903
  0
LINE
  8
0
 10
-14.5999
 20
120.903
 11
-14.8659
 21
120.869
  0
LINE
  8
0
 10
-14.8659
 20
120.869
 11
-15.1341
 21
120.869
  0
LINE
  8
0
 10
14.8659
 20
90.8689
 11
14.5999
 21
90.9025
  0
LINE
  8
0
 10
14.5999
 20
90.9025
 11
14.3401
 21
90.9692
  0
LINE
  8
0
 10
14.3401
 20
90.9692
 11
14.0908
 21
91.0679
  0
LINE
  8
0
 10
14.0908
 20
91.0679
 11
13.8559
 21
91.1971
  0
LINE
  8
0
 10
13.8559
 20
91.1971
 11
13.6389
 21
91.3547
  0
LINE
  8
0
 10
13.6389
 20
91.3547
 11
13.4434
 21
91.5383
  0
LINE
  8
0
 10
13.4434
 20
91.5383
 11
13.2725
 21
91.7449
  0
LINE
  8
0
 10
13.2725
 20
91.7449
 11
13.1288
 21
91.9713
  0
LINE
  8
0
 10
13.1288
 20
91.9713
 11
13.0146
 21
92.214
  0
LINE
  8
0
 10
13.0146
 20
92.214
 11
12.9318
 21
92.469
  0
LINE
  8
0
 10
12.9318
 20
92.469
 11
12.8815
 21
92.7324
  0
LINE
  8
0
 10
12.8815
 20
92.7324
 11
12.8647
 21
93
  0
LINE
  8
0
 10
12.8647
 20
93
 11
12.8815
 21
93.2676
  0
LINE
  8
0
 10
12.8815
 20
93.2676
 11
12.9318
 21
93.531
  0
LINE
  8
0
 10
12.9318
 20
93.531
 11
13.0146
 21
93.7861
  0
LINE
  8
0
 10
13.0146
 20
93.7861
 11
13.1288
 21
94.0287
  0
LINE
  8
0
 10
13.1288
 20
94.0287
 11
13.2725
 21
94.2551
  0
LINE
  8
0
 10
13.2725
 20
94.2551
 11
13.4434
 21
94.4617
  0
LINE
  8
0
 10
13.4434
 20
94.4617
 11
13.6389
 21
94.6453
  0
LINE
  8
0
 10
13.6389
 20
94.6453
 11
13.8559
 21
94.8029
  0
LINE
  8
0
 10
13.8559
 20
94.8029
 11
14.0908
 21
94.9321
  0
LINE
  8
0
 10
14.0908
 20
94.9321
 11
14.3401
 21
95.0308
  0
LINE
  8
0
 10
14.3401
 20
95.0308
 11
14.5999
 21
95.0975
  0
LINE
  8
0
 10
14.5999
 20
95.0975
 11
14.8659
 21
95.1311
  0
LINE
  8
0
 10
14.8659
 20
95.1311
 11
15.1341
 21
95.1311
  0
LINE
  8
0
 10
15.1341
 20
95.1311
 11
15.4001
 21
95.0975
  0
LINE
  8
0
 10
15.4001
 20
95.0975
 11
15.6598
 21
95.0308
  0
LINE
  8
0
 10
15.6598
 20
95.0308
 11
15.9091
 21
94.9321
  0
LINE
  8
0
 10
15.9091
 20
94.9321
 11
16.1441
 21
94.8029
  0
LINE
  8
0
 10
16.1441
 20
94.8029
 11
16.3611
 21
94.6453
  0
LINE
  8
0
 10
16.3611
 20
94.6453
 11
16.5565
 21
94.4617
  0
LINE
  8
0
 10
16.5565
 20
94.4617
 11
16.7275
 21
94.2551
  0
LINE
  8
0
 10
16.7275
 20
94.2551
 11
16.8712
 21
94.0287
  0
LINE
  8
0
 10
16.8712
 20
94.0287
 11
16.9853
 21
93.7861
  0
LINE
  8
0
 10
16.9853
 20
93.7861
 11
17.0682
 21
93.531
  0
LINE
  8
0
 10
17.0682
 20
93.531
 11
17.1185
 21
93.2676
  0
LINE
  8
0
 10
17.1185
 20
93.2676
 11
17.1353
 21
93
  0
LINE
  8
0
 10
17.1353
 20
93
 11
17.1185
 21
92.7324
  0
LINE
  8
0
 10
17.1185
 20
92.7324
 11
17.0682
 21
92.469
  0
LINE
  8
0
 10
17.0682
 20
92.469
 11
16.9853
 21
92.214
  0
LINE
  8
0
 10
16.9853
 20
92.214
 11
16.8712
 21
91.9713
  0
LINE
  8
0
 10
16.8712
 20
91.9713
 11
16.7275
 21
91.7449
  0
LINE
  8
0
 10
16.7275
 20
91.7449
 11
16.5565
 21
91.5383
  0
LINE
  8
0
 10
16.5565
 20
91.5383
 11
16.3611
 21
91.3547
  0
LINE
  8
0
 10
16.3611
 20
91.3547
 11
16.1441
 21
91.1971
  0
LINE
  8
0
 10
16.1441
 20
91.1971
 11
15.9091
 21
91.0679
  0
LINE
  8
0
 10
15.9091
 20
91.0679
 11
15.6598
 21
90.9692
  0
LINE
  8
0
 10
15.6598
 20
90.9692
 11
15.4001
 21
90.9025
  0
LINE
  8
0
 10
15.4001
 20
90.9025
 11
15.1341
 21
90.8689
  0
LINE
  8
0
 10
15.1341
 20
90.8689
 11
14.8659
 21
90.8689
  0
LINE
  8
0
 10
-15.1341
 20
90.8689
 11
-15.4001
 21
90.9025
  0
LINE
  8
0
 10
-15.4001
 20
90.9025
 11
-15.6598
 21
90.9692
  0
LINE
  8
0
 10
-15.6598
 20
90.9692
 11
-15.9091
 21
91.0679
  0
LINE
  8
0
 10
-15.9091
 20
91.0679
 11
-16.1441
 21
91.1971
  0
LINE
  8
0
 10
-16.1441
 20
91.1971
 11
-16.3611
 21
91.3547
  0
LINE
  8
0
 10
-16.3611
 20
91.3547
 11
-16.5565
 21
91.5383
  0
LINE
  8
0
 10
-16.5565
 20
91.5383
 11
-16.7275
 21
91.7449
  0
LINE
  8
0
 10
-16.7275
 20
91.7449
 11
-16.8712
 21
91.9713
  0
LINE
  8
0
 10
-16.8712
 20
91.9713
 11
-16.9853
 21
92.214
  0
LINE
  8
0
 10
-16.9853
 20
92.214
 11
-17.0682
 21
92.469
  0
LINE
  8
0
 10
-17.0682
 20
92.469
 11
-17.1185
 21
92.7324
  0
LINE
  8
0
 10
-17.1185
 20
92.7324
 11
-17.1353
 21
93
  0
LINE
  8
0
 10
-17.1353
 20
93
 11
-17.1185
 21
93.2676
  0
LINE
  8
0
 10
-17.1185
 20
93.2676
 11
-17.0682
 21
93.531
  0
LINE
  8
0
 10
-17.0682
 20
93.531
 11
-16.9853
 21
93.7861
  0
LINE
  8
0
 10
-16.9853
 20
93.7861
 11
-16.8712
 21
94.0287
  0
LINE
  8
0
 10
-16.8712
 20
94.0287
 11
-16.7275
 21
94.2551
  0
LINE
  8
0
 10
-16.7275
 20
94.2551
 11
-16.5565
 21
94.4617
  0
LINE
  8
0
 10
-16.5565
 20
94.4617
 11
-16.3611
 21
94.6453
  0
LINE
  8
0
 10
-16.3611
 20
94.6453
 11
-16.1441
 21
94.8029
  0
LINE
  8
0
 10
-16.1441
 20
94.8029
 11
-15.9091
 21
94.9321
  0
LINE
  8
0
 10
-15.9091
 20
94.9321
 11
-15.6598
 21
95.0308
  0
LINE
  8
0
 10
-15.6598
 20
95.0308
 11
-15.4001
 21
95.0975
  0
LINE
  8
0
 10
-15.4001
 20
95.0975
 11
-15.1341
 21
95.1311
  0
LINE
  8
0
 10
-15.1341
 20
95.1311
 11
-14.8659
 21
95.1311
  0
LINE
  8
0
 10
-14.8659
 20
95.1311
 11
-14.5999
 21
95.0975
  0
LINE
  8
0
 10
-14.5999
 20
95.0975
 11
-14.3401
 21
95.0308
  0
LINE
  8
0
 10
-14.3401
 20
95.0308
 11
-14.0908
 21
94.9321
  0
LINE
  8
0
 10
-14.0908
 20
94.9321
 11
-13.8559
 21
94.8029
  0
LINE
  8
0
 10
-13.8559
 20
94.8029
 11
-13.6389
 21
94.6453
  0
LINE
  8
0
 10
-13.6389
 20
94.6453
 11
-13.4434
 21
94.4617
  0
LINE
  8
0
 10
-13.4434
 20
94.4617
 11
-13.2725
 21
94.2551
  0
LINE
  8
0
 10
-13.2725
 20
94.2551
 11
-13.1288
 21
94.0287
  0
LINE
  8
0
 10
-13.1288
 20
94.0287
 11
-13.0146
 21
93.7861
  0
LINE
  8
0
 10
-13.0146
 20
93.7861
 11
-12.9318
 21
93.531
  0
LINE
  8
0
 10
-12.9318
 20
93.531
 11
-12.8815
 21
93.2676
  0
LINE
  8
0
 10
-12.8815
 20
93.2676
 11
-12.8647
 21
93
  0
LINE
  8
0
 10
-12.8647
 20
93
 11
-12.8815
 21
92.7324
  0
LINE
  8
0
 10
-12.8815
 20
92.7324
 11
-12.9318
 21
92.469
  0
LINE
  8
0
 10
-12.9318
 20
92.469
 11
-13.0146
 21
92.214
  0
LINE
  8
0
 10
-13.0146
 20
92.214
 11
-13.1288
 21
91.9713
  0
LINE
  8
0
 10
-13.1288
 20
91.9713
 11
-13.2725
 21
91.7449
  0
LINE
  8
0
 10
-13.2725
 20
91.7449
 11
-13.4434
 21
91.5383
  0
LINE
  8
0
 10
-13.4434
 20
91.5383
 11
-13.6389
 21
91.3547
  0
LINE
  8
0
 10
-13.6389
 20
91.3547
 11
-13.8559
 21
91.1971
  0
LINE
  8
0
 10
-13.8559
 20
91.1971
 11
-14.0908
 21
91.0679
  0
LINE
  8
0
 10
-14.0908
 20
91.0679
 11
-14.3401
 21
90.9692
  0
LINE
  8
0
 10
-14.3401
 20
90.9692
 11
-14.5999
 21
90.9025
  0
LINE
  8
0
 10
-14.5999
 20
90.9025
 11
-14.8659
 21
90.8689
  0
LINE
  8
0
 10
-14.8659
 20
90.8689
 11
-15.1341
 21
90.8689
  0
ENDSEC
  0
SECTION
  2
OBJECTS
  0
DICTIONARY
  0
ENDSEC
  0
EOF
