<?xml version="1.0" standalone="no"?>
<!DOCTYPE svg PUBLIC "-//W3C//DTD SVG 1.1//EN" "http://www.w3.org/Graphics/SVG/1.1/DTD/svg11.dtd">
<svg width="16mm" height="220mm" viewBox="-8 -281 16 220" xmlns="http://www.w3.org/2000/svg" version="1.1">
<title>OpenSCAD Model</title>
<path d="
M 3.4369,-175.589 L 4.04507,-175.745 L 4.62889,-175.976 L 5.17912,-176.278 L 5.68712,-176.647 L 6.14484,-177.077
 L 6.54507,-177.561 L 6.88153,-178.091 L 7.14888,-178.659 L 7.34291,-179.257 L 7.46057,-179.873 L 7.5,-180.5
 L 7.5,-275.5 L 7.46057,-276.127 L 7.34291,-276.743 L 7.14888,-277.341 L 6.88153,-277.909 L 6.54507,-278.439
 L 6.14484,-278.923 L 5.68712,-279.353 L 5.17912,-279.722 L 4.62889,-280.024 L 4.04507,-280.255 L 3.4369,-280.411
 L 2.81395,-280.49 L -2.81395,-280.49 L -3.4369,-280.411 L -4.04507,-280.255 L -4.62889,-280.024 L -5.17912,-279.722
 L -5.68712,-279.353 L -6.14484,-278.923 L -6.54507,-278.439 L -6.88153,-277.909 L -7.14888,-277.341 L -7.34291,-276.743
 L -7.46057,-276.127 L -7.5,-275.5 L -7.5,-180.5 L -7.46057,-179.873 L -7.34291,-179.257 L -7.14888,-178.659
 L -6.88153,-178.091 L -6.54507,-177.561 L -6.14484,-177.077 L -5.68712,-176.647 L -5.17912,-176.278 L -4.62889,-175.976
 L -4.04507,-175.745 L -3.4369,-175.589 L -2.81395,-175.51 L 2.81395,-175.51 z
M 3.4369,-61.5886 L 4.04507,-61.7447 L 4.62889,-61.9759 L 5.17912,-62.2784 L 5.68712,-62.6474 L 6.14484,-63.0773
 L 6.54507,-63.5611 L 6.88153,-64.0912 L 7.14888,-64.6594 L 7.34291,-65.2566 L 7.46057,-65.8733 L 7.5,-66.5
 L 7.5,-161.5 L 7.46057,-162.127 L 7.34291,-162.743 L 7.14888,-163.341 L 6.88153,-163.909 L 6.54507,-164.439
 L 6.14484,-164.923 L 5.68712,-165.353 L 5.17912,-165.722 L 4.62889,-166.024 L 4.04507,-166.255 L 3.4369,-166.411
 L 2.81395,-166.49 L -2.81395,-166.49 L -3.4369,-166.411 L -4.04507,-166.255 L -4.62889,-166.024 L -5.17912,-165.722
 L -5.68712,-165.353 L -6.14484,-164.923 L -6.54507,-164.439 L -6.88153,-163.909 L -7.14888,-163.341 L -7.34291,-162.743
 L -7.46057,-162.127 L -7.5,-161.5 L -7.5,-66.5 L -7.46057,-65.8733 L -7.34291,-65.2566 L -7.14888,-64.6594
 L -6.88153,-64.0912 L -6.54507,-63.5611 L -6.14484,-63.0773 L -5.68712,-62.6474 L -5.17912,-62.2784 L -4.62889,-61.9759
 L -4.04507,-61.7447 L -3.4369,-61.5886 L -2.81395,-61.5099 L 2.81395,-61.5099 z
M -0.113022,-157.204 L -0.33728,-157.232 L -0.556229,-157.288 L -0.766388,-157.371 L -0.964478,-157.48 L -1.14735,-157.613
 L -1.31213,-157.768 L -1.45622,-157.942 L -1.57735,-158.133 L -1.67358,-158.337 L -1.74344,-158.552 L -1.7858,-158.774
 L -1.79999,-159 L -1.7858,-159.226 L -1.74344,-159.448 L -1.67358,-159.663 L -1.57735,-159.867 L -1.45622,-160.058
 L -1.31213,-160.232 L -1.14735,-160.387 L -0.964478,-160.52 L -0.766388,-160.629 L -0.556229,-160.712 L -0.33728,-160.768
 L -0.113022,-160.796 L 0.113022,-160.796 L 0.33728,-160.768 L 0.556229,-160.712 L 0.766388,-160.629 L 0.964478,-160.52
 L 1.14735,-160.387 L 1.31213,-160.232 L 1.45622,-160.058 L 1.57735,-159.867 L 1.67358,-159.663 L 1.74344,-159.448
 L 1.7858,-159.226 L 1.79999,-159 L 1.7858,-158.774 L 1.74344,-158.552 L 1.67358,-158.337 L 1.57735,-158.133
 L 1.45622,-157.942 L 1.31213,-157.768 L 1.14735,-157.613 L 0.964478,-157.48 L 0.766388,-157.371 L 0.556229,-157.288
 L 0.33728,-157.232 L 0.113022,-157.204 z
M -0.113022,-67.2036 L -0.33728,-67.2319 L -0.556229,-67.2881 L -0.766388,-67.3713 L -0.964478,-67.4802 L -1.14735,-67.6131
 L -1.31213,-67.7678 L -1.45622,-67.942 L -1.57735,-68.1328 L -1.67358,-68.3374 L -1.74344,-68.5524 L -1.7858,-68.7744
 L -1.79999,-69 L -1.7858,-69.2256 L -1.74344,-69.4476 L -1.67358,-69.6626 L -1.57735,-69.8672 L -1.45622,-70.058
 L -1.31213,-70.2322 L -1.14735,-70.3869 L -0.964478,-70.5198 L -0.766388,-70.6287 L -0.556229,-70.7119 L -0.33728,-70.7681
 L -0.113022,-70.7964 L 0.113022,-70.7964 L 0.33728,-70.7681 L 0.556229,-70.7119 L 0.766388,-70.6287 L 0.964478,-70.5198
 L 1.14735,-70.3869 L 1.31213,-70.2322 L 1.45622,-70.058 L 1.57735,-69.8672 L 1.67358,-69.6626 L 1.74344,-69.4476
 L 1.7858,-69.2256 L 1.79999,-69 L 1.7858,-68.7744 L 1.74344,-68.5524 L 1.67358,-68.3374 L 1.57735,-68.1328
 L 1.45622,-67.942 L 1.31213,-67.7678 L 1.14735,-67.6131 L 0.964478,-67.4802 L 0.766388,-67.3713 L 0.556229,-67.2881
 L 0.33728,-67.2319 L 0.113022,-67.2036 z
" stroke="black" fill="lightgray" stroke-width="0.5"/>
</svg>
