<?xml version="1.0" standalone="no"?>
<!DOCTYPE svg PUBLIC "-//W3C//DTD SVG 1.1//EN" "http://www.w3.org/Graphics/SVG/1.1/DTD/svg11.dtd">
<svg width="16mm" height="468mm" viewBox="-8 -711 16 468" xmlns="http://www.w3.org/2000/svg" version="1.1">
<title>OpenSCAD Model</title>
<path d="
M 3.4369,-561.089 L 4.04507,-561.245 L 4.62889,-561.476 L 5.17912,-561.778 L 5.68712,-562.147 L 6.14484,-562.577
 L 6.54507,-563.061 L 6.88153,-563.591 L 7.14888,-564.159 L 7.34291,-564.757 L 7.46057,-565.373 L 7.5,-566
 L 7.5,-706 L 7.46057,-706.627 L 7.34291,-707.243 L 7.14888,-707.841 L 6.88153,-708.409 L 6.54507,-708.939
 L 6.14484,-709.423 L 5.68712,-709.853 L 5.17912,-710.222 L 4.62889,-710.524 L 4.04507,-710.755 L 3.4369,-710.911
 L 2.81395,-710.99 L -2.81395,-710.99 L -3.4369,-710.911 L -4.04507,-710.755 L -4.62889,-710.524 L -5.17912,-710.222
 L -5.68712,-709.853 L -6.14484,-709.423 L -6.54507,-708.939 L -6.88153,-708.409 L -7.14888,-707.841 L -7.34291,-707.243
 L -7.46057,-706.627 L -7.5,-706 L -7.5,-566 L -7.46057,-565.373 L -7.34291,-564.757 L -7.14888,-564.159
 L -6.88153,-563.591 L -6.54507,-563.061 L -6.14484,-562.577 L -5.68712,-562.147 L -5.17912,-561.778 L -4.62889,-561.476
 L -4.04507,-561.245 L -3.4369,-561.089 L -2.81395,-561.01 L 2.81395,-561.01 z
M -2.24316,-562.635 L -2.72565,-562.696 L -3.1967,-562.817 L -3.64888,-562.996 L -4.07506,-563.23 L -4.46851,-563.516
 L -4.82301,-563.849 L -5.13301,-564.224 L -5.3936,-564.634 L -5.60068,-565.074 L -5.75096,-565.537 L -5.84209,-566.015
 L -5.87262,-566.5 L -5.87262,-705.5 L -5.84209,-705.985 L -5.75096,-706.463 L -5.60068,-706.926 L -5.3936,-707.366
 L -5.13301,-707.776 L -4.82301,-708.151 L -4.46851,-708.484 L -4.07506,-708.77 L -3.64888,-709.004 L -3.1967,-709.183
 L -2.72565,-709.304 L -2.24316,-709.365 L 2.24316,-709.365 L 2.72565,-709.304 L 3.1967,-709.183 L 3.64888,-709.004
 L 4.07506,-708.77 L 4.46851,-708.484 L 4.82301,-708.151 L 5.13301,-707.776 L 5.3936,-707.366 L 5.60068,-706.926
 L 5.75096,-706.463 L 5.84209,-705.985 L 5.87262,-705.5 L 5.87262,-566.5 L 5.84209,-566.015 L 5.75096,-565.537
 L 5.60068,-565.074 L 5.3936,-564.634 L 5.13301,-564.224 L 4.82301,-563.849 L 4.46851,-563.516 L 4.07506,-563.23
 L 3.64888,-562.996 L 3.1967,-562.817 L 2.72565,-562.696 L 2.24316,-562.635 z
M 3.4369,-402.089 L 4.04507,-402.245 L 4.62889,-402.476 L 5.17912,-402.778 L 5.68712,-403.147 L 6.14484,-403.577
 L 6.54507,-404.061 L 6.88153,-404.591 L 7.14888,-405.159 L 7.34291,-405.757 L 7.46057,-406.373 L 7.5,-407
 L 7.5,-547 L 7.46057,-547.627 L 7.34291,-548.243 L 7.14888,-548.841 L 6.88153,-549.409 L 6.54507,-549.939
 L 6.14484,-550.423 L 5.68712,-550.853 L 5.17912,-551.222 L 4.62889,-551.524 L 4.04507,-551.755 L 3.4369,-551.911
 L 2.81395,-551.99 L -2.81395,-551.99 L -3.4369,-551.911 L -4.04507,-551.755 L -4.62889,-551.524 L -5.17912,-551.222
 L -5.68712,-550.853 L -6.14484,-550.423 L -6.54507,-549.939 L -6.88153,-549.409 L -7.14888,-548.841 L -7.34291,-548.243
 L -7.46057,-547.627 L -7.5,-547 L -7.5,-407 L -7.46057,-406.373 L -7.34291,-405.757 L -7.14888,-405.159
 L -6.88153,-404.591 L -6.54507,-404.061 L -6.14484,-403.577 L -5.68712,-403.147 L -5.17912,-402.778 L -4.62889,-402.476
 L -4.04507,-402.245 L -3.4369,-402.089 L -2.81395,-402.01 L 2.81395,-402.01 z
M 3.4369,-243.089 L 4.04507,-243.245 L 4.62889,-243.476 L 5.17912,-243.778 L 5.68712,-244.147 L 6.14484,-244.577
 L 6.54507,-245.061 L 6.88153,-245.591 L 7.14888,-246.159 L 7.34291,-246.757 L 7.46057,-247.373 L 7.5,-248
 L 7.5,-388 L 7.46057,-388.627 L 7.34291,-389.243 L 7.14888,-389.841 L 6.88153,-390.409 L 6.54507,-390.939
 L 6.14484,-391.423 L 5.68712,-391.853 L 5.17912,-392.222 L 4.62889,-392.524 L 4.04507,-392.755 L 3.4369,-392.911
 L 2.81395,-392.99 L -2.81395,-392.99 L -3.4369,-392.911 L -4.04507,-392.755 L -4.62889,-392.524 L -5.17912,-392.222
 L -5.68712,-391.853 L -6.14484,-391.423 L -6.54507,-390.939 L -6.88153,-390.409 L -7.14888,-389.841 L -7.34291,-389.243
 L -7.46057,-388.627 L -7.5,-388 L -7.5,-248 L -7.46057,-247.373 L -7.34291,-246.757 L -7.14888,-246.159
 L -6.88153,-245.591 L -6.54507,-245.061 L -6.14484,-244.577 L -5.68712,-244.147 L -5.17912,-243.778 L -4.62889,-243.476
 L -4.04507,-243.245 L -3.4369,-243.089 L -2.81395,-243.01 L 2.81395,-243.01 z
M -0.113022,-383.704 L -0.33728,-383.732 L -0.556229,-383.788 L -0.766388,-383.871 L -0.964478,-383.98 L -1.14735,-384.113
 L -1.31213,-384.268 L -1.45622,-384.442 L -1.57735,-384.633 L -1.67358,-384.837 L -1.74344,-385.052 L -1.7858,-385.274
 L -1.79999,-385.5 L -1.7858,-385.726 L -1.74344,-385.948 L -1.67358,-386.163 L -1.57735,-386.367 L -1.45622,-386.558
 L -1.31213,-386.732 L -1.14735,-386.887 L -0.964478,-387.02 L -0.766388,-387.129 L -0.556229,-387.212 L -0.33728,-387.268
 L -0.113022,-387.296 L 0.113022,-387.296 L 0.33728,-387.268 L 0.556229,-387.212 L 0.766388,-387.129 L 0.964478,-387.02
 L 1.14735,-386.887 L 1.31213,-386.732 L 1.45622,-386.558 L 1.57735,-386.367 L 1.67358,-386.163 L 1.74344,-385.948
 L 1.7858,-385.726 L 1.79999,-385.5 L 1.7858,-385.274 L 1.74344,-385.052 L 1.67358,-384.837 L 1.57735,-384.633
 L 1.45622,-384.442 L 1.31213,-384.268 L 1.14735,-384.113 L 0.964478,-383.98 L 0.766388,-383.871 L 0.556229,-383.788
 L 0.33728,-383.732 L 0.113022,-383.704 z
M -0.113022,-248.704 L -0.33728,-248.732 L -0.556229,-248.788 L -0.766388,-248.871 L -0.964478,-248.98 L -1.14735,-249.113
 L -1.31213,-249.268 L -1.45622,-249.442 L -1.57735,-249.633 L -1.67358,-249.837 L -1.74344,-250.052 L -1.7858,-250.274
 L -1.79999,-250.5 L -1.7858,-250.726 L -1.74344,-250.948 L -1.67358,-251.163 L -1.57735,-251.367 L -1.45622,-251.558
 L -1.31213,-251.732 L -1.14735,-251.887 L -0.964478,-252.02 L -0.766388,-252.129 L -0.556229,-252.212 L -0.33728,-252.268
 L -0.113022,-252.296 L 0.113022,-252.296 L 0.33728,-252.268 L 0.556229,-252.212 L 0.766388,-252.129 L 0.964478,-252.02
 L 1.14735,-251.887 L 1.31213,-251.732 L 1.45622,-251.558 L 1.57735,-251.367 L 1.67358,-251.163 L 1.74344,-250.948
 L 1.7858,-250.726 L 1.79999,-250.5 L 1.7858,-250.274 L 1.74344,-250.052 L 1.67358,-249.837 L 1.57735,-249.633
 L 1.45622,-249.442 L 1.31213,-249.268 L 1.14735,-249.113 L 0.964478,-248.98 L 0.766388,-248.871 L 0.556229,-248.788
 L 0.33728,-248.732 L 0.113022,-248.704 z
" stroke="black" fill="lightgray" stroke-width="0.5"/>
</svg>
