  0
SECTION
  2
BLOCKS
  0
ENDSEC
  0
SECTION
  2
ENTITIES
  0
LINE
  8
0
 10
3.4369
 20
246.089
 11
4.04507
 21
246.245
  0
LINE
  8
0
 10
4.04507
 20
246.245
 11
4.62889
 21
246.476
  0
LINE
  8
0
 10
4.62889
 20
246.476
 11
5.17912
 21
246.778
  0
LINE
  8
0
 10
5.17912
 20
246.778
 11
5.68712
 21
247.147
  0
LINE
  8
0
 10
5.68712
 20
247.147
 11
6.14484
 21
247.577
  0
LINE
  8
0
 10
6.14484
 20
247.577
 11
6.54507
 21
248.061
  0
LINE
  8
0
 10
6.54507
 20
248.061
 11
6.88153
 21
248.591
  0
LINE
  8
0
 10
6.88153
 20
248.591
 11
7.14888
 21
249.159
  0
LINE
  8
0
 10
7.14888
 20
249.159
 11
7.34291
 21
249.757
  0
LINE
  8
0
 10
7.34291
 20
249.757
 11
7.46057
 21
250.373
  0
LINE
  8
0
 10
7.46057
 20
250.373
 11
7.5
 21
251
  0
LINE
  8
0
 10
7.5
 20
251
 11
7.5
 21
301
  0
LINE
  8
0
 10
7.5
 20
301
 11
7.46057
 21
301.627
  0
LINE
  8
0
 10
7.46057
 20
301.627
 11
7.34291
 21
302.243
  0
LINE
  8
0
 10
7.34291
 20
302.243
 11
7.14888
 21
302.841
  0
LINE
  8
0
 10
7.14888
 20
302.841
 11
6.88153
 21
303.409
  0
LINE
  8
0
 10
6.88153
 20
303.409
 11
6.54507
 21
303.939
  0
LINE
  8
0
 10
6.54507
 20
303.939
 11
6.14484
 21
304.423
  0
LINE
  8
0
 10
6.14484
 20
304.423
 11
5.68712
 21
304.853
  0
LINE
  8
0
 10
5.68712
 20
304.853
 11
5.17912
 21
305.222
  0
LINE
  8
0
 10
5.17912
 20
305.222
 11
4.62889
 21
305.524
  0
LINE
  8
0
 10
4.62889
 20
305.524
 11
4.04507
 21
305.755
  0
LINE
  8
0
 10
4.04507
 20
305.755
 11
3.4369
 21
305.911
  0
LINE
  8
0
 10
3.4369
 20
305.911
 11
2.81395
 21
305.99
  0
LINE
  8
0
 10
2.81395
 20
305.99
 11
-2.81395
 21
305.99
  0
LINE
  8
0
 10
-2.81395
 20
305.99
 11
-3.4369
 21
305.911
  0
LINE
  8
0
 10
-3.4369
 20
305.911
 11
-4.04507
 21
305.755
  0
LINE
  8
0
 10
-4.04507
 20
305.755
 11
-4.62889
 21
305.524
  0
LINE
  8
0
 10
-4.62889
 20
305.524
 11
-5.17912
 21
305.222
  0
LINE
  8
0
 10
-5.17912
 20
305.222
 11
-5.68712
 21
304.853
  0
LINE
  8
0
 10
-5.68712
 20
304.853
 11
-6.14484
 21
304.423
  0
LINE
  8
0
 10
-6.14484
 20
304.423
 11
-6.54507
 21
303.939
  0
LINE
  8
0
 10
-6.54507
 20
303.939
 11
-6.88153
 21
303.409
  0
LINE
  8
0
 10
-6.88153
 20
303.409
 11
-7.14888
 21
302.841
  0
LINE
  8
0
 10
-7.14888
 20
302.841
 11
-7.34291
 21
302.243
  0
LINE
  8
0
 10
-7.34291
 20
302.243
 11
-7.46057
 21
301.627
  0
LINE
  8
0
 10
-7.46057
 20
301.627
 11
-7.5
 21
301
  0
LINE
  8
0
 10
-7.5
 20
301
 11
-7.5
 21
251
  0
LINE
  8
0
 10
-7.5
 20
251
 11
-7.46057
 21
250.373
  0
LINE
  8
0
 10
-7.46057
 20
250.373
 11
-7.34291
 21
249.757
  0
LINE
  8
0
 10
-7.34291
 20
249.757
 11
-7.14888
 21
249.159
  0
LINE
  8
0
 10
-7.14888
 20
249.159
 11
-6.88153
 21
248.591
  0
LINE
  8
0
 10
-6.88153
 20
248.591
 11
-6.54507
 21
248.061
  0
LINE
  8
0
 10
-6.54507
 20
248.061
 11
-6.14484
 21
247.577
  0
LINE
  8
0
 10
-6.14484
 20
247.577
 11
-5.68712
 21
247.147
  0
LINE
  8
0
 10
-5.68712
 20
247.147
 11
-5.17912
 21
246.778
  0
LINE
  8
0
 10
-5.17912
 20
246.778
 11
-4.62889
 21
246.476
  0
LINE
  8
0
 10
-4.62889
 20
246.476
 11
-4.04507
 21
246.245
  0
LINE
  8
0
 10
-4.04507
 20
246.245
 11
-3.4369
 21
246.089
  0
LINE
  8
0
 10
-3.4369
 20
246.089
 11
-2.81395
 21
246.01
  0
LINE
  8
0
 10
-2.81395
 20
246.01
 11
2.81395
 21
246.01
  0
LINE
  8
0
 10
2.81395
 20
246.01
 11
3.4369
 21
246.089
  0
LINE
  8
0
 10
-2.24316
 20
247.635
 11
-2.72565
 21
247.696
  0
LINE
  8
0
 10
-2.72565
 20
247.696
 11
-3.1967
 21
247.817
  0
LINE
  8
0
 10
-3.1967
 20
247.817
 11
-3.64888
 21
247.996
  0
LINE
  8
0
 10
-3.64888
 20
247.996
 11
-4.07506
 21
248.23
  0
LINE
  8
0
 10
-4.07506
 20
248.23
 11
-4.46851
 21
248.516
  0
LINE
  8
0
 10
-4.46851
 20
248.516
 11
-4.82301
 21
248.849
  0
LINE
  8
0
 10
-4.82301
 20
248.849
 11
-5.13301
 21
249.224
  0
LINE
  8
0
 10
-5.13301
 20
249.224
 11
-5.3936
 21
249.634
  0
LINE
  8
0
 10
-5.3936
 20
249.634
 11
-5.60068
 21
250.074
  0
LINE
  8
0
 10
-5.60068
 20
250.074
 11
-5.75096
 21
250.537
  0
LINE
  8
0
 10
-5.75096
 20
250.537
 11
-5.84209
 21
251.015
  0
LINE
  8
0
 10
-5.84209
 20
251.015
 11
-5.87262
 21
251.5
  0
LINE
  8
0
 10
-5.87262
 20
251.5
 11
-5.87262
 21
300.5
  0
LINE
  8
0
 10
-5.87262
 20
300.5
 11
-5.84209
 21
300.985
  0
LINE
  8
0
 10
-5.84209
 20
300.985
 11
-5.75096
 21
301.463
  0
LINE
  8
0
 10
-5.75096
 20
301.463
 11
-5.60068
 21
301.926
  0
LINE
  8
0
 10
-5.60068
 20
301.926
 11
-5.3936
 21
302.366
  0
LINE
  8
0
 10
-5.3936
 20
302.366
 11
-5.13301
 21
302.776
  0
LINE
  8
0
 10
-5.13301
 20
302.776
 11
-4.82301
 21
303.151
  0
LINE
  8
0
 10
-4.82301
 20
303.151
 11
-4.46851
 21
303.484
  0
LINE
  8
0
 10
-4.46851
 20
303.484
 11
-4.07506
 21
303.77
  0
LINE
  8
0
 10
-4.07506
 20
303.77
 11
-3.64888
 21
304.004
  0
LINE
  8
0
 10
-3.64888
 20
304.004
 11
-3.1967
 21
304.183
  0
LINE
  8
0
 10
-3.1967
 20
304.183
 11
-2.72565
 21
304.304
  0
LINE
  8
0
 10
-2.72565
 20
304.304
 11
-2.24316
 21
304.365
  0
LINE
  8
0
 10
-2.24316
 20
304.365
 11
2.24316
 21
304.365
  0
LINE
  8
0
 10
2.24316
 20
304.365
 11
2.72565
 21
304.304
  0
LINE
  8
0
 10
2.72565
 20
304.304
 11
3.1967
 21
304.183
  0
LINE
  8
0
 10
3.1967
 20
304.183
 11
3.64888
 21
304.004
  0
LINE
  8
0
 10
3.64888
 20
304.004
 11
4.07506
 21
303.77
  0
LINE
  8
0
 10
4.07506
 20
303.77
 11
4.46851
 21
303.484
  0
LINE
  8
0
 10
4.46851
 20
303.484
 11
4.82301
 21
303.151
  0
LINE
  8
0
 10
4.82301
 20
303.151
 11
5.13301
 21
302.776
  0
LINE
  8
0
 10
5.13301
 20
302.776
 11
5.3936
 21
302.366
  0
LINE
  8
0
 10
5.3936
 20
302.366
 11
5.60068
 21
301.926
  0
LINE
  8
0
 10
5.60068
 20
301.926
 11
5.75096
 21
301.463
  0
LINE
  8
0
 10
5.75096
 20
301.463
 11
5.84209
 21
300.985
  0
LINE
  8
0
 10
5.84209
 20
300.985
 11
5.87262
 21
300.5
  0
LINE
  8
0
 10
5.87262
 20
300.5
 11
5.87262
 21
251.5
  0
LINE
  8
0
 10
5.87262
 20
251.5
 11
5.84209
 21
251.015
  0
LINE
  8
0
 10
5.84209
 20
251.015
 11
5.75096
 21
250.537
  0
LINE
  8
0
 10
5.75096
 20
250.537
 11
5.60068
 21
250.074
  0
LINE
  8
0
 10
5.60068
 20
250.074
 11
5.3936
 21
249.634
  0
LINE
  8
0
 10
5.3936
 20
249.634
 11
5.13301
 21
249.224
  0
LINE
  8
0
 10
5.13301
 20
249.224
 11
4.82301
 21
248.849
  0
LINE
  8
0
 10
4.82301
 20
248.849
 11
4.46851
 21
248.516
  0
LINE
  8
0
 10
4.46851
 20
248.516
 11
4.07506
 21
248.23
  0
LINE
  8
0
 10
4.07506
 20
248.23
 11
3.64888
 21
247.996
  0
LINE
  8
0
 10
3.64888
 20
247.996
 11
3.1967
 21
247.817
  0
LINE
  8
0
 10
3.1967
 20
247.817
 11
2.72565
 21
247.696
  0
LINE
  8
0
 10
2.72565
 20
247.696
 11
2.24316
 21
247.635
  0
LINE
  8
0
 10
2.24316
 20
247.635
 11
-2.24316
 21
247.635
  0
LINE
  8
0
 10
3.4369
 20
177.089
 11
4.04507
 21
177.245
  0
LINE
  8
0
 10
4.04507
 20
177.245
 11
4.62889
 21
177.476
  0
LINE
  8
0
 10
4.62889
 20
177.476
 11
5.17912
 21
177.778
  0
LINE
  8
0
 10
5.17912
 20
177.778
 11
5.68712
 21
178.147
  0
LINE
  8
0
 10
5.68712
 20
178.147
 11
6.14484
 21
178.577
  0
LINE
  8
0
 10
6.14484
 20
178.577
 11
6.54507
 21
179.061
  0
LINE
  8
0
 10
6.54507
 20
179.061
 11
6.88153
 21
179.591
  0
LINE
  8
0
 10
6.88153
 20
179.591
 11
7.14888
 21
180.159
  0
LINE
  8
0
 10
7.14888
 20
180.159
 11
7.34291
 21
180.757
  0
LINE
  8
0
 10
7.34291
 20
180.757
 11
7.46057
 21
181.373
  0
LINE
  8
0
 10
7.46057
 20
181.373
 11
7.5
 21
182
  0
LINE
  8
0
 10
7.5
 20
182
 11
7.5
 21
232
  0
LINE
  8
0
 10
7.5
 20
232
 11
7.46057
 21
232.627
  0
LINE
  8
0
 10
7.46057
 20
232.627
 11
7.34291
 21
233.243
  0
LINE
  8
0
 10
7.34291
 20
233.243
 11
7.14888
 21
233.841
  0
LINE
  8
0
 10
7.14888
 20
233.841
 11
6.88153
 21
234.409
  0
LINE
  8
0
 10
6.88153
 20
234.409
 11
6.54507
 21
234.939
  0
LINE
  8
0
 10
6.54507
 20
234.939
 11
6.14484
 21
235.423
  0
LINE
  8
0
 10
6.14484
 20
235.423
 11
5.68712
 21
235.853
  0
LINE
  8
0
 10
5.68712
 20
235.853
 11
5.17912
 21
236.222
  0
LINE
  8
0
 10
5.17912
 20
236.222
 11
4.62889
 21
236.524
  0
LINE
  8
0
 10
4.62889
 20
236.524
 11
4.04507
 21
236.755
  0
LINE
  8
0
 10
4.04507
 20
236.755
 11
3.4369
 21
236.911
  0
LINE
  8
0
 10
3.4369
 20
236.911
 11
2.81395
 21
236.99
  0
LINE
  8
0
 10
2.81395
 20
236.99
 11
-2.81395
 21
236.99
  0
LINE
  8
0
 10
-2.81395
 20
236.99
 11
-3.4369
 21
236.911
  0
LINE
  8
0
 10
-3.4369
 20
236.911
 11
-4.04507
 21
236.755
  0
LINE
  8
0
 10
-4.04507
 20
236.755
 11
-4.62889
 21
236.524
  0
LINE
  8
0
 10
-4.62889
 20
236.524
 11
-5.17912
 21
236.222
  0
LINE
  8
0
 10
-5.17912
 20
236.222
 11
-5.68712
 21
235.853
  0
LINE
  8
0
 10
-5.68712
 20
235.853
 11
-6.14484
 21
235.423
  0
LINE
  8
0
 10
-6.14484
 20
235.423
 11
-6.54507
 21
234.939
  0
LINE
  8
0
 10
-6.54507
 20
234.939
 11
-6.88153
 21
234.409
  0
LINE
  8
0
 10
-6.88153
 20
234.409
 11
-7.14888
 21
233.841
  0
LINE
  8
0
 10
-7.14888
 20
233.841
 11
-7.34291
 21
233.243
  0
LINE
  8
0
 10
-7.34291
 20
233.243
 11
-7.46057
 21
232.627
  0
LINE
  8
0
 10
-7.46057
 20
232.627
 11
-7.5
 21
232
  0
LINE
  8
0
 10
-7.5
 20
232
 11
-7.5
 21
182
  0
LINE
  8
0
 10
-7.5
 20
182
 11
-7.46057
 21
181.373
  0
LINE
  8
0
 10
-7.46057
 20
181.373
 11
-7.34291
 21
180.757
  0
LINE
  8
0
 10
-7.34291
 20
180.757
 11
-7.14888
 21
180.159
  0
LINE
  8
0
 10
-7.14888
 20
180.159
 11
-6.88153
 21
179.591
  0
LINE
  8
0
 10
-6.88153
 20
179.591
 11
-6.54507
 21
179.061
  0
LINE
  8
0
 10
-6.54507
 20
179.061
 11
-6.14484
 21
178.577
  0
LINE
  8
0
 10
-6.14484
 20
178.577
 11
-5.68712
 21
178.147
  0
LINE
  8
0
 10
-5.68712
 20
178.147
 11
-5.17912
 21
177.778
  0
LINE
  8
0
 10
-5.17912
 20
177.778
 11
-4.62889
 21
177.476
  0
LINE
  8
0
 10
-4.62889
 20
177.476
 11
-4.04507
 21
177.245
  0
LINE
  8
0
 10
-4.04507
 20
177.245
 11
-3.4369
 21
177.089
  0
LINE
  8
0
 10
-3.4369
 20
177.089
 11
-2.81395
 21
177.01
  0
LINE
  8
0
 10
-2.81395
 20
177.01
 11
2.81395
 21
177.01
  0
LINE
  8
0
 10
2.81395
 20
177.01
 11
3.4369
 21
177.089
  0
LINE
  8
0
 10
3.4369
 20
108.089
 11
4.04507
 21
108.245
  0
LINE
  8
0
 10
4.04507
 20
108.245
 11
4.62889
 21
108.476
  0
LINE
  8
0
 10
4.62889
 20
108.476
 11
5.17912
 21
108.778
  0
LINE
  8
0
 10
5.17912
 20
108.778
 11
5.68712
 21
109.147
  0
LINE
  8
0
 10
5.68712
 20
109.147
 11
6.14484
 21
109.577
  0
LINE
  8
0
 10
6.14484
 20
109.577
 11
6.54507
 21
110.061
  0
LINE
  8
0
 10
6.54507
 20
110.061
 11
6.88153
 21
110.591
  0
LINE
  8
0
 10
6.88153
 20
110.591
 11
7.14888
 21
111.159
  0
LINE
  8
0
 10
7.14888
 20
111.159
 11
7.34291
 21
111.757
  0
LINE
  8
0
 10
7.34291
 20
111.757
 11
7.46057
 21
112.373
  0
LINE
  8
0
 10
7.46057
 20
112.373
 11
7.5
 21
113
  0
LINE
  8
0
 10
7.5
 20
113
 11
7.5
 21
163
  0
LINE
  8
0
 10
7.5
 20
163
 11
7.46057
 21
163.627
  0
LINE
  8
0
 10
7.46057
 20
163.627
 11
7.34291
 21
164.243
  0
LINE
  8
0
 10
7.34291
 20
164.243
 11
7.14888
 21
164.841
  0
LINE
  8
0
 10
7.14888
 20
164.841
 11
6.88153
 21
165.409
  0
LINE
  8
0
 10
6.88153
 20
165.409
 11
6.54507
 21
165.939
  0
LINE
  8
0
 10
6.54507
 20
165.939
 11
6.14484
 21
166.423
  0
LINE
  8
0
 10
6.14484
 20
166.423
 11
5.68712
 21
166.853
  0
LINE
  8
0
 10
5.68712
 20
166.853
 11
5.17912
 21
167.222
  0
LINE
  8
0
 10
5.17912
 20
167.222
 11
4.62889
 21
167.524
  0
LINE
  8
0
 10
4.62889
 20
167.524
 11
4.04507
 21
167.755
  0
LINE
  8
0
 10
4.04507
 20
167.755
 11
3.4369
 21
167.911
  0
LINE
  8
0
 10
3.4369
 20
167.911
 11
2.81395
 21
167.99
  0
LINE
  8
0
 10
2.81395
 20
167.99
 11
-2.81395
 21
167.99
  0
LINE
  8
0
 10
-2.81395
 20
167.99
 11
-3.4369
 21
167.911
  0
LINE
  8
0
 10
-3.4369
 20
167.911
 11
-4.04507
 21
167.755
  0
LINE
  8
0
 10
-4.04507
 20
167.755
 11
-4.62889
 21
167.524
  0
LINE
  8
0
 10
-4.62889
 20
167.524
 11
-5.17912
 21
167.222
  0
LINE
  8
0
 10
-5.17912
 20
167.222
 11
-5.68712
 21
166.853
  0
LINE
  8
0
 10
-5.68712
 20
166.853
 11
-6.14484
 21
166.423
  0
LINE
  8
0
 10
-6.14484
 20
166.423
 11
-6.54507
 21
165.939
  0
LINE
  8
0
 10
-6.54507
 20
165.939
 11
-6.88153
 21
165.409
  0
LINE
  8
0
 10
-6.88153
 20
165.409
 11
-7.14888
 21
164.841
  0
LINE
  8
0
 10
-7.14888
 20
164.841
 11
-7.34291
 21
164.243
  0
LINE
  8
0
 10
-7.34291
 20
164.243
 11
-7.46057
 21
163.627
  0
LINE
  8
0
 10
-7.46057
 20
163.627
 11
-7.5
 21
163
  0
LINE
  8
0
 10
-7.5
 20
163
 11
-7.5
 21
113
  0
LINE
  8
0
 10
-7.5
 20
113
 11
-7.46057
 21
112.373
  0
LINE
  8
0
 10
-7.46057
 20
112.373
 11
-7.34291
 21
111.757
  0
LINE
  8
0
 10
-7.34291
 20
111.757
 11
-7.14888
 21
111.159
  0
LINE
  8
0
 10
-7.14888
 20
111.159
 11
-6.88153
 21
110.591
  0
LINE
  8
0
 10
-6.88153
 20
110.591
 11
-6.54507
 21
110.061
  0
LINE
  8
0
 10
-6.54507
 20
110.061
 11
-6.14484
 21
109.577
  0
LINE
  8
0
 10
-6.14484
 20
109.577
 11
-5.68712
 21
109.147
  0
LINE
  8
0
 10
-5.68712
 20
109.147
 11
-5.17912
 21
108.778
  0
LINE
  8
0
 10
-5.17912
 20
108.778
 11
-4.62889
 21
108.476
  0
LINE
  8
0
 10
-4.62889
 20
108.476
 11
-4.04507
 21
108.245
  0
LINE
  8
0
 10
-4.04507
 20
108.245
 11
-3.4369
 21
108.089
  0
LINE
  8
0
 10
-3.4369
 20
108.089
 11
-2.81395
 21
108.01
  0
LINE
  8
0
 10
-2.81395
 20
108.01
 11
2.81395
 21
108.01
  0
LINE
  8
0
 10
2.81395
 20
108.01
 11
3.4369
 21
108.089
  0
LINE
  8
0
 10
-0.113022
 20
158.704
 11
-0.33728
 21
158.732
  0
LINE
  8
0
 10
-0.33728
 20
158.732
 11
-0.556229
 21
158.788
  0
LINE
  8
0
 10
-0.556229
 20
158.788
 11
-0.766388
 21
158.871
  0
LINE
  8
0
 10
-0.766388
 20
158.871
 11
-0.964478
 21
158.98
  0
LINE
  8
0
 10
-0.964478
 20
158.98
 11
-1.14735
 21
159.113
  0
LINE
  8
0
 10
-1.14735
 20
159.113
 11
-1.31213
 21
159.268
  0
LINE
  8
0
 10
-1.31213
 20
159.268
 11
-1.45622
 21
159.442
  0
LINE
  8
0
 10
-1.45622
 20
159.442
 11
-1.57735
 21
159.633
  0
LINE
  8
0
 10
-1.57735
 20
159.633
 11
-1.67358
 21
159.837
  0
LINE
  8
0
 10
-1.67358
 20
159.837
 11
-1.74344
 21
160.052
  0
LINE
  8
0
 10
-1.74344
 20
160.052
 11
-1.7858
 21
160.274
  0
LINE
  8
0
 10
-1.7858
 20
160.274
 11
-1.79999
 21
160.5
  0
LINE
  8
0
 10
-1.79999
 20
160.5
 11
-1.7858
 21
160.726
  0
LINE
  8
0
 10
-1.7858
 20
160.726
 11
-1.74344
 21
160.948
  0
LINE
  8
0
 10
-1.74344
 20
160.948
 11
-1.67358
 21
161.163
  0
LINE
  8
0
 10
-1.67358
 20
161.163
 11
-1.57735
 21
161.367
  0
LINE
  8
0
 10
-1.57735
 20
161.367
 11
-1.45622
 21
161.558
  0
LINE
  8
0
 10
-1.45622
 20
161.558
 11
-1.31213
 21
161.732
  0
LINE
  8
0
 10
-1.31213
 20
161.732
 11
-1.14735
 21
161.887
  0
LINE
  8
0
 10
-1.14735
 20
161.887
 11
-0.964478
 21
162.02
  0
LINE
  8
0
 10
-0.964478
 20
162.02
 11
-0.766388
 21
162.129
  0
LINE
  8
0
 10
-0.766388
 20
162.129
 11
-0.556229
 21
162.212
  0
LINE
  8
0
 10
-0.556229
 20
162.212
 11
-0.33728
 21
162.268
  0
LINE
  8
0
 10
-0.33728
 20
162.268
 11
-0.113022
 21
162.296
  0
LINE
  8
0
 10
-0.113022
 20
162.296
 11
0.113022
 21
162.296
  0
LINE
  8
0
 10
0.113022
 20
162.296
 11
0.33728
 21
162.268
  0
LINE
  8
0
 10
0.33728
 20
162.268
 11
0.556229
 21
162.212
  0
LINE
  8
0
 10
0.556229
 20
162.212
 11
0.766388
 21
162.129
  0
LINE
  8
0
 10
0.766388
 20
162.129
 11
0.964478
 21
162.02
  0
LINE
  8
0
 10
0.964478
 20
162.02
 11
1.14735
 21
161.887
  0
LINE
  8
0
 10
1.14735
 20
161.887
 11
1.31213
 21
161.732
  0
LINE
  8
0
 10
1.31213
 20
161.732
 11
1.45622
 21
161.558
  0
LINE
  8
0
 10
1.45622
 20
161.558
 11
1.57735
 21
161.367
  0
LINE
  8
0
 10
1.57735
 20
161.367
 11
1.67358
 21
161.163
  0
LINE
  8
0
 10
1.67358
 20
161.163
 11
1.74344
 21
160.948
  0
LINE
  8
0
 10
1.74344
 20
160.948
 11
1.7858
 21
160.726
  0
LINE
  8
0
 10
1.7858
 20
160.726
 11
1.79999
 21
160.5
  0
LINE
  8
0
 10
1.79999
 20
160.5
 11
1.7858
 21
160.274
  0
LINE
  8
0
 10
1.7858
 20
160.274
 11
1.74344
 21
160.052
  0
LINE
  8
0
 10
1.74344
 20
160.052
 11
1.67358
 21
159.837
  0
LINE
  8
0
 10
1.67358
 20
159.837
 11
1.57735
 21
159.633
  0
LINE
  8
0
 10
1.57735
 20
159.633
 11
1.45622
 21
159.442
  0
LINE
  8
0
 10
1.45622
 20
159.442
 11
1.31213
 21
159.268
  0
LINE
  8
0
 10
1.31213
 20
159.268
 11
1.14735
 21
159.113
  0
LINE
  8
0
 10
1.14735
 20
159.113
 11
0.964478
 21
158.98
  0
LINE
  8
0
 10
0.964478
 20
158.98
 11
0.766388
 21
158.871
  0
LINE
  8
0
 10
0.766388
 20
158.871
 11
0.556229
 21
158.788
  0
LINE
  8
0
 10
0.556229
 20
158.788
 11
0.33728
 21
158.732
  0
LINE
  8
0
 10
0.33728
 20
158.732
 11
0.113022
 21
158.704
  0
LINE
  8
0
 10
0.113022
 20
158.704
 11
-0.113022
 21
158.704
  0
LINE
  8
0
 10
-0.113022
 20
113.704
 11
-0.33728
 21
113.732
  0
LINE
  8
0
 10
-0.33728
 20
113.732
 11
-0.556229
 21
113.788
  0
LINE
  8
0
 10
-0.556229
 20
113.788
 11
-0.766388
 21
113.871
  0
LINE
  8
0
 10
-0.766388
 20
113.871
 11
-0.964478
 21
113.98
  0
LINE
  8
0
 10
-0.964478
 20
113.98
 11
-1.14735
 21
114.113
  0
LINE
  8
0
 10
-1.14735
 20
114.113
 11
-1.31213
 21
114.268
  0
LINE
  8
0
 10
-1.31213
 20
114.268
 11
-1.45622
 21
114.442
  0
LINE
  8
0
 10
-1.45622
 20
114.442
 11
-1.57735
 21
114.633
  0
LINE
  8
0
 10
-1.57735
 20
114.633
 11
-1.67358
 21
114.837
  0
LINE
  8
0
 10
-1.67358
 20
114.837
 11
-1.74344
 21
115.052
  0
LINE
  8
0
 10
-1.74344
 20
115.052
 11
-1.7858
 21
115.274
  0
LINE
  8
0
 10
-1.7858
 20
115.274
 11
-1.79999
 21
115.5
  0
LINE
  8
0
 10
-1.79999
 20
115.5
 11
-1.7858
 21
115.726
  0
LINE
  8
0
 10
-1.7858
 20
115.726
 11
-1.74344
 21
115.948
  0
LINE
  8
0
 10
-1.74344
 20
115.948
 11
-1.67358
 21
116.163
  0
LINE
  8
0
 10
-1.67358
 20
116.163
 11
-1.57735
 21
116.367
  0
LINE
  8
0
 10
-1.57735
 20
116.367
 11
-1.45622
 21
116.558
  0
LINE
  8
0
 10
-1.45622
 20
116.558
 11
-1.31213
 21
116.732
  0
LINE
  8
0
 10
-1.31213
 20
116.732
 11
-1.14735
 21
116.887
  0
LINE
  8
0
 10
-1.14735
 20
116.887
 11
-0.964478
 21
117.02
  0
LINE
  8
0
 10
-0.964478
 20
117.02
 11
-0.766388
 21
117.129
  0
LINE
  8
0
 10
-0.766388
 20
117.129
 11
-0.556229
 21
117.212
  0
LINE
  8
0
 10
-0.556229
 20
117.212
 11
-0.33728
 21
117.268
  0
LINE
  8
0
 10
-0.33728
 20
117.268
 11
-0.113022
 21
117.296
  0
LINE
  8
0
 10
-0.113022
 20
117.296
 11
0.113022
 21
117.296
  0
LINE
  8
0
 10
0.113022
 20
117.296
 11
0.33728
 21
117.268
  0
LINE
  8
0
 10
0.33728
 20
117.268
 11
0.556229
 21
117.212
  0
LINE
  8
0
 10
0.556229
 20
117.212
 11
0.766388
 21
117.129
  0
LINE
  8
0
 10
0.766388
 20
117.129
 11
0.964478
 21
117.02
  0
LINE
  8
0
 10
0.964478
 20
117.02
 11
1.14735
 21
116.887
  0
LINE
  8
0
 10
1.14735
 20
116.887
 11
1.31213
 21
116.732
  0
LINE
  8
0
 10
1.31213
 20
116.732
 11
1.45622
 21
116.558
  0
LINE
  8
0
 10
1.45622
 20
116.558
 11
1.57735
 21
116.367
  0
LINE
  8
0
 10
1.57735
 20
116.367
 11
1.67358
 21
116.163
  0
LINE
  8
0
 10
1.67358
 20
116.163
 11
1.74344
 21
115.948
  0
LINE
  8
0
 10
1.74344
 20
115.948
 11
1.7858
 21
115.726
  0
LINE
  8
0
 10
1.7858
 20
115.726
 11
1.79999
 21
115.5
  0
LINE
  8
0
 10
1.79999
 20
115.5
 11
1.7858
 21
115.274
  0
LINE
  8
0
 10
1.7858
 20
115.274
 11
1.74344
 21
115.052
  0
LINE
  8
0
 10
1.74344
 20
115.052
 11
1.67358
 21
114.837
  0
LINE
  8
0
 10
1.67358
 20
114.837
 11
1.57735
 21
114.633
  0
LINE
  8
0
 10
1.57735
 20
114.633
 11
1.45622
 21
114.442
  0
LINE
  8
0
 10
1.45622
 20
114.442
 11
1.31213
 21
114.268
  0
LINE
  8
0
 10
1.31213
 20
114.268
 11
1.14735
 21
114.113
  0
LINE
  8
0
 10
1.14735
 20
114.113
 11
0.964478
 21
113.98
  0
LINE
  8
0
 10
0.964478
 20
113.98
 11
0.766388
 21
113.871
  0
LINE
  8
0
 10
0.766388
 20
113.871
 11
0.556229
 21
113.788
  0
LINE
  8
0
 10
0.556229
 20
113.788
 11
0.33728
 21
113.732
  0
LINE
  8
0
 10
0.33728
 20
113.732
 11
0.113022
 21
113.704
  0
LINE
  8
0
 10
0.113022
 20
113.704
 11
-0.113022
 21
113.704
  0
ENDSEC
  0
SECTION
  2
OBJECTS
  0
DICTIONARY
  0
ENDSEC
  0
EOF
