<?xml version="1.0" standalone="no"?>
<!DOCTYPE svg PUBLIC "-//W3C//DTD SVG 1.1//EN" "http://www.w3.org/Graphics/SVG/1.1/DTD/svg11.dtd">
<svg width="60mm" height="198mm" viewBox="-30 -306 60 198" xmlns="http://www.w3.org/2000/svg" version="1.1">
<title>OpenSCAD Model</title>
<path d="
M 25.9369,-246.089 L 26.5451,-246.245 L 27.1289,-246.476 L 27.6791,-246.778 L 28.1871,-247.147 L 28.6448,-247.577
 L 29.0451,-248.061 L 29.3815,-248.591 L 29.6489,-249.159 L 29.8429,-249.757 L 29.9606,-250.373 L 30,-251
 L 30,-301 L 29.9606,-301.627 L 29.8429,-302.243 L 29.6489,-302.841 L 29.3815,-303.409 L 29.0451,-303.939
 L 28.6448,-304.423 L 28.1871,-304.853 L 27.6791,-305.222 L 27.1289,-305.524 L 26.5451,-305.755 L 25.9369,-305.911
 L 25.3139,-305.99 L -25.3139,-305.99 L -25.9369,-305.911 L -26.5451,-305.755 L -27.1289,-305.524 L -27.6791,-305.222
 L -28.1871,-304.853 L -28.6448,-304.423 L -29.0451,-303.939 L -29.3815,-303.409 L -29.6489,-302.841 L -29.8429,-302.243
 L -29.9606,-301.627 L -30,-301 L -30,-251 L -29.9606,-250.373 L -29.8429,-249.757 L -29.6489,-249.159
 L -29.3815,-248.591 L -29.0451,-248.061 L -28.6448,-247.577 L -28.1871,-247.147 L -27.6791,-246.778 L -27.1289,-246.476
 L -26.5451,-246.245 L -25.9369,-246.089 L -25.3139,-246.01 L 25.3139,-246.01 z
M -24.7432,-247.635 L -25.2256,-247.696 L -25.6967,-247.817 L -26.1489,-247.996 L -26.5751,-248.23 L -26.9685,-248.516
 L -27.323,-248.849 L -27.633,-249.224 L -27.8936,-249.634 L -28.1007,-250.074 L -28.251,-250.537 L -28.3421,-251.015
 L -28.3726,-251.5 L -28.3726,-300.5 L -28.3421,-300.985 L -28.251,-301.463 L -28.1007,-301.926 L -27.8936,-302.366
 L -27.633,-302.776 L -27.323,-303.151 L -26.9685,-303.484 L -26.5751,-303.77 L -26.1489,-304.004 L -25.6967,-304.183
 L -25.2256,-304.304 L -24.7432,-304.365 L 24.7432,-304.365 L 25.2256,-304.304 L 25.6967,-304.183 L 26.1489,-304.004
 L 26.5751,-303.77 L 26.9685,-303.484 L 27.323,-303.151 L 27.633,-302.776 L 27.8936,-302.366 L 28.1007,-301.926
 L 28.251,-301.463 L 28.3421,-300.985 L 28.3726,-300.5 L 28.3726,-251.5 L 28.3421,-251.015 L 28.251,-250.537
 L 28.1007,-250.074 L 27.8936,-249.634 L 27.633,-249.224 L 27.323,-248.849 L 26.9685,-248.516 L 26.5751,-248.23
 L 26.1489,-247.996 L 25.6967,-247.817 L 25.2256,-247.696 L 24.7432,-247.635 z
M 25.9369,-177.089 L 26.5451,-177.245 L 27.1289,-177.476 L 27.6791,-177.778 L 28.1871,-178.147 L 28.6448,-178.577
 L 29.0451,-179.061 L 29.3815,-179.591 L 29.6489,-180.159 L 29.8429,-180.757 L 29.9606,-181.373 L 30,-182
 L 30,-232 L 29.9606,-232.627 L 29.8429,-233.243 L 29.6489,-233.841 L 29.3815,-234.409 L 29.0451,-234.939
 L 28.6448,-235.423 L 28.1871,-235.853 L 27.6791,-236.222 L 27.1289,-236.524 L 26.5451,-236.755 L 25.9369,-236.911
 L 25.3139,-236.99 L -25.3139,-236.99 L -25.9369,-236.911 L -26.5451,-236.755 L -27.1289,-236.524 L -27.6791,-236.222
 L -28.1871,-235.853 L -28.6448,-235.423 L -29.0451,-234.939 L -29.3815,-234.409 L -29.6489,-233.841 L -29.8429,-233.243
 L -29.9606,-232.627 L -30,-232 L -30,-182 L -29.9606,-181.373 L -29.8429,-180.757 L -29.6489,-180.159
 L -29.3815,-179.591 L -29.0451,-179.061 L -28.6448,-178.577 L -28.1871,-178.147 L -27.6791,-177.778 L -27.1289,-177.476
 L -26.5451,-177.245 L -25.9369,-177.089 L -25.3139,-177.01 L 25.3139,-177.01 z
M 25.9369,-108.089 L 26.5451,-108.245 L 27.1289,-108.476 L 27.6791,-108.778 L 28.1871,-109.147 L 28.6448,-109.577
 L 29.0451,-110.061 L 29.3815,-110.591 L 29.6489,-111.159 L 29.8429,-111.757 L 29.9606,-112.373 L 30,-113
 L 30,-163 L 29.9606,-163.627 L 29.8429,-164.243 L 29.6489,-164.841 L 29.3815,-165.409 L 29.0451,-165.939
 L 28.6448,-166.423 L 28.1871,-166.853 L 27.6791,-167.222 L 27.1289,-167.524 L 26.5451,-167.755 L 25.9369,-167.911
 L 25.3139,-167.99 L -25.3139,-167.99 L -25.9369,-167.911 L -26.5451,-167.755 L -27.1289,-167.524 L -27.6791,-167.222
 L -28.1871,-166.853 L -28.6448,-166.423 L -29.0451,-165.939 L -29.3815,-165.409 L -29.6489,-164.841 L -29.8429,-164.243
 L -29.9606,-163.627 L -30,-163 L -30,-113 L -29.9606,-112.373 L -29.8429,-111.757 L -29.6489,-111.159
 L -29.3815,-110.591 L -29.0451,-110.061 L -28.6448,-109.577 L -28.1871,-109.147 L -27.6791,-108.778 L -27.1289,-108.476
 L -26.5451,-108.245 L -25.9369,-108.089 L -25.3139,-108.01 L 25.3139,-108.01 z
M 22.387,-158.704 L 22.1627,-158.732 L 21.9438,-158.788 L 21.7336,-158.871 L 21.5355,-158.98 L 21.3526,-159.113
 L 21.1879,-159.268 L 21.0438,-159.442 L 20.9226,-159.633 L 20.8264,-159.837 L 20.7565,-160.052 L 20.7142,-160.274
 L 20.7,-160.5 L 20.7142,-160.726 L 20.7565,-160.948 L 20.8264,-161.163 L 20.9226,-161.367 L 21.0438,-161.558
 L 21.1879,-161.732 L 21.3526,-161.887 L 21.5355,-162.02 L 21.7336,-162.129 L 21.9438,-162.212 L 22.1627,-162.268
 L 22.387,-162.296 L 22.613,-162.296 L 22.8373,-162.268 L 23.0562,-162.212 L 23.2664,-162.129 L 23.4645,-162.02
 L 23.6474,-161.887 L 23.8121,-161.732 L 23.9562,-161.558 L 24.0773,-161.367 L 24.1736,-161.163 L 24.2434,-160.948
 L 24.2858,-160.726 L 24.3,-160.5 L 24.2858,-160.274 L 24.2434,-160.052 L 24.1736,-159.837 L 24.0773,-159.633
 L 23.9562,-159.442 L 23.8121,-159.268 L 23.6474,-159.113 L 23.4645,-158.98 L 23.2664,-158.871 L 23.0562,-158.788
 L 22.8373,-158.732 L 22.613,-158.704 z
M -22.613,-158.704 L -22.8373,-158.732 L -23.0562,-158.788 L -23.2664,-158.871 L -23.4645,-158.98 L -23.6474,-159.113
 L -23.8121,-159.268 L -23.9562,-159.442 L -24.0773,-159.633 L -24.1736,-159.837 L -24.2434,-160.052 L -24.2858,-160.274
 L -24.3,-160.5 L -24.2858,-160.726 L -24.2434,-160.948 L -24.1736,-161.163 L -24.0773,-161.367 L -23.9562,-161.558
 L -23.8121,-161.732 L -23.6474,-161.887 L -23.4645,-162.02 L -23.2664,-162.129 L -23.0562,-162.212 L -22.8373,-162.268
 L -22.613,-162.296 L -22.387,-162.296 L -22.1627,-162.268 L -21.9438,-162.212 L -21.7336,-162.129 L -21.5355,-162.02
 L -21.3526,-161.887 L -21.1879,-161.732 L -21.0438,-161.558 L -20.9226,-161.367 L -20.8264,-161.163 L -20.7565,-160.948
 L -20.7142,-160.726 L -20.7,-160.5 L -20.7142,-160.274 L -20.7565,-160.052 L -20.8264,-159.837 L -20.9226,-159.633
 L -21.0438,-159.442 L -21.1879,-159.268 L -21.3526,-159.113 L -21.5355,-158.98 L -21.7336,-158.871 L -21.9438,-158.788
 L -22.1627,-158.732 L -22.387,-158.704 z
M -22.613,-113.704 L -22.8373,-113.732 L -23.0562,-113.788 L -23.2664,-113.871 L -23.4645,-113.98 L -23.6474,-114.113
 L -23.8121,-114.268 L -23.9562,-114.442 L -24.0773,-114.633 L -24.1736,-114.837 L -24.2434,-115.052 L -24.2858,-115.274
 L -24.3,-115.5 L -24.2858,-115.726 L -24.2434,-115.948 L -24.1736,-116.163 L -24.0773,-116.367 L -23.9562,-116.558
 L -23.8121,-116.732 L -23.6474,-116.887 L -23.4645,-117.02 L -23.2664,-117.129 L -23.0562,-117.212 L -22.8373,-117.268
 L -22.613,-117.296 L -22.387,-117.296 L -22.1627,-117.268 L -21.9438,-117.212 L -21.7336,-117.129 L -21.5355,-117.02
 L -21.3526,-116.887 L -21.1879,-116.732 L -21.0438,-116.558 L -20.9226,-116.367 L -20.8264,-116.163 L -20.7565,-115.948
 L -20.7142,-115.726 L -20.7,-115.5 L -20.7142,-115.274 L -20.7565,-115.052 L -20.8264,-114.837 L -20.9226,-114.633
 L -21.0438,-114.442 L -21.1879,-114.268 L -21.3526,-114.113 L -21.5355,-113.98 L -21.7336,-113.871 L -21.9438,-113.788
 L -22.1627,-113.732 L -22.387,-113.704 z
M 22.387,-113.704 L 22.1627,-113.732 L 21.9438,-113.788 L 21.7336,-113.871 L 21.5355,-113.98 L 21.3526,-114.113
 L 21.1879,-114.268 L 21.0438,-114.442 L 20.9226,-114.633 L 20.8264,-114.837 L 20.7565,-115.052 L 20.7142,-115.274
 L 20.7,-115.5 L 20.7142,-115.726 L 20.7565,-115.948 L 20.8264,-116.163 L 20.9226,-116.367 L 21.0438,-116.558
 L 21.1879,-116.732 L 21.3526,-116.887 L 21.5355,-117.02 L 21.7336,-117.129 L 21.9438,-117.212 L 22.1627,-117.268
 L 22.387,-117.296 L 22.613,-117.296 L 22.8373,-117.268 L 23.0562,-117.212 L 23.2664,-117.129 L 23.4645,-117.02
 L 23.6474,-116.887 L 23.8121,-116.732 L 23.9562,-116.558 L 24.0773,-116.367 L 24.1736,-116.163 L 24.2434,-115.948
 L 24.2858,-115.726 L 24.3,-115.5 L 24.2858,-115.274 L 24.2434,-115.052 L 24.1736,-114.837 L 24.0773,-114.633
 L 23.9562,-114.442 L 23.8121,-114.268 L 23.6474,-114.113 L 23.4645,-113.98 L 23.2664,-113.871 L 23.0562,-113.788
 L 22.8373,-113.732 L 22.613,-113.704 z
" stroke="black" fill="lightgray" stroke-width="0.5"/>
</svg>
