<?xml version="1.0" standalone="no"?>
<!DOCTYPE svg PUBLIC "-//W3C//DTD SVG 1.1//EN" "http://www.w3.org/Graphics/SVG/1.1/DTD/svg11.dtd">
<svg width="30mm" height="189mm" viewBox="-15 -243 30 189" xmlns="http://www.w3.org/2000/svg" version="1.1">
<title>OpenSCAD Model</title>
<path d="
M 10.9369,-153.089 L 11.5451,-153.245 L 12.1289,-153.476 L 12.6791,-153.778 L 13.1871,-154.147 L 13.6448,-154.577
 L 14.0451,-155.061 L 14.3815,-155.591 L 14.6489,-156.159 L 14.8429,-156.757 L 14.9606,-157.373 L 15,-158
 L 15,-238 L 14.9606,-238.627 L 14.8429,-239.243 L 14.6489,-239.841 L 14.3815,-240.409 L 14.0451,-240.939
 L 13.6448,-241.423 L 13.1871,-241.853 L 12.6791,-242.222 L 12.1289,-242.524 L 11.5451,-242.755 L 10.9369,-242.911
 L 10.3139,-242.99 L -10.3139,-242.99 L -10.9369,-242.911 L -11.5451,-242.755 L -12.1289,-242.524 L -12.6791,-242.222
 L -13.1871,-241.853 L -13.6448,-241.423 L -14.0451,-240.939 L -14.3815,-240.409 L -14.6489,-239.841 L -14.8429,-239.243
 L -14.9606,-238.627 L -15,-238 L -15,-158 L -14.9606,-157.373 L -14.8429,-156.757 L -14.6489,-156.159
 L -14.3815,-155.591 L -14.0451,-155.061 L -13.6448,-154.577 L -13.1871,-154.147 L -12.6791,-153.778 L -12.1289,-153.476
 L -11.5451,-153.245 L -10.9369,-153.089 L -10.3139,-153.01 L 10.3139,-153.01 z
M 10.9369,-54.0886 L 11.5451,-54.2447 L 12.1289,-54.4759 L 12.6791,-54.7784 L 13.1871,-55.1474 L 13.6448,-55.5773
 L 14.0451,-56.0611 L 14.3815,-56.5912 L 14.6489,-57.1594 L 14.8429,-57.7566 L 14.9606,-58.3733 L 15,-59
 L 15,-139 L 14.9606,-139.627 L 14.8429,-140.243 L 14.6489,-140.841 L 14.3815,-141.409 L 14.0451,-141.939
 L 13.6448,-142.423 L 13.1871,-142.853 L 12.6791,-143.222 L 12.1289,-143.524 L 11.5451,-143.755 L 10.9369,-143.911
 L 10.3139,-143.99 L -10.3139,-143.99 L -10.9369,-143.911 L -11.5451,-143.755 L -12.1289,-143.524 L -12.6791,-143.222
 L -13.1871,-142.853 L -13.6448,-142.423 L -14.0451,-141.939 L -14.3815,-141.409 L -14.6489,-140.841 L -14.8429,-140.243
 L -14.9606,-139.627 L -15,-139 L -15,-59 L -14.9606,-58.3733 L -14.8429,-57.7566 L -14.6489,-57.1594
 L -14.3815,-56.5912 L -14.0451,-56.0611 L -13.6448,-55.5773 L -13.1871,-55.1474 L -12.6791,-54.7784 L -12.1289,-54.4759
 L -11.5451,-54.2447 L -10.9369,-54.0886 L -10.3139,-54.0099 L 10.3139,-54.0099 z
M 7.38696,-134.704 L 7.1627,-134.732 L 6.94376,-134.788 L 6.7336,-134.871 L 6.53551,-134.98 L 6.35263,-135.113
 L 6.18785,-135.268 L 6.04376,-135.442 L 5.92264,-135.633 L 5.8264,-135.837 L 5.75655,-136.052 L 5.71419,-136.274
 L 5.7,-136.5 L 5.71419,-136.726 L 5.75655,-136.948 L 5.8264,-137.163 L 5.92264,-137.367 L 6.04376,-137.558
 L 6.18785,-137.732 L 6.35263,-137.887 L 6.53551,-138.02 L 6.7336,-138.129 L 6.94376,-138.212 L 7.1627,-138.268
 L 7.38696,-138.296 L 7.61302,-138.296 L 7.83728,-138.268 L 8.05623,-138.212 L 8.26639,-138.129 L 8.46448,-138.02
 L 8.64735,-137.887 L 8.81213,-137.732 L 8.95622,-137.558 L 9.07735,-137.367 L 9.17358,-137.163 L 9.24344,-136.948
 L 9.2858,-136.726 L 9.29999,-136.5 L 9.2858,-136.274 L 9.24344,-136.052 L 9.17358,-135.837 L 9.07735,-135.633
 L 8.95622,-135.442 L 8.81213,-135.268 L 8.64735,-135.113 L 8.46448,-134.98 L 8.26639,-134.871 L 8.05623,-134.788
 L 7.83728,-134.732 L 7.61302,-134.704 z
M -7.61302,-134.704 L -7.83728,-134.732 L -8.05623,-134.788 L -8.26639,-134.871 L -8.46448,-134.98 L -8.64735,-135.113
 L -8.81213,-135.268 L -8.95622,-135.442 L -9.07735,-135.633 L -9.17358,-135.837 L -9.24344,-136.052 L -9.2858,-136.274
 L -9.29999,-136.5 L -9.2858,-136.726 L -9.24344,-136.948 L -9.17358,-137.163 L -9.07735,-137.367 L -8.95622,-137.558
 L -8.81213,-137.732 L -8.64735,-137.887 L -8.46448,-138.02 L -8.26639,-138.129 L -8.05623,-138.212 L -7.83728,-138.268
 L -7.61302,-138.296 L -7.38696,-138.296 L -7.1627,-138.268 L -6.94376,-138.212 L -6.7336,-138.129 L -6.53551,-138.02
 L -6.35263,-137.887 L -6.18785,-137.732 L -6.04376,-137.558 L -5.92264,-137.367 L -5.8264,-137.163 L -5.75655,-136.948
 L -5.71419,-136.726 L -5.7,-136.5 L -5.71419,-136.274 L -5.75655,-136.052 L -5.8264,-135.837 L -5.92264,-135.633
 L -6.04376,-135.442 L -6.18785,-135.268 L -6.35263,-135.113 L -6.53551,-134.98 L -6.7336,-134.871 L -6.94376,-134.788
 L -7.1627,-134.732 L -7.38696,-134.704 z
M -7.61302,-59.7036 L -7.83728,-59.7319 L -8.05623,-59.7881 L -8.26639,-59.8713 L -8.46448,-59.9802 L -8.64735,-60.1131
 L -8.81213,-60.2678 L -8.95622,-60.442 L -9.07735,-60.6328 L -9.17358,-60.8374 L -9.24344,-61.0524 L -9.2858,-61.2744
 L -9.29999,-61.5 L -9.2858,-61.7256 L -9.24344,-61.9476 L -9.17358,-62.1626 L -9.07735,-62.3672 L -8.95622,-62.558
 L -8.81213,-62.7322 L -8.64735,-62.8869 L -8.46448,-63.0198 L -8.26639,-63.1287 L -8.05623,-63.2119 L -7.83728,-63.2681
 L -7.61302,-63.2964 L -7.38696,-63.2964 L -7.1627,-63.2681 L -6.94376,-63.2119 L -6.7336,-63.1287 L -6.53551,-63.0198
 L -6.35263,-62.8869 L -6.18785,-62.7322 L -6.04376,-62.558 L -5.92264,-62.3672 L -5.8264,-62.1626 L -5.75655,-61.9476
 L -5.71419,-61.7256 L -5.7,-61.5 L -5.71419,-61.2744 L -5.75655,-61.0524 L -5.8264,-60.8374 L -5.92264,-60.6328
 L -6.04376,-60.442 L -6.18785,-60.2678 L -6.35263,-60.1131 L -6.53551,-59.9802 L -6.7336,-59.8713 L -6.94376,-59.7881
 L -7.1627,-59.7319 L -7.38696,-59.7036 z
M 7.38696,-59.7036 L 7.1627,-59.7319 L 6.94376,-59.7881 L 6.7336,-59.8713 L 6.53551,-59.9802 L 6.35263,-60.1131
 L 6.18785,-60.2678 L 6.04376,-60.442 L 5.92264,-60.6328 L 5.8264,-60.8374 L 5.75655,-61.0524 L 5.71419,-61.2744
 L 5.7,-61.5 L 5.71419,-61.7256 L 5.75655,-61.9476 L 5.8264,-62.1626 L 5.92264,-62.3672 L 6.04376,-62.558
 L 6.18785,-62.7322 L 6.35263,-62.8869 L 6.53551,-63.0198 L 6.7336,-63.1287 L 6.94376,-63.2119 L 7.1627,-63.2681
 L 7.38696,-63.2964 L 7.61302,-63.2964 L 7.83728,-63.2681 L 8.05623,-63.2119 L 8.26639,-63.1287 L 8.46448,-63.0198
 L 8.64735,-62.8869 L 8.81213,-62.7322 L 8.95622,-62.558 L 9.07735,-62.3672 L 9.17358,-62.1626 L 9.24344,-61.9476
 L 9.2858,-61.7256 L 9.29999,-61.5 L 9.2858,-61.2744 L 9.24344,-61.0524 L 9.17358,-60.8374 L 9.07735,-60.6328
 L 8.95622,-60.442 L 8.81213,-60.2678 L 8.64735,-60.1131 L 8.46448,-59.9802 L 8.26639,-59.8713 L 8.05623,-59.7881
 L 7.83728,-59.7319 L 7.61302,-59.7036 z
" stroke="black" fill="lightgray" stroke-width="0.5"/>
</svg>
