<?xml version="1.0" standalone="no"?>
<!DOCTYPE svg PUBLIC "-//W3C//DTD SVG 1.1//EN" "http://www.w3.org/Graphics/SVG/1.1/DTD/svg11.dtd">
<svg width="167mm" height="69mm" viewBox="-84 -132 167 69" xmlns="http://www.w3.org/2000/svg" version="1.1">
<title>OpenSCAD Model</title>
<path d="
M 78.4369,-102.089 L 79.0451,-102.245 L 79.6289,-102.476 L 80.1791,-102.778 L 80.6871,-103.147 L 81.1448,-103.577
 L 81.5451,-104.061 L 81.8815,-104.591 L 82.1489,-105.159 L 82.3429,-105.757 L 82.4606,-106.373 L 82.5,-107
 L 82.5,-127 L 82.4606,-127.627 L 82.3429,-128.243 L 82.1489,-128.841 L 81.8815,-129.409 L 81.5451,-129.939
 L 81.1448,-130.423 L 80.6871,-130.853 L 80.1791,-131.222 L 79.6289,-131.524 L 79.0451,-131.755 L 78.4369,-131.911
 L 77.8139,-131.99 L -77.8139,-131.99 L -78.4369,-131.911 L -79.0451,-131.755 L -79.6289,-131.524 L -80.1791,-131.222
 L -80.6871,-130.853 L -81,-130.559 L -81,-131.979 L -84,-131.979 L -84,-102.021 L -81,-102.021
 L -81,-103.441 L -80.6871,-103.147 L -80.1791,-102.778 L -79.6289,-102.476 L -79.0451,-102.245 L -78.4369,-102.089
 L -77.8139,-102.01 L 77.8139,-102.01 z
M -77.1955,-104.393 L -77.5833,-104.442 L -77.9619,-104.539 L -78.3254,-104.683 L -78.668,-104.872 L -78.9843,-105.101
 L -79.2692,-105.369 L -79.5184,-105.67 L -79.7279,-106 L -79.8943,-106.354 L -80.0151,-106.726 L -80.0884,-107.11
 L -80.1129,-107.5 L -80.1129,-126.5 L -80.0884,-126.89 L -80.0151,-127.274 L -79.8943,-127.646 L -79.7279,-128
 L -79.5184,-128.33 L -79.2692,-128.631 L -78.9843,-128.899 L -78.668,-129.128 L -78.3254,-129.317 L -77.9619,-129.461
 L -77.5833,-129.558 L -77.1955,-129.607 L 77.1955,-129.607 L 77.5833,-129.558 L 77.9619,-129.461 L 78.3254,-129.317
 L 78.668,-129.128 L 78.9843,-128.899 L 79.2692,-128.631 L 79.5184,-128.33 L 79.7279,-128 L 79.8943,-127.646
 L 80.0151,-127.274 L 80.0884,-126.89 L 80.1129,-126.5 L 80.1129,-107.5 L 80.0884,-107.11 L 80.0151,-106.726
 L 79.8943,-106.354 L 79.7279,-106 L 79.5184,-105.67 L 79.2692,-105.369 L 78.9843,-105.101 L 78.668,-104.872
 L 78.3254,-104.683 L 77.9619,-104.539 L 77.5833,-104.442 L 77.1955,-104.393 z
M 78.4369,-63.0886 L 79.0451,-63.2447 L 79.6289,-63.4759 L 80.1791,-63.7784 L 80.6871,-64.1474 L 81.1448,-64.5773
 L 81.5451,-65.0611 L 81.8815,-65.5912 L 82.1489,-66.1594 L 82.3429,-66.7566 L 82.4606,-67.3733 L 82.5,-68
 L 82.5,-88 L 82.4606,-88.6267 L 82.3429,-89.2434 L 82.1489,-89.8406 L 81.8815,-90.4088 L 81.5451,-90.9389
 L 81.1448,-91.4227 L 80.6871,-91.8526 L 80.1791,-92.2216 L 79.6289,-92.5241 L 79.0451,-92.7553 L 78.4369,-92.9114
 L 77.8139,-92.9901 L -77.8139,-92.9901 L -78.4369,-92.9114 L -79.0451,-92.7553 L -79.6289,-92.5241 L -80.1791,-92.2216
 L -80.6871,-91.8526 L -81,-91.5587 L -81,-91.6526 L -84,-91.6526 L -84,-64.3474 L -81,-64.3474
 L -81,-64.4413 L -80.6871,-64.1474 L -80.1791,-63.7784 L -79.6289,-63.4759 L -79.0451,-63.2447 L -78.4369,-63.0886
 L -77.8139,-63.0099 L 77.8139,-63.0099 z
M 74.8659,-83.3689 L 74.5999,-83.4025 L 74.3401,-83.4692 L 74.0908,-83.5679 L 73.8559,-83.6971 L 73.6389,-83.8547
 L 73.4434,-84.0383 L 73.2725,-84.2449 L 73.1288,-84.4713 L 73.0146,-84.7139 L 72.9318,-84.969 L 72.8815,-85.2324
 L 72.8647,-85.5 L 72.8815,-85.7676 L 72.9318,-86.031 L 73.0146,-86.286 L 73.1288,-86.5287 L 73.2725,-86.7551
 L 73.4434,-86.9617 L 73.6389,-87.1453 L 73.8559,-87.3029 L 74.0908,-87.4321 L 74.3401,-87.5308 L 74.5999,-87.5975
 L 74.8659,-87.6311 L 75.1341,-87.6311 L 75.4001,-87.5975 L 75.6598,-87.5308 L 75.9092,-87.4321 L 76.1441,-87.3029
 L 76.3611,-87.1453 L 76.5566,-86.9617 L 76.7275,-86.7551 L 76.8712,-86.5287 L 76.9853,-86.286 L 77.0682,-86.031
 L 77.1185,-85.7676 L 77.1353,-85.5 L 77.1185,-85.2324 L 77.0682,-84.969 L 76.9853,-84.7139 L 76.8712,-84.4713
 L 76.7275,-84.2449 L 76.5566,-84.0383 L 76.3611,-83.8547 L 76.1441,-83.6971 L 75.9092,-83.5679 L 75.6598,-83.4692
 L 75.4001,-83.4025 L 75.1341,-83.3689 z
M -75.1341,-83.3689 L -75.4001,-83.4025 L -75.6598,-83.4692 L -75.9092,-83.5679 L -76.1441,-83.6971 L -76.3611,-83.8547
 L -76.5566,-84.0383 L -76.7275,-84.2449 L -76.8712,-84.4713 L -76.9853,-84.7139 L -77.0682,-84.969 L -77.1185,-85.2324
 L -77.1353,-85.5 L -77.1185,-85.7676 L -77.0682,-86.031 L -76.9853,-86.286 L -76.8712,-86.5287 L -76.7275,-86.7551
 L -76.5566,-86.9617 L -76.3611,-87.1453 L -76.1441,-87.3029 L -75.9092,-87.4321 L -75.6598,-87.5308 L -75.4001,-87.5975
 L -75.1341,-87.6311 L -74.8659,-87.6311 L -74.5999,-87.5975 L -74.3401,-87.5308 L -74.0908,-87.4321 L -73.8559,-87.3029
 L -73.6389,-87.1453 L -73.4434,-86.9617 L -73.2725,-86.7551 L -73.1288,-86.5287 L -73.0146,-86.286 L -72.9318,-86.031
 L -72.8815,-85.7676 L -72.8647,-85.5 L -72.8815,-85.2324 L -72.9318,-84.969 L -73.0146,-84.7139 L -73.1288,-84.4713
 L -73.2725,-84.2449 L -73.4434,-84.0383 L -73.6389,-83.8547 L -73.8559,-83.6971 L -74.0908,-83.5679 L -74.3401,-83.4692
 L -74.5999,-83.4025 L -74.8659,-83.3689 z
M 74.8659,-68.3689 L 74.5999,-68.4025 L 74.3401,-68.4692 L 74.0908,-68.5679 L 73.8559,-68.6971 L 73.6389,-68.8547
 L 73.4434,-69.0383 L 73.2725,-69.2449 L 73.1288,-69.4713 L 73.0146,-69.714 L 72.9318,-69.969 L 72.8815,-70.2324
 L 72.8647,-70.5 L 72.8815,-70.7676 L 72.9318,-71.031 L 73.0146,-71.2861 L 73.1288,-71.5287 L 73.2725,-71.7551
 L 73.4434,-71.9617 L 73.6389,-72.1453 L 73.8559,-72.3029 L 74.0908,-72.4321 L 74.3401,-72.5308 L 74.5999,-72.5975
 L 74.8659,-72.6311 L 75.1341,-72.6311 L 75.4001,-72.5975 L 75.6598,-72.5308 L 75.9092,-72.4321 L 76.1441,-72.3029
 L 76.3611,-72.1453 L 76.5566,-71.9617 L 76.7275,-71.7551 L 76.8712,-71.5287 L 76.9853,-71.2861 L 77.0682,-71.031
 L 77.1185,-70.7676 L 77.1353,-70.5 L 77.1185,-70.2324 L 77.0682,-69.969 L 76.9853,-69.714 L 76.8712,-69.4713
 L 76.7275,-69.2449 L 76.5566,-69.0383 L 76.3611,-68.8547 L 76.1441,-68.6971 L 75.9092,-68.5679 L 75.6598,-68.4692
 L 75.4001,-68.4025 L 75.1341,-68.3689 z
M -75.1341,-68.3689 L -75.4001,-68.4025 L -75.6598,-68.4692 L -75.9092,-68.5679 L -76.1441,-68.6971 L -76.3611,-68.8547
 L -76.5566,-69.0383 L -76.7275,-69.2449 L -76.8712,-69.4713 L -76.9853,-69.714 L -77.0682,-69.969 L -77.1185,-70.2324
 L -77.1353,-70.5 L -77.1185,-70.7676 L -77.0682,-71.031 L -76.9853,-71.2861 L -76.8712,-71.5287 L -76.7275,-71.7551
 L -76.5566,-71.9617 L -76.3611,-72.1453 L -76.1441,-72.3029 L -75.9092,-72.4321 L -75.6598,-72.5308 L -75.4001,-72.5975
 L -75.1341,-72.6311 L -74.8659,-72.6311 L -74.5999,-72.5975 L -74.3401,-72.5308 L -74.0908,-72.4321 L -73.8559,-72.3029
 L -73.6389,-72.1453 L -73.4434,-71.9617 L -73.2725,-71.7551 L -73.1288,-71.5287 L -73.0146,-71.2861 L -72.9318,-71.031
 L -72.8815,-70.7676 L -72.8647,-70.5 L -72.8815,-70.2324 L -72.9318,-69.969 L -73.0146,-69.714 L -73.1288,-69.4713
 L -73.2725,-69.2449 L -73.4434,-69.0383 L -73.6389,-68.8547 L -73.8559,-68.6971 L -74.0908,-68.5679 L -74.3401,-68.4692
 L -74.5999,-68.4025 L -74.8659,-68.3689 z
" stroke="black" fill="lightgray" stroke-width="0.5"/>
</svg>
