<?xml version="1.0" standalone="no"?>
<!DOCTYPE svg PUBLIC "-//W3C//DTD SVG 1.1//EN" "http://www.w3.org/Graphics/SVG/1.1/DTD/svg11.dtd">
<svg width="30mm" height="108mm" viewBox="-15 -210 30 108" xmlns="http://www.w3.org/2000/svg" version="1.1">
<title>OpenSCAD Model</title>
<path d="
M 10.9369,-180.089 L 11.5451,-180.245 L 12.1289,-180.476 L 12.6791,-180.778 L 13.1871,-181.147 L 13.6448,-181.577
 L 14.0451,-182.061 L 14.3815,-182.591 L 14.6489,-183.159 L 14.8429,-183.757 L 14.9606,-184.373 L 15,-185
 L 15,-205 L 14.9606,-205.627 L 14.8429,-206.243 L 14.6489,-206.841 L 14.3815,-207.409 L 14.0451,-207.939
 L 13.6448,-208.423 L 13.1871,-208.853 L 12.6791,-209.222 L 12.1289,-209.524 L 11.5451,-209.755 L 10.9369,-209.911
 L 10.3139,-209.99 L -10.3139,-209.99 L -10.9369,-209.911 L -11.5451,-209.755 L -12.1289,-209.524 L -12.6791,-209.222
 L -13.1871,-208.853 L -13.6448,-208.423 L -14.0451,-207.939 L -14.3815,-207.409 L -14.6489,-206.841 L -14.8429,-206.243
 L -14.9606,-205.627 L -15,-205 L -15,-185 L -14.9606,-184.373 L -14.8429,-183.757 L -14.6489,-183.159
 L -14.3815,-182.591 L -14.0451,-182.061 L -13.6448,-181.577 L -13.1871,-181.147 L -12.6791,-180.778 L -12.1289,-180.476
 L -11.5451,-180.245 L -10.9369,-180.089 L -10.3139,-180.01 L 10.3139,-180.01 z
M -9.75116,-181.508 L -10.2495,-181.571 L -10.7361,-181.696 L -11.2031,-181.881 L -11.6433,-182.123 L -12.0497,-182.418
 L -12.4159,-182.762 L -12.7361,-183.149 L -13.0052,-183.573 L -13.2191,-184.028 L -13.3743,-184.505 L -13.4684,-184.999
 L -13.5,-185.5 L -13.5,-204.5 L -13.4684,-205.001 L -13.3743,-205.495 L -13.2191,-205.972 L -13.0052,-206.427
 L -12.7361,-206.851 L -12.4159,-207.238 L -12.0497,-207.582 L -11.6433,-207.877 L -11.2031,-208.119 L -10.7361,-208.304
 L -10.2495,-208.429 L -9.75116,-208.492 L 9.75116,-208.492 L 10.2495,-208.429 L 10.7361,-208.304 L 11.2031,-208.119
 L 11.6433,-207.877 L 12.0497,-207.582 L 12.4159,-207.238 L 12.7361,-206.851 L 13.0052,-206.427 L 13.2191,-205.972
 L 13.3743,-205.495 L 13.4684,-205.001 L 13.5,-204.5 L 13.5,-185.5 L 13.4684,-184.999 L 13.3743,-184.505
 L 13.2191,-184.028 L 13.0052,-183.573 L 12.7361,-183.149 L 12.4159,-182.762 L 12.0497,-182.418 L 11.6433,-182.123
 L 11.2031,-181.881 L 10.7361,-181.696 L 10.2495,-181.571 L 9.75116,-181.508 z
M 10.9369,-141.089 L 11.5451,-141.245 L 12.1289,-141.476 L 12.6791,-141.778 L 13.1871,-142.147 L 13.6448,-142.577
 L 14.0451,-143.061 L 14.3815,-143.591 L 14.6489,-144.159 L 14.8429,-144.757 L 14.9606,-145.373 L 15,-146
 L 15,-166 L 14.9606,-166.627 L 14.8429,-167.243 L 14.6489,-167.841 L 14.3815,-168.409 L 14.0451,-168.939
 L 13.6448,-169.423 L 13.1871,-169.853 L 12.6791,-170.222 L 12.1289,-170.524 L 11.5451,-170.755 L 10.9369,-170.911
 L 10.3139,-170.99 L -10.3139,-170.99 L -10.9369,-170.911 L -11.5451,-170.755 L -12.1289,-170.524 L -12.6791,-170.222
 L -13.1871,-169.853 L -13.6448,-169.423 L -14.0451,-168.939 L -14.3815,-168.409 L -14.6489,-167.841 L -14.8429,-167.243
 L -14.9606,-166.627 L -15,-166 L -15,-146 L -14.9606,-145.373 L -14.8429,-144.757 L -14.6489,-144.159
 L -14.3815,-143.591 L -14.0451,-143.061 L -13.6448,-142.577 L -13.1871,-142.147 L -12.6791,-141.778 L -12.1289,-141.476
 L -11.5451,-141.245 L -10.9369,-141.089 L -10.3139,-141.01 L 10.3139,-141.01 z
M -9.69545,-143.393 L -10.0833,-143.442 L -10.4619,-143.539 L -10.8254,-143.683 L -11.168,-143.872 L -11.4842,-144.101
 L -11.7692,-144.369 L -12.0184,-144.67 L -12.2279,-145 L -12.3943,-145.354 L -12.5151,-145.726 L -12.5884,-146.11
 L -12.6129,-146.5 L -12.6129,-165.5 L -12.5884,-165.89 L -12.5151,-166.274 L -12.3943,-166.646 L -12.2279,-167
 L -12.0184,-167.33 L -11.7692,-167.631 L -11.4842,-167.899 L -11.168,-168.128 L -10.8254,-168.317 L -10.4619,-168.461
 L -10.0833,-168.558 L -9.69545,-168.607 L 9.69545,-168.607 L 10.0833,-168.558 L 10.4619,-168.461 L 10.8254,-168.317
 L 11.168,-168.128 L 11.4842,-167.899 L 11.7692,-167.631 L 12.0184,-167.33 L 12.2279,-167 L 12.3943,-166.646
 L 12.5151,-166.274 L 12.5884,-165.89 L 12.6129,-165.5 L 12.6129,-146.5 L 12.5884,-146.11 L 12.5151,-145.726
 L 12.3943,-145.354 L 12.2279,-145 L 12.0184,-144.67 L 11.7692,-144.369 L 11.4842,-144.101 L 11.168,-143.872
 L 10.8254,-143.683 L 10.4619,-143.539 L 10.0833,-143.442 L 9.69545,-143.393 z
M 10.9369,-102.089 L 11.5451,-102.245 L 12.1289,-102.476 L 12.6791,-102.778 L 13.1871,-103.147 L 13.6448,-103.577
 L 14.0451,-104.061 L 14.3815,-104.591 L 14.6489,-105.159 L 14.8429,-105.757 L 14.9606,-106.373 L 15,-107
 L 15,-127 L 14.9606,-127.627 L 14.8429,-128.243 L 14.6489,-128.841 L 14.3815,-129.409 L 14.0451,-129.939
 L 13.6448,-130.423 L 13.1871,-130.853 L 12.6791,-131.222 L 12.1289,-131.524 L 11.5451,-131.755 L 10.9369,-131.911
 L 10.3139,-131.99 L -10.3139,-131.99 L -10.9369,-131.911 L -11.5451,-131.755 L -12.1289,-131.524 L -12.6791,-131.222
 L -13.1871,-130.853 L -13.6448,-130.423 L -14.0451,-129.939 L -14.3815,-129.409 L -14.6489,-128.841 L -14.8429,-128.243
 L -14.9606,-127.627 L -15,-127 L -15,-107 L -14.9606,-106.373 L -14.8429,-105.757 L -14.6489,-105.159
 L -14.3815,-104.591 L -14.0451,-104.061 L -13.6448,-103.577 L -13.1871,-103.147 L -12.6791,-102.778 L -12.1289,-102.476
 L -11.5451,-102.245 L -10.9369,-102.089 L -10.3139,-102.01 L 10.3139,-102.01 z
M 7.36592,-122.369 L 7.09988,-122.403 L 6.84015,-122.469 L 6.59084,-122.568 L 6.35585,-122.697 L 6.1389,-122.855
 L 5.94344,-123.038 L 5.77251,-123.245 L 5.62881,-123.471 L 5.51465,-123.714 L 5.43178,-123.969 L 5.38153,-124.232
 L 5.3647,-124.5 L 5.38153,-124.768 L 5.43178,-125.031 L 5.51465,-125.286 L 5.62881,-125.529 L 5.77251,-125.755
 L 5.94344,-125.962 L 6.1389,-126.145 L 6.35585,-126.303 L 6.59084,-126.432 L 6.84015,-126.531 L 7.09988,-126.597
 L 7.36592,-126.631 L 7.63406,-126.631 L 7.9001,-126.597 L 8.15984,-126.531 L 8.40915,-126.432 L 8.64413,-126.303
 L 8.86108,-126.145 L 9.05655,-125.962 L 9.22748,-125.755 L 9.37117,-125.529 L 9.48534,-125.286 L 9.56821,-125.031
 L 9.61845,-124.768 L 9.63528,-124.5 L 9.61845,-124.232 L 9.56821,-123.969 L 9.48534,-123.714 L 9.37117,-123.471
 L 9.22748,-123.245 L 9.05655,-123.038 L 8.86108,-122.855 L 8.64413,-122.697 L 8.40915,-122.568 L 8.15984,-122.469
 L 7.9001,-122.403 L 7.63406,-122.369 z
M -7.63406,-122.369 L -7.9001,-122.403 L -8.15984,-122.469 L -8.40915,-122.568 L -8.64413,-122.697 L -8.86108,-122.855
 L -9.05655,-123.038 L -9.22748,-123.245 L -9.37117,-123.471 L -9.48534,-123.714 L -9.56821,-123.969 L -9.61845,-124.232
 L -9.63528,-124.5 L -9.61845,-124.768 L -9.56821,-125.031 L -9.48534,-125.286 L -9.37117,-125.529 L -9.22748,-125.755
 L -9.05655,-125.962 L -8.86108,-126.145 L -8.64413,-126.303 L -8.40915,-126.432 L -8.15984,-126.531 L -7.9001,-126.597
 L -7.63406,-126.631 L -7.36592,-126.631 L -7.09988,-126.597 L -6.84015,-126.531 L -6.59084,-126.432 L -6.35585,-126.303
 L -6.1389,-126.145 L -5.94344,-125.962 L -5.77251,-125.755 L -5.62881,-125.529 L -5.51465,-125.286 L -5.43178,-125.031
 L -5.38153,-124.768 L -5.3647,-124.5 L -5.38153,-124.232 L -5.43178,-123.969 L -5.51465,-123.714 L -5.62881,-123.471
 L -5.77251,-123.245 L -5.94344,-123.038 L -6.1389,-122.855 L -6.35585,-122.697 L -6.59084,-122.568 L -6.84015,-122.469
 L -7.09988,-122.403 L -7.36592,-122.369 z
M 7.36592,-107.369 L 7.09988,-107.403 L 6.84015,-107.469 L 6.59084,-107.568 L 6.35585,-107.697 L 6.1389,-107.855
 L 5.94344,-108.038 L 5.77251,-108.245 L 5.62881,-108.471 L 5.51465,-108.714 L 5.43178,-108.969 L 5.38153,-109.232
 L 5.3647,-109.5 L 5.38153,-109.768 L 5.43178,-110.031 L 5.51465,-110.286 L 5.62881,-110.529 L 5.77251,-110.755
 L 5.94344,-110.962 L 6.1389,-111.145 L 6.35585,-111.303 L 6.59084,-111.432 L 6.84015,-111.531 L 7.09988,-111.597
 L 7.36592,-111.631 L 7.63406,-111.631 L 7.9001,-111.597 L 8.15984,-111.531 L 8.40915,-111.432 L 8.64413,-111.303
 L 8.86108,-111.145 L 9.05655,-110.962 L 9.22748,-110.755 L 9.37117,-110.529 L 9.48534,-110.286 L 9.56821,-110.031
 L 9.61845,-109.768 L 9.63528,-109.5 L 9.61845,-109.232 L 9.56821,-108.969 L 9.48534,-108.714 L 9.37117,-108.471
 L 9.22748,-108.245 L 9.05655,-108.038 L 8.86108,-107.855 L 8.64413,-107.697 L 8.40915,-107.568 L 8.15984,-107.469
 L 7.9001,-107.403 L 7.63406,-107.369 z
M -7.63406,-107.369 L -7.9001,-107.403 L -8.15984,-107.469 L -8.40915,-107.568 L -8.64413,-107.697 L -8.86108,-107.855
 L -9.05655,-108.038 L -9.22748,-108.245 L -9.37117,-108.471 L -9.48534,-108.714 L -9.56821,-108.969 L -9.61845,-109.232
 L -9.63528,-109.5 L -9.61845,-109.768 L -9.56821,-110.031 L -9.48534,-110.286 L -9.37117,-110.529 L -9.22748,-110.755
 L -9.05655,-110.962 L -8.86108,-111.145 L -8.64413,-111.303 L -8.40915,-111.432 L -8.15984,-111.531 L -7.9001,-111.597
 L -7.63406,-111.631 L -7.36592,-111.631 L -7.09988,-111.597 L -6.84015,-111.531 L -6.59084,-111.432 L -6.35585,-111.303
 L -6.1389,-111.145 L -5.94344,-110.962 L -5.77251,-110.755 L -5.62881,-110.529 L -5.51465,-110.286 L -5.43178,-110.031
 L -5.38153,-109.768 L -5.3647,-109.5 L -5.38153,-109.232 L -5.43178,-108.969 L -5.51465,-108.714 L -5.62881,-108.471
 L -5.77251,-108.245 L -5.94344,-108.038 L -6.1389,-107.855 L -6.35585,-107.697 L -6.59084,-107.568 L -6.84015,-107.469
 L -7.09988,-107.403 L -7.36592,-107.369 z
" stroke="black" fill="lightgray" stroke-width="0.5"/>
</svg>
