<?xml version="1.0" standalone="no"?>
<!DOCTYPE svg PUBLIC "-//W3C//DTD SVG 1.1//EN" "http://www.w3.org/Graphics/SVG/1.1/DTD/svg11.dtd">
<svg width="104mm" height="218mm" viewBox="-52 -394 104 218" xmlns="http://www.w3.org/2000/svg" version="1.1">
<title>OpenSCAD Model</title>
<path d="
M 47.9369,-290.089 L 48.5451,-290.245 L 49.1289,-290.476 L 49.6791,-290.778 L 50.1871,-291.147 L 50.6448,-291.577
 L 51.0451,-292.061 L 51.3815,-292.591 L 51.6489,-293.159 L 51.8429,-293.757 L 51.9606,-294.373 L 52,-295
 L 52,-387 L 19.1874,-387 L 19.1924,-386.998 L 17.7482,-386.998 L 17.6236,-386.982 L 17.502,-386.951
 L 17.3852,-386.905 L 17.2752,-386.844 L 17.1736,-386.771 L 17.082,-386.685 L 17.002,-386.588 L 16.9347,-386.482
 L 16.8812,-386.368 L 16.8424,-386.249 L 16.8189,-386.125 L 16.811,-386 L 16.8189,-385.875 L 16.8424,-385.751
 L 16.8812,-385.632 L 16.9347,-385.518 L 17.002,-385.412 L 17.082,-385.315 L 17.1736,-385.229 L 17.2752,-385.156
 L 17.3852,-385.095 L 17.502,-385.049 L 17.6236,-385.018 L 17.7482,-385.002 L 22.8738,-385.002 L 22.9984,-385.018
 L 23.12,-385.049 L 23.1696,-385.069 L 26.2555,-383.372 L 31.2338,-379.755 L 35.7195,-375.543 L 39.6418,-370.801
 L 42.939,-365.606 L 45.559,-360.038 L 47.4606,-354.186 L 48.6136,-348.141 L 49,-342 L 48.6136,-335.859
 L 47.4606,-329.814 L 45.559,-323.962 L 42.939,-318.394 L 39.6418,-313.199 L 35.7195,-308.457 L 31.2338,-304.245
 L 26.2555,-300.628 L 20.8632,-297.663 L 15.1418,-295.398 L 9.18167,-293.868 L 3.07672,-293.097 L -3.07672,-293.097
 L -9.18167,-293.868 L -15.1418,-295.398 L -20.8632,-297.663 L -26.2555,-300.628 L -31.2338,-304.245 L -35.7195,-308.457
 L -39.6418,-313.199 L -42.939,-318.394 L -45.559,-323.962 L -47.4606,-329.814 L -48.6136,-335.859 L -49,-342
 L -48.6136,-348.141 L -47.4606,-354.186 L -45.559,-360.038 L -42.939,-365.606 L -39.6418,-370.801 L -35.7195,-375.543
 L -31.2338,-379.755 L -26.2555,-383.372 L -20.8632,-386.337 L -15.1418,-388.602 L -9.18167,-390.132 L -3.07672,-390.903
 L 0,-390.903 L 0,-391 L 32,-391 L 29.0099,-393.99 L -19.5,-393.99 L -19.5,-393
 L -51.5,-393 L -51.5,-394 L -52,-394 L -52,-389.994 L -44.8116,-389.994 L -44.4379,-389.947
 L -44.0729,-389.853 L -43.7227,-389.714 L -43.3925,-389.533 L -43.0877,-389.312 L -42.8131,-389.054 L -42.5729,-388.763
 L -42.3711,-388.445 L -42.2107,-388.104 L -42.0942,-387.746 L -42.0237,-387.376 L -42,-387 L -42.0237,-386.624
 L -42.0942,-386.254 L -42.2107,-385.896 L -42.3711,-385.555 L -42.5729,-385.237 L -42.8131,-384.946 L -43.0877,-384.688
 L -43.3925,-384.467 L -43.7227,-384.286 L -44.0729,-384.147 L -44.4379,-384.053 L -44.8116,-384.006 L -52,-384.006
 L -52,-299.994 L -44.8116,-299.994 L -44.4379,-299.947 L -44.0729,-299.853 L -43.7227,-299.714 L -43.3925,-299.533
 L -43.0877,-299.312 L -42.8131,-299.054 L -42.5729,-298.763 L -42.3711,-298.445 L -42.2107,-298.104 L -42.0942,-297.746
 L -42.0237,-297.376 L -42,-297 L -42.0237,-296.624 L -42.0942,-296.254 L -42.2107,-295.896 L -42.3711,-295.555
 L -42.5729,-295.237 L -42.8131,-294.946 L -43.0877,-294.688 L -43.3925,-294.467 L -43.7227,-294.286 L -44.0729,-294.147
 L -44.4379,-294.053 L -44.8116,-294.006 L -51.8905,-294.006 L -51.8429,-293.757 L -51.6489,-293.159 L -51.3815,-292.591
 L -51.0451,-292.061 L -50.6448,-291.577 L -50.1871,-291.147 L -49.6791,-290.778 L -49.1289,-290.476 L -48.5451,-290.245
 L -47.9369,-290.089 L -47.3139,-290.01 L 47.3139,-290.01 z
M 44.8116,-294.006 L 44.4379,-294.053 L 44.0729,-294.147 L 43.7227,-294.286 L 43.3925,-294.467 L 43.0877,-294.688
 L 42.8131,-294.946 L 42.5729,-295.237 L 42.3711,-295.555 L 42.2107,-295.896 L 42.0942,-296.254 L 42.0237,-296.624
 L 42,-297 L 42.0237,-297.376 L 42.0942,-297.746 L 42.2107,-298.104 L 42.3711,-298.445 L 42.5729,-298.763
 L 42.8131,-299.054 L 43.0877,-299.312 L 43.3925,-299.533 L 43.7227,-299.714 L 44.0729,-299.853 L 44.4379,-299.947
 L 44.8116,-299.994 L 45.1884,-299.994 L 45.5621,-299.947 L 45.927,-299.853 L 46.2773,-299.714 L 46.6075,-299.533
 L 46.9123,-299.312 L 47.1869,-299.054 L 47.427,-298.763 L 47.6289,-298.445 L 47.7893,-298.104 L 47.9057,-297.746
 L 47.9763,-297.376 L 48,-297 L 47.9763,-296.624 L 47.9057,-296.254 L 47.7893,-295.896 L 47.6289,-295.555
 L 47.427,-295.237 L 47.1869,-294.946 L 46.9123,-294.688 L 46.6075,-294.467 L 46.2773,-294.286 L 45.927,-294.147
 L 45.5621,-294.053 L 45.1884,-294.006 z
M 42,-393.99 L 31.1312,-393.99 L 34.1213,-391 L 42,-391 z
M 47.9369,-176.089 L 48.5451,-176.245 L 49.1289,-176.476 L 49.6791,-176.778 L 50.1871,-177.147 L 50.6448,-177.577
 L 51.0451,-178.061 L 51.3815,-178.591 L 51.6489,-179.159 L 51.8429,-179.757 L 51.9606,-180.373 L 52,-181
 L 52,-275 L 51.9606,-275.627 L 51.8429,-276.243 L 51.6489,-276.841 L 51.3815,-277.409 L 51.0451,-277.939
 L 50.6448,-278.423 L 50.1871,-278.853 L 49.6791,-279.222 L 49.1289,-279.524 L 48.5451,-279.755 L 47.9369,-279.911
 L 47.3139,-279.99 L -19.5,-279.99 L -19.5,-279 L -51.5,-279 L -51.5,-280 L -52,-280
 L -52,-275.994 L -44.8116,-275.994 L -44.4379,-275.947 L -44.0729,-275.853 L -43.7227,-275.714 L -43.3925,-275.533
 L -43.0877,-275.312 L -42.8131,-275.054 L -42.5729,-274.763 L -42.3711,-274.445 L -42.2107,-274.104 L -42.0942,-273.746
 L -42.0237,-273.376 L -42,-273 L -42.0237,-272.624 L -42.0942,-272.254 L -42.2107,-271.896 L -42.3711,-271.555
 L -42.5729,-271.237 L -42.8131,-270.946 L -43.0877,-270.688 L -43.3925,-270.467 L -43.7227,-270.286 L -44.0729,-270.147
 L -44.4379,-270.053 L -44.8116,-270.006 L -52,-270.006 L -52,-185.994 L -44.8116,-185.994 L -44.4379,-185.947
 L -44.0729,-185.853 L -43.7227,-185.714 L -43.3925,-185.533 L -43.0877,-185.312 L -42.8131,-185.054 L -42.5729,-184.763
 L -42.3711,-184.445 L -42.2107,-184.104 L -42.0942,-183.746 L -42.0237,-183.376 L -42,-183 L -42.0237,-182.624
 L -42.0942,-182.254 L -42.2107,-181.896 L -42.3711,-181.555 L -42.5729,-181.237 L -42.8131,-180.946 L -43.0877,-180.688
 L -43.3925,-180.467 L -43.7227,-180.286 L -44.0729,-180.147 L -44.4379,-180.053 L -44.8116,-180.006 L -51.8905,-180.006
 L -51.8429,-179.757 L -51.6489,-179.159 L -51.3815,-178.591 L -51.0451,-178.061 L -50.6448,-177.577 L -50.1871,-177.147
 L -49.6791,-176.778 L -49.1289,-176.476 L -48.5451,-176.245 L -47.9369,-176.089 L -47.3139,-176.01 L 47.3139,-176.01
 z
M -0.408127,-221.513 L -1.21797,-221.615 L -2.00861,-221.818 L -2.76756,-222.119 L -3.48286,-222.512 L -4.14325,-222.992
 L -4.73828,-223.55 L -5.25861,-224.179 L -5.69598,-224.869 L -6.04353,-225.607 L -6.29578,-226.384 L -6.44873,-227.185
 L -6.5,-228 L -6.44873,-228.815 L -6.29578,-229.616 L -6.04353,-230.393 L -5.69598,-231.131 L -5.25861,-231.821
 L -4.73828,-232.45 L -4.14325,-233.008 L -3.48286,-233.488 L -2.76756,-233.881 L -2.00861,-234.182 L -1.21797,-234.385
 L -0.408127,-234.487 L 0.408127,-234.487 L 1.21797,-234.385 L 2.00861,-234.182 L 2.76756,-233.881 L 3.48286,-233.488
 L 4.14325,-233.008 L 4.73828,-232.45 L 5.25861,-231.821 L 5.69598,-231.131 L 6.04353,-230.393 L 6.29578,-229.616
 L 6.44873,-228.815 L 6.5,-228 L 6.44873,-227.185 L 6.29578,-226.384 L 6.04353,-225.607 L 5.69598,-224.869
 L 5.25861,-224.179 L 4.73828,-223.55 L 4.14325,-222.992 L 3.48286,-222.512 L 2.76756,-222.119 L 2.00861,-221.818
 L 1.21797,-221.615 L 0.408127,-221.513 z
M 44.8116,-180.006 L 44.4379,-180.053 L 44.0729,-180.147 L 43.7227,-180.286 L 43.3925,-180.467 L 43.0877,-180.688
 L 42.8131,-180.946 L 42.5729,-181.237 L 42.3711,-181.555 L 42.2107,-181.896 L 42.0942,-182.254 L 42.0237,-182.624
 L 42,-183 L 42.0237,-183.376 L 42.0942,-183.746 L 42.2107,-184.104 L 42.3711,-184.445 L 42.5729,-184.763
 L 42.8131,-185.054 L 43.0877,-185.312 L 43.3925,-185.533 L 43.7227,-185.714 L 44.0729,-185.853 L 44.4379,-185.947
 L 44.8116,-185.994 L 45.1884,-185.994 L 45.5621,-185.947 L 45.927,-185.853 L 46.2773,-185.714 L 46.6075,-185.533
 L 46.9123,-185.312 L 47.1869,-185.054 L 47.427,-184.763 L 47.6289,-184.445 L 47.7893,-184.104 L 47.9057,-183.746
 L 47.9763,-183.376 L 48,-183 L 47.9763,-182.624 L 47.9057,-182.254 L 47.7893,-181.896 L 47.6289,-181.555
 L 47.427,-181.237 L 47.1869,-180.946 L 46.9123,-180.688 L 46.6075,-180.467 L 46.2773,-180.286 L 45.927,-180.147
 L 45.5621,-180.053 L 45.1884,-180.006 z
" stroke="black" fill="lightgray" stroke-width="0.5"/>
</svg>
