  0
SECTION
  2
BLOCKS
  0
ENDSEC
  0
SECTION
  2
ENTITIES
  0
LINE
  8
0
 10
47.9369
 20
290.089
 11
48.5451
 21
290.245
  0
LINE
  8
0
 10
48.5451
 20
290.245
 11
49.1289
 21
290.476
  0
LINE
  8
0
 10
49.1289
 20
290.476
 11
49.6791
 21
290.778
  0
LINE
  8
0
 10
49.6791
 20
290.778
 11
50.1871
 21
291.147
  0
LINE
  8
0
 10
50.1871
 20
291.147
 11
50.6448
 21
291.577
  0
LINE
  8
0
 10
50.6448
 20
291.577
 11
51.0451
 21
292.061
  0
LINE
  8
0
 10
51.0451
 20
292.061
 11
51.3815
 21
292.591
  0
LINE
  8
0
 10
51.3815
 20
292.591
 11
51.6489
 21
293.159
  0
LINE
  8
0
 10
51.6489
 20
293.159
 11
51.8429
 21
293.757
  0
LINE
  8
0
 10
51.8429
 20
293.757
 11
51.9606
 21
294.373
  0
LINE
  8
0
 10
51.9606
 20
294.373
 11
52
 21
295
  0
LINE
  8
0
 10
52
 20
295
 11
52
 21
387
  0
LINE
  8
0
 10
52
 20
387
 11
19.1874
 21
387
  0
LINE
  8
0
 10
19.1874
 20
387
 11
19.1924
 21
386.998
  0
LINE
  8
0
 10
19.1924
 20
386.998
 11
17.7482
 21
386.998
  0
LINE
  8
0
 10
17.7482
 20
386.998
 11
17.6236
 21
386.982
  0
LINE
  8
0
 10
17.6236
 20
386.982
 11
17.502
 21
386.951
  0
LINE
  8
0
 10
17.502
 20
386.951
 11
17.3852
 21
386.905
  0
LINE
  8
0
 10
17.3852
 20
386.905
 11
17.2752
 21
386.844
  0
LINE
  8
0
 10
17.2752
 20
386.844
 11
17.1736
 21
386.771
  0
LINE
  8
0
 10
17.1736
 20
386.771
 11
17.082
 21
386.685
  0
LINE
  8
0
 10
17.082
 20
386.685
 11
17.002
 21
386.588
  0
LINE
  8
0
 10
17.002
 20
386.588
 11
16.9347
 21
386.482
  0
LINE
  8
0
 10
16.9347
 20
386.482
 11
16.8812
 21
386.368
  0
LINE
  8
0
 10
16.8812
 20
386.368
 11
16.8424
 21
386.249
  0
LINE
  8
0
 10
16.8424
 20
386.249
 11
16.8189
 21
386.125
  0
LINE
  8
0
 10
16.8189
 20
386.125
 11
16.811
 21
386
  0
LINE
  8
0
 10
16.811
 20
386
 11
16.8189
 21
385.875
  0
LINE
  8
0
 10
16.8189
 20
385.875
 11
16.8424
 21
385.751
  0
LINE
  8
0
 10
16.8424
 20
385.751
 11
16.8812
 21
385.632
  0
LINE
  8
0
 10
16.8812
 20
385.632
 11
16.9347
 21
385.518
  0
LINE
  8
0
 10
16.9347
 20
385.518
 11
17.002
 21
385.412
  0
LINE
  8
0
 10
17.002
 20
385.412
 11
17.082
 21
385.315
  0
LINE
  8
0
 10
17.082
 20
385.315
 11
17.1736
 21
385.229
  0
LINE
  8
0
 10
17.1736
 20
385.229
 11
17.2752
 21
385.156
  0
LINE
  8
0
 10
17.2752
 20
385.156
 11
17.3852
 21
385.095
  0
LINE
  8
0
 10
17.3852
 20
385.095
 11
17.502
 21
385.049
  0
LINE
  8
0
 10
17.502
 20
385.049
 11
17.6236
 21
385.018
  0
LINE
  8
0
 10
17.6236
 20
385.018
 11
17.7482
 21
385.002
  0
LINE
  8
0
 10
17.7482
 20
385.002
 11
22.8738
 21
385.002
  0
LINE
  8
0
 10
22.8738
 20
385.002
 11
22.9984
 21
385.018
  0
LINE
  8
0
 10
22.9984
 20
385.018
 11
23.12
 21
385.049
  0
LINE
  8
0
 10
23.12
 20
385.049
 11
23.1696
 21
385.069
  0
LINE
  8
0
 10
23.1696
 20
385.069
 11
26.2555
 21
383.372
  0
LINE
  8
0
 10
26.2555
 20
383.372
 11
31.2338
 21
379.755
  0
LINE
  8
0
 10
31.2338
 20
379.755
 11
35.7195
 21
375.543
  0
LINE
  8
0
 10
35.7195
 20
375.543
 11
39.6418
 21
370.801
  0
LINE
  8
0
 10
39.6418
 20
370.801
 11
42.939
 21
365.606
  0
LINE
  8
0
 10
42.939
 20
365.606
 11
45.559
 21
360.038
  0
LINE
  8
0
 10
45.559
 20
360.038
 11
47.4606
 21
354.186
  0
LINE
  8
0
 10
47.4606
 20
354.186
 11
48.6136
 21
348.141
  0
LINE
  8
0
 10
48.6136
 20
348.141
 11
49
 21
342
  0
LINE
  8
0
 10
49
 20
342
 11
48.6136
 21
335.859
  0
LINE
  8
0
 10
48.6136
 20
335.859
 11
47.4606
 21
329.814
  0
LINE
  8
0
 10
47.4606
 20
329.814
 11
45.559
 21
323.962
  0
LINE
  8
0
 10
45.559
 20
323.962
 11
42.939
 21
318.394
  0
LINE
  8
0
 10
42.939
 20
318.394
 11
39.6418
 21
313.199
  0
LINE
  8
0
 10
39.6418
 20
313.199
 11
35.7195
 21
308.457
  0
LINE
  8
0
 10
35.7195
 20
308.457
 11
31.2338
 21
304.245
  0
LINE
  8
0
 10
31.2338
 20
304.245
 11
26.2555
 21
300.628
  0
LINE
  8
0
 10
26.2555
 20
300.628
 11
20.8632
 21
297.663
  0
LINE
  8
0
 10
20.8632
 20
297.663
 11
15.1418
 21
295.398
  0
LINE
  8
0
 10
15.1418
 20
295.398
 11
9.18167
 21
293.868
  0
LINE
  8
0
 10
9.18167
 20
293.868
 11
3.07672
 21
293.097
  0
LINE
  8
0
 10
3.07672
 20
293.097
 11
-3.07672
 21
293.097
  0
LINE
  8
0
 10
-3.07672
 20
293.097
 11
-9.18167
 21
293.868
  0
LINE
  8
0
 10
-9.18167
 20
293.868
 11
-15.1418
 21
295.398
  0
LINE
  8
0
 10
-15.1418
 20
295.398
 11
-20.8632
 21
297.663
  0
LINE
  8
0
 10
-20.8632
 20
297.663
 11
-26.2555
 21
300.628
  0
LINE
  8
0
 10
-26.2555
 20
300.628
 11
-31.2338
 21
304.245
  0
LINE
  8
0
 10
-31.2338
 20
304.245
 11
-35.7195
 21
308.457
  0
LINE
  8
0
 10
-35.7195
 20
308.457
 11
-39.6418
 21
313.199
  0
LINE
  8
0
 10
-39.6418
 20
313.199
 11
-42.939
 21
318.394
  0
LINE
  8
0
 10
-42.939
 20
318.394
 11
-45.559
 21
323.962
  0
LINE
  8
0
 10
-45.559
 20
323.962
 11
-47.4606
 21
329.814
  0
LINE
  8
0
 10
-47.4606
 20
329.814
 11
-48.6136
 21
335.859
  0
LINE
  8
0
 10
-48.6136
 20
335.859
 11
-49
 21
342
  0
LINE
  8
0
 10
-49
 20
342
 11
-48.6136
 21
348.141
  0
LINE
  8
0
 10
-48.6136
 20
348.141
 11
-47.4606
 21
354.186
  0
LINE
  8
0
 10
-47.4606
 20
354.186
 11
-45.559
 21
360.038
  0
LINE
  8
0
 10
-45.559
 20
360.038
 11
-42.939
 21
365.606
  0
LINE
  8
0
 10
-42.939
 20
365.606
 11
-39.6418
 21
370.801
  0
LINE
  8
0
 10
-39.6418
 20
370.801
 11
-35.7195
 21
375.543
  0
LINE
  8
0
 10
-35.7195
 20
375.543
 11
-31.2338
 21
379.755
  0
LINE
  8
0
 10
-31.2338
 20
379.755
 11
-26.2555
 21
383.372
  0
LINE
  8
0
 10
-26.2555
 20
383.372
 11
-20.8632
 21
386.337
  0
LINE
  8
0
 10
-20.8632
 20
386.337
 11
-15.1418
 21
388.602
  0
LINE
  8
0
 10
-15.1418
 20
388.602
 11
-9.18167
 21
390.132
  0
LINE
  8
0
 10
-9.18167
 20
390.132
 11
-3.07672
 21
390.903
  0
LINE
  8
0
 10
-3.07672
 20
390.903
 11
0
 21
390.903
  0
LINE
  8
0
 10
0
 20
390.903
 11
0
 21
391
  0
LINE
  8
0
 10
0
 20
391
 11
32
 21
391
  0
LINE
  8
0
 10
32
 20
391
 11
29.0099
 21
393.99
  0
LINE
  8
0
 10
29.0099
 20
393.99
 11
-19.5
 21
393.99
  0
LINE
  8
0
 10
-19.5
 20
393.99
 11
-19.5
 21
393
  0
LINE
  8
0
 10
-19.5
 20
393
 11
-51.5
 21
393
  0
LINE
  8
0
 10
-51.5
 20
393
 11
-51.5
 21
394
  0
LINE
  8
0
 10
-51.5
 20
394
 11
-52
 21
394
  0
LINE
  8
0
 10
-52
 20
394
 11
-52
 21
389.994
  0
LINE
  8
0
 10
-52
 20
389.994
 11
-44.8116
 21
389.994
  0
LINE
  8
0
 10
-44.8116
 20
389.994
 11
-44.4379
 21
389.947
  0
LINE
  8
0
 10
-44.4379
 20
389.947
 11
-44.0729
 21
389.853
  0
LINE
  8
0
 10
-44.0729
 20
389.853
 11
-43.7227
 21
389.714
  0
LINE
  8
0
 10
-43.7227
 20
389.714
 11
-43.3925
 21
389.533
  0
LINE
  8
0
 10
-43.3925
 20
389.533
 11
-43.0877
 21
389.312
  0
LINE
  8
0
 10
-43.0877
 20
389.312
 11
-42.8131
 21
389.054
  0
LINE
  8
0
 10
-42.8131
 20
389.054
 11
-42.5729
 21
388.763
  0
LINE
  8
0
 10
-42.5729
 20
388.763
 11
-42.3711
 21
388.445
  0
LINE
  8
0
 10
-42.3711
 20
388.445
 11
-42.2107
 21
388.104
  0
LINE
  8
0
 10
-42.2107
 20
388.104
 11
-42.0942
 21
387.746
  0
LINE
  8
0
 10
-42.0942
 20
387.746
 11
-42.0237
 21
387.376
  0
LINE
  8
0
 10
-42.0237
 20
387.376
 11
-42
 21
387
  0
LINE
  8
0
 10
-42
 20
387
 11
-42.0237
 21
386.624
  0
LINE
  8
0
 10
-42.0237
 20
386.624
 11
-42.0942
 21
386.254
  0
LINE
  8
0
 10
-42.0942
 20
386.254
 11
-42.2107
 21
385.896
  0
LINE
  8
0
 10
-42.2107
 20
385.896
 11
-42.3711
 21
385.555
  0
LINE
  8
0
 10
-42.3711
 20
385.555
 11
-42.5729
 21
385.237
  0
LINE
  8
0
 10
-42.5729
 20
385.237
 11
-42.8131
 21
384.946
  0
LINE
  8
0
 10
-42.8131
 20
384.946
 11
-43.0877
 21
384.688
  0
LINE
  8
0
 10
-43.0877
 20
384.688
 11
-43.3925
 21
384.467
  0
LINE
  8
0
 10
-43.3925
 20
384.467
 11
-43.7227
 21
384.286
  0
LINE
  8
0
 10
-43.7227
 20
384.286
 11
-44.0729
 21
384.147
  0
LINE
  8
0
 10
-44.0729
 20
384.147
 11
-44.4379
 21
384.053
  0
LINE
  8
0
 10
-44.4379
 20
384.053
 11
-44.8116
 21
384.006
  0
LINE
  8
0
 10
-44.8116
 20
384.006
 11
-52
 21
384.006
  0
LINE
  8
0
 10
-52
 20
384.006
 11
-52
 21
299.994
  0
LINE
  8
0
 10
-52
 20
299.994
 11
-44.8116
 21
299.994
  0
LINE
  8
0
 10
-44.8116
 20
299.994
 11
-44.4379
 21
299.947
  0
LINE
  8
0
 10
-44.4379
 20
299.947
 11
-44.0729
 21
299.853
  0
LINE
  8
0
 10
-44.0729
 20
299.853
 11
-43.7227
 21
299.714
  0
LINE
  8
0
 10
-43.7227
 20
299.714
 11
-43.3925
 21
299.533
  0
LINE
  8
0
 10
-43.3925
 20
299.533
 11
-43.0877
 21
299.312
  0
LINE
  8
0
 10
-43.0877
 20
299.312
 11
-42.8131
 21
299.054
  0
LINE
  8
0
 10
-42.8131
 20
299.054
 11
-42.5729
 21
298.763
  0
LINE
  8
0
 10
-42.5729
 20
298.763
 11
-42.3711
 21
298.445
  0
LINE
  8
0
 10
-42.3711
 20
298.445
 11
-42.2107
 21
298.104
  0
LINE
  8
0
 10
-42.2107
 20
298.104
 11
-42.0942
 21
297.746
  0
LINE
  8
0
 10
-42.0942
 20
297.746
 11
-42.0237
 21
297.376
  0
LINE
  8
0
 10
-42.0237
 20
297.376
 11
-42
 21
297
  0
LINE
  8
0
 10
-42
 20
297
 11
-42.0237
 21
296.624
  0
LINE
  8
0
 10
-42.0237
 20
296.624
 11
-42.0942
 21
296.254
  0
LINE
  8
0
 10
-42.0942
 20
296.254
 11
-42.2107
 21
295.896
  0
LINE
  8
0
 10
-42.2107
 20
295.896
 11
-42.3711
 21
295.555
  0
LINE
  8
0
 10
-42.3711
 20
295.555
 11
-42.5729
 21
295.237
  0
LINE
  8
0
 10
-42.5729
 20
295.237
 11
-42.8131
 21
294.946
  0
LINE
  8
0
 10
-42.8131
 20
294.946
 11
-43.0877
 21
294.688
  0
LINE
  8
0
 10
-43.0877
 20
294.688
 11
-43.3925
 21
294.467
  0
LINE
  8
0
 10
-43.3925
 20
294.467
 11
-43.7227
 21
294.286
  0
LINE
  8
0
 10
-43.7227
 20
294.286
 11
-44.0729
 21
294.147
  0
LINE
  8
0
 10
-44.0729
 20
294.147
 11
-44.4379
 21
294.053
  0
LINE
  8
0
 10
-44.4379
 20
294.053
 11
-44.8116
 21
294.006
  0
LINE
  8
0
 10
-44.8116
 20
294.006
 11
-51.8905
 21
294.006
  0
LINE
  8
0
 10
-51.8905
 20
294.006
 11
-51.8429
 21
293.757
  0
LINE
  8
0
 10
-51.8429
 20
293.757
 11
-51.6489
 21
293.159
  0
LINE
  8
0
 10
-51.6489
 20
293.159
 11
-51.3815
 21
292.591
  0
LINE
  8
0
 10
-51.3815
 20
292.591
 11
-51.0451
 21
292.061
  0
LINE
  8
0
 10
-51.0451
 20
292.061
 11
-50.6448
 21
291.577
  0
LINE
  8
0
 10
-50.6448
 20
291.577
 11
-50.1871
 21
291.147
  0
LINE
  8
0
 10
-50.1871
 20
291.147
 11
-49.6791
 21
290.778
  0
LINE
  8
0
 10
-49.6791
 20
290.778
 11
-49.1289
 21
290.476
  0
LINE
  8
0
 10
-49.1289
 20
290.476
 11
-48.5451
 21
290.245
  0
LINE
  8
0
 10
-48.5451
 20
290.245
 11
-47.9369
 21
290.089
  0
LINE
  8
0
 10
-47.9369
 20
290.089
 11
-47.3139
 21
290.01
  0
LINE
  8
0
 10
-47.3139
 20
290.01
 11
47.3139
 21
290.01
  0
LINE
  8
0
 10
47.3139
 20
290.01
 11
47.9369
 21
290.089
  0
LINE
  8
0
 10
44.8116
 20
294.006
 11
44.4379
 21
294.053
  0
LINE
  8
0
 10
44.4379
 20
294.053
 11
44.0729
 21
294.147
  0
LINE
  8
0
 10
44.0729
 20
294.147
 11
43.7227
 21
294.286
  0
LINE
  8
0
 10
43.7227
 20
294.286
 11
43.3925
 21
294.467
  0
LINE
  8
0
 10
43.3925
 20
294.467
 11
43.0877
 21
294.688
  0
LINE
  8
0
 10
43.0877
 20
294.688
 11
42.8131
 21
294.946
  0
LINE
  8
0
 10
42.8131
 20
294.946
 11
42.5729
 21
295.237
  0
LINE
  8
0
 10
42.5729
 20
295.237
 11
42.3711
 21
295.555
  0
LINE
  8
0
 10
42.3711
 20
295.555
 11
42.2107
 21
295.896
  0
LINE
  8
0
 10
42.2107
 20
295.896
 11
42.0942
 21
296.254
  0
LINE
  8
0
 10
42.0942
 20
296.254
 11
42.0237
 21
296.624
  0
LINE
  8
0
 10
42.0237
 20
296.624
 11
42
 21
297
  0
LINE
  8
0
 10
42
 20
297
 11
42.0237
 21
297.376
  0
LINE
  8
0
 10
42.0237
 20
297.376
 11
42.0942
 21
297.746
  0
LINE
  8
0
 10
42.0942
 20
297.746
 11
42.2107
 21
298.104
  0
LINE
  8
0
 10
42.2107
 20
298.104
 11
42.3711
 21
298.445
  0
LINE
  8
0
 10
42.3711
 20
298.445
 11
42.5729
 21
298.763
  0
LINE
  8
0
 10
42.5729
 20
298.763
 11
42.8131
 21
299.054
  0
LINE
  8
0
 10
42.8131
 20
299.054
 11
43.0877
 21
299.312
  0
LINE
  8
0
 10
43.0877
 20
299.312
 11
43.3925
 21
299.533
  0
LINE
  8
0
 10
43.3925
 20
299.533
 11
43.7227
 21
299.714
  0
LINE
  8
0
 10
43.7227
 20
299.714
 11
44.0729
 21
299.853
  0
LINE
  8
0
 10
44.0729
 20
299.853
 11
44.4379
 21
299.947
  0
LINE
  8
0
 10
44.4379
 20
299.947
 11
44.8116
 21
299.994
  0
LINE
  8
0
 10
44.8116
 20
299.994
 11
45.1884
 21
299.994
  0
LINE
  8
0
 10
45.1884
 20
299.994
 11
45.5621
 21
299.947
  0
LINE
  8
0
 10
45.5621
 20
299.947
 11
45.927
 21
299.853
  0
LINE
  8
0
 10
45.927
 20
299.853
 11
46.2773
 21
299.714
  0
LINE
  8
0
 10
46.2773
 20
299.714
 11
46.6075
 21
299.533
  0
LINE
  8
0
 10
46.6075
 20
299.533
 11
46.9123
 21
299.312
  0
LINE
  8
0
 10
46.9123
 20
299.312
 11
47.1869
 21
299.054
  0
LINE
  8
0
 10
47.1869
 20
299.054
 11
47.427
 21
298.763
  0
LINE
  8
0
 10
47.427
 20
298.763
 11
47.6289
 21
298.445
  0
LINE
  8
0
 10
47.6289
 20
298.445
 11
47.7893
 21
298.104
  0
LINE
  8
0
 10
47.7893
 20
298.104
 11
47.9057
 21
297.746
  0
LINE
  8
0
 10
47.9057
 20
297.746
 11
47.9763
 21
297.376
  0
LINE
  8
0
 10
47.9763
 20
297.376
 11
48
 21
297
  0
LINE
  8
0
 10
48
 20
297
 11
47.9763
 21
296.624
  0
LINE
  8
0
 10
47.9763
 20
296.624
 11
47.9057
 21
296.254
  0
LINE
  8
0
 10
47.9057
 20
296.254
 11
47.7893
 21
295.896
  0
LINE
  8
0
 10
47.7893
 20
295.896
 11
47.6289
 21
295.555
  0
LINE
  8
0
 10
47.6289
 20
295.555
 11
47.427
 21
295.237
  0
LINE
  8
0
 10
47.427
 20
295.237
 11
47.1869
 21
294.946
  0
LINE
  8
0
 10
47.1869
 20
294.946
 11
46.9123
 21
294.688
  0
LINE
  8
0
 10
46.9123
 20
294.688
 11
46.6075
 21
294.467
  0
LINE
  8
0
 10
46.6075
 20
294.467
 11
46.2773
 21
294.286
  0
LINE
  8
0
 10
46.2773
 20
294.286
 11
45.927
 21
294.147
  0
LINE
  8
0
 10
45.927
 20
294.147
 11
45.5621
 21
294.053
  0
LINE
  8
0
 10
45.5621
 20
294.053
 11
45.1884
 21
294.006
  0
LINE
  8
0
 10
45.1884
 20
294.006
 11
44.8116
 21
294.006
  0
LINE
  8
0
 10
42
 20
393.99
 11
31.1312
 21
393.99
  0
LINE
  8
0
 10
31.1312
 20
393.99
 11
34.1213
 21
391
  0
LINE
  8
0
 10
34.1213
 20
391
 11
42
 21
391
  0
LINE
  8
0
 10
42
 20
391
 11
42
 21
393.99
  0
LINE
  8
0
 10
47.9369
 20
176.089
 11
48.5451
 21
176.245
  0
LINE
  8
0
 10
48.5451
 20
176.245
 11
49.1289
 21
176.476
  0
LINE
  8
0
 10
49.1289
 20
176.476
 11
49.6791
 21
176.778
  0
LINE
  8
0
 10
49.6791
 20
176.778
 11
50.1871
 21
177.147
  0
LINE
  8
0
 10
50.1871
 20
177.147
 11
50.6448
 21
177.577
  0
LINE
  8
0
 10
50.6448
 20
177.577
 11
51.0451
 21
178.061
  0
LINE
  8
0
 10
51.0451
 20
178.061
 11
51.3815
 21
178.591
  0
LINE
  8
0
 10
51.3815
 20
178.591
 11
51.6489
 21
179.159
  0
LINE
  8
0
 10
51.6489
 20
179.159
 11
51.8429
 21
179.757
  0
LINE
  8
0
 10
51.8429
 20
179.757
 11
51.9606
 21
180.373
  0
LINE
  8
0
 10
51.9606
 20
180.373
 11
52
 21
181
  0
LINE
  8
0
 10
52
 20
181
 11
52
 21
275
  0
LINE
  8
0
 10
52
 20
275
 11
51.9606
 21
275.627
  0
LINE
  8
0
 10
51.9606
 20
275.627
 11
51.8429
 21
276.243
  0
LINE
  8
0
 10
51.8429
 20
276.243
 11
51.6489
 21
276.841
  0
LINE
  8
0
 10
51.6489
 20
276.841
 11
51.3815
 21
277.409
  0
LINE
  8
0
 10
51.3815
 20
277.409
 11
51.0451
 21
277.939
  0
LINE
  8
0
 10
51.0451
 20
277.939
 11
50.6448
 21
278.423
  0
LINE
  8
0
 10
50.6448
 20
278.423
 11
50.1871
 21
278.853
  0
LINE
  8
0
 10
50.1871
 20
278.853
 11
49.6791
 21
279.222
  0
LINE
  8
0
 10
49.6791
 20
279.222
 11
49.1289
 21
279.524
  0
LINE
  8
0
 10
49.1289
 20
279.524
 11
48.5451
 21
279.755
  0
LINE
  8
0
 10
48.5451
 20
279.755
 11
47.9369
 21
279.911
  0
LINE
  8
0
 10
47.9369
 20
279.911
 11
47.3139
 21
279.99
  0
LINE
  8
0
 10
47.3139
 20
279.99
 11
-19.5
 21
279.99
  0
LINE
  8
0
 10
-19.5
 20
279.99
 11
-19.5
 21
279
  0
LINE
  8
0
 10
-19.5
 20
279
 11
-51.5
 21
279
  0
LINE
  8
0
 10
-51.5
 20
279
 11
-51.5
 21
280
  0
LINE
  8
0
 10
-51.5
 20
280
 11
-52
 21
280
  0
LINE
  8
0
 10
-52
 20
280
 11
-52
 21
275.994
  0
LINE
  8
0
 10
-52
 20
275.994
 11
-44.8116
 21
275.994
  0
LINE
  8
0
 10
-44.8116
 20
275.994
 11
-44.4379
 21
275.947
  0
LINE
  8
0
 10
-44.4379
 20
275.947
 11
-44.0729
 21
275.853
  0
LINE
  8
0
 10
-44.0729
 20
275.853
 11
-43.7227
 21
275.714
  0
LINE
  8
0
 10
-43.7227
 20
275.714
 11
-43.3925
 21
275.533
  0
LINE
  8
0
 10
-43.3925
 20
275.533
 11
-43.0877
 21
275.312
  0
LINE
  8
0
 10
-43.0877
 20
275.312
 11
-42.8131
 21
275.054
  0
LINE
  8
0
 10
-42.8131
 20
275.054
 11
-42.5729
 21
274.763
  0
LINE
  8
0
 10
-42.5729
 20
274.763
 11
-42.3711
 21
274.445
  0
LINE
  8
0
 10
-42.3711
 20
274.445
 11
-42.2107
 21
274.104
  0
LINE
  8
0
 10
-42.2107
 20
274.104
 11
-42.0942
 21
273.746
  0
LINE
  8
0
 10
-42.0942
 20
273.746
 11
-42.0237
 21
273.376
  0
LINE
  8
0
 10
-42.0237
 20
273.376
 11
-42
 21
273
  0
LINE
  8
0
 10
-42
 20
273
 11
-42.0237
 21
272.624
  0
LINE
  8
0
 10
-42.0237
 20
272.624
 11
-42.0942
 21
272.254
  0
LINE
  8
0
 10
-42.0942
 20
272.254
 11
-42.2107
 21
271.896
  0
LINE
  8
0
 10
-42.2107
 20
271.896
 11
-42.3711
 21
271.555
  0
LINE
  8
0
 10
-42.3711
 20
271.555
 11
-42.5729
 21
271.237
  0
LINE
  8
0
 10
-42.5729
 20
271.237
 11
-42.8131
 21
270.946
  0
LINE
  8
0
 10
-42.8131
 20
270.946
 11
-43.0877
 21
270.688
  0
LINE
  8
0
 10
-43.0877
 20
270.688
 11
-43.3925
 21
270.467
  0
LINE
  8
0
 10
-43.3925
 20
270.467
 11
-43.7227
 21
270.286
  0
LINE
  8
0
 10
-43.7227
 20
270.286
 11
-44.0729
 21
270.147
  0
LINE
  8
0
 10
-44.0729
 20
270.147
 11
-44.4379
 21
270.053
  0
LINE
  8
0
 10
-44.4379
 20
270.053
 11
-44.8116
 21
270.006
  0
LINE
  8
0
 10
-44.8116
 20
270.006
 11
-52
 21
270.006
  0
LINE
  8
0
 10
-52
 20
270.006
 11
-52
 21
185.994
  0
LINE
  8
0
 10
-52
 20
185.994
 11
-44.8116
 21
185.994
  0
LINE
  8
0
 10
-44.8116
 20
185.994
 11
-44.4379
 21
185.947
  0
LINE
  8
0
 10
-44.4379
 20
185.947
 11
-44.0729
 21
185.853
  0
LINE
  8
0
 10
-44.0729
 20
185.853
 11
-43.7227
 21
185.714
  0
LINE
  8
0
 10
-43.7227
 20
185.714
 11
-43.3925
 21
185.533
  0
LINE
  8
0
 10
-43.3925
 20
185.533
 11
-43.0877
 21
185.312
  0
LINE
  8
0
 10
-43.0877
 20
185.312
 11
-42.8131
 21
185.054
  0
LINE
  8
0
 10
-42.8131
 20
185.054
 11
-42.5729
 21
184.763
  0
LINE
  8
0
 10
-42.5729
 20
184.763
 11
-42.3711
 21
184.445
  0
LINE
  8
0
 10
-42.3711
 20
184.445
 11
-42.2107
 21
184.104
  0
LINE
  8
0
 10
-42.2107
 20
184.104
 11
-42.0942
 21
183.746
  0
LINE
  8
0
 10
-42.0942
 20
183.746
 11
-42.0237
 21
183.376
  0
LINE
  8
0
 10
-42.0237
 20
183.376
 11
-42
 21
183
  0
LINE
  8
0
 10
-42
 20
183
 11
-42.0237
 21
182.624
  0
LINE
  8
0
 10
-42.0237
 20
182.624
 11
-42.0942
 21
182.254
  0
LINE
  8
0
 10
-42.0942
 20
182.254
 11
-42.2107
 21
181.896
  0
LINE
  8
0
 10
-42.2107
 20
181.896
 11
-42.3711
 21
181.555
  0
LINE
  8
0
 10
-42.3711
 20
181.555
 11
-42.5729
 21
181.237
  0
LINE
  8
0
 10
-42.5729
 20
181.237
 11
-42.8131
 21
180.946
  0
LINE
  8
0
 10
-42.8131
 20
180.946
 11
-43.0877
 21
180.688
  0
LINE
  8
0
 10
-43.0877
 20
180.688
 11
-43.3925
 21
180.467
  0
LINE
  8
0
 10
-43.3925
 20
180.467
 11
-43.7227
 21
180.286
  0
LINE
  8
0
 10
-43.7227
 20
180.286
 11
-44.0729
 21
180.147
  0
LINE
  8
0
 10
-44.0729
 20
180.147
 11
-44.4379
 21
180.053
  0
LINE
  8
0
 10
-44.4379
 20
180.053
 11
-44.8116
 21
180.006
  0
LINE
  8
0
 10
-44.8116
 20
180.006
 11
-51.8905
 21
180.006
  0
LINE
  8
0
 10
-51.8905
 20
180.006
 11
-51.8429
 21
179.757
  0
LINE
  8
0
 10
-51.8429
 20
179.757
 11
-51.6489
 21
179.159
  0
LINE
  8
0
 10
-51.6489
 20
179.159
 11
-51.3815
 21
178.591
  0
LINE
  8
0
 10
-51.3815
 20
178.591
 11
-51.0451
 21
178.061
  0
LINE
  8
0
 10
-51.0451
 20
178.061
 11
-50.6448
 21
177.577
  0
LINE
  8
0
 10
-50.6448
 20
177.577
 11
-50.1871
 21
177.147
  0
LINE
  8
0
 10
-50.1871
 20
177.147
 11
-49.6791
 21
176.778
  0
LINE
  8
0
 10
-49.6791
 20
176.778
 11
-49.1289
 21
176.476
  0
LINE
  8
0
 10
-49.1289
 20
176.476
 11
-48.5451
 21
176.245
  0
LINE
  8
0
 10
-48.5451
 20
176.245
 11
-47.9369
 21
176.089
  0
LINE
  8
0
 10
-47.9369
 20
176.089
 11
-47.3139
 21
176.01
  0
LINE
  8
0
 10
-47.3139
 20
176.01
 11
47.3139
 21
176.01
  0
LINE
  8
0
 10
47.3139
 20
176.01
 11
47.9369
 21
176.089
  0
LINE
  8
0
 10
-0.408127
 20
221.513
 11
-1.21797
 21
221.615
  0
LINE
  8
0
 10
-1.21797
 20
221.615
 11
-2.00861
 21
221.818
  0
LINE
  8
0
 10
-2.00861
 20
221.818
 11
-2.76756
 21
222.119
  0
LINE
  8
0
 10
-2.76756
 20
222.119
 11
-3.48286
 21
222.512
  0
LINE
  8
0
 10
-3.48286
 20
222.512
 11
-4.14325
 21
222.992
  0
LINE
  8
0
 10
-4.14325
 20
222.992
 11
-4.73828
 21
223.55
  0
LINE
  8
0
 10
-4.73828
 20
223.55
 11
-5.25861
 21
224.179
  0
LINE
  8
0
 10
-5.25861
 20
224.179
 11
-5.69598
 21
224.869
  0
LINE
  8
0
 10
-5.69598
 20
224.869
 11
-6.04353
 21
225.607
  0
LINE
  8
0
 10
-6.04353
 20
225.607
 11
-6.29578
 21
226.384
  0
LINE
  8
0
 10
-6.29578
 20
226.384
 11
-6.44873
 21
227.185
  0
LINE
  8
0
 10
-6.44873
 20
227.185
 11
-6.5
 21
228
  0
LINE
  8
0
 10
-6.5
 20
228
 11
-6.44873
 21
228.815
  0
LINE
  8
0
 10
-6.44873
 20
228.815
 11
-6.29578
 21
229.616
  0
LINE
  8
0
 10
-6.29578
 20
229.616
 11
-6.04353
 21
230.393
  0
LINE
  8
0
 10
-6.04353
 20
230.393
 11
-5.69598
 21
231.131
  0
LINE
  8
0
 10
-5.69598
 20
231.131
 11
-5.25861
 21
231.821
  0
LINE
  8
0
 10
-5.25861
 20
231.821
 11
-4.73828
 21
232.45
  0
LINE
  8
0
 10
-4.73828
 20
232.45
 11
-4.14325
 21
233.008
  0
LINE
  8
0
 10
-4.14325
 20
233.008
 11
-3.48286
 21
233.488
  0
LINE
  8
0
 10
-3.48286
 20
233.488
 11
-2.76756
 21
233.881
  0
LINE
  8
0
 10
-2.76756
 20
233.881
 11
-2.00861
 21
234.182
  0
LINE
  8
0
 10
-2.00861
 20
234.182
 11
-1.21797
 21
234.385
  0
LINE
  8
0
 10
-1.21797
 20
234.385
 11
-0.408127
 21
234.487
  0
LINE
  8
0
 10
-0.408127
 20
234.487
 11
0.408127
 21
234.487
  0
LINE
  8
0
 10
0.408127
 20
234.487
 11
1.21797
 21
234.385
  0
LINE
  8
0
 10
1.21797
 20
234.385
 11
2.00861
 21
234.182
  0
LINE
  8
0
 10
2.00861
 20
234.182
 11
2.76756
 21
233.881
  0
LINE
  8
0
 10
2.76756
 20
233.881
 11
3.48286
 21
233.488
  0
LINE
  8
0
 10
3.48286
 20
233.488
 11
4.14325
 21
233.008
  0
LINE
  8
0
 10
4.14325
 20
233.008
 11
4.73828
 21
232.45
  0
LINE
  8
0
 10
4.73828
 20
232.45
 11
5.25861
 21
231.821
  0
LINE
  8
0
 10
5.25861
 20
231.821
 11
5.69598
 21
231.131
  0
LINE
  8
0
 10
5.69598
 20
231.131
 11
6.04353
 21
230.393
  0
LINE
  8
0
 10
6.04353
 20
230.393
 11
6.29578
 21
229.616
  0
LINE
  8
0
 10
6.29578
 20
229.616
 11
6.44873
 21
228.815
  0
LINE
  8
0
 10
6.44873
 20
228.815
 11
6.5
 21
228
  0
LINE
  8
0
 10
6.5
 20
228
 11
6.44873
 21
227.185
  0
LINE
  8
0
 10
6.44873
 20
227.185
 11
6.29578
 21
226.384
  0
LINE
  8
0
 10
6.29578
 20
226.384
 11
6.04353
 21
225.607
  0
LINE
  8
0
 10
6.04353
 20
225.607
 11
5.69598
 21
224.869
  0
LINE
  8
0
 10
5.69598
 20
224.869
 11
5.25861
 21
224.179
  0
LINE
  8
0
 10
5.25861
 20
224.179
 11
4.73828
 21
223.55
  0
LINE
  8
0
 10
4.73828
 20
223.55
 11
4.14325
 21
222.992
  0
LINE
  8
0
 10
4.14325
 20
222.992
 11
3.48286
 21
222.512
  0
LINE
  8
0
 10
3.48286
 20
222.512
 11
2.76756
 21
222.119
  0
LINE
  8
0
 10
2.76756
 20
222.119
 11
2.00861
 21
221.818
  0
LINE
  8
0
 10
2.00861
 20
221.818
 11
1.21797
 21
221.615
  0
LINE
  8
0
 10
1.21797
 20
221.615
 11
0.408127
 21
221.513
  0
LINE
  8
0
 10
0.408127
 20
221.513
 11
-0.408127
 21
221.513
  0
LINE
  8
0
 10
44.8116
 20
180.006
 11
44.4379
 21
180.053
  0
LINE
  8
0
 10
44.4379
 20
180.053
 11
44.0729
 21
180.147
  0
LINE
  8
0
 10
44.0729
 20
180.147
 11
43.7227
 21
180.286
  0
LINE
  8
0
 10
43.7227
 20
180.286
 11
43.3925
 21
180.467
  0
LINE
  8
0
 10
43.3925
 20
180.467
 11
43.0877
 21
180.688
  0
LINE
  8
0
 10
43.0877
 20
180.688
 11
42.8131
 21
180.946
  0
LINE
  8
0
 10
42.8131
 20
180.946
 11
42.5729
 21
181.237
  0
LINE
  8
0
 10
42.5729
 20
181.237
 11
42.3711
 21
181.555
  0
LINE
  8
0
 10
42.3711
 20
181.555
 11
42.2107
 21
181.896
  0
LINE
  8
0
 10
42.2107
 20
181.896
 11
42.0942
 21
182.254
  0
LINE
  8
0
 10
42.0942
 20
182.254
 11
42.0237
 21
182.624
  0
LINE
  8
0
 10
42.0237
 20
182.624
 11
42
 21
183
  0
LINE
  8
0
 10
42
 20
183
 11
42.0237
 21
183.376
  0
LINE
  8
0
 10
42.0237
 20
183.376
 11
42.0942
 21
183.746
  0
LINE
  8
0
 10
42.0942
 20
183.746
 11
42.2107
 21
184.104
  0
LINE
  8
0
 10
42.2107
 20
184.104
 11
42.3711
 21
184.445
  0
LINE
  8
0
 10
42.3711
 20
184.445
 11
42.5729
 21
184.763
  0
LINE
  8
0
 10
42.5729
 20
184.763
 11
42.8131
 21
185.054
  0
LINE
  8
0
 10
42.8131
 20
185.054
 11
43.0877
 21
185.312
  0
LINE
  8
0
 10
43.0877
 20
185.312
 11
43.3925
 21
185.533
  0
LINE
  8
0
 10
43.3925
 20
185.533
 11
43.7227
 21
185.714
  0
LINE
  8
0
 10
43.7227
 20
185.714
 11
44.0729
 21
185.853
  0
LINE
  8
0
 10
44.0729
 20
185.853
 11
44.4379
 21
185.947
  0
LINE
  8
0
 10
44.4379
 20
185.947
 11
44.8116
 21
185.994
  0
LINE
  8
0
 10
44.8116
 20
185.994
 11
45.1884
 21
185.994
  0
LINE
  8
0
 10
45.1884
 20
185.994
 11
45.5621
 21
185.947
  0
LINE
  8
0
 10
45.5621
 20
185.947
 11
45.927
 21
185.853
  0
LINE
  8
0
 10
45.927
 20
185.853
 11
46.2773
 21
185.714
  0
LINE
  8
0
 10
46.2773
 20
185.714
 11
46.6075
 21
185.533
  0
LINE
  8
0
 10
46.6075
 20
185.533
 11
46.9123
 21
185.312
  0
LINE
  8
0
 10
46.9123
 20
185.312
 11
47.1869
 21
185.054
  0
LINE
  8
0
 10
47.1869
 20
185.054
 11
47.427
 21
184.763
  0
LINE
  8
0
 10
47.427
 20
184.763
 11
47.6289
 21
184.445
  0
LINE
  8
0
 10
47.6289
 20
184.445
 11
47.7893
 21
184.104
  0
LINE
  8
0
 10
47.7893
 20
184.104
 11
47.9057
 21
183.746
  0
LINE
  8
0
 10
47.9057
 20
183.746
 11
47.9763
 21
183.376
  0
LINE
  8
0
 10
47.9763
 20
183.376
 11
48
 21
183
  0
LINE
  8
0
 10
48
 20
183
 11
47.9763
 21
182.624
  0
LINE
  8
0
 10
47.9763
 20
182.624
 11
47.9057
 21
182.254
  0
LINE
  8
0
 10
47.9057
 20
182.254
 11
47.7893
 21
181.896
  0
LINE
  8
0
 10
47.7893
 20
181.896
 11
47.6289
 21
181.555
  0
LINE
  8
0
 10
47.6289
 20
181.555
 11
47.427
 21
181.237
  0
LINE
  8
0
 10
47.427
 20
181.237
 11
47.1869
 21
180.946
  0
LINE
  8
0
 10
47.1869
 20
180.946
 11
46.9123
 21
180.688
  0
LINE
  8
0
 10
46.9123
 20
180.688
 11
46.6075
 21
180.467
  0
LINE
  8
0
 10
46.6075
 20
180.467
 11
46.2773
 21
180.286
  0
LINE
  8
0
 10
46.2773
 20
180.286
 11
45.927
 21
180.147
  0
LINE
  8
0
 10
45.927
 20
180.147
 11
45.5621
 21
180.053
  0
LINE
  8
0
 10
45.5621
 20
180.053
 11
45.1884
 21
180.006
  0
LINE
  8
0
 10
45.1884
 20
180.006
 11
44.8116
 21
180.006
  0
ENDSEC
  0
SECTION
  2
OBJECTS
  0
DICTIONARY
  0
ENDSEC
  0
EOF
