<?xml version="1.0" standalone="no"?>
<!DOCTYPE svg PUBLIC "-//W3C//DTD SVG 1.1//EN" "http://www.w3.org/Graphics/SVG/1.1/DTD/svg11.dtd">
<svg width="76mm" height="100mm" viewBox="-38 -131 76 100" xmlns="http://www.w3.org/2000/svg" version="1.1">
<title>OpenSCAD Model</title>
<path d="
M 33.4369,-85.5886 L 34.0451,-85.7447 L 34.6289,-85.9759 L 35.1791,-86.2784 L 35.6871,-86.6474 L 36.1448,-87.0773
 L 36.5451,-87.5611 L 36.8815,-88.0912 L 37.1489,-88.6594 L 37.3429,-89.2566 L 37.4606,-89.8733 L 37.5,-90.5
 L 37.5,-125.5 L 37.4606,-126.127 L 37.3429,-126.743 L 37.1489,-127.341 L 36.8815,-127.909 L 36.5451,-128.439
 L 36.1448,-128.923 L 35.6871,-129.353 L 35.1791,-129.722 L 34.6289,-130.024 L 34.0451,-130.255 L 33.4369,-130.411
 L 32.8139,-130.49 L -32.8139,-130.49 L -33.4369,-130.411 L -34.0451,-130.255 L -34.6289,-130.024 L -35.1791,-129.722
 L -35.6871,-129.353 L -36.1448,-128.923 L -36.5451,-128.439 L -36.8815,-127.909 L -37.1489,-127.341 L -37.3429,-126.743
 L -37.4606,-126.127 L -37.5,-125.5 L -37.5,-90.5 L -37.4606,-89.8733 L -37.3429,-89.2566 L -37.1489,-88.6594
 L -36.8815,-88.0912 L -36.5451,-87.5611 L -36.1448,-87.0773 L -35.6871,-86.6474 L -35.1791,-86.2784 L -34.6289,-85.9759
 L -34.0451,-85.7447 L -33.4369,-85.5886 L -32.8139,-85.5099 L 32.8139,-85.5099 z
M -32.493,-86.8882 L -32.9751,-86.9491 L -33.4457,-87.0699 L -33.8975,-87.2488 L -34.3234,-87.4829 L -34.7165,-87.7685
 L -35.0707,-88.1012 L -35.3805,-88.4756 L -35.6408,-88.8859 L -35.8477,-89.3256 L -35.9979,-89.7877 L -36.089,-90.265
 L -36.1195,-90.75 L -36.1195,-125.25 L -36.089,-125.735 L -35.9979,-126.212 L -35.8477,-126.674 L -35.6408,-127.114
 L -35.3805,-127.524 L -35.0707,-127.899 L -34.7165,-128.231 L -34.3234,-128.517 L -33.8975,-128.751 L -33.4457,-128.93
 L -32.9751,-129.051 L -32.493,-129.112 L 32.493,-129.112 L 32.9751,-129.051 L 33.4457,-128.93 L 33.8975,-128.751
 L 34.3234,-128.517 L 34.7165,-128.231 L 35.0707,-127.899 L 35.3805,-127.524 L 35.6408,-127.114 L 35.8477,-126.674
 L 35.9979,-126.212 L 36.089,-125.735 L 36.1195,-125.25 L 36.1195,-90.75 L 36.089,-90.265 L 35.9979,-89.7877
 L 35.8477,-89.3256 L 35.6408,-88.8859 L 35.3805,-88.4756 L 35.0707,-88.1012 L 34.7165,-87.7685 L 34.3234,-87.4829
 L 33.8975,-87.2488 L 33.4457,-87.0699 L 32.9751,-86.9491 L 32.493,-86.8882 z
M 33.4369,-31.5886 L 34.0451,-31.7447 L 34.6289,-31.9759 L 35.1791,-32.2784 L 35.6871,-32.6474 L 36.1448,-33.0773
 L 36.5451,-33.5611 L 36.8815,-34.0912 L 37.1489,-34.6594 L 37.3429,-35.2566 L 37.4606,-35.8733 L 37.5,-36.5
 L 37.5,-71.5 L 37.4606,-72.1267 L 37.3429,-72.7434 L 37.1489,-73.3406 L 36.8815,-73.9088 L 36.5451,-74.4389
 L 36.1448,-74.9227 L 35.6871,-75.3526 L 35.1791,-75.7216 L 34.6289,-76.0241 L 34.0451,-76.2553 L 33.4369,-76.4114
 L 32.8139,-76.4901 L -32.8139,-76.4901 L -33.4369,-76.4114 L -34.0451,-76.2553 L -34.6289,-76.0241 L -35.1791,-75.7216
 L -35.6871,-75.3526 L -36.1448,-74.9227 L -36.5451,-74.4389 L -36.8815,-73.9088 L -37.1489,-73.3406 L -37.3429,-72.7434
 L -37.4606,-72.1267 L -37.5,-71.5 L -37.5,-36.5 L -37.4606,-35.8733 L -37.3429,-35.2566 L -37.1489,-34.6594
 L -36.8815,-34.0912 L -36.5451,-33.5611 L -36.1448,-33.0773 L -35.6871,-32.6474 L -35.1791,-32.2784 L -34.6289,-31.9759
 L -34.0451,-31.7447 L -33.4369,-31.5886 L -32.8139,-31.5099 L 32.8139,-31.5099 z
M 29.887,-67.2036 L 29.6627,-67.2319 L 29.4438,-67.2881 L 29.2336,-67.3713 L 29.0355,-67.4802 L 28.8526,-67.6131
 L 28.6879,-67.7678 L 28.5438,-67.942 L 28.4226,-68.1328 L 28.3264,-68.3374 L 28.2565,-68.5524 L 28.2142,-68.7744
 L 28.2,-69 L 28.2142,-69.2256 L 28.2565,-69.4476 L 28.3264,-69.6626 L 28.4226,-69.8671 L 28.5438,-70.058
 L 28.6879,-70.2322 L 28.8526,-70.3869 L 29.0355,-70.5198 L 29.2336,-70.6287 L 29.4438,-70.7119 L 29.6627,-70.7681
 L 29.887,-70.7964 L 30.113,-70.7964 L 30.3373,-70.7681 L 30.5562,-70.7119 L 30.7664,-70.6287 L 30.9645,-70.5198
 L 31.1474,-70.3869 L 31.3121,-70.2322 L 31.4562,-70.058 L 31.5773,-69.8671 L 31.6736,-69.6626 L 31.7434,-69.4476
 L 31.7858,-69.2256 L 31.8,-69 L 31.7858,-68.7744 L 31.7434,-68.5524 L 31.6736,-68.3374 L 31.5773,-68.1328
 L 31.4562,-67.942 L 31.3121,-67.7678 L 31.1474,-67.6131 L 30.9645,-67.4802 L 30.7664,-67.3713 L 30.5562,-67.2881
 L 30.3373,-67.2319 L 30.113,-67.2036 z
M -30.113,-67.2036 L -30.3373,-67.2319 L -30.5562,-67.2881 L -30.7664,-67.3713 L -30.9645,-67.4802 L -31.1474,-67.6131
 L -31.3121,-67.7678 L -31.4562,-67.942 L -31.5773,-68.1328 L -31.6736,-68.3374 L -31.7434,-68.5524 L -31.7858,-68.7744
 L -31.8,-69 L -31.7858,-69.2256 L -31.7434,-69.4476 L -31.6736,-69.6626 L -31.5773,-69.8671 L -31.4562,-70.058
 L -31.3121,-70.2322 L -31.1474,-70.3869 L -30.9645,-70.5198 L -30.7664,-70.6287 L -30.5562,-70.7119 L -30.3373,-70.7681
 L -30.113,-70.7964 L -29.887,-70.7964 L -29.6627,-70.7681 L -29.4438,-70.7119 L -29.2336,-70.6287 L -29.0355,-70.5198
 L -28.8526,-70.3869 L -28.6879,-70.2322 L -28.5438,-70.058 L -28.4226,-69.8671 L -28.3264,-69.6626 L -28.2565,-69.4476
 L -28.2142,-69.2256 L -28.2,-69 L -28.2142,-68.7744 L -28.2565,-68.5524 L -28.3264,-68.3374 L -28.4226,-68.1328
 L -28.5438,-67.942 L -28.6879,-67.7678 L -28.8526,-67.6131 L -29.0355,-67.4802 L -29.2336,-67.3713 L -29.4438,-67.2881
 L -29.6627,-67.2319 L -29.887,-67.2036 z
M 29.887,-37.2036 L 29.6627,-37.2319 L 29.4438,-37.2881 L 29.2336,-37.3713 L 29.0355,-37.4802 L 28.8526,-37.6131
 L 28.6879,-37.7678 L 28.5438,-37.942 L 28.4226,-38.1329 L 28.3264,-38.3374 L 28.2565,-38.5524 L 28.2142,-38.7744
 L 28.2,-39 L 28.2142,-39.2256 L 28.2565,-39.4476 L 28.3264,-39.6626 L 28.4226,-39.8672 L 28.5438,-40.058
 L 28.6879,-40.2322 L 28.8526,-40.3869 L 29.0355,-40.5198 L 29.2336,-40.6287 L 29.4438,-40.7119 L 29.6627,-40.7681
 L 29.887,-40.7964 L 30.113,-40.7964 L 30.3373,-40.7681 L 30.5562,-40.7119 L 30.7664,-40.6287 L 30.9645,-40.5198
 L 31.1474,-40.3869 L 31.3121,-40.2322 L 31.4562,-40.058 L 31.5773,-39.8672 L 31.6736,-39.6626 L 31.7434,-39.4476
 L 31.7858,-39.2256 L 31.8,-39 L 31.7858,-38.7744 L 31.7434,-38.5524 L 31.6736,-38.3374 L 31.5773,-38.1329
 L 31.4562,-37.942 L 31.3121,-37.7678 L 31.1474,-37.6131 L 30.9645,-37.4802 L 30.7664,-37.3713 L 30.5562,-37.2881
 L 30.3373,-37.2319 L 30.113,-37.2036 z
M -30.113,-37.2036 L -30.3373,-37.2319 L -30.5562,-37.2881 L -30.7664,-37.3713 L -30.9645,-37.4802 L -31.1474,-37.6131
 L -31.3121,-37.7678 L -31.4562,-37.942 L -31.5773,-38.1329 L -31.6736,-38.3374 L -31.7434,-38.5524 L -31.7858,-38.7744
 L -31.8,-39 L -31.7858,-39.2256 L -31.7434,-39.4476 L -31.6736,-39.6626 L -31.5773,-39.8672 L -31.4562,-40.058
 L -31.3121,-40.2322 L -31.1474,-40.3869 L -30.9645,-40.5198 L -30.7664,-40.6287 L -30.5562,-40.7119 L -30.3373,-40.7681
 L -30.113,-40.7964 L -29.887,-40.7964 L -29.6627,-40.7681 L -29.4438,-40.7119 L -29.2336,-40.6287 L -29.0355,-40.5198
 L -28.8526,-40.3869 L -28.6879,-40.2322 L -28.5438,-40.058 L -28.4226,-39.8672 L -28.3264,-39.6626 L -28.2565,-39.4476
 L -28.2142,-39.2256 L -28.2,-39 L -28.2142,-38.7744 L -28.2565,-38.5524 L -28.3264,-38.3374 L -28.4226,-38.1329
 L -28.5438,-37.942 L -28.6879,-37.7678 L -28.8526,-37.6131 L -29.0355,-37.4802 L -29.2336,-37.3713 L -29.4438,-37.2881
 L -29.6627,-37.2319 L -29.887,-37.2036 z
" stroke="black" fill="lightgray" stroke-width="0.5"/>
</svg>
