<?xml version="1.0" standalone="no"?>
<!DOCTYPE svg PUBLIC "-//W3C//DTD SVG 1.1//EN" "http://www.w3.org/Graphics/SVG/1.1/DTD/svg11.dtd">
<svg width="122mm" height="262mm" viewBox="-62 -509 122 262" xmlns="http://www.w3.org/2000/svg" version="1.1">
<title>OpenSCAD Model</title>
<path d="
M -58.5,-464.941 L -58.1871,-464.647 L -57.6791,-464.278 L -57.1289,-463.976 L -56.5451,-463.745 L -55.9369,-463.589
 L -55.3139,-463.51 L 55.3139,-463.51 L 55.9369,-463.589 L 56.5451,-463.745 L 57.1289,-463.976 L 57.6791,-464.278
 L 58.1871,-464.647 L 58.6448,-465.077 L 59.0451,-465.561 L 59.3815,-466.091 L 59.6489,-466.659 L 59.8429,-467.257
 L 59.9606,-467.873 L 60,-468.5 L 60,-503.5 L 59.9606,-504.127 L 59.8429,-504.743 L 59.6489,-505.341
 L 59.3815,-505.909 L 59.0451,-506.439 L 58.6448,-506.923 L 58.1871,-507.353 L 57.6791,-507.722 L 57.1289,-508.024
 L 56.5451,-508.255 L 55.9369,-508.411 L 55.3139,-508.49 L -55.3139,-508.49 L -55.9369,-508.411 L -56.5451,-508.255
 L -57.1289,-508.024 L -57.6791,-507.722 L -58.1871,-507.353 L -58.5,-507.059 L -58.5,-508.49 L -61.5,-508.49
 L -61.5,-463.51 L -58.5,-463.51 z
M -54.7512,-465.008 L -55.2495,-465.071 L -55.7361,-465.196 L -56.2031,-465.381 L -56.6433,-465.623 L -57.0497,-465.918
 L -57.4159,-466.262 L -57.7361,-466.649 L -58.0052,-467.073 L -58.2191,-467.528 L -58.3743,-468.005 L -58.4685,-468.499
 L -58.5,-469 L -58.5,-503 L -58.4685,-503.501 L -58.3743,-503.995 L -58.2191,-504.472 L -58.0052,-504.927
 L -57.7361,-505.351 L -57.4159,-505.738 L -57.0497,-506.082 L -56.6433,-506.377 L -56.2031,-506.619 L -55.7361,-506.804
 L -55.2495,-506.929 L -54.7512,-506.992 L 54.7512,-506.992 L 55.2495,-506.929 L 55.7361,-506.804 L 56.2031,-506.619
 L 56.6433,-506.377 L 57.0497,-506.082 L 57.4159,-505.738 L 57.7361,-505.351 L 58.0052,-504.927 L 58.2191,-504.472
 L 58.3743,-503.995 L 58.4685,-503.501 L 58.5,-503 L 58.5,-469 L 58.4685,-468.499 L 58.3743,-468.005
 L 58.2191,-467.528 L 58.0052,-467.073 L 57.7361,-466.649 L 57.4159,-466.262 L 57.0497,-465.918 L 56.6433,-465.623
 L 56.2031,-465.381 L 55.7361,-465.196 L 55.2495,-465.071 L 54.7512,-465.008 z
M -58.5,-410.941 L -58.1871,-410.647 L -57.6791,-410.278 L -57.1289,-409.976 L -56.5451,-409.745 L -55.9369,-409.589
 L -55.3139,-409.51 L 55.3139,-409.51 L 55.9369,-409.589 L 56.5451,-409.745 L 57.1289,-409.976 L 57.6791,-410.278
 L 58.1871,-410.647 L 58.6448,-411.077 L 59.0451,-411.561 L 59.3815,-412.091 L 59.6489,-412.659 L 59.8429,-413.257
 L 59.9606,-413.873 L 60,-414.5 L 60,-449.5 L 59.9606,-450.127 L 59.8429,-450.743 L 59.6489,-451.341
 L 59.3815,-451.909 L 59.0451,-452.439 L 58.6448,-452.923 L 58.1871,-453.353 L 57.6791,-453.722 L 57.1289,-454.024
 L 56.5451,-454.255 L 55.9369,-454.411 L 55.3139,-454.49 L -55.3139,-454.49 L -55.9369,-454.411 L -56.5451,-454.255
 L -57.1289,-454.024 L -57.6791,-453.722 L -58.1871,-453.353 L -58.5,-453.059 L -58.5,-454.49 L -61.5,-454.49
 L -61.5,-409.51 L -58.5,-409.51 z
M -54.7512,-411.008 L -55.2495,-411.071 L -55.7361,-411.196 L -56.2031,-411.381 L -56.6433,-411.623 L -57.0497,-411.918
 L -57.4159,-412.262 L -57.7361,-412.649 L -58.0052,-413.073 L -58.2191,-413.528 L -58.3743,-414.005 L -58.4685,-414.499
 L -58.5,-415 L -58.5,-449 L -58.4685,-449.501 L -58.3743,-449.995 L -58.2191,-450.472 L -58.0052,-450.927
 L -57.7361,-451.351 L -57.4159,-451.738 L -57.0497,-452.082 L -56.6433,-452.377 L -56.2031,-452.619 L -55.7361,-452.804
 L -55.2495,-452.929 L -54.7512,-452.992 L 54.7512,-452.992 L 55.2495,-452.929 L 55.7361,-452.804 L 56.2031,-452.619
 L 56.6433,-452.377 L 57.0497,-452.082 L 57.4159,-451.738 L 57.7361,-451.351 L 58.0052,-450.927 L 58.2191,-450.472
 L 58.3743,-449.995 L 58.4685,-449.501 L 58.5,-449 L 58.5,-415 L 58.4685,-414.499 L 58.3743,-414.005
 L 58.2191,-413.528 L 58.0052,-413.073 L 57.7361,-412.649 L 57.4159,-412.262 L 57.0497,-411.918 L 56.6433,-411.623
 L 56.2031,-411.381 L 55.7361,-411.196 L 55.2495,-411.071 L 54.7512,-411.008 z
M -58.5,-356.941 L -58.1871,-356.647 L -57.6791,-356.278 L -57.1289,-355.976 L -56.5451,-355.745 L -55.9369,-355.589
 L -55.3139,-355.51 L 55.3139,-355.51 L 55.9369,-355.589 L 56.5451,-355.745 L 57.1289,-355.976 L 57.6791,-356.278
 L 58.1871,-356.647 L 58.6448,-357.077 L 59.0451,-357.561 L 59.3815,-358.091 L 59.6489,-358.659 L 59.8429,-359.257
 L 59.9606,-359.873 L 60,-360.5 L 60,-395.5 L 59.9606,-396.127 L 59.8429,-396.743 L 59.6489,-397.341
 L 59.3815,-397.909 L 59.0451,-398.439 L 58.6448,-398.923 L 58.1871,-399.353 L 57.6791,-399.722 L 57.1289,-400.024
 L 56.5451,-400.255 L 55.9369,-400.411 L 55.3139,-400.49 L -55.3139,-400.49 L -55.9369,-400.411 L -56.5451,-400.255
 L -57.1289,-400.024 L -57.6791,-399.722 L -58.1871,-399.353 L -58.5,-399.059 L -58.5,-400.49 L -61.5,-400.49
 L -61.5,-355.51 L -58.5,-355.51 z
M -54.7512,-357.008 L -55.2495,-357.071 L -55.7361,-357.196 L -56.2031,-357.381 L -56.6433,-357.623 L -57.0497,-357.918
 L -57.4159,-358.262 L -57.7361,-358.649 L -58.0052,-359.073 L -58.2191,-359.528 L -58.3743,-360.005 L -58.4685,-360.499
 L -58.5,-361 L -58.5,-395 L -58.4685,-395.501 L -58.3743,-395.995 L -58.2191,-396.472 L -58.0052,-396.927
 L -57.7361,-397.351 L -57.4159,-397.738 L -57.0497,-398.082 L -56.6433,-398.377 L -56.2031,-398.619 L -55.7361,-398.804
 L -55.2495,-398.929 L -54.7512,-398.992 L 54.7512,-398.992 L 55.2495,-398.929 L 55.7361,-398.804 L 56.2031,-398.619
 L 56.6433,-398.377 L 57.0497,-398.082 L 57.4159,-397.738 L 57.7361,-397.351 L 58.0052,-396.927 L 58.2191,-396.472
 L 58.3743,-395.995 L 58.4685,-395.501 L 58.5,-395 L 58.5,-361 L 58.4685,-360.499 L 58.3743,-360.005
 L 58.2191,-359.528 L 58.0052,-359.073 L 57.7361,-358.649 L 57.4159,-358.262 L 57.0497,-357.918 L 56.6433,-357.623
 L 56.2031,-357.381 L 55.7361,-357.196 L 55.2495,-357.071 L 54.7512,-357.008 z
M 55.9369,-301.589 L 56.5451,-301.745 L 57.1289,-301.976 L 57.6791,-302.278 L 58.1871,-302.647 L 58.6448,-303.077
 L 59.0451,-303.561 L 59.3815,-304.091 L 59.6489,-304.659 L 59.8429,-305.257 L 59.9606,-305.873 L 60,-306.5
 L 60,-341.5 L 59.9606,-342.127 L 59.8429,-342.743 L 59.6489,-343.341 L 59.3815,-343.909 L 59.0451,-344.439
 L 58.6448,-344.923 L 58.1871,-345.353 L 57.6791,-345.722 L 57.1289,-346.024 L 56.5451,-346.255 L 55.9369,-346.411
 L 55.3139,-346.49 L -55.3139,-346.49 L -55.9369,-346.411 L -56.5451,-346.255 L -57.1289,-346.024 L -57.6791,-345.722
 L -58.1871,-345.353 L -58.5,-345.059 L -58.5,-346.479 L -61.5,-346.479 L -61.5,-301.521 L -58.5,-301.521
 L -58.5,-302.941 L -58.1871,-302.647 L -57.6791,-302.278 L -57.1289,-301.976 L -56.5451,-301.745 L -55.9369,-301.589
 L -55.3139,-301.51 L 55.3139,-301.51 z
M -54.6954,-303.893 L -55.0833,-303.942 L -55.4619,-304.039 L -55.8254,-304.183 L -56.168,-304.372 L -56.4842,-304.601
 L -56.7692,-304.869 L -57.0184,-305.17 L -57.2279,-305.5 L -57.3943,-305.854 L -57.5151,-306.226 L -57.5884,-306.61
 L -57.6129,-307 L -57.6129,-341 L -57.5884,-341.39 L -57.5151,-341.774 L -57.3943,-342.146 L -57.2279,-342.5
 L -57.0184,-342.83 L -56.7692,-343.131 L -56.4842,-343.399 L -56.168,-343.628 L -55.8254,-343.817 L -55.4619,-343.961
 L -55.0833,-344.058 L -54.6954,-344.107 L 54.6954,-344.107 L 55.0833,-344.058 L 55.4619,-343.961 L 55.8254,-343.817
 L 56.168,-343.628 L 56.4842,-343.399 L 56.7692,-343.131 L 57.0184,-342.83 L 57.2279,-342.5 L 57.3943,-342.146
 L 57.5151,-341.774 L 57.5884,-341.39 L 57.6129,-341 L 57.6129,-307 L 57.5884,-306.61 L 57.5151,-306.226
 L 57.3943,-305.854 L 57.2279,-305.5 L 57.0184,-305.17 L 56.7692,-304.869 L 56.4842,-304.601 L 56.168,-304.372
 L 55.8254,-304.183 L 55.4619,-304.039 L 55.0833,-303.942 L 54.6954,-303.893 z
M 55.9369,-247.589 L 56.5451,-247.745 L 57.1289,-247.976 L 57.6791,-248.278 L 58.1871,-248.647 L 58.6448,-249.077
 L 59.0451,-249.561 L 59.3815,-250.091 L 59.6489,-250.659 L 59.8429,-251.257 L 59.9606,-251.873 L 60,-252.5
 L 60,-287.5 L 59.9606,-288.127 L 59.8429,-288.743 L 59.6489,-289.341 L 59.3815,-289.909 L 59.0451,-290.439
 L 58.6448,-290.923 L 58.1871,-291.353 L 57.6791,-291.722 L 57.1289,-292.024 L 56.5451,-292.255 L 55.9369,-292.411
 L 55.3139,-292.49 L -55.3139,-292.49 L -55.9369,-292.411 L -56.5451,-292.255 L -57.1289,-292.024 L -57.6791,-291.722
 L -58.1871,-291.353 L -58.5,-291.059 L -58.5,-291.153 L -61.5,-291.153 L -61.5,-248.847 L -58.5,-248.847
 L -58.5,-248.941 L -58.1871,-248.647 L -57.6791,-248.278 L -57.1289,-247.976 L -56.5451,-247.745 L -55.9369,-247.589
 L -55.3139,-247.51 L 55.3139,-247.51 z
M -52.6341,-282.869 L -52.9001,-282.903 L -53.1598,-282.969 L -53.4092,-283.068 L -53.6441,-283.197 L -53.8611,-283.355
 L -54.0565,-283.538 L -54.2275,-283.745 L -54.3712,-283.971 L -54.4853,-284.214 L -54.5682,-284.469 L -54.6185,-284.732
 L -54.6353,-285 L -54.6185,-285.268 L -54.5682,-285.531 L -54.4853,-285.786 L -54.3712,-286.029 L -54.2275,-286.255
 L -54.0565,-286.462 L -53.8611,-286.645 L -53.6441,-286.803 L -53.4092,-286.932 L -53.1598,-287.031 L -52.9001,-287.097
 L -52.6341,-287.131 L -52.3659,-287.131 L -52.0999,-287.097 L -51.8401,-287.031 L -51.5908,-286.932 L -51.3559,-286.803
 L -51.1389,-286.645 L -50.9434,-286.462 L -50.7725,-286.255 L -50.6288,-286.029 L -50.5146,-285.786 L -50.4318,-285.531
 L -50.3815,-285.268 L -50.3647,-285 L -50.3815,-284.732 L -50.4318,-284.469 L -50.5146,-284.214 L -50.6288,-283.971
 L -50.7725,-283.745 L -50.9434,-283.538 L -51.1389,-283.355 L -51.3559,-283.197 L -51.5908,-283.068 L -51.8401,-282.969
 L -52.0999,-282.903 L -52.3659,-282.869 z
M 52.3659,-282.869 L 52.0999,-282.903 L 51.8401,-282.969 L 51.5908,-283.068 L 51.3559,-283.197 L 51.1389,-283.355
 L 50.9434,-283.538 L 50.7725,-283.745 L 50.6288,-283.971 L 50.5146,-284.214 L 50.4318,-284.469 L 50.3815,-284.732
 L 50.3647,-285 L 50.3815,-285.268 L 50.4318,-285.531 L 50.5146,-285.786 L 50.6288,-286.029 L 50.7725,-286.255
 L 50.9434,-286.462 L 51.1389,-286.645 L 51.3559,-286.803 L 51.5908,-286.932 L 51.8401,-287.031 L 52.0999,-287.097
 L 52.3659,-287.131 L 52.6341,-287.131 L 52.9001,-287.097 L 53.1598,-287.031 L 53.4092,-286.932 L 53.6441,-286.803
 L 53.8611,-286.645 L 54.0565,-286.462 L 54.2275,-286.255 L 54.3712,-286.029 L 54.4853,-285.786 L 54.5682,-285.531
 L 54.6185,-285.268 L 54.6353,-285 L 54.6185,-284.732 L 54.5682,-284.469 L 54.4853,-284.214 L 54.3712,-283.971
 L 54.2275,-283.745 L 54.0565,-283.538 L 53.8611,-283.355 L 53.6441,-283.197 L 53.4092,-283.068 L 53.1598,-282.969
 L 52.9001,-282.903 L 52.6341,-282.869 z
M -52.6341,-252.869 L -52.9001,-252.903 L -53.1598,-252.969 L -53.4092,-253.068 L -53.6441,-253.197 L -53.8611,-253.355
 L -54.0565,-253.538 L -54.2275,-253.745 L -54.3712,-253.971 L -54.4853,-254.214 L -54.5682,-254.469 L -54.6185,-254.732
 L -54.6353,-255 L -54.6185,-255.268 L -54.5682,-255.531 L -54.4853,-255.786 L -54.3712,-256.029 L -54.2275,-256.255
 L -54.0565,-256.462 L -53.8611,-256.645 L -53.6441,-256.803 L -53.4092,-256.932 L -53.1598,-257.031 L -52.9001,-257.097
 L -52.6341,-257.131 L -52.3659,-257.131 L -52.0999,-257.097 L -51.8401,-257.031 L -51.5908,-256.932 L -51.3559,-256.803
 L -51.1389,-256.645 L -50.9434,-256.462 L -50.7725,-256.255 L -50.6288,-256.029 L -50.5146,-255.786 L -50.4318,-255.531
 L -50.3815,-255.268 L -50.3647,-255 L -50.3815,-254.732 L -50.4318,-254.469 L -50.5146,-254.214 L -50.6288,-253.971
 L -50.7725,-253.745 L -50.9434,-253.538 L -51.1389,-253.355 L -51.3559,-253.197 L -51.5908,-253.068 L -51.8401,-252.969
 L -52.0999,-252.903 L -52.3659,-252.869 z
M 52.3659,-252.869 L 52.0999,-252.903 L 51.8401,-252.969 L 51.5908,-253.068 L 51.3559,-253.197 L 51.1389,-253.355
 L 50.9434,-253.538 L 50.7725,-253.745 L 50.6288,-253.971 L 50.5146,-254.214 L 50.4318,-254.469 L 50.3815,-254.732
 L 50.3647,-255 L 50.3815,-255.268 L 50.4318,-255.531 L 50.5146,-255.786 L 50.6288,-256.029 L 50.7725,-256.255
 L 50.9434,-256.462 L 51.1389,-256.645 L 51.3559,-256.803 L 51.5908,-256.932 L 51.8401,-257.031 L 52.0999,-257.097
 L 52.3659,-257.131 L 52.6341,-257.131 L 52.9001,-257.097 L 53.1598,-257.031 L 53.4092,-256.932 L 53.6441,-256.803
 L 53.8611,-256.645 L 54.0565,-256.462 L 54.2275,-256.255 L 54.3712,-256.029 L 54.4853,-255.786 L 54.5682,-255.531
 L 54.6185,-255.268 L 54.6353,-255 L 54.6185,-254.732 L 54.5682,-254.469 L 54.4853,-254.214 L 54.3712,-253.971
 L 54.2275,-253.745 L 54.0565,-253.538 L 53.8611,-253.355 L 53.6441,-253.197 L 53.4092,-253.068 L 53.1598,-252.969
 L 52.9001,-252.903 L 52.6341,-252.869 z
" stroke="black" fill="lightgray" stroke-width="0.5"/>
</svg>
