<?xml version="1.0" standalone="no"?>
<!DOCTYPE svg PUBLIC "-//W3C//DTD SVG 1.1//EN" "http://www.w3.org/Graphics/SVG/1.1/DTD/svg11.dtd">
<svg width="137mm" height="69mm" viewBox="-69 -132 137 69" xmlns="http://www.w3.org/2000/svg" version="1.1">
<title>OpenSCAD Model</title>
<path d="
M 63.4369,-102.089 L 64.0451,-102.245 L 64.6289,-102.476 L 65.1791,-102.778 L 65.6871,-103.147 L 66.1448,-103.577
 L 66.5451,-104.061 L 66.8815,-104.591 L 67.1489,-105.159 L 67.3429,-105.757 L 67.4606,-106.373 L 67.5,-107
 L 67.5,-127 L 67.4606,-127.627 L 67.3429,-128.243 L 67.1489,-128.841 L 66.8815,-129.409 L 66.5451,-129.939
 L 66.1448,-130.423 L 65.6871,-130.853 L 65.1791,-131.222 L 64.6289,-131.524 L 64.0451,-131.755 L 63.4369,-131.911
 L 62.8139,-131.99 L -62.8139,-131.99 L -63.4369,-131.911 L -64.0451,-131.755 L -64.6289,-131.524 L -65.1791,-131.222
 L -65.6871,-130.853 L -66,-130.559 L -66,-131.979 L -69,-131.979 L -69,-102.021 L -66,-102.021
 L -66,-103.441 L -65.6871,-103.147 L -65.1791,-102.778 L -64.6289,-102.476 L -64.0451,-102.245 L -63.4369,-102.089
 L -62.8139,-102.01 L 62.8139,-102.01 z
M -62.1954,-104.393 L -62.5833,-104.442 L -62.9619,-104.539 L -63.3254,-104.683 L -63.668,-104.872 L -63.9842,-105.101
 L -64.2692,-105.369 L -64.5184,-105.67 L -64.7279,-106 L -64.8943,-106.354 L -65.0151,-106.726 L -65.0884,-107.11
 L -65.1129,-107.5 L -65.1129,-126.5 L -65.0884,-126.89 L -65.0151,-127.274 L -64.8943,-127.646 L -64.7279,-128
 L -64.5184,-128.33 L -64.2692,-128.631 L -63.9842,-128.899 L -63.668,-129.128 L -63.3254,-129.317 L -62.9619,-129.461
 L -62.5833,-129.558 L -62.1954,-129.607 L 62.1954,-129.607 L 62.5833,-129.558 L 62.9619,-129.461 L 63.3254,-129.317
 L 63.668,-129.128 L 63.9842,-128.899 L 64.2692,-128.631 L 64.5184,-128.33 L 64.7279,-128 L 64.8943,-127.646
 L 65.0151,-127.274 L 65.0884,-126.89 L 65.1129,-126.5 L 65.1129,-107.5 L 65.0884,-107.11 L 65.0151,-106.726
 L 64.8943,-106.354 L 64.7279,-106 L 64.5184,-105.67 L 64.2692,-105.369 L 63.9842,-105.101 L 63.668,-104.872
 L 63.3254,-104.683 L 62.9619,-104.539 L 62.5833,-104.442 L 62.1954,-104.393 z
M 63.4369,-63.0886 L 64.0451,-63.2447 L 64.6289,-63.4759 L 65.1791,-63.7784 L 65.6871,-64.1474 L 66.1448,-64.5773
 L 66.5451,-65.0611 L 66.8815,-65.5912 L 67.1489,-66.1594 L 67.3429,-66.7566 L 67.4606,-67.3733 L 67.5,-68
 L 67.5,-88 L 67.4606,-88.6267 L 67.3429,-89.2434 L 67.1489,-89.8406 L 66.8815,-90.4088 L 66.5451,-90.9389
 L 66.1448,-91.4227 L 65.6871,-91.8526 L 65.1791,-92.2216 L 64.6289,-92.5241 L 64.0451,-92.7553 L 63.4369,-92.9114
 L 62.8139,-92.9901 L -62.8139,-92.9901 L -63.4369,-92.9114 L -64.0451,-92.7553 L -64.6289,-92.5241 L -65.1791,-92.2216
 L -65.6871,-91.8526 L -66,-91.5587 L -66,-91.6526 L -69,-91.6526 L -69,-64.3474 L -66,-64.3474
 L -66,-64.4413 L -65.6871,-64.1474 L -65.1791,-63.7784 L -64.6289,-63.4759 L -64.0451,-63.2447 L -63.4369,-63.0886
 L -62.8139,-63.0099 L 62.8139,-63.0099 z
M 59.8659,-83.3689 L 59.5999,-83.4025 L 59.3401,-83.4692 L 59.0908,-83.5679 L 58.8559,-83.6971 L 58.6389,-83.8547
 L 58.4434,-84.0383 L 58.2725,-84.2449 L 58.1288,-84.4713 L 58.0146,-84.7139 L 57.9318,-84.969 L 57.8815,-85.2324
 L 57.8647,-85.5 L 57.8815,-85.7676 L 57.9318,-86.031 L 58.0146,-86.286 L 58.1288,-86.5287 L 58.2725,-86.7551
 L 58.4434,-86.9617 L 58.6389,-87.1453 L 58.8559,-87.3029 L 59.0908,-87.4321 L 59.3401,-87.5308 L 59.5999,-87.5975
 L 59.8659,-87.6311 L 60.1341,-87.6311 L 60.4001,-87.5975 L 60.6598,-87.5308 L 60.9092,-87.4321 L 61.1441,-87.3029
 L 61.3611,-87.1453 L 61.5565,-86.9617 L 61.7275,-86.7551 L 61.8712,-86.5287 L 61.9853,-86.286 L 62.0682,-86.031
 L 62.1185,-85.7676 L 62.1353,-85.5 L 62.1185,-85.2324 L 62.0682,-84.969 L 61.9853,-84.7139 L 61.8712,-84.4713
 L 61.7275,-84.2449 L 61.5565,-84.0383 L 61.3611,-83.8547 L 61.1441,-83.6971 L 60.9092,-83.5679 L 60.6598,-83.4692
 L 60.4001,-83.4025 L 60.1341,-83.3689 z
M -60.1341,-83.3689 L -60.4001,-83.4025 L -60.6598,-83.4692 L -60.9092,-83.5679 L -61.1441,-83.6971 L -61.3611,-83.8547
 L -61.5565,-84.0383 L -61.7275,-84.2449 L -61.8712,-84.4713 L -61.9853,-84.7139 L -62.0682,-84.969 L -62.1185,-85.2324
 L -62.1353,-85.5 L -62.1185,-85.7676 L -62.0682,-86.031 L -61.9853,-86.286 L -61.8712,-86.5287 L -61.7275,-86.7551
 L -61.5565,-86.9617 L -61.3611,-87.1453 L -61.1441,-87.3029 L -60.9092,-87.4321 L -60.6598,-87.5308 L -60.4001,-87.5975
 L -60.1341,-87.6311 L -59.8659,-87.6311 L -59.5999,-87.5975 L -59.3401,-87.5308 L -59.0908,-87.4321 L -58.8559,-87.3029
 L -58.6389,-87.1453 L -58.4434,-86.9617 L -58.2725,-86.7551 L -58.1288,-86.5287 L -58.0146,-86.286 L -57.9318,-86.031
 L -57.8815,-85.7676 L -57.8647,-85.5 L -57.8815,-85.2324 L -57.9318,-84.969 L -58.0146,-84.7139 L -58.1288,-84.4713
 L -58.2725,-84.2449 L -58.4434,-84.0383 L -58.6389,-83.8547 L -58.8559,-83.6971 L -59.0908,-83.5679 L -59.3401,-83.4692
 L -59.5999,-83.4025 L -59.8659,-83.3689 z
M 59.8659,-68.3689 L 59.5999,-68.4025 L 59.3401,-68.4692 L 59.0908,-68.5679 L 58.8559,-68.6971 L 58.6389,-68.8547
 L 58.4434,-69.0383 L 58.2725,-69.2449 L 58.1288,-69.4713 L 58.0146,-69.714 L 57.9318,-69.969 L 57.8815,-70.2324
 L 57.8647,-70.5 L 57.8815,-70.7676 L 57.9318,-71.031 L 58.0146,-71.2861 L 58.1288,-71.5287 L 58.2725,-71.7551
 L 58.4434,-71.9617 L 58.6389,-72.1453 L 58.8559,-72.3029 L 59.0908,-72.4321 L 59.3401,-72.5308 L 59.5999,-72.5975
 L 59.8659,-72.6311 L 60.1341,-72.6311 L 60.4001,-72.5975 L 60.6598,-72.5308 L 60.9092,-72.4321 L 61.1441,-72.3029
 L 61.3611,-72.1453 L 61.5565,-71.9617 L 61.7275,-71.7551 L 61.8712,-71.5287 L 61.9853,-71.2861 L 62.0682,-71.031
 L 62.1185,-70.7676 L 62.1353,-70.5 L 62.1185,-70.2324 L 62.0682,-69.969 L 61.9853,-69.714 L 61.8712,-69.4713
 L 61.7275,-69.2449 L 61.5565,-69.0383 L 61.3611,-68.8547 L 61.1441,-68.6971 L 60.9092,-68.5679 L 60.6598,-68.4692
 L 60.4001,-68.4025 L 60.1341,-68.3689 z
M -60.1341,-68.3689 L -60.4001,-68.4025 L -60.6598,-68.4692 L -60.9092,-68.5679 L -61.1441,-68.6971 L -61.3611,-68.8547
 L -61.5565,-69.0383 L -61.7275,-69.2449 L -61.8712,-69.4713 L -61.9853,-69.714 L -62.0682,-69.969 L -62.1185,-70.2324
 L -62.1353,-70.5 L -62.1185,-70.7676 L -62.0682,-71.031 L -61.9853,-71.2861 L -61.8712,-71.5287 L -61.7275,-71.7551
 L -61.5565,-71.9617 L -61.3611,-72.1453 L -61.1441,-72.3029 L -60.9092,-72.4321 L -60.6598,-72.5308 L -60.4001,-72.5975
 L -60.1341,-72.6311 L -59.8659,-72.6311 L -59.5999,-72.5975 L -59.3401,-72.5308 L -59.0908,-72.4321 L -58.8559,-72.3029
 L -58.6389,-72.1453 L -58.4434,-71.9617 L -58.2725,-71.7551 L -58.1288,-71.5287 L -58.0146,-71.2861 L -57.9318,-71.031
 L -57.8815,-70.7676 L -57.8647,-70.5 L -57.8815,-70.2324 L -57.9318,-69.969 L -58.0146,-69.714 L -58.1288,-69.4713
 L -58.2725,-69.2449 L -58.4434,-69.0383 L -58.6389,-68.8547 L -58.8559,-68.6971 L -59.0908,-68.5679 L -59.3401,-68.4692
 L -59.5999,-68.4025 L -59.8659,-68.3689 z
" stroke="black" fill="lightgray" stroke-width="0.5"/>
</svg>
