<?xml version="1.0" standalone="no"?>
<!DOCTYPE svg PUBLIC "-//W3C//DTD SVG 1.1//EN" "http://www.w3.org/Graphics/SVG/1.1/DTD/svg11.dtd">
<svg width="30mm" height="288mm" viewBox="-15 -540 30 288" xmlns="http://www.w3.org/2000/svg" version="1.1">
<title>OpenSCAD Model</title>
<path d="
M 10.9369,-450.089 L 11.5451,-450.245 L 12.1289,-450.476 L 12.6791,-450.778 L 13.1871,-451.147 L 13.6448,-451.577
 L 14.0451,-452.061 L 14.3815,-452.591 L 14.6489,-453.159 L 14.8429,-453.757 L 14.9606,-454.373 L 15,-455
 L 15,-535 L 14.9606,-535.627 L 14.8429,-536.243 L 14.6489,-536.841 L 14.3815,-537.409 L 14.0451,-537.939
 L 13.6448,-538.423 L 13.1871,-538.853 L 12.6791,-539.222 L 12.1289,-539.524 L 11.5451,-539.755 L 10.9369,-539.911
 L 10.3139,-539.99 L -10.3139,-539.99 L -10.9369,-539.911 L -11.5451,-539.755 L -12.1289,-539.524 L -12.6791,-539.222
 L -13.1871,-538.853 L -13.6448,-538.423 L -14.0451,-537.939 L -14.3815,-537.409 L -14.6489,-536.841 L -14.8429,-536.243
 L -14.9606,-535.627 L -15,-535 L -15,-455 L -14.9606,-454.373 L -14.8429,-453.757 L -14.6489,-453.159
 L -14.3815,-452.591 L -14.0451,-452.061 L -13.6448,-451.577 L -13.1871,-451.147 L -12.6791,-450.778 L -12.1289,-450.476
 L -11.5451,-450.245 L -10.9369,-450.089 L -10.3139,-450.01 L 10.3139,-450.01 z
M -9.75116,-451.508 L -10.2495,-451.571 L -10.7361,-451.696 L -11.2031,-451.881 L -11.6433,-452.123 L -12.0497,-452.418
 L -12.4159,-452.762 L -12.7361,-453.149 L -13.0052,-453.573 L -13.2191,-454.028 L -13.3743,-454.505 L -13.4684,-454.999
 L -13.5,-455.5 L -13.5,-534.5 L -13.4684,-535.001 L -13.3743,-535.495 L -13.2191,-535.972 L -13.0052,-536.427
 L -12.7361,-536.851 L -12.4159,-537.238 L -12.0497,-537.582 L -11.6433,-537.877 L -11.2031,-538.119 L -10.7361,-538.304
 L -10.2495,-538.429 L -9.75116,-538.492 L 9.75116,-538.492 L 10.2495,-538.429 L 10.7361,-538.304 L 11.2031,-538.119
 L 11.6433,-537.877 L 12.0497,-537.582 L 12.4159,-537.238 L 12.7361,-536.851 L 13.0052,-536.427 L 13.2191,-535.972
 L 13.3743,-535.495 L 13.4684,-535.001 L 13.5,-534.5 L 13.5,-455.5 L 13.4684,-454.999 L 13.3743,-454.505
 L 13.2191,-454.028 L 13.0052,-453.573 L 12.7361,-453.149 L 12.4159,-452.762 L 12.0497,-452.418 L 11.6433,-452.123
 L 11.2031,-451.881 L 10.7361,-451.696 L 10.2495,-451.571 L 9.75116,-451.508 z
M 10.9369,-351.089 L 11.5451,-351.245 L 12.1289,-351.476 L 12.6791,-351.778 L 13.1871,-352.147 L 13.6448,-352.577
 L 14.0451,-353.061 L 14.3815,-353.591 L 14.6489,-354.159 L 14.8429,-354.757 L 14.9606,-355.373 L 15,-356
 L 15,-436 L 14.9606,-436.627 L 14.8429,-437.243 L 14.6489,-437.841 L 14.3815,-438.409 L 14.0451,-438.939
 L 13.6448,-439.423 L 13.1871,-439.853 L 12.6791,-440.222 L 12.1289,-440.524 L 11.5451,-440.755 L 10.9369,-440.911
 L 10.3139,-440.99 L -10.3139,-440.99 L -10.9369,-440.911 L -11.5451,-440.755 L -12.1289,-440.524 L -12.6791,-440.222
 L -13.1871,-439.853 L -13.6448,-439.423 L -14.0451,-438.939 L -14.3815,-438.409 L -14.6489,-437.841 L -14.8429,-437.243
 L -14.9606,-436.627 L -15,-436 L -15,-356 L -14.9606,-355.373 L -14.8429,-354.757 L -14.6489,-354.159
 L -14.3815,-353.591 L -14.0451,-353.061 L -13.6448,-352.577 L -13.1871,-352.147 L -12.6791,-351.778 L -12.1289,-351.476
 L -11.5451,-351.245 L -10.9369,-351.089 L -10.3139,-351.01 L 10.3139,-351.01 z
M -9.69545,-353.393 L -10.0833,-353.442 L -10.4619,-353.539 L -10.8254,-353.683 L -11.168,-353.872 L -11.4842,-354.101
 L -11.7692,-354.369 L -12.0184,-354.67 L -12.2279,-355 L -12.3943,-355.354 L -12.5151,-355.726 L -12.5884,-356.11
 L -12.6129,-356.5 L -12.6129,-435.5 L -12.5884,-435.89 L -12.5151,-436.274 L -12.3943,-436.646 L -12.2279,-437
 L -12.0184,-437.33 L -11.7692,-437.631 L -11.4842,-437.899 L -11.168,-438.128 L -10.8254,-438.317 L -10.4619,-438.461
 L -10.0833,-438.558 L -9.69545,-438.607 L 9.69545,-438.607 L 10.0833,-438.558 L 10.4619,-438.461 L 10.8254,-438.317
 L 11.168,-438.128 L 11.4842,-437.899 L 11.7692,-437.631 L 12.0184,-437.33 L 12.2279,-437 L 12.3943,-436.646
 L 12.5151,-436.274 L 12.5884,-435.89 L 12.6129,-435.5 L 12.6129,-356.5 L 12.5884,-356.11 L 12.5151,-355.726
 L 12.3943,-355.354 L 12.2279,-355 L 12.0184,-354.67 L 11.7692,-354.369 L 11.4842,-354.101 L 11.168,-353.872
 L 10.8254,-353.683 L 10.4619,-353.539 L 10.0833,-353.442 L 9.69545,-353.393 z
M 10.9369,-252.089 L 11.5451,-252.245 L 12.1289,-252.476 L 12.6791,-252.778 L 13.1871,-253.147 L 13.6448,-253.577
 L 14.0451,-254.061 L 14.3815,-254.591 L 14.6489,-255.159 L 14.8429,-255.757 L 14.9606,-256.373 L 15,-257
 L 15,-337 L 14.9606,-337.627 L 14.8429,-338.243 L 14.6489,-338.841 L 14.3815,-339.409 L 14.0451,-339.939
 L 13.6448,-340.423 L 13.1871,-340.853 L 12.6791,-341.222 L 12.1289,-341.524 L 11.5451,-341.755 L 10.9369,-341.911
 L 10.3139,-341.99 L -10.3139,-341.99 L -10.9369,-341.911 L -11.5451,-341.755 L -12.1289,-341.524 L -12.6791,-341.222
 L -13.1871,-340.853 L -13.6448,-340.423 L -14.0451,-339.939 L -14.3815,-339.409 L -14.6489,-338.841 L -14.8429,-338.243
 L -14.9606,-337.627 L -15,-337 L -15,-257 L -14.9606,-256.373 L -14.8429,-255.757 L -14.6489,-255.159
 L -14.3815,-254.591 L -14.0451,-254.061 L -13.6448,-253.577 L -13.1871,-253.147 L -12.6791,-252.778 L -12.1289,-252.476
 L -11.5451,-252.245 L -10.9369,-252.089 L -10.3139,-252.01 L 10.3139,-252.01 z
M 7.36592,-332.369 L 7.09988,-332.403 L 6.84015,-332.469 L 6.59084,-332.568 L 6.35585,-332.697 L 6.1389,-332.855
 L 5.94344,-333.038 L 5.77251,-333.245 L 5.62881,-333.471 L 5.51465,-333.714 L 5.43178,-333.969 L 5.38153,-334.232
 L 5.3647,-334.5 L 5.38153,-334.768 L 5.43178,-335.031 L 5.51465,-335.286 L 5.62881,-335.529 L 5.77251,-335.755
 L 5.94344,-335.962 L 6.1389,-336.145 L 6.35585,-336.303 L 6.59084,-336.432 L 6.84015,-336.531 L 7.09988,-336.597
 L 7.36592,-336.631 L 7.63406,-336.631 L 7.9001,-336.597 L 8.15984,-336.531 L 8.40915,-336.432 L 8.64413,-336.303
 L 8.86108,-336.145 L 9.05655,-335.962 L 9.22748,-335.755 L 9.37117,-335.529 L 9.48534,-335.286 L 9.56821,-335.031
 L 9.61845,-334.768 L 9.63528,-334.5 L 9.61845,-334.232 L 9.56821,-333.969 L 9.48534,-333.714 L 9.37117,-333.471
 L 9.22748,-333.245 L 9.05655,-333.038 L 8.86108,-332.855 L 8.64413,-332.697 L 8.40915,-332.568 L 8.15984,-332.469
 L 7.9001,-332.403 L 7.63406,-332.369 z
M -7.63406,-332.369 L -7.9001,-332.403 L -8.15984,-332.469 L -8.40915,-332.568 L -8.64413,-332.697 L -8.86108,-332.855
 L -9.05655,-333.038 L -9.22748,-333.245 L -9.37117,-333.471 L -9.48534,-333.714 L -9.56821,-333.969 L -9.61845,-334.232
 L -9.63528,-334.5 L -9.61845,-334.768 L -9.56821,-335.031 L -9.48534,-335.286 L -9.37117,-335.529 L -9.22748,-335.755
 L -9.05655,-335.962 L -8.86108,-336.145 L -8.64413,-336.303 L -8.40915,-336.432 L -8.15984,-336.531 L -7.9001,-336.597
 L -7.63406,-336.631 L -7.36592,-336.631 L -7.09988,-336.597 L -6.84015,-336.531 L -6.59084,-336.432 L -6.35585,-336.303
 L -6.1389,-336.145 L -5.94344,-335.962 L -5.77251,-335.755 L -5.62881,-335.529 L -5.51465,-335.286 L -5.43178,-335.031
 L -5.38153,-334.768 L -5.3647,-334.5 L -5.38153,-334.232 L -5.43178,-333.969 L -5.51465,-333.714 L -5.62881,-333.471
 L -5.77251,-333.245 L -5.94344,-333.038 L -6.1389,-332.855 L -6.35585,-332.697 L -6.59084,-332.568 L -6.84015,-332.469
 L -7.09988,-332.403 L -7.36592,-332.369 z
M 7.36592,-257.369 L 7.09988,-257.403 L 6.84015,-257.469 L 6.59084,-257.568 L 6.35585,-257.697 L 6.1389,-257.855
 L 5.94344,-258.038 L 5.77251,-258.245 L 5.62881,-258.471 L 5.51465,-258.714 L 5.43178,-258.969 L 5.38153,-259.232
 L 5.3647,-259.5 L 5.38153,-259.768 L 5.43178,-260.031 L 5.51465,-260.286 L 5.62881,-260.529 L 5.77251,-260.755
 L 5.94344,-260.962 L 6.1389,-261.145 L 6.35585,-261.303 L 6.59084,-261.432 L 6.84015,-261.531 L 7.09988,-261.597
 L 7.36592,-261.631 L 7.63406,-261.631 L 7.9001,-261.597 L 8.15984,-261.531 L 8.40915,-261.432 L 8.64413,-261.303
 L 8.86108,-261.145 L 9.05655,-260.962 L 9.22748,-260.755 L 9.37117,-260.529 L 9.48534,-260.286 L 9.56821,-260.031
 L 9.61845,-259.768 L 9.63528,-259.5 L 9.61845,-259.232 L 9.56821,-258.969 L 9.48534,-258.714 L 9.37117,-258.471
 L 9.22748,-258.245 L 9.05655,-258.038 L 8.86108,-257.855 L 8.64413,-257.697 L 8.40915,-257.568 L 8.15984,-257.469
 L 7.9001,-257.403 L 7.63406,-257.369 z
M -7.63406,-257.369 L -7.9001,-257.403 L -8.15984,-257.469 L -8.40915,-257.568 L -8.64413,-257.697 L -8.86108,-257.855
 L -9.05655,-258.038 L -9.22748,-258.245 L -9.37117,-258.471 L -9.48534,-258.714 L -9.56821,-258.969 L -9.61845,-259.232
 L -9.63528,-259.5 L -9.61845,-259.768 L -9.56821,-260.031 L -9.48534,-260.286 L -9.37117,-260.529 L -9.22748,-260.755
 L -9.05655,-260.962 L -8.86108,-261.145 L -8.64413,-261.303 L -8.40915,-261.432 L -8.15984,-261.531 L -7.9001,-261.597
 L -7.63406,-261.631 L -7.36592,-261.631 L -7.09988,-261.597 L -6.84015,-261.531 L -6.59084,-261.432 L -6.35585,-261.303
 L -6.1389,-261.145 L -5.94344,-260.962 L -5.77251,-260.755 L -5.62881,-260.529 L -5.51465,-260.286 L -5.43178,-260.031
 L -5.38153,-259.768 L -5.3647,-259.5 L -5.38153,-259.232 L -5.43178,-258.969 L -5.51465,-258.714 L -5.62881,-258.471
 L -5.77251,-258.245 L -5.94344,-258.038 L -6.1389,-257.855 L -6.35585,-257.697 L -6.59084,-257.568 L -6.84015,-257.469
 L -7.09988,-257.403 L -7.36592,-257.369 z
" stroke="black" fill="lightgray" stroke-width="0.5"/>
</svg>
