<?xml version="1.0" standalone="no"?>
<!DOCTYPE svg PUBLIC "-//W3C//DTD SVG 1.1//EN" "http://www.w3.org/Graphics/SVG/1.1/DTD/svg11.dtd">
<svg width="16mm" height="189mm" viewBox="-8 -342 16 189" xmlns="http://www.w3.org/2000/svg" version="1.1">
<title>OpenSCAD Model</title>
<path d="
M 3.4369,-252.089 L 4.04507,-252.245 L 4.62889,-252.476 L 5.17912,-252.778 L 5.68712,-253.147 L 6.14484,-253.577
 L 6.54507,-254.061 L 6.88153,-254.591 L 7.14888,-255.159 L 7.34291,-255.757 L 7.46057,-256.373 L 7.5,-257
 L 7.5,-337 L 7.46057,-337.627 L 7.34291,-338.243 L 7.14888,-338.841 L 6.88153,-339.409 L 6.54507,-339.939
 L 6.14484,-340.423 L 5.68712,-340.853 L 5.17912,-341.222 L 4.62889,-341.524 L 4.04507,-341.755 L 3.4369,-341.911
 L 2.81395,-341.99 L -2.81395,-341.99 L -3.4369,-341.911 L -4.04507,-341.755 L -4.62889,-341.524 L -5.17912,-341.222
 L -5.68712,-340.853 L -6.14484,-340.423 L -6.54507,-339.939 L -6.88153,-339.409 L -7.14888,-338.841 L -7.34291,-338.243
 L -7.46057,-337.627 L -7.5,-337 L -7.5,-257 L -7.46057,-256.373 L -7.34291,-255.757 L -7.14888,-255.159
 L -6.88153,-254.591 L -6.54507,-254.061 L -6.14484,-253.577 L -5.68712,-253.147 L -5.17912,-252.778 L -4.62889,-252.476
 L -4.04507,-252.245 L -3.4369,-252.089 L -2.81395,-252.01 L 2.81395,-252.01 z
M -2.19545,-254.393 L -2.5833,-254.442 L -2.96194,-254.539 L -3.32541,-254.683 L -3.66798,-254.872 L -3.98424,-255.101
 L -4.26921,-255.369 L -4.5184,-255.67 L -4.72786,-256 L -4.89432,-256.354 L -5.01512,-256.726 L -5.08836,-257.11
 L -5.11292,-257.5 L -5.11292,-336.5 L -5.08836,-336.89 L -5.01512,-337.274 L -4.89432,-337.646 L -4.72786,-338
 L -4.5184,-338.33 L -4.26921,-338.631 L -3.98424,-338.899 L -3.66798,-339.128 L -3.32541,-339.317 L -2.96194,-339.461
 L -2.5833,-339.558 L -2.19545,-339.607 L 2.19545,-339.607 L 2.5833,-339.558 L 2.96194,-339.461 L 3.32541,-339.317
 L 3.66798,-339.128 L 3.98424,-338.899 L 4.26921,-338.631 L 4.5184,-338.33 L 4.72786,-338 L 4.89432,-337.646
 L 5.01512,-337.274 L 5.08836,-336.89 L 5.11292,-336.5 L 5.11292,-257.5 L 5.08836,-257.11 L 5.01512,-256.726
 L 4.89432,-256.354 L 4.72786,-256 L 4.5184,-255.67 L 4.26921,-255.369 L 3.98424,-255.101 L 3.66798,-254.872
 L 3.32541,-254.683 L 2.96194,-254.539 L 2.5833,-254.442 L 2.19545,-254.393 z
M 3.4369,-153.089 L 4.04507,-153.245 L 4.62889,-153.476 L 5.17912,-153.778 L 5.68712,-154.147 L 6.14484,-154.577
 L 6.54507,-155.061 L 6.88153,-155.591 L 7.14888,-156.159 L 7.34291,-156.757 L 7.46057,-157.373 L 7.5,-158
 L 7.5,-238 L 7.46057,-238.627 L 7.34291,-239.243 L 7.14888,-239.841 L 6.88153,-240.409 L 6.54507,-240.939
 L 6.14484,-241.423 L 5.68712,-241.853 L 5.17912,-242.222 L 4.62889,-242.524 L 4.04507,-242.755 L 3.4369,-242.911
 L 2.81395,-242.99 L -2.81395,-242.99 L -3.4369,-242.911 L -4.04507,-242.755 L -4.62889,-242.524 L -5.17912,-242.222
 L -5.68712,-241.853 L -6.14484,-241.423 L -6.54507,-240.939 L -6.88153,-240.409 L -7.14888,-239.841 L -7.34291,-239.243
 L -7.46057,-238.627 L -7.5,-238 L -7.5,-158 L -7.46057,-157.373 L -7.34291,-156.757 L -7.14888,-156.159
 L -6.88153,-155.591 L -6.54507,-155.061 L -6.14484,-154.577 L -5.68712,-154.147 L -5.17912,-153.778 L -4.62889,-153.476
 L -4.04507,-153.245 L -3.4369,-153.089 L -2.81395,-153.01 L 2.81395,-153.01 z
M -0.134064,-233.369 L -0.400101,-233.403 L -0.659836,-233.469 L -0.909149,-233.568 L -1.14413,-233.697 L -1.36108,-233.855
 L -1.55655,-234.038 L -1.72748,-234.245 L -1.87117,-234.471 L -1.98534,-234.714 L -2.06821,-234.969 L -2.11845,-235.232
 L -2.13528,-235.5 L -2.11845,-235.768 L -2.06821,-236.031 L -1.98534,-236.286 L -1.87117,-236.529 L -1.72748,-236.755
 L -1.55655,-236.962 L -1.36108,-237.145 L -1.14413,-237.303 L -0.909149,-237.432 L -0.659836,-237.531 L -0.400101,-237.597
 L -0.134064,-237.631 L 0.134064,-237.631 L 0.400101,-237.597 L 0.659836,-237.531 L 0.909149,-237.432 L 1.14413,-237.303
 L 1.36108,-237.145 L 1.55655,-236.962 L 1.72748,-236.755 L 1.87117,-236.529 L 1.98534,-236.286 L 2.06821,-236.031
 L 2.11845,-235.768 L 2.13528,-235.5 L 2.11845,-235.232 L 2.06821,-234.969 L 1.98534,-234.714 L 1.87117,-234.471
 L 1.72748,-234.245 L 1.55655,-234.038 L 1.36108,-233.855 L 1.14413,-233.697 L 0.909149,-233.568 L 0.659836,-233.469
 L 0.400101,-233.403 L 0.134064,-233.369 z
M -0.134064,-158.369 L -0.400101,-158.403 L -0.659836,-158.469 L -0.909149,-158.568 L -1.14413,-158.697 L -1.36108,-158.855
 L -1.55655,-159.038 L -1.72748,-159.245 L -1.87117,-159.471 L -1.98534,-159.714 L -2.06821,-159.969 L -2.11845,-160.232
 L -2.13528,-160.5 L -2.11845,-160.768 L -2.06821,-161.031 L -1.98534,-161.286 L -1.87117,-161.529 L -1.72748,-161.755
 L -1.55655,-161.962 L -1.36108,-162.145 L -1.14413,-162.303 L -0.909149,-162.432 L -0.659836,-162.531 L -0.400101,-162.597
 L -0.134064,-162.631 L 0.134064,-162.631 L 0.400101,-162.597 L 0.659836,-162.531 L 0.909149,-162.432 L 1.14413,-162.303
 L 1.36108,-162.145 L 1.55655,-161.962 L 1.72748,-161.755 L 1.87117,-161.529 L 1.98534,-161.286 L 2.06821,-161.031
 L 2.11845,-160.768 L 2.13528,-160.5 L 2.11845,-160.232 L 2.06821,-159.969 L 1.98534,-159.714 L 1.87117,-159.471
 L 1.72748,-159.245 L 1.55655,-159.038 L 1.36108,-158.855 L 1.14413,-158.697 L 0.909149,-158.568 L 0.659836,-158.469
 L 0.400101,-158.403 L 0.134064,-158.369 z
" stroke="black" fill="lightgray" stroke-width="0.5"/>
</svg>
