<?xml version="1.0" standalone="no"?>
<!DOCTYPE svg PUBLIC "-//W3C//DTD SVG 1.1//EN" "http://www.w3.org/Graphics/SVG/1.1/DTD/svg11.dtd">
<svg width="180mm" height="112mm" viewBox="-90 -224 180 112" xmlns="http://www.w3.org/2000/svg" version="1.1">
<title>OpenSCAD Model</title>
<path d="
M 85.9369,-208.589 L 86.5451,-208.745 L 87.1289,-208.976 L 87.6791,-209.278 L 88.1871,-209.647 L 88.6448,-210.077
 L 89.0451,-210.561 L 89.3815,-211.091 L 89.6489,-211.659 L 89.8429,-212.257 L 89.9606,-212.873 L 90,-213.5
 L 90,-218.5 L 89.9606,-219.127 L 89.8429,-219.743 L 89.6489,-220.341 L 89.3815,-220.909 L 89.0451,-221.439
 L 88.6448,-221.923 L 88.1871,-222.353 L 87.6791,-222.722 L 87.1289,-223.024 L 86.5451,-223.255 L 85.9369,-223.411
 L 85.3139,-223.49 L -85.3139,-223.49 L -85.9369,-223.411 L -86.5451,-223.255 L -87.1289,-223.024 L -87.6791,-222.722
 L -88.1871,-222.353 L -88.6448,-221.923 L -89.0451,-221.439 L -89.3815,-220.909 L -89.6489,-220.341 L -89.8429,-219.743
 L -89.9606,-219.127 L -90,-218.5 L -90,-213.5 L -89.9606,-212.873 L -89.8429,-212.257 L -89.6489,-211.659
 L -89.3815,-211.091 L -89.0451,-210.561 L -88.6448,-210.077 L -88.1871,-209.647 L -87.6791,-209.278 L -87.1289,-208.976
 L -86.5451,-208.745 L -85.9369,-208.589 L -85.3139,-208.51 L 85.3139,-208.51 z
M -85.0482,-209.009 L -85.6401,-209.084 L -86.2178,-209.232 L -86.7724,-209.452 L -87.2952,-209.739 L -87.7778,-210.09
 L -88.2126,-210.498 L -88.5928,-210.958 L -88.9125,-211.462 L -89.1664,-212.001 L -89.3508,-212.569 L -89.4625,-213.155
 L -89.5,-213.75 L -89.5,-218.25 L -89.4625,-218.845 L -89.3508,-219.431 L -89.1664,-219.999 L -88.9125,-220.538
 L -88.5928,-221.042 L -88.2126,-221.502 L -87.7778,-221.91 L -87.2952,-222.261 L -86.7724,-222.548 L -86.2178,-222.768
 L -85.6401,-222.916 L -85.0482,-222.991 L 85.0482,-222.991 L 85.6401,-222.916 L 86.2178,-222.768 L 86.7724,-222.548
 L 87.2952,-222.261 L 87.7778,-221.91 L 88.2126,-221.502 L 88.5928,-221.042 L 88.9125,-220.538 L 89.1664,-219.999
 L 89.3508,-219.431 L 89.4625,-218.845 L 89.5,-218.25 L 89.5,-213.75 L 89.4625,-213.155 L 89.3508,-212.569
 L 89.1664,-212.001 L 88.9125,-211.462 L 88.5928,-210.958 L 88.2126,-210.498 L 87.7778,-210.09 L 87.2952,-209.739
 L 86.7724,-209.452 L 86.2178,-209.232 L 85.6401,-209.084 L 85.0482,-209.009 z
M 85.9369,-184.589 L 86.5451,-184.745 L 87.1289,-184.976 L 87.6791,-185.278 L 88.1871,-185.647 L 88.6448,-186.077
 L 89.0451,-186.561 L 89.3815,-187.091 L 89.6489,-187.659 L 89.8429,-188.257 L 89.9606,-188.873 L 90,-189.5
 L 90,-194.5 L 89.9606,-195.127 L 89.8429,-195.743 L 89.6489,-196.341 L 89.3815,-196.909 L 89.0451,-197.439
 L 88.6448,-197.923 L 88.1871,-198.353 L 87.6791,-198.722 L 87.1289,-199.024 L 86.5451,-199.255 L 85.9369,-199.411
 L 85.3139,-199.49 L -85.3139,-199.49 L -85.9369,-199.411 L -86.5451,-199.255 L -87.1289,-199.024 L -87.6791,-198.722
 L -88.1871,-198.353 L -88.6448,-197.923 L -89.0451,-197.439 L -89.3815,-196.909 L -89.6489,-196.341 L -89.8429,-195.743
 L -89.9606,-195.127 L -90,-194.5 L -90,-189.5 L -89.9606,-188.873 L -89.8429,-188.257 L -89.6489,-187.659
 L -89.3815,-187.091 L -89.0451,-186.561 L -88.6448,-186.077 L -88.1871,-185.647 L -87.6791,-185.278 L -87.1289,-184.976
 L -86.5451,-184.745 L -85.9369,-184.589 L -85.3139,-184.51 L 85.3139,-184.51 z
M -85.0482,-185.009 L -85.6401,-185.084 L -86.2178,-185.232 L -86.7724,-185.452 L -87.2952,-185.739 L -87.7778,-186.09
 L -88.2126,-186.498 L -88.5928,-186.958 L -88.9125,-187.462 L -89.1664,-188.001 L -89.3508,-188.569 L -89.4625,-189.155
 L -89.5,-189.75 L -89.5,-194.25 L -89.4625,-194.845 L -89.3508,-195.431 L -89.1664,-195.999 L -88.9125,-196.538
 L -88.5928,-197.042 L -88.2126,-197.502 L -87.7778,-197.91 L -87.2952,-198.261 L -86.7724,-198.548 L -86.2178,-198.768
 L -85.6401,-198.916 L -85.0482,-198.991 L 85.0482,-198.991 L 85.6401,-198.916 L 86.2178,-198.768 L 86.7724,-198.548
 L 87.2952,-198.261 L 87.7778,-197.91 L 88.2126,-197.502 L 88.5928,-197.042 L 88.9125,-196.538 L 89.1664,-195.999
 L 89.3508,-195.431 L 89.4625,-194.845 L 89.5,-194.25 L 89.5,-189.75 L 89.4625,-189.155 L 89.3508,-188.569
 L 89.1664,-188.001 L 88.9125,-187.462 L 88.5928,-186.958 L 88.2126,-186.498 L 87.7778,-186.09 L 87.2952,-185.739
 L 86.7724,-185.452 L 86.2178,-185.232 L 85.6401,-185.084 L 85.0482,-185.009 z
M 85.9369,-160.589 L 86.5451,-160.745 L 87.1289,-160.976 L 87.6791,-161.278 L 88.1871,-161.647 L 88.6448,-162.077
 L 89.0451,-162.561 L 89.3815,-163.091 L 89.6489,-163.659 L 89.8429,-164.257 L 89.9606,-164.873 L 90,-165.5
 L 90,-170.5 L 89.9606,-171.127 L 89.8429,-171.743 L 89.6489,-172.341 L 89.3815,-172.909 L 89.0451,-173.439
 L 88.6448,-173.923 L 88.1871,-174.353 L 87.6791,-174.722 L 87.1289,-175.024 L 86.5451,-175.255 L 85.9369,-175.411
 L 85.3139,-175.49 L -85.3139,-175.49 L -85.9369,-175.411 L -86.5451,-175.255 L -87.1289,-175.024 L -87.6791,-174.722
 L -88.1871,-174.353 L -88.6448,-173.923 L -89.0451,-173.439 L -89.3815,-172.909 L -89.6489,-172.341 L -89.8429,-171.743
 L -89.9606,-171.127 L -90,-170.5 L -90,-165.5 L -89.9606,-164.873 L -89.8429,-164.257 L -89.6489,-163.659
 L -89.3815,-163.091 L -89.0451,-162.561 L -88.6448,-162.077 L -88.1871,-161.647 L -87.6791,-161.278 L -87.1289,-160.976
 L -86.5451,-160.745 L -85.9369,-160.589 L -85.3139,-160.51 L 85.3139,-160.51 z
M -85.0482,-161.009 L -85.6401,-161.084 L -86.2178,-161.232 L -86.7724,-161.452 L -87.2952,-161.739 L -87.7778,-162.09
 L -88.2126,-162.498 L -88.5928,-162.958 L -88.9125,-163.462 L -89.1664,-164.001 L -89.3508,-164.569 L -89.4625,-165.155
 L -89.5,-165.75 L -89.5,-170.25 L -89.4625,-170.845 L -89.3508,-171.431 L -89.1664,-171.999 L -88.9125,-172.538
 L -88.5928,-173.042 L -88.2126,-173.502 L -87.7778,-173.91 L -87.2952,-174.261 L -86.7724,-174.548 L -86.2178,-174.768
 L -85.6401,-174.916 L -85.0482,-174.991 L 85.0482,-174.991 L 85.6401,-174.916 L 86.2178,-174.768 L 86.7724,-174.548
 L 87.2952,-174.261 L 87.7778,-173.91 L 88.2126,-173.502 L 88.5928,-173.042 L 88.9125,-172.538 L 89.1664,-171.999
 L 89.3508,-171.431 L 89.4625,-170.845 L 89.5,-170.25 L 89.5,-165.75 L 89.4625,-165.155 L 89.3508,-164.569
 L 89.1664,-164.001 L 88.9125,-163.462 L 88.5928,-162.958 L 88.2126,-162.498 L 87.7778,-162.09 L 87.2952,-161.739
 L 86.7724,-161.452 L 86.2178,-161.232 L 85.6401,-161.084 L 85.0482,-161.009 z
M 85.9369,-136.589 L 86.5451,-136.745 L 87.1289,-136.976 L 87.6791,-137.278 L 88.1871,-137.647 L 88.6448,-138.077
 L 89.0451,-138.561 L 89.3815,-139.091 L 89.6489,-139.659 L 89.8429,-140.257 L 89.9606,-140.873 L 90,-141.5
 L 90,-146.5 L 89.9606,-147.127 L 89.8429,-147.743 L 89.6489,-148.341 L 89.3815,-148.909 L 89.0451,-149.439
 L 88.6448,-149.923 L 88.1871,-150.353 L 87.6791,-150.722 L 87.1289,-151.024 L 86.5451,-151.255 L 85.9369,-151.411
 L 85.3139,-151.49 L -85.3139,-151.49 L -85.9369,-151.411 L -86.5451,-151.255 L -87.1289,-151.024 L -87.6791,-150.722
 L -88.1871,-150.353 L -88.6448,-149.923 L -89.0451,-149.439 L -89.3815,-148.909 L -89.6489,-148.341 L -89.8429,-147.743
 L -89.9606,-147.127 L -90,-146.5 L -90,-141.5 L -89.9606,-140.873 L -89.8429,-140.257 L -89.6489,-139.659
 L -89.3815,-139.091 L -89.0451,-138.561 L -88.6448,-138.077 L -88.1871,-137.647 L -87.6791,-137.278 L -87.1289,-136.976
 L -86.5451,-136.745 L -85.9369,-136.589 L -85.3139,-136.51 L 85.3139,-136.51 z
M -85.0375,-137.181 L -85.6079,-137.253 L -86.1648,-137.396 L -86.6994,-137.607 L -87.2032,-137.884 L -87.6684,-138.222
 L -88.0875,-138.616 L -88.454,-139.059 L -88.7621,-139.544 L -89.0069,-140.065 L -89.1846,-140.611 L -89.2923,-141.176
 L -89.3284,-141.75 L -89.3284,-146.25 L -89.2923,-146.824 L -89.1846,-147.389 L -89.0069,-147.935 L -88.7621,-148.456
 L -88.454,-148.941 L -88.0875,-149.384 L -87.6684,-149.778 L -87.2032,-150.116 L -86.6994,-150.393 L -86.1648,-150.604
 L -85.6079,-150.747 L -85.0375,-150.819 L 85.0375,-150.819 L 85.6079,-150.747 L 86.1648,-150.604 L 86.6994,-150.393
 L 87.2032,-150.116 L 87.6684,-149.778 L 88.0875,-149.384 L 88.454,-148.941 L 88.7621,-148.456 L 89.0069,-147.935
 L 89.1846,-147.389 L 89.2923,-146.824 L 89.3284,-146.25 L 89.3284,-141.75 L 89.2923,-141.176 L 89.1846,-140.611
 L 89.0069,-140.065 L 88.7621,-139.544 L 88.454,-139.059 L 88.0875,-138.616 L 87.6684,-138.222 L 87.2032,-137.884
 L 86.6994,-137.607 L 86.1648,-137.396 L 85.6079,-137.253 L 85.0375,-137.181 z
M 85.9369,-112.589 L 86.5451,-112.745 L 87.1289,-112.976 L 87.6791,-113.278 L 88.1871,-113.647 L 88.6448,-114.077
 L 89.0451,-114.561 L 89.3815,-115.091 L 89.6489,-115.659 L 89.8429,-116.257 L 89.9606,-116.873 L 90,-117.5
 L 90,-122.5 L 89.9606,-123.127 L 89.8429,-123.743 L 89.6489,-124.341 L 89.3815,-124.909 L 89.0451,-125.439
 L 88.6448,-125.923 L 88.1871,-126.353 L 87.6791,-126.722 L 87.1289,-127.024 L 86.5451,-127.255 L 85.9369,-127.411
 L 85.3139,-127.49 L -85.3139,-127.49 L -85.9369,-127.411 L -86.5451,-127.255 L -87.1289,-127.024 L -87.6791,-126.722
 L -88.1871,-126.353 L -88.6448,-125.923 L -89.0451,-125.439 L -89.3815,-124.909 L -89.6489,-124.341 L -89.8429,-123.743
 L -89.9606,-123.127 L -90,-122.5 L -90,-117.5 L -89.9606,-116.873 L -89.8429,-116.257 L -89.6489,-115.659
 L -89.3815,-115.091 L -89.0451,-114.561 L -88.6448,-114.077 L -88.1871,-113.647 L -87.6791,-113.278 L -87.1289,-112.976
 L -86.5451,-112.745 L -85.9369,-112.589 L -85.3139,-112.51 L 85.3139,-112.51 z
M -84.8825,-115.645 L -85.1453,-115.678 L -85.4019,-115.744 L -85.6482,-115.841 L -85.8804,-115.969 L -86.0947,-116.125
 L -86.2879,-116.306 L -86.4567,-116.51 L -86.5987,-116.734 L -86.7115,-116.973 L -86.7934,-117.225 L -86.843,-117.486
 L -86.8596,-117.75 L -86.8596,-122.25 L -86.843,-122.514 L -86.7934,-122.775 L -86.7115,-123.027 L -86.5987,-123.266
 L -86.4567,-123.49 L -86.2879,-123.694 L -86.0947,-123.875 L -85.8804,-124.031 L -85.6482,-124.159 L -85.4019,-124.256
 L -85.1453,-124.322 L -84.8825,-124.355 L 84.8825,-124.355 L 85.1453,-124.322 L 85.4019,-124.256 L 85.6482,-124.159
 L 85.8804,-124.031 L 86.0947,-123.875 L 86.2879,-123.694 L 86.4567,-123.49 L 86.5987,-123.266 L 86.7115,-123.027
 L 86.7934,-122.775 L 86.843,-122.514 L 86.8596,-122.25 L 86.8596,-117.75 L 86.843,-117.486 L 86.7934,-117.225
 L 86.7115,-116.973 L 86.5987,-116.734 L 86.4567,-116.51 L 86.2879,-116.306 L 86.0947,-116.125 L 85.8804,-115.969
 L 85.6482,-115.841 L 85.4019,-115.744 L 85.1453,-115.678 L 84.8825,-115.645 z
" stroke="black" fill="lightgray" stroke-width="0.5"/>
</svg>
