  0
SECTION
  2
BLOCKS
  0
ENDSEC
  0
SECTION
  2
ENTITIES
  0
LINE
  8
0
 10
3.4369
 20
208.589
 11
4.04507
 21
208.745
  0
LINE
  8
0
 10
4.04507
 20
208.745
 11
4.62889
 21
208.976
  0
LINE
  8
0
 10
4.62889
 20
208.976
 11
5.17912
 21
209.278
  0
LINE
  8
0
 10
5.17912
 20
209.278
 11
5.68712
 21
209.647
  0
LINE
  8
0
 10
5.68712
 20
209.647
 11
6.14484
 21
210.077
  0
LINE
  8
0
 10
6.14484
 20
210.077
 11
6.54507
 21
210.561
  0
LINE
  8
0
 10
6.54507
 20
210.561
 11
6.88153
 21
211.091
  0
LINE
  8
0
 10
6.88153
 20
211.091
 11
7.14888
 21
211.659
  0
LINE
  8
0
 10
7.14888
 20
211.659
 11
7.34291
 21
212.257
  0
LINE
  8
0
 10
7.34291
 20
212.257
 11
7.46057
 21
212.873
  0
LINE
  8
0
 10
7.46057
 20
212.873
 11
7.5
 21
213.5
  0
LINE
  8
0
 10
7.5
 20
213.5
 11
7.5
 21
218.5
  0
LINE
  8
0
 10
7.5
 20
218.5
 11
7.46057
 21
219.127
  0
LINE
  8
0
 10
7.46057
 20
219.127
 11
7.34291
 21
219.743
  0
LINE
  8
0
 10
7.34291
 20
219.743
 11
7.14888
 21
220.341
  0
LINE
  8
0
 10
7.14888
 20
220.341
 11
6.88153
 21
220.909
  0
LINE
  8
0
 10
6.88153
 20
220.909
 11
6.54507
 21
221.439
  0
LINE
  8
0
 10
6.54507
 20
221.439
 11
6.14484
 21
221.923
  0
LINE
  8
0
 10
6.14484
 20
221.923
 11
5.68712
 21
222.353
  0
LINE
  8
0
 10
5.68712
 20
222.353
 11
5.17912
 21
222.722
  0
LINE
  8
0
 10
5.17912
 20
222.722
 11
4.62889
 21
223.024
  0
LINE
  8
0
 10
4.62889
 20
223.024
 11
4.04507
 21
223.255
  0
LINE
  8
0
 10
4.04507
 20
223.255
 11
3.4369
 21
223.411
  0
LINE
  8
0
 10
3.4369
 20
223.411
 11
2.81395
 21
223.49
  0
LINE
  8
0
 10
2.81395
 20
223.49
 11
-2.81395
 21
223.49
  0
LINE
  8
0
 10
-2.81395
 20
223.49
 11
-3.4369
 21
223.411
  0
LINE
  8
0
 10
-3.4369
 20
223.411
 11
-4.04507
 21
223.255
  0
LINE
  8
0
 10
-4.04507
 20
223.255
 11
-4.62889
 21
223.024
  0
LINE
  8
0
 10
-4.62889
 20
223.024
 11
-5.17912
 21
222.722
  0
LINE
  8
0
 10
-5.17912
 20
222.722
 11
-5.68712
 21
222.353
  0
LINE
  8
0
 10
-5.68712
 20
222.353
 11
-6.14484
 21
221.923
  0
LINE
  8
0
 10
-6.14484
 20
221.923
 11
-6.54507
 21
221.439
  0
LINE
  8
0
 10
-6.54507
 20
221.439
 11
-6.88153
 21
220.909
  0
LINE
  8
0
 10
-6.88153
 20
220.909
 11
-7.14888
 21
220.341
  0
LINE
  8
0
 10
-7.14888
 20
220.341
 11
-7.34291
 21
219.743
  0
LINE
  8
0
 10
-7.34291
 20
219.743
 11
-7.46057
 21
219.127
  0
LINE
  8
0
 10
-7.46057
 20
219.127
 11
-7.5
 21
218.5
  0
LINE
  8
0
 10
-7.5
 20
218.5
 11
-7.5
 21
213.5
  0
LINE
  8
0
 10
-7.5
 20
213.5
 11
-7.46057
 21
212.873
  0
LINE
  8
0
 10
-7.46057
 20
212.873
 11
-7.34291
 21
212.257
  0
LINE
  8
0
 10
-7.34291
 20
212.257
 11
-7.14888
 21
211.659
  0
LINE
  8
0
 10
-7.14888
 20
211.659
 11
-6.88153
 21
211.091
  0
LINE
  8
0
 10
-6.88153
 20
211.091
 11
-6.54507
 21
210.561
  0
LINE
  8
0
 10
-6.54507
 20
210.561
 11
-6.14484
 21
210.077
  0
LINE
  8
0
 10
-6.14484
 20
210.077
 11
-5.68712
 21
209.647
  0
LINE
  8
0
 10
-5.68712
 20
209.647
 11
-5.17912
 21
209.278
  0
LINE
  8
0
 10
-5.17912
 20
209.278
 11
-4.62889
 21
208.976
  0
LINE
  8
0
 10
-4.62889
 20
208.976
 11
-4.04507
 21
208.745
  0
LINE
  8
0
 10
-4.04507
 20
208.745
 11
-3.4369
 21
208.589
  0
LINE
  8
0
 10
-3.4369
 20
208.589
 11
-2.81395
 21
208.51
  0
LINE
  8
0
 10
-2.81395
 20
208.51
 11
2.81395
 21
208.51
  0
LINE
  8
0
 10
2.81395
 20
208.51
 11
3.4369
 21
208.589
  0
LINE
  8
0
 10
-2.54825
 20
209.009
 11
-3.14006
 21
209.084
  0
LINE
  8
0
 10
-3.14006
 20
209.084
 11
-3.71782
 21
209.232
  0
LINE
  8
0
 10
-3.71782
 20
209.232
 11
-4.27245
 21
209.452
  0
LINE
  8
0
 10
-4.27245
 20
209.452
 11
-4.79517
 21
209.739
  0
LINE
  8
0
 10
-4.79517
 20
209.739
 11
-5.27776
 21
210.09
  0
LINE
  8
0
 10
-5.27776
 20
210.09
 11
-5.7126
 21
210.498
  0
LINE
  8
0
 10
-5.7126
 20
210.498
 11
-6.09282
 21
210.958
  0
LINE
  8
0
 10
-6.09282
 20
210.958
 11
-6.41245
 21
211.462
  0
LINE
  8
0
 10
-6.41245
 20
211.462
 11
-6.66643
 21
212.001
  0
LINE
  8
0
 10
-6.66643
 20
212.001
 11
-6.85077
 21
212.569
  0
LINE
  8
0
 10
-6.85077
 20
212.569
 11
-6.96254
 21
213.155
  0
LINE
  8
0
 10
-6.96254
 20
213.155
 11
-7
 21
213.75
  0
LINE
  8
0
 10
-7
 20
213.75
 11
-7
 21
218.25
  0
LINE
  8
0
 10
-7
 20
218.25
 11
-6.96254
 21
218.845
  0
LINE
  8
0
 10
-6.96254
 20
218.845
 11
-6.85077
 21
219.431
  0
LINE
  8
0
 10
-6.85077
 20
219.431
 11
-6.66643
 21
219.999
  0
LINE
  8
0
 10
-6.66643
 20
219.999
 11
-6.41245
 21
220.538
  0
LINE
  8
0
 10
-6.41245
 20
220.538
 11
-6.09282
 21
221.042
  0
LINE
  8
0
 10
-6.09282
 20
221.042
 11
-5.7126
 21
221.502
  0
LINE
  8
0
 10
-5.7126
 20
221.502
 11
-5.27776
 21
221.91
  0
LINE
  8
0
 10
-5.27776
 20
221.91
 11
-4.79517
 21
222.261
  0
LINE
  8
0
 10
-4.79517
 20
222.261
 11
-4.27245
 21
222.548
  0
LINE
  8
0
 10
-4.27245
 20
222.548
 11
-3.71782
 21
222.768
  0
LINE
  8
0
 10
-3.71782
 20
222.768
 11
-3.14006
 21
222.916
  0
LINE
  8
0
 10
-3.14006
 20
222.916
 11
-2.54825
 21
222.991
  0
LINE
  8
0
 10
-2.54825
 20
222.991
 11
2.54825
 21
222.991
  0
LINE
  8
0
 10
2.54825
 20
222.991
 11
3.14006
 21
222.916
  0
LINE
  8
0
 10
3.14006
 20
222.916
 11
3.71782
 21
222.768
  0
LINE
  8
0
 10
3.71782
 20
222.768
 11
4.27245
 21
222.548
  0
LINE
  8
0
 10
4.27245
 20
222.548
 11
4.79517
 21
222.261
  0
LINE
  8
0
 10
4.79517
 20
222.261
 11
5.27776
 21
221.91
  0
LINE
  8
0
 10
5.27776
 20
221.91
 11
5.7126
 21
221.502
  0
LINE
  8
0
 10
5.7126
 20
221.502
 11
6.09282
 21
221.042
  0
LINE
  8
0
 10
6.09282
 20
221.042
 11
6.41245
 21
220.538
  0
LINE
  8
0
 10
6.41245
 20
220.538
 11
6.66643
 21
219.999
  0
LINE
  8
0
 10
6.66643
 20
219.999
 11
6.85077
 21
219.431
  0
LINE
  8
0
 10
6.85077
 20
219.431
 11
6.96254
 21
218.845
  0
LINE
  8
0
 10
6.96254
 20
218.845
 11
7
 21
218.25
  0
LINE
  8
0
 10
7
 20
218.25
 11
7
 21
213.75
  0
LINE
  8
0
 10
7
 20
213.75
 11
6.96254
 21
213.155
  0
LINE
  8
0
 10
6.96254
 20
213.155
 11
6.85077
 21
212.569
  0
LINE
  8
0
 10
6.85077
 20
212.569
 11
6.66643
 21
212.001
  0
LINE
  8
0
 10
6.66643
 20
212.001
 11
6.41245
 21
211.462
  0
LINE
  8
0
 10
6.41245
 20
211.462
 11
6.09282
 21
210.958
  0
LINE
  8
0
 10
6.09282
 20
210.958
 11
5.7126
 21
210.498
  0
LINE
  8
0
 10
5.7126
 20
210.498
 11
5.27776
 21
210.09
  0
LINE
  8
0
 10
5.27776
 20
210.09
 11
4.79517
 21
209.739
  0
LINE
  8
0
 10
4.79517
 20
209.739
 11
4.27245
 21
209.452
  0
LINE
  8
0
 10
4.27245
 20
209.452
 11
3.71782
 21
209.232
  0
LINE
  8
0
 10
3.71782
 20
209.232
 11
3.14006
 21
209.084
  0
LINE
  8
0
 10
3.14006
 20
209.084
 11
2.54825
 21
209.009
  0
LINE
  8
0
 10
2.54825
 20
209.009
 11
-2.54825
 21
209.009
  0
LINE
  8
0
 10
3.4369
 20
184.589
 11
4.04507
 21
184.745
  0
LINE
  8
0
 10
4.04507
 20
184.745
 11
4.62889
 21
184.976
  0
LINE
  8
0
 10
4.62889
 20
184.976
 11
5.17912
 21
185.278
  0
LINE
  8
0
 10
5.17912
 20
185.278
 11
5.68712
 21
185.647
  0
LINE
  8
0
 10
5.68712
 20
185.647
 11
6.14484
 21
186.077
  0
LINE
  8
0
 10
6.14484
 20
186.077
 11
6.54507
 21
186.561
  0
LINE
  8
0
 10
6.54507
 20
186.561
 11
6.88153
 21
187.091
  0
LINE
  8
0
 10
6.88153
 20
187.091
 11
7.14888
 21
187.659
  0
LINE
  8
0
 10
7.14888
 20
187.659
 11
7.34291
 21
188.257
  0
LINE
  8
0
 10
7.34291
 20
188.257
 11
7.46057
 21
188.873
  0
LINE
  8
0
 10
7.46057
 20
188.873
 11
7.5
 21
189.5
  0
LINE
  8
0
 10
7.5
 20
189.5
 11
7.5
 21
194.5
  0
LINE
  8
0
 10
7.5
 20
194.5
 11
7.46057
 21
195.127
  0
LINE
  8
0
 10
7.46057
 20
195.127
 11
7.34291
 21
195.743
  0
LINE
  8
0
 10
7.34291
 20
195.743
 11
7.14888
 21
196.341
  0
LINE
  8
0
 10
7.14888
 20
196.341
 11
6.88153
 21
196.909
  0
LINE
  8
0
 10
6.88153
 20
196.909
 11
6.54507
 21
197.439
  0
LINE
  8
0
 10
6.54507
 20
197.439
 11
6.14484
 21
197.923
  0
LINE
  8
0
 10
6.14484
 20
197.923
 11
5.68712
 21
198.353
  0
LINE
  8
0
 10
5.68712
 20
198.353
 11
5.17912
 21
198.722
  0
LINE
  8
0
 10
5.17912
 20
198.722
 11
4.62889
 21
199.024
  0
LINE
  8
0
 10
4.62889
 20
199.024
 11
4.04507
 21
199.255
  0
LINE
  8
0
 10
4.04507
 20
199.255
 11
3.4369
 21
199.411
  0
LINE
  8
0
 10
3.4369
 20
199.411
 11
2.81395
 21
199.49
  0
LINE
  8
0
 10
2.81395
 20
199.49
 11
-2.81395
 21
199.49
  0
LINE
  8
0
 10
-2.81395
 20
199.49
 11
-3.4369
 21
199.411
  0
LINE
  8
0
 10
-3.4369
 20
199.411
 11
-4.04507
 21
199.255
  0
LINE
  8
0
 10
-4.04507
 20
199.255
 11
-4.62889
 21
199.024
  0
LINE
  8
0
 10
-4.62889
 20
199.024
 11
-5.17912
 21
198.722
  0
LINE
  8
0
 10
-5.17912
 20
198.722
 11
-5.68712
 21
198.353
  0
LINE
  8
0
 10
-5.68712
 20
198.353
 11
-6.14484
 21
197.923
  0
LINE
  8
0
 10
-6.14484
 20
197.923
 11
-6.54507
 21
197.439
  0
LINE
  8
0
 10
-6.54507
 20
197.439
 11
-6.88153
 21
196.909
  0
LINE
  8
0
 10
-6.88153
 20
196.909
 11
-7.14888
 21
196.341
  0
LINE
  8
0
 10
-7.14888
 20
196.341
 11
-7.34291
 21
195.743
  0
LINE
  8
0
 10
-7.34291
 20
195.743
 11
-7.46057
 21
195.127
  0
LINE
  8
0
 10
-7.46057
 20
195.127
 11
-7.5
 21
194.5
  0
LINE
  8
0
 10
-7.5
 20
194.5
 11
-7.5
 21
189.5
  0
LINE
  8
0
 10
-7.5
 20
189.5
 11
-7.46057
 21
188.873
  0
LINE
  8
0
 10
-7.46057
 20
188.873
 11
-7.34291
 21
188.257
  0
LINE
  8
0
 10
-7.34291
 20
188.257
 11
-7.14888
 21
187.659
  0
LINE
  8
0
 10
-7.14888
 20
187.659
 11
-6.88153
 21
187.091
  0
LINE
  8
0
 10
-6.88153
 20
187.091
 11
-6.54507
 21
186.561
  0
LINE
  8
0
 10
-6.54507
 20
186.561
 11
-6.14484
 21
186.077
  0
LINE
  8
0
 10
-6.14484
 20
186.077
 11
-5.68712
 21
185.647
  0
LINE
  8
0
 10
-5.68712
 20
185.647
 11
-5.17912
 21
185.278
  0
LINE
  8
0
 10
-5.17912
 20
185.278
 11
-4.62889
 21
184.976
  0
LINE
  8
0
 10
-4.62889
 20
184.976
 11
-4.04507
 21
184.745
  0
LINE
  8
0
 10
-4.04507
 20
184.745
 11
-3.4369
 21
184.589
  0
LINE
  8
0
 10
-3.4369
 20
184.589
 11
-2.81395
 21
184.51
  0
LINE
  8
0
 10
-2.81395
 20
184.51
 11
2.81395
 21
184.51
  0
LINE
  8
0
 10
2.81395
 20
184.51
 11
3.4369
 21
184.589
  0
LINE
  8
0
 10
-2.54825
 20
185.009
 11
-3.14006
 21
185.084
  0
LINE
  8
0
 10
-3.14006
 20
185.084
 11
-3.71782
 21
185.232
  0
LINE
  8
0
 10
-3.71782
 20
185.232
 11
-4.27245
 21
185.452
  0
LINE
  8
0
 10
-4.27245
 20
185.452
 11
-4.79517
 21
185.739
  0
LINE
  8
0
 10
-4.79517
 20
185.739
 11
-5.27776
 21
186.09
  0
LINE
  8
0
 10
-5.27776
 20
186.09
 11
-5.7126
 21
186.498
  0
LINE
  8
0
 10
-5.7126
 20
186.498
 11
-6.09282
 21
186.958
  0
LINE
  8
0
 10
-6.09282
 20
186.958
 11
-6.41245
 21
187.462
  0
LINE
  8
0
 10
-6.41245
 20
187.462
 11
-6.66643
 21
188.001
  0
LINE
  8
0
 10
-6.66643
 20
188.001
 11
-6.85077
 21
188.569
  0
LINE
  8
0
 10
-6.85077
 20
188.569
 11
-6.96254
 21
189.155
  0
LINE
  8
0
 10
-6.96254
 20
189.155
 11
-7
 21
189.75
  0
LINE
  8
0
 10
-7
 20
189.75
 11
-7
 21
194.25
  0
LINE
  8
0
 10
-7
 20
194.25
 11
-6.96254
 21
194.845
  0
LINE
  8
0
 10
-6.96254
 20
194.845
 11
-6.85077
 21
195.431
  0
LINE
  8
0
 10
-6.85077
 20
195.431
 11
-6.66643
 21
195.999
  0
LINE
  8
0
 10
-6.66643
 20
195.999
 11
-6.41245
 21
196.538
  0
LINE
  8
0
 10
-6.41245
 20
196.538
 11
-6.09282
 21
197.042
  0
LINE
  8
0
 10
-6.09282
 20
197.042
 11
-5.7126
 21
197.502
  0
LINE
  8
0
 10
-5.7126
 20
197.502
 11
-5.27776
 21
197.91
  0
LINE
  8
0
 10
-5.27776
 20
197.91
 11
-4.79517
 21
198.261
  0
LINE
  8
0
 10
-4.79517
 20
198.261
 11
-4.27245
 21
198.548
  0
LINE
  8
0
 10
-4.27245
 20
198.548
 11
-3.71782
 21
198.768
  0
LINE
  8
0
 10
-3.71782
 20
198.768
 11
-3.14006
 21
198.916
  0
LINE
  8
0
 10
-3.14006
 20
198.916
 11
-2.54825
 21
198.991
  0
LINE
  8
0
 10
-2.54825
 20
198.991
 11
2.54825
 21
198.991
  0
LINE
  8
0
 10
2.54825
 20
198.991
 11
3.14006
 21
198.916
  0
LINE
  8
0
 10
3.14006
 20
198.916
 11
3.71782
 21
198.768
  0
LINE
  8
0
 10
3.71782
 20
198.768
 11
4.27245
 21
198.548
  0
LINE
  8
0
 10
4.27245
 20
198.548
 11
4.79517
 21
198.261
  0
LINE
  8
0
 10
4.79517
 20
198.261
 11
5.27776
 21
197.91
  0
LINE
  8
0
 10
5.27776
 20
197.91
 11
5.7126
 21
197.502
  0
LINE
  8
0
 10
5.7126
 20
197.502
 11
6.09282
 21
197.042
  0
LINE
  8
0
 10
6.09282
 20
197.042
 11
6.41245
 21
196.538
  0
LINE
  8
0
 10
6.41245
 20
196.538
 11
6.66643
 21
195.999
  0
LINE
  8
0
 10
6.66643
 20
195.999
 11
6.85077
 21
195.431
  0
LINE
  8
0
 10
6.85077
 20
195.431
 11
6.96254
 21
194.845
  0
LINE
  8
0
 10
6.96254
 20
194.845
 11
7
 21
194.25
  0
LINE
  8
0
 10
7
 20
194.25
 11
7
 21
189.75
  0
LINE
  8
0
 10
7
 20
189.75
 11
6.96254
 21
189.155
  0
LINE
  8
0
 10
6.96254
 20
189.155
 11
6.85077
 21
188.569
  0
LINE
  8
0
 10
6.85077
 20
188.569
 11
6.66643
 21
188.001
  0
LINE
  8
0
 10
6.66643
 20
188.001
 11
6.41245
 21
187.462
  0
LINE
  8
0
 10
6.41245
 20
187.462
 11
6.09282
 21
186.958
  0
LINE
  8
0
 10
6.09282
 20
186.958
 11
5.7126
 21
186.498
  0
LINE
  8
0
 10
5.7126
 20
186.498
 11
5.27776
 21
186.09
  0
LINE
  8
0
 10
5.27776
 20
186.09
 11
4.79517
 21
185.739
  0
LINE
  8
0
 10
4.79517
 20
185.739
 11
4.27245
 21
185.452
  0
LINE
  8
0
 10
4.27245
 20
185.452
 11
3.71782
 21
185.232
  0
LINE
  8
0
 10
3.71782
 20
185.232
 11
3.14006
 21
185.084
  0
LINE
  8
0
 10
3.14006
 20
185.084
 11
2.54825
 21
185.009
  0
LINE
  8
0
 10
2.54825
 20
185.009
 11
-2.54825
 21
185.009
  0
LINE
  8
0
 10
3.4369
 20
160.589
 11
4.04507
 21
160.745
  0
LINE
  8
0
 10
4.04507
 20
160.745
 11
4.62889
 21
160.976
  0
LINE
  8
0
 10
4.62889
 20
160.976
 11
5.17912
 21
161.278
  0
LINE
  8
0
 10
5.17912
 20
161.278
 11
5.68712
 21
161.647
  0
LINE
  8
0
 10
5.68712
 20
161.647
 11
6.14484
 21
162.077
  0
LINE
  8
0
 10
6.14484
 20
162.077
 11
6.54507
 21
162.561
  0
LINE
  8
0
 10
6.54507
 20
162.561
 11
6.88153
 21
163.091
  0
LINE
  8
0
 10
6.88153
 20
163.091
 11
7.14888
 21
163.659
  0
LINE
  8
0
 10
7.14888
 20
163.659
 11
7.34291
 21
164.257
  0
LINE
  8
0
 10
7.34291
 20
164.257
 11
7.46057
 21
164.873
  0
LINE
  8
0
 10
7.46057
 20
164.873
 11
7.5
 21
165.5
  0
LINE
  8
0
 10
7.5
 20
165.5
 11
7.5
 21
170.5
  0
LINE
  8
0
 10
7.5
 20
170.5
 11
7.46057
 21
171.127
  0
LINE
  8
0
 10
7.46057
 20
171.127
 11
7.34291
 21
171.743
  0
LINE
  8
0
 10
7.34291
 20
171.743
 11
7.14888
 21
172.341
  0
LINE
  8
0
 10
7.14888
 20
172.341
 11
6.88153
 21
172.909
  0
LINE
  8
0
 10
6.88153
 20
172.909
 11
6.54507
 21
173.439
  0
LINE
  8
0
 10
6.54507
 20
173.439
 11
6.14484
 21
173.923
  0
LINE
  8
0
 10
6.14484
 20
173.923
 11
5.68712
 21
174.353
  0
LINE
  8
0
 10
5.68712
 20
174.353
 11
5.17912
 21
174.722
  0
LINE
  8
0
 10
5.17912
 20
174.722
 11
4.62889
 21
175.024
  0
LINE
  8
0
 10
4.62889
 20
175.024
 11
4.04507
 21
175.255
  0
LINE
  8
0
 10
4.04507
 20
175.255
 11
3.4369
 21
175.411
  0
LINE
  8
0
 10
3.4369
 20
175.411
 11
2.81395
 21
175.49
  0
LINE
  8
0
 10
2.81395
 20
175.49
 11
-2.81395
 21
175.49
  0
LINE
  8
0
 10
-2.81395
 20
175.49
 11
-3.4369
 21
175.411
  0
LINE
  8
0
 10
-3.4369
 20
175.411
 11
-4.04507
 21
175.255
  0
LINE
  8
0
 10
-4.04507
 20
175.255
 11
-4.62889
 21
175.024
  0
LINE
  8
0
 10
-4.62889
 20
175.024
 11
-5.17912
 21
174.722
  0
LINE
  8
0
 10
-5.17912
 20
174.722
 11
-5.68712
 21
174.353
  0
LINE
  8
0
 10
-5.68712
 20
174.353
 11
-6.14484
 21
173.923
  0
LINE
  8
0
 10
-6.14484
 20
173.923
 11
-6.54507
 21
173.439
  0
LINE
  8
0
 10
-6.54507
 20
173.439
 11
-6.88153
 21
172.909
  0
LINE
  8
0
 10
-6.88153
 20
172.909
 11
-7.14888
 21
172.341
  0
LINE
  8
0
 10
-7.14888
 20
172.341
 11
-7.34291
 21
171.743
  0
LINE
  8
0
 10
-7.34291
 20
171.743
 11
-7.46057
 21
171.127
  0
LINE
  8
0
 10
-7.46057
 20
171.127
 11
-7.5
 21
170.5
  0
LINE
  8
0
 10
-7.5
 20
170.5
 11
-7.5
 21
165.5
  0
LINE
  8
0
 10
-7.5
 20
165.5
 11
-7.46057
 21
164.873
  0
LINE
  8
0
 10
-7.46057
 20
164.873
 11
-7.34291
 21
164.257
  0
LINE
  8
0
 10
-7.34291
 20
164.257
 11
-7.14888
 21
163.659
  0
LINE
  8
0
 10
-7.14888
 20
163.659
 11
-6.88153
 21
163.091
  0
LINE
  8
0
 10
-6.88153
 20
163.091
 11
-6.54507
 21
162.561
  0
LINE
  8
0
 10
-6.54507
 20
162.561
 11
-6.14484
 21
162.077
  0
LINE
  8
0
 10
-6.14484
 20
162.077
 11
-5.68712
 21
161.647
  0
LINE
  8
0
 10
-5.68712
 20
161.647
 11
-5.17912
 21
161.278
  0
LINE
  8
0
 10
-5.17912
 20
161.278
 11
-4.62889
 21
160.976
  0
LINE
  8
0
 10
-4.62889
 20
160.976
 11
-4.04507
 21
160.745
  0
LINE
  8
0
 10
-4.04507
 20
160.745
 11
-3.4369
 21
160.589
  0
LINE
  8
0
 10
-3.4369
 20
160.589
 11
-2.81395
 21
160.51
  0
LINE
  8
0
 10
-2.81395
 20
160.51
 11
2.81395
 21
160.51
  0
LINE
  8
0
 10
2.81395
 20
160.51
 11
3.4369
 21
160.589
  0
LINE
  8
0
 10
-2.54825
 20
161.009
 11
-3.14006
 21
161.084
  0
LINE
  8
0
 10
-3.14006
 20
161.084
 11
-3.71782
 21
161.232
  0
LINE
  8
0
 10
-3.71782
 20
161.232
 11
-4.27245
 21
161.452
  0
LINE
  8
0
 10
-4.27245
 20
161.452
 11
-4.79517
 21
161.739
  0
LINE
  8
0
 10
-4.79517
 20
161.739
 11
-5.27776
 21
162.09
  0
LINE
  8
0
 10
-5.27776
 20
162.09
 11
-5.7126
 21
162.498
  0
LINE
  8
0
 10
-5.7126
 20
162.498
 11
-6.09282
 21
162.958
  0
LINE
  8
0
 10
-6.09282
 20
162.958
 11
-6.41245
 21
163.462
  0
LINE
  8
0
 10
-6.41245
 20
163.462
 11
-6.66643
 21
164.001
  0
LINE
  8
0
 10
-6.66643
 20
164.001
 11
-6.85077
 21
164.569
  0
LINE
  8
0
 10
-6.85077
 20
164.569
 11
-6.96254
 21
165.155
  0
LINE
  8
0
 10
-6.96254
 20
165.155
 11
-7
 21
165.75
  0
LINE
  8
0
 10
-7
 20
165.75
 11
-7
 21
170.25
  0
LINE
  8
0
 10
-7
 20
170.25
 11
-6.96254
 21
170.845
  0
LINE
  8
0
 10
-6.96254
 20
170.845
 11
-6.85077
 21
171.431
  0
LINE
  8
0
 10
-6.85077
 20
171.431
 11
-6.66643
 21
171.999
  0
LINE
  8
0
 10
-6.66643
 20
171.999
 11
-6.41245
 21
172.538
  0
LINE
  8
0
 10
-6.41245
 20
172.538
 11
-6.09282
 21
173.042
  0
LINE
  8
0
 10
-6.09282
 20
173.042
 11
-5.7126
 21
173.502
  0
LINE
  8
0
 10
-5.7126
 20
173.502
 11
-5.27776
 21
173.91
  0
LINE
  8
0
 10
-5.27776
 20
173.91
 11
-4.79517
 21
174.261
  0
LINE
  8
0
 10
-4.79517
 20
174.261
 11
-4.27245
 21
174.548
  0
LINE
  8
0
 10
-4.27245
 20
174.548
 11
-3.71782
 21
174.768
  0
LINE
  8
0
 10
-3.71782
 20
174.768
 11
-3.14006
 21
174.916
  0
LINE
  8
0
 10
-3.14006
 20
174.916
 11
-2.54825
 21
174.991
  0
LINE
  8
0
 10
-2.54825
 20
174.991
 11
2.54825
 21
174.991
  0
LINE
  8
0
 10
2.54825
 20
174.991
 11
3.14006
 21
174.916
  0
LINE
  8
0
 10
3.14006
 20
174.916
 11
3.71782
 21
174.768
  0
LINE
  8
0
 10
3.71782
 20
174.768
 11
4.27245
 21
174.548
  0
LINE
  8
0
 10
4.27245
 20
174.548
 11
4.79517
 21
174.261
  0
LINE
  8
0
 10
4.79517
 20
174.261
 11
5.27776
 21
173.91
  0
LINE
  8
0
 10
5.27776
 20
173.91
 11
5.7126
 21
173.502
  0
LINE
  8
0
 10
5.7126
 20
173.502
 11
6.09282
 21
173.042
  0
LINE
  8
0
 10
6.09282
 20
173.042
 11
6.41245
 21
172.538
  0
LINE
  8
0
 10
6.41245
 20
172.538
 11
6.66643
 21
171.999
  0
LINE
  8
0
 10
6.66643
 20
171.999
 11
6.85077
 21
171.431
  0
LINE
  8
0
 10
6.85077
 20
171.431
 11
6.96254
 21
170.845
  0
LINE
  8
0
 10
6.96254
 20
170.845
 11
7
 21
170.25
  0
LINE
  8
0
 10
7
 20
170.25
 11
7
 21
165.75
  0
LINE
  8
0
 10
7
 20
165.75
 11
6.96254
 21
165.155
  0
LINE
  8
0
 10
6.96254
 20
165.155
 11
6.85077
 21
164.569
  0
LINE
  8
0
 10
6.85077
 20
164.569
 11
6.66643
 21
164.001
  0
LINE
  8
0
 10
6.66643
 20
164.001
 11
6.41245
 21
163.462
  0
LINE
  8
0
 10
6.41245
 20
163.462
 11
6.09282
 21
162.958
  0
LINE
  8
0
 10
6.09282
 20
162.958
 11
5.7126
 21
162.498
  0
LINE
  8
0
 10
5.7126
 20
162.498
 11
5.27776
 21
162.09
  0
LINE
  8
0
 10
5.27776
 20
162.09
 11
4.79517
 21
161.739
  0
LINE
  8
0
 10
4.79517
 20
161.739
 11
4.27245
 21
161.452
  0
LINE
  8
0
 10
4.27245
 20
161.452
 11
3.71782
 21
161.232
  0
LINE
  8
0
 10
3.71782
 20
161.232
 11
3.14006
 21
161.084
  0
LINE
  8
0
 10
3.14006
 20
161.084
 11
2.54825
 21
161.009
  0
LINE
  8
0
 10
2.54825
 20
161.009
 11
-2.54825
 21
161.009
  0
LINE
  8
0
 10
3.4369
 20
136.589
 11
4.04507
 21
136.745
  0
LINE
  8
0
 10
4.04507
 20
136.745
 11
4.62889
 21
136.976
  0
LINE
  8
0
 10
4.62889
 20
136.976
 11
5.17912
 21
137.278
  0
LINE
  8
0
 10
5.17912
 20
137.278
 11
5.68712
 21
137.647
  0
LINE
  8
0
 10
5.68712
 20
137.647
 11
6.14484
 21
138.077
  0
LINE
  8
0
 10
6.14484
 20
138.077
 11
6.54507
 21
138.561
  0
LINE
  8
0
 10
6.54507
 20
138.561
 11
6.88153
 21
139.091
  0
LINE
  8
0
 10
6.88153
 20
139.091
 11
7.14888
 21
139.659
  0
LINE
  8
0
 10
7.14888
 20
139.659
 11
7.34291
 21
140.257
  0
LINE
  8
0
 10
7.34291
 20
140.257
 11
7.46057
 21
140.873
  0
LINE
  8
0
 10
7.46057
 20
140.873
 11
7.5
 21
141.5
  0
LINE
  8
0
 10
7.5
 20
141.5
 11
7.5
 21
146.5
  0
LINE
  8
0
 10
7.5
 20
146.5
 11
7.46057
 21
147.127
  0
LINE
  8
0
 10
7.46057
 20
147.127
 11
7.34291
 21
147.743
  0
LINE
  8
0
 10
7.34291
 20
147.743
 11
7.14888
 21
148.341
  0
LINE
  8
0
 10
7.14888
 20
148.341
 11
6.88153
 21
148.909
  0
LINE
  8
0
 10
6.88153
 20
148.909
 11
6.54507
 21
149.439
  0
LINE
  8
0
 10
6.54507
 20
149.439
 11
6.14484
 21
149.923
  0
LINE
  8
0
 10
6.14484
 20
149.923
 11
5.68712
 21
150.353
  0
LINE
  8
0
 10
5.68712
 20
150.353
 11
5.17912
 21
150.722
  0
LINE
  8
0
 10
5.17912
 20
150.722
 11
4.62889
 21
151.024
  0
LINE
  8
0
 10
4.62889
 20
151.024
 11
4.04507
 21
151.255
  0
LINE
  8
0
 10
4.04507
 20
151.255
 11
3.4369
 21
151.411
  0
LINE
  8
0
 10
3.4369
 20
151.411
 11
2.81395
 21
151.49
  0
LINE
  8
0
 10
2.81395
 20
151.49
 11
-2.81395
 21
151.49
  0
LINE
  8
0
 10
-2.81395
 20
151.49
 11
-3.4369
 21
151.411
  0
LINE
  8
0
 10
-3.4369
 20
151.411
 11
-4.04507
 21
151.255
  0
LINE
  8
0
 10
-4.04507
 20
151.255
 11
-4.62889
 21
151.024
  0
LINE
  8
0
 10
-4.62889
 20
151.024
 11
-5.17912
 21
150.722
  0
LINE
  8
0
 10
-5.17912
 20
150.722
 11
-5.68712
 21
150.353
  0
LINE
  8
0
 10
-5.68712
 20
150.353
 11
-6.14484
 21
149.923
  0
LINE
  8
0
 10
-6.14484
 20
149.923
 11
-6.54507
 21
149.439
  0
LINE
  8
0
 10
-6.54507
 20
149.439
 11
-6.88153
 21
148.909
  0
LINE
  8
0
 10
-6.88153
 20
148.909
 11
-7.14888
 21
148.341
  0
LINE
  8
0
 10
-7.14888
 20
148.341
 11
-7.34291
 21
147.743
  0
LINE
  8
0
 10
-7.34291
 20
147.743
 11
-7.46057
 21
147.127
  0
LINE
  8
0
 10
-7.46057
 20
147.127
 11
-7.5
 21
146.5
  0
LINE
  8
0
 10
-7.5
 20
146.5
 11
-7.5
 21
141.5
  0
LINE
  8
0
 10
-7.5
 20
141.5
 11
-7.46057
 21
140.873
  0
LINE
  8
0
 10
-7.46057
 20
140.873
 11
-7.34291
 21
140.257
  0
LINE
  8
0
 10
-7.34291
 20
140.257
 11
-7.14888
 21
139.659
  0
LINE
  8
0
 10
-7.14888
 20
139.659
 11
-6.88153
 21
139.091
  0
LINE
  8
0
 10
-6.88153
 20
139.091
 11
-6.54507
 21
138.561
  0
LINE
  8
0
 10
-6.54507
 20
138.561
 11
-6.14484
 21
138.077
  0
LINE
  8
0
 10
-6.14484
 20
138.077
 11
-5.68712
 21
137.647
  0
LINE
  8
0
 10
-5.68712
 20
137.647
 11
-5.17912
 21
137.278
  0
LINE
  8
0
 10
-5.17912
 20
137.278
 11
-4.62889
 21
136.976
  0
LINE
  8
0
 10
-4.62889
 20
136.976
 11
-4.04507
 21
136.745
  0
LINE
  8
0
 10
-4.04507
 20
136.745
 11
-3.4369
 21
136.589
  0
LINE
  8
0
 10
-3.4369
 20
136.589
 11
-2.81395
 21
136.51
  0
LINE
  8
0
 10
-2.81395
 20
136.51
 11
2.81395
 21
136.51
  0
LINE
  8
0
 10
2.81395
 20
136.51
 11
3.4369
 21
136.589
  0
LINE
  8
0
 10
-2.53748
 20
137.181
 11
-3.10791
 21
137.253
  0
LINE
  8
0
 10
-3.10791
 20
137.253
 11
-3.66481
 21
137.396
  0
LINE
  8
0
 10
-3.66481
 20
137.396
 11
-4.1994
 21
137.607
  0
LINE
  8
0
 10
-4.1994
 20
137.607
 11
-4.70325
 21
137.884
  0
LINE
  8
0
 10
-4.70325
 20
137.884
 11
-5.1684
 21
138.222
  0
LINE
  8
0
 10
-5.1684
 20
138.222
 11
-5.58754
 21
138.616
  0
LINE
  8
0
 10
-5.58754
 20
138.616
 11
-5.95403
 21
139.059
  0
LINE
  8
0
 10
-5.95403
 20
139.059
 11
-6.26212
 21
139.544
  0
LINE
  8
0
 10
-6.26212
 20
139.544
 11
-6.50691
 21
140.065
  0
LINE
  8
0
 10
-6.50691
 20
140.065
 11
-6.68459
 21
140.611
  0
LINE
  8
0
 10
-6.68459
 20
140.611
 11
-6.79233
 21
141.176
  0
LINE
  8
0
 10
-6.79233
 20
141.176
 11
-6.82843
 21
141.75
  0
LINE
  8
0
 10
-6.82843
 20
141.75
 11
-6.82843
 21
146.25
  0
LINE
  8
0
 10
-6.82843
 20
146.25
 11
-6.79233
 21
146.824
  0
LINE
  8
0
 10
-6.79233
 20
146.824
 11
-6.68459
 21
147.389
  0
LINE
  8
0
 10
-6.68459
 20
147.389
 11
-6.50691
 21
147.935
  0
LINE
  8
0
 10
-6.50691
 20
147.935
 11
-6.26212
 21
148.456
  0
LINE
  8
0
 10
-6.26212
 20
148.456
 11
-5.95403
 21
148.941
  0
LINE
  8
0
 10
-5.95403
 20
148.941
 11
-5.58754
 21
149.384
  0
LINE
  8
0
 10
-5.58754
 20
149.384
 11
-5.1684
 21
149.778
  0
LINE
  8
0
 10
-5.1684
 20
149.778
 11
-4.70325
 21
150.116
  0
LINE
  8
0
 10
-4.70325
 20
150.116
 11
-4.1994
 21
150.393
  0
LINE
  8
0
 10
-4.1994
 20
150.393
 11
-3.66481
 21
150.604
  0
LINE
  8
0
 10
-3.66481
 20
150.604
 11
-3.10791
 21
150.747
  0
LINE
  8
0
 10
-3.10791
 20
150.747
 11
-2.53748
 21
150.819
  0
LINE
  8
0
 10
-2.53748
 20
150.819
 11
2.53748
 21
150.819
  0
LINE
  8
0
 10
2.53748
 20
150.819
 11
3.10791
 21
150.747
  0
LINE
  8
0
 10
3.10791
 20
150.747
 11
3.66481
 21
150.604
  0
LINE
  8
0
 10
3.66481
 20
150.604
 11
4.1994
 21
150.393
  0
LINE
  8
0
 10
4.1994
 20
150.393
 11
4.70325
 21
150.116
  0
LINE
  8
0
 10
4.70325
 20
150.116
 11
5.1684
 21
149.778
  0
LINE
  8
0
 10
5.1684
 20
149.778
 11
5.58754
 21
149.384
  0
LINE
  8
0
 10
5.58754
 20
149.384
 11
5.95403
 21
148.941
  0
LINE
  8
0
 10
5.95403
 20
148.941
 11
6.26212
 21
148.456
  0
LINE
  8
0
 10
6.26212
 20
148.456
 11
6.50691
 21
147.935
  0
LINE
  8
0
 10
6.50691
 20
147.935
 11
6.68459
 21
147.389
  0
LINE
  8
0
 10
6.68459
 20
147.389
 11
6.79233
 21
146.824
  0
LINE
  8
0
 10
6.79233
 20
146.824
 11
6.82843
 21
146.25
  0
LINE
  8
0
 10
6.82843
 20
146.25
 11
6.82843
 21
141.75
  0
LINE
  8
0
 10
6.82843
 20
141.75
 11
6.79233
 21
141.176
  0
LINE
  8
0
 10
6.79233
 20
141.176
 11
6.68459
 21
140.611
  0
LINE
  8
0
 10
6.68459
 20
140.611
 11
6.50691
 21
140.065
  0
LINE
  8
0
 10
6.50691
 20
140.065
 11
6.26212
 21
139.544
  0
LINE
  8
0
 10
6.26212
 20
139.544
 11
5.95403
 21
139.059
  0
LINE
  8
0
 10
5.95403
 20
139.059
 11
5.58754
 21
138.616
  0
LINE
  8
0
 10
5.58754
 20
138.616
 11
5.1684
 21
138.222
  0
LINE
  8
0
 10
5.1684
 20
138.222
 11
4.70325
 21
137.884
  0
LINE
  8
0
 10
4.70325
 20
137.884
 11
4.1994
 21
137.607
  0
LINE
  8
0
 10
4.1994
 20
137.607
 11
3.66481
 21
137.396
  0
LINE
  8
0
 10
3.66481
 20
137.396
 11
3.10791
 21
137.253
  0
LINE
  8
0
 10
3.10791
 20
137.253
 11
2.53748
 21
137.181
  0
LINE
  8
0
 10
2.53748
 20
137.181
 11
-2.53748
 21
137.181
  0
LINE
  8
0
 10
3.4369
 20
112.589
 11
4.04507
 21
112.745
  0
LINE
  8
0
 10
4.04507
 20
112.745
 11
4.62889
 21
112.976
  0
LINE
  8
0
 10
4.62889
 20
112.976
 11
5.17912
 21
113.278
  0
LINE
  8
0
 10
5.17912
 20
113.278
 11
5.68712
 21
113.647
  0
LINE
  8
0
 10
5.68712
 20
113.647
 11
6.14484
 21
114.077
  0
LINE
  8
0
 10
6.14484
 20
114.077
 11
6.54507
 21
114.561
  0
LINE
  8
0
 10
6.54507
 20
114.561
 11
6.88153
 21
115.091
  0
LINE
  8
0
 10
6.88153
 20
115.091
 11
7.14888
 21
115.659
  0
LINE
  8
0
 10
7.14888
 20
115.659
 11
7.34291
 21
116.257
  0
LINE
  8
0
 10
7.34291
 20
116.257
 11
7.46057
 21
116.873
  0
LINE
  8
0
 10
7.46057
 20
116.873
 11
7.5
 21
117.5
  0
LINE
  8
0
 10
7.5
 20
117.5
 11
7.5
 21
122.5
  0
LINE
  8
0
 10
7.5
 20
122.5
 11
7.46057
 21
123.127
  0
LINE
  8
0
 10
7.46057
 20
123.127
 11
7.34291
 21
123.743
  0
LINE
  8
0
 10
7.34291
 20
123.743
 11
7.14888
 21
124.341
  0
LINE
  8
0
 10
7.14888
 20
124.341
 11
6.88153
 21
124.909
  0
LINE
  8
0
 10
6.88153
 20
124.909
 11
6.54507
 21
125.439
  0
LINE
  8
0
 10
6.54507
 20
125.439
 11
6.14484
 21
125.923
  0
LINE
  8
0
 10
6.14484
 20
125.923
 11
5.68712
 21
126.353
  0
LINE
  8
0
 10
5.68712
 20
126.353
 11
5.17912
 21
126.722
  0
LINE
  8
0
 10
5.17912
 20
126.722
 11
4.62889
 21
127.024
  0
LINE
  8
0
 10
4.62889
 20
127.024
 11
4.04507
 21
127.255
  0
LINE
  8
0
 10
4.04507
 20
127.255
 11
3.4369
 21
127.411
  0
LINE
  8
0
 10
3.4369
 20
127.411
 11
2.81395
 21
127.49
  0
LINE
  8
0
 10
2.81395
 20
127.49
 11
-2.81395
 21
127.49
  0
LINE
  8
0
 10
-2.81395
 20
127.49
 11
-3.4369
 21
127.411
  0
LINE
  8
0
 10
-3.4369
 20
127.411
 11
-4.04507
 21
127.255
  0
LINE
  8
0
 10
-4.04507
 20
127.255
 11
-4.62889
 21
127.024
  0
LINE
  8
0
 10
-4.62889
 20
127.024
 11
-5.17912
 21
126.722
  0
LINE
  8
0
 10
-5.17912
 20
126.722
 11
-5.68712
 21
126.353
  0
LINE
  8
0
 10
-5.68712
 20
126.353
 11
-6.14484
 21
125.923
  0
LINE
  8
0
 10
-6.14484
 20
125.923
 11
-6.54507
 21
125.439
  0
LINE
  8
0
 10
-6.54507
 20
125.439
 11
-6.88153
 21
124.909
  0
LINE
  8
0
 10
-6.88153
 20
124.909
 11
-7.14888
 21
124.341
  0
LINE
  8
0
 10
-7.14888
 20
124.341
 11
-7.34291
 21
123.743
  0
LINE
  8
0
 10
-7.34291
 20
123.743
 11
-7.46057
 21
123.127
  0
LINE
  8
0
 10
-7.46057
 20
123.127
 11
-7.5
 21
122.5
  0
LINE
  8
0
 10
-7.5
 20
122.5
 11
-7.5
 21
117.5
  0
LINE
  8
0
 10
-7.5
 20
117.5
 11
-7.46057
 21
116.873
  0
LINE
  8
0
 10
-7.46057
 20
116.873
 11
-7.34291
 21
116.257
  0
LINE
  8
0
 10
-7.34291
 20
116.257
 11
-7.14888
 21
115.659
  0
LINE
  8
0
 10
-7.14888
 20
115.659
 11
-6.88153
 21
115.091
  0
LINE
  8
0
 10
-6.88153
 20
115.091
 11
-6.54507
 21
114.561
  0
LINE
  8
0
 10
-6.54507
 20
114.561
 11
-6.14484
 21
114.077
  0
LINE
  8
0
 10
-6.14484
 20
114.077
 11
-5.68712
 21
113.647
  0
LINE
  8
0
 10
-5.68712
 20
113.647
 11
-5.17912
 21
113.278
  0
LINE
  8
0
 10
-5.17912
 20
113.278
 11
-4.62889
 21
112.976
  0
LINE
  8
0
 10
-4.62889
 20
112.976
 11
-4.04507
 21
112.745
  0
LINE
  8
0
 10
-4.04507
 20
112.745
 11
-3.4369
 21
112.589
  0
LINE
  8
0
 10
-3.4369
 20
112.589
 11
-2.81395
 21
112.51
  0
LINE
  8
0
 10
-2.81395
 20
112.51
 11
2.81395
 21
112.51
  0
LINE
  8
0
 10
2.81395
 20
112.51
 11
3.4369
 21
112.589
  0
LINE
  8
0
 10
-2.38246
 20
115.645
 11
-2.64529
 21
115.678
  0
LINE
  8
0
 10
-2.64529
 20
115.678
 11
-2.9019
 21
115.744
  0
LINE
  8
0
 10
-2.9019
 20
115.744
 11
-3.14822
 21
115.841
  0
LINE
  8
0
 10
-3.14822
 20
115.841
 11
-3.38039
 21
115.969
  0
LINE
  8
0
 10
-3.38039
 20
115.969
 11
-3.59473
 21
116.125
  0
LINE
  8
0
 10
-3.59473
 20
116.125
 11
-3.78784
 21
116.306
  0
LINE
  8
0
 10
-3.78784
 20
116.306
 11
-3.95673
 21
116.51
  0
LINE
  8
0
 10
-3.95673
 20
116.51
 11
-4.09868
 21
116.734
  0
LINE
  8
0
 10
-4.09868
 20
116.734
 11
-4.21149
 21
116.973
  0
LINE
  8
0
 10
-4.21149
 20
116.973
 11
-4.29335
 21
117.225
  0
LINE
  8
0
 10
-4.29335
 20
117.225
 11
-4.34299
 21
117.486
  0
LINE
  8
0
 10
-4.34299
 20
117.486
 11
-4.35962
 21
117.75
  0
LINE
  8
0
 10
-4.35962
 20
117.75
 11
-4.35962
 21
122.25
  0
LINE
  8
0
 10
-4.35962
 20
122.25
 11
-4.34299
 21
122.514
  0
LINE
  8
0
 10
-4.34299
 20
122.514
 11
-4.29335
 21
122.775
  0
LINE
  8
0
 10
-4.29335
 20
122.775
 11
-4.21149
 21
123.027
  0
LINE
  8
0
 10
-4.21149
 20
123.027
 11
-4.09868
 21
123.266
  0
LINE
  8
0
 10
-4.09868
 20
123.266
 11
-3.95673
 21
123.49
  0
LINE
  8
0
 10
-3.95673
 20
123.49
 11
-3.78784
 21
123.694
  0
LINE
  8
0
 10
-3.78784
 20
123.694
 11
-3.59473
 21
123.875
  0
LINE
  8
0
 10
-3.59473
 20
123.875
 11
-3.38039
 21
124.031
  0
LINE
  8
0
 10
-3.38039
 20
124.031
 11
-3.14822
 21
124.159
  0
LINE
  8
0
 10
-3.14822
 20
124.159
 11
-2.9019
 21
124.256
  0
LINE
  8
0
 10
-2.9019
 20
124.256
 11
-2.64529
 21
124.322
  0
LINE
  8
0
 10
-2.64529
 20
124.322
 11
-2.38246
 21
124.355
  0
LINE
  8
0
 10
-2.38246
 20
124.355
 11
2.38246
 21
124.355
  0
LINE
  8
0
 10
2.38246
 20
124.355
 11
2.64529
 21
124.322
  0
LINE
  8
0
 10
2.64529
 20
124.322
 11
2.9019
 21
124.256
  0
LINE
  8
0
 10
2.9019
 20
124.256
 11
3.14822
 21
124.159
  0
LINE
  8
0
 10
3.14822
 20
124.159
 11
3.38039
 21
124.031
  0
LINE
  8
0
 10
3.38039
 20
124.031
 11
3.59473
 21
123.875
  0
LINE
  8
0
 10
3.59473
 20
123.875
 11
3.78784
 21
123.694
  0
LINE
  8
0
 10
3.78784
 20
123.694
 11
3.95673
 21
123.49
  0
LINE
  8
0
 10
3.95673
 20
123.49
 11
4.09868
 21
123.266
  0
LINE
  8
0
 10
4.09868
 20
123.266
 11
4.21149
 21
123.027
  0
LINE
  8
0
 10
4.21149
 20
123.027
 11
4.29335
 21
122.775
  0
LINE
  8
0
 10
4.29335
 20
122.775
 11
4.34299
 21
122.514
  0
LINE
  8
0
 10
4.34299
 20
122.514
 11
4.35962
 21
122.25
  0
LINE
  8
0
 10
4.35962
 20
122.25
 11
4.35962
 21
117.75
  0
LINE
  8
0
 10
4.35962
 20
117.75
 11
4.34299
 21
117.486
  0
LINE
  8
0
 10
4.34299
 20
117.486
 11
4.29335
 21
117.225
  0
LINE
  8
0
 10
4.29335
 20
117.225
 11
4.21149
 21
116.973
  0
LINE
  8
0
 10
4.21149
 20
116.973
 11
4.09868
 21
116.734
  0
LINE
  8
0
 10
4.09868
 20
116.734
 11
3.95673
 21
116.51
  0
LINE
  8
0
 10
3.95673
 20
116.51
 11
3.78784
 21
116.306
  0
LINE
  8
0
 10
3.78784
 20
116.306
 11
3.59473
 21
116.125
  0
LINE
  8
0
 10
3.59473
 20
116.125
 11
3.38039
 21
115.969
  0
LINE
  8
0
 10
3.38039
 20
115.969
 11
3.14822
 21
115.841
  0
LINE
  8
0
 10
3.14822
 20
115.841
 11
2.9019
 21
115.744
  0
LINE
  8
0
 10
2.9019
 20
115.744
 11
2.64529
 21
115.678
  0
LINE
  8
0
 10
2.64529
 20
115.678
 11
2.38246
 21
115.645
  0
LINE
  8
0
 10
2.38246
 20
115.645
 11
-2.38246
 21
115.645
  0
ENDSEC
  0
SECTION
  2
OBJECTS
  0
DICTIONARY
  0
ENDSEC
  0
EOF
