<?xml version="1.0" standalone="no"?>
<!DOCTYPE svg PUBLIC "-//W3C//DTD SVG 1.1//EN" "http://www.w3.org/Graphics/SVG/1.1/DTD/svg11.dtd">
<svg width="60mm" height="60mm" viewBox="-30 -168 60 60" xmlns="http://www.w3.org/2000/svg" version="1.1">
<title>OpenSCAD Model</title>
<path d="
M 25.4369,-108.589 L 26.0451,-108.745 L 26.6289,-108.976 L 27.1791,-109.278 L 27.6871,-109.647 L 28.1448,-110.077
 L 28.5451,-110.561 L 28.8815,-111.091 L 29.1489,-111.659 L 29.3429,-112.257 L 29.4606,-112.873 L 29.5,-113.5
 L 29.5,-160.5 L 13.9715,-160.5 L 13.9751,-160.498 L 11.7482,-160.498 L 11.6236,-160.482 L 11.502,-160.451
 L 11.3852,-160.405 L 11.2752,-160.344 L 11.1736,-160.271 L 11.082,-160.185 L 11.002,-160.088 L 10.9347,-159.982
 L 10.8812,-159.868 L 10.8424,-159.749 L 10.8189,-159.625 L 10.811,-159.5 L 10.8189,-159.375 L 10.8424,-159.251
 L 10.8812,-159.132 L 10.9347,-159.018 L 11.002,-158.912 L 11.082,-158.815 L 11.1736,-158.729 L 11.2752,-158.656
 L 11.3852,-158.595 L 11.502,-158.549 L 11.6236,-158.518 L 11.7482,-158.502 L 16.777,-158.502 L 16.8917,-158.419
 L 19.3177,-156.14 L 21.4389,-153.576 L 23.2221,-150.766 L 24.6391,-147.755 L 25.6674,-144.59 L 26.291,-141.321
 L 26.5,-138 L 26.291,-134.679 L 25.6674,-131.41 L 24.6391,-128.245 L 23.2221,-125.234 L 21.4389,-122.424
 L 19.3177,-119.86 L 16.8917,-117.581 L 14.1994,-115.625 L 11.2831,-114.022 L 8.18895,-112.797 L 4.96559,-111.969
 L 1.66394,-111.552 L -1.66394,-111.552 L -4.96559,-111.969 L -8.18895,-112.797 L -11.2831,-114.022 L -14.1994,-115.625
 L -16.8917,-117.581 L -19.3177,-119.86 L -21.4389,-122.424 L -23.2221,-125.234 L -24.6391,-128.245 L -25.6674,-131.41
 L -26.291,-134.679 L -26.5,-138 L -26.291,-141.321 L -25.6674,-144.59 L -24.6391,-147.755 L -23.2221,-150.766
 L -21.4389,-153.576 L -19.3177,-156.14 L -16.8917,-158.419 L -14.1994,-160.375 L -11.2831,-161.978 L -8.18895,-163.203
 L -4.96559,-164.031 L -1.66394,-164.448 L 0,-164.448 L 0,-164.5 L 9.49998,-164.5 L 6.50986,-167.49
 L 3,-167.49 L 3,-166.5 L -29,-166.5 L -29,-167.5 L -29.5,-167.5 L -29.5,-163.494
 L -22.3116,-163.494 L -21.9379,-163.447 L -21.5729,-163.353 L -21.2227,-163.214 L -20.8925,-163.033 L -20.5877,-162.812
 L -20.3131,-162.554 L -20.0729,-162.263 L -19.8711,-161.945 L -19.7107,-161.604 L -19.5942,-161.246 L -19.5237,-160.876
 L -19.5,-160.5 L -19.5237,-160.124 L -19.5942,-159.754 L -19.7107,-159.396 L -19.8711,-159.055 L -20.0729,-158.737
 L -20.3131,-158.446 L -20.5877,-158.188 L -20.8925,-157.967 L -21.2227,-157.786 L -21.5729,-157.647 L -21.9379,-157.553
 L -22.3116,-157.506 L -29.5,-157.506 L -29.5,-118.494 L -22.3116,-118.494 L -21.9379,-118.447 L -21.5729,-118.353
 L -21.2227,-118.214 L -20.8925,-118.033 L -20.5877,-117.812 L -20.3131,-117.554 L -20.0729,-117.263 L -19.8711,-116.945
 L -19.7107,-116.604 L -19.5942,-116.246 L -19.5237,-115.876 L -19.5,-115.5 L -19.5237,-115.124 L -19.5942,-114.754
 L -19.7107,-114.396 L -19.8711,-114.055 L -20.0729,-113.737 L -20.3131,-113.446 L -20.5877,-113.188 L -20.8925,-112.967
 L -21.2227,-112.786 L -21.5729,-112.647 L -21.9379,-112.553 L -22.3116,-112.506 L -29.3905,-112.506 L -29.3429,-112.257
 L -29.1489,-111.659 L -28.8815,-111.091 L -28.5451,-110.561 L -28.1448,-110.077 L -27.6871,-109.647 L -27.1791,-109.278
 L -26.6289,-108.976 L -26.0451,-108.745 L -25.4369,-108.589 L -24.8139,-108.51 L 24.8139,-108.51 z
M 22.3116,-112.506 L 21.9379,-112.553 L 21.5729,-112.647 L 21.2227,-112.786 L 20.8925,-112.967 L 20.5877,-113.188
 L 20.3131,-113.446 L 20.0729,-113.737 L 19.8711,-114.055 L 19.7107,-114.396 L 19.5942,-114.754 L 19.5237,-115.124
 L 19.5,-115.5 L 19.5237,-115.876 L 19.5942,-116.246 L 19.7107,-116.604 L 19.8711,-116.945 L 20.0729,-117.263
 L 20.3131,-117.554 L 20.5877,-117.812 L 20.8925,-118.033 L 21.2227,-118.214 L 21.5729,-118.353 L 21.9379,-118.447
 L 22.3116,-118.494 L 22.6884,-118.494 L 23.0621,-118.447 L 23.427,-118.353 L 23.7773,-118.214 L 24.1075,-118.033
 L 24.4123,-117.812 L 24.6869,-117.554 L 24.927,-117.263 L 25.1289,-116.945 L 25.2893,-116.604 L 25.4057,-116.246
 L 25.4763,-115.876 L 25.5,-115.5 L 25.4763,-115.124 L 25.4057,-114.754 L 25.2893,-114.396 L 25.1289,-114.055
 L 24.927,-113.737 L 24.6869,-113.446 L 24.4123,-113.188 L 24.1075,-112.967 L 23.7773,-112.786 L 23.427,-112.647
 L 23.0621,-112.553 L 22.6884,-112.506 z
M 19.5,-167.49 L 8.63118,-167.49 L 11.6213,-164.5 L 19.5,-164.5 z
" stroke="black" fill="lightgray" stroke-width="0.5"/>
</svg>
