  0
SECTION
  2
BLOCKS
  0
ENDSEC
  0
SECTION
  2
ENTITIES
  0
LINE
  8
0
 10
25.4369
 20
108.589
 11
26.0451
 21
108.745
  0
LINE
  8
0
 10
26.0451
 20
108.745
 11
26.6289
 21
108.976
  0
LINE
  8
0
 10
26.6289
 20
108.976
 11
27.1791
 21
109.278
  0
LINE
  8
0
 10
27.1791
 20
109.278
 11
27.6871
 21
109.647
  0
LINE
  8
0
 10
27.6871
 20
109.647
 11
28.1448
 21
110.077
  0
LINE
  8
0
 10
28.1448
 20
110.077
 11
28.5451
 21
110.561
  0
LINE
  8
0
 10
28.5451
 20
110.561
 11
28.8815
 21
111.091
  0
LINE
  8
0
 10
28.8815
 20
111.091
 11
29.1489
 21
111.659
  0
LINE
  8
0
 10
29.1489
 20
111.659
 11
29.3429
 21
112.257
  0
LINE
  8
0
 10
29.3429
 20
112.257
 11
29.4606
 21
112.873
  0
LINE
  8
0
 10
29.4606
 20
112.873
 11
29.5
 21
113.5
  0
LINE
  8
0
 10
29.5
 20
113.5
 11
29.5
 21
160.5
  0
LINE
  8
0
 10
29.5
 20
160.5
 11
13.9715
 21
160.5
  0
LINE
  8
0
 10
13.9715
 20
160.5
 11
13.9751
 21
160.498
  0
LINE
  8
0
 10
13.9751
 20
160.498
 11
11.7482
 21
160.498
  0
LINE
  8
0
 10
11.7482
 20
160.498
 11
11.6236
 21
160.482
  0
LINE
  8
0
 10
11.6236
 20
160.482
 11
11.502
 21
160.451
  0
LINE
  8
0
 10
11.502
 20
160.451
 11
11.3852
 21
160.405
  0
LINE
  8
0
 10
11.3852
 20
160.405
 11
11.2752
 21
160.344
  0
LINE
  8
0
 10
11.2752
 20
160.344
 11
11.1736
 21
160.271
  0
LINE
  8
0
 10
11.1736
 20
160.271
 11
11.082
 21
160.185
  0
LINE
  8
0
 10
11.082
 20
160.185
 11
11.002
 21
160.088
  0
LINE
  8
0
 10
11.002
 20
160.088
 11
10.9347
 21
159.982
  0
LINE
  8
0
 10
10.9347
 20
159.982
 11
10.8812
 21
159.868
  0
LINE
  8
0
 10
10.8812
 20
159.868
 11
10.8424
 21
159.749
  0
LINE
  8
0
 10
10.8424
 20
159.749
 11
10.8189
 21
159.625
  0
LINE
  8
0
 10
10.8189
 20
159.625
 11
10.811
 21
159.5
  0
LINE
  8
0
 10
10.811
 20
159.5
 11
10.8189
 21
159.375
  0
LINE
  8
0
 10
10.8189
 20
159.375
 11
10.8424
 21
159.251
  0
LINE
  8
0
 10
10.8424
 20
159.251
 11
10.8812
 21
159.132
  0
LINE
  8
0
 10
10.8812
 20
159.132
 11
10.9347
 21
159.018
  0
LINE
  8
0
 10
10.9347
 20
159.018
 11
11.002
 21
158.912
  0
LINE
  8
0
 10
11.002
 20
158.912
 11
11.082
 21
158.815
  0
LINE
  8
0
 10
11.082
 20
158.815
 11
11.1736
 21
158.729
  0
LINE
  8
0
 10
11.1736
 20
158.729
 11
11.2752
 21
158.656
  0
LINE
  8
0
 10
11.2752
 20
158.656
 11
11.3852
 21
158.595
  0
LINE
  8
0
 10
11.3852
 20
158.595
 11
11.502
 21
158.549
  0
LINE
  8
0
 10
11.502
 20
158.549
 11
11.6236
 21
158.518
  0
LINE
  8
0
 10
11.6236
 20
158.518
 11
11.7482
 21
158.502
  0
LINE
  8
0
 10
11.7482
 20
158.502
 11
16.777
 21
158.502
  0
LINE
  8
0
 10
16.777
 20
158.502
 11
16.8917
 21
158.419
  0
LINE
  8
0
 10
16.8917
 20
158.419
 11
19.3177
 21
156.14
  0
LINE
  8
0
 10
19.3177
 20
156.14
 11
21.4389
 21
153.576
  0
LINE
  8
0
 10
21.4389
 20
153.576
 11
23.2221
 21
150.766
  0
LINE
  8
0
 10
23.2221
 20
150.766
 11
24.6391
 21
147.755
  0
LINE
  8
0
 10
24.6391
 20
147.755
 11
25.6674
 21
144.59
  0
LINE
  8
0
 10
25.6674
 20
144.59
 11
26.291
 21
141.321
  0
LINE
  8
0
 10
26.291
 20
141.321
 11
26.5
 21
138
  0
LINE
  8
0
 10
26.5
 20
138
 11
26.291
 21
134.679
  0
LINE
  8
0
 10
26.291
 20
134.679
 11
25.6674
 21
131.41
  0
LINE
  8
0
 10
25.6674
 20
131.41
 11
24.6391
 21
128.245
  0
LINE
  8
0
 10
24.6391
 20
128.245
 11
23.2221
 21
125.234
  0
LINE
  8
0
 10
23.2221
 20
125.234
 11
21.4389
 21
122.424
  0
LINE
  8
0
 10
21.4389
 20
122.424
 11
19.3177
 21
119.86
  0
LINE
  8
0
 10
19.3177
 20
119.86
 11
16.8917
 21
117.581
  0
LINE
  8
0
 10
16.8917
 20
117.581
 11
14.1994
 21
115.625
  0
LINE
  8
0
 10
14.1994
 20
115.625
 11
11.2831
 21
114.022
  0
LINE
  8
0
 10
11.2831
 20
114.022
 11
8.18895
 21
112.797
  0
LINE
  8
0
 10
8.18895
 20
112.797
 11
4.96559
 21
111.969
  0
LINE
  8
0
 10
4.96559
 20
111.969
 11
1.66394
 21
111.552
  0
LINE
  8
0
 10
1.66394
 20
111.552
 11
-1.66394
 21
111.552
  0
LINE
  8
0
 10
-1.66394
 20
111.552
 11
-4.96559
 21
111.969
  0
LINE
  8
0
 10
-4.96559
 20
111.969
 11
-8.18895
 21
112.797
  0
LINE
  8
0
 10
-8.18895
 20
112.797
 11
-11.2831
 21
114.022
  0
LINE
  8
0
 10
-11.2831
 20
114.022
 11
-14.1994
 21
115.625
  0
LINE
  8
0
 10
-14.1994
 20
115.625
 11
-16.8917
 21
117.581
  0
LINE
  8
0
 10
-16.8917
 20
117.581
 11
-19.3177
 21
119.86
  0
LINE
  8
0
 10
-19.3177
 20
119.86
 11
-21.4389
 21
122.424
  0
LINE
  8
0
 10
-21.4389
 20
122.424
 11
-23.2221
 21
125.234
  0
LINE
  8
0
 10
-23.2221
 20
125.234
 11
-24.6391
 21
128.245
  0
LINE
  8
0
 10
-24.6391
 20
128.245
 11
-25.6674
 21
131.41
  0
LINE
  8
0
 10
-25.6674
 20
131.41
 11
-26.291
 21
134.679
  0
LINE
  8
0
 10
-26.291
 20
134.679
 11
-26.5
 21
138
  0
LINE
  8
0
 10
-26.5
 20
138
 11
-26.291
 21
141.321
  0
LINE
  8
0
 10
-26.291
 20
141.321
 11
-25.6674
 21
144.59
  0
LINE
  8
0
 10
-25.6674
 20
144.59
 11
-24.6391
 21
147.755
  0
LINE
  8
0
 10
-24.6391
 20
147.755
 11
-23.2221
 21
150.766
  0
LINE
  8
0
 10
-23.2221
 20
150.766
 11
-21.4389
 21
153.576
  0
LINE
  8
0
 10
-21.4389
 20
153.576
 11
-19.3177
 21
156.14
  0
LINE
  8
0
 10
-19.3177
 20
156.14
 11
-16.8917
 21
158.419
  0
LINE
  8
0
 10
-16.8917
 20
158.419
 11
-14.1994
 21
160.375
  0
LINE
  8
0
 10
-14.1994
 20
160.375
 11
-11.2831
 21
161.978
  0
LINE
  8
0
 10
-11.2831
 20
161.978
 11
-8.18895
 21
163.203
  0
LINE
  8
0
 10
-8.18895
 20
163.203
 11
-4.96559
 21
164.031
  0
LINE
  8
0
 10
-4.96559
 20
164.031
 11
-1.66394
 21
164.448
  0
LINE
  8
0
 10
-1.66394
 20
164.448
 11
0
 21
164.448
  0
LINE
  8
0
 10
0
 20
164.448
 11
0
 21
164.5
  0
LINE
  8
0
 10
0
 20
164.5
 11
9.49998
 21
164.5
  0
LINE
  8
0
 10
9.49998
 20
164.5
 11
6.50986
 21
167.49
  0
LINE
  8
0
 10
6.50986
 20
167.49
 11
3
 21
167.49
  0
LINE
  8
0
 10
3
 20
167.49
 11
3
 21
166.5
  0
LINE
  8
0
 10
3
 20
166.5
 11
-29
 21
166.5
  0
LINE
  8
0
 10
-29
 20
166.5
 11
-29
 21
167.5
  0
LINE
  8
0
 10
-29
 20
167.5
 11
-29.5
 21
167.5
  0
LINE
  8
0
 10
-29.5
 20
167.5
 11
-29.5
 21
163.494
  0
LINE
  8
0
 10
-29.5
 20
163.494
 11
-22.3116
 21
163.494
  0
LINE
  8
0
 10
-22.3116
 20
163.494
 11
-21.9379
 21
163.447
  0
LINE
  8
0
 10
-21.9379
 20
163.447
 11
-21.5729
 21
163.353
  0
LINE
  8
0
 10
-21.5729
 20
163.353
 11
-21.2227
 21
163.214
  0
LINE
  8
0
 10
-21.2227
 20
163.214
 11
-20.8925
 21
163.033
  0
LINE
  8
0
 10
-20.8925
 20
163.033
 11
-20.5877
 21
162.812
  0
LINE
  8
0
 10
-20.5877
 20
162.812
 11
-20.3131
 21
162.554
  0
LINE
  8
0
 10
-20.3131
 20
162.554
 11
-20.0729
 21
162.263
  0
LINE
  8
0
 10
-20.0729
 20
162.263
 11
-19.8711
 21
161.945
  0
LINE
  8
0
 10
-19.8711
 20
161.945
 11
-19.7107
 21
161.604
  0
LINE
  8
0
 10
-19.7107
 20
161.604
 11
-19.5942
 21
161.246
  0
LINE
  8
0
 10
-19.5942
 20
161.246
 11
-19.5237
 21
160.876
  0
LINE
  8
0
 10
-19.5237
 20
160.876
 11
-19.5
 21
160.5
  0
LINE
  8
0
 10
-19.5
 20
160.5
 11
-19.5237
 21
160.124
  0
LINE
  8
0
 10
-19.5237
 20
160.124
 11
-19.5942
 21
159.754
  0
LINE
  8
0
 10
-19.5942
 20
159.754
 11
-19.7107
 21
159.396
  0
LINE
  8
0
 10
-19.7107
 20
159.396
 11
-19.8711
 21
159.055
  0
LINE
  8
0
 10
-19.8711
 20
159.055
 11
-20.0729
 21
158.737
  0
LINE
  8
0
 10
-20.0729
 20
158.737
 11
-20.3131
 21
158.446
  0
LINE
  8
0
 10
-20.3131
 20
158.446
 11
-20.5877
 21
158.188
  0
LINE
  8
0
 10
-20.5877
 20
158.188
 11
-20.8925
 21
157.967
  0
LINE
  8
0
 10
-20.8925
 20
157.967
 11
-21.2227
 21
157.786
  0
LINE
  8
0
 10
-21.2227
 20
157.786
 11
-21.5729
 21
157.647
  0
LINE
  8
0
 10
-21.5729
 20
157.647
 11
-21.9379
 21
157.553
  0
LINE
  8
0
 10
-21.9379
 20
157.553
 11
-22.3116
 21
157.506
  0
LINE
  8
0
 10
-22.3116
 20
157.506
 11
-29.5
 21
157.506
  0
LINE
  8
0
 10
-29.5
 20
157.506
 11
-29.5
 21
118.494
  0
LINE
  8
0
 10
-29.5
 20
118.494
 11
-22.3116
 21
118.494
  0
LINE
  8
0
 10
-22.3116
 20
118.494
 11
-21.9379
 21
118.447
  0
LINE
  8
0
 10
-21.9379
 20
118.447
 11
-21.5729
 21
118.353
  0
LINE
  8
0
 10
-21.5729
 20
118.353
 11
-21.2227
 21
118.214
  0
LINE
  8
0
 10
-21.2227
 20
118.214
 11
-20.8925
 21
118.033
  0
LINE
  8
0
 10
-20.8925
 20
118.033
 11
-20.5877
 21
117.812
  0
LINE
  8
0
 10
-20.5877
 20
117.812
 11
-20.3131
 21
117.554
  0
LINE
  8
0
 10
-20.3131
 20
117.554
 11
-20.0729
 21
117.263
  0
LINE
  8
0
 10
-20.0729
 20
117.263
 11
-19.8711
 21
116.945
  0
LINE
  8
0
 10
-19.8711
 20
116.945
 11
-19.7107
 21
116.604
  0
LINE
  8
0
 10
-19.7107
 20
116.604
 11
-19.5942
 21
116.246
  0
LINE
  8
0
 10
-19.5942
 20
116.246
 11
-19.5237
 21
115.876
  0
LINE
  8
0
 10
-19.5237
 20
115.876
 11
-19.5
 21
115.5
  0
LINE
  8
0
 10
-19.5
 20
115.5
 11
-19.5237
 21
115.124
  0
LINE
  8
0
 10
-19.5237
 20
115.124
 11
-19.5942
 21
114.754
  0
LINE
  8
0
 10
-19.5942
 20
114.754
 11
-19.7107
 21
114.396
  0
LINE
  8
0
 10
-19.7107
 20
114.396
 11
-19.8711
 21
114.055
  0
LINE
  8
0
 10
-19.8711
 20
114.055
 11
-20.0729
 21
113.737
  0
LINE
  8
0
 10
-20.0729
 20
113.737
 11
-20.3131
 21
113.446
  0
LINE
  8
0
 10
-20.3131
 20
113.446
 11
-20.5877
 21
113.188
  0
LINE
  8
0
 10
-20.5877
 20
113.188
 11
-20.8925
 21
112.967
  0
LINE
  8
0
 10
-20.8925
 20
112.967
 11
-21.2227
 21
112.786
  0
LINE
  8
0
 10
-21.2227
 20
112.786
 11
-21.5729
 21
112.647
  0
LINE
  8
0
 10
-21.5729
 20
112.647
 11
-21.9379
 21
112.553
  0
LINE
  8
0
 10
-21.9379
 20
112.553
 11
-22.3116
 21
112.506
  0
LINE
  8
0
 10
-22.3116
 20
112.506
 11
-29.3905
 21
112.506
  0
LINE
  8
0
 10
-29.3905
 20
112.506
 11
-29.3429
 21
112.257
  0
LINE
  8
0
 10
-29.3429
 20
112.257
 11
-29.1489
 21
111.659
  0
LINE
  8
0
 10
-29.1489
 20
111.659
 11
-28.8815
 21
111.091
  0
LINE
  8
0
 10
-28.8815
 20
111.091
 11
-28.5451
 21
110.561
  0
LINE
  8
0
 10
-28.5451
 20
110.561
 11
-28.1448
 21
110.077
  0
LINE
  8
0
 10
-28.1448
 20
110.077
 11
-27.6871
 21
109.647
  0
LINE
  8
0
 10
-27.6871
 20
109.647
 11
-27.1791
 21
109.278
  0
LINE
  8
0
 10
-27.1791
 20
109.278
 11
-26.6289
 21
108.976
  0
LINE
  8
0
 10
-26.6289
 20
108.976
 11
-26.0451
 21
108.745
  0
LINE
  8
0
 10
-26.0451
 20
108.745
 11
-25.4369
 21
108.589
  0
LINE
  8
0
 10
-25.4369
 20
108.589
 11
-24.8139
 21
108.51
  0
LINE
  8
0
 10
-24.8139
 20
108.51
 11
24.8139
 21
108.51
  0
LINE
  8
0
 10
24.8139
 20
108.51
 11
25.4369
 21
108.589
  0
LINE
  8
0
 10
22.3116
 20
112.506
 11
21.9379
 21
112.553
  0
LINE
  8
0
 10
21.9379
 20
112.553
 11
21.5729
 21
112.647
  0
LINE
  8
0
 10
21.5729
 20
112.647
 11
21.2227
 21
112.786
  0
LINE
  8
0
 10
21.2227
 20
112.786
 11
20.8925
 21
112.967
  0
LINE
  8
0
 10
20.8925
 20
112.967
 11
20.5877
 21
113.188
  0
LINE
  8
0
 10
20.5877
 20
113.188
 11
20.3131
 21
113.446
  0
LINE
  8
0
 10
20.3131
 20
113.446
 11
20.0729
 21
113.737
  0
LINE
  8
0
 10
20.0729
 20
113.737
 11
19.8711
 21
114.055
  0
LINE
  8
0
 10
19.8711
 20
114.055
 11
19.7107
 21
114.396
  0
LINE
  8
0
 10
19.7107
 20
114.396
 11
19.5942
 21
114.754
  0
LINE
  8
0
 10
19.5942
 20
114.754
 11
19.5237
 21
115.124
  0
LINE
  8
0
 10
19.5237
 20
115.124
 11
19.5
 21
115.5
  0
LINE
  8
0
 10
19.5
 20
115.5
 11
19.5237
 21
115.876
  0
LINE
  8
0
 10
19.5237
 20
115.876
 11
19.5942
 21
116.246
  0
LINE
  8
0
 10
19.5942
 20
116.246
 11
19.7107
 21
116.604
  0
LINE
  8
0
 10
19.7107
 20
116.604
 11
19.8711
 21
116.945
  0
LINE
  8
0
 10
19.8711
 20
116.945
 11
20.0729
 21
117.263
  0
LINE
  8
0
 10
20.0729
 20
117.263
 11
20.3131
 21
117.554
  0
LINE
  8
0
 10
20.3131
 20
117.554
 11
20.5877
 21
117.812
  0
LINE
  8
0
 10
20.5877
 20
117.812
 11
20.8925
 21
118.033
  0
LINE
  8
0
 10
20.8925
 20
118.033
 11
21.2227
 21
118.214
  0
LINE
  8
0
 10
21.2227
 20
118.214
 11
21.5729
 21
118.353
  0
LINE
  8
0
 10
21.5729
 20
118.353
 11
21.9379
 21
118.447
  0
LINE
  8
0
 10
21.9379
 20
118.447
 11
22.3116
 21
118.494
  0
LINE
  8
0
 10
22.3116
 20
118.494
 11
22.6884
 21
118.494
  0
LINE
  8
0
 10
22.6884
 20
118.494
 11
23.0621
 21
118.447
  0
LINE
  8
0
 10
23.0621
 20
118.447
 11
23.427
 21
118.353
  0
LINE
  8
0
 10
23.427
 20
118.353
 11
23.7773
 21
118.214
  0
LINE
  8
0
 10
23.7773
 20
118.214
 11
24.1075
 21
118.033
  0
LINE
  8
0
 10
24.1075
 20
118.033
 11
24.4123
 21
117.812
  0
LINE
  8
0
 10
24.4123
 20
117.812
 11
24.6869
 21
117.554
  0
LINE
  8
0
 10
24.6869
 20
117.554
 11
24.927
 21
117.263
  0
LINE
  8
0
 10
24.927
 20
117.263
 11
25.1289
 21
116.945
  0
LINE
  8
0
 10
25.1289
 20
116.945
 11
25.2893
 21
116.604
  0
LINE
  8
0
 10
25.2893
 20
116.604
 11
25.4057
 21
116.246
  0
LINE
  8
0
 10
25.4057
 20
116.246
 11
25.4763
 21
115.876
  0
LINE
  8
0
 10
25.4763
 20
115.876
 11
25.5
 21
115.5
  0
LINE
  8
0
 10
25.5
 20
115.5
 11
25.4763
 21
115.124
  0
LINE
  8
0
 10
25.4763
 20
115.124
 11
25.4057
 21
114.754
  0
LINE
  8
0
 10
25.4057
 20
114.754
 11
25.2893
 21
114.396
  0
LINE
  8
0
 10
25.2893
 20
114.396
 11
25.1289
 21
114.055
  0
LINE
  8
0
 10
25.1289
 20
114.055
 11
24.927
 21
113.737
  0
LINE
  8
0
 10
24.927
 20
113.737
 11
24.6869
 21
113.446
  0
LINE
  8
0
 10
24.6869
 20
113.446
 11
24.4123
 21
113.188
  0
LINE
  8
0
 10
24.4123
 20
113.188
 11
24.1075
 21
112.967
  0
LINE
  8
0
 10
24.1075
 20
112.967
 11
23.7773
 21
112.786
  0
LINE
  8
0
 10
23.7773
 20
112.786
 11
23.427
 21
112.647
  0
LINE
  8
0
 10
23.427
 20
112.647
 11
23.0621
 21
112.553
  0
LINE
  8
0
 10
23.0621
 20
112.553
 11
22.6884
 21
112.506
  0
LINE
  8
0
 10
22.6884
 20
112.506
 11
22.3116
 21
112.506
  0
LINE
  8
0
 10
19.5
 20
167.49
 11
8.63118
 21
167.49
  0
LINE
  8
0
 10
8.63118
 20
167.49
 11
11.6213
 21
164.5
  0
LINE
  8
0
 10
11.6213
 20
164.5
 11
19.5
 21
164.5
  0
LINE
  8
0
 10
19.5
 20
164.5
 11
19.5
 21
167.49
  0
ENDSEC
  0
SECTION
  2
OBJECTS
  0
DICTIONARY
  0
ENDSEC
  0
EOF
