<?xml version="1.0" standalone="no"?>
<!DOCTYPE svg PUBLIC "-//W3C//DTD SVG 1.1//EN" "http://www.w3.org/Graphics/SVG/1.1/DTD/svg11.dtd">
<svg width="122mm" height="112mm" viewBox="-62 -224 122 112" xmlns="http://www.w3.org/2000/svg" version="1.1">
<title>OpenSCAD Model</title>
<path d="
M -58.5,-209.941 L -58.1871,-209.647 L -57.6791,-209.278 L -57.1289,-208.976 L -56.5451,-208.745 L -55.9369,-208.589
 L -55.3139,-208.51 L 55.3139,-208.51 L 55.9369,-208.589 L 56.5451,-208.745 L 57.1289,-208.976 L 57.6791,-209.278
 L 58.1871,-209.647 L 58.6448,-210.077 L 59.0451,-210.561 L 59.3815,-211.091 L 59.6489,-211.659 L 59.8429,-212.257
 L 59.9606,-212.873 L 60,-213.5 L 60,-218.5 L 59.9606,-219.127 L 59.8429,-219.743 L 59.6489,-220.341
 L 59.3815,-220.909 L 59.0451,-221.439 L 58.6448,-221.923 L 58.1871,-222.353 L 57.6791,-222.722 L 57.1289,-223.024
 L 56.5451,-223.255 L 55.9369,-223.411 L 55.3139,-223.49 L -55.3139,-223.49 L -55.9369,-223.411 L -56.5451,-223.255
 L -57.1289,-223.024 L -57.6791,-222.722 L -58.1871,-222.353 L -58.5,-222.059 L -58.5,-223.49 L -61.5,-223.49
 L -61.5,-208.51 L -58.5,-208.51 z
M -54.7512,-210.008 L -55.2495,-210.071 L -55.7361,-210.196 L -56.2031,-210.381 L -56.6433,-210.623 L -57.0497,-210.918
 L -57.4159,-211.262 L -57.7361,-211.649 L -58.0052,-212.073 L -58.2191,-212.528 L -58.3743,-213.005 L -58.4685,-213.499
 L -58.5,-214 L -58.5,-218 L -58.4685,-218.501 L -58.3743,-218.995 L -58.2191,-219.472 L -58.0052,-219.927
 L -57.7361,-220.351 L -57.4159,-220.738 L -57.0497,-221.082 L -56.6433,-221.377 L -56.2031,-221.619 L -55.7361,-221.804
 L -55.2495,-221.929 L -54.7512,-221.992 L 54.7512,-221.992 L 55.2495,-221.929 L 55.7361,-221.804 L 56.2031,-221.619
 L 56.6433,-221.377 L 57.0497,-221.082 L 57.4159,-220.738 L 57.7361,-220.351 L 58.0052,-219.927 L 58.2191,-219.472
 L 58.3743,-218.995 L 58.4685,-218.501 L 58.5,-218 L 58.5,-214 L 58.4685,-213.499 L 58.3743,-213.005
 L 58.2191,-212.528 L 58.0052,-212.073 L 57.7361,-211.649 L 57.4159,-211.262 L 57.0497,-210.918 L 56.6433,-210.623
 L 56.2031,-210.381 L 55.7361,-210.196 L 55.2495,-210.071 L 54.7512,-210.008 z
M -58.5,-185.941 L -58.1871,-185.647 L -57.6791,-185.278 L -57.1289,-184.976 L -56.5451,-184.745 L -55.9369,-184.589
 L -55.3139,-184.51 L 55.3139,-184.51 L 55.9369,-184.589 L 56.5451,-184.745 L 57.1289,-184.976 L 57.6791,-185.278
 L 58.1871,-185.647 L 58.6448,-186.077 L 59.0451,-186.561 L 59.3815,-187.091 L 59.6489,-187.659 L 59.8429,-188.257
 L 59.9606,-188.873 L 60,-189.5 L 60,-194.5 L 59.9606,-195.127 L 59.8429,-195.743 L 59.6489,-196.341
 L 59.3815,-196.909 L 59.0451,-197.439 L 58.6448,-197.923 L 58.1871,-198.353 L 57.6791,-198.722 L 57.1289,-199.024
 L 56.5451,-199.255 L 55.9369,-199.411 L 55.3139,-199.49 L -55.3139,-199.49 L -55.9369,-199.411 L -56.5451,-199.255
 L -57.1289,-199.024 L -57.6791,-198.722 L -58.1871,-198.353 L -58.5,-198.059 L -58.5,-199.49 L -61.5,-199.49
 L -61.5,-184.51 L -58.5,-184.51 z
M -54.7512,-186.008 L -55.2495,-186.071 L -55.7361,-186.196 L -56.2031,-186.381 L -56.6433,-186.623 L -57.0497,-186.918
 L -57.4159,-187.262 L -57.7361,-187.649 L -58.0052,-188.073 L -58.2191,-188.528 L -58.3743,-189.005 L -58.4685,-189.499
 L -58.5,-190 L -58.5,-194 L -58.4685,-194.501 L -58.3743,-194.995 L -58.2191,-195.472 L -58.0052,-195.927
 L -57.7361,-196.351 L -57.4159,-196.738 L -57.0497,-197.082 L -56.6433,-197.377 L -56.2031,-197.619 L -55.7361,-197.804
 L -55.2495,-197.929 L -54.7512,-197.992 L 54.7512,-197.992 L 55.2495,-197.929 L 55.7361,-197.804 L 56.2031,-197.619
 L 56.6433,-197.377 L 57.0497,-197.082 L 57.4159,-196.738 L 57.7361,-196.351 L 58.0052,-195.927 L 58.2191,-195.472
 L 58.3743,-194.995 L 58.4685,-194.501 L 58.5,-194 L 58.5,-190 L 58.4685,-189.499 L 58.3743,-189.005
 L 58.2191,-188.528 L 58.0052,-188.073 L 57.7361,-187.649 L 57.4159,-187.262 L 57.0497,-186.918 L 56.6433,-186.623
 L 56.2031,-186.381 L 55.7361,-186.196 L 55.2495,-186.071 L 54.7512,-186.008 z
M -58.5,-161.941 L -58.1871,-161.647 L -57.6791,-161.278 L -57.1289,-160.976 L -56.5451,-160.745 L -55.9369,-160.589
 L -55.3139,-160.51 L 55.3139,-160.51 L 55.9369,-160.589 L 56.5451,-160.745 L 57.1289,-160.976 L 57.6791,-161.278
 L 58.1871,-161.647 L 58.6448,-162.077 L 59.0451,-162.561 L 59.3815,-163.091 L 59.6489,-163.659 L 59.8429,-164.257
 L 59.9606,-164.873 L 60,-165.5 L 60,-170.5 L 59.9606,-171.127 L 59.8429,-171.743 L 59.6489,-172.341
 L 59.3815,-172.909 L 59.0451,-173.439 L 58.6448,-173.923 L 58.1871,-174.353 L 57.6791,-174.722 L 57.1289,-175.024
 L 56.5451,-175.255 L 55.9369,-175.411 L 55.3139,-175.49 L -55.3139,-175.49 L -55.9369,-175.411 L -56.5451,-175.255
 L -57.1289,-175.024 L -57.6791,-174.722 L -58.1871,-174.353 L -58.5,-174.059 L -58.5,-175.49 L -61.5,-175.49
 L -61.5,-160.51 L -58.5,-160.51 z
M -54.7512,-162.008 L -55.2495,-162.071 L -55.7361,-162.196 L -56.2031,-162.381 L -56.6433,-162.623 L -57.0497,-162.918
 L -57.4159,-163.262 L -57.7361,-163.649 L -58.0052,-164.073 L -58.2191,-164.528 L -58.3743,-165.005 L -58.4685,-165.499
 L -58.5,-166 L -58.5,-170 L -58.4685,-170.501 L -58.3743,-170.995 L -58.2191,-171.472 L -58.0052,-171.927
 L -57.7361,-172.351 L -57.4159,-172.738 L -57.0497,-173.082 L -56.6433,-173.377 L -56.2031,-173.619 L -55.7361,-173.804
 L -55.2495,-173.929 L -54.7512,-173.992 L 54.7512,-173.992 L 55.2495,-173.929 L 55.7361,-173.804 L 56.2031,-173.619
 L 56.6433,-173.377 L 57.0497,-173.082 L 57.4159,-172.738 L 57.7361,-172.351 L 58.0052,-171.927 L 58.2191,-171.472
 L 58.3743,-170.995 L 58.4685,-170.501 L 58.5,-170 L 58.5,-166 L 58.4685,-165.499 L 58.3743,-165.005
 L 58.2191,-164.528 L 58.0052,-164.073 L 57.7361,-163.649 L 57.4159,-163.262 L 57.0497,-162.918 L 56.6433,-162.623
 L 56.2031,-162.381 L 55.7361,-162.196 L 55.2495,-162.071 L 54.7512,-162.008 z
M 55.9369,-136.589 L 56.5451,-136.745 L 57.1289,-136.976 L 57.6791,-137.278 L 58.1871,-137.647 L 58.6448,-138.077
 L 59.0451,-138.561 L 59.3815,-139.091 L 59.6489,-139.659 L 59.8429,-140.257 L 59.9606,-140.873 L 60,-141.5
 L 60,-146.5 L 59.9606,-147.127 L 59.8429,-147.743 L 59.6489,-148.341 L 59.3815,-148.909 L 59.0451,-149.439
 L 58.6448,-149.923 L 58.1871,-150.353 L 57.6791,-150.722 L 57.1289,-151.024 L 56.5451,-151.255 L 55.9369,-151.411
 L 55.3139,-151.49 L -55.3139,-151.49 L -55.9369,-151.411 L -56.5451,-151.255 L -57.1289,-151.024 L -57.6791,-150.722
 L -58.1871,-150.353 L -58.5,-150.059 L -58.5,-151.479 L -61.5,-151.479 L -61.5,-136.521 L -58.5,-136.521
 L -58.5,-137.941 L -58.1871,-137.647 L -57.6791,-137.278 L -57.1289,-136.976 L -56.5451,-136.745 L -55.9369,-136.589
 L -55.3139,-136.51 L 55.3139,-136.51 z
M -54.6954,-138.893 L -55.0833,-138.942 L -55.4619,-139.039 L -55.8254,-139.183 L -56.168,-139.372 L -56.4842,-139.601
 L -56.7692,-139.869 L -57.0184,-140.17 L -57.2279,-140.5 L -57.3943,-140.854 L -57.5151,-141.226 L -57.5884,-141.61
 L -57.6129,-142 L -57.6129,-146 L -57.5884,-146.39 L -57.5151,-146.774 L -57.3943,-147.146 L -57.2279,-147.5
 L -57.0184,-147.83 L -56.7692,-148.131 L -56.4842,-148.399 L -56.168,-148.628 L -55.8254,-148.817 L -55.4619,-148.961
 L -55.0833,-149.058 L -54.6954,-149.107 L 54.6954,-149.107 L 55.0833,-149.058 L 55.4619,-148.961 L 55.8254,-148.817
 L 56.168,-148.628 L 56.4842,-148.399 L 56.7692,-148.131 L 57.0184,-147.83 L 57.2279,-147.5 L 57.3943,-147.146
 L 57.5151,-146.774 L 57.5884,-146.39 L 57.6129,-146 L 57.6129,-142 L 57.5884,-141.61 L 57.5151,-141.226
 L 57.3943,-140.854 L 57.2279,-140.5 L 57.0184,-140.17 L 56.7692,-139.869 L 56.4842,-139.601 L 56.168,-139.372
 L 55.8254,-139.183 L 55.4619,-139.039 L 55.0833,-138.942 L 54.6954,-138.893 z
M 55.9369,-112.589 L 56.5451,-112.745 L 57.1289,-112.976 L 57.6791,-113.278 L 58.1871,-113.647 L 58.6448,-114.077
 L 59.0451,-114.561 L 59.3815,-115.091 L 59.6489,-115.659 L 59.8429,-116.257 L 59.9606,-116.873 L 60,-117.5
 L 60,-122.5 L 59.9606,-123.127 L 59.8429,-123.743 L 59.6489,-124.341 L 59.3815,-124.909 L 59.0451,-125.439
 L 58.6448,-125.923 L 58.1871,-126.353 L 57.6791,-126.722 L 57.1289,-127.024 L 56.5451,-127.255 L 55.9369,-127.411
 L 55.3139,-127.49 L -55.3139,-127.49 L -55.9369,-127.411 L -56.5451,-127.255 L -57.1289,-127.024 L -57.6791,-126.722
 L -58.1871,-126.353 L -58.5,-126.059 L -58.5,-126.153 L -61.5,-126.153 L -61.5,-113.847 L -58.5,-113.847
 L -58.5,-113.941 L -58.1871,-113.647 L -57.6791,-113.278 L -57.1289,-112.976 L -56.5451,-112.745 L -55.9369,-112.589
 L -55.3139,-112.51 L 55.3139,-112.51 z
M -52.6341,-117.869 L -52.9001,-117.903 L -53.1598,-117.969 L -53.4092,-118.068 L -53.6441,-118.197 L -53.8611,-118.355
 L -54.0565,-118.538 L -54.2275,-118.745 L -54.3712,-118.971 L -54.4853,-119.214 L -54.5682,-119.469 L -54.6185,-119.732
 L -54.6353,-120 L -54.6185,-120.268 L -54.5682,-120.531 L -54.4853,-120.786 L -54.3712,-121.029 L -54.2275,-121.255
 L -54.0565,-121.462 L -53.8611,-121.645 L -53.6441,-121.803 L -53.4092,-121.932 L -53.1598,-122.031 L -52.9001,-122.097
 L -52.6341,-122.131 L -52.3659,-122.131 L -52.0999,-122.097 L -51.8401,-122.031 L -51.5908,-121.932 L -51.3559,-121.803
 L -51.1389,-121.645 L -50.9434,-121.462 L -50.7725,-121.255 L -50.6288,-121.029 L -50.5146,-120.786 L -50.4318,-120.531
 L -50.3815,-120.268 L -50.3647,-120 L -50.3815,-119.732 L -50.4318,-119.469 L -50.5146,-119.214 L -50.6288,-118.971
 L -50.7725,-118.745 L -50.9434,-118.538 L -51.1389,-118.355 L -51.3559,-118.197 L -51.5908,-118.068 L -51.8401,-117.969
 L -52.0999,-117.903 L -52.3659,-117.869 z
M 52.3659,-117.869 L 52.0999,-117.903 L 51.8401,-117.969 L 51.5908,-118.068 L 51.3559,-118.197 L 51.1389,-118.355
 L 50.9434,-118.538 L 50.7725,-118.745 L 50.6288,-118.971 L 50.5146,-119.214 L 50.4318,-119.469 L 50.3815,-119.732
 L 50.3647,-120 L 50.3815,-120.268 L 50.4318,-120.531 L 50.5146,-120.786 L 50.6288,-121.029 L 50.7725,-121.255
 L 50.9434,-121.462 L 51.1389,-121.645 L 51.3559,-121.803 L 51.5908,-121.932 L 51.8401,-122.031 L 52.0999,-122.097
 L 52.3659,-122.131 L 52.6341,-122.131 L 52.9001,-122.097 L 53.1598,-122.031 L 53.4092,-121.932 L 53.6441,-121.803
 L 53.8611,-121.645 L 54.0565,-121.462 L 54.2275,-121.255 L 54.3712,-121.029 L 54.4853,-120.786 L 54.5682,-120.531
 L 54.6185,-120.268 L 54.6353,-120 L 54.6185,-119.732 L 54.5682,-119.469 L 54.4853,-119.214 L 54.3712,-118.971
 L 54.2275,-118.745 L 54.0565,-118.538 L 53.8611,-118.355 L 53.6441,-118.197 L 53.4092,-118.068 L 53.1598,-117.969
 L 52.9001,-117.903 L 52.6341,-117.869 z
" stroke="black" fill="lightgray" stroke-width="0.5"/>
</svg>
